500 0 8 0           
7 Unknown 11 ACIS 5.0 NT 24 Thu Mar 25 18:10:04 1999 
-1 9.9999999999999995e-007 1e-010 
body $-1 $8 $-1 $9 #
body $-1 $10 $-1 $11 #
body $-1 $12 $-1 $13 #
body $-1 $14 $-1 $15 #
body $-1 $16 $-1 $17 #
body $-1 $18 $-1 $19 #
body $-1 $20 $-1 $21 #
body $-1 $22 $-1 $23 #
lump $-1 $-1 $24 $0 #
transform $-1 1 0 0 0 1 0 0 0 1 50.865810113834044 22.643644898448532 8.8641020878444561 1 rotate no_reflect no_shear #
lump $-1 $-1 $25 $1 #
transform $-1 1 0 0 0 1 0 0 0 1 50.865810113834044 22.643644898448532 8.8641020878444561 1 rotate no_reflect no_shear #
lump $-1 $-1 $26 $2 #
transform $-1 1 0 0 0 1 0 0 0 1 50.865810113834044 22.643644898448532 8.8641020878444561 1 rotate no_reflect no_shear #
lump $-1 $-1 $27 $3 #
transform $-1 1 0 0 0 1 0 0 0 1 50.865810113834044 22.643644898448532 8.8641020878444561 1 rotate no_reflect no_shear #
lump $-1 $-1 $28 $4 #
transform $-1 1 0 0 0 1 0 0 0 1 50.865810113834044 22.643644898448532 8.8641020878444561 1 rotate no_reflect no_shear #
lump $-1 $-1 $29 $5 #
transform $-1 1 0 0 0 1 0 0 0 1 50.865810113834044 22.643644898448532 8.8641020878444561 1 rotate no_reflect no_shear #
lump $-1 $-1 $30 $6 #
transform $-1 1 0 0 0 1 0 0 0 1 50.865810113834044 22.643644898448532 8.8641020878444561 1 rotate no_reflect no_shear #
lump $-1 $-1 $31 $7 #
transform $-1 1 0 0 0 1 0 0 0 1 50.865810113834044 22.643644898448532 8.8641020878444561 1 rotate no_reflect no_shear #
shell $-1 $-1 $-1 $32 $-1 $8 #
shell $-1 $-1 $-1 $33 $-1 $10 #
shell $-1 $-1 $-1 $34 $-1 $12 #
shell $-1 $-1 $-1 $35 $-1 $14 #
shell $-1 $-1 $-1 $36 $-1 $16 #
shell $-1 $-1 $-1 $37 $-1 $18 #
shell $-1 $-1 $-1 $38 $-1 $20 #
shell $-1 $-1 $-1 $39 $-1 $22 #
face $-1 $40 $41 $24 $-1 $42 forward single #
face $-1 $43 $44 $25 $-1 $45 forward single #
face $-1 $46 $47 $26 $-1 $48 forward single #
face $-1 $49 $50 $27 $-1 $51 reversed single #
face $-1 $52 $53 $28 $-1 $54 forward single #
face $-1 $55 $56 $29 $-1 $57 forward single #
face $-1 $58 $59 $30 $-1 $60 reversed single #
face $-1 $61 $62 $31 $-1 $63 forward single #
face $-1 $64 $65 $24 $-1 $66 reversed single #
loop $-1 $-1 $67 $32 #
plane-surface $-1 0 0 8.8641020878444561 0 0 1 1 0 0 forward_v I I I I #
face $-1 $68 $69 $25 $-1 $70 forward single #
loop $-1 $-1 $71 $33 #
plane-surface $-1 0 -22.643644898448532 0 0 1 0 0 0 1 forward_v I I I I #
face $-1 $72 $73 $26 $-1 $74 forward single #
loop $-1 $-1 $75 $34 #
plane-surface $-1 0 22.643644898448532 0 0 -1 0 0 0 -1 forward_v I I I I #
face $-1 $76 $77 $27 $-1 $78 reversed single #
loop $-1 $-1 $79 $35 #
plane-surface $-1 45.844812844484622 13.131070454915257 146.21489027961317 0 -1 0 -0.68199836817093118 0 -0.7313536940579346 forward_v I I I I #
face $-1 $80 $81 $28 $-1 $82 forward single #
loop $-1 $83 $84 $36 #
cone-surface $-1 47.076176691259349 8.1723444040180908 5.2825217153706108 -0.68199836817093118 0 -0.7313536940579346 0.18283842351448365 0 -0.17049959204273279 1 I I 0 1 0.25 forward I I I I #
face $-1 $85 $86 $29 $-1 $87 forward single #
loop $-1 $88 $89 $37 #
cone-surface $-1 47.076176691259349 11.147580034556388 5.2825217153706108 -0.68199836817093118 0 -0.7313536940579346 0.18283842351448365 0 -0.17049959204273279 1 I I 0 1 0.25 forward I I I I #
face $-1 $90 $91 $30 $-1 $92 reversed single #
loop $-1 $-1 $93 $38 #
plane-surface $-1 -125.26760797982659 5.5095683105765012 70.681326142027146 0 1 0 -0.73135370988377701 0 0.68199835119979291 forward_v I I I I #
face $-1 $94 $95 $31 $-1 $96 forward single #
loop $-1 $97 $98 $39 #
cone-surface $-1 -45.266908336259881 9.320319382745879 3.1498376591856236 0.73135370988377701 0 -0.68199835119979291 1.0229975267996894 0 1.0970305648256655 1 I I 0 1 1.5 forward I I I I #
face $-1 $99 $100 $24 $-1 $101 reversed single #
loop $-1 $-1 $102 $40 #
plane-surface $-1 0 0 -8.8641020878444561 0 0 1 1 0 0 forward_v I I I I #
coedge $-1 $103 $104 $105 $106 forward $41 $-1 #
face $-1 $107 $108 $25 $-1 $109 reversed single #
loop $-1 $-1 $110 $43 #
plane-surface $-1 0 0 8.8641020878444561 0 0 1 1 0 0 forward_v I I I I #
coedge $-1 $111 $112 $113 $114 forward $44 $-1 #
face $-1 $115 $116 $26 $-1 $117 reversed single #
loop $-1 $-1 $118 $46 #
plane-surface $-1 0 0 8.8641020878444561 0 0 1 1 0 0 forward_v I I I I #
coedge $-1 $119 $120 $121 $122 forward $47 $-1 #
face $-1 $123 $124 $27 $-1 $125 reversed single #
loop $-1 $-1 $126 $49 #
plane-surface $-1 -23.535986142169904 9.659962219287241 71.81309402360921 0.68199836817093118 0 0.7313536940579346 0.7313536940579346 0 -0.68199836817093118 forward_v I I I I #
coedge $-1 $127 $128 $129 $130 reversed $50 $-1 #
face $-1 $-1 $131 $28 $-1 $132 forward single #
loop $-1 $133 $134 $52 #
cone-surface $-1 46.649927711152515 8.1723444040180908 4.825425656584402 -0.68199836817093118 0 -0.7313536940579346 0.091419211757241825 0 -0.085249796021366397 1 I I -0.70710678118654746 0.70710678118654746 0.125 forward I I I I #
loop $-1 $-1 $135 $36 #
coedge $-1 $84 $84 $136 $137 reversed $53 $-1 #
face $-1 $-1 $138 $29 $-1 $139 forward single #
loop $-1 $140 $141 $55 #
cone-surface $-1 46.649927711152515 11.147580034556388 4.825425656584402 -0.68199836817093118 0 -0.7313536940579346 0.091419211757241825 0 -0.085249796021366397 1 I I -0.70710678118654746 0.70710678118654746 0.125 forward I I I I #
loop $-1 $-1 $142 $37 #
coedge $-1 $89 $89 $143 $144 reversed $56 $-1 #
face $-1 $145 $146 $30 $-1 $147 reversed single #
loop $-1 $-1 $148 $58 #
plane-surface $-1 -50.865810113834044 9.320319382745879 1.3005288818740155 -0.73135370988377701 0 0.68199835119979291 0.68199835119979291 0 0.73135370988377701 forward_v I I I I #
coedge $-1 $149 $150 $151 $152 reversed $59 $-1 #
face $-1 $-1 $153 $31 $-1 $154 forward single #
loop $-1 $155 $156 $61 #
cone-surface $-1 -42.646064250429617 9.320319382745879 0.70586107011216903 0.73135370988377701 0 -0.68199835119979291 0.51149876339984468 0 0.54851528241283276 1 I I -0.70710678118654757 0.70710678118654757 0.75 forward I I I I #
loop $-1 $-1 $157 $39 #
coedge $-1 $98 $98 $158 $159 reversed $62 $-1 #
face $-1 $160 $161 $24 $-1 $162 reversed single #
loop $-1 $-1 $163 $64 #
plane-surface $-1 0 -22.643644898448532 0 0 1 0 0 0 1 forward_v I I I I #
coedge $-1 $164 $165 $166 $167 forward $65 $-1 #
coedge $-1 $168 $67 $169 $170 forward $41 $-1 #
coedge $-1 $67 $168 $171 $172 forward $41 $-1 #
coedge $-1 $173 $174 $67 $106 reversed $175 $-1 #
edge $-1 $176 -22.643644898448532 $177 22.643644898448532 $105 $178 forward 7 unknown #
face $-1 $179 $180 $25 $-1 $181 reversed single #
loop $-1 $-1 $182 $68 #
plane-surface $-1 -50.865810113834044 0 0 1 0 0 0 0 -1 forward_v I I I I #
coedge $-1 $183 $184 $112 $185 forward $69 $-1 #
coedge $-1 $186 $71 $187 $188 reversed $44 $-1 #
coedge $-1 $71 $186 $110 $185 reversed $44 $-1 #
coedge $-1 $189 $190 $71 $114 reversed $191 $-1 #
edge $-1 $192 -8.8641020878444561 $193 8.8641020878444561 $113 $194 forward 7 unknown #
face $-1 $195 $196 $26 $-1 $197 reversed single #
loop $-1 $-1 $198 $72 #
plane-surface $-1 -49.365810113834044 32.156219341981803 0 0 -1 0 0 0 -1 forward_v I I I I #
coedge $-1 $199 $200 $119 $201 forward $73 $-1 #
coedge $-1 $202 $75 $118 $201 reversed $47 $-1 #
coedge $-1 $75 $202 $203 $204 reversed $47 $-1 #
coedge $-1 $205 $206 $75 $122 reversed $196 $-1 #
edge $-1 $207 -8.8641020878444561 $208 8.8641020878444561 $121 $209 forward 7 unknown #
face $-1 $210 $211 $27 $-1 $212 forward single #
loop $-1 $-1 $213 $76 #
plane-surface $-1 45.844812844484622 6.1888539836592251 146.21489027961317 0 1 0 0.68199836817093118 0 0.7313536940579346 forward_v I I I I #
coedge $-1 $214 $215 $216 $217 reversed $77 $-1 #
coedge $-1 $128 $79 $218 $219 reversed $50 $-1 #
coedge $-1 $79 $127 $214 $220 reversed $50 $-1 #
coedge $-1 $216 $221 $79 $130 forward $211 $-1 #
edge $-1 $222 -27.943403691591733 $223 -21.046135214613294 $129 $224 forward 7 unknown #
loop $-1 $-1 $136 $80 #
plane-surface $-1 -23.535986142169904 9.659962219287241 71.81309402360921 0.68199836817093118 0 0.7313536940579346 0.7313536940579346 0 -0.68199836817093118 forward_v I I I I #
loop $-1 $-1 $225 $52 #
coedge $-1 $134 $134 $135 $226 reversed $81 $-1 #
coedge $-1 $135 $135 $134 $226 forward $83 $-1 #
coedge $-1 $136 $136 $84 $137 forward $131 $-1 #
edge $-1 $227 0 $227 6.2831853071796004 $136 $228 forward 7 unknown #
loop $-1 $-1 $143 $85 #
plane-surface $-1 -23.535986142169904 9.659962219287241 71.81309402360921 0.68199836817093118 0 0.7313536940579346 0.7313536940579346 0 -0.68199836817093118 forward_v I I I I #
loop $-1 $-1 $229 $55 #
coedge $-1 $141 $141 $142 $230 reversed $86 $-1 #
coedge $-1 $142 $142 $141 $230 forward $88 $-1 #
coedge $-1 $143 $143 $89 $144 forward $138 $-1 #
edge $-1 $231 0 $231 6.2831853071796004 $143 $232 forward 7 unknown #
face $-1 $233 $234 $30 $-1 $235 reversed single #
loop $-1 $-1 $236 $90 #
plane-surface $-1 -125.26760797982659 13.131070454915257 70.681326142027146 0 -1 0 0.73135370988377701 0 -0.68199835119979291 forward_v I I I I #
coedge $-1 $237 $238 $239 $240 reversed $91 $-1 #
coedge $-1 $150 $93 $241 $242 reversed $59 $-1 #
coedge $-1 $93 $149 $237 $243 reversed $59 $-1 #
coedge $-1 $239 $244 $93 $152 forward $245 $-1 #
edge $-1 $246 11.767993876079252 $247 18.821139824392702 $151 $248 forward 7 unknown #
loop $-1 $-1 $158 $94 #
plane-surface $-1 -50.865810113834044 9.320319382745879 1.3005288818740155 -0.73135370988377701 0 0.68199835119979291 0.68199835119979291 0 0.73135370988377701 forward_v I I I I #
loop $-1 $-1 $249 $61 #
coedge $-1 $156 $156 $157 $250 reversed $95 $-1 #
coedge $-1 $157 $157 $156 $250 forward $97 $-1 #
coedge $-1 $158 $158 $98 $159 forward $153 $-1 #
edge $-1 $251 0 $251 6.2831853071796004 $158 $252 forward 7 unknown #
face $-1 $253 $254 $24 $-1 $255 reversed single #
loop $-1 $-1 $256 $99 #
plane-surface $-1 -50.865810113834044 0 0 1 0 0 0 0 -1 forward_v I I I I #
coedge $-1 $257 $171 $258 $259 forward $100 $-1 #
coedge $-1 $260 $102 $257 $261 forward $65 $-1 #
coedge $-1 $102 $260 $262 $263 forward $65 $-1 #
coedge $-1 $174 $173 $102 $167 reversed $175 $-1 #
edge $-1 $264 -22.643644898448532 $265 22.643644898448532 $166 $266 forward 7 unknown #
coedge $-1 $104 $103 $267 $268 forward $41 $-1 #
coedge $-1 $269 $270 $103 $170 reversed $254 $-1 #
edge $-1 $177 -50.865810113834044 $271 50.865810113834044 $169 $272 forward 7 unknown #
coedge $-1 $163 $273 $104 $172 reversed $100 $-1 #
edge $-1 $274 -50.865810113834044 $176 50.865810113834044 $171 $275 forward 7 unknown #
coedge $-1 $166 $105 $273 $276 forward $175 $-1 #
coedge $-1 $105 $166 $269 $277 reversed $175 $-1 #
loop $-1 $-1 $173 $253 #
vertex $-1 $106 $278 #
vertex $-1 $106 $279 #
straight-curve $-1 50.865810113834044 0 8.8641020878444561 0 1 0 I I #
face $-1 $280 $191 $25 $-1 $281 reversed single #
loop $-1 $-1 $282 $107 #
plane-surface $-1 -49.365810113834044 -32.156219341981803 0 0 1 0 0 0 1 forward_v I I I I #
coedge $-1 $283 $284 $186 $285 forward $108 $-1 #
coedge $-1 $286 $110 $284 $287 forward $69 $-1 #
coedge $-1 $110 $286 $189 $288 forward $69 $-1 #
edge $-1 $192 47.865810113834044 $289 50.865810113834044 $110 $290 forward 7 unknown #
coedge $-1 $112 $111 $182 $285 reversed $44 $-1 #
coedge $-1 $291 $292 $111 $188 forward $293 $-1 #
edge $-1 $294 -50.865810113834044 $193 -47.865810113834044 $187 $295 forward 7 unknown #
coedge $-1 $296 $113 $184 $288 reversed $191 $-1 #
coedge $-1 $113 $296 $291 $297 reversed $191 $-1 #
loop $-1 $-1 $296 $179 #
vertex $-1 $185 $298 #
vertex $-1 $297 $299 #
straight-curve $-1 -47.865810113834044 -22.643644898448532 0 0 0 -1 I I #
face $-1 $300 $301 $26 $-1 $302 reversed single #
loop $-1 $-1 $121 $115 #
plane-surface $-1 -47.865810113834044 27.399932120215166 0 -1 0 0 0 0 1 forward_v I I I I #
coedge $-1 $303 $304 $305 $306 forward $116 $-1 #
coedge $-1 $307 $118 $206 $308 forward $73 $-1 #
coedge $-1 $118 $307 $309 $310 forward $73 $-1 #
edge $-1 $311 -50.865810113834044 $208 -47.865810113834044 $118 $312 forward 7 unknown #
coedge $-1 $120 $119 $313 $314 reversed $47 $-1 #
coedge $-1 $315 $316 $120 $204 forward $301 $-1 #
edge $-1 $207 47.865810113834044 $317 50.865810113834044 $203 $318 forward 7 unknown #
coedge $-1 $305 $121 $316 $319 reversed $196 $-1 #
coedge $-1 $121 $305 $199 $308 reversed $196 $-1 #
vertex $-1 $204 $320 #
vertex $-1 $308 $321 #
straight-curve $-1 -47.865810113834044 22.643644898448532 0 0 0 1 I I #
face $-1 $-1 $322 $27 $-1 $323 reversed single #
loop $-1 $-1 $129 $123 #
plane-surface $-1 0 0 8.8641020878444561 0 0 1 1 0 0 forward_v I I I I #
coedge $-1 $324 $325 $326 $327 reversed $124 $-1 #
coedge $-1 $328 $126 $128 $220 forward $77 $-1 #
coedge $-1 $126 $328 $324 $329 forward $77 $-1 #
coedge $-1 $326 $129 $126 $217 forward $211 $-1 #
edge $-1 $223 -8.3010893452716363 $330 -1.3588728740156046 $216 $331 forward 7 unknown #
coedge $-1 $332 $333 $127 $219 forward $322 $-1 #
edge $-1 $334 -70.675150102851902 $222 -64.243343051962128 $218 $335 forward 7 unknown #
edge $-1 $223 92.30079553502344 $334 101.73162022766809 $128 $336 forward 7 unknown #
coedge $-1 $129 $326 $332 $337 forward $211 $-1 #
vertex $-1 $130 $338 #
vertex $-1 $130 $339 #
straight-curve $-1 22.922406422242311 13.131070454915257 8.8641020878444579 -1 0 0 I I #
coedge $-1 $225 $225 $-1 $340 reversed $133 $-1 #
edge $-1 $341 0 $341 6.2831853071796004 $134 $342 forward 7 unknown #
vertex $-1 $137 $343 #
ellipse-curve $-1 47.417175875344817 8.1723444040180908 5.6481985623995783 0.68199836817093118 0 0.7313536940579346 0.18283842351448365 0 -0.17049959204273279 1 I I #
coedge $-1 $229 $229 $-1 $344 reversed $140 $-1 #
edge $-1 $345 0 $345 6.2831853071796004 $141 $346 forward 7 unknown #
vertex $-1 $144 $347 #
ellipse-curve $-1 47.417175875344817 11.147580034556388 5.6481985623995783 0.68199836817093118 0 0.7313536940579346 0.18283842351448365 0 -0.17049959204273279 1 I I #
face $-1 $-1 $245 $30 $-1 $348 forward single #
loop $-1 $-1 $349 $145 #
plane-surface $-1 -50.865810113834044 0 0 1 0 0 0 0 -1 forward_v I I I I #
coedge $-1 $350 $351 $352 $353 reversed $146 $-1 #
coedge $-1 $354 $148 $150 $243 forward $91 $-1 #
coedge $-1 $148 $354 $350 $355 forward $91 $-1 #
coedge $-1 $352 $151 $148 $240 forward $245 $-1 #
edge $-1 $247 0.8494086192035617 $356 8.4709107635423173 $239 $357 forward 7 unknown #
coedge $-1 $358 $359 $149 $242 forward $234 $-1 #
edge $-1 $360 -34.040134189139557 $246 -26.476560983169115 $241 $361 forward 7 unknown #
edge $-1 $247 -10.341881231685289 $360 0 $150 $362 forward 7 unknown #
coedge $-1 $151 $352 $358 $363 forward $245 $-1 #
loop $-1 $-1 $352 $233 #
vertex $-1 $242 $364 #
vertex $-1 $152 $365 #
straight-curve $-1 -62.633803989913297 5.5095683105765012 8.8641020878444579 1 0 0 I I #
coedge $-1 $249 $249 $-1 $366 reversed $155 $-1 #
edge $-1 $367 0 $367 6.2831853071796004 $156 $368 forward 7 unknown #
vertex $-1 $159 $369 #
ellipse-curve $-1 -47.339237139677316 9.320319382745879 5.0823154848592367 -0.73135370988377701 0 0.68199835119979291 1.0229975267996894 0 1.0970305648256655 1 I I #
face $-1 $-1 $175 $24 $-1 $370 reversed single #
loop $-1 $-1 $269 $160 #
plane-surface $-1 0 22.643644898448532 0 0 -1 0 0 0 -1 forward_v I I I I #
coedge $-1 $371 $267 $270 $372 forward $161 $-1 #
coedge $-1 $273 $163 $164 $261 reversed $100 $-1 #
coedge $-1 $267 $371 $163 $259 reversed $161 $-1 #
edge $-1 $274 -8.8641020878444561 $373 8.8641020878444561 $258 $374 forward 7 unknown #
coedge $-1 $165 $164 $371 $375 forward $65 $-1 #
edge $-1 $265 -50.865810113834044 $373 50.865810113834044 $257 $376 forward 7 unknown #
coedge $-1 $270 $269 $165 $263 reversed $254 $-1 #
edge $-1 $377 -50.865810113834044 $264 50.865810113834044 $262 $378 forward 7 unknown #
vertex $-1 $167 $379 #
vertex $-1 $276 $380 #
straight-curve $-1 50.865810113834044 0 -8.8641020878444561 0 -1 0 I I #
coedge $-1 $256 $258 $168 $268 reversed $161 $-1 #
edge $-1 $271 -22.643644898448532 $274 22.643644898448532 $267 $381 forward 7 unknown #
coedge $-1 $262 $169 $174 $277 forward $254 $-1 #
coedge $-1 $169 $262 $256 $372 reversed $254 $-1 #
vertex $-1 $170 $382 #
straight-curve $-1 0 22.643644898448532 8.8641020878444561 -1 0 0 I I #
coedge $-1 $171 $257 $173 $276 reversed $100 $-1 #
vertex $-1 $268 $383 #
straight-curve $-1 0 -22.643644898448532 8.8641020878444561 1 0 0 I I #
edge $-1 $176 -8.8641020878444561 $265 8.8641020878444561 $173 $384 forward 7 unknown #
edge $-1 $177 -8.8641020878444561 $264 8.8641020878444561 $174 $385 forward 7 unknown #
point $-1 50.865810113834044 -22.643644898448532 8.8641020878444561 #
point $-1 50.865810113834044 22.643644898448532 8.8641020878444561 #
face $-1 $-1 $293 $25 $-1 $386 reversed single #
plane-surface $-1 -47.865810113834044 -27.399932120215169 0 -1 0 0 0 0 1 forward_v I I I I #
coedge $-1 $387 $388 $389 $390 forward $180 $-1 #
coedge $-1 $389 $182 $292 $391 reversed $108 $-1 #
coedge $-1 $182 $389 $183 $287 reversed $108 $-1 #
edge $-1 $289 -8.8641020878444561 $294 8.8641020878444561 $182 $392 forward 7 unknown #
coedge $-1 $184 $183 $388 $393 forward $69 $-1 #
edge $-1 $289 22.643644898448532 $394 32.156219341981803 $284 $395 forward 7 unknown #
edge $-1 $396 -4.7562872217666339 $192 4.7562872217666374 $189 $397 forward 7 unknown #
vertex $-1 $287 $398 #
straight-curve $-1 0 -22.643644898448532 8.8641020878444561 -1 0 0 I I #
coedge $-1 $399 $187 $190 $297 forward $293 $-1 #
coedge $-1 $187 $399 $283 $391 forward $293 $-1 #
loop $-1 $-1 $187 $280 #
vertex $-1 $285 $400 #
straight-curve $-1 0 -22.643644898448532 -8.8641020878444561 1 0 0 I I #
coedge $-1 $190 $189 $401 $402 forward $191 $-1 #
edge $-1 $193 -4.7562872217666374 $403 4.7562872217666339 $190 $404 forward 7 unknown #
point $-1 -47.865810113834044 -22.643644898448532 8.8641020878444561 #
point $-1 -47.865810113834044 -22.643644898448532 -8.8641020878444561 #
face $-1 $-1 $405 $26 $-1 $406 reversed single #
loop $-1 $-1 $203 $195 #
plane-surface $-1 0 0 -8.8641020878444561 0 0 1 1 0 0 forward_v I I I I #
coedge $-1 $407 $198 $408 $409 reversed $116 $-1 #
coedge $-1 $198 $407 $307 $410 reversed $116 $-1 #
coedge $-1 $206 $205 $198 $306 reversed $196 $-1 #
edge $-1 $411 -8.8641020878444561 $412 8.8641020878444561 $305 $413 forward 7 unknown #
coedge $-1 $200 $199 $304 $410 forward $73 $-1 #
edge $-1 $208 -4.7562872217666374 $411 4.7562872217666374 $206 $414 forward 7 unknown #
coedge $-1 $415 $313 $200 $310 reversed $405 $-1 #
edge $-1 $416 -32.156219341981803 $311 -22.643644898448532 $309 $417 forward 7 unknown #
vertex $-1 $314 $418 #
straight-curve $-1 0 22.643644898448532 8.8641020878444561 1 0 0 I I #
coedge $-1 $309 $419 $202 $314 forward $405 $-1 #
edge $-1 $317 -8.8641020878444561 $311 8.8641020878444561 $313 $420 forward 7 unknown #
coedge $-1 $408 $203 $419 $421 forward $301 $-1 #
coedge $-1 $203 $408 $205 $319 forward $301 $-1 #
vertex $-1 $421 $422 #
straight-curve $-1 0 22.643644898448532 -8.8641020878444561 -1 0 0 I I #
edge $-1 $412 -4.7562872217666374 $207 4.7562872217666374 $205 $423 forward 7 unknown #
point $-1 -47.865810113834044 22.643644898448528 -8.8641020878444561 #
point $-1 -47.865810113834044 22.643644898448528 8.8641020878444561 #
loop $-1 $-1 $218 $210 #
plane-surface $-1 50.865810113834044 0 0 -1 0 0 0 0 1 forward_v I I I I #
coedge $-1 $325 $213 $215 $329 reversed $124 $-1 #
coedge $-1 $213 $324 $424 $425 reversed $124 $-1 #
coedge $-1 $221 $216 $213 $327 forward $211 $-1 #
edge $-1 $330 21.046135214613294 $426 27.943403691591733 $326 $427 forward 7 unknown #
coedge $-1 $215 $214 $333 $428 reversed $77 $-1 #
edge $-1 $429 -101.73162022766809 $330 -92.30079553502344 $324 $430 forward 7 unknown #
vertex $-1 $217 $431 #
straight-curve $-1 43.968541636855605 4.8299811096436205 8.8641020878444579 0 -1 0 I I #
coedge $-1 $424 $218 $221 $337 reversed $322 $-1 #
coedge $-1 $218 $424 $328 $428 forward $322 $-1 #
vertex $-1 $219 $432 #
straight-curve $-1 50.865810113834044 13.131070454915257 73.107445139806586 0 0 1 I I #
straight-curve $-1 -23.535986142169904 13.131070454915257 71.81309402360921 0.7313536940579346 0 -0.68199836817093118 I I #
edge $-1 $426 6.1888539836592251 $222 13.131070454915257 $332 $433 forward 7 unknown #
point $-1 50.865810113834044 13.131070454915257 8.8641020878444561 #
point $-1 43.968541636855605 13.131070454915257 8.8641020878444508 #
edge $-1 $434 1 $434 0 $225 $-1 forward 7 unknown #
vertex $-1 $226 $435 #
ellipse-curve $-1 46.73517750717388 8.1723444040180908 4.9168448683416441 0.68199836817093118 0 0.7313536940579346 0.18283842351448365 0 -0.17049959204273279 1 I I #
point $-1 47.600014298859293 8.1723444040180908 5.4776989703568457 #
edge $-1 $436 1 $436 0 $229 $-1 forward 7 unknown #
vertex $-1 $230 $437 #
ellipse-curve $-1 46.73517750717388 11.147580034556388 4.9168448683416441 0.68199836817093118 0 0.7313536940579346 0.18283842351448365 0 -0.17049959204273279 1 I I #
point $-1 47.600014298859293 11.147580034556388 5.4776989703568457 #
plane-surface $-1 0 0 8.8641020878444561 0 0 1 1 0 0 forward_v I I I I #
coedge $-1 $359 $358 $351 $438 forward $234 $-1 #
coedge $-1 $351 $236 $238 $355 reversed $146 $-1 #
coedge $-1 $236 $350 $349 $438 reversed $146 $-1 #
coedge $-1 $244 $239 $236 $353 forward $245 $-1 #
edge $-1 $356 -18.821139824392702 $439 -11.767993876079252 $352 $440 forward 7 unknown #
coedge $-1 $238 $237 $359 $441 reversed $91 $-1 #
edge $-1 $442 0 $356 10.341881231685289 $350 $443 forward 7 unknown #
vertex $-1 $240 $444 #
straight-curve $-1 -43.812664165520602 4.6601596913729395 8.8641020878444561 0 1 0 I I #
coedge $-1 $349 $241 $244 $363 reversed $234 $-1 #
coedge $-1 $241 $349 $354 $441 forward $234 $-1 #
vertex $-1 $242 $445 #
straight-curve $-1 -50.865810113834044 5.5095683105765012 35.340663071013573 0 0 1 I I #
straight-curve $-1 -50.865810113834044 5.5095683105765012 1.3005288818740155 -0.68199835119979291 0 -0.73135370988377701 I I #
edge $-1 $439 -13.131070454915257 $246 -5.5095683105765012 $358 $446 forward 7 unknown #
point $-1 -50.865810113834044 5.5095683105765012 8.8641020878444561 #
point $-1 -43.812664165520594 5.5095683105765012 8.8641020878444579 #
edge $-1 $447 1 $447 0 $249 $-1 forward 7 unknown #
vertex $-1 $250 $448 #
ellipse-curve $-1 -43.194579532842454 9.320319382745879 1.2173598335120137 -0.73135370988377701 0 0.68199835119979291 1.0229975267996894 0 1.0970305648256655 1 I I #
point $-1 -46.316239612877631 9.320319382745879 6.1793460496848995 #
plane-surface $-1 50.865810113834044 0 0 -1 0 0 0 0 1 forward_v I I I I #
coedge $-1 $258 $256 $260 $375 reversed $161 $-1 #
edge $-1 $271 -8.8641020878444561 $377 8.8641020878444561 $270 $449 forward 7 unknown #
vertex $-1 $375 $450 #
straight-curve $-1 -50.865810113834044 -22.643644898448532 0 0 0 -1 I I #
edge $-1 $373 -22.643644898448532 $377 22.643644898448532 $371 $451 forward 7 unknown #
straight-curve $-1 0 -22.643644898448532 -8.8641020878444561 -1 0 0 I I #
vertex $-1 $263 $452 #
straight-curve $-1 0 22.643644898448532 -8.8641020878444561 1 0 0 I I #
point $-1 50.865810113834044 22.643644898448532 -8.8641020878444561 #
point $-1 50.865810113834044 -22.643644898448532 -8.8641020878444561 #
straight-curve $-1 -50.865810113834044 0 8.8641020878444561 0 -1 0 I I #
point $-1 -50.865810113834044 22.643644898448532 8.8641020878444561 #
point $-1 -50.865810113834044 -22.643644898448532 8.8641020878444561 #
straight-curve $-1 50.865810113834044 -22.643644898448532 0 0 0 -1 I I #
straight-curve $-1 50.865810113834044 22.643644898448532 0 0 0 -1 I I #
plane-surface $-1 0 0 -8.8641020878444561 0 0 1 1 0 0 forward_v I I I I #
coedge $-1 $401 $282 $399 $453 reversed $180 $-1 #
coedge $-1 $282 $401 $286 $393 reversed $180 $-1 #
coedge $-1 $284 $283 $282 $390 reversed $108 $-1 #
edge $-1 $394 -8.8641020878444561 $454 8.8641020878444561 $389 $455 forward 7 unknown #
edge $-1 $454 -32.156219341981803 $294 -22.643644898448532 $283 $456 forward 7 unknown #
straight-curve $-1 -50.865810113834044 -22.643644898448532 0 0 0 -1 I I #
edge $-1 $394 -1.5 $396 1.5 $388 $457 forward 7 unknown #
vertex $-1 $287 $458 #
straight-curve $-1 -50.865810113834044 0 8.8641020878444561 0 -1 0 I I #
vertex $-1 $288 $459 #
straight-curve $-1 -47.865810113834044 -27.399932120215169 8.8641020878444561 0 1 0 I I #
point $-1 -50.865810113834044 -22.643644898448532 8.8641020878444561 #
coedge $-1 $292 $291 $387 $453 forward $293 $-1 #
point $-1 -50.865810113834044 -22.643644898448532 -8.8641020878444561 #
coedge $-1 $388 $387 $296 $402 reversed $180 $-1 #
edge $-1 $396 -8.8641020878444561 $403 8.8641020878444561 $296 $460 forward 7 unknown #
vertex $-1 $402 $461 #
straight-curve $-1 -47.865810113834044 -27.399932120215169 -8.8641020878444561 0 -1 0 I I #
loop $-1 $-1 $313 $300 #
plane-surface $-1 -50.865810113834044 0 0 1 0 0 0 0 -1 forward_v I I I I #
coedge $-1 $304 $303 $415 $462 reversed $116 $-1 #
coedge $-1 $316 $315 $303 $409 forward $301 $-1 #
edge $-1 $463 -1.5 $412 1.5 $303 $464 forward 7 unknown #
edge $-1 $411 -1.5 $416 1.5 $304 $465 forward 7 unknown #
vertex $-1 $308 $466 #
vertex $-1 $319 $467 #
straight-curve $-1 -47.865810113834044 32.156219341981803 0 0 0 -1 I I #
straight-curve $-1 -47.865810113834044 27.399932120215166 8.8641020878444561 0 1 0 I I #
coedge $-1 $419 $309 $407 $462 forward $405 $-1 #
vertex $-1 $410 $468 #
straight-curve $-1 -50.865810113834044 0 8.8641020878444561 0 -1 0 I I #
point $-1 -50.865810113834044 22.643644898448532 8.8641020878444561 #
coedge $-1 $313 $415 $315 $421 reversed $405 $-1 #
straight-curve $-1 -50.865810113834044 22.643644898448532 0 0 0 1 I I #
edge $-1 $317 -4.7562872217666339 $463 4.7562872217666374 $419 $469 forward 7 unknown #
point $-1 -50.865810113834044 22.643644898448532 -8.8641020878444561 #
straight-curve $-1 -47.865810113834044 27.399932120215166 -8.8641020878444561 0 -1 0 I I #
coedge $-1 $333 $332 $325 $425 forward $322 $-1 #
edge $-1 $426 64.243343051962128 $429 70.675150102851902 $424 $470 forward 7 unknown #
vertex $-1 $337 $471 #
straight-curve $-1 22.922406422242311 6.1888539836592251 8.8641020878444579 1 0 0 I I #
edge $-1 $429 1.3588728740156046 $334 8.3010893452716363 $333 $472 forward 7 unknown #
vertex $-1 $428 $473 #
straight-curve $-1 -23.535986142169904 6.1888539836592251 71.81309402360921 -0.7313536940579346 0 0.68199836817093118 I I #
point $-1 43.968541636855605 6.1888539836592251 8.8641020878444508 #
point $-1 50.865810113834044 13.131070454915257 2.4322950369546845 #
straight-curve $-1 50.865810113834044 0 8.8641020878444561 0 1 0 I I #
vertex $-1 $340 $474 #
point $-1 46.918015930688362 8.1723444040180908 4.7463452762989107 #
vertex $-1 $344 $475 #
point $-1 46.918015930688362 11.147580034556388 4.7463452762989107 #
edge $-1 $439 26.476560983169115 $442 34.040134189139557 $349 $476 forward 7 unknown #
vertex $-1 $363 $477 #
straight-curve $-1 -62.633803989913297 13.131070454915257 8.8641020878444579 -1 0 0 I I #
edge $-1 $442 -8.4709107635423173 $360 -0.8494086192035617 $359 $478 forward 7 unknown #
vertex $-1 $441 $479 #
straight-curve $-1 -50.865810113834044 13.131070454915257 1.3005288818740155 0.68199835119979291 0 0.73135370988377701 I I #
point $-1 -43.812664165520594 13.131070454915257 8.8641020878444579 #
point $-1 -50.865810113834044 5.5095683105765012 1.3005288818740155 #
straight-curve $-1 -50.865810113834044 0 8.8641020878444561 0 -1 0 I I #
vertex $-1 $366 $480 #
point $-1 -42.171582006042762 9.320319382745879 2.3143903983376792 #
straight-curve $-1 -50.865810113834044 22.643644898448532 0 0 0 -1 I I #
point $-1 -50.865810113834044 -22.643644898448532 -8.8641020878444561 #
straight-curve $-1 -50.865810113834044 0 -8.8641020878444561 0 1 0 I I #
point $-1 -50.865810113834044 22.643644898448532 -8.8641020878444561 #
edge $-1 $403 -1.5 $454 1.5 $387 $481 forward 7 unknown #
vertex $-1 $391 $482 #
straight-curve $-1 -50.865810113834044 -32.156219341981803 0 0 0 -1 I I #
straight-curve $-1 -50.865810113834044 0 -8.8641020878444561 0 1 0 I I #
straight-curve $-1 -49.365810113834044 -32.156219341981803 8.8641020878444561 1 0 0 I I #
point $-1 -50.865810113834044 -32.156219341981803 8.8641020878444561 #
point $-1 -47.865810113834044 -32.156219341981803 8.8641020878444561 #
straight-curve $-1 -47.865810113834044 -32.156219341981803 0 0 0 -1 I I #
point $-1 -47.865810113834044 -32.156219341981803 -8.8641020878444561 #
edge $-1 $416 -8.8641020878444561 $463 8.8641020878444561 $407 $483 forward 7 unknown #
vertex $-1 $409 $484 #
straight-curve $-1 -49.365810113834044 32.156219341981803 -8.8641020878444561 1 0 0 I I #
straight-curve $-1 -49.365810113834044 32.156219341981803 8.8641020878444561 -1 0 0 I I #
point $-1 -47.865810113834044 32.156219341981803 8.8641020878444561 #
point $-1 -47.865810113834044 32.156219341981803 -8.8641020878444561 #
point $-1 -50.865810113834044 32.156219341981803 8.8641020878444561 #
straight-curve $-1 -50.865810113834044 27.399932120215166 -8.8641020878444561 0 1 0 I I #
straight-curve $-1 50.865810113834044 6.1888539836592251 73.107445139806586 0 0 -1 I I #
point $-1 50.865810113834044 6.1888539836592251 8.8641020878444561 #
straight-curve $-1 50.865810113834044 4.8299811096436205 2.4322950369546916 0 1 0 I I #
point $-1 50.865810113834044 6.1888539836592251 2.4322950369546845 #
point $-1 46.564677915131149 8.1723444040180908 4.7340064448271599 #
point $-1 46.564677915131149 11.147580034556388 4.7340064448271599 #
straight-curve $-1 -50.865810113834044 13.131070454915257 35.340663071013573 0 0 -1 I I #
point $-1 -50.865810113834044 13.131070454915257 8.8641020878444561 #
straight-curve $-1 -50.865810113834044 4.6601596913729395 1.3005288818740148 0 -1 0 I I #
point $-1 -50.865810113834044 13.131070454915257 1.3005288818740155 #
point $-1 -42.097548968016781 9.320319382745879 0.19436230671232435 #
straight-curve $-1 -49.365810113834044 -32.156219341981803 -8.8641020878444561 -1 0 0 I I #
point $-1 -50.865810113834044 -32.156219341981803 -8.8641020878444561 #
straight-curve $-1 -50.865810113834044 32.156219341981803 0 0 0 -1 I I #
point $-1 -50.865810113834044 32.156219341981803 -8.8641020878444561 #
End-of-ACIS-data 