500 0 11 0           
7 Unknown 11 ACIS 5.0 NT 24 Thu Mar 25 23:16:27 1999 
-1 9.9999999999999995e-007 1e-010 
body $-1 $11 $-1 $12 #
body $-1 $13 $-1 $14 #
body $-1 $15 $-1 $16 #
body $-1 $17 $-1 $18 #
body $-1 $19 $-1 $20 #
body $-1 $21 $-1 $22 #
body $-1 $23 $-1 $24 #
body $-1 $25 $-1 $26 #
body $-1 $27 $-1 $28 #
body $-1 $29 $-1 $30 #
body $-1 $31 $-1 $32 #
lump $-1 $-1 $33 $0 #
transform $-1 1 0 0 0 1 0 0 0 1 59.462263863032931 29.87413026497412 14.203226592178893 1 rotate no_reflect no_shear #
lump $-1 $-1 $34 $1 #
transform $-1 1 0 0 0 1 0 0 0 1 59.462263863032931 29.87413026497412 14.203226592178893 1 rotate no_reflect no_shear #
lump $-1 $-1 $35 $2 #
transform $-1 1 0 0 0 1 0 0 0 1 59.462263863032931 29.87413026497412 14.203226592178893 1 rotate no_reflect no_shear #
lump $-1 $-1 $36 $3 #
transform $-1 1 0 0 0 1 0 0 0 1 59.462263863032931 29.87413026497412 14.203226592178893 1 rotate no_reflect no_shear #
lump $-1 $-1 $37 $4 #
transform $-1 1 0 0 0 1 0 0 0 1 59.462263863032931 29.87413026497412 14.203226592178893 1 rotate no_reflect no_shear #
lump $-1 $-1 $38 $5 #
transform $-1 1 0 0 0 1 0 0 0 1 59.462263863032931 29.87413026497412 14.203226592178893 1 rotate no_reflect no_shear #
lump $-1 $-1 $39 $6 #
transform $-1 1 0 0 0 1 0 0 0 1 59.462263863032931 29.87413026497412 14.203226592178893 1 rotate no_reflect no_shear #
lump $-1 $-1 $40 $7 #
transform $-1 1 0 0 0 1 0 0 0 1 59.462263863032931 29.87413026497412 14.203226592178893 1 rotate no_reflect no_shear #
lump $-1 $-1 $41 $8 #
transform $-1 1 0 0 0 1 0 0 0 1 59.462263863032931 29.87413026497412 14.203226592178893 1 rotate no_reflect no_shear #
lump $-1 $-1 $42 $9 #
transform $-1 1 0 0 0 1 0 0 0 1 59.462263863032931 29.87413026497412 14.203226592178893 1 rotate no_reflect no_shear #
lump $-1 $-1 $43 $10 #
transform $-1 1 0 0 0 1 0 0 0 1 59.462263863032931 29.87413026497412 14.203226592178893 1 rotate no_reflect no_shear #
shell $-1 $-1 $-1 $44 $-1 $11 #
shell $-1 $-1 $-1 $45 $-1 $13 #
shell $-1 $-1 $-1 $46 $-1 $15 #
shell $-1 $-1 $-1 $47 $-1 $17 #
shell $-1 $-1 $-1 $48 $-1 $19 #
shell $-1 $-1 $-1 $49 $-1 $21 #
shell $-1 $-1 $-1 $50 $-1 $23 #
shell $-1 $-1 $-1 $51 $-1 $25 #
shell $-1 $-1 $-1 $52 $-1 $27 #
shell $-1 $-1 $-1 $53 $-1 $29 #
shell $-1 $-1 $-1 $54 $-1 $31 #
face $-1 $55 $56 $33 $-1 $57 forward single #
face $-1 $58 $59 $34 $-1 $60 forward single #
face $-1 $61 $62 $35 $-1 $63 forward single #
face $-1 $64 $65 $36 $-1 $66 reversed single #
face $-1 $67 $68 $37 $-1 $69 forward single #
face $-1 $70 $71 $38 $-1 $72 forward single #
face $-1 $73 $74 $39 $-1 $75 forward single #
face $-1 $76 $77 $40 $-1 $78 reversed single #
face $-1 $79 $80 $41 $-1 $81 forward single #
face $-1 $82 $83 $42 $-1 $84 reversed single #
face $-1 $85 $86 $43 $-1 $87 forward single #
face $-1 $88 $89 $33 $-1 $90 reversed single #
loop $-1 $-1 $91 $44 #
plane-surface $-1 0 0 14.203226592178893 0 0 1 1 0 0 forward_v I I I I #
face $-1 $92 $93 $34 $-1 $94 reversed single #
loop $-1 $-1 $95 $45 #
plane-surface $-1 -59.462263863032931 0 0 1 0 0 0 0 -1 forward_v I I I I #
face $-1 $96 $97 $35 $-1 $98 forward single #
loop $-1 $-1 $99 $46 #
plane-surface $-1 59.462263863032931 0 0 -1 0 0 0 0 1 forward_v I I I I #
face $-1 $100 $101 $36 $-1 $102 reversed single #
loop $-1 $-1 $103 $47 #
plane-surface $-1 13.32517380054351 62.803057187671236 137.68926796644831 1 0 0 0 -0.6560590369687036 -0.75470957328743171 forward_v I I I I #
face $-1 $104 $105 $37 $-1 $106 forward single #
loop $-1 $107 $108 $48 #
cone-surface $-1 15.508712669184277 26.371706452732585 11.057829083648706 0 -0.6560590369687036 -0.75470957328743171 0.5 0 0 1 I I 0 1 0.5 forward I I I I #
face $-1 $109 $110 $38 $-1 $111 forward single #
loop $-1 $112 $113 $49 #
cone-surface $-1 18.784020972145427 26.371706452732585 11.057829083648706 0 -0.6560590369687036 -0.75470957328743171 0.5 0 0 1 I I 0 1 0.5 forward I I I I #
face $-1 $114 $115 $39 $-1 $116 forward single #
loop $-1 $117 $118 $50 #
cone-surface $-1 22.059329275106577 26.371706452732585 11.057829083648706 0 -0.6560590369687036 -0.75470957328743171 0.5 0 0 1 I I 0 1 0.5 forward I I I I #
face $-1 $119 $120 $40 $-1 $121 reversed single #
loop $-1 $-1 $122 $51 #
plane-surface $-1 -6.992490033722035 -107.8956413968948 96.399785971002231 -1 0 0 0 -0.6560590369687036 0.75470957328743171 forward_v I I I I #
face $-1 $123 $124 $41 $-1 $125 forward single #
loop $-1 $126 $127 $52 #
cone-surface $-1 -15.881808244192314 -23.761373559181777 8.3930598552190112 0 0.6560590369687036 -0.75470957328743171 2 0 0 1 I I 0 1 2 forward I I I I #
face $-1 $128 $129 $42 $-1 $130 reversed single #
loop $-1 $-1 $131 $53 #
plane-surface $-1 39.014363350336112 -107.8956413968948 96.399785971002231 -1 0 0 0 -0.6560590369687036 0.75470957328743171 forward_v I I I I #
face $-1 $132 $133 $43 $-1 $134 forward single #
loop $-1 $135 $136 $54 #
cone-surface $-1 30.125045139865833 -23.761373559181777 8.3930598552190112 0 0.6560590369687036 -0.75470957328743171 2 0 0 1 I I 0 1 2 forward I I I I #
face $-1 $137 $138 $33 $-1 $139 reversed single #
loop $-1 $-1 $140 $55 #
plane-surface $-1 0 0 -14.203226592178893 0 0 1 1 0 0 forward_v I I I I #
coedge $-1 $141 $142 $143 $144 forward $56 $-1 #
face $-1 $145 $146 $34 $-1 $147 reversed single #
loop $-1 $-1 $148 $58 #
plane-surface $-1 0 29.87413026497412 0 0 -1 0 0 0 -1 forward_v I I I I #
coedge $-1 $149 $150 $151 $152 forward $59 $-1 #
face $-1 $153 $154 $35 $-1 $155 reversed single #
loop $-1 $-1 $156 $61 #
plane-surface $-1 0 0 14.203226592178893 0 0 1 1 0 0 forward_v I I I I #
coedge $-1 $157 $158 $159 $160 forward $62 $-1 #
face $-1 $161 $162 $36 $-1 $163 reversed single #
loop $-1 $-1 $164 $64 #
plane-surface $-1 18.784020972145413 -15.218453944249426 47.935788392899809 0 0.6560590369687036 0.75470957328743171 1 0 0 forward_v I I I I #
coedge $-1 $165 $166 $167 $168 reversed $65 $-1 #
face $-1 $-1 $169 $37 $-1 $170 forward single #
loop $-1 $171 $172 $67 #
cone-surface $-1 15.508712669184277 25.849123705016844 10.456666413352718 0 -0.6560590369687036 -0.75470957328743171 0.25 0 0 1 I I -0.70710678118654746 0.70710678118654746 0.25 forward I I I I #
loop $-1 $-1 $173 $48 #
coedge $-1 $108 $108 $174 $175 reversed $68 $-1 #
face $-1 $-1 $176 $38 $-1 $177 forward single #
loop $-1 $178 $179 $70 #
cone-surface $-1 18.784020972145427 25.849123705016844 10.456666413352718 0 -0.6560590369687036 -0.75470957328743171 0.25 0 0 1 I I -0.70710678118654746 0.70710678118654746 0.25 forward I I I I #
loop $-1 $-1 $180 $49 #
coedge $-1 $113 $113 $181 $182 reversed $71 $-1 #
face $-1 $-1 $183 $39 $-1 $184 forward single #
loop $-1 $185 $186 $73 #
cone-surface $-1 22.059329275106577 25.849123705016844 10.456666413352718 0 -0.6560590369687036 -0.75470957328743171 0.25 0 0 1 I I -0.70710678118654746 0.70710678118654746 0.25 forward I I I I #
loop $-1 $-1 $187 $50 #
coedge $-1 $118 $118 $188 $189 reversed $74 $-1 #
face $-1 $190 $191 $40 $-1 $192 reversed single #
loop $-1 $-1 $193 $76 #
plane-surface $-1 -15.881808244192314 -29.874130264974127 6.6463063974537135 0 -0.6560590369687036 0.75470957328743171 1 0 0 forward_v I I I I #
coedge $-1 $194 $195 $196 $197 reversed $77 $-1 #
face $-1 $-1 $198 $41 $-1 $199 forward single #
loop $-1 $200 $201 $79 #
cone-surface $-1 -15.881808244192314 -21.339178847570615 5.6066436423342907 0 0.6560590369687036 -0.75470957328743171 1 0 0 1 I I -0.70710678118654746 0.70710678118654746 1 forward I I I I #
loop $-1 $-1 $202 $52 #
coedge $-1 $127 $127 $203 $204 reversed $80 $-1 #
face $-1 $205 $206 $42 $-1 $207 reversed single #
loop $-1 $-1 $208 $82 #
plane-surface $-1 30.125045139865833 -29.874130264974127 6.6463063974537135 0 -0.6560590369687036 0.75470957328743171 1 0 0 forward_v I I I I #
coedge $-1 $209 $210 $211 $212 reversed $83 $-1 #
face $-1 $-1 $213 $43 $-1 $214 forward single #
loop $-1 $215 $216 $85 #
cone-surface $-1 30.125045139865833 -21.339178847570615 5.6066436423342907 0 0.6560590369687036 -0.75470957328743171 1 0 0 1 I I -0.70710678118654746 0.70710678118654746 1 forward I I I I #
loop $-1 $-1 $217 $54 #
coedge $-1 $136 $136 $218 $219 reversed $86 $-1 #
face $-1 $220 $221 $33 $-1 $222 reversed single #
loop $-1 $-1 $223 $88 #
plane-surface $-1 0 -29.87413026497412 0 0 1 0 0 0 1 forward_v I I I I #
coedge $-1 $224 $225 $226 $227 forward $89 $-1 #
coedge $-1 $228 $91 $229 $230 forward $56 $-1 #
coedge $-1 $91 $228 $231 $232 forward $56 $-1 #
coedge $-1 $233 $234 $91 $144 reversed $235 $-1 #
edge $-1 $236 -29.87413026497412 $237 29.87413026497412 $143 $238 forward 7 unknown #
face $-1 $239 $240 $34 $-1 $241 reversed single #
loop $-1 $-1 $151 $92 #
plane-surface $-1 -66.189969102520323 0 8.6532747308263112 0 0 1 1 0 0 forward_v I I I I #
coedge $-1 $242 $243 $149 $244 forward $93 $-1 #
coedge $-1 $245 $95 $148 $244 reversed $59 $-1 #
coedge $-1 $95 $245 $246 $247 reversed $59 $-1 #
coedge $-1 $248 $249 $95 $152 reversed $146 $-1 #
edge $-1 $250 -29.87413026497412 $251 29.87413026497412 $151 $252 forward 7 unknown #
face $-1 $253 $254 $35 $-1 $255 reversed single #
loop $-1 $-1 $256 $96 #
plane-surface $-1 0 -29.87413026497412 0 0 1 0 0 0 1 forward_v I I I I #
coedge $-1 $257 $258 $259 $260 forward $97 $-1 #
coedge $-1 $259 $99 $256 $261 reversed $62 $-1 #
coedge $-1 $99 $259 $262 $263 reversed $62 $-1 #
coedge $-1 $264 $265 $99 $160 reversed $254 $-1 #
edge $-1 $266 -29.87413026497412 $267 29.87413026497412 $159 $268 forward 7 unknown #
face $-1 $269 $270 $36 $-1 $271 reversed single #
loop $-1 $-1 $272 $100 #
plane-surface $-1 24.242868143747316 62.803057187671236 137.68926796644831 -1 0 0 0 0.6560590369687036 0.75470957328743171 forward_v I I I I #
coedge $-1 $273 $274 $275 $276 reversed $101 $-1 #
coedge $-1 $166 $103 $277 $278 reversed $65 $-1 #
coedge $-1 $103 $165 $273 $279 reversed $65 $-1 #
coedge $-1 $275 $280 $103 $168 forward $281 $-1 #
edge $-1 $282 1.5273983288614978 $283 7.8151099763974976 $167 $284 forward 7 unknown #
loop $-1 $-1 $174 $104 #
plane-surface $-1 18.784020972145413 -15.218453944249426 47.935788392899809 0 0.6560590369687036 0.75470957328743171 1 0 0 forward_v I I I I #
loop $-1 $-1 $285 $67 #
coedge $-1 $172 $172 $173 $286 reversed $105 $-1 #
coedge $-1 $173 $173 $172 $286 forward $107 $-1 #
coedge $-1 $174 $174 $108 $175 forward $169 $-1 #
edge $-1 $287 -5.8183885609520775e-015 $287 6.2831853071795942 $174 $288 forward 7 unknown #
loop $-1 $-1 $181 $109 #
plane-surface $-1 18.784020972145413 -15.218453944249426 47.935788392899809 0 0.6560590369687036 0.75470957328743171 1 0 0 forward_v I I I I #
loop $-1 $-1 $289 $70 #
coedge $-1 $179 $179 $180 $290 reversed $110 $-1 #
coedge $-1 $180 $180 $179 $290 forward $112 $-1 #
coedge $-1 $181 $181 $113 $182 forward $176 $-1 #
edge $-1 $291 -5.8183885609520775e-015 $291 6.2831853071795942 $181 $292 forward 7 unknown #
loop $-1 $-1 $188 $114 #
plane-surface $-1 18.784020972145413 -15.218453944249426 47.935788392899809 0 0.6560590369687036 0.75470957328743171 1 0 0 forward_v I I I I #
loop $-1 $-1 $293 $73 #
coedge $-1 $186 $186 $187 $294 reversed $115 $-1 #
coedge $-1 $187 $187 $186 $294 forward $117 $-1 #
coedge $-1 $188 $188 $118 $189 forward $183 $-1 #
edge $-1 $295 -5.8183885609520775e-015 $295 6.2831853071795942 $188 $296 forward 7 unknown #
face $-1 $297 $298 $40 $-1 $299 reversed single #
loop $-1 $-1 $300 $119 #
plane-surface $-1 -24.771126454662593 -107.8956413968948 96.399785971002231 1 0 0 0 0.6560590369687036 -0.75470957328743171 forward_v I I I I #
coedge $-1 $301 $302 $303 $304 reversed $120 $-1 #
coedge $-1 $195 $122 $305 $306 reversed $77 $-1 #
coedge $-1 $122 $194 $301 $307 reversed $77 $-1 #
coedge $-1 $303 $308 $122 $197 forward $309 $-1 #
edge $-1 $310 24.073690433473281 $311 32.766932495773048 $196 $312 forward 7 unknown #
loop $-1 $-1 $203 $123 #
plane-surface $-1 -15.881808244192314 -29.874130264974127 6.6463063974537135 0 -0.6560590369687036 0.75470957328743171 1 0 0 forward_v I I I I #
loop $-1 $-1 $313 $79 #
coedge $-1 $201 $201 $202 $314 reversed $124 $-1 #
coedge $-1 $202 $202 $201 $314 forward $126 $-1 #
coedge $-1 $203 $203 $127 $204 forward $198 $-1 #
edge $-1 $315 3.5047710980055092e-016 $315 6.2831853071796004 $203 $316 forward 7 unknown #
face $-1 $317 $318 $42 $-1 $319 reversed single #
loop $-1 $-1 $320 $128 #
plane-surface $-1 21.235726929395554 -107.8956413968948 96.399785971002231 1 0 0 0 0.6560590369687036 -0.75470957328743171 forward_v I I I I #
coedge $-1 $321 $322 $323 $324 reversed $129 $-1 #
coedge $-1 $210 $131 $325 $326 reversed $83 $-1 #
coedge $-1 $131 $209 $321 $327 reversed $83 $-1 #
coedge $-1 $323 $328 $131 $212 forward $329 $-1 #
edge $-1 $330 24.073690433473281 $331 32.766932495773048 $211 $332 forward 7 unknown #
loop $-1 $-1 $218 $132 #
plane-surface $-1 30.125045139865833 -29.874130264974127 6.6463063974537135 0 -0.6560590369687036 0.75470957328743171 1 0 0 forward_v I I I I #
loop $-1 $-1 $333 $85 #
coedge $-1 $216 $216 $217 $334 reversed $133 $-1 #
coedge $-1 $217 $217 $216 $334 forward $135 $-1 #
coedge $-1 $218 $218 $136 $219 forward $213 $-1 #
edge $-1 $335 3.5047710980055092e-016 $335 6.2831853071796004 $218 $336 forward 7 unknown #
face $-1 $337 $338 $33 $-1 $339 reversed single #
loop $-1 $-1 $340 $137 #
plane-surface $-1 -59.462263863032931 0 0 1 0 0 0 0 -1 forward_v I I I I #
coedge $-1 $341 $231 $342 $343 forward $138 $-1 #
coedge $-1 $344 $140 $341 $345 forward $89 $-1 #
coedge $-1 $140 $344 $346 $347 forward $89 $-1 #
coedge $-1 $234 $233 $140 $227 reversed $235 $-1 #
edge $-1 $348 -29.87413026497412 $349 29.87413026497412 $226 $350 forward 7 unknown #
coedge $-1 $142 $141 $351 $352 forward $56 $-1 #
coedge $-1 $353 $354 $141 $230 reversed $338 $-1 #
edge $-1 $237 -59.462263863032931 $355 59.462263863032931 $229 $356 forward 7 unknown #
coedge $-1 $223 $357 $142 $232 reversed $138 $-1 #
edge $-1 $358 -59.462263863032931 $236 59.462263863032931 $231 $359 forward 7 unknown #
coedge $-1 $226 $143 $357 $360 forward $235 $-1 #
coedge $-1 $143 $226 $353 $361 reversed $235 $-1 #
loop $-1 $-1 $233 $337 #
vertex $-1 $144 $362 #
vertex $-1 $144 $363 #
straight-curve $-1 59.462263863032931 0 14.203226592178893 0 1 0 I I #
face $-1 $364 $365 $34 $-1 $366 forward single #
loop $-1 $-1 $367 $145 #
plane-surface $-1 -72.917674342007714 0 11.428250661502602 1 0 0 0 0 -1 forward_v I I I I #
coedge $-1 $368 $148 $249 $369 reversed $93 $-1 #
coedge $-1 $148 $368 $370 $371 reversed $93 $-1 #
edge $-1 $372 -14.203226592178893 $251 -8.6532747308263112 $148 $373 forward 7 unknown #
coedge $-1 $150 $149 $374 $375 reversed $59 $-1 #
coedge $-1 $376 $377 $150 $247 forward $378 $-1 #
edge $-1 $250 8.6532747308263112 $379 14.203226592178893 $246 $380 forward 7 unknown #
coedge $-1 $381 $151 $377 $382 forward $146 $-1 #
coedge $-1 $151 $381 $242 $369 forward $146 $-1 #
vertex $-1 $247 $383 #
vertex $-1 $244 $384 #
straight-curve $-1 -59.462263863032931 0 8.6532747308263112 0 1 0 I I #
face $-1 $385 $386 $35 $-1 $387 reversed single #
loop $-1 $-1 $388 $153 #
plane-surface $-1 66.189969102520323 0 8.6532747308263112 0 0 1 1 0 0 forward_v I I I I #
coedge $-1 $389 $390 $157 $261 forward $154 $-1 #
coedge $-1 $391 $156 $390 $392 forward $97 $-1 #
coedge $-1 $156 $391 $393 $394 forward $97 $-1 #
coedge $-1 $158 $157 $156 $260 reversed $62 $-1 #
edge $-1 $395 -29.87413026497412 $396 29.87413026497412 $156 $397 forward 7 unknown #
edge $-1 $396 -14.203226592178893 $267 -8.6532747308263112 $256 $398 forward 7 unknown #
coedge $-1 $393 $399 $158 $263 forward $400 $-1 #
edge $-1 $266 8.6532747308263112 $395 14.203226592178893 $262 $401 forward 7 unknown #
coedge $-1 $388 $159 $399 $402 forward $254 $-1 #
coedge $-1 $159 $388 $389 $403 forward $254 $-1 #
vertex $-1 $263 $404 #
vertex $-1 $261 $405 #
straight-curve $-1 59.462263863032931 0 8.6532747308263112 0 -1 0 I I #
face $-1 $-1 $281 $36 $-1 $406 forward single #
loop $-1 $-1 $407 $161 #
plane-surface $-1 0 29.87413026497412 0 0 -1 0 0 0 -1 forward_v I I I I #
coedge $-1 $408 $409 $410 $411 reversed $162 $-1 #
coedge $-1 $412 $164 $166 $279 forward $101 $-1 #
coedge $-1 $164 $412 $408 $413 forward $101 $-1 #
coedge $-1 $410 $167 $164 $276 forward $281 $-1 #
edge $-1 $283 3.9331633144708036 $414 14.850857657674609 $275 $415 forward 7 unknown #
coedge $-1 $416 $417 $165 $278 forward $270 $-1 #
edge $-1 $418 -60.107231854157405 $282 -54.641407391045263 $277 $419 forward 7 unknown #
edge $-1 $283 51.416960821972623 $418 59.748260529948254 $166 $420 forward 7 unknown #
coedge $-1 $167 $410 $416 $421 forward $281 $-1 #
loop $-1 $-1 $410 $269 #
vertex $-1 $278 $422 #
vertex $-1 $168 $423 #
straight-curve $-1 13.32517380054351 31.401528593835618 14.203226592178893 0 -1 0 I I #
coedge $-1 $285 $285 $-1 $424 reversed $171 $-1 #
edge $-1 $425 0 $425 6.2831853071796004 $172 $426 forward 7 unknown #
vertex $-1 $175 $427 #
ellipse-curve $-1 15.508712669184277 26.730274441206131 11.470314360622812 0 0.6560590369687036 0.75470957328743171 0.5 0 0 1 I I #
coedge $-1 $289 $289 $-1 $428 reversed $178 $-1 #
edge $-1 $429 0 $429 6.2831853071796004 $179 $430 forward 7 unknown #
vertex $-1 $182 $431 #
ellipse-curve $-1 18.784020972145427 26.730274441206131 11.470314360622812 0 0.6560590369687036 0.75470957328743171 0.5 0 0 1 I I #
coedge $-1 $293 $293 $-1 $432 reversed $185 $-1 #
edge $-1 $433 0 $433 6.2831853071796004 $186 $434 forward 7 unknown #
vertex $-1 $189 $435 #
ellipse-curve $-1 22.059329275106577 26.730274441206131 11.470314360622812 0 0.6560590369687036 0.75470957328743171 0.5 0 0 1 I I #
face $-1 $-1 $309 $40 $-1 $436 forward single #
loop $-1 $-1 $437 $190 #
plane-surface $-1 0 -29.87413026497412 0 0 1 0 0 0 1 forward_v I I I I #
coedge $-1 $438 $439 $440 $441 reversed $191 $-1 #
coedge $-1 $442 $193 $195 $307 forward $120 $-1 #
coedge $-1 $193 $442 $438 $443 forward $120 $-1 #
coedge $-1 $440 $196 $193 $304 forward $309 $-1 #
edge $-1 $311 -0.94841408837412189 $444 16.830222332566436 $303 $445 forward 7 unknown #
coedge $-1 $446 $447 $194 $306 forward $298 $-1 #
edge $-1 $448 -41.553586588047395 $310 -33.996666393322222 $305 $449 forward 7 unknown #
edge $-1 $311 -11.518658792723365 $448 -9.44141639987384e-015 $195 $450 forward 7 unknown #
coedge $-1 $196 $440 $446 $451 forward $309 $-1 #
loop $-1 $-1 $440 $297 #
vertex $-1 $306 $452 #
vertex $-1 $197 $453 #
straight-curve $-1 -6.992490033722035 -53.947820698447401 14.203226592178893 0 1 0 I I #
coedge $-1 $313 $313 $-1 $454 reversed $200 $-1 #
edge $-1 $455 0 $455 6.2831853071796004 $201 $456 forward 7 unknown #
vertex $-1 $204 $457 #
ellipse-curve $-1 -15.881808244192314 -25.52750923382424 10.424766494816307 0 -0.6560590369687036 0.75470957328743171 2 0 0 1 I I #
face $-1 $-1 $329 $42 $-1 $458 forward single #
loop $-1 $-1 $459 $205 #
plane-surface $-1 0 -29.87413026497412 0 0 1 0 0 0 1 forward_v I I I I #
coedge $-1 $460 $461 $462 $463 reversed $206 $-1 #
coedge $-1 $464 $208 $210 $327 forward $129 $-1 #
coedge $-1 $208 $464 $460 $465 forward $129 $-1 #
coedge $-1 $462 $211 $208 $324 forward $329 $-1 #
edge $-1 $331 -23.951840780403195 $466 -6.1732043594626376 $323 $467 forward 7 unknown #
coedge $-1 $468 $469 $209 $326 forward $318 $-1 #
edge $-1 $470 -41.553586588047395 $330 -33.996666393322222 $325 $471 forward 7 unknown #
edge $-1 $331 -11.518658792723365 $470 -9.44141639987384e-015 $210 $472 forward 7 unknown #
coedge $-1 $211 $462 $468 $473 forward $329 $-1 #
loop $-1 $-1 $462 $317 #
vertex $-1 $326 $474 #
vertex $-1 $212 $475 #
straight-curve $-1 39.014363350336112 -53.947820698447401 14.203226592178893 0 1 0 I I #
coedge $-1 $333 $333 $-1 $476 reversed $215 $-1 #
edge $-1 $477 0 $477 6.2831853071796004 $216 $478 forward 7 unknown #
vertex $-1 $219 $479 #
ellipse-curve $-1 30.125045139865833 -25.52750923382424 10.424766494816307 0 -0.6560590369687036 0.75470957328743171 2 0 0 1 I I #
face $-1 $-1 $235 $33 $-1 $480 reversed single #
loop $-1 $-1 $353 $220 #
plane-surface $-1 0 29.87413026497412 0 0 -1 0 0 0 -1 forward_v I I I I #
coedge $-1 $481 $351 $354 $482 forward $221 $-1 #
coedge $-1 $357 $223 $224 $345 reversed $138 $-1 #
coedge $-1 $351 $481 $223 $343 reversed $221 $-1 #
edge $-1 $358 -14.203226592178893 $483 14.203226592178893 $342 $484 forward 7 unknown #
coedge $-1 $225 $224 $481 $485 forward $89 $-1 #
edge $-1 $349 -59.462263863032931 $483 59.462263863032931 $341 $486 forward 7 unknown #
coedge $-1 $354 $353 $225 $347 reversed $338 $-1 #
edge $-1 $487 -59.462263863032931 $348 59.462263863032931 $346 $488 forward 7 unknown #
vertex $-1 $227 $489 #
vertex $-1 $360 $490 #
straight-curve $-1 59.462263863032931 0 -14.203226592178893 0 -1 0 I I #
coedge $-1 $340 $342 $228 $352 reversed $221 $-1 #
edge $-1 $355 -29.87413026497412 $358 29.87413026497412 $351 $491 forward 7 unknown #
coedge $-1 $346 $229 $234 $361 forward $338 $-1 #
coedge $-1 $229 $346 $340 $482 reversed $338 $-1 #
vertex $-1 $230 $492 #
straight-curve $-1 0 29.87413026497412 14.203226592178893 -1 0 0 I I #
coedge $-1 $231 $341 $233 $360 reversed $138 $-1 #
vertex $-1 $352 $493 #
straight-curve $-1 0 -29.87413026497412 14.203226592178893 1 0 0 I I #
edge $-1 $236 -14.203226592178893 $349 14.203226592178893 $233 $494 forward 7 unknown #
edge $-1 $237 -14.203226592178893 $348 14.203226592178893 $234 $495 forward 7 unknown #
point $-1 59.462263863032931 -29.87413026497412 14.203226592178893 #
point $-1 59.462263863032931 29.87413026497412 14.203226592178893 #
face $-1 $-1 $378 $34 $-1 $496 reversed single #
loop $-1 $-1 $374 $239 #
plane-surface $-1 0 0 14.203226592178893 0 0 1 1 0 0 forward_v I I I I #
coedge $-1 $497 $498 $368 $499 forward $240 $-1 #
coedge $-1 $243 $242 $367 $499 reversed $93 $-1 #
edge $-1 $500 -6.727705239487392 $251 6.727705239487392 $242 $501 forward 7 unknown #
coedge $-1 $502 $374 $243 $371 forward $365 $-1 #
edge $-1 $372 59.462263863032931 $503 72.917674342007714 $243 $504 forward 7 unknown #
vertex $-1 $371 $505 #
straight-curve $-1 -59.462263863032931 29.87413026497412 0 0 0 -1 I I #
coedge $-1 $370 $506 $245 $375 forward $365 $-1 #
edge $-1 $379 -29.87413026497412 $372 29.87413026497412 $374 $507 forward 7 unknown #
coedge $-1 $508 $246 $506 $509 reversed $378 $-1 #
coedge $-1 $246 $508 $248 $382 reversed $378 $-1 #
loop $-1 $-1 $246 $364 #
vertex $-1 $247 $510 #
straight-curve $-1 -59.462263863032931 -29.87413026497412 0 0 0 1 I I #
coedge $-1 $249 $248 $497 $511 forward $146 $-1 #
edge $-1 $250 -6.727705239487392 $512 6.727705239487392 $377 $513 forward 7 unknown #
point $-1 -59.462263863032931 -29.87413026497412 8.6532747308263112 #
point $-1 -59.462263863032931 29.87413026497412 8.6532747308263112 #
face $-1 $-1 $400 $35 $-1 $514 reversed single #
loop $-1 $-1 $515 $253 #
plane-surface $-1 72.917674342007714 0 11.428250661502602 -1 0 0 0 0 1 forward_v I I I I #
coedge $-1 $265 $264 $516 $517 forward $254 $-1 #
coedge $-1 $518 $256 $265 $403 reversed $154 $-1 #
coedge $-1 $256 $518 $257 $392 reversed $154 $-1 #
coedge $-1 $258 $257 $519 $520 forward $97 $-1 #
edge $-1 $396 -6.727705239487392 $521 6.727705239487392 $390 $522 forward 7 unknown #
coedge $-1 $523 $262 $258 $394 reversed $400 $-1 #
edge $-1 $524 -72.917674342007714 $395 -59.462263863032931 $393 $525 forward 7 unknown #
vertex $-1 $263 $526 #
vertex $-1 $392 $527 #
straight-curve $-1 59.462263863032931 0 14.203226592178893 0 -1 0 I I #
straight-curve $-1 59.462263863032931 -29.87413026497412 0 0 0 -1 I I #
coedge $-1 $262 $523 $264 $402 reversed $400 $-1 #
loop $-1 $-1 $262 $385 #
straight-curve $-1 59.462263863032931 29.87413026497412 0 0 0 1 I I #
edge $-1 $266 -6.727705239487392 $528 6.727705239487392 $399 $529 forward 7 unknown #
edge $-1 $530 -6.727705239487392 $267 6.727705239487392 $389 $531 forward 7 unknown #
point $-1 59.462263863032931 29.87413026497412 8.6532747308263112 #
point $-1 59.462263863032931 -29.87413026497412 8.6532747308263112 #
plane-surface $-1 0 0 14.203226592178893 0 0 1 1 0 0 forward_v I I I I #
coedge $-1 $417 $416 $409 $532 forward $270 $-1 #
coedge $-1 $409 $272 $274 $413 reversed $162 $-1 #
coedge $-1 $272 $408 $407 $532 reversed $162 $-1 #
coedge $-1 $280 $275 $272 $411 forward $281 $-1 #
edge $-1 $414 -7.8151099763974976 $533 -1.5273983288614978 $410 $534 forward 7 unknown #
coedge $-1 $274 $273 $417 $535 reversed $101 $-1 #
edge $-1 $536 -59.748260529948254 $414 -51.416960821972623 $408 $537 forward 7 unknown #
vertex $-1 $276 $538 #
straight-curve $-1 9.3920104860727065 23.58641861743811 14.203226592178897 1 0 0 I I #
coedge $-1 $407 $277 $280 $421 reversed $270 $-1 #
coedge $-1 $277 $407 $412 $535 forward $270 $-1 #
vertex $-1 $278 $539 #
straight-curve $-1 13.32517380054351 29.87413026497412 68.844633983224156 0 0 1 I I #
straight-curve $-1 13.32517380054351 -15.218453944249426 47.935788392899809 0 0.75470957328743171 -0.6560590369687036 I I #
edge $-1 $533 -24.242868143747316 $282 -13.32517380054351 $416 $540 forward 7 unknown #
point $-1 13.32517380054351 29.87413026497412 14.203226592178893 #
point $-1 13.32517380054351 23.58641861743812 14.203226592178893 #
edge $-1 $541 1 $541 0 $285 $-1 forward 7 unknown #
vertex $-1 $286 $542 #
ellipse-curve $-1 15.508712669184277 26.013138464259018 10.645343806674575 0 0.6560590369687036 0.75470957328743171 0.5 0 0 1 I I #
point $-1 16.008712669184277 26.730274441206149 11.470314360622837 #
edge $-1 $543 1 $543 0 $289 $-1 forward 7 unknown #
vertex $-1 $290 $544 #
ellipse-curve $-1 18.784020972145427 26.013138464259018 10.645343806674575 0 0.6560590369687036 0.75470957328743171 0.5 0 0 1 I I #
point $-1 19.284020972145427 26.730274441206149 11.470314360622837 #
edge $-1 $545 1 $545 0 $293 $-1 forward 7 unknown #
vertex $-1 $294 $546 #
ellipse-curve $-1 22.059329275106577 26.013138464259018 10.645343806674575 0 0.6560590369687036 0.75470957328743171 0.5 0 0 1 I I #
point $-1 22.559329275106577 26.730274441206149 11.470314360622837 #
plane-surface $-1 0 0 14.203226592178893 0 0 1 1 0 0 forward_v I I I I #
coedge $-1 $447 $446 $439 $547 forward $298 $-1 #
coedge $-1 $439 $300 $302 $443 reversed $191 $-1 #
coedge $-1 $300 $438 $437 $547 reversed $191 $-1 #
coedge $-1 $308 $303 $300 $441 forward $309 $-1 #
edge $-1 $444 -32.766932495773048 $548 -24.073690433473281 $440 $549 forward 7 unknown #
coedge $-1 $302 $301 $447 $550 reversed $120 $-1 #
edge $-1 $551 9.44141639987384e-015 $444 11.518658792723365 $438 $552 forward 7 unknown #
vertex $-1 $304 $553 #
straight-curve $-1 -7.9409041220961569 -21.180888202674353 14.203226592178893 -1 0 0 I I #
coedge $-1 $437 $305 $308 $451 reversed $298 $-1 #
coedge $-1 $305 $437 $442 $550 forward $298 $-1 #
vertex $-1 $306 $554 #
straight-curve $-1 -6.992490033722035 -29.87413026497412 48.199892985501116 0 0 1 I I #
straight-curve $-1 -6.992490033722035 -29.874130264974127 6.6463063974537135 0 -0.75470957328743171 -0.6560590369687036 I I #
edge $-1 $548 -90.961095557182915 $310 -73.182459136242358 $446 $555 forward 7 unknown #
point $-1 -6.992490033722035 -29.87413026497412 14.203226592178893 #
point $-1 -6.992490033722035 -21.180888202674353 14.203226592178893 #
edge $-1 $556 1 $556 0 $313 $-1 forward 7 unknown #
vertex $-1 $314 $557 #
ellipse-curve $-1 -15.881808244192314 -21.995237884539318 6.3613532156217225 0 -0.6560590369687036 0.75470957328743171 2 0 0 1 I I #
point $-1 -13.881808244192314 -25.527509233824233 10.4247664948163 #
plane-surface $-1 0 0 14.203226592178893 0 0 1 1 0 0 forward_v I I I I #
coedge $-1 $469 $468 $461 $558 forward $318 $-1 #
coedge $-1 $461 $320 $322 $465 reversed $206 $-1 #
coedge $-1 $320 $460 $459 $558 reversed $206 $-1 #
coedge $-1 $328 $323 $320 $463 forward $329 $-1 #
edge $-1 $466 -32.766932495773048 $559 -24.073690433473281 $462 $560 forward 7 unknown #
coedge $-1 $322 $321 $469 $561 reversed $129 $-1 #
edge $-1 $562 9.44141639987384e-015 $466 11.518658792723365 $460 $563 forward 7 unknown #
vertex $-1 $324 $564 #
straight-curve $-1 15.062522569932916 -21.180888202674353 14.203226592178893 -1 0 0 I I #
coedge $-1 $459 $325 $328 $473 reversed $318 $-1 #
coedge $-1 $325 $459 $464 $561 forward $318 $-1 #
vertex $-1 $326 $565 #
straight-curve $-1 39.014363350336112 -29.87413026497412 48.199892985501116 0 0 1 I I #
straight-curve $-1 39.014363350336112 -29.874130264974127 6.6463063974537135 0 -0.75470957328743171 -0.6560590369687036 I I #
edge $-1 $559 -44.954242173124769 $330 -27.175605752184211 $468 $566 forward 7 unknown #
point $-1 39.014363350336112 -29.87413026497412 14.203226592178893 #
point $-1 39.014363350336112 -21.180888202674353 14.203226592178893 #
edge $-1 $567 1 $567 0 $333 $-1 forward 7 unknown #
vertex $-1 $334 $568 #
ellipse-curve $-1 30.125045139865833 -21.995237884539318 6.3613532156217225 0 -0.6560590369687036 0.75470957328743171 2 0 0 1 I I #
point $-1 32.125045139865833 -25.527509233824233 10.4247664948163 #
plane-surface $-1 59.462263863032931 0 0 -1 0 0 0 0 1 forward_v I I I I #
coedge $-1 $342 $340 $344 $485 reversed $221 $-1 #
edge $-1 $355 -14.203226592178893 $487 14.203226592178893 $354 $569 forward 7 unknown #
vertex $-1 $485 $570 #
straight-curve $-1 -59.462263863032931 -29.87413026497412 0 0 0 -1 I I #
edge $-1 $483 -29.87413026497412 $487 29.87413026497412 $481 $571 forward 7 unknown #
straight-curve $-1 0 -29.87413026497412 -14.203226592178893 -1 0 0 I I #
vertex $-1 $347 $572 #
straight-curve $-1 0 29.87413026497412 -14.203226592178893 1 0 0 I I #
point $-1 59.462263863032931 29.87413026497412 -14.203226592178893 #
point $-1 59.462263863032931 -29.87413026497412 -14.203226592178893 #
straight-curve $-1 -59.462263863032931 0 14.203226592178893 0 -1 0 I I #
point $-1 -59.462263863032931 29.87413026497412 14.203226592178893 #
point $-1 -59.462263863032931 -29.87413026497412 14.203226592178893 #
straight-curve $-1 59.462263863032931 -29.87413026497412 0 0 0 -1 I I #
straight-curve $-1 59.462263863032931 29.87413026497412 0 0 0 -1 I I #
plane-surface $-1 0 -29.87413026497412 0 0 1 0 0 0 1 forward_v I I I I #
coedge $-1 $573 $367 $381 $511 reversed $240 $-1 #
coedge $-1 $367 $573 $502 $574 reversed $240 $-1 #
edge $-1 $503 -2.7749759306762911 $500 2.7749759306762911 $368 $575 forward 7 unknown #
vertex $-1 $369 $576 #
straight-curve $-1 -66.189969102520323 29.87413026497412 8.6532747308263112 1 0 0 I I #
coedge $-1 $506 $370 $498 $574 forward $365 $-1 #
vertex $-1 $371 $577 #
straight-curve $-1 0 29.87413026497412 14.203226592178893 -1 0 0 I I #
point $-1 -59.462263863032931 29.87413026497412 14.203226592178893 #
coedge $-1 $374 $502 $376 $509 forward $365 $-1 #
straight-curve $-1 -59.462263863032931 0 14.203226592178893 0 1 0 I I #
coedge $-1 $377 $376 $573 $578 forward $378 $-1 #
edge $-1 $579 -72.917674342007714 $379 -59.462263863032931 $376 $580 forward 7 unknown #
point $-1 -59.462263863032931 -29.87413026497412 14.203226592178893 #
edge $-1 $512 -29.87413026497412 $500 29.87413026497412 $497 $581 forward 7 unknown #
vertex $-1 $511 $582 #
straight-curve $-1 -66.189969102520323 -29.87413026497412 8.6532747308263112 -1 0 0 I I #
plane-surface $-1 0 29.87413026497412 0 0 -1 0 0 0 -1 forward_v I I I I #
coedge $-1 $516 $519 $518 $583 forward $386 $-1 #
coedge $-1 $584 $515 $388 $517 reversed $386 $-1 #
edge $-1 $528 -29.87413026497412 $530 29.87413026497412 $516 $585 forward 7 unknown #
coedge $-1 $390 $389 $515 $583 reversed $154 $-1 #
coedge $-1 $515 $584 $391 $520 reversed $386 $-1 #
edge $-1 $521 -29.87413026497412 $524 29.87413026497412 $519 $586 forward 7 unknown #
vertex $-1 $520 $587 #
straight-curve $-1 66.189969102520323 -29.87413026497412 14.203226592178893 1 0 0 I I #
coedge $-1 $399 $393 $584 $588 forward $400 $-1 #
vertex $-1 $520 $589 #
straight-curve $-1 0 29.87413026497412 14.203226592178893 -1 0 0 I I #
point $-1 59.462263863032931 29.87413026497412 14.203226592178893 #
point $-1 59.462263863032931 -29.87413026497412 14.203226592178893 #
vertex $-1 $517 $590 #
straight-curve $-1 66.189969102520323 29.87413026497412 8.6532747308263112 1 0 0 I I #
vertex $-1 $583 $591 #
straight-curve $-1 66.189969102520323 -29.87413026497412 8.6532747308263112 -1 0 0 I I #
edge $-1 $533 54.641407391045263 $536 60.107231854157405 $407 $592 forward 7 unknown #
vertex $-1 $421 $593 #
straight-curve $-1 24.242868143747316 31.401528593835618 14.203226592178893 0 1 0 I I #
edge $-1 $536 -14.850857657674609 $418 -3.9331633144708036 $417 $594 forward 7 unknown #
vertex $-1 $535 $595 #
straight-curve $-1 24.242868143747316 -15.218453944249426 47.935788392899809 0 -0.75470957328743171 0.6560590369687036 I I #
point $-1 24.242868143747316 23.58641861743812 14.203226592178893 #
point $-1 13.32517380054351 29.87413026497412 8.7374021290667514 #
straight-curve $-1 0 29.87413026497412 14.203226592178893 -1 0 0 I I #
vertex $-1 $424 $596 #
point $-1 16.008712669184277 26.013138464259018 10.645343806674575 #
vertex $-1 $428 $597 #
point $-1 19.284020972145427 26.013138464259018 10.645343806674575 #
vertex $-1 $432 $598 #
point $-1 22.559329275106577 26.013138464259018 10.645343806674575 #
edge $-1 $548 33.996666393322222 $551 41.553586588047395 $437 $599 forward 7 unknown #
vertex $-1 $451 $600 #
straight-curve $-1 -24.771126454662593 -53.947820698447401 14.203226592178893 0 -1 0 I I #
edge $-1 $551 -16.830222332566436 $448 0.94841408837412189 $447 $601 forward 7 unknown #
vertex $-1 $550 $602 #
straight-curve $-1 -24.771126454662593 -29.874130264974127 6.6463063974537135 0 0.75470957328743171 0.6560590369687036 I I #
point $-1 -24.771126454662593 -21.180888202674353 14.203226592178893 #
point $-1 -6.992490033722035 -29.87413026497412 6.6463063974537198 #
straight-curve $-1 66.189969102520323 -29.87413026497412 14.203226592178893 1 0 0 I I #
vertex $-1 $454 $603 #
point $-1 -13.881808244192314 -21.995237884539318 6.3613532156217225 #
edge $-1 $559 33.996666393322222 $562 41.553586588047395 $459 $604 forward 7 unknown #
vertex $-1 $473 $605 #
straight-curve $-1 21.235726929395554 -53.947820698447401 14.203226592178893 0 -1 0 I I #
edge $-1 $562 6.1732043594626376 $470 23.951840780403195 $469 $606 forward 7 unknown #
vertex $-1 $561 $607 #
straight-curve $-1 21.235726929395554 -29.874130264974127 6.6463063974537135 0 0.75470957328743171 0.6560590369687036 I I #
point $-1 21.235726929395554 -21.180888202674353 14.203226592178893 #
point $-1 39.014363350336112 -29.87413026497412 6.6463063974537198 #
straight-curve $-1 66.189969102520323 -29.87413026497412 14.203226592178893 1 0 0 I I #
vertex $-1 $476 $608 #
point $-1 32.125045139865833 -21.995237884539318 6.3613532156217225 #
straight-curve $-1 -59.462263863032931 29.87413026497412 0 0 0 -1 I I #
point $-1 -59.462263863032931 -29.87413026497412 -14.203226592178893 #
straight-curve $-1 -59.462263863032931 0 -14.203226592178893 0 1 0 I I #
point $-1 -59.462263863032931 29.87413026497412 -14.203226592178893 #
coedge $-1 $498 $497 $508 $578 reversed $240 $-1 #
edge $-1 $503 -29.87413026497412 $579 29.87413026497412 $498 $609 forward 7 unknown #
straight-curve $-1 -72.917674342007714 29.87413026497412 11.428250661502602 0 0 -1 I I #
point $-1 -72.917674342007714 29.87413026497412 8.6532747308263112 #
point $-1 -72.917674342007714 29.87413026497412 14.203226592178893 #
edge $-1 $579 -2.7749759306762911 $512 2.7749759306762911 $573 $610 forward 7 unknown #
vertex $-1 $574 $611 #
straight-curve $-1 0 -29.87413026497412 14.203226592178893 1 0 0 I I #
straight-curve $-1 -72.917674342007714 0 8.6532747308263112 0 1 0 I I #
point $-1 -72.917674342007714 -29.87413026497412 8.6532747308263112 #
edge $-1 $521 -2.7749759306762911 $530 2.7749759306762911 $515 $612 forward 7 unknown #
coedge $-1 $519 $516 $523 $588 reversed $386 $-1 #
straight-curve $-1 72.917674342007714 0 8.6532747308263112 0 -1 0 I I #
straight-curve $-1 72.917674342007714 0 14.203226592178893 0 1 0 I I #
point $-1 72.917674342007714 -29.87413026497412 14.203226592178893 #
edge $-1 $524 -2.7749759306762911 $528 2.7749759306762911 $584 $613 forward 7 unknown #
point $-1 72.917674342007714 29.87413026497412 14.203226592178893 #
point $-1 72.917674342007714 29.87413026497412 8.6532747308263112 #
point $-1 72.917674342007714 -29.87413026497412 8.6532747308263112 #
straight-curve $-1 24.242868143747316 29.87413026497412 68.844633983224156 0 0 -1 I I #
point $-1 24.242868143747316 29.87413026497412 14.203226592178893 #
straight-curve $-1 9.3920104860727065 29.87413026497412 8.7374021290667585 -1 0 0 I I #
point $-1 24.242868143747316 29.87413026497412 8.7374021290667514 #
point $-1 15.508712669184277 25.685108945774669 10.267989020030861 #
point $-1 18.784020972145427 25.685108945774669 10.267989020030861 #
point $-1 22.059329275106577 25.685108945774669 10.267989020030861 #
straight-curve $-1 -24.771126454662593 -29.87413026497412 48.199892985501116 0 0 -1 I I #
point $-1 -24.771126454662593 -29.87413026497412 14.203226592178893 #
straight-curve $-1 -7.9409041220961569 -29.87413026497412 6.6463063974537206 1 0 0 I I #
point $-1 -24.771126454662593 -29.87413026497412 6.6463063974537198 #
point $-1 -15.881808244192314 -20.683119810601912 4.8519340690468589 #
straight-curve $-1 21.235726929395554 -29.87413026497412 48.199892985501116 0 0 -1 I I #
point $-1 21.235726929395554 -29.87413026497412 14.203226592178893 #
straight-curve $-1 15.062522569932916 -29.87413026497412 6.6463063974537206 1 0 0 I I #
point $-1 21.235726929395554 -29.87413026497412 6.6463063974537198 #
point $-1 30.125045139865833 -20.683119810601912 4.8519340690468589 #
straight-curve $-1 -72.917674342007714 0 14.203226592178893 0 -1 0 I I #
straight-curve $-1 -72.917674342007714 -29.87413026497412 11.428250661502602 0 0 -1 I I #
point $-1 -72.917674342007714 -29.87413026497412 14.203226592178893 #
straight-curve $-1 72.917674342007714 -29.87413026497412 11.428250661502602 0 0 -1 I I #
straight-curve $-1 72.917674342007714 29.87413026497412 11.428250661502602 0 0 -1 I I #
End-of-ACIS-data 