500 0 12 0           
7 Unknown 11 ACIS 5.0 NT 24 Thu Mar 25 22:22:12 1999 
-1 9.9999999999999995e-007 1e-010 
body $-1 $12 $-1 $13 #
body $-1 $14 $-1 $15 #
body $-1 $16 $-1 $17 #
body $-1 $18 $-1 $19 #
body $-1 $20 $-1 $21 #
body $-1 $22 $-1 $23 #
body $-1 $24 $-1 $25 #
body $-1 $26 $-1 $27 #
body $-1 $28 $-1 $29 #
body $-1 $30 $-1 $31 #
body $-1 $32 $-1 $33 #
body $-1 $34 $-1 $35 #
lump $-1 $-1 $36 $0 #
transform $-1 1 0 0 0 1 0 0 0 1 77.796563615833008 36.162925475576003 17.528539807301122 1 rotate no_reflect no_shear #
lump $-1 $-1 $37 $1 #
transform $-1 1 0 0 0 1 0 0 0 1 77.796563615833008 36.162925475576003 17.528539807301122 1 rotate no_reflect no_shear #
lump $-1 $-1 $38 $2 #
transform $-1 1 0 0 0 1 0 0 0 1 77.796563615833008 36.162925475576003 17.528539807301122 1 rotate no_reflect no_shear #
lump $-1 $-1 $39 $3 #
transform $-1 1 0 0 0 1 0 0 0 1 77.796563615833008 36.162925475576003 17.528539807301122 1 rotate no_reflect no_shear #
lump $-1 $-1 $40 $4 #
transform $-1 1 0 0 0 1 0 0 0 1 77.796563615833008 36.162925475576003 17.528539807301122 1 rotate no_reflect no_shear #
lump $-1 $-1 $41 $5 #
transform $-1 1 0 0 0 1 0 0 0 1 77.796563615833008 36.162925475576003 17.528539807301122 1 rotate no_reflect no_shear #
lump $-1 $-1 $42 $6 #
transform $-1 1 0 0 0 1 0 0 0 1 77.796563615833008 36.162925475576003 17.528539807301122 1 rotate no_reflect no_shear #
lump $-1 $-1 $43 $7 #
transform $-1 1 0 0 0 1 0 0 0 1 77.796563615833008 36.162925475576003 17.528539807301122 1 rotate no_reflect no_shear #
lump $-1 $-1 $44 $8 #
transform $-1 1 0 0 0 1 0 0 0 1 77.796563615833008 36.162925475576003 17.528539807301122 1 rotate no_reflect no_shear #
lump $-1 $-1 $45 $9 #
transform $-1 1 0 0 0 1 0 0 0 1 77.796563615833008 36.162925475576003 17.528539807301122 1 rotate no_reflect no_shear #
lump $-1 $-1 $46 $10 #
transform $-1 1 0 0 0 1 0 0 0 1 77.796563615833008 36.162925475576003 17.528539807301122 1 rotate no_reflect no_shear #
lump $-1 $-1 $47 $11 #
transform $-1 1 0 0 0 1 0 0 0 1 77.796563615833008 36.162925475576003 17.528539807301122 1 rotate no_reflect no_shear #
shell $-1 $-1 $-1 $48 $-1 $12 #
shell $-1 $-1 $-1 $49 $-1 $14 #
shell $-1 $-1 $-1 $50 $-1 $16 #
shell $-1 $-1 $-1 $51 $-1 $18 #
shell $-1 $-1 $-1 $52 $-1 $20 #
shell $-1 $-1 $-1 $53 $-1 $22 #
shell $-1 $-1 $-1 $54 $-1 $24 #
shell $-1 $-1 $-1 $55 $-1 $26 #
shell $-1 $-1 $-1 $56 $-1 $28 #
shell $-1 $-1 $-1 $57 $-1 $30 #
shell $-1 $-1 $-1 $58 $-1 $32 #
shell $-1 $-1 $-1 $59 $-1 $34 #
face $-1 $60 $61 $36 $-1 $62 forward single #
face $-1 $63 $64 $37 $-1 $65 forward single #
face $-1 $66 $67 $38 $-1 $68 reversed single #
face $-1 $69 $70 $39 $-1 $71 forward single #
face $-1 $72 $73 $40 $-1 $74 reversed single #
face $-1 $75 $76 $41 $-1 $77 forward single #
face $-1 $78 $79 $42 $-1 $80 reversed single #
face $-1 $81 $82 $43 $-1 $83 forward single #
face $-1 $84 $85 $44 $-1 $86 forward single #
face $-1 $87 $88 $45 $-1 $89 reversed single #
face $-1 $90 $91 $46 $-1 $92 forward single #
face $-1 $93 $94 $47 $-1 $95 forward single #
face $-1 $96 $97 $36 $-1 $98 reversed single #
loop $-1 $-1 $99 $48 #
plane-surface $-1 0 0 17.528539807301122 0 0 1 1 0 0 forward_v I I I I #
face $-1 $100 $101 $37 $-1 $102 reversed single #
loop $-1 $-1 $103 $49 #
plane-surface $-1 -67.209773856056216 0 -0.32263936487116851 0 0 1 1 0 0 forward_v I I I I #
face $-1 $104 $105 $38 $-1 $106 reversed single #
loop $-1 $-1 $107 $50 #
plane-surface $-1 -25.328062440047233 -153.59055050378072 106.36851012440164 1 0 0 0 0.75470958851134928 -0.65605901945558964 forward_v I I I I #
face $-1 $108 $109 $39 $-1 $110 forward single #
loop $-1 $111 $112 $51 #
cone-surface $-1 -11.086367356128804 -29.328438311468659 9.9700832757547566 0 0.75470958851134928 -0.65605901945558964 2.5 0 0 1 I I 0 1 2.5 forward I I I I #
face $-1 $113 $114 $40 $-1 $115 reversed single #
loop $-1 $-1 $116 $52 #
plane-surface $-1 18.018251791763987 -153.59055050378072 106.36851012440164 1 0 0 0 0.75470958851134928 -0.65605901945558964 forward_v I I I I #
face $-1 $117 $118 $41 $-1 $119 forward single #
loop $-1 $120 $121 $53 #
cone-surface $-1 32.259946875682417 -29.328438311468659 9.9700832757547566 0 0.75470958851134928 -0.65605901945558964 2.5 0 0 1 I I 0 1 2.5 forward I I I I #
face $-1 $122 $123 $42 $-1 $124 reversed single #
loop $-1 $-1 $125 $54 #
plane-surface $-1 -41.712990213772301 74.962073061854412 181.10317585083718 1 0 0 0 -0.61566148304635926 -0.78801074757464917 forward_v I I I I #
face $-1 $126 $127 $43 $-1 $128 forward single #
loop $-1 $129 $130 $55 #
cone-surface $-1 -33.263691175566819 33.325614351632787 15.033882399027004 0 -0.61566148304635926 -0.78801074757464917 1 0 0 1 I I 0 1 1 forward I I I I #
face $-1 $131 $132 $44 $-1 $133 forward single #
loop $-1 $134 $135 $56 #
cone-surface $-1 -20.589742618258605 33.325614351632787 15.033882399027004 0 -0.61566148304635926 -0.78801074757464917 1 0 0 1 I I 0 1 1 forward I I I I #
face $-1 $136 $137 $45 $-1 $138 reversed single #
loop $-1 $-1 $139 $57 #
plane-surface $-1 33.314023099606729 74.962073061854412 181.10317585083718 1 0 0 0 -0.61566148304635926 -0.78801074757464917 forward_v I I I I #
face $-1 $140 $141 $46 $-1 $142 forward single #
loop $-1 $143 $144 $58 #
cone-surface $-1 41.76332213781221 33.325614351632787 15.033882399027004 0 -0.61566148304635926 -0.78801074757464917 1 0 0 1 I I 0 1 1 forward I I I I #
face $-1 $145 $146 $47 $-1 $147 forward single #
loop $-1 $148 $149 $59 #
cone-surface $-1 54.437270695120418 33.325614351632787 15.033882399027004 0 -0.61566148304635926 -0.78801074757464917 1 0 0 1 I I 0 1 1 forward I I I I #
face $-1 $150 $151 $36 $-1 $152 reversed single #
loop $-1 $-1 $153 $60 #
plane-surface $-1 0 0 -17.528539807301122 0 0 1 1 0 0 forward_v I I I I #
coedge $-1 $154 $155 $156 $157 forward $61 $-1 #
face $-1 $158 $159 $37 $-1 $160 reversed single #
loop $-1 $-1 $161 $63 #
plane-surface $-1 -67.209773856056216 0 -3.9302008368544854 0 0 1 1 0 0 forward_v I I I I #
coedge $-1 $162 $163 $164 $165 forward $64 $-1 #
face $-1 $166 $167 $38 $-1 $168 reversed single #
loop $-1 $-1 $169 $66 #
plane-surface $-1 -11.086367356128804 -36.162925475576046 4.2902356387660348 0 -0.75470958851134928 0.65605901945558964 1 0 0 forward_v I I I I #
coedge $-1 $170 $171 $172 $173 reversed $67 $-1 #
face $-1 $-1 $174 $39 $-1 $175 forward single #
loop $-1 $176 $177 $69 #
cone-surface $-1 -11.086367356128804 -27.304505137346418 8.2107050541564632 0 0.75470958851134928 -0.65605901945558964 1.25 0 0 1 I I -0.70710678118654746 0.70710678118654746 1.25 forward I I I I #
loop $-1 $-1 $178 $51 #
coedge $-1 $112 $112 $179 $180 reversed $70 $-1 #
face $-1 $181 $182 $40 $-1 $183 reversed single #
loop $-1 $-1 $184 $72 #
plane-surface $-1 32.259946875682417 -36.162925475576046 4.2902356387660348 0 -0.75470958851134928 0.65605901945558964 1 0 0 forward_v I I I I #
coedge $-1 $185 $186 $187 $188 reversed $73 $-1 #
face $-1 $-1 $189 $41 $-1 $190 forward single #
loop $-1 $191 $192 $75 #
cone-surface $-1 32.259946875682417 -27.304505137346418 8.2107050541564632 0 0.75470958851134928 -0.65605901945558964 1.25 0 0 1 I I -0.70710678118654746 0.70710678118654746 1.25 forward I I I I #
loop $-1 $-1 $193 $53 #
coedge $-1 $121 $121 $194 $195 reversed $76 $-1 #
face $-1 $196 $197 $42 $-1 $198 reversed single #
loop $-1 $-1 $199 $78 #
plane-surface $-1 -26.926716896912708 -20.830622401413962 58.494119343534535 0 0.61566148304635926 0.78801074757464917 1 0 0 forward_v I I I I #
coedge $-1 $200 $201 $202 $203 reversed $79 $-1 #
face $-1 $-1 $204 $43 $-1 $205 forward single #
loop $-1 $206 $207 $81 #
cone-surface $-1 -33.263691175566819 32.460471586446175 13.926550178436937 0 -0.61566148304635926 -0.78801074757464917 0.5 0 0 1 I I -0.70710678118654746 0.70710678118654746 0.5 forward I I I I #
loop $-1 $-1 $208 $55 #
coedge $-1 $130 $130 $209 $210 reversed $82 $-1 #
face $-1 $-1 $211 $44 $-1 $212 forward single #
loop $-1 $213 $214 $84 #
cone-surface $-1 -20.589742618258605 32.460471586446175 13.926550178436937 0 -0.61566148304635926 -0.78801074757464917 0.5 0 0 1 I I -0.70710678118654746 0.70710678118654746 0.5 forward I I I I #
loop $-1 $-1 $215 $56 #
coedge $-1 $135 $135 $216 $217 reversed $85 $-1 #
face $-1 $218 $219 $45 $-1 $220 reversed single #
loop $-1 $-1 $221 $87 #
plane-surface $-1 48.100296416466321 -20.830622401413962 58.494119343534535 0 0.61566148304635926 0.78801074757464917 1 0 0 forward_v I I I I #
coedge $-1 $222 $223 $224 $225 reversed $88 $-1 #
face $-1 $-1 $226 $46 $-1 $227 forward single #
loop $-1 $228 $229 $90 #
cone-surface $-1 41.76332213781221 32.460471586446175 13.926550178436937 0 -0.61566148304635926 -0.78801074757464917 0.5 0 0 1 I I -0.70710678118654746 0.70710678118654746 0.5 forward I I I I #
loop $-1 $-1 $230 $58 #
coedge $-1 $144 $144 $231 $232 reversed $91 $-1 #
face $-1 $-1 $233 $47 $-1 $234 forward single #
loop $-1 $235 $236 $93 #
cone-surface $-1 54.437270695120418 32.460471586446175 13.926550178436937 0 -0.61566148304635926 -0.78801074757464917 0.5 0 0 1 I I -0.70710678118654746 0.70710678118654746 0.5 forward I I I I #
loop $-1 $-1 $237 $59 #
coedge $-1 $149 $149 $238 $239 reversed $94 $-1 #
face $-1 $240 $241 $36 $-1 $242 reversed single #
loop $-1 $-1 $243 $96 #
plane-surface $-1 0 -36.162925475576003 0 0 1 0 0 0 1 forward_v I I I I #
coedge $-1 $244 $245 $246 $247 forward $97 $-1 #
coedge $-1 $248 $99 $249 $250 forward $61 $-1 #
coedge $-1 $99 $248 $251 $252 forward $61 $-1 #
coedge $-1 $253 $254 $99 $157 reversed $255 $-1 #
edge $-1 $256 -36.162925475576003 $257 36.162925475576003 $156 $258 forward 7 unknown #
face $-1 $259 $260 $37 $-1 $261 reversed single #
loop $-1 $-1 $262 $100 #
plane-surface $-1 -56.622984096279417 0 -2.126420100862827 -1 0 0 0 0 1 forward_v I I I I #
coedge $-1 $263 $264 $265 $266 forward $101 $-1 #
coedge $-1 $267 $103 $268 $269 reversed $64 $-1 #
coedge $-1 $103 $267 $270 $271 reversed $64 $-1 #
coedge $-1 $262 $272 $103 $165 reversed $159 $-1 #
edge $-1 $273 -36.162925475576003 $274 36.162925475576003 $164 $275 forward 7 unknown #
face $-1 $276 $277 $38 $-1 $278 forward single #
loop $-1 $-1 $279 $104 #
plane-surface $-1 3.1553277277896257 -153.59055050378072 106.36851012440164 -1 0 0 0 -0.75470958851134928 0.65605901945558964 forward_v I I I I #
coedge $-1 $280 $281 $282 $283 reversed $105 $-1 #
coedge $-1 $171 $107 $284 $285 reversed $67 $-1 #
coedge $-1 $107 $170 $280 $286 reversed $67 $-1 #
coedge $-1 $282 $287 $107 $173 forward $288 $-1 #
edge $-1 $289 35.655715254899697 $290 48.894019423434735 $172 $291 forward 7 unknown #
loop $-1 $-1 $179 $108 #
plane-surface $-1 -11.086367356128804 -36.162925475576046 4.2902356387660348 0 -0.75470958851134928 0.65605901945558964 1 0 0 forward_v I I I I #
loop $-1 $-1 $292 $69 #
coedge $-1 $177 $177 $178 $293 reversed $109 $-1 #
coedge $-1 $178 $178 $177 $293 forward $111 $-1 #
coedge $-1 $179 $179 $112 $180 forward $174 $-1 #
edge $-1 $294 6.6660452309957799e-017 $294 6.2831853071796004 $179 $295 forward 7 unknown #
face $-1 $296 $297 $40 $-1 $298 reversed single #
loop $-1 $-1 $299 $113 #
plane-surface $-1 46.501641959600846 -153.59055050378072 106.36851012440164 -1 0 0 0 -0.75470958851134928 0.65605901945558964 forward_v I I I I #
coedge $-1 $300 $301 $302 $303 reversed $114 $-1 #
coedge $-1 $186 $116 $304 $305 reversed $73 $-1 #
coedge $-1 $116 $185 $300 $306 reversed $73 $-1 #
coedge $-1 $302 $307 $116 $188 forward $297 $-1 #
edge $-1 $308 35.655715254899697 $309 48.894019423434735 $187 $310 forward 7 unknown #
loop $-1 $-1 $194 $117 #
plane-surface $-1 32.259946875682417 -36.162925475576046 4.2902356387660348 0 -0.75470958851134928 0.65605901945558964 1 0 0 forward_v I I I I #
loop $-1 $-1 $311 $75 #
coedge $-1 $192 $192 $193 $312 reversed $118 $-1 #
coedge $-1 $193 $193 $192 $312 forward $120 $-1 #
coedge $-1 $194 $194 $121 $195 forward $189 $-1 #
edge $-1 $313 6.6660452309957799e-017 $313 6.2831853071796004 $194 $314 forward 7 unknown #
face $-1 $315 $316 $42 $-1 $317 reversed single #
loop $-1 $-1 $318 $122 #
plane-surface $-1 -12.14044358005312 74.962073061854412 181.10317585083718 -1 0 0 0 0.61566148304635926 0.78801074757464917 forward_v I I I I #
coedge $-1 $319 $320 $321 $322 reversed $123 $-1 #
coedge $-1 $201 $125 $323 $324 reversed $79 $-1 #
coedge $-1 $125 $200 $319 $325 reversed $79 $-1 #
coedge $-1 $321 $326 $125 $203 forward $327 $-1 #
edge $-1 $328 1.3181110553512028 $329 5.878109255910843 $202 $330 forward 7 unknown #
loop $-1 $-1 $209 $126 #
plane-surface $-1 -26.926716896912708 -20.830622401413962 58.494119343534535 0 0.61566148304635926 0.78801074757464917 1 0 0 forward_v I I I I #
loop $-1 $-1 $331 $81 #
coedge $-1 $207 $207 $208 $332 reversed $127 $-1 #
coedge $-1 $208 $208 $207 $332 forward $129 $-1 #
coedge $-1 $209 $209 $130 $210 forward $204 $-1 #
edge $-1 $333 -1.7943268930983398e-015 $333 6.2831853071795987 $209 $334 forward 7 unknown #
loop $-1 $-1 $216 $131 #
plane-surface $-1 -26.926716896912708 -20.830622401413962 58.494119343534535 0 0.61566148304635926 0.78801074757464917 1 0 0 forward_v I I I I #
loop $-1 $-1 $335 $84 #
coedge $-1 $214 $214 $215 $336 reversed $132 $-1 #
coedge $-1 $215 $215 $214 $336 forward $134 $-1 #
coedge $-1 $216 $216 $135 $217 forward $211 $-1 #
edge $-1 $337 -1.7943268930983398e-015 $337 6.2831853071795987 $216 $338 forward 7 unknown #
face $-1 $339 $340 $45 $-1 $341 forward single #
loop $-1 $-1 $342 $136 #
plane-surface $-1 62.886569733325913 74.962073061854412 181.10317585083718 -1 0 0 0 0.61566148304635926 0.78801074757464917 forward_v I I I I #
coedge $-1 $343 $344 $345 $346 reversed $137 $-1 #
coedge $-1 $223 $139 $347 $348 reversed $88 $-1 #
coedge $-1 $139 $222 $343 $349 reversed $88 $-1 #
coedge $-1 $345 $350 $139 $225 forward $340 $-1 #
edge $-1 $351 1.3181110553512028 $352 5.878109255910843 $224 $353 forward 7 unknown #
loop $-1 $-1 $231 $140 #
plane-surface $-1 48.100296416466321 -20.830622401413962 58.494119343534535 0 0.61566148304635926 0.78801074757464917 1 0 0 forward_v I I I I #
loop $-1 $-1 $354 $90 #
coedge $-1 $229 $229 $230 $355 reversed $141 $-1 #
coedge $-1 $230 $230 $229 $355 forward $143 $-1 #
coedge $-1 $231 $231 $144 $232 forward $226 $-1 #
edge $-1 $356 -1.7943268930983398e-015 $356 6.2831853071795987 $231 $357 forward 7 unknown #
loop $-1 $-1 $238 $145 #
plane-surface $-1 48.100296416466321 -20.830622401413962 58.494119343534535 0 0.61566148304635926 0.78801074757464917 1 0 0 forward_v I I I I #
loop $-1 $-1 $358 $93 #
coedge $-1 $236 $236 $237 $359 reversed $146 $-1 #
coedge $-1 $237 $237 $236 $359 forward $148 $-1 #
coedge $-1 $238 $238 $149 $239 forward $233 $-1 #
edge $-1 $360 -1.7943268930983398e-015 $360 6.2831853071795987 $238 $361 forward 7 unknown #
face $-1 $362 $363 $36 $-1 $364 reversed single #
loop $-1 $-1 $365 $150 #
plane-surface $-1 -77.796563615833008 0 0 1 0 0 0 0 -1 forward_v I I I I #
coedge $-1 $366 $251 $367 $368 forward $151 $-1 #
coedge $-1 $369 $153 $366 $370 forward $97 $-1 #
coedge $-1 $153 $369 $371 $372 forward $97 $-1 #
coedge $-1 $254 $253 $153 $247 reversed $255 $-1 #
edge $-1 $373 -36.162925475576003 $374 36.162925475576003 $246 $375 forward 7 unknown #
coedge $-1 $155 $154 $376 $377 forward $61 $-1 #
coedge $-1 $378 $379 $154 $250 reversed $363 $-1 #
edge $-1 $257 -77.796563615833008 $380 77.796563615833008 $249 $381 forward 7 unknown #
coedge $-1 $243 $382 $155 $252 reversed $151 $-1 #
edge $-1 $383 -77.796563615833008 $256 77.796563615833008 $251 $384 forward 7 unknown #
coedge $-1 $246 $156 $382 $385 forward $255 $-1 #
coedge $-1 $156 $246 $378 $386 reversed $255 $-1 #
loop $-1 $-1 $253 $362 #
vertex $-1 $157 $387 #
vertex $-1 $157 $388 #
straight-curve $-1 77.796563615833008 0 17.528539807301122 0 1 0 I I #
face $-1 $389 $390 $37 $-1 $391 reversed single #
loop $-1 $-1 $392 $158 #
plane-surface $-1 0 -36.162925475576003 0 0 1 0 0 0 1 forward_v I I I I #
coedge $-1 $265 $164 $393 $394 reversed $159 $-1 #
coedge $-1 $395 $161 $392 $396 reversed $101 $-1 #
coedge $-1 $161 $395 $397 $398 reversed $101 $-1 #
coedge $-1 $272 $262 $161 $266 reversed $159 $-1 #
edge $-1 $399 -36.162925475576003 $400 36.162925475576003 $265 $401 forward 7 unknown #
coedge $-1 $163 $162 $402 $403 reversed $64 $-1 #
coedge $-1 $404 $405 $162 $269 forward $406 $-1 #
edge $-1 $407 -44.1916766878049 $274 -23.018097168251309 $268 $408 forward 7 unknown #
coedge $-1 $409 $393 $163 $271 forward $260 $-1 #
edge $-1 $273 23.018097168251309 $410 44.1916766878049 $270 $411 forward 7 unknown #
coedge $-1 $164 $265 $404 $412 reversed $159 $-1 #
vertex $-1 $271 $413 #
vertex $-1 $269 $414 #
straight-curve $-1 -56.622984096279417 0 -0.32263936487116851 0 1 0 I I #
face $-1 $-1 $288 $38 $-1 $415 reversed single #
loop $-1 $-1 $416 $166 #
plane-surface $-1 0 0 17.528539807301122 0 0 1 1 0 0 forward_v I I I I #
coedge $-1 $417 $418 $419 $420 reversed $167 $-1 #
coedge $-1 $421 $169 $171 $286 forward $105 $-1 #
coedge $-1 $169 $421 $417 $422 forward $105 $-1 #
coedge $-1 $419 $172 $169 $283 forward $288 $-1 #
edge $-1 $290 -19.784878761982831 $423 8.6985114058540276 $282 $424 forward 7 unknown #
coedge $-1 $425 $426 $170 $285 forward $277 $-1 #
edge $-1 $427 -52.140231727562863 $289 -40.632349776314356 $284 $428 forward 7 unknown #
edge $-1 $290 6.4836900561353642e-014 $427 17.540924840570003 $171 $429 forward 7 unknown #
coedge $-1 $172 $419 $425 $430 reversed $288 $-1 #
loop $-1 $-1 $419 $276 #
vertex $-1 $430 $431 #
vertex $-1 $173 $432 #
straight-curve $-1 -25.328062440047233 -36.162925475576003 53.184255062200819 0 0 -1 I I #
coedge $-1 $292 $292 $-1 $433 reversed $176 $-1 #
edge $-1 $434 0 $434 6.2831853071796004 $177 $435 forward 7 unknown #
vertex $-1 $180 $436 #
ellipse-curve $-1 -11.086367356128804 -30.408984499951757 10.909387723033598 0 -0.75470958851134928 0.65605901945558964 2.5 0 0 1 I I #
face $-1 $-1 $437 $40 $-1 $438 forward single #
loop $-1 $-1 $187 $181 #
plane-surface $-1 0 -36.162925475576003 0 0 1 0 0 0 1 forward_v I I I I #
coedge $-1 $439 $440 $441 $442 reversed $182 $-1 #
coedge $-1 $443 $184 $186 $306 forward $114 $-1 #
coedge $-1 $184 $443 $439 $444 forward $114 $-1 #
coedge $-1 $441 $187 $184 $303 forward $297 $-1 #
edge $-1 $309 1.8882783539227788 $445 30.371668521759638 $302 $446 forward 7 unknown #
coedge $-1 $447 $448 $185 $305 forward $437 $-1 #
edge $-1 $449 -52.140231727562863 $308 -40.632349776314356 $304 $450 forward 7 unknown #
edge $-1 $309 6.4836900561353642e-014 $449 17.540924840570003 $186 $451 forward 7 unknown #
coedge $-1 $187 $441 $447 $452 reversed $297 $-1 #
vertex $-1 $452 $453 #
vertex $-1 $188 $454 #
straight-curve $-1 18.018251791763987 -36.162925475576003 53.184255062200819 0 0 -1 I I #
coedge $-1 $311 $311 $-1 $455 reversed $191 $-1 #
edge $-1 $456 0 $456 6.2831853071796004 $192 $457 forward 7 unknown #
vertex $-1 $195 $458 #
ellipse-curve $-1 32.259946875682417 -30.408984499951757 10.909387723033598 0 -0.75470958851134928 0.65605901945558964 2.5 0 0 1 I I #
face $-1 $-1 $327 $42 $-1 $459 forward single #
loop $-1 $-1 $460 $196 #
plane-surface $-1 0 36.162925475576003 0 0 -1 0 0 0 -1 forward_v I I I I #
coedge $-1 $461 $462 $463 $464 reversed $197 $-1 #
coedge $-1 $465 $199 $201 $325 forward $123 $-1 #
coedge $-1 $199 $465 $461 $466 forward $123 $-1 #
coedge $-1 $463 $202 $199 $322 forward $327 $-1 #
edge $-1 $329 -28.249631765315947 $467 1.3229148684032346 $321 $468 forward 7 unknown #
coedge $-1 $469 $470 $200 $324 forward $316 $-1 #
edge $-1 $471 -76.585709241060243 $328 -73.023048118117458 $323 $472 forward 7 unknown #
edge $-1 $329 66.539130129647418 $471 72.325850951152034 $201 $473 forward 7 unknown #
coedge $-1 $202 $463 $469 $474 forward $327 $-1 #
loop $-1 $-1 $463 $315 #
vertex $-1 $324 $475 #
vertex $-1 $203 $476 #
straight-curve $-1 -41.712990213772301 37.481036530927206 17.528539807301129 0 -1 0 I I #
coedge $-1 $331 $331 $-1 $477 reversed $206 $-1 #
edge $-1 $478 0 $478 6.2831853071796004 $207 $479 forward 7 unknown #
vertex $-1 $210 $480 #
ellipse-curve $-1 -33.263691175566819 33.882926375296194 15.747209245829714 0 0.61566148304635926 0.78801074757464917 1 0 0 1 I I #
coedge $-1 $335 $335 $-1 $481 reversed $213 $-1 #
edge $-1 $482 0 $482 6.2831853071796004 $214 $483 forward 7 unknown #
vertex $-1 $217 $484 #
ellipse-curve $-1 -20.589742618258605 33.882926375296194 15.747209245829714 0 0.61566148304635926 0.78801074757464917 1 0 0 1 I I #
face $-1 $-1 $485 $45 $-1 $486 reversed single #
loop $-1 $-1 $224 $218 #
plane-surface $-1 0 0 17.528539807301122 0 0 1 1 0 0 forward_v I I I I #
coedge $-1 $487 $488 $489 $490 reversed $219 $-1 #
coedge $-1 $491 $221 $223 $349 forward $137 $-1 #
coedge $-1 $221 $491 $487 $492 forward $137 $-1 #
coedge $-1 $489 $224 $221 $346 forward $340 $-1 #
edge $-1 $352 9.2638748913735682 $493 38.836421525092753 $345 $494 forward 7 unknown #
coedge $-1 $495 $496 $222 $348 forward $485 $-1 #
edge $-1 $497 -76.585709241060243 $351 -73.023048118117458 $347 $498 forward 7 unknown #
edge $-1 $352 66.539130129647418 $497 72.325850951152034 $223 $499 forward 7 unknown #
coedge $-1 $224 $489 $495 $500 forward $340 $-1 #
vertex $-1 $225 $501 #
vertex $-1 $225 $502 #
straight-curve $-1 33.314023099606729 37.481036530927206 17.528539807301129 0 -1 0 I I #
coedge $-1 $354 $354 $-1 $503 reversed $228 $-1 #
edge $-1 $504 0 $504 6.2831853071796004 $229 $505 forward 7 unknown #
vertex $-1 $232 $506 #
ellipse-curve $-1 41.76332213781221 33.882926375296194 15.747209245829714 0 0.61566148304635926 0.78801074757464917 1 0 0 1 I I #
coedge $-1 $358 $358 $-1 $507 reversed $235 $-1 #
edge $-1 $508 0 $508 6.2831853071796004 $236 $509 forward 7 unknown #
vertex $-1 $239 $510 #
ellipse-curve $-1 54.437270695120418 33.882926375296194 15.747209245829714 0 0.61566148304635926 0.78801074757464917 1 0 0 1 I I #
face $-1 $-1 $255 $36 $-1 $511 reversed single #
loop $-1 $-1 $378 $240 #
plane-surface $-1 0 36.162925475576003 0 0 -1 0 0 0 -1 forward_v I I I I #
coedge $-1 $512 $376 $379 $513 forward $241 $-1 #
coedge $-1 $382 $243 $244 $370 reversed $151 $-1 #
coedge $-1 $376 $512 $243 $368 reversed $241 $-1 #
edge $-1 $383 -17.528539807301122 $514 17.528539807301122 $367 $515 forward 7 unknown #
coedge $-1 $245 $244 $512 $516 forward $97 $-1 #
edge $-1 $374 -77.796563615833008 $514 77.796563615833008 $366 $517 forward 7 unknown #
coedge $-1 $379 $378 $245 $372 reversed $363 $-1 #
edge $-1 $518 -77.796563615833008 $373 77.796563615833008 $371 $519 forward 7 unknown #
vertex $-1 $247 $520 #
vertex $-1 $385 $521 #
straight-curve $-1 77.796563615833008 0 -17.528539807301122 0 -1 0 I I #
coedge $-1 $365 $367 $248 $377 reversed $241 $-1 #
edge $-1 $380 -36.162925475576003 $383 36.162925475576003 $376 $522 forward 7 unknown #
coedge $-1 $371 $249 $254 $386 forward $363 $-1 #
coedge $-1 $249 $371 $365 $513 reversed $363 $-1 #
vertex $-1 $250 $523 #
straight-curve $-1 0 36.162925475576003 17.528539807301122 -1 0 0 I I #
coedge $-1 $251 $366 $253 $385 reversed $151 $-1 #
vertex $-1 $377 $524 #
straight-curve $-1 0 -36.162925475576003 17.528539807301122 1 0 0 I I #
edge $-1 $256 -17.528539807301122 $374 17.528539807301122 $253 $525 forward 7 unknown #
edge $-1 $257 -17.528539807301122 $373 17.528539807301122 $254 $526 forward 7 unknown #
point $-1 77.796563615833008 -36.162925475576003 17.528539807301122 #
point $-1 77.796563615833008 36.162925475576003 17.528539807301122 #
face $-1 $-1 $406 $37 $-1 $527 reversed single #
loop $-1 $-1 $528 $259 #
plane-surface $-1 -77.796563615833008 0 0 1 0 0 0 0 -1 forward_v I I I I #
coedge $-1 $393 $409 $263 $396 forward $260 $-1 #
coedge $-1 $270 $392 $262 $394 forward $260 $-1 #
edge $-1 $400 -2.8669907864230719 $273 0.74057068556024497 $393 $529 forward 7 unknown #
coedge $-1 $264 $263 $528 $530 reversed $101 $-1 #
edge $-1 $531 -44.1916766878049 $400 -23.018097168251309 $392 $532 forward 7 unknown #
coedge $-1 $405 $404 $264 $398 forward $406 $-1 #
edge $-1 $399 23.018097168251309 $533 44.1916766878049 $397 $534 forward 7 unknown #
vertex $-1 $398 $535 #
vertex $-1 $396 $536 #
straight-curve $-1 -56.622984096279417 0 -3.9302008368544854 0 -1 0 I I #
coedge $-1 $537 $538 $267 $403 forward $390 $-1 #
edge $-1 $410 -36.162925475576003 $407 36.162925475576003 $402 $539 forward 7 unknown #
coedge $-1 $397 $268 $272 $412 forward $406 $-1 #
coedge $-1 $268 $397 $537 $540 reversed $406 $-1 #
loop $-1 $-1 $397 $389 #
vertex $-1 $540 $541 #
straight-curve $-1 -33.604886928028108 36.162925475576003 -0.32263936487116851 1 0 0 I I #
coedge $-1 $392 $270 $538 $542 forward $260 $-1 #
vertex $-1 $542 $543 #
straight-curve $-1 -33.604886928028108 -36.162925475576003 -0.32263936487116851 -1 0 0 I I #
edge $-1 $274 -0.74057068556024497 $399 2.8669907864230719 $404 $544 forward 7 unknown #
point $-1 -56.622984096279417 -36.162925475576003 -0.32263936487116851 #
point $-1 -56.622984096279417 36.162925475576003 -0.32263936487116851 #
plane-surface $-1 0 -36.162925475576003 0 0 1 0 0 0 1 forward_v I I I I #
coedge $-1 $426 $425 $418 $545 forward $277 $-1 #
coedge $-1 $418 $279 $281 $422 reversed $167 $-1 #
coedge $-1 $279 $417 $416 $545 reversed $167 $-1 #
coedge $-1 $287 $282 $279 $420 forward $288 $-1 #
edge $-1 $423 -48.894019423434735 $546 -35.655715254899697 $419 $547 forward 7 unknown #
coedge $-1 $281 $280 $426 $548 reversed $105 $-1 #
edge $-1 $549 -17.540924840570003 $423 -6.4836900561353642e-014 $417 $550 forward 7 unknown #
vertex $-1 $283 $551 #
straight-curve $-1 -5.5431836780644019 -36.162925475576003 4.2902356387660809 1 0 0 I I #
coedge $-1 $416 $284 $287 $430 forward $277 $-1 #
coedge $-1 $284 $416 $421 $548 forward $277 $-1 #
vertex $-1 $285 $552 #
straight-curve $-1 -25.328062440047233 -76.795275251890359 17.528539807301122 0 -1 0 I I #
straight-curve $-1 -25.328062440047233 -36.162925475576046 4.2902356387660348 0 0.65605901945558964 0.75470958851134928 I I #
edge $-1 $289 -25.328062440047233 $546 3.1553277277896257 $287 $553 forward 7 unknown #
point $-1 -25.328062440047233 -36.162925475576003 17.528539807301122 #
point $-1 -25.328062440047233 -36.162925475576003 4.2902356387660836 #
edge $-1 $554 1 $554 0 $292 $-1 forward 7 unknown #
vertex $-1 $293 $555 #
ellipse-curve $-1 -11.086367356128804 -28.247892122985604 9.0307788284759507 0 -0.75470958851134928 0.65605901945558964 2.5 0 0 1 I I #
point $-1 -8.5863673561288039 -30.408984499951718 10.909387723033564 #
loop $-1 $-1 $304 $296 #
plane-surface $-1 0 0 17.528539807301122 0 0 1 1 0 0 forward_v I I I I #
coedge $-1 $440 $299 $301 $444 reversed $182 $-1 #
coedge $-1 $299 $439 $556 $557 reversed $182 $-1 #
coedge $-1 $307 $302 $299 $442 forward $297 $-1 #
edge $-1 $445 -48.894019423434735 $558 -35.655715254899697 $441 $559 forward 7 unknown #
coedge $-1 $301 $300 $448 $560 reversed $114 $-1 #
edge $-1 $561 -17.540924840570003 $445 -6.4836900561353642e-014 $439 $562 forward 7 unknown #
vertex $-1 $303 $563 #
straight-curve $-1 16.129973437841208 -36.162925475576003 4.2902356387660809 1 0 0 I I #
coedge $-1 $556 $304 $307 $452 forward $437 $-1 #
coedge $-1 $304 $556 $443 $560 forward $437 $-1 #
vertex $-1 $305 $564 #
straight-curve $-1 18.018251791763987 -76.795275251890359 17.528539807301122 0 -1 0 I I #
straight-curve $-1 18.018251791763987 -36.162925475576046 4.2902356387660348 0 0.65605901945558964 0.75470958851134928 I I #
edge $-1 $308 18.018251791763987 $558 46.501641959600846 $307 $565 forward 7 unknown #
point $-1 18.018251791763987 -36.162925475576003 17.528539807301122 #
point $-1 18.018251791763987 -36.162925475576003 4.2902356387660836 #
edge $-1 $566 1 $566 0 $311 $-1 forward 7 unknown #
vertex $-1 $312 $567 #
ellipse-curve $-1 32.259946875682417 -28.247892122985604 9.0307788284759507 0 -0.75470958851134928 0.65605901945558964 2.5 0 0 1 I I #
point $-1 34.759946875682417 -30.408984499951718 10.909387723033564 #
plane-surface $-1 0 0 17.528539807301122 0 0 1 1 0 0 forward_v I I I I #
coedge $-1 $470 $469 $462 $568 forward $316 $-1 #
coedge $-1 $462 $318 $320 $466 reversed $197 $-1 #
coedge $-1 $318 $461 $460 $568 reversed $197 $-1 #
coedge $-1 $326 $321 $318 $464 forward $327 $-1 #
edge $-1 $467 -5.878109255910843 $569 -1.3181110553512028 $463 $570 forward 7 unknown #
coedge $-1 $320 $319 $470 $571 reversed $123 $-1 #
edge $-1 $572 -72.325850951152034 $467 -66.539130129647418 $461 $573 forward 7 unknown #
vertex $-1 $322 $574 #
straight-curve $-1 -13.463358448456354 31.602927275016373 17.528539807301119 1 0 0 I I #
coedge $-1 $460 $323 $326 $474 reversed $316 $-1 #
coedge $-1 $323 $460 $465 $571 forward $316 $-1 #
vertex $-1 $324 $575 #
straight-curve $-1 -41.712990213772301 36.162925475576003 90.551587925418588 0 0 1 I I #
straight-curve $-1 -41.712990213772301 -20.830622401413962 58.494119343534535 0 0.78801074757464917 -0.61566148304635926 I I #
edge $-1 $569 12.14044358005312 $328 41.712990213772301 $469 $576 forward 7 unknown #
point $-1 -41.712990213772301 36.162925475576003 17.528539807301122 #
point $-1 -41.712990213772301 31.602927275016363 17.528539807301122 #
edge $-1 $577 1 $577 0 $331 $-1 forward 7 unknown #
vertex $-1 $332 $578 #
ellipse-curve $-1 -33.263691175566819 32.768302327969351 14.320555552224262 0 0.61566148304635926 0.78801074757464917 1 0 0 1 I I #
point $-1 -32.263691175566819 33.882926375296215 15.747209245829744 #
edge $-1 $579 1 $579 0 $335 $-1 forward 7 unknown #
vertex $-1 $336 $580 #
ellipse-curve $-1 -20.589742618258605 32.768302327969351 14.320555552224262 0 0.61566148304635926 0.78801074757464917 1 0 0 1 I I #
point $-1 -19.589742618258605 33.882926375296215 15.747209245829744 #
loop $-1 $-1 $347 $339 #
plane-surface $-1 0 36.162925475576003 0 0 -1 0 0 0 -1 forward_v I I I I #
coedge $-1 $488 $342 $344 $492 reversed $219 $-1 #
coedge $-1 $342 $487 $581 $582 reversed $219 $-1 #
coedge $-1 $350 $345 $342 $490 forward $340 $-1 #
edge $-1 $493 -5.878109255910843 $583 -1.3181110553512028 $489 $584 forward 7 unknown #
coedge $-1 $344 $343 $496 $585 reversed $137 $-1 #
edge $-1 $586 -72.325850951152034 $493 -66.539130129647418 $487 $587 forward 7 unknown #
vertex $-1 $346 $588 #
straight-curve $-1 24.050148208233161 31.602927275016373 17.528539807301119 1 0 0 I I #
coedge $-1 $581 $347 $350 $500 reversed $485 $-1 #
coedge $-1 $347 $581 $491 $585 forward $485 $-1 #
vertex $-1 $348 $589 #
straight-curve $-1 33.314023099606729 36.162925475576003 90.551587925418588 0 0 1 I I #
straight-curve $-1 33.314023099606729 -20.830622401413962 58.494119343534535 0 0.78801074757464917 -0.61566148304635926 I I #
edge $-1 $583 -62.886569733325913 $351 -33.314023099606729 $495 $590 forward 7 unknown #
point $-1 33.314023099606729 36.162925475576003 17.528539807301122 #
point $-1 33.314023099606729 31.602927275016363 17.528539807301122 #
edge $-1 $591 1 $591 0 $354 $-1 forward 7 unknown #
vertex $-1 $355 $592 #
ellipse-curve $-1 41.76332213781221 32.768302327969351 14.320555552224262 0 0.61566148304635926 0.78801074757464917 1 0 0 1 I I #
point $-1 42.76332213781221 33.882926375296215 15.747209245829744 #
edge $-1 $593 1 $593 0 $358 $-1 forward 7 unknown #
vertex $-1 $359 $594 #
ellipse-curve $-1 54.437270695120418 32.768302327969351 14.320555552224262 0 0.61566148304635926 0.78801074757464917 1 0 0 1 I I #
point $-1 55.437270695120418 33.882926375296215 15.747209245829744 #
plane-surface $-1 77.796563615833008 0 0 -1 0 0 0 0 1 forward_v I I I I #
coedge $-1 $367 $365 $369 $516 reversed $241 $-1 #
edge $-1 $380 -17.528539807301122 $518 17.528539807301122 $379 $595 forward 7 unknown #
vertex $-1 $516 $596 #
straight-curve $-1 -77.796563615833008 -36.162925475576003 0 0 0 -1 I I #
edge $-1 $514 -36.162925475576003 $518 36.162925475576003 $512 $597 forward 7 unknown #
straight-curve $-1 0 -36.162925475576003 -17.528539807301122 -1 0 0 I I #
vertex $-1 $372 $598 #
straight-curve $-1 0 36.162925475576003 -17.528539807301122 1 0 0 I I #
point $-1 77.796563615833008 36.162925475576003 -17.528539807301122 #
point $-1 77.796563615833008 -36.162925475576003 -17.528539807301122 #
straight-curve $-1 -77.796563615833008 0 17.528539807301122 0 -1 0 I I #
point $-1 -77.796563615833008 36.162925475576003 17.528539807301122 #
point $-1 -77.796563615833008 -36.162925475576003 17.528539807301122 #
straight-curve $-1 77.796563615833008 -36.162925475576003 0 0 0 -1 I I #
straight-curve $-1 77.796563615833008 36.162925475576003 0 0 0 -1 I I #
plane-surface $-1 0 36.162925475576003 0 0 -1 0 0 0 -1 forward_v I I I I #
coedge $-1 $538 $537 $395 $530 forward $390 $-1 #
straight-curve $-1 -56.622984096279417 -36.162925475576003 -1.0632100504314135 0 0 1 I I #
edge $-1 $533 -36.162925475576003 $531 36.162925475576003 $528 $599 forward 7 unknown #
vertex $-1 $396 $600 #
straight-curve $-1 -33.604886928028108 -36.162925475576003 -3.9302008368544854 1 0 0 I I #
vertex $-1 $398 $601 #
straight-curve $-1 -33.604886928028108 36.162925475576003 -3.9302008368544854 -1 0 0 I I #
point $-1 -56.622984096279417 36.162925475576003 -3.9302008368544854 #
point $-1 -56.622984096279417 -36.162925475576003 -3.9302008368544854 #
coedge $-1 $528 $402 $405 $540 forward $390 $-1 #
coedge $-1 $402 $528 $409 $542 reversed $390 $-1 #
straight-curve $-1 -77.796563615833008 0 -0.32263936487116851 0 1 0 I I #
edge $-1 $407 0.32263936487116851 $533 3.9302008368544854 $405 $602 forward 7 unknown #
point $-1 -77.796563615833008 36.162925475576003 -0.32263936487116851 #
edge $-1 $410 0.32263936487116851 $531 3.9302008368544854 $538 $603 forward 7 unknown #
point $-1 -77.796563615833008 -36.162925475576003 -0.32263936487116851 #
straight-curve $-1 -56.622984096279417 36.162925475576003 -1.0632100504314135 0 0 -1 I I #
edge $-1 $546 40.632349776314356 $549 52.140231727562863 $416 $604 forward 7 unknown #
vertex $-1 $545 $605 #
straight-curve $-1 3.1553277277896257 -36.162925475576003 53.184255062200819 0 0 1 I I #
edge $-1 $549 -8.6985114058540276 $427 19.784878761982831 $426 $606 forward 7 unknown #
vertex $-1 $548 $607 #
straight-curve $-1 3.1553277277896257 -36.162925475576046 4.2902356387660348 0 -0.65605901945558964 -0.75470958851134928 I I #
point $-1 3.1553277277896257 -36.162925475576003 4.2902356387660836 #
point $-1 -25.328062440047233 -24.655043524327496 17.528539807301122 #
straight-curve $-1 0 -36.162925475576003 17.528539807301122 1 0 0 I I #
vertex $-1 $433 $608 #
point $-1 -8.5863673561288039 -28.247892122985604 9.0307788284759507 #
coedge $-1 $448 $447 $440 $557 forward $437 $-1 #
edge $-1 $558 40.632349776314356 $561 52.140231727562863 $556 $609 forward 7 unknown #
vertex $-1 $557 $610 #
straight-curve $-1 46.501641959600846 -36.162925475576003 53.184255062200819 0 0 1 I I #
edge $-1 $561 -30.371668521759638 $449 -1.8882783539227788 $448 $611 forward 7 unknown #
vertex $-1 $560 $612 #
straight-curve $-1 46.501641959600846 -36.162925475576046 4.2902356387660348 0 -0.65605901945558964 -0.75470958851134928 I I #
point $-1 46.501641959600846 -36.162925475576003 4.2902356387660836 #
point $-1 18.018251791763987 -24.655043524327496 17.528539807301122 #
straight-curve $-1 0 -36.162925475576003 17.528539807301122 1 0 0 I I #
vertex $-1 $455 $613 #
point $-1 34.759946875682417 -28.247892122985604 9.0307788284759507 #
edge $-1 $569 73.023048118117458 $572 76.585709241060243 $460 $614 forward 7 unknown #
vertex $-1 $474 $615 #
straight-curve $-1 -12.14044358005312 37.481036530927206 17.528539807301129 0 1 0 I I #
edge $-1 $572 -1.3229148684032346 $471 28.249631765315947 $470 $616 forward 7 unknown #
vertex $-1 $571 $617 #
straight-curve $-1 -12.14044358005312 -20.830622401413962 58.494119343534535 0 -0.78801074757464917 0.61566148304635926 I I #
point $-1 -12.14044358005312 31.602927275016363 17.528539807301122 #
point $-1 -41.712990213772301 36.162925475576003 13.965878684358337 #
straight-curve $-1 0 36.162925475576003 17.528539807301122 -1 0 0 I I #
vertex $-1 $477 $618 #
point $-1 -32.263691175566819 32.768302327969351 14.320555552224262 #
vertex $-1 $481 $619 #
point $-1 -19.589742618258605 32.768302327969351 14.320555552224262 #
coedge $-1 $496 $495 $488 $582 forward $485 $-1 #
edge $-1 $583 73.023048118117458 $586 76.585709241060243 $581 $620 forward 7 unknown #
vertex $-1 $500 $621 #
straight-curve $-1 62.886569733325913 37.481036530927206 17.528539807301129 0 1 0 I I #
edge $-1 $586 -38.836421525092753 $497 -9.2638748913735682 $496 $622 forward 7 unknown #
vertex $-1 $585 $623 #
straight-curve $-1 62.886569733325913 -20.830622401413962 58.494119343534535 0 -0.78801074757464917 0.61566148304635926 I I #
point $-1 62.886569733325913 31.602927275016363 17.528539807301122 #
point $-1 33.314023099606729 36.162925475576003 13.965878684358337 #
straight-curve $-1 0 36.162925475576003 17.528539807301122 -1 0 0 I I #
vertex $-1 $503 $624 #
point $-1 42.76332213781221 32.768302327969351 14.320555552224262 #
vertex $-1 $507 $625 #
point $-1 55.437270695120418 32.768302327969351 14.320555552224262 #
straight-curve $-1 -77.796563615833008 36.162925475576003 0 0 0 -1 I I #
point $-1 -77.796563615833008 -36.162925475576003 -17.528539807301122 #
straight-curve $-1 -77.796563615833008 0 -17.528539807301122 0 1 0 I I #
point $-1 -77.796563615833008 36.162925475576003 -17.528539807301122 #
straight-curve $-1 -77.796563615833008 0 -3.9302008368544854 0 -1 0 I I #
point $-1 -77.796563615833008 -36.162925475576003 -3.9302008368544854 #
point $-1 -77.796563615833008 36.162925475576003 -3.9302008368544854 #
straight-curve $-1 -77.796563615833008 36.162925475576003 0 0 0 -1 I I #
straight-curve $-1 -77.796563615833008 -36.162925475576003 0 0 0 -1 I I #
straight-curve $-1 3.1553277277896257 -76.795275251890359 17.528539807301122 0 1 0 I I #
point $-1 3.1553277277896257 -36.162925475576003 17.528539807301122 #
straight-curve $-1 -5.5431836780644019 -24.655043524327496 17.528539807301122 -1 0 0 I I #
point $-1 3.1553277277896257 -24.655043524327496 17.528539807301122 #
point $-1 -11.086367356128804 -26.361118151707231 7.3906312798369758 #
straight-curve $-1 46.501641959600846 -76.795275251890359 17.528539807301122 0 1 0 I I #
point $-1 46.501641959600846 -36.162925475576003 17.528539807301122 #
straight-curve $-1 16.129973437841208 -24.655043524327496 17.528539807301122 -1 0 0 I I #
point $-1 46.501641959600846 -24.655043524327496 17.528539807301122 #
point $-1 32.259946875682417 -26.361118151707231 7.3906312798369758 #
straight-curve $-1 -12.14044358005312 36.162925475576003 90.551587925418588 0 0 -1 I I #
point $-1 -12.14044358005312 36.162925475576003 17.528539807301122 #
straight-curve $-1 -13.463358448456354 36.162925475576003 13.965878684358348 -1 0 0 I I #
point $-1 -12.14044358005312 36.162925475576003 13.965878684358337 #
point $-1 -33.263691175566819 32.152640844922999 13.532544804649612 #
point $-1 -20.589742618258605 32.152640844922999 13.532544804649612 #
straight-curve $-1 62.886569733325913 36.162925475576003 90.551587925418588 0 0 -1 I I #
point $-1 62.886569733325913 36.162925475576003 17.528539807301122 #
straight-curve $-1 24.050148208233161 36.162925475576003 13.965878684358348 -1 0 0 I I #
point $-1 62.886569733325913 36.162925475576003 13.965878684358337 #
point $-1 41.76332213781221 32.152640844922999 13.532544804649612 #
point $-1 54.437270695120418 32.152640844922999 13.532544804649612 #
End-of-ACIS-data 