500 0 5 0           
7 Unknown 11 ACIS 5.0 NT 24 Thu Mar 25 23:35:58 1999 
-1 9.9999999999999995e-007 1e-010 
body $-1 $5 $-1 $6 #
body $-1 $7 $-1 $8 #
body $-1 $9 $-1 $10 #
body $-1 $11 $-1 $12 #
body $-1 $13 $-1 $14 #
lump $-1 $-1 $15 $0 #
transform $-1 1 0 0 0 1 0 0 0 1 70.063173314615312 42.995828169955978 19.912683212083802 1 rotate no_reflect no_shear #
lump $-1 $-1 $16 $1 #
transform $-1 1 0 0 0 1 0 0 0 1 70.063173314615312 42.995828169955978 19.912683212083802 1 rotate no_reflect no_shear #
lump $-1 $-1 $17 $2 #
transform $-1 1 0 0 0 1 0 0 0 1 70.063173314615312 42.995828169955978 19.912683212083802 1 rotate no_reflect no_shear #
lump $-1 $-1 $18 $3 #
transform $-1 1 0 0 0 1 0 0 0 1 70.063173314615312 42.995828169955978 19.912683212083802 1 rotate no_reflect no_shear #
lump $-1 $-1 $19 $4 #
transform $-1 1 0 0 0 1 0 0 0 1 70.063173314615312 42.995828169955978 19.912683212083802 1 rotate no_reflect no_shear #
shell $-1 $-1 $-1 $20 $-1 $5 #
shell $-1 $-1 $-1 $21 $-1 $7 #
shell $-1 $-1 $-1 $22 $-1 $9 #
shell $-1 $-1 $-1 $23 $-1 $11 #
shell $-1 $-1 $-1 $24 $-1 $13 #
face $-1 $25 $26 $15 $-1 $27 forward single #
face $-1 $28 $29 $16 $-1 $30 reversed single #
face $-1 $31 $32 $17 $-1 $33 reversed single #
face $-1 $34 $35 $18 $-1 $36 forward single #
face $-1 $37 $38 $19 $-1 $39 forward single #
face $-1 $40 $41 $15 $-1 $42 reversed single #
loop $-1 $-1 $43 $20 #
plane-surface $-1 0 0 19.912683212083802 0 0 1 1 0 0 forward_v I I I I #
face $-1 $44 $45 $16 $-1 $46 reversed single #
loop $-1 $-1 $47 $21 #
plane-surface $-1 -62.204503170246397 0 10.678356405208042 0 0 1 1 0 0 forward_v I I I I #
face $-1 $48 $49 $17 $-1 $50 reversed single #
loop $-1 $-1 $51 $22 #
plane-surface $-1 25.484943932914263 8.3275789311380173 202.75805195949312 0 -1 0 -0.52991927123019833 0 -0.84804809178421925 forward_v I I I I #
face $-1 $52 $53 $18 $-1 $54 forward single #
loop $-1 $55 $56 $23 #
cone-surface $-1 59.698367581543629 -4.2772999916124377 11.321457871843013 -0.52991927123019833 0 -0.84804809178421925 2.1201202294605483 0 -1.3247981780754958 1 I I 0 1 2.5 forward I I I I #
face $-1 $57 $58 $19 $-1 $59 forward single #
loop $-1 $60 $61 $24 #
cone-surface $-1 59.698367581543629 3.285627362037836 11.321457871843013 -0.52991927123019833 0 -0.84804809178421925 2.1201202294605483 0 -1.3247981780754958 1 I I 0 1 2.5 forward I I I I #
face $-1 $62 $63 $15 $-1 $64 reversed single #
loop $-1 $-1 $65 $25 #
plane-surface $-1 0 0 -19.912683212083802 0 0 1 1 0 0 forward_v I I I I #
coedge $-1 $66 $67 $68 $69 forward $26 $-1 #
face $-1 $70 $71 $16 $-1 $72 reversed single #
loop $-1 $-1 $73 $28 #
plane-surface $-1 -54.345833025877482 0 15.295519808645924 -1 0 0 0 0 1 forward_v I I I I #
coedge $-1 $74 $75 $76 $77 forward $29 $-1 #
face $-1 $78 $79 $17 $-1 $80 reversed single #
loop $-1 $-1 $81 $31 #
plane-surface $-1 -48.770707552997791 -0.49583631478730439 83.924171091880027 0.52991927123019833 0 0.84804809178421925 0.84804809178421925 0 -0.52991927123019833 forward_v I I I I #
coedge $-1 $82 $83 $84 $85 reversed $32 $-1 #
face $-1 $-1 $86 $18 $-1 $87 forward single #
loop $-1 $88 $89 $34 #
cone-surface $-1 56.868206978946972 -4.2772999916124377 6.7922542199298555 -0.52991927123019833 0 -0.84804809178421925 1.0600601147302742 0 -0.66239908903774791 1 I I -0.70710678118654746 0.70710678118654746 1.25 forward I I I I #
loop $-1 $-1 $90 $23 #
coedge $-1 $56 $56 $91 $92 reversed $35 $-1 #
face $-1 $-1 $93 $19 $-1 $94 forward single #
loop $-1 $95 $96 $37 #
cone-surface $-1 56.868206978946972 3.285627362037836 6.7922542199298555 -0.52991927123019833 0 -0.84804809178421925 1.0600601147302742 0 -0.66239908903774791 1 I I -0.70710678118654746 0.70710678118654746 1.25 forward I I I I #
loop $-1 $-1 $97 $24 #
coedge $-1 $61 $61 $98 $99 reversed $38 $-1 #
face $-1 $100 $101 $15 $-1 $102 reversed single #
loop $-1 $-1 $103 $40 #
plane-surface $-1 0 -42.995828169955978 0 0 1 0 0 0 1 forward_v I I I I #
coedge $-1 $104 $105 $106 $107 forward $41 $-1 #
coedge $-1 $108 $43 $109 $110 forward $26 $-1 #
coedge $-1 $43 $108 $111 $112 forward $26 $-1 #
coedge $-1 $113 $114 $43 $69 reversed $115 $-1 #
edge $-1 $116 -42.995828169955978 $117 42.995828169955978 $68 $118 forward 7 unknown #
face $-1 $119 $120 $16 $-1 $121 reversed single #
loop $-1 $-1 $122 $44 #
plane-surface $-1 0 42.995828169955978 0 0 -1 0 0 0 -1 forward_v I I I I #
coedge $-1 $76 $123 $124 $125 reversed $45 $-1 #
coedge $-1 $126 $47 $127 $128 reversed $29 $-1 #
coedge $-1 $47 $126 $129 $130 reversed $29 $-1 #
coedge $-1 $131 $73 $47 $77 reversed $45 $-1 #
edge $-1 $132 -42.995828169955978 $133 42.995828169955978 $76 $134 forward 7 unknown #
face $-1 $135 $136 $17 $-1 $137 forward single #
loop $-1 $-1 $138 $48 #
plane-surface $-1 25.484943932914263 -9.3192515607126261 202.75805195949312 0 1 0 0.52991927123019833 0 0.84804809178421925 forward_v I I I I #
coedge $-1 $139 $140 $141 $142 reversed $49 $-1 #
coedge $-1 $83 $51 $143 $144 reversed $32 $-1 #
coedge $-1 $51 $82 $139 $145 reversed $32 $-1 #
coedge $-1 $141 $146 $51 $85 forward $136 $-1 #
edge $-1 $147 -57.320701348158181 $148 -40.926612909132558 $84 $149 forward 7 unknown #
loop $-1 $-1 $91 $52 #
plane-surface $-1 -48.770707552997791 -0.49583631478730439 83.924171091880027 0.52991927123019833 0 0.84804809178421925 0.84804809178421925 0 -0.52991927123019833 forward_v I I I I #
loop $-1 $-1 $150 $34 #
coedge $-1 $89 $89 $90 $151 reversed $53 $-1 #
coedge $-1 $90 $90 $89 $151 forward $55 $-1 #
coedge $-1 $91 $91 $56 $92 forward $86 $-1 #
edge $-1 $152 0 $152 6.2831853071796004 $91 $153 forward 7 unknown #
loop $-1 $-1 $98 $57 #
plane-surface $-1 -48.770707552997791 -0.49583631478730439 83.924171091880027 0.52991927123019833 0 0.84804809178421925 0.84804809178421925 0 -0.52991927123019833 forward_v I I I I #
loop $-1 $-1 $154 $37 #
coedge $-1 $96 $96 $97 $155 reversed $58 $-1 #
coedge $-1 $97 $97 $96 $155 forward $60 $-1 #
coedge $-1 $98 $98 $61 $99 forward $93 $-1 #
edge $-1 $156 0 $156 6.2831853071796004 $98 $157 forward 7 unknown #
face $-1 $158 $159 $15 $-1 $160 reversed single #
loop $-1 $-1 $161 $62 #
plane-surface $-1 -70.063173314615312 0 0 1 0 0 0 0 -1 forward_v I I I I #
coedge $-1 $162 $111 $163 $164 forward $63 $-1 #
coedge $-1 $165 $65 $162 $166 forward $41 $-1 #
coedge $-1 $65 $165 $167 $168 forward $41 $-1 #
coedge $-1 $114 $113 $65 $107 reversed $115 $-1 #
edge $-1 $169 -42.995828169955978 $170 42.995828169955978 $106 $171 forward 7 unknown #
coedge $-1 $67 $66 $172 $173 forward $26 $-1 #
coedge $-1 $174 $175 $66 $110 reversed $159 $-1 #
edge $-1 $117 -70.063173314615312 $176 70.063173314615312 $109 $177 forward 7 unknown #
coedge $-1 $103 $178 $67 $112 reversed $63 $-1 #
edge $-1 $179 -70.063173314615312 $116 70.063173314615312 $111 $180 forward 7 unknown #
coedge $-1 $106 $68 $178 $181 forward $115 $-1 #
coedge $-1 $68 $106 $174 $182 reversed $115 $-1 #
loop $-1 $-1 $113 $158 #
vertex $-1 $69 $183 #
vertex $-1 $69 $184 #
straight-curve $-1 70.063173314615312 0 19.912683212083802 0 1 0 I I #
face $-1 $185 $186 $16 $-1 $187 forward single #
loop $-1 $-1 $188 $70 #
plane-surface $-1 -70.063173314615312 0 0 1 0 0 0 0 -1 forward_v I I I I #
coedge $-1 $129 $189 $131 $190 forward $71 $-1 #
coedge $-1 $73 $131 $191 $192 reversed $45 $-1 #
coedge $-1 $193 $127 $73 $125 forward $194 $-1 #
edge $-1 $133 3.0305965008850801 $195 12.264923307760844 $124 $196 forward 7 unknown #
coedge $-1 $75 $74 $188 $197 reversed $29 $-1 #
coedge $-1 $124 $198 $74 $128 forward $194 $-1 #
edge $-1 $199 -38.960921729492114 $133 -23.243581440754284 $127 $200 forward 7 unknown #
coedge $-1 $201 $122 $75 $130 forward $71 $-1 #
edge $-1 $132 23.243581440754284 $202 38.960921729492114 $129 $203 forward 7 unknown #
coedge $-1 $123 $76 $122 $190 reversed $45 $-1 #
vertex $-1 $130 $204 #
vertex $-1 $128 $205 #
straight-curve $-1 -54.345833025877482 0 10.678356405208042 0 -1 0 I I #
face $-1 $-1 $206 $17 $-1 $207 reversed single #
loop $-1 $-1 $84 $78 #
plane-surface $-1 0 0 19.912683212083802 0 0 1 1 0 0 forward_v I I I I #
coedge $-1 $208 $209 $210 $211 reversed $79 $-1 #
coedge $-1 $212 $81 $83 $145 forward $49 $-1 #
coedge $-1 $81 $212 $208 $213 forward $49 $-1 #
coedge $-1 $210 $84 $81 $142 forward $136 $-1 #
edge $-1 $148 -8.5754970885316695 $214 9.0713334033189739 $141 $215 forward 7 unknown #
coedge $-1 $216 $217 $82 $144 forward $206 $-1 #
edge $-1 $218 -91.710506373778585 $147 -81.466342767662752 $143 $219 forward 7 unknown #
edge $-1 $148 120.7947914994574 $218 140.12634662923062 $83 $220 forward 7 unknown #
coedge $-1 $84 $210 $216 $221 forward $136 $-1 #
vertex $-1 $144 $222 #
vertex $-1 $85 $223 #
straight-curve $-1 12.742471966457131 8.3275789311380173 19.912683212083806 -1 0 0 I I #
coedge $-1 $150 $150 $-1 $224 reversed $88 $-1 #
edge $-1 $225 0 $225 6.2831853071796004 $89 $226 forward 7 unknown #
vertex $-1 $92 $227 #
ellipse-curve $-1 61.866129095102529 -4.2772999916124377 14.790601409025873 0.52991927123019833 0 0.84804809178421925 2.1201202294605483 0 -1.3247981780754958 1 I I #
coedge $-1 $154 $154 $-1 $228 reversed $95 $-1 #
edge $-1 $229 0 $229 6.2831853071796004 $96 $230 forward 7 unknown #
vertex $-1 $99 $231 #
ellipse-curve $-1 61.866129095102529 3.285627362037836 14.790601409025873 0.52991927123019833 0 0.84804809178421925 2.1201202294605483 0 -1.3247981780754958 1 I I #
face $-1 $-1 $115 $15 $-1 $232 reversed single #
loop $-1 $-1 $174 $100 #
plane-surface $-1 0 42.995828169955978 0 0 -1 0 0 0 -1 forward_v I I I I #
coedge $-1 $233 $172 $175 $234 forward $101 $-1 #
coedge $-1 $178 $103 $104 $166 reversed $63 $-1 #
coedge $-1 $172 $233 $103 $164 reversed $101 $-1 #
edge $-1 $179 -19.912683212083802 $235 19.912683212083802 $163 $236 forward 7 unknown #
coedge $-1 $105 $104 $233 $237 forward $41 $-1 #
edge $-1 $170 -70.063173314615312 $235 70.063173314615312 $162 $238 forward 7 unknown #
coedge $-1 $175 $174 $105 $168 reversed $159 $-1 #
edge $-1 $239 -70.063173314615312 $169 70.063173314615312 $167 $240 forward 7 unknown #
vertex $-1 $107 $241 #
vertex $-1 $181 $242 #
straight-curve $-1 70.063173314615312 0 -19.912683212083802 0 -1 0 I I #
coedge $-1 $161 $163 $108 $173 reversed $101 $-1 #
edge $-1 $176 -42.995828169955978 $179 42.995828169955978 $172 $243 forward 7 unknown #
coedge $-1 $167 $109 $114 $182 forward $159 $-1 #
coedge $-1 $109 $167 $161 $234 reversed $159 $-1 #
vertex $-1 $110 $244 #
straight-curve $-1 0 42.995828169955978 19.912683212083802 -1 0 0 I I #
coedge $-1 $111 $162 $113 $181 reversed $63 $-1 #
vertex $-1 $173 $245 #
straight-curve $-1 0 -42.995828169955978 19.912683212083802 1 0 0 I I #
edge $-1 $116 -19.912683212083802 $170 19.912683212083802 $113 $246 forward 7 unknown #
edge $-1 $117 -19.912683212083802 $169 19.912683212083802 $114 $247 forward 7 unknown #
point $-1 70.063173314615312 -42.995828169955978 19.912683212083802 #
point $-1 70.063173314615312 42.995828169955978 19.912683212083802 #
face $-1 $-1 $194 $16 $-1 $248 reversed single #
loop $-1 $-1 $191 $119 #
plane-surface $-1 0 0 19.912683212083802 0 0 1 1 0 0 forward_v I I I I #
coedge $-1 $249 $250 $126 $197 forward $120 $-1 #
coedge $-1 $122 $201 $251 $252 reversed $71 $-1 #
edge $-1 $253 -12.264923307760844 $132 -3.0305965008850801 $122 $254 forward 7 unknown #
coedge $-1 $251 $255 $123 $192 forward $186 $-1 #
edge $-1 $195 -42.995828169955978 $253 42.995828169955978 $191 $256 forward 7 unknown #
coedge $-1 $198 $124 $255 $257 reversed $194 $-1 #
loop $-1 $-1 $124 $185 #
vertex $-1 $125 $258 #
straight-curve $-1 -54.345833025877482 -42.995828169955978 7.647759904322962 0 0 1 I I #
edge $-1 $202 -42.995828169955978 $199 42.995828169955978 $188 $259 forward 7 unknown #
coedge $-1 $127 $193 $249 $260 forward $194 $-1 #
vertex $-1 $197 $261 #
straight-curve $-1 -31.102251585123199 -42.995828169955978 10.678356405208042 1 0 0 I I #
coedge $-1 $189 $129 $250 $262 reversed $71 $-1 #
vertex $-1 $197 $263 #
straight-curve $-1 -31.102251585123199 42.995828169955978 10.678356405208042 -1 0 0 I I #
point $-1 -54.345833025877482 42.995828169955978 10.678356405208042 #
point $-1 -54.345833025877482 -42.995828169955978 10.678356405208042 #
loop $-1 $-1 $143 $135 #
plane-surface $-1 70.063173314615312 0 0 -1 0 0 0 0 1 forward_v I I I I #
coedge $-1 $209 $138 $140 $213 reversed $79 $-1 #
coedge $-1 $138 $208 $264 $265 reversed $79 $-1 #
coedge $-1 $146 $141 $138 $211 forward $136 $-1 #
edge $-1 $214 40.926612909132558 $266 57.320701348158181 $210 $267 forward 7 unknown #
coedge $-1 $140 $139 $217 $268 reversed $49 $-1 #
edge $-1 $269 -140.12634662923062 $214 -120.7947914994574 $208 $270 forward 7 unknown #
vertex $-1 $142 $271 #
straight-curve $-1 53.669084875589718 -0.24791815739365219 19.912683212083792 0 -1 0 I I #
coedge $-1 $264 $143 $146 $221 reversed $206 $-1 #
coedge $-1 $143 $264 $212 $268 forward $206 $-1 #
vertex $-1 $144 $272 #
straight-curve $-1 70.063173314615312 8.3275789311380173 101.37902597974656 0 0 1 I I #
straight-curve $-1 -48.770707552997791 8.3275789311380173 83.924171091880027 0.84804809178421925 0 -0.52991927123019833 I I #
edge $-1 $266 -9.3192515607126261 $147 8.3275789311380173 $216 $273 forward 7 unknown #
point $-1 70.063173314615312 8.3275789311380173 19.912683212083802 #
point $-1 53.669084875589689 8.3275789311380173 19.912683212083806 #
edge $-1 $274 1 $274 0 $150 $-1 forward 7 unknown #
vertex $-1 $151 $275 #
ellipse-curve $-1 57.530606067984721 -4.2772999916124377 7.8523143346601296 0.52991927123019833 0 0.84804809178421925 2.1201202294605483 0 -1.3247981780754958 1 I I #
point $-1 63.98624932456309 -4.2772999916124377 13.465803230950399 #
edge $-1 $276 1 $276 0 $154 $-1 forward 7 unknown #
vertex $-1 $155 $277 #
ellipse-curve $-1 57.530606067984721 3.285627362037836 7.8523143346601296 0.52991927123019833 0 0.84804809178421925 2.1201202294605483 0 -1.3247981780754958 1 I I #
point $-1 63.98624932456309 3.285627362037836 13.465803230950399 #
plane-surface $-1 70.063173314615312 0 0 -1 0 0 0 0 1 forward_v I I I I #
coedge $-1 $163 $161 $165 $237 reversed $101 $-1 #
edge $-1 $176 -19.912683212083802 $239 19.912683212083802 $175 $278 forward 7 unknown #
vertex $-1 $237 $279 #
straight-curve $-1 -70.063173314615312 -42.995828169955978 0 0 0 -1 I I #
edge $-1 $235 -42.995828169955978 $239 42.995828169955978 $233 $280 forward 7 unknown #
straight-curve $-1 0 -42.995828169955978 -19.912683212083802 -1 0 0 I I #
vertex $-1 $168 $281 #
straight-curve $-1 0 42.995828169955978 -19.912683212083802 1 0 0 I I #
point $-1 70.063173314615312 42.995828169955978 -19.912683212083802 #
point $-1 70.063173314615312 -42.995828169955978 -19.912683212083802 #
straight-curve $-1 -70.063173314615312 0 19.912683212083802 0 -1 0 I I #
point $-1 -70.063173314615312 42.995828169955978 19.912683212083802 #
point $-1 -70.063173314615312 -42.995828169955978 19.912683212083802 #
straight-curve $-1 70.063173314615312 -42.995828169955978 0 0 0 -1 I I #
straight-curve $-1 70.063173314615312 42.995828169955978 0 0 0 -1 I I #
plane-surface $-1 0 -42.995828169955978 0 0 1 0 0 0 1 forward_v I I I I #
coedge $-1 $282 $188 $198 $260 reversed $120 $-1 #
coedge $-1 $188 $282 $201 $262 forward $120 $-1 #
coedge $-1 $283 $191 $189 $252 forward $186 $-1 #
edge $-1 $253 54.345833025877482 $284 70.063173314615312 $189 $285 forward 7 unknown #
vertex $-1 $252 $286 #
straight-curve $-1 -54.345833025877482 42.995828169955978 7.647759904322962 0 0 -1 I I #
coedge $-1 $191 $283 $193 $257 forward $186 $-1 #
straight-curve $-1 -54.345833025877482 0 19.912683212083802 0 1 0 I I #
edge $-1 $287 -70.063173314615312 $195 -54.345833025877482 $193 $288 forward 7 unknown #
point $-1 -54.345833025877482 -42.995828169955978 19.912683212083806 #
straight-curve $-1 -70.063173314615312 0 10.678356405208042 0 -1 0 I I #
edge $-1 $287 -19.912683212083802 $199 -10.678356405208042 $249 $289 forward 7 unknown #
point $-1 -70.063173314615312 -42.995828169955978 10.678356405208042 #
edge $-1 $284 -19.912683212083802 $202 -10.678356405208042 $201 $290 forward 7 unknown #
point $-1 -70.063173314615312 42.995828169955978 10.678356405208042 #
coedge $-1 $217 $216 $209 $265 forward $206 $-1 #
edge $-1 $266 81.466342767662752 $269 91.710506373778585 $264 $291 forward 7 unknown #
vertex $-1 $221 $292 #
straight-curve $-1 12.742471966457131 -9.3192515607126261 19.912683212083806 1 0 0 I I #
edge $-1 $269 -9.0713334033189739 $218 8.5754970885316695 $217 $293 forward 7 unknown #
vertex $-1 $268 $294 #
straight-curve $-1 -48.770707552997791 -9.3192515607126261 83.924171091880027 -0.84804809178421925 0 0.52991927123019833 I I #
point $-1 53.669084875589689 -9.3192515607126261 19.912683212083806 #
point $-1 70.063173314615298 8.3275789311380173 9.6685196059679726 #
straight-curve $-1 70.063173314615312 0 19.912683212083802 0 1 0 I I #
vertex $-1 $224 $295 #
point $-1 59.650726297445267 -4.2772999916124377 6.5275161565846336 #
vertex $-1 $228 $296 #
point $-1 59.650726297445267 3.285627362037836 6.5275161565846336 #
straight-curve $-1 -70.063173314615312 42.995828169955978 0 0 0 -1 I I #
point $-1 -70.063173314615312 -42.995828169955978 -19.912683212083802 #
straight-curve $-1 -70.063173314615312 0 -19.912683212083802 0 1 0 I I #
point $-1 -70.063173314615312 42.995828169955978 -19.912683212083802 #
coedge $-1 $250 $249 $283 $297 reversed $120 $-1 #
coedge $-1 $255 $251 $282 $297 forward $186 $-1 #
vertex $-1 $252 $298 #
straight-curve $-1 0 42.995828169955978 19.912683212083802 -1 0 0 I I #
point $-1 -54.345833025877482 42.995828169955978 19.912683212083806 #
vertex $-1 $297 $299 #
straight-curve $-1 0 -42.995828169955978 19.912683212083802 1 0 0 I I #
straight-curve $-1 -70.063173314615312 -42.995828169955978 0 0 0 -1 I I #
straight-curve $-1 -70.063173314615312 42.995828169955978 0 0 0 -1 I I #
straight-curve $-1 70.063173314615312 -9.3192515607126261 101.37902597974656 0 0 -1 I I #
point $-1 70.063173314615312 -9.3192515607126261 19.912683212083802 #
straight-curve $-1 70.063173314615327 -0.24791815739365219 9.6685196059679583 0 1 0 I I #
point $-1 70.063173314615298 -9.3192515607126261 9.6685196059679726 #
point $-1 56.205807889909224 -4.2772999916124377 5.7321941051995813 #
point $-1 56.205807889909224 3.285627362037836 5.7321941051995813 #
edge $-1 $284 -42.995828169955978 $287 42.995828169955978 $282 $300 forward 7 unknown #
point $-1 -70.063173314615312 42.995828169955978 19.912683212083802 #
point $-1 -70.063173314615312 -42.995828169955978 19.912683212083802 #
straight-curve $-1 -70.063173314615312 0 19.912683212083802 0 -1 0 I I #
End-of-ACIS-data 