500 0 18 0           
7 Unknown 11 ACIS 5.0 NT 24 Fri Mar 26 01:34:22 1999 
-1 9.9999999999999995e-007 1e-010 
body $-1 $18 $-1 $19 #
body $-1 $20 $-1 $21 #
body $-1 $22 $-1 $23 #
body $-1 $24 $-1 $25 #
body $-1 $26 $-1 $27 #
body $-1 $28 $-1 $29 #
body $-1 $30 $-1 $31 #
body $-1 $32 $-1 $33 #
body $-1 $34 $-1 $35 #
body $-1 $36 $-1 $37 #
body $-1 $38 $-1 $39 #
body $-1 $40 $-1 $41 #
body $-1 $42 $-1 $43 #
body $-1 $44 $-1 $45 #
body $-1 $46 $-1 $47 #
body $-1 $48 $-1 $49 #
body $-1 $50 $-1 $51 #
body $-1 $52 $-1 $53 #
lump $-1 $-1 $54 $0 #
transform $-1 1 0 0 0 1 0 0 0 1 41.102328562273016 26.165651796376771 8.5800371976845451 1 rotate no_reflect no_shear #
lump $-1 $-1 $55 $1 #
transform $-1 1 0 0 0 1 0 0 0 1 41.102328562273016 26.165651796376771 8.5800371976845451 1 rotate no_reflect no_shear #
lump $-1 $-1 $56 $2 #
transform $-1 1 0 0 0 1 0 0 0 1 41.102328562273016 26.165651796376771 8.5800371976845451 1 rotate no_reflect no_shear #
lump $-1 $-1 $57 $3 #
transform $-1 1 0 0 0 1 0 0 0 1 41.102328562273016 26.165651796376771 8.5800371976845451 1 rotate no_reflect no_shear #
lump $-1 $-1 $58 $4 #
transform $-1 1 0 0 0 1 0 0 0 1 41.102328562273016 26.165651796376771 8.5800371976845451 1 rotate no_reflect no_shear #
lump $-1 $-1 $59 $5 #
transform $-1 1 0 0 0 1 0 0 0 1 41.102328562273016 26.165651796376771 8.5800371976845451 1 rotate no_reflect no_shear #
lump $-1 $-1 $60 $6 #
transform $-1 1 0 0 0 1 0 0 0 1 41.102328562273016 26.165651796376771 8.5800371976845451 1 rotate no_reflect no_shear #
lump $-1 $-1 $61 $7 #
transform $-1 1 0 0 0 1 0 0 0 1 41.102328562273016 26.165651796376771 8.5800371976845451 1 rotate no_reflect no_shear #
lump $-1 $-1 $62 $8 #
transform $-1 1 0 0 0 1 0 0 0 1 41.102328562273016 26.165651796376771 8.5800371976845451 1 rotate no_reflect no_shear #
lump $-1 $-1 $63 $9 #
transform $-1 1 0 0 0 1 0 0 0 1 41.102328562273016 26.165651796376771 8.5800371976845451 1 rotate no_reflect no_shear #
lump $-1 $-1 $64 $10 #
transform $-1 1 0 0 0 1 0 0 0 1 41.102328562273016 26.165651796376771 8.5800371976845451 1 rotate no_reflect no_shear #
lump $-1 $-1 $65 $11 #
transform $-1 1 0 0 0 1 0 0 0 1 41.102328562273016 26.165651796376771 8.5800371976845451 1 rotate no_reflect no_shear #
lump $-1 $-1 $66 $12 #
transform $-1 1 0 0 0 1 0 0 0 1 41.102328562273016 26.165651796376771 8.5800371976845451 1 rotate no_reflect no_shear #
lump $-1 $-1 $67 $13 #
transform $-1 1 0 0 0 1 0 0 0 1 41.102328562273016 26.165651796376771 8.5800371976845451 1 rotate no_reflect no_shear #
lump $-1 $-1 $68 $14 #
transform $-1 1 0 0 0 1 0 0 0 1 41.102328562273016 26.165651796376771 8.5800371976845451 1 rotate no_reflect no_shear #
lump $-1 $-1 $69 $15 #
transform $-1 1 0 0 0 1 0 0 0 1 41.102328562273016 26.165651796376771 8.5800371976845451 1 rotate no_reflect no_shear #
lump $-1 $-1 $70 $16 #
transform $-1 1 0 0 0 1 0 0 0 1 41.102328562273016 26.165651796376771 8.5800371976845451 1 rotate no_reflect no_shear #
lump $-1 $-1 $71 $17 #
transform $-1 1 0 0 0 1 0 0 0 1 41.102328562273016 26.165651796376771 8.5800371976845451 1 rotate no_reflect no_shear #
shell $-1 $-1 $-1 $72 $-1 $18 #
shell $-1 $-1 $-1 $73 $-1 $20 #
shell $-1 $-1 $-1 $74 $-1 $22 #
shell $-1 $-1 $-1 $75 $-1 $24 #
shell $-1 $-1 $-1 $76 $-1 $26 #
shell $-1 $-1 $-1 $77 $-1 $28 #
shell $-1 $-1 $-1 $78 $-1 $30 #
shell $-1 $-1 $-1 $79 $-1 $32 #
shell $-1 $-1 $-1 $80 $-1 $34 #
shell $-1 $-1 $-1 $81 $-1 $36 #
shell $-1 $-1 $-1 $82 $-1 $38 #
shell $-1 $-1 $-1 $83 $-1 $40 #
shell $-1 $-1 $-1 $84 $-1 $42 #
shell $-1 $-1 $-1 $85 $-1 $44 #
shell $-1 $-1 $-1 $86 $-1 $46 #
shell $-1 $-1 $-1 $87 $-1 $48 #
shell $-1 $-1 $-1 $88 $-1 $50 #
shell $-1 $-1 $-1 $89 $-1 $52 #
face $-1 $90 $91 $54 $-1 $92 forward single #
face $-1 $93 $94 $55 $-1 $95 forward single #
face $-1 $96 $97 $56 $-1 $98 reversed single #
face $-1 $99 $100 $57 $-1 $101 forward single #
face $-1 $102 $103 $58 $-1 $104 forward single #
face $-1 $105 $106 $59 $-1 $107 reversed single #
face $-1 $108 $109 $60 $-1 $110 forward single #
face $-1 $111 $112 $61 $-1 $113 forward single #
face $-1 $114 $115 $62 $-1 $116 reversed single #
face $-1 $117 $118 $63 $-1 $119 forward single #
face $-1 $120 $121 $64 $-1 $122 forward single #
face $-1 $123 $124 $65 $-1 $125 reversed single #
face $-1 $126 $127 $66 $-1 $128 forward single #
face $-1 $129 $130 $67 $-1 $131 forward single #
face $-1 $132 $133 $68 $-1 $134 reversed single #
face $-1 $135 $136 $69 $-1 $137 forward single #
face $-1 $138 $139 $70 $-1 $140 reversed single #
face $-1 $141 $142 $71 $-1 $143 forward single #
face $-1 $144 $145 $54 $-1 $146 reversed single #
loop $-1 $-1 $147 $72 #
plane-surface $-1 0 0 8.5800371976845451 0 0 1 1 0 0 forward_v I I I I #
face $-1 $148 $149 $55 $-1 $150 reversed single #
loop $-1 $-1 $151 $73 #
plane-surface $-1 0 -23.192785561530251 3.6331742076193003 0 0 1 1 0 0 forward_v I I I I #
face $-1 $152 $153 $56 $-1 $154 reversed single #
loop $-1 $-1 $155 $74 #
plane-surface $-1 55.270243436088379 -14.710393464712034 119.50117459606587 0 1 0 0.78801076186113728 0 0.61566146476048833 forward_v I I I I #
face $-1 $156 $157 $57 $-1 $158 forward single #
loop $-1 $159 $160 $75 #
cone-surface $-1 38.909243715041157 -12.971288630771054 5.9964060439877311 -0.78801076186113728 0 -0.61566146476048833 0.30783073238024417 0 -0.39400538093056864 1 I I 0 1 0.5 forward I I I I #
face $-1 $161 $162 $58 $-1 $163 forward single #
loop $-1 $164 $165 $76 #
cone-surface $-1 38.909243715041157 -10.362631379859586 5.9964060439877311 -0.78801076186113728 0 -0.61566146476048833 0.30783073238024417 0 -0.39400538093056864 1 I I 0 1 0.5 forward I I I I #
face $-1 $166 $167 $59 $-1 $168 reversed single #
loop $-1 $-1 $169 $77 #
plane-surface $-1 55.270243436088379 -4.9505093046041431 119.50117459606587 0 1 0 0.78801076186113728 0 0.61566146476048833 forward_v I I I I #
face $-1 $170 $171 $60 $-1 $172 forward single #
loop $-1 $173 $174 $78 #
cone-surface $-1 38.909243715041157 -3.2114044706631617 5.9964060439877311 -0.78801076186113728 0 -0.61566146476048833 0.30783073238024417 0 -0.39400538093056864 1 I I 0 1 0.5 forward I I I I #
face $-1 $175 $176 $61 $-1 $177 forward single #
loop $-1 $178 $179 $79 #
cone-surface $-1 38.909243715041157 -0.60274721975169143 5.9964060439877311 -0.78801076186113728 0 -0.61566146476048833 0.30783073238024417 0 -0.39400538093056864 1 I I 0 1 0.5 forward I I I I #
face $-1 $180 $181 $62 $-1 $182 reversed single #
loop $-1 $-1 $183 $80 #
plane-surface $-1 55.270243436088379 4.8093748555037514 119.50117459606587 0 1 0 0.78801076186113728 0 0.61566146476048833 forward_v I I I I #
face $-1 $184 $185 $63 $-1 $186 forward single #
loop $-1 $187 $188 $81 #
cone-surface $-1 38.909243715041157 6.5484796894447328 5.9964060439877311 -0.78801076186113728 0 -0.61566146476048833 0.30783073238024417 0 -0.39400538093056864 1 I I 0 1 0.5 forward I I I I #
face $-1 $189 $190 $64 $-1 $191 forward single #
loop $-1 $192 $193 $82 #
cone-surface $-1 38.909243715041157 9.1571369403562031 5.9964060439877311 -0.78801076186113728 0 -0.61566146476048833 0.30783073238024417 0 -0.39400538093056864 1 I I 0 1 0.5 forward I I I I #
face $-1 $194 $195 $65 $-1 $196 reversed single #
loop $-1 $-1 $197 $83 #
plane-surface $-1 55.270243436088379 14.569259015611646 119.50117459606587 0 1 0 0.78801076186113728 0 0.61566146476048833 forward_v I I I I #
face $-1 $198 $199 $66 $-1 $200 forward single #
loop $-1 $201 $202 $84 #
cone-surface $-1 38.909243715041157 16.308363849552627 5.9964060439877311 -0.78801076186113728 0 -0.61566146476048833 0.30783073238024417 0 -0.39400538093056864 1 I I 0 1 0.5 forward I I I I #
face $-1 $203 $204 $67 $-1 $205 forward single #
loop $-1 $206 $207 $85 #
cone-surface $-1 38.909243715041157 18.917021100464098 5.9964060439877311 -0.78801076186113728 0 -0.61566146476048833 0.30783073238024417 0 -0.39400538093056864 1 I I 0 1 0.5 forward I I I I #
face $-1 $208 $209 $68 $-1 $210 reversed single #
loop $-1 $-1 $211 $86 #
plane-surface $-1 -106.75388750924375 -8.9295821914918694 49.530748307713779 0 1 0 -0.79863551827123203 0 0.60181501223851219 forward_v I I I I #
face $-1 $212 $213 $69 $-1 $214 forward single #
loop $-1 $215 $216 $87 #
cone-surface $-1 -37.233579788341835 -5.2679279163771469 3.8234622298166143 0.79863551827123203 0 -0.60181501223851219 0.60181501223851219 0 0.79863551827123203 1 I I 0 1 1 forward I I I I #
face $-1 $217 $218 $70 $-1 $219 reversed single #
loop $-1 $-1 $220 $88 #
plane-surface $-1 -106.75388750924375 14.263203370038381 49.530748307713779 0 1 0 -0.79863551827123203 0 0.60181501223851219 forward_v I I I I #
face $-1 $221 $222 $71 $-1 $223 forward single #
loop $-1 $224 $225 $89 #
cone-surface $-1 -37.233579788341835 17.924857645153104 3.8234622298166143 0.79863551827123203 0 -0.60181501223851219 0.60181501223851219 0 0.79863551827123203 1 I I 0 1 1 forward I I I I #
face $-1 $226 $227 $54 $-1 $228 reversed single #
loop $-1 $-1 $229 $90 #
plane-surface $-1 0 0 -8.5800371976845451 0 0 1 1 0 0 forward_v I I I I #
coedge $-1 $230 $231 $232 $233 forward $91 $-1 #
face $-1 $234 $235 $55 $-1 $236 reversed single #
loop $-1 $-1 $237 $93 #
plane-surface $-1 0 -23.192785561530251 -0.97219028181934997 0 0 1 1 0 0 forward_v I I I I #
coedge $-1 $238 $239 $240 $241 reversed $94 $-1 #
face $-1 $242 $243 $56 $-1 $244 reversed single #
loop $-1 $-1 $245 $96 #
plane-surface $-1 -9.5079110531587077 -11.666960005315321 68.890934980634142 0.78801076186113728 0 0.61566146476048833 0.61566146476048833 0 -0.78801076186113728 forward_v I I I I #
coedge $-1 $246 $247 $248 $249 reversed $97 $-1 #
face $-1 $-1 $250 $57 $-1 $251 forward single #
loop $-1 $252 $253 $99 #
cone-surface $-1 38.264257856389918 -12.971288630771054 5.4924878772495465 -0.78801076186113728 0 -0.61566146476048833 0.15391536619012208 0 -0.19700269046528432 1 I I -0.70710678118654746 0.70710678118654746 0.25 forward I I I I #
loop $-1 $-1 $254 $75 #
coedge $-1 $160 $160 $255 $256 reversed $100 $-1 #
face $-1 $-1 $257 $58 $-1 $258 forward single #
loop $-1 $259 $260 $102 #
cone-surface $-1 38.264257856389918 -10.362631379859586 5.4924878772495465 -0.78801076186113728 0 -0.61566146476048833 0.15391536619012208 0 -0.19700269046528432 1 I I -0.70710678118654746 0.70710678118654746 0.25 forward I I I I #
loop $-1 $-1 $261 $76 #
coedge $-1 $165 $165 $262 $263 reversed $103 $-1 #
face $-1 $264 $265 $59 $-1 $266 reversed single #
loop $-1 $-1 $267 $105 #
plane-surface $-1 -9.5079110531587077 -1.9070758452074301 68.890934980634142 0.78801076186113728 0 0.61566146476048833 0.61566146476048833 0 -0.78801076186113728 forward_v I I I I #
coedge $-1 $268 $269 $270 $271 reversed $106 $-1 #
face $-1 $-1 $272 $60 $-1 $273 forward single #
loop $-1 $274 $275 $108 #
cone-surface $-1 38.264257856389918 -3.2114044706631617 5.4924878772495465 -0.78801076186113728 0 -0.61566146476048833 0.15391536619012208 0 -0.19700269046528432 1 I I -0.70710678118654746 0.70710678118654746 0.25 forward I I I I #
loop $-1 $-1 $276 $78 #
coedge $-1 $174 $174 $277 $278 reversed $109 $-1 #
face $-1 $-1 $279 $61 $-1 $280 forward single #
loop $-1 $281 $282 $111 #
cone-surface $-1 38.264257856389918 -0.60274721975169143 5.4924878772495465 -0.78801076186113728 0 -0.61566146476048833 0.15391536619012208 0 -0.19700269046528432 1 I I -0.70710678118654746 0.70710678118654746 0.25 forward I I I I #
loop $-1 $-1 $283 $79 #
coedge $-1 $179 $179 $284 $285 reversed $112 $-1 #
face $-1 $286 $287 $62 $-1 $288 reversed single #
loop $-1 $-1 $289 $114 #
plane-surface $-1 -9.5079110531587077 7.8528083149004644 68.890934980634142 0.78801076186113728 0 0.61566146476048833 0.61566146476048833 0 -0.78801076186113728 forward_v I I I I #
coedge $-1 $290 $291 $292 $293 reversed $115 $-1 #
face $-1 $-1 $294 $63 $-1 $295 forward single #
loop $-1 $296 $297 $117 #
cone-surface $-1 38.264257856389918 6.5484796894447328 5.4924878772495465 -0.78801076186113728 0 -0.61566146476048833 0.15391536619012208 0 -0.19700269046528432 1 I I -0.70710678118654746 0.70710678118654746 0.25 forward I I I I #
loop $-1 $-1 $298 $81 #
coedge $-1 $188 $188 $299 $300 reversed $118 $-1 #
face $-1 $-1 $301 $64 $-1 $302 forward single #
loop $-1 $303 $304 $120 #
cone-surface $-1 38.264257856389918 9.1571369403562031 5.4924878772495465 -0.78801076186113728 0 -0.61566146476048833 0.15391536619012208 0 -0.19700269046528432 1 I I -0.70710678118654746 0.70710678118654746 0.25 forward I I I I #
loop $-1 $-1 $305 $82 #
coedge $-1 $193 $193 $306 $307 reversed $121 $-1 #
face $-1 $308 $309 $65 $-1 $310 reversed single #
loop $-1 $-1 $311 $123 #
plane-surface $-1 -9.5079110531587077 17.612692475008359 68.890934980634142 0.78801076186113728 0 0.61566146476048833 0.61566146476048833 0 -0.78801076186113728 forward_v I I I I #
coedge $-1 $312 $313 $314 $315 reversed $124 $-1 #
face $-1 $-1 $316 $66 $-1 $317 forward single #
loop $-1 $318 $319 $126 #
cone-surface $-1 38.264257856389918 16.308363849552627 5.4924878772495465 -0.78801076186113728 0 -0.61566146476048833 0.15391536619012208 0 -0.19700269046528432 1 I I -0.70710678118654746 0.70710678118654746 0.25 forward I I I I #
loop $-1 $-1 $320 $84 #
coedge $-1 $202 $202 $321 $322 reversed $127 $-1 #
face $-1 $-1 $323 $67 $-1 $324 forward single #
loop $-1 $325 $326 $129 #
cone-surface $-1 38.264257856389918 18.917021100464098 5.4924878772495465 -0.78801076186113728 0 -0.61566146476048833 0.15391536619012208 0 -0.19700269046528432 1 I I -0.70710678118654746 0.70710678118654746 0.25 forward I I I I #
loop $-1 $-1 $327 $85 #
coedge $-1 $207 $207 $328 $329 reversed $130 $-1 #
face $-1 $330 $331 $68 $-1 $332 reversed single #
loop $-1 $-1 $333 $132 #
plane-surface $-1 -41.102328562273001 -5.2679279163771469 0.058751574242407401 -0.79863551827123203 0 0.60181501223851219 0.60181501223851219 0 0.79863551827123203 forward_v I I I I #
coedge $-1 $334 $335 $336 $337 reversed $133 $-1 #
face $-1 $-1 $338 $69 $-1 $339 forward single #
loop $-1 $340 $341 $135 #
cone-surface $-1 -36.176137810804782 -5.2679279163771469 3.0266225675504934 0.79863551827123203 0 -0.60181501223851219 0.3009075061192561 0 0.39931775913561601 1 I I -0.70710678118654746 0.70710678118654746 0.5 forward I I I I #
loop $-1 $-1 $342 $87 #
coedge $-1 $216 $216 $343 $344 reversed $136 $-1 #
face $-1 $345 $346 $70 $-1 $347 reversed single #
loop $-1 $-1 $348 $138 #
plane-surface $-1 -41.102328562273001 17.924857645153104 0.058751574242407401 -0.79863551827123203 0 0.60181501223851219 0.60181501223851219 0 0.79863551827123203 forward_v I I I I #
coedge $-1 $349 $350 $351 $352 reversed $139 $-1 #
face $-1 $-1 $353 $71 $-1 $354 forward single #
loop $-1 $355 $356 $141 #
cone-surface $-1 -36.176137810804782 17.924857645153104 3.0266225675504934 0.79863551827123203 0 -0.60181501223851219 0.3009075061192561 0 0.39931775913561601 1 I I -0.70710678118654746 0.70710678118654746 0.5 forward I I I I #
loop $-1 $-1 $357 $89 #
coedge $-1 $225 $225 $358 $359 reversed $142 $-1 #
face $-1 $360 $361 $54 $-1 $362 reversed single #
loop $-1 $-1 $363 $144 #
plane-surface $-1 0 -26.165651796376771 0 0 1 0 0 0 1 forward_v I I I I #
coedge $-1 $364 $365 $366 $367 forward $145 $-1 #
coedge $-1 $368 $147 $369 $370 forward $91 $-1 #
coedge $-1 $147 $368 $371 $372 forward $91 $-1 #
coedge $-1 $373 $374 $147 $233 reversed $375 $-1 #
edge $-1 $376 -26.165651796376771 $377 26.165651796376771 $232 $378 forward 7 unknown #
face $-1 $379 $380 $55 $-1 $381 reversed single #
loop $-1 $-1 $382 $148 #
plane-surface $-1 0 -20.21991932668373 1.3304919628999752 0 -1 0 0 0 -1 forward_v I I I I #
coedge $-1 $383 $384 $385 $386 reversed $149 $-1 #
coedge $-1 $387 $151 $388 $389 forward $94 $-1 #
coedge $-1 $151 $387 $390 $391 reversed $94 $-1 #
coedge $-1 $392 $393 $151 $241 forward $394 $-1 #
edge $-1 $395 8.6235265459186046 $396 14.569259015611646 $240 $397 forward 7 unknown #
face $-1 $398 $399 $56 $-1 $400 forward single #
loop $-1 $-1 $401 $152 #
plane-surface $-1 55.270243436088379 -8.6235265459186081 119.50117459606587 0 -1 0 -0.78801076186113728 0 -0.61566146476048833 forward_v I I I I #
coedge $-1 $402 $403 $404 $405 reversed $153 $-1 #
coedge $-1 $247 $155 $406 $407 reversed $97 $-1 #
coedge $-1 $155 $246 $402 $408 reversed $97 $-1 #
coedge $-1 $404 $409 $155 $249 forward $410 $-1 #
edge $-1 $411 51.170550100348386 $412 55.637806806645877 $248 $413 forward 7 unknown #
loop $-1 $-1 $255 $156 #
plane-surface $-1 -9.5079110531587077 -11.666960005315321 68.890934980634142 0.78801076186113728 0 0.61566146476048833 0.61566146476048833 0 -0.78801076186113728 forward_v I I I I #
loop $-1 $-1 $414 $99 #
coedge $-1 $253 $253 $254 $415 reversed $157 $-1 #
coedge $-1 $254 $254 $253 $415 forward $159 $-1 #
coedge $-1 $255 $255 $160 $256 forward $250 $-1 #
edge $-1 $416 0 $416 6.2831853071796004 $255 $417 forward 7 unknown #
loop $-1 $-1 $262 $161 #
plane-surface $-1 -9.5079110531587077 -11.666960005315321 68.890934980634142 0.78801076186113728 0 0.61566146476048833 0.61566146476048833 0 -0.78801076186113728 forward_v I I I I #
loop $-1 $-1 $418 $102 #
coedge $-1 $260 $260 $261 $419 reversed $162 $-1 #
coedge $-1 $261 $261 $260 $419 forward $164 $-1 #
coedge $-1 $262 $262 $165 $263 forward $257 $-1 #
edge $-1 $420 0 $420 6.2831853071796004 $262 $421 forward 7 unknown #
face $-1 $422 $423 $59 $-1 $424 reversed single #
loop $-1 $-1 $425 $166 #
plane-surface $-1 55.270243436088379 1.1363576141892828 119.50117459606587 0 -1 0 -0.78801076186113728 0 -0.61566146476048833 forward_v I I I I #
coedge $-1 $426 $427 $428 $429 reversed $167 $-1 #
coedge $-1 $269 $169 $430 $431 reversed $106 $-1 #
coedge $-1 $169 $268 $426 $432 reversed $106 $-1 #
coedge $-1 $428 $433 $169 $271 forward $423 $-1 #
edge $-1 $434 51.170550100348386 $435 55.637806806645877 $270 $436 forward 7 unknown #
loop $-1 $-1 $277 $170 #
plane-surface $-1 -9.5079110531587077 -1.9070758452074301 68.890934980634142 0.78801076186113728 0 0.61566146476048833 0.61566146476048833 0 -0.78801076186113728 forward_v I I I I #
loop $-1 $-1 $437 $108 #
coedge $-1 $275 $275 $276 $438 reversed $171 $-1 #
coedge $-1 $276 $276 $275 $438 forward $173 $-1 #
coedge $-1 $277 $277 $174 $278 forward $272 $-1 #
edge $-1 $439 0 $439 6.2831853071796004 $277 $440 forward 7 unknown #
loop $-1 $-1 $284 $175 #
plane-surface $-1 -9.5079110531587077 -1.9070758452074301 68.890934980634142 0.78801076186113728 0 0.61566146476048833 0.61566146476048833 0 -0.78801076186113728 forward_v I I I I #
loop $-1 $-1 $441 $111 #
coedge $-1 $282 $282 $283 $442 reversed $176 $-1 #
coedge $-1 $283 $283 $282 $442 forward $178 $-1 #
coedge $-1 $284 $284 $179 $285 forward $279 $-1 #
edge $-1 $443 0 $443 6.2831853071796004 $284 $444 forward 7 unknown #
face $-1 $445 $446 $62 $-1 $447 reversed single #
loop $-1 $-1 $448 $180 #
plane-surface $-1 55.270243436088379 10.896241774297177 119.50117459606587 0 -1 0 -0.78801076186113728 0 -0.61566146476048833 forward_v I I I I #
coedge $-1 $449 $450 $451 $452 reversed $181 $-1 #
coedge $-1 $291 $183 $453 $454 reversed $115 $-1 #
coedge $-1 $183 $290 $449 $455 reversed $115 $-1 #
coedge $-1 $451 $456 $183 $293 forward $446 $-1 #
edge $-1 $457 51.170550100348386 $458 55.637806806645877 $292 $459 forward 7 unknown #
loop $-1 $-1 $299 $184 #
plane-surface $-1 -9.5079110531587077 7.8528083149004644 68.890934980634142 0.78801076186113728 0 0.61566146476048833 0.61566146476048833 0 -0.78801076186113728 forward_v I I I I #
loop $-1 $-1 $460 $117 #
coedge $-1 $297 $297 $298 $461 reversed $185 $-1 #
coedge $-1 $298 $298 $297 $461 forward $187 $-1 #
coedge $-1 $299 $299 $188 $300 forward $294 $-1 #
edge $-1 $462 0 $462 6.2831853071796004 $299 $463 forward 7 unknown #
loop $-1 $-1 $306 $189 #
plane-surface $-1 -9.5079110531587077 7.8528083149004644 68.890934980634142 0.78801076186113728 0 0.61566146476048833 0.61566146476048833 0 -0.78801076186113728 forward_v I I I I #
loop $-1 $-1 $464 $120 #
coedge $-1 $304 $304 $305 $465 reversed $190 $-1 #
coedge $-1 $305 $305 $304 $465 forward $192 $-1 #
coedge $-1 $306 $306 $193 $307 forward $301 $-1 #
edge $-1 $466 0 $466 6.2831853071796004 $306 $467 forward 7 unknown #
face $-1 $468 $469 $65 $-1 $470 reversed single #
loop $-1 $-1 $471 $194 #
plane-surface $-1 55.270243436088379 20.656125934405072 119.50117459606587 0 -1 0 -0.78801076186113728 0 -0.61566146476048833 forward_v I I I I #
coedge $-1 $472 $473 $474 $475 reversed $195 $-1 #
coedge $-1 $313 $197 $476 $477 reversed $124 $-1 #
coedge $-1 $197 $312 $472 $478 reversed $124 $-1 #
coedge $-1 $474 $479 $197 $315 forward $469 $-1 #
edge $-1 $480 51.170550100348386 $481 55.637806806645877 $314 $482 forward 7 unknown #
loop $-1 $-1 $321 $198 #
plane-surface $-1 -9.5079110531587077 17.612692475008359 68.890934980634142 0.78801076186113728 0 0.61566146476048833 0.61566146476048833 0 -0.78801076186113728 forward_v I I I I #
loop $-1 $-1 $483 $126 #
coedge $-1 $319 $319 $320 $484 reversed $199 $-1 #
coedge $-1 $320 $320 $319 $484 forward $201 $-1 #
coedge $-1 $321 $321 $202 $322 forward $316 $-1 #
edge $-1 $485 0 $485 6.2831853071796004 $321 $486 forward 7 unknown #
loop $-1 $-1 $328 $203 #
plane-surface $-1 -9.5079110531587077 17.612692475008359 68.890934980634142 0.78801076186113728 0 0.61566146476048833 0.61566146476048833 0 -0.78801076186113728 forward_v I I I I #
loop $-1 $-1 $487 $129 #
coedge $-1 $326 $326 $327 $488 reversed $204 $-1 #
coedge $-1 $327 $327 $326 $488 forward $206 $-1 #
coedge $-1 $328 $328 $207 $329 forward $323 $-1 #
edge $-1 $489 0 $489 6.2831853071796004 $328 $490 forward 7 unknown #
face $-1 $491 $492 $68 $-1 $493 reversed single #
loop $-1 $-1 $494 $208 #
plane-surface $-1 -106.75388750924375 -1.6062736412624243 49.530748307713779 0 -1 0 0.79863551827123203 0 -0.60181501223851219 forward_v I I I I #
coedge $-1 $495 $496 $497 $498 reversed $209 $-1 #
coedge $-1 $335 $211 $499 $500 reversed $133 $-1 #
coedge $-1 $211 $334 $495 $501 reversed $133 $-1 #
coedge $-1 $497 $502 $211 $337 forward $503 $-1 #
edge $-1 $504 12.274615192348861 $505 18.695864303408371 $336 $506 forward 7 unknown #
loop $-1 $-1 $343 $212 #
plane-surface $-1 -41.102328562273001 -5.2679279163771469 0.058751574242407401 -0.79863551827123203 0 0.60181501223851219 0.60181501223851219 0 0.79863551827123203 forward_v I I I I #
loop $-1 $-1 $507 $135 #
coedge $-1 $341 $341 $342 $508 reversed $213 $-1 #
coedge $-1 $342 $342 $341 $508 forward $215 $-1 #
coedge $-1 $343 $343 $216 $344 forward $338 $-1 #
edge $-1 $509 0 $509 6.2831853071796004 $343 $510 forward 7 unknown #
face $-1 $511 $512 $70 $-1 $513 forward single #
loop $-1 $-1 $514 $217 #
plane-surface $-1 -106.75388750924375 21.586511920267824 49.530748307713779 0 -1 0 0.79863551827123203 0 -0.60181501223851219 forward_v I I I I #
coedge $-1 $515 $516 $517 $518 reversed $218 $-1 #
coedge $-1 $350 $220 $519 $520 reversed $139 $-1 #
coedge $-1 $220 $349 $515 $521 reversed $139 $-1 #
coedge $-1 $517 $522 $220 $352 forward $512 $-1 #
edge $-1 $523 12.274615192348861 $524 18.695864303408371 $351 $525 forward 7 unknown #
loop $-1 $-1 $358 $221 #
plane-surface $-1 -41.102328562273001 17.924857645153104 0.058751574242407401 -0.79863551827123203 0 0.60181501223851219 0.60181501223851219 0 0.79863551827123203 forward_v I I I I #
loop $-1 $-1 $526 $141 #
coedge $-1 $356 $356 $357 $527 reversed $222 $-1 #
coedge $-1 $357 $357 $356 $527 forward $224 $-1 #
coedge $-1 $358 $358 $225 $359 forward $353 $-1 #
edge $-1 $528 0 $528 6.2831853071796004 $358 $529 forward 7 unknown #
face $-1 $530 $531 $54 $-1 $532 reversed single #
loop $-1 $-1 $533 $226 #
plane-surface $-1 -41.102328562273016 0 0 1 0 0 0 0 -1 forward_v I I I I #
coedge $-1 $534 $371 $535 $536 forward $227 $-1 #
coedge $-1 $537 $229 $534 $538 forward $145 $-1 #
coedge $-1 $229 $537 $539 $540 forward $145 $-1 #
coedge $-1 $374 $373 $229 $367 reversed $375 $-1 #
edge $-1 $541 -26.165651796376771 $542 26.165651796376771 $366 $543 forward 7 unknown #
coedge $-1 $231 $230 $544 $545 forward $91 $-1 #
coedge $-1 $546 $547 $230 $370 reversed $531 $-1 #
edge $-1 $377 -41.102328562273016 $548 41.102328562273016 $369 $549 forward 7 unknown #
coedge $-1 $363 $550 $231 $372 reversed $227 $-1 #
edge $-1 $551 -41.102328562273016 $376 41.102328562273016 $371 $552 forward 7 unknown #
coedge $-1 $366 $232 $550 $553 forward $375 $-1 #
coedge $-1 $232 $366 $546 $554 reversed $375 $-1 #
loop $-1 $-1 $373 $530 #
vertex $-1 $233 $555 #
vertex $-1 $233 $556 #
straight-curve $-1 41.102328562273016 0 8.5800371976845451 0 1 0 I I #
face $-1 $557 $558 $55 $-1 $559 reversed single #
loop $-1 $-1 $560 $234 #
plane-surface $-1 -41.102328562273016 0 0 1 0 0 0 0 -1 forward_v I I I I #
coedge $-1 $561 $388 $393 $562 reversed $235 $-1 #
coedge $-1 $563 $237 $564 $565 reversed $149 $-1 #
coedge $-1 $237 $563 $561 $566 forward $149 $-1 #
coedge $-1 $393 $392 $237 $386 forward $394 $-1 #
edge $-1 $567 -14.569259015611646 $568 -8.6235265459186046 $385 $569 forward 7 unknown #
coedge $-1 $239 $238 $560 $570 reversed $94 $-1 #
coedge $-1 $382 $571 $238 $389 reversed $235 $-1 #
edge $-1 $395 -41.102328562273016 $572 41.102328562273016 $388 $573 forward 7 unknown #
coedge $-1 $574 $575 $239 $391 forward $558 $-1 #
edge $-1 $396 -41.102328562273016 $576 41.102328562273016 $390 $577 forward 7 unknown #
coedge $-1 $385 $240 $575 $578 forward $394 $-1 #
coedge $-1 $240 $385 $382 $562 forward $394 $-1 #
loop $-1 $-1 $240 $557 #
vertex $-1 $241 $579 #
vertex $-1 $578 $580 #
straight-curve $-1 41.102328562273016 -11.596392780765125 3.6331742076193003 0 -1 0 I I #
face $-1 $-1 $410 $56 $-1 $581 reversed single #
loop $-1 $-1 $582 $242 #
plane-surface $-1 0 0 8.5800371976845451 0 0 1 1 0 0 forward_v I I I I #
coedge $-1 $583 $584 $585 $586 reversed $243 $-1 #
coedge $-1 $587 $245 $247 $408 forward $153 $-1 #
coedge $-1 $245 $587 $583 $588 forward $153 $-1 #
coedge $-1 $585 $248 $245 $405 forward $410 $-1 #
edge $-1 $412 -8.8769134620543735 $589 -2.7900465432609476 $404 $590 forward 7 unknown #
coedge $-1 $591 $592 $246 $407 forward $399 $-1 #
edge $-1 $593 9.977003486137022 $411 13.467206844228826 $406 $594 forward 7 unknown #
edge $-1 $412 -82.204657124546031 $593 -76.535627052232513 $247 $595 forward 7 unknown #
coedge $-1 $248 $585 $591 $596 reversed $410 $-1 #
loop $-1 $-1 $585 $398 #
vertex $-1 $596 $597 #
vertex $-1 $249 $598 #
straight-curve $-1 41.102328562273016 -14.710393464712034 59.750587298032933 0 0 -1 I I #
coedge $-1 $414 $414 $-1 $599 reversed $252 $-1 #
edge $-1 $600 0 $600 6.2831853071796004 $253 $601 forward 7 unknown #
vertex $-1 $256 $602 #
ellipse-curve $-1 39.357226883227113 -12.971288630771054 6.3464088445357927 0.78801076186113728 0 0.61566146476048833 0.30783073238024417 0 -0.39400538093056864 1 I I #
coedge $-1 $418 $418 $-1 $603 reversed $259 $-1 #
edge $-1 $604 0 $604 6.2831853071796004 $260 $605 forward 7 unknown #
vertex $-1 $263 $606 #
ellipse-curve $-1 39.357226883227113 -10.362631379859586 6.3464088445357927 0.78801076186113728 0 0.61566146476048833 0.30783073238024417 0 -0.39400538093056864 1 I I #
face $-1 $-1 $607 $59 $-1 $608 forward single #
loop $-1 $-1 $270 $264 #
plane-surface $-1 41.102328562273016 0 0 -1 0 0 0 0 1 forward_v I I I I #
coedge $-1 $609 $610 $611 $612 reversed $265 $-1 #
coedge $-1 $613 $267 $269 $432 forward $167 $-1 #
coedge $-1 $267 $613 $609 $614 forward $167 $-1 #
coedge $-1 $611 $270 $267 $429 forward $423 $-1 #
edge $-1 $435 -3.996971382000428 $615 2.0898955367929979 $428 $616 forward 7 unknown #
coedge $-1 $617 $618 $268 $431 forward $607 $-1 #
edge $-1 $619 9.977003486137022 $434 13.467206844228826 $430 $620 forward 7 unknown #
edge $-1 $435 -82.204657124546031 $619 -76.535627052232513 $269 $621 forward 7 unknown #
coedge $-1 $270 $611 $617 $622 reversed $423 $-1 #
vertex $-1 $622 $623 #
vertex $-1 $271 $624 #
straight-curve $-1 41.102328562273016 -4.9505093046041431 59.750587298032933 0 0 -1 I I #
coedge $-1 $437 $437 $-1 $625 reversed $274 $-1 #
edge $-1 $626 0 $626 6.2831853071796004 $275 $627 forward 7 unknown #
vertex $-1 $278 $628 #
ellipse-curve $-1 39.357226883227113 -3.2114044706631617 6.3464088445357927 0.78801076186113728 0 0.61566146476048833 0.30783073238024417 0 -0.39400538093056864 1 I I #
coedge $-1 $441 $441 $-1 $629 reversed $281 $-1 #
edge $-1 $630 0 $630 6.2831853071796004 $282 $631 forward 7 unknown #
vertex $-1 $285 $632 #
ellipse-curve $-1 39.357226883227113 -0.60274721975169143 6.3464088445357927 0.78801076186113728 0 0.61566146476048833 0.30783073238024417 0 -0.39400538093056864 1 I I #
face $-1 $-1 $633 $62 $-1 $634 forward single #
loop $-1 $-1 $292 $286 #
plane-surface $-1 41.102328562273016 0 0 -1 0 0 0 0 1 forward_v I I I I #
coedge $-1 $635 $636 $637 $638 reversed $287 $-1 #
coedge $-1 $639 $289 $291 $455 forward $181 $-1 #
coedge $-1 $289 $639 $635 $640 forward $181 $-1 #
coedge $-1 $637 $292 $289 $452 forward $446 $-1 #
edge $-1 $458 0.88297069805351924 $641 6.9698376168469451 $451 $642 forward 7 unknown #
coedge $-1 $643 $644 $290 $454 forward $633 $-1 #
edge $-1 $645 9.977003486137022 $457 13.467206844228826 $453 $646 forward 7 unknown #
edge $-1 $458 -82.204657124546031 $645 -76.535627052232513 $291 $647 forward 7 unknown #
coedge $-1 $292 $637 $643 $648 reversed $446 $-1 #
vertex $-1 $648 $649 #
vertex $-1 $293 $650 #
straight-curve $-1 41.102328562273016 4.8093748555037514 59.750587298032933 0 0 -1 I I #
coedge $-1 $460 $460 $-1 $651 reversed $296 $-1 #
edge $-1 $652 0 $652 6.2831853071796004 $297 $653 forward 7 unknown #
vertex $-1 $300 $654 #
ellipse-curve $-1 39.357226883227113 6.5484796894447328 6.3464088445357927 0.78801076186113728 0 0.61566146476048833 0.30783073238024417 0 -0.39400538093056864 1 I I #
coedge $-1 $464 $464 $-1 $655 reversed $303 $-1 #
edge $-1 $656 0 $656 6.2831853071796004 $304 $657 forward 7 unknown #
vertex $-1 $307 $658 #
ellipse-curve $-1 39.357226883227113 9.1571369403562031 6.3464088445357927 0.78801076186113728 0 0.61566146476048833 0.30783073238024417 0 -0.39400538093056864 1 I I #
face $-1 $-1 $659 $65 $-1 $660 forward single #
loop $-1 $-1 $314 $308 #
plane-surface $-1 41.102328562273016 0 0 -1 0 0 0 0 1 forward_v I I I I #
coedge $-1 $661 $662 $663 $664 reversed $309 $-1 #
coedge $-1 $665 $311 $313 $478 forward $195 $-1 #
coedge $-1 $311 $665 $661 $666 forward $195 $-1 #
coedge $-1 $663 $314 $311 $475 forward $469 $-1 #
edge $-1 $481 5.7629127781074665 $667 11.849779696900892 $474 $668 forward 7 unknown #
coedge $-1 $669 $670 $312 $477 forward $659 $-1 #
edge $-1 $671 9.977003486137022 $480 13.467206844228826 $476 $672 forward 7 unknown #
edge $-1 $481 -82.204657124546031 $671 -76.535627052232513 $313 $673 forward 7 unknown #
coedge $-1 $314 $663 $669 $674 reversed $469 $-1 #
vertex $-1 $674 $675 #
vertex $-1 $315 $676 #
straight-curve $-1 41.102328562273016 14.569259015611646 59.750587298032933 0 0 -1 I I #
coedge $-1 $483 $483 $-1 $677 reversed $318 $-1 #
edge $-1 $678 0 $678 6.2831853071796004 $319 $679 forward 7 unknown #
vertex $-1 $322 $680 #
ellipse-curve $-1 39.357226883227113 16.308363849552627 6.3464088445357927 0.78801076186113728 0 0.61566146476048833 0.30783073238024417 0 -0.39400538093056864 1 I I #
coedge $-1 $487 $487 $-1 $681 reversed $325 $-1 #
edge $-1 $682 0 $682 6.2831853071796004 $326 $683 forward 7 unknown #
vertex $-1 $329 $684 #
ellipse-curve $-1 39.357226883227113 18.917021100464098 6.3464088445357927 0.78801076186113728 0 0.61566146476048833 0.30783073238024417 0 -0.39400538093056864 1 I I #
face $-1 $-1 $503 $68 $-1 $685 forward single #
loop $-1 $-1 $686 $330 #
plane-surface $-1 -41.102328562273016 0 0 1 0 0 0 0 -1 forward_v I I I I #
coedge $-1 $687 $688 $689 $690 reversed $331 $-1 #
coedge $-1 $691 $333 $335 $501 forward $209 $-1 #
coedge $-1 $333 $691 $687 $692 forward $209 $-1 #
coedge $-1 $689 $336 $333 $498 forward $503 $-1 #
edge $-1 $505 -6.295618233303296 $693 1.0276903169261491 $497 $694 forward 7 unknown #
coedge $-1 $695 $696 $334 $500 forward $492 $-1 #
edge $-1 $697 -24.7066225796145 $504 -16.185336956172343 $499 $698 forward 7 unknown #
edge $-1 $505 -10.669805472573715 $697 2.3614502601449494e-014 $335 $699 forward 7 unknown #
coedge $-1 $336 $689 $695 $700 forward $503 $-1 #
loop $-1 $-1 $689 $491 #
vertex $-1 $500 $701 #
vertex $-1 $337 $702 #
straight-curve $-1 -53.376943754621877 -8.9295821914918694 8.5800371976845469 1 0 0 I I #
coedge $-1 $507 $507 $-1 $703 reversed $340 $-1 #
edge $-1 $704 0 $704 6.2831853071796004 $341 $705 forward 7 unknown #
vertex $-1 $344 $706 #
ellipse-curve $-1 -37.891704006743261 -5.2679279163771469 4.31939438596347 -0.79863551827123203 0 0.60181501223851219 0.60181501223851219 0 0.79863551827123203 1 I I #
face $-1 $-1 $707 $70 $-1 $708 reversed single #
loop $-1 $-1 $351 $345 #
plane-surface $-1 0 0 8.5800371976845451 0 0 1 1 0 0 forward_v I I I I #
coedge $-1 $709 $710 $711 $712 reversed $346 $-1 #
coedge $-1 $713 $348 $350 $521 forward $218 $-1 #
coedge $-1 $348 $713 $709 $714 forward $218 $-1 #
coedge $-1 $711 $351 $348 $518 forward $512 $-1 #
edge $-1 $524 5.3007745474618293 $715 12.624083097691273 $517 $716 forward 7 unknown #
coedge $-1 $717 $718 $349 $520 forward $707 $-1 #
edge $-1 $719 -24.7066225796145 $523 -16.185336956172343 $519 $720 forward 7 unknown #
edge $-1 $524 -10.669805472573715 $719 2.3614502601449494e-014 $350 $721 forward 7 unknown #
coedge $-1 $351 $711 $717 $722 forward $512 $-1 #
vertex $-1 $352 $723 #
vertex $-1 $352 $724 #
straight-curve $-1 -53.376943754621877 14.263203370038381 8.5800371976845469 1 0 0 I I #
coedge $-1 $526 $526 $-1 $725 reversed $355 $-1 #
edge $-1 $726 0 $726 6.2831853071796004 $356 $727 forward 7 unknown #
vertex $-1 $359 $728 #
ellipse-curve $-1 -37.891704006743261 17.924857645153104 4.31939438596347 -0.79863551827123203 0 0.60181501223851219 0.60181501223851219 0 0.79863551827123203 1 I I #
face $-1 $-1 $375 $54 $-1 $729 reversed single #
loop $-1 $-1 $546 $360 #
plane-surface $-1 0 26.165651796376771 0 0 -1 0 0 0 -1 forward_v I I I I #
coedge $-1 $730 $544 $547 $731 forward $361 $-1 #
coedge $-1 $550 $363 $364 $538 reversed $227 $-1 #
coedge $-1 $544 $730 $363 $536 reversed $361 $-1 #
edge $-1 $551 -8.5800371976845451 $732 8.5800371976845451 $535 $733 forward 7 unknown #
coedge $-1 $365 $364 $730 $734 forward $145 $-1 #
edge $-1 $542 -41.102328562273016 $732 41.102328562273016 $534 $735 forward 7 unknown #
coedge $-1 $547 $546 $365 $540 reversed $531 $-1 #
edge $-1 $736 -41.102328562273016 $541 41.102328562273016 $539 $737 forward 7 unknown #
vertex $-1 $367 $738 #
vertex $-1 $553 $739 #
straight-curve $-1 41.102328562273016 0 -8.5800371976845451 0 -1 0 I I #
coedge $-1 $533 $535 $368 $545 reversed $361 $-1 #
edge $-1 $548 -26.165651796376771 $551 26.165651796376771 $544 $740 forward 7 unknown #
coedge $-1 $539 $369 $374 $554 forward $531 $-1 #
coedge $-1 $369 $539 $533 $731 reversed $531 $-1 #
vertex $-1 $370 $741 #
straight-curve $-1 0 26.165651796376771 8.5800371976845451 -1 0 0 I I #
coedge $-1 $371 $534 $373 $553 reversed $227 $-1 #
vertex $-1 $545 $742 #
straight-curve $-1 0 -26.165651796376771 8.5800371976845451 1 0 0 I I #
edge $-1 $376 -8.5800371976845451 $542 8.5800371976845451 $373 $743 forward 7 unknown #
edge $-1 $377 -8.5800371976845451 $541 8.5800371976845451 $374 $744 forward 7 unknown #
point $-1 41.102328562273016 -26.165651796376771 8.5800371976845451 #
point $-1 41.102328562273016 26.165651796376771 8.5800371976845451 #
face $-1 $-1 $394 $55 $-1 $745 reversed single #
loop $-1 $-1 $390 $379 #
plane-surface $-1 0 -26.165651796376771 0 0 1 0 0 0 1 forward_v I I I I #
coedge $-1 $746 $747 $387 $570 forward $380 $-1 #
coedge $-1 $571 $382 $384 $566 reversed $235 $-1 #
edge $-1 $568 -1.6374362632693376 $395 2.9679282261693127 $393 $748 forward 7 unknown #
coedge $-1 $384 $383 $749 $750 reversed $149 $-1 #
coedge $-1 $575 $574 $383 $565 forward $558 $-1 #
edge $-1 $751 -41.102328562273016 $567 41.102328562273016 $564 $752 forward 7 unknown #
edge $-1 $753 -41.102328562273016 $568 41.102328562273016 $561 $754 forward 7 unknown #
vertex $-1 $565 $755 #
vertex $-1 $386 $756 #
straight-curve $-1 41.102328562273016 -11.596392780765125 -0.97219028181934997 0 1 0 I I #
edge $-1 $576 -14.569259015611646 $572 -8.6235265459186046 $560 $757 forward 7 unknown #
coedge $-1 $388 $561 $746 $758 reversed $235 $-1 #
vertex $-1 $570 $759 #
straight-curve $-1 0 -20.21991932668373 3.6331742076193003 -1 0 0 I I #
coedge $-1 $564 $390 $747 $760 forward $558 $-1 #
coedge $-1 $390 $564 $392 $578 reversed $558 $-1 #
vertex $-1 $760 $761 #
straight-curve $-1 0 -26.165651796376771 3.6331742076193003 -1 0 0 I I #
edge $-1 $396 -3.6331742076193003 $567 0.97219028181934997 $392 $762 forward 7 unknown #
point $-1 41.102328562273016 -20.21991932668373 3.6331742076193003 #
point $-1 41.102328562273016 -26.165651796376771 3.6331742076193003 #
plane-surface $-1 41.102328562273016 0 0 -1 0 0 0 0 1 forward_v I I I I #
coedge $-1 $592 $591 $584 $763 forward $399 $-1 #
coedge $-1 $584 $401 $403 $588 reversed $243 $-1 #
coedge $-1 $401 $583 $582 $763 reversed $243 $-1 #
coedge $-1 $409 $404 $401 $586 forward $410 $-1 #
edge $-1 $589 -55.637806806645877 $764 -51.170550100348386 $585 $765 forward 7 unknown #
coedge $-1 $403 $402 $592 $766 reversed $153 $-1 #
edge $-1 $767 76.535627052232513 $589 82.204657124546031 $583 $768 forward 7 unknown #
vertex $-1 $405 $769 #
straight-curve $-1 41.102328562273016 -5.8334800026576605 4.1127804913870563 0 1 0 I I #
coedge $-1 $582 $406 $409 $596 forward $399 $-1 #
coedge $-1 $406 $582 $587 $766 forward $399 $-1 #
vertex $-1 $407 $770 #
straight-curve $-1 27.635121718044189 -14.710393464712034 8.5800371976845469 1 0 0 I I #
straight-curve $-1 -9.5079110531587077 -14.710393464712034 68.890934980634142 -0.61566146476048833 0 0.78801076186113728 I I #
edge $-1 $411 -14.710393464712034 $764 -8.6235265459186081 $409 $771 forward 7 unknown #
point $-1 41.102328562273016 -14.710393464712034 8.5800371976845451 #
point $-1 41.102328562273016 -14.710393464712034 4.1127804913870563 #
edge $-1 $772 1 $772 0 $414 $-1 forward 7 unknown #
vertex $-1 $415 $773 #
ellipse-curve $-1 38.4612605468552 -12.971288630771054 5.6464032434396687 0.78801076186113728 0 0.61566146476048833 0.30783073238024417 0 -0.39400538093056864 1 I I #
point $-1 39.66505761560736 -12.971288630771054 5.9524034636052257 #
edge $-1 $774 1 $774 0 $418 $-1 forward 7 unknown #
vertex $-1 $419 $775 #
ellipse-curve $-1 38.4612605468552 -10.362631379859586 5.6464032434396687 0.78801076186113728 0 0.61566146476048833 0.30783073238024417 0 -0.39400538093056864 1 I I #
point $-1 39.66505761560736 -10.362631379859586 5.9524034636052257 #
loop $-1 $-1 $430 $422 #
plane-surface $-1 0 0 8.5800371976845451 0 0 1 1 0 0 forward_v I I I I #
coedge $-1 $610 $425 $427 $614 reversed $265 $-1 #
coedge $-1 $425 $609 $776 $777 reversed $265 $-1 #
coedge $-1 $433 $428 $425 $612 forward $423 $-1 #
edge $-1 $615 -55.637806806645877 $778 -51.170550100348386 $611 $779 forward 7 unknown #
coedge $-1 $427 $426 $618 $780 reversed $167 $-1 #
edge $-1 $781 76.535627052232513 $615 82.204657124546031 $609 $782 forward 7 unknown #
vertex $-1 $429 $783 #
straight-curve $-1 41.102328562273016 -0.95353792260371506 4.1127804913870563 0 1 0 I I #
coedge $-1 $776 $430 $433 $622 forward $607 $-1 #
coedge $-1 $430 $776 $613 $780 forward $607 $-1 #
vertex $-1 $431 $784 #
straight-curve $-1 27.635121718044189 -4.9505093046041431 8.5800371976845469 1 0 0 I I #
straight-curve $-1 -9.5079110531587077 -4.9505093046041431 68.890934980634142 -0.61566146476048833 0 0.78801076186113728 I I #
edge $-1 $434 -4.9505093046041431 $778 1.1363576141892828 $433 $785 forward 7 unknown #
point $-1 41.102328562273016 -4.9505093046041431 8.5800371976845451 #
point $-1 41.102328562273016 -4.9505093046041431 4.1127804913870563 #
edge $-1 $786 1 $786 0 $437 $-1 forward 7 unknown #
vertex $-1 $438 $787 #
ellipse-curve $-1 38.4612605468552 -3.2114044706631617 5.6464032434396687 0.78801076186113728 0 0.61566146476048833 0.30783073238024417 0 -0.39400538093056864 1 I I #
point $-1 39.66505761560736 -3.2114044706631617 5.9524034636052257 #
edge $-1 $788 1 $788 0 $441 $-1 forward 7 unknown #
vertex $-1 $442 $789 #
ellipse-curve $-1 38.4612605468552 -0.60274721975169143 5.6464032434396687 0.78801076186113728 0 0.61566146476048833 0.30783073238024417 0 -0.39400538093056864 1 I I #
point $-1 39.66505761560736 -0.60274721975169143 5.9524034636052257 #
loop $-1 $-1 $453 $445 #
plane-surface $-1 0 0 8.5800371976845451 0 0 1 1 0 0 forward_v I I I I #
coedge $-1 $636 $448 $450 $640 reversed $287 $-1 #
coedge $-1 $448 $635 $790 $791 reversed $287 $-1 #
coedge $-1 $456 $451 $448 $638 forward $446 $-1 #
edge $-1 $641 -55.637806806645877 $792 -51.170550100348386 $637 $793 forward 7 unknown #
coedge $-1 $450 $449 $644 $794 reversed $181 $-1 #
edge $-1 $795 76.535627052232513 $641 82.204657124546031 $635 $796 forward 7 unknown #
vertex $-1 $452 $797 #
straight-curve $-1 41.102328562273016 3.9264041574502322 4.1127804913870563 0 1 0 I I #
coedge $-1 $790 $453 $456 $648 forward $633 $-1 #
coedge $-1 $453 $790 $639 $794 forward $633 $-1 #
vertex $-1 $454 $798 #
straight-curve $-1 27.635121718044189 4.8093748555037514 8.5800371976845469 1 0 0 I I #
straight-curve $-1 -9.5079110531587077 4.8093748555037514 68.890934980634142 -0.61566146476048833 0 0.78801076186113728 I I #
edge $-1 $457 4.8093748555037514 $792 10.896241774297177 $456 $799 forward 7 unknown #
point $-1 41.102328562273016 4.8093748555037514 8.5800371976845451 #
point $-1 41.102328562273016 4.8093748555037514 4.1127804913870563 #
edge $-1 $800 1 $800 0 $460 $-1 forward 7 unknown #
vertex $-1 $461 $801 #
ellipse-curve $-1 38.4612605468552 6.5484796894447328 5.6464032434396687 0.78801076186113728 0 0.61566146476048833 0.30783073238024417 0 -0.39400538093056864 1 I I #
point $-1 39.66505761560736 6.5484796894447328 5.9524034636052257 #
edge $-1 $802 1 $802 0 $464 $-1 forward 7 unknown #
vertex $-1 $465 $803 #
ellipse-curve $-1 38.4612605468552 9.1571369403562031 5.6464032434396687 0.78801076186113728 0 0.61566146476048833 0.30783073238024417 0 -0.39400538093056864 1 I I #
point $-1 39.66505761560736 9.1571369403562031 5.9524034636052257 #
loop $-1 $-1 $476 $468 #
plane-surface $-1 0 0 8.5800371976845451 0 0 1 1 0 0 forward_v I I I I #
coedge $-1 $662 $471 $473 $666 reversed $309 $-1 #
coedge $-1 $471 $661 $804 $805 reversed $309 $-1 #
coedge $-1 $479 $474 $471 $664 forward $469 $-1 #
edge $-1 $667 -55.637806806645877 $806 -51.170550100348386 $663 $807 forward 7 unknown #
coedge $-1 $473 $472 $670 $808 reversed $195 $-1 #
edge $-1 $809 76.535627052232513 $667 82.204657124546031 $661 $810 forward 7 unknown #
vertex $-1 $475 $811 #
straight-curve $-1 41.102328562273016 8.8063462375041794 4.1127804913870563 0 1 0 I I #
coedge $-1 $804 $476 $479 $674 forward $659 $-1 #
coedge $-1 $476 $804 $665 $808 forward $659 $-1 #
vertex $-1 $477 $812 #
straight-curve $-1 27.635121718044189 14.569259015611646 8.5800371976845469 1 0 0 I I #
straight-curve $-1 -9.5079110531587077 14.569259015611646 68.890934980634142 -0.61566146476048833 0 0.78801076186113728 I I #
edge $-1 $480 14.569259015611646 $806 20.656125934405072 $479 $813 forward 7 unknown #
point $-1 41.102328562273016 14.569259015611646 8.5800371976845451 #
point $-1 41.102328562273016 14.569259015611646 4.1127804913870563 #
edge $-1 $814 1 $814 0 $483 $-1 forward 7 unknown #
vertex $-1 $484 $815 #
ellipse-curve $-1 38.4612605468552 16.308363849552627 5.6464032434396687 0.78801076186113728 0 0.61566146476048833 0.30783073238024417 0 -0.39400538093056864 1 I I #
point $-1 39.66505761560736 16.308363849552627 5.9524034636052257 #
edge $-1 $816 1 $816 0 $487 $-1 forward 7 unknown #
vertex $-1 $488 $817 #
ellipse-curve $-1 38.4612605468552 18.917021100464098 5.6464032434396687 0.78801076186113728 0 0.61566146476048833 0.30783073238024417 0 -0.39400538093056864 1 I I #
point $-1 39.66505761560736 18.917021100464098 5.9524034636052257 #
plane-surface $-1 0 0 8.5800371976845451 0 0 1 1 0 0 forward_v I I I I #
coedge $-1 $696 $695 $688 $818 forward $492 $-1 #
coedge $-1 $688 $494 $496 $692 reversed $331 $-1 #
coedge $-1 $494 $687 $686 $818 reversed $331 $-1 #
coedge $-1 $502 $497 $494 $690 forward $503 $-1 #
edge $-1 $693 -18.695864303408371 $819 -12.274615192348861 $689 $820 forward 7 unknown #
coedge $-1 $496 $495 $696 $821 reversed $209 $-1 #
edge $-1 $822 -2.3614502601449494e-014 $693 10.669805472573715 $687 $823 forward 7 unknown #
vertex $-1 $498 $824 #
straight-curve $-1 -34.681079451213506 -2.6339639581885734 8.5800371976845451 0 1 0 I I #
coedge $-1 $686 $499 $502 $700 reversed $492 $-1 #
coedge $-1 $499 $686 $691 $821 forward $492 $-1 #
vertex $-1 $500 $825 #
straight-curve $-1 -41.102328562273016 -8.9295821914918694 24.765374153856889 0 0 1 I I #
straight-curve $-1 -41.102328562273001 -8.9295821914918694 0.058751574242407401 -0.60181501223851219 0 -0.79863551827123203 I I #
edge $-1 $819 1.6062736412624243 $504 8.9295821914918694 $695 $826 forward 7 unknown #
point $-1 -41.102328562273016 -8.9295821914918694 8.5800371976845451 #
point $-1 -34.681079451213506 -8.9295821914918694 8.5800371976845451 #
edge $-1 $827 1 $827 0 $507 $-1 forward 7 unknown #
vertex $-1 $508 $828 #
ellipse-curve $-1 -36.575455569940395 -5.2679279163771469 3.3275300736697497 -0.79863551827123203 0 0.60181501223851219 0.60181501223851219 0 0.79863551827123203 1 I I #
point $-1 -37.289888994504757 -5.2679279163771469 5.1180299042347102 #
loop $-1 $-1 $519 $511 #
plane-surface $-1 -41.102328562273016 0 0 1 0 0 0 0 -1 forward_v I I I I #
coedge $-1 $710 $514 $516 $714 reversed $346 $-1 #
coedge $-1 $514 $709 $829 $830 reversed $346 $-1 #
coedge $-1 $522 $517 $514 $712 forward $512 $-1 #
edge $-1 $715 -18.695864303408371 $831 -12.274615192348861 $711 $832 forward 7 unknown #
coedge $-1 $516 $515 $718 $833 reversed $218 $-1 #
edge $-1 $834 -2.3614502601449494e-014 $715 10.669805472573715 $709 $835 forward 7 unknown #
vertex $-1 $518 $836 #
straight-curve $-1 -34.681079451213506 8.9624288225765518 8.5800371976845451 0 1 0 I I #
coedge $-1 $829 $519 $522 $722 reversed $707 $-1 #
coedge $-1 $519 $829 $713 $833 forward $707 $-1 #
vertex $-1 $520 $837 #
straight-curve $-1 -41.102328562273016 14.263203370038381 24.765374153856889 0 0 1 I I #
straight-curve $-1 -41.102328562273001 14.263203370038381 0.058751574242407401 -0.60181501223851219 0 -0.79863551827123203 I I #
edge $-1 $831 -21.586511920267824 $523 -14.263203370038381 $717 $838 forward 7 unknown #
point $-1 -41.102328562273016 14.263203370038381 8.5800371976845451 #
point $-1 -34.681079451213506 14.263203370038381 8.5800371976845451 #
edge $-1 $839 1 $839 0 $526 $-1 forward 7 unknown #
vertex $-1 $527 $840 #
ellipse-curve $-1 -36.575455569940395 17.924857645153104 3.3275300736697497 -0.79863551827123203 0 0.60181501223851219 0.60181501223851219 0 0.79863551827123203 1 I I #
point $-1 -37.289888994504757 17.924857645153104 5.1180299042347102 #
plane-surface $-1 41.102328562273016 0 0 -1 0 0 0 0 1 forward_v I I I I #
coedge $-1 $535 $533 $537 $734 reversed $361 $-1 #
edge $-1 $548 -8.5800371976845451 $736 8.5800371976845451 $547 $841 forward 7 unknown #
vertex $-1 $734 $842 #
straight-curve $-1 -41.102328562273016 -26.165651796376771 0 0 0 -1 I I #
edge $-1 $732 -26.165651796376771 $736 26.165651796376771 $730 $843 forward 7 unknown #
straight-curve $-1 0 -26.165651796376771 -8.5800371976845451 -1 0 0 I I #
vertex $-1 $540 $844 #
straight-curve $-1 0 26.165651796376771 -8.5800371976845451 1 0 0 I I #
point $-1 41.102328562273016 26.165651796376771 -8.5800371976845451 #
point $-1 41.102328562273016 -26.165651796376771 -8.5800371976845451 #
straight-curve $-1 -41.102328562273016 0 8.5800371976845451 0 -1 0 I I #
point $-1 -41.102328562273016 26.165651796376771 8.5800371976845451 #
point $-1 -41.102328562273016 -26.165651796376771 8.5800371976845451 #
straight-curve $-1 41.102328562273016 -26.165651796376771 0 0 0 -1 I I #
straight-curve $-1 41.102328562273016 26.165651796376771 0 0 0 -1 I I #
plane-surface $-1 41.102328562273016 0 0 -1 0 0 0 0 1 forward_v I I I I #
coedge $-1 $749 $560 $571 $758 forward $380 $-1 #
coedge $-1 $560 $749 $574 $760 reversed $380 $-1 #
straight-curve $-1 41.102328562273016 -20.21991932668373 0.66524598144998759 0 0 1 I I #
coedge $-1 $747 $746 $563 $750 forward $380 $-1 #
edge $-1 $753 8.6235265459186046 $751 14.569259015611646 $749 $845 forward 7 unknown #
vertex $-1 $565 $846 #
straight-curve $-1 0 -26.165651796376771 -0.97219028181934997 1 0 0 I I #
vertex $-1 $750 $847 #
straight-curve $-1 0 -20.21991932668373 -0.97219028181934997 1 0 0 I I #
point $-1 41.102328562273016 -26.165651796376771 -0.97219028181934997 #
point $-1 41.102328562273016 -20.21991932668373 -0.97219028181934997 #
straight-curve $-1 -41.102328562273016 -11.596392780765125 3.6331742076193003 0 1 0 I I #
edge $-1 $572 -2.9679282261693127 $753 1.6374362632693376 $746 $848 forward 7 unknown #
point $-1 -41.102328562273016 -20.21991932668373 3.6331742076193003 #
edge $-1 $576 -3.6331742076193003 $751 0.97219028181934997 $747 $849 forward 7 unknown #
point $-1 -41.102328562273016 -26.165651796376771 3.6331742076193003 #
straight-curve $-1 41.102328562273016 -26.165651796376771 0 0 0 -1 I I #
edge $-1 $764 -13.467206844228826 $767 -9.977003486137022 $582 $850 forward 7 unknown #
vertex $-1 $763 $851 #
straight-curve $-1 41.102328562273016 -8.6235265459186081 59.750587298032933 0 0 1 I I #
edge $-1 $767 2.7900465432609476 $593 8.8769134620543735 $592 $852 forward 7 unknown #
vertex $-1 $766 $853 #
straight-curve $-1 -9.5079110531587077 -8.6235265459186081 68.890934980634142 0.61566146476048833 0 -0.78801076186113728 I I #
point $-1 41.102328562273016 -8.6235265459186081 4.1127804913870563 #
point $-1 37.612125204181211 -14.710393464712034 8.5800371976845398 #
straight-curve $-1 41.102328562273016 0 8.5800371976845451 0 1 0 I I #
vertex $-1 $599 $854 #
point $-1 38.769091279235447 -12.971288630771054 5.2523978625090999 #
vertex $-1 $603 $855 #
point $-1 38.769091279235447 -10.362631379859586 5.2523978625090999 #
coedge $-1 $618 $617 $610 $777 forward $607 $-1 #
edge $-1 $778 -13.467206844228826 $781 -9.977003486137022 $776 $856 forward 7 unknown #
vertex $-1 $777 $857 #
straight-curve $-1 41.102328562273016 1.1363576141892828 59.750587298032933 0 0 1 I I #
edge $-1 $781 -2.0898955367929979 $619 3.996971382000428 $618 $858 forward 7 unknown #
vertex $-1 $780 $859 #
straight-curve $-1 -9.5079110531587077 1.1363576141892828 68.890934980634142 0.61566146476048833 0 -0.78801076186113728 I I #
point $-1 41.102328562273016 1.1363576141892828 4.1127804913870563 #
point $-1 37.612125204181211 -4.9505093046041431 8.5800371976845398 #
straight-curve $-1 41.102328562273016 0 8.5800371976845451 0 1 0 I I #
vertex $-1 $625 $860 #
point $-1 38.769091279235447 -3.2114044706631617 5.2523978625090999 #
vertex $-1 $629 $861 #
point $-1 38.769091279235447 -0.60274721975169143 5.2523978625090999 #
coedge $-1 $644 $643 $636 $791 forward $633 $-1 #
edge $-1 $792 -13.467206844228826 $795 -9.977003486137022 $790 $862 forward 7 unknown #
vertex $-1 $791 $863 #
straight-curve $-1 41.102328562273016 10.896241774297177 59.750587298032933 0 0 1 I I #
edge $-1 $795 -6.9698376168469451 $645 -0.88297069805351924 $644 $864 forward 7 unknown #
vertex $-1 $794 $865 #
straight-curve $-1 -9.5079110531587077 10.896241774297177 68.890934980634142 0.61566146476048833 0 -0.78801076186113728 I I #
point $-1 41.102328562273016 10.896241774297177 4.1127804913870563 #
point $-1 37.612125204181211 4.8093748555037514 8.5800371976845398 #
straight-curve $-1 41.102328562273016 0 8.5800371976845451 0 1 0 I I #
vertex $-1 $651 $866 #
point $-1 38.769091279235447 6.5484796894447328 5.2523978625090999 #
vertex $-1 $655 $867 #
point $-1 38.769091279235447 9.1571369403562031 5.2523978625090999 #
coedge $-1 $670 $669 $662 $805 forward $659 $-1 #
edge $-1 $806 -13.467206844228826 $809 -9.977003486137022 $804 $868 forward 7 unknown #
vertex $-1 $805 $869 #
straight-curve $-1 41.102328562273016 20.656125934405072 59.750587298032933 0 0 1 I I #
edge $-1 $809 -11.849779696900892 $671 -5.7629127781074665 $670 $870 forward 7 unknown #
vertex $-1 $808 $871 #
straight-curve $-1 -9.5079110531587077 20.656125934405072 68.890934980634142 0.61566146476048833 0 -0.78801076186113728 I I #
point $-1 41.102328562273016 20.656125934405072 4.1127804913870563 #
point $-1 37.612125204181211 14.569259015611646 8.5800371976845398 #
straight-curve $-1 41.102328562273016 0 8.5800371976845451 0 1 0 I I #
vertex $-1 $677 $872 #
point $-1 38.769091279235447 16.308363849552627 5.2523978625090999 #
vertex $-1 $681 $873 #
point $-1 38.769091279235447 18.917021100464098 5.2523978625090999 #
edge $-1 $819 16.185336956172343 $822 24.7066225796145 $686 $874 forward 7 unknown #
vertex $-1 $700 $875 #
straight-curve $-1 -53.376943754621877 -1.6062736412624243 8.5800371976845469 -1 0 0 I I #
edge $-1 $822 -1.0276903169261491 $697 6.295618233303296 $696 $876 forward 7 unknown #
vertex $-1 $821 $877 #
straight-curve $-1 -41.102328562273001 -1.6062736412624243 0.058751574242407401 0.60181501223851219 0 0.79863551827123203 I I #
point $-1 -34.681079451213506 -1.6062736412624243 8.5800371976845451 #
point $-1 -41.102328562273016 -8.9295821914918694 0.058751574242388541 #
straight-curve $-1 -41.102328562273016 0 8.5800371976845451 0 -1 0 I I #
vertex $-1 $703 $878 #
point $-1 -35.973640557701884 -5.2679279163771469 4.1261655919409819 #
coedge $-1 $718 $717 $710 $830 forward $707 $-1 #
edge $-1 $831 16.185336956172343 $834 24.7066225796145 $829 $879 forward 7 unknown #
vertex $-1 $722 $880 #
straight-curve $-1 -53.376943754621877 21.586511920267824 8.5800371976845469 -1 0 0 I I #
edge $-1 $834 -12.624083097691273 $719 -5.3007745474618293 $718 $881 forward 7 unknown #
vertex $-1 $833 $882 #
straight-curve $-1 -41.102328562273001 21.586511920267824 0.058751574242407401 0.60181501223851219 0 0.79863551827123203 I I #
point $-1 -34.681079451213506 21.586511920267824 8.5800371976845451 #
point $-1 -41.102328562273016 14.263203370038381 0.058751574242388541 #
straight-curve $-1 -41.102328562273016 0 8.5800371976845451 0 -1 0 I I #
vertex $-1 $725 $883 #
point $-1 -35.973640557701884 17.924857645153104 4.1261655919409819 #
straight-curve $-1 -41.102328562273016 26.165651796376771 0 0 0 -1 I I #
point $-1 -41.102328562273016 -26.165651796376771 -8.5800371976845451 #
straight-curve $-1 -41.102328562273016 0 -8.5800371976845451 0 1 0 I I #
point $-1 -41.102328562273016 26.165651796376771 -8.5800371976845451 #
straight-curve $-1 -41.102328562273016 -11.596392780765125 -0.97219028181934997 0 -1 0 I I #
point $-1 -41.102328562273016 -26.165651796376771 -0.97219028181934997 #
point $-1 -41.102328562273016 -20.21991932668373 -0.97219028181934997 #
straight-curve $-1 -41.102328562273016 -20.21991932668373 0.66524598144998759 0 0 -1 I I #
straight-curve $-1 -41.102328562273016 -26.165651796376771 0 0 0 -1 I I #
straight-curve $-1 27.635121718044189 -8.6235265459186081 8.5800371976845469 -1 0 0 I I #
point $-1 41.102328562273016 -8.6235265459186081 8.5800371976845451 #
straight-curve $-1 37.612125204181204 -5.8334800026576605 8.5800371976845469 0 -1 0 I I #
point $-1 37.612125204181211 -8.6235265459186081 8.5800371976845398 #
point $-1 38.067255165924635 -12.971288630771054 5.3385725110594242 #
point $-1 38.067255165924635 -10.362631379859586 5.3385725110594242 #
straight-curve $-1 27.635121718044189 1.1363576141892828 8.5800371976845469 -1 0 0 I I #
point $-1 41.102328562273016 1.1363576141892828 8.5800371976845451 #
straight-curve $-1 37.612125204181204 -0.95353792260371506 8.5800371976845469 0 -1 0 I I #
point $-1 37.612125204181211 1.1363576141892828 8.5800371976845398 #
point $-1 38.067255165924635 -3.2114044706631617 5.3385725110594242 #
point $-1 38.067255165924635 -0.60274721975169143 5.3385725110594242 #
straight-curve $-1 27.635121718044189 10.896241774297177 8.5800371976845469 -1 0 0 I I #
point $-1 41.102328562273016 10.896241774297177 8.5800371976845451 #
straight-curve $-1 37.612125204181204 3.9264041574502322 8.5800371976845469 0 -1 0 I I #
point $-1 37.612125204181211 10.896241774297177 8.5800371976845398 #
point $-1 38.067255165924635 6.5484796894447328 5.3385725110594242 #
point $-1 38.067255165924635 9.1571369403562031 5.3385725110594242 #
straight-curve $-1 27.635121718044189 20.656125934405072 8.5800371976845469 -1 0 0 I I #
point $-1 41.102328562273016 20.656125934405072 8.5800371976845451 #
straight-curve $-1 37.612125204181204 8.8063462375041794 8.5800371976845469 0 -1 0 I I #
point $-1 37.612125204181211 20.656125934405072 8.5800371976845398 #
point $-1 38.067255165924635 16.308363849552627 5.3385725110594242 #
point $-1 38.067255165924635 18.917021100464098 5.3385725110594242 #
straight-curve $-1 -41.102328562273016 -1.6062736412624243 24.765374153856889 0 0 -1 I I #
point $-1 -41.102328562273016 -1.6062736412624243 8.5800371976845451 #
straight-curve $-1 -41.102328562273016 -2.6339639581885734 0.058751574242384058 0 -1 0 I I #
point $-1 -41.102328562273016 -1.6062736412624243 0.058751574242388541 #
point $-1 -35.776820051669169 -5.2679279163771469 2.7257150614312371 #
straight-curve $-1 -41.102328562273016 21.586511920267824 24.765374153856889 0 0 -1 I I #
point $-1 -41.102328562273016 21.586511920267824 8.5800371976845451 #
straight-curve $-1 -41.102328562273016 8.9624288225765518 0.058751574242384058 0 -1 0 I I #
point $-1 -41.102328562273016 21.586511920267824 0.058751574242388541 #
point $-1 -35.776820051669169 17.924857645153104 2.7257150614312371 #
End-of-ACIS-data 