500 0 11 0           
7 Unknown 11 ACIS 5.0 NT 24 Fri Mar 26 20:17:17 1999 
-1 9.9999999999999995e-007 1e-010 
body $-1 $11 $-1 $12 #
body $-1 $13 $-1 $14 #
body $-1 $15 $-1 $16 #
body $-1 $17 $-1 $18 #
body $-1 $19 $-1 $20 #
body $-1 $21 $-1 $22 #
body $-1 $23 $-1 $24 #
body $-1 $25 $-1 $26 #
body $-1 $27 $-1 $28 #
body $-1 $29 $-1 $30 #
body $-1 $31 $-1 $32 #
lump $-1 $-1 $33 $0 #
transform $-1 1 0 0 0 1 0 0 0 1 73.84868923001801 34.888305128623365 16.227475228257788 1 rotate no_reflect no_shear #
lump $-1 $-1 $34 $1 #
transform $-1 1 0 0 0 1 0 0 0 1 73.84868923001801 34.888305128623365 16.227475228257788 1 rotate no_reflect no_shear #
lump $-1 $-1 $35 $2 #
transform $-1 1 0 0 0 1 0 0 0 1 73.84868923001801 34.888305128623365 16.227475228257788 1 rotate no_reflect no_shear #
lump $-1 $-1 $36 $3 #
transform $-1 1 0 0 0 1 0 0 0 1 73.84868923001801 34.888305128623365 16.227475228257788 1 rotate no_reflect no_shear #
lump $-1 $-1 $37 $4 #
transform $-1 1 0 0 0 1 0 0 0 1 73.84868923001801 34.888305128623365 16.227475228257788 1 rotate no_reflect no_shear #
lump $-1 $-1 $38 $5 #
transform $-1 1 0 0 0 1 0 0 0 1 73.84868923001801 34.888305128623365 16.227475228257788 1 rotate no_reflect no_shear #
lump $-1 $-1 $39 $6 #
transform $-1 1 0 0 0 1 0 0 0 1 73.84868923001801 34.888305128623365 16.227475228257788 1 rotate no_reflect no_shear #
lump $-1 $-1 $40 $7 #
transform $-1 1 0 0 0 1 0 0 0 1 73.84868923001801 34.888305128623365 16.227475228257788 1 rotate no_reflect no_shear #
lump $-1 $-1 $41 $8 #
transform $-1 1 0 0 0 1 0 0 0 1 73.84868923001801 34.888305128623365 16.227475228257788 1 rotate no_reflect no_shear #
lump $-1 $-1 $42 $9 #
transform $-1 1 0 0 0 1 0 0 0 1 73.84868923001801 34.888305128623365 16.227475228257788 1 rotate no_reflect no_shear #
lump $-1 $-1 $43 $10 #
transform $-1 1 0 0 0 1 0 0 0 1 73.84868923001801 34.888305128623365 16.227475228257788 1 rotate no_reflect no_shear #
shell $-1 $-1 $-1 $44 $-1 $11 #
shell $-1 $-1 $-1 $45 $-1 $13 #
shell $-1 $-1 $-1 $46 $-1 $15 #
shell $-1 $-1 $-1 $47 $-1 $17 #
shell $-1 $-1 $-1 $48 $-1 $19 #
shell $-1 $-1 $-1 $49 $-1 $21 #
shell $-1 $-1 $-1 $50 $-1 $23 #
shell $-1 $-1 $-1 $51 $-1 $25 #
shell $-1 $-1 $-1 $52 $-1 $27 #
shell $-1 $-1 $-1 $53 $-1 $29 #
shell $-1 $-1 $-1 $54 $-1 $31 #
face $-1 $55 $56 $33 $-1 $57 forward single #
face $-1 $58 $59 $34 $-1 $60 reversed single #
face $-1 $61 $62 $35 $-1 $63 forward single #
face $-1 $64 $65 $36 $-1 $66 forward single #
face $-1 $67 $68 $37 $-1 $69 forward single #
face $-1 $70 $71 $38 $-1 $72 reversed single #
face $-1 $73 $74 $39 $-1 $75 forward single #
face $-1 $76 $77 $40 $-1 $78 forward single #
face $-1 $79 $80 $41 $-1 $81 forward single #
face $-1 $82 $83 $42 $-1 $84 reversed single #
face $-1 $85 $86 $43 $-1 $87 forward single #
face $-1 $88 $89 $33 $-1 $90 reversed single #
loop $-1 $-1 $91 $44 #
plane-surface $-1 0 0 16.227475228257788 0 0 1 1 0 0 forward_v I I I I #
face $-1 $92 $93 $34 $-1 $94 reversed single #
loop $-1 $-1 $95 $45 #
plane-surface $-1 -40.630783393755038 105.7588845986935 149.27029209816109 1 0 0 0 -0.77714596973225614 -0.62932038083071107 forward_v I I I I #
face $-1 $96 $97 $35 $-1 $98 forward single #
loop $-1 $99 $100 $46 #
cone-surface $-1 -33.675254211904956 27.242704133116252 7.6035886287548387 0 -0.77714596973225614 -0.62932038083071107 2.5 0 0 1 I I 0 1 2.5 forward I I I I #
face $-1 $101 $102 $36 $-1 $103 forward single #
loop $-1 $104 $105 $47 #
cone-surface $-1 -23.241960439129841 27.242704133116252 7.6035886287548387 0 -0.77714596973225614 -0.62932038083071107 2.5 0 0 1 I I 0 1 2.5 forward I I I I #
face $-1 $106 $107 $37 $-1 $108 forward single #
loop $-1 $109 $110 $48 #
cone-surface $-1 -12.808666666354725 27.242704133116252 7.6035886287548387 0 -0.77714596973225614 -0.62932038083071107 2.5 0 0 1 I I 0 1 2.5 forward I I I I #
face $-1 $111 $112 $38 $-1 $113 reversed single #
loop $-1 $-1 $114 $49 #
plane-surface $-1 33.217905836262979 105.7588845986935 149.27029209816109 1 0 0 0 -0.77714596973225614 -0.62932038083071107 forward_v I I I I #
face $-1 $115 $116 $39 $-1 $117 forward single #
loop $-1 $118 $119 $50 #
cone-surface $-1 40.173435018113054 27.242704133116252 7.6035886287548387 0 -0.77714596973225614 -0.62932038083071107 2.5 0 0 1 I I 0 1 2.5 forward I I I I #
face $-1 $120 $121 $40 $-1 $122 forward single #
loop $-1 $123 $124 $51 #
cone-surface $-1 50.60672879088817 27.242704133116252 7.6035886287548387 0 -0.77714596973225614 -0.62932038083071107 2.5 0 0 1 I I 0 1 2.5 forward I I I I #
face $-1 $125 $126 $41 $-1 $127 forward single #
loop $-1 $128 $129 $52 #
cone-surface $-1 61.040022563663285 27.242704133116252 7.6035886287548387 0 -0.77714596973225614 -0.62932038083071107 2.5 0 0 1 I I 0 1 2.5 forward I I I I #
face $-1 $130 $131 $42 $-1 $132 reversed single #
loop $-1 $-1 $133 $53 #
plane-surface $-1 -33.931036193649952 -125.81989219338854 117.70272395187732 -1 0 0 0 -0.61566148304635926 0.78801074757464917 forward_v I I I I #
face $-1 $134 $135 $43 $-1 $136 forward single #
loop $-1 $137 $138 $54 #
cone-surface $-1 -45.037300290351077 -22.402623056927485 5.0052865422662105 0 0.61566148304635926 -0.78801074757464917 4 0 0 1 I I 0 1 4 forward I I I I #
face $-1 $139 $140 $33 $-1 $141 reversed single #
loop $-1 $-1 $142 $55 #
plane-surface $-1 0 0 -16.227475228257788 0 0 1 1 0 0 forward_v I I I I #
coedge $-1 $143 $144 $145 $146 forward $56 $-1 #
face $-1 $147 $148 $34 $-1 $149 reversed single #
loop $-1 $-1 $150 $58 #
plane-surface $-1 -23.241960439129834 -9.0235378115432354 56.321321637993563 0 0.77714596973225614 0.62932038083071107 1 0 0 forward_v I I I I #
coedge $-1 $151 $152 $153 $154 reversed $59 $-1 #
face $-1 $-1 $155 $35 $-1 $156 forward single #
loop $-1 $157 $158 $61 #
cone-surface $-1 -33.675254211904956 24.347914256007932 5.2594340698444597 0 -0.77714596973225614 -0.62932038083071107 1.25 0 0 1 I I -0.70710678118654746 0.70710678118654746 1.25 forward I I I I #
loop $-1 $-1 $159 $46 #
coedge $-1 $100 $100 $160 $161 reversed $62 $-1 #
face $-1 $-1 $162 $36 $-1 $163 forward single #
loop $-1 $164 $165 $64 #
cone-surface $-1 -23.241960439129841 24.347914256007932 5.2594340698444597 0 -0.77714596973225614 -0.62932038083071107 1.25 0 0 1 I I -0.70710678118654746 0.70710678118654746 1.25 forward I I I I #
loop $-1 $-1 $166 $47 #
coedge $-1 $105 $105 $167 $168 reversed $65 $-1 #
face $-1 $-1 $169 $37 $-1 $170 forward single #
loop $-1 $171 $172 $67 #
cone-surface $-1 -12.808666666354725 24.347914256007932 5.2594340698444597 0 -0.77714596973225614 -0.62932038083071107 1.25 0 0 1 I I -0.70710678118654746 0.70710678118654746 1.25 forward I I I I #
loop $-1 $-1 $173 $48 #
coedge $-1 $110 $110 $174 $175 reversed $68 $-1 #
face $-1 $176 $177 $38 $-1 $178 reversed single #
loop $-1 $-1 $179 $70 #
plane-surface $-1 50.606728790888184 -9.0235378115432354 56.321321637993563 0 0.77714596973225614 0.62932038083071107 1 0 0 forward_v I I I I #
coedge $-1 $180 $181 $182 $183 reversed $71 $-1 #
face $-1 $-1 $184 $39 $-1 $185 forward single #
loop $-1 $186 $187 $73 #
cone-surface $-1 40.173435018113054 24.347914256007932 5.2594340698444597 0 -0.77714596973225614 -0.62932038083071107 1.25 0 0 1 I I -0.70710678118654746 0.70710678118654746 1.25 forward I I I I #
loop $-1 $-1 $188 $50 #
coedge $-1 $119 $119 $189 $190 reversed $74 $-1 #
face $-1 $-1 $191 $40 $-1 $192 forward single #
loop $-1 $193 $194 $76 #
cone-surface $-1 50.60672879088817 24.347914256007932 5.2594340698444597 0 -0.77714596973225614 -0.62932038083071107 1.25 0 0 1 I I -0.70710678118654746 0.70710678118654746 1.25 forward I I I I #
loop $-1 $-1 $195 $51 #
coedge $-1 $124 $124 $196 $197 reversed $77 $-1 #
face $-1 $-1 $198 $41 $-1 $199 forward single #
loop $-1 $200 $201 $79 #
cone-surface $-1 61.040022563663285 24.347914256007932 5.2594340698444597 0 -0.77714596973225614 -0.62932038083071107 1.25 0 0 1 I I -0.70710678118654746 0.70710678118654746 1.25 forward I I I I #
loop $-1 $-1 $202 $52 #
coedge $-1 $129 $129 $203 $204 reversed $80 $-1 #
face $-1 $205 $206 $42 $-1 $207 reversed single #
loop $-1 $-1 $208 $82 #
plane-surface $-1 -45.037300290351077 -34.888305128623372 1.3156023367684497 0 -0.61566148304635926 0.78801074757464917 1 0 0 forward_v I I I I #
coedge $-1 $209 $210 $211 $212 reversed $83 $-1 #
face $-1 $-1 $213 $43 $-1 $214 forward single #
loop $-1 $215 $216 $85 #
cone-surface $-1 -45.037300290351077 -18.228781290306056 -0.33698719313000325 0 0.61566148304635926 -0.78801074757464917 2 0 0 1 I I -0.70710678118654746 0.70710678118654746 2 forward I I I I #
loop $-1 $-1 $217 $54 #
coedge $-1 $138 $138 $218 $219 reversed $86 $-1 #
face $-1 $220 $221 $33 $-1 $222 reversed single #
loop $-1 $-1 $223 $88 #
plane-surface $-1 0 -34.888305128623365 0 0 1 0 0 0 1 forward_v I I I I #
coedge $-1 $224 $225 $226 $227 forward $89 $-1 #
coedge $-1 $228 $91 $229 $230 forward $56 $-1 #
coedge $-1 $91 $228 $231 $232 forward $56 $-1 #
coedge $-1 $233 $234 $91 $146 reversed $235 $-1 #
edge $-1 $236 -34.888305128623365 $237 34.888305128623365 $145 $238 forward 7 unknown #
face $-1 $239 $240 $34 $-1 $241 reversed single #
loop $-1 $-1 $242 $92 #
plane-surface $-1 -5.8531374845046287 105.7588845986935 149.27029209816109 -1 0 0 0 0.77714596973225614 0.62932038083071107 forward_v I I I I #
coedge $-1 $243 $244 $245 $246 reversed $93 $-1 #
coedge $-1 $152 $95 $247 $248 reversed $59 $-1 #
coedge $-1 $95 $151 $243 $249 reversed $59 $-1 #
coedge $-1 $245 $250 $95 $154 forward $251 $-1 #
edge $-1 $252 17.991137170723384 $253 29.435624331851599 $153 $254 forward 7 unknown #
loop $-1 $-1 $160 $96 #
plane-surface $-1 -23.241960439129834 -9.0235378115432354 56.321321637993563 0 0.77714596973225614 0.62932038083071107 1 0 0 forward_v I I I I #
loop $-1 $-1 $255 $61 #
coedge $-1 $158 $158 $159 $256 reversed $97 $-1 #
coedge $-1 $159 $159 $158 $256 forward $99 $-1 #
coedge $-1 $160 $160 $100 $161 forward $155 $-1 #
edge $-1 $257 4.2014559341380714e-016 $257 6.2831853071796004 $160 $258 forward 7 unknown #
loop $-1 $-1 $167 $101 #
plane-surface $-1 -23.241960439129834 -9.0235378115432354 56.321321637993563 0 0.77714596973225614 0.62932038083071107 1 0 0 forward_v I I I I #
loop $-1 $-1 $259 $64 #
coedge $-1 $165 $165 $166 $260 reversed $102 $-1 #
coedge $-1 $166 $166 $165 $260 forward $104 $-1 #
coedge $-1 $167 $167 $105 $168 forward $162 $-1 #
edge $-1 $261 4.2014559341380714e-016 $261 6.2831853071796004 $167 $262 forward 7 unknown #
loop $-1 $-1 $174 $106 #
plane-surface $-1 -23.241960439129834 -9.0235378115432354 56.321321637993563 0 0.77714596973225614 0.62932038083071107 1 0 0 forward_v I I I I #
loop $-1 $-1 $263 $67 #
coedge $-1 $172 $172 $173 $264 reversed $107 $-1 #
coedge $-1 $173 $173 $172 $264 forward $109 $-1 #
coedge $-1 $174 $174 $110 $175 forward $169 $-1 #
edge $-1 $265 4.2014559341380714e-016 $265 6.2831853071796004 $174 $266 forward 7 unknown #
face $-1 $267 $268 $38 $-1 $269 forward single #
loop $-1 $-1 $270 $111 #
plane-surface $-1 67.995551745513382 105.7588845986935 149.27029209816109 -1 0 0 0 0.77714596973225614 0.62932038083071107 forward_v I I I I #
coedge $-1 $271 $272 $273 $274 reversed $112 $-1 #
coedge $-1 $181 $114 $275 $276 reversed $71 $-1 #
coedge $-1 $114 $180 $271 $277 reversed $71 $-1 #
coedge $-1 $273 $278 $114 $183 forward $268 $-1 #
edge $-1 $279 17.991137170723384 $280 29.435624331851599 $182 $281 forward 7 unknown #
loop $-1 $-1 $189 $115 #
plane-surface $-1 50.606728790888184 -9.0235378115432354 56.321321637993563 0 0.77714596973225614 0.62932038083071107 1 0 0 forward_v I I I I #
loop $-1 $-1 $282 $73 #
coedge $-1 $187 $187 $188 $283 reversed $116 $-1 #
coedge $-1 $188 $188 $187 $283 forward $118 $-1 #
coedge $-1 $189 $189 $119 $190 forward $184 $-1 #
edge $-1 $284 4.2014559341380714e-016 $284 6.2831853071796004 $189 $285 forward 7 unknown #
loop $-1 $-1 $196 $120 #
plane-surface $-1 50.606728790888184 -9.0235378115432354 56.321321637993563 0 0.77714596973225614 0.62932038083071107 1 0 0 forward_v I I I I #
loop $-1 $-1 $286 $76 #
coedge $-1 $194 $194 $195 $287 reversed $121 $-1 #
coedge $-1 $195 $195 $194 $287 forward $123 $-1 #
coedge $-1 $196 $196 $124 $197 forward $191 $-1 #
edge $-1 $288 4.2014559341380714e-016 $288 6.2831853071796004 $196 $289 forward 7 unknown #
loop $-1 $-1 $203 $125 #
plane-surface $-1 50.606728790888184 -9.0235378115432354 56.321321637993563 0 0.77714596973225614 0.62932038083071107 1 0 0 forward_v I I I I #
loop $-1 $-1 $290 $79 #
coedge $-1 $201 $201 $202 $291 reversed $126 $-1 #
coedge $-1 $202 $202 $201 $291 forward $128 $-1 #
coedge $-1 $203 $203 $129 $204 forward $198 $-1 #
edge $-1 $292 4.2014559341380714e-016 $292 6.2831853071796004 $203 $293 forward 7 unknown #
face $-1 $294 $295 $42 $-1 $296 reversed single #
loop $-1 $-1 $297 $130 #
plane-surface $-1 -56.143564387052201 -125.81989219338854 117.70272395187732 1 0 0 0 0.61566148304635926 -0.78801074757464917 forward_v I I I I #
coedge $-1 $298 $299 $300 $301 reversed $131 $-1 #
coedge $-1 $210 $133 $302 $303 reversed $83 $-1 #
coedge $-1 $133 $209 $298 $304 reversed $83 $-1 #
coedge $-1 $300 $305 $133 $212 forward $306 $-1 #
edge $-1 $307 28.021640968070905 $308 47.107967510405253 $211 $309 forward 7 unknown #
loop $-1 $-1 $218 $134 #
plane-surface $-1 -45.037300290351077 -34.888305128623372 1.3156023367684497 0 -0.61566148304635926 0.78801074757464917 1 0 0 forward_v I I I I #
loop $-1 $-1 $310 $85 #
coedge $-1 $216 $216 $217 $311 reversed $135 $-1 #
coedge $-1 $217 $217 $216 $311 forward $137 $-1 #
coedge $-1 $218 $218 $138 $219 forward $213 $-1 #
edge $-1 $312 -1.5307689740521539e-016 $312 6.2831853071796004 $218 $313 forward 7 unknown #
face $-1 $314 $315 $33 $-1 $316 reversed single #
loop $-1 $-1 $317 $139 #
plane-surface $-1 -73.84868923001801 0 0 1 0 0 0 0 -1 forward_v I I I I #
coedge $-1 $318 $231 $319 $320 forward $140 $-1 #
coedge $-1 $321 $142 $318 $322 forward $89 $-1 #
coedge $-1 $142 $321 $323 $324 forward $89 $-1 #
coedge $-1 $234 $233 $142 $227 reversed $235 $-1 #
edge $-1 $325 -34.888305128623365 $326 34.888305128623365 $226 $327 forward 7 unknown #
coedge $-1 $144 $143 $328 $329 forward $56 $-1 #
coedge $-1 $330 $331 $143 $230 reversed $315 $-1 #
edge $-1 $237 -73.84868923001801 $332 73.84868923001801 $229 $333 forward 7 unknown #
coedge $-1 $223 $334 $144 $232 reversed $140 $-1 #
edge $-1 $335 -73.84868923001801 $236 73.84868923001801 $231 $336 forward 7 unknown #
coedge $-1 $226 $145 $334 $337 forward $235 $-1 #
coedge $-1 $145 $226 $330 $338 reversed $235 $-1 #
loop $-1 $-1 $233 $314 #
vertex $-1 $146 $339 #
vertex $-1 $146 $340 #
straight-curve $-1 73.84868923001801 0 16.227475228257788 0 1 0 I I #
face $-1 $-1 $251 $34 $-1 $341 forward single #
loop $-1 $-1 $342 $147 #
plane-surface $-1 0 34.888305128623365 0 0 -1 0 0 0 -1 forward_v I I I I #
coedge $-1 $343 $344 $345 $346 reversed $148 $-1 #
coedge $-1 $347 $150 $152 $249 forward $93 $-1 #
coedge $-1 $150 $347 $343 $348 forward $93 $-1 #
coedge $-1 $345 $153 $150 $246 forward $251 $-1 #
edge $-1 $253 -29.009803174190122 $349 5.7678427350602881 $245 $350 forward 7 unknown #
coedge $-1 $351 $352 $151 $248 forward $240 $-1 #
edge $-1 $353 -72.540435854084677 $252 -58.407670820822759 $247 $354 forward 7 unknown #
edge $-1 $253 51.59113985182087 $353 69.776610257246716 $152 $355 forward 7 unknown #
coedge $-1 $153 $345 $351 $356 forward $251 $-1 #
loop $-1 $-1 $345 $239 #
vertex $-1 $248 $357 #
vertex $-1 $154 $358 #
straight-curve $-1 -40.630783393755038 52.879442299346749 16.227475228257788 0 -1 0 I I #
coedge $-1 $255 $255 $-1 $359 reversed $157 $-1 #
edge $-1 $360 0 $360 6.2831853071796004 $158 $361 forward 7 unknown #
vertex $-1 $161 $362 #
ellipse-curve $-1 -33.675254211904956 29.166061548059261 9.1610927116268357 0 0.77714596973225614 0.62932038083071107 2.5 0 0 1 I I #
coedge $-1 $259 $259 $-1 $363 reversed $164 $-1 #
edge $-1 $364 0 $364 6.2831853071796004 $165 $365 forward 7 unknown #
vertex $-1 $168 $366 #
ellipse-curve $-1 -23.241960439129841 29.166061548059261 9.1610927116268357 0 0.77714596973225614 0.62932038083071107 2.5 0 0 1 I I #
coedge $-1 $263 $263 $-1 $367 reversed $171 $-1 #
edge $-1 $368 0 $368 6.2831853071796004 $172 $369 forward 7 unknown #
vertex $-1 $175 $370 #
ellipse-curve $-1 -12.808666666354725 29.166061548059261 9.1610927116268357 0 0.77714596973225614 0.62932038083071107 2.5 0 0 1 I I #
face $-1 $-1 $371 $38 $-1 $372 reversed single #
loop $-1 $-1 $182 $176 #
plane-surface $-1 0 0 16.227475228257788 0 0 1 1 0 0 forward_v I I I I #
coedge $-1 $373 $374 $375 $376 reversed $177 $-1 #
coedge $-1 $377 $179 $181 $277 forward $112 $-1 #
coedge $-1 $179 $377 $373 $378 forward $112 $-1 #
coedge $-1 $375 $182 $179 $274 forward $268 $-1 #
edge $-1 $280 7.914541440818887 $379 42.69218735006929 $273 $380 forward 7 unknown #
coedge $-1 $381 $382 $180 $276 forward $371 $-1 #
edge $-1 $383 -72.540435854084677 $279 -58.407670820822759 $275 $384 forward 7 unknown #
edge $-1 $280 51.59113985182087 $383 69.776610257246716 $181 $385 forward 7 unknown #
coedge $-1 $182 $375 $381 $386 forward $268 $-1 #
vertex $-1 $183 $387 #
vertex $-1 $183 $388 #
straight-curve $-1 33.217905836262979 52.879442299346749 16.227475228257788 0 -1 0 I I #
coedge $-1 $282 $282 $-1 $389 reversed $186 $-1 #
edge $-1 $390 0 $390 6.2831853071796004 $187 $391 forward 7 unknown #
vertex $-1 $190 $392 #
ellipse-curve $-1 40.173435018113054 29.166061548059261 9.1610927116268357 0 0.77714596973225614 0.62932038083071107 2.5 0 0 1 I I #
coedge $-1 $286 $286 $-1 $393 reversed $193 $-1 #
edge $-1 $394 0 $394 6.2831853071796004 $194 $395 forward 7 unknown #
vertex $-1 $197 $396 #
ellipse-curve $-1 50.60672879088817 29.166061548059261 9.1610927116268357 0 0.77714596973225614 0.62932038083071107 2.5 0 0 1 I I #
coedge $-1 $290 $290 $-1 $397 reversed $200 $-1 #
edge $-1 $398 0 $398 6.2831853071796004 $201 $399 forward 7 unknown #
vertex $-1 $204 $400 #
ellipse-curve $-1 61.040022563663285 29.166061548059261 9.1610927116268357 0 0.77714596973225614 0.62932038083071107 2.5 0 0 1 I I #
face $-1 $-1 $306 $42 $-1 $401 forward single #
loop $-1 $-1 $402 $205 #
plane-surface $-1 0 -34.888305128623365 0 0 1 0 0 0 1 forward_v I I I I #
coedge $-1 $403 $404 $405 $406 reversed $206 $-1 #
coedge $-1 $407 $208 $210 $304 forward $131 $-1 #
coedge $-1 $208 $407 $403 $408 forward $131 $-1 #
coedge $-1 $405 $211 $208 $301 forward $306 $-1 #
edge $-1 $308 11.412386048474414 $409 33.624914241876667 $300 $410 forward 7 unknown #
coedge $-1 $411 $412 $209 $303 forward $295 $-1 #
edge $-1 $413 -57.535759639170202 $307 -42.623886747680871 $302 $414 forward 7 unknown #
edge $-1 $308 -24.220896226451892 $413 -9.0167608931652224e-015 $210 $415 forward 7 unknown #
coedge $-1 $211 $405 $411 $416 forward $306 $-1 #
loop $-1 $-1 $405 $294 #
vertex $-1 $303 $417 #
vertex $-1 $212 $418 #
straight-curve $-1 -33.931036193649952 -62.90994609669427 16.227475228257788 0 1 0 I I #
coedge $-1 $310 $310 $-1 $419 reversed $215 $-1 #
edge $-1 $420 0 $420 6.2831853071796004 $216 $421 forward 7 unknown #
vertex $-1 $219 $422 #
ellipse-curve $-1 -45.037300290351077 -25.345141857456191 8.7715387825131224 0 -0.61566148304635926 0.78801074757464917 4 0 0 1 I I #
face $-1 $-1 $235 $33 $-1 $423 reversed single #
loop $-1 $-1 $330 $220 #
plane-surface $-1 0 34.888305128623365 0 0 -1 0 0 0 -1 forward_v I I I I #
coedge $-1 $424 $328 $331 $425 forward $221 $-1 #
coedge $-1 $334 $223 $224 $322 reversed $140 $-1 #
coedge $-1 $328 $424 $223 $320 reversed $221 $-1 #
edge $-1 $335 -16.227475228257788 $426 16.227475228257788 $319 $427 forward 7 unknown #
coedge $-1 $225 $224 $424 $428 forward $89 $-1 #
edge $-1 $326 -73.84868923001801 $426 73.84868923001801 $318 $429 forward 7 unknown #
coedge $-1 $331 $330 $225 $324 reversed $315 $-1 #
edge $-1 $430 -73.84868923001801 $325 73.84868923001801 $323 $431 forward 7 unknown #
vertex $-1 $227 $432 #
vertex $-1 $337 $433 #
straight-curve $-1 73.84868923001801 0 -16.227475228257788 0 -1 0 I I #
coedge $-1 $317 $319 $228 $329 reversed $221 $-1 #
edge $-1 $332 -34.888305128623365 $335 34.888305128623365 $328 $434 forward 7 unknown #
coedge $-1 $323 $229 $234 $338 forward $315 $-1 #
coedge $-1 $229 $323 $317 $425 reversed $315 $-1 #
vertex $-1 $230 $435 #
straight-curve $-1 0 34.888305128623365 16.227475228257788 -1 0 0 I I #
coedge $-1 $231 $318 $233 $337 reversed $140 $-1 #
vertex $-1 $329 $436 #
straight-curve $-1 0 -34.888305128623365 16.227475228257788 1 0 0 I I #
edge $-1 $236 -16.227475228257788 $326 16.227475228257788 $233 $437 forward 7 unknown #
edge $-1 $237 -16.227475228257788 $325 16.227475228257788 $234 $438 forward 7 unknown #
point $-1 73.84868923001801 -34.888305128623365 16.227475228257788 #
point $-1 73.84868923001801 34.888305128623365 16.227475228257788 #
plane-surface $-1 0 0 16.227475228257788 0 0 1 1 0 0 forward_v I I I I #
coedge $-1 $352 $351 $344 $439 forward $240 $-1 #
coedge $-1 $344 $242 $244 $348 reversed $148 $-1 #
coedge $-1 $242 $343 $342 $439 reversed $148 $-1 #
coedge $-1 $250 $245 $242 $346 forward $251 $-1 #
edge $-1 $349 -29.435624331851599 $440 -17.991137170723384 $345 $441 forward 7 unknown #
coedge $-1 $244 $243 $352 $442 reversed $93 $-1 #
edge $-1 $443 -69.776610257246716 $349 -51.59113985182087 $343 $444 forward 7 unknown #
vertex $-1 $246 $445 #
straight-curve $-1 -11.620980219564917 23.44381796749515 16.227475228257788 1 0 0 I I #
coedge $-1 $342 $247 $250 $356 reversed $240 $-1 #
coedge $-1 $247 $342 $347 $442 forward $240 $-1 #
vertex $-1 $248 $446 #
straight-curve $-1 -40.630783393755038 34.888305128623365 74.635146049080547 0 0 1 I I #
straight-curve $-1 -40.630783393755038 -9.0235378115432354 56.321321637993563 0 0.62932038083071107 -0.77714596973225614 I I #
edge $-1 $440 5.8531374845046287 $252 40.630783393755038 $351 $447 forward 7 unknown #
point $-1 -40.630783393755038 34.888305128623365 16.227475228257788 #
point $-1 -40.630783393755038 23.44381796749515 16.227475228257788 #
edge $-1 $448 1 $448 0 $255 $-1 forward 7 unknown #
vertex $-1 $256 $449 #
ellipse-curve $-1 -33.675254211904956 25.319346718173254 6.0460845458828487 0 0.77714596973225614 0.62932038083071107 2.5 0 0 1 I I #
point $-1 -31.175254211904956 29.166061548059254 9.1610927116268286 #
edge $-1 $450 1 $450 0 $259 $-1 forward 7 unknown #
vertex $-1 $260 $451 #
ellipse-curve $-1 -23.241960439129841 25.319346718173254 6.0460845458828487 0 0.77714596973225614 0.62932038083071107 2.5 0 0 1 I I #
point $-1 -20.741960439129841 29.166061548059254 9.1610927116268286 #
edge $-1 $452 1 $452 0 $263 $-1 forward 7 unknown #
vertex $-1 $264 $453 #
ellipse-curve $-1 -12.808666666354725 25.319346718173254 6.0460845458828487 0 0.77714596973225614 0.62932038083071107 2.5 0 0 1 I I #
point $-1 -10.308666666354725 29.166061548059254 9.1610927116268286 #
loop $-1 $-1 $275 $267 #
plane-surface $-1 0 34.888305128623365 0 0 -1 0 0 0 -1 forward_v I I I I #
coedge $-1 $374 $270 $272 $378 reversed $177 $-1 #
coedge $-1 $270 $373 $454 $455 reversed $177 $-1 #
coedge $-1 $278 $273 $270 $376 forward $268 $-1 #
edge $-1 $379 -29.435624331851599 $456 -17.991137170723384 $375 $457 forward 7 unknown #
coedge $-1 $272 $271 $382 $458 reversed $112 $-1 #
edge $-1 $459 -69.776610257246716 $379 -51.59113985182087 $373 $460 forward 7 unknown #
vertex $-1 $274 $461 #
straight-curve $-1 25.303364395444092 23.44381796749515 16.227475228257788 1 0 0 I I #
coedge $-1 $454 $275 $278 $386 reversed $371 $-1 #
coedge $-1 $275 $454 $377 $458 forward $371 $-1 #
vertex $-1 $276 $462 #
straight-curve $-1 33.217905836262979 34.888305128623365 74.635146049080547 0 0 1 I I #
straight-curve $-1 33.217905836262979 -9.0235378115432354 56.321321637993563 0 0.62932038083071107 -0.77714596973225614 I I #
edge $-1 $456 -67.995551745513382 $279 -33.217905836262979 $381 $463 forward 7 unknown #
point $-1 33.217905836262979 34.888305128623365 16.227475228257788 #
point $-1 33.217905836262979 23.44381796749515 16.227475228257788 #
edge $-1 $464 1 $464 0 $282 $-1 forward 7 unknown #
vertex $-1 $283 $465 #
ellipse-curve $-1 40.173435018113054 25.319346718173254 6.0460845458828487 0 0.77714596973225614 0.62932038083071107 2.5 0 0 1 I I #
point $-1 42.673435018113054 29.166061548059254 9.1610927116268286 #
edge $-1 $466 1 $466 0 $286 $-1 forward 7 unknown #
vertex $-1 $287 $467 #
ellipse-curve $-1 50.60672879088817 25.319346718173254 6.0460845458828487 0 0.77714596973225614 0.62932038083071107 2.5 0 0 1 I I #
point $-1 53.10672879088817 29.166061548059254 9.1610927116268286 #
edge $-1 $468 1 $468 0 $290 $-1 forward 7 unknown #
vertex $-1 $291 $469 #
ellipse-curve $-1 61.040022563663285 25.319346718173254 6.0460845458828487 0 0.77714596973225614 0.62932038083071107 2.5 0 0 1 I I #
point $-1 63.540022563663285 29.166061548059254 9.1610927116268286 #
plane-surface $-1 0 0 16.227475228257788 0 0 1 1 0 0 forward_v I I I I #
coedge $-1 $412 $411 $404 $470 forward $295 $-1 #
coedge $-1 $404 $297 $299 $408 reversed $206 $-1 #
coedge $-1 $297 $403 $402 $470 reversed $206 $-1 #
coedge $-1 $305 $300 $297 $406 forward $306 $-1 #
edge $-1 $409 -47.107967510405253 $471 -28.021640968070905 $405 $472 forward 7 unknown #
coedge $-1 $299 $298 $412 $473 reversed $131 $-1 #
edge $-1 $474 9.0167608931652224e-015 $409 24.220896226451892 $403 $475 forward 7 unknown #
vertex $-1 $301 $476 #
straight-curve $-1 -22.518650145175538 -15.801978586289021 16.227475228257788 -1 0 0 I I #
coedge $-1 $402 $302 $305 $416 reversed $295 $-1 #
coedge $-1 $302 $402 $407 $473 forward $295 $-1 #
vertex $-1 $303 $477 #
straight-curve $-1 -33.931036193649952 -34.888305128623365 58.851361975938659 0 0 1 I I #
straight-curve $-1 -33.931036193649952 -34.888305128623372 1.3156023367684497 0 -0.78801074757464917 -0.61566148304635926 I I #
edge $-1 $471 -56.143564387052201 $307 -33.931036193649952 $411 $478 forward 7 unknown #
point $-1 -33.931036193649952 -34.888305128623365 16.227475228257788 #
point $-1 -33.931036193649952 -15.801978586289017 16.227475228257788 #
edge $-1 $479 1 $479 0 $310 $-1 forward 7 unknown #
vertex $-1 $311 $480 #
ellipse-curve $-1 -45.037300290351077 -19.460104256398775 1.2390343020192951 0 -0.61566148304635926 0.78801074757464917 4 0 0 1 I I #
point $-1 -41.037300290351077 -25.345141857456195 8.7715387825131259 #
plane-surface $-1 73.84868923001801 0 0 -1 0 0 0 0 1 forward_v I I I I #
coedge $-1 $319 $317 $321 $428 reversed $221 $-1 #
edge $-1 $332 -16.227475228257788 $430 16.227475228257788 $331 $481 forward 7 unknown #
vertex $-1 $428 $482 #
straight-curve $-1 -73.84868923001801 -34.888305128623365 0 0 0 -1 I I #
edge $-1 $426 -34.888305128623365 $430 34.888305128623365 $424 $483 forward 7 unknown #
straight-curve $-1 0 -34.888305128623365 -16.227475228257788 -1 0 0 I I #
vertex $-1 $324 $484 #
straight-curve $-1 0 34.888305128623365 -16.227475228257788 1 0 0 I I #
point $-1 73.84868923001801 34.888305128623365 -16.227475228257788 #
point $-1 73.84868923001801 -34.888305128623365 -16.227475228257788 #
straight-curve $-1 -73.84868923001801 0 16.227475228257788 0 -1 0 I I #
point $-1 -73.84868923001801 34.888305128623365 16.227475228257788 #
point $-1 -73.84868923001801 -34.888305128623365 16.227475228257788 #
straight-curve $-1 73.84868923001801 -34.888305128623365 0 0 0 -1 I I #
straight-curve $-1 73.84868923001801 34.888305128623365 0 0 0 -1 I I #
edge $-1 $440 58.407670820822759 $443 72.540435854084677 $342 $485 forward 7 unknown #
vertex $-1 $356 $486 #
straight-curve $-1 -5.8531374845046287 52.879442299346749 16.227475228257788 0 1 0 I I #
edge $-1 $443 -5.7678427350602881 $353 29.009803174190122 $352 $487 forward 7 unknown #
vertex $-1 $442 $488 #
straight-curve $-1 -5.8531374845046287 -9.0235378115432354 56.321321637993563 0 -0.62932038083071107 0.77714596973225614 I I #
point $-1 -5.8531374845046287 23.44381796749515 16.227475228257788 #
point $-1 -40.630783393755038 34.888305128623365 2.0947101949958764 #
straight-curve $-1 0 34.888305128623365 16.227475228257788 -1 0 0 I I #
vertex $-1 $359 $489 #
point $-1 -31.175254211904956 25.319346718173254 6.0460845458828487 #
vertex $-1 $363 $490 #
point $-1 -20.741960439129841 25.319346718173254 6.0460845458828487 #
vertex $-1 $367 $491 #
point $-1 -10.308666666354725 25.319346718173254 6.0460845458828487 #
coedge $-1 $382 $381 $374 $455 forward $371 $-1 #
edge $-1 $456 58.407670820822759 $459 72.540435854084677 $454 $492 forward 7 unknown #
vertex $-1 $386 $493 #
straight-curve $-1 67.995551745513382 52.879442299346749 16.227475228257788 0 1 0 I I #
edge $-1 $459 -42.69218735006929 $383 -7.914541440818887 $382 $494 forward 7 unknown #
vertex $-1 $458 $495 #
straight-curve $-1 67.995551745513382 -9.0235378115432354 56.321321637993563 0 -0.62932038083071107 0.77714596973225614 I I #
point $-1 67.995551745513382 23.44381796749515 16.227475228257788 #
point $-1 33.217905836262979 34.888305128623365 2.0947101949958764 #
straight-curve $-1 0 34.888305128623365 16.227475228257788 -1 0 0 I I #
vertex $-1 $389 $496 #
point $-1 42.673435018113054 25.319346718173254 6.0460845458828487 #
vertex $-1 $393 $497 #
point $-1 53.10672879088817 25.319346718173254 6.0460845458828487 #
vertex $-1 $397 $498 #
point $-1 63.540022563663285 25.319346718173254 6.0460845458828487 #
edge $-1 $471 42.623886747680871 $474 57.535759639170202 $402 $499 forward 7 unknown #
vertex $-1 $416 $500 #
straight-curve $-1 -56.143564387052201 -62.90994609669427 16.227475228257788 0 -1 0 I I #
edge $-1 $474 -33.624914241876667 $413 -11.412386048474414 $412 $501 forward 7 unknown #
vertex $-1 $473 $502 #
straight-curve $-1 -56.143564387052201 -34.888305128623372 1.3156023367684497 0 0.78801074757464917 0.61566148304635926 I I #
point $-1 -56.143564387052201 -15.801978586289017 16.227475228257788 #
point $-1 -33.931036193649952 -34.888305128623365 1.3156023367684553 #
straight-curve $-1 0 -34.888305128623365 16.227475228257788 1 0 0 I I #
vertex $-1 $419 $503 #
point $-1 -41.037300290351077 -19.460104256398775 1.2390343020192951 #
straight-curve $-1 -73.84868923001801 34.888305128623365 0 0 0 -1 I I #
point $-1 -73.84868923001801 -34.888305128623365 -16.227475228257788 #
straight-curve $-1 -73.84868923001801 0 -16.227475228257788 0 1 0 I I #
point $-1 -73.84868923001801 34.888305128623365 -16.227475228257788 #
straight-curve $-1 -5.8531374845046287 34.888305128623365 74.635146049080547 0 0 -1 I I #
point $-1 -5.8531374845046287 34.888305128623365 16.227475228257788 #
straight-curve $-1 -11.620980219564917 34.888305128623365 2.09471019499588 -1 0 0 I I #
point $-1 -5.8531374845046287 34.888305128623365 2.0947101949958764 #
point $-1 -33.675254211904956 23.376481793842611 4.4727835938060707 #
point $-1 -23.241960439129841 23.376481793842611 4.4727835938060707 #
point $-1 -12.808666666354725 23.376481793842611 4.4727835938060707 #
straight-curve $-1 67.995551745513382 34.888305128623365 74.635146049080547 0 0 -1 I I #
point $-1 67.995551745513382 34.888305128623365 16.227475228257788 #
straight-curve $-1 25.303364395444092 34.888305128623365 2.09471019499588 -1 0 0 I I #
point $-1 67.995551745513382 34.888305128623365 2.0947101949958764 #
point $-1 40.173435018113054 23.376481793842611 4.4727835938060707 #
point $-1 50.60672879088817 23.376481793842611 4.4727835938060707 #
point $-1 61.040022563663285 23.376481793842611 4.4727835938060707 #
straight-curve $-1 -56.143564387052201 -34.888305128623365 58.851361975938659 0 0 -1 I I #
point $-1 -56.143564387052201 -34.888305128623365 16.227475228257788 #
straight-curve $-1 -22.518650145175538 -34.888305128623365 1.3156023367684597 1 0 0 I I #
point $-1 -56.143564387052201 -34.888305128623365 1.3156023367684553 #
point $-1 -45.037300290351077 -16.997458324213337 -1.9130086882793016 #
End-of-ACIS-data 