500 0 5 0           
7 Unknown 11 ACIS 5.0 NT 24 Fri Mar 26 03:36:49 1999 
-1 9.9999999999999995e-007 1e-010 
body $-1 $5 $-1 $6 #
body $-1 $7 $-1 $8 #
body $-1 $9 $-1 $10 #
body $-1 $11 $-1 $12 #
body $-1 $13 $-1 $14 #
lump $-1 $-1 $15 $0 #
transform $-1 1 0 0 0 1 0 0 0 1 40.683614612262339 28.382802615845041 8.7959229542790016 1 rotate no_reflect no_shear #
lump $-1 $-1 $16 $1 #
transform $-1 1 0 0 0 1 0 0 0 1 40.683614612262339 28.382802615845041 8.7959229542790016 1 rotate no_reflect no_shear #
lump $-1 $-1 $17 $2 #
transform $-1 1 0 0 0 1 0 0 0 1 40.683614612262339 28.382802615845041 8.7959229542790016 1 rotate no_reflect no_shear #
lump $-1 $-1 $18 $3 #
transform $-1 1 0 0 0 1 0 0 0 1 40.683614612262339 28.382802615845041 8.7959229542790016 1 rotate no_reflect no_shear #
lump $-1 $-1 $19 $4 #
transform $-1 1 0 0 0 1 0 0 0 1 40.683614612262339 28.382802615845041 8.7959229542790016 1 rotate no_reflect no_shear #
shell $-1 $-1 $-1 $20 $-1 $5 #
shell $-1 $-1 $-1 $21 $-1 $7 #
shell $-1 $-1 $-1 $22 $-1 $9 #
shell $-1 $-1 $-1 $23 $-1 $11 #
shell $-1 $-1 $-1 $24 $-1 $13 #
face $-1 $25 $26 $15 $-1 $27 forward single #
face $-1 $28 $29 $16 $-1 $30 forward single #
face $-1 $31 $32 $17 $-1 $33 reversed single #
face $-1 $34 $35 $18 $-1 $36 forward single #
face $-1 $37 $38 $19 $-1 $39 forward single #
face $-1 $40 $41 $15 $-1 $42 reversed single #
loop $-1 $-1 $43 $20 #
plane-surface $-1 0 0 8.7959229542790016 0 0 1 1 0 0 forward_v I I I I #
face $-1 $44 $45 $16 $-1 $46 reversed single #
loop $-1 $-1 $47 $21 #
plane-surface $-1 0 -28.382802615845041 0 0 1 0 0 0 1 forward_v I I I I #
face $-1 $48 $49 $17 $-1 $50 reversed single #
loop $-1 $-1 $51 $22 #
plane-surface $-1 -6.5997382893775161 60.84428955634165 98.735003424864146 1 0 0 0 -0.80901700255871778 -0.5877852410284794 forward_v I I I I #
face $-1 $52 $53 $18 $-1 $54 forward single #
loop $-1 $55 $56 $23 #
cone-surface $-1 -1.6040233397666697 25.581700331001223 5.8609789885233692 0 -0.80901700255871778 -0.5877852410284794 1 0 0 1 I I 0 1 1 forward I I I I #
face $-1 $57 $58 $19 $-1 $59 forward single #
loop $-1 $60 $61 $24 #
cone-surface $-1 5.8895490846496088 25.581700331001223 5.8609789885233692 0 -0.80901700255871778 -0.5877852410284794 1 0 0 1 I I 0 1 1 forward I I I I #
face $-1 $62 $63 $15 $-1 $64 reversed single #
loop $-1 $-1 $65 $25 #
plane-surface $-1 0 0 -8.7959229542790016 0 0 1 1 0 0 forward_v I I I I #
coedge $-1 $66 $67 $68 $69 forward $26 $-1 #
face $-1 $70 $71 $16 $-1 $72 forward single #
loop $-1 $-1 $73 $28 #
plane-surface $-1 -40.683614612262339 0 0 1 0 0 0 0 -1 forward_v I I I I #
coedge $-1 $74 $75 $76 $77 forward $29 $-1 #
face $-1 $78 $79 $17 $-1 $80 reversed single #
loop $-1 $-1 $81 $31 #
plane-surface $-1 2.1427628724414731 -4.9831823373914119 50.908546983307374 0 0.80901700255871778 0.5877852410284794 1 0 0 forward_v I I I I #
coedge $-1 $82 $83 $84 $85 reversed $32 $-1 #
face $-1 $-1 $86 $18 $-1 $87 forward single #
loop $-1 $88 $89 $34 #
cone-surface $-1 -1.6040233397666697 23.760776307922843 4.5380002842259994 0 -0.80901700255871778 -0.5877852410284794 0.5 0 0 1 I I -0.70710678118654746 0.70710678118654746 0.5 forward I I I I #
loop $-1 $-1 $90 $23 #
coedge $-1 $56 $56 $91 $92 reversed $35 $-1 #
face $-1 $-1 $93 $19 $-1 $94 forward single #
loop $-1 $95 $96 $37 #
cone-surface $-1 5.8895490846496088 23.760776307922843 4.5380002842259994 0 -0.80901700255871778 -0.5877852410284794 0.5 0 0 1 I I -0.70710678118654746 0.70710678118654746 0.5 forward I I I I #
loop $-1 $-1 $97 $24 #
coedge $-1 $61 $61 $98 $99 reversed $38 $-1 #
face $-1 $100 $101 $15 $-1 $102 reversed single #
loop $-1 $-1 $103 $40 #
plane-surface $-1 0 -28.382802615845041 0 0 1 0 0 0 1 forward_v I I I I #
coedge $-1 $104 $105 $106 $107 forward $41 $-1 #
coedge $-1 $108 $43 $109 $110 forward $26 $-1 #
coedge $-1 $43 $108 $111 $112 forward $26 $-1 #
coedge $-1 $113 $114 $43 $69 reversed $115 $-1 #
edge $-1 $116 -28.382802615845041 $117 28.382802615845041 $68 $118 forward 7 unknown #
face $-1 $119 $120 $16 $-1 $121 reversed single #
loop $-1 $-1 $122 $44 #
plane-surface $-1 0 -32.759152112728522 -1.998196270822989 0 0 1 1 0 0 forward_v I I I I #
coedge $-1 $123 $124 $75 $125 forward $45 $-1 #
coedge $-1 $126 $47 $127 $128 reversed $29 $-1 #
coedge $-1 $47 $126 $73 $125 reversed $29 $-1 #
coedge $-1 $129 $122 $47 $77 reversed $71 $-1 #
edge $-1 $130 -40.683614612262339 $131 40.683614612262339 $76 $132 forward 7 unknown #
face $-1 $133 $134 $17 $-1 $135 forward single #
loop $-1 $-1 $136 $48 #
plane-surface $-1 10.885264034260462 60.84428955634165 98.735003424864146 -1 0 0 0 0.80901700255871778 0.5877852410284794 forward_v I I I I #
coedge $-1 $137 $138 $139 $140 reversed $49 $-1 #
coedge $-1 $83 $51 $141 $142 reversed $32 $-1 #
coedge $-1 $51 $82 $137 $143 reversed $32 $-1 #
coedge $-1 $139 $144 $51 $85 forward $134 $-1 #
edge $-1 $145 2.0393421623257844 $146 4.8087156884153615 $84 $147 forward 7 unknown #
loop $-1 $-1 $91 $52 #
plane-surface $-1 2.1427628724414731 -4.9831823373914119 50.908546983307374 0 0.80901700255871778 0.5877852410284794 1 0 0 forward_v I I I I #
loop $-1 $-1 $148 $34 #
coedge $-1 $89 $89 $90 $149 reversed $53 $-1 #
coedge $-1 $90 $90 $89 $149 forward $55 $-1 #
coedge $-1 $91 $91 $56 $92 forward $86 $-1 #
edge $-1 $150 -1.2348378980948466e-015 $150 6.2831853071795996 $91 $151 forward 7 unknown #
loop $-1 $-1 $98 $57 #
plane-surface $-1 2.1427628724414731 -4.9831823373914119 50.908546983307374 0 0.80901700255871778 0.5877852410284794 1 0 0 forward_v I I I I #
loop $-1 $-1 $152 $37 #
coedge $-1 $96 $96 $97 $153 reversed $58 $-1 #
coedge $-1 $97 $97 $96 $153 forward $60 $-1 #
coedge $-1 $98 $98 $61 $99 forward $93 $-1 #
edge $-1 $154 -1.2348378980948466e-015 $154 6.2831853071795996 $98 $155 forward 7 unknown #
face $-1 $156 $157 $15 $-1 $158 reversed single #
loop $-1 $-1 $159 $62 #
plane-surface $-1 -40.683614612262339 0 0 1 0 0 0 0 -1 forward_v I I I I #
coedge $-1 $160 $111 $161 $162 forward $63 $-1 #
coedge $-1 $163 $65 $160 $164 forward $41 $-1 #
coedge $-1 $65 $163 $165 $166 forward $41 $-1 #
coedge $-1 $114 $113 $65 $107 reversed $115 $-1 #
edge $-1 $167 -28.382802615845041 $168 28.382802615845041 $106 $169 forward 7 unknown #
coedge $-1 $67 $66 $170 $171 forward $26 $-1 #
coedge $-1 $172 $173 $66 $110 reversed $157 $-1 #
edge $-1 $117 -40.683614612262339 $174 40.683614612262339 $109 $175 forward 7 unknown #
coedge $-1 $103 $176 $67 $112 reversed $63 $-1 #
edge $-1 $177 -40.683614612262339 $116 40.683614612262339 $111 $178 forward 7 unknown #
coedge $-1 $106 $68 $176 $179 forward $115 $-1 #
coedge $-1 $68 $106 $172 $180 reversed $115 $-1 #
loop $-1 $-1 $113 $156 #
vertex $-1 $69 $181 #
vertex $-1 $69 $182 #
straight-curve $-1 40.683614612262339 0 8.7959229542790016 0 1 0 I I #
face $-1 $183 $184 $16 $-1 $185 reversed single #
loop $-1 $-1 $186 $70 #
plane-surface $-1 0 -32.759152112728522 -6.7393026288626281 0 0 1 1 0 0 forward_v I I I I #
coedge $-1 $76 $187 $188 $189 forward $71 $-1 #
coedge $-1 $190 $73 $191 $192 reversed $45 $-1 #
coedge $-1 $73 $190 $129 $193 reversed $45 $-1 #
edge $-1 $130 1.998196270822989 $194 6.7393026288626281 $73 $195 forward 7 unknown #
coedge $-1 $75 $74 $196 $197 forward $29 $-1 #
coedge $-1 $188 $198 $74 $128 forward $199 $-1 #
edge $-1 $200 -6.7393026288626281 $131 -1.998196270822989 $127 $201 forward 7 unknown #
coedge $-1 $187 $76 $124 $193 forward $71 $-1 #
vertex $-1 $125 $202 #
vertex $-1 $189 $203 #
straight-curve $-1 0 -28.382802615845041 -1.998196270822989 1 0 0 I I #
face $-1 $-1 $204 $17 $-1 $205 reversed single #
loop $-1 $-1 $84 $78 #
plane-surface $-1 0 0 8.7959229542790016 0 0 1 1 0 0 forward_v I I I I #
coedge $-1 $206 $207 $208 $209 reversed $79 $-1 #
coedge $-1 $210 $81 $83 $143 forward $49 $-1 #
coedge $-1 $81 $210 $206 $211 forward $49 $-1 #
coedge $-1 $208 $84 $81 $140 forward $134 $-1 #
edge $-1 $146 -7.6711197255982526 $212 9.8138825980397257 $139 $213 forward 7 unknown #
coedge $-1 $214 $215 $82 $142 forward $204 $-1 #
edge $-1 $216 -44.383294522098055 $145 -40.571578758153073 $141 $217 forward 7 unknown #
edge $-1 $146 52.054065484207015 $216 56.76560523169006 $83 $218 forward 7 unknown #
coedge $-1 $84 $208 $214 $219 forward $134 $-1 #
vertex $-1 $142 $220 #
vertex $-1 $85 $221 #
straight-curve $-1 -6.5997382893775161 30.422144778170825 8.7959229542789998 0 -1 0 I I #
coedge $-1 $148 $148 $-1 $222 reversed $88 $-1 #
edge $-1 $223 0 $223 6.2831853071796004 $89 $224 forward 7 unknown #
vertex $-1 $92 $225 #
ellipse-curve $-1 -1.6040233397666697 26.998115852800254 6.8900650723065047 0 0.80901700255871778 0.5877852410284794 1 0 0 1 I I #
coedge $-1 $152 $152 $-1 $226 reversed $95 $-1 #
edge $-1 $227 0 $227 6.2831853071796004 $96 $228 forward 7 unknown #
vertex $-1 $99 $229 #
ellipse-curve $-1 5.8895490846496088 26.998115852800254 6.8900650723065047 0 0.80901700255871778 0.5877852410284794 1 0 0 1 I I #
face $-1 $-1 $115 $15 $-1 $230 reversed single #
loop $-1 $-1 $172 $100 #
plane-surface $-1 0 28.382802615845041 0 0 -1 0 0 0 -1 forward_v I I I I #
coedge $-1 $231 $170 $173 $232 forward $101 $-1 #
coedge $-1 $176 $103 $104 $164 reversed $63 $-1 #
coedge $-1 $170 $231 $103 $162 reversed $101 $-1 #
edge $-1 $177 -8.7959229542790016 $233 8.7959229542790016 $161 $234 forward 7 unknown #
coedge $-1 $105 $104 $231 $235 forward $41 $-1 #
edge $-1 $168 -40.683614612262339 $233 40.683614612262339 $160 $236 forward 7 unknown #
coedge $-1 $173 $172 $105 $166 reversed $157 $-1 #
edge $-1 $237 -40.683614612262339 $167 40.683614612262339 $165 $238 forward 7 unknown #
vertex $-1 $107 $239 #
vertex $-1 $179 $240 #
straight-curve $-1 40.683614612262339 0 -8.7959229542790016 0 -1 0 I I #
coedge $-1 $159 $161 $108 $171 reversed $101 $-1 #
edge $-1 $174 -28.382802615845041 $177 28.382802615845041 $170 $241 forward 7 unknown #
coedge $-1 $165 $109 $114 $180 forward $157 $-1 #
coedge $-1 $109 $165 $159 $232 reversed $157 $-1 #
vertex $-1 $110 $242 #
straight-curve $-1 0 28.382802615845041 8.7959229542790016 -1 0 0 I I #
coedge $-1 $111 $160 $113 $179 reversed $63 $-1 #
vertex $-1 $171 $243 #
straight-curve $-1 0 -28.382802615845041 8.7959229542790016 1 0 0 I I #
edge $-1 $116 -8.7959229542790016 $168 8.7959229542790016 $113 $244 forward 7 unknown #
edge $-1 $117 -8.7959229542790016 $167 8.7959229542790016 $114 $245 forward 7 unknown #
point $-1 40.683614612262339 -28.382802615845041 8.7959229542790016 #
point $-1 40.683614612262339 28.382802615845041 8.7959229542790016 #
face $-1 $-1 $199 $16 $-1 $246 reversed single #
loop $-1 $-1 $247 $119 #
plane-surface $-1 0 -37.135501609612007 -4.3687494498428086 0 1 0 0 0 1 forward_v I I I I #
coedge $-1 $248 $196 $198 $249 forward $120 $-1 #
coedge $-1 $122 $129 $250 $251 forward $71 $-1 #
coedge $-1 $252 $127 $122 $189 reversed $199 $-1 #
edge $-1 $253 -4.3763494968834848 $131 4.3763494968834813 $188 $254 forward 7 unknown #
coedge $-1 $124 $123 $247 $255 reversed $45 $-1 #
coedge $-1 $196 $248 $123 $192 forward $120 $-1 #
edge $-1 $256 -4.3763494968834848 $194 4.3763494968834813 $123 $257 forward 7 unknown #
edge $-1 $130 -4.3763494968834813 $258 4.3763494968834848 $124 $259 forward 7 unknown #
vertex $-1 $125 $260 #
straight-curve $-1 -40.683614612262339 -28.382802615845041 0 0 0 -1 I I #
coedge $-1 $186 $191 $126 $197 reversed $120 $-1 #
edge $-1 $200 -40.683614612262339 $194 40.683614612262339 $196 $261 forward 7 unknown #
coedge $-1 $127 $252 $186 $249 reversed $199 $-1 #
loop $-1 $-1 $127 $183 #
vertex $-1 $128 $262 #
straight-curve $-1 40.683614612262339 -28.382802615845041 0 0 0 1 I I #
point $-1 -40.683614612262339 -28.382802615845041 -1.998196270822989 #
point $-1 40.683614612262339 -28.382802615845041 -1.998196270822989 #
loop $-1 $-1 $141 $133 #
plane-surface $-1 0 28.382802615845041 0 0 -1 0 0 0 -1 forward_v I I I I #
coedge $-1 $207 $136 $138 $211 reversed $79 $-1 #
coedge $-1 $136 $206 $263 $264 reversed $79 $-1 #
coedge $-1 $144 $139 $136 $209 forward $134 $-1 #
edge $-1 $212 -4.8087156884153615 $265 -2.0393421623257844 $208 $266 forward 7 unknown #
coedge $-1 $138 $137 $215 $267 reversed $49 $-1 #
edge $-1 $268 -56.76560523169006 $212 -52.054065484207015 $206 $269 forward 7 unknown #
vertex $-1 $140 $270 #
straight-curve $-1 1.0713814362207366 25.613429089755464 8.7959229542789998 1 0 0 I I #
coedge $-1 $263 $141 $144 $219 reversed $204 $-1 #
coedge $-1 $141 $263 $210 $267 forward $204 $-1 #
vertex $-1 $142 $271 #
straight-curve $-1 -6.5997382893775161 28.382802615845041 49.367501712432073 0 0 1 I I #
straight-curve $-1 -6.5997382893775161 -4.9831823373914119 50.908546983307374 0 0.5877852410284794 -0.80901700255871778 I I #
edge $-1 $265 -10.885264034260462 $145 6.5997382893775161 $214 $272 forward 7 unknown #
point $-1 -6.5997382893775161 28.382802615845041 8.7959229542790016 #
point $-1 -6.5997382893775161 25.613429089755464 8.7959229542789998 #
edge $-1 $273 1 $273 0 $148 $-1 forward 7 unknown #
vertex $-1 $149 $274 #
ellipse-curve $-1 -1.6040233397666697 24.165284809202202 4.831892904740239 0 0.80901700255871778 0.5877852410284794 1 0 0 1 I I #
point $-1 -0.60402333976666966 26.998115852800243 6.8900650723064985 #
edge $-1 $275 1 $275 0 $152 $-1 forward 7 unknown #
vertex $-1 $153 $276 #
ellipse-curve $-1 5.8895490846496088 24.165284809202202 4.831892904740239 0 0.80901700255871778 0.5877852410284794 1 0 0 1 I I #
point $-1 6.8895490846496088 26.998115852800243 6.8900650723064985 #
plane-surface $-1 40.683614612262339 0 0 -1 0 0 0 0 1 forward_v I I I I #
coedge $-1 $161 $159 $163 $235 reversed $101 $-1 #
edge $-1 $174 -8.7959229542790016 $237 8.7959229542790016 $173 $277 forward 7 unknown #
vertex $-1 $235 $278 #
straight-curve $-1 -40.683614612262339 -28.382802615845041 0 0 0 -1 I I #
edge $-1 $233 -28.382802615845041 $237 28.382802615845041 $231 $279 forward 7 unknown #
straight-curve $-1 0 -28.382802615845041 -8.7959229542790016 -1 0 0 I I #
vertex $-1 $166 $280 #
straight-curve $-1 0 28.382802615845041 -8.7959229542790016 1 0 0 I I #
point $-1 40.683614612262339 28.382802615845041 -8.7959229542790016 #
point $-1 40.683614612262339 -28.382802615845041 -8.7959229542790016 #
straight-curve $-1 -40.683614612262339 0 8.7959229542790016 0 -1 0 I I #
point $-1 -40.683614612262339 28.382802615845041 8.7959229542790016 #
point $-1 -40.683614612262339 -28.382802615845041 8.7959229542790016 #
straight-curve $-1 40.683614612262339 -28.382802615845041 0 0 0 -1 I I #
straight-curve $-1 40.683614612262339 28.382802615845041 0 0 0 -1 I I #
plane-surface $-1 40.683614612262339 0 0 -1 0 0 0 0 1 forward_v I I I I #
coedge $-1 $281 $250 $190 $255 forward $184 $-1 #
coedge $-1 $191 $186 $281 $282 forward $120 $-1 #
edge $-1 $200 -4.3763494968834813 $283 4.3763494968834848 $198 $284 forward 7 unknown #
coedge $-1 $247 $285 $187 $251 reversed $184 $-1 #
edge $-1 $258 -40.683614612262339 $253 40.683614612262339 $250 $286 forward 7 unknown #
coedge $-1 $198 $188 $285 $287 forward $199 $-1 #
vertex $-1 $189 $288 #
straight-curve $-1 40.683614612262339 -32.759152112728522 -1.998196270822989 0 1 0 I I #
edge $-1 $258 -2.3705531790198195 $256 2.3705531790198195 $190 $289 forward 7 unknown #
vertex $-1 $192 $290 #
straight-curve $-1 -40.683614612262339 -32.759152112728522 -6.7393026288626281 0 1 0 I I #
vertex $-1 $193 $291 #
straight-curve $-1 -40.683614612262339 -32.759152112728522 -1.998196270822989 0 -1 0 I I #
point $-1 -40.683614612262339 -28.382802615845041 -6.7393026288626281 #
straight-curve $-1 0 -28.382802615845041 -6.7393026288626281 -1 0 0 I I #
point $-1 40.683614612262339 -28.382802615845041 -6.7393026288626281 #
coedge $-1 $215 $214 $207 $264 forward $204 $-1 #
edge $-1 $265 40.571578758153073 $268 44.383294522098055 $263 $292 forward 7 unknown #
vertex $-1 $219 $293 #
straight-curve $-1 10.885264034260462 30.422144778170825 8.7959229542789998 0 1 0 I I #
edge $-1 $268 -9.8138825980397257 $216 7.6711197255982526 $215 $294 forward 7 unknown #
vertex $-1 $267 $295 #
straight-curve $-1 10.885264034260462 -4.9831823373914119 50.908546983307374 0 -0.5877852410284794 0.80901700255871778 I I #
point $-1 10.885264034260462 25.613429089755464 8.7959229542789998 #
point $-1 -6.5997382893775161 28.382802615845037 4.9842071903340184 #
straight-curve $-1 0 28.382802615845041 8.7959229542790016 -1 0 0 I I #
vertex $-1 $222 $296 #
point $-1 -0.60402333976666966 24.165284809202202 4.831892904740239 #
vertex $-1 $226 $297 #
point $-1 6.8895490846496088 24.165284809202202 4.831892904740239 #
straight-curve $-1 -40.683614612262339 28.382802615845041 0 0 0 -1 I I #
point $-1 -40.683614612262339 -28.382802615845041 -8.7959229542790016 #
straight-curve $-1 -40.683614612262339 0 -8.7959229542790016 0 1 0 I I #
point $-1 -40.683614612262339 28.382802615845041 -8.7959229542790016 #
coedge $-1 $285 $247 $248 $282 reversed $184 $-1 #
edge $-1 $283 -40.683614612262339 $256 40.683614612262339 $281 $298 forward 7 unknown #
vertex $-1 $287 $299 #
straight-curve $-1 40.683614612262339 -32.759152112728522 -6.7393026288626281 0 -1 0 I I #
coedge $-1 $250 $281 $252 $287 reversed $184 $-1 #
straight-curve $-1 0 -37.135501609612007 -1.998196270822989 1 0 0 I I #
edge $-1 $253 -2.3705531790198195 $283 2.3705531790198195 $252 $300 forward 7 unknown #
point $-1 40.683614612262339 -37.135501609612007 -1.998196270822989 #
straight-curve $-1 -40.683614612262339 -37.135501609612007 -4.3687494498428086 0 0 -1 I I #
point $-1 -40.683614612262339 -37.135501609612007 -6.7393026288626281 #
point $-1 -40.683614612262339 -37.135501609612007 -1.998196270822989 #
straight-curve $-1 10.885264034260462 28.382802615845041 49.367501712432073 0 0 -1 I I #
point $-1 10.885264034260462 28.382802615845041 8.7959229542790016 #
straight-curve $-1 1.0713814362207366 28.382802615845041 4.9842071903340184 -1 0 0 I I #
point $-1 10.885264034260462 28.382802615845037 4.9842071903340184 #
point $-1 -1.6040233397666697 23.356267806643483 4.2441076637117598 #
point $-1 5.8895490846496088 23.356267806643483 4.2441076637117598 #
straight-curve $-1 0 -37.135501609612007 -6.7393026288626281 -1 0 0 I I #
point $-1 40.683614612262339 -37.135501609612007 -6.7393026288626281 #
straight-curve $-1 40.683614612262339 -37.135501609612007 -4.3687494498428086 0 0 -1 I I #
End-of-ACIS-data 