500 0 18 0           
7 Unknown 11 ACIS 5.0 NT 24 Fri Mar 26 19:45:09 1999 
-1 9.9999999999999995e-007 1e-010 
body $-1 $18 $-1 $19 #
body $-1 $20 $-1 $21 #
body $-1 $22 $-1 $23 #
body $-1 $24 $-1 $25 #
body $-1 $26 $-1 $27 #
body $-1 $28 $-1 $29 #
body $-1 $30 $-1 $31 #
body $-1 $32 $-1 $33 #
body $-1 $34 $-1 $35 #
body $-1 $36 $-1 $37 #
body $-1 $38 $-1 $39 #
body $-1 $40 $-1 $41 #
body $-1 $42 $-1 $43 #
body $-1 $44 $-1 $45 #
body $-1 $46 $-1 $47 #
body $-1 $48 $-1 $49 #
body $-1 $50 $-1 $51 #
body $-1 $52 $-1 $53 #
lump $-1 $-1 $54 $0 #
transform $-1 1 0 0 0 1 0 0 0 1 63.910641804254283 37.000179297058132 9.8485721547008147 1 rotate no_reflect no_shear #
lump $-1 $-1 $55 $1 #
transform $-1 1 0 0 0 1 0 0 0 1 63.910641804254283 37.000179297058132 9.8485721547008147 1 rotate no_reflect no_shear #
lump $-1 $-1 $56 $2 #
transform $-1 1 0 0 0 1 0 0 0 1 63.910641804254283 37.000179297058132 9.8485721547008147 1 rotate no_reflect no_shear #
lump $-1 $-1 $57 $3 #
transform $-1 1 0 0 0 1 0 0 0 1 63.910641804254283 37.000179297058132 9.8485721547008147 1 rotate no_reflect no_shear #
lump $-1 $-1 $58 $4 #
transform $-1 1 0 0 0 1 0 0 0 1 63.910641804254283 37.000179297058132 9.8485721547008147 1 rotate no_reflect no_shear #
lump $-1 $-1 $59 $5 #
transform $-1 1 0 0 0 1 0 0 0 1 63.910641804254283 37.000179297058132 9.8485721547008147 1 rotate no_reflect no_shear #
lump $-1 $-1 $60 $6 #
transform $-1 1 0 0 0 1 0 0 0 1 63.910641804254283 37.000179297058132 9.8485721547008147 1 rotate no_reflect no_shear #
lump $-1 $-1 $61 $7 #
transform $-1 1 0 0 0 1 0 0 0 1 63.910641804254283 37.000179297058132 9.8485721547008147 1 rotate no_reflect no_shear #
lump $-1 $-1 $62 $8 #
transform $-1 1 0 0 0 1 0 0 0 1 63.910641804254283 37.000179297058132 9.8485721547008147 1 rotate no_reflect no_shear #
lump $-1 $-1 $63 $9 #
transform $-1 1 0 0 0 1 0 0 0 1 63.910641804254283 37.000179297058132 9.8485721547008147 1 rotate no_reflect no_shear #
lump $-1 $-1 $64 $10 #
transform $-1 1 0 0 0 1 0 0 0 1 63.910641804254283 37.000179297058132 9.8485721547008147 1 rotate no_reflect no_shear #
lump $-1 $-1 $65 $11 #
transform $-1 1 0 0 0 1 0 0 0 1 63.910641804254283 37.000179297058132 9.8485721547008147 1 rotate no_reflect no_shear #
lump $-1 $-1 $66 $12 #
transform $-1 1 0 0 0 1 0 0 0 1 63.910641804254283 37.000179297058132 9.8485721547008147 1 rotate no_reflect no_shear #
lump $-1 $-1 $67 $13 #
transform $-1 1 0 0 0 1 0 0 0 1 63.910641804254283 37.000179297058132 9.8485721547008147 1 rotate no_reflect no_shear #
lump $-1 $-1 $68 $14 #
transform $-1 1 0 0 0 1 0 0 0 1 63.910641804254283 37.000179297058132 9.8485721547008147 1 rotate no_reflect no_shear #
lump $-1 $-1 $69 $15 #
transform $-1 1 0 0 0 1 0 0 0 1 63.910641804254283 37.000179297058132 9.8485721547008147 1 rotate no_reflect no_shear #
lump $-1 $-1 $70 $16 #
transform $-1 1 0 0 0 1 0 0 0 1 63.910641804254283 37.000179297058132 9.8485721547008147 1 rotate no_reflect no_shear #
lump $-1 $-1 $71 $17 #
transform $-1 1 0 0 0 1 0 0 0 1 63.910641804254283 37.000179297058132 9.8485721547008147 1 rotate no_reflect no_shear #
shell $-1 $-1 $-1 $72 $-1 $18 #
shell $-1 $-1 $-1 $73 $-1 $20 #
shell $-1 $-1 $-1 $74 $-1 $22 #
shell $-1 $-1 $-1 $75 $-1 $24 #
shell $-1 $-1 $-1 $76 $-1 $26 #
shell $-1 $-1 $-1 $77 $-1 $28 #
shell $-1 $-1 $-1 $78 $-1 $30 #
shell $-1 $-1 $-1 $79 $-1 $32 #
shell $-1 $-1 $-1 $80 $-1 $34 #
shell $-1 $-1 $-1 $81 $-1 $36 #
shell $-1 $-1 $-1 $82 $-1 $38 #
shell $-1 $-1 $-1 $83 $-1 $40 #
shell $-1 $-1 $-1 $84 $-1 $42 #
shell $-1 $-1 $-1 $85 $-1 $44 #
shell $-1 $-1 $-1 $86 $-1 $46 #
shell $-1 $-1 $-1 $87 $-1 $48 #
shell $-1 $-1 $-1 $88 $-1 $50 #
shell $-1 $-1 $-1 $89 $-1 $52 #
face $-1 $90 $91 $54 $-1 $92 forward single #
face $-1 $93 $94 $55 $-1 $95 reversed single #
face $-1 $96 $97 $56 $-1 $98 reversed single #
face $-1 $99 $100 $57 $-1 $101 reversed single #
face $-1 $102 $103 $58 $-1 $104 forward single #
face $-1 $105 $106 $59 $-1 $107 forward single #
face $-1 $108 $109 $60 $-1 $110 reversed single #
face $-1 $111 $112 $61 $-1 $113 forward single #
face $-1 $114 $115 $62 $-1 $116 forward single #
face $-1 $117 $118 $63 $-1 $119 reversed single #
face $-1 $120 $121 $64 $-1 $122 forward single #
face $-1 $123 $124 $65 $-1 $125 forward single #
face $-1 $126 $127 $66 $-1 $128 reversed single #
face $-1 $129 $130 $67 $-1 $131 forward single #
face $-1 $132 $133 $68 $-1 $134 forward single #
face $-1 $135 $136 $69 $-1 $137 reversed single #
face $-1 $138 $139 $70 $-1 $140 forward single #
face $-1 $141 $142 $71 $-1 $143 forward single #
face $-1 $144 $145 $54 $-1 $146 reversed single #
loop $-1 $-1 $147 $72 #
plane-surface $-1 0 0 9.8485721547008147 0 0 1 1 0 0 forward_v I I I I #
face $-1 $148 $149 $55 $-1 $150 reversed single #
loop $-1 $-1 $151 $73 #
plane-surface $-1 0 -31.45687016921508 4.239992604508604 0 0 1 1 0 0 forward_v I I I I #
face $-1 $152 $153 $56 $-1 $154 reversed single #
loop $-1 $-1 $155 $74 #
plane-surface $-1 0 30.785678269914435 6.8485721547008147 0 0 1 1 0 0 forward_v I I I I #
face $-1 $156 $157 $57 $-1 $158 reversed single #
loop $-1 $-1 $159 $75 #
plane-surface $-1 -173.47486744870312 -21.266964316384033 72.278221485050111 0 1 0 -0.85716730853699208 0 0.51503806187062418 forward_v I I I I #
face $-1 $160 $161 $58 $-1 $162 forward single #
loop $-1 $163 $164 $76 #
cone-surface $-1 -62.050343126262391 -18.988510646084691 7.643533908739645 0.85716730853699208 0 -0.51503806187062418 0.25751903093531209 0 0.42858365426849604 1 I I 0 1 0.5 forward I I I I #
face $-1 $165 $166 $59 $-1 $167 forward single #
loop $-1 $168 $169 $77 #
cone-surface $-1 -62.050343126262391 -15.570830140635678 7.643533908739645 0.85716730853699208 0 -0.51503806187062418 0.25751903093531209 0 0.42858365426849604 1 I I 0 1 0.5 forward I I I I #
face $-1 $170 $171 $60 $-1 $172 reversed single #
loop $-1 $-1 $173 $78 #
plane-surface $-1 -173.47486744870312 -10.194645320344335 72.278221485050111 0 1 0 -0.85716730853699208 0 0.51503806187062418 forward_v I I I I #
face $-1 $174 $175 $61 $-1 $176 forward single #
loop $-1 $177 $178 $79 #
cone-surface $-1 -62.050343126262391 -7.9161916500449934 7.643533908739645 0.85716730853699208 0 -0.51503806187062418 0.25751903093531209 0 0.42858365426849604 1 I I 0 1 0.5 forward I I I I #
face $-1 $179 $180 $62 $-1 $181 forward single #
loop $-1 $182 $183 $80 #
cone-surface $-1 -62.050343126262391 -4.4985111445959802 7.643533908739645 0.85716730853699208 0 -0.51503806187062418 0.25751903093531209 0 0.42858365426849604 1 I I 0 1 0.5 forward I I I I #
face $-1 $184 $185 $63 $-1 $186 reversed single #
loop $-1 $-1 $187 $81 #
plane-surface $-1 -173.47486744870312 0.87767367569535892 72.278221485050111 0 1 0 -0.85716730853699208 0 0.51503806187062418 forward_v I I I I #
face $-1 $188 $189 $64 $-1 $190 forward single #
loop $-1 $191 $192 $82 #
cone-surface $-1 -62.050343126262391 3.1561273459947046 7.643533908739645 0.85716730853699208 0 -0.51503806187062418 0.25751903093531209 0 0.42858365426849604 1 I I 0 1 0.5 forward I I I I #
face $-1 $193 $194 $65 $-1 $195 forward single #
loop $-1 $196 $197 $83 #
cone-surface $-1 -62.050343126262391 6.5738078514437177 7.643533908739645 0.85716730853699208 0 -0.51503806187062418 0.25751903093531209 0 0.42858365426849604 1 I I 0 1 0.5 forward I I I I #
face $-1 $198 $199 $66 $-1 $200 reversed single #
loop $-1 $-1 $201 $84 #
plane-surface $-1 -173.47486744870312 11.949992671735057 72.278221485050111 0 1 0 -0.85716730853699208 0 0.51503806187062418 forward_v I I I I #
face $-1 $202 $203 $67 $-1 $204 forward single #
loop $-1 $205 $206 $85 #
cone-surface $-1 -62.050343126262391 14.228446342034403 7.643533908739645 0.85716730853699208 0 -0.51503806187062418 0.25751903093531209 0 0.42858365426849604 1 I I 0 1 0.5 forward I I I I #
face $-1 $207 $208 $68 $-1 $209 forward single #
loop $-1 $210 $211 $86 #
cone-surface $-1 -62.050343126262391 17.646126847483416 7.643533908739645 0.85716730853699208 0 -0.51503806187062418 0.25751903093531209 0 0.42858365426849604 1 I I 0 1 0.5 forward I I I I #
face $-1 $212 $213 $69 $-1 $214 reversed single #
loop $-1 $-1 $215 $87 #
plane-surface $-1 63.910643901608026 -10.486223357516034 184.42653567795185 0 -1 0 -0.70710678939079041 0 -0.70710677298230451 forward_v I I I I #
face $-1 $216 $217 $70 $-1 $218 forward single #
loop $-1 $219 $220 $88 #
cone-surface $-1 59.469993042598745 -18.475058031957339 5.4079233524832091 -0.70710678939079041 0 -0.70710677298230451 0.70710677298230451 0 -0.70710678939079041 1 I I 0 1 1 forward I I I I #
face $-1 $221 $222 $71 $-1 $223 forward single #
loop $-1 $224 $225 $89 #
cone-surface $-1 59.469993042598745 -13.681757227292554 5.4079233524832091 -0.70710678939079041 0 -0.70710677298230451 0.70710677298230451 0 -0.70710678939079041 1 I I 0 1 1 forward I I I I #
face $-1 $226 $227 $54 $-1 $228 reversed single #
loop $-1 $-1 $229 $90 #
plane-surface $-1 0 0 -9.8485721547008147 0 0 1 1 0 0 forward_v I I I I #
coedge $-1 $230 $231 $232 $233 forward $91 $-1 #
face $-1 $234 $235 $55 $-1 $236 reversed single #
loop $-1 $-1 $237 $93 #
plane-surface $-1 0 -25.913561041372027 7.0442823796047094 0 -1 0 0 0 -1 forward_v I I I I #
coedge $-1 $238 $239 $240 $241 reversed $94 $-1 #
face $-1 $242 $243 $56 $-1 $244 forward single #
loop $-1 $-1 $245 $96 #
plane-surface $-1 0 24.571177242770744 8.3485721547008147 0 1 0 0 0 1 forward_v I I I I #
coedge $-1 $246 $247 $248 $249 reversed $97 $-1 #
face $-1 $250 $251 $57 $-1 $252 reversed single #
loop $-1 $-1 $253 $99 #
plane-surface $-1 -63.910641804254297 -17.279670393360181 6.4453953095084699 -0.85716730853699208 0 0.51503806187062418 0.51503806187062418 0 0.85716730853699208 forward_v I I I I #
coedge $-1 $254 $255 $256 $257 reversed $100 $-1 #
face $-1 $-1 $258 $58 $-1 $259 forward single #
loop $-1 $260 $261 $102 #
cone-surface $-1 -60.998170058837218 -18.988510646084691 7.0113245699069999 0.85716730853699208 0 -0.51503806187062418 0.12875951546765604 0 0.21429182713424802 1 I I -0.70710678118654746 0.70710678118654746 0.25 forward I I I I #
loop $-1 $-1 $262 $76 #
coedge $-1 $164 $164 $263 $264 reversed $103 $-1 #
face $-1 $-1 $265 $59 $-1 $266 forward single #
loop $-1 $267 $268 $105 #
cone-surface $-1 -60.998170058837218 -15.570830140635678 7.0113245699069999 0.85716730853699208 0 -0.51503806187062418 0.12875951546765604 0 0.21429182713424802 1 I I -0.70710678118654746 0.70710678118654746 0.25 forward I I I I #
loop $-1 $-1 $269 $77 #
coedge $-1 $169 $169 $270 $271 reversed $106 $-1 #
face $-1 $272 $273 $60 $-1 $274 reversed single #
loop $-1 $-1 $275 $108 #
plane-surface $-1 -63.910641804254297 -6.2073513973204832 6.4453953095084699 -0.85716730853699208 0 0.51503806187062418 0.51503806187062418 0 0.85716730853699208 forward_v I I I I #
coedge $-1 $276 $277 $278 $279 reversed $109 $-1 #
face $-1 $-1 $280 $61 $-1 $281 forward single #
loop $-1 $282 $283 $111 #
cone-surface $-1 -60.998170058837218 -7.9161916500449934 7.0113245699069999 0.85716730853699208 0 -0.51503806187062418 0.12875951546765604 0 0.21429182713424802 1 I I -0.70710678118654746 0.70710678118654746 0.25 forward I I I I #
loop $-1 $-1 $284 $79 #
coedge $-1 $178 $178 $285 $286 reversed $112 $-1 #
face $-1 $-1 $287 $62 $-1 $288 forward single #
loop $-1 $289 $290 $114 #
cone-surface $-1 -60.998170058837218 -4.4985111445959802 7.0113245699069999 0.85716730853699208 0 -0.51503806187062418 0.12875951546765604 0 0.21429182713424802 1 I I -0.70710678118654746 0.70710678118654746 0.25 forward I I I I #
loop $-1 $-1 $291 $80 #
coedge $-1 $183 $183 $292 $293 reversed $115 $-1 #
face $-1 $294 $295 $63 $-1 $296 reversed single #
loop $-1 $-1 $297 $117 #
plane-surface $-1 -63.910641804254297 4.8649675987192111 6.4453953095084699 -0.85716730853699208 0 0.51503806187062418 0.51503806187062418 0 0.85716730853699208 forward_v I I I I #
coedge $-1 $298 $299 $300 $301 reversed $118 $-1 #
face $-1 $-1 $302 $64 $-1 $303 forward single #
loop $-1 $304 $305 $120 #
cone-surface $-1 -60.998170058837218 3.1561273459947046 7.0113245699069999 0.85716730853699208 0 -0.51503806187062418 0.12875951546765604 0 0.21429182713424802 1 I I -0.70710678118654746 0.70710678118654746 0.25 forward I I I I #
loop $-1 $-1 $306 $82 #
coedge $-1 $192 $192 $307 $308 reversed $121 $-1 #
face $-1 $-1 $309 $65 $-1 $310 forward single #
loop $-1 $311 $312 $123 #
cone-surface $-1 -60.998170058837218 6.5738078514437177 7.0113245699069999 0.85716730853699208 0 -0.51503806187062418 0.12875951546765604 0 0.21429182713424802 1 I I -0.70710678118654746 0.70710678118654746 0.25 forward I I I I #
loop $-1 $-1 $313 $83 #
coedge $-1 $197 $197 $314 $315 reversed $124 $-1 #
face $-1 $316 $317 $66 $-1 $318 reversed single #
loop $-1 $-1 $319 $126 #
plane-surface $-1 -63.910641804254297 15.937286594758909 6.4453953095084699 -0.85716730853699208 0 0.51503806187062418 0.51503806187062418 0 0.85716730853699208 forward_v I I I I #
coedge $-1 $320 $321 $322 $323 reversed $127 $-1 #
face $-1 $-1 $324 $67 $-1 $325 forward single #
loop $-1 $326 $327 $129 #
cone-surface $-1 -60.998170058837218 14.228446342034403 7.0113245699069999 0.85716730853699208 0 -0.51503806187062418 0.12875951546765604 0 0.21429182713424802 1 I I -0.70710678118654746 0.70710678118654746 0.25 forward I I I I #
loop $-1 $-1 $328 $85 #
coedge $-1 $206 $206 $329 $330 reversed $130 $-1 #
face $-1 $-1 $331 $68 $-1 $332 forward single #
loop $-1 $333 $334 $132 #
cone-surface $-1 -60.998170058837218 17.646126847483416 7.0113245699069999 0.85716730853699208 0 -0.51503806187062418 0.12875951546765604 0 0.21429182713424802 1 I I -0.70710678118654746 0.70710678118654746 0.25 forward I I I I #
loop $-1 $-1 $335 $86 #
coedge $-1 $211 $211 $336 $337 reversed $133 $-1 #
face $-1 $338 $339 $69 $-1 $340 reversed single #
loop $-1 $-1 $341 $135 #
plane-surface $-1 -26.472653566614142 -16.078407629624948 94.043240307083408 0.70710678939079041 0 0.70710677298230451 0.70710677298230451 0 -0.70710678939079041 forward_v I I I I #
coedge $-1 $342 $343 $344 $345 reversed $136 $-1 #
face $-1 $-1 $346 $70 $-1 $347 forward single #
loop $-1 $348 $349 $138 #
cone-surface $-1 57.77010547236371 -18.475058031957339 3.7080358216942422 -0.70710678939079041 0 -0.70710677298230451 0.35355338649115226 0 -0.35355339469539521 1 I I -0.70710678118654746 0.70710678118654746 0.5 forward I I I I #
loop $-1 $-1 $350 $88 #
coedge $-1 $220 $220 $351 $352 reversed $139 $-1 #
face $-1 $-1 $353 $71 $-1 $354 forward single #
loop $-1 $355 $356 $141 #
cone-surface $-1 57.77010547236371 -13.681757227292554 3.7080358216942422 -0.70710678939079041 0 -0.70710677298230451 0.35355338649115226 0 -0.35355339469539521 1 I I -0.70710678118654746 0.70710678118654746 0.5 forward I I I I #
loop $-1 $-1 $357 $89 #
coedge $-1 $225 $225 $358 $359 reversed $142 $-1 #
face $-1 $360 $361 $54 $-1 $362 reversed single #
loop $-1 $-1 $363 $144 #
plane-surface $-1 0 -37.000179297058132 0 0 1 0 0 0 1 forward_v I I I I #
coedge $-1 $364 $365 $366 $367 forward $145 $-1 #
coedge $-1 $368 $147 $369 $370 forward $91 $-1 #
coedge $-1 $147 $368 $371 $372 forward $91 $-1 #
coedge $-1 $373 $374 $147 $233 reversed $375 $-1 #
edge $-1 $376 -37.000179297058132 $377 37.000179297058132 $232 $378 forward 7 unknown #
face $-1 $379 $380 $55 $-1 $381 reversed single #
loop $-1 $-1 $382 $148 #
plane-surface $-1 -63.910641804254283 0 0 1 0 0 0 0 -1 forward_v I I I I #
coedge $-1 $383 $384 $385 $386 reversed $149 $-1 #
coedge $-1 $387 $151 $388 $389 reversed $94 $-1 #
coedge $-1 $151 $387 $383 $390 forward $94 $-1 #
coedge $-1 $385 $391 $151 $241 forward $392 $-1 #
edge $-1 $393 -21.271744212450592 $394 -10.185125956764487 $240 $395 forward 7 unknown #
face $-1 $396 $397 $56 $-1 $398 reversed single #
loop $-1 $-1 $399 $152 #
plane-surface $-1 0 0 9.8485721547008147 0 0 1 1 0 0 forward_v I I I I #
coedge $-1 $400 $401 $402 $403 reversed $153 $-1 #
coedge $-1 $404 $155 $400 $405 forward $97 $-1 #
coedge $-1 $155 $404 $406 $407 reversed $97 $-1 #
coedge $-1 $408 $409 $155 $249 forward $397 $-1 #
edge $-1 $410 9.1783381078135271 $411 21.607340162100908 $248 $412 forward 7 unknown #
face $-1 $413 $414 $57 $-1 $415 reversed single #
loop $-1 $-1 $416 $156 #
plane-surface $-1 -173.47486744870312 -13.292376470336329 72.278221485050111 0 -1 0 0.85716730853699208 0 -0.51503806187062418 forward_v I I I I #
coedge $-1 $417 $418 $419 $420 reversed $157 $-1 #
coedge $-1 $255 $159 $421 $422 reversed $100 $-1 #
coedge $-1 $159 $254 $417 $423 reversed $100 $-1 #
coedge $-1 $419 $424 $159 $257 forward $425 $-1 #
edge $-1 $426 22.826791920097278 $427 24.871626795499196 $256 $428 forward 7 unknown #
loop $-1 $-1 $263 $160 #
plane-surface $-1 -63.910641804254297 -17.279670393360181 6.4453953095084699 -0.85716730853699208 0 0.51503806187062418 0.51503806187062418 0 0.85716730853699208 forward_v I I I I #
loop $-1 $-1 $429 $102 #
coedge $-1 $261 $261 $262 $430 reversed $161 $-1 #
coedge $-1 $262 $262 $261 $430 forward $163 $-1 #
coedge $-1 $263 $263 $164 $264 forward $258 $-1 #
edge $-1 $431 0 $431 6.2831853071796004 $263 $432 forward 7 unknown #
loop $-1 $-1 $270 $165 #
plane-surface $-1 -63.910641804254297 -17.279670393360181 6.4453953095084699 -0.85716730853699208 0 0.51503806187062418 0.51503806187062418 0 0.85716730853699208 forward_v I I I I #
loop $-1 $-1 $433 $105 #
coedge $-1 $268 $268 $269 $434 reversed $166 $-1 #
coedge $-1 $269 $269 $268 $434 forward $168 $-1 #
coedge $-1 $270 $270 $169 $271 forward $265 $-1 #
edge $-1 $435 0 $435 6.2831853071796004 $270 $436 forward 7 unknown #
face $-1 $437 $438 $60 $-1 $439 forward single #
loop $-1 $-1 $440 $170 #
plane-surface $-1 -173.47486744870312 -2.220057474296631 72.278221485050111 0 -1 0 0.85716730853699208 0 -0.51503806187062418 forward_v I I I I #
coedge $-1 $441 $442 $443 $444 reversed $171 $-1 #
coedge $-1 $277 $173 $445 $446 reversed $109 $-1 #
coedge $-1 $173 $276 $441 $447 reversed $109 $-1 #
coedge $-1 $443 $448 $173 $279 forward $438 $-1 #
edge $-1 $449 22.826791920097278 $450 24.871626795499196 $278 $451 forward 7 unknown #
loop $-1 $-1 $285 $174 #
plane-surface $-1 -63.910641804254297 -6.2073513973204832 6.4453953095084699 -0.85716730853699208 0 0.51503806187062418 0.51503806187062418 0 0.85716730853699208 forward_v I I I I #
loop $-1 $-1 $452 $111 #
coedge $-1 $283 $283 $284 $453 reversed $175 $-1 #
coedge $-1 $284 $284 $283 $453 forward $177 $-1 #
coedge $-1 $285 $285 $178 $286 forward $280 $-1 #
edge $-1 $454 0 $454 6.2831853071796004 $285 $455 forward 7 unknown #
loop $-1 $-1 $292 $179 #
plane-surface $-1 -63.910641804254297 -6.2073513973204832 6.4453953095084699 -0.85716730853699208 0 0.51503806187062418 0.51503806187062418 0 0.85716730853699208 forward_v I I I I #
loop $-1 $-1 $456 $114 #
coedge $-1 $290 $290 $291 $457 reversed $180 $-1 #
coedge $-1 $291 $291 $290 $457 forward $182 $-1 #
coedge $-1 $292 $292 $183 $293 forward $287 $-1 #
edge $-1 $458 0 $458 6.2831853071796004 $292 $459 forward 7 unknown #
face $-1 $460 $461 $63 $-1 $462 forward single #
loop $-1 $-1 $463 $184 #
plane-surface $-1 -173.47486744870312 8.8522615217430634 72.278221485050111 0 -1 0 0.85716730853699208 0 -0.51503806187062418 forward_v I I I I #
coedge $-1 $464 $465 $466 $467 reversed $185 $-1 #
coedge $-1 $299 $187 $468 $469 reversed $118 $-1 #
coedge $-1 $187 $298 $464 $470 reversed $118 $-1 #
coedge $-1 $466 $471 $187 $301 forward $461 $-1 #
edge $-1 $472 22.826791920097278 $473 24.871626795499196 $300 $474 forward 7 unknown #
loop $-1 $-1 $307 $188 #
plane-surface $-1 -63.910641804254297 4.8649675987192111 6.4453953095084699 -0.85716730853699208 0 0.51503806187062418 0.51503806187062418 0 0.85716730853699208 forward_v I I I I #
loop $-1 $-1 $475 $120 #
coedge $-1 $305 $305 $306 $476 reversed $189 $-1 #
coedge $-1 $306 $306 $305 $476 forward $191 $-1 #
coedge $-1 $307 $307 $192 $308 forward $302 $-1 #
edge $-1 $477 0 $477 6.2831853071796004 $307 $478 forward 7 unknown #
loop $-1 $-1 $314 $193 #
plane-surface $-1 -63.910641804254297 4.8649675987192111 6.4453953095084699 -0.85716730853699208 0 0.51503806187062418 0.51503806187062418 0 0.85716730853699208 forward_v I I I I #
loop $-1 $-1 $479 $123 #
coedge $-1 $312 $312 $313 $480 reversed $194 $-1 #
coedge $-1 $313 $313 $312 $480 forward $196 $-1 #
coedge $-1 $314 $314 $197 $315 forward $309 $-1 #
edge $-1 $481 0 $481 6.2831853071796004 $314 $482 forward 7 unknown #
face $-1 $483 $484 $66 $-1 $485 forward single #
loop $-1 $-1 $486 $198 #
plane-surface $-1 -173.47486744870312 19.924580517782761 72.278221485050111 0 -1 0 0.85716730853699208 0 -0.51503806187062418 forward_v I I I I #
coedge $-1 $487 $488 $489 $490 reversed $199 $-1 #
coedge $-1 $321 $201 $491 $492 reversed $127 $-1 #
coedge $-1 $201 $320 $487 $493 reversed $127 $-1 #
coedge $-1 $489 $494 $201 $323 forward $484 $-1 #
edge $-1 $495 22.826791920097278 $496 24.871626795499196 $322 $497 forward 7 unknown #
loop $-1 $-1 $329 $202 #
plane-surface $-1 -63.910641804254297 15.937286594758909 6.4453953095084699 -0.85716730853699208 0 0.51503806187062418 0.51503806187062418 0 0.85716730853699208 forward_v I I I I #
loop $-1 $-1 $498 $129 #
coedge $-1 $327 $327 $328 $499 reversed $203 $-1 #
coedge $-1 $328 $328 $327 $499 forward $205 $-1 #
coedge $-1 $329 $329 $206 $330 forward $324 $-1 #
edge $-1 $500 0 $500 6.2831853071796004 $329 $501 forward 7 unknown #
loop $-1 $-1 $336 $207 #
plane-surface $-1 -63.910641804254297 15.937286594758909 6.4453953095084699 -0.85716730853699208 0 0.51503806187062418 0.51503806187062418 0 0.85716730853699208 forward_v I I I I #
loop $-1 $-1 $502 $132 #
coedge $-1 $334 $334 $335 $503 reversed $208 $-1 #
coedge $-1 $335 $335 $334 $503 forward $210 $-1 #
coedge $-1 $336 $336 $211 $337 forward $331 $-1 #
edge $-1 $504 0 $504 6.2831853071796004 $336 $505 forward 7 unknown #
face $-1 $506 $507 $69 $-1 $508 forward single #
loop $-1 $-1 $509 $212 #
plane-surface $-1 63.910643901608026 -21.670591901733864 184.42653567795185 0 1 0 0.70710678939079041 0 0.70710677298230451 forward_v I I I I #
coedge $-1 $510 $511 $512 $513 reversed $213 $-1 #
coedge $-1 $343 $215 $514 $515 reversed $136 $-1 #
coedge $-1 $215 $342 $510 $516 reversed $136 $-1 #
coedge $-1 $512 $517 $215 $345 forward $507 $-1 #
edge $-1 $518 -31.95531985345027 $519 -25.766690681218485 $344 $520 forward 7 unknown #
loop $-1 $-1 $351 $216 #
plane-surface $-1 -26.472653566614142 -16.078407629624948 94.043240307083408 0.70710678939079041 0 0.70710677298230451 0.70710677298230451 0 -0.70710678939079041 forward_v I I I I #
loop $-1 $-1 $521 $138 #
coedge $-1 $349 $349 $350 $522 reversed $217 $-1 #
coedge $-1 $350 $350 $349 $522 forward $219 $-1 #
coedge $-1 $351 $351 $220 $352 forward $346 $-1 #
edge $-1 $523 0 $523 6.2831853071796004 $351 $524 forward 7 unknown #
loop $-1 $-1 $358 $221 #
plane-surface $-1 -26.472653566614142 -16.078407629624948 94.043240307083408 0.70710678939079041 0 0.70710677298230451 0.70710677298230451 0 -0.70710678939079041 forward_v I I I I #
loop $-1 $-1 $525 $141 #
coedge $-1 $356 $356 $357 $526 reversed $222 $-1 #
coedge $-1 $357 $357 $356 $526 forward $224 $-1 #
coedge $-1 $358 $358 $225 $359 forward $353 $-1 #
edge $-1 $527 0 $527 6.2831853071796004 $358 $528 forward 7 unknown #
face $-1 $529 $530 $54 $-1 $531 reversed single #
loop $-1 $-1 $532 $226 #
plane-surface $-1 -63.910641804254283 0 0 1 0 0 0 0 -1 forward_v I I I I #
coedge $-1 $533 $371 $534 $535 forward $227 $-1 #
coedge $-1 $536 $229 $533 $537 forward $145 $-1 #
coedge $-1 $229 $536 $538 $539 forward $145 $-1 #
coedge $-1 $374 $373 $229 $367 reversed $375 $-1 #
edge $-1 $540 -37.000179297058132 $541 37.000179297058132 $366 $542 forward 7 unknown #
coedge $-1 $231 $230 $543 $544 forward $91 $-1 #
coedge $-1 $545 $546 $230 $370 reversed $530 $-1 #
edge $-1 $377 -63.910641804254283 $547 63.910641804254283 $369 $548 forward 7 unknown #
coedge $-1 $363 $549 $231 $372 reversed $227 $-1 #
edge $-1 $550 -63.910641804254283 $376 63.910641804254283 $371 $551 forward 7 unknown #
coedge $-1 $366 $232 $549 $552 forward $375 $-1 #
coedge $-1 $232 $366 $545 $553 reversed $375 $-1 #
loop $-1 $-1 $373 $529 #
vertex $-1 $233 $554 #
vertex $-1 $233 $555 #
straight-curve $-1 63.910641804254283 0 9.8485721547008147 0 1 0 I I #
face $-1 $556 $557 $55 $-1 $558 forward single #
loop $-1 $-1 $388 $234 #
plane-surface $-1 0 -37.000179297058132 0 0 1 0 0 0 1 forward_v I I I I #
coedge $-1 $559 $560 $561 $562 forward $235 $-1 #
coedge $-1 $561 $237 $239 $390 reversed $149 $-1 #
coedge $-1 $237 $561 $563 $564 reversed $149 $-1 #
coedge $-1 $565 $240 $237 $386 forward $392 $-1 #
edge $-1 $394 0.71785141470624936 $566 6.32643096489846 $385 $567 forward 7 unknown #
coedge $-1 $239 $238 $559 $568 reversed $94 $-1 #
coedge $-1 $569 $570 $238 $389 forward $380 $-1 #
edge $-1 $571 -63.910641804254283 $393 63.910641804254283 $388 $572 forward 7 unknown #
edge $-1 $573 -63.910641804254283 $394 63.910641804254283 $383 $574 forward 7 unknown #
coedge $-1 $240 $565 $569 $575 forward $392 $-1 #
loop $-1 $-1 $385 $556 #
vertex $-1 $389 $576 #
vertex $-1 $241 $577 #
straight-curve $-1 63.910641804254283 -15.72843508460754 4.239992604508604 0 1 0 I I #
face $-1 $578 $579 $56 $-1 $580 reversed single #
loop $-1 $-1 $409 $242 #
plane-surface $-1 63.910641804254283 0 0 -1 0 0 0 0 1 forward_v I I I I #
coedge $-1 $581 $582 $401 $583 forward $243 $-1 #
coedge $-1 $584 $245 $246 $405 reversed $153 $-1 #
coedge $-1 $245 $584 $399 $583 reversed $153 $-1 #
coedge $-1 $585 $586 $245 $403 forward $579 $-1 #
edge $-1 $587 2.6742860773504074 $588 5.6742860773504074 $402 $589 forward 7 unknown #
coedge $-1 $247 $246 $586 $590 reversed $97 $-1 #
edge $-1 $410 -63.910641804254283 $587 63.910641804254283 $400 $591 forward 7 unknown #
coedge $-1 $592 $593 $247 $407 forward $594 $-1 #
edge $-1 $411 -63.910641804254283 $595 63.910641804254283 $406 $596 forward 7 unknown #
coedge $-1 $597 $248 $593 $598 reversed $397 $-1 #
coedge $-1 $248 $597 $584 $599 forward $397 $-1 #
vertex $-1 $249 $600 #
vertex $-1 $407 $601 #
straight-curve $-1 63.910641804254283 15.392839134957217 6.8485721547008147 0 1 0 I I #
face $-1 $-1 $425 $57 $-1 $602 forward single #
loop $-1 $-1 $603 $250 #
plane-surface $-1 -63.910641804254283 0 0 1 0 0 0 0 -1 forward_v I I I I #
coedge $-1 $604 $605 $606 $607 reversed $251 $-1 #
coedge $-1 $608 $253 $255 $423 forward $157 $-1 #
coedge $-1 $253 $608 $604 $609 forward $157 $-1 #
coedge $-1 $606 $256 $253 $420 forward $425 $-1 #
edge $-1 $427 -12.627129119703943 $610 -4.6525412736562384 $419 $611 forward 7 unknown #
coedge $-1 $612 $613 $254 $422 forward $414 $-1 #
edge $-1 $614 -29.69371543301656 $426 -26.290538587824241 $421 $615 forward 7 unknown #
edge $-1 $427 -3.9702597279414049 $614 -2.787470371894754e-014 $255 $616 forward 7 unknown #
coedge $-1 $256 $606 $612 $617 forward $425 $-1 #
loop $-1 $-1 $606 $413 #
vertex $-1 $422 $618 #
vertex $-1 $257 $619 #
straight-curve $-1 -86.737433724351561 -21.266964316384033 9.8485721547008147 1 0 0 I I #
coedge $-1 $429 $429 $-1 $620 reversed $260 $-1 #
edge $-1 $621 0 $621 6.2831853071796004 $261 $622 forward 7 unknown #
vertex $-1 $264 $623 #
ellipse-curve $-1 -62.888224366553331 -18.988510646084691 8.1469837321046441 -0.85716730853699208 0 0.51503806187062418 0.25751903093531209 0 0.42858365426849604 1 I I #
coedge $-1 $433 $433 $-1 $624 reversed $267 $-1 #
edge $-1 $625 0 $625 6.2831853071796004 $268 $626 forward 7 unknown #
vertex $-1 $271 $627 #
ellipse-curve $-1 -62.888224366553331 -15.570830140635678 8.1469837321046441 -0.85716730853699208 0 0.51503806187062418 0.25751903093531209 0 0.42858365426849604 1 I I #
face $-1 $-1 $628 $60 $-1 $629 reversed single #
loop $-1 $-1 $278 $272 #
plane-surface $-1 0 0 9.8485721547008147 0 0 1 1 0 0 forward_v I I I I #
coedge $-1 $630 $631 $632 $633 reversed $273 $-1 #
coedge $-1 $634 $275 $277 $447 forward $171 $-1 #
coedge $-1 $275 $634 $630 $635 forward $171 $-1 #
coedge $-1 $632 $278 $275 $444 forward $438 $-1 #
edge $-1 $450 -7.0909696216840938 $636 0.88361822436361059 $443 $637 forward 7 unknown #
coedge $-1 $638 $639 $276 $446 forward $628 $-1 #
edge $-1 $640 -29.69371543301656 $449 -26.290538587824241 $445 $641 forward 7 unknown #
edge $-1 $450 -3.9702597279414049 $640 -2.787470371894754e-014 $277 $642 forward 7 unknown #
coedge $-1 $278 $632 $638 $643 forward $438 $-1 #
vertex $-1 $279 $644 #
vertex $-1 $279 $645 #
straight-curve $-1 -86.737433724351561 -10.194645320344335 9.8485721547008147 1 0 0 I I #
coedge $-1 $452 $452 $-1 $646 reversed $282 $-1 #
edge $-1 $647 0 $647 6.2831853071796004 $283 $648 forward 7 unknown #
vertex $-1 $286 $649 #
ellipse-curve $-1 -62.888224366553331 -7.9161916500449934 8.1469837321046441 -0.85716730853699208 0 0.51503806187062418 0.25751903093531209 0 0.42858365426849604 1 I I #
coedge $-1 $456 $456 $-1 $650 reversed $289 $-1 #
edge $-1 $651 0 $651 6.2831853071796004 $290 $652 forward 7 unknown #
vertex $-1 $293 $653 #
ellipse-curve $-1 -62.888224366553331 -4.4985111445959802 8.1469837321046441 -0.85716730853699208 0 0.51503806187062418 0.25751903093531209 0 0.42858365426849604 1 I I #
face $-1 $-1 $654 $63 $-1 $655 reversed single #
loop $-1 $-1 $300 $294 #
plane-surface $-1 0 0 9.8485721547008147 0 0 1 1 0 0 forward_v I I I I #
coedge $-1 $656 $657 $658 $659 reversed $295 $-1 #
coedge $-1 $660 $297 $299 $470 forward $185 $-1 #
coedge $-1 $297 $660 $656 $661 forward $185 $-1 #
coedge $-1 $658 $300 $297 $467 forward $461 $-1 #
edge $-1 $473 -1.5548101236642466 $662 6.4197777223834578 $466 $663 forward 7 unknown #
coedge $-1 $664 $665 $298 $469 forward $654 $-1 #
edge $-1 $666 -29.69371543301656 $472 -26.290538587824241 $468 $667 forward 7 unknown #
edge $-1 $473 -3.9702597279414049 $666 -2.787470371894754e-014 $299 $668 forward 7 unknown #
coedge $-1 $300 $658 $664 $669 forward $461 $-1 #
vertex $-1 $301 $670 #
vertex $-1 $301 $671 #
straight-curve $-1 -86.737433724351561 0.87767367569535892 9.8485721547008147 1 0 0 I I #
coedge $-1 $475 $475 $-1 $672 reversed $304 $-1 #
edge $-1 $673 0 $673 6.2831853071796004 $305 $674 forward 7 unknown #
vertex $-1 $308 $675 #
ellipse-curve $-1 -62.888224366553331 3.1561273459947046 8.1469837321046441 -0.85716730853699208 0 0.51503806187062418 0.25751903093531209 0 0.42858365426849604 1 I I #
coedge $-1 $479 $479 $-1 $676 reversed $311 $-1 #
edge $-1 $677 0 $677 6.2831853071796004 $312 $678 forward 7 unknown #
vertex $-1 $315 $679 #
ellipse-curve $-1 -62.888224366553331 6.5738078514437177 8.1469837321046441 -0.85716730853699208 0 0.51503806187062418 0.25751903093531209 0 0.42858365426849604 1 I I #
face $-1 $-1 $680 $66 $-1 $681 reversed single #
loop $-1 $-1 $322 $316 #
plane-surface $-1 0 0 9.8485721547008147 0 0 1 1 0 0 forward_v I I I I #
coedge $-1 $682 $683 $684 $685 reversed $317 $-1 #
coedge $-1 $686 $319 $321 $493 forward $199 $-1 #
coedge $-1 $319 $686 $682 $687 forward $199 $-1 #
coedge $-1 $684 $322 $319 $490 forward $484 $-1 #
edge $-1 $496 3.9813493743556023 $688 11.955937220403307 $489 $689 forward 7 unknown #
coedge $-1 $690 $691 $320 $492 forward $680 $-1 #
edge $-1 $692 -29.69371543301656 $495 -26.290538587824241 $491 $693 forward 7 unknown #
edge $-1 $496 -3.9702597279414049 $692 -2.787470371894754e-014 $321 $694 forward 7 unknown #
coedge $-1 $322 $684 $690 $695 forward $484 $-1 #
vertex $-1 $323 $696 #
vertex $-1 $323 $697 #
straight-curve $-1 -86.737433724351561 11.949992671735057 9.8485721547008147 1 0 0 I I #
coedge $-1 $498 $498 $-1 $698 reversed $326 $-1 #
edge $-1 $699 0 $699 6.2831853071796004 $327 $700 forward 7 unknown #
vertex $-1 $330 $701 #
ellipse-curve $-1 -62.888224366553331 14.228446342034403 8.1469837321046441 -0.85716730853699208 0 0.51503806187062418 0.25751903093531209 0 0.42858365426849604 1 I I #
coedge $-1 $502 $502 $-1 $702 reversed $333 $-1 #
edge $-1 $703 0 $703 6.2831853071796004 $334 $704 forward 7 unknown #
vertex $-1 $337 $705 #
ellipse-curve $-1 -62.888224366553331 17.646126847483416 8.1469837321046441 -0.85716730853699208 0 0.51503806187062418 0.25751903093531209 0 0.42858365426849604 1 I I #
face $-1 $-1 $706 $69 $-1 $707 reversed single #
loop $-1 $-1 $344 $338 #
plane-surface $-1 0 0 9.8485721547008147 0 0 1 1 0 0 forward_v I I I I #
coedge $-1 $708 $709 $710 $711 reversed $339 $-1 #
coedge $-1 $712 $341 $343 $516 forward $213 $-1 #
coedge $-1 $341 $712 $708 $713 forward $213 $-1 #
coedge $-1 $710 $344 $341 $513 forward $507 $-1 #
edge $-1 $519 2.4470195427035595 $714 13.63138808692139 $512 $715 forward 7 unknown #
coedge $-1 $716 $717 $342 $515 forward $706 $-1 #
edge $-1 $718 -88.553325000114668 $518 -82.364695684275105 $514 $719 forward 7 unknown #
edge $-1 $519 119.06924019909458 $718 127.82128360850858 $343 $720 forward 7 unknown #
coedge $-1 $344 $710 $716 $721 forward $507 $-1 #
vertex $-1 $515 $722 #
vertex $-1 $345 $723 #
straight-curve $-1 31.955321950804013 -10.486223357516034 9.8485721547008183 -1 0 0 I I #
coedge $-1 $521 $521 $-1 $724 reversed $348 $-1 #
edge $-1 $725 0 $725 6.2831853071796004 $349 $726 forward 7 unknown #
vertex $-1 $352 $727 #
ellipse-curve $-1 60.816327218138397 -18.475058031957339 6.7542574967810358 0.70710678939079041 0 0.70710677298230451 0.70710677298230451 0 -0.70710678939079041 1 I I #
coedge $-1 $525 $525 $-1 $728 reversed $355 $-1 #
edge $-1 $729 0 $729 6.2831853071796004 $356 $730 forward 7 unknown #
vertex $-1 $359 $731 #
ellipse-curve $-1 60.816327218138397 -13.681757227292554 6.7542574967810358 0.70710678939079041 0 0.70710677298230451 0.70710677298230451 0 -0.70710678939079041 1 I I #
face $-1 $-1 $375 $54 $-1 $732 reversed single #
loop $-1 $-1 $545 $360 #
plane-surface $-1 0 37.000179297058132 0 0 -1 0 0 0 -1 forward_v I I I I #
coedge $-1 $733 $543 $546 $734 forward $361 $-1 #
coedge $-1 $549 $363 $364 $537 reversed $227 $-1 #
coedge $-1 $543 $733 $363 $535 reversed $361 $-1 #
edge $-1 $550 -9.8485721547008147 $735 9.8485721547008147 $534 $736 forward 7 unknown #
coedge $-1 $365 $364 $733 $737 forward $145 $-1 #
edge $-1 $541 -63.910641804254283 $735 63.910641804254283 $533 $738 forward 7 unknown #
coedge $-1 $546 $545 $365 $539 reversed $530 $-1 #
edge $-1 $739 -63.910641804254283 $540 63.910641804254283 $538 $740 forward 7 unknown #
vertex $-1 $367 $741 #
vertex $-1 $552 $742 #
straight-curve $-1 63.910641804254283 0 -9.8485721547008147 0 -1 0 I I #
coedge $-1 $532 $534 $368 $544 reversed $361 $-1 #
edge $-1 $547 -37.000179297058132 $550 37.000179297058132 $543 $743 forward 7 unknown #
coedge $-1 $538 $369 $374 $553 forward $530 $-1 #
coedge $-1 $369 $538 $532 $734 reversed $530 $-1 #
vertex $-1 $370 $744 #
straight-curve $-1 0 37.000179297058132 9.8485721547008147 -1 0 0 I I #
coedge $-1 $371 $533 $373 $552 reversed $227 $-1 #
vertex $-1 $544 $745 #
straight-curve $-1 0 -37.000179297058132 9.8485721547008147 1 0 0 I I #
edge $-1 $376 -9.8485721547008147 $541 9.8485721547008147 $373 $746 forward 7 unknown #
edge $-1 $377 -9.8485721547008147 $540 9.8485721547008147 $374 $747 forward 7 unknown #
point $-1 63.910641804254283 -37.000179297058132 9.8485721547008147 #
point $-1 63.910641804254283 37.000179297058132 9.8485721547008147 #
face $-1 $-1 $392 $55 $-1 $748 reversed single #
loop $-1 $-1 $563 $379 #
plane-surface $-1 0 0 9.8485721547008147 0 0 1 1 0 0 forward_v I I I I #
coedge $-1 $749 $382 $387 $568 forward $235 $-1 #
coedge $-1 $382 $749 $750 $751 reversed $235 $-1 #
coedge $-1 $384 $383 $382 $562 reversed $149 $-1 #
edge $-1 $752 -6.32643096489846 $573 -0.71785141470624936 $382 $753 forward 7 unknown #
coedge $-1 $750 $754 $384 $564 forward $557 $-1 #
edge $-1 $566 -63.910641804254283 $752 63.910641804254283 $563 $755 forward 7 unknown #
coedge $-1 $391 $385 $754 $756 reversed $392 $-1 #
vertex $-1 $386 $757 #
straight-curve $-1 63.910641804254283 -25.913561041372027 3.5221411898023547 0 0 1 I I #
edge $-1 $573 10.185125956764487 $571 21.271744212450592 $559 $758 forward 7 unknown #
coedge $-1 $759 $388 $391 $575 reversed $380 $-1 #
coedge $-1 $388 $759 $749 $760 forward $380 $-1 #
vertex $-1 $389 $761 #
straight-curve $-1 0 -37.000179297058132 4.239992604508604 1 0 0 I I #
vertex $-1 $568 $762 #
straight-curve $-1 0 -25.913561041372027 4.239992604508604 1 0 0 I I #
edge $-1 $763 -9.8485721547008147 $393 -4.239992604508604 $391 $764 forward 7 unknown #
point $-1 63.910641804254283 -37.000179297058132 4.239992604508604 #
point $-1 63.910641804254283 -25.913561041372027 4.239992604508604 #
face $-1 $-1 $594 $56 $-1 $765 reversed single #
loop $-1 $-1 $402 $396 #
plane-surface $-1 -63.910641804254283 0 0 1 0 0 0 0 -1 forward_v I I I I #
coedge $-1 $766 $399 $597 $767 forward $243 $-1 #
coedge $-1 $399 $766 $585 $768 forward $243 $-1 #
edge $-1 $588 -63.910641804254283 $769 63.910641804254283 $399 $770 forward 7 unknown #
coedge $-1 $401 $400 $409 $599 reversed $153 $-1 #
coedge $-1 $771 $402 $582 $768 reversed $579 $-1 #
coedge $-1 $402 $771 $404 $590 forward $579 $-1 #
vertex $-1 $590 $772 #
vertex $-1 $403 $773 #
straight-curve $-1 -63.910641804254283 24.571177242770744 4.1742860773504074 0 0 1 I I #
edge $-1 $595 -21.607340162100908 $587 -9.1783381078135271 $586 $774 forward 7 unknown #
straight-curve $-1 0 24.571177242770744 6.8485721547008147 -1 0 0 I I #
coedge $-1 $775 $406 $771 $776 reversed $594 $-1 #
coedge $-1 $406 $775 $408 $598 forward $594 $-1 #
loop $-1 $-1 $406 $578 #
vertex $-1 $407 $777 #
straight-curve $-1 0 37.000179297058132 6.8485721547008147 -1 0 0 I I #
coedge $-1 $409 $408 $581 $767 reversed $397 $-1 #
edge $-1 $778 -9.8485721547008147 $411 -6.8485721547008147 $408 $779 forward 7 unknown #
edge $-1 $769 -5.6742860773504074 $410 -2.6742860773504074 $409 $780 forward 7 unknown #
point $-1 63.910641804254283 24.571177242770744 6.8485721547008147 #
point $-1 63.910641804254283 37.000179297058125 6.8485721547008147 #
plane-surface $-1 0 0 9.8485721547008147 0 0 1 1 0 0 forward_v I I I I #
coedge $-1 $613 $612 $605 $781 forward $414 $-1 #
coedge $-1 $605 $416 $418 $609 reversed $251 $-1 #
coedge $-1 $416 $604 $603 $781 reversed $251 $-1 #
coedge $-1 $424 $419 $416 $607 forward $425 $-1 #
edge $-1 $610 -24.871626795499196 $782 -22.826791920097278 $606 $783 forward 7 unknown #
coedge $-1 $418 $417 $613 $784 reversed $157 $-1 #
edge $-1 $785 2.787470371894754e-014 $610 3.9702597279414049 $604 $786 forward 7 unknown #
vertex $-1 $420 $787 #
straight-curve $-1 -61.865806928852358 -8.6398351966800906 9.8485721547008129 0 1 0 I I #
coedge $-1 $603 $421 $424 $617 reversed $414 $-1 #
coedge $-1 $421 $603 $608 $784 forward $414 $-1 #
vertex $-1 $422 $788 #
straight-curve $-1 -63.910641804254283 -21.266964316384033 36.139110742525055 0 0 1 I I #
straight-curve $-1 -63.910641804254297 -21.266964316384033 6.4453953095084699 -0.51503806187062418 0 -0.85716730853699208 I I #
edge $-1 $782 13.292376470336329 $426 21.266964316384033 $612 $789 forward 7 unknown #
point $-1 -63.910641804254283 -21.266964316384033 9.8485721547008147 #
point $-1 -61.865806928852365 -21.266964316384033 9.8485721547008147 #
edge $-1 $790 1 $790 0 $429 $-1 forward 7 unknown #
vertex $-1 $430 $791 #
ellipse-curve $-1 -61.212461885971464 -18.988510646084691 7.1400840853746557 -0.85716730853699208 0 0.51503806187062418 0.25751903093531209 0 0.42858365426849604 1 I I #
point $-1 -62.630705335618003 -18.988510646084691 8.5755673863731303 #
edge $-1 $792 1 $792 0 $433 $-1 forward 7 unknown #
vertex $-1 $434 $793 #
ellipse-curve $-1 -61.212461885971464 -15.570830140635678 7.1400840853746557 -0.85716730853699208 0 0.51503806187062418 0.25751903093531209 0 0.42858365426849604 1 I I #
point $-1 -62.630705335618003 -15.570830140635678 8.5755673863731303 #
loop $-1 $-1 $445 $437 #
plane-surface $-1 -63.910641804254283 0 0 1 0 0 0 0 -1 forward_v I I I I #
coedge $-1 $631 $440 $442 $635 reversed $273 $-1 #
coedge $-1 $440 $630 $794 $795 reversed $273 $-1 #
coedge $-1 $448 $443 $440 $633 forward $438 $-1 #
edge $-1 $636 -24.871626795499196 $796 -22.826791920097278 $632 $797 forward 7 unknown #
coedge $-1 $442 $441 $639 $798 reversed $171 $-1 #
edge $-1 $799 2.787470371894754e-014 $636 3.9702597279414049 $630 $800 forward 7 unknown #
vertex $-1 $444 $801 #
straight-curve $-1 -61.865806928852358 -3.1036756986602416 9.8485721547008129 0 1 0 I I #
coedge $-1 $794 $445 $448 $643 reversed $628 $-1 #
coedge $-1 $445 $794 $634 $798 forward $628 $-1 #
vertex $-1 $446 $802 #
straight-curve $-1 -63.910641804254283 -10.194645320344335 36.139110742525055 0 0 1 I I #
straight-curve $-1 -63.910641804254297 -10.194645320344335 6.4453953095084699 -0.51503806187062418 0 -0.85716730853699208 I I #
edge $-1 $796 2.220057474296631 $449 10.194645320344335 $638 $803 forward 7 unknown #
point $-1 -63.910641804254283 -10.194645320344335 9.8485721547008147 #
point $-1 -61.865806928852365 -10.194645320344335 9.8485721547008147 #
edge $-1 $804 1 $804 0 $452 $-1 forward 7 unknown #
vertex $-1 $453 $805 #
ellipse-curve $-1 -61.212461885971464 -7.9161916500449934 7.1400840853746557 -0.85716730853699208 0 0.51503806187062418 0.25751903093531209 0 0.42858365426849604 1 I I #
point $-1 -62.630705335618003 -7.9161916500449934 8.5755673863731303 #
edge $-1 $806 1 $806 0 $456 $-1 forward 7 unknown #
vertex $-1 $457 $807 #
ellipse-curve $-1 -61.212461885971464 -4.4985111445959802 7.1400840853746557 -0.85716730853699208 0 0.51503806187062418 0.25751903093531209 0 0.42858365426849604 1 I I #
point $-1 -62.630705335618003 -4.4985111445959802 8.5755673863731303 #
loop $-1 $-1 $468 $460 #
plane-surface $-1 -63.910641804254283 0 0 1 0 0 0 0 -1 forward_v I I I I #
coedge $-1 $657 $463 $465 $661 reversed $295 $-1 #
coedge $-1 $463 $656 $808 $809 reversed $295 $-1 #
coedge $-1 $471 $466 $463 $659 forward $461 $-1 #
edge $-1 $662 -24.871626795499196 $810 -22.826791920097278 $658 $811 forward 7 unknown #
coedge $-1 $465 $464 $665 $812 reversed $185 $-1 #
edge $-1 $813 2.787470371894754e-014 $662 3.9702597279414049 $656 $814 forward 7 unknown #
vertex $-1 $467 $815 #
straight-curve $-1 -61.865806928852358 2.4324837993596056 9.8485721547008129 0 1 0 I I #
coedge $-1 $808 $468 $471 $669 reversed $654 $-1 #
coedge $-1 $468 $808 $660 $812 forward $654 $-1 #
vertex $-1 $469 $816 #
straight-curve $-1 -63.910641804254283 0.87767367569535892 36.139110742525055 0 0 1 I I #
straight-curve $-1 -63.910641804254297 0.87767367569535892 6.4453953095084699 -0.51503806187062418 0 -0.85716730853699208 I I #
edge $-1 $810 -8.8522615217430634 $472 -0.87767367569535892 $664 $817 forward 7 unknown #
point $-1 -63.910641804254283 0.87767367569535892 9.8485721547008147 #
point $-1 -61.865806928852365 0.87767367569535892 9.8485721547008147 #
edge $-1 $818 1 $818 0 $475 $-1 forward 7 unknown #
vertex $-1 $476 $819 #
ellipse-curve $-1 -61.212461885971464 3.1561273459947046 7.1400840853746557 -0.85716730853699208 0 0.51503806187062418 0.25751903093531209 0 0.42858365426849604 1 I I #
point $-1 -62.630705335618003 3.1561273459947046 8.5755673863731303 #
edge $-1 $820 1 $820 0 $479 $-1 forward 7 unknown #
vertex $-1 $480 $821 #
ellipse-curve $-1 -61.212461885971464 6.5738078514437177 7.1400840853746557 -0.85716730853699208 0 0.51503806187062418 0.25751903093531209 0 0.42858365426849604 1 I I #
point $-1 -62.630705335618003 6.5738078514437177 8.5755673863731303 #
loop $-1 $-1 $491 $483 #
plane-surface $-1 -63.910641804254283 0 0 1 0 0 0 0 -1 forward_v I I I I #
coedge $-1 $683 $486 $488 $687 reversed $317 $-1 #
coedge $-1 $486 $682 $822 $823 reversed $317 $-1 #
coedge $-1 $494 $489 $486 $685 forward $484 $-1 #
edge $-1 $688 -24.871626795499196 $824 -22.826791920097278 $684 $825 forward 7 unknown #
coedge $-1 $488 $487 $691 $826 reversed $199 $-1 #
edge $-1 $827 2.787470371894754e-014 $688 3.9702597279414049 $682 $828 forward 7 unknown #
vertex $-1 $490 $829 #
straight-curve $-1 -61.865806928852358 7.9686432973794545 9.8485721547008129 0 1 0 I I #
coedge $-1 $822 $491 $494 $695 reversed $680 $-1 #
coedge $-1 $491 $822 $686 $826 forward $680 $-1 #
vertex $-1 $492 $830 #
straight-curve $-1 -63.910641804254283 11.949992671735057 36.139110742525055 0 0 1 I I #
straight-curve $-1 -63.910641804254297 11.949992671735057 6.4453953095084699 -0.51503806187062418 0 -0.85716730853699208 I I #
edge $-1 $824 -19.924580517782761 $495 -11.949992671735057 $690 $831 forward 7 unknown #
point $-1 -63.910641804254283 11.949992671735057 9.8485721547008147 #
point $-1 -61.865806928852365 11.949992671735057 9.8485721547008147 #
edge $-1 $832 1 $832 0 $498 $-1 forward 7 unknown #
vertex $-1 $499 $833 #
ellipse-curve $-1 -61.212461885971464 14.228446342034403 7.1400840853746557 -0.85716730853699208 0 0.51503806187062418 0.25751903093531209 0 0.42858365426849604 1 I I #
point $-1 -62.630705335618003 14.228446342034403 8.5755673863731303 #
edge $-1 $834 1 $834 0 $502 $-1 forward 7 unknown #
vertex $-1 $503 $835 #
ellipse-curve $-1 -61.212461885971464 17.646126847483416 7.1400840853746557 -0.85716730853699208 0 0.51503806187062418 0.25751903093531209 0 0.42858365426849604 1 I I #
point $-1 -62.630705335618003 17.646126847483416 8.5755673863731303 #
loop $-1 $-1 $514 $506 #
plane-surface $-1 63.910641804254283 0 0 -1 0 0 0 0 1 forward_v I I I I #
coedge $-1 $709 $509 $511 $713 reversed $339 $-1 #
coedge $-1 $509 $708 $836 $837 reversed $339 $-1 #
coedge $-1 $517 $512 $509 $711 forward $507 $-1 #
edge $-1 $714 25.766690681218485 $838 31.95531985345027 $710 $839 forward 7 unknown #
coedge $-1 $511 $510 $717 $840 reversed $213 $-1 #
edge $-1 $841 -127.82128360850858 $714 -119.06924019909458 $708 $842 forward 7 unknown #
vertex $-1 $513 $843 #
straight-curve $-1 57.722012632022512 -8.039203814812474 9.8485721547008112 0 -1 0 I I #
coedge $-1 $836 $514 $517 $721 reversed $706 $-1 #
coedge $-1 $514 $836 $712 $840 forward $706 $-1 #
vertex $-1 $515 $844 #
straight-curve $-1 63.910641804254283 -10.486223357516034 92.213267838975923 0 0 1 I I #
straight-curve $-1 -26.472653566614142 -10.486223357516034 94.043240307083408 0.70710677298230451 0 -0.70710678939079041 I I #
edge $-1 $838 -21.670591901733864 $518 -10.486223357516034 $716 $845 forward 7 unknown #
point $-1 63.910641804254283 -10.486223357516034 9.8485721547008147 #
point $-1 57.722012632022498 -10.486223357516034 9.8485721547008183 #
edge $-1 $846 1 $846 0 $521 $-1 forward 7 unknown #
vertex $-1 $522 $847 #
ellipse-curve $-1 58.123658867059106 -18.475058031957339 4.0615892081853948 0.70710678939079041 0 0.70710677298230451 0.70710677298230451 0 -0.70710678939079041 1 I I #
point $-1 61.523433991120683 -18.475058031957339 6.0471507073902337 #
edge $-1 $848 1 $848 0 $525 $-1 forward 7 unknown #
vertex $-1 $526 $849 #
ellipse-curve $-1 58.123658867059106 -13.681757227292554 4.0615892081853948 0.70710678939079041 0 0.70710677298230451 0.70710677298230451 0 -0.70710678939079041 1 I I #
point $-1 61.523433991120683 -13.681757227292554 6.0471507073902337 #
plane-surface $-1 63.910641804254283 0 0 -1 0 0 0 0 1 forward_v I I I I #
coedge $-1 $534 $532 $536 $737 reversed $361 $-1 #
edge $-1 $547 -9.8485721547008147 $739 9.8485721547008147 $546 $850 forward 7 unknown #
vertex $-1 $737 $851 #
straight-curve $-1 -63.910641804254283 -37.000179297058132 0 0 0 -1 I I #
edge $-1 $735 -37.000179297058132 $739 37.000179297058132 $733 $852 forward 7 unknown #
straight-curve $-1 0 -37.000179297058132 -9.8485721547008147 -1 0 0 I I #
vertex $-1 $539 $853 #
straight-curve $-1 0 37.000179297058132 -9.8485721547008147 1 0 0 I I #
point $-1 63.910641804254283 37.000179297058132 -9.8485721547008147 #
point $-1 63.910641804254283 -37.000179297058132 -9.8485721547008147 #
straight-curve $-1 -63.910641804254283 0 9.8485721547008147 0 -1 0 I I #
point $-1 -63.910641804254283 37.000179297058132 9.8485721547008147 #
point $-1 -63.910641804254283 -37.000179297058132 9.8485721547008147 #
straight-curve $-1 63.910641804254283 -37.000179297058132 0 0 0 -1 I I #
straight-curve $-1 63.910641804254283 37.000179297058132 0 0 0 -1 I I #
plane-surface $-1 63.910641804254283 0 0 -1 0 0 0 0 1 forward_v I I I I #
coedge $-1 $560 $559 $570 $760 reversed $235 $-1 #
coedge $-1 $854 $563 $560 $751 forward $557 $-1 #
edge $-1 $752 25.913561041372027 $855 37.000179297058132 $560 $856 forward 7 unknown #
vertex $-1 $751 $857 #
straight-curve $-1 -63.910641804254283 -25.913561041372027 3.5221411898023547 0 0 -1 I I #
coedge $-1 $563 $854 $565 $756 forward $557 $-1 #
straight-curve $-1 0 -25.913561041372027 9.8485721547008147 -1 0 0 I I #
edge $-1 $763 -37.000179297058132 $566 -25.913561041372027 $565 $858 forward 7 unknown #
point $-1 63.910641804254283 -25.913561041372027 9.8485721547008147 #
straight-curve $-1 -63.910641804254283 -15.72843508460754 4.239992604508604 0 -1 0 I I #
coedge $-1 $570 $569 $854 $859 reversed $380 $-1 #
edge $-1 $855 -9.8485721547008147 $571 -4.239992604508604 $749 $860 forward 7 unknown #
point $-1 -63.910641804254283 -37.000179297058132 4.239992604508604 #
point $-1 -63.910641804254283 -25.913561041372027 4.239992604508604 #
vertex $-1 $756 $861 #
straight-curve $-1 63.910641804254283 -37.000179297058132 0 0 0 -1 I I #
plane-surface $-1 0 37.000179297058132 0 0 -1 0 0 0 -1 forward_v I I I I #
coedge $-1 $582 $581 $775 $862 forward $243 $-1 #
edge $-1 $769 24.571177242770744 $778 37.000179297058132 $597 $863 forward 7 unknown #
edge $-1 $864 -37.000179297058132 $588 -24.571177242770744 $585 $865 forward 7 unknown #
vertex $-1 $767 $866 #
straight-curve $-1 0 24.571177242770744 9.8485721547008147 1 0 0 I I #
coedge $-1 $586 $585 $592 $776 forward $579 $-1 #
point $-1 -63.910641804254283 24.571177242770744 6.8485721547008147 #
point $-1 -63.910641804254283 24.571177242770744 9.8485721547008147 #
straight-curve $-1 -63.910641804254283 15.392839134957217 6.8485721547008147 0 -1 0 I I #
coedge $-1 $593 $592 $766 $862 reversed $594 $-1 #
edge $-1 $864 -9.8485721547008147 $595 -6.8485721547008147 $592 $867 forward 7 unknown #
point $-1 -63.910641804254283 37.000179297058125 6.8485721547008147 #
vertex $-1 $767 $868 #
straight-curve $-1 63.910641804254283 37.000179297058132 0 0 0 -1 I I #
straight-curve $-1 63.910641804254283 24.571177242770744 4.1742860773504074 0 0 -1 I I #
edge $-1 $782 26.290538587824241 $785 29.69371543301656 $603 $869 forward 7 unknown #
vertex $-1 $617 $870 #
straight-curve $-1 -86.737433724351561 -13.292376470336329 9.8485721547008147 -1 0 0 I I #
edge $-1 $785 4.6525412736562384 $614 12.627129119703943 $613 $871 forward 7 unknown #
vertex $-1 $784 $872 #
straight-curve $-1 -63.910641804254297 -13.292376470336329 6.4453953095084699 0.51503806187062418 0 0.85716730853699208 I I #
point $-1 -61.865806928852365 -13.292376470336329 9.8485721547008147 #
point $-1 -63.910641804254283 -21.266964316384033 6.4453953095084939 #
straight-curve $-1 -63.910641804254283 0 9.8485721547008147 0 -1 0 I I #
vertex $-1 $620 $873 #
point $-1 -60.954942855036151 -18.988510646084691 7.5686677396431516 #
vertex $-1 $624 $874 #
point $-1 -60.954942855036151 -15.570830140635678 7.5686677396431516 #
coedge $-1 $639 $638 $631 $795 forward $628 $-1 #
edge $-1 $796 26.290538587824241 $799 29.69371543301656 $794 $875 forward 7 unknown #
vertex $-1 $643 $876 #
straight-curve $-1 -86.737433724351561 -2.220057474296631 9.8485721547008147 -1 0 0 I I #
edge $-1 $799 -0.88361822436361059 $640 7.0909696216840938 $639 $877 forward 7 unknown #
vertex $-1 $798 $878 #
straight-curve $-1 -63.910641804254297 -2.220057474296631 6.4453953095084699 0.51503806187062418 0 0.85716730853699208 I I #
point $-1 -61.865806928852365 -2.220057474296631 9.8485721547008147 #
point $-1 -63.910641804254283 -10.194645320344335 6.4453953095084939 #
straight-curve $-1 -63.910641804254283 0 9.8485721547008147 0 -1 0 I I #
vertex $-1 $646 $879 #
point $-1 -60.954942855036151 -7.9161916500449934 7.5686677396431516 #
vertex $-1 $650 $880 #
point $-1 -60.954942855036151 -4.4985111445959802 7.5686677396431516 #
coedge $-1 $665 $664 $657 $809 forward $654 $-1 #
edge $-1 $810 26.290538587824241 $813 29.69371543301656 $808 $881 forward 7 unknown #
vertex $-1 $669 $882 #
straight-curve $-1 -86.737433724351561 8.8522615217430634 9.8485721547008147 -1 0 0 I I #
edge $-1 $813 -6.4197777223834578 $666 1.5548101236642466 $665 $883 forward 7 unknown #
vertex $-1 $812 $884 #
straight-curve $-1 -63.910641804254297 8.8522615217430634 6.4453953095084699 0.51503806187062418 0 0.85716730853699208 I I #
point $-1 -61.865806928852365 8.8522615217430634 9.8485721547008147 #
point $-1 -63.910641804254283 0.87767367569535892 6.4453953095084939 #
straight-curve $-1 -63.910641804254283 0 9.8485721547008147 0 -1 0 I I #
vertex $-1 $672 $885 #
point $-1 -60.954942855036151 3.1561273459947046 7.5686677396431516 #
vertex $-1 $676 $886 #
point $-1 -60.954942855036151 6.5738078514437177 7.5686677396431516 #
coedge $-1 $691 $690 $683 $823 forward $680 $-1 #
edge $-1 $824 26.290538587824241 $827 29.69371543301656 $822 $887 forward 7 unknown #
vertex $-1 $695 $888 #
straight-curve $-1 -86.737433724351561 19.924580517782761 9.8485721547008147 -1 0 0 I I #
edge $-1 $827 -11.955937220403307 $692 -3.9813493743556023 $691 $889 forward 7 unknown #
vertex $-1 $826 $890 #
straight-curve $-1 -63.910641804254297 19.924580517782761 6.4453953095084699 0.51503806187062418 0 0.85716730853699208 I I #
point $-1 -61.865806928852365 19.924580517782761 9.8485721547008147 #
point $-1 -63.910641804254283 11.949992671735057 6.4453953095084939 #
straight-curve $-1 -63.910641804254283 0 9.8485721547008147 0 -1 0 I I #
vertex $-1 $698 $891 #
point $-1 -60.954942855036151 14.228446342034403 7.5686677396431516 #
vertex $-1 $702 $892 #
point $-1 -60.954942855036151 17.646126847483416 7.5686677396431516 #
coedge $-1 $717 $716 $709 $837 forward $706 $-1 #
edge $-1 $838 82.364695684275105 $841 88.553325000114668 $836 $893 forward 7 unknown #
vertex $-1 $721 $894 #
straight-curve $-1 31.955321950804013 -21.670591901733864 9.8485721547008183 1 0 0 I I #
edge $-1 $841 -13.63138808692139 $718 -2.4470195427035595 $717 $895 forward 7 unknown #
vertex $-1 $840 $896 #
straight-curve $-1 -26.472653566614142 -21.670591901733864 94.043240307083408 -0.70710677298230451 0 0.70710678939079041 I I #
point $-1 57.722012632022498 -21.670591901733864 9.8485721547008183 #
point $-1 63.910641804254283 -10.486223357516034 3.6599428388612552 #
straight-curve $-1 63.910641804254283 0 9.8485721547008147 0 1 0 I I #
vertex $-1 $724 $897 #
point $-1 58.830765640041406 -18.475058031957339 3.3544824187946038 #
vertex $-1 $728 $898 #
point $-1 58.830765640041406 -13.681757227292554 3.3544824187946038 #
straight-curve $-1 -63.910641804254283 37.000179297058132 0 0 0 -1 I I #
point $-1 -63.910641804254283 -37.000179297058132 -9.8485721547008147 #
straight-curve $-1 -63.910641804254283 0 -9.8485721547008147 0 1 0 I I #
point $-1 -63.910641804254283 37.000179297058132 -9.8485721547008147 #
coedge $-1 $754 $750 $759 $859 forward $557 $-1 #
vertex $-1 $751 $899 #
straight-curve $-1 -63.910641804254283 0 9.8485721547008147 0 -1 0 I I #
point $-1 -63.910641804254283 -25.913561041372027 9.8485721547008147 #
straight-curve $-1 63.910641804254283 0 9.8485721547008147 0 1 0 I I #
edge $-1 $855 -63.910641804254283 $763 63.910641804254283 $759 $900 forward 7 unknown #
straight-curve $-1 -63.910641804254283 -37.000179297058132 0 0 0 -1 I I #
point $-1 63.910641804254283 -37.000179297058132 9.8485721547008147 #
edge $-1 $778 -63.910641804254283 $864 63.910641804254283 $775 $901 forward 7 unknown #
straight-curve $-1 63.910641804254283 0 9.8485721547008147 0 1 0 I I #
vertex $-1 $862 $902 #
straight-curve $-1 -63.910641804254283 0 9.8485721547008147 0 -1 0 I I #
point $-1 63.910641804254283 24.571177242770744 9.8485721547008147 #
straight-curve $-1 -63.910641804254283 37.000179297058132 0 0 0 -1 I I #
point $-1 63.910641804254283 37.000179297058132 9.8485721547008147 #
straight-curve $-1 -63.910641804254283 -13.292376470336329 36.139110742525055 0 0 -1 I I #
point $-1 -63.910641804254283 -13.292376470336329 9.8485721547008147 #
straight-curve $-1 -63.910641804254283 -8.6398351966800906 6.4453953095084877 0 -1 0 I I #
point $-1 -63.910641804254283 -13.292376470336329 6.4453953095084939 #
point $-1 -60.783878231702971 -18.988510646084691 6.8825650544393442 #
point $-1 -60.783878231702971 -15.570830140635678 6.8825650544393442 #
straight-curve $-1 -63.910641804254283 -2.220057474296631 36.139110742525055 0 0 -1 I I #
point $-1 -63.910641804254283 -2.220057474296631 9.8485721547008147 #
straight-curve $-1 -63.910641804254283 -3.1036756986602416 6.4453953095084877 0 -1 0 I I #
point $-1 -63.910641804254283 -2.220057474296631 6.4453953095084939 #
point $-1 -60.783878231702971 -7.9161916500449934 6.8825650544393442 #
point $-1 -60.783878231702971 -4.4985111445959802 6.8825650544393442 #
straight-curve $-1 -63.910641804254283 8.8522615217430634 36.139110742525055 0 0 -1 I I #
point $-1 -63.910641804254283 8.8522615217430634 9.8485721547008147 #
straight-curve $-1 -63.910641804254283 2.4324837993596056 6.4453953095084877 0 -1 0 I I #
point $-1 -63.910641804254283 8.8522615217430634 6.4453953095084939 #
point $-1 -60.783878231702971 3.1561273459947046 6.8825650544393442 #
point $-1 -60.783878231702971 6.5738078514437177 6.8825650544393442 #
straight-curve $-1 -63.910641804254283 19.924580517782761 36.139110742525055 0 0 -1 I I #
point $-1 -63.910641804254283 19.924580517782761 9.8485721547008147 #
straight-curve $-1 -63.910641804254283 7.9686432973794545 6.4453953095084877 0 -1 0 I I #
point $-1 -63.910641804254283 19.924580517782761 6.4453953095084939 #
point $-1 -60.783878231702971 14.228446342034403 6.8825650544393442 #
point $-1 -60.783878231702971 17.646126847483416 6.8825650544393442 #
straight-curve $-1 63.910641804254283 -21.670591901733864 92.213267838975923 0 0 -1 I I #
point $-1 63.910641804254283 -21.670591901733864 9.8485721547008147 #
straight-curve $-1 63.910641804254283 -8.039203814812474 3.659942838861248 0 1 0 I I #
point $-1 63.910641804254283 -21.670591901733864 3.6599428388612552 #
point $-1 57.416552077668314 -18.475058031957339 3.35448243520309 #
point $-1 57.416552077668314 -13.681757227292554 3.35448243520309 #
point $-1 -63.910641804254283 -37.000179297058132 9.8485721547008147 #
straight-curve $-1 0 -37.000179297058132 9.8485721547008147 1 0 0 I I #
straight-curve $-1 0 37.000179297058132 9.8485721547008147 -1 0 0 I I #
point $-1 -63.910641804254283 37.000179297058132 9.8485721547008147 #
End-of-ACIS-data 