500 0 4 0           
7 Unknown 11 ACIS 5.0 NT 24 Fri Mar 26 18:25:47 1999 
-1 9.9999999999999995e-007 1e-010 
body $-1 $4 $-1 $5 #
body $-1 $6 $-1 $7 #
body $-1 $8 $-1 $9 #
body $-1 $10 $-1 $11 #
lump $-1 $-1 $12 $0 #
transform $-1 1 0 0 0 1 0 0 0 1 44.207892086550494 29.358104012297879 6.9634444527597621 1 rotate no_reflect no_shear #
lump $-1 $-1 $13 $1 #
transform $-1 1 0 0 0 1 0 0 0 1 44.207892086550494 29.358104012297879 6.9634444527597621 1 rotate no_reflect no_shear #
lump $-1 $-1 $14 $2 #
transform $-1 1 0 0 0 1 0 0 0 1 44.207892086550494 29.358104012297879 6.9634444527597621 1 rotate no_reflect no_shear #
lump $-1 $-1 $15 $3 #
transform $-1 1 0 0 0 1 0 0 0 1 44.207892086550494 29.358104012297879 6.9634444527597621 1 rotate no_reflect no_shear #
shell $-1 $-1 $-1 $16 $-1 $4 #
shell $-1 $-1 $-1 $17 $-1 $6 #
shell $-1 $-1 $-1 $18 $-1 $8 #
shell $-1 $-1 $-1 $19 $-1 $10 #
face $-1 $20 $21 $12 $-1 $22 forward single #
face $-1 $23 $24 $13 $-1 $25 forward single #
face $-1 $26 $27 $14 $-1 $28 forward single #
face $-1 $29 $30 $15 $-1 $31 reversed single #
face $-1 $32 $33 $12 $-1 $34 reversed single #
loop $-1 $-1 $35 $16 #
plane-surface $-1 0 0 6.9634444527597621 0 0 1 1 0 0 forward_v I I I I #
face $-1 $36 $37 $13 $-1 $38 forward single #
loop $-1 $-1 $39 $17 #
plane-surface $-1 0 -25.543614699190545 3.9634444527597621 0 0 1 1 0 0 forward_v I I I I #
face $-1 $40 $41 $14 $-1 $42 forward single #
loop $-1 $-1 $43 $18 #
plane-surface $-1 -24.412222131134349 73.224093140819861 97.688121289040012 -1 0 0 0 0.84804810408105047 0.52991925155115449 forward_v I I I I #
face $-1 $44 $45 $15 $-1 $46 reversed single #
loop $-1 $47 $48 $19 #
cone-surface $-1 -34.310057108842422 26.792687304556029 3.5553323729083295 0 -0.84804810408105047 -0.52991925155115449 1 0 0 1 I I 0 1 1 forward I I I I #
face $-1 $49 $50 $12 $-1 $51 reversed single #
loop $-1 $-1 $52 $20 #
plane-surface $-1 0 0 -6.9634444527597621 0 0 1 1 0 0 forward_v I I I I #
coedge $-1 $53 $54 $55 $56 forward $21 $-1 #
face $-1 $57 $58 $13 $-1 $59 forward single #
loop $-1 $-1 $60 $23 #
plane-surface $-1 0 -21.729125386083211 5.4634444527597621 0 -1 0 0 0 -1 forward_v I I I I #
coedge $-1 $61 $62 $63 $64 reversed $24 $-1 #
face $-1 $65 $66 $14 $-1 $67 reversed single #
loop $-1 $-1 $68 $26 #
plane-surface $-1 -34.310057108842422 -1.7567449980177798 50.834895114721924 0 0.84804810408105047 0.52991925155115449 1 0 0 forward_v I I I I #
coedge $-1 $69 $70 $71 $72 reversed $27 $-1 #
face $-1 $73 $74 $15 $-1 $75 forward single #
loop $-1 $76 $77 $29 #
cone-surface $-1 -34.310057108842422 25.653709034821269 2.8436197833437307 0 -0.84804810408105047 -0.52991925155115449 0.5 0 0 1 I I -0.70710678118654746 0.70710678118654746 0.5 forward I I I I #
loop $-1 $-1 $78 $19 #
coedge $-1 $48 $48 $79 $80 reversed $30 $-1 #
face $-1 $81 $82 $12 $-1 $83 reversed single #
loop $-1 $-1 $84 $32 #
plane-surface $-1 0 -29.358104012297879 0 0 1 0 0 0 1 forward_v I I I I #
coedge $-1 $85 $86 $87 $88 forward $33 $-1 #
coedge $-1 $89 $35 $90 $91 forward $21 $-1 #
coedge $-1 $35 $89 $92 $93 forward $21 $-1 #
coedge $-1 $94 $95 $35 $56 reversed $96 $-1 #
edge $-1 $97 -29.358104012297879 $98 29.358104012297879 $55 $99 forward 7 unknown #
face $-1 $100 $101 $13 $-1 $102 reversed single #
loop $-1 $-1 $103 $36 #
plane-surface $-1 0 0 6.9634444527597621 0 0 1 1 0 0 forward_v I I I I #
coedge $-1 $104 $105 $106 $107 reversed $37 $-1 #
coedge $-1 $108 $39 $105 $109 reversed $24 $-1 #
coedge $-1 $39 $108 $110 $111 reversed $24 $-1 #
coedge $-1 $112 $106 $39 $64 forward $101 $-1 #
edge $-1 $113 8.9573180364879388 $114 16.586296662702608 $63 $115 forward 7 unknown #
face $-1 $116 $117 $14 $-1 $118 forward single #
loop $-1 $-1 $119 $40 #
plane-surface $-1 0 29.358104012297879 0 0 -1 0 0 0 -1 forward_v I I I I #
coedge $-1 $120 $121 $119 $122 reversed $41 $-1 #
coedge $-1 $70 $43 $121 $123 forward $27 $-1 #
coedge $-1 $43 $69 $124 $125 reversed $27 $-1 #
coedge $-1 $126 $119 $43 $72 forward $66 $-1 #
edge $-1 $127 -47.803334423885055 $128 -41.880616191760247 $71 $129 forward 7 unknown #
face $-1 $130 $131 $15 $-1 $132 forward single #
loop $-1 $-1 $133 $44 #
plane-surface $-1 -24.412222131134349 73.224093140819861 97.688121289040012 -1 0 0 0 0.84804810408105047 0.52991925155115449 forward_v I I I I #
loop $-1 $-1 $134 $29 #
coedge $-1 $77 $77 $78 $135 forward $45 $-1 #
coedge $-1 $78 $78 $77 $135 reversed $47 $-1 #
coedge $-1 $79 $79 $48 $80 forward $131 $-1 #
edge $-1 $136 -3.7700270109167406e-016 $136 6.2831853071796004 $79 $137 forward 7 unknown #
face $-1 $138 $139 $12 $-1 $140 reversed single #
loop $-1 $-1 $141 $49 #
plane-surface $-1 -44.207892086550494 0 0 1 0 0 0 0 -1 forward_v I I I I #
coedge $-1 $142 $92 $143 $144 forward $50 $-1 #
coedge $-1 $145 $52 $142 $146 forward $33 $-1 #
coedge $-1 $52 $145 $147 $148 forward $33 $-1 #
coedge $-1 $95 $94 $52 $88 reversed $96 $-1 #
edge $-1 $149 -29.358104012297879 $150 29.358104012297879 $87 $151 forward 7 unknown #
coedge $-1 $54 $53 $152 $153 forward $21 $-1 #
coedge $-1 $154 $155 $53 $91 reversed $139 $-1 #
edge $-1 $98 -44.207892086550494 $156 44.207892086550494 $90 $157 forward 7 unknown #
coedge $-1 $84 $158 $54 $93 reversed $50 $-1 #
edge $-1 $159 -44.207892086550494 $97 44.207892086550494 $92 $160 forward 7 unknown #
coedge $-1 $87 $55 $158 $161 forward $96 $-1 #
coedge $-1 $55 $87 $154 $162 reversed $96 $-1 #
loop $-1 $-1 $94 $138 #
vertex $-1 $56 $163 #
vertex $-1 $56 $164 #
straight-curve $-1 44.207892086550494 0 6.9634444527597621 0 1 0 I I #
face $-1 $165 $166 $13 $-1 $167 reversed single #
loop $-1 $-1 $106 $57 #
plane-surface $-1 44.207892086550494 0 0 -1 0 0 0 0 1 forward_v I I I I #
coedge $-1 $168 $169 $104 $170 forward $58 $-1 #
coedge $-1 $171 $60 $103 $170 reversed $37 $-1 #
coedge $-1 $60 $171 $61 $109 forward $37 $-1 #
coedge $-1 $63 $172 $60 $107 forward $101 $-1 #
edge $-1 $173 -4.2317222263798815 $113 -1.231722226379881 $106 $174 forward 7 unknown #
coedge $-1 $62 $61 $175 $176 reversed $24 $-1 #
edge $-1 $177 -44.207892086550494 $113 44.207892086550494 $105 $178 forward 7 unknown #
coedge $-1 $179 $180 $62 $111 forward $181 $-1 #
edge $-1 $114 -44.207892086550494 $182 44.207892086550494 $110 $183 forward 7 unknown #
coedge $-1 $184 $63 $180 $185 forward $101 $-1 #
vertex $-1 $64 $186 #
vertex $-1 $185 $187 #
straight-curve $-1 44.207892086550494 -12.771807349595273 3.9634444527597621 0 -1 0 I I #
face $-1 $188 $189 $14 $-1 $190 forward single #
loop $-1 $-1 $124 $65 #
plane-surface $-1 0 0 6.9634444527597621 0 0 1 1 0 0 forward_v I I I I #
coedge $-1 $71 $191 $68 $122 forward $66 $-1 #
coedge $-1 $192 $68 $193 $194 reversed $41 $-1 #
coedge $-1 $68 $192 $69 $123 reversed $41 $-1 #
edge $-1 $195 -27.052863532129283 $127 -7.2571935767131386 $119 $196 forward 7 unknown #
edge $-1 $127 -58.71620802459573 $197 -51.732266661336986 $69 $198 forward 7 unknown #
coedge $-1 $199 $200 $70 $125 forward $117 $-1 #
edge $-1 $128 7.2539425581120511 $197 10.954867538207271 $124 $201 forward 7 unknown #
coedge $-1 $202 $71 $200 $203 reversed $66 $-1 #
vertex $-1 $122 $204 #
vertex $-1 $125 $205 #
straight-curve $-1 -24.412222131134349 29.358104012297879 48.844060644520006 0 0 1 I I #
face $-1 $206 $207 $15 $-1 $208 reversed single #
loop $-1 $209 $79 $73 #
plane-surface $-1 -34.310057108842422 -1.7567449980177798 50.834895114721924 0 0.84804810408105047 0.52991925155115449 1 0 0 forward_v I I I I #
coedge $-1 $210 $211 $212 $213 reversed $74 $-1 #
coedge $-1 $134 $134 $-1 $214 forward $76 $-1 #
edge $-1 $215 0 $215 6.2831853071796004 $77 $216 forward 7 unknown #
vertex $-1 $80 $217 #
ellipse-curve $-1 -34.310057108842422 27.507641522250267 4.0020853366973537 0 -0.84804810408105047 -0.52991925155115449 1 0 0 1 I I #
face $-1 $-1 $96 $12 $-1 $218 reversed single #
loop $-1 $-1 $154 $81 #
plane-surface $-1 0 29.358104012297879 0 0 -1 0 0 0 -1 forward_v I I I I #
coedge $-1 $219 $152 $155 $220 forward $82 $-1 #
coedge $-1 $158 $84 $85 $146 reversed $50 $-1 #
coedge $-1 $152 $219 $84 $144 reversed $82 $-1 #
edge $-1 $159 -6.9634444527597621 $221 6.9634444527597621 $143 $222 forward 7 unknown #
coedge $-1 $86 $85 $219 $223 forward $33 $-1 #
edge $-1 $150 -44.207892086550494 $221 44.207892086550494 $142 $224 forward 7 unknown #
coedge $-1 $155 $154 $86 $148 reversed $139 $-1 #
edge $-1 $225 -44.207892086550494 $149 44.207892086550494 $147 $226 forward 7 unknown #
vertex $-1 $88 $227 #
vertex $-1 $161 $228 #
straight-curve $-1 44.207892086550494 0 -6.9634444527597621 0 -1 0 I I #
coedge $-1 $141 $143 $89 $153 reversed $82 $-1 #
edge $-1 $156 -29.358104012297879 $159 29.358104012297879 $152 $229 forward 7 unknown #
coedge $-1 $147 $90 $95 $162 forward $139 $-1 #
coedge $-1 $90 $147 $141 $220 reversed $139 $-1 #
vertex $-1 $91 $230 #
straight-curve $-1 0 29.358104012297879 6.9634444527597621 -1 0 0 I I #
coedge $-1 $92 $142 $94 $161 reversed $50 $-1 #
vertex $-1 $153 $231 #
straight-curve $-1 0 -29.358104012297879 6.9634444527597621 1 0 0 I I #
edge $-1 $97 -6.9634444527597621 $150 6.9634444527597621 $94 $232 forward 7 unknown #
edge $-1 $98 -6.9634444527597621 $149 6.9634444527597621 $95 $233 forward 7 unknown #
point $-1 44.207892086550494 -29.358104012297879 6.9634444527597621 #
point $-1 44.207892086550494 29.358104012297879 6.9634444527597621 #
face $-1 $234 $181 $13 $-1 $235 reversed single #
loop $-1 $-1 $236 $100 #
plane-surface $-1 0 0 -6.9634444527597621 0 0 1 1 0 0 forward_v I I I I #
coedge $-1 $237 $103 $172 $238 forward $58 $-1 #
coedge $-1 $103 $237 $239 $240 forward $58 $-1 #
edge $-1 $241 -44.207892086550494 $173 44.207892086550494 $103 $242 forward 7 unknown #
coedge $-1 $105 $104 $243 $244 reversed $37 $-1 #
coedge $-1 $106 $245 $168 $238 reversed $101 $-1 #
vertex $-1 $238 $246 #
straight-curve $-1 44.207892086550494 -21.729125386083211 2.731722226379881 0 0 -1 I I #
coedge $-1 $243 $247 $108 $176 forward $248 $-1 #
edge $-1 $182 -16.586296662702608 $177 -8.9573180364879388 $175 $249 forward 7 unknown #
vertex $-1 $176 $250 #
straight-curve $-1 0 -21.729125386083211 3.9634444527597621 1 0 0 I I #
coedge $-1 $251 $110 $247 $252 forward $181 $-1 #
coedge $-1 $110 $251 $112 $185 reversed $181 $-1 #
loop $-1 $-1 $110 $165 #
vertex $-1 $252 $253 #
straight-curve $-1 0 -29.358104012297879 3.9634444527597621 -1 0 0 I I #
coedge $-1 $245 $112 $236 $254 reversed $101 $-1 #
edge $-1 $114 -3.9634444527597621 $255 6.9634444527597621 $112 $256 forward 7 unknown #
point $-1 44.207892086550494 -21.729125386083211 3.9634444527597621 #
point $-1 44.207892086550494 -29.358104012297879 3.9634444527597621 #
face $-1 $257 $258 $14 $-1 $259 forward single #
loop $-1 $-1 $260 $116 #
plane-surface $-1 0 -25.543614699190545 3.9634444527597621 0 0 1 1 0 0 forward_v I I I I #
coedge $-1 $119 $261 $262 $263 reversed $66 $-1 #
coedge $-1 $121 $120 $199 $264 reversed $41 $-1 #
coedge $-1 $262 $265 $120 $194 forward $266 $-1 #
edge $-1 $267 29.711581952479584 $195 36.69552331573832 $193 $268 forward 7 unknown #
vertex $-1 $263 $269 #
straight-curve $-1 -17.155028554421211 29.358104012297879 1.0407262206349586 1 0 0 I I #
vertex $-1 $264 $270 #
straight-curve $-1 -24.412222131134349 -1.7567449980177798 50.834895114721924 0 -0.52991925155115449 0.84804810408105047 I I #
coedge $-1 $271 $124 $192 $264 forward $117 $-1 #
coedge $-1 $124 $272 $126 $203 forward $117 $-1 #
straight-curve $-1 -24.412222131134349 36.61204657040993 6.9634444527597594 0 -1 0 I I #
coedge $-1 $261 $126 $273 $274 forward $66 $-1 #
edge $-1 $275 -44.207892086550494 $128 24.412222131134349 $126 $276 forward 7 unknown #
point $-1 -24.412222131134349 29.358104012297879 1.0407262206349515 #
point $-1 -24.412222131134349 29.358104012297879 6.9634444527597621 #
face $-1 $277 $278 $15 $-1 $279 forward single #
loop $-1 $-1 $280 $130 #
plane-surface $-1 0 29.358104012297879 0 0 -1 0 0 0 -1 forward_v I I I I #
loop $-1 $-1 $281 $73 #
coedge $-1 $211 $133 $282 $283 forward $74 $-1 #
coedge $-1 $133 $210 $284 $285 reversed $74 $-1 #
coedge $-1 $286 $280 $133 $213 forward $207 $-1 #
edge $-1 $287 -47.803334423885055 $288 -41.880616191760247 $212 $289 forward 7 unknown #
edge $-1 $290 1 $290 0 $134 $-1 forward 7 unknown #
vertex $-1 $135 $291 #
ellipse-curve $-1 -34.310057108842422 26.077733086861794 3.108579409119308 0 0.84804810408105047 0.52991925155115449 1 0 0 1 I I #
point $-1 -33.310057108842422 27.507641522250264 4.002085336697351 #
plane-surface $-1 44.207892086550494 0 0 -1 0 0 0 0 1 forward_v I I I I #
coedge $-1 $143 $141 $145 $223 reversed $82 $-1 #
edge $-1 $156 -6.9634444527597621 $225 6.9634444527597621 $155 $292 forward 7 unknown #
vertex $-1 $223 $293 #
straight-curve $-1 -44.207892086550494 -29.358104012297879 0 0 0 -1 I I #
edge $-1 $221 -29.358104012297879 $225 29.358104012297879 $219 $294 forward 7 unknown #
straight-curve $-1 0 -29.358104012297879 -6.9634444527597621 -1 0 0 I I #
vertex $-1 $148 $295 #
straight-curve $-1 0 29.358104012297879 -6.9634444527597621 1 0 0 I I #
point $-1 44.207892086550494 29.358104012297879 -6.9634444527597621 #
point $-1 44.207892086550494 -29.358104012297879 -6.9634444527597621 #
straight-curve $-1 -44.207892086550494 0 6.9634444527597621 0 -1 0 I I #
point $-1 -44.207892086550494 29.358104012297879 6.9634444527597621 #
point $-1 -44.207892086550494 -29.358104012297879 6.9634444527597621 #
straight-curve $-1 44.207892086550494 -29.358104012297879 0 0 0 -1 I I #
straight-curve $-1 44.207892086550494 29.358104012297879 0 0 0 -1 I I #
face $-1 $296 $248 $13 $-1 $297 reversed single #
plane-surface $-1 0 -29.358104012297879 0 0 1 0 0 0 1 forward_v I I I I #
coedge $-1 $298 $299 $184 $254 forward $166 $-1 #
coedge $-1 $169 $168 $300 $301 forward $58 $-1 #
edge $-1 $173 -21.729125386083211 $302 29.358104012297879 $172 $303 forward 7 unknown #
coedge $-1 $304 $243 $169 $240 reversed $248 $-1 #
edge $-1 $305 -29.358104012297879 $241 21.729125386083211 $239 $306 forward 7 unknown #
vertex $-1 $244 $307 #
straight-curve $-1 0 -21.729125386083211 6.9634444527597621 1 0 0 I I #
coedge $-1 $239 $175 $171 $244 forward $248 $-1 #
edge $-1 $177 1.231722226379881 $241 4.2317222263798815 $243 $308 forward 7 unknown #
coedge $-1 $172 $184 $309 $310 reversed $101 $-1 #
point $-1 44.207892086550494 -21.729125386083211 6.9634444527597621 #
coedge $-1 $175 $311 $179 $252 reversed $248 $-1 #
loop $-1 $-1 $243 $234 #
straight-curve $-1 -44.207892086550494 -12.771807349595273 3.9634444527597621 0 1 0 I I #
point $-1 -44.207892086550494 -21.729125386083211 3.9634444527597621 #
coedge $-1 $180 $179 $298 $312 reversed $181 $-1 #
edge $-1 $182 -3.9634444527597621 $313 6.9634444527597621 $247 $314 forward 7 unknown #
point $-1 -44.207892086550494 -29.358104012297879 3.9634444527597621 #
edge $-1 $315 -29.358104012297879 $255 29.358104012297879 $184 $316 forward 7 unknown #
vertex $-1 $185 $317 #
straight-curve $-1 44.207892086550494 -29.358104012297879 0 0 0 -1 I I #
face $-1 $318 $319 $14 $-1 $320 reversed single #
loop $-1 $-1 $321 $188 #
plane-surface $-1 0 -21.729125386083211 5.4634444527597621 0 -1 0 0 0 -1 forward_v I I I I #
coedge $-1 $322 $323 $324 $325 reversed $189 $-1 #
coedge $-1 $191 $202 $326 $327 reversed $66 $-1 #
coedge $-1 $328 $193 $191 $263 forward $266 $-1 #
edge $-1 $195 -1.0407262206349603 $329 6.9634444527597621 $191 $330 forward 7 unknown #
edge $-1 $197 7.2571935767131386 $267 27.052863532129283 $199 $331 forward 7 unknown #
coedge $-1 $193 $332 $271 $333 reversed $266 $-1 #
loop $-1 $-1 $193 $334 #
vertex $-1 $333 $335 #
straight-curve $-1 -44.207892086550494 9.9124397615438866 32.160295196808825 0 0.52991925155115449 -0.84804810408105047 I I #
point $-1 -44.207892086550494 29.358104012297879 1.0407262206349603 #
point $-1 -24.412222131134349 25.657179032202659 6.9634444527597594 #
coedge $-1 $336 $199 $265 $333 forward $117 $-1 #
coedge $-1 $200 $336 $337 $338 forward $117 $-1 #
coedge $-1 $337 $339 $202 $274 reversed $319 $-1 #
edge $-1 $275 -6.9634444527597621 $340 6.9634444527597621 $273 $341 forward 7 unknown #
vertex $-1 $338 $342 #
straight-curve $-1 0 29.358104012297879 6.9634444527597621 -1 0 0 I I #
face $-1 $343 $344 $15 $-1 $345 forward single #
loop $-1 $-1 $284 $206 #
plane-surface $-1 0 0 6.9634444527597621 0 0 1 1 0 0 forward_v I I I I #
coedge $-1 $212 $346 $281 $347 forward $207 $-1 #
coedge $-1 $348 $282 $280 $347 reversed $209 $-1 #
coedge $-1 $281 $349 $210 $283 reversed $209 $-1 #
edge $-1 $287 -58.71620802459573 $350 -51.732266661336986 $210 $351 forward 7 unknown #
coedge $-1 $352 $353 $211 $285 forward $278 $-1 #
edge $-1 $288 7.2539425581120511 $350 10.954867538207271 $284 $354 forward 7 unknown #
coedge $-1 $355 $212 $353 $356 reversed $207 $-1 #
vertex $-1 $347 $357 #
vertex $-1 $285 $358 #
straight-curve $-1 -24.412222131134349 29.358104012297879 48.844060644520006 0 0 1 I I #
vertex $-1 $214 $359 #
point $-1 -33.310057108842422 26.077733086861794 3.108579409119308 #
straight-curve $-1 -44.207892086550494 29.358104012297879 0 0 0 -1 I I #
point $-1 -44.207892086550494 -29.358104012297879 -6.9634444527597621 #
straight-curve $-1 -44.207892086550494 0 -6.9634444527597621 0 1 0 I I #
point $-1 -44.207892086550494 29.358104012297879 -6.9634444527597621 #
face $-1 $-1 $360 $13 $-1 $361 reversed single #
plane-surface $-1 -44.207892086550494 0 0 1 0 0 0 0 -1 forward_v I I I I #
coedge $-1 $362 $236 $251 $312 forward $166 $-1 #
coedge $-1 $236 $362 $363 $364 forward $166 $-1 #
coedge $-1 $309 $365 $237 $301 reversed $360 $-1 #
edge $-1 $302 -44.207892086550494 $305 44.207892086550494 $300 $366 forward 7 unknown #
vertex $-1 $238 $367 #
straight-curve $-1 44.207892086550494 0 6.9634444527597621 0 1 0 I I #
coedge $-1 $311 $239 $365 $368 forward $248 $-1 #
vertex $-1 $301 $369 #
straight-curve $-1 -44.207892086550494 0 6.9634444527597621 0 -1 0 I I #
point $-1 -44.207892086550494 -21.729125386083211 6.9634444527597621 #
straight-curve $-1 -44.207892086550494 -21.729125386083211 2.731722226379881 0 0 1 I I #
coedge $-1 $363 $300 $245 $310 forward $360 $-1 #
edge $-1 $302 -6.9634444527597621 $315 6.9634444527597621 $245 $370 forward 7 unknown #
coedge $-1 $247 $304 $362 $371 reversed $248 $-1 #
edge $-1 $255 -44.207892086550494 $313 44.207892086550494 $251 $372 forward 7 unknown #
vertex $-1 $371 $373 #
straight-curve $-1 -44.207892086550494 -29.358104012297879 0 0 0 -1 I I #
vertex $-1 $254 $374 #
straight-curve $-1 44.207892086550494 0 -6.9634444527597621 0 -1 0 I I #
point $-1 44.207892086550494 -29.358104012297879 -6.9634444527597621 #
face $-1 $375 $376 $14 $-1 $377 reversed single #
loop $-1 $-1 $378 $257 #
plane-surface $-1 44.207892086550494 0 0 -1 0 0 0 0 1 forward_v I I I I #
coedge $-1 $379 $380 $378 $381 reversed $258 $-1 #
coedge $-1 $382 $260 $380 $383 reversed $189 $-1 #
coedge $-1 $260 $382 $384 $385 reversed $189 $-1 #
coedge $-1 $386 $378 $260 $325 forward $319 $-1 #
edge $-1 $387 8.9573180364879388 $388 16.586296662702608 $324 $389 forward 7 unknown #
coedge $-1 $390 $391 $261 $327 forward $376 $-1 #
edge $-1 $329 -44.207892086550494 $340 44.207892086550494 $261 $392 forward 7 unknown #
coedge $-1 $393 $262 $391 $394 reversed $266 $-1 #
vertex $-1 $327 $395 #
straight-curve $-1 -44.207892086550494 29.358104012297879 0 0 0 -1 I I #
straight-curve $-1 -17.155028554421211 25.657179032202652 6.9634444527597665 -1 0 0 I I #
coedge $-1 $265 $396 $397 $398 forward $266 $-1 #
edge $-1 $267 -25.657179032202659 $399 21.729125386083211 $265 $400 forward 7 unknown #
face $-1 $-1 $266 $14 $-1 $401 reversed single #
point $-1 -44.207892086550494 25.657179032202659 6.9634444527597594 #
coedge $-1 $272 $271 $379 $402 forward $117 $-1 #
coedge $-1 $378 $273 $272 $338 reversed $319 $-1 #
edge $-1 $403 -21.729125386083211 $275 29.358104012297879 $337 $404 forward 7 unknown #
coedge $-1 $273 $386 $390 $405 reversed $319 $-1 #
vertex $-1 $405 $406 #
straight-curve $-1 44.207892086550494 29.358104012297879 0 0 0 -1 I I #
point $-1 44.207892086550494 29.358104012297879 6.9634444527597621 #
face $-1 $407 $408 $15 $-1 $409 forward single #
loop $-1 $-1 $410 $277 #
plane-surface $-1 0 -25.543614699190545 3.9634444527597621 0 0 1 1 0 0 forward_v I I I I #
coedge $-1 $280 $411 $412 $413 reversed $207 $-1 #
edge $-1 $414 -27.052863532129283 $287 -7.2571935767131386 $280 $415 forward 7 unknown #
coedge $-1 $349 $281 $416 $417 reversed $209 $-1 #
coedge $-1 $282 $348 $352 $418 reversed $209 $-1 #
vertex $-1 $418 $419 #
straight-curve $-1 -24.412222131134349 -1.7567449980177798 50.834895114721924 0 -0.52991925155115449 0.84804810408105047 I I #
coedge $-1 $420 $284 $349 $418 forward $278 $-1 #
coedge $-1 $284 $421 $286 $356 forward $278 $-1 #
straight-curve $-1 -24.412222131134349 36.61204657040993 6.9634444527597594 0 -1 0 I I #
coedge $-1 $411 $286 $422 $423 forward $207 $-1 #
edge $-1 $424 -44.207892086550494 $288 24.412222131134349 $286 $425 forward 7 unknown #
point $-1 -24.412222131134349 29.358104012297879 1.0407262206349515 #
point $-1 -24.412222131134349 29.358104012297879 6.9634444527597621 #
point $-1 -34.310057108842422 25.229684982780743 2.5786601575681534 #
loop $-1 $-1 $309 $296 #
plane-surface $-1 0 29.358104012297879 0 0 -1 0 0 0 -1 forward_v I I I I #
coedge $-1 $299 $298 $311 $371 forward $166 $-1 #
coedge $-1 $365 $309 $299 $364 reversed $360 $-1 #
edge $-1 $426 -44.207892086550494 $315 44.207892086550494 $363 $427 forward 7 unknown #
coedge $-1 $300 $363 $304 $368 reversed $360 $-1 #
straight-curve $-1 0 29.358104012297879 6.9634444527597621 -1 0 0 I I #
point $-1 44.207892086550494 29.358104012297879 6.9634444527597621 #
edge $-1 $305 -6.9634444527597621 $426 6.9634444527597621 $365 $428 forward 7 unknown #
point $-1 -44.207892086550494 29.358104012297879 6.9634444527597621 #
straight-curve $-1 44.207892086550494 29.358104012297879 0 0 0 -1 I I #
edge $-1 $313 -29.358104012297879 $426 29.358104012297879 $311 $429 forward 7 unknown #
straight-curve $-1 0 -29.358104012297879 -6.9634444527597621 -1 0 0 I I #
point $-1 -44.207892086550494 -29.358104012297879 -6.9634444527597621 #
point $-1 44.207892086550494 29.358104012297879 -6.9634444527597621 #
face $-1 $334 $430 $14 $-1 $431 reversed single #
loop $-1 $-1 $390 $318 #
plane-surface $-1 0 0 -6.9634444527597621 0 0 1 1 0 0 forward_v I I I I #
coedge $-1 $324 $337 $321 $381 forward $319 $-1 #
coedge $-1 $397 $321 $336 $402 reversed $258 $-1 #
coedge $-1 $321 $397 $322 $383 forward $258 $-1 #
edge $-1 $403 -4.2317222263798815 $387 -1.231722226379881 $378 $432 forward 7 unknown #
coedge $-1 $323 $322 $396 $433 reversed $189 $-1 #
edge $-1 $434 -44.207892086550494 $387 44.207892086550494 $380 $435 forward 7 unknown #
coedge $-1 $436 $437 $323 $385 forward $430 $-1 #
edge $-1 $388 -44.207892086550494 $438 44.207892086550494 $384 $439 forward 7 unknown #
coedge $-1 $339 $324 $437 $440 forward $319 $-1 #
vertex $-1 $325 $441 #
vertex $-1 $440 $442 #
straight-curve $-1 44.207892086550494 -12.771807349595273 3.9634444527597621 0 -1 0 I I #
coedge $-1 $443 $326 $339 $405 forward $376 $-1 #
coedge $-1 $326 $443 $328 $394 forward $376 $-1 #
straight-curve $-1 0 29.358104012297879 -6.9634444527597621 1 0 0 I I #
coedge $-1 $396 $328 $436 $444 reversed $266 $-1 #
edge $-1 $445 -29.358104012297879 $329 29.358104012297879 $328 $446 forward 7 unknown #
point $-1 -44.207892086550494 29.358104012297879 -6.9634444527597621 #
coedge $-1 $332 $393 $382 $433 forward $266 $-1 #
coedge $-1 $380 $379 $332 $398 reversed $258 $-1 #
edge $-1 $434 1.231722226379881 $399 4.2317222263798815 $332 $447 forward 7 unknown #
vertex $-1 $398 $448 #
straight-curve $-1 -44.207892086550494 0 6.9634444527597621 0 -1 0 I I #
plane-surface $-1 -44.207892086550494 0 0 1 0 0 0 0 -1 forward_v I I I I #
edge $-1 $399 -44.207892086550494 $403 44.207892086550494 $336 $449 forward 7 unknown #
vertex $-1 $338 $450 #
straight-curve $-1 44.207892086550494 0 6.9634444527597621 0 1 0 I I #
edge $-1 $340 -29.358104012297879 $451 29.358104012297879 $339 $452 forward 7 unknown #
point $-1 44.207892086550494 29.358104012297879 -6.9634444527597621 #
face $-1 $453 $454 $15 $-1 $455 reversed single #
loop $-1 $-1 $456 $343 #
plane-surface $-1 0 -21.729125386083211 5.4634444527597621 0 -1 0 0 0 -1 forward_v I I I I #
coedge $-1 $457 $458 $459 $460 reversed $344 $-1 #
coedge $-1 $346 $355 $461 $462 reversed $207 $-1 #
coedge $-1 $463 $416 $346 $413 forward $464 $-1 #
edge $-1 $414 -1.0407262206349603 $465 6.9634444527597621 $346 $466 forward 7 unknown #
vertex $-1 $413 $467 #
straight-curve $-1 -17.155028554421211 29.358104012297879 1.0407262206349586 1 0 0 I I #
coedge $-1 $412 $468 $348 $417 forward $464 $-1 #
edge $-1 $469 29.711581952479584 $414 36.69552331573832 $416 $470 forward 7 unknown #
edge $-1 $350 7.2571935767131386 $469 27.052863532129283 $352 $471 forward 7 unknown #
point $-1 -24.412222131134349 25.657179032202659 6.9634444527597594 #
coedge $-1 $472 $352 $468 $473 forward $278 $-1 #
coedge $-1 $353 $472 $474 $475 forward $278 $-1 #
coedge $-1 $474 $476 $355 $423 reversed $454 $-1 #
edge $-1 $424 -6.9634444527597621 $477 6.9634444527597621 $422 $478 forward 7 unknown #
vertex $-1 $475 $479 #
straight-curve $-1 0 29.358104012297879 6.9634444527597621 -1 0 0 I I #
vertex $-1 $364 $480 #
straight-curve $-1 0 29.358104012297879 -6.9634444527597621 1 0 0 I I #
straight-curve $-1 -44.207892086550494 29.358104012297879 0 0 0 -1 I I #
straight-curve $-1 -44.207892086550494 0 -6.9634444527597621 0 1 0 I I #
loop $-1 $-1 $384 $375 #
plane-surface $-1 0 -29.358104012297879 0 0 1 0 0 0 1 forward_v I I I I #
straight-curve $-1 44.207892086550494 -21.729125386083211 2.731722226379881 0 0 -1 I I #
edge $-1 $438 -16.586296662702608 $434 -8.9573180364879388 $396 $481 forward 7 unknown #
vertex $-1 $433 $482 #
straight-curve $-1 0 -21.729125386083211 3.9634444527597621 1 0 0 I I #
coedge $-1 $483 $384 $393 $444 forward $430 $-1 #
coedge $-1 $384 $483 $386 $440 reversed $430 $-1 #
vertex $-1 $444 $484 #
straight-curve $-1 0 -29.358104012297879 3.9634444527597621 -1 0 0 I I #
edge $-1 $388 -3.9634444527597621 $451 6.9634444527597621 $386 $485 forward 7 unknown #
point $-1 44.207892086550494 -21.729125386083211 3.9634444527597621 #
point $-1 44.207892086550494 -29.358104012297879 3.9634444527597621 #
coedge $-1 $391 $390 $483 $486 forward $376 $-1 #
edge $-1 $438 -3.9634444527597621 $445 6.9634444527597621 $393 $487 forward 7 unknown #
vertex $-1 $394 $488 #
straight-curve $-1 -44.207892086550494 0 -6.9634444527597621 0 1 0 I I #
straight-curve $-1 -44.207892086550494 -21.729125386083211 2.731722226379881 0 0 1 I I #
point $-1 -44.207892086550494 -21.729125386083211 6.9634444527597621 #
straight-curve $-1 0 -21.729125386083211 6.9634444527597621 1 0 0 I I #
point $-1 44.207892086550494 -21.729125386083211 6.9634444527597621 #
vertex $-1 $440 $489 #
straight-curve $-1 44.207892086550494 0 -6.9634444527597621 0 -1 0 I I #
face $-1 $490 $491 $15 $-1 $492 reversed single #
loop $-1 $-1 $493 $407 #
plane-surface $-1 44.207892086550494 0 0 -1 0 0 0 0 1 forward_v I I I I #
coedge $-1 $494 $495 $493 $496 reversed $408 $-1 #
coedge $-1 $497 $410 $495 $498 reversed $344 $-1 #
coedge $-1 $410 $497 $499 $500 reversed $344 $-1 #
coedge $-1 $501 $493 $410 $460 forward $454 $-1 #
edge $-1 $502 8.9573180364879388 $503 16.586296662702608 $459 $504 forward 7 unknown #
coedge $-1 $505 $506 $411 $462 forward $491 $-1 #
edge $-1 $465 -44.207892086550494 $477 44.207892086550494 $411 $507 forward 7 unknown #
coedge $-1 $508 $412 $506 $509 reversed $464 $-1 #
loop $-1 $-1 $416 $510 #
vertex $-1 $462 $511 #
straight-curve $-1 -44.207892086550494 29.358104012297879 0 0 0 -1 I I #
point $-1 -44.207892086550494 29.358104012297879 1.0407262206349603 #
coedge $-1 $416 $512 $420 $473 reversed $464 $-1 #
vertex $-1 $473 $513 #
straight-curve $-1 -44.207892086550494 9.9124397615438866 32.160295196808825 0 0.52991925155115449 -0.84804810408105047 I I #
straight-curve $-1 -17.155028554421211 25.657179032202652 6.9634444527597665 -1 0 0 I I #
coedge $-1 $421 $420 $494 $514 forward $278 $-1 #
edge $-1 $469 -25.657179032202659 $515 21.729125386083211 $468 $516 forward 7 unknown #
coedge $-1 $493 $422 $421 $475 reversed $454 $-1 #
edge $-1 $517 -21.729125386083211 $424 29.358104012297879 $474 $518 forward 7 unknown #
coedge $-1 $422 $501 $505 $519 reversed $454 $-1 #
vertex $-1 $519 $520 #
straight-curve $-1 44.207892086550494 29.358104012297879 0 0 0 -1 I I #
point $-1 44.207892086550494 29.358104012297879 6.9634444527597621 #
point $-1 -44.207892086550494 29.358104012297879 -6.9634444527597621 #
straight-curve $-1 -44.207892086550494 -12.771807349595273 3.9634444527597621 0 1 0 I I #
point $-1 -44.207892086550494 -21.729125386083211 3.9634444527597621 #
coedge $-1 $437 $436 $443 $486 reversed $430 $-1 #
point $-1 -44.207892086550494 -29.358104012297879 3.9634444527597621 #
straight-curve $-1 44.207892086550494 -29.358104012297879 0 0 0 -1 I I #
edge $-1 $451 -44.207892086550494 $445 44.207892086550494 $483 $521 forward 7 unknown #
straight-curve $-1 -44.207892086550494 -29.358104012297879 0 0 0 -1 I I #
point $-1 -44.207892086550494 -29.358104012297879 -6.9634444527597621 #
point $-1 44.207892086550494 -29.358104012297879 -6.9634444527597621 #
face $-1 $510 $522 $15 $-1 $523 reversed single #
loop $-1 $-1 $505 $453 #
plane-surface $-1 0 0 -6.9634444527597621 0 0 1 1 0 0 forward_v I I I I #
coedge $-1 $459 $474 $456 $496 forward $454 $-1 #
coedge $-1 $524 $456 $472 $514 reversed $408 $-1 #
coedge $-1 $456 $524 $457 $498 forward $408 $-1 #
edge $-1 $517 -4.2317222263798815 $502 -1.231722226379881 $493 $525 forward 7 unknown #
coedge $-1 $458 $457 $526 $527 reversed $344 $-1 #
edge $-1 $528 -44.207892086550494 $502 44.207892086550494 $495 $529 forward 7 unknown #
coedge $-1 $530 $531 $458 $500 forward $522 $-1 #
edge $-1 $503 -44.207892086550494 $532 44.207892086550494 $499 $533 forward 7 unknown #
coedge $-1 $476 $459 $531 $534 forward $454 $-1 #
vertex $-1 $460 $535 #
vertex $-1 $534 $536 #
straight-curve $-1 44.207892086550494 -12.771807349595273 3.9634444527597621 0 -1 0 I I #
coedge $-1 $537 $461 $476 $519 forward $491 $-1 #
coedge $-1 $461 $537 $463 $509 forward $491 $-1 #
straight-curve $-1 0 29.358104012297879 -6.9634444527597621 1 0 0 I I #
coedge $-1 $526 $463 $530 $538 reversed $464 $-1 #
edge $-1 $539 -29.358104012297879 $465 29.358104012297879 $463 $540 forward 7 unknown #
face $-1 $-1 $464 $15 $-1 $541 reversed single #
point $-1 -44.207892086550494 29.358104012297879 -6.9634444527597621 #
coedge $-1 $468 $526 $524 $542 forward $464 $-1 #
point $-1 -44.207892086550494 25.657179032202659 6.9634444527597594 #
edge $-1 $515 -44.207892086550494 $517 44.207892086550494 $472 $543 forward 7 unknown #
vertex $-1 $542 $544 #
straight-curve $-1 -44.207892086550494 0 6.9634444527597621 0 -1 0 I I #
vertex $-1 $475 $545 #
straight-curve $-1 44.207892086550494 0 6.9634444527597621 0 1 0 I I #
edge $-1 $477 -29.358104012297879 $546 29.358104012297879 $476 $547 forward 7 unknown #
point $-1 44.207892086550494 29.358104012297879 -6.9634444527597621 #
straight-curve $-1 0 -29.358104012297879 -6.9634444527597621 -1 0 0 I I #
loop $-1 $-1 $499 $490 #
plane-surface $-1 0 -29.358104012297879 0 0 1 0 0 0 1 forward_v I I I I #
coedge $-1 $495 $494 $512 $542 reversed $408 $-1 #
straight-curve $-1 44.207892086550494 -21.729125386083211 2.731722226379881 0 0 -1 I I #
coedge $-1 $512 $508 $497 $527 forward $464 $-1 #
edge $-1 $532 -16.586296662702608 $528 -8.9573180364879388 $526 $548 forward 7 unknown #
vertex $-1 $527 $549 #
straight-curve $-1 0 -21.729125386083211 3.9634444527597621 1 0 0 I I #
coedge $-1 $550 $499 $508 $538 forward $522 $-1 #
coedge $-1 $499 $550 $501 $534 reversed $522 $-1 #
vertex $-1 $538 $551 #
straight-curve $-1 0 -29.358104012297879 3.9634444527597621 -1 0 0 I I #
edge $-1 $503 -3.9634444527597621 $546 6.9634444527597621 $501 $552 forward 7 unknown #
point $-1 44.207892086550494 -21.729125386083211 3.9634444527597621 #
point $-1 44.207892086550494 -29.358104012297879 3.9634444527597621 #
coedge $-1 $506 $505 $550 $553 forward $491 $-1 #
edge $-1 $532 -3.9634444527597621 $539 6.9634444527597621 $508 $554 forward 7 unknown #
vertex $-1 $509 $555 #
straight-curve $-1 -44.207892086550494 0 -6.9634444527597621 0 1 0 I I #
plane-surface $-1 -44.207892086550494 0 0 1 0 0 0 0 -1 forward_v I I I I #
edge $-1 $528 1.231722226379881 $515 4.2317222263798815 $512 $556 forward 7 unknown #
straight-curve $-1 0 -21.729125386083211 6.9634444527597621 1 0 0 I I #
point $-1 -44.207892086550494 -21.729125386083211 6.9634444527597621 #
point $-1 44.207892086550494 -21.729125386083211 6.9634444527597621 #
vertex $-1 $534 $557 #
straight-curve $-1 44.207892086550494 0 -6.9634444527597621 0 -1 0 I I #
straight-curve $-1 -44.207892086550494 -12.771807349595273 3.9634444527597621 0 1 0 I I #
point $-1 -44.207892086550494 -21.729125386083211 3.9634444527597621 #
coedge $-1 $531 $530 $537 $553 reversed $522 $-1 #
point $-1 -44.207892086550494 -29.358104012297879 3.9634444527597621 #
straight-curve $-1 44.207892086550494 -29.358104012297879 0 0 0 -1 I I #
edge $-1 $546 -44.207892086550494 $539 44.207892086550494 $550 $558 forward 7 unknown #
straight-curve $-1 -44.207892086550494 -29.358104012297879 0 0 0 -1 I I #
point $-1 -44.207892086550494 -29.358104012297879 -6.9634444527597621 #
straight-curve $-1 -44.207892086550494 -21.729125386083211 2.731722226379881 0 0 1 I I #
point $-1 44.207892086550494 -29.358104012297879 -6.9634444527597621 #
straight-curve $-1 0 -29.358104012297879 -6.9634444527597621 -1 0 0 I I #
End-of-ACIS-data 