500 0 4 0           
7 Unknown 11 ACIS 5.0 NT 24 Thu Mar 25 22:44:50 1999 
-1 9.9999999999999995e-007 1e-010 
body $-1 $4 $-1 $5 #
body $-1 $6 $-1 $7 #
body $-1 $8 $-1 $9 #
body $-1 $10 $-1 $11 #
lump $-1 $-1 $12 $0 #
transform $-1 1 0 0 0 1 0 0 0 1 66.286202581865894 27.003024931288206 7.1534488239251122 1 rotate no_reflect no_shear #
lump $-1 $-1 $13 $1 #
transform $-1 1 0 0 0 1 0 0 0 1 66.286202581865894 27.003024931288206 7.1534488239251122 1 rotate no_reflect no_shear #
lump $-1 $-1 $14 $2 #
transform $-1 1 0 0 0 1 0 0 0 1 66.286202581865894 27.003024931288206 7.1534488239251122 1 rotate no_reflect no_shear #
lump $-1 $-1 $15 $3 #
transform $-1 1 0 0 0 1 0 0 0 1 66.286202581865894 27.003024931288206 7.1534488239251122 1 rotate no_reflect no_shear #
shell $-1 $-1 $-1 $16 $-1 $4 #
shell $-1 $-1 $-1 $17 $-1 $6 #
shell $-1 $-1 $-1 $18 $-1 $8 #
shell $-1 $-1 $-1 $19 $-1 $10 #
face $-1 $20 $21 $12 $-1 $22 forward single #
face $-1 $23 $24 $13 $-1 $25 forward single #
face $-1 $26 $27 $14 $-1 $28 reversed single #
face $-1 $29 $30 $15 $-1 $31 reversed single #
face $-1 $32 $33 $12 $-1 $34 reversed single #
loop $-1 $-1 $35 $16 #
plane-surface $-1 0 0 7.1534488239251122 0 0 1 1 0 0 forward_v I I I I #
face $-1 $36 $37 $13 $-1 $38 forward single #
loop $-1 $-1 $39 $17 #
plane-surface $-1 -160.02905035900733 -13.307219329586825 94.183706681867193 0 -1 0 0.70710678939079041 0 -0.70710677298230451 forward_v I I I I #
face $-1 $40 $41 $14 $-1 $42 reversed single #
loop $-1 $43 $44 $18 #
cone-surface $-1 -61.58797690069747 -23.089937616516384 2.4552230960132055 0.70710678939079041 0 -0.70710677298230451 0.70710677298230451 0 0.70710678939079041 1 I I 0 1 1 forward I I I I #
face $-1 $45 $46 $15 $-1 $47 reversed single #
loop $-1 $48 $49 $19 #
cone-surface $-1 -61.58797690069747 -17.220306644358647 2.4552230960132055 0.70710678939079041 0 -0.70710677298230451 0.70710677298230451 0 0.70710678939079041 1 I I 0 1 1 forward I I I I #
face $-1 $50 $51 $12 $-1 $52 reversed single #
loop $-1 $-1 $53 $20 #
plane-surface $-1 0 0 -7.1534488239251122 0 0 1 1 0 0 forward_v I I I I #
coedge $-1 $54 $55 $56 $57 forward $21 $-1 #
face $-1 $58 $59 $13 $-1 $60 reversed single #
loop $-1 $-1 $61 $23 #
plane-surface $-1 -66.286202581865894 -20.155122130437515 0.44086108003820357 -0.70710678939079041 0 0.70710677298230451 0.70710677298230451 0 0.70710678939079041 forward_v I I I I #
coedge $-1 $62 $63 $64 $65 reversed $24 $-1 #
face $-1 $66 $67 $14 $-1 $68 forward single #
loop $-1 $69 $70 $26 #
cone-surface $-1 -59.892491618893956 -23.089937616516384 0.7597378535536059 0.70710678939079041 0 -0.70710677298230451 0.35355338649115226 0 0.35355339469539521 1 I I -0.70710678118654735 0.70710678118654768 0.5 forward I I I I #
loop $-1 $-1 $71 $18 #
coedge $-1 $44 $44 $72 $73 reversed $27 $-1 #
face $-1 $74 $75 $15 $-1 $76 reversed single #
loop $-1 $77 $78 $29 #
cone-surface $-1 -59.892491618893956 -17.220306644358647 0.7597378535536059 0.70710678939079041 0 -0.70710677298230451 0.35355338649115226 0 0.35355339469539521 1 I I -0.70710678118654735 0.70710678118654768 0.5 forward I I I I #
loop $-1 $-1 $79 $19 #
coedge $-1 $49 $49 $80 $81 reversed $30 $-1 #
face $-1 $82 $83 $12 $-1 $84 reversed single #
loop $-1 $-1 $85 $32 #
plane-surface $-1 0 -27.003024931288206 0 0 1 0 0 0 1 forward_v I I I I #
coedge $-1 $86 $87 $88 $89 forward $33 $-1 #
coedge $-1 $90 $35 $91 $92 forward $21 $-1 #
coedge $-1 $35 $90 $93 $94 forward $21 $-1 #
coedge $-1 $95 $96 $35 $57 reversed $97 $-1 #
edge $-1 $98 -27.003024931288206 $99 27.003024931288206 $56 $100 forward 7 unknown #
face $-1 $101 $102 $13 $-1 $103 forward single #
loop $-1 $-1 $104 $36 #
plane-surface $-1 -66.286202581865894 0 0 1 0 0 0 0 -1 forward_v I I I I #
coedge $-1 $105 $106 $104 $107 reversed $37 $-1 #
coedge $-1 $63 $39 $106 $108 forward $24 $-1 #
coedge $-1 $39 $62 $109 $110 reversed $24 $-1 #
coedge $-1 $111 $104 $39 $65 forward $59 $-1 #
edge $-1 $112 -46.650992260895393 $113 -39.938404517008486 $64 $114 forward 7 unknown #
face $-1 $115 $116 $14 $-1 $117 forward single #
loop $-1 $-1 $118 $40 #
plane-surface $-1 -160.02905035900733 -13.307219329586825 94.183706681867193 0 -1 0 0.70710678939079041 0 -0.70710677298230451 forward_v I I I I #
loop $-1 $-1 $119 $26 #
coedge $-1 $70 $70 $71 $120 forward $41 $-1 #
coedge $-1 $71 $71 $70 $120 reversed $43 $-1 #
coedge $-1 $72 $72 $44 $73 forward $116 $-1 #
edge $-1 $121 0 $121 6.2831853071796004 $72 $122 forward 7 unknown #
face $-1 $123 $124 $15 $-1 $125 reversed single #
loop $-1 $126 $127 $45 #
cone-surface $-1 -61.58797690069747 -23.089937616516384 2.4552230960132055 0.70710678939079041 0 -0.70710677298230451 0.70710677298230451 0 0.70710678939079041 1 I I 0 1 1 forward I I I I #
loop $-1 $-1 $128 $29 #
coedge $-1 $78 $78 $79 $129 forward $46 $-1 #
coedge $-1 $79 $79 $78 $129 reversed $48 $-1 #
coedge $-1 $80 $80 $49 $81 forward $130 $-1 #
edge $-1 $131 0 $131 6.2831853071796004 $80 $132 forward 7 unknown #
face $-1 $133 $134 $12 $-1 $135 reversed single #
loop $-1 $-1 $136 $50 #
plane-surface $-1 -66.286202581865894 0 0 1 0 0 0 0 -1 forward_v I I I I #
coedge $-1 $137 $93 $138 $139 forward $51 $-1 #
coedge $-1 $140 $53 $137 $141 forward $33 $-1 #
coedge $-1 $53 $140 $142 $143 forward $33 $-1 #
coedge $-1 $96 $95 $53 $89 reversed $97 $-1 #
edge $-1 $144 -27.003024931288206 $145 27.003024931288206 $88 $146 forward 7 unknown #
coedge $-1 $55 $54 $147 $148 forward $21 $-1 #
coedge $-1 $149 $150 $54 $92 reversed $134 $-1 #
edge $-1 $99 -66.286202581865894 $151 66.286202581865894 $91 $152 forward 7 unknown #
coedge $-1 $85 $153 $55 $94 reversed $51 $-1 #
edge $-1 $154 -66.286202581865894 $98 66.286202581865894 $93 $155 forward 7 unknown #
coedge $-1 $88 $56 $153 $156 forward $97 $-1 #
coedge $-1 $56 $88 $149 $157 reversed $97 $-1 #
loop $-1 $-1 $95 $133 #
vertex $-1 $57 $158 #
vertex $-1 $57 $159 #
straight-curve $-1 66.286202581865894 0 7.1534488239251122 0 1 0 I I #
face $-1 $160 $161 $13 $-1 $162 reversed single #
loop $-1 $-1 $109 $58 #
plane-surface $-1 0 0 7.1534488239251122 0 0 1 1 0 0 forward_v I I I I #
coedge $-1 $64 $163 $61 $107 forward $59 $-1 #
coedge $-1 $164 $61 $165 $166 reversed $37 $-1 #
coedge $-1 $61 $164 $62 $108 reversed $37 $-1 #
edge $-1 $167 -16.92546386606945 $112 -3.2296582643680676 $104 $168 forward 7 unknown #
edge $-1 $112 0 $169 9.4930325158808859 $62 $170 forward 7 unknown #
coedge $-1 $171 $172 $63 $110 forward $102 $-1 #
edge $-1 $113 13.728322597637771 $169 20.440910185758391 $109 $173 forward 7 unknown #
coedge $-1 $174 $64 $172 $175 reversed $59 $-1 #
vertex $-1 $107 $176 #
vertex $-1 $110 $177 #
straight-curve $-1 -66.286202581865894 -13.307219329586825 47.091853340933596 0 0 1 I I #
face $-1 $178 $179 $14 $-1 $180 reversed single #
loop $-1 $181 $72 $66 #
plane-surface $-1 -66.286202581865894 -20.155122130437515 0.44086108003820357 -0.70710678939079041 0 0.70710677298230451 0.70710677298230451 0 0.70710678939079041 forward_v I I I I #
coedge $-1 $182 $183 $184 $185 reversed $67 $-1 #
coedge $-1 $119 $119 $-1 $186 forward $69 $-1 #
edge $-1 $187 0 $187 6.2831853071796004 $70 $188 forward 7 unknown #
vertex $-1 $73 $189 #
ellipse-curve $-1 -62.929908787805587 -23.089937616516384 3.7971549519816552 0.70710678939079041 0 -0.70710677298230451 0.70710677298230451 0 0.70710678939079041 1 I I #
face $-1 $190 $191 $15 $-1 $192 forward single #
loop $-1 $193 $194 $74 #
cone-surface $-1 -59.892491618893956 -23.089937616516384 0.7597378535536059 0.70710678939079041 0 -0.70710677298230451 0.35355338649115226 0 0.35355339469539521 1 I I -0.70710678118654735 0.70710678118654768 0.5 forward I I I I #
loop $-1 $-1 $195 $45 #
coedge $-1 $127 $127 $196 $197 reversed $75 $-1 #
coedge $-1 $128 $128 $-1 $198 forward $77 $-1 #
edge $-1 $199 0 $199 6.2831853071796004 $78 $200 forward 7 unknown #
loop $-1 $201 $80 $190 #
vertex $-1 $81 $202 #
ellipse-curve $-1 -62.929908787805587 -17.220306644358647 3.7971549519816552 0.70710678939079041 0 -0.70710677298230451 0.70710677298230451 0 0.70710678939079041 1 I I #
face $-1 $-1 $97 $12 $-1 $203 reversed single #
loop $-1 $-1 $149 $82 #
plane-surface $-1 0 27.003024931288206 0 0 -1 0 0 0 -1 forward_v I I I I #
coedge $-1 $204 $147 $150 $205 forward $83 $-1 #
coedge $-1 $153 $85 $86 $141 reversed $51 $-1 #
coedge $-1 $147 $204 $85 $139 reversed $83 $-1 #
edge $-1 $154 -7.1534488239251122 $206 7.1534488239251122 $138 $207 forward 7 unknown #
coedge $-1 $87 $86 $204 $208 forward $33 $-1 #
edge $-1 $145 -66.286202581865894 $206 66.286202581865894 $137 $209 forward 7 unknown #
coedge $-1 $150 $149 $87 $143 reversed $134 $-1 #
edge $-1 $210 -66.286202581865894 $144 66.286202581865894 $142 $211 forward 7 unknown #
vertex $-1 $89 $212 #
vertex $-1 $156 $213 #
straight-curve $-1 66.286202581865894 0 -7.1534488239251122 0 -1 0 I I #
coedge $-1 $136 $138 $90 $148 reversed $83 $-1 #
edge $-1 $151 -27.003024931288206 $154 27.003024931288206 $147 $214 forward 7 unknown #
coedge $-1 $142 $91 $96 $157 forward $134 $-1 #
coedge $-1 $91 $142 $136 $205 reversed $134 $-1 #
vertex $-1 $92 $215 #
straight-curve $-1 0 27.003024931288206 7.1534488239251122 -1 0 0 I I #
coedge $-1 $93 $137 $95 $156 reversed $51 $-1 #
vertex $-1 $148 $216 #
straight-curve $-1 0 -27.003024931288206 7.1534488239251122 1 0 0 I I #
edge $-1 $98 -7.1534488239251122 $145 7.1534488239251122 $95 $217 forward 7 unknown #
edge $-1 $99 -7.1534488239251122 $144 7.1534488239251122 $96 $218 forward 7 unknown #
point $-1 66.286202581865894 -27.003024931288206 7.1534488239251122 #
point $-1 66.286202581865894 27.003024931288206 7.1534488239251122 #
face $-1 $219 $220 $13 $-1 $221 reversed single #
loop $-1 $-1 $222 $101 #
plane-surface $-1 0 0 -7.1534488239251122 0 0 1 1 0 0 forward_v I I I I #
coedge $-1 $104 $223 $224 $225 reversed $59 $-1 #
coedge $-1 $106 $105 $171 $226 reversed $37 $-1 #
coedge $-1 $224 $227 $105 $166 forward $220 $-1 #
edge $-1 $228 13.78681095313978 $167 23.279843469020662 $165 $229 forward 7 unknown #
vertex $-1 $225 $230 #
straight-curve $-1 -66.286202581865894 -10.077561065218758 0.44086108003820007 0 1 0 I I #
vertex $-1 $226 $231 #
straight-curve $-1 -66.286202581865894 -13.307219329586825 0.44086108003820357 0.70710677298230451 0 0.70710678939079041 I I #
coedge $-1 $232 $109 $164 $226 forward $102 $-1 #
coedge $-1 $109 $233 $111 $175 forward $102 $-1 #
straight-curve $-1 -80.014525179503664 -13.307219329586825 7.1534488239251104 1 0 0 I I #
coedge $-1 $223 $111 $234 $235 forward $59 $-1 #
edge $-1 $236 -27.003024931288206 $113 13.307219329586825 $111 $237 forward 7 unknown #
point $-1 -66.286202581865894 -13.307219329586825 0.44086108003820357 #
point $-1 -66.286202581865894 -13.307219329586825 7.1534488239251122 #
face $-1 $238 $239 $14 $-1 $240 forward single #
loop $-1 $-1 $241 $115 #
plane-surface $-1 -66.286202581865894 0 0 1 0 0 0 0 -1 forward_v I I I I #
loop $-1 $-1 $242 $66 #
coedge $-1 $183 $118 $243 $244 forward $67 $-1 #
coedge $-1 $118 $182 $245 $246 reversed $67 $-1 #
coedge $-1 $247 $241 $118 $185 forward $179 $-1 #
edge $-1 $248 -46.650992260895393 $249 -39.938404517008486 $184 $250 forward 7 unknown #
edge $-1 $251 1 $251 0 $119 $-1 forward 7 unknown #
vertex $-1 $120 $252 #
ellipse-curve $-1 -60.246045013589352 -23.089937616516384 1.1132912400447583 -0.70710678939079041 0 0.70710677298230451 0.70710677298230451 0 0.70710678939079041 1 I I #
point $-1 -62.22280201482328 -23.089937616516384 4.504261741372444 #
face $-1 $253 $130 $15 $-1 $254 forward single #
loop $-1 $-1 $255 $123 #
plane-surface $-1 -160.02905035900733 -13.307219329586825 94.183706681867193 0 -1 0 0.70710678939079041 0 -0.70710677298230451 forward_v I I I I #
loop $-1 $-1 $256 $74 #
coedge $-1 $194 $194 $195 $257 forward $124 $-1 #
coedge $-1 $195 $195 $194 $257 reversed $126 $-1 #
coedge $-1 $196 $196 $127 $197 forward $201 $-1 #
edge $-1 $258 0 $258 6.2831853071796004 $196 $259 forward 7 unknown #
edge $-1 $260 1 $260 0 $128 $-1 forward 7 unknown #
vertex $-1 $129 $261 #
ellipse-curve $-1 -60.246045013589352 -17.220306644358647 1.1132912400447583 -0.70710678939079041 0 0.70710677298230451 0.70710677298230451 0 0.70710678939079041 1 I I #
loop $-1 $262 $196 $190 #
point $-1 -62.22280201482328 -17.220306644358647 4.504261741372444 #
plane-surface $-1 66.286202581865894 0 0 -1 0 0 0 0 1 forward_v I I I I #
coedge $-1 $138 $136 $140 $208 reversed $83 $-1 #
edge $-1 $151 -7.1534488239251122 $210 7.1534488239251122 $150 $263 forward 7 unknown #
vertex $-1 $208 $264 #
straight-curve $-1 -66.286202581865894 -27.003024931288206 0 0 0 -1 I I #
edge $-1 $206 -27.003024931288206 $210 27.003024931288206 $204 $265 forward 7 unknown #
straight-curve $-1 0 -27.003024931288206 -7.1534488239251122 -1 0 0 I I #
vertex $-1 $143 $266 #
straight-curve $-1 0 27.003024931288206 -7.1534488239251122 1 0 0 I I #
point $-1 66.286202581865894 27.003024931288206 -7.1534488239251122 #
point $-1 66.286202581865894 -27.003024931288206 -7.1534488239251122 #
straight-curve $-1 -66.286202581865894 0 7.1534488239251122 0 -1 0 I I #
point $-1 -66.286202581865894 27.003024931288206 7.1534488239251122 #
point $-1 -66.286202581865894 -27.003024931288206 7.1534488239251122 #
straight-curve $-1 66.286202581865894 -27.003024931288206 0 0 0 -1 I I #
straight-curve $-1 66.286202581865894 27.003024931288206 0 0 0 -1 I I #
face $-1 $267 $268 $13 $-1 $269 reversed single #
loop $-1 $-1 $165 $160 #
plane-surface $-1 0 -27.003024931288206 0 0 1 0 0 0 1 forward_v I I I I #
coedge $-1 $270 $271 $272 $273 forward $161 $-1 #
coedge $-1 $163 $174 $274 $275 reversed $59 $-1 #
coedge $-1 $276 $165 $163 $225 forward $220 $-1 #
edge $-1 $167 -0.44086108003820362 $277 7.1534488239251122 $163 $278 forward 7 unknown #
edge $-1 $169 3.2296582643680676 $228 16.92546386606945 $171 $279 forward 7 unknown #
coedge $-1 $165 $280 $232 $281 reversed $220 $-1 #
vertex $-1 $281 $282 #
straight-curve $-1 -49.824867590953517 -27.003024931288206 16.902196452937563 -0.70710677298230462 0 -0.70710678939079052 I I #
point $-1 -66.286202581865894 -27.003024931288206 0.44086108003820362 #
point $-1 -59.573614993745274 -13.307219329586825 7.1534488239251113 #
coedge $-1 $283 $171 $227 $281 forward $102 $-1 #
coedge $-1 $172 $283 $284 $285 forward $102 $-1 #
coedge $-1 $284 $286 $174 $235 reversed $268 $-1 #
edge $-1 $236 -7.1534488239251122 $287 7.1534488239251122 $234 $288 forward 7 unknown #
vertex $-1 $285 $289 #
straight-curve $-1 -66.286202581865894 0 7.1534488239251122 0 -1 0 I I #
face $-1 $290 $291 $14 $-1 $292 reversed single #
loop $-1 $-1 $245 $178 #
plane-surface $-1 0 0 7.1534488239251122 0 0 1 1 0 0 forward_v I I I I #
coedge $-1 $184 $293 $242 $294 forward $179 $-1 #
coedge $-1 $295 $243 $241 $294 reversed $181 $-1 #
coedge $-1 $242 $296 $182 $244 reversed $181 $-1 #
edge $-1 $248 0 $297 9.4930325158808859 $182 $298 forward 7 unknown #
coedge $-1 $299 $300 $183 $246 forward $239 $-1 #
edge $-1 $249 13.728322597637771 $297 20.440910185758391 $245 $301 forward 7 unknown #
coedge $-1 $302 $184 $300 $303 reversed $179 $-1 #
vertex $-1 $294 $304 #
vertex $-1 $246 $305 #
straight-curve $-1 -66.286202581865894 -13.307219329586825 47.091853340933596 0 0 1 I I #
vertex $-1 $186 $306 #
point $-1 -59.538938240607045 -23.089937616516384 1.8203980294355486 #
face $-1 $307 $308 $15 $-1 $309 reversed single #
plane-surface $-1 -66.286202581865894 -20.155122130437515 0.44086108003820357 -0.70710678939079041 0 0.70710677298230451 0.70710677298230451 0 0.70710678939079041 forward_v I I I I #
coedge $-1 $310 $311 $312 $313 reversed $191 $-1 #
coedge $-1 $256 $256 $-1 $314 forward $193 $-1 #
edge $-1 $315 0 $315 6.2831853071796004 $194 $316 forward 7 unknown #
vertex $-1 $197 $317 #
ellipse-curve $-1 -62.929908787805587 -23.089937616516384 3.7971549519816552 0.70710678939079041 0 -0.70710677298230451 0.70710677298230451 0 0.70710678939079041 1 I I #
vertex $-1 $198 $318 #
point $-1 -59.538938240607045 -17.220306644358647 1.8203980294355486 #
loop $-1 $-1 $319 $190 #
straight-curve $-1 -66.286202581865894 27.003024931288206 0 0 0 -1 I I #
point $-1 -66.286202581865894 -27.003024931288206 -7.1534488239251122 #
straight-curve $-1 -66.286202581865894 0 -7.1534488239251122 0 1 0 I I #
point $-1 -66.286202581865894 27.003024931288206 -7.1534488239251122 #
face $-1 $-1 $320 $13 $-1 $321 reversed single #
loop $-1 $-1 $322 $219 #
plane-surface $-1 0 27.003024931288206 0 0 -1 0 0 0 -1 forward_v I I I I #
coedge $-1 $274 $222 $276 $323 forward $161 $-1 #
coedge $-1 $222 $274 $286 $324 forward $161 $-1 #
coedge $-1 $325 $326 $222 $273 reversed $320 $-1 #
edge $-1 $327 -27.003024931288206 $328 27.003024931288206 $272 $329 forward 7 unknown #
coedge $-1 $271 $270 $223 $275 forward $161 $-1 #
edge $-1 $277 -27.003024931288206 $287 27.003024931288206 $223 $330 forward 7 unknown #
coedge $-1 $280 $224 $270 $323 reversed $220 $-1 #
vertex $-1 $275 $331 #
straight-curve $-1 -66.286202581865894 -27.003024931288206 0 0 0 -1 I I #
straight-curve $-1 -59.573614993745281 -10.077561065218758 7.1534488239251104 0 -1 0 I I #
coedge $-1 $227 $276 $326 $332 reversed $220 $-1 #
edge $-1 $228 -59.573614993745274 $333 66.286202581865894 $227 $334 forward 7 unknown #
point $-1 -59.573614993745274 -27.003024931288206 7.1534488239251113 #
coedge $-1 $233 $232 $335 $336 forward $102 $-1 #
coedge $-1 $322 $234 $233 $285 reversed $268 $-1 #
edge $-1 $337 -66.286202581865894 $236 66.286202581865894 $284 $338 forward 7 unknown #
coedge $-1 $234 $322 $271 $324 reversed $268 $-1 #
vertex $-1 $324 $339 #
straight-curve $-1 -66.286202581865894 27.003024931288206 0 0 0 -1 I I #
point $-1 -66.286202581865894 27.003024931288206 7.1534488239251122 #
face $-1 $340 $341 $14 $-1 $342 reversed single #
loop $-1 $-1 $343 $238 #
plane-surface $-1 0 0 -7.1534488239251122 0 0 1 1 0 0 forward_v I I I I #
coedge $-1 $241 $344 $345 $346 reversed $179 $-1 #
edge $-1 $347 -16.92546386606945 $248 -3.2296582643680676 $241 $348 forward 7 unknown #
coedge $-1 $296 $242 $349 $350 reversed $181 $-1 #
coedge $-1 $243 $295 $299 $351 reversed $181 $-1 #
vertex $-1 $351 $352 #
straight-curve $-1 -66.286202581865894 -13.307219329586825 0.44086108003820357 0.70710677298230451 0 0.70710678939079041 I I #
coedge $-1 $353 $245 $296 $351 forward $239 $-1 #
coedge $-1 $245 $354 $247 $303 forward $239 $-1 #
straight-curve $-1 -80.014525179503664 -13.307219329586825 7.1534488239251104 1 0 0 I I #
coedge $-1 $344 $247 $355 $356 forward $179 $-1 #
edge $-1 $357 -27.003024931288206 $249 13.307219329586825 $247 $358 forward 7 unknown #
point $-1 -66.286202581865894 -13.307219329586825 0.44086108003820357 #
point $-1 -66.286202581865894 -13.307219329586825 7.1534488239251122 #
point $-1 -59.53893822419856 -23.089937616516384 0.40618446706245348 #
face $-1 $359 $360 $15 $-1 $361 forward single #
loop $-1 $-1 $362 $253 #
plane-surface $-1 -66.286202581865894 0 0 1 0 0 0 0 -1 forward_v I I I I #
coedge $-1 $311 $255 $363 $364 forward $191 $-1 #
coedge $-1 $255 $310 $365 $366 reversed $191 $-1 #
coedge $-1 $367 $362 $255 $313 forward $308 $-1 #
edge $-1 $368 -46.650992260895393 $369 -39.938404517008486 $312 $370 forward 7 unknown #
edge $-1 $371 1 $371 0 $256 $-1 forward 7 unknown #
vertex $-1 $257 $372 #
ellipse-curve $-1 -60.246045013589352 -23.089937616516384 1.1132912400447583 -0.70710678939079041 0 0.70710677298230451 0.70710677298230451 0 0.70710678939079041 1 I I #
point $-1 -62.22280201482328 -23.089937616516384 4.504261741372444 #
point $-1 -59.53893822419856 -17.220306644358647 0.40618446706245348 #
coedge $-1 $373 $363 $362 $374 reversed $262 $-1 #
loop $-1 $-1 $326 $267 #
plane-surface $-1 66.286202581865894 0 0 -1 0 0 0 0 1 forward_v I I I I #
coedge $-1 $286 $284 $325 $375 forward $268 $-1 #
edge $-1 $328 -66.286202581865894 $277 66.286202581865894 $276 $376 forward 7 unknown #
edge $-1 $287 -66.286202581865894 $327 66.286202581865894 $286 $377 forward 7 unknown #
coedge $-1 $335 $272 $322 $375 reversed $320 $-1 #
coedge $-1 $272 $335 $280 $332 forward $320 $-1 #
vertex $-1 $273 $378 #
vertex $-1 $332 $379 #
straight-curve $-1 66.286202581865894 0 -7.1534488239251122 0 -1 0 I I #
straight-curve $-1 -66.286202581865894 0 -7.1534488239251122 0 1 0 I I #
point $-1 -66.286202581865894 -27.003024931288206 -7.1534488239251122 #
edge $-1 $333 -7.1534488239251122 $328 7.1534488239251122 $326 $380 forward 7 unknown #
vertex $-1 $336 $381 #
straight-curve $-1 0 -27.003024931288206 7.1534488239251122 1 0 0 I I #
coedge $-1 $326 $325 $283 $336 reversed $320 $-1 #
edge $-1 $333 -27.003024931288206 $337 27.003024931288206 $335 $382 forward 7 unknown #
vertex $-1 $336 $383 #
straight-curve $-1 0 27.003024931288206 7.1534488239251122 -1 0 0 I I #
point $-1 -66.286202581865894 27.003024931288206 -7.1534488239251122 #
face $-1 $384 $385 $14 $-1 $386 reversed single #
loop $-1 $-1 $349 $290 #
plane-surface $-1 0 -27.003024931288206 0 0 1 0 0 0 1 forward_v I I I I #
coedge $-1 $387 $388 $389 $390 forward $291 $-1 #
coedge $-1 $293 $302 $391 $392 reversed $179 $-1 #
coedge $-1 $393 $349 $293 $346 forward $341 $-1 #
edge $-1 $347 -0.44086108003820362 $394 7.1534488239251122 $293 $395 forward 7 unknown #
vertex $-1 $346 $396 #
straight-curve $-1 -66.286202581865894 -10.077561065218758 0.44086108003820007 0 1 0 I I #
coedge $-1 $345 $397 $295 $350 forward $341 $-1 #
edge $-1 $398 13.78681095313978 $347 23.279843469020662 $349 $399 forward 7 unknown #
edge $-1 $297 3.2296582643680676 $398 16.92546386606945 $299 $400 forward 7 unknown #
point $-1 -59.573614993745274 -13.307219329586825 7.1534488239251113 #
coedge $-1 $401 $299 $397 $402 forward $239 $-1 #
coedge $-1 $300 $401 $403 $404 forward $239 $-1 #
coedge $-1 $403 $405 $302 $356 reversed $385 $-1 #
edge $-1 $357 -7.1534488239251122 $406 7.1534488239251122 $355 $407 forward 7 unknown #
vertex $-1 $404 $408 #
straight-curve $-1 -66.286202581865894 0 7.1534488239251122 0 -1 0 I I #
face $-1 $409 $410 $15 $-1 $411 reversed single #
loop $-1 $-1 $365 $307 #
plane-surface $-1 0 0 7.1534488239251122 0 0 1 1 0 0 forward_v I I I I #
coedge $-1 $312 $412 $319 $374 forward $308 $-1 #
coedge $-1 $319 $413 $310 $364 reversed $262 $-1 #
edge $-1 $368 0 $414 9.4930325158808859 $310 $415 forward 7 unknown #
coedge $-1 $416 $417 $311 $366 forward $360 $-1 #
edge $-1 $369 13.728322597637771 $414 20.440910185758391 $365 $418 forward 7 unknown #
coedge $-1 $419 $312 $417 $420 reversed $308 $-1 #
vertex $-1 $374 $421 #
vertex $-1 $366 $422 #
straight-curve $-1 -66.286202581865894 -13.307219329586825 47.091853340933596 0 0 1 I I #
vertex $-1 $314 $423 #
point $-1 -59.538938240607045 -23.089937616516384 1.8203980294355486 #
coedge $-1 $413 $319 $424 $425 reversed $262 $-1 #
edge $-1 $426 -16.92546386606945 $368 -3.2296582643680676 $362 $427 forward 7 unknown #
edge $-1 $337 -7.1534488239251122 $327 7.1534488239251122 $325 $428 forward 7 unknown #
straight-curve $-1 0 -27.003024931288206 -7.1534488239251122 -1 0 0 I I #
straight-curve $-1 0 27.003024931288206 -7.1534488239251122 1 0 0 I I #
point $-1 66.286202581865894 27.003024931288206 -7.1534488239251122 #
point $-1 66.286202581865894 -27.003024931288206 -7.1534488239251122 #
straight-curve $-1 66.286202581865894 -27.003024931288206 0 0 0 -1 I I #
point $-1 66.286202581865894 -27.003024931288206 7.1534488239251122 #
straight-curve $-1 66.286202581865894 0 7.1534488239251122 0 1 0 I I #
point $-1 66.286202581865894 27.003024931288206 7.1534488239251122 #
face $-1 $-1 $429 $14 $-1 $430 reversed single #
loop $-1 $-1 $431 $340 #
plane-surface $-1 0 27.003024931288206 0 0 -1 0 0 0 -1 forward_v I I I I #
coedge $-1 $391 $343 $393 $432 forward $291 $-1 #
coedge $-1 $343 $391 $405 $433 forward $291 $-1 #
coedge $-1 $434 $435 $343 $390 reversed $429 $-1 #
edge $-1 $436 -27.003024931288206 $437 27.003024931288206 $389 $438 forward 7 unknown #
coedge $-1 $388 $387 $344 $392 forward $291 $-1 #
edge $-1 $394 -27.003024931288206 $406 27.003024931288206 $344 $439 forward 7 unknown #
coedge $-1 $440 $345 $387 $432 reversed $341 $-1 #
vertex $-1 $392 $441 #
straight-curve $-1 -66.286202581865894 -27.003024931288206 0 0 0 -1 I I #
point $-1 -66.286202581865894 -27.003024931288206 0.44086108003820362 #
coedge $-1 $349 $440 $353 $402 reversed $341 $-1 #
vertex $-1 $402 $442 #
straight-curve $-1 -49.824867590953517 -27.003024931288206 16.902196452937563 -0.70710677298230462 0 -0.70710678939079052 I I #
straight-curve $-1 -59.573614993745281 -10.077561065218758 7.1534488239251104 0 -1 0 I I #
coedge $-1 $354 $353 $443 $444 forward $239 $-1 #
edge $-1 $398 -59.573614993745274 $445 66.286202581865894 $397 $446 forward 7 unknown #
coedge $-1 $431 $355 $354 $404 reversed $385 $-1 #
edge $-1 $447 -66.286202581865894 $357 66.286202581865894 $403 $448 forward 7 unknown #
coedge $-1 $355 $431 $388 $433 reversed $385 $-1 #
vertex $-1 $433 $449 #
straight-curve $-1 -66.286202581865894 27.003024931288206 0 0 0 -1 I I #
point $-1 -66.286202581865894 27.003024931288206 7.1534488239251122 #
face $-1 $450 $451 $15 $-1 $452 reversed single #
loop $-1 $-1 $453 $359 #
plane-surface $-1 0 0 -7.1534488239251122 0 0 1 1 0 0 forward_v I I I I #
coedge $-1 $362 $454 $455 $456 reversed $308 $-1 #
coedge $-1 $363 $373 $416 $457 reversed $262 $-1 #
vertex $-1 $457 $458 #
straight-curve $-1 -66.286202581865894 -13.307219329586825 0.44086108003820357 0.70710677298230451 0 0.70710678939079041 I I #
coedge $-1 $459 $365 $413 $457 forward $360 $-1 #
coedge $-1 $365 $460 $367 $420 forward $360 $-1 #
straight-curve $-1 -80.014525179503664 -13.307219329586825 7.1534488239251104 1 0 0 I I #
coedge $-1 $454 $367 $461 $462 forward $308 $-1 #
edge $-1 $463 -27.003024931288206 $369 13.307219329586825 $367 $464 forward 7 unknown #
point $-1 -66.286202581865894 -13.307219329586825 0.44086108003820357 #
point $-1 -66.286202581865894 -13.307219329586825 7.1534488239251122 #
point $-1 -59.53893822419856 -23.089937616516384 0.40618446706245348 #
coedge $-1 $455 $465 $373 $425 forward $451 $-1 #
edge $-1 $466 13.78681095313978 $426 23.279843469020662 $424 $467 forward 7 unknown #
vertex $-1 $456 $468 #
straight-curve $-1 -66.286202581865894 -10.077561065218758 0.44086108003820007 0 1 0 I I #
straight-curve $-1 66.286202581865894 27.003024931288206 0 0 0 -1 I I #
loop $-1 $-1 $435 $384 #
plane-surface $-1 66.286202581865894 0 0 -1 0 0 0 0 1 forward_v I I I I #
coedge $-1 $405 $403 $434 $469 forward $385 $-1 #
edge $-1 $437 -66.286202581865894 $394 66.286202581865894 $393 $470 forward 7 unknown #
edge $-1 $406 -66.286202581865894 $436 66.286202581865894 $405 $471 forward 7 unknown #
coedge $-1 $443 $389 $431 $469 reversed $429 $-1 #
coedge $-1 $389 $443 $440 $472 forward $429 $-1 #
vertex $-1 $390 $473 #
vertex $-1 $472 $474 #
straight-curve $-1 66.286202581865894 0 -7.1534488239251122 0 -1 0 I I #
straight-curve $-1 -66.286202581865894 0 -7.1534488239251122 0 1 0 I I #
coedge $-1 $397 $393 $435 $472 reversed $341 $-1 #
point $-1 -66.286202581865894 -27.003024931288206 -7.1534488239251122 #
point $-1 -59.573614993745274 -27.003024931288206 7.1534488239251113 #
coedge $-1 $435 $434 $401 $444 reversed $429 $-1 #
edge $-1 $445 -27.003024931288206 $447 27.003024931288206 $443 $475 forward 7 unknown #
vertex $-1 $444 $476 #
straight-curve $-1 0 -27.003024931288206 7.1534488239251122 1 0 0 I I #
vertex $-1 $444 $477 #
straight-curve $-1 0 27.003024931288206 7.1534488239251122 -1 0 0 I I #
point $-1 -66.286202581865894 27.003024931288206 -7.1534488239251122 #
face $-1 $478 $479 $15 $-1 $480 reversed single #
loop $-1 $-1 $424 $409 #
plane-surface $-1 0 -27.003024931288206 0 0 1 0 0 0 1 forward_v I I I I #
coedge $-1 $481 $482 $483 $484 forward $410 $-1 #
coedge $-1 $412 $419 $485 $486 reversed $308 $-1 #
coedge $-1 $487 $424 $412 $456 forward $451 $-1 #
edge $-1 $426 -0.44086108003820362 $488 7.1534488239251122 $412 $489 forward 7 unknown #
edge $-1 $414 3.2296582643680676 $466 16.92546386606945 $416 $490 forward 7 unknown #
point $-1 -59.573614993745274 -13.307219329586825 7.1534488239251113 #
coedge $-1 $491 $416 $465 $492 forward $360 $-1 #
coedge $-1 $417 $491 $493 $494 forward $360 $-1 #
coedge $-1 $493 $495 $419 $462 reversed $479 $-1 #
edge $-1 $463 -7.1534488239251122 $496 7.1534488239251122 $461 $497 forward 7 unknown #
vertex $-1 $494 $498 #
straight-curve $-1 -66.286202581865894 0 7.1534488239251122 0 -1 0 I I #
coedge $-1 $424 $499 $459 $492 reversed $451 $-1 #
vertex $-1 $492 $500 #
straight-curve $-1 -49.824867590953517 -27.003024931288206 16.902196452937563 -0.70710677298230462 0 -0.70710678939079052 I I #
point $-1 -66.286202581865894 -27.003024931288206 0.44086108003820362 #
edge $-1 $447 -7.1534488239251122 $436 7.1534488239251122 $434 $501 forward 7 unknown #
straight-curve $-1 0 -27.003024931288206 -7.1534488239251122 -1 0 0 I I #
straight-curve $-1 0 27.003024931288206 -7.1534488239251122 1 0 0 I I #
edge $-1 $445 -7.1534488239251122 $437 7.1534488239251122 $435 $502 forward 7 unknown #
point $-1 66.286202581865894 27.003024931288206 -7.1534488239251122 #
point $-1 66.286202581865894 -27.003024931288206 -7.1534488239251122 #
straight-curve $-1 66.286202581865894 0 7.1534488239251122 0 1 0 I I #
point $-1 66.286202581865894 -27.003024931288206 7.1534488239251122 #
point $-1 66.286202581865894 27.003024931288206 7.1534488239251122 #
face $-1 $-1 $503 $15 $-1 $504 reversed single #
loop $-1 $-1 $505 $450 #
plane-surface $-1 0 27.003024931288206 0 0 -1 0 0 0 -1 forward_v I I I I #
coedge $-1 $485 $453 $487 $506 forward $410 $-1 #
coedge $-1 $453 $485 $495 $507 forward $410 $-1 #
coedge $-1 $508 $509 $453 $484 reversed $503 $-1 #
edge $-1 $510 -27.003024931288206 $511 27.003024931288206 $483 $512 forward 7 unknown #
coedge $-1 $482 $481 $454 $486 forward $410 $-1 #
edge $-1 $488 -27.003024931288206 $496 27.003024931288206 $454 $513 forward 7 unknown #
coedge $-1 $499 $455 $481 $506 reversed $451 $-1 #
vertex $-1 $486 $514 #
straight-curve $-1 -66.286202581865894 -27.003024931288206 0 0 0 -1 I I #
straight-curve $-1 -59.573614993745281 -10.077561065218758 7.1534488239251104 0 -1 0 I I #
coedge $-1 $460 $459 $515 $516 forward $360 $-1 #
edge $-1 $466 -59.573614993745274 $517 66.286202581865894 $465 $518 forward 7 unknown #
coedge $-1 $505 $461 $460 $494 reversed $479 $-1 #
edge $-1 $519 -66.286202581865894 $463 66.286202581865894 $493 $520 forward 7 unknown #
coedge $-1 $461 $505 $482 $507 reversed $479 $-1 #
vertex $-1 $507 $521 #
straight-curve $-1 -66.286202581865894 27.003024931288206 0 0 0 -1 I I #
point $-1 -66.286202581865894 27.003024931288206 7.1534488239251122 #
coedge $-1 $465 $487 $509 $522 reversed $451 $-1 #
point $-1 -59.573614993745274 -27.003024931288206 7.1534488239251113 #
straight-curve $-1 66.286202581865894 27.003024931288206 0 0 0 -1 I I #
straight-curve $-1 66.286202581865894 -27.003024931288206 0 0 0 -1 I I #
loop $-1 $-1 $509 $478 #
plane-surface $-1 66.286202581865894 0 0 -1 0 0 0 0 1 forward_v I I I I #
coedge $-1 $495 $493 $508 $523 forward $479 $-1 #
edge $-1 $511 -66.286202581865894 $488 66.286202581865894 $487 $524 forward 7 unknown #
edge $-1 $496 -66.286202581865894 $510 66.286202581865894 $495 $525 forward 7 unknown #
coedge $-1 $515 $483 $505 $523 reversed $503 $-1 #
coedge $-1 $483 $515 $499 $522 forward $503 $-1 #
vertex $-1 $484 $526 #
vertex $-1 $522 $527 #
straight-curve $-1 66.286202581865894 0 -7.1534488239251122 0 -1 0 I I #
straight-curve $-1 -66.286202581865894 0 -7.1534488239251122 0 1 0 I I #
point $-1 -66.286202581865894 -27.003024931288206 -7.1534488239251122 #
coedge $-1 $509 $508 $491 $516 reversed $503 $-1 #
edge $-1 $517 -27.003024931288206 $519 27.003024931288206 $515 $528 forward 7 unknown #
vertex $-1 $516 $529 #
straight-curve $-1 0 -27.003024931288206 7.1534488239251122 1 0 0 I I #
vertex $-1 $516 $530 #
straight-curve $-1 0 27.003024931288206 7.1534488239251122 -1 0 0 I I #
point $-1 -66.286202581865894 27.003024931288206 -7.1534488239251122 #
edge $-1 $517 -7.1534488239251122 $511 7.1534488239251122 $509 $531 forward 7 unknown #
edge $-1 $519 -7.1534488239251122 $510 7.1534488239251122 $508 $532 forward 7 unknown #
straight-curve $-1 0 -27.003024931288206 -7.1534488239251122 -1 0 0 I I #
straight-curve $-1 0 27.003024931288206 -7.1534488239251122 1 0 0 I I #
point $-1 66.286202581865894 27.003024931288206 -7.1534488239251122 #
point $-1 66.286202581865894 -27.003024931288206 -7.1534488239251122 #
straight-curve $-1 66.286202581865894 0 7.1534488239251122 0 1 0 I I #
point $-1 66.286202581865894 -27.003024931288206 7.1534488239251122 #
point $-1 66.286202581865894 27.003024931288206 7.1534488239251122 #
straight-curve $-1 66.286202581865894 -27.003024931288206 0 0 0 -1 I I #
straight-curve $-1 66.286202581865894 27.003024931288206 0 0 0 -1 I I #
End-of-ACIS-data 