500 0 8 0           
7 Unknown 11 ACIS 5.0 NT 24 Thu Mar 25 21:06:53 1999 
-1 9.9999999999999995e-007 1e-010 
body $-1 $8 $-1 $9 #
body $-1 $10 $-1 $11 #
body $-1 $12 $-1 $13 #
body $-1 $14 $-1 $15 #
body $-1 $16 $-1 $17 #
body $-1 $18 $-1 $19 #
body $-1 $20 $-1 $21 #
body $-1 $22 $-1 $23 #
lump $-1 $-1 $24 $0 #
transform $-1 1 0 0 0 1 0 0 0 1 68.295541245765548 42.323143131272033 15.8316222223579 1 rotate no_reflect no_shear #
lump $-1 $-1 $25 $1 #
transform $-1 1 0 0 0 1 0 0 0 1 68.295541245765548 42.323143131272033 15.8316222223579 1 rotate no_reflect no_shear #
lump $-1 $-1 $26 $2 #
transform $-1 1 0 0 0 1 0 0 0 1 68.295541245765548 42.323143131272033 15.8316222223579 1 rotate no_reflect no_shear #
lump $-1 $-1 $27 $3 #
transform $-1 1 0 0 0 1 0 0 0 1 68.295541245765548 42.323143131272033 15.8316222223579 1 rotate no_reflect no_shear #
lump $-1 $-1 $28 $4 #
transform $-1 1 0 0 0 1 0 0 0 1 68.295541245765548 42.323143131272033 15.8316222223579 1 rotate no_reflect no_shear #
lump $-1 $-1 $29 $5 #
transform $-1 1 0 0 0 1 0 0 0 1 68.295541245765548 42.323143131272033 15.8316222223579 1 rotate no_reflect no_shear #
lump $-1 $-1 $30 $6 #
transform $-1 1 0 0 0 1 0 0 0 1 68.295541245765548 42.323143131272033 15.8316222223579 1 rotate no_reflect no_shear #
lump $-1 $-1 $31 $7 #
transform $-1 1 0 0 0 1 0 0 0 1 68.295541245765548 42.323143131272033 15.8316222223579 1 rotate no_reflect no_shear #
shell $-1 $-1 $-1 $32 $-1 $8 #
shell $-1 $-1 $-1 $33 $-1 $10 #
shell $-1 $-1 $-1 $34 $-1 $12 #
shell $-1 $-1 $-1 $35 $-1 $14 #
shell $-1 $-1 $-1 $36 $-1 $16 #
shell $-1 $-1 $-1 $37 $-1 $18 #
shell $-1 $-1 $-1 $38 $-1 $20 #
shell $-1 $-1 $-1 $39 $-1 $22 #
face $-1 $40 $41 $24 $-1 $42 forward single #
face $-1 $43 $44 $25 $-1 $45 forward single #
face $-1 $46 $47 $26 $-1 $48 forward single #
face $-1 $49 $50 $27 $-1 $51 reversed single #
face $-1 $52 $53 $28 $-1 $54 forward single #
face $-1 $55 $56 $29 $-1 $57 forward single #
face $-1 $58 $59 $30 $-1 $60 reversed single #
face $-1 $61 $62 $31 $-1 $63 forward single #
face $-1 $64 $65 $24 $-1 $66 reversed single #
loop $-1 $-1 $67 $32 #
plane-surface $-1 0 0 15.8316222223579 0 0 1 1 0 0 forward_v I I I I #
face $-1 $68 $69 $25 $-1 $70 reversed single #
loop $-1 $-1 $71 $33 #
plane-surface $-1 0 -34.956285923001452 -2.5783907355418161 0 0 1 1 0 0 forward_v I I I I #
face $-1 $72 $73 $26 $-1 $74 reversed single #
loop $-1 $-1 $75 $34 #
plane-surface $-1 0 34.95628592300146 -2.5783907355418161 0 0 1 1 0 0 forward_v I I I I #
face $-1 $76 $77 $27 $-1 $78 reversed single #
loop $-1 $-1 $79 $35 #
plane-surface $-1 -159.69281619576032 19.333081773838472 109.37149782260468 0 -1 0 0.66913061440640931 0 -0.74314481823134659 forward_v I I I I #
face $-1 $80 $81 $28 $-1 $82 forward single #
loop $-1 $83 $84 $36 #
cone-surface $-1 -63.207066019495976 14.437252368581447 11.110295691705931 0.66913061440640931 0 -0.74314481823134659 0.3715724091156733 0 0.33456530720320465 1 I I 0 1 0.5 forward I I I I #
face $-1 $85 $86 $29 $-1 $87 forward single #
loop $-1 $88 $89 $37 #
cone-surface $-1 -63.207066019495976 17.374750011735664 11.110295691705931 0.66913061440640931 0 -0.74314481823134659 0.3715724091156733 0 0.33456530720320465 1 I I 0 1 0.5 forward I I I I #
face $-1 $90 $91 $30 $-1 $92 reversed single #
loop $-1 $-1 $93 $38 #
plane-surface $-1 85.131328029585376 18.572809750367291 194.49058854642155 0 1 0 0.7660444514056185 0 0.64278759981090561 forward_v I I I I #
face $-1 $94 $95 $31 $-1 $96 forward single #
loop $-1 $97 $98 $39 #
cone-surface $-1 60.480674390550277 23.081119232549071 7.2360882240021125 -0.7660444514056185 0 -0.64278759981090561 0.96418139971635841 0 -1.1490666771084277 1 I I 0 1 1.5 forward I I I I #
face $-1 $99 $100 $24 $-1 $101 reversed single #
loop $-1 $-1 $102 $40 #
plane-surface $-1 0 0 -15.8316222223579 0 0 1 1 0 0 forward_v I I I I #
coedge $-1 $103 $104 $105 $106 forward $41 $-1 #
face $-1 $107 $108 $25 $-1 $109 reversed single #
loop $-1 $-1 $110 $43 #
plane-surface $-1 0 -34.956285923001452 -9.6807095423967802 0 0 1 1 0 0 forward_v I I I I #
coedge $-1 $111 $112 $113 $114 reversed $44 $-1 #
face $-1 $115 $116 $26 $-1 $117 reversed single #
loop $-1 $-1 $118 $46 #
plane-surface $-1 0 34.95628592300146 -9.6807095423967802 0 0 1 1 0 0 forward_v I I I I #
coedge $-1 $119 $120 $121 $122 reversed $47 $-1 #
face $-1 $123 $124 $27 $-1 $125 reversed single #
loop $-1 $-1 $126 $49 #
plane-surface $-1 -68.295541245765577 15.906001190158555 7.8645426524129363 -0.66913061440640931 0 0.74314481823134659 0.74314481823134659 0 0.66913061440640931 forward_v I I I I #
coedge $-1 $127 $128 $129 $130 reversed $50 $-1 #
face $-1 $-1 $131 $28 $-1 $132 forward single #
loop $-1 $133 $134 $52 #
cone-surface $-1 -62.375477181788376 14.437252368581447 10.186722741468618 0.66913061440640931 0 -0.74314481823134659 0.18578620455783665 0 0.16728265360160233 1 I I -0.70710678118654746 0.70710678118654746 0.25 forward I I I I #
loop $-1 $-1 $135 $36 #
coedge $-1 $84 $84 $136 $137 reversed $53 $-1 #
face $-1 $-1 $138 $29 $-1 $139 forward single #
loop $-1 $140 $141 $55 #
cone-surface $-1 -62.375477181788376 17.374750011735664 10.186722741468618 0.66913061440640931 0 -0.74314481823134659 0.18578620455783665 0 0.16728265360160233 1 I I -0.70710678118654746 0.70710678118654746 0.25 forward I I I I #
loop $-1 $-1 $142 $37 #
coedge $-1 $89 $89 $143 $144 reversed $56 $-1 #
face $-1 $145 $146 $30 $-1 $147 reversed single #
loop $-1 $-1 $148 $58 #
plane-surface $-1 -19.503512824539143 23.081119232549085 106.69153447611686 0.7660444514056185 0 0.64278759981090561 0.64278759981090561 0 -0.7660444514056185 forward_v I I I I #
coedge $-1 $149 $150 $151 $152 reversed $59 $-1 #
face $-1 $-1 $153 $31 $-1 $154 forward single #
loop $-1 $155 $156 $61 #
cone-surface $-1 57.870542799502658 23.081119232549071 5.0459278259709137 -0.7660444514056185 0 -0.64278759981090561 0.48209069985817921 0 -0.57453333855421385 1 I I -0.70710678118654757 0.70710678118654757 0.75 forward I I I I #
loop $-1 $-1 $157 $39 #
coedge $-1 $98 $98 $158 $159 reversed $62 $-1 #
face $-1 $160 $161 $24 $-1 $162 reversed single #
loop $-1 $-1 $163 $64 #
plane-surface $-1 0 -42.323143131272033 0 0 1 0 0 0 1 forward_v I I I I #
coedge $-1 $164 $165 $166 $167 forward $65 $-1 #
coedge $-1 $168 $67 $169 $170 forward $41 $-1 #
coedge $-1 $67 $168 $171 $172 forward $41 $-1 #
coedge $-1 $173 $174 $67 $106 reversed $175 $-1 #
edge $-1 $176 -42.323143131272033 $177 42.323143131272033 $105 $178 forward 7 unknown #
face $-1 $179 $180 $25 $-1 $181 reversed single #
loop $-1 $-1 $182 $68 #
plane-surface $-1 0 -27.589428714730872 -6.1295501389692983 0 -1 0 0 0 -1 forward_v I I I I #
coedge $-1 $183 $184 $185 $186 reversed $69 $-1 #
coedge $-1 $187 $71 $188 $189 forward $44 $-1 #
coedge $-1 $71 $187 $190 $191 reversed $44 $-1 #
coedge $-1 $192 $193 $71 $114 forward $194 $-1 #
edge $-1 $195 10.111285753230145 $196 24.845000169771307 $113 $197 forward 7 unknown #
face $-1 $198 $199 $26 $-1 $200 reversed single #
loop $-1 $-1 $201 $72 #
plane-surface $-1 0 27.589428714730879 -6.1295501389692983 0 1 0 0 0 1 forward_v I I I I #
coedge $-1 $202 $203 $204 $205 reversed $73 $-1 #
coedge $-1 $206 $75 $207 $208 reversed $47 $-1 #
coedge $-1 $75 $206 $209 $210 forward $47 $-1 #
coedge $-1 $211 $212 $75 $122 forward $199 $-1 #
edge $-1 $213 -24.845000169771311 $214 -10.111285753230149 $121 $215 forward 7 unknown #
face $-1 $216 $217 $27 $-1 $218 reversed single #
loop $-1 $-1 $219 $76 #
plane-surface $-1 -159.69281619576032 12.478920606478638 109.37149782260468 0 1 0 -0.66913061440640931 0 0.74314481823134659 forward_v I I I I #
coedge $-1 $220 $221 $222 $223 reversed $77 $-1 #
coedge $-1 $128 $79 $224 $225 reversed $50 $-1 #
coedge $-1 $79 $127 $220 $226 reversed $50 $-1 #
coedge $-1 $222 $227 $79 $130 forward $217 $-1 #
edge $-1 $228 38.85412668894444 $229 46.821206258889376 $129 $230 forward 7 unknown #
loop $-1 $-1 $136 $80 #
plane-surface $-1 -68.295541245765577 15.906001190158555 7.8645426524129363 -0.66913061440640931 0 0.74314481823134659 0.74314481823134659 0 0.66913061440640931 forward_v I I I I #
loop $-1 $-1 $231 $52 #
coedge $-1 $134 $134 $135 $232 reversed $81 $-1 #
coedge $-1 $135 $135 $134 $232 forward $83 $-1 #
coedge $-1 $136 $136 $84 $137 forward $131 $-1 #
edge $-1 $233 0 $233 6.2831853071796004 $136 $234 forward 7 unknown #
loop $-1 $-1 $143 $85 #
plane-surface $-1 -68.295541245765577 15.906001190158555 7.8645426524129363 -0.66913061440640931 0 0.74314481823134659 0.74314481823134659 0 0.66913061440640931 forward_v I I I I #
loop $-1 $-1 $235 $55 #
coedge $-1 $141 $141 $142 $236 reversed $86 $-1 #
coedge $-1 $142 $142 $141 $236 forward $88 $-1 #
coedge $-1 $143 $143 $89 $144 forward $138 $-1 #
edge $-1 $237 0 $237 6.2831853071796004 $143 $238 forward 7 unknown #
face $-1 $239 $240 $30 $-1 $241 forward single #
loop $-1 $-1 $242 $90 #
plane-surface $-1 85.131328029585376 27.589428714730879 194.49058854642155 0 -1 0 -0.7660444514056185 0 -0.64278759981090561 forward_v I I I I #
coedge $-1 $243 $244 $245 $246 reversed $91 $-1 #
coedge $-1 $150 $93 $247 $248 reversed $59 $-1 #
coedge $-1 $93 $149 $243 $249 reversed $59 $-1 #
coedge $-1 $245 $250 $93 $152 forward $251 $-1 #
edge $-1 $252 81.413672050852881 $253 95.188600651218437 $151 $254 forward 7 unknown #
loop $-1 $-1 $158 $94 #
plane-surface $-1 -19.503512824539143 23.081119232549085 106.69153447611686 0.7660444514056185 0 0.64278759981090561 0.64278759981090561 0 -0.7660444514056185 forward_v I I I I #
loop $-1 $-1 $255 $61 #
coedge $-1 $156 $156 $157 $256 reversed $95 $-1 #
coedge $-1 $157 $157 $156 $256 forward $97 $-1 #
coedge $-1 $158 $158 $98 $159 forward $153 $-1 #
edge $-1 $257 0 $257 6.2831853071796004 $158 $258 forward 7 unknown #
face $-1 $259 $260 $24 $-1 $261 reversed single #
loop $-1 $-1 $262 $99 #
plane-surface $-1 -68.295541245765548 0 0 1 0 0 0 0 -1 forward_v I I I I #
coedge $-1 $263 $171 $264 $265 forward $100 $-1 #
coedge $-1 $266 $102 $263 $267 forward $65 $-1 #
coedge $-1 $102 $266 $268 $269 forward $65 $-1 #
coedge $-1 $174 $173 $102 $167 reversed $175 $-1 #
edge $-1 $270 -42.323143131272033 $271 42.323143131272033 $166 $272 forward 7 unknown #
coedge $-1 $104 $103 $273 $274 forward $41 $-1 #
coedge $-1 $275 $276 $103 $170 reversed $260 $-1 #
edge $-1 $177 -68.295541245765548 $277 68.295541245765548 $169 $278 forward 7 unknown #
coedge $-1 $163 $279 $104 $172 reversed $100 $-1 #
edge $-1 $280 -68.295541245765548 $176 68.295541245765548 $171 $281 forward 7 unknown #
coedge $-1 $166 $105 $279 $282 forward $175 $-1 #
coedge $-1 $105 $166 $275 $283 reversed $175 $-1 #
loop $-1 $-1 $173 $259 #
vertex $-1 $106 $284 #
vertex $-1 $106 $285 #
straight-curve $-1 68.295541245765548 0 15.8316222223579 0 1 0 I I #
face $-1 $286 $287 $25 $-1 $288 reversed single #
loop $-1 $-1 $289 $107 #
plane-surface $-1 -68.295541245765548 0 0 1 0 0 0 0 -1 forward_v I I I I #
coedge $-1 $290 $188 $193 $291 reversed $108 $-1 #
coedge $-1 $292 $110 $293 $294 reversed $69 $-1 #
coedge $-1 $110 $292 $290 $295 forward $69 $-1 #
coedge $-1 $193 $192 $110 $186 forward $194 $-1 #
edge $-1 $296 -24.845000169771307 $297 -10.111285753230145 $185 $298 forward 7 unknown #
coedge $-1 $112 $111 $289 $299 reversed $44 $-1 #
coedge $-1 $182 $300 $111 $189 reversed $108 $-1 #
edge $-1 $195 -68.295541245765548 $301 68.295541245765548 $188 $302 forward 7 unknown #
coedge $-1 $303 $304 $112 $191 forward $287 $-1 #
edge $-1 $196 -68.295541245765548 $305 68.295541245765548 $190 $306 forward 7 unknown #
coedge $-1 $185 $113 $304 $307 forward $194 $-1 #
coedge $-1 $113 $185 $182 $291 forward $194 $-1 #
loop $-1 $-1 $113 $286 #
vertex $-1 $114 $308 #
vertex $-1 $307 $309 #
straight-curve $-1 68.295541245765548 -17.478142961500726 -2.5783907355418161 0 -1 0 I I #
face $-1 $310 $311 $26 $-1 $312 reversed single #
loop $-1 $-1 $121 $115 #
plane-surface $-1 68.295541245765548 0 0 -1 0 0 0 0 1 forward_v I I I I #
coedge $-1 $313 $209 $314 $315 reversed $116 $-1 #
coedge $-1 $316 $118 $313 $317 forward $73 $-1 #
coedge $-1 $118 $316 $318 $319 reversed $73 $-1 #
coedge $-1 $212 $211 $118 $205 forward $199 $-1 #
edge $-1 $320 10.111285753230149 $321 24.845000169771311 $204 $322 forward 7 unknown #
coedge $-1 $120 $119 $323 $324 reversed $47 $-1 #
coedge $-1 $325 $326 $119 $208 forward $327 $-1 #
edge $-1 $328 -68.295541245765548 $213 68.295541245765548 $207 $329 forward 7 unknown #
coedge $-1 $201 $330 $120 $210 reversed $116 $-1 #
edge $-1 $331 -68.295541245765548 $214 68.295541245765548 $209 $332 forward 7 unknown #
coedge $-1 $204 $121 $330 $333 forward $199 $-1 #
coedge $-1 $121 $204 $325 $334 reversed $199 $-1 #
vertex $-1 $334 $335 #
vertex $-1 $122 $336 #
straight-curve $-1 68.295541245765548 17.47814296150073 -2.5783907355418161 0 -1 0 I I #
face $-1 $-1 $337 $27 $-1 $338 forward single #
loop $-1 $-1 $129 $123 #
plane-surface $-1 -68.295541245765548 0 0 1 0 0 0 0 -1 forward_v I I I I #
coedge $-1 $339 $340 $341 $342 reversed $124 $-1 #
coedge $-1 $343 $126 $128 $226 forward $77 $-1 #
coedge $-1 $126 $343 $339 $344 forward $77 $-1 #
coedge $-1 $341 $129 $126 $223 forward $217 $-1 #
edge $-1 $229 -11.380081178759195 $345 -4.5259200113993607 $222 $346 forward 7 unknown #
coedge $-1 $347 $348 $127 $225 forward $337 $-1 #
edge $-1 $349 -20.399204936441684 $228 -11.550866852114609 $224 $350 forward 7 unknown #
edge $-1 $229 3.8356359867099031e-014 $349 11.906613444988793 $128 $351 forward 7 unknown #
coedge $-1 $129 $341 $347 $352 reversed $217 $-1 #
vertex $-1 $352 $353 #
vertex $-1 $130 $354 #
straight-curve $-1 -68.295541245765548 19.333081773838472 54.685748911302341 0 0 -1 I I #
coedge $-1 $231 $231 $-1 $355 reversed $133 $-1 #
edge $-1 $356 0 $356 6.2831853071796004 $134 $357 forward 7 unknown #
vertex $-1 $137 $358 #
ellipse-curve $-1 -63.871372203602007 14.437252368581447 11.848082437385438 -0.66913061440640931 0 0.74314481823134659 0.3715724091156733 0 0.33456530720320465 1 I I #
coedge $-1 $235 $235 $-1 $359 reversed $140 $-1 #
edge $-1 $360 0 $360 6.2831853071796004 $141 $361 forward 7 unknown #
vertex $-1 $144 $362 #
ellipse-curve $-1 -63.871372203602007 17.374750011735664 11.848082437385438 -0.66913061440640931 0 0.74314481823134659 0.3715724091156733 0 0.33456530720320465 1 I I #
face $-1 $-1 $251 $30 $-1 $363 reversed single #
loop $-1 $-1 $364 $145 #
plane-surface $-1 0 0 15.8316222223579 0 0 1 1 0 0 forward_v I I I I #
coedge $-1 $365 $366 $367 $368 reversed $146 $-1 #
coedge $-1 $369 $148 $150 $249 forward $91 $-1 #
coedge $-1 $148 $369 $365 $370 forward $91 $-1 #
coedge $-1 $367 $151 $148 $246 forward $251 $-1 #
edge $-1 $253 7.0322501340927488 $371 16.048869098456336 $245 $372 forward 7 unknown #
coedge $-1 $373 $374 $149 $248 forward $240 $-1 #
edge $-1 $375 14.171340025529105 $252 25.729877230972861 $247 $376 forward 7 unknown #
edge $-1 $253 -136.59108249153113 $375 -118.60919048110027 $150 $377 forward 7 unknown #
coedge $-1 $151 $367 $373 $378 reversed $251 $-1 #
loop $-1 $-1 $367 $239 #
vertex $-1 $378 $379 #
vertex $-1 $152 $380 #
straight-curve $-1 68.295541245765548 18.572809750367291 97.245294273210774 0 0 -1 I I #
coedge $-1 $255 $255 $-1 $381 reversed $155 $-1 #
edge $-1 $382 0 $382 6.2831853071796004 $156 $383 forward 7 unknown #
vertex $-1 $159 $384 #
ellipse-curve $-1 62.516272643043671 23.081119232549071 8.9441579221751191 0.7660444514056185 0 0.64278759981090561 0.96418139971635841 0 -1.1490666771084277 1 I I #
face $-1 $-1 $175 $24 $-1 $385 reversed single #
loop $-1 $-1 $275 $160 #
plane-surface $-1 0 42.323143131272033 0 0 -1 0 0 0 -1 forward_v I I I I #
coedge $-1 $386 $273 $276 $387 forward $161 $-1 #
coedge $-1 $279 $163 $164 $267 reversed $100 $-1 #
coedge $-1 $273 $386 $163 $265 reversed $161 $-1 #
edge $-1 $280 -15.8316222223579 $388 15.8316222223579 $264 $389 forward 7 unknown #
coedge $-1 $165 $164 $386 $390 forward $65 $-1 #
edge $-1 $271 -68.295541245765548 $388 68.295541245765548 $263 $391 forward 7 unknown #
coedge $-1 $276 $275 $165 $269 reversed $260 $-1 #
edge $-1 $392 -68.295541245765548 $270 68.295541245765548 $268 $393 forward 7 unknown #
vertex $-1 $167 $394 #
vertex $-1 $282 $395 #
straight-curve $-1 68.295541245765548 0 -15.8316222223579 0 -1 0 I I #
coedge $-1 $262 $264 $168 $274 reversed $161 $-1 #
edge $-1 $277 -42.323143131272033 $280 42.323143131272033 $273 $396 forward 7 unknown #
coedge $-1 $268 $169 $174 $283 forward $260 $-1 #
coedge $-1 $169 $268 $262 $387 reversed $260 $-1 #
vertex $-1 $170 $397 #
straight-curve $-1 0 42.323143131272033 15.8316222223579 -1 0 0 I I #
coedge $-1 $171 $263 $173 $282 reversed $100 $-1 #
vertex $-1 $274 $398 #
straight-curve $-1 0 -42.323143131272033 15.8316222223579 1 0 0 I I #
edge $-1 $176 -15.8316222223579 $271 15.8316222223579 $173 $399 forward 7 unknown #
edge $-1 $177 -15.8316222223579 $270 15.8316222223579 $174 $400 forward 7 unknown #
point $-1 68.295541245765548 -42.323143131272033 15.8316222223579 #
point $-1 68.295541245765548 42.323143131272033 15.8316222223579 #
face $-1 $-1 $194 $25 $-1 $401 reversed single #
loop $-1 $-1 $190 $179 #
plane-surface $-1 0 -42.323143131272033 0 0 1 0 0 0 1 forward_v I I I I #
coedge $-1 $402 $403 $187 $299 forward $180 $-1 #
coedge $-1 $300 $182 $184 $295 reversed $108 $-1 #
edge $-1 $297 -6.615934472912131 $195 0.48638433394283309 $193 $404 forward 7 unknown #
coedge $-1 $184 $183 $405 $406 reversed $69 $-1 #
coedge $-1 $304 $303 $183 $294 forward $287 $-1 #
edge $-1 $407 -68.295541245765548 $296 68.295541245765548 $293 $408 forward 7 unknown #
edge $-1 $409 -68.295541245765548 $297 68.295541245765548 $290 $410 forward 7 unknown #
vertex $-1 $294 $411 #
vertex $-1 $186 $412 #
straight-curve $-1 68.295541245765548 -17.478142961500726 -9.6807095423967802 0 1 0 I I #
edge $-1 $305 -24.845000169771307 $301 -10.111285753230145 $289 $413 forward 7 unknown #
coedge $-1 $188 $290 $402 $414 reversed $108 $-1 #
vertex $-1 $299 $415 #
straight-curve $-1 0 -27.589428714730872 -2.5783907355418161 -1 0 0 I I #
coedge $-1 $293 $190 $403 $416 forward $287 $-1 #
coedge $-1 $190 $293 $192 $307 reversed $287 $-1 #
vertex $-1 $416 $417 #
straight-curve $-1 0 -42.323143131272033 -2.5783907355418161 -1 0 0 I I #
edge $-1 $196 2.5783907355418161 $296 9.6807095423967802 $192 $418 forward 7 unknown #
point $-1 68.295541245765548 -27.589428714730872 -2.5783907355418161 #
point $-1 68.295541245765548 -42.323143131272033 -2.5783907355418161 #
face $-1 $-1 $327 $26 $-1 $419 reversed single #
loop $-1 $-1 $323 $198 #
plane-surface $-1 -68.295541245765548 0 0 1 0 0 0 0 -1 forward_v I I I I #
coedge $-1 $330 $201 $202 $317 reversed $116 $-1 #
coedge $-1 $323 $420 $201 $315 forward $311 $-1 #
edge $-1 $421 -6.615934472912131 $331 0.48638433394283309 $314 $422 forward 7 unknown #
coedge $-1 $203 $202 $420 $423 reversed $73 $-1 #
edge $-1 $320 -68.295541245765548 $421 68.295541245765548 $313 $424 forward 7 unknown #
coedge $-1 $326 $325 $203 $319 forward $327 $-1 #
edge $-1 $321 -68.295541245765548 $425 68.295541245765548 $318 $426 forward 7 unknown #
vertex $-1 $205 $427 #
vertex $-1 $319 $428 #
straight-curve $-1 68.295541245765548 17.47814296150073 -9.6807095423967802 0 1 0 I I #
coedge $-1 $429 $314 $206 $324 forward $311 $-1 #
edge $-1 $331 10.111285753230149 $328 24.845000169771311 $323 $430 forward 7 unknown #
coedge $-1 $318 $207 $212 $334 forward $327 $-1 #
coedge $-1 $207 $318 $429 $431 reversed $327 $-1 #
loop $-1 $-1 $207 $310 #
vertex $-1 $431 $432 #
straight-curve $-1 0 42.323143131272033 -2.5783907355418161 1 0 0 I I #
coedge $-1 $209 $313 $211 $333 reversed $116 $-1 #
vertex $-1 $324 $433 #
straight-curve $-1 0 27.589428714730879 -2.5783907355418161 1 0 0 I I #
edge $-1 $214 -0.48638433394283309 $320 6.615934472912131 $211 $434 forward 7 unknown #
edge $-1 $213 2.5783907355418161 $321 9.6807095423967802 $212 $435 forward 7 unknown #
point $-1 68.295541245765548 42.32314313127204 -2.5783907355418161 #
point $-1 68.295541245765548 27.589428714730879 -2.5783907355418161 #
loop $-1 $-1 $224 $216 #
plane-surface $-1 0 0 15.8316222223579 0 0 1 1 0 0 forward_v I I I I #
coedge $-1 $340 $219 $221 $344 reversed $124 $-1 #
coedge $-1 $219 $339 $436 $437 reversed $124 $-1 #
coedge $-1 $227 $222 $219 $342 forward $217 $-1 #
edge $-1 $345 -46.821206258889376 $438 -38.85412668894444 $341 $439 forward 7 unknown #
coedge $-1 $221 $220 $348 $440 reversed $77 $-1 #
edge $-1 $441 -11.906613444988793 $345 -3.8356359867099031e-014 $339 $442 forward 7 unknown #
vertex $-1 $223 $443 #
straight-curve $-1 -68.295541245765548 7.9530005950792777 7.8645426524129567 0 -1 0 I I #
coedge $-1 $436 $224 $227 $352 forward $337 $-1 #
coedge $-1 $224 $436 $343 $440 forward $337 $-1 #
vertex $-1 $225 $444 #
straight-curve $-1 -79.846408097880158 19.333081773838472 15.8316222223579 -1 0 0 I I #
straight-curve $-1 -68.295541245765577 19.333081773838472 7.8645426524129363 0.74314481823134659 0 0.66913061440640931 I I #
edge $-1 $228 -19.333081773838472 $438 -12.478920606478638 $227 $445 forward 7 unknown #
point $-1 -68.295541245765548 19.333081773838472 15.8316222223579 #
point $-1 -68.295541245765548 19.333081773838472 7.864542652412962 #
edge $-1 $446 1 $446 0 $231 $-1 forward 7 unknown #
vertex $-1 $232 $447 #
ellipse-curve $-1 -62.54275983538998 14.437252368581447 10.372508946026453 -0.66913061440640931 0 0.74314481823134659 0.3715724091156733 0 0.33456530720320465 1 I I #
point $-1 -63.499799794486307 14.437252368581447 12.182647744588611 #
edge $-1 $448 1 $448 0 $235 $-1 forward 7 unknown #
vertex $-1 $236 $449 #
ellipse-curve $-1 -62.54275983538998 17.374750011735664 10.372508946026453 -0.66913061440640931 0 0.74314481823134659 0.3715724091156733 0 0.33456530720320465 1 I I #
point $-1 -63.499799794486307 17.374750011735664 12.182647744588611 #
plane-surface $-1 68.295541245765548 0 0 -1 0 0 0 0 1 forward_v I I I I #
coedge $-1 $374 $373 $366 $450 forward $240 $-1 #
coedge $-1 $366 $242 $244 $370 reversed $146 $-1 #
coedge $-1 $242 $365 $364 $450 reversed $146 $-1 #
coedge $-1 $250 $245 $242 $368 forward $251 $-1 #
edge $-1 $371 -95.188600651218437 $451 -81.413672050852881 $367 $452 forward 7 unknown #
coedge $-1 $244 $243 $374 $453 reversed $91 $-1 #
edge $-1 $454 118.60919048110027 $371 136.59108249153113 $365 $455 forward 7 unknown #
vertex $-1 $246 $456 #
straight-curve $-1 68.295541245765548 11.540559616274543 2.0566936219923377 0 1 0 I I #
coedge $-1 $364 $247 $250 $378 forward $240 $-1 #
coedge $-1 $247 $364 $369 $453 forward $240 $-1 #
vertex $-1 $248 $457 #
straight-curve $-1 42.565664014792688 18.572809750367291 15.831622222357893 1 0 0 I I #
straight-curve $-1 -19.503512824539143 18.572809750367291 106.69153447611686 -0.64278759981090561 0 0.7660444514056185 I I #
edge $-1 $252 18.572809750367291 $451 27.589428714730879 $250 $458 forward 7 unknown #
point $-1 68.295541245765548 18.572809750367291 15.8316222223579 #
point $-1 68.295541245765534 18.572809750367291 2.0566936219923377 #
edge $-1 $459 1 $459 0 $255 $-1 forward 7 unknown #
vertex $-1 $256 $460 #
ellipse-curve $-1 58.445076138056869 23.081119232549071 5.5280185258290926 0.7660444514056185 0 0.64278759981090561 0.96418139971635841 0 -1.1490666771084277 1 I I #
point $-1 63.480454042760044 23.081119232549071 7.795091245066704 #
plane-surface $-1 68.295541245765548 0 0 -1 0 0 0 0 1 forward_v I I I I #
coedge $-1 $264 $262 $266 $390 reversed $161 $-1 #
edge $-1 $277 -15.8316222223579 $392 15.8316222223579 $276 $461 forward 7 unknown #
vertex $-1 $390 $462 #
straight-curve $-1 -68.295541245765548 -42.323143131272033 0 0 0 -1 I I #
edge $-1 $388 -42.323143131272033 $392 42.323143131272033 $386 $463 forward 7 unknown #
straight-curve $-1 0 -42.323143131272033 -15.8316222223579 -1 0 0 I I #
vertex $-1 $269 $464 #
straight-curve $-1 0 42.323143131272033 -15.8316222223579 1 0 0 I I #
point $-1 68.295541245765548 42.323143131272033 -15.8316222223579 #
point $-1 68.295541245765548 -42.323143131272033 -15.8316222223579 #
straight-curve $-1 -68.295541245765548 0 15.8316222223579 0 -1 0 I I #
point $-1 -68.295541245765548 42.323143131272033 15.8316222223579 #
point $-1 -68.295541245765548 -42.323143131272033 15.8316222223579 #
straight-curve $-1 68.295541245765548 -42.323143131272033 0 0 0 -1 I I #
straight-curve $-1 68.295541245765548 42.323143131272033 0 0 0 -1 I I #
plane-surface $-1 68.295541245765548 0 0 -1 0 0 0 0 1 forward_v I I I I #
coedge $-1 $405 $289 $300 $414 forward $180 $-1 #
coedge $-1 $289 $405 $303 $416 reversed $180 $-1 #
straight-curve $-1 68.295541245765548 -27.589428714730872 -3.0647750694846492 0 0 1 I I #
coedge $-1 $403 $402 $292 $406 forward $180 $-1 #
edge $-1 $409 10.111285753230145 $407 24.845000169771307 $405 $465 forward 7 unknown #
vertex $-1 $294 $466 #
straight-curve $-1 0 -42.323143131272033 -9.6807095423967802 1 0 0 I I #
vertex $-1 $406 $467 #
straight-curve $-1 0 -27.589428714730872 -9.6807095423967802 1 0 0 I I #
point $-1 68.295541245765548 -42.323143131272033 -9.6807095423967802 #
point $-1 68.295541245765548 -27.589428714730872 -9.6807095423967802 #
straight-curve $-1 -68.295541245765548 -17.478142961500726 -2.5783907355418161 0 1 0 I I #
edge $-1 $301 -0.48638433394283309 $409 6.615934472912131 $402 $468 forward 7 unknown #
point $-1 -68.295541245765548 -27.589428714730872 -2.5783907355418161 #
edge $-1 $305 2.5783907355418161 $407 9.6807095423967802 $403 $469 forward 7 unknown #
point $-1 -68.295541245765548 -42.323143131272033 -2.5783907355418161 #
straight-curve $-1 68.295541245765548 -42.323143131272033 0 0 0 -1 I I #
plane-surface $-1 0 42.323143131272033 0 0 -1 0 0 0 -1 forward_v I I I I #
coedge $-1 $314 $429 $316 $423 forward $311 $-1 #
vertex $-1 $423 $470 #
straight-curve $-1 -68.295541245765548 27.589428714730879 -3.0647750694846492 0 0 1 I I #
edge $-1 $425 -24.845000169771311 $421 -10.111285753230149 $420 $471 forward 7 unknown #
straight-curve $-1 0 27.589428714730879 -9.6807095423967802 -1 0 0 I I #
vertex $-1 $319 $472 #
straight-curve $-1 0 42.323143131272033 -9.6807095423967802 -1 0 0 I I #
point $-1 68.295541245765548 27.589428714730879 -9.6807095423967802 #
point $-1 68.295541245765548 42.32314313127204 -9.6807095423967802 #
coedge $-1 $420 $323 $326 $431 forward $311 $-1 #
straight-curve $-1 -68.295541245765548 17.47814296150073 -2.5783907355418161 0 1 0 I I #
edge $-1 $328 2.5783907355418161 $425 9.6807095423967802 $326 $473 forward 7 unknown #
point $-1 -68.295541245765548 42.32314313127204 -2.5783907355418161 #
point $-1 -68.295541245765548 27.589428714730879 -2.5783907355418161 #
straight-curve $-1 68.295541245765548 27.589428714730879 -3.0647750694846492 0 0 -1 I I #
straight-curve $-1 68.295541245765548 42.323143131272033 0 0 0 -1 I I #
coedge $-1 $348 $347 $340 $437 forward $337 $-1 #
edge $-1 $438 11.550866852114609 $441 20.399204936441684 $436 $474 forward 7 unknown #
vertex $-1 $437 $475 #
straight-curve $-1 -68.295541245765548 12.478920606478638 54.685748911302341 0 0 1 I I #
edge $-1 $441 4.5259200113993607 $349 11.380081178759195 $348 $476 forward 7 unknown #
vertex $-1 $440 $477 #
straight-curve $-1 -68.295541245765577 12.478920606478638 7.8645426524129363 -0.74314481823134659 0 -0.66913061440640931 I I #
point $-1 -68.295541245765548 12.478920606478638 7.864542652412962 #
point $-1 -59.447203161438473 19.333081773838472 15.8316222223579 #
straight-curve $-1 -68.295541245765548 0 15.8316222223579 0 -1 0 I I #
vertex $-1 $355 $478 #
point $-1 -62.171187426274308 14.437252368581447 10.70707425322966 #
vertex $-1 $359 $479 #
point $-1 -62.171187426274308 17.374750011735664 10.70707425322966 #
edge $-1 $451 -25.729877230972861 $454 -14.171340025529105 $364 $480 forward 7 unknown #
vertex $-1 $368 $481 #
straight-curve $-1 68.295541245765548 27.589428714730879 97.245294273210774 0 0 1 I I #
edge $-1 $454 -16.048869098456336 $375 -7.0322501340927488 $374 $482 forward 7 unknown #
vertex $-1 $453 $483 #
straight-curve $-1 -19.503512824539143 27.589428714730879 106.69153447611686 0.64278759981090561 0 -0.7660444514056185 I I #
point $-1 68.295541245765534 27.589428714730879 2.0566936219923377 #
point $-1 56.737004040321793 18.572809750367291 15.831622222357908 #
straight-curve $-1 68.295541245765548 0 15.8316222223579 0 1 0 I I #
vertex $-1 $381 $484 #
point $-1 59.409257537773229 23.081119232549071 4.3789518487206651 #
straight-curve $-1 -68.295541245765548 42.323143131272033 0 0 0 -1 I I #
point $-1 -68.295541245765548 -42.323143131272033 -15.8316222223579 #
straight-curve $-1 -68.295541245765548 0 -15.8316222223579 0 1 0 I I #
point $-1 -68.295541245765548 42.323143131272033 -15.8316222223579 #
straight-curve $-1 -68.295541245765548 -17.478142961500726 -9.6807095423967802 0 -1 0 I I #
point $-1 -68.295541245765548 -42.323143131272033 -9.6807095423967802 #
point $-1 -68.295541245765548 -27.589428714730872 -9.6807095423967802 #
straight-curve $-1 -68.295541245765548 -27.589428714730872 -3.0647750694846492 0 0 -1 I I #
straight-curve $-1 -68.295541245765548 -42.323143131272033 0 0 0 -1 I I #
point $-1 -68.295541245765548 27.589428714730879 -9.6807095423967802 #
straight-curve $-1 -68.295541245765548 17.47814296150073 -9.6807095423967802 0 -1 0 I I #
point $-1 -68.295541245765548 42.32314313127204 -9.6807095423967802 #
straight-curve $-1 -68.295541245765548 42.323143131272033 0 0 0 -1 I I #
straight-curve $-1 -79.846408097880158 12.478920606478638 15.8316222223579 1 0 0 I I #
point $-1 -68.295541245765548 12.478920606478638 15.8316222223579 #
straight-curve $-1 -59.447203161438473 7.9530005950792777 15.831622222357899 0 1 0 I I #
point $-1 -59.447203161438473 12.478920606478638 15.8316222223579 #
point $-1 -62.208194528186773 14.437252368581447 10.000936536910782 #
point $-1 -62.208194528186773 17.374750011735664 10.000936536910782 #
straight-curve $-1 42.565664014792688 27.589428714730879 15.831622222357893 -1 0 0 I I #
point $-1 68.295541245765548 27.589428714730879 15.8316222223579 #
straight-curve $-1 56.737004040321807 11.540559616274543 15.8316222223579 0 -1 0 I I #
point $-1 56.737004040321793 27.589428714730879 15.831622222357908 #
point $-1 57.296009460948447 23.081119232549071 4.5638371261127348 #
End-of-ACIS-data 