500 0 18 0           
7 Unknown 11 ACIS 5.0 NT 24 Fri Mar 26 02:02:41 1999 
-1 9.9999999999999995e-007 1e-010 
body $-1 $18 $-1 $19 #
body $-1 $20 $-1 $21 #
body $-1 $22 $-1 $23 #
body $-1 $24 $-1 $25 #
body $-1 $26 $-1 $27 #
body $-1 $28 $-1 $29 #
body $-1 $30 $-1 $31 #
body $-1 $32 $-1 $33 #
body $-1 $34 $-1 $35 #
body $-1 $36 $-1 $37 #
body $-1 $38 $-1 $39 #
body $-1 $40 $-1 $41 #
body $-1 $42 $-1 $43 #
body $-1 $44 $-1 $45 #
body $-1 $46 $-1 $47 #
body $-1 $48 $-1 $49 #
body $-1 $50 $-1 $51 #
body $-1 $52 $-1 $53 #
lump $-1 $-1 $54 $0 #
transform $-1 1 0 0 0 1 0 0 0 1 63.85448774681845 36.059165330044841 14.382178338416365 1 rotate no_reflect no_shear #
lump $-1 $-1 $55 $1 #
transform $-1 1 0 0 0 1 0 0 0 1 63.85448774681845 36.059165330044841 14.382178338416365 1 rotate no_reflect no_shear #
lump $-1 $-1 $56 $2 #
transform $-1 1 0 0 0 1 0 0 0 1 63.85448774681845 36.059165330044841 14.382178338416365 1 rotate no_reflect no_shear #
lump $-1 $-1 $57 $3 #
transform $-1 1 0 0 0 1 0 0 0 1 63.85448774681845 36.059165330044841 14.382178338416365 1 rotate no_reflect no_shear #
lump $-1 $-1 $58 $4 #
transform $-1 1 0 0 0 1 0 0 0 1 63.85448774681845 36.059165330044841 14.382178338416365 1 rotate no_reflect no_shear #
lump $-1 $-1 $59 $5 #
transform $-1 1 0 0 0 1 0 0 0 1 63.85448774681845 36.059165330044841 14.382178338416365 1 rotate no_reflect no_shear #
lump $-1 $-1 $60 $6 #
transform $-1 1 0 0 0 1 0 0 0 1 63.85448774681845 36.059165330044841 14.382178338416365 1 rotate no_reflect no_shear #
lump $-1 $-1 $61 $7 #
transform $-1 1 0 0 0 1 0 0 0 1 63.85448774681845 36.059165330044841 14.382178338416365 1 rotate no_reflect no_shear #
lump $-1 $-1 $62 $8 #
transform $-1 1 0 0 0 1 0 0 0 1 63.85448774681845 36.059165330044841 14.382178338416365 1 rotate no_reflect no_shear #
lump $-1 $-1 $63 $9 #
transform $-1 1 0 0 0 1 0 0 0 1 63.85448774681845 36.059165330044841 14.382178338416365 1 rotate no_reflect no_shear #
lump $-1 $-1 $64 $10 #
transform $-1 1 0 0 0 1 0 0 0 1 63.85448774681845 36.059165330044841 14.382178338416365 1 rotate no_reflect no_shear #
lump $-1 $-1 $65 $11 #
transform $-1 1 0 0 0 1 0 0 0 1 63.85448774681845 36.059165330044841 14.382178338416365 1 rotate no_reflect no_shear #
lump $-1 $-1 $66 $12 #
transform $-1 1 0 0 0 1 0 0 0 1 63.85448774681845 36.059165330044841 14.382178338416365 1 rotate no_reflect no_shear #
lump $-1 $-1 $67 $13 #
transform $-1 1 0 0 0 1 0 0 0 1 63.85448774681845 36.059165330044841 14.382178338416365 1 rotate no_reflect no_shear #
lump $-1 $-1 $68 $14 #
transform $-1 1 0 0 0 1 0 0 0 1 63.85448774681845 36.059165330044841 14.382178338416365 1 rotate no_reflect no_shear #
lump $-1 $-1 $69 $15 #
transform $-1 1 0 0 0 1 0 0 0 1 63.85448774681845 36.059165330044841 14.382178338416365 1 rotate no_reflect no_shear #
lump $-1 $-1 $70 $16 #
transform $-1 1 0 0 0 1 0 0 0 1 63.85448774681845 36.059165330044841 14.382178338416365 1 rotate no_reflect no_shear #
lump $-1 $-1 $71 $17 #
transform $-1 1 0 0 0 1 0 0 0 1 63.85448774681845 36.059165330044841 14.382178338416365 1 rotate no_reflect no_shear #
shell $-1 $-1 $-1 $72 $-1 $18 #
shell $-1 $-1 $-1 $73 $-1 $20 #
shell $-1 $-1 $-1 $74 $-1 $22 #
shell $-1 $-1 $-1 $75 $-1 $24 #
shell $-1 $-1 $-1 $76 $-1 $26 #
shell $-1 $-1 $-1 $77 $-1 $28 #
shell $-1 $-1 $-1 $78 $-1 $30 #
shell $-1 $-1 $-1 $79 $-1 $32 #
shell $-1 $-1 $-1 $80 $-1 $34 #
shell $-1 $-1 $-1 $81 $-1 $36 #
shell $-1 $-1 $-1 $82 $-1 $38 #
shell $-1 $-1 $-1 $83 $-1 $40 #
shell $-1 $-1 $-1 $84 $-1 $42 #
shell $-1 $-1 $-1 $85 $-1 $44 #
shell $-1 $-1 $-1 $86 $-1 $46 #
shell $-1 $-1 $-1 $87 $-1 $48 #
shell $-1 $-1 $-1 $88 $-1 $50 #
shell $-1 $-1 $-1 $89 $-1 $52 #
face $-1 $90 $91 $54 $-1 $92 forward single #
face $-1 $93 $94 $55 $-1 $95 reversed single #
face $-1 $96 $97 $56 $-1 $98 reversed single #
face $-1 $99 $100 $57 $-1 $101 forward single #
face $-1 $102 $103 $58 $-1 $104 forward single #
face $-1 $105 $106 $59 $-1 $107 reversed single #
face $-1 $108 $109 $60 $-1 $110 forward single #
face $-1 $111 $112 $61 $-1 $113 forward single #
face $-1 $114 $115 $62 $-1 $116 reversed single #
face $-1 $117 $118 $63 $-1 $119 forward single #
face $-1 $120 $121 $64 $-1 $122 forward single #
face $-1 $123 $124 $65 $-1 $125 reversed single #
face $-1 $126 $127 $66 $-1 $128 forward single #
face $-1 $129 $130 $67 $-1 $131 forward single #
face $-1 $132 $133 $68 $-1 $134 reversed single #
face $-1 $135 $136 $69 $-1 $137 forward single #
face $-1 $138 $139 $70 $-1 $140 forward single #
face $-1 $141 $142 $71 $-1 $143 forward single #
face $-1 $144 $145 $54 $-1 $146 reversed single #
loop $-1 $-1 $147 $72 #
plane-surface $-1 0 0 14.382178338416365 0 0 1 1 0 0 forward_v I I I I #
face $-1 $148 $149 $55 $-1 $150 reversed single #
loop $-1 $-1 $151 $73 #
plane-surface $-1 -40.935966221755251 -28.106044998372649 0 1 0 0 0 0 -1 forward_v I I I I #
face $-1 $152 $153 $56 $-1 $154 reversed single #
loop $-1 $-1 $155 $74 #
plane-surface $-1 -154.15837138451116 -15.79701509529418 100.52793791092499 0 1 0 -0.70710678939079041 0 0.70710677298230451 forward_v I I I I #
face $-1 $156 $157 $57 $-1 $158 forward single #
loop $-1 $159 $160 $75 #
cone-surface $-1 -61.421873415531302 -13.922733152104158 11.949563967088634 0.70710678939079041 0 -0.70710677298230451 0.35355338649115226 0 0.35355339469539521 1 I I 0 1 0.5 forward I I I I #
face $-1 $161 $162 $58 $-1 $163 forward single #
loop $-1 $164 $165 $76 #
cone-surface $-1 -61.421873415531302 -11.11131023731912 11.949563967088634 0.70710678939079041 0 -0.70710677298230451 0.35355338649115226 0 0.35355339469539521 1 I I 0 1 0.5 forward I I I I #
face $-1 $166 $167 $59 $-1 $168 reversed single #
loop $-1 $-1 $169 $77 #
plane-surface $-1 -154.15837138451116 -2.1502537443716268 100.52793791092499 0 1 0 -0.70710678939079041 0 0.70710677298230451 forward_v I I I I #
face $-1 $170 $171 $60 $-1 $172 forward single #
loop $-1 $173 $174 $78 #
cone-surface $-1 -61.421873415531302 -0.2759718011816048 11.949563967088634 0.70710678939079041 0 -0.70710677298230451 0.35355338649115226 0 0.35355339469539521 1 I I 0 1 0.5 forward I I I I #
face $-1 $175 $176 $61 $-1 $177 forward single #
loop $-1 $178 $179 $79 #
cone-surface $-1 -61.421873415531302 2.5354511136034361 11.949563967088634 0.70710678939079041 0 -0.70710677298230451 0.35355338649115226 0 0.35355339469539521 1 I I 0 1 0.5 forward I I I I #
face $-1 $180 $181 $62 $-1 $182 reversed single #
loop $-1 $-1 $183 $80 #
plane-surface $-1 -154.15837138451116 11.496507606550926 100.52793791092499 0 1 0 -0.70710678939079041 0 0.70710677298230451 forward_v I I I I #
face $-1 $184 $185 $63 $-1 $186 forward single #
loop $-1 $187 $188 $81 #
cone-surface $-1 -61.421873415531302 13.370789549740948 11.949563967088634 0.70710678939079041 0 -0.70710677298230451 0.35355338649115226 0 0.35355339469539521 1 I I 0 1 0.5 forward I I I I #
face $-1 $189 $190 $64 $-1 $191 forward single #
loop $-1 $192 $193 $82 #
cone-surface $-1 -61.421873415531302 16.182212464525989 11.949563967088634 0.70710678939079041 0 -0.70710677298230451 0.35355338649115226 0 0.35355339469539521 1 I I 0 1 0.5 forward I I I I #
face $-1 $194 $195 $65 $-1 $196 reversed single #
loop $-1 $-1 $197 $83 #
plane-surface $-1 -154.15837138451116 25.143268957473488 100.52793791092499 0 1 0 -0.70710678939079041 0 0.70710677298230451 forward_v I I I I #
face $-1 $198 $199 $66 $-1 $200 forward single #
loop $-1 $201 $202 $84 #
cone-surface $-1 -61.421873415531302 27.017550900663501 11.949563967088634 0.70710678939079041 0 -0.70710677298230451 0.35355338649115226 0 0.35355339469539521 1 I I 0 1 0.5 forward I I I I #
face $-1 $203 $204 $67 $-1 $205 forward single #
loop $-1 $206 $207 $85 #
cone-surface $-1 -61.421873415531302 29.828973815448542 11.949563967088634 0.70710678939079041 0 -0.70710677298230451 0.35355338649115226 0 0.35355339469539521 1 I I 0 1 0.5 forward I I I I #
face $-1 $208 $209 $68 $-1 $210 reversed single #
loop $-1 $-1 $211 $86 #
plane-surface $-1 107.54746332499005 2.1694778696671424 184.94177930873897 0 -1 0 -0.85716730853699208 0 -0.51503806187062418 forward_v I I I I #
face $-1 $212 $213 $69 $-1 $214 forward single #
loop $-1 $215 $216 $87 #
cone-surface $-1 61.939584110285821 -11.198620682570368 11.735339076805554 -0.85716730853699208 0 -0.51503806187062418 0.51503806187062418 0 -0.85716730853699208 1 I I 0 1 1 forward I I I I #
face $-1 $217 $218 $70 $-1 $219 forward single #
loop $-1 $220 $221 $88 #
cone-surface $-1 61.939584110285821 -6.1855837254813011 11.735339076805554 -0.85716730853699208 0 -0.51503806187062418 0.51503806187062418 0 -0.85716730853699208 1 I I 0 1 1 forward I I I I #
face $-1 $222 $223 $71 $-1 $224 forward single #
loop $-1 $225 $226 $89 #
cone-surface $-1 61.939584110285821 -1.1725467683922375 11.735339076805554 -0.85716730853699208 0 -0.51503806187062418 0.51503806187062418 0 -0.85716730853699208 1 I I 0 1 1 forward I I I I #
face $-1 $227 $228 $54 $-1 $229 reversed single #
loop $-1 $-1 $230 $90 #
plane-surface $-1 0 0 -14.382178338416365 0 0 1 1 0 0 forward_v I I I I #
coedge $-1 $231 $232 $233 $234 forward $91 $-1 #
face $-1 $235 $236 $55 $-1 $237 reversed single #
loop $-1 $-1 $238 $93 #
plane-surface $-1 -38.013048645870484 -20.152924666700457 0 0 -1 0 0 0 -1 forward_v I I I I #
coedge $-1 $239 $240 $241 $242 forward $94 $-1 #
face $-1 $243 $244 $56 $-1 $245 reversed single #
loop $-1 $-1 $246 $96 #
plane-surface $-1 -63.85448774681845 -12.517021694711637 10.224056368743206 -0.70710678939079041 0 0.70710677298230451 0.70710677298230451 0 0.70710678939079041 forward_v I I I I #
coedge $-1 $247 $248 $249 $250 reversed $97 $-1 #
face $-1 $-1 $251 $57 $-1 $252 forward single #
loop $-1 $253 $254 $99 #
cone-surface $-1 -60.891543323488207 -13.922733152104158 11.419233887351906 0.70710678939079041 0 -0.70710677298230451 0.17677669324557613 0 0.1767766973476976 1 I I -0.70710678118654746 0.70710678118654746 0.25 forward I I I I #
loop $-1 $-1 $255 $75 #
coedge $-1 $160 $160 $256 $257 reversed $100 $-1 #
face $-1 $-1 $258 $58 $-1 $259 forward single #
loop $-1 $260 $261 $102 #
cone-surface $-1 -60.891543323488207 -11.11131023731912 11.419233887351906 0.70710678939079041 0 -0.70710677298230451 0.17677669324557613 0 0.1767766973476976 1 I I -0.70710678118654746 0.70710678118654746 0.25 forward I I I I #
loop $-1 $-1 $262 $76 #
coedge $-1 $165 $165 $263 $264 reversed $103 $-1 #
face $-1 $265 $266 $59 $-1 $267 reversed single #
loop $-1 $-1 $268 $105 #
plane-surface $-1 -63.85448774681845 1.1297396562109157 10.224056368743206 -0.70710678939079041 0 0.70710677298230451 0.70710677298230451 0 0.70710678939079041 forward_v I I I I #
coedge $-1 $269 $270 $271 $272 reversed $106 $-1 #
face $-1 $-1 $273 $60 $-1 $274 forward single #
loop $-1 $275 $276 $108 #
cone-surface $-1 -60.891543323488207 -0.2759718011816048 11.419233887351906 0.70710678939079041 0 -0.70710677298230451 0.17677669324557613 0 0.1767766973476976 1 I I -0.70710678118654746 0.70710678118654746 0.25 forward I I I I #
loop $-1 $-1 $277 $78 #
coedge $-1 $174 $174 $278 $279 reversed $109 $-1 #
face $-1 $-1 $280 $61 $-1 $281 forward single #
loop $-1 $282 $283 $111 #
cone-surface $-1 -60.891543323488207 2.5354511136034361 11.419233887351906 0.70710678939079041 0 -0.70710677298230451 0.17677669324557613 0 0.1767766973476976 1 I I -0.70710678118654746 0.70710678118654746 0.25 forward I I I I #
loop $-1 $-1 $284 $79 #
coedge $-1 $179 $179 $285 $286 reversed $112 $-1 #
face $-1 $287 $288 $62 $-1 $289 reversed single #
loop $-1 $-1 $290 $114 #
plane-surface $-1 -63.85448774681845 14.776501007133469 10.224056368743206 -0.70710678939079041 0 0.70710677298230451 0.70710677298230451 0 0.70710678939079041 forward_v I I I I #
coedge $-1 $291 $292 $293 $294 reversed $115 $-1 #
face $-1 $-1 $295 $63 $-1 $296 forward single #
loop $-1 $297 $298 $117 #
cone-surface $-1 -60.891543323488207 13.370789549740948 11.419233887351906 0.70710678939079041 0 -0.70710677298230451 0.17677669324557613 0 0.1767766973476976 1 I I -0.70710678118654746 0.70710678118654746 0.25 forward I I I I #
loop $-1 $-1 $299 $81 #
coedge $-1 $188 $188 $300 $301 reversed $118 $-1 #
face $-1 $-1 $302 $64 $-1 $303 forward single #
loop $-1 $304 $305 $120 #
cone-surface $-1 -60.891543323488207 16.182212464525989 11.419233887351906 0.70710678939079041 0 -0.70710677298230451 0.17677669324557613 0 0.1767766973476976 1 I I -0.70710678118654746 0.70710678118654746 0.25 forward I I I I #
loop $-1 $-1 $306 $82 #
coedge $-1 $193 $193 $307 $308 reversed $121 $-1 #
face $-1 $309 $310 $65 $-1 $311 reversed single #
loop $-1 $-1 $312 $123 #
plane-surface $-1 -63.85448774681845 28.423262358056029 10.224056368743206 -0.70710678939079041 0 0.70710677298230451 0.70710677298230451 0 0.70710678939079041 forward_v I I I I #
coedge $-1 $313 $314 $315 $316 reversed $124 $-1 #
face $-1 $-1 $317 $66 $-1 $318 forward single #
loop $-1 $319 $320 $126 #
cone-surface $-1 -60.891543323488207 27.017550900663501 11.419233887351906 0.70710678939079041 0 -0.70710677298230451 0.17677669324557613 0 0.1767766973476976 1 I I -0.70710678118654746 0.70710678118654746 0.25 forward I I I I #
loop $-1 $-1 $321 $84 #
coedge $-1 $202 $202 $322 $323 reversed $127 $-1 #
face $-1 $-1 $324 $67 $-1 $325 forward single #
loop $-1 $326 $327 $129 #
cone-surface $-1 -60.891543323488207 29.828973815448542 11.419233887351906 0.70710678939079041 0 -0.70710677298230451 0.17677669324557613 0 0.1767766973476976 1 I I -0.70710678118654746 0.70710678118654746 0.25 forward I I I I #
loop $-1 $-1 $328 $85 #
coedge $-1 $207 $207 $329 $330 reversed $130 $-1 #
face $-1 $331 $332 $68 $-1 $333 reversed single #
loop $-1 $-1 $334 $132 #
plane-surface $-1 -1.9204954749073551 -6.1855837254813011 119.1667960870132 0.85716730853699208 0 0.51503806187062418 0.51503806187062418 0 -0.85716730853699208 forward_v I I I I #
coedge $-1 $335 $336 $337 $338 reversed $133 $-1 #
face $-1 $-1 $339 $69 $-1 $340 forward single #
loop $-1 $341 $342 $135 #
cone-surface $-1 61.003114372602738 -11.198620682570368 11.172651309909726 -0.85716730853699208 0 -0.51503806187062418 0.25751903093531209 0 -0.42858365426849604 1 I I -0.70710678118654746 0.70710678118654746 0.5 forward I I I I #
loop $-1 $-1 $343 $87 #
coedge $-1 $216 $216 $344 $345 reversed $136 $-1 #
face $-1 $-1 $346 $70 $-1 $347 forward single #
loop $-1 $348 $349 $138 #
cone-surface $-1 61.003114372602738 -6.1855837254813011 11.172651309909726 -0.85716730853699208 0 -0.51503806187062418 0.25751903093531209 0 -0.42858365426849604 1 I I -0.70710678118654746 0.70710678118654746 0.5 forward I I I I #
loop $-1 $-1 $350 $88 #
coedge $-1 $221 $221 $351 $352 reversed $139 $-1 #
face $-1 $-1 $353 $71 $-1 $354 forward single #
loop $-1 $355 $356 $141 #
cone-surface $-1 61.003114372602738 -1.1725467683922375 11.172651309909726 -0.85716730853699208 0 -0.51503806187062418 0.25751903093531209 0 -0.42858365426849604 1 I I -0.70710678118654746 0.70710678118654746 0.5 forward I I I I #
loop $-1 $-1 $357 $89 #
coedge $-1 $226 $226 $358 $359 reversed $142 $-1 #
face $-1 $360 $361 $54 $-1 $362 reversed single #
loop $-1 $-1 $363 $144 #
plane-surface $-1 0 -36.059165330044841 0 0 1 0 0 0 1 forward_v I I I I #
coedge $-1 $364 $365 $366 $367 forward $145 $-1 #
coedge $-1 $368 $147 $369 $370 forward $91 $-1 #
coedge $-1 $147 $368 $371 $372 forward $91 $-1 #
coedge $-1 $373 $374 $147 $234 reversed $375 $-1 #
edge $-1 $376 -36.059165330044841 $377 36.059165330044841 $233 $378 forward 7 unknown #
face $-1 $379 $380 $55 $-1 $381 forward single #
loop $-1 $-1 $382 $148 #
plane-surface $-1 -35.090131069985716 -28.106044998372649 0 -1 0 0 0 0 1 forward_v I I I I #
coedge $-1 $383 $384 $385 $386 forward $149 $-1 #
coedge $-1 $387 $151 $388 $389 reversed $94 $-1 #
coedge $-1 $151 $387 $390 $391 reversed $94 $-1 #
coedge $-1 $384 $383 $151 $242 reversed $149 $-1 #
edge $-1 $392 -14.382178338416365 $393 14.382178338416365 $241 $394 forward 7 unknown #
face $-1 $395 $396 $56 $-1 $397 reversed single #
loop $-1 $-1 $398 $152 #
plane-surface $-1 -154.15837138451116 -9.2370282941290949 100.52793791092499 0 -1 0 0.70710678939079041 0 -0.70710677298230451 forward_v I I I I #
coedge $-1 $399 $400 $401 $402 reversed $153 $-1 #
coedge $-1 $248 $155 $403 $404 reversed $97 $-1 #
coedge $-1 $155 $247 $399 $405 reversed $97 $-1 #
coedge $-1 $401 $406 $155 $250 forward $407 $-1 #
edge $-1 $408 13.224697945437129 $409 17.382819818620639 $249 $410 forward 7 unknown #
loop $-1 $-1 $256 $156 #
plane-surface $-1 -63.85448774681845 -12.517021694711637 10.224056368743206 -0.70710678939079041 0 0.70710677298230451 0.70710677298230451 0 0.70710678939079041 forward_v I I I I #
loop $-1 $-1 $411 $99 #
coedge $-1 $254 $254 $255 $412 reversed $157 $-1 #
coedge $-1 $255 $255 $254 $412 forward $159 $-1 #
coedge $-1 $256 $256 $160 $257 forward $251 $-1 #
edge $-1 $413 0 $413 6.2831853071796004 $256 $414 forward 7 unknown #
loop $-1 $-1 $263 $161 #
plane-surface $-1 -63.85448774681845 -12.517021694711637 10.224056368743206 -0.70710678939079041 0 0.70710677298230451 0.70710677298230451 0 0.70710678939079041 forward_v I I I I #
loop $-1 $-1 $415 $102 #
coedge $-1 $261 $261 $262 $416 reversed $162 $-1 #
coedge $-1 $262 $262 $261 $416 forward $164 $-1 #
coedge $-1 $263 $263 $165 $264 forward $258 $-1 #
edge $-1 $417 0 $417 6.2831853071796004 $263 $418 forward 7 unknown #
face $-1 $419 $420 $59 $-1 $421 forward single #
loop $-1 $-1 $422 $166 #
plane-surface $-1 -154.15837138451116 4.4097330567934581 100.52793791092499 0 -1 0 0.70710678939079041 0 -0.70710677298230451 forward_v I I I I #
coedge $-1 $423 $424 $425 $426 reversed $167 $-1 #
coedge $-1 $270 $169 $427 $428 reversed $106 $-1 #
coedge $-1 $169 $269 $423 $429 reversed $106 $-1 #
coedge $-1 $425 $430 $169 $272 forward $420 $-1 #
edge $-1 $431 13.224697945437129 $432 17.382819818620639 $271 $433 forward 7 unknown #
loop $-1 $-1 $278 $170 #
plane-surface $-1 -63.85448774681845 1.1297396562109157 10.224056368743206 -0.70710678939079041 0 0.70710677298230451 0.70710677298230451 0 0.70710678939079041 forward_v I I I I #
loop $-1 $-1 $434 $108 #
coedge $-1 $276 $276 $277 $435 reversed $171 $-1 #
coedge $-1 $277 $277 $276 $435 forward $173 $-1 #
coedge $-1 $278 $278 $174 $279 forward $273 $-1 #
edge $-1 $436 0 $436 6.2831853071796004 $278 $437 forward 7 unknown #
loop $-1 $-1 $285 $175 #
plane-surface $-1 -63.85448774681845 1.1297396562109157 10.224056368743206 -0.70710678939079041 0 0.70710677298230451 0.70710677298230451 0 0.70710678939079041 forward_v I I I I #
loop $-1 $-1 $438 $111 #
coedge $-1 $283 $283 $284 $439 reversed $176 $-1 #
coedge $-1 $284 $284 $283 $439 forward $178 $-1 #
coedge $-1 $285 $285 $179 $286 forward $280 $-1 #
edge $-1 $440 0 $440 6.2831853071796004 $285 $441 forward 7 unknown #
face $-1 $442 $443 $62 $-1 $444 forward single #
loop $-1 $-1 $445 $180 #
plane-surface $-1 -154.15837138451116 18.056494407716009 100.52793791092499 0 -1 0 0.70710678939079041 0 -0.70710677298230451 forward_v I I I I #
coedge $-1 $446 $447 $448 $449 reversed $181 $-1 #
coedge $-1 $292 $183 $450 $451 reversed $115 $-1 #
coedge $-1 $183 $291 $446 $452 reversed $115 $-1 #
coedge $-1 $448 $453 $183 $294 forward $443 $-1 #
edge $-1 $454 13.224697945437129 $455 17.382819818620639 $293 $456 forward 7 unknown #
loop $-1 $-1 $300 $184 #
plane-surface $-1 -63.85448774681845 14.776501007133469 10.224056368743206 -0.70710678939079041 0 0.70710677298230451 0.70710677298230451 0 0.70710678939079041 forward_v I I I I #
loop $-1 $-1 $457 $117 #
coedge $-1 $298 $298 $299 $458 reversed $185 $-1 #
coedge $-1 $299 $299 $298 $458 forward $187 $-1 #
coedge $-1 $300 $300 $188 $301 forward $295 $-1 #
edge $-1 $459 0 $459 6.2831853071796004 $300 $460 forward 7 unknown #
loop $-1 $-1 $307 $189 #
plane-surface $-1 -63.85448774681845 14.776501007133469 10.224056368743206 -0.70710678939079041 0 0.70710677298230451 0.70710677298230451 0 0.70710678939079041 forward_v I I I I #
loop $-1 $-1 $461 $120 #
coedge $-1 $305 $305 $306 $462 reversed $190 $-1 #
coedge $-1 $306 $306 $305 $462 forward $192 $-1 #
coedge $-1 $307 $307 $193 $308 forward $302 $-1 #
edge $-1 $463 0 $463 6.2831853071796004 $307 $464 forward 7 unknown #
face $-1 $465 $466 $65 $-1 $467 forward single #
loop $-1 $-1 $468 $194 #
plane-surface $-1 -154.15837138451116 31.703255758638569 100.52793791092499 0 -1 0 0.70710678939079041 0 -0.70710677298230451 forward_v I I I I #
coedge $-1 $469 $470 $471 $472 reversed $195 $-1 #
coedge $-1 $314 $197 $473 $474 reversed $124 $-1 #
coedge $-1 $197 $313 $469 $475 reversed $124 $-1 #
coedge $-1 $471 $476 $197 $316 forward $466 $-1 #
edge $-1 $477 13.224697945437129 $478 17.382819818620639 $315 $479 forward 7 unknown #
loop $-1 $-1 $322 $198 #
plane-surface $-1 -63.85448774681845 28.423262358056029 10.224056368743206 -0.70710678939079041 0 0.70710677298230451 0.70710677298230451 0 0.70710678939079041 forward_v I I I I #
loop $-1 $-1 $480 $126 #
coedge $-1 $320 $320 $321 $481 reversed $199 $-1 #
coedge $-1 $321 $321 $320 $481 forward $201 $-1 #
coedge $-1 $322 $322 $202 $323 forward $317 $-1 #
edge $-1 $482 0 $482 6.2831853071796004 $322 $483 forward 7 unknown #
loop $-1 $-1 $329 $203 #
plane-surface $-1 -63.85448774681845 28.423262358056029 10.224056368743206 -0.70710678939079041 0 0.70710677298230451 0.70710677298230451 0 0.70710678939079041 forward_v I I I I #
loop $-1 $-1 $484 $129 #
coedge $-1 $327 $327 $328 $485 reversed $204 $-1 #
coedge $-1 $328 $328 $327 $485 forward $206 $-1 #
coedge $-1 $329 $329 $207 $330 forward $324 $-1 #
edge $-1 $486 0 $486 6.2831853071796004 $329 $487 forward 7 unknown #
face $-1 $488 $489 $68 $-1 $490 forward single #
loop $-1 $-1 $491 $208 #
plane-surface $-1 107.54746332499005 -14.540645320629745 184.94177930873897 0 1 0 0.85716730853699208 0 0.51503806187062418 forward_v I I I I #
coedge $-1 $492 $493 $494 $495 reversed $209 $-1 #
coedge $-1 $336 $211 $496 $497 reversed $133 $-1 #
coedge $-1 $211 $335 $492 $498 reversed $133 $-1 #
coedge $-1 $494 $499 $211 $338 forward $489 $-1 #
edge $-1 $500 -10.080756084323426 $501 -7.266720978087335 $337 $502 forward 7 unknown #
loop $-1 $-1 $344 $212 #
plane-surface $-1 -1.9204954749073551 -6.1855837254813011 119.1667960870132 0.85716730853699208 0 0.51503806187062418 0.51503806187062418 0 -0.85716730853699208 forward_v I I I I #
loop $-1 $-1 $503 $135 #
coedge $-1 $342 $342 $343 $504 reversed $213 $-1 #
coedge $-1 $343 $343 $342 $504 forward $215 $-1 #
coedge $-1 $344 $344 $216 $345 forward $339 $-1 #
edge $-1 $505 0 $505 6.2831853071796004 $344 $506 forward 7 unknown #
loop $-1 $-1 $351 $217 #
plane-surface $-1 -1.9204954749073551 -6.1855837254813011 119.1667960870132 0.85716730853699208 0 0.51503806187062418 0.51503806187062418 0 -0.85716730853699208 forward_v I I I I #
loop $-1 $-1 $507 $138 #
coedge $-1 $349 $349 $350 $508 reversed $218 $-1 #
coedge $-1 $350 $350 $349 $508 forward $220 $-1 #
coedge $-1 $351 $351 $221 $352 forward $346 $-1 #
edge $-1 $509 0 $509 6.2831853071796004 $351 $510 forward 7 unknown #
loop $-1 $-1 $358 $222 #
plane-surface $-1 -1.9204954749073551 -6.1855837254813011 119.1667960870132 0.85716730853699208 0 0.51503806187062418 0.51503806187062418 0 -0.85716730853699208 forward_v I I I I #
loop $-1 $-1 $511 $141 #
coedge $-1 $356 $356 $357 $512 reversed $223 $-1 #
coedge $-1 $357 $357 $356 $512 forward $225 $-1 #
coedge $-1 $358 $358 $226 $359 forward $353 $-1 #
edge $-1 $513 0 $513 6.2831853071796004 $358 $514 forward 7 unknown #
face $-1 $515 $516 $54 $-1 $517 reversed single #
loop $-1 $-1 $518 $227 #
plane-surface $-1 -63.85448774681845 0 0 1 0 0 0 0 -1 forward_v I I I I #
coedge $-1 $519 $371 $520 $521 forward $228 $-1 #
coedge $-1 $522 $230 $519 $523 forward $145 $-1 #
coedge $-1 $230 $522 $524 $525 forward $145 $-1 #
coedge $-1 $374 $373 $230 $367 reversed $375 $-1 #
edge $-1 $526 -36.059165330044841 $527 36.059165330044841 $366 $528 forward 7 unknown #
coedge $-1 $232 $231 $529 $530 forward $91 $-1 #
coedge $-1 $531 $532 $231 $370 reversed $516 $-1 #
edge $-1 $377 -63.85448774681845 $533 63.85448774681845 $369 $534 forward 7 unknown #
coedge $-1 $363 $535 $232 $372 reversed $228 $-1 #
edge $-1 $536 -63.85448774681845 $376 63.85448774681845 $371 $537 forward 7 unknown #
coedge $-1 $366 $233 $535 $538 forward $375 $-1 #
coedge $-1 $233 $366 $531 $539 reversed $375 $-1 #
loop $-1 $-1 $373 $515 #
vertex $-1 $234 $540 #
vertex $-1 $234 $541 #
straight-curve $-1 63.85448774681845 0 14.382178338416365 0 1 0 I I #
face $-1 $542 $543 $55 $-1 $544 reversed single #
loop $-1 $-1 $545 $235 #
plane-surface $-1 0 0 14.382178338416365 0 0 1 1 0 0 forward_v I I I I #
coedge $-1 $546 $547 $548 $549 reversed $236 $-1 #
coedge $-1 $241 $238 $550 $551 reversed $149 $-1 #
coedge $-1 $238 $241 $552 $553 reversed $149 $-1 #
coedge $-1 $547 $546 $238 $386 reversed $236 $-1 #
edge $-1 $554 -14.382178338416365 $555 14.382178338416365 $385 $556 forward 7 unknown #
coedge $-1 $240 $239 $557 $558 reversed $94 $-1 #
coedge $-1 $550 $559 $239 $389 forward $543 $-1 #
edge $-1 $560 -22.006142830858515 $393 -6.0999021675141325 $388 $561 forward 7 unknown #
coedge $-1 $562 $552 $240 $391 forward $380 $-1 #
edge $-1 $392 6.0999021675141325 $563 22.006142830858515 $390 $564 forward 7 unknown #
vertex $-1 $391 $565 #
vertex $-1 $389 $566 #
straight-curve $-1 -40.935966221755251 -20.152924666700457 0 0 0 -1 I I #
face $-1 $-1 $407 $56 $-1 $567 forward single #
loop $-1 $-1 $568 $243 #
plane-surface $-1 -63.85448774681845 0 0 1 0 0 0 0 -1 forward_v I I I I #
coedge $-1 $569 $570 $571 $572 reversed $244 $-1 #
coedge $-1 $573 $246 $248 $405 forward $153 $-1 #
coedge $-1 $246 $573 $569 $574 forward $153 $-1 #
coedge $-1 $571 $249 $246 $402 forward $407 $-1 #
edge $-1 $409 -9.538504247938361 $575 -2.9785174467732762 $401 $576 forward 7 unknown #
coedge $-1 $577 $578 $247 $404 forward $396 $-1 #
edge $-1 $579 -40.039912586719289 $408 -35.881790617046128 $403 $580 forward 7 unknown #
edge $-1 $409 -5.8804724152848271 $579 0 $248 $581 forward 7 unknown #
coedge $-1 $249 $571 $577 $582 forward $407 $-1 #
loop $-1 $-1 $571 $395 #
vertex $-1 $404 $583 #
vertex $-1 $250 $584 #
straight-curve $-1 -77.079185692255578 -15.79701509529418 14.382178338416367 1 0 0 I I #
coedge $-1 $411 $411 $-1 $585 reversed $253 $-1 #
edge $-1 $586 0 $586 6.2831853071796004 $254 $587 forward 7 unknown #
vertex $-1 $257 $588 #
ellipse-curve $-1 -61.775426810226698 -13.922733152104158 12.303117353579784 -0.70710678939079041 0 0.70710677298230451 0.35355338649115226 0 0.35355339469539521 1 I I #
coedge $-1 $415 $415 $-1 $589 reversed $260 $-1 #
edge $-1 $590 0 $590 6.2831853071796004 $261 $591 forward 7 unknown #
vertex $-1 $264 $592 #
ellipse-curve $-1 -61.775426810226698 -11.11131023731912 12.303117353579784 -0.70710678939079041 0 0.70710677298230451 0.35355338649115226 0 0.35355339469539521 1 I I #
face $-1 $-1 $593 $59 $-1 $594 reversed single #
loop $-1 $-1 $271 $265 #
plane-surface $-1 0 0 14.382178338416365 0 0 1 1 0 0 forward_v I I I I #
coedge $-1 $595 $596 $597 $598 reversed $266 $-1 #
coedge $-1 $599 $268 $270 $429 forward $167 $-1 #
coedge $-1 $268 $599 $595 $600 forward $167 $-1 #
coedge $-1 $597 $271 $268 $426 forward $420 $-1 #
edge $-1 $432 -2.7151235724770846 $601 3.8448632286880002 $425 $602 forward 7 unknown #
coedge $-1 $603 $604 $269 $428 forward $593 $-1 #
edge $-1 $605 -40.039912586719289 $431 -35.881790617046128 $427 $606 forward 7 unknown #
edge $-1 $432 -5.8804724152848271 $605 0 $270 $607 forward 7 unknown #
coedge $-1 $271 $597 $603 $608 forward $420 $-1 #
vertex $-1 $428 $609 #
vertex $-1 $272 $610 #
straight-curve $-1 -77.079185692255578 -2.1502537443716268 14.382178338416367 1 0 0 I I #
coedge $-1 $434 $434 $-1 $611 reversed $275 $-1 #
edge $-1 $612 0 $612 6.2831853071796004 $276 $613 forward 7 unknown #
vertex $-1 $279 $614 #
ellipse-curve $-1 -61.775426810226698 -0.2759718011816048 12.303117353579784 -0.70710678939079041 0 0.70710677298230451 0.35355338649115226 0 0.35355339469539521 1 I I #
coedge $-1 $438 $438 $-1 $615 reversed $282 $-1 #
edge $-1 $616 0 $616 6.2831853071796004 $283 $617 forward 7 unknown #
vertex $-1 $286 $618 #
ellipse-curve $-1 -61.775426810226698 2.5354511136034361 12.303117353579784 -0.70710678939079041 0 0.70710677298230451 0.35355338649115226 0 0.35355339469539521 1 I I #
face $-1 $-1 $619 $62 $-1 $620 reversed single #
loop $-1 $-1 $293 $287 #
plane-surface $-1 0 0 14.382178338416365 0 0 1 1 0 0 forward_v I I I I #
coedge $-1 $621 $622 $623 $624 reversed $288 $-1 #
coedge $-1 $625 $290 $292 $452 forward $181 $-1 #
coedge $-1 $290 $625 $621 $626 forward $181 $-1 #
coedge $-1 $623 $293 $290 $449 forward $443 $-1 #
edge $-1 $455 4.1082571029841919 $627 10.668243904149275 $448 $628 forward 7 unknown #
coedge $-1 $629 $630 $291 $451 forward $619 $-1 #
edge $-1 $631 -40.039912586719289 $454 -35.881790617046128 $450 $632 forward 7 unknown #
edge $-1 $455 -5.8804724152848271 $631 0 $292 $633 forward 7 unknown #
coedge $-1 $293 $623 $629 $634 forward $443 $-1 #
vertex $-1 $294 $635 #
vertex $-1 $294 $636 #
straight-curve $-1 -77.079185692255578 11.496507606550926 14.382178338416367 1 0 0 I I #
coedge $-1 $457 $457 $-1 $637 reversed $297 $-1 #
edge $-1 $638 0 $638 6.2831853071796004 $298 $639 forward 7 unknown #
vertex $-1 $301 $640 #
ellipse-curve $-1 -61.775426810226698 13.370789549740948 12.303117353579784 -0.70710678939079041 0 0.70710677298230451 0.35355338649115226 0 0.35355339469539521 1 I I #
coedge $-1 $461 $461 $-1 $641 reversed $304 $-1 #
edge $-1 $642 0 $642 6.2831853071796004 $305 $643 forward 7 unknown #
vertex $-1 $308 $644 #
ellipse-curve $-1 -61.775426810226698 16.182212464525989 12.303117353579784 -0.70710678939079041 0 0.70710677298230451 0.35355338649115226 0 0.35355339469539521 1 I I #
face $-1 $-1 $645 $65 $-1 $646 reversed single #
loop $-1 $-1 $315 $309 #
plane-surface $-1 0 0 14.382178338416365 0 0 1 1 0 0 forward_v I I I I #
coedge $-1 $647 $648 $649 $650 reversed $310 $-1 #
coedge $-1 $651 $312 $314 $475 forward $195 $-1 #
coedge $-1 $312 $651 $647 $652 forward $195 $-1 #
coedge $-1 $649 $315 $312 $472 forward $466 $-1 #
edge $-1 $478 10.931637778445474 $653 17.491624579610555 $471 $654 forward 7 unknown #
coedge $-1 $655 $656 $313 $474 forward $645 $-1 #
edge $-1 $657 -40.039912586719289 $477 -35.881790617046128 $473 $658 forward 7 unknown #
edge $-1 $478 -5.8804724152848271 $657 0 $314 $659 forward 7 unknown #
coedge $-1 $315 $649 $655 $660 forward $466 $-1 #
vertex $-1 $316 $661 #
vertex $-1 $316 $662 #
straight-curve $-1 -77.079185692255578 25.143268957473488 14.382178338416367 1 0 0 I I #
coedge $-1 $480 $480 $-1 $663 reversed $319 $-1 #
edge $-1 $664 0 $664 6.2831853071796004 $320 $665 forward 7 unknown #
vertex $-1 $323 $666 #
ellipse-curve $-1 -61.775426810226698 27.017550900663501 12.303117353579784 -0.70710678939079041 0 0.70710677298230451 0.35355338649115226 0 0.35355339469539521 1 I I #
coedge $-1 $484 $484 $-1 $667 reversed $326 $-1 #
edge $-1 $668 0 $668 6.2831853071796004 $327 $669 forward 7 unknown #
vertex $-1 $330 $670 #
ellipse-curve $-1 -61.775426810226698 29.828973815448542 12.303117353579784 -0.70710678939079041 0 0.70710677298230451 0.35355338649115226 0 0.35355339469539521 1 I I #
face $-1 $-1 $671 $68 $-1 $672 reversed single #
loop $-1 $-1 $337 $331 #
plane-surface $-1 0 0 14.382178338416365 0 0 1 1 0 0 forward_v I I I I #
coedge $-1 $673 $674 $675 $676 reversed $332 $-1 #
coedge $-1 $677 $334 $336 $498 forward $209 $-1 #
coedge $-1 $334 $677 $673 $678 forward $209 $-1 #
coedge $-1 $675 $337 $334 $495 forward $489 $-1 #
edge $-1 $501 -5.2622697324077929 $679 11.447853457889094 $494 $680 forward 7 unknown #
coedge $-1 $681 $682 $335 $497 forward $671 $-1 #
edge $-1 $683 -82.772052367253721 $500 -78.08871131595312 $496 $684 forward 7 unknown #
edge $-1 $501 122.24523346258106 $683 127.70897549363694 $336 $685 forward 7 unknown #
coedge $-1 $337 $675 $681 $686 forward $489 $-1 #
vertex $-1 $497 $687 #
vertex $-1 $338 $688 #
straight-curve $-1 53.773731662495024 2.1694778696671424 14.382178338416367 -1 0 0 I I #
coedge $-1 $503 $503 $-1 $689 reversed $341 $-1 #
edge $-1 $690 0 $690 6.2831853071796004 $342 $691 forward 7 unknown #
vertex $-1 $345 $692 #
ellipse-curve $-1 62.447470193700397 -11.198620682570368 12.040507812766062 0.85716730853699208 0 0.51503806187062418 0.51503806187062418 0 -0.85716730853699208 1 I I #
coedge $-1 $507 $507 $-1 $693 reversed $348 $-1 #
edge $-1 $694 0 $694 6.2831853071796004 $349 $695 forward 7 unknown #
vertex $-1 $352 $696 #
ellipse-curve $-1 62.447470193700397 -6.1855837254813011 12.040507812766062 0.85716730853699208 0 0.51503806187062418 0.51503806187062418 0 -0.85716730853699208 1 I I #
coedge $-1 $511 $511 $-1 $697 reversed $355 $-1 #
edge $-1 $698 0 $698 6.2831853071796004 $356 $699 forward 7 unknown #
vertex $-1 $359 $700 #
ellipse-curve $-1 62.447470193700397 -1.1725467683922375 12.040507812766062 0.85716730853699208 0 0.51503806187062418 0.51503806187062418 0 -0.85716730853699208 1 I I #
face $-1 $-1 $375 $54 $-1 $701 reversed single #
loop $-1 $-1 $531 $360 #
plane-surface $-1 0 36.059165330044841 0 0 -1 0 0 0 -1 forward_v I I I I #
coedge $-1 $702 $529 $532 $703 forward $361 $-1 #
coedge $-1 $535 $363 $364 $523 reversed $228 $-1 #
coedge $-1 $529 $702 $363 $521 reversed $361 $-1 #
edge $-1 $536 -14.382178338416365 $704 14.382178338416365 $520 $705 forward 7 unknown #
coedge $-1 $365 $364 $702 $706 forward $145 $-1 #
edge $-1 $527 -63.85448774681845 $704 63.85448774681845 $519 $707 forward 7 unknown #
coedge $-1 $532 $531 $365 $525 reversed $516 $-1 #
edge $-1 $708 -63.85448774681845 $526 63.85448774681845 $524 $709 forward 7 unknown #
vertex $-1 $367 $710 #
vertex $-1 $538 $711 #
straight-curve $-1 63.85448774681845 0 -14.382178338416365 0 -1 0 I I #
coedge $-1 $518 $520 $368 $530 reversed $361 $-1 #
edge $-1 $533 -36.059165330044841 $536 36.059165330044841 $529 $712 forward 7 unknown #
coedge $-1 $524 $369 $374 $539 forward $516 $-1 #
coedge $-1 $369 $524 $518 $703 reversed $516 $-1 #
vertex $-1 $370 $713 #
straight-curve $-1 0 36.059165330044841 14.382178338416365 -1 0 0 I I #
coedge $-1 $371 $519 $373 $538 reversed $228 $-1 #
vertex $-1 $530 $714 #
straight-curve $-1 0 -36.059165330044841 14.382178338416365 1 0 0 I I #
edge $-1 $376 -14.382178338416365 $527 14.382178338416365 $373 $715 forward 7 unknown #
edge $-1 $377 -14.382178338416365 $526 14.382178338416365 $374 $716 forward 7 unknown #
point $-1 63.85448774681845 -36.059165330044841 14.382178338416365 #
point $-1 63.85448774681845 36.059165330044841 14.382178338416365 #
face $-1 $-1 $717 $55 $-1 $718 reversed single #
loop $-1 $-1 $719 $379 #
plane-surface $-1 0 0 -14.382178338416365 0 0 1 1 0 0 forward_v I I I I #
coedge $-1 $552 $562 $547 $720 forward $380 $-1 #
coedge $-1 $385 $382 $719 $721 reversed $236 $-1 #
coedge $-1 $382 $385 $545 $720 reversed $236 $-1 #
coedge $-1 $722 $723 $382 $549 forward $717 $-1 #
edge $-1 $724 -14.382178338416365 $725 14.382178338416365 $548 $726 forward 7 unknown #
coedge $-1 $719 $388 $383 $551 forward $543 $-1 #
edge $-1 $393 -21.929441898820009 $555 -16.083606747050474 $550 $727 forward 7 unknown #
coedge $-1 $390 $545 $384 $553 forward $380 $-1 #
edge $-1 $554 16.083606747050474 $392 21.929441898820009 $552 $728 forward 7 unknown #
vertex $-1 $553 $729 #
vertex $-1 $551 $730 #
straight-curve $-1 -35.090131069985716 -20.152924666700457 0 0 0 -1 I I #
coedge $-1 $723 $722 $387 $558 forward $717 $-1 #
edge $-1 $563 -14.382178338416365 $560 14.382178338416365 $557 $731 forward 7 unknown #
coedge $-1 $388 $719 $723 $732 forward $543 $-1 #
vertex $-1 $389 $733 #
straight-curve $-1 -40.935966221755251 -14.053022499186325 -14.382178338416365 0 1 0 I I #
coedge $-1 $545 $390 $722 $734 forward $380 $-1 #
vertex $-1 $734 $735 #
straight-curve $-1 -40.935966221755251 -14.053022499186325 14.382178338416365 0 -1 0 I I #
point $-1 -40.935966221755251 -20.152924666700457 14.382178338416365 #
point $-1 -40.935966221755251 -20.152924666700457 -14.382178338416365 #
plane-surface $-1 0 0 14.382178338416365 0 0 1 1 0 0 forward_v I I I I #
coedge $-1 $578 $577 $570 $736 forward $396 $-1 #
coedge $-1 $570 $398 $400 $574 reversed $244 $-1 #
coedge $-1 $398 $569 $568 $736 reversed $244 $-1 #
coedge $-1 $406 $401 $398 $572 forward $407 $-1 #
edge $-1 $575 -17.382819818620639 $737 -13.224697945437129 $571 $738 forward 7 unknown #
coedge $-1 $400 $399 $578 $739 reversed $153 $-1 #
edge $-1 $740 0 $575 5.8804724152848271 $569 $741 forward 7 unknown #
vertex $-1 $402 $742 #
straight-curve $-1 -59.696365873634939 -6.2585108473558186 14.382178338416365 0 1 0 I I #
coedge $-1 $568 $403 $406 $582 reversed $396 $-1 #
coedge $-1 $403 $568 $573 $739 forward $396 $-1 #
vertex $-1 $404 $743 #
straight-curve $-1 -63.85448774681845 -15.79701509529418 50.263968955462495 0 0 1 I I #
straight-curve $-1 -63.85448774681845 -15.79701509529418 10.224056368743206 -0.70710677298230451 0 -0.70710678939079041 I I #
edge $-1 $737 9.2370282941290949 $408 15.79701509529418 $577 $744 forward 7 unknown #
point $-1 -63.85448774681845 -15.79701509529418 14.382178338416365 #
point $-1 -59.696365873634939 -15.79701509529418 14.382178338416365 #
edge $-1 $745 1 $745 0 $411 $-1 forward 7 unknown #
vertex $-1 $412 $746 #
ellipse-curve $-1 -61.068320020835905 -13.922733152104158 11.596010580597483 -0.70710678939079041 0 0.70710677298230451 0.35355338649115226 0 0.35355339469539521 1 I I #
point $-1 -61.421873423735541 -13.922733152104158 12.656670748275182 #
edge $-1 $747 1 $747 0 $415 $-1 forward 7 unknown #
vertex $-1 $416 $748 #
ellipse-curve $-1 -61.068320020835905 -11.11131023731912 11.596010580597483 -0.70710678939079041 0 0.70710677298230451 0.35355338649115226 0 0.35355339469539521 1 I I #
point $-1 -61.421873423735541 -11.11131023731912 12.656670748275182 #
loop $-1 $-1 $427 $419 #
plane-surface $-1 -63.85448774681845 0 0 1 0 0 0 0 -1 forward_v I I I I #
coedge $-1 $596 $422 $424 $600 reversed $266 $-1 #
coedge $-1 $422 $595 $749 $750 reversed $266 $-1 #
coedge $-1 $430 $425 $422 $598 forward $420 $-1 #
edge $-1 $601 -17.382819818620639 $751 -13.224697945437129 $597 $752 forward 7 unknown #
coedge $-1 $424 $423 $604 $753 reversed $167 $-1 #
edge $-1 $754 0 $601 5.8804724152848271 $595 $755 forward 7 unknown #
vertex $-1 $426 $756 #
straight-curve $-1 -59.696365873634939 0.56486982810545783 14.382178338416365 0 1 0 I I #
coedge $-1 $749 $427 $430 $608 reversed $593 $-1 #
coedge $-1 $427 $749 $599 $753 forward $593 $-1 #
vertex $-1 $428 $757 #
straight-curve $-1 -63.85448774681845 -2.1502537443716268 50.263968955462495 0 0 1 I I #
straight-curve $-1 -63.85448774681845 -2.1502537443716268 10.224056368743206 -0.70710677298230451 0 -0.70710678939079041 I I #
edge $-1 $751 -4.4097330567934581 $431 2.1502537443716268 $603 $758 forward 7 unknown #
point $-1 -63.85448774681845 -2.1502537443716268 14.382178338416365 #
point $-1 -59.696365873634939 -2.1502537443716268 14.382178338416365 #
edge $-1 $759 1 $759 0 $434 $-1 forward 7 unknown #
vertex $-1 $435 $760 #
ellipse-curve $-1 -61.068320020835905 -0.2759718011816048 11.596010580597483 -0.70710678939079041 0 0.70710677298230451 0.35355338649115226 0 0.35355339469539521 1 I I #
point $-1 -61.421873423735541 -0.2759718011816048 12.656670748275182 #
edge $-1 $761 1 $761 0 $438 $-1 forward 7 unknown #
vertex $-1 $439 $762 #
ellipse-curve $-1 -61.068320020835905 2.5354511136034361 11.596010580597483 -0.70710678939079041 0 0.70710677298230451 0.35355338649115226 0 0.35355339469539521 1 I I #
point $-1 -61.421873423735541 2.5354511136034361 12.656670748275182 #
loop $-1 $-1 $450 $442 #
plane-surface $-1 -63.85448774681845 0 0 1 0 0 0 0 -1 forward_v I I I I #
coedge $-1 $622 $445 $447 $626 reversed $288 $-1 #
coedge $-1 $445 $621 $763 $764 reversed $288 $-1 #
coedge $-1 $453 $448 $445 $624 forward $443 $-1 #
edge $-1 $627 -17.382819818620639 $765 -13.224697945437129 $623 $766 forward 7 unknown #
coedge $-1 $447 $446 $630 $767 reversed $181 $-1 #
edge $-1 $768 0 $627 5.8804724152848271 $621 $769 forward 7 unknown #
vertex $-1 $449 $770 #
straight-curve $-1 -59.696365873634939 7.3882505035667343 14.382178338416365 0 1 0 I I #
coedge $-1 $763 $450 $453 $634 reversed $619 $-1 #
coedge $-1 $450 $763 $625 $767 forward $619 $-1 #
vertex $-1 $451 $771 #
straight-curve $-1 -63.85448774681845 11.496507606550926 50.263968955462495 0 0 1 I I #
straight-curve $-1 -63.85448774681845 11.496507606550926 10.224056368743206 -0.70710677298230451 0 -0.70710678939079041 I I #
edge $-1 $765 -18.056494407716009 $454 -11.496507606550926 $629 $772 forward 7 unknown #
point $-1 -63.85448774681845 11.496507606550926 14.382178338416365 #
point $-1 -59.696365873634939 11.496507606550926 14.382178338416365 #
edge $-1 $773 1 $773 0 $457 $-1 forward 7 unknown #
vertex $-1 $458 $774 #
ellipse-curve $-1 -61.068320020835905 13.370789549740948 11.596010580597483 -0.70710678939079041 0 0.70710677298230451 0.35355338649115226 0 0.35355339469539521 1 I I #
point $-1 -61.421873423735541 13.370789549740948 12.656670748275182 #
edge $-1 $775 1 $775 0 $461 $-1 forward 7 unknown #
vertex $-1 $462 $776 #
ellipse-curve $-1 -61.068320020835905 16.182212464525989 11.596010580597483 -0.70710678939079041 0 0.70710677298230451 0.35355338649115226 0 0.35355339469539521 1 I I #
point $-1 -61.421873423735541 16.182212464525989 12.656670748275182 #
loop $-1 $-1 $473 $465 #
plane-surface $-1 -63.85448774681845 0 0 1 0 0 0 0 -1 forward_v I I I I #
coedge $-1 $648 $468 $470 $652 reversed $310 $-1 #
coedge $-1 $468 $647 $777 $778 reversed $310 $-1 #
coedge $-1 $476 $471 $468 $650 forward $466 $-1 #
edge $-1 $653 -17.382819818620639 $779 -13.224697945437129 $649 $780 forward 7 unknown #
coedge $-1 $470 $469 $656 $781 reversed $195 $-1 #
edge $-1 $782 0 $653 5.8804724152848271 $647 $783 forward 7 unknown #
vertex $-1 $472 $784 #
straight-curve $-1 -59.696365873634939 14.211631179028014 14.382178338416365 0 1 0 I I #
coedge $-1 $777 $473 $476 $660 reversed $645 $-1 #
coedge $-1 $473 $777 $651 $781 forward $645 $-1 #
vertex $-1 $474 $785 #
straight-curve $-1 -63.85448774681845 25.143268957473488 50.263968955462495 0 0 1 I I #
straight-curve $-1 -63.85448774681845 25.143268957473488 10.224056368743206 -0.70710677298230451 0 -0.70710678939079041 I I #
edge $-1 $779 -31.703255758638569 $477 -25.143268957473488 $655 $786 forward 7 unknown #
point $-1 -63.85448774681845 25.143268957473488 14.382178338416365 #
point $-1 -59.696365873634939 25.143268957473488 14.382178338416365 #
edge $-1 $787 1 $787 0 $480 $-1 forward 7 unknown #
vertex $-1 $481 $788 #
ellipse-curve $-1 -61.068320020835905 27.017550900663501 11.596010580597483 -0.70710678939079041 0 0.70710677298230451 0.35355338649115226 0 0.35355339469539521 1 I I #
point $-1 -61.421873423735541 27.017550900663501 12.656670748275182 #
edge $-1 $789 1 $789 0 $484 $-1 forward 7 unknown #
vertex $-1 $485 $790 #
ellipse-curve $-1 -61.068320020835905 29.828973815448542 11.596010580597483 -0.70710678939079041 0 0.70710677298230451 0.35355338649115226 0 0.35355339469539521 1 I I #
point $-1 -61.421873423735541 29.828973815448542 12.656670748275182 #
loop $-1 $-1 $496 $488 #
plane-surface $-1 63.85448774681845 0 0 -1 0 0 0 0 1 forward_v I I I I #
coedge $-1 $674 $491 $493 $678 reversed $332 $-1 #
coedge $-1 $491 $673 $791 $792 reversed $332 $-1 #
coedge $-1 $499 $494 $491 $676 forward $489 $-1 #
edge $-1 $679 7.266720978087335 $793 10.080756084323426 $675 $794 forward 7 unknown #
coedge $-1 $493 $492 $682 $795 reversed $209 $-1 #
edge $-1 $796 -127.70897549363694 $679 -122.24523346258106 $673 $797 forward 7 unknown #
vertex $-1 $495 $798 #
straight-curve $-1 61.040452640582345 -3.0927918627406505 14.382178338416367 0 -1 0 I I #
coedge $-1 $791 $496 $499 $686 reversed $671 $-1 #
coedge $-1 $496 $791 $677 $795 forward $671 $-1 #
vertex $-1 $497 $799 #
straight-curve $-1 63.85448774681845 2.1694778696671424 92.470889654369486 0 0 1 I I #
straight-curve $-1 -1.9204954749073551 2.1694778696671424 119.1667960870132 0.51503806187062418 0 -0.85716730853699208 I I #
edge $-1 $793 -14.540645320629745 $500 2.1694778696671424 $681 $800 forward 7 unknown #
point $-1 63.85448774681845 2.1694778696671424 14.382178338416365 #
point $-1 61.040452640582359 2.1694778696671424 14.382178338416367 #
edge $-1 $801 1 $801 0 $503 $-1 forward 7 unknown #
vertex $-1 $504 $802 #
ellipse-curve $-1 61.431698026871231 -11.198620682570368 11.430170340845038 0.85716730853699208 0 0.51503806187062418 0.51503806187062418 0 -0.85716730853699208 1 I I #
point $-1 62.962508255571031 -11.198620682570368 11.183340504229076 #
edge $-1 $803 1 $803 0 $507 $-1 forward 7 unknown #
vertex $-1 $508 $804 #
ellipse-curve $-1 61.431698026871231 -6.1855837254813011 11.430170340845038 0.85716730853699208 0 0.51503806187062418 0.51503806187062418 0 -0.85716730853699208 1 I I #
point $-1 62.962508255571031 -6.1855837254813011 11.183340504229076 #
edge $-1 $805 1 $805 0 $511 $-1 forward 7 unknown #
vertex $-1 $512 $806 #
ellipse-curve $-1 61.431698026871231 -1.1725467683922375 11.430170340845038 0.85716730853699208 0 0.51503806187062418 0.51503806187062418 0 -0.85716730853699208 1 I I #
point $-1 62.962508255571031 -1.1725467683922375 11.183340504229076 #
plane-surface $-1 63.85448774681845 0 0 -1 0 0 0 0 1 forward_v I I I I #
coedge $-1 $520 $518 $522 $706 reversed $361 $-1 #
edge $-1 $533 -14.382178338416365 $708 14.382178338416365 $532 $807 forward 7 unknown #
vertex $-1 $706 $808 #
straight-curve $-1 -63.85448774681845 -36.059165330044841 0 0 0 -1 I I #
edge $-1 $704 -36.059165330044841 $708 36.059165330044841 $702 $809 forward 7 unknown #
straight-curve $-1 0 -36.059165330044841 -14.382178338416365 -1 0 0 I I #
vertex $-1 $525 $810 #
straight-curve $-1 0 36.059165330044841 -14.382178338416365 1 0 0 I I #
point $-1 63.85448774681845 36.059165330044841 -14.382178338416365 #
point $-1 63.85448774681845 -36.059165330044841 -14.382178338416365 #
straight-curve $-1 -63.85448774681845 0 14.382178338416365 0 -1 0 I I #
point $-1 -63.85448774681845 36.059165330044841 14.382178338416365 #
point $-1 -63.85448774681845 -36.059165330044841 14.382178338416365 #
straight-curve $-1 63.85448774681845 -36.059165330044841 0 0 0 -1 I I #
straight-curve $-1 63.85448774681845 36.059165330044841 0 0 0 -1 I I #
loop $-1 $-1 $548 $542 #
plane-surface $-1 0 -36.059165330044841 0 0 1 0 0 0 1 forward_v I I I I #
coedge $-1 $559 $550 $546 $721 forward $543 $-1 #
edge $-1 $725 -22.006142830858515 $554 -6.0999021675141325 $545 $811 forward 7 unknown #
edge $-1 $555 6.0999021675141325 $724 22.006142830858515 $719 $812 forward 7 unknown #
coedge $-1 $557 $548 $562 $734 reversed $717 $-1 #
coedge $-1 $548 $557 $559 $732 reversed $717 $-1 #
vertex $-1 $732 $813 #
vertex $-1 $549 $814 #
straight-curve $-1 -35.090131069985716 -36.059165330044841 0 0 0 1 I I #
straight-curve $-1 -19.006524322935242 -20.152924666700457 -14.382178338416365 1 0 0 I I #
straight-curve $-1 -19.006524322935242 -20.152924666700457 14.382178338416365 -1 0 0 I I #
point $-1 -35.090131069985716 -20.152924666700457 14.382178338416365 #
point $-1 -35.090131069985716 -20.152924666700457 -14.382178338416365 #
straight-curve $-1 -40.935966221755251 -36.059165330044841 0 0 0 -1 I I #
edge $-1 $724 35.090131069985716 $560 40.935966221755251 $723 $815 forward 7 unknown #
point $-1 -40.935966221755251 -36.059165330044841 -14.382178338416365 #
edge $-1 $563 -40.935966221755251 $725 -35.090131069985716 $722 $816 forward 7 unknown #
point $-1 -40.935966221755251 -36.059165330044841 14.382178338416365 #
edge $-1 $737 35.881790617046128 $740 40.039912586719289 $568 $817 forward 7 unknown #
vertex $-1 $582 $818 #
straight-curve $-1 -77.079185692255578 -9.2370282941290949 14.382178338416367 -1 0 0 I I #
edge $-1 $740 2.9785174467732762 $579 9.538504247938361 $578 $819 forward 7 unknown #
vertex $-1 $739 $820 #
straight-curve $-1 -63.85448774681845 -9.2370282941290949 10.224056368743206 0.70710677298230451 0 0.70710678939079041 I I #
point $-1 -59.696365873634939 -9.2370282941290949 14.382178338416365 #
point $-1 -63.85448774681845 -15.79701509529418 10.224056368743206 #
straight-curve $-1 -63.85448774681845 0 14.382178338416365 0 -1 0 I I #
vertex $-1 $585 $821 #
point $-1 -60.714766634344755 -13.922733152104158 11.949563975292877 #
vertex $-1 $589 $822 #
point $-1 -60.714766634344755 -11.11131023731912 11.949563975292877 #
coedge $-1 $604 $603 $596 $750 forward $593 $-1 #
edge $-1 $751 35.881790617046128 $754 40.039912586719289 $749 $823 forward 7 unknown #
vertex $-1 $608 $824 #
straight-curve $-1 -77.079185692255578 4.4097330567934581 14.382178338416367 -1 0 0 I I #
edge $-1 $754 -3.8448632286880002 $605 2.7151235724770846 $604 $825 forward 7 unknown #
vertex $-1 $753 $826 #
straight-curve $-1 -63.85448774681845 4.4097330567934581 10.224056368743206 0.70710677298230451 0 0.70710678939079041 I I #
point $-1 -59.696365873634939 4.4097330567934581 14.382178338416365 #
point $-1 -63.85448774681845 -2.1502537443716268 10.224056368743206 #
straight-curve $-1 -63.85448774681845 0 14.382178338416365 0 -1 0 I I #
vertex $-1 $611 $827 #
point $-1 -60.714766634344755 -0.2759718011816048 11.949563975292877 #
vertex $-1 $615 $828 #
point $-1 -60.714766634344755 2.5354511136034361 11.949563975292877 #
coedge $-1 $630 $629 $622 $764 forward $619 $-1 #
edge $-1 $765 35.881790617046128 $768 40.039912586719289 $763 $829 forward 7 unknown #
vertex $-1 $634 $830 #
straight-curve $-1 -77.079185692255578 18.056494407716009 14.382178338416367 -1 0 0 I I #
edge $-1 $768 -10.668243904149275 $631 -4.1082571029841919 $630 $831 forward 7 unknown #
vertex $-1 $767 $832 #
straight-curve $-1 -63.85448774681845 18.056494407716009 10.224056368743206 0.70710677298230451 0 0.70710678939079041 I I #
point $-1 -59.696365873634939 18.056494407716009 14.382178338416365 #
point $-1 -63.85448774681845 11.496507606550926 10.224056368743206 #
straight-curve $-1 -63.85448774681845 0 14.382178338416365 0 -1 0 I I #
vertex $-1 $637 $833 #
point $-1 -60.714766634344755 13.370789549740948 11.949563975292877 #
vertex $-1 $641 $834 #
point $-1 -60.714766634344755 16.182212464525989 11.949563975292877 #
coedge $-1 $656 $655 $648 $778 forward $645 $-1 #
edge $-1 $779 35.881790617046128 $782 40.039912586719289 $777 $835 forward 7 unknown #
vertex $-1 $660 $836 #
straight-curve $-1 -77.079185692255578 31.703255758638569 14.382178338416367 -1 0 0 I I #
edge $-1 $782 -17.491624579610555 $657 -10.931637778445474 $656 $837 forward 7 unknown #
vertex $-1 $781 $838 #
straight-curve $-1 -63.85448774681845 31.703255758638569 10.224056368743206 0.70710677298230451 0 0.70710678939079041 I I #
point $-1 -59.696365873634939 31.703255758638569 14.382178338416365 #
point $-1 -63.85448774681845 25.143268957473488 10.224056368743206 #
straight-curve $-1 -63.85448774681845 0 14.382178338416365 0 -1 0 I I #
vertex $-1 $663 $839 #
point $-1 -60.714766634344755 27.017550900663501 11.949563975292877 #
vertex $-1 $667 $840 #
point $-1 -60.714766634344755 29.828973815448542 11.949563975292877 #
coedge $-1 $682 $681 $674 $792 forward $671 $-1 #
edge $-1 $793 78.08871131595312 $796 82.772052367253721 $791 $841 forward 7 unknown #
vertex $-1 $686 $842 #
straight-curve $-1 53.773731662495024 -14.540645320629745 14.382178338416367 1 0 0 I I #
edge $-1 $796 -11.447853457889094 $683 5.2622697324077929 $682 $843 forward 7 unknown #
vertex $-1 $795 $844 #
straight-curve $-1 -1.9204954749073551 -14.540645320629745 119.1667960870132 -0.51503806187062418 0 0.85716730853699208 I I #
point $-1 61.040452640582359 -14.540645320629745 14.382178338416367 #
point $-1 63.85448774681845 2.1694778696671424 9.6988372871157651 #
straight-curve $-1 63.85448774681845 0 14.382178338416365 0 1 0 I I #
vertex $-1 $689 $845 #
point $-1 61.946736088741858 -11.198620682570368 10.573003032308046 #
vertex $-1 $693 $846 #
point $-1 61.946736088741858 -6.1855837254813011 10.573003032308046 #
vertex $-1 $697 $847 #
point $-1 61.946736088741858 -1.1725467683922375 10.573003032308046 #
straight-curve $-1 -63.85448774681845 36.059165330044841 0 0 0 -1 I I #
point $-1 -63.85448774681845 -36.059165330044841 -14.382178338416365 #
straight-curve $-1 -63.85448774681845 0 -14.382178338416365 0 1 0 I I #
point $-1 -63.85448774681845 36.059165330044841 -14.382178338416365 #
straight-curve $-1 -35.090131069985716 -14.053022499186325 14.382178338416365 0 1 0 I I #
straight-curve $-1 -35.090131069985716 -14.053022499186325 -14.382178338416365 0 -1 0 I I #
point $-1 -35.090131069985716 -36.059165330044841 -14.382178338416365 #
point $-1 -35.090131069985716 -36.059165330044841 14.382178338416365 #
straight-curve $-1 0 -36.059165330044841 -14.382178338416365 -1 0 0 I I #
straight-curve $-1 0 -36.059165330044841 14.382178338416365 1 0 0 I I #
straight-curve $-1 -63.85448774681845 -9.2370282941290949 50.263968955462495 0 0 -1 I I #
point $-1 -63.85448774681845 -9.2370282941290949 14.382178338416365 #
straight-curve $-1 -63.85448774681845 -6.2585108473558186 10.224056368743209 0 -1 0 I I #
point $-1 -63.85448774681845 -9.2370282941290949 10.224056368743206 #
point $-1 -60.714766626140509 -13.922733152104158 11.242457194106329 #
point $-1 -60.714766626140509 -11.11131023731912 11.242457194106329 #
straight-curve $-1 -63.85448774681845 4.4097330567934581 50.263968955462495 0 0 -1 I I #
point $-1 -63.85448774681845 4.4097330567934581 14.382178338416365 #
straight-curve $-1 -63.85448774681845 0.56486982810545783 10.224056368743209 0 -1 0 I I #
point $-1 -63.85448774681845 4.4097330567934581 10.224056368743206 #
point $-1 -60.714766626140509 -0.2759718011816048 11.242457194106329 #
point $-1 -60.714766626140509 2.5354511136034361 11.242457194106329 #
straight-curve $-1 -63.85448774681845 18.056494407716009 50.263968955462495 0 0 -1 I I #
point $-1 -63.85448774681845 18.056494407716009 14.382178338416365 #
straight-curve $-1 -63.85448774681845 7.3882505035667343 10.224056368743209 0 -1 0 I I #
point $-1 -63.85448774681845 18.056494407716009 10.224056368743206 #
point $-1 -60.714766626140509 13.370789549740948 11.242457194106329 #
point $-1 -60.714766626140509 16.182212464525989 11.242457194106329 #
straight-curve $-1 -63.85448774681845 31.703255758638569 50.263968955462495 0 0 -1 I I #
point $-1 -63.85448774681845 31.703255758638569 14.382178338416365 #
straight-curve $-1 -63.85448774681845 14.211631179028014 10.224056368743209 0 -1 0 I I #
point $-1 -63.85448774681845 31.703255758638569 10.224056368743206 #
point $-1 -60.714766626140509 27.017550900663501 11.242457194106329 #
point $-1 -60.714766626140509 29.828973815448542 11.242457194106329 #
straight-curve $-1 63.85448774681845 -14.540645320629745 92.470889654369486 0 0 -1 I I #
point $-1 63.85448774681845 -14.540645320629745 14.382178338416365 #
straight-curve $-1 63.85448774681845 -3.0927918627406505 9.6988372871157438 0 1 0 I I #
point $-1 63.85448774681845 -14.540645320629745 9.6988372871157651 #
point $-1 60.574530718334245 -11.198620682570368 10.915132278974415 #
point $-1 60.574530718334245 -6.1855837254813011 10.915132278974415 #
point $-1 60.574530718334245 -1.1725467683922375 10.915132278974415 #
End-of-ACIS-data 