500 0 5 0           
7 Unknown 11 ACIS 5.0 NT 24 Fri Mar 26 16:36:15 1999 
-1 9.9999999999999995e-007 1e-010 
body $-1 $5 $-1 $6 #
body $-1 $7 $-1 $8 #
body $-1 $9 $-1 $10 #
body $-1 $11 $-1 $12 #
body $-1 $13 $-1 $14 #
lump $-1 $-1 $15 $0 #
transform $-1 1 0 0 0 1 0 0 0 1 68.877834406567587 31.109061632635164 14.941027119701815 1 rotate no_reflect no_shear #
lump $-1 $-1 $16 $1 #
transform $-1 1 0 0 0 1 0 0 0 1 68.877834406567587 31.109061632635164 14.941027119701815 1 rotate no_reflect no_shear #
lump $-1 $-1 $17 $2 #
transform $-1 1 0 0 0 1 0 0 0 1 68.877834406567587 31.109061632635164 14.941027119701815 1 rotate no_reflect no_shear #
lump $-1 $-1 $18 $3 #
transform $-1 1 0 0 0 1 0 0 0 1 68.877834406567587 31.109061632635164 14.941027119701815 1 rotate no_reflect no_shear #
lump $-1 $-1 $19 $4 #
transform $-1 1 0 0 0 1 0 0 0 1 68.877834406567587 31.109061632635164 14.941027119701815 1 rotate no_reflect no_shear #
shell $-1 $-1 $-1 $20 $-1 $5 #
shell $-1 $-1 $-1 $21 $-1 $7 #
shell $-1 $-1 $-1 $22 $-1 $9 #
shell $-1 $-1 $-1 $23 $-1 $11 #
shell $-1 $-1 $-1 $24 $-1 $13 #
face $-1 $25 $26 $15 $-1 $27 forward single #
face $-1 $28 $29 $16 $-1 $30 forward single #
face $-1 $31 $32 $17 $-1 $33 forward single #
face $-1 $34 $35 $18 $-1 $36 reversed single #
face $-1 $37 $38 $19 $-1 $39 reversed single #
face $-1 $40 $41 $15 $-1 $42 reversed single #
loop $-1 $-1 $43 $20 #
plane-surface $-1 0 0 14.941027119701815 0 0 1 1 0 0 forward_v I I I I #
face $-1 $44 $45 $16 $-1 $46 reversed single #
loop $-1 $-1 $47 $21 #
plane-surface $-1 0 -40.424675995399362 12.539253902217528 0 0 1 1 0 0 forward_v I I I I #
face $-1 $48 $49 $17 $-1 $50 forward single #
loop $-1 $-1 $51 $22 #
plane-surface $-1 58.681958256991635 28.065251217924931 195.03909483119014 0 -1 0 -0.66913061440640931 0 -0.74314481823134659 forward_v I I I I #
face $-1 $52 $53 $18 $-1 $54 reversed single #
loop $-1 $55 $56 $23 #
cone-surface $-1 59.999466375397091 20.885946987595073 6.7674525545537723 -0.66913061440640931 0 -0.74314481823134659 0.74314481823134659 0 -0.66913061440640931 1 I I 0 1 1 forward I I I I #
face $-1 $57 $58 $19 $-1 $59 reversed single #
loop $-1 $60 $61 $24 #
cone-surface $-1 59.999466375397091 25.193529525792986 6.7674525545537723 -0.66913061440640931 0 -0.74314481823134659 0.74314481823134659 0 -0.66913061440640931 1 I I 0 1 1 forward I I I I #
face $-1 $62 $63 $15 $-1 $64 reversed single #
loop $-1 $-1 $65 $25 #
plane-surface $-1 0 0 -14.941027119701815 0 0 1 1 0 0 forward_v I I I I #
coedge $-1 $66 $67 $68 $69 forward $26 $-1 #
face $-1 $70 $71 $16 $-1 $72 reversed single #
loop $-1 $-1 $73 $28 #
plane-surface $-1 0 -40.424675995399362 5.258837519593822 0 0 1 1 0 0 forward_v I I I I #
coedge $-1 $74 $75 $76 $77 forward $29 $-1 #
face $-1 $78 $79 $17 $-1 $80 forward single #
loop $-1 $-1 $81 $31 #
plane-surface $-1 -33.494577053907335 23.039738256694033 92.666683370715219 0.66913061440640931 0 0.74314481823134659 0.74314481823134659 0 -0.66913061440640931 forward_v I I I I #
coedge $-1 $82 $83 $84 $85 reversed $32 $-1 #
face $-1 $86 $87 $18 $-1 $88 forward single #
loop $-1 $89 $90 $34 #
cone-surface $-1 58.811196429363136 20.885946987595073 5.4477451102328445 -0.66913061440640931 0 -0.74314481823134659 0.3715724091156733 0 -0.33456530720320465 1 I I -0.70710678118654746 0.70710678118654746 0.5 forward I I I I #
loop $-1 $-1 $91 $23 #
coedge $-1 $56 $56 $92 $93 reversed $35 $-1 #
face $-1 $94 $95 $19 $-1 $96 reversed single #
loop $-1 $97 $98 $37 #
cone-surface $-1 58.811196429363136 25.193529525792986 5.4477451102328445 -0.66913061440640931 0 -0.74314481823134659 0.3715724091156733 0 -0.33456530720320465 1 I I -0.70710678118654746 0.70710678118654746 0.5 forward I I I I #
loop $-1 $-1 $99 $24 #
coedge $-1 $61 $61 $100 $101 reversed $38 $-1 #
face $-1 $102 $103 $15 $-1 $104 reversed single #
loop $-1 $-1 $105 $40 #
plane-surface $-1 0 -31.109061632635164 0 0 1 0 0 0 1 forward_v I I I I #
coedge $-1 $106 $107 $108 $109 forward $41 $-1 #
coedge $-1 $110 $43 $111 $112 forward $26 $-1 #
coedge $-1 $43 $110 $113 $114 forward $26 $-1 #
coedge $-1 $115 $116 $43 $69 reversed $117 $-1 #
edge $-1 $118 -31.109061632635164 $119 31.109061632635164 $68 $120 forward 7 unknown #
face $-1 $121 $122 $16 $-1 $123 reversed single #
loop $-1 $-1 $124 $44 #
plane-surface $-1 0 -49.740290358163563 8.8990457109056749 0 1 0 0 0 1 forward_v I I I I #
coedge $-1 $125 $126 $127 $128 forward $45 $-1 #
coedge $-1 $129 $47 $130 $131 reversed $29 $-1 #
coedge $-1 $47 $129 $132 $133 forward $29 $-1 #
coedge $-1 $134 $135 $47 $77 reversed $136 $-1 #
edge $-1 $137 -9.315614362764201 $138 9.315614362764201 $76 $139 forward 7 unknown #
face $-1 $140 $141 $17 $-1 $142 forward single #
loop $-1 $-1 $143 $48 #
plane-surface $-1 58.681958256991635 18.014225295463135 195.03909483119014 0 1 0 0.66913061440640931 0 0.74314481823134659 forward_v I I I I #
coedge $-1 $144 $145 $146 $147 reversed $49 $-1 #
coedge $-1 $83 $51 $145 $148 forward $32 $-1 #
coedge $-1 $51 $82 $149 $150 reversed $32 $-1 #
coedge $-1 $151 $146 $51 $85 forward $141 $-1 #
edge $-1 $152 23.487528493392276 $153 39.536855278071769 $84 $154 forward 7 unknown #
face $-1 $155 $156 $18 $-1 $157 forward single #
loop $-1 $-1 $158 $52 #
plane-surface $-1 58.681958256991635 28.065251217924931 195.03909483119014 0 -1 0 -0.66913061440640931 0 -0.74314481823134659 forward_v I I I I #
loop $-1 $-1 $159 $34 #
coedge $-1 $90 $90 $91 $160 forward $53 $-1 #
coedge $-1 $91 $91 $90 $160 reversed $55 $-1 #
coedge $-1 $92 $92 $56 $93 forward $156 $-1 #
edge $-1 $161 0 $161 6.2831853071796004 $92 $162 forward 7 unknown #
face $-1 $163 $164 $19 $-1 $165 reversed single #
loop $-1 $166 $167 $57 #
cone-surface $-1 59.999466375397091 20.885946987595073 6.7674525545537723 -0.66913061440640931 0 -0.74314481823134659 0.74314481823134659 0 -0.66913061440640931 1 I I 0 1 1 forward I I I I #
loop $-1 $-1 $168 $37 #
coedge $-1 $98 $98 $99 $169 forward $58 $-1 #
coedge $-1 $99 $99 $98 $169 reversed $60 $-1 #
coedge $-1 $100 $100 $61 $101 forward $170 $-1 #
edge $-1 $171 0 $171 6.2831853071796004 $100 $172 forward 7 unknown #
face $-1 $173 $174 $15 $-1 $175 reversed single #
loop $-1 $-1 $176 $62 #
plane-surface $-1 -68.877834406567587 0 0 1 0 0 0 0 -1 forward_v I I I I #
coedge $-1 $177 $113 $178 $179 forward $63 $-1 #
coedge $-1 $180 $65 $177 $181 forward $41 $-1 #
coedge $-1 $65 $180 $182 $183 forward $41 $-1 #
coedge $-1 $116 $115 $65 $109 reversed $117 $-1 #
edge $-1 $184 -31.109061632635164 $185 31.109061632635164 $108 $186 forward 7 unknown #
coedge $-1 $67 $66 $187 $188 forward $26 $-1 #
coedge $-1 $189 $190 $66 $112 reversed $174 $-1 #
edge $-1 $119 -68.877834406567587 $191 68.877834406567587 $111 $192 forward 7 unknown #
coedge $-1 $105 $193 $67 $114 reversed $63 $-1 #
edge $-1 $194 -68.877834406567587 $118 68.877834406567587 $113 $195 forward 7 unknown #
coedge $-1 $108 $68 $193 $196 forward $117 $-1 #
coedge $-1 $68 $108 $189 $197 reversed $117 $-1 #
loop $-1 $-1 $115 $173 #
vertex $-1 $69 $198 #
vertex $-1 $69 $199 #
straight-curve $-1 68.877834406567587 0 14.941027119701815 0 1 0 I I #
face $-1 $200 $201 $16 $-1 $123 reversed single #
loop $-1 $-1 $202 $70 #
plane-surface $-1 0 -31.109061632635164 0 0 1 0 0 0 1 forward_v I I I I #
coedge $-1 $203 $132 $204 $205 forward $71 $-1 #
coedge $-1 $206 $73 $203 $207 forward $45 $-1 #
coedge $-1 $73 $206 $202 $208 reversed $45 $-1 #
coedge $-1 $209 $134 $73 $128 reversed $136 $-1 #
edge $-1 $210 -9.315614362764201 $211 9.315614362764201 $127 $212 forward 7 unknown #
coedge $-1 $75 $74 $213 $214 forward $29 $-1 #
coedge $-1 $215 $216 $74 $131 forward $201 $-1 #
edge $-1 $217 -68.877834406567587 $138 68.877834406567587 $130 $218 forward 7 unknown #
coedge $-1 $124 $219 $75 $133 reversed $71 $-1 #
edge $-1 $220 -68.877834406567587 $137 68.877834406567587 $132 $221 forward 7 unknown #
coedge $-1 $127 $76 $219 $222 forward $136 $-1 #
coedge $-1 $76 $223 $215 $224 forward $136 $-1 #
loop $-1 $-1 $135 $225 #
vertex $-1 $77 $226 #
vertex $-1 $77 $227 #
straight-curve $-1 68.877834406567587 -40.424675995399362 12.539253902217528 0 1 0 I I #
face $-1 $228 $229 $17 $-1 $230 forward single #
loop $-1 $-1 $231 $78 #
plane-surface $-1 0 0 14.941027119701815 0 0 1 1 0 0 forward_v I I I I #
coedge $-1 $232 $233 $231 $234 reversed $79 $-1 #
coedge $-1 $235 $81 $233 $236 reversed $49 $-1 #
coedge $-1 $81 $235 $82 $148 reversed $49 $-1 #
coedge $-1 $84 $231 $81 $147 forward $141 $-1 #
edge $-1 $237 6.4943561671161181 $152 16.545382089577913 $146 $238 forward 7 unknown #
edge $-1 $152 116.1591691929451 $239 137.75566881313517 $82 $240 forward 7 unknown #
coedge $-1 $241 $242 $83 $150 forward $243 $-1 #
edge $-1 $153 82.578520295893256 $239 97.029399355778821 $149 $244 forward 7 unknown #
coedge $-1 $245 $84 $242 $246 forward $141 $-1 #
vertex $-1 $147 $247 #
vertex $-1 $246 $248 #
straight-curve $-1 29.340979128495817 28.065251217924931 14.941027119701815 1 0 0 I I #
face $-1 $249 $250 $18 $-1 $251 forward single #
loop $-1 $252 $92 $86 #
plane-surface $-1 -33.494577053907335 23.039738256694033 92.666683370715219 0.66913061440640931 0 0.74314481823134659 0.74314481823134659 0 -0.66913061440640931 forward_v I I I I #
coedge $-1 $253 $254 $255 $256 reversed $87 $-1 #
coedge $-1 $159 $159 $-1 $257 forward $89 $-1 #
edge $-1 $258 0 $258 6.2831853071796004 $90 $259 forward 7 unknown #
vertex $-1 $93 $260 #
ellipse-curve $-1 60.85317101422784 20.885946987595073 7.7155875897590258 -0.66913061440640931 0 -0.74314481823134659 0.74314481823134659 0 -0.66913061440640931 1 I I #
face $-1 $261 $262 $19 $-1 $263 forward single #
loop $-1 $264 $265 $94 #
cone-surface $-1 58.811196429363136 20.885946987595073 5.4477451102328445 -0.66913061440640931 0 -0.74314481823134659 0.3715724091156733 0 -0.33456530720320465 1 I I -0.70710678118654746 0.70710678118654746 0.5 forward I I I I #
loop $-1 $-1 $266 $57 #
coedge $-1 $167 $167 $267 $268 reversed $95 $-1 #
coedge $-1 $168 $168 $-1 $269 forward $97 $-1 #
edge $-1 $270 0 $270 6.2831853071796004 $98 $271 forward 7 unknown #
loop $-1 $272 $100 $261 #
vertex $-1 $101 $273 #
ellipse-curve $-1 60.85317101422784 25.193529525792986 7.7155875897590258 -0.66913061440640931 0 -0.74314481823134659 0.74314481823134659 0 -0.66913061440640931 1 I I #
face $-1 $-1 $117 $15 $-1 $274 reversed single #
loop $-1 $-1 $189 $102 #
plane-surface $-1 0 31.109061632635164 0 0 -1 0 0 0 -1 forward_v I I I I #
coedge $-1 $275 $187 $190 $276 forward $103 $-1 #
coedge $-1 $193 $105 $106 $181 reversed $63 $-1 #
coedge $-1 $187 $275 $105 $179 reversed $103 $-1 #
edge $-1 $194 -14.941027119701815 $277 14.941027119701815 $178 $278 forward 7 unknown #
coedge $-1 $107 $106 $275 $279 forward $41 $-1 #
edge $-1 $185 -68.877834406567587 $277 68.877834406567587 $177 $280 forward 7 unknown #
coedge $-1 $190 $189 $107 $183 reversed $174 $-1 #
edge $-1 $281 -68.877834406567587 $184 68.877834406567587 $182 $282 forward 7 unknown #
vertex $-1 $109 $283 #
vertex $-1 $196 $284 #
straight-curve $-1 68.877834406567587 0 -14.941027119701815 0 -1 0 I I #
coedge $-1 $176 $178 $110 $188 reversed $103 $-1 #
edge $-1 $191 -31.109061632635164 $194 31.109061632635164 $187 $285 forward 7 unknown #
coedge $-1 $182 $111 $116 $197 forward $174 $-1 #
coedge $-1 $111 $182 $176 $276 reversed $174 $-1 #
vertex $-1 $112 $286 #
straight-curve $-1 0 31.109061632635164 14.941027119701815 -1 0 0 I I #
coedge $-1 $113 $177 $115 $196 reversed $63 $-1 #
vertex $-1 $188 $287 #
straight-curve $-1 0 -31.109061632635164 14.941027119701815 1 0 0 I I #
edge $-1 $118 -14.941027119701815 $185 14.941027119701815 $115 $288 forward 7 unknown #
edge $-1 $119 -14.941027119701815 $184 14.941027119701815 $116 $289 forward 7 unknown #
point $-1 68.877834406567587 -31.109061632635164 14.941027119701815 #
point $-1 68.877834406567587 31.109061632635164 14.941027119701815 #
face $-1 $290 $291 $16 $-1 $292 forward single #
loop $-1 $-1 $130 $121 #
coedge $-1 $293 $294 $126 $208 forward $122 $-1 #
coedge $-1 $219 $124 $125 $207 reversed $71 $-1 #
coedge $-1 $213 $295 $124 $205 reversed $296 $-1 #
edge $-1 $220 -3.6402081913118529 $297 3.6402081913118529 $204 $298 forward 7 unknown #
coedge $-1 $126 $125 $295 $299 forward $45 $-1 #
edge $-1 $211 -68.877834406567587 $297 68.877834406567587 $203 $300 forward 7 unknown #
edge $-1 $210 -68.877834406567587 $301 68.877834406567587 $202 $302 forward 7 unknown #
coedge $-1 $303 $127 $294 $304 forward $136 $-1 #
vertex $-1 $304 $305 #
vertex $-1 $222 $306 #
straight-curve $-1 68.877834406567587 -40.424675995399362 5.258837519593822 0 -1 0 I I #
coedge $-1 $307 $204 $129 $214 reversed $296 $-1 #
edge $-1 $217 -9.315614362764201 $220 9.315614362764201 $213 $308 forward 7 unknown #
coedge $-1 $309 $130 $135 $224 reversed $201 $-1 #
coedge $-1 $130 $309 $307 $310 forward $201 $-1 #
vertex $-1 $310 $311 #
straight-curve $-1 0 -31.109061632635164 12.539253902217528 1 0 0 I I #
coedge $-1 $132 $203 $134 $222 reversed $71 $-1 #
vertex $-1 $214 $312 #
straight-curve $-1 0 -49.740290358163563 12.539253902217528 1 0 0 I I #
edge $-1 $137 -3.6402081913118529 $211 3.6402081913118529 $134 $313 forward 7 unknown #
coedge $-1 $135 $314 $315 $316 reversed $136 $-1 #
edge $-1 $317 -14.941027119701815 $138 -12.539253902217528 $135 $318 forward 7 unknown #
face $-1 $-1 $136 $16 $-1 $319 reversed single #
point $-1 68.877834406567587 -49.740290358163563 12.539253902217528 #
point $-1 68.877834406567587 -31.109061632635161 12.539253902217528 #
face $-1 $320 $321 $17 $-1 $322 reversed single #
loop $-1 $-1 $323 $140 #
plane-surface $-1 0 -40.424675995399362 12.539253902217528 0 0 1 1 0 0 forward_v I I I I #
coedge $-1 $146 $324 $143 $234 forward $141 $-1 #
coedge $-1 $233 $143 $325 $326 reversed $79 $-1 #
coedge $-1 $143 $232 $144 $236 forward $79 $-1 #
edge $-1 $327 -39.536855278071769 $237 -23.487528493392276 $231 $328 forward 7 unknown #
coedge $-1 $145 $144 $241 $329 reversed $49 $-1 #
edge $-1 $330 -137.75566881313517 $237 -116.1591691929451 $233 $331 forward 7 unknown #
vertex $-1 $147 $332 #
straight-curve $-1 52.828507621888093 11.519869128347016 14.941027119701808 0 1 0 I I #
vertex $-1 $329 $333 #
straight-curve $-1 -33.494577053907335 28.065251217924931 92.666683370715219 0.74314481823134659 0 -0.66913061440640931 I I #
coedge $-1 $325 $149 $235 $329 forward $243 $-1 #
coedge $-1 $149 $334 $151 $246 reversed $243 $-1 #
loop $-1 $-1 $325 $335 #
straight-curve $-1 68.877834406567587 28.065251217924931 97.519547415595071 0 0 -1 I I #
coedge $-1 $336 $151 $337 $338 forward $141 $-1 #
edge $-1 $153 28.065251217924931 $339 31.109061632635164 $242 $340 forward 7 unknown #
point $-1 52.828507621888093 28.065251217924931 14.941027119701815 #
point $-1 68.877834406567587 28.065251217924931 14.941027119701815 #
face $-1 $341 $342 $18 $-1 $343 forward single #
loop $-1 $-1 $344 $155 #
plane-surface $-1 58.681958256991635 18.014225295463135 195.03909483119014 0 1 0 0.66913061440640931 0 0.74314481823134659 forward_v I I I I #
loop $-1 $-1 $345 $86 #
coedge $-1 $254 $158 $346 $347 forward $87 $-1 #
coedge $-1 $158 $253 $348 $349 reversed $87 $-1 #
coedge $-1 $350 $351 $158 $256 forward $342 $-1 #
edge $-1 $352 23.487528493392276 $353 39.536855278071769 $255 $354 forward 7 unknown #
edge $-1 $355 1 $355 0 $159 $-1 forward 7 unknown #
vertex $-1 $160 $356 #
ellipse-curve $-1 59.145761736566342 20.885946987595073 5.8193175193485178 0.66913061440640931 0 0.74314481823134659 0.74314481823134659 0 -0.66913061440640931 1 I I #
point $-1 61.596315832459183 20.885946987595073 7.0464569753526174 #
face $-1 $357 $170 $19 $-1 $358 forward single #
loop $-1 $-1 $359 $163 #
plane-surface $-1 58.681958256991635 28.065251217924931 195.03909483119014 0 -1 0 -0.66913061440640931 0 -0.74314481823134659 forward_v I I I I #
loop $-1 $-1 $360 $94 #
coedge $-1 $265 $265 $266 $361 forward $164 $-1 #
coedge $-1 $266 $266 $265 $361 reversed $166 $-1 #
coedge $-1 $267 $267 $167 $268 forward $272 $-1 #
edge $-1 $362 0 $362 6.2831853071796004 $267 $363 forward 7 unknown #
edge $-1 $364 1 $364 0 $168 $-1 forward 7 unknown #
vertex $-1 $169 $365 #
ellipse-curve $-1 59.145761736566342 25.193529525792986 5.8193175193485178 0.66913061440640931 0 0.74314481823134659 0.74314481823134659 0 -0.66913061440640931 1 I I #
loop $-1 $366 $267 $261 #
point $-1 61.596315832459183 25.193529525792986 7.0464569753526174 #
plane-surface $-1 68.877834406567587 0 0 -1 0 0 0 0 1 forward_v I I I I #
coedge $-1 $178 $176 $180 $279 reversed $103 $-1 #
edge $-1 $191 -14.941027119701815 $281 14.941027119701815 $190 $367 forward 7 unknown #
vertex $-1 $279 $368 #
straight-curve $-1 -68.877834406567587 -31.109061632635164 0 0 0 -1 I I #
edge $-1 $277 -31.109061632635164 $281 31.109061632635164 $275 $369 forward 7 unknown #
straight-curve $-1 0 -31.109061632635164 -14.941027119701815 -1 0 0 I I #
vertex $-1 $183 $370 #
straight-curve $-1 0 31.109061632635164 -14.941027119701815 1 0 0 I I #
point $-1 68.877834406567587 31.109061632635164 -14.941027119701815 #
point $-1 68.877834406567587 -31.109061632635164 -14.941027119701815 #
straight-curve $-1 -68.877834406567587 0 14.941027119701815 0 -1 0 I I #
point $-1 -68.877834406567587 31.109061632635164 14.941027119701815 #
point $-1 -68.877834406567587 -31.109061632635164 14.941027119701815 #
straight-curve $-1 68.877834406567587 -31.109061632635164 0 0 0 -1 I I #
straight-curve $-1 68.877834406567587 31.109061632635164 0 0 0 -1 I I #
face $-1 $371 $372 $16 $-1 $373 reversed single #
loop $-1 $-1 $315 $200 #
plane-surface $-1 0 0 14.941027119701815 0 0 1 1 0 0 forward_v I I I I #
coedge $-1 $374 $202 $375 $376 forward $122 $-1 #
coedge $-1 $202 $374 $209 $304 reversed $122 $-1 #
coedge $-1 $204 $375 $206 $299 reversed $296 $-1 #
loop $-1 $-1 $377 $371 #
vertex $-1 $299 $378 #
straight-curve $-1 -68.877834406567587 -49.740290358163563 8.8990457109056749 0 0 -1 I I #
edge $-1 $297 -9.315614362764201 $301 9.315614362764201 $295 $379 forward 7 unknown #
straight-curve $-1 0 -49.740290358163563 5.258837519593822 -1 0 0 I I #
vertex $-1 $376 $380 #
straight-curve $-1 0 -31.109061632635164 5.258837519593822 -1 0 0 I I #
coedge $-1 $314 $209 $381 $382 reversed $136 $-1 #
edge $-1 $210 -5.258837519593822 $383 14.941027119701815 $209 $318 forward 7 unknown #
point $-1 68.877834406567587 -31.109061632635161 5.258837519593822 #
point $-1 68.877834406567587 -49.740290358163563 5.258837519593822 #
coedge $-1 $384 $213 $216 $310 reversed $296 $-1 #
straight-curve $-1 -68.877834406567587 -40.424675995399362 12.539253902217528 0 -1 0 I I #
coedge $-1 $216 $215 $385 $386 reversed $201 $-1 #
edge $-1 $387 -14.941027119701815 $217 -12.539253902217528 $307 $388 forward 7 unknown #
point $-1 -68.877834406567587 -31.109061632635161 12.539253902217528 #
point $-1 -68.877834406567587 -49.740290358163563 12.539253902217528 #
straight-curve $-1 68.877834406567587 -49.740290358163563 8.8990457109056749 0 0 -1 I I #
coedge $-1 $223 $303 $389 $390 reversed $136 $-1 #
coedge $-1 $391 $385 $223 $316 forward $291 $-1 #
edge $-1 $317 -31.109061632635164 $392 31.109061632635164 $223 $393 forward 7 unknown #
vertex $-1 $316 $394 #
straight-curve $-1 68.877834406567587 -31.109061632635164 0 0 0 -1 I I #
plane-surface $-1 68.877834406567587 0 0 -1 0 0 0 0 1 forward_v I I I I #
face $-1 $395 $396 $17 $-1 $397 reversed single #
loop $-1 $-1 $398 $228 #
plane-surface $-1 0 -40.424675995399362 5.258837519593822 0 0 1 1 0 0 forward_v I I I I #
coedge $-1 $399 $400 $401 $402 forward $229 $-1 #
coedge $-1 $231 $403 $404 $405 forward $141 $-1 #
coedge $-1 $404 $241 $232 $326 forward $243 $-1 #
edge $-1 $330 -97.029399355778821 $327 -82.578520295893256 $325 $406 forward 7 unknown #
vertex $-1 $326 $407 #
straight-curve $-1 29.340979128495817 18.014225295463135 14.941027119701815 -1 0 0 I I #
edge $-1 $239 -16.545382089577913 $330 -6.4943561671161181 $241 $408 forward 7 unknown #
vertex $-1 $329 $409 #
straight-curve $-1 -33.494577053907335 18.014225295463135 92.666683370715219 -0.74314481823134659 0 0.66913061440640931 I I #
point $-1 52.828507621888093 18.014225295463135 14.941027119701815 #
point $-1 68.877834406567587 28.065251217924931 0.49014805981624932 #
coedge $-1 $242 $410 $411 $412 reversed $243 $-1 #
face $-1 $-1 $243 $17 $-1 $413 reversed single #
coedge $-1 $403 $245 $414 $415 forward $141 $-1 #
coedge $-1 $411 $416 $245 $338 reversed $417 $-1 #
edge $-1 $339 -68.877834406567587 $418 68.877834406567587 $337 $419 forward 7 unknown #
vertex $-1 $246 $420 #
straight-curve $-1 68.877834406567587 0 14.941027119701815 0 1 0 I I #
face $-1 $421 $422 $18 $-1 $423 forward single #
loop $-1 $-1 $424 $249 #
plane-surface $-1 0 0 14.941027119701815 0 0 1 1 0 0 forward_v I I I I #
coedge $-1 $425 $426 $424 $427 reversed $250 $-1 #
coedge $-1 $428 $346 $351 $429 reversed $252 $-1 #
coedge $-1 $345 $430 $253 $347 reversed $252 $-1 #
edge $-1 $352 116.1591691929451 $431 137.75566881313517 $253 $432 forward 7 unknown #
coedge $-1 $433 $434 $254 $349 forward $435 $-1 #
edge $-1 $353 82.578520295893256 $431 97.029399355778821 $348 $436 forward 7 unknown #
coedge $-1 $437 $255 $434 $438 forward $342 $-1 #
coedge $-1 $255 $424 $345 $429 forward $342 $-1 #
vertex $-1 $429 $439 #
vertex $-1 $438 $440 #
straight-curve $-1 29.340979128495817 28.065251217924931 14.941027119701815 1 0 0 I I #
vertex $-1 $257 $441 #
point $-1 59.888906554797686 20.885946987595073 5.1501869049421085 #
face $-1 $442 $443 $19 $-1 $444 forward single #
plane-surface $-1 -33.494577053907335 23.039738256694033 92.666683370715219 0.66913061440640931 0 0.74314481823134659 0.74314481823134659 0 -0.66913061440640931 forward_v I I I I #
coedge $-1 $445 $446 $447 $448 reversed $262 $-1 #
coedge $-1 $360 $360 $-1 $449 forward $264 $-1 #
edge $-1 $450 0 $450 6.2831853071796004 $265 $451 forward 7 unknown #
vertex $-1 $268 $452 #
ellipse-curve $-1 60.85317101422784 20.885946987595073 7.7155875897590258 -0.66913061440640931 0 -0.74314481823134659 0.74314481823134659 0 -0.66913061440640931 1 I I #
vertex $-1 $269 $453 #
point $-1 59.888906554797686 25.193529525792986 5.1501869049421085 #
loop $-1 $-1 $454 $261 #
straight-curve $-1 -68.877834406567587 31.109061632635164 0 0 0 -1 I I #
point $-1 -68.877834406567587 -31.109061632635164 -14.941027119701815 #
straight-curve $-1 -68.877834406567587 0 -14.941027119701815 0 1 0 I I #
point $-1 -68.877834406567587 31.109061632635164 -14.941027119701815 #
face $-1 $455 $296 $16 $-1 $456 reversed single #
loop $-1 $-1 $381 $290 #
plane-surface $-1 0 0 -14.941027119701815 0 0 1 1 0 0 forward_v I I I I #
coedge $-1 $294 $293 $457 $458 reversed $122 $-1 #
coedge $-1 $295 $459 $293 $376 reversed $296 $-1 #
edge $-1 $301 -5.258837519593822 $460 14.941027119701815 $375 $388 forward 7 unknown #
coedge $-1 $459 $384 $461 $462 forward $296 $-1 #
point $-1 -68.877834406567587 -49.740290358163563 5.258837519593822 #
straight-curve $-1 -68.877834406567587 -40.424675995399362 5.258837519593822 0 1 0 I I #
point $-1 -68.877834406567587 -31.109061632635161 5.258837519593822 #
coedge $-1 $457 $463 $303 $382 forward $372 $-1 #
edge $-1 $464 -31.109061632635164 $383 31.109061632635164 $303 $465 forward 7 unknown #
vertex $-1 $304 $466 #
coedge $-1 $377 $307 $467 $468 reversed $296 $-1 #
coedge $-1 $315 $467 $309 $386 forward $291 $-1 #
edge $-1 $387 -68.877834406567587 $317 68.877834406567587 $309 $469 forward 7 unknown #
vertex $-1 $468 $470 #
straight-curve $-1 -68.877834406567587 -31.109061632635164 0 0 0 -1 I I #
coedge $-1 $471 $472 $314 $390 forward $473 $-1 #
edge $-1 $392 -14.941027119701815 $464 14.941027119701815 $314 $474 forward 7 unknown #
coedge $-1 $467 $315 $472 $475 forward $291 $-1 #
vertex $-1 $316 $476 #
straight-curve $-1 68.877834406567587 0 14.941027119701815 0 1 0 I I #
point $-1 68.877834406567587 -31.109061632635164 14.941027119701815 #
face $-1 $477 $478 $17 $-1 $479 reversed single #
loop $-1 $-1 $480 $320 #
plane-surface $-1 0 -49.740290358163563 8.8990457109056749 0 1 0 0 0 1 forward_v I I I I #
coedge $-1 $481 $482 $483 $484 forward $321 $-1 #
coedge $-1 $485 $323 $486 $487 reversed $229 $-1 #
coedge $-1 $323 $485 $488 $489 forward $229 $-1 #
coedge $-1 $490 $491 $323 $402 reversed $243 $-1 #
edge $-1 $492 -9.315614362764201 $493 9.315614362764201 $401 $494 forward 7 unknown #
coedge $-1 $324 $336 $495 $496 forward $141 $-1 #
coedge $-1 $491 $325 $324 $405 reversed $243 $-1 #
edge $-1 $497 -31.109061632635164 $327 18.014225295463135 $404 $340 forward 7 unknown #
straight-curve $-1 68.877834406567587 18.014225295463135 97.519547415595071 0 0 1 I I #
point $-1 68.877834406567587 18.014225295463135 14.941027119701815 #
straight-curve $-1 68.877834406567587 11.519869128347016 0.49014805981624221 0 -1 0 I I #
point $-1 68.877834406567587 18.014225295463135 0.49014805981624932 #
coedge $-1 $334 $498 $499 $500 reversed $243 $-1 #
coedge $-1 $501 $337 $334 $412 forward $417 $-1 #
edge $-1 $339 -14.941027119701815 $502 14.941027119701815 $334 $503 forward 7 unknown #
plane-surface $-1 68.877834406567587 0 0 -1 0 0 0 0 1 forward_v I I I I #
coedge $-1 $504 $505 $336 $415 reversed $506 $-1 #
edge $-1 $418 -31.109061632635164 $507 31.109061632635164 $414 $508 forward 7 unknown #
coedge $-1 $337 $501 $504 $509 reversed $417 $-1 #
loop $-1 $-1 $411 $510 #
vertex $-1 $338 $511 #
straight-curve $-1 0 31.109061632635164 14.941027119701815 -1 0 0 I I #
point $-1 68.877834406567587 31.109061632635164 14.941027119701815 #
face $-1 $512 $513 $18 $-1 $514 reversed single #
loop $-1 $-1 $515 $341 #
plane-surface $-1 0 -40.424675995399362 12.539253902217528 0 0 1 1 0 0 forward_v I I I I #
coedge $-1 $351 $516 $344 $427 forward $342 $-1 #
coedge $-1 $426 $344 $517 $518 reversed $250 $-1 #
coedge $-1 $344 $425 $428 $519 forward $250 $-1 #
edge $-1 $520 -39.536855278071769 $521 -23.487528493392276 $424 $522 forward 7 unknown #
coedge $-1 $430 $345 $426 $519 reversed $252 $-1 #
edge $-1 $521 6.4943561671161181 $352 16.545382089577913 $351 $523 forward 7 unknown #
coedge $-1 $346 $428 $433 $524 reversed $252 $-1 #
vertex $-1 $524 $525 #
straight-curve $-1 -33.494577053907335 28.065251217924931 92.666683370715219 0.74314481823134659 0 -0.66913061440640931 I I #
coedge $-1 $517 $348 $430 $524 forward $435 $-1 #
coedge $-1 $348 $526 $350 $438 reversed $435 $-1 #
loop $-1 $-1 $517 $527 #
straight-curve $-1 68.877834406567587 28.065251217924931 97.519547415595071 0 0 -1 I I #
coedge $-1 $528 $350 $529 $530 forward $342 $-1 #
edge $-1 $353 28.065251217924931 $531 31.109061632635164 $434 $532 forward 7 unknown #
point $-1 52.828507621888093 28.065251217924931 14.941027119701815 #
point $-1 68.877834406567587 28.065251217924931 14.941027119701815 #
point $-1 58.47663112215993 20.885946987595073 5.0761727011171711 #
face $-1 $533 $534 $19 $-1 $535 forward single #
loop $-1 $-1 $536 $357 #
plane-surface $-1 58.681958256991635 18.014225295463135 195.03909483119014 0 1 0 0.66913061440640931 0 0.74314481823134659 forward_v I I I I #
coedge $-1 $446 $359 $537 $538 forward $262 $-1 #
coedge $-1 $359 $445 $539 $540 reversed $262 $-1 #
coedge $-1 $541 $542 $359 $448 forward $534 $-1 #
edge $-1 $543 23.487528493392276 $544 39.536855278071769 $447 $545 forward 7 unknown #
edge $-1 $546 1 $546 0 $360 $-1 forward 7 unknown #
vertex $-1 $361 $547 #
ellipse-curve $-1 59.145761736566342 20.885946987595073 5.8193175193485178 0.66913061440640931 0 0.74314481823134659 0.74314481823134659 0 -0.66913061440640931 1 I I #
point $-1 61.596315832459183 20.885946987595073 7.0464569753526174 #
point $-1 58.47663112215993 25.193529525792986 5.0761727011171711 #
coedge $-1 $548 $537 $542 $549 reversed $366 $-1 #
face $-1 $225 $473 $16 $-1 $550 reversed single #
plane-surface $-1 -68.877834406567587 0 0 1 0 0 0 0 -1 forward_v I I I I #
coedge $-1 $551 $381 $374 $458 forward $372 $-1 #
edge $-1 $383 -68.877834406567587 $460 68.877834406567587 $374 $552 forward 7 unknown #
coedge $-1 $375 $377 $551 $553 reversed $296 $-1 #
vertex $-1 $553 $554 #
coedge $-1 $472 $471 $377 $462 reversed $473 $-1 #
edge $-1 $555 -14.941027119701815 $556 14.941027119701815 $461 $557 forward 7 unknown #
coedge $-1 $381 $551 $471 $558 forward $372 $-1 #
vertex $-1 $382 $559 #
straight-curve $-1 68.877834406567587 0 -14.941027119701815 0 -1 0 I I #
point $-1 68.877834406567587 -31.109061632635164 -14.941027119701815 #
coedge $-1 $385 $391 $384 $468 forward $291 $-1 #
edge $-1 $555 -31.109061632635164 $387 31.109061632635164 $384 $560 forward 7 unknown #
straight-curve $-1 0 -31.109061632635164 14.941027119701815 1 0 0 I I #
point $-1 -68.877834406567587 -31.109061632635164 14.941027119701815 #
coedge $-1 $461 $389 $463 $558 reversed $473 $-1 #
coedge $-1 $389 $461 $391 $475 reversed $473 $-1 #
loop $-1 $-1 $389 $455 #
straight-curve $-1 68.877834406567587 31.109061632635164 0 0 0 -1 I I #
edge $-1 $392 -68.877834406567587 $555 68.877834406567587 $472 $561 forward 7 unknown #
point $-1 68.877834406567587 31.109061632635164 14.941027119701815 #
face $-1 $562 $563 $17 $-1 $479 reversed single #
loop $-1 $-1 $564 $395 #
plane-surface $-1 0 -31.109061632635164 0 0 1 0 0 0 1 forward_v I I I I #
coedge $-1 $565 $488 $566 $567 forward $396 $-1 #
coedge $-1 $568 $398 $565 $569 forward $321 $-1 #
coedge $-1 $398 $568 $564 $570 reversed $321 $-1 #
coedge $-1 $498 $490 $398 $484 reversed $243 $-1 #
edge $-1 $571 -9.315614362764201 $572 9.315614362764201 $483 $573 forward 7 unknown #
coedge $-1 $400 $399 $574 $575 forward $229 $-1 #
coedge $-1 $576 $577 $399 $487 forward $563 $-1 #
edge $-1 $578 -68.877834406567587 $493 68.877834406567587 $486 $579 forward 7 unknown #
coedge $-1 $480 $580 $400 $489 reversed $396 $-1 #
edge $-1 $581 -68.877834406567587 $492 68.877834406567587 $488 $582 forward 7 unknown #
coedge $-1 $483 $401 $580 $583 forward $243 $-1 #
coedge $-1 $401 $404 $576 $584 forward $243 $-1 #
vertex $-1 $402 $585 #
vertex $-1 $402 $586 #
straight-curve $-1 68.877834406567587 -40.424675995399362 12.539253902217528 0 1 0 I I #
coedge $-1 $577 $576 $403 $496 reversed $563 $-1 #
edge $-1 $507 -68.877834406567587 $497 68.877834406567587 $495 $587 forward 7 unknown #
vertex $-1 $405 $588 #
coedge $-1 $410 $483 $589 $590 forward $243 $-1 #
coedge $-1 $591 $592 $410 $500 forward $593 $-1 #
edge $-1 $502 -31.109061632635164 $594 31.109061632635164 $410 $595 forward 7 unknown #
coedge $-1 $416 $411 $592 $596 reversed $417 $-1 #
vertex $-1 $500 $597 #
straight-curve $-1 68.877834406567587 31.109061632635164 0 0 0 -1 I I #
coedge $-1 $598 $414 $416 $509 forward $506 $-1 #
coedge $-1 $414 $574 $577 $599 reversed $506 $-1 #
loop $-1 $-1 $504 $600 #
vertex $-1 $415 $601 #
straight-curve $-1 -68.877834406567587 0 14.941027119701815 0 -1 0 I I #
edge $-1 $418 -14.941027119701815 $602 14.941027119701815 $416 $603 forward 7 unknown #
face $-1 $335 $417 $17 $-1 $604 reversed single #
point $-1 -68.877834406567587 31.109061632635164 14.941027119701815 #
face $-1 $605 $606 $18 $-1 $607 reversed single #
loop $-1 $-1 $608 $421 #
plane-surface $-1 0 -40.424675995399362 5.258837519593822 0 0 1 1 0 0 forward_v I I I I #
coedge $-1 $609 $610 $611 $612 forward $422 $-1 #
coedge $-1 $424 $613 $614 $615 forward $342 $-1 #
coedge $-1 $614 $433 $425 $518 forward $435 $-1 #
edge $-1 $616 -97.029399355778821 $520 -82.578520295893256 $517 $617 forward 7 unknown #
edge $-1 $616 -137.75566881313517 $521 -116.1591691929451 $426 $618 forward 7 unknown #
vertex $-1 $518 $619 #
vertex $-1 $429 $620 #
straight-curve $-1 29.340979128495817 18.014225295463135 14.941027119701815 -1 0 0 I I #
straight-curve $-1 52.828507621888093 11.519869128347016 14.941027119701808 0 1 0 I I #
edge $-1 $431 -16.545382089577913 $616 -6.4943561671161181 $433 $621 forward 7 unknown #
point $-1 68.877834406567587 28.065251217924931 0.49014805981624932 #
coedge $-1 $434 $622 $623 $624 reversed $435 $-1 #
face $-1 $-1 $435 $18 $-1 $625 reversed single #
coedge $-1 $613 $437 $626 $627 forward $342 $-1 #
coedge $-1 $623 $628 $437 $530 reversed $629 $-1 #
edge $-1 $531 -68.877834406567587 $630 68.877834406567587 $529 $631 forward 7 unknown #
vertex $-1 $438 $632 #
straight-curve $-1 68.877834406567587 0 14.941027119701815 0 1 0 I I #
face $-1 $633 $634 $19 $-1 $635 forward single #
loop $-1 $-1 $636 $442 #
plane-surface $-1 0 0 14.941027119701815 0 0 1 1 0 0 forward_v I I I I #
coedge $-1 $637 $638 $636 $639 reversed $443 $-1 #
coedge $-1 $454 $640 $445 $538 reversed $366 $-1 #
edge $-1 $543 116.1591691929451 $641 137.75566881313517 $445 $642 forward 7 unknown #
coedge $-1 $643 $644 $446 $540 forward $645 $-1 #
edge $-1 $544 82.578520295893256 $641 97.029399355778821 $539 $646 forward 7 unknown #
coedge $-1 $647 $447 $644 $648 forward $534 $-1 #
coedge $-1 $447 $636 $454 $549 forward $534 $-1 #
vertex $-1 $549 $649 #
vertex $-1 $648 $650 #
straight-curve $-1 29.340979128495817 28.065251217924931 14.941027119701815 1 0 0 I I #
vertex $-1 $449 $651 #
point $-1 59.888906554797686 20.885946987595073 5.1501869049421085 #
coedge $-1 $640 $454 $638 $652 reversed $366 $-1 #
edge $-1 $653 6.4943561671161181 $543 16.545382089577913 $542 $654 forward 7 unknown #
plane-surface $-1 0 31.109061632635164 0 0 -1 0 0 0 -1 forward_v I I I I #
coedge $-1 $463 $457 $459 $553 forward $372 $-1 #
straight-curve $-1 0 -31.109061632635164 -14.941027119701815 -1 0 0 I I #
edge $-1 $460 -31.109061632635164 $556 31.109061632635164 $459 $655 forward 7 unknown #
point $-1 -68.877834406567587 -31.109061632635164 -14.941027119701815 #
vertex $-1 $475 $656 #
vertex $-1 $558 $657 #
straight-curve $-1 -68.877834406567587 31.109061632635164 0 0 0 -1 I I #
edge $-1 $556 -68.877834406567587 $464 68.877834406567587 $471 $658 forward 7 unknown #
point $-1 68.877834406567587 31.109061632635164 -14.941027119701815 #
straight-curve $-1 -68.877834406567587 0 14.941027119701815 0 -1 0 I I #
straight-curve $-1 0 31.109061632635164 14.941027119701815 -1 0 0 I I #
face $-1 $600 $593 $17 $-1 $659 reversed single #
loop $-1 $-1 $486 $477 #
coedge $-1 $660 $589 $482 $570 forward $478 $-1 #
coedge $-1 $580 $480 $481 $569 reversed $396 $-1 #
coedge $-1 $574 $661 $480 $567 reversed $506 $-1 #
edge $-1 $581 -3.6402081913118529 $662 3.6402081913118529 $566 $663 forward 7 unknown #
coedge $-1 $482 $481 $661 $664 forward $321 $-1 #
edge $-1 $572 -68.877834406567587 $662 68.877834406567587 $565 $665 forward 7 unknown #
edge $-1 $571 -68.877834406567587 $666 68.877834406567587 $564 $667 forward 7 unknown #
vertex $-1 $590 $668 #
vertex $-1 $583 $669 #
straight-curve $-1 68.877834406567587 -40.424675995399362 5.258837519593822 0 -1 0 I I #
coedge $-1 $505 $566 $485 $575 reversed $506 $-1 #
edge $-1 $578 -9.315614362764201 $581 9.315614362764201 $574 $670 forward 7 unknown #
coedge $-1 $495 $486 $491 $584 reversed $563 $-1 #
coedge $-1 $486 $495 $505 $599 forward $563 $-1 #
vertex $-1 $599 $671 #
straight-curve $-1 0 -31.109061632635164 12.539253902217528 1 0 0 I I #
coedge $-1 $488 $565 $490 $583 reversed $396 $-1 #
vertex $-1 $575 $672 #
straight-curve $-1 0 -49.740290358163563 12.539253902217528 1 0 0 I I #
edge $-1 $492 -3.6402081913118529 $572 3.6402081913118529 $490 $673 forward 7 unknown #
edge $-1 $497 -14.941027119701815 $493 -12.539253902217528 $491 $674 forward 7 unknown #
point $-1 68.877834406567587 -49.740290358163563 12.539253902217528 #
point $-1 68.877834406567587 -31.109061632635161 12.539253902217528 #
straight-curve $-1 0 -31.109061632635164 14.941027119701815 1 0 0 I I #
point $-1 68.877834406567587 -31.109061632635164 14.941027119701815 #
coedge $-1 $564 $675 $498 $590 reversed $478 $-1 #
edge $-1 $571 -5.258837519593822 $594 14.941027119701815 $498 $674 forward 7 unknown #
coedge $-1 $676 $499 $675 $677 forward $593 $-1 #
coedge $-1 $499 $676 $501 $596 forward $593 $-1 #
loop $-1 $-1 $499 $562 #
vertex $-1 $590 $678 #
straight-curve $-1 68.877834406567587 0 -14.941027119701815 0 -1 0 I I #
edge $-1 $602 -68.877834406567587 $502 68.877834406567587 $501 $679 forward 7 unknown #
point $-1 68.877834406567587 31.109061632635164 -14.941027119701815 #
coedge $-1 $680 $504 $676 $681 reversed $506 $-1 #
edge $-1 $507 -14.941027119701815 $578 -12.539253902217528 $505 $682 forward 7 unknown #
face $-1 $510 $506 $17 $-1 $683 reversed single #
point $-1 -68.877834406567587 -31.109061632635164 14.941027119701815 #
vertex $-1 $596 $684 #
straight-curve $-1 -68.877834406567587 31.109061632635164 0 0 0 -1 I I #
plane-surface $-1 0 31.109061632635164 0 0 -1 0 0 0 -1 forward_v I I I I #
face $-1 $685 $686 $18 $-1 $687 reversed single #
loop $-1 $-1 $688 $512 #
plane-surface $-1 0 -49.740290358163563 8.8990457109056749 0 1 0 0 0 1 forward_v I I I I #
coedge $-1 $689 $690 $691 $692 forward $513 $-1 #
coedge $-1 $693 $515 $694 $695 reversed $422 $-1 #
coedge $-1 $515 $693 $696 $697 forward $422 $-1 #
coedge $-1 $698 $699 $515 $612 reversed $435 $-1 #
edge $-1 $700 -9.315614362764201 $701 9.315614362764201 $611 $702 forward 7 unknown #
coedge $-1 $516 $528 $703 $704 forward $342 $-1 #
coedge $-1 $699 $517 $516 $615 reversed $435 $-1 #
edge $-1 $705 -31.109061632635164 $520 18.014225295463135 $614 $532 forward 7 unknown #
vertex $-1 $524 $706 #
straight-curve $-1 68.877834406567587 18.014225295463135 97.519547415595071 0 0 1 I I #
straight-curve $-1 -33.494577053907335 18.014225295463135 92.666683370715219 -0.74314481823134659 0 0.66913061440640931 I I #
point $-1 68.877834406567587 18.014225295463135 14.941027119701815 #
point $-1 52.828507621888093 18.014225295463135 14.941027119701815 #
straight-curve $-1 68.877834406567587 11.519869128347016 0.49014805981624221 0 -1 0 I I #
coedge $-1 $526 $707 $708 $709 reversed $435 $-1 #
coedge $-1 $710 $529 $526 $624 forward $629 $-1 #
edge $-1 $531 -14.941027119701815 $711 14.941027119701815 $526 $712 forward 7 unknown #
plane-surface $-1 68.877834406567587 0 0 -1 0 0 0 0 1 forward_v I I I I #
coedge $-1 $713 $714 $528 $627 reversed $715 $-1 #
edge $-1 $630 -31.109061632635164 $716 31.109061632635164 $626 $717 forward 7 unknown #
coedge $-1 $529 $710 $713 $718 reversed $629 $-1 #
loop $-1 $-1 $623 $719 #
vertex $-1 $530 $720 #
straight-curve $-1 0 31.109061632635164 14.941027119701815 -1 0 0 I I #
point $-1 68.877834406567587 31.109061632635164 14.941027119701815 #
face $-1 $721 $722 $19 $-1 $723 reversed single #
loop $-1 $-1 $724 $533 #
plane-surface $-1 0 -40.424675995399362 12.539253902217528 0 0 1 1 0 0 forward_v I I I I #
coedge $-1 $542 $725 $536 $639 forward $534 $-1 #
coedge $-1 $638 $536 $726 $727 reversed $443 $-1 #
coedge $-1 $536 $637 $548 $652 forward $443 $-1 #
edge $-1 $728 -39.536855278071769 $653 -23.487528493392276 $636 $729 forward 7 unknown #
coedge $-1 $537 $548 $643 $730 reversed $366 $-1 #
vertex $-1 $730 $731 #
straight-curve $-1 -33.494577053907335 28.065251217924931 92.666683370715219 0.74314481823134659 0 -0.66913061440640931 I I #
coedge $-1 $726 $539 $640 $730 forward $645 $-1 #
coedge $-1 $539 $732 $541 $648 reversed $645 $-1 #
loop $-1 $-1 $726 $733 #
straight-curve $-1 68.877834406567587 28.065251217924931 97.519547415595071 0 0 -1 I I #
coedge $-1 $734 $541 $735 $736 forward $534 $-1 #
edge $-1 $544 28.065251217924931 $737 31.109061632635164 $644 $738 forward 7 unknown #
point $-1 52.828507621888093 28.065251217924931 14.941027119701815 #
point $-1 68.877834406567587 28.065251217924931 14.941027119701815 #
point $-1 58.47663112215993 20.885946987595073 5.0761727011171711 #
edge $-1 $739 -137.75566881313517 $653 -116.1591691929451 $638 $740 forward 7 unknown #
vertex $-1 $549 $741 #
straight-curve $-1 52.828507621888093 11.519869128347016 14.941027119701808 0 1 0 I I #
straight-curve $-1 -68.877834406567587 0 -14.941027119701815 0 1 0 I I #
point $-1 -68.877834406567587 31.109061632635164 14.941027119701815 #
point $-1 -68.877834406567587 31.109061632635164 -14.941027119701815 #
straight-curve $-1 0 31.109061632635164 -14.941027119701815 1 0 0 I I #
plane-surface $-1 0 0 -14.941027119701815 0 0 1 1 0 0 forward_v I I I I #
coedge $-1 $675 $564 $680 $742 forward $478 $-1 #
coedge $-1 $566 $680 $568 $664 reversed $506 $-1 #
vertex $-1 $664 $743 #
straight-curve $-1 -68.877834406567587 -49.740290358163563 8.8990457109056749 0 0 -1 I I #
edge $-1 $662 -9.315614362764201 $666 9.315614362764201 $661 $744 forward 7 unknown #
straight-curve $-1 0 -49.740290358163563 5.258837519593822 -1 0 0 I I #
vertex $-1 $742 $745 #
straight-curve $-1 0 -31.109061632635164 5.258837519593822 -1 0 0 I I #
point $-1 68.877834406567587 -31.109061632635161 5.258837519593822 #
point $-1 68.877834406567587 -49.740290358163563 5.258837519593822 #
straight-curve $-1 -68.877834406567587 -40.424675995399362 12.539253902217528 0 -1 0 I I #
point $-1 -68.877834406567587 -31.109061632635161 12.539253902217528 #
point $-1 -68.877834406567587 -49.740290358163563 12.539253902217528 #
straight-curve $-1 68.877834406567587 -49.740290358163563 8.8990457109056749 0 0 -1 I I #
straight-curve $-1 68.877834406567587 -31.109061632635164 0 0 0 -1 I I #
coedge $-1 $589 $660 $591 $677 reversed $478 $-1 #
coedge $-1 $592 $591 $598 $681 forward $593 $-1 #
edge $-1 $594 -68.877834406567587 $746 68.877834406567587 $675 $747 forward 7 unknown #
point $-1 68.877834406567587 -31.109061632635164 -14.941027119701815 #
straight-curve $-1 0 31.109061632635164 -14.941027119701815 1 0 0 I I #
coedge $-1 $661 $598 $660 $742 reversed $506 $-1 #
edge $-1 $746 -31.109061632635164 $602 31.109061632635164 $598 $748 forward 7 unknown #
straight-curve $-1 -68.877834406567587 -31.109061632635164 0 0 0 -1 I I #
plane-surface $-1 -68.877834406567587 0 0 1 0 0 0 0 -1 forward_v I I I I #
point $-1 -68.877834406567587 31.109061632635164 -14.941027119701815 #
face $-1 $749 $750 $18 $-1 $687 reversed single #
loop $-1 $-1 $751 $605 #
plane-surface $-1 0 -31.109061632635164 0 0 1 0 0 0 1 forward_v I I I I #
coedge $-1 $752 $696 $753 $754 forward $606 $-1 #
coedge $-1 $755 $608 $752 $756 forward $513 $-1 #
coedge $-1 $608 $755 $751 $757 reversed $513 $-1 #
coedge $-1 $707 $698 $608 $692 reversed $435 $-1 #
edge $-1 $758 -9.315614362764201 $759 9.315614362764201 $691 $760 forward 7 unknown #
coedge $-1 $610 $609 $761 $762 forward $422 $-1 #
coedge $-1 $763 $764 $609 $695 forward $750 $-1 #
edge $-1 $765 -68.877834406567587 $701 68.877834406567587 $694 $766 forward 7 unknown #
coedge $-1 $688 $767 $610 $697 reversed $606 $-1 #
edge $-1 $768 -68.877834406567587 $700 68.877834406567587 $696 $769 forward 7 unknown #
coedge $-1 $691 $611 $767 $770 forward $435 $-1 #
coedge $-1 $611 $614 $763 $771 forward $435 $-1 #
vertex $-1 $612 $772 #
vertex $-1 $612 $773 #
straight-curve $-1 68.877834406567587 -40.424675995399362 12.539253902217528 0 1 0 I I #
coedge $-1 $764 $763 $613 $704 reversed $750 $-1 #
edge $-1 $716 -68.877834406567587 $705 68.877834406567587 $703 $774 forward 7 unknown #
vertex $-1 $615 $775 #
point $-1 68.877834406567587 18.014225295463135 0.49014805981624932 #
coedge $-1 $622 $691 $776 $777 forward $435 $-1 #
coedge $-1 $778 $779 $622 $709 forward $780 $-1 #
edge $-1 $711 -31.109061632635164 $781 31.109061632635164 $622 $782 forward 7 unknown #
coedge $-1 $628 $623 $779 $783 reversed $629 $-1 #
vertex $-1 $709 $784 #
straight-curve $-1 68.877834406567587 31.109061632635164 0 0 0 -1 I I #
coedge $-1 $785 $626 $628 $718 forward $715 $-1 #
coedge $-1 $626 $761 $764 $786 reversed $715 $-1 #
loop $-1 $-1 $713 $787 #
vertex $-1 $627 $788 #
straight-curve $-1 -68.877834406567587 0 14.941027119701815 0 -1 0 I I #
edge $-1 $630 -14.941027119701815 $789 14.941027119701815 $628 $790 forward 7 unknown #
face $-1 $527 $629 $18 $-1 $791 reversed single #
point $-1 -68.877834406567587 31.109061632635164 14.941027119701815 #
face $-1 $792 $793 $19 $-1 $794 reversed single #
loop $-1 $-1 $795 $633 #
plane-surface $-1 0 -40.424675995399362 5.258837519593822 0 0 1 1 0 0 forward_v I I I I #
coedge $-1 $796 $797 $798 $799 forward $634 $-1 #
coedge $-1 $636 $800 $801 $802 forward $534 $-1 #
coedge $-1 $801 $643 $637 $727 forward $645 $-1 #
edge $-1 $739 -97.029399355778821 $728 -82.578520295893256 $726 $803 forward 7 unknown #
vertex $-1 $727 $804 #
straight-curve $-1 29.340979128495817 18.014225295463135 14.941027119701815 -1 0 0 I I #
edge $-1 $641 -16.545382089577913 $739 -6.4943561671161181 $643 $805 forward 7 unknown #
point $-1 68.877834406567587 28.065251217924931 0.49014805981624932 #
coedge $-1 $644 $806 $807 $808 reversed $645 $-1 #
face $-1 $-1 $645 $19 $-1 $809 reversed single #
coedge $-1 $800 $647 $810 $811 forward $534 $-1 #
coedge $-1 $807 $812 $647 $736 reversed $813 $-1 #
edge $-1 $737 -68.877834406567587 $814 68.877834406567587 $735 $815 forward 7 unknown #
vertex $-1 $648 $816 #
straight-curve $-1 68.877834406567587 0 14.941027119701815 0 1 0 I I #
vertex $-1 $730 $817 #
straight-curve $-1 -33.494577053907335 18.014225295463135 92.666683370715219 -0.74314481823134659 0 0.66913061440640931 I I #
point $-1 52.828507621888093 18.014225295463135 14.941027119701815 #
edge $-1 $666 -5.258837519593822 $746 14.941027119701815 $680 $682 forward 7 unknown #
point $-1 -68.877834406567587 -49.740290358163563 5.258837519593822 #
straight-curve $-1 -68.877834406567587 -40.424675995399362 5.258837519593822 0 1 0 I I #
point $-1 -68.877834406567587 -31.109061632635161 5.258837519593822 #
vertex $-1 $681 $818 #
straight-curve $-1 0 -31.109061632635164 -14.941027119701815 -1 0 0 I I #
straight-curve $-1 -68.877834406567587 0 -14.941027119701815 0 1 0 I I #
face $-1 $787 $780 $18 $-1 $819 reversed single #
loop $-1 $-1 $694 $685 #
coedge $-1 $820 $776 $690 $757 forward $686 $-1 #
coedge $-1 $767 $688 $689 $756 reversed $606 $-1 #
coedge $-1 $761 $821 $688 $754 reversed $715 $-1 #
edge $-1 $768 -3.6402081913118529 $822 3.6402081913118529 $753 $823 forward 7 unknown #
coedge $-1 $690 $689 $821 $824 forward $513 $-1 #
edge $-1 $759 -68.877834406567587 $822 68.877834406567587 $752 $825 forward 7 unknown #
edge $-1 $758 -68.877834406567587 $826 68.877834406567587 $751 $827 forward 7 unknown #
vertex $-1 $777 $828 #
vertex $-1 $770 $829 #
straight-curve $-1 68.877834406567587 -40.424675995399362 5.258837519593822 0 -1 0 I I #
coedge $-1 $714 $753 $693 $762 reversed $715 $-1 #
edge $-1 $765 -9.315614362764201 $768 9.315614362764201 $761 $830 forward 7 unknown #
coedge $-1 $703 $694 $699 $771 reversed $750 $-1 #
coedge $-1 $694 $703 $714 $786 forward $750 $-1 #
vertex $-1 $786 $831 #
straight-curve $-1 0 -31.109061632635164 12.539253902217528 1 0 0 I I #
coedge $-1 $696 $752 $698 $770 reversed $606 $-1 #
vertex $-1 $762 $832 #
straight-curve $-1 0 -49.740290358163563 12.539253902217528 1 0 0 I I #
edge $-1 $700 -3.6402081913118529 $759 3.6402081913118529 $698 $833 forward 7 unknown #
edge $-1 $705 -14.941027119701815 $701 -12.539253902217528 $699 $834 forward 7 unknown #
point $-1 68.877834406567587 -49.740290358163563 12.539253902217528 #
point $-1 68.877834406567587 -31.109061632635161 12.539253902217528 #
straight-curve $-1 0 -31.109061632635164 14.941027119701815 1 0 0 I I #
point $-1 68.877834406567587 -31.109061632635164 14.941027119701815 #
coedge $-1 $751 $835 $707 $777 reversed $686 $-1 #
edge $-1 $758 -5.258837519593822 $781 14.941027119701815 $707 $834 forward 7 unknown #
coedge $-1 $836 $708 $835 $837 forward $780 $-1 #
coedge $-1 $708 $836 $710 $783 forward $780 $-1 #
loop $-1 $-1 $708 $749 #
vertex $-1 $777 $838 #
straight-curve $-1 68.877834406567587 0 -14.941027119701815 0 -1 0 I I #
edge $-1 $789 -68.877834406567587 $711 68.877834406567587 $710 $839 forward 7 unknown #
point $-1 68.877834406567587 31.109061632635164 -14.941027119701815 #
coedge $-1 $840 $713 $836 $841 reversed $715 $-1 #
edge $-1 $716 -14.941027119701815 $765 -12.539253902217528 $714 $842 forward 7 unknown #
face $-1 $719 $715 $18 $-1 $843 reversed single #
point $-1 -68.877834406567587 -31.109061632635164 14.941027119701815 #
vertex $-1 $783 $844 #
straight-curve $-1 -68.877834406567587 31.109061632635164 0 0 0 -1 I I #
plane-surface $-1 0 31.109061632635164 0 0 -1 0 0 0 -1 forward_v I I I I #
face $-1 $845 $846 $19 $-1 $847 reversed single #
loop $-1 $-1 $848 $721 #
plane-surface $-1 0 -49.740290358163563 8.8990457109056749 0 1 0 0 0 1 forward_v I I I I #
coedge $-1 $849 $850 $851 $852 forward $722 $-1 #
coedge $-1 $853 $724 $854 $855 reversed $634 $-1 #
coedge $-1 $724 $853 $856 $857 forward $634 $-1 #
coedge $-1 $858 $859 $724 $799 reversed $645 $-1 #
edge $-1 $860 -9.315614362764201 $861 9.315614362764201 $798 $862 forward 7 unknown #
coedge $-1 $725 $734 $863 $864 forward $534 $-1 #
coedge $-1 $859 $726 $725 $802 reversed $645 $-1 #
edge $-1 $865 -31.109061632635164 $728 18.014225295463135 $801 $738 forward 7 unknown #
straight-curve $-1 68.877834406567587 18.014225295463135 97.519547415595071 0 0 1 I I #
point $-1 68.877834406567587 18.014225295463135 14.941027119701815 #
straight-curve $-1 68.877834406567587 11.519869128347016 0.49014805981624221 0 -1 0 I I #
coedge $-1 $732 $866 $867 $868 reversed $645 $-1 #
coedge $-1 $869 $735 $732 $808 forward $813 $-1 #
edge $-1 $737 -14.941027119701815 $870 14.941027119701815 $732 $871 forward 7 unknown #
plane-surface $-1 68.877834406567587 0 0 -1 0 0 0 0 1 forward_v I I I I #
coedge $-1 $872 $873 $734 $811 reversed $874 $-1 #
edge $-1 $814 -31.109061632635164 $875 31.109061632635164 $810 $876 forward 7 unknown #
coedge $-1 $735 $869 $872 $877 reversed $813 $-1 #
loop $-1 $-1 $807 $878 #
vertex $-1 $736 $879 #
straight-curve $-1 0 31.109061632635164 14.941027119701815 -1 0 0 I I #
point $-1 68.877834406567587 31.109061632635164 14.941027119701815 #
point $-1 68.877834406567587 18.014225295463135 0.49014805981624932 #
point $-1 -68.877834406567587 -31.109061632635164 -14.941027119701815 #
plane-surface $-1 0 0 -14.941027119701815 0 0 1 1 0 0 forward_v I I I I #
coedge $-1 $835 $751 $840 $880 forward $686 $-1 #
coedge $-1 $753 $840 $755 $824 reversed $715 $-1 #
vertex $-1 $824 $881 #
straight-curve $-1 -68.877834406567587 -49.740290358163563 8.8990457109056749 0 0 -1 I I #
edge $-1 $822 -9.315614362764201 $826 9.315614362764201 $821 $882 forward 7 unknown #
straight-curve $-1 0 -49.740290358163563 5.258837519593822 -1 0 0 I I #
vertex $-1 $880 $883 #
straight-curve $-1 0 -31.109061632635164 5.258837519593822 -1 0 0 I I #
point $-1 68.877834406567587 -31.109061632635161 5.258837519593822 #
point $-1 68.877834406567587 -49.740290358163563 5.258837519593822 #
straight-curve $-1 -68.877834406567587 -40.424675995399362 12.539253902217528 0 -1 0 I I #
point $-1 -68.877834406567587 -31.109061632635161 12.539253902217528 #
point $-1 -68.877834406567587 -49.740290358163563 12.539253902217528 #
straight-curve $-1 68.877834406567587 -49.740290358163563 8.8990457109056749 0 0 -1 I I #
straight-curve $-1 68.877834406567587 -31.109061632635164 0 0 0 -1 I I #
coedge $-1 $776 $820 $778 $837 reversed $686 $-1 #
coedge $-1 $779 $778 $785 $841 forward $780 $-1 #
edge $-1 $781 -68.877834406567587 $884 68.877834406567587 $835 $885 forward 7 unknown #
point $-1 68.877834406567587 -31.109061632635164 -14.941027119701815 #
straight-curve $-1 0 31.109061632635164 -14.941027119701815 1 0 0 I I #
coedge $-1 $821 $785 $820 $880 reversed $715 $-1 #
edge $-1 $884 -31.109061632635164 $789 31.109061632635164 $785 $886 forward 7 unknown #
straight-curve $-1 -68.877834406567587 -31.109061632635164 0 0 0 -1 I I #
plane-surface $-1 -68.877834406567587 0 0 1 0 0 0 0 -1 forward_v I I I I #
point $-1 -68.877834406567587 31.109061632635164 -14.941027119701815 #
face $-1 $887 $888 $19 $-1 $847 reversed single #
loop $-1 $-1 $889 $792 #
plane-surface $-1 0 -31.109061632635164 0 0 1 0 0 0 1 forward_v I I I I #
coedge $-1 $890 $856 $891 $892 forward $793 $-1 #
coedge $-1 $893 $795 $890 $894 forward $722 $-1 #
coedge $-1 $795 $893 $889 $895 reversed $722 $-1 #
coedge $-1 $866 $858 $795 $852 reversed $645 $-1 #
edge $-1 $896 -9.315614362764201 $897 9.315614362764201 $851 $898 forward 7 unknown #
coedge $-1 $797 $796 $899 $900 forward $634 $-1 #
coedge $-1 $901 $902 $796 $855 forward $888 $-1 #
edge $-1 $903 -68.877834406567587 $861 68.877834406567587 $854 $904 forward 7 unknown #
coedge $-1 $848 $905 $797 $857 reversed $793 $-1 #
edge $-1 $906 -68.877834406567587 $860 68.877834406567587 $856 $907 forward 7 unknown #
coedge $-1 $851 $798 $905 $908 forward $645 $-1 #
coedge $-1 $798 $801 $901 $909 forward $645 $-1 #
vertex $-1 $799 $910 #
vertex $-1 $799 $911 #
straight-curve $-1 68.877834406567587 -40.424675995399362 12.539253902217528 0 1 0 I I #
coedge $-1 $902 $901 $800 $864 reversed $888 $-1 #
edge $-1 $875 -68.877834406567587 $865 68.877834406567587 $863 $912 forward 7 unknown #
vertex $-1 $802 $913 #
coedge $-1 $806 $851 $914 $915 forward $645 $-1 #
coedge $-1 $916 $917 $806 $868 forward $918 $-1 #
edge $-1 $870 -31.109061632635164 $919 31.109061632635164 $806 $920 forward 7 unknown #
coedge $-1 $812 $807 $917 $921 reversed $813 $-1 #
vertex $-1 $868 $922 #
straight-curve $-1 68.877834406567587 31.109061632635164 0 0 0 -1 I I #
coedge $-1 $923 $810 $812 $877 forward $874 $-1 #
coedge $-1 $810 $899 $902 $924 reversed $874 $-1 #
loop $-1 $-1 $872 $925 #
vertex $-1 $811 $926 #
straight-curve $-1 -68.877834406567587 0 14.941027119701815 0 -1 0 I I #
edge $-1 $814 -14.941027119701815 $927 14.941027119701815 $812 $928 forward 7 unknown #
face $-1 $733 $813 $19 $-1 $929 reversed single #
point $-1 -68.877834406567587 31.109061632635164 14.941027119701815 #
edge $-1 $826 -5.258837519593822 $884 14.941027119701815 $840 $842 forward 7 unknown #
point $-1 -68.877834406567587 -49.740290358163563 5.258837519593822 #
straight-curve $-1 -68.877834406567587 -40.424675995399362 5.258837519593822 0 1 0 I I #
point $-1 -68.877834406567587 -31.109061632635161 5.258837519593822 #
vertex $-1 $841 $930 #
straight-curve $-1 0 -31.109061632635164 -14.941027119701815 -1 0 0 I I #
straight-curve $-1 -68.877834406567587 0 -14.941027119701815 0 1 0 I I #
face $-1 $925 $918 $19 $-1 $931 reversed single #
loop $-1 $-1 $854 $845 #
coedge $-1 $932 $914 $850 $895 forward $846 $-1 #
coedge $-1 $905 $848 $849 $894 reversed $793 $-1 #
coedge $-1 $899 $933 $848 $892 reversed $874 $-1 #
edge $-1 $906 -3.6402081913118529 $934 3.6402081913118529 $891 $935 forward 7 unknown #
coedge $-1 $850 $849 $933 $936 forward $722 $-1 #
edge $-1 $897 -68.877834406567587 $934 68.877834406567587 $890 $937 forward 7 unknown #
edge $-1 $896 -68.877834406567587 $938 68.877834406567587 $889 $939 forward 7 unknown #
vertex $-1 $915 $940 #
vertex $-1 $908 $941 #
straight-curve $-1 68.877834406567587 -40.424675995399362 5.258837519593822 0 -1 0 I I #
coedge $-1 $873 $891 $853 $900 reversed $874 $-1 #
edge $-1 $903 -9.315614362764201 $906 9.315614362764201 $899 $942 forward 7 unknown #
coedge $-1 $863 $854 $859 $909 reversed $888 $-1 #
coedge $-1 $854 $863 $873 $924 forward $888 $-1 #
vertex $-1 $924 $943 #
straight-curve $-1 0 -31.109061632635164 12.539253902217528 1 0 0 I I #
coedge $-1 $856 $890 $858 $908 reversed $793 $-1 #
vertex $-1 $900 $944 #
straight-curve $-1 0 -49.740290358163563 12.539253902217528 1 0 0 I I #
edge $-1 $860 -3.6402081913118529 $897 3.6402081913118529 $858 $945 forward 7 unknown #
edge $-1 $865 -14.941027119701815 $861 -12.539253902217528 $859 $946 forward 7 unknown #
point $-1 68.877834406567587 -49.740290358163563 12.539253902217528 #
point $-1 68.877834406567587 -31.109061632635161 12.539253902217528 #
straight-curve $-1 0 -31.109061632635164 14.941027119701815 1 0 0 I I #
point $-1 68.877834406567587 -31.109061632635164 14.941027119701815 #
coedge $-1 $889 $947 $866 $915 reversed $846 $-1 #
edge $-1 $896 -5.258837519593822 $919 14.941027119701815 $866 $946 forward 7 unknown #
coedge $-1 $948 $867 $947 $949 forward $918 $-1 #
coedge $-1 $867 $948 $869 $921 forward $918 $-1 #
loop $-1 $-1 $867 $887 #
vertex $-1 $915 $950 #
straight-curve $-1 68.877834406567587 0 -14.941027119701815 0 -1 0 I I #
edge $-1 $927 -68.877834406567587 $870 68.877834406567587 $869 $951 forward 7 unknown #
point $-1 68.877834406567587 31.109061632635164 -14.941027119701815 #
coedge $-1 $952 $872 $948 $953 reversed $874 $-1 #
edge $-1 $875 -14.941027119701815 $903 -12.539253902217528 $873 $954 forward 7 unknown #
face $-1 $878 $874 $19 $-1 $955 reversed single #
point $-1 -68.877834406567587 -31.109061632635164 14.941027119701815 #
vertex $-1 $921 $956 #
straight-curve $-1 -68.877834406567587 31.109061632635164 0 0 0 -1 I I #
plane-surface $-1 0 31.109061632635164 0 0 -1 0 0 0 -1 forward_v I I I I #
point $-1 -68.877834406567587 -31.109061632635164 -14.941027119701815 #
plane-surface $-1 0 0 -14.941027119701815 0 0 1 1 0 0 forward_v I I I I #
coedge $-1 $947 $889 $952 $957 forward $846 $-1 #
coedge $-1 $891 $952 $893 $936 reversed $874 $-1 #
vertex $-1 $936 $958 #
straight-curve $-1 -68.877834406567587 -49.740290358163563 8.8990457109056749 0 0 -1 I I #
edge $-1 $934 -9.315614362764201 $938 9.315614362764201 $933 $959 forward 7 unknown #
straight-curve $-1 0 -49.740290358163563 5.258837519593822 -1 0 0 I I #
vertex $-1 $957 $960 #
straight-curve $-1 0 -31.109061632635164 5.258837519593822 -1 0 0 I I #
point $-1 68.877834406567587 -31.109061632635161 5.258837519593822 #
point $-1 68.877834406567587 -49.740290358163563 5.258837519593822 #
straight-curve $-1 -68.877834406567587 -40.424675995399362 12.539253902217528 0 -1 0 I I #
point $-1 -68.877834406567587 -31.109061632635161 12.539253902217528 #
point $-1 -68.877834406567587 -49.740290358163563 12.539253902217528 #
straight-curve $-1 68.877834406567587 -49.740290358163563 8.8990457109056749 0 0 -1 I I #
straight-curve $-1 68.877834406567587 -31.109061632635164 0 0 0 -1 I I #
coedge $-1 $914 $932 $916 $949 reversed $846 $-1 #
coedge $-1 $917 $916 $923 $953 forward $918 $-1 #
edge $-1 $919 -68.877834406567587 $961 68.877834406567587 $947 $962 forward 7 unknown #
point $-1 68.877834406567587 -31.109061632635164 -14.941027119701815 #
straight-curve $-1 0 31.109061632635164 -14.941027119701815 1 0 0 I I #
coedge $-1 $933 $923 $932 $957 reversed $874 $-1 #
edge $-1 $961 -31.109061632635164 $927 31.109061632635164 $923 $963 forward 7 unknown #
straight-curve $-1 -68.877834406567587 -31.109061632635164 0 0 0 -1 I I #
plane-surface $-1 -68.877834406567587 0 0 1 0 0 0 0 -1 forward_v I I I I #
point $-1 -68.877834406567587 31.109061632635164 -14.941027119701815 #
edge $-1 $938 -5.258837519593822 $961 14.941027119701815 $952 $954 forward 7 unknown #
point $-1 -68.877834406567587 -49.740290358163563 5.258837519593822 #
straight-curve $-1 -68.877834406567587 -40.424675995399362 5.258837519593822 0 1 0 I I #
point $-1 -68.877834406567587 -31.109061632635161 5.258837519593822 #
vertex $-1 $953 $964 #
straight-curve $-1 0 -31.109061632635164 -14.941027119701815 -1 0 0 I I #
straight-curve $-1 -68.877834406567587 0 -14.941027119701815 0 1 0 I I #
point $-1 -68.877834406567587 -31.109061632635164 -14.941027119701815 #
End-of-ACIS-data 