500 0 8 0           
7 Unknown 11 ACIS 5.0 NT 24 Fri Mar 26 18:45:49 1999 
-1 9.9999999999999995e-007 1e-010 
body $-1 $8 $-1 $9 #
body $-1 $10 $-1 $11 #
body $-1 $12 $-1 $13 #
body $-1 $14 $-1 $15 #
body $-1 $16 $-1 $17 #
body $-1 $18 $-1 $19 #
body $-1 $20 $-1 $21 #
body $-1 $22 $-1 $23 #
lump $-1 $-1 $24 $0 #
transform $-1 1 0 0 0 1 0 0 0 1 49.927060762352369 33.487105255427693 12.7170672614655 1 rotate no_reflect no_shear #
lump $-1 $-1 $25 $1 #
transform $-1 1 0 0 0 1 0 0 0 1 49.927060762352369 33.487105255427693 12.7170672614655 1 rotate no_reflect no_shear #
lump $-1 $-1 $26 $2 #
transform $-1 1 0 0 0 1 0 0 0 1 49.927060762352369 33.487105255427693 12.7170672614655 1 rotate no_reflect no_shear #
lump $-1 $-1 $27 $3 #
transform $-1 1 0 0 0 1 0 0 0 1 49.927060762352369 33.487105255427693 12.7170672614655 1 rotate no_reflect no_shear #
lump $-1 $-1 $28 $4 #
transform $-1 1 0 0 0 1 0 0 0 1 49.927060762352369 33.487105255427693 12.7170672614655 1 rotate no_reflect no_shear #
lump $-1 $-1 $29 $5 #
transform $-1 1 0 0 0 1 0 0 0 1 49.927060762352369 33.487105255427693 12.7170672614655 1 rotate no_reflect no_shear #
lump $-1 $-1 $30 $6 #
transform $-1 1 0 0 0 1 0 0 0 1 49.927060762352369 33.487105255427693 12.7170672614655 1 rotate no_reflect no_shear #
lump $-1 $-1 $31 $7 #
transform $-1 1 0 0 0 1 0 0 0 1 49.927060762352369 33.487105255427693 12.7170672614655 1 rotate no_reflect no_shear #
shell $-1 $-1 $-1 $32 $-1 $8 #
shell $-1 $-1 $-1 $33 $-1 $10 #
shell $-1 $-1 $-1 $34 $-1 $12 #
shell $-1 $-1 $-1 $35 $-1 $14 #
shell $-1 $-1 $-1 $36 $-1 $16 #
shell $-1 $-1 $-1 $37 $-1 $18 #
shell $-1 $-1 $-1 $38 $-1 $20 #
shell $-1 $-1 $-1 $39 $-1 $22 #
face $-1 $40 $41 $24 $-1 $42 forward single #
face $-1 $43 $44 $25 $-1 $45 forward single #
face $-1 $46 $47 $26 $-1 $48 reversed single #
face $-1 $49 $50 $27 $-1 $51 forward single #
face $-1 $52 $53 $28 $-1 $54 forward single #
face $-1 $55 $56 $29 $-1 $57 reversed single #
face $-1 $58 $59 $30 $-1 $60 forward single #
face $-1 $61 $62 $31 $-1 $63 forward single #
face $-1 $64 $65 $24 $-1 $66 reversed single #
loop $-1 $-1 $67 $32 #
plane-surface $-1 0 0 12.7170672614655 0 0 1 1 0 0 forward_v I I I I #
face $-1 $68 $69 $25 $-1 $70 reversed single #
loop $-1 $-1 $71 $33 #
plane-surface $-1 -49.927060762352369 0 0 1 0 0 0 0 -1 forward_v I I I I #
face $-1 $72 $73 $26 $-1 $74 reversed single #
loop $-1 $-1 $75 $34 #
plane-surface $-1 41.61194938888508 -33.487105255427693 4.7187101127487665 0 -0.6560590369687036 0.75470957328743171 1 0 0 forward_v I I I I #
face $-1 $76 $77 $27 $-1 $78 forward single #
loop $-1 $79 $80 $35 #
cone-surface $-1 38.048330228827652 -27.633623437267989 7.2765309068173885 0 0.6560590369687036 -0.75470957328743171 1 0 0 1 I I 0 1 1 forward I I I I #
face $-1 $81 $82 $28 $-1 $83 forward single #
loop $-1 $84 $85 $36 #
cone-surface $-1 45.175568548942493 -27.633623437267989 7.2765309068173885 0 0.6560590369687036 -0.75470957328743171 1 0 0 1 I I 0 1 1 forward I I I I #
face $-1 $86 $87 $29 $-1 $88 reversed single #
loop $-1 $-1 $89 $37 #
plane-surface $-1 41.61194938888508 -17.058972580482589 48.657746162239775 0 0.6560590369687036 0.75470957328743171 1 0 0 forward_v I I I I #
face $-1 $90 $91 $30 $-1 $92 forward single #
loop $-1 $93 $94 $38 #
cone-surface $-1 38.048330228827652 27.633623437267993 7.2765309068173849 0 -0.6560590369687036 -0.75470957328743171 1 0 0 1 I I 0 1 1 forward I I I I #
face $-1 $95 $96 $31 $-1 $97 forward single #
loop $-1 $98 $99 $39 #
cone-surface $-1 45.175568548942493 27.633623437267993 7.2765309068173849 0 -0.6560590369687036 -0.75470957328743171 1 0 0 1 I I 0 1 1 forward I I I I #
face $-1 $100 $101 $24 $-1 $102 reversed single #
loop $-1 $-1 $103 $40 #
plane-surface $-1 0 0 -12.7170672614655 0 0 1 1 0 0 forward_v I I I I #
coedge $-1 $104 $105 $106 $107 forward $41 $-1 #
face $-1 $108 $109 $25 $-1 $110 reversed single #
loop $-1 $-1 $111 $43 #
plane-surface $-1 0 33.487105255427693 0 0 -1 0 0 0 -1 forward_v I I I I #
coedge $-1 $112 $113 $114 $115 forward $44 $-1 #
face $-1 $116 $117 $26 $-1 $118 reversed single #
loop $-1 $-1 $119 $46 #
plane-surface $-1 33.296838015417769 -98.99730406028138 80.079571559650034 1 0 0 0 0.6560590369687036 -0.75470957328743171 forward_v I I I I #
coedge $-1 $120 $121 $122 $123 reversed $47 $-1 #
face $-1 $-1 $124 $27 $-1 $125 forward single #
loop $-1 $126 $127 $49 #
cone-surface $-1 38.048330228827652 -26.052640689178713 5.4578183398839233 0 0.6560590369687036 -0.75470957328743171 0.5 0 0 1 I I -0.70710678118654746 0.70710678118654746 0.5 forward I I I I #
loop $-1 $-1 $128 $35 #
coedge $-1 $80 $80 $129 $130 reversed $50 $-1 #
face $-1 $-1 $131 $28 $-1 $132 forward single #
loop $-1 $133 $134 $52 #
cone-surface $-1 45.175568548942493 -26.052640689178713 5.4578183398839233 0 0.6560590369687036 -0.75470957328743171 0.5 0 0 1 I I -0.70710678118654746 0.70710678118654746 0.5 forward I I I I #
loop $-1 $-1 $135 $36 #
coedge $-1 $85 $85 $136 $137 reversed $53 $-1 #
face $-1 $138 $139 $29 $-1 $140 forward single #
loop $-1 $-1 $141 $55 #
plane-surface $-1 33.296838015417769 48.451226224371098 124.01860760914104 1 0 0 0 -0.6560590369687036 -0.75470957328743171 forward_v I I I I #
coedge $-1 $142 $143 $144 $145 reversed $56 $-1 #
face $-1 $-1 $146 $30 $-1 $147 forward single #
loop $-1 $148 $149 $58 #
cone-surface $-1 38.048330228827652 26.052640689178716 5.4578183398839197 0 -0.6560590369687036 -0.75470957328743171 0.5 0 0 1 I I -0.70710678118654746 0.70710678118654746 0.5 forward I I I I #
loop $-1 $-1 $150 $38 #
coedge $-1 $94 $94 $151 $152 reversed $59 $-1 #
face $-1 $-1 $153 $31 $-1 $154 forward single #
loop $-1 $155 $156 $61 #
cone-surface $-1 45.175568548942493 26.052640689178716 5.4578183398839197 0 -0.6560590369687036 -0.75470957328743171 0.5 0 0 1 I I -0.70710678118654746 0.70710678118654746 0.5 forward I I I I #
loop $-1 $-1 $157 $39 #
coedge $-1 $99 $99 $158 $159 reversed $62 $-1 #
face $-1 $160 $161 $24 $-1 $162 reversed single #
loop $-1 $-1 $163 $64 #
plane-surface $-1 0 -33.487105255427693 0 0 1 0 0 0 1 forward_v I I I I #
coedge $-1 $164 $165 $166 $167 forward $65 $-1 #
coedge $-1 $168 $67 $169 $170 forward $41 $-1 #
coedge $-1 $67 $168 $171 $172 forward $41 $-1 #
coedge $-1 $173 $174 $67 $107 reversed $175 $-1 #
edge $-1 $176 -33.487105255427693 $177 33.487105255427693 $106 $178 forward 7 unknown #
face $-1 $179 $180 $25 $-1 $181 reversed single #
loop $-1 $-1 $114 $68 #
plane-surface $-1 -56.971823906875215 0 7.8589899965749641 0 0 1 1 0 0 forward_v I I I I #
coedge $-1 $182 $183 $112 $184 forward $69 $-1 #
coedge $-1 $185 $71 $111 $184 reversed $44 $-1 #
coedge $-1 $71 $185 $186 $187 reversed $44 $-1 #
coedge $-1 $188 $189 $71 $115 reversed $109 $-1 #
edge $-1 $190 -33.487105255427693 $191 33.487105255427693 $114 $192 forward 7 unknown #
face $-1 $193 $194 $26 $-1 $195 forward single #
loop $-1 $-1 $196 $72 #
plane-surface $-1 49.927060762352369 0 0 -1 0 0 0 0 1 forward_v I I I I #
coedge $-1 $197 $198 $199 $200 reversed $73 $-1 #
coedge $-1 $201 $75 $196 $202 reversed $47 $-1 #
coedge $-1 $75 $201 $197 $203 forward $47 $-1 #
coedge $-1 $199 $204 $75 $123 forward $194 $-1 #
edge $-1 $205 -29.12108606790985 $206 -12.49086332097523 $122 $207 forward 7 unknown #
loop $-1 $-1 $129 $76 #
plane-surface $-1 41.61194938888508 -33.487105255427693 4.7187101127487665 0 -0.6560590369687036 0.75470957328743171 1 0 0 forward_v I I I I #
loop $-1 $-1 $208 $49 #
coedge $-1 $127 $127 $128 $209 reversed $77 $-1 #
coedge $-1 $128 $128 $127 $209 forward $79 $-1 #
coedge $-1 $129 $129 $80 $130 forward $124 $-1 #
edge $-1 $210 3.4961848721090956e-015 $210 6.283185307179604 $129 $211 forward 7 unknown #
loop $-1 $-1 $136 $81 #
plane-surface $-1 41.61194938888508 -33.487105255427693 4.7187101127487665 0 -0.6560590369687036 0.75470957328743171 1 0 0 forward_v I I I I #
loop $-1 $-1 $212 $52 #
coedge $-1 $134 $134 $135 $213 reversed $82 $-1 #
coedge $-1 $135 $135 $134 $213 forward $84 $-1 #
coedge $-1 $136 $136 $85 $137 forward $131 $-1 #
edge $-1 $214 3.4961848721090956e-015 $214 6.283185307179604 $136 $215 forward 7 unknown #
face $-1 $216 $217 $29 $-1 $218 reversed single #
loop $-1 $-1 $219 $86 #
plane-surface $-1 0 0 12.7170672614655 0 0 1 1 0 0 forward_v I I I I #
coedge $-1 $220 $221 $222 $223 reversed $87 $-1 #
coedge $-1 $224 $89 $225 $226 reversed $56 $-1 #
coedge $-1 $89 $224 $220 $227 forward $56 $-1 #
coedge $-1 $222 $228 $89 $145 forward $229 $-1 #
edge $-1 $230 -29.121086067909829 $231 -12.49086332097523 $144 $232 forward 7 unknown #
loop $-1 $-1 $151 $90 #
plane-surface $-1 41.61194938888508 -17.058972580482589 48.657746162239775 0 0.6560590369687036 0.75470957328743171 1 0 0 forward_v I I I I #
loop $-1 $-1 $233 $58 #
coedge $-1 $149 $149 $150 $234 reversed $91 $-1 #
coedge $-1 $150 $150 $149 $234 forward $93 $-1 #
coedge $-1 $151 $151 $94 $152 forward $146 $-1 #
edge $-1 $235 -3.8466619819096458e-015 $235 6.2831853071795969 $151 $236 forward 7 unknown #
loop $-1 $-1 $158 $95 #
plane-surface $-1 41.61194938888508 -17.058972580482589 48.657746162239775 0 0.6560590369687036 0.75470957328743171 1 0 0 forward_v I I I I #
loop $-1 $-1 $237 $61 #
coedge $-1 $156 $156 $157 $238 reversed $96 $-1 #
coedge $-1 $157 $157 $156 $238 forward $98 $-1 #
coedge $-1 $158 $158 $99 $159 forward $153 $-1 #
edge $-1 $239 -3.8466619819096458e-015 $239 6.2831853071795969 $158 $240 forward 7 unknown #
face $-1 $241 $242 $24 $-1 $243 reversed single #
loop $-1 $-1 $244 $100 #
plane-surface $-1 -49.927060762352369 0 0 1 0 0 0 0 -1 forward_v I I I I #
coedge $-1 $245 $171 $246 $247 forward $101 $-1 #
coedge $-1 $248 $103 $245 $249 forward $65 $-1 #
coedge $-1 $103 $248 $250 $251 forward $65 $-1 #
coedge $-1 $174 $173 $103 $167 reversed $175 $-1 #
edge $-1 $252 -33.487105255427693 $253 33.487105255427693 $166 $254 forward 7 unknown #
coedge $-1 $105 $104 $255 $256 forward $41 $-1 #
coedge $-1 $257 $258 $104 $170 reversed $242 $-1 #
edge $-1 $177 -49.927060762352369 $259 49.927060762352369 $169 $260 forward 7 unknown #
coedge $-1 $163 $261 $105 $172 reversed $101 $-1 #
edge $-1 $262 -49.927060762352369 $176 49.927060762352369 $171 $263 forward 7 unknown #
coedge $-1 $166 $106 $261 $264 forward $175 $-1 #
coedge $-1 $106 $166 $257 $265 reversed $175 $-1 #
loop $-1 $-1 $173 $241 #
vertex $-1 $107 $266 #
vertex $-1 $107 $267 #
straight-curve $-1 49.927060762352369 0 12.7170672614655 0 1 0 I I #
face $-1 $268 $269 $25 $-1 $270 forward single #
loop $-1 $-1 $271 $108 #
plane-surface $-1 -64.016587051398062 0 10.288028629020234 1 0 0 0 0 -1 forward_v I I I I #
coedge $-1 $272 $111 $189 $273 reversed $69 $-1 #
coedge $-1 $111 $272 $274 $275 reversed $69 $-1 #
edge $-1 $276 -12.7170672614655 $191 -7.8589899965749641 $111 $277 forward 7 unknown #
coedge $-1 $113 $112 $278 $279 reversed $44 $-1 #
coedge $-1 $280 $281 $113 $187 forward $282 $-1 #
edge $-1 $190 7.8589899965749641 $283 12.7170672614655 $186 $284 forward 7 unknown #
coedge $-1 $285 $114 $281 $286 forward $109 $-1 #
coedge $-1 $114 $285 $182 $273 forward $109 $-1 #
vertex $-1 $187 $287 #
vertex $-1 $184 $288 #
straight-curve $-1 -49.927060762352369 0 7.8589899965749641 0 1 0 I I #
face $-1 $-1 $289 $26 $-1 $290 reversed single #
loop $-1 $-1 $122 $116 #
plane-surface $-1 0 0 12.7170672614655 0 0 1 1 0 0 forward_v I I I I #
coedge $-1 $291 $292 $120 $202 forward $117 $-1 #
coedge $-1 $198 $119 $121 $203 reversed $73 $-1 #
coedge $-1 $119 $197 $293 $294 reversed $73 $-1 #
coedge $-1 $295 $122 $119 $200 forward $194 $-1 #
edge $-1 $206 -25.212603951822569 $296 -16.011546774712997 $199 $297 forward 7 unknown #
coedge $-1 $121 $120 $298 $299 reversed $47 $-1 #
edge $-1 $300 -11.088643252825353 $205 1.1028771714231191 $196 $301 forward 7 unknown #
edge $-1 $302 0 $206 12.19152042424847 $197 $303 forward 7 unknown #
coedge $-1 $122 $295 $291 $304 forward $194 $-1 #
vertex $-1 $123 $305 #
vertex $-1 $123 $306 #
straight-curve $-1 20.80597469444254 -24.286048078318121 12.7170672614655 -1 0 0 I I #
coedge $-1 $208 $208 $-1 $307 reversed $126 $-1 #
edge $-1 $308 0 $308 6.2831853071796004 $127 $309 forward 7 unknown #
vertex $-1 $130 $310 #
ellipse-curve $-1 38.048330228827652 -28.886576666872909 8.7178886871071324 0 -0.6560590369687036 0.75470957328743171 1 0 0 1 I I #
coedge $-1 $212 $212 $-1 $311 reversed $133 $-1 #
edge $-1 $312 0 $312 6.2831853071796004 $134 $313 forward 7 unknown #
vertex $-1 $137 $314 #
ellipse-curve $-1 45.175568548942493 -28.886576666872909 8.7178886871071324 0 -0.6560590369687036 0.75470957328743171 1 0 0 1 I I #
face $-1 $-1 $229 $29 $-1 $315 reversed single #
loop $-1 $-1 $225 $138 #
plane-surface $-1 49.927060762352369 0 0 -1 0 0 0 0 1 forward_v I I I I #
coedge $-1 $316 $317 $221 $318 forward $139 $-1 #
coedge $-1 $221 $141 $143 $227 reversed $87 $-1 #
coedge $-1 $141 $220 $219 $318 reversed $87 $-1 #
coedge $-1 $319 $144 $141 $223 forward $229 $-1 #
edge $-1 $231 -57.290593691821748 $320 -49.29223654310502 $222 $321 forward 7 unknown #
coedge $-1 $143 $142 $316 $322 reversed $56 $-1 #
coedge $-1 $323 $324 $142 $226 forward $217 $-1 #
edge $-1 $325 32.384228084004576 $230 44.575748508253042 $225 $326 forward 7 unknown #
edge $-1 $327 54.782690086606905 $231 66.974210510855372 $220 $328 forward 7 unknown #
coedge $-1 $144 $319 $323 $329 forward $229 $-1 #
loop $-1 $-1 $222 $216 #
vertex $-1 $226 $330 #
vertex $-1 $145 $331 #
straight-curve $-1 20.80597469444254 33.487105255427693 4.7187101127487772 -1 0 0 I I #
coedge $-1 $233 $233 $-1 $332 reversed $148 $-1 #
edge $-1 $333 0 $333 6.2831853071796004 $149 $334 forward 7 unknown #
vertex $-1 $152 $335 #
ellipse-curve $-1 38.048330228827652 28.886576666872916 8.7178886871071324 0 0.6560590369687036 0.75470957328743171 1 0 0 1 I I #
coedge $-1 $237 $237 $-1 $336 reversed $155 $-1 #
edge $-1 $337 0 $337 6.2831853071796004 $156 $338 forward 7 unknown #
vertex $-1 $159 $339 #
ellipse-curve $-1 45.175568548942493 28.886576666872916 8.7178886871071324 0 0.6560590369687036 0.75470957328743171 1 0 0 1 I I #
face $-1 $-1 $175 $24 $-1 $340 reversed single #
loop $-1 $-1 $257 $160 #
plane-surface $-1 0 33.487105255427693 0 0 -1 0 0 0 -1 forward_v I I I I #
coedge $-1 $341 $255 $258 $342 forward $161 $-1 #
coedge $-1 $261 $163 $164 $249 reversed $101 $-1 #
coedge $-1 $255 $341 $163 $247 reversed $161 $-1 #
edge $-1 $262 -12.7170672614655 $343 12.7170672614655 $246 $344 forward 7 unknown #
coedge $-1 $165 $164 $341 $345 forward $65 $-1 #
edge $-1 $253 -49.927060762352369 $343 49.927060762352369 $245 $346 forward 7 unknown #
coedge $-1 $258 $257 $165 $251 reversed $242 $-1 #
edge $-1 $347 -49.927060762352369 $252 49.927060762352369 $250 $348 forward 7 unknown #
vertex $-1 $167 $349 #
vertex $-1 $264 $350 #
straight-curve $-1 49.927060762352369 0 -12.7170672614655 0 -1 0 I I #
coedge $-1 $244 $246 $168 $256 reversed $161 $-1 #
edge $-1 $259 -33.487105255427693 $262 33.487105255427693 $255 $351 forward 7 unknown #
coedge $-1 $250 $169 $174 $265 forward $242 $-1 #
coedge $-1 $169 $250 $244 $342 reversed $242 $-1 #
vertex $-1 $170 $352 #
straight-curve $-1 0 33.487105255427693 12.7170672614655 -1 0 0 I I #
coedge $-1 $171 $245 $173 $264 reversed $101 $-1 #
vertex $-1 $256 $353 #
straight-curve $-1 0 -33.487105255427693 12.7170672614655 1 0 0 I I #
edge $-1 $176 -12.7170672614655 $253 12.7170672614655 $173 $354 forward 7 unknown #
edge $-1 $177 -12.7170672614655 $252 12.7170672614655 $174 $355 forward 7 unknown #
point $-1 49.927060762352369 -33.487105255427693 12.7170672614655 #
point $-1 49.927060762352369 33.487105255427693 12.7170672614655 #
face $-1 $-1 $282 $25 $-1 $356 reversed single #
loop $-1 $-1 $278 $179 #
plane-surface $-1 0 0 12.7170672614655 0 0 1 1 0 0 forward_v I I I I #
coedge $-1 $357 $358 $272 $359 forward $180 $-1 #
coedge $-1 $183 $182 $271 $359 reversed $69 $-1 #
edge $-1 $360 -7.0447631445228467 $191 7.0447631445228467 $182 $361 forward 7 unknown #
coedge $-1 $362 $278 $183 $275 forward $269 $-1 #
edge $-1 $276 49.927060762352369 $363 64.016587051398062 $183 $364 forward 7 unknown #
vertex $-1 $275 $365 #
straight-curve $-1 -49.927060762352369 33.487105255427693 0 0 0 -1 I I #
coedge $-1 $274 $366 $185 $279 forward $269 $-1 #
edge $-1 $283 -33.487105255427693 $276 33.487105255427693 $278 $367 forward 7 unknown #
coedge $-1 $368 $186 $366 $369 reversed $282 $-1 #
coedge $-1 $186 $368 $188 $286 reversed $282 $-1 #
loop $-1 $-1 $186 $268 #
vertex $-1 $187 $370 #
straight-curve $-1 -49.927060762352369 -33.487105255427693 0 0 0 1 I I #
coedge $-1 $189 $188 $357 $371 forward $109 $-1 #
edge $-1 $190 -7.0447631445228467 $372 7.0447631445228467 $281 $373 forward 7 unknown #
point $-1 -49.927060762352369 -33.487105255427693 7.8589899965749641 #
point $-1 -49.927060762352369 33.487105255427693 7.8589899965749641 #
loop $-1 $-1 $298 $193 #
plane-surface $-1 0 -33.487105255427693 0 0 1 0 0 0 1 forward_v I I I I #
coedge $-1 $292 $196 $204 $304 reversed $117 $-1 #
coedge $-1 $196 $291 $374 $375 forward $117 $-1 #
coedge $-1 $298 $376 $198 $294 forward $289 $-1 #
edge $-1 $296 27.322718518359515 $302 35.321075667076251 $293 $377 forward 7 unknown #
coedge $-1 $204 $199 $376 $378 forward $194 $-1 #
vertex $-1 $378 $379 #
straight-curve $-1 33.296838015417769 -49.49865203014069 12.717067261465502 0 -1 0 I I #
coedge $-1 $374 $293 $201 $299 forward $289 $-1 #
edge $-1 $302 12.49086332097523 $300 29.12108606790985 $298 $380 forward 7 unknown #
vertex $-1 $299 $381 #
straight-curve $-1 49.927060762352369 -25.118400037751314 11.993514726486881 0 0.75470957328743171 0.6560590369687036 I I #
vertex $-1 $299 $382 #
straight-curve $-1 33.296838015417769 -33.487105255427693 4.7187101127487665 0 0.75470957328743171 0.6560590369687036 I I #
edge $-1 $383 -33.487105255427693 $205 -24.286048078318121 $291 $384 forward 7 unknown #
point $-1 49.92706076235239 -24.286048078318121 12.717067261465498 #
point $-1 33.296838015417769 -24.286048078318121 12.717067261465498 #
edge $-1 $385 1 $385 0 $208 $-1 forward 7 unknown #
vertex $-1 $209 $386 #
ellipse-curve $-1 38.048330228827652 -26.380670207663066 5.8351731265276392 0 -0.6560590369687036 0.75470957328743171 1 0 0 1 I I #
point $-1 39.048330228827652 -28.886576666872909 8.7178886871071377 #
edge $-1 $387 1 $387 0 $212 $-1 forward 7 unknown #
vertex $-1 $213 $388 #
ellipse-curve $-1 45.175568548942493 -26.380670207663066 5.8351731265276392 0 -0.6560590369687036 0.75470957328743171 1 0 0 1 I I #
point $-1 46.175568548942493 -28.886576666872909 8.7178886871071377 #
plane-surface $-1 0 33.487105255427693 0 0 -1 0 0 0 -1 forward_v I I I I #
coedge $-1 $389 $219 $224 $322 forward $139 $-1 #
coedge $-1 $219 $389 $319 $390 forward $139 $-1 #
edge $-1 $320 -9.261492143242144 $327 -0.060434966132575596 $219 $391 forward 7 unknown #
coedge $-1 $228 $222 $317 $390 reversed $229 $-1 #
vertex $-1 $318 $392 #
straight-curve $-1 33.296838015417769 33.487105255427693 62.009303804570521 0 0 1 I I #
edge $-1 $327 12.49086332097523 $325 29.12108606790985 $316 $393 forward 7 unknown #
coedge $-1 $324 $225 $228 $329 reversed $217 $-1 #
coedge $-1 $225 $323 $389 $394 reversed $217 $-1 #
vertex $-1 $394 $395 #
straight-curve $-1 49.927060762352369 -0.15463888020382655 33.96303275123239 0 0.75470957328743171 -0.6560590369687036 I I #
vertex $-1 $322 $396 #
straight-curve $-1 33.296838015417769 -17.058972580482589 48.657746162239775 0 0.75470957328743171 -0.6560590369687036 I I #
edge $-1 $397 -12.7170672614655 $230 -4.7187101127487763 $323 $398 forward 7 unknown #
point $-1 49.927060762352369 33.487105255427693 4.7187101127487763 #
point $-1 33.296838015417769 33.487105255427693 4.7187101127487736 #
edge $-1 $399 1 $399 0 $233 $-1 forward 7 unknown #
vertex $-1 $234 $400 #
ellipse-curve $-1 38.048330228827652 26.380670207663069 5.8351731265276356 0 0.6560590369687036 0.75470957328743171 1 0 0 1 I I #
point $-1 39.048330228827652 28.886576666872912 8.7178886871071342 #
edge $-1 $401 1 $401 0 $237 $-1 forward 7 unknown #
vertex $-1 $238 $402 #
ellipse-curve $-1 45.175568548942493 26.380670207663069 5.8351731265276356 0 0.6560590369687036 0.75470957328743171 1 0 0 1 I I #
point $-1 46.175568548942493 28.886576666872912 8.7178886871071342 #
plane-surface $-1 49.927060762352369 0 0 -1 0 0 0 0 1 forward_v I I I I #
coedge $-1 $246 $244 $248 $345 reversed $161 $-1 #
edge $-1 $259 -12.7170672614655 $347 12.7170672614655 $258 $403 forward 7 unknown #
vertex $-1 $345 $404 #
straight-curve $-1 -49.927060762352369 -33.487105255427693 0 0 0 -1 I I #
edge $-1 $343 -33.487105255427693 $347 33.487105255427693 $341 $405 forward 7 unknown #
straight-curve $-1 0 -33.487105255427693 -12.7170672614655 -1 0 0 I I #
vertex $-1 $251 $406 #
straight-curve $-1 0 33.487105255427693 -12.7170672614655 1 0 0 I I #
point $-1 49.927060762352369 33.487105255427693 -12.7170672614655 #
point $-1 49.927060762352369 -33.487105255427693 -12.7170672614655 #
straight-curve $-1 -49.927060762352369 0 12.7170672614655 0 -1 0 I I #
point $-1 -49.927060762352369 33.487105255427693 12.7170672614655 #
point $-1 -49.927060762352369 -33.487105255427693 12.7170672614655 #
straight-curve $-1 49.927060762352369 -33.487105255427693 0 0 0 -1 I I #
straight-curve $-1 49.927060762352369 33.487105255427693 0 0 0 -1 I I #
plane-surface $-1 0 -33.487105255427693 0 0 1 0 0 0 1 forward_v I I I I #
coedge $-1 $407 $271 $285 $371 reversed $180 $-1 #
coedge $-1 $271 $407 $362 $408 reversed $180 $-1 #
edge $-1 $363 -2.4290386324452697 $360 2.4290386324452697 $272 $409 forward 7 unknown #
vertex $-1 $273 $410 #
straight-curve $-1 -56.971823906875215 33.487105255427693 7.8589899965749641 1 0 0 I I #
coedge $-1 $366 $274 $358 $408 forward $269 $-1 #
vertex $-1 $275 $411 #
straight-curve $-1 0 33.487105255427693 12.7170672614655 -1 0 0 I I #
point $-1 -49.927060762352369 33.487105255427693 12.7170672614655 #
coedge $-1 $278 $362 $280 $369 forward $269 $-1 #
straight-curve $-1 -49.927060762352369 0 12.7170672614655 0 1 0 I I #
coedge $-1 $281 $280 $407 $412 forward $282 $-1 #
edge $-1 $413 -64.016587051398062 $283 -49.927060762352369 $280 $414 forward 7 unknown #
point $-1 -49.927060762352369 -33.487105255427693 12.7170672614655 #
edge $-1 $372 -33.487105255427693 $360 33.487105255427693 $357 $415 forward 7 unknown #
vertex $-1 $371 $416 #
straight-curve $-1 -56.971823906875215 -33.487105255427693 7.8589899965749641 -1 0 0 I I #
coedge $-1 $376 $298 $292 $375 reversed $289 $-1 #
edge $-1 $383 -12.7170672614655 $300 -4.7187101127487665 $292 $417 forward 7 unknown #
coedge $-1 $293 $374 $295 $378 reversed $289 $-1 #
straight-curve $-1 33.296838015417769 -33.487105255427693 40.039785779825017 0 0 -1 I I #
edge $-1 $296 33.296838015417769 $383 49.927060762352369 $376 $418 forward 7 unknown #
point $-1 33.296838015417769 -33.487105255427693 12.7170672614655 #
straight-curve $-1 20.80597469444254 -33.487105255427693 4.7187101127487683 1 0 0 I I #
point $-1 49.92706076235239 -33.487105255427693 4.7187101127487665 #
point $-1 33.296838015417769 -33.487105255427693 4.7187101127487665 #
vertex $-1 $304 $419 #
straight-curve $-1 49.927060762352369 0 12.7170672614655 0 1 0 I I #
vertex $-1 $307 $420 #
point $-1 39.048330228827652 -26.380670207663066 5.8351731265276392 #
vertex $-1 $311 $421 #
point $-1 46.175568548942493 -26.380670207663066 5.8351731265276392 #
coedge $-1 $317 $316 $324 $394 forward $139 $-1 #
edge $-1 $397 -49.927060762352369 $320 -33.296838015417769 $319 $422 forward 7 unknown #
straight-curve $-1 33.296838015417769 24.225613112185549 12.717067261465502 0 -1 0 I I #
point $-1 33.296838015417769 33.487105255427693 12.7170672614655 #
straight-curve $-1 20.80597469444254 24.286048078318121 12.717067261465509 1 0 0 I I #
edge $-1 $325 24.286048078318125 $397 33.487105255427693 $324 $423 forward 7 unknown #
point $-1 49.92706076235239 24.286048078318125 12.717067261465502 #
point $-1 33.296838015417769 24.286048078318125 12.717067261465502 #
vertex $-1 $394 $424 #
straight-curve $-1 49.927060762352369 33.487105255427693 0 0 0 -1 I I #
vertex $-1 $332 $425 #
point $-1 39.048330228827652 26.380670207663069 5.8351731265276356 #
vertex $-1 $336 $426 #
point $-1 46.175568548942493 26.380670207663069 5.8351731265276356 #
straight-curve $-1 -49.927060762352369 33.487105255427693 0 0 0 -1 I I #
point $-1 -49.927060762352369 -33.487105255427693 -12.7170672614655 #
straight-curve $-1 -49.927060762352369 0 -12.7170672614655 0 1 0 I I #
point $-1 -49.927060762352369 33.487105255427693 -12.7170672614655 #
coedge $-1 $358 $357 $368 $412 reversed $180 $-1 #
edge $-1 $363 -33.487105255427693 $413 33.487105255427693 $358 $427 forward 7 unknown #
straight-curve $-1 -64.016587051398062 33.487105255427693 10.288028629020234 0 0 -1 I I #
point $-1 -64.016587051398062 33.487105255427693 7.8589899965749641 #
point $-1 -64.016587051398062 33.487105255427693 12.717067261465504 #
edge $-1 $413 -2.4290386324452697 $372 2.4290386324452697 $407 $428 forward 7 unknown #
vertex $-1 $408 $429 #
straight-curve $-1 0 -33.487105255427693 12.7170672614655 1 0 0 I I #
straight-curve $-1 -64.016587051398062 0 7.8589899965749641 0 1 0 I I #
point $-1 -64.016587051398062 -33.487105255427693 7.8589899965749641 #
straight-curve $-1 49.927060762352369 -33.487105255427693 0 0 0 -1 I I #
straight-curve $-1 0 -33.487105255427693 12.7170672614655 1 0 0 I I #
point $-1 49.927060762352369 -33.487105255427693 12.7170672614655 #
point $-1 38.048330228827652 -25.724611170694359 5.0804635532402074 #
point $-1 45.175568548942493 -25.724611170694359 5.0804635532402074 #
straight-curve $-1 0 33.487105255427693 12.7170672614655 -1 0 0 I I #
straight-curve $-1 49.927060762352369 0 12.7170672614655 0 1 0 I I #
point $-1 49.927060762352369 33.487105255427693 12.7170672614655 #
point $-1 38.048330228827652 25.724611170694363 5.0804635532402038 #
point $-1 45.175568548942493 25.724611170694363 5.0804635532402038 #
straight-curve $-1 -64.016587051398062 0 12.717067261465504 0 -1 0 I I #
straight-curve $-1 -64.016587051398062 -33.487105255427693 10.288028629020234 0 0 -1 I I #
point $-1 -64.016587051398062 -33.487105255427693 12.717067261465504 #
End-of-ACIS-data 