500 0 7 0           
7 Unknown 11 ACIS 5.0 NT 24 Thu Mar 25 19:13:28 1999 
-1 9.9999999999999995e-007 1e-010 
body $-1 $7 $-1 $8 #
body $-1 $9 $-1 $10 #
body $-1 $11 $-1 $12 #
body $-1 $13 $-1 $14 #
body $-1 $15 $-1 $16 #
body $-1 $17 $-1 $18 #
body $-1 $19 $-1 $20 #
lump $-1 $-1 $21 $0 #
transform $-1 1 0 0 0 1 0 0 0 1 69.644459364604643 39.180242301131791 12.908303712199412 1 rotate no_reflect no_shear #
lump $-1 $-1 $22 $1 #
transform $-1 1 0 0 0 1 0 0 0 1 69.644459364604643 39.180242301131791 12.908303712199412 1 rotate no_reflect no_shear #
lump $-1 $-1 $23 $2 #
transform $-1 1 0 0 0 1 0 0 0 1 69.644459364604643 39.180242301131791 12.908303712199412 1 rotate no_reflect no_shear #
lump $-1 $-1 $24 $3 #
transform $-1 1 0 0 0 1 0 0 0 1 69.644459364604643 39.180242301131791 12.908303712199412 1 rotate no_reflect no_shear #
lump $-1 $-1 $25 $4 #
transform $-1 1 0 0 0 1 0 0 0 1 69.644459364604643 39.180242301131791 12.908303712199412 1 rotate no_reflect no_shear #
lump $-1 $-1 $26 $5 #
transform $-1 1 0 0 0 1 0 0 0 1 69.644459364604643 39.180242301131791 12.908303712199412 1 rotate no_reflect no_shear #
lump $-1 $-1 $27 $6 #
transform $-1 1 0 0 0 1 0 0 0 1 69.644459364604643 39.180242301131791 12.908303712199412 1 rotate no_reflect no_shear #
shell $-1 $-1 $-1 $28 $-1 $7 #
shell $-1 $-1 $-1 $29 $-1 $9 #
shell $-1 $-1 $-1 $30 $-1 $11 #
shell $-1 $-1 $-1 $31 $-1 $13 #
shell $-1 $-1 $-1 $32 $-1 $15 #
shell $-1 $-1 $-1 $33 $-1 $17 #
shell $-1 $-1 $-1 $34 $-1 $19 #
face $-1 $35 $36 $21 $-1 $37 forward single #
face $-1 $38 $39 $22 $-1 $40 reversed single #
face $-1 $41 $42 $23 $-1 $43 reversed single #
face $-1 $44 $45 $24 $-1 $46 forward single #
face $-1 $47 $48 $25 $-1 $49 reversed single #
face $-1 $50 $51 $26 $-1 $52 forward single #
face $-1 $53 $54 $27 $-1 $55 forward single #
face $-1 $56 $57 $21 $-1 $58 reversed single #
loop $-1 $-1 $59 $28 #
plane-surface $-1 0 0 12.908303712199412 0 0 1 1 0 0 forward_v I I I I #
face $-1 $60 $61 $22 $-1 $62 reversed single #
loop $-1 $-1 $63 $29 #
plane-surface $-1 0 -33.357630986739849 6.4316577570986837 0 0 1 1 0 0 forward_v I I I I #
face $-1 $64 $65 $23 $-1 $66 reversed single #
loop $-1 $-1 $67 $30 #
plane-surface $-1 -151.51643264736504 24.673587128706941 119.02814989564835 0 1 0 -0.5877852598018023 0 0.80901698891910034 forward_v I I I I #
face $-1 $68 $69 $24 $-1 $70 forward single #
loop $-1 $71 $72 $31 #
cone-surface $-1 -63.091848148992582 31.92691471491937 6.8263739527454881 0.5877852598018023 0 -0.80901698891910034 2.0225424722977507 0 1.4694631495045059 1 I I 0 1 2.5 forward I I I I #
face $-1 $73 $74 $25 $-1 $75 reversed single #
loop $-1 $-1 $76 $32 #
plane-surface $-1 -25.35035354911804 33.598919266224691 111.5443286684216 0.73135370988377701 0 0.68199835119979291 0.68199835119979291 0 -0.73135370988377701 forward_v I I I I #
face $-1 $77 $78 $26 $-1 $79 forward single #
loop $-1 $80 $81 $33 #
cone-surface $-1 66.995741385020949 31.206923679835917 10.227488534185007 -0.73135370988377701 0 -0.68199835119979291 0.68199835119979291 0 -0.73135370988377701 1 I I 0 1 1 forward I I I I #
face $-1 $82 $83 $27 $-1 $84 forward single #
loop $-1 $85 $86 $34 #
cone-surface $-1 66.995741385020949 35.990914852613436 10.227488534185007 -0.73135370988377701 0 -0.68199835119979291 0.68199835119979291 0 -0.73135370988377701 1 I I 0 1 1 forward I I I I #
face $-1 $87 $88 $21 $-1 $89 reversed single #
loop $-1 $-1 $90 $35 #
plane-surface $-1 0 0 -12.908303712199412 0 0 1 1 0 0 forward_v I I I I #
coedge $-1 $91 $92 $93 $94 forward $36 $-1 #
face $-1 $95 $96 $22 $-1 $97 reversed single #
loop $-1 $-1 $98 $38 #
plane-surface $-1 0 -27.535019672347907 9.6699807346490481 0 -1 0 0 0 -1 forward_v I I I I #
coedge $-1 $99 $100 $101 $102 reversed $39 $-1 #
face $-1 $103 $104 $23 $-1 $105 forward single #
loop $-1 $-1 $106 $41 #
plane-surface $-1 -69.644459364604629 31.92691471491937 6.3410482755461715 -0.5877852598018023 0 0.80901698891910034 0.80901698891910034 0 0.5877852598018023 forward_v I I I I #
coedge $-1 $107 $108 $109 $110 reversed $42 $-1 #
face $-1 $-1 $111 $24 $-1 $112 forward single #
loop $-1 $113 $114 $44 #
cone-surface $-1 -60.324031095472463 31.92691471491937 3.0168006754693035 0.5877852598018023 0 -0.80901698891910034 1.0112712361488754 0 0.73473157475225293 1 I I -0.70710678118654746 0.70710678118654746 1.25 forward I I I I #
loop $-1 $-1 $115 $31 #
coedge $-1 $72 $72 $116 $117 reversed $45 $-1 #
face $-1 $118 $119 $25 $-1 $120 forward single #
loop $-1 $-1 $121 $47 #
plane-surface $-1 76.519113909189088 28.017596231317583 206.53914158214428 0 1 0 0.73135370988377701 0 0.68199835119979291 forward_v I I I I #
coedge $-1 $122 $123 $124 $125 reversed $48 $-1 #
face $-1 $-1 $126 $26 $-1 $127 forward single #
loop $-1 $128 $129 $50 #
cone-surface $-1 65.488963470543297 31.206923679835917 8.8223954316131739 -0.73135370988377701 0 -0.68199835119979291 0.34099917559989645 0 -0.36567685494188851 1 I I -0.70710678118654746 0.70710678118654746 0.5 forward I I I I #
loop $-1 $-1 $130 $33 #
coedge $-1 $81 $81 $131 $132 reversed $51 $-1 #
face $-1 $-1 $133 $27 $-1 $134 forward single #
loop $-1 $135 $136 $53 #
cone-surface $-1 65.488963470543297 35.990914852613436 8.8223954316131739 -0.73135370988377701 0 -0.68199835119979291 0.34099917559989645 0 -0.36567685494188851 1 I I -0.70710678118654746 0.70710678118654746 0.5 forward I I I I #
loop $-1 $-1 $137 $34 #
coedge $-1 $86 $86 $138 $139 reversed $54 $-1 #
face $-1 $140 $141 $21 $-1 $142 reversed single #
loop $-1 $-1 $143 $56 #
plane-surface $-1 0 -39.180242301131791 0 0 1 0 0 0 1 forward_v I I I I #
coedge $-1 $144 $145 $146 $147 forward $57 $-1 #
coedge $-1 $148 $59 $149 $150 forward $36 $-1 #
coedge $-1 $59 $148 $151 $152 forward $36 $-1 #
coedge $-1 $153 $154 $59 $94 reversed $155 $-1 #
edge $-1 $156 -39.180242301131791 $157 39.180242301131791 $93 $158 forward 7 unknown #
face $-1 $159 $160 $22 $-1 $161 reversed single #
loop $-1 $-1 $162 $60 #
plane-surface $-1 -69.644459364604643 0 0 1 0 0 0 0 -1 forward_v I I I I #
coedge $-1 $163 $164 $165 $166 reversed $61 $-1 #
coedge $-1 $167 $63 $168 $169 reversed $39 $-1 #
coedge $-1 $63 $167 $163 $170 forward $39 $-1 #
coedge $-1 $165 $171 $63 $102 forward $172 $-1 #
edge $-1 $173 -22.501426807761867 $174 -10.856204178977983 $101 $175 forward 7 unknown #
face $-1 $176 $177 $23 $-1 $178 reversed single #
loop $-1 $-1 $109 $64 #
plane-surface $-1 0 0 12.908303712199412 0 0 1 1 0 0 forward_v I I I I #
coedge $-1 $179 $180 $181 $182 reversed $65 $-1 #
coedge $-1 $108 $67 $183 $184 reversed $42 $-1 #
coedge $-1 $67 $107 $179 $185 reversed $42 $-1 #
coedge $-1 $181 $186 $67 $110 forward $104 $-1 #
edge $-1 $187 6.1137569590778753 $188 15.152808432766285 $109 $189 forward 7 unknown #
loop $-1 $-1 $116 $68 #
plane-surface $-1 -69.644459364604629 31.92691471491937 6.3410482755461715 -0.5877852598018023 0 0.80901698891910034 0.80901698891910034 0 0.5877852598018023 forward_v I I I I #
loop $-1 $-1 $190 $44 #
coedge $-1 $114 $114 $115 $191 reversed $69 $-1 #
coedge $-1 $115 $115 $114 $191 forward $71 $-1 #
coedge $-1 $116 $116 $72 $117 forward $111 $-1 #
edge $-1 $192 0 $192 6.2831853071796004 $116 $193 forward 7 unknown #
face $-1 $194 $195 $25 $-1 $196 reversed single #
loop $-1 $-1 $124 $73 #
plane-surface $-1 0 0 12.908303712199412 0 0 1 1 0 0 forward_v I I I I #
coedge $-1 $197 $198 $199 $200 reversed $74 $-1 #
coedge $-1 $201 $76 $202 $203 reversed $48 $-1 #
coedge $-1 $76 $201 $197 $204 forward $48 $-1 #
coedge $-1 $199 $205 $76 $125 forward $119 $-1 #
edge $-1 $206 -22.380782668019453 $207 -11.218136598205238 $124 $208 forward 7 unknown #
loop $-1 $-1 $131 $77 #
plane-surface $-1 -25.35035354911804 33.598919266224691 111.5443286684216 0.73135370988377701 0 0.68199835119979291 0.68199835119979291 0 -0.73135370988377701 forward_v I I I I #
loop $-1 $-1 $209 $50 #
coedge $-1 $129 $129 $130 $210 reversed $78 $-1 #
coedge $-1 $130 $130 $129 $210 forward $80 $-1 #
coedge $-1 $131 $131 $81 $132 forward $126 $-1 #
edge $-1 $211 0 $211 6.2831853071796004 $131 $212 forward 7 unknown #
loop $-1 $-1 $138 $82 #
plane-surface $-1 -25.35035354911804 33.598919266224691 111.5443286684216 0.73135370988377701 0 0.68199835119979291 0.68199835119979291 0 -0.73135370988377701 forward_v I I I I #
loop $-1 $-1 $213 $53 #
coedge $-1 $136 $136 $137 $214 reversed $83 $-1 #
coedge $-1 $137 $137 $136 $214 forward $85 $-1 #
coedge $-1 $138 $138 $86 $139 forward $133 $-1 #
edge $-1 $215 0 $215 6.2831853071796004 $138 $216 forward 7 unknown #
face $-1 $217 $218 $21 $-1 $219 reversed single #
loop $-1 $-1 $220 $87 #
plane-surface $-1 -69.644459364604643 0 0 1 0 0 0 0 -1 forward_v I I I I #
coedge $-1 $221 $151 $222 $223 forward $88 $-1 #
coedge $-1 $224 $90 $221 $225 forward $57 $-1 #
coedge $-1 $90 $224 $226 $227 forward $57 $-1 #
coedge $-1 $154 $153 $90 $147 reversed $155 $-1 #
edge $-1 $228 -39.180242301131791 $229 39.180242301131791 $146 $230 forward 7 unknown #
coedge $-1 $92 $91 $231 $232 forward $36 $-1 #
coedge $-1 $233 $234 $91 $150 reversed $218 $-1 #
edge $-1 $157 -69.644459364604643 $235 69.644459364604643 $149 $236 forward 7 unknown #
coedge $-1 $143 $237 $92 $152 reversed $88 $-1 #
edge $-1 $238 -69.644459364604643 $156 69.644459364604643 $151 $239 forward 7 unknown #
coedge $-1 $146 $93 $237 $240 forward $155 $-1 #
coedge $-1 $93 $146 $233 $241 reversed $155 $-1 #
loop $-1 $-1 $153 $217 #
vertex $-1 $94 $242 #
vertex $-1 $94 $243 #
straight-curve $-1 69.644459364604643 0 12.908303712199412 0 1 0 I I #
face $-1 $244 $245 $22 $-1 $246 forward single #
loop $-1 $-1 $168 $95 #
plane-surface $-1 0 -39.180242301131791 0 0 1 0 0 0 1 forward_v I I I I #
coedge $-1 $247 $248 $249 $250 forward $96 $-1 #
coedge $-1 $249 $98 $100 $170 reversed $61 $-1 #
coedge $-1 $98 $249 $251 $252 reversed $61 $-1 #
coedge $-1 $253 $101 $98 $166 forward $172 $-1 #
edge $-1 $174 1.5966673897741597 $254 8.0733133448748884 $165 $255 forward 7 unknown #
coedge $-1 $100 $99 $247 $256 reversed $39 $-1 #
coedge $-1 $257 $258 $99 $169 forward $160 $-1 #
edge $-1 $259 -69.644459364604643 $173 69.644459364604643 $168 $260 forward 7 unknown #
edge $-1 $261 -69.644459364604643 $174 69.644459364604643 $163 $262 forward 7 unknown #
coedge $-1 $101 $253 $257 $263 forward $172 $-1 #
loop $-1 $-1 $165 $244 #
vertex $-1 $169 $264 #
vertex $-1 $102 $265 #
straight-curve $-1 69.644459364604643 -16.678815493369925 6.4316577570986837 0 1 0 I I #
face $-1 $-1 $266 $23 $-1 $267 reversed single #
loop $-1 $-1 $268 $103 #
plane-surface $-1 0 39.180242301131791 0 0 -1 0 0 0 -1 forward_v I I I I #
coedge $-1 $269 $106 $108 $185 forward $65 $-1 #
coedge $-1 $106 $269 $268 $270 reversed $65 $-1 #
coedge $-1 $271 $109 $106 $182 forward $104 $-1 #
edge $-1 $188 8.7101297712472565 $272 23.216784943672113 $181 $273 forward 7 unknown #
coedge $-1 $274 $275 $107 $184 forward $266 $-1 #
edge $-1 $276 -53.173026672278013 $187 -46.605771235624765 $183 $277 forward 7 unknown #
edge $-1 $188 -11.172882148946167 $276 1.7761521089745031e-014 $108 $278 forward 7 unknown #
coedge $-1 $109 $271 $274 $279 forward $104 $-1 #
vertex $-1 $184 $280 #
vertex $-1 $110 $281 #
straight-curve $-1 -75.758216323682518 24.673587128706941 12.908303712199412 1 0 0 I I #
coedge $-1 $190 $190 $-1 $282 reversed $113 $-1 #
edge $-1 $283 0 $283 6.2831853071796004 $114 $284 forward 7 unknown #
vertex $-1 $117 $285 #
ellipse-curve $-1 -65.124933627760441 31.92691471491937 9.6246759938727848 -0.5877852598018023 0 0.80901698891910034 2.0225424722977507 0 1.4694631495045059 1 I I #
face $-1 $-1 $286 $25 $-1 $287 reversed single #
loop $-1 $-1 $288 $118 #
plane-surface $-1 69.644459364604643 0 0 -1 0 0 0 0 1 forward_v I I I I #
coedge $-1 $198 $121 $123 $204 reversed $74 $-1 #
coedge $-1 $121 $197 $289 $290 reversed $74 $-1 #
coedge $-1 $291 $124 $121 $200 forward $119 $-1 #
edge $-1 $207 28.369668569914182 $292 31.384902410010099 $199 $293 forward 7 unknown #
coedge $-1 $123 $122 $288 $294 reversed $48 $-1 #
coedge $-1 $295 $296 $122 $203 forward $286 $-1 #
edge $-1 $297 -89.855289773721381 $206 -85.434115096698449 $202 $298 forward 7 unknown #
edge $-1 $299 -139.28891872920929 $207 -134.86774405218634 $197 $300 forward 7 unknown #
coedge $-1 $124 $291 $295 $301 forward $119 $-1 #
vertex $-1 $203 $302 #
vertex $-1 $125 $303 #
straight-curve $-1 66.629225524508726 16.799459633112345 12.908303712199398 0 -1 0 I I #
coedge $-1 $209 $209 $-1 $304 reversed $128 $-1 #
edge $-1 $305 0 $305 6.2831853071796004 $129 $306 forward 7 unknown #
vertex $-1 $132 $307 #
ellipse-curve $-1 68.136842444556692 31.206923679835917 11.291582461156931 0.73135370988377701 0 0.68199835119979291 0.68199835119979291 0 -0.73135370988377701 1 I I #
coedge $-1 $213 $213 $-1 $308 reversed $135 $-1 #
edge $-1 $309 0 $309 6.2831853071796004 $136 $310 forward 7 unknown #
vertex $-1 $139 $311 #
ellipse-curve $-1 68.136842444556692 35.990914852613436 11.291582461156931 0.73135370988377701 0 0.68199835119979291 0.68199835119979291 0 -0.73135370988377701 1 I I #
face $-1 $-1 $155 $21 $-1 $312 reversed single #
loop $-1 $-1 $233 $140 #
plane-surface $-1 0 39.180242301131791 0 0 -1 0 0 0 -1 forward_v I I I I #
coedge $-1 $313 $231 $234 $314 forward $141 $-1 #
coedge $-1 $237 $143 $144 $225 reversed $88 $-1 #
coedge $-1 $231 $313 $143 $223 reversed $141 $-1 #
edge $-1 $238 -12.908303712199412 $315 12.908303712199412 $222 $316 forward 7 unknown #
coedge $-1 $145 $144 $313 $317 forward $57 $-1 #
edge $-1 $229 -69.644459364604643 $315 69.644459364604643 $221 $318 forward 7 unknown #
coedge $-1 $234 $233 $145 $227 reversed $218 $-1 #
edge $-1 $319 -69.644459364604643 $228 69.644459364604643 $226 $320 forward 7 unknown #
vertex $-1 $147 $321 #
vertex $-1 $240 $322 #
straight-curve $-1 69.644459364604643 0 -12.908303712199412 0 -1 0 I I #
coedge $-1 $220 $222 $148 $232 reversed $141 $-1 #
edge $-1 $235 -39.180242301131791 $238 39.180242301131791 $231 $323 forward 7 unknown #
coedge $-1 $226 $149 $154 $241 forward $218 $-1 #
coedge $-1 $149 $226 $220 $314 reversed $218 $-1 #
vertex $-1 $150 $324 #
straight-curve $-1 0 39.180242301131791 12.908303712199412 -1 0 0 I I #
coedge $-1 $151 $221 $153 $240 reversed $88 $-1 #
vertex $-1 $232 $325 #
straight-curve $-1 0 -39.180242301131791 12.908303712199412 1 0 0 I I #
edge $-1 $156 -12.908303712199412 $229 12.908303712199412 $153 $326 forward 7 unknown #
edge $-1 $157 -12.908303712199412 $228 12.908303712199412 $154 $327 forward 7 unknown #
point $-1 69.644459364604643 -39.180242301131791 12.908303712199412 #
point $-1 69.644459364604643 39.180242301131791 12.908303712199412 #
face $-1 $-1 $172 $22 $-1 $328 reversed single #
loop $-1 $-1 $251 $159 #
plane-surface $-1 0 0 12.908303712199412 0 0 1 1 0 0 forward_v I I I I #
coedge $-1 $329 $162 $167 $256 forward $96 $-1 #
coedge $-1 $162 $329 $330 $331 reversed $96 $-1 #
coedge $-1 $164 $163 $162 $250 reversed $61 $-1 #
edge $-1 $332 -8.0733133448748884 $261 -1.5966673897741597 $162 $333 forward 7 unknown #
coedge $-1 $330 $334 $164 $252 forward $245 $-1 #
edge $-1 $254 -69.644459364604643 $332 69.644459364604643 $251 $335 forward 7 unknown #
coedge $-1 $171 $165 $334 $336 reversed $172 $-1 #
vertex $-1 $166 $337 #
straight-curve $-1 69.644459364604643 -27.535019672347907 4.834990367324524 0 0 1 I I #
edge $-1 $261 10.856204178977983 $259 22.501426807761867 $247 $338 forward 7 unknown #
coedge $-1 $339 $168 $171 $263 reversed $160 $-1 #
coedge $-1 $168 $339 $329 $340 forward $160 $-1 #
vertex $-1 $169 $341 #
straight-curve $-1 0 -39.180242301131791 6.4316577570986837 1 0 0 I I #
vertex $-1 $256 $342 #
straight-curve $-1 0 -27.535019672347907 6.4316577570986837 1 0 0 I I #
edge $-1 $343 -12.908303712199412 $173 -6.4316577570986837 $171 $344 forward 7 unknown #
point $-1 69.644459364604643 -39.180242301131791 6.4316577570986837 #
point $-1 69.644459364604643 -27.535019672347907 6.4316577570986837 #
loop $-1 $-1 $183 $176 #
plane-surface $-1 -69.644459364604643 0 0 1 0 0 0 0 -1 forward_v I I I I #
coedge $-1 $345 $346 $180 $270 forward $177 $-1 #
coedge $-1 $180 $179 $275 $347 reversed $65 $-1 #
edge $-1 $272 15.135305902050531 $348 26.308188050996716 $268 $349 forward 7 unknown #
coedge $-1 $186 $181 $346 $350 forward $104 $-1 #
vertex $-1 $350 $351 #
straight-curve $-1 -60.605407890916233 15.963457357459685 12.908303712199412 0 1 0 I I #
coedge $-1 $352 $183 $186 $279 reversed $266 $-1 #
coedge $-1 $183 $352 $269 $347 forward $266 $-1 #
vertex $-1 $184 $353 #
straight-curve $-1 -69.644459364604643 24.673587128706941 59.514074947824177 0 0 1 I I #
straight-curve $-1 -69.644459364604629 24.673587128706941 6.3410482755461715 -0.80901698891910034 0 -0.5877852598018023 I I #
edge $-1 $354 -39.180242301131791 $187 -24.673587128706941 $274 $355 forward 7 unknown #
point $-1 -69.644459364604643 24.673587128706941 12.908303712199412 #
point $-1 -60.605407890916233 24.673587128706941 12.908303712199412 #
edge $-1 $356 1 $356 0 $190 $-1 forward 7 unknown #
vertex $-1 $191 $357 #
ellipse-curve $-1 -61.058762670224716 31.92691471491937 4.0280719116181789 -0.5877852598018023 0 0.80901698891910034 2.0225424722977507 0 1.4694631495045059 1 I I #
point $-1 -63.102391155462705 31.92691471491937 11.094139143377303 #
loop $-1 $-1 $202 $194 #
plane-surface $-1 0 39.180242301131791 0 0 -1 0 0 0 -1 forward_v I I I I #
coedge $-1 $358 $289 $201 $294 forward $195 $-1 #
coedge $-1 $288 $359 $198 $290 forward $195 $-1 #
edge $-1 $292 90.361267078872729 $299 93.594709580957669 $289 $360 forward 7 unknown #
coedge $-1 $205 $199 $359 $361 forward $119 $-1 #
vertex $-1 $361 $362 #
straight-curve $-1 38.259556954594544 28.017596231317583 12.908303712199412 1 0 0 I I #
edge $-1 $299 11.218136598205238 $297 22.380782668019453 $288 $363 forward 7 unknown #
coedge $-1 $296 $202 $205 $301 reversed $286 $-1 #
coedge $-1 $202 $295 $358 $364 forward $286 $-1 #
vertex $-1 $203 $365 #
straight-curve $-1 8.3632998923470474 39.180242301131791 75.390860738807419 -0.68199835119979291 0 0.73135370988377701 I I #
vertex $-1 $294 $366 #
straight-curve $-1 -25.35035354911804 28.017596231317583 111.5443286684216 -0.68199835119979291 0 0.73135370988377701 I I #
edge $-1 $367 -69.644459364604643 $206 -66.629225524508726 $295 $368 forward 7 unknown #
point $-1 66.629225524508726 39.180242301131798 12.908303712199412 #
point $-1 66.629225524508726 28.017596231317583 12.908303712199412 #
edge $-1 $369 1 $369 0 $209 $-1 forward 7 unknown #
vertex $-1 $210 $370 #
ellipse-curve $-1 65.854640325485178 31.206923679835917 9.1633946072130712 0.73135370988377701 0 0.68199835119979291 0.68199835119979291 0 -0.73135370988377701 1 I I #
point $-1 68.818840795756486 31.206923679835917 10.560228751273165 #
edge $-1 $371 1 $371 0 $213 $-1 forward 7 unknown #
vertex $-1 $214 $372 #
ellipse-curve $-1 65.854640325485178 35.990914852613436 9.1633946072130712 0.73135370988377701 0 0.68199835119979291 0.68199835119979291 0 -0.73135370988377701 1 I I #
point $-1 68.818840795756486 35.990914852613436 10.560228751273165 #
plane-surface $-1 69.644459364604643 0 0 -1 0 0 0 0 1 forward_v I I I I #
coedge $-1 $222 $220 $224 $317 reversed $141 $-1 #
edge $-1 $235 -12.908303712199412 $319 12.908303712199412 $234 $373 forward 7 unknown #
vertex $-1 $317 $374 #
straight-curve $-1 -69.644459364604643 -39.180242301131791 0 0 0 -1 I I #
edge $-1 $315 -39.180242301131791 $319 39.180242301131791 $313 $375 forward 7 unknown #
straight-curve $-1 0 -39.180242301131791 -12.908303712199412 -1 0 0 I I #
vertex $-1 $227 $376 #
straight-curve $-1 0 39.180242301131791 -12.908303712199412 1 0 0 I I #
point $-1 69.644459364604643 39.180242301131791 -12.908303712199412 #
point $-1 69.644459364604643 -39.180242301131791 -12.908303712199412 #
straight-curve $-1 -69.644459364604643 0 12.908303712199412 0 -1 0 I I #
point $-1 -69.644459364604643 39.180242301131791 12.908303712199412 #
point $-1 -69.644459364604643 -39.180242301131791 12.908303712199412 #
straight-curve $-1 69.644459364604643 -39.180242301131791 0 0 0 -1 I I #
straight-curve $-1 69.644459364604643 39.180242301131791 0 0 0 -1 I I #
plane-surface $-1 69.644459364604643 0 0 -1 0 0 0 0 1 forward_v I I I I #
coedge $-1 $248 $247 $258 $340 reversed $96 $-1 #
coedge $-1 $377 $251 $248 $331 forward $245 $-1 #
edge $-1 $332 27.535019672347907 $378 39.180242301131791 $248 $379 forward 7 unknown #
vertex $-1 $331 $380 #
straight-curve $-1 -69.644459364604643 -27.535019672347907 4.834990367324524 0 0 -1 I I #
coedge $-1 $251 $377 $253 $336 forward $245 $-1 #
straight-curve $-1 0 -27.535019672347907 12.908303712199412 -1 0 0 I I #
edge $-1 $343 -39.180242301131791 $254 -27.535019672347907 $253 $381 forward 7 unknown #
point $-1 69.644459364604643 -27.535019672347907 12.908303712199412 #
straight-curve $-1 -69.644459364604643 -16.678815493369925 6.4316577570986837 0 -1 0 I I #
coedge $-1 $258 $257 $377 $382 reversed $160 $-1 #
edge $-1 $378 -12.908303712199412 $259 -6.4316577570986837 $329 $383 forward 7 unknown #
point $-1 -69.644459364604643 -39.180242301131791 6.4316577570986837 #
point $-1 -69.644459364604643 -27.535019672347907 6.4316577570986837 #
vertex $-1 $336 $384 #
straight-curve $-1 69.644459364604643 -39.180242301131791 0 0 0 -1 I I #
coedge $-1 $346 $268 $352 $385 reversed $177 $-1 #
coedge $-1 $268 $345 $271 $350 reversed $177 $-1 #
edge $-1 $348 -23.216784943672113 $276 -8.7101297712472565 $275 $386 forward 7 unknown #
vertex $-1 $270 $387 #
straight-curve $-1 -48.360688283669823 39.180242301131791 21.804613424015937 -0.80901698891910034 0 -0.5877852598018023 I I #
edge $-1 $272 60.605407890916233 $354 69.644459364604643 $346 $388 forward 7 unknown #
point $-1 -60.605407890916233 39.180242301131798 12.908303712199412 #
coedge $-1 $275 $274 $345 $385 forward $266 $-1 #
point $-1 -69.644459364604643 24.673587128706941 6.3410482755461608 #
vertex $-1 $350 $389 #
straight-curve $-1 -69.644459364604643 0 12.908303712199412 0 -1 0 I I #
vertex $-1 $282 $390 #
point $-1 -59.036220197926966 31.92691471491937 5.4975350611226848 #
coedge $-1 $359 $288 $296 $364 reversed $195 $-1 #
coedge $-1 $289 $358 $291 $361 reversed $195 $-1 #
straight-curve $-1 69.644459364604643 28.017596231317583 103.26957079107214 0 0 -1 I I #
edge $-1 $292 28.017596231317583 $367 39.180242301131791 $359 $391 forward 7 unknown #
point $-1 69.644459364604643 28.017596231317583 12.908303712199412 #
straight-curve $-1 69.644459364604643 16.799459633112345 9.6748612101144786 0 1 0 I I #
edge $-1 $367 -12.908303712199412 $297 -9.6748612101144715 $358 $392 forward 7 unknown #
point $-1 69.644459364604643 39.180242301131798 9.6748612101144715 #
point $-1 69.644459364604643 28.017596231317583 9.6748612101144715 #
vertex $-1 $361 $393 #
straight-curve $-1 0 39.180242301131791 12.908303712199412 -1 0 0 I I #
vertex $-1 $304 $394 #
point $-1 66.536638676684973 31.206923679835917 8.4320408973292942 #
vertex $-1 $308 $395 #
point $-1 66.536638676684973 35.990914852613436 8.4320408973292942 #
straight-curve $-1 -69.644459364604643 39.180242301131791 0 0 0 -1 I I #
point $-1 -69.644459364604643 -39.180242301131791 -12.908303712199412 #
straight-curve $-1 -69.644459364604643 0 -12.908303712199412 0 1 0 I I #
point $-1 -69.644459364604643 39.180242301131791 -12.908303712199412 #
coedge $-1 $334 $330 $339 $382 forward $245 $-1 #
vertex $-1 $331 $396 #
straight-curve $-1 -69.644459364604643 0 12.908303712199412 0 -1 0 I I #
point $-1 -69.644459364604643 -27.535019672347907 12.908303712199412 #
straight-curve $-1 69.644459364604643 0 12.908303712199412 0 1 0 I I #
edge $-1 $378 -69.644459364604643 $343 69.644459364604643 $339 $397 forward 7 unknown #
straight-curve $-1 -69.644459364604643 -39.180242301131791 0 0 0 -1 I I #
point $-1 69.644459364604643 -39.180242301131791 12.908303712199412 #
edge $-1 $354 -12.908303712199412 $348 -6.3410482755461608 $345 $398 forward 7 unknown #
straight-curve $-1 -69.644459364604643 15.963457357459685 6.3410482755461652 0 -1 0 I I #
point $-1 -69.644459364604643 39.180242301131798 6.3410482755461608 #
straight-curve $-1 0 39.180242301131791 12.908303712199412 -1 0 0 I I #
point $-1 -69.644459364604643 39.180242301131791 12.908303712199412 #
point $-1 -59.589299520720211 31.92691471491937 2.0055294393204282 #
straight-curve $-1 69.644459364604643 0 12.908303712199412 0 1 0 I I #
straight-curve $-1 69.644459364604643 39.180242301131791 0 0 0 -1 I I #
point $-1 69.644459364604643 39.180242301131791 12.908303712199412 #
point $-1 65.123286615601415 31.206923679835917 8.4813962560132765 #
point $-1 65.123286615601415 35.990914852613436 8.4813962560132765 #
point $-1 -69.644459364604643 -39.180242301131791 12.908303712199412 #
straight-curve $-1 0 -39.180242301131791 12.908303712199412 1 0 0 I I #
straight-curve $-1 -69.644459364604643 39.180242301131791 0 0 0 -1 I I #
End-of-ACIS-data 