500 0 6 0           
7 Unknown 11 ACIS 5.0 NT 24 Fri Mar 26 14:29:50 1999 
-1 9.9999999999999995e-007 1e-010 
body $-1 $6 $-1 $7 #
body $-1 $8 $-1 $9 #
body $-1 $10 $-1 $11 #
body $-1 $12 $-1 $13 #
body $-1 $14 $-1 $15 #
body $-1 $16 $-1 $17 #
lump $-1 $-1 $18 $0 #
transform $-1 1 0 0 0 1 0 0 0 1 74.142887661366615 49.893432026792198 12.904959719030405 1 rotate no_reflect no_shear #
lump $-1 $-1 $19 $1 #
transform $-1 1 0 0 0 1 0 0 0 1 74.142887661366615 49.893432026792198 12.904959719030405 1 rotate no_reflect no_shear #
lump $-1 $-1 $20 $2 #
transform $-1 1 0 0 0 1 0 0 0 1 74.142887661366615 49.893432026792198 12.904959719030405 1 rotate no_reflect no_shear #
lump $-1 $-1 $21 $3 #
transform $-1 1 0 0 0 1 0 0 0 1 74.142887661366615 49.893432026792198 12.904959719030405 1 rotate no_reflect no_shear #
lump $-1 $-1 $22 $4 #
transform $-1 1 0 0 0 1 0 0 0 1 74.142887661366615 49.893432026792198 12.904959719030405 1 rotate no_reflect no_shear #
lump $-1 $-1 $23 $5 #
transform $-1 1 0 0 0 1 0 0 0 1 74.142887661366615 49.893432026792198 12.904959719030405 1 rotate no_reflect no_shear #
shell $-1 $-1 $-1 $24 $-1 $6 #
shell $-1 $-1 $-1 $25 $-1 $8 #
shell $-1 $-1 $-1 $26 $-1 $10 #
shell $-1 $-1 $-1 $27 $-1 $12 #
shell $-1 $-1 $-1 $28 $-1 $14 #
shell $-1 $-1 $-1 $29 $-1 $16 #
face $-1 $30 $31 $18 $-1 $32 forward single #
face $-1 $33 $34 $19 $-1 $35 forward single #
face $-1 $36 $37 $20 $-1 $38 reversed single #
face $-1 $39 $40 $21 $-1 $41 forward single #
face $-1 $42 $43 $22 $-1 $44 reversed single #
face $-1 $45 $46 $23 $-1 $47 forward single #
face $-1 $48 $49 $18 $-1 $50 reversed single #
loop $-1 $-1 $51 $24 #
plane-surface $-1 0 0 12.904959719030405 0 0 1 1 0 0 forward_v I I I I #
face $-1 $52 $53 $19 $-1 $54 reversed single #
loop $-1 $-1 $55 $25 #
plane-surface $-1 0 -45.323523768441405 5.6267467311226049 0 0 1 1 0 0 forward_v I I I I #
face $-1 $56 $57 $20 $-1 $58 reversed single #
loop $-1 $-1 $59 $26 #
plane-surface $-1 -186.055584137273 17.277943062835256 97.759109475111316 0 1 0 -0.75470958851134928 0 0.65605901945558964 forward_v I I I I #
face $-1 $60 $61 $21 $-1 $62 forward single #
loop $-1 $63 $64 $27 #
cone-surface $-1 -67.55999718892852 22.47091481135844 5.6639549890540746 0.75470958851134928 0 -0.65605901945558964 0.98408852918338452 0 1.132064382767024 1 I I 0 1 1.5 forward I I I I #
face $-1 $65 $66 $22 $-1 $67 reversed single #
loop $-1 $-1 $68 $28 #
plane-surface $-1 88.771363779828789 27.663886559881654 209.67180595101769 0 -1 0 -0.75470958851134928 0 -0.65605901945558964 forward_v I I I I #
face $-1 $69 $70 $23 $-1 $71 forward single #
loop $-1 $72 $73 $29 #
cone-surface $-1 67.55999718892852 22.47091481135844 5.6639549890540817 -0.75470958851134928 0 -0.65605901945558964 0.98408852918338452 0 -1.132064382767024 1 I I 0 1 1.5 forward I I I I #
face $-1 $74 $75 $18 $-1 $76 reversed single #
loop $-1 $-1 $77 $30 #
plane-surface $-1 0 0 -12.904959719030405 0 0 1 1 0 0 forward_v I I I I #
coedge $-1 $78 $79 $80 $81 forward $31 $-1 #
face $-1 $82 $83 $19 $-1 $84 reversed single #
loop $-1 $-1 $85 $33 #
plane-surface $-1 0 -45.323523768441405 0.39363531504409366 0 0 1 1 0 0 forward_v I I I I #
coedge $-1 $86 $87 $88 $89 reversed $34 $-1 #
face $-1 $90 $91 $20 $-1 $92 reversed single #
loop $-1 $-1 $93 $36 #
plane-surface $-1 -74.142887661366615 22.470914811358455 0.47488911766707531 -0.75470958851134928 0 0.65605901945558964 0.65605901945558964 0 0.75470958851134928 forward_v I I I I #
coedge $-1 $94 $95 $96 $97 reversed $37 $-1 #
face $-1 $-1 $98 $21 $-1 $99 forward single #
loop $-1 $100 $101 $39 #
cone-surface $-1 -65.81372214919466 22.47091481135844 4.1459412951677201 0.75470958851134928 0 -0.65605901945558964 0.49204426459169226 0 0.56603219138351202 1 I I -0.70710678118654757 0.70710678118654757 0.75 forward I I I I #
loop $-1 $-1 $102 $27 #
coedge $-1 $64 $64 $103 $104 reversed $40 $-1 #
face $-1 $105 $106 $22 $-1 $107 reversed single #
loop $-1 $-1 $108 $42 #
plane-surface $-1 -23.141332696077598 22.470914811358455 112.38758559357345 0.75470958851134928 0 0.65605901945558964 0.65605901945558964 0 -0.75470958851134928 forward_v I I I I #
coedge $-1 $109 $110 $111 $112 reversed $43 $-1 #
face $-1 $-1 $113 $23 $-1 $114 forward single #
loop $-1 $115 $116 $45 #
cone-surface $-1 65.81372214919466 22.47091481135844 4.1459412951677272 -0.75470958851134928 0 -0.65605901945558964 0.49204426459169226 0 -0.56603219138351202 1 I I -0.70710678118654757 0.70710678118654757 0.75 forward I I I I #
loop $-1 $-1 $117 $29 #
coedge $-1 $73 $73 $118 $119 reversed $46 $-1 #
face $-1 $120 $121 $18 $-1 $122 reversed single #
loop $-1 $-1 $123 $48 #
plane-surface $-1 0 -49.893432026792198 0 0 1 0 0 0 1 forward_v I I I I #
coedge $-1 $124 $125 $126 $127 forward $49 $-1 #
coedge $-1 $128 $51 $129 $130 forward $31 $-1 #
coedge $-1 $51 $128 $131 $132 forward $31 $-1 #
coedge $-1 $133 $134 $51 $81 reversed $135 $-1 #
edge $-1 $136 -49.893432026792198 $137 49.893432026792198 $80 $138 forward 7 unknown #
face $-1 $139 $140 $19 $-1 $141 reversed single #
loop $-1 $-1 $142 $52 #
plane-surface $-1 0 -40.753615510090611 3.0101910230833493 0 -1 0 0 0 -1 forward_v I I I I #
coedge $-1 $143 $144 $145 $146 reversed $53 $-1 #
coedge $-1 $147 $55 $148 $149 forward $34 $-1 #
coedge $-1 $55 $147 $150 $151 reversed $34 $-1 #
coedge $-1 $152 $153 $55 $89 forward $154 $-1 #
edge $-1 $155 18.091853625869909 $156 27.231670142571495 $88 $157 forward 7 unknown #
face $-1 $158 $159 $20 $-1 $160 reversed single #
loop $-1 $-1 $161 $56 #
plane-surface $-1 -186.055584137273 27.663886559881654 97.759109475111316 0 -1 0 0.75470958851134928 0 -0.65605901945558964 forward_v I I I I #
coedge $-1 $162 $163 $164 $165 reversed $57 $-1 #
coedge $-1 $95 $59 $166 $167 reversed $37 $-1 #
coedge $-1 $59 $94 $162 $168 reversed $37 $-1 #
coedge $-1 $164 $169 $59 $97 forward $170 $-1 #
edge $-1 $171 18.884904407269886 $172 29.690199655445397 $96 $173 forward 7 unknown #
loop $-1 $-1 $103 $60 #
plane-surface $-1 -74.142887661366615 22.470914811358455 0.47488911766707531 -0.75470958851134928 0 0.65605901945558964 0.65605901945558964 0 0.75470958851134928 forward_v I I I I #
loop $-1 $-1 $174 $39 #
coedge $-1 $101 $101 $102 $175 reversed $61 $-1 #
coedge $-1 $102 $102 $101 $175 forward $63 $-1 #
coedge $-1 $103 $103 $64 $104 forward $98 $-1 #
edge $-1 $176 0 $176 6.2831853071796004 $103 $177 forward 7 unknown #
face $-1 $178 $179 $22 $-1 $180 forward single #
loop $-1 $-1 $181 $65 #
plane-surface $-1 88.771363779828789 17.277943062835256 209.67180595101769 0 1 0 0.75470958851134928 0 0.65605901945558964 forward_v I I I I #
coedge $-1 $182 $183 $184 $185 reversed $66 $-1 #
coedge $-1 $110 $68 $186 $187 reversed $43 $-1 #
coedge $-1 $68 $109 $182 $188 reversed $43 $-1 #
coedge $-1 $184 $189 $68 $112 forward $179 $-1 #
edge $-1 $190 -29.75720577145222 $191 -18.951910523276709 $111 $192 forward 7 unknown #
loop $-1 $-1 $118 $69 #
plane-surface $-1 -23.141332696077598 22.470914811358455 112.38758559357345 0.75470958851134928 0 0.65605901945558964 0.65605901945558964 0 -0.75470958851134928 forward_v I I I I #
loop $-1 $-1 $193 $45 #
coedge $-1 $116 $116 $117 $194 reversed $70 $-1 #
coedge $-1 $117 $117 $116 $194 forward $72 $-1 #
coedge $-1 $118 $118 $73 $119 forward $113 $-1 #
edge $-1 $195 0 $195 6.2831853071796004 $118 $196 forward 7 unknown #
face $-1 $197 $198 $18 $-1 $199 reversed single #
loop $-1 $-1 $200 $74 #
plane-surface $-1 -74.142887661366615 0 0 1 0 0 0 0 -1 forward_v I I I I #
coedge $-1 $201 $131 $202 $203 forward $75 $-1 #
coedge $-1 $204 $77 $201 $205 forward $49 $-1 #
coedge $-1 $77 $204 $206 $207 forward $49 $-1 #
coedge $-1 $134 $133 $77 $127 reversed $135 $-1 #
edge $-1 $208 -49.893432026792198 $209 49.893432026792198 $126 $210 forward 7 unknown #
coedge $-1 $79 $78 $211 $212 forward $31 $-1 #
coedge $-1 $213 $214 $78 $130 reversed $198 $-1 #
edge $-1 $137 -74.142887661366615 $215 74.142887661366615 $129 $216 forward 7 unknown #
coedge $-1 $123 $217 $79 $132 reversed $75 $-1 #
edge $-1 $218 -74.142887661366615 $136 74.142887661366615 $131 $219 forward 7 unknown #
coedge $-1 $126 $80 $217 $220 forward $135 $-1 #
coedge $-1 $80 $126 $213 $221 reversed $135 $-1 #
loop $-1 $-1 $133 $197 #
vertex $-1 $81 $222 #
vertex $-1 $81 $223 #
straight-curve $-1 74.142887661366615 0 12.904959719030405 0 1 0 I I #
face $-1 $224 $225 $19 $-1 $226 reversed single #
loop $-1 $-1 $227 $82 #
plane-surface $-1 -74.142887661366615 0 0 1 0 0 0 0 -1 forward_v I I I I #
coedge $-1 $228 $148 $153 $229 reversed $83 $-1 #
coedge $-1 $230 $85 $231 $232 reversed $53 $-1 #
coedge $-1 $85 $230 $228 $233 forward $53 $-1 #
coedge $-1 $153 $152 $85 $146 forward $154 $-1 #
edge $-1 $234 -27.231670142571495 $235 -18.091853625869909 $145 $236 forward 7 unknown #
coedge $-1 $87 $86 $227 $237 reversed $34 $-1 #
coedge $-1 $142 $238 $86 $149 reversed $83 $-1 #
edge $-1 $155 -74.142887661366615 $239 74.142887661366615 $148 $240 forward 7 unknown #
coedge $-1 $241 $242 $87 $151 forward $225 $-1 #
edge $-1 $156 -74.142887661366615 $243 74.142887661366615 $150 $244 forward 7 unknown #
coedge $-1 $145 $88 $242 $245 forward $154 $-1 #
coedge $-1 $88 $145 $142 $229 forward $154 $-1 #
loop $-1 $-1 $88 $224 #
vertex $-1 $89 $246 #
vertex $-1 $245 $247 #
straight-curve $-1 74.142887661366615 -22.661761884220702 5.6267467311226049 0 -1 0 I I #
face $-1 $-1 $170 $20 $-1 $248 forward single #
loop $-1 $-1 $249 $90 #
plane-surface $-1 -74.142887661366615 0 0 1 0 0 0 0 -1 forward_v I I I I #
coedge $-1 $250 $251 $252 $253 reversed $91 $-1 #
coedge $-1 $254 $93 $95 $168 forward $57 $-1 #
coedge $-1 $93 $254 $250 $255 forward $57 $-1 #
coedge $-1 $252 $96 $93 $165 forward $170 $-1 #
edge $-1 $172 6.0424856571560284 $256 16.428429154202426 $164 $257 forward 7 unknown #
coedge $-1 $258 $259 $94 $167 forward $159 $-1 #
edge $-1 $260 -48.404665619888583 $171 -35.97459501852525 $166 $261 forward 7 unknown #
edge $-1 $172 -16.470004874168112 $260 0 $95 $262 forward 7 unknown #
coedge $-1 $96 $252 $258 $263 forward $170 $-1 #
loop $-1 $-1 $252 $158 #
vertex $-1 $167 $264 #
vertex $-1 $97 $265 #
straight-curve $-1 -93.027792068636501 17.277943062835256 12.904959719030401 1 0 0 I I #
coedge $-1 $174 $174 $-1 $266 reversed $100 $-1 #
edge $-1 $267 0 $267 6.2831853071796004 $101 $268 forward 7 unknown #
vertex $-1 $104 $269 #
ellipse-curve $-1 -68.740240037278866 22.47091481135844 6.6899244183487365 -0.75470958851134928 0 0.65605901945558964 0.98408852918338452 0 1.132064382767024 1 I I #
face $-1 $-1 $270 $22 $-1 $271 reversed single #
loop $-1 $-1 $111 $105 #
plane-surface $-1 0 0 12.904959719030405 0 0 1 1 0 0 forward_v I I I I #
coedge $-1 $272 $273 $274 $275 reversed $106 $-1 #
coedge $-1 $276 $108 $110 $188 forward $66 $-1 #
coedge $-1 $108 $276 $272 $277 forward $66 $-1 #
coedge $-1 $274 $111 $108 $185 forward $179 $-1 #
edge $-1 $191 -16.428429154202426 $278 -6.0424856571560284 $184 $279 forward 7 unknown #
coedge $-1 $280 $281 $109 $187 forward $270 $-1 #
edge $-1 $282 -104.36101385784175 $190 -91.930943256478443 $186 $283 forward 7 unknown #
edge $-1 $191 131.81577044856513 $282 148.28577532273323 $110 $284 forward 7 unknown #
coedge $-1 $111 $274 $280 $285 forward $179 $-1 #
vertex $-1 $187 $286 #
vertex $-1 $112 $287 #
straight-curve $-1 44.385681889914395 27.663886559881654 12.904959719030401 -1 0 0 I I #
coedge $-1 $193 $193 $-1 $288 reversed $115 $-1 #
edge $-1 $289 0 $289 6.2831853071796004 $116 $290 forward 7 unknown #
vertex $-1 $119 $291 #
ellipse-curve $-1 68.740240037278866 22.47091481135844 6.6899244183487472 0.75470958851134928 0 0.65605901945558964 0.98408852918338452 0 -1.132064382767024 1 I I #
face $-1 $-1 $135 $18 $-1 $292 reversed single #
loop $-1 $-1 $213 $120 #
plane-surface $-1 0 49.893432026792198 0 0 -1 0 0 0 -1 forward_v I I I I #
coedge $-1 $293 $211 $214 $294 forward $121 $-1 #
coedge $-1 $217 $123 $124 $205 reversed $75 $-1 #
coedge $-1 $211 $293 $123 $203 reversed $121 $-1 #
edge $-1 $218 -12.904959719030405 $295 12.904959719030405 $202 $296 forward 7 unknown #
coedge $-1 $125 $124 $293 $297 forward $49 $-1 #
edge $-1 $209 -74.142887661366615 $295 74.142887661366615 $201 $298 forward 7 unknown #
coedge $-1 $214 $213 $125 $207 reversed $198 $-1 #
edge $-1 $299 -74.142887661366615 $208 74.142887661366615 $206 $300 forward 7 unknown #
vertex $-1 $127 $301 #
vertex $-1 $220 $302 #
straight-curve $-1 74.142887661366615 0 -12.904959719030405 0 -1 0 I I #
coedge $-1 $200 $202 $128 $212 reversed $121 $-1 #
edge $-1 $215 -49.893432026792198 $218 49.893432026792198 $211 $303 forward 7 unknown #
coedge $-1 $206 $129 $134 $221 forward $198 $-1 #
coedge $-1 $129 $206 $200 $294 reversed $198 $-1 #
vertex $-1 $130 $304 #
straight-curve $-1 0 49.893432026792198 12.904959719030405 -1 0 0 I I #
coedge $-1 $131 $201 $133 $220 reversed $75 $-1 #
vertex $-1 $212 $305 #
straight-curve $-1 0 -49.893432026792198 12.904959719030405 1 0 0 I I #
edge $-1 $136 -12.904959719030405 $209 12.904959719030405 $133 $306 forward 7 unknown #
edge $-1 $137 -12.904959719030405 $208 12.904959719030405 $134 $307 forward 7 unknown #
point $-1 74.142887661366615 -49.893432026792198 12.904959719030405 #
point $-1 74.142887661366615 49.893432026792198 12.904959719030405 #
face $-1 $-1 $154 $19 $-1 $308 reversed single #
loop $-1 $-1 $150 $139 #
plane-surface $-1 0 -49.893432026792198 0 0 1 0 0 0 1 forward_v I I I I #
coedge $-1 $309 $310 $147 $237 forward $140 $-1 #
coedge $-1 $238 $142 $144 $233 reversed $83 $-1 #
edge $-1 $235 -1.111460196497581 $155 4.1216512195809303 $153 $311 forward 7 unknown #
coedge $-1 $144 $143 $312 $313 reversed $53 $-1 #
coedge $-1 $242 $241 $143 $232 forward $225 $-1 #
edge $-1 $314 -74.142887661366615 $234 74.142887661366615 $231 $315 forward 7 unknown #
edge $-1 $316 -74.142887661366615 $235 74.142887661366615 $228 $317 forward 7 unknown #
vertex $-1 $232 $318 #
vertex $-1 $146 $319 #
straight-curve $-1 74.142887661366615 -22.661761884220702 0.39363531504409366 0 1 0 I I #
edge $-1 $243 -27.231670142571495 $239 -18.091853625869909 $227 $320 forward 7 unknown #
coedge $-1 $148 $228 $309 $321 reversed $83 $-1 #
vertex $-1 $237 $322 #
straight-curve $-1 0 -40.753615510090611 5.6267467311226049 -1 0 0 I I #
coedge $-1 $231 $150 $310 $323 forward $225 $-1 #
coedge $-1 $150 $231 $152 $245 reversed $225 $-1 #
vertex $-1 $323 $324 #
straight-curve $-1 0 -49.893432026792198 5.6267467311226049 -1 0 0 I I #
edge $-1 $156 -5.6267467311226049 $234 -0.39363531504409366 $152 $325 forward 7 unknown #
point $-1 74.142887661366615 -40.753615510090611 5.6267467311226049 #
point $-1 74.142887661366615 -49.893432026792198 5.6267467311226049 #
plane-surface $-1 0 0 12.904959719030405 0 0 1 1 0 0 forward_v I I I I #
coedge $-1 $259 $258 $251 $326 forward $159 $-1 #
coedge $-1 $251 $161 $163 $255 reversed $91 $-1 #
coedge $-1 $161 $250 $249 $326 reversed $91 $-1 #
coedge $-1 $169 $164 $161 $253 forward $170 $-1 #
edge $-1 $256 -29.690199655445397 $327 -18.884904407269886 $252 $328 forward 7 unknown #
coedge $-1 $163 $162 $259 $329 reversed $57 $-1 #
edge $-1 $330 0 $256 16.470004874168112 $250 $331 forward 7 unknown #
vertex $-1 $165 $332 #
straight-curve $-1 -63.337592413191103 11.235457405679227 12.904959719030405 0 1 0 I I #
coedge $-1 $249 $166 $169 $263 reversed $159 $-1 #
coedge $-1 $166 $249 $254 $329 forward $159 $-1 #
vertex $-1 $167 $333 #
straight-curve $-1 -74.142887661366615 17.277943062835256 48.879554737555658 0 0 1 I I #
straight-curve $-1 -74.142887661366615 17.277943062835256 0.47488911766707531 -0.65605901945558964 0 -0.75470958851134928 I I #
edge $-1 $327 -27.663886559881654 $171 -17.277943062835256 $258 $334 forward 7 unknown #
point $-1 -74.142887661366615 17.277943062835256 12.904959719030405 #
point $-1 -63.337592413191103 17.277943062835256 12.904959719030405 #
edge $-1 $335 1 $335 0 $174 $-1 forward 7 unknown #
vertex $-1 $175 $336 #
ellipse-curve $-1 -66.379754340578174 22.47091481135844 4.6379855597594126 -0.75470958851134928 0 0.65605901945558964 0.98408852918338452 0 1.132064382767024 1 I I #
point $-1 -67.756151508095471 22.47091481135844 7.8219888011157597 #
loop $-1 $-1 $186 $178 #
plane-surface $-1 74.142887661366615 0 0 -1 0 0 0 0 1 forward_v I I I I #
coedge $-1 $273 $181 $183 $277 reversed $106 $-1 #
coedge $-1 $181 $272 $337 $338 reversed $106 $-1 #
coedge $-1 $189 $184 $181 $275 forward $179 $-1 #
edge $-1 $278 18.951910523276709 $339 29.75720577145222 $274 $340 forward 7 unknown #
coedge $-1 $183 $182 $281 $341 reversed $66 $-1 #
edge $-1 $342 -148.28577532273323 $278 -131.81577044856513 $272 $343 forward 7 unknown #
vertex $-1 $185 $344 #
straight-curve $-1 63.337592413191111 11.235457405679227 12.904959719030387 0 -1 0 I I #
coedge $-1 $337 $186 $189 $285 reversed $270 $-1 #
coedge $-1 $186 $337 $276 $341 forward $270 $-1 #
vertex $-1 $187 $345 #
straight-curve $-1 74.142887661366615 27.663886559881654 104.83590297550884 0 0 1 I I #
straight-curve $-1 -23.141332696077598 27.663886559881654 112.38758559357345 0.65605901945558964 0 -0.75470958851134928 I I #
edge $-1 $339 17.277943062835256 $190 27.663886559881654 $280 $346 forward 7 unknown #
point $-1 74.142887661366615 27.663886559881654 12.904959719030405 #
point $-1 63.337592413191103 27.663886559881654 12.904959719030415 #
edge $-1 $347 1 $347 0 $193 $-1 forward 7 unknown #
vertex $-1 $194 $348 #
ellipse-curve $-1 66.379754340578174 22.47091481135844 4.6379855597594197 0.75470958851134928 0 0.65605901945558964 0.98408852918338452 0 -1.132064382767024 1 I I #
point $-1 69.724328566462248 22.47091481135844 5.5578600355817187 #
plane-surface $-1 74.142887661366615 0 0 -1 0 0 0 0 1 forward_v I I I I #
coedge $-1 $202 $200 $204 $297 reversed $121 $-1 #
edge $-1 $215 -12.904959719030405 $299 12.904959719030405 $214 $349 forward 7 unknown #
vertex $-1 $297 $350 #
straight-curve $-1 -74.142887661366615 -49.893432026792198 0 0 0 -1 I I #
edge $-1 $295 -49.893432026792198 $299 49.893432026792198 $293 $351 forward 7 unknown #
straight-curve $-1 0 -49.893432026792198 -12.904959719030405 -1 0 0 I I #
vertex $-1 $207 $352 #
straight-curve $-1 0 49.893432026792198 -12.904959719030405 1 0 0 I I #
point $-1 74.142887661366615 49.893432026792198 -12.904959719030405 #
point $-1 74.142887661366615 -49.893432026792198 -12.904959719030405 #
straight-curve $-1 -74.142887661366615 0 12.904959719030405 0 -1 0 I I #
point $-1 -74.142887661366615 49.893432026792198 12.904959719030405 #
point $-1 -74.142887661366615 -49.893432026792198 12.904959719030405 #
straight-curve $-1 74.142887661366615 -49.893432026792198 0 0 0 -1 I I #
straight-curve $-1 74.142887661366615 49.893432026792198 0 0 0 -1 I I #
plane-surface $-1 74.142887661366615 0 0 -1 0 0 0 0 1 forward_v I I I I #
coedge $-1 $312 $227 $238 $321 forward $140 $-1 #
coedge $-1 $227 $312 $241 $323 reversed $140 $-1 #
straight-curve $-1 74.142887661366615 -40.753615510090611 1.5050955115416746 0 0 1 I I #
coedge $-1 $310 $309 $230 $313 forward $140 $-1 #
edge $-1 $316 18.091853625869909 $314 27.231670142571495 $312 $353 forward 7 unknown #
vertex $-1 $232 $354 #
straight-curve $-1 0 -49.893432026792198 0.39363531504409366 1 0 0 I I #
vertex $-1 $313 $355 #
straight-curve $-1 0 -40.753615510090611 0.39363531504409366 1 0 0 I I #
point $-1 74.142887661366615 -49.893432026792198 0.39363531504409366 #
point $-1 74.142887661366615 -40.753615510090611 0.39363531504409366 #
straight-curve $-1 -74.142887661366615 -22.661761884220702 5.6267467311226049 0 1 0 I I #
edge $-1 $239 -4.1216512195809303 $316 1.111460196497581 $309 $356 forward 7 unknown #
point $-1 -74.142887661366615 -40.753615510090611 5.6267467311226049 #
edge $-1 $243 -5.6267467311226049 $314 -0.39363531504409366 $310 $357 forward 7 unknown #
point $-1 -74.142887661366615 -49.893432026792198 5.6267467311226049 #
straight-curve $-1 74.142887661366615 -49.893432026792198 0 0 0 -1 I I #
edge $-1 $327 35.97459501852525 $330 48.404665619888583 $249 $358 forward 7 unknown #
vertex $-1 $263 $359 #
straight-curve $-1 -93.027792068636501 27.663886559881654 12.904959719030401 -1 0 0 I I #
edge $-1 $330 -16.428429154202426 $260 -6.0424856571560284 $259 $360 forward 7 unknown #
vertex $-1 $329 $361 #
straight-curve $-1 -74.142887661366615 27.663886559881654 0.47488911766707531 0.65605901945558964 0 0.75470958851134928 I I #
point $-1 -63.337592413191103 27.663886559881654 12.904959719030405 #
point $-1 -74.142887661366615 17.277943062835256 0.47488911766707531 #
straight-curve $-1 -74.142887661366615 0 12.904959719030405 0 -1 0 I I #
vertex $-1 $266 $362 #
point $-1 -65.395665811394792 22.47091481135844 5.7700499425264367 #
coedge $-1 $281 $280 $273 $338 forward $270 $-1 #
edge $-1 $339 91.930943256478443 $342 104.36101385784175 $337 $363 forward 7 unknown #
vertex $-1 $285 $364 #
straight-curve $-1 44.385681889914395 17.277943062835256 12.904959719030401 1 0 0 I I #
edge $-1 $342 6.0424856571560284 $282 16.428429154202426 $281 $365 forward 7 unknown #
vertex $-1 $341 $366 #
straight-curve $-1 -23.141332696077598 17.277943062835256 112.38758559357345 -0.65605901945558964 0 0.75470958851134928 I I #
point $-1 63.337592413191103 17.277943062835256 12.904959719030415 #
point $-1 74.142887661366615 27.663886559881654 0.47488911766708952 #
straight-curve $-1 74.142887661366615 0 12.904959719030405 0 1 0 I I #
vertex $-1 $288 $367 #
point $-1 67.363842869761555 22.47091481135844 3.5059211769923957 #
straight-curve $-1 -74.142887661366615 49.893432026792198 0 0 0 -1 I I #
point $-1 -74.142887661366615 -49.893432026792198 -12.904959719030405 #
straight-curve $-1 -74.142887661366615 0 -12.904959719030405 0 1 0 I I #
point $-1 -74.142887661366615 49.893432026792198 -12.904959719030405 #
straight-curve $-1 -74.142887661366615 -22.661761884220702 0.39363531504409366 0 -1 0 I I #
point $-1 -74.142887661366615 -49.893432026792198 0.39363531504409366 #
point $-1 -74.142887661366615 -40.753615510090611 0.39363531504409366 #
straight-curve $-1 -74.142887661366615 -40.753615510090611 1.5050955115416746 0 0 -1 I I #
straight-curve $-1 -74.142887661366615 -49.893432026792198 0 0 0 -1 I I #
straight-curve $-1 -74.142887661366615 27.663886559881654 48.879554737555658 0 0 -1 I I #
point $-1 -74.142887661366615 27.663886559881654 12.904959719030405 #
straight-curve $-1 -74.142887661366615 11.235457405679227 0.47488911766706865 0 -1 0 I I #
point $-1 -74.142887661366615 27.663886559881654 0.47488911766707531 #
point $-1 -65.247689957811147 22.47091481135844 3.6538970305760277 #
straight-curve $-1 74.142887661366615 17.277943062835256 104.83590297550884 0 0 -1 I I #
point $-1 74.142887661366615 17.277943062835256 12.904959719030405 #
straight-curve $-1 74.142887661366615 11.235457405679227 0.47488911766708242 0 1 0 I I #
point $-1 74.142887661366615 17.277943062835256 0.47488911766708952 #
point $-1 65.247689957811147 22.47091481135844 3.6538970305760348 #
End-of-ACIS-data 