500 0 6 0           
7 Unknown 11 ACIS 5.0 NT 24 Thu Mar 25 20:49:52 1999 
-1 9.9999999999999995e-007 1e-010 
body $-1 $6 $-1 $7 #
body $-1 $8 $-1 $9 #
body $-1 $10 $-1 $11 #
body $-1 $12 $-1 $13 #
body $-1 $14 $-1 $15 #
body $-1 $16 $-1 $17 #
lump $-1 $-1 $18 $0 #
transform $-1 1 0 0 0 1 0 0 0 1 61.408124027222513 40.959426749527481 16.600649283173613 1 rotate no_reflect no_shear #
lump $-1 $-1 $19 $1 #
transform $-1 1 0 0 0 1 0 0 0 1 61.408124027222513 40.959426749527481 16.600649283173613 1 rotate no_reflect no_shear #
lump $-1 $-1 $20 $2 #
transform $-1 1 0 0 0 1 0 0 0 1 61.408124027222513 40.959426749527481 16.600649283173613 1 rotate no_reflect no_shear #
lump $-1 $-1 $21 $3 #
transform $-1 1 0 0 0 1 0 0 0 1 61.408124027222513 40.959426749527481 16.600649283173613 1 rotate no_reflect no_shear #
lump $-1 $-1 $22 $4 #
transform $-1 1 0 0 0 1 0 0 0 1 61.408124027222513 40.959426749527481 16.600649283173613 1 rotate no_reflect no_shear #
lump $-1 $-1 $23 $5 #
transform $-1 1 0 0 0 1 0 0 0 1 61.408124027222513 40.959426749527481 16.600649283173613 1 rotate no_reflect no_shear #
shell $-1 $-1 $-1 $24 $-1 $6 #
shell $-1 $-1 $-1 $25 $-1 $8 #
shell $-1 $-1 $-1 $26 $-1 $10 #
shell $-1 $-1 $-1 $27 $-1 $12 #
shell $-1 $-1 $-1 $28 $-1 $14 #
shell $-1 $-1 $-1 $29 $-1 $16 #
face $-1 $30 $31 $18 $-1 $32 forward single #
face $-1 $33 $34 $19 $-1 $35 reversed single #
face $-1 $36 $37 $20 $-1 $38 forward single #
face $-1 $39 $40 $21 $-1 $41 reversed single #
face $-1 $42 $43 $22 $-1 $44 forward single #
face $-1 $45 $46 $23 $-1 $47 forward single #
face $-1 $48 $49 $18 $-1 $50 reversed single #
loop $-1 $-1 $51 $24 #
plane-surface $-1 0 0 16.600649283173613 0 0 1 1 0 0 forward_v I I I I #
face $-1 $52 $53 $19 $-1 $54 reversed single #
loop $-1 $-1 $55 $25 #
plane-surface $-1 -56.69264366260937 -34.456858142010191 0 1 0 0 0 0 -1 forward_v I I I I #
face $-1 $56 $57 $20 $-1 $58 reversed single #
loop $-1 $-1 $59 $26 #
plane-surface $-1 0 34.677544894772126 7.1361593412982369 0 0 1 1 0 0 forward_v I I I I #
face $-1 $60 $61 $21 $-1 $62 reversed single #
loop $-1 $-1 $63 $27 #
plane-surface $-1 67.469764002170834 -17.205843323367958 177.37427587699889 0 -1 0 -0.73135370988377701 0 -0.68199835119979291 forward_v I I I I #
face $-1 $64 $65 $22 $-1 $66 forward single #
loop $-1 $67 $68 $28 #
cone-surface $-1 54.212076839379243 -24.883304902742918 9.0549817204328917 -0.73135370988377701 0 -0.68199835119979291 1.0229975267996894 0 -1.0970305648256655 1 I I 0 1 1.5 forward I I I I #
face $-1 $69 $70 $23 $-1 $71 forward single #
loop $-1 $72 $73 $29 #
cone-surface $-1 54.212076839379243 -20.276827955117938 9.0549817204328917 -0.73135370988377701 0 -0.68199835119979291 1.0229975267996894 0 -1.0970305648256655 1 I I 0 1 1.5 forward I I I I #
face $-1 $74 $75 $18 $-1 $76 reversed single #
loop $-1 $-1 $77 $30 #
plane-surface $-1 0 0 -16.600649283173613 0 0 1 1 0 0 forward_v I I I I #
coedge $-1 $78 $79 $80 $81 forward $31 $-1 #
face $-1 $82 $83 $19 $-1 $84 reversed single #
loop $-1 $-1 $85 $33 #
plane-surface $-1 -52.985197409081856 -27.954289534492901 0 0 -1 0 0 0 -1 forward_v I I I I #
coedge $-1 $86 $87 $88 $89 forward $34 $-1 #
face $-1 $90 $91 $20 $-1 $92 reversed single #
loop $-1 $-1 $93 $36 #
plane-surface $-1 0 34.677544894772126 0.39812060304473995 0 0 1 1 0 0 forward_v I I I I #
coedge $-1 $94 $95 $96 $97 reversed $37 $-1 #
face $-1 $98 $99 $21 $-1 $100 reversed single #
loop $-1 $-1 $101 $39 #
plane-surface $-1 -22.352354646453747 -22.580066428930429 93.613797203322619 0.73135370988377701 0 0.68199835119979291 0.68199835119979291 0 -0.73135370988377701 forward_v I I I I #
coedge $-1 $102 $103 $104 $105 reversed $40 $-1 #
face $-1 $-1 $106 $22 $-1 $107 forward single #
loop $-1 $108 $109 $42 #
cone-surface $-1 52.439793445122476 -24.883304902742918 7.4023007585301137 -0.73135370988377701 0 -0.68199835119979291 0.51149876339984468 0 -0.54851528241283276 1 I I -0.70710678118654757 0.70710678118654757 0.75 forward I I I I #
loop $-1 $-1 $110 $28 #
coedge $-1 $68 $68 $111 $112 reversed $43 $-1 #
face $-1 $-1 $113 $23 $-1 $114 forward single #
loop $-1 $115 $116 $45 #
cone-surface $-1 52.439793445122476 -20.276827955117938 7.4023007585301137 -0.73135370988377701 0 -0.68199835119979291 0.51149876339984468 0 -0.54851528241283276 1 I I -0.70710678118654757 0.70710678118654757 0.75 forward I I I I #
loop $-1 $-1 $117 $29 #
coedge $-1 $73 $73 $118 $119 reversed $46 $-1 #
face $-1 $120 $121 $18 $-1 $122 reversed single #
loop $-1 $-1 $123 $48 #
plane-surface $-1 0 -40.959426749527481 0 0 1 0 0 0 1 forward_v I I I I #
coedge $-1 $124 $125 $126 $127 forward $49 $-1 #
coedge $-1 $128 $51 $129 $130 forward $31 $-1 #
coedge $-1 $51 $128 $131 $132 forward $31 $-1 #
coedge $-1 $133 $134 $51 $81 reversed $135 $-1 #
edge $-1 $136 -40.959426749527481 $137 40.959426749527481 $80 $138 forward 7 unknown #
face $-1 $139 $140 $19 $-1 $141 forward single #
loop $-1 $-1 $142 $52 #
plane-surface $-1 -49.277751155554341 -34.456858142010191 0 -1 0 0 0 0 1 forward_v I I I I #
coedge $-1 $143 $144 $145 $146 forward $53 $-1 #
coedge $-1 $147 $55 $148 $149 reversed $34 $-1 #
coedge $-1 $55 $147 $150 $151 reversed $34 $-1 #
coedge $-1 $144 $143 $55 $89 reversed $53 $-1 #
edge $-1 $152 -16.600649283173613 $153 16.600649283173613 $88 $154 forward 7 unknown #
face $-1 $155 $156 $20 $-1 $157 reversed single #
loop $-1 $-1 $158 $56 #
plane-surface $-1 0 28.395663040016771 3.7671399721714884 0 1 0 0 0 1 forward_v I I I I #
coedge $-1 $159 $160 $161 $162 reversed $57 $-1 #
coedge $-1 $163 $59 $164 $165 reversed $37 $-1 #
coedge $-1 $59 $163 $166 $167 forward $37 $-1 #
coedge $-1 $168 $169 $59 $97 forward $170 $-1 #
edge $-1 $171 -23.620654302141418 $172 -11.056890592630708 $96 $173 forward 7 unknown #
face $-1 $174 $175 $21 $-1 $176 forward single #
loop $-1 $-1 $177 $60 #
plane-surface $-1 67.469764002170834 -27.954289534492901 177.37427587699889 0 1 0 0.73135370988377701 0 0.68199835119979291 forward_v I I I I #
coedge $-1 $178 $179 $180 $181 reversed $61 $-1 #
coedge $-1 $103 $63 $182 $183 reversed $40 $-1 #
coedge $-1 $63 $102 $178 $184 reversed $40 $-1 #
coedge $-1 $180 $185 $63 $105 forward $175 $-1 #
edge $-1 $186 -27.673242026137096 $187 -15.728683874138433 $104 $188 forward 7 unknown #
loop $-1 $-1 $111 $64 #
plane-surface $-1 -22.352354646453747 -22.580066428930429 93.613797203322619 0.73135370988377701 0 0.68199835119979291 0.68199835119979291 0 -0.73135370988377701 forward_v I I I I #
loop $-1 $-1 $189 $42 #
coedge $-1 $109 $109 $110 $190 reversed $65 $-1 #
coedge $-1 $110 $110 $109 $190 forward $67 $-1 #
coedge $-1 $111 $111 $68 $112 forward $106 $-1 #
edge $-1 $191 0 $191 6.2831853071796004 $111 $192 forward 7 unknown #
loop $-1 $-1 $118 $69 #
plane-surface $-1 -22.352354646453747 -22.580066428930429 93.613797203322619 0.73135370988377701 0 0.68199835119979291 0.68199835119979291 0 -0.73135370988377701 forward_v I I I I #
loop $-1 $-1 $193 $45 #
coedge $-1 $116 $116 $117 $194 reversed $70 $-1 #
coedge $-1 $117 $117 $116 $194 forward $72 $-1 #
coedge $-1 $118 $118 $73 $119 forward $113 $-1 #
edge $-1 $195 0 $195 6.2831853071796004 $118 $196 forward 7 unknown #
face $-1 $197 $198 $18 $-1 $199 reversed single #
loop $-1 $-1 $200 $74 #
plane-surface $-1 -61.408124027222513 0 0 1 0 0 0 0 -1 forward_v I I I I #
coedge $-1 $201 $131 $202 $203 forward $75 $-1 #
coedge $-1 $204 $77 $201 $205 forward $49 $-1 #
coedge $-1 $77 $204 $206 $207 forward $49 $-1 #
coedge $-1 $134 $133 $77 $127 reversed $135 $-1 #
edge $-1 $208 -40.959426749527481 $209 40.959426749527481 $126 $210 forward 7 unknown #
coedge $-1 $79 $78 $211 $212 forward $31 $-1 #
coedge $-1 $213 $214 $78 $130 reversed $198 $-1 #
edge $-1 $137 -61.408124027222513 $215 61.408124027222513 $129 $216 forward 7 unknown #
coedge $-1 $123 $217 $79 $132 reversed $75 $-1 #
edge $-1 $218 -61.408124027222513 $136 61.408124027222513 $131 $219 forward 7 unknown #
coedge $-1 $126 $80 $217 $220 forward $135 $-1 #
coedge $-1 $80 $126 $213 $221 reversed $135 $-1 #
loop $-1 $-1 $133 $197 #
vertex $-1 $81 $222 #
vertex $-1 $81 $223 #
straight-curve $-1 61.408124027222513 0 16.600649283173613 0 1 0 I I #
face $-1 $224 $225 $19 $-1 $226 reversed single #
loop $-1 $-1 $227 $82 #
plane-surface $-1 0 0 16.600649283173613 0 0 1 1 0 0 forward_v I I I I #
coedge $-1 $228 $229 $230 $231 reversed $83 $-1 #
coedge $-1 $88 $85 $232 $233 reversed $53 $-1 #
coedge $-1 $85 $88 $234 $235 reversed $53 $-1 #
coedge $-1 $229 $228 $85 $146 reversed $83 $-1 #
edge $-1 $236 -16.600649283173613 $237 16.600649283173613 $145 $238 forward 7 unknown #
coedge $-1 $87 $86 $239 $240 reversed $34 $-1 #
coedge $-1 $232 $241 $86 $149 forward $225 $-1 #
edge $-1 $242 -23.730997678522385 $153 -10.725860463487805 $148 $243 forward 7 unknown #
coedge $-1 $244 $234 $87 $151 forward $140 $-1 #
edge $-1 $152 10.725860463487805 $245 23.730997678522385 $150 $246 forward 7 unknown #
vertex $-1 $151 $247 #
vertex $-1 $149 $248 #
straight-curve $-1 -56.69264366260937 -27.954289534492901 0 0 0 -1 I I #
face $-1 $249 $170 $20 $-1 $250 reversed single #
loop $-1 $-1 $251 $90 #
plane-surface $-1 -61.408124027222513 0 0 1 0 0 0 0 -1 forward_v I I I I #
coedge $-1 $252 $166 $253 $254 reversed $91 $-1 #
coedge $-1 $255 $93 $252 $256 forward $57 $-1 #
coedge $-1 $93 $255 $257 $258 reversed $57 $-1 #
coedge $-1 $169 $168 $93 $162 forward $170 $-1 #
edge $-1 $259 11.056890592630708 $260 23.620654302141418 $161 $261 forward 7 unknown #
coedge $-1 $95 $94 $262 $263 reversed $37 $-1 #
coedge $-1 $264 $265 $94 $165 forward $266 $-1 #
edge $-1 $267 -61.408124027222513 $171 61.408124027222513 $164 $268 forward 7 unknown #
coedge $-1 $158 $269 $95 $167 reversed $91 $-1 #
edge $-1 $270 -61.408124027222513 $172 61.408124027222513 $166 $271 forward 7 unknown #
coedge $-1 $161 $96 $269 $272 forward $170 $-1 #
coedge $-1 $96 $161 $264 $273 reversed $170 $-1 #
loop $-1 $-1 $96 $155 #
vertex $-1 $273 $274 #
vertex $-1 $97 $275 #
straight-curve $-1 61.408124027222513 17.338772447386063 7.1361593412982369 0 -1 0 I I #
face $-1 $-1 $276 $21 $-1 $277 reversed single #
loop $-1 $-1 $104 $98 #
plane-surface $-1 0 0 16.600649283173613 0 0 1 1 0 0 forward_v I I I I #
coedge $-1 $278 $279 $280 $281 reversed $99 $-1 #
coedge $-1 $282 $101 $103 $184 forward $61 $-1 #
coedge $-1 $101 $282 $278 $283 forward $61 $-1 #
coedge $-1 $280 $104 $101 $181 forward $175 $-1 #
edge $-1 $187 5.9158101089027433 $284 16.664256320027686 $180 $285 forward 7 unknown #
coedge $-1 $286 $287 $102 $183 forward $276 $-1 #
edge $-1 $288 -84.895459383801395 $186 -72.086488655325837 $182 $289 forward 7 unknown #
edge $-1 $187 105.30219082690856 $288 122.816248054445 $103 $290 forward 7 unknown #
coedge $-1 $104 $280 $286 $291 forward $175 $-1 #
vertex $-1 $183 $292 #
vertex $-1 $105 $293 #
straight-curve $-1 33.734882001085417 -17.205843323367958 16.60064928317361 -1 0 0 I I #
coedge $-1 $189 $189 $-1 $294 reversed $108 $-1 #
edge $-1 $295 0 $295 6.2831853071796004 $109 $296 forward 7 unknown #
vertex $-1 $112 $297 #
ellipse-curve $-1 55.435844951223181 -24.883304902742918 10.196163918935833 0.73135370988377701 0 0.68199835119979291 1.0229975267996894 0 -1.0970305648256655 1 I I #
coedge $-1 $193 $193 $-1 $298 reversed $115 $-1 #
edge $-1 $299 0 $299 6.2831853071796004 $116 $300 forward 7 unknown #
vertex $-1 $119 $301 #
ellipse-curve $-1 55.435844951223181 -20.276827955117938 10.196163918935833 0.73135370988377701 0 0.68199835119979291 1.0229975267996894 0 -1.0970305648256655 1 I I #
face $-1 $-1 $135 $18 $-1 $302 reversed single #
loop $-1 $-1 $213 $120 #
plane-surface $-1 0 40.959426749527481 0 0 -1 0 0 0 -1 forward_v I I I I #
coedge $-1 $303 $211 $214 $304 forward $121 $-1 #
coedge $-1 $217 $123 $124 $205 reversed $75 $-1 #
coedge $-1 $211 $303 $123 $203 reversed $121 $-1 #
edge $-1 $218 -16.600649283173613 $305 16.600649283173613 $202 $306 forward 7 unknown #
coedge $-1 $125 $124 $303 $307 forward $49 $-1 #
edge $-1 $209 -61.408124027222513 $305 61.408124027222513 $201 $308 forward 7 unknown #
coedge $-1 $214 $213 $125 $207 reversed $198 $-1 #
edge $-1 $309 -61.408124027222513 $208 61.408124027222513 $206 $310 forward 7 unknown #
vertex $-1 $127 $311 #
vertex $-1 $220 $312 #
straight-curve $-1 61.408124027222513 0 -16.600649283173613 0 -1 0 I I #
coedge $-1 $200 $202 $128 $212 reversed $121 $-1 #
edge $-1 $215 -40.959426749527481 $218 40.959426749527481 $211 $313 forward 7 unknown #
coedge $-1 $206 $129 $134 $221 forward $198 $-1 #
coedge $-1 $129 $206 $200 $304 reversed $198 $-1 #
vertex $-1 $130 $314 #
straight-curve $-1 0 40.959426749527481 16.600649283173613 -1 0 0 I I #
coedge $-1 $131 $201 $133 $220 reversed $75 $-1 #
vertex $-1 $212 $315 #
straight-curve $-1 0 -40.959426749527481 16.600649283173613 1 0 0 I I #
edge $-1 $136 -16.600649283173613 $209 16.600649283173613 $133 $316 forward 7 unknown #
edge $-1 $137 -16.600649283173613 $208 16.600649283173613 $134 $317 forward 7 unknown #
point $-1 61.408124027222513 -40.959426749527481 16.600649283173613 #
point $-1 61.408124027222513 40.959426749527481 16.600649283173613 #
face $-1 $-1 $318 $19 $-1 $319 reversed single #
loop $-1 $-1 $320 $139 #
plane-surface $-1 0 0 -16.600649283173613 0 0 1 1 0 0 forward_v I I I I #
coedge $-1 $234 $244 $229 $321 forward $140 $-1 #
coedge $-1 $145 $142 $320 $322 reversed $83 $-1 #
coedge $-1 $142 $145 $227 $321 reversed $83 $-1 #
coedge $-1 $323 $324 $142 $231 forward $318 $-1 #
edge $-1 $325 -16.600649283173613 $326 16.600649283173613 $230 $327 forward 7 unknown #
coedge $-1 $320 $148 $143 $233 forward $225 $-1 #
edge $-1 $153 -30.200044958068442 $237 -22.785152451013413 $232 $328 forward 7 unknown #
coedge $-1 $150 $227 $144 $235 forward $140 $-1 #
edge $-1 $236 22.785152451013413 $152 30.200044958068442 $234 $329 forward 7 unknown #
vertex $-1 $235 $330 #
vertex $-1 $233 $331 #
straight-curve $-1 -49.277751155554341 -27.954289534492901 0 0 0 -1 I I #
coedge $-1 $324 $323 $147 $240 forward $318 $-1 #
edge $-1 $245 -16.600649283173613 $242 16.600649283173613 $239 $332 forward 7 unknown #
coedge $-1 $148 $320 $324 $333 forward $225 $-1 #
vertex $-1 $149 $334 #
straight-curve $-1 -56.69264366260937 -17.228429071005095 -16.600649283173613 0 1 0 I I #
coedge $-1 $227 $150 $323 $335 forward $140 $-1 #
vertex $-1 $335 $336 #
straight-curve $-1 -56.69264366260937 -17.228429071005095 16.600649283173613 0 -1 0 I I #
point $-1 -56.69264366260937 -27.954289534492901 16.600649283173613 #
point $-1 -56.69264366260937 -27.954289534492901 -16.600649283173613 #
face $-1 $-1 $266 $20 $-1 $337 reversed single #
plane-surface $-1 61.408124027222513 0 0 -1 0 0 0 0 1 forward_v I I I I #
coedge $-1 $253 $338 $255 $339 forward $156 $-1 #
coedge $-1 $269 $158 $159 $256 reversed $91 $-1 #
coedge $-1 $262 $251 $158 $254 forward $156 $-1 #
edge $-1 $340 -1.4854493830410043 $270 5.2525893552124927 $253 $341 forward 7 unknown #
coedge $-1 $160 $159 $251 $339 reversed $57 $-1 #
edge $-1 $259 -61.408124027222513 $340 61.408124027222513 $252 $342 forward 7 unknown #
coedge $-1 $265 $264 $160 $258 forward $266 $-1 #
edge $-1 $260 -61.408124027222513 $343 61.408124027222513 $257 $344 forward 7 unknown #
vertex $-1 $162 $345 #
vertex $-1 $162 $346 #
straight-curve $-1 61.408124027222513 17.338772447386063 0.39812060304473995 0 1 0 I I #
coedge $-1 $338 $253 $163 $263 forward $156 $-1 #
edge $-1 $270 11.056890592630708 $267 23.620654302141418 $262 $347 forward 7 unknown #
coedge $-1 $257 $164 $169 $273 forward $266 $-1 #
coedge $-1 $164 $257 $338 $348 reversed $266 $-1 #
loop $-1 $-1 $257 $249 #
vertex $-1 $348 $349 #
straight-curve $-1 0 40.959426749527481 7.1361593412982369 1 0 0 I I #
coedge $-1 $166 $252 $168 $272 reversed $91 $-1 #
vertex $-1 $263 $350 #
straight-curve $-1 0 28.395663040016771 7.1361593412982369 1 0 0 I I #
edge $-1 $172 -5.2525893552124927 $259 1.4854493830410043 $168 $351 forward 7 unknown #
edge $-1 $171 -7.1361593412982369 $260 -0.39812060304473995 $169 $352 forward 7 unknown #
point $-1 61.408124027222513 40.959426749527481 7.1361593412982369 #
point $-1 61.408124027222513 28.395663040016771 7.1361593412982369 #
loop $-1 $-1 $182 $174 #
plane-surface $-1 61.408124027222513 0 0 -1 0 0 0 0 1 forward_v I I I I #
coedge $-1 $279 $177 $179 $283 reversed $99 $-1 #
coedge $-1 $177 $278 $353 $354 reversed $99 $-1 #
coedge $-1 $185 $180 $177 $281 forward $175 $-1 #
edge $-1 $284 15.728683874138433 $355 27.673242026137096 $280 $356 forward 7 unknown #
coedge $-1 $179 $178 $287 $357 reversed $61 $-1 #
edge $-1 $358 -122.816248054445 $284 -105.30219082690856 $278 $359 forward 7 unknown #
vertex $-1 $181 $360 #
straight-curve $-1 49.463565875223843 -11.290033214465215 16.60064928317361 0 -1 0 I I #
coedge $-1 $353 $182 $185 $291 reversed $276 $-1 #
coedge $-1 $182 $353 $282 $357 forward $276 $-1 #
vertex $-1 $183 $361 #
straight-curve $-1 61.408124027222513 -17.205843323367958 88.687137938499447 0 0 1 I I #
straight-curve $-1 -22.352354646453747 -17.205843323367958 93.613797203322619 0.68199835119979291 0 -0.73135370988377701 I I #
edge $-1 $355 -27.954289534492901 $186 -17.205843323367958 $286 $362 forward 7 unknown #
point $-1 61.408124027222513 -17.205843323367958 16.600649283173613 #
point $-1 49.46356587522385 -17.205843323367958 16.60064928317361 #
edge $-1 $363 1 $363 0 $189 $-1 forward 7 unknown #
vertex $-1 $190 $364 #
ellipse-curve $-1 52.988308727535312 -24.883304902742918 7.9137995219299579 0.73135370988377701 0 0.68199835119979291 1.0229975267996894 0 -1.0970305648256655 1 I I #
point $-1 56.458842478022859 -24.883304902742918 9.09913335411016 #
edge $-1 $365 1 $365 0 $193 $-1 forward 7 unknown #
vertex $-1 $194 $366 #
ellipse-curve $-1 52.988308727535312 -20.276827955117938 7.9137995219299579 0.73135370988377701 0 0.68199835119979291 1.0229975267996894 0 -1.0970305648256655 1 I I #
point $-1 56.458842478022859 -20.276827955117938 9.09913335411016 #
plane-surface $-1 61.408124027222513 0 0 -1 0 0 0 0 1 forward_v I I I I #
coedge $-1 $202 $200 $204 $307 reversed $121 $-1 #
edge $-1 $215 -16.600649283173613 $309 16.600649283173613 $214 $367 forward 7 unknown #
vertex $-1 $307 $368 #
straight-curve $-1 -61.408124027222513 -40.959426749527481 0 0 0 -1 I I #
edge $-1 $305 -40.959426749527481 $309 40.959426749527481 $303 $369 forward 7 unknown #
straight-curve $-1 0 -40.959426749527481 -16.600649283173613 -1 0 0 I I #
vertex $-1 $207 $370 #
straight-curve $-1 0 40.959426749527481 -16.600649283173613 1 0 0 I I #
point $-1 61.408124027222513 40.959426749527481 -16.600649283173613 #
point $-1 61.408124027222513 -40.959426749527481 -16.600649283173613 #
straight-curve $-1 -61.408124027222513 0 16.600649283173613 0 -1 0 I I #
point $-1 -61.408124027222513 40.959426749527481 16.600649283173613 #
point $-1 -61.408124027222513 -40.959426749527481 16.600649283173613 #
straight-curve $-1 61.408124027222513 -40.959426749527481 0 0 0 -1 I I #
straight-curve $-1 61.408124027222513 40.959426749527481 0 0 0 -1 I I #
loop $-1 $-1 $230 $224 #
plane-surface $-1 0 -40.959426749527481 0 0 1 0 0 0 1 forward_v I I I I #
coedge $-1 $241 $232 $228 $322 forward $225 $-1 #
edge $-1 $326 -23.730997678522385 $236 -10.725860463487805 $227 $371 forward 7 unknown #
edge $-1 $237 10.725860463487805 $325 23.730997678522385 $320 $372 forward 7 unknown #
coedge $-1 $239 $230 $244 $335 reversed $318 $-1 #
coedge $-1 $230 $239 $241 $333 reversed $318 $-1 #
vertex $-1 $333 $373 #
vertex $-1 $231 $374 #
straight-curve $-1 -49.277751155554341 -40.959426749527481 0 0 0 1 I I #
straight-curve $-1 -26.492598704540928 -27.954289534492901 -16.600649283173613 1 0 0 I I #
straight-curve $-1 -26.492598704540928 -27.954289534492901 16.600649283173613 -1 0 0 I I #
point $-1 -49.277751155554341 -27.954289534492901 16.600649283173613 #
point $-1 -49.277751155554341 -27.954289534492901 -16.600649283173613 #
straight-curve $-1 -56.69264366260937 -40.959426749527481 0 0 0 -1 I I #
edge $-1 $325 49.277751155554341 $242 56.69264366260937 $324 $375 forward 7 unknown #
point $-1 -56.69264366260937 -40.959426749527481 -16.600649283173613 #
edge $-1 $245 -56.69264366260937 $326 -49.277751155554341 $323 $376 forward 7 unknown #
point $-1 -56.69264366260937 -40.959426749527481 16.600649283173613 #
plane-surface $-1 0 40.959426749527481 0 0 -1 0 0 0 -1 forward_v I I I I #
coedge $-1 $251 $262 $265 $348 forward $156 $-1 #
edge $-1 $343 -23.620654302141418 $340 -11.056890592630708 $251 $377 forward 7 unknown #
vertex $-1 $339 $378 #
straight-curve $-1 -61.408124027222513 28.395663040016771 1.8835699860857442 0 0 1 I I #
straight-curve $-1 0 28.395663040016771 0.39812060304473995 -1 0 0 I I #
vertex $-1 $258 $379 #
straight-curve $-1 0 40.959426749527481 0.39812060304473995 -1 0 0 I I #
point $-1 61.408124027222513 28.395663040016771 0.39812060304473995 #
point $-1 61.408124027222513 40.959426749527481 0.39812060304473995 #
straight-curve $-1 -61.408124027222513 17.338772447386063 7.1361593412982369 0 1 0 I I #
edge $-1 $267 -7.1361593412982369 $343 -0.39812060304473995 $265 $380 forward 7 unknown #
point $-1 -61.408124027222513 40.959426749527481 7.1361593412982369 #
point $-1 -61.408124027222513 28.395663040016771 7.1361593412982369 #
straight-curve $-1 61.408124027222513 28.395663040016771 1.8835699860857442 0 0 -1 I I #
straight-curve $-1 61.408124027222513 40.959426749527481 0 0 0 -1 I I #
coedge $-1 $287 $286 $279 $354 forward $276 $-1 #
edge $-1 $355 72.086488655325837 $358 84.895459383801395 $353 $381 forward 7 unknown #
vertex $-1 $291 $382 #
straight-curve $-1 33.734882001085417 -27.954289534492901 16.60064928317361 1 0 0 I I #
edge $-1 $358 -16.664256320027686 $288 -5.9158101089027433 $287 $383 forward 7 unknown #
vertex $-1 $357 $384 #
straight-curve $-1 -22.352354646453747 -27.954289534492901 93.613797203322619 -0.68199835119979291 0 0.73135370988377701 I I #
point $-1 49.46356587522385 -27.954289534492901 16.60064928317361 #
point $-1 61.408124027222513 -17.205843323367958 3.791678554698052 #
straight-curve $-1 61.408124027222513 0 16.600649283173613 0 1 0 I I #
vertex $-1 $294 $385 #
point $-1 54.011306254334997 -24.883304902742918 6.8167689571042924 #
vertex $-1 $298 $386 #
point $-1 54.011306254334997 -20.276827955117938 6.8167689571042924 #
straight-curve $-1 -61.408124027222513 40.959426749527481 0 0 0 -1 I I #
point $-1 -61.408124027222513 -40.959426749527481 -16.600649283173613 #
straight-curve $-1 -61.408124027222513 0 -16.600649283173613 0 1 0 I I #
point $-1 -61.408124027222513 40.959426749527481 -16.600649283173613 #
straight-curve $-1 -49.277751155554341 -17.228429071005095 16.600649283173613 0 1 0 I I #
straight-curve $-1 -49.277751155554341 -17.228429071005095 -16.600649283173613 0 -1 0 I I #
point $-1 -49.277751155554341 -40.959426749527481 -16.600649283173613 #
point $-1 -49.277751155554341 -40.959426749527481 16.600649283173613 #
straight-curve $-1 0 -40.959426749527481 -16.600649283173613 -1 0 0 I I #
straight-curve $-1 0 -40.959426749527481 16.600649283173613 1 0 0 I I #
straight-curve $-1 -61.408124027222513 17.338772447386063 0.39812060304473995 0 -1 0 I I #
point $-1 -61.408124027222513 28.395663040016771 0.39812060304473995 #
point $-1 -61.408124027222513 40.959426749527481 0.39812060304473995 #
straight-curve $-1 -61.408124027222513 40.959426749527481 0 0 0 -1 I I #
straight-curve $-1 61.408124027222513 -27.954289534492901 88.687137938499447 0 0 -1 I I #
point $-1 61.408124027222513 -27.954289534492901 16.600649283173613 #
straight-curve $-1 61.408124027222513 -11.290033214465215 3.7916785546980591 0 1 0 I I #
point $-1 61.408124027222513 -27.954289534492901 3.791678554698052 #
point $-1 51.891278162709639 -24.883304902742918 6.8908019951302695 #
point $-1 51.891278162709639 -20.276827955117938 6.8908019951302695 #
End-of-ACIS-data 