500 0 14 0           
7 Unknown 11 ACIS 5.0 NT 24 Fri Mar 26 20:07:27 1999 
-1 9.9999999999999995e-007 1e-010 
body $-1 $14 $-1 $15 #
body $-1 $16 $-1 $17 #
body $-1 $18 $-1 $19 #
body $-1 $20 $-1 $21 #
body $-1 $22 $-1 $23 #
body $-1 $24 $-1 $25 #
body $-1 $26 $-1 $27 #
body $-1 $28 $-1 $29 #
body $-1 $30 $-1 $31 #
body $-1 $32 $-1 $33 #
body $-1 $34 $-1 $35 #
body $-1 $36 $-1 $37 #
body $-1 $38 $-1 $39 #
body $-1 $40 $-1 $41 #
lump $-1 $-1 $42 $0 #
transform $-1 1 0 0 0 1 0 0 0 1 76.326792199468969 32.526529604678636 14.407683217512334 1 rotate no_reflect no_shear #
lump $-1 $-1 $43 $1 #
transform $-1 1 0 0 0 1 0 0 0 1 76.326792199468969 32.526529604678636 14.407683217512334 1 rotate no_reflect no_shear #
lump $-1 $-1 $44 $2 #
transform $-1 1 0 0 0 1 0 0 0 1 76.326792199468969 32.526529604678636 14.407683217512334 1 rotate no_reflect no_shear #
lump $-1 $-1 $45 $3 #
transform $-1 1 0 0 0 1 0 0 0 1 76.326792199468969 32.526529604678636 14.407683217512334 1 rotate no_reflect no_shear #
lump $-1 $-1 $46 $4 #
transform $-1 1 0 0 0 1 0 0 0 1 76.326792199468969 32.526529604678636 14.407683217512334 1 rotate no_reflect no_shear #
lump $-1 $-1 $47 $5 #
transform $-1 1 0 0 0 1 0 0 0 1 76.326792199468969 32.526529604678636 14.407683217512334 1 rotate no_reflect no_shear #
lump $-1 $-1 $48 $6 #
transform $-1 1 0 0 0 1 0 0 0 1 76.326792199468969 32.526529604678636 14.407683217512334 1 rotate no_reflect no_shear #
lump $-1 $-1 $49 $7 #
transform $-1 1 0 0 0 1 0 0 0 1 76.326792199468969 32.526529604678636 14.407683217512334 1 rotate no_reflect no_shear #
lump $-1 $-1 $50 $8 #
transform $-1 1 0 0 0 1 0 0 0 1 76.326792199468969 32.526529604678636 14.407683217512334 1 rotate no_reflect no_shear #
lump $-1 $-1 $51 $9 #
transform $-1 1 0 0 0 1 0 0 0 1 76.326792199468969 32.526529604678636 14.407683217512334 1 rotate no_reflect no_shear #
lump $-1 $-1 $52 $10 #
transform $-1 1 0 0 0 1 0 0 0 1 76.326792199468969 32.526529604678636 14.407683217512334 1 rotate no_reflect no_shear #
lump $-1 $-1 $53 $11 #
transform $-1 1 0 0 0 1 0 0 0 1 76.326792199468969 32.526529604678636 14.407683217512334 1 rotate no_reflect no_shear #
lump $-1 $-1 $54 $12 #
transform $-1 1 0 0 0 1 0 0 0 1 76.326792199468969 32.526529604678636 14.407683217512334 1 rotate no_reflect no_shear #
lump $-1 $-1 $55 $13 #
transform $-1 1 0 0 0 1 0 0 0 1 76.326792199468969 32.526529604678636 14.407683217512334 1 rotate no_reflect no_shear #
shell $-1 $-1 $-1 $56 $-1 $14 #
shell $-1 $-1 $-1 $57 $-1 $16 #
shell $-1 $-1 $-1 $58 $-1 $18 #
shell $-1 $-1 $-1 $59 $-1 $20 #
shell $-1 $-1 $-1 $60 $-1 $22 #
shell $-1 $-1 $-1 $61 $-1 $24 #
shell $-1 $-1 $-1 $62 $-1 $26 #
shell $-1 $-1 $-1 $63 $-1 $28 #
shell $-1 $-1 $-1 $64 $-1 $30 #
shell $-1 $-1 $-1 $65 $-1 $32 #
shell $-1 $-1 $-1 $66 $-1 $34 #
shell $-1 $-1 $-1 $67 $-1 $36 #
shell $-1 $-1 $-1 $68 $-1 $38 #
shell $-1 $-1 $-1 $69 $-1 $40 #
face $-1 $70 $71 $42 $-1 $72 forward single #
face $-1 $73 $74 $43 $-1 $75 forward single #
face $-1 $76 $77 $44 $-1 $78 reversed single #
face $-1 $79 $80 $45 $-1 $81 forward single #
face $-1 $82 $83 $46 $-1 $84 forward single #
face $-1 $85 $86 $47 $-1 $87 reversed single #
face $-1 $88 $89 $48 $-1 $90 forward single #
face $-1 $91 $92 $49 $-1 $93 forward single #
face $-1 $94 $95 $50 $-1 $96 reversed single #
face $-1 $97 $98 $51 $-1 $99 forward single #
face $-1 $100 $101 $52 $-1 $102 forward single #
face $-1 $103 $104 $53 $-1 $105 reversed single #
face $-1 $106 $107 $54 $-1 $108 forward single #
face $-1 $109 $110 $55 $-1 $111 forward single #
face $-1 $112 $113 $42 $-1 $114 reversed single #
loop $-1 $-1 $115 $56 #
plane-surface $-1 0 0 14.407683217512334 0 0 1 1 0 0 forward_v I I I I #
face $-1 $116 $117 $43 $-1 $118 reversed single #
loop $-1 $-1 $119 $57 #
plane-surface $-1 0 -25.759583720236094 -8.6214816570236774 0 0 1 1 0 0 forward_v I I I I #
face $-1 $120 $121 $44 $-1 $122 reversed single #
loop $-1 $-1 $123 $58 #
plane-surface $-1 -205.78437503016491 -0.047702768691955555 85.541467315575019 0 1 0 -0.84804810408105047 0 0.52991925155115449 forward_v I I I I #
face $-1 $124 $125 $45 $-1 $126 forward single #
loop $-1 $127 $128 $59 #
cone-surface $-1 -72.853315488838703 1.8993397036321866 9.2625790451250065 0.84804810408105047 0 -0.52991925155115449 0.13247981288778862 0 0.21201202602026262 1 I I 0 1 0.25 forward I I I I #
face $-1 $129 $130 $46 $-1 $131 forward single #
loop $-1 $132 $133 $60 #
cone-surface $-1 -72.853315488838703 4.8199034121183999 9.2625790451250065 0.84804810408105047 0 -0.52991925155115449 0.13247981288778862 0 0.21201202602026262 1 I I 0 1 0.25 forward I I I I #
face $-1 $134 $135 $47 $-1 $136 reversed single #
loop $-1 $-1 $137 $61 #
plane-surface $-1 -76.326792199468969 3.3596215578752933 4.6473941242888372 -0.84804810408105047 0 0.52991925155115449 0.52991925155115449 0 0.84804810408105047 forward_v I I I I #
face $-1 $138 $139 $48 $-1 $140 forward single #
loop $-1 $141 $142 $62 #
cone-surface $-1 -72.853315488838703 8.7139883567666843 9.2625790451250065 0.84804810408105047 0 -0.52991925155115449 0.13247981288778862 0 0.21201202602026262 1 I I 0 1 0.25 forward I I I I #
face $-1 $143 $144 $49 $-1 $145 forward single #
loop $-1 $146 $147 $63 #
cone-surface $-1 -72.853315488838703 11.634552065252898 9.2625790451250065 0.84804810408105047 0 -0.52991925155115449 0.13247981288778862 0 0.21201202602026262 1 I I 0 1 0.25 forward I I I I #
face $-1 $148 $149 $50 $-1 $150 reversed single #
loop $-1 $-1 $151 $64 #
plane-surface $-1 110.09861357995092 -2.1790979915470885 213.30346118750609 0 -1 0 -0.80901700255871778 0 -0.5877852410284794 forward_v I I I I #
face $-1 $152 $153 $51 $-1 $154 forward single #
loop $-1 $155 $156 $65 #
cone-surface $-1 70.529516849684711 -10.010603533899609 6.8126043138405477 -0.80901700255871778 0 -0.5877852410284794 0.5877852410284794 0 -0.80901700255871778 1 I I 0 1 1 forward I I I I #
face $-1 $157 $158 $52 $-1 $159 forward single #
loop $-1 $160 $161 $66 #
cone-surface $-1 70.529516849684711 -5.311700208488098 6.8126043138405477 -0.80901700255871778 0 -0.5877852410284794 0.5877852410284794 0 -0.80901700255871778 1 I I 0 1 1 forward I I I I #
face $-1 $162 $163 $53 $-1 $164 reversed single #
loop $-1 $-1 $165 $67 #
plane-surface $-1 110.09861357995092 26.677097519725692 213.30346118750609 0 -1 0 -0.80901700255871778 0 -0.5877852410284794 forward_v I I I I #
face $-1 $166 $167 $54 $-1 $168 forward single #
loop $-1 $169 $170 $68 #
cone-surface $-1 70.529516849684711 18.845591977373175 6.8126043138405477 -0.80901700255871778 0 -0.5877852410284794 0.5877852410284794 0 -0.80901700255871778 1 I I 0 1 1 forward I I I I #
face $-1 $171 $172 $55 $-1 $173 forward single #
loop $-1 $174 $175 $69 #
cone-surface $-1 70.529516849684711 23.544495302784689 6.8126043138405477 -0.80901700255871778 0 -0.5877852410284794 0.5877852410284794 0 -0.80901700255871778 1 I I 0 1 1 forward I I I I #
face $-1 $176 $177 $42 $-1 $178 reversed single #
loop $-1 $-1 $179 $70 #
plane-surface $-1 0 0 -14.407683217512334 0 0 1 1 0 0 forward_v I I I I #
coedge $-1 $180 $181 $182 $183 forward $71 $-1 #
face $-1 $184 $185 $43 $-1 $186 reversed single #
loop $-1 $-1 $187 $73 #
plane-surface $-1 0 -18.992637835793552 -11.514582437268006 0 -1 0 0 0 -1 forward_v I I I I #
coedge $-1 $188 $189 $190 $191 reversed $74 $-1 #
face $-1 $192 $193 $44 $-1 $194 reversed single #
loop $-1 $-1 $195 $76 #
plane-surface $-1 -76.326792199468969 3.3596215578752933 4.6473941242888372 -0.84804810408105047 0 0.52991925155115449 0.52991925155115449 0 0.84804810408105047 forward_v I I I I #
coedge $-1 $196 $197 $198 $199 reversed $77 $-1 #
face $-1 $-1 $200 $45 $-1 $201 forward single #
loop $-1 $202 $203 $79 #
cone-surface $-1 -72.32328542378805 1.8993397036321866 8.9313795129055347 0.84804810408105047 0 -0.52991925155115449 0.066239906443894311 0 0.10600601301013131 1 I I -0.70710678118654746 0.70710678118654746 0.125 forward I I I I #
loop $-1 $-1 $204 $59 #
coedge $-1 $128 $128 $205 $206 reversed $80 $-1 #
face $-1 $-1 $207 $46 $-1 $208 forward single #
loop $-1 $209 $210 $82 #
cone-surface $-1 -72.32328542378805 4.8199034121183999 8.9313795129055347 0.84804810408105047 0 -0.52991925155115449 0.066239906443894311 0 0.10600601301013131 1 I I -0.70710678118654746 0.70710678118654746 0.125 forward I I I I #
loop $-1 $-1 $211 $60 #
coedge $-1 $133 $133 $212 $213 reversed $83 $-1 #
face $-1 $214 $215 $47 $-1 $216 forward single #
loop $-1 $-1 $217 $85 #
plane-surface $-1 -205.78437503016491 13.58159453757704 85.541467315575019 0 -1 0 0.84804810408105047 0 -0.52991925155115449 forward_v I I I I #
coedge $-1 $218 $219 $220 $221 reversed $86 $-1 #
face $-1 $-1 $222 $48 $-1 $223 forward single #
loop $-1 $224 $225 $88 #
cone-surface $-1 -72.32328542378805 8.7139883567666843 8.9313795129055347 0.84804810408105047 0 -0.52991925155115449 0.066239906443894311 0 0.10600601301013131 1 I I -0.70710678118654746 0.70710678118654746 0.125 forward I I I I #
loop $-1 $-1 $226 $62 #
coedge $-1 $142 $142 $227 $228 reversed $89 $-1 #
face $-1 $-1 $229 $49 $-1 $230 forward single #
loop $-1 $231 $232 $91 #
cone-surface $-1 -72.32328542378805 11.634552065252898 8.9313795129055347 0.84804810408105047 0 -0.52991925155115449 0.066239906443894311 0 0.10600601301013131 1 I I -0.70710678118654746 0.70710678118654746 0.125 forward I I I I #
loop $-1 $-1 $233 $63 #
coedge $-1 $147 $147 $234 $235 reversed $92 $-1 #
face $-1 $236 $237 $50 $-1 $238 reversed single #
loop $-1 $-1 $239 $94 #
plane-surface $-1 -13.400731700322098 -7.6611518711938515 123.57593728771504 0.80901700255871778 0 0.5877852410284794 0.5877852410284794 0 -0.80901700255871778 forward_v I I I I #
coedge $-1 $240 $241 $242 $243 reversed $95 $-1 #
face $-1 $-1 $244 $51 $-1 $245 forward single #
loop $-1 $246 $247 $97 #
cone-surface $-1 69.533806464611644 -10.010603533899609 6.0891783946896627 -0.80901700255871778 0 -0.5877852410284794 0.2938926205142397 0 -0.40450850127935889 1 I I -0.70710678118654691 0.70710678118654813 0.5 forward I I I I #
loop $-1 $-1 $248 $65 #
coedge $-1 $156 $156 $249 $250 reversed $98 $-1 #
face $-1 $-1 $251 $52 $-1 $252 forward single #
loop $-1 $253 $254 $100 #
cone-surface $-1 69.533806464611644 -5.311700208488098 6.0891783946896627 -0.80901700255871778 0 -0.5877852410284794 0.2938926205142397 0 -0.40450850127935889 1 I I -0.70710678118654691 0.70710678118654813 0.5 forward I I I I #
loop $-1 $-1 $255 $66 #
coedge $-1 $161 $161 $256 $257 reversed $101 $-1 #
face $-1 $258 $259 $53 $-1 $260 reversed single #
loop $-1 $-1 $261 $103 #
plane-surface $-1 -13.400731700322098 21.195043640078929 123.57593728771504 0.80901700255871778 0 0.5877852410284794 0.5877852410284794 0 -0.80901700255871778 forward_v I I I I #
coedge $-1 $262 $263 $264 $265 reversed $104 $-1 #
face $-1 $-1 $266 $54 $-1 $267 forward single #
loop $-1 $268 $269 $106 #
cone-surface $-1 69.533806464611644 18.845591977373175 6.0891783946896627 -0.80901700255871778 0 -0.5877852410284794 0.2938926205142397 0 -0.40450850127935889 1 I I -0.70710678118654691 0.70710678118654813 0.5 forward I I I I #
loop $-1 $-1 $270 $68 #
coedge $-1 $170 $170 $271 $272 reversed $107 $-1 #
face $-1 $-1 $273 $55 $-1 $274 forward single #
loop $-1 $275 $276 $109 #
cone-surface $-1 69.533806464611644 23.544495302784689 6.0891783946896627 -0.80901700255871778 0 -0.5877852410284794 0.2938926205142397 0 -0.40450850127935889 1 I I -0.70710678118654691 0.70710678118654813 0.5 forward I I I I #
loop $-1 $-1 $277 $69 #
coedge $-1 $175 $175 $278 $279 reversed $110 $-1 #
face $-1 $280 $281 $42 $-1 $282 reversed single #
loop $-1 $-1 $283 $112 #
plane-surface $-1 0 -32.526529604678636 0 0 1 0 0 0 1 forward_v I I I I #
coedge $-1 $284 $285 $286 $287 forward $113 $-1 #
coedge $-1 $288 $115 $289 $290 forward $71 $-1 #
coedge $-1 $115 $288 $291 $292 forward $71 $-1 #
coedge $-1 $293 $294 $115 $183 reversed $295 $-1 #
edge $-1 $296 -32.526529604678636 $297 32.526529604678636 $182 $298 forward 7 unknown #
face $-1 $299 $300 $43 $-1 $301 reversed single #
loop $-1 $-1 $302 $116 #
plane-surface $-1 0 0 -14.407683217512334 0 0 1 1 0 0 forward_v I I I I #
coedge $-1 $303 $304 $305 $306 reversed $117 $-1 #
coedge $-1 $307 $119 $304 $308 forward $74 $-1 #
coedge $-1 $119 $307 $309 $310 reversed $74 $-1 #
coedge $-1 $311 $305 $119 $191 forward $300 $-1 #
edge $-1 $312 6.1128459756755049 $313 19.646737744560589 $190 $314 forward 7 unknown #
face $-1 $315 $316 $44 $-1 $317 forward single #
loop $-1 $-1 $318 $120 #
plane-surface $-1 -205.78437503016491 6.7669458844425421 85.541467315575019 0 -1 0 0.84804810408105047 0 -0.52991925155115449 forward_v I I I I #
coedge $-1 $319 $320 $321 $322 reversed $121 $-1 #
coedge $-1 $197 $123 $323 $324 reversed $77 $-1 #
coedge $-1 $123 $196 $319 $325 reversed $77 $-1 #
coedge $-1 $321 $326 $123 $199 forward $316 $-1 #
edge $-1 $327 26.565395315613486 $328 32.664300632792958 $198 $329 forward 7 unknown #
loop $-1 $-1 $205 $124 #
plane-surface $-1 -76.326792199468969 3.3596215578752933 4.6473941242888372 -0.84804810408105047 0 0.52991925155115449 0.52991925155115449 0 0.84804810408105047 forward_v I I I I #
loop $-1 $-1 $330 $79 #
coedge $-1 $203 $203 $204 $331 reversed $125 $-1 #
coedge $-1 $204 $204 $203 $331 forward $127 $-1 #
coedge $-1 $205 $205 $128 $206 forward $200 $-1 #
edge $-1 $332 0 $332 6.2831853071796004 $205 $333 forward 7 unknown #
loop $-1 $-1 $212 $129 #
plane-surface $-1 -76.326792199468969 3.3596215578752933 4.6473941242888372 -0.84804810408105047 0 0.52991925155115449 0.52991925155115449 0 0.84804810408105047 forward_v I I I I #
loop $-1 $-1 $334 $82 #
coedge $-1 $210 $210 $211 $335 reversed $130 $-1 #
coedge $-1 $211 $211 $210 $335 forward $132 $-1 #
coedge $-1 $212 $212 $133 $213 forward $207 $-1 #
edge $-1 $336 0 $336 6.2831853071796004 $212 $337 forward 7 unknown #
face $-1 $338 $339 $47 $-1 $340 forward single #
loop $-1 $-1 $341 $134 #
plane-surface $-1 0 0 14.407683217512334 0 0 1 1 0 0 forward_v I I I I #
coedge $-1 $342 $343 $344 $345 reversed $135 $-1 #
coedge $-1 $346 $137 $347 $348 reversed $86 $-1 #
coedge $-1 $137 $346 $341 $349 reversed $86 $-1 #
coedge $-1 $350 $351 $137 $221 forward $339 $-1 #
edge $-1 $352 0 $353 11.509122001752244 $220 $354 forward 7 unknown #
loop $-1 $-1 $227 $138 #
plane-surface $-1 -76.326792199468969 3.3596215578752933 4.6473941242888372 -0.84804810408105047 0 0.52991925155115449 0.52991925155115449 0 0.84804810408105047 forward_v I I I I #
loop $-1 $-1 $355 $88 #
coedge $-1 $225 $225 $226 $356 reversed $139 $-1 #
coedge $-1 $226 $226 $225 $356 forward $141 $-1 #
coedge $-1 $227 $227 $142 $228 forward $222 $-1 #
edge $-1 $357 0 $357 6.2831853071796004 $227 $358 forward 7 unknown #
loop $-1 $-1 $234 $143 #
plane-surface $-1 -76.326792199468969 3.3596215578752933 4.6473941242888372 -0.84804810408105047 0 0.52991925155115449 0.52991925155115449 0 0.84804810408105047 forward_v I I I I #
loop $-1 $-1 $359 $91 #
coedge $-1 $232 $232 $233 $360 reversed $144 $-1 #
coedge $-1 $233 $233 $232 $360 forward $146 $-1 #
coedge $-1 $234 $234 $147 $235 forward $229 $-1 #
edge $-1 $361 0 $361 6.2831853071796004 $234 $362 forward 7 unknown #
face $-1 $363 $364 $50 $-1 $365 reversed single #
loop $-1 $-1 $366 $148 #
plane-surface $-1 110.09861357995092 -13.143205750840615 213.30346118750609 0 1 0 0.80901700255871778 0 0.5877852410284794 forward_v I I I I #
coedge $-1 $367 $368 $369 $370 reversed $149 $-1 #
coedge $-1 $241 $151 $371 $372 reversed $95 $-1 #
coedge $-1 $151 $240 $367 $373 reversed $95 $-1 #
coedge $-1 $369 $374 $151 $243 forward $375 $-1 #
edge $-1 $376 -21.277485409493508 $377 -10.86533847751241 $242 $378 forward 7 unknown #
loop $-1 $-1 $249 $152 #
plane-surface $-1 -13.400731700322098 -7.6611518711938515 123.57593728771504 0.80901700255871778 0 0.5877852410284794 0.5877852410284794 0 -0.80901700255871778 forward_v I I I I #
loop $-1 $-1 $379 $97 #
coedge $-1 $247 $247 $248 $380 reversed $153 $-1 #
coedge $-1 $248 $248 $247 $380 forward $155 $-1 #
coedge $-1 $249 $249 $156 $250 forward $244 $-1 #
edge $-1 $381 0 $381 6.2831853071796004 $249 $382 forward 7 unknown #
loop $-1 $-1 $256 $157 #
plane-surface $-1 -13.400731700322098 -7.6611518711938515 123.57593728771504 0.80901700255871778 0 0.5877852410284794 0.5877852410284794 0 -0.80901700255871778 forward_v I I I I #
loop $-1 $-1 $383 $100 #
coedge $-1 $254 $254 $255 $384 reversed $158 $-1 #
coedge $-1 $255 $255 $254 $384 forward $160 $-1 #
coedge $-1 $256 $256 $161 $257 forward $251 $-1 #
edge $-1 $385 0 $385 6.2831853071796004 $256 $386 forward 7 unknown #
face $-1 $387 $388 $53 $-1 $389 reversed single #
loop $-1 $-1 $390 $162 #
plane-surface $-1 110.09861357995092 15.712989760432166 213.30346118750609 0 1 0 0.80901700255871778 0 0.5877852410284794 forward_v I I I I #
coedge $-1 $391 $392 $393 $394 reversed $163 $-1 #
coedge $-1 $263 $165 $395 $396 reversed $104 $-1 #
coedge $-1 $165 $262 $391 $397 reversed $104 $-1 #
coedge $-1 $393 $398 $165 $265 forward $399 $-1 #
edge $-1 $400 -21.277485409493508 $401 -10.86533847751241 $264 $402 forward 7 unknown #
loop $-1 $-1 $271 $166 #
plane-surface $-1 -13.400731700322098 21.195043640078929 123.57593728771504 0.80901700255871778 0 0.5877852410284794 0.5877852410284794 0 -0.80901700255871778 forward_v I I I I #
loop $-1 $-1 $403 $106 #
coedge $-1 $269 $269 $270 $404 reversed $167 $-1 #
coedge $-1 $270 $270 $269 $404 forward $169 $-1 #
coedge $-1 $271 $271 $170 $272 forward $266 $-1 #
edge $-1 $405 0 $405 6.2831853071796004 $271 $406 forward 7 unknown #
loop $-1 $-1 $278 $171 #
plane-surface $-1 -13.400731700322098 21.195043640078929 123.57593728771504 0.80901700255871778 0 0.5877852410284794 0.5877852410284794 0 -0.80901700255871778 forward_v I I I I #
loop $-1 $-1 $407 $109 #
coedge $-1 $276 $276 $277 $408 reversed $172 $-1 #
coedge $-1 $277 $277 $276 $408 forward $174 $-1 #
coedge $-1 $278 $278 $175 $279 forward $273 $-1 #
edge $-1 $409 0 $409 6.2831853071796004 $278 $410 forward 7 unknown #
face $-1 $411 $412 $42 $-1 $413 reversed single #
loop $-1 $-1 $414 $176 #
plane-surface $-1 -76.326792199468969 0 0 1 0 0 0 0 -1 forward_v I I I I #
coedge $-1 $415 $291 $416 $417 forward $177 $-1 #
coedge $-1 $418 $179 $415 $419 forward $113 $-1 #
coedge $-1 $179 $418 $420 $421 forward $113 $-1 #
coedge $-1 $294 $293 $179 $287 reversed $295 $-1 #
edge $-1 $422 -32.526529604678636 $423 32.526529604678636 $286 $424 forward 7 unknown #
coedge $-1 $181 $180 $425 $426 forward $71 $-1 #
coedge $-1 $427 $428 $180 $290 reversed $412 $-1 #
edge $-1 $297 -76.326792199468969 $429 76.326792199468969 $289 $430 forward 7 unknown #
coedge $-1 $283 $431 $181 $292 reversed $177 $-1 #
edge $-1 $432 -76.326792199468969 $296 76.326792199468969 $291 $433 forward 7 unknown #
coedge $-1 $286 $182 $431 $434 forward $295 $-1 #
coedge $-1 $182 $286 $427 $435 reversed $295 $-1 #
loop $-1 $-1 $293 $411 #
vertex $-1 $183 $436 #
vertex $-1 $183 $437 #
straight-curve $-1 76.326792199468969 0 14.407683217512334 0 1 0 I I #
face $-1 $438 $439 $43 $-1 $440 reversed single #
loop $-1 $-1 $305 $184 #
plane-surface $-1 76.326792199468969 0 0 -1 0 0 0 0 1 forward_v I I I I #
coedge $-1 $441 $442 $303 $443 forward $185 $-1 #
coedge $-1 $444 $187 $302 $443 reversed $117 $-1 #
coedge $-1 $187 $444 $188 $308 reversed $117 $-1 #
coedge $-1 $190 $445 $187 $306 forward $300 $-1 #
edge $-1 $446 -8.6503919988783302 $312 -2.8641904383896746 $305 $447 forward 7 unknown #
coedge $-1 $189 $188 $448 $449 reversed $74 $-1 #
edge $-1 $312 -76.326792199468969 $450 76.326792199468969 $304 $451 forward 7 unknown #
coedge $-1 $452 $453 $189 $310 forward $439 $-1 #
edge $-1 $313 -76.326792199468969 $454 76.326792199468969 $309 $455 forward 7 unknown #
coedge $-1 $445 $190 $453 $456 forward $300 $-1 #
vertex $-1 $191 $457 #
vertex $-1 $456 $458 #
straight-curve $-1 76.326792199468969 -12.879791860118047 -8.6214816570236774 0 -1 0 I I #
face $-1 $-1 $459 $44 $-1 $460 reversed single #
loop $-1 $-1 $198 $192 #
plane-surface $-1 0 0 14.407683217512334 0 0 1 1 0 0 forward_v I I I I #
coedge $-1 $461 $462 $463 $464 reversed $193 $-1 #
coedge $-1 $465 $195 $197 $325 forward $121 $-1 #
coedge $-1 $195 $465 $461 $466 forward $121 $-1 #
coedge $-1 $463 $198 $195 $322 forward $316 $-1 #
edge $-1 $328 -1.7275135476296022 $467 5.0871351055048954 $321 $468 forward 7 unknown #
coedge $-1 $469 $470 $196 $324 forward $459 $-1 #
edge $-1 $471 -38.123339533498672 $327 -28.363050440275174 $323 $472 forward 7 unknown #
edge $-1 $328 -11.509122001752244 $471 0 $197 $473 forward 7 unknown #
coedge $-1 $198 $463 $469 $474 forward $316 $-1 #
vertex $-1 $324 $475 #
vertex $-1 $199 $476 #
straight-curve $-1 -102.89218751508245 -0.047702768691955555 14.407683217512336 1 0 0 I I #
coedge $-1 $330 $330 $-1 $477 reversed $202 $-1 #
edge $-1 $478 0 $478 6.2831853071796004 $203 $479 forward 7 unknown #
vertex $-1 $206 $480 #
ellipse-curve $-1 -73.277339540879225 1.8993397036321866 9.5275386709005865 -0.84804810408105047 0 0.52991925155115449 0.13247981288778862 0 0.21201202602026262 1 I I #
coedge $-1 $334 $334 $-1 $481 reversed $209 $-1 #
edge $-1 $482 0 $482 6.2831853071796004 $210 $483 forward 7 unknown #
vertex $-1 $213 $484 #
ellipse-curve $-1 -73.277339540879225 4.8199034121183999 9.5275386709005865 -0.84804810408105047 0 0.52991925155115449 0.13247981288778862 0 0.21201202602026262 1 I I #
face $-1 $-1 $485 $47 $-1 $486 reversed single #
loop $-1 $-1 $350 $214 #
plane-surface $-1 -205.78437503016491 6.7669458844425421 85.541467315575019 0 -1 0 0.84804810408105047 0 -0.52991925155115449 forward_v I I I I #
coedge $-1 $344 $487 $219 $349 forward $215 $-1 #
coedge $-1 $343 $217 $346 $488 reversed $135 $-1 #
coedge $-1 $217 $342 $489 $490 reversed $135 $-1 #
coedge $-1 $491 $341 $217 $345 forward $215 $-1 #
edge $-1 $492 -32.664300632792958 $493 -26.565395315613486 $344 $494 forward 7 unknown #
coedge $-1 $219 $218 $342 $488 forward $86 $-1 #
coedge $-1 $495 $489 $218 $348 forward $485 $-1 #
edge $-1 $496 -11.901783758639393 $352 -5.0871351055048954 $347 $497 forward 7 unknown #
edge $-1 $353 5.0871351055048954 $492 11.901783758639393 $341 $498 forward 7 unknown #
coedge $-1 $351 $220 $487 $499 reversed $339 $-1 #
coedge $-1 $220 $350 $495 $500 reversed $339 $-1 #
vertex $-1 $348 $501 #
vertex $-1 $349 $502 #
straight-curve $-1 -76.326792199468969 6.7669458844425421 4.6473941242888372 0.52991925155115449 0 0.84804810408105047 I I #
coedge $-1 $355 $355 $-1 $503 reversed $224 $-1 #
edge $-1 $504 0 $504 6.2831853071796004 $225 $505 forward 7 unknown #
vertex $-1 $228 $506 #
ellipse-curve $-1 -73.277339540879225 8.7139883567666843 9.5275386709005865 -0.84804810408105047 0 0.52991925155115449 0.13247981288778862 0 0.21201202602026262 1 I I #
coedge $-1 $359 $359 $-1 $507 reversed $231 $-1 #
edge $-1 $508 0 $508 6.2831853071796004 $232 $509 forward 7 unknown #
vertex $-1 $235 $510 #
ellipse-curve $-1 -73.277339540879225 11.634552065252898 9.5275386709005865 -0.84804810408105047 0 0.52991925155115449 0.13247981288778862 0 0.21201202602026262 1 I I #
face $-1 $-1 $375 $50 $-1 $511 forward single #
loop $-1 $-1 $512 $236 #
plane-surface $-1 76.326792199468969 0 0 -1 0 0 0 0 1 forward_v I I I I #
coedge $-1 $513 $514 $515 $516 reversed $237 $-1 #
coedge $-1 $517 $239 $241 $373 forward $149 $-1 #
coedge $-1 $239 $517 $513 $518 forward $149 $-1 #
coedge $-1 $515 $242 $239 $370 forward $375 $-1 #
edge $-1 $377 -1.6514779440498373 $519 9.3126298152436888 $369 $520 forward 7 unknown #
coedge $-1 $521 $522 $240 $372 forward $364 $-1 #
edge $-1 $523 -106.57513858631103 $376 -92.244047376240715 $371 $524 forward 7 unknown #
edge $-1 $377 134.93938165073286 $523 152.65358439893794 $241 $525 forward 7 unknown #
coedge $-1 $242 $515 $521 $526 forward $375 $-1 #
loop $-1 $-1 $515 $363 #
vertex $-1 $372 $527 #
vertex $-1 $243 $528 #
straight-curve $-1 55.049306789975461 -2.1790979915470885 14.407683217512329 -1 0 0 I I #
coedge $-1 $379 $379 $-1 $529 reversed $246 $-1 #
edge $-1 $530 0 $530 6.2831853071796004 $247 $531 forward 7 unknown #
vertex $-1 $250 $532 #
ellipse-curve $-1 71.120718733478398 -10.010603533899609 7.2421376124771806 0.80901700255871778 0 0.5877852410284794 0.5877852410284794 0 -0.80901700255871778 1 I I #
coedge $-1 $383 $383 $-1 $533 reversed $253 $-1 #
edge $-1 $534 0 $534 6.2831853071796004 $254 $535 forward 7 unknown #
vertex $-1 $257 $536 #
ellipse-curve $-1 71.120718733478398 -5.311700208488098 7.2421376124771806 0.80901700255871778 0 0.5877852410284794 0.5877852410284794 0 -0.80901700255871778 1 I I #
face $-1 $-1 $399 $53 $-1 $537 forward single #
loop $-1 $-1 $538 $258 #
plane-surface $-1 76.326792199468969 0 0 -1 0 0 0 0 1 forward_v I I I I #
coedge $-1 $539 $540 $541 $542 reversed $259 $-1 #
coedge $-1 $543 $261 $263 $397 forward $163 $-1 #
coedge $-1 $261 $543 $539 $544 forward $163 $-1 #
coedge $-1 $541 $264 $261 $394 forward $399 $-1 #
edge $-1 $401 -16.079575699686227 $545 -5.1154679403927013 $393 $546 forward 7 unknown #
coedge $-1 $547 $548 $262 $396 forward $388 $-1 #
edge $-1 $549 -106.57513858631103 $400 -92.244047376240715 $395 $550 forward 7 unknown #
edge $-1 $401 134.93938165073286 $549 152.65358439893794 $263 $551 forward 7 unknown #
coedge $-1 $264 $541 $547 $552 forward $399 $-1 #
loop $-1 $-1 $541 $387 #
vertex $-1 $396 $553 #
vertex $-1 $265 $554 #
straight-curve $-1 55.049306789975461 26.677097519725692 14.407683217512329 -1 0 0 I I #
coedge $-1 $403 $403 $-1 $555 reversed $268 $-1 #
edge $-1 $556 0 $556 6.2831853071796004 $269 $557 forward 7 unknown #
vertex $-1 $272 $558 #
ellipse-curve $-1 71.120718733478398 18.845591977373175 7.2421376124771806 0.80901700255871778 0 0.5877852410284794 0.5877852410284794 0 -0.80901700255871778 1 I I #
coedge $-1 $407 $407 $-1 $559 reversed $275 $-1 #
edge $-1 $560 0 $560 6.2831853071796004 $276 $561 forward 7 unknown #
vertex $-1 $279 $562 #
ellipse-curve $-1 71.120718733478398 23.544495302784689 7.2421376124771806 0.80901700255871778 0 0.5877852410284794 0.5877852410284794 0 -0.80901700255871778 1 I I #
face $-1 $-1 $295 $42 $-1 $563 reversed single #
loop $-1 $-1 $427 $280 #
plane-surface $-1 0 32.526529604678636 0 0 -1 0 0 0 -1 forward_v I I I I #
coedge $-1 $564 $425 $428 $565 forward $281 $-1 #
coedge $-1 $431 $283 $284 $419 reversed $177 $-1 #
coedge $-1 $425 $564 $283 $417 reversed $281 $-1 #
edge $-1 $432 -14.407683217512334 $566 14.407683217512334 $416 $567 forward 7 unknown #
coedge $-1 $285 $284 $564 $568 forward $113 $-1 #
edge $-1 $423 -76.326792199468969 $566 76.326792199468969 $415 $569 forward 7 unknown #
coedge $-1 $428 $427 $285 $421 reversed $412 $-1 #
edge $-1 $570 -76.326792199468969 $422 76.326792199468969 $420 $571 forward 7 unknown #
vertex $-1 $287 $572 #
vertex $-1 $434 $573 #
straight-curve $-1 76.326792199468969 0 -14.407683217512334 0 -1 0 I I #
coedge $-1 $414 $416 $288 $426 reversed $281 $-1 #
edge $-1 $429 -32.526529604678636 $432 32.526529604678636 $425 $574 forward 7 unknown #
coedge $-1 $420 $289 $294 $435 forward $412 $-1 #
coedge $-1 $289 $420 $414 $565 reversed $412 $-1 #
vertex $-1 $290 $575 #
straight-curve $-1 0 32.526529604678636 14.407683217512334 -1 0 0 I I #
coedge $-1 $291 $415 $293 $434 reversed $177 $-1 #
vertex $-1 $426 $576 #
straight-curve $-1 0 -32.526529604678636 14.407683217512334 1 0 0 I I #
edge $-1 $296 -14.407683217512334 $423 14.407683217512334 $293 $577 forward 7 unknown #
edge $-1 $297 -14.407683217512334 $422 14.407683217512334 $294 $578 forward 7 unknown #
point $-1 76.326792199468969 -32.526529604678636 14.407683217512334 #
point $-1 76.326792199468969 32.526529604678636 14.407683217512334 #
face $-1 $-1 $579 $43 $-1 $580 reversed single #
loop $-1 $-1 $309 $299 #
plane-surface $-1 0 -32.526529604678636 0 0 1 0 0 0 1 forward_v I I I I #
coedge $-1 $581 $302 $445 $582 forward $185 $-1 #
coedge $-1 $302 $581 $583 $584 forward $185 $-1 #
edge $-1 $585 -76.326792199468969 $446 76.326792199468969 $302 $586 forward 7 unknown #
coedge $-1 $304 $303 $587 $588 reversed $117 $-1 #
coedge $-1 $305 $311 $441 $582 reversed $300 $-1 #
vertex $-1 $582 $589 #
straight-curve $-1 76.326792199468969 -18.992637835793552 -5.7572912186340028 0 0 1 I I #
coedge $-1 $587 $590 $307 $449 forward $579 $-1 #
edge $-1 $454 -19.646737744560589 $450 -6.1128459756755049 $448 $591 forward 7 unknown #
vertex $-1 $449 $592 #
straight-curve $-1 0 -18.992637835793552 -8.6214816570236774 -1 0 0 I I #
coedge $-1 $593 $309 $590 $594 forward $439 $-1 #
coedge $-1 $309 $593 $311 $456 reversed $439 $-1 #
vertex $-1 $594 $595 #
straight-curve $-1 0 -32.526529604678636 -8.6214816570236774 -1 0 0 I I #
edge $-1 $313 8.6214816570236774 $596 14.407683217512334 $311 $597 forward 7 unknown #
point $-1 76.326792199468969 -18.992637835793552 -8.6214816570236774 #
point $-1 76.326792199468969 -32.526529604678636 -8.6214816570236774 #
loop $-1 $-1 $323 $315 #
plane-surface $-1 -76.326792199468969 0 0 1 0 0 0 0 -1 forward_v I I I I #
coedge $-1 $462 $318 $320 $466 reversed $193 $-1 #
coedge $-1 $318 $461 $598 $599 reversed $193 $-1 #
coedge $-1 $326 $321 $318 $464 forward $316 $-1 #
edge $-1 $467 -32.664300632792958 $600 -26.565395315613486 $463 $601 forward 7 unknown #
coedge $-1 $320 $319 $470 $602 reversed $121 $-1 #
edge $-1 $603 0 $467 11.509122001752244 $461 $604 forward 7 unknown #
vertex $-1 $322 $605 #
straight-curve $-1 -70.227886882289496 1.6798107789376466 14.407683217512334 0 1 0 I I #
coedge $-1 $598 $323 $326 $474 reversed $459 $-1 #
coedge $-1 $323 $598 $465 $602 forward $459 $-1 #
vertex $-1 $324 $606 #
straight-curve $-1 -76.326792199468969 -0.047702768691955555 42.77073365778751 0 0 1 I I #
straight-curve $-1 -76.326792199468969 -0.047702768691955555 4.6473941242888372 -0.52991925155115449 0 -0.84804810408105047 I I #
edge $-1 $600 -6.7669458844425421 $327 0.047702768691955555 $469 $607 forward 7 unknown #
point $-1 -76.326792199468969 -0.047702768691955555 14.407683217512334 #
point $-1 -70.227886882289496 -0.047702768691955555 14.407683217512334 #
edge $-1 $608 1 $608 0 $330 $-1 forward 7 unknown #
vertex $-1 $331 $609 #
ellipse-curve $-1 -72.429291436798181 1.8993397036321866 8.9976194193494283 -0.84804810408105047 0 0.52991925155115449 0.13247981288778862 0 0.21201202602026262 1 I I #
point $-1 -73.144859727991445 1.8993397036321866 9.7395506969208459 #
edge $-1 $610 1 $610 0 $334 $-1 forward 7 unknown #
vertex $-1 $335 $611 #
ellipse-curve $-1 -72.429291436798181 4.8199034121183999 8.9976194193494283 -0.84804810408105047 0 0.52991925155115449 0.13247981288778862 0 0.21201202602026262 1 I I #
point $-1 -73.144859727991445 4.8199034121183999 9.7395506969208459 #
loop $-1 $-1 $347 $338 #
plane-surface $-1 -76.326792199468969 0 0 1 0 0 0 0 -1 forward_v I I I I #
coedge $-1 $341 $491 $350 $499 forward $215 $-1 #
edge $-1 $496 0 $492 11.509122001752244 $342 $612 forward 7 unknown #
coedge $-1 $347 $613 $343 $490 forward $485 $-1 #
edge $-1 $493 28.363050440275174 $496 38.123339533498672 $489 $614 forward 7 unknown #
coedge $-1 $487 $344 $613 $615 forward $215 $-1 #
vertex $-1 $345 $616 #
vertex $-1 $615 $617 #
straight-curve $-1 -102.89218751508245 13.58159453757704 14.407683217512336 -1 0 0 I I #
coedge $-1 $613 $347 $351 $500 forward $485 $-1 #
vertex $-1 $490 $618 #
straight-curve $-1 -76.326792199468969 1.6798107789376466 4.647394124288831 0 -1 0 I I #
straight-curve $-1 -70.227886882289496 1.6798107789376466 14.407683217512334 0 1 0 I I #
edge $-1 $619 26.565395315613486 $353 32.664300632792958 $487 $620 forward 7 unknown #
edge $-1 $352 -38.123339533498672 $619 -28.363050440275174 $495 $621 forward 7 unknown #
point $-1 -76.326792199468969 6.7669458844425421 4.6473941242888372 #
point $-1 -70.227886882289496 6.7669458844425421 14.407683217512334 #
edge $-1 $622 1 $622 0 $355 $-1 forward 7 unknown #
vertex $-1 $356 $623 #
ellipse-curve $-1 -72.429291436798181 8.7139883567666843 8.9976194193494283 -0.84804810408105047 0 0.52991925155115449 0.13247981288778862 0 0.21201202602026262 1 I I #
point $-1 -73.144859727991445 8.7139883567666843 9.7395506969208459 #
edge $-1 $624 1 $624 0 $359 $-1 forward 7 unknown #
vertex $-1 $360 $625 #
ellipse-curve $-1 -72.429291436798181 11.634552065252898 8.9976194193494283 -0.84804810408105047 0 0.52991925155115449 0.13247981288778862 0 0.21201202602026262 1 I I #
point $-1 -73.144859727991445 11.634552065252898 9.7395506969208459 #
plane-surface $-1 0 0 14.407683217512334 0 0 1 1 0 0 forward_v I I I I #
coedge $-1 $522 $521 $514 $626 forward $364 $-1 #
coedge $-1 $514 $366 $368 $518 reversed $237 $-1 #
coedge $-1 $366 $513 $512 $626 reversed $237 $-1 #
coedge $-1 $374 $369 $366 $516 forward $375 $-1 #
edge $-1 $519 10.86533847751241 $627 21.277485409493508 $515 $628 forward 7 unknown #
coedge $-1 $368 $367 $522 $629 reversed $149 $-1 #
edge $-1 $630 -152.65358439893794 $519 -134.93938165073286 $513 $631 forward 7 unknown #
vertex $-1 $370 $632 #
straight-curve $-1 65.91464526748787 -3.8305759355969258 14.407683217512329 0 -1 0 I I #
coedge $-1 $512 $371 $374 $526 reversed $364 $-1 #
coedge $-1 $371 $512 $517 $629 forward $364 $-1 #
vertex $-1 $372 $633 #
straight-curve $-1 76.326792199468969 -2.1790979915470885 106.65173059375304 0 0 1 I I #
straight-curve $-1 -13.400731700322098 -2.1790979915470885 123.57593728771504 0.5877852410284794 0 -0.80901700255871778 I I #
edge $-1 $627 -13.143205750840615 $376 -2.1790979915470885 $521 $634 forward 7 unknown #
point $-1 76.326792199468969 -2.1790979915470885 14.407683217512334 #
point $-1 65.91464526748787 -2.1790979915470885 14.407683217512314 #
edge $-1 $635 1 $635 0 $379 $-1 forward 7 unknown #
vertex $-1 $380 $636 #
ellipse-curve $-1 69.93831496589101 -10.010603533899609 6.3830710152039032 0.80901700255871778 0 0.5877852410284794 0.5877852410284794 0 -0.80901700255871778 1 I I #
point $-1 71.708503974506897 -10.010603533899609 6.4331206099184746 #
edge $-1 $637 1 $637 0 $383 $-1 forward 7 unknown #
vertex $-1 $384 $638 #
ellipse-curve $-1 69.93831496589101 -5.311700208488098 6.3830710152039032 0.80901700255871778 0 0.5877852410284794 0.5877852410284794 0 -0.80901700255871778 1 I I #
point $-1 71.708503974506897 -5.311700208488098 6.4331206099184746 #
plane-surface $-1 0 0 14.407683217512334 0 0 1 1 0 0 forward_v I I I I #
coedge $-1 $548 $547 $540 $639 forward $388 $-1 #
coedge $-1 $540 $390 $392 $544 reversed $259 $-1 #
coedge $-1 $390 $539 $538 $639 reversed $259 $-1 #
coedge $-1 $398 $393 $390 $542 forward $399 $-1 #
edge $-1 $545 10.86533847751241 $640 21.277485409493508 $541 $641 forward 7 unknown #
coedge $-1 $392 $391 $548 $642 reversed $163 $-1 #
edge $-1 $643 -152.65358439893794 $545 -134.93938165073286 $539 $644 forward 7 unknown #
vertex $-1 $394 $645 #
straight-curve $-1 65.91464526748787 10.597521820039464 14.407683217512329 0 -1 0 I I #
coedge $-1 $538 $395 $398 $552 reversed $388 $-1 #
coedge $-1 $395 $538 $543 $642 forward $388 $-1 #
vertex $-1 $396 $646 #
straight-curve $-1 76.326792199468969 26.677097519725692 106.65173059375304 0 0 1 I I #
straight-curve $-1 -13.400731700322098 26.677097519725692 123.57593728771504 0.5877852410284794 0 -0.80901700255871778 I I #
edge $-1 $640 15.712989760432166 $400 26.677097519725692 $547 $647 forward 7 unknown #
point $-1 76.326792199468969 26.677097519725692 14.407683217512334 #
point $-1 65.91464526748787 26.677097519725692 14.407683217512314 #
edge $-1 $648 1 $648 0 $403 $-1 forward 7 unknown #
vertex $-1 $404 $649 #
ellipse-curve $-1 69.93831496589101 18.845591977373175 6.3830710152039032 0.80901700255871778 0 0.5877852410284794 0.5877852410284794 0 -0.80901700255871778 1 I I #
point $-1 71.708503974506897 18.845591977373175 6.4331206099184746 #
edge $-1 $650 1 $650 0 $407 $-1 forward 7 unknown #
vertex $-1 $408 $651 #
ellipse-curve $-1 69.93831496589101 23.544495302784689 6.3830710152039032 0.80901700255871778 0 0.5877852410284794 0.5877852410284794 0 -0.80901700255871778 1 I I #
point $-1 71.708503974506897 23.544495302784689 6.4331206099184746 #
plane-surface $-1 76.326792199468969 0 0 -1 0 0 0 0 1 forward_v I I I I #
coedge $-1 $416 $414 $418 $568 reversed $281 $-1 #
edge $-1 $429 -14.407683217512334 $570 14.407683217512334 $428 $652 forward 7 unknown #
vertex $-1 $568 $653 #
straight-curve $-1 -76.326792199468969 -32.526529604678636 0 0 0 -1 I I #
edge $-1 $566 -32.526529604678636 $570 32.526529604678636 $564 $654 forward 7 unknown #
straight-curve $-1 0 -32.526529604678636 -14.407683217512334 -1 0 0 I I #
vertex $-1 $421 $655 #
straight-curve $-1 0 32.526529604678636 -14.407683217512334 1 0 0 I I #
point $-1 76.326792199468969 32.526529604678636 -14.407683217512334 #
point $-1 76.326792199468969 -32.526529604678636 -14.407683217512334 #
straight-curve $-1 -76.326792199468969 0 14.407683217512334 0 -1 0 I I #
point $-1 -76.326792199468969 32.526529604678636 14.407683217512334 #
point $-1 -76.326792199468969 -32.526529604678636 14.407683217512334 #
straight-curve $-1 76.326792199468969 -32.526529604678636 0 0 0 -1 I I #
straight-curve $-1 76.326792199468969 32.526529604678636 0 0 0 -1 I I #
loop $-1 $-1 $587 $438 #
plane-surface $-1 -76.326792199468969 0 0 1 0 0 0 0 -1 forward_v I I I I #
coedge $-1 $442 $441 $593 $656 forward $185 $-1 #
edge $-1 $446 18.992637835793552 $596 32.526529604678636 $445 $657 forward 7 unknown #
coedge $-1 $590 $587 $442 $584 reversed $579 $-1 #
edge $-1 $658 -32.526529604678636 $585 -18.992637835793552 $583 $659 forward 7 unknown #
vertex $-1 $588 $660 #
straight-curve $-1 0 -18.992637835793552 -14.407683217512334 1 0 0 I I #
coedge $-1 $583 $448 $444 $588 forward $579 $-1 #
edge $-1 $450 2.8641904383896746 $585 8.6503919988783302 $587 $661 forward 7 unknown #
point $-1 76.326792199468969 -18.992637835793552 -14.407683217512334 #
coedge $-1 $448 $583 $452 $594 reversed $579 $-1 #
straight-curve $-1 -76.326792199468969 -12.879791860118047 -8.6214816570236774 0 1 0 I I #
point $-1 -76.326792199468969 -18.992637835793552 -8.6214816570236774 #
coedge $-1 $453 $452 $581 $656 reversed $439 $-1 #
edge $-1 $454 8.6214816570236774 $658 14.407683217512334 $590 $662 forward 7 unknown #
point $-1 -76.326792199468969 -32.526529604678636 -8.6214816570236774 #
vertex $-1 $456 $663 #
straight-curve $-1 76.326792199468969 -32.526529604678636 0 0 0 -1 I I #
coedge $-1 $470 $469 $462 $599 forward $459 $-1 #
edge $-1 $600 28.363050440275174 $603 38.123339533498672 $598 $664 forward 7 unknown #
vertex $-1 $474 $665 #
straight-curve $-1 -102.89218751508245 6.7669458844425421 14.407683217512336 -1 0 0 I I #
edge $-1 $603 -5.0871351055048954 $471 1.7275135476296022 $470 $666 forward 7 unknown #
vertex $-1 $602 $667 #
straight-curve $-1 -76.326792199468969 6.7669458844425421 4.6473941242888372 0.52991925155115449 0 0.84804810408105047 I I #
point $-1 -70.227886882289496 6.7669458844425421 14.407683217512334 #
point $-1 -76.326792199468969 -0.047702768691955555 4.6473941242888372 #
straight-curve $-1 -76.326792199468969 0 14.407683217512334 0 -1 0 I I #
vertex $-1 $477 $668 #
point $-1 -72.296811623910386 1.8993397036321866 9.2096314453696912 #
vertex $-1 $481 $669 #
point $-1 -72.296811623910386 4.8199034121183999 9.2096314453696912 #
straight-curve $-1 -76.326792199468969 13.58159453757704 4.6473941242888372 0.52991925155115449 0 0.84804810408105047 I I #
coedge $-1 $489 $495 $491 $615 reversed $485 $-1 #
straight-curve $-1 -76.326792199468969 13.58159453757704 42.77073365778751 0 0 -1 I I #
edge $-1 $493 -13.58159453757704 $619 -6.7669458844425421 $613 $670 forward 7 unknown #
point $-1 -70.227886882289496 13.58159453757704 14.407683217512334 #
point $-1 -76.326792199468969 13.58159453757704 14.407683217512334 #
point $-1 -76.326792199468969 13.58159453757704 4.6473941242888372 #
vertex $-1 $500 $671 #
straight-curve $-1 -102.89218751508245 6.7669458844425421 14.407683217512336 1 0 0 I I #
straight-curve $-1 -76.326792199468969 6.7669458844425421 42.77073365778751 0 0 1 I I #
vertex $-1 $503 $672 #
point $-1 -72.296811623910386 8.7139883567666843 9.2096314453696912 #
vertex $-1 $507 $673 #
point $-1 -72.296811623910386 11.634552065252898 9.2096314453696912 #
edge $-1 $627 92.244047376240715 $630 106.57513858631103 $512 $674 forward 7 unknown #
vertex $-1 $526 $675 #
straight-curve $-1 55.049306789975461 -13.143205750840615 14.407683217512329 1 0 0 I I #
edge $-1 $630 -9.3126298152436888 $523 1.6514779440498373 $522 $676 forward 7 unknown #
vertex $-1 $629 $677 #
straight-curve $-1 -13.400731700322098 -13.143205750840615 123.57593728771504 -0.5877852410284794 0 0.80901700255871778 I I #
point $-1 65.91464526748787 -13.143205750840615 14.407683217512314 #
point $-1 76.326792199468954 -2.1790979915470885 0.076592007442016552 #
straight-curve $-1 76.326792199468969 0 14.407683217512334 0 1 0 I I #
vertex $-1 $529 $678 #
point $-1 70.52610020691948 -10.010603533899609 5.5740540126451847 #
vertex $-1 $533 $679 #
point $-1 70.52610020691948 -5.311700208488098 5.5740540126451847 #
edge $-1 $640 92.244047376240715 $643 106.57513858631103 $538 $680 forward 7 unknown #
vertex $-1 $552 $681 #
straight-curve $-1 55.049306789975461 15.712989760432166 14.407683217512329 1 0 0 I I #
edge $-1 $643 5.1154679403927013 $549 16.079575699686227 $548 $682 forward 7 unknown #
vertex $-1 $642 $683 #
straight-curve $-1 -13.400731700322098 15.712989760432166 123.57593728771504 -0.5877852410284794 0 0.80901700255871778 I I #
point $-1 65.91464526748787 15.712989760432166 14.407683217512314 #
point $-1 76.326792199468954 26.677097519725692 0.076592007442016552 #
straight-curve $-1 76.326792199468969 0 14.407683217512334 0 1 0 I I #
vertex $-1 $555 $684 #
point $-1 70.52610020691948 18.845591977373175 5.5740540126451847 #
vertex $-1 $559 $685 #
point $-1 70.52610020691948 23.544495302784689 5.5740540126451847 #
straight-curve $-1 -76.326792199468969 32.526529604678636 0 0 0 -1 I I #
point $-1 -76.326792199468969 -32.526529604678636 -14.407683217512334 #
straight-curve $-1 -76.326792199468969 0 -14.407683217512334 0 1 0 I I #
point $-1 -76.326792199468969 32.526529604678636 -14.407683217512334 #
edge $-1 $596 -76.326792199468969 $658 76.326792199468969 $593 $686 forward 7 unknown #
straight-curve $-1 76.326792199468969 0 -14.407683217512334 0 -1 0 I I #
vertex $-1 $584 $687 #
straight-curve $-1 -76.326792199468969 0 -14.407683217512334 0 1 0 I I #
point $-1 -76.326792199468969 -18.992637835793552 -14.407683217512334 #
straight-curve $-1 -76.326792199468969 -18.992637835793552 -5.7572912186340028 0 0 -1 I I #
straight-curve $-1 -76.326792199468969 -32.526529604678636 0 0 0 -1 I I #
point $-1 76.326792199468969 -32.526529604678636 -14.407683217512334 #
straight-curve $-1 -76.326792199468969 6.7669458844425421 42.77073365778751 0 0 -1 I I #
point $-1 -76.326792199468969 6.7669458844425421 14.407683217512334 #
straight-curve $-1 -76.326792199468969 1.6798107789376466 4.647394124288831 0 -1 0 I I #
point $-1 -76.326792199468969 6.7669458844425421 4.6473941242888372 #
point $-1 -72.21727941077792 1.8993397036321866 8.865139606461641 #
point $-1 -72.21727941077792 4.8199034121183999 8.865139606461641 #
straight-curve $-1 -76.326792199468969 0 14.407683217512334 0 -1 0 I I #
point $-1 -76.326792199468969 6.7669458844425421 14.407683217512334 #
point $-1 -72.21727941077792 8.7139883567666843 8.865139606461641 #
point $-1 -72.21727941077792 11.634552065252898 8.865139606461641 #
straight-curve $-1 76.326792199468969 -13.143205750840615 106.65173059375304 0 0 -1 I I #
point $-1 76.326792199468969 -13.143205750840615 14.407683217512334 #
straight-curve $-1 76.326792199468969 -3.8305759355969258 0.076592007442016552 0 1 0 I I #
point $-1 76.326792199468954 -13.143205750840615 0.076592007442016552 #
point $-1 69.129297963332277 -10.010603533899609 5.7952857741754222 #
point $-1 69.129297963332277 -5.311700208488098 5.7952857741754222 #
straight-curve $-1 76.326792199468969 15.712989760432166 106.65173059375304 0 0 -1 I I #
point $-1 76.326792199468969 15.712989760432166 14.407683217512334 #
straight-curve $-1 76.326792199468969 10.597521820039464 0.076592007442016552 0 1 0 I I #
point $-1 76.326792199468954 15.712989760432166 0.076592007442016552 #
point $-1 69.129297963332277 18.845591977373175 5.7952857741754222 #
point $-1 69.129297963332277 23.544495302784689 5.7952857741754222 #
straight-curve $-1 0 -32.526529604678636 -14.407683217512334 -1 0 0 I I #
point $-1 -76.326792199468969 -32.526529604678636 -14.407683217512334 #
End-of-ACIS-data 