500 0 11 0           
7 Unknown 11 ACIS 5.0 NT 24 Thu Mar 25 21:31:07 1999 
-1 9.9999999999999995e-007 1e-010 
body $-1 $11 $-1 $12 #
body $-1 $13 $-1 $14 #
body $-1 $15 $-1 $16 #
body $-1 $17 $-1 $18 #
body $-1 $19 $-1 $20 #
body $-1 $21 $-1 $22 #
body $-1 $23 $-1 $24 #
body $-1 $25 $-1 $26 #
body $-1 $27 $-1 $28 #
body $-1 $29 $-1 $30 #
body $-1 $31 $-1 $32 #
lump $-1 $-1 $33 $0 #
transform $-1 1 0 0 0 1 0 0 0 1 58.56746116519669 30.087341854300739 12.954810366697817 1 rotate no_reflect no_shear #
lump $-1 $-1 $34 $1 #
transform $-1 1 0 0 0 1 0 0 0 1 58.56746116519669 30.087341854300739 12.954810366697817 1 rotate no_reflect no_shear #
lump $-1 $-1 $35 $2 #
transform $-1 1 0 0 0 1 0 0 0 1 58.56746116519669 30.087341854300739 12.954810366697817 1 rotate no_reflect no_shear #
lump $-1 $-1 $36 $3 #
transform $-1 1 0 0 0 1 0 0 0 1 58.56746116519669 30.087341854300739 12.954810366697817 1 rotate no_reflect no_shear #
lump $-1 $-1 $37 $4 #
transform $-1 1 0 0 0 1 0 0 0 1 58.56746116519669 30.087341854300739 12.954810366697817 1 rotate no_reflect no_shear #
lump $-1 $-1 $38 $5 #
transform $-1 1 0 0 0 1 0 0 0 1 58.56746116519669 30.087341854300739 12.954810366697817 1 rotate no_reflect no_shear #
lump $-1 $-1 $39 $6 #
transform $-1 1 0 0 0 1 0 0 0 1 58.56746116519669 30.087341854300739 12.954810366697817 1 rotate no_reflect no_shear #
lump $-1 $-1 $40 $7 #
transform $-1 1 0 0 0 1 0 0 0 1 58.56746116519669 30.087341854300739 12.954810366697817 1 rotate no_reflect no_shear #
lump $-1 $-1 $41 $8 #
transform $-1 1 0 0 0 1 0 0 0 1 58.56746116519669 30.087341854300739 12.954810366697817 1 rotate no_reflect no_shear #
lump $-1 $-1 $42 $9 #
transform $-1 1 0 0 0 1 0 0 0 1 58.56746116519669 30.087341854300739 12.954810366697817 1 rotate no_reflect no_shear #
lump $-1 $-1 $43 $10 #
transform $-1 1 0 0 0 1 0 0 0 1 58.56746116519669 30.087341854300739 12.954810366697817 1 rotate no_reflect no_shear #
shell $-1 $-1 $-1 $44 $-1 $11 #
shell $-1 $-1 $-1 $45 $-1 $13 #
shell $-1 $-1 $-1 $46 $-1 $15 #
shell $-1 $-1 $-1 $47 $-1 $17 #
shell $-1 $-1 $-1 $48 $-1 $19 #
shell $-1 $-1 $-1 $49 $-1 $21 #
shell $-1 $-1 $-1 $50 $-1 $23 #
shell $-1 $-1 $-1 $51 $-1 $25 #
shell $-1 $-1 $-1 $52 $-1 $27 #
shell $-1 $-1 $-1 $53 $-1 $29 #
shell $-1 $-1 $-1 $54 $-1 $31 #
face $-1 $55 $56 $33 $-1 $57 forward single #
face $-1 $58 $59 $34 $-1 $60 reversed single #
face $-1 $61 $62 $35 $-1 $63 reversed single #
face $-1 $64 $65 $36 $-1 $66 forward single #
face $-1 $67 $68 $37 $-1 $69 forward single #
face $-1 $70 $71 $38 $-1 $72 reversed single #
face $-1 $73 $74 $39 $-1 $75 forward single #
face $-1 $76 $77 $40 $-1 $78 forward single #
face $-1 $79 $80 $41 $-1 $81 reversed single #
face $-1 $82 $83 $42 $-1 $84 forward single #
face $-1 $85 $86 $43 $-1 $87 forward single #
face $-1 $88 $89 $33 $-1 $90 reversed single #
loop $-1 $-1 $91 $44 #
plane-surface $-1 0 0 12.954810366697817 0 0 1 1 0 0 forward_v I I I I #
face $-1 $92 $93 $34 $-1 $94 reversed single #
loop $-1 $-1 $95 $45 #
plane-surface $-1 -56.148916243287438 -19.387293953305985 0 0 -1 0 0 0 -1 forward_v I I I I #
face $-1 $96 $97 $35 $-1 $98 reversed single #
loop $-1 $-1 $99 $46 #
plane-surface $-1 95.831459597343226 14.957966828727253 169.66554556291851 0 -1 0 -0.84804810408105047 0 -0.52991925155115449 forward_v I I I I #
face $-1 $100 $101 $36 $-1 $102 forward single #
loop $-1 $103 $104 $47 #
cone-surface $-1 56.438966295928118 4.3911477571002706 10.193167529461281 -0.84804810408105047 0 -0.52991925155115449 0.52991925155115449 0 -0.84804810408105047 1 I I 0 1 1 forward I I I I #
face $-1 $105 $106 $37 $-1 $107 forward single #
loop $-1 $108 $109 $48 #
cone-surface $-1 56.438966295928118 10.731239200076459 10.193167529461281 -0.84804810408105047 0 -0.52991925155115449 0.52991925155115449 0 -0.84804810408105047 1 I I 0 1 1 forward I I I I #
face $-1 $110 $111 $38 $-1 $112 reversed single #
loop $-1 $-1 $113 $49 #
plane-surface $-1 -152.11557056819095 -6.421360641249457 71.412871594683537 0 1 0 -0.79863551827123203 0 0.60181501223851219 forward_v I I I I #
face $-1 $114 $115 $39 $-1 $116 forward single #
loop $-1 $117 $118 $50 #
cone-surface $-1 -53.397562606629492 -3.0581079007503611 6.4584051572055268 0.79863551827123203 0 -0.60181501223851219 0.60181501223851219 0 0.79863551827123203 1 I I 0 1 1 forward I I I I #
face $-1 $119 $120 $40 $-1 $121 forward single #
loop $-1 $122 $123 $51 #
cone-surface $-1 -53.397562606629492 1.9867712099982811 6.4584051572055268 0.79863551827123203 0 -0.60181501223851219 0.60181501223851219 0 0.79863551827123203 1 I I 0 1 1 forward I I I I #
face $-1 $124 $125 $41 $-1 $126 reversed single #
loop $-1 $-1 $127 $52 #
plane-surface $-1 -152.11557056819095 18.315957262553908 71.412871594683537 0 1 0 -0.79863551827123203 0 0.60181501223851219 forward_v I I I I #
face $-1 $128 $129 $42 $-1 $130 forward single #
loop $-1 $131 $132 $53 #
cone-surface $-1 -53.397562606629492 21.679210003053001 6.4584051572055268 0.79863551827123203 0 -0.60181501223851219 0.60181501223851219 0 0.79863551827123203 1 I I 0 1 1 forward I I I I #
face $-1 $133 $134 $43 $-1 $135 forward single #
loop $-1 $136 $137 $54 #
cone-surface $-1 -53.397562606629492 26.724089113801647 6.4584051572055268 0.79863551827123203 0 -0.60181501223851219 0.60181501223851219 0 0.79863551827123203 1 I I 0 1 1 forward I I I I #
face $-1 $138 $139 $33 $-1 $140 reversed single #
loop $-1 $-1 $141 $55 #
plane-surface $-1 0 0 -12.954810366697817 0 0 1 1 0 0 forward_v I I I I #
coedge $-1 $142 $143 $144 $145 forward $56 $-1 #
face $-1 $146 $147 $34 $-1 $148 forward single #
loop $-1 $-1 $149 $58 #
plane-surface $-1 -53.730371321378186 -24.737317903803362 0 -1 0 0 0 0 1 forward_v I I I I #
coedge $-1 $150 $151 $152 $153 forward $59 $-1 #
face $-1 $154 $155 $35 $-1 $156 reversed single #
loop $-1 $-1 $157 $61 #
plane-surface $-1 -3.5045892066279833 7.5611934785883648 107.59349519109384 0.84804810408105047 0 0.52991925155115449 0.52991925155115449 0 -0.84804810408105047 forward_v I I I I #
coedge $-1 $158 $159 $160 $161 reversed $62 $-1 #
face $-1 $-1 $162 $36 $-1 $163 forward single #
loop $-1 $164 $165 $64 #
cone-surface $-1 55.35406671858135 4.3911477571002706 9.5152470562367846 -0.84804810408105047 0 -0.52991925155115449 0.26495962577557725 0 -0.42402405204052523 1 I I -0.70710678118654746 0.70710678118654746 0.5 forward I I I I #
loop $-1 $-1 $166 $47 #
coedge $-1 $104 $104 $167 $168 reversed $65 $-1 #
face $-1 $-1 $169 $37 $-1 $170 forward single #
loop $-1 $171 $172 $67 #
cone-surface $-1 55.35406671858135 10.731239200076459 9.5152470562367846 -0.84804810408105047 0 -0.52991925155115449 0.26495962577557725 0 -0.42402405204052523 1 I I -0.70710678118654746 0.70710678118654746 0.5 forward I I I I #
loop $-1 $-1 $173 $48 #
coedge $-1 $109 $109 $174 $175 reversed $68 $-1 #
face $-1 $176 $177 $38 $-1 $178 reversed single #
loop $-1 $-1 $179 $70 #
plane-surface $-1 -58.567461165196718 -0.53566834537603825 0.91931687886066982 -0.79863551827123203 0 0.60181501223851219 0.60181501223851219 0 0.79863551827123203 forward_v I I I I #
coedge $-1 $180 $181 $182 $183 reversed $71 $-1 #
face $-1 $-1 $184 $39 $-1 $185 forward single #
loop $-1 $186 $187 $73 #
cone-surface $-1 -52.363043591369554 -3.0581079007503611 5.6788391855125546 0.79863551827123203 0 -0.60181501223851219 0.3009075061192561 0 0.39931775913561601 1 I I -0.70710678118654746 0.70710678118654746 0.5 forward I I I I #
loop $-1 $-1 $188 $50 #
coedge $-1 $118 $118 $189 $190 reversed $74 $-1 #
face $-1 $-1 $191 $40 $-1 $192 forward single #
loop $-1 $193 $194 $76 #
cone-surface $-1 -52.363043591369554 1.9867712099982811 5.6788391855125546 0.79863551827123203 0 -0.60181501223851219 0.3009075061192561 0 0.39931775913561601 1 I I -0.70710678118654746 0.70710678118654746 0.5 forward I I I I #
loop $-1 $-1 $195 $51 #
coedge $-1 $123 $123 $196 $197 reversed $77 $-1 #
face $-1 $198 $199 $41 $-1 $200 forward single #
loop $-1 $-1 $201 $79 #
plane-surface $-1 -58.567461165196718 24.201649558427327 0.91931687886066982 -0.79863551827123203 0 0.60181501223851219 0.60181501223851219 0 0.79863551827123203 forward_v I I I I #
coedge $-1 $202 $203 $204 $205 reversed $80 $-1 #
face $-1 $-1 $206 $42 $-1 $207 forward single #
loop $-1 $208 $209 $82 #
cone-surface $-1 -52.363043591369554 21.679210003053001 5.6788391855125546 0.79863551827123203 0 -0.60181501223851219 0.3009075061192561 0 0.39931775913561601 1 I I -0.70710678118654746 0.70710678118654746 0.5 forward I I I I #
loop $-1 $-1 $210 $53 #
coedge $-1 $132 $132 $211 $212 reversed $83 $-1 #
face $-1 $-1 $213 $43 $-1 $214 forward single #
loop $-1 $215 $216 $85 #
cone-surface $-1 -52.363043591369554 26.724089113801647 5.6788391855125546 0.79863551827123203 0 -0.60181501223851219 0.3009075061192561 0 0.39931775913561601 1 I I -0.70710678118654746 0.70710678118654746 0.5 forward I I I I #
loop $-1 $-1 $217 $54 #
coedge $-1 $137 $137 $218 $219 reversed $86 $-1 #
face $-1 $220 $221 $33 $-1 $222 reversed single #
loop $-1 $-1 $223 $88 #
plane-surface $-1 0 -30.087341854300739 0 0 1 0 0 0 1 forward_v I I I I #
coedge $-1 $224 $225 $226 $227 forward $89 $-1 #
coedge $-1 $228 $91 $229 $230 forward $56 $-1 #
coedge $-1 $91 $228 $231 $232 forward $56 $-1 #
coedge $-1 $233 $234 $91 $145 reversed $235 $-1 #
edge $-1 $236 -30.087341854300739 $237 30.087341854300739 $144 $238 forward 7 unknown #
face $-1 $239 $240 $34 $-1 $241 reversed single #
loop $-1 $-1 $242 $92 #
plane-surface $-1 0 0 12.954810366697817 0 0 1 1 0 0 forward_v I I I I #
coedge $-1 $243 $244 $245 $246 reversed $93 $-1 #
coedge $-1 $247 $95 $248 $249 reversed $59 $-1 #
coedge $-1 $95 $247 $250 $251 reversed $59 $-1 #
coedge $-1 $244 $243 $95 $153 reversed $93 $-1 #
edge $-1 $252 -12.954810366697817 $253 12.954810366697817 $152 $254 forward 7 unknown #
face $-1 $255 $256 $35 $-1 $257 reversed single #
loop $-1 $-1 $258 $96 #
plane-surface $-1 95.831459597343226 0.16442012844947662 169.66554556291851 0 1 0 0.84804810408105047 0 0.52991925155115449 forward_v I I I I #
coedge $-1 $259 $260 $261 $262 reversed $97 $-1 #
coedge $-1 $159 $99 $263 $264 reversed $62 $-1 #
coedge $-1 $99 $158 $259 $265 reversed $62 $-1 #
coedge $-1 $261 $266 $99 $161 forward $267 $-1 #
edge $-1 $268 -10.651731366525077 $269 -7.7164926786004457 $160 $270 forward 7 unknown #
loop $-1 $-1 $167 $100 #
plane-surface $-1 -3.5045892066279833 7.5611934785883648 107.59349519109384 0.84804810408105047 0 0.52991925155115449 0.52991925155115449 0 -0.84804810408105047 forward_v I I I I #
loop $-1 $-1 $271 $64 #
coedge $-1 $165 $165 $166 $272 reversed $101 $-1 #
coedge $-1 $166 $166 $165 $272 forward $103 $-1 #
coedge $-1 $167 $167 $104 $168 forward $162 $-1 #
edge $-1 $273 0 $273 6.2831853071796004 $167 $274 forward 7 unknown #
loop $-1 $-1 $174 $105 #
plane-surface $-1 -3.5045892066279833 7.5611934785883648 107.59349519109384 0.84804810408105047 0 0.52991925155115449 0.52991925155115449 0 -0.84804810408105047 forward_v I I I I #
loop $-1 $-1 $275 $67 #
coedge $-1 $172 $172 $173 $276 reversed $106 $-1 #
coedge $-1 $173 $173 $172 $276 forward $108 $-1 #
coedge $-1 $174 $174 $109 $175 forward $169 $-1 #
edge $-1 $277 0 $277 6.2831853071796004 $174 $278 forward 7 unknown #
face $-1 $279 $280 $38 $-1 $281 reversed single #
loop $-1 $-1 $282 $110 #
plane-surface $-1 -152.11557056819095 5.3500239504973806 71.412871594683537 0 -1 0 0.79863551827123203 0 -0.60181501223851219 forward_v I I I I #
coedge $-1 $283 $284 $285 $286 reversed $111 $-1 #
coedge $-1 $181 $113 $287 $288 reversed $71 $-1 #
coedge $-1 $113 $180 $283 $289 reversed $71 $-1 #
coedge $-1 $285 $290 $113 $183 forward $291 $-1 #
edge $-1 $292 17.490324118898783 $293 26.559718723784506 $182 $294 forward 7 unknown #
loop $-1 $-1 $189 $114 #
plane-surface $-1 -58.567461165196718 -0.53566834537603825 0.91931687886066982 -0.79863551827123203 0 0.60181501223851219 0.60181501223851219 0 0.79863551827123203 forward_v I I I I #
loop $-1 $-1 $295 $73 #
coedge $-1 $187 $187 $188 $296 reversed $115 $-1 #
coedge $-1 $188 $188 $187 $296 forward $117 $-1 #
coedge $-1 $189 $189 $118 $190 forward $184 $-1 #
edge $-1 $297 0 $297 6.2831853071796004 $189 $298 forward 7 unknown #
loop $-1 $-1 $196 $119 #
plane-surface $-1 -58.567461165196718 -0.53566834537603825 0.91931687886066982 -0.79863551827123203 0 0.60181501223851219 0.60181501223851219 0 0.79863551827123203 forward_v I I I I #
loop $-1 $-1 $299 $76 #
coedge $-1 $194 $194 $195 $300 reversed $120 $-1 #
coedge $-1 $195 $195 $194 $300 forward $122 $-1 #
coedge $-1 $196 $196 $123 $197 forward $191 $-1 #
edge $-1 $301 0 $301 6.2831853071796004 $196 $302 forward 7 unknown #
face $-1 $303 $304 $41 $-1 $305 reversed single #
loop $-1 $-1 $204 $124 #
plane-surface $-1 0 0 12.954810366697817 0 0 1 1 0 0 forward_v I I I I #
coedge $-1 $306 $307 $308 $309 reversed $125 $-1 #
coedge $-1 $203 $127 $310 $311 reversed $80 $-1 #
coedge $-1 $127 $202 $306 $312 reversed $80 $-1 #
coedge $-1 $308 $313 $127 $205 forward $199 $-1 #
edge $-1 $314 17.490324118898783 $315 26.559718723784506 $204 $316 forward 7 unknown #
loop $-1 $-1 $211 $128 #
plane-surface $-1 -58.567461165196718 24.201649558427327 0.91931687886066982 -0.79863551827123203 0 0.60181501223851219 0.60181501223851219 0 0.79863551827123203 forward_v I I I I #
loop $-1 $-1 $317 $82 #
coedge $-1 $209 $209 $210 $318 reversed $129 $-1 #
coedge $-1 $210 $210 $209 $318 forward $131 $-1 #
coedge $-1 $211 $211 $132 $212 forward $206 $-1 #
edge $-1 $319 0 $319 6.2831853071796004 $211 $320 forward 7 unknown #
loop $-1 $-1 $218 $133 #
plane-surface $-1 -58.567461165196718 24.201649558427327 0.91931687886066982 -0.79863551827123203 0 0.60181501223851219 0.60181501223851219 0 0.79863551827123203 forward_v I I I I #
loop $-1 $-1 $321 $85 #
coedge $-1 $216 $216 $217 $322 reversed $134 $-1 #
coedge $-1 $217 $217 $216 $322 forward $136 $-1 #
coedge $-1 $218 $218 $137 $219 forward $213 $-1 #
edge $-1 $323 0 $323 6.2831853071796004 $218 $324 forward 7 unknown #
face $-1 $325 $326 $33 $-1 $327 reversed single #
loop $-1 $-1 $328 $138 #
plane-surface $-1 -58.56746116519669 0 0 1 0 0 0 0 -1 forward_v I I I I #
coedge $-1 $329 $231 $330 $331 forward $139 $-1 #
coedge $-1 $332 $141 $329 $333 forward $89 $-1 #
coedge $-1 $141 $332 $334 $335 forward $89 $-1 #
coedge $-1 $234 $233 $141 $227 reversed $235 $-1 #
edge $-1 $336 -30.087341854300739 $337 30.087341854300739 $226 $338 forward 7 unknown #
coedge $-1 $143 $142 $339 $340 forward $56 $-1 #
coedge $-1 $341 $342 $142 $230 reversed $326 $-1 #
edge $-1 $237 -58.56746116519669 $343 58.56746116519669 $229 $344 forward 7 unknown #
coedge $-1 $223 $345 $143 $232 reversed $139 $-1 #
edge $-1 $346 -58.56746116519669 $236 58.56746116519669 $231 $347 forward 7 unknown #
coedge $-1 $226 $144 $345 $348 forward $235 $-1 #
coedge $-1 $144 $226 $341 $349 reversed $235 $-1 #
loop $-1 $-1 $233 $325 #
vertex $-1 $145 $350 #
vertex $-1 $145 $351 #
straight-curve $-1 58.56746116519669 0 12.954810366697817 0 1 0 I I #
face $-1 $352 $353 $34 $-1 $354 reversed single #
loop $-1 $-1 $355 $146 #
plane-surface $-1 -58.56746116519669 0 0 1 0 0 0 0 -1 forward_v I I I I #
coedge $-1 $250 $356 $244 $357 forward $147 $-1 #
coedge $-1 $152 $149 $358 $359 reversed $93 $-1 #
coedge $-1 $149 $152 $242 $357 reversed $93 $-1 #
coedge $-1 $360 $361 $149 $246 forward $362 $-1 #
edge $-1 $363 -12.954810366697817 $364 12.954810366697817 $245 $365 forward 7 unknown #
coedge $-1 $151 $150 $355 $366 reversed $59 $-1 #
coedge $-1 $358 $367 $150 $249 forward $353 $-1 #
edge $-1 $368 -30.493003043552971 $253 -25.655913199734467 $248 $369 forward 7 unknown #
coedge $-1 $370 $242 $151 $251 forward $147 $-1 #
edge $-1 $252 25.655913199734467 $371 30.493003043552971 $250 $372 forward 7 unknown #
vertex $-1 $251 $373 #
vertex $-1 $249 $374 #
straight-curve $-1 -53.730371321378186 -19.387293953305985 0 0 0 -1 I I #
face $-1 $-1 $267 $35 $-1 $375 forward single #
loop $-1 $-1 $376 $154 #
plane-surface $-1 58.56746116519669 0 0 -1 0 0 0 0 1 forward_v I I I I #
coedge $-1 $377 $378 $379 $380 reversed $155 $-1 #
coedge $-1 $381 $157 $159 $265 forward $97 $-1 #
coedge $-1 $157 $381 $377 $382 forward $97 $-1 #
coedge $-1 $379 $160 $157 $262 forward $267 $-1 #
edge $-1 $269 -11.177370089433071 $383 3.6161766108447058 $261 $384 forward 7 unknown #
coedge $-1 $385 $386 $158 $264 forward $256 $-1 #
edge $-1 $387 -76.575326394336628 $268 -71.877962414761441 $263 $388 forward 7 unknown #
edge $-1 $269 111.595892224707 $387 117.13492233039338 $159 $389 forward 7 unknown #
coedge $-1 $160 $379 $385 $390 forward $267 $-1 #
loop $-1 $-1 $379 $255 #
vertex $-1 $264 $391 #
vertex $-1 $161 $392 #
straight-curve $-1 47.915729798671613 14.957966828727253 12.954810366697814 -1 0 0 I I #
coedge $-1 $271 $271 $-1 $393 reversed $164 $-1 #
edge $-1 $394 0 $394 6.2831853071796004 $165 $395 forward 7 unknown #
vertex $-1 $168 $396 #
ellipse-curve $-1 57.099841821234378 4.3911477571002706 10.606128376910211 0.84804810408105047 0 0.52991925155115449 0.52991925155115449 0 -0.84804810408105047 1 I I #
coedge $-1 $275 $275 $-1 $397 reversed $171 $-1 #
edge $-1 $398 0 $398 6.2831853071796004 $172 $399 forward 7 unknown #
vertex $-1 $175 $400 #
ellipse-curve $-1 57.099841821234378 10.731239200076459 10.606128376910211 0.84804810408105047 0 0.52991925155115449 0.52991925155115449 0 -0.84804810408105047 1 I I #
face $-1 $-1 $291 $38 $-1 $401 forward single #
loop $-1 $-1 $402 $176 #
plane-surface $-1 -58.56746116519669 0 0 1 0 0 0 0 -1 forward_v I I I I #
coedge $-1 $403 $404 $405 $406 reversed $177 $-1 #
coedge $-1 $407 $179 $181 $289 forward $111 $-1 #
coedge $-1 $179 $407 $403 $408 forward $111 $-1 #
coedge $-1 $405 $182 $179 $286 forward $291 $-1 #
edge $-1 $293 -6.1535264685614379 $409 5.6178581231853997 $285 $410 forward 7 unknown #
coedge $-1 $411 $412 $180 $288 forward $280 $-1 #
edge $-1 $413 -34.787118918481063 $292 -22.751625430643951 $287 $414 forward 7 unknown #
edge $-1 $293 -15.070070404444074 $413 -4.7251171791415696e-014 $181 $415 forward 7 unknown #
coedge $-1 $182 $405 $411 $416 forward $291 $-1 #
loop $-1 $-1 $405 $279 #
vertex $-1 $288 $417 #
vertex $-1 $183 $418 #
straight-curve $-1 -76.057785284095473 -6.421360641249457 12.954810366697817 1 0 0 I I #
coedge $-1 $295 $295 $-1 $419 reversed $186 $-1 #
edge $-1 $420 0 $420 6.2831853071796004 $187 $421 forward 7 unknown #
vertex $-1 $190 $422 #
ellipse-curve $-1 -54.032763862753832 -3.0581079007503611 6.9370636227792568 -0.79863551827123203 0 0.60181501223851219 0.60181501223851219 0 0.79863551827123203 1 I I #
coedge $-1 $299 $299 $-1 $423 reversed $193 $-1 #
edge $-1 $424 0 $424 6.2831853071796004 $194 $425 forward 7 unknown #
vertex $-1 $197 $426 #
ellipse-curve $-1 -54.032763862753832 1.9867712099982811 6.9370636227792568 -0.79863551827123203 0 0.60181501223851219 0.60181501223851219 0 0.79863551827123203 1 I I #
face $-1 $-1 $427 $41 $-1 $428 reversed single #
loop $-1 $-1 $429 $198 #
plane-surface $-1 0 30.087341854300739 0 0 -1 0 0 0 -1 forward_v I I I I #
coedge $-1 $430 $201 $203 $312 forward $125 $-1 #
coedge $-1 $201 $430 $429 $431 reversed $125 $-1 #
coedge $-1 $432 $204 $201 $309 forward $199 $-1 #
edge $-1 $315 6.2151324833402448 $433 17.986517075087082 $308 $434 forward 7 unknown #
coedge $-1 $435 $436 $202 $311 forward $427 $-1 #
edge $-1 $437 -34.787118918481063 $314 -22.751625430643951 $310 $438 forward 7 unknown #
edge $-1 $315 -15.070070404444074 $437 -4.7251171791415696e-014 $203 $439 forward 7 unknown #
coedge $-1 $204 $432 $435 $440 forward $199 $-1 #
vertex $-1 $311 $441 #
vertex $-1 $205 $442 #
straight-curve $-1 -76.057785284095473 18.315957262553908 12.954810366697817 1 0 0 I I #
coedge $-1 $317 $317 $-1 $443 reversed $208 $-1 #
edge $-1 $444 0 $444 6.2831853071796004 $209 $445 forward 7 unknown #
vertex $-1 $212 $446 #
ellipse-curve $-1 -54.032763862753832 21.679210003053001 6.9370636227792568 -0.79863551827123203 0 0.60181501223851219 0.60181501223851219 0 0.79863551827123203 1 I I #
coedge $-1 $321 $321 $-1 $447 reversed $215 $-1 #
edge $-1 $448 0 $448 6.2831853071796004 $216 $449 forward 7 unknown #
vertex $-1 $219 $450 #
ellipse-curve $-1 -54.032763862753832 26.724089113801647 6.9370636227792568 -0.79863551827123203 0 0.60181501223851219 0.60181501223851219 0 0.79863551827123203 1 I I #
face $-1 $-1 $235 $33 $-1 $451 reversed single #
loop $-1 $-1 $341 $220 #
plane-surface $-1 0 30.087341854300739 0 0 -1 0 0 0 -1 forward_v I I I I #
coedge $-1 $452 $339 $342 $453 forward $221 $-1 #
coedge $-1 $345 $223 $224 $333 reversed $139 $-1 #
coedge $-1 $339 $452 $223 $331 reversed $221 $-1 #
edge $-1 $346 -12.954810366697817 $454 12.954810366697817 $330 $455 forward 7 unknown #
coedge $-1 $225 $224 $452 $456 forward $89 $-1 #
edge $-1 $337 -58.56746116519669 $454 58.56746116519669 $329 $457 forward 7 unknown #
coedge $-1 $342 $341 $225 $335 reversed $326 $-1 #
edge $-1 $458 -58.56746116519669 $336 58.56746116519669 $334 $459 forward 7 unknown #
vertex $-1 $227 $460 #
vertex $-1 $348 $461 #
straight-curve $-1 58.56746116519669 0 -12.954810366697817 0 -1 0 I I #
coedge $-1 $328 $330 $228 $340 reversed $221 $-1 #
edge $-1 $343 -30.087341854300739 $346 30.087341854300739 $339 $462 forward 7 unknown #
coedge $-1 $334 $229 $234 $349 forward $326 $-1 #
coedge $-1 $229 $334 $328 $453 reversed $326 $-1 #
vertex $-1 $230 $463 #
straight-curve $-1 0 30.087341854300739 12.954810366697817 -1 0 0 I I #
coedge $-1 $231 $329 $233 $348 reversed $139 $-1 #
vertex $-1 $340 $464 #
straight-curve $-1 0 -30.087341854300739 12.954810366697817 1 0 0 I I #
edge $-1 $236 -12.954810366697817 $337 12.954810366697817 $233 $465 forward 7 unknown #
edge $-1 $237 -12.954810366697817 $336 12.954810366697817 $234 $466 forward 7 unknown #
point $-1 58.56746116519669 -30.087341854300739 12.954810366697817 #
point $-1 58.56746116519669 30.087341854300739 12.954810366697817 #
face $-1 $-1 $362 $34 $-1 $467 reversed single #
loop $-1 $-1 $358 $239 #
plane-surface $-1 0 0 -12.954810366697817 0 0 1 1 0 0 forward_v I I I I #
coedge $-1 $468 $469 $247 $366 forward $240 $-1 #
coedge $-1 $242 $370 $360 $470 forward $147 $-1 #
edge $-1 $364 -17.71868290239906 $252 -7.018635001404304 $242 $471 forward 7 unknown #
coedge $-1 $472 $248 $243 $359 forward $353 $-1 #
edge $-1 $253 7.018635001404304 $363 17.71868290239906 $358 $473 forward 7 unknown #
coedge $-1 $474 $245 $356 $470 reversed $362 $-1 #
coedge $-1 $245 $474 $472 $475 reversed $362 $-1 #
loop $-1 $-1 $245 $352 #
vertex $-1 $475 $476 #
vertex $-1 $246 $477 #
straight-curve $-1 -53.730371321378186 -30.087341854300739 0 0 0 1 I I #
edge $-1 $371 -12.954810366697817 $368 12.954810366697817 $355 $478 forward 7 unknown #
coedge $-1 $248 $472 $468 $479 forward $353 $-1 #
vertex $-1 $249 $480 #
straight-curve $-1 -28.074458121643719 -19.387293953305985 -12.954810366697817 1 0 0 I I #
coedge $-1 $356 $250 $469 $481 forward $147 $-1 #
vertex $-1 $481 $482 #
straight-curve $-1 -28.074458121643719 -19.387293953305985 12.954810366697817 -1 0 0 I I #
point $-1 -53.730371321378186 -19.387293953305985 12.954810366697817 #
point $-1 -53.730371321378186 -19.387293953305985 -12.954810366697817 #
plane-surface $-1 0 0 12.954810366697817 0 0 1 1 0 0 forward_v I I I I #
coedge $-1 $386 $385 $378 $483 forward $256 $-1 #
coedge $-1 $378 $258 $260 $382 reversed $155 $-1 #
coedge $-1 $258 $377 $376 $483 reversed $155 $-1 #
coedge $-1 $266 $261 $258 $380 forward $267 $-1 #
edge $-1 $383 7.7164926786004457 $484 10.651731366525077 $379 $485 forward 7 unknown #
coedge $-1 $260 $259 $386 $486 reversed $97 $-1 #
edge $-1 $487 -117.13492233039338 $383 -111.595892224707 $377 $488 forward 7 unknown #
vertex $-1 $262 $489 #
straight-curve $-1 55.632222477272052 3.7805967392941824 12.954810366697821 0 -1 0 I I #
coedge $-1 $376 $263 $266 $390 reversed $256 $-1 #
coedge $-1 $263 $376 $381 $486 forward $256 $-1 #
vertex $-1 $264 $490 #
straight-curve $-1 58.56746116519669 14.957966828727253 84.832772781459255 0 0 1 I I #
straight-curve $-1 -3.5045892066279833 14.957966828727253 107.59349519109384 0.52991925155115449 0 -0.84804810408105047 I I #
edge $-1 $484 0.16442012844947662 $268 14.957966828727253 $385 $491 forward 7 unknown #
point $-1 58.56746116519669 14.957966828727253 12.954810366697817 #
point $-1 55.632222477272059 14.957966828727253 12.954810366697814 #
edge $-1 $492 1 $492 0 $271 $-1 forward 7 unknown #
vertex $-1 $272 $493 #
ellipse-curve $-1 55.778090770621873 4.3911477571002706 9.780206682012361 0.84804810408105047 0 0.52991925155115449 0.52991925155115449 0 -0.84804810408105047 1 I I #
point $-1 57.629761072785513 4.3911477571002706 9.7580802728291491 #
edge $-1 $494 1 $494 0 $275 $-1 forward 7 unknown #
vertex $-1 $276 $495 #
ellipse-curve $-1 55.778090770621873 10.731239200076459 9.780206682012361 0.84804810408105047 0 0.52991925155115449 0.52991925155115449 0 -0.84804810408105047 1 I I #
point $-1 57.629761072785513 10.731239200076459 9.7580802728291491 #
plane-surface $-1 0 0 12.954810366697817 0 0 1 1 0 0 forward_v I I I I #
coedge $-1 $412 $411 $404 $496 forward $280 $-1 #
coedge $-1 $404 $282 $284 $408 reversed $177 $-1 #
coedge $-1 $282 $403 $402 $496 reversed $177 $-1 #
coedge $-1 $290 $285 $282 $406 forward $291 $-1 #
edge $-1 $409 -26.559718723784506 $497 -17.490324118898783 $405 $498 forward 7 unknown #
coedge $-1 $284 $283 $412 $499 reversed $111 $-1 #
edge $-1 $500 4.7251171791415696e-014 $409 15.070070404444074 $403 $501 forward 7 unknown #
vertex $-1 $286 $502 #
straight-curve $-1 -49.498066560310967 -0.26783417268801912 12.954810366697817 0 1 0 I I #
coedge $-1 $402 $287 $290 $416 reversed $280 $-1 #
coedge $-1 $287 $402 $407 $499 forward $280 $-1 #
vertex $-1 $288 $503 #
straight-curve $-1 -58.56746116519669 -6.421360641249457 35.706435797341769 0 0 1 I I #
straight-curve $-1 -58.567461165196718 -6.421360641249457 0.91931687886066982 -0.60181501223851219 0 -0.79863551827123203 I I #
edge $-1 $497 -5.3500239504973806 $292 6.421360641249457 $411 $504 forward 7 unknown #
point $-1 -58.56746116519669 -6.421360641249457 12.954810366697817 #
point $-1 -49.498066560310967 -6.421360641249457 12.954810366697817 #
edge $-1 $505 1 $505 0 $295 $-1 forward 7 unknown #
vertex $-1 $296 $506 #
ellipse-curve $-1 -52.762361350505167 -3.0581079007503611 5.9797466916318109 -0.79863551827123203 0 0.60181501223851219 0.60181501223851219 0 0.79863551827123203 1 I I #
point $-1 -53.430948850515307 -3.0581079007503611 7.7356991410504756 #
edge $-1 $507 1 $507 0 $299 $-1 forward 7 unknown #
vertex $-1 $300 $508 #
ellipse-curve $-1 -52.762361350505167 1.9867712099982811 5.9797466916318109 -0.79863551827123203 0 0.60181501223851219 0.60181501223851219 0 0.79863551827123203 1 I I #
point $-1 -53.430948850515307 1.9867712099982811 7.7356991410504756 #
loop $-1 $-1 $310 $303 #
plane-surface $-1 -58.56746116519669 0 0 1 0 0 0 0 -1 forward_v I I I I #
coedge $-1 $509 $510 $307 $431 forward $304 $-1 #
coedge $-1 $307 $306 $436 $511 reversed $125 $-1 #
edge $-1 $433 2.1862187185094597 $512 17.256289122953486 $429 $513 forward 7 unknown #
coedge $-1 $313 $308 $510 $514 forward $199 $-1 #
vertex $-1 $514 $515 #
straight-curve $-1 -49.498066560310967 12.100824779213664 12.954810366697817 0 1 0 I I #
coedge $-1 $516 $310 $313 $440 reversed $427 $-1 #
coedge $-1 $310 $516 $430 $511 forward $427 $-1 #
vertex $-1 $311 $517 #
straight-curve $-1 -58.56746116519669 18.315957262553908 35.706435797341769 0 0 1 I I #
straight-curve $-1 -58.567461165196718 18.315957262553908 0.91931687886066982 -0.60181501223851219 0 -0.79863551827123203 I I #
edge $-1 $518 -30.087341854300739 $314 -18.315957262553908 $435 $519 forward 7 unknown #
point $-1 -58.56746116519669 18.315957262553908 12.954810366697817 #
point $-1 -49.498066560310967 18.315957262553908 12.954810366697817 #
edge $-1 $520 1 $520 0 $317 $-1 forward 7 unknown #
vertex $-1 $318 $521 #
ellipse-curve $-1 -52.762361350505167 21.679210003053001 5.9797466916318109 -0.79863551827123203 0 0.60181501223851219 0.60181501223851219 0 0.79863551827123203 1 I I #
point $-1 -53.430948850515307 21.679210003053001 7.7356991410504756 #
edge $-1 $522 1 $522 0 $321 $-1 forward 7 unknown #
vertex $-1 $322 $523 #
ellipse-curve $-1 -52.762361350505167 26.724089113801647 5.9797466916318109 -0.79863551827123203 0 0.60181501223851219 0.60181501223851219 0 0.79863551827123203 1 I I #
point $-1 -53.430948850515307 26.724089113801647 7.7356991410504756 #
plane-surface $-1 58.56746116519669 0 0 -1 0 0 0 0 1 forward_v I I I I #
coedge $-1 $330 $328 $332 $456 reversed $221 $-1 #
edge $-1 $343 -12.954810366697817 $458 12.954810366697817 $342 $524 forward 7 unknown #
vertex $-1 $456 $525 #
straight-curve $-1 -58.56746116519669 -30.087341854300739 0 0 0 -1 I I #
edge $-1 $454 -30.087341854300739 $458 30.087341854300739 $452 $526 forward 7 unknown #
straight-curve $-1 0 -30.087341854300739 -12.954810366697817 -1 0 0 I I #
vertex $-1 $335 $527 #
straight-curve $-1 0 30.087341854300739 -12.954810366697817 1 0 0 I I #
point $-1 58.56746116519669 30.087341854300739 -12.954810366697817 #
point $-1 58.56746116519669 -30.087341854300739 -12.954810366697817 #
straight-curve $-1 -58.56746116519669 0 12.954810366697817 0 -1 0 I I #
point $-1 -58.56746116519669 30.087341854300739 12.954810366697817 #
point $-1 -58.56746116519669 -30.087341854300739 12.954810366697817 #
straight-curve $-1 58.56746116519669 -30.087341854300739 0 0 0 -1 I I #
straight-curve $-1 58.56746116519669 30.087341854300739 0 0 0 -1 I I #
plane-surface $-1 0 -30.087341854300739 0 0 1 0 0 0 1 forward_v I I I I #
coedge $-1 $528 $355 $367 $479 reversed $240 $-1 #
coedge $-1 $355 $528 $370 $481 reversed $240 $-1 #
edge $-1 $529 -58.56746116519669 $364 -53.730371321378186 $360 $530 forward 7 unknown #
straight-curve $-1 -53.730371321378186 -12.368658951901681 12.954810366697817 0 1 0 I I #
coedge $-1 $367 $358 $361 $475 forward $353 $-1 #
straight-curve $-1 -53.730371321378186 -12.368658951901681 -12.954810366697817 0 -1 0 I I #
coedge $-1 $361 $360 $528 $531 forward $362 $-1 #
edge $-1 $363 53.730371321378186 $532 58.56746116519669 $361 $533 forward 7 unknown #
point $-1 -53.730371321378186 -30.087341854300739 -12.954810366697817 #
point $-1 -53.730371321378186 -30.087341854300739 12.954810366697817 #
straight-curve $-1 -58.56746116519669 -19.387293953305985 0 0 0 -1 I I #
edge $-1 $532 -30.087341854300739 $368 -19.387293953305985 $468 $534 forward 7 unknown #
point $-1 -58.56746116519669 -19.387293953305985 -12.954810366697817 #
edge $-1 $371 19.387293953305985 $529 30.087341854300739 $469 $535 forward 7 unknown #
point $-1 -58.56746116519669 -19.387293953305985 12.954810366697817 #
edge $-1 $484 71.877962414761441 $487 76.575326394336628 $376 $536 forward 7 unknown #
vertex $-1 $390 $537 #
straight-curve $-1 47.915729798671613 0.16442012844947662 12.954810366697814 1 0 0 I I #
edge $-1 $487 -3.6161766108447058 $387 11.177370089433071 $386 $538 forward 7 unknown #
vertex $-1 $486 $539 #
straight-curve $-1 -3.5045892066279833 0.16442012844947662 107.59349519109384 -0.52991925155115449 0 0.84804810408105047 I I #
point $-1 55.632222477272059 0.16442012844947662 12.954810366697814 #
point $-1 58.56746116519669 14.957966828727253 8.2574463871226271 #
straight-curve $-1 58.56746116519669 0 12.954810366697817 0 1 0 I I #
vertex $-1 $393 $540 #
point $-1 56.308010022173029 4.3911477571002706 8.9321585779313111 #
vertex $-1 $397 $541 #
point $-1 56.308010022173029 10.731239200076459 8.9321585779313111 #
edge $-1 $497 22.751625430643951 $500 34.787118918481063 $402 $542 forward 7 unknown #
vertex $-1 $416 $543 #
straight-curve $-1 -76.057785284095473 5.3500239504973806 12.954810366697817 -1 0 0 I I #
edge $-1 $500 -5.6178581231853997 $413 6.1535264685614379 $412 $544 forward 7 unknown #
vertex $-1 $499 $545 #
straight-curve $-1 -58.567461165196718 5.3500239504973806 0.91931687886066982 0.60181501223851219 0 0.79863551827123203 I I #
point $-1 -49.498066560310967 5.3500239504973806 12.954810366697817 #
point $-1 -58.56746116519669 -6.421360641249457 0.91931687886070756 #
straight-curve $-1 -58.56746116519669 0 12.954810366697817 0 -1 0 I I #
vertex $-1 $419 $546 #
point $-1 -52.160546338266656 -3.0581079007503611 6.7783822099030431 #
vertex $-1 $423 $547 #
point $-1 -52.160546338266656 1.9867712099982811 6.7783822099030431 #
coedge $-1 $510 $429 $516 $548 reversed $304 $-1 #
coedge $-1 $429 $509 $432 $514 reversed $304 $-1 #
edge $-1 $512 -17.986517075087082 $437 -6.2151324833402448 $436 $549 forward 7 unknown #
vertex $-1 $431 $550 #
straight-curve $-1 -48.182367315475133 30.087341854300739 14.700802286008889 -0.60181501223851219 0 -0.79863551827123203 I I #
edge $-1 $433 49.498066560310967 $518 58.56746116519669 $510 $551 forward 7 unknown #
point $-1 -49.498066560310967 30.087341854300746 12.954810366697817 #
coedge $-1 $436 $435 $509 $548 forward $427 $-1 #
point $-1 -58.56746116519669 18.315957262553908 0.91931687886070756 #
vertex $-1 $514 $552 #
straight-curve $-1 -58.56746116519669 0 12.954810366697817 0 -1 0 I I #
vertex $-1 $443 $553 #
point $-1 -52.160546338266656 21.679210003053001 6.7783822099030431 #
vertex $-1 $447 $554 #
point $-1 -52.160546338266656 26.724089113801647 6.7783822099030431 #
straight-curve $-1 -58.56746116519669 30.087341854300739 0 0 0 -1 I I #
point $-1 -58.56746116519669 -30.087341854300739 -12.954810366697817 #
straight-curve $-1 -58.56746116519669 0 -12.954810366697817 0 1 0 I I #
point $-1 -58.56746116519669 30.087341854300739 -12.954810366697817 #
coedge $-1 $469 $468 $474 $531 reversed $240 $-1 #
vertex $-1 $481 $555 #
straight-curve $-1 0 -30.087341854300739 12.954810366697817 1 0 0 I I #
edge $-1 $529 -12.954810366697817 $532 12.954810366697817 $528 $556 forward 7 unknown #
vertex $-1 $479 $557 #
straight-curve $-1 0 -30.087341854300739 -12.954810366697817 -1 0 0 I I #
straight-curve $-1 -58.56746116519669 0 -12.954810366697817 0 1 0 I I #
straight-curve $-1 -58.56746116519669 0 12.954810366697817 0 -1 0 I I #
straight-curve $-1 58.56746116519669 0.16442012844947662 84.832772781459255 0 0 -1 I I #
point $-1 58.56746116519669 0.16442012844947662 12.954810366697817 #
straight-curve $-1 58.56746116519669 3.7805967392941824 8.2574463871226342 0 1 0 I I #
point $-1 58.56746116519669 0.16442012844947662 8.2574463871226271 #
point $-1 54.930042666540828 4.3911477571002706 9.2502874304612082 #
point $-1 54.930042666540828 10.731239200076459 9.2502874304612082 #
straight-curve $-1 -58.56746116519669 5.3500239504973806 35.706435797341769 0 0 -1 I I #
point $-1 -58.56746116519669 5.3500239504973806 12.954810366697817 #
straight-curve $-1 -58.56746116519669 -0.26783417268801912 0.91931687886071167 0 -1 0 I I #
point $-1 -58.56746116519669 5.3500239504973806 0.91931687886070756 #
point $-1 -51.963725832233941 -3.0581079007503611 5.3779316793932983 #
point $-1 -51.963725832233941 1.9867712099982811 5.3779316793932983 #
edge $-1 $518 -12.954810366697817 $512 -0.91931687886070756 $509 $558 forward 7 unknown #
straight-curve $-1 -58.56746116519669 12.100824779213664 0.91931687886071167 0 -1 0 I I #
point $-1 -58.56746116519669 30.087341854300746 0.91931687886070756 #
straight-curve $-1 0 30.087341854300739 12.954810366697817 -1 0 0 I I #
point $-1 -58.56746116519669 30.087341854300739 12.954810366697817 #
point $-1 -51.963725832233941 21.679210003053001 5.3779316793932983 #
point $-1 -51.963725832233941 26.724089113801647 5.3779316793932983 #
point $-1 -58.56746116519669 -30.087341854300739 12.954810366697817 #
straight-curve $-1 -58.56746116519669 -30.087341854300739 0 0 0 -1 I I #
point $-1 -58.56746116519669 -30.087341854300739 -12.954810366697817 #
straight-curve $-1 -58.56746116519669 30.087341854300739 0 0 0 -1 I I #
End-of-ACIS-data 