500 0 9 0           
7 Unknown 11 ACIS 5.0 NT 24 Fri Mar 26 18:07:07 1999 
-1 9.9999999999999995e-007 1e-010 
body $-1 $9 $-1 $10 #
body $-1 $11 $-1 $12 #
body $-1 $13 $-1 $14 #
body $-1 $15 $-1 $16 #
body $-1 $17 $-1 $18 #
body $-1 $19 $-1 $20 #
body $-1 $21 $-1 $22 #
body $-1 $23 $-1 $24 #
body $-1 $25 $-1 $26 #
lump $-1 $-1 $27 $0 #
transform $-1 1 0 0 0 1 0 0 0 1 52.351451155125588 31.570160212413892 9.6371510215970311 1 rotate no_reflect no_shear #
lump $-1 $-1 $28 $1 #
transform $-1 1 0 0 0 1 0 0 0 1 52.351451155125588 31.570160212413892 9.6371510215970311 1 rotate no_reflect no_shear #
lump $-1 $-1 $29 $2 #
transform $-1 1 0 0 0 1 0 0 0 1 52.351451155125588 31.570160212413892 9.6371510215970311 1 rotate no_reflect no_shear #
lump $-1 $-1 $30 $3 #
transform $-1 1 0 0 0 1 0 0 0 1 52.351451155125588 31.570160212413892 9.6371510215970311 1 rotate no_reflect no_shear #
lump $-1 $-1 $31 $4 #
transform $-1 1 0 0 0 1 0 0 0 1 52.351451155125588 31.570160212413892 9.6371510215970311 1 rotate no_reflect no_shear #
lump $-1 $-1 $32 $5 #
transform $-1 1 0 0 0 1 0 0 0 1 52.351451155125588 31.570160212413892 9.6371510215970311 1 rotate no_reflect no_shear #
lump $-1 $-1 $33 $6 #
transform $-1 1 0 0 0 1 0 0 0 1 52.351451155125588 31.570160212413892 9.6371510215970311 1 rotate no_reflect no_shear #
lump $-1 $-1 $34 $7 #
transform $-1 1 0 0 0 1 0 0 0 1 52.351451155125588 31.570160212413892 9.6371510215970311 1 rotate no_reflect no_shear #
lump $-1 $-1 $35 $8 #
transform $-1 1 0 0 0 1 0 0 0 1 52.351451155125588 31.570160212413892 9.6371510215970311 1 rotate no_reflect no_shear #
shell $-1 $-1 $-1 $36 $-1 $9 #
shell $-1 $-1 $-1 $37 $-1 $11 #
shell $-1 $-1 $-1 $38 $-1 $13 #
shell $-1 $-1 $-1 $39 $-1 $15 #
shell $-1 $-1 $-1 $40 $-1 $17 #
shell $-1 $-1 $-1 $41 $-1 $19 #
shell $-1 $-1 $-1 $42 $-1 $21 #
shell $-1 $-1 $-1 $43 $-1 $23 #
shell $-1 $-1 $-1 $44 $-1 $25 #
face $-1 $45 $46 $27 $-1 $47 forward single #
face $-1 $48 $49 $28 $-1 $50 forward single #
face $-1 $51 $52 $29 $-1 $53 reversed single #
face $-1 $54 $55 $30 $-1 $56 reversed single #
face $-1 $57 $58 $31 $-1 $59 forward single #
face $-1 $60 $61 $32 $-1 $62 forward single #
face $-1 $63 $64 $33 $-1 $65 reversed single #
face $-1 $66 $67 $34 $-1 $68 forward single #
face $-1 $69 $70 $35 $-1 $71 forward single #
face $-1 $72 $73 $27 $-1 $74 reversed single #
loop $-1 $-1 $75 $36 #
plane-surface $-1 0 0 9.6371510215970311 0 0 1 1 0 0 forward_v I I I I #
face $-1 $76 $77 $28 $-1 $78 reversed single #
loop $-1 $-1 $79 $37 #
plane-surface $-1 0 -31.570160212413892 0 0 1 0 0 0 1 forward_v I I I I #
face $-1 $80 $81 $29 $-1 $82 reversed single #
loop $-1 $-1 $83 $38 #
plane-surface $-1 -45.894710092743409 21.826629066774025 0 0 1 0 0 0 1 forward_v I I I I #
face $-1 $84 $85 $30 $-1 $86 reversed single #
loop $-1 $-1 $87 $39 #
plane-surface $-1 49.767235493140973 11.544102995250775 149.99424955414108 0 -1 0 -0.69465837861970381 0 -0.71933979245794832 forward_v I I I I #
face $-1 $88 $89 $31 $-1 $90 forward single #
loop $-1 $91 $92 $40 #
cone-surface $-1 47.431594959645615 2.7325032708243491 4.8206672938598825 -0.69465837861970381 0 -0.71933979245794832 1.0790096886869225 0 -1.0419875679295556 1 I I 0 1 1.5 forward I I I I #
face $-1 $93 $94 $32 $-1 $95 forward single #
loop $-1 $96 $97 $41 #
cone-surface $-1 47.431594959645615 8.0194631054802024 4.8206672938598825 -0.69465837861970381 0 -0.71933979245794832 1.0790096886869225 0 -1.0419875679295556 1 I I 0 1 1.5 forward I I I I #
face $-1 $98 $99 $33 $-1 $100 reversed single #
loop $-1 $-1 $101 $42 #
plane-surface $-1 -113.8942737915593 12.53554652718751 85.968147810210809 0 1 0 -0.5877852598018023 0 0.80901698891910034 forward_v I I I I #
face $-1 $102 $103 $34 $-1 $104 forward single #
loop $-1 $105 $106 $43 #
cone-surface $-1 -45.448283765720298 15.190141538497944 3.8813622591129002 0.5877852598018023 0 -0.80901698891910034 0.80901698891910034 0 0.5877852598018023 1 I I 0 1 1 forward I I I I #
face $-1 $107 $108 $35 $-1 $109 forward single #
loop $-1 $110 $111 $44 #
cone-surface $-1 -45.448283765720298 19.172034055463588 3.8813622591129002 0.5877852598018023 0 -0.80901698891910034 0.80901698891910034 0 0.5877852598018023 1 I I 0 1 1 forward I I I I #
face $-1 $112 $113 $27 $-1 $114 reversed single #
loop $-1 $-1 $115 $45 #
plane-surface $-1 0 0 -9.6371510215970311 0 0 1 1 0 0 forward_v I I I I #
coedge $-1 $116 $117 $118 $119 forward $46 $-1 #
face $-1 $120 $121 $28 $-1 $122 reversed single #
loop $-1 $-1 $123 $48 #
plane-surface $-1 0 0 -9.6371510215970311 0 0 1 1 0 0 forward_v I I I I #
coedge $-1 $124 $125 $126 $127 forward $49 $-1 #
face $-1 $128 $129 $29 $-1 $130 reversed single #
loop $-1 $-1 $131 $51 #
plane-surface $-1 -47.394710092743409 26.69839463959396 0 1 0 0 0 0 -1 forward_v I I I I #
coedge $-1 $132 $133 $134 $135 forward $52 $-1 #
face $-1 $136 $137 $30 $-1 $138 reversed single #
loop $-1 $-1 $139 $54 #
plane-surface $-1 -22.96551286247535 5.3759831881522793 74.677285536540154 0.69465837861970381 0 0.71933979245794832 0.71933979245794832 0 -0.69465837861970381 forward_v I I I I #
coedge $-1 $140 $141 $142 $143 reversed $55 $-1 #
face $-1 $-1 $144 $31 $-1 $145 forward single #
loop $-1 $146 $147 $57 #
cone-surface $-1 45.973712301925516 2.7325032708243491 3.3109856421158632 -0.69465837861970381 0 -0.71933979245794832 0.53950484434346124 0 -0.5209937839647778 1 I I -0.70710678118654757 0.70710678118654757 0.75 forward I I I I #
loop $-1 $-1 $148 $40 #
coedge $-1 $92 $92 $149 $150 reversed $58 $-1 #
face $-1 $-1 $151 $32 $-1 $152 forward single #
loop $-1 $153 $154 $60 #
cone-surface $-1 45.973712301925516 8.0194631054802024 3.3109856421158632 -0.69465837861970381 0 -0.71933979245794832 0.53950484434346124 0 -0.5209937839647778 1 I I -0.70710678118654757 0.70710678118654757 0.75 forward I I I I #
loop $-1 $-1 $155 $41 #
coedge $-1 $97 $97 $156 $157 reversed $61 $-1 #
face $-1 $158 $159 $33 $-1 $160 forward single #
loop $-1 $-1 $161 $63 #
plane-surface $-1 -52.351451155125588 17.181087796980766 1.2617210520806879 -0.5877852598018023 0 0.80901698891910034 0.80901698891910034 0 0.5877852598018023 forward_v I I I I #
coedge $-1 $162 $163 $164 $165 reversed $64 $-1 #
face $-1 $-1 $166 $34 $-1 $167 forward single #
loop $-1 $168 $169 $66 #
cone-surface $-1 -44.015118827013517 15.190141538497944 1.9087799869273905 0.5877852598018023 0 -0.80901698891910034 0.40450849445955017 0 0.29389262990090115 1 I I -0.70710678118654746 0.70710678118654746 0.5 forward I I I I #
loop $-1 $-1 $170 $43 #
coedge $-1 $106 $106 $171 $172 reversed $67 $-1 #
face $-1 $-1 $173 $35 $-1 $174 forward single #
loop $-1 $175 $176 $69 #
cone-surface $-1 -44.015118827013517 19.172034055463588 1.9087799869273905 0.5877852598018023 0 -0.80901698891910034 0.40450849445955017 0 0.29389262990090115 1 I I -0.70710678118654746 0.70710678118654746 0.5 forward I I I I #
loop $-1 $-1 $177 $44 #
coedge $-1 $111 $111 $178 $179 reversed $70 $-1 #
face $-1 $180 $181 $27 $-1 $182 reversed single #
loop $-1 $-1 $183 $72 #
plane-surface $-1 0 -31.570160212413892 0 0 1 0 0 0 1 forward_v I I I I #
coedge $-1 $184 $185 $186 $187 forward $73 $-1 #
coedge $-1 $188 $75 $189 $190 forward $46 $-1 #
coedge $-1 $75 $188 $191 $192 forward $46 $-1 #
coedge $-1 $193 $194 $75 $119 reversed $195 $-1 #
edge $-1 $196 -31.570160212413892 $197 31.570160212413892 $118 $198 forward 7 unknown #
face $-1 $199 $200 $28 $-1 $201 reversed single #
loop $-1 $-1 $202 $76 #
plane-surface $-1 -36.815166888713833 -38.761291895278212 0 0 1 0 0 0 1 forward_v I I I I #
coedge $-1 $203 $204 $125 $205 forward $77 $-1 #
coedge $-1 $206 $79 $207 $208 reversed $49 $-1 #
coedge $-1 $79 $206 $123 $205 reversed $49 $-1 #
coedge $-1 $209 $210 $79 $127 reversed $200 $-1 #
edge $-1 $211 -9.6371510215970311 $212 9.6371510215970311 $126 $213 forward 7 unknown #
face $-1 $214 $215 $29 $-1 $216 reversed single #
loop $-1 $-1 $217 $80 #
plane-surface $-1 -44.394710092743409 26.69839463959396 0 -1 0 0 0 0 1 forward_v I I I I #
coedge $-1 $218 $219 $220 $221 reversed $81 $-1 #
coedge $-1 $222 $83 $223 $224 reversed $52 $-1 #
coedge $-1 $83 $222 $225 $226 reversed $52 $-1 #
coedge $-1 $219 $218 $83 $135 reversed $81 $-1 #
edge $-1 $227 -9.6371510215970311 $228 9.6371510215970311 $134 $229 forward 7 unknown #
face $-1 $230 $231 $30 $-1 $232 forward single #
loop $-1 $-1 $233 $84 #
plane-surface $-1 49.767235493140973 -0.79213661894621623 149.99424955414108 0 1 0 0.69465837861970381 0 0.71933979245794832 forward_v I I I I #
coedge $-1 $234 $235 $236 $237 reversed $85 $-1 #
coedge $-1 $141 $87 $238 $239 reversed $55 $-1 #
coedge $-1 $87 $140 $234 $240 reversed $55 $-1 #
coedge $-1 $236 $241 $87 $143 forward $231 $-1 #
edge $-1 $242 -27.467833408555101 $243 -19.5018987651058 $142 $244 forward 7 unknown #
loop $-1 $-1 $149 $88 #
plane-surface $-1 -22.96551286247535 5.3759831881522793 74.677285536540154 0.69465837861970381 0 0.71933979245794832 0.71933979245794832 0 -0.69465837861970381 forward_v I I I I #
loop $-1 $-1 $245 $57 #
coedge $-1 $147 $147 $148 $246 reversed $89 $-1 #
coedge $-1 $148 $148 $147 $246 forward $91 $-1 #
coedge $-1 $149 $149 $92 $150 forward $144 $-1 #
edge $-1 $247 0 $247 6.2831853071796004 $149 $248 forward 7 unknown #
loop $-1 $-1 $156 $93 #
plane-surface $-1 -22.96551286247535 5.3759831881522793 74.677285536540154 0.69465837861970381 0 0.71933979245794832 0.71933979245794832 0 -0.69465837861970381 forward_v I I I I #
loop $-1 $-1 $249 $60 #
coedge $-1 $154 $154 $155 $250 reversed $94 $-1 #
coedge $-1 $155 $155 $154 $250 forward $96 $-1 #
coedge $-1 $156 $156 $97 $157 forward $151 $-1 #
edge $-1 $251 0 $251 6.2831853071796004 $156 $252 forward 7 unknown #
face $-1 $253 $254 $33 $-1 $255 reversed single #
loop $-1 $-1 $256 $98 #
plane-surface $-1 0 0 9.6371510215970311 0 0 1 1 0 0 forward_v I I I I #
coedge $-1 $257 $258 $259 $260 reversed $99 $-1 #
coedge $-1 $163 $101 $261 $262 reversed $64 $-1 #
coedge $-1 $101 $162 $257 $263 reversed $64 $-1 #
coedge $-1 $259 $264 $101 $165 forward $159 $-1 #
edge $-1 $265 4.5956857406540621 $266 16.123475901852871 $164 $267 forward 7 unknown #
loop $-1 $-1 $171 $102 #
plane-surface $-1 -52.351451155125588 17.181087796980766 1.2617210520806879 -0.5877852598018023 0 0.80901698891910034 0.80901698891910034 0 0.5877852598018023 forward_v I I I I #
loop $-1 $-1 $268 $66 #
coedge $-1 $169 $169 $170 $269 reversed $103 $-1 #
coedge $-1 $170 $170 $169 $269 forward $105 $-1 #
coedge $-1 $171 $171 $106 $172 forward $166 $-1 #
edge $-1 $270 0 $270 6.2831853071796004 $171 $271 forward 7 unknown #
loop $-1 $-1 $178 $107 #
plane-surface $-1 -52.351451155125588 17.181087796980766 1.2617210520806879 -0.5877852598018023 0 0.80901698891910034 0.80901698891910034 0 0.5877852598018023 forward_v I I I I #
loop $-1 $-1 $272 $69 #
coedge $-1 $176 $176 $177 $273 reversed $108 $-1 #
coedge $-1 $177 $177 $176 $273 forward $110 $-1 #
coedge $-1 $178 $178 $111 $179 forward $173 $-1 #
edge $-1 $274 0 $274 6.2831853071796004 $178 $275 forward 7 unknown #
face $-1 $276 $277 $27 $-1 $278 reversed single #
loop $-1 $-1 $279 $112 #
plane-surface $-1 -52.351451155125588 0 0 1 0 0 0 0 -1 forward_v I I I I #
coedge $-1 $280 $191 $281 $282 forward $113 $-1 #
coedge $-1 $283 $115 $280 $284 forward $73 $-1 #
coedge $-1 $115 $283 $285 $286 forward $73 $-1 #
coedge $-1 $194 $193 $115 $187 reversed $195 $-1 #
edge $-1 $287 -31.570160212413892 $288 31.570160212413892 $186 $289 forward 7 unknown #
coedge $-1 $117 $116 $290 $291 forward $46 $-1 #
coedge $-1 $292 $293 $116 $190 reversed $277 $-1 #
edge $-1 $197 -52.351451155125588 $294 52.351451155125588 $189 $295 forward 7 unknown #
coedge $-1 $183 $296 $117 $192 reversed $113 $-1 #
edge $-1 $297 -52.351451155125588 $196 52.351451155125588 $191 $298 forward 7 unknown #
coedge $-1 $186 $118 $296 $299 forward $195 $-1 #
coedge $-1 $118 $186 $292 $300 reversed $195 $-1 #
loop $-1 $-1 $193 $276 #
vertex $-1 $119 $301 #
vertex $-1 $119 $302 #
straight-curve $-1 52.351451155125588 0 9.6371510215970311 0 1 0 I I #
face $-1 $303 $304 $28 $-1 $305 reversed single #
loop $-1 $-1 $126 $120 #
plane-surface $-1 -38.995738847978416 -35.165726053846051 0 1 0 0 0 0 -1 forward_v I I I I #
coedge $-1 $306 $307 $308 $309 forward $121 $-1 #
coedge $-1 $310 $123 $311 $312 forward $77 $-1 #
coedge $-1 $123 $310 $209 $313 forward $77 $-1 #
edge $-1 $211 -38.995738847978416 $314 -34.63459492944925 $123 $315 forward 7 unknown #
coedge $-1 $125 $124 $316 $317 forward $49 $-1 #
coedge $-1 $318 $319 $124 $208 forward $320 $-1 #
edge $-1 $321 34.63459492944925 $212 38.995738847978416 $207 $322 forward 7 unknown #
coedge $-1 $308 $126 $204 $313 reversed $200 $-1 #
coedge $-1 $126 $308 $318 $323 reversed $200 $-1 #
vertex $-1 $205 $324 #
vertex $-1 $323 $325 #
straight-curve $-1 -38.995738847978416 -31.570160212413892 0 0 0 1 I I #
face $-1 $326 $327 $29 $-1 $328 forward single #
loop $-1 $-1 $220 $128 #
plane-surface $-1 0 31.570160212413892 0 0 -1 0 0 0 -1 forward_v I I I I #
coedge $-1 $329 $330 $222 $331 forward $129 $-1 #
coedge $-1 $134 $131 $332 $333 reversed $81 $-1 #
coedge $-1 $131 $134 $334 $335 reversed $81 $-1 #
coedge $-1 $336 $337 $131 $221 forward $215 $-1 #
edge $-1 $338 -9.6371510215970311 $339 9.6371510215970311 $220 $340 forward 7 unknown #
coedge $-1 $133 $132 $217 $331 reversed $52 $-1 #
coedge $-1 $332 $341 $132 $224 forward $342 $-1 #
edge $-1 $343 21.447355046371705 $228 24.447355046371705 $223 $344 forward 7 unknown #
coedge $-1 $345 $334 $133 $226 forward $327 $-1 #
edge $-1 $227 -24.447355046371705 $346 -21.447355046371705 $225 $347 forward 7 unknown #
vertex $-1 $226 $348 #
vertex $-1 $224 $349 #
straight-curve $-1 -47.394710092743409 21.826629066774025 0 0 0 -1 I I #
face $-1 $-1 $350 $30 $-1 $351 reversed single #
loop $-1 $-1 $142 $136 #
plane-surface $-1 0 0 9.6371510215970311 0 0 1 1 0 0 forward_v I I I I #
coedge $-1 $352 $353 $354 $355 reversed $137 $-1 #
coedge $-1 $356 $139 $141 $240 forward $85 $-1 #
coedge $-1 $139 $356 $352 $357 forward $85 $-1 #
coedge $-1 $354 $142 $139 $237 forward $231 $-1 #
edge $-1 $243 -8.8561114011746351 $358 3.4801282130223559 $236 $359 forward 7 unknown #
coedge $-1 $360 $361 $140 $239 forward $350 $-1 #
edge $-1 $362 -73.052587596146722 $242 -65.359973755473504 $238 $363 forward 7 unknown #
edge $-1 $243 93.628949879189236 $362 104.70290231025119 $141 $364 forward 7 unknown #
coedge $-1 $142 $354 $360 $365 forward $231 $-1 #
vertex $-1 $143 $366 #
vertex $-1 $143 $367 #
straight-curve $-1 24.883617746570486 11.544102995250775 9.6371510215970346 -1 0 0 I I #
coedge $-1 $245 $245 $-1 $368 reversed $146 $-1 #
edge $-1 $369 0 $369 6.2831853071796004 $147 $370 forward 7 unknown #
vertex $-1 $150 $371 #
ellipse-curve $-1 48.368483833400923 2.7325032708243491 5.7908441012604293 0.69465837861970381 0 0.71933979245794832 1.0790096886869225 0 -1.0419875679295556 1 I I #
coedge $-1 $249 $249 $-1 $372 reversed $153 $-1 #
edge $-1 $373 0 $373 6.2831853071796004 $154 $374 forward 7 unknown #
vertex $-1 $157 $375 #
ellipse-curve $-1 48.368483833400923 8.0194631054802024 5.7908441012604293 0.69465837861970381 0 0.71933979245794832 1.0790096886869225 0 -1.0419875679295556 1 I I #
face $-1 $-1 $376 $33 $-1 $377 forward single #
loop $-1 $-1 $378 $158 #
plane-surface $-1 -52.351451155125588 0 0 1 0 0 0 0 -1 forward_v I I I I #
coedge $-1 $264 $259 $379 $380 forward $159 $-1 #
coedge $-1 $381 $161 $163 $263 forward $99 $-1 #
coedge $-1 $161 $381 $382 $383 reversed $99 $-1 #
coedge $-1 $256 $164 $161 $260 forward $159 $-1 #
edge $-1 $266 3.9450026286971269 $384 13.236085168283639 $259 $385 forward 7 unknown #
coedge $-1 $386 $387 $162 $262 forward $254 $-1 #
edge $-1 $388 -41.722352853024717 $265 -33.34692288350837 $261 $389 forward 7 unknown #
edge $-1 $266 -14.249132365688254 $388 0 $163 $390 forward 7 unknown #
coedge $-1 $164 $256 $386 $391 forward $159 $-1 #
vertex $-1 $262 $392 #
vertex $-1 $165 $393 #
straight-curve $-1 -56.94713689577965 12.53554652718751 9.6371510215970275 1 0 0 I I #
coedge $-1 $268 $268 $-1 $394 reversed $168 $-1 #
edge $-1 $395 0 $395 6.2831853071796004 $169 $396 forward 7 unknown #
vertex $-1 $172 $397 #
ellipse-curve $-1 -46.587556074526184 15.190141538497944 5.4494360368388595 -0.5877852598018023 0 0.80901698891910034 0.80901698891910034 0 0.5877852598018023 1 I I #
coedge $-1 $272 $272 $-1 $398 reversed $175 $-1 #
edge $-1 $399 0 $399 6.2831853071796004 $176 $400 forward 7 unknown #
vertex $-1 $179 $401 #
ellipse-curve $-1 -46.587556074526184 19.172034055463588 5.4494360368388595 -0.5877852598018023 0 0.80901698891910034 0.80901698891910034 0 0.5877852598018023 1 I I #
face $-1 $-1 $195 $27 $-1 $402 reversed single #
loop $-1 $-1 $292 $180 #
plane-surface $-1 0 31.570160212413892 0 0 -1 0 0 0 -1 forward_v I I I I #
coedge $-1 $403 $290 $293 $404 forward $181 $-1 #
coedge $-1 $296 $183 $184 $284 reversed $113 $-1 #
coedge $-1 $290 $403 $183 $282 reversed $181 $-1 #
edge $-1 $297 -9.6371510215970311 $405 9.6371510215970311 $281 $406 forward 7 unknown #
coedge $-1 $185 $184 $403 $407 forward $73 $-1 #
edge $-1 $288 -52.351451155125588 $405 52.351451155125588 $280 $408 forward 7 unknown #
coedge $-1 $293 $292 $185 $286 reversed $277 $-1 #
edge $-1 $409 -52.351451155125588 $287 52.351451155125588 $285 $410 forward 7 unknown #
vertex $-1 $187 $411 #
vertex $-1 $299 $412 #
straight-curve $-1 52.351451155125588 0 -9.6371510215970311 0 -1 0 I I #
coedge $-1 $279 $281 $188 $291 reversed $181 $-1 #
edge $-1 $294 -31.570160212413892 $297 31.570160212413892 $290 $413 forward 7 unknown #
coedge $-1 $285 $189 $194 $300 forward $277 $-1 #
coedge $-1 $189 $285 $279 $404 reversed $277 $-1 #
vertex $-1 $190 $414 #
straight-curve $-1 0 31.570160212413892 9.6371510215970311 -1 0 0 I I #
coedge $-1 $191 $280 $193 $299 reversed $113 $-1 #
vertex $-1 $291 $415 #
straight-curve $-1 0 -31.570160212413892 9.6371510215970311 1 0 0 I I #
edge $-1 $196 -9.6371510215970311 $288 9.6371510215970311 $193 $416 forward 7 unknown #
edge $-1 $197 -9.6371510215970311 $287 9.6371510215970311 $194 $417 forward 7 unknown #
point $-1 52.351451155125588 -31.570160212413892 9.6371510215970311 #
point $-1 52.351451155125588 31.570160212413892 9.6371510215970311 #
face $-1 $-1 $320 $28 $-1 $418 forward single #
loop $-1 $-1 $419 $199 #
plane-surface $-1 -34.63459492944925 -35.165726053846051 0 -1 0 0 0 0 1 forward_v I I I I #
coedge $-1 $420 $202 $310 $421 reversed $121 $-1 #
coedge $-1 $202 $420 $422 $423 reversed $121 $-1 #
coedge $-1 $210 $209 $202 $309 reversed $200 $-1 #
edge $-1 $424 -9.6371510215970311 $425 9.6371510215970311 $308 $426 forward 7 unknown #
coedge $-1 $204 $203 $306 $421 forward $77 $-1 #
coedge $-1 $316 $419 $203 $312 reversed $304 $-1 #
edge $-1 $314 -3.5955658414321618 $427 3.5955658414321618 $311 $428 forward 7 unknown #
edge $-1 $425 -3.5955658414321618 $211 3.5955658414321618 $209 $429 forward 7 unknown #
vertex $-1 $312 $430 #
straight-curve $-1 0 -31.570160212413892 -9.6371510215970311 1 0 0 I I #
coedge $-1 $431 $311 $206 $317 reversed $304 $-1 #
edge $-1 $321 -9.6371510215970311 $314 9.6371510215970311 $316 $432 forward 7 unknown #
coedge $-1 $422 $207 $210 $323 forward $320 $-1 #
coedge $-1 $207 $422 $431 $433 forward $320 $-1 #
loop $-1 $-1 $207 $303 #
vertex $-1 $208 $434 #
straight-curve $-1 0 -31.570160212413892 9.6371510215970311 -1 0 0 I I #
edge $-1 $212 -3.5955658414321618 $424 3.5955658414321618 $210 $435 forward 7 unknown #
point $-1 -38.995738847978416 -31.570160212413889 -9.6371510215970311 #
point $-1 -38.995738847978416 -31.570160212413889 9.6371510215970311 #
face $-1 $-1 $342 $29 $-1 $436 reversed single #
loop $-1 $-1 $334 $214 #
plane-surface $-1 0 0 9.6371510215970311 0 0 1 1 0 0 forward_v I I I I #
coedge $-1 $437 $217 $341 $438 reversed $129 $-1 #
coedge $-1 $217 $437 $345 $439 reversed $129 $-1 #
edge $-1 $346 -9.6371510215970311 $343 9.6371510215970311 $217 $440 forward 7 unknown #
coedge $-1 $441 $223 $218 $333 forward $342 $-1 #
edge $-1 $228 8.4774317469770448 $338 18.220962892616917 $332 $442 forward 7 unknown #
coedge $-1 $225 $443 $219 $335 forward $327 $-1 #
edge $-1 $339 -18.220962892616917 $227 -8.4774317469770448 $334 $444 forward 7 unknown #
coedge $-1 $445 $220 $443 $446 reversed $215 $-1 #
coedge $-1 $220 $445 $441 $447 reversed $215 $-1 #
vertex $-1 $447 $448 #
vertex $-1 $221 $449 #
straight-curve $-1 -47.394710092743409 31.570160212413892 0 0 0 1 I I #
coedge $-1 $223 $441 $329 $438 forward $342 $-1 #
loop $-1 $-1 $332 $326 #
vertex $-1 $224 $450 #
straight-curve $-1 -22.947355046371705 21.826629066774025 -9.6371510215970311 -1 0 0 I I #
coedge $-1 $443 $225 $330 $439 forward $327 $-1 #
vertex $-1 $226 $451 #
straight-curve $-1 -22.947355046371705 21.826629066774025 9.6371510215970311 1 0 0 I I #
point $-1 -47.394710092743409 21.826629066774025 9.6371510215970311 #
point $-1 -47.394710092743409 21.826629066774025 -9.6371510215970311 #
loop $-1 $-1 $238 $230 #
plane-surface $-1 52.351451155125588 0 0 -1 0 0 0 0 1 forward_v I I I I #
coedge $-1 $353 $233 $235 $357 reversed $137 $-1 #
coedge $-1 $233 $352 $452 $453 reversed $137 $-1 #
coedge $-1 $241 $236 $233 $355 forward $231 $-1 #
edge $-1 $358 19.5018987651058 $454 27.467833408555101 $354 $455 forward 7 unknown #
coedge $-1 $235 $234 $361 $456 reversed $85 $-1 #
edge $-1 $457 -104.70290231025119 $358 -93.628949879189236 $352 $458 forward 7 unknown #
vertex $-1 $237 $459 #
straight-curve $-1 44.3855165116763 2.6879915940761396 9.6371510215970346 0 -1 0 I I #
coedge $-1 $452 $238 $241 $365 reversed $350 $-1 #
coedge $-1 $238 $452 $356 $456 forward $350 $-1 #
vertex $-1 $239 $460 #
straight-curve $-1 52.351451155125588 11.544102995250775 74.997124777070539 0 0 1 I I #
straight-curve $-1 -22.96551286247535 11.544102995250775 74.677285536540154 0.71933979245794832 0 -0.69465837861970381 I I #
edge $-1 $454 -0.79213661894621623 $242 11.544102995250775 $360 $461 forward 7 unknown #
point $-1 52.351451155125588 11.544102995250775 9.6371510215970311 #
point $-1 44.385516511676286 11.544102995250775 9.6371510215970346 #
edge $-1 $462 1 $462 0 $245 $-1 forward 7 unknown #
vertex $-1 $246 $463 #
ellipse-curve $-1 46.494706085890293 2.7325032708243491 3.8504904864593246 0.69465837861970381 0 0.71933979245794832 1.0790096886869225 0 -1.0419875679295556 1 I I #
point $-1 49.447493522087854 2.7325032708243491 4.7488565333308852 #
edge $-1 $464 1 $464 0 $249 $-1 forward 7 unknown #
vertex $-1 $250 $465 #
ellipse-curve $-1 46.494706085890293 8.0194631054802024 3.8504904864593246 0.69465837861970381 0 0.71933979245794832 1.0790096886869225 0 -1.0419875679295556 1 I I #
point $-1 49.447493522087854 8.0194631054802024 4.7488565333308852 #
loop $-1 $-1 $382 $253 #
plane-surface $-1 -45.894710092743409 21.826629066774025 0 0 1 0 0 0 1 forward_v I I I I #
coedge $-1 $387 $386 $466 $467 forward $254 $-1 #
coedge $-1 $382 $466 $256 $380 reversed $376 $-1 #
edge $-1 $384 17.876305947555075 $468 29.404096108753883 $256 $469 forward 7 unknown #
coedge $-1 $258 $257 $387 $470 reversed $99 $-1 #
coedge $-1 $466 $379 $258 $383 forward $376 $-1 #
edge $-1 $384 -12.008136277626207 $471 2.2409960880620492 $382 $472 forward 7 unknown #
vertex $-1 $260 $473 #
straight-curve $-1 -40.823660993926772 8.5905438984903828 9.6371510215970311 0 1 0 I I #
coedge $-1 $378 $261 $264 $391 reversed $254 $-1 #
coedge $-1 $261 $378 $381 $470 forward $254 $-1 #
vertex $-1 $262 $474 #
straight-curve $-1 -52.351451155125588 12.53554652718751 42.984073905105404 0 0 1 I I #
straight-curve $-1 -52.351451155125588 12.53554652718751 1.2617210520806879 -0.80901698891910034 0 -0.5877852598018023 I I #
edge $-1 $468 -21.826629066774021 $265 -12.53554652718751 $386 $475 forward 7 unknown #
point $-1 -52.351451155125588 12.53554652718751 9.6371510215970311 #
point $-1 -40.823660993926779 12.53554652718751 9.6371510215970311 #
edge $-1 $476 1 $476 0 $268 $-1 forward 7 unknown #
vertex $-1 $269 $477 #
ellipse-curve $-1 -44.309011456914419 15.190141538497944 2.3132884813869405 -0.5877852598018023 0 0.80901698891910034 0.80901698891910034 0 0.5877852598018023 1 I I #
point $-1 -45.778539085607086 15.190141538497944 6.037221296640662 #
edge $-1 $478 1 $478 0 $272 $-1 forward 7 unknown #
vertex $-1 $273 $479 #
ellipse-curve $-1 -44.309011456914419 19.172034055463588 2.3132884813869405 -0.5877852598018023 0 0.80901698891910034 0.80901698891910034 0 0.5877852598018023 1 I I #
point $-1 -45.778539085607086 19.172034055463588 6.037221296640662 #
plane-surface $-1 52.351451155125588 0 0 -1 0 0 0 0 1 forward_v I I I I #
coedge $-1 $281 $279 $283 $407 reversed $181 $-1 #
edge $-1 $294 -9.6371510215970311 $409 9.6371510215970311 $293 $480 forward 7 unknown #
vertex $-1 $407 $481 #
straight-curve $-1 -52.351451155125588 -31.570160212413892 0 0 0 -1 I I #
edge $-1 $405 -31.570160212413892 $409 31.570160212413892 $403 $482 forward 7 unknown #
straight-curve $-1 0 -31.570160212413892 -9.6371510215970311 -1 0 0 I I #
vertex $-1 $286 $483 #
straight-curve $-1 0 31.570160212413892 -9.6371510215970311 1 0 0 I I #
point $-1 52.351451155125588 31.570160212413892 -9.6371510215970311 #
point $-1 52.351451155125588 -31.570160212413892 -9.6371510215970311 #
straight-curve $-1 -52.351451155125588 0 9.6371510215970311 0 -1 0 I I #
point $-1 -52.351451155125588 31.570160212413892 9.6371510215970311 #
point $-1 -52.351451155125588 -31.570160212413892 9.6371510215970311 #
straight-curve $-1 52.351451155125588 -31.570160212413892 0 0 0 -1 I I #
straight-curve $-1 52.351451155125588 31.570160212413892 0 0 0 -1 I I #
plane-surface $-1 0 0 9.6371510215970311 0 0 1 1 0 0 forward_v I I I I #
coedge $-1 $311 $431 $420 $484 forward $304 $-1 #
coedge $-1 $307 $306 $419 $484 reversed $121 $-1 #
edge $-1 $427 -2.1805719592645829 $425 2.1805719592645829 $306 $485 forward 7 unknown #
coedge $-1 $319 $318 $307 $423 forward $320 $-1 #
edge $-1 $424 -2.1805719592645829 $486 2.1805719592645829 $307 $487 forward 7 unknown #
vertex $-1 $323 $488 #
vertex $-1 $313 $489 #
straight-curve $-1 -38.995738847978416 -38.761291895278212 0 0 0 -1 I I #
vertex $-1 $484 $490 #
straight-curve $-1 -34.63459492944925 -35.165726053846051 -9.6371510215970311 0 -1 0 I I #
straight-curve $-1 -38.995738847978416 -35.165726053846051 -9.6371510215970311 0 1 0 I I #
point $-1 -34.63459492944925 -31.570160212413889 -9.6371510215970311 #
coedge $-1 $419 $316 $319 $433 reversed $304 $-1 #
straight-curve $-1 -34.63459492944925 -31.570160212413892 0 0 0 -1 I I #
edge $-1 $486 -3.5955658414321618 $321 3.5955658414321618 $431 $491 forward 7 unknown #
point $-1 -34.63459492944925 -31.570160212413889 9.6371510215970311 #
straight-curve $-1 -38.995738847978416 -35.165726053846051 9.6371510215970311 0 -1 0 I I #
plane-surface $-1 0 0 -9.6371510215970311 0 0 1 1 0 0 forward_v I I I I #
coedge $-1 $330 $329 $445 $492 reversed $129 $-1 #
edge $-1 $493 -18.220962892616917 $343 -8.4774317469770448 $341 $494 forward 7 unknown #
edge $-1 $346 8.4774317469770448 $495 18.220962892616917 $345 $496 forward 7 unknown #
straight-curve $-1 -44.394710092743409 21.826629066774025 0 0 0 -1 I I #
coedge $-1 $341 $332 $337 $447 forward $342 $-1 #
straight-curve $-1 -47.394710092743409 13.34919731979698 -9.6371510215970311 0 1 0 I I #
coedge $-1 $334 $345 $336 $446 forward $327 $-1 #
straight-curve $-1 -47.394710092743409 13.34919731979698 9.6371510215970311 0 -1 0 I I #
coedge $-1 $337 $336 $437 $492 forward $215 $-1 #
edge $-1 $495 44.394710092743409 $339 47.394710092743409 $336 $497 forward 7 unknown #
edge $-1 $338 -47.394710092743409 $493 -44.394710092743409 $337 $498 forward 7 unknown #
point $-1 -47.394710092743409 31.570160212413896 -9.6371510215970311 #
point $-1 -47.394710092743409 31.570160212413896 9.6371510215970311 #
point $-1 -44.394710092743409 21.826629066774025 -9.6371510215970311 #
point $-1 -44.394710092743409 21.826629066774025 9.6371510215970311 #
coedge $-1 $361 $360 $353 $453 forward $350 $-1 #
edge $-1 $454 65.359973755473504 $457 73.052587596146722 $452 $499 forward 7 unknown #
vertex $-1 $365 $500 #
straight-curve $-1 24.883617746570486 -0.79213661894621623 9.6371510215970346 1 0 0 I I #
edge $-1 $457 -3.4801282130223559 $362 8.8561114011746351 $361 $501 forward 7 unknown #
vertex $-1 $456 $502 #
straight-curve $-1 -22.96551286247535 -0.79213661894621623 74.677285536540154 -0.71933979245794832 0 0.69465837861970381 I I #
point $-1 44.385516511676286 -0.79213661894621623 9.6371510215970346 #
point $-1 52.351451155125588 11.544102995250775 1.9445371809238168 #
straight-curve $-1 52.351451155125588 0 9.6371510215970311 0 1 0 I I #
vertex $-1 $368 $503 #
point $-1 47.573715774577217 2.7325032708243491 2.808502918529769 #
vertex $-1 $372 $504 #
point $-1 47.573715774577217 8.0194631054802024 2.808502918529769 #
coedge $-1 $379 $382 $378 $467 reversed $376 $-1 #
edge $-1 $468 33.34692288350837 $471 41.722352853024717 $378 $505 forward 7 unknown #
vertex $-1 $391 $506 #
straight-curve $-1 -22.947355046371705 21.826629066774025 9.6371510215970311 -1 0 0 I I #
edge $-1 $471 -13.236085168283639 $388 -3.9450026286971269 $387 $507 forward 7 unknown #
vertex $-1 $467 $508 #
straight-curve $-1 -50.538447247782145 21.826629066774025 2.5789455199170606 -0.80901698891910034 0 -0.5877852598018023 I I #
point $-1 -40.823660993926779 21.826629066774021 9.6371510215970311 #
point $-1 -52.351451155125588 12.53554652718751 1.2617210520806879 #
straight-curve $-1 -52.351451155125588 0 9.6371510215970311 0 -1 0 I I #
vertex $-1 $394 $509 #
point $-1 -43.499994467995315 15.190141538497944 2.9010737411887431 #
vertex $-1 $398 $510 #
point $-1 -43.499994467995315 19.172034055463588 2.9010737411887431 #
straight-curve $-1 -52.351451155125588 31.570160212413892 0 0 0 -1 I I #
point $-1 -52.351451155125588 -31.570160212413892 -9.6371510215970311 #
straight-curve $-1 -52.351451155125588 0 -9.6371510215970311 0 1 0 I I #
point $-1 -52.351451155125588 31.570160212413892 -9.6371510215970311 #
edge $-1 $486 -9.6371510215970311 $427 9.6371510215970311 $419 $511 forward 7 unknown #
straight-curve $-1 -36.815166888713833 -38.761291895278212 -9.6371510215970311 -1 0 0 I I #
vertex $-1 $433 $512 #
straight-curve $-1 -36.815166888713833 -38.761291895278212 9.6371510215970311 1 0 0 I I #
point $-1 -38.995738847978416 -38.761291895278212 9.6371510215970311 #
point $-1 -38.995738847978416 -38.761291895278212 -9.6371510215970311 #
point $-1 -34.63459492944925 -38.761291895278212 -9.6371510215970311 #
straight-curve $-1 -34.63459492944925 -35.165726053846051 9.6371510215970311 0 1 0 I I #
edge $-1 $495 -9.6371510215970311 $493 9.6371510215970311 $445 $513 forward 7 unknown #
vertex $-1 $492 $514 #
straight-curve $-1 -44.394710092743409 13.34919731979698 -9.6371510215970311 0 -1 0 I I #
vertex $-1 $446 $515 #
straight-curve $-1 -44.394710092743409 13.34919731979698 9.6371510215970311 0 1 0 I I #
straight-curve $-1 0 31.570160212413892 9.6371510215970311 -1 0 0 I I #
straight-curve $-1 0 31.570160212413892 -9.6371510215970311 1 0 0 I I #
straight-curve $-1 52.351451155125588 -0.79213661894621623 74.997124777070539 0 0 -1 I I #
point $-1 52.351451155125588 -0.79213661894621623 9.6371510215970311 #
straight-curve $-1 52.351451155125588 2.6879915940761396 1.9445371809238239 0 1 0 I I #
point $-1 52.351451155125588 -0.79213661894621623 1.9445371809238168 #
point $-1 45.45271851796074 2.7325032708243491 2.7714807977724019 #
point $-1 45.45271851796074 8.0194631054802024 2.7714807977724019 #
straight-curve $-1 -52.351451155125588 21.826629066774021 42.984073905105404 0 0 -1 I I #
point $-1 -52.351451155125588 21.826629066774021 9.6371510215970311 #
straight-curve $-1 -52.351451155125588 8.5905438984903828 1.2617210520806861 0 -1 0 I I #
point $-1 -52.351451155125588 21.826629066774021 1.2617210520806879 #
point $-1 -43.721226197112614 15.190141538497944 1.5042714924678404 #
point $-1 -43.721226197112614 19.172034055463588 1.5042714924678404 #
straight-curve $-1 -34.63459492944925 -38.761291895278212 0 0 0 -1 I I #
point $-1 -34.63459492944925 -38.761291895278212 9.6371510215970311 #
straight-curve $-1 -44.394710092743409 31.570160212413892 0 0 0 -1 I I #
point $-1 -44.394710092743409 31.570160212413896 -9.6371510215970311 #
point $-1 -44.394710092743409 31.570160212413896 9.6371510215970311 #
End-of-ACIS-data 