500 0 4 0           
7 Unknown 11 ACIS 5.0 NT 24 Fri Mar 26 16:59:55 1999 
-1 9.9999999999999995e-007 1e-010 
body $-1 $4 $-1 $5 #
body $-1 $6 $-1 $7 #
body $-1 $8 $-1 $9 #
body $-1 $10 $-1 $11 #
lump $-1 $-1 $12 $0 #
transform $-1 1 0 0 0 1 0 0 0 1 68.28455458235419 43.384146936302507 15.253763848498608 1 rotate no_reflect no_shear #
lump $-1 $-1 $13 $1 #
transform $-1 1 0 0 0 1 0 0 0 1 68.28455458235419 43.384146936302507 15.253763848498608 1 rotate no_reflect no_shear #
lump $-1 $-1 $14 $2 #
transform $-1 1 0 0 0 1 0 0 0 1 68.28455458235419 43.384146936302507 15.253763848498608 1 rotate no_reflect no_shear #
lump $-1 $-1 $15 $3 #
transform $-1 1 0 0 0 1 0 0 0 1 68.28455458235419 43.384146936302507 15.253763848498608 1 rotate no_reflect no_shear #
shell $-1 $-1 $-1 $16 $-1 $4 #
shell $-1 $-1 $-1 $17 $-1 $6 #
shell $-1 $-1 $-1 $18 $-1 $8 #
shell $-1 $-1 $-1 $19 $-1 $10 #
face $-1 $20 $21 $12 $-1 $22 forward single #
face $-1 $23 $24 $13 $-1 $25 forward single #
face $-1 $26 $27 $14 $-1 $28 reversed single #
face $-1 $29 $30 $15 $-1 $31 forward single #
face $-1 $32 $33 $12 $-1 $34 reversed single #
loop $-1 $-1 $35 $16 #
plane-surface $-1 0 0 15.253763848498608 0 0 1 1 0 0 forward_v I I I I #
face $-1 $36 $37 $13 $-1 $38 reversed single #
loop $-1 $-1 $39 $17 #
plane-surface $-1 -59.262777472910031 0 -9.0189351332415484 0 0 1 1 0 0 forward_v I I I I #
face $-1 $40 $41 $14 $-1 $42 reversed single #
loop $-1 $-1 $43 $18 #
plane-surface $-1 41.404957846286734 17.645299099015766 191.36037488872157 0 -1 0 -0.6018150307709319 0 -0.79863550430605224 forward_v I I I I #
face $-1 $44 $45 $15 $-1 $46 forward single #
loop $-1 $47 $48 $19 #
cone-surface $-1 55.496470732186737 9.3978492354053671 4.0489773322760039 -0.6018150307709319 0 -0.79863550430605224 1.9965887607651305 0 -1.5045375769273297 1 I I 0 1 2.5 forward I I I I #
face $-1 $49 $50 $12 $-1 $51 reversed single #
loop $-1 $-1 $52 $20 #
plane-surface $-1 0 0 -15.253763848498608 0 0 1 1 0 0 forward_v I I I I #
coedge $-1 $53 $54 $55 $56 forward $21 $-1 #
face $-1 $57 $58 $13 $-1 $59 reversed single #
loop $-1 $-1 $60 $23 #
plane-surface $-1 -59.262777472910031 0 -13.770519581058721 0 0 1 1 0 0 forward_v I I I I #
coedge $-1 $61 $62 $63 $64 forward $24 $-1 #
face $-1 $65 $66 $14 $-1 $67 reversed single #
loop $-1 $-1 $68 $26 #
plane-surface $-1 -40.784384788030991 9.3978492354053671 82.291435518336385 0.6018150307709319 0 0.79863550430605224 0.79863550430605224 0 -0.6018150307709319 forward_v I I I I #
coedge $-1 $69 $70 $71 $72 reversed $27 $-1 #
face $-1 $-1 $73 $15 $-1 $74 forward single #
loop $-1 $75 $76 $29 #
cone-surface $-1 52.009591140162399 9.3978492354053671 -0.57826808208918123 -0.6018150307709319 0 -0.79863550430605224 0.99829438038256524 0 -0.75226878846366485 1 I I -0.70710678118654746 0.70710678118654746 1.25 forward I I I I #
loop $-1 $-1 $77 $19 #
coedge $-1 $48 $48 $78 $79 reversed $30 $-1 #
face $-1 $80 $81 $12 $-1 $82 reversed single #
loop $-1 $-1 $83 $32 #
plane-surface $-1 0 -43.384146936302507 0 0 1 0 0 0 1 forward_v I I I I #
coedge $-1 $84 $85 $86 $87 forward $33 $-1 #
coedge $-1 $88 $35 $89 $90 forward $21 $-1 #
coedge $-1 $35 $88 $91 $92 forward $21 $-1 #
coedge $-1 $93 $94 $35 $56 reversed $95 $-1 #
edge $-1 $96 -43.384146936302507 $97 43.384146936302507 $55 $98 forward 7 unknown #
face $-1 $99 $100 $13 $-1 $101 reversed single #
loop $-1 $-1 $102 $36 #
plane-surface $-1 -50.241000363465872 0 -11.394727357150135 -1 0 0 0 0 1 forward_v I I I I #
coedge $-1 $103 $104 $105 $106 forward $37 $-1 #
coedge $-1 $107 $39 $108 $109 reversed $24 $-1 #
coedge $-1 $39 $107 $110 $111 reversed $24 $-1 #
coedge $-1 $102 $112 $39 $64 reversed $58 $-1 #
edge $-1 $113 -43.384146936302507 $114 43.384146936302507 $63 $115 forward 7 unknown #
face $-1 $116 $117 $14 $-1 $118 reversed single #
loop $-1 $-1 $119 $40 #
plane-surface $-1 41.404957846286734 1.1503993717949683 191.36037488872157 0 1 0 0.6018150307709319 0 0.79863550430605224 forward_v I I I I #
coedge $-1 $120 $121 $122 $123 reversed $41 $-1 #
coedge $-1 $70 $43 $124 $125 reversed $27 $-1 #
coedge $-1 $43 $69 $120 $126 reversed $27 $-1 #
coedge $-1 $122 $127 $43 $72 forward $128 $-1 #
edge $-1 $129 -47.582075659210822 $130 -27.475129565997214 $71 $131 forward 7 unknown #
loop $-1 $-1 $78 $44 #
plane-surface $-1 -40.784384788030991 9.3978492354053671 82.291435518336385 0.6018150307709319 0 0.79863550430605224 0.79863550430605224 0 -0.6018150307709319 forward_v I I I I #
loop $-1 $-1 $132 $29 #
coedge $-1 $76 $76 $77 $133 reversed $45 $-1 #
coedge $-1 $77 $77 $76 $133 forward $47 $-1 #
coedge $-1 $78 $78 $48 $79 forward $73 $-1 #
edge $-1 $134 0 $134 6.2831853071796004 $78 $135 forward 7 unknown #
face $-1 $136 $137 $12 $-1 $138 reversed single #
loop $-1 $-1 $139 $49 #
plane-surface $-1 -68.28455458235419 0 0 1 0 0 0 0 -1 forward_v I I I I #
coedge $-1 $140 $91 $141 $142 forward $50 $-1 #
coedge $-1 $143 $52 $140 $144 forward $33 $-1 #
coedge $-1 $52 $143 $145 $146 forward $33 $-1 #
coedge $-1 $94 $93 $52 $87 reversed $95 $-1 #
edge $-1 $147 -43.384146936302507 $148 43.384146936302507 $86 $149 forward 7 unknown #
coedge $-1 $54 $53 $150 $151 forward $21 $-1 #
coedge $-1 $152 $153 $53 $90 reversed $137 $-1 #
edge $-1 $97 -68.28455458235419 $154 68.28455458235419 $89 $155 forward 7 unknown #
coedge $-1 $83 $156 $54 $92 reversed $50 $-1 #
edge $-1 $157 -68.28455458235419 $96 68.28455458235419 $91 $158 forward 7 unknown #
coedge $-1 $86 $55 $156 $159 forward $95 $-1 #
coedge $-1 $55 $86 $152 $160 reversed $95 $-1 #
loop $-1 $-1 $93 $136 #
vertex $-1 $56 $161 #
vertex $-1 $56 $162 #
straight-curve $-1 68.28455458235419 0 15.253763848498608 0 1 0 I I #
face $-1 $163 $164 $13 $-1 $165 reversed single #
loop $-1 $-1 $166 $57 #
plane-surface $-1 0 -43.384146936302507 0 0 1 0 0 0 1 forward_v I I I I #
coedge $-1 $105 $63 $167 $168 reversed $58 $-1 #
coedge $-1 $169 $60 $166 $170 reversed $37 $-1 #
coedge $-1 $60 $169 $171 $172 reversed $37 $-1 #
coedge $-1 $112 $102 $60 $106 reversed $58 $-1 #
edge $-1 $173 -43.384146936302507 $174 43.384146936302507 $105 $175 forward 7 unknown #
coedge $-1 $62 $61 $176 $177 reversed $24 $-1 #
coedge $-1 $178 $179 $61 $109 forward $180 $-1 #
edge $-1 $181 -38.653165845899174 $114 -20.609611627010857 $108 $182 forward 7 unknown #
coedge $-1 $183 $167 $62 $111 forward $100 $-1 #
edge $-1 $113 20.609611627010857 $184 38.653165845899174 $110 $185 forward 7 unknown #
coedge $-1 $63 $105 $178 $186 reversed $58 $-1 #
vertex $-1 $111 $187 #
vertex $-1 $109 $188 #
straight-curve $-1 -50.241000363465872 0 -9.0189351332415484 0 1 0 I I #
face $-1 $-1 $128 $14 $-1 $189 forward single #
loop $-1 $-1 $190 $65 #
plane-surface $-1 68.28455458235419 0 0 -1 0 0 0 0 1 forward_v I I I I #
coedge $-1 $191 $192 $193 $194 reversed $66 $-1 #
coedge $-1 $195 $68 $70 $126 forward $41 $-1 #
coedge $-1 $68 $195 $191 $196 forward $41 $-1 #
coedge $-1 $193 $71 $68 $123 forward $128 $-1 #
edge $-1 $130 -12.946374481313082 $197 3.5485252459077152 $122 $198 forward 7 unknown #
coedge $-1 $199 $200 $69 $125 forward $117 $-1 #
edge $-1 $201 -95.578094560342123 $129 -80.426423595862175 $124 $202 forward 7 unknown #
edge $-1 $130 111.3924848037806 $201 136.56910916470838 $70 $203 forward 7 unknown #
coedge $-1 $71 $193 $199 $204 forward $128 $-1 #
loop $-1 $-1 $193 $116 #
vertex $-1 $125 $205 #
vertex $-1 $72 $206 #
straight-curve $-1 20.702478923143367 17.645299099015766 15.253763848498608 -1 0 0 I I #
coedge $-1 $132 $132 $-1 $207 reversed $75 $-1 #
edge $-1 $208 0 $208 6.2831853071796004 $76 $209 forward 7 unknown #
vertex $-1 $79 $210 #
ellipse-curve $-1 58.2310815357474 9.3978492354053671 7.6779283662586106 0.6018150307709319 0 0.79863550430605224 1.9965887607651305 0 -1.5045375769273297 1 I I #
face $-1 $-1 $95 $12 $-1 $211 reversed single #
loop $-1 $-1 $152 $80 #
plane-surface $-1 0 43.384146936302507 0 0 -1 0 0 0 -1 forward_v I I I I #
coedge $-1 $212 $150 $153 $213 forward $81 $-1 #
coedge $-1 $156 $83 $84 $144 reversed $50 $-1 #
coedge $-1 $150 $212 $83 $142 reversed $81 $-1 #
edge $-1 $157 -15.253763848498608 $214 15.253763848498608 $141 $215 forward 7 unknown #
coedge $-1 $85 $84 $212 $216 forward $33 $-1 #
edge $-1 $148 -68.28455458235419 $214 68.28455458235419 $140 $217 forward 7 unknown #
coedge $-1 $153 $152 $85 $146 reversed $137 $-1 #
edge $-1 $218 -68.28455458235419 $147 68.28455458235419 $145 $219 forward 7 unknown #
vertex $-1 $87 $220 #
vertex $-1 $159 $221 #
straight-curve $-1 68.28455458235419 0 -15.253763848498608 0 -1 0 I I #
coedge $-1 $139 $141 $88 $151 reversed $81 $-1 #
edge $-1 $154 -43.384146936302507 $157 43.384146936302507 $150 $222 forward 7 unknown #
coedge $-1 $145 $89 $94 $160 forward $137 $-1 #
coedge $-1 $89 $145 $139 $213 reversed $137 $-1 #
vertex $-1 $90 $223 #
straight-curve $-1 0 43.384146936302507 15.253763848498608 -1 0 0 I I #
coedge $-1 $91 $140 $93 $159 reversed $50 $-1 #
vertex $-1 $151 $224 #
straight-curve $-1 0 -43.384146936302507 15.253763848498608 1 0 0 I I #
edge $-1 $96 -15.253763848498608 $148 15.253763848498608 $93 $225 forward 7 unknown #
edge $-1 $97 -15.253763848498608 $147 15.253763848498608 $94 $226 forward 7 unknown #
point $-1 68.28455458235419 -43.384146936302507 15.253763848498608 #
point $-1 68.28455458235419 43.384146936302507 15.253763848498608 #
face $-1 $-1 $180 $13 $-1 $227 reversed single #
loop $-1 $-1 $228 $99 #
plane-surface $-1 -68.28455458235419 0 0 1 0 0 0 0 -1 forward_v I I I I #
coedge $-1 $167 $183 $103 $170 forward $100 $-1 #
coedge $-1 $110 $166 $102 $168 forward $100 $-1 #
edge $-1 $174 -8.0731559024836539 $113 -3.321571454666481 $167 $229 forward 7 unknown #
coedge $-1 $104 $103 $228 $230 reversed $37 $-1 #
edge $-1 $231 -38.653165845899174 $174 -20.609611627010857 $166 $232 forward 7 unknown #
coedge $-1 $179 $178 $104 $172 forward $180 $-1 #
edge $-1 $173 20.609611627010857 $233 38.653165845899174 $171 $234 forward 7 unknown #
vertex $-1 $172 $235 #
vertex $-1 $170 $236 #
straight-curve $-1 -50.241000363465872 0 -13.770519581058721 0 -1 0 I I #
coedge $-1 $237 $238 $107 $177 forward $164 $-1 #
edge $-1 $184 -43.384146936302507 $181 43.384146936302507 $176 $239 forward 7 unknown #
coedge $-1 $171 $108 $112 $186 forward $180 $-1 #
coedge $-1 $108 $171 $237 $240 reversed $180 $-1 #
loop $-1 $-1 $171 $163 #
vertex $-1 $240 $241 #
straight-curve $-1 -29.631388736455015 43.384146936302507 -9.0189351332415484 1 0 0 I I #
coedge $-1 $166 $110 $238 $242 forward $100 $-1 #
vertex $-1 $242 $243 #
straight-curve $-1 -29.631388736455015 -43.384146936302507 -9.0189351332415484 -1 0 0 I I #
edge $-1 $114 3.321571454666481 $173 8.0731559024836539 $178 $244 forward 7 unknown #
point $-1 -50.241000363465872 -43.384146936302507 -9.0189351332415484 #
point $-1 -50.241000363465872 43.384146936302507 -9.0189351332415484 #
plane-surface $-1 0 0 15.253763848498608 0 0 1 1 0 0 forward_v I I I I #
coedge $-1 $200 $199 $192 $245 forward $117 $-1 #
coedge $-1 $192 $119 $121 $196 reversed $66 $-1 #
coedge $-1 $119 $191 $190 $245 reversed $66 $-1 #
coedge $-1 $127 $122 $119 $194 forward $128 $-1 #
edge $-1 $197 27.475129565997214 $246 47.582075659210822 $193 $247 forward 7 unknown #
coedge $-1 $121 $120 $200 $248 reversed $41 $-1 #
edge $-1 $249 -136.56910916470838 $197 -111.3924848037806 $191 $250 forward 7 unknown #
vertex $-1 $123 $251 #
straight-curve $-1 48.177608489140582 4.6989246177026835 15.2537638484986 0 -1 0 I I #
coedge $-1 $190 $124 $127 $204 reversed $117 $-1 #
coedge $-1 $124 $190 $195 $248 forward $117 $-1 #
vertex $-1 $125 $252 #
straight-curve $-1 68.28455458235419 17.645299099015766 95.680187444360783 0 0 1 I I #
straight-curve $-1 -40.784384788030991 17.645299099015766 82.291435518336385 0.79863550430605224 0 -0.6018150307709319 I I #
edge $-1 $246 1.1503993717949683 $129 17.645299099015766 $199 $253 forward 7 unknown #
point $-1 68.28455458235419 17.645299099015766 15.253763848498608 #
point $-1 48.177608489140582 17.645299099015766 15.253763848498608 #
edge $-1 $254 1 $254 0 $132 $-1 forward 7 unknown #
vertex $-1 $133 $255 #
ellipse-curve $-1 52.761859928626066 9.3978492354053671 0.420026298293384 0.6018150307709319 0 0.79863550430605224 1.9965887607651305 0 -1.5045375769273297 1 I I #
point $-1 60.227670296512535 9.3978492354053671 6.1733907893312949 #
plane-surface $-1 68.28455458235419 0 0 -1 0 0 0 0 1 forward_v I I I I #
coedge $-1 $141 $139 $143 $216 reversed $81 $-1 #
edge $-1 $154 -15.253763848498608 $218 15.253763848498608 $153 $256 forward 7 unknown #
vertex $-1 $216 $257 #
straight-curve $-1 -68.28455458235419 -43.384146936302507 0 0 0 -1 I I #
edge $-1 $214 -43.384146936302507 $218 43.384146936302507 $212 $258 forward 7 unknown #
straight-curve $-1 0 -43.384146936302507 -15.253763848498608 -1 0 0 I I #
vertex $-1 $146 $259 #
straight-curve $-1 0 43.384146936302507 -15.253763848498608 1 0 0 I I #
point $-1 68.28455458235419 43.384146936302507 -15.253763848498608 #
point $-1 68.28455458235419 -43.384146936302507 -15.253763848498608 #
straight-curve $-1 -68.28455458235419 0 15.253763848498608 0 -1 0 I I #
point $-1 -68.28455458235419 43.384146936302507 15.253763848498608 #
point $-1 -68.28455458235419 -43.384146936302507 15.253763848498608 #
straight-curve $-1 68.28455458235419 -43.384146936302507 0 0 0 -1 I I #
straight-curve $-1 68.28455458235419 43.384146936302507 0 0 0 -1 I I #
plane-surface $-1 0 43.384146936302507 0 0 -1 0 0 0 -1 forward_v I I I I #
coedge $-1 $238 $237 $169 $230 forward $164 $-1 #
straight-curve $-1 -50.241000363465872 -43.384146936302507 -5.6973636785750674 0 0 1 I I #
edge $-1 $233 -43.384146936302507 $231 43.384146936302507 $228 $260 forward 7 unknown #
vertex $-1 $170 $261 #
straight-curve $-1 -29.631388736455015 -43.384146936302507 -13.770519581058721 1 0 0 I I #
vertex $-1 $172 $262 #
straight-curve $-1 -29.631388736455015 43.384146936302507 -13.770519581058721 -1 0 0 I I #
point $-1 -50.241000363465872 43.384146936302507 -13.770519581058721 #
point $-1 -50.241000363465872 -43.384146936302507 -13.770519581058721 #
coedge $-1 $228 $176 $179 $240 forward $164 $-1 #
coedge $-1 $176 $228 $183 $242 reversed $164 $-1 #
straight-curve $-1 -68.28455458235419 0 -9.0189351332415484 0 1 0 I I #
edge $-1 $181 9.0189351332415484 $233 13.770519581058721 $179 $263 forward 7 unknown #
point $-1 -68.28455458235419 43.384146936302507 -9.0189351332415484 #
edge $-1 $184 9.0189351332415484 $231 13.770519581058721 $238 $264 forward 7 unknown #
point $-1 -68.28455458235419 -43.384146936302507 -9.0189351332415484 #
straight-curve $-1 -50.241000363465872 43.384146936302507 -5.6973636785750674 0 0 -1 I I #
edge $-1 $246 80.426423595862175 $249 95.578094560342123 $190 $265 forward 7 unknown #
vertex $-1 $204 $266 #
straight-curve $-1 20.702478923143367 1.1503993717949683 15.253763848498608 1 0 0 I I #
edge $-1 $249 -3.5485252459077152 $201 12.946374481313082 $200 $267 forward 7 unknown #
vertex $-1 $248 $268 #
straight-curve $-1 -40.784384788030991 1.1503993717949683 82.291435518336385 -0.79863550430605224 0 0.6018150307709319 I I #
point $-1 48.177608489140582 1.1503993717949683 15.253763848498608 #
point $-1 68.28455458235419 17.645299099015766 0.1020928840186599 #
straight-curve $-1 68.28455458235419 0 15.253763848498608 0 1 0 I I #
vertex $-1 $207 $269 #
point $-1 54.758448689391194 9.3978492354053671 -1.0845112786339457 #
straight-curve $-1 -68.28455458235419 43.384146936302507 0 0 0 -1 I I #
point $-1 -68.28455458235419 -43.384146936302507 -15.253763848498608 #
straight-curve $-1 -68.28455458235419 0 -15.253763848498608 0 1 0 I I #
point $-1 -68.28455458235419 43.384146936302507 -15.253763848498608 #
straight-curve $-1 -68.28455458235419 0 -13.770519581058721 0 -1 0 I I #
point $-1 -68.28455458235419 -43.384146936302507 -13.770519581058721 #
point $-1 -68.28455458235419 43.384146936302507 -13.770519581058721 #
straight-curve $-1 -68.28455458235419 43.384146936302507 0 0 0 -1 I I #
straight-curve $-1 -68.28455458235419 -43.384146936302507 0 0 0 -1 I I #
straight-curve $-1 68.28455458235419 1.1503993717949683 95.680187444360783 0 0 -1 I I #
point $-1 68.28455458235419 1.1503993717949683 15.253763848498608 #
straight-curve $-1 68.28455458235419 4.6989246177026835 0.1020928840186599 0 1 0 I I #
point $-1 68.28455458235419 1.1503993717949683 0.1020928840186599 #
point $-1 51.257322351698733 9.3978492354053671 -1.5765624624717465 #
End-of-ACIS-data 