500 0 11 0           
7 Unknown 11 ACIS 5.0 NT 24 Fri Mar 26 18:49:44 1999 
-1 9.9999999999999995e-007 1e-010 
body $-1 $11 $-1 $12 #
body $-1 $13 $-1 $14 #
body $-1 $15 $-1 $16 #
body $-1 $17 $-1 $18 #
body $-1 $19 $-1 $20 #
body $-1 $21 $-1 $22 #
body $-1 $23 $-1 $24 #
body $-1 $25 $-1 $26 #
body $-1 $27 $-1 $28 #
body $-1 $29 $-1 $30 #
body $-1 $31 $-1 $32 #
lump $-1 $-1 $33 $0 #
transform $-1 1 0 0 0 1 0 0 0 1 52.640766624958033 31.009647929367656 9.2832099195393578 1 rotate no_reflect no_shear #
lump $-1 $-1 $34 $1 #
transform $-1 1 0 0 0 1 0 0 0 1 52.640766624958033 31.009647929367656 9.2832099195393578 1 rotate no_reflect no_shear #
lump $-1 $-1 $35 $2 #
transform $-1 1 0 0 0 1 0 0 0 1 52.640766624958033 31.009647929367656 9.2832099195393578 1 rotate no_reflect no_shear #
lump $-1 $-1 $36 $3 #
transform $-1 1 0 0 0 1 0 0 0 1 52.640766624958033 31.009647929367656 9.2832099195393578 1 rotate no_reflect no_shear #
lump $-1 $-1 $37 $4 #
transform $-1 1 0 0 0 1 0 0 0 1 52.640766624958033 31.009647929367656 9.2832099195393578 1 rotate no_reflect no_shear #
lump $-1 $-1 $38 $5 #
transform $-1 1 0 0 0 1 0 0 0 1 52.640766624958033 31.009647929367656 9.2832099195393578 1 rotate no_reflect no_shear #
lump $-1 $-1 $39 $6 #
transform $-1 1 0 0 0 1 0 0 0 1 52.640766624958033 31.009647929367656 9.2832099195393578 1 rotate no_reflect no_shear #
lump $-1 $-1 $40 $7 #
transform $-1 1 0 0 0 1 0 0 0 1 52.640766624958033 31.009647929367656 9.2832099195393578 1 rotate no_reflect no_shear #
lump $-1 $-1 $41 $8 #
transform $-1 1 0 0 0 1 0 0 0 1 52.640766624958033 31.009647929367656 9.2832099195393578 1 rotate no_reflect no_shear #
lump $-1 $-1 $42 $9 #
transform $-1 1 0 0 0 1 0 0 0 1 52.640766624958033 31.009647929367656 9.2832099195393578 1 rotate no_reflect no_shear #
lump $-1 $-1 $43 $10 #
transform $-1 1 0 0 0 1 0 0 0 1 52.640766624958033 31.009647929367656 9.2832099195393578 1 rotate no_reflect no_shear #
shell $-1 $-1 $-1 $44 $-1 $11 #
shell $-1 $-1 $-1 $45 $-1 $13 #
shell $-1 $-1 $-1 $46 $-1 $15 #
shell $-1 $-1 $-1 $47 $-1 $17 #
shell $-1 $-1 $-1 $48 $-1 $19 #
shell $-1 $-1 $-1 $49 $-1 $21 #
shell $-1 $-1 $-1 $50 $-1 $23 #
shell $-1 $-1 $-1 $51 $-1 $25 #
shell $-1 $-1 $-1 $52 $-1 $27 #
shell $-1 $-1 $-1 $53 $-1 $29 #
shell $-1 $-1 $-1 $54 $-1 $31 #
face $-1 $55 $56 $33 $-1 $57 forward single #
face $-1 $58 $59 $34 $-1 $60 forward single #
face $-1 $61 $62 $35 $-1 $63 reversed single #
face $-1 $64 $65 $36 $-1 $66 forward single #
face $-1 $67 $68 $37 $-1 $69 forward single #
face $-1 $70 $71 $38 $-1 $72 reversed single #
face $-1 $73 $74 $39 $-1 $75 forward single #
face $-1 $76 $77 $40 $-1 $78 forward single #
face $-1 $79 $80 $41 $-1 $81 reversed single #
face $-1 $82 $83 $42 $-1 $84 forward single #
face $-1 $85 $86 $43 $-1 $87 forward single #
face $-1 $88 $89 $33 $-1 $90 reversed single #
loop $-1 $-1 $91 $44 #
plane-surface $-1 0 0 9.2832099195393578 0 0 1 1 0 0 forward_v I I I I #
face $-1 $92 $93 $34 $-1 $94 reversed single #
loop $-1 $-1 $95 $45 #
plane-surface $-1 -48.147717955157212 0 6.1700775489277149 0 0 1 1 0 0 forward_v I I I I #
face $-1 $96 $97 $35 $-1 $98 reversed single #
loop $-1 $-1 $99 $46 #
plane-surface $-1 13.841500571614695 -116.18419838400074 62.089834180534993 1 0 0 0 0.80901700255871778 -0.5877852410284794 forward_v I I I I #
face $-1 $100 $101 $36 $-1 $102 forward single #
loop $-1 $103 $104 $47 #
cone-surface $-1 21.906472659927957 -24.49515815457525 2.4075305793995314 0 0.80901700255871778 -0.5877852410284794 2 0 0 1 I I 0 1 2 forward I I I I #
face $-1 $105 $106 $37 $-1 $107 forward single #
loop $-1 $108 $109 $48 #
cone-surface $-1 34.003930792397838 -24.49515815457525 2.4075305793995314 0 0.80901700255871778 -0.5877852410284794 2 0 0 1 I I 0 1 2 forward I I I I #
face $-1 $110 $111 $38 $-1 $112 reversed single #
loop $-1 $-1 $113 $49 #
plane-surface $-1 -5.1664706115985375 89.311238486182177 113.65335459042224 1 0 0 0 -0.85716730853699208 -0.51503806187062418 forward_v I I I I #
face $-1 $114 $115 $39 $-1 $116 forward single #
loop $-1 $117 $118 $50 #
cone-surface $-1 -2.4066079597701489 29.399021574910197 7.352280998472934 0 -0.85716730853699208 -0.51503806187062418 0.5 0 0 1 I I 0 1 0.5 forward I I I I #
face $-1 $119 $120 $40 $-1 $121 forward single #
loop $-1 $122 $123 $51 #
cone-surface $-1 1.7331860179724288 29.399021574910197 7.352280998472934 0 -0.85716730853699208 -0.51503806187062418 0.5 0 0 1 I I 0 1 0.5 forward I I I I #
face $-1 $124 $125 $41 $-1 $126 reversed single #
loop $-1 $-1 $127 $52 #
plane-surface $-1 -0.33671097089886359 -0.93265000829622124 59.42935775461779 0 0.85716730853699208 0.51503806187062418 1 0 0 forward_v I I I I #
face $-1 $128 $129 $42 $-1 $130 forward single #
loop $-1 $131 $132 $53 #
cone-surface $-1 7.2529113216291918 29.399021574910197 7.352280998472934 0 -0.85716730853699208 -0.51503806187062418 0.5 0 0 1 I I 0 1 0.5 forward I I I I #
face $-1 $133 $134 $43 $-1 $135 forward single #
loop $-1 $136 $137 $54 #
cone-surface $-1 11.392705299371769 29.399021574910197 7.352280998472934 0 -0.85716730853699208 -0.51503806187062418 0.5 0 0 1 I I 0 1 0.5 forward I I I I #
face $-1 $138 $139 $33 $-1 $140 reversed single #
loop $-1 $-1 $141 $55 #
plane-surface $-1 0 0 -9.2832099195393578 0 0 1 1 0 0 forward_v I I I I #
coedge $-1 $142 $143 $144 $145 forward $56 $-1 #
face $-1 $146 $147 $34 $-1 $148 reversed single #
loop $-1 $-1 $149 $58 #
plane-surface $-1 -48.147717955157212 0 0.68831758514808783 0 0 1 1 0 0 forward_v I I I I #
coedge $-1 $150 $151 $152 $153 forward $59 $-1 #
face $-1 $154 $155 $35 $-1 $156 reversed single #
loop $-1 $-1 $157 $61 #
plane-surface $-1 27.955201726162883 -31.009647929367659 0.2069027833852104 0 -0.80901700255871778 0.5877852410284794 1 0 0 forward_v I I I I #
coedge $-1 $158 $159 $160 $161 reversed $62 $-1 #
face $-1 $-1 $162 $36 $-1 $163 forward single #
loop $-1 $164 $165 $64 #
cone-surface $-1 21.906472659927957 -20.468812846513313 -0.51778043369169779 0 0.80901700255871778 -0.5877852410284794 1 0 0 1 I I -0.70710678118654746 0.70710678118654746 1 forward I I I I #
loop $-1 $-1 $166 $47 #
coedge $-1 $104 $104 $167 $168 reversed $65 $-1 #
face $-1 $-1 $169 $37 $-1 $170 forward single #
loop $-1 $171 $172 $67 #
cone-surface $-1 34.003930792397838 -20.468812846513313 -0.51778043369169779 0 0.80901700255871778 -0.5877852410284794 1 0 0 1 I I -0.70710678118654746 0.70710678118654746 1 forward I I I I #
loop $-1 $-1 $173 $48 #
coedge $-1 $109 $109 $174 $175 reversed $68 $-1 #
face $-1 $176 $177 $38 $-1 $178 reversed single #
loop $-1 $-1 $179 $70 #
plane-surface $-1 -0.33671097089886359 -0.93265000829622124 59.42935775461779 0 0.85716730853699208 0.51503806187062418 1 0 0 forward_v I I I I #
coedge $-1 $180 $181 $182 $183 reversed $71 $-1 #
face $-1 $-1 $184 $39 $-1 $185 forward single #
loop $-1 $186 $187 $73 #
cone-surface $-1 -2.4066079597701489 28.479830166255976 6.7999750986954144 0 -0.85716730853699208 -0.51503806187062418 0.25 0 0 1 I I -0.70710678118654746 0.70710678118654746 0.25 forward I I I I #
loop $-1 $-1 $188 $50 #
coedge $-1 $118 $118 $189 $190 reversed $74 $-1 #
face $-1 $-1 $191 $40 $-1 $192 forward single #
loop $-1 $193 $194 $76 #
cone-surface $-1 1.7331860179724288 28.479830166255976 6.7999750986954144 0 -0.85716730853699208 -0.51503806187062418 0.25 0 0 1 I I -0.70710678118654746 0.70710678118654746 0.25 forward I I I I #
loop $-1 $-1 $195 $51 #
coedge $-1 $123 $123 $196 $197 reversed $77 $-1 #
face $-1 $198 $199 $41 $-1 $200 forward single #
loop $-1 $-1 $201 $79 #
plane-surface $-1 14.152567951200151 89.311238486182177 113.65335459042224 -1 0 0 0 0.85716730853699208 0.51503806187062418 forward_v I I I I #
coedge $-1 $202 $203 $204 $205 reversed $80 $-1 #
face $-1 $-1 $206 $42 $-1 $207 forward single #
loop $-1 $208 $209 $82 #
cone-surface $-1 7.2529113216291918 28.479830166255976 6.7999750986954144 0 -0.85716730853699208 -0.51503806187062418 0.25 0 0 1 I I -0.70710678118654746 0.70710678118654746 0.25 forward I I I I #
loop $-1 $-1 $210 $53 #
coedge $-1 $132 $132 $211 $212 reversed $83 $-1 #
face $-1 $-1 $213 $43 $-1 $214 forward single #
loop $-1 $215 $216 $85 #
cone-surface $-1 11.392705299371769 28.479830166255976 6.7999750986954144 0 -0.85716730853699208 -0.51503806187062418 0.25 0 0 1 I I -0.70710678118654746 0.70710678118654746 0.25 forward I I I I #
loop $-1 $-1 $217 $54 #
coedge $-1 $137 $137 $218 $219 reversed $86 $-1 #
face $-1 $220 $221 $33 $-1 $222 reversed single #
loop $-1 $-1 $223 $88 #
plane-surface $-1 0 -31.009647929367656 0 0 1 0 0 0 1 forward_v I I I I #
coedge $-1 $224 $225 $226 $227 forward $89 $-1 #
coedge $-1 $228 $91 $229 $230 forward $56 $-1 #
coedge $-1 $91 $228 $231 $232 forward $56 $-1 #
coedge $-1 $233 $234 $91 $145 reversed $235 $-1 #
edge $-1 $236 -31.009647929367656 $237 31.009647929367656 $144 $238 forward 7 unknown #
face $-1 $239 $240 $34 $-1 $241 reversed single #
loop $-1 $-1 $242 $92 #
plane-surface $-1 -43.654669285356391 0 3.4291975670379014 -1 0 0 0 0 1 forward_v I I I I #
coedge $-1 $243 $244 $245 $246 forward $93 $-1 #
coedge $-1 $247 $95 $248 $249 reversed $59 $-1 #
coedge $-1 $95 $247 $250 $251 reversed $59 $-1 #
coedge $-1 $242 $252 $95 $153 reversed $147 $-1 #
edge $-1 $253 -31.009647929367656 $254 31.009647929367656 $152 $255 forward 7 unknown #
face $-1 $256 $257 $35 $-1 $258 forward single #
loop $-1 $-1 $259 $96 #
plane-surface $-1 42.068902880711072 -116.18419838400074 62.089834180534993 -1 0 0 0 -0.80901700255871778 0.5877852410284794 forward_v I I I I #
coedge $-1 $260 $261 $262 $263 reversed $97 $-1 #
coedge $-1 $159 $99 $264 $265 reversed $62 $-1 #
coedge $-1 $99 $158 $260 $266 reversed $62 $-1 #
coedge $-1 $262 $267 $99 $161 forward $268 $-1 #
edge $-1 $269 21.761707170728137 $270 30.838014306882283 $160 $271 forward 7 unknown #
loop $-1 $-1 $167 $100 #
plane-surface $-1 27.955201726162883 -31.009647929367659 0.2069027833852104 0 -0.80901700255871778 0.5877852410284794 1 0 0 forward_v I I I I #
loop $-1 $-1 $272 $64 #
coedge $-1 $165 $165 $166 $273 reversed $101 $-1 #
coedge $-1 $166 $166 $165 $273 forward $103 $-1 #
coedge $-1 $167 $167 $104 $168 forward $162 $-1 #
edge $-1 $274 1.0104055017342269e-015 $274 6.2831853071796013 $167 $275 forward 7 unknown #
loop $-1 $-1 $174 $105 #
plane-surface $-1 27.955201726162883 -31.009647929367659 0.2069027833852104 0 -0.80901700255871778 0.5877852410284794 1 0 0 forward_v I I I I #
loop $-1 $-1 $276 $67 #
coedge $-1 $172 $172 $173 $277 reversed $106 $-1 #
coedge $-1 $173 $173 $172 $277 forward $108 $-1 #
coedge $-1 $174 $174 $109 $175 forward $169 $-1 #
edge $-1 $278 1.0104055017342269e-015 $278 6.2831853071796013 $174 $279 forward 7 unknown #
face $-1 $280 $281 $38 $-1 $282 reversed single #
loop $-1 $-1 $283 $110 #
plane-surface $-1 4.4930486698008103 89.311238486182177 113.65335459042224 -1 0 0 0 0.85716730853699208 0.51503806187062418 forward_v I I I I #
coedge $-1 $284 $285 $286 $287 reversed $111 $-1 #
coedge $-1 $181 $113 $288 $289 reversed $71 $-1 #
coedge $-1 $113 $180 $284 $290 reversed $71 $-1 #
coedge $-1 $286 $291 $113 $183 forward $292 $-1 #
edge $-1 $293 13.645971313723432 $294 15.457424859598433 $182 $295 forward 7 unknown #
loop $-1 $-1 $189 $114 #
plane-surface $-1 -0.33671097089886359 -0.93265000829622124 59.42935775461779 0 0.85716730853699208 0.51503806187062418 1 0 0 forward_v I I I I #
loop $-1 $-1 $296 $73 #
coedge $-1 $187 $187 $188 $297 reversed $115 $-1 #
coedge $-1 $188 $188 $187 $297 forward $117 $-1 #
coedge $-1 $189 $189 $118 $190 forward $184 $-1 #
edge $-1 $298 -3.6333579922745652e-015 $298 6.2831853071795969 $189 $299 forward 7 unknown #
loop $-1 $-1 $196 $119 #
plane-surface $-1 -0.33671097089886359 -0.93265000829622124 59.42935775461779 0 0.85716730853699208 0.51503806187062418 1 0 0 forward_v I I I I #
loop $-1 $-1 $300 $76 #
coedge $-1 $194 $194 $195 $301 reversed $120 $-1 #
coedge $-1 $195 $195 $194 $301 forward $122 $-1 #
coedge $-1 $196 $196 $123 $197 forward $191 $-1 #
edge $-1 $302 -3.6333579922745652e-015 $302 6.2831853071795969 $196 $303 forward 7 unknown #
face $-1 $304 $305 $41 $-1 $306 forward single #
loop $-1 $-1 $307 $124 #
plane-surface $-1 0 0 9.2832099195393578 0 0 1 1 0 0 forward_v I I I I #
coedge $-1 $308 $309 $310 $311 reversed $125 $-1 #
coedge $-1 $312 $127 $313 $314 reversed $80 $-1 #
coedge $-1 $127 $312 $307 $315 reversed $80 $-1 #
coedge $-1 $316 $317 $127 $205 forward $305 $-1 #
edge $-1 $318 -62.01929585873534 $319 -58.502170271364612 $204 $320 forward 7 unknown #
loop $-1 $-1 $211 $128 #
plane-surface $-1 -0.33671097089886359 -0.93265000829622124 59.42935775461779 0 0.85716730853699208 0.51503806187062418 1 0 0 forward_v I I I I #
loop $-1 $-1 $321 $82 #
coedge $-1 $209 $209 $210 $322 reversed $129 $-1 #
coedge $-1 $210 $210 $209 $322 forward $131 $-1 #
coedge $-1 $211 $211 $132 $212 forward $206 $-1 #
edge $-1 $323 -3.6333579922745652e-015 $323 6.2831853071795969 $211 $324 forward 7 unknown #
loop $-1 $-1 $218 $133 #
plane-surface $-1 -0.33671097089886359 -0.93265000829622124 59.42935775461779 0 0.85716730853699208 0.51503806187062418 1 0 0 forward_v I I I I #
loop $-1 $-1 $325 $85 #
coedge $-1 $216 $216 $217 $326 reversed $134 $-1 #
coedge $-1 $217 $217 $216 $326 forward $136 $-1 #
coedge $-1 $218 $218 $137 $219 forward $213 $-1 #
edge $-1 $327 -3.6333579922745652e-015 $327 6.2831853071795969 $218 $328 forward 7 unknown #
face $-1 $329 $330 $33 $-1 $331 reversed single #
loop $-1 $-1 $332 $138 #
plane-surface $-1 -52.640766624958033 0 0 1 0 0 0 0 -1 forward_v I I I I #
coedge $-1 $333 $231 $334 $335 forward $139 $-1 #
coedge $-1 $336 $141 $333 $337 forward $89 $-1 #
coedge $-1 $141 $336 $338 $339 forward $89 $-1 #
coedge $-1 $234 $233 $141 $227 reversed $235 $-1 #
edge $-1 $340 -31.009647929367656 $341 31.009647929367656 $226 $342 forward 7 unknown #
coedge $-1 $143 $142 $343 $344 forward $56 $-1 #
coedge $-1 $345 $346 $142 $230 reversed $330 $-1 #
edge $-1 $237 -52.640766624958033 $347 52.640766624958033 $229 $348 forward 7 unknown #
coedge $-1 $223 $349 $143 $232 reversed $139 $-1 #
edge $-1 $350 -52.640766624958033 $236 52.640766624958033 $231 $351 forward 7 unknown #
coedge $-1 $226 $144 $349 $352 forward $235 $-1 #
coedge $-1 $144 $226 $345 $353 reversed $235 $-1 #
loop $-1 $-1 $233 $329 #
vertex $-1 $145 $354 #
vertex $-1 $145 $355 #
straight-curve $-1 52.640766624958033 0 9.2832099195393578 0 1 0 I I #
face $-1 $356 $357 $34 $-1 $358 reversed single #
loop $-1 $-1 $359 $146 #
plane-surface $-1 0 -31.009647929367656 0 0 1 0 0 0 1 forward_v I I I I #
coedge $-1 $245 $152 $360 $361 reversed $147 $-1 #
coedge $-1 $362 $149 $359 $363 reversed $93 $-1 #
coedge $-1 $149 $362 $364 $365 reversed $93 $-1 #
coedge $-1 $252 $242 $149 $246 reversed $147 $-1 #
edge $-1 $366 -31.009647929367656 $367 31.009647929367656 $245 $368 forward 7 unknown #
coedge $-1 $151 $150 $369 $370 reversed $59 $-1 #
coedge $-1 $371 $372 $150 $249 forward $373 $-1 #
edge $-1 $374 -28.566907647379427 $254 -19.580810307777785 $248 $375 forward 7 unknown #
coedge $-1 $376 $360 $151 $251 forward $240 $-1 #
edge $-1 $253 19.580810307777785 $377 28.566907647379427 $250 $378 forward 7 unknown #
coedge $-1 $152 $245 $371 $379 reversed $147 $-1 #
vertex $-1 $251 $380 #
vertex $-1 $249 $381 #
straight-curve $-1 -43.654669285356391 0 6.1700775489277149 0 1 0 I I #
face $-1 $-1 $268 $35 $-1 $382 reversed single #
loop $-1 $-1 $383 $154 #
plane-surface $-1 0 0 9.2832099195393578 0 0 1 1 0 0 forward_v I I I I #
coedge $-1 $384 $385 $386 $387 reversed $155 $-1 #
coedge $-1 $388 $157 $159 $266 forward $97 $-1 #
coedge $-1 $157 $388 $384 $389 forward $97 $-1 #
coedge $-1 $386 $160 $157 $263 forward $268 $-1 #
edge $-1 $270 -0.13610029146674663 $390 28.09130201762963 $262 $391 forward 7 unknown #
coedge $-1 $392 $393 $158 $265 forward $257 $-1 #
edge $-1 $394 -33.676774201211089 $269 -27.082451262632713 $264 $395 forward 7 unknown #
edge $-1 $270 6.040265601636166e-015 $394 11.218932491465649 $159 $396 forward 7 unknown #
coedge $-1 $160 $386 $392 $397 reversed $268 $-1 #
loop $-1 $-1 $386 $256 #
vertex $-1 $397 $398 #
vertex $-1 $161 $399 #
straight-curve $-1 13.841500571614695 -31.009647929367659 31.044917090267496 0 0 -1 I I #
coedge $-1 $272 $272 $-1 $400 reversed $164 $-1 #
edge $-1 $401 0 $401 6.2831853071796004 $165 $402 forward 7 unknown #
vertex $-1 $168 $403 #
ellipse-curve $-1 21.906472659927957 -27.712486460078473 4.7450563514622832 0 -0.80901700255871778 0.5877852410284794 2 0 0 1 I I #
coedge $-1 $276 $276 $-1 $404 reversed $171 $-1 #
edge $-1 $405 0 $405 6.2831853071796004 $172 $406 forward 7 unknown #
vertex $-1 $175 $407 #
ellipse-curve $-1 34.003930792397838 -27.712486460078473 4.7450563514622832 0 -0.80901700255871778 0.5877852410284794 2 0 0 1 I I #
face $-1 $-1 $292 $38 $-1 $408 forward single #
loop $-1 $-1 $409 $176 #
plane-surface $-1 0 31.009647929367656 0 0 -1 0 0 0 -1 forward_v I I I I #
coedge $-1 $410 $411 $412 $413 reversed $177 $-1 #
coedge $-1 $414 $179 $181 $290 forward $111 $-1 #
coedge $-1 $179 $414 $410 $415 forward $111 $-1 #
coedge $-1 $412 $182 $179 $287 forward $292 $-1 #
edge $-1 $294 -4.9981151261491057 $416 4.6614041552502421 $286 $417 forward 7 unknown #
coedge $-1 $418 $419 $180 $289 forward $281 $-1 #
edge $-1 $420 -50.558232449184914 $293 -47.54346737567176 $288 $421 forward 7 unknown #
edge $-1 $294 58.502170271364612 $420 62.01929585873534 $181 $422 forward 7 unknown #
coedge $-1 $182 $412 $418 $423 forward $292 $-1 #
loop $-1 $-1 $412 $280 #
vertex $-1 $289 $424 #
vertex $-1 $183 $425 #
straight-curve $-1 -5.1664706115985375 44.655619243091088 9.2832099195393596 0 -1 0 I I #
coedge $-1 $296 $296 $-1 $426 reversed $186 $-1 #
edge $-1 $427 0 $427 6.2831853071796004 $187 $428 forward 7 unknown #
vertex $-1 $190 $429 #
ellipse-curve $-1 -2.4066079597701489 30.103921156430154 7.7758273827827873 0 0.85716730853699208 0.51503806187062418 0.5 0 0 1 I I #
coedge $-1 $300 $300 $-1 $430 reversed $193 $-1 #
edge $-1 $431 0 $431 6.2831853071796004 $194 $432 forward 7 unknown #
vertex $-1 $197 $433 #
ellipse-curve $-1 1.7331860179724288 30.103921156430154 7.7758273827827873 0 0.85716730853699208 0.51503806187062418 0.5 0 0 1 I I #
face $-1 $-1 $434 $41 $-1 $435 reversed single #
loop $-1 $-1 $316 $198 #
plane-surface $-1 4.4930486698008103 89.311238486182177 113.65335459042224 -1 0 0 0 0.85716730853699208 0.51503806187062418 forward_v I I I I #
coedge $-1 $310 $436 $203 $315 forward $199 $-1 #
coedge $-1 $309 $201 $312 $437 reversed $125 $-1 #
coedge $-1 $201 $308 $438 $439 reversed $125 $-1 #
coedge $-1 $440 $307 $201 $311 forward $199 $-1 #
edge $-1 $441 -15.457424859598433 $442 -13.645971313723432 $310 $443 forward 7 unknown #
coedge $-1 $203 $202 $308 $437 forward $80 $-1 #
coedge $-1 $444 $438 $202 $314 forward $434 $-1 #
edge $-1 $445 -14.320923436649583 $318 -4.6614041552502421 $313 $446 forward 7 unknown #
edge $-1 $319 4.6614041552502421 $441 14.320923436649583 $307 $447 forward 7 unknown #
coedge $-1 $317 $204 $436 $448 reversed $305 $-1 #
coedge $-1 $204 $316 $444 $449 reversed $305 $-1 #
vertex $-1 $314 $450 #
vertex $-1 $315 $451 #
straight-curve $-1 4.4930486698008103 -0.93265000829622124 59.42935775461779 0 -0.51503806187062418 0.85716730853699208 I I #
coedge $-1 $321 $321 $-1 $452 reversed $208 $-1 #
edge $-1 $453 0 $453 6.2831853071796004 $209 $454 forward 7 unknown #
vertex $-1 $212 $455 #
ellipse-curve $-1 7.2529113216291918 30.103921156430154 7.7758273827827873 0 0.85716730853699208 0.51503806187062418 0.5 0 0 1 I I #
coedge $-1 $325 $325 $-1 $456 reversed $215 $-1 #
edge $-1 $457 0 $457 6.2831853071796004 $216 $458 forward 7 unknown #
vertex $-1 $219 $459 #
ellipse-curve $-1 11.392705299371769 30.103921156430154 7.7758273827827873 0 0.85716730853699208 0.51503806187062418 0.5 0 0 1 I I #
face $-1 $-1 $235 $33 $-1 $460 reversed single #
loop $-1 $-1 $345 $220 #
plane-surface $-1 0 31.009647929367656 0 0 -1 0 0 0 -1 forward_v I I I I #
coedge $-1 $461 $343 $346 $462 forward $221 $-1 #
coedge $-1 $349 $223 $224 $337 reversed $139 $-1 #
coedge $-1 $343 $461 $223 $335 reversed $221 $-1 #
edge $-1 $350 -9.2832099195393578 $463 9.2832099195393578 $334 $464 forward 7 unknown #
coedge $-1 $225 $224 $461 $465 forward $89 $-1 #
edge $-1 $341 -52.640766624958033 $463 52.640766624958033 $333 $466 forward 7 unknown #
coedge $-1 $346 $345 $225 $339 reversed $330 $-1 #
edge $-1 $467 -52.640766624958033 $340 52.640766624958033 $338 $468 forward 7 unknown #
vertex $-1 $227 $469 #
vertex $-1 $352 $470 #
straight-curve $-1 52.640766624958033 0 -9.2832099195393578 0 -1 0 I I #
coedge $-1 $332 $334 $228 $344 reversed $221 $-1 #
edge $-1 $347 -31.009647929367656 $350 31.009647929367656 $343 $471 forward 7 unknown #
coedge $-1 $338 $229 $234 $353 forward $330 $-1 #
coedge $-1 $229 $338 $332 $462 reversed $330 $-1 #
vertex $-1 $230 $472 #
straight-curve $-1 0 31.009647929367656 9.2832099195393578 -1 0 0 I I #
coedge $-1 $231 $333 $233 $352 reversed $139 $-1 #
vertex $-1 $344 $473 #
straight-curve $-1 0 -31.009647929367656 9.2832099195393578 1 0 0 I I #
edge $-1 $236 -9.2832099195393578 $341 9.2832099195393578 $233 $474 forward 7 unknown #
edge $-1 $237 -9.2832099195393578 $340 9.2832099195393578 $234 $475 forward 7 unknown #
point $-1 52.640766624958033 -31.009647929367656 9.2832099195393578 #
point $-1 52.640766624958033 31.009647929367656 9.2832099195393578 #
face $-1 $-1 $373 $34 $-1 $476 reversed single #
loop $-1 $-1 $477 $239 #
plane-surface $-1 -52.640766624958033 0 0 1 0 0 0 0 -1 forward_v I I I I #
coedge $-1 $360 $376 $243 $363 forward $240 $-1 #
coedge $-1 $250 $359 $242 $361 forward $240 $-1 #
edge $-1 $367 -1.0262811983708628 $253 4.4554787654087642 $360 $478 forward 7 unknown #
coedge $-1 $244 $243 $477 $479 reversed $93 $-1 #
edge $-1 $480 -28.566907647379427 $367 -19.580810307777785 $359 $481 forward 7 unknown #
coedge $-1 $372 $371 $244 $365 forward $373 $-1 #
edge $-1 $366 19.580810307777785 $482 28.566907647379427 $364 $483 forward 7 unknown #
vertex $-1 $365 $484 #
vertex $-1 $363 $485 #
straight-curve $-1 -43.654669285356391 0 0.68831758514808783 0 -1 0 I I #
coedge $-1 $486 $487 $247 $370 forward $357 $-1 #
edge $-1 $377 -31.009647929367656 $374 31.009647929367656 $369 $488 forward 7 unknown #
coedge $-1 $364 $248 $252 $379 forward $373 $-1 #
coedge $-1 $248 $364 $486 $489 reversed $373 $-1 #
loop $-1 $-1 $364 $356 #
vertex $-1 $489 $490 #
straight-curve $-1 -24.073858977578606 31.009647929367656 6.1700775489277149 1 0 0 I I #
coedge $-1 $359 $250 $487 $491 forward $240 $-1 #
vertex $-1 $491 $492 #
straight-curve $-1 -24.073858977578606 -31.009647929367656 6.1700775489277149 -1 0 0 I I #
edge $-1 $254 -4.4554787654087642 $366 1.0262811983708628 $371 $493 forward 7 unknown #
point $-1 -43.654669285356391 -31.009647929367656 6.1700775489277149 #
point $-1 -43.654669285356391 31.009647929367656 6.1700775489277149 #
plane-surface $-1 0 -31.009647929367656 0 0 1 0 0 0 1 forward_v I I I I #
coedge $-1 $393 $392 $385 $494 forward $257 $-1 #
coedge $-1 $385 $259 $261 $389 reversed $155 $-1 #
coedge $-1 $259 $384 $383 $494 reversed $155 $-1 #
coedge $-1 $267 $262 $259 $387 forward $268 $-1 #
edge $-1 $390 -30.838014306882283 $495 -21.761707170728137 $386 $496 forward 7 unknown #
coedge $-1 $261 $260 $393 $497 reversed $97 $-1 #
edge $-1 $498 -11.218932491465649 $390 -6.040265601636166e-015 $384 $499 forward 7 unknown #
vertex $-1 $263 $500 #
straight-curve $-1 13.977600863081442 -31.009647929367656 0.20690278338521934 1 0 0 I I #
coedge $-1 $383 $264 $267 $397 forward $257 $-1 #
coedge $-1 $264 $383 $388 $497 forward $257 $-1 #
vertex $-1 $265 $501 #
straight-curve $-1 13.841500571614695 -58.092099192000369 9.2832099195393596 0 -1 0 I I #
straight-curve $-1 13.841500571614695 -31.009647929367659 0.2069027833852104 0 0.5877852410284794 0.80901700255871778 I I #
edge $-1 $269 13.841500571614695 $495 42.068902880711072 $267 $502 forward 7 unknown #
point $-1 13.841500571614695 -31.009647929367656 9.2832099195393578 #
point $-1 13.841500571614695 -31.009647929367656 0.20690278338521528 #
edge $-1 $503 1 $503 0 $272 $-1 forward 7 unknown #
vertex $-1 $273 $504 #
ellipse-curve $-1 21.906472659927957 -21.277829849072031 0.070004807336781605 0 -0.80901700255871778 0.5877852410284794 2 0 0 1 I I #
point $-1 23.906472659927957 -27.712486460078466 4.7450563514622806 #
edge $-1 $505 1 $505 0 $276 $-1 forward 7 unknown #
vertex $-1 $277 $506 #
ellipse-curve $-1 34.003930792397838 -21.277829849072031 0.070004807336781605 0 -0.80901700255871778 0.5877852410284794 2 0 0 1 I I #
point $-1 36.003930792397838 -27.712486460078466 4.7450563514622806 #
plane-surface $-1 0 0 9.2832099195393578 0 0 1 1 0 0 forward_v I I I I #
coedge $-1 $419 $418 $411 $507 forward $281 $-1 #
coedge $-1 $411 $283 $285 $415 reversed $177 $-1 #
coedge $-1 $283 $410 $409 $507 reversed $177 $-1 #
coedge $-1 $291 $286 $283 $413 forward $292 $-1 #
edge $-1 $416 -15.457424859598433 $508 -13.645971313723432 $412 $509 forward 7 unknown #
coedge $-1 $285 $284 $419 $510 reversed $111 $-1 #
edge $-1 $511 -62.01929585873534 $416 -58.502170271364612 $410 $512 forward 7 unknown #
vertex $-1 $287 $513 #
straight-curve $-1 -0.1683554854494318 29.198194383492648 9.2832099195393596 1 0 0 I I #
coedge $-1 $409 $288 $291 $423 reversed $281 $-1 #
coedge $-1 $288 $409 $414 $510 forward $281 $-1 #
vertex $-1 $289 $514 #
straight-curve $-1 -5.1664706115985375 31.009647929367656 56.82667729521112 0 0 1 I I #
straight-curve $-1 -5.1664706115985375 -0.93265000829622124 59.42935775461779 0 0.51503806187062418 -0.85716730853699208 I I #
edge $-1 $508 -4.4930486698008103 $293 5.1664706115985375 $418 $515 forward 7 unknown #
point $-1 -5.1664706115985375 31.009647929367656 9.2832099195393578 #
point $-1 -5.1664706115985375 29.198194383492655 9.2832099195393596 #
edge $-1 $516 1 $516 0 $296 $-1 forward 7 unknown #
vertex $-1 $297 $517 #
ellipse-curve $-1 -2.4066079597701489 28.694121993390223 6.9287346141630701 0 0.85716730853699208 0.51503806187062418 0.5 0 0 1 I I #
point $-1 -1.9066079597701489 30.103921156430168 7.7758273827827979 #
edge $-1 $518 1 $518 0 $300 $-1 forward 7 unknown #
vertex $-1 $301 $519 #
ellipse-curve $-1 1.7331860179724288 28.694121993390223 6.9287346141630701 0 0.85716730853699208 0.51503806187062418 0.5 0 0 1 I I #
point $-1 2.2331860179724288 30.103921156430168 7.7758273827827979 #
loop $-1 $-1 $313 $304 #
plane-surface $-1 0 31.009647929367656 0 0 -1 0 0 0 -1 forward_v I I I I #
coedge $-1 $307 $440 $316 $448 forward $199 $-1 #
edge $-1 $445 -62.01929585873534 $441 -58.502170271364612 $308 $520 forward 7 unknown #
coedge $-1 $313 $521 $309 $439 forward $434 $-1 #
edge $-1 $442 47.54346737567176 $445 50.558232449184914 $438 $522 forward 7 unknown #
coedge $-1 $436 $310 $521 $523 forward $199 $-1 #
vertex $-1 $311 $524 #
vertex $-1 $523 $525 #
straight-curve $-1 14.152567951200151 44.655619243091088 9.2832099195393596 0 1 0 I I #
coedge $-1 $521 $313 $317 $449 forward $434 $-1 #
vertex $-1 $439 $526 #
straight-curve $-1 -0.1683554854494318 31.009647929367652 6.268444846026199 -1 0 0 I I #
straight-curve $-1 -0.1683554854494318 29.198194383492648 9.2832099195393596 1 0 0 I I #
edge $-1 $527 13.645971313723432 $319 15.457424859598433 $436 $528 forward 7 unknown #
edge $-1 $318 -50.558232449184914 $527 -47.54346737567176 $444 $529 forward 7 unknown #
point $-1 4.4930486698008103 31.009647929367656 6.2684448460262061 #
point $-1 4.4930486698008103 29.198194383492655 9.2832099195393596 #
edge $-1 $530 1 $530 0 $321 $-1 forward 7 unknown #
vertex $-1 $322 $531 #
ellipse-curve $-1 7.2529113216291918 28.694121993390223 6.9287346141630701 0 0.85716730853699208 0.51503806187062418 0.5 0 0 1 I I #
point $-1 7.7529113216291918 30.103921156430168 7.7758273827827979 #
edge $-1 $532 1 $532 0 $325 $-1 forward 7 unknown #
vertex $-1 $326 $533 #
ellipse-curve $-1 11.392705299371769 28.694121993390223 6.9287346141630701 0 0.85716730853699208 0.51503806187062418 0.5 0 0 1 I I #
point $-1 11.892705299371769 30.103921156430168 7.7758273827827979 #
plane-surface $-1 52.640766624958033 0 0 -1 0 0 0 0 1 forward_v I I I I #
coedge $-1 $334 $332 $336 $465 reversed $221 $-1 #
edge $-1 $347 -9.2832099195393578 $467 9.2832099195393578 $346 $534 forward 7 unknown #
vertex $-1 $465 $535 #
straight-curve $-1 -52.640766624958033 -31.009647929367656 0 0 0 -1 I I #
edge $-1 $463 -31.009647929367656 $467 31.009647929367656 $461 $536 forward 7 unknown #
straight-curve $-1 0 -31.009647929367656 -9.2832099195393578 -1 0 0 I I #
vertex $-1 $339 $537 #
straight-curve $-1 0 31.009647929367656 -9.2832099195393578 1 0 0 I I #
point $-1 52.640766624958033 31.009647929367656 -9.2832099195393578 #
point $-1 52.640766624958033 -31.009647929367656 -9.2832099195393578 #
straight-curve $-1 -52.640766624958033 0 9.2832099195393578 0 -1 0 I I #
point $-1 -52.640766624958033 31.009647929367656 9.2832099195393578 #
point $-1 -52.640766624958033 -31.009647929367656 9.2832099195393578 #
straight-curve $-1 52.640766624958033 -31.009647929367656 0 0 0 -1 I I #
straight-curve $-1 52.640766624958033 31.009647929367656 0 0 0 -1 I I #
plane-surface $-1 0 31.009647929367656 0 0 -1 0 0 0 -1 forward_v I I I I #
coedge $-1 $487 $486 $362 $479 forward $357 $-1 #
straight-curve $-1 -43.654669285356391 -31.009647929367656 1.7145987835189507 0 0 1 I I #
edge $-1 $482 -31.009647929367656 $480 31.009647929367656 $477 $538 forward 7 unknown #
vertex $-1 $363 $539 #
straight-curve $-1 -24.073858977578606 -31.009647929367656 0.68831758514808783 1 0 0 I I #
vertex $-1 $365 $540 #
straight-curve $-1 -24.073858977578606 31.009647929367656 0.68831758514808783 -1 0 0 I I #
point $-1 -43.654669285356391 31.009647929367656 0.68831758514808783 #
point $-1 -43.654669285356391 -31.009647929367656 0.68831758514808783 #
coedge $-1 $477 $369 $372 $489 forward $357 $-1 #
coedge $-1 $369 $477 $376 $491 reversed $357 $-1 #
straight-curve $-1 -52.640766624958033 0 6.1700775489277149 0 1 0 I I #
edge $-1 $374 -6.1700775489277149 $482 -0.68831758514808783 $372 $541 forward 7 unknown #
point $-1 -52.640766624958033 31.009647929367656 6.1700775489277149 #
edge $-1 $377 -6.1700775489277149 $480 -0.68831758514808783 $487 $542 forward 7 unknown #
point $-1 -52.640766624958033 -31.009647929367656 6.1700775489277149 #
straight-curve $-1 -43.654669285356391 31.009647929367656 1.7145987835189507 0 0 -1 I I #
edge $-1 $495 27.082451262632713 $498 33.676774201211089 $383 $543 forward 7 unknown #
vertex $-1 $494 $544 #
straight-curve $-1 42.068902880711072 -31.009647929367659 31.044917090267496 0 0 1 I I #
edge $-1 $498 -28.09130201762963 $394 0.13610029146674663 $393 $545 forward 7 unknown #
vertex $-1 $497 $546 #
straight-curve $-1 42.068902880711072 -31.009647929367659 0.2069027833852104 0 -0.5877852410284794 -0.80901700255871778 I I #
point $-1 42.068902880711072 -31.009647929367656 0.20690278338521528 #
point $-1 13.841500571614695 -24.415324990789284 9.2832099195393578 #
straight-curve $-1 0 -31.009647929367656 9.2832099195393578 1 0 0 I I #
vertex $-1 $400 $547 #
point $-1 23.906472659927957 -21.277829849072031 0.070004807336781605 #
vertex $-1 $404 $548 #
point $-1 36.003930792397838 -21.277829849072031 0.070004807336781605 #
edge $-1 $508 47.54346737567176 $511 50.558232449184914 $409 $549 forward 7 unknown #
vertex $-1 $423 $550 #
straight-curve $-1 4.4930486698008103 44.655619243091088 9.2832099195393596 0 1 0 I I #
edge $-1 $511 -4.6614041552502421 $420 4.9981151261491057 $419 $551 forward 7 unknown #
vertex $-1 $510 $552 #
straight-curve $-1 4.4930486698008103 -0.93265000829622124 59.42935775461779 0 -0.51503806187062418 0.85716730853699208 I I #
point $-1 4.4930486698008103 29.198194383492655 9.2832099195393596 #
point $-1 -5.1664706115985375 31.009647929367656 6.2684448460262061 #
straight-curve $-1 0 31.009647929367656 9.2832099195393578 -1 0 0 I I #
vertex $-1 $426 $553 #
point $-1 -1.9066079597701489 28.694121993390223 6.9287346141630701 #
vertex $-1 $430 $554 #
point $-1 2.2331860179724288 28.694121993390223 6.9287346141630701 #
straight-curve $-1 14.152567951200151 -0.93265000829622124 59.42935775461779 0 -0.51503806187062418 0.85716730853699208 I I #
coedge $-1 $438 $444 $440 $523 reversed $434 $-1 #
straight-curve $-1 14.152567951200151 31.009647929367656 56.82667729521112 0 0 -1 I I #
edge $-1 $442 -14.152567951200151 $527 -4.4930486698008103 $521 $555 forward 7 unknown #
point $-1 14.152567951200151 29.198194383492655 9.2832099195393596 #
point $-1 14.152567951200151 31.009647929367656 9.2832099195393578 #
point $-1 14.152567951200151 31.009647929367656 6.2684448460262061 #
vertex $-1 $449 $556 #
straight-curve $-1 4.4930486698008103 44.655619243091088 9.2832099195393596 0 -1 0 I I #
straight-curve $-1 4.4930486698008103 31.009647929367656 56.82667729521112 0 0 1 I I #
vertex $-1 $452 $557 #
point $-1 7.7529113216291918 28.694121993390223 6.9287346141630701 #
vertex $-1 $456 $558 #
point $-1 11.892705299371769 28.694121993390223 6.9287346141630701 #
straight-curve $-1 -52.640766624958033 31.009647929367656 0 0 0 -1 I I #
point $-1 -52.640766624958033 -31.009647929367656 -9.2832099195393578 #
straight-curve $-1 -52.640766624958033 0 -9.2832099195393578 0 1 0 I I #
point $-1 -52.640766624958033 31.009647929367656 -9.2832099195393578 #
straight-curve $-1 -52.640766624958033 0 0.68831758514808783 0 -1 0 I I #
point $-1 -52.640766624958033 -31.009647929367656 0.68831758514808783 #
point $-1 -52.640766624958033 31.009647929367656 0.68831758514808783 #
straight-curve $-1 -52.640766624958033 31.009647929367656 0 0 0 -1 I I #
straight-curve $-1 -52.640766624958033 -31.009647929367656 0 0 0 -1 I I #
straight-curve $-1 42.068902880711072 -58.092099192000369 9.2832099195393596 0 1 0 I I #
point $-1 42.068902880711072 -31.009647929367656 9.2832099195393578 #
straight-curve $-1 13.977600863081442 -24.415324990789284 9.2832099195393578 -1 0 0 I I #
point $-1 42.068902880711072 -24.415324990789284 9.2832099195393578 #
point $-1 21.906472659927957 -19.659795843954594 -1.1055656747201772 #
point $-1 34.003930792397838 -19.659795843954594 -1.1055656747201772 #
straight-curve $-1 4.4930486698008103 31.009647929367656 56.82667729521112 0 0 -1 I I #
point $-1 4.4930486698008103 31.009647929367656 9.2832099195393578 #
straight-curve $-1 -0.1683554854494318 31.009647929367652 6.268444846026199 -1 0 0 I I #
point $-1 4.4930486698008103 31.009647929367656 6.2684448460262061 #
point $-1 -2.4066079597701489 28.265538339121729 6.6712155832277586 #
point $-1 1.7331860179724288 28.265538339121729 6.6712155832277586 #
straight-curve $-1 0 31.009647929367656 9.2832099195393578 -1 0 0 I I #
point $-1 4.4930486698008103 31.009647929367656 9.2832099195393578 #
point $-1 7.2529113216291918 28.265538339121729 6.6712155832277586 #
point $-1 11.392705299371769 28.265538339121729 6.6712155832277586 #
End-of-ACIS-data 