500 0 14 0           
7 Unknown 11 ACIS 5.0 NT 24 Thu Mar 25 20:17:24 1999 
-1 9.9999999999999995e-007 1e-010 
body $-1 $14 $-1 $15 #
body $-1 $16 $-1 $17 #
body $-1 $18 $-1 $19 #
body $-1 $20 $-1 $21 #
body $-1 $22 $-1 $23 #
body $-1 $24 $-1 $25 #
body $-1 $26 $-1 $27 #
body $-1 $28 $-1 $29 #
body $-1 $30 $-1 $31 #
body $-1 $32 $-1 $33 #
body $-1 $34 $-1 $35 #
body $-1 $36 $-1 $37 #
body $-1 $38 $-1 $39 #
body $-1 $40 $-1 $41 #
lump $-1 $-1 $42 $0 #
transform $-1 1 0 0 0 1 0 0 0 1 57.19412823877682 31.110903759559509 12.877694322692269 1 rotate no_reflect no_shear #
lump $-1 $-1 $43 $1 #
transform $-1 1 0 0 0 1 0 0 0 1 57.19412823877682 31.110903759559509 12.877694322692269 1 rotate no_reflect no_shear #
lump $-1 $-1 $44 $2 #
transform $-1 1 0 0 0 1 0 0 0 1 57.19412823877682 31.110903759559509 12.877694322692269 1 rotate no_reflect no_shear #
lump $-1 $-1 $45 $3 #
transform $-1 1 0 0 0 1 0 0 0 1 57.19412823877682 31.110903759559509 12.877694322692269 1 rotate no_reflect no_shear #
lump $-1 $-1 $46 $4 #
transform $-1 1 0 0 0 1 0 0 0 1 57.19412823877682 31.110903759559509 12.877694322692269 1 rotate no_reflect no_shear #
lump $-1 $-1 $47 $5 #
transform $-1 1 0 0 0 1 0 0 0 1 57.19412823877682 31.110903759559509 12.877694322692269 1 rotate no_reflect no_shear #
lump $-1 $-1 $48 $6 #
transform $-1 1 0 0 0 1 0 0 0 1 57.19412823877682 31.110903759559509 12.877694322692269 1 rotate no_reflect no_shear #
lump $-1 $-1 $49 $7 #
transform $-1 1 0 0 0 1 0 0 0 1 57.19412823877682 31.110903759559509 12.877694322692269 1 rotate no_reflect no_shear #
lump $-1 $-1 $50 $8 #
transform $-1 1 0 0 0 1 0 0 0 1 57.19412823877682 31.110903759559509 12.877694322692269 1 rotate no_reflect no_shear #
lump $-1 $-1 $51 $9 #
transform $-1 1 0 0 0 1 0 0 0 1 57.19412823877682 31.110903759559509 12.877694322692269 1 rotate no_reflect no_shear #
lump $-1 $-1 $52 $10 #
transform $-1 1 0 0 0 1 0 0 0 1 57.19412823877682 31.110903759559509 12.877694322692269 1 rotate no_reflect no_shear #
lump $-1 $-1 $53 $11 #
transform $-1 1 0 0 0 1 0 0 0 1 57.19412823877682 31.110903759559509 12.877694322692269 1 rotate no_reflect no_shear #
lump $-1 $-1 $54 $12 #
transform $-1 1 0 0 0 1 0 0 0 1 57.19412823877682 31.110903759559509 12.877694322692269 1 rotate no_reflect no_shear #
lump $-1 $-1 $55 $13 #
transform $-1 1 0 0 0 1 0 0 0 1 57.19412823877682 31.110903759559509 12.877694322692269 1 rotate no_reflect no_shear #
shell $-1 $-1 $-1 $56 $-1 $14 #
shell $-1 $-1 $-1 $57 $-1 $16 #
shell $-1 $-1 $-1 $58 $-1 $18 #
shell $-1 $-1 $-1 $59 $-1 $20 #
shell $-1 $-1 $-1 $60 $-1 $22 #
shell $-1 $-1 $-1 $61 $-1 $24 #
shell $-1 $-1 $-1 $62 $-1 $26 #
shell $-1 $-1 $-1 $63 $-1 $28 #
shell $-1 $-1 $-1 $64 $-1 $30 #
shell $-1 $-1 $-1 $65 $-1 $32 #
shell $-1 $-1 $-1 $66 $-1 $34 #
shell $-1 $-1 $-1 $67 $-1 $36 #
shell $-1 $-1 $-1 $68 $-1 $38 #
shell $-1 $-1 $-1 $69 $-1 $40 #
face $-1 $70 $71 $42 $-1 $72 forward single #
face $-1 $73 $74 $43 $-1 $75 forward single #
face $-1 $76 $77 $44 $-1 $78 reversed single #
face $-1 $79 $80 $45 $-1 $81 forward single #
face $-1 $82 $83 $46 $-1 $84 forward single #
face $-1 $85 $86 $47 $-1 $87 reversed single #
face $-1 $88 $89 $48 $-1 $90 forward single #
face $-1 $91 $92 $49 $-1 $93 forward single #
face $-1 $94 $95 $50 $-1 $96 reversed single #
face $-1 $97 $98 $51 $-1 $99 forward single #
face $-1 $100 $101 $52 $-1 $102 forward single #
face $-1 $103 $104 $53 $-1 $105 reversed single #
face $-1 $106 $107 $54 $-1 $108 forward single #
face $-1 $109 $110 $55 $-1 $111 forward single #
face $-1 $112 $113 $42 $-1 $114 reversed single #
loop $-1 $-1 $115 $56 #
plane-surface $-1 0 0 12.877694322692269 0 0 1 1 0 0 forward_v I I I I #
face $-1 $116 $117 $43 $-1 $118 reversed single #
loop $-1 $-1 $119 $57 #
plane-surface $-1 -57.19412823877682 0 0 1 0 0 0 0 -1 forward_v I I I I #
face $-1 $120 $121 $44 $-1 $122 reversed single #
loop $-1 $-1 $123 $58 #
plane-surface $-1 -28.373382734278536 -106.15635314475242 93.449014659191292 -1 0 0 0 -0.6560590369687036 0.75470957328743171 forward_v I I I I #
face $-1 $124 $125 $45 $-1 $126 forward single #
loop $-1 $127 $128 $59 #
cone-surface $-1 -41.267928886408058 -25.367648368122286 7.2018478114669922 0 0.6560590369687036 -0.75470957328743171 2 0 0 1 I I 0 1 2 forward I I I I #
face $-1 $129 $130 $46 $-1 $131 forward single #
loop $-1 $132 $133 $60 #
cone-surface $-1 -33.53120119513035 -25.367648368122286 7.2018478114669922 0 0.6560590369687036 -0.75470957328743171 2 0 0 1 I I 0 1 2 forward I I I I #
face $-1 $134 $135 $47 $-1 $136 reversed single #
loop $-1 $-1 $137 $61 #
plane-surface $-1 -2.4684138377693703 -106.15635314475242 93.449014659191292 -1 0 0 0 -0.6560590369687036 0.75470957328743171 forward_v I I I I #
face $-1 $138 $139 $48 $-1 $140 forward single #
loop $-1 $141 $142 $62 #
cone-surface $-1 -15.36295998989889 -25.367648368122286 7.2018478114669922 0 0.6560590369687036 -0.75470957328743171 2 0 0 1 I I 0 1 2 forward I I I I #
face $-1 $143 $144 $49 $-1 $145 forward single #
loop $-1 $146 $147 $63 #
cone-surface $-1 -7.6262322986211757 -25.367648368122286 7.2018478114669922 0 0.6560590369687036 -0.75470957328743171 2 0 0 1 I I 0 1 2 forward I I I I #
face $-1 $148 $149 $50 $-1 $150 reversed single #
loop $-1 $-1 $151 $64 #
plane-surface $-1 23.436555058739806 -106.15635314475242 93.449014659191292 -1 0 0 0 -0.6560590369687036 0.75470957328743171 forward_v I I I I #
face $-1 $152 $153 $51 $-1 $154 forward single #
loop $-1 $155 $156 $65 #
cone-surface $-1 10.542008906610285 -25.367648368122286 7.2018478114669922 0 0.6560590369687036 -0.75470957328743171 2 0 0 1 I I 0 1 2 forward I I I I #
face $-1 $157 $158 $52 $-1 $159 forward single #
loop $-1 $160 $161 $66 #
cone-surface $-1 18.278736597887992 -25.367648368122286 7.2018478114669922 0 0.6560590369687036 -0.75470957328743171 2 0 0 1 I I 0 1 2 forward I I I I #
face $-1 $162 $163 $53 $-1 $164 reversed single #
loop $-1 $-1 $165 $67 #
plane-surface $-1 49.341523955248981 -106.15635314475242 93.449014659191292 -1 0 0 0 -0.6560590369687036 0.75470957328743171 forward_v I I I I #
face $-1 $166 $167 $54 $-1 $168 forward single #
loop $-1 $169 $170 $68 #
cone-surface $-1 36.446977803119459 -25.367648368122286 7.2018478114669922 0 0.6560590369687036 -0.75470957328743171 2 0 0 1 I I 0 1 2 forward I I I I #
face $-1 $171 $172 $55 $-1 $173 forward single #
loop $-1 $174 $175 $69 #
cone-surface $-1 44.183705494397167 -25.367648368122286 7.2018478114669922 0 0.6560590369687036 -0.75470957328743171 2 0 0 1 I I 0 1 2 forward I I I I #
face $-1 $176 $177 $42 $-1 $178 reversed single #
loop $-1 $-1 $179 $70 #
plane-surface $-1 0 0 -12.877694322692269 0 0 1 1 0 0 forward_v I I I I #
coedge $-1 $180 $181 $182 $183 forward $71 $-1 #
face $-1 $184 $185 $43 $-1 $186 reversed single #
loop $-1 $-1 $187 $73 #
plane-surface $-1 0 0 -12.877694322692269 0 0 1 1 0 0 forward_v I I I I #
coedge $-1 $188 $189 $190 $191 forward $74 $-1 #
face $-1 $192 $193 $44 $-1 $194 reversed single #
loop $-1 $-1 $195 $76 #
plane-surface $-1 -37.399565040769204 -31.110903759559505 7.1191024239234935 0 -0.6560590369687036 0.75470957328743171 1 0 0 forward_v I I I I #
coedge $-1 $196 $197 $198 $199 reversed $77 $-1 #
face $-1 $-1 $200 $45 $-1 $201 forward single #
loop $-1 $202 $203 $79 #
cone-surface $-1 -41.267928886408058 -22.280584964210345 3.6505876763386826 0 0.6560590369687036 -0.75470957328743171 1 0 0 1 I I -0.70710678118654746 0.70710678118654746 1 forward I I I I #
loop $-1 $-1 $204 $59 #
coedge $-1 $128 $128 $205 $206 reversed $80 $-1 #
face $-1 $-1 $207 $46 $-1 $208 forward single #
loop $-1 $209 $210 $82 #
cone-surface $-1 -33.53120119513035 -22.280584964210345 3.6505876763386826 0 0.6560590369687036 -0.75470957328743171 1 0 0 1 I I -0.70710678118654746 0.70710678118654746 1 forward I I I I #
loop $-1 $-1 $211 $60 #
coedge $-1 $133 $133 $212 $213 reversed $83 $-1 #
face $-1 $214 $215 $47 $-1 $216 reversed single #
loop $-1 $-1 $217 $85 #
plane-surface $-1 -11.494596144260036 -31.110903759559505 7.1191024239234935 0 -0.6560590369687036 0.75470957328743171 1 0 0 forward_v I I I I #
coedge $-1 $218 $219 $220 $221 reversed $86 $-1 #
face $-1 $-1 $222 $48 $-1 $223 forward single #
loop $-1 $224 $225 $88 #
cone-surface $-1 -15.36295998989889 -22.280584964210345 3.6505876763386826 0 0.6560590369687036 -0.75470957328743171 1 0 0 1 I I -0.70710678118654746 0.70710678118654746 1 forward I I I I #
loop $-1 $-1 $226 $62 #
coedge $-1 $142 $142 $227 $228 reversed $89 $-1 #
face $-1 $-1 $229 $49 $-1 $230 forward single #
loop $-1 $231 $232 $91 #
cone-surface $-1 -7.6262322986211757 -22.280584964210345 3.6505876763386826 0 0.6560590369687036 -0.75470957328743171 1 0 0 1 I I -0.70710678118654746 0.70710678118654746 1 forward I I I I #
loop $-1 $-1 $233 $63 #
coedge $-1 $147 $147 $234 $235 reversed $92 $-1 #
face $-1 $236 $237 $50 $-1 $238 reversed single #
loop $-1 $-1 $239 $94 #
plane-surface $-1 14.410372752249138 -31.110903759559505 7.1191024239234935 0 -0.6560590369687036 0.75470957328743171 1 0 0 forward_v I I I I #
coedge $-1 $240 $241 $242 $243 reversed $95 $-1 #
face $-1 $-1 $244 $51 $-1 $245 forward single #
loop $-1 $246 $247 $97 #
cone-surface $-1 10.542008906610285 -22.280584964210345 3.6505876763386826 0 0.6560590369687036 -0.75470957328743171 1 0 0 1 I I -0.70710678118654746 0.70710678118654746 1 forward I I I I #
loop $-1 $-1 $248 $65 #
coedge $-1 $156 $156 $249 $250 reversed $98 $-1 #
face $-1 $-1 $251 $52 $-1 $252 forward single #
loop $-1 $253 $254 $100 #
cone-surface $-1 18.278736597887992 -22.280584964210345 3.6505876763386826 0 0.6560590369687036 -0.75470957328743171 1 0 0 1 I I -0.70710678118654746 0.70710678118654746 1 forward I I I I #
loop $-1 $-1 $255 $66 #
coedge $-1 $161 $161 $256 $257 reversed $101 $-1 #
face $-1 $258 $259 $53 $-1 $260 reversed single #
loop $-1 $-1 $261 $103 #
plane-surface $-1 40.315341648758313 -31.110903759559505 7.1191024239234935 0 -0.6560590369687036 0.75470957328743171 1 0 0 forward_v I I I I #
coedge $-1 $262 $263 $264 $265 reversed $104 $-1 #
face $-1 $-1 $266 $54 $-1 $267 forward single #
loop $-1 $268 $269 $106 #
cone-surface $-1 36.446977803119459 -22.280584964210345 3.6505876763386826 0 0.6560590369687036 -0.75470957328743171 1 0 0 1 I I -0.70710678118654746 0.70710678118654746 1 forward I I I I #
loop $-1 $-1 $270 $68 #
coedge $-1 $170 $170 $271 $272 reversed $107 $-1 #
face $-1 $-1 $273 $55 $-1 $274 forward single #
loop $-1 $275 $276 $109 #
cone-surface $-1 44.183705494397167 -22.280584964210345 3.6505876763386826 0 0.6560590369687036 -0.75470957328743171 1 0 0 1 I I -0.70710678118654746 0.70710678118654746 1 forward I I I I #
loop $-1 $-1 $277 $69 #
coedge $-1 $175 $175 $278 $279 reversed $110 $-1 #
face $-1 $280 $281 $42 $-1 $282 reversed single #
loop $-1 $-1 $283 $112 #
plane-surface $-1 0 -31.110903759559509 0 0 1 0 0 0 1 forward_v I I I I #
coedge $-1 $284 $285 $286 $287 forward $113 $-1 #
coedge $-1 $288 $115 $289 $290 forward $71 $-1 #
coedge $-1 $115 $288 $291 $292 forward $71 $-1 #
coedge $-1 $293 $294 $115 $183 reversed $295 $-1 #
edge $-1 $296 -31.110903759559509 $297 31.110903759559509 $182 $298 forward 7 unknown #
face $-1 $299 $300 $43 $-1 $301 reversed single #
loop $-1 $-1 $302 $116 #
plane-surface $-1 -62.578318684535297 -15.319565449448756 0 0 1 0 0 0 1 forward_v I I I I #
coedge $-1 $303 $304 $189 $305 forward $117 $-1 #
coedge $-1 $306 $119 $307 $308 reversed $74 $-1 #
coedge $-1 $119 $306 $187 $305 reversed $74 $-1 #
coedge $-1 $309 $310 $119 $191 reversed $311 $-1 #
edge $-1 $312 -12.877694322692269 $313 12.877694322692269 $190 $314 forward 7 unknown #
face $-1 $315 $316 $44 $-1 $317 forward single #
loop $-1 $-1 $318 $120 #
plane-surface $-1 -46.425747347259872 -106.15635314475242 93.449014659191292 1 0 0 0 0.6560590369687036 -0.75470957328743171 forward_v I I I I #
coedge $-1 $319 $320 $321 $322 reversed $121 $-1 #
coedge $-1 $197 $123 $323 $324 reversed $77 $-1 #
coedge $-1 $123 $196 $319 $325 reversed $77 $-1 #
coedge $-1 $321 $326 $123 $199 forward $316 $-1 #
edge $-1 $327 21.967272812816699 $328 28.591774861804659 $198 $329 forward 7 unknown #
loop $-1 $-1 $205 $124 #
plane-surface $-1 -37.399565040769204 -31.110903759559505 7.1191024239234935 0 -0.6560590369687036 0.75470957328743171 1 0 0 forward_v I I I I #
loop $-1 $-1 $330 $79 #
coedge $-1 $203 $203 $204 $331 reversed $125 $-1 #
coedge $-1 $204 $204 $203 $331 forward $127 $-1 #
coedge $-1 $205 $205 $128 $206 forward $200 $-1 #
edge $-1 $332 3.5047710980055092e-016 $332 6.2831853071796004 $205 $333 forward 7 unknown #
loop $-1 $-1 $212 $129 #
plane-surface $-1 -37.399565040769204 -31.110903759559505 7.1191024239234935 0 -0.6560590369687036 0.75470957328743171 1 0 0 forward_v I I I I #
loop $-1 $-1 $334 $82 #
coedge $-1 $210 $210 $211 $335 reversed $130 $-1 #
coedge $-1 $211 $211 $210 $335 forward $132 $-1 #
coedge $-1 $212 $212 $133 $213 forward $207 $-1 #
edge $-1 $336 3.5047710980055092e-016 $336 6.2831853071796004 $212 $337 forward 7 unknown #
face $-1 $338 $339 $47 $-1 $340 reversed single #
loop $-1 $-1 $341 $134 #
plane-surface $-1 -20.520778450750704 -106.15635314475242 93.449014659191292 1 0 0 0 0.6560590369687036 -0.75470957328743171 forward_v I I I I #
coedge $-1 $342 $343 $344 $345 reversed $135 $-1 #
coedge $-1 $219 $137 $346 $347 reversed $86 $-1 #
coedge $-1 $137 $218 $342 $348 reversed $86 $-1 #
coedge $-1 $344 $349 $137 $221 forward $350 $-1 #
edge $-1 $351 21.967272812816699 $352 28.591774861804659 $220 $353 forward 7 unknown #
loop $-1 $-1 $227 $138 #
plane-surface $-1 -11.494596144260036 -31.110903759559505 7.1191024239234935 0 -0.6560590369687036 0.75470957328743171 1 0 0 forward_v I I I I #
loop $-1 $-1 $354 $88 #
coedge $-1 $225 $225 $226 $355 reversed $139 $-1 #
coedge $-1 $226 $226 $225 $355 forward $141 $-1 #
coedge $-1 $227 $227 $142 $228 forward $222 $-1 #
edge $-1 $356 3.5047710980055092e-016 $356 6.2831853071796004 $227 $357 forward 7 unknown #
loop $-1 $-1 $234 $143 #
plane-surface $-1 -11.494596144260036 -31.110903759559505 7.1191024239234935 0 -0.6560590369687036 0.75470957328743171 1 0 0 forward_v I I I I #
loop $-1 $-1 $358 $91 #
coedge $-1 $232 $232 $233 $359 reversed $144 $-1 #
coedge $-1 $233 $233 $232 $359 forward $146 $-1 #
coedge $-1 $234 $234 $147 $235 forward $229 $-1 #
edge $-1 $360 3.5047710980055092e-016 $360 6.2831853071796004 $234 $361 forward 7 unknown #
face $-1 $362 $363 $50 $-1 $364 reversed single #
loop $-1 $-1 $365 $148 #
plane-surface $-1 5.3841904457584722 -106.15635314475242 93.449014659191292 1 0 0 0 0.6560590369687036 -0.75470957328743171 forward_v I I I I #
coedge $-1 $366 $367 $368 $369 reversed $149 $-1 #
coedge $-1 $241 $151 $370 $371 reversed $95 $-1 #
coedge $-1 $151 $240 $366 $372 reversed $95 $-1 #
coedge $-1 $368 $373 $151 $243 forward $374 $-1 #
edge $-1 $375 21.967272812816699 $376 28.591774861804659 $242 $377 forward 7 unknown #
loop $-1 $-1 $249 $152 #
plane-surface $-1 14.410372752249138 -31.110903759559505 7.1191024239234935 0 -0.6560590369687036 0.75470957328743171 1 0 0 forward_v I I I I #
loop $-1 $-1 $378 $97 #
coedge $-1 $247 $247 $248 $379 reversed $153 $-1 #
coedge $-1 $248 $248 $247 $379 forward $155 $-1 #
coedge $-1 $249 $249 $156 $250 forward $244 $-1 #
edge $-1 $380 3.5047710980055092e-016 $380 6.2831853071796004 $249 $381 forward 7 unknown #
loop $-1 $-1 $256 $157 #
plane-surface $-1 14.410372752249138 -31.110903759559505 7.1191024239234935 0 -0.6560590369687036 0.75470957328743171 1 0 0 forward_v I I I I #
loop $-1 $-1 $382 $100 #
coedge $-1 $254 $254 $255 $383 reversed $158 $-1 #
coedge $-1 $255 $255 $254 $383 forward $160 $-1 #
coedge $-1 $256 $256 $161 $257 forward $251 $-1 #
edge $-1 $384 3.5047710980055092e-016 $384 6.2831853071796004 $256 $385 forward 7 unknown #
face $-1 $386 $387 $53 $-1 $388 reversed single #
loop $-1 $-1 $389 $162 #
plane-surface $-1 31.289159342267645 -106.15635314475242 93.449014659191292 1 0 0 0 0.6560590369687036 -0.75470957328743171 forward_v I I I I #
coedge $-1 $390 $391 $392 $393 reversed $163 $-1 #
coedge $-1 $263 $165 $394 $395 reversed $104 $-1 #
coedge $-1 $165 $262 $390 $396 reversed $104 $-1 #
coedge $-1 $392 $397 $165 $265 forward $398 $-1 #
edge $-1 $399 21.967272812816699 $400 28.591774861804659 $264 $401 forward 7 unknown #
loop $-1 $-1 $271 $166 #
plane-surface $-1 40.315341648758313 -31.110903759559505 7.1191024239234935 0 -0.6560590369687036 0.75470957328743171 1 0 0 forward_v I I I I #
loop $-1 $-1 $402 $106 #
coedge $-1 $269 $269 $270 $403 reversed $167 $-1 #
coedge $-1 $270 $270 $269 $403 forward $169 $-1 #
coedge $-1 $271 $271 $170 $272 forward $266 $-1 #
edge $-1 $404 3.5047710980055092e-016 $404 6.2831853071796004 $271 $405 forward 7 unknown #
loop $-1 $-1 $278 $171 #
plane-surface $-1 40.315341648758313 -31.110903759559505 7.1191024239234935 0 -0.6560590369687036 0.75470957328743171 1 0 0 forward_v I I I I #
loop $-1 $-1 $406 $109 #
coedge $-1 $276 $276 $277 $407 reversed $172 $-1 #
coedge $-1 $277 $277 $276 $407 forward $174 $-1 #
coedge $-1 $278 $278 $175 $279 forward $273 $-1 #
edge $-1 $408 3.5047710980055092e-016 $408 6.2831853071796004 $278 $409 forward 7 unknown #
face $-1 $410 $411 $42 $-1 $412 reversed single #
loop $-1 $-1 $413 $176 #
plane-surface $-1 -57.19412823877682 0 0 1 0 0 0 0 -1 forward_v I I I I #
coedge $-1 $414 $291 $415 $416 forward $177 $-1 #
coedge $-1 $417 $179 $414 $418 forward $113 $-1 #
coedge $-1 $179 $417 $419 $420 forward $113 $-1 #
coedge $-1 $294 $293 $179 $287 reversed $295 $-1 #
edge $-1 $421 -31.110903759559509 $422 31.110903759559509 $286 $423 forward 7 unknown #
coedge $-1 $181 $180 $424 $425 forward $71 $-1 #
coedge $-1 $426 $427 $180 $290 reversed $411 $-1 #
edge $-1 $297 -57.19412823877682 $428 57.19412823877682 $289 $429 forward 7 unknown #
coedge $-1 $283 $430 $181 $292 reversed $177 $-1 #
edge $-1 $431 -57.19412823877682 $296 57.19412823877682 $291 $432 forward 7 unknown #
coedge $-1 $286 $182 $430 $433 forward $295 $-1 #
coedge $-1 $182 $286 $426 $434 reversed $295 $-1 #
loop $-1 $-1 $293 $410 #
vertex $-1 $183 $435 #
vertex $-1 $183 $436 #
straight-curve $-1 57.19412823877682 0 12.877694322692269 0 1 0 I I #
face $-1 $437 $311 $43 $-1 $438 reversed single #
loop $-1 $-1 $439 $184 #
plane-surface $-1 -67.962509130293768 -13.819565449448756 0 1 0 0 0 0 -1 forward_v I I I I #
coedge $-1 $440 $441 $442 $443 forward $185 $-1 #
coedge $-1 $444 $187 $440 $445 forward $117 $-1 #
coedge $-1 $187 $444 $309 $446 forward $117 $-1 #
edge $-1 $312 12.319565449448756 $447 15.319565449448756 $187 $448 forward 7 unknown #
coedge $-1 $189 $188 $449 $450 forward $74 $-1 #
coedge $-1 $451 $452 $188 $308 forward $453 $-1 #
edge $-1 $454 -15.319565449448756 $313 -12.319565449448756 $307 $455 forward 7 unknown #
coedge $-1 $456 $190 $304 $446 reversed $311 $-1 #
coedge $-1 $190 $456 $451 $457 reversed $311 $-1 #
loop $-1 $-1 $190 $299 #
vertex $-1 $305 $458 #
vertex $-1 $457 $459 #
straight-curve $-1 -57.19412823877682 -12.319565449448756 0 0 0 1 I I #
face $-1 $-1 $460 $44 $-1 $461 reversed single #
loop $-1 $-1 $198 $192 #
plane-surface $-1 0 0 12.877694322692269 0 0 1 1 0 0 forward_v I I I I #
coedge $-1 $462 $463 $464 $465 reversed $193 $-1 #
coedge $-1 $466 $195 $197 $325 forward $121 $-1 #
coedge $-1 $195 $466 $462 $467 forward $121 $-1 #
coedge $-1 $464 $198 $195 $322 forward $316 $-1 #
edge $-1 $328 9.6736002138939341 $468 27.72596482687527 $321 $469 forward 7 unknown #
coedge $-1 $470 $471 $196 $324 forward $460 $-1 #
edge $-1 $472 -39.605404905672152 $327 -33.846813006903375 $323 $473 forward 7 unknown #
edge $-1 $328 -8.7775513700354377 $472 4.429359460594495e-015 $197 $474 forward 7 unknown #
coedge $-1 $198 $464 $470 $475 forward $316 $-1 #
vertex $-1 $199 $476 #
vertex $-1 $199 $477 #
straight-curve $-1 -28.373382734278536 -53.078176572376208 12.877694322692271 0 1 0 I I #
coedge $-1 $330 $330 $-1 $478 reversed $202 $-1 #
edge $-1 $479 0 $479 6.2831853071796004 $203 $480 forward 7 unknown #
vertex $-1 $206 $481 #
ellipse-curve $-1 -41.267928886408058 -27.798652735065531 9.9983983733078787 0 -0.6560590369687036 0.75470957328743171 2 0 0 1 I I #
coedge $-1 $334 $334 $-1 $482 reversed $209 $-1 #
edge $-1 $483 0 $483 6.2831853071796004 $210 $484 forward 7 unknown #
vertex $-1 $213 $485 #
ellipse-curve $-1 -33.53120119513035 -27.798652735065531 9.9983983733078787 0 -0.6560590369687036 0.75470957328743171 2 0 0 1 I I #
face $-1 $-1 $350 $47 $-1 $486 forward single #
loop $-1 $-1 $487 $214 #
plane-surface $-1 0 -31.110903759559509 0 0 1 0 0 0 1 forward_v I I I I #
coedge $-1 $488 $489 $490 $491 reversed $215 $-1 #
coedge $-1 $492 $217 $219 $348 forward $135 $-1 #
coedge $-1 $217 $492 $488 $493 forward $135 $-1 #
coedge $-1 $490 $220 $217 $345 forward $350 $-1 #
edge $-1 $352 -3.2788842343606479 $494 14.773480378620686 $344 $495 forward 7 unknown #
coedge $-1 $496 $497 $218 $347 forward $339 $-1 #
edge $-1 $498 -39.605404905672152 $351 -33.846813006903375 $346 $499 forward 7 unknown #
edge $-1 $352 -8.7775513700354377 $498 4.429359460594495e-015 $219 $500 forward 7 unknown #
coedge $-1 $220 $490 $496 $501 forward $350 $-1 #
loop $-1 $-1 $490 $338 #
vertex $-1 $347 $502 #
vertex $-1 $221 $503 #
straight-curve $-1 -2.4684138377693703 -53.078176572376208 12.877694322692271 0 1 0 I I #
coedge $-1 $354 $354 $-1 $504 reversed $224 $-1 #
edge $-1 $505 0 $505 6.2831853071796004 $225 $506 forward 7 unknown #
vertex $-1 $228 $507 #
ellipse-curve $-1 -15.36295998989889 -27.798652735065531 9.9983983733078787 0 -0.6560590369687036 0.75470957328743171 2 0 0 1 I I #
coedge $-1 $358 $358 $-1 $508 reversed $231 $-1 #
edge $-1 $509 0 $509 6.2831853071796004 $232 $510 forward 7 unknown #
vertex $-1 $235 $511 #
ellipse-curve $-1 -7.6262322986211757 -27.798652735065531 9.9983983733078787 0 -0.6560590369687036 0.75470957328743171 2 0 0 1 I I #
face $-1 $-1 $374 $50 $-1 $512 forward single #
loop $-1 $-1 $513 $236 #
plane-surface $-1 0 -31.110903759559509 0 0 1 0 0 0 1 forward_v I I I I #
coedge $-1 $514 $515 $516 $517 reversed $237 $-1 #
coedge $-1 $518 $239 $241 $372 forward $149 $-1 #
coedge $-1 $239 $518 $514 $519 forward $149 $-1 #
coedge $-1 $516 $242 $239 $369 forward $374 $-1 #
edge $-1 $376 -16.231368682615237 $520 1.820995930366097 $368 $521 forward 7 unknown #
coedge $-1 $522 $523 $240 $371 forward $363 $-1 #
edge $-1 $524 -39.605404905672152 $375 -33.846813006903375 $370 $525 forward 7 unknown #
edge $-1 $376 -8.7775513700354377 $524 4.429359460594495e-015 $241 $526 forward 7 unknown #
coedge $-1 $242 $516 $522 $527 forward $374 $-1 #
loop $-1 $-1 $516 $362 #
vertex $-1 $371 $528 #
vertex $-1 $243 $529 #
straight-curve $-1 23.436555058739806 -53.078176572376208 12.877694322692271 0 1 0 I I #
coedge $-1 $378 $378 $-1 $530 reversed $246 $-1 #
edge $-1 $531 0 $531 6.2831853071796004 $247 $532 forward 7 unknown #
vertex $-1 $250 $533 #
ellipse-curve $-1 10.542008906610285 -27.798652735065531 9.9983983733078787 0 -0.6560590369687036 0.75470957328743171 2 0 0 1 I I #
coedge $-1 $382 $382 $-1 $534 reversed $253 $-1 #
edge $-1 $535 0 $535 6.2831853071796004 $254 $536 forward 7 unknown #
vertex $-1 $257 $537 #
ellipse-curve $-1 18.278736597887992 -27.798652735065531 9.9983983733078787 0 -0.6560590369687036 0.75470957328743171 2 0 0 1 I I #
face $-1 $-1 $398 $53 $-1 $538 forward single #
loop $-1 $-1 $539 $258 #
plane-surface $-1 0 -31.110903759559509 0 0 1 0 0 0 1 forward_v I I I I #
coedge $-1 $540 $541 $542 $543 reversed $259 $-1 #
coedge $-1 $544 $261 $263 $396 forward $163 $-1 #
coedge $-1 $261 $544 $540 $545 forward $163 $-1 #
coedge $-1 $542 $264 $261 $393 forward $398 $-1 #
edge $-1 $400 -29.183853130869824 $546 -11.131488517888489 $392 $547 forward 7 unknown #
coedge $-1 $548 $549 $262 $395 forward $387 $-1 #
edge $-1 $550 -39.605404905672152 $399 -33.846813006903375 $394 $551 forward 7 unknown #
edge $-1 $400 -8.7775513700354377 $550 4.429359460594495e-015 $263 $552 forward 7 unknown #
coedge $-1 $264 $542 $548 $553 forward $398 $-1 #
loop $-1 $-1 $542 $386 #
vertex $-1 $395 $554 #
vertex $-1 $265 $555 #
straight-curve $-1 49.341523955248981 -53.078176572376208 12.877694322692271 0 1 0 I I #
coedge $-1 $402 $402 $-1 $556 reversed $268 $-1 #
edge $-1 $557 0 $557 6.2831853071796004 $269 $558 forward 7 unknown #
vertex $-1 $272 $559 #
ellipse-curve $-1 36.446977803119459 -27.798652735065531 9.9983983733078787 0 -0.6560590369687036 0.75470957328743171 2 0 0 1 I I #
coedge $-1 $406 $406 $-1 $560 reversed $275 $-1 #
edge $-1 $561 0 $561 6.2831853071796004 $276 $562 forward 7 unknown #
vertex $-1 $279 $563 #
ellipse-curve $-1 44.183705494397167 -27.798652735065531 9.9983983733078787 0 -0.6560590369687036 0.75470957328743171 2 0 0 1 I I #
face $-1 $-1 $295 $42 $-1 $564 reversed single #
loop $-1 $-1 $426 $280 #
plane-surface $-1 0 31.110903759559509 0 0 -1 0 0 0 -1 forward_v I I I I #
coedge $-1 $565 $424 $427 $566 forward $281 $-1 #
coedge $-1 $430 $283 $284 $418 reversed $177 $-1 #
coedge $-1 $424 $565 $283 $416 reversed $281 $-1 #
edge $-1 $431 -12.877694322692269 $567 12.877694322692269 $415 $568 forward 7 unknown #
coedge $-1 $285 $284 $565 $569 forward $113 $-1 #
edge $-1 $422 -57.19412823877682 $567 57.19412823877682 $414 $570 forward 7 unknown #
coedge $-1 $427 $426 $285 $420 reversed $411 $-1 #
edge $-1 $571 -57.19412823877682 $421 57.19412823877682 $419 $572 forward 7 unknown #
vertex $-1 $287 $573 #
vertex $-1 $433 $574 #
straight-curve $-1 57.19412823877682 0 -12.877694322692269 0 -1 0 I I #
coedge $-1 $413 $415 $288 $425 reversed $281 $-1 #
edge $-1 $428 -31.110903759559509 $431 31.110903759559509 $424 $575 forward 7 unknown #
coedge $-1 $419 $289 $294 $434 forward $411 $-1 #
coedge $-1 $289 $419 $413 $566 reversed $411 $-1 #
vertex $-1 $290 $576 #
straight-curve $-1 0 31.110903759559509 12.877694322692269 -1 0 0 I I #
coedge $-1 $291 $414 $293 $433 reversed $177 $-1 #
vertex $-1 $425 $577 #
straight-curve $-1 0 -31.110903759559509 12.877694322692269 1 0 0 I I #
edge $-1 $296 -12.877694322692269 $422 12.877694322692269 $293 $578 forward 7 unknown #
edge $-1 $297 -12.877694322692269 $421 12.877694322692269 $294 $579 forward 7 unknown #
point $-1 57.19412823877682 -31.110903759559509 12.877694322692269 #
point $-1 57.19412823877682 31.110903759559509 12.877694322692269 #
face $-1 $-1 $453 $43 $-1 $580 forward single #
plane-surface $-1 -62.578318684535297 -12.319565449448756 0 0 -1 0 0 0 -1 forward_v I I I I #
coedge $-1 $581 $582 $456 $583 forward $300 $-1 #
coedge $-1 $449 $302 $303 $445 reversed $185 $-1 #
coedge $-1 $302 $449 $452 $584 reversed $185 $-1 #
coedge $-1 $582 $581 $302 $443 reversed $300 $-1 #
edge $-1 $585 -12.877694322692269 $586 12.877694322692269 $442 $587 forward 7 unknown #
coedge $-1 $304 $303 $581 $588 forward $117 $-1 #
edge $-1 $447 -5.3841904457584775 $586 5.3841904457584704 $440 $589 forward 7 unknown #
edge $-1 $590 -5.3841904457584704 $312 5.3841904457584775 $309 $591 forward 7 unknown #
vertex $-1 $445 $592 #
straight-curve $-1 -57.19412823877682 0 -12.877694322692269 0 -1 0 I I #
coedge $-1 $441 $440 $306 $450 reversed $185 $-1 #
edge $-1 $454 -12.877694322692269 $447 12.877694322692269 $449 $593 forward 7 unknown #
coedge $-1 $594 $307 $310 $457 forward $453 $-1 #
coedge $-1 $307 $594 $441 $584 forward $453 $-1 #
loop $-1 $-1 $307 $437 #
vertex $-1 $308 $595 #
straight-curve $-1 -57.19412823877682 0 12.877694322692269 0 1 0 I I #
coedge $-1 $310 $309 $439 $583 reversed $311 $-1 #
edge $-1 $313 -5.3841904457584775 $596 5.3841904457584704 $310 $597 forward 7 unknown #
point $-1 -57.19412823877682 -12.319565449448756 -12.877694322692269 #
point $-1 -57.19412823877682 -12.319565449448756 12.877694322692269 #
loop $-1 $-1 $323 $315 #
plane-surface $-1 0 -31.110903759559509 0 0 1 0 0 0 1 forward_v I I I I #
coedge $-1 $463 $318 $320 $467 reversed $193 $-1 #
coedge $-1 $318 $462 $598 $599 reversed $193 $-1 #
coedge $-1 $326 $321 $318 $465 forward $316 $-1 #
edge $-1 $468 -28.591774861804659 $600 -21.967272812816699 $464 $601 forward 7 unknown #
coedge $-1 $320 $319 $471 $602 reversed $121 $-1 #
edge $-1 $603 -4.429359460594495e-015 $468 8.7775513700354377 $462 $604 forward 7 unknown #
vertex $-1 $322 $605 #
straight-curve $-1 -18.699782520384602 -24.486401710571553 12.877694322692269 -1 0 0 I I #
coedge $-1 $598 $323 $326 $475 reversed $460 $-1 #
coedge $-1 $323 $598 $466 $602 forward $460 $-1 #
vertex $-1 $324 $606 #
straight-curve $-1 -28.373382734278536 -31.110903759559505 46.724507329595646 0 0 1 I I #
straight-curve $-1 -28.373382734278536 -31.110903759559505 7.1191024239234935 0 -0.75470957328743171 -0.6560590369687036 I I #
edge $-1 $600 -46.425747347259872 $327 -28.373382734278536 $470 $607 forward 7 unknown #
point $-1 -28.373382734278536 -31.110903759559509 12.877694322692269 #
point $-1 -28.373382734278536 -24.486401710571549 12.877694322692268 #
edge $-1 $608 1 $608 0 $330 $-1 forward 7 unknown #
vertex $-1 $331 $609 #
ellipse-curve $-1 -41.267928886408058 -22.936644001179047 4.4052972496261145 0 -0.6560590369687036 0.75470957328743171 2 0 0 1 I I #
point $-1 -39.267928886408058 -27.798652735065524 9.9983983733078716 #
edge $-1 $610 1 $610 0 $334 $-1 forward 7 unknown #
vertex $-1 $335 $611 #
ellipse-curve $-1 -33.53120119513035 -22.936644001179047 4.4052972496261145 0 -0.6560590369687036 0.75470957328743171 2 0 0 1 I I #
point $-1 -31.53120119513035 -27.798652735065524 9.9983983733078716 #
plane-surface $-1 0 0 12.877694322692269 0 0 1 1 0 0 forward_v I I I I #
coedge $-1 $497 $496 $489 $612 forward $339 $-1 #
coedge $-1 $489 $341 $343 $493 reversed $215 $-1 #
coedge $-1 $341 $488 $487 $612 reversed $215 $-1 #
coedge $-1 $349 $344 $341 $491 forward $350 $-1 #
edge $-1 $494 -28.591774861804659 $613 -21.967272812816699 $490 $614 forward 7 unknown #
coedge $-1 $343 $342 $497 $615 reversed $135 $-1 #
edge $-1 $616 -4.429359460594495e-015 $494 8.7775513700354377 $488 $617 forward 7 unknown #
vertex $-1 $345 $618 #
straight-curve $-1 -5.7472980721300182 -24.486401710571553 12.877694322692269 -1 0 0 I I #
coedge $-1 $487 $346 $349 $501 reversed $339 $-1 #
coedge $-1 $346 $487 $492 $615 forward $339 $-1 #
vertex $-1 $347 $619 #
straight-curve $-1 -2.4684138377693703 -31.110903759559505 46.724507329595646 0 0 1 I I #
straight-curve $-1 -2.4684138377693703 -31.110903759559505 7.1191024239234935 0 -0.75470957328743171 -0.6560590369687036 I I #
edge $-1 $613 -20.520778450750704 $351 -2.4684138377693703 $496 $620 forward 7 unknown #
point $-1 -2.4684138377693703 -31.110903759559509 12.877694322692269 #
point $-1 -2.4684138377693703 -24.486401710571549 12.877694322692268 #
edge $-1 $621 1 $621 0 $354 $-1 forward 7 unknown #
vertex $-1 $355 $622 #
ellipse-curve $-1 -15.36295998989889 -22.936644001179047 4.4052972496261145 0 -0.6560590369687036 0.75470957328743171 2 0 0 1 I I #
point $-1 -13.36295998989889 -27.798652735065524 9.9983983733078716 #
edge $-1 $623 1 $623 0 $358 $-1 forward 7 unknown #
vertex $-1 $359 $624 #
ellipse-curve $-1 -7.6262322986211757 -22.936644001179047 4.4052972496261145 0 -0.6560590369687036 0.75470957328743171 2 0 0 1 I I #
point $-1 -5.6262322986211757 -27.798652735065524 9.9983983733078716 #
plane-surface $-1 0 0 12.877694322692269 0 0 1 1 0 0 forward_v I I I I #
coedge $-1 $523 $522 $515 $625 forward $363 $-1 #
coedge $-1 $515 $365 $367 $519 reversed $237 $-1 #
coedge $-1 $365 $514 $513 $625 reversed $237 $-1 #
coedge $-1 $373 $368 $365 $517 forward $374 $-1 #
edge $-1 $520 -28.591774861804659 $626 -21.967272812816699 $516 $627 forward 7 unknown #
coedge $-1 $367 $366 $523 $628 reversed $149 $-1 #
edge $-1 $629 -4.429359460594495e-015 $520 8.7775513700354377 $514 $630 forward 7 unknown #
vertex $-1 $369 $631 #
straight-curve $-1 7.2051863761245691 -24.486401710571553 12.877694322692269 -1 0 0 I I #
coedge $-1 $513 $370 $373 $527 reversed $363 $-1 #
coedge $-1 $370 $513 $518 $628 forward $363 $-1 #
vertex $-1 $371 $632 #
straight-curve $-1 23.436555058739806 -31.110903759559505 46.724507329595646 0 0 1 I I #
straight-curve $-1 23.436555058739806 -31.110903759559505 7.1191024239234935 0 -0.75470957328743171 -0.6560590369687036 I I #
edge $-1 $626 5.3841904457584722 $375 23.436555058739806 $522 $633 forward 7 unknown #
point $-1 23.436555058739806 -31.110903759559509 12.877694322692269 #
point $-1 23.436555058739806 -24.486401710571549 12.877694322692268 #
edge $-1 $634 1 $634 0 $378 $-1 forward 7 unknown #
vertex $-1 $379 $635 #
ellipse-curve $-1 10.542008906610285 -22.936644001179047 4.4052972496261145 0 -0.6560590369687036 0.75470957328743171 2 0 0 1 I I #
point $-1 12.542008906610285 -27.798652735065524 9.9983983733078716 #
edge $-1 $636 1 $636 0 $382 $-1 forward 7 unknown #
vertex $-1 $383 $637 #
ellipse-curve $-1 18.278736597887992 -22.936644001179047 4.4052972496261145 0 -0.6560590369687036 0.75470957328743171 2 0 0 1 I I #
point $-1 20.278736597887992 -27.798652735065524 9.9983983733078716 #
plane-surface $-1 0 0 12.877694322692269 0 0 1 1 0 0 forward_v I I I I #
coedge $-1 $549 $548 $541 $638 forward $387 $-1 #
coedge $-1 $541 $389 $391 $545 reversed $259 $-1 #
coedge $-1 $389 $540 $539 $638 reversed $259 $-1 #
coedge $-1 $397 $392 $389 $543 forward $398 $-1 #
edge $-1 $546 -28.591774861804659 $639 -21.967272812816699 $542 $640 forward 7 unknown #
coedge $-1 $391 $390 $549 $641 reversed $163 $-1 #
edge $-1 $642 -4.429359460594495e-015 $546 8.7775513700354377 $540 $643 forward 7 unknown #
vertex $-1 $393 $644 #
straight-curve $-1 20.157670824379156 -24.486401710571553 12.877694322692269 -1 0 0 I I #
coedge $-1 $539 $394 $397 $553 reversed $387 $-1 #
coedge $-1 $394 $539 $544 $641 forward $387 $-1 #
vertex $-1 $395 $645 #
straight-curve $-1 49.341523955248981 -31.110903759559505 46.724507329595646 0 0 1 I I #
straight-curve $-1 49.341523955248981 -31.110903759559505 7.1191024239234935 0 -0.75470957328743171 -0.6560590369687036 I I #
edge $-1 $639 31.289159342267645 $399 49.341523955248981 $548 $646 forward 7 unknown #
point $-1 49.341523955248981 -31.110903759559509 12.877694322692269 #
point $-1 49.341523955248981 -24.486401710571549 12.877694322692268 #
edge $-1 $647 1 $647 0 $402 $-1 forward 7 unknown #
vertex $-1 $403 $648 #
ellipse-curve $-1 36.446977803119459 -22.936644001179047 4.4052972496261145 0 -0.6560590369687036 0.75470957328743171 2 0 0 1 I I #
point $-1 38.446977803119459 -27.798652735065524 9.9983983733078716 #
edge $-1 $649 1 $649 0 $406 $-1 forward 7 unknown #
vertex $-1 $407 $650 #
ellipse-curve $-1 44.183705494397167 -22.936644001179047 4.4052972496261145 0 -0.6560590369687036 0.75470957328743171 2 0 0 1 I I #
point $-1 46.183705494397167 -27.798652735065524 9.9983983733078716 #
plane-surface $-1 57.19412823877682 0 0 -1 0 0 0 0 1 forward_v I I I I #
coedge $-1 $415 $413 $417 $569 reversed $281 $-1 #
edge $-1 $428 -12.877694322692269 $571 12.877694322692269 $427 $651 forward 7 unknown #
vertex $-1 $569 $652 #
straight-curve $-1 -57.19412823877682 -31.110903759559509 0 0 0 -1 I I #
edge $-1 $567 -31.110903759559509 $571 31.110903759559509 $565 $653 forward 7 unknown #
straight-curve $-1 0 -31.110903759559509 -12.877694322692269 -1 0 0 I I #
vertex $-1 $420 $654 #
straight-curve $-1 0 31.110903759559509 -12.877694322692269 1 0 0 I I #
point $-1 57.19412823877682 31.110903759559509 -12.877694322692269 #
point $-1 57.19412823877682 -31.110903759559509 -12.877694322692269 #
straight-curve $-1 -57.19412823877682 0 12.877694322692269 0 -1 0 I I #
point $-1 -57.19412823877682 31.110903759559509 12.877694322692269 #
point $-1 -57.19412823877682 -31.110903759559509 12.877694322692269 #
straight-curve $-1 57.19412823877682 -31.110903759559509 0 0 0 -1 I I #
straight-curve $-1 57.19412823877682 31.110903759559509 0 0 0 -1 I I #
plane-surface $-1 0 0 12.877694322692269 0 0 1 1 0 0 forward_v I I I I #
coedge $-1 $442 $439 $444 $588 reversed $300 $-1 #
coedge $-1 $439 $442 $594 $655 reversed $300 $-1 #
edge $-1 $596 -12.877694322692269 $590 12.877694322692269 $456 $656 forward 7 unknown #
edge $-1 $585 -5.3841904457584704 $454 5.3841904457584775 $441 $657 forward 7 unknown #
vertex $-1 $655 $658 #
vertex $-1 $588 $659 #
straight-curve $-1 -67.962509130293768 -15.319565449448756 0 0 0 -1 I I #
edge $-1 $586 -1.5 $590 1.5 $581 $660 forward 7 unknown #
straight-curve $-1 -62.578318684535297 -15.319565449448756 -12.877694322692269 -1 0 0 I I #
vertex $-1 $446 $661 #
straight-curve $-1 -62.578318684535297 -12.319565449448756 -12.877694322692269 1 0 0 I I #
point $-1 -57.19412823877682 -15.319565449448756 -12.877694322692269 #
straight-curve $-1 -57.19412823877682 -15.319565449448756 0 0 0 -1 I I #
coedge $-1 $452 $451 $582 $655 forward $453 $-1 #
point $-1 -57.19412823877682 -15.319565449448756 12.877694322692269 #
vertex $-1 $457 $662 #
straight-curve $-1 -62.578318684535297 -12.319565449448756 12.877694322692269 -1 0 0 I I #
coedge $-1 $471 $470 $463 $599 forward $460 $-1 #
edge $-1 $600 33.846813006903375 $603 39.605404905672152 $598 $663 forward 7 unknown #
vertex $-1 $475 $664 #
straight-curve $-1 -46.425747347259872 -53.078176572376208 12.877694322692271 0 -1 0 I I #
edge $-1 $603 -27.72596482687527 $472 -9.6736002138939341 $471 $665 forward 7 unknown #
vertex $-1 $602 $666 #
straight-curve $-1 -46.425747347259872 -31.110903759559505 7.1191024239234935 0 0.75470957328743171 0.6560590369687036 I I #
point $-1 -46.425747347259872 -24.486401710571549 12.877694322692268 #
point $-1 -28.373382734278536 -31.110903759559509 7.1191024239234908 #
straight-curve $-1 0 -31.110903759559509 12.877694322692269 1 0 0 I I #
vertex $-1 $478 $667 #
point $-1 -39.267928886408058 -22.936644001179047 4.4052972496261145 #
vertex $-1 $482 $668 #
point $-1 -31.53120119513035 -22.936644001179047 4.4052972496261145 #
edge $-1 $613 33.846813006903375 $616 39.605404905672152 $487 $669 forward 7 unknown #
vertex $-1 $501 $670 #
straight-curve $-1 -20.520778450750704 -53.078176572376208 12.877694322692271 0 -1 0 I I #
edge $-1 $616 -14.773480378620686 $498 3.2788842343606479 $497 $671 forward 7 unknown #
vertex $-1 $615 $672 #
straight-curve $-1 -20.520778450750704 -31.110903759559505 7.1191024239234935 0 0.75470957328743171 0.6560590369687036 I I #
point $-1 -20.520778450750704 -24.486401710571549 12.877694322692268 #
point $-1 -2.4684138377693703 -31.110903759559509 7.1191024239234908 #
straight-curve $-1 0 -31.110903759559509 12.877694322692269 1 0 0 I I #
vertex $-1 $504 $673 #
point $-1 -13.36295998989889 -22.936644001179047 4.4052972496261145 #
vertex $-1 $508 $674 #
point $-1 -5.6262322986211757 -22.936644001179047 4.4052972496261145 #
edge $-1 $626 33.846813006903375 $629 39.605404905672152 $513 $675 forward 7 unknown #
vertex $-1 $527 $676 #
straight-curve $-1 5.3841904457584722 -53.078176572376208 12.877694322692271 0 -1 0 I I #
edge $-1 $629 -1.820995930366097 $524 16.231368682615237 $523 $677 forward 7 unknown #
vertex $-1 $628 $678 #
straight-curve $-1 5.3841904457584722 -31.110903759559505 7.1191024239234935 0 0.75470957328743171 0.6560590369687036 I I #
point $-1 5.3841904457584722 -24.486401710571549 12.877694322692268 #
point $-1 23.436555058739806 -31.110903759559509 7.1191024239234908 #
straight-curve $-1 0 -31.110903759559509 12.877694322692269 1 0 0 I I #
vertex $-1 $530 $679 #
point $-1 12.542008906610285 -22.936644001179047 4.4052972496261145 #
vertex $-1 $534 $680 #
point $-1 20.278736597887992 -22.936644001179047 4.4052972496261145 #
edge $-1 $639 33.846813006903375 $642 39.605404905672152 $539 $681 forward 7 unknown #
vertex $-1 $553 $682 #
straight-curve $-1 31.289159342267645 -53.078176572376208 12.877694322692271 0 -1 0 I I #
edge $-1 $642 11.131488517888489 $550 29.183853130869824 $549 $683 forward 7 unknown #
vertex $-1 $641 $684 #
straight-curve $-1 31.289159342267645 -31.110903759559505 7.1191024239234935 0 0.75470957328743171 0.6560590369687036 I I #
point $-1 31.289159342267645 -24.486401710571549 12.877694322692268 #
point $-1 49.341523955248981 -31.110903759559509 7.1191024239234908 #
straight-curve $-1 0 -31.110903759559509 12.877694322692269 1 0 0 I I #
vertex $-1 $556 $685 #
point $-1 38.446977803119459 -22.936644001179047 4.4052972496261145 #
vertex $-1 $560 $686 #
point $-1 46.183705494397167 -22.936644001179047 4.4052972496261145 #
straight-curve $-1 -57.19412823877682 31.110903759559509 0 0 0 -1 I I #
point $-1 -57.19412823877682 -31.110903759559509 -12.877694322692269 #
straight-curve $-1 -57.19412823877682 0 -12.877694322692269 0 1 0 I I #
point $-1 -57.19412823877682 31.110903759559509 -12.877694322692269 #
edge $-1 $596 -1.5 $585 1.5 $582 $687 forward 7 unknown #
straight-curve $-1 -67.962509130293768 -12.319565449448756 0 0 0 -1 I I #
straight-curve $-1 -62.578318684535297 -15.319565449448756 12.877694322692269 1 0 0 I I #
point $-1 -67.962509130293768 -15.319565449448756 12.877694322692269 #
point $-1 -67.962509130293768 -15.319565449448756 -12.877694322692269 #
straight-curve $-1 -67.962509130293768 -13.819565449448756 -12.877694322692269 0 1 0 I I #
point $-1 -67.962509130293768 -12.319565449448756 -12.877694322692269 #
point $-1 -67.962509130293768 -12.319565449448756 12.877694322692269 #
straight-curve $-1 -46.425747347259872 -31.110903759559505 46.724507329595646 0 0 -1 I I #
point $-1 -46.425747347259872 -31.110903759559509 12.877694322692269 #
straight-curve $-1 -18.699782520384602 -31.110903759559509 7.1191024239234908 1 0 0 I I #
point $-1 -46.425747347259872 -31.110903759559509 7.1191024239234908 #
point $-1 -41.267928886408058 -21.624525927241642 2.8958781030512508 #
point $-1 -33.53120119513035 -21.624525927241642 2.8958781030512508 #
straight-curve $-1 -20.520778450750704 -31.110903759559505 46.724507329595646 0 0 -1 I I #
point $-1 -20.520778450750704 -31.110903759559509 12.877694322692269 #
straight-curve $-1 -5.7472980721300182 -31.110903759559509 7.1191024239234908 1 0 0 I I #
point $-1 -20.520778450750704 -31.110903759559509 7.1191024239234908 #
point $-1 -15.36295998989889 -21.624525927241642 2.8958781030512508 #
point $-1 -7.6262322986211757 -21.624525927241642 2.8958781030512508 #
straight-curve $-1 5.3841904457584722 -31.110903759559505 46.724507329595646 0 0 -1 I I #
point $-1 5.3841904457584722 -31.110903759559509 12.877694322692269 #
straight-curve $-1 7.2051863761245691 -31.110903759559509 7.1191024239234908 1 0 0 I I #
point $-1 5.3841904457584722 -31.110903759559509 7.1191024239234908 #
point $-1 10.542008906610285 -21.624525927241642 2.8958781030512508 #
point $-1 18.278736597887992 -21.624525927241642 2.8958781030512508 #
straight-curve $-1 31.289159342267645 -31.110903759559505 46.724507329595646 0 0 -1 I I #
point $-1 31.289159342267645 -31.110903759559509 12.877694322692269 #
straight-curve $-1 20.157670824379156 -31.110903759559509 7.1191024239234908 1 0 0 I I #
point $-1 31.289159342267645 -31.110903759559509 7.1191024239234908 #
point $-1 36.446977803119459 -21.624525927241642 2.8958781030512508 #
point $-1 44.183705494397167 -21.624525927241642 2.8958781030512508 #
straight-curve $-1 -67.962509130293768 -13.819565449448756 12.877694322692269 0 -1 0 I I #
End-of-ACIS-data 