500 0 8 0           
7 Unknown 11 ACIS 5.0 NT 24 Fri Mar 26 18:26:39 1999 
-1 9.9999999999999995e-007 1e-010 
body $-1 $8 $-1 $9 #
body $-1 $10 $-1 $11 #
body $-1 $12 $-1 $13 #
body $-1 $14 $-1 $15 #
body $-1 $16 $-1 $17 #
body $-1 $18 $-1 $19 #
body $-1 $20 $-1 $21 #
body $-1 $22 $-1 $23 #
lump $-1 $-1 $24 $0 #
transform $-1 1 0 0 0 1 0 0 0 1 52.781151768547623 32.404344371248378 8.2541233648068069 1 rotate no_reflect no_shear #
lump $-1 $-1 $25 $1 #
transform $-1 1 0 0 0 1 0 0 0 1 52.781151768547623 32.404344371248378 8.2541233648068069 1 rotate no_reflect no_shear #
lump $-1 $-1 $26 $2 #
transform $-1 1 0 0 0 1 0 0 0 1 52.781151768547623 32.404344371248378 8.2541233648068069 1 rotate no_reflect no_shear #
lump $-1 $-1 $27 $3 #
transform $-1 1 0 0 0 1 0 0 0 1 52.781151768547623 32.404344371248378 8.2541233648068069 1 rotate no_reflect no_shear #
lump $-1 $-1 $28 $4 #
transform $-1 1 0 0 0 1 0 0 0 1 52.781151768547623 32.404344371248378 8.2541233648068069 1 rotate no_reflect no_shear #
lump $-1 $-1 $29 $5 #
transform $-1 1 0 0 0 1 0 0 0 1 52.781151768547623 32.404344371248378 8.2541233648068069 1 rotate no_reflect no_shear #
lump $-1 $-1 $30 $6 #
transform $-1 1 0 0 0 1 0 0 0 1 52.781151768547623 32.404344371248378 8.2541233648068069 1 rotate no_reflect no_shear #
lump $-1 $-1 $31 $7 #
transform $-1 1 0 0 0 1 0 0 0 1 52.781151768547623 32.404344371248378 8.2541233648068069 1 rotate no_reflect no_shear #
shell $-1 $-1 $-1 $32 $-1 $8 #
shell $-1 $-1 $-1 $33 $-1 $10 #
shell $-1 $-1 $-1 $34 $-1 $12 #
shell $-1 $-1 $-1 $35 $-1 $14 #
shell $-1 $-1 $-1 $36 $-1 $16 #
shell $-1 $-1 $-1 $37 $-1 $18 #
shell $-1 $-1 $-1 $38 $-1 $20 #
shell $-1 $-1 $-1 $39 $-1 $22 #
face $-1 $40 $41 $24 $-1 $42 forward single #
face $-1 $43 $44 $25 $-1 $45 reversed single #
face $-1 $46 $47 $26 $-1 $48 reversed single #
face $-1 $49 $50 $27 $-1 $51 forward single #
face $-1 $52 $53 $28 $-1 $54 forward single #
face $-1 $55 $56 $29 $-1 $57 reversed single #
face $-1 $58 $59 $30 $-1 $60 forward single #
face $-1 $61 $62 $31 $-1 $63 forward single #
face $-1 $64 $65 $24 $-1 $66 reversed single #
loop $-1 $-1 $67 $32 #
plane-surface $-1 0 0 8.2541233648068069 0 0 1 1 0 0 forward_v I I I I #
face $-1 $68 $69 $25 $-1 $70 reversed single #
loop $-1 $-1 $71 $33 #
plane-surface $-1 -48.03212260738988 0 5.0175155134607348 0 0 1 1 0 0 forward_v I I I I #
face $-1 $72 $73 $26 $-1 $74 reversed single #
loop $-1 $-1 $75 $34 #
plane-surface $-1 19.198740649325977 0 148.79263902329208 0 -1 0 -0.52991927123019833 0 -0.84804809178421925 forward_v I I I I #
face $-1 $76 $77 $27 $-1 $78 forward single #
loop $-1 $79 $80 $35 #
cone-surface $-1 48.470381279451104 -4.8661119746926502 5.1979404728564642 -0.52991927123019833 0 -0.84804809178421925 0.42402404589210962 0 -0.26495963561509916 1 I I 0 1 0.5 forward I I I I #
face $-1 $81 $82 $28 $-1 $83 forward single #
loop $-1 $84 $85 $36 #
cone-surface $-1 48.470381279451104 -1.9464447898770594 5.1979404728564642 -0.52991927123019833 0 -0.84804809178421925 0.42402404589210962 0 -0.26495963561509916 1 I I 0 1 0.5 forward I I I I #
face $-1 $86 $87 $29 $-1 $88 reversed single #
loop $-1 $-1 $89 $37 #
plane-surface $-1 19.198740649325977 25.591787606678668 148.79263902329208 0 1 0 0.52991927123019833 0 0.84804809178421925 forward_v I I I I #
face $-1 $90 $91 $30 $-1 $92 forward single #
loop $-1 $93 $94 $38 #
cone-surface $-1 48.470381279451104 27.538232396555728 5.1979404728564642 -0.52991927123019833 0 -0.84804809178421925 0.42402404589210962 0 -0.26495963561509916 1 I I 0 1 0.5 forward I I I I #
face $-1 $95 $96 $31 $-1 $97 forward single #
loop $-1 $98 $99 $39 #
cone-surface $-1 48.470381279451104 30.457899581371315 5.1979404728564642 -0.52991927123019833 0 -0.84804809178421925 0.42402404589210962 0 -0.26495963561509916 1 I I 0 1 0.5 forward I I I I #
face $-1 $100 $101 $24 $-1 $102 reversed single #
loop $-1 $-1 $103 $40 #
plane-surface $-1 0 0 -8.2541233648068069 0 0 1 1 0 0 forward_v I I I I #
coedge $-1 $104 $105 $106 $107 forward $41 $-1 #
face $-1 $108 $109 $25 $-1 $110 reversed single #
loop $-1 $-1 $111 $43 #
plane-surface $-1 -43.283093446232137 0 6.6358194391337708 -1 0 0 0 0 1 forward_v I I I I #
coedge $-1 $112 $113 $114 $115 forward $44 $-1 #
face $-1 $116 $117 $26 $-1 $118 reversed single #
loop $-1 $-1 $119 $46 #
plane-surface $-1 -36.740758310432525 -3.4062783822848566 59.270728944311927 0.52991927123019833 0 0.84804809178421925 0.84804809178421925 0 -0.52991927123019833 forward_v I I I I #
coedge $-1 $120 $121 $122 $123 reversed $47 $-1 #
face $-1 $-1 $124 $27 $-1 $125 forward single #
loop $-1 $126 $127 $49 #
cone-surface $-1 47.966269029830009 -4.8661119746926502 4.391192248086762 -0.52991927123019833 0 -0.84804809178421925 0.21201202294605481 0 -0.13247981780754958 1 I I -0.70710678118654746 0.70710678118654746 0.25 forward I I I I #
loop $-1 $-1 $128 $35 #
coedge $-1 $80 $80 $129 $130 reversed $50 $-1 #
face $-1 $-1 $131 $28 $-1 $132 forward single #
loop $-1 $133 $134 $52 #
cone-surface $-1 47.966269029830009 -1.9464447898770594 4.391192248086762 -0.52991927123019833 0 -0.84804809178421925 0.21201202294605481 0 -0.13247981780754958 1 I I -0.70710678118654746 0.70710678118654746 0.25 forward I I I I #
loop $-1 $-1 $135 $36 #
coedge $-1 $85 $85 $136 $137 reversed $53 $-1 #
face $-1 $138 $139 $29 $-1 $140 reversed single #
loop $-1 $-1 $141 $55 #
plane-surface $-1 -36.740758310432525 28.998065988963525 59.270728944311927 0.52991927123019833 0 0.84804809178421925 0.84804809178421925 0 -0.52991927123019833 forward_v I I I I #
coedge $-1 $142 $143 $144 $145 reversed $56 $-1 #
face $-1 $-1 $146 $30 $-1 $147 forward single #
loop $-1 $148 $149 $58 #
cone-surface $-1 47.966269029830009 27.538232396555728 4.391192248086762 -0.52991927123019833 0 -0.84804809178421925 0.21201202294605481 0 -0.13247981780754958 1 I I -0.70710678118654746 0.70710678118654746 0.25 forward I I I I #
loop $-1 $-1 $150 $38 #
coedge $-1 $94 $94 $151 $152 reversed $59 $-1 #
face $-1 $-1 $153 $31 $-1 $154 forward single #
loop $-1 $155 $156 $61 #
cone-surface $-1 47.966269029830009 30.457899581371315 4.391192248086762 -0.52991927123019833 0 -0.84804809178421925 0.21201202294605481 0 -0.13247981780754958 1 I I -0.70710678118654746 0.70710678118654746 0.25 forward I I I I #
loop $-1 $-1 $157 $39 #
coedge $-1 $99 $99 $158 $159 reversed $62 $-1 #
face $-1 $160 $161 $24 $-1 $162 reversed single #
loop $-1 $-1 $163 $64 #
plane-surface $-1 0 -32.404344371248378 0 0 1 0 0 0 1 forward_v I I I I #
coedge $-1 $164 $165 $166 $167 forward $65 $-1 #
coedge $-1 $168 $67 $169 $170 forward $41 $-1 #
coedge $-1 $67 $168 $171 $172 forward $41 $-1 #
coedge $-1 $173 $174 $67 $107 reversed $175 $-1 #
edge $-1 $176 -32.404344371248378 $177 32.404344371248378 $106 $178 forward 7 unknown #
face $-1 $179 $180 $25 $-1 $181 reversed single #
loop $-1 $-1 $182 $68 #
plane-surface $-1 0 32.404344371248378 0 0 -1 0 0 0 -1 forward_v I I I I #
coedge $-1 $114 $183 $184 $185 reversed $69 $-1 #
coedge $-1 $186 $71 $187 $188 reversed $44 $-1 #
coedge $-1 $71 $186 $189 $190 reversed $44 $-1 #
coedge $-1 $191 $111 $71 $115 reversed $69 $-1 #
edge $-1 $192 -32.404344371248378 $193 32.404344371248378 $114 $194 forward 7 unknown #
face $-1 $195 $196 $26 $-1 $197 forward single #
loop $-1 $-1 $198 $72 #
plane-surface $-1 19.198740649325977 -6.8125567645697132 148.79263902329208 0 1 0 0.52991927123019833 0 0.84804809178421925 forward_v I I I I #
coedge $-1 $199 $200 $201 $202 reversed $73 $-1 #
coedge $-1 $121 $75 $203 $204 reversed $47 $-1 #
coedge $-1 $75 $120 $199 $205 reversed $47 $-1 #
coedge $-1 $201 $206 $75 $123 forward $196 $-1 #
edge $-1 $207 -43.181781443884631 $208 -35.303505329318739 $122 $209 forward 7 unknown #
loop $-1 $-1 $129 $76 #
plane-surface $-1 -36.740758310432525 -3.4062783822848566 59.270728944311927 0.52991927123019833 0 0.84804809178421925 0.84804809178421925 0 -0.52991927123019833 forward_v I I I I #
loop $-1 $-1 $210 $49 #
coedge $-1 $127 $127 $128 $211 reversed $77 $-1 #
coedge $-1 $128 $128 $127 $211 forward $79 $-1 #
coedge $-1 $129 $129 $80 $130 forward $124 $-1 #
edge $-1 $212 0 $212 6.2831853071796004 $129 $213 forward 7 unknown #
loop $-1 $-1 $136 $81 #
plane-surface $-1 -36.740758310432525 -3.4062783822848566 59.270728944311927 0.52991927123019833 0 0.84804809178421925 0.84804809178421925 0 -0.52991927123019833 forward_v I I I I #
loop $-1 $-1 $214 $52 #
coedge $-1 $134 $134 $135 $215 reversed $82 $-1 #
coedge $-1 $135 $135 $134 $215 forward $84 $-1 #
coedge $-1 $136 $136 $85 $137 forward $131 $-1 #
edge $-1 $216 0 $216 6.2831853071796004 $136 $217 forward 7 unknown #
face $-1 $218 $219 $29 $-1 $220 reversed single #
loop $-1 $-1 $144 $86 #
plane-surface $-1 52.781151768547623 0 0 -1 0 0 0 0 1 forward_v I I I I #
coedge $-1 $221 $222 $223 $224 reversed $87 $-1 #
coedge $-1 $143 $89 $225 $226 reversed $56 $-1 #
coedge $-1 $89 $142 $221 $227 reversed $56 $-1 #
coedge $-1 $223 $228 $89 $145 forward $139 $-1 #
edge $-1 $229 66.14219614683924 $230 71.065089527092596 $144 $231 forward 7 unknown #
loop $-1 $-1 $151 $90 #
plane-surface $-1 -36.740758310432525 28.998065988963525 59.270728944311927 0.52991927123019833 0 0.84804809178421925 0.84804809178421925 0 -0.52991927123019833 forward_v I I I I #
loop $-1 $-1 $232 $58 #
coedge $-1 $149 $149 $150 $233 reversed $91 $-1 #
coedge $-1 $150 $150 $149 $233 forward $93 $-1 #
coedge $-1 $151 $151 $94 $152 forward $146 $-1 #
edge $-1 $234 0 $234 6.2831853071796004 $151 $235 forward 7 unknown #
loop $-1 $-1 $158 $95 #
plane-surface $-1 -36.740758310432525 28.998065988963525 59.270728944311927 0.52991927123019833 0 0.84804809178421925 0.84804809178421925 0 -0.52991927123019833 forward_v I I I I #
loop $-1 $-1 $236 $61 #
coedge $-1 $156 $156 $157 $237 reversed $96 $-1 #
coedge $-1 $157 $157 $156 $237 forward $98 $-1 #
coedge $-1 $158 $158 $99 $159 forward $153 $-1 #
edge $-1 $238 0 $238 6.2831853071796004 $158 $239 forward 7 unknown #
face $-1 $240 $241 $24 $-1 $242 reversed single #
loop $-1 $-1 $243 $100 #
plane-surface $-1 -52.781151768547623 0 0 1 0 0 0 0 -1 forward_v I I I I #
coedge $-1 $244 $171 $245 $246 forward $101 $-1 #
coedge $-1 $247 $103 $244 $248 forward $65 $-1 #
coedge $-1 $103 $247 $249 $250 forward $65 $-1 #
coedge $-1 $174 $173 $103 $167 reversed $175 $-1 #
edge $-1 $251 -32.404344371248378 $252 32.404344371248378 $166 $253 forward 7 unknown #
coedge $-1 $105 $104 $254 $255 forward $41 $-1 #
coedge $-1 $256 $257 $104 $170 reversed $241 $-1 #
edge $-1 $177 -52.781151768547623 $258 52.781151768547623 $169 $259 forward 7 unknown #
coedge $-1 $163 $260 $105 $172 reversed $101 $-1 #
edge $-1 $261 -52.781151768547623 $176 52.781151768547623 $171 $262 forward 7 unknown #
coedge $-1 $166 $106 $260 $263 forward $175 $-1 #
coedge $-1 $106 $166 $256 $264 reversed $175 $-1 #
loop $-1 $-1 $173 $240 #
vertex $-1 $107 $265 #
vertex $-1 $107 $266 #
straight-curve $-1 52.781151768547623 0 8.2541233648068069 0 1 0 I I #
face $-1 $267 $268 $25 $-1 $269 forward single #
loop $-1 $-1 $270 $108 #
plane-surface $-1 -52.781151768547623 0 0 1 0 0 0 0 -1 forward_v I I I I #
coedge $-1 $189 $271 $191 $272 forward $109 $-1 #
coedge $-1 $111 $191 $273 $274 reversed $69 $-1 #
coedge $-1 $275 $187 $111 $185 forward $276 $-1 #
edge $-1 $193 1.6996057938938494 $277 4.9362136452399215 $184 $278 forward 7 unknown #
coedge $-1 $113 $112 $270 $279 reversed $44 $-1 #
coedge $-1 $184 $280 $112 $188 forward $276 $-1 #
edge $-1 $281 -28.765090464852683 $193 -19.267032142537197 $187 $282 forward 7 unknown #
coedge $-1 $283 $182 $113 $190 forward $109 $-1 #
edge $-1 $192 19.267032142537197 $284 28.765090464852683 $189 $285 forward 7 unknown #
coedge $-1 $183 $114 $182 $272 reversed $69 $-1 #
vertex $-1 $190 $286 #
vertex $-1 $188 $287 #
straight-curve $-1 -43.283093446232137 0 5.0175155134607348 0 -1 0 I I #
face $-1 $-1 $288 $26 $-1 $289 reversed single #
loop $-1 $-1 $122 $116 #
plane-surface $-1 0 0 8.2541233648068069 0 0 1 1 0 0 forward_v I I I I #
coedge $-1 $290 $291 $292 $293 reversed $117 $-1 #
coedge $-1 $294 $119 $121 $205 forward $73 $-1 #
coedge $-1 $119 $294 $290 $295 forward $73 $-1 #
coedge $-1 $292 $122 $119 $202 forward $196 $-1 #
edge $-1 $208 -1.7031391911424283 $296 5.1094175734272849 $201 $297 forward 7 unknown #
coedge $-1 $298 $299 $120 $204 forward $288 $-1 #
edge $-1 $300 -71.065089527092596 $207 -66.14219614683924 $203 $301 forward 7 unknown #
edge $-1 $208 96.272410439180604 $300 105.56230353709523 $121 $302 forward 7 unknown #
coedge $-1 $122 $292 $298 $303 forward $196 $-1 #
vertex $-1 $204 $304 #
vertex $-1 $123 $305 #
straight-curve $-1 9.5993703246629885 0 8.2541233648068015 -1 0 0 I I #
coedge $-1 $210 $210 $-1 $306 reversed $126 $-1 #
edge $-1 $307 0 $307 6.2831853071796004 $127 $308 forward 7 unknown #
vertex $-1 $130 $309 #
ellipse-curve $-1 48.842013711264656 -4.8661119746926502 5.7926766746801315 0.52991927123019833 0 0.84804809178421925 0.42402404589210962 0 -0.26495963561509916 1 I I #
coedge $-1 $214 $214 $-1 $310 reversed $133 $-1 #
edge $-1 $311 0 $311 6.2831853071796004 $134 $312 forward 7 unknown #
vertex $-1 $137 $313 #
ellipse-curve $-1 48.842013711264656 -1.9464447898770594 5.7926766746801315 0.52991927123019833 0 0.84804809178421925 0.42402404589210962 0 -0.26495963561509916 1 I I #
face $-1 $-1 $314 $29 $-1 $315 forward single #
loop $-1 $-1 $316 $138 #
plane-surface $-1 0 32.404344371248378 0 0 -1 0 0 0 -1 forward_v I I I I #
coedge $-1 $317 $141 $143 $227 forward $87 $-1 #
coedge $-1 $141 $317 $316 $318 reversed $87 $-1 #
coedge $-1 $319 $144 $141 $224 forward $139 $-1 #
edge $-1 $230 11.092754612196906 $320 17.905311376766615 $223 $321 forward 7 unknown #
coedge $-1 $322 $323 $142 $226 forward $314 $-1 #
edge $-1 $324 35.303505329318739 $229 43.181781443884631 $225 $325 forward 7 unknown #
edge $-1 $230 -105.56230353709523 $324 -96.272410439180604 $143 $326 forward 7 unknown #
coedge $-1 $144 $319 $322 $327 reversed $139 $-1 #
vertex $-1 $327 $328 #
vertex $-1 $145 $329 #
straight-curve $-1 52.781151768547623 25.591787606678668 74.396319511646041 0 0 -1 I I #
coedge $-1 $232 $232 $-1 $330 reversed $148 $-1 #
edge $-1 $331 0 $331 6.2831853071796004 $149 $332 forward 7 unknown #
vertex $-1 $152 $333 #
ellipse-curve $-1 48.842013711264656 27.538232396555728 5.7926766746801315 0.52991927123019833 0 0.84804809178421925 0.42402404589210962 0 -0.26495963561509916 1 I I #
coedge $-1 $236 $236 $-1 $334 reversed $155 $-1 #
edge $-1 $335 0 $335 6.2831853071796004 $156 $336 forward 7 unknown #
vertex $-1 $159 $337 #
ellipse-curve $-1 48.842013711264656 30.457899581371315 5.7926766746801315 0.52991927123019833 0 0.84804809178421925 0.42402404589210962 0 -0.26495963561509916 1 I I #
face $-1 $-1 $175 $24 $-1 $338 reversed single #
loop $-1 $-1 $256 $160 #
plane-surface $-1 0 32.404344371248378 0 0 -1 0 0 0 -1 forward_v I I I I #
coedge $-1 $339 $254 $257 $340 forward $161 $-1 #
coedge $-1 $260 $163 $164 $248 reversed $101 $-1 #
coedge $-1 $254 $339 $163 $246 reversed $161 $-1 #
edge $-1 $261 -8.2541233648068069 $341 8.2541233648068069 $245 $342 forward 7 unknown #
coedge $-1 $165 $164 $339 $343 forward $65 $-1 #
edge $-1 $252 -52.781151768547623 $341 52.781151768547623 $244 $344 forward 7 unknown #
coedge $-1 $257 $256 $165 $250 reversed $241 $-1 #
edge $-1 $345 -52.781151768547623 $251 52.781151768547623 $249 $346 forward 7 unknown #
vertex $-1 $167 $347 #
vertex $-1 $263 $348 #
straight-curve $-1 52.781151768547623 0 -8.2541233648068069 0 -1 0 I I #
coedge $-1 $243 $245 $168 $255 reversed $161 $-1 #
edge $-1 $258 -32.404344371248378 $261 32.404344371248378 $254 $349 forward 7 unknown #
coedge $-1 $249 $169 $174 $264 forward $241 $-1 #
coedge $-1 $169 $249 $243 $340 reversed $241 $-1 #
vertex $-1 $170 $350 #
straight-curve $-1 0 32.404344371248378 8.2541233648068069 -1 0 0 I I #
coedge $-1 $171 $244 $173 $263 reversed $101 $-1 #
vertex $-1 $255 $351 #
straight-curve $-1 0 -32.404344371248378 8.2541233648068069 1 0 0 I I #
edge $-1 $176 -8.2541233648068069 $252 8.2541233648068069 $173 $352 forward 7 unknown #
edge $-1 $177 -8.2541233648068069 $251 8.2541233648068069 $174 $353 forward 7 unknown #
point $-1 52.781151768547623 -32.404344371248378 8.2541233648068069 #
point $-1 52.781151768547623 32.404344371248378 8.2541233648068069 #
face $-1 $-1 $276 $25 $-1 $354 reversed single #
loop $-1 $-1 $273 $179 #
plane-surface $-1 0 0 8.2541233648068069 0 0 1 1 0 0 forward_v I I I I #
coedge $-1 $355 $356 $186 $279 forward $180 $-1 #
coedge $-1 $182 $283 $357 $358 reversed $109 $-1 #
edge $-1 $359 -4.9362136452399215 $192 -1.6996057938938494 $182 $360 forward 7 unknown #
coedge $-1 $357 $361 $183 $274 forward $268 $-1 #
edge $-1 $277 -32.404344371248378 $359 32.404344371248378 $273 $362 forward 7 unknown #
coedge $-1 $280 $184 $361 $363 reversed $276 $-1 #
loop $-1 $-1 $184 $267 #
vertex $-1 $185 $364 #
straight-curve $-1 -43.283093446232137 -32.404344371248378 3.3179097195668854 0 0 1 I I #
edge $-1 $284 -32.404344371248378 $281 32.404344371248378 $270 $365 forward 7 unknown #
coedge $-1 $187 $275 $355 $366 forward $276 $-1 #
vertex $-1 $279 $367 #
straight-curve $-1 -24.01606130369494 -32.404344371248378 5.0175155134607348 1 0 0 I I #
coedge $-1 $271 $189 $356 $368 reversed $109 $-1 #
vertex $-1 $279 $369 #
straight-curve $-1 -24.01606130369494 32.404344371248378 5.0175155134607348 -1 0 0 I I #
point $-1 -43.283093446232137 32.404344371248378 5.0175155134607348 #
point $-1 -43.283093446232137 -32.404344371248378 5.0175155134607348 #
loop $-1 $-1 $203 $195 #
plane-surface $-1 52.781151768547623 0 0 -1 0 0 0 0 1 forward_v I I I I #
coedge $-1 $291 $198 $200 $295 reversed $117 $-1 #
coedge $-1 $198 $290 $370 $371 reversed $117 $-1 #
coedge $-1 $206 $201 $198 $293 forward $196 $-1 #
edge $-1 $296 35.303505329318739 $372 43.181781443884631 $292 $373 forward 7 unknown #
coedge $-1 $200 $199 $299 $374 reversed $73 $-1 #
edge $-1 $375 -105.56230353709523 $296 -96.272410439180604 $290 $376 forward 7 unknown #
vertex $-1 $202 $377 #
straight-curve $-1 44.902875653981724 -1.7031391911424283 8.2541233648068086 0 -1 0 I I #
coedge $-1 $370 $203 $206 $303 reversed $288 $-1 #
coedge $-1 $203 $370 $294 $374 forward $288 $-1 #
vertex $-1 $204 $378 #
straight-curve $-1 52.781151768547623 0 74.396319511646041 0 0 1 I I #
straight-curve $-1 -36.740758310432525 0 59.270728944311927 0.84804809178421925 0 -0.52991927123019833 I I #
edge $-1 $372 -6.8125567645697132 $207 0 $298 $379 forward 7 unknown #
point $-1 52.781151768547623 0 8.2541233648068069 #
point $-1 44.902875653981724 0 8.2541233648068086 #
edge $-1 $380 1 $380 0 $210 $-1 forward 7 unknown #
vertex $-1 $211 $381 #
ellipse-curve $-1 48.098748847637559 -4.8661119746926502 4.6032042710328165 0.52991927123019833 0 0.84804809178421925 0.42402404589210962 0 -0.26495963561509916 1 I I #
point $-1 49.266037757156752 -4.8661119746926502 5.5277170390650125 #
edge $-1 $382 1 $382 0 $214 $-1 forward 7 unknown #
vertex $-1 $215 $383 #
ellipse-curve $-1 48.098748847637559 -1.9464447898770594 4.6032042710328165 0.52991927123019833 0 0.84804809178421925 0.42402404589210962 0 -0.26495963561509916 1 I I #
point $-1 49.266037757156752 -1.9464447898770594 5.5277170390650125 #
loop $-1 $-1 $225 $218 #
plane-surface $-1 0 0 8.2541233648068069 0 0 1 1 0 0 forward_v I I I I #
coedge $-1 $384 $385 $222 $318 forward $219 $-1 #
coedge $-1 $222 $221 $323 $386 reversed $87 $-1 #
edge $-1 $320 -74.278987805435293 $387 -64.98909470752065 $316 $388 forward 7 unknown #
coedge $-1 $228 $223 $385 $389 reversed $139 $-1 #
vertex $-1 $318 $390 #
straight-curve $-1 52.781151768547623 14.499032994481762 3.3312299845534348 0 1 0 I I #
coedge $-1 $391 $225 $228 $327 forward $314 $-1 #
coedge $-1 $225 $391 $317 $386 forward $314 $-1 #
vertex $-1 $226 $392 #
straight-curve $-1 9.5993703246629885 25.591787606678668 8.2541233648068015 1 0 0 I I #
straight-curve $-1 -36.740758310432525 25.591787606678668 59.270728944311927 -0.84804809178421925 0 0.52991927123019833 I I #
edge $-1 $229 25.591787606678668 $393 32.404344371248378 $228 $394 forward 7 unknown #
point $-1 52.781151768547623 25.591787606678668 8.2541233648068069 #
point $-1 52.781151768547616 25.591787606678668 3.3312299845534383 #
edge $-1 $395 1 $395 0 $232 $-1 forward 7 unknown #
vertex $-1 $233 $396 #
ellipse-curve $-1 48.098748847637559 27.538232396555728 4.6032042710328165 0.52991927123019833 0 0.84804809178421925 0.42402404589210962 0 -0.26495963561509916 1 I I #
point $-1 49.266037757156752 27.538232396555728 5.5277170390650125 #
edge $-1 $397 1 $397 0 $236 $-1 forward 7 unknown #
vertex $-1 $237 $398 #
ellipse-curve $-1 48.098748847637559 30.457899581371315 4.6032042710328165 0.52991927123019833 0 0.84804809178421925 0.42402404589210962 0 -0.26495963561509916 1 I I #
point $-1 49.266037757156752 30.457899581371315 5.5277170390650125 #
plane-surface $-1 52.781151768547623 0 0 -1 0 0 0 0 1 forward_v I I I I #
coedge $-1 $245 $243 $247 $343 reversed $161 $-1 #
edge $-1 $258 -8.2541233648068069 $345 8.2541233648068069 $257 $399 forward 7 unknown #
vertex $-1 $343 $400 #
straight-curve $-1 -52.781151768547623 -32.404344371248378 0 0 0 -1 I I #
edge $-1 $341 -32.404344371248378 $345 32.404344371248378 $339 $401 forward 7 unknown #
straight-curve $-1 0 -32.404344371248378 -8.2541233648068069 -1 0 0 I I #
vertex $-1 $250 $402 #
straight-curve $-1 0 32.404344371248378 -8.2541233648068069 1 0 0 I I #
point $-1 52.781151768547623 32.404344371248378 -8.2541233648068069 #
point $-1 52.781151768547623 -32.404344371248378 -8.2541233648068069 #
straight-curve $-1 -52.781151768547623 0 8.2541233648068069 0 -1 0 I I #
point $-1 -52.781151768547623 32.404344371248378 8.2541233648068069 #
point $-1 -52.781151768547623 -32.404344371248378 8.2541233648068069 #
straight-curve $-1 52.781151768547623 -32.404344371248378 0 0 0 -1 I I #
straight-curve $-1 52.781151768547623 32.404344371248378 0 0 0 -1 I I #
plane-surface $-1 0 -32.404344371248378 0 0 1 0 0 0 1 forward_v I I I I #
coedge $-1 $403 $270 $280 $366 reversed $180 $-1 #
coedge $-1 $270 $403 $283 $368 forward $180 $-1 #
coedge $-1 $404 $273 $271 $358 forward $268 $-1 #
edge $-1 $359 43.283093446232137 $405 52.781151768547623 $271 $406 forward 7 unknown #
vertex $-1 $358 $407 #
straight-curve $-1 -43.283093446232137 32.404344371248378 3.3179097195668854 0 0 -1 I I #
coedge $-1 $273 $404 $275 $363 forward $268 $-1 #
straight-curve $-1 -43.283093446232137 0 8.2541233648068069 0 1 0 I I #
edge $-1 $408 -52.781151768547623 $277 -43.283093446232137 $275 $409 forward 7 unknown #
point $-1 -43.283093446232137 -32.404344371248378 8.2541233648068069 #
straight-curve $-1 -52.781151768547623 0 5.0175155134607348 0 -1 0 I I #
edge $-1 $408 -8.2541233648068069 $281 -5.0175155134607348 $355 $410 forward 7 unknown #
point $-1 -52.781151768547623 -32.404344371248378 5.0175155134607348 #
edge $-1 $405 -8.2541233648068069 $284 -5.0175155134607348 $283 $411 forward 7 unknown #
point $-1 -52.781151768547623 32.404344371248378 5.0175155134607348 #
coedge $-1 $299 $298 $291 $371 forward $288 $-1 #
edge $-1 $372 66.14219614683924 $375 71.065089527092596 $370 $412 forward 7 unknown #
vertex $-1 $303 $413 #
straight-curve $-1 9.5993703246629885 -6.8125567645697132 8.2541233648068015 1 0 0 I I #
edge $-1 $375 -5.1094175734272849 $300 1.7031391911424283 $299 $414 forward 7 unknown #
vertex $-1 $374 $415 #
straight-curve $-1 -36.740758310432525 -6.8125567645697132 59.270728944311927 -0.84804809178421925 0 0.52991927123019833 I I #
point $-1 44.902875653981724 -6.8125567645697132 8.2541233648068086 #
point $-1 52.781151768547616 0 3.3312299845534383 #
straight-curve $-1 52.781151768547623 0 8.2541233648068069 0 1 0 I I #
vertex $-1 $306 $416 #
point $-1 48.52277289352967 -4.8661119746926502 4.338244635417718 #
vertex $-1 $310 $417 #
point $-1 48.52277289352967 -1.9464447898770594 4.338244635417718 #
coedge $-1 $385 $316 $391 $418 reversed $219 $-1 #
coedge $-1 $316 $384 $319 $389 forward $219 $-1 #
edge $-1 $387 -17.905311376766623 $324 -11.092754612196906 $323 $419 forward 7 unknown #
vertex $-1 $318 $420 #
straight-curve $-1 -10.21100209951506 32.404344371248378 42.693097070126491 -0.84804809178421925 0 0.52991927123019833 I I #
edge $-1 $393 -8.2541233648068069 $320 -3.3312299845534414 $319 $421 forward 7 unknown #
point $-1 52.781151768547623 32.404344371248378 3.3312299845534414 #
coedge $-1 $323 $322 $384 $418 forward $314 $-1 #
point $-1 44.902875653981724 25.591787606678668 8.2541233648068086 #
vertex $-1 $327 $422 #
straight-curve $-1 52.781151768547623 0 8.2541233648068069 0 1 0 I I #
vertex $-1 $330 $423 #
point $-1 48.52277289352967 27.538232396555728 4.338244635417718 #
vertex $-1 $334 $424 #
point $-1 48.52277289352967 30.457899581371315 4.338244635417718 #
straight-curve $-1 -52.781151768547623 32.404344371248378 0 0 0 -1 I I #
point $-1 -52.781151768547623 -32.404344371248378 -8.2541233648068069 #
straight-curve $-1 -52.781151768547623 0 -8.2541233648068069 0 1 0 I I #
point $-1 -52.781151768547623 32.404344371248378 -8.2541233648068069 #
coedge $-1 $356 $355 $404 $425 reversed $180 $-1 #
coedge $-1 $361 $357 $403 $425 forward $268 $-1 #
vertex $-1 $358 $426 #
straight-curve $-1 0 32.404344371248378 8.2541233648068069 -1 0 0 I I #
point $-1 -43.283093446232137 32.404344371248378 8.2541233648068069 #
vertex $-1 $425 $427 #
straight-curve $-1 0 -32.404344371248378 8.2541233648068069 1 0 0 I I #
straight-curve $-1 -52.781151768547623 -32.404344371248378 0 0 0 -1 I I #
straight-curve $-1 -52.781151768547623 32.404344371248378 0 0 0 -1 I I #
straight-curve $-1 52.781151768547623 -6.8125567645697132 74.396319511646041 0 0 -1 I I #
point $-1 52.781151768547623 -6.8125567645697132 8.2541233648068069 #
straight-curve $-1 52.781151768547623 -1.7031391911424283 3.3312299845534348 0 1 0 I I #
point $-1 52.781151768547616 -6.8125567645697132 3.3312299845534383 #
point $-1 47.833789212022459 -4.8661119746926502 4.1791802251407075 #
point $-1 47.833789212022459 -1.9464447898770594 4.1791802251407075 #
edge $-1 $393 -52.781151768547623 $387 -44.902875653981724 $384 $428 forward 7 unknown #
straight-curve $-1 44.902875653981724 14.499032994481762 8.2541233648068086 0 -1 0 I I #
point $-1 44.902875653981724 32.404344371248385 8.2541233648068086 #
straight-curve $-1 52.781151768547623 32.404344371248378 0 0 0 -1 I I #
point $-1 52.781151768547623 32.404344371248378 8.2541233648068069 #
point $-1 47.833789212022459 27.538232396555728 4.1791802251407075 #
point $-1 47.833789212022459 30.457899581371315 4.1791802251407075 #
edge $-1 $405 -32.404344371248378 $408 32.404344371248378 $403 $429 forward 7 unknown #
point $-1 -52.781151768547623 32.404344371248378 8.2541233648068069 #
point $-1 -52.781151768547623 -32.404344371248378 8.2541233648068069 #
straight-curve $-1 0 32.404344371248378 8.2541233648068069 -1 0 0 I I #
straight-curve $-1 -52.781151768547623 0 8.2541233648068069 0 -1 0 I I #
End-of-ACIS-data 