500 0 4 0           
7 Unknown 11 ACIS 5.0 NT 24 Thu Mar 25 19:59:43 1999 
-1 9.9999999999999995e-007 1e-010 
body $-1 $4 $-1 $5 #
body $-1 $6 $-1 $7 #
body $-1 $8 $-1 $9 #
body $-1 $10 $-1 $11 #
lump $-1 $-1 $12 $0 #
transform $-1 1 0 0 0 1 0 0 0 1 74.008606219672231 32.151179778917523 8.2664650227797605 1 rotate no_reflect no_shear #
lump $-1 $-1 $13 $1 #
transform $-1 1 0 0 0 1 0 0 0 1 74.008606219672231 32.151179778917523 8.2664650227797605 1 rotate no_reflect no_shear #
lump $-1 $-1 $14 $2 #
transform $-1 1 0 0 0 1 0 0 0 1 74.008606219672231 32.151179778917523 8.2664650227797605 1 rotate no_reflect no_shear #
lump $-1 $-1 $15 $3 #
transform $-1 1 0 0 0 1 0 0 0 1 74.008606219672231 32.151179778917523 8.2664650227797605 1 rotate no_reflect no_shear #
shell $-1 $-1 $-1 $16 $-1 $4 #
shell $-1 $-1 $-1 $17 $-1 $6 #
shell $-1 $-1 $-1 $18 $-1 $8 #
shell $-1 $-1 $-1 $19 $-1 $10 #
face $-1 $20 $21 $12 $-1 $22 forward single #
face $-1 $23 $24 $13 $-1 $25 reversed single #
face $-1 $26 $27 $14 $-1 $28 reversed single #
face $-1 $29 $30 $15 $-1 $31 forward single #
face $-1 $32 $33 $12 $-1 $34 reversed single #
loop $-1 $-1 $35 $16 #
plane-surface $-1 0 0 8.2664650227797605 0 0 1 1 0 0 forward_v I I I I #
face $-1 $36 $37 $13 $-1 $38 reversed single #
loop $-1 $-1 $39 $17 #
plane-surface $-1 -71.108922930835035 -29.151179778917523 0 0 -1 0 0 0 -1 forward_v I I I I #
face $-1 $40 $41 $14 $-1 $42 reversed single #
loop $-1 $-1 $43 $18 #
plane-surface $-1 10.941889384803265 -151.89962131369293 92.200650655817554 -1 0 0 0 -0.80901700255871778 0.5877852410284794 forward_v I I I I #
face $-1 $44 $45 $15 $-1 $46 forward single #
loop $-1 $47 $48 $19 #
cone-surface $-1 -3.3248170649663962 -30.577184861019067 6.3985994444974326 0 0.80901700255871778 -0.5877852410284794 0.5 0 0 1 I I 0 1 0.5 forward I I I I #
face $-1 $49 $50 $12 $-1 $51 reversed single #
loop $-1 $-1 $52 $20 #
plane-surface $-1 0 0 -8.2664650227797605 0 0 1 1 0 0 forward_v I I I I #
coedge $-1 $53 $54 $55 $56 forward $21 $-1 #
face $-1 $57 $58 $13 $-1 $59 forward single #
loop $-1 $-1 $60 $23 #
plane-surface $-1 -68.20923964199784 -30.651179778917523 0 -1 0 0 0 0 1 forward_v I I I I #
coedge $-1 $61 $62 $63 $64 forward $24 $-1 #
face $-1 $65 $66 $14 $-1 $67 reversed single #
loop $-1 $-1 $68 $26 #
plane-surface $-1 -3.3248170649663962 -32.151179778917523 5.1983177657938313 0 -0.80901700255871778 0.5877852410284794 1 0 0 forward_v I I I I #
coedge $-1 $69 $70 $71 $72 reversed $27 $-1 #
face $-1 $-1 $73 $15 $-1 $74 forward single #
loop $-1 $75 $76 $29 #
cone-surface $-1 -3.3248170649663962 -29.915505392038924 5.9178611844509614 0 0.80901700255871778 -0.5877852410284794 0.25 0 0 1 I I -0.70710678118654746 0.70710678118654746 0.25 forward I I I I #
loop $-1 $-1 $77 $19 #
coedge $-1 $48 $48 $78 $79 reversed $30 $-1 #
face $-1 $80 $81 $12 $-1 $82 reversed single #
loop $-1 $-1 $83 $32 #
plane-surface $-1 0 -32.151179778917523 0 0 1 0 0 0 1 forward_v I I I I #
coedge $-1 $84 $85 $86 $87 forward $33 $-1 #
coedge $-1 $88 $35 $89 $90 forward $21 $-1 #
coedge $-1 $35 $88 $91 $92 forward $21 $-1 #
coedge $-1 $93 $94 $35 $56 reversed $95 $-1 #
edge $-1 $96 -32.151179778917523 $97 32.151179778917523 $55 $98 forward 7 unknown #
face $-1 $99 $100 $13 $-1 $101 reversed single #
loop $-1 $-1 $102 $36 #
plane-surface $-1 0 0 8.2664650227797605 0 0 1 1 0 0 forward_v I I I I #
coedge $-1 $103 $104 $105 $106 reversed $37 $-1 #
coedge $-1 $107 $39 $108 $109 reversed $24 $-1 #
coedge $-1 $39 $107 $110 $111 reversed $24 $-1 #
coedge $-1 $104 $103 $39 $64 reversed $37 $-1 #
edge $-1 $112 -8.2664650227797605 $113 8.2664650227797605 $63 $114 forward 7 unknown #
face $-1 $115 $116 $14 $-1 $117 forward single #
loop $-1 $-1 $118 $40 #
plane-surface $-1 -17.591523514736057 -151.89962131369293 92.200650655817554 1 0 0 0 0.80901700255871778 -0.5877852410284794 forward_v I I I I #
coedge $-1 $119 $120 $121 $122 reversed $41 $-1 #
coedge $-1 $70 $43 $123 $124 reversed $27 $-1 #
coedge $-1 $43 $69 $119 $125 reversed $27 $-1 #
coedge $-1 $121 $126 $43 $72 forward $116 $-1 #
edge $-1 $127 43.798630877928943 $128 46.027770277044908 $71 $129 forward 7 unknown #
loop $-1 $-1 $78 $44 #
plane-surface $-1 -3.3248170649663962 -32.151179778917523 5.1983177657938313 0 -0.80901700255871778 0.5877852410284794 1 0 0 forward_v I I I I #
loop $-1 $-1 $130 $29 #
coedge $-1 $76 $76 $77 $131 reversed $45 $-1 #
coedge $-1 $77 $77 $76 $131 forward $47 $-1 #
coedge $-1 $78 $78 $48 $79 forward $73 $-1 #
edge $-1 $132 -4.0452997518284518e-016 $132 6.2831853071796004 $78 $133 forward 7 unknown #
face $-1 $134 $135 $12 $-1 $136 reversed single #
loop $-1 $-1 $137 $49 #
plane-surface $-1 -74.008606219672231 0 0 1 0 0 0 0 -1 forward_v I I I I #
coedge $-1 $138 $91 $139 $140 forward $50 $-1 #
coedge $-1 $141 $52 $138 $142 forward $33 $-1 #
coedge $-1 $52 $141 $143 $144 forward $33 $-1 #
coedge $-1 $94 $93 $52 $87 reversed $95 $-1 #
edge $-1 $145 -32.151179778917523 $146 32.151179778917523 $86 $147 forward 7 unknown #
coedge $-1 $54 $53 $148 $149 forward $21 $-1 #
coedge $-1 $150 $151 $53 $90 reversed $135 $-1 #
edge $-1 $97 -74.008606219672231 $152 74.008606219672231 $89 $153 forward 7 unknown #
coedge $-1 $83 $154 $54 $92 reversed $50 $-1 #
edge $-1 $155 -74.008606219672231 $96 74.008606219672231 $91 $156 forward 7 unknown #
coedge $-1 $86 $55 $154 $157 forward $95 $-1 #
coedge $-1 $55 $86 $150 $158 reversed $95 $-1 #
loop $-1 $-1 $93 $134 #
vertex $-1 $56 $159 #
vertex $-1 $56 $160 #
straight-curve $-1 74.008606219672231 0 8.2664650227797605 0 1 0 I I #
face $-1 $161 $162 $13 $-1 $163 reversed single #
loop $-1 $-1 $164 $57 #
plane-surface $-1 -74.008606219672231 0 0 1 0 0 0 0 -1 forward_v I I I I #
coedge $-1 $110 $165 $104 $166 forward $58 $-1 #
coedge $-1 $63 $60 $167 $168 reversed $37 $-1 #
coedge $-1 $60 $63 $102 $166 reversed $37 $-1 #
coedge $-1 $169 $170 $60 $106 forward $171 $-1 #
edge $-1 $172 -8.2664650227797605 $173 8.2664650227797605 $105 $174 forward 7 unknown #
coedge $-1 $62 $61 $164 $175 reversed $24 $-1 #
coedge $-1 $167 $176 $61 $109 forward $162 $-1 #
edge $-1 $177 -38.454144754254713 $113 -32.654778176580322 $108 $178 forward 7 unknown #
coedge $-1 $179 $102 $62 $111 forward $58 $-1 #
edge $-1 $112 32.654778176580322 $180 38.454144754254713 $110 $181 forward 7 unknown #
vertex $-1 $111 $182 #
vertex $-1 $109 $183 #
straight-curve $-1 -68.20923964199784 -29.151179778917523 0 0 0 -1 I I #
face $-1 $-1 $184 $14 $-1 $185 reversed single #
loop $-1 $-1 $71 $65 #
plane-surface $-1 0 0 8.2664650227797605 0 0 1 1 0 0 forward_v I I I I #
coedge $-1 $186 $187 $188 $189 reversed $66 $-1 #
coedge $-1 $190 $68 $70 $125 forward $41 $-1 #
coedge $-1 $68 $190 $186 $191 forward $41 $-1 #
coedge $-1 $188 $71 $68 $122 forward $116 $-1 #
edge $-1 $128 -12.604297917286463 $192 15.929114982252859 $121 $193 forward 7 unknown #
coedge $-1 $194 $195 $69 $124 forward $184 $-1 #
edge $-1 $196 -40.902007562114946 $127 -37.833860305129015 $123 $197 forward 7 unknown #
edge $-1 $128 -3.7924385362509678 $196 0 $70 $198 forward 7 unknown #
coedge $-1 $71 $188 $194 $199 forward $116 $-1 #
vertex $-1 $124 $200 #
vertex $-1 $72 $201 #
straight-curve $-1 10.941889384803265 -75.949810656846466 8.2664650227797623 0 1 0 I I #
coedge $-1 $130 $130 $-1 $202 reversed $75 $-1 #
edge $-1 $203 0 $203 6.2831853071796004 $76 $204 forward 7 unknown #
vertex $-1 $79 $205 #
ellipse-curve $-1 -3.3248170649663962 -31.036610079359541 6.7323913942867923 0 -0.80901700255871778 0.5877852410284794 0.5 0 0 1 I I #
face $-1 $-1 $95 $12 $-1 $206 reversed single #
loop $-1 $-1 $150 $80 #
plane-surface $-1 0 32.151179778917523 0 0 -1 0 0 0 -1 forward_v I I I I #
coedge $-1 $207 $148 $151 $208 forward $81 $-1 #
coedge $-1 $154 $83 $84 $142 reversed $50 $-1 #
coedge $-1 $148 $207 $83 $140 reversed $81 $-1 #
edge $-1 $155 -8.2664650227797605 $209 8.2664650227797605 $139 $210 forward 7 unknown #
coedge $-1 $85 $84 $207 $211 forward $33 $-1 #
edge $-1 $146 -74.008606219672231 $209 74.008606219672231 $138 $212 forward 7 unknown #
coedge $-1 $151 $150 $85 $144 reversed $135 $-1 #
edge $-1 $213 -74.008606219672231 $145 74.008606219672231 $143 $214 forward 7 unknown #
vertex $-1 $87 $215 #
vertex $-1 $157 $216 #
straight-curve $-1 74.008606219672231 0 -8.2664650227797605 0 -1 0 I I #
coedge $-1 $137 $139 $88 $149 reversed $81 $-1 #
edge $-1 $152 -32.151179778917523 $155 32.151179778917523 $148 $217 forward 7 unknown #
coedge $-1 $143 $89 $94 $158 forward $135 $-1 #
coedge $-1 $89 $143 $137 $208 reversed $135 $-1 #
vertex $-1 $90 $218 #
straight-curve $-1 0 32.151179778917523 8.2664650227797605 -1 0 0 I I #
coedge $-1 $91 $138 $93 $157 reversed $50 $-1 #
vertex $-1 $149 $219 #
straight-curve $-1 0 -32.151179778917523 8.2664650227797605 1 0 0 I I #
edge $-1 $96 -8.2664650227797605 $146 8.2664650227797605 $93 $220 forward 7 unknown #
edge $-1 $97 -8.2664650227797605 $145 8.2664650227797605 $94 $221 forward 7 unknown #
point $-1 74.008606219672231 -32.151179778917523 8.2664650227797605 #
point $-1 74.008606219672231 32.151179778917523 8.2664650227797605 #
face $-1 $-1 $171 $13 $-1 $222 reversed single #
loop $-1 $-1 $167 $99 #
plane-surface $-1 0 0 -8.2664650227797605 0 0 1 1 0 0 forward_v I I I I #
coedge $-1 $223 $224 $107 $175 forward $100 $-1 #
coedge $-1 $102 $179 $169 $225 forward $58 $-1 #
edge $-1 $173 -16.825589889458762 $112 -13.825589889458762 $102 $226 forward 7 unknown #
coedge $-1 $227 $108 $103 $168 forward $162 $-1 #
edge $-1 $113 13.825589889458762 $172 16.825589889458762 $167 $228 forward 7 unknown #
coedge $-1 $229 $105 $165 $225 reversed $171 $-1 #
coedge $-1 $105 $229 $227 $230 reversed $171 $-1 #
loop $-1 $-1 $105 $161 #
vertex $-1 $230 $231 #
vertex $-1 $106 $232 #
straight-curve $-1 -68.20923964199784 -32.151179778917523 0 0 0 1 I I #
edge $-1 $180 -8.2664650227797605 $177 8.2664650227797605 $164 $233 forward 7 unknown #
coedge $-1 $108 $227 $223 $234 forward $162 $-1 #
vertex $-1 $109 $235 #
straight-curve $-1 -35.554461465417518 -29.151179778917523 -8.2664650227797605 1 0 0 I I #
coedge $-1 $165 $110 $224 $236 forward $58 $-1 #
vertex $-1 $236 $237 #
straight-curve $-1 -35.554461465417518 -29.151179778917523 8.2664650227797605 -1 0 0 I I #
point $-1 -68.20923964199784 -29.151179778917523 8.2664650227797605 #
point $-1 -68.20923964199784 -29.151179778917523 -8.2664650227797605 #
loop $-1 $-1 $123 $115 #
plane-surface $-1 0 -32.151179778917523 0 0 1 0 0 0 1 forward_v I I I I #
coedge $-1 $187 $118 $120 $191 reversed $66 $-1 #
coedge $-1 $118 $186 $238 $239 reversed $66 $-1 #
coedge $-1 $126 $121 $118 $189 forward $116 $-1 #
edge $-1 $192 -46.027770277044908 $240 -43.798630877928943 $188 $241 forward 7 unknown #
coedge $-1 $120 $119 $195 $242 reversed $41 $-1 #
edge $-1 $243 0 $192 3.7924385362509678 $186 $244 forward 7 unknown #
vertex $-1 $122 $245 #
straight-curve $-1 -1.6624085324831981 -29.922040379801555 8.2664650227797623 -1 0 0 I I #
coedge $-1 $238 $123 $126 $199 reversed $184 $-1 #
coedge $-1 $123 $238 $190 $242 forward $184 $-1 #
vertex $-1 $124 $246 #
straight-curve $-1 10.941889384803265 -32.151179778917523 46.100325327908777 0 0 1 I I #
straight-curve $-1 10.941889384803265 -32.151179778917523 5.1983177657938313 0 -0.5877852410284794 -0.80901700255871778 I I #
edge $-1 $240 -17.591523514736057 $127 10.941889384803265 $194 $247 forward 7 unknown #
point $-1 10.941889384803265 -32.151179778917523 8.2664650227797605 #
point $-1 10.941889384803265 -29.922040379801555 8.2664650227797605 #
edge $-1 $248 1 $248 0 $130 $-1 forward 7 unknown #
vertex $-1 $131 $249 #
ellipse-curve $-1 -3.3248170649663962 -30.117759642678603 6.0648074947080817 0 -0.80901700255871778 0.5877852410284794 0.5 0 0 1 I I #
point $-1 -2.8248170649663962 -31.03661007935953 6.7323913942867843 #
plane-surface $-1 74.008606219672231 0 0 -1 0 0 0 0 1 forward_v I I I I #
coedge $-1 $139 $137 $141 $211 reversed $81 $-1 #
edge $-1 $152 -8.2664650227797605 $213 8.2664650227797605 $151 $250 forward 7 unknown #
vertex $-1 $211 $251 #
straight-curve $-1 -74.008606219672231 -32.151179778917523 0 0 0 -1 I I #
edge $-1 $209 -32.151179778917523 $213 32.151179778917523 $207 $252 forward 7 unknown #
straight-curve $-1 0 -32.151179778917523 -8.2664650227797605 -1 0 0 I I #
vertex $-1 $144 $253 #
straight-curve $-1 0 32.151179778917523 -8.2664650227797605 1 0 0 I I #
point $-1 74.008606219672231 32.151179778917523 -8.2664650227797605 #
point $-1 74.008606219672231 -32.151179778917523 -8.2664650227797605 #
straight-curve $-1 -74.008606219672231 0 8.2664650227797605 0 -1 0 I I #
point $-1 -74.008606219672231 32.151179778917523 8.2664650227797605 #
point $-1 -74.008606219672231 -32.151179778917523 8.2664650227797605 #
straight-curve $-1 74.008606219672231 -32.151179778917523 0 0 0 -1 I I #
straight-curve $-1 74.008606219672231 32.151179778917523 0 0 0 -1 I I #
plane-surface $-1 0 -32.151179778917523 0 0 1 0 0 0 1 forward_v I I I I #
coedge $-1 $254 $164 $176 $234 reversed $100 $-1 #
coedge $-1 $164 $254 $179 $236 reversed $100 $-1 #
edge $-1 $255 -74.008606219672231 $173 -68.20923964199784 $169 $256 forward 7 unknown #
straight-curve $-1 -68.20923964199784 -15.325589889458762 8.2664650227797605 0 1 0 I I #
coedge $-1 $176 $167 $170 $230 forward $162 $-1 #
straight-curve $-1 -68.20923964199784 -15.325589889458762 -8.2664650227797605 0 -1 0 I I #
coedge $-1 $170 $169 $254 $257 forward $171 $-1 #
edge $-1 $172 68.20923964199784 $258 74.008606219672231 $170 $259 forward 7 unknown #
point $-1 -68.20923964199784 -32.151179778917523 -8.2664650227797605 #
point $-1 -68.20923964199784 -32.151179778917523 8.2664650227797605 #
straight-curve $-1 -74.008606219672231 -29.151179778917523 0 0 0 -1 I I #
edge $-1 $258 -32.151179778917523 $177 -29.151179778917523 $223 $260 forward 7 unknown #
point $-1 -74.008606219672231 -29.151179778917523 -8.2664650227797605 #
edge $-1 $180 29.151179778917523 $255 32.151179778917523 $224 $261 forward 7 unknown #
point $-1 -74.008606219672231 -29.151179778917523 8.2664650227797605 #
coedge $-1 $195 $194 $187 $239 forward $184 $-1 #
edge $-1 $240 37.833860305129015 $243 40.902007562114946 $238 $262 forward 7 unknown #
vertex $-1 $199 $263 #
straight-curve $-1 -17.591523514736057 -75.949810656846466 8.2664650227797623 0 -1 0 I I #
edge $-1 $243 -15.929114982252859 $196 12.604297917286463 $195 $264 forward 7 unknown #
vertex $-1 $242 $265 #
straight-curve $-1 -17.591523514736057 -32.151179778917523 5.1983177657938313 0 0.5877852410284794 0.80901700255871778 I I #
point $-1 -17.591523514736057 -29.922040379801555 8.2664650227797605 #
point $-1 10.941889384803265 -32.151179778917523 5.1983177657938313 #
straight-curve $-1 0 -32.151179778917523 8.2664650227797605 1 0 0 I I #
vertex $-1 $202 $266 #
point $-1 -2.8248170649663962 -30.117759642678603 6.0648074947080817 #
straight-curve $-1 -74.008606219672231 32.151179778917523 0 0 0 -1 I I #
point $-1 -74.008606219672231 -32.151179778917523 -8.2664650227797605 #
straight-curve $-1 -74.008606219672231 0 -8.2664650227797605 0 1 0 I I #
point $-1 -74.008606219672231 32.151179778917523 -8.2664650227797605 #
coedge $-1 $224 $223 $229 $257 reversed $100 $-1 #
vertex $-1 $236 $267 #
straight-curve $-1 0 -32.151179778917523 8.2664650227797605 1 0 0 I I #
edge $-1 $255 -8.2664650227797605 $258 8.2664650227797605 $254 $268 forward 7 unknown #
vertex $-1 $234 $269 #
straight-curve $-1 0 -32.151179778917523 -8.2664650227797605 -1 0 0 I I #
straight-curve $-1 -74.008606219672231 0 -8.2664650227797605 0 1 0 I I #
straight-curve $-1 -74.008606219672231 0 8.2664650227797605 0 -1 0 I I #
straight-curve $-1 -17.591523514736057 -32.151179778917523 46.100325327908777 0 0 -1 I I #
point $-1 -17.591523514736057 -32.151179778917523 8.2664650227797605 #
straight-curve $-1 -1.6624085324831981 -32.151179778917523 5.198317765793834 1 0 0 I I #
point $-1 -17.591523514736057 -32.151179778917523 5.1983177657938313 #
point $-1 -3.3248170649663962 -29.713251141399244 5.7709148741938412 #
point $-1 -74.008606219672231 -32.151179778917523 8.2664650227797605 #
straight-curve $-1 -74.008606219672231 -32.151179778917523 0 0 0 -1 I I #
point $-1 -74.008606219672231 -32.151179778917523 -8.2664650227797605 #
End-of-ACIS-data 