500 0 12 0           
7 Unknown 11 ACIS 5.0 NT 24 Fri Mar 26 20:08:57 1999 
-1 9.9999999999999995e-007 1e-010 
body $-1 $12 $-1 $13 #
body $-1 $14 $-1 $15 #
body $-1 $16 $-1 $17 #
body $-1 $18 $-1 $19 #
body $-1 $20 $-1 $21 #
body $-1 $22 $-1 $23 #
body $-1 $24 $-1 $25 #
body $-1 $26 $-1 $27 #
body $-1 $28 $-1 $29 #
body $-1 $30 $-1 $31 #
body $-1 $32 $-1 $33 #
body $-1 $34 $-1 $35 #
lump $-1 $-1 $36 $0 #
transform $-1 1 0 0 0 1 0 0 0 1 60.505996887112033 41.243496288106996 17.286345427483329 1 rotate no_reflect no_shear #
lump $-1 $-1 $37 $1 #
transform $-1 1 0 0 0 1 0 0 0 1 60.505996887112033 41.243496288106996 17.286345427483329 1 rotate no_reflect no_shear #
lump $-1 $-1 $38 $2 #
transform $-1 1 0 0 0 1 0 0 0 1 60.505996887112033 41.243496288106996 17.286345427483329 1 rotate no_reflect no_shear #
lump $-1 $-1 $39 $3 #
transform $-1 1 0 0 0 1 0 0 0 1 60.505996887112033 41.243496288106996 17.286345427483329 1 rotate no_reflect no_shear #
lump $-1 $-1 $40 $4 #
transform $-1 1 0 0 0 1 0 0 0 1 60.505996887112033 41.243496288106996 17.286345427483329 1 rotate no_reflect no_shear #
lump $-1 $-1 $41 $5 #
transform $-1 1 0 0 0 1 0 0 0 1 60.505996887112033 41.243496288106996 17.286345427483329 1 rotate no_reflect no_shear #
lump $-1 $-1 $42 $6 #
transform $-1 1 0 0 0 1 0 0 0 1 60.505996887112033 41.243496288106996 17.286345427483329 1 rotate no_reflect no_shear #
lump $-1 $-1 $43 $7 #
transform $-1 1 0 0 0 1 0 0 0 1 60.505996887112033 41.243496288106996 17.286345427483329 1 rotate no_reflect no_shear #
lump $-1 $-1 $44 $8 #
transform $-1 1 0 0 0 1 0 0 0 1 60.505996887112033 41.243496288106996 17.286345427483329 1 rotate no_reflect no_shear #
lump $-1 $-1 $45 $9 #
transform $-1 1 0 0 0 1 0 0 0 1 60.505996887112033 41.243496288106996 17.286345427483329 1 rotate no_reflect no_shear #
lump $-1 $-1 $46 $10 #
transform $-1 1 0 0 0 1 0 0 0 1 60.505996887112033 41.243496288106996 17.286345427483329 1 rotate no_reflect no_shear #
lump $-1 $-1 $47 $11 #
transform $-1 1 0 0 0 1 0 0 0 1 60.505996887112033 41.243496288106996 17.286345427483329 1 rotate no_reflect no_shear #
shell $-1 $-1 $-1 $48 $-1 $12 #
shell $-1 $-1 $-1 $49 $-1 $14 #
shell $-1 $-1 $-1 $50 $-1 $16 #
shell $-1 $-1 $-1 $51 $-1 $18 #
shell $-1 $-1 $-1 $52 $-1 $20 #
shell $-1 $-1 $-1 $53 $-1 $22 #
shell $-1 $-1 $-1 $54 $-1 $24 #
shell $-1 $-1 $-1 $55 $-1 $26 #
shell $-1 $-1 $-1 $56 $-1 $28 #
shell $-1 $-1 $-1 $57 $-1 $30 #
shell $-1 $-1 $-1 $58 $-1 $32 #
shell $-1 $-1 $-1 $59 $-1 $34 #
face $-1 $60 $61 $36 $-1 $62 forward single #
face $-1 $63 $64 $37 $-1 $65 forward single #
face $-1 $66 $67 $38 $-1 $68 reversed single #
face $-1 $69 $70 $39 $-1 $71 forward single #
face $-1 $72 $73 $40 $-1 $74 forward single #
face $-1 $75 $76 $41 $-1 $77 forward single #
face $-1 $78 $79 $42 $-1 $80 reversed single #
face $-1 $81 $82 $43 $-1 $83 forward single #
face $-1 $84 $85 $44 $-1 $86 forward single #
face $-1 $87 $88 $45 $-1 $89 forward single #
face $-1 $90 $91 $46 $-1 $92 reversed single #
face $-1 $93 $94 $47 $-1 $95 forward single #
face $-1 $96 $97 $36 $-1 $98 reversed single #
loop $-1 $-1 $99 $48 #
plane-surface $-1 0 0 17.286345427483329 0 0 1 1 0 0 forward_v I I I I #
face $-1 $100 $101 $37 $-1 $102 reversed single #
loop $-1 $-1 $103 $49 #
plane-surface $-1 -60.505996887112033 0 0 1 0 0 0 0 -1 forward_v I I I I #
face $-1 $104 $105 $38 $-1 $106 reversed single #
loop $-1 $-1 $107 $50 #
plane-surface $-1 -20.903976311070075 -144.97102129225388 75.918455396484859 -1 0 0 0 -0.85716730853699208 0.51503806187062418 forward_v I I I I #
face $-1 $108 $109 $39 $-1 $110 forward single #
loop $-1 $111 $112 $51 #
cone-surface $-1 -31.415956541556273 -39.705221419270927 15.181990012760581 0 0.85716730853699208 -0.51503806187062418 0.5 0 0 1 I I 0 1 0.5 forward I I I I #
face $-1 $113 $114 $40 $-1 $115 forward single #
loop $-1 $116 $117 $52 #
cone-surface $-1 -27.473963955123949 -39.705221419270927 15.181990012760581 0 0.85716730853699208 -0.51503806187062418 0.5 0 0 1 I I 0 1 0.5 forward I I I I #
face $-1 $118 $119 $41 $-1 $120 forward single #
loop $-1 $121 $122 $53 #
cone-surface $-1 -23.531971368691622 -39.705221419270927 15.181990012760581 0 0.85716730853699208 -0.51503806187062418 0.5 0 0 1 I I 0 1 0.5 forward I I I I #
face $-1 $123 $124 $42 $-1 $125 reversed single #
loop $-1 $-1 $126 $54 #
plane-surface $-1 31.619698301054079 -144.97102129225388 75.918455396484859 -1 0 0 0 -0.85716730853699208 0.51503806187062418 forward_v I I I I #
face $-1 $127 $128 $43 $-1 $129 forward single #
loop $-1 $130 $131 $55 #
cone-surface $-1 21.107718070567884 -39.705221419270927 15.181990012760581 0 0.85716730853699208 -0.51503806187062418 0.5 0 0 1 I I 0 1 0.5 forward I I I I #
face $-1 $132 $133 $44 $-1 $134 forward single #
loop $-1 $135 $136 $56 #
cone-surface $-1 25.049710657000205 -39.705221419270927 15.181990012760581 0 0.85716730853699208 -0.51503806187062418 0.5 0 0 1 I I 0 1 0.5 forward I I I I #
face $-1 $137 $138 $45 $-1 $139 forward single #
loop $-1 $140 $141 $57 #
cone-surface $-1 28.991703243432539 -39.705221419270927 15.181990012760581 0 0.85716730853699208 -0.51503806187062418 0.5 0 0 1 I I 0 1 0.5 forward I I I I #
face $-1 $142 $143 $46 $-1 $144 reversed single #
loop $-1 $-1 $145 $58 #
plane-surface $-1 -13.392246229245174 78.45607284699814 148.28716324975875 1 0 0 0 -0.75470958851134928 -0.65605901945558964 forward_v I I I I #
face $-1 $146 $147 $47 $-1 $148 forward single #
loop $-1 $149 $150 $59 #
cone-surface $-1 -8.05396095562363 34.60130545590151 10.212006684933501 0 -0.75470958851134928 -0.65605901945558964 2 0 0 1 I I 0 1 2 forward I I I I #
face $-1 $151 $152 $36 $-1 $153 reversed single #
loop $-1 $-1 $154 $60 #
plane-surface $-1 0 0 -17.286345427483329 0 0 1 1 0 0 forward_v I I I I #
coedge $-1 $155 $156 $157 $158 forward $61 $-1 #
face $-1 $159 $160 $37 $-1 $161 reversed single #
loop $-1 $-1 $162 $63 #
plane-surface $-1 0 0 -17.286345427483329 0 0 1 1 0 0 forward_v I I I I #
coedge $-1 $163 $164 $165 $166 forward $64 $-1 #
face $-1 $167 $168 $38 $-1 $169 reversed single #
loop $-1 $-1 $170 $66 #
plane-surface $-1 -27.473963955123949 -41.243496288106996 13.592672659908459 0 -0.85716730853699208 0.51503806187062418 1 0 0 forward_v I I I I #
coedge $-1 $171 $172 $173 $174 reversed $67 $-1 #
face $-1 $-1 $175 $39 $-1 $176 forward single #
loop $-1 $177 $178 $69 #
cone-surface $-1 -31.415956541556273 -39.06234593786818 14.795711466357613 0 0.85716730853699208 -0.51503806187062418 0.25 0 0 1 I I -0.70710678118654746 0.70710678118654746 0.25 forward I I I I #
loop $-1 $-1 $179 $51 #
coedge $-1 $112 $112 $180 $181 reversed $70 $-1 #
face $-1 $-1 $182 $40 $-1 $183 forward single #
loop $-1 $184 $185 $72 #
cone-surface $-1 -27.473963955123949 -39.06234593786818 14.795711466357613 0 0.85716730853699208 -0.51503806187062418 0.25 0 0 1 I I -0.70710678118654746 0.70710678118654746 0.25 forward I I I I #
loop $-1 $-1 $186 $52 #
coedge $-1 $117 $117 $187 $188 reversed $73 $-1 #
face $-1 $-1 $189 $41 $-1 $190 forward single #
loop $-1 $191 $192 $75 #
cone-surface $-1 -23.531971368691622 -39.06234593786818 14.795711466357613 0 0.85716730853699208 -0.51503806187062418 0.25 0 0 1 I I -0.70710678118654746 0.70710678118654746 0.25 forward I I I I #
loop $-1 $-1 $193 $53 #
coedge $-1 $122 $122 $194 $195 reversed $76 $-1 #
face $-1 $196 $197 $42 $-1 $198 reversed single #
loop $-1 $-1 $199 $78 #
plane-surface $-1 25.049710657000205 -41.243496288106996 13.592672659908459 0 -0.85716730853699208 0.51503806187062418 1 0 0 forward_v I I I I #
coedge $-1 $200 $201 $202 $203 reversed $79 $-1 #
face $-1 $-1 $204 $43 $-1 $205 forward single #
loop $-1 $206 $207 $81 #
cone-surface $-1 21.107718070567884 -39.06234593786818 14.795711466357613 0 0.85716730853699208 -0.51503806187062418 0.25 0 0 1 I I -0.70710678118654746 0.70710678118654746 0.25 forward I I I I #
loop $-1 $-1 $208 $55 #
coedge $-1 $131 $131 $209 $210 reversed $82 $-1 #
face $-1 $-1 $211 $44 $-1 $212 forward single #
loop $-1 $213 $214 $84 #
cone-surface $-1 25.049710657000205 -39.06234593786818 14.795711466357613 0 0.85716730853699208 -0.51503806187062418 0.25 0 0 1 I I -0.70710678118654746 0.70710678118654746 0.25 forward I I I I #
loop $-1 $-1 $215 $56 #
coedge $-1 $136 $136 $216 $217 reversed $85 $-1 #
face $-1 $-1 $218 $45 $-1 $219 forward single #
loop $-1 $220 $221 $87 #
cone-surface $-1 28.991703243432539 -39.06234593786818 14.795711466357613 0 0.85716730853699208 -0.51503806187062418 0.25 0 0 1 I I -0.70710678118654746 0.70710678118654746 0.25 forward I I I I #
loop $-1 $-1 $222 $57 #
coedge $-1 $141 $141 $223 $224 reversed $88 $-1 #
face $-1 $225 $226 $46 $-1 $227 reversed single #
loop $-1 $-1 $228 $90 #
plane-surface $-1 -8.05396095562363 -12.872839179284469 68.896153271875392 0 0.75470958851134928 0.65605901945558964 1 0 0 forward_v I I I I #
coedge $-1 $229 $230 $231 $232 reversed $91 $-1 #
face $-1 $-1 $233 $47 $-1 $234 forward single #
loop $-1 $235 $236 $93 #
cone-surface $-1 -8.05396095562363 31.830712591067069 7.8035671130986408 0 -0.75470958851134928 -0.65605901945558964 1 0 0 1 I I -0.70710678118654746 0.70710678118654746 1 forward I I I I #
loop $-1 $-1 $237 $59 #
coedge $-1 $150 $150 $238 $239 reversed $94 $-1 #
face $-1 $240 $241 $36 $-1 $242 reversed single #
loop $-1 $-1 $243 $96 #
plane-surface $-1 0 -41.243496288106996 0 0 1 0 0 0 1 forward_v I I I I #
coedge $-1 $244 $245 $246 $247 forward $97 $-1 #
coedge $-1 $248 $99 $249 $250 forward $61 $-1 #
coedge $-1 $99 $248 $251 $252 forward $61 $-1 #
coedge $-1 $253 $254 $99 $158 reversed $255 $-1 #
edge $-1 $256 -41.243496288106996 $257 41.243496288106996 $157 $258 forward 7 unknown #
face $-1 $259 $260 $37 $-1 $261 reversed single #
loop $-1 $-1 $262 $100 #
plane-surface $-1 -68.488319162099899 -24.3321105026114 0 0 1 0 0 0 1 forward_v I I I I #
coedge $-1 $263 $264 $164 $265 forward $101 $-1 #
coedge $-1 $266 $103 $267 $268 reversed $64 $-1 #
coedge $-1 $103 $266 $162 $265 reversed $64 $-1 #
coedge $-1 $269 $270 $103 $166 reversed $271 $-1 #
edge $-1 $272 -17.286345427483329 $273 17.286345427483329 $165 $274 forward 7 unknown #
face $-1 $275 $276 $38 $-1 $277 forward single #
loop $-1 $-1 $278 $104 #
plane-surface $-1 -34.043951599177824 -144.97102129225388 75.918455396484859 1 0 0 0 0.85716730853699208 -0.51503806187062418 forward_v I I I I #
coedge $-1 $279 $280 $281 $282 reversed $105 $-1 #
coedge $-1 $172 $107 $283 $284 reversed $67 $-1 #
coedge $-1 $107 $171 $279 $285 reversed $67 $-1 #
coedge $-1 $281 $286 $107 $174 forward $276 $-1 #
edge $-1 $287 31.242014358019944 $288 33.461396787155088 $173 $289 forward 7 unknown #
loop $-1 $-1 $180 $108 #
plane-surface $-1 -27.473963955123949 -41.243496288106996 13.592672659908459 0 -0.85716730853699208 0.51503806187062418 1 0 0 forward_v I I I I #
loop $-1 $-1 $290 $69 #
coedge $-1 $178 $178 $179 $291 reversed $109 $-1 #
coedge $-1 $179 $179 $178 $291 forward $111 $-1 #
coedge $-1 $180 $180 $112 $181 forward $175 $-1 #
edge $-1 $292 0 $292 6.2831853071796004 $180 $293 forward 7 unknown #
loop $-1 $-1 $187 $113 #
plane-surface $-1 -27.473963955123949 -41.243496288106996 13.592672659908459 0 -0.85716730853699208 0.51503806187062418 1 0 0 forward_v I I I I #
loop $-1 $-1 $294 $72 #
coedge $-1 $185 $185 $186 $295 reversed $114 $-1 #
coedge $-1 $186 $186 $185 $295 forward $116 $-1 #
coedge $-1 $187 $187 $117 $188 forward $182 $-1 #
edge $-1 $296 0 $296 6.2831853071796004 $187 $297 forward 7 unknown #
loop $-1 $-1 $194 $118 #
plane-surface $-1 -27.473963955123949 -41.243496288106996 13.592672659908459 0 -0.85716730853699208 0.51503806187062418 1 0 0 forward_v I I I I #
loop $-1 $-1 $298 $75 #
coedge $-1 $192 $192 $193 $299 reversed $119 $-1 #
coedge $-1 $193 $193 $192 $299 forward $121 $-1 #
coedge $-1 $194 $194 $122 $195 forward $189 $-1 #
edge $-1 $300 0 $300 6.2831853071796004 $194 $301 forward 7 unknown #
face $-1 $302 $303 $42 $-1 $304 reversed single #
loop $-1 $-1 $305 $123 #
plane-surface $-1 18.47972301294633 -144.97102129225388 75.918455396484859 1 0 0 0 0.85716730853699208 -0.51503806187062418 forward_v I I I I #
coedge $-1 $306 $307 $308 $309 reversed $124 $-1 #
coedge $-1 $201 $126 $310 $311 reversed $79 $-1 #
coedge $-1 $126 $200 $306 $312 reversed $79 $-1 #
coedge $-1 $308 $313 $126 $203 forward $314 $-1 #
edge $-1 $315 31.242014358019944 $316 33.461396787155088 $202 $317 forward 7 unknown #
loop $-1 $-1 $209 $127 #
plane-surface $-1 25.049710657000205 -41.243496288106996 13.592672659908459 0 -0.85716730853699208 0.51503806187062418 1 0 0 forward_v I I I I #
loop $-1 $-1 $318 $81 #
coedge $-1 $207 $207 $208 $319 reversed $128 $-1 #
coedge $-1 $208 $208 $207 $319 forward $130 $-1 #
coedge $-1 $209 $209 $131 $210 forward $204 $-1 #
edge $-1 $320 0 $320 6.2831853071796004 $209 $321 forward 7 unknown #
loop $-1 $-1 $216 $132 #
plane-surface $-1 25.049710657000205 -41.243496288106996 13.592672659908459 0 -0.85716730853699208 0.51503806187062418 1 0 0 forward_v I I I I #
loop $-1 $-1 $322 $84 #
coedge $-1 $214 $214 $215 $323 reversed $133 $-1 #
coedge $-1 $215 $215 $214 $323 forward $135 $-1 #
coedge $-1 $216 $216 $136 $217 forward $211 $-1 #
edge $-1 $324 0 $324 6.2831853071796004 $216 $325 forward 7 unknown #
loop $-1 $-1 $223 $137 #
plane-surface $-1 25.049710657000205 -41.243496288106996 13.592672659908459 0 -0.85716730853699208 0.51503806187062418 1 0 0 forward_v I I I I #
loop $-1 $-1 $326 $87 #
coedge $-1 $221 $221 $222 $327 reversed $138 $-1 #
coedge $-1 $222 $222 $221 $327 forward $140 $-1 #
coedge $-1 $223 $223 $141 $224 forward $218 $-1 #
edge $-1 $328 0 $328 6.2831853071796004 $223 $329 forward 7 unknown #
face $-1 $330 $331 $46 $-1 $332 reversed single #
loop $-1 $-1 $333 $142 #
plane-surface $-1 -2.715675682002086 78.45607284699814 148.28716324975875 -1 0 0 0 0.75470958851134928 0.65605901945558964 forward_v I I I I #
coedge $-1 $334 $335 $336 $337 reversed $143 $-1 #
coedge $-1 $230 $145 $338 $339 reversed $91 $-1 #
coedge $-1 $145 $229 $334 $340 reversed $91 $-1 #
coedge $-1 $336 $341 $145 $232 forward $342 $-1 #
edge $-1 $343 -2.0154598646079265 $344 7.2371552471568492 $231 $345 forward 7 unknown #
loop $-1 $-1 $238 $146 #
plane-surface $-1 -8.05396095562363 -12.872839179284469 68.896153271875392 0 0.75470958851134928 0.65605901945558964 1 0 0 forward_v I I I I #
loop $-1 $-1 $346 $93 #
coedge $-1 $236 $236 $237 $347 reversed $147 $-1 #
coedge $-1 $237 $237 $236 $347 forward $149 $-1 #
coedge $-1 $238 $238 $150 $239 forward $233 $-1 #
edge $-1 $348 1.6604730828637751e-015 $348 6.2831853071796022 $238 $349 forward 7 unknown #
face $-1 $350 $351 $36 $-1 $352 reversed single #
loop $-1 $-1 $353 $151 #
plane-surface $-1 -60.505996887112033 0 0 1 0 0 0 0 -1 forward_v I I I I #
coedge $-1 $354 $251 $355 $356 forward $152 $-1 #
coedge $-1 $357 $154 $354 $358 forward $97 $-1 #
coedge $-1 $154 $357 $359 $360 forward $97 $-1 #
coedge $-1 $254 $253 $154 $247 reversed $255 $-1 #
edge $-1 $361 -41.243496288106996 $362 41.243496288106996 $246 $363 forward 7 unknown #
coedge $-1 $156 $155 $364 $365 forward $61 $-1 #
coedge $-1 $366 $367 $155 $250 reversed $351 $-1 #
edge $-1 $257 -60.505996887112033 $368 60.505996887112033 $249 $369 forward 7 unknown #
coedge $-1 $243 $370 $156 $252 reversed $152 $-1 #
edge $-1 $371 -60.505996887112033 $256 60.505996887112033 $251 $372 forward 7 unknown #
coedge $-1 $246 $157 $370 $373 forward $255 $-1 #
coedge $-1 $157 $246 $366 $374 reversed $255 $-1 #
loop $-1 $-1 $253 $350 #
vertex $-1 $158 $375 #
vertex $-1 $158 $376 #
straight-curve $-1 60.505996887112033 0 17.286345427483329 0 1 0 I I #
face $-1 $377 $271 $37 $-1 $378 reversed single #
loop $-1 $-1 $379 $159 #
plane-surface $-1 -76.470641437087764 -19.160661840176914 0 1 0 0 0 0 -1 forward_v I I I I #
coedge $-1 $380 $381 $382 $383 forward $160 $-1 #
coedge $-1 $384 $162 $380 $385 forward $101 $-1 #
coedge $-1 $162 $384 $269 $386 forward $101 $-1 #
edge $-1 $272 13.989213177742426 $387 24.3321105026114 $162 $388 forward 7 unknown #
coedge $-1 $164 $163 $389 $390 forward $64 $-1 #
coedge $-1 $391 $392 $163 $268 forward $393 $-1 #
edge $-1 $394 -24.3321105026114 $273 -13.989213177742426 $267 $395 forward 7 unknown #
coedge $-1 $396 $165 $264 $386 reversed $271 $-1 #
coedge $-1 $165 $396 $391 $397 reversed $271 $-1 #
loop $-1 $-1 $165 $259 #
vertex $-1 $265 $398 #
vertex $-1 $397 $399 #
straight-curve $-1 -60.505996887112033 -13.989213177742426 0 0 0 1 I I #
face $-1 $-1 $400 $38 $-1 $401 reversed single #
loop $-1 $-1 $173 $167 #
plane-surface $-1 0 0 17.286345427483329 0 0 1 1 0 0 forward_v I I I I #
coedge $-1 $402 $403 $404 $405 reversed $168 $-1 #
coedge $-1 $406 $170 $172 $285 forward $105 $-1 #
coedge $-1 $170 $406 $402 $407 forward $105 $-1 #
coedge $-1 $404 $173 $170 $282 forward $276 $-1 #
edge $-1 $288 7.1669943335081001 $408 20.306969621615849 $281 $409 forward 7 unknown #
coedge $-1 $410 $411 $171 $284 forward $400 $-1 #
edge $-1 $412 -24.366555038333971 $287 -20.6728822707591 $283 $413 forward 7 unknown #
edge $-1 $288 -4.3091619696500194 $412 0 $172 $414 forward 7 unknown #
coedge $-1 $173 $404 $410 $415 forward $276 $-1 #
vertex $-1 $174 $416 #
vertex $-1 $174 $417 #
straight-curve $-1 -20.903976311070075 -72.48551064612694 17.286345427483329 0 1 0 I I #
coedge $-1 $290 $290 $-1 $418 reversed $177 $-1 #
edge $-1 $419 0 $419 6.2831853071796004 $178 $420 forward 7 unknown #
vertex $-1 $181 $421 #
ellipse-curve $-1 -31.415956541556273 -40.133805073539421 15.439509043695892 0 -0.85716730853699208 0.51503806187062418 0.5 0 0 1 I I #
coedge $-1 $294 $294 $-1 $422 reversed $184 $-1 #
edge $-1 $423 0 $423 6.2831853071796004 $185 $424 forward 7 unknown #
vertex $-1 $188 $425 #
ellipse-curve $-1 -27.473963955123949 -40.133805073539421 15.439509043695892 0 -0.85716730853699208 0.51503806187062418 0.5 0 0 1 I I #
coedge $-1 $298 $298 $-1 $426 reversed $191 $-1 #
edge $-1 $427 0 $427 6.2831853071796004 $192 $428 forward 7 unknown #
vertex $-1 $195 $429 #
ellipse-curve $-1 -23.531971368691622 -40.133805073539421 15.439509043695892 0 -0.85716730853699208 0.51503806187062418 0.5 0 0 1 I I #
face $-1 $-1 $314 $42 $-1 $430 forward single #
loop $-1 $-1 $431 $196 #
plane-surface $-1 0 -41.243496288106996 0 0 1 0 0 0 1 forward_v I I I I #
coedge $-1 $432 $433 $434 $435 reversed $197 $-1 #
coedge $-1 $436 $199 $201 $312 forward $124 $-1 #
coedge $-1 $199 $436 $432 $437 forward $124 $-1 #
coedge $-1 $434 $202 $199 $309 forward $314 $-1 #
edge $-1 $316 -19.094842972553977 $438 -5.9548676844462278 $308 $439 forward 7 unknown #
coedge $-1 $440 $441 $200 $311 forward $303 $-1 #
edge $-1 $442 -24.366555038333971 $315 -20.6728822707591 $310 $443 forward 7 unknown #
edge $-1 $316 -4.3091619696500194 $442 0 $201 $444 forward 7 unknown #
coedge $-1 $202 $434 $440 $445 forward $314 $-1 #
loop $-1 $-1 $434 $302 #
vertex $-1 $311 $446 #
vertex $-1 $203 $447 #
straight-curve $-1 31.619698301054079 -72.48551064612694 17.286345427483329 0 1 0 I I #
coedge $-1 $318 $318 $-1 $448 reversed $206 $-1 #
edge $-1 $449 0 $449 6.2831853071796004 $207 $450 forward 7 unknown #
vertex $-1 $210 $451 #
ellipse-curve $-1 21.107718070567884 -40.133805073539421 15.439509043695892 0 -0.85716730853699208 0.51503806187062418 0.5 0 0 1 I I #
coedge $-1 $322 $322 $-1 $452 reversed $213 $-1 #
edge $-1 $453 0 $453 6.2831853071796004 $214 $454 forward 7 unknown #
vertex $-1 $217 $455 #
ellipse-curve $-1 25.049710657000205 -40.133805073539421 15.439509043695892 0 -0.85716730853699208 0.51503806187062418 0.5 0 0 1 I I #
coedge $-1 $326 $326 $-1 $456 reversed $220 $-1 #
edge $-1 $457 0 $457 6.2831853071796004 $221 $458 forward 7 unknown #
vertex $-1 $224 $459 #
ellipse-curve $-1 28.991703243432539 -40.133805073539421 15.439509043695892 0 -0.85716730853699208 0.51503806187062418 0.5 0 0 1 I I #
face $-1 $-1 $342 $46 $-1 $460 forward single #
loop $-1 $-1 $461 $225 #
plane-surface $-1 0 41.243496288106996 0 0 -1 0 0 0 -1 forward_v I I I I #
coedge $-1 $462 $463 $464 $465 reversed $226 $-1 #
coedge $-1 $466 $228 $230 $340 forward $143 $-1 #
coedge $-1 $228 $466 $462 $467 forward $143 $-1 #
coedge $-1 $464 $231 $228 $337 forward $342 $-1 #
edge $-1 $344 -9.365265751433359 $468 1.311304795809729 $336 $469 forward 7 unknown #
coedge $-1 $470 $471 $229 $339 forward $331 $-1 #
edge $-1 $472 -67.501152577737173 $343 -56.857236197396048 $338 $473 forward 7 unknown #
edge $-1 $344 68.383665227033205 $472 82.486992576214035 $230 $474 forward 7 unknown #
coedge $-1 $231 $464 $470 $475 forward $342 $-1 #
loop $-1 $-1 $464 $330 #
vertex $-1 $339 $476 #
vertex $-1 $232 $477 #
straight-curve $-1 -13.392246229245174 39.22803642349907 17.286345427483326 0 -1 0 I I #
coedge $-1 $346 $346 $-1 $478 reversed $235 $-1 #
edge $-1 $479 0 $479 6.2831853071796004 $236 $480 forward 7 unknown #
vertex $-1 $239 $481 #
ellipse-curve $-1 -8.05396095562363 36.617188732224598 11.964387237312769 0 0.75470958851134928 0.65605901945558964 2 0 0 1 I I #
face $-1 $-1 $255 $36 $-1 $482 reversed single #
loop $-1 $-1 $366 $240 #
plane-surface $-1 0 41.243496288106996 0 0 -1 0 0 0 -1 forward_v I I I I #
coedge $-1 $483 $364 $367 $484 forward $241 $-1 #
coedge $-1 $370 $243 $244 $358 reversed $152 $-1 #
coedge $-1 $364 $483 $243 $356 reversed $241 $-1 #
edge $-1 $371 -17.286345427483329 $485 17.286345427483329 $355 $486 forward 7 unknown #
coedge $-1 $245 $244 $483 $487 forward $97 $-1 #
edge $-1 $362 -60.505996887112033 $485 60.505996887112033 $354 $488 forward 7 unknown #
coedge $-1 $367 $366 $245 $360 reversed $351 $-1 #
edge $-1 $489 -60.505996887112033 $361 60.505996887112033 $359 $490 forward 7 unknown #
vertex $-1 $247 $491 #
vertex $-1 $373 $492 #
straight-curve $-1 60.505996887112033 0 -17.286345427483329 0 -1 0 I I #
coedge $-1 $353 $355 $248 $365 reversed $241 $-1 #
edge $-1 $368 -41.243496288106996 $371 41.243496288106996 $364 $493 forward 7 unknown #
coedge $-1 $359 $249 $254 $374 forward $351 $-1 #
coedge $-1 $249 $359 $353 $484 reversed $351 $-1 #
vertex $-1 $250 $494 #
straight-curve $-1 0 41.243496288106996 17.286345427483329 -1 0 0 I I #
coedge $-1 $251 $354 $253 $373 reversed $152 $-1 #
vertex $-1 $365 $495 #
straight-curve $-1 0 -41.243496288106996 17.286345427483329 1 0 0 I I #
edge $-1 $256 -17.286345427483329 $362 17.286345427483329 $253 $496 forward 7 unknown #
edge $-1 $257 -17.286345427483329 $361 17.286345427483329 $254 $497 forward 7 unknown #
point $-1 60.505996887112033 -41.243496288106996 17.286345427483329 #
point $-1 60.505996887112033 41.243496288106996 17.286345427483329 #
face $-1 $-1 $393 $37 $-1 $498 forward single #
plane-surface $-1 -68.488319162099899 -13.989213177742426 0 0 -1 0 0 0 -1 forward_v I I I I #
coedge $-1 $499 $500 $396 $501 forward $260 $-1 #
coedge $-1 $389 $262 $263 $385 reversed $160 $-1 #
coedge $-1 $262 $389 $392 $502 reversed $160 $-1 #
coedge $-1 $500 $499 $262 $383 reversed $260 $-1 #
edge $-1 $503 -17.286345427483329 $504 17.286345427483329 $382 $505 forward 7 unknown #
coedge $-1 $264 $263 $499 $506 forward $101 $-1 #
edge $-1 $387 -7.9823222749878724 $504 7.9823222749878653 $380 $507 forward 7 unknown #
edge $-1 $508 -7.9823222749878653 $272 7.9823222749878724 $269 $509 forward 7 unknown #
vertex $-1 $385 $510 #
straight-curve $-1 -60.505996887112033 0 -17.286345427483329 0 -1 0 I I #
coedge $-1 $381 $380 $266 $390 reversed $160 $-1 #
edge $-1 $394 -17.286345427483329 $387 17.286345427483329 $389 $511 forward 7 unknown #
coedge $-1 $512 $267 $270 $397 forward $393 $-1 #
coedge $-1 $267 $512 $381 $502 forward $393 $-1 #
loop $-1 $-1 $267 $377 #
vertex $-1 $268 $513 #
straight-curve $-1 -60.505996887112033 0 17.286345427483329 0 1 0 I I #
coedge $-1 $270 $269 $379 $501 reversed $271 $-1 #
edge $-1 $273 -7.9823222749878724 $514 7.9823222749878653 $270 $515 forward 7 unknown #
point $-1 -60.505996887112026 -13.989213177742426 -17.286345427483329 #
point $-1 -60.505996887112026 -13.989213177742426 17.286345427483329 #
loop $-1 $-1 $283 $275 #
plane-surface $-1 0 -41.243496288106996 0 0 1 0 0 0 1 forward_v I I I I #
coedge $-1 $403 $278 $280 $407 reversed $168 $-1 #
coedge $-1 $278 $402 $516 $517 reversed $168 $-1 #
coedge $-1 $286 $281 $278 $405 forward $276 $-1 #
edge $-1 $408 -33.461396787155088 $518 -31.242014358019944 $404 $519 forward 7 unknown #
coedge $-1 $280 $279 $411 $520 reversed $105 $-1 #
edge $-1 $521 0 $408 4.3091619696500194 $402 $522 forward 7 unknown #
vertex $-1 $282 $523 #
straight-curve $-1 -13.736981977561975 -39.024113858971845 17.286345427483329 -1 0 0 I I #
coedge $-1 $516 $283 $286 $415 reversed $400 $-1 #
coedge $-1 $283 $516 $406 $520 forward $400 $-1 #
vertex $-1 $284 $524 #
straight-curve $-1 -20.903976311070075 -41.243496288106996 37.959227698242429 0 0 1 I I #
straight-curve $-1 -20.903976311070075 -41.243496288106996 13.592672659908459 0 -0.51503806187062418 -0.85716730853699208 I I #
edge $-1 $518 -34.043951599177824 $287 -20.903976311070075 $410 $525 forward 7 unknown #
point $-1 -20.903976311070075 -41.243496288106996 17.286345427483329 #
point $-1 -20.903976311070075 -39.024113858971852 17.286345427483329 #
edge $-1 $526 1 $526 0 $290 $-1 forward 7 unknown #
vertex $-1 $291 $527 #
ellipse-curve $-1 -31.415956541556273 -39.276637765002427 14.924470981825269 0 -0.85716730853699208 0.51503806187062418 0.5 0 0 1 I I #
point $-1 -30.915956541556273 -40.133805073539421 15.439509043695892 #
edge $-1 $528 1 $528 0 $294 $-1 forward 7 unknown #
vertex $-1 $295 $529 #
ellipse-curve $-1 -27.473963955123949 -39.276637765002427 14.924470981825269 0 -0.85716730853699208 0.51503806187062418 0.5 0 0 1 I I #
point $-1 -26.973963955123949 -40.133805073539421 15.439509043695892 #
edge $-1 $530 1 $530 0 $298 $-1 forward 7 unknown #
vertex $-1 $299 $531 #
ellipse-curve $-1 -23.531971368691622 -39.276637765002427 14.924470981825269 0 -0.85716730853699208 0.51503806187062418 0.5 0 0 1 I I #
point $-1 -23.031971368691622 -40.133805073539421 15.439509043695892 #
plane-surface $-1 0 0 17.286345427483329 0 0 1 1 0 0 forward_v I I I I #
coedge $-1 $441 $440 $433 $532 forward $303 $-1 #
coedge $-1 $433 $305 $307 $437 reversed $197 $-1 #
coedge $-1 $305 $432 $431 $532 reversed $197 $-1 #
coedge $-1 $313 $308 $305 $435 forward $314 $-1 #
edge $-1 $438 -33.461396787155088 $533 -31.242014358019944 $434 $534 forward 7 unknown #
coedge $-1 $307 $306 $441 $535 reversed $124 $-1 #
edge $-1 $536 0 $438 4.3091619696500194 $432 $537 forward 7 unknown #
vertex $-1 $309 $538 #
straight-curve $-1 12.524855328500102 -39.024113858971845 17.286345427483329 -1 0 0 I I #
coedge $-1 $431 $310 $313 $445 reversed $303 $-1 #
coedge $-1 $310 $431 $436 $535 forward $303 $-1 #
vertex $-1 $311 $539 #
straight-curve $-1 31.619698301054079 -41.243496288106996 37.959227698242429 0 0 1 I I #
straight-curve $-1 31.619698301054079 -41.243496288106996 13.592672659908459 0 -0.51503806187062418 -0.85716730853699208 I I #
edge $-1 $533 18.47972301294633 $315 31.619698301054079 $440 $540 forward 7 unknown #
point $-1 31.619698301054079 -41.243496288106996 17.286345427483329 #
point $-1 31.619698301054079 -39.024113858971852 17.286345427483329 #
edge $-1 $541 1 $541 0 $318 $-1 forward 7 unknown #
vertex $-1 $319 $542 #
ellipse-curve $-1 21.107718070567884 -39.276637765002427 14.924470981825269 0 -0.85716730853699208 0.51503806187062418 0.5 0 0 1 I I #
point $-1 21.607718070567884 -40.133805073539421 15.439509043695892 #
edge $-1 $543 1 $543 0 $322 $-1 forward 7 unknown #
vertex $-1 $323 $544 #
ellipse-curve $-1 25.049710657000205 -39.276637765002427 14.924470981825269 0 -0.85716730853699208 0.51503806187062418 0.5 0 0 1 I I #
point $-1 25.549710657000205 -40.133805073539421 15.439509043695892 #
edge $-1 $545 1 $545 0 $326 $-1 forward 7 unknown #
vertex $-1 $327 $546 #
ellipse-curve $-1 28.991703243432539 -39.276637765002427 14.924470981825269 0 -0.85716730853699208 0.51503806187062418 0.5 0 0 1 I I #
point $-1 29.491703243432539 -40.133805073539421 15.439509043695892 #
plane-surface $-1 0 0 17.286345427483329 0 0 1 1 0 0 forward_v I I I I #
coedge $-1 $471 $470 $463 $547 forward $331 $-1 #
coedge $-1 $463 $333 $335 $467 reversed $226 $-1 #
coedge $-1 $333 $462 $461 $547 reversed $226 $-1 #
coedge $-1 $341 $336 $333 $465 forward $342 $-1 #
edge $-1 $468 -7.2371552471568492 $548 2.0154598646079265 $464 $549 forward 7 unknown #
coedge $-1 $335 $334 $471 $550 reversed $143 $-1 #
edge $-1 $551 -82.486992576214035 $468 -68.383665227033205 $462 $552 forward 7 unknown #
vertex $-1 $337 $553 #
straight-curve $-1 -4.026980477811815 31.990881176342207 17.286345427483326 1 0 0 I I #
coedge $-1 $461 $338 $341 $475 reversed $331 $-1 #
coedge $-1 $338 $461 $466 $550 forward $331 $-1 #
vertex $-1 $339 $554 #
straight-curve $-1 -13.392246229245174 41.243496288106996 74.143581624879374 0 0 1 I I #
straight-curve $-1 -13.392246229245174 -12.872839179284469 68.896153271875392 0 0.65605901945558964 -0.75470958851134928 I I #
edge $-1 $548 2.715675682002086 $343 13.392246229245174 $470 $555 forward 7 unknown #
point $-1 -13.392246229245174 41.243496288106996 17.286345427483329 #
point $-1 -13.392246229245174 31.990881176342221 17.286345427483319 #
edge $-1 $556 1 $556 0 $346 $-1 forward 7 unknown #
vertex $-1 $347 $557 #
ellipse-curve $-1 -8.05396095562363 32.585422179578416 8.4596261325542308 0 0.75470958851134928 0.65605901945558964 2 0 0 1 I I #
point $-1 -6.05396095562363 36.617188732224605 11.964387237312771 #
plane-surface $-1 60.505996887112033 0 0 -1 0 0 0 0 1 forward_v I I I I #
coedge $-1 $355 $353 $357 $487 reversed $241 $-1 #
edge $-1 $368 -17.286345427483329 $489 17.286345427483329 $367 $558 forward 7 unknown #
vertex $-1 $487 $559 #
straight-curve $-1 -60.505996887112033 -41.243496288106996 0 0 0 -1 I I #
edge $-1 $485 -41.243496288106996 $489 41.243496288106996 $483 $560 forward 7 unknown #
straight-curve $-1 0 -41.243496288106996 -17.286345427483329 -1 0 0 I I #
vertex $-1 $360 $561 #
straight-curve $-1 0 41.243496288106996 -17.286345427483329 1 0 0 I I #
point $-1 60.505996887112033 41.243496288106996 -17.286345427483329 #
point $-1 60.505996887112033 -41.243496288106996 -17.286345427483329 #
straight-curve $-1 -60.505996887112033 0 17.286345427483329 0 -1 0 I I #
point $-1 -60.505996887112033 41.243496288106996 17.286345427483329 #
point $-1 -60.505996887112033 -41.243496288106996 17.286345427483329 #
straight-curve $-1 60.505996887112033 -41.243496288106996 0 0 0 -1 I I #
straight-curve $-1 60.505996887112033 41.243496288106996 0 0 0 -1 I I #
plane-surface $-1 0 0 17.286345427483329 0 0 1 1 0 0 forward_v I I I I #
coedge $-1 $382 $379 $384 $506 reversed $260 $-1 #
coedge $-1 $379 $382 $512 $562 reversed $260 $-1 #
edge $-1 $514 -17.286345427483329 $508 17.286345427483329 $396 $563 forward 7 unknown #
edge $-1 $503 -7.9823222749878653 $394 7.9823222749878724 $381 $564 forward 7 unknown #
vertex $-1 $562 $565 #
vertex $-1 $506 $566 #
straight-curve $-1 -76.470641437087764 -24.3321105026114 0 0 0 -1 I I #
edge $-1 $504 -5.1714486624344858 $508 5.1714486624344875 $499 $567 forward 7 unknown #
straight-curve $-1 -68.488319162099899 -24.3321105026114 -17.286345427483329 -1 0 0 I I #
vertex $-1 $386 $568 #
straight-curve $-1 -68.488319162099899 -13.989213177742426 -17.286345427483329 1 0 0 I I #
point $-1 -60.505996887112026 -24.3321105026114 -17.286345427483329 #
straight-curve $-1 -60.505996887112033 -24.3321105026114 0 0 0 -1 I I #
coedge $-1 $392 $391 $500 $562 forward $393 $-1 #
point $-1 -60.505996887112026 -24.3321105026114 17.286345427483329 #
vertex $-1 $397 $569 #
straight-curve $-1 -68.488319162099899 -13.989213177742426 17.286345427483329 -1 0 0 I I #
coedge $-1 $411 $410 $403 $517 forward $400 $-1 #
edge $-1 $518 20.6728822707591 $521 24.366555038333971 $516 $570 forward 7 unknown #
vertex $-1 $415 $571 #
straight-curve $-1 -34.043951599177824 -72.48551064612694 17.286345427483329 0 -1 0 I I #
edge $-1 $521 -20.306969621615849 $412 -7.1669943335081001 $411 $572 forward 7 unknown #
vertex $-1 $520 $573 #
straight-curve $-1 -34.043951599177824 -41.243496288106996 13.592672659908459 0 0.51503806187062418 0.85716730853699208 I I #
point $-1 -34.043951599177824 -39.024113858971852 17.286345427483329 #
point $-1 -20.903976311070075 -41.243496288106996 13.592672659908459 #
straight-curve $-1 0 -41.243496288106996 17.286345427483329 1 0 0 I I #
vertex $-1 $418 $574 #
point $-1 -30.915956541556273 -39.276637765002427 14.924470981825269 #
vertex $-1 $422 $575 #
point $-1 -26.973963955123949 -39.276637765002427 14.924470981825269 #
vertex $-1 $426 $576 #
point $-1 -23.031971368691622 -39.276637765002427 14.924470981825269 #
edge $-1 $533 20.6728822707591 $536 24.366555038333971 $431 $577 forward 7 unknown #
vertex $-1 $445 $578 #
straight-curve $-1 18.47972301294633 -72.48551064612694 17.286345427483329 0 -1 0 I I #
edge $-1 $536 5.9548676844462278 $442 19.094842972553977 $441 $579 forward 7 unknown #
vertex $-1 $535 $580 #
straight-curve $-1 18.47972301294633 -41.243496288106996 13.592672659908459 0 0.51503806187062418 0.85716730853699208 I I #
point $-1 18.47972301294633 -39.024113858971852 17.286345427483329 #
point $-1 31.619698301054079 -41.243496288106996 13.592672659908459 #
straight-curve $-1 0 -41.243496288106996 17.286345427483329 1 0 0 I I #
vertex $-1 $448 $581 #
point $-1 21.607718070567884 -39.276637765002427 14.924470981825269 #
vertex $-1 $452 $582 #
point $-1 25.549710657000205 -39.276637765002427 14.924470981825269 #
vertex $-1 $456 $583 #
point $-1 29.491703243432539 -39.276637765002427 14.924470981825269 #
edge $-1 $548 56.857236197396048 $551 67.501152577737173 $461 $584 forward 7 unknown #
vertex $-1 $475 $585 #
straight-curve $-1 -2.715675682002086 39.22803642349907 17.286345427483326 0 1 0 I I #
edge $-1 $551 -1.311304795809729 $472 9.365265751433359 $471 $586 forward 7 unknown #
vertex $-1 $550 $587 #
straight-curve $-1 -2.715675682002086 -12.872839179284469 68.896153271875392 0 -0.65605901945558964 0.75470958851134928 I I #
point $-1 -2.715675682002086 31.990881176342221 17.286345427483319 #
point $-1 -13.392246229245174 41.243496288106996 6.6424290471421941 #
straight-curve $-1 0 41.243496288106996 17.286345427483329 -1 0 0 I I #
vertex $-1 $478 $588 #
point $-1 -6.05396095562363 32.585422179578416 8.4596261325542308 #
straight-curve $-1 -60.505996887112033 41.243496288106996 0 0 0 -1 I I #
point $-1 -60.505996887112033 -41.243496288106996 -17.286345427483329 #
straight-curve $-1 -60.505996887112033 0 -17.286345427483329 0 1 0 I I #
point $-1 -60.505996887112033 41.243496288106996 -17.286345427483329 #
edge $-1 $514 -5.1714486624344875 $503 5.1714486624344858 $500 $589 forward 7 unknown #
straight-curve $-1 -76.470641437087764 -13.989213177742426 0 0 0 -1 I I #
straight-curve $-1 -68.488319162099899 -24.3321105026114 17.286345427483329 1 0 0 I I #
point $-1 -76.470641437087764 -24.3321105026114 17.286345427483329 #
point $-1 -76.470641437087764 -24.3321105026114 -17.286345427483329 #
straight-curve $-1 -76.470641437087764 -19.160661840176914 -17.286345427483329 0 1 0 I I #
point $-1 -76.470641437087764 -13.989213177742426 -17.286345427483329 #
point $-1 -76.470641437087764 -13.989213177742426 17.286345427483329 #
straight-curve $-1 -34.043951599177824 -41.243496288106996 37.959227698242429 0 0 -1 I I #
point $-1 -34.043951599177824 -41.243496288106996 17.286345427483329 #
straight-curve $-1 -13.736981977561975 -41.243496288106996 13.592672659908462 1 0 0 I I #
point $-1 -34.043951599177824 -41.243496288106996 13.592672659908459 #
point $-1 -31.415956541556273 -38.848054110733933 14.666951950889956 #
point $-1 -27.473963955123949 -38.848054110733933 14.666951950889956 #
point $-1 -23.531971368691622 -38.848054110733933 14.666951950889956 #
straight-curve $-1 18.47972301294633 -41.243496288106996 37.959227698242429 0 0 -1 I I #
point $-1 18.47972301294633 -41.243496288106996 17.286345427483329 #
straight-curve $-1 12.524855328500102 -41.243496288106996 13.592672659908462 1 0 0 I I #
point $-1 18.47972301294633 -41.243496288106996 13.592672659908459 #
point $-1 21.107718070567884 -38.848054110733933 14.666951950889956 #
point $-1 25.049710657000205 -38.848054110733933 14.666951950889956 #
point $-1 28.991703243432539 -38.848054110733933 14.666951950889956 #
straight-curve $-1 -2.715675682002086 41.243496288106996 74.143581624879374 0 0 -1 I I #
point $-1 -2.715675682002086 41.243496288106996 17.286345427483329 #
straight-curve $-1 -4.026980477811815 41.243496288106996 6.6424290471422012 -1 0 0 I I #
point $-1 -2.715675682002086 41.243496288106996 6.6424290471421941 #
point $-1 -8.05396095562363 31.076003002555719 7.1475080936430508 #
straight-curve $-1 -76.470641437087764 -19.160661840176914 17.286345427483329 0 -1 0 I I #
End-of-ACIS-data 