500 0 3 0           
7 Unknown 11 ACIS 5.0 NT 24 Thu Mar 25 17:33:07 1999 
-1 9.9999999999999995e-007 1e-010 
body $-1 $3 $-1 $4 #
body $-1 $5 $-1 $6 #
body $-1 $7 $-1 $8 #
lump $-1 $-1 $9 $0 #
transform $-1 1 0 0 0 1 0 0 0 1 42.984710226752526 29.399012588234587 6.0526059425712004 1 rotate no_reflect no_shear #
lump $-1 $-1 $10 $1 #
transform $-1 1 0 0 0 1 0 0 0 1 42.984710226752526 29.399012588234587 6.0526059425712004 1 rotate no_reflect no_shear #
lump $-1 $-1 $11 $2 #
transform $-1 1 0 0 0 1 0 0 0 1 42.984710226752526 29.399012588234587 6.0526059425712004 1 rotate no_reflect no_shear #
shell $-1 $-1 $-1 $12 $-1 $3 #
shell $-1 $-1 $-1 $13 $-1 $5 #
shell $-1 $-1 $-1 $14 $-1 $7 #
face $-1 $15 $16 $9 $-1 $17 forward single #
face $-1 $18 $19 $10 $-1 $20 forward single #
face $-1 $21 $22 $11 $-1 $23 reversed single #
face $-1 $24 $25 $9 $-1 $26 reversed single #
loop $-1 $-1 $27 $12 #
plane-surface $-1 0 0 6.0526059425712004 0 0 1 1 0 0 forward_v I I I I #
face $-1 $28 $29 $10 $-1 $30 reversed single #
loop $-1 $-1 $31 $13 #
plane-surface $-1 -42.984710226752526 0 0 1 0 0 0 0 -1 forward_v I I I I #
face $-1 $32 $33 $11 $-1 $34 reversed single #
loop $-1 $-1 $35 $14 #
plane-surface $-1 39.419062748450216 0 3.0526059425712004 0 0 1 1 0 0 forward_v I I I I #
face $-1 $36 $37 $9 $-1 $38 reversed single #
loop $-1 $-1 $39 $15 #
plane-surface $-1 0 0 -6.0526059425712004 0 0 1 1 0 0 forward_v I I I I #
coedge $-1 $40 $41 $42 $43 forward $16 $-1 #
face $-1 $44 $45 $10 $-1 $46 reversed single #
loop $-1 $-1 $47 $18 #
plane-surface $-1 0 0 -6.0526059425712004 0 0 1 1 0 0 forward_v I I I I #
coedge $-1 $48 $49 $50 $51 forward $19 $-1 #
face $-1 $52 $53 $11 $-1 $54 reversed single #
loop $-1 $-1 $55 $21 #
plane-surface $-1 35.853415270147906 0 4.5526059425712004 1 0 0 0 0 -1 forward_v I I I I #
coedge $-1 $56 $57 $58 $59 reversed $22 $-1 #
face $-1 $60 $61 $9 $-1 $62 reversed single #
loop $-1 $-1 $63 $24 #
plane-surface $-1 0 -29.399012588234587 0 0 1 0 0 0 1 forward_v I I I I #
coedge $-1 $64 $65 $66 $67 forward $25 $-1 #
coedge $-1 $68 $27 $69 $70 forward $16 $-1 #
coedge $-1 $27 $68 $71 $72 forward $16 $-1 #
coedge $-1 $73 $74 $27 $43 reversed $75 $-1 #
edge $-1 $76 -29.399012588234587 $77 29.399012588234587 $42 $78 forward 7 unknown #
face $-1 $79 $80 $10 $-1 $81 reversed single #
loop $-1 $-1 $82 $28 #
plane-surface $-1 -46.083431306494347 -23.216472366680694 0 0 1 0 0 0 1 forward_v I I I I #
coedge $-1 $83 $84 $49 $85 forward $29 $-1 #
coedge $-1 $86 $31 $87 $88 reversed $19 $-1 #
coedge $-1 $31 $86 $47 $85 reversed $19 $-1 #
coedge $-1 $89 $90 $31 $51 reversed $91 $-1 #
edge $-1 $92 -6.0526059425712004 $93 6.0526059425712004 $50 $94 forward 7 unknown #
face $-1 $95 $96 $11 $-1 $97 forward single #
loop $-1 $-1 $98 $32 #
plane-surface $-1 0 29.399012588234587 0 0 -1 0 0 0 -1 forward_v I I I I #
coedge $-1 $99 $100 $101 $102 reversed $33 $-1 #
coedge $-1 $103 $35 $104 $105 reversed $22 $-1 #
coedge $-1 $35 $103 $98 $106 reversed $22 $-1 #
coedge $-1 $107 $108 $35 $59 forward $109 $-1 #
edge $-1 $110 -29.399012588234587 $111 29.399012588234587 $58 $112 forward 7 unknown #
face $-1 $113 $114 $9 $-1 $115 reversed single #
loop $-1 $-1 $116 $36 #
plane-surface $-1 -42.984710226752526 0 0 1 0 0 0 0 -1 forward_v I I I I #
coedge $-1 $117 $71 $118 $119 forward $37 $-1 #
coedge $-1 $120 $39 $117 $121 forward $25 $-1 #
coedge $-1 $39 $120 $122 $123 forward $25 $-1 #
coedge $-1 $74 $73 $39 $67 reversed $75 $-1 #
edge $-1 $124 -29.399012588234587 $125 29.399012588234587 $66 $126 forward 7 unknown #
coedge $-1 $41 $40 $127 $128 forward $16 $-1 #
coedge $-1 $129 $130 $40 $70 reversed $114 $-1 #
edge $-1 $77 -42.984710226752526 $131 42.984710226752526 $69 $132 forward 7 unknown #
coedge $-1 $63 $133 $41 $72 reversed $37 $-1 #
edge $-1 $134 -42.984710226752526 $76 42.984710226752526 $71 $135 forward 7 unknown #
coedge $-1 $66 $42 $133 $136 forward $75 $-1 #
coedge $-1 $42 $66 $129 $137 reversed $75 $-1 #
loop $-1 $-1 $73 $113 #
vertex $-1 $43 $138 #
vertex $-1 $43 $139 #
straight-curve $-1 42.984710226752526 0 6.0526059425712004 0 1 0 I I #
face $-1 $140 $91 $10 $-1 $141 reversed single #
loop $-1 $-1 $142 $44 #
plane-surface $-1 -49.182152386236169 -21.492014427349602 0 1 0 0 0 0 -1 forward_v I I I I #
coedge $-1 $143 $144 $145 $146 forward $45 $-1 #
coedge $-1 $147 $47 $143 $148 forward $29 $-1 #
coedge $-1 $47 $147 $89 $149 forward $29 $-1 #
edge $-1 $92 19.76755648801851 $150 23.216472366680694 $47 $151 forward 7 unknown #
coedge $-1 $49 $48 $152 $153 forward $19 $-1 #
coedge $-1 $154 $155 $48 $88 forward $156 $-1 #
edge $-1 $157 -23.216472366680694 $93 -19.76755648801851 $87 $158 forward 7 unknown #
coedge $-1 $159 $50 $84 $149 reversed $91 $-1 #
coedge $-1 $50 $159 $154 $160 reversed $91 $-1 #
loop $-1 $-1 $50 $79 #
vertex $-1 $85 $161 #
vertex $-1 $160 $162 #
straight-curve $-1 -42.984710226752526 -19.76755648801851 0 0 0 1 I I #
face $-1 $163 $164 $11 $-1 $165 reversed single #
loop $-1 $-1 $166 $52 #
plane-surface $-1 0 0 6.0526059425712004 0 0 1 1 0 0 forward_v I I I I #
coedge $-1 $101 $167 $57 $106 forward $53 $-1 #
coedge $-1 $168 $55 $103 $169 reversed $33 $-1 #
coedge $-1 $55 $168 $166 $170 reversed $33 $-1 #
coedge $-1 $171 $98 $55 $102 forward $53 $-1 #
edge $-1 $172 0.77630297128560022 $173 3.7763029712856002 $101 $174 forward 7 unknown #
coedge $-1 $57 $56 $99 $169 forward $22 $-1 #
coedge $-1 $175 $176 $56 $105 forward $164 $-1 #
edge $-1 $177 16.143883895922798 $110 23.275178852527418 $104 $178 forward 7 unknown #
edge $-1 $111 -23.275178852527418 $172 -16.143883895922798 $98 $179 forward 7 unknown #
coedge $-1 $180 $58 $167 $181 reversed $109 $-1 #
coedge $-1 $58 $180 $175 $182 forward $109 $-1 #
loop $-1 $-1 $58 $163 #
vertex $-1 $105 $183 #
vertex $-1 $106 $184 #
straight-curve $-1 42.984710226752526 0 3.0526059425712004 0 1 0 I I #
face $-1 $-1 $75 $9 $-1 $185 reversed single #
loop $-1 $-1 $129 $60 #
plane-surface $-1 0 29.399012588234587 0 0 -1 0 0 0 -1 forward_v I I I I #
coedge $-1 $186 $127 $130 $187 forward $61 $-1 #
coedge $-1 $133 $63 $64 $121 reversed $37 $-1 #
coedge $-1 $127 $186 $63 $119 reversed $61 $-1 #
edge $-1 $134 -6.0526059425712004 $188 6.0526059425712004 $118 $189 forward 7 unknown #
coedge $-1 $65 $64 $186 $190 forward $25 $-1 #
edge $-1 $125 -42.984710226752526 $188 42.984710226752526 $117 $191 forward 7 unknown #
coedge $-1 $130 $129 $65 $123 reversed $114 $-1 #
edge $-1 $192 -42.984710226752526 $124 42.984710226752526 $122 $193 forward 7 unknown #
vertex $-1 $67 $194 #
vertex $-1 $136 $195 #
straight-curve $-1 42.984710226752526 0 -6.0526059425712004 0 -1 0 I I #
coedge $-1 $116 $118 $68 $128 reversed $61 $-1 #
edge $-1 $131 -29.399012588234587 $134 29.399012588234587 $127 $196 forward 7 unknown #
coedge $-1 $122 $69 $74 $137 forward $114 $-1 #
coedge $-1 $69 $122 $116 $187 reversed $114 $-1 #
vertex $-1 $70 $197 #
straight-curve $-1 0 29.399012588234587 6.0526059425712004 -1 0 0 I I #
coedge $-1 $71 $117 $73 $136 reversed $37 $-1 #
vertex $-1 $128 $198 #
straight-curve $-1 0 -29.399012588234587 6.0526059425712004 1 0 0 I I #
edge $-1 $76 -6.0526059425712004 $125 6.0526059425712004 $73 $199 forward 7 unknown #
edge $-1 $77 -6.0526059425712004 $124 6.0526059425712004 $74 $200 forward 7 unknown #
point $-1 42.984710226752526 -29.399012588234587 6.0526059425712004 #
point $-1 42.984710226752526 29.399012588234587 6.0526059425712004 #
face $-1 $-1 $156 $10 $-1 $201 forward single #
plane-surface $-1 -46.083431306494347 -19.76755648801851 0 0 -1 0 0 0 -1 forward_v I I I I #
coedge $-1 $202 $203 $159 $204 forward $80 $-1 #
coedge $-1 $152 $82 $83 $148 reversed $45 $-1 #
coedge $-1 $82 $152 $155 $205 reversed $45 $-1 #
coedge $-1 $203 $202 $82 $146 reversed $80 $-1 #
edge $-1 $206 -6.0526059425712004 $207 6.0526059425712004 $145 $208 forward 7 unknown #
coedge $-1 $84 $83 $202 $209 forward $29 $-1 #
edge $-1 $150 -3.0987210797418214 $207 3.0987210797418214 $143 $210 forward 7 unknown #
edge $-1 $211 -3.0987210797418214 $92 3.0987210797418214 $89 $212 forward 7 unknown #
vertex $-1 $148 $213 #
straight-curve $-1 -42.984710226752526 0 -6.0526059425712004 0 -1 0 I I #
coedge $-1 $144 $143 $86 $153 reversed $45 $-1 #
edge $-1 $157 -6.0526059425712004 $150 6.0526059425712004 $152 $214 forward 7 unknown #
coedge $-1 $215 $87 $90 $160 forward $156 $-1 #
coedge $-1 $87 $215 $144 $205 forward $156 $-1 #
loop $-1 $-1 $87 $140 #
vertex $-1 $88 $216 #
straight-curve $-1 -42.984710226752526 0 6.0526059425712004 0 1 0 I I #
coedge $-1 $90 $89 $142 $204 reversed $91 $-1 #
edge $-1 $93 -3.0987210797418214 $217 3.0987210797418214 $90 $218 forward 7 unknown #
point $-1 -42.984710226752526 -19.76755648801851 -6.0526059425712004 #
point $-1 -42.984710226752526 -19.76755648801851 6.0526059425712004 #
face $-1 $-1 $109 $11 $-1 $219 reversed single #
loop $-1 $-1 $104 $95 #
plane-surface $-1 0 -29.399012588234587 0 0 1 0 0 0 1 forward_v I I I I #
coedge $-1 $220 $221 $100 $170 forward $96 $-1 #
coedge $-1 $98 $171 $107 $181 forward $53 $-1 #
coedge $-1 $100 $99 $176 $222 reversed $33 $-1 #
edge $-1 $177 -29.399012588234587 $172 29.399012588234587 $99 $223 forward 7 unknown #
edge $-1 $173 -29.399012588234587 $224 29.399012588234587 $166 $225 forward 7 unknown #
coedge $-1 $167 $101 $221 $226 reversed $53 $-1 #
vertex $-1 $106 $227 #
vertex $-1 $170 $228 #
straight-curve $-1 35.853415270147906 29.399012588234587 2.2763029712856002 0 0 1 I I #
coedge $-1 $229 $104 $108 $182 reversed $164 $-1 #
coedge $-1 $104 $229 $168 $222 forward $164 $-1 #
vertex $-1 $105 $230 #
straight-curve $-1 19.709531374225108 -29.399012588234587 3.0526059425712004 1 0 0 I I #
straight-curve $-1 19.709531374225108 29.399012588234587 3.0526059425712004 -1 0 0 I I #
coedge $-1 $108 $107 $231 $232 reversed $109 $-1 #
edge $-1 $233 -6.0526059425712004 $111 -3.0526059425712004 $107 $234 forward 7 unknown #
edge $-1 $235 -6.0526059425712004 $110 -3.0526059425712004 $108 $236 forward 7 unknown #
point $-1 42.984710226752526 -29.399012588234587 3.0526059425712004 #
point $-1 42.984710226752526 29.399012588234587 3.0526059425712004 #
plane-surface $-1 42.984710226752526 0 0 -1 0 0 0 0 1 forward_v I I I I #
coedge $-1 $118 $116 $120 $190 reversed $61 $-1 #
edge $-1 $131 -6.0526059425712004 $192 6.0526059425712004 $130 $237 forward 7 unknown #
vertex $-1 $190 $238 #
straight-curve $-1 -42.984710226752526 -29.399012588234587 0 0 0 -1 I I #
edge $-1 $188 -29.399012588234587 $192 29.399012588234587 $186 $239 forward 7 unknown #
straight-curve $-1 0 -29.399012588234587 -6.0526059425712004 -1 0 0 I I #
vertex $-1 $123 $240 #
straight-curve $-1 0 29.399012588234587 -6.0526059425712004 1 0 0 I I #
point $-1 42.984710226752526 29.399012588234587 -6.0526059425712004 #
point $-1 42.984710226752526 -29.399012588234587 -6.0526059425712004 #
straight-curve $-1 -42.984710226752526 0 6.0526059425712004 0 -1 0 I I #
point $-1 -42.984710226752526 29.399012588234587 6.0526059425712004 #
point $-1 -42.984710226752526 -29.399012588234587 6.0526059425712004 #
straight-curve $-1 42.984710226752526 -29.399012588234587 0 0 0 -1 I I #
straight-curve $-1 42.984710226752526 29.399012588234587 0 0 0 -1 I I #
plane-surface $-1 0 0 6.0526059425712004 0 0 1 1 0 0 forward_v I I I I #
coedge $-1 $145 $142 $147 $209 reversed $80 $-1 #
coedge $-1 $142 $145 $215 $241 reversed $80 $-1 #
edge $-1 $217 -6.0526059425712004 $211 6.0526059425712004 $159 $242 forward 7 unknown #
edge $-1 $206 -3.0987210797418214 $157 3.0987210797418214 $144 $243 forward 7 unknown #
vertex $-1 $241 $244 #
vertex $-1 $209 $245 #
straight-curve $-1 -49.182152386236169 -23.216472366680694 0 0 0 -1 I I #
edge $-1 $207 -1.7244579393310921 $211 1.7244579393310921 $202 $246 forward 7 unknown #
straight-curve $-1 -46.083431306494347 -23.216472366680694 -6.0526059425712004 -1 0 0 I I #
vertex $-1 $149 $247 #
straight-curve $-1 -46.083431306494347 -19.76755648801851 -6.0526059425712004 1 0 0 I I #
point $-1 -42.984710226752526 -23.216472366680694 -6.0526059425712004 #
straight-curve $-1 -42.984710226752526 -23.216472366680694 0 0 0 -1 I I #
coedge $-1 $155 $154 $203 $241 forward $156 $-1 #
point $-1 -42.984710226752526 -23.216472366680694 6.0526059425712004 #
vertex $-1 $160 $248 #
straight-curve $-1 -46.083431306494347 -19.76755648801851 6.0526059425712004 -1 0 0 I I #
plane-surface $-1 42.984710226752526 0 0 -1 0 0 0 0 1 forward_v I I I I #
coedge $-1 $231 $166 $229 $249 forward $96 $-1 #
coedge $-1 $166 $231 $171 $226 forward $96 $-1 #
edge $-1 $224 -3.7763029712856002 $177 -0.77630297128560022 $176 $250 forward 7 unknown #
straight-curve $-1 35.853415270147906 0 3.0526059425712004 0 1 0 I I #
vertex $-1 $249 $251 #
straight-curve $-1 35.853415270147906 0 6.0526059425712004 0 -1 0 I I #
edge $-1 $233 -42.984710226752526 $173 -35.853415270147906 $171 $252 forward 7 unknown #
point $-1 35.853415270147906 29.399012588234587 3.0526059425712004 #
point $-1 35.853415270147906 29.399012588234587 6.0526059425712004 #
coedge $-1 $176 $175 $220 $249 reversed $164 $-1 #
point $-1 35.853415270147906 -29.399012588234587 3.0526059425712004 #
coedge $-1 $221 $220 $180 $232 forward $96 $-1 #
edge $-1 $235 -29.399012588234587 $233 29.399012588234587 $180 $253 forward 7 unknown #
vertex $-1 $232 $254 #
straight-curve $-1 42.984710226752526 29.399012588234587 0 0 0 -1 I I #
vertex $-1 $232 $255 #
straight-curve $-1 42.984710226752526 -29.399012588234587 0 0 0 -1 I I #
straight-curve $-1 -42.984710226752526 29.399012588234587 0 0 0 -1 I I #
point $-1 -42.984710226752526 -29.399012588234587 -6.0526059425712004 #
straight-curve $-1 -42.984710226752526 0 -6.0526059425712004 0 1 0 I I #
point $-1 -42.984710226752526 29.399012588234587 -6.0526059425712004 #
edge $-1 $217 -1.7244579393310921 $206 1.7244579393310921 $203 $256 forward 7 unknown #
straight-curve $-1 -49.182152386236169 -19.76755648801851 0 0 0 -1 I I #
straight-curve $-1 -46.083431306494347 -23.216472366680694 6.0526059425712004 1 0 0 I I #
point $-1 -49.182152386236169 -23.216472366680694 6.0526059425712004 #
point $-1 -49.182152386236169 -23.216472366680694 -6.0526059425712004 #
straight-curve $-1 -49.182152386236169 -21.492014427349602 -6.0526059425712004 0 1 0 I I #
point $-1 -49.182152386236169 -19.76755648801851 -6.0526059425712004 #
point $-1 -49.182152386236169 -19.76755648801851 6.0526059425712004 #
edge $-1 $224 35.853415270147906 $235 42.984710226752526 $229 $257 forward 7 unknown #
straight-curve $-1 35.853415270147906 -29.399012588234587 2.2763029712856002 0 0 -1 I I #
point $-1 35.853415270147906 -29.399012588234587 6.0526059425712004 #
straight-curve $-1 0 29.399012588234587 6.0526059425712004 -1 0 0 I I #
straight-curve $-1 42.984710226752526 0 6.0526059425712004 0 1 0 I I #
point $-1 42.984710226752526 29.399012588234587 6.0526059425712004 #
point $-1 42.984710226752526 -29.399012588234587 6.0526059425712004 #
straight-curve $-1 -49.182152386236169 -21.492014427349602 6.0526059425712004 0 -1 0 I I #
straight-curve $-1 0 -29.399012588234587 6.0526059425712004 1 0 0 I I #
End-of-ACIS-data 