500 0 4 0           
7 Unknown 11 ACIS 5.0 NT 24 Fri Mar 26 17:19:17 1999 
-1 9.9999999999999995e-007 1e-010 
body $-1 $4 $-1 $5 #
body $-1 $6 $-1 $7 #
body $-1 $8 $-1 $9 #
body $-1 $10 $-1 $11 #
lump $-1 $-1 $12 $0 #
transform $-1 1 0 0 0 1 0 0 0 1 76.293832209234893 46.800551066281393 14.577771064119421 1 rotate no_reflect no_shear #
lump $-1 $-1 $13 $1 #
transform $-1 1 0 0 0 1 0 0 0 1 76.293832209234893 46.800551066281393 14.577771064119421 1 rotate no_reflect no_shear #
lump $-1 $-1 $14 $2 #
transform $-1 1 0 0 0 1 0 0 0 1 76.293832209234893 46.800551066281393 14.577771064119421 1 rotate no_reflect no_shear #
lump $-1 $-1 $15 $3 #
transform $-1 1 0 0 0 1 0 0 0 1 76.293832209234893 46.800551066281393 14.577771064119421 1 rotate no_reflect no_shear #
shell $-1 $-1 $-1 $16 $-1 $4 #
shell $-1 $-1 $-1 $17 $-1 $6 #
shell $-1 $-1 $-1 $18 $-1 $8 #
shell $-1 $-1 $-1 $19 $-1 $10 #
face $-1 $20 $21 $12 $-1 $22 forward single #
face $-1 $23 $24 $13 $-1 $25 forward single #
face $-1 $26 $27 $14 $-1 $28 reversed single #
face $-1 $29 $30 $15 $-1 $31 forward single #
face $-1 $32 $33 $12 $-1 $34 reversed single #
loop $-1 $-1 $35 $16 #
plane-surface $-1 0 0 14.577771064119421 0 0 1 1 0 0 forward_v I I I I #
face $-1 $36 $37 $13 $-1 $38 reversed single #
loop $-1 $-1 $39 $17 #
plane-surface $-1 0 -41.00652437586097 0.68450752051511987 0 0 1 1 0 0 forward_v I I I I #
face $-1 $40 $41 $14 $-1 $42 reversed single #
loop $-1 $-1 $43 $18 #
plane-surface $-1 -34.868798291958925 88.51035127732132 185.10442550803833 -1 0 0 0 0.70710678939079041 0.70710677298230451 forward_v I I I I #
face $-1 $44 $45 $15 $-1 $46 forward single #
loop $-1 $47 $48 $19 #
cone-surface $-1 -55.581315250596909 44.507117650757685 12.284337619318835 0 -0.70710678939079041 -0.70710677298230451 1 0 0 1 I I 0 1 1 forward I I I I #
face $-1 $49 $50 $12 $-1 $51 reversed single #
loop $-1 $-1 $52 $20 #
plane-surface $-1 0 0 -14.577771064119421 0 0 1 1 0 0 forward_v I I I I #
coedge $-1 $53 $54 $55 $56 forward $21 $-1 #
face $-1 $57 $58 $13 $-1 $59 reversed single #
loop $-1 $-1 $60 $23 #
plane-surface $-1 0 -41.00652437586097 -3.7310440347503979 0 0 1 1 0 0 forward_v I I I I #
coedge $-1 $61 $62 $63 $64 reversed $24 $-1 #
face $-1 $65 $66 $14 $-1 $67 reversed single #
loop $-1 $-1 $68 $26 #
plane-surface $-1 -55.581315250596909 -19.385422210262192 77.208654524187352 0 0.70710678939079041 0.70710677298230451 1 0 0 forward_v I I I I #
coedge $-1 $69 $70 $71 $72 reversed $27 $-1 #
face $-1 $-1 $73 $15 $-1 $74 forward single #
loop $-1 $75 $76 $29 #
cone-surface $-1 -55.581315250596909 43.637676475454477 11.414896464191099 0 -0.70710678939079041 -0.70710677298230451 0.5 0 0 1 I I -0.70710678118654746 0.70710678118654746 0.5 forward I I I I #
loop $-1 $-1 $77 $19 #
coedge $-1 $48 $48 $78 $79 reversed $30 $-1 #
face $-1 $80 $81 $12 $-1 $82 reversed single #
loop $-1 $-1 $83 $32 #
plane-surface $-1 0 -46.800551066281393 0 0 1 0 0 0 1 forward_v I I I I #
coedge $-1 $84 $85 $86 $87 forward $33 $-1 #
coedge $-1 $88 $35 $89 $90 forward $21 $-1 #
coedge $-1 $35 $88 $91 $92 forward $21 $-1 #
coedge $-1 $93 $94 $35 $56 reversed $95 $-1 #
edge $-1 $96 -46.800551066281393 $97 46.800551066281393 $55 $98 forward 7 unknown #
face $-1 $99 $100 $13 $-1 $101 reversed single #
loop $-1 $-1 $102 $36 #
plane-surface $-1 0 -35.212497685440546 -1.523268257117639 0 -1 0 0 0 -1 forward_v I I I I #
coedge $-1 $103 $104 $105 $106 reversed $37 $-1 #
coedge $-1 $107 $39 $108 $109 forward $24 $-1 #
coedge $-1 $39 $107 $110 $111 reversed $24 $-1 #
coedge $-1 $112 $113 $39 $64 forward $114 $-1 #
edge $-1 $115 14.709235497510061 $116 26.297288878350908 $63 $117 forward 7 unknown #
face $-1 $118 $119 $14 $-1 $120 forward single #
loop $-1 $-1 $71 $40 #
plane-surface $-1 0 46.800551066281393 0 0 -1 0 0 0 -1 forward_v I I I I #
coedge $-1 $121 $122 $123 $124 reversed $41 $-1 #
coedge $-1 $70 $43 $125 $126 reversed $27 $-1 #
coedge $-1 $43 $69 $121 $127 reversed $27 $-1 #
coedge $-1 $123 $128 $43 $72 forward $66 $-1 #
edge $-1 $129 77.974441689899749 $130 81.529533042227769 $71 $131 forward 7 unknown #
loop $-1 $-1 $78 $44 #
plane-surface $-1 -55.581315250596909 -19.385422210262192 77.208654524187352 0 0.70710678939079041 0.70710677298230451 1 0 0 forward_v I I I I #
loop $-1 $-1 $132 $29 #
coedge $-1 $76 $76 $77 $133 reversed $45 $-1 #
coedge $-1 $77 $77 $76 $133 forward $47 $-1 #
coedge $-1 $78 $78 $48 $79 forward $73 $-1 #
edge $-1 $134 -2.5121478464520618e-015 $134 6.2831853071795978 $78 $135 forward 7 unknown #
face $-1 $136 $137 $12 $-1 $138 reversed single #
loop $-1 $-1 $139 $49 #
plane-surface $-1 -76.293832209234893 0 0 1 0 0 0 0 -1 forward_v I I I I #
coedge $-1 $140 $91 $141 $142 forward $50 $-1 #
coedge $-1 $143 $52 $140 $144 forward $33 $-1 #
coedge $-1 $52 $143 $145 $146 forward $33 $-1 #
coedge $-1 $94 $93 $52 $87 reversed $95 $-1 #
edge $-1 $147 -46.800551066281393 $148 46.800551066281393 $86 $149 forward 7 unknown #
coedge $-1 $54 $53 $150 $151 forward $21 $-1 #
coedge $-1 $152 $153 $53 $90 reversed $137 $-1 #
edge $-1 $97 -76.293832209234893 $154 76.293832209234893 $89 $155 forward 7 unknown #
coedge $-1 $83 $156 $54 $92 reversed $50 $-1 #
edge $-1 $157 -76.293832209234893 $96 76.293832209234893 $91 $158 forward 7 unknown #
coedge $-1 $86 $55 $156 $159 forward $95 $-1 #
coedge $-1 $55 $86 $152 $160 reversed $95 $-1 #
loop $-1 $-1 $93 $136 #
vertex $-1 $56 $161 #
vertex $-1 $56 $162 #
straight-curve $-1 76.293832209234893 0 14.577771064119421 0 1 0 I I #
face $-1 $163 $164 $13 $-1 $165 reversed single #
loop $-1 $-1 $166 $57 #
plane-surface $-1 -76.293832209234893 0 0 1 0 0 0 0 -1 forward_v I I I I #
coedge $-1 $167 $108 $113 $168 reversed $58 $-1 #
coedge $-1 $169 $60 $170 $171 reversed $37 $-1 #
coedge $-1 $60 $169 $167 $172 forward $37 $-1 #
coedge $-1 $113 $112 $60 $106 forward $114 $-1 #
edge $-1 $173 -26.297288878350908 $174 -14.709235497510061 $105 $175 forward 7 unknown #
coedge $-1 $62 $61 $166 $176 reversed $24 $-1 #
coedge $-1 $102 $177 $61 $109 reversed $58 $-1 #
edge $-1 $115 -76.293832209234893 $178 76.293832209234893 $108 $179 forward 7 unknown #
coedge $-1 $180 $181 $62 $111 forward $164 $-1 #
edge $-1 $116 -76.293832209234893 $182 76.293832209234893 $110 $183 forward 7 unknown #
coedge $-1 $105 $63 $181 $184 forward $114 $-1 #
coedge $-1 $63 $105 $102 $168 forward $114 $-1 #
loop $-1 $-1 $63 $163 #
vertex $-1 $64 $185 #
vertex $-1 $184 $186 #
straight-curve $-1 76.293832209234893 -20.503262187930485 0.68450752051511987 0 -1 0 I I #
face $-1 $-1 $187 $14 $-1 $188 reversed single #
loop $-1 $-1 $125 $65 #
plane-surface $-1 0 0 14.577771064119421 0 0 1 1 0 0 forward_v I I I I #
coedge $-1 $189 $68 $70 $127 forward $41 $-1 #
coedge $-1 $68 $189 $190 $191 reversed $41 $-1 #
coedge $-1 $192 $71 $68 $124 forward $66 $-1 #
edge $-1 $130 7.0781406666604703 $193 48.503174583936442 $123 $194 forward 7 unknown #
coedge $-1 $195 $196 $69 $126 forward $119 $-1 #
edge $-1 $197 -1.0097158422110226 $129 2.5453754276207334 $125 $198 forward 7 unknown #
edge $-1 $130 -93.601102132562843 $197 -88.573443784958911 $70 $199 forward 7 unknown #
coedge $-1 $71 $192 $195 $200 reversed $66 $-1 #
vertex $-1 $200 $201 #
vertex $-1 $72 $202 #
straight-curve $-1 -34.868798291958925 46.800551066281393 92.552212754019166 0 0 -1 I I #
coedge $-1 $132 $132 $-1 $203 reversed $75 $-1 #
edge $-1 $204 0 $204 6.2831853071796004 $76 $205 forward 7 unknown #
vertex $-1 $79 $206 #
ellipse-curve $-1 -55.581315250596909 45.023005431365505 12.800225387955425 0 0.70710678939079041 0.70710677298230451 1 0 0 1 I I #
face $-1 $-1 $95 $12 $-1 $207 reversed single #
loop $-1 $-1 $152 $80 #
plane-surface $-1 0 46.800551066281393 0 0 -1 0 0 0 -1 forward_v I I I I #
coedge $-1 $208 $150 $153 $209 forward $81 $-1 #
coedge $-1 $156 $83 $84 $144 reversed $50 $-1 #
coedge $-1 $150 $208 $83 $142 reversed $81 $-1 #
edge $-1 $157 -14.577771064119421 $210 14.577771064119421 $141 $211 forward 7 unknown #
coedge $-1 $85 $84 $208 $212 forward $33 $-1 #
edge $-1 $148 -76.293832209234893 $210 76.293832209234893 $140 $213 forward 7 unknown #
coedge $-1 $153 $152 $85 $146 reversed $137 $-1 #
edge $-1 $214 -76.293832209234893 $147 76.293832209234893 $145 $215 forward 7 unknown #
vertex $-1 $87 $216 #
vertex $-1 $159 $217 #
straight-curve $-1 76.293832209234893 0 -14.577771064119421 0 -1 0 I I #
coedge $-1 $139 $141 $88 $151 reversed $81 $-1 #
edge $-1 $154 -46.800551066281393 $157 46.800551066281393 $150 $218 forward 7 unknown #
coedge $-1 $145 $89 $94 $160 forward $137 $-1 #
coedge $-1 $89 $145 $139 $209 reversed $137 $-1 #
vertex $-1 $90 $219 #
straight-curve $-1 0 46.800551066281393 14.577771064119421 -1 0 0 I I #
coedge $-1 $91 $140 $93 $159 reversed $50 $-1 #
vertex $-1 $151 $220 #
straight-curve $-1 0 -46.800551066281393 14.577771064119421 1 0 0 I I #
edge $-1 $96 -14.577771064119421 $148 14.577771064119421 $93 $221 forward 7 unknown #
edge $-1 $97 -14.577771064119421 $147 14.577771064119421 $94 $222 forward 7 unknown #
point $-1 76.293832209234893 -46.800551066281393 14.577771064119421 #
point $-1 76.293832209234893 46.800551066281393 14.577771064119421 #
face $-1 $-1 $114 $13 $-1 $223 reversed single #
loop $-1 $-1 $110 $99 #
plane-surface $-1 0 -46.800551066281393 0 0 1 0 0 0 1 forward_v I I I I #
coedge $-1 $224 $225 $107 $176 forward $100 $-1 #
coedge $-1 $177 $102 $104 $172 reversed $58 $-1 #
edge $-1 $174 -2.9694099061915784 $115 1.4461416490739394 $113 $226 forward 7 unknown #
coedge $-1 $104 $103 $227 $228 reversed $37 $-1 #
coedge $-1 $181 $180 $103 $171 forward $164 $-1 #
edge $-1 $229 -76.293832209234893 $173 76.293832209234893 $170 $230 forward 7 unknown #
edge $-1 $231 -76.293832209234893 $174 76.293832209234893 $167 $232 forward 7 unknown #
vertex $-1 $171 $233 #
vertex $-1 $106 $234 #
straight-curve $-1 76.293832209234893 -20.503262187930485 -3.7310440347503979 0 1 0 I I #
edge $-1 $182 -26.297288878350908 $178 -14.709235497510061 $166 $235 forward 7 unknown #
coedge $-1 $108 $167 $224 $236 reversed $58 $-1 #
vertex $-1 $176 $237 #
straight-curve $-1 0 -35.212497685440546 0.68450752051511987 -1 0 0 I I #
coedge $-1 $170 $110 $225 $238 forward $164 $-1 #
coedge $-1 $110 $170 $112 $184 reversed $164 $-1 #
vertex $-1 $238 $239 #
straight-curve $-1 0 -46.800551066281393 0.68450752051511987 -1 0 0 I I #
edge $-1 $116 -0.68450752051511987 $173 3.7310440347503979 $112 $240 forward 7 unknown #
point $-1 76.293832209234893 -35.212497685440546 0.68450752051511987 #
point $-1 76.293832209234893 -46.800551066281393 0.68450752051511987 #
loop $-1 $-1 $190 $118 #
plane-surface $-1 -76.293832209234893 0 0 1 0 0 0 0 -1 forward_v I I I I #
coedge $-1 $122 $121 $196 $241 reversed $41 $-1 #
coedge $-1 $242 $243 $122 $191 forward $187 $-1 #
edge $-1 $193 -59.449938554673402 $244 -54.42228020706947 $190 $245 forward 7 unknown #
coedge $-1 $128 $123 $243 $246 reversed $66 $-1 #
vertex $-1 $124 $247 #
straight-curve $-1 -27.790657625298454 46.800551066281393 11.022679711791397 -1 0 0 I I #
coedge $-1 $248 $125 $128 $200 forward $119 $-1 #
coedge $-1 $125 $248 $189 $241 forward $119 $-1 #
vertex $-1 $126 $249 #
straight-curve $-1 -34.868798291958925 44.25517563866066 14.577771064119418 0 1 0 I I #
straight-curve $-1 -34.868798291958925 -19.385422210262192 77.208654524187352 0 -0.70710677298230451 0.70710678939079041 I I #
edge $-1 $129 34.868798291958925 $250 76.293832209234893 $128 $251 forward 7 unknown #
point $-1 -34.868798291958925 46.800551066281393 14.577771064119421 #
point $-1 -34.868798291958925 46.8005510662814 11.022679711791397 #
edge $-1 $252 1 $252 0 $132 $-1 forward 7 unknown #
vertex $-1 $133 $253 #
ellipse-curve $-1 -55.581315250596909 43.991229870149873 11.76844985068225 0 0.70710678939079041 0.70710677298230451 1 0 0 1 I I #
point $-1 -54.581315250596909 45.023005431365497 12.800225387955422 #
plane-surface $-1 76.293832209234893 0 0 -1 0 0 0 0 1 forward_v I I I I #
coedge $-1 $141 $139 $143 $212 reversed $81 $-1 #
edge $-1 $154 -14.577771064119421 $214 14.577771064119421 $153 $254 forward 7 unknown #
vertex $-1 $212 $255 #
straight-curve $-1 -76.293832209234893 -46.800551066281393 0 0 0 -1 I I #
edge $-1 $210 -46.800551066281393 $214 46.800551066281393 $208 $256 forward 7 unknown #
straight-curve $-1 0 -46.800551066281393 -14.577771064119421 -1 0 0 I I #
vertex $-1 $146 $257 #
straight-curve $-1 0 46.800551066281393 -14.577771064119421 1 0 0 I I #
point $-1 76.293832209234893 46.800551066281393 -14.577771064119421 #
point $-1 76.293832209234893 -46.800551066281393 -14.577771064119421 #
straight-curve $-1 -76.293832209234893 0 14.577771064119421 0 -1 0 I I #
point $-1 -76.293832209234893 46.800551066281393 14.577771064119421 #
point $-1 -76.293832209234893 -46.800551066281393 14.577771064119421 #
straight-curve $-1 76.293832209234893 -46.800551066281393 0 0 0 -1 I I #
straight-curve $-1 76.293832209234893 46.800551066281393 0 0 0 -1 I I #
plane-surface $-1 76.293832209234893 0 0 -1 0 0 0 0 1 forward_v I I I I #
coedge $-1 $227 $166 $177 $236 forward $100 $-1 #
coedge $-1 $166 $227 $180 $238 reversed $100 $-1 #
straight-curve $-1 76.293832209234893 -35.212497685440546 -0.76163412855881951 0 0 1 I I #
coedge $-1 $225 $224 $169 $228 forward $100 $-1 #
edge $-1 $231 14.709235497510061 $229 26.297288878350908 $227 $258 forward 7 unknown #
vertex $-1 $171 $259 #
straight-curve $-1 0 -46.800551066281393 -3.7310440347503979 1 0 0 I I #
vertex $-1 $228 $260 #
straight-curve $-1 0 -35.212497685440546 -3.7310440347503979 1 0 0 I I #
point $-1 76.293832209234893 -46.800551066281393 -3.7310440347503979 #
point $-1 76.293832209234893 -35.212497685440546 -3.7310440347503979 #
straight-curve $-1 -76.293832209234893 -20.503262187930485 0.68450752051511987 0 1 0 I I #
edge $-1 $178 -1.4461416490739394 $231 2.9694099061915784 $224 $261 forward 7 unknown #
point $-1 -76.293832209234893 -35.212497685440546 0.68450752051511987 #
edge $-1 $182 -0.68450752051511987 $229 3.7310440347503979 $225 $262 forward 7 unknown #
point $-1 -76.293832209234893 -46.800551066281393 0.68450752051511987 #
straight-curve $-1 76.293832209234893 -46.800551066281393 0 0 0 -1 I I #
edge $-1 $244 -48.503174583936442 $197 -7.0781406666604703 $196 $263 forward 7 unknown #
coedge $-1 $243 $190 $248 $264 reversed $187 $-1 #
coedge $-1 $190 $242 $192 $246 forward $187 $-1 #
vertex $-1 $191 $265 #
straight-curve $-1 -76.293832209234893 4.7630968608900073 53.060134892666269 0 -0.70710677298230462 0.70710678939079052 I I #
edge $-1 $250 -14.577771064119421 $193 -11.022679711791392 $192 $266 forward 7 unknown #
point $-1 -76.293832209234893 46.800551066281393 11.022679711791392 #
coedge $-1 $196 $195 $242 $264 forward $119 $-1 #
point $-1 -34.868798291958925 43.245459796449637 14.577771064119418 #
vertex $-1 $200 $267 #
straight-curve $-1 0 46.800551066281393 14.577771064119421 -1 0 0 I I #
vertex $-1 $203 $268 #
point $-1 -54.581315250596909 43.991229870149873 11.76844985068225 #
straight-curve $-1 -76.293832209234893 46.800551066281393 0 0 0 -1 I I #
point $-1 -76.293832209234893 -46.800551066281393 -14.577771064119421 #
straight-curve $-1 -76.293832209234893 0 -14.577771064119421 0 1 0 I I #
point $-1 -76.293832209234893 46.800551066281393 -14.577771064119421 #
straight-curve $-1 -76.293832209234893 -20.503262187930485 -3.7310440347503979 0 -1 0 I I #
point $-1 -76.293832209234893 -46.800551066281393 -3.7310440347503979 #
point $-1 -76.293832209234893 -35.212497685440546 -3.7310440347503979 #
straight-curve $-1 -76.293832209234893 -35.212497685440546 -0.76163412855881951 0 0 -1 I I #
straight-curve $-1 -76.293832209234893 -46.800551066281393 0 0 0 -1 I I #
straight-curve $-1 -27.790657625298454 43.245459796449637 14.577771064119425 1 0 0 I I #
edge $-1 $250 -46.800551066281393 $244 -43.245459796449637 $242 $269 forward 7 unknown #
point $-1 -76.293832209234893 43.245459796449637 14.577771064119418 #
straight-curve $-1 -76.293832209234893 46.800551066281393 0 0 0 -1 I I #
point $-1 -76.293832209234893 46.800551066281393 14.577771064119421 #
point $-1 -55.581315250596909 43.28412308075908 11.061343077699947 #
straight-curve $-1 -76.293832209234893 0 14.577771064119421 0 -1 0 I I #
End-of-ACIS-data 