500 0 9 0           
7 Unknown 11 ACIS 5.0 NT 24 Fri Mar 26 03:17:01 1999 
-1 9.9999999999999995e-007 1e-010 
body $-1 $9 $-1 $10 #
body $-1 $11 $-1 $12 #
body $-1 $13 $-1 $14 #
body $-1 $15 $-1 $16 #
body $-1 $17 $-1 $18 #
body $-1 $19 $-1 $20 #
body $-1 $21 $-1 $22 #
body $-1 $23 $-1 $24 #
body $-1 $25 $-1 $26 #
lump $-1 $-1 $27 $0 #
transform $-1 1 0 0 0 1 0 0 0 1 51.076998199407939 28.661698464685006 9.4861675978778166 1 rotate no_reflect no_shear #
lump $-1 $-1 $28 $1 #
transform $-1 1 0 0 0 1 0 0 0 1 51.076998199407939 28.661698464685006 9.4861675978778166 1 rotate no_reflect no_shear #
lump $-1 $-1 $29 $2 #
transform $-1 1 0 0 0 1 0 0 0 1 51.076998199407939 28.661698464685006 9.4861675978778166 1 rotate no_reflect no_shear #
lump $-1 $-1 $30 $3 #
transform $-1 1 0 0 0 1 0 0 0 1 51.076998199407939 28.661698464685006 9.4861675978778166 1 rotate no_reflect no_shear #
lump $-1 $-1 $31 $4 #
transform $-1 1 0 0 0 1 0 0 0 1 51.076998199407939 28.661698464685006 9.4861675978778166 1 rotate no_reflect no_shear #
lump $-1 $-1 $32 $5 #
transform $-1 1 0 0 0 1 0 0 0 1 51.076998199407939 28.661698464685006 9.4861675978778166 1 rotate no_reflect no_shear #
lump $-1 $-1 $33 $6 #
transform $-1 1 0 0 0 1 0 0 0 1 51.076998199407939 28.661698464685006 9.4861675978778166 1 rotate no_reflect no_shear #
lump $-1 $-1 $34 $7 #
transform $-1 1 0 0 0 1 0 0 0 1 51.076998199407939 28.661698464685006 9.4861675978778166 1 rotate no_reflect no_shear #
lump $-1 $-1 $35 $8 #
transform $-1 1 0 0 0 1 0 0 0 1 51.076998199407939 28.661698464685006 9.4861675978778166 1 rotate no_reflect no_shear #
shell $-1 $-1 $-1 $36 $-1 $9 #
shell $-1 $-1 $-1 $37 $-1 $11 #
shell $-1 $-1 $-1 $38 $-1 $13 #
shell $-1 $-1 $-1 $39 $-1 $15 #
shell $-1 $-1 $-1 $40 $-1 $17 #
shell $-1 $-1 $-1 $41 $-1 $19 #
shell $-1 $-1 $-1 $42 $-1 $21 #
shell $-1 $-1 $-1 $43 $-1 $23 #
shell $-1 $-1 $-1 $44 $-1 $25 #
face $-1 $45 $46 $27 $-1 $47 forward single #
face $-1 $48 $49 $28 $-1 $50 forward single #
face $-1 $51 $52 $29 $-1 $53 reversed single #
face $-1 $54 $55 $30 $-1 $56 forward single #
face $-1 $57 $58 $31 $-1 $59 forward single #
face $-1 $60 $61 $32 $-1 $62 reversed single #
face $-1 $63 $64 $33 $-1 $65 forward single #
face $-1 $66 $67 $34 $-1 $68 forward single #
face $-1 $69 $70 $35 $-1 $71 forward single #
face $-1 $72 $73 $27 $-1 $74 reversed single #
loop $-1 $-1 $75 $36 #
plane-surface $-1 0 0 9.4861675978778166 0 0 1 1 0 0 forward_v I I I I #
face $-1 $76 $77 $28 $-1 $78 reversed single #
loop $-1 $-1 $79 $37 #
plane-surface $-1 -51.076998199407939 0 0 1 0 0 0 0 -1 forward_v I I I I #
face $-1 $80 $81 $29 $-1 $82 reversed single #
loop $-1 $-1 $83 $38 #
plane-surface $-1 -36.919558727260487 48.400646166083547 119.26098371106633 1 0 0 0 -0.62932039886446345 -0.77714595512881146 forward_v I I I I #
face $-1 $84 $85 $30 $-1 $86 forward single #
loop $-1 $87 $88 $39 #
cone-surface $-1 -29.33680909941986 24.381959583114583 5.6942872847157142 0 -0.62932039886446345 -0.77714595512881146 1 0 0 1 I I 0 1 1 forward I I I I #
face $-1 $89 $90 $31 $-1 $91 forward single #
loop $-1 $92 $93 $40 #
cone-surface $-1 -17.962684657658926 24.381959583114583 5.6942872847157142 0 -0.62932039886446345 -0.77714595512881146 1 0 0 1 I I 0 1 1 forward I I I I #
face $-1 $94 $95 $32 $-1 $96 reversed single #
loop $-1 $-1 $97 $41 #
plane-surface $-1 18.836797822705392 -99.62382797260949 77.906388418397256 -1 0 0 0 -0.69465837861970381 0.71933979245794832 forward_v I I I I #
face $-1 $98 $99 $33 $-1 $100 forward single #
loop $-1 $101 $102 $42 #
cone-surface $-1 10.34038434325516 -25.224051238440097 6.1094731263970905 0 0.69465837861970381 -0.71933979245794832 1 0 0 1 I I 0 1 1 forward I I I I #
face $-1 $103 $104 $34 $-1 $105 forward single #
loop $-1 $106 $107 $43 #
cone-surface $-1 13.526539398048996 -25.224051238440097 6.1094731263970905 0 0.69465837861970381 -0.71933979245794832 1 0 0 1 I I 0 1 1 forward I I I I #
face $-1 $108 $109 $35 $-1 $110 forward single #
loop $-1 $111 $112 $44 #
cone-surface $-1 16.71269445284284 -25.224051238440097 6.1094731263970905 0 0.69465837861970381 -0.71933979245794832 1 0 0 1 I I 0 1 1 forward I I I I #
face $-1 $113 $114 $27 $-1 $115 reversed single #
loop $-1 $-1 $116 $45 #
plane-surface $-1 0 0 -9.4861675978778166 0 0 1 1 0 0 forward_v I I I I #
coedge $-1 $117 $118 $119 $120 forward $46 $-1 #
face $-1 $121 $122 $28 $-1 $123 forward single #
loop $-1 $-1 $124 $48 #
plane-surface $-1 0 28.661698464685006 0 0 -1 0 0 0 -1 forward_v I I I I #
coedge $-1 $125 $126 $127 $128 forward $49 $-1 #
face $-1 $129 $130 $29 $-1 $131 reversed single #
loop $-1 $-1 $132 $51 #
plane-surface $-1 -23.649746878539393 -15.886947593218224 39.872418609483404 0 0.62932039886446345 0.77714595512881146 1 0 0 forward_v I I I I #
coedge $-1 $133 $134 $135 $136 reversed $52 $-1 #
face $-1 $-1 $137 $30 $-1 $138 forward single #
loop $-1 $139 $140 $54 #
cone-surface $-1 -29.33680909941986 23.299936430820321 4.3580999981149589 0 -0.62932039886446345 -0.77714595512881146 0.5 0 0 1 I I -0.70710678118654746 0.70710678118654746 0.5 forward I I I I #
loop $-1 $-1 $141 $39 #
coedge $-1 $88 $88 $142 $143 reversed $55 $-1 #
face $-1 $-1 $144 $31 $-1 $145 forward single #
loop $-1 $146 $147 $57 #
cone-surface $-1 -17.962684657658926 23.299936430820321 4.3580999981149589 0 -0.62932039886446345 -0.77714595512881146 0.5 0 0 1 I I -0.70710678118654746 0.70710678118654746 0.5 forward I I I I #
loop $-1 $-1 $148 $40 #
coedge $-1 $93 $93 $149 $150 reversed $58 $-1 #
face $-1 $151 $152 $32 $-1 $153 reversed single #
loop $-1 $-1 $154 $60 #
plane-surface $-1 13.526539398048996 -28.661698464684989 4.4229538501230365 0 -0.69465837861970381 0.71933979245794832 1 0 0 forward_v I I I I #
coedge $-1 $155 $156 $157 $158 reversed $61 $-1 #
face $-1 $-1 $159 $33 $-1 $160 forward single #
loop $-1 $161 $162 $63 #
cone-surface $-1 10.34038434325516 -24.060630423868076 4.9047156325647734 0 0.69465837861970381 -0.71933979245794832 0.5 0 0 1 I I -0.70710678118654746 0.70710678118654746 0.5 forward I I I I #
loop $-1 $-1 $163 $42 #
coedge $-1 $102 $102 $164 $165 reversed $64 $-1 #
face $-1 $-1 $166 $34 $-1 $167 forward single #
loop $-1 $168 $169 $66 #
cone-surface $-1 13.526539398048996 -24.060630423868076 4.9047156325647734 0 0.69465837861970381 -0.71933979245794832 0.5 0 0 1 I I -0.70710678118654746 0.70710678118654746 0.5 forward I I I I #
loop $-1 $-1 $170 $43 #
coedge $-1 $107 $107 $171 $172 reversed $67 $-1 #
face $-1 $-1 $173 $35 $-1 $174 forward single #
loop $-1 $175 $176 $69 #
cone-surface $-1 16.71269445284284 -24.060630423868076 4.9047156325647734 0 0.69465837861970381 -0.71933979245794832 0.5 0 0 1 I I -0.70710678118654746 0.70710678118654746 0.5 forward I I I I #
loop $-1 $-1 $177 $44 #
coedge $-1 $112 $112 $178 $179 reversed $70 $-1 #
face $-1 $180 $181 $27 $-1 $182 reversed single #
loop $-1 $-1 $183 $72 #
plane-surface $-1 0 -28.661698464685006 0 0 1 0 0 0 1 forward_v I I I I #
coedge $-1 $184 $185 $186 $187 forward $73 $-1 #
coedge $-1 $188 $75 $189 $190 forward $46 $-1 #
coedge $-1 $75 $188 $191 $192 forward $46 $-1 #
coedge $-1 $193 $194 $75 $120 reversed $195 $-1 #
edge $-1 $196 -28.661698464685006 $197 28.661698464685006 $119 $198 forward 7 unknown #
face $-1 $199 $200 $28 $-1 $201 reversed single #
loop $-1 $-1 $127 $76 #
plane-surface $-1 -56.089019351529153 0 -6.0164658045929382 0 0 1 1 0 0 forward_v I I I I #
coedge $-1 $202 $203 $126 $204 forward $77 $-1 #
coedge $-1 $205 $79 $206 $207 reversed $49 $-1 #
coedge $-1 $79 $205 $124 $204 reversed $49 $-1 #
coedge $-1 $208 $209 $79 $128 reversed $122 $-1 #
edge $-1 $210 -28.661698464685006 $211 28.661698464685006 $127 $212 forward 7 unknown #
face $-1 $213 $214 $29 $-1 $215 forward single #
loop $-1 $-1 $216 $80 #
plane-surface $-1 -10.379935029818299 48.400646166083547 119.26098371106633 -1 0 0 0 0.62932039886446345 0.77714595512881146 forward_v I I I I #
coedge $-1 $217 $218 $219 $220 reversed $81 $-1 #
coedge $-1 $134 $83 $221 $222 reversed $52 $-1 #
coedge $-1 $83 $133 $217 $223 reversed $52 $-1 #
coedge $-1 $219 $224 $83 $136 forward $214 $-1 #
edge $-1 $225 -4.4613753816432329 $226 2.5633764757735804 $135 $227 forward 7 unknown #
loop $-1 $-1 $142 $84 #
plane-surface $-1 -23.649746878539393 -15.886947593218224 39.872418609483404 0 0.62932039886446345 0.77714595512881146 1 0 0 forward_v I I I I #
loop $-1 $-1 $228 $54 #
coedge $-1 $140 $140 $141 $229 reversed $85 $-1 #
coedge $-1 $141 $141 $140 $229 forward $87 $-1 #
coedge $-1 $142 $142 $88 $143 forward $137 $-1 #
edge $-1 $230 -5.9271571888034139e-016 $230 6.2831853071795996 $142 $231 forward 7 unknown #
loop $-1 $-1 $149 $89 #
plane-surface $-1 -23.649746878539393 -15.886947593218224 39.872418609483404 0 0.62932039886446345 0.77714595512881146 1 0 0 forward_v I I I I #
loop $-1 $-1 $232 $57 #
coedge $-1 $147 $147 $148 $233 reversed $90 $-1 #
coedge $-1 $148 $148 $147 $233 forward $92 $-1 #
coedge $-1 $149 $149 $93 $150 forward $144 $-1 #
edge $-1 $234 -5.9271571888034139e-016 $234 6.2831853071795996 $149 $235 forward 7 unknown #
face $-1 $236 $237 $32 $-1 $238 reversed single #
loop $-1 $-1 $239 $94 #
plane-surface $-1 8.2162809733925997 -99.62382797260949 77.906388418397256 1 0 0 0 0.69465837861970381 -0.71933979245794832 forward_v I I I I #
coedge $-1 $240 $241 $242 $243 reversed $95 $-1 #
coedge $-1 $156 $97 $244 $245 reversed $61 $-1 #
coedge $-1 $97 $155 $240 $246 reversed $61 $-1 #
coedge $-1 $242 $247 $97 $158 forward $248 $-1 #
edge $-1 $249 21.150215521619739 $250 26.393326723585247 $157 $251 forward 7 unknown #
loop $-1 $-1 $164 $98 #
plane-surface $-1 13.526539398048996 -28.661698464684989 4.4229538501230365 0 -0.69465837861970381 0.71933979245794832 1 0 0 forward_v I I I I #
loop $-1 $-1 $252 $63 #
coedge $-1 $162 $162 $163 $253 reversed $99 $-1 #
coedge $-1 $163 $163 $162 $253 forward $101 $-1 #
coedge $-1 $164 $164 $102 $165 forward $159 $-1 #
edge $-1 $254 -2.2893717256380363e-015 $254 6.2831853071795978 $164 $255 forward 7 unknown #
loop $-1 $-1 $171 $103 #
plane-surface $-1 13.526539398048996 -28.661698464684989 4.4229538501230365 0 -0.69465837861970381 0.71933979245794832 1 0 0 forward_v I I I I #
loop $-1 $-1 $256 $66 #
coedge $-1 $169 $169 $170 $257 reversed $104 $-1 #
coedge $-1 $170 $170 $169 $257 forward $106 $-1 #
coedge $-1 $171 $171 $107 $172 forward $166 $-1 #
edge $-1 $258 -2.2893717256380363e-015 $258 6.2831853071795978 $171 $259 forward 7 unknown #
loop $-1 $-1 $178 $108 #
plane-surface $-1 13.526539398048996 -28.661698464684989 4.4229538501230365 0 -0.69465837861970381 0.71933979245794832 1 0 0 forward_v I I I I #
loop $-1 $-1 $260 $69 #
coedge $-1 $176 $176 $177 $261 reversed $109 $-1 #
coedge $-1 $177 $177 $176 $261 forward $111 $-1 #
coedge $-1 $178 $178 $112 $179 forward $173 $-1 #
edge $-1 $262 -2.2893717256380363e-015 $262 6.2831853071795978 $178 $263 forward 7 unknown #
face $-1 $264 $265 $27 $-1 $266 reversed single #
loop $-1 $-1 $267 $113 #
plane-surface $-1 -51.076998199407939 0 0 1 0 0 0 0 -1 forward_v I I I I #
coedge $-1 $268 $191 $269 $270 forward $114 $-1 #
coedge $-1 $271 $116 $268 $272 forward $73 $-1 #
coedge $-1 $116 $271 $273 $274 forward $73 $-1 #
coedge $-1 $194 $193 $116 $187 reversed $195 $-1 #
edge $-1 $275 -28.661698464685006 $276 28.661698464685006 $186 $277 forward 7 unknown #
coedge $-1 $118 $117 $278 $279 forward $46 $-1 #
coedge $-1 $280 $281 $117 $190 reversed $265 $-1 #
edge $-1 $197 -51.076998199407939 $282 51.076998199407939 $189 $283 forward 7 unknown #
coedge $-1 $183 $284 $118 $192 reversed $114 $-1 #
edge $-1 $285 -51.076998199407939 $196 51.076998199407939 $191 $286 forward 7 unknown #
coedge $-1 $186 $119 $284 $287 forward $195 $-1 #
coedge $-1 $119 $186 $280 $288 reversed $195 $-1 #
loop $-1 $-1 $193 $264 #
vertex $-1 $120 $289 #
vertex $-1 $120 $290 #
straight-curve $-1 51.076998199407939 0 9.4861675978778166 0 1 0 I I #
face $-1 $291 $292 $28 $-1 $293 reversed single #
loop $-1 $-1 $294 $121 #
plane-surface $-1 -61.101040503650367 0 -7.7513167012353774 1 0 0 0 0 -1 forward_v I I I I #
coedge $-1 $295 $124 $296 $297 reversed $77 $-1 #
coedge $-1 $124 $295 $208 $298 reversed $77 $-1 #
edge $-1 $210 6.0164658045929382 $299 9.4861675978778166 $124 $300 forward 7 unknown #
coedge $-1 $126 $125 $301 $302 reversed $49 $-1 #
coedge $-1 $303 $304 $125 $207 forward $305 $-1 #
edge $-1 $306 -9.4861675978778166 $211 -6.0164658045929382 $206 $307 forward 7 unknown #
coedge $-1 $308 $127 $203 $298 forward $122 $-1 #
coedge $-1 $127 $308 $303 $309 forward $122 $-1 #
vertex $-1 $204 $310 #
vertex $-1 $309 $311 #
straight-curve $-1 -51.076998199407939 0 -6.0164658045929382 0 -1 0 I I #
face $-1 $-1 $312 $29 $-1 $313 reversed single #
loop $-1 $-1 $135 $129 #
plane-surface $-1 0 0 9.4861675978778166 0 0 1 1 0 0 forward_v I I I I #
coedge $-1 $314 $315 $316 $317 reversed $130 $-1 #
coedge $-1 $318 $132 $134 $223 forward $81 $-1 #
coedge $-1 $132 $318 $314 $319 forward $81 $-1 #
coedge $-1 $316 $135 $132 $220 forward $214 $-1 #
edge $-1 $226 -25.094685287990792 $320 1.4449384094513977 $219 $321 forward 7 unknown #
coedge $-1 $322 $323 $133 $222 forward $312 $-1 #
edge $-1 $324 -55.832856265906848 $225 -50.144324257655349 $221 $325 forward 7 unknown #
edge $-1 $226 48.284230205208821 $324 57.323396929369991 $134 $326 forward 7 unknown #
coedge $-1 $135 $316 $322 $327 forward $214 $-1 #
vertex $-1 $222 $328 #
vertex $-1 $136 $329 #
straight-curve $-1 -36.919558727260487 24.200323083041773 9.4861675978778166 0 -1 0 I I #
coedge $-1 $228 $228 $-1 $330 reversed $139 $-1 #
edge $-1 $331 0 $331 6.2831853071796004 $140 $332 forward 7 unknown #
vertex $-1 $143 $333 #
ellipse-curve $-1 -29.33680909941986 25.149322535976612 6.6419015937520598 0 0.62932039886446345 0.77714595512881146 1 0 0 1 I I #
coedge $-1 $232 $232 $-1 $334 reversed $146 $-1 #
edge $-1 $335 0 $335 6.2831853071796004 $147 $336 forward 7 unknown #
vertex $-1 $150 $337 #
ellipse-curve $-1 -17.962684657658926 25.149322535976612 6.6419015937520598 0 0.62932039886446345 0.77714595512881146 1 0 0 1 I I #
face $-1 $-1 $248 $32 $-1 $338 forward single #
loop $-1 $-1 $339 $151 #
plane-surface $-1 0 -28.661698464685006 0 0 1 0 0 0 1 forward_v I I I I #
coedge $-1 $340 $341 $342 $343 reversed $152 $-1 #
coedge $-1 $344 $154 $156 $246 forward $95 $-1 #
coedge $-1 $154 $344 $340 $345 forward $95 $-1 #
coedge $-1 $342 $157 $154 $243 forward $248 $-1 #
edge $-1 $250 -12.073528123680894 $346 -1.4530112743681016 $242 $347 forward 7 unknown #
coedge $-1 $348 $349 $155 $245 forward $237 $-1 #
edge $-1 $350 -34.530240359075606 $249 -29.467026611320811 $244 $351 forward 7 unknown #
edge $-1 $250 -7.2887823764761297 $350 2.4500672639978428e-014 $156 $352 forward 7 unknown #
coedge $-1 $157 $342 $348 $353 forward $248 $-1 #
loop $-1 $-1 $342 $236 #
vertex $-1 $245 $354 #
vertex $-1 $158 $355 #
straight-curve $-1 18.836797822705392 -49.811913986304745 9.4861675978778166 0 1 0 I I #
coedge $-1 $252 $252 $-1 $356 reversed $161 $-1 #
edge $-1 $357 0 $357 6.2831853071796004 $162 $358 forward 7 unknown #
vertex $-1 $165 $359 #
ellipse-curve $-1 10.34038434325516 -26.040142863702251 6.9545607240004177 0 -0.69465837861970381 0.71933979245794832 1 0 0 1 I I #
coedge $-1 $256 $256 $-1 $360 reversed $168 $-1 #
edge $-1 $361 0 $361 6.2831853071796004 $169 $362 forward 7 unknown #
vertex $-1 $172 $363 #
ellipse-curve $-1 13.526539398048996 -26.040142863702251 6.9545607240004177 0 -0.69465837861970381 0.71933979245794832 1 0 0 1 I I #
coedge $-1 $260 $260 $-1 $364 reversed $175 $-1 #
edge $-1 $365 0 $365 6.2831853071796004 $176 $366 forward 7 unknown #
vertex $-1 $179 $367 #
ellipse-curve $-1 16.71269445284284 -26.040142863702251 6.9545607240004177 0 -0.69465837861970381 0.71933979245794832 1 0 0 1 I I #
face $-1 $-1 $195 $27 $-1 $368 reversed single #
loop $-1 $-1 $280 $180 #
plane-surface $-1 0 28.661698464685006 0 0 -1 0 0 0 -1 forward_v I I I I #
coedge $-1 $369 $278 $281 $370 forward $181 $-1 #
coedge $-1 $284 $183 $184 $272 reversed $114 $-1 #
coedge $-1 $278 $369 $183 $270 reversed $181 $-1 #
edge $-1 $285 -9.4861675978778166 $371 9.4861675978778166 $269 $372 forward 7 unknown #
coedge $-1 $185 $184 $369 $373 forward $73 $-1 #
edge $-1 $276 -51.076998199407939 $371 51.076998199407939 $268 $374 forward 7 unknown #
coedge $-1 $281 $280 $185 $274 reversed $265 $-1 #
edge $-1 $375 -51.076998199407939 $275 51.076998199407939 $273 $376 forward 7 unknown #
vertex $-1 $187 $377 #
vertex $-1 $287 $378 #
straight-curve $-1 51.076998199407939 0 -9.4861675978778166 0 -1 0 I I #
coedge $-1 $267 $269 $188 $279 reversed $181 $-1 #
edge $-1 $282 -28.661698464685006 $285 28.661698464685006 $278 $379 forward 7 unknown #
coedge $-1 $273 $189 $194 $288 forward $265 $-1 #
coedge $-1 $189 $273 $267 $370 reversed $265 $-1 #
vertex $-1 $190 $380 #
straight-curve $-1 0 28.661698464685006 9.4861675978778166 -1 0 0 I I #
coedge $-1 $191 $268 $193 $287 reversed $114 $-1 #
vertex $-1 $279 $381 #
straight-curve $-1 0 -28.661698464685006 9.4861675978778166 1 0 0 I I #
edge $-1 $196 -9.4861675978778166 $276 9.4861675978778166 $193 $382 forward 7 unknown #
edge $-1 $197 -9.4861675978778166 $275 9.4861675978778166 $194 $383 forward 7 unknown #
point $-1 51.076998199407939 -28.661698464685006 9.4861675978778166 #
point $-1 51.076998199407939 28.661698464685006 9.4861675978778166 #
face $-1 $-1 $305 $28 $-1 $384 reversed single #
loop $-1 $-1 $301 $199 #
plane-surface $-1 0 0 -9.4861675978778166 0 0 1 1 0 0 forward_v I I I I #
coedge $-1 $385 $386 $295 $387 forward $200 $-1 #
coedge $-1 $203 $202 $294 $387 reversed $77 $-1 #
coedge $-1 $301 $388 $202 $297 forward $292 $-1 #
edge $-1 $389 -61.101040503650367 $299 -51.076998199407939 $202 $390 forward 7 unknown #
edge $-1 $210 -5.0120211521212141 $391 5.0120211521212141 $203 $392 forward 7 unknown #
vertex $-1 $204 $393 #
straight-curve $-1 -51.076998199407939 28.661698464685006 0 0 0 -1 I I #
coedge $-1 $394 $296 $205 $302 forward $292 $-1 #
edge $-1 $299 -28.661698464685006 $306 28.661698464685006 $301 $395 forward 7 unknown #
coedge $-1 $396 $206 $209 $309 reversed $305 $-1 #
coedge $-1 $206 $396 $394 $397 reversed $305 $-1 #
loop $-1 $-1 $206 $291 #
vertex $-1 $397 $398 #
straight-curve $-1 -51.076998199407939 -28.661698464685006 0 0 0 1 I I #
coedge $-1 $209 $208 $386 $399 forward $122 $-1 #
edge $-1 $400 -5.0120211521212141 $211 5.0120211521212141 $303 $401 forward 7 unknown #
point $-1 -51.076998199407939 28.661698464685006 -6.0164658045929382 #
point $-1 -51.076998199407939 -28.661698464685006 -6.0164658045929382 #
loop $-1 $-1 $221 $213 #
plane-surface $-1 0 28.661698464685006 0 0 -1 0 0 0 -1 forward_v I I I I #
coedge $-1 $315 $216 $218 $319 reversed $130 $-1 #
coedge $-1 $216 $314 $402 $403 reversed $130 $-1 #
coedge $-1 $224 $219 $216 $317 forward $214 $-1 #
edge $-1 $320 -2.5633764757735804 $404 4.4613753816432329 $316 $405 forward 7 unknown #
coedge $-1 $218 $217 $323 $406 reversed $81 $-1 #
edge $-1 $407 -57.323396929369991 $320 -48.284230205208821 $314 $408 forward 7 unknown #
vertex $-1 $220 $409 #
straight-curve $-1 -11.824873439269696 21.636946607268193 9.4861675978778166 1 0 0 I I #
coedge $-1 $402 $221 $224 $327 reversed $312 $-1 #
coedge $-1 $221 $402 $318 $406 forward $312 $-1 #
vertex $-1 $222 $410 #
straight-curve $-1 -36.919558727260487 28.661698464685006 59.630491855533165 0 0 1 I I #
straight-curve $-1 -36.919558727260487 -15.886947593218224 39.872418609483404 0 0.77714595512881146 -0.62932039886446345 I I #
edge $-1 $404 10.379935029818299 $225 36.919558727260487 $322 $411 forward 7 unknown #
point $-1 -36.919558727260487 28.661698464685006 9.4861675978778166 #
point $-1 -36.919558727260487 21.636946607268193 9.4861675978778131 #
edge $-1 $412 1 $412 0 $228 $-1 forward 7 unknown #
vertex $-1 $229 $413 #
ellipse-curve $-1 -29.33680909941986 23.614596630252553 4.7466729756793642 0 0.62932039886446345 0.77714595512881146 1 0 0 1 I I #
point $-1 -28.33680909941986 25.149322535976616 6.6419015937520651 #
edge $-1 $414 1 $414 0 $232 $-1 forward 7 unknown #
vertex $-1 $233 $415 #
ellipse-curve $-1 -17.962684657658926 23.614596630252553 4.7466729756793642 0 0.62932039886446345 0.77714595512881146 1 0 0 1 I I #
point $-1 -16.962684657658926 25.149322535976616 6.6419015937520651 #
plane-surface $-1 0 0 9.4861675978778166 0 0 1 1 0 0 forward_v I I I I #
coedge $-1 $349 $348 $341 $416 forward $237 $-1 #
coedge $-1 $341 $239 $241 $345 reversed $152 $-1 #
coedge $-1 $239 $340 $339 $416 reversed $152 $-1 #
coedge $-1 $247 $242 $239 $343 forward $248 $-1 #
edge $-1 $346 -26.393326723585247 $417 -21.150215521619739 $342 $418 forward 7 unknown #
coedge $-1 $241 $240 $349 $419 reversed $95 $-1 #
edge $-1 $420 -2.4500672639978428e-014 $346 7.2887823764761297 $340 $421 forward 7 unknown #
vertex $-1 $243 $422 #
straight-curve $-1 6.763269699024498 -23.418587262719498 9.4861675978778166 -1 0 0 I I #
coedge $-1 $339 $244 $247 $353 reversed $237 $-1 #
coedge $-1 $244 $339 $344 $419 forward $237 $-1 #
vertex $-1 $245 $423 #
straight-curve $-1 18.836797822705392 -28.661698464685003 38.953194209198628 0 0 1 I I #
straight-curve $-1 18.836797822705392 -28.661698464684989 4.4229538501230365 0 -0.71933979245794832 -0.69465837861970381 I I #
edge $-1 $417 8.2162809733925997 $249 18.836797822705392 $348 $424 forward 7 unknown #
point $-1 18.836797822705392 -28.661698464685006 9.4861675978778166 #
point $-1 18.836797822705392 -23.418587262719498 9.4861675978778166 #
edge $-1 $425 1 $425 0 $252 $-1 forward 7 unknown #
vertex $-1 $253 $426 #
ellipse-curve $-1 10.34038434325516 -24.40795961317793 5.2643855287937473 0 -0.69465837861970381 0.71933979245794832 1 0 0 1 I I #
point $-1 11.34038434325516 -26.040142863702268 6.9545607240004328 #
edge $-1 $427 1 $427 0 $256 $-1 forward 7 unknown #
vertex $-1 $257 $428 #
ellipse-curve $-1 13.526539398048996 -24.40795961317793 5.2643855287937473 0 -0.69465837861970381 0.71933979245794832 1 0 0 1 I I #
point $-1 14.526539398048996 -26.040142863702268 6.9545607240004328 #
edge $-1 $429 1 $429 0 $260 $-1 forward 7 unknown #
vertex $-1 $261 $430 #
ellipse-curve $-1 16.71269445284284 -24.40795961317793 5.2643855287937473 0 -0.69465837861970381 0.71933979245794832 1 0 0 1 I I #
point $-1 17.71269445284284 -26.040142863702268 6.9545607240004328 #
plane-surface $-1 51.076998199407939 0 0 -1 0 0 0 0 1 forward_v I I I I #
coedge $-1 $269 $267 $271 $373 reversed $181 $-1 #
edge $-1 $282 -9.4861675978778166 $375 9.4861675978778166 $281 $431 forward 7 unknown #
vertex $-1 $373 $432 #
straight-curve $-1 -51.076998199407939 -28.661698464685006 0 0 0 -1 I I #
edge $-1 $371 -28.661698464685006 $375 28.661698464685006 $369 $433 forward 7 unknown #
straight-curve $-1 0 -28.661698464685006 -9.4861675978778166 -1 0 0 I I #
vertex $-1 $274 $434 #
straight-curve $-1 0 28.661698464685006 -9.4861675978778166 1 0 0 I I #
point $-1 51.076998199407939 28.661698464685006 -9.4861675978778166 #
point $-1 51.076998199407939 -28.661698464685006 -9.4861675978778166 #
straight-curve $-1 -51.076998199407939 0 9.4861675978778166 0 -1 0 I I #
point $-1 -51.076998199407939 28.661698464685006 9.4861675978778166 #
point $-1 -51.076998199407939 -28.661698464685006 9.4861675978778166 #
straight-curve $-1 51.076998199407939 -28.661698464685006 0 0 0 -1 I I #
straight-curve $-1 51.076998199407939 28.661698464685006 0 0 0 -1 I I #
plane-surface $-1 0 -28.661698464685006 0 0 1 0 0 0 1 forward_v I I I I #
coedge $-1 $435 $294 $388 $436 reversed $200 $-1 #
coedge $-1 $294 $435 $308 $399 reversed $200 $-1 #
edge $-1 $391 -1.7348508966424392 $389 1.7348508966424392 $295 $437 forward 7 unknown #
coedge $-1 $296 $394 $385 $436 forward $292 $-1 #
vertex $-1 $297 $438 #
straight-curve $-1 0 28.661698464685006 -9.4861675978778166 1 0 0 I I #
vertex $-1 $298 $439 #
straight-curve $-1 -56.089019351529153 28.661698464685006 -6.0164658045929382 -1 0 0 I I #
point $-1 -51.076998199407939 28.661698464685006 -9.4861675978778166 #
coedge $-1 $388 $301 $304 $397 forward $292 $-1 #
straight-curve $-1 -51.076998199407939 0 -9.4861675978778166 0 -1 0 I I #
coedge $-1 $304 $303 $435 $440 forward $305 $-1 #
edge $-1 $306 -5.0120211521212141 $441 5.0120211521212141 $304 $442 forward 7 unknown #
point $-1 -51.076998199407939 -28.661698464685006 -9.4861675978778166 #
edge $-1 $391 -28.661698464685006 $400 28.661698464685006 $386 $443 forward 7 unknown #
vertex $-1 $399 $444 #
straight-curve $-1 -56.089019351529153 -28.661698464685006 -6.0164658045929382 1 0 0 I I #
coedge $-1 $323 $322 $315 $403 forward $312 $-1 #
edge $-1 $404 50.144324257655349 $407 55.832856265906848 $402 $445 forward 7 unknown #
vertex $-1 $327 $446 #
straight-curve $-1 -10.379935029818299 24.200323083041773 9.4861675978778166 0 1 0 I I #
edge $-1 $407 -1.4449384094513977 $324 25.094685287990792 $323 $447 forward 7 unknown #
vertex $-1 $406 $448 #
straight-curve $-1 -10.379935029818299 -15.886947593218224 39.872418609483404 0 -0.77714595512881146 0.62932039886446345 I I #
point $-1 -10.379935029818299 21.636946607268193 9.4861675978778131 #
point $-1 -36.919558727260487 28.661698464685003 3.7976355896263172 #
straight-curve $-1 0 28.661698464685006 9.4861675978778166 -1 0 0 I I #
vertex $-1 $330 $449 #
point $-1 -28.33680909941986 23.614596630252553 4.7466729756793642 #
vertex $-1 $334 $450 #
point $-1 -16.962684657658926 23.614596630252553 4.7466729756793642 #
edge $-1 $417 29.467026611320811 $420 34.530240359075606 $339 $451 forward 7 unknown #
vertex $-1 $353 $452 #
straight-curve $-1 8.2162809733925997 -49.811913986304745 9.4861675978778166 0 -1 0 I I #
edge $-1 $420 1.4530112743681016 $350 12.073528123680894 $349 $453 forward 7 unknown #
vertex $-1 $419 $454 #
straight-curve $-1 8.2162809733925997 -28.661698464684989 4.4229538501230365 0 0.71933979245794832 0.69465837861970381 I I #
point $-1 8.2162809733925997 -23.418587262719498 9.4861675978778166 #
point $-1 18.836797822705392 -28.661698464685006 4.4229538501230197 #
straight-curve $-1 0 -28.661698464685006 9.4861675978778166 1 0 0 I I #
vertex $-1 $356 $455 #
point $-1 11.34038434325516 -24.40795961317793 5.2643855287937473 #
vertex $-1 $360 $456 #
point $-1 14.526539398048996 -24.40795961317793 5.2643855287937473 #
vertex $-1 $364 $457 #
point $-1 17.71269445284284 -24.40795961317793 5.2643855287937473 #
straight-curve $-1 -51.076998199407939 28.661698464685006 0 0 0 -1 I I #
point $-1 -51.076998199407939 -28.661698464685006 -9.4861675978778166 #
straight-curve $-1 -51.076998199407939 0 -9.4861675978778166 0 1 0 I I #
point $-1 -51.076998199407939 28.661698464685006 -9.4861675978778166 #
coedge $-1 $386 $385 $396 $440 reversed $200 $-1 #
edge $-1 $441 -28.661698464685006 $389 28.661698464685006 $385 $458 forward 7 unknown #
straight-curve $-1 -61.101040503650367 28.661698464685006 -7.7513167012353774 0 0 -1 I I #
point $-1 -61.101040503650367 28.661698464685006 -9.4861675978778166 #
point $-1 -61.101040503650367 28.661698464685006 -6.0164658045929382 #
edge $-1 $400 -1.7348508966424392 $441 1.7348508966424392 $435 $459 forward 7 unknown #
vertex $-1 $436 $460 #
straight-curve $-1 -56.089019351529153 -28.661698464685006 -9.4861675978778166 -1 0 0 I I #
straight-curve $-1 -61.101040503650367 0 -6.0164658045929382 0 -1 0 I I #
point $-1 -61.101040503650367 -28.661698464685006 -6.0164658045929382 #
straight-curve $-1 -10.379935029818299 28.661698464685006 59.630491855533165 0 0 -1 I I #
point $-1 -10.379935029818299 28.661698464685006 9.4861675978778166 #
straight-curve $-1 -11.824873439269696 28.661698464685006 3.7976355896263136 -1 0 0 I I #
point $-1 -10.379935029818299 28.661698464685003 3.7976355896263172 #
point $-1 -29.33680909941986 22.985276231388088 3.9695270205505531 #
point $-1 -17.962684657658926 22.985276231388088 3.9695270205505531 #
straight-curve $-1 8.2162809733925997 -28.661698464685003 38.953194209198628 0 0 -1 I I #
point $-1 8.2162809733925997 -28.661698464685006 9.4861675978778166 #
straight-curve $-1 6.763269699024498 -28.661698464685006 4.4229538501230179 1 0 0 I I #
point $-1 8.2162809733925997 -28.661698464685006 4.4229538501230197 #
point $-1 10.34038434325516 -23.713301234558223 4.5450457363357994 #
point $-1 13.526539398048996 -23.713301234558223 4.5450457363357994 #
point $-1 16.71269445284284 -23.713301234558223 4.5450457363357994 #
straight-curve $-1 -61.101040503650367 0 -9.4861675978778166 0 1 0 I I #
straight-curve $-1 -61.101040503650367 -28.661698464685006 -7.7513167012353774 0 0 -1 I I #
point $-1 -61.101040503650367 -28.661698464685006 -9.4861675978778166 #
End-of-ACIS-data 