500 0 5 0           
7 Unknown 11 ACIS 5.0 NT 24 Thu Mar 25 15:30:01 1999 
-1 9.9999999999999995e-007 1e-010 
body $-1 $5 $-1 $6 #
body $-1 $7 $-1 $8 #
body $-1 $9 $-1 $10 #
body $-1 $11 $-1 $12 #
body $-1 $13 $-1 $14 #
lump $-1 $-1 $15 $0 #
transform $-1 1 0 0 0 1 0 0 0 1 76.8016602069155 44.415440542526504 8.930665914317327 1 rotate no_reflect no_shear #
lump $-1 $-1 $16 $1 #
transform $-1 1 0 0 0 1 0 0 0 1 76.8016602069155 44.415440542526504 8.930665914317327 1 rotate no_reflect no_shear #
lump $-1 $-1 $17 $2 #
transform $-1 1 0 0 0 1 0 0 0 1 76.8016602069155 44.415440542526504 8.930665914317327 1 rotate no_reflect no_shear #
lump $-1 $-1 $18 $3 #
transform $-1 1 0 0 0 1 0 0 0 1 76.8016602069155 44.415440542526504 8.930665914317327 1 rotate no_reflect no_shear #
lump $-1 $-1 $19 $4 #
transform $-1 1 0 0 0 1 0 0 0 1 76.8016602069155 44.415440542526504 8.930665914317327 1 rotate no_reflect no_shear #
shell $-1 $-1 $-1 $20 $-1 $5 #
shell $-1 $-1 $-1 $21 $-1 $7 #
shell $-1 $-1 $-1 $22 $-1 $9 #
shell $-1 $-1 $-1 $23 $-1 $11 #
shell $-1 $-1 $-1 $24 $-1 $13 #
face $-1 $25 $26 $15 $-1 $27 forward single #
face $-1 $28 $29 $16 $-1 $30 reversed single #
face $-1 $31 $32 $17 $-1 $33 reversed single #
face $-1 $34 $35 $18 $-1 $36 reversed single #
face $-1 $37 $38 $19 $-1 $39 forward single #
face $-1 $40 $41 $15 $-1 $42 reversed single #
loop $-1 $-1 $43 $20 #
plane-surface $-1 0 0 8.930665914317327 0 0 1 1 0 0 forward_v I I I I #
face $-1 $44 $45 $16 $-1 $46 reversed single #
loop $-1 $-1 $47 $21 #
plane-surface $-1 -76.016013915042436 -40.624847508790175 0 1 0 0 0 0 -1 forward_v I I I I #
face $-1 $48 $49 $17 $-1 $50 reversed single #
loop $-1 $-1 $51 $22 #
plane-surface $-1 -73.457445041765851 36.834254475053847 0 0 1 0 0 0 1 forward_v I I I I #
face $-1 $52 $53 $18 $-1 $54 reversed single #
loop $-1 $-1 $55 $23 #
plane-surface $-1 -201.06935807117935 -32.212837758981117 91.956892321913884 0 1 0 -0.80901700255871778 0 0.5877852410284794 forward_v I I I I #
face $-1 $56 $57 $19 $-1 $58 forward single #
loop $-1 $59 $60 $24 #
cone-surface $-1 -72.603774786899251 -23.019168816928811 4.1669790809281162 0.80901700255871778 0 -0.5877852410284794 0.5877852410284794 0 0.80901700255871778 1 I I 0 1 1 forward I I I I #
face $-1 $61 $62 $15 $-1 $63 reversed single #
loop $-1 $-1 $64 $25 #
plane-surface $-1 0 0 -8.930665914317327 0 0 1 1 0 0 forward_v I I I I #
coedge $-1 $65 $66 $67 $68 forward $26 $-1 #
face $-1 $69 $70 $16 $-1 $71 reversed single #
loop $-1 $-1 $72 $28 #
plane-surface $-1 -73.457445041765851 -36.834254475053847 0 0 -1 0 0 0 -1 forward_v I I I I #
coedge $-1 $73 $74 $75 $76 forward $29 $-1 #
face $-1 $77 $78 $17 $-1 $79 reversed single #
loop $-1 $-1 $80 $31 #
plane-surface $-1 -76.016013915042436 40.624847508790175 0 1 0 0 0 0 -1 forward_v I I I I #
coedge $-1 $81 $82 $83 $84 forward $32 $-1 #
face $-1 $85 $86 $18 $-1 $87 reversed single #
loop $-1 $-1 $88 $34 #
plane-surface $-1 -76.801660206915486 -23.019168816928811 1.6711276096954748 -0.80901700255871778 0 0.5877852410284794 0.5877852410284794 0 0.80901700255871778 forward_v I I I I #
coedge $-1 $89 $90 $91 $92 reversed $35 $-1 #
face $-1 $-1 $93 $19 $-1 $94 forward single #
loop $-1 $95 $96 $37 #
cone-surface $-1 -70.638562444385059 -23.019168816928811 2.7391687793355892 0.80901700255871778 0 -0.5877852410284794 0.2938926205142397 0 0.40450850127935889 1 I I -0.70710678118654746 0.70710678118654746 0.5 forward I I I I #
loop $-1 $-1 $97 $24 #
coedge $-1 $60 $60 $98 $99 reversed $38 $-1 #
face $-1 $100 $101 $15 $-1 $102 reversed single #
loop $-1 $-1 $103 $40 #
plane-surface $-1 0 -44.415440542526504 0 0 1 0 0 0 1 forward_v I I I I #
coedge $-1 $104 $105 $106 $107 forward $41 $-1 #
coedge $-1 $108 $43 $109 $110 forward $26 $-1 #
coedge $-1 $43 $108 $111 $112 forward $26 $-1 #
coedge $-1 $113 $114 $43 $68 reversed $115 $-1 #
edge $-1 $116 -44.415440542526504 $117 44.415440542526504 $67 $118 forward 7 unknown #
face $-1 $119 $120 $16 $-1 $121 forward single #
loop $-1 $-1 $122 $44 #
plane-surface $-1 -70.898876168489267 -40.624847508790175 0 -1 0 0 0 0 1 forward_v I I I I #
coedge $-1 $123 $124 $125 $126 forward $45 $-1 #
coedge $-1 $127 $47 $128 $129 reversed $29 $-1 #
coedge $-1 $47 $127 $130 $131 reversed $29 $-1 #
coedge $-1 $124 $123 $47 $76 reversed $45 $-1 #
edge $-1 $132 -8.930665914317327 $133 8.930665914317327 $75 $134 forward 7 unknown #
face $-1 $135 $136 $17 $-1 $137 reversed single #
loop $-1 $-1 $138 $48 #
plane-surface $-1 -70.898876168489267 40.624847508790175 0 -1 0 0 0 0 1 forward_v I I I I #
coedge $-1 $139 $140 $141 $142 reversed $49 $-1 #
coedge $-1 $143 $51 $144 $145 reversed $32 $-1 #
coedge $-1 $51 $143 $146 $147 reversed $32 $-1 #
coedge $-1 $140 $139 $51 $84 reversed $49 $-1 #
edge $-1 $148 -8.930665914317327 $149 8.930665914317327 $83 $150 forward 7 unknown #
face $-1 $151 $152 $18 $-1 $153 reversed single #
loop $-1 $-1 $154 $52 #
plane-surface $-1 -201.06935807117935 -13.825499874876506 91.956892321913884 0 -1 0 0.80901700255871778 0 -0.5877852410284794 forward_v I I I I #
coedge $-1 $155 $156 $157 $158 reversed $53 $-1 #
coedge $-1 $90 $55 $159 $160 reversed $35 $-1 #
coedge $-1 $55 $89 $155 $161 reversed $35 $-1 #
coedge $-1 $157 $162 $55 $92 forward $163 $-1 #
edge $-1 $164 23.733018828674176 $165 29.00738198623705 $91 $166 forward 7 unknown #
loop $-1 $-1 $98 $56 #
plane-surface $-1 -76.801660206915486 -23.019168816928811 1.6711276096954748 -0.80901700255871778 0 0.5877852410284794 0.5877852410284794 0 0.80901700255871778 forward_v I I I I #
loop $-1 $-1 $167 $37 #
coedge $-1 $96 $96 $97 $168 reversed $57 $-1 #
coedge $-1 $97 $97 $96 $168 forward $59 $-1 #
coedge $-1 $98 $98 $60 $99 forward $93 $-1 #
edge $-1 $169 0 $169 6.2831853071796004 $98 $170 forward 7 unknown #
face $-1 $171 $172 $15 $-1 $173 reversed single #
loop $-1 $-1 $174 $61 #
plane-surface $-1 -76.8016602069155 0 0 1 0 0 0 0 -1 forward_v I I I I #
coedge $-1 $175 $111 $176 $177 forward $62 $-1 #
coedge $-1 $178 $64 $175 $179 forward $41 $-1 #
coedge $-1 $64 $178 $180 $181 forward $41 $-1 #
coedge $-1 $114 $113 $64 $107 reversed $115 $-1 #
edge $-1 $182 -44.415440542526504 $183 44.415440542526504 $106 $184 forward 7 unknown #
coedge $-1 $66 $65 $185 $186 forward $26 $-1 #
coedge $-1 $187 $188 $65 $110 reversed $172 $-1 #
edge $-1 $117 -76.8016602069155 $189 76.8016602069155 $109 $190 forward 7 unknown #
coedge $-1 $103 $191 $66 $112 reversed $62 $-1 #
edge $-1 $192 -76.8016602069155 $116 76.8016602069155 $111 $193 forward 7 unknown #
coedge $-1 $106 $67 $191 $194 forward $115 $-1 #
coedge $-1 $67 $106 $187 $195 reversed $115 $-1 #
loop $-1 $-1 $113 $171 #
vertex $-1 $68 $196 #
vertex $-1 $68 $197 #
straight-curve $-1 76.8016602069155 0 8.930665914317327 0 1 0 I I #
face $-1 $198 $199 $16 $-1 $200 reversed single #
loop $-1 $-1 $201 $69 #
plane-surface $-1 0 0 8.930665914317327 0 0 1 1 0 0 forward_v I I I I #
coedge $-1 $202 $203 $204 $205 reversed $70 $-1 #
coedge $-1 $75 $72 $206 $207 reversed $45 $-1 #
coedge $-1 $72 $75 $208 $209 reversed $45 $-1 #
coedge $-1 $203 $202 $72 $126 reversed $70 $-1 #
edge $-1 $210 -8.930665914317327 $211 8.930665914317327 $125 $212 forward 7 unknown #
coedge $-1 $74 $73 $213 $214 reversed $29 $-1 #
coedge $-1 $206 $215 $73 $129 forward $199 $-1 #
edge $-1 $216 -24.103016788131416 $133 -16.521830720658759 $128 $217 forward 7 unknown #
coedge $-1 $218 $208 $74 $131 forward $120 $-1 #
edge $-1 $132 16.521830720658759 $219 24.103016788131416 $130 $220 forward 7 unknown #
vertex $-1 $131 $221 #
vertex $-1 $129 $222 #
straight-curve $-1 -76.016013915042436 -36.834254475053847 0 0 0 -1 I I #
face $-1 $223 $224 $17 $-1 $225 forward single #
loop $-1 $-1 $226 $77 #
plane-surface $-1 0 0 -8.930665914317327 0 0 1 1 0 0 forward_v I I I I #
coedge $-1 $227 $228 $143 $229 forward $78 $-1 #
coedge $-1 $83 $80 $230 $231 reversed $49 $-1 #
coedge $-1 $80 $83 $232 $233 reversed $49 $-1 #
coedge $-1 $234 $235 $80 $142 forward $236 $-1 #
edge $-1 $237 -8.930665914317327 $238 8.930665914317327 $141 $239 forward 7 unknown #
coedge $-1 $82 $81 $138 $229 reversed $32 $-1 #
coedge $-1 $230 $226 $81 $145 forward $136 $-1 #
edge $-1 $240 34.170153647606341 $149 39.28729139415951 $144 $241 forward 7 unknown #
coedge $-1 $242 $232 $82 $147 forward $224 $-1 #
edge $-1 $148 -39.28729139415951 $243 -34.170153647606341 $146 $244 forward 7 unknown #
vertex $-1 $147 $245 #
vertex $-1 $145 $246 #
straight-curve $-1 -76.016013915042436 36.834254475053847 0 0 0 -1 I I #
face $-1 $-1 $163 $18 $-1 $247 forward single #
loop $-1 $-1 $248 $85 #
plane-surface $-1 -76.8016602069155 0 0 1 0 0 0 0 -1 forward_v I I I I #
coedge $-1 $249 $250 $251 $252 reversed $86 $-1 #
coedge $-1 $253 $88 $90 $161 forward $53 $-1 #
coedge $-1 $88 $253 $249 $254 forward $53 $-1 #
coedge $-1 $251 $91 $88 $158 forward $163 $-1 #
edge $-1 $165 -20.703253350516711 $255 -2.3159154664121004 $157 $256 forward 7 unknown #
coedge $-1 $257 $258 $89 $160 forward $152 $-1 #
edge $-1 $259 -44.307318551261488 $164 -37.047780246639618 $159 $260 forward 7 unknown #
edge $-1 $165 -8.9732827390051852 $259 2.4161062406544664e-014 $90 $261 forward 7 unknown #
coedge $-1 $91 $251 $257 $262 forward $163 $-1 #
loop $-1 $-1 $251 $151 #
vertex $-1 $160 $263 #
vertex $-1 $92 $264 #
straight-curve $-1 -100.53467903558968 -32.212837758981117 8.9306659143173235 1 0 0 I I #
coedge $-1 $167 $167 $-1 $265 reversed $95 $-1 #
edge $-1 $266 0 $266 6.2831853071796004 $96 $267 forward 7 unknown #
vertex $-1 $99 $268 #
ellipse-curve $-1 -74.164478628134063 -23.019168816928811 5.300896762006392 -0.80901700255871778 0 0.5877852410284794 0.5877852410284794 0 0.80901700255871778 1 I I #
face $-1 $-1 $115 $15 $-1 $269 reversed single #
loop $-1 $-1 $187 $100 #
plane-surface $-1 0 44.415440542526504 0 0 -1 0 0 0 -1 forward_v I I I I #
coedge $-1 $270 $185 $188 $271 forward $101 $-1 #
coedge $-1 $191 $103 $104 $179 reversed $62 $-1 #
coedge $-1 $185 $270 $103 $177 reversed $101 $-1 #
edge $-1 $192 -8.930665914317327 $272 8.930665914317327 $176 $273 forward 7 unknown #
coedge $-1 $105 $104 $270 $274 forward $41 $-1 #
edge $-1 $183 -76.8016602069155 $272 76.8016602069155 $175 $275 forward 7 unknown #
coedge $-1 $188 $187 $105 $181 reversed $172 $-1 #
edge $-1 $276 -76.8016602069155 $182 76.8016602069155 $180 $277 forward 7 unknown #
vertex $-1 $107 $278 #
vertex $-1 $194 $279 #
straight-curve $-1 76.8016602069155 0 -8.930665914317327 0 -1 0 I I #
coedge $-1 $174 $176 $108 $186 reversed $101 $-1 #
edge $-1 $189 -44.415440542526504 $192 44.415440542526504 $185 $280 forward 7 unknown #
coedge $-1 $180 $109 $114 $195 forward $172 $-1 #
coedge $-1 $109 $180 $174 $271 reversed $172 $-1 #
vertex $-1 $110 $281 #
straight-curve $-1 0 44.415440542526504 8.930665914317327 -1 0 0 I I #
coedge $-1 $111 $175 $113 $194 reversed $62 $-1 #
vertex $-1 $186 $282 #
straight-curve $-1 0 -44.415440542526504 8.930665914317327 1 0 0 I I #
edge $-1 $116 -8.930665914317327 $183 8.930665914317327 $113 $283 forward 7 unknown #
edge $-1 $117 -8.930665914317327 $182 8.930665914317327 $114 $284 forward 7 unknown #
point $-1 76.8016602069155 -44.415440542526504 8.930665914317327 #
point $-1 76.8016602069155 44.415440542526504 8.930665914317327 #
face $-1 $-1 $285 $16 $-1 $286 reversed single #
loop $-1 $-1 $287 $119 #
plane-surface $-1 0 0 -8.930665914317327 0 0 1 1 0 0 forward_v I I I I #
coedge $-1 $208 $218 $203 $288 forward $120 $-1 #
coedge $-1 $125 $122 $287 $289 reversed $70 $-1 #
coedge $-1 $122 $125 $201 $288 reversed $70 $-1 #
coedge $-1 $290 $291 $122 $205 forward $285 $-1 #
edge $-1 $292 -8.930665914317327 $293 8.930665914317327 $204 $294 forward 7 unknown #
coedge $-1 $287 $128 $123 $207 forward $199 $-1 #
edge $-1 $133 -39.28729139415951 $211 -34.170153647606341 $206 $295 forward 7 unknown #
coedge $-1 $130 $201 $124 $209 forward $120 $-1 #
edge $-1 $210 34.170153647606341 $132 39.28729139415951 $208 $296 forward 7 unknown #
vertex $-1 $209 $297 #
vertex $-1 $207 $298 #
straight-curve $-1 -70.898876168489267 -36.834254475053847 0 0 0 -1 I I #
coedge $-1 $291 $290 $127 $214 forward $285 $-1 #
edge $-1 $219 -8.930665914317327 $216 8.930665914317327 $213 $299 forward 7 unknown #
coedge $-1 $128 $287 $291 $300 forward $199 $-1 #
vertex $-1 $129 $301 #
straight-curve $-1 -76.016013915042436 -20.312423754395088 -8.930665914317327 0 1 0 I I #
coedge $-1 $201 $130 $290 $302 forward $120 $-1 #
vertex $-1 $302 $303 #
straight-curve $-1 -76.016013915042436 -20.312423754395088 8.930665914317327 0 -1 0 I I #
point $-1 -76.016013915042436 -36.834254475053847 8.930665914317327 #
point $-1 -76.016013915042436 -36.834254475053847 -8.930665914317327 #
face $-1 $-1 $236 $17 $-1 $304 reversed single #
loop $-1 $-1 $242 $135 #
plane-surface $-1 0 0 8.930665914317327 0 0 1 1 0 0 forward_v I I I I #
coedge $-1 $144 $305 $227 $306 forward $136 $-1 #
coedge $-1 $307 $138 $226 $306 reversed $78 $-1 #
coedge $-1 $138 $307 $242 $308 reversed $78 $-1 #
edge $-1 $243 -8.930665914317327 $240 8.930665914317327 $138 $309 forward 7 unknown #
coedge $-1 $305 $144 $139 $231 forward $136 $-1 #
edge $-1 $149 16.521830720658759 $237 24.103016788131416 $230 $310 forward 7 unknown #
coedge $-1 $146 $311 $140 $233 forward $224 $-1 #
edge $-1 $238 -24.103016788131416 $148 -16.521830720658759 $232 $312 forward 7 unknown #
coedge $-1 $313 $141 $311 $314 reversed $236 $-1 #
coedge $-1 $141 $313 $305 $315 reversed $236 $-1 #
loop $-1 $-1 $313 $223 #
vertex $-1 $315 $316 #
vertex $-1 $142 $317 #
straight-curve $-1 -76.016013915042436 44.415440542526504 0 0 0 1 I I #
vertex $-1 $145 $318 #
straight-curve $-1 -36.728722520882926 36.834254475053847 -8.930665914317327 -1 0 0 I I #
coedge $-1 $311 $146 $228 $308 forward $224 $-1 #
vertex $-1 $147 $319 #
straight-curve $-1 -36.728722520882926 36.834254475053847 8.930665914317327 1 0 0 I I #
point $-1 -76.016013915042436 36.834254475053847 8.930665914317327 #
point $-1 -76.016013915042436 36.834254475053847 -8.930665914317327 #
plane-surface $-1 0 0 8.930665914317327 0 0 1 1 0 0 forward_v I I I I #
coedge $-1 $258 $257 $250 $320 forward $152 $-1 #
coedge $-1 $250 $154 $156 $254 reversed $86 $-1 #
coedge $-1 $154 $249 $248 $320 reversed $86 $-1 #
coedge $-1 $162 $157 $154 $252 forward $163 $-1 #
edge $-1 $255 -29.00738198623705 $321 -23.733018828674176 $251 $322 forward 7 unknown #
coedge $-1 $156 $155 $258 $323 reversed $53 $-1 #
edge $-1 $324 -2.4161062406544664e-014 $255 8.9732827390051852 $249 $325 forward 7 unknown #
vertex $-1 $158 $326 #
straight-curve $-1 -71.527297049352626 -11.509584408464406 8.930665914317327 0 1 0 I I #
coedge $-1 $248 $159 $162 $262 reversed $152 $-1 #
coedge $-1 $159 $248 $253 $323 forward $152 $-1 #
vertex $-1 $160 $327 #
straight-curve $-1 -76.8016602069155 -32.212837758981117 45.978446160956942 0 0 1 I I #
straight-curve $-1 -76.801660206915486 -32.212837758981117 1.6711276096954748 -0.5877852410284794 0 -0.80901700255871778 I I #
edge $-1 $321 13.825499874876506 $164 32.212837758981117 $257 $328 forward 7 unknown #
point $-1 -76.8016602069155 -32.212837758981117 8.930665914317327 #
point $-1 -71.527297049352626 -32.212837758981117 8.930665914317327 #
edge $-1 $329 1 $329 0 $167 $-1 forward 7 unknown #
vertex $-1 $168 $330 #
ellipse-curve $-1 -71.043070945664411 -23.019168816928811 3.0330613998498288 -0.80901700255871778 0 0.5877852410284794 0.5877852410284794 0 0.80901700255871778 1 I I #
point $-1 -73.576693387105593 -23.019168816928811 6.1099137645651211 #
plane-surface $-1 76.8016602069155 0 0 -1 0 0 0 0 1 forward_v I I I I #
coedge $-1 $176 $174 $178 $274 reversed $101 $-1 #
edge $-1 $189 -8.930665914317327 $276 8.930665914317327 $188 $331 forward 7 unknown #
vertex $-1 $274 $332 #
straight-curve $-1 -76.8016602069155 -44.415440542526504 0 0 0 -1 I I #
edge $-1 $272 -44.415440542526504 $276 44.415440542526504 $270 $333 forward 7 unknown #
straight-curve $-1 0 -44.415440542526504 -8.930665914317327 -1 0 0 I I #
vertex $-1 $181 $334 #
straight-curve $-1 0 44.415440542526504 -8.930665914317327 1 0 0 I I #
point $-1 76.8016602069155 44.415440542526504 -8.930665914317327 #
point $-1 76.8016602069155 -44.415440542526504 -8.930665914317327 #
straight-curve $-1 -76.8016602069155 0 8.930665914317327 0 -1 0 I I #
point $-1 -76.8016602069155 44.415440542526504 8.930665914317327 #
point $-1 -76.8016602069155 -44.415440542526504 8.930665914317327 #
straight-curve $-1 76.8016602069155 -44.415440542526504 0 0 0 -1 I I #
straight-curve $-1 76.8016602069155 44.415440542526504 0 0 0 -1 I I #
loop $-1 $-1 $204 $198 #
plane-surface $-1 0 -44.415440542526504 0 0 1 0 0 0 1 forward_v I I I I #
coedge $-1 $215 $206 $202 $289 forward $199 $-1 #
edge $-1 $293 -24.103016788131416 $210 -16.521830720658759 $201 $335 forward 7 unknown #
edge $-1 $211 16.521830720658759 $292 24.103016788131416 $287 $336 forward 7 unknown #
coedge $-1 $213 $204 $218 $302 reversed $285 $-1 #
coedge $-1 $204 $213 $215 $300 reversed $285 $-1 #
vertex $-1 $300 $337 #
vertex $-1 $205 $338 #
straight-curve $-1 -70.898876168489267 -44.415440542526504 0 0 0 1 I I #
straight-curve $-1 -36.728722520882926 -36.834254475053847 -8.930665914317327 1 0 0 I I #
straight-curve $-1 -36.728722520882926 -36.834254475053847 8.930665914317327 -1 0 0 I I #
point $-1 -70.898876168489267 -36.834254475053847 8.930665914317327 #
point $-1 -70.898876168489267 -36.834254475053847 -8.930665914317327 #
straight-curve $-1 -76.016013915042436 -44.415440542526504 0 0 0 -1 I I #
edge $-1 $292 70.898876168489267 $216 76.016013915042436 $291 $339 forward 7 unknown #
point $-1 -76.016013915042436 -44.415440542526504 -8.930665914317327 #
edge $-1 $219 -76.016013915042436 $293 -70.898876168489267 $290 $340 forward 7 unknown #
point $-1 -76.016013915042436 -44.415440542526504 8.930665914317327 #
plane-surface $-1 0 44.415440542526504 0 0 -1 0 0 0 -1 forward_v I I I I #
coedge $-1 $226 $230 $235 $315 forward $136 $-1 #
edge $-1 $341 -24.103016788131416 $240 -16.521830720658759 $226 $342 forward 7 unknown #
coedge $-1 $228 $227 $313 $343 reversed $78 $-1 #
edge $-1 $243 16.521830720658759 $344 24.103016788131416 $242 $345 forward 7 unknown #
straight-curve $-1 -70.898876168489267 36.834254475053847 0 0 0 -1 I I #
straight-curve $-1 -76.016013915042436 20.312423754395088 -8.930665914317327 0 1 0 I I #
coedge $-1 $232 $242 $234 $314 forward $224 $-1 #
straight-curve $-1 -76.016013915042436 20.312423754395088 8.930665914317327 0 -1 0 I I #
coedge $-1 $235 $234 $307 $343 forward $236 $-1 #
edge $-1 $344 70.898876168489267 $238 76.016013915042436 $234 $346 forward 7 unknown #
edge $-1 $237 -76.016013915042436 $341 -70.898876168489267 $235 $347 forward 7 unknown #
point $-1 -76.016013915042436 44.415440542526504 -8.930665914317327 #
point $-1 -76.016013915042436 44.415440542526504 8.930665914317327 #
point $-1 -70.898876168489267 36.834254475053847 -8.930665914317327 #
point $-1 -70.898876168489267 36.834254475053847 8.930665914317327 #
edge $-1 $321 37.047780246639618 $324 44.307318551261488 $248 $348 forward 7 unknown #
vertex $-1 $262 $349 #
straight-curve $-1 -100.53467903558968 -13.825499874876506 8.9306659143173235 -1 0 0 I I #
edge $-1 $324 2.3159154664121004 $259 20.703253350516711 $258 $350 forward 7 unknown #
vertex $-1 $323 $351 #
straight-curve $-1 -76.801660206915486 -13.825499874876506 1.6711276096954748 0.5877852410284794 0 0.80901700255871778 I I #
point $-1 -71.527297049352626 -13.825499874876506 8.930665914317327 #
point $-1 -76.8016602069155 -32.212837758981117 1.6711276096954553 #
straight-curve $-1 -76.8016602069155 0 8.930665914317327 0 -1 0 I I #
vertex $-1 $265 $352 #
point $-1 -70.455285704635941 -23.019168816928811 3.8420784024085468 #
straight-curve $-1 -76.8016602069155 44.415440542526504 0 0 0 -1 I I #
point $-1 -76.8016602069155 -44.415440542526504 -8.930665914317327 #
straight-curve $-1 -76.8016602069155 0 -8.930665914317327 0 1 0 I I #
point $-1 -76.8016602069155 44.415440542526504 -8.930665914317327 #
straight-curve $-1 -70.898876168489267 -20.312423754395088 8.930665914317327 0 1 0 I I #
straight-curve $-1 -70.898876168489267 -20.312423754395088 -8.930665914317327 0 -1 0 I I #
point $-1 -70.898876168489267 -44.415440542526504 -8.930665914317327 #
point $-1 -70.898876168489267 -44.415440542526504 8.930665914317327 #
straight-curve $-1 0 -44.415440542526504 -8.930665914317327 -1 0 0 I I #
straight-curve $-1 0 -44.415440542526504 8.930665914317327 1 0 0 I I #
vertex $-1 $343 $353 #
straight-curve $-1 -70.898876168489267 20.312423754395088 -8.930665914317327 0 -1 0 I I #
edge $-1 $344 -8.930665914317327 $341 8.930665914317327 $313 $354 forward 7 unknown #
vertex $-1 $314 $355 #
straight-curve $-1 -70.898876168489267 20.312423754395088 8.930665914317327 0 1 0 I I #
straight-curve $-1 0 44.415440542526504 8.930665914317327 -1 0 0 I I #
straight-curve $-1 0 44.415440542526504 -8.930665914317327 1 0 0 I I #
straight-curve $-1 -76.8016602069155 -13.825499874876506 45.978446160956942 0 0 -1 I I #
point $-1 -76.8016602069155 -13.825499874876506 8.930665914317327 #
straight-curve $-1 -76.8016602069155 -11.509584408464406 1.6711276096954633 0 -1 0 I I #
point $-1 -76.8016602069155 -13.825499874876506 1.6711276096954553 #
point $-1 -70.234053943105707 -23.019168816928811 2.4452761588213496 #
point $-1 -70.898876168489267 44.415440542526504 -8.930665914317327 #
straight-curve $-1 -70.898876168489267 44.415440542526504 0 0 0 -1 I I #
point $-1 -70.898876168489267 44.415440542526504 8.930665914317327 #
End-of-ACIS-data 