500 0 7 0           
7 Unknown 11 ACIS 5.0 NT 24 Fri Mar 26 15:45:39 1999 
-1 9.9999999999999995e-007 1e-010 
body $-1 $7 $-1 $8 #
body $-1 $9 $-1 $10 #
body $-1 $11 $-1 $12 #
body $-1 $13 $-1 $14 #
body $-1 $15 $-1 $16 #
body $-1 $17 $-1 $18 #
body $-1 $19 $-1 $20 #
lump $-1 $-1 $21 $0 #
transform $-1 1 0 0 0 1 0 0 0 1 79.764397106845308 46.875915185643073 19.663793359209564 1 rotate no_reflect no_shear #
lump $-1 $-1 $22 $1 #
transform $-1 1 0 0 0 1 0 0 0 1 79.764397106845308 46.875915185643073 19.663793359209564 1 rotate no_reflect no_shear #
lump $-1 $-1 $23 $2 #
transform $-1 1 0 0 0 1 0 0 0 1 79.764397106845308 46.875915185643073 19.663793359209564 1 rotate no_reflect no_shear #
lump $-1 $-1 $24 $3 #
transform $-1 1 0 0 0 1 0 0 0 1 79.764397106845308 46.875915185643073 19.663793359209564 1 rotate no_reflect no_shear #
lump $-1 $-1 $25 $4 #
transform $-1 1 0 0 0 1 0 0 0 1 79.764397106845308 46.875915185643073 19.663793359209564 1 rotate no_reflect no_shear #
lump $-1 $-1 $26 $5 #
transform $-1 1 0 0 0 1 0 0 0 1 79.764397106845308 46.875915185643073 19.663793359209564 1 rotate no_reflect no_shear #
lump $-1 $-1 $27 $6 #
transform $-1 1 0 0 0 1 0 0 0 1 79.764397106845308 46.875915185643073 19.663793359209564 1 rotate no_reflect no_shear #
shell $-1 $-1 $-1 $28 $-1 $7 #
shell $-1 $-1 $-1 $29 $-1 $9 #
shell $-1 $-1 $-1 $30 $-1 $11 #
shell $-1 $-1 $-1 $31 $-1 $13 #
shell $-1 $-1 $-1 $32 $-1 $15 #
shell $-1 $-1 $-1 $33 $-1 $17 #
shell $-1 $-1 $-1 $34 $-1 $19 #
face $-1 $35 $36 $21 $-1 $37 forward single #
face $-1 $38 $39 $22 $-1 $40 forward single #
face $-1 $41 $42 $23 $-1 $43 forward single #
face $-1 $44 $45 $24 $-1 $46 reversed single #
face $-1 $47 $48 $25 $-1 $49 forward single #
face $-1 $50 $51 $26 $-1 $52 reversed single #
face $-1 $53 $54 $27 $-1 $55 forward single #
face $-1 $56 $57 $21 $-1 $58 reversed single #
loop $-1 $-1 $59 $28 #
plane-surface $-1 0 0 19.663793359209564 0 0 1 1 0 0 forward_v I I I I #
face $-1 $60 $61 $22 $-1 $62 reversed single #
loop $-1 $-1 $63 $29 #
plane-surface $-1 0 -46.875915185643073 0 0 1 0 0 0 1 forward_v I I I I #
face $-1 $64 $65 $23 $-1 $66 reversed single #
loop $-1 $-1 $67 $30 #
plane-surface $-1 0 46.875915185643073 0 0 -1 0 0 0 -1 forward_v I I I I #
face $-1 $68 $69 $24 $-1 $70 reversed single #
loop $-1 $-1 $71 $31 #
plane-surface $-1 -171.26635556658169 -2.8006274692545361 140.51173984215393 0 1 0 -0.57357644374324357 0 0.81915203911291934 forward_v I I I I #
face $-1 $72 $73 $25 $-1 $74 forward single #
loop $-1 $75 $76 $32 #
cone-surface $-1 -70.676905875289748 3.0692586456032984 11.795380840875286 0.57357644374324357 0 -0.81915203911291934 1.6383040782258387 0 1.1471528874864871 1 I I 0 1 2 forward I I I I #
face $-1 $77 $78 $26 $-1 $79 reversed single #
loop $-1 $-1 $80 $33 #
plane-surface $-1 40.588018489211763 8.9391447604611329 232.01369830189032 0 -1 0 -0.57357644374324357 0 -0.81915203911291934 forward_v I I I I #
face $-1 $81 $82 $27 $-1 $83 forward single #
loop $-1 $84 $85 $34 #
cone-surface $-1 70.676905875289776 3.0692586456032984 11.795380840875278 -0.57357644374324357 0 -0.81915203911291934 1.6383040782258387 0 -1.1471528874864871 1 I I 0 1 2 forward I I I I #
face $-1 $86 $87 $21 $-1 $88 reversed single #
loop $-1 $-1 $89 $35 #
plane-surface $-1 0 0 -19.663793359209564 0 0 1 1 0 0 forward_v I I I I #
coedge $-1 $90 $91 $92 $93 forward $36 $-1 #
face $-1 $94 $95 $22 $-1 $96 forward single #
loop $-1 $-1 $97 $38 #
plane-surface $-1 -79.764397106845308 0 0 1 0 0 0 0 -1 forward_v I I I I #
coedge $-1 $98 $99 $100 $101 forward $39 $-1 #
face $-1 $102 $103 $23 $-1 $104 forward single #
loop $-1 $-1 $105 $41 #
plane-surface $-1 79.764397106845308 0 0 -1 0 0 0 0 1 forward_v I I I I #
coedge $-1 $106 $107 $108 $109 forward $42 $-1 #
face $-1 $110 $111 $24 $-1 $112 reversed single #
loop $-1 $-1 $113 $44 #
plane-surface $-1 -79.764397106845294 3.0692586456032984 9.8334027647839832 -0.57357644374324357 0 0.81915203911291934 0.81915203911291934 0 0.57357644374324357 forward_v I I I I #
coedge $-1 $114 $115 $116 $117 reversed $45 $-1 #
face $-1 $-1 $118 $25 $-1 $119 forward single #
loop $-1 $120 $121 $47 #
cone-surface $-1 -68.035464431629606 3.0692586456032984 8.0230115806408904 0.57357644374324357 0 -0.81915203911291934 0.81915203911291934 0 0.57357644374324357 1 I I -0.70710678118654746 0.70710678118654746 1 forward I I I I #
loop $-1 $-1 $122 $32 #
coedge $-1 $76 $76 $123 $124 reversed $48 $-1 #
face $-1 $125 $126 $26 $-1 $127 reversed single #
loop $-1 $-1 $128 $50 #
plane-surface $-1 -50.913939970524638 3.0692586456032984 101.33536122452037 0.57357644374324357 0 0.81915203911291934 0.81915203911291934 0 -0.57357644374324357 forward_v I I I I #
coedge $-1 $129 $130 $131 $132 reversed $51 $-1 #
face $-1 $-1 $133 $27 $-1 $134 forward single #
loop $-1 $135 $136 $53 #
cone-surface $-1 68.035464431629634 3.0692586456032984 8.0230115806408833 -0.57357644374324357 0 -0.81915203911291934 0.81915203911291934 0 -0.57357644374324357 1 I I -0.70710678118654746 0.70710678118654746 1 forward I I I I #
loop $-1 $-1 $137 $34 #
coedge $-1 $85 $85 $138 $139 reversed $54 $-1 #
face $-1 $140 $141 $21 $-1 $142 reversed single #
loop $-1 $-1 $143 $56 #
plane-surface $-1 0 -46.875915185643073 0 0 1 0 0 0 1 forward_v I I I I #
coedge $-1 $144 $145 $146 $147 forward $57 $-1 #
coedge $-1 $148 $59 $149 $150 forward $36 $-1 #
coedge $-1 $59 $148 $151 $152 forward $36 $-1 #
coedge $-1 $153 $154 $59 $93 reversed $155 $-1 #
edge $-1 $156 -46.875915185643073 $157 46.875915185643073 $92 $158 forward 7 unknown #
face $-1 $159 $160 $22 $-1 $161 reversed single #
loop $-1 $-1 $162 $60 #
plane-surface $-1 0 -56.466609788009563 7.7758495682977085 0 0 1 1 0 0 forward_v I I I I #
coedge $-1 $163 $164 $99 $165 forward $61 $-1 #
coedge $-1 $166 $63 $167 $168 reversed $39 $-1 #
coedge $-1 $63 $166 $97 $165 reversed $39 $-1 #
coedge $-1 $169 $162 $63 $101 reversed $95 $-1 #
edge $-1 $170 -79.764397106845308 $171 79.764397106845308 $100 $172 forward 7 unknown #
face $-1 $173 $174 $23 $-1 $175 reversed single #
loop $-1 $-1 $176 $64 #
plane-surface $-1 0 56.466609788009571 7.7758495682977085 0 0 1 1 0 0 forward_v I I I I #
coedge $-1 $177 $178 $107 $179 forward $65 $-1 #
coedge $-1 $180 $67 $181 $182 reversed $42 $-1 #
coedge $-1 $67 $180 $105 $179 reversed $42 $-1 #
coedge $-1 $176 $183 $67 $109 reversed $103 $-1 #
edge $-1 $184 -79.764397106845308 $185 79.764397106845308 $108 $186 forward 7 unknown #
face $-1 $187 $188 $24 $-1 $189 reversed single #
loop $-1 $-1 $190 $68 #
plane-surface $-1 -171.26635556658169 8.9391447604611329 140.51173984215393 0 -1 0 0.57357644374324357 0 -0.81915203911291934 forward_v I I I I #
coedge $-1 $191 $192 $193 $194 reversed $69 $-1 #
coedge $-1 $115 $71 $195 $196 reversed $45 $-1 #
coedge $-1 $71 $114 $191 $197 reversed $45 $-1 #
coedge $-1 $193 $198 $71 $117 forward $199 $-1 #
edge $-1 $200 5.8687806764455388 $201 19.908033139722875 $116 $202 forward 7 unknown #
loop $-1 $-1 $123 $72 #
plane-surface $-1 -79.764397106845294 3.0692586456032984 9.8334027647839832 -0.57357644374324357 0 0.81915203911291934 0.81915203911291934 0 0.57357644374324357 forward_v I I I I #
loop $-1 $-1 $203 $47 #
coedge $-1 $121 $121 $122 $204 reversed $73 $-1 #
coedge $-1 $122 $122 $121 $204 forward $75 $-1 #
coedge $-1 $123 $123 $76 $124 forward $118 $-1 #
edge $-1 $205 0 $205 6.2831853071796004 $123 $206 forward 7 unknown #
face $-1 $207 $208 $26 $-1 $209 forward single #
loop $-1 $-1 $210 $77 #
plane-surface $-1 40.588018489211763 -2.8006274692545361 232.01369830189032 0 1 0 0.57357644374324357 0 0.81915203911291934 forward_v I I I I #
coedge $-1 $211 $212 $213 $214 reversed $78 $-1 #
coedge $-1 $130 $80 $215 $216 reversed $51 $-1 #
coedge $-1 $80 $129 $211 $217 reversed $51 $-1 #
coedge $-1 $213 $218 $80 $132 forward $208 $-1 #
edge $-1 $219 -59.470387862239427 $220 -45.431135398962105 $131 $221 forward 7 unknown #
loop $-1 $-1 $138 $81 #
plane-surface $-1 -50.913939970524638 3.0692586456032984 101.33536122452037 0.57357644374324357 0 0.81915203911291934 0.81915203911291934 0 -0.57357644374324357 forward_v I I I I #
loop $-1 $-1 $222 $53 #
coedge $-1 $136 $136 $137 $223 reversed $82 $-1 #
coedge $-1 $137 $137 $136 $223 forward $84 $-1 #
coedge $-1 $138 $138 $85 $139 forward $133 $-1 #
edge $-1 $224 0 $224 6.2831853071796004 $138 $225 forward 7 unknown #
face $-1 $226 $227 $21 $-1 $228 reversed single #
loop $-1 $-1 $229 $86 #
plane-surface $-1 -79.764397106845308 0 0 1 0 0 0 0 -1 forward_v I I I I #
coedge $-1 $230 $151 $231 $232 forward $87 $-1 #
coedge $-1 $233 $89 $230 $234 forward $57 $-1 #
coedge $-1 $89 $233 $235 $236 forward $57 $-1 #
coedge $-1 $154 $153 $89 $147 reversed $155 $-1 #
edge $-1 $237 -46.875915185643073 $238 46.875915185643073 $146 $239 forward 7 unknown #
coedge $-1 $91 $90 $240 $241 forward $36 $-1 #
coedge $-1 $242 $243 $90 $150 reversed $227 $-1 #
edge $-1 $157 -79.764397106845308 $244 79.764397106845308 $149 $245 forward 7 unknown #
coedge $-1 $143 $246 $91 $152 reversed $87 $-1 #
edge $-1 $247 -79.764397106845308 $156 79.764397106845308 $151 $248 forward 7 unknown #
coedge $-1 $146 $92 $246 $249 forward $155 $-1 #
coedge $-1 $92 $146 $242 $250 reversed $155 $-1 #
loop $-1 $-1 $153 $226 #
vertex $-1 $93 $251 #
vertex $-1 $93 $252 #
straight-curve $-1 79.764397106845308 0 19.663793359209564 0 1 0 I I #
face $-1 $253 $254 $22 $-1 $255 reversed single #
loop $-1 $-1 $256 $94 #
plane-surface $-1 0 -56.466609788009563 2.3029694548506612 0 0 1 1 0 0 forward_v I I I I #
coedge $-1 $100 $257 $258 $259 forward $95 $-1 #
coedge $-1 $260 $97 $261 $262 reversed $61 $-1 #
coedge $-1 $97 $260 $169 $263 reversed $61 $-1 #
edge $-1 $170 -7.7758495682977085 $264 -2.3029694548506612 $97 $265 forward 7 unknown #
coedge $-1 $99 $98 $266 $267 forward $39 $-1 #
coedge $-1 $258 $268 $98 $168 forward $269 $-1 #
edge $-1 $270 2.3029694548506612 $171 7.7758495682977085 $167 $271 forward 7 unknown #
coedge $-1 $257 $100 $164 $263 forward $95 $-1 #
vertex $-1 $165 $272 #
vertex $-1 $259 $273 #
straight-curve $-1 0 -46.875915185643073 7.7758495682977085 1 0 0 I I #
face $-1 $274 $275 $23 $-1 $276 reversed single #
loop $-1 $-1 $277 $102 #
plane-surface $-1 0 56.466609788009571 2.3029694548506612 0 0 1 1 0 0 forward_v I I I I #
coedge $-1 $278 $108 $178 $279 forward $103 $-1 #
coedge $-1 $280 $105 $277 $281 reversed $65 $-1 #
coedge $-1 $105 $280 $176 $279 reversed $65 $-1 #
edge $-1 $184 -7.7758495682977085 $282 -2.3029694548506612 $105 $283 forward 7 unknown #
coedge $-1 $107 $106 $284 $285 forward $42 $-1 #
coedge $-1 $286 $287 $106 $182 forward $288 $-1 #
edge $-1 $289 2.3029694548506612 $185 7.7758495682977085 $181 $290 forward 7 unknown #
coedge $-1 $108 $278 $286 $291 forward $103 $-1 #
vertex $-1 $179 $292 #
vertex $-1 $291 $293 #
straight-curve $-1 0 46.875915185643073 7.7758495682977085 -1 0 0 I I #
face $-1 $-1 $199 $24 $-1 $294 forward single #
loop $-1 $-1 $295 $110 #
plane-surface $-1 -79.764397106845308 0 0 1 0 0 0 0 -1 forward_v I I I I #
coedge $-1 $296 $297 $298 $299 reversed $111 $-1 #
coedge $-1 $300 $113 $115 $197 forward $69 $-1 #
coedge $-1 $113 $300 $296 $301 forward $69 $-1 #
coedge $-1 $298 $116 $113 $194 forward $199 $-1 #
edge $-1 $201 -4.3352567920561853 $302 7.4045154376594837 $193 $303 forward 7 unknown #
coedge $-1 $304 $305 $114 $196 forward $188 $-1 #
edge $-1 $306 -60.422467156292996 $200 -50.592076561867401 $195 $307 forward 7 unknown #
edge $-1 $201 -17.138762760672346 $306 1.7754109250068268e-014 $115 $308 forward 7 unknown #
coedge $-1 $116 $298 $304 $309 forward $199 $-1 #
loop $-1 $-1 $298 $187 #
vertex $-1 $196 $310 #
vertex $-1 $117 $311 #
straight-curve $-1 -85.633177783290847 -2.8006274692545361 19.663793359209564 1 0 0 I I #
coedge $-1 $203 $203 $-1 $312 reversed $120 $-1 #
edge $-1 $313 0 $313 6.2831853071796004 $121 $314 forward 7 unknown #
vertex $-1 $124 $315 #
ellipse-curve $-1 -72.74477087520664 3.0692586456032984 14.748598061996766 -0.57357644374324357 0 0.81915203911291934 1.6383040782258387 0 1.1471528874864871 1 I I #
face $-1 $-1 $316 $26 $-1 $317 reversed single #
loop $-1 $-1 $131 $125 #
plane-surface $-1 0 0 19.663793359209564 0 0 1 1 0 0 forward_v I I I I #
coedge $-1 $318 $319 $320 $321 reversed $126 $-1 #
coedge $-1 $322 $128 $130 $217 forward $78 $-1 #
coedge $-1 $128 $322 $318 $323 forward $78 $-1 #
coedge $-1 $320 $131 $128 $214 forward $208 $-1 #
edge $-1 $220 -7.4045154376594837 $324 4.3352567920561853 $213 $325 forward 7 unknown #
coedge $-1 $326 $327 $129 $216 forward $316 $-1 #
edge $-1 $328 -106.17344638616119 $219 -96.343055791735594 $215 $329 forward 7 unknown #
edge $-1 $220 142.39003145301825 $328 159.52879421369062 $130 $330 forward 7 unknown #
coedge $-1 $131 $320 $326 $331 forward $208 $-1 #
vertex $-1 $216 $332 #
vertex $-1 $132 $333 #
straight-curve $-1 20.294009244605881 8.9391447604611329 19.663793359209564 -1 0 0 I I #
coedge $-1 $222 $222 $-1 $334 reversed $135 $-1 #
edge $-1 $335 0 $335 6.2831853071796004 $136 $336 forward 7 unknown #
vertex $-1 $139 $337 #
ellipse-curve $-1 72.744770875206669 3.0692586456032984 14.748598061996752 0.57357644374324357 0 0.81915203911291934 1.6383040782258387 0 -1.1471528874864871 1 I I #
face $-1 $-1 $155 $21 $-1 $338 reversed single #
loop $-1 $-1 $243 $140 #
plane-surface $-1 0 46.875915185643073 0 0 -1 0 0 0 -1 forward_v I I I I #
coedge $-1 $339 $240 $243 $340 forward $141 $-1 #
coedge $-1 $246 $143 $144 $234 reversed $87 $-1 #
coedge $-1 $240 $339 $143 $232 reversed $141 $-1 #
edge $-1 $247 -19.663793359209564 $341 19.663793359209564 $231 $342 forward 7 unknown #
coedge $-1 $145 $144 $339 $343 forward $57 $-1 #
edge $-1 $238 -79.764397106845308 $341 79.764397106845308 $230 $344 forward 7 unknown #
coedge $-1 $243 $242 $145 $236 reversed $227 $-1 #
edge $-1 $345 -79.764397106845308 $237 79.764397106845308 $235 $346 forward 7 unknown #
vertex $-1 $147 $347 #
vertex $-1 $249 $348 #
straight-curve $-1 79.764397106845308 0 -19.663793359209564 0 -1 0 I I #
coedge $-1 $229 $231 $148 $241 reversed $141 $-1 #
edge $-1 $244 -46.875915185643073 $247 46.875915185643073 $240 $349 forward 7 unknown #
coedge $-1 $235 $149 $154 $250 forward $227 $-1 #
coedge $-1 $149 $235 $229 $340 reversed $227 $-1 #
vertex $-1 $150 $350 #
straight-curve $-1 0 46.875915185643073 19.663793359209564 -1 0 0 I I #
coedge $-1 $151 $230 $153 $249 reversed $87 $-1 #
vertex $-1 $241 $351 #
straight-curve $-1 0 -46.875915185643073 19.663793359209564 1 0 0 I I #
edge $-1 $156 -19.663793359209564 $238 19.663793359209564 $153 $352 forward 7 unknown #
edge $-1 $157 -19.663793359209564 $237 19.663793359209564 $154 $353 forward 7 unknown #
point $-1 79.764397106845308 -46.875915185643073 19.663793359209564 #
point $-1 79.764397106845308 46.875915185643073 19.663793359209564 #
face $-1 $-1 $269 $22 $-1 $354 reversed single #
loop $-1 $-1 $355 $159 #
plane-surface $-1 0 -66.057304390376061 5.0394095115741848 0 1 0 0 0 1 forward_v I I I I #
coedge $-1 $356 $266 $268 $357 forward $160 $-1 #
coedge $-1 $162 $169 $358 $359 forward $95 $-1 #
coedge $-1 $360 $167 $162 $259 reversed $269 $-1 #
edge $-1 $361 -9.5906946023664972 $171 9.5906946023664901 $258 $362 forward 7 unknown #
coedge $-1 $164 $163 $355 $363 reversed $61 $-1 #
coedge $-1 $266 $356 $163 $262 forward $160 $-1 #
edge $-1 $364 -9.5906946023664972 $264 9.5906946023664901 $163 $365 forward 7 unknown #
edge $-1 $170 -9.5906946023664901 $366 9.5906946023664972 $164 $367 forward 7 unknown #
vertex $-1 $165 $368 #
straight-curve $-1 -79.764397106845308 -46.875915185643073 0 0 0 -1 I I #
coedge $-1 $256 $261 $166 $267 reversed $160 $-1 #
edge $-1 $270 -79.764397106845308 $264 79.764397106845308 $266 $369 forward 7 unknown #
coedge $-1 $167 $360 $256 $357 reversed $269 $-1 #
loop $-1 $-1 $167 $253 #
vertex $-1 $168 $370 #
straight-curve $-1 79.764397106845308 -46.875915185643073 0 0 0 1 I I #
point $-1 -79.764397106845308 -46.875915185643073 7.7758495682977085 #
point $-1 79.764397106845308 -46.875915185643073 7.7758495682977085 #
face $-1 $-1 $288 $23 $-1 $371 reversed single #
loop $-1 $-1 $372 $173 #
plane-surface $-1 0 66.057304390376061 5.0394095115741848 0 -1 0 0 0 -1 forward_v I I I I #
coedge $-1 $284 $373 $177 $281 forward $174 $-1 #
coedge $-1 $183 $176 $374 $375 forward $103 $-1 #
edge $-1 $184 -9.5906946023664901 $376 9.5906946023664901 $178 $377 forward 7 unknown #
coedge $-1 $178 $177 $372 $378 reversed $65 $-1 #
edge $-1 $379 -9.5906946023664901 $282 9.5906946023664901 $177 $380 forward 7 unknown #
vertex $-1 $179 $381 #
straight-curve $-1 79.764397106845308 46.875915185643073 0 0 0 -1 I I #
coedge $-1 $382 $277 $180 $285 reversed $174 $-1 #
edge $-1 $289 -79.764397106845308 $282 79.764397106845308 $284 $383 forward 7 unknown #
coedge $-1 $384 $181 $183 $291 reversed $288 $-1 #
coedge $-1 $181 $384 $382 $385 reversed $288 $-1 #
loop $-1 $-1 $181 $274 #
vertex $-1 $182 $386 #
straight-curve $-1 -79.764397106845308 46.875915185643073 0 0 0 1 I I #
edge $-1 $387 -9.5906946023664901 $185 9.5906946023664901 $286 $388 forward 7 unknown #
point $-1 79.764397106845308 46.87591518564308 7.7758495682977085 #
point $-1 -79.764397106845308 46.87591518564308 7.7758495682977085 #
plane-surface $-1 0 0 19.663793359209564 0 0 1 1 0 0 forward_v I I I I #
coedge $-1 $305 $304 $297 $389 forward $188 $-1 #
coedge $-1 $297 $190 $192 $301 reversed $111 $-1 #
coedge $-1 $190 $296 $295 $389 reversed $111 $-1 #
coedge $-1 $198 $193 $190 $299 forward $199 $-1 #
edge $-1 $302 -19.908033139722875 $390 -5.8687806764455388 $298 $391 forward 7 unknown #
coedge $-1 $192 $191 $305 $392 reversed $69 $-1 #
edge $-1 $393 -1.7754109250068268e-014 $302 17.138762760672346 $296 $394 forward 7 unknown #
vertex $-1 $194 $395 #
straight-curve $-1 -65.725144643567972 1.5346293228016492 19.663793359209564 0 1 0 I I #
coedge $-1 $295 $195 $198 $309 reversed $188 $-1 #
coedge $-1 $195 $295 $300 $392 forward $188 $-1 #
vertex $-1 $196 $396 #
straight-curve $-1 -79.764397106845308 -2.8006274692545361 70.255869921076965 0 0 1 I I #
straight-curve $-1 -79.764397106845294 -2.8006274692545361 9.8334027647839832 -0.81915203911291934 0 -0.57357644374324357 I I #
edge $-1 $390 -8.9391447604611329 $200 2.8006274692545361 $304 $397 forward 7 unknown #
point $-1 -79.764397106845308 -2.8006274692545361 19.663793359209564 #
point $-1 -65.725144643567972 -2.8006274692545361 19.663793359209564 #
edge $-1 $398 1 $398 0 $203 $-1 forward 7 unknown #
vertex $-1 $204 $399 #
ellipse-curve $-1 -68.609040875372855 3.0692586456032984 8.8421636197538103 -0.57357644374324357 0 0.81915203911291934 1.6383040782258387 0 1.1471528874864871 1 I I #
point $-1 -71.106466796980797 3.0692586456032984 15.895750949483249 #
loop $-1 $-1 $215 $207 #
plane-surface $-1 79.764397106845308 0 0 -1 0 0 0 0 1 forward_v I I I I #
coedge $-1 $319 $210 $212 $323 reversed $126 $-1 #
coedge $-1 $210 $318 $400 $401 reversed $126 $-1 #
coedge $-1 $218 $213 $210 $321 forward $208 $-1 #
edge $-1 $324 45.431135398962105 $402 59.470387862239427 $320 $403 forward 7 unknown #
coedge $-1 $212 $211 $327 $404 reversed $78 $-1 #
edge $-1 $405 -159.52879421369062 $324 -142.39003145301825 $318 $406 forward 7 unknown #
vertex $-1 $214 $407 #
straight-curve $-1 65.725144643567972 1.5346293228016492 19.663793359209564 0 -1 0 I I #
coedge $-1 $400 $215 $218 $331 reversed $316 $-1 #
coedge $-1 $215 $400 $322 $404 forward $316 $-1 #
vertex $-1 $216 $408 #
straight-curve $-1 79.764397106845308 8.9391447604611329 116.00684915094516 0 0 1 I I #
straight-curve $-1 -50.913939970524638 8.9391447604611329 101.33536122452037 0.81915203911291934 0 -0.57357644374324357 I I #
edge $-1 $402 -2.8006274692545361 $219 8.9391447604611329 $326 $409 forward 7 unknown #
point $-1 79.764397106845308 8.9391447604611329 19.663793359209564 #
point $-1 65.725144643567987 8.9391447604611329 19.663793359209564 #
edge $-1 $410 1 $410 0 $222 $-1 forward 7 unknown #
vertex $-1 $223 $411 #
ellipse-curve $-1 68.609040875372884 3.0692586456032984 8.8421636197538032 0.57357644374324357 0 0.81915203911291934 1.6383040782258387 0 -1.1471528874864871 1 I I #
point $-1 74.383074953432498 3.0692586456032984 13.601445174510268 #
plane-surface $-1 79.764397106845308 0 0 -1 0 0 0 0 1 forward_v I I I I #
coedge $-1 $231 $229 $233 $343 reversed $141 $-1 #
edge $-1 $244 -19.663793359209564 $345 19.663793359209564 $243 $412 forward 7 unknown #
vertex $-1 $343 $413 #
straight-curve $-1 -79.764397106845308 -46.875915185643073 0 0 0 -1 I I #
edge $-1 $341 -46.875915185643073 $345 46.875915185643073 $339 $414 forward 7 unknown #
straight-curve $-1 0 -46.875915185643073 -19.663793359209564 -1 0 0 I I #
vertex $-1 $236 $415 #
straight-curve $-1 0 46.875915185643073 -19.663793359209564 1 0 0 I I #
point $-1 79.764397106845308 46.875915185643073 -19.663793359209564 #
point $-1 79.764397106845308 -46.875915185643073 -19.663793359209564 #
straight-curve $-1 -79.764397106845308 0 19.663793359209564 0 -1 0 I I #
point $-1 -79.764397106845308 46.875915185643073 19.663793359209564 #
point $-1 -79.764397106845308 -46.875915185643073 19.663793359209564 #
straight-curve $-1 79.764397106845308 -46.875915185643073 0 0 0 -1 I I #
straight-curve $-1 79.764397106845308 46.875915185643073 0 0 0 -1 I I #
plane-surface $-1 79.764397106845308 0 0 -1 0 0 0 0 1 forward_v I I I I #
coedge $-1 $416 $358 $260 $363 forward $254 $-1 #
coedge $-1 $261 $256 $416 $417 forward $160 $-1 #
edge $-1 $270 -9.5906946023664901 $418 9.5906946023664972 $268 $419 forward 7 unknown #
coedge $-1 $355 $420 $257 $359 reversed $254 $-1 #
edge $-1 $366 -79.764397106845308 $361 79.764397106845308 $358 $421 forward 7 unknown #
coedge $-1 $268 $258 $420 $422 forward $269 $-1 #
vertex $-1 $259 $423 #
straight-curve $-1 79.764397106845308 -56.466609788009563 7.7758495682977085 0 1 0 I I #
edge $-1 $366 -2.7364400567235236 $364 2.7364400567235236 $260 $424 forward 7 unknown #
vertex $-1 $262 $425 #
straight-curve $-1 -79.764397106845308 -56.466609788009563 2.3029694548506612 0 1 0 I I #
vertex $-1 $263 $426 #
straight-curve $-1 -79.764397106845308 -56.466609788009563 7.7758495682977085 0 -1 0 I I #
point $-1 -79.764397106845308 -46.875915185643073 2.3029694548506612 #
straight-curve $-1 0 -46.875915185643073 2.3029694548506612 -1 0 0 I I #
point $-1 79.764397106845308 -46.875915185643073 2.3029694548506612 #
plane-surface $-1 -79.764397106845308 0 0 1 0 0 0 0 -1 forward_v I I I I #
coedge $-1 $427 $374 $280 $378 forward $275 $-1 #
coedge $-1 $277 $382 $427 $428 forward $174 $-1 #
coedge $-1 $372 $429 $278 $375 reversed $275 $-1 #
edge $-1 $376 -79.764397106845308 $387 79.764397106845308 $374 $430 forward 7 unknown #
vertex $-1 $279 $431 #
straight-curve $-1 79.764397106845308 56.466609788009571 7.7758495682977085 0 1 0 I I #
edge $-1 $376 -2.7364400567235236 $379 2.7364400567235236 $280 $432 forward 7 unknown #
vertex $-1 $281 $433 #
straight-curve $-1 79.764397106845308 56.466609788009571 2.3029694548506612 0 -1 0 I I #
point $-1 79.764397106845308 46.87591518564308 2.3029694548506612 #
coedge $-1 $373 $284 $287 $385 forward $174 $-1 #
straight-curve $-1 0 46.875915185643073 2.3029694548506612 1 0 0 I I #
coedge $-1 $287 $286 $429 $434 forward $288 $-1 #
edge $-1 $289 -9.5906946023664901 $435 9.5906946023664901 $287 $436 forward 7 unknown #
point $-1 -79.764397106845308 46.87591518564308 2.3029694548506612 #
vertex $-1 $375 $437 #
straight-curve $-1 -79.764397106845308 56.466609788009571 7.7758495682977085 0 -1 0 I I #
edge $-1 $390 50.592076561867401 $393 60.422467156292996 $295 $438 forward 7 unknown #
vertex $-1 $309 $439 #
straight-curve $-1 -85.633177783290847 8.9391447604611329 19.663793359209564 -1 0 0 I I #
edge $-1 $393 -7.4045154376594837 $306 4.3352567920561853 $305 $440 forward 7 unknown #
vertex $-1 $392 $441 #
straight-curve $-1 -79.764397106845294 8.9391447604611329 9.8334027647839832 0.81915203911291934 0 0.57357644374324357 I I #
point $-1 -65.725144643567972 8.9391447604611329 19.663793359209564 #
point $-1 -79.764397106845308 -2.8006274692545361 9.8334027647839726 #
straight-curve $-1 -79.764397106845308 0 19.663793359209564 0 -1 0 I I #
vertex $-1 $312 $442 #
point $-1 -66.970736797147012 3.0692586456032984 9.9893165072402965 #
coedge $-1 $327 $326 $319 $401 forward $316 $-1 #
edge $-1 $402 96.343055791735594 $405 106.17344638616119 $400 $443 forward 7 unknown #
vertex $-1 $331 $444 #
straight-curve $-1 20.294009244605881 -2.8006274692545361 19.663793359209564 1 0 0 I I #
edge $-1 $405 -4.3352567920561853 $328 7.4045154376594837 $327 $445 forward 7 unknown #
vertex $-1 $404 $446 #
straight-curve $-1 -50.913939970524638 -2.8006274692545361 101.33536122452037 -0.81915203911291934 0 0.57357644374324357 I I #
point $-1 65.725144643567987 -2.8006274692545361 19.663793359209564 #
point $-1 79.764397106845308 8.9391447604611329 9.833402764783969 #
straight-curve $-1 79.764397106845308 0 19.663793359209564 0 1 0 I I #
vertex $-1 $334 $447 #
point $-1 70.247344953598713 3.0692586456032984 7.6950107322673151 #
straight-curve $-1 -79.764397106845308 46.875915185643073 0 0 0 -1 I I #
point $-1 -79.764397106845308 -46.875915185643073 -19.663793359209564 #
straight-curve $-1 -79.764397106845308 0 -19.663793359209564 0 1 0 I I #
point $-1 -79.764397106845308 46.875915185643073 -19.663793359209564 #
coedge $-1 $420 $355 $356 $417 reversed $254 $-1 #
edge $-1 $418 -79.764397106845308 $364 79.764397106845308 $416 $448 forward 7 unknown #
vertex $-1 $422 $449 #
straight-curve $-1 79.764397106845308 -56.466609788009563 2.3029694548506612 0 -1 0 I I #
coedge $-1 $358 $416 $360 $422 reversed $254 $-1 #
straight-curve $-1 0 -66.057304390376061 7.7758495682977085 1 0 0 I I #
edge $-1 $361 -2.7364400567235236 $418 2.7364400567235236 $360 $450 forward 7 unknown #
point $-1 79.764397106845308 -66.057304390376061 7.7758495682977085 #
straight-curve $-1 -79.764397106845308 -66.057304390376061 5.0394095115741848 0 0 -1 I I #
point $-1 -79.764397106845308 -66.057304390376061 2.3029694548506612 #
point $-1 -79.764397106845308 -66.057304390376061 7.7758495682977085 #
coedge $-1 $429 $372 $373 $428 reversed $275 $-1 #
edge $-1 $435 -79.764397106845308 $379 79.764397106845308 $427 $451 forward 7 unknown #
coedge $-1 $374 $427 $384 $434 reversed $275 $-1 #
straight-curve $-1 0 66.057304390376061 7.7758495682977085 -1 0 0 I I #
point $-1 79.764397106845308 66.057304390376061 7.7758495682977085 #
straight-curve $-1 79.764397106845308 66.057304390376061 5.0394095115741848 0 0 -1 I I #
point $-1 79.764397106845308 66.057304390376061 2.3029694548506612 #
edge $-1 $387 -2.7364400567235236 $435 2.7364400567235236 $429 $452 forward 7 unknown #
vertex $-1 $428 $453 #
straight-curve $-1 -79.764397106845308 56.466609788009571 2.3029694548506612 0 1 0 I I #
point $-1 -79.764397106845308 66.057304390376061 7.7758495682977085 #
straight-curve $-1 -79.764397106845308 8.9391447604611329 70.255869921076965 0 0 -1 I I #
point $-1 -79.764397106845308 8.9391447604611329 19.663793359209564 #
straight-curve $-1 -79.764397106845308 1.5346293228016492 9.8334027647839761 0 -1 0 I I #
point $-1 -79.764397106845308 8.9391447604611329 9.8334027647839726 #
point $-1 -67.461887987886357 3.0692586456032984 7.2038595415279714 #
straight-curve $-1 79.764397106845308 -2.8006274692545361 116.00684915094516 0 0 -1 I I #
point $-1 79.764397106845308 -2.8006274692545361 19.663793359209564 #
straight-curve $-1 79.764397106845308 1.5346293228016492 9.8334027647839832 0 1 0 I I #
point $-1 79.764397106845308 -2.8006274692545361 9.833402764783969 #
point $-1 67.461887987886385 3.0692586456032984 7.2038595415279643 #
straight-curve $-1 0 -66.057304390376061 2.3029694548506612 -1 0 0 I I #
point $-1 79.764397106845308 -66.057304390376061 2.3029694548506612 #
straight-curve $-1 79.764397106845308 -66.057304390376061 5.0394095115741848 0 0 -1 I I #
straight-curve $-1 0 66.057304390376061 2.3029694548506612 1 0 0 I I #
straight-curve $-1 -79.764397106845308 66.057304390376061 5.0394095115741848 0 0 -1 I I #
point $-1 -79.764397106845308 66.057304390376061 2.3029694548506612 #
End-of-ACIS-data 