500 0 5 0           
7 Unknown 11 ACIS 5.0 NT 24 Fri Mar 26 17:26:19 1999 
-1 9.9999999999999995e-007 1e-010 
body $-1 $5 $-1 $6 #
body $-1 $7 $-1 $8 #
body $-1 $9 $-1 $10 #
body $-1 $11 $-1 $12 #
body $-1 $13 $-1 $14 #
lump $-1 $-1 $15 $0 #
transform $-1 1 0 0 0 1 0 0 0 1 72.084719382305366 47.957336608371342 20.634226949048202 1 rotate no_reflect no_shear #
lump $-1 $-1 $16 $1 #
transform $-1 1 0 0 0 1 0 0 0 1 72.084719382305366 47.957336608371342 20.634226949048202 1 rotate no_reflect no_shear #
lump $-1 $-1 $17 $2 #
transform $-1 1 0 0 0 1 0 0 0 1 72.084719382305366 47.957336608371342 20.634226949048202 1 rotate no_reflect no_shear #
lump $-1 $-1 $18 $3 #
transform $-1 1 0 0 0 1 0 0 0 1 72.084719382305366 47.957336608371342 20.634226949048202 1 rotate no_reflect no_shear #
lump $-1 $-1 $19 $4 #
transform $-1 1 0 0 0 1 0 0 0 1 72.084719382305366 47.957336608371342 20.634226949048202 1 rotate no_reflect no_shear #
shell $-1 $-1 $-1 $20 $-1 $5 #
shell $-1 $-1 $-1 $21 $-1 $7 #
shell $-1 $-1 $-1 $22 $-1 $9 #
shell $-1 $-1 $-1 $23 $-1 $11 #
shell $-1 $-1 $-1 $24 $-1 $13 #
face $-1 $25 $26 $15 $-1 $27 forward single #
face $-1 $28 $29 $16 $-1 $30 forward single #
face $-1 $31 $32 $17 $-1 $33 forward single #
face $-1 $34 $35 $18 $-1 $36 reversed single #
face $-1 $37 $38 $19 $-1 $39 forward single #
face $-1 $40 $41 $15 $-1 $42 reversed single #
loop $-1 $-1 $43 $20 #
plane-surface $-1 0 0 20.634226949048202 0 0 1 1 0 0 forward_v I I I I #
face $-1 $44 $45 $16 $-1 $46 reversed single #
loop $-1 $-1 $47 $21 #
plane-surface $-1 0 -47.957336608371342 0 0 1 0 0 0 1 forward_v I I I I #
face $-1 $48 $49 $17 $-1 $50 reversed single #
loop $-1 $-1 $51 $22 #
plane-surface $-1 0 47.957336608371342 0 0 -1 0 0 0 -1 forward_v I I I I #
face $-1 $52 $53 $18 $-1 $54 reversed single #
loop $-1 $-1 $55 $23 #
plane-surface $-1 57.862326927406485 5.4322741567546373 218.28035341359285 0 -1 0 -0.6560590369687036 0 -0.75470957328743171 forward_v I I I I #
face $-1 $56 $57 $19 $-1 $58 forward single #
loop $-1 $59 $60 $24 #
cone-surface $-1 67.044742855245104 0.17145767122866573 15.764985167300015 -0.6560590369687036 0 -0.75470957328743171 1.1320643599311475 0 -0.9840885554530554 1 I I 0 1 1.5 forward I I I I #
face $-1 $61 $62 $15 $-1 $63 reversed single #
loop $-1 $-1 $64 $25 #
plane-surface $-1 0 0 -20.634226949048202 0 0 1 1 0 0 forward_v I I I I #
coedge $-1 $65 $66 $67 $68 forward $26 $-1 #
face $-1 $69 $70 $16 $-1 $71 reversed single #
loop $-1 $-1 $72 $28 #
plane-surface $-1 0 0 -20.634226949048202 0 0 1 1 0 0 forward_v I I I I #
coedge $-1 $73 $74 $75 $76 forward $29 $-1 #
face $-1 $77 $78 $17 $-1 $79 forward single #
loop $-1 $-1 $80 $31 #
plane-surface $-1 -72.084719382305366 0 0 1 0 0 0 0 -1 forward_v I I I I #
coedge $-1 $81 $82 $83 $84 forward $32 $-1 #
face $-1 $85 $86 $18 $-1 $87 reversed single #
loop $-1 $-1 $88 $34 #
plane-surface $-1 -36.721336228822523 0.17145767122866573 109.47429780246497 0.6560590369687036 0 0.75470957328743171 0.75470957328743171 0 -0.6560590369687036 forward_v I I I I #
coedge $-1 $89 $90 $91 $92 reversed $35 $-1 #
face $-1 $-1 $93 $19 $-1 $94 forward single #
loop $-1 $95 $96 $37 #
cone-surface $-1 64.81634554448172 0.17145767122866573 13.201507356992348 -0.6560590369687036 0 -0.75470957328743171 0.56603217996557376 0 -0.4920442777265277 1 I I -0.70710678118654757 0.70710678118654757 0.75 forward I I I I #
loop $-1 $-1 $97 $24 #
coedge $-1 $60 $60 $98 $99 reversed $38 $-1 #
face $-1 $100 $101 $15 $-1 $102 reversed single #
loop $-1 $-1 $103 $40 #
plane-surface $-1 0 -47.957336608371342 0 0 1 0 0 0 1 forward_v I I I I #
coedge $-1 $104 $105 $106 $107 forward $41 $-1 #
coedge $-1 $108 $43 $109 $110 forward $26 $-1 #
coedge $-1 $43 $108 $111 $112 forward $26 $-1 #
coedge $-1 $113 $114 $43 $68 reversed $115 $-1 #
edge $-1 $116 -47.957336608371342 $117 47.957336608371342 $67 $118 forward 7 unknown #
face $-1 $119 $120 $16 $-1 $121 forward single #
loop $-1 $-1 $122 $44 #
plane-surface $-1 72.084719382305366 0 0 -1 0 0 0 0 1 forward_v I I I I #
coedge $-1 $123 $124 $125 $126 forward $45 $-1 #
coedge $-1 $125 $47 $122 $127 reversed $29 $-1 #
coedge $-1 $47 $125 $128 $129 reversed $29 $-1 #
coedge $-1 $130 $131 $47 $76 reversed $120 $-1 #
edge $-1 $132 -72.084719382305366 $133 72.084719382305366 $75 $134 forward 7 unknown #
face $-1 $135 $136 $17 $-1 $137 reversed single #
loop $-1 $-1 $138 $48 #
plane-surface $-1 0 55.708839913853303 -13.461775455036873 0 0 1 1 0 0 forward_v I I I I #
coedge $-1 $139 $140 $81 $141 forward $49 $-1 #
coedge $-1 $142 $51 $80 $141 reversed $32 $-1 #
coedge $-1 $51 $142 $143 $144 reversed $32 $-1 #
coedge $-1 $138 $145 $51 $84 reversed $78 $-1 #
edge $-1 $146 -72.084719382305366 $147 72.084719382305366 $83 $148 forward 7 unknown #
face $-1 $149 $150 $18 $-1 $151 forward single #
loop $-1 $-1 $152 $52 #
plane-surface $-1 57.862326927406485 -5.0893588142973059 218.28035341359285 0 1 0 0.6560590369687036 0 0.75470957328743171 forward_v I I I I #
coedge $-1 $153 $154 $155 $156 reversed $53 $-1 #
coedge $-1 $90 $55 $157 $158 reversed $35 $-1 #
coedge $-1 $55 $89 $153 $159 reversed $35 $-1 #
coedge $-1 $155 $160 $55 $92 forward $150 $-1 #
edge $-1 $161 -43.153555918602123 $162 -36.546308930555256 $91 $163 forward 7 unknown #
loop $-1 $-1 $98 $56 #
plane-surface $-1 -36.721336228822523 0.17145767122866573 109.47429780246497 0.6560590369687036 0 0.75470957328743171 0.75470957328743171 0 -0.6560590369687036 forward_v I I I I #
loop $-1 $-1 $164 $37 #
coedge $-1 $96 $96 $97 $165 reversed $57 $-1 #
coedge $-1 $97 $97 $96 $165 forward $59 $-1 #
coedge $-1 $98 $98 $60 $99 forward $93 $-1 #
edge $-1 $166 0 $166 6.2831853071796004 $98 $167 forward 7 unknown #
face $-1 $168 $169 $15 $-1 $170 reversed single #
loop $-1 $-1 $171 $61 #
plane-surface $-1 -72.084719382305366 0 0 1 0 0 0 0 -1 forward_v I I I I #
coedge $-1 $172 $111 $173 $174 forward $62 $-1 #
coedge $-1 $175 $64 $172 $176 forward $41 $-1 #
coedge $-1 $64 $175 $177 $178 forward $41 $-1 #
coedge $-1 $114 $113 $64 $107 reversed $115 $-1 #
edge $-1 $179 -47.957336608371342 $180 47.957336608371342 $106 $181 forward 7 unknown #
coedge $-1 $66 $65 $182 $183 forward $26 $-1 #
coedge $-1 $184 $185 $65 $110 reversed $169 $-1 #
edge $-1 $117 -72.084719382305366 $186 72.084719382305366 $109 $187 forward 7 unknown #
coedge $-1 $103 $188 $66 $112 reversed $62 $-1 #
edge $-1 $189 -72.084719382305366 $116 72.084719382305366 $111 $190 forward 7 unknown #
coedge $-1 $106 $67 $188 $191 forward $115 $-1 #
coedge $-1 $67 $106 $184 $192 reversed $115 $-1 #
loop $-1 $-1 $113 $168 #
vertex $-1 $68 $193 #
vertex $-1 $68 $194 #
straight-curve $-1 72.084719382305366 0 20.634226949048202 0 1 0 I I #
face $-1 $195 $196 $16 $-1 $197 reversed single #
loop $-1 $-1 $131 $69 #
plane-surface $-1 0 -55.708839913853303 -13.461775455036873 0 0 1 1 0 0 forward_v I I I I #
coedge $-1 $198 $199 $73 $127 forward $70 $-1 #
coedge $-1 $200 $72 $199 $201 forward $45 $-1 #
coedge $-1 $72 $200 $202 $203 forward $45 $-1 #
coedge $-1 $74 $73 $72 $126 reversed $29 $-1 #
edge $-1 $204 -72.084719382305366 $205 72.084719382305366 $72 $206 forward 7 unknown #
edge $-1 $205 -20.634226949048202 $133 -13.461775455036873 $122 $207 forward 7 unknown #
coedge $-1 $202 $208 $74 $129 forward $209 $-1 #
edge $-1 $132 13.461775455036873 $204 20.634226949048202 $128 $210 forward 7 unknown #
coedge $-1 $211 $75 $208 $212 forward $120 $-1 #
coedge $-1 $75 $211 $198 $213 forward $120 $-1 #
vertex $-1 $129 $214 #
vertex $-1 $213 $215 #
straight-curve $-1 0 -47.957336608371342 -13.461775455036873 1 0 0 I I #
face $-1 $216 $217 $17 $-1 $218 reversed single #
loop $-1 $-1 $219 $77 #
plane-surface $-1 0 63.460343219335265 -17.048001202042538 0 -1 0 0 0 -1 forward_v I I I I #
coedge $-1 $220 $83 $221 $222 forward $78 $-1 #
coedge $-1 $223 $80 $145 $224 reversed $49 $-1 #
coedge $-1 $80 $223 $225 $226 reversed $49 $-1 #
edge $-1 $227 -20.634226949048202 $147 -13.461775455036873 $80 $228 forward 7 unknown #
coedge $-1 $82 $81 $229 $230 reversed $32 $-1 #
coedge $-1 $231 $221 $82 $144 forward $232 $-1 #
edge $-1 $146 13.461775455036873 $233 20.634226949048202 $143 $234 forward 7 unknown #
coedge $-1 $83 $220 $139 $224 forward $78 $-1 #
vertex $-1 $144 $235 #
vertex $-1 $224 $236 #
straight-curve $-1 0 47.957336608371342 -13.461775455036873 -1 0 0 I I #
face $-1 $-1 $237 $18 $-1 $238 reversed single #
loop $-1 $-1 $91 $85 #
plane-surface $-1 0 0 20.634226949048202 0 0 1 1 0 0 forward_v I I I I #
coedge $-1 $239 $240 $241 $242 reversed $86 $-1 #
coedge $-1 $243 $88 $90 $159 forward $53 $-1 #
coedge $-1 $88 $243 $239 $244 forward $53 $-1 #
coedge $-1 $241 $91 $88 $156 forward $150 $-1 #
edge $-1 $162 -5.3465453211403045 $245 5.1750876499116387 $155 $246 forward 7 unknown #
coedge $-1 $247 $248 $89 $158 forward $237 $-1 #
edge $-1 $249 -94.249542060560458 $161 -88.505949757748226 $157 $250 forward 7 unknown #
edge $-1 $162 135.41475057473338 $249 144.16943876461073 $90 $251 forward 7 unknown #
coedge $-1 $91 $241 $247 $252 forward $150 $-1 #
vertex $-1 $158 $253 #
vertex $-1 $92 $254 #
straight-curve $-1 28.931163463703243 5.4322741567546373 20.634226949048198 -1 0 0 I I #
coedge $-1 $164 $164 $-1 $255 reversed $95 $-1 #
edge $-1 $256 0 $256 6.2831853071796004 $96 $257 forward 7 unknown #
vertex $-1 $99 $258 #
ellipse-curve $-1 68.781095888281925 0.17145767122866573 17.762430797642082 0.6560590369687036 0 0.75470957328743171 1.1320643599311475 0 -0.9840885554530554 1 I I #
face $-1 $-1 $115 $15 $-1 $259 reversed single #
loop $-1 $-1 $184 $100 #
plane-surface $-1 0 47.957336608371342 0 0 -1 0 0 0 -1 forward_v I I I I #
coedge $-1 $260 $182 $185 $261 forward $101 $-1 #
coedge $-1 $188 $103 $104 $176 reversed $62 $-1 #
coedge $-1 $182 $260 $103 $174 reversed $101 $-1 #
edge $-1 $189 -20.634226949048202 $262 20.634226949048202 $173 $263 forward 7 unknown #
coedge $-1 $105 $104 $260 $264 forward $41 $-1 #
edge $-1 $180 -72.084719382305366 $262 72.084719382305366 $172 $265 forward 7 unknown #
coedge $-1 $185 $184 $105 $178 reversed $169 $-1 #
edge $-1 $266 -72.084719382305366 $179 72.084719382305366 $177 $267 forward 7 unknown #
vertex $-1 $107 $268 #
vertex $-1 $191 $269 #
straight-curve $-1 72.084719382305366 0 -20.634226949048202 0 -1 0 I I #
coedge $-1 $171 $173 $108 $183 reversed $101 $-1 #
edge $-1 $186 -47.957336608371342 $189 47.957336608371342 $182 $270 forward 7 unknown #
coedge $-1 $177 $109 $114 $192 forward $169 $-1 #
coedge $-1 $109 $177 $171 $261 reversed $169 $-1 #
vertex $-1 $110 $271 #
straight-curve $-1 0 47.957336608371342 20.634226949048202 -1 0 0 I I #
coedge $-1 $111 $172 $113 $191 reversed $62 $-1 #
vertex $-1 $183 $272 #
straight-curve $-1 0 -47.957336608371342 20.634226949048202 1 0 0 I I #
edge $-1 $116 -20.634226949048202 $180 20.634226949048202 $113 $273 forward 7 unknown #
edge $-1 $117 -20.634226949048202 $179 20.634226949048202 $114 $274 forward 7 unknown #
point $-1 72.084719382305366 -47.957336608371342 20.634226949048202 #
point $-1 72.084719382305366 47.957336608371342 20.634226949048202 #
face $-1 $-1 $209 $16 $-1 $275 reversed single #
loop $-1 $-1 $276 $119 #
plane-surface $-1 0 -63.460343219335265 -17.048001202042538 0 1 0 0 0 1 forward_v I I I I #
coedge $-1 $277 $122 $131 $213 reversed $70 $-1 #
coedge $-1 $122 $277 $123 $201 reversed $70 $-1 #
coedge $-1 $124 $123 $278 $279 forward $45 $-1 #
edge $-1 $205 47.957336608371342 $280 63.460343219335265 $199 $281 forward 7 unknown #
coedge $-1 $282 $128 $124 $203 reversed $209 $-1 #
edge $-1 $283 -63.460343219335265 $204 -47.957336608371342 $202 $284 forward 7 unknown #
vertex $-1 $129 $285 #
vertex $-1 $201 $286 #
straight-curve $-1 0 -47.957336608371342 -20.634226949048202 1 0 0 I I #
straight-curve $-1 72.084719382305366 -47.957336608371342 0 0 0 1 I I #
coedge $-1 $128 $282 $130 $212 reversed $209 $-1 #
loop $-1 $-1 $128 $195 #
straight-curve $-1 -72.084719382305366 -47.957336608371342 0 0 0 -1 I I #
coedge $-1 $131 $130 $287 $288 forward $120 $-1 #
edge $-1 $132 -7.7515033054819611 $289 7.7515033054819611 $208 $290 forward 7 unknown #
edge $-1 $291 -7.7515033054819611 $133 7.7515033054819611 $198 $292 forward 7 unknown #
point $-1 -72.084719382305366 -47.957336608371342 -13.461775455036873 #
point $-1 72.084719382305366 -47.957336608371342 -13.461775455036873 #
face $-1 $-1 $232 $17 $-1 $293 reversed single #
loop $-1 $-1 $229 $135 #
plane-surface $-1 0 0 -20.634226949048202 0 0 1 1 0 0 forward_v I I I I #
coedge $-1 $294 $295 $296 $297 forward $136 $-1 #
coedge $-1 $145 $138 $295 $298 forward $78 $-1 #
coedge $-1 $143 $296 $138 $222 reversed $232 $-1 #
edge $-1 $146 -7.7515033054819611 $299 7.7515033054819611 $221 $300 forward 7 unknown #
coedge $-1 $140 $139 $301 $302 forward $49 $-1 #
edge $-1 $303 -7.7515033054819611 $147 7.7515033054819611 $139 $304 forward 7 unknown #
coedge $-1 $305 $229 $140 $226 forward $217 $-1 #
edge $-1 $227 -7.7515033054819611 $306 7.7515033054819611 $140 $307 forward 7 unknown #
vertex $-1 $226 $308 #
straight-curve $-1 -72.084719382305366 47.957336608371342 0 0 0 1 I I #
coedge $-1 $225 $309 $142 $230 forward $217 $-1 #
edge $-1 $233 -72.084719382305366 $227 72.084719382305366 $229 $310 forward 7 unknown #
coedge $-1 $296 $143 $309 $311 reversed $232 $-1 #
loop $-1 $-1 $143 $216 #
vertex $-1 $144 $312 #
straight-curve $-1 72.084719382305366 47.957336608371342 0 0 0 -1 I I #
point $-1 72.084719382305366 47.957336608371342 -13.461775455036873 #
point $-1 -72.084719382305366 47.957336608371342 -13.461775455036873 #
loop $-1 $-1 $157 $149 #
plane-surface $-1 72.084719382305366 0 0 -1 0 0 0 0 1 forward_v I I I I #
coedge $-1 $240 $152 $154 $244 reversed $86 $-1 #
coedge $-1 $152 $239 $313 $314 reversed $86 $-1 #
coedge $-1 $160 $155 $152 $242 forward $150 $-1 #
edge $-1 $245 36.546308930555256 $315 43.153555918602123 $241 $316 forward 7 unknown #
coedge $-1 $154 $153 $248 $317 reversed $53 $-1 #
edge $-1 $318 -144.16943876461073 $245 -135.41475057473338 $239 $319 forward 7 unknown #
vertex $-1 $156 $320 #
straight-curve $-1 65.477472394258498 0.085728835614332866 20.634226949048212 0 -1 0 I I #
coedge $-1 $313 $157 $160 $252 reversed $237 $-1 #
coedge $-1 $157 $313 $243 $317 forward $237 $-1 #
vertex $-1 $158 $321 #
straight-curve $-1 72.084719382305366 5.4322741567546373 109.14017670679642 0 0 1 I I #
straight-curve $-1 -36.721336228822523 5.4322741567546373 109.47429780246497 0.75470957328743171 0 -0.6560590369687036 I I #
edge $-1 $315 -5.0893588142973059 $161 5.4322741567546373 $247 $322 forward 7 unknown #
point $-1 72.084719382305366 5.4322741567546373 20.634226949048202 #
point $-1 65.477472394258498 5.4322741567546373 20.634226949048198 #
edge $-1 $323 1 $323 0 $164 $-1 forward 7 unknown #
vertex $-1 $165 $324 #
ellipse-curve $-1 65.308389822208241 0.17145767122866573 13.767539536957921 0.6560590369687036 0 0.75470957328743171 1.1320643599311475 0 -0.9840885554530554 1 I I #
point $-1 69.913160248213089 0.17145767122866573 16.778342242189051 #
plane-surface $-1 72.084719382305366 0 0 -1 0 0 0 0 1 forward_v I I I I #
coedge $-1 $173 $171 $175 $264 reversed $101 $-1 #
edge $-1 $186 -20.634226949048202 $266 20.634226949048202 $185 $325 forward 7 unknown #
vertex $-1 $264 $326 #
straight-curve $-1 -72.084719382305366 -47.957336608371342 0 0 0 -1 I I #
edge $-1 $262 -47.957336608371342 $266 47.957336608371342 $260 $327 forward 7 unknown #
straight-curve $-1 0 -47.957336608371342 -20.634226949048202 -1 0 0 I I #
vertex $-1 $178 $328 #
straight-curve $-1 0 47.957336608371342 -20.634226949048202 1 0 0 I I #
point $-1 72.084719382305366 47.957336608371342 -20.634226949048202 #
point $-1 72.084719382305366 -47.957336608371342 -20.634226949048202 #
straight-curve $-1 -72.084719382305366 0 20.634226949048202 0 -1 0 I I #
point $-1 -72.084719382305366 47.957336608371342 20.634226949048202 #
point $-1 -72.084719382305366 -47.957336608371342 20.634226949048202 #
straight-curve $-1 72.084719382305366 -47.957336608371342 0 0 0 -1 I I #
straight-curve $-1 72.084719382305366 47.957336608371342 0 0 0 -1 I I #
plane-surface $-1 -72.084719382305366 0 0 1 0 0 0 0 -1 forward_v I I I I #
coedge $-1 $278 $287 $282 $329 forward $196 $-1 #
coedge $-1 $199 $198 $330 $331 forward $70 $-1 #
coedge $-1 $330 $276 $200 $279 reversed $196 $-1 #
edge $-1 $280 -72.084719382305366 $283 72.084719382305366 $278 $332 forward 7 unknown #
vertex $-1 $331 $333 #
straight-curve $-1 72.084719382305366 0 -20.634226949048202 0 -1 0 I I #
coedge $-1 $208 $202 $276 $329 reversed $209 $-1 #
vertex $-1 $203 $334 #
straight-curve $-1 -72.084719382305366 0 -20.634226949048202 0 1 0 I I #
point $-1 -72.084719382305366 -47.957336608371342 -20.634226949048202 #
point $-1 72.084719382305366 -47.957336608371342 -20.634226949048202 #
coedge $-1 $276 $330 $211 $288 reversed $196 $-1 #
edge $-1 $289 -72.084719382305366 $291 72.084719382305366 $287 $335 forward 7 unknown #
vertex $-1 $212 $336 #
straight-curve $-1 -72.084719382305366 -55.708839913853303 -13.461775455036873 0 -1 0 I I #
vertex $-1 $213 $337 #
straight-curve $-1 72.084719382305366 -55.708839913853303 -13.461775455036873 0 1 0 I I #
plane-surface $-1 72.084719382305366 0 0 -1 0 0 0 0 1 forward_v I I I I #
coedge $-1 $301 $219 $305 $338 reversed $136 $-1 #
coedge $-1 $219 $301 $220 $298 reversed $136 $-1 #
coedge $-1 $221 $231 $219 $297 reversed $232 $-1 #
edge $-1 $299 -3.5862257470056651 $339 3.5862257470056633 $296 $340 forward 7 unknown #
edge $-1 $299 -72.084719382305366 $303 72.084719382305366 $295 $341 forward 7 unknown #
vertex $-1 $222 $342 #
straight-curve $-1 72.084719382305366 55.708839913853303 -13.461775455036873 0 1 0 I I #
coedge $-1 $295 $294 $223 $302 reversed $136 $-1 #
edge $-1 $303 -3.5862257470056651 $306 3.5862257470056633 $301 $343 forward 7 unknown #
vertex $-1 $298 $344 #
straight-curve $-1 -72.084719382305366 55.708839913853303 -13.461775455036873 0 -1 0 I I #
coedge $-1 $309 $225 $294 $338 forward $217 $-1 #
vertex $-1 $338 $345 #
straight-curve $-1 -72.084719382305366 55.708839913853303 -20.634226949048202 0 1 0 I I #
point $-1 -72.084719382305366 47.957336608371342 -20.634226949048202 #
coedge $-1 $229 $305 $231 $311 forward $217 $-1 #
straight-curve $-1 0 47.957336608371342 -20.634226949048202 -1 0 0 I I #
edge $-1 $339 -63.460343219335265 $233 -47.957336608371342 $231 $346 forward 7 unknown #
point $-1 72.084719382305366 47.957336608371342 -20.634226949048202 #
coedge $-1 $248 $247 $240 $314 forward $237 $-1 #
edge $-1 $315 88.505949757748226 $318 94.249542060560458 $313 $347 forward 7 unknown #
vertex $-1 $252 $348 #
straight-curve $-1 28.931163463703243 -5.0893588142973059 20.634226949048198 1 0 0 I I #
edge $-1 $318 -5.1750876499116387 $249 5.3465453211403045 $248 $349 forward 7 unknown #
vertex $-1 $317 $350 #
straight-curve $-1 -36.721336228822523 -5.0893588142973059 109.47429780246497 -0.75470957328743171 0 0.6560590369687036 I I #
point $-1 65.477472394258498 -5.0893588142973059 20.634226949048198 #
point $-1 72.084719382305352 5.4322741567546373 14.890634646235966 #
straight-curve $-1 72.084719382305366 0 20.634226949048202 0 1 0 I I #
vertex $-1 $255 $351 #
point $-1 66.440454182139391 0.17145767122866573 12.783450981504867 #
straight-curve $-1 -72.084719382305366 47.957336608371342 0 0 0 -1 I I #
point $-1 -72.084719382305366 -47.957336608371342 -20.634226949048202 #
straight-curve $-1 -72.084719382305366 0 -20.634226949048202 0 1 0 I I #
point $-1 -72.084719382305366 47.957336608371342 -20.634226949048202 #
edge $-1 $289 -3.5862257470056651 $283 3.5862257470056633 $282 $352 forward 7 unknown #
coedge $-1 $287 $278 $277 $331 reversed $196 $-1 #
edge $-1 $291 -3.5862257470056651 $280 3.5862257470056633 $277 $353 forward 7 unknown #
straight-curve $-1 0 -63.460343219335265 -20.634226949048202 -1 0 0 I I #
point $-1 72.084719382305366 -63.460343219335265 -20.634226949048202 #
point $-1 -72.084719382305366 -63.460343219335265 -20.634226949048202 #
straight-curve $-1 0 -63.460343219335265 -13.461775455036873 1 0 0 I I #
point $-1 -72.084719382305366 -63.460343219335265 -13.461775455036873 #
point $-1 72.084719382305366 -63.460343219335265 -13.461775455036873 #
edge $-1 $306 -72.084719382305366 $339 72.084719382305366 $294 $354 forward 7 unknown #
vertex $-1 $311 $355 #
straight-curve $-1 72.084719382305366 63.460343219335265 -17.048001202042538 0 0 -1 I I #
straight-curve $-1 0 63.460343219335265 -13.461775455036873 -1 0 0 I I #
point $-1 72.084719382305366 63.460343219335265 -13.461775455036873 #
straight-curve $-1 -72.084719382305366 63.460343219335265 -17.048001202042538 0 0 -1 I I #
point $-1 -72.084719382305366 63.460343219335265 -13.461775455036873 #
point $-1 -72.084719382305366 63.460343219335265 -20.634226949048202 #
straight-curve $-1 72.084719382305366 0 -20.634226949048202 0 -1 0 I I #
straight-curve $-1 72.084719382305366 -5.0893588142973059 109.14017670679642 0 0 -1 I I #
point $-1 72.084719382305366 -5.0893588142973059 20.634226949048202 #
straight-curve $-1 72.084719382305366 0.085728835614332866 14.890634646235966 0 1 0 I I #
point $-1 72.084719382305352 -5.0893588142973059 14.890634646235966 #
point $-1 64.324301266755199 0.17145767122866573 12.635475177026775 #
straight-curve $-1 -72.084719382305366 -63.460343219335265 -17.048001202042538 0 0 -1 I I #
straight-curve $-1 72.084719382305366 -63.460343219335265 -17.048001202042538 0 0 -1 I I #
straight-curve $-1 0 63.460343219335265 -20.634226949048202 1 0 0 I I #
point $-1 72.084719382305366 63.460343219335265 -20.634226949048202 #
End-of-ACIS-data 