500 0 3 0           
7 Unknown 11 ACIS 5.0 NT 24 Fri Mar 26 18:16:14 1999 
-1 9.9999999999999995e-007 1e-010 
body $-1 $3 $-1 $4 #
body $-1 $5 $-1 $6 #
body $-1 $7 $-1 $8 #
lump $-1 $-1 $9 $0 #
transform $-1 1 0 0 0 1 0 0 0 1 62.971892452772607 41.759741198867061 17.290141205993521 1 rotate no_reflect no_shear #
lump $-1 $-1 $10 $1 #
transform $-1 1 0 0 0 1 0 0 0 1 62.971892452772607 41.759741198867061 17.290141205993521 1 rotate no_reflect no_shear #
lump $-1 $-1 $11 $2 #
transform $-1 1 0 0 0 1 0 0 0 1 62.971892452772607 41.759741198867061 17.290141205993521 1 rotate no_reflect no_shear #
shell $-1 $-1 $-1 $12 $-1 $3 #
shell $-1 $-1 $-1 $13 $-1 $5 #
shell $-1 $-1 $-1 $14 $-1 $7 #
face $-1 $15 $16 $9 $-1 $17 reversed single #
face $-1 $18 $19 $10 $-1 $20 reversed single #
face $-1 $21 $22 $11 $-1 $23 forward single #
face $-1 $24 $25 $9 $-1 $26 forward single #
loop $-1 $-1 $27 $12 #
plane-surface $-1 62.971892452772607 0 0 -1 0 0 0 0 1 forward_v I I I I #
face $-1 $28 $29 $10 $-1 $30 reversed single #
loop $-1 $-1 $31 $13 #
plane-surface $-1 -54.279452973282361 0 12.641268802262815 0 0 1 1 0 0 forward_v I I I I #
face $-1 $32 $33 $11 $-1 $34 reversed single #
loop $-1 $-1 $35 $14 #
plane-surface $-1 62.971892452772607 0 0 -1 0 0 0 0 1 forward_v I I I I #
face $-1 $36 $37 $9 $-1 $38 reversed single #
loop $-1 $-1 $39 $15 #
plane-surface $-1 0 0 17.290141205993521 0 0 1 1 0 0 forward_v I I I I #
coedge $-1 $40 $41 $42 $43 reversed $16 $-1 #
face $-1 $44 $45 $10 $-1 $46 reversed single #
loop $-1 $-1 $47 $18 #
plane-surface $-1 -45.587013493792114 0 14.965705004128168 -1 0 0 0 0 1 forward_v I I I I #
coedge $-1 $48 $49 $50 $51 forward $19 $-1 #
face $-1 $52 $53 $11 $-1 $54 reversed single #
loop $-1 $-1 $55 $21 #
plane-surface $-1 0 -41.759741198867061 0 0 1 0 0 0 1 forward_v I I I I #
coedge $-1 $56 $57 $58 $59 forward $22 $-1 #
face $-1 $60 $61 $9 $-1 $62 reversed single #
loop $-1 $-1 $42 $24 #
plane-surface $-1 0 0 -17.290141205993521 0 0 1 1 0 0 forward_v I I I I #
coedge $-1 $63 $64 $65 $66 forward $25 $-1 #
coedge $-1 $65 $27 $67 $68 reversed $16 $-1 #
coedge $-1 $27 $65 $69 $70 forward $16 $-1 #
coedge $-1 $71 $72 $27 $43 forward $37 $-1 #
edge $-1 $73 -41.759741198867061 $74 41.759741198867061 $27 $75 forward 7 unknown #
face $-1 $76 $77 $10 $-1 $78 reversed single #
loop $-1 $-1 $79 $28 #
plane-surface $-1 0 41.759741198867061 0 0 -1 0 0 0 -1 forward_v I I I I #
coedge $-1 $50 $80 $81 $82 reversed $29 $-1 #
coedge $-1 $83 $31 $84 $85 reversed $19 $-1 #
coedge $-1 $31 $83 $86 $87 reversed $19 $-1 #
coedge $-1 $88 $47 $31 $51 reversed $29 $-1 #
edge $-1 $89 -41.759741198867061 $90 41.759741198867061 $50 $91 forward 7 unknown #
face $-1 $92 $93 $11 $-1 $94 reversed single #
loop $-1 $-1 $95 $32 #
plane-surface $-1 0 0 -17.290141205993521 0 0 1 1 0 0 forward_v I I I I #
coedge $-1 $96 $97 $98 $99 forward $33 $-1 #
coedge $-1 $98 $35 $95 $100 reversed $22 $-1 #
coedge $-1 $35 $98 $101 $102 reversed $22 $-1 #
coedge $-1 $103 $104 $35 $59 reversed $93 $-1 #
edge $-1 $105 -17.290141205993521 $106 17.290141205993521 $58 $107 forward 7 unknown #
face $-1 $108 $109 $9 $-1 $110 reversed single #
loop $-1 $-1 $111 $36 #
plane-surface $-1 0 -41.759741198867061 0 0 1 0 0 0 1 forward_v I I I I #
coedge $-1 $112 $39 $113 $114 forward $25 $-1 #
coedge $-1 $39 $112 $115 $116 forward $25 $-1 #
coedge $-1 $41 $40 $39 $66 reversed $16 $-1 #
edge $-1 $117 -41.759741198867061 $118 41.759741198867061 $65 $119 forward 7 unknown #
coedge $-1 $120 $113 $40 $68 forward $121 $-1 #
edge $-1 $118 -17.290141205993521 $73 17.290141205993521 $40 $122 forward 7 unknown #
coedge $-1 $115 $123 $41 $70 reversed $61 $-1 #
edge $-1 $117 -17.290141205993521 $74 17.290141205993521 $41 $124 forward 7 unknown #
coedge $-1 $125 $42 $123 $126 forward $37 $-1 #
coedge $-1 $42 $125 $120 $127 forward $37 $-1 #
vertex $-1 $43 $128 #
vertex $-1 $70 $129 #
straight-curve $-1 62.971892452772607 0 -17.290141205993521 0 -1 0 I I #
face $-1 $130 $131 $10 $-1 $132 forward single #
loop $-1 $-1 $133 $44 #
plane-surface $-1 -62.971892452772607 0 0 1 0 0 0 0 -1 forward_v I I I I #
coedge $-1 $86 $134 $88 $135 forward $45 $-1 #
coedge $-1 $47 $88 $136 $137 reversed $29 $-1 #
coedge $-1 $138 $84 $47 $82 forward $139 $-1 #
edge $-1 $90 5.1584163001987307 $140 9.8072887039294372 $81 $141 forward 7 unknown #
coedge $-1 $49 $48 $133 $142 reversed $19 $-1 #
coedge $-1 $81 $143 $48 $85 forward $139 $-1 #
edge $-1 $144 -35.832165966131427 $90 -18.447287007150933 $84 $145 forward 7 unknown #
coedge $-1 $146 $79 $49 $87 forward $45 $-1 #
edge $-1 $89 18.447287007150933 $147 35.832165966131427 $86 $148 forward 7 unknown #
coedge $-1 $80 $50 $79 $135 reversed $29 $-1 #
vertex $-1 $87 $149 #
vertex $-1 $85 $150 #
straight-curve $-1 -45.587013493792114 0 12.641268802262815 0 -1 0 I I #
face $-1 $151 $152 $11 $-1 $153 reversed single #
loop $-1 $-1 $154 $52 #
plane-surface $-1 69.5965277130488 -35.969203414927989 0 0 -1 0 0 0 -1 forward_v I I I I #
coedge $-1 $155 $156 $56 $100 forward $53 $-1 #
coedge $-1 $157 $55 $156 $158 reversed $33 $-1 #
coedge $-1 $55 $157 $159 $160 reversed $33 $-1 #
coedge $-1 $57 $56 $55 $99 reversed $22 $-1 #
edge $-1 $161 -17.290141205993521 $162 17.290141205993521 $55 $163 forward 7 unknown #
edge $-1 $162 -41.759741198867061 $106 -35.969203414927989 $95 $164 forward 7 unknown #
coedge $-1 $159 $165 $57 $102 forward $166 $-1 #
edge $-1 $105 35.969203414927989 $161 41.759741198867061 $101 $167 forward 7 unknown #
coedge $-1 $154 $58 $165 $168 reversed $93 $-1 #
coedge $-1 $58 $154 $155 $169 reversed $93 $-1 #
vertex $-1 $102 $170 #
vertex $-1 $169 $171 #
straight-curve $-1 62.971892452772607 -35.969203414927989 0 0 0 -1 I I #
face $-1 $-1 $121 $9 $-1 $172 reversed single #
loop $-1 $-1 $173 $60 #
plane-surface $-1 -62.971892452772607 0 0 1 0 0 0 0 -1 forward_v I I I I #
coedge $-1 $123 $115 $174 $175 forward $61 $-1 #
coedge $-1 $64 $63 $176 $177 forward $25 $-1 #
coedge $-1 $67 $178 $63 $114 reversed $121 $-1 #
edge $-1 $118 -62.971892452772607 $179 62.971892452772607 $113 $180 forward 7 unknown #
coedge $-1 $111 $69 $64 $116 reversed $61 $-1 #
edge $-1 $181 -62.971892452772607 $117 62.971892452772607 $115 $182 forward 7 unknown #
vertex $-1 $66 $183 #
vertex $-1 $66 $184 #
straight-curve $-1 62.971892452772607 0 17.290141205993521 0 1 0 I I #
coedge $-1 $178 $67 $72 $127 reversed $121 $-1 #
loop $-1 $-1 $67 $108 #
straight-curve $-1 62.971892452772607 41.759741198867061 0 0 0 -1 I I #
coedge $-1 $69 $111 $71 $126 reversed $61 $-1 #
straight-curve $-1 62.971892452772607 -41.759741198867061 0 0 0 -1 I I #
coedge $-1 $72 $71 $185 $186 forward $37 $-1 #
edge $-1 $74 -62.971892452772607 $187 62.971892452772607 $123 $188 forward 7 unknown #
edge $-1 $189 -62.971892452772607 $73 62.971892452772607 $120 $190 forward 7 unknown #
point $-1 62.971892452772607 41.759741198867061 -17.290141205993521 #
point $-1 62.971892452772607 -41.759741198867061 -17.290141205993521 #
face $-1 $-1 $139 $10 $-1 $191 reversed single #
loop $-1 $-1 $136 $76 #
plane-surface $-1 0 0 17.290141205993521 0 0 1 1 0 0 forward_v I I I I #
coedge $-1 $192 $193 $83 $142 forward $77 $-1 #
coedge $-1 $79 $146 $194 $195 reversed $45 $-1 #
edge $-1 $196 -9.8072887039294372 $89 -5.1584163001987307 $79 $197 forward 7 unknown #
coedge $-1 $194 $198 $80 $137 forward $131 $-1 #
edge $-1 $140 -41.759741198867061 $196 41.759741198867061 $136 $199 forward 7 unknown #
coedge $-1 $143 $81 $198 $200 reversed $139 $-1 #
loop $-1 $-1 $81 $130 #
vertex $-1 $82 $201 #
straight-curve $-1 -45.587013493792114 -41.759741198867061 7.4828525020640839 0 0 1 I I #
edge $-1 $147 -41.759741198867061 $144 41.759741198867061 $133 $202 forward 7 unknown #
coedge $-1 $84 $138 $192 $203 forward $139 $-1 #
vertex $-1 $142 $204 #
straight-curve $-1 -27.13972648664118 -41.759741198867061 12.641268802262815 1 0 0 I I #
coedge $-1 $134 $86 $193 $205 reversed $45 $-1 #
vertex $-1 $142 $206 #
straight-curve $-1 -27.13972648664118 41.759741198867061 12.641268802262815 -1 0 0 I I #
point $-1 -45.587013493792114 41.759741198867061 12.641268802262815 #
point $-1 -45.587013493792114 -41.759741198867061 12.641268802262815 #
face $-1 $-1 $166 $11 $-1 $207 forward single #
loop $-1 $-1 $208 $92 #
plane-surface $-1 76.221162973324994 -38.864472306897525 0 -1 0 0 0 0 1 forward_v I I I I #
coedge $-1 $104 $103 $209 $210 forward $93 $-1 #
coedge $-1 $211 $95 $104 $169 forward $53 $-1 #
coedge $-1 $95 $211 $96 $158 forward $53 $-1 #
coedge $-1 $97 $96 $208 $212 reversed $33 $-1 #
edge $-1 $213 -6.6246352602761931 $162 6.6246352602761931 $96 $214 forward 7 unknown #
coedge $-1 $215 $101 $97 $160 forward $166 $-1 #
edge $-1 $161 -6.6246352602761931 $216 6.6246352602761931 $97 $217 forward 7 unknown #
vertex $-1 $160 $218 #
vertex $-1 $100 $219 #
straight-curve $-1 62.971892452772607 -41.759741198867061 0 0 0 -1 I I #
straight-curve $-1 62.971892452772607 0 -17.290141205993521 0 1 0 I I #
coedge $-1 $101 $215 $103 $168 forward $166 $-1 #
loop $-1 $-1 $101 $151 #
straight-curve $-1 62.971892452772607 0 17.290141205993521 0 -1 0 I I #
edge $-1 $220 -6.6246352602761931 $105 6.6246352602761931 $103 $221 forward 7 unknown #
edge $-1 $106 -6.6246352602761931 $222 6.6246352602761931 $104 $223 forward 7 unknown #
point $-1 62.971892452772607 -35.969203414927989 17.290141205993521 #
point $-1 62.971892452772607 -35.969203414927989 -17.290141205993521 #
plane-surface $-1 0 41.759741198867061 0 0 -1 0 0 0 -1 forward_v I I I I #
coedge $-1 $185 $176 $178 $224 forward $109 $-1 #
coedge $-1 $176 $185 $111 $175 reversed $109 $-1 #
edge $-1 $181 -17.290141205993521 $187 17.290141205993521 $174 $225 forward 7 unknown #
coedge $-1 $173 $174 $112 $177 reversed $109 $-1 #
edge $-1 $179 -41.759741198867061 $181 41.759741198867061 $176 $226 forward 7 unknown #
coedge $-1 $113 $120 $173 $224 reversed $121 $-1 #
vertex $-1 $114 $227 #
straight-curve $-1 0 41.759741198867061 17.290141205993521 -1 0 0 I I #
vertex $-1 $177 $228 #
straight-curve $-1 0 -41.759741198867061 17.290141205993521 1 0 0 I I #
point $-1 62.971892452772607 -41.759741198867061 17.290141205993521 #
point $-1 62.971892452772607 41.759741198867061 17.290141205993521 #
coedge $-1 $174 $173 $125 $186 reversed $109 $-1 #
edge $-1 $187 -41.759741198867061 $189 41.759741198867061 $185 $229 forward 7 unknown #
vertex $-1 $186 $230 #
straight-curve $-1 0 -41.759741198867061 -17.290141205993521 -1 0 0 I I #
vertex $-1 $127 $231 #
straight-curve $-1 0 41.759741198867061 -17.290141205993521 1 0 0 I I #
plane-surface $-1 0 -41.759741198867061 0 0 1 0 0 0 1 forward_v I I I I #
coedge $-1 $232 $133 $143 $203 reversed $77 $-1 #
coedge $-1 $133 $232 $146 $205 forward $77 $-1 #
coedge $-1 $233 $136 $134 $195 forward $131 $-1 #
edge $-1 $196 45.587013493792114 $234 62.971892452772607 $134 $235 forward 7 unknown #
vertex $-1 $195 $236 #
straight-curve $-1 -45.587013493792114 41.759741198867061 7.4828525020640839 0 0 -1 I I #
coedge $-1 $136 $233 $138 $200 forward $131 $-1 #
straight-curve $-1 -45.587013493792114 0 17.290141205993521 0 1 0 I I #
edge $-1 $237 -62.971892452772607 $140 -45.587013493792114 $138 $238 forward 7 unknown #
point $-1 -45.587013493792114 -41.759741198867061 17.290141205993521 #
straight-curve $-1 -62.971892452772607 0 12.641268802262815 0 -1 0 I I #
edge $-1 $237 -17.290141205993521 $144 -12.641268802262815 $192 $239 forward 7 unknown #
point $-1 -62.971892452772607 -41.759741198867061 12.641268802262815 #
edge $-1 $234 -17.290141205993521 $147 -12.641268802262815 $146 $240 forward 7 unknown #
point $-1 -62.971892452772607 41.759741198867061 12.641268802262815 #
plane-surface $-1 0 0 17.290141205993521 0 0 1 1 0 0 forward_v I I I I #
coedge $-1 $241 $242 $157 $212 forward $152 $-1 #
coedge $-1 $242 $241 $154 $210 reversed $152 $-1 #
edge $-1 $220 -17.290141205993521 $222 17.290141205993521 $209 $243 forward 7 unknown #
coedge $-1 $156 $155 $241 $244 forward $53 $-1 #
edge $-1 $216 -17.290141205993521 $213 17.290141205993521 $208 $245 forward 7 unknown #
vertex $-1 $212 $246 #
straight-curve $-1 69.5965277130488 -41.759741198867061 -17.290141205993521 -1 0 0 I I #
coedge $-1 $165 $159 $242 $247 forward $166 $-1 #
vertex $-1 $247 $248 #
straight-curve $-1 69.5965277130488 -41.759741198867061 17.290141205993521 1 0 0 I I #
point $-1 62.971892452772607 -41.759741198867061 17.290141205993521 #
point $-1 62.971892452772607 -41.759741198867061 -17.290141205993521 #
vertex $-1 $247 $249 #
straight-curve $-1 69.5965277130488 -35.969203414927989 17.290141205993521 -1 0 0 I I #
vertex $-1 $244 $250 #
straight-curve $-1 69.5965277130488 -35.969203414927989 -17.290141205993521 1 0 0 I I #
edge $-1 $179 -17.290141205993521 $189 17.290141205993521 $178 $251 forward 7 unknown #
straight-curve $-1 -62.971892452772607 -41.759741198867061 0 0 0 -1 I I #
straight-curve $-1 -62.971892452772607 0 17.290141205993521 0 -1 0 I I #
point $-1 -62.971892452772607 41.759741198867061 17.290141205993521 #
point $-1 -62.971892452772607 -41.759741198867061 17.290141205993521 #
straight-curve $-1 -62.971892452772607 0 -17.290141205993521 0 1 0 I I #
point $-1 -62.971892452772607 -41.759741198867061 -17.290141205993521 #
point $-1 -62.971892452772607 41.759741198867061 -17.290141205993521 #
coedge $-1 $193 $192 $233 $252 reversed $77 $-1 #
coedge $-1 $198 $194 $232 $252 forward $131 $-1 #
vertex $-1 $195 $253 #
straight-curve $-1 0 41.759741198867061 17.290141205993521 -1 0 0 I I #
point $-1 -45.587013493792114 41.759741198867061 17.290141205993521 #
vertex $-1 $252 $254 #
straight-curve $-1 0 -41.759741198867061 17.290141205993521 1 0 0 I I #
straight-curve $-1 -62.971892452772607 -41.759741198867061 0 0 0 -1 I I #
straight-curve $-1 -62.971892452772607 41.759741198867061 0 0 0 -1 I I #
coedge $-1 $209 $208 $211 $244 reversed $152 $-1 #
coedge $-1 $208 $209 $215 $247 reversed $152 $-1 #
straight-curve $-1 76.221162973324994 -35.969203414927989 0 0 0 -1 I I #
edge $-1 $222 -2.8952688919695362 $213 2.8952688919695362 $241 $255 forward 7 unknown #
straight-curve $-1 76.221162973324994 -41.759741198867061 0 0 0 -1 I I #
point $-1 76.221162973324994 -41.759741198867061 -17.290141205993521 #
edge $-1 $216 -2.8952688919695362 $220 2.8952688919695362 $242 $256 forward 7 unknown #
point $-1 76.221162973324994 -41.759741198867061 17.290141205993521 #
point $-1 76.221162973324994 -35.969203414927989 17.290141205993521 #
point $-1 76.221162973324994 -35.969203414927989 -17.290141205993521 #
straight-curve $-1 -62.971892452772607 41.759741198867061 0 0 0 -1 I I #
edge $-1 $234 -41.759741198867061 $237 41.759741198867061 $232 $257 forward 7 unknown #
point $-1 -62.971892452772607 41.759741198867061 17.290141205993521 #
point $-1 -62.971892452772607 -41.759741198867061 17.290141205993521 #
straight-curve $-1 76.221162973324994 -38.864472306897525 -17.290141205993521 0 -1 0 I I #
straight-curve $-1 76.221162973324994 -38.864472306897525 17.290141205993521 0 1 0 I I #
straight-curve $-1 -62.971892452772607 0 17.290141205993521 0 -1 0 I I #
End-of-ACIS-data 