500 0 8 0           
7 Unknown 11 ACIS 5.0 NT 24 Fri Mar 26 01:22:03 1999 
-1 9.9999999999999995e-007 1e-010 
body $-1 $8 $-1 $9 #
body $-1 $10 $-1 $11 #
body $-1 $12 $-1 $13 #
body $-1 $14 $-1 $15 #
body $-1 $16 $-1 $17 #
body $-1 $18 $-1 $19 #
body $-1 $20 $-1 $21 #
body $-1 $22 $-1 $23 #
lump $-1 $-1 $24 $0 #
transform $-1 1 0 0 0 1 0 0 0 1 57.80693990905484 32.025365790675473 11.83092289069941 1 rotate no_reflect no_shear #
lump $-1 $-1 $25 $1 #
transform $-1 1 0 0 0 1 0 0 0 1 57.80693990905484 32.025365790675473 11.83092289069941 1 rotate no_reflect no_shear #
lump $-1 $-1 $26 $2 #
transform $-1 1 0 0 0 1 0 0 0 1 57.80693990905484 32.025365790675473 11.83092289069941 1 rotate no_reflect no_shear #
lump $-1 $-1 $27 $3 #
transform $-1 1 0 0 0 1 0 0 0 1 57.80693990905484 32.025365790675473 11.83092289069941 1 rotate no_reflect no_shear #
lump $-1 $-1 $28 $4 #
transform $-1 1 0 0 0 1 0 0 0 1 57.80693990905484 32.025365790675473 11.83092289069941 1 rotate no_reflect no_shear #
lump $-1 $-1 $29 $5 #
transform $-1 1 0 0 0 1 0 0 0 1 57.80693990905484 32.025365790675473 11.83092289069941 1 rotate no_reflect no_shear #
lump $-1 $-1 $30 $6 #
transform $-1 1 0 0 0 1 0 0 0 1 57.80693990905484 32.025365790675473 11.83092289069941 1 rotate no_reflect no_shear #
lump $-1 $-1 $31 $7 #
transform $-1 1 0 0 0 1 0 0 0 1 57.80693990905484 32.025365790675473 11.83092289069941 1 rotate no_reflect no_shear #
shell $-1 $-1 $-1 $32 $-1 $8 #
shell $-1 $-1 $-1 $33 $-1 $10 #
shell $-1 $-1 $-1 $34 $-1 $12 #
shell $-1 $-1 $-1 $35 $-1 $14 #
shell $-1 $-1 $-1 $36 $-1 $16 #
shell $-1 $-1 $-1 $37 $-1 $18 #
shell $-1 $-1 $-1 $38 $-1 $20 #
shell $-1 $-1 $-1 $39 $-1 $22 #
face $-1 $40 $41 $24 $-1 $42 forward single #
face $-1 $43 $44 $25 $-1 $45 forward single #
face $-1 $46 $47 $26 $-1 $48 forward single #
face $-1 $49 $50 $27 $-1 $51 reversed single #
face $-1 $52 $53 $28 $-1 $54 forward single #
face $-1 $55 $56 $29 $-1 $57 reversed single #
face $-1 $58 $59 $30 $-1 $60 forward single #
face $-1 $61 $62 $31 $-1 $63 forward single #
face $-1 $64 $65 $24 $-1 $66 reversed single #
loop $-1 $-1 $67 $32 #
plane-surface $-1 0 0 11.83092289069941 0 0 1 1 0 0 forward_v I I I I #
face $-1 $68 $69 $25 $-1 $70 reversed single #
loop $-1 $-1 $71 $33 #
plane-surface $-1 -57.80693990905484 0 0 1 0 0 0 0 -1 forward_v I I I I #
face $-1 $72 $73 $26 $-1 $74 reversed single #
loop $-1 $-1 $75 $34 #
plane-surface $-1 57.80693990905484 0 0 -1 0 0 0 0 1 forward_v I I I I #
face $-1 $76 $77 $27 $-1 $78 reversed single #
loop $-1 $-1 $79 $35 #
plane-surface $-1 -24.860140983011171 -104.7835387520764 93.593653318883241 -1 0 0 0 -0.62932039886446345 0.77714595512881146 forward_v I I I I #
face $-1 $80 $81 $28 $-1 $82 forward single #
loop $-1 $83 $84 $36 #
cone-surface $-1 -36.134884820172992 -23.924147834398042 3.9492432888040554 0 0.62932039886446345 -0.77714595512881146 3 0 0 1 I I 0 1 3 forward I I I I #
face $-1 $85 $86 $29 $-1 $87 reversed single #
loop $-1 $-1 $88 $37 #
plane-surface $-1 -41.82396186742681 59.535196143850733 133.28298736913848 1 0 0 0 -0.6560590369687036 -0.75470957328743171 forward_v I I I I #
face $-1 $89 $90 $30 $-1 $91 forward single #
loop $-1 $92 $93 $38 #
cone-surface $-1 -37.189261356644238 26.799027079109415 7.0836267935802653 0 -0.6560590369687036 -0.75470957328743171 2 0 0 1 I I 0 1 2 forward I I I I #
face $-1 $94 $95 $31 $-1 $96 forward single #
loop $-1 $97 $98 $39 #
cone-surface $-1 -30.237210590470383 26.799027079109415 7.0836267935802653 0 -0.6560590369687036 -0.75470957328743171 2 0 0 1 I I 0 1 2 forward I I I I #
face $-1 $99 $100 $24 $-1 $101 reversed single #
loop $-1 $-1 $102 $40 #
plane-surface $-1 0 0 -11.83092289069941 0 0 1 1 0 0 forward_v I I I I #
coedge $-1 $103 $104 $105 $106 forward $41 $-1 #
face $-1 $107 $108 $25 $-1 $109 forward single #
loop $-1 $-1 $110 $43 #
plane-surface $-1 0 32.025365790675473 0 0 -1 0 0 0 -1 forward_v I I I I #
coedge $-1 $111 $112 $113 $114 forward $44 $-1 #
face $-1 $115 $116 $26 $-1 $117 forward single #
loop $-1 $-1 $118 $46 #
plane-surface $-1 0 -32.025365790675473 0 0 1 0 0 0 1 forward_v I I I I #
coedge $-1 $119 $120 $121 $122 forward $47 $-1 #
face $-1 $123 $124 $27 $-1 $125 reversed single #
loop $-1 $-1 $126 $49 #
plane-surface $-1 -36.134884820172992 -32.025365790675465 3.7447942614907817 0 -0.62932039886446345 0.77714595512881146 1 0 0 forward_v I I I I #
coedge $-1 $127 $128 $129 $130 reversed $50 $-1 #
face $-1 $-1 $131 $28 $-1 $132 forward single #
loop $-1 $133 $134 $52 #
cone-surface $-1 -36.134884820172992 -19.871717802963889 -1.0550909311801995 0 0.62932039886446345 -0.77714595512881146 1.5 0 0 1 I I -0.70710678118654757 0.70710678118654757 1.5 forward I I I I #
loop $-1 $-1 $135 $36 #
coedge $-1 $84 $84 $136 $137 reversed $53 $-1 #
face $-1 $138 $139 $29 $-1 $140 reversed single #
loop $-1 $-1 $141 $55 #
plane-surface $-1 -33.71323597355731 -16.314334509833735 46.028085465508511 0 0.6560590369687036 0.75470957328743171 1 0 0 forward_v I I I I #
coedge $-1 $142 $143 $144 $145 reversed $56 $-1 #
face $-1 $-1 $146 $30 $-1 $147 forward single #
loop $-1 $148 $149 $58 #
cone-surface $-1 -37.189261356644238 25.416812179450169 5.4935704749701433 0 -0.6560590369687036 -0.75470957328743171 1 0 0 1 I I -0.70710678118654746 0.70710678118654746 1 forward I I I I #
loop $-1 $-1 $150 $38 #
coedge $-1 $93 $93 $151 $152 reversed $59 $-1 #
face $-1 $-1 $153 $31 $-1 $154 forward single #
loop $-1 $155 $156 $61 #
cone-surface $-1 -30.237210590470383 25.416812179450169 5.4935704749701433 0 -0.6560590369687036 -0.75470957328743171 1 0 0 1 I I -0.70710678118654746 0.70710678118654746 1 forward I I I I #
loop $-1 $-1 $157 $39 #
coedge $-1 $98 $98 $158 $159 reversed $62 $-1 #
face $-1 $160 $161 $24 $-1 $162 reversed single #
loop $-1 $-1 $163 $64 #
plane-surface $-1 0 -32.025365790675473 0 0 1 0 0 0 1 forward_v I I I I #
coedge $-1 $164 $165 $166 $167 forward $65 $-1 #
coedge $-1 $168 $67 $169 $170 forward $41 $-1 #
coedge $-1 $67 $168 $171 $172 forward $41 $-1 #
coedge $-1 $173 $174 $67 $106 reversed $175 $-1 #
edge $-1 $176 -32.025365790675473 $177 32.025365790675473 $105 $178 forward 7 unknown #
face $-1 $179 $180 $25 $-1 $181 reversed single #
loop $-1 $-1 $113 $68 #
plane-surface $-1 -63.005595534914853 0 8.6697121775075559 0 0 1 1 0 0 forward_v I I I I #
coedge $-1 $182 $183 $112 $184 forward $69 $-1 #
coedge $-1 $185 $71 $186 $187 reversed $44 $-1 #
coedge $-1 $71 $185 $110 $184 reversed $44 $-1 #
coedge $-1 $188 $189 $71 $114 reversed $108 $-1 #
edge $-1 $190 -32.025365790675473 $191 32.025365790675473 $113 $192 forward 7 unknown #
face $-1 $193 $194 $26 $-1 $195 reversed single #
loop $-1 $-1 $196 $72 #
plane-surface $-1 63.005595534914853 0 8.6697121775075559 0 0 1 1 0 0 forward_v I I I I #
coedge $-1 $197 $198 $120 $199 forward $73 $-1 #
coedge $-1 $200 $75 $201 $202 reversed $47 $-1 #
coedge $-1 $75 $200 $118 $199 reversed $47 $-1 #
coedge $-1 $203 $204 $75 $122 reversed $116 $-1 #
edge $-1 $205 -32.025365790675473 $206 32.025365790675473 $121 $207 forward 7 unknown #
face $-1 $208 $209 $27 $-1 $210 forward single #
loop $-1 $-1 $211 $76 #
plane-surface $-1 -47.409628657334814 -104.7835387520764 93.593653318883241 1 0 0 0 0.62932039886446345 -0.77714595512881146 forward_v I I I I #
coedge $-1 $212 $213 $214 $215 reversed $77 $-1 #
coedge $-1 $128 $79 $216 $217 reversed $50 $-1 #
coedge $-1 $79 $127 $212 $218 reversed $50 $-1 #
coedge $-1 $214 $219 $79 $130 forward $209 $-1 #
edge $-1 $220 20.366403585362725 $221 30.35194063164267 $129 $222 forward 7 unknown #
loop $-1 $-1 $136 $80 #
plane-surface $-1 -36.134884820172992 -32.025365790675465 3.7447942614907817 0 -0.62932039886446345 0.77714595512881146 1 0 0 forward_v I I I I #
loop $-1 $-1 $223 $52 #
coedge $-1 $134 $134 $135 $224 reversed $81 $-1 #
coedge $-1 $135 $135 $134 $224 forward $83 $-1 #
coedge $-1 $136 $136 $84 $137 forward $131 $-1 #
edge $-1 $225 0 $225 6.2831853071796004 $136 $226 forward 7 unknown #
face $-1 $227 $228 $29 $-1 $229 reversed single #
loop $-1 $-1 $230 $85 #
plane-surface $-1 -25.602510079687811 59.535196143850733 133.28298736913848 -1 0 0 0 0.6560590369687036 0.75470957328743171 forward_v I I I I #
coedge $-1 $231 $232 $233 $234 reversed $86 $-1 #
coedge $-1 $143 $88 $235 $236 reversed $56 $-1 #
coedge $-1 $88 $142 $231 $237 reversed $56 $-1 #
coedge $-1 $233 $238 $88 $145 forward $239 $-1 #
edge $-1 $240 -2.257767718750106 $241 6.7425979790009585 $144 $242 forward 7 unknown #
loop $-1 $-1 $151 $89 #
plane-surface $-1 -33.71323597355731 -16.314334509833735 46.028085465508511 0 0.6560590369687036 0.75470957328743171 1 0 0 forward_v I I I I #
loop $-1 $-1 $243 $58 #
coedge $-1 $149 $149 $150 $244 reversed $90 $-1 #
coedge $-1 $150 $150 $149 $244 forward $92 $-1 #
coedge $-1 $151 $151 $93 $152 forward $146 $-1 #
edge $-1 $245 1.1825674091625279e-016 $245 6.2831853071796004 $151 $246 forward 7 unknown #
loop $-1 $-1 $158 $94 #
plane-surface $-1 -33.71323597355731 -16.314334509833735 46.028085465508511 0 0.6560590369687036 0.75470957328743171 1 0 0 forward_v I I I I #
loop $-1 $-1 $247 $61 #
coedge $-1 $156 $156 $157 $248 reversed $95 $-1 #
coedge $-1 $157 $157 $156 $248 forward $97 $-1 #
coedge $-1 $158 $158 $98 $159 forward $153 $-1 #
edge $-1 $249 1.1825674091625279e-016 $249 6.2831853071796004 $158 $250 forward 7 unknown #
face $-1 $251 $252 $24 $-1 $253 reversed single #
loop $-1 $-1 $254 $99 #
plane-surface $-1 -57.80693990905484 0 0 1 0 0 0 0 -1 forward_v I I I I #
coedge $-1 $255 $171 $256 $257 forward $100 $-1 #
coedge $-1 $258 $102 $255 $259 forward $65 $-1 #
coedge $-1 $102 $258 $260 $261 forward $65 $-1 #
coedge $-1 $174 $173 $102 $167 reversed $175 $-1 #
edge $-1 $262 -32.025365790675473 $263 32.025365790675473 $166 $264 forward 7 unknown #
coedge $-1 $104 $103 $265 $266 forward $41 $-1 #
coedge $-1 $267 $268 $103 $170 reversed $252 $-1 #
edge $-1 $177 -57.80693990905484 $269 57.80693990905484 $169 $270 forward 7 unknown #
coedge $-1 $163 $271 $104 $172 reversed $100 $-1 #
edge $-1 $272 -57.80693990905484 $176 57.80693990905484 $171 $273 forward 7 unknown #
coedge $-1 $166 $105 $271 $274 forward $175 $-1 #
coedge $-1 $105 $166 $267 $275 reversed $175 $-1 #
loop $-1 $-1 $173 $251 #
vertex $-1 $106 $276 #
vertex $-1 $106 $277 #
straight-curve $-1 57.80693990905484 0 11.83092289069941 0 1 0 I I #
face $-1 $278 $279 $25 $-1 $280 reversed single #
loop $-1 $-1 $281 $107 #
plane-surface $-1 -63.005595534914853 0 1.9056464024965818 0 0 1 1 0 0 forward_v I I I I #
coedge $-1 $282 $110 $283 $284 reversed $69 $-1 #
coedge $-1 $110 $282 $188 $285 reversed $69 $-1 #
edge $-1 $190 -8.6697121775075559 $286 -1.9056464024965818 $110 $287 forward 7 unknown #
coedge $-1 $112 $111 $281 $288 forward $44 $-1 #
coedge $-1 $289 $290 $111 $187 forward $291 $-1 #
edge $-1 $292 1.9056464024965818 $191 8.6697121775075559 $186 $293 forward 7 unknown #
coedge $-1 $294 $113 $183 $285 forward $108 $-1 #
coedge $-1 $113 $294 $289 $295 forward $108 $-1 #
vertex $-1 $184 $296 #
vertex $-1 $295 $297 #
straight-curve $-1 -57.80693990905484 0 8.6697121775075559 0 -1 0 I I #
face $-1 $298 $299 $26 $-1 $300 reversed single #
loop $-1 $-1 $301 $115 #
plane-surface $-1 63.005595534914853 0 1.9056464024965818 0 0 1 1 0 0 forward_v I I I I #
coedge $-1 $204 $203 $302 $303 forward $116 $-1 #
coedge $-1 $304 $118 $305 $306 reversed $73 $-1 #
coedge $-1 $118 $304 $203 $307 reversed $73 $-1 #
edge $-1 $205 -8.6697121775075559 $308 -1.9056464024965818 $118 $309 forward 7 unknown #
coedge $-1 $120 $119 $310 $311 forward $47 $-1 #
coedge $-1 $312 $313 $119 $202 forward $314 $-1 #
edge $-1 $315 1.9056464024965818 $206 8.6697121775075559 $201 $316 forward 7 unknown #
coedge $-1 $196 $121 $198 $307 forward $116 $-1 #
coedge $-1 $121 $196 $312 $317 forward $116 $-1 #
vertex $-1 $199 $318 #
vertex $-1 $317 $319 #
straight-curve $-1 57.80693990905484 0 8.6697121775075559 0 1 0 I I #
face $-1 $-1 $320 $27 $-1 $321 reversed single #
loop $-1 $-1 $129 $123 #
plane-surface $-1 0 0 11.83092289069941 0 0 1 1 0 0 forward_v I I I I #
coedge $-1 $322 $323 $324 $325 reversed $124 $-1 #
coedge $-1 $326 $126 $128 $218 forward $77 $-1 #
coedge $-1 $126 $326 $322 $327 forward $77 $-1 #
coedge $-1 $324 $129 $126 $215 forward $209 $-1 #
edge $-1 $221 6.7926985729246745 $328 29.342186247248318 $214 $329 forward 7 unknown #
coedge $-1 $330 $331 $127 $217 forward $320 $-1 #
edge $-1 $332 -43.052032397950846 $220 -34.965903768742209 $216 $333 forward 7 unknown #
edge $-1 $221 -12.848985419508285 $332 9.1551213131864128e-015 $128 $334 forward 7 unknown #
coedge $-1 $129 $324 $330 $335 forward $209 $-1 #
vertex $-1 $217 $336 #
vertex $-1 $130 $337 #
straight-curve $-1 -24.860140983011171 -52.391769376038198 11.830922890699412 0 1 0 I I #
coedge $-1 $223 $223 $-1 $338 reversed $133 $-1 #
edge $-1 $339 0 $339 6.2831853071796004 $134 $340 forward 7 unknown #
vertex $-1 $137 $341 #
ellipse-curve $-1 -36.134884820172992 -27.0325972675355 7.7878585760950934 0 -0.62932039886446345 0.77714595512881146 3 0 0 1 I I #
face $-1 $-1 $239 $29 $-1 $342 forward single #
loop $-1 $-1 $343 $138 #
plane-surface $-1 0 32.025365790675473 0 0 -1 0 0 0 -1 forward_v I I I I #
coedge $-1 $344 $345 $346 $347 reversed $139 $-1 #
coedge $-1 $348 $141 $143 $237 forward $86 $-1 #
coedge $-1 $141 $348 $344 $349 forward $86 $-1 #
coedge $-1 $346 $144 $141 $234 forward $239 $-1 #
edge $-1 $241 -24.967343880648155 $350 -8.7458920929091555 $233 $351 forward 7 unknown #
coedge $-1 $352 $353 $142 $236 forward $228 $-1 #
edge $-1 $354 -62.634469497462767 $240 -54.810570793869829 $235 $355 forward 7 unknown #
edge $-1 $241 52.125129977350539 $354 64.050731581350959 $143 $356 forward 7 unknown #
coedge $-1 $144 $346 $352 $357 forward $239 $-1 #
loop $-1 $-1 $346 $227 #
vertex $-1 $236 $358 #
vertex $-1 $145 $359 #
straight-curve $-1 -41.82396186742681 29.767598071925367 11.830922890699412 0 -1 0 I I #
coedge $-1 $243 $243 $-1 $360 reversed $148 $-1 #
edge $-1 $361 0 $361 6.2831853071796004 $149 $362 forward 7 unknown #
vertex $-1 $152 $363 #
ellipse-curve $-1 -37.189261356644238 27.52518294179994 7.9189735389029394 0 0.6560590369687036 0.75470957328743171 2 0 0 1 I I #
coedge $-1 $247 $247 $-1 $364 reversed $155 $-1 #
edge $-1 $365 0 $365 6.2831853071796004 $156 $366 forward 7 unknown #
vertex $-1 $159 $367 #
ellipse-curve $-1 -30.237210590470383 27.52518294179994 7.9189735389029394 0 0.6560590369687036 0.75470957328743171 2 0 0 1 I I #
face $-1 $-1 $175 $24 $-1 $368 reversed single #
loop $-1 $-1 $267 $160 #
plane-surface $-1 0 32.025365790675473 0 0 -1 0 0 0 -1 forward_v I I I I #
coedge $-1 $369 $265 $268 $370 forward $161 $-1 #
coedge $-1 $271 $163 $164 $259 reversed $100 $-1 #
coedge $-1 $265 $369 $163 $257 reversed $161 $-1 #
edge $-1 $272 -11.83092289069941 $371 11.83092289069941 $256 $372 forward 7 unknown #
coedge $-1 $165 $164 $369 $373 forward $65 $-1 #
edge $-1 $263 -57.80693990905484 $371 57.80693990905484 $255 $374 forward 7 unknown #
coedge $-1 $268 $267 $165 $261 reversed $252 $-1 #
edge $-1 $375 -57.80693990905484 $262 57.80693990905484 $260 $376 forward 7 unknown #
vertex $-1 $167 $377 #
vertex $-1 $274 $378 #
straight-curve $-1 57.80693990905484 0 -11.83092289069941 0 -1 0 I I #
coedge $-1 $254 $256 $168 $266 reversed $161 $-1 #
edge $-1 $269 -32.025365790675473 $272 32.025365790675473 $265 $379 forward 7 unknown #
coedge $-1 $260 $169 $174 $275 forward $252 $-1 #
coedge $-1 $169 $260 $254 $370 reversed $252 $-1 #
vertex $-1 $170 $380 #
straight-curve $-1 0 32.025365790675473 11.83092289069941 -1 0 0 I I #
coedge $-1 $171 $255 $173 $274 reversed $100 $-1 #
vertex $-1 $266 $381 #
straight-curve $-1 0 -32.025365790675473 11.83092289069941 1 0 0 I I #
edge $-1 $176 -11.83092289069941 $263 11.83092289069941 $173 $382 forward 7 unknown #
edge $-1 $177 -11.83092289069941 $262 11.83092289069941 $174 $383 forward 7 unknown #
point $-1 57.80693990905484 -32.025365790675473 11.83092289069941 #
point $-1 57.80693990905484 32.025365790675473 11.83092289069941 #
face $-1 $-1 $291 $25 $-1 $384 reversed single #
loop $-1 $-1 $385 $179 #
plane-surface $-1 -68.204251160774859 0 5.2876792900020693 1 0 0 0 0 -1 forward_v I I I I #
coedge $-1 $386 $283 $185 $288 reversed $180 $-1 #
coedge $-1 $183 $182 $385 $387 reversed $69 $-1 #
coedge $-1 $281 $388 $182 $284 forward $180 $-1 #
edge $-1 $389 -5.1986556258600061 $286 5.1986556258600132 $182 $390 forward 7 unknown #
edge $-1 $190 -5.1986556258600132 $391 5.1986556258600061 $183 $392 forward 7 unknown #
vertex $-1 $184 $393 #
straight-curve $-1 -57.80693990905484 32.025365790675473 0 0 0 -1 I I #
edge $-1 $292 -32.025365790675473 $286 32.025365790675473 $281 $394 forward 7 unknown #
coedge $-1 $395 $186 $189 $295 reversed $291 $-1 #
coedge $-1 $186 $395 $386 $396 reversed $291 $-1 #
loop $-1 $-1 $186 $278 #
vertex $-1 $187 $397 #
straight-curve $-1 -57.80693990905484 -32.025365790675473 0 0 0 1 I I #
coedge $-1 $189 $188 $398 $399 forward $108 $-1 #
edge $-1 $400 -5.1986556258600061 $191 5.1986556258600132 $289 $401 forward 7 unknown #
point $-1 -57.80693990905484 32.025365790675473 8.6697121775075559 #
point $-1 -57.80693990905484 -32.025365790675473 8.6697121775075559 #
face $-1 $-1 $314 $26 $-1 $402 reversed single #
loop $-1 $-1 $403 $193 #
plane-surface $-1 68.204251160774874 0 5.2876792900020693 -1 0 0 0 0 1 forward_v I I I I #
coedge $-1 $305 $404 $405 $406 forward $194 $-1 #
coedge $-1 $403 $407 $196 $303 reversed $299 $-1 #
edge $-1 $408 -32.025365790675473 $409 32.025365790675473 $302 $410 forward 7 unknown #
coedge $-1 $198 $197 $403 $411 reversed $73 $-1 #
coedge $-1 $310 $301 $197 $306 forward $194 $-1 #
edge $-1 $412 -5.1986556258600203 $308 5.1986556258600132 $197 $413 forward 7 unknown #
edge $-1 $205 -5.1986556258600132 $408 5.1986556258600203 $198 $414 forward 7 unknown #
vertex $-1 $199 $415 #
straight-curve $-1 57.80693990905484 -32.025365790675473 0 0 0 -1 I I #
coedge $-1 $404 $305 $200 $311 reversed $194 $-1 #
edge $-1 $315 -32.025365790675473 $308 32.025365790675473 $310 $416 forward 7 unknown #
coedge $-1 $417 $201 $204 $317 reversed $314 $-1 #
coedge $-1 $201 $417 $404 $418 reversed $314 $-1 #
loop $-1 $-1 $201 $298 #
vertex $-1 $202 $419 #
straight-curve $-1 57.80693990905484 32.025365790675473 0 0 0 1 I I #
edge $-1 $409 -5.1986556258600203 $206 5.1986556258600132 $312 $420 forward 7 unknown #
point $-1 57.80693990905484 -32.025365790675473 8.6697121775075559 #
point $-1 57.80693990905484 32.025365790675473 8.6697121775075559 #
loop $-1 $-1 $216 $208 #
plane-surface $-1 0 -32.025365790675473 0 0 1 0 0 0 1 forward_v I I I I #
coedge $-1 $323 $211 $213 $327 reversed $124 $-1 #
coedge $-1 $211 $322 $421 $422 reversed $124 $-1 #
coedge $-1 $219 $214 $211 $325 forward $209 $-1 #
edge $-1 $328 -30.35194063164267 $423 -20.366403585362725 $324 $424 forward 7 unknown #
coedge $-1 $213 $212 $331 $425 reversed $77 $-1 #
edge $-1 $426 -9.1551213131864128e-015 $328 12.848985419508285 $322 $427 forward 7 unknown #
vertex $-1 $215 $428 #
straight-curve $-1 -18.067442410086496 -22.039828744395532 11.83092289069941 -1 0 0 I I #
coedge $-1 $421 $216 $219 $335 reversed $320 $-1 #
coedge $-1 $216 $421 $326 $425 forward $320 $-1 #
vertex $-1 $217 $429 #
straight-curve $-1 -24.860140983011171 -32.025365790675473 46.796826659441621 0 0 1 I I #
straight-curve $-1 -24.860140983011171 -32.025365790675465 3.7447942614907817 0 -0.77714595512881146 -0.62932039886446345 I I #
edge $-1 $423 -47.409628657334814 $220 -24.860140983011171 $330 $430 forward 7 unknown #
point $-1 -24.860140983011171 -32.025365790675473 11.83092289069941 #
point $-1 -24.860140983011171 -22.039828744395528 11.83092289069941 #
edge $-1 $431 1 $431 0 $223 $-1 forward 7 unknown #
vertex $-1 $224 $432 #
ellipse-curve $-1 -36.134884820172992 -20.815698401260583 0.11062800151301766 0 -0.62932039886446345 0.77714595512881146 3 0 0 1 I I #
point $-1 -33.134884820172992 -27.0325972675355 7.7878585760950934 #
plane-surface $-1 0 0 11.83092289069941 0 0 1 1 0 0 forward_v I I I I #
coedge $-1 $353 $352 $345 $433 forward $228 $-1 #
coedge $-1 $345 $230 $232 $349 reversed $139 $-1 #
coedge $-1 $230 $344 $343 $433 reversed $139 $-1 #
coedge $-1 $238 $233 $230 $347 forward $239 $-1 #
edge $-1 $350 -6.7425979790009585 $434 2.257767718750106 $346 $435 forward 7 unknown #
coedge $-1 $232 $231 $353 $436 reversed $86 $-1 #
edge $-1 $437 -64.050731581350959 $350 -52.125129977350539 $344 $438 forward 7 unknown #
vertex $-1 $234 $439 #
straight-curve $-1 -16.856617986778655 23.025000092924408 11.830922890699416 1 0 0 I I #
coedge $-1 $343 $235 $238 $357 reversed $228 $-1 #
coedge $-1 $235 $343 $348 $436 forward $228 $-1 #
vertex $-1 $236 $440 #
straight-curve $-1 -41.82396186742681 32.025365790675473 66.641493684569241 0 0 1 I I #
straight-curve $-1 -41.82396186742681 -16.314334509833735 46.028085465508511 0 0.75470957328743171 -0.6560590369687036 I I #
edge $-1 $434 25.602510079687811 $240 41.82396186742681 $352 $441 forward 7 unknown #
point $-1 -41.82396186742681 32.025365790675473 11.83092289069941 #
point $-1 -41.82396186742681 23.025000092924408 11.830922890699412 #
edge $-1 $442 1 $442 0 $243 $-1 forward 7 unknown #
vertex $-1 $244 $443 #
ellipse-curve $-1 -37.189261356644238 26.072871216418871 6.2482800482575751 0 0.6560590369687036 0.75470957328743171 2 0 0 1 I I #
point $-1 -35.189261356644238 27.525182941799955 7.9189735389029554 #
edge $-1 $444 1 $444 0 $247 $-1 forward 7 unknown #
vertex $-1 $248 $445 #
ellipse-curve $-1 -30.237210590470383 26.072871216418871 6.2482800482575751 0 0.6560590369687036 0.75470957328743171 2 0 0 1 I I #
point $-1 -28.237210590470383 27.525182941799955 7.9189735389029554 #
plane-surface $-1 57.80693990905484 0 0 -1 0 0 0 0 1 forward_v I I I I #
coedge $-1 $256 $254 $258 $373 reversed $161 $-1 #
edge $-1 $269 -11.83092289069941 $375 11.83092289069941 $268 $446 forward 7 unknown #
vertex $-1 $373 $447 #
straight-curve $-1 -57.80693990905484 -32.025365790675473 0 0 0 -1 I I #
edge $-1 $371 -32.025365790675473 $375 32.025365790675473 $369 $448 forward 7 unknown #
straight-curve $-1 0 -32.025365790675473 -11.83092289069941 -1 0 0 I I #
vertex $-1 $261 $449 #
straight-curve $-1 0 32.025365790675473 -11.83092289069941 1 0 0 I I #
point $-1 57.80693990905484 32.025365790675473 -11.83092289069941 #
point $-1 57.80693990905484 -32.025365790675473 -11.83092289069941 #
straight-curve $-1 -57.80693990905484 0 11.83092289069941 0 -1 0 I I #
point $-1 -57.80693990905484 32.025365790675473 11.83092289069941 #
point $-1 -57.80693990905484 -32.025365790675473 11.83092289069941 #
straight-curve $-1 57.80693990905484 -32.025365790675473 0 0 0 -1 I I #
straight-curve $-1 57.80693990905484 32.025365790675473 0 0 0 -1 I I #
plane-surface $-1 0 -32.025365790675473 0 0 1 0 0 0 1 forward_v I I I I #
coedge $-1 $450 $398 $282 $387 forward $279 $-1 #
coedge $-1 $388 $281 $290 $396 forward $180 $-1 #
edge $-1 $391 -3.3820328875054866 $389 3.3820328875054875 $282 $451 forward 7 unknown #
coedge $-1 $283 $386 $450 $452 forward $180 $-1 #
vertex $-1 $284 $453 #
straight-curve $-1 -63.005595534914853 32.025365790675473 1.9056464024965818 1 0 0 I I #
vertex $-1 $285 $454 #
straight-curve $-1 -63.005595534914853 32.025365790675473 8.6697121775075559 -1 0 0 I I #
point $-1 -57.80693990905484 32.025365790675473 1.9056464024965818 #
straight-curve $-1 -57.80693990905484 0 1.9056464024965818 0 1 0 I I #
coedge $-1 $290 $289 $455 $456 forward $291 $-1 #
edge $-1 $292 -5.1986556258600132 $457 5.1986556258600061 $290 $458 forward 7 unknown #
point $-1 -57.80693990905484 -32.025365790675473 1.9056464024965818 #
coedge $-1 $385 $455 $294 $399 reversed $279 $-1 #
edge $-1 $391 -32.025365790675473 $400 32.025365790675473 $398 $459 forward 7 unknown #
vertex $-1 $399 $460 #
straight-curve $-1 -63.005595534914853 -32.025365790675473 8.6697121775075559 1 0 0 I I #
plane-surface $-1 0 32.025365790675473 0 0 -1 0 0 0 -1 forward_v I I I I #
coedge $-1 $405 $302 $304 $411 forward $299 $-1 #
coedge $-1 $301 $310 $313 $418 forward $194 $-1 #
coedge $-1 $407 $403 $301 $406 reversed $299 $-1 #
edge $-1 $461 -32.025365790675473 $412 32.025365790675473 $405 $462 forward 7 unknown #
coedge $-1 $302 $405 $417 $463 reversed $299 $-1 #
vertex $-1 $303 $464 #
vertex $-1 $303 $465 #
straight-curve $-1 68.204251160774874 0 8.6697121775075559 0 1 0 I I #
edge $-1 $408 -3.3820328875054866 $412 3.3820328875054875 $403 $466 forward 7 unknown #
vertex $-1 $411 $467 #
straight-curve $-1 63.005595534914853 -32.025365790675473 1.9056464024965818 -1 0 0 I I #
straight-curve $-1 63.005595534914853 -32.025365790675473 8.6697121775075559 1 0 0 I I #
point $-1 57.80693990905484 -32.025365790675473 1.9056464024965818 #
straight-curve $-1 57.80693990905484 0 1.9056464024965818 0 -1 0 I I #
coedge $-1 $313 $312 $407 $463 forward $314 $-1 #
edge $-1 $315 -5.1986556258600132 $461 5.1986556258600203 $313 $468 forward 7 unknown #
point $-1 57.80693990905484 32.025365790675473 1.9056464024965818 #
straight-curve $-1 63.005595534914853 32.025365790675473 8.6697121775075559 -1 0 0 I I #
coedge $-1 $331 $330 $323 $422 forward $320 $-1 #
edge $-1 $423 34.965903768742209 $426 43.052032397950846 $421 $469 forward 7 unknown #
vertex $-1 $335 $470 #
straight-curve $-1 -47.409628657334814 -52.391769376038198 11.830922890699412 0 -1 0 I I #
edge $-1 $426 -29.342186247248318 $332 -6.7926985729246745 $331 $471 forward 7 unknown #
vertex $-1 $425 $472 #
straight-curve $-1 -47.409628657334814 -32.025365790675465 3.7447942614907817 0 0.77714595512881146 0.62932039886446345 I I #
point $-1 -47.409628657334814 -22.039828744395528 11.83092289069941 #
point $-1 -24.860140983011171 -32.025365790675473 3.7447942614907759 #
straight-curve $-1 0 -32.025365790675473 11.83092289069941 1 0 0 I I #
vertex $-1 $338 $473 #
point $-1 -33.134884820172992 -20.815698401260583 0.11062800151301766 #
edge $-1 $434 54.810570793869829 $437 62.634469497462767 $343 $474 forward 7 unknown #
vertex $-1 $357 $475 #
straight-curve $-1 -25.602510079687811 29.767598071925367 11.830922890699412 0 1 0 I I #
edge $-1 $437 8.7458920929091555 $354 24.967343880648155 $353 $476 forward 7 unknown #
vertex $-1 $436 $477 #
straight-curve $-1 -25.602510079687811 -16.314334509833735 46.028085465508511 0 -0.75470957328743171 0.6560590369687036 I I #
point $-1 -25.602510079687811 23.025000092924408 11.830922890699412 #
point $-1 -41.82396186742681 32.025365790675473 4.0070241871064738 #
straight-curve $-1 0 32.025365790675473 11.83092289069941 -1 0 0 I I #
vertex $-1 $360 $478 #
point $-1 -35.189261356644238 26.072871216418871 6.2482800482575751 #
vertex $-1 $364 $479 #
point $-1 -28.237210590470383 26.072871216418871 6.2482800482575751 #
straight-curve $-1 -57.80693990905484 32.025365790675473 0 0 0 -1 I I #
point $-1 -57.80693990905484 -32.025365790675473 -11.83092289069941 #
straight-curve $-1 -57.80693990905484 0 -11.83092289069941 0 1 0 I I #
point $-1 -57.80693990905484 32.025365790675473 -11.83092289069941 #
coedge $-1 $455 $385 $388 $452 reversed $279 $-1 #
straight-curve $-1 -68.204251160774859 32.025365790675473 5.2876792900020693 0 0 -1 I I #
edge $-1 $457 -32.025365790675473 $389 32.025365790675473 $450 $480 forward 7 unknown #
point $-1 -68.204251160774859 32.025365790675473 1.9056464024965818 #
point $-1 -68.204251160774859 32.025365790675473 8.6697121775075559 #
coedge $-1 $398 $450 $395 $456 reversed $279 $-1 #
edge $-1 $400 -3.3820328875054866 $457 3.3820328875054875 $455 $481 forward 7 unknown #
vertex $-1 $452 $482 #
straight-curve $-1 -63.005595534914853 -32.025365790675473 1.9056464024965818 -1 0 0 I I #
straight-curve $-1 -68.204251160774859 0 8.6697121775075559 0 -1 0 I I #
point $-1 -68.204251160774859 -32.025365790675473 8.6697121775075559 #
vertex $-1 $406 $483 #
straight-curve $-1 68.204251160774874 0 1.9056464024965818 0 -1 0 I I #
edge $-1 $409 -3.3820328875054866 $461 3.3820328875054875 $407 $484 forward 7 unknown #
point $-1 68.204251160774874 -32.025365790675473 8.6697121775075559 #
point $-1 68.204251160774874 32.025365790675473 8.6697121775075559 #
straight-curve $-1 68.204251160774874 -32.025365790675473 5.2876792900020693 0 0 -1 I I #
point $-1 68.204251160774874 -32.025365790675473 1.9056464024965818 #
straight-curve $-1 63.005595534914853 32.025365790675473 1.9056464024965818 1 0 0 I I #
straight-curve $-1 -47.409628657334814 -32.025365790675473 46.796826659441621 0 0 -1 I I #
point $-1 -47.409628657334814 -32.025365790675473 11.83092289069941 #
straight-curve $-1 -18.067442410086496 -32.025365790675473 3.7447942614907701 1 0 0 I I #
point $-1 -47.409628657334814 -32.025365790675473 3.7447942614907759 #
point $-1 -36.134884820172992 -18.927737204667196 -2.2208098638734164 #
straight-curve $-1 -25.602510079687811 32.025365790675473 66.641493684569241 0 0 -1 I I #
point $-1 -25.602510079687811 32.025365790675473 11.83092289069941 #
straight-curve $-1 -16.856617986778655 32.025365790675473 4.0070241871064702 -1 0 0 I I #
point $-1 -25.602510079687811 32.025365790675473 4.0070241871064738 #
point $-1 -37.189261356644238 24.760753142481466 4.7388609016827115 #
point $-1 -30.237210590470383 24.760753142481466 4.7388609016827115 #
straight-curve $-1 -68.204251160774859 0 1.9056464024965818 0 1 0 I I #
straight-curve $-1 -68.204251160774859 -32.025365790675473 5.2876792900020693 0 0 -1 I I #
point $-1 -68.204251160774859 -32.025365790675473 1.9056464024965818 #
point $-1 68.204251160774874 32.025365790675473 1.9056464024965818 #
straight-curve $-1 68.204251160774874 32.025365790675473 5.2876792900020693 0 0 -1 I I #
End-of-ACIS-data 