500 0 6 0           
7 Unknown 11 ACIS 5.0 NT 24 Fri Mar 26 16:40:48 1999 
-1 9.9999999999999995e-007 1e-010 
body $-1 $6 $-1 $7 #
body $-1 $8 $-1 $9 #
body $-1 $10 $-1 $11 #
body $-1 $12 $-1 $13 #
body $-1 $14 $-1 $15 #
body $-1 $16 $-1 $17 #
lump $-1 $-1 $18 $0 #
transform $-1 1 0 0 0 1 0 0 0 1 66.901455732902008 45.555752761901587 14.889489113402547 1 rotate no_reflect no_shear #
lump $-1 $-1 $19 $1 #
transform $-1 1 0 0 0 1 0 0 0 1 66.901455732902008 45.555752761901587 14.889489113402547 1 rotate no_reflect no_shear #
lump $-1 $-1 $20 $2 #
transform $-1 1 0 0 0 1 0 0 0 1 66.901455732902008 45.555752761901587 14.889489113402547 1 rotate no_reflect no_shear #
lump $-1 $-1 $21 $3 #
transform $-1 1 0 0 0 1 0 0 0 1 66.901455732902008 45.555752761901587 14.889489113402547 1 rotate no_reflect no_shear #
lump $-1 $-1 $22 $4 #
transform $-1 1 0 0 0 1 0 0 0 1 66.901455732902008 45.555752761901587 14.889489113402547 1 rotate no_reflect no_shear #
lump $-1 $-1 $23 $5 #
transform $-1 1 0 0 0 1 0 0 0 1 66.901455732902008 45.555752761901587 14.889489113402547 1 rotate no_reflect no_shear #
shell $-1 $-1 $-1 $24 $-1 $6 #
shell $-1 $-1 $-1 $25 $-1 $8 #
shell $-1 $-1 $-1 $26 $-1 $10 #
shell $-1 $-1 $-1 $27 $-1 $12 #
shell $-1 $-1 $-1 $28 $-1 $14 #
shell $-1 $-1 $-1 $29 $-1 $16 #
face $-1 $30 $31 $18 $-1 $32 forward single #
face $-1 $33 $34 $19 $-1 $35 forward single #
face $-1 $36 $37 $20 $-1 $38 reversed single #
face $-1 $39 $40 $21 $-1 $41 forward single #
face $-1 $42 $43 $22 $-1 $44 reversed single #
face $-1 $45 $46 $23 $-1 $47 forward single #
face $-1 $48 $49 $18 $-1 $50 reversed single #
loop $-1 $-1 $51 $24 #
plane-surface $-1 0 0 14.889489113402547 0 0 1 1 0 0 forward_v I I I I #
face $-1 $52 $53 $19 $-1 $54 reversed single #
loop $-1 $-1 $55 $25 #
plane-surface $-1 -60.341433195577046 0 12.6053592410858 0 0 1 1 0 0 forward_v I I I I #
face $-1 $56 $57 $20 $-1 $58 reversed single #
loop $-1 $-1 $59 $26 #
plane-surface $-1 37.300006268393432 -28.899895537778018 192.79033467421914 0 -1 0 -0.5877852598018023 0 -0.80901698891910034 forward_v I I I I #
face $-1 $60 $61 $21 $-1 $62 forward single #
loop $-1 $63 $64 $27 #
cone-surface $-1 59.997530584209422 -37.227824149839805 9.4098994209926978 -0.5877852598018023 0 -0.80901698891910034 1.2135254833786506 0 -0.88167788970270344 1 I I 0 1 1.5 forward I I I I #
face $-1 $65 $66 $22 $-1 $67 reversed single #
loop $-1 $-1 $68 $28 #
plane-surface $-1 37.300006268393432 -3.5527136788005009e-015 192.79033467421914 0 1 0 0.5877852598018023 0 0.80901698891910034 forward_v I I I I #
face $-1 $69 $70 $23 $-1 $71 forward single #
loop $-1 $72 $73 $29 #
cone-surface $-1 59.997530584209422 8.3279286120617826 9.4098994209926978 -0.5877852598018023 0 -0.80901698891910034 1.2135254833786506 0 -0.88167788970270344 1 I I 0 1 1.5 forward I I I I #
face $-1 $74 $75 $18 $-1 $76 reversed single #
loop $-1 $-1 $77 $30 #
plane-surface $-1 0 0 -14.889489113402547 0 0 1 1 0 0 forward_v I I I I #
coedge $-1 $78 $79 $80 $81 forward $31 $-1 #
face $-1 $82 $83 $19 $-1 $84 reversed single #
loop $-1 $-1 $85 $33 #
plane-surface $-1 -60.341433195577046 0 7.4299587677990502 0 0 1 1 0 0 forward_v I I I I #
coedge $-1 $86 $87 $88 $89 forward $34 $-1 #
face $-1 $90 $91 $20 $-1 $92 reversed single #
loop $-1 $-1 $93 $36 #
plane-surface $-1 -41.347372809771727 -37.227824149839805 84.541506131545404 0.5877852598018023 0 0.80901698891910034 0.80901698891910034 0 -0.5877852598018023 forward_v I I I I #
coedge $-1 $94 $95 $96 $97 reversed $37 $-1 #
face $-1 $-1 $98 $21 $-1 $99 forward single #
loop $-1 $100 $101 $39 #
cone-surface $-1 58.84329322358343 -37.227824149839805 7.8212280169046764 -0.5877852598018023 0 -0.80901698891910034 0.60676274168932531 0 -0.44083894485135172 1 I I -0.70710678118654757 0.70710678118654757 0.75 forward I I I I #
loop $-1 $-1 $102 $27 #
coedge $-1 $64 $64 $103 $104 reversed $40 $-1 #
face $-1 $105 $106 $22 $-1 $107 reversed single #
loop $-1 $-1 $108 $42 #
plane-surface $-1 -41.347372809771727 8.3279286120617826 84.541506131545404 0.5877852598018023 0 0.80901698891910034 0.80901698891910034 0 -0.5877852598018023 forward_v I I I I #
coedge $-1 $109 $110 $111 $112 reversed $43 $-1 #
face $-1 $-1 $113 $23 $-1 $114 forward single #
loop $-1 $115 $116 $45 #
cone-surface $-1 58.84329322358343 8.3279286120617826 7.8212280169046764 -0.5877852598018023 0 -0.80901698891910034 0.60676274168932531 0 -0.44083894485135172 1 I I -0.70710678118654757 0.70710678118654757 0.75 forward I I I I #
loop $-1 $-1 $117 $29 #
coedge $-1 $73 $73 $118 $119 reversed $46 $-1 #
face $-1 $120 $121 $18 $-1 $122 reversed single #
loop $-1 $-1 $123 $48 #
plane-surface $-1 0 -45.555752761901587 0 0 1 0 0 0 1 forward_v I I I I #
coedge $-1 $124 $125 $126 $127 forward $49 $-1 #
coedge $-1 $128 $51 $129 $130 forward $31 $-1 #
coedge $-1 $51 $128 $131 $132 forward $31 $-1 #
coedge $-1 $133 $134 $51 $81 reversed $135 $-1 #
edge $-1 $136 -45.555752761901587 $137 45.555752761901587 $80 $138 forward 7 unknown #
face $-1 $139 $140 $19 $-1 $141 reversed single #
loop $-1 $-1 $142 $52 #
plane-surface $-1 -53.781410658252085 0 10.017659004442425 -1 0 0 0 0 1 forward_v I I I I #
coedge $-1 $143 $144 $145 $146 forward $53 $-1 #
coedge $-1 $147 $55 $148 $149 reversed $34 $-1 #
coedge $-1 $55 $147 $150 $151 reversed $34 $-1 #
coedge $-1 $142 $152 $55 $89 reversed $83 $-1 #
edge $-1 $153 -45.555752761901587 $154 45.555752761901587 $88 $155 forward 7 unknown #
face $-1 $156 $157 $20 $-1 $158 forward single #
loop $-1 $-1 $159 $56 #
plane-surface $-1 0 -45.555752761901587 0 0 1 0 0 0 1 forward_v I I I I #
coedge $-1 $160 $161 $162 $163 reversed $57 $-1 #
coedge $-1 $95 $59 $164 $165 reversed $37 $-1 #
coedge $-1 $59 $94 $160 $166 reversed $37 $-1 #
coedge $-1 $162 $167 $59 $97 forward $157 $-1 #
edge $-1 $168 -48.251452598705292 $169 -35.870399132869387 $96 $170 forward 7 unknown #
loop $-1 $-1 $103 $60 #
plane-surface $-1 -41.347372809771727 -37.227824149839805 84.541506131545404 0.5877852598018023 0 0.80901698891910034 0.80901698891910034 0 -0.5877852598018023 forward_v I I I I #
loop $-1 $-1 $171 $39 #
coedge $-1 $101 $101 $102 $172 reversed $61 $-1 #
coedge $-1 $102 $102 $101 $172 forward $63 $-1 #
coedge $-1 $103 $103 $64 $104 forward $98 $-1 #
edge $-1 $173 0 $173 6.2831853071796004 $103 $174 forward 7 unknown #
face $-1 $175 $176 $22 $-1 $177 reversed single #
loop $-1 $-1 $178 $65 #
plane-surface $-1 37.300006268393432 16.655857224123569 192.79033467421914 0 -1 0 -0.5877852598018023 0 -0.80901698891910034 forward_v I I I I #
coedge $-1 $179 $180 $181 $182 reversed $66 $-1 #
coedge $-1 $110 $68 $183 $184 reversed $43 $-1 #
coedge $-1 $68 $109 $179 $185 reversed $43 $-1 #
coedge $-1 $181 $186 $68 $112 forward $176 $-1 #
edge $-1 $187 81.505678223707022 $188 90.501040283729324 $111 $189 forward 7 unknown #
loop $-1 $-1 $118 $69 #
plane-surface $-1 -41.347372809771727 8.3279286120617826 84.541506131545404 0.5877852598018023 0 0.80901698891910034 0.80901698891910034 0 -0.5877852598018023 forward_v I I I I #
loop $-1 $-1 $190 $45 #
coedge $-1 $116 $116 $117 $191 reversed $70 $-1 #
coedge $-1 $117 $117 $116 $191 forward $72 $-1 #
coedge $-1 $118 $118 $73 $119 forward $113 $-1 #
edge $-1 $192 0 $192 6.2831853071796004 $118 $193 forward 7 unknown #
face $-1 $194 $195 $18 $-1 $196 reversed single #
loop $-1 $-1 $197 $74 #
plane-surface $-1 -66.901455732902008 0 0 1 0 0 0 0 -1 forward_v I I I I #
coedge $-1 $198 $131 $199 $200 forward $75 $-1 #
coedge $-1 $201 $77 $198 $202 forward $49 $-1 #
coedge $-1 $77 $201 $203 $204 forward $49 $-1 #
coedge $-1 $134 $133 $77 $127 reversed $135 $-1 #
edge $-1 $205 -45.555752761901587 $206 45.555752761901587 $126 $207 forward 7 unknown #
coedge $-1 $79 $78 $208 $209 forward $31 $-1 #
coedge $-1 $210 $211 $78 $130 reversed $195 $-1 #
edge $-1 $137 -66.901455732902008 $212 66.901455732902008 $129 $213 forward 7 unknown #
coedge $-1 $123 $214 $79 $132 reversed $75 $-1 #
edge $-1 $215 -66.901455732902008 $136 66.901455732902008 $131 $216 forward 7 unknown #
coedge $-1 $126 $80 $214 $217 forward $135 $-1 #
coedge $-1 $80 $126 $210 $218 reversed $135 $-1 #
loop $-1 $-1 $133 $194 #
vertex $-1 $81 $219 #
vertex $-1 $81 $220 #
straight-curve $-1 66.901455732902008 0 14.889489113402547 0 1 0 I I #
face $-1 $221 $222 $19 $-1 $223 reversed single #
loop $-1 $-1 $224 $82 #
plane-surface $-1 0 -45.555752761901587 0 0 1 0 0 0 1 forward_v I I I I #
coedge $-1 $145 $88 $225 $226 reversed $83 $-1 #
coedge $-1 $227 $85 $224 $228 reversed $53 $-1 #
coedge $-1 $85 $227 $229 $230 reversed $53 $-1 #
coedge $-1 $152 $142 $85 $146 reversed $83 $-1 #
edge $-1 $231 -45.555752761901587 $232 45.555752761901587 $145 $233 forward 7 unknown #
coedge $-1 $87 $86 $234 $235 reversed $34 $-1 #
coedge $-1 $236 $237 $86 $149 forward $238 $-1 #
edge $-1 $239 -36.730739135113481 $154 -23.610694060463562 $148 $240 forward 7 unknown #
coedge $-1 $241 $225 $87 $151 forward $140 $-1 #
edge $-1 $153 23.610694060463562 $242 36.730739135113481 $150 $243 forward 7 unknown #
coedge $-1 $88 $145 $236 $244 reversed $83 $-1 #
vertex $-1 $151 $245 #
vertex $-1 $149 $246 #
straight-curve $-1 -53.781410658252085 0 12.6053592410858 0 1 0 I I #
face $-1 $-1 $247 $20 $-1 $248 reversed single #
loop $-1 $-1 $162 $90 #
plane-surface $-1 0 0 14.889489113402547 0 0 1 1 0 0 forward_v I I I I #
coedge $-1 $249 $250 $161 $251 forward $91 $-1 #
coedge $-1 $252 $93 $95 $166 forward $57 $-1 #
coedge $-1 $93 $252 $159 $251 reversed $57 $-1 #
coedge $-1 $253 $96 $93 $163 forward $157 $-1 #
edge $-1 $169 10.285983462858116 $254 26.941840686981685 $162 $255 forward 7 unknown #
coedge $-1 $256 $257 $94 $165 forward $247 $-1 #
edge $-1 $258 -90.501040283729324 $168 -81.505678223707022 $164 $259 forward 7 unknown #
edge $-1 $169 118.49908764576557 $258 133.80291146580402 $95 $260 forward 7 unknown #
coedge $-1 $96 $253 $256 $261 forward $157 $-1 #
vertex $-1 $165 $262 #
vertex $-1 $97 $263 #
straight-curve $-1 18.650003134196716 -28.899895537778018 14.889489113402547 -1 0 0 I I #
coedge $-1 $171 $171 $-1 $264 reversed $100 $-1 #
edge $-1 $265 0 $265 6.2831853071796004 $101 $266 forward 7 unknown #
vertex $-1 $104 $267 #
ellipse-curve $-1 60.710928999984056 -37.227824149839805 10.391808083391386 0.5877852598018023 0 0.80901698891910034 1.2135254833786506 0 -0.88167788970270344 1 I I #
face $-1 $-1 $268 $22 $-1 $269 forward single #
loop $-1 $-1 $111 $105 #
plane-surface $-1 66.901455732902008 0 0 -1 0 0 0 0 1 forward_v I I I I #
coedge $-1 $270 $271 $272 $273 reversed $106 $-1 #
coedge $-1 $274 $108 $110 $185 forward $66 $-1 #
coedge $-1 $108 $274 $270 $275 forward $66 $-1 #
coedge $-1 $272 $111 $108 $182 forward $176 $-1 #
edge $-1 $188 -4.1639643060308948 $276 12.491892918092677 $181 $277 forward 7 unknown #
coedge $-1 $278 $279 $109 $184 forward $268 $-1 #
edge $-1 $280 35.870399132869387 $187 48.251452598705292 $183 $281 forward 7 unknown #
edge $-1 $188 -133.80291146580402 $280 -118.49908764576557 $110 $282 forward 7 unknown #
coedge $-1 $111 $272 $278 $283 reversed $176 $-1 #
vertex $-1 $283 $284 #
vertex $-1 $112 $285 #
straight-curve $-1 66.901455732902008 -3.5527136788005009e-015 96.395167337109569 0 0 -1 I I #
coedge $-1 $190 $190 $-1 $286 reversed $115 $-1 #
edge $-1 $287 0 $287 6.2831853071796004 $116 $288 forward 7 unknown #
vertex $-1 $119 $289 #
ellipse-curve $-1 60.710928999984056 8.3279286120617826 10.391808083391386 0.5877852598018023 0 0.80901698891910034 1.2135254833786506 0 -0.88167788970270344 1 I I #
face $-1 $-1 $135 $18 $-1 $290 reversed single #
loop $-1 $-1 $210 $120 #
plane-surface $-1 0 45.555752761901587 0 0 -1 0 0 0 -1 forward_v I I I I #
coedge $-1 $291 $208 $211 $292 forward $121 $-1 #
coedge $-1 $214 $123 $124 $202 reversed $75 $-1 #
coedge $-1 $208 $291 $123 $200 reversed $121 $-1 #
edge $-1 $215 -14.889489113402547 $293 14.889489113402547 $199 $294 forward 7 unknown #
coedge $-1 $125 $124 $291 $295 forward $49 $-1 #
edge $-1 $206 -66.901455732902008 $293 66.901455732902008 $198 $296 forward 7 unknown #
coedge $-1 $211 $210 $125 $204 reversed $195 $-1 #
edge $-1 $297 -66.901455732902008 $205 66.901455732902008 $203 $298 forward 7 unknown #
vertex $-1 $127 $299 #
vertex $-1 $217 $300 #
straight-curve $-1 66.901455732902008 0 -14.889489113402547 0 -1 0 I I #
coedge $-1 $197 $199 $128 $209 reversed $121 $-1 #
edge $-1 $212 -45.555752761901587 $215 45.555752761901587 $208 $301 forward 7 unknown #
coedge $-1 $203 $129 $134 $218 forward $195 $-1 #
coedge $-1 $129 $203 $197 $292 reversed $195 $-1 #
vertex $-1 $130 $302 #
straight-curve $-1 0 45.555752761901587 14.889489113402547 -1 0 0 I I #
coedge $-1 $131 $198 $133 $217 reversed $75 $-1 #
vertex $-1 $209 $303 #
straight-curve $-1 0 -45.555752761901587 14.889489113402547 1 0 0 I I #
edge $-1 $136 -14.889489113402547 $206 14.889489113402547 $133 $304 forward 7 unknown #
edge $-1 $137 -14.889489113402547 $205 14.889489113402547 $134 $305 forward 7 unknown #
point $-1 66.901455732902008 -45.555752761901587 14.889489113402547 #
point $-1 66.901455732902008 45.555752761901587 14.889489113402547 #
face $-1 $-1 $238 $19 $-1 $306 reversed single #
loop $-1 $-1 $307 $139 #
plane-surface $-1 -66.901455732902008 0 0 1 0 0 0 0 -1 forward_v I I I I #
coedge $-1 $225 $241 $143 $228 forward $140 $-1 #
coedge $-1 $150 $224 $142 $226 forward $140 $-1 #
edge $-1 $232 2.4211292655778376 $153 7.5965297388645876 $225 $308 forward 7 unknown #
coedge $-1 $144 $143 $307 $309 reversed $53 $-1 #
edge $-1 $310 -36.730739135113481 $232 -23.610694060463562 $224 $311 forward 7 unknown #
coedge $-1 $237 $236 $144 $230 forward $238 $-1 #
edge $-1 $231 23.610694060463562 $312 36.730739135113481 $229 $313 forward 7 unknown #
vertex $-1 $230 $314 #
vertex $-1 $228 $315 #
straight-curve $-1 -53.781410658252085 0 7.4299587677990502 0 -1 0 I I #
coedge $-1 $316 $317 $147 $235 forward $222 $-1 #
edge $-1 $242 -45.555752761901587 $239 45.555752761901587 $234 $318 forward 7 unknown #
coedge $-1 $229 $148 $152 $244 forward $238 $-1 #
coedge $-1 $148 $229 $316 $319 reversed $238 $-1 #
loop $-1 $-1 $229 $221 #
vertex $-1 $319 $320 #
straight-curve $-1 -30.170716597788523 45.555752761901587 12.6053592410858 1 0 0 I I #
coedge $-1 $224 $150 $317 $321 forward $140 $-1 #
vertex $-1 $321 $322 #
straight-curve $-1 -30.170716597788523 -45.555752761901587 12.6053592410858 -1 0 0 I I #
edge $-1 $154 -7.5965297388645876 $231 -2.4211292655778376 $236 $323 forward 7 unknown #
point $-1 -53.781410658252085 -45.555752761901587 12.6053592410858 #
point $-1 -53.781410658252085 45.555752761901587 12.6053592410858 #
loop $-1 $-1 $164 $156 #
plane-surface $-1 66.901455732902008 0 0 -1 0 0 0 0 1 forward_v I I I I #
coedge $-1 $250 $159 $324 $325 reversed $91 $-1 #
coedge $-1 $159 $249 $253 $326 reversed $91 $-1 #
edge $-1 $254 76.927598547844013 $327 92.231422367882473 $159 $328 forward 7 unknown #
coedge $-1 $161 $160 $257 $329 reversed $57 $-1 #
coedge $-1 $167 $162 $250 $326 forward $157 $-1 #
vertex $-1 $326 $330 #
straight-curve $-1 54.520402267066103 -18.613912074919902 14.889489113402554 0 -1 0 I I #
coedge $-1 $324 $164 $167 $261 reversed $247 $-1 #
coedge $-1 $164 $324 $252 $329 forward $247 $-1 #
vertex $-1 $165 $331 #
straight-curve $-1 66.901455732902008 -28.899895537778018 96.395167337109569 0 0 1 I I #
straight-curve $-1 -41.347372809771727 -28.899895537778018 84.541506131545404 0.80901698891910034 0 -0.5877852598018023 I I #
edge $-1 $332 -45.555752761901587 $168 -28.899895537778018 $256 $333 forward 7 unknown #
point $-1 66.901455732902008 -28.899895537778018 14.889489113402547 #
point $-1 54.520402267066103 -28.899895537778018 14.889489113402547 #
edge $-1 $334 1 $334 0 $171 $-1 forward 7 unknown #
vertex $-1 $172 $335 #
ellipse-curve $-1 59.28413216843478 -37.227824149839805 8.4279907585940013 0.5877852598018023 0 0.80901698891910034 1.2135254833786506 0 -0.88167788970270344 1 I I #
point $-1 61.924454483362723 -37.227824149839805 9.5101301936886937 #
loop $-1 $-1 $183 $175 #
plane-surface $-1 0 0 14.889489113402547 0 0 1 1 0 0 forward_v I I I I #
coedge $-1 $271 $178 $180 $275 reversed $106 $-1 #
coedge $-1 $178 $270 $336 $337 reversed $106 $-1 #
coedge $-1 $186 $181 $178 $273 forward $176 $-1 #
edge $-1 $276 -90.501040283729324 $338 -81.505678223707022 $272 $339 forward 7 unknown #
coedge $-1 $180 $179 $279 $340 reversed $66 $-1 #
edge $-1 $341 118.49908764576557 $276 133.80291146580402 $270 $342 forward 7 unknown #
vertex $-1 $182 $343 #
straight-curve $-1 66.901455732902008 4.1639643060308913 5.8941270533802381 0 1 0 I I #
coedge $-1 $336 $183 $186 $283 forward $268 $-1 #
coedge $-1 $183 $336 $274 $340 forward $268 $-1 #
vertex $-1 $184 $344 #
straight-curve $-1 18.650003134196716 -3.5527136788005009e-015 14.889489113402547 1 0 0 I I #
straight-curve $-1 -41.347372809771727 -3.5527136788005009e-015 84.541506131545404 -0.80901698891910034 0 0.5877852598018023 I I #
edge $-1 $187 -3.5527136788005009e-015 $338 16.655857224123569 $186 $345 forward 7 unknown #
point $-1 66.901455732902008 -3.5527136788005009e-015 14.889489113402547 #
point $-1 66.901455732902008 -3.5527136788005009e-015 5.8941270533802452 #
edge $-1 $346 1 $346 0 $190 $-1 forward 7 unknown #
vertex $-1 $191 $347 #
ellipse-curve $-1 59.28413216843478 8.3279286120617826 8.4279907585940013 0.5877852598018023 0 0.80901698891910034 1.2135254833786506 0 -0.88167788970270344 1 I I #
point $-1 61.924454483362723 8.3279286120617826 9.5101301936886937 #
plane-surface $-1 66.901455732902008 0 0 -1 0 0 0 0 1 forward_v I I I I #
coedge $-1 $199 $197 $201 $295 reversed $121 $-1 #
edge $-1 $212 -14.889489113402547 $297 14.889489113402547 $211 $348 forward 7 unknown #
vertex $-1 $295 $349 #
straight-curve $-1 -66.901455732902008 -45.555752761901587 0 0 0 -1 I I #
edge $-1 $293 -45.555752761901587 $297 45.555752761901587 $291 $350 forward 7 unknown #
straight-curve $-1 0 -45.555752761901587 -14.889489113402547 -1 0 0 I I #
vertex $-1 $204 $351 #
straight-curve $-1 0 45.555752761901587 -14.889489113402547 1 0 0 I I #
point $-1 66.901455732902008 45.555752761901587 -14.889489113402547 #
point $-1 66.901455732902008 -45.555752761901587 -14.889489113402547 #
straight-curve $-1 -66.901455732902008 0 14.889489113402547 0 -1 0 I I #
point $-1 -66.901455732902008 45.555752761901587 14.889489113402547 #
point $-1 -66.901455732902008 -45.555752761901587 14.889489113402547 #
straight-curve $-1 66.901455732902008 -45.555752761901587 0 0 0 -1 I I #
straight-curve $-1 66.901455732902008 45.555752761901587 0 0 0 -1 I I #
plane-surface $-1 0 45.555752761901587 0 0 -1 0 0 0 -1 forward_v I I I I #
coedge $-1 $317 $316 $227 $309 forward $222 $-1 #
straight-curve $-1 -53.781410658252085 -45.555752761901587 5.0088295022212126 0 0 1 I I #
edge $-1 $312 -45.555752761901587 $310 45.555752761901587 $307 $352 forward 7 unknown #
vertex $-1 $228 $353 #
straight-curve $-1 -30.170716597788523 -45.555752761901587 7.4299587677990502 1 0 0 I I #
vertex $-1 $230 $354 #
straight-curve $-1 -30.170716597788523 45.555752761901587 7.4299587677990502 -1 0 0 I I #
point $-1 -53.781410658252085 45.555752761901587 7.4299587677990502 #
point $-1 -53.781410658252085 -45.555752761901587 7.4299587677990502 #
coedge $-1 $307 $234 $237 $319 forward $222 $-1 #
coedge $-1 $234 $307 $241 $321 reversed $222 $-1 #
straight-curve $-1 -66.901455732902008 0 12.6053592410858 0 1 0 I I #
edge $-1 $239 -12.6053592410858 $312 -7.4299587677990502 $237 $355 forward 7 unknown #
point $-1 -66.901455732902008 45.555752761901587 12.6053592410858 #
edge $-1 $242 -12.6053592410858 $310 -7.4299587677990502 $317 $356 forward 7 unknown #
point $-1 -66.901455732902008 -45.555752761901587 12.6053592410858 #
straight-curve $-1 -53.781410658252085 45.555752761901587 5.0088295022212126 0 0 -1 I I #
coedge $-1 $257 $256 $249 $325 forward $247 $-1 #
edge $-1 $332 -14.889489113402547 $327 -5.8941270533802363 $324 $357 forward 7 unknown #
edge $-1 $254 54.520402267066089 $332 66.901455732902008 $250 $358 forward 7 unknown #
vertex $-1 $251 $359 #
straight-curve $-1 -7.7153318748880348 -45.555752761901587 60.106397611775797 0.80901698891910034 0 -0.5877852598018023 I I #
edge $-1 $327 -26.941840686981685 $258 -10.285983462858116 $257 $360 forward 7 unknown #
point $-1 54.520402267066089 -45.555752761901587 14.889489113402547 #
point $-1 66.901455732902008 -28.899895537778018 5.8941270533802452 #
vertex $-1 $261 $361 #
straight-curve $-1 66.901455732902008 0 14.889489113402547 0 1 0 I I #
vertex $-1 $264 $362 #
point $-1 60.497657651813434 -37.227824149839805 7.5463128688912979 #
coedge $-1 $279 $278 $271 $337 forward $268 $-1 #
edge $-1 $338 -48.251452598705292 $341 -35.870399132869387 $336 $363 forward 7 unknown #
vertex $-1 $337 $364 #
straight-curve $-1 66.901455732902008 16.655857224123569 96.395167337109569 0 0 1 I I #
edge $-1 $341 -12.491892918092677 $280 4.1639643060308948 $279 $365 forward 7 unknown #
vertex $-1 $340 $366 #
straight-curve $-1 -41.347372809771727 16.655857224123569 84.541506131545404 0.80901698891910034 0 -0.5877852598018023 I I #
point $-1 66.901455732902008 16.655857224123569 5.8941270533802452 #
point $-1 54.520402267066103 -3.5527136788005009e-015 14.889489113402547 #
straight-curve $-1 66.901455732902008 0 14.889489113402547 0 1 0 I I #
vertex $-1 $286 $367 #
point $-1 60.497657651813434 8.3279286120617826 7.5463128688912979 #
straight-curve $-1 -66.901455732902008 45.555752761901587 0 0 0 -1 I I #
point $-1 -66.901455732902008 -45.555752761901587 -14.889489113402547 #
straight-curve $-1 -66.901455732902008 0 -14.889489113402547 0 1 0 I I #
point $-1 -66.901455732902008 45.555752761901587 -14.889489113402547 #
straight-curve $-1 -66.901455732902008 0 7.4299587677990502 0 -1 0 I I #
point $-1 -66.901455732902008 -45.555752761901587 7.4299587677990502 #
point $-1 -66.901455732902008 45.555752761901587 7.4299587677990502 #
straight-curve $-1 -66.901455732902008 45.555752761901587 0 0 0 -1 I I #
straight-curve $-1 -66.901455732902008 -45.555752761901587 0 0 0 -1 I I #
straight-curve $-1 66.901455732902008 -45.555752761901587 0 0 0 -1 I I #
straight-curve $-1 0 -45.555752761901587 14.889489113402547 1 0 0 I I #
point $-1 66.901455732902008 -45.555752761901587 5.8941270533802363 #
straight-curve $-1 66.901455732902008 -18.613912074919902 5.8941270533802381 0 1 0 I I #
point $-1 66.901455732902008 -45.555752761901587 14.889489113402547 #
point $-1 58.40245427873208 -37.227824149839805 7.2144652752153515 #
straight-curve $-1 18.650003134196716 16.655857224123569 14.889489113402547 -1 0 0 I I #
point $-1 66.901455732902008 16.655857224123569 14.889489113402547 #
straight-curve $-1 54.520402267066103 4.1639643060308913 14.889489113402554 0 -1 0 I I #
point $-1 54.520402267066103 16.655857224123569 14.889489113402547 #
point $-1 58.40245427873208 8.3279286120617826 7.2144652752153515 #
End-of-ACIS-data 