500 0 11 0           
7 Unknown 11 ACIS 5.0 NT 24 Thu Mar 25 21:45:59 1999 
-1 9.9999999999999995e-007 1e-010 
body $-1 $11 $-1 $12 #
body $-1 $13 $-1 $14 #
body $-1 $15 $-1 $16 #
body $-1 $17 $-1 $18 #
body $-1 $19 $-1 $20 #
body $-1 $21 $-1 $22 #
body $-1 $23 $-1 $24 #
body $-1 $25 $-1 $26 #
body $-1 $27 $-1 $28 #
body $-1 $29 $-1 $30 #
body $-1 $31 $-1 $32 #
lump $-1 $-1 $33 $0 #
transform $-1 1 0 0 0 1 0 0 0 1 42.72835474715415 20.153277681258359 6.3239849985188323 1 rotate no_reflect no_shear #
lump $-1 $-1 $34 $1 #
transform $-1 1 0 0 0 1 0 0 0 1 42.72835474715415 20.153277681258359 6.3239849985188323 1 rotate no_reflect no_shear #
lump $-1 $-1 $35 $2 #
transform $-1 1 0 0 0 1 0 0 0 1 42.72835474715415 20.153277681258359 6.3239849985188323 1 rotate no_reflect no_shear #
lump $-1 $-1 $36 $3 #
transform $-1 1 0 0 0 1 0 0 0 1 42.72835474715415 20.153277681258359 6.3239849985188323 1 rotate no_reflect no_shear #
lump $-1 $-1 $37 $4 #
transform $-1 1 0 0 0 1 0 0 0 1 42.72835474715415 20.153277681258359 6.3239849985188323 1 rotate no_reflect no_shear #
lump $-1 $-1 $38 $5 #
transform $-1 1 0 0 0 1 0 0 0 1 42.72835474715415 20.153277681258359 6.3239849985188323 1 rotate no_reflect no_shear #
lump $-1 $-1 $39 $6 #
transform $-1 1 0 0 0 1 0 0 0 1 42.72835474715415 20.153277681258359 6.3239849985188323 1 rotate no_reflect no_shear #
lump $-1 $-1 $40 $7 #
transform $-1 1 0 0 0 1 0 0 0 1 42.72835474715415 20.153277681258359 6.3239849985188323 1 rotate no_reflect no_shear #
lump $-1 $-1 $41 $8 #
transform $-1 1 0 0 0 1 0 0 0 1 42.72835474715415 20.153277681258359 6.3239849985188323 1 rotate no_reflect no_shear #
lump $-1 $-1 $42 $9 #
transform $-1 1 0 0 0 1 0 0 0 1 42.72835474715415 20.153277681258359 6.3239849985188323 1 rotate no_reflect no_shear #
lump $-1 $-1 $43 $10 #
transform $-1 1 0 0 0 1 0 0 0 1 42.72835474715415 20.153277681258359 6.3239849985188323 1 rotate no_reflect no_shear #
shell $-1 $-1 $-1 $44 $-1 $11 #
shell $-1 $-1 $-1 $45 $-1 $13 #
shell $-1 $-1 $-1 $46 $-1 $15 #
shell $-1 $-1 $-1 $47 $-1 $17 #
shell $-1 $-1 $-1 $48 $-1 $19 #
shell $-1 $-1 $-1 $49 $-1 $21 #
shell $-1 $-1 $-1 $50 $-1 $23 #
shell $-1 $-1 $-1 $51 $-1 $25 #
shell $-1 $-1 $-1 $52 $-1 $27 #
shell $-1 $-1 $-1 $53 $-1 $29 #
shell $-1 $-1 $-1 $54 $-1 $31 #
face $-1 $55 $56 $33 $-1 $57 forward single #
face $-1 $58 $59 $34 $-1 $60 forward single #
face $-1 $61 $62 $35 $-1 $63 reversed single #
face $-1 $64 $65 $36 $-1 $66 forward single #
face $-1 $67 $68 $37 $-1 $69 forward single #
face $-1 $70 $71 $38 $-1 $72 reversed single #
face $-1 $73 $74 $39 $-1 $75 forward single #
face $-1 $76 $77 $40 $-1 $78 forward single #
face $-1 $79 $80 $41 $-1 $81 reversed single #
face $-1 $82 $83 $42 $-1 $84 forward single #
face $-1 $85 $86 $43 $-1 $87 forward single #
face $-1 $88 $89 $33 $-1 $90 reversed single #
loop $-1 $-1 $91 $44 #
plane-surface $-1 0 0 6.3239849985188323 0 0 1 1 0 0 forward_v I I I I #
face $-1 $92 $93 $34 $-1 $94 reversed single #
loop $-1 $-1 $95 $45 #
plane-surface $-1 -42.72835474715415 0 0 1 0 0 0 0 -1 forward_v I I I I #
face $-1 $96 $97 $35 $-1 $98 reversed single #
loop $-1 $-1 $99 $46 #
plane-surface $-1 -17.773015378300578 53.62640500750301 89.513169965004636 1 0 0 0 -0.71933980857756763 -0.69465836192734942 forward_v I I I I #
face $-1 $100 $101 $36 $-1 $102 forward single #
loop $-1 $103 $104 $47 #
cone-surface $-1 -13.738745855237802 17.019920653220986 3.123854063276073 0 -0.71933980857756763 -0.69465836192734942 1.5 0 0 1 I I 0 1 1.5 forward I I I I #
face $-1 $105 $106 $37 $-1 $107 forward single #
loop $-1 $108 $109 $48 #
cone-surface $-1 -7.687341570643639 17.019920653220986 3.123854063276073 0 -0.71933980857756763 -0.69465836192734942 1.5 0 0 1 I I 0 1 1.5 forward I I I I #
face $-1 $110 $111 $38 $-1 $112 reversed single #
loop $-1 $-1 $113 $49 #
plane-surface $-1 10.93062064975526 53.62640500750301 89.513169965004636 1 0 0 0 -0.71933980857756763 -0.69465836192734942 forward_v I I I I #
face $-1 $114 $115 $39 $-1 $116 forward single #
loop $-1 $117 $118 $50 #
cone-surface $-1 14.964890172818038 17.019920653220986 3.123854063276073 0 -0.71933980857756763 -0.69465836192734942 1.5 0 0 1 I I 0 1 1.5 forward I I I I #
face $-1 $119 $120 $40 $-1 $121 forward single #
loop $-1 $122 $123 $51 #
cone-surface $-1 21.016294457412201 17.019920653220986 3.123854063276073 0 -0.71933980857756763 -0.69465836192734942 1.5 0 0 1 I I 0 1 1.5 forward I I I I #
face $-1 $124 $125 $41 $-1 $126 reversed single #
loop $-1 $-1 $127 $52 #
plane-surface $-1 -26.179392792803991 -87.494084436014134 55.163391763709889 -1 0 0 0 -0.78801076186113728 0.61566146476048833 forward_v I I I I #
face $-1 $128 $129 $42 $-1 $130 forward single #
loop $-1 $131 $132 $53 #
cone-surface $-1 -32.801830901500963 -17.830421147377749 3.7742045473759402 0 0.78801076186113728 -0.61566146476048833 1 0 0 1 I I 0 1 1 forward I I I I #
face $-1 $133 $134 $43 $-1 $135 forward single #
loop $-1 $136 $137 $54 #
cone-surface $-1 -28.828368036282782 -17.830421147377749 3.7742045473759402 0 0.78801076186113728 -0.61566146476048833 1 0 0 1 I I 0 1 1 forward I I I I #
face $-1 $138 $139 $33 $-1 $140 reversed single #
loop $-1 $-1 $141 $55 #
plane-surface $-1 0 0 -6.3239849985188323 0 0 1 1 0 0 forward_v I I I I #
coedge $-1 $142 $143 $144 $145 forward $56 $-1 #
face $-1 $146 $147 $34 $-1 $148 reversed single #
loop $-1 $-1 $149 $58 #
plane-surface $-1 0 0 -6.3239849985188323 0 0 1 1 0 0 forward_v I I I I #
coedge $-1 $150 $151 $152 $153 forward $59 $-1 #
face $-1 $154 $155 $35 $-1 $156 reversed single #
loop $-1 $-1 $157 $61 #
plane-surface $-1 -10.713043712940717 -7.8460080418015252 30.149952131987064 0 0.71933980857756763 0.69465836192734942 1 0 0 forward_v I I I I #
coedge $-1 $158 $159 $160 $161 reversed $62 $-1 #
face $-1 $-1 $162 $36 $-1 $163 forward single #
loop $-1 $164 $165 $64 #
cone-surface $-1 -13.738745855237802 15.842467398479762 1.9868006993006437 0 -0.71933980857756763 -0.69465836192734942 0.75 0 0 1 I I -0.70710678118654757 0.70710678118654757 0.75 forward I I I I #
loop $-1 $-1 $166 $47 #
coedge $-1 $104 $104 $167 $168 reversed $65 $-1 #
face $-1 $-1 $169 $37 $-1 $170 forward single #
loop $-1 $171 $172 $67 #
cone-surface $-1 -7.687341570643639 15.842467398479762 1.9868006993006437 0 -0.71933980857756763 -0.69465836192734942 0.75 0 0 1 I I -0.70710678118654757 0.70710678118654757 0.75 forward I I I I #
loop $-1 $-1 $173 $48 #
coedge $-1 $109 $109 $174 $175 reversed $68 $-1 #
face $-1 $176 $177 $38 $-1 $178 reversed single #
loop $-1 $-1 $179 $70 #
plane-surface $-1 17.990592315115123 -7.8460080418015252 30.149952131987064 0 0.71933980857756763 0.69465836192734942 1 0 0 forward_v I I I I #
coedge $-1 $180 $181 $182 $183 reversed $71 $-1 #
face $-1 $-1 $184 $39 $-1 $185 forward single #
loop $-1 $186 $187 $73 #
cone-surface $-1 14.964890172818038 15.842467398479762 1.9868006993006437 0 -0.71933980857756763 -0.69465836192734942 0.75 0 0 1 I I -0.70710678118654757 0.70710678118654757 0.75 forward I I I I #
loop $-1 $-1 $188 $50 #
coedge $-1 $118 $118 $189 $190 reversed $74 $-1 #
face $-1 $-1 $191 $40 $-1 $192 forward single #
loop $-1 $193 $194 $76 #
cone-surface $-1 21.016294457412201 15.842467398479762 1.9868006993006437 0 -0.71933980857756763 -0.69465836192734942 0.75 0 0 1 I I -0.70710678118654757 0.70710678118654757 0.75 forward I I I I #
loop $-1 $-1 $195 $51 #
coedge $-1 $123 $123 $196 $197 reversed $77 $-1 #
face $-1 $198 $199 $41 $-1 $200 reversed single #
loop $-1 $-1 $201 $79 #
plane-surface $-1 -30.815099468891873 -20.153277681258373 2.5509888228325082 0 -0.78801076186113728 0.61566146476048833 1 0 0 forward_v I I I I #
coedge $-1 $202 $203 $204 $205 reversed $80 $-1 #
face $-1 $-1 $206 $42 $-1 $207 forward single #
loop $-1 $208 $209 $82 #
cone-surface $-1 -32.801830901500963 -16.587453032298768 2.8030914516959617 0 0.78801076186113728 -0.61566146476048833 0.5 0 0 1 I I -0.70710678118654746 0.70710678118654746 0.5 forward I I I I #
loop $-1 $-1 $210 $53 #
coedge $-1 $132 $132 $211 $212 reversed $83 $-1 #
face $-1 $-1 $213 $43 $-1 $214 forward single #
loop $-1 $215 $216 $85 #
cone-surface $-1 -28.828368036282782 -16.587453032298768 2.8030914516959617 0 0.78801076186113728 -0.61566146476048833 0.5 0 0 1 I I -0.70710678118654746 0.70710678118654746 0.5 forward I I I I #
loop $-1 $-1 $217 $54 #
coedge $-1 $137 $137 $218 $219 reversed $86 $-1 #
face $-1 $220 $221 $33 $-1 $222 reversed single #
loop $-1 $-1 $223 $88 #
plane-surface $-1 0 -20.153277681258359 0 0 1 0 0 0 1 forward_v I I I I #
coedge $-1 $224 $225 $226 $227 forward $89 $-1 #
coedge $-1 $228 $91 $229 $230 forward $56 $-1 #
coedge $-1 $91 $228 $231 $232 forward $56 $-1 #
coedge $-1 $233 $234 $91 $145 reversed $235 $-1 #
edge $-1 $236 -20.153277681258359 $237 20.153277681258359 $144 $238 forward 7 unknown #
face $-1 $239 $240 $34 $-1 $241 reversed single #
loop $-1 $-1 $242 $92 #
plane-surface $-1 -46.367129048241345 -18.994023096191885 0 0 1 0 0 0 1 forward_v I I I I #
coedge $-1 $243 $244 $151 $245 forward $93 $-1 #
coedge $-1 $246 $95 $247 $248 reversed $59 $-1 #
coedge $-1 $95 $246 $149 $245 reversed $59 $-1 #
coedge $-1 $249 $250 $95 $153 reversed $251 $-1 #
edge $-1 $252 -6.3239849985188323 $253 6.3239849985188323 $152 $254 forward 7 unknown #
face $-1 $255 $256 $35 $-1 $257 forward single #
loop $-1 $-1 $258 $96 #
plane-surface $-1 -3.6530720475808547 53.62640500750301 89.513169965004636 -1 0 0 0 0.71933980857756763 0.69465836192734942 forward_v I I I I #
coedge $-1 $259 $260 $261 $262 reversed $97 $-1 #
coedge $-1 $159 $99 $263 $264 reversed $62 $-1 #
coedge $-1 $99 $158 $259 $265 reversed $62 $-1 #
coedge $-1 $261 $266 $99 $161 forward $256 $-1 #
edge $-1 $267 6.6599248224931458 $268 11.650742081951801 $160 $269 forward 7 unknown #
loop $-1 $-1 $167 $100 #
plane-surface $-1 -10.713043712940717 -7.8460080418015252 30.149952131987064 0 0.71933980857756763 0.69465836192734942 1 0 0 forward_v I I I I #
loop $-1 $-1 $270 $64 #
coedge $-1 $165 $165 $166 $271 reversed $101 $-1 #
coedge $-1 $166 $166 $165 $271 forward $103 $-1 #
coedge $-1 $167 $167 $104 $168 forward $162 $-1 #
edge $-1 $272 1.5450995605206164e-016 $272 6.2831853071796004 $167 $273 forward 7 unknown #
loop $-1 $-1 $174 $105 #
plane-surface $-1 -10.713043712940717 -7.8460080418015252 30.149952131987064 0 0.71933980857756763 0.69465836192734942 1 0 0 forward_v I I I I #
loop $-1 $-1 $274 $67 #
coedge $-1 $172 $172 $173 $275 reversed $106 $-1 #
coedge $-1 $173 $173 $172 $275 forward $108 $-1 #
coedge $-1 $174 $174 $109 $175 forward $169 $-1 #
edge $-1 $276 1.5450995605206164e-016 $276 6.2831853071796004 $174 $277 forward 7 unknown #
face $-1 $278 $279 $38 $-1 $280 forward single #
loop $-1 $-1 $281 $110 #
plane-surface $-1 25.050563980474983 53.62640500750301 89.513169965004636 -1 0 0 0 0.71933980857756763 0.69465836192734942 forward_v I I I I #
coedge $-1 $282 $283 $284 $285 reversed $111 $-1 #
coedge $-1 $181 $113 $286 $287 reversed $71 $-1 #
coedge $-1 $113 $180 $282 $288 reversed $71 $-1 #
coedge $-1 $284 $289 $113 $183 forward $279 $-1 #
edge $-1 $290 6.6599248224931458 $291 11.650742081951801 $182 $292 forward 7 unknown #
loop $-1 $-1 $189 $114 #
plane-surface $-1 17.990592315115123 -7.8460080418015252 30.149952131987064 0 0.71933980857756763 0.69465836192734942 1 0 0 forward_v I I I I #
loop $-1 $-1 $293 $73 #
coedge $-1 $187 $187 $188 $294 reversed $115 $-1 #
coedge $-1 $188 $188 $187 $294 forward $117 $-1 #
coedge $-1 $189 $189 $118 $190 forward $184 $-1 #
edge $-1 $295 1.5450995605206164e-016 $295 6.2831853071796004 $189 $296 forward 7 unknown #
loop $-1 $-1 $196 $119 #
plane-surface $-1 17.990592315115123 -7.8460080418015252 30.149952131987064 0 0.71933980857756763 0.69465836192734942 1 0 0 forward_v I I I I #
loop $-1 $-1 $297 $76 #
coedge $-1 $194 $194 $195 $298 reversed $120 $-1 #
coedge $-1 $195 $195 $194 $298 forward $122 $-1 #
coedge $-1 $196 $196 $123 $197 forward $191 $-1 #
edge $-1 $299 1.5450995605206164e-016 $299 6.2831853071796004 $196 $300 forward 7 unknown #
face $-1 $301 $302 $41 $-1 $303 forward single #
loop $-1 $-1 $304 $124 #
plane-surface $-1 -35.450806144979751 -87.494084436014134 55.163391763709889 1 0 0 0 0.78801076186113728 -0.61566146476048833 forward_v I I I I #
coedge $-1 $305 $306 $307 $308 reversed $125 $-1 #
coedge $-1 $203 $127 $309 $310 reversed $80 $-1 #
coedge $-1 $127 $202 $305 $311 reversed $80 $-1 #
coedge $-1 $307 $312 $127 $205 forward $302 $-1 #
edge $-1 $313 23.593764536748708 $314 26.541552136213106 $204 $315 forward 7 unknown #
loop $-1 $-1 $211 $128 #
plane-surface $-1 -30.815099468891873 -20.153277681258373 2.5509888228325082 0 -0.78801076186113728 0.61566146476048833 1 0 0 forward_v I I I I #
loop $-1 $-1 $316 $82 #
coedge $-1 $209 $209 $210 $317 reversed $129 $-1 #
coedge $-1 $210 $210 $209 $317 forward $131 $-1 #
coedge $-1 $211 $211 $132 $212 forward $206 $-1 #
edge $-1 $318 8.7506704884729591e-016 $318 6.2831853071796013 $211 $319 forward 7 unknown #
loop $-1 $-1 $218 $133 #
plane-surface $-1 -30.815099468891873 -20.153277681258373 2.5509888228325082 0 -0.78801076186113728 0.61566146476048833 1 0 0 forward_v I I I I #
loop $-1 $-1 $320 $85 #
coedge $-1 $216 $216 $217 $321 reversed $134 $-1 #
coedge $-1 $217 $217 $216 $321 forward $136 $-1 #
coedge $-1 $218 $218 $137 $219 forward $213 $-1 #
edge $-1 $322 8.7506704884729591e-016 $322 6.2831853071796013 $218 $323 forward 7 unknown #
face $-1 $324 $325 $33 $-1 $326 reversed single #
loop $-1 $-1 $327 $138 #
plane-surface $-1 -42.72835474715415 0 0 1 0 0 0 0 -1 forward_v I I I I #
coedge $-1 $328 $231 $329 $330 forward $139 $-1 #
coedge $-1 $331 $141 $328 $332 forward $89 $-1 #
coedge $-1 $141 $331 $333 $334 forward $89 $-1 #
coedge $-1 $234 $233 $141 $227 reversed $235 $-1 #
edge $-1 $335 -20.153277681258359 $336 20.153277681258359 $226 $337 forward 7 unknown #
coedge $-1 $143 $142 $338 $339 forward $56 $-1 #
coedge $-1 $340 $341 $142 $230 reversed $325 $-1 #
edge $-1 $237 -42.72835474715415 $342 42.72835474715415 $229 $343 forward 7 unknown #
coedge $-1 $223 $344 $143 $232 reversed $139 $-1 #
edge $-1 $345 -42.72835474715415 $236 42.72835474715415 $231 $346 forward 7 unknown #
coedge $-1 $226 $144 $344 $347 forward $235 $-1 #
coedge $-1 $144 $226 $340 $348 reversed $235 $-1 #
loop $-1 $-1 $233 $324 #
vertex $-1 $145 $349 #
vertex $-1 $145 $350 #
straight-curve $-1 42.72835474715415 0 6.3239849985188323 0 1 0 I I #
face $-1 $351 $251 $34 $-1 $352 reversed single #
loop $-1 $-1 $353 $146 #
plane-surface $-1 -50.005903349328541 -17.277667281185085 0 1 0 0 0 0 -1 forward_v I I I I #
coedge $-1 $354 $355 $356 $357 forward $147 $-1 #
coedge $-1 $358 $149 $354 $359 forward $93 $-1 #
coedge $-1 $149 $358 $249 $360 forward $93 $-1 #
edge $-1 $252 15.561311466178285 $361 18.994023096191885 $149 $362 forward 7 unknown #
coedge $-1 $151 $150 $363 $364 forward $59 $-1 #
coedge $-1 $365 $366 $150 $248 forward $367 $-1 #
edge $-1 $368 -18.994023096191885 $253 -15.561311466178285 $247 $369 forward 7 unknown #
coedge $-1 $370 $152 $244 $360 reversed $251 $-1 #
coedge $-1 $152 $370 $365 $371 reversed $251 $-1 #
loop $-1 $-1 $152 $239 #
vertex $-1 $245 $372 #
vertex $-1 $371 $373 #
straight-curve $-1 -42.72835474715415 -15.561311466178285 0 0 0 1 I I #
face $-1 $-1 $374 $35 $-1 $375 reversed single #
loop $-1 $-1 $160 $154 #
plane-surface $-1 0 0 6.3239849985188323 0 0 1 1 0 0 forward_v I I I I #
coedge $-1 $376 $377 $378 $379 reversed $155 $-1 #
coedge $-1 $380 $157 $159 $265 forward $97 $-1 #
coedge $-1 $157 $380 $376 $381 forward $97 $-1 #
coedge $-1 $378 $160 $157 $262 forward $256 $-1 #
edge $-1 $268 -12.416493521830219 $382 1.7034498088895038 $261 $383 forward 7 unknown #
coedge $-1 $384 $385 $158 $264 forward $374 $-1 #
edge $-1 $386 -43.600742669409158 $267 -38.432599983983486 $263 $387 forward 7 unknown #
edge $-1 $268 33.121991650346764 $386 40.306555362516718 $159 $388 forward 7 unknown #
coedge $-1 $160 $378 $384 $389 forward $256 $-1 #
vertex $-1 $264 $390 #
vertex $-1 $161 $391 #
straight-curve $-1 -17.773015378300578 26.813202503751505 6.3239849985188314 0 -1 0 I I #
coedge $-1 $270 $270 $-1 $392 reversed $164 $-1 #
edge $-1 $393 0 $393 6.2831853071796004 $165 $394 forward 7 unknown #
vertex $-1 $168 $395 #
ellipse-curve $-1 -13.738745855237802 17.65786905152903 3.7399136558059878 0 0.71933980857756763 0.69465836192734942 1.5 0 0 1 I I #
coedge $-1 $274 $274 $-1 $396 reversed $171 $-1 #
edge $-1 $397 0 $397 6.2831853071796004 $172 $398 forward 7 unknown #
vertex $-1 $175 $399 #
ellipse-curve $-1 -7.687341570643639 17.65786905152903 3.7399136558059878 0 0.71933980857756763 0.69465836192734942 1.5 0 0 1 I I #
face $-1 $-1 $400 $38 $-1 $401 reversed single #
loop $-1 $-1 $182 $176 #
plane-surface $-1 0 0 6.3239849985188323 0 0 1 1 0 0 forward_v I I I I #
coedge $-1 $402 $403 $404 $405 reversed $177 $-1 #
coedge $-1 $406 $179 $181 $288 forward $111 $-1 #
coedge $-1 $179 $406 $402 $407 forward $111 $-1 #
coedge $-1 $404 $182 $179 $285 forward $279 $-1 #
edge $-1 $291 1.9353244921976991 $408 16.055267822917422 $284 $409 forward 7 unknown #
coedge $-1 $410 $411 $180 $287 forward $400 $-1 #
edge $-1 $412 -43.600742669409158 $290 -38.432599983983486 $286 $413 forward 7 unknown #
edge $-1 $291 33.121991650346764 $412 40.306555362516718 $181 $414 forward 7 unknown #
coedge $-1 $182 $404 $410 $415 forward $279 $-1 #
vertex $-1 $183 $416 #
vertex $-1 $183 $417 #
straight-curve $-1 10.93062064975526 26.813202503751505 6.3239849985188314 0 -1 0 I I #
coedge $-1 $293 $293 $-1 $418 reversed $186 $-1 #
edge $-1 $419 0 $419 6.2831853071796004 $187 $420 forward 7 unknown #
vertex $-1 $190 $421 #
ellipse-curve $-1 14.964890172818038 17.65786905152903 3.7399136558059878 0 0.71933980857756763 0.69465836192734942 1.5 0 0 1 I I #
coedge $-1 $297 $297 $-1 $422 reversed $193 $-1 #
edge $-1 $423 0 $423 6.2831853071796004 $194 $424 forward 7 unknown #
vertex $-1 $197 $425 #
ellipse-curve $-1 21.016294457412201 17.65786905152903 3.7399136558059878 0 0.71933980857756763 0.69465836192734942 1.5 0 0 1 I I #
face $-1 $-1 $426 $41 $-1 $427 reversed single #
loop $-1 $-1 $204 $198 #
plane-surface $-1 0 0 6.3239849985188323 0 0 1 1 0 0 forward_v I I I I #
coedge $-1 $428 $429 $430 $431 reversed $199 $-1 #
coedge $-1 $432 $201 $203 $311 forward $125 $-1 #
coedge $-1 $201 $432 $428 $433 forward $125 $-1 #
coedge $-1 $430 $204 $201 $308 forward $302 $-1 #
edge $-1 $314 10.771843058358055 $434 20.043256410533814 $307 $435 forward 7 unknown #
coedge $-1 $436 $437 $202 $310 forward $426 $-1 #
edge $-1 $438 -25.030707059022419 $313 -21.257710883336113 $309 $439 forward 7 unknown #
edge $-1 $314 -4.788000822190801 $438 -2.3096905769578348e-014 $203 $440 forward 7 unknown #
coedge $-1 $204 $430 $436 $441 forward $302 $-1 #
vertex $-1 $205 $442 #
vertex $-1 $205 $443 #
straight-curve $-1 -26.179392792803991 -43.747042218007067 6.3239849985188314 0 1 0 I I #
coedge $-1 $316 $316 $-1 $444 reversed $208 $-1 #
edge $-1 $445 0 $445 6.2831853071796004 $209 $446 forward 7 unknown #
vertex $-1 $212 $447 #
ellipse-curve $-1 -32.801830901500963 -18.679383881526164 4.4374869106756778 0 -0.78801076186113728 0.61566146476048833 1 0 0 1 I I #
coedge $-1 $320 $320 $-1 $448 reversed $215 $-1 #
edge $-1 $449 0 $449 6.2831853071796004 $216 $450 forward 7 unknown #
vertex $-1 $219 $451 #
ellipse-curve $-1 -28.828368036282782 -18.679383881526164 4.4374869106756778 0 -0.78801076186113728 0.61566146476048833 1 0 0 1 I I #
face $-1 $-1 $235 $33 $-1 $452 reversed single #
loop $-1 $-1 $340 $220 #
plane-surface $-1 0 20.153277681258359 0 0 -1 0 0 0 -1 forward_v I I I I #
coedge $-1 $453 $338 $341 $454 forward $221 $-1 #
coedge $-1 $344 $223 $224 $332 reversed $139 $-1 #
coedge $-1 $338 $453 $223 $330 reversed $221 $-1 #
edge $-1 $345 -6.3239849985188323 $455 6.3239849985188323 $329 $456 forward 7 unknown #
coedge $-1 $225 $224 $453 $457 forward $89 $-1 #
edge $-1 $336 -42.72835474715415 $455 42.72835474715415 $328 $458 forward 7 unknown #
coedge $-1 $341 $340 $225 $334 reversed $325 $-1 #
edge $-1 $459 -42.72835474715415 $335 42.72835474715415 $333 $460 forward 7 unknown #
vertex $-1 $227 $461 #
vertex $-1 $347 $462 #
straight-curve $-1 42.72835474715415 0 -6.3239849985188323 0 -1 0 I I #
coedge $-1 $327 $329 $228 $339 reversed $221 $-1 #
edge $-1 $342 -20.153277681258359 $345 20.153277681258359 $338 $463 forward 7 unknown #
coedge $-1 $333 $229 $234 $348 forward $325 $-1 #
coedge $-1 $229 $333 $327 $454 reversed $325 $-1 #
vertex $-1 $230 $464 #
straight-curve $-1 0 20.153277681258359 6.3239849985188323 -1 0 0 I I #
coedge $-1 $231 $328 $233 $347 reversed $139 $-1 #
vertex $-1 $339 $465 #
straight-curve $-1 0 -20.153277681258359 6.3239849985188323 1 0 0 I I #
edge $-1 $236 -6.3239849985188323 $336 6.3239849985188323 $233 $466 forward 7 unknown #
edge $-1 $237 -6.3239849985188323 $335 6.3239849985188323 $234 $467 forward 7 unknown #
point $-1 42.72835474715415 -20.153277681258359 6.3239849985188323 #
point $-1 42.72835474715415 20.153277681258359 6.3239849985188323 #
face $-1 $-1 $367 $34 $-1 $468 forward single #
plane-surface $-1 -46.367129048241345 -15.561311466178285 0 0 -1 0 0 0 -1 forward_v I I I I #
coedge $-1 $469 $470 $370 $471 forward $240 $-1 #
coedge $-1 $363 $242 $243 $359 reversed $147 $-1 #
coedge $-1 $242 $363 $366 $472 reversed $147 $-1 #
coedge $-1 $470 $469 $242 $357 reversed $240 $-1 #
edge $-1 $473 -6.3239849985188323 $474 6.3239849985188323 $356 $475 forward 7 unknown #
coedge $-1 $244 $243 $469 $476 forward $93 $-1 #
edge $-1 $361 -3.6387743010871958 $474 3.6387743010871958 $354 $477 forward 7 unknown #
edge $-1 $478 -3.6387743010871958 $252 3.6387743010871958 $249 $479 forward 7 unknown #
vertex $-1 $359 $480 #
straight-curve $-1 -42.72835474715415 0 -6.3239849985188323 0 -1 0 I I #
coedge $-1 $355 $354 $246 $364 reversed $147 $-1 #
edge $-1 $368 -6.3239849985188323 $361 6.3239849985188323 $363 $481 forward 7 unknown #
coedge $-1 $482 $247 $250 $371 forward $367 $-1 #
coedge $-1 $247 $482 $355 $472 forward $367 $-1 #
loop $-1 $-1 $247 $351 #
vertex $-1 $248 $483 #
straight-curve $-1 -42.72835474715415 0 6.3239849985188323 0 1 0 I I #
coedge $-1 $250 $249 $353 $471 reversed $251 $-1 #
edge $-1 $253 -3.6387743010871958 $484 3.6387743010871958 $250 $485 forward 7 unknown #
point $-1 -42.72835474715415 -15.561311466178285 -6.3239849985188323 #
point $-1 -42.72835474715415 -15.561311466178285 6.3239849985188323 #
loop $-1 $-1 $263 $255 #
plane-surface $-1 0 20.153277681258359 0 0 -1 0 0 0 -1 forward_v I I I I #
coedge $-1 $377 $258 $260 $381 reversed $155 $-1 #
coedge $-1 $258 $376 $486 $487 reversed $155 $-1 #
coedge $-1 $266 $261 $258 $379 forward $256 $-1 #
edge $-1 $382 -11.650742081951801 $488 -6.6599248224931458 $378 $489 forward 7 unknown #
coedge $-1 $260 $259 $385 $490 reversed $97 $-1 #
edge $-1 $491 -40.306555362516718 $382 -33.121991650346764 $376 $492 forward 7 unknown #
vertex $-1 $262 $493 #
straight-curve $-1 -5.3565218564703585 15.1624604217997 6.323984998518835 1 0 0 I I #
coedge $-1 $486 $263 $266 $389 reversed $374 $-1 #
coedge $-1 $263 $486 $380 $490 forward $374 $-1 #
vertex $-1 $264 $494 #
straight-curve $-1 -17.773015378300578 20.153277681258359 44.756584982502318 0 0 1 I I #
straight-curve $-1 -17.773015378300578 -7.8460080418015252 30.149952131987064 0 0.69465836192734942 -0.71933980857756763 I I #
edge $-1 $488 3.6530720475808547 $267 17.773015378300578 $384 $495 forward 7 unknown #
point $-1 -17.773015378300578 20.153277681258359 6.3239849985188323 #
point $-1 -17.773015378300578 15.162460421799704 6.3239849985188279 #
edge $-1 $496 1 $496 0 $270 $-1 forward 7 unknown #
vertex $-1 $271 $497 #
ellipse-curve $-1 -13.738745855237802 16.381972254912938 2.5077944707461559 0 0.71933980857756763 0.69465836192734942 1.5 0 0 1 I I #
point $-1 -12.238745855237802 17.657869051529033 3.7399136558059909 #
edge $-1 $498 1 $498 0 $274 $-1 forward 7 unknown #
vertex $-1 $275 $499 #
ellipse-curve $-1 -7.687341570643639 16.381972254912938 2.5077944707461559 0 0.71933980857756763 0.69465836192734942 1.5 0 0 1 I I #
point $-1 -6.187341570643639 17.657869051529033 3.7399136558059909 #
loop $-1 $-1 $286 $278 #
plane-surface $-1 0 20.153277681258359 0 0 -1 0 0 0 -1 forward_v I I I I #
coedge $-1 $403 $281 $283 $407 reversed $177 $-1 #
coedge $-1 $281 $402 $500 $501 reversed $177 $-1 #
coedge $-1 $289 $284 $281 $405 forward $279 $-1 #
edge $-1 $408 -11.650742081951801 $502 -6.6599248224931458 $404 $503 forward 7 unknown #
coedge $-1 $283 $282 $411 $504 reversed $111 $-1 #
edge $-1 $505 -40.306555362516718 $408 -33.121991650346764 $402 $506 forward 7 unknown #
vertex $-1 $285 $507 #
straight-curve $-1 8.9952961575575614 15.1624604217997 6.323984998518835 1 0 0 I I #
coedge $-1 $500 $286 $289 $415 reversed $400 $-1 #
coedge $-1 $286 $500 $406 $504 forward $400 $-1 #
vertex $-1 $287 $508 #
straight-curve $-1 10.93062064975526 20.153277681258359 44.756584982502318 0 0 1 I I #
straight-curve $-1 10.93062064975526 -7.8460080418015252 30.149952131987064 0 0.69465836192734942 -0.71933980857756763 I I #
edge $-1 $502 -25.050563980474983 $290 -10.93062064975526 $410 $509 forward 7 unknown #
point $-1 10.93062064975526 20.153277681258359 6.3239849985188323 #
point $-1 10.93062064975526 15.162460421799704 6.3239849985188279 #
edge $-1 $510 1 $510 0 $293 $-1 forward 7 unknown #
vertex $-1 $294 $511 #
ellipse-curve $-1 14.964890172818038 16.381972254912938 2.5077944707461559 0 0.71933980857756763 0.69465836192734942 1.5 0 0 1 I I #
point $-1 16.464890172818038 17.657869051529033 3.7399136558059909 #
edge $-1 $512 1 $512 0 $297 $-1 forward 7 unknown #
vertex $-1 $298 $513 #
ellipse-curve $-1 21.016294457412201 16.381972254912938 2.5077944707461559 0 0.71933980857756763 0.69465836192734942 1.5 0 0 1 I I #
point $-1 22.516294457412201 17.657869051529033 3.7399136558059909 #
loop $-1 $-1 $309 $301 #
plane-surface $-1 0 -20.153277681258359 0 0 1 0 0 0 1 forward_v I I I I #
coedge $-1 $429 $304 $306 $433 reversed $199 $-1 #
coedge $-1 $304 $428 $514 $515 reversed $199 $-1 #
coedge $-1 $312 $307 $304 $431 forward $302 $-1 #
edge $-1 $434 -26.541552136213106 $516 -23.593764536748708 $430 $517 forward 7 unknown #
coedge $-1 $306 $305 $437 $518 reversed $125 $-1 #
edge $-1 $519 2.3096905769578348e-014 $434 4.788000822190801 $428 $520 forward 7 unknown #
vertex $-1 $308 $521 #
straight-curve $-1 -15.407549734445936 -17.205490081793961 6.3239849985188323 -1 0 0 I I #
coedge $-1 $514 $309 $312 $441 reversed $426 $-1 #
coedge $-1 $309 $514 $432 $518 forward $426 $-1 #
vertex $-1 $310 $522 #
straight-curve $-1 -26.179392792803991 -20.153277681258359 27.581695881854944 0 0 1 I I #
straight-curve $-1 -26.179392792803991 -20.153277681258373 2.5509888228325082 0 -0.61566146476048833 -0.78801076186113728 I I #
edge $-1 $516 -35.450806144979751 $313 -26.179392792803991 $436 $523 forward 7 unknown #
point $-1 -26.179392792803991 -20.153277681258359 6.3239849985188323 #
point $-1 -26.179392792803991 -17.205490081793961 6.3239849985188323 #
edge $-1 $524 1 $524 0 $316 $-1 forward 7 unknown #
vertex $-1 $317 $525 #
ellipse-curve $-1 -32.801830901500963 -16.981458413229337 3.1109221840762058 0 -0.78801076186113728 0.61566146476048833 1 0 0 1 I I #
point $-1 -31.801830901500963 -18.679383881526157 4.4374869106756734 #
edge $-1 $526 1 $526 0 $320 $-1 forward 7 unknown #
vertex $-1 $321 $527 #
ellipse-curve $-1 -28.828368036282782 -16.981458413229337 3.1109221840762058 0 -0.78801076186113728 0.61566146476048833 1 0 0 1 I I #
point $-1 -27.828368036282782 -18.679383881526157 4.4374869106756734 #
plane-surface $-1 42.72835474715415 0 0 -1 0 0 0 0 1 forward_v I I I I #
coedge $-1 $329 $327 $331 $457 reversed $221 $-1 #
edge $-1 $342 -6.3239849985188323 $459 6.3239849985188323 $341 $528 forward 7 unknown #
vertex $-1 $457 $529 #
straight-curve $-1 -42.72835474715415 -20.153277681258359 0 0 0 -1 I I #
edge $-1 $455 -20.153277681258359 $459 20.153277681258359 $453 $530 forward 7 unknown #
straight-curve $-1 0 -20.153277681258359 -6.3239849985188323 -1 0 0 I I #
vertex $-1 $334 $531 #
straight-curve $-1 0 20.153277681258359 -6.3239849985188323 1 0 0 I I #
point $-1 42.72835474715415 20.153277681258359 -6.3239849985188323 #
point $-1 42.72835474715415 -20.153277681258359 -6.3239849985188323 #
straight-curve $-1 -42.72835474715415 0 6.3239849985188323 0 -1 0 I I #
point $-1 -42.72835474715415 20.153277681258359 6.3239849985188323 #
point $-1 -42.72835474715415 -20.153277681258359 6.3239849985188323 #
straight-curve $-1 42.72835474715415 -20.153277681258359 0 0 0 -1 I I #
straight-curve $-1 42.72835474715415 20.153277681258359 0 0 0 -1 I I #
plane-surface $-1 0 0 6.3239849985188323 0 0 1 1 0 0 forward_v I I I I #
coedge $-1 $356 $353 $358 $476 reversed $240 $-1 #
coedge $-1 $353 $356 $482 $532 reversed $240 $-1 #
edge $-1 $484 -6.3239849985188323 $478 6.3239849985188323 $370 $533 forward 7 unknown #
edge $-1 $473 -3.6387743010871958 $368 3.6387743010871958 $355 $534 forward 7 unknown #
vertex $-1 $532 $535 #
vertex $-1 $476 $536 #
straight-curve $-1 -50.005903349328541 -18.994023096191885 0 0 0 -1 I I #
edge $-1 $474 -1.7163558150067999 $478 1.7163558150067999 $469 $537 forward 7 unknown #
straight-curve $-1 -46.367129048241345 -18.994023096191885 -6.3239849985188323 -1 0 0 I I #
vertex $-1 $360 $538 #
straight-curve $-1 -46.367129048241345 -15.561311466178285 -6.3239849985188323 1 0 0 I I #
point $-1 -42.72835474715415 -18.994023096191885 -6.3239849985188323 #
straight-curve $-1 -42.72835474715415 -18.994023096191885 0 0 0 -1 I I #
coedge $-1 $366 $365 $470 $532 forward $367 $-1 #
point $-1 -42.72835474715415 -18.994023096191885 6.3239849985188323 #
vertex $-1 $371 $539 #
straight-curve $-1 -46.367129048241345 -15.561311466178285 6.3239849985188323 -1 0 0 I I #
coedge $-1 $385 $384 $377 $487 forward $374 $-1 #
edge $-1 $488 38.432599983983486 $491 43.600742669409158 $486 $540 forward 7 unknown #
vertex $-1 $389 $541 #
straight-curve $-1 -3.6530720475808547 26.813202503751505 6.3239849985188314 0 1 0 I I #
edge $-1 $491 -1.7034498088895038 $386 12.416493521830219 $385 $542 forward 7 unknown #
vertex $-1 $490 $543 #
straight-curve $-1 -3.6530720475808547 -7.8460080418015252 30.149952131987064 0 -0.69465836192734942 0.71933980857756763 I I #
point $-1 -3.6530720475808547 15.162460421799704 6.3239849985188279 #
point $-1 -17.773015378300578 20.153277681258359 1.1558423130931565 #
straight-curve $-1 0 20.153277681258359 6.3239849985188323 -1 0 0 I I #
vertex $-1 $392 $544 #
point $-1 -12.238745855237802 16.381972254912938 2.5077944707461559 #
vertex $-1 $396 $545 #
point $-1 -6.187341570643639 16.381972254912938 2.5077944707461559 #
coedge $-1 $411 $410 $403 $501 forward $400 $-1 #
edge $-1 $502 38.432599983983486 $505 43.600742669409158 $500 $546 forward 7 unknown #
vertex $-1 $415 $547 #
straight-curve $-1 25.050563980474983 26.813202503751505 6.3239849985188314 0 1 0 I I #
edge $-1 $505 -16.055267822917422 $412 -1.9353244921976991 $411 $548 forward 7 unknown #
vertex $-1 $504 $549 #
straight-curve $-1 25.050563980474983 -7.8460080418015252 30.149952131987064 0 -0.69465836192734942 0.71933980857756763 I I #
point $-1 25.050563980474983 15.162460421799704 6.3239849985188279 #
point $-1 10.93062064975526 20.153277681258359 1.1558423130931565 #
straight-curve $-1 0 20.153277681258359 6.3239849985188323 -1 0 0 I I #
vertex $-1 $418 $550 #
point $-1 16.464890172818038 16.381972254912938 2.5077944707461559 #
vertex $-1 $422 $551 #
point $-1 22.516294457412201 16.381972254912938 2.5077944707461559 #
coedge $-1 $437 $436 $429 $515 forward $426 $-1 #
edge $-1 $516 21.257710883336113 $519 25.030707059022419 $514 $552 forward 7 unknown #
vertex $-1 $441 $553 #
straight-curve $-1 -35.450806144979751 -43.747042218007067 6.3239849985188314 0 -1 0 I I #
edge $-1 $519 -20.043256410533814 $438 -10.771843058358055 $437 $554 forward 7 unknown #
vertex $-1 $518 $555 #
straight-curve $-1 -35.450806144979751 -20.153277681258373 2.5509888228325082 0 0.61566146476048833 0.78801076186113728 I I #
point $-1 -35.450806144979751 -17.205490081793961 6.3239849985188323 #
point $-1 -26.179392792803991 -20.153277681258359 2.5509888228325264 #
straight-curve $-1 0 -20.153277681258359 6.3239849985188323 1 0 0 I I #
vertex $-1 $444 $556 #
point $-1 -31.801830901500963 -16.981458413229337 3.1109221840762058 #
vertex $-1 $448 $557 #
point $-1 -27.828368036282782 -16.981458413229337 3.1109221840762058 #
straight-curve $-1 -42.72835474715415 20.153277681258359 0 0 0 -1 I I #
point $-1 -42.72835474715415 -20.153277681258359 -6.3239849985188323 #
straight-curve $-1 -42.72835474715415 0 -6.3239849985188323 0 1 0 I I #
point $-1 -42.72835474715415 20.153277681258359 -6.3239849985188323 #
edge $-1 $484 -1.7163558150067999 $473 1.7163558150067999 $470 $558 forward 7 unknown #
straight-curve $-1 -50.005903349328541 -15.561311466178285 0 0 0 -1 I I #
straight-curve $-1 -46.367129048241345 -18.994023096191885 6.3239849985188323 1 0 0 I I #
point $-1 -50.005903349328541 -18.994023096191885 6.3239849985188323 #
point $-1 -50.005903349328541 -18.994023096191885 -6.3239849985188323 #
straight-curve $-1 -50.005903349328541 -17.277667281185085 -6.3239849985188323 0 1 0 I I #
point $-1 -50.005903349328541 -15.561311466178285 -6.3239849985188323 #
point $-1 -50.005903349328541 -15.561311466178285 6.3239849985188323 #
straight-curve $-1 -3.6530720475808547 20.153277681258359 44.756584982502318 0 0 -1 I I #
point $-1 -3.6530720475808547 20.153277681258359 6.3239849985188323 #
straight-curve $-1 -5.3565218564703585 20.153277681258359 1.1558423130931548 -1 0 0 I I #
point $-1 -3.6530720475808547 20.153277681258359 1.1558423130931565 #
point $-1 -13.738745855237802 15.302962542046586 1.4658069278551316 #
point $-1 -7.687341570643639 15.302962542046586 1.4658069278551316 #
straight-curve $-1 25.050563980474983 20.153277681258359 44.756584982502318 0 0 -1 I I #
point $-1 25.050563980474983 20.153277681258359 6.3239849985188323 #
straight-curve $-1 8.9952961575575614 20.153277681258359 1.1558423130931548 -1 0 0 I I #
point $-1 25.050563980474983 20.153277681258359 1.1558423130931565 #
point $-1 14.964890172818038 15.302962542046586 1.4658069278551316 #
point $-1 21.016294457412201 15.302962542046586 1.4658069278551316 #
straight-curve $-1 -35.450806144979751 -20.153277681258359 27.581695881854944 0 0 -1 I I #
point $-1 -35.450806144979751 -20.153277681258359 6.3239849985188323 #
straight-curve $-1 -15.407549734445936 -20.153277681258359 2.5509888228325273 1 0 0 I I #
point $-1 -35.450806144979751 -20.153277681258359 2.5509888228325264 #
point $-1 -32.801830901500963 -16.193447651368199 2.4952607193157177 #
point $-1 -28.828368036282782 -16.193447651368199 2.4952607193157177 #
straight-curve $-1 -50.005903349328541 -17.277667281185085 6.3239849985188323 0 -1 0 I I #
End-of-ACIS-data 