500 0 8 0           
7 Unknown 11 ACIS 5.0 NT 24 Fri Mar 26 03:18:16 1999 
-1 9.9999999999999995e-007 1e-010 
body $-1 $8 $-1 $9 #
body $-1 $10 $-1 $11 #
body $-1 $12 $-1 $13 #
body $-1 $14 $-1 $15 #
body $-1 $16 $-1 $17 #
body $-1 $18 $-1 $19 #
body $-1 $20 $-1 $21 #
body $-1 $22 $-1 $23 #
lump $-1 $-1 $24 $0 #
transform $-1 1 0 0 0 1 0 0 0 1 56.451918088320568 26.441625673266593 5.6470991076851593 1 rotate no_reflect no_shear #
lump $-1 $-1 $25 $1 #
transform $-1 1 0 0 0 1 0 0 0 1 56.451918088320568 26.441625673266593 5.6470991076851593 1 rotate no_reflect no_shear #
lump $-1 $-1 $26 $2 #
transform $-1 1 0 0 0 1 0 0 0 1 56.451918088320568 26.441625673266593 5.6470991076851593 1 rotate no_reflect no_shear #
lump $-1 $-1 $27 $3 #
transform $-1 1 0 0 0 1 0 0 0 1 56.451918088320568 26.441625673266593 5.6470991076851593 1 rotate no_reflect no_shear #
lump $-1 $-1 $28 $4 #
transform $-1 1 0 0 0 1 0 0 0 1 56.451918088320568 26.441625673266593 5.6470991076851593 1 rotate no_reflect no_shear #
lump $-1 $-1 $29 $5 #
transform $-1 1 0 0 0 1 0 0 0 1 56.451918088320568 26.441625673266593 5.6470991076851593 1 rotate no_reflect no_shear #
lump $-1 $-1 $30 $6 #
transform $-1 1 0 0 0 1 0 0 0 1 56.451918088320568 26.441625673266593 5.6470991076851593 1 rotate no_reflect no_shear #
lump $-1 $-1 $31 $7 #
transform $-1 1 0 0 0 1 0 0 0 1 56.451918088320568 26.441625673266593 5.6470991076851593 1 rotate no_reflect no_shear #
shell $-1 $-1 $-1 $32 $-1 $8 #
shell $-1 $-1 $-1 $33 $-1 $10 #
shell $-1 $-1 $-1 $34 $-1 $12 #
shell $-1 $-1 $-1 $35 $-1 $14 #
shell $-1 $-1 $-1 $36 $-1 $16 #
shell $-1 $-1 $-1 $37 $-1 $18 #
shell $-1 $-1 $-1 $38 $-1 $20 #
shell $-1 $-1 $-1 $39 $-1 $22 #
face $-1 $40 $41 $24 $-1 $42 forward single #
face $-1 $43 $44 $25 $-1 $45 reversed single #
face $-1 $46 $47 $26 $-1 $48 reversed single #
face $-1 $49 $50 $27 $-1 $51 reversed single #
face $-1 $52 $53 $28 $-1 $54 forward single #
face $-1 $55 $56 $29 $-1 $57 reversed single #
face $-1 $58 $59 $30 $-1 $60 forward single #
face $-1 $61 $62 $31 $-1 $63 forward single #
face $-1 $64 $65 $24 $-1 $66 reversed single #
loop $-1 $-1 $67 $32 #
plane-surface $-1 0 0 5.6470991076851593 0 0 1 1 0 0 forward_v I I I I #
face $-1 $68 $69 $25 $-1 $70 reversed single #
loop $-1 $-1 $71 $33 #
plane-surface $-1 -53.830605583640114 0 2.6470991076851593 0 0 1 1 0 0 forward_v I I I I #
face $-1 $72 $73 $26 $-1 $74 reversed single #
loop $-1 $-1 $75 $34 #
plane-surface $-1 53.830605583640121 0 2.6470991076851593 0 0 1 1 0 0 forward_v I I I I #
face $-1 $76 $77 $27 $-1 $78 reversed single #
loop $-1 $-1 $79 $35 #
plane-surface $-1 45.070335464791086 -26.441625673266586 2.4688054668067991 0 -0.69465837861970381 0.71933979245794832 1 0 0 forward_v I I I I #
face $-1 $80 $81 $28 $-1 $82 forward single #
loop $-1 $83 $84 $36 #
cone-surface $-1 45.070335464791086 -24.448686815688781 3.6982823910170057 0 0.69465837861970381 -0.71933979245794832 0.5 0 0 1 I I 0 1 0.5 forward I I I I #
face $-1 $85 $86 $29 $-1 $87 reversed single #
loop $-1 $-1 $88 $37 #
plane-surface $-1 18.422263543062428 80.903879048287678 112.3180784260143 1 0 0 0 -0.77714596973225614 -0.62932038083071107 forward_v I I I I #
face $-1 $89 $90 $30 $-1 $91 forward single #
loop $-1 $92 $93 $38 #
cone-surface $-1 24.085160418280807 23.682238306409669 2.4693963904029474 0 -0.77714596973225614 -0.62932038083071107 1 0 0 1 I I 0 1 1 forward I I I I #
face $-1 $94 $95 $31 $-1 $96 forward single #
loop $-1 $97 $98 $39 #
cone-surface $-1 32.57950573110837 23.682238306409669 2.4693963904029474 0 -0.77714596973225614 -0.62932038083071107 1 0 0 1 I I 0 1 1 forward I I I I #
face $-1 $99 $100 $24 $-1 $101 reversed single #
loop $-1 $-1 $102 $40 #
plane-surface $-1 0 0 -5.6470991076851593 0 0 1 1 0 0 forward_v I I I I #
coedge $-1 $103 $104 $105 $106 forward $41 $-1 #
face $-1 $107 $108 $25 $-1 $109 reversed single #
loop $-1 $-1 $110 $43 #
plane-surface $-1 -51.209293078959661 0 4.1470991076851593 -1 0 0 0 0 1 forward_v I I I I #
coedge $-1 $111 $112 $113 $114 forward $44 $-1 #
face $-1 $115 $116 $26 $-1 $117 forward single #
loop $-1 $-1 $118 $46 #
plane-surface $-1 51.209293078959668 0 4.1470991076851593 1 0 0 0 0 -1 forward_v I I I I #
coedge $-1 $119 $120 $121 $122 reversed $47 $-1 #
face $-1 $123 $124 $27 $-1 $125 forward single #
loop $-1 $-1 $126 $49 #
plane-surface $-1 38.931377850622518 -104.87122145167677 83.685027549818031 1 0 0 0 0.69465837861970381 -0.71933979245794832 forward_v I I I I #
coedge $-1 $127 $128 $129 $130 reversed $50 $-1 #
face $-1 $-1 $131 $28 $-1 $132 forward single #
loop $-1 $133 $134 $52 #
cone-surface $-1 45.070335464791086 -23.927693031724004 3.1587775466735444 0 0.69465837861970381 -0.71933979245794832 0.25 0 0 1 I I -0.70710678118654746 0.70710678118654746 0.25 forward I I I I #
loop $-1 $-1 $135 $36 #
coedge $-1 $84 $84 $136 $137 reversed $53 $-1 #
face $-1 $138 $139 $29 $-1 $140 reversed single #
loop $-1 $-1 $141 $55 #
plane-surface $-1 28.332333074694589 -6.8388822036998818 41.265393246082283 0 0.77714596973225614 0.62932038083071107 1 0 0 forward_v I I I I #
coedge $-1 $142 $143 $144 $145 reversed $56 $-1 #
face $-1 $-1 $146 $30 $-1 $147 forward single #
loop $-1 $148 $149 $58 #
cone-surface $-1 24.085160418280807 22.752969339458787 1.7168892386549057 0 -0.77714596973225614 -0.62932038083071107 0.5 0 0 1 I I -0.70710678118654735 0.70710678118654768 0.5 forward I I I I #
loop $-1 $-1 $150 $38 #
coedge $-1 $93 $93 $151 $152 reversed $59 $-1 #
face $-1 $-1 $153 $31 $-1 $154 forward single #
loop $-1 $155 $156 $61 #
cone-surface $-1 32.57950573110837 22.752969339458787 1.7168892386549057 0 -0.77714596973225614 -0.62932038083071107 0.5 0 0 1 I I -0.70710678118654735 0.70710678118654768 0.5 forward I I I I #
loop $-1 $-1 $157 $39 #
coedge $-1 $98 $98 $158 $159 reversed $62 $-1 #
face $-1 $160 $161 $24 $-1 $162 reversed single #
loop $-1 $-1 $163 $64 #
plane-surface $-1 0 -26.441625673266593 0 0 1 0 0 0 1 forward_v I I I I #
coedge $-1 $164 $165 $166 $167 forward $65 $-1 #
coedge $-1 $168 $67 $169 $170 forward $41 $-1 #
coedge $-1 $67 $168 $171 $172 forward $41 $-1 #
coedge $-1 $173 $174 $67 $106 reversed $175 $-1 #
edge $-1 $176 -26.441625673266593 $177 26.441625673266593 $105 $178 forward 7 unknown #
face $-1 $179 $180 $25 $-1 $181 reversed single #
loop $-1 $-1 $182 $68 #
plane-surface $-1 0 26.441625673266593 0 0 -1 0 0 0 -1 forward_v I I I I #
coedge $-1 $113 $183 $184 $185 reversed $69 $-1 #
coedge $-1 $186 $71 $187 $188 reversed $44 $-1 #
coedge $-1 $71 $186 $189 $190 reversed $44 $-1 #
coedge $-1 $191 $110 $71 $114 reversed $69 $-1 #
edge $-1 $192 -26.441625673266593 $193 26.441625673266593 $113 $194 forward 7 unknown #
face $-1 $195 $196 $26 $-1 $197 reversed single #
loop $-1 $-1 $198 $72 #
plane-surface $-1 0 0 5.6470991076851593 0 0 1 1 0 0 forward_v I I I I #
coedge $-1 $199 $200 $201 $202 reversed $73 $-1 #
coedge $-1 $203 $75 $204 $205 reversed $47 $-1 #
coedge $-1 $75 $203 $206 $207 reversed $47 $-1 #
coedge $-1 $208 $209 $75 $122 forward $210 $-1 #
edge $-1 $211 -26.441625673266593 $212 26.441625673266593 $121 $213 forward 7 unknown #
face $-1 $214 $215 $27 $-1 $216 reversed single #
loop $-1 $-1 $129 $76 #
plane-surface $-1 0 0 5.6470991076851593 0 0 1 1 0 0 forward_v I I I I #
coedge $-1 $217 $218 $219 $220 reversed $77 $-1 #
coedge $-1 $221 $79 $222 $223 reversed $50 $-1 #
coedge $-1 $79 $221 $217 $224 forward $50 $-1 #
coedge $-1 $219 $225 $79 $130 forward $124 $-1 #
edge $-1 $226 -28.674125346564125 $227 -16.396210118226975 $129 $228 forward 7 unknown #
loop $-1 $-1 $136 $80 #
plane-surface $-1 45.070335464791086 -26.441625673266586 2.4688054668067991 0 -0.69465837861970381 0.71933979245794832 1 0 0 forward_v I I I I #
loop $-1 $-1 $229 $52 #
coedge $-1 $134 $134 $135 $230 reversed $81 $-1 #
coedge $-1 $135 $135 $134 $230 forward $83 $-1 #
coedge $-1 $136 $136 $84 $137 forward $131 $-1 #
edge $-1 $231 -1.4093331550183337e-015 $231 6.2831853071795987 $136 $232 forward 7 unknown #
face $-1 $233 $234 $29 $-1 $235 reversed single #
loop $-1 $-1 $236 $85 #
plane-surface $-1 38.242402606326749 80.903879048287678 112.3180784260143 -1 0 0 0 0.77714596973225614 0.62932038083071107 forward_v I I I I #
coedge $-1 $237 $238 $239 $240 reversed $86 $-1 #
coedge $-1 $143 $88 $241 $242 reversed $56 $-1 #
coedge $-1 $88 $142 $237 $243 reversed $56 $-1 #
coedge $-1 $239 $244 $88 $145 forward $245 $-1 #
edge $-1 $246 14.010313850877246 $247 18.447696620421581 $144 $248 forward 7 unknown #
loop $-1 $-1 $151 $89 #
plane-surface $-1 28.332333074694589 -6.8388822036998818 41.265393246082283 0 0.77714596973225614 0.62932038083071107 1 0 0 forward_v I I I I #
loop $-1 $-1 $249 $58 #
coedge $-1 $149 $149 $150 $250 reversed $90 $-1 #
coedge $-1 $150 $150 $149 $250 forward $92 $-1 #
coedge $-1 $151 $151 $93 $152 forward $146 $-1 #
edge $-1 $251 -1.5455508460520911e-015 $251 6.2831853071795987 $151 $252 forward 7 unknown #
loop $-1 $-1 $158 $94 #
plane-surface $-1 28.332333074694589 -6.8388822036998818 41.265393246082283 0 0.77714596973225614 0.62932038083071107 1 0 0 forward_v I I I I #
loop $-1 $-1 $253 $61 #
coedge $-1 $156 $156 $157 $254 reversed $95 $-1 #
coedge $-1 $157 $157 $156 $254 forward $97 $-1 #
coedge $-1 $158 $158 $98 $159 forward $153 $-1 #
edge $-1 $255 -1.5455508460520911e-015 $255 6.2831853071795987 $158 $256 forward 7 unknown #
face $-1 $257 $258 $24 $-1 $259 reversed single #
loop $-1 $-1 $260 $99 #
plane-surface $-1 -56.451918088320568 0 0 1 0 0 0 0 -1 forward_v I I I I #
coedge $-1 $261 $171 $262 $263 forward $100 $-1 #
coedge $-1 $264 $102 $261 $265 forward $65 $-1 #
coedge $-1 $102 $264 $266 $267 forward $65 $-1 #
coedge $-1 $174 $173 $102 $167 reversed $175 $-1 #
edge $-1 $268 -26.441625673266593 $269 26.441625673266593 $166 $270 forward 7 unknown #
coedge $-1 $104 $103 $271 $272 forward $41 $-1 #
coedge $-1 $273 $274 $103 $170 reversed $258 $-1 #
edge $-1 $177 -56.451918088320568 $275 56.451918088320568 $169 $276 forward 7 unknown #
coedge $-1 $163 $277 $104 $172 reversed $100 $-1 #
edge $-1 $278 -56.451918088320568 $176 56.451918088320568 $171 $279 forward 7 unknown #
coedge $-1 $166 $105 $277 $280 forward $175 $-1 #
coedge $-1 $105 $166 $273 $281 reversed $175 $-1 #
loop $-1 $-1 $173 $257 #
vertex $-1 $106 $282 #
vertex $-1 $106 $283 #
straight-curve $-1 56.451918088320568 0 5.6470991076851593 0 1 0 I I #
face $-1 $284 $285 $25 $-1 $286 forward single #
loop $-1 $-1 $287 $107 #
plane-surface $-1 -56.451918088320568 0 0 1 0 0 0 0 -1 forward_v I I I I #
coedge $-1 $189 $288 $191 $289 forward $108 $-1 #
coedge $-1 $110 $191 $290 $291 reversed $69 $-1 #
coedge $-1 $292 $187 $110 $185 forward $293 $-1 #
edge $-1 $193 0.57354955384257966 $294 3.5735495538425797 $184 $295 forward 7 unknown #
coedge $-1 $112 $111 $287 $296 reversed $44 $-1 #
coedge $-1 $184 $297 $111 $188 forward $293 $-1 #
edge $-1 $298 -29.536615296500511 $193 -24.293990287139604 $187 $299 forward 7 unknown #
coedge $-1 $300 $182 $112 $190 forward $108 $-1 #
edge $-1 $192 24.293990287139604 $301 29.536615296500511 $189 $302 forward 7 unknown #
coedge $-1 $183 $113 $182 $289 reversed $69 $-1 #
vertex $-1 $190 $303 #
vertex $-1 $188 $304 #
straight-curve $-1 -51.209293078959661 0 2.6470991076851593 0 -1 0 I I #
face $-1 $305 $306 $26 $-1 $307 reversed single #
loop $-1 $-1 $308 $115 #
plane-surface $-1 0 -26.441625673266593 0 0 1 0 0 0 1 forward_v I I I I #
coedge $-1 $309 $310 $200 $311 forward $116 $-1 #
coedge $-1 $312 $118 $203 $313 reversed $73 $-1 #
coedge $-1 $118 $312 $198 $311 reversed $73 $-1 #
coedge $-1 $314 $206 $118 $202 forward $306 $-1 #
edge $-1 $315 0.57354955384257966 $316 3.5735495538425797 $201 $317 forward 7 unknown #
coedge $-1 $120 $119 $199 $313 forward $47 $-1 #
coedge $-1 $318 $308 $119 $205 forward $196 $-1 #
edge $-1 $319 24.293990287139607 $211 29.536615296500514 $204 $320 forward 7 unknown #
coedge $-1 $201 $321 $120 $207 forward $306 $-1 #
edge $-1 $212 -29.536615296500514 $315 -24.293990287139607 $206 $322 forward 7 unknown #
coedge $-1 $323 $121 $321 $324 reversed $210 $-1 #
coedge $-1 $121 $323 $318 $325 forward $210 $-1 #
loop $-1 $-1 $121 $305 #
vertex $-1 $205 $326 #
vertex $-1 $122 $327 #
straight-curve $-1 56.451918088320568 0 2.6470991076851593 0 1 0 I I #
face $-1 $-1 $328 $27 $-1 $329 forward single #
loop $-1 $-1 $330 $123 #
plane-surface $-1 0 -26.441625673266593 0 0 1 0 0 0 1 forward_v I I I I #
coedge $-1 $218 $126 $128 $224 reversed $77 $-1 #
coedge $-1 $126 $217 $330 $331 reversed $77 $-1 #
coedge $-1 $332 $129 $126 $220 forward $124 $-1 #
edge $-1 $227 -29.285204389107719 $333 -25.993985052571794 $219 $334 forward 7 unknown #
coedge $-1 $128 $127 $335 $336 reversed $50 $-1 #
coedge $-1 $337 $338 $127 $223 forward $328 $-1 #
edge $-1 $339 -10.093177131739342 $226 -5.5178437899121242 $222 $340 forward 7 unknown #
edge $-1 $341 -9.7385709978959816e-015 $227 4.5753333418272097 $217 $342 forward 7 unknown #
coedge $-1 $129 $332 $337 $343 forward $124 $-1 #
vertex $-1 $223 $344 #
vertex $-1 $130 $345 #
straight-curve $-1 22.535167732395543 -23.150406336730668 5.6470991076851593 -1 0 0 I I #
coedge $-1 $229 $229 $-1 $346 reversed $133 $-1 #
edge $-1 $347 0 $347 6.2831853071796004 $134 $348 forward 7 unknown #
vertex $-1 $137 $349 #
ellipse-curve $-1 45.070335464791086 -24.796016004998631 4.0579522872459775 0 -0.69465837861970381 0.71933979245794832 0.5 0 0 1 I I #
face $-1 $-1 $245 $29 $-1 $350 forward single #
loop $-1 $-1 $351 $138 #
plane-surface $-1 0 26.441625673266593 0 0 -1 0 0 0 -1 forward_v I I I I #
coedge $-1 $352 $353 $354 $355 reversed $139 $-1 #
coedge $-1 $356 $141 $143 $243 forward $86 $-1 #
coedge $-1 $141 $356 $352 $357 forward $86 $-1 #
coedge $-1 $354 $144 $141 $240 forward $245 $-1 #
edge $-1 $247 4.2560970057151337 $358 24.076236068979455 $239 $359 forward 7 unknown #
coedge $-1 $360 $361 $142 $242 forward $234 $-1 #
edge $-1 $362 -55.991651617221031 $246 -50.51194010532199 $241 $363 forward 7 unknown #
edge $-1 $247 45.83218021534411 $362 52.883251346533179 $143 $364 forward 7 unknown #
coedge $-1 $144 $354 $360 $365 forward $245 $-1 #
loop $-1 $-1 $354 $233 #
vertex $-1 $242 $366 #
vertex $-1 $145 $367 #
straight-curve $-1 18.422263543062428 40.451939524143839 5.6470991076851575 0 -1 0 I I #
coedge $-1 $249 $249 $-1 $368 reversed $148 $-1 #
edge $-1 $369 0 $369 6.2831853071796004 $149 $370 forward 7 unknown #
vertex $-1 $152 $371 #
ellipse-curve $-1 24.085160418280807 24.222934288494425 2.9072433517356346 0 0.77714596973225614 0.62932038083071107 1 0 0 1 I I #
coedge $-1 $253 $253 $-1 $372 reversed $155 $-1 #
edge $-1 $373 0 $373 6.2831853071796004 $156 $374 forward 7 unknown #
vertex $-1 $159 $375 #
ellipse-curve $-1 32.57950573110837 24.222934288494425 2.9072433517356346 0 0.77714596973225614 0.62932038083071107 1 0 0 1 I I #
face $-1 $-1 $175 $24 $-1 $376 reversed single #
loop $-1 $-1 $273 $160 #
plane-surface $-1 0 26.441625673266593 0 0 -1 0 0 0 -1 forward_v I I I I #
coedge $-1 $377 $271 $274 $378 forward $161 $-1 #
coedge $-1 $277 $163 $164 $265 reversed $100 $-1 #
coedge $-1 $271 $377 $163 $263 reversed $161 $-1 #
edge $-1 $278 -5.6470991076851593 $379 5.6470991076851593 $262 $380 forward 7 unknown #
coedge $-1 $165 $164 $377 $381 forward $65 $-1 #
edge $-1 $269 -56.451918088320568 $379 56.451918088320568 $261 $382 forward 7 unknown #
coedge $-1 $274 $273 $165 $267 reversed $258 $-1 #
edge $-1 $383 -56.451918088320568 $268 56.451918088320568 $266 $384 forward 7 unknown #
vertex $-1 $167 $385 #
vertex $-1 $280 $386 #
straight-curve $-1 56.451918088320568 0 -5.6470991076851593 0 -1 0 I I #
coedge $-1 $260 $262 $168 $272 reversed $161 $-1 #
edge $-1 $275 -26.441625673266593 $278 26.441625673266593 $271 $387 forward 7 unknown #
coedge $-1 $266 $169 $174 $281 forward $258 $-1 #
coedge $-1 $169 $266 $260 $378 reversed $258 $-1 #
vertex $-1 $170 $388 #
straight-curve $-1 0 26.441625673266593 5.6470991076851593 -1 0 0 I I #
coedge $-1 $171 $261 $173 $280 reversed $100 $-1 #
vertex $-1 $272 $389 #
straight-curve $-1 0 -26.441625673266593 5.6470991076851593 1 0 0 I I #
edge $-1 $176 -5.6470991076851593 $269 5.6470991076851593 $173 $390 forward 7 unknown #
edge $-1 $177 -5.6470991076851593 $268 5.6470991076851593 $174 $391 forward 7 unknown #
point $-1 56.451918088320568 -26.441625673266593 5.6470991076851593 #
point $-1 56.451918088320568 26.441625673266593 5.6470991076851593 #
face $-1 $-1 $293 $25 $-1 $392 reversed single #
loop $-1 $-1 $290 $179 #
plane-surface $-1 0 0 5.6470991076851593 0 0 1 1 0 0 forward_v I I I I #
coedge $-1 $393 $394 $186 $296 forward $180 $-1 #
coedge $-1 $182 $300 $395 $396 reversed $108 $-1 #
edge $-1 $397 -3.5735495538425797 $192 -0.57354955384257966 $182 $398 forward 7 unknown #
coedge $-1 $395 $399 $183 $291 forward $285 $-1 #
edge $-1 $294 -26.441625673266593 $397 26.441625673266593 $290 $400 forward 7 unknown #
coedge $-1 $297 $184 $399 $401 reversed $293 $-1 #
loop $-1 $-1 $184 $284 #
vertex $-1 $185 $402 #
straight-curve $-1 -51.209293078959661 -26.441625673266593 2.0735495538425797 0 0 1 I I #
edge $-1 $301 -26.441625673266593 $298 26.441625673266593 $287 $403 forward 7 unknown #
coedge $-1 $187 $292 $393 $404 forward $293 $-1 #
vertex $-1 $296 $405 #
straight-curve $-1 -26.915302791820057 -26.441625673266593 2.6470991076851593 1 0 0 I I #
coedge $-1 $288 $189 $394 $406 reversed $108 $-1 #
vertex $-1 $296 $407 #
straight-curve $-1 -26.915302791820057 26.441625673266593 2.6470991076851593 -1 0 0 I I #
point $-1 -51.209293078959661 26.441625673266593 2.6470991076851593 #
point $-1 -51.209293078959661 -26.441625673266593 2.6470991076851593 #
face $-1 $-1 $210 $26 $-1 $408 reversed single #
loop $-1 $-1 $201 $195 #
plane-surface $-1 0 26.441625673266593 0 0 -1 0 0 0 -1 forward_v I I I I #
coedge $-1 $204 $409 $312 $410 forward $196 $-1 #
coedge $-1 $411 $198 $409 $412 forward $116 $-1 #
coedge $-1 $198 $411 $314 $413 forward $116 $-1 #
edge $-1 $316 -26.441625673266593 $414 26.441625673266593 $198 $415 forward 7 unknown #
coedge $-1 $200 $199 $308 $410 reversed $73 $-1 #
edge $-1 $319 -26.441625673266593 $315 26.441625673266593 $199 $416 forward 7 unknown #
coedge $-1 $321 $201 $310 $413 reversed $306 $-1 #
vertex $-1 $207 $417 #
vertex $-1 $202 $418 #
straight-curve $-1 51.209293078959668 26.441625673266593 2.0735495538425797 0 0 1 I I #
coedge $-1 $409 $204 $209 $325 reversed $196 $-1 #
vertex $-1 $205 $419 #
straight-curve $-1 26.915302791820061 -26.441625673266593 2.6470991076851593 1 0 0 I I #
coedge $-1 $206 $314 $208 $324 forward $306 $-1 #
straight-curve $-1 26.915302791820061 26.441625673266593 2.6470991076851593 -1 0 0 I I #
coedge $-1 $209 $208 $411 $420 reversed $210 $-1 #
edge $-1 $421 -5.6470991076851593 $212 -2.6470991076851593 $208 $422 forward 7 unknown #
edge $-1 $423 -5.6470991076851593 $211 -2.6470991076851593 $209 $424 forward 7 unknown #
point $-1 56.451918088320575 -26.441625673266593 2.6470991076851593 #
point $-1 56.451918088320575 26.441625673266593 2.6470991076851593 #
loop $-1 $-1 $222 $214 #
plane-surface $-1 51.209293078959668 0 4.1470991076851593 1 0 0 0 0 -1 forward_v I I I I #
coedge $-1 $335 $425 $218 $331 forward $215 $-1 #
edge $-1 $333 36.195414667223858 $341 39.373708308102223 $330 $426 forward 7 unknown #
coedge $-1 $225 $219 $425 $427 forward $124 $-1 #
vertex $-1 $427 $428 #
straight-curve $-1 38.931377850622518 -52.435610725838387 5.6470991076851575 0 -1 0 I I #
coedge $-1 $429 $330 $221 $336 forward $215 $-1 #
edge $-1 $341 16.396210118226975 $339 28.674125346564111 $335 $430 forward 7 unknown #
coedge $-1 $338 $222 $225 $343 reversed $328 $-1 #
coedge $-1 $222 $337 $429 $431 reversed $328 $-1 #
vertex $-1 $431 $432 #
straight-curve $-1 51.209293078959668 -19.181201730079906 9.4801155282623171 0 0.71933979245794832 0.69465837861970381 I I #
vertex $-1 $336 $433 #
straight-curve $-1 38.931377850622518 -26.441625673266586 2.4688054668067991 0 0.71933979245794832 0.69465837861970381 I I #
edge $-1 $434 -26.441625673266593 $226 -23.150406336730672 $225 $435 forward 7 unknown #
point $-1 51.209293078959668 -23.150406336730672 5.6470991076851593 #
point $-1 38.931377850622518 -23.150406336730668 5.6470991076851593 #
edge $-1 $436 1 $436 0 $229 $-1 forward 7 unknown #
vertex $-1 $230 $437 #
ellipse-curve $-1 45.070335464791086 -24.101357626378931 3.3386124947880313 0 -0.69465837861970381 0.71933979245794832 0.5 0 0 1 I I #
point $-1 45.570335464791086 -24.796016004998634 4.0579522872459801 #
plane-surface $-1 0 0 5.6470991076851593 0 0 1 1 0 0 forward_v I I I I #
coedge $-1 $361 $360 $353 $438 forward $234 $-1 #
coedge $-1 $353 $236 $238 $357 reversed $139 $-1 #
coedge $-1 $236 $352 $351 $438 reversed $139 $-1 #
coedge $-1 $244 $239 $236 $355 forward $245 $-1 #
edge $-1 $358 -18.447696620421581 $439 -14.010313850877246 $354 $440 forward 7 unknown #
coedge $-1 $238 $237 $361 $441 reversed $86 $-1 #
edge $-1 $442 -52.883251346533179 $358 -45.83218021534411 $352 $443 forward 7 unknown #
vertex $-1 $240 $444 #
straight-curve $-1 14.166166537347294 22.004242903722258 5.6470991076851575 1 0 0 I I #
coedge $-1 $351 $241 $244 $365 reversed $234 $-1 #
coedge $-1 $241 $351 $356 $441 forward $234 $-1 #
vertex $-1 $242 $445 #
straight-curve $-1 18.422263543062428 26.441625673266593 56.159039213007148 0 0 1 I I #
straight-curve $-1 18.422263543062428 -6.8388822036998818 41.265393246082283 0 0.62932038083071107 -0.77714596973225614 I I #
edge $-1 $439 -38.242402606326749 $246 -18.422263543062428 $360 $446 forward 7 unknown #
point $-1 18.422263543062428 26.441625673266593 5.6470991076851593 #
point $-1 18.422263543062428 22.004242903722258 5.6470991076851575 #
edge $-1 $447 1 $447 0 $249 $-1 forward 7 unknown #
vertex $-1 $250 $448 #
ellipse-curve $-1 24.085160418280807 23.141542324324917 2.0315494290702616 0 0.77714596973225614 0.62932038083071107 1 0 0 1 I I #
point $-1 25.085160418280807 24.222934288494422 2.9072433517356338 #
edge $-1 $449 1 $449 0 $253 $-1 forward 7 unknown #
vertex $-1 $254 $450 #
ellipse-curve $-1 32.57950573110837 23.141542324324917 2.0315494290702616 0 0.77714596973225614 0.62932038083071107 1 0 0 1 I I #
point $-1 33.57950573110837 24.222934288494422 2.9072433517356338 #
plane-surface $-1 56.451918088320568 0 0 -1 0 0 0 0 1 forward_v I I I I #
coedge $-1 $262 $260 $264 $381 reversed $161 $-1 #
edge $-1 $275 -5.6470991076851593 $383 5.6470991076851593 $274 $451 forward 7 unknown #
vertex $-1 $381 $452 #
straight-curve $-1 -56.451918088320568 -26.441625673266593 0 0 0 -1 I I #
edge $-1 $379 -26.441625673266593 $383 26.441625673266593 $377 $453 forward 7 unknown #
straight-curve $-1 0 -26.441625673266593 -5.6470991076851593 -1 0 0 I I #
vertex $-1 $267 $454 #
straight-curve $-1 0 26.441625673266593 -5.6470991076851593 1 0 0 I I #
point $-1 56.451918088320568 26.441625673266593 -5.6470991076851593 #
point $-1 56.451918088320568 -26.441625673266593 -5.6470991076851593 #
straight-curve $-1 -56.451918088320568 0 5.6470991076851593 0 -1 0 I I #
point $-1 -56.451918088320568 26.441625673266593 5.6470991076851593 #
point $-1 -56.451918088320568 -26.441625673266593 5.6470991076851593 #
straight-curve $-1 56.451918088320568 -26.441625673266593 0 0 0 -1 I I #
straight-curve $-1 56.451918088320568 26.441625673266593 0 0 0 -1 I I #
plane-surface $-1 0 -26.441625673266593 0 0 1 0 0 0 1 forward_v I I I I #
coedge $-1 $455 $287 $297 $404 reversed $180 $-1 #
coedge $-1 $287 $455 $300 $406 forward $180 $-1 #
coedge $-1 $456 $290 $288 $396 forward $285 $-1 #
edge $-1 $397 51.209293078959661 $457 56.451918088320568 $288 $458 forward 7 unknown #
vertex $-1 $396 $459 #
straight-curve $-1 -51.209293078959661 26.441625673266593 2.0735495538425797 0 0 -1 I I #
coedge $-1 $290 $456 $292 $401 forward $285 $-1 #
straight-curve $-1 -51.209293078959661 0 5.6470991076851593 0 1 0 I I #
edge $-1 $460 -56.451918088320568 $294 -51.209293078959661 $292 $461 forward 7 unknown #
point $-1 -51.209293078959661 -26.441625673266593 5.6470991076851593 #
straight-curve $-1 -56.451918088320568 0 2.6470991076851593 0 -1 0 I I #
edge $-1 $460 -5.6470991076851593 $298 -2.6470991076851593 $393 $462 forward 7 unknown #
point $-1 -56.451918088320568 -26.441625673266593 2.6470991076851593 #
edge $-1 $457 -5.6470991076851593 $301 -2.6470991076851593 $300 $463 forward 7 unknown #
point $-1 -56.451918088320568 26.441625673266593 2.6470991076851593 #
plane-surface $-1 56.451918088320568 0 0 -1 0 0 0 0 1 forward_v I I I I #
coedge $-1 $308 $318 $309 $412 reversed $196 $-1 #
edge $-1 $414 -3.5735495538425797 $319 -0.57354955384257966 $308 $464 forward 7 unknown #
coedge $-1 $310 $309 $323 $420 forward $116 $-1 #
edge $-1 $414 51.209293078959668 $423 56.451918088320568 $409 $465 forward 7 unknown #
edge $-1 $421 -56.451918088320568 $316 -51.209293078959668 $314 $466 forward 7 unknown #
vertex $-1 $412 $467 #
straight-curve $-1 51.209293078959668 0 5.6470991076851593 0 -1 0 I I #
straight-curve $-1 51.209293078959668 0 2.6470991076851593 0 1 0 I I #
point $-1 51.209293078959668 26.441625673266593 2.6470991076851593 #
point $-1 51.209293078959668 26.441625673266593 5.6470991076851593 #
point $-1 51.209293078959668 -26.441625673266593 2.6470991076851593 #
edge $-1 $423 -26.441625673266593 $421 26.441625673266593 $323 $468 forward 7 unknown #
vertex $-1 $420 $469 #
straight-curve $-1 56.451918088320568 26.441625673266593 0 0 0 -1 I I #
vertex $-1 $420 $470 #
straight-curve $-1 56.451918088320568 -26.441625673266593 0 0 0 -1 I I #
coedge $-1 $330 $429 $332 $427 reversed $215 $-1 #
straight-curve $-1 38.931377850622518 -26.441625673266593 41.842513774909015 0 0 -1 I I #
edge $-1 $333 38.931377850622518 $434 51.209293078959668 $425 $471 forward 7 unknown #
point $-1 38.931377850622518 -26.441625673266593 5.6470991076851593 #
coedge $-1 $425 $335 $338 $431 forward $215 $-1 #
straight-curve $-1 22.535167732395543 -26.441625673266593 2.4688054668067938 1 0 0 I I #
edge $-1 $339 -39.373708308102223 $434 -36.195414667223858 $429 $472 forward 7 unknown #
point $-1 51.209293078959654 -26.441625673266593 2.4688054668067925 #
point $-1 38.931377850622518 -26.441625673266593 2.4688054668067925 #
vertex $-1 $343 $473 #
straight-curve $-1 51.209293078959668 0 5.6470991076851593 0 1 0 I I #
vertex $-1 $346 $474 #
point $-1 45.570335464791086 -24.101357626378931 3.3386124947880313 #
edge $-1 $439 50.51194010532199 $442 55.991651617221031 $351 $475 forward 7 unknown #
vertex $-1 $365 $476 #
straight-curve $-1 38.242402606326749 40.451939524143839 5.6470991076851575 0 1 0 I I #
edge $-1 $442 -24.076236068979455 $362 -4.2560970057151337 $361 $477 forward 7 unknown #
vertex $-1 $441 $478 #
straight-curve $-1 38.242402606326749 -6.8388822036998818 41.265393246082283 0 -0.62932038083071107 0.77714596973225614 I I #
point $-1 38.242402606326749 22.004242903722258 5.6470991076851575 #
point $-1 18.422263543062428 26.441625673266593 0.16738759578611706 #
straight-curve $-1 0 26.441625673266593 5.6470991076851593 -1 0 0 I I #
vertex $-1 $368 $479 #
point $-1 25.085160418280807 23.141542324324917 2.0315494290702616 #
vertex $-1 $372 $480 #
point $-1 33.57950573110837 23.141542324324917 2.0315494290702616 #
straight-curve $-1 -56.451918088320568 26.441625673266593 0 0 0 -1 I I #
point $-1 -56.451918088320568 -26.441625673266593 -5.6470991076851593 #
straight-curve $-1 -56.451918088320568 0 -5.6470991076851593 0 1 0 I I #
point $-1 -56.451918088320568 26.441625673266593 -5.6470991076851593 #
coedge $-1 $394 $393 $456 $481 reversed $180 $-1 #
coedge $-1 $399 $395 $455 $481 forward $285 $-1 #
vertex $-1 $396 $482 #
straight-curve $-1 0 26.441625673266593 5.6470991076851593 -1 0 0 I I #
point $-1 -51.209293078959661 26.441625673266593 5.6470991076851593 #
vertex $-1 $481 $483 #
straight-curve $-1 0 -26.441625673266593 5.6470991076851593 1 0 0 I I #
straight-curve $-1 -56.451918088320568 -26.441625673266593 0 0 0 -1 I I #
straight-curve $-1 -56.451918088320568 26.441625673266593 0 0 0 -1 I I #
straight-curve $-1 51.209293078959668 -26.441625673266593 2.0735495538425797 0 0 -1 I I #
straight-curve $-1 0 -26.441625673266593 5.6470991076851593 1 0 0 I I #
straight-curve $-1 0 26.441625673266593 5.6470991076851593 -1 0 0 I I #
point $-1 51.209293078959668 -26.441625673266593 5.6470991076851593 #
straight-curve $-1 56.451918088320568 0 5.6470991076851593 0 1 0 I I #
point $-1 56.451918088320568 26.441625673266593 5.6470991076851593 #
point $-1 56.451918088320568 -26.441625673266593 5.6470991076851593 #
straight-curve $-1 0 -26.441625673266593 5.6470991076851593 1 0 0 I I #
straight-curve $-1 51.209293078959654 -26.441625673266593 41.842513774909015 0 0 1 I I #
point $-1 51.209293078959668 -26.441625673266593 5.6470991076851593 #
point $-1 45.070335464791086 -23.754028437069078 2.9789425985590574 #
straight-curve $-1 38.242402606326749 26.441625673266593 56.159039213007148 0 0 -1 I I #
point $-1 38.242402606326749 26.441625673266593 5.6470991076851593 #
straight-curve $-1 14.166166537347294 26.441625673266593 0.16738759578611706 -1 0 0 I I #
point $-1 38.242402606326749 26.441625673266593 0.16738759578611706 #
point $-1 24.085160418280807 22.364396354592657 1.4022290482395501 #
point $-1 32.57950573110837 22.364396354592657 1.4022290482395501 #
edge $-1 $457 -26.441625673266593 $460 26.441625673266593 $455 $484 forward 7 unknown #
point $-1 -56.451918088320568 26.441625673266593 5.6470991076851593 #
point $-1 -56.451918088320568 -26.441625673266593 5.6470991076851593 #
straight-curve $-1 -56.451918088320568 0 5.6470991076851593 0 -1 0 I I #
End-of-ACIS-data 