500 0 5 0           
7 Unknown 11 ACIS 5.0 NT 24 Thu Mar 25 19:43:19 1999 
-1 9.9999999999999995e-007 1e-010 
body $-1 $5 $-1 $6 #
body $-1 $7 $-1 $8 #
body $-1 $9 $-1 $10 #
body $-1 $11 $-1 $12 #
body $-1 $13 $-1 $14 #
lump $-1 $-1 $15 $0 #
transform $-1 1 0 0 0 1 0 0 0 1 49.660939359721667 27.977112408784876 9.4793632342311565 1 rotate no_reflect no_shear #
lump $-1 $-1 $16 $1 #
transform $-1 1 0 0 0 1 0 0 0 1 49.660939359721667 27.977112408784876 9.4793632342311565 1 rotate no_reflect no_shear #
lump $-1 $-1 $17 $2 #
transform $-1 1 0 0 0 1 0 0 0 1 49.660939359721667 27.977112408784876 9.4793632342311565 1 rotate no_reflect no_shear #
lump $-1 $-1 $18 $3 #
transform $-1 1 0 0 0 1 0 0 0 1 49.660939359721667 27.977112408784876 9.4793632342311565 1 rotate no_reflect no_shear #
lump $-1 $-1 $19 $4 #
transform $-1 1 0 0 0 1 0 0 0 1 49.660939359721667 27.977112408784876 9.4793632342311565 1 rotate no_reflect no_shear #
shell $-1 $-1 $-1 $20 $-1 $5 #
shell $-1 $-1 $-1 $21 $-1 $7 #
shell $-1 $-1 $-1 $22 $-1 $9 #
shell $-1 $-1 $-1 $23 $-1 $11 #
shell $-1 $-1 $-1 $24 $-1 $13 #
face $-1 $25 $26 $15 $-1 $27 forward single #
face $-1 $28 $29 $16 $-1 $30 forward single #
face $-1 $31 $32 $17 $-1 $33 forward single #
face $-1 $34 $35 $18 $-1 $36 reversed single #
face $-1 $37 $38 $19 $-1 $39 forward single #
face $-1 $40 $41 $15 $-1 $42 reversed single #
loop $-1 $-1 $43 $20 #
plane-surface $-1 0 0 9.4793632342311565 0 0 1 1 0 0 forward_v I I I I #
face $-1 $44 $45 $16 $-1 $46 reversed single #
loop $-1 $-1 $47 $21 #
plane-surface $-1 0 -22.720088475176762 -5.2940418961868971 0 0 1 1 0 0 forward_v I I I I #
face $-1 $48 $49 $17 $-1 $50 reversed single #
loop $-1 $-1 $51 $22 #
plane-surface $-1 0 22.720088475176766 -5.2940418961868971 0 0 1 1 0 0 forward_v I I I I #
face $-1 $52 $53 $18 $-1 $54 reversed single #
loop $-1 $-1 $55 $23 #
plane-surface $-1 61.903041425152168 5.470137249013888 140.79058796454066 0 1 0 0.7660444514056185 0 0.64278759981090561 forward_v I I I I #
face $-1 $56 $57 $19 $-1 $58 forward single #
loop $-1 $59 $60 $24 #
cone-surface $-1 45.317841650455577 8.5894387782009858 4.5601914724933614 -0.7660444514056185 0 -0.64278759981090561 0.3213937999054528 0 -0.38302222570280925 1 I I 0 1 0.5 forward I I I I #
face $-1 $61 $62 $15 $-1 $63 reversed single #
loop $-1 $-1 $64 $25 #
plane-surface $-1 0 0 -9.4793632342311565 0 0 1 1 0 0 forward_v I I I I #
coedge $-1 $65 $66 $67 $68 forward $26 $-1 #
face $-1 $69 $70 $16 $-1 $71 reversed single #
loop $-1 $-1 $72 $28 #
plane-surface $-1 0 -22.720088475176762 -8.8288344500910334 0 0 1 1 0 0 forward_v I I I I #
coedge $-1 $73 $74 $75 $76 reversed $29 $-1 #
face $-1 $77 $78 $17 $-1 $79 reversed single #
loop $-1 $-1 $80 $31 #
plane-surface $-1 0 22.720088475176766 -8.8288344500910334 0 0 1 1 0 0 forward_v I I I I #
coedge $-1 $81 $82 $83 $84 reversed $32 $-1 #
face $-1 $85 $86 $18 $-1 $87 reversed single #
loop $-1 $-1 $88 $34 #
plane-surface $-1 -14.181932671059172 8.5894387782009858 76.94771593375981 0.7660444514056185 0 0.64278759981090561 0.64278759981090561 0 -0.7660444514056185 forward_v I I I I #
coedge $-1 $89 $90 $91 $92 reversed $35 $-1 #
face $-1 $-1 $93 $19 $-1 $94 forward single #
loop $-1 $95 $96 $37 #
cone-surface $-1 44.398334651665721 8.5894387782009858 3.7886335091441783 -0.7660444514056185 0 -0.64278759981090561 0.1606968999527264 0 -0.19151111285140462 1 I I -0.70710678118654691 0.70710678118654813 0.25 forward I I I I #
loop $-1 $-1 $97 $24 #
coedge $-1 $60 $60 $98 $99 reversed $38 $-1 #
face $-1 $100 $101 $15 $-1 $102 reversed single #
loop $-1 $-1 $103 $40 #
plane-surface $-1 0 -27.977112408784876 0 0 1 0 0 0 1 forward_v I I I I #
coedge $-1 $104 $105 $106 $107 forward $41 $-1 #
coedge $-1 $108 $43 $109 $110 forward $26 $-1 #
coedge $-1 $43 $108 $111 $112 forward $26 $-1 #
coedge $-1 $113 $114 $43 $68 reversed $115 $-1 #
edge $-1 $116 -27.977112408784876 $117 27.977112408784876 $67 $118 forward 7 unknown #
face $-1 $119 $120 $16 $-1 $121 reversed single #
loop $-1 $-1 $122 $44 #
plane-surface $-1 0 -17.463064541568649 -7.0614381731389653 0 -1 0 0 0 -1 forward_v I I I I #
coedge $-1 $123 $124 $125 $126 reversed $45 $-1 #
coedge $-1 $127 $47 $128 $129 forward $29 $-1 #
coedge $-1 $47 $127 $130 $131 reversed $29 $-1 #
coedge $-1 $132 $133 $47 $76 forward $134 $-1 #
edge $-1 $135 6.1030203039802675 $136 16.617068171196493 $75 $137 forward 7 unknown #
face $-1 $138 $139 $17 $-1 $140 reversed single #
loop $-1 $-1 $141 $48 #
plane-surface $-1 0 17.463064541568652 -7.0614381731389653 0 1 0 0 0 1 forward_v I I I I #
coedge $-1 $142 $143 $144 $145 reversed $49 $-1 #
coedge $-1 $146 $51 $147 $148 reversed $32 $-1 #
coedge $-1 $51 $146 $149 $150 forward $32 $-1 #
coedge $-1 $151 $152 $51 $84 forward $139 $-1 #
edge $-1 $153 -16.617068171196497 $154 -6.1030203039802693 $83 $155 forward 7 unknown #
face $-1 $156 $157 $18 $-1 $158 forward single #
loop $-1 $-1 $159 $52 #
plane-surface $-1 61.903041425152168 11.708740307388084 140.79058796454066 0 -1 0 -0.7660444514056185 0 -0.64278759981090561 forward_v I I I I #
coedge $-1 $160 $161 $162 $163 reversed $53 $-1 #
coedge $-1 $90 $55 $164 $165 reversed $35 $-1 #
coedge $-1 $55 $89 $160 $166 reversed $35 $-1 #
coedge $-1 $162 $167 $55 $92 forward $168 $-1 #
edge $-1 $169 60.915930748039173 $170 69.532552144721848 $91 $171 forward 7 unknown #
loop $-1 $-1 $98 $56 #
plane-surface $-1 -14.181932671059172 8.5894387782009858 76.94771593375981 0.7660444514056185 0 0.64278759981090561 0.64278759981090561 0 -0.7660444514056185 forward_v I I I I #
loop $-1 $-1 $172 $37 #
coedge $-1 $96 $96 $97 $173 reversed $57 $-1 #
coedge $-1 $97 $97 $96 $173 forward $59 $-1 #
coedge $-1 $98 $98 $60 $99 forward $93 $-1 #
edge $-1 $174 0 $174 6.2831853071796004 $98 $175 forward 7 unknown #
face $-1 $176 $177 $15 $-1 $178 reversed single #
loop $-1 $-1 $179 $61 #
plane-surface $-1 -49.660939359721667 0 0 1 0 0 0 0 -1 forward_v I I I I #
coedge $-1 $180 $111 $181 $182 forward $62 $-1 #
coedge $-1 $183 $64 $180 $184 forward $41 $-1 #
coedge $-1 $64 $183 $185 $186 forward $41 $-1 #
coedge $-1 $114 $113 $64 $107 reversed $115 $-1 #
edge $-1 $187 -27.977112408784876 $188 27.977112408784876 $106 $189 forward 7 unknown #
coedge $-1 $66 $65 $190 $191 forward $26 $-1 #
coedge $-1 $192 $193 $65 $110 reversed $177 $-1 #
edge $-1 $117 -49.660939359721667 $194 49.660939359721667 $109 $195 forward 7 unknown #
coedge $-1 $103 $196 $66 $112 reversed $62 $-1 #
edge $-1 $197 -49.660939359721667 $116 49.660939359721667 $111 $198 forward 7 unknown #
coedge $-1 $106 $67 $196 $199 forward $115 $-1 #
coedge $-1 $67 $106 $192 $200 reversed $115 $-1 #
loop $-1 $-1 $113 $176 #
vertex $-1 $68 $201 #
vertex $-1 $68 $202 #
straight-curve $-1 49.660939359721667 0 9.4793632342311565 0 1 0 I I #
face $-1 $203 $204 $16 $-1 $205 reversed single #
loop $-1 $-1 $206 $69 #
plane-surface $-1 -49.660939359721667 0 0 1 0 0 0 0 -1 forward_v I I I I #
coedge $-1 $207 $128 $133 $208 reversed $70 $-1 #
coedge $-1 $209 $72 $210 $211 reversed $45 $-1 #
coedge $-1 $72 $209 $207 $212 forward $45 $-1 #
coedge $-1 $133 $132 $72 $126 forward $134 $-1 #
edge $-1 $213 -16.617068171196493 $214 -6.1030203039802675 $125 $215 forward 7 unknown #
coedge $-1 $74 $73 $206 $216 reversed $29 $-1 #
coedge $-1 $122 $217 $73 $129 reversed $70 $-1 #
edge $-1 $135 -49.660939359721667 $218 49.660939359721667 $128 $219 forward 7 unknown #
coedge $-1 $220 $221 $74 $131 forward $204 $-1 #
edge $-1 $136 -49.660939359721667 $222 49.660939359721667 $130 $223 forward 7 unknown #
coedge $-1 $125 $75 $221 $224 forward $134 $-1 #
coedge $-1 $75 $125 $122 $208 forward $134 $-1 #
loop $-1 $-1 $75 $203 #
vertex $-1 $76 $225 #
vertex $-1 $224 $226 #
straight-curve $-1 49.660939359721667 -11.360044237588381 -5.2940418961868971 0 -1 0 I I #
face $-1 $227 $228 $17 $-1 $229 reversed single #
loop $-1 $-1 $83 $77 #
plane-surface $-1 49.660939359721667 0 0 -1 0 0 0 0 1 forward_v I I I I #
coedge $-1 $230 $149 $231 $232 reversed $78 $-1 #
coedge $-1 $233 $80 $230 $234 forward $49 $-1 #
coedge $-1 $80 $233 $235 $236 reversed $49 $-1 #
coedge $-1 $152 $151 $80 $145 forward $139 $-1 #
edge $-1 $237 6.1030203039802693 $238 16.617068171196497 $144 $239 forward 7 unknown #
coedge $-1 $82 $81 $240 $241 reversed $32 $-1 #
coedge $-1 $242 $243 $81 $148 forward $244 $-1 #
edge $-1 $245 -49.660939359721667 $153 49.660939359721667 $147 $246 forward 7 unknown #
coedge $-1 $141 $247 $82 $150 reversed $78 $-1 #
edge $-1 $248 -49.660939359721667 $154 49.660939359721667 $149 $249 forward 7 unknown #
coedge $-1 $144 $83 $247 $250 forward $139 $-1 #
coedge $-1 $83 $144 $242 $251 reversed $139 $-1 #
vertex $-1 $251 $252 #
vertex $-1 $84 $253 #
straight-curve $-1 49.660939359721667 11.360044237588383 -5.2940418961868971 0 -1 0 I I #
face $-1 $-1 $168 $18 $-1 $254 reversed single #
loop $-1 $-1 $255 $85 #
plane-surface $-1 0 0 9.4793632342311565 0 0 1 1 0 0 forward_v I I I I #
coedge $-1 $256 $257 $258 $259 reversed $86 $-1 #
coedge $-1 $260 $88 $90 $166 forward $53 $-1 #
coedge $-1 $88 $260 $256 $261 forward $53 $-1 #
coedge $-1 $258 $91 $88 $163 forward $168 $-1 #
edge $-1 $170 1.1754178599133951 $262 7.4140209182875907 $162 $263 forward 7 unknown #
coedge $-1 $264 $265 $89 $165 forward $157 $-1 #
edge $-1 $266 11.479215000490292 $169 18.709418647145583 $164 $267 forward 7 unknown #
edge $-1 $170 -99.321878719443347 $266 -88.073678460474028 $90 $268 forward 7 unknown #
coedge $-1 $91 $258 $264 $269 reversed $168 $-1 #
loop $-1 $-1 $258 $156 #
vertex $-1 $269 $270 #
vertex $-1 $92 $271 #
straight-curve $-1 49.660939359721667 5.470137249013888 70.395293982270331 0 0 -1 I I #
coedge $-1 $172 $172 $-1 $272 reversed $95 $-1 #
edge $-1 $273 0 $273 6.2831853071796004 $96 $274 forward 7 unknown #
vertex $-1 $99 $275 #
ellipse-curve $-1 46.045837536394025 8.5894387782009858 5.1710525358898147 0.7660444514056185 0 0.64278759981090561 0.3213937999054528 0 -0.38302222570280925 1 I I #
face $-1 $-1 $115 $15 $-1 $276 reversed single #
loop $-1 $-1 $192 $100 #
plane-surface $-1 0 27.977112408784876 0 0 -1 0 0 0 -1 forward_v I I I I #
coedge $-1 $277 $190 $193 $278 forward $101 $-1 #
coedge $-1 $196 $103 $104 $184 reversed $62 $-1 #
coedge $-1 $190 $277 $103 $182 reversed $101 $-1 #
edge $-1 $197 -9.4793632342311565 $279 9.4793632342311565 $181 $280 forward 7 unknown #
coedge $-1 $105 $104 $277 $281 forward $41 $-1 #
edge $-1 $188 -49.660939359721667 $279 49.660939359721667 $180 $282 forward 7 unknown #
coedge $-1 $193 $192 $105 $186 reversed $177 $-1 #
edge $-1 $283 -49.660939359721667 $187 49.660939359721667 $185 $284 forward 7 unknown #
vertex $-1 $107 $285 #
vertex $-1 $199 $286 #
straight-curve $-1 49.660939359721667 0 -9.4793632342311565 0 -1 0 I I #
coedge $-1 $179 $181 $108 $191 reversed $101 $-1 #
edge $-1 $194 -27.977112408784876 $197 27.977112408784876 $190 $287 forward 7 unknown #
coedge $-1 $185 $109 $114 $200 forward $177 $-1 #
coedge $-1 $109 $185 $179 $278 reversed $177 $-1 #
vertex $-1 $110 $288 #
straight-curve $-1 0 27.977112408784876 9.4793632342311565 -1 0 0 I I #
coedge $-1 $111 $180 $113 $199 reversed $62 $-1 #
vertex $-1 $191 $289 #
straight-curve $-1 0 -27.977112408784876 9.4793632342311565 1 0 0 I I #
edge $-1 $116 -9.4793632342311565 $188 9.4793632342311565 $113 $290 forward 7 unknown #
edge $-1 $117 -9.4793632342311565 $187 9.4793632342311565 $114 $291 forward 7 unknown #
point $-1 49.660939359721667 -27.977112408784876 9.4793632342311565 #
point $-1 49.660939359721667 27.977112408784876 9.4793632342311565 #
face $-1 $-1 $134 $16 $-1 $292 reversed single #
loop $-1 $-1 $130 $119 #
plane-surface $-1 0 -27.977112408784876 0 0 1 0 0 0 1 forward_v I I I I #
coedge $-1 $293 $294 $127 $216 forward $120 $-1 #
coedge $-1 $217 $122 $124 $212 reversed $70 $-1 #
edge $-1 $214 -5.2981153635215508 $135 -1.7633228096174145 $133 $295 forward 7 unknown #
coedge $-1 $124 $123 $296 $297 reversed $45 $-1 #
coedge $-1 $221 $220 $123 $211 forward $204 $-1 #
edge $-1 $298 -49.660939359721667 $213 49.660939359721667 $210 $299 forward 7 unknown #
edge $-1 $300 -49.660939359721667 $214 49.660939359721667 $207 $301 forward 7 unknown #
vertex $-1 $211 $302 #
vertex $-1 $126 $303 #
straight-curve $-1 49.660939359721667 -11.360044237588381 -8.8288344500910334 0 1 0 I I #
edge $-1 $222 -16.617068171196493 $218 -6.1030203039802675 $206 $304 forward 7 unknown #
coedge $-1 $128 $207 $293 $305 reversed $70 $-1 #
vertex $-1 $216 $306 #
straight-curve $-1 0 -17.463064541568649 -5.2940418961868971 -1 0 0 I I #
coedge $-1 $210 $130 $294 $307 forward $204 $-1 #
coedge $-1 $130 $210 $132 $224 reversed $204 $-1 #
vertex $-1 $307 $308 #
straight-curve $-1 0 -27.977112408784876 -5.2940418961868971 -1 0 0 I I #
edge $-1 $136 5.2940418961868971 $213 8.8288344500910334 $132 $309 forward 7 unknown #
point $-1 49.660939359721667 -17.463064541568649 -5.2940418961868971 #
point $-1 49.660939359721667 -27.977112408784876 -5.2940418961868971 #
face $-1 $-1 $244 $17 $-1 $310 reversed single #
loop $-1 $-1 $240 $138 #
plane-surface $-1 -49.660939359721667 0 0 1 0 0 0 0 -1 forward_v I I I I #
coedge $-1 $247 $141 $142 $234 reversed $78 $-1 #
coedge $-1 $240 $311 $141 $232 forward $228 $-1 #
edge $-1 $312 -5.2981153635215508 $248 -1.7633228096174145 $231 $313 forward 7 unknown #
coedge $-1 $143 $142 $311 $314 reversed $49 $-1 #
edge $-1 $237 -49.660939359721667 $312 49.660939359721667 $230 $315 forward 7 unknown #
coedge $-1 $243 $242 $143 $236 forward $244 $-1 #
edge $-1 $238 -49.660939359721667 $316 49.660939359721667 $235 $317 forward 7 unknown #
vertex $-1 $145 $318 #
vertex $-1 $236 $319 #
straight-curve $-1 49.660939359721667 11.360044237588383 -8.8288344500910334 0 1 0 I I #
coedge $-1 $320 $231 $146 $241 forward $228 $-1 #
edge $-1 $248 6.1030203039802693 $245 16.617068171196497 $240 $321 forward 7 unknown #
coedge $-1 $235 $147 $152 $251 forward $244 $-1 #
coedge $-1 $147 $235 $320 $322 reversed $244 $-1 #
loop $-1 $-1 $147 $227 #
vertex $-1 $322 $323 #
straight-curve $-1 0 27.977112408784876 -5.2940418961868971 1 0 0 I I #
coedge $-1 $149 $230 $151 $250 reversed $78 $-1 #
vertex $-1 $241 $324 #
straight-curve $-1 0 17.463064541568652 -5.2940418961868971 1 0 0 I I #
edge $-1 $154 1.7633228096174145 $237 5.2981153635215508 $151 $325 forward 7 unknown #
edge $-1 $153 5.2940418961868971 $238 8.8288344500910334 $152 $326 forward 7 unknown #
point $-1 49.660939359721667 27.97711240878488 -5.2940418961868971 #
point $-1 49.660939359721667 17.463064541568652 -5.2940418961868971 #
plane-surface $-1 49.660939359721667 0 0 -1 0 0 0 0 1 forward_v I I I I #
coedge $-1 $265 $264 $257 $327 forward $157 $-1 #
coedge $-1 $257 $159 $161 $261 reversed $86 $-1 #
coedge $-1 $159 $256 $255 $327 reversed $86 $-1 #
coedge $-1 $167 $162 $159 $259 forward $168 $-1 #
edge $-1 $262 -69.532552144721848 $328 -60.915930748039173 $258 $329 forward 7 unknown #
coedge $-1 $161 $160 $265 $330 reversed $53 $-1 #
edge $-1 $331 88.073678460474028 $262 99.321878719443347 $256 $332 forward 7 unknown #
vertex $-1 $163 $333 #
straight-curve $-1 49.660939359721667 4.2947193891004929 0.86274183754847655 0 1 0 I I #
coedge $-1 $255 $164 $167 $269 forward $157 $-1 #
coedge $-1 $164 $255 $260 $330 forward $157 $-1 #
vertex $-1 $165 $334 #
straight-curve $-1 30.951520712576084 5.470137249013888 9.4793632342311582 1 0 0 I I #
straight-curve $-1 -14.181932671059172 5.470137249013888 76.94771593375981 -0.64278759981090561 0 0.7660444514056185 I I #
edge $-1 $169 5.470137249013888 $328 11.708740307388084 $167 $335 forward 7 unknown #
point $-1 49.660939359721667 5.470137249013888 9.4793632342311565 #
point $-1 49.660939359721667 5.470137249013888 0.86274183754848366 #
edge $-1 $336 1 $336 0 $172 $-1 forward 7 unknown #
vertex $-1 $173 $337 #
ellipse-curve $-1 44.589845764517129 8.5894387782009858 3.949330409096905 0.7660444514056185 0 0.64278759981090561 0.3213937999054528 0 -0.38302222570280925 1 I I #
point $-1 46.367231336299483 8.5894387782009858 4.7880303101870085 #
plane-surface $-1 49.660939359721667 0 0 -1 0 0 0 0 1 forward_v I I I I #
coedge $-1 $181 $179 $183 $281 reversed $101 $-1 #
edge $-1 $194 -9.4793632342311565 $283 9.4793632342311565 $193 $338 forward 7 unknown #
vertex $-1 $281 $339 #
straight-curve $-1 -49.660939359721667 -27.977112408784876 0 0 0 -1 I I #
edge $-1 $279 -27.977112408784876 $283 27.977112408784876 $277 $340 forward 7 unknown #
straight-curve $-1 0 -27.977112408784876 -9.4793632342311565 -1 0 0 I I #
vertex $-1 $186 $341 #
straight-curve $-1 0 27.977112408784876 -9.4793632342311565 1 0 0 I I #
point $-1 49.660939359721667 27.977112408784876 -9.4793632342311565 #
point $-1 49.660939359721667 -27.977112408784876 -9.4793632342311565 #
straight-curve $-1 -49.660939359721667 0 9.4793632342311565 0 -1 0 I I #
point $-1 -49.660939359721667 27.977112408784876 9.4793632342311565 #
point $-1 -49.660939359721667 -27.977112408784876 9.4793632342311565 #
straight-curve $-1 49.660939359721667 -27.977112408784876 0 0 0 -1 I I #
straight-curve $-1 49.660939359721667 27.977112408784876 0 0 0 -1 I I #
plane-surface $-1 49.660939359721667 0 0 -1 0 0 0 0 1 forward_v I I I I #
coedge $-1 $296 $206 $217 $305 forward $120 $-1 #
coedge $-1 $206 $296 $220 $307 reversed $120 $-1 #
straight-curve $-1 49.660939359721667 -17.463064541568649 -3.5307190865694826 0 0 1 I I #
coedge $-1 $294 $293 $209 $297 forward $120 $-1 #
edge $-1 $300 6.1030203039802675 $298 16.617068171196493 $296 $342 forward 7 unknown #
vertex $-1 $211 $343 #
straight-curve $-1 0 -27.977112408784876 -8.8288344500910334 1 0 0 I I #
vertex $-1 $297 $344 #
straight-curve $-1 0 -17.463064541568649 -8.8288344500910334 1 0 0 I I #
point $-1 49.660939359721667 -27.977112408784876 -8.8288344500910334 #
point $-1 49.660939359721667 -17.463064541568649 -8.8288344500910334 #
straight-curve $-1 -49.660939359721667 -11.360044237588381 -5.2940418961868971 0 1 0 I I #
edge $-1 $218 1.7633228096174145 $300 5.2981153635215508 $293 $345 forward 7 unknown #
point $-1 -49.660939359721667 -17.463064541568649 -5.2940418961868971 #
edge $-1 $222 5.2940418961868971 $298 8.8288344500910334 $294 $346 forward 7 unknown #
point $-1 -49.660939359721667 -27.977112408784876 -5.2940418961868971 #
straight-curve $-1 49.660939359721667 -27.977112408784876 0 0 0 -1 I I #
plane-surface $-1 0 27.977112408784876 0 0 -1 0 0 0 -1 forward_v I I I I #
coedge $-1 $231 $320 $233 $314 forward $228 $-1 #
vertex $-1 $314 $347 #
straight-curve $-1 -49.660939359721667 17.463064541568652 -3.5307190865694826 0 0 1 I I #
edge $-1 $316 -16.617068171196497 $312 -6.1030203039802693 $311 $348 forward 7 unknown #
straight-curve $-1 0 17.463064541568652 -8.8288344500910334 -1 0 0 I I #
vertex $-1 $236 $349 #
straight-curve $-1 0 27.977112408784876 -8.8288344500910334 -1 0 0 I I #
point $-1 49.660939359721667 17.463064541568652 -8.8288344500910334 #
point $-1 49.660939359721667 27.97711240878488 -8.8288344500910334 #
coedge $-1 $311 $240 $243 $322 forward $228 $-1 #
straight-curve $-1 -49.660939359721667 11.360044237588383 -5.2940418961868971 0 1 0 I I #
edge $-1 $245 5.2940418961868971 $316 8.8288344500910334 $243 $350 forward 7 unknown #
point $-1 -49.660939359721667 27.97711240878488 -5.2940418961868971 #
point $-1 -49.660939359721667 17.463064541568652 -5.2940418961868971 #
straight-curve $-1 49.660939359721667 17.463064541568652 -3.5307190865694826 0 0 -1 I I #
straight-curve $-1 49.660939359721667 27.977112408784876 0 0 0 -1 I I #
edge $-1 $328 -18.709418647145583 $331 -11.479215000490292 $255 $351 forward 7 unknown #
vertex $-1 $327 $352 #
straight-curve $-1 49.660939359721667 11.708740307388084 70.395293982270331 0 0 1 I I #
edge $-1 $331 -7.4140209182875907 $266 -1.1754178599133951 $265 $353 forward 7 unknown #
vertex $-1 $330 $354 #
straight-curve $-1 -14.181932671059172 11.708740307388084 76.94771593375981 0.64278759981090561 0 -0.7660444514056185 I I #
point $-1 49.660939359721667 11.708740307388084 0.86274183754848366 #
point $-1 42.430735713066376 5.470137249013888 9.4793632342311582 #
straight-curve $-1 49.660939359721667 0 9.4793632342311565 0 1 0 I I #
vertex $-1 $272 $355 #
point $-1 44.91123956442258 8.5894387782009858 3.5663081833940957 #
straight-curve $-1 -49.660939359721667 27.977112408784876 0 0 0 -1 I I #
point $-1 -49.660939359721667 -27.977112408784876 -9.4793632342311565 #
straight-curve $-1 -49.660939359721667 0 -9.4793632342311565 0 1 0 I I #
point $-1 -49.660939359721667 27.977112408784876 -9.4793632342311565 #
straight-curve $-1 -49.660939359721667 -11.360044237588381 -8.8288344500910334 0 -1 0 I I #
point $-1 -49.660939359721667 -27.977112408784876 -8.8288344500910334 #
point $-1 -49.660939359721667 -17.463064541568649 -8.8288344500910334 #
straight-curve $-1 -49.660939359721667 -17.463064541568649 -3.5307190865694826 0 0 -1 I I #
straight-curve $-1 -49.660939359721667 -27.977112408784876 0 0 0 -1 I I #
point $-1 -49.660939359721667 17.463064541568652 -8.8288344500910334 #
straight-curve $-1 -49.660939359721667 11.360044237588383 -8.8288344500910334 0 -1 0 I I #
point $-1 -49.660939359721667 27.97711240878488 -8.8288344500910334 #
straight-curve $-1 -49.660939359721667 27.977112408784876 0 0 0 -1 I I #
straight-curve $-1 30.951520712576084 11.708740307388084 9.4793632342311582 -1 0 0 I I #
point $-1 49.660939359721667 11.708740307388084 9.4793632342311565 #
straight-curve $-1 42.430735713066362 4.2947193891004929 9.4793632342311582 0 -1 0 I I #
point $-1 42.430735713066376 11.708740307388084 9.4793632342311582 #
point $-1 44.206823538814312 8.5894387782009858 3.6279366091914516 #
End-of-ACIS-data 