500 0 8 0           
7 Unknown 11 ACIS 5.0 NT 24 Thu Mar 25 21:40:12 1999 
-1 9.9999999999999995e-007 1e-010 
body $-1 $8 $-1 $9 #
body $-1 $10 $-1 $11 #
body $-1 $12 $-1 $13 #
body $-1 $14 $-1 $15 #
body $-1 $16 $-1 $17 #
body $-1 $18 $-1 $19 #
body $-1 $20 $-1 $21 #
body $-1 $22 $-1 $23 #
lump $-1 $-1 $24 $0 #
transform $-1 1 0 0 0 1 0 0 0 1 63.220923490096745 28.354971031683089 13.32520087064654 1 rotate no_reflect no_shear #
lump $-1 $-1 $25 $1 #
transform $-1 1 0 0 0 1 0 0 0 1 63.220923490096745 28.354971031683089 13.32520087064654 1 rotate no_reflect no_shear #
lump $-1 $-1 $26 $2 #
transform $-1 1 0 0 0 1 0 0 0 1 63.220923490096745 28.354971031683089 13.32520087064654 1 rotate no_reflect no_shear #
lump $-1 $-1 $27 $3 #
transform $-1 1 0 0 0 1 0 0 0 1 63.220923490096745 28.354971031683089 13.32520087064654 1 rotate no_reflect no_shear #
lump $-1 $-1 $28 $4 #
transform $-1 1 0 0 0 1 0 0 0 1 63.220923490096745 28.354971031683089 13.32520087064654 1 rotate no_reflect no_shear #
lump $-1 $-1 $29 $5 #
transform $-1 1 0 0 0 1 0 0 0 1 63.220923490096745 28.354971031683089 13.32520087064654 1 rotate no_reflect no_shear #
lump $-1 $-1 $30 $6 #
transform $-1 1 0 0 0 1 0 0 0 1 63.220923490096745 28.354971031683089 13.32520087064654 1 rotate no_reflect no_shear #
lump $-1 $-1 $31 $7 #
transform $-1 1 0 0 0 1 0 0 0 1 63.220923490096745 28.354971031683089 13.32520087064654 1 rotate no_reflect no_shear #
shell $-1 $-1 $-1 $32 $-1 $8 #
shell $-1 $-1 $-1 $33 $-1 $10 #
shell $-1 $-1 $-1 $34 $-1 $12 #
shell $-1 $-1 $-1 $35 $-1 $14 #
shell $-1 $-1 $-1 $36 $-1 $16 #
shell $-1 $-1 $-1 $37 $-1 $18 #
shell $-1 $-1 $-1 $38 $-1 $20 #
shell $-1 $-1 $-1 $39 $-1 $22 #
face $-1 $40 $41 $24 $-1 $42 forward single #
face $-1 $43 $44 $25 $-1 $45 forward single #
face $-1 $46 $47 $26 $-1 $48 forward single #
face $-1 $49 $50 $27 $-1 $51 reversed single #
face $-1 $52 $53 $28 $-1 $54 forward single #
face $-1 $55 $56 $29 $-1 $57 reversed single #
face $-1 $58 $59 $30 $-1 $60 forward single #
face $-1 $61 $62 $31 $-1 $63 forward single #
face $-1 $64 $65 $24 $-1 $66 reversed single #
loop $-1 $-1 $67 $32 #
plane-surface $-1 0 0 13.32520087064654 0 0 1 1 0 0 forward_v I I I I #
face $-1 $68 $69 $25 $-1 $70 reversed single #
loop $-1 $-1 $71 $33 #
plane-surface $-1 -56.467465900364473 0 -6.5774040614593083 0 0 1 1 0 0 forward_v I I I I #
face $-1 $72 $73 $26 $-1 $74 reversed single #
loop $-1 $-1 $75 $34 #
plane-surface $-1 56.467465900364481 0 -6.5774040614593083 0 0 1 1 0 0 forward_v I I I I #
face $-1 $76 $77 $27 $-1 $78 reversed single #
loop $-1 $-1 $79 $35 #
plane-surface $-1 -21.876166357290675 109.50185332407419 114.26069899209377 -1 0 0 0 0.86602541151947299 0.49999998660252726 forward_v I I I I #
face $-1 $80 $81 $28 $-1 $82 forward single #
loop $-1 $83 $84 $36 #
cone-surface $-1 -35.795087333961433 23.810684706585523 6.9023310331371022 0 -0.86602541151947299 -0.49999998660252726 1.5 0 0 1 I I 0 1 1.5 forward I I I I #
face $-1 $85 $86 $29 $-1 $87 reversed single #
loop $-1 $-1 $88 $37 #
plane-surface $-1 -49.714008310632195 -117.76285949448932 89.408201497827577 1 0 0 0 0.70710678939079041 -0.70710677298230451 forward_v I I I I #
face $-1 $89 $90 $30 $-1 $91 forward single #
loop $-1 $92 $93 $38 #
cone-surface $-1 -46.443537522510042 -20.727051424194361 5.6972811309591327 0 0.70710678939079041 -0.70710677298230451 1.5 0 0 1 I I 0 1 1.5 forward I I I I #
face $-1 $94 $95 $31 $-1 $96 forward single #
loop $-1 $97 $98 $39 #
cone-surface $-1 -41.537831340326804 -20.727051424194361 5.6972811309591327 0 0.70710678939079041 -0.70710677298230451 1.5 0 0 1 I I 0 1 1.5 forward I I I I #
face $-1 $99 $100 $24 $-1 $101 reversed single #
loop $-1 $-1 $102 $40 #
plane-surface $-1 0 0 -13.32520087064654 0 0 1 1 0 0 forward_v I I I I #
coedge $-1 $103 $104 $105 $106 forward $41 $-1 #
face $-1 $107 $108 $25 $-1 $109 reversed single #
loop $-1 $-1 $110 $43 #
plane-surface $-1 -49.714008310632195 0 -9.9513024660529243 -1 0 0 0 0 1 forward_v I I I I #
coedge $-1 $111 $112 $113 $114 forward $44 $-1 #
face $-1 $115 $116 $26 $-1 $117 reversed single #
loop $-1 $-1 $118 $46 #
plane-surface $-1 49.714008310632209 0 -9.9513024660529243 1 0 0 0 0 -1 forward_v I I I I #
coedge $-1 $119 $120 $121 $122 reversed $47 $-1 #
face $-1 $123 $124 $27 $-1 $125 reversed single #
loop $-1 $-1 $126 $49 #
plane-surface $-1 -35.795087333961433 7.5976988966885983e-007 51.039777195998219 0 0.86602541151947299 0.49999998660252726 1 0 0 forward_v I I I I #
coedge $-1 $127 $128 $129 $130 reversed $50 $-1 #
face $-1 $-1 $131 $28 $-1 $132 forward single #
loop $-1 $133 $134 $52 #
cone-surface $-1 -35.795087333961433 21.90710445086243 5.8032984993360088 0 -0.86602541151947299 -0.49999998660252726 0.75 0 0 1 I I -0.70710678118654757 0.70710678118654757 0.75 forward I I I I #
loop $-1 $-1 $135 $36 #
coedge $-1 $84 $84 $136 $137 reversed $53 $-1 #
face $-1 $138 $139 $29 $-1 $140 reversed single #
loop $-1 $-1 $141 $55 #
plane-surface $-1 -43.990684431418416 -28.354971031683078 0.00031510974059756336 0 -0.70710678939079041 0.70710677298230451 1 0 0 forward_v I I I I #
coedge $-1 $142 $143 $144 $145 reversed $56 $-1 #
face $-1 $-1 $146 $30 $-1 $147 forward single #
loop $-1 $148 $149 $58 #
cone-surface $-1 -46.443537522510042 -19.231244450512833 4.201474191987959 0 0.70710678939079041 -0.70710677298230451 0.75 0 0 1 I I -0.70710678118654757 0.70710678118654757 0.75 forward I I I I #
loop $-1 $-1 $150 $38 #
coedge $-1 $93 $93 $151 $152 reversed $59 $-1 #
face $-1 $-1 $153 $31 $-1 $154 forward single #
loop $-1 $155 $156 $61 #
cone-surface $-1 -41.537831340326804 -19.231244450512833 4.201474191987959 0 0.70710678939079041 -0.70710677298230451 0.75 0 0 1 I I -0.70710678118654757 0.70710678118654757 0.75 forward I I I I #
loop $-1 $-1 $157 $39 #
coedge $-1 $98 $98 $158 $159 reversed $62 $-1 #
face $-1 $160 $161 $24 $-1 $162 reversed single #
loop $-1 $-1 $163 $64 #
plane-surface $-1 0 -28.354971031683089 0 0 1 0 0 0 1 forward_v I I I I #
coedge $-1 $164 $165 $166 $167 forward $65 $-1 #
coedge $-1 $168 $67 $169 $170 forward $41 $-1 #
coedge $-1 $67 $168 $171 $172 forward $41 $-1 #
coedge $-1 $173 $174 $67 $106 reversed $175 $-1 #
edge $-1 $176 -28.354971031683089 $177 28.354971031683089 $105 $178 forward 7 unknown #
face $-1 $179 $180 $25 $-1 $181 reversed single #
loop $-1 $-1 $182 $68 #
plane-surface $-1 0 0 -13.32520087064654 0 0 1 1 0 0 forward_v I I I I #
coedge $-1 $183 $113 $184 $185 reversed $69 $-1 #
coedge $-1 $186 $71 $187 $188 reversed $44 $-1 #
coedge $-1 $71 $186 $189 $190 reversed $44 $-1 #
coedge $-1 $110 $191 $71 $114 reversed $69 $-1 #
edge $-1 $192 -28.354971031683089 $193 28.354971031683089 $113 $194 forward 7 unknown #
face $-1 $195 $196 $26 $-1 $197 reversed single #
loop $-1 $-1 $198 $72 #
plane-surface $-1 0 -28.354971031683089 0 0 1 0 0 0 1 forward_v I I I I #
coedge $-1 $199 $200 $201 $202 reversed $73 $-1 #
coedge $-1 $203 $75 $204 $205 reversed $47 $-1 #
coedge $-1 $75 $203 $198 $206 reversed $47 $-1 #
coedge $-1 $207 $208 $75 $122 forward $209 $-1 #
edge $-1 $210 -28.354971031683089 $211 28.354971031683089 $121 $212 forward 7 unknown #
face $-1 $213 $214 $27 $-1 $215 reversed single #
loop $-1 $-1 $216 $76 #
plane-surface $-1 -49.714008310632195 109.50185332407419 114.26069899209377 1 0 0 0 -0.86602541151947299 -0.49999998660252726 forward_v I I I I #
coedge $-1 $217 $218 $219 $220 reversed $77 $-1 #
coedge $-1 $128 $79 $221 $222 reversed $50 $-1 #
coedge $-1 $79 $127 $217 $223 reversed $50 $-1 #
coedge $-1 $219 $224 $79 $130 forward $214 $-1 #
edge $-1 $225 43.805148625400342 $226 55.202823212720851 $129 $227 forward 7 unknown #
loop $-1 $-1 $136 $80 #
plane-surface $-1 -35.795087333961433 7.5976988966885983e-007 51.039777195998219 0 0.86602541151947299 0.49999998660252726 1 0 0 forward_v I I I I #
loop $-1 $-1 $228 $52 #
coedge $-1 $134 $134 $135 $229 reversed $81 $-1 #
coedge $-1 $135 $135 $134 $229 forward $83 $-1 #
coedge $-1 $136 $136 $84 $137 forward $131 $-1 #
edge $-1 $230 -1.2210546575725876e-015 $230 6.2831853071795996 $136 $231 forward 7 unknown #
face $-1 $232 $233 $29 $-1 $234 forward single #
loop $-1 $-1 $235 $85 #
plane-surface $-1 -38.267360552204636 -117.76285949448932 89.408201497827577 -1 0 0 0 -0.70710678939079041 0.70710677298230451 forward_v I I I I #
coedge $-1 $236 $237 $238 $239 reversed $86 $-1 #
coedge $-1 $143 $88 $240 $241 reversed $56 $-1 #
coedge $-1 $88 $142 $236 $242 reversed $56 $-1 #
coedge $-1 $238 $243 $88 $145 forward $244 $-1 #
edge $-1 $245 31.378899878267248 $246 44.703785639173205 $144 $247 forward 7 unknown #
loop $-1 $-1 $151 $89 #
plane-surface $-1 -43.990684431418416 -28.354971031683078 0.00031510974059756336 0 -0.70710678939079041 0.70710677298230451 1 0 0 forward_v I I I I #
loop $-1 $-1 $248 $58 #
coedge $-1 $149 $149 $150 $249 reversed $90 $-1 #
coedge $-1 $150 $150 $149 $249 forward $92 $-1 #
coedge $-1 $151 $151 $93 $152 forward $146 $-1 #
edge $-1 $250 8.3738277093642622e-016 $250 6.2831853071796013 $151 $251 forward 7 unknown #
loop $-1 $-1 $158 $94 #
plane-surface $-1 -43.990684431418416 -28.354971031683078 0.00031510974059756336 0 -0.70710678939079041 0.70710677298230451 1 0 0 forward_v I I I I #
loop $-1 $-1 $252 $61 #
coedge $-1 $156 $156 $157 $253 reversed $95 $-1 #
coedge $-1 $157 $157 $156 $253 forward $97 $-1 #
coedge $-1 $158 $158 $98 $159 forward $153 $-1 #
edge $-1 $254 8.3738277093642622e-016 $254 6.2831853071796013 $158 $255 forward 7 unknown #
face $-1 $256 $257 $24 $-1 $258 reversed single #
loop $-1 $-1 $259 $99 #
plane-surface $-1 -63.220923490096745 0 0 1 0 0 0 0 -1 forward_v I I I I #
coedge $-1 $260 $171 $261 $262 forward $100 $-1 #
coedge $-1 $263 $102 $260 $264 forward $65 $-1 #
coedge $-1 $102 $263 $265 $266 forward $65 $-1 #
coedge $-1 $174 $173 $102 $167 reversed $175 $-1 #
edge $-1 $267 -28.354971031683089 $268 28.354971031683089 $166 $269 forward 7 unknown #
coedge $-1 $104 $103 $270 $271 forward $41 $-1 #
coedge $-1 $272 $273 $103 $170 reversed $257 $-1 #
edge $-1 $177 -63.220923490096745 $274 63.220923490096745 $169 $275 forward 7 unknown #
coedge $-1 $163 $276 $104 $172 reversed $100 $-1 #
edge $-1 $277 -63.220923490096745 $176 63.220923490096745 $171 $278 forward 7 unknown #
coedge $-1 $166 $105 $276 $279 forward $175 $-1 #
coedge $-1 $105 $166 $272 $280 reversed $175 $-1 #
loop $-1 $-1 $173 $256 #
vertex $-1 $106 $281 #
vertex $-1 $106 $282 #
straight-curve $-1 63.220923490096745 0 13.32520087064654 0 1 0 I I #
face $-1 $283 $284 $25 $-1 $285 reversed single #
loop $-1 $-1 $184 $107 #
plane-surface $-1 0 -28.354971031683089 0 0 1 0 0 0 1 forward_v I I I I #
coedge $-1 $286 $287 $183 $288 forward $108 $-1 #
coedge $-1 $191 $110 $182 $288 reversed $69 $-1 #
coedge $-1 $189 $289 $110 $185 forward $180 $-1 #
edge $-1 $290 -8.3495496376200791 $192 -1.6017528284328462 $184 $291 forward 7 unknown #
coedge $-1 $112 $111 $292 $293 reversed $44 $-1 #
coedge $-1 $294 $295 $111 $188 forward $296 $-1 #
edge $-1 $297 -34.987190539914515 $193 -21.480275360449959 $187 $298 forward 7 unknown #
coedge $-1 $299 $184 $112 $190 forward $180 $-1 #
edge $-1 $192 21.480275360449959 $300 34.987190539914515 $189 $301 forward 7 unknown #
coedge $-1 $113 $183 $294 $302 reversed $69 $-1 #
vertex $-1 $190 $303 #
vertex $-1 $188 $304 #
straight-curve $-1 -49.714008310632195 0 -6.5774040614593083 0 1 0 I I #
face $-1 $305 $306 $26 $-1 $307 reversed single #
loop $-1 $-1 $308 $115 #
plane-surface $-1 0 0 -13.32520087064654 0 0 1 1 0 0 forward_v I I I I #
coedge $-1 $309 $310 $120 $206 forward $116 $-1 #
coedge $-1 $311 $118 $308 $312 reversed $73 $-1 #
coedge $-1 $118 $311 $203 $313 reversed $73 $-1 #
coedge $-1 $204 $314 $118 $202 forward $306 $-1 #
edge $-1 $315 -8.3495496376200791 $316 -1.6017528284328462 $201 $317 forward 7 unknown #
coedge $-1 $120 $119 $200 $313 forward $47 $-1 #
coedge $-1 $318 $201 $119 $205 forward $306 $-1 #
edge $-1 $316 21.480275360449969 $210 34.987190539914508 $204 $319 forward 7 unknown #
edge $-1 $211 -34.987190539914508 $320 -21.480275360449969 $198 $321 forward 7 unknown #
coedge $-1 $322 $121 $310 $323 forward $209 $-1 #
coedge $-1 $121 $322 $318 $324 reversed $209 $-1 #
loop $-1 $-1 $121 $305 #
vertex $-1 $324 $325 #
vertex $-1 $323 $326 #
straight-curve $-1 63.220923490096745 0 -6.5774040614593083 0 -1 0 I I #
face $-1 $-1 $327 $27 $-1 $328 forward single #
loop $-1 $-1 $129 $123 #
plane-surface $-1 0 28.354971031683089 0 0 -1 0 0 0 -1 forward_v I I I I #
coedge $-1 $329 $330 $331 $332 reversed $124 $-1 #
coedge $-1 $333 $126 $128 $223 forward $77 $-1 #
coedge $-1 $126 $333 $329 $334 forward $77 $-1 #
coedge $-1 $331 $129 $126 $220 forward $214 $-1 #
edge $-1 $226 3.9786226903099582 $335 31.816464643651479 $219 $336 forward 7 unknown #
coedge $-1 $337 $338 $127 $222 forward $327 $-1 #
edge $-1 $339 -32.976405886382182 $225 -26.395955630354006 $221 $340 forward 7 unknown #
edge $-1 $226 -56.709942063366199 $339 -43.549041198664241 $128 $341 forward 7 unknown #
coedge $-1 $129 $331 $337 $342 reversed $214 $-1 #
vertex $-1 $342 $343 #
vertex $-1 $130 $344 #
straight-curve $-1 -21.876166357290675 28.354971031683093 57.130349496046883 0 0 -1 I I #
coedge $-1 $228 $228 $-1 $345 reversed $133 $-1 #
edge $-1 $346 0 $346 6.2831853071796004 $134 $347 forward 7 unknown #
vertex $-1 $137 $348 #
ellipse-curve $-1 -35.795087333961433 25.064745903668999 7.6263635769862939 0 0.86602541151947299 0.49999998660252726 1.5 0 0 1 I I #
face $-1 $-1 $244 $29 $-1 $349 reversed single #
loop $-1 $-1 $350 $138 #
plane-surface $-1 0 0 13.32520087064654 0 0 1 1 0 0 forward_v I I I I #
coedge $-1 $351 $352 $353 $354 reversed $139 $-1 #
coedge $-1 $355 $141 $143 $242 forward $86 $-1 #
coedge $-1 $141 $355 $351 $356 forward $86 $-1 #
coedge $-1 $353 $144 $141 $239 forward $244 $-1 #
edge $-1 $246 -27.718666094922987 $357 -16.272018336495428 $238 $358 forward 7 unknown #
coedge $-1 $359 $360 $142 $241 forward $233 $-1 #
edge $-1 $361 -43.851344167262177 $245 -30.526458715561571 $240 $362 forward 7 unknown #
edge $-1 $246 -1.5072887603364246e-014 $361 18.844233941504132 $143 $363 forward 7 unknown #
coedge $-1 $144 $353 $359 $364 reversed $244 $-1 #
loop $-1 $-1 $353 $232 #
vertex $-1 $364 $365 #
vertex $-1 $145 $366 #
straight-curve $-1 -49.714008310632195 -28.354971031683093 44.704100748913788 0 0 -1 I I #
coedge $-1 $248 $248 $-1 $367 reversed $148 $-1 #
edge $-1 $368 0 $368 6.2831853071796004 $149 $369 forward 7 unknown #
vertex $-1 $152 $370 #
ellipse-curve $-1 -46.443537522510042 -21.692528305832784 6.6627579901935654 0 -0.70710678939079041 0.70710677298230451 1.5 0 0 1 I I #
coedge $-1 $252 $252 $-1 $371 reversed $155 $-1 #
edge $-1 $372 0 $372 6.2831853071796004 $156 $373 forward 7 unknown #
vertex $-1 $159 $374 #
ellipse-curve $-1 -41.537831340326804 -21.692528305832784 6.6627579901935654 0 -0.70710678939079041 0.70710677298230451 1.5 0 0 1 I I #
face $-1 $-1 $175 $24 $-1 $375 reversed single #
loop $-1 $-1 $272 $160 #
plane-surface $-1 0 28.354971031683089 0 0 -1 0 0 0 -1 forward_v I I I I #
coedge $-1 $376 $270 $273 $377 forward $161 $-1 #
coedge $-1 $276 $163 $164 $264 reversed $100 $-1 #
coedge $-1 $270 $376 $163 $262 reversed $161 $-1 #
edge $-1 $277 -13.32520087064654 $378 13.32520087064654 $261 $379 forward 7 unknown #
coedge $-1 $165 $164 $376 $380 forward $65 $-1 #
edge $-1 $268 -63.220923490096745 $378 63.220923490096745 $260 $381 forward 7 unknown #
coedge $-1 $273 $272 $165 $266 reversed $257 $-1 #
edge $-1 $382 -63.220923490096745 $267 63.220923490096745 $265 $383 forward 7 unknown #
vertex $-1 $167 $384 #
vertex $-1 $279 $385 #
straight-curve $-1 63.220923490096745 0 -13.32520087064654 0 -1 0 I I #
coedge $-1 $259 $261 $168 $271 reversed $161 $-1 #
edge $-1 $274 -28.354971031683089 $277 28.354971031683089 $270 $386 forward 7 unknown #
coedge $-1 $265 $169 $174 $280 forward $257 $-1 #
coedge $-1 $169 $265 $259 $377 reversed $257 $-1 #
vertex $-1 $170 $387 #
straight-curve $-1 0 28.354971031683089 13.32520087064654 -1 0 0 I I #
coedge $-1 $171 $260 $173 $279 reversed $100 $-1 #
vertex $-1 $271 $388 #
straight-curve $-1 0 -28.354971031683089 13.32520087064654 1 0 0 I I #
edge $-1 $176 -13.32520087064654 $268 13.32520087064654 $173 $389 forward 7 unknown #
edge $-1 $177 -13.32520087064654 $267 13.32520087064654 $174 $390 forward 7 unknown #
point $-1 63.220923490096745 -28.354971031683089 13.32520087064654 #
point $-1 63.220923490096745 28.354971031683089 13.32520087064654 #
face $-1 $-1 $296 $25 $-1 $391 reversed single #
loop $-1 $-1 $292 $179 #
plane-surface $-1 -63.220923490096745 0 0 1 0 0 0 0 -1 forward_v I I I I #
coedge $-1 $392 $182 $289 $393 forward $108 $-1 #
coedge $-1 $182 $392 $394 $395 forward $108 $-1 #
edge $-1 $396 -28.354971031683089 $290 28.354971031683089 $182 $397 forward 7 unknown #
coedge $-1 $184 $299 $286 $393 reversed $180 $-1 #
vertex $-1 $393 $398 #
straight-curve $-1 -49.714008310632195 -28.354971031683089 -4.9756512330264622 0 0 1 I I #
coedge $-1 $399 $400 $186 $293 forward $284 $-1 #
edge $-1 $300 -28.354971031683089 $297 28.354971031683089 $292 $401 forward 7 unknown #
coedge $-1 $394 $187 $191 $302 forward $296 $-1 #
coedge $-1 $187 $394 $399 $402 reversed $296 $-1 #
loop $-1 $-1 $294 $283 #
vertex $-1 $402 $403 #
straight-curve $-1 -28.233732950182237 28.354971031683089 -6.5774040614593083 1 0 0 I I #
coedge $-1 $289 $189 $400 $404 forward $180 $-1 #
vertex $-1 $404 $405 #
straight-curve $-1 -28.233732950182237 -28.354971031683089 -6.5774040614593083 -1 0 0 I I #
edge $-1 $193 1.6017528284328462 $396 8.3495496376200791 $294 $406 forward 7 unknown #
point $-1 -49.714008310632195 -28.354971031683089 -6.5774040614593083 #
point $-1 -49.714008310632195 28.354971031683089 -6.5774040614593083 #
face $-1 $-1 $209 $26 $-1 $407 reversed single #
loop $-1 $-1 $204 $195 #
plane-surface $-1 0 28.354971031683089 0 0 -1 0 0 0 -1 forward_v I I I I #
coedge $-1 $408 $409 $199 $312 forward $196 $-1 #
coedge $-1 $410 $198 $311 $411 forward $116 $-1 #
coedge $-1 $198 $410 $207 $323 reversed $116 $-1 #
coedge $-1 $200 $199 $309 $411 reversed $73 $-1 #
edge $-1 $412 -28.354971031683089 $315 28.354971031683089 $308 $413 forward 7 unknown #
edge $-1 $316 -28.354971031683089 $320 28.354971031683089 $200 $414 forward 7 unknown #
coedge $-1 $201 $318 $408 $415 reversed $306 $-1 #
vertex $-1 $415 $416 #
vertex $-1 $205 $417 #
straight-curve $-1 49.714008310632209 28.354971031683089 -4.9756512330264622 0 0 1 I I #
coedge $-1 $314 $204 $208 $324 forward $306 $-1 #
straight-curve $-1 28.23373295018224 28.354971031683089 -6.5774040614593083 1 0 0 I I #
vertex $-1 $206 $418 #
straight-curve $-1 28.23373295018224 -28.354971031683089 -6.5774040614593083 -1 0 0 I I #
coedge $-1 $208 $207 $419 $420 reversed $209 $-1 #
edge $-1 $211 6.5774040614593083 $421 13.32520087064654 $207 $422 forward 7 unknown #
edge $-1 $210 6.5774040614593083 $423 13.32520087064654 $208 $424 forward 7 unknown #
point $-1 63.220923490096752 28.354971031683089 -6.5774040614593083 #
point $-1 63.220923490096752 -28.354971031683089 -6.5774040614593083 #
loop $-1 $-1 $221 $213 #
plane-surface $-1 0 0 13.32520087064654 0 0 1 1 0 0 forward_v I I I I #
coedge $-1 $330 $216 $218 $334 reversed $124 $-1 #
coedge $-1 $216 $329 $425 $426 reversed $124 $-1 #
coedge $-1 $224 $219 $216 $332 forward $214 $-1 #
edge $-1 $335 -55.202823212720851 $427 -43.805148625400342 $331 $428 forward 7 unknown #
coedge $-1 $218 $217 $338 $429 reversed $77 $-1 #
edge $-1 $430 43.549041198664241 $335 56.709942063366199 $329 $431 forward 7 unknown #
vertex $-1 $220 $432 #
straight-curve $-1 -17.897543666980717 28.354971031683093 1.9275262833260278 -1 0 0 I I #
coedge $-1 $425 $221 $224 $342 forward $327 $-1 #
coedge $-1 $221 $425 $333 $429 forward $327 $-1 #
vertex $-1 $222 $433 #
straight-curve $-1 -21.876166357290675 54.750926662037095 13.32520087064654 0 1 0 I I #
straight-curve $-1 -21.876166357290675 7.5976988966885983e-007 51.039777195998219 0 -0.49999998660252726 0.86602541151947299 I I #
edge $-1 $225 21.876166357290675 $427 49.714008310632195 $224 $434 forward 7 unknown #
point $-1 -21.876166357290675 28.354971031683089 13.32520087064654 #
point $-1 -21.876166357290675 28.354971031683089 1.9275262833260314 #
edge $-1 $435 1 $435 0 $228 $-1 forward 7 unknown #
vertex $-1 $229 $436 #
ellipse-curve $-1 -35.795087333961433 22.556623509502035 6.1782984892879043 0 0.86602541151947299 0.49999998660252726 1.5 0 0 1 I I #
point $-1 -34.295087333961433 25.064745903669007 7.6263635769863001 #
plane-surface $-1 0 -28.354971031683089 0 0 1 0 0 0 1 forward_v I I I I #
coedge $-1 $360 $359 $352 $437 forward $233 $-1 #
coedge $-1 $352 $235 $237 $356 reversed $139 $-1 #
coedge $-1 $235 $351 $350 $437 reversed $139 $-1 #
coedge $-1 $243 $238 $235 $354 forward $244 $-1 #
edge $-1 $357 -44.703785639173205 $438 -31.378899878267248 $353 $439 forward 7 unknown #
coedge $-1 $237 $236 $360 $440 reversed $86 $-1 #
edge $-1 $441 -18.844233941504132 $357 1.5072887603364246e-014 $351 $442 forward 7 unknown #
vertex $-1 $239 $443 #
straight-curve $-1 -21.995342215709208 -28.354971031683089 0.0003151097405877934 1 0 0 I I #
coedge $-1 $350 $240 $243 $364 forward $233 $-1 #
coedge $-1 $240 $350 $355 $440 forward $233 $-1 #
vertex $-1 $241 $444 #
straight-curve $-1 -49.714008310632195 -58.88142974724466 13.32520087064654 0 -1 0 I I #
straight-curve $-1 -49.714008310632195 -28.354971031683078 0.00031510974059756336 0 0.70710677298230451 0.70710678939079041 I I #
edge $-1 $245 -49.714008310632195 $438 -38.267360552204636 $243 $445 forward 7 unknown #
point $-1 -49.714008310632195 -28.354971031683089 13.32520087064654 #
point $-1 -49.714008310632195 -28.354971031683089 0.00031510974058690522 #
edge $-1 $446 1 $446 0 $248 $-1 forward 7 unknown #
vertex $-1 $249 $447 #
ellipse-curve $-1 -46.443537522510042 -19.761574542555927 4.7318042717246875 0 -0.70710678939079041 0.70710677298230451 1.5 0 0 1 I I #
point $-1 -44.943537522510042 -21.692528305832795 6.6627579901935778 #
edge $-1 $448 1 $448 0 $252 $-1 forward 7 unknown #
vertex $-1 $253 $449 #
ellipse-curve $-1 -41.537831340326804 -19.761574542555927 4.7318042717246875 0 -0.70710678939079041 0.70710677298230451 1.5 0 0 1 I I #
point $-1 -40.037831340326804 -21.692528305832795 6.6627579901935778 #
plane-surface $-1 63.220923490096745 0 0 -1 0 0 0 0 1 forward_v I I I I #
coedge $-1 $261 $259 $263 $380 reversed $161 $-1 #
edge $-1 $274 -13.32520087064654 $382 13.32520087064654 $273 $450 forward 7 unknown #
vertex $-1 $380 $451 #
straight-curve $-1 -63.220923490096745 -28.354971031683089 0 0 0 -1 I I #
edge $-1 $378 -28.354971031683089 $382 28.354971031683089 $376 $452 forward 7 unknown #
straight-curve $-1 0 -28.354971031683089 -13.32520087064654 -1 0 0 I I #
vertex $-1 $266 $453 #
straight-curve $-1 0 28.354971031683089 -13.32520087064654 1 0 0 I I #
point $-1 63.220923490096745 28.354971031683089 -13.32520087064654 #
point $-1 63.220923490096745 -28.354971031683089 -13.32520087064654 #
straight-curve $-1 -63.220923490096745 0 13.32520087064654 0 -1 0 I I #
point $-1 -63.220923490096745 28.354971031683089 13.32520087064654 #
point $-1 -63.220923490096745 -28.354971031683089 13.32520087064654 #
straight-curve $-1 63.220923490096745 -28.354971031683089 0 0 0 -1 I I #
straight-curve $-1 63.220923490096745 28.354971031683089 0 0 0 -1 I I #
plane-surface $-1 0 28.354971031683089 0 0 -1 0 0 0 -1 forward_v I I I I #
coedge $-1 $287 $286 $454 $455 forward $108 $-1 #
edge $-1 $290 49.714008310632195 $456 63.220923490096745 $289 $457 forward 7 unknown #
coedge $-1 $295 $294 $287 $395 reversed $296 $-1 #
edge $-1 $458 -63.220923490096745 $396 -49.714008310632195 $394 $459 forward 7 unknown #
vertex $-1 $302 $460 #
straight-curve $-1 -49.714008310632195 0 -13.32520087064654 0 -1 0 I I #
point $-1 -49.714008310632195 -28.354971031683089 -13.32520087064654 #
coedge $-1 $454 $292 $295 $402 forward $284 $-1 #
coedge $-1 $292 $454 $299 $404 reversed $284 $-1 #
straight-curve $-1 -63.220923490096745 0 -6.5774040614593083 0 1 0 I I #
edge $-1 $297 6.5774040614593083 $458 13.32520087064654 $295 $461 forward 7 unknown #
point $-1 -63.220923490096752 28.354971031683089 -6.5774040614593083 #
edge $-1 $300 6.5774040614593083 $456 13.32520087064654 $400 $462 forward 7 unknown #
point $-1 -63.220923490096752 -28.354971031683089 -6.5774040614593083 #
straight-curve $-1 -49.714008310632195 28.354971031683089 -4.9756512330264622 0 0 -1 I I #
plane-surface $-1 63.220923490096745 0 0 -1 0 0 0 0 1 forward_v I I I I #
coedge $-1 $419 $308 $314 $415 forward $196 $-1 #
coedge $-1 $308 $419 $410 $463 forward $196 $-1 #
coedge $-1 $310 $309 $409 $463 reversed $116 $-1 #
edge $-1 $320 1.6017528284328462 $412 8.3495496376200791 $309 $464 forward 7 unknown #
vertex $-1 $312 $465 #
straight-curve $-1 49.714008310632209 0 -13.32520087064654 0 1 0 I I #
straight-curve $-1 49.714008310632209 0 -6.5774040614593083 0 -1 0 I I #
edge $-1 $315 49.714008310632209 $423 63.220923490096745 $314 $466 forward 7 unknown #
point $-1 49.714008310632209 28.354971031683089 -13.32520087064654 #
point $-1 49.714008310632209 28.354971031683089 -6.5774040614593083 #
point $-1 49.714008310632209 -28.354971031683089 -6.5774040614593083 #
coedge $-1 $409 $408 $322 $420 forward $196 $-1 #
edge $-1 $423 -28.354971031683089 $421 28.354971031683089 $322 $467 forward 7 unknown #
vertex $-1 $323 $468 #
straight-curve $-1 63.220923490096745 -28.354971031683089 0 0 0 -1 I I #
vertex $-1 $420 $469 #
straight-curve $-1 63.220923490096745 28.354971031683089 0 0 0 -1 I I #
coedge $-1 $338 $337 $330 $426 forward $327 $-1 #
edge $-1 $427 26.395955630354006 $430 32.976405886382182 $425 $470 forward 7 unknown #
vertex $-1 $426 $471 #
straight-curve $-1 -49.714008310632195 28.354971031683093 57.130349496046883 0 0 1 I I #
edge $-1 $430 -31.816464643651479 $339 -3.9786226903099582 $338 $472 forward 7 unknown #
vertex $-1 $429 $473 #
straight-curve $-1 -49.714008310632195 7.5976988966885983e-007 51.039777195998219 0 0.49999998660252726 -0.86602541151947299 I I #
point $-1 -49.714008310632195 28.354971031683089 1.9275262833260314 #
point $-1 -21.876166357290675 21.774520775654914 13.32520087064654 #
straight-curve $-1 0 28.354971031683089 13.32520087064654 -1 0 0 I I #
vertex $-1 $345 $474 #
point $-1 -34.295087333961433 22.556623509502035 6.1782984892879043 #
edge $-1 $438 30.526458715561571 $441 43.851344167262177 $350 $475 forward 7 unknown #
vertex $-1 $354 $476 #
straight-curve $-1 -38.267360552204636 -28.354971031683093 44.704100748913788 0 0 1 I I #
edge $-1 $441 16.272018336495428 $361 27.718666094922987 $360 $477 forward 7 unknown #
vertex $-1 $440 $478 #
straight-curve $-1 -38.267360552204636 -28.354971031683078 0.00031510974059756336 0 -0.70710677298230451 -0.70710678939079041 I I #
point $-1 -38.267360552204636 -28.354971031683089 0.00031510974058690522 #
point $-1 -49.714008310632195 -15.030085579982481 13.325200870646542 #
straight-curve $-1 0 -28.354971031683089 13.32520087064654 1 0 0 I I #
vertex $-1 $367 $479 #
point $-1 -44.943537522510042 -19.761574542555927 4.7318042717246875 #
vertex $-1 $371 $480 #
point $-1 -40.037831340326804 -19.761574542555927 4.7318042717246875 #
straight-curve $-1 -63.220923490096745 28.354971031683089 0 0 0 -1 I I #
point $-1 -63.220923490096745 -28.354971031683089 -13.32520087064654 #
straight-curve $-1 -63.220923490096745 0 -13.32520087064654 0 1 0 I I #
point $-1 -63.220923490096745 28.354971031683089 -13.32520087064654 #
coedge $-1 $400 $399 $392 $455 reversed $284 $-1 #
edge $-1 $456 -28.354971031683089 $458 28.354971031683089 $454 $481 forward 7 unknown #
vertex $-1 $455 $482 #
straight-curve $-1 0 -28.354971031683089 -13.32520087064654 -1 0 0 I I #
vertex $-1 $395 $483 #
straight-curve $-1 0 28.354971031683089 -13.32520087064654 1 0 0 I I #
point $-1 -49.714008310632195 28.354971031683089 -13.32520087064654 #
straight-curve $-1 -63.220923490096745 28.354971031683089 0 0 0 -1 I I #
straight-curve $-1 -63.220923490096745 -28.354971031683089 0 0 0 -1 I I #
edge $-1 $421 -63.220923490096745 $412 -49.714008310632209 $410 $484 forward 7 unknown #
straight-curve $-1 49.714008310632209 -28.354971031683089 -4.9756512330264622 0 0 -1 I I #
point $-1 49.714008310632209 -28.354971031683089 -13.32520087064654 #
straight-curve $-1 0 28.354971031683089 -13.32520087064654 1 0 0 I I #
straight-curve $-1 63.220923490096745 0 -13.32520087064654 0 -1 0 I I #
point $-1 63.220923490096745 -28.354971031683089 -13.32520087064654 #
point $-1 63.220923490096745 28.354971031683089 -13.32520087064654 #
straight-curve $-1 -49.714008310632195 54.750926662037095 13.32520087064654 0 -1 0 I I #
point $-1 -49.714008310632195 28.354971031683089 13.32520087064654 #
straight-curve $-1 -17.897543666980717 21.774520775654914 13.325200870646544 1 0 0 I I #
point $-1 -49.714008310632195 21.774520775654914 13.32520087064654 #
point $-1 -35.795087333961433 21.257585392222826 5.4282985093841134 #
straight-curve $-1 -38.267360552204636 -58.88142974724466 13.32520087064654 0 1 0 I I #
point $-1 -38.267360552204636 -28.354971031683089 13.32520087064654 #
straight-curve $-1 -21.995342215709208 -15.030085579982483 13.32520087064654 -1 0 0 I I #
point $-1 -38.267360552204636 -15.030085579982481 13.325200870646542 #
point $-1 -46.443537522510042 -18.700914358469738 3.6711441122512305 #
point $-1 -41.537831340326804 -18.700914358469738 3.6711441122512305 #
straight-curve $-1 -63.220923490096745 0 -13.32520087064654 0 1 0 I I #
point $-1 -63.220923490096745 -28.354971031683089 -13.32520087064654 #
point $-1 -63.220923490096745 28.354971031683089 -13.32520087064654 #
straight-curve $-1 0 -28.354971031683089 -13.32520087064654 -1 0 0 I I #
End-of-ACIS-data 