500 0 10 0           
7 Unknown 11 ACIS 5.0 NT 24 Thu Mar 25 21:02:02 1999 
-1 9.9999999999999995e-007 1e-010 
body $-1 $10 $-1 $11 #
body $-1 $12 $-1 $13 #
body $-1 $14 $-1 $15 #
body $-1 $16 $-1 $17 #
body $-1 $18 $-1 $19 #
body $-1 $20 $-1 $21 #
body $-1 $22 $-1 $23 #
body $-1 $24 $-1 $25 #
body $-1 $26 $-1 $27 #
body $-1 $28 $-1 $29 #
lump $-1 $-1 $30 $0 #
transform $-1 1 0 0 0 1 0 0 0 1 73.940244758445999 32.700962887707021 7.9263932505058223 1 rotate no_reflect no_shear #
lump $-1 $-1 $31 $1 #
transform $-1 1 0 0 0 1 0 0 0 1 73.940244758445999 32.700962887707021 7.9263932505058223 1 rotate no_reflect no_shear #
lump $-1 $-1 $32 $2 #
transform $-1 1 0 0 0 1 0 0 0 1 73.940244758445999 32.700962887707021 7.9263932505058223 1 rotate no_reflect no_shear #
lump $-1 $-1 $33 $3 #
transform $-1 1 0 0 0 1 0 0 0 1 73.940244758445999 32.700962887707021 7.9263932505058223 1 rotate no_reflect no_shear #
lump $-1 $-1 $34 $4 #
transform $-1 1 0 0 0 1 0 0 0 1 73.940244758445999 32.700962887707021 7.9263932505058223 1 rotate no_reflect no_shear #
lump $-1 $-1 $35 $5 #
transform $-1 1 0 0 0 1 0 0 0 1 73.940244758445999 32.700962887707021 7.9263932505058223 1 rotate no_reflect no_shear #
lump $-1 $-1 $36 $6 #
transform $-1 1 0 0 0 1 0 0 0 1 73.940244758445999 32.700962887707021 7.9263932505058223 1 rotate no_reflect no_shear #
lump $-1 $-1 $37 $7 #
transform $-1 1 0 0 0 1 0 0 0 1 73.940244758445999 32.700962887707021 7.9263932505058223 1 rotate no_reflect no_shear #
lump $-1 $-1 $38 $8 #
transform $-1 1 0 0 0 1 0 0 0 1 73.940244758445999 32.700962887707021 7.9263932505058223 1 rotate no_reflect no_shear #
lump $-1 $-1 $39 $9 #
transform $-1 1 0 0 0 1 0 0 0 1 73.940244758445999 32.700962887707021 7.9263932505058223 1 rotate no_reflect no_shear #
shell $-1 $-1 $-1 $40 $-1 $10 #
shell $-1 $-1 $-1 $41 $-1 $12 #
shell $-1 $-1 $-1 $42 $-1 $14 #
shell $-1 $-1 $-1 $43 $-1 $16 #
shell $-1 $-1 $-1 $44 $-1 $18 #
shell $-1 $-1 $-1 $45 $-1 $20 #
shell $-1 $-1 $-1 $46 $-1 $22 #
shell $-1 $-1 $-1 $47 $-1 $24 #
shell $-1 $-1 $-1 $48 $-1 $26 #
shell $-1 $-1 $-1 $49 $-1 $28 #
face $-1 $50 $51 $30 $-1 $52 forward single #
face $-1 $53 $54 $31 $-1 $55 forward single #
face $-1 $56 $57 $32 $-1 $58 reversed single #
face $-1 $59 $60 $33 $-1 $61 forward single #
face $-1 $62 $63 $34 $-1 $64 forward single #
face $-1 $65 $66 $35 $-1 $67 reversed single #
face $-1 $68 $69 $36 $-1 $70 forward single #
face $-1 $71 $72 $37 $-1 $73 forward single #
face $-1 $74 $75 $38 $-1 $76 reversed single #
face $-1 $77 $78 $39 $-1 $79 forward single #
face $-1 $80 $81 $30 $-1 $82 reversed single #
loop $-1 $-1 $83 $40 #
plane-surface $-1 0 0 7.9263932505058223 0 0 1 1 0 0 forward_v I I I I #
face $-1 $84 $85 $31 $-1 $86 reversed single #
loop $-1 $-1 $87 $41 #
plane-surface $-1 0 -28.532527177720716 -2.545182823990205 0 0 1 1 0 0 forward_v I I I I #
face $-1 $88 $89 $32 $-1 $90 reversed single #
loop $-1 $-1 $91 $42 #
plane-surface $-1 -193.57807512431788 -21.031335822062822 89.914459522863496 0 1 0 -0.80901700255871778 0 0.5877852410284794 forward_v I I I I #
face $-1 $92 $93 $33 $-1 $94 forward single #
loop $-1 $95 $96 $43 #
cone-surface $-1 -71.515693877577235 -17.088461206016426 5.0001174203690031 0.80901700255871778 0 -0.5877852410284794 0.8816778615427191 0 1.2135255038380768 1 I I 0 1 1.5 forward I I I I #
face $-1 $97 $98 $34 $-1 $99 forward single #
loop $-1 $100 $101 $44 #
cone-surface $-1 -71.515693877577235 -11.174149281946825 5.0001174203690031 0.80901700255871778 0 -0.5877852410284794 0.8816778615427191 0 1.2135255038380768 1 I I 0 1 1.5 forward I I I I #
face $-1 $102 $103 $35 $-1 $104 reversed single #
loop $-1 $-1 $105 $45 #
plane-surface $-1 -193.57807512431788 15.568146085873044 89.914459522863496 0 1 0 -0.80901700255871778 0 0.5877852410284794 forward_v I I I I #
face $-1 $106 $107 $36 $-1 $108 forward single #
loop $-1 $109 $110 $46 #
cone-surface $-1 -71.515693877577235 19.511020701919442 5.0001174203690031 0.80901700255871778 0 -0.5877852410284794 0.8816778615427191 0 1.2135255038380768 1 I I 0 1 1.5 forward I I I I #
face $-1 $111 $112 $37 $-1 $113 forward single #
loop $-1 $114 $115 $47 #
cone-surface $-1 -71.515693877577235 25.425332625989043 5.0001174203690031 0.80901700255871778 0 -0.5877852410284794 0.8816778615427191 0 1.2135255038380768 1 I I 0 1 1.5 forward I I I I #
face $-1 $116 $117 $38 $-1 $118 reversed single #
loop $-1 $-1 $119 $48 #
plane-surface $-1 124.53448523351395 9.4352209772764759 204.45668465128202 0 -1 0 -0.85716730853699208 0 -0.51503806187062418 forward_v I I I I #
face $-1 $120 $121 $39 $-1 $122 forward single #
loop $-1 $123 $124 $49 #
cone-surface $-1 71.000256561833822 5.2982252381068164 4.1176978167628233 -0.85716730853699208 0 -0.51503806187062418 0.51503806187062418 0 -0.85716730853699208 1 I I 0 1 1 forward I I I I #
face $-1 $125 $126 $30 $-1 $127 reversed single #
loop $-1 $-1 $128 $50 #
plane-surface $-1 0 0 -7.9263932505058223 0 0 1 1 0 0 forward_v I I I I #
coedge $-1 $129 $130 $131 $132 forward $51 $-1 #
face $-1 $133 $134 $31 $-1 $135 reversed single #
loop $-1 $-1 $136 $53 #
plane-surface $-1 0 -28.532527177720716 -7.2558315353278342 0 0 1 1 0 0 forward_v I I I I #
coedge $-1 $137 $138 $139 $140 reversed $54 $-1 #
face $-1 $141 $142 $32 $-1 $143 reversed single #
loop $-1 $-1 $144 $56 #
plane-surface $-1 -73.940244758446028 -14.131305243981622 2.9924903487676175 -0.80901700255871778 0 0.5877852410284794 0.5877852410284794 0 0.80901700255871778 forward_v I I I I #
coedge $-1 $145 $146 $147 $148 reversed $57 $-1 #
face $-1 $-1 $149 $33 $-1 $150 forward single #
loop $-1 $151 $152 $59 #
cone-surface $-1 -70.276725335892039 -17.088461206016426 4.0999541103299348 0.80901700255871778 0 -0.5877852410284794 0.44083893077135955 0 0.60676275191903839 1 I I -0.70710678118654757 0.70710678118654757 0.75 forward I I I I #
loop $-1 $-1 $153 $43 #
coedge $-1 $96 $96 $154 $155 reversed $60 $-1 #
face $-1 $-1 $156 $34 $-1 $157 forward single #
loop $-1 $158 $159 $62 #
cone-surface $-1 -70.276725335892039 -11.174149281946825 4.0999541103299348 0.80901700255871778 0 -0.5877852410284794 0.44083893077135955 0 0.60676275191903839 1 I I -0.70710678118654757 0.70710678118654757 0.75 forward I I I I #
loop $-1 $-1 $160 $44 #
coedge $-1 $101 $101 $161 $162 reversed $63 $-1 #
face $-1 $163 $164 $35 $-1 $165 reversed single #
loop $-1 $-1 $166 $65 #
plane-surface $-1 -73.940244758446028 22.468176663954246 2.9924903487676175 -0.80901700255871778 0 0.5877852410284794 0.5877852410284794 0 0.80901700255871778 forward_v I I I I #
coedge $-1 $167 $168 $169 $170 reversed $66 $-1 #
face $-1 $-1 $171 $36 $-1 $172 forward single #
loop $-1 $173 $174 $68 #
cone-surface $-1 -70.276725335892039 19.511020701919442 4.0999541103299348 0.80901700255871778 0 -0.5877852410284794 0.44083893077135955 0 0.60676275191903839 1 I I -0.70710678118654757 0.70710678118654757 0.75 forward I I I I #
loop $-1 $-1 $175 $46 #
coedge $-1 $110 $110 $176 $177 reversed $69 $-1 #
face $-1 $-1 $178 $37 $-1 $179 forward single #
loop $-1 $180 $181 $71 #
cone-surface $-1 -70.276725335892039 25.425332625989043 4.0999541103299348 0.80901700255871778 0 -0.5877852410284794 0.44083893077135955 0 0.60676275191903839 1 I I -0.70710678118654757 0.70710678118654757 0.75 forward I I I I #
loop $-1 $-1 $182 $47 #
coedge $-1 $115 $115 $183 $184 reversed $72 $-1 #
face $-1 $185 $186 $38 $-1 $187 reversed single #
loop $-1 $-1 $188 $74 #
plane-surface $-1 -2.223835950813239 5.2982252381068236 128.29260394202282 0.85716730853699208 0 0.51503806187062418 0.51503806187062418 0 -0.85716730853699208 forward_v I I I I #
coedge $-1 $189 $190 $191 $192 reversed $75 $-1 #
face $-1 $-1 $193 $39 $-1 $194 forward single #
loop $-1 $195 $196 $77 #
cone-surface $-1 69.552068378582135 5.2982252381068164 3.247538598489629 -0.85716730853699208 0 -0.51503806187062418 0.25751903093531209 0 -0.42858365426849604 1 I I -0.70710678118654746 0.70710678118654746 0.5 forward I I I I #
loop $-1 $-1 $197 $49 #
coedge $-1 $124 $124 $198 $199 reversed $78 $-1 #
face $-1 $200 $201 $30 $-1 $202 reversed single #
loop $-1 $-1 $203 $80 #
plane-surface $-1 0 -32.700962887707021 0 0 1 0 0 0 1 forward_v I I I I #
coedge $-1 $204 $205 $206 $207 forward $81 $-1 #
coedge $-1 $208 $83 $209 $210 forward $51 $-1 #
coedge $-1 $83 $208 $211 $212 forward $51 $-1 #
coedge $-1 $213 $214 $83 $132 reversed $215 $-1 #
edge $-1 $216 -32.700962887707021 $217 32.700962887707021 $131 $218 forward 7 unknown #
face $-1 $219 $220 $31 $-1 $221 reversed single #
loop $-1 $-1 $222 $84 #
plane-surface $-1 0 -24.364091467734411 -4.9005071796590194 0 -1 0 0 0 -1 forward_v I I I I #
coedge $-1 $223 $224 $225 $226 reversed $85 $-1 #
coedge $-1 $227 $87 $228 $229 forward $54 $-1 #
coedge $-1 $87 $227 $230 $231 reversed $54 $-1 #
coedge $-1 $232 $233 $87 $140 forward $234 $-1 #
edge $-1 $235 10.097827878874053 $236 18.434699298846663 $139 $237 forward 7 unknown #
face $-1 $238 $239 $32 $-1 $240 reversed single #
loop $-1 $-1 $241 $88 #
plane-surface $-1 -193.57807512431788 -7.2312746659004201 89.914459522863496 0 -1 0 0.80901700255871778 0 -0.5877852410284794 forward_v I I I I #
coedge $-1 $242 $243 $244 $245 reversed $89 $-1 #
coedge $-1 $146 $91 $246 $247 reversed $57 $-1 #
coedge $-1 $91 $145 $242 $248 reversed $57 $-1 #
coedge $-1 $244 $249 $91 $148 forward $250 $-1 #
edge $-1 $251 22.848792803712939 $252 26.433482985918104 $147 $253 forward 7 unknown #
loop $-1 $-1 $154 $92 #
plane-surface $-1 -73.940244758446028 -14.131305243981622 2.9924903487676175 -0.80901700255871778 0 0.5877852410284794 0.5877852410284794 0 0.80901700255871778 forward_v I I I I #
loop $-1 $-1 $254 $59 #
coedge $-1 $152 $152 $153 $255 reversed $93 $-1 #
coedge $-1 $153 $153 $152 $255 forward $95 $-1 #
coedge $-1 $154 $154 $96 $155 forward $149 $-1 #
edge $-1 $256 0 $256 6.2831853071796004 $154 $257 forward 7 unknown #
loop $-1 $-1 $161 $97 #
plane-surface $-1 -73.940244758446028 -14.131305243981622 2.9924903487676175 -0.80901700255871778 0 0.5877852410284794 0.5877852410284794 0 0.80901700255871778 forward_v I I I I #
loop $-1 $-1 $258 $62 #
coedge $-1 $159 $159 $160 $259 reversed $98 $-1 #
coedge $-1 $160 $160 $159 $259 forward $100 $-1 #
coedge $-1 $161 $161 $101 $162 forward $156 $-1 #
edge $-1 $260 0 $260 6.2831853071796004 $161 $261 forward 7 unknown #
face $-1 $262 $263 $35 $-1 $264 forward single #
loop $-1 $-1 $265 $102 #
plane-surface $-1 -193.57807512431788 29.368207242035446 89.914459522863496 0 -1 0 0.80901700255871778 0 -0.5877852410284794 forward_v I I I I #
coedge $-1 $266 $267 $268 $269 reversed $103 $-1 #
coedge $-1 $168 $105 $270 $271 reversed $66 $-1 #
coedge $-1 $105 $167 $266 $272 reversed $66 $-1 #
coedge $-1 $268 $273 $105 $170 forward $263 $-1 #
edge $-1 $274 22.848792803712939 $275 26.433482985918104 $169 $276 forward 7 unknown #
loop $-1 $-1 $176 $106 #
plane-surface $-1 -73.940244758446028 22.468176663954246 2.9924903487676175 -0.80901700255871778 0 0.5877852410284794 0.5877852410284794 0 0.80901700255871778 forward_v I I I I #
loop $-1 $-1 $277 $68 #
coedge $-1 $174 $174 $175 $278 reversed $107 $-1 #
coedge $-1 $175 $175 $174 $278 forward $109 $-1 #
coedge $-1 $176 $176 $110 $177 forward $171 $-1 #
edge $-1 $279 0 $279 6.2831853071796004 $176 $280 forward 7 unknown #
loop $-1 $-1 $183 $111 #
plane-surface $-1 -73.940244758446028 22.468176663954246 2.9924903487676175 -0.80901700255871778 0 0.5877852410284794 0.5877852410284794 0 0.80901700255871778 forward_v I I I I #
loop $-1 $-1 $281 $71 #
coedge $-1 $181 $181 $182 $282 reversed $112 $-1 #
coedge $-1 $182 $182 $181 $282 forward $114 $-1 #
coedge $-1 $183 $183 $115 $184 forward $178 $-1 #
edge $-1 $283 0 $283 6.2831853071796004 $183 $284 forward 7 unknown #
face $-1 $285 $286 $38 $-1 $287 forward single #
loop $-1 $-1 $288 $116 #
plane-surface $-1 124.53448523351395 1.1612294989371712 204.45668465128202 0 1 0 0.85716730853699208 0 0.51503806187062418 forward_v I I I I #
coedge $-1 $289 $290 $291 $292 reversed $117 $-1 #
coedge $-1 $190 $119 $293 $294 reversed $75 $-1 #
coedge $-1 $119 $189 $289 $295 reversed $75 $-1 #
coedge $-1 $291 $296 $119 $192 forward $286 $-1 #
edge $-1 $297 -11.673002141689025 $298 -7.8322348064310745 $191 $299 forward 7 unknown #
loop $-1 $-1 $198 $120 #
plane-surface $-1 -2.223835950813239 5.2982252381068236 128.29260394202282 0.85716730853699208 0 0.51503806187062418 0.51503806187062418 0 -0.85716730853699208 forward_v I I I I #
loop $-1 $-1 $300 $77 #
coedge $-1 $196 $196 $197 $301 reversed $121 $-1 #
coedge $-1 $197 $197 $196 $301 forward $123 $-1 #
coedge $-1 $198 $198 $124 $199 forward $193 $-1 #
edge $-1 $302 0 $302 6.2831853071796004 $198 $303 forward 7 unknown #
face $-1 $304 $305 $30 $-1 $306 reversed single #
loop $-1 $-1 $307 $125 #
plane-surface $-1 -73.940244758445999 0 0 1 0 0 0 0 -1 forward_v I I I I #
coedge $-1 $308 $211 $309 $310 forward $126 $-1 #
coedge $-1 $311 $128 $308 $312 forward $81 $-1 #
coedge $-1 $128 $311 $313 $314 forward $81 $-1 #
coedge $-1 $214 $213 $128 $207 reversed $215 $-1 #
edge $-1 $315 -32.700962887707021 $316 32.700962887707021 $206 $317 forward 7 unknown #
coedge $-1 $130 $129 $318 $319 forward $51 $-1 #
coedge $-1 $320 $321 $129 $210 reversed $305 $-1 #
edge $-1 $217 -73.940244758445999 $322 73.940244758445999 $209 $323 forward 7 unknown #
coedge $-1 $203 $324 $130 $212 reversed $126 $-1 #
edge $-1 $325 -73.940244758445999 $216 73.940244758445999 $211 $326 forward 7 unknown #
coedge $-1 $206 $131 $324 $327 forward $215 $-1 #
coedge $-1 $131 $206 $320 $328 reversed $215 $-1 #
loop $-1 $-1 $213 $304 #
vertex $-1 $132 $329 #
vertex $-1 $132 $330 #
straight-curve $-1 73.940244758445999 0 7.9263932505058223 0 1 0 I I #
face $-1 $331 $332 $31 $-1 $333 reversed single #
loop $-1 $-1 $334 $133 #
plane-surface $-1 -73.940244758445999 0 0 1 0 0 0 0 -1 forward_v I I I I #
coedge $-1 $335 $228 $233 $336 reversed $134 $-1 #
coedge $-1 $337 $136 $338 $339 reversed $85 $-1 #
coedge $-1 $136 $337 $335 $340 forward $85 $-1 #
coedge $-1 $233 $232 $136 $226 forward $234 $-1 #
edge $-1 $341 -18.434699298846663 $342 -10.097827878874053 $225 $343 forward 7 unknown #
coedge $-1 $138 $137 $334 $344 reversed $54 $-1 #
coedge $-1 $222 $345 $137 $229 reversed $134 $-1 #
edge $-1 $235 -73.940244758445999 $346 73.940244758445999 $228 $347 forward 7 unknown #
coedge $-1 $348 $349 $138 $231 forward $332 $-1 #
edge $-1 $236 -73.940244758445999 $350 73.940244758445999 $230 $351 forward 7 unknown #
coedge $-1 $225 $139 $349 $352 forward $234 $-1 #
coedge $-1 $139 $225 $222 $336 forward $234 $-1 #
loop $-1 $-1 $139 $331 #
vertex $-1 $140 $353 #
vertex $-1 $352 $354 #
straight-curve $-1 73.940244758445999 -14.266263588860358 -2.545182823990205 0 -1 0 I I #
face $-1 $-1 $250 $32 $-1 $355 forward single #
loop $-1 $-1 $356 $141 #
plane-surface $-1 -73.940244758445999 0 0 1 0 0 0 0 -1 forward_v I I I I #
coedge $-1 $357 $358 $359 $360 reversed $142 $-1 #
coedge $-1 $361 $144 $146 $248 forward $89 $-1 #
coedge $-1 $144 $361 $357 $362 forward $89 $-1 #
coedge $-1 $359 $147 $144 $245 forward $250 $-1 #
edge $-1 $252 -13.965683200072011 $363 -0.16562204390960922 $244 $364 forward 7 unknown #
coedge $-1 $365 $366 $145 $247 forward $239 $-1 #
edge $-1 $367 -41.964739412664088 $251 -37.030836510925923 $246 $368 forward 7 unknown #
edge $-1 $252 -6.098639319239906 $367 -4.8322124813089328e-014 $146 $369 forward 7 unknown #
coedge $-1 $147 $359 $365 $370 forward $250 $-1 #
loop $-1 $-1 $359 $238 #
vertex $-1 $247 $371 #
vertex $-1 $148 $372 #
straight-curve $-1 -96.789037562158938 -21.031335822062822 7.926393250505825 1 0 0 I I #
coedge $-1 $254 $254 $-1 $373 reversed $151 $-1 #
edge $-1 $374 0 $374 6.2831853071796004 $152 $375 forward 7 unknown #
vertex $-1 $155 $376 #
ellipse-curve $-1 -72.147899667343424 -17.088461206016426 5.459441799636731 -0.80901700255871778 0 0.5877852410284794 0.8816778615427191 0 1.2135255038380768 1 I I #
coedge $-1 $258 $258 $-1 $377 reversed $158 $-1 #
edge $-1 $378 0 $378 6.2831853071796004 $159 $379 forward 7 unknown #
vertex $-1 $162 $380 #
ellipse-curve $-1 -72.147899667343424 -11.174149281946825 5.459441799636731 -0.80901700255871778 0 0.5877852410284794 0.8816778615427191 0 1.2135255038380768 1 I I #
face $-1 $-1 $381 $35 $-1 $382 reversed single #
loop $-1 $-1 $169 $163 #
plane-surface $-1 0 0 7.9263932505058223 0 0 1 1 0 0 forward_v I I I I #
coedge $-1 $383 $384 $385 $386 reversed $164 $-1 #
coedge $-1 $387 $166 $168 $272 forward $103 $-1 #
coedge $-1 $166 $387 $383 $388 forward $103 $-1 #
coedge $-1 $385 $169 $166 $269 forward $263 $-1 #
edge $-1 $275 4.3340577538959213 $389 18.134118910058323 $268 $390 forward 7 unknown #
coedge $-1 $391 $392 $167 $271 forward $381 $-1 #
edge $-1 $393 -41.964739412664088 $274 -37.030836510925923 $270 $394 forward 7 unknown #
edge $-1 $275 -6.098639319239906 $393 -4.8322124813089328e-014 $168 $395 forward 7 unknown #
coedge $-1 $169 $385 $391 $396 forward $263 $-1 #
vertex $-1 $170 $397 #
vertex $-1 $170 $398 #
straight-curve $-1 -96.789037562158938 15.568146085873044 7.926393250505825 1 0 0 I I #
coedge $-1 $277 $277 $-1 $399 reversed $173 $-1 #
edge $-1 $400 0 $400 6.2831853071796004 $174 $401 forward 7 unknown #
vertex $-1 $177 $402 #
ellipse-curve $-1 -72.147899667343424 19.511020701919442 5.459441799636731 -0.80901700255871778 0 0.5877852410284794 0.8816778615427191 0 1.2135255038380768 1 I I #
coedge $-1 $281 $281 $-1 $403 reversed $180 $-1 #
edge $-1 $404 0 $404 6.2831853071796004 $181 $405 forward 7 unknown #
vertex $-1 $184 $406 #
ellipse-curve $-1 -72.147899667343424 25.425332625989043 5.459441799636731 -0.80901700255871778 0 0.5877852410284794 0.8816778615427191 0 1.2135255038380768 1 I I #
face $-1 $-1 $407 $38 $-1 $408 reversed single #
loop $-1 $-1 $191 $185 #
plane-surface $-1 0 0 7.9263932505058223 0 0 1 1 0 0 forward_v I I I I #
coedge $-1 $409 $410 $411 $412 reversed $186 $-1 #
coedge $-1 $413 $188 $190 $295 forward $117 $-1 #
coedge $-1 $188 $413 $409 $414 forward $117 $-1 #
coedge $-1 $411 $191 $188 $292 forward $286 $-1 #
edge $-1 $298 -6.7861083582230641 $415 1.4878831201162406 $291 $416 forward 7 unknown #
coedge $-1 $417 $418 $189 $294 forward $407 $-1 #
edge $-1 $419 -100.69405956794542 $297 -94.301949075135184 $293 $420 forward 7 unknown #
edge $-1 $298 140.42324000545162 $419 147.88048951689208 $190 $421 forward 7 unknown #
coedge $-1 $191 $411 $417 $422 forward $286 $-1 #
vertex $-1 $294 $423 #
vertex $-1 $192 $424 #
straight-curve $-1 62.267242616756974 9.4352209772764759 7.926393250505825 -1 0 0 I I #
coedge $-1 $300 $300 $-1 $425 reversed $195 $-1 #
edge $-1 $426 0 $426 6.2831853071796004 $196 $427 forward 7 unknown #
vertex $-1 $199 $428 #
ellipse-curve $-1 72.019861090817017 5.2982252381068164 4.7303380041007062 0.85716730853699208 0 0.51503806187062418 0.51503806187062418 0 -0.85716730853699208 1 I I #
face $-1 $-1 $215 $30 $-1 $429 reversed single #
loop $-1 $-1 $320 $200 #
plane-surface $-1 0 32.700962887707021 0 0 -1 0 0 0 -1 forward_v I I I I #
coedge $-1 $430 $318 $321 $431 forward $201 $-1 #
coedge $-1 $324 $203 $204 $312 reversed $126 $-1 #
coedge $-1 $318 $430 $203 $310 reversed $201 $-1 #
edge $-1 $325 -7.9263932505058223 $432 7.9263932505058223 $309 $433 forward 7 unknown #
coedge $-1 $205 $204 $430 $434 forward $81 $-1 #
edge $-1 $316 -73.940244758445999 $432 73.940244758445999 $308 $435 forward 7 unknown #
coedge $-1 $321 $320 $205 $314 reversed $305 $-1 #
edge $-1 $436 -73.940244758445999 $315 73.940244758445999 $313 $437 forward 7 unknown #
vertex $-1 $207 $438 #
vertex $-1 $327 $439 #
straight-curve $-1 73.940244758445999 0 -7.9263932505058223 0 -1 0 I I #
coedge $-1 $307 $309 $208 $319 reversed $201 $-1 #
edge $-1 $322 -32.700962887707021 $325 32.700962887707021 $318 $440 forward 7 unknown #
coedge $-1 $313 $209 $214 $328 forward $305 $-1 #
coedge $-1 $209 $313 $307 $431 reversed $305 $-1 #
vertex $-1 $210 $441 #
straight-curve $-1 0 32.700962887707021 7.9263932505058223 -1 0 0 I I #
coedge $-1 $211 $308 $213 $327 reversed $126 $-1 #
vertex $-1 $319 $442 #
straight-curve $-1 0 -32.700962887707021 7.9263932505058223 1 0 0 I I #
edge $-1 $216 -7.9263932505058223 $316 7.9263932505058223 $213 $443 forward 7 unknown #
edge $-1 $217 -7.9263932505058223 $315 7.9263932505058223 $214 $444 forward 7 unknown #
point $-1 73.940244758445999 -32.700962887707021 7.9263932505058223 #
point $-1 73.940244758445999 32.700962887707021 7.9263932505058223 #
face $-1 $-1 $234 $31 $-1 $445 reversed single #
loop $-1 $-1 $230 $219 #
plane-surface $-1 0 -32.700962887707021 0 0 1 0 0 0 1 forward_v I I I I #
coedge $-1 $446 $447 $227 $344 forward $220 $-1 #
coedge $-1 $345 $222 $224 $340 reversed $134 $-1 #
edge $-1 $342 -4.8055779454983245 $235 -0.094929234160695319 $233 $448 forward 7 unknown #
coedge $-1 $224 $223 $449 $450 reversed $85 $-1 #
coedge $-1 $349 $348 $223 $339 forward $332 $-1 #
edge $-1 $451 -73.940244758445999 $341 73.940244758445999 $338 $452 forward 7 unknown #
edge $-1 $453 -73.940244758445999 $342 73.940244758445999 $335 $454 forward 7 unknown #
vertex $-1 $339 $455 #
vertex $-1 $226 $456 #
straight-curve $-1 73.940244758445999 -14.266263588860358 -7.2558315353278342 0 1 0 I I #
edge $-1 $350 -18.434699298846663 $346 -10.097827878874053 $334 $457 forward 7 unknown #
coedge $-1 $228 $335 $446 $458 reversed $134 $-1 #
vertex $-1 $344 $459 #
straight-curve $-1 0 -24.364091467734411 -2.545182823990205 -1 0 0 I I #
coedge $-1 $338 $230 $447 $460 forward $332 $-1 #
coedge $-1 $230 $338 $232 $352 reversed $332 $-1 #
vertex $-1 $460 $461 #
straight-curve $-1 0 -32.700962887707021 -2.545182823990205 -1 0 0 I I #
edge $-1 $236 2.545182823990205 $341 7.2558315353278342 $232 $462 forward 7 unknown #
point $-1 73.940244758445999 -24.364091467734411 -2.545182823990205 #
point $-1 73.940244758445999 -32.700962887707021 -2.545182823990205 #
plane-surface $-1 0 0 7.9263932505058223 0 0 1 1 0 0 forward_v I I I I #
coedge $-1 $366 $365 $358 $463 forward $239 $-1 #
coedge $-1 $358 $241 $243 $362 reversed $142 $-1 #
coedge $-1 $241 $357 $356 $463 reversed $142 $-1 #
coedge $-1 $249 $244 $241 $360 forward $250 $-1 #
edge $-1 $363 -26.433482985918104 $464 -22.848792803712939 $359 $465 forward 7 unknown #
coedge $-1 $243 $242 $366 $466 reversed $89 $-1 #
edge $-1 $467 4.8322124813089328e-014 $363 6.098639319239906 $357 $468 forward 7 unknown #
vertex $-1 $245 $469 #
straight-curve $-1 -70.355554576240834 -7.0656526219908109 7.9263932505058214 0 1 0 I I #
coedge $-1 $356 $246 $249 $370 reversed $239 $-1 #
coedge $-1 $246 $356 $361 $466 forward $239 $-1 #
vertex $-1 $247 $470 #
straight-curve $-1 -73.940244758445999 -21.031335822062822 44.957229761431748 0 0 1 I I #
straight-curve $-1 -73.940244758446028 -21.031335822062822 2.9924903487676175 -0.5877852410284794 0 -0.80901700255871778 I I #
edge $-1 $464 7.2312746659004201 $251 21.031335822062822 $365 $471 forward 7 unknown #
point $-1 -73.940244758445999 -21.031335822062822 7.9263932505058223 #
point $-1 -70.355554576240834 -21.031335822062822 7.9263932505058223 #
edge $-1 $472 1 $472 0 $254 $-1 forward 7 unknown #
vertex $-1 $255 $473 #
ellipse-curve $-1 -70.883488087811074 -17.088461206016426 4.5407930411012947 -0.80901700255871778 0 0.5877852410284794 0.8816778615427191 0 1.2135255038380768 1 I I #
point $-1 -71.266221805800683 -17.088461206016426 6.6729673034747874 #
edge $-1 $474 1 $474 0 $258 $-1 forward 7 unknown #
vertex $-1 $259 $475 #
ellipse-curve $-1 -70.883488087811074 -11.174149281946825 4.5407930411012947 -0.80901700255871778 0 0.5877852410284794 0.8816778615427191 0 1.2135255038380768 1 I I #
point $-1 -71.266221805800683 -11.174149281946825 6.6729673034747874 #
loop $-1 $-1 $270 $262 #
plane-surface $-1 -73.940244758445999 0 0 1 0 0 0 0 -1 forward_v I I I I #
coedge $-1 $384 $265 $267 $388 reversed $164 $-1 #
coedge $-1 $265 $383 $476 $477 reversed $164 $-1 #
coedge $-1 $273 $268 $265 $386 forward $263 $-1 #
edge $-1 $389 -26.433482985918104 $478 -22.848792803712939 $385 $479 forward 7 unknown #
coedge $-1 $267 $266 $392 $480 reversed $103 $-1 #
edge $-1 $481 4.8322124813089328e-014 $389 6.098639319239906 $383 $482 forward 7 unknown #
vertex $-1 $269 $483 #
straight-curve $-1 -70.355554576240834 11.234088331977123 7.9263932505058214 0 1 0 I I #
coedge $-1 $476 $270 $273 $396 reversed $381 $-1 #
coedge $-1 $270 $476 $387 $480 forward $381 $-1 #
vertex $-1 $271 $484 #
straight-curve $-1 -73.940244758445999 15.568146085873044 44.957229761431748 0 0 1 I I #
straight-curve $-1 -73.940244758446028 15.568146085873044 2.9924903487676175 -0.5877852410284794 0 -0.80901700255871778 I I #
edge $-1 $478 -29.368207242035446 $274 -15.568146085873044 $391 $485 forward 7 unknown #
point $-1 -73.940244758445999 15.568146085873044 7.9263932505058223 #
point $-1 -70.355554576240834 15.568146085873044 7.9263932505058223 #
edge $-1 $486 1 $486 0 $277 $-1 forward 7 unknown #
vertex $-1 $278 $487 #
ellipse-curve $-1 -70.883488087811074 19.511020701919442 4.5407930411012947 -0.80901700255871778 0 0.5877852410284794 0.8816778615427191 0 1.2135255038380768 1 I I #
point $-1 -71.266221805800683 19.511020701919442 6.6729673034747874 #
edge $-1 $488 1 $488 0 $281 $-1 forward 7 unknown #
vertex $-1 $282 $489 #
ellipse-curve $-1 -70.883488087811074 25.425332625989043 4.5407930411012947 -0.80901700255871778 0 0.5877852410284794 0.8816778615427191 0 1.2135255038380768 1 I I #
point $-1 -71.266221805800683 25.425332625989043 6.6729673034747874 #
loop $-1 $-1 $293 $285 #
plane-surface $-1 73.940244758445999 0 0 -1 0 0 0 0 1 forward_v I I I I #
coedge $-1 $410 $288 $290 $414 reversed $186 $-1 #
coedge $-1 $288 $409 $490 $491 reversed $186 $-1 #
coedge $-1 $296 $291 $288 $412 forward $286 $-1 #
edge $-1 $415 7.8322348064310745 $492 11.673002141689025 $411 $493 forward 7 unknown #
coedge $-1 $290 $289 $418 $494 reversed $117 $-1 #
edge $-1 $495 -147.88048951689208 $415 -140.42324000545162 $409 $496 forward 7 unknown #
vertex $-1 $292 $497 #
straight-curve $-1 70.09947742318802 2.6491126190534118 7.926393250505825 0 -1 0 I I #
coedge $-1 $490 $293 $296 $422 reversed $407 $-1 #
coedge $-1 $293 $490 $413 $494 forward $407 $-1 #
vertex $-1 $294 $498 #
straight-curve $-1 73.940244758445999 9.4352209772764759 102.22834232564101 0 0 1 I I #
straight-curve $-1 -2.223835950813239 9.4352209772764759 128.29260394202282 0.51503806187062418 0 -0.85716730853699208 I I #
edge $-1 $492 1.1612294989371712 $297 9.4352209772764759 $417 $499 forward 7 unknown #
point $-1 73.940244758445999 9.4352209772764759 7.9263932505058223 #
point $-1 70.099477423188048 9.4352209772764759 7.926393250505825 #
edge $-1 $500 1 $500 0 $300 $-1 forward 7 unknown #
vertex $-1 $301 $501 #
ellipse-curve $-1 69.980652032850628 5.2982252381068164 3.5050576294249409 0.85716730853699208 0 0.51503806187062418 0.51503806187062418 0 -0.85716730853699208 1 I I #
point $-1 72.534899152687629 5.2982252381068164 3.8731706955637133 #
plane-surface $-1 73.940244758445999 0 0 -1 0 0 0 0 1 forward_v I I I I #
coedge $-1 $309 $307 $311 $434 reversed $201 $-1 #
edge $-1 $322 -7.9263932505058223 $436 7.9263932505058223 $321 $502 forward 7 unknown #
vertex $-1 $434 $503 #
straight-curve $-1 -73.940244758445999 -32.700962887707021 0 0 0 -1 I I #
edge $-1 $432 -32.700962887707021 $436 32.700962887707021 $430 $504 forward 7 unknown #
straight-curve $-1 0 -32.700962887707021 -7.9263932505058223 -1 0 0 I I #
vertex $-1 $314 $505 #
straight-curve $-1 0 32.700962887707021 -7.9263932505058223 1 0 0 I I #
point $-1 73.940244758445999 32.700962887707021 -7.9263932505058223 #
point $-1 73.940244758445999 -32.700962887707021 -7.9263932505058223 #
straight-curve $-1 -73.940244758445999 0 7.9263932505058223 0 -1 0 I I #
point $-1 -73.940244758445999 32.700962887707021 7.9263932505058223 #
point $-1 -73.940244758445999 -32.700962887707021 7.9263932505058223 #
straight-curve $-1 73.940244758445999 -32.700962887707021 0 0 0 -1 I I #
straight-curve $-1 73.940244758445999 32.700962887707021 0 0 0 -1 I I #
plane-surface $-1 73.940244758445999 0 0 -1 0 0 0 0 1 forward_v I I I I #
coedge $-1 $449 $334 $345 $458 forward $220 $-1 #
coedge $-1 $334 $449 $348 $460 reversed $220 $-1 #
straight-curve $-1 73.940244758445999 -24.364091467734411 -2.4502535898295097 0 0 1 I I #
coedge $-1 $447 $446 $337 $450 forward $220 $-1 #
edge $-1 $453 10.097827878874053 $451 18.434699298846663 $449 $506 forward 7 unknown #
vertex $-1 $339 $507 #
straight-curve $-1 0 -32.700962887707021 -7.2558315353278342 1 0 0 I I #
vertex $-1 $450 $508 #
straight-curve $-1 0 -24.364091467734411 -7.2558315353278342 1 0 0 I I #
point $-1 73.940244758445999 -32.700962887707021 -7.2558315353278342 #
point $-1 73.940244758445999 -24.364091467734411 -7.2558315353278342 #
straight-curve $-1 -73.940244758445999 -14.266263588860358 -2.545182823990205 0 1 0 I I #
edge $-1 $346 0.094929234160695319 $453 4.8055779454983245 $446 $509 forward 7 unknown #
point $-1 -73.940244758445999 -24.364091467734411 -2.545182823990205 #
edge $-1 $350 2.545182823990205 $451 7.2558315353278342 $447 $510 forward 7 unknown #
point $-1 -73.940244758445999 -32.700962887707021 -2.545182823990205 #
straight-curve $-1 73.940244758445999 -32.700962887707021 0 0 0 -1 I I #
edge $-1 $464 37.030836510925923 $467 41.964739412664088 $356 $511 forward 7 unknown #
vertex $-1 $370 $512 #
straight-curve $-1 -96.789037562158938 -7.2312746659004201 7.926393250505825 -1 0 0 I I #
edge $-1 $467 0.16562204390960922 $367 13.965683200072011 $366 $513 forward 7 unknown #
vertex $-1 $466 $514 #
straight-curve $-1 -73.940244758446028 -7.2312746659004201 2.9924903487676175 0.5877852410284794 0 0.80901700255871778 I I #
point $-1 -70.355554576240834 -7.2312746659004201 7.9263932505058223 #
point $-1 -73.940244758445999 -21.031335822062822 2.9924903487676566 #
straight-curve $-1 -73.940244758445999 0 7.9263932505058223 0 -1 0 I I #
vertex $-1 $373 $515 #
point $-1 -70.001810226268361 -17.088461206016426 5.7543185449393714 #
vertex $-1 $377 $516 #
point $-1 -70.001810226268361 -11.174149281946825 5.7543185449393714 #
coedge $-1 $392 $391 $384 $477 forward $381 $-1 #
edge $-1 $478 37.030836510925923 $481 41.964739412664088 $476 $517 forward 7 unknown #
vertex $-1 $396 $518 #
straight-curve $-1 -96.789037562158938 29.368207242035446 7.926393250505825 -1 0 0 I I #
edge $-1 $481 -18.134118910058323 $393 -4.3340577538959213 $392 $519 forward 7 unknown #
vertex $-1 $480 $520 #
straight-curve $-1 -73.940244758446028 29.368207242035446 2.9924903487676175 0.5877852410284794 0 0.80901700255871778 I I #
point $-1 -70.355554576240834 29.368207242035446 7.9263932505058223 #
point $-1 -73.940244758445999 15.568146085873044 2.9924903487676566 #
straight-curve $-1 -73.940244758445999 0 7.9263932505058223 0 -1 0 I I #
vertex $-1 $399 $521 #
point $-1 -70.001810226268361 19.511020701919442 5.7543185449393714 #
vertex $-1 $403 $522 #
point $-1 -70.001810226268361 25.425332625989043 5.7543185449393714 #
coedge $-1 $418 $417 $410 $491 forward $407 $-1 #
edge $-1 $492 94.301949075135184 $495 100.69405956794542 $490 $523 forward 7 unknown #
vertex $-1 $422 $524 #
straight-curve $-1 62.267242616756974 1.1612294989371712 7.926393250505825 1 0 0 I I #
edge $-1 $495 -1.4878831201162406 $419 6.7861083582230641 $418 $525 forward 7 unknown #
vertex $-1 $494 $526 #
straight-curve $-1 -2.223835950813239 1.1612294989371712 128.29260394202282 -0.51503806187062418 0 0.85716730853699208 I I #
point $-1 70.099477423188048 1.1612294989371712 7.926393250505825 #
point $-1 73.940244758445999 9.4352209772764759 1.5342827576955926 #
straight-curve $-1 73.940244758445999 0 7.9263932505058223 0 1 0 I I #
vertex $-1 $425 $527 #
point $-1 70.495690094721255 5.2982252381068164 2.647890320887949 #
straight-curve $-1 -73.940244758445999 32.700962887707021 0 0 0 -1 I I #
point $-1 -73.940244758445999 -32.700962887707021 -7.9263932505058223 #
straight-curve $-1 -73.940244758445999 0 -7.9263932505058223 0 1 0 I I #
point $-1 -73.940244758445999 32.700962887707021 -7.9263932505058223 #
straight-curve $-1 -73.940244758445999 -14.266263588860358 -7.2558315353278342 0 -1 0 I I #
point $-1 -73.940244758445999 -32.700962887707021 -7.2558315353278342 #
point $-1 -73.940244758445999 -24.364091467734411 -7.2558315353278342 #
straight-curve $-1 -73.940244758445999 -24.364091467734411 -2.4502535898295097 0 0 -1 I I #
straight-curve $-1 -73.940244758445999 -32.700962887707021 0 0 0 -1 I I #
straight-curve $-1 -73.940244758445999 -7.2312746659004201 44.957229761431748 0 0 -1 I I #
point $-1 -73.940244758445999 -7.2312746659004201 7.9263932505058223 #
straight-curve $-1 -73.940244758445999 -7.0656526219908109 2.9924903487676544 0 -1 0 I I #
point $-1 -73.940244758445999 -7.2312746659004201 2.9924903487676566 #
point $-1 -69.669962583973003 -17.088461206016426 3.6591151795585755 #
point $-1 -69.669962583973003 -11.174149281946825 3.6591151795585755 #
straight-curve $-1 -73.940244758445999 29.368207242035446 44.957229761431748 0 0 -1 I I #
point $-1 -73.940244758445999 29.368207242035446 7.9263932505058223 #
straight-curve $-1 -73.940244758445999 11.234088331977123 2.9924903487676544 0 -1 0 I I #
point $-1 -73.940244758445999 29.368207242035446 2.9924903487676566 #
point $-1 -69.669962583973003 19.511020701919442 3.6591151795585755 #
point $-1 -69.669962583973003 25.425332625989043 3.6591151795585755 #
straight-curve $-1 73.940244758445999 1.1612294989371712 102.22834232564101 0 0 -1 I I #
point $-1 73.940244758445999 1.1612294989371712 7.9263932505058223 #
straight-curve $-1 73.940244758445999 2.6491126190534118 1.5342827576955926 0 1 0 I I #
point $-1 73.940244758445999 1.1612294989371712 1.5342827576955926 #
point $-1 69.123484724313641 5.2982252381068164 2.9900195675543171 #
End-of-ACIS-data 