500 0 13 0           
7 Unknown 11 ACIS 5.0 NT 24 Fri Mar 26 18:47:01 1999 
-1 9.9999999999999995e-007 1e-010 
body $-1 $13 $-1 $14 #
body $-1 $15 $-1 $16 #
body $-1 $17 $-1 $18 #
body $-1 $19 $-1 $20 #
body $-1 $21 $-1 $22 #
body $-1 $23 $-1 $24 #
body $-1 $25 $-1 $26 #
body $-1 $27 $-1 $28 #
body $-1 $29 $-1 $30 #
body $-1 $31 $-1 $32 #
body $-1 $33 $-1 $34 #
body $-1 $35 $-1 $36 #
body $-1 $37 $-1 $38 #
lump $-1 $-1 $39 $0 #
transform $-1 1 0 0 0 1 0 0 0 1 75.364848780785536 34.735865115113846 10.347189508624279 1 rotate no_reflect no_shear #
lump $-1 $-1 $40 $1 #
transform $-1 1 0 0 0 1 0 0 0 1 75.364848780785536 34.735865115113846 10.347189508624279 1 rotate no_reflect no_shear #
lump $-1 $-1 $41 $2 #
transform $-1 1 0 0 0 1 0 0 0 1 75.364848780785536 34.735865115113846 10.347189508624279 1 rotate no_reflect no_shear #
lump $-1 $-1 $42 $3 #
transform $-1 1 0 0 0 1 0 0 0 1 75.364848780785536 34.735865115113846 10.347189508624279 1 rotate no_reflect no_shear #
lump $-1 $-1 $43 $4 #
transform $-1 1 0 0 0 1 0 0 0 1 75.364848780785536 34.735865115113846 10.347189508624279 1 rotate no_reflect no_shear #
lump $-1 $-1 $44 $5 #
transform $-1 1 0 0 0 1 0 0 0 1 75.364848780785536 34.735865115113846 10.347189508624279 1 rotate no_reflect no_shear #
lump $-1 $-1 $45 $6 #
transform $-1 1 0 0 0 1 0 0 0 1 75.364848780785536 34.735865115113846 10.347189508624279 1 rotate no_reflect no_shear #
lump $-1 $-1 $46 $7 #
transform $-1 1 0 0 0 1 0 0 0 1 75.364848780785536 34.735865115113846 10.347189508624279 1 rotate no_reflect no_shear #
lump $-1 $-1 $47 $8 #
transform $-1 1 0 0 0 1 0 0 0 1 75.364848780785536 34.735865115113846 10.347189508624279 1 rotate no_reflect no_shear #
lump $-1 $-1 $48 $9 #
transform $-1 1 0 0 0 1 0 0 0 1 75.364848780785536 34.735865115113846 10.347189508624279 1 rotate no_reflect no_shear #
lump $-1 $-1 $49 $10 #
transform $-1 1 0 0 0 1 0 0 0 1 75.364848780785536 34.735865115113846 10.347189508624279 1 rotate no_reflect no_shear #
lump $-1 $-1 $50 $11 #
transform $-1 1 0 0 0 1 0 0 0 1 75.364848780785536 34.735865115113846 10.347189508624279 1 rotate no_reflect no_shear #
lump $-1 $-1 $51 $12 #
transform $-1 1 0 0 0 1 0 0 0 1 75.364848780785536 34.735865115113846 10.347189508624279 1 rotate no_reflect no_shear #
shell $-1 $-1 $-1 $52 $-1 $13 #
shell $-1 $-1 $-1 $53 $-1 $15 #
shell $-1 $-1 $-1 $54 $-1 $17 #
shell $-1 $-1 $-1 $55 $-1 $19 #
shell $-1 $-1 $-1 $56 $-1 $21 #
shell $-1 $-1 $-1 $57 $-1 $23 #
shell $-1 $-1 $-1 $58 $-1 $25 #
shell $-1 $-1 $-1 $59 $-1 $27 #
shell $-1 $-1 $-1 $60 $-1 $29 #
shell $-1 $-1 $-1 $61 $-1 $31 #
shell $-1 $-1 $-1 $62 $-1 $33 #
shell $-1 $-1 $-1 $63 $-1 $35 #
shell $-1 $-1 $-1 $64 $-1 $37 #
face $-1 $65 $66 $39 $-1 $67 forward single #
face $-1 $68 $69 $40 $-1 $70 reversed single #
face $-1 $71 $72 $41 $-1 $73 reversed single #
face $-1 $74 $75 $42 $-1 $76 reversed single #
face $-1 $77 $78 $43 $-1 $79 forward single #
face $-1 $80 $81 $44 $-1 $82 reversed single #
face $-1 $83 $84 $45 $-1 $85 forward single #
face $-1 $86 $87 $46 $-1 $88 forward single #
face $-1 $89 $90 $47 $-1 $91 forward single #
face $-1 $92 $93 $48 $-1 $94 reversed single #
face $-1 $95 $96 $49 $-1 $97 forward single #
face $-1 $98 $99 $50 $-1 $100 forward single #
face $-1 $101 $102 $51 $-1 $103 forward single #
face $-1 $104 $105 $39 $-1 $106 reversed single #
loop $-1 $-1 $107 $52 #
plane-surface $-1 0 0 10.347189508624279 0 0 1 1 0 0 forward_v I I I I #
face $-1 $108 $109 $40 $-1 $110 reversed single #
loop $-1 $-1 $111 $53 #
plane-surface $-1 -64.006360122927916 -27.952154581079611 0 1 0 0 0 0 -1 forward_v I I I I #
face $-1 $112 $113 $41 $-1 $114 reversed single #
loop $-1 $-1 $115 $54 #
plane-surface $-1 -62.352205552688758 21.168444047045377 0 0 1 0 0 0 1 forward_v I I I I #
face $-1 $116 $117 $42 $-1 $118 reversed single #
loop $-1 $-1 $119 $55 #
plane-surface $-1 130.53575037836231 9.901367202336143 211.46586638730091 0 -1 0 -0.86602541151947299 0 -0.49999998660252726 forward_v I I I I #
face $-1 $120 $121 $43 $-1 $122 forward single #
loop $-1 $123 $124 $56 #
cone-surface $-1 73.000234869607766 4.1535148184476327 7.3880062750776281 -0.86602541151947299 0 -0.49999998660252726 0.49999998660252726 0 -0.86602541151947299 1 I I 0 1 1 forward I I I I #
face $-1 $125 $126 $44 $-1 $127 reversed single #
loop $-1 $-1 $128 $57 #
plane-surface $-1 -168.16331792067157 -6.4145344357340548 125.48880519369963 0 1 0 -0.61566148304635926 0 0.78801074757464917 forward_v I I I I #
face $-1 $129 $130 $45 $-1 $131 forward single #
loop $-1 $132 $133 $58 #
cone-surface $-1 -72.730720347749852 -5.1316275485872431 8.1356811487774436 0.61566148304635926 0 -0.78801074757464917 0.39400537378732459 0 0.30783074152317963 1 I I 0 1 0.5 forward I I I I #
face $-1 $134 $135 $46 $-1 $136 forward single #
loop $-1 $137 $138 $59 #
cone-surface $-1 -72.730720347749852 -3.2072672178670274 8.1356811487774436 0.61566148304635926 0 -0.78801074757464917 0.39400537378732459 0 0.30783074152317963 1 I I 0 1 0.5 forward I I I I #
face $-1 $139 $140 $47 $-1 $141 forward single #
loop $-1 $142 $143 $60 #
cone-surface $-1 -72.730720347749852 -1.2829068871468152 8.1356811487774436 0.61566148304635926 0 -0.78801074757464917 0.39400537378732459 0 0.30783074152317963 1 I I 0 1 0.5 forward I I I I #
face $-1 $144 $145 $48 $-1 $146 reversed single #
loop $-1 $-1 $147 $61 #
plane-surface $-1 -168.16331792067157 14.753909611311322 125.48880519369963 0 1 0 -0.61566148304635926 0 0.78801074757464917 forward_v I I I I #
face $-1 $148 $149 $49 $-1 $150 forward single #
loop $-1 $151 $152 $62 #
cone-surface $-1 -72.730720347749852 16.036816498458137 8.1356811487774436 0.61566148304635926 0 -0.78801074757464917 0.39400537378732459 0 0.30783074152317963 1 I I 0 1 0.5 forward I I I I #
face $-1 $153 $154 $50 $-1 $155 forward single #
loop $-1 $156 $157 $63 #
cone-surface $-1 -72.730720347749852 17.961176829178349 8.1356811487774436 0.61566148304635926 0 -0.78801074757464917 0.39400537378732459 0 0.30783074152317963 1 I I 0 1 0.5 forward I I I I #
face $-1 $158 $159 $51 $-1 $160 forward single #
loop $-1 $161 $162 $64 #
cone-surface $-1 -72.730720347749852 19.885537159898568 8.1356811487774436 0.61566148304635926 0 -0.78801074757464917 0.39400537378732459 0 0.30783074152317963 1 I I 0 1 0.5 forward I I I I #
face $-1 $163 $164 $39 $-1 $165 reversed single #
loop $-1 $-1 $166 $65 #
plane-surface $-1 0 0 -10.347189508624279 0 0 1 1 0 0 forward_v I I I I #
coedge $-1 $167 $168 $169 $170 forward $66 $-1 #
face $-1 $171 $172 $40 $-1 $173 reversed single #
loop $-1 $-1 $174 $68 #
plane-surface $-1 -62.352205552688758 -21.168444047045377 0 0 -1 0 0 0 -1 forward_v I I I I #
coedge $-1 $175 $176 $177 $178 forward $69 $-1 #
face $-1 $179 $180 $41 $-1 $181 reversed single #
loop $-1 $-1 $182 $71 #
plane-surface $-1 -64.006360122927916 27.952154581079611 0 1 0 0 0 0 -1 forward_v I I I I #
coedge $-1 $183 $184 $185 $186 forward $72 $-1 #
face $-1 $187 $188 $42 $-1 $189 reversed single #
loop $-1 $-1 $190 $74 #
plane-surface $-1 2.0193970158288721e-006 4.1535148184476256 136.10101962591239 0.86602541151947299 0 0.49999998660252726 0.49999998660252726 0 -0.86602541151947299 forward_v I I I I #
coedge $-1 $191 $192 $193 $194 reversed $75 $-1 #
face $-1 $-1 $195 $43 $-1 $196 forward single #
loop $-1 $197 $198 $77 #
cone-surface $-1 71.58302909539006 4.1535148184476327 6.5697821690683078 -0.86602541151947299 0 -0.49999998660252726 0.24999999330126363 0 -0.43301270575973649 1 I I -0.70710678118654746 0.70710678118654746 0.5 forward I I I I #
loop $-1 $-1 $199 $56 #
coedge $-1 $124 $124 $200 $201 reversed $78 $-1 #
face $-1 $202 $203 $44 $-1 $204 reversed single #
loop $-1 $-1 $205 $80 #
plane-surface $-1 -75.364848780785522 -3.2072672178670274 6.7121835365052362 -0.61566148304635926 0 0.78801074757464917 0.78801074757464917 0 0.61566148304635926 forward_v I I I I #
coedge $-1 $206 $207 $208 $209 reversed $81 $-1 #
face $-1 $-1 $210 $45 $-1 $211 forward single #
loop $-1 $212 $213 $83 #
cone-surface $-1 -72.26897423546508 -5.1316275485872431 7.5446730880964559 0.61566148304635926 0 -0.78801074757464917 0.19700268689366229 0 0.15391537076158981 1 I I -0.70710678118654746 0.70710678118654746 0.25 forward I I I I #
loop $-1 $-1 $214 $58 #
coedge $-1 $133 $133 $215 $216 reversed $84 $-1 #
face $-1 $-1 $217 $46 $-1 $218 forward single #
loop $-1 $219 $220 $86 #
cone-surface $-1 -72.26897423546508 -3.2072672178670274 7.5446730880964559 0.61566148304635926 0 -0.78801074757464917 0.19700268689366229 0 0.15391537076158981 1 I I -0.70710678118654746 0.70710678118654746 0.25 forward I I I I #
loop $-1 $-1 $221 $59 #
coedge $-1 $138 $138 $222 $223 reversed $87 $-1 #
face $-1 $-1 $224 $47 $-1 $225 forward single #
loop $-1 $226 $227 $89 #
cone-surface $-1 -72.26897423546508 -1.2829068871468152 7.5446730880964559 0.61566148304635926 0 -0.78801074757464917 0.19700268689366229 0 0.15391537076158981 1 I I -0.70710678118654746 0.70710678118654746 0.25 forward I I I I #
loop $-1 $-1 $228 $60 #
coedge $-1 $143 $143 $229 $230 reversed $90 $-1 #
face $-1 $231 $232 $48 $-1 $233 reversed single #
loop $-1 $-1 $234 $92 #
plane-surface $-1 -75.364848780785522 17.961176829178349 6.7121835365052362 -0.61566148304635926 0 0.78801074757464917 0.78801074757464917 0 0.61566148304635926 forward_v I I I I #
coedge $-1 $235 $236 $237 $238 reversed $93 $-1 #
face $-1 $-1 $239 $49 $-1 $240 forward single #
loop $-1 $241 $242 $95 #
cone-surface $-1 -72.26897423546508 16.036816498458137 7.5446730880964559 0.61566148304635926 0 -0.78801074757464917 0.19700268689366229 0 0.15391537076158981 1 I I -0.70710678118654746 0.70710678118654746 0.25 forward I I I I #
loop $-1 $-1 $243 $62 #
coedge $-1 $152 $152 $244 $245 reversed $96 $-1 #
face $-1 $-1 $246 $50 $-1 $247 forward single #
loop $-1 $248 $249 $98 #
cone-surface $-1 -72.26897423546508 17.961176829178349 7.5446730880964559 0.61566148304635926 0 -0.78801074757464917 0.19700268689366229 0 0.15391537076158981 1 I I -0.70710678118654746 0.70710678118654746 0.25 forward I I I I #
loop $-1 $-1 $250 $63 #
coedge $-1 $157 $157 $251 $252 reversed $99 $-1 #
face $-1 $-1 $253 $51 $-1 $254 forward single #
loop $-1 $255 $256 $101 #
cone-surface $-1 -72.26897423546508 19.885537159898568 7.5446730880964559 0.61566148304635926 0 -0.78801074757464917 0.19700268689366229 0 0.15391537076158981 1 I I -0.70710678118654746 0.70710678118654746 0.25 forward I I I I #
loop $-1 $-1 $257 $64 #
coedge $-1 $162 $162 $258 $259 reversed $102 $-1 #
face $-1 $260 $261 $39 $-1 $262 reversed single #
loop $-1 $-1 $263 $104 #
plane-surface $-1 0 -34.735865115113846 0 0 1 0 0 0 1 forward_v I I I I #
coedge $-1 $264 $265 $266 $267 forward $105 $-1 #
coedge $-1 $268 $107 $269 $270 forward $66 $-1 #
coedge $-1 $107 $268 $271 $272 forward $66 $-1 #
coedge $-1 $273 $274 $107 $170 reversed $275 $-1 #
edge $-1 $276 -34.735865115113846 $277 34.735865115113846 $169 $278 forward 7 unknown #
face $-1 $279 $280 $40 $-1 $281 forward single #
loop $-1 $-1 $282 $108 #
plane-surface $-1 -60.698050982449601 -27.952154581079611 0 -1 0 0 0 0 1 forward_v I I I I #
coedge $-1 $283 $284 $285 $286 forward $109 $-1 #
coedge $-1 $287 $111 $288 $289 reversed $69 $-1 #
coedge $-1 $111 $287 $290 $291 reversed $69 $-1 #
coedge $-1 $284 $283 $111 $178 reversed $109 $-1 #
edge $-1 $292 -10.347189508624279 $293 10.347189508624279 $177 $294 forward 7 unknown #
face $-1 $295 $296 $41 $-1 $297 reversed single #
loop $-1 $-1 $298 $112 #
plane-surface $-1 -60.698050982449601 27.952154581079611 0 -1 0 0 0 0 1 forward_v I I I I #
coedge $-1 $299 $300 $301 $302 reversed $113 $-1 #
coedge $-1 $303 $115 $304 $305 reversed $72 $-1 #
coedge $-1 $115 $303 $306 $307 reversed $72 $-1 #
coedge $-1 $300 $299 $115 $186 reversed $113 $-1 #
edge $-1 $308 -10.347189508624279 $309 10.347189508624279 $185 $310 forward 7 unknown #
face $-1 $311 $312 $42 $-1 $313 forward single #
loop $-1 $-1 $314 $116 #
plane-surface $-1 130.53575037836231 -1.5943375654408918 211.46586638730091 0 1 0 0.86602541151947299 0 0.49999998660252726 forward_v I I I I #
coedge $-1 $315 $316 $317 $318 reversed $117 $-1 #
coedge $-1 $192 $119 $319 $320 reversed $75 $-1 #
coedge $-1 $119 $191 $315 $321 reversed $75 $-1 #
coedge $-1 $317 $322 $119 $194 forward $312 $-1 #
edge $-1 $323 -10.096973591604382 $324 -7.3361319061647521 $193 $325 forward 7 unknown #
loop $-1 $-1 $200 $120 #
plane-surface $-1 2.0193970158288721e-006 4.1535148184476256 136.10101962591239 0.86602541151947299 0 0.49999998660252726 0.49999998660252726 0 -0.86602541151947299 forward_v I I I I #
loop $-1 $-1 $326 $77 #
coedge $-1 $198 $198 $199 $327 reversed $121 $-1 #
coedge $-1 $199 $199 $198 $327 forward $123 $-1 #
coedge $-1 $200 $200 $124 $201 forward $195 $-1 #
edge $-1 $328 0 $328 6.2831853071796004 $200 $329 forward 7 unknown #
face $-1 $330 $331 $44 $-1 $332 reversed single #
loop $-1 $-1 $333 $125 #
plane-surface $-1 -168.16331792067157 0 125.48880519369963 0 -1 0 0.61566148304635926 0 -0.78801074757464917 forward_v I I I I #
coedge $-1 $334 $335 $336 $337 reversed $126 $-1 #
coedge $-1 $207 $128 $338 $339 reversed $81 $-1 #
coedge $-1 $128 $206 $334 $340 reversed $81 $-1 #
coedge $-1 $336 $341 $128 $209 forward $342 $-1 #
edge $-1 $343 8.7168101795502508 $344 13.369405562575309 $208 $345 forward 7 unknown #
loop $-1 $-1 $215 $129 #
plane-surface $-1 -75.364848780785522 -3.2072672178670274 6.7121835365052362 -0.61566148304635926 0 0.78801074757464917 0.78801074757464917 0 0.61566148304635926 forward_v I I I I #
loop $-1 $-1 $346 $83 #
coedge $-1 $213 $213 $214 $347 reversed $130 $-1 #
coedge $-1 $214 $214 $213 $347 forward $132 $-1 #
coedge $-1 $215 $215 $133 $216 forward $210 $-1 #
edge $-1 $348 0 $348 6.2831853071796004 $215 $349 forward 7 unknown #
loop $-1 $-1 $222 $134 #
plane-surface $-1 -75.364848780785522 -3.2072672178670274 6.7121835365052362 -0.61566148304635926 0 0.78801074757464917 0.78801074757464917 0 0.61566148304635926 forward_v I I I I #
loop $-1 $-1 $350 $86 #
coedge $-1 $220 $220 $221 $351 reversed $135 $-1 #
coedge $-1 $221 $221 $220 $351 forward $137 $-1 #
coedge $-1 $222 $222 $138 $223 forward $217 $-1 #
edge $-1 $352 0 $352 6.2831853071796004 $222 $353 forward 7 unknown #
loop $-1 $-1 $229 $139 #
plane-surface $-1 -75.364848780785522 -3.2072672178670274 6.7121835365052362 -0.61566148304635926 0 0.78801074757464917 0.78801074757464917 0 0.61566148304635926 forward_v I I I I #
loop $-1 $-1 $354 $89 #
coedge $-1 $227 $227 $228 $355 reversed $140 $-1 #
coedge $-1 $228 $228 $227 $355 forward $142 $-1 #
coedge $-1 $229 $229 $143 $230 forward $224 $-1 #
edge $-1 $356 0 $356 6.2831853071796004 $229 $357 forward 7 unknown #
face $-1 $358 $359 $48 $-1 $360 forward single #
loop $-1 $-1 $361 $144 #
plane-surface $-1 -168.16331792067157 21.168444047045377 125.48880519369963 0 -1 0 0.61566148304635926 0 -0.78801074757464917 forward_v I I I I #
coedge $-1 $362 $363 $364 $365 reversed $145 $-1 #
coedge $-1 $236 $147 $366 $367 reversed $93 $-1 #
coedge $-1 $147 $235 $362 $368 reversed $93 $-1 #
coedge $-1 $364 $369 $147 $238 forward $359 $-1 #
edge $-1 $370 8.7168101795502508 $371 13.369405562575309 $237 $372 forward 7 unknown #
loop $-1 $-1 $244 $148 #
plane-surface $-1 -75.364848780785522 17.961176829178349 6.7121835365052362 -0.61566148304635926 0 0.78801074757464917 0.78801074757464917 0 0.61566148304635926 forward_v I I I I #
loop $-1 $-1 $373 $95 #
coedge $-1 $242 $242 $243 $374 reversed $149 $-1 #
coedge $-1 $243 $243 $242 $374 forward $151 $-1 #
coedge $-1 $244 $244 $152 $245 forward $239 $-1 #
edge $-1 $375 0 $375 6.2831853071796004 $244 $376 forward 7 unknown #
loop $-1 $-1 $251 $153 #
plane-surface $-1 -75.364848780785522 17.961176829178349 6.7121835365052362 -0.61566148304635926 0 0.78801074757464917 0.78801074757464917 0 0.61566148304635926 forward_v I I I I #
loop $-1 $-1 $377 $98 #
coedge $-1 $249 $249 $250 $378 reversed $154 $-1 #
coedge $-1 $250 $250 $249 $378 forward $156 $-1 #
coedge $-1 $251 $251 $157 $252 forward $246 $-1 #
edge $-1 $379 0 $379 6.2831853071796004 $251 $380 forward 7 unknown #
loop $-1 $-1 $258 $158 #
plane-surface $-1 -75.364848780785522 17.961176829178349 6.7121835365052362 -0.61566148304635926 0 0.78801074757464917 0.78801074757464917 0 0.61566148304635926 forward_v I I I I #
loop $-1 $-1 $381 $101 #
coedge $-1 $256 $256 $257 $382 reversed $159 $-1 #
coedge $-1 $257 $257 $256 $382 forward $161 $-1 #
coedge $-1 $258 $258 $162 $259 forward $253 $-1 #
edge $-1 $383 0 $383 6.2831853071796004 $258 $384 forward 7 unknown #
face $-1 $385 $386 $39 $-1 $387 reversed single #
loop $-1 $-1 $388 $163 #
plane-surface $-1 -75.364848780785536 0 0 1 0 0 0 0 -1 forward_v I I I I #
coedge $-1 $389 $271 $390 $391 forward $164 $-1 #
coedge $-1 $392 $166 $389 $393 forward $105 $-1 #
coedge $-1 $166 $392 $394 $395 forward $105 $-1 #
coedge $-1 $274 $273 $166 $267 reversed $275 $-1 #
edge $-1 $396 -34.735865115113846 $397 34.735865115113846 $266 $398 forward 7 unknown #
coedge $-1 $168 $167 $399 $400 forward $66 $-1 #
coedge $-1 $401 $402 $167 $270 reversed $386 $-1 #
edge $-1 $277 -75.364848780785536 $403 75.364848780785536 $269 $404 forward 7 unknown #
coedge $-1 $263 $405 $168 $272 reversed $164 $-1 #
edge $-1 $406 -75.364848780785536 $276 75.364848780785536 $271 $407 forward 7 unknown #
coedge $-1 $266 $169 $405 $408 forward $275 $-1 #
coedge $-1 $169 $266 $401 $409 reversed $275 $-1 #
loop $-1 $-1 $273 $385 #
vertex $-1 $170 $410 #
vertex $-1 $170 $411 #
straight-curve $-1 75.364848780785536 0 10.347189508624279 0 1 0 I I #
face $-1 $412 $413 $40 $-1 $414 reversed single #
loop $-1 $-1 $415 $171 #
plane-surface $-1 0 0 10.347189508624279 0 0 1 1 0 0 forward_v I I I I #
coedge $-1 $416 $417 $418 $419 reversed $172 $-1 #
coedge $-1 $177 $174 $420 $421 reversed $109 $-1 #
coedge $-1 $174 $177 $422 $423 reversed $109 $-1 #
coedge $-1 $417 $416 $174 $286 reversed $172 $-1 #
edge $-1 $424 -10.347189508624279 $425 10.347189508624279 $285 $426 forward 7 unknown #
coedge $-1 $176 $175 $427 $428 reversed $69 $-1 #
coedge $-1 $420 $429 $175 $289 forward $413 $-1 #
edge $-1 $430 -20.75978782457404 $293 -7.1923667565055709 $288 $431 forward 7 unknown #
coedge $-1 $432 $422 $176 $291 forward $280 $-1 #
edge $-1 $292 7.1923667565055709 $433 20.75978782457404 $290 $434 forward 7 unknown #
vertex $-1 $291 $435 #
vertex $-1 $289 $436 #
straight-curve $-1 -64.006360122927916 -21.168444047045377 0 0 0 -1 I I #
face $-1 $437 $438 $41 $-1 $439 forward single #
loop $-1 $-1 $440 $179 #
plane-surface $-1 0 0 -10.347189508624279 0 0 1 1 0 0 forward_v I I I I #
coedge $-1 $441 $442 $303 $443 forward $180 $-1 #
coedge $-1 $185 $182 $444 $445 reversed $113 $-1 #
coedge $-1 $182 $185 $446 $447 reversed $113 $-1 #
coedge $-1 $448 $449 $182 $302 forward $450 $-1 #
edge $-1 $451 -10.347189508624279 $452 10.347189508624279 $301 $453 forward 7 unknown #
coedge $-1 $184 $183 $298 $443 reversed $72 $-1 #
coedge $-1 $444 $440 $183 $305 forward $296 $-1 #
edge $-1 $454 29.521948206105222 $309 32.830257346583537 $304 $455 forward 7 unknown #
coedge $-1 $456 $446 $184 $307 forward $438 $-1 #
edge $-1 $308 -32.830257346583537 $457 -29.521948206105222 $306 $458 forward 7 unknown #
vertex $-1 $307 $459 #
vertex $-1 $305 $460 #
straight-curve $-1 -64.006360122927916 21.168444047045377 0 0 0 -1 I I #
face $-1 $-1 $461 $42 $-1 $462 reversed single #
loop $-1 $-1 $193 $187 #
plane-surface $-1 0 0 10.347189508624279 0 0 1 1 0 0 forward_v I I I I #
coedge $-1 $463 $464 $465 $466 reversed $188 $-1 #
coedge $-1 $467 $190 $192 $321 forward $117 $-1 #
coedge $-1 $190 $467 $463 $468 forward $117 $-1 #
coedge $-1 $465 $193 $190 $318 forward $312 $-1 #
edge $-1 $324 -7.8246097931123302 $469 3.6710949746647046 $317 $470 forward 7 unknown #
coedge $-1 $471 $472 $191 $320 forward $461 $-1 #
edge $-1 $473 -100.16766192670336 $323 -95.385743685026171 $319 $474 forward 7 unknown #
edge $-1 $324 145.2080140427386 $473 150.72969756157107 $192 $475 forward 7 unknown #
coedge $-1 $193 $465 $471 $476 forward $312 $-1 #
vertex $-1 $194 $477 #
vertex $-1 $194 $478 #
straight-curve $-1 65.267875189181154 9.901367202336143 10.347189508624282 -1 0 0 I I #
coedge $-1 $326 $326 $-1 $479 reversed $197 $-1 #
edge $-1 $480 0 $480 6.2831853071796004 $198 $481 forward 7 unknown #
vertex $-1 $201 $482 #
ellipse-curve $-1 73.984427938065721 4.1535148184476327 7.9562303877856833 0.86602541151947299 0 0.49999998660252726 0.49999998660252726 0 -0.86602541151947299 1 I I #
face $-1 $-1 $342 $44 $-1 $483 forward single #
loop $-1 $-1 $484 $202 #
plane-surface $-1 -75.364848780785536 0 0 1 0 0 0 0 -1 forward_v I I I I #
coedge $-1 $485 $486 $487 $488 reversed $203 $-1 #
coedge $-1 $489 $205 $207 $340 forward $126 $-1 #
coedge $-1 $205 $489 $485 $490 forward $126 $-1 #
coedge $-1 $487 $208 $205 $337 forward $342 $-1 #
edge $-1 $344 -4.8109008268005411 $491 1.6036336089335137 $336 $492 forward 7 unknown #
coedge $-1 $493 $494 $206 $339 forward $331 $-1 #
edge $-1 $495 -56.032219060344595 $343 -52.397213088225541 $338 $496 forward 7 unknown #
edge $-1 $344 -5.9042283336171089 $495 1.830693040787162e-014 $207 $497 forward 7 unknown #
coedge $-1 $208 $487 $493 $498 forward $342 $-1 #
loop $-1 $-1 $487 $330 #
vertex $-1 $339 $499 #
vertex $-1 $209 $500 #
straight-curve $-1 -84.081658960335787 -6.4145344357340548 10.347189508624282 1 0 0 I I #
coedge $-1 $346 $346 $-1 $501 reversed $212 $-1 #
edge $-1 $502 0 $502 6.2831853071796004 $213 $503 forward 7 unknown #
vertex $-1 $216 $504 #
ellipse-curve $-1 -73.038551089273014 -5.1316275485872431 8.5296865225647469 -0.61566148304635926 0 0.78801074757464917 0.39400537378732459 0 0.30783074152317963 1 I I #
coedge $-1 $350 $350 $-1 $505 reversed $219 $-1 #
edge $-1 $506 0 $506 6.2831853071796004 $220 $507 forward 7 unknown #
vertex $-1 $223 $508 #
ellipse-curve $-1 -73.038551089273014 -3.2072672178670274 8.5296865225647469 -0.61566148304635926 0 0.78801074757464917 0.39400537378732459 0 0.30783074152317963 1 I I #
coedge $-1 $354 $354 $-1 $509 reversed $226 $-1 #
edge $-1 $510 0 $510 6.2831853071796004 $227 $511 forward 7 unknown #
vertex $-1 $230 $512 #
ellipse-curve $-1 -73.038551089273014 -1.2829068871468152 8.5296865225647469 -0.61566148304635926 0 0.78801074757464917 0.39400537378732459 0 0.30783074152317963 1 I I #
face $-1 $-1 $513 $48 $-1 $514 reversed single #
loop $-1 $-1 $237 $231 #
plane-surface $-1 0 0 10.347189508624279 0 0 1 1 0 0 forward_v I I I I #
coedge $-1 $515 $516 $517 $518 reversed $232 $-1 #
coedge $-1 $519 $234 $236 $368 forward $145 $-1 #
coedge $-1 $234 $519 $515 $520 forward $145 $-1 #
coedge $-1 $517 $237 $234 $365 forward $359 $-1 #
edge $-1 $371 5.7733211967221472 $521 12.187855632456202 $364 $522 forward 7 unknown #
coedge $-1 $523 $524 $235 $367 forward $513 $-1 #
edge $-1 $525 -56.032219060344595 $370 -52.397213088225541 $366 $526 forward 7 unknown #
edge $-1 $371 -5.9042283336171089 $525 1.830693040787162e-014 $236 $527 forward 7 unknown #
coedge $-1 $237 $517 $523 $528 forward $359 $-1 #
vertex $-1 $367 $529 #
vertex $-1 $238 $530 #
straight-curve $-1 -84.081658960335787 14.753909611311322 10.347189508624282 1 0 0 I I #
coedge $-1 $373 $373 $-1 $531 reversed $241 $-1 #
edge $-1 $532 0 $532 6.2831853071796004 $242 $533 forward 7 unknown #
vertex $-1 $245 $534 #
ellipse-curve $-1 -73.038551089273014 16.036816498458137 8.5296865225647469 -0.61566148304635926 0 0.78801074757464917 0.39400537378732459 0 0.30783074152317963 1 I I #
coedge $-1 $377 $377 $-1 $535 reversed $248 $-1 #
edge $-1 $536 0 $536 6.2831853071796004 $249 $537 forward 7 unknown #
vertex $-1 $252 $538 #
ellipse-curve $-1 -73.038551089273014 17.961176829178349 8.5296865225647469 -0.61566148304635926 0 0.78801074757464917 0.39400537378732459 0 0.30783074152317963 1 I I #
coedge $-1 $381 $381 $-1 $539 reversed $255 $-1 #
edge $-1 $540 0 $540 6.2831853071796004 $256 $541 forward 7 unknown #
vertex $-1 $259 $542 #
ellipse-curve $-1 -73.038551089273014 19.885537159898568 8.5296865225647469 -0.61566148304635926 0 0.78801074757464917 0.39400537378732459 0 0.30783074152317963 1 I I #
face $-1 $-1 $275 $39 $-1 $543 reversed single #
loop $-1 $-1 $401 $260 #
plane-surface $-1 0 34.735865115113846 0 0 -1 0 0 0 -1 forward_v I I I I #
coedge $-1 $544 $399 $402 $545 forward $261 $-1 #
coedge $-1 $405 $263 $264 $393 reversed $164 $-1 #
coedge $-1 $399 $544 $263 $391 reversed $261 $-1 #
edge $-1 $406 -10.347189508624279 $546 10.347189508624279 $390 $547 forward 7 unknown #
coedge $-1 $265 $264 $544 $548 forward $105 $-1 #
edge $-1 $397 -75.364848780785536 $546 75.364848780785536 $389 $549 forward 7 unknown #
coedge $-1 $402 $401 $265 $395 reversed $386 $-1 #
edge $-1 $550 -75.364848780785536 $396 75.364848780785536 $394 $551 forward 7 unknown #
vertex $-1 $267 $552 #
vertex $-1 $408 $553 #
straight-curve $-1 75.364848780785536 0 -10.347189508624279 0 -1 0 I I #
coedge $-1 $388 $390 $268 $400 reversed $261 $-1 #
edge $-1 $403 -34.735865115113846 $406 34.735865115113846 $399 $554 forward 7 unknown #
coedge $-1 $394 $269 $274 $409 forward $386 $-1 #
coedge $-1 $269 $394 $388 $545 reversed $386 $-1 #
vertex $-1 $270 $555 #
straight-curve $-1 0 34.735865115113846 10.347189508624279 -1 0 0 I I #
coedge $-1 $271 $389 $273 $408 reversed $164 $-1 #
vertex $-1 $400 $556 #
straight-curve $-1 0 -34.735865115113846 10.347189508624279 1 0 0 I I #
edge $-1 $276 -10.347189508624279 $397 10.347189508624279 $273 $557 forward 7 unknown #
edge $-1 $277 -10.347189508624279 $396 10.347189508624279 $274 $558 forward 7 unknown #
point $-1 75.364848780785536 -34.735865115113846 10.347189508624279 #
point $-1 75.364848780785536 34.735865115113846 10.347189508624279 #
face $-1 $-1 $559 $40 $-1 $560 reversed single #
loop $-1 $-1 $561 $279 #
plane-surface $-1 0 0 -10.347189508624279 0 0 1 1 0 0 forward_v I I I I #
coedge $-1 $422 $432 $417 $562 forward $280 $-1 #
coedge $-1 $285 $282 $561 $563 reversed $172 $-1 #
coedge $-1 $282 $285 $415 $562 reversed $172 $-1 #
coedge $-1 $564 $565 $282 $419 forward $559 $-1 #
edge $-1 $566 -10.347189508624279 $567 10.347189508624279 $418 $568 forward 7 unknown #
coedge $-1 $561 $288 $283 $421 forward $413 $-1 #
edge $-1 $293 -32.830257346583537 $425 -29.521948206105222 $420 $569 forward 7 unknown #
coedge $-1 $290 $415 $284 $423 forward $280 $-1 #
edge $-1 $424 29.521948206105222 $292 32.830257346583537 $422 $570 forward 7 unknown #
vertex $-1 $423 $571 #
vertex $-1 $421 $572 #
straight-curve $-1 -60.698050982449601 -21.168444047045377 0 0 0 -1 I I #
coedge $-1 $565 $564 $287 $428 forward $559 $-1 #
edge $-1 $433 -10.347189508624279 $430 10.347189508624279 $427 $573 forward 7 unknown #
coedge $-1 $288 $561 $565 $574 forward $413 $-1 #
vertex $-1 $289 $575 #
straight-curve $-1 -64.006360122927916 -13.976077290539806 -10.347189508624279 0 1 0 I I #
coedge $-1 $415 $290 $564 $576 forward $280 $-1 #
vertex $-1 $576 $577 #
straight-curve $-1 -64.006360122927916 -13.976077290539806 10.347189508624279 0 -1 0 I I #
point $-1 -64.006360122927916 -21.168444047045377 10.347189508624279 #
point $-1 -64.006360122927916 -21.168444047045377 -10.347189508624279 #
face $-1 $-1 $450 $41 $-1 $578 reversed single #
loop $-1 $-1 $456 $295 #
plane-surface $-1 0 0 10.347189508624279 0 0 1 1 0 0 forward_v I I I I #
coedge $-1 $304 $579 $441 $580 forward $296 $-1 #
coedge $-1 $581 $298 $440 $580 reversed $180 $-1 #
coedge $-1 $298 $581 $456 $582 reversed $180 $-1 #
edge $-1 $457 -10.347189508624279 $454 10.347189508624279 $298 $583 forward 7 unknown #
coedge $-1 $579 $304 $299 $445 forward $296 $-1 #
edge $-1 $309 7.1923667565055709 $451 20.75978782457404 $444 $584 forward 7 unknown #
coedge $-1 $306 $585 $300 $447 forward $438 $-1 #
edge $-1 $452 -20.75978782457404 $308 -7.1923667565055709 $446 $586 forward 7 unknown #
coedge $-1 $587 $301 $585 $588 reversed $450 $-1 #
coedge $-1 $301 $587 $579 $589 reversed $450 $-1 #
loop $-1 $-1 $587 $437 #
vertex $-1 $589 $590 #
vertex $-1 $302 $591 #
straight-curve $-1 -64.006360122927916 34.735865115113846 0 0 0 1 I I #
vertex $-1 $305 $592 #
straight-curve $-1 -31.176102776344379 21.168444047045377 -10.347189508624279 -1 0 0 I I #
coedge $-1 $585 $306 $442 $582 forward $438 $-1 #
vertex $-1 $307 $593 #
straight-curve $-1 -31.176102776344379 21.168444047045377 10.347189508624279 1 0 0 I I #
point $-1 -64.006360122927916 21.168444047045377 10.347189508624279 #
point $-1 -64.006360122927916 21.168444047045377 -10.347189508624279 #
loop $-1 $-1 $319 $311 #
plane-surface $-1 75.364848780785536 0 0 -1 0 0 0 0 1 forward_v I I I I #
coedge $-1 $464 $314 $316 $468 reversed $188 $-1 #
coedge $-1 $314 $463 $594 $595 reversed $188 $-1 #
coedge $-1 $322 $317 $314 $466 forward $312 $-1 #
edge $-1 $469 7.3361319061647521 $596 10.096973591604382 $465 $597 forward 7 unknown #
coedge $-1 $316 $315 $472 $598 reversed $117 $-1 #
edge $-1 $599 -150.72969756157107 $469 -145.2080140427386 $463 $600 forward 7 unknown #
vertex $-1 $318 $601 #
straight-curve $-1 72.604007095345892 2.0767574092238128 10.347189508624282 0 -1 0 I I #
coedge $-1 $594 $319 $322 $476 reversed $461 $-1 #
coedge $-1 $319 $594 $467 $598 forward $461 $-1 #
vertex $-1 $320 $602 #
straight-curve $-1 75.364848780785536 9.901367202336143 105.73293319365045 0 0 1 I I #
straight-curve $-1 2.0193970158288721e-006 9.901367202336143 136.10101962591239 0.49999998660252726 0 -0.86602541151947299 I I #
edge $-1 $596 -1.5943375654408918 $323 9.901367202336143 $471 $603 forward 7 unknown #
point $-1 75.364848780785536 9.901367202336143 10.347189508624279 #
point $-1 72.604007095345906 9.901367202336143 10.347189508624282 #
edge $-1 $604 1 $604 0 $326 $-1 forward 7 unknown #
vertex $-1 $327 $605 #
ellipse-curve $-1 72.016041801149797 4.1535148184476327 6.8197821623695711 0.86602541151947299 0 0.49999998660252726 0.49999998660252726 0 -0.86602541151947299 1 I I #
point $-1 74.484427924668253 4.1535148184476327 7.0902049762662127 #
plane-surface $-1 0 0 10.347189508624279 0 0 1 1 0 0 forward_v I I I I #
coedge $-1 $494 $493 $486 $606 forward $331 $-1 #
coedge $-1 $486 $333 $335 $490 reversed $203 $-1 #
coedge $-1 $333 $485 $484 $606 reversed $203 $-1 #
coedge $-1 $341 $336 $333 $488 forward $342 $-1 #
edge $-1 $491 -13.369405562575309 $607 -8.7168101795502508 $487 $608 forward 7 unknown #
coedge $-1 $335 $334 $494 $609 reversed $126 $-1 #
edge $-1 $610 -1.830693040787162e-014 $491 5.9042283336171089 $485 $611 forward 7 unknown #
vertex $-1 $337 $612 #
straight-curve $-1 -70.712253397760477 -1.6036336089335137 10.347189508624277 0 1 0 I I #
coedge $-1 $484 $338 $341 $498 reversed $331 $-1 #
coedge $-1 $338 $484 $489 $609 forward $331 $-1 #
vertex $-1 $339 $613 #
straight-curve $-1 -75.364848780785536 -6.4145344357340548 62.744402596849817 0 0 1 I I #
straight-curve $-1 -75.364848780785522 -6.4145344357340548 6.7121835365052362 -0.78801074757464917 0 -0.61566148304635926 I I #
edge $-1 $607 0 $343 6.4145344357340548 $493 $614 forward 7 unknown #
point $-1 -75.364848780785536 -6.4145344357340548 10.347189508624279 #
point $-1 -70.712253397760477 -6.4145344357340548 10.347189508624279 #
edge $-1 $615 1 $615 0 $346 $-1 forward 7 unknown #
vertex $-1 $347 $616 #
ellipse-curve $-1 -72.422889606226676 -5.1316275485872431 7.7416757749901182 -0.61566148304635926 0 0.78801074757464917 0.39400537378732459 0 0.30783074152317963 1 I I #
point $-1 -72.644545715485705 -5.1316275485872431 8.8375172640879462 #
edge $-1 $617 1 $617 0 $350 $-1 forward 7 unknown #
vertex $-1 $351 $618 #
ellipse-curve $-1 -72.422889606226676 -3.2072672178670274 7.7416757749901182 -0.61566148304635926 0 0.78801074757464917 0.39400537378732459 0 0.30783074152317963 1 I I #
point $-1 -72.644545715485705 -3.2072672178670274 8.8375172640879462 #
edge $-1 $619 1 $619 0 $354 $-1 forward 7 unknown #
vertex $-1 $355 $620 #
ellipse-curve $-1 -72.422889606226676 -1.2829068871468152 7.7416757749901182 -0.61566148304635926 0 0.78801074757464917 0.39400537378732459 0 0.30783074152317963 1 I I #
point $-1 -72.644545715485705 -1.2829068871468152 8.8375172640879462 #
loop $-1 $-1 $366 $358 #
plane-surface $-1 -75.364848780785536 0 0 1 0 0 0 0 -1 forward_v I I I I #
coedge $-1 $516 $361 $363 $520 reversed $232 $-1 #
coedge $-1 $361 $515 $621 $622 reversed $232 $-1 #
coedge $-1 $369 $364 $361 $518 forward $359 $-1 #
edge $-1 $521 -13.369405562575309 $623 -8.7168101795502508 $517 $624 forward 7 unknown #
coedge $-1 $363 $362 $524 $625 reversed $145 $-1 #
edge $-1 $626 -1.830693040787162e-014 $521 5.9042283336171089 $515 $627 forward 7 unknown #
vertex $-1 $365 $628 #
straight-curve $-1 -70.712253397760477 8.9805884145891746 10.347189508624277 0 1 0 I I #
coedge $-1 $621 $366 $369 $528 reversed $513 $-1 #
coedge $-1 $366 $621 $519 $625 forward $513 $-1 #
vertex $-1 $367 $629 #
straight-curve $-1 -75.364848780785536 14.753909611311322 62.744402596849817 0 0 1 I I #
straight-curve $-1 -75.364848780785522 14.753909611311322 6.7121835365052362 -0.78801074757464917 0 -0.61566148304635926 I I #
edge $-1 $623 -21.168444047045377 $370 -14.753909611311322 $523 $630 forward 7 unknown #
point $-1 -75.364848780785536 14.753909611311322 10.347189508624279 #
point $-1 -70.712253397760477 14.753909611311322 10.347189508624279 #
edge $-1 $631 1 $631 0 $373 $-1 forward 7 unknown #
vertex $-1 $374 $632 #
ellipse-curve $-1 -72.422889606226676 16.036816498458137 7.7416757749901182 -0.61566148304635926 0 0.78801074757464917 0.39400537378732459 0 0.30783074152317963 1 I I #
point $-1 -72.644545715485705 16.036816498458137 8.8375172640879462 #
edge $-1 $633 1 $633 0 $377 $-1 forward 7 unknown #
vertex $-1 $378 $634 #
ellipse-curve $-1 -72.422889606226676 17.961176829178349 7.7416757749901182 -0.61566148304635926 0 0.78801074757464917 0.39400537378732459 0 0.30783074152317963 1 I I #
point $-1 -72.644545715485705 17.961176829178349 8.8375172640879462 #
edge $-1 $635 1 $635 0 $381 $-1 forward 7 unknown #
vertex $-1 $382 $636 #
ellipse-curve $-1 -72.422889606226676 19.885537159898568 7.7416757749901182 -0.61566148304635926 0 0.78801074757464917 0.39400537378732459 0 0.30783074152317963 1 I I #
point $-1 -72.644545715485705 19.885537159898568 8.8375172640879462 #
plane-surface $-1 75.364848780785536 0 0 -1 0 0 0 0 1 forward_v I I I I #
coedge $-1 $390 $388 $392 $548 reversed $261 $-1 #
edge $-1 $403 -10.347189508624279 $550 10.347189508624279 $402 $637 forward 7 unknown #
vertex $-1 $548 $638 #
straight-curve $-1 -75.364848780785536 -34.735865115113846 0 0 0 -1 I I #
edge $-1 $546 -34.735865115113846 $550 34.735865115113846 $544 $639 forward 7 unknown #
straight-curve $-1 0 -34.735865115113846 -10.347189508624279 -1 0 0 I I #
vertex $-1 $395 $640 #
straight-curve $-1 0 34.735865115113846 -10.347189508624279 1 0 0 I I #
point $-1 75.364848780785536 34.735865115113846 -10.347189508624279 #
point $-1 75.364848780785536 -34.735865115113846 -10.347189508624279 #
straight-curve $-1 -75.364848780785536 0 10.347189508624279 0 -1 0 I I #
point $-1 -75.364848780785536 34.735865115113846 10.347189508624279 #
point $-1 -75.364848780785536 -34.735865115113846 10.347189508624279 #
straight-curve $-1 75.364848780785536 -34.735865115113846 0 0 0 -1 I I #
straight-curve $-1 75.364848780785536 34.735865115113846 0 0 0 -1 I I #
loop $-1 $-1 $418 $412 #
plane-surface $-1 0 -34.735865115113846 0 0 1 0 0 0 1 forward_v I I I I #
coedge $-1 $429 $420 $416 $563 forward $413 $-1 #
edge $-1 $567 -20.75978782457404 $424 -7.1923667565055709 $415 $641 forward 7 unknown #
edge $-1 $425 7.1923667565055709 $566 20.75978782457404 $561 $642 forward 7 unknown #
coedge $-1 $427 $418 $432 $576 reversed $559 $-1 #
coedge $-1 $418 $427 $429 $574 reversed $559 $-1 #
vertex $-1 $574 $643 #
vertex $-1 $419 $644 #
straight-curve $-1 -60.698050982449601 -34.735865115113846 0 0 0 1 I I #
straight-curve $-1 -31.176102776344379 -21.168444047045377 -10.347189508624279 1 0 0 I I #
straight-curve $-1 -31.176102776344379 -21.168444047045377 10.347189508624279 -1 0 0 I I #
point $-1 -60.698050982449601 -21.168444047045377 10.347189508624279 #
point $-1 -60.698050982449601 -21.168444047045377 -10.347189508624279 #
straight-curve $-1 -64.006360122927916 -34.735865115113846 0 0 0 -1 I I #
edge $-1 $566 60.698050982449601 $430 64.006360122927916 $565 $645 forward 7 unknown #
point $-1 -64.006360122927916 -34.735865115113846 -10.347189508624279 #
edge $-1 $433 -64.006360122927916 $567 -60.698050982449601 $564 $646 forward 7 unknown #
point $-1 -64.006360122927916 -34.735865115113846 10.347189508624279 #
plane-surface $-1 0 34.735865115113846 0 0 -1 0 0 0 -1 forward_v I I I I #
coedge $-1 $440 $444 $449 $589 forward $296 $-1 #
edge $-1 $647 -20.75978782457404 $454 -7.1923667565055709 $440 $648 forward 7 unknown #
coedge $-1 $442 $441 $587 $649 reversed $180 $-1 #
edge $-1 $457 7.1923667565055709 $650 20.75978782457404 $456 $651 forward 7 unknown #
straight-curve $-1 -60.698050982449601 21.168444047045377 0 0 0 -1 I I #
straight-curve $-1 -64.006360122927916 13.976077290539806 -10.347189508624279 0 1 0 I I #
coedge $-1 $446 $456 $448 $588 forward $438 $-1 #
straight-curve $-1 -64.006360122927916 13.976077290539806 10.347189508624279 0 -1 0 I I #
coedge $-1 $449 $448 $581 $649 forward $450 $-1 #
edge $-1 $650 60.698050982449601 $452 64.006360122927916 $448 $652 forward 7 unknown #
edge $-1 $451 -64.006360122927916 $647 -60.698050982449601 $449 $653 forward 7 unknown #
point $-1 -64.006360122927916 34.735865115113846 -10.347189508624279 #
point $-1 -64.006360122927916 34.735865115113846 10.347189508624279 #
point $-1 -60.698050982449601 21.168444047045377 -10.347189508624279 #
point $-1 -60.698050982449601 21.168444047045377 10.347189508624279 #
coedge $-1 $472 $471 $464 $595 forward $461 $-1 #
edge $-1 $596 95.385743685026171 $599 100.16766192670336 $594 $654 forward 7 unknown #
vertex $-1 $476 $655 #
straight-curve $-1 65.267875189181154 -1.5943375654408918 10.347189508624282 1 0 0 I I #
edge $-1 $599 -3.6710949746647046 $473 7.8246097931123302 $472 $656 forward 7 unknown #
vertex $-1 $598 $657 #
straight-curve $-1 2.0193970158288721e-006 -1.5943375654408918 136.10101962591239 -0.49999998660252726 0 0.86602541151947299 I I #
point $-1 72.604007095345906 -1.5943375654408918 10.347189508624282 #
point $-1 75.364848780785536 9.901367202336143 5.565271266947093 #
straight-curve $-1 75.364848780785536 0 10.347189508624279 0 1 0 I I #
vertex $-1 $479 $658 #
point $-1 72.516041787752329 4.1535148184476327 5.9537567508500988 #
edge $-1 $607 52.397213088225541 $610 56.032219060344595 $484 $659 forward 7 unknown #
vertex $-1 $498 $660 #
straight-curve $-1 -84.081658960335787 0 10.347189508624282 -1 0 0 I I #
edge $-1 $610 -1.6036336089335137 $495 4.8109008268005411 $494 $661 forward 7 unknown #
vertex $-1 $609 $662 #
straight-curve $-1 -75.364848780785522 0 6.7121835365052362 0.78801074757464917 0 0.61566148304635926 I I #
point $-1 -70.712253397760477 0 10.347189508624279 #
point $-1 -75.364848780785536 -6.4145344357340548 6.7121835365052247 #
straight-curve $-1 -75.364848780785536 0 10.347189508624279 0 -1 0 I I #
vertex $-1 $501 $663 #
point $-1 -72.028884232439339 -5.1316275485872431 8.0495065165132971 #
vertex $-1 $505 $664 #
point $-1 -72.028884232439339 -3.2072672178670274 8.0495065165132971 #
vertex $-1 $509 $665 #
point $-1 -72.028884232439339 -1.2829068871468152 8.0495065165132971 #
coedge $-1 $524 $523 $516 $622 forward $513 $-1 #
edge $-1 $623 52.397213088225541 $626 56.032219060344595 $621 $666 forward 7 unknown #
vertex $-1 $528 $667 #
straight-curve $-1 -84.081658960335787 21.168444047045377 10.347189508624282 -1 0 0 I I #
edge $-1 $626 -12.187855632456202 $525 -5.7733211967221472 $524 $668 forward 7 unknown #
vertex $-1 $625 $669 #
straight-curve $-1 -75.364848780785522 21.168444047045377 6.7121835365052362 0.78801074757464917 0 0.61566148304635926 I I #
point $-1 -70.712253397760477 21.168444047045377 10.347189508624279 #
point $-1 -75.364848780785536 14.753909611311322 6.7121835365052247 #
straight-curve $-1 -75.364848780785536 0 10.347189508624279 0 -1 0 I I #
vertex $-1 $531 $670 #
point $-1 -72.028884232439339 16.036816498458137 8.0495065165132971 #
vertex $-1 $535 $671 #
point $-1 -72.028884232439339 17.961176829178349 8.0495065165132971 #
vertex $-1 $539 $672 #
point $-1 -72.028884232439339 19.885537159898568 8.0495065165132971 #
straight-curve $-1 -75.364848780785536 34.735865115113846 0 0 0 -1 I I #
point $-1 -75.364848780785536 -34.735865115113846 -10.347189508624279 #
straight-curve $-1 -75.364848780785536 0 -10.347189508624279 0 1 0 I I #
point $-1 -75.364848780785536 34.735865115113846 -10.347189508624279 #
straight-curve $-1 -60.698050982449601 -13.976077290539806 10.347189508624279 0 1 0 I I #
straight-curve $-1 -60.698050982449601 -13.976077290539806 -10.347189508624279 0 -1 0 I I #
point $-1 -60.698050982449601 -34.735865115113846 -10.347189508624279 #
point $-1 -60.698050982449601 -34.735865115113846 10.347189508624279 #
straight-curve $-1 0 -34.735865115113846 -10.347189508624279 -1 0 0 I I #
straight-curve $-1 0 -34.735865115113846 10.347189508624279 1 0 0 I I #
vertex $-1 $649 $673 #
straight-curve $-1 -60.698050982449601 13.976077290539806 -10.347189508624279 0 -1 0 I I #
edge $-1 $650 -10.347189508624279 $647 10.347189508624279 $587 $674 forward 7 unknown #
vertex $-1 $588 $675 #
straight-curve $-1 -60.698050982449601 13.976077290539806 10.347189508624279 0 1 0 I I #
straight-curve $-1 0 34.735865115113846 10.347189508624279 -1 0 0 I I #
straight-curve $-1 0 34.735865115113846 -10.347189508624279 1 0 0 I I #
straight-curve $-1 75.364848780785536 -1.5943375654408918 105.73293319365045 0 0 -1 I I #
point $-1 75.364848780785536 -1.5943375654408918 10.347189508624279 #
straight-curve $-1 75.364848780785536 2.0767574092238128 5.5652712669471001 0 1 0 I I #
point $-1 75.364848780785536 -1.5943375654408918 5.565271266947093 #
point $-1 71.150016389630323 4.1535148184476327 6.3197821757670445 #
straight-curve $-1 -75.364848780785536 0 62.744402596849817 0 0 -1 I I #
point $-1 -75.364848780785536 0 10.347189508624279 #
straight-curve $-1 -75.364848780785536 -1.6036336089335137 6.7121835365052362 0 -1 0 I I #
point $-1 -75.364848780785536 0 6.7121835365052247 #
point $-1 -72.115058864703485 -5.1316275485872431 7.3476704012027936 #
point $-1 -72.115058864703485 -3.2072672178670274 7.3476704012027936 #
point $-1 -72.115058864703485 -1.2829068871468152 7.3476704012027936 #
straight-curve $-1 -75.364848780785536 21.168444047045377 62.744402596849817 0 0 -1 I I #
point $-1 -75.364848780785536 21.168444047045377 10.347189508624279 #
straight-curve $-1 -75.364848780785536 8.9805884145891746 6.7121835365052362 0 -1 0 I I #
point $-1 -75.364848780785536 21.168444047045377 6.7121835365052247 #
point $-1 -72.115058864703485 16.036816498458137 7.3476704012027936 #
point $-1 -72.115058864703485 17.961176829178349 7.3476704012027936 #
point $-1 -72.115058864703485 19.885537159898568 7.3476704012027936 #
point $-1 -60.698050982449601 34.735865115113846 -10.347189508624279 #
straight-curve $-1 -60.698050982449601 34.735865115113846 0 0 0 -1 I I #
point $-1 -60.698050982449601 34.735865115113846 10.347189508624279 #
End-of-ACIS-data 