500 0 18 0           
7 Unknown 11 ACIS 5.0 NT 24 Thu Mar 25 16:53:52 1999 
-1 9.9999999999999995e-007 1e-010 
body $-1 $18 $-1 $19 #
body $-1 $20 $-1 $21 #
body $-1 $22 $-1 $23 #
body $-1 $24 $-1 $25 #
body $-1 $26 $-1 $27 #
body $-1 $28 $-1 $29 #
body $-1 $30 $-1 $31 #
body $-1 $32 $-1 $33 #
body $-1 $34 $-1 $35 #
body $-1 $36 $-1 $37 #
body $-1 $38 $-1 $39 #
body $-1 $40 $-1 $41 #
body $-1 $42 $-1 $43 #
body $-1 $44 $-1 $45 #
body $-1 $46 $-1 $47 #
body $-1 $48 $-1 $49 #
body $-1 $50 $-1 $51 #
body $-1 $52 $-1 $53 #
lump $-1 $-1 $54 $0 #
transform $-1 1 0 0 0 1 0 0 0 1 49.24344615009003 27.157609516698564 9.9819361472293018 1 rotate no_reflect no_shear #
lump $-1 $-1 $55 $1 #
transform $-1 1 0 0 0 1 0 0 0 1 49.24344615009003 27.157609516698564 9.9819361472293018 1 rotate no_reflect no_shear #
lump $-1 $-1 $56 $2 #
transform $-1 1 0 0 0 1 0 0 0 1 49.24344615009003 27.157609516698564 9.9819361472293018 1 rotate no_reflect no_shear #
lump $-1 $-1 $57 $3 #
transform $-1 1 0 0 0 1 0 0 0 1 49.24344615009003 27.157609516698564 9.9819361472293018 1 rotate no_reflect no_shear #
lump $-1 $-1 $58 $4 #
transform $-1 1 0 0 0 1 0 0 0 1 49.24344615009003 27.157609516698564 9.9819361472293018 1 rotate no_reflect no_shear #
lump $-1 $-1 $59 $5 #
transform $-1 1 0 0 0 1 0 0 0 1 49.24344615009003 27.157609516698564 9.9819361472293018 1 rotate no_reflect no_shear #
lump $-1 $-1 $60 $6 #
transform $-1 1 0 0 0 1 0 0 0 1 49.24344615009003 27.157609516698564 9.9819361472293018 1 rotate no_reflect no_shear #
lump $-1 $-1 $61 $7 #
transform $-1 1 0 0 0 1 0 0 0 1 49.24344615009003 27.157609516698564 9.9819361472293018 1 rotate no_reflect no_shear #
lump $-1 $-1 $62 $8 #
transform $-1 1 0 0 0 1 0 0 0 1 49.24344615009003 27.157609516698564 9.9819361472293018 1 rotate no_reflect no_shear #
lump $-1 $-1 $63 $9 #
transform $-1 1 0 0 0 1 0 0 0 1 49.24344615009003 27.157609516698564 9.9819361472293018 1 rotate no_reflect no_shear #
lump $-1 $-1 $64 $10 #
transform $-1 1 0 0 0 1 0 0 0 1 49.24344615009003 27.157609516698564 9.9819361472293018 1 rotate no_reflect no_shear #
lump $-1 $-1 $65 $11 #
transform $-1 1 0 0 0 1 0 0 0 1 49.24344615009003 27.157609516698564 9.9819361472293018 1 rotate no_reflect no_shear #
lump $-1 $-1 $66 $12 #
transform $-1 1 0 0 0 1 0 0 0 1 49.24344615009003 27.157609516698564 9.9819361472293018 1 rotate no_reflect no_shear #
lump $-1 $-1 $67 $13 #
transform $-1 1 0 0 0 1 0 0 0 1 49.24344615009003 27.157609516698564 9.9819361472293018 1 rotate no_reflect no_shear #
lump $-1 $-1 $68 $14 #
transform $-1 1 0 0 0 1 0 0 0 1 49.24344615009003 27.157609516698564 9.9819361472293018 1 rotate no_reflect no_shear #
lump $-1 $-1 $69 $15 #
transform $-1 1 0 0 0 1 0 0 0 1 49.24344615009003 27.157609516698564 9.9819361472293018 1 rotate no_reflect no_shear #
lump $-1 $-1 $70 $16 #
transform $-1 1 0 0 0 1 0 0 0 1 49.24344615009003 27.157609516698564 9.9819361472293018 1 rotate no_reflect no_shear #
lump $-1 $-1 $71 $17 #
transform $-1 1 0 0 0 1 0 0 0 1 49.24344615009003 27.157609516698564 9.9819361472293018 1 rotate no_reflect no_shear #
shell $-1 $-1 $-1 $72 $-1 $18 #
shell $-1 $-1 $-1 $73 $-1 $20 #
shell $-1 $-1 $-1 $74 $-1 $22 #
shell $-1 $-1 $-1 $75 $-1 $24 #
shell $-1 $-1 $-1 $76 $-1 $26 #
shell $-1 $-1 $-1 $77 $-1 $28 #
shell $-1 $-1 $-1 $78 $-1 $30 #
shell $-1 $-1 $-1 $79 $-1 $32 #
shell $-1 $-1 $-1 $80 $-1 $34 #
shell $-1 $-1 $-1 $81 $-1 $36 #
shell $-1 $-1 $-1 $82 $-1 $38 #
shell $-1 $-1 $-1 $83 $-1 $40 #
shell $-1 $-1 $-1 $84 $-1 $42 #
shell $-1 $-1 $-1 $85 $-1 $44 #
shell $-1 $-1 $-1 $86 $-1 $46 #
shell $-1 $-1 $-1 $87 $-1 $48 #
shell $-1 $-1 $-1 $88 $-1 $50 #
shell $-1 $-1 $-1 $89 $-1 $52 #
face $-1 $90 $91 $54 $-1 $92 forward single #
face $-1 $93 $94 $55 $-1 $95 reversed single #
face $-1 $96 $97 $56 $-1 $98 reversed single #
face $-1 $99 $100 $57 $-1 $101 forward single #
face $-1 $102 $103 $58 $-1 $104 forward single #
face $-1 $105 $106 $59 $-1 $107 forward single #
face $-1 $108 $109 $60 $-1 $110 reversed single #
face $-1 $111 $112 $61 $-1 $113 forward single #
face $-1 $114 $115 $62 $-1 $116 forward single #
face $-1 $117 $118 $63 $-1 $119 forward single #
face $-1 $120 $121 $64 $-1 $122 reversed single #
face $-1 $123 $124 $65 $-1 $125 forward single #
face $-1 $126 $127 $66 $-1 $128 forward single #
face $-1 $129 $130 $67 $-1 $131 forward single #
face $-1 $132 $133 $68 $-1 $134 reversed single #
face $-1 $135 $136 $69 $-1 $137 forward single #
face $-1 $138 $139 $70 $-1 $140 forward single #
face $-1 $141 $142 $71 $-1 $143 forward single #
face $-1 $144 $145 $54 $-1 $146 reversed single #
loop $-1 $-1 $147 $72 #
plane-surface $-1 0 0 9.9819361472293018 0 0 1 1 0 0 forward_v I I I I #
face $-1 $148 $149 $55 $-1 $150 reversed single #
loop $-1 $-1 $151 $73 #
plane-surface $-1 -32.432107331787833 -23.758819205209782 0 1 0 0 0 0 -1 forward_v I I I I #
face $-1 $152 $153 $56 $-1 $154 reversed single #
loop $-1 $-1 $155 $74 #
plane-surface $-1 -46.228637831814801 83.602948774777218 103.81790461751785 1 0 0 0 -0.85716730853699208 -0.51503806187062418 forward_v I I I I #
face $-1 $156 $157 $57 $-1 $158 forward single #
loop $-1 $159 $160 $75 #
cone-surface $-1 -43.498224223509816 25.69381522355609 8.0015372307383377 0 -0.85716730853699208 -0.51503806187062418 0.5 0 0 1 I I 0 1 0.5 forward I I I I #
face $-1 $161 $162 $58 $-1 $163 forward single #
loop $-1 $164 $165 $76 #
cone-surface $-1 -39.40260381105233 25.69381522355609 8.0015372307383377 0 -0.85716730853699208 -0.51503806187062418 0.5 0 0 1 I I 0 1 0.5 forward I I I I #
face $-1 $166 $167 $59 $-1 $168 forward single #
loop $-1 $169 $170 $77 #
cone-surface $-1 -35.306983398594852 25.69381522355609 8.0015372307383377 0 -0.85716730853699208 -0.51503806187062418 0.5 0 0 1 I I 0 1 0.5 forward I I I I #
face $-1 $171 $172 $60 $-1 $173 reversed single #
loop $-1 $-1 $174 $78 #
plane-surface $-1 -21.60691475676979 83.602948774777218 103.81790461751785 1 0 0 0 -0.85716730853699208 -0.51503806187062418 forward_v I I I I #
face $-1 $175 $176 $61 $-1 $177 forward single #
loop $-1 $178 $179 $79 #
cone-surface $-1 -18.876501148464804 25.69381522355609 8.0015372307383377 0 -0.85716730853699208 -0.51503806187062418 0.5 0 0 1 I I 0 1 0.5 forward I I I I #
face $-1 $180 $181 $62 $-1 $182 forward single #
loop $-1 $183 $184 $80 #
cone-surface $-1 -14.780880736007319 25.69381522355609 8.0015372307383377 0 -0.85716730853699208 -0.51503806187062418 0.5 0 0 1 I I 0 1 0.5 forward I I I I #
face $-1 $185 $186 $63 $-1 $187 forward single #
loop $-1 $188 $189 $81 #
cone-surface $-1 -10.685260323549834 25.69381522355609 8.0015372307383377 0 -0.85716730853699208 -0.51503806187062418 0.5 0 0 1 I I 0 1 0.5 forward I I I I #
face $-1 $190 $191 $64 $-1 $192 reversed single #
loop $-1 $-1 $193 $82 #
plane-surface $-1 3.0148083182752279 83.602948774777218 103.81790461751785 1 0 0 0 -0.85716730853699208 -0.51503806187062418 forward_v I I I I #
face $-1 $194 $195 $65 $-1 $196 forward single #
loop $-1 $197 $198 $83 #
cone-surface $-1 5.7452219265802071 25.69381522355609 8.0015372307383377 0 -0.85716730853699208 -0.51503806187062418 0.5 0 0 1 I I 0 1 0.5 forward I I I I #
face $-1 $199 $200 $66 $-1 $201 forward single #
loop $-1 $202 $203 $84 #
cone-surface $-1 9.8408423390376996 25.69381522355609 8.0015372307383377 0 -0.85716730853699208 -0.51503806187062418 0.5 0 0 1 I I 0 1 0.5 forward I I I I #
face $-1 $204 $205 $67 $-1 $206 forward single #
loop $-1 $207 $208 $85 #
cone-surface $-1 13.936462751495178 25.69381522355609 8.0015372307383377 0 -0.85716730853699208 -0.51503806187062418 0.5 0 0 1 I I 0 1 0.5 forward I I I I #
face $-1 $209 $210 $68 $-1 $211 reversed single #
loop $-1 $-1 $212 $86 #
plane-surface $-1 27.63653139332024 83.602948774777218 103.81790461751785 1 0 0 0 -0.85716730853699208 -0.51503806187062418 forward_v I I I I #
face $-1 $213 $214 $69 $-1 $215 forward single #
loop $-1 $216 $217 $87 #
cone-surface $-1 30.366945001625218 25.69381522355609 8.0015372307383377 0 -0.85716730853699208 -0.51503806187062418 0.5 0 0 1 I I 0 1 0.5 forward I I I I #
face $-1 $218 $219 $70 $-1 $220 forward single #
loop $-1 $221 $222 $88 #
cone-surface $-1 34.462565414082711 25.69381522355609 8.0015372307383377 0 -0.85716730853699208 -0.51503806187062418 0.5 0 0 1 I I 0 1 0.5 forward I I I I #
face $-1 $223 $224 $71 $-1 $225 forward single #
loop $-1 $226 $227 $89 #
cone-surface $-1 38.558185826540189 25.69381522355609 8.0015372307383377 0 -0.85716730853699208 -0.51503806187062418 0.5 0 0 1 I I 0 1 0.5 forward I I I I #
face $-1 $228 $229 $54 $-1 $230 reversed single #
loop $-1 $-1 $231 $90 #
plane-surface $-1 0 0 -9.9819361472293018 0 0 1 1 0 0 forward_v I I I I #
coedge $-1 $232 $233 $234 $235 forward $91 $-1 #
face $-1 $236 $237 $55 $-1 $238 reversed single #
loop $-1 $-1 $239 $93 #
plane-surface $-1 -30.85584059370963 -20.360028893721001 0 0 -1 0 0 0 -1 forward_v I I I I #
coedge $-1 $240 $241 $242 $243 forward $94 $-1 #
face $-1 $244 $245 $56 $-1 $246 reversed single #
loop $-1 $-1 $247 $96 #
plane-surface $-1 -39.40260381105233 -0.8167956243407275 53.093406487572224 0 0.85716730853699208 0.51503806187062418 1 0 0 forward_v I I I I #
coedge $-1 $248 $249 $250 $251 reversed $97 $-1 #
face $-1 $-1 $252 $57 $-1 $253 forward single #
loop $-1 $254 $255 $99 #
cone-surface $-1 -43.498224223509816 25.050939742153346 7.6152586843353696 0 -0.85716730853699208 -0.51503806187062418 0.25 0 0 1 I I -0.70710678118654746 0.70710678118654746 0.25 forward I I I I #
loop $-1 $-1 $256 $75 #
coedge $-1 $160 $160 $257 $258 reversed $100 $-1 #
face $-1 $-1 $259 $58 $-1 $260 forward single #
loop $-1 $261 $262 $102 #
cone-surface $-1 -39.40260381105233 25.050939742153346 7.6152586843353696 0 -0.85716730853699208 -0.51503806187062418 0.25 0 0 1 I I -0.70710678118654746 0.70710678118654746 0.25 forward I I I I #
loop $-1 $-1 $263 $76 #
coedge $-1 $165 $165 $264 $265 reversed $103 $-1 #
face $-1 $-1 $266 $59 $-1 $267 forward single #
loop $-1 $268 $269 $105 #
cone-surface $-1 -35.306983398594852 25.050939742153346 7.6152586843353696 0 -0.85716730853699208 -0.51503806187062418 0.25 0 0 1 I I -0.70710678118654746 0.70710678118654746 0.25 forward I I I I #
loop $-1 $-1 $270 $77 #
coedge $-1 $170 $170 $271 $272 reversed $106 $-1 #
face $-1 $273 $274 $60 $-1 $275 reversed single #
loop $-1 $-1 $276 $108 #
plane-surface $-1 -14.780880736007319 -0.8167956243407275 53.093406487572224 0 0.85716730853699208 0.51503806187062418 1 0 0 forward_v I I I I #
coedge $-1 $277 $278 $279 $280 reversed $109 $-1 #
face $-1 $-1 $281 $61 $-1 $282 forward single #
loop $-1 $283 $284 $111 #
cone-surface $-1 -18.876501148464804 25.050939742153346 7.6152586843353696 0 -0.85716730853699208 -0.51503806187062418 0.25 0 0 1 I I -0.70710678118654746 0.70710678118654746 0.25 forward I I I I #
loop $-1 $-1 $285 $79 #
coedge $-1 $179 $179 $286 $287 reversed $112 $-1 #
face $-1 $-1 $288 $62 $-1 $289 forward single #
loop $-1 $290 $291 $114 #
cone-surface $-1 -14.780880736007319 25.050939742153346 7.6152586843353696 0 -0.85716730853699208 -0.51503806187062418 0.25 0 0 1 I I -0.70710678118654746 0.70710678118654746 0.25 forward I I I I #
loop $-1 $-1 $292 $80 #
coedge $-1 $184 $184 $293 $294 reversed $115 $-1 #
face $-1 $-1 $295 $63 $-1 $296 forward single #
loop $-1 $297 $298 $117 #
cone-surface $-1 -10.685260323549834 25.050939742153346 7.6152586843353696 0 -0.85716730853699208 -0.51503806187062418 0.25 0 0 1 I I -0.70710678118654746 0.70710678118654746 0.25 forward I I I I #
loop $-1 $-1 $299 $81 #
coedge $-1 $189 $189 $300 $301 reversed $118 $-1 #
face $-1 $302 $303 $64 $-1 $304 reversed single #
loop $-1 $-1 $305 $120 #
plane-surface $-1 9.8408423390376996 -0.8167956243407275 53.093406487572224 0 0.85716730853699208 0.51503806187062418 1 0 0 forward_v I I I I #
coedge $-1 $306 $307 $308 $309 reversed $121 $-1 #
face $-1 $-1 $310 $65 $-1 $311 forward single #
loop $-1 $312 $313 $123 #
cone-surface $-1 5.7452219265802071 25.050939742153346 7.6152586843353696 0 -0.85716730853699208 -0.51503806187062418 0.25 0 0 1 I I -0.70710678118654746 0.70710678118654746 0.25 forward I I I I #
loop $-1 $-1 $314 $83 #
coedge $-1 $198 $198 $315 $316 reversed $124 $-1 #
face $-1 $-1 $317 $66 $-1 $318 forward single #
loop $-1 $319 $320 $126 #
cone-surface $-1 9.8408423390376996 25.050939742153346 7.6152586843353696 0 -0.85716730853699208 -0.51503806187062418 0.25 0 0 1 I I -0.70710678118654746 0.70710678118654746 0.25 forward I I I I #
loop $-1 $-1 $321 $84 #
coedge $-1 $203 $203 $322 $323 reversed $127 $-1 #
face $-1 $-1 $324 $67 $-1 $325 forward single #
loop $-1 $326 $327 $129 #
cone-surface $-1 13.936462751495178 25.050939742153346 7.6152586843353696 0 -0.85716730853699208 -0.51503806187062418 0.25 0 0 1 I I -0.70710678118654746 0.70710678118654746 0.25 forward I I I I #
loop $-1 $-1 $328 $85 #
coedge $-1 $208 $208 $329 $330 reversed $130 $-1 #
face $-1 $331 $332 $68 $-1 $333 reversed single #
loop $-1 $-1 $334 $132 #
plane-surface $-1 34.462565414082711 -0.8167956243407275 53.093406487572224 0 0.85716730853699208 0.51503806187062418 1 0 0 forward_v I I I I #
coedge $-1 $335 $336 $337 $338 reversed $133 $-1 #
face $-1 $-1 $339 $69 $-1 $340 forward single #
loop $-1 $341 $342 $135 #
cone-surface $-1 30.366945001625218 25.050939742153346 7.6152586843353696 0 -0.85716730853699208 -0.51503806187062418 0.25 0 0 1 I I -0.70710678118654746 0.70710678118654746 0.25 forward I I I I #
loop $-1 $-1 $343 $87 #
coedge $-1 $217 $217 $344 $345 reversed $136 $-1 #
face $-1 $-1 $346 $70 $-1 $347 forward single #
loop $-1 $348 $349 $138 #
cone-surface $-1 34.462565414082711 25.050939742153346 7.6152586843353696 0 -0.85716730853699208 -0.51503806187062418 0.25 0 0 1 I I -0.70710678118654746 0.70710678118654746 0.25 forward I I I I #
loop $-1 $-1 $350 $88 #
coedge $-1 $222 $222 $351 $352 reversed $139 $-1 #
face $-1 $-1 $353 $71 $-1 $354 forward single #
loop $-1 $355 $356 $141 #
cone-surface $-1 38.558185826540189 25.050939742153346 7.6152586843353696 0 -0.85716730853699208 -0.51503806187062418 0.25 0 0 1 I I -0.70710678118654746 0.70710678118654746 0.25 forward I I I I #
loop $-1 $-1 $357 $89 #
coedge $-1 $227 $227 $358 $359 reversed $142 $-1 #
face $-1 $360 $361 $54 $-1 $362 reversed single #
loop $-1 $-1 $363 $144 #
plane-surface $-1 0 -27.157609516698564 0 0 1 0 0 0 1 forward_v I I I I #
coedge $-1 $364 $365 $366 $367 forward $145 $-1 #
coedge $-1 $368 $147 $369 $370 forward $91 $-1 #
coedge $-1 $147 $368 $371 $372 forward $91 $-1 #
coedge $-1 $373 $374 $147 $235 reversed $375 $-1 #
edge $-1 $376 -27.157609516698564 $377 27.157609516698564 $234 $378 forward 7 unknown #
face $-1 $379 $380 $55 $-1 $381 forward single #
loop $-1 $-1 $382 $148 #
plane-surface $-1 -29.279573855631426 -23.758819205209782 0 -1 0 0 0 0 1 forward_v I I I I #
coedge $-1 $383 $384 $385 $386 forward $149 $-1 #
coedge $-1 $387 $151 $388 $389 reversed $94 $-1 #
coedge $-1 $151 $387 $390 $391 reversed $94 $-1 #
coedge $-1 $384 $383 $151 $243 reversed $149 $-1 #
edge $-1 $392 -9.9819361472293018 $393 9.9819361472293018 $242 $394 forward 7 unknown #
face $-1 $395 $396 $56 $-1 $397 reversed single #
loop $-1 $-1 $398 $152 #
plane-surface $-1 -32.576569790289859 83.602948774777218 103.81790461751785 -1 0 0 0 0.85716730853699208 0.51503806187062418 forward_v I I I I #
coedge $-1 $399 $400 $401 $402 reversed $153 $-1 #
coedge $-1 $249 $155 $403 $404 reversed $97 $-1 #
coedge $-1 $155 $248 $399 $405 reversed $97 $-1 #
coedge $-1 $401 $406 $155 $251 forward $407 $-1 #
edge $-1 $408 14.643864870690045 $409 16.714286148437992 $250 $410 forward 7 unknown #
loop $-1 $-1 $257 $156 #
plane-surface $-1 -39.40260381105233 -0.8167956243407275 53.093406487572224 0 0.85716730853699208 0.51503806187062418 1 0 0 forward_v I I I I #
loop $-1 $-1 $411 $99 #
coedge $-1 $255 $255 $256 $412 reversed $157 $-1 #
coedge $-1 $256 $256 $255 $412 forward $159 $-1 #
coedge $-1 $257 $257 $160 $258 forward $252 $-1 #
edge $-1 $413 2.4309745090986323e-015 $413 6.2831853071796031 $257 $414 forward 7 unknown #
loop $-1 $-1 $264 $161 #
plane-surface $-1 -39.40260381105233 -0.8167956243407275 53.093406487572224 0 0.85716730853699208 0.51503806187062418 1 0 0 forward_v I I I I #
loop $-1 $-1 $415 $102 #
coedge $-1 $262 $262 $263 $416 reversed $162 $-1 #
coedge $-1 $263 $263 $262 $416 forward $164 $-1 #
coedge $-1 $264 $264 $165 $265 forward $259 $-1 #
edge $-1 $417 2.4309745090986323e-015 $417 6.2831853071796031 $264 $418 forward 7 unknown #
loop $-1 $-1 $271 $166 #
plane-surface $-1 -39.40260381105233 -0.8167956243407275 53.093406487572224 0 0.85716730853699208 0.51503806187062418 1 0 0 forward_v I I I I #
loop $-1 $-1 $419 $105 #
coedge $-1 $269 $269 $270 $420 reversed $167 $-1 #
coedge $-1 $270 $270 $269 $420 forward $169 $-1 #
coedge $-1 $271 $271 $170 $272 forward $266 $-1 #
edge $-1 $421 2.4309745090986323e-015 $421 6.2831853071796031 $271 $422 forward 7 unknown #
face $-1 $423 $424 $60 $-1 $425 forward single #
loop $-1 $-1 $426 $171 #
plane-surface $-1 -7.9548467152448472 83.602948774777218 103.81790461751785 -1 0 0 0 0.85716730853699208 0.51503806187062418 forward_v I I I I #
coedge $-1 $427 $428 $429 $430 reversed $172 $-1 #
coedge $-1 $278 $174 $431 $432 reversed $109 $-1 #
coedge $-1 $174 $277 $427 $433 reversed $109 $-1 #
coedge $-1 $429 $434 $174 $280 forward $424 $-1 #
edge $-1 $435 14.643864870690045 $436 16.714286148437992 $279 $437 forward 7 unknown #
loop $-1 $-1 $286 $175 #
plane-surface $-1 -14.780880736007319 -0.8167956243407275 53.093406487572224 0 0.85716730853699208 0.51503806187062418 1 0 0 forward_v I I I I #
loop $-1 $-1 $438 $111 #
coedge $-1 $284 $284 $285 $439 reversed $176 $-1 #
coedge $-1 $285 $285 $284 $439 forward $178 $-1 #
coedge $-1 $286 $286 $179 $287 forward $281 $-1 #
edge $-1 $440 2.4309745090986323e-015 $440 6.2831853071796031 $286 $441 forward 7 unknown #
loop $-1 $-1 $293 $180 #
plane-surface $-1 -14.780880736007319 -0.8167956243407275 53.093406487572224 0 0.85716730853699208 0.51503806187062418 1 0 0 forward_v I I I I #
loop $-1 $-1 $442 $114 #
coedge $-1 $291 $291 $292 $443 reversed $181 $-1 #
coedge $-1 $292 $292 $291 $443 forward $183 $-1 #
coedge $-1 $293 $293 $184 $294 forward $288 $-1 #
edge $-1 $444 2.4309745090986323e-015 $444 6.2831853071796031 $293 $445 forward 7 unknown #
loop $-1 $-1 $300 $185 #
plane-surface $-1 -14.780880736007319 -0.8167956243407275 53.093406487572224 0 0.85716730853699208 0.51503806187062418 1 0 0 forward_v I I I I #
loop $-1 $-1 $446 $117 #
coedge $-1 $298 $298 $299 $447 reversed $186 $-1 #
coedge $-1 $299 $299 $298 $447 forward $188 $-1 #
coedge $-1 $300 $300 $189 $301 forward $295 $-1 #
edge $-1 $448 2.4309745090986323e-015 $448 6.2831853071796031 $300 $449 forward 7 unknown #
face $-1 $450 $451 $64 $-1 $452 forward single #
loop $-1 $-1 $453 $190 #
plane-surface $-1 16.66687635980017 83.602948774777218 103.81790461751785 -1 0 0 0 0.85716730853699208 0.51503806187062418 forward_v I I I I #
coedge $-1 $454 $455 $456 $457 reversed $191 $-1 #
coedge $-1 $307 $193 $458 $459 reversed $121 $-1 #
coedge $-1 $193 $306 $454 $460 reversed $121 $-1 #
coedge $-1 $456 $461 $193 $309 forward $451 $-1 #
edge $-1 $462 14.643864870690045 $463 16.714286148437992 $308 $464 forward 7 unknown #
loop $-1 $-1 $315 $194 #
plane-surface $-1 9.8408423390376996 -0.8167956243407275 53.093406487572224 0 0.85716730853699208 0.51503806187062418 1 0 0 forward_v I I I I #
loop $-1 $-1 $465 $123 #
coedge $-1 $313 $313 $314 $466 reversed $195 $-1 #
coedge $-1 $314 $314 $313 $466 forward $197 $-1 #
coedge $-1 $315 $315 $198 $316 forward $310 $-1 #
edge $-1 $467 2.4309745090986323e-015 $467 6.2831853071796031 $315 $468 forward 7 unknown #
loop $-1 $-1 $322 $199 #
plane-surface $-1 9.8408423390376996 -0.8167956243407275 53.093406487572224 0 0.85716730853699208 0.51503806187062418 1 0 0 forward_v I I I I #
loop $-1 $-1 $469 $126 #
coedge $-1 $320 $320 $321 $470 reversed $200 $-1 #
coedge $-1 $321 $321 $320 $470 forward $202 $-1 #
coedge $-1 $322 $322 $203 $323 forward $317 $-1 #
edge $-1 $471 2.4309745090986323e-015 $471 6.2831853071796031 $322 $472 forward 7 unknown #
loop $-1 $-1 $329 $204 #
plane-surface $-1 9.8408423390376996 -0.8167956243407275 53.093406487572224 0 0.85716730853699208 0.51503806187062418 1 0 0 forward_v I I I I #
loop $-1 $-1 $473 $129 #
coedge $-1 $327 $327 $328 $474 reversed $205 $-1 #
coedge $-1 $328 $328 $327 $474 forward $207 $-1 #
coedge $-1 $329 $329 $208 $330 forward $324 $-1 #
edge $-1 $475 2.4309745090986323e-015 $475 6.2831853071796031 $329 $476 forward 7 unknown #
face $-1 $477 $478 $68 $-1 $479 forward single #
loop $-1 $-1 $480 $209 #
plane-surface $-1 41.288599434845182 83.602948774777218 103.81790461751785 -1 0 0 0 0.85716730853699208 0.51503806187062418 forward_v I I I I #
coedge $-1 $481 $482 $483 $484 reversed $210 $-1 #
coedge $-1 $336 $212 $485 $486 reversed $133 $-1 #
coedge $-1 $212 $335 $481 $487 reversed $133 $-1 #
coedge $-1 $483 $488 $212 $338 forward $478 $-1 #
edge $-1 $489 14.643864870690045 $490 16.714286148437992 $337 $491 forward 7 unknown #
loop $-1 $-1 $344 $213 #
plane-surface $-1 34.462565414082711 -0.8167956243407275 53.093406487572224 0 0.85716730853699208 0.51503806187062418 1 0 0 forward_v I I I I #
loop $-1 $-1 $492 $135 #
coedge $-1 $342 $342 $343 $493 reversed $214 $-1 #
coedge $-1 $343 $343 $342 $493 forward $216 $-1 #
coedge $-1 $344 $344 $217 $345 forward $339 $-1 #
edge $-1 $494 2.4309745090986323e-015 $494 6.2831853071796031 $344 $495 forward 7 unknown #
loop $-1 $-1 $351 $218 #
plane-surface $-1 34.462565414082711 -0.8167956243407275 53.093406487572224 0 0.85716730853699208 0.51503806187062418 1 0 0 forward_v I I I I #
loop $-1 $-1 $496 $138 #
coedge $-1 $349 $349 $350 $497 reversed $219 $-1 #
coedge $-1 $350 $350 $349 $497 forward $221 $-1 #
coedge $-1 $351 $351 $222 $352 forward $346 $-1 #
edge $-1 $498 2.4309745090986323e-015 $498 6.2831853071796031 $351 $499 forward 7 unknown #
loop $-1 $-1 $358 $223 #
plane-surface $-1 34.462565414082711 -0.8167956243407275 53.093406487572224 0 0.85716730853699208 0.51503806187062418 1 0 0 forward_v I I I I #
loop $-1 $-1 $500 $141 #
coedge $-1 $356 $356 $357 $501 reversed $224 $-1 #
coedge $-1 $357 $357 $356 $501 forward $226 $-1 #
coedge $-1 $358 $358 $227 $359 forward $353 $-1 #
edge $-1 $502 2.4309745090986323e-015 $502 6.2831853071796031 $358 $503 forward 7 unknown #
face $-1 $504 $505 $54 $-1 $506 reversed single #
loop $-1 $-1 $507 $228 #
plane-surface $-1 -49.24344615009003 0 0 1 0 0 0 0 -1 forward_v I I I I #
coedge $-1 $508 $371 $509 $510 forward $229 $-1 #
coedge $-1 $511 $231 $508 $512 forward $145 $-1 #
coedge $-1 $231 $511 $513 $514 forward $145 $-1 #
coedge $-1 $374 $373 $231 $367 reversed $375 $-1 #
edge $-1 $515 -27.157609516698564 $516 27.157609516698564 $366 $517 forward 7 unknown #
coedge $-1 $233 $232 $518 $519 forward $91 $-1 #
coedge $-1 $520 $521 $232 $370 reversed $505 $-1 #
edge $-1 $377 -49.24344615009003 $522 49.24344615009003 $369 $523 forward 7 unknown #
coedge $-1 $363 $524 $233 $372 reversed $229 $-1 #
edge $-1 $525 -49.24344615009003 $376 49.24344615009003 $371 $526 forward 7 unknown #
coedge $-1 $366 $234 $524 $527 forward $375 $-1 #
coedge $-1 $234 $366 $520 $528 reversed $375 $-1 #
loop $-1 $-1 $373 $504 #
vertex $-1 $235 $529 #
vertex $-1 $235 $530 #
straight-curve $-1 49.24344615009003 0 9.9819361472293018 0 1 0 I I #
face $-1 $531 $532 $55 $-1 $533 reversed single #
loop $-1 $-1 $534 $236 #
plane-surface $-1 0 0 9.9819361472293018 0 0 1 1 0 0 forward_v I I I I #
coedge $-1 $535 $536 $537 $538 reversed $237 $-1 #
coedge $-1 $242 $239 $539 $540 reversed $149 $-1 #
coedge $-1 $239 $242 $541 $542 reversed $149 $-1 #
coedge $-1 $536 $535 $239 $386 reversed $237 $-1 #
edge $-1 $543 -9.9819361472293018 $544 9.9819361472293018 $385 $545 forward 7 unknown #
coedge $-1 $241 $240 $546 $547 reversed $94 $-1 #
coedge $-1 $539 $548 $240 $389 forward $532 $-1 #
edge $-1 $549 -15.278199914093673 $393 -8.4806192911161098 $388 $550 forward 7 unknown #
coedge $-1 $551 $541 $241 $391 forward $380 $-1 #
edge $-1 $392 8.4806192911161098 $552 15.278199914093673 $390 $553 forward 7 unknown #
vertex $-1 $391 $554 #
vertex $-1 $389 $555 #
straight-curve $-1 -32.432107331787833 -20.360028893721001 0 0 0 -1 I I #
face $-1 $-1 $407 $56 $-1 $556 forward single #
loop $-1 $-1 $557 $244 #
plane-surface $-1 0 27.157609516698564 0 0 -1 0 0 0 -1 forward_v I I I I #
coedge $-1 $558 $559 $560 $561 reversed $245 $-1 #
coedge $-1 $562 $247 $249 $405 forward $153 $-1 #
coedge $-1 $247 $562 $558 $563 forward $153 $-1 #
coedge $-1 $560 $250 $247 $402 forward $407 $-1 #
edge $-1 $409 -26.527335926288636 $564 -12.875267884763694 $401 $565 forward 7 unknown #
coedge $-1 $566 $567 $248 $404 forward $396 $-1 #
edge $-1 $568 -45.37277593264092 $408 -41.927016161529622 $403 $569 forward 7 unknown #
edge $-1 $409 50.29528064238162 $568 54.315219033397135 $249 $570 forward 7 unknown #
coedge $-1 $250 $560 $566 $571 forward $407 $-1 #
loop $-1 $-1 $560 $395 #
vertex $-1 $404 $572 #
vertex $-1 $251 $573 #
straight-curve $-1 -46.228637831814801 41.801474387388609 9.9819361472293053 0 -1 0 I I #
coedge $-1 $411 $411 $-1 $574 reversed $254 $-1 #
edge $-1 $575 0 $575 6.2831853071796004 $255 $576 forward 7 unknown #
vertex $-1 $258 $577 #
ellipse-curve $-1 -43.498224223509816 26.12239887782459 8.2590562616736527 0 0.85716730853699208 0.51503806187062418 0.5 0 0 1 I I #
coedge $-1 $415 $415 $-1 $578 reversed $261 $-1 #
edge $-1 $579 0 $579 6.2831853071796004 $262 $580 forward 7 unknown #
vertex $-1 $265 $581 #
ellipse-curve $-1 -39.40260381105233 26.12239887782459 8.2590562616736527 0 0.85716730853699208 0.51503806187062418 0.5 0 0 1 I I #
coedge $-1 $419 $419 $-1 $582 reversed $268 $-1 #
edge $-1 $583 0 $583 6.2831853071796004 $269 $584 forward 7 unknown #
vertex $-1 $272 $585 #
ellipse-curve $-1 -35.306983398594852 26.12239887782459 8.2590562616736527 0 0.85716730853699208 0.51503806187062418 0.5 0 0 1 I I #
face $-1 $-1 $586 $60 $-1 $587 reversed single #
loop $-1 $-1 $279 $273 #
plane-surface $-1 0 0 9.9819361472293018 0 0 1 1 0 0 forward_v I I I I #
coedge $-1 $588 $589 $590 $591 reversed $274 $-1 #
coedge $-1 $592 $276 $278 $433 forward $172 $-1 #
coedge $-1 $276 $592 $588 $593 forward $172 $-1 #
coedge $-1 $590 $279 $276 $430 forward $424 $-1 #
edge $-1 $436 -14.21647438876613 $594 -0.56440634724118777 $429 $595 forward 7 unknown #
coedge $-1 $596 $597 $277 $432 forward $586 $-1 #
edge $-1 $598 -45.37277593264092 $435 -41.927016161529622 $431 $599 forward 7 unknown #
edge $-1 $436 50.29528064238162 $598 54.315219033397135 $278 $600 forward 7 unknown #
coedge $-1 $279 $590 $596 $601 forward $424 $-1 #
vertex $-1 $432 $602 #
vertex $-1 $280 $603 #
straight-curve $-1 -21.60691475676979 41.801474387388609 9.9819361472293053 0 -1 0 I I #
coedge $-1 $438 $438 $-1 $604 reversed $283 $-1 #
edge $-1 $605 0 $605 6.2831853071796004 $284 $606 forward 7 unknown #
vertex $-1 $287 $607 #
ellipse-curve $-1 -18.876501148464804 26.12239887782459 8.2590562616736527 0 0.85716730853699208 0.51503806187062418 0.5 0 0 1 I I #
coedge $-1 $442 $442 $-1 $608 reversed $290 $-1 #
edge $-1 $609 0 $609 6.2831853071796004 $291 $610 forward 7 unknown #
vertex $-1 $294 $611 #
ellipse-curve $-1 -14.780880736007319 26.12239887782459 8.2590562616736527 0 0.85716730853699208 0.51503806187062418 0.5 0 0 1 I I #
coedge $-1 $446 $446 $-1 $612 reversed $297 $-1 #
edge $-1 $613 0 $613 6.2831853071796004 $298 $614 forward 7 unknown #
vertex $-1 $301 $615 #
ellipse-curve $-1 -10.685260323549834 26.12239887782459 8.2590562616736527 0 0.85716730853699208 0.51503806187062418 0.5 0 0 1 I I #
face $-1 $-1 $616 $64 $-1 $617 reversed single #
loop $-1 $-1 $308 $302 #
plane-surface $-1 0 0 9.9819361472293018 0 0 1 1 0 0 forward_v I I I I #
coedge $-1 $618 $619 $620 $621 reversed $303 $-1 #
coedge $-1 $622 $305 $307 $460 forward $191 $-1 #
coedge $-1 $305 $622 $618 $623 forward $191 $-1 #
coedge $-1 $620 $308 $305 $457 forward $451 $-1 #
edge $-1 $463 -1.9056128512436219 $624 11.746455190281321 $456 $625 forward 7 unknown #
coedge $-1 $626 $627 $306 $459 forward $616 $-1 #
edge $-1 $628 -45.37277593264092 $462 -41.927016161529622 $458 $629 forward 7 unknown #
edge $-1 $463 50.29528064238162 $628 54.315219033397135 $307 $630 forward 7 unknown #
coedge $-1 $308 $620 $626 $631 forward $451 $-1 #
vertex $-1 $309 $632 #
vertex $-1 $309 $633 #
straight-curve $-1 3.0148083182752279 41.801474387388609 9.9819361472293053 0 -1 0 I I #
coedge $-1 $465 $465 $-1 $634 reversed $312 $-1 #
edge $-1 $635 0 $635 6.2831853071796004 $313 $636 forward 7 unknown #
vertex $-1 $316 $637 #
ellipse-curve $-1 5.7452219265802071 26.12239887782459 8.2590562616736527 0 0.85716730853699208 0.51503806187062418 0.5 0 0 1 I I #
coedge $-1 $469 $469 $-1 $638 reversed $319 $-1 #
edge $-1 $639 0 $639 6.2831853071796004 $320 $640 forward 7 unknown #
vertex $-1 $323 $641 #
ellipse-curve $-1 9.8408423390376996 26.12239887782459 8.2590562616736527 0 0.85716730853699208 0.51503806187062418 0.5 0 0 1 I I #
coedge $-1 $473 $473 $-1 $642 reversed $326 $-1 #
edge $-1 $643 0 $643 6.2831853071796004 $327 $644 forward 7 unknown #
vertex $-1 $330 $645 #
ellipse-curve $-1 13.936462751495178 26.12239887782459 8.2590562616736527 0 0.85716730853699208 0.51503806187062418 0.5 0 0 1 I I #
face $-1 $-1 $646 $68 $-1 $647 reversed single #
loop $-1 $-1 $337 $331 #
plane-surface $-1 0 0 9.9819361472293018 0 0 1 1 0 0 forward_v I I I I #
coedge $-1 $648 $649 $650 $651 reversed $332 $-1 #
coedge $-1 $652 $334 $336 $487 forward $210 $-1 #
coedge $-1 $334 $652 $648 $653 forward $210 $-1 #
coedge $-1 $650 $337 $334 $484 forward $478 $-1 #
edge $-1 $490 10.405248686278885 $654 24.057316727803826 $483 $655 forward 7 unknown #
coedge $-1 $656 $657 $335 $486 forward $646 $-1 #
edge $-1 $658 -45.37277593264092 $489 -41.927016161529622 $485 $659 forward 7 unknown #
edge $-1 $490 50.29528064238162 $658 54.315219033397135 $336 $660 forward 7 unknown #
coedge $-1 $337 $650 $656 $661 forward $478 $-1 #
vertex $-1 $338 $662 #
vertex $-1 $338 $663 #
straight-curve $-1 27.63653139332024 41.801474387388609 9.9819361472293053 0 -1 0 I I #
coedge $-1 $492 $492 $-1 $664 reversed $341 $-1 #
edge $-1 $665 0 $665 6.2831853071796004 $342 $666 forward 7 unknown #
vertex $-1 $345 $667 #
ellipse-curve $-1 30.366945001625218 26.12239887782459 8.2590562616736527 0 0.85716730853699208 0.51503806187062418 0.5 0 0 1 I I #
coedge $-1 $496 $496 $-1 $668 reversed $348 $-1 #
edge $-1 $669 0 $669 6.2831853071796004 $349 $670 forward 7 unknown #
vertex $-1 $352 $671 #
ellipse-curve $-1 34.462565414082711 26.12239887782459 8.2590562616736527 0 0.85716730853699208 0.51503806187062418 0.5 0 0 1 I I #
coedge $-1 $500 $500 $-1 $672 reversed $355 $-1 #
edge $-1 $673 0 $673 6.2831853071796004 $356 $674 forward 7 unknown #
vertex $-1 $359 $675 #
ellipse-curve $-1 38.558185826540189 26.12239887782459 8.2590562616736527 0 0.85716730853699208 0.51503806187062418 0.5 0 0 1 I I #
face $-1 $-1 $375 $54 $-1 $676 reversed single #
loop $-1 $-1 $520 $360 #
plane-surface $-1 0 27.157609516698564 0 0 -1 0 0 0 -1 forward_v I I I I #
coedge $-1 $677 $518 $521 $678 forward $361 $-1 #
coedge $-1 $524 $363 $364 $512 reversed $229 $-1 #
coedge $-1 $518 $677 $363 $510 reversed $361 $-1 #
edge $-1 $525 -9.9819361472293018 $679 9.9819361472293018 $509 $680 forward 7 unknown #
coedge $-1 $365 $364 $677 $681 forward $145 $-1 #
edge $-1 $516 -49.24344615009003 $679 49.24344615009003 $508 $682 forward 7 unknown #
coedge $-1 $521 $520 $365 $514 reversed $505 $-1 #
edge $-1 $683 -49.24344615009003 $515 49.24344615009003 $513 $684 forward 7 unknown #
vertex $-1 $367 $685 #
vertex $-1 $527 $686 #
straight-curve $-1 49.24344615009003 0 -9.9819361472293018 0 -1 0 I I #
coedge $-1 $507 $509 $368 $519 reversed $361 $-1 #
edge $-1 $522 -27.157609516698564 $525 27.157609516698564 $518 $687 forward 7 unknown #
coedge $-1 $513 $369 $374 $528 forward $505 $-1 #
coedge $-1 $369 $513 $507 $678 reversed $505 $-1 #
vertex $-1 $370 $688 #
straight-curve $-1 0 27.157609516698564 9.9819361472293018 -1 0 0 I I #
coedge $-1 $371 $508 $373 $527 reversed $229 $-1 #
vertex $-1 $519 $689 #
straight-curve $-1 0 -27.157609516698564 9.9819361472293018 1 0 0 I I #
edge $-1 $376 -9.9819361472293018 $516 9.9819361472293018 $373 $690 forward 7 unknown #
edge $-1 $377 -9.9819361472293018 $515 9.9819361472293018 $374 $691 forward 7 unknown #
point $-1 49.24344615009003 -27.157609516698564 9.9819361472293018 #
point $-1 49.24344615009003 27.157609516698564 9.9819361472293018 #
face $-1 $-1 $692 $55 $-1 $693 reversed single #
loop $-1 $-1 $694 $379 #
plane-surface $-1 0 0 -9.9819361472293018 0 0 1 1 0 0 forward_v I I I I #
coedge $-1 $541 $551 $536 $695 forward $380 $-1 #
coedge $-1 $385 $382 $694 $696 reversed $237 $-1 #
coedge $-1 $382 $385 $534 $695 reversed $237 $-1 #
coedge $-1 $697 $698 $382 $538 forward $692 $-1 #
edge $-1 $699 -9.9819361472293018 $700 9.9819361472293018 $537 $701 forward 7 unknown #
coedge $-1 $694 $388 $383 $540 forward $532 $-1 #
edge $-1 $393 -17.004187034933018 $544 -13.851653558776611 $539 $702 forward 7 unknown #
coedge $-1 $390 $534 $384 $542 forward $380 $-1 #
edge $-1 $543 13.851653558776611 $392 17.004187034933018 $541 $703 forward 7 unknown #
vertex $-1 $542 $704 #
vertex $-1 $540 $705 #
straight-curve $-1 -29.279573855631426 -20.360028893721001 0 0 0 -1 I I #
coedge $-1 $698 $697 $387 $547 forward $692 $-1 #
edge $-1 $552 -9.9819361472293018 $549 9.9819361472293018 $546 $706 forward 7 unknown #
coedge $-1 $388 $694 $698 $707 forward $532 $-1 #
vertex $-1 $389 $708 #
straight-curve $-1 -32.432107331787833 -11.879409602604891 -9.9819361472293018 0 1 0 I I #
coedge $-1 $534 $390 $697 $709 forward $380 $-1 #
vertex $-1 $709 $710 #
straight-curve $-1 -32.432107331787833 -11.879409602604891 9.9819361472293018 0 -1 0 I I #
point $-1 -32.432107331787833 -20.360028893721001 9.9819361472293018 #
point $-1 -32.432107331787833 -20.360028893721001 -9.9819361472293018 #
plane-surface $-1 0 0 9.9819361472293018 0 0 1 1 0 0 forward_v I I I I #
coedge $-1 $567 $566 $559 $711 forward $396 $-1 #
coedge $-1 $559 $398 $400 $563 reversed $245 $-1 #
coedge $-1 $398 $558 $557 $711 reversed $245 $-1 #
coedge $-1 $406 $401 $398 $561 forward $407 $-1 #
edge $-1 $564 -16.714286148437992 $712 -14.643864870690045 $560 $713 forward 7 unknown #
coedge $-1 $400 $399 $567 $714 reversed $153 $-1 #
edge $-1 $715 -54.315219033397135 $564 -50.29528064238162 $558 $716 forward 7 unknown #
vertex $-1 $402 $717 #
straight-curve $-1 -19.701301905526165 25.08718823895062 9.9819361472292982 1 0 0 I I #
coedge $-1 $557 $403 $406 $571 reversed $396 $-1 #
coedge $-1 $403 $557 $562 $714 forward $396 $-1 #
vertex $-1 $404 $718 #
straight-curve $-1 -46.228637831814801 27.157609516698564 51.908952308758927 0 0 1 I I #
straight-curve $-1 -46.228637831814801 -0.8167956243407275 53.093406487572224 0 0.51503806187062418 -0.85716730853699208 I I #
edge $-1 $712 32.576569790289859 $408 46.228637831814801 $566 $719 forward 7 unknown #
point $-1 -46.228637831814801 27.157609516698564 9.9819361472293018 #
point $-1 -46.228637831814801 25.087188238950617 9.9819361472293053 #
edge $-1 $720 1 $720 0 $411 $-1 forward 7 unknown #
vertex $-1 $412 $721 #
ellipse-curve $-1 -43.498224223509816 25.265231569287593 7.7440181998030253 0 0.85716730853699208 0.51503806187062418 0.5 0 0 1 I I #
point $-1 -42.998224223509816 26.122398877824587 8.2590562616736491 #
edge $-1 $722 1 $722 0 $415 $-1 forward 7 unknown #
vertex $-1 $416 $723 #
ellipse-curve $-1 -39.40260381105233 25.265231569287593 7.7440181998030253 0 0.85716730853699208 0.51503806187062418 0.5 0 0 1 I I #
point $-1 -38.90260381105233 26.122398877824587 8.2590562616736491 #
edge $-1 $724 1 $724 0 $419 $-1 forward 7 unknown #
vertex $-1 $420 $725 #
ellipse-curve $-1 -35.306983398594852 25.265231569287593 7.7440181998030253 0 0.85716730853699208 0.51503806187062418 0.5 0 0 1 I I #
point $-1 -34.806983398594852 26.122398877824587 8.2590562616736491 #
loop $-1 $-1 $431 $423 #
plane-surface $-1 0 27.157609516698564 0 0 -1 0 0 0 -1 forward_v I I I I #
coedge $-1 $589 $426 $428 $593 reversed $274 $-1 #
coedge $-1 $426 $588 $726 $727 reversed $274 $-1 #
coedge $-1 $434 $429 $426 $591 forward $424 $-1 #
edge $-1 $594 -16.714286148437992 $728 -14.643864870690045 $590 $729 forward 7 unknown #
coedge $-1 $428 $427 $597 $730 reversed $172 $-1 #
edge $-1 $731 -54.315219033397135 $594 -50.29528064238162 $588 $732 forward 7 unknown #
vertex $-1 $430 $733 #
straight-curve $-1 -7.3904403680036594 25.08718823895062 9.9819361472292982 1 0 0 I I #
coedge $-1 $726 $431 $434 $601 reversed $586 $-1 #
coedge $-1 $431 $726 $592 $730 forward $586 $-1 #
vertex $-1 $432 $734 #
straight-curve $-1 -21.60691475676979 27.157609516698564 51.908952308758927 0 0 1 I I #
straight-curve $-1 -21.60691475676979 -0.8167956243407275 53.093406487572224 0 0.51503806187062418 -0.85716730853699208 I I #
edge $-1 $728 7.9548467152448472 $435 21.60691475676979 $596 $735 forward 7 unknown #
point $-1 -21.60691475676979 27.157609516698564 9.9819361472293018 #
point $-1 -21.60691475676979 25.087188238950617 9.9819361472293053 #
edge $-1 $736 1 $736 0 $438 $-1 forward 7 unknown #
vertex $-1 $439 $737 #
ellipse-curve $-1 -18.876501148464804 25.265231569287593 7.7440181998030253 0 0.85716730853699208 0.51503806187062418 0.5 0 0 1 I I #
point $-1 -18.376501148464804 26.122398877824587 8.2590562616736491 #
edge $-1 $738 1 $738 0 $442 $-1 forward 7 unknown #
vertex $-1 $443 $739 #
ellipse-curve $-1 -14.780880736007319 25.265231569287593 7.7440181998030253 0 0.85716730853699208 0.51503806187062418 0.5 0 0 1 I I #
point $-1 -14.280880736007319 26.122398877824587 8.2590562616736491 #
edge $-1 $740 1 $740 0 $446 $-1 forward 7 unknown #
vertex $-1 $447 $741 #
ellipse-curve $-1 -10.685260323549834 25.265231569287593 7.7440181998030253 0 0.85716730853699208 0.51503806187062418 0.5 0 0 1 I I #
point $-1 -10.185260323549834 26.122398877824587 8.2590562616736491 #
loop $-1 $-1 $458 $450 #
plane-surface $-1 0 27.157609516698564 0 0 -1 0 0 0 -1 forward_v I I I I #
coedge $-1 $619 $453 $455 $623 reversed $303 $-1 #
coedge $-1 $453 $618 $742 $743 reversed $303 $-1 #
coedge $-1 $461 $456 $453 $621 forward $451 $-1 #
edge $-1 $624 -16.714286148437992 $744 -14.643864870690045 $620 $745 forward 7 unknown #
coedge $-1 $455 $454 $627 $746 reversed $191 $-1 #
edge $-1 $747 -54.315219033397135 $624 -50.29528064238162 $618 $748 forward 7 unknown #
vertex $-1 $457 $749 #
straight-curve $-1 4.9204211695188498 25.08718823895062 9.9819361472292982 1 0 0 I I #
coedge $-1 $742 $458 $461 $631 reversed $616 $-1 #
coedge $-1 $458 $742 $622 $746 forward $616 $-1 #
vertex $-1 $459 $750 #
straight-curve $-1 3.0148083182752279 27.157609516698564 51.908952308758927 0 0 1 I I #
straight-curve $-1 3.0148083182752279 -0.8167956243407275 53.093406487572224 0 0.51503806187062418 -0.85716730853699208 I I #
edge $-1 $744 -16.66687635980017 $462 -3.0148083182752279 $626 $751 forward 7 unknown #
point $-1 3.0148083182752279 27.157609516698564 9.9819361472293018 #
point $-1 3.0148083182752279 25.087188238950617 9.9819361472293053 #
edge $-1 $752 1 $752 0 $465 $-1 forward 7 unknown #
vertex $-1 $466 $753 #
ellipse-curve $-1 5.7452219265802071 25.265231569287593 7.7440181998030253 0 0.85716730853699208 0.51503806187062418 0.5 0 0 1 I I #
point $-1 6.2452219265802071 26.122398877824587 8.2590562616736491 #
edge $-1 $754 1 $754 0 $469 $-1 forward 7 unknown #
vertex $-1 $470 $755 #
ellipse-curve $-1 9.8408423390376996 25.265231569287593 7.7440181998030253 0 0.85716730853699208 0.51503806187062418 0.5 0 0 1 I I #
point $-1 10.3408423390377 26.122398877824587 8.2590562616736491 #
edge $-1 $756 1 $756 0 $473 $-1 forward 7 unknown #
vertex $-1 $474 $757 #
ellipse-curve $-1 13.936462751495178 25.265231569287593 7.7440181998030253 0 0.85716730853699208 0.51503806187062418 0.5 0 0 1 I I #
point $-1 14.436462751495178 26.122398877824587 8.2590562616736491 #
loop $-1 $-1 $485 $477 #
plane-surface $-1 0 27.157609516698564 0 0 -1 0 0 0 -1 forward_v I I I I #
coedge $-1 $649 $480 $482 $653 reversed $332 $-1 #
coedge $-1 $480 $648 $758 $759 reversed $332 $-1 #
coedge $-1 $488 $483 $480 $651 forward $478 $-1 #
edge $-1 $654 -16.714286148437992 $760 -14.643864870690045 $650 $761 forward 7 unknown #
coedge $-1 $482 $481 $657 $762 reversed $210 $-1 #
edge $-1 $763 -54.315219033397135 $654 -50.29528064238162 $648 $764 forward 7 unknown #
vertex $-1 $484 $765 #
straight-curve $-1 17.231282707041355 25.08718823895062 9.9819361472292982 1 0 0 I I #
coedge $-1 $758 $485 $488 $661 reversed $646 $-1 #
coedge $-1 $485 $758 $652 $762 forward $646 $-1 #
vertex $-1 $486 $766 #
straight-curve $-1 27.63653139332024 27.157609516698564 51.908952308758927 0 0 1 I I #
straight-curve $-1 27.63653139332024 -0.8167956243407275 53.093406487572224 0 0.51503806187062418 -0.85716730853699208 I I #
edge $-1 $760 -41.288599434845182 $489 -27.63653139332024 $656 $767 forward 7 unknown #
point $-1 27.63653139332024 27.157609516698564 9.9819361472293018 #
point $-1 27.63653139332024 25.087188238950617 9.9819361472293053 #
edge $-1 $768 1 $768 0 $492 $-1 forward 7 unknown #
vertex $-1 $493 $769 #
ellipse-curve $-1 30.366945001625218 25.265231569287593 7.7440181998030253 0 0.85716730853699208 0.51503806187062418 0.5 0 0 1 I I #
point $-1 30.866945001625218 26.122398877824587 8.2590562616736491 #
edge $-1 $770 1 $770 0 $496 $-1 forward 7 unknown #
vertex $-1 $497 $771 #
ellipse-curve $-1 34.462565414082711 25.265231569287593 7.7440181998030253 0 0.85716730853699208 0.51503806187062418 0.5 0 0 1 I I #
point $-1 34.962565414082711 26.122398877824587 8.2590562616736491 #
edge $-1 $772 1 $772 0 $500 $-1 forward 7 unknown #
vertex $-1 $501 $773 #
ellipse-curve $-1 38.558185826540189 25.265231569287593 7.7440181998030253 0 0.85716730853699208 0.51503806187062418 0.5 0 0 1 I I #
point $-1 39.058185826540189 26.122398877824587 8.2590562616736491 #
plane-surface $-1 49.24344615009003 0 0 -1 0 0 0 0 1 forward_v I I I I #
coedge $-1 $509 $507 $511 $681 reversed $361 $-1 #
edge $-1 $522 -9.9819361472293018 $683 9.9819361472293018 $521 $774 forward 7 unknown #
vertex $-1 $681 $775 #
straight-curve $-1 -49.24344615009003 -27.157609516698564 0 0 0 -1 I I #
edge $-1 $679 -27.157609516698564 $683 27.157609516698564 $677 $776 forward 7 unknown #
straight-curve $-1 0 -27.157609516698564 -9.9819361472293018 -1 0 0 I I #
vertex $-1 $514 $777 #
straight-curve $-1 0 27.157609516698564 -9.9819361472293018 1 0 0 I I #
point $-1 49.24344615009003 27.157609516698564 -9.9819361472293018 #
point $-1 49.24344615009003 -27.157609516698564 -9.9819361472293018 #
straight-curve $-1 -49.24344615009003 0 9.9819361472293018 0 -1 0 I I #
point $-1 -49.24344615009003 27.157609516698564 9.9819361472293018 #
point $-1 -49.24344615009003 -27.157609516698564 9.9819361472293018 #
straight-curve $-1 49.24344615009003 -27.157609516698564 0 0 0 -1 I I #
straight-curve $-1 49.24344615009003 27.157609516698564 0 0 0 -1 I I #
loop $-1 $-1 $537 $531 #
plane-surface $-1 0 -27.157609516698564 0 0 1 0 0 0 1 forward_v I I I I #
coedge $-1 $548 $539 $535 $696 forward $532 $-1 #
edge $-1 $700 -15.278199914093673 $543 -8.4806192911161098 $534 $778 forward 7 unknown #
edge $-1 $544 8.4806192911161098 $699 15.278199914093673 $694 $779 forward 7 unknown #
coedge $-1 $546 $537 $551 $709 reversed $692 $-1 #
coedge $-1 $537 $546 $548 $707 reversed $692 $-1 #
vertex $-1 $707 $780 #
vertex $-1 $538 $781 #
straight-curve $-1 -29.279573855631426 -27.157609516698564 0 0 0 1 I I #
straight-curve $-1 -15.427920296854815 -20.360028893721001 -9.9819361472293018 1 0 0 I I #
straight-curve $-1 -15.427920296854815 -20.360028893721001 9.9819361472293018 -1 0 0 I I #
point $-1 -29.279573855631426 -20.360028893721001 9.9819361472293018 #
point $-1 -29.279573855631426 -20.360028893721001 -9.9819361472293018 #
straight-curve $-1 -32.432107331787833 -27.157609516698564 0 0 0 -1 I I #
edge $-1 $699 29.279573855631426 $549 32.432107331787833 $698 $782 forward 7 unknown #
point $-1 -32.432107331787833 -27.157609516698564 -9.9819361472293018 #
edge $-1 $552 -32.432107331787833 $700 -29.279573855631426 $697 $783 forward 7 unknown #
point $-1 -32.432107331787833 -27.157609516698564 9.9819361472293018 #
edge $-1 $712 41.927016161529622 $715 45.37277593264092 $557 $784 forward 7 unknown #
vertex $-1 $571 $785 #
straight-curve $-1 -32.576569790289859 41.801474387388609 9.9819361472293053 0 1 0 I I #
edge $-1 $715 12.875267884763694 $568 26.527335926288636 $567 $786 forward 7 unknown #
vertex $-1 $714 $787 #
straight-curve $-1 -32.576569790289859 -0.8167956243407275 53.093406487572224 0 -0.51503806187062418 0.85716730853699208 I I #
point $-1 -32.576569790289859 25.087188238950617 9.9819361472293053 #
point $-1 -46.228637831814801 27.157609516698564 6.5361763761180072 #
straight-curve $-1 0 27.157609516698564 9.9819361472293018 -1 0 0 I I #
vertex $-1 $574 $788 #
point $-1 -42.998224223509816 25.265231569287593 7.7440181998030253 #
vertex $-1 $578 $789 #
point $-1 -38.90260381105233 25.265231569287593 7.7440181998030253 #
vertex $-1 $582 $790 #
point $-1 -34.806983398594852 25.265231569287593 7.7440181998030253 #
coedge $-1 $597 $596 $589 $727 forward $586 $-1 #
edge $-1 $728 41.927016161529622 $731 45.37277593264092 $726 $791 forward 7 unknown #
vertex $-1 $601 $792 #
straight-curve $-1 -7.9548467152448472 41.801474387388609 9.9819361472293053 0 1 0 I I #
edge $-1 $731 0.56440634724118777 $598 14.21647438876613 $597 $793 forward 7 unknown #
vertex $-1 $730 $794 #
straight-curve $-1 -7.9548467152448472 -0.8167956243407275 53.093406487572224 0 -0.51503806187062418 0.85716730853699208 I I #
point $-1 -7.9548467152448472 25.087188238950617 9.9819361472293053 #
point $-1 -21.60691475676979 27.157609516698564 6.5361763761180072 #
straight-curve $-1 0 27.157609516698564 9.9819361472293018 -1 0 0 I I #
vertex $-1 $604 $795 #
point $-1 -18.376501148464804 25.265231569287593 7.7440181998030253 #
vertex $-1 $608 $796 #
point $-1 -14.280880736007319 25.265231569287593 7.7440181998030253 #
vertex $-1 $612 $797 #
point $-1 -10.185260323549834 25.265231569287593 7.7440181998030253 #
coedge $-1 $627 $626 $619 $743 forward $616 $-1 #
edge $-1 $744 41.927016161529622 $747 45.37277593264092 $742 $798 forward 7 unknown #
vertex $-1 $631 $799 #
straight-curve $-1 16.66687635980017 41.801474387388609 9.9819361472293053 0 1 0 I I #
edge $-1 $747 -11.746455190281321 $628 1.9056128512436219 $627 $800 forward 7 unknown #
vertex $-1 $746 $801 #
straight-curve $-1 16.66687635980017 -0.8167956243407275 53.093406487572224 0 -0.51503806187062418 0.85716730853699208 I I #
point $-1 16.66687635980017 25.087188238950617 9.9819361472293053 #
point $-1 3.0148083182752279 27.157609516698564 6.5361763761180072 #
straight-curve $-1 0 27.157609516698564 9.9819361472293018 -1 0 0 I I #
vertex $-1 $634 $802 #
point $-1 6.2452219265802071 25.265231569287593 7.7440181998030253 #
vertex $-1 $638 $803 #
point $-1 10.3408423390377 25.265231569287593 7.7440181998030253 #
vertex $-1 $642 $804 #
point $-1 14.436462751495178 25.265231569287593 7.7440181998030253 #
coedge $-1 $657 $656 $649 $759 forward $646 $-1 #
edge $-1 $760 41.927016161529622 $763 45.37277593264092 $758 $805 forward 7 unknown #
vertex $-1 $661 $806 #
straight-curve $-1 41.288599434845182 41.801474387388609 9.9819361472293053 0 1 0 I I #
edge $-1 $763 -24.057316727803826 $658 -10.405248686278885 $657 $807 forward 7 unknown #
vertex $-1 $762 $808 #
straight-curve $-1 41.288599434845182 -0.8167956243407275 53.093406487572224 0 -0.51503806187062418 0.85716730853699208 I I #
point $-1 41.288599434845182 25.087188238950617 9.9819361472293053 #
point $-1 27.63653139332024 27.157609516698564 6.5361763761180072 #
straight-curve $-1 0 27.157609516698564 9.9819361472293018 -1 0 0 I I #
vertex $-1 $664 $809 #
point $-1 30.866945001625218 25.265231569287593 7.7440181998030253 #
vertex $-1 $668 $810 #
point $-1 34.962565414082711 25.265231569287593 7.7440181998030253 #
vertex $-1 $672 $811 #
point $-1 39.058185826540189 25.265231569287593 7.7440181998030253 #
straight-curve $-1 -49.24344615009003 27.157609516698564 0 0 0 -1 I I #
point $-1 -49.24344615009003 -27.157609516698564 -9.9819361472293018 #
straight-curve $-1 -49.24344615009003 0 -9.9819361472293018 0 1 0 I I #
point $-1 -49.24344615009003 27.157609516698564 -9.9819361472293018 #
straight-curve $-1 -29.279573855631426 -11.879409602604891 9.9819361472293018 0 1 0 I I #
straight-curve $-1 -29.279573855631426 -11.879409602604891 -9.9819361472293018 0 -1 0 I I #
point $-1 -29.279573855631426 -27.157609516698564 -9.9819361472293018 #
point $-1 -29.279573855631426 -27.157609516698564 9.9819361472293018 #
straight-curve $-1 0 -27.157609516698564 -9.9819361472293018 -1 0 0 I I #
straight-curve $-1 0 -27.157609516698564 9.9819361472293018 1 0 0 I I #
straight-curve $-1 -32.576569790289859 27.157609516698564 51.908952308758927 0 0 -1 I I #
point $-1 -32.576569790289859 27.157609516698564 9.9819361472293018 #
straight-curve $-1 -19.701301905526165 27.157609516698564 6.5361763761180072 -1 0 0 I I #
point $-1 -32.576569790289859 27.157609516698564 6.5361763761180072 #
point $-1 -43.498224223509816 24.8366479150191 7.4864991688677138 #
point $-1 -39.40260381105233 24.8366479150191 7.4864991688677138 #
point $-1 -35.306983398594852 24.8366479150191 7.4864991688677138 #
straight-curve $-1 -7.9548467152448472 27.157609516698564 51.908952308758927 0 0 -1 I I #
point $-1 -7.9548467152448472 27.157609516698564 9.9819361472293018 #
straight-curve $-1 -7.3904403680036594 27.157609516698564 6.5361763761180072 -1 0 0 I I #
point $-1 -7.9548467152448472 27.157609516698564 6.5361763761180072 #
point $-1 -18.876501148464804 24.8366479150191 7.4864991688677138 #
point $-1 -14.780880736007319 24.8366479150191 7.4864991688677138 #
point $-1 -10.685260323549834 24.8366479150191 7.4864991688677138 #
straight-curve $-1 16.66687635980017 27.157609516698564 51.908952308758927 0 0 -1 I I #
point $-1 16.66687635980017 27.157609516698564 9.9819361472293018 #
straight-curve $-1 4.9204211695188498 27.157609516698564 6.5361763761180072 -1 0 0 I I #
point $-1 16.66687635980017 27.157609516698564 6.5361763761180072 #
point $-1 5.7452219265802071 24.8366479150191 7.4864991688677138 #
point $-1 9.8408423390376996 24.8366479150191 7.4864991688677138 #
point $-1 13.936462751495178 24.8366479150191 7.4864991688677138 #
straight-curve $-1 41.288599434845182 27.157609516698564 51.908952308758927 0 0 -1 I I #
point $-1 41.288599434845182 27.157609516698564 9.9819361472293018 #
straight-curve $-1 17.231282707041355 27.157609516698564 6.5361763761180072 -1 0 0 I I #
point $-1 41.288599434845182 27.157609516698564 6.5361763761180072 #
point $-1 30.366945001625218 24.8366479150191 7.4864991688677138 #
point $-1 34.462565414082711 24.8366479150191 7.4864991688677138 #
point $-1 38.558185826540189 24.8366479150191 7.4864991688677138 #
End-of-ACIS-data 