500 0 8 0           
7 Unknown 11 ACIS 5.0 NT 24 Fri Mar 26 02:30:39 1999 
-1 9.9999999999999995e-007 1e-010 
body $-1 $8 $-1 $9 #
body $-1 $10 $-1 $11 #
body $-1 $12 $-1 $13 #
body $-1 $14 $-1 $15 #
body $-1 $16 $-1 $17 #
body $-1 $18 $-1 $19 #
body $-1 $20 $-1 $21 #
body $-1 $22 $-1 $23 #
lump $-1 $-1 $24 $0 #
transform $-1 1 0 0 0 1 0 0 0 1 51.894894253364669 29.120658288095992 8.1828809835396541 1 rotate no_reflect no_shear #
lump $-1 $-1 $25 $1 #
transform $-1 1 0 0 0 1 0 0 0 1 51.894894253364669 29.120658288095992 8.1828809835396541 1 rotate no_reflect no_shear #
lump $-1 $-1 $26 $2 #
transform $-1 1 0 0 0 1 0 0 0 1 51.894894253364669 29.120658288095992 8.1828809835396541 1 rotate no_reflect no_shear #
lump $-1 $-1 $27 $3 #
transform $-1 1 0 0 0 1 0 0 0 1 51.894894253364669 29.120658288095992 8.1828809835396541 1 rotate no_reflect no_shear #
lump $-1 $-1 $28 $4 #
transform $-1 1 0 0 0 1 0 0 0 1 51.894894253364669 29.120658288095992 8.1828809835396541 1 rotate no_reflect no_shear #
lump $-1 $-1 $29 $5 #
transform $-1 1 0 0 0 1 0 0 0 1 51.894894253364669 29.120658288095992 8.1828809835396541 1 rotate no_reflect no_shear #
lump $-1 $-1 $30 $6 #
transform $-1 1 0 0 0 1 0 0 0 1 51.894894253364669 29.120658288095992 8.1828809835396541 1 rotate no_reflect no_shear #
lump $-1 $-1 $31 $7 #
transform $-1 1 0 0 0 1 0 0 0 1 51.894894253364669 29.120658288095992 8.1828809835396541 1 rotate no_reflect no_shear #
shell $-1 $-1 $-1 $32 $-1 $8 #
shell $-1 $-1 $-1 $33 $-1 $10 #
shell $-1 $-1 $-1 $34 $-1 $12 #
shell $-1 $-1 $-1 $35 $-1 $14 #
shell $-1 $-1 $-1 $36 $-1 $16 #
shell $-1 $-1 $-1 $37 $-1 $18 #
shell $-1 $-1 $-1 $38 $-1 $20 #
shell $-1 $-1 $-1 $39 $-1 $22 #
face $-1 $40 $41 $24 $-1 $42 forward single #
face $-1 $43 $44 $25 $-1 $45 forward single #
face $-1 $46 $47 $26 $-1 $48 reversed single #
face $-1 $49 $50 $27 $-1 $51 forward single #
face $-1 $52 $53 $28 $-1 $54 reversed single #
face $-1 $55 $56 $29 $-1 $57 forward single #
face $-1 $58 $59 $30 $-1 $60 forward single #
face $-1 $61 $62 $31 $-1 $63 forward single #
face $-1 $64 $65 $24 $-1 $66 reversed single #
loop $-1 $-1 $67 $32 #
plane-surface $-1 0 0 8.1828809835396541 0 0 1 1 0 0 forward_v I I I I #
face $-1 $68 $69 $25 $-1 $70 reversed single #
loop $-1 $-1 $71 $33 #
plane-surface $-1 -51.894894253364669 0 0 1 0 0 0 0 -1 forward_v I I I I #
face $-1 $72 $73 $26 $-1 $74 reversed single #
loop $-1 $-1 $75 $34 #
plane-surface $-1 42.250065094036955 -29.120658288095989 3.4731803532994547 0 -0.52991927123019833 0.84804809178421925 1 0 0 forward_v I I I I #
face $-1 $76 $77 $27 $-1 $78 forward single #
loop $-1 $79 $80 $35 #
cone-surface $-1 42.250065094036955 -24.433844264329398 4.3584981921016821 0 0.52991927123019833 -0.84804809178421925 1 0 0 1 I I 0 1 1 forward I I I I #
face $-1 $81 $82 $28 $-1 $83 reversed single #
loop $-1 $-1 $84 $36 #
plane-surface $-1 21.389215103755355 55.287850620146557 118.1380628169814 1 0 0 0 -0.66913061440640931 -0.74314481823134659 forward_v I I I I #
face $-1 $85 $86 $29 $-1 $87 forward single #
loop $-1 $88 $89 $37 #
cone-surface $-1 25.262062435516768 24.834666208522389 4.1403103804821439 0 -0.66913061440640931 -0.74314481823134659 1.5 0 0 1 I I 0 1 1.5 forward I I I I #
face $-1 $90 $91 $30 $-1 $92 forward single #
loop $-1 $93 $94 $38 #
cone-surface $-1 31.07133343315887 24.834666208522389 4.1403103804821439 0 -0.66913061440640931 -0.74314481823134659 1.5 0 0 1 I I 0 1 1.5 forward I I I I #
face $-1 $95 $96 $31 $-1 $97 forward single #
loop $-1 $98 $99 $39 #
cone-surface $-1 36.880604430800972 24.834666208522389 4.1403103804821439 0 -0.66913061440640931 -0.74314481823134659 1.5 0 0 1 I I 0 1 1.5 forward I I I I #
face $-1 $100 $101 $24 $-1 $102 reversed single #
loop $-1 $-1 $103 $40 #
plane-surface $-1 0 0 -8.1828809835396541 0 0 1 1 0 0 forward_v I I I I #
coedge $-1 $104 $105 $106 $107 forward $41 $-1 #
face $-1 $108 $109 $25 $-1 $110 reversed single #
loop $-1 $-1 $111 $43 #
plane-surface $-1 0 0 -8.1828809835396541 0 0 1 1 0 0 forward_v I I I I #
coedge $-1 $112 $113 $114 $115 forward $44 $-1 #
face $-1 $116 $117 $26 $-1 $118 reversed single #
loop $-1 $-1 $119 $46 #
plane-surface $-1 32.605235934709242 -84.120867374718415 91.491912443118963 1 0 0 0 0.52991927123019833 -0.84804809178421925 forward_v I I I I #
coedge $-1 $120 $121 $122 $123 reversed $47 $-1 #
face $-1 $-1 $124 $27 $-1 $125 forward single #
loop $-1 $126 $127 $49 #
cone-surface $-1 42.250065094036955 -23.250618805768937 2.4649416698916919 0 0.52991927123019833 -0.84804809178421925 0.5 0 0 1 I I -0.70710678118654779 0.70710678118654713 0.5 forward I I I I #
loop $-1 $-1 $128 $35 #
coedge $-1 $80 $80 $129 $130 reversed $50 $-1 #
face $-1 $131 $132 $28 $-1 $133 reversed single #
loop $-1 $-1 $134 $52 #
plane-surface $-1 31.071333433158856 -14.161074332472523 41.007219302878127 0 0.66913061440640931 0.74314481823134659 1 0 0 forward_v I I I I #
coedge $-1 $135 $136 $137 $138 reversed $53 $-1 #
face $-1 $-1 $139 $29 $-1 $140 forward single #
loop $-1 $141 $142 $55 #
cone-surface $-1 25.262062435516768 23.460132411154643 2.6137359763146435 0 -0.66913061440640931 -0.74314481823134659 0.75 0 0 1 I I -0.70710678118654757 0.70710678118654757 0.75 forward I I I I #
loop $-1 $-1 $143 $37 #
coedge $-1 $89 $89 $144 $145 reversed $56 $-1 #
face $-1 $-1 $146 $30 $-1 $147 forward single #
loop $-1 $148 $149 $58 #
cone-surface $-1 31.07133343315887 23.460132411154643 2.6137359763146435 0 -0.66913061440640931 -0.74314481823134659 0.75 0 0 1 I I -0.70710678118654757 0.70710678118654757 0.75 forward I I I I #
loop $-1 $-1 $150 $38 #
coedge $-1 $94 $94 $151 $152 reversed $59 $-1 #
face $-1 $-1 $153 $31 $-1 $154 forward single #
loop $-1 $155 $156 $61 #
cone-surface $-1 36.880604430800972 23.460132411154643 2.6137359763146435 0 -0.66913061440640931 -0.74314481823134659 0.75 0 0 1 I I -0.70710678118654757 0.70710678118654757 0.75 forward I I I I #
loop $-1 $-1 $157 $39 #
coedge $-1 $99 $99 $158 $159 reversed $62 $-1 #
face $-1 $160 $161 $24 $-1 $162 reversed single #
loop $-1 $-1 $163 $64 #
plane-surface $-1 0 -29.120658288095992 0 0 1 0 0 0 1 forward_v I I I I #
coedge $-1 $164 $165 $166 $167 forward $65 $-1 #
coedge $-1 $168 $67 $169 $170 forward $41 $-1 #
coedge $-1 $67 $168 $171 $172 forward $41 $-1 #
coedge $-1 $173 $174 $67 $107 reversed $175 $-1 #
edge $-1 $176 -29.120658288095992 $177 29.120658288095992 $106 $178 forward 7 unknown #
face $-1 $179 $180 $25 $-1 $181 reversed single #
loop $-1 $-1 $182 $68 #
plane-surface $-1 -55.685291031396972 -15.871268640533007 0 0 1 0 0 0 1 forward_v I I I I #
coedge $-1 $183 $184 $113 $185 forward $69 $-1 #
coedge $-1 $186 $71 $187 $188 reversed $44 $-1 #
coedge $-1 $71 $186 $111 $185 reversed $44 $-1 #
coedge $-1 $189 $190 $71 $115 reversed $191 $-1 #
edge $-1 $192 -8.1828809835396541 $193 8.1828809835396541 $114 $194 forward 7 unknown #
face $-1 $195 $196 $26 $-1 $197 forward single #
loop $-1 $-1 $198 $72 #
plane-surface $-1 0 -29.120658288095992 0 0 1 0 0 0 1 forward_v I I I I #
coedge $-1 $199 $200 $201 $202 reversed $73 $-1 #
coedge $-1 $203 $75 $204 $205 reversed $47 $-1 #
coedge $-1 $75 $203 $199 $206 forward $47 $-1 #
coedge $-1 $201 $207 $75 $123 forward $196 $-1 #
edge $-1 $208 -30.769861706346191 $209 -11.480203387690764 $122 $210 forward 7 unknown #
loop $-1 $-1 $129 $76 #
plane-surface $-1 42.250065094036955 -29.120658288095989 3.4731803532994547 0 -0.52991927123019833 0.84804809178421925 1 0 0 forward_v I I I I #
loop $-1 $-1 $211 $49 #
coedge $-1 $127 $127 $128 $212 reversed $77 $-1 #
coedge $-1 $128 $128 $127 $212 forward $79 $-1 #
coedge $-1 $129 $129 $80 $130 forward $124 $-1 #
edge $-1 $213 -3.7778978124636169e-016 $213 6.2831853071796004 $129 $214 forward 7 unknown #
face $-1 $215 $216 $28 $-1 $217 forward single #
loop $-1 $-1 $218 $81 #
plane-surface $-1 40.753451762562356 55.287850620146557 118.1380628169814 -1 0 0 0 0.66913061440640931 0.74314481823134659 forward_v I I I I #
coedge $-1 $219 $220 $221 $222 reversed $82 $-1 #
coedge $-1 $136 $84 $223 $224 reversed $53 $-1 #
coedge $-1 $84 $135 $219 $225 reversed $53 $-1 #
coedge $-1 $221 $226 $84 $138 forward $216 $-1 #
edge $-1 $227 -1.4767329780227136 $228 5.3498795079986294 $137 $229 forward 7 unknown #
loop $-1 $-1 $144 $85 #
plane-surface $-1 31.071333433158856 -14.161074332472523 41.007219302878127 0 0.66913061440640931 0.74314481823134659 1 0 0 forward_v I I I I #
loop $-1 $-1 $230 $55 #
coedge $-1 $142 $142 $143 $231 reversed $86 $-1 #
coedge $-1 $143 $143 $142 $231 forward $88 $-1 #
coedge $-1 $144 $144 $89 $145 forward $139 $-1 #
edge $-1 $232 7.0120339827835448e-016 $232 6.2831853071796013 $144 $233 forward 7 unknown #
loop $-1 $-1 $151 $90 #
plane-surface $-1 31.071333433158856 -14.161074332472523 41.007219302878127 0 0.66913061440640931 0.74314481823134659 1 0 0 forward_v I I I I #
loop $-1 $-1 $234 $58 #
coedge $-1 $149 $149 $150 $235 reversed $91 $-1 #
coedge $-1 $150 $150 $149 $235 forward $93 $-1 #
coedge $-1 $151 $151 $94 $152 forward $146 $-1 #
edge $-1 $236 7.0120339827835448e-016 $236 6.2831853071796013 $151 $237 forward 7 unknown #
loop $-1 $-1 $158 $95 #
plane-surface $-1 31.071333433158856 -14.161074332472523 41.007219302878127 0 0.66913061440640931 0.74314481823134659 1 0 0 forward_v I I I I #
loop $-1 $-1 $238 $61 #
coedge $-1 $156 $156 $157 $239 reversed $96 $-1 #
coedge $-1 $157 $157 $156 $239 forward $98 $-1 #
coedge $-1 $158 $158 $99 $159 forward $153 $-1 #
edge $-1 $240 7.0120339827835448e-016 $240 6.2831853071796013 $158 $241 forward 7 unknown #
face $-1 $242 $243 $24 $-1 $244 reversed single #
loop $-1 $-1 $245 $100 #
plane-surface $-1 -51.894894253364669 0 0 1 0 0 0 0 -1 forward_v I I I I #
coedge $-1 $246 $171 $247 $248 forward $101 $-1 #
coedge $-1 $249 $103 $246 $250 forward $65 $-1 #
coedge $-1 $103 $249 $251 $252 forward $65 $-1 #
coedge $-1 $174 $173 $103 $167 reversed $175 $-1 #
edge $-1 $253 -29.120658288095992 $254 29.120658288095992 $166 $255 forward 7 unknown #
coedge $-1 $105 $104 $256 $257 forward $41 $-1 #
coedge $-1 $258 $259 $104 $170 reversed $243 $-1 #
edge $-1 $177 -51.894894253364669 $260 51.894894253364669 $169 $261 forward 7 unknown #
coedge $-1 $163 $262 $105 $172 reversed $101 $-1 #
edge $-1 $263 -51.894894253364669 $176 51.894894253364669 $171 $264 forward 7 unknown #
coedge $-1 $166 $106 $262 $265 forward $175 $-1 #
coedge $-1 $106 $166 $258 $266 reversed $175 $-1 #
loop $-1 $-1 $173 $242 #
vertex $-1 $107 $267 #
vertex $-1 $107 $268 #
straight-curve $-1 51.894894253364669 0 8.1828809835396541 0 1 0 I I #
face $-1 $269 $191 $25 $-1 $270 reversed single #
loop $-1 $-1 $271 $108 #
plane-surface $-1 -59.475687809429274 -14.313082480774845 0 1 0 0 0 0 -1 forward_v I I I I #
coedge $-1 $272 $273 $274 $275 forward $109 $-1 #
coedge $-1 $276 $111 $272 $277 forward $69 $-1 #
coedge $-1 $111 $276 $189 $278 forward $69 $-1 #
edge $-1 $192 12.754896321016684 $279 15.871268640533007 $111 $280 forward 7 unknown #
coedge $-1 $113 $112 $281 $282 forward $44 $-1 #
coedge $-1 $283 $284 $112 $188 forward $285 $-1 #
edge $-1 $286 -15.871268640533007 $193 -12.754896321016684 $187 $287 forward 7 unknown #
coedge $-1 $288 $114 $184 $278 reversed $191 $-1 #
coedge $-1 $114 $288 $283 $289 reversed $191 $-1 #
loop $-1 $-1 $114 $179 #
vertex $-1 $185 $290 #
vertex $-1 $289 $291 #
straight-curve $-1 -51.894894253364669 -12.754896321016684 0 0 0 1 I I #
face $-1 $-1 $292 $26 $-1 $293 reversed single #
loop $-1 $-1 $201 $116 #
plane-surface $-1 0 0 8.1828809835396541 0 0 1 1 0 0 forward_v I I I I #
coedge $-1 $294 $295 $200 $296 forward $117 $-1 #
coedge $-1 $200 $119 $121 $206 reversed $73 $-1 #
coedge $-1 $119 $199 $198 $296 reversed $73 $-1 #
coedge $-1 $297 $122 $119 $202 forward $196 $-1 #
edge $-1 $209 -20.476871800905705 $298 -12.939775399263215 $201 $299 forward 7 unknown #
coedge $-1 $121 $120 $294 $300 reversed $47 $-1 #
coedge $-1 $301 $302 $120 $205 forward $292 $-1 #
edge $-1 $303 -11.427606745524317 $208 -2.5400253988284041 $204 $304 forward 7 unknown #
edge $-1 $305 -4.1895292081871576e-015 $209 8.8875813466959084 $199 $306 forward 7 unknown #
coedge $-1 $122 $297 $301 $307 forward $196 $-1 #
vertex $-1 $205 $308 #
vertex $-1 $123 $309 #
straight-curve $-1 21.125032547018478 -21.583561886453506 8.1828809835396541 -1 0 0 I I #
coedge $-1 $211 $211 $-1 $310 reversed $126 $-1 #
edge $-1 $311 0 $311 6.2831853071796004 $127 $312 forward 7 unknown #
vertex $-1 $130 $313 #
ellipse-curve $-1 42.250065094036955 -25.352110087274752 5.8280306684195509 0 -0.52991927123019833 0.84804809178421925 1 0 0 1 I I #
face $-1 $-1 $314 $28 $-1 $315 reversed single #
loop $-1 $-1 $137 $131 #
plane-surface $-1 0 0 8.1828809835396541 0 0 1 1 0 0 forward_v I I I I #
coedge $-1 $316 $317 $318 $319 reversed $132 $-1 #
coedge $-1 $320 $134 $136 $225 forward $82 $-1 #
coedge $-1 $134 $320 $316 $321 forward $82 $-1 #
coedge $-1 $318 $137 $134 $222 forward $216 $-1 #
edge $-1 $228 5.8535483871759268 $322 25.217785045982929 $221 $323 forward 7 unknown #
coedge $-1 $324 $325 $135 $224 forward $314 $-1 #
edge $-1 $326 -57.032860050078121 $227 -50.886150424951047 $223 $327 forward 7 unknown #
edge $-1 $228 49.05520329309276 $326 58.241316576192006 $136 $328 forward 7 unknown #
coedge $-1 $137 $318 $324 $329 forward $216 $-1 #
vertex $-1 $224 $330 #
vertex $-1 $138 $331 #
straight-curve $-1 21.389215103755355 27.643925310073278 8.1828809835396541 0 -1 0 I I #
coedge $-1 $230 $230 $-1 $332 reversed $141 $-1 #
edge $-1 $333 0 $333 6.2831853071796004 $142 $334 forward 7 unknown #
vertex $-1 $145 $335 #
ellipse-curve $-1 25.262062435516768 25.707352045085319 5.1095261709761202 0 0.66913061440640931 0.74314481823134659 1.5 0 0 1 I I #
coedge $-1 $234 $234 $-1 $336 reversed $148 $-1 #
edge $-1 $337 0 $337 6.2831853071796004 $149 $338 forward 7 unknown #
vertex $-1 $152 $339 #
ellipse-curve $-1 31.07133343315887 25.707352045085319 5.1095261709761202 0 0.66913061440640931 0.74314481823134659 1.5 0 0 1 I I #
coedge $-1 $238 $238 $-1 $340 reversed $155 $-1 #
edge $-1 $341 0 $341 6.2831853071796004 $156 $342 forward 7 unknown #
vertex $-1 $159 $343 #
ellipse-curve $-1 36.880604430800972 25.707352045085319 5.1095261709761202 0 0.66913061440640931 0.74314481823134659 1.5 0 0 1 I I #
face $-1 $-1 $175 $24 $-1 $344 reversed single #
loop $-1 $-1 $258 $160 #
plane-surface $-1 0 29.120658288095992 0 0 -1 0 0 0 -1 forward_v I I I I #
coedge $-1 $345 $256 $259 $346 forward $161 $-1 #
coedge $-1 $262 $163 $164 $250 reversed $101 $-1 #
coedge $-1 $256 $345 $163 $248 reversed $161 $-1 #
edge $-1 $263 -8.1828809835396541 $347 8.1828809835396541 $247 $348 forward 7 unknown #
coedge $-1 $165 $164 $345 $349 forward $65 $-1 #
edge $-1 $254 -51.894894253364669 $347 51.894894253364669 $246 $350 forward 7 unknown #
coedge $-1 $259 $258 $165 $252 reversed $243 $-1 #
edge $-1 $351 -51.894894253364669 $253 51.894894253364669 $251 $352 forward 7 unknown #
vertex $-1 $167 $353 #
vertex $-1 $265 $354 #
straight-curve $-1 51.894894253364669 0 -8.1828809835396541 0 -1 0 I I #
coedge $-1 $245 $247 $168 $257 reversed $161 $-1 #
edge $-1 $260 -29.120658288095992 $263 29.120658288095992 $256 $355 forward 7 unknown #
coedge $-1 $251 $169 $174 $266 forward $243 $-1 #
coedge $-1 $169 $251 $245 $346 reversed $243 $-1 #
vertex $-1 $170 $356 #
straight-curve $-1 0 29.120658288095992 8.1828809835396541 -1 0 0 I I #
coedge $-1 $171 $246 $173 $265 reversed $101 $-1 #
vertex $-1 $257 $357 #
straight-curve $-1 0 -29.120658288095992 8.1828809835396541 1 0 0 I I #
edge $-1 $176 -8.1828809835396541 $254 8.1828809835396541 $173 $358 forward 7 unknown #
edge $-1 $177 -8.1828809835396541 $253 8.1828809835396541 $174 $359 forward 7 unknown #
point $-1 51.894894253364669 -29.120658288095992 8.1828809835396541 #
point $-1 51.894894253364669 29.120658288095992 8.1828809835396541 #
face $-1 $-1 $285 $25 $-1 $360 forward single #
plane-surface $-1 -55.685291031396972 -12.754896321016684 0 0 -1 0 0 0 -1 forward_v I I I I #
coedge $-1 $361 $362 $288 $363 forward $180 $-1 #
coedge $-1 $281 $182 $183 $277 reversed $109 $-1 #
coedge $-1 $182 $281 $284 $364 reversed $109 $-1 #
coedge $-1 $362 $361 $182 $275 reversed $180 $-1 #
edge $-1 $365 -8.1828809835396541 $366 8.1828809835396541 $274 $367 forward 7 unknown #
coedge $-1 $184 $183 $361 $368 forward $69 $-1 #
edge $-1 $279 -3.7903967780323029 $366 3.7903967780323029 $272 $369 forward 7 unknown #
edge $-1 $370 -3.7903967780323029 $192 3.7903967780323029 $189 $371 forward 7 unknown #
vertex $-1 $277 $372 #
straight-curve $-1 -51.894894253364669 0 -8.1828809835396541 0 -1 0 I I #
coedge $-1 $273 $272 $186 $282 reversed $109 $-1 #
edge $-1 $286 -8.1828809835396541 $279 8.1828809835396541 $281 $373 forward 7 unknown #
coedge $-1 $374 $187 $190 $289 forward $285 $-1 #
coedge $-1 $187 $374 $273 $364 forward $285 $-1 #
loop $-1 $-1 $187 $269 #
vertex $-1 $188 $375 #
straight-curve $-1 -51.894894253364669 0 8.1828809835396541 0 1 0 I I #
coedge $-1 $190 $189 $271 $363 reversed $191 $-1 #
edge $-1 $193 -3.7903967780323029 $376 3.7903967780323029 $190 $377 forward 7 unknown #
point $-1 -51.894894253364669 -12.754896321016684 -8.1828809835396541 #
point $-1 -51.894894253364669 -12.754896321016684 8.1828809835396541 #
loop $-1 $-1 $204 $195 #
plane-surface $-1 51.894894253364669 0 0 -1 0 0 0 0 1 forward_v I I I I #
coedge $-1 $378 $198 $203 $300 forward $117 $-1 #
coedge $-1 $198 $378 $297 $379 reversed $117 $-1 #
edge $-1 $298 37.563075238019827 $305 42.272775868260027 $198 $380 forward 7 unknown #
coedge $-1 $207 $201 $295 $379 forward $196 $-1 #
vertex $-1 $379 $381 #
straight-curve $-1 32.605235934709242 -42.060433687359208 8.1828809835396541 0 -1 0 I I #
edge $-1 $305 11.480203387690764 $303 30.769861706346191 $294 $382 forward 7 unknown #
coedge $-1 $302 $204 $207 $307 reversed $292 $-1 #
coedge $-1 $204 $301 $378 $383 forward $292 $-1 #
vertex $-1 $300 $384 #
straight-curve $-1 51.894894253364669 -19.429498193893625 9.5288893917929975 0 0.84804809178421925 0.52991927123019833 I I #
vertex $-1 $300 $385 #
straight-curve $-1 32.605235934709242 -29.120658288095989 3.4731803532994547 0 0.84804809178421925 0.52991927123019833 I I #
edge $-1 $386 -29.120658288095992 $208 -21.583561886453502 $301 $387 forward 7 unknown #
point $-1 51.894894253364669 -21.583561886453502 8.1828809835396541 #
point $-1 32.605235934709242 -21.583561886453502 8.1828809835396541 #
edge $-1 $388 1 $388 0 $211 $-1 forward 7 unknown #
vertex $-1 $212 $389 #
ellipse-curve $-1 42.250065094036955 -23.515578441384037 2.8889657157838013 0 -0.52991927123019833 0.84804809178421925 1 0 0 1 I I #
point $-1 43.250065094036955 -25.35211008727476 5.8280306684195615 #
loop $-1 $-1 $223 $215 #
plane-surface $-1 0 29.120658288095992 0 0 -1 0 0 0 -1 forward_v I I I I #
coedge $-1 $317 $218 $220 $321 reversed $132 $-1 #
coedge $-1 $218 $316 $390 $391 reversed $132 $-1 #
coedge $-1 $226 $221 $218 $319 forward $216 $-1 #
edge $-1 $322 -5.3498795079986294 $392 1.4767329780227136 $318 $393 forward 7 unknown #
coedge $-1 $220 $219 $325 $394 reversed $82 $-1 #
edge $-1 $395 -58.241316576192006 $322 -49.05520329309276 $316 $396 forward 7 unknown #
vertex $-1 $222 $397 #
straight-curve $-1 15.535666716579428 22.294045802074656 8.1828809835396505 1 0 0 I I #
coedge $-1 $390 $223 $226 $329 reversed $314 $-1 #
coedge $-1 $223 $390 $320 $394 forward $314 $-1 #
vertex $-1 $224 $398 #
straight-curve $-1 21.389215103755355 29.120658288095992 59.069031408490702 0 0 1 I I #
straight-curve $-1 21.389215103755355 -14.161074332472523 41.007219302878127 0 0.74314481823134659 -0.66913061440640931 I I #
edge $-1 $392 -40.753451762562356 $227 -21.389215103755355 $324 $399 forward 7 unknown #
point $-1 21.389215103755355 29.120658288095992 8.1828809835396541 #
point $-1 21.389215103755355 22.294045802074649 8.1828809835396541 #
edge $-1 $400 1 $400 0 $230 $-1 forward 7 unknown #
vertex $-1 $231 $401 #
ellipse-curve $-1 25.262062435516768 23.961980371959449 3.1710945899881535 0 0.66913061440640931 0.74314481823134659 1.5 0 0 1 I I #
point $-1 26.762062435516768 25.707352045085333 5.1095261709761344 #
edge $-1 $402 1 $402 0 $234 $-1 forward 7 unknown #
vertex $-1 $235 $403 #
ellipse-curve $-1 31.07133343315887 23.961980371959449 3.1710945899881535 0 0.66913061440640931 0.74314481823134659 1.5 0 0 1 I I #
point $-1 32.57133343315887 25.707352045085333 5.1095261709761344 #
edge $-1 $404 1 $404 0 $238 $-1 forward 7 unknown #
vertex $-1 $239 $405 #
ellipse-curve $-1 36.880604430800972 23.961980371959449 3.1710945899881535 0 0.66913061440640931 0.74314481823134659 1.5 0 0 1 I I #
point $-1 38.380604430800972 25.707352045085333 5.1095261709761344 #
plane-surface $-1 51.894894253364669 0 0 -1 0 0 0 0 1 forward_v I I I I #
coedge $-1 $247 $245 $249 $349 reversed $161 $-1 #
edge $-1 $260 -8.1828809835396541 $351 8.1828809835396541 $259 $406 forward 7 unknown #
vertex $-1 $349 $407 #
straight-curve $-1 -51.894894253364669 -29.120658288095992 0 0 0 -1 I I #
edge $-1 $347 -29.120658288095992 $351 29.120658288095992 $345 $408 forward 7 unknown #
straight-curve $-1 0 -29.120658288095992 -8.1828809835396541 -1 0 0 I I #
vertex $-1 $252 $409 #
straight-curve $-1 0 29.120658288095992 -8.1828809835396541 1 0 0 I I #
point $-1 51.894894253364669 29.120658288095992 -8.1828809835396541 #
point $-1 51.894894253364669 -29.120658288095992 -8.1828809835396541 #
straight-curve $-1 -51.894894253364669 0 8.1828809835396541 0 -1 0 I I #
point $-1 -51.894894253364669 29.120658288095992 8.1828809835396541 #
point $-1 -51.894894253364669 -29.120658288095992 8.1828809835396541 #
straight-curve $-1 51.894894253364669 -29.120658288095992 0 0 0 -1 I I #
straight-curve $-1 51.894894253364669 29.120658288095992 0 0 0 -1 I I #
plane-surface $-1 0 0 8.1828809835396541 0 0 1 1 0 0 forward_v I I I I #
coedge $-1 $274 $271 $276 $368 reversed $180 $-1 #
coedge $-1 $271 $274 $374 $410 reversed $180 $-1 #
edge $-1 $376 -8.1828809835396541 $370 8.1828809835396541 $288 $411 forward 7 unknown #
edge $-1 $365 -3.7903967780323029 $286 3.7903967780323029 $273 $412 forward 7 unknown #
vertex $-1 $410 $413 #
vertex $-1 $368 $414 #
straight-curve $-1 -59.475687809429274 -15.871268640533007 0 0 0 -1 I I #
edge $-1 $366 -1.5581861597581614 $370 1.5581861597581614 $361 $415 forward 7 unknown #
straight-curve $-1 -55.685291031396972 -15.871268640533007 -8.1828809835396541 -1 0 0 I I #
vertex $-1 $278 $416 #
straight-curve $-1 -55.685291031396972 -12.754896321016684 -8.1828809835396541 1 0 0 I I #
point $-1 -51.894894253364669 -15.871268640533007 -8.1828809835396541 #
straight-curve $-1 -51.894894253364669 -15.871268640533007 0 0 0 -1 I I #
coedge $-1 $284 $283 $362 $410 forward $285 $-1 #
point $-1 -51.894894253364669 -15.871268640533007 8.1828809835396541 #
vertex $-1 $289 $417 #
straight-curve $-1 -55.685291031396972 -12.754896321016684 8.1828809835396541 -1 0 0 I I #
coedge $-1 $295 $294 $302 $383 reversed $117 $-1 #
edge $-1 $298 32.605235934709242 $386 51.894894253364669 $295 $418 forward 7 unknown #
straight-curve $-1 32.605235934709242 -29.120658288095992 45.745956221559481 0 0 -1 I I #
point $-1 32.605235934709242 -29.120658288095992 8.1828809835396541 #
straight-curve $-1 21.125032547018478 -29.120658288095992 3.4731803532994521 1 0 0 I I #
edge $-1 $386 -8.1828809835396541 $303 -3.4731803532994525 $302 $419 forward 7 unknown #
point $-1 51.894894253364669 -29.120658288095992 3.4731803532994525 #
point $-1 32.605235934709242 -29.120658288095992 3.4731803532994525 #
vertex $-1 $307 $420 #
straight-curve $-1 51.894894253364669 0 8.1828809835396541 0 1 0 I I #
vertex $-1 $310 $421 #
point $-1 43.250065094036955 -23.515578441384037 2.8889657157838013 #
coedge $-1 $325 $324 $317 $391 forward $314 $-1 #
edge $-1 $392 50.886150424951047 $395 57.032860050078121 $390 $422 forward 7 unknown #
vertex $-1 $329 $423 #
straight-curve $-1 40.753451762562356 27.643925310073278 8.1828809835396541 0 1 0 I I #
edge $-1 $395 -25.217785045982929 $326 -5.8535483871759268 $325 $424 forward 7 unknown #
vertex $-1 $394 $425 #
straight-curve $-1 40.753451762562356 -14.161074332472523 41.007219302878127 0 -0.74314481823134659 0.66913061440640931 I I #
point $-1 40.753451762562356 22.294045802074649 8.1828809835396541 #
point $-1 21.389215103755355 29.120658288095996 2.0361713584125809 #
straight-curve $-1 0 29.120658288095992 8.1828809835396541 -1 0 0 I I #
vertex $-1 $332 $426 #
point $-1 26.762062435516768 23.961980371959449 3.1710945899881535 #
vertex $-1 $336 $427 #
point $-1 32.57133343315887 23.961980371959449 3.1710945899881535 #
vertex $-1 $340 $428 #
point $-1 38.380604430800972 23.961980371959449 3.1710945899881535 #
straight-curve $-1 -51.894894253364669 29.120658288095992 0 0 0 -1 I I #
point $-1 -51.894894253364669 -29.120658288095992 -8.1828809835396541 #
straight-curve $-1 -51.894894253364669 0 -8.1828809835396541 0 1 0 I I #
point $-1 -51.894894253364669 29.120658288095992 -8.1828809835396541 #
edge $-1 $376 -1.5581861597581614 $365 1.5581861597581614 $362 $429 forward 7 unknown #
straight-curve $-1 -59.475687809429274 -12.754896321016684 0 0 0 -1 I I #
straight-curve $-1 -55.685291031396972 -15.871268640533007 8.1828809835396541 1 0 0 I I #
point $-1 -59.475687809429274 -15.871268640533007 8.1828809835396541 #
point $-1 -59.475687809429274 -15.871268640533007 -8.1828809835396541 #
straight-curve $-1 -59.475687809429274 -14.313082480774845 -8.1828809835396541 0 1 0 I I #
point $-1 -59.475687809429274 -12.754896321016684 -8.1828809835396541 #
point $-1 -59.475687809429274 -12.754896321016684 8.1828809835396541 #
straight-curve $-1 0 -29.120658288095992 8.1828809835396541 1 0 0 I I #
straight-curve $-1 51.894894253364669 -29.120658288095992 0 0 0 -1 I I #
point $-1 51.894894253364669 -29.120658288095992 8.1828809835396541 #
point $-1 42.250065094036955 -22.985659170153838 2.0409176239995825 #
straight-curve $-1 40.753451762562356 29.120658288095992 59.069031408490702 0 0 -1 I I #
point $-1 40.753451762562356 29.120658288095992 8.1828809835396541 #
straight-curve $-1 15.535666716579428 29.120658288095989 2.036171358412588 -1 0 0 I I #
point $-1 40.753451762562356 29.120658288095996 2.0361713584125809 #
point $-1 25.262062435516768 22.958284450349836 2.0563773626411335 #
point $-1 31.07133343315887 22.958284450349836 2.0563773626411335 #
point $-1 36.880604430800972 22.958284450349836 2.0563773626411335 #
straight-curve $-1 -59.475687809429274 -14.313082480774845 8.1828809835396541 0 -1 0 I I #
End-of-ACIS-data 