500 0 10 0           
7 Unknown 11 ACIS 5.0 NT 24 Fri Mar 26 14:59:26 1999 
-1 9.9999999999999995e-007 1e-010 
body $-1 $10 $-1 $11 #
body $-1 $12 $-1 $13 #
body $-1 $14 $-1 $15 #
body $-1 $16 $-1 $17 #
body $-1 $18 $-1 $19 #
body $-1 $20 $-1 $21 #
body $-1 $22 $-1 $23 #
body $-1 $24 $-1 $25 #
body $-1 $26 $-1 $27 #
body $-1 $28 $-1 $29 #
lump $-1 $-1 $30 $0 #
transform $-1 1 0 0 0 1 0 0 0 1 67.422711874752039 29.587638268129808 12.068924697536223 1 rotate no_reflect no_shear #
lump $-1 $-1 $31 $1 #
transform $-1 1 0 0 0 1 0 0 0 1 67.422711874752039 29.587638268129808 12.068924697536223 1 rotate no_reflect no_shear #
lump $-1 $-1 $32 $2 #
transform $-1 1 0 0 0 1 0 0 0 1 67.422711874752039 29.587638268129808 12.068924697536223 1 rotate no_reflect no_shear #
lump $-1 $-1 $33 $3 #
transform $-1 1 0 0 0 1 0 0 0 1 67.422711874752039 29.587638268129808 12.068924697536223 1 rotate no_reflect no_shear #
lump $-1 $-1 $34 $4 #
transform $-1 1 0 0 0 1 0 0 0 1 67.422711874752039 29.587638268129808 12.068924697536223 1 rotate no_reflect no_shear #
lump $-1 $-1 $35 $5 #
transform $-1 1 0 0 0 1 0 0 0 1 67.422711874752039 29.587638268129808 12.068924697536223 1 rotate no_reflect no_shear #
lump $-1 $-1 $36 $6 #
transform $-1 1 0 0 0 1 0 0 0 1 67.422711874752039 29.587638268129808 12.068924697536223 1 rotate no_reflect no_shear #
lump $-1 $-1 $37 $7 #
transform $-1 1 0 0 0 1 0 0 0 1 67.422711874752039 29.587638268129808 12.068924697536223 1 rotate no_reflect no_shear #
lump $-1 $-1 $38 $8 #
transform $-1 1 0 0 0 1 0 0 0 1 67.422711874752039 29.587638268129808 12.068924697536223 1 rotate no_reflect no_shear #
lump $-1 $-1 $39 $9 #
transform $-1 1 0 0 0 1 0 0 0 1 67.422711874752039 29.587638268129808 12.068924697536223 1 rotate no_reflect no_shear #
shell $-1 $-1 $-1 $40 $-1 $10 #
shell $-1 $-1 $-1 $41 $-1 $12 #
shell $-1 $-1 $-1 $42 $-1 $14 #
shell $-1 $-1 $-1 $43 $-1 $16 #
shell $-1 $-1 $-1 $44 $-1 $18 #
shell $-1 $-1 $-1 $45 $-1 $20 #
shell $-1 $-1 $-1 $46 $-1 $22 #
shell $-1 $-1 $-1 $47 $-1 $24 #
shell $-1 $-1 $-1 $48 $-1 $26 #
shell $-1 $-1 $-1 $49 $-1 $28 #
face $-1 $50 $51 $30 $-1 $52 forward single #
face $-1 $53 $54 $31 $-1 $55 forward single #
face $-1 $56 $57 $32 $-1 $58 reversed single #
face $-1 $59 $60 $33 $-1 $61 forward single #
face $-1 $62 $63 $34 $-1 $64 forward single #
face $-1 $65 $66 $35 $-1 $67 reversed single #
face $-1 $68 $69 $36 $-1 $70 forward single #
face $-1 $71 $72 $37 $-1 $73 forward single #
face $-1 $74 $75 $38 $-1 $76 reversed single #
face $-1 $77 $78 $39 $-1 $79 forward single #
face $-1 $80 $81 $30 $-1 $82 reversed single #
loop $-1 $-1 $83 $40 #
plane-surface $-1 0 0 12.068924697536223 0 0 1 1 0 0 forward_v I I I I #
face $-1 $84 $85 $31 $-1 $86 forward single #
loop $-1 $-1 $87 $41 #
plane-surface $-1 0 -29.587638268129808 0 0 1 0 0 0 1 forward_v I I I I #
face $-1 $88 $89 $32 $-1 $90 reversed single #
loop $-1 $-1 $91 $42 #
plane-surface $-1 -181.77811782952483 -9.5801491609608007 73.017338881000924 0 1 0 -0.84804810408105047 0 0.52991925155115449 forward_v I I I I #
face $-1 $92 $93 $33 $-1 $94 forward single #
loop $-1 $95 $96 $43 #
cone-surface $-1 -62.788552838300781 -6.5929397922270176 5.9704312774133692 0.84804810408105047 0 -0.52991925155115449 0.52991925155115449 0 0.84804810408105047 1 I I 0 1 1 forward I I I I #
face $-1 $97 $98 $34 $-1 $99 forward single #
loop $-1 $100 $101 $44 #
cone-surface $-1 -62.788552838300781 -2.1121257391263413 5.9704312774133692 0.84804810408105047 0 -0.52991925155115449 0.52991925155115449 0 0.84804810408105047 1 I I 0 1 1 forward I I I I #
face $-1 $102 $103 $35 $-1 $104 reversed single #
loop $-1 $-1 $105 $45 #
plane-surface $-1 -181.77811782952483 12.479083421195938 73.017338881000924 0 1 0 -0.84804810408105047 0 0.52991925155115449 forward_v I I I I #
face $-1 $106 $107 $36 $-1 $108 forward single #
loop $-1 $109 $110 $46 #
cone-surface $-1 -62.788552838300781 15.466292789929724 5.9704312774133692 0.84804810408105047 0 -0.52991925155115449 0.52991925155115449 0 0.84804810408105047 1 I I 0 1 1 forward I I I I #
face $-1 $111 $112 $37 $-1 $113 forward single #
loop $-1 $114 $115 $47 #
cone-surface $-1 -62.788552838300781 19.947106843030397 5.9704312774133692 0.84804810408105047 0 -0.52991925155115449 0.52991925155115449 0 0.84804810408105047 1 I I 0 1 1 forward I I I I #
face $-1 $116 $117 $38 $-1 $118 reversed single #
loop $-1 $-1 $119 $48 #
plane-surface $-1 37.590625615094481 8.4278623517336726 190.08746265624526 0 -1 0 -0.5877852598018023 0 -0.80901698891910034 forward_v I I I I #
face $-1 $120 $121 $39 $-1 $122 forward single #
loop $-1 $123 $124 $49 #
cone-surface $-1 59.565687646190106 2.6903830648719449 5.8760980585860105 -0.5877852598018023 0 -0.80901698891910034 2.0225424722977507 0 -1.4694631495045059 1 I I 0 1 2.5 forward I I I I #
face $-1 $125 $126 $30 $-1 $127 reversed single #
loop $-1 $-1 $128 $50 #
plane-surface $-1 0 0 -12.068924697536223 0 0 1 1 0 0 forward_v I I I I #
coedge $-1 $129 $130 $131 $132 forward $51 $-1 #
face $-1 $133 $134 $31 $-1 $135 reversed single #
loop $-1 $-1 $136 $53 #
plane-surface $-1 0 0 12.068924697536223 0 0 1 1 0 0 forward_v I I I I #
coedge $-1 $137 $138 $139 $140 forward $54 $-1 #
face $-1 $141 $142 $32 $-1 $143 reversed single #
loop $-1 $-1 $144 $56 #
plane-surface $-1 -67.422711874752039 -4.3525327656766777 1.5601528525654516 -0.84804810408105047 0 0.52991925155115449 0.52991925155115449 0 0.84804810408105047 forward_v I I I I #
coedge $-1 $145 $146 $147 $148 reversed $57 $-1 #
face $-1 $-1 $149 $33 $-1 $150 forward single #
loop $-1 $151 $152 $59 #
cone-surface $-1 -61.013674366616762 -6.5929397922270176 4.861364154000329 0.84804810408105047 0 -0.52991925155115449 0.26495962577557725 0 0.42402405204052523 1 I I -0.70710678118654746 0.70710678118654746 0.5 forward I I I I #
loop $-1 $-1 $153 $43 #
coedge $-1 $96 $96 $154 $155 reversed $60 $-1 #
face $-1 $-1 $156 $34 $-1 $157 forward single #
loop $-1 $158 $159 $62 #
cone-surface $-1 -61.013674366616762 -2.1121257391263413 4.861364154000329 0.84804810408105047 0 -0.52991925155115449 0.26495962577557725 0 0.42402405204052523 1 I I -0.70710678118654746 0.70710678118654746 0.5 forward I I I I #
loop $-1 $-1 $160 $44 #
coedge $-1 $101 $101 $161 $162 reversed $63 $-1 #
face $-1 $163 $164 $35 $-1 $165 reversed single #
loop $-1 $-1 $166 $65 #
plane-surface $-1 -67.422711874752039 17.706699816480061 1.5601528525654516 -0.84804810408105047 0 0.52991925155115449 0.52991925155115449 0 0.84804810408105047 forward_v I I I I #
coedge $-1 $167 $168 $169 $170 reversed $66 $-1 #
face $-1 $-1 $171 $36 $-1 $172 forward single #
loop $-1 $173 $174 $68 #
cone-surface $-1 -61.013674366616762 15.466292789929724 4.861364154000329 0.84804810408105047 0 -0.52991925155115449 0.26495962577557725 0 0.42402405204052523 1 I I -0.70710678118654746 0.70710678118654746 0.5 forward I I I I #
loop $-1 $-1 $175 $46 #
coedge $-1 $110 $110 $176 $177 reversed $69 $-1 #
face $-1 $-1 $178 $37 $-1 $179 forward single #
loop $-1 $180 $181 $71 #
cone-surface $-1 -61.013674366616762 19.947106843030397 4.861364154000329 0.84804810408105047 0 -0.52991925155115449 0.26495962577557725 0 0.42402405204052523 1 I I -0.70710678118654746 0.70710678118654746 0.5 forward I I I I #
loop $-1 $-1 $182 $47 #
coedge $-1 $115 $115 $183 $184 reversed $72 $-1 #
face $-1 $185 $186 $38 $-1 $187 reversed single #
loop $-1 $-1 $188 $74 #
plane-surface $-1 -41.669526816591898 2.6903830648719449 80.995223964901328 0.5877852598018023 0 0.80901698891910034 0.80901698891910034 0 -0.5877852598018023 forward_v I I I I #
coedge $-1 $189 $190 $191 $192 reversed $75 $-1 #
face $-1 $-1 $193 $39 $-1 $194 forward single #
loop $-1 $195 $196 $77 #
cone-surface $-1 58.08559603614809 2.6903830648719449 3.8389267656475372 -0.5877852598018023 0 -0.80901698891910034 1.0112712361488754 0 -0.73473157475225293 1 I I -0.70710678118654746 0.70710678118654746 1.25 forward I I I I #
loop $-1 $-1 $197 $49 #
coedge $-1 $124 $124 $198 $199 reversed $78 $-1 #
face $-1 $200 $201 $30 $-1 $202 reversed single #
loop $-1 $-1 $203 $80 #
plane-surface $-1 0 -29.587638268129808 0 0 1 0 0 0 1 forward_v I I I I #
coedge $-1 $204 $205 $206 $207 forward $81 $-1 #
coedge $-1 $208 $83 $209 $210 forward $51 $-1 #
coedge $-1 $83 $208 $211 $212 forward $51 $-1 #
coedge $-1 $213 $214 $83 $132 reversed $215 $-1 #
edge $-1 $216 -29.587638268129808 $217 29.587638268129808 $131 $218 forward 7 unknown #
face $-1 $219 $220 $31 $-1 $221 reversed single #
loop $-1 $-1 $222 $84 #
plane-surface $-1 -67.422711874752039 0 0 1 0 0 0 0 -1 forward_v I I I I #
coedge $-1 $223 $224 $225 $226 forward $85 $-1 #
coedge $-1 $225 $87 $222 $227 reversed $54 $-1 #
coedge $-1 $87 $225 $228 $229 reversed $54 $-1 #
coedge $-1 $230 $231 $87 $140 reversed $220 $-1 #
edge $-1 $232 -67.422711874752039 $233 67.422711874752039 $139 $234 forward 7 unknown #
face $-1 $235 $236 $32 $-1 $237 forward single #
loop $-1 $-1 $238 $88 #
plane-surface $-1 -181.77811782952483 0.87508362960744535 73.017338881000924 0 -1 0 0.84804810408105047 0 -0.52991925155115449 forward_v I I I I #
coedge $-1 $239 $240 $241 $242 reversed $89 $-1 #
coedge $-1 $146 $91 $243 $244 reversed $57 $-1 #
coedge $-1 $91 $145 $239 $245 reversed $57 $-1 #
coedge $-1 $241 $246 $91 $148 forward $236 $-1 #
edge $-1 $247 23.466347040010376 $248 30.032956273625892 $147 $249 forward 7 unknown #
loop $-1 $-1 $154 $92 #
plane-surface $-1 -67.422711874752039 -4.3525327656766777 1.5601528525654516 -0.84804810408105047 0 0.52991925155115449 0.52991925155115449 0 0.84804810408105047 forward_v I I I I #
loop $-1 $-1 $250 $59 #
coedge $-1 $152 $152 $153 $251 reversed $93 $-1 #
coedge $-1 $153 $153 $152 $251 forward $95 $-1 #
coedge $-1 $154 $154 $96 $155 forward $149 $-1 #
edge $-1 $252 0 $252 6.2831853071796004 $154 $253 forward 7 unknown #
loop $-1 $-1 $161 $97 #
plane-surface $-1 -67.422711874752039 -4.3525327656766777 1.5601528525654516 -0.84804810408105047 0 0.52991925155115449 0.52991925155115449 0 0.84804810408105047 forward_v I I I I #
loop $-1 $-1 $254 $62 #
coedge $-1 $159 $159 $160 $255 reversed $98 $-1 #
coedge $-1 $160 $160 $159 $255 forward $100 $-1 #
coedge $-1 $161 $161 $101 $162 forward $156 $-1 #
edge $-1 $256 0 $256 6.2831853071796004 $161 $257 forward 7 unknown #
face $-1 $258 $259 $35 $-1 $260 forward single #
loop $-1 $-1 $261 $102 #
plane-surface $-1 -181.77811782952483 22.934316211764184 73.017338881000924 0 -1 0 0.84804810408105047 0 -0.52991925155115449 forward_v I I I I #
coedge $-1 $262 $263 $264 $265 reversed $103 $-1 #
coedge $-1 $168 $105 $266 $267 reversed $66 $-1 #
coedge $-1 $105 $167 $262 $268 reversed $66 $-1 #
coedge $-1 $264 $269 $105 $170 forward $259 $-1 #
edge $-1 $270 23.466347040010376 $271 30.032956273625892 $169 $272 forward 7 unknown #
loop $-1 $-1 $176 $106 #
plane-surface $-1 -67.422711874752039 17.706699816480061 1.5601528525654516 -0.84804810408105047 0 0.52991925155115449 0.52991925155115449 0 0.84804810408105047 forward_v I I I I #
loop $-1 $-1 $273 $68 #
coedge $-1 $174 $174 $175 $274 reversed $107 $-1 #
coedge $-1 $175 $175 $174 $274 forward $109 $-1 #
coedge $-1 $176 $176 $110 $177 forward $171 $-1 #
edge $-1 $275 0 $275 6.2831853071796004 $176 $276 forward 7 unknown #
loop $-1 $-1 $183 $111 #
plane-surface $-1 -67.422711874752039 17.706699816480061 1.5601528525654516 -0.84804810408105047 0 0.52991925155115449 0.52991925155115449 0 0.84804810408105047 forward_v I I I I #
loop $-1 $-1 $277 $71 #
coedge $-1 $181 $181 $182 $278 reversed $112 $-1 #
coedge $-1 $182 $182 $181 $278 forward $114 $-1 #
coedge $-1 $183 $183 $115 $184 forward $178 $-1 #
edge $-1 $279 0 $279 6.2831853071796004 $183 $280 forward 7 unknown #
face $-1 $281 $282 $38 $-1 $283 reversed single #
loop $-1 $-1 $284 $116 #
plane-surface $-1 37.590625615094481 -3.0470962219897828 190.08746265624526 0 1 0 0.5877852598018023 0 0.80901698891910034 forward_v I I I I #
coedge $-1 $285 $286 $287 $288 reversed $117 $-1 #
coedge $-1 $190 $119 $289 $290 reversed $75 $-1 #
coedge $-1 $119 $189 $285 $291 reversed $75 $-1 #
coedge $-1 $287 $292 $119 $192 forward $293 $-1 #
edge $-1 $294 -48.627399067204799 $295 -34.40407068066046 $191 $296 forward 7 unknown #
loop $-1 $-1 $198 $120 #
plane-surface $-1 -41.669526816591898 2.6903830648719449 80.995223964901328 0.5877852598018023 0 0.80901698891910034 0.80901698891910034 0 -0.5877852598018023 forward_v I I I I #
loop $-1 $-1 $297 $77 #
coedge $-1 $196 $196 $197 $298 reversed $121 $-1 #
coedge $-1 $197 $197 $196 $298 forward $123 $-1 #
coedge $-1 $198 $198 $124 $199 forward $193 $-1 #
edge $-1 $299 0 $299 6.2831853071796004 $198 $300 forward 7 unknown #
face $-1 $301 $302 $30 $-1 $303 reversed single #
loop $-1 $-1 $304 $125 #
plane-surface $-1 -67.422711874752039 0 0 1 0 0 0 0 -1 forward_v I I I I #
coedge $-1 $305 $211 $306 $307 forward $126 $-1 #
coedge $-1 $308 $128 $305 $309 forward $81 $-1 #
coedge $-1 $128 $308 $310 $311 forward $81 $-1 #
coedge $-1 $214 $213 $128 $207 reversed $215 $-1 #
edge $-1 $312 -29.587638268129808 $313 29.587638268129808 $206 $314 forward 7 unknown #
coedge $-1 $130 $129 $315 $316 forward $51 $-1 #
coedge $-1 $317 $318 $129 $210 reversed $302 $-1 #
edge $-1 $217 -67.422711874752039 $319 67.422711874752039 $209 $320 forward 7 unknown #
coedge $-1 $203 $321 $130 $212 reversed $126 $-1 #
edge $-1 $322 -67.422711874752039 $216 67.422711874752039 $211 $323 forward 7 unknown #
coedge $-1 $206 $131 $321 $324 forward $215 $-1 #
coedge $-1 $131 $206 $317 $325 reversed $215 $-1 #
loop $-1 $-1 $213 $301 #
vertex $-1 $132 $326 #
vertex $-1 $132 $327 #
straight-curve $-1 67.422711874752039 0 12.068924697536223 0 1 0 I I #
face $-1 $328 $329 $31 $-1 $330 reversed single #
loop $-1 $-1 $230 $133 #
plane-surface $-1 0 -37.116043954102878 6.5047772981465748 0 0 1 1 0 0 forward_v I I I I #
coedge $-1 $331 $332 $137 $227 forward $134 $-1 #
coedge $-1 $333 $136 $332 $334 forward $85 $-1 #
coedge $-1 $136 $333 $335 $336 forward $85 $-1 #
coedge $-1 $138 $137 $136 $226 reversed $54 $-1 #
edge $-1 $337 -67.422711874752039 $338 67.422711874752039 $136 $339 forward 7 unknown #
edge $-1 $338 -12.068924697536223 $233 -6.5047772981465748 $222 $340 forward 7 unknown #
coedge $-1 $335 $341 $138 $229 forward $342 $-1 #
edge $-1 $232 6.5047772981465748 $337 12.068924697536223 $228 $343 forward 7 unknown #
coedge $-1 $344 $139 $341 $345 forward $220 $-1 #
coedge $-1 $139 $344 $331 $346 forward $220 $-1 #
vertex $-1 $229 $347 #
vertex $-1 $227 $348 #
straight-curve $-1 0 -29.587638268129808 6.5047772981465748 -1 0 0 I I #
face $-1 $-1 $349 $32 $-1 $350 reversed single #
loop $-1 $-1 $147 $141 #
plane-surface $-1 0 0 12.068924697536223 0 0 1 1 0 0 forward_v I I I I #
coedge $-1 $351 $352 $353 $354 reversed $142 $-1 #
coedge $-1 $355 $144 $146 $245 forward $89 $-1 #
coedge $-1 $144 $355 $351 $356 forward $89 $-1 #
coedge $-1 $353 $147 $144 $242 forward $236 $-1 #
edge $-1 $248 -7.4038827781224619 $357 3.0513500124457842 $241 $358 forward 7 unknown #
coedge $-1 $359 $360 $145 $244 forward $349 $-1 #
edge $-1 $361 -34.948516587935011 $247 -24.439744742964237 $243 $362 forward 7 unknown #
edge $-1 $248 -12.391716689654221 $361 0 $146 $363 forward 7 unknown #
coedge $-1 $147 $353 $359 $364 forward $236 $-1 #
vertex $-1 $244 $365 #
vertex $-1 $148 $366 #
straight-curve $-1 -90.889058914762415 -9.5801491609608007 12.068924697536225 1 0 0 I I #
coedge $-1 $250 $250 $-1 $367 reversed $151 $-1 #
edge $-1 $368 0 $368 6.2831853071796004 $152 $369 forward 7 unknown #
vertex $-1 $155 $370 #
ellipse-curve $-1 -64.139407257944285 -6.5929397922270176 6.8145387750508366 -0.84804810408105047 0 0.52991925155115449 0.52991925155115449 0 0.84804810408105047 1 I I #
coedge $-1 $254 $254 $-1 $371 reversed $158 $-1 #
edge $-1 $372 0 $372 6.2831853071796004 $159 $373 forward 7 unknown #
vertex $-1 $162 $374 #
ellipse-curve $-1 -64.139407257944285 -2.1121257391263413 6.8145387750508366 -0.84804810408105047 0 0.52991925155115449 0.52991925155115449 0 0.84804810408105047 1 I I #
face $-1 $-1 $375 $35 $-1 $376 reversed single #
loop $-1 $-1 $169 $163 #
plane-surface $-1 0 0 12.068924697536223 0 0 1 1 0 0 forward_v I I I I #
coedge $-1 $377 $378 $379 $380 reversed $164 $-1 #
coedge $-1 $381 $166 $168 $268 forward $103 $-1 #
coedge $-1 $166 $381 $377 $382 forward $103 $-1 #
coedge $-1 $379 $169 $166 $265 forward $259 $-1 #
edge $-1 $271 3.6257335129559074 $383 14.080966303524153 $264 $384 forward 7 unknown #
coedge $-1 $385 $386 $167 $267 forward $375 $-1 #
edge $-1 $387 -34.948516587935011 $270 -24.439744742964237 $266 $388 forward 7 unknown #
edge $-1 $271 -12.391716689654221 $387 0 $168 $389 forward 7 unknown #
coedge $-1 $169 $379 $385 $390 forward $259 $-1 #
vertex $-1 $170 $391 #
vertex $-1 $170 $392 #
straight-curve $-1 -90.889058914762415 12.479083421195938 12.068924697536225 1 0 0 I I #
coedge $-1 $273 $273 $-1 $393 reversed $173 $-1 #
edge $-1 $394 0 $394 6.2831853071796004 $174 $395 forward 7 unknown #
vertex $-1 $177 $396 #
ellipse-curve $-1 -64.139407257944285 15.466292789929724 6.8145387750508366 -0.84804810408105047 0 0.52991925155115449 0.52991925155115449 0 0.84804810408105047 1 I I #
coedge $-1 $277 $277 $-1 $397 reversed $180 $-1 #
edge $-1 $398 0 $398 6.2831853071796004 $181 $399 forward 7 unknown #
vertex $-1 $184 $400 #
ellipse-curve $-1 -64.139407257944285 19.947106843030397 6.8145387750508366 -0.84804810408105047 0 0.52991925155115449 0.52991925155115449 0 0.84804810408105047 1 I I #
face $-1 $-1 $293 $38 $-1 $401 forward single #
loop $-1 $-1 $402 $185 #
plane-surface $-1 67.422711874752039 0 0 -1 0 0 0 0 1 forward_v I I I I #
coedge $-1 $403 $404 $405 $406 reversed $186 $-1 #
coedge $-1 $407 $188 $190 $291 forward $117 $-1 #
coedge $-1 $188 $407 $403 $408 forward $117 $-1 #
coedge $-1 $405 $191 $188 $288 forward $293 $-1 #
edge $-1 $295 -7.0826708192977001 $409 4.3922877544257553 $287 $410 forward 7 unknown #
coedge $-1 $411 $412 $189 $290 forward $282 $-1 #
edge $-1 $413 -93.308659794907683 $294 -82.974806630586414 $289 $414 forward 7 unknown #
edge $-1 $295 117.26442287887016 $413 134.84542374950408 $190 $415 forward 7 unknown #
coedge $-1 $191 $405 $411 $416 forward $293 $-1 #
loop $-1 $-1 $405 $281 #
vertex $-1 $290 $417 #
vertex $-1 $192 $418 #
straight-curve $-1 18.795312807547241 8.4278623517336726 12.068924697536218 -1 0 0 I I #
coedge $-1 $297 $297 $-1 $419 reversed $195 $-1 #
edge $-1 $420 0 $420 6.2831853071796004 $196 $421 forward 7 unknown #
vertex $-1 $199 $422 #
ellipse-curve $-1 60.311047681479856 2.6903830648719449 6.9019981153755907 0.5877852598018023 0 0.80901698891910034 2.0225424722977507 0 -1.4694631495045059 1 I I #
face $-1 $-1 $215 $30 $-1 $423 reversed single #
loop $-1 $-1 $317 $200 #
plane-surface $-1 0 29.587638268129808 0 0 -1 0 0 0 -1 forward_v I I I I #
coedge $-1 $424 $315 $318 $425 forward $201 $-1 #
coedge $-1 $321 $203 $204 $309 reversed $126 $-1 #
coedge $-1 $315 $424 $203 $307 reversed $201 $-1 #
edge $-1 $322 -12.068924697536223 $426 12.068924697536223 $306 $427 forward 7 unknown #
coedge $-1 $205 $204 $424 $428 forward $81 $-1 #
edge $-1 $313 -67.422711874752039 $426 67.422711874752039 $305 $429 forward 7 unknown #
coedge $-1 $318 $317 $205 $311 reversed $302 $-1 #
edge $-1 $430 -67.422711874752039 $312 67.422711874752039 $310 $431 forward 7 unknown #
vertex $-1 $207 $432 #
vertex $-1 $324 $433 #
straight-curve $-1 67.422711874752039 0 -12.068924697536223 0 -1 0 I I #
coedge $-1 $304 $306 $208 $316 reversed $201 $-1 #
edge $-1 $319 -29.587638268129808 $322 29.587638268129808 $315 $434 forward 7 unknown #
coedge $-1 $310 $209 $214 $325 forward $302 $-1 #
coedge $-1 $209 $310 $304 $425 reversed $302 $-1 #
vertex $-1 $210 $435 #
straight-curve $-1 0 29.587638268129808 12.068924697536223 -1 0 0 I I #
coedge $-1 $211 $305 $213 $324 reversed $126 $-1 #
vertex $-1 $316 $436 #
straight-curve $-1 0 -29.587638268129808 12.068924697536223 1 0 0 I I #
edge $-1 $216 -12.068924697536223 $313 12.068924697536223 $213 $437 forward 7 unknown #
edge $-1 $217 -12.068924697536223 $312 12.068924697536223 $214 $438 forward 7 unknown #
point $-1 67.422711874752039 -29.587638268129808 12.068924697536223 #
point $-1 67.422711874752039 29.587638268129808 12.068924697536223 #
face $-1 $-1 $342 $31 $-1 $439 reversed single #
loop $-1 $-1 $440 $219 #
plane-surface $-1 0 -44.644449640075948 9.2868509978414 0 1 0 0 0 1 forward_v I I I I #
coedge $-1 $441 $222 $231 $346 reversed $134 $-1 #
coedge $-1 $222 $441 $223 $334 reversed $134 $-1 #
coedge $-1 $224 $223 $442 $443 forward $85 $-1 #
edge $-1 $338 29.587638268129808 $444 44.644449640075948 $332 $445 forward 7 unknown #
coedge $-1 $446 $228 $224 $336 reversed $342 $-1 #
edge $-1 $447 -44.644449640075948 $337 -29.587638268129808 $335 $448 forward 7 unknown #
vertex $-1 $229 $449 #
vertex $-1 $334 $450 #
straight-curve $-1 0 -29.587638268129808 12.068924697536223 -1 0 0 I I #
straight-curve $-1 -67.422711874752039 -29.587638268129808 0 0 0 -1 I I #
coedge $-1 $228 $446 $230 $345 reversed $342 $-1 #
loop $-1 $-1 $228 $328 #
straight-curve $-1 67.422711874752039 -29.587638268129808 0 0 0 1 I I #
coedge $-1 $231 $230 $451 $452 forward $220 $-1 #
edge $-1 $232 -7.5284056859730697 $453 7.5284056859730697 $341 $454 forward 7 unknown #
edge $-1 $455 -7.5284056859730697 $233 7.5284056859730697 $331 $456 forward 7 unknown #
point $-1 67.422711874752039 -29.587638268129808 6.5047772981465748 #
point $-1 -67.422711874752039 -29.587638268129808 6.5047772981465748 #
loop $-1 $-1 $243 $235 #
plane-surface $-1 -67.422711874752039 0 0 1 0 0 0 0 -1 forward_v I I I I #
coedge $-1 $352 $238 $240 $356 reversed $142 $-1 #
coedge $-1 $238 $351 $457 $458 reversed $142 $-1 #
coedge $-1 $246 $241 $238 $354 forward $236 $-1 #
edge $-1 $357 -30.032956273625892 $459 -23.466347040010376 $353 $460 forward 7 unknown #
coedge $-1 $240 $239 $360 $461 reversed $89 $-1 #
edge $-1 $462 0 $357 12.391716689654221 $351 $463 forward 7 unknown #
vertex $-1 $242 $464 #
straight-curve $-1 -60.85610264113653 -2.1762663828383388 12.068924697536225 0 1 0 I I #
coedge $-1 $457 $243 $246 $364 reversed $349 $-1 #
coedge $-1 $243 $457 $355 $461 forward $349 $-1 #
vertex $-1 $244 $465 #
straight-curve $-1 -67.422711874752039 -9.5801491609608007 36.508669440500462 0 0 1 I I #
straight-curve $-1 -67.422711874752039 -9.5801491609608007 1.5601528525654516 -0.52991925155115449 0 -0.84804810408105047 I I #
edge $-1 $459 -0.87508362960744535 $247 9.5801491609608007 $359 $466 forward 7 unknown #
point $-1 -67.422711874752039 -9.5801491609608007 12.068924697536223 #
point $-1 -60.856102641136523 -9.5801491609608007 12.068924697536223 #
edge $-1 $467 1 $467 0 $250 $-1 forward 7 unknown #
vertex $-1 $251 $468 #
ellipse-curve $-1 -61.437698418657284 -6.5929397922270176 5.1263237797759063 -0.84804810408105047 0 0.52991925155115449 0.52991925155115449 0 0.84804810408105047 1 I I #
point $-1 -63.609488006393121 -6.5929397922270176 7.6625868791318821 #
edge $-1 $469 1 $469 0 $254 $-1 forward 7 unknown #
vertex $-1 $255 $470 #
ellipse-curve $-1 -61.437698418657284 -2.1121257391263413 5.1263237797759063 -0.84804810408105047 0 0.52991925155115449 0.52991925155115449 0 0.84804810408105047 1 I I #
point $-1 -63.609488006393121 -2.1121257391263413 7.6625868791318821 #
loop $-1 $-1 $266 $258 #
plane-surface $-1 -67.422711874752039 0 0 1 0 0 0 0 -1 forward_v I I I I #
coedge $-1 $378 $261 $263 $382 reversed $164 $-1 #
coedge $-1 $261 $377 $471 $472 reversed $164 $-1 #
coedge $-1 $269 $264 $261 $380 forward $259 $-1 #
edge $-1 $383 -30.032956273625892 $473 -23.466347040010376 $379 $474 forward 7 unknown #
coedge $-1 $263 $262 $386 $475 reversed $103 $-1 #
edge $-1 $476 0 $383 12.391716689654221 $377 $477 forward 7 unknown #
vertex $-1 $265 $478 #
straight-curve $-1 -60.85610264113653 8.8533499082400304 12.068924697536225 0 1 0 I I #
coedge $-1 $471 $266 $269 $390 reversed $375 $-1 #
coedge $-1 $266 $471 $381 $475 forward $375 $-1 #
vertex $-1 $267 $479 #
straight-curve $-1 -67.422711874752039 12.479083421195938 36.508669440500462 0 0 1 I I #
straight-curve $-1 -67.422711874752039 12.479083421195938 1.5601528525654516 -0.52991925155115449 0 -0.84804810408105047 I I #
edge $-1 $473 -22.934316211764184 $270 -12.479083421195938 $385 $480 forward 7 unknown #
point $-1 -67.422711874752039 12.479083421195938 12.068924697536223 #
point $-1 -60.856102641136523 12.479083421195938 12.068924697536223 #
edge $-1 $481 1 $481 0 $273 $-1 forward 7 unknown #
vertex $-1 $274 $482 #
ellipse-curve $-1 -61.437698418657284 15.466292789929724 5.1263237797759063 -0.84804810408105047 0 0.52991925155115449 0.52991925155115449 0 0.84804810408105047 1 I I #
point $-1 -63.609488006393121 15.466292789929724 7.6625868791318821 #
edge $-1 $483 1 $483 0 $277 $-1 forward 7 unknown #
vertex $-1 $278 $484 #
ellipse-curve $-1 -61.437698418657284 19.947106843030397 5.1263237797759063 -0.84804810408105047 0 0.52991925155115449 0.52991925155115449 0 0.84804810408105047 1 I I #
point $-1 -63.609488006393121 19.947106843030397 7.6625868791318821 #
plane-surface $-1 0 0 12.068924697536223 0 0 1 1 0 0 forward_v I I I I #
coedge $-1 $412 $411 $404 $485 forward $282 $-1 #
coedge $-1 $404 $284 $286 $408 reversed $186 $-1 #
coedge $-1 $284 $403 $402 $485 reversed $186 $-1 #
coedge $-1 $292 $287 $284 $406 forward $293 $-1 #
edge $-1 $409 34.40407068066046 $486 48.627399067204799 $405 $487 forward 7 unknown #
coedge $-1 $286 $285 $412 $488 reversed $117 $-1 #
edge $-1 $489 -134.84542374950408 $409 -117.26442287887016 $403 $490 forward 7 unknown #
vertex $-1 $288 $491 #
straight-curve $-1 53.199383488207687 1.3451915324359724 12.068924697536225 0 -1 0 I I #
coedge $-1 $402 $289 $292 $416 reversed $282 $-1 #
coedge $-1 $289 $402 $407 $488 forward $282 $-1 #
vertex $-1 $290 $492 #
straight-curve $-1 67.422711874752039 8.4278623517336726 95.043731328122632 0 0 1 I I #
straight-curve $-1 -41.669526816591898 8.4278623517336726 80.995223964901328 0.80901698891910034 0 -0.5877852598018023 I I #
edge $-1 $486 -3.0470962219897828 $294 8.4278623517336726 $411 $493 forward 7 unknown #
point $-1 67.422711874752039 8.4278623517336726 12.068924697536223 #
point $-1 53.199383488207701 8.4278623517336726 12.068924697536218 #
edge $-1 $494 1 $494 0 $297 $-1 forward 7 unknown #
vertex $-1 $298 $495 #
ellipse-curve $-1 58.820327610900343 2.6903830648719449 4.8501980017964126 0.5877852598018023 0 0.80901698891910034 2.0225424722977507 0 -1.4694631495045059 1 I I #
point $-1 62.333590153777621 2.6903830648719449 5.4325349658711035 #
plane-surface $-1 67.422711874752039 0 0 -1 0 0 0 0 1 forward_v I I I I #
coedge $-1 $306 $304 $308 $428 reversed $201 $-1 #
edge $-1 $319 -12.068924697536223 $430 12.068924697536223 $318 $496 forward 7 unknown #
vertex $-1 $428 $497 #
straight-curve $-1 -67.422711874752039 -29.587638268129808 0 0 0 -1 I I #
edge $-1 $426 -29.587638268129808 $430 29.587638268129808 $424 $498 forward 7 unknown #
straight-curve $-1 0 -29.587638268129808 -12.068924697536223 -1 0 0 I I #
vertex $-1 $311 $499 #
straight-curve $-1 0 29.587638268129808 -12.068924697536223 1 0 0 I I #
point $-1 67.422711874752039 29.587638268129808 -12.068924697536223 #
point $-1 67.422711874752039 -29.587638268129808 -12.068924697536223 #
straight-curve $-1 -67.422711874752039 0 12.068924697536223 0 -1 0 I I #
point $-1 -67.422711874752039 29.587638268129808 12.068924697536223 #
point $-1 -67.422711874752039 -29.587638268129808 12.068924697536223 #
straight-curve $-1 67.422711874752039 -29.587638268129808 0 0 0 -1 I I #
straight-curve $-1 67.422711874752039 29.587638268129808 0 0 0 -1 I I #
plane-surface $-1 67.422711874752039 0 0 -1 0 0 0 0 1 forward_v I I I I #
coedge $-1 $451 $442 $441 $500 forward $329 $-1 #
coedge $-1 $332 $331 $440 $500 reversed $134 $-1 #
coedge $-1 $440 $501 $333 $443 reversed $329 $-1 #
edge $-1 $444 -67.422711874752039 $447 67.422711874752039 $442 $502 forward 7 unknown #
vertex $-1 $334 $503 #
straight-curve $-1 -67.422711874752039 0 12.068924697536223 0 -1 0 I I #
coedge $-1 $341 $335 $501 $504 forward $342 $-1 #
vertex $-1 $336 $505 #
straight-curve $-1 67.422711874752039 0 12.068924697536223 0 1 0 I I #
point $-1 67.422711874752039 -29.587638268129808 12.068924697536223 #
point $-1 -67.422711874752039 -29.587638268129808 12.068924697536223 #
coedge $-1 $501 $440 $344 $452 reversed $329 $-1 #
edge $-1 $453 -67.422711874752039 $455 67.422711874752039 $451 $506 forward 7 unknown #
vertex $-1 $504 $507 #
straight-curve $-1 67.422711874752039 -37.116043954102878 6.5047772981465748 0 -1 0 I I #
vertex $-1 $346 $508 #
straight-curve $-1 -67.422711874752039 -37.116043954102878 6.5047772981465748 0 1 0 I I #
coedge $-1 $360 $359 $352 $458 forward $349 $-1 #
edge $-1 $459 24.439744742964237 $462 34.948516587935011 $457 $509 forward 7 unknown #
vertex $-1 $364 $510 #
straight-curve $-1 -90.889058914762415 0.87508362960744535 12.068924697536225 -1 0 0 I I #
edge $-1 $462 -3.0513500124457842 $361 7.4038827781224619 $360 $511 forward 7 unknown #
vertex $-1 $461 $512 #
straight-curve $-1 -67.422711874752039 0.87508362960744535 1.5601528525654516 0.52991925155115449 0 0.84804810408105047 I I #
point $-1 -60.856102641136523 0.87508362960744535 12.068924697536223 #
point $-1 -67.422711874752039 -9.5801491609608007 1.5601528525654516 #
straight-curve $-1 -67.422711874752039 0 12.068924697536223 0 -1 0 I I #
vertex $-1 $367 $513 #
point $-1 -60.907779167106135 -6.5929397922270176 5.9743718838569571 #
vertex $-1 $371 $514 #
point $-1 -60.907779167106135 -2.1121257391263413 5.9743718838569571 #
coedge $-1 $386 $385 $378 $472 forward $375 $-1 #
edge $-1 $473 24.439744742964237 $476 34.948516587935011 $471 $515 forward 7 unknown #
vertex $-1 $390 $516 #
straight-curve $-1 -90.889058914762415 22.934316211764184 12.068924697536225 -1 0 0 I I #
edge $-1 $476 -14.080966303524153 $387 -3.6257335129559074 $386 $517 forward 7 unknown #
vertex $-1 $475 $518 #
straight-curve $-1 -67.422711874752039 22.934316211764184 1.5601528525654516 0.52991925155115449 0 0.84804810408105047 I I #
point $-1 -60.856102641136523 22.934316211764184 12.068924697536223 #
point $-1 -67.422711874752039 12.479083421195938 1.5601528525654516 #
straight-curve $-1 -67.422711874752039 0 12.068924697536223 0 -1 0 I I #
vertex $-1 $393 $519 #
point $-1 -60.907779167106135 15.466292789929724 5.9743718838569571 #
vertex $-1 $397 $520 #
point $-1 -60.907779167106135 19.947106843030397 5.9743718838569571 #
edge $-1 $486 82.974806630586414 $489 93.308659794907683 $402 $521 forward 7 unknown #
vertex $-1 $416 $522 #
straight-curve $-1 18.795312807547241 -3.0470962219897828 12.068924697536218 1 0 0 I I #
edge $-1 $489 -4.3922877544257553 $413 7.0826708192977001 $412 $523 forward 7 unknown #
vertex $-1 $488 $524 #
straight-curve $-1 -41.669526816591898 -3.0470962219897828 80.995223964901328 -0.80901698891910034 0 0.5877852598018023 I I #
point $-1 53.199383488207701 -3.0470962219897828 12.068924697536218 #
point $-1 67.422711874752039 8.4278623517336726 1.7350715332149491 #
straight-curve $-1 67.422711874752039 0 12.068924697536223 0 1 0 I I #
vertex $-1 $419 $525 #
point $-1 60.842870083198093 2.6903830648719449 3.3807348522919067 #
straight-curve $-1 -67.422711874752039 29.587638268129808 0 0 0 -1 I I #
point $-1 -67.422711874752039 -29.587638268129808 -12.068924697536223 #
straight-curve $-1 -67.422711874752039 0 -12.068924697536223 0 1 0 I I #
point $-1 -67.422711874752039 29.587638268129808 -12.068924697536223 #
edge $-1 $444 -2.7820736996948252 $455 2.7820736996948252 $441 $526 forward 7 unknown #
coedge $-1 $442 $451 $446 $504 reversed $329 $-1 #
straight-curve $-1 0 -44.644449640075948 12.068924697536225 1 0 0 I I #
point $-1 -67.422711874752039 -44.644449640075948 12.068924697536225 #
edge $-1 $447 -2.7820736996948252 $453 2.7820736996948252 $446 $527 forward 7 unknown #
point $-1 67.422711874752039 -44.644449640075948 12.068924697536225 #
straight-curve $-1 0 -44.644449640075948 6.5047772981465748 -1 0 0 I I #
point $-1 67.422711874752039 -44.644449640075948 6.5047772981465748 #
point $-1 -67.422711874752039 -44.644449640075948 6.5047772981465748 #
straight-curve $-1 -67.422711874752039 0.87508362960744535 36.508669440500462 0 0 -1 I I #
point $-1 -67.422711874752039 0.87508362960744535 12.068924697536223 #
straight-curve $-1 -67.422711874752039 -2.1762663828383388 1.5601528525654469 0 -1 0 I I #
point $-1 -67.422711874752039 0.87508362960744535 1.5601528525654516 #
point $-1 -60.58965031457624 -6.5929397922270176 4.5964045282247517 #
point $-1 -60.58965031457624 -2.1121257391263413 4.5964045282247517 #
straight-curve $-1 -67.422711874752039 22.934316211764184 36.508669440500462 0 0 -1 I I #
point $-1 -67.422711874752039 22.934316211764184 12.068924697536223 #
straight-curve $-1 -67.422711874752039 8.8533499082400304 1.5601528525654469 0 -1 0 I I #
point $-1 -67.422711874752039 22.934316211764184 1.5601528525654516 #
point $-1 -60.58965031457624 15.466292789929724 4.5964045282247517 #
point $-1 -60.58965031457624 19.947106843030397 4.5964045282247517 #
straight-curve $-1 67.422711874752039 -3.0470962219897828 95.043731328122632 0 0 -1 I I #
point $-1 67.422711874752039 -3.0470962219897828 12.068924697536223 #
straight-curve $-1 67.422711874752039 1.3451915324359724 1.735071533214942 0 1 0 I I #
point $-1 67.422711874752039 -3.0470962219897828 1.7350715332149491 #
point $-1 57.350864461395837 2.6903830648719449 2.8276555294986618 #
straight-curve $-1 -67.422711874752039 -44.644449640075948 9.2868509978414 0 0 -1 I I #
straight-curve $-1 67.422711874752039 -44.644449640075948 9.2868509978414 0 0 -1 I I #
End-of-ACIS-data 