500 0 6 0           
7 Unknown 11 ACIS 5.0 NT 24 Thu Mar 25 16:34:10 1999 
-1 9.9999999999999995e-007 1e-010 
body $-1 $6 $-1 $7 #
body $-1 $8 $-1 $9 #
body $-1 $10 $-1 $11 #
body $-1 $12 $-1 $13 #
body $-1 $14 $-1 $15 #
body $-1 $16 $-1 $17 #
lump $-1 $-1 $18 $0 #
transform $-1 1 0 0 0 1 0 0 0 1 62.802209540086061 34.500678526207068 16.599641325263757 1 rotate no_reflect no_shear #
lump $-1 $-1 $19 $1 #
transform $-1 1 0 0 0 1 0 0 0 1 62.802209540086061 34.500678526207068 16.599641325263757 1 rotate no_reflect no_shear #
lump $-1 $-1 $20 $2 #
transform $-1 1 0 0 0 1 0 0 0 1 62.802209540086061 34.500678526207068 16.599641325263757 1 rotate no_reflect no_shear #
lump $-1 $-1 $21 $3 #
transform $-1 1 0 0 0 1 0 0 0 1 62.802209540086061 34.500678526207068 16.599641325263757 1 rotate no_reflect no_shear #
lump $-1 $-1 $22 $4 #
transform $-1 1 0 0 0 1 0 0 0 1 62.802209540086061 34.500678526207068 16.599641325263757 1 rotate no_reflect no_shear #
lump $-1 $-1 $23 $5 #
transform $-1 1 0 0 0 1 0 0 0 1 62.802209540086061 34.500678526207068 16.599641325263757 1 rotate no_reflect no_shear #
shell $-1 $-1 $-1 $24 $-1 $6 #
shell $-1 $-1 $-1 $25 $-1 $8 #
shell $-1 $-1 $-1 $26 $-1 $10 #
shell $-1 $-1 $-1 $27 $-1 $12 #
shell $-1 $-1 $-1 $28 $-1 $14 #
shell $-1 $-1 $-1 $29 $-1 $16 #
face $-1 $30 $31 $18 $-1 $32 reversed single #
face $-1 $33 $34 $19 $-1 $35 forward single #
face $-1 $36 $37 $20 $-1 $38 forward single #
face $-1 $39 $40 $21 $-1 $41 reversed single #
face $-1 $42 $43 $22 $-1 $44 forward single #
face $-1 $45 $46 $23 $-1 $47 forward single #
face $-1 $48 $49 $18 $-1 $50 reversed single #
loop $-1 $-1 $51 $24 #
plane-surface $-1 62.802209540086061 0 0 -1 0 0 0 0 1 forward_v I I I I #
face $-1 $52 $53 $19 $-1 $54 reversed single #
loop $-1 $-1 $55 $25 #
plane-surface $-1 -62.802209540086061 0 0 1 0 0 0 0 -1 forward_v I I I I #
face $-1 $56 $57 $20 $-1 $58 reversed single #
loop $-1 $-1 $59 $26 #
plane-surface $-1 62.802209540086061 0 0 -1 0 0 0 0 1 forward_v I I I I #
face $-1 $60 $61 $21 $-1 $62 reversed single #
loop $-1 $-1 $63 $27 #
plane-surface $-1 20.397995805328261 -106.54441454064819 106.99843480018603 -1 0 0 0 -0.57357644374324357 0.81915203911291934 forward_v I I I I #
face $-1 $64 $65 $22 $-1 $66 forward single #
loop $-1 $67 $68 $28 #
cone-surface $-1 3.3534058795180854 -23.721912436889351 7.6984795050417496 0 0.57357644374324357 -0.81915203911291934 2 0 0 1 I I 0 1 2 forward I I I I #
face $-1 $69 $70 $23 $-1 $71 forward single #
loop $-1 $72 $73 $29 #
cone-surface $-1 13.580159835004189 -23.721912436889351 7.6984795050417496 0 0.57357644374324357 -0.81915203911291934 2 0 0 1 I I 0 1 2 forward I I I I #
face $-1 $74 $75 $18 $-1 $76 forward single #
loop $-1 $-1 $77 $30 #
plane-surface $-1 -62.802209540086061 0 0 1 0 0 0 0 -1 forward_v I I I I #
coedge $-1 $78 $79 $80 $81 reversed $31 $-1 #
face $-1 $82 $83 $19 $-1 $84 reversed single #
loop $-1 $-1 $85 $33 #
plane-surface $-1 0 0 -16.599641325263757 0 0 1 1 0 0 forward_v I I I I #
coedge $-1 $86 $87 $88 $89 forward $34 $-1 #
face $-1 $90 $91 $20 $-1 $92 reversed single #
loop $-1 $-1 $93 $36 #
plane-surface $-1 0 0 -16.599641325263757 0 0 1 1 0 0 forward_v I I I I #
coedge $-1 $94 $95 $96 $97 forward $37 $-1 #
face $-1 $98 $99 $21 $-1 $100 reversed single #
loop $-1 $-1 $101 $39 #
plane-surface $-1 8.4667828572611441 -34.500678526207068 4.109318789069377 0 -0.57357644374324357 0.81915203911291934 1 0 0 forward_v I I I I #
coedge $-1 $102 $103 $104 $105 reversed $40 $-1 #
face $-1 $-1 $106 $22 $-1 $107 forward single #
loop $-1 $108 $109 $42 #
cone-surface $-1 3.3534058795180854 -21.28858434933943 4.2233269138040122 0 0.57357644374324357 -0.81915203911291934 1 0 0 1 I I -0.70710678118654746 0.70710678118654746 1 forward I I I I #
loop $-1 $-1 $110 $28 #
coedge $-1 $68 $68 $111 $112 reversed $43 $-1 #
face $-1 $-1 $113 $23 $-1 $114 forward single #
loop $-1 $115 $116 $45 #
cone-surface $-1 13.580159835004189 -21.28858434933943 4.2233269138040122 0 0.57357644374324357 -0.81915203911291934 1 0 0 1 I I -0.70710678118654746 0.70710678118654746 1 forward I I I I #
loop $-1 $-1 $117 $29 #
coedge $-1 $73 $73 $118 $119 reversed $46 $-1 #
face $-1 $120 $121 $18 $-1 $122 reversed single #
loop $-1 $-1 $123 $48 #
plane-surface $-1 0 0 16.599641325263757 0 0 1 1 0 0 forward_v I I I I #
coedge $-1 $124 $125 $126 $127 reversed $49 $-1 #
coedge $-1 $128 $51 $129 $130 reversed $31 $-1 #
coedge $-1 $51 $128 $131 $132 forward $31 $-1 #
coedge $-1 $133 $134 $51 $81 forward $121 $-1 #
edge $-1 $135 -34.500678526207068 $136 34.500678526207068 $51 $137 forward 7 unknown #
face $-1 $138 $139 $19 $-1 $140 reversed single #
loop $-1 $-1 $141 $52 #
plane-surface $-1 -72.569680243630899 -6.4274413090061895 0 0 1 0 0 0 1 forward_v I I I I #
coedge $-1 $142 $143 $87 $144 forward $53 $-1 #
coedge $-1 $145 $55 $146 $147 reversed $34 $-1 #
coedge $-1 $55 $145 $85 $144 reversed $34 $-1 #
coedge $-1 $148 $149 $55 $89 reversed $150 $-1 #
edge $-1 $151 -16.599641325263757 $152 16.599641325263757 $88 $153 forward 7 unknown #
face $-1 $154 $155 $20 $-1 $156 reversed single #
loop $-1 $-1 $96 $56 #
plane-surface $-1 72.569680243630899 -6.4274413090061895 0 0 1 0 0 0 1 forward_v I I I I #
coedge $-1 $157 $158 $95 $159 forward $57 $-1 #
coedge $-1 $160 $59 $161 $162 reversed $37 $-1 #
coedge $-1 $59 $160 $93 $159 reversed $37 $-1 #
coedge $-1 $163 $164 $59 $97 reversed $91 $-1 #
edge $-1 $165 -16.599641325263757 $166 16.599641325263757 $96 $167 forward 7 unknown #
face $-1 $168 $169 $21 $-1 $170 forward single #
loop $-1 $-1 $171 $60 #
plane-surface $-1 -3.4644300908059726 -106.54441454064819 106.99843480018603 1 0 0 0 0.57357644374324357 -0.81915203911291934 forward_v I I I I #
coedge $-1 $172 $173 $174 $175 reversed $61 $-1 #
coedge $-1 $103 $63 $176 $177 reversed $40 $-1 #
coedge $-1 $63 $102 $172 $178 reversed $40 $-1 #
coedge $-1 $174 $179 $63 $105 forward $169 $-1 #
edge $-1 $180 18.771528744117028 $181 36.609557635139097 $104 $182 forward 7 unknown #
loop $-1 $-1 $111 $64 #
plane-surface $-1 8.4667828572611441 -34.500678526207068 4.109318789069377 0 -0.57357644374324357 0.81915203911291934 1 0 0 forward_v I I I I #
loop $-1 $-1 $183 $42 #
coedge $-1 $109 $109 $110 $184 reversed $65 $-1 #
coedge $-1 $110 $110 $109 $184 forward $67 $-1 #
coedge $-1 $111 $111 $68 $112 forward $106 $-1 #
edge $-1 $185 -5.0943821938109186e-016 $185 6.2831853071795996 $111 $186 forward 7 unknown #
loop $-1 $-1 $118 $69 #
plane-surface $-1 8.4667828572611441 -34.500678526207068 4.109318789069377 0 -0.57357644374324357 0.81915203911291934 1 0 0 forward_v I I I I #
loop $-1 $-1 $187 $45 #
coedge $-1 $116 $116 $117 $188 reversed $70 $-1 #
coedge $-1 $117 $117 $116 $188 forward $72 $-1 #
coedge $-1 $118 $118 $73 $119 forward $113 $-1 #
edge $-1 $189 -5.0943821938109186e-016 $189 6.2831853071795996 $118 $190 forward 7 unknown #
face $-1 $191 $192 $18 $-1 $193 reversed single #
loop $-1 $-1 $80 $74 #
plane-surface $-1 0 0 -16.599641325263757 0 0 1 1 0 0 forward_v I I I I #
coedge $-1 $194 $195 $128 $196 forward $75 $-1 #
coedge $-1 $197 $77 $198 $199 reversed $49 $-1 #
coedge $-1 $77 $197 $200 $201 forward $49 $-1 #
coedge $-1 $134 $133 $77 $127 forward $121 $-1 #
edge $-1 $202 -34.500678526207068 $203 34.500678526207068 $77 $204 forward 7 unknown #
coedge $-1 $79 $78 $123 $196 reversed $31 $-1 #
coedge $-1 $205 $206 $78 $130 forward $207 $-1 #
edge $-1 $208 -16.599641325263757 $135 16.599641325263757 $78 $209 forward 7 unknown #
coedge $-1 $210 $211 $79 $132 reversed $192 $-1 #
edge $-1 $212 -16.599641325263757 $136 16.599641325263757 $79 $213 forward 7 unknown #
coedge $-1 $126 $80 $211 $214 forward $121 $-1 #
coedge $-1 $80 $126 $205 $215 forward $121 $-1 #
vertex $-1 $81 $216 #
vertex $-1 $132 $217 #
straight-curve $-1 62.802209540086061 0 -16.599641325263757 0 -1 0 I I #
face $-1 $218 $150 $19 $-1 $219 reversed single #
loop $-1 $-1 $220 $82 #
plane-surface $-1 -82.337150947175743 -3.8644185923428722 0 1 0 0 0 0 -1 forward_v I I I I #
coedge $-1 $221 $222 $223 $224 forward $83 $-1 #
coedge $-1 $225 $85 $221 $226 forward $53 $-1 #
coedge $-1 $85 $225 $148 $227 forward $53 $-1 #
edge $-1 $151 1.3013958756795549 $228 6.4274413090061895 $85 $229 forward 7 unknown #
coedge $-1 $87 $86 $230 $231 forward $34 $-1 #
coedge $-1 $232 $233 $86 $147 forward $234 $-1 #
edge $-1 $235 -6.4274413090061895 $152 -1.3013958756795549 $146 $236 forward 7 unknown #
coedge $-1 $237 $88 $143 $227 reversed $150 $-1 #
coedge $-1 $88 $237 $232 $238 reversed $150 $-1 #
loop $-1 $-1 $88 $138 #
vertex $-1 $144 $239 #
vertex $-1 $238 $240 #
straight-curve $-1 -62.802209540086061 -1.3013958756795549 0 0 0 1 I I #
face $-1 $241 $242 $20 $-1 $243 reversed single #
loop $-1 $-1 $244 $90 #
plane-surface $-1 72.569680243630899 -1.3013958756795549 0 0 -1 0 0 0 -1 forward_v I I I I #
coedge $-1 $245 $93 $246 $247 forward $57 $-1 #
coedge $-1 $93 $245 $163 $248 forward $57 $-1 #
edge $-1 $165 -6.4274413090061895 $249 -1.3013958756795549 $93 $250 forward 7 unknown #
coedge $-1 $95 $94 $251 $252 forward $37 $-1 #
coedge $-1 $253 $254 $94 $162 forward $255 $-1 #
edge $-1 $256 1.3013958756795549 $166 6.4274413090061895 $161 $257 forward 7 unknown #
coedge $-1 $258 $96 $158 $248 reversed $91 $-1 #
coedge $-1 $96 $258 $253 $259 reversed $91 $-1 #
vertex $-1 $159 $260 #
vertex $-1 $259 $261 #
straight-curve $-1 62.802209540086061 -6.4274413090061895 0 0 0 1 I I #
face $-1 $-1 $262 $21 $-1 $263 reversed single #
loop $-1 $-1 $104 $98 #
plane-surface $-1 0 0 16.599641325263757 0 0 1 1 0 0 forward_v I I I I #
coedge $-1 $264 $265 $266 $267 reversed $99 $-1 #
coedge $-1 $268 $101 $103 $178 forward $61 $-1 #
coedge $-1 $101 $268 $264 $269 forward $61 $-1 #
coedge $-1 $266 $104 $101 $175 forward $169 $-1 #
edge $-1 $181 -16.164604376697689 $270 7.6978215194365447 $174 $271 forward 7 unknown #
coedge $-1 $272 $273 $102 $177 forward $262 $-1 #
edge $-1 $274 -49.389898611023639 $180 -36.899576074829255 $176 $275 forward 7 unknown #
edge $-1 $181 -21.776212521352363 $274 0 $103 $276 forward 7 unknown #
coedge $-1 $104 $266 $272 $277 forward $169 $-1 #
vertex $-1 $105 $278 #
vertex $-1 $105 $279 #
straight-curve $-1 20.397995805328261 -53.272207270324095 16.599641325263754 0 1 0 I I #
coedge $-1 $183 $183 $-1 $280 reversed $108 $-1 #
edge $-1 $281 0 $281 6.2831853071796004 $109 $282 forward 7 unknown #
vertex $-1 $112 $283 #
ellipse-curve $-1 3.3534058795180854 -25.581664080696029 10.354480057166567 0 -0.57357644374324357 0.81915203911291934 2 0 0 1 I I #
coedge $-1 $187 $187 $-1 $284 reversed $115 $-1 #
edge $-1 $285 0 $285 6.2831853071796004 $116 $286 forward 7 unknown #
vertex $-1 $119 $287 #
ellipse-curve $-1 13.580159835004189 -25.581664080696029 10.354480057166567 0 -0.57357644374324357 0.81915203911291934 2 0 0 1 I I #
face $-1 $-1 $207 $18 $-1 $288 reversed single #
loop $-1 $-1 $198 $120 #
plane-surface $-1 0 -34.500678526207068 0 0 1 0 0 0 1 forward_v I I I I #
coedge $-1 $289 $123 $206 $290 forward $75 $-1 #
coedge $-1 $123 $289 $210 $291 forward $75 $-1 #
edge $-1 $212 -34.500678526207068 $208 34.500678526207068 $128 $292 forward 7 unknown #
coedge $-1 $125 $124 $289 $293 reversed $49 $-1 #
coedge $-1 $211 $210 $124 $199 forward $192 $-1 #
edge $-1 $294 -16.599641325263757 $202 16.599641325263757 $124 $295 forward 7 unknown #
coedge $-1 $206 $205 $125 $201 reversed $207 $-1 #
edge $-1 $296 -16.599641325263757 $203 16.599641325263757 $200 $297 forward 7 unknown #
vertex $-1 $127 $298 #
vertex $-1 $215 $299 #
straight-curve $-1 -62.802209540086061 0 -16.599641325263757 0 1 0 I I #
coedge $-1 $200 $129 $134 $215 reversed $207 $-1 #
coedge $-1 $129 $200 $194 $290 reversed $207 $-1 #
loop $-1 $-1 $129 $191 #
vertex $-1 $196 $300 #
straight-curve $-1 62.802209540086061 34.500678526207068 0 0 0 -1 I I #
coedge $-1 $198 $131 $195 $291 reversed $192 $-1 #
coedge $-1 $131 $198 $133 $214 reversed $192 $-1 #
vertex $-1 $196 $301 #
straight-curve $-1 62.802209540086061 -34.500678526207068 0 0 0 -1 I I #
edge $-1 $136 -62.802209540086061 $202 62.802209540086061 $211 $302 forward 7 unknown #
edge $-1 $203 -62.802209540086061 $135 62.802209540086061 $205 $303 forward 7 unknown #
point $-1 62.802209540086061 34.500678526207068 -16.599641325263757 #
point $-1 62.802209540086061 -34.500678526207068 -16.599641325263757 #
face $-1 $-1 $234 $19 $-1 $304 forward single #
plane-surface $-1 -72.569680243630899 -1.3013958756795549 0 0 -1 0 0 0 -1 forward_v I I I I #
coedge $-1 $305 $306 $237 $307 forward $139 $-1 #
coedge $-1 $230 $141 $142 $226 reversed $83 $-1 #
coedge $-1 $141 $230 $233 $308 reversed $83 $-1 #
coedge $-1 $306 $305 $141 $224 reversed $139 $-1 #
edge $-1 $309 -16.599641325263757 $310 16.599641325263757 $223 $311 forward 7 unknown #
coedge $-1 $143 $142 $305 $312 forward $53 $-1 #
edge $-1 $228 -9.7674707035448449 $310 9.7674707035448449 $221 $313 forward 7 unknown #
edge $-1 $314 -9.7674707035448449 $151 9.7674707035448449 $148 $315 forward 7 unknown #
vertex $-1 $226 $316 #
straight-curve $-1 -62.802209540086061 0 -16.599641325263757 0 -1 0 I I #
coedge $-1 $222 $221 $145 $231 reversed $83 $-1 #
edge $-1 $235 -16.599641325263757 $228 16.599641325263757 $230 $317 forward 7 unknown #
coedge $-1 $318 $146 $149 $238 forward $234 $-1 #
coedge $-1 $146 $318 $222 $308 forward $234 $-1 #
loop $-1 $-1 $146 $218 #
vertex $-1 $147 $319 #
straight-curve $-1 -62.802209540086061 0 16.599641325263757 0 1 0 I I #
coedge $-1 $149 $148 $220 $307 reversed $150 $-1 #
edge $-1 $152 -9.7674707035448449 $320 9.7674707035448449 $149 $321 forward 7 unknown #
point $-1 -62.802209540086054 -1.3013958756795549 -16.599641325263757 #
point $-1 -62.802209540086054 -1.3013958756795549 16.599641325263757 #
face $-1 $-1 $255 $20 $-1 $322 forward single #
loop $-1 $-1 $323 $154 #
plane-surface $-1 82.337150947175729 -3.8644185923428722 0 -1 0 0 0 0 1 forward_v I I I I #
coedge $-1 $246 $324 $325 $326 forward $155 $-1 #
coedge $-1 $158 $157 $327 $328 forward $57 $-1 #
coedge $-1 $251 $244 $157 $247 reversed $155 $-1 #
edge $-1 $249 -9.7674707035448378 $329 9.7674707035448307 $246 $330 forward 7 unknown #
edge $-1 $331 -9.7674707035448307 $165 9.7674707035448378 $163 $332 forward 7 unknown #
vertex $-1 $247 $333 #
straight-curve $-1 62.802209540086061 0 -16.599641325263757 0 1 0 I I #
coedge $-1 $324 $246 $160 $252 reversed $155 $-1 #
edge $-1 $256 -16.599641325263757 $249 16.599641325263757 $251 $334 forward 7 unknown #
coedge $-1 $335 $161 $164 $259 forward $255 $-1 #
coedge $-1 $161 $335 $324 $336 forward $255 $-1 #
loop $-1 $-1 $161 $241 #
vertex $-1 $162 $337 #
straight-curve $-1 62.802209540086061 0 16.599641325263757 0 -1 0 I I #
coedge $-1 $164 $163 $323 $338 reversed $91 $-1 #
edge $-1 $166 -9.7674707035448378 $339 9.7674707035448307 $164 $340 forward 7 unknown #
point $-1 62.802209540086061 -6.4274413090061895 -16.599641325263757 #
point $-1 62.802209540086061 -6.4274413090061895 16.599641325263757 #
loop $-1 $-1 $176 $168 #
plane-surface $-1 0 -34.500678526207068 0 0 1 0 0 0 1 forward_v I I I I #
coedge $-1 $265 $171 $173 $269 reversed $99 $-1 #
coedge $-1 $171 $264 $341 $342 reversed $99 $-1 #
coedge $-1 $179 $174 $171 $267 forward $169 $-1 #
edge $-1 $270 -36.609557635139097 $343 -18.771528744117028 $266 $344 forward 7 unknown #
coedge $-1 $173 $172 $273 $345 reversed $61 $-1 #
edge $-1 $346 0 $270 21.776212521352363 $264 $347 forward 7 unknown #
vertex $-1 $175 $348 #
straight-curve $-1 4.2333914286305721 -16.662649635184994 16.599641325263757 -1 0 0 I I #
coedge $-1 $341 $176 $179 $277 reversed $262 $-1 #
coedge $-1 $176 $341 $268 $345 forward $262 $-1 #
vertex $-1 $177 $349 #
straight-curve $-1 20.397995805328261 -34.500678526207068 53.499217400093016 0 0 1 I I #
straight-curve $-1 20.397995805328261 -34.500678526207068 4.109318789069377 0 -0.81915203911291934 -0.57357644374324357 I I #
edge $-1 $343 -3.4644300908059726 $180 20.397995805328261 $272 $350 forward 7 unknown #
point $-1 20.397995805328261 -34.500678526207068 16.599641325263757 #
point $-1 20.397995805328261 -16.662649635184994 16.599641325263757 #
edge $-1 $351 1 $351 0 $183 $-1 forward 7 unknown #
vertex $-1 $184 $352 #
ellipse-curve $-1 3.3534058795180854 -21.862160793082673 5.0424789529169312 0 -0.57357644374324357 0.81915203911291934 2 0 0 1 I I #
point $-1 5.3534058795180854 -25.581664080696029 10.354480057166565 #
edge $-1 $353 1 $353 0 $187 $-1 forward 7 unknown #
vertex $-1 $188 $354 #
ellipse-curve $-1 13.580159835004189 -21.862160793082673 5.0424789529169312 0 -0.57357644374324357 0.81915203911291934 2 0 0 1 I I #
point $-1 15.580159835004189 -25.581664080696029 10.354480057166565 #
plane-surface $-1 0 34.500678526207068 0 0 -1 0 0 0 -1 forward_v I I I I #
coedge $-1 $195 $194 $197 $293 forward $75 $-1 #
edge $-1 $208 -62.802209540086061 $296 62.802209540086061 $206 $355 forward 7 unknown #
edge $-1 $294 -62.802209540086061 $212 62.802209540086061 $210 $356 forward 7 unknown #
straight-curve $-1 62.802209540086061 0 16.599641325263757 0 1 0 I I #
edge $-1 $296 -34.500678526207068 $294 34.500678526207068 $197 $357 forward 7 unknown #
vertex $-1 $293 $358 #
straight-curve $-1 -62.802209540086061 -34.500678526207068 0 0 0 -1 I I #
vertex $-1 $290 $359 #
straight-curve $-1 -62.802209540086061 34.500678526207068 0 0 0 -1 I I #
point $-1 -62.802209540086061 -34.500678526207068 -16.599641325263757 #
point $-1 -62.802209540086061 34.500678526207068 -16.599641325263757 #
point $-1 62.802209540086061 34.500678526207068 16.599641325263757 #
point $-1 62.802209540086061 -34.500678526207068 16.599641325263757 #
straight-curve $-1 0 -34.500678526207068 -16.599641325263757 -1 0 0 I I #
straight-curve $-1 0 34.500678526207068 -16.599641325263757 1 0 0 I I #
plane-surface $-1 0 0 16.599641325263757 0 0 1 1 0 0 forward_v I I I I #
coedge $-1 $223 $220 $225 $312 reversed $139 $-1 #
coedge $-1 $220 $223 $318 $360 reversed $139 $-1 #
edge $-1 $320 -16.599641325263757 $314 16.599641325263757 $237 $361 forward 7 unknown #
edge $-1 $309 -9.7674707035448449 $235 9.7674707035448449 $222 $362 forward 7 unknown #
vertex $-1 $360 $363 #
vertex $-1 $312 $364 #
straight-curve $-1 -82.337150947175743 -6.4274413090061895 0 0 0 -1 I I #
edge $-1 $310 -2.5630227166633173 $314 2.5630227166633173 $305 $365 forward 7 unknown #
straight-curve $-1 -72.569680243630899 -6.4274413090061895 -16.599641325263757 -1 0 0 I I #
vertex $-1 $227 $366 #
straight-curve $-1 -72.569680243630899 -1.3013958756795549 -16.599641325263757 1 0 0 I I #
point $-1 -62.802209540086054 -6.4274413090061895 -16.599641325263757 #
straight-curve $-1 -62.802209540086061 -6.4274413090061895 0 0 0 -1 I I #
coedge $-1 $233 $232 $306 $360 forward $234 $-1 #
point $-1 -62.802209540086054 -6.4274413090061895 16.599641325263757 #
vertex $-1 $238 $367 #
straight-curve $-1 -72.569680243630899 -1.3013958756795549 16.599641325263757 -1 0 0 I I #
plane-surface $-1 0 0 16.599641325263757 0 0 1 1 0 0 forward_v I I I I #
coedge $-1 $327 $368 $258 $338 forward $242 $-1 #
coedge $-1 $244 $251 $254 $336 reversed $155 $-1 #
coedge $-1 $368 $327 $244 $326 reversed $242 $-1 #
edge $-1 $369 -16.599641325263757 $329 16.599641325263757 $325 $370 forward 7 unknown #
coedge $-1 $325 $323 $245 $328 reversed $242 $-1 #
edge $-1 $329 -2.5630227166633173 $331 2.5630227166633173 $327 $371 forward 7 unknown #
vertex $-1 $328 $372 #
straight-curve $-1 72.569680243630899 -1.3013958756795549 -16.599641325263757 1 0 0 I I #
vertex $-1 $338 $373 #
straight-curve $-1 72.569680243630899 -6.4274413090061895 -16.599641325263757 -1 0 0 I I #
point $-1 62.802209540086061 -1.3013958756795549 -16.599641325263757 #
straight-curve $-1 62.802209540086061 -1.3013958756795549 0 0 0 -1 I I #
coedge $-1 $254 $253 $368 $374 forward $255 $-1 #
edge $-1 $369 -9.7674707035448307 $256 9.7674707035448378 $324 $375 forward 7 unknown #
point $-1 62.802209540086061 -1.3013958756795549 16.599641325263757 #
edge $-1 $339 -16.599641325263757 $331 16.599641325263757 $323 $376 forward 7 unknown #
vertex $-1 $374 $377 #
straight-curve $-1 72.569680243630899 -6.4274413090061895 16.599641325263757 1 0 0 I I #
coedge $-1 $273 $272 $265 $342 forward $262 $-1 #
edge $-1 $343 36.899576074829255 $346 49.389898611023639 $341 $378 forward 7 unknown #
vertex $-1 $277 $379 #
straight-curve $-1 -3.4644300908059726 -53.272207270324095 16.599641325263754 0 -1 0 I I #
edge $-1 $346 -7.6978215194365447 $274 16.164604376697689 $273 $380 forward 7 unknown #
vertex $-1 $345 $381 #
straight-curve $-1 -3.4644300908059726 -34.500678526207068 4.109318789069377 0 0.81915203911291934 0.57357644374324357 I I #
point $-1 -3.4644300908059726 -16.662649635184994 16.599641325263757 #
point $-1 20.397995805328261 -34.500678526207068 4.109318789069377 #
straight-curve $-1 0 -34.500678526207068 16.599641325263757 1 0 0 I I #
vertex $-1 $280 $382 #
point $-1 5.3534058795180854 -21.862160793082673 5.0424789529169312 #
vertex $-1 $284 $383 #
point $-1 15.580159835004189 -21.862160793082673 5.0424789529169312 #
straight-curve $-1 0 34.500678526207068 16.599641325263757 -1 0 0 I I #
straight-curve $-1 0 -34.500678526207068 16.599641325263757 1 0 0 I I #
straight-curve $-1 -62.802209540086061 0 16.599641325263757 0 -1 0 I I #
point $-1 -62.802209540086061 -34.500678526207068 16.599641325263757 #
point $-1 -62.802209540086061 34.500678526207068 16.599641325263757 #
edge $-1 $320 -2.5630227166633173 $309 2.5630227166633173 $306 $384 forward 7 unknown #
straight-curve $-1 -82.337150947175743 -1.3013958756795549 0 0 0 -1 I I #
straight-curve $-1 -72.569680243630899 -6.4274413090061895 16.599641325263757 1 0 0 I I #
point $-1 -82.337150947175743 -6.4274413090061895 16.599641325263757 #
point $-1 -82.337150947175743 -6.4274413090061895 -16.599641325263757 #
straight-curve $-1 -82.337150947175743 -3.8644185923428722 -16.599641325263757 0 1 0 I I #
point $-1 -82.337150947175743 -1.3013958756795549 -16.599641325263757 #
point $-1 -82.337150947175743 -1.3013958756795549 16.599641325263757 #
coedge $-1 $323 $325 $335 $374 reversed $242 $-1 #
vertex $-1 $374 $385 #
straight-curve $-1 82.337150947175729 -1.3013958756795549 0 0 0 -1 I I #
straight-curve $-1 82.337150947175729 -3.8644185923428722 -16.599641325263757 0 -1 0 I I #
point $-1 82.337150947175729 -1.3013958756795549 -16.599641325263757 #
point $-1 82.337150947175729 -6.4274413090061895 -16.599641325263757 #
edge $-1 $339 -2.5630227166633173 $369 2.5630227166633173 $368 $386 forward 7 unknown #
straight-curve $-1 72.569680243630899 -1.3013958756795549 16.599641325263757 -1 0 0 I I #
straight-curve $-1 82.337150947175729 -6.4274413090061895 0 0 0 -1 I I #
point $-1 82.337150947175729 -6.4274413090061895 16.599641325263757 #
straight-curve $-1 -3.4644300908059726 -34.500678526207068 53.499217400093016 0 0 -1 I I #
point $-1 -3.4644300908059726 -34.500678526207068 16.599641325263757 #
straight-curve $-1 4.2333914286305721 -34.500678526207068 4.1093187890693761 1 0 0 I I #
point $-1 -3.4644300908059726 -34.500678526207068 4.109318789069377 #
point $-1 3.3534058795180854 -20.715007905596188 3.4041748746910927 #
point $-1 13.580159835004189 -20.715007905596188 3.4041748746910927 #
straight-curve $-1 -82.337150947175743 -3.8644185923428722 16.599641325263757 0 -1 0 I I #
point $-1 82.337150947175729 -1.3013958756795549 16.599641325263757 #
straight-curve $-1 82.337150947175729 -3.8644185923428722 16.599641325263757 0 1 0 I I #
End-of-ACIS-data 