500 0 11 0           
7 Unknown 11 ACIS 5.0 NT 24 Fri Mar 26 18:00:13 1999 
-1 9.9999999999999995e-007 1e-010 
body $-1 $11 $-1 $12 #
body $-1 $13 $-1 $14 #
body $-1 $15 $-1 $16 #
body $-1 $17 $-1 $18 #
body $-1 $19 $-1 $20 #
body $-1 $21 $-1 $22 #
body $-1 $23 $-1 $24 #
body $-1 $25 $-1 $26 #
body $-1 $27 $-1 $28 #
body $-1 $29 $-1 $30 #
body $-1 $31 $-1 $32 #
lump $-1 $-1 $33 $0 #
transform $-1 1 0 0 0 1 0 0 0 1 43.623157444990383 20.628440198328715 8.2191431578508976 1 rotate no_reflect no_shear #
lump $-1 $-1 $34 $1 #
transform $-1 1 0 0 0 1 0 0 0 1 43.623157444990383 20.628440198328715 8.2191431578508976 1 rotate no_reflect no_shear #
lump $-1 $-1 $35 $2 #
transform $-1 1 0 0 0 1 0 0 0 1 43.623157444990383 20.628440198328715 8.2191431578508976 1 rotate no_reflect no_shear #
lump $-1 $-1 $36 $3 #
transform $-1 1 0 0 0 1 0 0 0 1 43.623157444990383 20.628440198328715 8.2191431578508976 1 rotate no_reflect no_shear #
lump $-1 $-1 $37 $4 #
transform $-1 1 0 0 0 1 0 0 0 1 43.623157444990383 20.628440198328715 8.2191431578508976 1 rotate no_reflect no_shear #
lump $-1 $-1 $38 $5 #
transform $-1 1 0 0 0 1 0 0 0 1 43.623157444990383 20.628440198328715 8.2191431578508976 1 rotate no_reflect no_shear #
lump $-1 $-1 $39 $6 #
transform $-1 1 0 0 0 1 0 0 0 1 43.623157444990383 20.628440198328715 8.2191431578508976 1 rotate no_reflect no_shear #
lump $-1 $-1 $40 $7 #
transform $-1 1 0 0 0 1 0 0 0 1 43.623157444990383 20.628440198328715 8.2191431578508976 1 rotate no_reflect no_shear #
lump $-1 $-1 $41 $8 #
transform $-1 1 0 0 0 1 0 0 0 1 43.623157444990383 20.628440198328715 8.2191431578508976 1 rotate no_reflect no_shear #
lump $-1 $-1 $42 $9 #
transform $-1 1 0 0 0 1 0 0 0 1 43.623157444990383 20.628440198328715 8.2191431578508976 1 rotate no_reflect no_shear #
lump $-1 $-1 $43 $10 #
transform $-1 1 0 0 0 1 0 0 0 1 43.623157444990383 20.628440198328715 8.2191431578508976 1 rotate no_reflect no_shear #
shell $-1 $-1 $-1 $44 $-1 $11 #
shell $-1 $-1 $-1 $45 $-1 $13 #
shell $-1 $-1 $-1 $46 $-1 $15 #
shell $-1 $-1 $-1 $47 $-1 $17 #
shell $-1 $-1 $-1 $48 $-1 $19 #
shell $-1 $-1 $-1 $49 $-1 $21 #
shell $-1 $-1 $-1 $50 $-1 $23 #
shell $-1 $-1 $-1 $51 $-1 $25 #
shell $-1 $-1 $-1 $52 $-1 $27 #
shell $-1 $-1 $-1 $53 $-1 $29 #
shell $-1 $-1 $-1 $54 $-1 $31 #
face $-1 $55 $56 $33 $-1 $57 forward single #
face $-1 $58 $59 $34 $-1 $60 forward single #
face $-1 $61 $62 $35 $-1 $63 reversed single #
face $-1 $64 $65 $36 $-1 $66 reversed single #
face $-1 $67 $68 $37 $-1 $69 forward single #
face $-1 $70 $71 $38 $-1 $72 reversed single #
face $-1 $73 $74 $39 $-1 $75 forward single #
face $-1 $76 $77 $40 $-1 $78 reversed single #
face $-1 $79 $80 $41 $-1 $81 forward single #
face $-1 $82 $83 $42 $-1 $84 reversed single #
face $-1 $85 $86 $43 $-1 $87 forward single #
face $-1 $88 $89 $33 $-1 $90 reversed single #
loop $-1 $-1 $91 $44 #
plane-surface $-1 0 0 8.2191431578508976 0 0 1 1 0 0 forward_v I I I I #
face $-1 $92 $93 $34 $-1 $94 reversed single #
loop $-1 $-1 $95 $45 #
plane-surface $-1 0 -16.148030171086411 7.7191431578508976 0 0 1 1 0 0 forward_v I I I I #
face $-1 $96 $97 $35 $-1 $98 forward single #
loop $-1 $-1 $99 $46 #
plane-surface $-1 0 11.667620143844104 5.5155739959683832 0 1 0 0 0 1 forward_v I I I I #
face $-1 $100 $101 $36 $-1 $102 reversed single #
loop $-1 $-1 $103 $47 #
plane-surface $-1 -43.623157444990383 8.5652177728175047 4.7871745234293286 -0.61566148304635926 0 0.78801074757464917 0.78801074757464917 0 0.61566148304635926 forward_v I I I I #
face $-1 $104 $105 $37 $-1 $106 forward single #
loop $-1 $107 $108 $48 #
cone-surface $-1 -40.850630865342445 8.5652177728175047 5.7656989091731896 0.61566148304635926 0 -0.78801074757464917 0.78801074757464917 0 0.61566148304635926 1 I I 0 1 1 forward I I I I #
face $-1 $109 $110 $38 $-1 $111 reversed single #
loop $-1 $-1 $112 $49 #
plane-surface $-1 32.86945421067513 -8.0802479666447873 124.82071799825179 0 1 0 0.64278761758704617 0 0.76604443648966558 forward_v I I I I #
face $-1 $113 $114 $39 $-1 $115 forward single #
loop $-1 $116 $117 $50 #
cone-surface $-1 39.539498816956645 -5.9847273406297461 4.6792058512689012 -0.64278761758704617 0 -0.76604443648966558 0.1915111091224164 0 -0.16069690439676154 1 I I 0 1 0.25 forward I I I I #
face $-1 $118 $119 $40 $-1 $120 reversed single #
loop $-1 $-1 $121 $51 #
plane-surface $-1 32.86945421067513 -0.30183453741538102 124.82071799825179 0 1 0 0.64278761758704617 0 0.76604443648966558 forward_v I I I I #
face $-1 $122 $123 $41 $-1 $124 forward single #
loop $-1 $125 $126 $52 #
cone-surface $-1 39.539498816956645 1.7936860885996602 4.6792058512689012 -0.64278761758704617 0 -0.76604443648966558 0.1915111091224164 0 -0.16069690439676154 1 I I 0 1 0.25 forward I I I I #
face $-1 $127 $128 $42 $-1 $129 reversed single #
loop $-1 $-1 $130 $53 #
plane-surface $-1 32.86945421067513 7.4765788918140252 124.82071799825179 0 1 0 0.64278761758704617 0 0.76604443648966558 forward_v I I I I #
face $-1 $131 $132 $43 $-1 $133 forward single #
loop $-1 $134 $135 $54 #
cone-surface $-1 39.539498816956645 9.5720995178290664 4.6792058512689012 -0.64278761758704617 0 -0.76604443648966558 0.1915111091224164 0 -0.16069690439676154 1 I I 0 1 0.25 forward I I I I #
face $-1 $136 $137 $33 $-1 $138 reversed single #
loop $-1 $-1 $139 $55 #
plane-surface $-1 0 0 -8.2191431578508976 0 0 1 1 0 0 forward_v I I I I #
coedge $-1 $140 $141 $142 $143 forward $56 $-1 #
face $-1 $144 $145 $34 $-1 $146 reversed single #
loop $-1 $-1 $147 $58 #
plane-surface $-1 0 -16.148030171086411 3.3120048340858688 0 0 1 1 0 0 forward_v I I I I #
coedge $-1 $148 $149 $150 $151 reversed $59 $-1 #
face $-1 $152 $153 $35 $-1 $154 reversed single #
loop $-1 $-1 $155 $61 #
plane-surface $-1 0 16.148030171086408 7.7191431578508976 0 0 1 1 0 0 forward_v I I I I #
coedge $-1 $156 $157 $158 $159 reversed $62 $-1 #
face $-1 $160 $161 $36 $-1 $162 forward single #
loop $-1 $-1 $163 $64 #
plane-surface $-1 -97.337353060485597 5.4628154017909019 73.538208343016322 0 1 0 -0.61566148304635926 0 0.78801074757464917 forward_v I I I I #
coedge $-1 $164 $165 $166 $167 reversed $65 $-1 #
face $-1 $-1 $168 $37 $-1 $169 forward single #
loop $-1 $170 $171 $67 #
cone-surface $-1 -39.966633267603662 8.5652177728175047 4.6342336039189433 0.61566148304635926 0 -0.78801074757464917 0.39400537378732459 0 0.30783074152317963 1 I I -0.70710678118654746 0.70710678118654746 0.5 forward I I I I #
loop $-1 $-1 $172 $48 #
coedge $-1 $108 $108 $173 $174 reversed $68 $-1 #
face $-1 $175 $176 $38 $-1 $177 reversed single #
loop $-1 $-1 $178 $70 #
plane-surface $-1 -23.211396680704837 -5.9847273406297461 57.98616387255656 0.64278761758704617 0 0.76604443648966558 0.76604443648966558 0 -0.64278761758704617 forward_v I I I I #
coedge $-1 $179 $180 $181 $182 reversed $71 $-1 #
face $-1 $-1 $183 $39 $-1 $184 forward single #
loop $-1 $185 $186 $73 #
cone-surface $-1 39.137756555964742 -5.9847273406297461 4.2004280784628598 -0.64278761758704617 0 -0.76604443648966558 0.095755554561208198 0 -0.080348452198380771 1 I I -0.70710678118654746 0.70710678118654746 0.125 forward I I I I #
loop $-1 $-1 $187 $50 #
coedge $-1 $117 $117 $188 $189 reversed $74 $-1 #
face $-1 $190 $191 $40 $-1 $192 reversed single #
loop $-1 $-1 $193 $76 #
plane-surface $-1 -23.211396680704837 1.7936860885996602 57.98616387255656 0.64278761758704617 0 0.76604443648966558 0.76604443648966558 0 -0.64278761758704617 forward_v I I I I #
coedge $-1 $194 $195 $196 $197 reversed $77 $-1 #
face $-1 $-1 $198 $41 $-1 $199 forward single #
loop $-1 $200 $201 $79 #
cone-surface $-1 39.137756555964742 1.7936860885996602 4.2004280784628598 -0.64278761758704617 0 -0.76604443648966558 0.095755554561208198 0 -0.080348452198380771 1 I I -0.70710678118654746 0.70710678118654746 0.125 forward I I I I #
loop $-1 $-1 $202 $52 #
coedge $-1 $126 $126 $203 $204 reversed $80 $-1 #
face $-1 $205 $206 $42 $-1 $207 reversed single #
loop $-1 $-1 $208 $82 #
plane-surface $-1 -23.211396680704837 9.5720995178290664 57.98616387255656 0.64278761758704617 0 0.76604443648966558 0.76604443648966558 0 -0.64278761758704617 forward_v I I I I #
coedge $-1 $209 $210 $211 $212 reversed $83 $-1 #
face $-1 $-1 $213 $43 $-1 $214 forward single #
loop $-1 $215 $216 $85 #
cone-surface $-1 39.137756555964742 9.5720995178290664 4.2004280784628598 -0.64278761758704617 0 -0.76604443648966558 0.095755554561208198 0 -0.080348452198380771 1 I I -0.70710678118654746 0.70710678118654746 0.125 forward I I I I #
loop $-1 $-1 $217 $54 #
coedge $-1 $135 $135 $218 $219 reversed $86 $-1 #
face $-1 $220 $221 $33 $-1 $222 reversed single #
loop $-1 $-1 $223 $88 #
plane-surface $-1 0 -20.628440198328715 0 0 1 0 0 0 1 forward_v I I I I #
coedge $-1 $224 $225 $226 $227 forward $89 $-1 #
coedge $-1 $228 $91 $229 $230 forward $56 $-1 #
coedge $-1 $91 $228 $231 $232 forward $56 $-1 #
coedge $-1 $233 $234 $91 $143 reversed $235 $-1 #
edge $-1 $236 -20.628440198328715 $237 20.628440198328715 $142 $238 forward 7 unknown #
face $-1 $239 $240 $34 $-1 $241 reversed single #
loop $-1 $-1 $242 $92 #
plane-surface $-1 0 -11.667620143844108 5.5155739959683832 0 -1 0 0 0 -1 forward_v I I I I #
coedge $-1 $243 $244 $245 $246 reversed $93 $-1 #
coedge $-1 $247 $95 $248 $249 forward $59 $-1 #
coedge $-1 $95 $247 $250 $251 reversed $59 $-1 #
coedge $-1 $252 $253 $95 $151 forward $254 $-1 #
edge $-1 $255 3.593605058300902 $256 12.554425112785509 $150 $257 forward 7 unknown #
face $-1 $258 $259 $35 $-1 $260 reversed single #
loop $-1 $-1 $261 $96 #
plane-surface $-1 0 16.148030171086408 3.3120048340858688 0 0 1 1 0 0 forward_v I I I I #
coedge $-1 $262 $158 $263 $264 reversed $97 $-1 #
coedge $-1 $265 $99 $266 $267 reversed $62 $-1 #
coedge $-1 $99 $265 $268 $269 reversed $62 $-1 #
coedge $-1 $155 $270 $99 $159 forward $97 $-1 #
edge $-1 $271 -43.623157444990383 $272 43.623157444990383 $99 $273 forward 7 unknown #
face $-1 $274 $275 $36 $-1 $276 reversed single #
loop $-1 $-1 $277 $100 #
plane-surface $-1 0 11.667620143844104 5.5155739959683832 0 1 0 0 0 1 forward_v I I I I #
coedge $-1 $278 $279 $280 $281 reversed $101 $-1 #
coedge $-1 $282 $103 $277 $283 reversed $65 $-1 #
coedge $-1 $103 $282 $278 $284 forward $65 $-1 #
coedge $-1 $280 $285 $103 $167 forward $275 $-1 #
edge $-1 $286 -7.3850112574353517 $287 -1.1802065153821495 $166 $288 forward 7 unknown #
loop $-1 $-1 $173 $104 #
plane-surface $-1 -43.623157444990383 8.5652177728175047 4.7871745234293286 -0.61566148304635926 0 0.78801074757464917 0.78801074757464917 0 0.61566148304635926 forward_v I I I I #
loop $-1 $-1 $289 $67 #
coedge $-1 $171 $171 $172 $290 reversed $105 $-1 #
coedge $-1 $172 $172 $171 $290 forward $107 $-1 #
coedge $-1 $173 $173 $108 $174 forward $168 $-1 #
edge $-1 $291 0 $291 6.2831853071796004 $173 $292 forward 7 unknown #
face $-1 $293 $294 $38 $-1 $295 forward single #
loop $-1 $-1 $296 $109 #
plane-surface $-1 32.86945421067513 -3.8892067146147049 124.82071799825179 0 -1 0 -0.64278761758704617 0 -0.76604443648966558 forward_v I I I I #
coedge $-1 $297 $298 $299 $300 reversed $110 $-1 #
coedge $-1 $180 $112 $301 $302 reversed $71 $-1 #
coedge $-1 $112 $179 $297 $303 reversed $71 $-1 #
coedge $-1 $299 $304 $112 $182 forward $305 $-1 #
edge $-1 $306 54.191215841274996 $307 60.505046017949297 $181 $308 forward 7 unknown #
loop $-1 $-1 $188 $113 #
plane-surface $-1 -23.211396680704837 -5.9847273406297461 57.98616387255656 0.64278761758704617 0 0.76604443648966558 0.76604443648966558 0 -0.64278761758704617 forward_v I I I I #
loop $-1 $-1 $309 $73 #
coedge $-1 $186 $186 $187 $310 reversed $114 $-1 #
coedge $-1 $187 $187 $186 $310 forward $116 $-1 #
coedge $-1 $188 $188 $117 $189 forward $183 $-1 #
edge $-1 $311 0 $311 6.2831853071796004 $188 $312 forward 7 unknown #
face $-1 $313 $314 $40 $-1 $315 reversed single #
loop $-1 $-1 $316 $118 #
plane-surface $-1 32.86945421067513 3.8892067146147014 124.82071799825179 0 -1 0 -0.64278761758704617 0 -0.76604443648966558 forward_v I I I I #
coedge $-1 $317 $318 $319 $320 reversed $119 $-1 #
coedge $-1 $195 $121 $321 $322 reversed $77 $-1 #
coedge $-1 $121 $194 $317 $323 reversed $77 $-1 #
coedge $-1 $319 $324 $121 $197 forward $314 $-1 #
edge $-1 $325 54.191215841274996 $326 60.505046017949297 $196 $327 forward 7 unknown #
loop $-1 $-1 $203 $122 #
plane-surface $-1 -23.211396680704837 1.7936860885996602 57.98616387255656 0.64278761758704617 0 0.76604443648966558 0.76604443648966558 0 -0.64278761758704617 forward_v I I I I #
loop $-1 $-1 $328 $79 #
coedge $-1 $201 $201 $202 $329 reversed $123 $-1 #
coedge $-1 $202 $202 $201 $329 forward $125 $-1 #
coedge $-1 $203 $203 $126 $204 forward $198 $-1 #
edge $-1 $330 0 $330 6.2831853071796004 $203 $331 forward 7 unknown #
face $-1 $332 $333 $42 $-1 $334 forward single #
loop $-1 $-1 $211 $127 #
plane-surface $-1 43.623157444990383 0 0 -1 0 0 0 0 1 forward_v I I I I #
coedge $-1 $335 $336 $337 $338 reversed $128 $-1 #
coedge $-1 $210 $130 $339 $340 reversed $83 $-1 #
coedge $-1 $130 $209 $335 $341 reversed $83 $-1 #
coedge $-1 $337 $342 $130 $212 forward $206 $-1 #
edge $-1 $343 54.191215841274996 $344 60.505046017949297 $211 $345 forward 7 unknown #
loop $-1 $-1 $218 $131 #
plane-surface $-1 -23.211396680704837 9.5720995178290664 57.98616387255656 0.64278761758704617 0 0.76604443648966558 0.76604443648966558 0 -0.64278761758704617 forward_v I I I I #
loop $-1 $-1 $346 $85 #
coedge $-1 $216 $216 $217 $347 reversed $132 $-1 #
coedge $-1 $217 $217 $216 $347 forward $134 $-1 #
coedge $-1 $218 $218 $135 $219 forward $213 $-1 #
edge $-1 $348 0 $348 6.2831853071796004 $218 $349 forward 7 unknown #
face $-1 $350 $351 $33 $-1 $352 reversed single #
loop $-1 $-1 $353 $136 #
plane-surface $-1 -43.623157444990383 0 0 1 0 0 0 0 -1 forward_v I I I I #
coedge $-1 $354 $231 $355 $356 forward $137 $-1 #
coedge $-1 $357 $139 $354 $358 forward $89 $-1 #
coedge $-1 $139 $357 $359 $360 forward $89 $-1 #
coedge $-1 $234 $233 $139 $227 reversed $235 $-1 #
edge $-1 $361 -20.628440198328715 $362 20.628440198328715 $226 $363 forward 7 unknown #
coedge $-1 $141 $140 $364 $365 forward $56 $-1 #
coedge $-1 $366 $367 $140 $230 reversed $351 $-1 #
edge $-1 $237 -43.623157444990383 $368 43.623157444990383 $229 $369 forward 7 unknown #
coedge $-1 $223 $370 $141 $232 reversed $137 $-1 #
edge $-1 $371 -43.623157444990383 $236 43.623157444990383 $231 $372 forward 7 unknown #
coedge $-1 $226 $142 $370 $373 forward $235 $-1 #
coedge $-1 $142 $226 $366 $374 reversed $235 $-1 #
loop $-1 $-1 $233 $350 #
vertex $-1 $143 $375 #
vertex $-1 $143 $376 #
straight-curve $-1 43.623157444990383 0 8.2191431578508976 0 1 0 I I #
face $-1 $377 $378 $34 $-1 $379 reversed single #
loop $-1 $-1 $380 $144 #
plane-surface $-1 -43.623157444990383 0 0 1 0 0 0 0 -1 forward_v I I I I #
coedge $-1 $381 $248 $253 $382 reversed $145 $-1 #
coedge $-1 $383 $147 $384 $385 reversed $93 $-1 #
coedge $-1 $147 $383 $381 $386 forward $93 $-1 #
coedge $-1 $253 $252 $147 $246 forward $254 $-1 #
edge $-1 $387 -12.554425112785509 $388 -3.593605058300902 $245 $389 forward 7 unknown #
coedge $-1 $149 $148 $380 $390 reversed $59 $-1 #
coedge $-1 $242 $391 $148 $249 reversed $145 $-1 #
edge $-1 $255 -43.623157444990383 $392 43.623157444990383 $248 $393 forward 7 unknown #
coedge $-1 $394 $395 $149 $251 forward $378 $-1 #
edge $-1 $256 -43.623157444990383 $396 43.623157444990383 $250 $397 forward 7 unknown #
coedge $-1 $245 $150 $395 $398 forward $254 $-1 #
coedge $-1 $150 $245 $242 $382 forward $254 $-1 #
loop $-1 $-1 $150 $377 #
vertex $-1 $151 $399 #
vertex $-1 $398 $400 #
straight-curve $-1 43.623157444990383 -8.0740150855432056 7.7191431578508976 0 -1 0 I I #
face $-1 $401 $402 $35 $-1 $403 reversed single #
loop $-1 $-1 $263 $152 #
plane-surface $-1 43.623157444990383 0 0 -1 0 0 0 0 1 forward_v I I I I #
coedge $-1 $404 $405 $406 $407 reversed $153 $-1 #
coedge $-1 $270 $155 $408 $409 reversed $97 $-1 #
coedge $-1 $268 $410 $155 $264 forward $259 $-1 #
edge $-1 $411 -12.554425112785507 $272 -3.5936050583009003 $263 $412 forward 7 unknown #
coedge $-1 $157 $156 $404 $413 reversed $62 $-1 #
coedge $-1 $414 $415 $156 $267 forward $402 $-1 #
edge $-1 $416 0.55421783610167719 $271 4.961356159866706 $266 $417 forward 7 unknown #
coedge $-1 $406 $263 $157 $269 forward $259 $-1 #
edge $-1 $272 -4.961356159866706 $418 -0.55421783610167719 $268 $419 forward 7 unknown #
coedge $-1 $158 $262 $414 $420 reversed $97 $-1 #
vertex $-1 $420 $421 #
vertex $-1 $264 $422 #
straight-curve $-1 0 11.667620143844104 7.7191431578508976 1 0 0 I I #
face $-1 $-1 $423 $36 $-1 $424 forward single #
loop $-1 $-1 $285 $160 #
plane-surface $-1 -43.623157444990383 0 0 1 0 0 0 0 -1 forward_v I I I I #
coedge $-1 $425 $426 $164 $283 forward $161 $-1 #
coedge $-1 $279 $163 $165 $284 reversed $101 $-1 #
coedge $-1 $163 $278 $427 $428 reversed $101 $-1 #
coedge $-1 $429 $166 $163 $281 forward $275 $-1 #
edge $-1 $287 -31.981929648078832 $430 -28.549961013657263 $280 $431 forward 7 unknown #
coedge $-1 $165 $164 $432 $433 reversed $65 $-1 #
edge $-1 $434 11.837541170207434 $286 17.411982204653537 $277 $435 forward 7 unknown #
edge $-1 $436 -5.5744410344461031 $287 0 $278 $437 forward 7 unknown #
coedge $-1 $166 $429 $425 $438 forward $275 $-1 #
vertex $-1 $283 $439 #
vertex $-1 $167 $440 #
straight-curve $-1 -43.623157444990383 4.2826088864087524 4.7871745234293295 0 -1 0 I I #
coedge $-1 $289 $289 $-1 $441 reversed $170 $-1 #
edge $-1 $442 0 $442 6.2831853071796004 $171 $443 forward 7 unknown #
vertex $-1 $174 $444 #
ellipse-curve $-1 -41.426797721558046 8.5652177728175047 6.5031588406401122 -0.61566148304635926 0 0.78801074757464917 0.78801074757464917 0 0.61566148304635926 1 I I #
face $-1 $-1 $305 $38 $-1 $445 reversed single #
loop $-1 $-1 $446 $175 #
plane-surface $-1 0 0 8.2191431578508976 0 0 1 1 0 0 forward_v I I I I #
coedge $-1 $447 $448 $449 $450 reversed $176 $-1 #
coedge $-1 $451 $178 $180 $303 forward $110 $-1 #
coedge $-1 $178 $451 $447 $452 forward $110 $-1 #
coedge $-1 $449 $181 $178 $300 forward $305 $-1 #
edge $-1 $307 -5.0878842963299142 $453 -0.89684304429983186 $299 $454 forward 7 unknown #
coedge $-1 $455 $456 $179 $302 forward $294 $-1 #
edge $-1 $457 19.663900701172466 $306 27.188430339652818 $301 $458 forward 7 unknown #
edge $-1 $307 -87.246314889980752 $457 -77.423738966107607 $180 $459 forward 7 unknown #
coedge $-1 $181 $449 $455 $460 reversed $305 $-1 #
loop $-1 $-1 $449 $293 #
vertex $-1 $460 $461 #
vertex $-1 $182 $462 #
straight-curve $-1 43.623157444990383 -8.0802479666447873 62.410358999125897 0 0 -1 I I #
coedge $-1 $309 $309 $-1 $463 reversed $185 $-1 #
edge $-1 $464 0 $464 6.2831853071796004 $186 $465 forward 7 unknown #
vertex $-1 $189 $466 #
ellipse-curve $-1 39.860892625750189 -5.9847273406297461 5.0622280695137611 0.64278761758704617 0 0.76604443648966558 0.1915111091224164 0 -0.16069690439676154 1 I I #
face $-1 $-1 $467 $40 $-1 $468 forward single #
loop $-1 $-1 $196 $190 #
plane-surface $-1 43.623157444990383 0 0 -1 0 0 0 0 1 forward_v I I I I #
coedge $-1 $469 $470 $471 $472 reversed $191 $-1 #
coedge $-1 $473 $193 $195 $323 forward $119 $-1 #
coedge $-1 $193 $473 $469 $474 forward $119 $-1 #
coedge $-1 $471 $196 $193 $320 forward $314 $-1 #
edge $-1 $326 -1.1986775817152111 $475 2.9923636703148713 $319 $476 forward 7 unknown #
coedge $-1 $477 $478 $194 $322 forward $467 $-1 #
edge $-1 $479 19.663900701172466 $325 27.188430339652818 $321 $480 forward 7 unknown #
edge $-1 $326 -87.246314889980752 $479 -77.423738966107607 $195 $481 forward 7 unknown #
coedge $-1 $196 $471 $477 $482 reversed $314 $-1 #
vertex $-1 $482 $483 #
vertex $-1 $197 $484 #
straight-curve $-1 43.623157444990383 -0.30183453741538102 62.410358999125897 0 0 -1 I I #
coedge $-1 $328 $328 $-1 $485 reversed $200 $-1 #
edge $-1 $486 0 $486 6.2831853071796004 $201 $487 forward 7 unknown #
vertex $-1 $204 $488 #
ellipse-curve $-1 39.860892625750189 1.7936860885996602 5.0622280695137611 0.64278761758704617 0 0.76604443648966558 0.1915111091224164 0 -0.16069690439676154 1 I I #
face $-1 $-1 $489 $42 $-1 $490 forward single #
loop $-1 $-1 $491 $205 #
plane-surface $-1 0 11.667620143844104 5.5155739959683832 0 1 0 0 0 1 forward_v I I I I #
coedge $-1 $492 $208 $210 $341 forward $128 $-1 #
coedge $-1 $208 $492 $491 $493 forward $128 $-1 #
coedge $-1 $494 $211 $208 $338 forward $206 $-1 #
edge $-1 $344 2.690529132899492 $495 6.8815703849295744 $337 $496 forward 7 unknown #
coedge $-1 $497 $498 $209 $340 forward $489 $-1 #
edge $-1 $499 19.663900701172466 $343 27.188430339652818 $339 $500 forward 7 unknown #
edge $-1 $344 -87.246314889980752 $499 -77.423738966107607 $210 $501 forward 7 unknown #
coedge $-1 $211 $494 $497 $502 reversed $206 $-1 #
vertex $-1 $502 $503 #
vertex $-1 $212 $504 #
straight-curve $-1 43.623157444990383 7.4765788918140252 62.410358999125897 0 0 -1 I I #
coedge $-1 $346 $346 $-1 $505 reversed $215 $-1 #
edge $-1 $506 0 $506 6.2831853071796004 $216 $507 forward 7 unknown #
vertex $-1 $219 $508 #
ellipse-curve $-1 39.860892625750189 9.5720995178290664 5.0622280695137611 0.64278761758704617 0 0.76604443648966558 0.1915111091224164 0 -0.16069690439676154 1 I I #
face $-1 $-1 $235 $33 $-1 $509 reversed single #
loop $-1 $-1 $366 $220 #
plane-surface $-1 0 20.628440198328715 0 0 -1 0 0 0 -1 forward_v I I I I #
coedge $-1 $510 $364 $367 $511 forward $221 $-1 #
coedge $-1 $370 $223 $224 $358 reversed $137 $-1 #
coedge $-1 $364 $510 $223 $356 reversed $221 $-1 #
edge $-1 $371 -8.2191431578508976 $512 8.2191431578508976 $355 $513 forward 7 unknown #
coedge $-1 $225 $224 $510 $514 forward $89 $-1 #
edge $-1 $362 -43.623157444990383 $512 43.623157444990383 $354 $515 forward 7 unknown #
coedge $-1 $367 $366 $225 $360 reversed $351 $-1 #
edge $-1 $516 -43.623157444990383 $361 43.623157444990383 $359 $517 forward 7 unknown #
vertex $-1 $227 $518 #
vertex $-1 $373 $519 #
straight-curve $-1 43.623157444990383 0 -8.2191431578508976 0 -1 0 I I #
coedge $-1 $353 $355 $228 $365 reversed $221 $-1 #
edge $-1 $368 -20.628440198328715 $371 20.628440198328715 $364 $520 forward 7 unknown #
coedge $-1 $359 $229 $234 $374 forward $351 $-1 #
coedge $-1 $229 $359 $353 $511 reversed $351 $-1 #
vertex $-1 $230 $521 #
straight-curve $-1 0 20.628440198328715 8.2191431578508976 -1 0 0 I I #
coedge $-1 $231 $354 $233 $373 reversed $137 $-1 #
vertex $-1 $365 $522 #
straight-curve $-1 0 -20.628440198328715 8.2191431578508976 1 0 0 I I #
edge $-1 $236 -8.2191431578508976 $362 8.2191431578508976 $233 $523 forward 7 unknown #
edge $-1 $237 -8.2191431578508976 $361 8.2191431578508976 $234 $524 forward 7 unknown #
point $-1 43.623157444990383 -20.628440198328715 8.2191431578508976 #
point $-1 43.623157444990383 20.628440198328715 8.2191431578508976 #
face $-1 $-1 $254 $34 $-1 $525 reversed single #
loop $-1 $-1 $250 $239 #
plane-surface $-1 0 -20.628440198328715 0 0 1 0 0 0 1 forward_v I I I I #
coedge $-1 $526 $527 $247 $390 forward $240 $-1 #
coedge $-1 $391 $242 $244 $386 reversed $145 $-1 #
edge $-1 $388 0.55421783610167719 $255 4.961356159866706 $253 $528 forward 7 unknown #
coedge $-1 $244 $243 $529 $530 reversed $93 $-1 #
coedge $-1 $395 $394 $243 $385 forward $378 $-1 #
edge $-1 $531 -43.623157444990383 $387 43.623157444990383 $384 $532 forward 7 unknown #
edge $-1 $533 -43.623157444990383 $388 43.623157444990383 $381 $534 forward 7 unknown #
vertex $-1 $385 $535 #
vertex $-1 $246 $536 #
straight-curve $-1 43.623157444990383 -8.0740150855432056 3.3120048340858688 0 1 0 I I #
edge $-1 $396 -12.554425112785509 $392 -3.593605058300902 $380 $537 forward 7 unknown #
coedge $-1 $248 $381 $526 $538 reversed $145 $-1 #
vertex $-1 $390 $539 #
straight-curve $-1 0 -11.667620143844108 7.7191431578508976 -1 0 0 I I #
coedge $-1 $384 $250 $527 $540 forward $378 $-1 #
coedge $-1 $250 $384 $252 $398 reversed $378 $-1 #
vertex $-1 $540 $541 #
straight-curve $-1 0 -20.628440198328715 7.7191431578508976 -1 0 0 I I #
edge $-1 $256 -7.7191431578508976 $387 -3.3120048340858688 $252 $542 forward 7 unknown #
point $-1 43.623157444990383 -11.667620143844108 7.7191431578508976 #
point $-1 43.623157444990383 -20.628440198328715 7.7191431578508976 #
face $-1 $-1 $543 $35 $-1 $544 reversed single #
loop $-1 $-1 $414 $258 #
plane-surface $-1 -43.623157444990383 0 0 1 0 0 0 0 -1 forward_v I I I I #
coedge $-1 $545 $261 $265 $413 forward $153 $-1 #
coedge $-1 $261 $545 $546 $547 reversed $153 $-1 #
coedge $-1 $410 $268 $261 $407 forward $259 $-1 #
edge $-1 $418 3.5936050583009003 $548 12.554425112785507 $406 $549 forward 7 unknown #
coedge $-1 $550 $551 $262 $409 forward $543 $-1 #
edge $-1 $552 -43.623157444990383 $411 43.623157444990383 $408 $553 forward 7 unknown #
coedge $-1 $263 $406 $550 $554 reversed $259 $-1 #
vertex $-1 $554 $555 #
straight-curve $-1 43.623157444990383 8.0740150855432038 7.7191431578508976 0 -1 0 I I #
edge $-1 $418 -43.623157444990383 $416 43.623157444990383 $265 $556 forward 7 unknown #
coedge $-1 $557 $266 $270 $420 forward $402 $-1 #
coedge $-1 $266 $557 $545 $558 forward $402 $-1 #
vertex $-1 $558 $559 #
straight-curve $-1 -43.623157444990383 11.667620143844104 2.7577869979841916 0 0 1 I I #
vertex $-1 $407 $560 #
straight-curve $-1 43.623157444990383 11.667620143844104 2.7577869979841916 0 0 -1 I I #
edge $-1 $271 3.5936050583009003 $552 12.554425112785507 $414 $561 forward 7 unknown #
point $-1 -43.623157444990383 11.667620143844104 7.7191431578508976 #
point $-1 43.623157444990383 11.667620143844104 7.7191431578508976 #
loop $-1 $-1 $562 $274 #
plane-surface $-1 0 0 8.2191431578508976 0 0 1 1 0 0 forward_v I I I I #
coedge $-1 $426 $277 $285 $438 reversed $161 $-1 #
coedge $-1 $277 $425 $562 $563 reversed $161 $-1 #
coedge $-1 $432 $564 $279 $428 forward $423 $-1 #
edge $-1 $430 5.0455190852524154 $436 9.4382385321170901 $427 $565 forward 7 unknown #
coedge $-1 $285 $280 $564 $566 reversed $275 $-1 #
vertex $-1 $428 $567 #
straight-curve $-1 -43.623157444990383 5.4628154017909019 36.769104171508161 0 0 1 I I #
coedge $-1 $562 $427 $282 $433 forward $423 $-1 #
edge $-1 $436 1.1802065153821495 $434 7.3850112574353552 $432 $568 forward 7 unknown #
vertex $-1 $563 $569 #
straight-curve $-1 -29.902328331144862 11.667620143844104 15.507061310323142 -0.78801074757464917 0 -0.61566148304635926 I I #
vertex $-1 $433 $570 #
straight-curve $-1 -43.623157444990383 5.4628154017909019 4.7871745234293286 -0.78801074757464917 0 -0.61566148304635926 I I #
edge $-1 $571 28.549961013657263 $286 31.981929648078832 $285 $572 forward 7 unknown #
point $-1 -43.623157444990383 11.667620143844104 4.7871745234293286 #
point $-1 -43.623157444990383 5.4628154017909019 4.7871745234293286 #
edge $-1 $573 1 $573 0 $289 $-1 forward 7 unknown #
vertex $-1 $290 $574 #
ellipse-curve $-1 -40.274464009126838 8.5652177728175047 5.0282389777062679 -0.61566148304635926 0 0.78801074757464917 0.78801074757464917 0 0.61566148304635926 1 I I #
point $-1 -40.638786973983393 8.5652177728175047 7.1188203236864709 #
plane-surface $-1 43.623157444990383 0 0 -1 0 0 0 0 1 forward_v I I I I #
coedge $-1 $456 $455 $448 $575 forward $294 $-1 #
coedge $-1 $448 $296 $298 $452 reversed $176 $-1 #
coedge $-1 $296 $447 $446 $575 reversed $176 $-1 #
coedge $-1 $304 $299 $296 $450 forward $305 $-1 #
edge $-1 $453 -60.505046017949297 $576 -54.191215841274996 $449 $577 forward 7 unknown #
coedge $-1 $298 $297 $456 $578 reversed $110 $-1 #
edge $-1 $579 77.423738966107607 $453 87.246314889980752 $447 $580 forward 7 unknown #
vertex $-1 $300 $581 #
straight-curve $-1 43.623157444990383 -2.992363670314873 1.9053129811766141 0 1 0 I I #
coedge $-1 $446 $301 $304 $460 forward $294 $-1 #
coedge $-1 $301 $446 $451 $578 forward $294 $-1 #
vertex $-1 $302 $582 #
straight-curve $-1 16.434727105337565 -8.0802479666447873 8.219143157850894 1 0 0 I I #
straight-curve $-1 -23.211396680704837 -8.0802479666447873 57.98616387255656 -0.76604443648966558 0 0.64278761758704617 I I #
edge $-1 $306 -8.0802479666447873 $576 -3.8892067146147049 $304 $583 forward 7 unknown #
point $-1 43.623157444990383 -8.0802479666447873 8.2191431578508976 #
point $-1 43.623157444990383 -8.0802479666447873 1.9053129811765999 #
edge $-1 $584 1 $584 0 $309 $-1 forward 7 unknown #
vertex $-1 $310 $585 #
ellipse-curve $-1 39.218105008163121 -5.9847273406297461 4.2961836330240679 0.64278761758704617 0 0.76604443648966558 0.1915111091224164 0 -0.16069690439676154 1 I I #
point $-1 40.052403734872584 -5.9847273406297461 4.901531165116972 #
loop $-1 $-1 $321 $313 #
plane-surface $-1 0 0 8.2191431578508976 0 0 1 1 0 0 forward_v I I I I #
coedge $-1 $470 $316 $318 $474 reversed $191 $-1 #
coedge $-1 $316 $469 $586 $587 reversed $191 $-1 #
coedge $-1 $324 $319 $316 $472 forward $314 $-1 #
edge $-1 $475 -60.505046017949297 $588 -54.191215841274996 $471 $589 forward 7 unknown #
coedge $-1 $318 $317 $478 $590 reversed $119 $-1 #
edge $-1 $591 77.423738966107607 $475 87.246314889980752 $469 $592 forward 7 unknown #
vertex $-1 $320 $593 #
straight-curve $-1 43.623157444990383 0.89684304429983008 1.9053129811766141 0 1 0 I I #
coedge $-1 $586 $321 $324 $482 forward $467 $-1 #
coedge $-1 $321 $586 $473 $590 forward $467 $-1 #
vertex $-1 $322 $594 #
straight-curve $-1 16.434727105337565 -0.30183453741538102 8.219143157850894 1 0 0 I I #
straight-curve $-1 -23.211396680704837 -0.30183453741538102 57.98616387255656 -0.76604443648966558 0 0.64278761758704617 I I #
edge $-1 $325 -0.30183453741538102 $588 3.8892067146147014 $324 $595 forward 7 unknown #
point $-1 43.623157444990383 -0.30183453741538102 8.2191431578508976 #
point $-1 43.623157444990383 -0.30183453741538102 1.9053129811765999 #
edge $-1 $596 1 $596 0 $328 $-1 forward 7 unknown #
vertex $-1 $329 $597 #
ellipse-curve $-1 39.218105008163121 1.7936860885996602 4.2961836330240679 0.64278761758704617 0 0.76604443648966558 0.1915111091224164 0 -0.16069690439676154 1 I I #
point $-1 40.052403734872584 1.7936860885996602 4.901531165116972 #
loop $-1 $-1 $339 $332 #
plane-surface $-1 0 0 8.2191431578508976 0 0 1 1 0 0 forward_v I I I I #
coedge $-1 $598 $599 $336 $493 reversed $333 $-1 #
coedge $-1 $336 $335 $498 $600 reversed $128 $-1 #
edge $-1 $601 77.423738966107607 $495 87.246314889980752 $491 $602 forward 7 unknown #
coedge $-1 $342 $337 $599 $603 forward $206 $-1 #
vertex $-1 $338 $604 #
straight-curve $-1 43.623157444990383 4.7860497589145332 1.9053129811766141 0 1 0 I I #
coedge $-1 $605 $339 $342 $502 forward $489 $-1 #
coedge $-1 $339 $605 $492 $600 forward $489 $-1 #
vertex $-1 $340 $606 #
straight-curve $-1 16.434727105337565 7.4765788918140252 8.219143157850894 1 0 0 I I #
straight-curve $-1 -23.211396680704837 7.4765788918140252 57.98616387255656 -0.76604443648966558 0 0.64278761758704617 I I #
edge $-1 $343 7.4765788918140252 $607 11.667620143844108 $342 $608 forward 7 unknown #
point $-1 43.623157444990383 7.4765788918140252 8.2191431578508976 #
point $-1 43.623157444990383 7.4765788918140252 1.9053129811765999 #
edge $-1 $609 1 $609 0 $346 $-1 forward 7 unknown #
vertex $-1 $347 $610 #
ellipse-curve $-1 39.218105008163121 9.5720995178290664 4.2961836330240679 0.64278761758704617 0 0.76604443648966558 0.1915111091224164 0 -0.16069690439676154 1 I I #
point $-1 40.052403734872584 9.5720995178290664 4.901531165116972 #
plane-surface $-1 43.623157444990383 0 0 -1 0 0 0 0 1 forward_v I I I I #
coedge $-1 $355 $353 $357 $514 reversed $221 $-1 #
edge $-1 $368 -8.2191431578508976 $516 8.2191431578508976 $367 $611 forward 7 unknown #
vertex $-1 $514 $612 #
straight-curve $-1 -43.623157444990383 -20.628440198328715 0 0 0 -1 I I #
edge $-1 $512 -20.628440198328715 $516 20.628440198328715 $510 $613 forward 7 unknown #
straight-curve $-1 0 -20.628440198328715 -8.2191431578508976 -1 0 0 I I #
vertex $-1 $360 $614 #
straight-curve $-1 0 20.628440198328715 -8.2191431578508976 1 0 0 I I #
point $-1 43.623157444990383 20.628440198328715 -8.2191431578508976 #
point $-1 43.623157444990383 -20.628440198328715 -8.2191431578508976 #
straight-curve $-1 -43.623157444990383 0 8.2191431578508976 0 -1 0 I I #
point $-1 -43.623157444990383 20.628440198328715 8.2191431578508976 #
point $-1 -43.623157444990383 -20.628440198328715 8.2191431578508976 #
straight-curve $-1 43.623157444990383 -20.628440198328715 0 0 0 -1 I I #
straight-curve $-1 43.623157444990383 20.628440198328715 0 0 0 -1 I I #
plane-surface $-1 43.623157444990383 0 0 -1 0 0 0 0 1 forward_v I I I I #
coedge $-1 $529 $380 $391 $538 forward $240 $-1 #
coedge $-1 $380 $529 $394 $540 reversed $240 $-1 #
straight-curve $-1 43.623157444990383 -11.667620143844108 2.7577869979841916 0 0 1 I I #
coedge $-1 $527 $526 $383 $530 forward $240 $-1 #
edge $-1 $533 3.593605058300902 $531 12.554425112785509 $529 $615 forward 7 unknown #
vertex $-1 $385 $616 #
straight-curve $-1 0 -20.628440198328715 3.3120048340858688 1 0 0 I I #
vertex $-1 $530 $617 #
straight-curve $-1 0 -11.667620143844108 3.3120048340858688 1 0 0 I I #
point $-1 43.623157444990383 -20.628440198328715 3.3120048340858688 #
point $-1 43.623157444990383 -11.667620143844108 3.3120048340858688 #
straight-curve $-1 -43.623157444990383 -8.0740150855432056 7.7191431578508976 0 1 0 I I #
edge $-1 $392 -4.961356159866706 $533 -0.55421783610167719 $526 $618 forward 7 unknown #
point $-1 -43.623157444990383 -11.667620143844108 7.7191431578508976 #
edge $-1 $396 -7.7191431578508976 $531 -3.3120048340858688 $527 $619 forward 7 unknown #
point $-1 -43.623157444990383 -20.628440198328715 7.7191431578508976 #
straight-curve $-1 43.623157444990383 -20.628440198328715 0 0 0 -1 I I #
loop $-1 $-1 $408 $401 #
plane-surface $-1 0 20.628440198328715 0 0 -1 0 0 0 -1 forward_v I I I I #
coedge $-1 $405 $404 $415 $558 reversed $153 $-1 #
coedge $-1 $551 $550 $405 $547 forward $543 $-1 #
edge $-1 $548 -43.623157444990383 $620 43.623157444990383 $546 $621 forward 7 unknown #
vertex $-1 $547 $622 #
straight-curve $-1 43.623157444990383 8.0740150855432038 3.3120048340858688 0 1 0 I I #
coedge $-1 $546 $408 $410 $554 forward $543 $-1 #
coedge $-1 $408 $546 $557 $623 reversed $543 $-1 #
vertex $-1 $623 $624 #
straight-curve $-1 0 20.628440198328715 7.7191431578508976 1 0 0 I I #
edge $-1 $411 -7.7191431578508976 $548 -3.3120048340858688 $410 $625 forward 7 unknown #
point $-1 43.623157444990383 20.628440198328711 7.7191431578508976 #
straight-curve $-1 0 11.667620143844104 3.3120048340858688 -1 0 0 I I #
coedge $-1 $415 $414 $551 $623 forward $402 $-1 #
edge $-1 $620 -12.554425112785507 $416 -3.5936050583009003 $415 $626 forward 7 unknown #
point $-1 -43.623157444990383 11.667620143844104 3.3120048340858688 #
point $-1 43.623157444990383 11.667620143844104 3.3120048340858688 #
straight-curve $-1 -43.623157444990383 8.0740150855432038 7.7191431578508976 0 1 0 I I #
coedge $-1 $564 $432 $426 $563 forward $423 $-1 #
edge $-1 $434 -9.4382385321170901 $571 -5.0455190852524154 $562 $627 forward 7 unknown #
coedge $-1 $427 $562 $429 $566 forward $423 $-1 #
straight-curve $-1 -48.668676530242799 5.4628154017909019 8.2191431578509011 1 0 0 I I #
edge $-1 $571 -11.667620143844108 $430 -5.4628154017909019 $429 $628 forward 7 unknown #
point $-1 -43.623157444990383 5.4628154017909019 8.2191431578508976 #
straight-curve $-1 -39.230437998125709 4.2826088864087524 8.2191431578508976 0 1 0 I I #
point $-1 -39.230437998125709 11.667620143844108 8.2191431578508976 #
point $-1 -39.230437998125709 5.4628154017909019 8.2191431578508976 #
vertex $-1 $566 $629 #
straight-curve $-1 -43.623157444990383 11.667620143844108 36.769104171508161 0 0 -1 I I #
vertex $-1 $441 $630 #
point $-1 -39.486453261552192 8.5652177728175047 5.6439004607526275 #
edge $-1 $576 -27.188430339652818 $579 -19.663900701172466 $446 $631 forward 7 unknown #
vertex $-1 $450 $632 #
straight-curve $-1 43.623157444990383 -3.8892067146147049 62.410358999125897 0 0 1 I I #
edge $-1 $579 0.89684304429983186 $457 5.0878842963299142 $456 $633 forward 7 unknown #
vertex $-1 $578 $634 #
straight-curve $-1 -23.211396680704837 -3.8892067146147049 57.98616387255656 0.76604443648966558 0 -0.64278761758704617 I I #
point $-1 43.623157444990383 -3.8892067146147049 1.9053129811765999 #
point $-1 36.098627806510031 -8.0802479666447873 8.2191431578509011 #
straight-curve $-1 43.623157444990383 0 8.2191431578508976 0 1 0 I I #
vertex $-1 $463 $635 #
point $-1 39.409616117285537 -5.9847273406297461 4.1354867286273063 #
coedge $-1 $478 $477 $470 $587 forward $467 $-1 #
edge $-1 $588 -27.188430339652818 $591 -19.663900701172466 $586 $636 forward 7 unknown #
vertex $-1 $587 $637 #
straight-curve $-1 43.623157444990383 3.8892067146147014 62.410358999125897 0 0 1 I I #
edge $-1 $591 -2.9923636703148713 $479 1.1986775817152111 $478 $638 forward 7 unknown #
vertex $-1 $590 $639 #
straight-curve $-1 -23.211396680704837 3.8892067146147014 57.98616387255656 0.76604443648966558 0 -0.64278761758704617 I I #
point $-1 43.623157444990383 3.8892067146147014 1.9053129811765999 #
point $-1 36.098627806510031 -0.30183453741538102 8.2191431578509011 #
straight-curve $-1 43.623157444990383 0 8.2191431578508976 0 1 0 I I #
vertex $-1 $485 $640 #
point $-1 39.409616117285537 1.7936860885996602 4.1354867286273063 #
coedge $-1 $599 $491 $605 $641 reversed $333 $-1 #
coedge $-1 $491 $598 $494 $603 reversed $333 $-1 #
edge $-1 $601 -6.8815703849295744 $499 -2.690529132899492 $498 $642 forward 7 unknown #
vertex $-1 $641 $643 #
straight-curve $-1 -23.211396680704837 11.667620143844108 57.98616387255656 0.76604443648966558 0 -0.64278761758704617 I I #
edge $-1 $495 -60.505046017949297 $607 -54.191215841274996 $494 $644 forward 7 unknown #
point $-1 43.623157444990383 11.667620143844108 1.9053129811765999 #
coedge $-1 $498 $497 $598 $641 forward $489 $-1 #
point $-1 36.098627806510031 7.4765788918140252 8.2191431578509011 #
vertex $-1 $603 $645 #
straight-curve $-1 43.623157444990383 0 8.2191431578508976 0 1 0 I I #
vertex $-1 $505 $646 #
point $-1 39.409616117285537 9.5720995178290664 4.1354867286273063 #
straight-curve $-1 -43.623157444990383 20.628440198328715 0 0 0 -1 I I #
point $-1 -43.623157444990383 -20.628440198328715 -8.2191431578508976 #
straight-curve $-1 -43.623157444990383 0 -8.2191431578508976 0 1 0 I I #
point $-1 -43.623157444990383 20.628440198328715 -8.2191431578508976 #
straight-curve $-1 -43.623157444990383 -8.0740150855432056 3.3120048340858688 0 -1 0 I I #
point $-1 -43.623157444990383 -20.628440198328715 3.3120048340858688 #
point $-1 -43.623157444990383 -11.667620143844108 3.3120048340858688 #
straight-curve $-1 -43.623157444990383 -11.667620143844108 2.7577869979841916 0 0 -1 I I #
straight-curve $-1 -43.623157444990383 -20.628440198328715 0 0 0 -1 I I #
vertex $-1 $547 $647 #
straight-curve $-1 0 20.628440198328715 3.3120048340858688 -1 0 0 I I #
point $-1 43.623157444990383 20.628440198328711 3.3120048340858688 #
edge $-1 $552 -7.7191431578508976 $620 -3.3120048340858688 $551 $648 forward 7 unknown #
point $-1 -43.623157444990383 20.628440198328711 7.7191431578508976 #
straight-curve $-1 43.623157444990383 20.628440198328715 0 0 0 -1 I I #
straight-curve $-1 -43.623157444990383 8.0740150855432038 3.3120048340858688 0 -1 0 I I #
straight-curve $-1 -48.668676530242799 11.667620143844108 8.2191431578509011 -1 0 0 I I #
straight-curve $-1 -43.623157444990383 0 8.2191431578508976 0 -1 0 I I #
point $-1 -43.623157444990383 11.667620143844108 8.2191431578508976 #
point $-1 -39.658802526080486 8.5652177728175047 4.2402282301316188 #
straight-curve $-1 16.434727105337565 -3.8892067146147049 8.219143157850894 -1 0 0 I I #
point $-1 43.623157444990383 -3.8892067146147049 8.2191431578508976 #
straight-curve $-1 36.098627806510031 -2.992363670314873 8.2191431578509011 0 -1 0 I I #
point $-1 36.098627806510031 -3.8892067146147049 8.2191431578509011 #
point $-1 39.057408103766363 -5.9847273406297461 4.1046725239016517 #
straight-curve $-1 16.434727105337565 3.8892067146147014 8.219143157850894 -1 0 0 I I #
point $-1 43.623157444990383 3.8892067146147014 8.2191431578508976 #
straight-curve $-1 36.098627806510031 0.89684304429983008 8.2191431578509011 0 -1 0 I I #
point $-1 36.098627806510031 3.8892067146147014 8.2191431578509011 #
point $-1 39.057408103766363 1.7936860885996602 4.1046725239016517 #
edge $-1 $607 -27.188430339652818 $601 -19.663900701172466 $605 $649 forward 7 unknown #
straight-curve $-1 36.098627806510031 4.7860497589145332 8.2191431578509011 0 -1 0 I I #
point $-1 36.098627806510031 11.667620143844108 8.2191431578509011 #
straight-curve $-1 43.623157444990383 11.667620143844108 62.410358999125897 0 0 1 I I #
point $-1 43.623157444990383 11.667620143844108 8.2191431578508976 #
point $-1 39.057408103766363 9.5720995178290664 4.1046725239016517 #
point $-1 -43.623157444990383 20.628440198328711 3.3120048340858688 #
straight-curve $-1 -43.623157444990383 20.628440198328715 0 0 0 -1 I I #
straight-curve $-1 16.434727105337565 11.667620143844108 8.219143157850894 -1 0 0 I I #
End-of-ACIS-data 