500 0 8 0           
7 Unknown 11 ACIS 5.0 NT 24 Fri Mar 26 02:35:58 1999 
-1 9.9999999999999995e-007 1e-010 
body $-1 $8 $-1 $9 #
body $-1 $10 $-1 $11 #
body $-1 $12 $-1 $13 #
body $-1 $14 $-1 $15 #
body $-1 $16 $-1 $17 #
body $-1 $18 $-1 $19 #
body $-1 $20 $-1 $21 #
body $-1 $22 $-1 $23 #
lump $-1 $-1 $24 $0 #
transform $-1 1 0 0 0 1 0 0 0 1 69.462569048127691 38.295038448036365 16.973022061128191 1 rotate no_reflect no_shear #
lump $-1 $-1 $25 $1 #
transform $-1 1 0 0 0 1 0 0 0 1 69.462569048127691 38.295038448036365 16.973022061128191 1 rotate no_reflect no_shear #
lump $-1 $-1 $26 $2 #
transform $-1 1 0 0 0 1 0 0 0 1 69.462569048127691 38.295038448036365 16.973022061128191 1 rotate no_reflect no_shear #
lump $-1 $-1 $27 $3 #
transform $-1 1 0 0 0 1 0 0 0 1 69.462569048127691 38.295038448036365 16.973022061128191 1 rotate no_reflect no_shear #
lump $-1 $-1 $28 $4 #
transform $-1 1 0 0 0 1 0 0 0 1 69.462569048127691 38.295038448036365 16.973022061128191 1 rotate no_reflect no_shear #
lump $-1 $-1 $29 $5 #
transform $-1 1 0 0 0 1 0 0 0 1 69.462569048127691 38.295038448036365 16.973022061128191 1 rotate no_reflect no_shear #
lump $-1 $-1 $30 $6 #
transform $-1 1 0 0 0 1 0 0 0 1 69.462569048127691 38.295038448036365 16.973022061128191 1 rotate no_reflect no_shear #
lump $-1 $-1 $31 $7 #
transform $-1 1 0 0 0 1 0 0 0 1 69.462569048127691 38.295038448036365 16.973022061128191 1 rotate no_reflect no_shear #
shell $-1 $-1 $-1 $32 $-1 $8 #
shell $-1 $-1 $-1 $33 $-1 $10 #
shell $-1 $-1 $-1 $34 $-1 $12 #
shell $-1 $-1 $-1 $35 $-1 $14 #
shell $-1 $-1 $-1 $36 $-1 $16 #
shell $-1 $-1 $-1 $37 $-1 $18 #
shell $-1 $-1 $-1 $38 $-1 $20 #
shell $-1 $-1 $-1 $39 $-1 $22 #
face $-1 $40 $41 $24 $-1 $42 forward single #
face $-1 $43 $44 $25 $-1 $45 forward single #
face $-1 $46 $47 $26 $-1 $48 reversed single #
face $-1 $49 $50 $27 $-1 $51 forward single #
face $-1 $52 $53 $28 $-1 $54 reversed single #
face $-1 $55 $56 $29 $-1 $57 forward single #
face $-1 $58 $59 $30 $-1 $60 forward single #
face $-1 $61 $62 $31 $-1 $63 forward single #
face $-1 $64 $65 $24 $-1 $66 reversed single #
loop $-1 $-1 $67 $32 #
plane-surface $-1 0 0 16.973022061128191 0 0 1 1 0 0 forward_v I I I I #
face $-1 $68 $69 $25 $-1 $70 reversed single #
loop $-1 $-1 $71 $33 #
plane-surface $-1 -59.582573268938901 0 -2.1966551780057557 0 0 1 1 0 0 forward_v I I I I #
face $-1 $72 $73 $26 $-1 $74 reversed single #
loop $-1 $-1 $75 $34 #
plane-surface $-1 -49.702577489750112 -150.68783725072484 92.418400478183869 1 0 0 0 0.80901700255871778 -0.5877852410284794 forward_v I I I I #
face $-1 $76 $77 $27 $-1 $78 forward single #
loop $-1 $79 $80 $35 #
cone-surface $-1 -33.466885423147289 -34.567446879381166 12.798132816499399 0 0.80901700255871778 -0.5877852410284794 1 0 0 1 I I 0 1 1 forward I I I I #
face $-1 $81 $82 $28 $-1 $83 reversed single #
loop $-1 $-1 $84 $36 #
plane-surface $-1 38.353140993467058 52.484939738543005 160.53155093701474 1 0 0 0 -0.55919291073839883 -0.82903756765294845 forward_v I I I I #
face $-1 $85 $86 $29 $-1 $87 forward single #
loop $-1 $88 $89 $37 #
cone-surface $-1 44.140289578498496 27.076933800130632 8.9935143596130196 0 -0.55919291073839883 -0.82903756765294845 1.5 0 0 1 I I 0 1 1.5 forward I I I I #
face $-1 $90 $91 $30 $-1 $92 forward single #
loop $-1 $93 $94 $38 #
cone-surface $-1 52.821012456045651 27.076933800130632 8.9935143596130196 0 -0.55919291073839883 -0.82903756765294845 1.5 0 0 1 I I 0 1 1.5 forward I I I I #
face $-1 $95 $96 $31 $-1 $97 forward single #
loop $-1 $98 $99 $39 #
cone-surface $-1 61.501735333592805 27.076933800130632 8.9935143596130196 0 -0.55919291073839883 -0.82903756765294845 1.5 0 0 1 I I 0 1 1.5 forward I I I I #
face $-1 $100 $101 $24 $-1 $102 reversed single #
loop $-1 $-1 $103 $40 #
plane-surface $-1 0 0 -16.973022061128191 0 0 1 1 0 0 forward_v I I I I #
coedge $-1 $104 $105 $106 $107 forward $41 $-1 #
face $-1 $108 $109 $25 $-1 $110 reversed single #
loop $-1 $-1 $111 $43 #
plane-surface $-1 -59.582573268938901 0 -10.444838395516321 0 0 1 1 0 0 forward_v I I I I #
coedge $-1 $112 $113 $114 $115 forward $44 $-1 #
face $-1 $116 $117 $26 $-1 $118 reversed single #
loop $-1 $-1 $119 $46 #
plane-surface $-1 -33.466885423147289 -38.295038448036379 10.760254697361617 0 -0.80901700255871778 0.5877852410284794 1 0 0 forward_v I I I I #
coedge $-1 $120 $121 $122 $123 reversed $47 $-1 #
face $-1 $-1 $124 $27 $-1 $125 forward single #
loop $-1 $126 $127 $49 #
cone-surface $-1 -33.466885423147289 -32.692266596556003 11.435734633239655 0 0.80901700255871778 -0.5877852410284794 0.5 0 0 1 I I -0.70710678118654746 0.70710678118654746 0.5 forward I I I I #
loop $-1 $-1 $128 $35 #
coedge $-1 $80 $80 $129 $130 reversed $50 $-1 #
face $-1 $131 $132 $28 $-1 $133 reversed single #
loop $-1 $-1 $134 $52 #
plane-surface $-1 52.821012456045636 -25.201012608236056 45.357392363845221 0 0.55919291073839883 0.82903756765294845 1 0 0 forward_v I I I I #
coedge $-1 $135 $136 $137 $138 reversed $53 $-1 #
face $-1 $-1 $139 $29 $-1 $140 forward single #
loop $-1 $141 $142 $55 #
cone-surface $-1 44.140289578498496 26.146680631871405 7.614357347595984 0 -0.55919291073839883 -0.82903756765294845 0.75 0 0 1 I I -0.70710678118654757 0.70710678118654757 0.75 forward I I I I #
loop $-1 $-1 $143 $37 #
coedge $-1 $89 $89 $144 $145 reversed $56 $-1 #
face $-1 $-1 $146 $30 $-1 $147 forward single #
loop $-1 $148 $149 $58 #
cone-surface $-1 52.821012456045651 26.146680631871405 7.614357347595984 0 -0.55919291073839883 -0.82903756765294845 0.75 0 0 1 I I -0.70710678118654757 0.70710678118654757 0.75 forward I I I I #
loop $-1 $-1 $150 $38 #
coedge $-1 $94 $94 $151 $152 reversed $59 $-1 #
face $-1 $-1 $153 $31 $-1 $154 forward single #
loop $-1 $155 $156 $61 #
cone-surface $-1 61.501735333592805 26.146680631871405 7.614357347595984 0 -0.55919291073839883 -0.82903756765294845 0.75 0 0 1 I I -0.70710678118654757 0.70710678118654757 0.75 forward I I I I #
loop $-1 $-1 $157 $39 #
coedge $-1 $99 $99 $158 $159 reversed $62 $-1 #
face $-1 $160 $161 $24 $-1 $162 reversed single #
loop $-1 $-1 $163 $64 #
plane-surface $-1 0 -38.295038448036365 0 0 1 0 0 0 1 forward_v I I I I #
coedge $-1 $164 $165 $166 $167 forward $65 $-1 #
coedge $-1 $168 $67 $169 $170 forward $41 $-1 #
coedge $-1 $67 $168 $171 $172 forward $41 $-1 #
coedge $-1 $173 $174 $67 $107 reversed $175 $-1 #
edge $-1 $176 -38.295038448036365 $177 38.295038448036365 $106 $178 forward 7 unknown #
face $-1 $179 $180 $25 $-1 $181 reversed single #
loop $-1 $-1 $182 $68 #
plane-surface $-1 -49.702577489750112 0 -6.3207467867610383 -1 0 0 0 0 1 forward_v I I I I #
coedge $-1 $183 $184 $185 $186 forward $69 $-1 #
coedge $-1 $187 $71 $188 $189 reversed $44 $-1 #
coedge $-1 $71 $187 $190 $191 reversed $44 $-1 #
coedge $-1 $182 $192 $71 $115 reversed $109 $-1 #
edge $-1 $193 -38.295038448036365 $194 38.295038448036365 $114 $195 forward 7 unknown #
face $-1 $196 $197 $26 $-1 $198 forward single #
loop $-1 $-1 $199 $72 #
plane-surface $-1 -17.231193356544466 -150.68783725072484 92.418400478183869 -1 0 0 0 -0.80901700255871778 0.5877852410284794 forward_v I I I I #
coedge $-1 $200 $201 $202 $203 reversed $73 $-1 #
coedge $-1 $121 $75 $204 $205 reversed $47 $-1 #
coedge $-1 $75 $120 $200 $206 reversed $47 $-1 #
coedge $-1 $202 $207 $75 $123 forward $208 $-1 #
edge $-1 $209 29.236178177963744 $210 35.448945541730296 $122 $211 forward 7 unknown #
loop $-1 $-1 $129 $76 #
plane-surface $-1 -33.466885423147289 -38.295038448036379 10.760254697361617 0 -0.80901700255871778 0.5877852410284794 1 0 0 forward_v I I I I #
loop $-1 $-1 $212 $49 #
coedge $-1 $127 $127 $128 $213 reversed $77 $-1 #
coedge $-1 $128 $128 $127 $213 forward $79 $-1 #
coedge $-1 $129 $129 $80 $130 forward $124 $-1 #
edge $-1 $214 -3.0090490964334845e-015 $214 6.2831853071795978 $129 $215 forward 7 unknown #
face $-1 $216 $217 $28 $-1 $218 reversed single #
loop $-1 $-1 $219 $81 #
plane-surface $-1 67.288883918624208 52.484939738543005 160.53155093701474 -1 0 0 0 0.55919291073839883 0.82903756765294845 forward_v I I I I #
coedge $-1 $220 $221 $222 $223 reversed $82 $-1 #
coedge $-1 $136 $84 $224 $225 reversed $53 $-1 #
coedge $-1 $84 $135 $220 $226 reversed $53 $-1 #
coedge $-1 $222 $227 $84 $138 forward $228 $-1 #
edge $-1 $229 -12.052568578764863 $230 9.3619237466357035 $137 $231 forward 7 unknown #
loop $-1 $-1 $144 $85 #
plane-surface $-1 52.821012456045636 -25.201012608236056 45.357392363845221 0 0.55919291073839883 0.82903756765294845 1 0 0 forward_v I I I I #
loop $-1 $-1 $232 $55 #
coedge $-1 $142 $142 $143 $233 reversed $86 $-1 #
coedge $-1 $143 $143 $142 $233 forward $88 $-1 #
coedge $-1 $144 $144 $89 $145 forward $139 $-1 #
edge $-1 $234 6.9290695525479981e-017 $234 6.2831853071796004 $144 $235 forward 7 unknown #
loop $-1 $-1 $151 $90 #
plane-surface $-1 52.821012456045636 -25.201012608236056 45.357392363845221 0 0.55919291073839883 0.82903756765294845 1 0 0 forward_v I I I I #
loop $-1 $-1 $236 $58 #
coedge $-1 $149 $149 $150 $237 reversed $91 $-1 #
coedge $-1 $150 $150 $149 $237 forward $93 $-1 #
coedge $-1 $151 $151 $94 $152 forward $146 $-1 #
edge $-1 $238 6.9290695525479981e-017 $238 6.2831853071796004 $151 $239 forward 7 unknown #
loop $-1 $-1 $158 $95 #
plane-surface $-1 52.821012456045636 -25.201012608236056 45.357392363845221 0 0.55919291073839883 0.82903756765294845 1 0 0 forward_v I I I I #
loop $-1 $-1 $240 $61 #
coedge $-1 $156 $156 $157 $241 reversed $96 $-1 #
coedge $-1 $157 $157 $156 $241 forward $98 $-1 #
coedge $-1 $158 $158 $99 $159 forward $153 $-1 #
edge $-1 $242 6.9290695525479981e-017 $242 6.2831853071796004 $158 $243 forward 7 unknown #
face $-1 $244 $245 $24 $-1 $246 reversed single #
loop $-1 $-1 $247 $100 #
plane-surface $-1 -69.462569048127691 0 0 1 0 0 0 0 -1 forward_v I I I I #
coedge $-1 $248 $171 $249 $250 forward $101 $-1 #
coedge $-1 $251 $103 $248 $252 forward $65 $-1 #
coedge $-1 $103 $251 $253 $254 forward $65 $-1 #
coedge $-1 $174 $173 $103 $167 reversed $175 $-1 #
edge $-1 $255 -38.295038448036365 $256 38.295038448036365 $166 $257 forward 7 unknown #
coedge $-1 $105 $104 $258 $259 forward $41 $-1 #
coedge $-1 $260 $261 $104 $170 reversed $245 $-1 #
edge $-1 $177 -69.462569048127691 $262 69.462569048127691 $169 $263 forward 7 unknown #
coedge $-1 $163 $264 $105 $172 reversed $101 $-1 #
edge $-1 $265 -69.462569048127691 $176 69.462569048127691 $171 $266 forward 7 unknown #
coedge $-1 $166 $106 $264 $267 forward $175 $-1 #
coedge $-1 $106 $166 $260 $268 reversed $175 $-1 #
loop $-1 $-1 $173 $244 #
vertex $-1 $107 $269 #
vertex $-1 $107 $270 #
straight-curve $-1 69.462569048127691 0 16.973022061128191 0 1 0 I I #
face $-1 $271 $272 $25 $-1 $273 reversed single #
loop $-1 $-1 $274 $108 #
plane-surface $-1 0 -38.295038448036365 0 0 1 0 0 0 1 forward_v I I I I #
coedge $-1 $185 $114 $275 $276 reversed $109 $-1 #
coedge $-1 $277 $111 $274 $278 reversed $69 $-1 #
coedge $-1 $111 $277 $279 $280 reversed $69 $-1 #
coedge $-1 $192 $182 $111 $186 reversed $109 $-1 #
edge $-1 $281 -38.295038448036365 $282 38.295038448036365 $185 $283 forward 7 unknown #
coedge $-1 $113 $112 $284 $285 reversed $44 $-1 #
coedge $-1 $286 $287 $112 $189 forward $288 $-1 #
edge $-1 $289 -39.67128241365824 $194 -19.911290855280662 $188 $290 forward 7 unknown #
coedge $-1 $291 $275 $113 $191 forward $180 $-1 #
edge $-1 $193 19.911290855280662 $292 39.67128241365824 $190 $293 forward 7 unknown #
coedge $-1 $114 $185 $286 $294 reversed $109 $-1 #
vertex $-1 $191 $295 #
vertex $-1 $189 $296 #
straight-curve $-1 -49.702577489750112 0 -2.1966551780057557 0 1 0 I I #
face $-1 $-1 $208 $26 $-1 $297 reversed single #
loop $-1 $-1 $298 $116 #
plane-surface $-1 0 0 16.973022061128191 0 0 1 1 0 0 forward_v I I I I #
coedge $-1 $299 $300 $301 $302 reversed $117 $-1 #
coedge $-1 $303 $119 $121 $206 forward $73 $-1 #
coedge $-1 $119 $303 $299 $304 forward $73 $-1 #
coedge $-1 $301 $122 $119 $203 forward $208 $-1 #
edge $-1 $210 -32.969134778176468 $305 -0.49775064497082155 $202 $306 forward 7 unknown #
coedge $-1 $307 $308 $120 $205 forward $197 $-1 #
edge $-1 $309 -41.562719751544833 $209 -37.048880177326055 $204 $310 forward 7 unknown #
edge $-1 $210 2.4161062406544664e-014 $309 7.6794027123251416 $121 $311 forward 7 unknown #
coedge $-1 $122 $301 $307 $312 reversed $208 $-1 #
loop $-1 $-1 $301 $196 #
vertex $-1 $312 $313 #
vertex $-1 $123 $314 #
straight-curve $-1 -49.702577489750112 -38.295038448036365 46.209200239091935 0 0 -1 I I #
coedge $-1 $212 $212 $-1 $315 reversed $126 $-1 #
edge $-1 $316 0 $316 6.2831853071796004 $127 $317 forward 7 unknown #
vertex $-1 $130 $318 #
ellipse-curve $-1 -33.466885423147289 -36.038118660926976 13.866638379244909 0 -0.80901700255871778 0.5877852410284794 1 0 0 1 I I #
face $-1 $-1 $228 $28 $-1 $319 forward single #
loop $-1 $-1 $320 $131 #
plane-surface $-1 0 38.295038448036365 0 0 -1 0 0 0 -1 forward_v I I I I #
coedge $-1 $321 $322 $323 $324 reversed $132 $-1 #
coedge $-1 $325 $134 $136 $226 forward $82 $-1 #
coedge $-1 $134 $325 $321 $326 forward $82 $-1 #
coedge $-1 $323 $137 $134 $223 forward $228 $-1 #
edge $-1 $230 11.94263476544424 $327 40.87837769060139 $222 $328 forward 7 unknown #
coedge $-1 $329 $330 $135 $225 forward $217 $-1 #
edge $-1 $331 -77.73701113785485 $229 -63.29275340737918 $224 $332 forward 7 unknown #
edge $-1 $230 50.759531742339604 $331 76.590076896072731 $136 $333 forward 7 unknown #
coedge $-1 $137 $323 $329 $334 forward $228 $-1 #
loop $-1 $-1 $323 $216 #
vertex $-1 $225 $335 #
vertex $-1 $138 $336 #
straight-curve $-1 38.353140993467058 26.242469869271503 16.973022061128191 0 -1 0 I I #
coedge $-1 $232 $232 $-1 $337 reversed $141 $-1 #
edge $-1 $338 0 $338 6.2831853071796004 $142 $339 forward 7 unknown #
vertex $-1 $145 $340 #
ellipse-curve $-1 44.140289578498496 27.587792285336072 9.7508931958903613 0 0.55919291073839883 0.82903756765294845 1.5 0 0 1 I I #
coedge $-1 $236 $236 $-1 $341 reversed $148 $-1 #
edge $-1 $342 0 $342 6.2831853071796004 $149 $343 forward 7 unknown #
vertex $-1 $152 $344 #
ellipse-curve $-1 52.821012456045651 27.587792285336072 9.7508931958903613 0 0.55919291073839883 0.82903756765294845 1.5 0 0 1 I I #
coedge $-1 $240 $240 $-1 $345 reversed $155 $-1 #
edge $-1 $346 0 $346 6.2831853071796004 $156 $347 forward 7 unknown #
vertex $-1 $159 $348 #
ellipse-curve $-1 61.501735333592805 27.587792285336072 9.7508931958903613 0 0.55919291073839883 0.82903756765294845 1.5 0 0 1 I I #
face $-1 $-1 $175 $24 $-1 $349 reversed single #
loop $-1 $-1 $260 $160 #
plane-surface $-1 0 38.295038448036365 0 0 -1 0 0 0 -1 forward_v I I I I #
coedge $-1 $350 $258 $261 $351 forward $161 $-1 #
coedge $-1 $264 $163 $164 $252 reversed $101 $-1 #
coedge $-1 $258 $350 $163 $250 reversed $161 $-1 #
edge $-1 $265 -16.973022061128191 $352 16.973022061128191 $249 $353 forward 7 unknown #
coedge $-1 $165 $164 $350 $354 forward $65 $-1 #
edge $-1 $256 -69.462569048127691 $352 69.462569048127691 $248 $355 forward 7 unknown #
coedge $-1 $261 $260 $165 $254 reversed $245 $-1 #
edge $-1 $356 -69.462569048127691 $255 69.462569048127691 $253 $357 forward 7 unknown #
vertex $-1 $167 $358 #
vertex $-1 $267 $359 #
straight-curve $-1 69.462569048127691 0 -16.973022061128191 0 -1 0 I I #
coedge $-1 $247 $249 $168 $259 reversed $161 $-1 #
edge $-1 $262 -38.295038448036365 $265 38.295038448036365 $258 $360 forward 7 unknown #
coedge $-1 $253 $169 $174 $268 forward $245 $-1 #
coedge $-1 $169 $253 $247 $351 reversed $245 $-1 #
vertex $-1 $170 $361 #
straight-curve $-1 0 38.295038448036365 16.973022061128191 -1 0 0 I I #
coedge $-1 $171 $248 $173 $267 reversed $101 $-1 #
vertex $-1 $259 $362 #
straight-curve $-1 0 -38.295038448036365 16.973022061128191 1 0 0 I I #
edge $-1 $176 -16.973022061128191 $256 16.973022061128191 $173 $363 forward 7 unknown #
edge $-1 $177 -16.973022061128191 $255 16.973022061128191 $174 $364 forward 7 unknown #
point $-1 69.462569048127691 -38.295038448036365 16.973022061128191 #
point $-1 69.462569048127691 38.295038448036365 16.973022061128191 #
face $-1 $-1 $288 $25 $-1 $365 reversed single #
loop $-1 $-1 $366 $179 #
plane-surface $-1 -69.462569048127691 0 0 1 0 0 0 0 -1 forward_v I I I I #
coedge $-1 $275 $291 $183 $278 forward $180 $-1 #
coedge $-1 $190 $274 $182 $276 forward $180 $-1 #
edge $-1 $282 -7.2844650021358017 $193 0.96371821537476343 $275 $367 forward 7 unknown #
coedge $-1 $184 $183 $366 $368 reversed $69 $-1 #
edge $-1 $369 -39.67128241365824 $282 -19.911290855280662 $274 $370 forward 7 unknown #
coedge $-1 $287 $286 $184 $280 forward $288 $-1 #
edge $-1 $281 19.911290855280662 $371 39.67128241365824 $279 $372 forward 7 unknown #
vertex $-1 $280 $373 #
vertex $-1 $278 $374 #
straight-curve $-1 -49.702577489750112 0 -10.444838395516321 0 -1 0 I I #
coedge $-1 $375 $376 $187 $285 forward $272 $-1 #
edge $-1 $292 -38.295038448036365 $289 38.295038448036365 $284 $377 forward 7 unknown #
coedge $-1 $279 $188 $192 $294 forward $288 $-1 #
coedge $-1 $188 $279 $375 $378 reversed $288 $-1 #
loop $-1 $-1 $279 $271 #
vertex $-1 $378 $379 #
straight-curve $-1 -29.791286634469451 38.295038448036365 -2.1966551780057557 1 0 0 I I #
coedge $-1 $274 $190 $376 $380 forward $180 $-1 #
vertex $-1 $380 $381 #
straight-curve $-1 -29.791286634469451 -38.295038448036365 -2.1966551780057557 -1 0 0 I I #
edge $-1 $194 -0.96371821537476343 $281 7.2844650021358017 $286 $382 forward 7 unknown #
point $-1 -49.702577489750112 -38.295038448036365 -2.1966551780057557 #
point $-1 -49.702577489750112 38.295038448036365 -2.1966551780057557 #
plane-surface $-1 0 -38.295038448036365 0 0 1 0 0 0 1 forward_v I I I I #
coedge $-1 $308 $307 $300 $383 forward $197 $-1 #
coedge $-1 $300 $199 $201 $304 reversed $117 $-1 #
coedge $-1 $199 $299 $298 $383 reversed $117 $-1 #
coedge $-1 $207 $202 $199 $302 forward $208 $-1 #
edge $-1 $305 -35.448945541730296 $384 -29.236178177963744 $301 $385 forward 7 unknown #
coedge $-1 $201 $200 $308 $386 reversed $73 $-1 #
edge $-1 $387 -7.6794027123251416 $305 -2.4161062406544664e-014 $299 $388 forward 7 unknown #
vertex $-1 $203 $389 #
straight-curve $-1 -16.733442711573645 -38.295038448036365 10.760254697361638 1 0 0 I I #
coedge $-1 $298 $204 $207 $312 forward $197 $-1 #
coedge $-1 $204 $298 $303 $386 forward $197 $-1 #
vertex $-1 $205 $390 #
straight-curve $-1 -49.702577489750112 -75.34391862536242 16.973022061128191 0 -1 0 I I #
straight-curve $-1 -49.702577489750112 -38.295038448036379 10.760254697361617 0 0.5877852410284794 0.80901700255871778 I I #
edge $-1 $209 -49.702577489750112 $384 -17.231193356544466 $207 $391 forward 7 unknown #
point $-1 -49.702577489750112 -38.295038448036365 16.973022061128191 #
point $-1 -49.702577489750112 -38.295038448036365 10.760254697361637 #
edge $-1 $392 1 $392 0 $212 $-1 forward 7 unknown #
vertex $-1 $213 $393 #
ellipse-curve $-1 -33.466885423147289 -33.096775097835362 11.729627253753895 0 -0.80901700255871778 0.5877852410284794 1 0 0 1 I I #
point $-1 -32.466885423147289 -36.038118660926969 13.8666383792449 #
plane-surface $-1 0 0 16.973022061128191 0 0 1 1 0 0 forward_v I I I I #
coedge $-1 $330 $329 $322 $394 forward $217 $-1 #
coedge $-1 $322 $219 $221 $326 reversed $132 $-1 #
coedge $-1 $219 $321 $320 $394 reversed $132 $-1 #
coedge $-1 $227 $222 $219 $324 forward $228 $-1 #
edge $-1 $327 -9.3619237466357035 $395 12.052568578764863 $323 $396 forward 7 unknown #
coedge $-1 $221 $220 $330 $397 reversed $82 $-1 #
edge $-1 $398 -76.590076896072731 $327 -50.759531742339604 $321 $399 forward 7 unknown #
vertex $-1 $223 $400 #
straight-curve $-1 26.410506228022818 16.880546122635799 16.973022061128187 1 0 0 I I #
coedge $-1 $320 $224 $227 $334 reversed $217 $-1 #
coedge $-1 $224 $320 $325 $397 forward $217 $-1 #
vertex $-1 $225 $401 #
straight-curve $-1 38.353140993467058 38.295038448036365 80.265775468507371 0 0 1 I I #
straight-curve $-1 38.353140993467058 -25.201012608236056 45.357392363845221 0 0.82903756765294845 -0.55919291073839883 I I #
edge $-1 $395 -67.288883918624208 $229 -38.353140993467058 $329 $402 forward 7 unknown #
point $-1 38.353140993467058 38.295038448036365 16.973022061128191 #
point $-1 38.353140993467058 16.880546122635799 16.973022061128191 #
edge $-1 $403 1 $403 0 $232 $-1 forward 7 unknown #
vertex $-1 $233 $404 #
ellipse-curve $-1 44.140289578498496 26.566075314925204 8.2361355233356957 0 0.55919291073839883 0.82903756765294845 1.5 0 0 1 I I #
point $-1 45.640289578498496 27.587792285336061 9.7508931958903453 #
edge $-1 $405 1 $405 0 $236 $-1 forward 7 unknown #
vertex $-1 $237 $406 #
ellipse-curve $-1 52.821012456045651 26.566075314925204 8.2361355233356957 0 0.55919291073839883 0.82903756765294845 1.5 0 0 1 I I #
point $-1 54.321012456045651 27.587792285336061 9.7508931958903453 #
edge $-1 $407 1 $407 0 $240 $-1 forward 7 unknown #
vertex $-1 $241 $408 #
ellipse-curve $-1 61.501735333592805 26.566075314925204 8.2361355233356957 0 0.55919291073839883 0.82903756765294845 1.5 0 0 1 I I #
point $-1 63.001735333592805 27.587792285336061 9.7508931958903453 #
plane-surface $-1 69.462569048127691 0 0 -1 0 0 0 0 1 forward_v I I I I #
coedge $-1 $249 $247 $251 $354 reversed $161 $-1 #
edge $-1 $262 -16.973022061128191 $356 16.973022061128191 $261 $409 forward 7 unknown #
vertex $-1 $354 $410 #
straight-curve $-1 -69.462569048127691 -38.295038448036365 0 0 0 -1 I I #
edge $-1 $352 -38.295038448036365 $356 38.295038448036365 $350 $411 forward 7 unknown #
straight-curve $-1 0 -38.295038448036365 -16.973022061128191 -1 0 0 I I #
vertex $-1 $254 $412 #
straight-curve $-1 0 38.295038448036365 -16.973022061128191 1 0 0 I I #
point $-1 69.462569048127691 38.295038448036365 -16.973022061128191 #
point $-1 69.462569048127691 -38.295038448036365 -16.973022061128191 #
straight-curve $-1 -69.462569048127691 0 16.973022061128191 0 -1 0 I I #
point $-1 -69.462569048127691 38.295038448036365 16.973022061128191 #
point $-1 -69.462569048127691 -38.295038448036365 16.973022061128191 #
straight-curve $-1 69.462569048127691 -38.295038448036365 0 0 0 -1 I I #
straight-curve $-1 69.462569048127691 38.295038448036365 0 0 0 -1 I I #
plane-surface $-1 0 38.295038448036365 0 0 -1 0 0 0 -1 forward_v I I I I #
coedge $-1 $376 $375 $277 $368 forward $272 $-1 #
straight-curve $-1 -49.702577489750112 -38.295038448036365 -3.1603733933805191 0 0 1 I I #
edge $-1 $371 -38.295038448036365 $369 38.295038448036365 $366 $413 forward 7 unknown #
vertex $-1 $278 $414 #
straight-curve $-1 -29.791286634469451 -38.295038448036365 -10.444838395516321 1 0 0 I I #
vertex $-1 $280 $415 #
straight-curve $-1 -29.791286634469451 38.295038448036365 -10.444838395516321 -1 0 0 I I #
point $-1 -49.702577489750112 38.295038448036365 -10.444838395516321 #
point $-1 -49.702577489750112 -38.295038448036365 -10.444838395516321 #
coedge $-1 $366 $284 $287 $378 forward $272 $-1 #
coedge $-1 $284 $366 $291 $380 reversed $272 $-1 #
straight-curve $-1 -69.462569048127691 0 -2.1966551780057557 0 1 0 I I #
edge $-1 $289 2.1966551780057557 $371 10.444838395516321 $287 $416 forward 7 unknown #
point $-1 -69.462569048127691 38.295038448036365 -2.1966551780057557 #
edge $-1 $292 2.1966551780057557 $369 10.444838395516321 $376 $417 forward 7 unknown #
point $-1 -69.462569048127691 -38.295038448036365 -2.1966551780057557 #
straight-curve $-1 -49.702577489750112 38.295038448036365 -3.1603733933805191 0 0 -1 I I #
edge $-1 $384 37.048880177326055 $387 41.562719751544833 $298 $418 forward 7 unknown #
vertex $-1 $383 $419 #
straight-curve $-1 -17.231193356544466 -38.295038448036365 46.209200239091935 0 0 1 I I #
edge $-1 $387 0.49775064497082155 $309 32.969134778176468 $308 $420 forward 7 unknown #
vertex $-1 $386 $421 #
straight-curve $-1 -17.231193356544466 -38.295038448036379 10.760254697361617 0 -0.5877852410284794 -0.80901700255871778 I I #
point $-1 -17.231193356544466 -38.295038448036365 10.760254697361637 #
point $-1 -49.702577489750112 -33.781198873817587 16.973022061128191 #
straight-curve $-1 0 -38.295038448036365 16.973022061128191 1 0 0 I I #
vertex $-1 $315 $422 #
point $-1 -32.466885423147289 -33.096775097835362 11.729627253753895 #
edge $-1 $395 63.29275340737918 $398 77.73701113785485 $320 $423 forward 7 unknown #
vertex $-1 $334 $424 #
straight-curve $-1 67.288883918624208 26.242469869271503 16.973022061128191 0 1 0 I I #
edge $-1 $398 -40.87837769060139 $331 -11.94263476544424 $330 $425 forward 7 unknown #
vertex $-1 $397 $426 #
straight-curve $-1 67.288883918624208 -25.201012608236056 45.357392363845221 0 -0.82903756765294845 0.55919291073839883 I I #
point $-1 67.288883918624208 16.880546122635799 16.973022061128191 #
point $-1 38.353140993467058 38.295038448036365 2.5287643306525212 #
straight-curve $-1 0 38.295038448036365 16.973022061128191 -1 0 0 I I #
vertex $-1 $337 $427 #
point $-1 45.640289578498496 26.566075314925204 8.2361355233356957 #
vertex $-1 $341 $428 #
point $-1 54.321012456045651 26.566075314925204 8.2361355233356957 #
vertex $-1 $345 $429 #
point $-1 63.001735333592805 26.566075314925204 8.2361355233356957 #
straight-curve $-1 -69.462569048127691 38.295038448036365 0 0 0 -1 I I #
point $-1 -69.462569048127691 -38.295038448036365 -16.973022061128191 #
straight-curve $-1 -69.462569048127691 0 -16.973022061128191 0 1 0 I I #
point $-1 -69.462569048127691 38.295038448036365 -16.973022061128191 #
straight-curve $-1 -69.462569048127691 0 -10.444838395516321 0 -1 0 I I #
point $-1 -69.462569048127691 -38.295038448036365 -10.444838395516321 #
point $-1 -69.462569048127691 38.295038448036365 -10.444838395516321 #
straight-curve $-1 -69.462569048127691 38.295038448036365 0 0 0 -1 I I #
straight-curve $-1 -69.462569048127691 -38.295038448036365 0 0 0 -1 I I #
straight-curve $-1 -17.231193356544466 -75.34391862536242 16.973022061128191 0 1 0 I I #
point $-1 -17.231193356544466 -38.295038448036365 16.973022061128191 #
straight-curve $-1 -16.733442711573645 -33.781198873817587 16.973022061128191 -1 0 0 I I #
point $-1 -17.231193356544466 -33.781198873817587 16.973022061128191 #
point $-1 -33.466885423147289 -32.287758095276644 11.141842012725414 #
straight-curve $-1 67.288883918624208 38.295038448036365 80.265775468507371 0 0 -1 I I #
point $-1 67.288883918624208 38.295038448036365 16.973022061128191 #
straight-curve $-1 26.410506228022818 38.295038448036365 2.5287643306525176 -1 0 0 I I #
point $-1 67.288883918624208 38.295038448036365 2.5287643306525212 #
point $-1 44.140289578498496 25.727285948817606 6.9925791718562724 #
point $-1 52.821012456045651 25.727285948817606 6.9925791718562724 #
point $-1 61.501735333592805 25.727285948817606 6.9925791718562724 #
End-of-ACIS-data 