500 0 5 0           
7 Unknown 11 ACIS 5.0 NT 24 Fri Mar 26 17:28:16 1999 
-1 9.9999999999999995e-007 1e-010 
body $-1 $5 $-1 $6 #
body $-1 $7 $-1 $8 #
body $-1 $9 $-1 $10 #
body $-1 $11 $-1 $12 #
body $-1 $13 $-1 $14 #
lump $-1 $-1 $15 $0 #
transform $-1 1 0 0 0 1 0 0 0 1 56.511734366893521 34.296295005542397 12.781956071891955 1 rotate no_reflect no_shear #
lump $-1 $-1 $16 $1 #
transform $-1 1 0 0 0 1 0 0 0 1 56.511734366893521 34.296295005542397 12.781956071891955 1 rotate no_reflect no_shear #
lump $-1 $-1 $17 $2 #
transform $-1 1 0 0 0 1 0 0 0 1 56.511734366893521 34.296295005542397 12.781956071891955 1 rotate no_reflect no_shear #
lump $-1 $-1 $18 $3 #
transform $-1 1 0 0 0 1 0 0 0 1 56.511734366893521 34.296295005542397 12.781956071891955 1 rotate no_reflect no_shear #
lump $-1 $-1 $19 $4 #
transform $-1 1 0 0 0 1 0 0 0 1 56.511734366893521 34.296295005542397 12.781956071891955 1 rotate no_reflect no_shear #
shell $-1 $-1 $-1 $20 $-1 $5 #
shell $-1 $-1 $-1 $21 $-1 $7 #
shell $-1 $-1 $-1 $22 $-1 $9 #
shell $-1 $-1 $-1 $23 $-1 $11 #
shell $-1 $-1 $-1 $24 $-1 $13 #
face $-1 $25 $26 $15 $-1 $27 forward single #
face $-1 $28 $29 $16 $-1 $30 forward single #
face $-1 $31 $32 $17 $-1 $33 forward single #
face $-1 $34 $35 $18 $-1 $36 reversed single #
face $-1 $37 $38 $19 $-1 $39 forward single #
face $-1 $40 $41 $15 $-1 $42 reversed single #
loop $-1 $-1 $43 $20 #
plane-surface $-1 0 0 12.781956071891955 0 0 1 1 0 0 forward_v I I I I #
face $-1 $44 $45 $16 $-1 $46 reversed single #
loop $-1 $-1 $47 $21 #
plane-surface $-1 0 -34.296295005542397 0 0 1 0 0 0 1 forward_v I I I I #
face $-1 $48 $49 $17 $-1 $50 reversed single #
loop $-1 $-1 $51 $22 #
plane-surface $-1 0 34.296295005542397 0 0 -1 0 0 0 -1 forward_v I I I I #
face $-1 $52 $53 $18 $-1 $54 reversed single #
loop $-1 $-1 $55 $23 #
plane-surface $-1 84.267543644677843 -3.4796490860491005 167.05921780241869 0 -1 0 -0.81915205242281985 0 -0.57357642473473569 forward_v I I I I #
face $-1 $56 $57 $19 $-1 $58 forward single #
loop $-1 $59 $60 $24 #
cone-surface $-1 55.005023571467554 -8.9406028109776834 10.928296978452044 -0.81915205242281985 0 -0.57357642473473569 0.28678821236736785 0 -0.40957602621140993 1 I I 0 1 0.5 forward I I I I #
face $-1 $61 $62 $15 $-1 $63 reversed single #
loop $-1 $-1 $64 $25 #
plane-surface $-1 0 0 -12.781956071891955 0 0 1 1 0 0 forward_v I I I I #
coedge $-1 $65 $66 $67 $68 forward $26 $-1 #
face $-1 $69 $70 $16 $-1 $71 reversed single #
loop $-1 $-1 $72 $28 #
plane-surface $-1 0 0 -12.781956071891955 0 0 1 1 0 0 forward_v I I I I #
coedge $-1 $73 $74 $75 $76 forward $29 $-1 #
face $-1 $77 $78 $17 $-1 $79 reversed single #
loop $-1 $-1 $80 $31 #
plane-surface $-1 0 0 -12.781956071891955 0 0 1 1 0 0 forward_v I I I I #
coedge $-1 $81 $82 $83 $84 forward $32 $-1 #
face $-1 $85 $86 $18 $-1 $87 reversed single #
loop $-1 $-1 $88 $34 #
plane-surface $-1 -8.3158627405502159 -8.9406028109776834 102.23162069497494 0.81915205242281985 0 0.57357642473473569 0.57357642473473569 0 -0.81915205242281985 forward_v I I I I #
coedge $-1 $89 $90 $91 $92 reversed $35 $-1 #
face $-1 $-1 $93 $19 $-1 $94 forward single #
loop $-1 $95 $96 $37 #
cone-surface $-1 54.390659532150437 -8.9406028109776834 10.498114659900992 -0.81915205242281985 0 -0.57357642473473569 0.14339410618368392 0 -0.20478801310570496 1 I I -0.70710678118654746 0.70710678118654746 0.25 forward I I I I #
loop $-1 $-1 $97 $24 #
coedge $-1 $60 $60 $98 $99 reversed $38 $-1 #
face $-1 $100 $101 $15 $-1 $102 reversed single #
loop $-1 $-1 $103 $40 #
plane-surface $-1 0 -34.296295005542397 0 0 1 0 0 0 1 forward_v I I I I #
coedge $-1 $104 $105 $106 $107 forward $41 $-1 #
coedge $-1 $108 $43 $109 $110 forward $26 $-1 #
coedge $-1 $43 $108 $111 $112 forward $26 $-1 #
coedge $-1 $113 $114 $43 $68 reversed $115 $-1 #
edge $-1 $116 -34.296295005542397 $117 34.296295005542397 $67 $118 forward 7 unknown #
face $-1 $119 $120 $16 $-1 $121 reversed single #
loop $-1 $-1 $122 $44 #
plane-surface $-1 -40.738306214842844 -46.399087515358843 0 0 1 0 0 0 1 forward_v I I I I #
coedge $-1 $123 $124 $74 $125 forward $45 $-1 #
coedge $-1 $126 $47 $127 $128 reversed $29 $-1 #
coedge $-1 $47 $126 $72 $125 reversed $29 $-1 #
coedge $-1 $129 $130 $47 $76 reversed $120 $-1 #
edge $-1 $131 -12.781956071891955 $132 12.781956071891955 $75 $133 forward 7 unknown #
face $-1 $134 $135 $17 $-1 $136 reversed single #
loop $-1 $-1 $137 $48 #
plane-surface $-1 -42.574247138710135 40.347691260450624 0 1 0 0 0 0 -1 forward_v I I I I #
coedge $-1 $138 $139 $82 $140 forward $49 $-1 #
coedge $-1 $141 $51 $142 $143 reversed $32 $-1 #
coedge $-1 $51 $141 $80 $140 reversed $32 $-1 #
coedge $-1 $144 $145 $51 $84 reversed $146 $-1 #
edge $-1 $147 -12.781956071891955 $148 12.781956071891955 $83 $149 forward 7 unknown #
face $-1 $150 $151 $18 $-1 $152 forward single #
loop $-1 $-1 $153 $52 #
plane-surface $-1 84.267543644677843 -14.401556535906266 167.05921780241869 0 1 0 0.81915205242281985 0 0.57357642473473569 forward_v I I I I #
coedge $-1 $154 $155 $156 $157 reversed $53 $-1 #
coedge $-1 $90 $55 $158 $159 reversed $35 $-1 #
coedge $-1 $55 $89 $154 $160 reversed $35 $-1 #
coedge $-1 $156 $161 $55 $92 forward $151 $-1 #
edge $-1 $162 -14.377962544554599 $163 -12.183693006125473 $91 $164 forward 7 unknown #
loop $-1 $-1 $98 $56 #
plane-surface $-1 -8.3158627405502159 -8.9406028109776834 102.23162069497494 0.81915205242281985 0 0.57357642473473569 0.57357642473473569 0 -0.81915205242281985 forward_v I I I I #
loop $-1 $-1 $165 $37 #
coedge $-1 $96 $96 $97 $166 reversed $57 $-1 #
coedge $-1 $97 $97 $96 $166 forward $59 $-1 #
coedge $-1 $98 $98 $60 $99 forward $93 $-1 #
edge $-1 $167 0 $167 6.2831853071796004 $98 $168 forward 7 unknown #
face $-1 $169 $170 $15 $-1 $171 reversed single #
loop $-1 $-1 $172 $61 #
plane-surface $-1 -56.511734366893521 0 0 1 0 0 0 0 -1 forward_v I I I I #
coedge $-1 $173 $111 $174 $175 forward $62 $-1 #
coedge $-1 $176 $64 $173 $177 forward $41 $-1 #
coedge $-1 $64 $176 $178 $179 forward $41 $-1 #
coedge $-1 $114 $113 $64 $107 reversed $115 $-1 #
edge $-1 $180 -34.296295005542397 $181 34.296295005542397 $106 $182 forward 7 unknown #
coedge $-1 $66 $65 $183 $184 forward $26 $-1 #
coedge $-1 $185 $186 $65 $110 reversed $170 $-1 #
edge $-1 $117 -56.511734366893521 $187 56.511734366893521 $109 $188 forward 7 unknown #
coedge $-1 $103 $189 $66 $112 reversed $62 $-1 #
edge $-1 $190 -56.511734366893521 $116 56.511734366893521 $111 $191 forward 7 unknown #
coedge $-1 $106 $67 $189 $192 forward $115 $-1 #
coedge $-1 $67 $106 $185 $193 reversed $115 $-1 #
loop $-1 $-1 $113 $169 #
vertex $-1 $68 $194 #
vertex $-1 $68 $195 #
straight-curve $-1 56.511734366893521 0 12.781956071891955 0 1 0 I I #
face $-1 $196 $197 $16 $-1 $198 reversed single #
loop $-1 $-1 $75 $69 #
plane-surface $-1 -42.574247138710135 -40.347691260450617 0 1 0 0 0 0 -1 forward_v I I I I #
coedge $-1 $199 $200 $201 $202 forward $70 $-1 #
coedge $-1 $203 $72 $204 $205 forward $45 $-1 #
coedge $-1 $72 $203 $129 $206 forward $45 $-1 #
edge $-1 $131 -42.574247138710135 $207 -38.902365290975553 $72 $208 forward 7 unknown #
coedge $-1 $74 $73 $209 $210 forward $29 $-1 #
coedge $-1 $211 $212 $73 $128 forward $213 $-1 #
edge $-1 $214 38.902365290975553 $132 42.574247138710135 $127 $215 forward 7 unknown #
coedge $-1 $201 $75 $124 $206 reversed $120 $-1 #
coedge $-1 $75 $201 $211 $216 reversed $120 $-1 #
vertex $-1 $125 $217 #
vertex $-1 $216 $218 #
straight-curve $-1 -42.574247138710135 -34.296295005542397 0 0 0 1 I I #
face $-1 $219 $146 $17 $-1 $220 reversed single #
loop $-1 $-1 $221 $77 #
plane-surface $-1 -40.738306214842844 46.399087515358843 0 0 -1 0 0 0 -1 forward_v I I I I #
coedge $-1 $222 $223 $224 $225 forward $78 $-1 #
coedge $-1 $226 $80 $222 $227 forward $49 $-1 #
coedge $-1 $80 $226 $144 $228 forward $49 $-1 #
edge $-1 $147 38.902365290975553 $229 42.574247138710135 $80 $230 forward 7 unknown #
coedge $-1 $82 $81 $231 $232 forward $32 $-1 #
coedge $-1 $233 $234 $81 $143 forward $235 $-1 #
edge $-1 $236 -42.574247138710135 $148 -38.902365290975553 $142 $237 forward 7 unknown #
coedge $-1 $238 $83 $139 $228 reversed $146 $-1 #
coedge $-1 $83 $238 $233 $239 reversed $146 $-1 #
loop $-1 $-1 $83 $134 #
vertex $-1 $140 $240 #
vertex $-1 $239 $241 #
straight-curve $-1 -38.902365290975553 34.296295005542397 0 0 0 1 I I #
face $-1 $-1 $242 $18 $-1 $243 reversed single #
loop $-1 $-1 $91 $85 #
plane-surface $-1 0 0 12.781956071891955 0 0 1 1 0 0 forward_v I I I I #
coedge $-1 $244 $245 $246 $247 reversed $86 $-1 #
coedge $-1 $248 $88 $90 $160 forward $53 $-1 #
coedge $-1 $88 $248 $244 $249 forward $53 $-1 #
coedge $-1 $246 $91 $88 $157 forward $151 $-1 #
edge $-1 $163 -0.99065231943974119 $250 9.9312551304174246 $156 $251 forward 7 unknown #
coedge $-1 $252 $253 $89 $159 forward $242 $-1 #
edge $-1 $254 -73.881394591462453 $162 -70.747652829317389 $158 $255 forward 7 unknown #
edge $-1 $163 109.19787646080628 $254 113.02346873378703 $90 $256 forward 7 unknown #
coedge $-1 $91 $246 $252 $257 forward $151 $-1 #
vertex $-1 $92 $258 #
vertex $-1 $92 $259 #
straight-curve $-1 42.133771822338922 -3.4796490860491005 12.781956071891955 -1 0 0 I I #
coedge $-1 $165 $165 $-1 $260 reversed $95 $-1 #
edge $-1 $261 0 $261 6.2831853071796004 $96 $262 forward 7 unknown #
vertex $-1 $99 $263 #
ellipse-curve $-1 55.414599597678972 -8.9406028109776834 11.215085190819416 0.81915205242281985 0 0.57357642473473569 0.28678821236736785 0 -0.40957602621140993 1 I I #
face $-1 $-1 $115 $15 $-1 $264 reversed single #
loop $-1 $-1 $185 $100 #
plane-surface $-1 0 34.296295005542397 0 0 -1 0 0 0 -1 forward_v I I I I #
coedge $-1 $265 $183 $186 $266 forward $101 $-1 #
coedge $-1 $189 $103 $104 $177 reversed $62 $-1 #
coedge $-1 $183 $265 $103 $175 reversed $101 $-1 #
edge $-1 $190 -12.781956071891955 $267 12.781956071891955 $174 $268 forward 7 unknown #
coedge $-1 $105 $104 $265 $269 forward $41 $-1 #
edge $-1 $181 -56.511734366893521 $267 56.511734366893521 $173 $270 forward 7 unknown #
coedge $-1 $186 $185 $105 $179 reversed $170 $-1 #
edge $-1 $271 -56.511734366893521 $180 56.511734366893521 $178 $272 forward 7 unknown #
vertex $-1 $107 $273 #
vertex $-1 $192 $274 #
straight-curve $-1 56.511734366893521 0 -12.781956071891955 0 -1 0 I I #
coedge $-1 $172 $174 $108 $184 reversed $101 $-1 #
edge $-1 $187 -34.296295005542397 $190 34.296295005542397 $183 $275 forward 7 unknown #
coedge $-1 $178 $109 $114 $193 forward $170 $-1 #
coedge $-1 $109 $178 $172 $266 reversed $170 $-1 #
vertex $-1 $110 $276 #
straight-curve $-1 0 34.296295005542397 12.781956071891955 -1 0 0 I I #
coedge $-1 $111 $173 $113 $192 reversed $62 $-1 #
vertex $-1 $184 $277 #
straight-curve $-1 0 -34.296295005542397 12.781956071891955 1 0 0 I I #
edge $-1 $116 -12.781956071891955 $181 12.781956071891955 $113 $278 forward 7 unknown #
edge $-1 $117 -12.781956071891955 $180 12.781956071891955 $114 $279 forward 7 unknown #
point $-1 56.511734366893521 -34.296295005542397 12.781956071891955 #
point $-1 56.511734366893521 34.296295005542397 12.781956071891955 #
face $-1 $-1 $213 $16 $-1 $280 forward single #
loop $-1 $-1 $281 $119 #
plane-surface $-1 -38.902365290975553 -40.347691260450617 0 -1 0 0 0 0 1 forward_v I I I I #
coedge $-1 $282 $122 $203 $283 reversed $70 $-1 #
coedge $-1 $122 $282 $284 $285 reversed $70 $-1 #
coedge $-1 $130 $129 $122 $202 reversed $120 $-1 #
edge $-1 $286 -12.781956071891955 $287 12.781956071891955 $201 $288 forward 7 unknown #
coedge $-1 $124 $123 $199 $283 forward $45 $-1 #
coedge $-1 $209 $281 $123 $205 reversed $197 $-1 #
edge $-1 $207 -6.0513962549082265 $289 6.0513962549082265 $204 $290 forward 7 unknown #
edge $-1 $287 -6.0513962549082265 $131 6.0513962549082265 $129 $291 forward 7 unknown #
vertex $-1 $205 $292 #
straight-curve $-1 0 -34.296295005542397 -12.781956071891955 1 0 0 I I #
coedge $-1 $293 $204 $126 $210 reversed $197 $-1 #
edge $-1 $214 -12.781956071891955 $207 12.781956071891955 $209 $294 forward 7 unknown #
coedge $-1 $284 $127 $130 $216 forward $213 $-1 #
coedge $-1 $127 $284 $293 $295 forward $213 $-1 #
loop $-1 $-1 $127 $196 #
vertex $-1 $128 $296 #
straight-curve $-1 0 -34.296295005542397 12.781956071891955 -1 0 0 I I #
edge $-1 $132 -6.0513962549082265 $286 6.0513962549082265 $130 $297 forward 7 unknown #
point $-1 -42.574247138710135 -34.29629500554239 -12.781956071891955 #
point $-1 -42.574247138710135 -34.29629500554239 12.781956071891955 #
face $-1 $-1 $235 $17 $-1 $298 forward single #
plane-surface $-1 -38.902365290975553 40.347691260450624 0 -1 0 0 0 0 1 forward_v I I I I #
coedge $-1 $299 $300 $238 $301 forward $135 $-1 #
coedge $-1 $231 $137 $138 $227 reversed $78 $-1 #
coedge $-1 $137 $231 $234 $302 reversed $78 $-1 #
coedge $-1 $300 $299 $137 $225 reversed $135 $-1 #
edge $-1 $303 -12.781956071891955 $304 12.781956071891955 $224 $305 forward 7 unknown #
coedge $-1 $139 $138 $299 $306 forward $49 $-1 #
edge $-1 $229 -6.0513962549082194 $304 6.0513962549082194 $222 $307 forward 7 unknown #
edge $-1 $308 -6.0513962549082194 $147 6.0513962549082194 $144 $309 forward 7 unknown #
vertex $-1 $227 $310 #
straight-curve $-1 0 34.296295005542397 -12.781956071891955 -1 0 0 I I #
coedge $-1 $223 $222 $141 $232 reversed $78 $-1 #
edge $-1 $236 -12.781956071891955 $229 12.781956071891955 $231 $311 forward 7 unknown #
coedge $-1 $312 $142 $145 $239 forward $235 $-1 #
coedge $-1 $142 $312 $223 $302 forward $235 $-1 #
loop $-1 $-1 $142 $219 #
vertex $-1 $143 $313 #
straight-curve $-1 0 34.296295005542397 12.781956071891955 1 0 0 I I #
coedge $-1 $145 $144 $221 $301 reversed $146 $-1 #
edge $-1 $148 -6.0513962549082194 $314 6.0513962549082194 $145 $315 forward 7 unknown #
point $-1 -38.902365290975553 34.296295005542405 -12.781956071891955 #
point $-1 -38.902365290975553 34.296295005542405 12.781956071891955 #
loop $-1 $-1 $158 $150 #
plane-surface $-1 56.511734366893521 0 0 -1 0 0 0 0 1 forward_v I I I I #
coedge $-1 $245 $153 $155 $249 reversed $86 $-1 #
coedge $-1 $153 $244 $316 $317 reversed $86 $-1 #
coedge $-1 $161 $156 $153 $247 forward $151 $-1 #
edge $-1 $250 12.183693006125473 $318 14.377962544554599 $246 $319 forward 7 unknown #
coedge $-1 $155 $154 $253 $320 reversed $53 $-1 #
edge $-1 $321 -113.02346873378703 $250 -109.19787646080628 $244 $322 forward 7 unknown #
vertex $-1 $157 $323 #
straight-curve $-1 54.317464828464395 -4.4703014054888417 12.781956071891962 0 -1 0 I I #
coedge $-1 $316 $158 $161 $257 reversed $242 $-1 #
coedge $-1 $158 $316 $248 $320 forward $242 $-1 #
vertex $-1 $159 $324 #
straight-curve $-1 56.511734366893521 -3.4796490860491005 83.529608901209343 0 0 1 I I #
straight-curve $-1 -8.3158627405502159 -3.4796490860491005 102.23162069497494 0.57357642473473569 0 -0.81915205242281985 I I #
edge $-1 $318 -14.401556535906266 $162 -3.4796490860491005 $252 $325 forward 7 unknown #
point $-1 56.511734366893521 -3.4796490860491005 12.781956071891955 #
point $-1 54.317464828464395 -3.4796490860491005 12.781956071891955 #
edge $-1 $326 1 $326 0 $165 $-1 forward 7 unknown #
vertex $-1 $166 $327 #
ellipse-curve $-1 54.595447545256143 -8.9406028109776834 10.641508766084677 0.81915205242281985 0 0.57357642473473569 0.28678821236736785 0 -0.40957602621140993 1 I I #
point $-1 55.701387810046327 -8.9406028109776834 10.805509164608001 #
plane-surface $-1 56.511734366893521 0 0 -1 0 0 0 0 1 forward_v I I I I #
coedge $-1 $174 $172 $176 $269 reversed $101 $-1 #
edge $-1 $187 -12.781956071891955 $271 12.781956071891955 $186 $328 forward 7 unknown #
vertex $-1 $269 $329 #
straight-curve $-1 -56.511734366893521 -34.296295005542397 0 0 0 -1 I I #
edge $-1 $267 -34.296295005542397 $271 34.296295005542397 $265 $330 forward 7 unknown #
straight-curve $-1 0 -34.296295005542397 -12.781956071891955 -1 0 0 I I #
vertex $-1 $179 $331 #
straight-curve $-1 0 34.296295005542397 -12.781956071891955 1 0 0 I I #
point $-1 56.511734366893521 34.296295005542397 -12.781956071891955 #
point $-1 56.511734366893521 -34.296295005542397 -12.781956071891955 #
straight-curve $-1 -56.511734366893521 0 12.781956071891955 0 -1 0 I I #
point $-1 -56.511734366893521 34.296295005542397 12.781956071891955 #
point $-1 -56.511734366893521 -34.296295005542397 12.781956071891955 #
straight-curve $-1 56.511734366893521 -34.296295005542397 0 0 0 -1 I I #
straight-curve $-1 56.511734366893521 34.296295005542397 0 0 0 -1 I I #
plane-surface $-1 0 0 12.781956071891955 0 0 1 1 0 0 forward_v I I I I #
coedge $-1 $204 $293 $282 $332 forward $197 $-1 #
coedge $-1 $200 $199 $281 $332 reversed $70 $-1 #
edge $-1 $289 -1.835940923867291 $287 1.835940923867291 $199 $333 forward 7 unknown #
coedge $-1 $212 $211 $200 $285 forward $213 $-1 #
edge $-1 $286 -1.835940923867291 $334 1.835940923867291 $200 $335 forward 7 unknown #
vertex $-1 $216 $336 #
vertex $-1 $206 $337 #
straight-curve $-1 -42.574247138710135 -46.399087515358843 0 0 0 -1 I I #
vertex $-1 $332 $338 #
straight-curve $-1 -38.902365290975553 -40.347691260450617 -12.781956071891955 0 -1 0 I I #
straight-curve $-1 -42.574247138710135 -40.347691260450617 -12.781956071891955 0 1 0 I I #
point $-1 -38.902365290975553 -34.29629500554239 -12.781956071891955 #
coedge $-1 $281 $209 $212 $295 reversed $197 $-1 #
straight-curve $-1 -38.902365290975553 -34.296295005542397 0 0 0 -1 I I #
edge $-1 $334 -6.0513962549082265 $214 6.0513962549082265 $293 $339 forward 7 unknown #
point $-1 -38.902365290975553 -34.29629500554239 12.781956071891955 #
straight-curve $-1 -42.574247138710135 -40.347691260450617 12.781956071891955 0 -1 0 I I #
plane-surface $-1 0 0 12.781956071891955 0 0 1 1 0 0 forward_v I I I I #
coedge $-1 $224 $221 $226 $306 reversed $135 $-1 #
coedge $-1 $221 $224 $312 $340 reversed $135 $-1 #
edge $-1 $314 -12.781956071891955 $308 12.781956071891955 $238 $341 forward 7 unknown #
edge $-1 $303 -6.0513962549082194 $236 6.0513962549082194 $223 $342 forward 7 unknown #
vertex $-1 $340 $343 #
vertex $-1 $306 $344 #
straight-curve $-1 -42.574247138710135 46.399087515358843 0 0 0 -1 I I #
edge $-1 $304 -1.835940923867291 $308 1.835940923867291 $299 $345 forward 7 unknown #
straight-curve $-1 -42.574247138710135 40.347691260450624 -12.781956071891955 0 1 0 I I #
vertex $-1 $228 $346 #
straight-curve $-1 -38.902365290975553 40.347691260450624 -12.781956071891955 0 -1 0 I I #
point $-1 -42.574247138710135 34.296295005542405 -12.781956071891955 #
straight-curve $-1 -42.574247138710135 34.296295005542397 0 0 0 -1 I I #
coedge $-1 $234 $233 $300 $340 forward $235 $-1 #
point $-1 -42.574247138710135 34.296295005542405 12.781956071891955 #
vertex $-1 $239 $347 #
straight-curve $-1 -38.902365290975553 40.347691260450624 12.781956071891955 0 1 0 I I #
coedge $-1 $253 $252 $245 $317 forward $242 $-1 #
edge $-1 $318 70.747652829317389 $321 73.881394591462453 $316 $348 forward 7 unknown #
vertex $-1 $257 $349 #
straight-curve $-1 42.133771822338922 -14.401556535906266 12.781956071891955 1 0 0 I I #
edge $-1 $321 -9.9312551304174246 $254 0.99065231943974119 $253 $350 forward 7 unknown #
vertex $-1 $320 $351 #
straight-curve $-1 -8.3158627405502159 -14.401556535906266 102.23162069497494 -0.57357642473473569 0 0.81915205242281985 I I #
point $-1 54.317464828464395 -14.401556535906266 12.781956071891955 #
point $-1 56.511734366893521 -3.4796490860491005 9.6482143097468906 #
straight-curve $-1 56.511734366893521 0 12.781956071891955 0 1 0 I I #
vertex $-1 $260 $352 #
point $-1 54.882235757623512 -8.9406028109776834 10.231932739873265 #
straight-curve $-1 -56.511734366893521 34.296295005542397 0 0 0 -1 I I #
point $-1 -56.511734366893521 -34.296295005542397 -12.781956071891955 #
straight-curve $-1 -56.511734366893521 0 -12.781956071891955 0 1 0 I I #
point $-1 -56.511734366893521 34.296295005542397 -12.781956071891955 #
edge $-1 $334 -12.781956071891955 $289 12.781956071891955 $281 $353 forward 7 unknown #
straight-curve $-1 -40.738306214842844 -46.399087515358843 -12.781956071891955 -1 0 0 I I #
vertex $-1 $295 $354 #
straight-curve $-1 -40.738306214842844 -46.399087515358843 12.781956071891955 1 0 0 I I #
point $-1 -42.574247138710135 -46.399087515358843 12.781956071891955 #
point $-1 -42.574247138710135 -46.399087515358843 -12.781956071891955 #
point $-1 -38.902365290975553 -46.399087515358843 -12.781956071891955 #
straight-curve $-1 -38.902365290975553 -40.347691260450617 12.781956071891955 0 1 0 I I #
edge $-1 $314 -1.835940923867291 $303 1.835940923867291 $300 $355 forward 7 unknown #
straight-curve $-1 -38.902365290975553 46.399087515358843 0 0 0 -1 I I #
straight-curve $-1 -42.574247138710135 40.347691260450624 12.781956071891955 0 -1 0 I I #
point $-1 -42.574247138710135 46.399087515358843 12.781956071891955 #
point $-1 -42.574247138710135 46.399087515358843 -12.781956071891955 #
straight-curve $-1 -40.738306214842844 46.399087515358843 -12.781956071891955 1 0 0 I I #
point $-1 -38.902365290975553 46.399087515358843 -12.781956071891955 #
point $-1 -38.902365290975553 46.399087515358843 12.781956071891955 #
straight-curve $-1 56.511734366893521 -14.401556535906266 83.529608901209343 0 0 -1 I I #
point $-1 56.511734366893521 -14.401556535906266 12.781956071891955 #
straight-curve $-1 56.511734366893521 -4.4703014054888417 9.6482143097468906 0 1 0 I I #
point $-1 56.511734366893521 -14.401556535906266 9.6482143097468906 #
point $-1 54.185871519044731 -8.9406028109776834 10.354720553717307 #
straight-curve $-1 -38.902365290975553 -46.399087515358843 0 0 0 -1 I I #
point $-1 -38.902365290975553 -46.399087515358843 12.781956071891955 #
straight-curve $-1 -40.738306214842844 46.399087515358843 12.781956071891955 -1 0 0 I I #
End-of-ACIS-data 