500 0 12 0           
7 Unknown 11 ACIS 5.0 NT 24 Fri Mar 26 14:27:15 1999 
-1 9.9999999999999995e-007 1e-010 
body $-1 $12 $-1 $13 #
body $-1 $14 $-1 $15 #
body $-1 $16 $-1 $17 #
body $-1 $18 $-1 $19 #
body $-1 $20 $-1 $21 #
body $-1 $22 $-1 $23 #
body $-1 $24 $-1 $25 #
body $-1 $26 $-1 $27 #
body $-1 $28 $-1 $29 #
body $-1 $30 $-1 $31 #
body $-1 $32 $-1 $33 #
body $-1 $34 $-1 $35 #
lump $-1 $-1 $36 $0 #
transform $-1 1 0 0 0 1 0 0 0 1 68.03430280465102 38.560938390993933 9.7079607247787791 1 rotate no_reflect no_shear #
lump $-1 $-1 $37 $1 #
transform $-1 1 0 0 0 1 0 0 0 1 68.03430280465102 38.560938390993933 9.7079607247787791 1 rotate no_reflect no_shear #
lump $-1 $-1 $38 $2 #
transform $-1 1 0 0 0 1 0 0 0 1 68.03430280465102 38.560938390993933 9.7079607247787791 1 rotate no_reflect no_shear #
lump $-1 $-1 $39 $3 #
transform $-1 1 0 0 0 1 0 0 0 1 68.03430280465102 38.560938390993933 9.7079607247787791 1 rotate no_reflect no_shear #
lump $-1 $-1 $40 $4 #
transform $-1 1 0 0 0 1 0 0 0 1 68.03430280465102 38.560938390993933 9.7079607247787791 1 rotate no_reflect no_shear #
lump $-1 $-1 $41 $5 #
transform $-1 1 0 0 0 1 0 0 0 1 68.03430280465102 38.560938390993933 9.7079607247787791 1 rotate no_reflect no_shear #
lump $-1 $-1 $42 $6 #
transform $-1 1 0 0 0 1 0 0 0 1 68.03430280465102 38.560938390993933 9.7079607247787791 1 rotate no_reflect no_shear #
lump $-1 $-1 $43 $7 #
transform $-1 1 0 0 0 1 0 0 0 1 68.03430280465102 38.560938390993933 9.7079607247787791 1 rotate no_reflect no_shear #
lump $-1 $-1 $44 $8 #
transform $-1 1 0 0 0 1 0 0 0 1 68.03430280465102 38.560938390993933 9.7079607247787791 1 rotate no_reflect no_shear #
lump $-1 $-1 $45 $9 #
transform $-1 1 0 0 0 1 0 0 0 1 68.03430280465102 38.560938390993933 9.7079607247787791 1 rotate no_reflect no_shear #
lump $-1 $-1 $46 $10 #
transform $-1 1 0 0 0 1 0 0 0 1 68.03430280465102 38.560938390993933 9.7079607247787791 1 rotate no_reflect no_shear #
lump $-1 $-1 $47 $11 #
transform $-1 1 0 0 0 1 0 0 0 1 68.03430280465102 38.560938390993933 9.7079607247787791 1 rotate no_reflect no_shear #
shell $-1 $-1 $-1 $48 $-1 $12 #
shell $-1 $-1 $-1 $49 $-1 $14 #
shell $-1 $-1 $-1 $50 $-1 $16 #
shell $-1 $-1 $-1 $51 $-1 $18 #
shell $-1 $-1 $-1 $52 $-1 $20 #
shell $-1 $-1 $-1 $53 $-1 $22 #
shell $-1 $-1 $-1 $54 $-1 $24 #
shell $-1 $-1 $-1 $55 $-1 $26 #
shell $-1 $-1 $-1 $56 $-1 $28 #
shell $-1 $-1 $-1 $57 $-1 $30 #
shell $-1 $-1 $-1 $58 $-1 $32 #
shell $-1 $-1 $-1 $59 $-1 $34 #
face $-1 $60 $61 $36 $-1 $62 forward single #
face $-1 $63 $64 $37 $-1 $65 forward single #
face $-1 $66 $67 $38 $-1 $68 reversed single #
face $-1 $69 $70 $39 $-1 $71 forward single #
face $-1 $72 $73 $40 $-1 $74 forward single #
face $-1 $75 $76 $41 $-1 $77 forward single #
face $-1 $78 $79 $42 $-1 $80 reversed single #
face $-1 $81 $82 $43 $-1 $83 forward single #
face $-1 $84 $85 $44 $-1 $86 forward single #
face $-1 $87 $88 $45 $-1 $89 reversed single #
face $-1 $90 $91 $46 $-1 $92 forward single #
face $-1 $93 $94 $47 $-1 $95 forward single #
face $-1 $96 $97 $36 $-1 $98 reversed single #
loop $-1 $-1 $99 $48 #
plane-surface $-1 0 0 9.7079607247787791 0 0 1 1 0 0 forward_v I I I I #
face $-1 $100 $101 $37 $-1 $102 reversed single #
loop $-1 $-1 $103 $49 #
plane-surface $-1 -63.144437918106682 0 8.6919878569675078 0 0 1 1 0 0 forward_v I I I I #
face $-1 $104 $105 $38 $-1 $106 reversed single #
loop $-1 $-1 $107 $50 #
plane-surface $-1 49.320485957739976 -150.02181594616493 79.499644194850987 1 0 0 0 0.81915205242281985 -0.57357642473473569 forward_v I I I I #
face $-1 $108 $109 $39 $-1 $110 forward single #
loop $-1 $111 $112 $51 #
cone-surface $-1 53.063249327122179 -34.828034282013391 4.9905668681142252 0 0.81915205242281985 -0.57357642473473569 1.5 0 0 1 I I 0 1 1.5 forward I I I I #
face $-1 $113 $114 $40 $-1 $115 forward single #
loop $-1 $116 $117 $52 #
cone-surface $-1 58.677394381195484 -34.828034282013391 4.9905668681142252 0 0.81915205242281985 -0.57357642473473569 1.5 0 0 1 I I 0 1 1.5 forward I I I I #
face $-1 $118 $119 $41 $-1 $120 forward single #
loop $-1 $121 $122 $53 #
cone-surface $-1 64.291539435268788 -34.828034282013391 4.9905668681142252 0 0.81915205242281985 -0.57357642473473569 1.5 0 0 1 I I 0 1 1.5 forward I I I I #
face $-1 $123 $124 $42 $-1 $125 reversed single #
loop $-1 $-1 $126 $54 #
plane-surface $-1 -24.223022071682323 117.83887120091489 136.13399462179086 1 0 0 0 -0.86602541151947299 -0.49999998660252726 forward_v I I I I #
face $-1 $127 $128 $43 $-1 $129 forward single #
loop $-1 $130 $131 $55 #
cone-surface $-1 -15.90505436933185 34.173398854050966 4.3755561952245561 0 -0.86602541151947299 -0.49999998660252726 2 0 0 1 I I 0 1 2 forward I I I I #
face $-1 $132 $133 $44 $-1 $134 forward single #
loop $-1 $135 $136 $56 #
cone-surface $-1 -3.4281028158061417 34.173398854050966 4.3755561952245561 0 -0.86602541151947299 -0.49999998660252726 2 0 0 1 I I 0 1 2 forward I I I I #
face $-1 $137 $138 $45 $-1 $139 reversed single #
loop $-1 $-1 $140 $57 #
plane-surface $-1 -9.6665785925689889 1.0332382203159796e-006 68.099693640115277 0 0.86602541151947299 0.49999998660252726 1 0 0 forward_v I I I I #
face $-1 $141 $142 $46 $-1 $143 forward single #
loop $-1 $144 $145 $58 #
cone-surface $-1 13.207832588894803 34.173398854050966 4.3755561952245561 0 -0.86602541151947299 -0.49999998660252726 2 0 0 1 I I 0 1 2 forward I I I I #
face $-1 $146 $147 $47 $-1 $148 forward single #
loop $-1 $149 $150 $59 #
cone-surface $-1 25.684784142420511 34.173398854050966 4.3755561952245561 0 -0.86602541151947299 -0.49999998660252726 2 0 0 1 I I 0 1 2 forward I I I I #
face $-1 $151 $152 $36 $-1 $153 reversed single #
loop $-1 $-1 $154 $60 #
plane-surface $-1 0 0 -9.7079607247787791 0 0 1 1 0 0 forward_v I I I I #
coedge $-1 $155 $156 $157 $158 forward $61 $-1 #
face $-1 $159 $160 $37 $-1 $161 reversed single #
loop $-1 $-1 $162 $63 #
plane-surface $-1 -63.144437918106682 0 3.3226414958369253 0 0 1 1 0 0 forward_v I I I I #
coedge $-1 $163 $164 $165 $166 forward $64 $-1 #
face $-1 $167 $168 $38 $-1 $169 forward single #
loop $-1 $-1 $170 $66 #
plane-surface $-1 58.677394381195498 -38.560938390993954 1.4538998708267172 0 -0.81915205242281985 0.57357642473473569 1 0 0 forward_v I I I I #
coedge $-1 $171 $172 $173 $174 reversed $67 $-1 #
face $-1 $-1 $175 $39 $-1 $176 forward single #
loop $-1 $177 $178 $69 #
cone-surface $-1 53.063249327122179 -33.370543861885949 3.9700211198746551 0 0.81915205242281985 -0.57357642473473569 0.75 0 0 1 I I -0.70710678118654757 0.70710678118654757 0.75 forward I I I I #
loop $-1 $-1 $179 $51 #
coedge $-1 $112 $112 $180 $181 reversed $70 $-1 #
face $-1 $-1 $182 $40 $-1 $183 forward single #
loop $-1 $184 $185 $72 #
cone-surface $-1 58.677394381195484 -33.370543861885949 3.9700211198746551 0 0.81915205242281985 -0.57357642473473569 0.75 0 0 1 I I -0.70710678118654757 0.70710678118654757 0.75 forward I I I I #
loop $-1 $-1 $186 $52 #
coedge $-1 $117 $117 $187 $188 reversed $73 $-1 #
face $-1 $-1 $189 $41 $-1 $190 forward single #
loop $-1 $191 $192 $75 #
cone-surface $-1 64.291539435268788 -33.370543861885949 3.9700211198746551 0 0.81915205242281985 -0.57357642473473569 0.75 0 0 1 I I -0.70710678118654757 0.70710678118654757 0.75 forward I I I I #
loop $-1 $-1 $193 $53 #
coedge $-1 $122 $122 $194 $195 reversed $76 $-1 #
face $-1 $196 $197 $42 $-1 $198 reversed single #
loop $-1 $-1 $199 $78 #
plane-surface $-1 -9.6665785925689889 1.0332382203159796e-006 68.099693640115277 0 0.86602541151947299 0.49999998660252726 1 0 0 forward_v I I I I #
coedge $-1 $200 $201 $202 $203 reversed $79 $-1 #
face $-1 $-1 $204 $43 $-1 $205 forward single #
loop $-1 $206 $207 $81 #
cone-surface $-1 -15.90505436933185 31.344061828123323 2.7420377600371069 0 -0.86602541151947299 -0.49999998660252726 1 0 0 1 I I -0.70710678118654746 0.70710678118654746 1 forward I I I I #
loop $-1 $-1 $208 $55 #
coedge $-1 $131 $131 $209 $210 reversed $82 $-1 #
face $-1 $-1 $211 $44 $-1 $212 forward single #
loop $-1 $213 $214 $84 #
cone-surface $-1 -3.4281028158061417 31.344061828123323 2.7420377600371069 0 -0.86602541151947299 -0.49999998660252726 1 0 0 1 I I -0.70710678118654746 0.70710678118654746 1 forward I I I I #
loop $-1 $-1 $215 $56 #
coedge $-1 $136 $136 $216 $217 reversed $85 $-1 #
face $-1 $218 $219 $45 $-1 $220 forward single #
loop $-1 $-1 $221 $87 #
plane-surface $-1 34.002751844771005 117.83887120091489 136.13399462179086 -1 0 0 0 0.86602541151947299 0.49999998660252726 forward_v I I I I #
coedge $-1 $222 $223 $224 $225 reversed $88 $-1 #
face $-1 $-1 $226 $46 $-1 $227 forward single #
loop $-1 $228 $229 $90 #
cone-surface $-1 13.207832588894803 31.344061828123323 2.7420377600371069 0 -0.86602541151947299 -0.49999998660252726 1 0 0 1 I I -0.70710678118654746 0.70710678118654746 1 forward I I I I #
loop $-1 $-1 $230 $58 #
coedge $-1 $145 $145 $231 $232 reversed $91 $-1 #
face $-1 $-1 $233 $47 $-1 $234 forward single #
loop $-1 $235 $236 $93 #
cone-surface $-1 25.684784142420511 31.344061828123323 2.7420377600371069 0 -0.86602541151947299 -0.49999998660252726 1 0 0 1 I I -0.70710678118654746 0.70710678118654746 1 forward I I I I #
loop $-1 $-1 $237 $59 #
coedge $-1 $150 $150 $238 $239 reversed $94 $-1 #
face $-1 $240 $241 $36 $-1 $242 reversed single #
loop $-1 $-1 $243 $96 #
plane-surface $-1 0 -38.560938390993933 0 0 1 0 0 0 1 forward_v I I I I #
coedge $-1 $244 $245 $246 $247 forward $97 $-1 #
coedge $-1 $248 $99 $249 $250 forward $61 $-1 #
coedge $-1 $99 $248 $251 $252 forward $61 $-1 #
coedge $-1 $253 $254 $99 $158 reversed $255 $-1 #
edge $-1 $256 -38.560938390993933 $257 38.560938390993933 $157 $258 forward 7 unknown #
face $-1 $259 $260 $37 $-1 $261 reversed single #
loop $-1 $-1 $262 $100 #
plane-surface $-1 -58.254573031562344 0 6.0073146764022169 -1 0 0 0 0 1 forward_v I I I I #
coedge $-1 $263 $264 $265 $266 forward $101 $-1 #
coedge $-1 $267 $103 $268 $269 reversed $64 $-1 #
coedge $-1 $103 $267 $270 $271 reversed $64 $-1 #
coedge $-1 $262 $272 $103 $166 reversed $160 $-1 #
edge $-1 $273 -38.560938390993933 $274 38.560938390993933 $165 $275 forward 7 unknown #
face $-1 $276 $277 $38 $-1 $278 reversed single #
loop $-1 $-1 $279 $104 #
plane-surface $-1 0 0 9.7079607247787791 0 0 1 1 0 0 forward_v I I I I #
coedge $-1 $280 $281 $282 $283 reversed $105 $-1 #
coedge $-1 $172 $107 $284 $285 reversed $67 $-1 #
coedge $-1 $107 $171 $280 $286 reversed $67 $-1 #
coedge $-1 $282 $287 $107 $174 forward $277 $-1 #
edge $-1 $288 30.041861372646714 $289 38.295922226598748 $173 $290 forward 7 unknown #
loop $-1 $-1 $180 $108 #
plane-surface $-1 58.677394381195498 -38.560938390993954 1.4538998708267172 0 -0.81915205242281985 0.57357642473473569 1 0 0 forward_v I I I I #
loop $-1 $-1 $291 $69 #
coedge $-1 $178 $178 $179 $292 reversed $109 $-1 #
coedge $-1 $179 $179 $178 $292 forward $111 $-1 #
coedge $-1 $180 $180 $112 $181 forward $175 $-1 #
edge $-1 $293 8.754794858201825e-016 $293 6.2831853071796013 $180 $294 forward 7 unknown #
loop $-1 $-1 $187 $113 #
plane-surface $-1 58.677394381195498 -38.560938390993954 1.4538998708267172 0 -0.81915205242281985 0.57357642473473569 1 0 0 forward_v I I I I #
loop $-1 $-1 $295 $72 #
coedge $-1 $185 $185 $186 $296 reversed $114 $-1 #
coedge $-1 $186 $186 $185 $296 forward $116 $-1 #
coedge $-1 $187 $187 $117 $188 forward $182 $-1 #
edge $-1 $297 8.754794858201825e-016 $297 6.2831853071796013 $187 $298 forward 7 unknown #
loop $-1 $-1 $194 $118 #
plane-surface $-1 58.677394381195498 -38.560938390993954 1.4538998708267172 0 -0.81915205242281985 0.57357642473473569 1 0 0 forward_v I I I I #
loop $-1 $-1 $299 $75 #
coedge $-1 $192 $192 $193 $300 reversed $119 $-1 #
coedge $-1 $193 $193 $192 $300 forward $121 $-1 #
coedge $-1 $194 $194 $122 $195 forward $189 $-1 #
edge $-1 $301 8.754794858201825e-016 $301 6.2831853071796013 $194 $302 forward 7 unknown #
face $-1 $303 $304 $42 $-1 $305 reversed single #
loop $-1 $-1 $306 $123 #
plane-surface $-1 4.8898648865443448 117.83887120091489 136.13399462179086 -1 0 0 0 0.86602541151947299 0.49999998660252726 forward_v I I I I #
coedge $-1 $307 $308 $309 $310 reversed $124 $-1 #
coedge $-1 $201 $126 $311 $312 reversed $79 $-1 #
coedge $-1 $126 $200 $307 $313 reversed $79 $-1 #
coedge $-1 $309 $314 $126 $203 forward $315 $-1 #
edge $-1 $316 20.358497209463515 $317 25.206953054533138 $202 $318 forward 7 unknown #
loop $-1 $-1 $209 $127 #
plane-surface $-1 -9.6665785925689889 1.0332382203159796e-006 68.099693640115277 0 0.86602541151947299 0.49999998660252726 1 0 0 forward_v I I I I #
loop $-1 $-1 $319 $81 #
coedge $-1 $207 $207 $208 $320 reversed $128 $-1 #
coedge $-1 $208 $208 $207 $320 forward $130 $-1 #
coedge $-1 $209 $209 $131 $210 forward $204 $-1 #
edge $-1 $321 -1.2090028166912898e-015 $321 6.2831853071795996 $209 $322 forward 7 unknown #
loop $-1 $-1 $216 $132 #
plane-surface $-1 -9.6665785925689889 1.0332382203159796e-006 68.099693640115277 0 0.86602541151947299 0.49999998660252726 1 0 0 forward_v I I I I #
loop $-1 $-1 $323 $84 #
coedge $-1 $214 $214 $215 $324 reversed $133 $-1 #
coedge $-1 $215 $215 $214 $324 forward $135 $-1 #
coedge $-1 $216 $216 $136 $217 forward $211 $-1 #
edge $-1 $325 -1.2090028166912898e-015 $325 6.2831853071795996 $216 $326 forward 7 unknown #
face $-1 $327 $328 $45 $-1 $329 forward single #
loop $-1 $-1 $330 $137 #
plane-surface $-1 0 0 9.7079607247787791 0 0 1 1 0 0 forward_v I I I I #
coedge $-1 $331 $332 $333 $334 reversed $138 $-1 #
coedge $-1 $335 $140 $336 $337 reversed $88 $-1 #
coedge $-1 $140 $335 $330 $338 reversed $88 $-1 #
coedge $-1 $339 $340 $140 $225 forward $328 $-1 #
edge $-1 $341 -77.121876781987908 $342 -67.424964832020436 $224 $343 forward 7 unknown #
loop $-1 $-1 $231 $141 #
plane-surface $-1 -9.6665785925689889 1.0332382203159796e-006 68.099693640115277 0 0.86602541151947299 0.49999998660252726 1 0 0 forward_v I I I I #
loop $-1 $-1 $344 $90 #
coedge $-1 $229 $229 $230 $345 reversed $142 $-1 #
coedge $-1 $230 $230 $229 $345 forward $144 $-1 #
coedge $-1 $231 $231 $145 $232 forward $226 $-1 #
edge $-1 $346 -1.2090028166912898e-015 $346 6.2831853071795996 $231 $347 forward 7 unknown #
loop $-1 $-1 $238 $146 #
plane-surface $-1 -9.6665785925689889 1.0332382203159796e-006 68.099693640115277 0 0.86602541151947299 0.49999998660252726 1 0 0 forward_v I I I I #
loop $-1 $-1 $348 $93 #
coedge $-1 $236 $236 $237 $349 reversed $147 $-1 #
coedge $-1 $237 $237 $236 $349 forward $149 $-1 #
coedge $-1 $238 $238 $150 $239 forward $233 $-1 #
edge $-1 $350 -1.2090028166912898e-015 $350 6.2831853071795996 $238 $351 forward 7 unknown #
face $-1 $352 $353 $36 $-1 $354 reversed single #
loop $-1 $-1 $355 $151 #
plane-surface $-1 -68.03430280465102 0 0 1 0 0 0 0 -1 forward_v I I I I #
coedge $-1 $356 $251 $357 $358 forward $152 $-1 #
coedge $-1 $359 $154 $356 $360 forward $97 $-1 #
coedge $-1 $154 $359 $361 $362 forward $97 $-1 #
coedge $-1 $254 $253 $154 $247 reversed $255 $-1 #
edge $-1 $363 -38.560938390993933 $364 38.560938390993933 $246 $365 forward 7 unknown #
coedge $-1 $156 $155 $366 $367 forward $61 $-1 #
coedge $-1 $368 $369 $155 $250 reversed $353 $-1 #
edge $-1 $257 -68.03430280465102 $370 68.03430280465102 $249 $371 forward 7 unknown #
coedge $-1 $243 $372 $156 $252 reversed $152 $-1 #
edge $-1 $373 -68.03430280465102 $256 68.03430280465102 $251 $374 forward 7 unknown #
coedge $-1 $246 $157 $372 $375 forward $255 $-1 #
coedge $-1 $157 $246 $368 $376 reversed $255 $-1 #
loop $-1 $-1 $253 $352 #
vertex $-1 $158 $377 #
vertex $-1 $158 $378 #
straight-curve $-1 68.03430280465102 0 9.7079607247787791 0 1 0 I I #
face $-1 $379 $380 $37 $-1 $381 reversed single #
loop $-1 $-1 $382 $159 #
plane-surface $-1 0 -38.560938390993933 0 0 1 0 0 0 1 forward_v I I I I #
coedge $-1 $265 $165 $383 $384 reversed $160 $-1 #
coedge $-1 $385 $162 $382 $386 reversed $101 $-1 #
coedge $-1 $162 $385 $387 $388 reversed $101 $-1 #
coedge $-1 $272 $262 $162 $266 reversed $160 $-1 #
edge $-1 $389 -38.560938390993933 $390 38.560938390993933 $265 $391 forward 7 unknown #
coedge $-1 $164 $163 $392 $393 reversed $64 $-1 #
coedge $-1 $394 $395 $163 $269 forward $396 $-1 #
edge $-1 $397 -36.462083845597675 $274 -26.682354072509003 $268 $398 forward 7 unknown #
coedge $-1 $399 $383 $164 $271 forward $260 $-1 #
edge $-1 $273 26.682354072509003 $400 36.462083845597675 $270 $401 forward 7 unknown #
coedge $-1 $165 $265 $394 $402 reversed $160 $-1 #
vertex $-1 $271 $403 #
vertex $-1 $269 $404 #
straight-curve $-1 -58.254573031562344 0 8.6919878569675078 0 1 0 I I #
face $-1 $-1 $405 $38 $-1 $406 reversed single #
loop $-1 $-1 $173 $167 #
plane-surface $-1 0 -38.560938390993933 0 0 1 0 0 0 1 forward_v I I I I #
coedge $-1 $284 $407 $408 $409 forward $168 $-1 #
coedge $-1 $408 $170 $172 $286 forward $105 $-1 #
coedge $-1 $170 $408 $410 $411 reversed $105 $-1 #
coedge $-1 $412 $173 $170 $283 forward $277 $-1 #
edge $-1 $289 19.981788767142227 $413 38.695605614053271 $282 $414 forward 7 unknown #
coedge $-1 $415 $279 $171 $285 forward $168 $-1 #
edge $-1 $416 -42.229525038428932 $288 -36.449969582088535 $284 $417 forward 7 unknown #
edge $-1 $289 3.7145213117919725e-014 $416 10.076347644541556 $172 $418 forward 7 unknown #
coedge $-1 $173 $412 $415 $419 reversed $277 $-1 #
vertex $-1 $419 $420 #
vertex $-1 $174 $421 #
straight-curve $-1 49.320485957739976 -38.560938390993933 39.749822097425493 0 0 -1 I I #
coedge $-1 $291 $291 $-1 $422 reversed $177 $-1 #
edge $-1 $423 0 $423 6.2831853071796004 $178 $424 forward 7 unknown #
vertex $-1 $181 $425 #
ellipse-curve $-1 53.063249327122179 -35.671160662823738 5.5809302978027571 0 -0.81915205242281985 0.57357642473473569 1.5 0 0 1 I I #
coedge $-1 $295 $295 $-1 $426 reversed $184 $-1 #
edge $-1 $427 0 $427 6.2831853071796004 $185 $428 forward 7 unknown #
vertex $-1 $188 $429 #
ellipse-curve $-1 58.677394381195484 -35.671160662823738 5.5809302978027571 0 -0.81915205242281985 0.57357642473473569 1.5 0 0 1 I I #
coedge $-1 $299 $299 $-1 $430 reversed $191 $-1 #
edge $-1 $431 0 $431 6.2831853071796004 $192 $432 forward 7 unknown #
vertex $-1 $195 $433 #
ellipse-curve $-1 64.291539435268788 -35.671160662823738 5.5809302978027571 0 -0.81915205242281985 0.57357642473473569 1.5 0 0 1 I I #
face $-1 $-1 $315 $42 $-1 $434 forward single #
loop $-1 $-1 $435 $196 #
plane-surface $-1 0 38.560938390993933 0 0 -1 0 0 0 -1 forward_v I I I I #
coedge $-1 $436 $437 $438 $439 reversed $197 $-1 #
coedge $-1 $440 $199 $201 $313 forward $124 $-1 #
coedge $-1 $199 $440 $436 $441 forward $124 $-1 #
coedge $-1 $438 $202 $199 $310 forward $315 $-1 #
edge $-1 $317 -19.389732775397828 $442 9.7231541828288393 $309 $443 forward 7 unknown #
coedge $-1 $444 $445 $200 $312 forward $304 $-1 #
edge $-1 $446 -66.75680874805532 $316 -58.359036586116652 $311 $447 forward 7 unknown #
edge $-1 $317 67.424964832020436 $446 77.121876781987908 $201 $448 forward 7 unknown #
coedge $-1 $202 $438 $444 $449 forward $315 $-1 #
loop $-1 $-1 $438 $303 #
vertex $-1 $312 $450 #
vertex $-1 $203 $451 #
straight-curve $-1 -24.223022071682323 58.919435600457447 9.7079607247787791 0 -1 0 I I #
coedge $-1 $319 $319 $-1 $452 reversed $206 $-1 #
edge $-1 $453 0 $453 6.2831853071796004 $207 $454 forward 7 unknown #
vertex $-1 $210 $455 #
ellipse-curve $-1 -15.90505436933185 36.136710468459114 5.5090746438094635 0 0.86602541151947299 0.49999998660252726 2 0 0 1 I I #
coedge $-1 $323 $323 $-1 $456 reversed $213 $-1 #
edge $-1 $457 0 $457 6.2831853071796004 $214 $458 forward 7 unknown #
vertex $-1 $217 $459 #
ellipse-curve $-1 -3.4281028158061417 36.136710468459114 5.5090746438094635 0 0.86602541151947299 0.49999998660252726 2 0 0 1 I I #
face $-1 $-1 $460 $45 $-1 $461 reversed single #
loop $-1 $-1 $339 $218 #
plane-surface $-1 4.8898648865443448 117.83887120091489 136.13399462179086 -1 0 0 0 0.86602541151947299 0.49999998660252726 forward_v I I I I #
coedge $-1 $333 $462 $223 $338 forward $219 $-1 #
coedge $-1 $332 $221 $335 $463 reversed $138 $-1 #
coedge $-1 $221 $331 $464 $465 reversed $138 $-1 #
coedge $-1 $466 $330 $221 $334 forward $219 $-1 #
edge $-1 $467 -25.206953054533138 $468 -20.358497209463515 $333 $469 forward 7 unknown #
coedge $-1 $223 $222 $331 $463 forward $88 $-1 #
coedge $-1 $470 $464 $222 $337 forward $460 $-1 #
edge $-1 $471 -38.836041141055503 $341 -9.7231541828288393 $336 $472 forward 7 unknown #
edge $-1 $342 9.7231541828288393 $467 38.836041141055503 $330 $473 forward 7 unknown #
coedge $-1 $340 $224 $462 $474 reversed $328 $-1 #
coedge $-1 $224 $339 $470 $475 reversed $328 $-1 #
vertex $-1 $337 $476 #
vertex $-1 $338 $477 #
straight-curve $-1 4.8898648865443448 1.0332382203159796e-006 68.099693640115277 0 -0.49999998660252726 0.86602541151947299 I I #
coedge $-1 $344 $344 $-1 $478 reversed $228 $-1 #
edge $-1 $479 0 $479 6.2831853071796004 $229 $480 forward 7 unknown #
vertex $-1 $232 $481 #
ellipse-curve $-1 13.207832588894803 36.136710468459114 5.5090746438094635 0 0.86602541151947299 0.49999998660252726 2 0 0 1 I I #
coedge $-1 $348 $348 $-1 $482 reversed $235 $-1 #
edge $-1 $483 0 $483 6.2831853071796004 $236 $484 forward 7 unknown #
vertex $-1 $239 $485 #
ellipse-curve $-1 25.684784142420511 36.136710468459114 5.5090746438094635 0 0.86602541151947299 0.49999998660252726 2 0 0 1 I I #
face $-1 $-1 $255 $36 $-1 $486 reversed single #
loop $-1 $-1 $368 $240 #
plane-surface $-1 0 38.560938390993933 0 0 -1 0 0 0 -1 forward_v I I I I #
coedge $-1 $487 $366 $369 $488 forward $241 $-1 #
coedge $-1 $372 $243 $244 $360 reversed $152 $-1 #
coedge $-1 $366 $487 $243 $358 reversed $241 $-1 #
edge $-1 $373 -9.7079607247787791 $489 9.7079607247787791 $357 $490 forward 7 unknown #
coedge $-1 $245 $244 $487 $491 forward $97 $-1 #
edge $-1 $364 -68.03430280465102 $489 68.03430280465102 $356 $492 forward 7 unknown #
coedge $-1 $369 $368 $245 $362 reversed $353 $-1 #
edge $-1 $493 -68.03430280465102 $363 68.03430280465102 $361 $494 forward 7 unknown #
vertex $-1 $247 $495 #
vertex $-1 $375 $496 #
straight-curve $-1 68.03430280465102 0 -9.7079607247787791 0 -1 0 I I #
coedge $-1 $355 $357 $248 $367 reversed $241 $-1 #
edge $-1 $370 -38.560938390993933 $373 38.560938390993933 $366 $497 forward 7 unknown #
coedge $-1 $361 $249 $254 $376 forward $353 $-1 #
coedge $-1 $249 $361 $355 $488 reversed $353 $-1 #
vertex $-1 $250 $498 #
straight-curve $-1 0 38.560938390993933 9.7079607247787791 -1 0 0 I I #
coedge $-1 $251 $356 $253 $375 reversed $152 $-1 #
vertex $-1 $367 $499 #
straight-curve $-1 0 -38.560938390993933 9.7079607247787791 1 0 0 I I #
edge $-1 $256 -9.7079607247787791 $364 9.7079607247787791 $253 $500 forward 7 unknown #
edge $-1 $257 -9.7079607247787791 $363 9.7079607247787791 $254 $501 forward 7 unknown #
point $-1 68.03430280465102 -38.560938390993933 9.7079607247787791 #
point $-1 68.03430280465102 38.560938390993933 9.7079607247787791 #
face $-1 $-1 $396 $37 $-1 $502 reversed single #
loop $-1 $-1 $503 $259 #
plane-surface $-1 -68.03430280465102 0 0 1 0 0 0 0 -1 forward_v I I I I #
coedge $-1 $383 $399 $263 $386 forward $260 $-1 #
coedge $-1 $270 $382 $262 $384 forward $260 $-1 #
edge $-1 $390 0.31898415763581678 $273 5.6883305187663993 $383 $504 forward 7 unknown #
coedge $-1 $264 $263 $503 $505 reversed $101 $-1 #
edge $-1 $506 -36.462083845597675 $390 -26.682354072509003 $382 $507 forward 7 unknown #
coedge $-1 $395 $394 $264 $388 forward $396 $-1 #
edge $-1 $389 26.682354072509003 $508 36.462083845597675 $387 $509 forward 7 unknown #
vertex $-1 $388 $510 #
vertex $-1 $386 $511 #
straight-curve $-1 -58.254573031562344 0 3.3226414958369253 0 -1 0 I I #
coedge $-1 $512 $513 $267 $393 forward $380 $-1 #
edge $-1 $400 -38.560938390993933 $397 38.560938390993933 $392 $514 forward 7 unknown #
coedge $-1 $387 $268 $272 $402 forward $396 $-1 #
coedge $-1 $268 $387 $512 $515 reversed $396 $-1 #
loop $-1 $-1 $387 $379 #
vertex $-1 $515 $516 #
straight-curve $-1 -31.572218959053341 38.560938390993933 8.6919878569675078 1 0 0 I I #
coedge $-1 $382 $270 $513 $517 forward $260 $-1 #
vertex $-1 $517 $518 #
straight-curve $-1 -31.572218959053341 -38.560938390993933 8.6919878569675078 -1 0 0 I I #
edge $-1 $274 -5.6883305187663993 $389 -0.31898415763581678 $394 $519 forward 7 unknown #
point $-1 -58.254573031562344 -38.560938390993933 8.6919878569675078 #
point $-1 -58.254573031562344 38.560938390993933 8.6919878569675078 #
loop $-1 $-1 $410 $276 #
plane-surface $-1 68.03430280465102 0 0 -1 0 0 0 0 1 forward_v I I I I #
coedge $-1 $279 $415 $520 $521 forward $168 $-1 #
coedge $-1 $281 $280 $279 $409 reversed $105 $-1 #
edge $-1 $522 -38.695605614053271 $416 -19.981788767142227 $279 $523 forward 7 unknown #
coedge $-1 $520 $524 $281 $411 forward $405 $-1 #
edge $-1 $413 -10.463340056758838 $522 -0.38699241221731923 $410 $525 forward 7 unknown #
coedge $-1 $287 $282 $524 $526 reversed $277 $-1 #
vertex $-1 $283 $527 #
straight-curve $-1 29.338697190597749 -38.560938390993933 1.4538998708267385 1 0 0 I I #
coedge $-1 $407 $284 $287 $419 forward $168 $-1 #
vertex $-1 $285 $528 #
straight-curve $-1 49.320485957739976 -75.010907973082467 9.7079607247787791 0 -1 0 I I #
straight-curve $-1 49.320485957739976 -38.560938390993954 1.4538998708267172 0 0.57357642473473569 0.81915205242281985 I I #
edge $-1 $288 49.320485957739976 $529 68.03430280465102 $287 $530 forward 7 unknown #
point $-1 49.320485957739976 -38.560938390993933 9.7079607247787791 #
point $-1 49.320485957739976 -38.560938390993933 1.4538998708267477 #
edge $-1 $531 1 $531 0 $291 $-1 forward 7 unknown #
vertex $-1 $292 $532 #
ellipse-curve $-1 53.063249327122179 -33.984907901203066 4.4002034384257067 0 -0.81915205242281985 0.57357642473473569 1.5 0 0 1 I I #
point $-1 54.563249327122179 -35.671160662823716 5.5809302978027437 #
edge $-1 $533 1 $533 0 $295 $-1 forward 7 unknown #
vertex $-1 $296 $534 #
ellipse-curve $-1 58.677394381195484 -33.984907901203066 4.4002034384257067 0 -0.81915205242281985 0.57357642473473569 1.5 0 0 1 I I #
point $-1 60.177394381195484 -35.671160662823716 5.5809302978027437 #
edge $-1 $535 1 $535 0 $299 $-1 forward 7 unknown #
vertex $-1 $300 $536 #
ellipse-curve $-1 64.291539435268788 -33.984907901203066 4.4002034384257067 0 -0.81915205242281985 0.57357642473473569 1.5 0 0 1 I I #
point $-1 65.791539435268788 -35.671160662823716 5.5809302978027437 #
plane-surface $-1 0 0 9.7079607247787791 0 0 1 1 0 0 forward_v I I I I #
coedge $-1 $445 $444 $437 $537 forward $304 $-1 #
coedge $-1 $437 $306 $308 $441 reversed $197 $-1 #
coedge $-1 $306 $436 $435 $537 reversed $197 $-1 #
coedge $-1 $314 $309 $306 $439 forward $315 $-1 #
edge $-1 $442 -25.206953054533138 $538 -20.358497209463515 $438 $539 forward 7 unknown #
coedge $-1 $308 $307 $445 $540 reversed $124 $-1 #
edge $-1 $541 -77.121876781987908 $442 -67.424964832020436 $436 $542 forward 7 unknown #
vertex $-1 $310 $543 #
straight-curve $-1 -4.8332892962844944 33.71248254592431 9.7079607247787791 1 0 0 I I #
coedge $-1 $435 $311 $314 $449 reversed $304 $-1 #
coedge $-1 $311 $435 $440 $540 forward $304 $-1 #
vertex $-1 $312 $544 #
straight-curve $-1 -24.223022071682323 38.560938390993933 68.066997310895431 0 0 1 I I #
straight-curve $-1 -24.223022071682323 1.0332382203159796e-006 68.099693640115277 0 0.49999998660252726 -0.86602541151947299 I I #
edge $-1 $538 -4.8898648865443448 $316 24.223022071682323 $444 $545 forward 7 unknown #
point $-1 -24.223022071682323 38.560938390993933 9.7079607247787791 #
point $-1 -24.223022071682323 33.71248254592431 9.7079607247787862 #
edge $-1 $546 1 $546 0 $319 $-1 forward 7 unknown #
vertex $-1 $320 $547 #
ellipse-curve $-1 -15.90505436933185 32.210087239642796 3.242037746639634 0 0.86602541151947299 0.49999998660252726 2 0 0 1 I I #
point $-1 -13.90505436933185 36.136710468459135 5.5090746438094786 #
edge $-1 $548 1 $548 0 $323 $-1 forward 7 unknown #
vertex $-1 $324 $549 #
ellipse-curve $-1 -3.4281028158061417 32.210087239642796 3.242037746639634 0 0.86602541151947299 0.49999998660252726 2 0 0 1 I I #
point $-1 -1.4281028158061417 36.136710468459135 5.5090746438094786 #
loop $-1 $-1 $336 $327 #
plane-surface $-1 0 38.560938390993933 0 0 -1 0 0 0 -1 forward_v I I I I #
coedge $-1 $330 $466 $339 $474 forward $219 $-1 #
edge $-1 $471 -77.121876781987908 $467 -67.424964832020436 $331 $550 forward 7 unknown #
coedge $-1 $336 $551 $332 $465 forward $460 $-1 #
edge $-1 $468 58.359036586116652 $471 66.75680874805532 $464 $552 forward 7 unknown #
coedge $-1 $462 $333 $551 $553 forward $219 $-1 #
vertex $-1 $334 $554 #
vertex $-1 $553 $555 #
straight-curve $-1 34.002751844771005 58.919435600457447 9.7079607247787791 0 1 0 I I #
coedge $-1 $551 $336 $340 $475 forward $460 $-1 #
vertex $-1 $465 $556 #
straight-curve $-1 -4.8332892962844944 38.560938390993933 1.3101885628401106 -1 0 0 I I #
straight-curve $-1 -4.8332892962844944 33.71248254592431 9.7079607247787791 1 0 0 I I #
edge $-1 $557 20.358497209463515 $342 25.206953054533138 $462 $558 forward 7 unknown #
edge $-1 $341 -66.75680874805532 $557 -58.359036586116652 $470 $559 forward 7 unknown #
point $-1 4.8898648865443448 38.560938390993933 1.3101885628401106 #
point $-1 4.8898648865443448 33.71248254592431 9.7079607247787862 #
edge $-1 $560 1 $560 0 $344 $-1 forward 7 unknown #
vertex $-1 $345 $561 #
ellipse-curve $-1 13.207832588894803 32.210087239642796 3.242037746639634 0 0.86602541151947299 0.49999998660252726 2 0 0 1 I I #
point $-1 15.207832588894803 36.136710468459135 5.5090746438094786 #
edge $-1 $562 1 $562 0 $348 $-1 forward 7 unknown #
vertex $-1 $349 $563 #
ellipse-curve $-1 25.684784142420511 32.210087239642796 3.242037746639634 0 0.86602541151947299 0.49999998660252726 2 0 0 1 I I #
point $-1 27.684784142420511 36.136710468459135 5.5090746438094786 #
plane-surface $-1 68.03430280465102 0 0 -1 0 0 0 0 1 forward_v I I I I #
coedge $-1 $357 $355 $359 $491 reversed $241 $-1 #
edge $-1 $370 -9.7079607247787791 $493 9.7079607247787791 $369 $564 forward 7 unknown #
vertex $-1 $491 $565 #
straight-curve $-1 -68.03430280465102 -38.560938390993933 0 0 0 -1 I I #
edge $-1 $489 -38.560938390993933 $493 38.560938390993933 $487 $566 forward 7 unknown #
straight-curve $-1 0 -38.560938390993933 -9.7079607247787791 -1 0 0 I I #
vertex $-1 $362 $567 #
straight-curve $-1 0 38.560938390993933 -9.7079607247787791 1 0 0 I I #
point $-1 68.03430280465102 38.560938390993933 -9.7079607247787791 #
point $-1 68.03430280465102 -38.560938390993933 -9.7079607247787791 #
straight-curve $-1 -68.03430280465102 0 9.7079607247787791 0 -1 0 I I #
point $-1 -68.03430280465102 38.560938390993933 9.7079607247787791 #
point $-1 -68.03430280465102 -38.560938390993933 9.7079607247787791 #
straight-curve $-1 68.03430280465102 -38.560938390993933 0 0 0 -1 I I #
straight-curve $-1 68.03430280465102 38.560938390993933 0 0 0 -1 I I #
plane-surface $-1 0 38.560938390993933 0 0 -1 0 0 0 -1 forward_v I I I I #
coedge $-1 $513 $512 $385 $505 forward $380 $-1 #
straight-curve $-1 -58.254573031562344 -38.560938390993933 3.0036573382011085 0 0 1 I I #
edge $-1 $508 -38.560938390993933 $506 38.560938390993933 $503 $568 forward 7 unknown #
vertex $-1 $386 $569 #
straight-curve $-1 -31.572218959053341 -38.560938390993933 3.3226414958369253 1 0 0 I I #
vertex $-1 $388 $570 #
straight-curve $-1 -31.572218959053341 38.560938390993933 3.3226414958369253 -1 0 0 I I #
point $-1 -58.254573031562344 38.560938390993933 3.3226414958369253 #
point $-1 -58.254573031562344 -38.560938390993933 3.3226414958369253 #
coedge $-1 $503 $392 $395 $515 forward $380 $-1 #
coedge $-1 $392 $503 $399 $517 reversed $380 $-1 #
straight-curve $-1 -68.03430280465102 0 8.6919878569675078 0 1 0 I I #
edge $-1 $397 -8.6919878569675078 $508 -3.3226414958369253 $395 $571 forward 7 unknown #
point $-1 -68.03430280465102 38.560938390993933 8.6919878569675078 #
edge $-1 $400 -8.6919878569675078 $506 -3.3226414958369253 $513 $572 forward 7 unknown #
point $-1 -68.03430280465102 -38.560938390993933 8.6919878569675078 #
straight-curve $-1 -58.254573031562344 38.560938390993933 3.0036573382011085 0 0 -1 I I #
coedge $-1 $524 $410 $407 $521 reversed $405 $-1 #
edge $-1 $529 -38.560938390993933 $522 -32.781382934653536 $520 $573 forward 7 unknown #
vertex $-1 $411 $574 #
straight-curve $-1 29.338697190597749 -32.781382934653536 9.7079607247787791 -1 0 0 I I #
coedge $-1 $410 $520 $412 $526 forward $405 $-1 #
straight-curve $-1 68.03430280465102 -32.559413210454451 10.024966353518652 0 0.57357642473473569 0.81915205242281985 I I #
edge $-1 $529 -9.7079607247787791 $413 -1.4538998708267477 $524 $575 forward 7 unknown #
point $-1 68.03430280465102 -38.560938390993933 1.4538998708267477 #
point $-1 49.320485957739976 -32.781382934653536 9.7079607247787791 #
vertex $-1 $521 $576 #
straight-curve $-1 0 -38.560938390993933 9.7079607247787791 1 0 0 I I #
vertex $-1 $422 $577 #
point $-1 54.563249327122179 -33.984907901203066 4.4002034384257067 #
vertex $-1 $426 $578 #
point $-1 60.177394381195484 -33.984907901203066 4.4002034384257067 #
vertex $-1 $430 $579 #
point $-1 65.791539435268788 -33.984907901203066 4.4002034384257067 #
edge $-1 $538 58.359036586116652 $541 66.75680874805532 $435 $580 forward 7 unknown #
vertex $-1 $449 $581 #
straight-curve $-1 4.8898648865443448 58.919435600457447 9.7079607247787791 0 1 0 I I #
edge $-1 $541 -9.7231541828288393 $446 19.389732775397828 $445 $582 forward 7 unknown #
vertex $-1 $540 $583 #
straight-curve $-1 4.8898648865443448 1.0332382203159796e-006 68.099693640115277 0 -0.49999998660252726 0.86602541151947299 I I #
point $-1 4.8898648865443448 33.71248254592431 9.7079607247787862 #
point $-1 -24.223022071682323 38.560938390993933 1.3101885628401106 #
straight-curve $-1 0 38.560938390993933 9.7079607247787791 -1 0 0 I I #
vertex $-1 $452 $584 #
point $-1 -13.90505436933185 32.210087239642796 3.242037746639634 #
vertex $-1 $456 $585 #
point $-1 -1.4281028158061417 32.210087239642796 3.242037746639634 #
straight-curve $-1 34.002751844771005 1.0332382203159796e-006 68.099693640115277 0 -0.49999998660252726 0.86602541151947299 I I #
coedge $-1 $464 $470 $466 $553 reversed $460 $-1 #
straight-curve $-1 34.002751844771005 38.560938390993933 68.066997310895431 0 0 -1 I I #
edge $-1 $468 -34.002751844771005 $557 -4.8898648865443448 $551 $586 forward 7 unknown #
point $-1 34.002751844771005 33.71248254592431 9.7079607247787862 #
point $-1 34.002751844771005 38.560938390993933 9.7079607247787791 #
point $-1 34.002751844771005 38.560938390993933 1.3101885628401106 #
vertex $-1 $475 $587 #
straight-curve $-1 4.8898648865443448 58.919435600457447 9.7079607247787791 0 -1 0 I I #
straight-curve $-1 4.8898648865443448 38.560938390993933 68.066997310895431 0 0 1 I I #
vertex $-1 $478 $588 #
point $-1 15.207832588894803 32.210087239642796 3.242037746639634 #
vertex $-1 $482 $589 #
point $-1 27.684784142420511 32.210087239642796 3.242037746639634 #
straight-curve $-1 -68.03430280465102 38.560938390993933 0 0 0 -1 I I #
point $-1 -68.03430280465102 -38.560938390993933 -9.7079607247787791 #
straight-curve $-1 -68.03430280465102 0 -9.7079607247787791 0 1 0 I I #
point $-1 -68.03430280465102 38.560938390993933 -9.7079607247787791 #
straight-curve $-1 -68.03430280465102 0 3.3226414958369253 0 -1 0 I I #
point $-1 -68.03430280465102 -38.560938390993933 3.3226414958369253 #
point $-1 -68.03430280465102 38.560938390993933 3.3226414958369253 #
straight-curve $-1 -68.03430280465102 38.560938390993933 0 0 0 -1 I I #
straight-curve $-1 -68.03430280465102 -38.560938390993933 0 0 0 -1 I I #
straight-curve $-1 68.03430280465102 0 9.7079607247787791 0 1 0 I I #
point $-1 68.03430280465102 -32.781382934653536 9.7079607247787791 #
straight-curve $-1 68.03430280465102 -38.560938390993933 0 0 0 -1 I I #
point $-1 68.03430280465102 -38.560938390993933 9.7079607247787791 #
point $-1 53.063249327122179 -32.756179822568832 3.5398388013236035 #
point $-1 58.677394381195484 -32.756179822568832 3.5398388013236035 #
point $-1 64.291539435268788 -32.756179822568832 3.5398388013236035 #
straight-curve $-1 4.8898648865443448 38.560938390993933 68.066997310895431 0 0 -1 I I #
point $-1 4.8898648865443448 38.560938390993933 9.7079607247787791 #
straight-curve $-1 -4.8332892962844944 38.560938390993933 1.3101885628401106 -1 0 0 I I #
point $-1 4.8898648865443448 38.560938390993933 1.3101885628401106 #
point $-1 -15.90505436933185 30.47803641660385 2.2420377734345798 #
point $-1 -3.4281028158061417 30.47803641660385 2.2420377734345798 #
straight-curve $-1 0 38.560938390993933 9.7079607247787791 -1 0 0 I I #
point $-1 4.8898648865443448 38.560938390993933 9.7079607247787791 #
point $-1 13.207832588894803 30.47803641660385 2.2420377734345798 #
point $-1 25.684784142420511 30.47803641660385 2.2420377734345798 #
End-of-ACIS-data 