500 0 5 0           
7 Unknown 11 ACIS 5.0 NT 24 Thu Mar 25 17:18:51 1999 
-1 9.9999999999999995e-007 1e-010 
body $-1 $5 $-1 $6 #
body $-1 $7 $-1 $8 #
body $-1 $9 $-1 $10 #
body $-1 $11 $-1 $12 #
body $-1 $13 $-1 $14 #
lump $-1 $-1 $15 $0 #
transform $-1 1 0 0 0 1 0 0 0 1 75.254982146671949 50.47781841813589 15.462076585065155 1 rotate no_reflect no_shear #
lump $-1 $-1 $16 $1 #
transform $-1 1 0 0 0 1 0 0 0 1 75.254982146671949 50.47781841813589 15.462076585065155 1 rotate no_reflect no_shear #
lump $-1 $-1 $17 $2 #
transform $-1 1 0 0 0 1 0 0 0 1 75.254982146671949 50.47781841813589 15.462076585065155 1 rotate no_reflect no_shear #
lump $-1 $-1 $18 $3 #
transform $-1 1 0 0 0 1 0 0 0 1 75.254982146671949 50.47781841813589 15.462076585065155 1 rotate no_reflect no_shear #
lump $-1 $-1 $19 $4 #
transform $-1 1 0 0 0 1 0 0 0 1 75.254982146671949 50.47781841813589 15.462076585065155 1 rotate no_reflect no_shear #
shell $-1 $-1 $-1 $20 $-1 $5 #
shell $-1 $-1 $-1 $21 $-1 $7 #
shell $-1 $-1 $-1 $22 $-1 $9 #
shell $-1 $-1 $-1 $23 $-1 $11 #
shell $-1 $-1 $-1 $24 $-1 $13 #
face $-1 $25 $26 $15 $-1 $27 forward single #
face $-1 $28 $29 $16 $-1 $30 forward single #
face $-1 $31 $32 $17 $-1 $33 forward single #
face $-1 $34 $35 $18 $-1 $36 reversed single #
face $-1 $37 $38 $19 $-1 $39 reversed single #
face $-1 $40 $41 $15 $-1 $42 reversed single #
loop $-1 $-1 $43 $20 #
plane-surface $-1 0 0 15.462076585065155 0 0 1 1 0 0 forward_v I I I I #
face $-1 $44 $45 $16 $-1 $46 reversed single #
loop $-1 $-1 $47 $21 #
plane-surface $-1 0 -59.198775027929166 -12.185628251047962 0 0 1 1 0 0 forward_v I I I I #
face $-1 $48 $49 $17 $-1 $50 forward single #
loop $-1 $-1 $51 $22 #
plane-surface $-1 41.957402496672685 -2.8741997397150918 216.79857015644896 0 -1 0 -0.5877852598018023 0 -0.80901698891910034 forward_v I I I I #
face $-1 $52 $53 $18 $-1 $54 reversed single #
loop $-1 $55 $56 $23 #
cone-surface $-1 68.708329322164886 -9.3328239930996943 10.429866889900044 -0.5877852598018023 0 -0.80901698891910034 0.80901698891910034 0 -0.5877852598018023 1 I I 0 1 1 forward I I I I #
face $-1 $57 $58 $19 $-1 $59 reversed single #
loop $-1 $60 $61 $24 #
cone-surface $-1 68.708329322164886 -5.4576494410689378 10.429866889900044 -0.5877852598018023 0 -0.80901698891910034 0.80901698891910034 0 -0.5877852598018023 1 I I 0 1 1 forward I I I I #
face $-1 $62 $63 $15 $-1 $64 reversed single #
loop $-1 $-1 $65 $25 #
plane-surface $-1 0 0 -15.462076585065155 0 0 1 1 0 0 forward_v I I I I #
coedge $-1 $66 $67 $68 $69 forward $26 $-1 #
face $-1 $70 $71 $16 $-1 $72 forward single #
loop $-1 $-1 $73 $28 #
plane-surface $-1 0 -67.91973163772245 -13.823852418056559 0 1 0 0 0 1 forward_v I I I I #
coedge $-1 $74 $75 $76 $77 forward $29 $-1 #
face $-1 $78 $79 $17 $-1 $80 forward single #
loop $-1 $-1 $81 $31 #
plane-surface $-1 -46.510135968250438 -7.395236717084309 95.033452041526573 0.5877852598018023 0 0.80901698891910034 0.80901698891910034 0 -0.5877852598018023 forward_v I I I I #
coedge $-1 $82 $83 $84 $85 reversed $32 $-1 #
face $-1 $86 $87 $18 $-1 $88 forward single #
loop $-1 $89 $90 $34 #
cone-surface $-1 67.990042711459495 -9.3328239930996943 9.4412302045062475 -0.5877852598018023 0 -0.80901698891910034 0.40450849445955017 0 -0.29389262990090115 1 I I -0.70710678118654879 0.70710678118654635 0.5 forward I I I I #
loop $-1 $-1 $91 $23 #
coedge $-1 $56 $56 $92 $93 reversed $35 $-1 #
face $-1 $94 $95 $19 $-1 $96 reversed single #
loop $-1 $97 $98 $37 #
cone-surface $-1 67.990042711459495 -5.4576494410689378 9.4412302045062475 -0.5877852598018023 0 -0.80901698891910034 0.40450849445955017 0 -0.29389262990090115 1 I I -0.70710678118654879 0.70710678118654635 0.5 forward I I I I #
loop $-1 $-1 $99 $24 #
coedge $-1 $61 $61 $100 $101 reversed $38 $-1 #
face $-1 $102 $103 $15 $-1 $104 reversed single #
loop $-1 $-1 $105 $40 #
plane-surface $-1 0 -50.47781841813589 0 0 1 0 0 0 1 forward_v I I I I #
coedge $-1 $106 $107 $108 $109 forward $41 $-1 #
coedge $-1 $110 $43 $111 $112 forward $26 $-1 #
coedge $-1 $43 $110 $113 $114 forward $26 $-1 #
coedge $-1 $115 $116 $43 $69 reversed $117 $-1 #
edge $-1 $118 -50.47781841813589 $119 50.47781841813589 $68 $120 forward 7 unknown #
face $-1 $121 $122 $16 $-1 $123 reversed single #
loop $-1 $-1 $124 $44 #
plane-surface $-1 0 0 15.462076585065155 0 0 1 1 0 0 forward_v I I I I #
coedge $-1 $125 $126 $127 $128 forward $45 $-1 #
coedge $-1 $129 $47 $130 $131 reversed $29 $-1 #
coedge $-1 $47 $129 $126 $132 forward $29 $-1 #
coedge $-1 $133 $134 $47 $77 reversed $135 $-1 #
edge $-1 $136 -8.7209566097932836 $137 8.7209566097932765 $76 $138 forward 7 unknown #
face $-1 $139 $140 $17 $-1 $141 forward single #
loop $-1 $-1 $142 $48 #
plane-surface $-1 41.957402496672685 -11.916273694453526 216.79857015644896 0 1 0 0.5877852598018023 0 0.80901698891910034 forward_v I I I I #
coedge $-1 $143 $144 $145 $146 reversed $49 $-1 #
coedge $-1 $83 $51 $144 $147 forward $32 $-1 #
coedge $-1 $51 $82 $148 $149 reversed $32 $-1 #
coedge $-1 $150 $145 $51 $85 forward $140 $-1 #
edge $-1 $151 42.031763210930499 $152 54.276280898335607 $84 $153 forward 7 unknown #
face $-1 $154 $155 $18 $-1 $156 forward single #
loop $-1 $-1 $157 $52 #
plane-surface $-1 41.957402496672685 -2.8741997397150918 216.79857015644896 0 -1 0 -0.5877852598018023 0 -0.80901698891910034 forward_v I I I I #
loop $-1 $-1 $158 $34 #
coedge $-1 $90 $90 $91 $159 forward $53 $-1 #
coedge $-1 $91 $91 $90 $159 reversed $55 $-1 #
coedge $-1 $92 $92 $56 $93 forward $155 $-1 #
edge $-1 $160 0 $160 6.2831853071796004 $92 $161 forward 7 unknown #
face $-1 $162 $163 $19 $-1 $164 reversed single #
loop $-1 $165 $166 $57 #
cone-surface $-1 68.708329322164886 -9.3328239930996943 10.429866889900044 -0.5877852598018023 0 -0.80901698891910034 0.80901698891910034 0 -0.5877852598018023 1 I I 0 1 1 forward I I I I #
loop $-1 $-1 $167 $37 #
coedge $-1 $98 $98 $99 $168 forward $58 $-1 #
coedge $-1 $99 $99 $98 $168 reversed $60 $-1 #
coedge $-1 $100 $100 $61 $101 forward $169 $-1 #
edge $-1 $170 0 $170 6.2831853071796004 $100 $171 forward 7 unknown #
face $-1 $172 $173 $15 $-1 $174 reversed single #
loop $-1 $-1 $175 $62 #
plane-surface $-1 -75.254982146671949 0 0 1 0 0 0 0 -1 forward_v I I I I #
coedge $-1 $176 $113 $177 $178 forward $63 $-1 #
coedge $-1 $179 $65 $176 $180 forward $41 $-1 #
coedge $-1 $65 $179 $181 $182 forward $41 $-1 #
coedge $-1 $116 $115 $65 $109 reversed $117 $-1 #
edge $-1 $183 -50.47781841813589 $184 50.47781841813589 $108 $185 forward 7 unknown #
coedge $-1 $67 $66 $186 $187 forward $26 $-1 #
coedge $-1 $188 $189 $66 $112 reversed $173 $-1 #
edge $-1 $119 -75.254982146671949 $190 75.254982146671949 $111 $191 forward 7 unknown #
coedge $-1 $105 $192 $67 $114 reversed $63 $-1 #
edge $-1 $193 -75.254982146671949 $118 75.254982146671949 $113 $194 forward 7 unknown #
coedge $-1 $108 $68 $192 $195 forward $117 $-1 #
coedge $-1 $68 $108 $188 $196 reversed $117 $-1 #
loop $-1 $-1 $115 $172 #
vertex $-1 $69 $197 #
vertex $-1 $69 $198 #
straight-curve $-1 75.254982146671949 0 15.462076585065155 0 1 0 I I #
face $-1 $199 $200 $16 $-1 $201 reversed single #
loop $-1 $-1 $202 $70 #
plane-surface $-1 0 0 -15.462076585065155 0 0 1 1 0 0 forward_v I I I I #
coedge $-1 $203 $204 $205 $206 forward $71 $-1 #
coedge $-1 $207 $73 $208 $209 reversed $45 $-1 #
coedge $-1 $73 $207 $75 $132 reversed $45 $-1 #
coedge $-1 $210 $211 $73 $128 reversed $212 $-1 #
edge $-1 $213 -1.6382241670085964 $214 1.6382241670085964 $127 $215 forward 7 unknown #
coedge $-1 $75 $74 $210 $216 forward $29 $-1 #
coedge $-1 $217 $218 $74 $131 forward $200 $-1 #
edge $-1 $219 -75.254982146671949 $137 75.254982146671949 $130 $220 forward 7 unknown #
edge $-1 $213 -75.254982146671949 $136 75.254982146671949 $126 $221 forward 7 unknown #
coedge $-1 $222 $76 $207 $223 forward $135 $-1 #
coedge $-1 $76 $205 $217 $224 forward $135 $-1 #
loop $-1 $-1 $134 $225 #
vertex $-1 $77 $226 #
vertex $-1 $77 $227 #
straight-curve $-1 75.254982146671949 -59.198775027929166 -12.185628251047962 0 1 0 I I #
face $-1 $228 $229 $17 $-1 $230 forward single #
loop $-1 $-1 $231 $78 #
plane-surface $-1 0 0 15.462076585065155 0 0 1 1 0 0 forward_v I I I I #
coedge $-1 $232 $233 $231 $234 reversed $79 $-1 #
coedge $-1 $235 $81 $233 $236 reversed $49 $-1 #
coedge $-1 $81 $235 $82 $147 reversed $49 $-1 #
coedge $-1 $84 $231 $81 $146 forward $140 $-1 #
edge $-1 $237 -8.2186553359113717 $151 0.82341861882706269 $145 $238 forward 7 unknown #
edge $-1 $151 135.3749079779449 $239 150.5099642933439 $82 $240 forward 7 unknown #
coedge $-1 $241 $242 $83 $149 forward $243 $-1 #
edge $-1 $152 92.937208493159318 $239 101.83337150162103 $148 $244 forward 7 unknown #
coedge $-1 $245 $84 $242 $246 forward $140 $-1 #
vertex $-1 $146 $247 #
vertex $-1 $246 $248 #
straight-curve $-1 20.978701248336343 -2.8741997397150918 15.462076585065148 1 0 0 I I #
face $-1 $249 $250 $18 $-1 $251 forward single #
loop $-1 $252 $92 $86 #
plane-surface $-1 -46.510135968250438 -7.395236717084309 95.033452041526573 0.5877852598018023 0 0.80901698891910034 0.80901698891910034 0 -0.5877852598018023 forward_v I I I I #
coedge $-1 $253 $254 $255 $256 reversed $87 $-1 #
coedge $-1 $158 $158 $-1 $257 forward $89 $-1 #
edge $-1 $258 0 $258 6.2831853071796004 $90 $259 forward 7 unknown #
vertex $-1 $93 $260 #
ellipse-curve $-1 69.132723302969396 -9.3328239930996943 11.013995080834311 -0.5877852598018023 0 -0.80901698891910034 0.80901698891910034 0 -0.5877852598018023 1 I I #
face $-1 $261 $262 $19 $-1 $263 forward single #
loop $-1 $264 $265 $94 #
cone-surface $-1 67.990042711459495 -9.3328239930996943 9.4412302045062475 -0.5877852598018023 0 -0.80901698891910034 0.40450849445955017 0 -0.29389262990090115 1 I I -0.70710678118654879 0.70710678118654635 0.5 forward I I I I #
loop $-1 $-1 $266 $57 #
coedge $-1 $166 $166 $267 $268 reversed $95 $-1 #
coedge $-1 $167 $167 $-1 $269 forward $97 $-1 #
edge $-1 $270 0 $270 6.2831853071796004 $98 $271 forward 7 unknown #
loop $-1 $272 $100 $261 #
vertex $-1 $101 $273 #
ellipse-curve $-1 69.132723302969396 -5.4576494410689378 11.013995080834311 -0.5877852598018023 0 -0.80901698891910034 0.80901698891910034 0 -0.5877852598018023 1 I I #
face $-1 $-1 $117 $15 $-1 $274 reversed single #
loop $-1 $-1 $188 $102 #
plane-surface $-1 0 50.47781841813589 0 0 -1 0 0 0 -1 forward_v I I I I #
coedge $-1 $275 $186 $189 $276 forward $103 $-1 #
coedge $-1 $192 $105 $106 $180 reversed $63 $-1 #
coedge $-1 $186 $275 $105 $178 reversed $103 $-1 #
edge $-1 $193 -15.462076585065155 $277 15.462076585065155 $177 $278 forward 7 unknown #
coedge $-1 $107 $106 $275 $279 forward $41 $-1 #
edge $-1 $184 -75.254982146671949 $277 75.254982146671949 $176 $280 forward 7 unknown #
coedge $-1 $189 $188 $107 $182 reversed $173 $-1 #
edge $-1 $281 -75.254982146671949 $183 75.254982146671949 $181 $282 forward 7 unknown #
vertex $-1 $109 $283 #
vertex $-1 $195 $284 #
straight-curve $-1 75.254982146671949 0 -15.462076585065155 0 -1 0 I I #
coedge $-1 $175 $177 $110 $187 reversed $103 $-1 #
edge $-1 $190 -50.47781841813589 $193 50.47781841813589 $186 $285 forward 7 unknown #
coedge $-1 $181 $111 $116 $196 forward $173 $-1 #
coedge $-1 $111 $181 $175 $276 reversed $173 $-1 #
vertex $-1 $112 $286 #
straight-curve $-1 0 50.47781841813589 15.462076585065155 -1 0 0 I I #
coedge $-1 $113 $176 $115 $195 reversed $63 $-1 #
vertex $-1 $187 $287 #
straight-curve $-1 0 -50.47781841813589 15.462076585065155 1 0 0 I I #
edge $-1 $118 -15.462076585065155 $184 15.462076585065155 $115 $288 forward 7 unknown #
edge $-1 $119 -15.462076585065155 $183 15.462076585065155 $116 $289 forward 7 unknown #
point $-1 75.254982146671949 -50.47781841813589 15.462076585065155 #
point $-1 75.254982146671949 50.47781841813589 15.462076585065155 #
face $-1 $290 $212 $16 $-1 $291 reversed single #
loop $-1 $-1 $130 $121 #
plane-surface $-1 0 -50.47781841813589 0 0 1 0 0 0 1 forward_v I I I I #
coedge $-1 $208 $292 $222 $293 forward $122 $-1 #
coedge $-1 $294 $124 $295 $296 forward $71 $-1 #
coedge $-1 $124 $294 $297 $298 forward $71 $-1 #
coedge $-1 $134 $299 $124 $206 reversed $135 $-1 #
edge $-1 $300 -50.47781841813589 $301 50.47781841813589 $205 $302 forward 7 unknown #
coedge $-1 $126 $125 $133 $223 reversed $45 $-1 #
coedge $-1 $303 $202 $125 $209 forward $122 $-1 #
edge $-1 $304 -75.254982146671949 $214 75.254982146671949 $125 $305 forward 7 unknown #
coedge $-1 $306 $127 $129 $216 reversed $212 $-1 #
coedge $-1 $127 $307 $303 $308 reversed $212 $-1 #
loop $-1 $-1 $307 $199 #
vertex $-1 $216 $309 #
vertex $-1 $308 $310 #
straight-curve $-1 -75.254982146671949 -67.91973163772245 -13.823852418056559 0 0 -1 I I #
edge $-1 $219 -8.7209566097932765 $213 8.7209566097932836 $210 $311 forward 7 unknown #
coedge $-1 $297 $130 $134 $224 reversed $200 $-1 #
coedge $-1 $130 $297 $306 $312 forward $200 $-1 #
vertex $-1 $312 $313 #
straight-curve $-1 0 -50.47781841813589 -12.185628251047962 1 0 0 I I #
straight-curve $-1 0 -67.91973163772245 -12.185628251047962 1 0 0 I I #
coedge $-1 $299 $133 $202 $293 reversed $135 $-1 #
edge $-1 $136 -1.6382241670085964 $304 1.6382241670085964 $133 $314 forward 7 unknown #
edge $-1 $300 -15.462076585065155 $137 12.185628251047962 $134 $315 forward 7 unknown #
face $-1 $-1 $135 $16 $-1 $316 reversed single #
point $-1 75.254982146671949 -67.91973163772245 -12.185628251047962 #
point $-1 75.254982146671949 -50.47781841813589 -12.185628251047962 #
face $-1 $317 $318 $17 $-1 $319 reversed single #
loop $-1 $-1 $320 $139 #
plane-surface $-1 0 -59.198775027929166 -12.185628251047962 0 0 1 1 0 0 forward_v I I I I #
coedge $-1 $145 $321 $142 $234 forward $140 $-1 #
coedge $-1 $233 $142 $322 $323 reversed $79 $-1 #
coedge $-1 $142 $232 $143 $236 forward $79 $-1 #
edge $-1 $324 -54.276280898335607 $237 -42.031763210930499 $231 $325 forward 7 unknown #
coedge $-1 $144 $143 $241 $326 reversed $49 $-1 #
edge $-1 $327 -150.5099642933439 $237 -135.3749079779449 $233 $328 forward 7 unknown #
vertex $-1 $146 $329 #
straight-curve $-1 63.010464459266814 -3.6976183585421545 15.462076585065162 0 1 0 I I #
vertex $-1 $326 $330 #
straight-curve $-1 -46.510135968250438 -2.8741997397150918 95.033452041526573 0.80901698891910034 0 -0.5877852598018023 I I #
coedge $-1 $322 $148 $235 $326 forward $243 $-1 #
coedge $-1 $148 $331 $150 $246 reversed $243 $-1 #
loop $-1 $-1 $322 $332 #
straight-curve $-1 75.254982146671949 -2.8741997397150918 108.39928507822448 0 0 -1 I I #
coedge $-1 $333 $150 $334 $335 forward $140 $-1 #
edge $-1 $152 -2.8741997397150918 $336 50.47781841813589 $242 $337 forward 7 unknown #
point $-1 63.010464459266842 -2.8741997397150918 15.462076585065148 #
point $-1 75.254982146671949 -2.8741997397150918 15.462076585065155 #
face $-1 $338 $339 $18 $-1 $340 forward single #
loop $-1 $-1 $341 $154 #
plane-surface $-1 41.957402496672685 -11.916273694453526 216.79857015644896 0 1 0 0.5877852598018023 0 0.80901698891910034 forward_v I I I I #
loop $-1 $-1 $342 $86 #
coedge $-1 $254 $157 $343 $344 forward $87 $-1 #
coedge $-1 $157 $253 $345 $346 reversed $87 $-1 #
coedge $-1 $347 $348 $157 $256 forward $339 $-1 #
edge $-1 $349 42.031763210930499 $350 54.276280898335607 $255 $351 forward 7 unknown #
edge $-1 $352 1 $352 0 $158 $-1 forward 7 unknown #
vertex $-1 $159 $353 #
ellipse-curve $-1 68.28393534136039 -9.3328239930996943 9.8457386989657962 0.5877852598018023 0 0.80901698891910034 0.80901698891910034 0 -0.5877852598018023 1 I I #
point $-1 69.941740291888493 -9.3328239930996943 10.426209821032492 #
face $-1 $354 $169 $19 $-1 $355 forward single #
loop $-1 $-1 $356 $162 #
plane-surface $-1 41.957402496672685 -2.8741997397150918 216.79857015644896 0 -1 0 -0.5877852598018023 0 -0.80901698891910034 forward_v I I I I #
loop $-1 $-1 $357 $94 #
coedge $-1 $265 $265 $266 $358 forward $163 $-1 #
coedge $-1 $266 $266 $265 $358 reversed $165 $-1 #
coedge $-1 $267 $267 $166 $268 forward $272 $-1 #
edge $-1 $359 0 $359 6.2831853071796004 $267 $360 forward 7 unknown #
edge $-1 $361 1 $361 0 $167 $-1 forward 7 unknown #
vertex $-1 $168 $362 #
ellipse-curve $-1 68.28393534136039 -5.4576494410689378 9.8457386989657962 0.5877852598018023 0 0.80901698891910034 0.80901698891910034 0 -0.5877852598018023 1 I I #
loop $-1 $363 $267 $261 #
point $-1 69.941740291888493 -5.4576494410689378 10.426209821032492 #
plane-surface $-1 75.254982146671949 0 0 -1 0 0 0 0 1 forward_v I I I I #
coedge $-1 $177 $175 $179 $279 reversed $103 $-1 #
edge $-1 $190 -15.462076585065155 $281 15.462076585065155 $189 $364 forward 7 unknown #
vertex $-1 $279 $365 #
straight-curve $-1 -75.254982146671949 -50.47781841813589 0 0 0 -1 I I #
edge $-1 $277 -50.47781841813589 $281 50.47781841813589 $275 $366 forward 7 unknown #
straight-curve $-1 0 -50.47781841813589 -15.462076585065155 -1 0 0 I I #
vertex $-1 $182 $367 #
straight-curve $-1 0 50.47781841813589 -15.462076585065155 1 0 0 I I #
point $-1 75.254982146671949 50.47781841813589 -15.462076585065155 #
point $-1 75.254982146671949 -50.47781841813589 -15.462076585065155 #
straight-curve $-1 -75.254982146671949 0 15.462076585065155 0 -1 0 I I #
point $-1 -75.254982146671949 50.47781841813589 15.462076585065155 #
point $-1 -75.254982146671949 -50.47781841813589 15.462076585065155 #
straight-curve $-1 75.254982146671949 -50.47781841813589 0 0 0 -1 I I #
straight-curve $-1 75.254982146671949 50.47781841813589 0 0 0 -1 I I #
face $-1 $225 $368 $16 $-1 $369 reversed single #
plane-surface $-1 -75.254982146671949 0 0 1 0 0 0 0 -1 forward_v I I I I #
coedge $-1 $202 $303 $370 $371 forward $122 $-1 #
edge $-1 $372 -50.47781841813589 $304 67.91973163772245 $222 $373 forward 7 unknown #
coedge $-1 $204 $203 $374 $375 forward $71 $-1 #
coedge $-1 $376 $377 $203 $296 reversed $368 $-1 #
edge $-1 $301 -75.254982146671949 $378 75.254982146671949 $295 $379 forward 7 unknown #
coedge $-1 $218 $217 $204 $298 reversed $200 $-1 #
edge $-1 $380 -75.254982146671949 $300 75.254982146671949 $297 $381 forward 7 unknown #
coedge $-1 $205 $222 $376 $382 reversed $135 $-1 #
vertex $-1 $206 $383 #
vertex $-1 $206 $384 #
straight-curve $-1 75.254982146671949 0 15.462076585065155 0 1 0 I I #
coedge $-1 $292 $208 $211 $308 forward $122 $-1 #
vertex $-1 $223 $385 #
straight-curve $-1 0 -67.91973163772245 -15.462076585065155 -1 0 0 I I #
coedge $-1 $374 $210 $218 $312 reversed $212 $-1 #
coedge $-1 $211 $374 $377 $386 forward $212 $-1 #
edge $-1 $214 -67.91973163772245 $387 50.47781841813589 $211 $388 forward 7 unknown #
point $-1 -75.254982146671949 -67.91973163772245 -12.185628251047962 #
point $-1 -75.254982146671949 -67.91973163772245 -15.462076585065155 #
straight-curve $-1 -75.254982146671949 -59.198775027929166 -12.185628251047962 0 -1 0 I I #
edge $-1 $380 -15.462076585065155 $219 12.185628251047962 $306 $389 forward 7 unknown #
point $-1 -75.254982146671949 -50.47781841813589 -12.185628251047962 #
straight-curve $-1 75.254982146671949 -67.91973163772245 -13.823852418056559 0 0 -1 I I #
straight-curve $-1 75.254982146671949 -50.47781841813589 0 0 0 -1 I I #
plane-surface $-1 75.254982146671949 0 0 -1 0 0 0 0 1 forward_v I I I I #
face $-1 $390 $391 $17 $-1 $392 reversed single #
loop $-1 $-1 $393 $228 #
plane-surface $-1 0 -67.91973163772245 -13.823852418056559 0 1 0 0 0 1 forward_v I I I I #
coedge $-1 $394 $395 $396 $397 forward $229 $-1 #
coedge $-1 $231 $398 $399 $400 forward $140 $-1 #
coedge $-1 $399 $241 $232 $323 forward $243 $-1 #
edge $-1 $327 -101.83337150162103 $324 -92.937208493159318 $322 $401 forward 7 unknown #
vertex $-1 $323 $402 #
straight-curve $-1 20.978701248336343 -11.916273694453526 15.462076585065148 -1 0 0 I I #
edge $-1 $239 -0.82341861882706269 $327 8.2186553359113717 $241 $403 forward 7 unknown #
vertex $-1 $326 $404 #
straight-curve $-1 -46.510135968250438 -11.916273694453526 95.033452041526573 -0.80901698891910034 0 0.5877852598018023 I I #
point $-1 63.010464459266842 -11.916273694453526 15.462076585065148 #
point $-1 75.254982146671949 -2.8741997397150918 6.5659135766034495 #
coedge $-1 $242 $405 $406 $407 reversed $243 $-1 #
face $-1 $-1 $243 $17 $-1 $408 reversed single #
coedge $-1 $398 $245 $409 $410 forward $140 $-1 #
coedge $-1 $406 $411 $245 $335 reversed $412 $-1 #
edge $-1 $336 -75.254982146671949 $413 75.254982146671949 $334 $414 forward 7 unknown #
vertex $-1 $246 $415 #
straight-curve $-1 75.254982146671949 0 15.462076585065155 0 1 0 I I #
face $-1 $416 $417 $18 $-1 $418 forward single #
loop $-1 $-1 $419 $249 #
plane-surface $-1 0 0 15.462076585065155 0 0 1 1 0 0 forward_v I I I I #
coedge $-1 $420 $421 $419 $422 reversed $250 $-1 #
coedge $-1 $423 $343 $348 $424 reversed $252 $-1 #
coedge $-1 $342 $425 $253 $344 reversed $252 $-1 #
edge $-1 $349 135.3749079779449 $426 150.5099642933439 $253 $427 forward 7 unknown #
coedge $-1 $428 $429 $254 $346 forward $430 $-1 #
edge $-1 $350 92.937208493159318 $426 101.83337150162103 $345 $431 forward 7 unknown #
coedge $-1 $432 $255 $429 $433 forward $339 $-1 #
coedge $-1 $255 $419 $342 $424 forward $339 $-1 #
vertex $-1 $424 $434 #
vertex $-1 $433 $435 #
straight-curve $-1 20.978701248336343 -2.8741997397150918 15.462076585065148 1 0 0 I I #
vertex $-1 $257 $436 #
point $-1 69.092952330279502 -9.3328239930996943 9.2579534391639946 #
face $-1 $437 $438 $19 $-1 $439 forward single #
plane-surface $-1 -46.510135968250438 -7.395236717084309 95.033452041526573 0.5877852598018023 0 0.80901698891910034 0.80901698891910034 0 -0.5877852598018023 forward_v I I I I #
coedge $-1 $440 $441 $442 $443 reversed $262 $-1 #
coedge $-1 $357 $357 $-1 $444 forward $264 $-1 #
edge $-1 $445 0 $445 6.2831853071796004 $265 $446 forward 7 unknown #
vertex $-1 $268 $447 #
ellipse-curve $-1 69.132723302969396 -9.3328239930996943 11.013995080834311 -0.5877852598018023 0 -0.80901698891910034 0.80901698891910034 0 -0.5877852598018023 1 I I #
vertex $-1 $269 $448 #
point $-1 69.092952330279502 -5.4576494410689378 9.2579534391639946 #
loop $-1 $-1 $449 $261 #
straight-curve $-1 -75.254982146671949 50.47781841813589 0 0 0 -1 I I #
point $-1 -75.254982146671949 -50.47781841813589 -15.462076585065155 #
straight-curve $-1 -75.254982146671949 0 -15.462076585065155 0 1 0 I I #
point $-1 -75.254982146671949 50.47781841813589 -15.462076585065155 #
loop $-1 $-1 $376 $290 #
plane-surface $-1 0 50.47781841813589 0 0 -1 0 0 0 -1 forward_v I I I I #
coedge $-1 $377 $376 $292 $371 reversed $368 $-1 #
edge $-1 $387 -75.254982146671949 $372 75.254982146671949 $370 $450 forward 7 unknown #
vertex $-1 $293 $451 #
straight-curve $-1 75.254982146671949 0 -15.462076585065155 0 -1 0 I I #
coedge $-1 $307 $306 $294 $375 reversed $212 $-1 #
edge $-1 $378 -50.47781841813589 $380 50.47781841813589 $374 $452 forward 7 unknown #
coedge $-1 $370 $295 $299 $382 forward $368 $-1 #
coedge $-1 $295 $370 $307 $386 reversed $368 $-1 #
vertex $-1 $296 $453 #
straight-curve $-1 0 50.47781841813589 15.462076585065155 -1 0 0 I I #
vertex $-1 $375 $454 #
straight-curve $-1 0 -50.47781841813589 15.462076585065155 1 0 0 I I #
edge $-1 $301 -15.462076585065155 $372 15.462076585065155 $299 $455 forward 7 unknown #
point $-1 75.254982146671949 -50.47781841813589 15.462076585065155 #
point $-1 75.254982146671949 50.47781841813589 15.462076585065155 #
point $-1 75.254982146671949 -67.91973163772245 -15.462076585065155 #
edge $-1 $378 -15.462076585065155 $387 15.462076585065155 $377 $456 forward 7 unknown #
vertex $-1 $371 $457 #
straight-curve $-1 -75.254982146671949 0 -15.462076585065155 0 1 0 I I #
straight-curve $-1 -75.254982146671949 -50.47781841813589 0 0 0 -1 I I #
face $-1 $458 $459 $17 $-1 $460 reversed single #
loop $-1 $-1 $461 $317 #
plane-surface $-1 0 0 -15.462076585065155 0 0 1 1 0 0 forward_v I I I I #
coedge $-1 $462 $463 $464 $465 forward $318 $-1 #
coedge $-1 $466 $320 $467 $468 reversed $229 $-1 #
coedge $-1 $320 $466 $463 $469 forward $229 $-1 #
coedge $-1 $470 $471 $320 $397 reversed $243 $-1 #
edge $-1 $472 -8.7209566097932836 $473 8.7209566097932765 $396 $474 forward 7 unknown #
coedge $-1 $321 $333 $475 $476 forward $140 $-1 #
coedge $-1 $471 $322 $321 $400 reversed $243 $-1 #
edge $-1 $477 -50.47781841813589 $324 -11.916273694453526 $399 $337 forward 7 unknown #
straight-curve $-1 75.254982146671949 -11.916273694453526 108.39928507822448 0 0 1 I I #
point $-1 75.254982146671949 -11.916273694453526 15.462076585065155 #
straight-curve $-1 75.254982146671935 -3.6976183585421545 6.5659135766034495 0 -1 0 I I #
point $-1 75.254982146671949 -11.916273694453526 6.5659135766034495 #
coedge $-1 $331 $470 $461 $478 reversed $243 $-1 #
coedge $-1 $479 $334 $331 $407 forward $412 $-1 #
edge $-1 $336 -15.462076585065155 $480 15.462076585065155 $331 $481 forward 7 unknown #
plane-surface $-1 75.254982146671949 0 0 -1 0 0 0 0 1 forward_v I I I I #
coedge $-1 $482 $483 $333 $410 reversed $484 $-1 #
edge $-1 $413 -50.47781841813589 $485 50.47781841813589 $409 $486 forward 7 unknown #
coedge $-1 $334 $479 $482 $487 reversed $412 $-1 #
loop $-1 $-1 $406 $488 #
vertex $-1 $335 $489 #
straight-curve $-1 0 50.47781841813589 15.462076585065155 -1 0 0 I I #
point $-1 75.254982146671949 50.47781841813589 15.462076585065155 #
face $-1 $490 $491 $18 $-1 $492 reversed single #
loop $-1 $-1 $493 $338 #
plane-surface $-1 0 -59.198775027929166 -12.185628251047962 0 0 1 1 0 0 forward_v I I I I #
coedge $-1 $348 $494 $341 $422 forward $339 $-1 #
coedge $-1 $421 $341 $495 $496 reversed $250 $-1 #
coedge $-1 $341 $420 $423 $497 forward $250 $-1 #
edge $-1 $498 -54.276280898335607 $499 -42.031763210930499 $419 $500 forward 7 unknown #
coedge $-1 $425 $342 $421 $497 reversed $252 $-1 #
edge $-1 $499 -8.2186553359113717 $349 0.82341861882706269 $348 $501 forward 7 unknown #
coedge $-1 $343 $423 $428 $502 reversed $252 $-1 #
vertex $-1 $502 $503 #
straight-curve $-1 -46.510135968250438 -2.8741997397150918 95.033452041526573 0.80901698891910034 0 -0.5877852598018023 I I #
coedge $-1 $495 $345 $425 $502 forward $430 $-1 #
coedge $-1 $345 $504 $347 $433 reversed $430 $-1 #
loop $-1 $-1 $495 $505 #
straight-curve $-1 75.254982146671949 -2.8741997397150918 108.39928507822448 0 0 -1 I I #
coedge $-1 $506 $347 $507 $508 forward $339 $-1 #
edge $-1 $350 -2.8741997397150918 $509 50.47781841813589 $429 $510 forward 7 unknown #
point $-1 63.010464459266842 -2.8741997397150918 15.462076585065148 #
point $-1 75.254982146671949 -2.8741997397150918 15.462076585065155 #
point $-1 67.696150081558599 -9.3328239930996943 9.0367217100466988 #
face $-1 $511 $512 $19 $-1 $513 forward single #
loop $-1 $-1 $514 $354 #
plane-surface $-1 41.957402496672685 -11.916273694453526 216.79857015644896 0 1 0 0.5877852598018023 0 0.80901698891910034 forward_v I I I I #
coedge $-1 $441 $356 $515 $516 forward $262 $-1 #
coedge $-1 $356 $440 $517 $518 reversed $262 $-1 #
coedge $-1 $519 $520 $356 $443 forward $512 $-1 #
edge $-1 $521 42.031763210930499 $522 54.276280898335607 $442 $523 forward 7 unknown #
edge $-1 $524 1 $524 0 $357 $-1 forward 7 unknown #
vertex $-1 $358 $525 #
ellipse-curve $-1 68.28393534136039 -9.3328239930996943 9.8457386989657962 0.5877852598018023 0 0.80901698891910034 0.80901698891910034 0 -0.5877852598018023 1 I I #
point $-1 69.941740291888493 -9.3328239930996943 10.426209821032492 #
point $-1 67.696150081558599 -5.4576494410689378 9.0367217100466988 #
coedge $-1 $526 $515 $520 $527 reversed $363 $-1 #
straight-curve $-1 0 50.47781841813589 -15.462076585065155 1 0 0 I I #
point $-1 75.254982146671949 50.47781841813589 -15.462076585065155 #
straight-curve $-1 -75.254982146671949 0 15.462076585065155 0 -1 0 I I #
point $-1 -75.254982146671949 50.47781841813589 15.462076585065155 #
point $-1 -75.254982146671949 -50.47781841813589 15.462076585065155 #
straight-curve $-1 75.254982146671949 50.47781841813589 0 0 0 -1 I I #
straight-curve $-1 -75.254982146671949 50.47781841813589 0 0 0 -1 I I #
point $-1 -75.254982146671949 50.47781841813589 -15.462076585065155 #
face $-1 $488 $484 $17 $-1 $528 reversed single #
loop $-1 $-1 $467 $390 #
plane-surface $-1 0 -50.47781841813589 0 0 1 0 0 0 1 forward_v I I I I #
coedge $-1 $529 $530 $405 $478 forward $391 $-1 #
coedge $-1 $531 $393 $529 $532 reversed $318 $-1 #
coedge $-1 $393 $531 $395 $469 reversed $318 $-1 #
coedge $-1 $533 $534 $393 $465 reversed $484 $-1 #
edge $-1 $535 -1.6382241670085964 $536 1.6382241670085964 $464 $537 forward 7 unknown #
coedge $-1 $395 $394 $533 $538 forward $229 $-1 #
coedge $-1 $539 $540 $394 $468 forward $459 $-1 #
edge $-1 $541 -75.254982146671949 $473 75.254982146671949 $467 $542 forward 7 unknown #
edge $-1 $535 -75.254982146671949 $472 75.254982146671949 $463 $543 forward 7 unknown #
coedge $-1 $405 $396 $531 $544 forward $243 $-1 #
coedge $-1 $396 $399 $539 $545 forward $243 $-1 #
vertex $-1 $397 $546 #
vertex $-1 $397 $547 #
straight-curve $-1 75.254982146671949 -59.198775027929166 -12.185628251047962 0 1 0 I I #
coedge $-1 $540 $539 $398 $476 reversed $459 $-1 #
edge $-1 $485 -75.254982146671949 $477 75.254982146671949 $475 $548 forward 7 unknown #
vertex $-1 $400 $549 #
edge $-1 $480 -50.47781841813589 $550 67.91973163772245 $405 $551 forward 7 unknown #
coedge $-1 $411 $406 $530 $552 reversed $412 $-1 #
vertex $-1 $478 $553 #
straight-curve $-1 75.254982146671949 50.47781841813589 0 0 0 -1 I I #
coedge $-1 $534 $409 $411 $487 forward $484 $-1 #
coedge $-1 $409 $533 $540 $554 reversed $484 $-1 #
loop $-1 $-1 $482 $458 #
vertex $-1 $410 $555 #
straight-curve $-1 -75.254982146671949 0 15.462076585065155 0 -1 0 I I #
edge $-1 $413 -15.462076585065155 $556 15.462076585065155 $411 $557 forward 7 unknown #
face $-1 $332 $412 $17 $-1 $558 reversed single #
point $-1 -75.254982146671949 50.47781841813589 15.462076585065155 #
face $-1 $559 $560 $18 $-1 $561 reversed single #
loop $-1 $-1 $562 $416 #
plane-surface $-1 0 -67.91973163772245 -13.823852418056559 0 1 0 0 0 1 forward_v I I I I #
coedge $-1 $563 $564 $565 $566 forward $417 $-1 #
coedge $-1 $419 $567 $568 $569 forward $339 $-1 #
coedge $-1 $568 $428 $420 $496 forward $430 $-1 #
edge $-1 $570 -101.83337150162103 $498 -92.937208493159318 $495 $571 forward 7 unknown #
edge $-1 $570 -150.5099642933439 $499 -135.3749079779449 $421 $572 forward 7 unknown #
vertex $-1 $496 $573 #
vertex $-1 $424 $574 #
straight-curve $-1 20.978701248336343 -11.916273694453526 15.462076585065148 -1 0 0 I I #
straight-curve $-1 63.010464459266814 -3.6976183585421545 15.462076585065162 0 1 0 I I #
edge $-1 $426 -0.82341861882706269 $570 8.2186553359113717 $428 $575 forward 7 unknown #
point $-1 75.254982146671949 -2.8741997397150918 6.5659135766034495 #
coedge $-1 $429 $576 $577 $578 reversed $430 $-1 #
face $-1 $-1 $430 $18 $-1 $579 reversed single #
coedge $-1 $567 $432 $580 $581 forward $339 $-1 #
coedge $-1 $577 $582 $432 $508 reversed $583 $-1 #
edge $-1 $509 -75.254982146671949 $584 75.254982146671949 $507 $585 forward 7 unknown #
vertex $-1 $433 $586 #
straight-curve $-1 75.254982146671949 0 15.462076585065155 0 1 0 I I #
face $-1 $587 $588 $19 $-1 $589 forward single #
loop $-1 $-1 $590 $437 #
plane-surface $-1 0 0 15.462076585065155 0 0 1 1 0 0 forward_v I I I I #
coedge $-1 $591 $592 $590 $593 reversed $438 $-1 #
coedge $-1 $449 $594 $440 $516 reversed $363 $-1 #
edge $-1 $521 135.3749079779449 $595 150.5099642933439 $440 $596 forward 7 unknown #
coedge $-1 $597 $598 $441 $518 forward $599 $-1 #
edge $-1 $522 92.937208493159318 $595 101.83337150162103 $517 $600 forward 7 unknown #
coedge $-1 $601 $442 $598 $602 forward $512 $-1 #
coedge $-1 $442 $590 $449 $527 forward $512 $-1 #
vertex $-1 $527 $603 #
vertex $-1 $602 $604 #
straight-curve $-1 20.978701248336343 -2.8741997397150918 15.462076585065148 1 0 0 I I #
vertex $-1 $444 $605 #
point $-1 69.092952330279502 -9.3328239930996943 9.2579534391639946 #
coedge $-1 $594 $449 $592 $606 reversed $363 $-1 #
edge $-1 $607 -8.2186553359113717 $521 0.82341861882706269 $520 $608 forward 7 unknown #
plane-surface $-1 -75.254982146671949 0 0 1 0 0 0 0 -1 forward_v I I I I #
coedge $-1 $609 $461 $462 $532 forward $391 $-1 #
coedge $-1 $461 $609 $479 $552 forward $391 $-1 #
coedge $-1 $463 $462 $470 $544 reversed $318 $-1 #
edge $-1 $550 -75.254982146671949 $536 75.254982146671949 $462 $610 forward 7 unknown #
coedge $-1 $483 $464 $466 $538 reversed $484 $-1 #
coedge $-1 $464 $482 $609 $611 reversed $484 $-1 #
vertex $-1 $538 $612 #
vertex $-1 $611 $613 #
straight-curve $-1 -75.254982146671949 -67.91973163772245 -13.823852418056559 0 0 -1 I I #
edge $-1 $541 -8.7209566097932765 $535 8.7209566097932836 $533 $614 forward 7 unknown #
coedge $-1 $475 $467 $471 $545 reversed $459 $-1 #
coedge $-1 $467 $475 $483 $554 forward $459 $-1 #
vertex $-1 $554 $615 #
straight-curve $-1 0 -50.47781841813589 -12.185628251047962 1 0 0 I I #
straight-curve $-1 0 -67.91973163772245 -12.185628251047962 1 0 0 I I #
edge $-1 $472 -1.6382241670085964 $550 1.6382241670085964 $470 $616 forward 7 unknown #
edge $-1 $477 -15.462076585065155 $473 12.185628251047962 $471 $617 forward 7 unknown #
point $-1 75.254982146671949 -67.91973163772245 -12.185628251047962 #
point $-1 75.254982146671949 -50.47781841813589 -12.185628251047962 #
straight-curve $-1 0 -50.47781841813589 15.462076585065155 1 0 0 I I #
point $-1 75.254982146671949 -50.47781841813589 15.462076585065155 #
vertex $-1 $544 $618 #
straight-curve $-1 75.254982146671949 0 -15.462076585065155 0 -1 0 I I #
edge $-1 $556 -75.254982146671949 $480 75.254982146671949 $479 $619 forward 7 unknown #
point $-1 75.254982146671949 50.47781841813589 -15.462076585065155 #
edge $-1 $485 -15.462076585065155 $541 12.185628251047962 $483 $620 forward 7 unknown #
point $-1 -75.254982146671949 -50.47781841813589 15.462076585065155 #
vertex $-1 $552 $621 #
straight-curve $-1 -75.254982146671949 50.47781841813589 0 0 0 -1 I I #
plane-surface $-1 0 50.47781841813589 0 0 -1 0 0 0 -1 forward_v I I I I #
face $-1 $622 $623 $18 $-1 $624 reversed single #
loop $-1 $-1 $625 $490 #
plane-surface $-1 0 0 -15.462076585065155 0 0 1 1 0 0 forward_v I I I I #
coedge $-1 $626 $627 $628 $629 forward $491 $-1 #
coedge $-1 $630 $493 $631 $632 reversed $417 $-1 #
coedge $-1 $493 $630 $627 $633 forward $417 $-1 #
coedge $-1 $634 $635 $493 $566 reversed $430 $-1 #
edge $-1 $636 -8.7209566097932836 $637 8.7209566097932765 $565 $638 forward 7 unknown #
coedge $-1 $494 $506 $639 $640 forward $339 $-1 #
coedge $-1 $635 $495 $494 $569 reversed $430 $-1 #
edge $-1 $641 -50.47781841813589 $498 -11.916273694453526 $568 $510 forward 7 unknown #
vertex $-1 $502 $642 #
straight-curve $-1 75.254982146671949 -11.916273694453526 108.39928507822448 0 0 1 I I #
straight-curve $-1 -46.510135968250438 -11.916273694453526 95.033452041526573 -0.80901698891910034 0 0.5877852598018023 I I #
point $-1 75.254982146671949 -11.916273694453526 15.462076585065155 #
point $-1 63.010464459266842 -11.916273694453526 15.462076585065148 #
straight-curve $-1 75.254982146671935 -3.6976183585421545 6.5659135766034495 0 -1 0 I I #
coedge $-1 $504 $634 $625 $643 reversed $430 $-1 #
coedge $-1 $644 $507 $504 $578 forward $583 $-1 #
edge $-1 $509 -15.462076585065155 $645 15.462076585065155 $504 $646 forward 7 unknown #
plane-surface $-1 75.254982146671949 0 0 -1 0 0 0 0 1 forward_v I I I I #
coedge $-1 $647 $648 $506 $581 reversed $649 $-1 #
edge $-1 $584 -50.47781841813589 $650 50.47781841813589 $580 $651 forward 7 unknown #
coedge $-1 $507 $644 $647 $652 reversed $583 $-1 #
loop $-1 $-1 $577 $653 #
vertex $-1 $508 $654 #
straight-curve $-1 0 50.47781841813589 15.462076585065155 -1 0 0 I I #
point $-1 75.254982146671949 50.47781841813589 15.462076585065155 #
face $-1 $655 $656 $19 $-1 $657 reversed single #
loop $-1 $-1 $658 $511 #
plane-surface $-1 0 -59.198775027929166 -12.185628251047962 0 0 1 1 0 0 forward_v I I I I #
coedge $-1 $520 $659 $514 $593 forward $512 $-1 #
coedge $-1 $592 $514 $660 $661 reversed $438 $-1 #
coedge $-1 $514 $591 $526 $606 forward $438 $-1 #
edge $-1 $662 -54.276280898335607 $607 -42.031763210930499 $590 $663 forward 7 unknown #
coedge $-1 $515 $526 $597 $664 reversed $363 $-1 #
vertex $-1 $664 $665 #
straight-curve $-1 -46.510135968250438 -2.8741997397150918 95.033452041526573 0.80901698891910034 0 -0.5877852598018023 I I #
coedge $-1 $660 $517 $594 $664 forward $599 $-1 #
coedge $-1 $517 $666 $519 $602 reversed $599 $-1 #
loop $-1 $-1 $660 $667 #
straight-curve $-1 75.254982146671949 -2.8741997397150918 108.39928507822448 0 0 -1 I I #
coedge $-1 $668 $519 $669 $670 forward $512 $-1 #
edge $-1 $522 -2.8741997397150918 $671 50.47781841813589 $598 $672 forward 7 unknown #
point $-1 63.010464459266842 -2.8741997397150918 15.462076585065148 #
point $-1 75.254982146671949 -2.8741997397150918 15.462076585065155 #
point $-1 67.696150081558599 -9.3328239930996943 9.0367217100466988 #
edge $-1 $673 -150.5099642933439 $607 -135.3749079779449 $592 $674 forward 7 unknown #
vertex $-1 $527 $675 #
straight-curve $-1 63.010464459266814 -3.6976183585421545 15.462076585065162 0 1 0 I I #
coedge $-1 $530 $529 $534 $611 forward $391 $-1 #
straight-curve $-1 0 -67.91973163772245 -15.462076585065155 -1 0 0 I I #
edge $-1 $536 -67.91973163772245 $556 50.47781841813589 $534 $676 forward 7 unknown #
point $-1 -75.254982146671949 -67.91973163772245 -12.185628251047962 #
point $-1 -75.254982146671949 -67.91973163772245 -15.462076585065155 #
straight-curve $-1 -75.254982146671949 -59.198775027929166 -12.185628251047962 0 -1 0 I I #
point $-1 -75.254982146671949 -50.47781841813589 -12.185628251047962 #
straight-curve $-1 75.254982146671949 -67.91973163772245 -13.823852418056559 0 0 -1 I I #
straight-curve $-1 75.254982146671949 -50.47781841813589 0 0 0 -1 I I #
point $-1 75.254982146671949 -67.91973163772245 -15.462076585065155 #
straight-curve $-1 0 50.47781841813589 -15.462076585065155 1 0 0 I I #
straight-curve $-1 -75.254982146671949 -50.47781841813589 0 0 0 -1 I I #
point $-1 -75.254982146671949 50.47781841813589 -15.462076585065155 #
face $-1 $653 $649 $18 $-1 $677 reversed single #
loop $-1 $-1 $631 $559 #
plane-surface $-1 0 -50.47781841813589 0 0 1 0 0 0 1 forward_v I I I I #
coedge $-1 $678 $679 $576 $643 forward $560 $-1 #
coedge $-1 $680 $562 $678 $681 reversed $491 $-1 #
coedge $-1 $562 $680 $564 $633 reversed $491 $-1 #
coedge $-1 $682 $683 $562 $629 reversed $649 $-1 #
edge $-1 $684 -1.6382241670085964 $685 1.6382241670085964 $628 $686 forward 7 unknown #
coedge $-1 $564 $563 $682 $687 forward $417 $-1 #
coedge $-1 $688 $689 $563 $632 forward $623 $-1 #
edge $-1 $690 -75.254982146671949 $637 75.254982146671949 $631 $691 forward 7 unknown #
edge $-1 $684 -75.254982146671949 $636 75.254982146671949 $627 $692 forward 7 unknown #
coedge $-1 $576 $565 $680 $693 forward $430 $-1 #
coedge $-1 $565 $568 $688 $694 forward $430 $-1 #
vertex $-1 $566 $695 #
vertex $-1 $566 $696 #
straight-curve $-1 75.254982146671949 -59.198775027929166 -12.185628251047962 0 1 0 I I #
coedge $-1 $689 $688 $567 $640 reversed $623 $-1 #
edge $-1 $650 -75.254982146671949 $641 75.254982146671949 $639 $697 forward 7 unknown #
vertex $-1 $569 $698 #
point $-1 75.254982146671949 -11.916273694453526 6.5659135766034495 #
edge $-1 $645 -50.47781841813589 $699 67.91973163772245 $576 $700 forward 7 unknown #
coedge $-1 $582 $577 $679 $701 reversed $583 $-1 #
vertex $-1 $643 $702 #
straight-curve $-1 75.254982146671949 50.47781841813589 0 0 0 -1 I I #
coedge $-1 $683 $580 $582 $652 forward $649 $-1 #
coedge $-1 $580 $682 $689 $703 reversed $649 $-1 #
loop $-1 $-1 $647 $622 #
vertex $-1 $581 $704 #
straight-curve $-1 -75.254982146671949 0 15.462076585065155 0 -1 0 I I #
edge $-1 $584 -15.462076585065155 $705 15.462076585065155 $582 $706 forward 7 unknown #
face $-1 $505 $583 $18 $-1 $707 reversed single #
point $-1 -75.254982146671949 50.47781841813589 15.462076585065155 #
face $-1 $708 $709 $19 $-1 $710 reversed single #
loop $-1 $-1 $711 $587 #
plane-surface $-1 0 -67.91973163772245 -13.823852418056559 0 1 0 0 0 1 forward_v I I I I #
coedge $-1 $712 $713 $714 $715 forward $588 $-1 #
coedge $-1 $590 $716 $717 $718 forward $512 $-1 #
coedge $-1 $717 $597 $591 $661 forward $599 $-1 #
edge $-1 $673 -101.83337150162103 $662 -92.937208493159318 $660 $719 forward 7 unknown #
vertex $-1 $661 $720 #
straight-curve $-1 20.978701248336343 -11.916273694453526 15.462076585065148 -1 0 0 I I #
edge $-1 $595 -0.82341861882706269 $673 8.2186553359113717 $597 $721 forward 7 unknown #
point $-1 75.254982146671949 -2.8741997397150918 6.5659135766034495 #
coedge $-1 $598 $722 $723 $724 reversed $599 $-1 #
face $-1 $-1 $599 $19 $-1 $725 reversed single #
coedge $-1 $716 $601 $726 $727 forward $512 $-1 #
coedge $-1 $723 $728 $601 $670 reversed $729 $-1 #
edge $-1 $671 -75.254982146671949 $730 75.254982146671949 $669 $731 forward 7 unknown #
vertex $-1 $602 $732 #
straight-curve $-1 75.254982146671949 0 15.462076585065155 0 1 0 I I #
vertex $-1 $664 $733 #
straight-curve $-1 -46.510135968250438 -11.916273694453526 95.033452041526573 -0.80901698891910034 0 0.5877852598018023 I I #
point $-1 63.010464459266842 -11.916273694453526 15.462076585065148 #
straight-curve $-1 -75.254982146671949 0 -15.462076585065155 0 1 0 I I #
plane-surface $-1 -75.254982146671949 0 0 1 0 0 0 0 -1 forward_v I I I I #
coedge $-1 $734 $625 $626 $681 forward $560 $-1 #
coedge $-1 $625 $734 $644 $701 forward $560 $-1 #
coedge $-1 $627 $626 $634 $693 reversed $491 $-1 #
edge $-1 $699 -75.254982146671949 $685 75.254982146671949 $626 $735 forward 7 unknown #
coedge $-1 $648 $628 $630 $687 reversed $649 $-1 #
coedge $-1 $628 $647 $734 $736 reversed $649 $-1 #
vertex $-1 $687 $737 #
vertex $-1 $736 $738 #
straight-curve $-1 -75.254982146671949 -67.91973163772245 -13.823852418056559 0 0 -1 I I #
edge $-1 $690 -8.7209566097932765 $684 8.7209566097932836 $682 $739 forward 7 unknown #
coedge $-1 $639 $631 $635 $694 reversed $623 $-1 #
coedge $-1 $631 $639 $648 $703 forward $623 $-1 #
vertex $-1 $703 $740 #
straight-curve $-1 0 -50.47781841813589 -12.185628251047962 1 0 0 I I #
straight-curve $-1 0 -67.91973163772245 -12.185628251047962 1 0 0 I I #
edge $-1 $636 -1.6382241670085964 $699 1.6382241670085964 $634 $741 forward 7 unknown #
edge $-1 $641 -15.462076585065155 $637 12.185628251047962 $635 $742 forward 7 unknown #
point $-1 75.254982146671949 -67.91973163772245 -12.185628251047962 #
point $-1 75.254982146671949 -50.47781841813589 -12.185628251047962 #
straight-curve $-1 0 -50.47781841813589 15.462076585065155 1 0 0 I I #
point $-1 75.254982146671949 -50.47781841813589 15.462076585065155 #
vertex $-1 $693 $743 #
straight-curve $-1 75.254982146671949 0 -15.462076585065155 0 -1 0 I I #
edge $-1 $705 -75.254982146671949 $645 75.254982146671949 $644 $744 forward 7 unknown #
point $-1 75.254982146671949 50.47781841813589 -15.462076585065155 #
edge $-1 $650 -15.462076585065155 $690 12.185628251047962 $648 $745 forward 7 unknown #
point $-1 -75.254982146671949 -50.47781841813589 15.462076585065155 #
vertex $-1 $701 $746 #
straight-curve $-1 -75.254982146671949 50.47781841813589 0 0 0 -1 I I #
plane-surface $-1 0 50.47781841813589 0 0 -1 0 0 0 -1 forward_v I I I I #
face $-1 $747 $748 $19 $-1 $749 reversed single #
loop $-1 $-1 $750 $655 #
plane-surface $-1 0 0 -15.462076585065155 0 0 1 1 0 0 forward_v I I I I #
coedge $-1 $751 $752 $753 $754 forward $656 $-1 #
coedge $-1 $755 $658 $756 $757 reversed $588 $-1 #
coedge $-1 $658 $755 $752 $758 forward $588 $-1 #
coedge $-1 $759 $760 $658 $715 reversed $599 $-1 #
edge $-1 $761 -8.7209566097932836 $762 8.7209566097932765 $714 $763 forward 7 unknown #
coedge $-1 $659 $668 $764 $765 forward $512 $-1 #
coedge $-1 $760 $660 $659 $718 reversed $599 $-1 #
edge $-1 $766 -50.47781841813589 $662 -11.916273694453526 $717 $672 forward 7 unknown #
straight-curve $-1 75.254982146671949 -11.916273694453526 108.39928507822448 0 0 1 I I #
point $-1 75.254982146671949 -11.916273694453526 15.462076585065155 #
straight-curve $-1 75.254982146671935 -3.6976183585421545 6.5659135766034495 0 -1 0 I I #
coedge $-1 $666 $759 $750 $767 reversed $599 $-1 #
coedge $-1 $768 $669 $666 $724 forward $729 $-1 #
edge $-1 $671 -15.462076585065155 $769 15.462076585065155 $666 $770 forward 7 unknown #
plane-surface $-1 75.254982146671949 0 0 -1 0 0 0 0 1 forward_v I I I I #
coedge $-1 $771 $772 $668 $727 reversed $773 $-1 #
edge $-1 $730 -50.47781841813589 $774 50.47781841813589 $726 $775 forward 7 unknown #
coedge $-1 $669 $768 $771 $776 reversed $729 $-1 #
loop $-1 $-1 $723 $777 #
vertex $-1 $670 $778 #
straight-curve $-1 0 50.47781841813589 15.462076585065155 -1 0 0 I I #
point $-1 75.254982146671949 50.47781841813589 15.462076585065155 #
point $-1 75.254982146671949 -11.916273694453526 6.5659135766034495 #
coedge $-1 $679 $678 $683 $736 forward $560 $-1 #
straight-curve $-1 0 -67.91973163772245 -15.462076585065155 -1 0 0 I I #
edge $-1 $685 -67.91973163772245 $705 50.47781841813589 $683 $779 forward 7 unknown #
point $-1 -75.254982146671949 -67.91973163772245 -12.185628251047962 #
point $-1 -75.254982146671949 -67.91973163772245 -15.462076585065155 #
straight-curve $-1 -75.254982146671949 -59.198775027929166 -12.185628251047962 0 -1 0 I I #
point $-1 -75.254982146671949 -50.47781841813589 -12.185628251047962 #
straight-curve $-1 75.254982146671949 -67.91973163772245 -13.823852418056559 0 0 -1 I I #
straight-curve $-1 75.254982146671949 -50.47781841813589 0 0 0 -1 I I #
point $-1 75.254982146671949 -67.91973163772245 -15.462076585065155 #
straight-curve $-1 0 50.47781841813589 -15.462076585065155 1 0 0 I I #
straight-curve $-1 -75.254982146671949 -50.47781841813589 0 0 0 -1 I I #
point $-1 -75.254982146671949 50.47781841813589 -15.462076585065155 #
face $-1 $777 $773 $19 $-1 $780 reversed single #
loop $-1 $-1 $756 $708 #
plane-surface $-1 0 -50.47781841813589 0 0 1 0 0 0 1 forward_v I I I I #
coedge $-1 $781 $782 $722 $767 forward $709 $-1 #
coedge $-1 $783 $711 $781 $784 reversed $656 $-1 #
coedge $-1 $711 $783 $713 $758 reversed $656 $-1 #
coedge $-1 $785 $786 $711 $754 reversed $773 $-1 #
edge $-1 $787 -1.6382241670085964 $788 1.6382241670085964 $753 $789 forward 7 unknown #
coedge $-1 $713 $712 $785 $790 forward $588 $-1 #
coedge $-1 $791 $792 $712 $757 forward $748 $-1 #
edge $-1 $793 -75.254982146671949 $762 75.254982146671949 $756 $794 forward 7 unknown #
edge $-1 $787 -75.254982146671949 $761 75.254982146671949 $752 $795 forward 7 unknown #
coedge $-1 $722 $714 $783 $796 forward $599 $-1 #
coedge $-1 $714 $717 $791 $797 forward $599 $-1 #
vertex $-1 $715 $798 #
vertex $-1 $715 $799 #
straight-curve $-1 75.254982146671949 -59.198775027929166 -12.185628251047962 0 1 0 I I #
coedge $-1 $792 $791 $716 $765 reversed $748 $-1 #
edge $-1 $774 -75.254982146671949 $766 75.254982146671949 $764 $800 forward 7 unknown #
vertex $-1 $718 $801 #
edge $-1 $769 -50.47781841813589 $802 67.91973163772245 $722 $803 forward 7 unknown #
coedge $-1 $728 $723 $782 $804 reversed $729 $-1 #
vertex $-1 $767 $805 #
straight-curve $-1 75.254982146671949 50.47781841813589 0 0 0 -1 I I #
coedge $-1 $786 $726 $728 $776 forward $773 $-1 #
coedge $-1 $726 $785 $792 $806 reversed $773 $-1 #
loop $-1 $-1 $771 $747 #
vertex $-1 $727 $807 #
straight-curve $-1 -75.254982146671949 0 15.462076585065155 0 -1 0 I I #
edge $-1 $730 -15.462076585065155 $808 15.462076585065155 $728 $809 forward 7 unknown #
face $-1 $667 $729 $19 $-1 $810 reversed single #
point $-1 -75.254982146671949 50.47781841813589 15.462076585065155 #
straight-curve $-1 -75.254982146671949 0 -15.462076585065155 0 1 0 I I #
plane-surface $-1 -75.254982146671949 0 0 1 0 0 0 0 -1 forward_v I I I I #
coedge $-1 $811 $750 $751 $784 forward $709 $-1 #
coedge $-1 $750 $811 $768 $804 forward $709 $-1 #
coedge $-1 $752 $751 $759 $796 reversed $656 $-1 #
edge $-1 $802 -75.254982146671949 $788 75.254982146671949 $751 $812 forward 7 unknown #
coedge $-1 $772 $753 $755 $790 reversed $773 $-1 #
coedge $-1 $753 $771 $811 $813 reversed $773 $-1 #
vertex $-1 $790 $814 #
vertex $-1 $813 $815 #
straight-curve $-1 -75.254982146671949 -67.91973163772245 -13.823852418056559 0 0 -1 I I #
edge $-1 $793 -8.7209566097932765 $787 8.7209566097932836 $785 $816 forward 7 unknown #
coedge $-1 $764 $756 $760 $797 reversed $748 $-1 #
coedge $-1 $756 $764 $772 $806 forward $748 $-1 #
vertex $-1 $806 $817 #
straight-curve $-1 0 -50.47781841813589 -12.185628251047962 1 0 0 I I #
straight-curve $-1 0 -67.91973163772245 -12.185628251047962 1 0 0 I I #
edge $-1 $761 -1.6382241670085964 $802 1.6382241670085964 $759 $818 forward 7 unknown #
edge $-1 $766 -15.462076585065155 $762 12.185628251047962 $760 $819 forward 7 unknown #
point $-1 75.254982146671949 -67.91973163772245 -12.185628251047962 #
point $-1 75.254982146671949 -50.47781841813589 -12.185628251047962 #
straight-curve $-1 0 -50.47781841813589 15.462076585065155 1 0 0 I I #
point $-1 75.254982146671949 -50.47781841813589 15.462076585065155 #
vertex $-1 $796 $820 #
straight-curve $-1 75.254982146671949 0 -15.462076585065155 0 -1 0 I I #
edge $-1 $808 -75.254982146671949 $769 75.254982146671949 $768 $821 forward 7 unknown #
point $-1 75.254982146671949 50.47781841813589 -15.462076585065155 #
edge $-1 $774 -15.462076585065155 $793 12.185628251047962 $772 $822 forward 7 unknown #
point $-1 -75.254982146671949 -50.47781841813589 15.462076585065155 #
vertex $-1 $804 $823 #
straight-curve $-1 -75.254982146671949 50.47781841813589 0 0 0 -1 I I #
plane-surface $-1 0 50.47781841813589 0 0 -1 0 0 0 -1 forward_v I I I I #
coedge $-1 $782 $781 $786 $813 forward $709 $-1 #
straight-curve $-1 0 -67.91973163772245 -15.462076585065155 -1 0 0 I I #
edge $-1 $788 -67.91973163772245 $808 50.47781841813589 $786 $824 forward 7 unknown #
point $-1 -75.254982146671949 -67.91973163772245 -12.185628251047962 #
point $-1 -75.254982146671949 -67.91973163772245 -15.462076585065155 #
straight-curve $-1 -75.254982146671949 -59.198775027929166 -12.185628251047962 0 -1 0 I I #
point $-1 -75.254982146671949 -50.47781841813589 -12.185628251047962 #
straight-curve $-1 75.254982146671949 -67.91973163772245 -13.823852418056559 0 0 -1 I I #
straight-curve $-1 75.254982146671949 -50.47781841813589 0 0 0 -1 I I #
point $-1 75.254982146671949 -67.91973163772245 -15.462076585065155 #
straight-curve $-1 0 50.47781841813589 -15.462076585065155 1 0 0 I I #
straight-curve $-1 -75.254982146671949 -50.47781841813589 0 0 0 -1 I I #
point $-1 -75.254982146671949 50.47781841813589 -15.462076585065155 #
straight-curve $-1 -75.254982146671949 0 -15.462076585065155 0 1 0 I I #
End-of-ACIS-data 