500 0 21 0           
7 Unknown 11 ACIS 5.0 NT 24 Thu Mar 25 21:44:25 1999 
-1 9.9999999999999995e-007 1e-010 
body $-1 $21 $-1 $22 #
body $-1 $23 $-1 $24 #
body $-1 $25 $-1 $26 #
body $-1 $27 $-1 $28 #
body $-1 $29 $-1 $30 #
body $-1 $31 $-1 $32 #
body $-1 $33 $-1 $34 #
body $-1 $35 $-1 $36 #
body $-1 $37 $-1 $38 #
body $-1 $39 $-1 $40 #
body $-1 $41 $-1 $42 #
body $-1 $43 $-1 $44 #
body $-1 $45 $-1 $46 #
body $-1 $47 $-1 $48 #
body $-1 $49 $-1 $50 #
body $-1 $51 $-1 $52 #
body $-1 $53 $-1 $54 #
body $-1 $55 $-1 $56 #
body $-1 $57 $-1 $58 #
body $-1 $59 $-1 $60 #
body $-1 $61 $-1 $62 #
lump $-1 $-1 $63 $0 #
transform $-1 1 0 0 0 1 0 0 0 1 53.693044831690422 31.688023629252374 14.888061884589382 1 rotate no_reflect no_shear #
lump $-1 $-1 $64 $1 #
transform $-1 1 0 0 0 1 0 0 0 1 53.693044831690422 31.688023629252374 14.888061884589382 1 rotate no_reflect no_shear #
lump $-1 $-1 $65 $2 #
transform $-1 1 0 0 0 1 0 0 0 1 53.693044831690422 31.688023629252374 14.888061884589382 1 rotate no_reflect no_shear #
lump $-1 $-1 $66 $3 #
transform $-1 1 0 0 0 1 0 0 0 1 53.693044831690422 31.688023629252374 14.888061884589382 1 rotate no_reflect no_shear #
lump $-1 $-1 $67 $4 #
transform $-1 1 0 0 0 1 0 0 0 1 53.693044831690422 31.688023629252374 14.888061884589382 1 rotate no_reflect no_shear #
lump $-1 $-1 $68 $5 #
transform $-1 1 0 0 0 1 0 0 0 1 53.693044831690422 31.688023629252374 14.888061884589382 1 rotate no_reflect no_shear #
lump $-1 $-1 $69 $6 #
transform $-1 1 0 0 0 1 0 0 0 1 53.693044831690422 31.688023629252374 14.888061884589382 1 rotate no_reflect no_shear #
lump $-1 $-1 $70 $7 #
transform $-1 1 0 0 0 1 0 0 0 1 53.693044831690422 31.688023629252374 14.888061884589382 1 rotate no_reflect no_shear #
lump $-1 $-1 $71 $8 #
transform $-1 1 0 0 0 1 0 0 0 1 53.693044831690422 31.688023629252374 14.888061884589382 1 rotate no_reflect no_shear #
lump $-1 $-1 $72 $9 #
transform $-1 1 0 0 0 1 0 0 0 1 53.693044831690422 31.688023629252374 14.888061884589382 1 rotate no_reflect no_shear #
lump $-1 $-1 $73 $10 #
transform $-1 1 0 0 0 1 0 0 0 1 53.693044831690422 31.688023629252374 14.888061884589382 1 rotate no_reflect no_shear #
lump $-1 $-1 $74 $11 #
transform $-1 1 0 0 0 1 0 0 0 1 53.693044831690422 31.688023629252374 14.888061884589382 1 rotate no_reflect no_shear #
lump $-1 $-1 $75 $12 #
transform $-1 1 0 0 0 1 0 0 0 1 53.693044831690422 31.688023629252374 14.888061884589382 1 rotate no_reflect no_shear #
lump $-1 $-1 $76 $13 #
transform $-1 1 0 0 0 1 0 0 0 1 53.693044831690422 31.688023629252374 14.888061884589382 1 rotate no_reflect no_shear #
lump $-1 $-1 $77 $14 #
transform $-1 1 0 0 0 1 0 0 0 1 53.693044831690422 31.688023629252374 14.888061884589382 1 rotate no_reflect no_shear #
lump $-1 $-1 $78 $15 #
transform $-1 1 0 0 0 1 0 0 0 1 53.693044831690422 31.688023629252374 14.888061884589382 1 rotate no_reflect no_shear #
lump $-1 $-1 $79 $16 #
transform $-1 1 0 0 0 1 0 0 0 1 53.693044831690422 31.688023629252374 14.888061884589382 1 rotate no_reflect no_shear #
lump $-1 $-1 $80 $17 #
transform $-1 1 0 0 0 1 0 0 0 1 53.693044831690422 31.688023629252374 14.888061884589382 1 rotate no_reflect no_shear #
lump $-1 $-1 $81 $18 #
transform $-1 1 0 0 0 1 0 0 0 1 53.693044831690422 31.688023629252374 14.888061884589382 1 rotate no_reflect no_shear #
lump $-1 $-1 $82 $19 #
transform $-1 1 0 0 0 1 0 0 0 1 53.693044831690422 31.688023629252374 14.888061884589382 1 rotate no_reflect no_shear #
lump $-1 $-1 $83 $20 #
transform $-1 1 0 0 0 1 0 0 0 1 53.693044831690422 31.688023629252374 14.888061884589382 1 rotate no_reflect no_shear #
shell $-1 $-1 $-1 $84 $-1 $21 #
shell $-1 $-1 $-1 $85 $-1 $23 #
shell $-1 $-1 $-1 $86 $-1 $25 #
shell $-1 $-1 $-1 $87 $-1 $27 #
shell $-1 $-1 $-1 $88 $-1 $29 #
shell $-1 $-1 $-1 $89 $-1 $31 #
shell $-1 $-1 $-1 $90 $-1 $33 #
shell $-1 $-1 $-1 $91 $-1 $35 #
shell $-1 $-1 $-1 $92 $-1 $37 #
shell $-1 $-1 $-1 $93 $-1 $39 #
shell $-1 $-1 $-1 $94 $-1 $41 #
shell $-1 $-1 $-1 $95 $-1 $43 #
shell $-1 $-1 $-1 $96 $-1 $45 #
shell $-1 $-1 $-1 $97 $-1 $47 #
shell $-1 $-1 $-1 $98 $-1 $49 #
shell $-1 $-1 $-1 $99 $-1 $51 #
shell $-1 $-1 $-1 $100 $-1 $53 #
shell $-1 $-1 $-1 $101 $-1 $55 #
shell $-1 $-1 $-1 $102 $-1 $57 #
shell $-1 $-1 $-1 $103 $-1 $59 #
shell $-1 $-1 $-1 $104 $-1 $61 #
face $-1 $105 $106 $63 $-1 $107 forward single #
face $-1 $108 $109 $64 $-1 $110 forward single #
face $-1 $111 $112 $65 $-1 $113 reversed single #
face $-1 $114 $115 $66 $-1 $116 forward single #
face $-1 $117 $118 $67 $-1 $119 forward single #
face $-1 $120 $121 $68 $-1 $122 reversed single #
face $-1 $123 $124 $69 $-1 $125 forward single #
face $-1 $126 $127 $70 $-1 $128 forward single #
face $-1 $129 $130 $71 $-1 $131 forward single #
face $-1 $132 $133 $72 $-1 $134 reversed single #
face $-1 $135 $136 $73 $-1 $137 forward single #
face $-1 $138 $139 $74 $-1 $140 forward single #
face $-1 $141 $142 $75 $-1 $143 forward single #
face $-1 $144 $145 $76 $-1 $146 reversed single #
face $-1 $147 $148 $77 $-1 $149 forward single #
face $-1 $150 $151 $78 $-1 $152 forward single #
face $-1 $153 $154 $79 $-1 $155 forward single #
face $-1 $156 $157 $80 $-1 $158 reversed single #
face $-1 $159 $160 $81 $-1 $161 forward single #
face $-1 $162 $163 $82 $-1 $164 forward single #
face $-1 $165 $166 $83 $-1 $167 forward single #
face $-1 $168 $169 $63 $-1 $170 reversed single #
loop $-1 $-1 $171 $84 #
plane-surface $-1 0 0 14.888061884589382 0 0 1 1 0 0 forward_v I I I I #
face $-1 $172 $173 $64 $-1 $174 reversed single #
loop $-1 $-1 $175 $85 #
plane-surface $-1 -53.693044831690422 0 0 1 0 0 0 0 -1 forward_v I I I I #
face $-1 $176 $177 $65 $-1 $178 reversed single #
loop $-1 $-1 $179 $86 #
plane-surface $-1 30.765871830262888 89.172405843462741 111.87273493516398 1 0 0 0 -0.84804810408105047 -0.52991925155115449 forward_v I I I I #
face $-1 $180 $181 $66 $-1 $182 forward single #
loop $-1 $183 $184 $87 #
cone-surface $-1 33.822689719556074 26.941127535452488 7.7565249658167161 0 -0.84804810408105047 -0.52991925155115449 1 0 0 1 I I 0 1 1 forward I I I I #
face $-1 $185 $186 $67 $-1 $187 forward single #
loop $-1 $188 $189 $88 #
cone-surface $-1 38.407916553495859 26.941127535452488 7.7565249658167161 0 -0.84804810408105047 -0.52991925155115449 1 0 0 1 I I 0 1 1 forward I I I I #
face $-1 $190 $191 $68 $-1 $192 reversed single #
loop $-1 $-1 $193 $89 #
plane-surface $-1 -30.512324698592067 -97.801502849958723 87.518035334099281 -1 0 0 0 -0.61566148304635926 0.78801074757464917 forward_v I I I I #
face $-1 $194 $195 $69 $-1 $196 forward single #
loop $-1 $197 $198 $90 #
cone-surface $-1 -40.206884680827422 -23.542278471580882 8.2887485328554593 0 0.61566148304635926 -0.78801074757464917 0.5 0 0 1 I I 0 1 0.5 forward I I I I #
face $-1 $199 $200 $70 $-1 $201 forward single #
loop $-1 $202 $203 $91 #
cone-surface $-1 -36.57142468748917 -23.542278471580882 8.2887485328554593 0 0.61566148304635926 -0.78801074757464917 0.5 0 0 1 I I 0 1 0.5 forward I I I I #
face $-1 $204 $205 $71 $-1 $206 forward single #
loop $-1 $207 $208 $92 #
cone-surface $-1 -32.935964694150911 -23.542278471580882 8.2887485328554593 0 0.61566148304635926 -0.78801074757464917 0.5 0 0 1 I I 0 1 0.5 forward I I I I #
face $-1 $209 $210 $72 $-1 $211 reversed single #
loop $-1 $-1 $212 $93 #
plane-surface $-1 -6.4314323215729008 -97.801502849958723 87.518035334099281 -1 0 0 0 -0.61566148304635926 0.78801074757464917 forward_v I I I I #
face $-1 $213 $214 $73 $-1 $215 forward single #
loop $-1 $216 $217 $94 #
cone-surface $-1 -16.125992303808253 -23.542278471580882 8.2887485328554593 0 0.61566148304635926 -0.78801074757464917 0.5 0 0 1 I I 0 1 0.5 forward I I I I #
face $-1 $218 $219 $74 $-1 $220 forward single #
loop $-1 $221 $222 $95 #
cone-surface $-1 -12.490532310469995 -23.542278471580882 8.2887485328554593 0 0.61566148304635926 -0.78801074757464917 0.5 0 0 1 I I 0 1 0.5 forward I I I I #
face $-1 $223 $224 $75 $-1 $225 forward single #
loop $-1 $226 $227 $96 #
cone-surface $-1 -8.8550723171317429 -23.542278471580882 8.2887485328554593 0 0.61566148304635926 -0.78801074757464917 0.5 0 0 1 I I 0 1 0.5 forward I I I I #
face $-1 $228 $229 $76 $-1 $230 reversed single #
loop $-1 $-1 $231 $97 #
plane-surface $-1 17.649460055446269 -97.801502849958723 87.518035334099281 -1 0 0 0 -0.61566148304635926 0.78801074757464917 forward_v I I I I #
face $-1 $232 $233 $77 $-1 $234 forward single #
loop $-1 $235 $236 $98 #
cone-surface $-1 7.954900073210915 -23.542278471580882 8.2887485328554593 0 0.61566148304635926 -0.78801074757464917 0.5 0 0 1 I I 0 1 0.5 forward I I I I #
face $-1 $237 $238 $78 $-1 $239 forward single #
loop $-1 $240 $241 $99 #
cone-surface $-1 11.590360066549174 -23.542278471580882 8.2887485328554593 0 0.61566148304635926 -0.78801074757464917 0.5 0 0 1 I I 0 1 0.5 forward I I I I #
face $-1 $242 $243 $79 $-1 $244 forward single #
loop $-1 $245 $246 $100 #
cone-surface $-1 15.225820059887418 -23.542278471580882 8.2887485328554593 0 0.61566148304635926 -0.78801074757464917 0.5 0 0 1 I I 0 1 0.5 forward I I I I #
face $-1 $247 $248 $80 $-1 $249 reversed single #
loop $-1 $-1 $250 $101 #
plane-surface $-1 41.730352432465438 -97.801502849958723 87.518035334099281 -1 0 0 0 -0.61566148304635926 0.78801074757464917 forward_v I I I I #
face $-1 $251 $252 $81 $-1 $253 forward single #
loop $-1 $254 $255 $102 #
cone-surface $-1 32.035792450230083 -23.542278471580882 8.2887485328554593 0 0.61566148304635926 -0.78801074757464917 0.5 0 0 1 I I 0 1 0.5 forward I I I I #
face $-1 $256 $257 $82 $-1 $258 forward single #
loop $-1 $259 $260 $103 #
cone-surface $-1 35.671252443568342 -23.542278471580882 8.2887485328554593 0 0.61566148304635926 -0.78801074757464917 0.5 0 0 1 I I 0 1 0.5 forward I I I I #
face $-1 $261 $262 $83 $-1 $263 forward single #
loop $-1 $264 $265 $104 #
cone-surface $-1 39.306712436906587 -23.542278471580882 8.2887485328554593 0 0.61566148304635926 -0.78801074757464917 0.5 0 0 1 I I 0 1 0.5 forward I I I I #
face $-1 $266 $267 $63 $-1 $268 reversed single #
loop $-1 $-1 $269 $105 #
plane-surface $-1 0 0 -14.888061884589382 0 0 1 1 0 0 forward_v I I I I #
coedge $-1 $270 $271 $272 $273 forward $106 $-1 #
face $-1 $274 $275 $64 $-1 $276 reversed single #
loop $-1 $-1 $277 $108 #
plane-surface $-1 0 31.688023629252374 0 0 -1 0 0 0 -1 forward_v I I I I #
coedge $-1 $278 $279 $280 $281 forward $109 $-1 #
face $-1 $282 $283 $65 $-1 $284 reversed single #
loop $-1 $-1 $285 $111 #
plane-surface $-1 36.115303136525974 -1.896163900245071 54.966778673740031 0 0.84804810408105047 0.52991925155115449 1 0 0 forward_v I I I I #
coedge $-1 $286 $287 $288 $289 reversed $112 $-1 #
face $-1 $-1 $290 $66 $-1 $291 forward single #
loop $-1 $292 $293 $114 #
cone-surface $-1 33.822689719556074 26.040320678352568 7.1936383875561578 0 -0.84804810408105047 -0.52991925155115449 0.5 0 0 1 I I -0.70710678118654746 0.70710678118654746 0.5 forward I I I I #
loop $-1 $-1 $294 $87 #
coedge $-1 $184 $184 $295 $296 reversed $115 $-1 #
face $-1 $-1 $297 $67 $-1 $298 forward single #
loop $-1 $299 $300 $117 #
cone-surface $-1 38.407916553495859 26.040320678352568 7.1936383875561578 0 -0.84804810408105047 -0.52991925155115449 0.5 0 0 1 I I -0.70710678118654746 0.70710678118654746 0.5 forward I I I I #
loop $-1 $-1 $301 $88 #
coedge $-1 $189 $189 $302 $303 reversed $118 $-1 #
face $-1 $304 $305 $68 $-1 $306 reversed single #
loop $-1 $-1 $307 $120 #
plane-surface $-1 -36.571424687489163 -31.688023629252356 2.8966425393402346 0 -0.61566148304635926 0.78801074757464917 1 0 0 forward_v I I I I #
coedge $-1 $308 $309 $310 $311 reversed $121 $-1 #
face $-1 $-1 $312 $69 $-1 $313 forward single #
loop $-1 $314 $315 $123 #
cone-surface $-1 -40.206884680827422 -22.916776212700743 7.4881421668524464 0 0.61566148304635926 -0.78801074757464917 0.25 0 0 1 I I -0.70710678118654746 0.70710678118654746 0.25 forward I I I I #
loop $-1 $-1 $316 $90 #
coedge $-1 $198 $198 $317 $318 reversed $124 $-1 #
face $-1 $-1 $319 $70 $-1 $320 forward single #
loop $-1 $321 $322 $126 #
cone-surface $-1 -36.57142468748917 -22.916776212700743 7.4881421668524464 0 0.61566148304635926 -0.78801074757464917 0.25 0 0 1 I I -0.70710678118654746 0.70710678118654746 0.25 forward I I I I #
loop $-1 $-1 $323 $91 #
coedge $-1 $203 $203 $324 $325 reversed $127 $-1 #
face $-1 $-1 $326 $71 $-1 $327 forward single #
loop $-1 $328 $329 $129 #
cone-surface $-1 -32.935964694150911 -22.916776212700743 7.4881421668524464 0 0.61566148304635926 -0.78801074757464917 0.25 0 0 1 I I -0.70710678118654746 0.70710678118654746 0.25 forward I I I I #
loop $-1 $-1 $330 $92 #
coedge $-1 $208 $208 $331 $332 reversed $130 $-1 #
face $-1 $333 $334 $72 $-1 $335 reversed single #
loop $-1 $-1 $336 $132 #
plane-surface $-1 -12.490532310469995 -31.688023629252356 2.8966425393402346 0 -0.61566148304635926 0.78801074757464917 1 0 0 forward_v I I I I #
coedge $-1 $337 $338 $339 $340 reversed $133 $-1 #
face $-1 $-1 $341 $73 $-1 $342 forward single #
loop $-1 $343 $344 $135 #
cone-surface $-1 -16.125992303808253 -22.916776212700743 7.4881421668524464 0 0.61566148304635926 -0.78801074757464917 0.25 0 0 1 I I -0.70710678118654746 0.70710678118654746 0.25 forward I I I I #
loop $-1 $-1 $345 $94 #
coedge $-1 $217 $217 $346 $347 reversed $136 $-1 #
face $-1 $-1 $348 $74 $-1 $349 forward single #
loop $-1 $350 $351 $138 #
cone-surface $-1 -12.490532310469995 -22.916776212700743 7.4881421668524464 0 0.61566148304635926 -0.78801074757464917 0.25 0 0 1 I I -0.70710678118654746 0.70710678118654746 0.25 forward I I I I #
loop $-1 $-1 $352 $95 #
coedge $-1 $222 $222 $353 $354 reversed $139 $-1 #
face $-1 $-1 $355 $75 $-1 $356 forward single #
loop $-1 $357 $358 $141 #
cone-surface $-1 -8.8550723171317429 -22.916776212700743 7.4881421668524464 0 0.61566148304635926 -0.78801074757464917 0.25 0 0 1 I I -0.70710678118654746 0.70710678118654746 0.25 forward I I I I #
loop $-1 $-1 $359 $96 #
coedge $-1 $227 $227 $360 $361 reversed $142 $-1 #
face $-1 $362 $363 $76 $-1 $364 reversed single #
loop $-1 $-1 $365 $144 #
plane-surface $-1 11.590360066549174 -31.688023629252356 2.8966425393402346 0 -0.61566148304635926 0.78801074757464917 1 0 0 forward_v I I I I #
coedge $-1 $366 $367 $368 $369 reversed $145 $-1 #
face $-1 $-1 $370 $77 $-1 $371 forward single #
loop $-1 $372 $373 $147 #
cone-surface $-1 7.954900073210915 -22.916776212700743 7.4881421668524464 0 0.61566148304635926 -0.78801074757464917 0.25 0 0 1 I I -0.70710678118654746 0.70710678118654746 0.25 forward I I I I #
loop $-1 $-1 $374 $98 #
coedge $-1 $236 $236 $375 $376 reversed $148 $-1 #
face $-1 $-1 $377 $78 $-1 $378 forward single #
loop $-1 $379 $380 $150 #
cone-surface $-1 11.590360066549174 -22.916776212700743 7.4881421668524464 0 0.61566148304635926 -0.78801074757464917 0.25 0 0 1 I I -0.70710678118654746 0.70710678118654746 0.25 forward I I I I #
loop $-1 $-1 $381 $99 #
coedge $-1 $241 $241 $382 $383 reversed $151 $-1 #
face $-1 $-1 $384 $79 $-1 $385 forward single #
loop $-1 $386 $387 $153 #
cone-surface $-1 15.225820059887418 -22.916776212700743 7.4881421668524464 0 0.61566148304635926 -0.78801074757464917 0.25 0 0 1 I I -0.70710678118654746 0.70710678118654746 0.25 forward I I I I #
loop $-1 $-1 $388 $100 #
coedge $-1 $246 $246 $389 $390 reversed $154 $-1 #
face $-1 $391 $392 $80 $-1 $393 reversed single #
loop $-1 $-1 $394 $156 #
plane-surface $-1 35.671252443568342 -31.688023629252356 2.8966425393402346 0 -0.61566148304635926 0.78801074757464917 1 0 0 forward_v I I I I #
coedge $-1 $395 $396 $397 $398 reversed $157 $-1 #
face $-1 $-1 $399 $81 $-1 $400 forward single #
loop $-1 $401 $402 $159 #
cone-surface $-1 32.035792450230083 -22.916776212700743 7.4881421668524464 0 0.61566148304635926 -0.78801074757464917 0.25 0 0 1 I I -0.70710678118654746 0.70710678118654746 0.25 forward I I I I #
loop $-1 $-1 $403 $102 #
coedge $-1 $255 $255 $404 $405 reversed $160 $-1 #
face $-1 $-1 $406 $82 $-1 $407 forward single #
loop $-1 $408 $409 $162 #
cone-surface $-1 35.671252443568342 -22.916776212700743 7.4881421668524464 0 0.61566148304635926 -0.78801074757464917 0.25 0 0 1 I I -0.70710678118654746 0.70710678118654746 0.25 forward I I I I #
loop $-1 $-1 $410 $103 #
coedge $-1 $260 $260 $411 $412 reversed $163 $-1 #
face $-1 $-1 $413 $83 $-1 $414 forward single #
loop $-1 $415 $416 $165 #
cone-surface $-1 39.306712436906587 -22.916776212700743 7.4881421668524464 0 0.61566148304635926 -0.78801074757464917 0.25 0 0 1 I I -0.70710678118654746 0.70710678118654746 0.25 forward I I I I #
loop $-1 $-1 $417 $104 #
coedge $-1 $265 $265 $418 $419 reversed $166 $-1 #
face $-1 $420 $421 $63 $-1 $422 reversed single #
loop $-1 $-1 $423 $168 #
plane-surface $-1 0 -31.688023629252374 0 0 1 0 0 0 1 forward_v I I I I #
coedge $-1 $424 $425 $426 $427 forward $169 $-1 #
coedge $-1 $428 $171 $429 $430 forward $106 $-1 #
coedge $-1 $171 $428 $431 $432 forward $106 $-1 #
coedge $-1 $433 $434 $171 $273 reversed $435 $-1 #
edge $-1 $436 -31.688023629252374 $437 31.688023629252374 $272 $438 forward 7 unknown #
face $-1 $439 $440 $64 $-1 $441 reversed single #
loop $-1 $-1 $280 $172 #
plane-surface $-1 -59.224304909342507 0 9.161199199395698 0 0 1 1 0 0 forward_v I I I I #
coedge $-1 $442 $443 $278 $444 forward $173 $-1 #
coedge $-1 $445 $175 $277 $444 reversed $109 $-1 #
coedge $-1 $175 $445 $446 $447 reversed $109 $-1 #
coedge $-1 $448 $449 $175 $281 reversed $275 $-1 #
edge $-1 $450 -31.688023629252374 $451 31.688023629252374 $280 $452 forward 7 unknown #
face $-1 $453 $454 $65 $-1 $455 forward single #
loop $-1 $-1 $456 $176 #
plane-surface $-1 41.464734442789059 89.172405843462741 111.87273493516398 -1 0 0 0 0.84804810408105047 0.52991925155115449 forward_v I I I I #
coedge $-1 $457 $458 $459 $460 reversed $177 $-1 #
coedge $-1 $287 $179 $461 $462 reversed $112 $-1 #
coedge $-1 $179 $286 $457 $463 reversed $112 $-1 #
coedge $-1 $459 $464 $179 $289 forward $454 $-1 #
edge $-1 $465 12.898179292478996 $466 21.438405869960004 $288 $467 forward 7 unknown #
loop $-1 $-1 $295 $180 #
plane-surface $-1 36.115303136525974 -1.896163900245071 54.966778673740031 0 0.84804810408105047 0.52991925155115449 1 0 0 forward_v I I I I #
loop $-1 $-1 $468 $114 #
coedge $-1 $293 $293 $294 $469 reversed $181 $-1 #
coedge $-1 $294 $294 $293 $469 forward $183 $-1 #
coedge $-1 $295 $295 $184 $296 forward $290 $-1 #
edge $-1 $470 -1.1302207260040686e-015 $470 6.2831853071795996 $295 $471 forward 7 unknown #
loop $-1 $-1 $302 $185 #
plane-surface $-1 36.115303136525974 -1.896163900245071 54.966778673740031 0 0.84804810408105047 0.52991925155115449 1 0 0 forward_v I I I I #
loop $-1 $-1 $472 $117 #
coedge $-1 $300 $300 $301 $473 reversed $186 $-1 #
coedge $-1 $301 $301 $300 $473 forward $188 $-1 #
coedge $-1 $302 $302 $189 $303 forward $297 $-1 #
edge $-1 $474 -1.1302207260040686e-015 $474 6.2831853071795996 $302 $475 forward 7 unknown #
face $-1 $476 $477 $68 $-1 $478 reversed single #
loop $-1 $-1 $479 $190 #
plane-surface $-1 -42.630524676386258 -97.801502849958723 87.518035334099281 1 0 0 0 0.61566148304635926 -0.78801074757464917 forward_v I I I I #
coedge $-1 $480 $481 $482 $483 reversed $191 $-1 #
coedge $-1 $309 $193 $484 $485 reversed $121 $-1 #
coedge $-1 $193 $308 $480 $486 reversed $121 $-1 #
coedge $-1 $482 $487 $193 $311 forward $488 $-1 #
edge $-1 $489 17.212727795726988 $490 32.561044334832886 $310 $491 forward 7 unknown #
loop $-1 $-1 $317 $194 #
plane-surface $-1 -36.571424687489163 -31.688023629252356 2.8966425393402346 0 -0.61566148304635926 0.78801074757464917 1 0 0 forward_v I I I I #
loop $-1 $-1 $492 $123 #
coedge $-1 $315 $315 $316 $493 reversed $195 $-1 #
coedge $-1 $316 $316 $315 $493 forward $197 $-1 #
coedge $-1 $317 $317 $198 $318 forward $312 $-1 #
edge $-1 $494 1.9253075861753603e-015 $494 6.2831853071796022 $317 $495 forward 7 unknown #
loop $-1 $-1 $324 $199 #
plane-surface $-1 -36.571424687489163 -31.688023629252356 2.8966425393402346 0 -0.61566148304635926 0.78801074757464917 1 0 0 forward_v I I I I #
loop $-1 $-1 $496 $126 #
coedge $-1 $322 $322 $323 $497 reversed $200 $-1 #
coedge $-1 $323 $323 $322 $497 forward $202 $-1 #
coedge $-1 $324 $324 $203 $325 forward $319 $-1 #
edge $-1 $498 1.9253075861753603e-015 $498 6.2831853071796022 $324 $499 forward 7 unknown #
loop $-1 $-1 $331 $204 #
plane-surface $-1 -36.571424687489163 -31.688023629252356 2.8966425393402346 0 -0.61566148304635926 0.78801074757464917 1 0 0 forward_v I I I I #
loop $-1 $-1 $500 $129 #
coedge $-1 $329 $329 $330 $501 reversed $205 $-1 #
coedge $-1 $330 $330 $329 $501 forward $207 $-1 #
coedge $-1 $331 $331 $208 $332 forward $326 $-1 #
edge $-1 $502 1.9253075861753603e-015 $502 6.2831853071796022 $331 $503 forward 7 unknown #
face $-1 $504 $505 $72 $-1 $506 reversed single #
loop $-1 $-1 $507 $209 #
plane-surface $-1 -18.54963229936709 -97.801502849958723 87.518035334099281 1 0 0 0 0.61566148304635926 -0.78801074757464917 forward_v I I I I #
coedge $-1 $508 $509 $510 $511 reversed $210 $-1 #
coedge $-1 $338 $212 $512 $513 reversed $133 $-1 #
coedge $-1 $212 $337 $508 $514 reversed $133 $-1 #
coedge $-1 $510 $515 $212 $340 forward $516 $-1 #
edge $-1 $517 17.212727795726988 $518 32.561044334832886 $339 $519 forward 7 unknown #
loop $-1 $-1 $346 $213 #
plane-surface $-1 -12.490532310469995 -31.688023629252356 2.8966425393402346 0 -0.61566148304635926 0.78801074757464917 1 0 0 forward_v I I I I #
loop $-1 $-1 $520 $135 #
coedge $-1 $344 $344 $345 $521 reversed $214 $-1 #
coedge $-1 $345 $345 $344 $521 forward $216 $-1 #
coedge $-1 $346 $346 $217 $347 forward $341 $-1 #
edge $-1 $522 1.9253075861753603e-015 $522 6.2831853071796022 $346 $523 forward 7 unknown #
loop $-1 $-1 $353 $218 #
plane-surface $-1 -12.490532310469995 -31.688023629252356 2.8966425393402346 0 -0.61566148304635926 0.78801074757464917 1 0 0 forward_v I I I I #
loop $-1 $-1 $524 $138 #
coedge $-1 $351 $351 $352 $525 reversed $219 $-1 #
coedge $-1 $352 $352 $351 $525 forward $221 $-1 #
coedge $-1 $353 $353 $222 $354 forward $348 $-1 #
edge $-1 $526 1.9253075861753603e-015 $526 6.2831853071796022 $353 $527 forward 7 unknown #
loop $-1 $-1 $360 $223 #
plane-surface $-1 -12.490532310469995 -31.688023629252356 2.8966425393402346 0 -0.61566148304635926 0.78801074757464917 1 0 0 forward_v I I I I #
loop $-1 $-1 $528 $141 #
coedge $-1 $358 $358 $359 $529 reversed $224 $-1 #
coedge $-1 $359 $359 $358 $529 forward $226 $-1 #
coedge $-1 $360 $360 $227 $361 forward $355 $-1 #
edge $-1 $530 1.9253075861753603e-015 $530 6.2831853071796022 $360 $531 forward 7 unknown #
face $-1 $532 $533 $76 $-1 $534 reversed single #
loop $-1 $-1 $535 $228 #
plane-surface $-1 5.5312600776520799 -97.801502849958723 87.518035334099281 1 0 0 0 0.61566148304635926 -0.78801074757464917 forward_v I I I I #
coedge $-1 $536 $537 $538 $539 reversed $229 $-1 #
coedge $-1 $367 $231 $540 $541 reversed $145 $-1 #
coedge $-1 $231 $366 $536 $542 reversed $145 $-1 #
coedge $-1 $538 $543 $231 $369 forward $544 $-1 #
edge $-1 $545 17.212727795726988 $546 32.561044334832886 $368 $547 forward 7 unknown #
loop $-1 $-1 $375 $232 #
plane-surface $-1 11.590360066549174 -31.688023629252356 2.8966425393402346 0 -0.61566148304635926 0.78801074757464917 1 0 0 forward_v I I I I #
loop $-1 $-1 $548 $147 #
coedge $-1 $373 $373 $374 $549 reversed $233 $-1 #
coedge $-1 $374 $374 $373 $549 forward $235 $-1 #
coedge $-1 $375 $375 $236 $376 forward $370 $-1 #
edge $-1 $550 1.9253075861753603e-015 $550 6.2831853071796022 $375 $551 forward 7 unknown #
loop $-1 $-1 $382 $237 #
plane-surface $-1 11.590360066549174 -31.688023629252356 2.8966425393402346 0 -0.61566148304635926 0.78801074757464917 1 0 0 forward_v I I I I #
loop $-1 $-1 $552 $150 #
coedge $-1 $380 $380 $381 $553 reversed $238 $-1 #
coedge $-1 $381 $381 $380 $553 forward $240 $-1 #
coedge $-1 $382 $382 $241 $383 forward $377 $-1 #
edge $-1 $554 1.9253075861753603e-015 $554 6.2831853071796022 $382 $555 forward 7 unknown #
loop $-1 $-1 $389 $242 #
plane-surface $-1 11.590360066549174 -31.688023629252356 2.8966425393402346 0 -0.61566148304635926 0.78801074757464917 1 0 0 forward_v I I I I #
loop $-1 $-1 $556 $153 #
coedge $-1 $387 $387 $388 $557 reversed $243 $-1 #
coedge $-1 $388 $388 $387 $557 forward $245 $-1 #
coedge $-1 $389 $389 $246 $390 forward $384 $-1 #
edge $-1 $558 1.9253075861753603e-015 $558 6.2831853071796022 $389 $559 forward 7 unknown #
face $-1 $560 $561 $80 $-1 $562 reversed single #
loop $-1 $-1 $563 $247 #
plane-surface $-1 29.612152454671246 -97.801502849958723 87.518035334099281 1 0 0 0 0.61566148304635926 -0.78801074757464917 forward_v I I I I #
coedge $-1 $564 $565 $566 $567 reversed $248 $-1 #
coedge $-1 $396 $250 $568 $569 reversed $157 $-1 #
coedge $-1 $250 $395 $564 $570 reversed $157 $-1 #
coedge $-1 $566 $571 $250 $398 forward $572 $-1 #
edge $-1 $573 17.212727795726988 $574 32.561044334832886 $397 $575 forward 7 unknown #
loop $-1 $-1 $404 $251 #
plane-surface $-1 35.671252443568342 -31.688023629252356 2.8966425393402346 0 -0.61566148304635926 0.78801074757464917 1 0 0 forward_v I I I I #
loop $-1 $-1 $576 $159 #
coedge $-1 $402 $402 $403 $577 reversed $252 $-1 #
coedge $-1 $403 $403 $402 $577 forward $254 $-1 #
coedge $-1 $404 $404 $255 $405 forward $399 $-1 #
edge $-1 $578 1.9253075861753603e-015 $578 6.2831853071796022 $404 $579 forward 7 unknown #
loop $-1 $-1 $411 $256 #
plane-surface $-1 35.671252443568342 -31.688023629252356 2.8966425393402346 0 -0.61566148304635926 0.78801074757464917 1 0 0 forward_v I I I I #
loop $-1 $-1 $580 $162 #
coedge $-1 $409 $409 $410 $581 reversed $257 $-1 #
coedge $-1 $410 $410 $409 $581 forward $259 $-1 #
coedge $-1 $411 $411 $260 $412 forward $406 $-1 #
edge $-1 $582 1.9253075861753603e-015 $582 6.2831853071796022 $411 $583 forward 7 unknown #
loop $-1 $-1 $418 $261 #
plane-surface $-1 35.671252443568342 -31.688023629252356 2.8966425393402346 0 -0.61566148304635926 0.78801074757464917 1 0 0 forward_v I I I I #
loop $-1 $-1 $584 $165 #
coedge $-1 $416 $416 $417 $585 reversed $262 $-1 #
coedge $-1 $417 $417 $416 $585 forward $264 $-1 #
coedge $-1 $418 $418 $265 $419 forward $413 $-1 #
edge $-1 $586 1.9253075861753603e-015 $586 6.2831853071796022 $418 $587 forward 7 unknown #
face $-1 $588 $589 $63 $-1 $590 reversed single #
loop $-1 $-1 $591 $266 #
plane-surface $-1 -53.693044831690422 0 0 1 0 0 0 0 -1 forward_v I I I I #
coedge $-1 $592 $431 $593 $594 forward $267 $-1 #
coedge $-1 $595 $269 $592 $596 forward $169 $-1 #
coedge $-1 $269 $595 $597 $598 forward $169 $-1 #
coedge $-1 $434 $433 $269 $427 reversed $435 $-1 #
edge $-1 $599 -31.688023629252374 $600 31.688023629252374 $426 $601 forward 7 unknown #
coedge $-1 $271 $270 $602 $603 forward $106 $-1 #
coedge $-1 $604 $605 $270 $430 reversed $589 $-1 #
edge $-1 $437 -53.693044831690422 $606 53.693044831690422 $429 $607 forward 7 unknown #
coedge $-1 $423 $608 $271 $432 reversed $267 $-1 #
edge $-1 $609 -53.693044831690422 $436 53.693044831690422 $431 $610 forward 7 unknown #
coedge $-1 $426 $272 $608 $611 forward $435 $-1 #
coedge $-1 $272 $426 $604 $612 reversed $435 $-1 #
loop $-1 $-1 $433 $588 #
vertex $-1 $273 $613 #
vertex $-1 $273 $614 #
straight-curve $-1 53.693044831690422 0 14.888061884589382 0 1 0 I I #
face $-1 $615 $616 $64 $-1 $617 forward single #
loop $-1 $-1 $618 $274 #
plane-surface $-1 -64.755564986994585 0 12.024630541992542 1 0 0 0 0 -1 forward_v I I I I #
coedge $-1 $619 $277 $449 $620 reversed $173 $-1 #
coedge $-1 $277 $619 $621 $622 reversed $173 $-1 #
edge $-1 $623 -14.888061884589382 $451 -9.161199199395698 $277 $624 forward 7 unknown #
coedge $-1 $279 $278 $625 $626 reversed $109 $-1 #
coedge $-1 $627 $628 $279 $447 forward $629 $-1 #
edge $-1 $450 9.161199199395698 $630 14.888061884589382 $446 $631 forward 7 unknown #
coedge $-1 $632 $280 $628 $633 forward $275 $-1 #
coedge $-1 $280 $632 $442 $620 forward $275 $-1 #
vertex $-1 $447 $634 #
vertex $-1 $444 $635 #
straight-curve $-1 -53.693044831690422 0 9.161199199395698 0 1 0 I I #
face $-1 $-1 $636 $65 $-1 $637 reversed single #
loop $-1 $-1 $288 $282 #
plane-surface $-1 0 0 14.888061884589382 0 0 1 1 0 0 forward_v I I I I #
coedge $-1 $638 $639 $640 $641 reversed $283 $-1 #
coedge $-1 $642 $285 $287 $463 forward $177 $-1 #
coedge $-1 $285 $642 $638 $643 forward $177 $-1 #
coedge $-1 $640 $288 $285 $460 forward $454 $-1 #
edge $-1 $466 12.708220261999902 $644 23.407082874526072 $459 $645 forward 7 unknown #
coedge $-1 $646 $647 $286 $462 forward $636 $-1 #
edge $-1 $648 -54.715525515567975 $465 -41.048305582992604 $461 $649 forward 7 unknown #
edge $-1 $466 47.259956830609461 $648 63.376047258504755 $287 $650 forward 7 unknown #
coedge $-1 $288 $640 $646 $651 forward $454 $-1 #
vertex $-1 $462 $652 #
vertex $-1 $289 $653 #
straight-curve $-1 30.765871830262888 44.58620292173137 14.888061884589384 0 -1 0 I I #
coedge $-1 $468 $468 $-1 $654 reversed $292 $-1 #
edge $-1 $655 0 $655 6.2831853071796004 $293 $656 forward 7 unknown #
vertex $-1 $296 $657 #
ellipse-curve $-1 33.822689719556074 27.417910340511874 8.0544519183016927 0 0.84804810408105047 0.52991925155115449 1 0 0 1 I I #
coedge $-1 $472 $472 $-1 $658 reversed $299 $-1 #
edge $-1 $659 0 $659 6.2831853071796004 $300 $660 forward 7 unknown #
vertex $-1 $303 $661 #
ellipse-curve $-1 38.407916553495859 27.417910340511874 8.0544519183016927 0 0.84804810408105047 0.52991925155115449 1 0 0 1 I I #
face $-1 $-1 $488 $68 $-1 $662 forward single #
loop $-1 $-1 $663 $304 #
plane-surface $-1 0 -31.688023629252374 0 0 1 0 0 0 1 forward_v I I I I #
coedge $-1 $664 $665 $666 $667 reversed $305 $-1 #
coedge $-1 $668 $307 $309 $486 forward $191 $-1 #
coedge $-1 $307 $668 $664 $669 forward $191 $-1 #
coedge $-1 $666 $310 $307 $483 forward $488 $-1 #
edge $-1 $490 12.226612354847486 $670 24.344812332641677 $482 $671 forward 7 unknown #
coedge $-1 $672 $673 $308 $485 forward $477 $-1 #
edge $-1 $674 -40.86237512770942 $489 -28.870955782460257 $484 $675 forward 7 unknown #
edge $-1 $490 -19.477293407920069 $674 2.2473550077527763e-014 $309 $676 forward 7 unknown #
coedge $-1 $310 $666 $672 $677 forward $488 $-1 #
loop $-1 $-1 $666 $476 #
vertex $-1 $485 $678 #
vertex $-1 $311 $679 #
straight-curve $-1 -30.512324698592067 -48.900751424979362 14.888061884589384 0 1 0 I I #
coedge $-1 $492 $492 $-1 $680 reversed $314 $-1 #
edge $-1 $681 0 $681 6.2831853071796004 $315 $682 forward 7 unknown #
vertex $-1 $318 $683 #
ellipse-curve $-1 -40.206884680827422 -24.013865359699427 8.8923522119648002 0 -0.61566148304635926 0.78801074757464917 0.5 0 0 1 I I #
coedge $-1 $496 $496 $-1 $684 reversed $321 $-1 #
edge $-1 $685 0 $685 6.2831853071796004 $322 $686 forward 7 unknown #
vertex $-1 $325 $687 #
ellipse-curve $-1 -36.57142468748917 -24.013865359699427 8.8923522119648002 0 -0.61566148304635926 0.78801074757464917 0.5 0 0 1 I I #
coedge $-1 $500 $500 $-1 $688 reversed $328 $-1 #
edge $-1 $689 0 $689 6.2831853071796004 $329 $690 forward 7 unknown #
vertex $-1 $332 $691 #
ellipse-curve $-1 -32.935964694150911 -24.013865359699427 8.8923522119648002 0 -0.61566148304635926 0.78801074757464917 0.5 0 0 1 I I #
face $-1 $-1 $516 $72 $-1 $692 forward single #
loop $-1 $-1 $693 $333 #
plane-surface $-1 0 -31.688023629252374 0 0 1 0 0 0 1 forward_v I I I I #
coedge $-1 $694 $695 $696 $697 reversed $334 $-1 #
coedge $-1 $698 $336 $338 $514 forward $210 $-1 #
coedge $-1 $336 $698 $694 $699 forward $210 $-1 #
coedge $-1 $696 $339 $336 $511 forward $516 $-1 #
edge $-1 $518 0.1861661663379035 $700 12.304366144132093 $510 $701 forward 7 unknown #
coedge $-1 $702 $703 $337 $513 forward $505 $-1 #
edge $-1 $704 -40.86237512770942 $517 -28.870955782460257 $512 $705 forward 7 unknown #
edge $-1 $518 -19.477293407920069 $704 2.2473550077527763e-014 $338 $706 forward 7 unknown #
coedge $-1 $339 $696 $702 $707 forward $516 $-1 #
loop $-1 $-1 $696 $504 #
vertex $-1 $513 $708 #
vertex $-1 $340 $709 #
straight-curve $-1 -6.4314323215729008 -48.900751424979362 14.888061884589384 0 1 0 I I #
coedge $-1 $520 $520 $-1 $710 reversed $343 $-1 #
edge $-1 $711 0 $711 6.2831853071796004 $344 $712 forward 7 unknown #
vertex $-1 $347 $713 #
ellipse-curve $-1 -16.125992303808253 -24.013865359699427 8.8923522119648002 0 -0.61566148304635926 0.78801074757464917 0.5 0 0 1 I I #
coedge $-1 $524 $524 $-1 $714 reversed $350 $-1 #
edge $-1 $715 0 $715 6.2831853071796004 $351 $716 forward 7 unknown #
vertex $-1 $354 $717 #
ellipse-curve $-1 -12.490532310469995 -24.013865359699427 8.8923522119648002 0 -0.61566148304635926 0.78801074757464917 0.5 0 0 1 I I #
coedge $-1 $528 $528 $-1 $718 reversed $357 $-1 #
edge $-1 $719 0 $719 6.2831853071796004 $358 $720 forward 7 unknown #
vertex $-1 $361 $721 #
ellipse-curve $-1 -8.8550723171317429 -24.013865359699427 8.8923522119648002 0 -0.61566148304635926 0.78801074757464917 0.5 0 0 1 I I #
face $-1 $-1 $544 $76 $-1 $722 forward single #
loop $-1 $-1 $723 $362 #
plane-surface $-1 0 -31.688023629252374 0 0 1 0 0 0 1 forward_v I I I I #
coedge $-1 $724 $725 $726 $727 reversed $363 $-1 #
coedge $-1 $728 $365 $367 $542 forward $229 $-1 #
coedge $-1 $365 $728 $724 $729 forward $229 $-1 #
coedge $-1 $726 $368 $365 $539 forward $544 $-1 #
edge $-1 $546 -11.854280022171682 $730 0.26391995562250692 $538 $731 forward 7 unknown #
coedge $-1 $732 $733 $366 $541 forward $533 $-1 #
edge $-1 $734 -40.86237512770942 $545 -28.870955782460257 $540 $735 forward 7 unknown #
edge $-1 $546 -19.477293407920069 $734 2.2473550077527763e-014 $367 $736 forward 7 unknown #
coedge $-1 $368 $726 $732 $737 forward $544 $-1 #
loop $-1 $-1 $726 $532 #
vertex $-1 $541 $738 #
vertex $-1 $369 $739 #
straight-curve $-1 17.649460055446269 -48.900751424979362 14.888061884589384 0 1 0 I I #
coedge $-1 $548 $548 $-1 $740 reversed $372 $-1 #
edge $-1 $741 0 $741 6.2831853071796004 $373 $742 forward 7 unknown #
vertex $-1 $376 $743 #
ellipse-curve $-1 7.954900073210915 -24.013865359699427 8.8923522119648002 0 -0.61566148304635926 0.78801074757464917 0.5 0 0 1 I I #
coedge $-1 $552 $552 $-1 $744 reversed $379 $-1 #
edge $-1 $745 0 $745 6.2831853071796004 $380 $746 forward 7 unknown #
vertex $-1 $383 $747 #
ellipse-curve $-1 11.590360066549174 -24.013865359699427 8.8923522119648002 0 -0.61566148304635926 0.78801074757464917 0.5 0 0 1 I I #
coedge $-1 $556 $556 $-1 $748 reversed $386 $-1 #
edge $-1 $749 0 $749 6.2831853071796004 $387 $750 forward 7 unknown #
vertex $-1 $390 $751 #
ellipse-curve $-1 15.225820059887418 -24.013865359699427 8.8923522119648002 0 -0.61566148304635926 0.78801074757464917 0.5 0 0 1 I I #
face $-1 $-1 $572 $80 $-1 $752 forward single #
loop $-1 $-1 $753 $391 #
plane-surface $-1 0 -31.688023629252374 0 0 1 0 0 0 1 forward_v I I I I #
coedge $-1 $754 $755 $756 $757 reversed $392 $-1 #
coedge $-1 $758 $394 $396 $570 forward $248 $-1 #
coedge $-1 $394 $758 $754 $759 forward $248 $-1 #
coedge $-1 $756 $397 $394 $567 forward $572 $-1 #
edge $-1 $574 -23.894726210681267 $760 -11.776526232887075 $566 $761 forward 7 unknown #
coedge $-1 $762 $763 $395 $569 forward $561 $-1 #
edge $-1 $764 -40.86237512770942 $573 -28.870955782460257 $568 $765 forward 7 unknown #
edge $-1 $574 -19.477293407920069 $764 2.2473550077527763e-014 $396 $766 forward 7 unknown #
coedge $-1 $397 $756 $762 $767 forward $572 $-1 #
loop $-1 $-1 $756 $560 #
vertex $-1 $569 $768 #
vertex $-1 $398 $769 #
straight-curve $-1 41.730352432465438 -48.900751424979362 14.888061884589384 0 1 0 I I #
coedge $-1 $576 $576 $-1 $770 reversed $401 $-1 #
edge $-1 $771 0 $771 6.2831853071796004 $402 $772 forward 7 unknown #
vertex $-1 $405 $773 #
ellipse-curve $-1 32.035792450230083 -24.013865359699427 8.8923522119648002 0 -0.61566148304635926 0.78801074757464917 0.5 0 0 1 I I #
coedge $-1 $580 $580 $-1 $774 reversed $408 $-1 #
edge $-1 $775 0 $775 6.2831853071796004 $409 $776 forward 7 unknown #
vertex $-1 $412 $777 #
ellipse-curve $-1 35.671252443568342 -24.013865359699427 8.8923522119648002 0 -0.61566148304635926 0.78801074757464917 0.5 0 0 1 I I #
coedge $-1 $584 $584 $-1 $778 reversed $415 $-1 #
edge $-1 $779 0 $779 6.2831853071796004 $416 $780 forward 7 unknown #
vertex $-1 $419 $781 #
ellipse-curve $-1 39.306712436906587 -24.013865359699427 8.8923522119648002 0 -0.61566148304635926 0.78801074757464917 0.5 0 0 1 I I #
face $-1 $-1 $435 $63 $-1 $782 reversed single #
loop $-1 $-1 $604 $420 #
plane-surface $-1 0 31.688023629252374 0 0 -1 0 0 0 -1 forward_v I I I I #
coedge $-1 $783 $602 $605 $784 forward $421 $-1 #
coedge $-1 $608 $423 $424 $596 reversed $267 $-1 #
coedge $-1 $602 $783 $423 $594 reversed $421 $-1 #
edge $-1 $609 -14.888061884589382 $785 14.888061884589382 $593 $786 forward 7 unknown #
coedge $-1 $425 $424 $783 $787 forward $169 $-1 #
edge $-1 $600 -53.693044831690422 $785 53.693044831690422 $592 $788 forward 7 unknown #
coedge $-1 $605 $604 $425 $598 reversed $589 $-1 #
edge $-1 $789 -53.693044831690422 $599 53.693044831690422 $597 $790 forward 7 unknown #
vertex $-1 $427 $791 #
vertex $-1 $611 $792 #
straight-curve $-1 53.693044831690422 0 -14.888061884589382 0 -1 0 I I #
coedge $-1 $591 $593 $428 $603 reversed $421 $-1 #
edge $-1 $606 -31.688023629252374 $609 31.688023629252374 $602 $793 forward 7 unknown #
coedge $-1 $597 $429 $434 $612 forward $589 $-1 #
coedge $-1 $429 $597 $591 $784 reversed $589 $-1 #
vertex $-1 $430 $794 #
straight-curve $-1 0 31.688023629252374 14.888061884589382 -1 0 0 I I #
coedge $-1 $431 $592 $433 $611 reversed $267 $-1 #
vertex $-1 $603 $795 #
straight-curve $-1 0 -31.688023629252374 14.888061884589382 1 0 0 I I #
edge $-1 $436 -14.888061884589382 $600 14.888061884589382 $433 $796 forward 7 unknown #
edge $-1 $437 -14.888061884589382 $599 14.888061884589382 $434 $797 forward 7 unknown #
point $-1 53.693044831690422 -31.688023629252374 14.888061884589382 #
point $-1 53.693044831690422 31.688023629252374 14.888061884589382 #
face $-1 $-1 $629 $64 $-1 $798 reversed single #
loop $-1 $-1 $625 $439 #
plane-surface $-1 0 0 14.888061884589382 0 0 1 1 0 0 forward_v I I I I #
coedge $-1 $799 $800 $619 $801 forward $440 $-1 #
coedge $-1 $443 $442 $618 $801 reversed $173 $-1 #
edge $-1 $802 -5.5312600776520782 $451 5.5312600776520782 $442 $803 forward 7 unknown #
coedge $-1 $804 $625 $443 $622 forward $616 $-1 #
edge $-1 $623 53.693044831690422 $805 64.755564986994585 $443 $806 forward 7 unknown #
vertex $-1 $622 $807 #
straight-curve $-1 -53.693044831690422 31.688023629252374 0 0 0 -1 I I #
coedge $-1 $621 $808 $445 $626 forward $616 $-1 #
edge $-1 $630 -31.688023629252374 $623 31.688023629252374 $625 $809 forward 7 unknown #
coedge $-1 $810 $446 $808 $811 reversed $629 $-1 #
coedge $-1 $446 $810 $448 $633 reversed $629 $-1 #
loop $-1 $-1 $446 $615 #
vertex $-1 $447 $812 #
straight-curve $-1 -53.693044831690422 -31.688023629252374 0 0 0 1 I I #
coedge $-1 $449 $448 $799 $813 forward $275 $-1 #
edge $-1 $450 -5.5312600776520782 $814 5.5312600776520782 $628 $815 forward 7 unknown #
point $-1 -53.693044831690429 -31.688023629252374 9.161199199395698 #
point $-1 -53.693044831690429 31.688023629252374 9.161199199395698 #
loop $-1 $-1 $461 $453 #
plane-surface $-1 0 31.688023629252374 0 0 -1 0 0 0 -1 forward_v I I I I #
coedge $-1 $639 $456 $458 $643 reversed $283 $-1 #
coedge $-1 $456 $638 $816 $817 reversed $283 $-1 #
coedge $-1 $464 $459 $456 $641 forward $454 $-1 #
edge $-1 $644 -21.438405869960004 $818 -12.898179292478996 $640 $819 forward 7 unknown #
coedge $-1 $458 $457 $647 $820 reversed $177 $-1 #
edge $-1 $821 -63.376047258504755 $644 -47.259956830609461 $638 $822 forward 7 unknown #
vertex $-1 $460 $823 #
straight-curve $-1 18.057651568262987 23.147797051771366 14.888061884589384 1 0 0 I I #
coedge $-1 $816 $461 $464 $651 reversed $636 $-1 #
coedge $-1 $461 $816 $642 $820 forward $636 $-1 #
vertex $-1 $462 $824 #
straight-curve $-1 30.765871830262888 31.688023629252374 55.936367467581988 0 0 1 I I #
straight-curve $-1 30.765871830262888 -1.896163900245071 54.966778673740031 0 0.52991925155115449 -0.84804810408105047 I I #
edge $-1 $818 -41.464734442789059 $465 -30.765871830262888 $646 $825 forward 7 unknown #
point $-1 30.765871830262888 31.688023629252374 14.888061884589382 #
point $-1 30.765871830262888 23.147797051771366 14.888061884589384 #
edge $-1 $826 1 $826 0 $468 $-1 forward 7 unknown #
vertex $-1 $469 $827 #
ellipse-curve $-1 33.822689719556074 26.464344730393094 7.4585980133317351 0 0.84804810408105047 0.52991925155115449 1 0 0 1 I I #
point $-1 34.822689719556074 27.417910340511877 8.0544519183016963 #
edge $-1 $828 1 $828 0 $472 $-1 forward 7 unknown #
vertex $-1 $473 $829 #
ellipse-curve $-1 38.407916553495859 26.464344730393094 7.4585980133317351 0 0.84804810408105047 0.52991925155115449 1 0 0 1 I I #
point $-1 39.407916553495859 27.417910340511877 8.0544519183016963 #
plane-surface $-1 0 0 14.888061884589382 0 0 1 1 0 0 forward_v I I I I #
coedge $-1 $673 $672 $665 $830 forward $477 $-1 #
coedge $-1 $665 $479 $481 $669 reversed $305 $-1 #
coedge $-1 $479 $664 $663 $830 reversed $305 $-1 #
coedge $-1 $487 $482 $479 $667 forward $488 $-1 #
edge $-1 $670 -32.561044334832886 $831 -17.212727795726988 $666 $832 forward 7 unknown #
coedge $-1 $481 $480 $673 $833 reversed $191 $-1 #
edge $-1 $834 -2.2473550077527763e-014 $670 19.477293407920069 $664 $835 forward 7 unknown #
vertex $-1 $483 $836 #
straight-curve $-1 -18.285712343744581 -16.339707090146476 14.888061884589382 -1 0 0 I I #
coedge $-1 $663 $484 $487 $677 reversed $477 $-1 #
coedge $-1 $484 $663 $668 $833 forward $477 $-1 #
vertex $-1 $485 $837 #
straight-curve $-1 -30.512324698592067 -31.68802362925237 43.75901766704964 0 0 1 I I #
straight-curve $-1 -30.512324698592067 -31.688023629252356 2.8966425393402346 0 -0.78801074757464917 -0.61566148304635926 I I #
edge $-1 $831 -42.630524676386258 $489 -30.512324698592067 $672 $838 forward 7 unknown #
point $-1 -30.512324698592067 -31.688023629252374 14.888061884589382 #
point $-1 -30.512324698592067 -16.339707090146476 14.888061884589382 #
edge $-1 $839 1 $839 0 $492 $-1 forward 7 unknown #
vertex $-1 $493 $840 #
ellipse-curve $-1 -40.206884680827422 -23.070691583462331 7.6851448537461087 0 -0.61566148304635926 0.78801074757464917 0.5 0 0 1 I I #
point $-1 -39.706884680827422 -24.013865359699434 8.8923522119648108 #
edge $-1 $841 1 $841 0 $496 $-1 forward 7 unknown #
vertex $-1 $497 $842 #
ellipse-curve $-1 -36.57142468748917 -23.070691583462331 7.6851448537461087 0 -0.61566148304635926 0.78801074757464917 0.5 0 0 1 I I #
point $-1 -36.07142468748917 -24.013865359699434 8.8923522119648108 #
edge $-1 $843 1 $843 0 $500 $-1 forward 7 unknown #
vertex $-1 $501 $844 #
ellipse-curve $-1 -32.935964694150911 -23.070691583462331 7.6851448537461087 0 -0.61566148304635926 0.78801074757464917 0.5 0 0 1 I I #
point $-1 -32.435964694150911 -24.013865359699434 8.8923522119648108 #
plane-surface $-1 0 0 14.888061884589382 0 0 1 1 0 0 forward_v I I I I #
coedge $-1 $703 $702 $695 $845 forward $505 $-1 #
coedge $-1 $695 $507 $509 $699 reversed $334 $-1 #
coedge $-1 $507 $694 $693 $845 reversed $334 $-1 #
coedge $-1 $515 $510 $507 $697 forward $516 $-1 #
edge $-1 $700 -32.561044334832886 $846 -17.212727795726988 $696 $847 forward 7 unknown #
coedge $-1 $509 $508 $703 $848 reversed $210 $-1 #
edge $-1 $849 -2.2473550077527763e-014 $700 19.477293407920069 $694 $850 forward 7 unknown #
vertex $-1 $511 $851 #
straight-curve $-1 -6.2452661552349973 -16.339707090146476 14.888061884589382 -1 0 0 I I #
coedge $-1 $693 $512 $515 $707 reversed $505 $-1 #
coedge $-1 $512 $693 $698 $848 forward $505 $-1 #
vertex $-1 $513 $852 #
straight-curve $-1 -6.4314323215729008 -31.68802362925237 43.75901766704964 0 0 1 I I #
straight-curve $-1 -6.4314323215729008 -31.688023629252356 2.8966425393402346 0 -0.78801074757464917 -0.61566148304635926 I I #
edge $-1 $846 -18.54963229936709 $517 -6.4314323215729008 $702 $853 forward 7 unknown #
point $-1 -6.4314323215729008 -31.688023629252374 14.888061884589382 #
point $-1 -6.4314323215729008 -16.339707090146476 14.888061884589382 #
edge $-1 $854 1 $854 0 $520 $-1 forward 7 unknown #
vertex $-1 $521 $855 #
ellipse-curve $-1 -16.125992303808253 -23.070691583462331 7.6851448537461087 0 -0.61566148304635926 0.78801074757464917 0.5 0 0 1 I I #
point $-1 -15.625992303808253 -24.013865359699434 8.8923522119648108 #
edge $-1 $856 1 $856 0 $524 $-1 forward 7 unknown #
vertex $-1 $525 $857 #
ellipse-curve $-1 -12.490532310469995 -23.070691583462331 7.6851448537461087 0 -0.61566148304635926 0.78801074757464917 0.5 0 0 1 I I #
point $-1 -11.990532310469995 -24.013865359699434 8.8923522119648108 #
edge $-1 $858 1 $858 0 $528 $-1 forward 7 unknown #
vertex $-1 $529 $859 #
ellipse-curve $-1 -8.8550723171317429 -23.070691583462331 7.6851448537461087 0 -0.61566148304635926 0.78801074757464917 0.5 0 0 1 I I #
point $-1 -8.3550723171317429 -24.013865359699434 8.8923522119648108 #
plane-surface $-1 0 0 14.888061884589382 0 0 1 1 0 0 forward_v I I I I #
coedge $-1 $733 $732 $725 $860 forward $533 $-1 #
coedge $-1 $725 $535 $537 $729 reversed $363 $-1 #
coedge $-1 $535 $724 $723 $860 reversed $363 $-1 #
coedge $-1 $543 $538 $535 $727 forward $544 $-1 #
edge $-1 $730 -32.561044334832886 $861 -17.212727795726988 $726 $862 forward 7 unknown #
coedge $-1 $537 $536 $733 $863 reversed $229 $-1 #
edge $-1 $864 -2.2473550077527763e-014 $730 19.477293407920069 $724 $865 forward 7 unknown #
vertex $-1 $539 $866 #
straight-curve $-1 5.7951800332745869 -16.339707090146476 14.888061884589382 -1 0 0 I I #
coedge $-1 $723 $540 $543 $737 reversed $533 $-1 #
coedge $-1 $540 $723 $728 $863 forward $533 $-1 #
vertex $-1 $541 $867 #
straight-curve $-1 17.649460055446269 -31.68802362925237 43.75901766704964 0 0 1 I I #
straight-curve $-1 17.649460055446269 -31.688023629252356 2.8966425393402346 0 -0.78801074757464917 -0.61566148304635926 I I #
edge $-1 $861 5.5312600776520799 $545 17.649460055446269 $732 $868 forward 7 unknown #
point $-1 17.649460055446269 -31.688023629252374 14.888061884589382 #
point $-1 17.649460055446269 -16.339707090146476 14.888061884589382 #
edge $-1 $869 1 $869 0 $548 $-1 forward 7 unknown #
vertex $-1 $549 $870 #
ellipse-curve $-1 7.954900073210915 -23.070691583462331 7.6851448537461087 0 -0.61566148304635926 0.78801074757464917 0.5 0 0 1 I I #
point $-1 8.454900073210915 -24.013865359699434 8.8923522119648108 #
edge $-1 $871 1 $871 0 $552 $-1 forward 7 unknown #
vertex $-1 $553 $872 #
ellipse-curve $-1 11.590360066549174 -23.070691583462331 7.6851448537461087 0 -0.61566148304635926 0.78801074757464917 0.5 0 0 1 I I #
point $-1 12.090360066549174 -24.013865359699434 8.8923522119648108 #
edge $-1 $873 1 $873 0 $556 $-1 forward 7 unknown #
vertex $-1 $557 $874 #
ellipse-curve $-1 15.225820059887418 -23.070691583462331 7.6851448537461087 0 -0.61566148304635926 0.78801074757464917 0.5 0 0 1 I I #
point $-1 15.725820059887418 -24.013865359699434 8.8923522119648108 #
plane-surface $-1 0 0 14.888061884589382 0 0 1 1 0 0 forward_v I I I I #
coedge $-1 $763 $762 $755 $875 forward $561 $-1 #
coedge $-1 $755 $563 $565 $759 reversed $392 $-1 #
coedge $-1 $563 $754 $753 $875 reversed $392 $-1 #
coedge $-1 $571 $566 $563 $757 forward $572 $-1 #
edge $-1 $760 -32.561044334832886 $876 -17.212727795726988 $756 $877 forward 7 unknown #
coedge $-1 $565 $564 $763 $878 reversed $248 $-1 #
edge $-1 $879 -2.2473550077527763e-014 $760 19.477293407920069 $754 $880 forward 7 unknown #
vertex $-1 $567 $881 #
straight-curve $-1 17.835626221784171 -16.339707090146476 14.888061884589382 -1 0 0 I I #
coedge $-1 $753 $568 $571 $767 reversed $561 $-1 #
coedge $-1 $568 $753 $758 $878 forward $561 $-1 #
vertex $-1 $569 $882 #
straight-curve $-1 41.730352432465438 -31.68802362925237 43.75901766704964 0 0 1 I I #
straight-curve $-1 41.730352432465438 -31.688023629252356 2.8966425393402346 0 -0.78801074757464917 -0.61566148304635926 I I #
edge $-1 $876 29.612152454671246 $573 41.730352432465438 $762 $883 forward 7 unknown #
point $-1 41.730352432465438 -31.688023629252374 14.888061884589382 #
point $-1 41.730352432465438 -16.339707090146476 14.888061884589382 #
edge $-1 $884 1 $884 0 $576 $-1 forward 7 unknown #
vertex $-1 $577 $885 #
ellipse-curve $-1 32.035792450230083 -23.070691583462331 7.6851448537461087 0 -0.61566148304635926 0.78801074757464917 0.5 0 0 1 I I #
point $-1 32.535792450230083 -24.013865359699434 8.8923522119648108 #
edge $-1 $886 1 $886 0 $580 $-1 forward 7 unknown #
vertex $-1 $581 $887 #
ellipse-curve $-1 35.671252443568342 -23.070691583462331 7.6851448537461087 0 -0.61566148304635926 0.78801074757464917 0.5 0 0 1 I I #
point $-1 36.171252443568342 -24.013865359699434 8.8923522119648108 #
edge $-1 $888 1 $888 0 $584 $-1 forward 7 unknown #
vertex $-1 $585 $889 #
ellipse-curve $-1 39.306712436906587 -23.070691583462331 7.6851448537461087 0 -0.61566148304635926 0.78801074757464917 0.5 0 0 1 I I #
point $-1 39.806712436906587 -24.013865359699434 8.8923522119648108 #
plane-surface $-1 53.693044831690422 0 0 -1 0 0 0 0 1 forward_v I I I I #
coedge $-1 $593 $591 $595 $787 reversed $421 $-1 #
edge $-1 $606 -14.888061884589382 $789 14.888061884589382 $605 $890 forward 7 unknown #
vertex $-1 $787 $891 #
straight-curve $-1 -53.693044831690422 -31.688023629252374 0 0 0 -1 I I #
edge $-1 $785 -31.688023629252374 $789 31.688023629252374 $783 $892 forward 7 unknown #
straight-curve $-1 0 -31.688023629252374 -14.888061884589382 -1 0 0 I I #
vertex $-1 $598 $893 #
straight-curve $-1 0 31.688023629252374 -14.888061884589382 1 0 0 I I #
point $-1 53.693044831690422 31.688023629252374 -14.888061884589382 #
point $-1 53.693044831690422 -31.688023629252374 -14.888061884589382 #
straight-curve $-1 -53.693044831690422 0 14.888061884589382 0 -1 0 I I #
point $-1 -53.693044831690422 31.688023629252374 14.888061884589382 #
point $-1 -53.693044831690422 -31.688023629252374 14.888061884589382 #
straight-curve $-1 53.693044831690422 -31.688023629252374 0 0 0 -1 I I #
straight-curve $-1 53.693044831690422 31.688023629252374 0 0 0 -1 I I #
plane-surface $-1 0 -31.688023629252374 0 0 1 0 0 0 1 forward_v I I I I #
coedge $-1 $894 $618 $632 $813 reversed $440 $-1 #
coedge $-1 $618 $894 $804 $895 reversed $440 $-1 #
edge $-1 $805 -2.8634313425968436 $802 2.8634313425968436 $619 $896 forward 7 unknown #
vertex $-1 $620 $897 #
straight-curve $-1 -59.224304909342507 31.688023629252374 9.161199199395698 1 0 0 I I #
coedge $-1 $808 $621 $800 $895 forward $616 $-1 #
vertex $-1 $622 $898 #
straight-curve $-1 0 31.688023629252374 14.888061884589382 -1 0 0 I I #
point $-1 -53.693044831690422 31.688023629252374 14.888061884589382 #
coedge $-1 $625 $804 $627 $811 forward $616 $-1 #
straight-curve $-1 -53.693044831690422 0 14.888061884589382 0 1 0 I I #
coedge $-1 $628 $627 $894 $899 forward $629 $-1 #
edge $-1 $900 -64.755564986994585 $630 -53.693044831690422 $627 $901 forward 7 unknown #
point $-1 -53.693044831690422 -31.688023629252374 14.888061884589382 #
edge $-1 $814 -31.688023629252374 $802 31.688023629252374 $799 $902 forward 7 unknown #
vertex $-1 $813 $903 #
straight-curve $-1 -59.224304909342507 -31.688023629252374 9.161199199395698 -1 0 0 I I #
coedge $-1 $647 $646 $639 $817 forward $636 $-1 #
edge $-1 $818 41.048305582992604 $821 54.715525515567975 $816 $904 forward 7 unknown #
vertex $-1 $651 $905 #
straight-curve $-1 41.464734442789059 44.58620292173137 14.888061884589384 0 1 0 I I #
edge $-1 $821 -23.407082874526072 $648 -12.708220261999902 $647 $906 forward 7 unknown #
vertex $-1 $820 $907 #
straight-curve $-1 41.464734442789059 -1.896163900245071 54.966778673740031 0 -0.52991925155115449 0.84804810408105047 I I #
point $-1 41.464734442789059 23.147797051771366 14.888061884589384 #
point $-1 30.765871830262888 31.68802362925237 1.2208419520140126 #
straight-curve $-1 0 31.688023629252374 14.888061884589382 -1 0 0 I I #
vertex $-1 $654 $908 #
point $-1 34.822689719556074 26.464344730393094 7.4585980133317351 #
vertex $-1 $658 $909 #
point $-1 39.407916553495859 26.464344730393094 7.4585980133317351 #
edge $-1 $831 28.870955782460257 $834 40.86237512770942 $663 $910 forward 7 unknown #
vertex $-1 $677 $911 #
straight-curve $-1 -42.630524676386258 -48.900751424979362 14.888061884589384 0 -1 0 I I #
edge $-1 $834 -24.344812332641677 $674 -12.226612354847486 $673 $912 forward 7 unknown #
vertex $-1 $833 $913 #
straight-curve $-1 -42.630524676386258 -31.688023629252356 2.8966425393402346 0 0.78801074757464917 0.61566148304635926 I I #
point $-1 -42.630524676386258 -16.339707090146476 14.888061884589382 #
point $-1 -30.512324698592067 -31.688023629252374 2.8966425393402209 #
straight-curve $-1 0 -31.688023629252374 14.888061884589382 1 0 0 I I #
vertex $-1 $680 $914 #
point $-1 -39.706884680827422 -23.070691583462331 7.6851448537461087 #
vertex $-1 $684 $915 #
point $-1 -36.07142468748917 -23.070691583462331 7.6851448537461087 #
vertex $-1 $688 $916 #
point $-1 -32.435964694150911 -23.070691583462331 7.6851448537461087 #
edge $-1 $846 28.870955782460257 $849 40.86237512770942 $693 $917 forward 7 unknown #
vertex $-1 $707 $918 #
straight-curve $-1 -18.54963229936709 -48.900751424979362 14.888061884589384 0 -1 0 I I #
edge $-1 $849 -12.304366144132093 $704 -0.1861661663379035 $703 $919 forward 7 unknown #
vertex $-1 $848 $920 #
straight-curve $-1 -18.54963229936709 -31.688023629252356 2.8966425393402346 0 0.78801074757464917 0.61566148304635926 I I #
point $-1 -18.54963229936709 -16.339707090146476 14.888061884589382 #
point $-1 -6.4314323215729008 -31.688023629252374 2.8966425393402209 #
straight-curve $-1 0 -31.688023629252374 14.888061884589382 1 0 0 I I #
vertex $-1 $710 $921 #
point $-1 -15.625992303808253 -23.070691583462331 7.6851448537461087 #
vertex $-1 $714 $922 #
point $-1 -11.990532310469995 -23.070691583462331 7.6851448537461087 #
vertex $-1 $718 $923 #
point $-1 -8.3550723171317429 -23.070691583462331 7.6851448537461087 #
edge $-1 $861 28.870955782460257 $864 40.86237512770942 $723 $924 forward 7 unknown #
vertex $-1 $737 $925 #
straight-curve $-1 5.5312600776520799 -48.900751424979362 14.888061884589384 0 -1 0 I I #
edge $-1 $864 -0.26391995562250692 $734 11.854280022171682 $733 $926 forward 7 unknown #
vertex $-1 $863 $927 #
straight-curve $-1 5.5312600776520799 -31.688023629252356 2.8966425393402346 0 0.78801074757464917 0.61566148304635926 I I #
point $-1 5.5312600776520799 -16.339707090146476 14.888061884589382 #
point $-1 17.649460055446269 -31.688023629252374 2.8966425393402209 #
straight-curve $-1 0 -31.688023629252374 14.888061884589382 1 0 0 I I #
vertex $-1 $740 $928 #
point $-1 8.454900073210915 -23.070691583462331 7.6851448537461087 #
vertex $-1 $744 $929 #
point $-1 12.090360066549174 -23.070691583462331 7.6851448537461087 #
vertex $-1 $748 $930 #
point $-1 15.725820059887418 -23.070691583462331 7.6851448537461087 #
edge $-1 $876 28.870955782460257 $879 40.86237512770942 $753 $931 forward 7 unknown #
vertex $-1 $767 $932 #
straight-curve $-1 29.612152454671246 -48.900751424979362 14.888061884589384 0 -1 0 I I #
edge $-1 $879 11.776526232887075 $764 23.894726210681267 $763 $933 forward 7 unknown #
vertex $-1 $878 $934 #
straight-curve $-1 29.612152454671246 -31.688023629252356 2.8966425393402346 0 0.78801074757464917 0.61566148304635926 I I #
point $-1 29.612152454671246 -16.339707090146476 14.888061884589382 #
point $-1 41.730352432465438 -31.688023629252374 2.8966425393402209 #
straight-curve $-1 0 -31.688023629252374 14.888061884589382 1 0 0 I I #
vertex $-1 $770 $935 #
point $-1 32.535792450230083 -23.070691583462331 7.6851448537461087 #
vertex $-1 $774 $936 #
point $-1 36.171252443568342 -23.070691583462331 7.6851448537461087 #
vertex $-1 $778 $937 #
point $-1 39.806712436906587 -23.070691583462331 7.6851448537461087 #
straight-curve $-1 -53.693044831690422 31.688023629252374 0 0 0 -1 I I #
point $-1 -53.693044831690422 -31.688023629252374 -14.888061884589382 #
straight-curve $-1 -53.693044831690422 0 -14.888061884589382 0 1 0 I I #
point $-1 -53.693044831690422 31.688023629252374 -14.888061884589382 #
coedge $-1 $800 $799 $810 $899 reversed $440 $-1 #
edge $-1 $805 -31.688023629252374 $900 31.688023629252374 $800 $938 forward 7 unknown #
straight-curve $-1 -64.755564986994585 31.688023629252374 12.024630541992542 0 0 -1 I I #
point $-1 -64.755564986994585 31.688023629252374 9.161199199395698 #
point $-1 -64.755564986994585 31.688023629252374 14.888061884589385 #
edge $-1 $900 -2.8634313425968436 $814 2.8634313425968436 $894 $939 forward 7 unknown #
vertex $-1 $895 $940 #
straight-curve $-1 0 -31.688023629252374 14.888061884589382 1 0 0 I I #
straight-curve $-1 -64.755564986994585 0 9.161199199395698 0 1 0 I I #
point $-1 -64.755564986994585 -31.688023629252374 9.161199199395698 #
straight-curve $-1 41.464734442789059 31.688023629252374 55.936367467581988 0 0 -1 I I #
point $-1 41.464734442789059 31.688023629252374 14.888061884589382 #
straight-curve $-1 18.057651568262987 31.68802362925237 1.220841952014009 -1 0 0 I I #
point $-1 41.464734442789059 31.68802362925237 1.2208419520140126 #
point $-1 33.822689719556074 25.616296626312042 6.9286787617805805 #
point $-1 38.407916553495859 25.616296626312042 6.9286787617805805 #
straight-curve $-1 -42.630524676386258 -31.68802362925237 43.75901766704964 0 0 -1 I I #
point $-1 -42.630524676386258 -31.688023629252374 14.888061884589382 #
straight-curve $-1 -18.285712343744581 -31.688023629252374 2.89664253934022 1 0 0 I I #
point $-1 -42.630524676386258 -31.688023629252374 2.8966425393402209 #
point $-1 -40.206884680827422 -22.762860841939155 7.2911394799587841 #
point $-1 -36.57142468748917 -22.762860841939155 7.2911394799587841 #
point $-1 -32.935964694150911 -22.762860841939155 7.2911394799587841 #
straight-curve $-1 -18.54963229936709 -31.68802362925237 43.75901766704964 0 0 -1 I I #
point $-1 -18.54963229936709 -31.688023629252374 14.888061884589382 #
straight-curve $-1 -6.2452661552349973 -31.688023629252374 2.89664253934022 1 0 0 I I #
point $-1 -18.54963229936709 -31.688023629252374 2.8966425393402209 #
point $-1 -16.125992303808253 -22.762860841939155 7.2911394799587841 #
point $-1 -12.490532310469995 -22.762860841939155 7.2911394799587841 #
point $-1 -8.8550723171317429 -22.762860841939155 7.2911394799587841 #
straight-curve $-1 5.5312600776520799 -31.68802362925237 43.75901766704964 0 0 -1 I I #
point $-1 5.5312600776520799 -31.688023629252374 14.888061884589382 #
straight-curve $-1 5.7951800332745869 -31.688023629252374 2.89664253934022 1 0 0 I I #
point $-1 5.5312600776520799 -31.688023629252374 2.8966425393402209 #
point $-1 7.954900073210915 -22.762860841939155 7.2911394799587841 #
point $-1 11.590360066549174 -22.762860841939155 7.2911394799587841 #
point $-1 15.225820059887418 -22.762860841939155 7.2911394799587841 #
straight-curve $-1 29.612152454671246 -31.68802362925237 43.75901766704964 0 0 -1 I I #
point $-1 29.612152454671246 -31.688023629252374 14.888061884589382 #
straight-curve $-1 17.835626221784171 -31.688023629252374 2.89664253934022 1 0 0 I I #
point $-1 29.612152454671246 -31.688023629252374 2.8966425393402209 #
point $-1 32.035792450230083 -22.762860841939155 7.2911394799587841 #
point $-1 35.671252443568342 -22.762860841939155 7.2911394799587841 #
point $-1 39.306712436906587 -22.762860841939155 7.2911394799587841 #
straight-curve $-1 -64.755564986994585 0 14.888061884589385 0 -1 0 I I #
straight-curve $-1 -64.755564986994585 -31.688023629252374 12.024630541992542 0 0 -1 I I #
point $-1 -64.755564986994585 -31.688023629252374 14.888061884589385 #
End-of-ACIS-data 