500 0 17 0           
7 Unknown 11 ACIS 5.0 NT 24 Thu Mar 25 17:23:48 1999 
-1 9.9999999999999995e-007 1e-010 
body $-1 $17 $-1 $18 #
body $-1 $19 $-1 $20 #
body $-1 $21 $-1 $22 #
body $-1 $23 $-1 $24 #
body $-1 $25 $-1 $26 #
body $-1 $27 $-1 $28 #
body $-1 $29 $-1 $30 #
body $-1 $31 $-1 $32 #
body $-1 $33 $-1 $34 #
body $-1 $35 $-1 $36 #
body $-1 $37 $-1 $38 #
body $-1 $39 $-1 $40 #
body $-1 $41 $-1 $42 #
body $-1 $43 $-1 $44 #
body $-1 $45 $-1 $46 #
body $-1 $47 $-1 $48 #
body $-1 $49 $-1 $50 #
lump $-1 $-1 $51 $0 #
transform $-1 1 0 0 0 1 0 0 0 1 59.628284554582351 38.967567104390064 18.906173537771917 1 rotate no_reflect no_shear #
lump $-1 $-1 $52 $1 #
transform $-1 1 0 0 0 1 0 0 0 1 59.628284554582351 38.967567104390064 18.906173537771917 1 rotate no_reflect no_shear #
lump $-1 $-1 $53 $2 #
transform $-1 1 0 0 0 1 0 0 0 1 59.628284554582351 38.967567104390064 18.906173537771917 1 rotate no_reflect no_shear #
lump $-1 $-1 $54 $3 #
transform $-1 1 0 0 0 1 0 0 0 1 59.628284554582351 38.967567104390064 18.906173537771917 1 rotate no_reflect no_shear #
lump $-1 $-1 $55 $4 #
transform $-1 1 0 0 0 1 0 0 0 1 59.628284554582351 38.967567104390064 18.906173537771917 1 rotate no_reflect no_shear #
lump $-1 $-1 $56 $5 #
transform $-1 1 0 0 0 1 0 0 0 1 59.628284554582351 38.967567104390064 18.906173537771917 1 rotate no_reflect no_shear #
lump $-1 $-1 $57 $6 #
transform $-1 1 0 0 0 1 0 0 0 1 59.628284554582351 38.967567104390064 18.906173537771917 1 rotate no_reflect no_shear #
lump $-1 $-1 $58 $7 #
transform $-1 1 0 0 0 1 0 0 0 1 59.628284554582351 38.967567104390064 18.906173537771917 1 rotate no_reflect no_shear #
lump $-1 $-1 $59 $8 #
transform $-1 1 0 0 0 1 0 0 0 1 59.628284554582351 38.967567104390064 18.906173537771917 1 rotate no_reflect no_shear #
lump $-1 $-1 $60 $9 #
transform $-1 1 0 0 0 1 0 0 0 1 59.628284554582351 38.967567104390064 18.906173537771917 1 rotate no_reflect no_shear #
lump $-1 $-1 $61 $10 #
transform $-1 1 0 0 0 1 0 0 0 1 59.628284554582351 38.967567104390064 18.906173537771917 1 rotate no_reflect no_shear #
lump $-1 $-1 $62 $11 #
transform $-1 1 0 0 0 1 0 0 0 1 59.628284554582351 38.967567104390064 18.906173537771917 1 rotate no_reflect no_shear #
lump $-1 $-1 $63 $12 #
transform $-1 1 0 0 0 1 0 0 0 1 59.628284554582351 38.967567104390064 18.906173537771917 1 rotate no_reflect no_shear #
lump $-1 $-1 $64 $13 #
transform $-1 1 0 0 0 1 0 0 0 1 59.628284554582351 38.967567104390064 18.906173537771917 1 rotate no_reflect no_shear #
lump $-1 $-1 $65 $14 #
transform $-1 1 0 0 0 1 0 0 0 1 59.628284554582351 38.967567104390064 18.906173537771917 1 rotate no_reflect no_shear #
lump $-1 $-1 $66 $15 #
transform $-1 1 0 0 0 1 0 0 0 1 59.628284554582351 38.967567104390064 18.906173537771917 1 rotate no_reflect no_shear #
lump $-1 $-1 $67 $16 #
transform $-1 1 0 0 0 1 0 0 0 1 59.628284554582351 38.967567104390064 18.906173537771917 1 rotate no_reflect no_shear #
shell $-1 $-1 $-1 $68 $-1 $17 #
shell $-1 $-1 $-1 $69 $-1 $19 #
shell $-1 $-1 $-1 $70 $-1 $21 #
shell $-1 $-1 $-1 $71 $-1 $23 #
shell $-1 $-1 $-1 $72 $-1 $25 #
shell $-1 $-1 $-1 $73 $-1 $27 #
shell $-1 $-1 $-1 $74 $-1 $29 #
shell $-1 $-1 $-1 $75 $-1 $31 #
shell $-1 $-1 $-1 $76 $-1 $33 #
shell $-1 $-1 $-1 $77 $-1 $35 #
shell $-1 $-1 $-1 $78 $-1 $37 #
shell $-1 $-1 $-1 $79 $-1 $39 #
shell $-1 $-1 $-1 $80 $-1 $41 #
shell $-1 $-1 $-1 $81 $-1 $43 #
shell $-1 $-1 $-1 $82 $-1 $45 #
shell $-1 $-1 $-1 $83 $-1 $47 #
shell $-1 $-1 $-1 $84 $-1 $49 #
face $-1 $85 $86 $51 $-1 $87 forward single #
face $-1 $88 $89 $52 $-1 $90 reversed single #
face $-1 $91 $92 $53 $-1 $93 reversed single #
face $-1 $94 $95 $54 $-1 $96 forward single #
face $-1 $97 $98 $55 $-1 $99 forward single #
face $-1 $100 $101 $56 $-1 $102 reversed single #
face $-1 $103 $104 $57 $-1 $105 forward single #
face $-1 $106 $107 $58 $-1 $108 forward single #
face $-1 $109 $110 $59 $-1 $111 reversed single #
face $-1 $112 $113 $60 $-1 $114 forward single #
face $-1 $115 $116 $61 $-1 $117 forward single #
face $-1 $118 $119 $62 $-1 $120 reversed single #
face $-1 $121 $122 $63 $-1 $123 forward single #
face $-1 $124 $125 $64 $-1 $126 forward single #
face $-1 $127 $128 $65 $-1 $129 reversed single #
face $-1 $130 $131 $66 $-1 $132 forward single #
face $-1 $133 $134 $67 $-1 $135 forward single #
face $-1 $136 $137 $51 $-1 $138 reversed single #
loop $-1 $-1 $139 $68 #
plane-surface $-1 0 0 18.906173537771917 0 0 1 1 0 0 forward_v I I I I #
face $-1 $140 $141 $52 $-1 $142 reversed single #
loop $-1 $-1 $143 $69 #
plane-surface $-1 0 -28.717624961924731 10.902769712507649 0 0 1 1 0 0 forward_v I I I I #
face $-1 $144 $145 $53 $-1 $146 reversed single #
loop $-1 $-1 $147 $70 #
plane-surface $-1 -26.157711117651161 34.99281338158881 89.612904913356417 0.69465837861970381 0 0.71933979245794832 0.71933979245794832 0 -0.69465837861970381 forward_v I I I I #
face $-1 $148 $149 $54 $-1 $150 forward single #
loop $-1 $151 $152 $71 #
cone-surface $-1 52.947099308714996 33.289347500388281 12.426454038966412 -0.69465837861970381 0 -0.71933979245794832 0.71933979245794832 0 -0.69465837861970381 1 I I 0 1 1 forward I I I I #
face $-1 $153 $154 $55 $-1 $155 forward single #
loop $-1 $156 $157 $72 #
cone-surface $-1 52.947099308714996 36.696279262789353 12.426454038966412 -0.69465837861970381 0 -0.71933979245794832 0.71933979245794832 0 -0.69465837861970381 1 I I 0 1 1 forward I I I I #
face $-1 $158 $159 $56 $-1 $160 reversed single #
loop $-1 $-1 $161 $73 #
plane-surface $-1 -126.31571255941115 -16.428249619922283 109.30158117048875 0 1 0 -0.55919291073839883 0 0.82903756765294845 forward_v I I I I #
face $-1 $162 $163 $57 $-1 $164 forward single #
loop $-1 $165 $166 $74 #
cone-surface $-1 -52.765158941439587 -13.622155306278248 13.806304496966723 0.55919291073839883 0 -0.82903756765294845 0.82903756765294845 0 0.55919291073839883 1 I I 0 1 1 forward I I I I #
face $-1 $167 $168 $58 $-1 $169 forward single #
loop $-1 $170 $171 $75 #
cone-surface $-1 -52.765158941439587 -9.413013835812194 13.806304496966723 0.55919291073839883 0 -0.82903756765294845 0.82903756765294845 0 0.55919291073839883 1 I I 0 1 1 forward I I I I #
face $-1 $172 $173 $59 $-1 $174 reversed single #
loop $-1 $-1 $175 $76 #
plane-surface $-1 -126.31571255941115 -1.9165651442485832 109.30158117048875 0 1 0 -0.55919291073839883 0 0.82903756765294845 forward_v I I I I #
face $-1 $176 $177 $60 $-1 $178 forward single #
loop $-1 $179 $180 $77 #
cone-surface $-1 -52.765158941439587 0.8895291693954519 13.806304496966723 0.55919291073839883 0 -0.82903756765294845 0.82903756765294845 0 0.55919291073839883 1 I I 0 1 1 forward I I I I #
face $-1 $181 $182 $61 $-1 $183 forward single #
loop $-1 $184 $185 $78 #
cone-surface $-1 -52.765158941439587 5.0986706398615098 13.806304496966723 0.55919291073839883 0 -0.82903756765294845 0.82903756765294845 0 0.55919291073839883 1 I I 0 1 1 forward I I I I #
face $-1 $186 $187 $62 $-1 $188 reversed single #
loop $-1 $-1 $189 $79 #
plane-surface $-1 -126.31571255941115 12.595119331425121 109.30158117048875 0 1 0 -0.55919291073839883 0 0.82903756765294845 forward_v I I I I #
face $-1 $190 $191 $63 $-1 $192 forward single #
loop $-1 $193 $194 $80 #
cone-surface $-1 -52.765158941439587 15.401213645069156 13.806304496966723 0.55919291073839883 0 -0.82903756765294845 0.82903756765294845 0 0.55919291073839883 1 I I 0 1 1 forward I I I I #
face $-1 $195 $196 $64 $-1 $197 forward single #
loop $-1 $198 $199 $81 #
cone-surface $-1 -52.765158941439587 19.610355115535214 13.806304496966723 0.55919291073839883 0 -0.82903756765294845 0.82903756765294845 0 0.55919291073839883 1 I I 0 1 1 forward I I I I #
face $-1 $200 $201 $65 $-1 $202 reversed single #
loop $-1 $-1 $203 $82 #
plane-surface $-1 -126.31571255941115 27.106803807098824 109.30158117048875 0 1 0 -0.55919291073839883 0 0.82903756765294845 forward_v I I I I #
face $-1 $204 $205 $66 $-1 $206 forward single #
loop $-1 $207 $208 $83 #
cone-surface $-1 -52.765158941439587 29.912898120742859 13.806304496966723 0.55919291073839883 0 -0.82903756765294845 0.82903756765294845 0 0.55919291073839883 1 I I 0 1 1 forward I I I I #
face $-1 $209 $210 $67 $-1 $211 forward single #
loop $-1 $212 $213 $84 #
cone-surface $-1 -52.765158941439587 34.12203959120891 13.806304496966723 0.55919291073839883 0 -0.82903756765294845 0.82903756765294845 0 0.55919291073839883 1 I I 0 1 1 forward I I I I #
face $-1 $214 $215 $51 $-1 $216 reversed single #
loop $-1 $-1 $217 $85 #
plane-surface $-1 0 0 -18.906173537771917 0 0 1 1 0 0 forward_v I I I I #
coedge $-1 $218 $219 $220 $221 forward $86 $-1 #
face $-1 $222 $223 $52 $-1 $224 reversed single #
loop $-1 $-1 $225 $88 #
plane-surface $-1 0 -18.467682819459398 14.904471625139781 0 -1 0 0 0 -1 forward_v I I I I #
coedge $-1 $226 $227 $228 $229 reversed $89 $-1 #
face $-1 $230 $231 $53 $-1 $232 reversed single #
loop $-1 $-1 $233 $91 #
plane-surface $-1 56.684863819469854 31.018059658787564 175.39890058558993 0 1 0 0.69465837861970381 0 0.71933979245794832 forward_v I I I I #
coedge $-1 $234 $235 $236 $237 reversed $92 $-1 #
face $-1 $-1 $238 $54 $-1 $239 forward single #
loop $-1 $240 $241 $94 #
cone-surface $-1 52.202101676577044 33.289347500388281 11.654986424700201 -0.69465837861970381 0 -0.71933979245794832 0.35966989622897416 0 -0.3473291893098519 1 I I -0.70710678118654746 0.70710678118654746 0.5 forward I I I I #
loop $-1 $-1 $242 $71 #
coedge $-1 $152 $152 $243 $244 reversed $95 $-1 #
face $-1 $-1 $245 $55 $-1 $246 forward single #
loop $-1 $247 $248 $97 #
cone-surface $-1 52.202101676577044 36.696279262789353 11.654986424700201 -0.69465837861970381 0 -0.71933979245794832 0.35966989622897416 0 -0.3473291893098519 1 I I -0.70710678118654746 0.70710678118654746 0.5 forward I I I I #
loop $-1 $-1 $249 $72 #
coedge $-1 $157 $157 $250 $251 reversed $98 $-1 #
face $-1 $252 $253 $56 $-1 $254 reversed single #
loop $-1 $-1 $255 $100 #
plane-surface $-1 -59.628284554582336 -11.517584571045223 10.433405189591099 -0.55919291073839883 0 0.82903756765294845 0.82903756765294845 0 0.55919291073839883 forward_v I I I I #
coedge $-1 $256 $257 $258 $259 reversed $101 $-1 #
face $-1 $-1 $260 $57 $-1 $261 forward single #
loop $-1 $262 $263 $103 #
cone-surface $-1 -51.903134578293191 -13.622155306278248 12.528300846425452 0.55919291073839883 0 -0.82903756765294845 0.41451878382647422 0 0.27959645536919941 1 I I -0.70710678118654746 0.70710678118654746 0.5 forward I I I I #
loop $-1 $-1 $264 $74 #
coedge $-1 $166 $166 $265 $266 reversed $104 $-1 #
face $-1 $-1 $267 $58 $-1 $268 forward single #
loop $-1 $269 $270 $106 #
cone-surface $-1 -51.903134578293191 -9.413013835812194 12.528300846425452 0.55919291073839883 0 -0.82903756765294845 0.41451878382647422 0 0.27959645536919941 1 I I -0.70710678118654746 0.70710678118654746 0.5 forward I I I I #
loop $-1 $-1 $271 $75 #
coedge $-1 $171 $171 $272 $273 reversed $107 $-1 #
face $-1 $274 $275 $59 $-1 $276 reversed single #
loop $-1 $-1 $277 $109 #
plane-surface $-1 -59.628284554582336 2.9940999046284773 10.433405189591099 -0.55919291073839883 0 0.82903756765294845 0.82903756765294845 0 0.55919291073839883 forward_v I I I I #
coedge $-1 $278 $279 $280 $281 reversed $110 $-1 #
face $-1 $-1 $282 $60 $-1 $283 forward single #
loop $-1 $284 $285 $112 #
cone-surface $-1 -51.903134578293191 0.8895291693954519 12.528300846425452 0.55919291073839883 0 -0.82903756765294845 0.41451878382647422 0 0.27959645536919941 1 I I -0.70710678118654746 0.70710678118654746 0.5 forward I I I I #
loop $-1 $-1 $286 $77 #
coedge $-1 $180 $180 $287 $288 reversed $113 $-1 #
face $-1 $-1 $289 $61 $-1 $290 forward single #
loop $-1 $291 $292 $115 #
cone-surface $-1 -51.903134578293191 5.0986706398615098 12.528300846425452 0.55919291073839883 0 -0.82903756765294845 0.41451878382647422 0 0.27959645536919941 1 I I -0.70710678118654746 0.70710678118654746 0.5 forward I I I I #
loop $-1 $-1 $293 $78 #
coedge $-1 $185 $185 $294 $295 reversed $116 $-1 #
face $-1 $296 $297 $62 $-1 $298 reversed single #
loop $-1 $-1 $299 $118 #
plane-surface $-1 -59.628284554582336 17.505784380302181 10.433405189591099 -0.55919291073839883 0 0.82903756765294845 0.82903756765294845 0 0.55919291073839883 forward_v I I I I #
coedge $-1 $300 $301 $302 $303 reversed $119 $-1 #
face $-1 $-1 $304 $63 $-1 $305 forward single #
loop $-1 $306 $307 $121 #
cone-surface $-1 -51.903134578293191 15.401213645069156 12.528300846425452 0.55919291073839883 0 -0.82903756765294845 0.41451878382647422 0 0.27959645536919941 1 I I -0.70710678118654746 0.70710678118654746 0.5 forward I I I I #
loop $-1 $-1 $308 $80 #
coedge $-1 $194 $194 $309 $310 reversed $122 $-1 #
face $-1 $-1 $311 $64 $-1 $312 forward single #
loop $-1 $313 $314 $124 #
cone-surface $-1 -51.903134578293191 19.610355115535214 12.528300846425452 0.55919291073839883 0 -0.82903756765294845 0.41451878382647422 0 0.27959645536919941 1 I I -0.70710678118654746 0.70710678118654746 0.5 forward I I I I #
loop $-1 $-1 $315 $81 #
coedge $-1 $199 $199 $316 $317 reversed $125 $-1 #
face $-1 $318 $319 $65 $-1 $320 reversed single #
loop $-1 $-1 $321 $127 #
plane-surface $-1 -59.628284554582336 32.017468855975885 10.433405189591099 -0.55919291073839883 0 0.82903756765294845 0.82903756765294845 0 0.55919291073839883 forward_v I I I I #
coedge $-1 $322 $323 $324 $325 reversed $128 $-1 #
face $-1 $-1 $326 $66 $-1 $327 forward single #
loop $-1 $328 $329 $130 #
cone-surface $-1 -51.903134578293191 29.912898120742859 12.528300846425452 0.55919291073839883 0 -0.82903756765294845 0.41451878382647422 0 0.27959645536919941 1 I I -0.70710678118654746 0.70710678118654746 0.5 forward I I I I #
loop $-1 $-1 $330 $83 #
coedge $-1 $208 $208 $331 $332 reversed $131 $-1 #
face $-1 $-1 $333 $67 $-1 $334 forward single #
loop $-1 $335 $336 $133 #
cone-surface $-1 -51.903134578293191 34.12203959120891 12.528300846425452 0.55919291073839883 0 -0.82903756765294845 0.41451878382647422 0 0.27959645536919941 1 I I -0.70710678118654746 0.70710678118654746 0.5 forward I I I I #
loop $-1 $-1 $337 $84 #
coedge $-1 $213 $213 $338 $339 reversed $134 $-1 #
face $-1 $340 $341 $51 $-1 $342 reversed single #
loop $-1 $-1 $343 $136 #
plane-surface $-1 0 -38.967567104390064 0 0 1 0 0 0 1 forward_v I I I I #
coedge $-1 $344 $345 $346 $347 forward $137 $-1 #
coedge $-1 $348 $139 $349 $350 forward $86 $-1 #
coedge $-1 $139 $348 $351 $352 forward $86 $-1 #
coedge $-1 $353 $354 $139 $221 reversed $355 $-1 #
edge $-1 $356 -38.967567104390064 $357 38.967567104390064 $220 $358 forward 7 unknown #
face $-1 $359 $360 $52 $-1 $361 reversed single #
loop $-1 $-1 $362 $140 #
plane-surface $-1 -59.628284554582351 0 0 1 0 0 0 0 -1 forward_v I I I I #
coedge $-1 $363 $364 $365 $366 reversed $141 $-1 #
coedge $-1 $367 $143 $368 $369 reversed $89 $-1 #
coedge $-1 $143 $367 $363 $370 forward $89 $-1 #
coedge $-1 $365 $371 $143 $229 forward $372 $-1 #
edge $-1 $373 -24.6087546234277 $374 -4.1088703384970326 $228 $375 forward 7 unknown #
face $-1 $376 $377 $53 $-1 $378 forward single #
loop $-1 $-1 $379 $144 #
plane-surface $-1 0 38.967567104390064 0 0 -1 0 0 0 -1 forward_v I I I I #
coedge $-1 $380 $381 $382 $383 reversed $145 $-1 #
coedge $-1 $384 $147 $379 $385 reversed $92 $-1 #
coedge $-1 $147 $384 $380 $386 forward $92 $-1 #
coedge $-1 $382 $387 $147 $237 forward $377 $-1 #
edge $-1 $388 -21.471160413595651 $389 -13.521652967993159 $236 $390 forward 7 unknown #
loop $-1 $-1 $243 $148 #
plane-surface $-1 -26.157711117651161 34.99281338158881 89.612904913356417 0.69465837861970381 0 0.71933979245794832 0.71933979245794832 0 -0.69465837861970381 forward_v I I I I #
loop $-1 $-1 $391 $94 #
coedge $-1 $241 $241 $242 $392 reversed $149 $-1 #
coedge $-1 $242 $242 $241 $392 forward $151 $-1 #
coedge $-1 $243 $243 $152 $244 forward $238 $-1 #
edge $-1 $393 0 $393 6.2831853071796004 $243 $394 forward 7 unknown #
loop $-1 $-1 $250 $153 #
plane-surface $-1 -26.157711117651161 34.99281338158881 89.612904913356417 0.69465837861970381 0 0.71933979245794832 0.71933979245794832 0 -0.69465837861970381 forward_v I I I I #
loop $-1 $-1 $395 $97 #
coedge $-1 $248 $248 $249 $396 reversed $154 $-1 #
coedge $-1 $249 $249 $248 $396 forward $156 $-1 #
coedge $-1 $250 $250 $157 $251 forward $245 $-1 #
edge $-1 $397 0 $397 6.2831853071796004 $250 $398 forward 7 unknown #
face $-1 $399 $400 $56 $-1 $401 reversed single #
loop $-1 $-1 $402 $158 #
plane-surface $-1 -126.31571255941115 -6.6069195221681625 109.30158117048875 0 -1 0 0.55919291073839883 0 -0.82903756765294845 forward_v I I I I #
coedge $-1 $403 $404 $405 $406 reversed $159 $-1 #
coedge $-1 $257 $161 $407 $408 reversed $101 $-1 #
coedge $-1 $161 $256 $403 $409 reversed $101 $-1 #
coedge $-1 $405 $410 $161 $259 forward $411 $-1 #
edge $-1 $412 3.5295717251232261 $413 16.090967135854385 $258 $414 forward 7 unknown #
loop $-1 $-1 $265 $162 #
plane-surface $-1 -59.628284554582336 -11.517584571045223 10.433405189591099 -0.55919291073839883 0 0.82903756765294845 0.82903756765294845 0 0.55919291073839883 forward_v I I I I #
loop $-1 $-1 $415 $103 #
coedge $-1 $263 $263 $264 $416 reversed $163 $-1 #
coedge $-1 $264 $264 $263 $416 forward $165 $-1 #
coedge $-1 $265 $265 $166 $266 forward $260 $-1 #
edge $-1 $417 0 $417 6.2831853071796004 $265 $418 forward 7 unknown #
loop $-1 $-1 $272 $167 #
plane-surface $-1 -59.628284554582336 -11.517584571045223 10.433405189591099 -0.55919291073839883 0 0.82903756765294845 0.82903756765294845 0 0.55919291073839883 forward_v I I I I #
loop $-1 $-1 $419 $106 #
coedge $-1 $270 $270 $271 $420 reversed $168 $-1 #
coedge $-1 $271 $271 $270 $420 forward $170 $-1 #
coedge $-1 $272 $272 $171 $273 forward $267 $-1 #
edge $-1 $421 0 $421 6.2831853071796004 $272 $422 forward 7 unknown #
face $-1 $423 $424 $59 $-1 $425 forward single #
loop $-1 $-1 $426 $172 #
plane-surface $-1 -126.31571255941115 7.9047649535055378 109.30158117048875 0 -1 0 0.55919291073839883 0 -0.82903756765294845 forward_v I I I I #
coedge $-1 $427 $428 $429 $430 reversed $173 $-1 #
coedge $-1 $279 $175 $431 $432 reversed $110 $-1 #
coedge $-1 $175 $278 $427 $433 reversed $110 $-1 #
coedge $-1 $429 $434 $175 $281 forward $424 $-1 #
edge $-1 $435 3.5295717251232261 $436 16.090967135854385 $280 $437 forward 7 unknown #
loop $-1 $-1 $287 $176 #
plane-surface $-1 -59.628284554582336 2.9940999046284773 10.433405189591099 -0.55919291073839883 0 0.82903756765294845 0.82903756765294845 0 0.55919291073839883 forward_v I I I I #
loop $-1 $-1 $438 $112 #
coedge $-1 $285 $285 $286 $439 reversed $177 $-1 #
coedge $-1 $286 $286 $285 $439 forward $179 $-1 #
coedge $-1 $287 $287 $180 $288 forward $282 $-1 #
edge $-1 $440 0 $440 6.2831853071796004 $287 $441 forward 7 unknown #
loop $-1 $-1 $294 $181 #
plane-surface $-1 -59.628284554582336 2.9940999046284773 10.433405189591099 -0.55919291073839883 0 0.82903756765294845 0.82903756765294845 0 0.55919291073839883 forward_v I I I I #
loop $-1 $-1 $442 $115 #
coedge $-1 $292 $292 $293 $443 reversed $182 $-1 #
coedge $-1 $293 $293 $292 $443 forward $184 $-1 #
coedge $-1 $294 $294 $185 $295 forward $289 $-1 #
edge $-1 $444 0 $444 6.2831853071796004 $294 $445 forward 7 unknown #
face $-1 $446 $447 $62 $-1 $448 forward single #
loop $-1 $-1 $449 $186 #
plane-surface $-1 -126.31571255941115 22.416449429179242 109.30158117048875 0 -1 0 0.55919291073839883 0 -0.82903756765294845 forward_v I I I I #
coedge $-1 $450 $451 $452 $453 reversed $187 $-1 #
coedge $-1 $301 $189 $454 $455 reversed $119 $-1 #
coedge $-1 $189 $300 $450 $456 reversed $119 $-1 #
coedge $-1 $452 $457 $189 $303 forward $447 $-1 #
edge $-1 $458 3.5295717251232261 $459 16.090967135854385 $302 $460 forward 7 unknown #
loop $-1 $-1 $309 $190 #
plane-surface $-1 -59.628284554582336 17.505784380302181 10.433405189591099 -0.55919291073839883 0 0.82903756765294845 0.82903756765294845 0 0.55919291073839883 forward_v I I I I #
loop $-1 $-1 $461 $121 #
coedge $-1 $307 $307 $308 $462 reversed $191 $-1 #
coedge $-1 $308 $308 $307 $462 forward $193 $-1 #
coedge $-1 $309 $309 $194 $310 forward $304 $-1 #
edge $-1 $463 0 $463 6.2831853071796004 $309 $464 forward 7 unknown #
loop $-1 $-1 $316 $195 #
plane-surface $-1 -59.628284554582336 17.505784380302181 10.433405189591099 -0.55919291073839883 0 0.82903756765294845 0.82903756765294845 0 0.55919291073839883 forward_v I I I I #
loop $-1 $-1 $465 $124 #
coedge $-1 $314 $314 $315 $466 reversed $196 $-1 #
coedge $-1 $315 $315 $314 $466 forward $198 $-1 #
coedge $-1 $316 $316 $199 $317 forward $311 $-1 #
edge $-1 $467 0 $467 6.2831853071796004 $316 $468 forward 7 unknown #
face $-1 $469 $470 $65 $-1 $471 forward single #
loop $-1 $-1 $472 $200 #
plane-surface $-1 -126.31571255941115 36.928133904852942 109.30158117048875 0 -1 0 0.55919291073839883 0 -0.82903756765294845 forward_v I I I I #
coedge $-1 $473 $474 $475 $476 reversed $201 $-1 #
coedge $-1 $323 $203 $477 $478 reversed $128 $-1 #
coedge $-1 $203 $322 $473 $479 reversed $128 $-1 #
coedge $-1 $475 $480 $203 $325 forward $470 $-1 #
edge $-1 $481 3.5295717251232261 $482 16.090967135854385 $324 $483 forward 7 unknown #
loop $-1 $-1 $331 $204 #
plane-surface $-1 -59.628284554582336 32.017468855975885 10.433405189591099 -0.55919291073839883 0 0.82903756765294845 0.82903756765294845 0 0.55919291073839883 forward_v I I I I #
loop $-1 $-1 $484 $130 #
coedge $-1 $329 $329 $330 $485 reversed $205 $-1 #
coedge $-1 $330 $330 $329 $485 forward $207 $-1 #
coedge $-1 $331 $331 $208 $332 forward $326 $-1 #
edge $-1 $486 0 $486 6.2831853071796004 $331 $487 forward 7 unknown #
loop $-1 $-1 $338 $209 #
plane-surface $-1 -59.628284554582336 32.017468855975885 10.433405189591099 -0.55919291073839883 0 0.82903756765294845 0.82903756765294845 0 0.55919291073839883 forward_v I I I I #
loop $-1 $-1 $488 $133 #
coedge $-1 $336 $336 $337 $489 reversed $210 $-1 #
coedge $-1 $337 $337 $336 $489 forward $212 $-1 #
coedge $-1 $338 $338 $213 $339 forward $333 $-1 #
edge $-1 $490 0 $490 6.2831853071796004 $338 $491 forward 7 unknown #
face $-1 $492 $493 $51 $-1 $494 reversed single #
loop $-1 $-1 $495 $214 #
plane-surface $-1 -59.628284554582351 0 0 1 0 0 0 0 -1 forward_v I I I I #
coedge $-1 $496 $351 $497 $498 forward $215 $-1 #
coedge $-1 $499 $217 $496 $500 forward $137 $-1 #
coedge $-1 $217 $499 $501 $502 forward $137 $-1 #
coedge $-1 $354 $353 $217 $347 reversed $355 $-1 #
edge $-1 $503 -38.967567104390064 $504 38.967567104390064 $346 $505 forward 7 unknown #
coedge $-1 $219 $218 $506 $507 forward $86 $-1 #
coedge $-1 $508 $509 $218 $350 reversed $493 $-1 #
edge $-1 $357 -59.628284554582351 $510 59.628284554582351 $349 $511 forward 7 unknown #
coedge $-1 $343 $512 $219 $352 reversed $215 $-1 #
edge $-1 $513 -59.628284554582351 $356 59.628284554582351 $351 $514 forward 7 unknown #
coedge $-1 $346 $220 $512 $515 forward $355 $-1 #
coedge $-1 $220 $346 $508 $516 reversed $355 $-1 #
loop $-1 $-1 $353 $492 #
vertex $-1 $221 $517 #
vertex $-1 $221 $518 #
straight-curve $-1 59.628284554582351 0 18.906173537771917 0 1 0 I I #
face $-1 $519 $520 $52 $-1 $521 forward single #
loop $-1 $-1 $368 $222 #
plane-surface $-1 0 -38.967567104390064 0 0 1 0 0 0 1 forward_v I I I I #
coedge $-1 $522 $523 $524 $525 forward $223 $-1 #
coedge $-1 $524 $225 $227 $370 reversed $141 $-1 #
coedge $-1 $225 $524 $526 $527 reversed $141 $-1 #
coedge $-1 $528 $228 $225 $366 forward $372 $-1 #
edge $-1 $374 3.4505338999377582 $529 11.453937725202023 $365 $530 forward 7 unknown #
coedge $-1 $227 $226 $522 $531 reversed $89 $-1 #
coedge $-1 $532 $533 $226 $369 forward $360 $-1 #
edge $-1 $534 -59.628284554582351 $373 59.628284554582351 $368 $535 forward 7 unknown #
edge $-1 $536 -59.628284554582351 $374 59.628284554582351 $363 $537 forward 7 unknown #
coedge $-1 $228 $528 $532 $538 forward $372 $-1 #
loop $-1 $-1 $365 $519 #
vertex $-1 $369 $539 #
vertex $-1 $229 $540 #
straight-curve $-1 59.628284554582351 -14.358812480962365 10.902769712507649 0 1 0 I I #
face $-1 $-1 $541 $53 $-1 $542 reversed single #
loop $-1 $-1 $236 $230 #
plane-surface $-1 0 0 18.906173537771917 0 0 1 1 0 0 forward_v I I I I #
coedge $-1 $543 $544 $234 $385 forward $231 $-1 #
coedge $-1 $381 $233 $235 $386 reversed $145 $-1 #
coedge $-1 $233 $380 $545 $546 reversed $145 $-1 #
coedge $-1 $547 $236 $233 $383 forward $377 $-1 #
edge $-1 $389 18.718819038768942 $548 31.285852644847424 $382 $549 forward 7 unknown #
coedge $-1 $235 $234 $550 $551 reversed $92 $-1 #
edge $-1 $552 -78.723250250634692 $388 -61.253017492986814 $379 $553 forward 7 unknown #
edge $-1 $554 -119.2565691091647 $389 -101.78633635151681 $380 $555 forward 7 unknown #
coedge $-1 $236 $547 $543 $556 forward $377 $-1 #
vertex $-1 $237 $557 #
vertex $-1 $237 $558 #
straight-curve $-1 47.061250948503869 17.496406690794405 18.90617353777192 0 -1 0 I I #
coedge $-1 $391 $391 $-1 $559 reversed $240 $-1 #
edge $-1 $560 0 $560 6.2831853071796004 $241 $561 forward 7 unknown #
vertex $-1 $244 $562 #
ellipse-curve $-1 53.34476775154311 33.289347500388281 12.838251757003665 0.69465837861970381 0 0.71933979245794832 0.71933979245794832 0 -0.69465837861970381 1 I I #
coedge $-1 $395 $395 $-1 $563 reversed $247 $-1 #
edge $-1 $564 0 $564 6.2831853071796004 $248 $565 forward 7 unknown #
vertex $-1 $251 $566 #
ellipse-curve $-1 53.34476775154311 36.696279262789353 12.838251757003665 0.69465837861970381 0 0.71933979245794832 0.71933979245794832 0 -0.69465837861970381 1 I I #
face $-1 $-1 $411 $56 $-1 $567 forward single #
loop $-1 $-1 $568 $252 #
plane-surface $-1 -59.628284554582351 0 0 1 0 0 0 0 -1 forward_v I I I I #
coedge $-1 $569 $570 $571 $572 reversed $253 $-1 #
coedge $-1 $573 $255 $257 $409 forward $159 $-1 #
coedge $-1 $255 $573 $569 $574 forward $159 $-1 #
coedge $-1 $571 $258 $255 $406 forward $411 $-1 #
edge $-1 $413 -10.669457334399672 $575 -0.84812723664555101 $405 $576 forward 7 unknown #
coedge $-1 $577 $578 $256 $408 forward $400 $-1 #
edge $-1 $579 -44.217385395653281 $412 -35.74461704747246 $407 $580 forward 7 unknown #
edge $-1 $413 -15.151780692270863 $579 1.6747963185031944e-014 $257 $581 forward 7 unknown #
coedge $-1 $258 $571 $577 $582 forward $411 $-1 #
loop $-1 $-1 $571 $399 #
vertex $-1 $408 $583 #
vertex $-1 $259 $584 #
straight-curve $-1 -63.157856279705577 -16.428249619922283 18.90617353777192 1 0 0 I I #
coedge $-1 $415 $415 $-1 $585 reversed $262 $-1 #
edge $-1 $586 0 $586 6.2831853071796004 $263 $587 forward 7 unknown #
vertex $-1 $266 $588 #
ellipse-curve $-1 -53.347586849216775 -13.622155306278248 14.669789363681501 -0.55919291073839883 0 0.82903756765294845 0.82903756765294845 0 0.55919291073839883 1 I I #
coedge $-1 $419 $419 $-1 $589 reversed $269 $-1 #
edge $-1 $590 0 $590 6.2831853071796004 $270 $591 forward 7 unknown #
vertex $-1 $273 $592 #
ellipse-curve $-1 -53.347586849216775 -9.413013835812194 14.669789363681501 -0.55919291073839883 0 0.82903756765294845 0.82903756765294845 0 0.55919291073839883 1 I I #
face $-1 $-1 $593 $59 $-1 $594 reversed single #
loop $-1 $-1 $280 $274 #
plane-surface $-1 0 0 18.906173537771917 0 0 1 1 0 0 forward_v I I I I #
coedge $-1 $595 $596 $597 $598 reversed $275 $-1 #
coedge $-1 $599 $277 $279 $433 forward $173 $-1 #
coedge $-1 $277 $599 $595 $600 forward $173 $-1 #
coedge $-1 $597 $280 $277 $430 forward $424 $-1 #
edge $-1 $436 -3.4136150965628218 $601 6.4077150011912991 $429 $602 forward 7 unknown #
coedge $-1 $603 $604 $278 $432 forward $593 $-1 #
edge $-1 $605 -44.217385395653281 $435 -35.74461704747246 $431 $606 forward 7 unknown #
edge $-1 $436 -15.151780692270863 $605 1.6747963185031944e-014 $279 $607 forward 7 unknown #
coedge $-1 $280 $597 $603 $608 forward $424 $-1 #
vertex $-1 $432 $609 #
vertex $-1 $281 $610 #
straight-curve $-1 -63.157856279705577 -1.9165651442485832 18.90617353777192 1 0 0 I I #
coedge $-1 $438 $438 $-1 $611 reversed $284 $-1 #
edge $-1 $612 0 $612 6.2831853071796004 $285 $613 forward 7 unknown #
vertex $-1 $288 $614 #
ellipse-curve $-1 -53.347586849216775 0.8895291693954519 14.669789363681501 -0.55919291073839883 0 0.82903756765294845 0.82903756765294845 0 0.55919291073839883 1 I I #
coedge $-1 $442 $442 $-1 $615 reversed $291 $-1 #
edge $-1 $616 0 $616 6.2831853071796004 $292 $617 forward 7 unknown #
vertex $-1 $295 $618 #
ellipse-curve $-1 -53.347586849216775 5.0986706398615098 14.669789363681501 -0.55919291073839883 0 0.82903756765294845 0.82903756765294845 0 0.55919291073839883 1 I I #
face $-1 $-1 $619 $62 $-1 $620 reversed single #
loop $-1 $-1 $302 $296 #
plane-surface $-1 0 0 18.906173537771917 0 0 1 1 0 0 forward_v I I I I #
coedge $-1 $621 $622 $623 $624 reversed $297 $-1 #
coedge $-1 $625 $299 $301 $456 forward $187 $-1 #
coedge $-1 $299 $625 $621 $626 forward $187 $-1 #
coedge $-1 $623 $302 $299 $453 forward $447 $-1 #
edge $-1 $459 3.8422271412740301 $627 13.663557239028151 $452 $628 forward 7 unknown #
coedge $-1 $629 $630 $300 $455 forward $619 $-1 #
edge $-1 $631 -44.217385395653281 $458 -35.74461704747246 $454 $632 forward 7 unknown #
edge $-1 $459 -15.151780692270863 $631 1.6747963185031944e-014 $301 $633 forward 7 unknown #
coedge $-1 $302 $623 $629 $634 forward $447 $-1 #
vertex $-1 $303 $635 #
vertex $-1 $303 $636 #
straight-curve $-1 -63.157856279705577 12.595119331425121 18.90617353777192 1 0 0 I I #
coedge $-1 $461 $461 $-1 $637 reversed $306 $-1 #
edge $-1 $638 0 $638 6.2831853071796004 $307 $639 forward 7 unknown #
vertex $-1 $310 $640 #
ellipse-curve $-1 -53.347586849216775 15.401213645069156 14.669789363681501 -0.55919291073839883 0 0.82903756765294845 0.82903756765294845 0 0.55919291073839883 1 I I #
coedge $-1 $465 $465 $-1 $641 reversed $313 $-1 #
edge $-1 $642 0 $642 6.2831853071796004 $314 $643 forward 7 unknown #
vertex $-1 $317 $644 #
ellipse-curve $-1 -53.347586849216775 19.610355115535214 14.669789363681501 -0.55919291073839883 0 0.82903756765294845 0.82903756765294845 0 0.55919291073839883 1 I I #
face $-1 $-1 $645 $65 $-1 $646 reversed single #
loop $-1 $-1 $324 $318 #
plane-surface $-1 0 0 18.906173537771917 0 0 1 1 0 0 forward_v I I I I #
coedge $-1 $647 $648 $649 $650 reversed $319 $-1 #
coedge $-1 $651 $321 $323 $479 forward $201 $-1 #
coedge $-1 $321 $651 $647 $652 forward $201 $-1 #
coedge $-1 $649 $324 $321 $476 forward $470 $-1 #
edge $-1 $482 11.098069379110882 $653 20.919399476864999 $475 $654 forward 7 unknown #
coedge $-1 $655 $656 $322 $478 forward $645 $-1 #
edge $-1 $657 -44.217385395653281 $481 -35.74461704747246 $477 $658 forward 7 unknown #
edge $-1 $482 -15.151780692270863 $657 1.6747963185031944e-014 $323 $659 forward 7 unknown #
coedge $-1 $324 $649 $655 $660 forward $470 $-1 #
vertex $-1 $325 $661 #
vertex $-1 $325 $662 #
straight-curve $-1 -63.157856279705577 27.106803807098824 18.90617353777192 1 0 0 I I #
coedge $-1 $484 $484 $-1 $663 reversed $328 $-1 #
edge $-1 $664 0 $664 6.2831853071796004 $329 $665 forward 7 unknown #
vertex $-1 $332 $666 #
ellipse-curve $-1 -53.347586849216775 29.912898120742859 14.669789363681501 -0.55919291073839883 0 0.82903756765294845 0.82903756765294845 0 0.55919291073839883 1 I I #
coedge $-1 $488 $488 $-1 $667 reversed $335 $-1 #
edge $-1 $668 0 $668 6.2831853071796004 $336 $669 forward 7 unknown #
vertex $-1 $339 $670 #
ellipse-curve $-1 -53.347586849216775 34.12203959120891 14.669789363681501 -0.55919291073839883 0 0.82903756765294845 0.82903756765294845 0 0.55919291073839883 1 I I #
face $-1 $-1 $355 $51 $-1 $671 reversed single #
loop $-1 $-1 $508 $340 #
plane-surface $-1 0 38.967567104390064 0 0 -1 0 0 0 -1 forward_v I I I I #
coedge $-1 $672 $506 $509 $673 forward $341 $-1 #
coedge $-1 $512 $343 $344 $500 reversed $215 $-1 #
coedge $-1 $506 $672 $343 $498 reversed $341 $-1 #
edge $-1 $513 -18.906173537771917 $674 18.906173537771917 $497 $675 forward 7 unknown #
coedge $-1 $345 $344 $672 $676 forward $137 $-1 #
edge $-1 $504 -59.628284554582351 $674 59.628284554582351 $496 $677 forward 7 unknown #
coedge $-1 $509 $508 $345 $502 reversed $493 $-1 #
edge $-1 $678 -59.628284554582351 $503 59.628284554582351 $501 $679 forward 7 unknown #
vertex $-1 $347 $680 #
vertex $-1 $515 $681 #
straight-curve $-1 59.628284554582351 0 -18.906173537771917 0 -1 0 I I #
coedge $-1 $495 $497 $348 $507 reversed $341 $-1 #
edge $-1 $510 -38.967567104390064 $513 38.967567104390064 $506 $682 forward 7 unknown #
coedge $-1 $501 $349 $354 $516 forward $493 $-1 #
coedge $-1 $349 $501 $495 $673 reversed $493 $-1 #
vertex $-1 $350 $683 #
straight-curve $-1 0 38.967567104390064 18.906173537771917 -1 0 0 I I #
coedge $-1 $351 $496 $353 $515 reversed $215 $-1 #
vertex $-1 $507 $684 #
straight-curve $-1 0 -38.967567104390064 18.906173537771917 1 0 0 I I #
edge $-1 $356 -18.906173537771917 $504 18.906173537771917 $353 $685 forward 7 unknown #
edge $-1 $357 -18.906173537771917 $503 18.906173537771917 $354 $686 forward 7 unknown #
point $-1 59.628284554582351 -38.967567104390064 18.906173537771917 #
point $-1 59.628284554582351 38.967567104390064 18.906173537771917 #
face $-1 $-1 $372 $52 $-1 $687 reversed single #
loop $-1 $-1 $526 $359 #
plane-surface $-1 0 0 18.906173537771917 0 0 1 1 0 0 forward_v I I I I #
coedge $-1 $688 $362 $367 $531 forward $223 $-1 #
coedge $-1 $362 $688 $689 $690 reversed $223 $-1 #
coedge $-1 $364 $363 $362 $525 reversed $141 $-1 #
edge $-1 $691 -11.453937725202023 $536 -3.4505338999377582 $362 $692 forward 7 unknown #
coedge $-1 $689 $693 $364 $527 forward $520 $-1 #
edge $-1 $529 -59.628284554582351 $691 59.628284554582351 $526 $694 forward 7 unknown #
coedge $-1 $371 $365 $693 $695 reversed $372 $-1 #
vertex $-1 $366 $696 #
straight-curve $-1 59.628284554582351 -18.467682819459398 7.4522358125698904 0 0 1 I I #
edge $-1 $536 4.1088703384970326 $534 24.6087546234277 $522 $697 forward 7 unknown #
coedge $-1 $698 $368 $371 $538 reversed $360 $-1 #
coedge $-1 $368 $698 $688 $699 forward $360 $-1 #
vertex $-1 $369 $700 #
straight-curve $-1 0 -38.967567104390064 10.902769712507649 1 0 0 I I #
vertex $-1 $531 $701 #
straight-curve $-1 0 -18.467682819459398 10.902769712507649 1 0 0 I I #
edge $-1 $702 -18.906173537771917 $373 -10.902769712507649 $371 $703 forward 7 unknown #
point $-1 59.628284554582351 -38.967567104390064 10.902769712507649 #
point $-1 59.628284554582351 -18.467682819459398 10.902769712507649 #
loop $-1 $-1 $550 $376 #
plane-surface $-1 59.628284554582351 0 0 -1 0 0 0 0 1 forward_v I I I I #
coedge $-1 $544 $379 $387 $556 reversed $231 $-1 #
coedge $-1 $379 $543 $704 $705 forward $231 $-1 #
coedge $-1 $550 $706 $381 $546 forward $541 $-1 #
edge $-1 $548 68.793276755023044 $554 80.929120316559548 $545 $707 forward 7 unknown #
coedge $-1 $387 $382 $706 $708 forward $377 $-1 #
vertex $-1 $708 $709 #
straight-curve $-1 28.342431909734927 31.018059658787564 18.90617353777192 1 0 0 I I #
coedge $-1 $704 $545 $384 $551 forward $541 $-1 #
edge $-1 $554 13.521652967993159 $552 21.471160413595651 $550 $710 forward 7 unknown #
vertex $-1 $551 $711 #
straight-curve $-1 2.9995180576756546 38.967567104390064 61.456095355014497 -0.71933979245794832 0 0.69465837861970381 I I #
vertex $-1 $551 $712 #
straight-curve $-1 -26.157711117651161 31.018059658787564 89.612904913356417 -0.71933979245794832 0 0.69465837861970381 I I #
edge $-1 $713 -59.628284554582351 $388 -47.061250948503869 $543 $714 forward 7 unknown #
point $-1 47.061250948503869 38.967567104390056 18.90617353777192 #
point $-1 47.061250948503869 31.018059658787564 18.90617353777192 #
edge $-1 $715 1 $715 0 $391 $-1 forward 7 unknown #
vertex $-1 $392 $716 #
ellipse-curve $-1 52.549430865886897 33.289347500388281 12.014656320929175 0.69465837861970381 0 0.71933979245794832 0.71933979245794832 0 -0.69465837861970381 1 I I #
point $-1 54.064107544001047 33.289347500388281 12.143593378383947 #
edge $-1 $717 1 $717 0 $395 $-1 forward 7 unknown #
vertex $-1 $396 $718 #
ellipse-curve $-1 52.549430865886897 36.696279262789353 12.014656320929175 0.69465837861970381 0 0.71933979245794832 0.71933979245794832 0 -0.69465837861970381 1 I I #
point $-1 54.064107544001047 36.696279262789353 12.143593378383947 #
plane-surface $-1 0 0 18.906173537771917 0 0 1 1 0 0 forward_v I I I I #
coedge $-1 $578 $577 $570 $719 forward $400 $-1 #
coedge $-1 $570 $402 $404 $574 reversed $253 $-1 #
coedge $-1 $402 $569 $568 $719 reversed $253 $-1 #
coedge $-1 $410 $405 $402 $572 forward $411 $-1 #
edge $-1 $575 -16.090967135854385 $720 -3.5295717251232261 $571 $721 forward 7 unknown #
coedge $-1 $404 $403 $578 $722 reversed $159 $-1 #
edge $-1 $723 -1.6747963185031944e-014 $575 15.151780692270863 $569 $724 forward 7 unknown #
vertex $-1 $406 $725 #
straight-curve $-1 -47.066889143851185 -5.7587922855226115 18.906173537771917 0 1 0 I I #
coedge $-1 $568 $407 $410 $582 reversed $400 $-1 #
coedge $-1 $407 $568 $573 $722 forward $400 $-1 #
vertex $-1 $408 $726 #
straight-curve $-1 -59.628284554582351 -16.428249619922283 54.650790585244373 0 0 1 I I #
straight-curve $-1 -59.628284554582336 -16.428249619922283 10.433405189591099 -0.82903756765294845 0 -0.55919291073839883 I I #
edge $-1 $720 6.6069195221681625 $412 16.428249619922283 $577 $727 forward 7 unknown #
point $-1 -59.628284554582351 -16.428249619922283 18.906173537771917 #
point $-1 -47.066889143851192 -16.428249619922283 18.906173537771917 #
edge $-1 $728 1 $728 0 $415 $-1 forward 7 unknown #
vertex $-1 $416 $729 #
ellipse-curve $-1 -52.182731033662392 -13.622155306278248 12.942819630251927 -0.55919291073839883 0 0.82903756765294845 0.82903756765294845 0 0.55919291073839883 1 I I #
point $-1 -52.518549281563843 -13.622155306278248 15.228982274419916 #
edge $-1 $730 1 $730 0 $419 $-1 forward 7 unknown #
vertex $-1 $420 $731 #
ellipse-curve $-1 -52.182731033662392 -9.413013835812194 12.942819630251927 -0.55919291073839883 0 0.82903756765294845 0.82903756765294845 0 0.55919291073839883 1 I I #
point $-1 -52.518549281563843 -9.413013835812194 15.228982274419916 #
loop $-1 $-1 $431 $423 #
plane-surface $-1 -59.628284554582351 0 0 1 0 0 0 0 -1 forward_v I I I I #
coedge $-1 $596 $426 $428 $600 reversed $275 $-1 #
coedge $-1 $426 $595 $732 $733 reversed $275 $-1 #
coedge $-1 $434 $429 $426 $598 forward $424 $-1 #
edge $-1 $601 -16.090967135854385 $734 -3.5295717251232261 $597 $735 forward 7 unknown #
coedge $-1 $428 $427 $604 $736 reversed $173 $-1 #
edge $-1 $737 -1.6747963185031944e-014 $601 15.151780692270863 $595 $738 forward 7 unknown #
vertex $-1 $430 $739 #
straight-curve $-1 -47.066889143851185 1.4970499523142387 18.906173537771917 0 1 0 I I #
coedge $-1 $732 $431 $434 $608 reversed $593 $-1 #
coedge $-1 $431 $732 $599 $736 forward $593 $-1 #
vertex $-1 $432 $740 #
straight-curve $-1 -59.628284554582351 -1.9165651442485832 54.650790585244373 0 0 1 I I #
straight-curve $-1 -59.628284554582336 -1.9165651442485832 10.433405189591099 -0.82903756765294845 0 -0.55919291073839883 I I #
edge $-1 $734 -7.9047649535055378 $435 1.9165651442485832 $603 $741 forward 7 unknown #
point $-1 -59.628284554582351 -1.9165651442485832 18.906173537771917 #
point $-1 -47.066889143851192 -1.9165651442485832 18.906173537771917 #
edge $-1 $742 1 $742 0 $438 $-1 forward 7 unknown #
vertex $-1 $439 $743 #
ellipse-curve $-1 -52.182731033662392 0.8895291693954519 12.942819630251927 -0.55919291073839883 0 0.82903756765294845 0.82903756765294845 0 0.55919291073839883 1 I I #
point $-1 -52.518549281563843 0.8895291693954519 15.228982274419916 #
edge $-1 $744 1 $744 0 $442 $-1 forward 7 unknown #
vertex $-1 $443 $745 #
ellipse-curve $-1 -52.182731033662392 5.0986706398615098 12.942819630251927 -0.55919291073839883 0 0.82903756765294845 0.82903756765294845 0 0.55919291073839883 1 I I #
point $-1 -52.518549281563843 5.0986706398615098 15.228982274419916 #
loop $-1 $-1 $454 $446 #
plane-surface $-1 -59.628284554582351 0 0 1 0 0 0 0 -1 forward_v I I I I #
coedge $-1 $622 $449 $451 $626 reversed $297 $-1 #
coedge $-1 $449 $621 $746 $747 reversed $297 $-1 #
coedge $-1 $457 $452 $449 $624 forward $447 $-1 #
edge $-1 $627 -16.090967135854385 $748 -3.5295717251232261 $623 $749 forward 7 unknown #
coedge $-1 $451 $450 $630 $750 reversed $187 $-1 #
edge $-1 $751 -1.6747963185031944e-014 $627 15.151780692270863 $621 $752 forward 7 unknown #
vertex $-1 $453 $753 #
straight-curve $-1 -47.066889143851185 8.7528921901510905 18.906173537771917 0 1 0 I I #
coedge $-1 $746 $454 $457 $634 reversed $619 $-1 #
coedge $-1 $454 $746 $625 $750 forward $619 $-1 #
vertex $-1 $455 $754 #
straight-curve $-1 -59.628284554582351 12.595119331425121 54.650790585244373 0 0 1 I I #
straight-curve $-1 -59.628284554582336 12.595119331425121 10.433405189591099 -0.82903756765294845 0 -0.55919291073839883 I I #
edge $-1 $748 -22.416449429179242 $458 -12.595119331425121 $629 $755 forward 7 unknown #
point $-1 -59.628284554582351 12.595119331425121 18.906173537771917 #
point $-1 -47.066889143851192 12.595119331425121 18.906173537771917 #
edge $-1 $756 1 $756 0 $461 $-1 forward 7 unknown #
vertex $-1 $462 $757 #
ellipse-curve $-1 -52.182731033662392 15.401213645069156 12.942819630251927 -0.55919291073839883 0 0.82903756765294845 0.82903756765294845 0 0.55919291073839883 1 I I #
point $-1 -52.518549281563843 15.401213645069156 15.228982274419916 #
edge $-1 $758 1 $758 0 $465 $-1 forward 7 unknown #
vertex $-1 $466 $759 #
ellipse-curve $-1 -52.182731033662392 19.610355115535214 12.942819630251927 -0.55919291073839883 0 0.82903756765294845 0.82903756765294845 0 0.55919291073839883 1 I I #
point $-1 -52.518549281563843 19.610355115535214 15.228982274419916 #
loop $-1 $-1 $477 $469 #
plane-surface $-1 -59.628284554582351 0 0 1 0 0 0 0 -1 forward_v I I I I #
coedge $-1 $648 $472 $474 $652 reversed $319 $-1 #
coedge $-1 $472 $647 $760 $761 reversed $319 $-1 #
coedge $-1 $480 $475 $472 $650 forward $470 $-1 #
edge $-1 $653 -16.090967135854385 $762 -3.5295717251232261 $649 $763 forward 7 unknown #
coedge $-1 $474 $473 $656 $764 reversed $201 $-1 #
edge $-1 $765 -1.6747963185031944e-014 $653 15.151780692270863 $647 $766 forward 7 unknown #
vertex $-1 $476 $767 #
straight-curve $-1 -47.066889143851185 16.008734427987942 18.906173537771917 0 1 0 I I #
coedge $-1 $760 $477 $480 $660 reversed $645 $-1 #
coedge $-1 $477 $760 $651 $764 forward $645 $-1 #
vertex $-1 $478 $768 #
straight-curve $-1 -59.628284554582351 27.106803807098824 54.650790585244373 0 0 1 I I #
straight-curve $-1 -59.628284554582336 27.106803807098824 10.433405189591099 -0.82903756765294845 0 -0.55919291073839883 I I #
edge $-1 $762 -36.928133904852942 $481 -27.106803807098824 $655 $769 forward 7 unknown #
point $-1 -59.628284554582351 27.106803807098824 18.906173537771917 #
point $-1 -47.066889143851192 27.106803807098824 18.906173537771917 #
edge $-1 $770 1 $770 0 $484 $-1 forward 7 unknown #
vertex $-1 $485 $771 #
ellipse-curve $-1 -52.182731033662392 29.912898120742859 12.942819630251927 -0.55919291073839883 0 0.82903756765294845 0.82903756765294845 0 0.55919291073839883 1 I I #
point $-1 -52.518549281563843 29.912898120742859 15.228982274419916 #
edge $-1 $772 1 $772 0 $488 $-1 forward 7 unknown #
vertex $-1 $489 $773 #
ellipse-curve $-1 -52.182731033662392 34.12203959120891 12.942819630251927 -0.55919291073839883 0 0.82903756765294845 0.82903756765294845 0 0.55919291073839883 1 I I #
point $-1 -52.518549281563843 34.12203959120891 15.228982274419916 #
plane-surface $-1 59.628284554582351 0 0 -1 0 0 0 0 1 forward_v I I I I #
coedge $-1 $497 $495 $499 $676 reversed $341 $-1 #
edge $-1 $510 -18.906173537771917 $678 18.906173537771917 $509 $774 forward 7 unknown #
vertex $-1 $676 $775 #
straight-curve $-1 -59.628284554582351 -38.967567104390064 0 0 0 -1 I I #
edge $-1 $674 -38.967567104390064 $678 38.967567104390064 $672 $776 forward 7 unknown #
straight-curve $-1 0 -38.967567104390064 -18.906173537771917 -1 0 0 I I #
vertex $-1 $502 $777 #
straight-curve $-1 0 38.967567104390064 -18.906173537771917 1 0 0 I I #
point $-1 59.628284554582351 38.967567104390064 -18.906173537771917 #
point $-1 59.628284554582351 -38.967567104390064 -18.906173537771917 #
straight-curve $-1 -59.628284554582351 0 18.906173537771917 0 -1 0 I I #
point $-1 -59.628284554582351 38.967567104390064 18.906173537771917 #
point $-1 -59.628284554582351 -38.967567104390064 18.906173537771917 #
straight-curve $-1 59.628284554582351 -38.967567104390064 0 0 0 -1 I I #
straight-curve $-1 59.628284554582351 38.967567104390064 0 0 0 -1 I I #
plane-surface $-1 59.628284554582351 0 0 -1 0 0 0 0 1 forward_v I I I I #
coedge $-1 $523 $522 $533 $699 reversed $223 $-1 #
coedge $-1 $778 $526 $523 $690 forward $520 $-1 #
edge $-1 $691 18.467682819459398 $779 38.967567104390064 $523 $780 forward 7 unknown #
vertex $-1 $690 $781 #
straight-curve $-1 -59.628284554582351 -18.467682819459398 7.4522358125698904 0 0 -1 I I #
coedge $-1 $526 $778 $528 $695 forward $520 $-1 #
straight-curve $-1 0 -18.467682819459398 18.906173537771917 -1 0 0 I I #
edge $-1 $702 -38.967567104390064 $529 -18.467682819459398 $528 $782 forward 7 unknown #
point $-1 59.628284554582351 -18.467682819459398 18.906173537771913 #
straight-curve $-1 -59.628284554582351 -14.358812480962365 10.902769712507649 0 -1 0 I I #
coedge $-1 $533 $532 $778 $783 reversed $360 $-1 #
edge $-1 $779 -18.906173537771917 $534 -10.902769712507649 $688 $784 forward 7 unknown #
point $-1 -59.628284554582351 -38.967567104390064 10.902769712507649 #
point $-1 -59.628284554582351 -18.467682819459398 10.902769712507649 #
vertex $-1 $695 $785 #
straight-curve $-1 59.628284554582351 -38.967567104390064 0 0 0 -1 I I #
coedge $-1 $706 $550 $544 $705 reversed $541 $-1 #
edge $-1 $713 -18.906173537771917 $552 -6.7703299762354163 $704 $786 forward 7 unknown #
coedge $-1 $545 $704 $547 $708 reversed $541 $-1 #
straight-curve $-1 59.628284554582351 31.018059658787564 87.699450292794964 0 0 -1 I I #
edge $-1 $548 31.018059658787564 $713 38.967567104390064 $706 $787 forward 7 unknown #
point $-1 59.628284554582351 31.018059658787564 18.906173537771917 #
straight-curve $-1 59.628284554582351 17.496406690794405 6.7703299762354092 0 1 0 I I #
point $-1 59.628284554582351 38.967567104390056 6.7703299762354163 #
point $-1 59.628284554582351 31.018059658787564 6.7703299762354163 #
vertex $-1 $708 $788 #
straight-curve $-1 0 38.967567104390064 18.906173537771917 -1 0 0 I I #
vertex $-1 $559 $789 #
point $-1 53.268770658344842 33.289347500388281 11.319997942309472 #
vertex $-1 $563 $790 #
point $-1 53.268770658344842 36.696279262789353 11.319997942309472 #
edge $-1 $720 35.74461704747246 $723 44.217385395653281 $568 $791 forward 7 unknown #
vertex $-1 $582 $792 #
straight-curve $-1 -63.157856279705577 -6.6069195221681625 18.90617353777192 -1 0 0 I I #
edge $-1 $723 0.84812723664555101 $579 10.669457334399672 $578 $793 forward 7 unknown #
vertex $-1 $722 $794 #
straight-curve $-1 -59.628284554582336 -6.6069195221681625 10.433405189591099 0.82903756765294845 0 0.55919291073839883 I I #
point $-1 -47.066889143851192 -6.6069195221681625 18.906173537771917 #
point $-1 -59.628284554582351 -16.428249619922283 10.43340518959109 #
straight-curve $-1 -59.628284554582351 0 18.906173537771917 0 -1 0 I I #
vertex $-1 $585 $795 #
point $-1 -51.353693466009439 -13.622155306278248 13.502012540990325 #
vertex $-1 $589 $796 #
point $-1 -51.353693466009439 -9.413013835812194 13.502012540990325 #
coedge $-1 $604 $603 $596 $733 forward $593 $-1 #
edge $-1 $734 35.74461704747246 $737 44.217385395653281 $732 $797 forward 7 unknown #
vertex $-1 $608 $798 #
straight-curve $-1 -63.157856279705577 7.9047649535055378 18.90617353777192 -1 0 0 I I #
edge $-1 $737 -6.4077150011912991 $605 3.4136150965628218 $604 $799 forward 7 unknown #
vertex $-1 $736 $800 #
straight-curve $-1 -59.628284554582336 7.9047649535055378 10.433405189591099 0.82903756765294845 0 0.55919291073839883 I I #
point $-1 -47.066889143851192 7.9047649535055378 18.906173537771917 #
point $-1 -59.628284554582351 -1.9165651442485832 10.43340518959109 #
straight-curve $-1 -59.628284554582351 0 18.906173537771917 0 -1 0 I I #
vertex $-1 $611 $801 #
point $-1 -51.353693466009439 0.8895291693954519 13.502012540990325 #
vertex $-1 $615 $802 #
point $-1 -51.353693466009439 5.0986706398615098 13.502012540990325 #
coedge $-1 $630 $629 $622 $747 forward $619 $-1 #
edge $-1 $748 35.74461704747246 $751 44.217385395653281 $746 $803 forward 7 unknown #
vertex $-1 $634 $804 #
straight-curve $-1 -63.157856279705577 22.416449429179242 18.90617353777192 -1 0 0 I I #
edge $-1 $751 -13.663557239028151 $631 -3.8422271412740301 $630 $805 forward 7 unknown #
vertex $-1 $750 $806 #
straight-curve $-1 -59.628284554582336 22.416449429179242 10.433405189591099 0.82903756765294845 0 0.55919291073839883 I I #
point $-1 -47.066889143851192 22.416449429179242 18.906173537771917 #
point $-1 -59.628284554582351 12.595119331425121 10.43340518959109 #
straight-curve $-1 -59.628284554582351 0 18.906173537771917 0 -1 0 I I #
vertex $-1 $637 $807 #
point $-1 -51.353693466009439 15.401213645069156 13.502012540990325 #
vertex $-1 $641 $808 #
point $-1 -51.353693466009439 19.610355115535214 13.502012540990325 #
coedge $-1 $656 $655 $648 $761 forward $645 $-1 #
edge $-1 $762 35.74461704747246 $765 44.217385395653281 $760 $809 forward 7 unknown #
vertex $-1 $660 $810 #
straight-curve $-1 -63.157856279705577 36.928133904852942 18.90617353777192 -1 0 0 I I #
edge $-1 $765 -20.919399476864999 $657 -11.098069379110882 $656 $811 forward 7 unknown #
vertex $-1 $764 $812 #
straight-curve $-1 -59.628284554582336 36.928133904852942 10.433405189591099 0.82903756765294845 0 0.55919291073839883 I I #
point $-1 -47.066889143851192 36.928133904852942 18.906173537771917 #
point $-1 -59.628284554582351 27.106803807098824 10.43340518959109 #
straight-curve $-1 -59.628284554582351 0 18.906173537771917 0 -1 0 I I #
vertex $-1 $663 $813 #
point $-1 -51.353693466009439 29.912898120742859 13.502012540990325 #
vertex $-1 $667 $814 #
point $-1 -51.353693466009439 34.12203959120891 13.502012540990325 #
straight-curve $-1 -59.628284554582351 38.967567104390064 0 0 0 -1 I I #
point $-1 -59.628284554582351 -38.967567104390064 -18.906173537771917 #
straight-curve $-1 -59.628284554582351 0 -18.906173537771917 0 1 0 I I #
point $-1 -59.628284554582351 38.967567104390064 -18.906173537771917 #
coedge $-1 $693 $689 $698 $783 forward $520 $-1 #
vertex $-1 $690 $815 #
straight-curve $-1 -59.628284554582351 0 18.906173537771917 0 -1 0 I I #
point $-1 -59.628284554582351 -18.467682819459398 18.906173537771913 #
straight-curve $-1 59.628284554582351 0 18.906173537771917 0 1 0 I I #
edge $-1 $779 -59.628284554582351 $702 59.628284554582351 $698 $816 forward 7 unknown #
straight-curve $-1 -59.628284554582351 -38.967567104390064 0 0 0 -1 I I #
point $-1 59.628284554582351 -38.967567104390064 18.906173537771917 #
straight-curve $-1 59.628284554582351 38.967567104390064 0 0 0 -1 I I #
straight-curve $-1 59.628284554582351 0 18.906173537771917 0 1 0 I I #
point $-1 59.628284554582351 38.967567104390064 18.906173537771917 #
point $-1 51.854772487267191 33.289347500388281 11.295316528471227 #
point $-1 51.854772487267191 36.696279262789353 11.295316528471227 #
straight-curve $-1 -59.628284554582351 -6.6069195221681625 54.650790585244373 0 0 -1 I I #
point $-1 -59.628284554582351 -6.6069195221681625 18.906173537771917 #
straight-curve $-1 -59.628284554582351 -5.7587922855226115 10.433405189591088 0 -1 0 I I #
point $-1 -59.628284554582351 -6.6069195221681625 10.43340518959109 #
point $-1 -51.623538122923989 -13.622155306278248 12.113782062598977 #
point $-1 -51.623538122923989 -9.413013835812194 12.113782062598977 #
straight-curve $-1 -59.628284554582351 7.9047649535055378 54.650790585244373 0 0 -1 I I #
point $-1 -59.628284554582351 7.9047649535055378 18.906173537771917 #
straight-curve $-1 -59.628284554582351 1.4970499523142387 10.433405189591088 0 -1 0 I I #
point $-1 -59.628284554582351 7.9047649535055378 10.43340518959109 #
point $-1 -51.623538122923989 0.8895291693954519 12.113782062598977 #
point $-1 -51.623538122923989 5.0986706398615098 12.113782062598977 #
straight-curve $-1 -59.628284554582351 22.416449429179242 54.650790585244373 0 0 -1 I I #
point $-1 -59.628284554582351 22.416449429179242 18.906173537771917 #
straight-curve $-1 -59.628284554582351 8.7528921901510905 10.433405189591088 0 -1 0 I I #
point $-1 -59.628284554582351 22.416449429179242 10.43340518959109 #
point $-1 -51.623538122923989 15.401213645069156 12.113782062598977 #
point $-1 -51.623538122923989 19.610355115535214 12.113782062598977 #
straight-curve $-1 -59.628284554582351 36.928133904852942 54.650790585244373 0 0 -1 I I #
point $-1 -59.628284554582351 36.928133904852942 18.906173537771917 #
straight-curve $-1 -59.628284554582351 16.008734427987942 10.433405189591088 0 -1 0 I I #
point $-1 -59.628284554582351 36.928133904852942 10.43340518959109 #
point $-1 -51.623538122923989 29.912898120742859 12.113782062598977 #
point $-1 -51.623538122923989 34.12203959120891 12.113782062598977 #
point $-1 -59.628284554582351 -38.967567104390064 18.906173537771917 #
straight-curve $-1 0 -38.967567104390064 18.906173537771917 1 0 0 I I #
End-of-ACIS-data 