500 0 7 0           
7 Unknown 11 ACIS 5.0 NT 24 Fri Mar 26 20:31:59 1999 
-1 9.9999999999999995e-007 1e-010 
body $-1 $7 $-1 $8 #
body $-1 $9 $-1 $10 #
body $-1 $11 $-1 $12 #
body $-1 $13 $-1 $14 #
body $-1 $15 $-1 $16 #
body $-1 $17 $-1 $18 #
body $-1 $19 $-1 $20 #
lump $-1 $-1 $21 $0 #
transform $-1 1 0 0 0 1 0 0 0 1 60.31067842646565 25.756508365995966 7.9126961826063358 1 rotate no_reflect no_shear #
lump $-1 $-1 $22 $1 #
transform $-1 1 0 0 0 1 0 0 0 1 60.31067842646565 25.756508365995966 7.9126961826063358 1 rotate no_reflect no_shear #
lump $-1 $-1 $23 $2 #
transform $-1 1 0 0 0 1 0 0 0 1 60.31067842646565 25.756508365995966 7.9126961826063358 1 rotate no_reflect no_shear #
lump $-1 $-1 $24 $3 #
transform $-1 1 0 0 0 1 0 0 0 1 60.31067842646565 25.756508365995966 7.9126961826063358 1 rotate no_reflect no_shear #
lump $-1 $-1 $25 $4 #
transform $-1 1 0 0 0 1 0 0 0 1 60.31067842646565 25.756508365995966 7.9126961826063358 1 rotate no_reflect no_shear #
lump $-1 $-1 $26 $5 #
transform $-1 1 0 0 0 1 0 0 0 1 60.31067842646565 25.756508365995966 7.9126961826063358 1 rotate no_reflect no_shear #
lump $-1 $-1 $27 $6 #
transform $-1 1 0 0 0 1 0 0 0 1 60.31067842646565 25.756508365995966 7.9126961826063358 1 rotate no_reflect no_shear #
shell $-1 $-1 $-1 $28 $-1 $7 #
shell $-1 $-1 $-1 $29 $-1 $9 #
shell $-1 $-1 $-1 $30 $-1 $11 #
shell $-1 $-1 $-1 $31 $-1 $13 #
shell $-1 $-1 $-1 $32 $-1 $15 #
shell $-1 $-1 $-1 $33 $-1 $17 #
shell $-1 $-1 $-1 $34 $-1 $19 #
face $-1 $35 $36 $21 $-1 $37 forward single #
face $-1 $38 $39 $22 $-1 $40 reversed single #
face $-1 $41 $42 $23 $-1 $43 forward single #
face $-1 $44 $45 $24 $-1 $46 forward single #
face $-1 $47 $48 $25 $-1 $49 reversed single #
face $-1 $50 $51 $26 $-1 $52 forward single #
face $-1 $53 $54 $27 $-1 $55 forward single #
face $-1 $56 $57 $21 $-1 $58 reversed single #
loop $-1 $-1 $59 $28 #
plane-surface $-1 0 0 7.9126961826063358 0 0 1 1 0 0 forward_v I I I I #
face $-1 $60 $61 $22 $-1 $62 reversed single #
loop $-1 $-1 $63 $29 #
plane-surface $-1 -149.949816612673 -11.045132528448139 81.034385808864599 0 1 0 -0.74314483375859142 0 0.66913059716165679 forward_v I I I I #
face $-1 $64 $65 $23 $-1 $66 forward single #
loop $-1 $67 $68 $30 #
cone-surface $-1 -56.298988556524108 -8.9413460427626426 3.5822885545970862 0.74314483375859142 0 -0.66913059716165679 0.3345652985808284 0 0.37157241687929571 1 I I 0 1 0.5 forward I I I I #
face $-1 $69 $70 $24 $-1 $71 forward single #
loop $-1 $72 $73 $31 #
cone-surface $-1 -56.298988556524108 -5.785666314234394 3.5822885545970862 0.74314483375859142 0 -0.66913059716165679 0.3345652985808284 0 0.37157241687929571 1 I I 0 1 0.5 forward I I I I #
face $-1 $74 $75 $25 $-1 $76 reversed single #
loop $-1 $-1 $77 $32 #
plane-surface $-1 48.411316881431283 18.72043631407254 171.69854104213024 0 1 0 0.6560590369687036 0 0.75470957328743171 forward_v I I I I #
face $-1 $78 $79 $26 $-1 $80 forward single #
loop $-1 $81 $82 $33 #
cone-surface $-1 56.281622744875527 20.730742614622091 4.3097578155914071 -0.6560590369687036 0 -0.75470957328743171 0.37735478664371586 0 -0.3280295184843518 1 I I 0 1 0.5 forward I I I I #
face $-1 $83 $84 $27 $-1 $85 forward single #
loop $-1 $86 $87 $34 #
cone-surface $-1 56.281622744875527 23.746202065446415 4.3097578155914071 -0.6560590369687036 0 -0.75470957328743171 0.37735478664371586 0 -0.3280295184843518 1 I I 0 1 0.5 forward I I I I #
face $-1 $88 $89 $21 $-1 $90 reversed single #
loop $-1 $-1 $91 $35 #
plane-surface $-1 0 0 -7.9126961826063358 0 0 1 1 0 0 forward_v I I I I #
coedge $-1 $92 $93 $94 $95 forward $36 $-1 #
face $-1 $96 $97 $22 $-1 $98 reversed single #
loop $-1 $-1 $99 $38 #
plane-surface $-1 -60.310678426465643 -7.3635061784985183 0.32294526741337393 -0.74314483375859142 0 0.66913059716165679 0.66913059716165679 0 0.74314483375859142 forward_v I I I I #
coedge $-1 $100 $101 $102 $103 reversed $39 $-1 #
face $-1 $-1 $104 $23 $-1 $105 forward single #
loop $-1 $106 $107 $41 #
cone-surface $-1 -55.518433602727526 -8.9413460427626426 2.8794737348939048 0.74314483375859142 0 -0.66913059716165679 0.1672826492904142 0 0.18578620843964785 1 I I -0.70710678118654746 0.70710678118654746 0.25 forward I I I I #
loop $-1 $-1 $108 $30 #
coedge $-1 $68 $68 $109 $110 reversed $42 $-1 #
face $-1 $-1 $111 $24 $-1 $112 forward single #
loop $-1 $113 $114 $44 #
cone-surface $-1 -55.518433602727526 -5.785666314234394 2.8794737348939048 0.74314483375859142 0 -0.66913059716165679 0.1672826492904142 0 0.18578620843964785 1 I I -0.70710678118654746 0.70710678118654746 0.25 forward I I I I #
loop $-1 $-1 $115 $31 #
coedge $-1 $73 $73 $116 $117 reversed $45 $-1 #
face $-1 $118 $119 $25 $-1 $120 reversed single #
loop $-1 $-1 $121 $47 #
plane-surface $-1 -30.723414333361156 22.238472340034253 80.664448282303439 0.6560590369687036 0 0.75470957328743171 0.75470957328743171 0 -0.6560590369687036 forward_v I I I I #
coedge $-1 $122 $123 $124 $125 reversed $48 $-1 #
face $-1 $-1 $126 $26 $-1 $127 forward single #
loop $-1 $128 $129 $50 #
cone-surface $-1 55.759940984636934 20.730742614622091 3.7096316128023012 -0.6560590369687036 0 -0.75470957328743171 0.18867739332185793 0 -0.1640147592421759 1 I I -0.70710678118654691 0.70710678118654813 0.25 forward I I I I #
loop $-1 $-1 $130 $33 #
coedge $-1 $82 $82 $131 $132 reversed $51 $-1 #
face $-1 $-1 $133 $27 $-1 $134 forward single #
loop $-1 $135 $136 $53 #
cone-surface $-1 55.759940984636934 23.746202065446415 3.7096316128023012 -0.6560590369687036 0 -0.75470957328743171 0.18867739332185793 0 -0.1640147592421759 1 I I -0.70710678118654691 0.70710678118654813 0.25 forward I I I I #
loop $-1 $-1 $137 $34 #
coedge $-1 $87 $87 $138 $139 reversed $54 $-1 #
face $-1 $140 $141 $21 $-1 $142 reversed single #
loop $-1 $-1 $143 $56 #
plane-surface $-1 0 -25.756508365995966 0 0 1 0 0 0 1 forward_v I I I I #
coedge $-1 $144 $145 $146 $147 forward $57 $-1 #
coedge $-1 $148 $59 $149 $150 forward $36 $-1 #
coedge $-1 $59 $148 $151 $152 forward $36 $-1 #
coedge $-1 $153 $154 $59 $95 reversed $155 $-1 #
edge $-1 $156 -25.756508365995966 $157 25.756508365995966 $94 $158 forward 7 unknown #
face $-1 $159 $160 $22 $-1 $161 reversed single #
loop $-1 $-1 $162 $60 #
plane-surface $-1 -149.949816612673 -3.6818798285488965 81.034385808864599 0 -1 0 0.74314483375859142 0 -0.66913059716165679 forward_v I I I I #
coedge $-1 $163 $164 $165 $166 reversed $61 $-1 #
coedge $-1 $101 $63 $167 $168 reversed $39 $-1 #
coedge $-1 $63 $100 $163 $169 reversed $39 $-1 #
coedge $-1 $165 $170 $63 $103 forward $171 $-1 #
edge $-1 $172 14.664229879870852 $173 21.498072129040082 $102 $174 forward 7 unknown #
loop $-1 $-1 $109 $64 #
plane-surface $-1 -60.310678426465643 -7.3635061784985183 0.32294526741337393 -0.74314483375859142 0 0.66913059716165679 0.66913059716165679 0 0.74314483375859142 forward_v I I I I #
loop $-1 $-1 $175 $41 #
coedge $-1 $107 $107 $108 $176 reversed $65 $-1 #
coedge $-1 $108 $108 $107 $176 forward $67 $-1 #
coedge $-1 $109 $109 $68 $110 forward $104 $-1 #
edge $-1 $177 0 $177 6.2831853071796004 $109 $178 forward 7 unknown #
loop $-1 $-1 $116 $69 #
plane-surface $-1 -60.310678426465643 -7.3635061784985183 0.32294526741337393 -0.74314483375859142 0 0.66913059716165679 0.66913059716165679 0 0.74314483375859142 forward_v I I I I #
loop $-1 $-1 $179 $44 #
coedge $-1 $114 $114 $115 $180 reversed $70 $-1 #
coedge $-1 $115 $115 $114 $180 forward $72 $-1 #
coedge $-1 $116 $116 $73 $117 forward $111 $-1 #
edge $-1 $181 0 $181 6.2831853071796004 $116 $182 forward 7 unknown #
face $-1 $183 $184 $25 $-1 $185 forward single #
loop $-1 $-1 $186 $74 #
plane-surface $-1 0 25.756508365995966 0 0 -1 0 0 0 -1 forward_v I I I I #
coedge $-1 $187 $188 $189 $190 reversed $75 $-1 #
coedge $-1 $123 $77 $191 $192 reversed $48 $-1 #
coedge $-1 $77 $122 $187 $193 reversed $48 $-1 #
coedge $-1 $189 $194 $77 $125 forward $195 $-1 #
edge $-1 $196 77.936574338458783 $197 84.319553453554121 $124 $198 forward 7 unknown #
loop $-1 $-1 $131 $78 #
plane-surface $-1 -30.723414333361156 22.238472340034253 80.664448282303439 0.6560590369687036 0 0.75470957328743171 0.75470957328743171 0 -0.6560590369687036 forward_v I I I I #
loop $-1 $-1 $199 $50 #
coedge $-1 $129 $129 $130 $200 reversed $79 $-1 #
coedge $-1 $130 $130 $129 $200 forward $81 $-1 #
coedge $-1 $131 $131 $82 $132 forward $126 $-1 #
edge $-1 $201 0 $201 6.2831853071796004 $131 $202 forward 7 unknown #
loop $-1 $-1 $138 $83 #
plane-surface $-1 -30.723414333361156 22.238472340034253 80.664448282303439 0.6560590369687036 0 0.75470957328743171 0.75470957328743171 0 -0.6560590369687036 forward_v I I I I #
loop $-1 $-1 $203 $53 #
coedge $-1 $136 $136 $137 $204 reversed $84 $-1 #
coedge $-1 $137 $137 $136 $204 forward $86 $-1 #
coedge $-1 $138 $138 $87 $139 forward $133 $-1 #
edge $-1 $205 0 $205 6.2831853071796004 $138 $206 forward 7 unknown #
face $-1 $207 $208 $21 $-1 $209 reversed single #
loop $-1 $-1 $210 $88 #
plane-surface $-1 -60.31067842646565 0 0 1 0 0 0 0 -1 forward_v I I I I #
coedge $-1 $211 $151 $212 $213 forward $89 $-1 #
coedge $-1 $214 $91 $211 $215 forward $57 $-1 #
coedge $-1 $91 $214 $216 $217 forward $57 $-1 #
coedge $-1 $154 $153 $91 $147 reversed $155 $-1 #
edge $-1 $218 -25.756508365995966 $219 25.756508365995966 $146 $220 forward 7 unknown #
coedge $-1 $93 $92 $221 $222 forward $36 $-1 #
coedge $-1 $223 $224 $92 $150 reversed $208 $-1 #
edge $-1 $157 -60.31067842646565 $225 60.31067842646565 $149 $226 forward 7 unknown #
coedge $-1 $143 $227 $93 $152 reversed $89 $-1 #
edge $-1 $228 -60.31067842646565 $156 60.31067842646565 $151 $229 forward 7 unknown #
coedge $-1 $146 $94 $227 $230 forward $155 $-1 #
coedge $-1 $94 $146 $223 $231 reversed $155 $-1 #
loop $-1 $-1 $153 $207 #
vertex $-1 $95 $232 #
vertex $-1 $95 $233 #
straight-curve $-1 60.31067842646565 0 7.9126961826063358 0 1 0 I I #
face $-1 $-1 $171 $22 $-1 $234 forward single #
loop $-1 $-1 $235 $96 #
plane-surface $-1 -60.31067842646565 0 0 1 0 0 0 0 -1 forward_v I I I I #
coedge $-1 $236 $237 $238 $239 reversed $97 $-1 #
coedge $-1 $240 $99 $101 $169 forward $61 $-1 #
coedge $-1 $99 $240 $236 $241 forward $61 $-1 #
coedge $-1 $238 $102 $99 $166 forward $171 $-1 #
edge $-1 $173 -7.36337943919888 $242 -0.00012673929963735731 $165 $243 forward 7 unknown #
coedge $-1 $244 $245 $100 $168 forward $160 $-1 #
edge $-1 $246 -40.194247637018933 $172 -32.604496721825967 $167 $247 forward 7 unknown #
edge $-1 $173 -10.213017127235354 $246 1.0612360036877491e-014 $101 $248 forward 7 unknown #
coedge $-1 $102 $238 $244 $249 forward $171 $-1 #
loop $-1 $-1 $238 $159 #
vertex $-1 $168 $250 #
vertex $-1 $103 $251 #
straight-curve $-1 -74.974908306336502 -11.045132528448139 7.9126961826063322 1 0 0 I I #
coedge $-1 $175 $175 $-1 $252 reversed $106 $-1 #
edge $-1 $253 0 $253 6.2831853071796004 $107 $254 forward 7 unknown #
vertex $-1 $110 $255 #
ellipse-curve $-1 -56.893757301881038 -8.9413460427626426 4.1178207250098504 -0.74314483375859142 0 0.66913059716165679 0.3345652985808284 0 0.37157241687929571 1 I I #
coedge $-1 $179 $179 $-1 $256 reversed $113 $-1 #
edge $-1 $257 0 $257 6.2831853071796004 $114 $258 forward 7 unknown #
vertex $-1 $117 $259 #
ellipse-curve $-1 -56.893757301881038 -5.785666314234394 4.1178207250098504 -0.74314483375859142 0 0.66913059716165679 0.3345652985808284 0 0.37157241687929571 1 I I #
face $-1 $-1 $195 $25 $-1 $260 reversed single #
loop $-1 $-1 $261 $118 #
plane-surface $-1 0 0 7.9126961826063358 0 0 1 1 0 0 forward_v I I I I #
coedge $-1 $262 $263 $188 $264 forward $119 $-1 #
coedge $-1 $265 $121 $123 $193 forward $75 $-1 #
coedge $-1 $121 $265 $186 $264 reversed $75 $-1 #
coedge $-1 $266 $124 $121 $190 forward $195 $-1 #
edge $-1 $197 7.6012001440554133 $267 14.63727219597884 $189 $268 forward 7 unknown #
coedge $-1 $269 $261 $122 $192 forward $184 $-1 #
edge $-1 $270 28.762242624562621 $196 36.105019985750005 $191 $271 forward 7 unknown #
edge $-1 $197 -120.62135685293131 $270 -110.89208135268416 $123 $272 forward 7 unknown #
coedge $-1 $124 $266 $269 $273 reversed $195 $-1 #
loop $-1 $-1 $189 $183 #
vertex $-1 $273 $274 #
vertex $-1 $125 $275 #
straight-curve $-1 60.31067842646565 18.72043631407254 85.849270521065122 0 0 -1 I I #
coedge $-1 $199 $199 $-1 $276 reversed $128 $-1 #
edge $-1 $277 0 $277 6.2831853071796004 $129 $278 forward 7 unknown #
vertex $-1 $132 $279 #
ellipse-curve $-1 56.639289745871956 20.730742614622091 4.7212066250586666 0.6560590369687036 0 0.75470957328743171 0.37735478664371586 0 -0.3280295184843518 1 I I #
coedge $-1 $203 $203 $-1 $280 reversed $135 $-1 #
edge $-1 $281 0 $281 6.2831853071796004 $136 $282 forward 7 unknown #
vertex $-1 $139 $283 #
ellipse-curve $-1 56.639289745871956 23.746202065446415 4.7212066250586666 0.6560590369687036 0 0.75470957328743171 0.37735478664371586 0 -0.3280295184843518 1 I I #
face $-1 $-1 $155 $21 $-1 $284 reversed single #
loop $-1 $-1 $223 $140 #
plane-surface $-1 0 25.756508365995966 0 0 -1 0 0 0 -1 forward_v I I I I #
coedge $-1 $285 $221 $224 $286 forward $141 $-1 #
coedge $-1 $227 $143 $144 $215 reversed $89 $-1 #
coedge $-1 $221 $285 $143 $213 reversed $141 $-1 #
edge $-1 $228 -7.9126961826063358 $287 7.9126961826063358 $212 $288 forward 7 unknown #
coedge $-1 $145 $144 $285 $289 forward $57 $-1 #
edge $-1 $219 -60.31067842646565 $287 60.31067842646565 $211 $290 forward 7 unknown #
coedge $-1 $224 $223 $145 $217 reversed $208 $-1 #
edge $-1 $291 -60.31067842646565 $218 60.31067842646565 $216 $292 forward 7 unknown #
vertex $-1 $147 $293 #
vertex $-1 $230 $294 #
straight-curve $-1 60.31067842646565 0 -7.9126961826063358 0 -1 0 I I #
coedge $-1 $210 $212 $148 $222 reversed $141 $-1 #
edge $-1 $225 -25.756508365995966 $228 25.756508365995966 $221 $295 forward 7 unknown #
coedge $-1 $216 $149 $154 $231 forward $208 $-1 #
coedge $-1 $149 $216 $210 $286 reversed $208 $-1 #
vertex $-1 $150 $296 #
straight-curve $-1 0 25.756508365995966 7.9126961826063358 -1 0 0 I I #
coedge $-1 $151 $211 $153 $230 reversed $89 $-1 #
vertex $-1 $222 $297 #
straight-curve $-1 0 -25.756508365995966 7.9126961826063358 1 0 0 I I #
edge $-1 $156 -7.9126961826063358 $219 7.9126961826063358 $153 $298 forward 7 unknown #
edge $-1 $157 -7.9126961826063358 $218 7.9126961826063358 $154 $299 forward 7 unknown #
point $-1 60.31067842646565 -25.756508365995966 7.9126961826063358 #
point $-1 60.31067842646565 25.756508365995966 7.9126961826063358 #
plane-surface $-1 0 0 7.9126961826063358 0 0 1 1 0 0 forward_v I I I I #
coedge $-1 $245 $244 $237 $300 forward $160 $-1 #
coedge $-1 $237 $162 $164 $241 reversed $97 $-1 #
coedge $-1 $162 $236 $235 $300 reversed $97 $-1 #
coedge $-1 $170 $165 $162 $239 forward $171 $-1 #
edge $-1 $242 -21.498072129040082 $301 -14.664229879870852 $238 $302 forward 7 unknown #
coedge $-1 $164 $163 $245 $303 reversed $61 $-1 #
edge $-1 $304 -1.0612360036877491e-014 $242 10.213017127235354 $236 $305 forward 7 unknown #
vertex $-1 $166 $306 #
straight-curve $-1 -53.476836177296413 -3.6817530892492591 7.9126961826063358 0 1 0 I I #
coedge $-1 $235 $167 $170 $249 reversed $160 $-1 #
coedge $-1 $167 $235 $240 $303 forward $160 $-1 #
vertex $-1 $168 $307 #
straight-curve $-1 -60.31067842646565 -11.045132528448139 40.517192904432299 0 0 1 I I #
straight-curve $-1 -60.310678426465643 -11.045132528448139 0.32294526741337393 -0.66913059716165679 0 -0.74314483375859142 I I #
edge $-1 $301 3.6818798285488965 $172 11.045132528448139 $244 $308 forward 7 unknown #
point $-1 -60.31067842646565 -11.045132528448139 7.9126961826063358 #
point $-1 -53.47683617729642 -11.045132528448139 7.9126961826063367 #
edge $-1 $309 1 $309 0 $175 $-1 forward 7 unknown #
vertex $-1 $176 $310 #
ellipse-curve $-1 -55.704219811167171 -8.9413460427626426 3.0467563841843188 -0.74314483375859142 0 0.66913059716165679 0.3345652985808284 0 0.37157241687929571 1 I I #
point $-1 -56.559192003300211 -8.9413460427626426 4.48939314188915 #
edge $-1 $311 1 $311 0 $179 $-1 forward 7 unknown #
vertex $-1 $180 $312 #
ellipse-curve $-1 -55.704219811167171 -5.785666314234394 3.0467563841843188 -0.74314483375859142 0 0.66913059716165679 0.3345652985808284 0 0.37157241687929571 1 I I #
point $-1 -56.559192003300211 -5.785666314234394 4.48939314188915 #
plane-surface $-1 60.31067842646565 0 0 -1 0 0 0 0 1 forward_v I I I I #
coedge $-1 $191 $313 $265 $314 forward $184 $-1 #
coedge $-1 $263 $186 $313 $315 reversed $119 $-1 #
coedge $-1 $186 $262 $266 $316 forward $119 $-1 #
edge $-1 $267 -82.567409263349418 $317 -72.838133763102277 $186 $318 forward 7 unknown #
coedge $-1 $188 $187 $261 $314 reversed $75 $-1 #
coedge $-1 $194 $189 $263 $316 reversed $195 $-1 #
vertex $-1 $264 $319 #
straight-curve $-1 60.31067842646565 11.119236170017126 1.529717067511001 0 1 0 I I #
coedge $-1 $313 $191 $194 $273 forward $184 $-1 #
vertex $-1 $192 $320 #
straight-curve $-1 24.205658440715641 18.72043631407254 7.9126961826063393 1 0 0 I I #
straight-curve $-1 -30.723414333361156 18.72043631407254 80.664448282303439 -0.75470957328743171 0 0.6560590369687036 I I #
edge $-1 $196 18.72043631407254 $321 25.756508365995966 $194 $322 forward 7 unknown #
point $-1 60.31067842646565 18.72043631407254 7.9126961826063358 #
point $-1 60.31067842646565 18.72043631407254 1.529717067511001 #
edge $-1 $323 1 $323 0 $199 $-1 forward 7 unknown #
vertex $-1 $200 $324 #
ellipse-curve $-1 55.923955743879112 20.730742614622091 3.8983090061241596 0.6560590369687036 0 0.75470957328743171 0.37735478664371586 0 -0.3280295184843518 1 I I #
point $-1 57.016644532515663 20.730742614622091 4.3931771065743046 #
edge $-1 $325 1 $325 0 $203 $-1 forward 7 unknown #
vertex $-1 $204 $326 #
ellipse-curve $-1 55.923955743879112 23.746202065446415 3.8983090061241596 0.6560590369687036 0 0.75470957328743171 0.37735478664371586 0 -0.3280295184843518 1 I I #
point $-1 57.016644532515663 23.746202065446415 4.3931771065743046 #
plane-surface $-1 60.31067842646565 0 0 -1 0 0 0 0 1 forward_v I I I I #
coedge $-1 $212 $210 $214 $289 reversed $141 $-1 #
edge $-1 $225 -7.9126961826063358 $291 7.9126961826063358 $224 $327 forward 7 unknown #
vertex $-1 $289 $328 #
straight-curve $-1 -60.31067842646565 -25.756508365995966 0 0 0 -1 I I #
edge $-1 $287 -25.756508365995966 $291 25.756508365995966 $285 $329 forward 7 unknown #
straight-curve $-1 0 -25.756508365995966 -7.9126961826063358 -1 0 0 I I #
vertex $-1 $217 $330 #
straight-curve $-1 0 25.756508365995966 -7.9126961826063358 1 0 0 I I #
point $-1 60.31067842646565 25.756508365995966 -7.9126961826063358 #
point $-1 60.31067842646565 -25.756508365995966 -7.9126961826063358 #
straight-curve $-1 -60.31067842646565 0 7.9126961826063358 0 -1 0 I I #
point $-1 -60.31067842646565 25.756508365995966 7.9126961826063358 #
point $-1 -60.31067842646565 -25.756508365995966 7.9126961826063358 #
straight-curve $-1 60.31067842646565 -25.756508365995966 0 0 0 -1 I I #
straight-curve $-1 60.31067842646565 25.756508365995966 0 0 0 -1 I I #
edge $-1 $301 32.604496721825967 $304 40.194247637018933 $235 $331 forward 7 unknown #
vertex $-1 $249 $332 #
straight-curve $-1 -74.974908306336502 -3.6818798285488965 7.9126961826063322 -1 0 0 I I #
edge $-1 $304 0.00012673929963735731 $246 7.36337943919888 $245 $333 forward 7 unknown #
vertex $-1 $303 $334 #
straight-curve $-1 -60.310678426465643 -3.6818798285488965 0.32294526741337393 0.66913059716165679 0 0.74314483375859142 I I #
point $-1 -53.47683617729642 -3.6818798285488965 7.9126961826063367 #
point $-1 -60.31067842646565 -11.045132528448139 0.32294526741336604 #
straight-curve $-1 -60.31067842646565 0 7.9126961826063358 0 -1 0 I I #
vertex $-1 $252 $335 #
point $-1 -55.369654512586344 -8.9413460427626426 3.4183288010636148 #
vertex $-1 $256 $336 #
point $-1 -55.369654512586344 -5.785666314234394 3.4183288010636148 #
coedge $-1 $261 $269 $262 $315 forward $184 $-1 #
edge $-1 $317 -14.63727219597884 $270 -7.6012001440554133 $261 $337 forward 7 unknown #
edge $-1 $321 -60.31067842646565 $317 -52.967901065278262 $262 $338 forward 7 unknown #
edge $-1 $321 -7.9126961826063358 $267 -1.5297170675110014 $266 $339 forward 7 unknown #
vertex $-1 $264 $340 #
straight-curve $-1 -2.0037357861255281 25.756508365995966 55.69881207382484 -0.75470957328743171 0 0.6560590369687036 I I #
point $-1 60.31067842646565 25.756508365995966 1.5297170675110014 #
point $-1 52.967901065278262 18.72043631407254 7.9126961826063393 #
vertex $-1 $273 $341 #
straight-curve $-1 60.31067842646565 0 7.9126961826063358 0 1 0 I I #
vertex $-1 $276 $342 #
point $-1 56.301310530522827 20.730742614622091 3.5702794876398078 #
vertex $-1 $280 $343 #
point $-1 56.301310530522827 23.746202065446415 3.5702794876398078 #
straight-curve $-1 -60.31067842646565 25.756508365995966 0 0 0 -1 I I #
point $-1 -60.31067842646565 -25.756508365995966 -7.9126961826063358 #
straight-curve $-1 -60.31067842646565 0 -7.9126961826063358 0 1 0 I I #
point $-1 -60.31067842646565 25.756508365995966 -7.9126961826063358 #
straight-curve $-1 -60.31067842646565 -3.6818798285488965 40.517192904432299 0 0 -1 I I #
point $-1 -60.31067842646565 -3.6818798285488965 7.9126961826063358 #
straight-curve $-1 -60.31067842646565 -3.6817530892492591 0.32294526741336255 0 -1 0 I I #
point $-1 -60.31067842646565 -3.6818798285488965 0.32294526741336604 #
point $-1 -55.332647394287882 -8.9413460427626426 2.7121910856034908 #
point $-1 -55.332647394287882 -5.785666314234394 2.7121910856034908 #
straight-curve $-1 52.967901065278269 11.119236170017126 7.9126961826063393 0 -1 0 I I #
straight-curve $-1 0 25.756508365995966 7.9126961826063358 -1 0 0 I I #
straight-curve $-1 60.31067842646565 25.756508365995966 0 0 0 -1 I I #
point $-1 52.967901065278262 25.756508365995966 7.9126961826063393 #
point $-1 60.31067842646565 25.756508365995966 7.9126961826063358 #
point $-1 55.595926225394756 20.730742614622091 3.5209542194804428 #
point $-1 55.595926225394756 23.746202065446415 3.5209542194804428 #
End-of-ACIS-data 