500 0 7 0           
7 Unknown 11 ACIS 5.0 NT 24 Fri Mar 26 00:32:53 1999 
-1 9.9999999999999995e-007 1e-010 
body $-1 $7 $-1 $8 #
body $-1 $9 $-1 $10 #
body $-1 $11 $-1 $12 #
body $-1 $13 $-1 $14 #
body $-1 $15 $-1 $16 #
body $-1 $17 $-1 $18 #
body $-1 $19 $-1 $20 #
lump $-1 $-1 $21 $0 #
transform $-1 1 0 0 0 1 0 0 0 1 56.256599627674184 27.814971482526609 11.653986647825903 1 rotate no_reflect no_shear #
lump $-1 $-1 $22 $1 #
transform $-1 1 0 0 0 1 0 0 0 1 56.256599627674184 27.814971482526609 11.653986647825903 1 rotate no_reflect no_shear #
lump $-1 $-1 $23 $2 #
transform $-1 1 0 0 0 1 0 0 0 1 56.256599627674184 27.814971482526609 11.653986647825903 1 rotate no_reflect no_shear #
lump $-1 $-1 $24 $3 #
transform $-1 1 0 0 0 1 0 0 0 1 56.256599627674184 27.814971482526609 11.653986647825903 1 rotate no_reflect no_shear #
lump $-1 $-1 $25 $4 #
transform $-1 1 0 0 0 1 0 0 0 1 56.256599627674184 27.814971482526609 11.653986647825903 1 rotate no_reflect no_shear #
lump $-1 $-1 $26 $5 #
transform $-1 1 0 0 0 1 0 0 0 1 56.256599627674184 27.814971482526609 11.653986647825903 1 rotate no_reflect no_shear #
lump $-1 $-1 $27 $6 #
transform $-1 1 0 0 0 1 0 0 0 1 56.256599627674184 27.814971482526609 11.653986647825903 1 rotate no_reflect no_shear #
shell $-1 $-1 $-1 $28 $-1 $7 #
shell $-1 $-1 $-1 $29 $-1 $9 #
shell $-1 $-1 $-1 $30 $-1 $11 #
shell $-1 $-1 $-1 $31 $-1 $13 #
shell $-1 $-1 $-1 $32 $-1 $15 #
shell $-1 $-1 $-1 $33 $-1 $17 #
shell $-1 $-1 $-1 $34 $-1 $19 #
face $-1 $35 $36 $21 $-1 $37 forward single #
face $-1 $38 $39 $22 $-1 $40 forward single #
face $-1 $41 $42 $23 $-1 $43 reversed single #
face $-1 $44 $45 $24 $-1 $46 forward single #
face $-1 $47 $48 $25 $-1 $49 forward single #
face $-1 $50 $51 $26 $-1 $52 reversed single #
face $-1 $53 $54 $27 $-1 $55 forward single #
face $-1 $56 $57 $21 $-1 $58 reversed single #
loop $-1 $-1 $59 $28 #
plane-surface $-1 0 0 11.653986647825903 0 0 1 1 0 0 forward_v I I I I #
face $-1 $60 $61 $22 $-1 $62 reversed single #
loop $-1 $-1 $63 $29 #
plane-surface $-1 0 -27.814971482526609 0 0 1 0 0 0 1 forward_v I I I I #
face $-1 $64 $65 $23 $-1 $66 reversed single #
loop $-1 $-1 $67 $30 #
plane-surface $-1 50.703474011837123 16.458032445058855 164.82160336903752 0 -1 0 -0.68199836817093118 0 -0.7313536940579346 forward_v I I I I #
face $-1 $68 $69 $24 $-1 $70 forward single #
loop $-1 $71 $72 $31 #
cone-surface $-1 52.519220016519327 11.828854617651579 8.0850493574661186 -0.68199836817093118 0 -0.7313536940579346 0.3656768470289673 0 -0.34099918408546559 1 I I 0 1 0.5 forward I I I I #
face $-1 $73 $74 $25 $-1 $75 forward single #
loop $-1 $76 $77 $32 #
cone-surface $-1 52.519220016519327 14.606361314095942 8.0850493574661186 -0.68199836817093118 0 -0.7313536940579346 0.3656768470289673 0 -0.34099918408546559 1 I I 0 1 0.5 forward I I I I #
face $-1 $78 $79 $26 $-1 $80 reversed single #
loop $-1 $-1 $81 $33 #
plane-surface $-1 -152.69923580826742 13.148791293230666 59.962394227403792 0 1 0 -0.85716730853699208 0 0.51503806187062418 forward_v I I I I #
face $-1 $82 $83 $27 $-1 $84 forward single #
loop $-1 $85 $86 $34 #
cone-surface $-1 -52.008910012133924 17.074297587914288 6.0218434836890449 0.85716730853699208 0 -0.51503806187062418 0.51503806187062418 0 0.85716730853699208 1 I I 0 1 1 forward I I I I #
face $-1 $87 $88 $21 $-1 $89 reversed single #
loop $-1 $-1 $90 $35 #
plane-surface $-1 0 0 -11.653986647825903 0 0 1 1 0 0 forward_v I I I I #
coedge $-1 $91 $92 $93 $94 forward $36 $-1 #
face $-1 $95 $96 $22 $-1 $97 reversed single #
loop $-1 $-1 $98 $38 #
plane-surface $-1 0 0 -11.653986647825903 0 0 1 1 0 0 forward_v I I I I #
coedge $-1 $99 $100 $101 $102 forward $39 $-1 #
face $-1 $103 $104 $23 $-1 $105 reversed single #
loop $-1 $-1 $106 $41 #
plane-surface $-1 -26.030344278001287 13.217607965873761 82.534659463362033 0.68199836817093118 0 0.7313536940579346 0.7313536940579346 0 -0.68199836817093118 forward_v I I I I #
coedge $-1 $107 $108 $109 $110 reversed $42 $-1 #
face $-1 $-1 $111 $24 $-1 $112 forward single #
loop $-1 $113 $114 $44 #
cone-surface $-1 51.749705774494622 11.828854617651579 7.2598463807429994 -0.68199836817093118 0 -0.7313536940579346 0.18283842351448365 0 -0.17049959204273279 1 I I -0.70710678118654746 0.70710678118654746 0.25 forward I I I I #
loop $-1 $-1 $115 $31 #
coedge $-1 $72 $72 $116 $117 reversed $45 $-1 #
face $-1 $-1 $118 $25 $-1 $119 forward single #
loop $-1 $120 $121 $47 #
cone-surface $-1 51.749705774494622 14.606361314095942 7.2598463807429994 -0.68199836817093118 0 -0.7313536940579346 0.18283842351448365 0 -0.17049959204273279 1 I I -0.70710678118654746 0.70710678118654746 0.25 forward I I I I #
loop $-1 $-1 $122 $32 #
coedge $-1 $77 $77 $123 $124 reversed $48 $-1 #
face $-1 $125 $126 $26 $-1 $127 reversed single #
loop $-1 $-1 $128 $50 #
plane-surface $-1 -56.256599627674149 17.074297587914288 2.013814148065812 -0.85716730853699208 0 0.51503806187062418 0.51503806187062418 0 0.85716730853699208 forward_v I I I I #
coedge $-1 $129 $130 $131 $132 reversed $51 $-1 #
face $-1 $-1 $133 $27 $-1 $134 forward single #
loop $-1 $135 $136 $53 #
cone-surface $-1 -50.228836650397518 17.074297587914288 4.952267538496919 0.85716730853699208 0 -0.51503806187062418 0.25751903093531209 0 0.42858365426849604 1 I I -0.70710678118654746 0.70710678118654746 0.5 forward I I I I #
loop $-1 $-1 $137 $34 #
coedge $-1 $86 $86 $138 $139 reversed $54 $-1 #
face $-1 $140 $141 $21 $-1 $142 reversed single #
loop $-1 $-1 $143 $56 #
plane-surface $-1 0 -27.814971482526609 0 0 1 0 0 0 1 forward_v I I I I #
coedge $-1 $144 $145 $146 $147 forward $57 $-1 #
coedge $-1 $148 $59 $149 $150 forward $36 $-1 #
coedge $-1 $59 $148 $151 $152 forward $36 $-1 #
coedge $-1 $153 $154 $59 $94 reversed $155 $-1 #
edge $-1 $156 -27.814971482526609 $157 27.814971482526609 $93 $158 forward 7 unknown #
face $-1 $159 $160 $22 $-1 $161 forward single #
loop $-1 $-1 $162 $60 #
plane-surface $-1 56.256599627674184 0 0 -1 0 0 0 0 1 forward_v I I I I #
coedge $-1 $163 $164 $165 $166 forward $61 $-1 #
coedge $-1 $165 $63 $162 $167 reversed $39 $-1 #
coedge $-1 $63 $165 $168 $169 reversed $39 $-1 #
coedge $-1 $170 $171 $63 $102 reversed $160 $-1 #
edge $-1 $172 -56.256599627674184 $173 56.256599627674184 $101 $174 forward 7 unknown #
face $-1 $175 $176 $23 $-1 $177 reversed single #
loop $-1 $-1 $178 $64 #
plane-surface $-1 50.703474011837123 9.9771834866886664 164.82160336903752 0 1 0 0.68199836817093118 0 0.7313536940579346 forward_v I I I I #
coedge $-1 $179 $180 $181 $182 reversed $65 $-1 #
coedge $-1 $108 $67 $183 $184 reversed $42 $-1 #
coedge $-1 $67 $107 $179 $185 reversed $42 $-1 #
coedge $-1 $181 $186 $67 $110 forward $187 $-1 #
edge $-1 $188 -30.904862621755623 $189 -24.628132699409885 $109 $190 forward 7 unknown #
loop $-1 $-1 $116 $68 #
plane-surface $-1 -26.030344278001287 13.217607965873761 82.534659463362033 0.68199836817093118 0 0.7313536940579346 0.7313536940579346 0 -0.68199836817093118 forward_v I I I I #
loop $-1 $-1 $191 $44 #
coedge $-1 $114 $114 $115 $192 reversed $69 $-1 #
coedge $-1 $115 $115 $114 $192 forward $71 $-1 #
coedge $-1 $116 $116 $72 $117 forward $111 $-1 #
edge $-1 $193 0 $193 6.2831853071796004 $116 $194 forward 7 unknown #
loop $-1 $-1 $123 $73 #
plane-surface $-1 -26.030344278001287 13.217607965873761 82.534659463362033 0.68199836817093118 0 0.7313536940579346 0.7313536940579346 0 -0.68199836817093118 forward_v I I I I #
loop $-1 $-1 $195 $47 #
coedge $-1 $121 $121 $122 $196 reversed $74 $-1 #
coedge $-1 $122 $122 $121 $196 forward $76 $-1 #
coedge $-1 $123 $123 $77 $124 forward $118 $-1 #
edge $-1 $197 0 $197 6.2831853071796004 $123 $198 forward 7 unknown #
face $-1 $199 $200 $26 $-1 $201 forward single #
loop $-1 $-1 $202 $78 #
plane-surface $-1 -152.69923580826742 20.999803882597909 59.962394227403792 0 -1 0 0.85716730853699208 0 -0.51503806187062418 forward_v I I I I #
coedge $-1 $203 $204 $205 $206 reversed $79 $-1 #
coedge $-1 $130 $81 $207 $208 reversed $51 $-1 #
coedge $-1 $81 $129 $203 $209 reversed $51 $-1 #
coedge $-1 $205 $210 $81 $132 forward $200 $-1 #
edge $-1 $211 20.093018276459524 $212 25.885418092604269 $131 $213 forward 7 unknown #
loop $-1 $-1 $138 $82 #
plane-surface $-1 -56.256599627674149 17.074297587914288 2.013814148065812 -0.85716730853699208 0 0.51503806187062418 0.51503806187062418 0 0.85716730853699208 forward_v I I I I #
loop $-1 $-1 $214 $53 #
coedge $-1 $136 $136 $137 $215 reversed $83 $-1 #
coedge $-1 $137 $137 $136 $215 forward $85 $-1 #
coedge $-1 $138 $138 $86 $139 forward $133 $-1 #
edge $-1 $216 0 $216 6.2831853071796004 $138 $217 forward 7 unknown #
face $-1 $218 $219 $21 $-1 $220 reversed single #
loop $-1 $-1 $221 $87 #
plane-surface $-1 -56.256599627674184 0 0 1 0 0 0 0 -1 forward_v I I I I #
coedge $-1 $222 $151 $223 $224 forward $88 $-1 #
coedge $-1 $225 $90 $222 $226 forward $57 $-1 #
coedge $-1 $90 $225 $227 $228 forward $57 $-1 #
coedge $-1 $154 $153 $90 $147 reversed $155 $-1 #
edge $-1 $229 -27.814971482526609 $230 27.814971482526609 $146 $231 forward 7 unknown #
coedge $-1 $92 $91 $232 $233 forward $36 $-1 #
coedge $-1 $234 $235 $91 $150 reversed $219 $-1 #
edge $-1 $157 -56.256599627674184 $236 56.256599627674184 $149 $237 forward 7 unknown #
coedge $-1 $143 $238 $92 $152 reversed $88 $-1 #
edge $-1 $239 -56.256599627674184 $156 56.256599627674184 $151 $240 forward 7 unknown #
coedge $-1 $146 $93 $238 $241 forward $155 $-1 #
coedge $-1 $93 $146 $234 $242 reversed $155 $-1 #
loop $-1 $-1 $153 $218 #
vertex $-1 $94 $243 #
vertex $-1 $94 $244 #
straight-curve $-1 56.256599627674184 0 11.653986647825903 0 1 0 I I #
face $-1 $245 $246 $22 $-1 $247 reversed single #
loop $-1 $-1 $171 $95 #
plane-surface $-1 0 -32.320281012936377 -7.9511864222783863 0 0 1 1 0 0 forward_v I I I I #
coedge $-1 $248 $249 $99 $167 forward $96 $-1 #
coedge $-1 $250 $98 $249 $251 forward $61 $-1 #
coedge $-1 $98 $250 $252 $253 forward $61 $-1 #
coedge $-1 $100 $99 $98 $166 reversed $39 $-1 #
edge $-1 $254 -56.256599627674184 $255 56.256599627674184 $98 $256 forward 7 unknown #
edge $-1 $255 -11.653986647825903 $173 -7.9511864222783863 $162 $257 forward 7 unknown #
coedge $-1 $252 $258 $100 $169 forward $259 $-1 #
edge $-1 $172 7.9511864222783863 $254 11.653986647825903 $168 $260 forward 7 unknown #
coedge $-1 $261 $101 $258 $262 forward $160 $-1 #
coedge $-1 $101 $261 $248 $263 forward $160 $-1 #
vertex $-1 $169 $264 #
vertex $-1 $263 $265 #
straight-curve $-1 0 -27.814971482526609 -7.9511864222783863 1 0 0 I I #
face $-1 $-1 $187 $23 $-1 $266 forward single #
loop $-1 $-1 $267 $103 #
plane-surface $-1 56.256599627674184 0 0 -1 0 0 0 0 1 forward_v I I I I #
coedge $-1 $268 $269 $270 $271 reversed $104 $-1 #
coedge $-1 $272 $106 $108 $185 forward $65 $-1 #
coedge $-1 $106 $272 $268 $273 forward $65 $-1 #
coedge $-1 $270 $109 $106 $182 forward $187 $-1 #
edge $-1 $189 -9.8492284621219746 $274 -3.3683795037517861 $181 $275 forward 7 unknown #
coedge $-1 $276 $277 $107 $184 forward $176 $-1 #
edge $-1 $278 -76.609960510995137 $188 -70.756815036692856 $183 $279 forward 7 unknown #
edge $-1 $189 103.93085397789559 $278 112.51319925534835 $108 $280 forward 7 unknown #
coedge $-1 $109 $270 $276 $281 forward $187 $-1 #
loop $-1 $-1 $270 $175 #
vertex $-1 $184 $282 #
vertex $-1 $110 $283 #
straight-curve $-1 25.351737005918562 16.458032445058855 11.653986647825903 -1 0 0 I I #
coedge $-1 $191 $191 $-1 $284 reversed $113 $-1 #
edge $-1 $285 0 $285 6.2831853071796004 $114 $286 forward 7 unknown #
vertex $-1 $117 $287 #
ellipse-curve $-1 53.118234666501316 11.828854617651579 8.7274139106747661 0.68199836817093118 0 0.7313536940579346 0.3656768470289673 0 -0.34099918408546559 1 I I #
coedge $-1 $195 $195 $-1 $288 reversed $120 $-1 #
edge $-1 $289 0 $289 6.2831853071796004 $121 $290 forward 7 unknown #
vertex $-1 $124 $291 #
ellipse-curve $-1 53.118234666501316 14.606361314095942 8.7274139106747661 0.68199836817093118 0 0.7313536940579346 0.3656768470289673 0 -0.34099918408546559 1 I I #
face $-1 $-1 $292 $26 $-1 $293 reversed single #
loop $-1 $-1 $131 $125 #
plane-surface $-1 0 0 11.653986647825903 0 0 1 1 0 0 forward_v I I I I #
coedge $-1 $294 $295 $296 $297 reversed $126 $-1 #
coedge $-1 $298 $128 $130 $209 forward $79 $-1 #
coedge $-1 $128 $298 $294 $299 forward $79 $-1 #
coedge $-1 $296 $131 $128 $206 forward $200 $-1 #
edge $-1 $212 4.6116424992735219 $300 12.462655088640766 $205 $301 forward 7 unknown #
coedge $-1 $302 $303 $129 $208 forward $292 $-1 #
edge $-1 $304 -27.967382965636144 $211 -18.327210465875993 $207 $305 forward 7 unknown #
edge $-1 $212 -11.246547090338618 $304 6.8925441791853865e-014 $130 $306 forward 7 unknown #
coedge $-1 $131 $296 $302 $307 forward $200 $-1 #
vertex $-1 $208 $308 #
vertex $-1 $132 $309 #
straight-curve $-1 -76.349617904133709 13.148791293230666 11.653986647825903 1 0 0 I I #
coedge $-1 $214 $214 $-1 $310 reversed $135 $-1 #
edge $-1 $311 0 $311 6.2831853071796004 $136 $312 forward 7 unknown #
vertex $-1 $139 $313 #
ellipse-curve $-1 -53.360399719601801 17.074297587914288 6.8339003979458415 -0.85716730853699208 0 0.51503806187062418 0.51503806187062418 0 0.85716730853699208 1 I I #
face $-1 $-1 $155 $21 $-1 $314 reversed single #
loop $-1 $-1 $234 $140 #
plane-surface $-1 0 27.814971482526609 0 0 -1 0 0 0 -1 forward_v I I I I #
coedge $-1 $315 $232 $235 $316 forward $141 $-1 #
coedge $-1 $238 $143 $144 $226 reversed $88 $-1 #
coedge $-1 $232 $315 $143 $224 reversed $141 $-1 #
edge $-1 $239 -11.653986647825903 $317 11.653986647825903 $223 $318 forward 7 unknown #
coedge $-1 $145 $144 $315 $319 forward $57 $-1 #
edge $-1 $230 -56.256599627674184 $317 56.256599627674184 $222 $320 forward 7 unknown #
coedge $-1 $235 $234 $145 $228 reversed $219 $-1 #
edge $-1 $321 -56.256599627674184 $229 56.256599627674184 $227 $322 forward 7 unknown #
vertex $-1 $147 $323 #
vertex $-1 $241 $324 #
straight-curve $-1 56.256599627674184 0 -11.653986647825903 0 -1 0 I I #
coedge $-1 $221 $223 $148 $233 reversed $141 $-1 #
edge $-1 $236 -27.814971482526609 $239 27.814971482526609 $232 $325 forward 7 unknown #
coedge $-1 $227 $149 $154 $242 forward $219 $-1 #
coedge $-1 $149 $227 $221 $316 reversed $219 $-1 #
vertex $-1 $150 $326 #
straight-curve $-1 0 27.814971482526609 11.653986647825903 -1 0 0 I I #
coedge $-1 $151 $222 $153 $241 reversed $88 $-1 #
vertex $-1 $233 $327 #
straight-curve $-1 0 -27.814971482526609 11.653986647825903 1 0 0 I I #
edge $-1 $156 -11.653986647825903 $230 11.653986647825903 $153 $328 forward 7 unknown #
edge $-1 $157 -11.653986647825903 $229 11.653986647825903 $154 $329 forward 7 unknown #
point $-1 56.256599627674184 -27.814971482526609 11.653986647825903 #
point $-1 56.256599627674184 27.814971482526609 11.653986647825903 #
face $-1 $-1 $259 $22 $-1 $330 reversed single #
loop $-1 $-1 $331 $159 #
plane-surface $-1 0 -36.825590543346145 -9.8025865350521446 0 1 0 0 0 1 forward_v I I I I #
coedge $-1 $332 $162 $171 $263 reversed $96 $-1 #
coedge $-1 $162 $332 $163 $251 reversed $96 $-1 #
coedge $-1 $164 $163 $333 $334 forward $61 $-1 #
edge $-1 $255 27.814971482526609 $335 36.825590543346145 $249 $336 forward 7 unknown #
coedge $-1 $337 $168 $164 $253 reversed $259 $-1 #
edge $-1 $338 -36.825590543346145 $254 -27.814971482526609 $252 $339 forward 7 unknown #
vertex $-1 $169 $340 #
vertex $-1 $251 $341 #
straight-curve $-1 0 -27.814971482526609 -11.653986647825903 1 0 0 I I #
straight-curve $-1 56.256599627674184 -27.814971482526609 0 0 0 1 I I #
coedge $-1 $168 $337 $170 $262 reversed $259 $-1 #
loop $-1 $-1 $168 $245 #
straight-curve $-1 -56.256599627674184 -27.814971482526609 0 0 0 -1 I I #
coedge $-1 $171 $170 $342 $343 forward $160 $-1 #
edge $-1 $172 -4.5053095304097681 $344 4.5053095304097681 $258 $345 forward 7 unknown #
edge $-1 $346 -4.5053095304097681 $173 4.5053095304097681 $248 $347 forward 7 unknown #
point $-1 -56.256599627674184 -27.814971482526609 -7.9511864222783863 #
point $-1 56.256599627674184 -27.814971482526609 -7.9511864222783863 #
plane-surface $-1 0 0 11.653986647825903 0 0 1 1 0 0 forward_v I I I I #
coedge $-1 $277 $276 $269 $348 forward $176 $-1 #
coedge $-1 $269 $178 $180 $273 reversed $104 $-1 #
coedge $-1 $178 $268 $267 $348 reversed $104 $-1 #
coedge $-1 $186 $181 $178 $271 forward $187 $-1 #
edge $-1 $274 24.628132699409885 $349 30.904862621755623 $270 $350 forward 7 unknown #
coedge $-1 $180 $179 $277 $351 reversed $65 $-1 #
edge $-1 $352 -112.51319925534835 $274 -103.93085397789559 $268 $353 forward 7 unknown #
vertex $-1 $182 $354 #
straight-curve $-1 49.97986970532844 6.6088039829368803 11.653986647825903 0 -1 0 I I #
coedge $-1 $267 $183 $186 $281 reversed $176 $-1 #
coedge $-1 $183 $267 $272 $351 forward $176 $-1 #
vertex $-1 $184 $355 #
straight-curve $-1 56.256599627674184 16.458032445058855 82.410801684518759 0 0 1 I I #
straight-curve $-1 -26.030344278001287 16.458032445058855 82.534659463362033 0.7313536940579346 0 -0.68199836817093118 I I #
edge $-1 $349 9.9771834866886664 $188 16.458032445058855 $276 $356 forward 7 unknown #
point $-1 56.256599627674184 16.458032445058855 11.653986647825903 #
point $-1 49.979869705328447 16.458032445058855 11.653986647825903 #
edge $-1 $357 1 $357 0 $191 $-1 forward 7 unknown #
vertex $-1 $192 $358 #
ellipse-curve $-1 51.920205366537353 11.828854617651579 7.4426848042574827 0.68199836817093118 0 0.7313536940579346 0.3656768470289673 0 -0.34099918408546559 1 I I #
point $-1 53.483911513530273 11.828854617651579 8.3864147265892885 #
edge $-1 $359 1 $359 0 $195 $-1 forward 7 unknown #
vertex $-1 $196 $360 #
ellipse-curve $-1 51.920205366537353 14.606361314095942 7.4426848042574827 0.68199836817093118 0 0.7313536940579346 0.3656768470289673 0 -0.34099918408546559 1 I I #
point $-1 53.483911513530273 14.606361314095942 8.3864147265892885 #
loop $-1 $-1 $207 $199 #
plane-surface $-1 -56.256599627674184 0 0 1 0 0 0 0 -1 forward_v I I I I #
coedge $-1 $295 $202 $204 $299 reversed $126 $-1 #
coedge $-1 $202 $294 $361 $362 reversed $126 $-1 #
coedge $-1 $210 $205 $202 $297 forward $200 $-1 #
edge $-1 $300 -25.885418092604269 $363 -20.093018276459524 $296 $364 forward 7 unknown #
coedge $-1 $204 $203 $303 $365 reversed $79 $-1 #
edge $-1 $366 -6.8925441791853865e-014 $300 11.246547090338618 $294 $367 forward 7 unknown #
vertex $-1 $206 $368 #
straight-curve $-1 -50.464199811529433 8.5371487939571438 11.653986647825903 0 1 0 I I #
coedge $-1 $361 $207 $210 $307 reversed $292 $-1 #
coedge $-1 $207 $361 $298 $365 forward $292 $-1 #
vertex $-1 $208 $369 #
straight-curve $-1 -56.256599627674184 13.148791293230666 29.981197113701896 0 0 1 I I #
straight-curve $-1 -56.256599627674149 13.148791293230666 2.013814148065812 -0.51503806187062418 0 -0.85716730853699208 I I #
edge $-1 $363 -20.999803882597909 $211 -13.148791293230666 $302 $370 forward 7 unknown #
point $-1 -56.256599627674184 13.148791293230666 11.653986647825903 #
point $-1 -50.46419981152944 13.148791293230666 11.653986647825903 #
edge $-1 $371 1 $371 0 $214 $-1 forward 7 unknown #
vertex $-1 $215 $372 #
ellipse-curve $-1 -50.657420304666012 17.074297587914288 5.2097865694322314 -0.85716730853699208 0 0.51503806187062418 0.51503806187062418 0 0.85716730853699208 1 I I #
point $-1 -52.845361657731203 17.074297587914288 7.6910677064828503 #
plane-surface $-1 56.256599627674184 0 0 -1 0 0 0 0 1 forward_v I I I I #
coedge $-1 $223 $221 $225 $319 reversed $141 $-1 #
edge $-1 $236 -11.653986647825903 $321 11.653986647825903 $235 $373 forward 7 unknown #
vertex $-1 $319 $374 #
straight-curve $-1 -56.256599627674184 -27.814971482526609 0 0 0 -1 I I #
edge $-1 $317 -27.814971482526609 $321 27.814971482526609 $315 $375 forward 7 unknown #
straight-curve $-1 0 -27.814971482526609 -11.653986647825903 -1 0 0 I I #
vertex $-1 $228 $376 #
straight-curve $-1 0 27.814971482526609 -11.653986647825903 1 0 0 I I #
point $-1 56.256599627674184 27.814971482526609 -11.653986647825903 #
point $-1 56.256599627674184 -27.814971482526609 -11.653986647825903 #
straight-curve $-1 -56.256599627674184 0 11.653986647825903 0 -1 0 I I #
point $-1 -56.256599627674184 27.814971482526609 11.653986647825903 #
point $-1 -56.256599627674184 -27.814971482526609 11.653986647825903 #
straight-curve $-1 56.256599627674184 -27.814971482526609 0 0 0 -1 I I #
straight-curve $-1 56.256599627674184 27.814971482526609 0 0 0 -1 I I #
plane-surface $-1 -56.256599627674184 0 0 1 0 0 0 0 -1 forward_v I I I I #
coedge $-1 $333 $342 $337 $377 forward $246 $-1 #
coedge $-1 $249 $248 $378 $379 forward $96 $-1 #
coedge $-1 $378 $331 $250 $334 reversed $246 $-1 #
edge $-1 $335 -56.256599627674184 $338 56.256599627674184 $333 $380 forward 7 unknown #
vertex $-1 $379 $381 #
straight-curve $-1 56.256599627674184 0 -11.653986647825903 0 -1 0 I I #
coedge $-1 $258 $252 $331 $377 reversed $259 $-1 #
vertex $-1 $253 $382 #
straight-curve $-1 -56.256599627674184 0 -11.653986647825903 0 1 0 I I #
point $-1 -56.256599627674184 -27.814971482526609 -11.653986647825903 #
point $-1 56.256599627674184 -27.814971482526609 -11.653986647825903 #
coedge $-1 $331 $378 $261 $343 reversed $246 $-1 #
edge $-1 $344 -56.256599627674184 $346 56.256599627674184 $342 $383 forward 7 unknown #
vertex $-1 $262 $384 #
straight-curve $-1 -56.256599627674184 -32.320281012936377 -7.9511864222783863 0 -1 0 I I #
vertex $-1 $263 $385 #
straight-curve $-1 56.256599627674184 -32.320281012936377 -7.9511864222783863 0 1 0 I I #
edge $-1 $349 70.756815036692856 $352 76.609960510995137 $267 $386 forward 7 unknown #
vertex $-1 $281 $387 #
straight-curve $-1 25.351737005918562 9.9771834866886664 11.653986647825903 1 0 0 I I #
edge $-1 $352 3.3683795037517861 $278 9.8492284621219746 $277 $388 forward 7 unknown #
vertex $-1 $351 $389 #
straight-curve $-1 -26.030344278001287 9.9771834866886664 82.534659463362033 -0.7313536940579346 0 0.68199836817093118 I I #
point $-1 49.979869705328447 9.9771834866886664 11.653986647825903 #
point $-1 56.256599627674184 16.458032445058855 5.8008411735236223 #
straight-curve $-1 56.256599627674184 0 11.653986647825903 0 1 0 I I #
vertex $-1 $284 $390 #
point $-1 52.285882213566325 11.828854617651579 7.1016856201720175 #
vertex $-1 $288 $391 #
point $-1 52.285882213566325 14.606361314095942 7.1016856201720175 #
coedge $-1 $303 $302 $295 $362 forward $292 $-1 #
edge $-1 $363 18.327210465875993 $366 27.967382965636144 $361 $392 forward 7 unknown #
vertex $-1 $307 $393 #
straight-curve $-1 -76.349617904133709 20.999803882597909 11.653986647825903 -1 0 0 I I #
edge $-1 $366 -12.462655088640766 $304 -4.6116424992735219 $303 $394 forward 7 unknown #
vertex $-1 $365 $395 #
straight-curve $-1 -56.256599627674149 20.999803882597909 2.013814148065812 0.51503806187062418 0 0.85716730853699208 I I #
point $-1 -50.46419981152944 20.999803882597909 11.653986647825903 #
point $-1 -56.256599627674184 13.148791293230666 2.013814148065753 #
straight-curve $-1 -56.256599627674184 0 11.653986647825903 0 -1 0 I I #
vertex $-1 $310 $396 #
point $-1 -50.142382242795392 17.074297587914288 6.0669538779692234 #
straight-curve $-1 -56.256599627674184 27.814971482526609 0 0 0 -1 I I #
point $-1 -56.256599627674184 -27.814971482526609 -11.653986647825903 #
straight-curve $-1 -56.256599627674184 0 -11.653986647825903 0 1 0 I I #
point $-1 -56.256599627674184 27.814971482526609 -11.653986647825903 #
edge $-1 $344 -1.8514001127737583 $338 1.8514001127737583 $337 $397 forward 7 unknown #
coedge $-1 $342 $333 $332 $379 reversed $246 $-1 #
edge $-1 $346 -1.8514001127737583 $335 1.8514001127737583 $332 $398 forward 7 unknown #
straight-curve $-1 0 -36.825590543346145 -11.653986647825903 -1 0 0 I I #
point $-1 56.256599627674184 -36.825590543346145 -11.653986647825903 #
point $-1 -56.256599627674184 -36.825590543346145 -11.653986647825903 #
straight-curve $-1 0 -36.825590543346145 -7.9511864222783863 1 0 0 I I #
point $-1 -56.256599627674184 -36.825590543346145 -7.9511864222783863 #
point $-1 56.256599627674184 -36.825590543346145 -7.9511864222783863 #
straight-curve $-1 56.256599627674184 9.9771834866886664 82.410801684518759 0 0 -1 I I #
point $-1 56.256599627674184 9.9771834866886664 11.653986647825903 #
straight-curve $-1 56.256599627674177 6.6088039829368803 5.8008411735236365 0 1 0 I I #
point $-1 56.256599627674184 9.9771834866886664 5.8008411735236223 #
point $-1 51.579206182451891 11.828854617651579 7.0770079572285161 #
point $-1 51.579206182451891 14.606361314095942 7.0770079572285161 #
straight-curve $-1 -56.256599627674184 20.999803882597909 29.981197113701896 0 0 -1 I I #
point $-1 -56.256599627674184 20.999803882597909 11.653986647825903 #
straight-curve $-1 -56.256599627674184 8.5371487939571438 2.0138141480657445 0 -1 0 I I #
point $-1 -56.256599627674184 20.999803882597909 2.013814148065753 #
point $-1 -49.800252996129025 17.074297587914288 4.6947485075616067 #
straight-curve $-1 -56.256599627674184 -36.825590543346145 -9.8025865350521446 0 0 -1 I I #
straight-curve $-1 56.256599627674184 -36.825590543346145 -9.8025865350521446 0 0 -1 I I #
End-of-ACIS-data 