500 0 5 0           
7 Unknown 11 ACIS 5.0 NT 24 Fri Mar 26 02:41:43 1999 
-1 9.9999999999999995e-007 1e-010 
body $-1 $5 $-1 $6 #
body $-1 $7 $-1 $8 #
body $-1 $9 $-1 $10 #
body $-1 $11 $-1 $12 #
body $-1 $13 $-1 $14 #
lump $-1 $-1 $15 $0 #
transform $-1 1 0 0 0 1 0 0 0 1 67.854853968932161 34.787649352662569 13.353013121987921 1 rotate no_reflect no_shear #
lump $-1 $-1 $16 $1 #
transform $-1 1 0 0 0 1 0 0 0 1 67.854853968932161 34.787649352662569 13.353013121987921 1 rotate no_reflect no_shear #
lump $-1 $-1 $17 $2 #
transform $-1 1 0 0 0 1 0 0 0 1 67.854853968932161 34.787649352662569 13.353013121987921 1 rotate no_reflect no_shear #
lump $-1 $-1 $18 $3 #
transform $-1 1 0 0 0 1 0 0 0 1 67.854853968932161 34.787649352662569 13.353013121987921 1 rotate no_reflect no_shear #
lump $-1 $-1 $19 $4 #
transform $-1 1 0 0 0 1 0 0 0 1 67.854853968932161 34.787649352662569 13.353013121987921 1 rotate no_reflect no_shear #
shell $-1 $-1 $-1 $20 $-1 $5 #
shell $-1 $-1 $-1 $21 $-1 $7 #
shell $-1 $-1 $-1 $22 $-1 $9 #
shell $-1 $-1 $-1 $23 $-1 $11 #
shell $-1 $-1 $-1 $24 $-1 $13 #
face $-1 $25 $26 $15 $-1 $27 reversed single #
face $-1 $28 $29 $16 $-1 $30 forward single #
face $-1 $31 $32 $17 $-1 $33 forward single #
face $-1 $34 $35 $18 $-1 $36 reversed single #
face $-1 $37 $38 $19 $-1 $39 forward single #
face $-1 $40 $41 $15 $-1 $42 forward single #
loop $-1 $-1 $43 $20 #
plane-surface $-1 0 -34.787649352662569 0 0 1 0 0 0 1 forward_v I I I I #
face $-1 $44 $45 $16 $-1 $46 forward single #
loop $-1 $-1 $47 $21 #
plane-surface $-1 0 -34.787649352662569 0 0 1 0 0 0 1 forward_v I I I I #
face $-1 $48 $49 $17 $-1 $50 forward single #
loop $-1 $-1 $51 $22 #
plane-surface $-1 0 34.787649352662569 0 0 -1 0 0 0 -1 forward_v I I I I #
face $-1 $52 $53 $18 $-1 $54 reversed single #
loop $-1 $-1 $55 $23 #
plane-surface $-1 -168.70682231384333 9.857486955090323 97.462552410867232 0 1 0 -0.74314483375859142 0 0.66913059716165679 forward_v I I I I #
face $-1 $56 $57 $19 $-1 $58 forward single #
loop $-1 $59 $60 $24 #
cone-surface $-1 -62.474623735391219 14.019929723270167 7.874760275364121 0.74314483375859142 0 -0.66913059716165679 1.3382611943233136 0 1.4862896675171828 1 I I 0 1 2 forward I I I I #
face $-1 $61 $62 $15 $-1 $63 reversed single #
loop $-1 $-1 $64 $25 #
plane-surface $-1 0 0 13.353013121987921 0 0 1 1 0 0 forward_v I I I I #
coedge $-1 $65 $66 $67 $68 reversed $26 $-1 #
face $-1 $69 $70 $16 $-1 $71 reversed single #
loop $-1 $-1 $72 $28 #
plane-surface $-1 0 0 13.353013121987921 0 0 1 1 0 0 forward_v I I I I #
coedge $-1 $73 $74 $75 $76 forward $29 $-1 #
face $-1 $77 $78 $17 $-1 $79 reversed single #
loop $-1 $-1 $80 $31 #
plane-surface $-1 0 0 13.353013121987921 0 0 1 1 0 0 forward_v I I I I #
coedge $-1 $81 $82 $83 $84 forward $32 $-1 #
face $-1 $85 $86 $18 $-1 $87 reversed single #
loop $-1 $-1 $88 $34 #
plane-surface $-1 -67.854853968932161 14.019929723270167 6.6550344977700462 -0.74314483375859142 0 0.66913059716165679 0.66913059716165679 0 0.74314483375859142 forward_v I I I I #
coedge $-1 $89 $90 $91 $92 reversed $35 $-1 #
face $-1 $-1 $93 $19 $-1 $94 forward single #
loop $-1 $95 $96 $37 #
cone-surface $-1 -59.366692113975091 14.019929723270167 5.0763661436875935 0.74314483375859142 0 -0.66913059716165679 0.66913059716165679 0 0.74314483375859142 1 I I -0.70710678118654746 0.70710678118654746 1 forward I I I I #
loop $-1 $-1 $97 $24 #
coedge $-1 $60 $60 $98 $99 reversed $38 $-1 #
face $-1 $100 $101 $15 $-1 $102 reversed single #
loop $-1 $-1 $103 $40 #
plane-surface $-1 0 0 -13.353013121987921 0 0 1 1 0 0 forward_v I I I I #
coedge $-1 $104 $105 $106 $107 forward $41 $-1 #
coedge $-1 $108 $43 $109 $110 reversed $26 $-1 #
coedge $-1 $43 $108 $111 $112 forward $26 $-1 #
coedge $-1 $113 $103 $43 $68 forward $62 $-1 #
edge $-1 $114 -67.854853968932161 $115 67.854853968932161 $43 $116 forward 7 unknown #
face $-1 $117 $118 $16 $-1 $119 reversed single #
loop $-1 $-1 $120 $44 #
plane-surface $-1 -67.854853968932161 0 0 1 0 0 0 0 -1 forward_v I I I I #
coedge $-1 $121 $122 $74 $123 forward $45 $-1 #
coedge $-1 $124 $47 $125 $126 reversed $29 $-1 #
coedge $-1 $47 $124 $72 $123 reversed $29 $-1 #
coedge $-1 $127 $128 $47 $76 reversed $129 $-1 #
edge $-1 $130 -13.353013121987921 $131 13.353013121987921 $75 $132 forward 7 unknown #
face $-1 $133 $134 $17 $-1 $135 reversed single #
loop $-1 $-1 $136 $48 #
plane-surface $-1 -66.015783778856189 51.392926213875128 0 0 -1 0 0 0 -1 forward_v I I I I #
coedge $-1 $137 $138 $81 $139 forward $49 $-1 #
coedge $-1 $140 $51 $80 $139 reversed $32 $-1 #
coedge $-1 $51 $140 $141 $142 reversed $32 $-1 #
coedge $-1 $143 $144 $51 $84 reversed $134 $-1 #
edge $-1 $145 -13.353013121987921 $146 13.353013121987921 $83 $147 forward 7 unknown #
face $-1 $148 $149 $18 $-1 $150 reversed single #
loop $-1 $-1 $151 $52 #
plane-surface $-1 -168.70682231384333 18.18237249145001 97.462552410867232 0 -1 0 0.74314483375859142 0 -0.66913059716165679 forward_v I I I I #
coedge $-1 $152 $153 $154 $155 reversed $53 $-1 #
coedge $-1 $90 $55 $156 $157 reversed $35 $-1 #
coedge $-1 $55 $89 $152 $158 reversed $35 $-1 #
coedge $-1 $154 $159 $55 $92 forward $160 $-1 #
edge $-1 $161 16.498557187989505 $162 22.529444079756324 $91 $163 forward 7 unknown #
loop $-1 $-1 $98 $56 #
plane-surface $-1 -67.854853968932161 14.019929723270167 6.6550344977700462 -0.74314483375859142 0 0.66913059716165679 0.66913059716165679 0 0.74314483375859142 forward_v I I I I #
loop $-1 $-1 $164 $37 #
coedge $-1 $96 $96 $97 $165 reversed $57 $-1 #
coedge $-1 $97 $97 $96 $165 forward $59 $-1 #
coedge $-1 $98 $98 $60 $99 forward $93 $-1 #
edge $-1 $166 0 $166 6.2831853071796004 $98 $167 forward 7 unknown #
face $-1 $168 $169 $15 $-1 $170 reversed single #
loop $-1 $-1 $171 $61 #
plane-surface $-1 -67.854853968932161 0 0 1 0 0 0 0 -1 forward_v I I I I #
coedge $-1 $67 $172 $173 $174 forward $62 $-1 #
coedge $-1 $175 $64 $176 $177 forward $41 $-1 #
coedge $-1 $64 $175 $108 $178 forward $41 $-1 #
coedge $-1 $109 $179 $64 $107 reversed $180 $-1 #
edge $-1 $181 -34.787649352662569 $182 34.787649352662569 $106 $183 forward 7 unknown #
coedge $-1 $66 $65 $105 $178 reversed $26 $-1 #
coedge $-1 $173 $106 $65 $110 forward $180 $-1 #
edge $-1 $181 -13.353013121987921 $114 13.353013121987921 $109 $184 forward 7 unknown #
coedge $-1 $185 $186 $66 $112 reversed $101 $-1 #
edge $-1 $187 -13.353013121987921 $115 13.353013121987921 $111 $188 forward 7 unknown #
coedge $-1 $172 $67 $186 $189 forward $62 $-1 #
vertex $-1 $110 $190 #
vertex $-1 $189 $191 #
straight-curve $-1 0 -34.787649352662569 -13.353013121987921 -1 0 0 I I #
face $-1 $192 $129 $16 $-1 $193 reversed single #
loop $-1 $-1 $194 $69 #
plane-surface $-1 -66.015783778856189 -51.392926213875128 0 0 1 0 0 0 1 forward_v I I I I #
coedge $-1 $195 $196 $124 $197 forward $70 $-1 #
coedge $-1 $198 $72 $196 $199 forward $45 $-1 #
coedge $-1 $72 $198 $127 $200 forward $45 $-1 #
edge $-1 $130 64.176713588780217 $201 67.854853968932161 $72 $202 forward 7 unknown #
coedge $-1 $74 $73 $120 $197 reversed $29 $-1 #
coedge $-1 $203 $204 $73 $126 forward $205 $-1 #
edge $-1 $206 -67.854853968932161 $131 -64.176713588780217 $125 $207 forward 7 unknown #
coedge $-1 $208 $75 $122 $200 reversed $129 $-1 #
coedge $-1 $75 $208 $203 $209 reversed $129 $-1 #
loop $-1 $-1 $208 $117 #
vertex $-1 $123 $210 #
vertex $-1 $209 $211 #
straight-curve $-1 -64.176713588780217 -34.787649352662569 0 0 0 -1 I I #
face $-1 $212 $213 $17 $-1 $214 reversed single #
loop $-1 $-1 $83 $77 #
plane-surface $-1 -64.176713588780217 43.090287783268849 0 -1 0 0 0 0 1 forward_v I I I I #
coedge $-1 $215 $216 $217 $218 forward $78 $-1 #
coedge $-1 $219 $80 $144 $220 forward $49 $-1 #
coedge $-1 $80 $219 $221 $222 forward $49 $-1 #
edge $-1 $223 -67.854853968932161 $146 -64.176713588780217 $80 $224 forward 7 unknown #
coedge $-1 $82 $81 $225 $226 reversed $32 $-1 #
coedge $-1 $227 $228 $82 $142 forward $213 $-1 #
edge $-1 $145 64.176713588780217 $229 67.854853968932161 $141 $230 forward 7 unknown #
coedge $-1 $217 $83 $228 $231 reversed $134 $-1 #
coedge $-1 $83 $217 $137 $220 reversed $134 $-1 #
vertex $-1 $142 $232 #
vertex $-1 $220 $233 #
straight-curve $-1 -64.176713588780217 34.787649352662569 0 0 0 1 I I #
face $-1 $-1 $160 $18 $-1 $234 forward single #
loop $-1 $-1 $235 $85 #
plane-surface $-1 -67.854853968932161 0 0 1 0 0 0 0 -1 forward_v I I I I #
coedge $-1 $236 $237 $238 $239 reversed $86 $-1 #
coedge $-1 $240 $88 $90 $158 forward $53 $-1 #
coedge $-1 $88 $240 $236 $241 forward $53 $-1 #
coedge $-1 $238 $91 $88 $155 forward $160 $-1 #
edge $-1 $162 2.8475220934552397 $242 11.172407629814927 $154 $243 forward 7 unknown #
coedge $-1 $244 $245 $89 $157 forward $149 $-1 #
edge $-1 $246 -42.07624170766357 $161 -35.378263083445695 $156 $247 forward 7 unknown #
edge $-1 $162 -9.0130191585153305 $246 0 $90 $248 forward 7 unknown #
coedge $-1 $91 $238 $244 $249 forward $160 $-1 #
loop $-1 $-1 $238 $148 #
vertex $-1 $157 $250 #
vertex $-1 $92 $251 #
straight-curve $-1 -84.353411156921666 9.857486955090323 13.353013121987921 1 0 0 I I #
coedge $-1 $164 $164 $-1 $252 reversed $95 $-1 #
edge $-1 $253 0 $253 6.2831853071796004 $96 $254 forward 7 unknown #
vertex $-1 $99 $255 #
ellipse-curve $-1 -64.839410523048755 14.019929723270167 10.004023809878985 -0.74314483375859142 0 0.66913059716165679 1.3382611943233136 0 1.4862896675171828 1 I I #
face $-1 $-1 $180 $15 $-1 $256 reversed single #
loop $-1 $-1 $176 $100 #
plane-surface $-1 0 34.787649352662569 0 0 -1 0 0 0 -1 forward_v I I I I #
coedge $-1 $186 $185 $257 $258 forward $101 $-1 #
coedge $-1 $103 $113 $259 $260 forward $62 $-1 #
coedge $-1 $179 $109 $103 $174 reversed $180 $-1 #
edge $-1 $261 -34.787649352662569 $114 34.787649352662569 $173 $262 forward 7 unknown #
coedge $-1 $105 $104 $185 $263 forward $41 $-1 #
coedge $-1 $264 $257 $104 $177 reversed $169 $-1 #
edge $-1 $182 -67.854853968932161 $265 67.854853968932161 $176 $266 forward 7 unknown #
edge $-1 $187 -67.854853968932161 $181 67.854853968932161 $108 $267 forward 7 unknown #
coedge $-1 $106 $173 $264 $268 reversed $180 $-1 #
loop $-1 $-1 $109 $168 #
vertex $-1 $107 $269 #
vertex $-1 $107 $270 #
straight-curve $-1 67.854853968932161 0 13.353013121987921 0 1 0 I I #
straight-curve $-1 67.854853968932161 -34.787649352662569 0 0 0 -1 I I #
coedge $-1 $171 $111 $175 $263 reversed $101 $-1 #
coedge $-1 $111 $171 $113 $189 reversed $101 $-1 #
vertex $-1 $263 $271 #
straight-curve $-1 -67.854853968932161 -34.787649352662569 0 0 0 -1 I I #
edge $-1 $115 -34.787649352662569 $272 34.787649352662569 $186 $273 forward 7 unknown #
point $-1 67.854853968932161 -34.787649352662569 -13.353013121987921 #
point $-1 -67.854853968932161 -34.787649352662569 -13.353013121987921 #
face $-1 $-1 $205 $16 $-1 $274 reversed single #
plane-surface $-1 -64.176713588780217 -43.090287783268849 0 -1 0 0 0 0 1 forward_v I I I I #
coedge $-1 $275 $276 $277 $278 forward $118 $-1 #
coedge $-1 $277 $120 $204 $279 reversed $70 $-1 #
coedge $-1 $120 $277 $121 $199 reversed $70 $-1 #
edge $-1 $201 -13.353013121987921 $206 13.353013121987921 $120 $280 forward 7 unknown #
coedge $-1 $122 $121 $276 $281 forward $45 $-1 #
edge $-1 $201 34.787649352662569 $282 51.392926213875128 $196 $283 forward 7 unknown #
edge $-1 $284 -8.3026384306062795 $130 8.3026384306062795 $127 $285 forward 7 unknown #
vertex $-1 $199 $286 #
straight-curve $-1 0 -34.787649352662569 13.353013121987921 -1 0 0 I I #
coedge $-1 $287 $125 $128 $209 forward $205 $-1 #
coedge $-1 $125 $287 $195 $279 forward $205 $-1 #
loop $-1 $-1 $125 $192 #
vertex $-1 $197 $288 #
straight-curve $-1 0 -34.787649352662569 -13.353013121987921 1 0 0 I I #
coedge $-1 $128 $127 $289 $290 forward $129 $-1 #
edge $-1 $131 -8.3026384306062795 $291 8.3026384306062795 $128 $292 forward 7 unknown #
point $-1 -64.176713588780217 -34.787649352662569 13.353013121987921 #
point $-1 -64.176713588780217 -34.787649352662569 -13.353013121987921 #
face $-1 $-1 $293 $17 $-1 $294 reversed single #
loop $-1 $-1 $141 $133 #
plane-surface $-1 0 0 -13.353013121987921 0 0 1 1 0 0 forward_v I I I I #
coedge $-1 $295 $136 $296 $297 reversed $78 $-1 #
coedge $-1 $136 $295 $219 $298 reversed $78 $-1 #
coedge $-1 $144 $143 $136 $218 reversed $134 $-1 #
edge $-1 $299 -13.353013121987921 $300 13.353013121987921 $217 $301 forward 7 unknown #
coedge $-1 $138 $137 $216 $298 forward $49 $-1 #
edge $-1 $146 -8.3026384306062795 $299 8.3026384306062795 $144 $302 forward 7 unknown #
coedge $-1 $303 $225 $138 $222 reversed $293 $-1 #
edge $-1 $304 -51.392926213875128 $223 -34.787649352662569 $221 $305 forward 7 unknown #
vertex $-1 $226 $306 #
straight-curve $-1 0 34.787649352662569 13.353013121987921 1 0 0 I I #
coedge $-1 $221 $307 $140 $226 forward $293 $-1 #
edge $-1 $229 -13.353013121987921 $223 13.353013121987921 $225 $308 forward 7 unknown #
coedge $-1 $296 $141 $307 $309 forward $213 $-1 #
coedge $-1 $141 $296 $143 $231 forward $213 $-1 #
vertex $-1 $309 $310 #
straight-curve $-1 0 34.787649352662569 -13.353013121987921 -1 0 0 I I #
edge $-1 $300 -8.3026384306062795 $145 8.3026384306062795 $143 $311 forward 7 unknown #
point $-1 -64.176713588780217 34.787649352662569 -13.353013121987921 #
point $-1 -64.176713588780217 34.787649352662569 13.353013121987921 #
plane-surface $-1 0 0 13.353013121987921 0 0 1 1 0 0 forward_v I I I I #
coedge $-1 $245 $244 $237 $312 forward $149 $-1 #
coedge $-1 $237 $151 $153 $241 reversed $86 $-1 #
coedge $-1 $151 $236 $235 $312 reversed $86 $-1 #
coedge $-1 $159 $154 $151 $239 forward $160 $-1 #
edge $-1 $242 -22.529444079756324 $313 -16.498557187989505 $238 $314 forward 7 unknown #
coedge $-1 $153 $152 $245 $315 reversed $53 $-1 #
edge $-1 $316 0 $242 9.0130191585153305 $236 $317 forward 7 unknown #
vertex $-1 $155 $318 #
straight-curve $-1 -61.823967077165342 7.0099648616350834 13.353013121987921 0 1 0 I I #
coedge $-1 $235 $156 $159 $249 reversed $149 $-1 #
coedge $-1 $156 $235 $240 $315 forward $149 $-1 #
vertex $-1 $157 $319 #
straight-curve $-1 -67.854853968932161 9.857486955090323 48.731276205433616 0 0 1 I I #
straight-curve $-1 -67.854853968932161 9.857486955090323 6.6550344977700462 -0.66913059716165679 0 -0.74314483375859142 I I #
edge $-1 $313 -18.18237249145001 $161 -9.857486955090323 $244 $320 forward 7 unknown #
point $-1 -67.854853968932161 9.857486955090323 13.353013121987921 #
point $-1 -61.823967077165342 9.857486955090323 13.353013121987921 #
edge $-1 $321 1 $321 0 $164 $-1 forward 7 unknown #
vertex $-1 $165 $322 #
ellipse-curve $-1 -60.109836947733683 14.019929723270167 5.7454967408492505 -0.74314483375859142 0 0.66913059716165679 1.3382611943233136 0 1.4862896675171828 1 I I #
point $-1 -63.501149328725447 14.019929723270167 11.490313477396175 #
plane-surface $-1 67.854853968932161 0 0 -1 0 0 0 0 1 forward_v I I I I #
coedge $-1 $176 $259 $171 $258 reversed $169 $-1 #
edge $-1 $265 -13.353013121987921 $272 13.353013121987921 $257 $323 forward 7 unknown #
coedge $-1 $257 $264 $172 $260 reversed $169 $-1 #
edge $-1 $272 -67.854853968932161 $261 67.854853968932161 $259 $324 forward 7 unknown #
vertex $-1 $174 $325 #
straight-curve $-1 67.854853968932161 0 -13.353013121987921 0 -1 0 I I #
edge $-1 $265 -34.787649352662569 $187 34.787649352662569 $185 $326 forward 7 unknown #
coedge $-1 $259 $176 $179 $268 forward $169 $-1 #
vertex $-1 $177 $327 #
straight-curve $-1 0 34.787649352662569 13.353013121987921 -1 0 0 I I #
straight-curve $-1 0 -34.787649352662569 13.353013121987921 1 0 0 I I #
edge $-1 $182 -13.353013121987921 $261 13.353013121987921 $179 $328 forward 7 unknown #
point $-1 67.854853968932161 -34.787649352662569 13.353013121987921 #
point $-1 67.854853968932161 34.787649352662569 13.353013121987921 #
point $-1 -67.854853968932161 -34.787649352662569 13.353013121987921 #
vertex $-1 $260 $329 #
straight-curve $-1 -67.854853968932161 0 -13.353013121987921 0 1 0 I I #
plane-surface $-1 0 0 -13.353013121987921 0 0 1 1 0 0 forward_v I I I I #
coedge $-1 $289 $194 $287 $330 reversed $118 $-1 #
coedge $-1 $194 $289 $198 $281 reversed $118 $-1 #
coedge $-1 $196 $195 $194 $278 reversed $70 $-1 #
edge $-1 $282 -13.353013121987921 $331 13.353013121987921 $277 $332 forward 7 unknown #
edge $-1 $331 -51.392926213875128 $206 -34.787649352662569 $195 $333 forward 7 unknown #
straight-curve $-1 -67.854853968932161 -34.787649352662569 0 0 0 -1 I I #
edge $-1 $282 -1.8390701900759723 $284 1.8390701900759723 $276 $334 forward 7 unknown #
vertex $-1 $199 $335 #
straight-curve $-1 -67.854853968932161 0 13.353013121987921 0 -1 0 I I #
vertex $-1 $200 $336 #
straight-curve $-1 -64.176713588780217 -43.090287783268849 13.353013121987921 0 1 0 I I #
point $-1 -67.854853968932161 -34.787649352662569 13.353013121987921 #
coedge $-1 $204 $203 $275 $330 forward $205 $-1 #
point $-1 -67.854853968932161 -34.787649352662569 -13.353013121987921 #
coedge $-1 $276 $275 $208 $290 reversed $118 $-1 #
edge $-1 $284 -13.353013121987921 $291 13.353013121987921 $208 $337 forward 7 unknown #
vertex $-1 $290 $338 #
straight-curve $-1 -64.176713588780217 -43.090287783268849 -13.353013121987921 0 -1 0 I I #
loop $-1 $-1 $225 $212 #
plane-surface $-1 -67.854853968932161 0 0 1 0 0 0 0 -1 forward_v I I I I #
coedge $-1 $216 $215 $303 $339 reversed $78 $-1 #
coedge $-1 $228 $227 $215 $297 forward $213 $-1 #
edge $-1 $340 -1.8390701900759723 $300 1.8390701900759723 $215 $341 forward 7 unknown #
edge $-1 $299 -1.8390701900759723 $304 1.8390701900759723 $216 $342 forward 7 unknown #
vertex $-1 $220 $343 #
vertex $-1 $231 $344 #
straight-curve $-1 -64.176713588780217 51.392926213875128 0 0 0 -1 I I #
straight-curve $-1 -64.176713588780217 43.090287783268849 13.353013121987921 0 1 0 I I #
coedge $-1 $307 $221 $295 $339 forward $293 $-1 #
vertex $-1 $298 $345 #
straight-curve $-1 -67.854853968932161 0 13.353013121987921 0 -1 0 I I #
point $-1 -67.854853968932161 34.787649352662569 13.353013121987921 #
coedge $-1 $225 $303 $227 $309 reversed $293 $-1 #
straight-curve $-1 -67.854853968932161 34.787649352662569 0 0 0 1 I I #
edge $-1 $229 -8.3026384306062795 $340 8.3026384306062795 $307 $346 forward 7 unknown #
point $-1 -67.854853968932161 34.787649352662569 -13.353013121987921 #
straight-curve $-1 -64.176713588780217 43.090287783268849 -13.353013121987921 0 -1 0 I I #
edge $-1 $313 35.378263083445695 $316 42.07624170766357 $235 $347 forward 7 unknown #
vertex $-1 $249 $348 #
straight-curve $-1 -84.353411156921666 18.18237249145001 13.353013121987921 -1 0 0 I I #
edge $-1 $316 -11.172407629814927 $246 -2.8475220934552397 $245 $349 forward 7 unknown #
vertex $-1 $315 $350 #
straight-curve $-1 -67.854853968932161 18.18237249145001 6.6550344977700462 0.66913059716165679 0 0.74314483375859142 I I #
point $-1 -61.823967077165342 18.18237249145001 13.353013121987921 #
point $-1 -67.854853968932161 9.857486955090323 6.6550344977700462 #
straight-curve $-1 -67.854853968932161 0 13.353013121987921 0 -1 0 I I #
vertex $-1 $252 $351 #
point $-1 -58.771575753410367 14.019929723270167 7.2317864083664336 #
straight-curve $-1 -67.854853968932161 34.787649352662569 0 0 0 -1 I I #
straight-curve $-1 0 34.787649352662569 -13.353013121987921 1 0 0 I I #
point $-1 67.854853968932161 34.787649352662569 -13.353013121987921 #
straight-curve $-1 -67.854853968932161 0 13.353013121987921 0 -1 0 I I #
point $-1 -67.854853968932161 34.787649352662569 13.353013121987921 #
straight-curve $-1 67.854853968932161 34.787649352662569 0 0 0 -1 I I #
point $-1 -67.854853968932161 34.787649352662569 -13.353013121987921 #
edge $-1 $291 -1.8390701900759723 $331 1.8390701900759723 $275 $352 forward 7 unknown #
vertex $-1 $279 $353 #
straight-curve $-1 -67.854853968932161 -51.392926213875128 0 0 0 -1 I I #
straight-curve $-1 -67.854853968932161 0 -13.353013121987921 0 1 0 I I #
straight-curve $-1 -66.015783778856189 -51.392926213875128 13.353013121987921 1 0 0 I I #
point $-1 -67.854853968932161 -51.392926213875128 13.353013121987921 #
point $-1 -64.176713588780217 -51.392926213875128 13.353013121987921 #
straight-curve $-1 -64.176713588780217 -51.392926213875128 0 0 0 -1 I I #
point $-1 -64.176713588780217 -51.392926213875128 -13.353013121987921 #
edge $-1 $304 -13.353013121987921 $340 13.353013121987921 $295 $354 forward 7 unknown #
vertex $-1 $297 $355 #
straight-curve $-1 -66.015783778856189 51.392926213875128 -13.353013121987921 1 0 0 I I #
straight-curve $-1 -66.015783778856189 51.392926213875128 13.353013121987921 -1 0 0 I I #
point $-1 -64.176713588780217 51.392926213875128 13.353013121987921 #
point $-1 -64.176713588780217 51.392926213875128 -13.353013121987921 #
point $-1 -67.854853968932161 51.392926213875128 13.353013121987921 #
straight-curve $-1 -67.854853968932161 43.090287783268849 -13.353013121987921 0 1 0 I I #
straight-curve $-1 -67.854853968932161 18.18237249145001 48.731276205433616 0 0 -1 I I #
point $-1 -67.854853968932161 18.18237249145001 13.353013121987921 #
straight-curve $-1 -67.854853968932161 7.0099648616350834 6.6550344977700515 0 -1 0 I I #
point $-1 -67.854853968932161 18.18237249145001 6.6550344977700462 #
point $-1 -58.623547280216499 14.019929723270167 4.4072355465259365 #
straight-curve $-1 -66.015783778856189 -51.392926213875128 -13.353013121987921 -1 0 0 I I #
point $-1 -67.854853968932161 -51.392926213875128 -13.353013121987921 #
straight-curve $-1 -67.854853968932161 51.392926213875128 0 0 0 -1 I I #
point $-1 -67.854853968932161 51.392926213875128 -13.353013121987921 #
End-of-ACIS-data 