500 0 6 0           
7 Unknown 11 ACIS 5.0 NT 24 Thu Mar 25 15:21:40 1999 
-1 9.9999999999999995e-007 1e-010 
body $-1 $6 $-1 $7 #
body $-1 $8 $-1 $9 #
body $-1 $10 $-1 $11 #
body $-1 $12 $-1 $13 #
body $-1 $14 $-1 $15 #
body $-1 $16 $-1 $17 #
lump $-1 $-1 $18 $0 #
transform $-1 1 0 0 0 1 0 0 0 1 68.371227149266034 46.385684622304254 12.770184100141742 1 rotate no_reflect no_shear #
lump $-1 $-1 $19 $1 #
transform $-1 1 0 0 0 1 0 0 0 1 68.371227149266034 46.385684622304254 12.770184100141742 1 rotate no_reflect no_shear #
lump $-1 $-1 $20 $2 #
transform $-1 1 0 0 0 1 0 0 0 1 68.371227149266034 46.385684622304254 12.770184100141742 1 rotate no_reflect no_shear #
lump $-1 $-1 $21 $3 #
transform $-1 1 0 0 0 1 0 0 0 1 68.371227149266034 46.385684622304254 12.770184100141742 1 rotate no_reflect no_shear #
lump $-1 $-1 $22 $4 #
transform $-1 1 0 0 0 1 0 0 0 1 68.371227149266034 46.385684622304254 12.770184100141742 1 rotate no_reflect no_shear #
lump $-1 $-1 $23 $5 #
transform $-1 1 0 0 0 1 0 0 0 1 68.371227149266034 46.385684622304254 12.770184100141742 1 rotate no_reflect no_shear #
shell $-1 $-1 $-1 $24 $-1 $6 #
shell $-1 $-1 $-1 $25 $-1 $8 #
shell $-1 $-1 $-1 $26 $-1 $10 #
shell $-1 $-1 $-1 $27 $-1 $12 #
shell $-1 $-1 $-1 $28 $-1 $14 #
shell $-1 $-1 $-1 $29 $-1 $16 #
face $-1 $30 $31 $18 $-1 $32 forward single #
face $-1 $33 $34 $19 $-1 $35 reversed single #
face $-1 $36 $37 $20 $-1 $38 reversed single #
face $-1 $39 $40 $21 $-1 $41 forward single #
face $-1 $42 $43 $22 $-1 $44 reversed single #
face $-1 $45 $46 $23 $-1 $47 forward single #
face $-1 $48 $49 $18 $-1 $50 reversed single #
loop $-1 $-1 $51 $24 #
plane-surface $-1 0 0 12.770184100141742 0 0 1 1 0 0 forward_v I I I I #
face $-1 $52 $53 $19 $-1 $54 reversed single #
loop $-1 $-1 $55 $25 #
plane-surface $-1 0 -38.88734133836352 8.4202853356737695 0 0 1 1 0 0 forward_v I I I I #
face $-1 $56 $57 $20 $-1 $58 reversed single #
loop $-1 $-1 $59 $26 #
plane-surface $-1 -68.371227149266048 -22.8653988776211 6.0352884417544743 -0.85716730853699208 0 0.51503806187062418 0.51503806187062418 0 0.85716730853699208 forward_v I I I I #
face $-1 $60 $61 $21 $-1 $62 forward single #
loop $-1 $63 $64 $27 #
cone-surface $-1 -64.92481149789451 -22.8653988776211 8.5476822370817178 0.85716730853699208 0 -0.51503806187062418 0.77255709280593621 0 1.2857509628054882 1 I I 0 1 1.5 forward I I I I #
face $-1 $65 $66 $22 $-1 $67 reversed single #
loop $-1 $-1 $68 $28 #
plane-surface $-1 78.49211551456311 -14.519817255089094 195.92767819983939 0 -1 0 -0.74314483375859142 0 -0.66913059716165679 forward_v I I I I #
face $-1 $69 $70 $23 $-1 $71 forward single #
loop $-1 $72 $73 $29 #
cone-surface $-1 60.985017330664846 -22.95440765475594 5.1769848505499336 -0.74314483375859142 0 -0.66913059716165679 2.0073917914849702 0 -2.2294345012757741 1 I I 0 1 3 forward I I I I #
face $-1 $74 $75 $18 $-1 $76 reversed single #
loop $-1 $-1 $77 $30 #
plane-surface $-1 0 0 -12.770184100141742 0 0 1 1 0 0 forward_v I I I I #
coedge $-1 $78 $79 $80 $81 forward $31 $-1 #
face $-1 $82 $83 $19 $-1 $84 reversed single #
loop $-1 $-1 $85 $33 #
plane-surface $-1 0 -31.388998054422782 10.595234717907756 0 -1 0 0 0 -1 forward_v I I I I #
coedge $-1 $86 $87 $88 $89 reversed $34 $-1 #
face $-1 $90 $91 $20 $-1 $92 forward single #
loop $-1 $-1 $93 $36 #
plane-surface $-1 -185.58238866308142 -14.341799700819422 76.462857079102832 0 -1 0 0.85716730853699208 0 -0.51503806187062418 forward_v I I I I #
coedge $-1 $94 $95 $96 $97 reversed $37 $-1 #
face $-1 $-1 $98 $21 $-1 $99 forward single #
loop $-1 $100 $101 $39 #
cone-surface $-1 -62.858887082591686 -22.8653988776211 7.3063496568123565 0.85716730853699208 0 -0.51503806187062418 0.3862785464029681 0 0.64287548140274409 1 I I -0.70710678118654757 0.70710678118654757 0.75 forward I I I I #
loop $-1 $-1 $102 $27 #
coedge $-1 $64 $64 $103 $104 reversed $40 $-1 #
face $-1 $105 $106 $22 $-1 $107 forward single #
loop $-1 $-1 $108 $42 #
plane-surface $-1 -23.127332952861281 -22.954407654755936 104.42911809771206 0.74314483375859142 0 0.66913059716165679 0.66913059716165679 0 -0.74314483375859142 forward_v I I I I #
coedge $-1 $109 $110 $111 $112 reversed $43 $-1 #
face $-1 $-1 $113 $23 $-1 $114 forward single #
loop $-1 $115 $116 $45 #
cone-surface $-1 56.968333905791795 -22.95440765475594 1.5603469401426562 -0.74314483375859142 0 -0.66913059716165679 1.0036958957424851 0 -1.1147172506378871 1 I I -0.70710678118654757 0.70710678118654757 1.5 forward I I I I #
loop $-1 $-1 $117 $29 #
coedge $-1 $73 $73 $118 $119 reversed $46 $-1 #
face $-1 $120 $121 $18 $-1 $122 reversed single #
loop $-1 $-1 $123 $48 #
plane-surface $-1 0 -46.385684622304254 0 0 1 0 0 0 1 forward_v I I I I #
coedge $-1 $124 $125 $126 $127 forward $49 $-1 #
coedge $-1 $128 $51 $129 $130 forward $31 $-1 #
coedge $-1 $51 $128 $131 $132 forward $31 $-1 #
coedge $-1 $133 $134 $51 $81 reversed $135 $-1 #
edge $-1 $136 -46.385684622304254 $137 46.385684622304254 $80 $138 forward 7 unknown #
face $-1 $139 $140 $19 $-1 $141 reversed single #
loop $-1 $-1 $142 $52 #
plane-surface $-1 -68.371227149266034 0 0 1 0 0 0 0 -1 forward_v I I I I #
coedge $-1 $143 $144 $87 $145 reversed $53 $-1 #
coedge $-1 $146 $55 $147 $148 reversed $34 $-1 #
coedge $-1 $55 $146 $85 $145 forward $34 $-1 #
coedge $-1 $149 $150 $55 $89 forward $151 $-1 #
edge $-1 $152 -26.942013953122494 $153 -11.945327385241022 $88 $154 forward 7 unknown #
face $-1 $155 $156 $20 $-1 $157 reversed single #
loop $-1 $-1 $96 $56 #
plane-surface $-1 0 0 12.770184100141742 0 0 1 1 0 0 forward_v I I I I #
coedge $-1 $158 $159 $160 $161 reversed $57 $-1 #
coedge $-1 $162 $59 $163 $164 reversed $37 $-1 #
coedge $-1 $59 $162 $158 $165 forward $37 $-1 #
coedge $-1 $160 $166 $59 $97 forward $91 $-1 #
edge $-1 $167 -19.956298615612234 $168 -2.909100262008872 $96 $169 forward 7 unknown #
loop $-1 $-1 $103 $60 #
plane-surface $-1 -68.371227149266048 -22.8653988776211 6.0352884417544743 -0.85716730853699208 0 0.51503806187062418 0.51503806187062418 0 0.85716730853699208 forward_v I I I I #
loop $-1 $-1 $170 $39 #
coedge $-1 $101 $101 $102 $171 reversed $61 $-1 #
coedge $-1 $102 $102 $101 $171 forward $63 $-1 #
coedge $-1 $103 $103 $64 $104 forward $98 $-1 #
edge $-1 $172 0 $172 6.2831853071796004 $103 $173 forward 7 unknown #
face $-1 $174 $175 $22 $-1 $176 forward single #
loop $-1 $-1 $177 $65 #
plane-surface $-1 0 -31.388998054422782 10.595234717907756 0 -1 0 0 0 -1 forward_v I I I I #
coedge $-1 $178 $179 $180 $181 reversed $66 $-1 #
coedge $-1 $110 $68 $182 $183 reversed $43 $-1 #
coedge $-1 $68 $109 $178 $184 reversed $43 $-1 #
coedge $-1 $180 $185 $68 $112 forward $175 $-1 #
edge $-1 $186 -29.125169391984478 $187 -20.156682103252486 $111 $188 forward 7 unknown #
loop $-1 $-1 $118 $69 #
plane-surface $-1 -23.127332952861281 -22.954407654755936 104.42911809771206 0.74314483375859142 0 0.66913059716165679 0.66913059716165679 0 -0.74314483375859142 forward_v I I I I #
loop $-1 $-1 $189 $45 #
coedge $-1 $116 $116 $117 $190 reversed $70 $-1 #
coedge $-1 $117 $117 $116 $190 forward $72 $-1 #
coedge $-1 $118 $118 $73 $119 forward $113 $-1 #
edge $-1 $191 0 $191 6.2831853071796004 $118 $192 forward 7 unknown #
face $-1 $193 $194 $18 $-1 $195 reversed single #
loop $-1 $-1 $196 $74 #
plane-surface $-1 -68.371227149266034 0 0 1 0 0 0 0 -1 forward_v I I I I #
coedge $-1 $197 $131 $198 $199 forward $75 $-1 #
coedge $-1 $200 $77 $197 $201 forward $49 $-1 #
coedge $-1 $77 $200 $202 $203 forward $49 $-1 #
coedge $-1 $134 $133 $77 $127 reversed $135 $-1 #
edge $-1 $204 -46.385684622304254 $205 46.385684622304254 $126 $206 forward 7 unknown #
coedge $-1 $79 $78 $207 $208 forward $31 $-1 #
coedge $-1 $209 $210 $78 $130 reversed $194 $-1 #
edge $-1 $137 -68.371227149266034 $211 68.371227149266034 $129 $212 forward 7 unknown #
coedge $-1 $123 $213 $79 $132 reversed $75 $-1 #
edge $-1 $214 -68.371227149266034 $136 68.371227149266034 $131 $215 forward 7 unknown #
coedge $-1 $126 $80 $213 $216 forward $135 $-1 #
coedge $-1 $80 $126 $209 $217 reversed $135 $-1 #
loop $-1 $-1 $133 $193 #
vertex $-1 $81 $218 #
vertex $-1 $81 $219 #
straight-curve $-1 68.371227149266034 0 12.770184100141742 0 1 0 I I #
face $-1 $220 $221 $19 $-1 $222 forward single #
loop $-1 $-1 $147 $82 #
plane-surface $-1 0 -46.385684622304254 0 0 1 0 0 0 1 forward_v I I I I #
coedge $-1 $223 $224 $143 $225 forward $83 $-1 #
coedge $-1 $226 $85 $142 $225 reversed $53 $-1 #
coedge $-1 $85 $226 $149 $227 reversed $53 $-1 #
edge $-1 $228 -68.371227149266034 $153 68.371227149266034 $85 $229 forward 7 unknown #
coedge $-1 $87 $86 $223 $230 reversed $34 $-1 #
coedge $-1 $231 $232 $86 $148 forward $140 $-1 #
edge $-1 $233 -68.371227149266034 $152 68.371227149266034 $147 $234 forward 7 unknown #
coedge $-1 $235 $88 $144 $227 forward $151 $-1 #
coedge $-1 $88 $235 $231 $236 forward $151 $-1 #
loop $-1 $-1 $149 $220 #
vertex $-1 $148 $237 #
vertex $-1 $89 $238 #
straight-curve $-1 68.371227149266034 -19.44367066918176 8.4202853356737695 0 1 0 I I #
face $-1 $-1 $239 $20 $-1 $240 forward single #
loop $-1 $-1 $241 $90 #
plane-surface $-1 -68.371227149266034 0 0 1 0 0 0 0 -1 forward_v I I I I #
coedge $-1 $159 $93 $95 $165 reversed $57 $-1 #
coedge $-1 $93 $158 $241 $242 reversed $57 $-1 #
coedge $-1 $243 $96 $93 $161 forward $91 $-1 #
edge $-1 $168 -28.466700617217555 $244 -24.419967182274675 $160 $245 forward 7 unknown #
coedge $-1 $95 $94 $246 $247 reversed $37 $-1 #
coedge $-1 $248 $249 $94 $164 forward $239 $-1 #
edge $-1 $250 -19.561210597638858 $167 -11.704056467621557 $163 $251 forward 7 unknown #
edge $-1 $252 2.787470371894754e-014 $168 7.8571541300173307 $158 $253 forward 7 unknown #
coedge $-1 $96 $243 $248 $254 forward $91 $-1 #
vertex $-1 $164 $255 #
vertex $-1 $97 $256 #
straight-curve $-1 -64.32449371432314 -11.43269943881055 12.770184100141742 0 1 0 I I #
coedge $-1 $170 $170 $-1 $257 reversed $100 $-1 #
edge $-1 $258 0 $258 6.2831853071796004 $101 $259 forward 7 unknown #
vertex $-1 $104 $260 #
ellipse-curve $-1 -66.347860431794601 -22.8653988776211 9.4027362709481146 -0.85716730853699208 0 0.51503806187062418 0.77255709280593621 0 1.2857509628054882 1 I I #
face $-1 $-1 $261 $22 $-1 $262 reversed single #
loop $-1 $-1 $180 $105 #
plane-surface $-1 0 0 12.770184100141742 0 0 1 1 0 0 forward_v I I I I #
coedge $-1 $263 $264 $179 $265 reversed $106 $-1 #
coedge $-1 $266 $108 $110 $184 forward $66 $-1 #
coedge $-1 $108 $266 $177 $265 forward $66 $-1 #
coedge $-1 $267 $111 $108 $181 forward $175 $-1 #
edge $-1 $187 3.0426134277111263 $268 19.911794227044815 $180 $269 forward 7 unknown #
coedge $-1 $270 $271 $109 $183 forward $261 $-1 #
edge $-1 $272 -95.154169469632009 $186 -85.193654999777948 $182 $273 forward 7 unknown #
edge $-1 $187 123.33926017353633 $272 136.74245429853201 $110 $274 forward 7 unknown #
coedge $-1 $111 $267 $270 $275 forward $175 $-1 #
vertex $-1 $183 $276 #
vertex $-1 $112 $277 #
straight-curve $-1 39.246057757281555 -14.519817255089094 12.770184100141748 -1 0 0 I I #
coedge $-1 $189 $189 $-1 $278 reversed $115 $-1 #
edge $-1 $279 0 $279 6.2831853071796004 $116 $280 forward 7 unknown #
vertex $-1 $119 $281 #
ellipse-curve $-1 63.886983504900023 -22.95440765475594 7.7899268652147367 0.74314483375859142 0 0.66913059716165679 2.0073917914849702 0 -2.2294345012757741 1 I I #
face $-1 $-1 $135 $18 $-1 $282 reversed single #
loop $-1 $-1 $209 $120 #
plane-surface $-1 0 46.385684622304254 0 0 -1 0 0 0 -1 forward_v I I I I #
coedge $-1 $283 $207 $210 $284 forward $121 $-1 #
coedge $-1 $213 $123 $124 $201 reversed $75 $-1 #
coedge $-1 $207 $283 $123 $199 reversed $121 $-1 #
edge $-1 $214 -12.770184100141742 $285 12.770184100141742 $198 $286 forward 7 unknown #
coedge $-1 $125 $124 $283 $287 forward $49 $-1 #
edge $-1 $205 -68.371227149266034 $285 68.371227149266034 $197 $288 forward 7 unknown #
coedge $-1 $210 $209 $125 $203 reversed $194 $-1 #
edge $-1 $289 -68.371227149266034 $204 68.371227149266034 $202 $290 forward 7 unknown #
vertex $-1 $127 $291 #
vertex $-1 $216 $292 #
straight-curve $-1 68.371227149266034 0 -12.770184100141742 0 -1 0 I I #
coedge $-1 $196 $198 $128 $208 reversed $121 $-1 #
edge $-1 $211 -46.385684622304254 $214 46.385684622304254 $207 $293 forward 7 unknown #
coedge $-1 $202 $129 $134 $217 forward $194 $-1 #
coedge $-1 $129 $202 $196 $284 reversed $194 $-1 #
vertex $-1 $130 $294 #
straight-curve $-1 0 46.385684622304254 12.770184100141742 -1 0 0 I I #
coedge $-1 $131 $197 $133 $216 reversed $75 $-1 #
vertex $-1 $208 $295 #
straight-curve $-1 0 -46.385684622304254 12.770184100141742 1 0 0 I I #
edge $-1 $136 -12.770184100141742 $205 12.770184100141742 $133 $296 forward 7 unknown #
edge $-1 $137 -12.770184100141742 $204 12.770184100141742 $134 $297 forward 7 unknown #
point $-1 68.371227149266034 -46.385684622304254 12.770184100141742 #
point $-1 68.371227149266034 46.385684622304254 12.770184100141742 #
face $-1 $-1 $151 $19 $-1 $298 reversed single #
loop $-1 $-1 $299 $139 #
plane-surface $-1 0 0 12.770184100141742 0 0 1 1 0 0 forward_v I I I I #
coedge $-1 $300 $142 $146 $230 forward $83 $-1 #
coedge $-1 $142 $300 $301 $302 reversed $83 $-1 #
edge $-1 $303 -7.4725667411878645 $228 -3.1226679767198915 $142 $304 forward 7 unknown #
coedge $-1 $144 $143 $299 $305 reversed $53 $-1 #
edge $-1 $153 3.1226679767198915 $306 7.4725667411878645 $149 $307 forward 7 unknown #
vertex $-1 $230 $308 #
straight-curve $-1 0 -31.388998054422782 8.4202853356737695 1 0 0 I I #
edge $-1 $228 11.945327385241022 $233 26.942013953122494 $223 $309 forward 7 unknown #
coedge $-1 $310 $147 $150 $236 reversed $140 $-1 #
coedge $-1 $147 $310 $300 $311 forward $140 $-1 #
vertex $-1 $148 $312 #
straight-curve $-1 0 -46.385684622304254 8.4202853356737695 1 0 0 I I #
coedge $-1 $150 $149 $313 $314 reversed $151 $-1 #
edge $-1 $315 -12.770184100141742 $152 -8.4202853356737695 $150 $316 forward 7 unknown #
point $-1 68.371227149266034 -46.385684622304254 8.4202853356737695 #
point $-1 68.371227149266034 -31.388998054422782 8.4202853356737695 #
loop $-1 $-1 $163 $155 #
plane-surface $-1 0 -31.388998054422782 10.595234717907756 0 -1 0 0 0 -1 forward_v I I I I #
coedge $-1 $246 $317 $159 $242 forward $156 $-1 #
edge $-1 $244 25.461244439409676 $252 32.196140097796921 $241 $318 forward 7 unknown #
coedge $-1 $166 $160 $317 $319 forward $91 $-1 #
vertex $-1 $319 $320 #
straight-curve $-1 -92.791194331540709 -14.341799700819422 12.770184100141741 -1 0 0 I I #
coedge $-1 $321 $241 $162 $247 forward $156 $-1 #
edge $-1 $252 2.909100262008872 $250 19.956298615612226 $246 $322 forward 7 unknown #
coedge $-1 $249 $163 $166 $254 reversed $239 $-1 #
coedge $-1 $163 $248 $321 $323 reversed $239 $-1 #
vertex $-1 $323 $324 #
straight-curve $-1 -58.296459155214997 -31.388998054422782 22.802518681457883 0.51503806187062429 0 0.85716730853699219 I I #
vertex $-1 $247 $325 #
straight-curve $-1 -68.371227149266048 -14.341799700819422 6.0352884417544743 0.51503806187062418 0 0.85716730853699208 I I #
edge $-1 $326 -68.371227149266034 $167 -64.324493714323154 $166 $327 forward 7 unknown #
point $-1 -64.324493714323154 -31.388998054422782 12.770184100141742 #
point $-1 -64.324493714323154 -14.341799700819422 12.770184100141742 #
edge $-1 $328 1 $328 0 $170 $-1 forward 7 unknown #
vertex $-1 $171 $329 #
ellipse-curve $-1 -63.501762563994433 -22.8653988776211 7.6926282032153246 -0.85716730853699208 0 0.51503806187062418 0.77255709280593621 0 1.2857509628054882 1 I I #
point $-1 -65.575303338988647 -22.8653988776211 10.688487233753598 #
loop $-1 $-1 $182 $174 #
plane-surface $-1 68.371227149266034 0 0 -1 0 0 0 0 1 forward_v I I I I #
coedge $-1 $264 $177 $330 $331 reversed $106 $-1 #
coedge $-1 $177 $263 $267 $332 reversed $106 $-1 #
edge $-1 $333 -136.74245429853201 $268 -123.33926017353633 $177 $334 forward 7 unknown #
coedge $-1 $179 $178 $271 $335 reversed $66 $-1 #
coedge $-1 $185 $180 $264 $332 forward $175 $-1 #
vertex $-1 $332 $336 #
straight-curve $-1 59.402739860534034 -11.477203827377968 12.770184100141748 0 -1 0 I I #
coedge $-1 $330 $182 $185 $275 reversed $261 $-1 #
coedge $-1 $182 $330 $266 $335 forward $261 $-1 #
vertex $-1 $183 $337 #
straight-curve $-1 68.371227149266034 -14.519817255089094 97.963839099919696 0 0 1 I I #
straight-curve $-1 -23.127332952861281 -14.519817255089094 104.42911809771206 0.66913059716165679 0 -0.74314483375859142 I I #
edge $-1 $338 -31.388998054422782 $186 -14.519817255089094 $270 $339 forward 7 unknown #
point $-1 68.371227149266034 -14.519817255089094 12.770184100141742 #
point $-1 59.402739860534041 -14.519817255089094 12.770184100141748 #
edge $-1 $340 1 $340 0 $189 $-1 forward 7 unknown #
vertex $-1 $190 $341 #
ellipse-curve $-1 58.083051156429683 -22.95440765475594 2.5640428358851413 0.74314483375859142 0 0.66913059716165679 2.0073917914849702 0 -2.2294345012757741 1 I I #
point $-1 65.894375296384993 -22.95440765475594 5.560492363938951 #
plane-surface $-1 68.371227149266034 0 0 -1 0 0 0 0 1 forward_v I I I I #
coedge $-1 $198 $196 $200 $287 reversed $121 $-1 #
edge $-1 $211 -12.770184100141742 $289 12.770184100141742 $210 $342 forward 7 unknown #
vertex $-1 $287 $343 #
straight-curve $-1 -68.371227149266034 -46.385684622304254 0 0 0 -1 I I #
edge $-1 $285 -46.385684622304254 $289 46.385684622304254 $283 $344 forward 7 unknown #
straight-curve $-1 0 -46.385684622304254 -12.770184100141742 -1 0 0 I I #
vertex $-1 $203 $345 #
straight-curve $-1 0 46.385684622304254 -12.770184100141742 1 0 0 I I #
point $-1 68.371227149266034 46.385684622304254 -12.770184100141742 #
point $-1 68.371227149266034 -46.385684622304254 -12.770184100141742 #
straight-curve $-1 -68.371227149266034 0 12.770184100141742 0 -1 0 I I #
point $-1 -68.371227149266034 46.385684622304254 12.770184100141742 #
point $-1 -68.371227149266034 -46.385684622304254 12.770184100141742 #
straight-curve $-1 68.371227149266034 -46.385684622304254 0 0 0 -1 I I #
straight-curve $-1 68.371227149266034 46.385684622304254 0 0 0 -1 I I #
plane-surface $-1 68.371227149266034 0 0 -1 0 0 0 0 1 forward_v I I I I #
coedge $-1 $301 $313 $226 $305 forward $221 $-1 #
coedge $-1 $224 $223 $232 $311 reversed $83 $-1 #
coedge $-1 $346 $299 $224 $302 forward $221 $-1 #
edge $-1 $303 31.388998054422782 $347 46.385684622304254 $224 $348 forward 7 unknown #
vertex $-1 $302 $349 #
straight-curve $-1 -68.371227149266034 -31.388998054422782 5.297617358953878 0 0 -1 I I #
edge $-1 $306 -68.371227149266034 $303 68.371227149266034 $299 $350 forward 7 unknown #
vertex $-1 $227 $351 #
straight-curve $-1 68.371227149266034 -31.388998054422782 5.297617358953878 0 0 1 I I #
point $-1 -68.371227149266034 -31.388998054422782 8.4202853356737695 #
straight-curve $-1 -68.371227149266034 -19.44367066918176 8.4202853356737695 0 -1 0 I I #
coedge $-1 $232 $231 $346 $352 reversed $140 $-1 #
edge $-1 $347 -12.770184100141742 $233 -8.4202853356737695 $300 $353 forward 7 unknown #
point $-1 -68.371227149266034 -46.385684622304254 8.4202853356737695 #
coedge $-1 $299 $346 $235 $314 forward $221 $-1 #
edge $-1 $315 -46.385684622304254 $306 -31.388998054422782 $235 $354 forward 7 unknown #
vertex $-1 $314 $355 #
straight-curve $-1 68.371227149266034 -46.385684622304254 0 0 0 -1 I I #
coedge $-1 $241 $321 $243 $319 reversed $156 $-1 #
straight-curve $-1 -68.371227149266034 -14.341799700819422 38.231428539551416 0 0 -1 I I #
edge $-1 $244 14.341799700819422 $326 31.388998054422782 $317 $356 forward 7 unknown #
point $-1 -68.371227149266034 -14.341799700819422 12.770184100141742 #
coedge $-1 $317 $246 $249 $323 forward $156 $-1 #
straight-curve $-1 -68.371227149266034 -11.43269943881055 6.0352884417545072 0 -1 0 I I #
edge $-1 $250 -32.196140097796921 $326 -25.461244439409676 $321 $357 forward 7 unknown #
point $-1 -68.371227149266034 -31.388998054422778 6.0352884417544983 #
point $-1 -68.371227149266034 -14.341799700819422 6.0352884417544983 #
vertex $-1 $323 $358 #
straight-curve $-1 0 -31.388998054422782 12.770184100141742 1 0 0 I I #
vertex $-1 $257 $359 #
point $-1 -62.729205471188493 -22.8653988776211 8.9783791660208134 #
coedge $-1 $271 $270 $263 $331 forward $261 $-1 #
edge $-1 $338 85.193654999777948 $333 95.154169469632009 $330 $360 forward 7 unknown #
edge $-1 $268 59.402739860534034 $338 68.371227149266034 $267 $361 forward 7 unknown #
vertex $-1 $331 $362 #
straight-curve $-1 -23.127332952861281 -31.388998054422778 104.42911809771206 -0.66913059716165679 0 0.74314483375859142 I I #
edge $-1 $333 -19.911794227044808 $272 -3.0426134277111263 $271 $363 forward 7 unknown #
point $-1 59.402739860534034 -31.388998054422782 12.770184100141742 #
point $-1 68.371227149266019 -14.519817255089094 2.8096696302876865 #
vertex $-1 $275 $364 #
straight-curve $-1 68.371227149266034 0 12.770184100141742 0 1 0 I I #
vertex $-1 $278 $365 #
point $-1 60.090442947914653 -22.95440765475594 0.33460833460936712 #
straight-curve $-1 -68.371227149266034 46.385684622304254 0 0 0 -1 I I #
point $-1 -68.371227149266034 -46.385684622304254 -12.770184100141742 #
straight-curve $-1 -68.371227149266034 0 -12.770184100141742 0 1 0 I I #
point $-1 -68.371227149266034 46.385684622304254 -12.770184100141742 #
coedge $-1 $313 $301 $310 $352 forward $221 $-1 #
vertex $-1 $302 $366 #
straight-curve $-1 -68.371227149266034 0 12.770184100141742 0 -1 0 I I #
point $-1 -68.371227149266034 -31.388998054422782 12.770184100141742 #
straight-curve $-1 0 -31.388998054422782 12.770184100141742 -1 0 0 I I #
point $-1 68.371227149266034 -31.388998054422782 12.770184100141742 #
edge $-1 $347 -68.371227149266034 $315 68.371227149266034 $310 $367 forward 7 unknown #
straight-curve $-1 -68.371227149266034 -46.385684622304254 0 0 0 -1 I I #
straight-curve $-1 68.371227149266034 0 12.770184100141742 0 1 0 I I #
point $-1 68.371227149266034 -46.385684622304254 12.770184100141742 #
straight-curve $-1 -68.371227149266034 0 12.770184100141742 0 -1 0 I I #
straight-curve $-1 -68.371227149266034 -31.388998054422778 38.231428539551416 0 0 1 I I #
point $-1 -68.371227149266034 -31.388998054422782 12.770184100141742 #
point $-1 -62.216011601188939 -22.8653988776211 6.9200711104093884 #
straight-curve $-1 68.371227149266034 -31.388998054422778 97.963839099919696 0 0 -1 I I #
straight-curve $-1 0 -31.388998054422782 12.770184100141742 1 0 0 I I #
point $-1 68.371227149266019 -31.388998054422778 2.8096696302876865 #
straight-curve $-1 68.371227149266034 -11.477203827377968 2.8096696302876651 0 1 0 I I #
point $-1 68.371227149266034 -31.388998054422782 12.770184100141742 #
point $-1 55.853616655153907 -22.95440765475594 0.5566510444001711 #
point $-1 -68.371227149266034 -46.385684622304254 12.770184100141742 #
straight-curve $-1 0 -46.385684622304254 12.770184100141742 1 0 0 I I #
End-of-ACIS-data 