500 0 9 0           
7 Unknown 11 ACIS 5.0 NT 24 Thu Mar 25 17:31:33 1999 
-1 9.9999999999999995e-007 1e-010 
body $-1 $9 $-1 $10 #
body $-1 $11 $-1 $12 #
body $-1 $13 $-1 $14 #
body $-1 $15 $-1 $16 #
body $-1 $17 $-1 $18 #
body $-1 $19 $-1 $20 #
body $-1 $21 $-1 $22 #
body $-1 $23 $-1 $24 #
body $-1 $25 $-1 $26 #
lump $-1 $-1 $27 $0 #
transform $-1 1 0 0 0 1 0 0 0 1 62.305368205816833 33.562603340679715 12.731603351053826 1 rotate no_reflect no_shear #
lump $-1 $-1 $28 $1 #
transform $-1 1 0 0 0 1 0 0 0 1 62.305368205816833 33.562603340679715 12.731603351053826 1 rotate no_reflect no_shear #
lump $-1 $-1 $29 $2 #
transform $-1 1 0 0 0 1 0 0 0 1 62.305368205816833 33.562603340679715 12.731603351053826 1 rotate no_reflect no_shear #
lump $-1 $-1 $30 $3 #
transform $-1 1 0 0 0 1 0 0 0 1 62.305368205816833 33.562603340679715 12.731603351053826 1 rotate no_reflect no_shear #
lump $-1 $-1 $31 $4 #
transform $-1 1 0 0 0 1 0 0 0 1 62.305368205816833 33.562603340679715 12.731603351053826 1 rotate no_reflect no_shear #
lump $-1 $-1 $32 $5 #
transform $-1 1 0 0 0 1 0 0 0 1 62.305368205816833 33.562603340679715 12.731603351053826 1 rotate no_reflect no_shear #
lump $-1 $-1 $33 $6 #
transform $-1 1 0 0 0 1 0 0 0 1 62.305368205816833 33.562603340679715 12.731603351053826 1 rotate no_reflect no_shear #
lump $-1 $-1 $34 $7 #
transform $-1 1 0 0 0 1 0 0 0 1 62.305368205816833 33.562603340679715 12.731603351053826 1 rotate no_reflect no_shear #
lump $-1 $-1 $35 $8 #
transform $-1 1 0 0 0 1 0 0 0 1 62.305368205816833 33.562603340679715 12.731603351053826 1 rotate no_reflect no_shear #
shell $-1 $-1 $-1 $36 $-1 $9 #
shell $-1 $-1 $-1 $37 $-1 $11 #
shell $-1 $-1 $-1 $38 $-1 $13 #
shell $-1 $-1 $-1 $39 $-1 $15 #
shell $-1 $-1 $-1 $40 $-1 $17 #
shell $-1 $-1 $-1 $41 $-1 $19 #
shell $-1 $-1 $-1 $42 $-1 $21 #
shell $-1 $-1 $-1 $43 $-1 $23 #
shell $-1 $-1 $-1 $44 $-1 $25 #
face $-1 $45 $46 $27 $-1 $47 forward single #
face $-1 $48 $49 $28 $-1 $50 forward single #
face $-1 $51 $52 $29 $-1 $53 reversed single #
face $-1 $54 $55 $30 $-1 $56 forward single #
face $-1 $57 $58 $31 $-1 $59 forward single #
face $-1 $60 $61 $32 $-1 $62 reversed single #
face $-1 $63 $64 $33 $-1 $65 forward single #
face $-1 $66 $67 $34 $-1 $68 forward single #
face $-1 $69 $70 $35 $-1 $71 forward single #
face $-1 $72 $73 $27 $-1 $74 reversed single #
loop $-1 $-1 $75 $36 #
plane-surface $-1 0 0 12.731603351053826 0 0 1 1 0 0 forward_v I I I I #
face $-1 $76 $77 $28 $-1 $78 reversed single #
loop $-1 $-1 $79 $37 #
plane-surface $-1 -62.305368205816833 0 0 1 0 0 0 0 -1 forward_v I I I I #
face $-1 $80 $81 $29 $-1 $82 reversed single #
loop $-1 $-1 $83 $38 #
plane-surface $-1 -39.563090423966798 -136.86958677578821 73.218339898410207 -1 0 0 0 -0.82903758062907751 0.55919289150049634 forward_v I I I I #
face $-1 $84 $85 $30 $-1 $86 forward single #
loop $-1 $87 $88 $39 #
cone-surface $-1 -49.563011441692993 -29.465639742959329 7.4624344216005793 0 0.82903758062907751 -0.55919289150049634 1 0 0 1 I I 0 1 1 forward I I I I #
face $-1 $89 $90 $31 $-1 $91 forward single #
loop $-1 $92 $93 $40 #
cone-surface $-1 -43.563058831057276 -29.465639742959329 7.4624344216005793 0 0.82903758062907751 -0.55919289150049634 1 0 0 1 I I 0 1 1 forward I I I I #
face $-1 $94 $95 $32 $-1 $96 reversed single #
loop $-1 $-1 $97 $41 #
plane-surface $-1 26.173763896303555 50.050636454979525 142.82155402663602 1 0 0 0 -0.57357644374324357 -0.81915203911291934 forward_v I I I I #
face $-1 $98 $99 $33 $-1 $100 forward single #
loop $-1 $101 $102 $42 #
cone-surface $-1 30.417896978431685 25.073340046447367 6.0586619310451857 0 -0.57357644374324357 -0.81915203911291934 1.5 0 0 1 I I 0 1 1.5 forward I I I I #
face $-1 $103 $104 $34 $-1 $105 forward single #
loop $-1 $106 $107 $43 #
cone-surface $-1 36.784096601623872 25.073340046447367 6.0586619310451857 0 -0.57357644374324357 -0.81915203911291934 1.5 0 0 1 I I 0 1 1.5 forward I I I I #
face $-1 $108 $109 $35 $-1 $110 forward single #
loop $-1 $111 $112 $44 #
cone-surface $-1 43.15029622481606 25.073340046447367 6.0586619310451857 0 -0.57357644374324357 -0.81915203911291934 1.5 0 0 1 I I 0 1 1.5 forward I I I I #
face $-1 $113 $114 $27 $-1 $115 reversed single #
loop $-1 $-1 $116 $45 #
plane-surface $-1 0 0 -12.731603351053826 0 0 1 1 0 0 forward_v I I I I #
coedge $-1 $117 $118 $119 $120 forward $46 $-1 #
face $-1 $121 $122 $28 $-1 $123 reversed single #
loop $-1 $-1 $124 $48 #
plane-surface $-1 0 33.562603340679715 0 0 -1 0 0 0 -1 forward_v I I I I #
coedge $-1 $125 $126 $127 $128 forward $49 $-1 #
face $-1 $129 $130 $29 $-1 $131 reversed single #
loop $-1 $-1 $132 $51 #
plane-surface $-1 -46.563035136375134 -33.562603340679729 3.5369018923825877 0 -0.82903758062907751 0.55919289150049634 1 0 0 forward_v I I I I #
coedge $-1 $133 $134 $135 $136 reversed $52 $-1 #
face $-1 $-1 $137 $30 $-1 $138 forward single #
loop $-1 $139 $140 $54 #
cone-surface $-1 -49.563011441692993 -28.055109480192794 6.511019775732704 0 0.82903758062907751 -0.55919289150049634 0.5 0 0 1 I I -0.70710678118654746 0.70710678118654746 0.5 forward I I I I #
loop $-1 $-1 $141 $39 #
coedge $-1 $88 $88 $142 $143 reversed $55 $-1 #
face $-1 $-1 $144 $31 $-1 $145 forward single #
loop $-1 $146 $147 $57 #
cone-surface $-1 -43.563058831057276 -28.055109480192794 6.511019775732704 0 0.82903758062907751 -0.55919289150049634 0.5 0 0 1 I I -0.70710678118654746 0.70710678118654746 0.5 forward I I I I #
loop $-1 $-1 $148 $40 #
coedge $-1 $93 $93 $149 $150 reversed $58 $-1 #
face $-1 $151 $152 $32 $-1 $153 reversed single #
loop $-1 $-1 $154 $60 #
plane-surface $-1 36.784096601623872 -21.423146588232029 40.746415199683796 0 0.57357644374324357 0.81915203911291934 1 0 0 forward_v I I I I #
coedge $-1 $155 $156 $157 $158 reversed $61 $-1 #
face $-1 $-1 $159 $33 $-1 $160 forward single #
loop $-1 $161 $162 $63 #
cone-surface $-1 30.417896978431685 23.642120917649031 4.0146692242990536 0 -0.57357644374324357 -0.81915203911291934 0.75 0 0 1 I I -0.70710678118654757 0.70710678118654757 0.75 forward I I I I #
loop $-1 $-1 $163 $42 #
coedge $-1 $102 $102 $164 $165 reversed $64 $-1 #
face $-1 $-1 $166 $34 $-1 $167 forward single #
loop $-1 $168 $169 $66 #
cone-surface $-1 36.784096601623872 23.642120917649031 4.0146692242990536 0 -0.57357644374324357 -0.81915203911291934 0.75 0 0 1 I I -0.70710678118654757 0.70710678118654757 0.75 forward I I I I #
loop $-1 $-1 $170 $43 #
coedge $-1 $107 $107 $171 $172 reversed $67 $-1 #
face $-1 $-1 $173 $35 $-1 $174 forward single #
loop $-1 $175 $176 $69 #
cone-surface $-1 43.15029622481606 23.642120917649031 4.0146692242990536 0 -0.57357644374324357 -0.81915203911291934 0.75 0 0 1 I I -0.70710678118654757 0.70710678118654757 0.75 forward I I I I #
loop $-1 $-1 $177 $44 #
coedge $-1 $112 $112 $178 $179 reversed $70 $-1 #
face $-1 $180 $181 $27 $-1 $182 reversed single #
loop $-1 $-1 $183 $72 #
plane-surface $-1 0 -33.562603340679715 0 0 1 0 0 0 1 forward_v I I I I #
coedge $-1 $184 $185 $186 $187 forward $73 $-1 #
coedge $-1 $188 $75 $189 $190 forward $46 $-1 #
coedge $-1 $75 $188 $191 $192 forward $46 $-1 #
coedge $-1 $193 $194 $75 $120 reversed $195 $-1 #
edge $-1 $196 -33.562603340679715 $197 33.562603340679715 $119 $198 forward 7 unknown #
face $-1 $199 $200 $28 $-1 $201 reversed single #
loop $-1 $-1 $127 $76 #
plane-surface $-1 -66.676562384333522 0 9.7316033510538258 0 0 1 1 0 0 forward_v I I I I #
coedge $-1 $202 $203 $125 $204 forward $77 $-1 #
coedge $-1 $205 $79 $124 $204 reversed $49 $-1 #
coedge $-1 $79 $205 $206 $207 reversed $49 $-1 #
coedge $-1 $208 $209 $79 $128 reversed $122 $-1 #
edge $-1 $210 -33.562603340679715 $211 33.562603340679715 $127 $212 forward 7 unknown #
face $-1 $213 $214 $29 $-1 $215 reversed single #
loop $-1 $-1 $216 $80 #
plane-surface $-1 -53.562979848783471 -136.86958677578821 73.218339898410207 1 0 0 0 0.82903758062907751 -0.55919289150049634 forward_v I I I I #
coedge $-1 $217 $218 $219 $220 reversed $81 $-1 #
coedge $-1 $134 $83 $221 $222 reversed $52 $-1 #
coedge $-1 $83 $133 $217 $223 reversed $52 $-1 #
coedge $-1 $219 $224 $83 $136 forward $225 $-1 #
edge $-1 $226 34.872190047214389 $227 41.074094297751152 $135 $228 forward 7 unknown #
loop $-1 $-1 $142 $84 #
plane-surface $-1 -46.563035136375134 -33.562603340679729 3.5369018923825877 0 -0.82903758062907751 0.55919289150049634 1 0 0 forward_v I I I I #
loop $-1 $-1 $229 $54 #
coedge $-1 $140 $140 $141 $230 reversed $85 $-1 #
coedge $-1 $141 $141 $140 $230 forward $87 $-1 #
coedge $-1 $142 $142 $88 $143 forward $137 $-1 #
edge $-1 $231 6.9290398284259556e-017 $231 6.2831853071796004 $142 $232 forward 7 unknown #
loop $-1 $-1 $149 $89 #
plane-surface $-1 -46.563035136375134 -33.562603340679729 3.5369018923825877 0 -0.82903758062907751 0.55919289150049634 1 0 0 forward_v I I I I #
loop $-1 $-1 $233 $57 #
coedge $-1 $147 $147 $148 $234 reversed $90 $-1 #
coedge $-1 $148 $148 $147 $234 forward $92 $-1 #
coedge $-1 $149 $149 $93 $150 forward $144 $-1 #
edge $-1 $235 6.9290398284259556e-017 $235 6.2831853071796004 $149 $236 forward 7 unknown #
face $-1 $237 $238 $32 $-1 $239 forward single #
loop $-1 $-1 $240 $94 #
plane-surface $-1 47.39442930694419 50.050636454979525 142.82155402663602 -1 0 0 0 0.57357644374324357 0.81915203911291934 forward_v I I I I #
coedge $-1 $241 $242 $243 $244 reversed $95 $-1 #
coedge $-1 $156 $97 $245 $246 reversed $61 $-1 #
coedge $-1 $97 $155 $241 $247 reversed $61 $-1 #
coedge $-1 $243 $248 $97 $158 forward $238 $-1 #
edge $-1 $249 -8.5372851131899523 $250 6.4391678832929315 $157 $251 forward 7 unknown #
loop $-1 $-1 $164 $98 #
plane-surface $-1 36.784096601623872 -21.423146588232029 40.746415199683796 0 0.57357644374324357 0.81915203911291934 1 0 0 forward_v I I I I #
loop $-1 $-1 $252 $63 #
coedge $-1 $162 $162 $163 $253 reversed $99 $-1 #
coedge $-1 $163 $163 $162 $253 forward $101 $-1 #
coedge $-1 $164 $164 $102 $165 forward $159 $-1 #
edge $-1 $254 -5.8163985123294931e-016 $254 6.2831853071795996 $164 $255 forward 7 unknown #
loop $-1 $-1 $171 $103 #
plane-surface $-1 36.784096601623872 -21.423146588232029 40.746415199683796 0 0.57357644374324357 0.81915203911291934 1 0 0 forward_v I I I I #
loop $-1 $-1 $256 $66 #
coedge $-1 $169 $169 $170 $257 reversed $104 $-1 #
coedge $-1 $170 $170 $169 $257 forward $106 $-1 #
coedge $-1 $171 $171 $107 $172 forward $166 $-1 #
edge $-1 $258 -5.8163985123294931e-016 $258 6.2831853071795996 $171 $259 forward 7 unknown #
loop $-1 $-1 $178 $108 #
plane-surface $-1 36.784096601623872 -21.423146588232029 40.746415199683796 0 0.57357644374324357 0.81915203911291934 1 0 0 forward_v I I I I #
loop $-1 $-1 $260 $69 #
coedge $-1 $176 $176 $177 $261 reversed $109 $-1 #
coedge $-1 $177 $177 $176 $261 forward $111 $-1 #
coedge $-1 $178 $178 $112 $179 forward $173 $-1 #
edge $-1 $262 -5.8163985123294931e-016 $262 6.2831853071795996 $178 $263 forward 7 unknown #
face $-1 $264 $265 $27 $-1 $266 reversed single #
loop $-1 $-1 $267 $113 #
plane-surface $-1 -62.305368205816833 0 0 1 0 0 0 0 -1 forward_v I I I I #
coedge $-1 $268 $191 $269 $270 forward $114 $-1 #
coedge $-1 $271 $116 $268 $272 forward $73 $-1 #
coedge $-1 $116 $271 $273 $274 forward $73 $-1 #
coedge $-1 $194 $193 $116 $187 reversed $195 $-1 #
edge $-1 $275 -33.562603340679715 $276 33.562603340679715 $186 $277 forward 7 unknown #
coedge $-1 $118 $117 $278 $279 forward $46 $-1 #
coedge $-1 $280 $281 $117 $190 reversed $265 $-1 #
edge $-1 $197 -62.305368205816833 $282 62.305368205816833 $189 $283 forward 7 unknown #
coedge $-1 $183 $284 $118 $192 reversed $114 $-1 #
edge $-1 $285 -62.305368205816833 $196 62.305368205816833 $191 $286 forward 7 unknown #
coedge $-1 $186 $119 $284 $287 forward $195 $-1 #
coedge $-1 $119 $186 $280 $288 reversed $195 $-1 #
loop $-1 $-1 $193 $264 #
vertex $-1 $120 $289 #
vertex $-1 $120 $290 #
straight-curve $-1 62.305368205816833 0 12.731603351053826 0 1 0 I I #
face $-1 $291 $292 $28 $-1 $293 forward single #
loop $-1 $-1 $294 $121 #
plane-surface $-1 -71.047756562850196 0 11.231603351053826 1 0 0 0 0 -1 forward_v I I I I #
coedge $-1 $295 $124 $209 $296 reversed $77 $-1 #
coedge $-1 $124 $295 $297 $298 reversed $77 $-1 #
edge $-1 $299 -12.731603351053826 $211 -9.7316033510538258 $124 $300 forward 7 unknown #
coedge $-1 $126 $125 $301 $302 reversed $49 $-1 #
coedge $-1 $303 $304 $126 $207 forward $305 $-1 #
edge $-1 $210 9.7316033510538258 $306 12.731603351053826 $206 $307 forward 7 unknown #
coedge $-1 $308 $127 $304 $309 forward $122 $-1 #
coedge $-1 $127 $308 $202 $296 forward $122 $-1 #
vertex $-1 $207 $310 #
vertex $-1 $204 $311 #
straight-curve $-1 -62.305368205816833 0 9.7316033510538258 0 1 0 I I #
face $-1 $-1 $225 $29 $-1 $312 forward single #
loop $-1 $-1 $313 $129 #
plane-surface $-1 0 -33.562603340679715 0 0 1 0 0 0 1 forward_v I I I I #
coedge $-1 $314 $315 $316 $317 reversed $130 $-1 #
coedge $-1 $318 $132 $134 $223 forward $81 $-1 #
coedge $-1 $132 $318 $314 $319 forward $81 $-1 #
coedge $-1 $316 $135 $132 $220 forward $225 $-1 #
edge $-1 $227 16.281572855779231 $320 30.281462280595903 $219 $321 forward 7 unknown #
coedge $-1 $322 $323 $133 $222 forward $214 $-1 #
edge $-1 $324 -33.072268056822494 $226 -23.877566598151276 $221 $325 forward 7 unknown #
edge $-1 $227 -11.090813822570333 $324 -2.5250441212413278e-014 $134 $326 forward 7 unknown #
coedge $-1 $135 $316 $322 $327 forward $225 $-1 #
loop $-1 $-1 $316 $213 #
vertex $-1 $222 $328 #
vertex $-1 $136 $329 #
straight-curve $-1 -39.563090423966798 -68.434793387894103 12.731603351053828 0 1 0 I I #
coedge $-1 $229 $229 $-1 $330 reversed $139 $-1 #
edge $-1 $331 0 $331 6.2831853071796004 $140 $332 forward 7 unknown #
vertex $-1 $143 $333 #
ellipse-curve $-1 -49.563011441692993 -30.461651215411337 8.1342526217182129 0 -0.82903758062907751 0.55919289150049634 1 0 0 1 I I #
coedge $-1 $233 $233 $-1 $334 reversed $146 $-1 #
edge $-1 $335 0 $335 6.2831853071796004 $147 $336 forward 7 unknown #
vertex $-1 $150 $337 #
ellipse-curve $-1 -43.563058831057276 -30.461651215411337 8.1342526217182129 0 -0.82903758062907751 0.55919289150049634 1 0 0 1 I I #
face $-1 $-1 $338 $32 $-1 $339 reversed single #
loop $-1 $-1 $157 $151 #
plane-surface $-1 0 0 12.731603351053826 0 0 1 1 0 0 forward_v I I I I #
coedge $-1 $340 $341 $342 $343 reversed $152 $-1 #
coedge $-1 $344 $154 $156 $247 forward $95 $-1 #
coedge $-1 $154 $344 $340 $345 forward $95 $-1 #
coedge $-1 $342 $157 $154 $244 forward $238 $-1 #
edge $-1 $250 7.7817155954916188 $346 29.002381006132254 $243 $347 forward 7 unknown #
coedge $-1 $348 $349 $155 $246 forward $338 $-1 #
edge $-1 $350 -69.165799147458586 $249 -58.679173662264184 $245 $351 forward 7 unknown #
edge $-1 $250 48.842333317946625 $350 67.125206681359444 $156 $352 forward 7 unknown #
coedge $-1 $157 $342 $348 $353 forward $238 $-1 #
vertex $-1 $246 $354 #
vertex $-1 $158 $355 #
straight-curve $-1 26.173763896303555 25.025318227489763 12.73160335105382 0 -1 0 I I #
coedge $-1 $252 $252 $-1 $356 reversed $161 $-1 #
edge $-1 $357 0 $357 6.2831853071796004 $162 $358 forward 7 unknown #
vertex $-1 $165 $359 #
ellipse-curve $-1 30.417896978431685 26.074376842438273 7.4882906084566319 0 0.57357644374324357 0.81915203911291934 1.5 0 0 1 I I #
coedge $-1 $256 $256 $-1 $360 reversed $168 $-1 #
edge $-1 $361 0 $361 6.2831853071796004 $169 $362 forward 7 unknown #
vertex $-1 $172 $363 #
ellipse-curve $-1 36.784096601623872 26.074376842438273 7.4882906084566319 0 0.57357644374324357 0.81915203911291934 1.5 0 0 1 I I #
coedge $-1 $260 $260 $-1 $364 reversed $175 $-1 #
edge $-1 $365 0 $365 6.2831853071796004 $176 $366 forward 7 unknown #
vertex $-1 $179 $367 #
ellipse-curve $-1 43.15029622481606 26.074376842438273 7.4882906084566319 0 0.57357644374324357 0.81915203911291934 1.5 0 0 1 I I #
face $-1 $-1 $195 $27 $-1 $368 reversed single #
loop $-1 $-1 $280 $180 #
plane-surface $-1 0 33.562603340679715 0 0 -1 0 0 0 -1 forward_v I I I I #
coedge $-1 $369 $278 $281 $370 forward $181 $-1 #
coedge $-1 $284 $183 $184 $272 reversed $114 $-1 #
coedge $-1 $278 $369 $183 $270 reversed $181 $-1 #
edge $-1 $285 -12.731603351053826 $371 12.731603351053826 $269 $372 forward 7 unknown #
coedge $-1 $185 $184 $369 $373 forward $73 $-1 #
edge $-1 $276 -62.305368205816833 $371 62.305368205816833 $268 $374 forward 7 unknown #
coedge $-1 $281 $280 $185 $274 reversed $265 $-1 #
edge $-1 $375 -62.305368205816833 $275 62.305368205816833 $273 $376 forward 7 unknown #
vertex $-1 $187 $377 #
vertex $-1 $287 $378 #
straight-curve $-1 62.305368205816833 0 -12.731603351053826 0 -1 0 I I #
coedge $-1 $267 $269 $188 $279 reversed $181 $-1 #
edge $-1 $282 -33.562603340679715 $285 33.562603340679715 $278 $379 forward 7 unknown #
coedge $-1 $273 $189 $194 $288 forward $265 $-1 #
coedge $-1 $189 $273 $267 $370 reversed $265 $-1 #
vertex $-1 $190 $380 #
straight-curve $-1 0 33.562603340679715 12.731603351053826 -1 0 0 I I #
coedge $-1 $191 $268 $193 $287 reversed $114 $-1 #
vertex $-1 $279 $381 #
straight-curve $-1 0 -33.562603340679715 12.731603351053826 1 0 0 I I #
edge $-1 $196 -12.731603351053826 $276 12.731603351053826 $193 $382 forward 7 unknown #
edge $-1 $197 -12.731603351053826 $275 12.731603351053826 $194 $383 forward 7 unknown #
point $-1 62.305368205816833 -33.562603340679715 12.731603351053826 #
point $-1 62.305368205816833 33.562603340679715 12.731603351053826 #
face $-1 $-1 $305 $28 $-1 $384 reversed single #
loop $-1 $-1 $301 $199 #
plane-surface $-1 0 0 12.731603351053826 0 0 1 1 0 0 forward_v I I I I #
coedge $-1 $385 $386 $295 $387 forward $200 $-1 #
coedge $-1 $203 $202 $294 $387 reversed $77 $-1 #
edge $-1 $388 -4.3711941785166744 $211 4.3711941785166815 $202 $389 forward 7 unknown #
coedge $-1 $390 $301 $203 $298 forward $292 $-1 #
edge $-1 $299 62.305368205816833 $391 71.047756562850196 $203 $392 forward 7 unknown #
vertex $-1 $298 $393 #
straight-curve $-1 -62.305368205816833 33.562603340679715 0 0 0 -1 I I #
coedge $-1 $297 $394 $205 $302 forward $292 $-1 #
edge $-1 $306 -33.562603340679715 $299 33.562603340679715 $301 $395 forward 7 unknown #
coedge $-1 $396 $206 $394 $397 reversed $305 $-1 #
coedge $-1 $206 $396 $208 $309 reversed $305 $-1 #
loop $-1 $-1 $206 $291 #
vertex $-1 $207 $398 #
straight-curve $-1 -62.305368205816833 -33.562603340679715 0 0 0 1 I I #
coedge $-1 $209 $208 $385 $399 forward $122 $-1 #
edge $-1 $210 -4.3711941785166815 $400 4.3711941785166744 $304 $401 forward 7 unknown #
point $-1 -62.305368205816841 -33.562603340679715 9.7316033510538258 #
point $-1 -62.305368205816841 33.562603340679715 9.7316033510538258 #
plane-surface $-1 0 0 12.731603351053826 0 0 1 1 0 0 forward_v I I I I #
coedge $-1 $323 $322 $315 $402 forward $214 $-1 #
coedge $-1 $315 $216 $218 $319 reversed $130 $-1 #
coedge $-1 $216 $314 $313 $402 reversed $130 $-1 #
coedge $-1 $224 $219 $216 $317 forward $225 $-1 #
edge $-1 $320 -41.074094297751152 $403 -34.872190047214389 $316 $404 forward 7 unknown #
coedge $-1 $218 $217 $323 $405 reversed $81 $-1 #
edge $-1 $406 2.5250441212413278e-014 $320 11.090813822570333 $314 $407 forward 7 unknown #
vertex $-1 $220 $408 #
straight-curve $-1 -23.281517568187567 -27.360699090142955 12.731603351053826 -1 0 0 I I #
coedge $-1 $313 $221 $224 $327 reversed $214 $-1 #
coedge $-1 $221 $313 $318 $405 forward $214 $-1 #
vertex $-1 $222 $409 #
straight-curve $-1 -39.563090423966798 -33.562603340679715 36.609169949205103 0 0 1 I I #
straight-curve $-1 -39.563090423966798 -33.562603340679729 3.5369018923825877 0 -0.55919289150049634 -0.82903758062907751 I I #
edge $-1 $403 -53.562979848783471 $226 -39.563090423966798 $322 $410 forward 7 unknown #
point $-1 -39.563090423966798 -33.562603340679715 12.731603351053826 #
point $-1 -39.563090423966798 -27.360699090142951 12.731603351053826 #
edge $-1 $411 1 $411 0 $229 $-1 forward 7 unknown #
vertex $-1 $230 $412 #
ellipse-curve $-1 -49.563011441692993 -28.469628270507332 6.790616221482952 0 -0.82903758062907751 0.55919289150049634 1 0 0 1 I I #
point $-1 -48.563011441692993 -30.461651215411326 8.1342526217182058 #
edge $-1 $413 1 $413 0 $233 $-1 forward 7 unknown #
vertex $-1 $234 $414 #
ellipse-curve $-1 -43.563058831057276 -28.469628270507332 6.790616221482952 0 -0.82903758062907751 0.55919289150049634 1 0 0 1 I I #
point $-1 -42.563058831057276 -30.461651215411326 8.1342526217182058 #
loop $-1 $-1 $245 $237 #
plane-surface $-1 0 33.562603340679715 0 0 -1 0 0 0 -1 forward_v I I I I #
coedge $-1 $341 $240 $242 $345 reversed $152 $-1 #
coedge $-1 $240 $340 $415 $416 reversed $152 $-1 #
coedge $-1 $248 $243 $240 $343 forward $238 $-1 #
edge $-1 $346 -6.4391678832929315 $417 8.5372851131899523 $342 $418 forward 7 unknown #
coedge $-1 $242 $241 $349 $419 reversed $95 $-1 #
edge $-1 $420 -67.125206681359444 $346 -48.842333317946625 $340 $421 forward 7 unknown #
vertex $-1 $244 $422 #
straight-curve $-1 18.392048300811936 18.586150344196827 12.731603351053828 1 0 0 I I #
coedge $-1 $415 $245 $248 $353 reversed $338 $-1 #
coedge $-1 $245 $415 $344 $419 forward $338 $-1 #
vertex $-1 $246 $423 #
straight-curve $-1 26.173763896303555 33.562603340679715 71.410777013318011 0 0 1 I I #
straight-curve $-1 26.173763896303555 -21.423146588232029 40.746415199683796 0 0.81915203911291934 -0.57357644374324357 I I #
edge $-1 $417 -47.39442930694419 $249 -26.173763896303555 $348 $424 forward 7 unknown #
point $-1 26.173763896303555 33.562603340679715 12.731603351053826 #
point $-1 26.173763896303555 18.586150344196831 12.731603351053828 #
edge $-1 $425 1 $425 0 $252 $-1 forward 7 unknown #
vertex $-1 $253 $426 #
ellipse-curve $-1 30.417896978431685 24.072303250456464 4.6290332536337431 0 0.57357644374324357 0.81915203911291934 1.5 0 0 1 I I #
point $-1 31.917896978431685 26.074376842438269 7.4882906084566283 #
edge $-1 $427 1 $427 0 $256 $-1 forward 7 unknown #
vertex $-1 $257 $428 #
ellipse-curve $-1 36.784096601623872 24.072303250456464 4.6290332536337431 0 0.57357644374324357 0.81915203911291934 1.5 0 0 1 I I #
point $-1 38.284096601623872 26.074376842438269 7.4882906084566283 #
edge $-1 $429 1 $429 0 $260 $-1 forward 7 unknown #
vertex $-1 $261 $430 #
ellipse-curve $-1 43.15029622481606 24.072303250456464 4.6290332536337431 0 0.57357644374324357 0.81915203911291934 1.5 0 0 1 I I #
point $-1 44.65029622481606 26.074376842438269 7.4882906084566283 #
plane-surface $-1 62.305368205816833 0 0 -1 0 0 0 0 1 forward_v I I I I #
coedge $-1 $269 $267 $271 $373 reversed $181 $-1 #
edge $-1 $282 -12.731603351053826 $375 12.731603351053826 $281 $431 forward 7 unknown #
vertex $-1 $373 $432 #
straight-curve $-1 -62.305368205816833 -33.562603340679715 0 0 0 -1 I I #
edge $-1 $371 -33.562603340679715 $375 33.562603340679715 $369 $433 forward 7 unknown #
straight-curve $-1 0 -33.562603340679715 -12.731603351053826 -1 0 0 I I #
vertex $-1 $274 $434 #
straight-curve $-1 0 33.562603340679715 -12.731603351053826 1 0 0 I I #
point $-1 62.305368205816833 33.562603340679715 -12.731603351053826 #
point $-1 62.305368205816833 -33.562603340679715 -12.731603351053826 #
straight-curve $-1 -62.305368205816833 0 12.731603351053826 0 -1 0 I I #
point $-1 -62.305368205816833 33.562603340679715 12.731603351053826 #
point $-1 -62.305368205816833 -33.562603340679715 12.731603351053826 #
straight-curve $-1 62.305368205816833 -33.562603340679715 0 0 0 -1 I I #
straight-curve $-1 62.305368205816833 33.562603340679715 0 0 0 -1 I I #
plane-surface $-1 0 -33.562603340679715 0 0 1 0 0 0 1 forward_v I I I I #
coedge $-1 $435 $294 $308 $399 reversed $200 $-1 #
coedge $-1 $294 $435 $390 $436 reversed $200 $-1 #
edge $-1 $391 -1.5 $388 1.5 $295 $437 forward 7 unknown #
vertex $-1 $296 $438 #
straight-curve $-1 -66.676562384333522 33.562603340679715 9.7316033510538258 1 0 0 I I #
coedge $-1 $394 $297 $386 $436 forward $292 $-1 #
vertex $-1 $298 $439 #
straight-curve $-1 0 33.562603340679715 12.731603351053826 -1 0 0 I I #
point $-1 -62.305368205816833 33.562603340679715 12.731603351053826 #
coedge $-1 $301 $390 $303 $397 forward $292 $-1 #
straight-curve $-1 -62.305368205816833 0 12.731603351053826 0 1 0 I I #
coedge $-1 $304 $303 $435 $440 forward $305 $-1 #
edge $-1 $441 -71.047756562850196 $306 -62.305368205816833 $303 $442 forward 7 unknown #
point $-1 -62.305368205816833 -33.562603340679715 12.731603351053826 #
edge $-1 $400 -33.562603340679715 $388 33.562603340679715 $385 $443 forward 7 unknown #
vertex $-1 $399 $444 #
straight-curve $-1 -66.676562384333522 -33.562603340679715 9.7316033510538258 -1 0 0 I I #
edge $-1 $403 23.877566598151276 $406 33.072268056822494 $313 $445 forward 7 unknown #
vertex $-1 $327 $446 #
straight-curve $-1 -53.562979848783471 -68.434793387894103 12.731603351053828 0 -1 0 I I #
edge $-1 $406 -30.281462280595903 $324 -16.281572855779231 $323 $447 forward 7 unknown #
vertex $-1 $405 $448 #
straight-curve $-1 -53.562979848783471 -33.562603340679729 3.5369018923825877 0 0.55919289150049634 0.82903758062907751 I I #
point $-1 -53.562979848783471 -27.360699090142951 12.731603351053826 #
point $-1 -39.563090423966798 -33.562603340679715 3.5369018923826085 #
straight-curve $-1 0 -33.562603340679715 12.731603351053826 1 0 0 I I #
vertex $-1 $330 $449 #
point $-1 -48.563011441692993 -28.469628270507332 6.790616221482952 #
vertex $-1 $334 $450 #
point $-1 -42.563058831057276 -28.469628270507332 6.790616221482952 #
coedge $-1 $349 $348 $341 $416 forward $338 $-1 #
edge $-1 $417 58.679173662264184 $420 69.165799147458586 $415 $451 forward 7 unknown #
vertex $-1 $353 $452 #
straight-curve $-1 47.39442930694419 25.025318227489763 12.73160335105382 0 1 0 I I #
edge $-1 $420 -29.002381006132254 $350 -7.7817155954916188 $349 $453 forward 7 unknown #
vertex $-1 $419 $454 #
straight-curve $-1 47.39442930694419 -21.423146588232029 40.746415199683796 0 -0.81915203911291934 0.57357644374324357 I I #
point $-1 47.39442930694419 18.586150344196831 12.731603351053828 #
point $-1 26.173763896303555 33.562603340679715 2.2449778658594326 #
straight-curve $-1 0 33.562603340679715 12.731603351053826 -1 0 0 I I #
vertex $-1 $356 $455 #
point $-1 31.917896978431685 24.072303250456464 4.6290332536337431 #
vertex $-1 $360 $456 #
point $-1 38.284096601623872 24.072303250456464 4.6290332536337431 #
vertex $-1 $364 $457 #
point $-1 44.65029622481606 24.072303250456464 4.6290332536337431 #
straight-curve $-1 -62.305368205816833 33.562603340679715 0 0 0 -1 I I #
point $-1 -62.305368205816833 -33.562603340679715 -12.731603351053826 #
straight-curve $-1 -62.305368205816833 0 -12.731603351053826 0 1 0 I I #
point $-1 -62.305368205816833 33.562603340679715 -12.731603351053826 #
coedge $-1 $386 $385 $396 $440 reversed $200 $-1 #
edge $-1 $391 -33.562603340679715 $441 33.562603340679715 $386 $458 forward 7 unknown #
straight-curve $-1 -71.047756562850196 33.562603340679715 11.231603351053826 0 0 -1 I I #
point $-1 -71.047756562850196 33.562603340679715 9.7316033510538258 #
point $-1 -71.047756562850196 33.562603340679715 12.731603351053826 #
edge $-1 $441 -1.5 $400 1.5 $435 $459 forward 7 unknown #
vertex $-1 $436 $460 #
straight-curve $-1 0 -33.562603340679715 12.731603351053826 1 0 0 I I #
straight-curve $-1 -71.047756562850196 0 9.7316033510538258 0 1 0 I I #
point $-1 -71.047756562850196 -33.562603340679715 9.7316033510538258 #
straight-curve $-1 -53.562979848783471 -33.562603340679715 36.609169949205103 0 0 -1 I I #
point $-1 -53.562979848783471 -33.562603340679715 12.731603351053826 #
straight-curve $-1 -23.281517568187567 -33.562603340679715 3.5369018923826063 1 0 0 I I #
point $-1 -53.562979848783471 -33.562603340679715 3.5369018923826085 #
point $-1 -49.563011441692993 -27.640590689878255 6.231423329982456 #
point $-1 -43.563058831057276 -27.640590689878255 6.231423329982456 #
straight-curve $-1 47.39442930694419 33.562603340679715 71.410777013318011 0 0 -1 I I #
point $-1 47.39442930694419 33.562603340679715 12.731603351053826 #
straight-curve $-1 18.392048300811936 33.562603340679715 2.2449778658594326 -1 0 0 I I #
point $-1 47.39442930694419 33.562603340679715 2.2449778658594326 #
point $-1 30.417896978431685 23.211938584841597 3.4003051949643641 #
point $-1 36.784096601623872 23.211938584841597 3.4003051949643641 #
point $-1 43.15029622481606 23.211938584841597 3.4003051949643641 #
straight-curve $-1 -71.047756562850196 0 12.731603351053826 0 -1 0 I I #
straight-curve $-1 -71.047756562850196 -33.562603340679715 11.231603351053826 0 0 -1 I I #
point $-1 -71.047756562850196 -33.562603340679715 12.731603351053826 #
End-of-ACIS-data 