500 0 13 0           
7 Unknown 11 ACIS 5.0 NT 24 Thu Mar 25 20:16:32 1999 
-1 9.9999999999999995e-007 1e-010 
body $-1 $13 $-1 $14 #
body $-1 $15 $-1 $16 #
body $-1 $17 $-1 $18 #
body $-1 $19 $-1 $20 #
body $-1 $21 $-1 $22 #
body $-1 $23 $-1 $24 #
body $-1 $25 $-1 $26 #
body $-1 $27 $-1 $28 #
body $-1 $29 $-1 $30 #
body $-1 $31 $-1 $32 #
body $-1 $33 $-1 $34 #
body $-1 $35 $-1 $36 #
body $-1 $37 $-1 $38 #
lump $-1 $-1 $39 $0 #
transform $-1 1 0 0 0 1 0 0 0 1 68.333384197515784 41.340581732824312 11.829384087195471 1 rotate no_reflect no_shear #
lump $-1 $-1 $40 $1 #
transform $-1 1 0 0 0 1 0 0 0 1 68.333384197515784 41.340581732824312 11.829384087195471 1 rotate no_reflect no_shear #
lump $-1 $-1 $41 $2 #
transform $-1 1 0 0 0 1 0 0 0 1 68.333384197515784 41.340581732824312 11.829384087195471 1 rotate no_reflect no_shear #
lump $-1 $-1 $42 $3 #
transform $-1 1 0 0 0 1 0 0 0 1 68.333384197515784 41.340581732824312 11.829384087195471 1 rotate no_reflect no_shear #
lump $-1 $-1 $43 $4 #
transform $-1 1 0 0 0 1 0 0 0 1 68.333384197515784 41.340581732824312 11.829384087195471 1 rotate no_reflect no_shear #
lump $-1 $-1 $44 $5 #
transform $-1 1 0 0 0 1 0 0 0 1 68.333384197515784 41.340581732824312 11.829384087195471 1 rotate no_reflect no_shear #
lump $-1 $-1 $45 $6 #
transform $-1 1 0 0 0 1 0 0 0 1 68.333384197515784 41.340581732824312 11.829384087195471 1 rotate no_reflect no_shear #
lump $-1 $-1 $46 $7 #
transform $-1 1 0 0 0 1 0 0 0 1 68.333384197515784 41.340581732824312 11.829384087195471 1 rotate no_reflect no_shear #
lump $-1 $-1 $47 $8 #
transform $-1 1 0 0 0 1 0 0 0 1 68.333384197515784 41.340581732824312 11.829384087195471 1 rotate no_reflect no_shear #
lump $-1 $-1 $48 $9 #
transform $-1 1 0 0 0 1 0 0 0 1 68.333384197515784 41.340581732824312 11.829384087195471 1 rotate no_reflect no_shear #
lump $-1 $-1 $49 $10 #
transform $-1 1 0 0 0 1 0 0 0 1 68.333384197515784 41.340581732824312 11.829384087195471 1 rotate no_reflect no_shear #
lump $-1 $-1 $50 $11 #
transform $-1 1 0 0 0 1 0 0 0 1 68.333384197515784 41.340581732824312 11.829384087195471 1 rotate no_reflect no_shear #
lump $-1 $-1 $51 $12 #
transform $-1 1 0 0 0 1 0 0 0 1 68.333384197515784 41.340581732824312 11.829384087195471 1 rotate no_reflect no_shear #
shell $-1 $-1 $-1 $52 $-1 $13 #
shell $-1 $-1 $-1 $53 $-1 $15 #
shell $-1 $-1 $-1 $54 $-1 $17 #
shell $-1 $-1 $-1 $55 $-1 $19 #
shell $-1 $-1 $-1 $56 $-1 $21 #
shell $-1 $-1 $-1 $57 $-1 $23 #
shell $-1 $-1 $-1 $58 $-1 $25 #
shell $-1 $-1 $-1 $59 $-1 $27 #
shell $-1 $-1 $-1 $60 $-1 $29 #
shell $-1 $-1 $-1 $61 $-1 $31 #
shell $-1 $-1 $-1 $62 $-1 $33 #
shell $-1 $-1 $-1 $63 $-1 $35 #
shell $-1 $-1 $-1 $64 $-1 $37 #
face $-1 $65 $66 $39 $-1 $67 forward single #
face $-1 $68 $69 $40 $-1 $70 reversed single #
face $-1 $71 $72 $41 $-1 $73 reversed single #
face $-1 $74 $75 $42 $-1 $76 forward single #
face $-1 $77 $78 $43 $-1 $79 reversed single #
face $-1 $80 $81 $44 $-1 $82 forward single #
face $-1 $83 $84 $45 $-1 $85 reversed single #
face $-1 $86 $87 $46 $-1 $88 forward single #
face $-1 $89 $90 $47 $-1 $91 reversed single #
face $-1 $92 $93 $48 $-1 $94 forward single #
face $-1 $95 $96 $49 $-1 $97 reversed single #
face $-1 $98 $99 $50 $-1 $100 forward single #
face $-1 $101 $102 $51 $-1 $103 forward single #
face $-1 $104 $105 $39 $-1 $106 reversed single #
loop $-1 $-1 $107 $52 #
plane-surface $-1 0 0 11.829384087195471 0 0 1 1 0 0 forward_v I I I I #
face $-1 $108 $109 $40 $-1 $110 reversed single #
loop $-1 $-1 $111 $53 #
plane-surface $-1 0 -35.803305778776327 6.5109808004818177 0 0 1 1 0 0 forward_v I I I I #
face $-1 $112 $113 $41 $-1 $114 reversed single #
loop $-1 $-1 $115 $54 #
plane-surface $-1 -68.333384197515812 -24.806427247311014 0.97490498451104202 -0.69465837861970381 0 0.71933979245794832 0.71933979245794832 0 0.69465837861970381 forward_v I I I I #
face $-1 $116 $117 $42 $-1 $118 forward single #
loop $-1 $119 $120 $55 #
cone-surface $-1 -60.669957195435529 -24.806427247311014 4.2861874480496915 0.69465837861970381 0 -0.71933979245794832 1.4386795849158966 0 1.3893167572394076 1 I I 0 1 2 forward I I I I #
face $-1 $121 $122 $43 $-1 $123 reversed single #
loop $-1 $-1 $124 $56 #
plane-surface $-1 -163.27009994200301 -12.364376935340188 99.284749797691546 0 1 0 -0.69465837861970381 0 0.71933979245794832 forward_v I I I I #
face $-1 $125 $126 $44 $-1 $127 forward single #
loop $-1 $128 $129 $57 #
cone-surface $-1 -60.669957195435529 -6.9047743579228538 4.2861874480496915 0.69465837861970381 0 -0.71933979245794832 1.4386795849158966 0 1.3893167572394076 1 I I 0 1 2 forward I I I I #
face $-1 $130 $131 $45 $-1 $132 reversed single #
loop $-1 $-1 $133 $58 #
plane-surface $-1 -163.27009994200301 5.5372759540479723 99.284749797691546 0 1 0 -0.69465837861970381 0 0.71933979245794832 forward_v I I I I #
face $-1 $134 $135 $46 $-1 $136 forward single #
loop $-1 $137 $138 $59 #
cone-surface $-1 -60.669957195435529 10.996878531465306 4.2861874480496915 0.69465837861970381 0 -0.71933979245794832 1.4386795849158966 0 1.3893167572394076 1 I I 0 1 2 forward I I I I #
face $-1 $139 $140 $47 $-1 $141 reversed single #
loop $-1 $-1 $142 $60 #
plane-surface $-1 -163.27009994200301 23.43892884343613 99.284749797691546 0 1 0 -0.69465837861970381 0 0.71933979245794832 forward_v I I I I #
face $-1 $143 $144 $48 $-1 $145 forward single #
loop $-1 $146 $147 $61 #
cone-surface $-1 -60.669957195435529 28.898531420853466 4.2861874480496915 0.69465837861970381 0 -0.71933979245794832 1.4386795849158966 0 1.3893167572394076 1 I I 0 1 2 forward I I I I #
face $-1 $148 $149 $49 $-1 $150 reversed single #
loop $-1 $-1 $151 $62 #
plane-surface $-1 21.575690033962815 -4.5788107395132105 187.68280797635424 0 -1 0 -0.51503808176128008 0 -0.85716729658548041 forward_v I I I I #
face $-1 $152 $153 $50 $-1 $154 forward single #
loop $-1 $155 $156 $63 #
cone-surface $-1 56.700980968419699 -16.863314580415498 2.8068825904358237 -0.51503808176128008 0 -0.85716729658548041 1.7143345931709608 0 -1.0300761635225602 1 I I 0 1 2 forward I I I I #
face $-1 $157 $158 $51 $-1 $159 forward single #
loop $-1 $160 $161 $64 #
cone-surface $-1 56.700980968419699 -9.4926122758741229 2.8068825904358237 -0.51503808176128008 0 -0.85716729658548041 1.7143345931709608 0 -1.0300761635225602 1 I I 0 1 2 forward I I I I #
face $-1 $162 $163 $39 $-1 $164 reversed single #
loop $-1 $-1 $165 $65 #
plane-surface $-1 0 0 -11.829384087195471 0 0 1 1 0 0 forward_v I I I I #
coedge $-1 $166 $167 $168 $169 forward $66 $-1 #
face $-1 $170 $171 $40 $-1 $172 reversed single #
loop $-1 $-1 $173 $68 #
plane-surface $-1 0 -30.266029824728342 9.1701824438386446 0 -1 0 0 0 -1 forward_v I I I I #
coedge $-1 $174 $175 $176 $177 reversed $69 $-1 #
face $-1 $178 $179 $41 $-1 $180 forward single #
loop $-1 $-1 $181 $71 #
plane-surface $-1 -163.27009994200301 -19.346824669893678 99.284749797691546 0 -1 0 0.69465837861970381 0 -0.71933979245794832 forward_v I I I I #
coedge $-1 $182 $183 $184 $185 reversed $72 $-1 #
face $-1 $-1 $186 $42 $-1 $187 forward single #
loop $-1 $188 $189 $74 #
cone-surface $-1 -57.931942762759604 -24.806427247311014 1.4508905677881803 0.69465837861970381 0 -0.71933979245794832 0.71933979245794832 0 0.69465837861970381 1 I I -0.70710678118654746 0.70710678118654746 1 forward I I I I #
loop $-1 $-1 $190 $55 #
coedge $-1 $120 $120 $191 $192 reversed $75 $-1 #
face $-1 $193 $194 $43 $-1 $195 reversed single #
loop $-1 $-1 $196 $77 #
plane-surface $-1 -68.333384197515812 -6.9047743579228538 0.97490498451104202 -0.69465837861970381 0 0.71933979245794832 0.71933979245794832 0 0.69465837861970381 forward_v I I I I #
coedge $-1 $197 $198 $199 $200 reversed $78 $-1 #
face $-1 $-1 $201 $44 $-1 $202 forward single #
loop $-1 $203 $204 $80 #
cone-surface $-1 -57.931942762759604 -6.9047743579228538 1.4508905677881803 0.69465837861970381 0 -0.71933979245794832 0.71933979245794832 0 0.69465837861970381 1 I I -0.70710678118654746 0.70710678118654746 1 forward I I I I #
loop $-1 $-1 $205 $57 #
coedge $-1 $129 $129 $206 $207 reversed $81 $-1 #
face $-1 $208 $209 $45 $-1 $210 reversed single #
loop $-1 $-1 $211 $83 #
plane-surface $-1 -68.333384197515812 10.996878531465306 0.97490498451104202 -0.69465837861970381 0 0.71933979245794832 0.71933979245794832 0 0.69465837861970381 forward_v I I I I #
coedge $-1 $212 $213 $214 $215 reversed $84 $-1 #
face $-1 $-1 $216 $46 $-1 $217 forward single #
loop $-1 $218 $219 $86 #
cone-surface $-1 -57.931942762759604 10.996878531465306 1.4508905677881803 0.69465837861970381 0 -0.71933979245794832 0.71933979245794832 0 0.69465837861970381 1 I I -0.70710678118654746 0.70710678118654746 1 forward I I I I #
loop $-1 $-1 $220 $59 #
coedge $-1 $138 $138 $221 $222 reversed $87 $-1 #
face $-1 $223 $224 $47 $-1 $225 reversed single #
loop $-1 $-1 $226 $89 #
plane-surface $-1 -68.333384197515812 28.898531420853466 0.97490498451104202 -0.69465837861970381 0 0.71933979245794832 0.71933979245794832 0 0.69465837861970381 forward_v I I I I #
coedge $-1 $227 $228 $229 $230 reversed $90 $-1 #
face $-1 $-1 $231 $48 $-1 $232 forward single #
loop $-1 $233 $234 $92 #
cone-surface $-1 -57.931942762759604 28.898531420853466 1.4508905677881803 0.69465837861970381 0 -0.71933979245794832 0.71933979245794832 0 0.69465837861970381 1 I I -0.70710678118654746 0.70710678118654746 1 forward I I I I #
loop $-1 $-1 $235 $61 #
coedge $-1 $147 $147 $236 $237 reversed $93 $-1 #
face $-1 $238 $239 $49 $-1 $240 reversed single #
loop $-1 $-1 $241 $95 #
plane-surface $-1 -48.812900200727384 -13.177963428144814 70.536523578111058 0.51503808176128008 0 0.85716729658548041 0.85716729658548041 0 -0.51503808176128008 forward_v I I I I #
coedge $-1 $242 $243 $244 $245 reversed $96 $-1 #
face $-1 $-1 $246 $50 $-1 $247 forward single #
loop $-1 $248 $249 $98 #
cone-surface $-1 54.27413888004736 -16.863314580415498 -1.2320608310219967 -0.51503808176128008 0 -0.85716729658548041 0.85716729658548041 0 -0.51503808176128008 1 I I -0.70710678118654768 0.70710678118654735 1 forward I I I I #
loop $-1 $-1 $250 $63 #
coedge $-1 $156 $156 $251 $252 reversed $99 $-1 #
face $-1 $-1 $253 $51 $-1 $254 forward single #
loop $-1 $255 $256 $101 #
cone-surface $-1 54.27413888004736 -9.4926122758741229 -1.2320608310219967 -0.51503808176128008 0 -0.85716729658548041 0.85716729658548041 0 -0.51503808176128008 1 I I -0.70710678118654768 0.70710678118654735 1 forward I I I I #
loop $-1 $-1 $257 $64 #
coedge $-1 $161 $161 $258 $259 reversed $102 $-1 #
face $-1 $260 $261 $39 $-1 $262 reversed single #
loop $-1 $-1 $263 $104 #
plane-surface $-1 0 -41.340581732824312 0 0 1 0 0 0 1 forward_v I I I I #
coedge $-1 $264 $265 $266 $267 forward $105 $-1 #
coedge $-1 $268 $107 $269 $270 forward $66 $-1 #
coedge $-1 $107 $268 $271 $272 forward $66 $-1 #
coedge $-1 $273 $274 $107 $169 reversed $275 $-1 #
edge $-1 $276 -41.340581732824312 $277 41.340581732824312 $168 $278 forward 7 unknown #
face $-1 $279 $280 $40 $-1 $281 reversed single #
loop $-1 $-1 $282 $108 #
plane-surface $-1 -68.333384197515784 0 0 1 0 0 0 0 -1 forward_v I I I I #
coedge $-1 $283 $284 $285 $286 reversed $109 $-1 #
coedge $-1 $287 $111 $288 $289 reversed $69 $-1 #
coedge $-1 $111 $287 $290 $291 forward $69 $-1 #
coedge $-1 $292 $293 $111 $177 forward $294 $-1 #
edge $-1 $295 -23.438928843436148 $296 -12.364376935340179 $176 $297 forward 7 unknown #
face $-1 $298 $299 $41 $-1 $300 reversed single #
loop $-1 $-1 $184 $112 #
plane-surface $-1 0 0 11.829384087195471 0 0 1 1 0 0 forward_v I I I I #
coedge $-1 $301 $302 $303 $304 reversed $113 $-1 #
coedge $-1 $305 $115 $306 $307 reversed $72 $-1 #
coedge $-1 $115 $305 $301 $308 forward $72 $-1 #
coedge $-1 $303 $309 $115 $185 forward $179 $-1 #
edge $-1 $310 -17.862816201072835 $311 -6.9436110462381713 $184 $312 forward 7 unknown #
loop $-1 $-1 $191 $116 #
plane-surface $-1 -68.333384197515812 -24.806427247311014 0.97490498451104202 -0.69465837861970381 0 0.71933979245794832 0.71933979245794832 0 0.69465837861970381 forward_v I I I I #
loop $-1 $-1 $313 $74 #
coedge $-1 $189 $189 $190 $314 reversed $117 $-1 #
coedge $-1 $190 $190 $189 $314 forward $119 $-1 #
coedge $-1 $191 $191 $120 $192 forward $186 $-1 #
edge $-1 $315 0 $315 6.2831853071796004 $191 $316 forward 7 unknown #
face $-1 $317 $318 $43 $-1 $319 forward single #
loop $-1 $-1 $320 $121 #
plane-surface $-1 -163.27009994200301 -1.44517178050552 99.284749797691546 0 -1 0 0.69465837861970381 0 -0.71933979245794832 forward_v I I I I #
coedge $-1 $321 $322 $323 $324 reversed $122 $-1 #
coedge $-1 $198 $124 $325 $326 reversed $78 $-1 #
coedge $-1 $124 $197 $321 $327 reversed $78 $-1 #
coedge $-1 $323 $328 $124 $200 forward $318 $-1 #
edge $-1 $329 13.301665773485723 $330 24.541807669533767 $199 $331 forward 7 unknown #
loop $-1 $-1 $206 $125 #
plane-surface $-1 -68.333384197515812 -6.9047743579228538 0.97490498451104202 -0.69465837861970381 0 0.71933979245794832 0.71933979245794832 0 0.69465837861970381 forward_v I I I I #
loop $-1 $-1 $332 $80 #
coedge $-1 $204 $204 $205 $333 reversed $126 $-1 #
coedge $-1 $205 $205 $204 $333 forward $128 $-1 #
coedge $-1 $206 $206 $129 $207 forward $201 $-1 #
edge $-1 $334 0 $334 6.2831853071796004 $206 $335 forward 7 unknown #
face $-1 $336 $337 $45 $-1 $338 forward single #
loop $-1 $-1 $339 $130 #
plane-surface $-1 -163.27009994200301 16.456481108882642 99.284749797691546 0 -1 0 0.69465837861970381 0 -0.71933979245794832 forward_v I I I I #
coedge $-1 $340 $341 $342 $343 reversed $131 $-1 #
coedge $-1 $213 $133 $344 $345 reversed $84 $-1 #
coedge $-1 $133 $212 $340 $346 reversed $84 $-1 #
coedge $-1 $342 $347 $133 $215 forward $337 $-1 #
edge $-1 $348 13.301665773485723 $349 24.541807669533767 $214 $350 forward 7 unknown #
loop $-1 $-1 $221 $134 #
plane-surface $-1 -68.333384197515812 10.996878531465306 0.97490498451104202 -0.69465837861970381 0 0.71933979245794832 0.71933979245794832 0 0.69465837861970381 forward_v I I I I #
loop $-1 $-1 $351 $86 #
coedge $-1 $219 $219 $220 $352 reversed $135 $-1 #
coedge $-1 $220 $220 $219 $352 forward $137 $-1 #
coedge $-1 $221 $221 $138 $222 forward $216 $-1 #
edge $-1 $353 0 $353 6.2831853071796004 $221 $354 forward 7 unknown #
face $-1 $355 $356 $47 $-1 $357 forward single #
loop $-1 $-1 $358 $139 #
plane-surface $-1 -163.27009994200301 34.358133998270802 99.284749797691546 0 -1 0 0.69465837861970381 0 -0.71933979245794832 forward_v I I I I #
coedge $-1 $359 $360 $361 $362 reversed $140 $-1 #
coedge $-1 $228 $142 $363 $364 reversed $90 $-1 #
coedge $-1 $142 $227 $359 $365 reversed $90 $-1 #
coedge $-1 $361 $366 $142 $230 forward $356 $-1 #
edge $-1 $367 13.301665773485723 $368 24.541807669533767 $229 $369 forward 7 unknown #
loop $-1 $-1 $236 $143 #
plane-surface $-1 -68.333384197515812 28.898531420853466 0.97490498451104202 -0.69465837861970381 0 0.71933979245794832 0.71933979245794832 0 0.69465837861970381 forward_v I I I I #
loop $-1 $-1 $370 $92 #
coedge $-1 $234 $234 $235 $371 reversed $144 $-1 #
coedge $-1 $235 $235 $234 $371 forward $146 $-1 #
coedge $-1 $236 $236 $147 $237 forward $231 $-1 #
edge $-1 $372 0 $372 6.2831853071796004 $236 $373 forward 7 unknown #
face $-1 $374 $375 $49 $-1 $376 reversed single #
loop $-1 $-1 $377 $148 #
plane-surface $-1 21.575690033962815 -21.777116116776419 187.68280797635424 0 1 0 0.51503808176128008 0 0.85716729658548041 forward_v I I I I #
coedge $-1 $378 $379 $380 $381 reversed $149 $-1 #
coedge $-1 $243 $151 $382 $383 reversed $96 $-1 #
coedge $-1 $151 $242 $378 $384 reversed $96 $-1 #
coedge $-1 $380 $385 $151 $245 forward $386 $-1 #
edge $-1 $387 -57.545539180534377 $388 -38.104340735564392 $244 $389 forward 7 unknown #
loop $-1 $-1 $251 $152 #
plane-surface $-1 -48.812900200727384 -13.177963428144814 70.536523578111058 0.51503808176128008 0 0.85716729658548041 0.85716729658548041 0 -0.51503808176128008 forward_v I I I I #
loop $-1 $-1 $390 $98 #
coedge $-1 $249 $249 $250 $391 reversed $153 $-1 #
coedge $-1 $250 $250 $249 $391 forward $155 $-1 #
coedge $-1 $251 $251 $156 $252 forward $246 $-1 #
edge $-1 $392 0 $392 6.2831853071796004 $251 $393 forward 7 unknown #
loop $-1 $-1 $258 $157 #
plane-surface $-1 -48.812900200727384 -13.177963428144814 70.536523578111058 0.51503808176128008 0 0.85716729658548041 0.85716729658548041 0 -0.51503808176128008 forward_v I I I I #
loop $-1 $-1 $394 $101 #
coedge $-1 $256 $256 $257 $395 reversed $158 $-1 #
coedge $-1 $257 $257 $256 $395 forward $160 $-1 #
coedge $-1 $258 $258 $161 $259 forward $253 $-1 #
edge $-1 $396 0 $396 6.2831853071796004 $258 $397 forward 7 unknown #
face $-1 $398 $399 $39 $-1 $400 reversed single #
loop $-1 $-1 $401 $162 #
plane-surface $-1 -68.333384197515784 0 0 1 0 0 0 0 -1 forward_v I I I I #
coedge $-1 $402 $271 $403 $404 forward $163 $-1 #
coedge $-1 $405 $165 $402 $406 forward $105 $-1 #
coedge $-1 $165 $405 $407 $408 forward $105 $-1 #
coedge $-1 $274 $273 $165 $267 reversed $275 $-1 #
edge $-1 $409 -41.340581732824312 $410 41.340581732824312 $266 $411 forward 7 unknown #
coedge $-1 $167 $166 $412 $413 forward $66 $-1 #
coedge $-1 $414 $415 $166 $270 reversed $399 $-1 #
edge $-1 $277 -68.333384197515784 $416 68.333384197515784 $269 $417 forward 7 unknown #
coedge $-1 $263 $418 $167 $272 reversed $163 $-1 #
edge $-1 $419 -68.333384197515784 $276 68.333384197515784 $271 $420 forward 7 unknown #
coedge $-1 $266 $168 $418 $421 forward $275 $-1 #
coedge $-1 $168 $266 $414 $422 reversed $275 $-1 #
loop $-1 $-1 $273 $398 #
vertex $-1 $169 $423 #
vertex $-1 $169 $424 #
straight-curve $-1 68.333384197515784 0 11.829384087195471 0 1 0 I I #
face $-1 $425 $426 $40 $-1 $427 forward single #
loop $-1 $-1 $288 $170 #
plane-surface $-1 0 -41.340581732824312 0 0 1 0 0 0 1 forward_v I I I I #
coedge $-1 $428 $429 $284 $430 forward $171 $-1 #
coedge $-1 $290 $173 $292 $431 reversed $109 $-1 #
coedge $-1 $173 $290 $282 $430 reversed $109 $-1 #
coedge $-1 $432 $433 $173 $286 forward $426 $-1 #
edge $-1 $434 -68.333384197515784 $435 68.333384197515784 $285 $436 forward 7 unknown #
coedge $-1 $175 $174 $428 $437 reversed $69 $-1 #
coedge $-1 $438 $439 $174 $289 forward $280 $-1 #
edge $-1 $440 -68.333384197515784 $295 68.333384197515784 $288 $441 forward 7 unknown #
coedge $-1 $284 $283 $175 $291 reversed $109 $-1 #
edge $-1 $442 -68.333384197515784 $296 68.333384197515784 $290 $443 forward 7 unknown #
coedge $-1 $444 $176 $283 $431 forward $294 $-1 #
coedge $-1 $176 $444 $438 $445 forward $294 $-1 #
loop $-1 $-1 $292 $425 #
vertex $-1 $289 $446 #
vertex $-1 $177 $447 #
straight-curve $-1 68.333384197515784 -17.901652889388163 6.5109808004818177 0 1 0 I I #
face $-1 $-1 $448 $41 $-1 $449 forward single #
loop $-1 $-1 $450 $178 #
plane-surface $-1 -68.333384197515784 0 0 1 0 0 0 0 -1 forward_v I I I I #
coedge $-1 $302 $181 $183 $308 reversed $113 $-1 #
coedge $-1 $181 $301 $450 $451 reversed $113 $-1 #
coedge $-1 $452 $184 $181 $304 forward $179 $-1 #
edge $-1 $311 -24.541807669533767 $453 -13.301665773485723 $303 $454 forward 7 unknown #
coedge $-1 $183 $182 $455 $456 reversed $72 $-1 #
coedge $-1 $457 $458 $182 $307 forward $448 $-1 #
edge $-1 $459 -27.423920279412656 $310 -11.798284086479363 $306 $460 forward 7 unknown #
edge $-1 $461 3.9494141999918586e-014 $311 15.625636192933332 $301 $462 forward 7 unknown #
coedge $-1 $184 $452 $457 $463 forward $179 $-1 #
vertex $-1 $307 $464 #
vertex $-1 $185 $465 #
straight-curve $-1 -57.09324230146774 -12.403213623655507 11.829384087195471 0 1 0 I I #
coedge $-1 $313 $313 $-1 $466 reversed $188 $-1 #
edge $-1 $467 0 $467 6.2831853071796004 $189 $468 forward 7 unknown #
vertex $-1 $192 $469 #
ellipse-curve $-1 -62.713313249491762 -24.806427247311014 6.40214453585327 -0.69465837861970381 0 0.71933979245794832 1.4386795849158966 0 1.3893167572394076 1 I I #
face $-1 $-1 $470 $43 $-1 $471 reversed single #
loop $-1 $-1 $199 $193 #
plane-surface $-1 0 0 11.829384087195471 0 0 1 1 0 0 forward_v I I I I #
coedge $-1 $472 $473 $474 $475 reversed $194 $-1 #
coedge $-1 $476 $196 $198 $327 forward $122 $-1 #
coedge $-1 $196 $476 $472 $477 forward $122 $-1 #
coedge $-1 $474 $199 $196 $324 forward $318 $-1 #
edge $-1 $330 -8.9119897563787607 $478 2.0072153984559069 $323 $479 forward 7 unknown #
coedge $-1 $480 $481 $197 $326 forward $470 $-1 #
edge $-1 $482 -48.667469914334703 $329 -37.812990811650302 $325 $483 forward 7 unknown #
edge $-1 $330 -15.625636192933332 $482 -3.9494141999918586e-014 $198 $484 forward 7 unknown #
coedge $-1 $199 $474 $480 $485 forward $318 $-1 #
vertex $-1 $200 $486 #
vertex $-1 $200 $487 #
straight-curve $-1 -81.635049971001507 -12.364376935340188 11.829384087195471 1 0 0 I I #
coedge $-1 $332 $332 $-1 $488 reversed $203 $-1 #
edge $-1 $489 0 $489 6.2831853071796004 $204 $490 forward 7 unknown #
vertex $-1 $207 $491 #
ellipse-curve $-1 -62.713313249491762 -6.9047743579228538 6.40214453585327 -0.69465837861970381 0 0.71933979245794832 1.4386795849158966 0 1.3893167572394076 1 I I #
face $-1 $-1 $492 $45 $-1 $493 reversed single #
loop $-1 $-1 $214 $208 #
plane-surface $-1 0 0 11.829384087195471 0 0 1 1 0 0 forward_v I I I I #
coedge $-1 $494 $495 $496 $497 reversed $209 $-1 #
coedge $-1 $498 $211 $213 $346 forward $131 $-1 #
coedge $-1 $211 $498 $494 $499 forward $131 $-1 #
coedge $-1 $496 $214 $211 $343 forward $337 $-1 #
edge $-1 $349 0.038836688315319279 $500 10.958041843149989 $342 $501 forward 7 unknown #
coedge $-1 $502 $503 $212 $345 forward $492 $-1 #
edge $-1 $504 -48.667469914334703 $348 -37.812990811650302 $344 $505 forward 7 unknown #
edge $-1 $349 -15.625636192933332 $504 -3.9494141999918586e-014 $213 $506 forward 7 unknown #
coedge $-1 $214 $496 $502 $507 forward $337 $-1 #
vertex $-1 $215 $508 #
vertex $-1 $215 $509 #
straight-curve $-1 -81.635049971001507 5.5372759540479723 11.829384087195471 1 0 0 I I #
coedge $-1 $351 $351 $-1 $510 reversed $218 $-1 #
edge $-1 $511 0 $511 6.2831853071796004 $219 $512 forward 7 unknown #
vertex $-1 $222 $513 #
ellipse-curve $-1 -62.713313249491762 10.996878531465306 6.40214453585327 -0.69465837861970381 0 0.71933979245794832 1.4386795849158966 0 1.3893167572394076 1 I I #
face $-1 $-1 $514 $47 $-1 $515 reversed single #
loop $-1 $-1 $229 $223 #
plane-surface $-1 0 0 11.829384087195471 0 0 1 1 0 0 forward_v I I I I #
coedge $-1 $516 $517 $518 $519 reversed $224 $-1 #
coedge $-1 $520 $226 $228 $365 forward $140 $-1 #
coedge $-1 $226 $520 $516 $521 forward $140 $-1 #
coedge $-1 $518 $229 $226 $362 forward $356 $-1 #
edge $-1 $368 8.9896631330093975 $522 19.908868287844069 $361 $523 forward 7 unknown #
coedge $-1 $524 $525 $227 $364 forward $514 $-1 #
edge $-1 $526 -48.667469914334703 $367 -37.812990811650302 $363 $527 forward 7 unknown #
edge $-1 $368 -15.625636192933332 $526 -3.9494141999918586e-014 $228 $528 forward 7 unknown #
coedge $-1 $229 $518 $524 $529 forward $356 $-1 #
vertex $-1 $230 $530 #
vertex $-1 $230 $531 #
straight-curve $-1 -81.635049971001507 23.43892884343613 11.829384087195471 1 0 0 I I #
coedge $-1 $370 $370 $-1 $532 reversed $233 $-1 #
edge $-1 $533 0 $533 6.2831853071796004 $234 $534 forward 7 unknown #
vertex $-1 $237 $535 #
ellipse-curve $-1 -62.713313249491762 28.898531420853466 6.40214453585327 -0.69465837861970381 0 0.71933979245794832 1.4386795849158966 0 1.3893167572394076 1 I I #
face $-1 $-1 $386 $49 $-1 $536 forward single #
loop $-1 $-1 $537 $238 #
plane-surface $-1 68.333384197515784 0 0 -1 0 0 0 0 1 forward_v I I I I #
coedge $-1 $538 $539 $540 $541 reversed $239 $-1 #
coedge $-1 $542 $241 $243 $384 forward $149 $-1 #
coedge $-1 $241 $542 $538 $543 forward $149 $-1 #
coedge $-1 $540 $244 $241 $381 forward $386 $-1 #
edge $-1 $388 -2.0101709745591965 $544 15.188134402704012 $380 $545 forward 7 unknown #
coedge $-1 $546 $547 $242 $383 forward $375 $-1 #
edge $-1 $548 -93.693470644756246 $387 -82.012019900981642 $382 $549 forward 7 unknown #
edge $-1 $388 113.98601689831223 $548 136.66676839503154 $243 $550 forward 7 unknown #
coedge $-1 $244 $540 $546 $551 forward $386 $-1 #
loop $-1 $-1 $540 $374 #
vertex $-1 $383 $552 #
vertex $-1 $245 $553 #
straight-curve $-1 10.787845016981407 -4.5788107395132105 11.829384087195479 -1 0 0 I I #
coedge $-1 $390 $390 $-1 $554 reversed $248 $-1 #
edge $-1 $555 0 $555 6.2831853071796004 $249 $556 forward 7 unknown #
vertex $-1 $252 $557 #
ellipse-curve $-1 58.61278497503077 -16.863314580415498 5.9886587153081896 0.51503808176128008 0 0.85716729658548041 1.7143345931709608 0 -1.0300761635225602 1 I I #
coedge $-1 $394 $394 $-1 $558 reversed $255 $-1 #
edge $-1 $559 0 $559 6.2831853071796004 $256 $560 forward 7 unknown #
vertex $-1 $259 $561 #
ellipse-curve $-1 58.61278497503077 -9.4926122758741229 5.9886587153081896 0.51503808176128008 0 0.85716729658548041 1.7143345931709608 0 -1.0300761635225602 1 I I #
face $-1 $-1 $275 $39 $-1 $562 reversed single #
loop $-1 $-1 $414 $260 #
plane-surface $-1 0 41.340581732824312 0 0 -1 0 0 0 -1 forward_v I I I I #
coedge $-1 $563 $412 $415 $564 forward $261 $-1 #
coedge $-1 $418 $263 $264 $406 reversed $163 $-1 #
coedge $-1 $412 $563 $263 $404 reversed $261 $-1 #
edge $-1 $419 -11.829384087195471 $565 11.829384087195471 $403 $566 forward 7 unknown #
coedge $-1 $265 $264 $563 $567 forward $105 $-1 #
edge $-1 $410 -68.333384197515784 $565 68.333384197515784 $402 $568 forward 7 unknown #
coedge $-1 $415 $414 $265 $408 reversed $399 $-1 #
edge $-1 $569 -68.333384197515784 $409 68.333384197515784 $407 $570 forward 7 unknown #
vertex $-1 $267 $571 #
vertex $-1 $421 $572 #
straight-curve $-1 68.333384197515784 0 -11.829384087195471 0 -1 0 I I #
coedge $-1 $401 $403 $268 $413 reversed $261 $-1 #
edge $-1 $416 -41.340581732824312 $419 41.340581732824312 $412 $573 forward 7 unknown #
coedge $-1 $407 $269 $274 $422 forward $399 $-1 #
coedge $-1 $269 $407 $401 $564 reversed $399 $-1 #
vertex $-1 $270 $574 #
straight-curve $-1 0 41.340581732824312 11.829384087195471 -1 0 0 I I #
coedge $-1 $271 $402 $273 $421 reversed $163 $-1 #
vertex $-1 $413 $575 #
straight-curve $-1 0 -41.340581732824312 11.829384087195471 1 0 0 I I #
edge $-1 $276 -11.829384087195471 $410 11.829384087195471 $273 $576 forward 7 unknown #
edge $-1 $277 -11.829384087195471 $409 11.829384087195471 $274 $577 forward 7 unknown #
point $-1 68.333384197515784 -41.340581732824312 11.829384087195471 #
point $-1 68.333384197515784 41.340581732824312 11.829384087195471 #
face $-1 $-1 $294 $40 $-1 $578 reversed single #
loop $-1 $-1 $285 $279 #
plane-surface $-1 0 0 11.829384087195471 0 0 1 1 0 0 forward_v I I I I #
coedge $-1 $579 $282 $287 $437 forward $171 $-1 #
coedge $-1 $282 $579 $432 $580 reversed $171 $-1 #
edge $-1 $435 -7.2442928652761491 $442 -1.9258895785624954 $282 $581 forward 7 unknown #
edge $-1 $296 1.9258895785624954 $434 7.2442928652761491 $292 $582 forward 7 unknown #
coedge $-1 $583 $285 $429 $580 forward $426 $-1 #
coedge $-1 $285 $583 $444 $584 forward $426 $-1 #
vertex $-1 $431 $585 #
vertex $-1 $580 $586 #
straight-curve $-1 0 -30.266029824728342 11.829384087195471 -1 0 0 I I #
edge $-1 $442 12.364376935340179 $440 23.438928843436148 $428 $587 forward 7 unknown #
coedge $-1 $588 $288 $293 $445 reversed $280 $-1 #
coedge $-1 $288 $588 $579 $589 forward $280 $-1 #
vertex $-1 $289 $590 #
straight-curve $-1 0 -41.340581732824312 6.5109808004818177 1 0 0 I I #
vertex $-1 $437 $591 #
straight-curve $-1 0 -30.266029824728342 6.5109808004818177 1 0 0 I I #
coedge $-1 $293 $292 $433 $584 reversed $294 $-1 #
edge $-1 $592 -11.829384087195471 $295 -6.5109808004818177 $293 $593 forward 7 unknown #
point $-1 68.333384197515784 -41.340581732824312 6.5109808004818177 #
point $-1 68.333384197515784 -30.266029824728342 6.5109808004818177 #
loop $-1 $-1 $306 $298 #
plane-surface $-1 0 -30.266029824728342 9.1701824438386446 0 -1 0 0 0 -1 forward_v I I I I #
coedge $-1 $455 $594 $302 $451 forward $299 $-1 #
edge $-1 $453 37.812990811650302 $461 48.667469914334703 $450 $595 forward 7 unknown #
coedge $-1 $309 $303 $594 $596 forward $179 $-1 #
vertex $-1 $596 $597 #
straight-curve $-1 -81.635049971001507 -19.346824669893678 11.829384087195471 -1 0 0 I I #
coedge $-1 $598 $450 $305 $456 forward $299 $-1 #
edge $-1 $461 6.9436110462381713 $459 17.862816201072842 $455 $599 forward 7 unknown #
coedge $-1 $458 $306 $309 $463 reversed $448 $-1 #
coedge $-1 $306 $457 $598 $600 reversed $448 $-1 #
vertex $-1 $600 $601 #
straight-curve $-1 -48.606267075339758 -30.266029824728342 20.025160981203879 0.71933979245794832 0 0.69465837861970381 I I #
vertex $-1 $456 $602 #
straight-curve $-1 -68.333384197515812 -19.346824669893678 0.97490498451104202 0.71933979245794832 0 0.69465837861970381 I I #
edge $-1 $603 -68.333384197515784 $310 -57.09324230146774 $309 $604 forward 7 unknown #
point $-1 -57.09324230146774 -30.266029824728342 11.829384087195471 #
point $-1 -57.09324230146774 -19.346824669893678 11.829384087195471 #
edge $-1 $605 1 $605 0 $313 $-1 forward 7 unknown #
vertex $-1 $314 $606 #
ellipse-curve $-1 -58.626601141379311 -24.806427247311014 2.1702303602461286 -0.69465837861970381 0 0.71933979245794832 1.4386795849158966 0 1.3893167572394076 1 I I #
point $-1 -61.274633664575852 -24.806427247311014 7.7914612930926612 #
loop $-1 $-1 $325 $317 #
plane-surface $-1 -68.333384197515784 0 0 1 0 0 0 0 -1 forward_v I I I I #
coedge $-1 $473 $320 $322 $477 reversed $194 $-1 #
coedge $-1 $320 $472 $607 $608 reversed $194 $-1 #
coedge $-1 $328 $323 $320 $475 forward $318 $-1 #
edge $-1 $478 -24.541807669533767 $609 -13.301665773485723 $474 $610 forward 7 unknown #
coedge $-1 $322 $321 $481 $611 reversed $122 $-1 #
edge $-1 $612 3.9494141999918586e-014 $478 15.625636192933332 $472 $613 forward 7 unknown #
vertex $-1 $324 $614 #
straight-curve $-1 -57.09324230146774 -3.4523871789614269 11.829384087195471 0 1 0 I I #
coedge $-1 $607 $325 $328 $485 reversed $470 $-1 #
coedge $-1 $325 $607 $476 $611 forward $470 $-1 #
vertex $-1 $326 $615 #
straight-curve $-1 -68.333384197515784 -12.364376935340188 49.642374898845773 0 0 1 I I #
straight-curve $-1 -68.333384197515812 -12.364376935340188 0.97490498451104202 -0.71933979245794832 0 -0.69465837861970381 I I #
edge $-1 $609 1.44517178050552 $329 12.364376935340188 $480 $616 forward 7 unknown #
point $-1 -68.333384197515784 -12.364376935340188 11.829384087195471 #
point $-1 -57.09324230146774 -12.364376935340188 11.829384087195471 #
edge $-1 $617 1 $617 0 $332 $-1 forward 7 unknown #
vertex $-1 $333 $618 #
ellipse-curve $-1 -58.626601141379311 -6.9047743579228538 2.1702303602461286 -0.69465837861970381 0 0.71933979245794832 1.4386795849158966 0 1.3893167572394076 1 I I #
point $-1 -61.274633664575852 -6.9047743579228538 7.7914612930926612 #
loop $-1 $-1 $344 $336 #
plane-surface $-1 -68.333384197515784 0 0 1 0 0 0 0 -1 forward_v I I I I #
coedge $-1 $495 $339 $341 $499 reversed $209 $-1 #
coedge $-1 $339 $494 $619 $620 reversed $209 $-1 #
coedge $-1 $347 $342 $339 $497 forward $337 $-1 #
edge $-1 $500 -24.541807669533767 $621 -13.301665773485723 $496 $622 forward 7 unknown #
coedge $-1 $341 $340 $503 $623 reversed $131 $-1 #
edge $-1 $624 3.9494141999918586e-014 $500 15.625636192933332 $494 $625 forward 7 unknown #
vertex $-1 $343 $626 #
straight-curve $-1 -57.09324230146774 5.4984392657326531 11.829384087195471 0 1 0 I I #
coedge $-1 $619 $344 $347 $507 reversed $492 $-1 #
coedge $-1 $344 $619 $498 $623 forward $492 $-1 #
vertex $-1 $345 $627 #
straight-curve $-1 -68.333384197515784 5.5372759540479723 49.642374898845773 0 0 1 I I #
straight-curve $-1 -68.333384197515812 5.5372759540479723 0.97490498451104202 -0.71933979245794832 0 -0.69465837861970381 I I #
edge $-1 $621 -16.456481108882642 $348 -5.5372759540479723 $502 $628 forward 7 unknown #
point $-1 -68.333384197515784 5.5372759540479723 11.829384087195471 #
point $-1 -57.09324230146774 5.5372759540479723 11.829384087195471 #
edge $-1 $629 1 $629 0 $351 $-1 forward 7 unknown #
vertex $-1 $352 $630 #
ellipse-curve $-1 -58.626601141379311 10.996878531465306 2.1702303602461286 -0.69465837861970381 0 0.71933979245794832 1.4386795849158966 0 1.3893167572394076 1 I I #
point $-1 -61.274633664575852 10.996878531465306 7.7914612930926612 #
loop $-1 $-1 $363 $355 #
plane-surface $-1 -68.333384197515784 0 0 1 0 0 0 0 -1 forward_v I I I I #
coedge $-1 $517 $358 $360 $521 reversed $224 $-1 #
coedge $-1 $358 $516 $631 $632 reversed $224 $-1 #
coedge $-1 $366 $361 $358 $519 forward $356 $-1 #
edge $-1 $522 -24.541807669533767 $633 -13.301665773485723 $518 $634 forward 7 unknown #
coedge $-1 $360 $359 $525 $635 reversed $140 $-1 #
edge $-1 $636 3.9494141999918586e-014 $522 15.625636192933332 $516 $637 forward 7 unknown #
vertex $-1 $362 $638 #
straight-curve $-1 -57.09324230146774 14.449265710426733 11.829384087195471 0 1 0 I I #
coedge $-1 $631 $363 $366 $529 reversed $514 $-1 #
coedge $-1 $363 $631 $520 $635 forward $514 $-1 #
vertex $-1 $364 $639 #
straight-curve $-1 -68.333384197515784 23.43892884343613 49.642374898845773 0 0 1 I I #
straight-curve $-1 -68.333384197515812 23.43892884343613 0.97490498451104202 -0.71933979245794832 0 -0.69465837861970381 I I #
edge $-1 $633 -34.358133998270802 $367 -23.43892884343613 $524 $640 forward 7 unknown #
point $-1 -68.333384197515784 23.43892884343613 11.829384087195471 #
point $-1 -57.09324230146774 23.43892884343613 11.829384087195471 #
edge $-1 $641 1 $641 0 $370 $-1 forward 7 unknown #
vertex $-1 $371 $642 #
ellipse-curve $-1 -58.626601141379311 28.898531420853466 2.1702303602461286 -0.69465837861970381 0 0.71933979245794832 1.4386795849158966 0 1.3893167572394076 1 I I #
point $-1 -61.274633664575852 28.898531420853466 7.7914612930926612 #
plane-surface $-1 0 0 11.829384087195471 0 0 1 1 0 0 forward_v I I I I #
coedge $-1 $547 $546 $539 $643 forward $375 $-1 #
coedge $-1 $539 $377 $379 $543 reversed $239 $-1 #
coedge $-1 $377 $538 $537 $643 reversed $239 $-1 #
coedge $-1 $385 $380 $377 $541 forward $386 $-1 #
edge $-1 $544 38.104340735564392 $644 57.545539180534377 $540 $645 forward 7 unknown #
coedge $-1 $379 $378 $547 $646 reversed $149 $-1 #
edge $-1 $647 -136.66676839503154 $544 -113.98601689831223 $538 $648 forward 7 unknown #
vertex $-1 $381 $649 #
straight-curve $-1 48.892185752545807 -6.588981714072407 11.829384087195464 0 -1 0 I I #
coedge $-1 $537 $382 $385 $551 reversed $375 $-1 #
coedge $-1 $382 $537 $542 $646 forward $375 $-1 #
vertex $-1 $383 $650 #
straight-curve $-1 68.333384197515784 -4.5788107395132105 93.84140398817712 0 0 1 I I #
straight-curve $-1 -48.812900200727384 -4.5788107395132105 70.536523578111058 0.85716729658548041 0 -0.51503808176128008 I I #
edge $-1 $644 -21.777116116776419 $387 -4.5788107395132105 $546 $651 forward 7 unknown #
point $-1 68.333384197515784 -4.5788107395132105 11.829384087195471 #
point $-1 48.892185752545799 -4.5788107395132105 11.829384087195471 #
edge $-1 $652 1 $652 0 $390 $-1 forward 7 unknown #
vertex $-1 $391 $653 #
ellipse-curve $-1 54.789176961808643 -16.863314580415498 -0.37489353443651663 0.51503808176128008 0 0.85716729658548041 1.7143345931709608 0 -1.0300761635225602 1 I I #
point $-1 60.327119568201709 -16.863314580415498 4.9585825517856037 #
edge $-1 $654 1 $654 0 $394 $-1 forward 7 unknown #
vertex $-1 $395 $655 #
ellipse-curve $-1 54.789176961808643 -9.4926122758741229 -0.37489353443651663 0.51503808176128008 0 0.85716729658548041 1.7143345931709608 0 -1.0300761635225602 1 I I #
point $-1 60.327119568201709 -9.4926122758741229 4.9585825517856037 #
plane-surface $-1 68.333384197515784 0 0 -1 0 0 0 0 1 forward_v I I I I #
coedge $-1 $403 $401 $405 $567 reversed $261 $-1 #
edge $-1 $416 -11.829384087195471 $569 11.829384087195471 $415 $656 forward 7 unknown #
vertex $-1 $567 $657 #
straight-curve $-1 -68.333384197515784 -41.340581732824312 0 0 0 -1 I I #
edge $-1 $565 -41.340581732824312 $569 41.340581732824312 $563 $658 forward 7 unknown #
straight-curve $-1 0 -41.340581732824312 -11.829384087195471 -1 0 0 I I #
vertex $-1 $408 $659 #
straight-curve $-1 0 41.340581732824312 -11.829384087195471 1 0 0 I I #
point $-1 68.333384197515784 41.340581732824312 -11.829384087195471 #
point $-1 68.333384197515784 -41.340581732824312 -11.829384087195471 #
straight-curve $-1 -68.333384197515784 0 11.829384087195471 0 -1 0 I I #
point $-1 -68.333384197515784 41.340581732824312 11.829384087195471 #
point $-1 -68.333384197515784 -41.340581732824312 11.829384087195471 #
straight-curve $-1 68.333384197515784 -41.340581732824312 0 0 0 -1 I I #
straight-curve $-1 68.333384197515784 41.340581732824312 0 0 0 -1 I I #
plane-surface $-1 68.333384197515784 0 0 -1 0 0 0 0 1 forward_v I I I I #
coedge $-1 $429 $428 $439 $589 reversed $171 $-1 #
edge $-1 $435 30.266029824728342 $660 41.340581732824312 $429 $661 forward 7 unknown #
straight-curve $-1 -68.333384197515784 -30.266029824728342 4.5850912219193223 0 0 -1 I I #
straight-curve $-1 68.333384197515784 -30.266029824728342 4.5850912219193223 0 0 1 I I #
coedge $-1 $433 $432 $588 $662 forward $426 $-1 #
edge $-1 $592 -41.340581732824312 $434 -30.266029824728342 $444 $663 forward 7 unknown #
point $-1 68.333384197515784 -30.266029824728342 11.829384087195471 #
point $-1 -68.333384197515784 -30.266029824728342 11.829384087195471 #
straight-curve $-1 -68.333384197515784 -17.901652889388163 6.5109808004818177 0 -1 0 I I #
coedge $-1 $439 $438 $583 $662 reversed $280 $-1 #
edge $-1 $660 -11.829384087195471 $440 -6.5109808004818177 $579 $664 forward 7 unknown #
point $-1 -68.333384197515784 -41.340581732824312 6.5109808004818177 #
point $-1 -68.333384197515784 -30.266029824728342 6.5109808004818177 #
vertex $-1 $584 $665 #
straight-curve $-1 68.333384197515784 -41.340581732824312 0 0 0 -1 I I #
coedge $-1 $450 $598 $452 $596 reversed $299 $-1 #
straight-curve $-1 -68.333384197515784 -19.346824669893678 49.642374898845773 0 0 -1 I I #
edge $-1 $453 19.346824669893678 $603 30.266029824728342 $594 $666 forward 7 unknown #
point $-1 -68.333384197515784 -19.346824669893678 11.829384087195471 #
coedge $-1 $594 $455 $458 $600 forward $299 $-1 #
straight-curve $-1 -68.333384197515784 -12.403213623655507 0.97490498451106877 0 -1 0 I I #
edge $-1 $459 -48.667469914334703 $603 -37.812990811650302 $598 $667 forward 7 unknown #
point $-1 -68.333384197515784 -30.266029824728349 0.97490498451106944 #
point $-1 -68.333384197515784 -19.346824669893678 0.97490498451106944 #
vertex $-1 $600 $668 #
straight-curve $-1 0 -30.266029824728342 11.829384087195471 1 0 0 I I #
vertex $-1 $466 $669 #
point $-1 -57.187921556463408 -24.806427247311014 3.5595471174855362 #
coedge $-1 $481 $480 $473 $608 forward $470 $-1 #
edge $-1 $609 37.812990811650302 $612 48.667469914334703 $607 $670 forward 7 unknown #
vertex $-1 $485 $671 #
straight-curve $-1 -81.635049971001507 -1.44517178050552 11.829384087195471 -1 0 0 I I #
edge $-1 $612 -2.0072153984559069 $482 8.9119897563787607 $481 $672 forward 7 unknown #
vertex $-1 $611 $673 #
straight-curve $-1 -68.333384197515812 -1.44517178050552 0.97490498451104202 0.71933979245794832 0 0.69465837861970381 I I #
point $-1 -57.09324230146774 -1.44517178050552 11.829384087195471 #
point $-1 -68.333384197515784 -12.364376935340188 0.97490498451106944 #
straight-curve $-1 -68.333384197515784 0 11.829384087195471 0 -1 0 I I #
vertex $-1 $488 $674 #
point $-1 -57.187921556463408 -6.9047743579228538 3.5595471174855362 #
coedge $-1 $503 $502 $495 $620 forward $492 $-1 #
edge $-1 $621 37.812990811650302 $624 48.667469914334703 $619 $675 forward 7 unknown #
vertex $-1 $507 $676 #
straight-curve $-1 -81.635049971001507 16.456481108882642 11.829384087195471 -1 0 0 I I #
edge $-1 $624 -10.958041843149989 $504 -0.038836688315319279 $503 $677 forward 7 unknown #
vertex $-1 $623 $678 #
straight-curve $-1 -68.333384197515812 16.456481108882642 0.97490498451104202 0.71933979245794832 0 0.69465837861970381 I I #
point $-1 -57.09324230146774 16.456481108882642 11.829384087195471 #
point $-1 -68.333384197515784 5.5372759540479723 0.97490498451106944 #
straight-curve $-1 -68.333384197515784 0 11.829384087195471 0 -1 0 I I #
vertex $-1 $510 $679 #
point $-1 -57.187921556463408 10.996878531465306 3.5595471174855362 #
coedge $-1 $525 $524 $517 $632 forward $514 $-1 #
edge $-1 $633 37.812990811650302 $636 48.667469914334703 $631 $680 forward 7 unknown #
vertex $-1 $529 $681 #
straight-curve $-1 -81.635049971001507 34.358133998270802 11.829384087195471 -1 0 0 I I #
edge $-1 $636 -19.908868287844069 $526 -8.9896631330093975 $525 $682 forward 7 unknown #
vertex $-1 $635 $683 #
straight-curve $-1 -68.333384197515812 34.358133998270802 0.97490498451104202 0.71933979245794832 0 0.69465837861970381 I I #
point $-1 -57.09324230146774 34.358133998270802 11.829384087195471 #
point $-1 -68.333384197515784 23.43892884343613 0.97490498451106944 #
straight-curve $-1 -68.333384197515784 0 11.829384087195471 0 -1 0 I I #
vertex $-1 $532 $684 #
point $-1 -57.187921556463408 28.898531420853466 3.5595471174855362 #
edge $-1 $644 82.012019900981642 $647 93.693470644756246 $537 $685 forward 7 unknown #
vertex $-1 $551 $686 #
straight-curve $-1 10.787845016981407 -21.777116116776419 11.829384087195479 1 0 0 I I #
edge $-1 $647 -15.188134402704012 $548 2.0101709745591965 $547 $687 forward 7 unknown #
vertex $-1 $646 $688 #
straight-curve $-1 -48.812900200727384 -21.777116116776419 70.536523578111058 -0.85716729658548041 0 0.51503808176128008 I I #
point $-1 48.892185752545799 -21.777116116776419 11.829384087195471 #
point $-1 68.33338419751577 -4.5788107395132105 0.14793334342087405 #
straight-curve $-1 68.333384197515784 0 11.829384087195471 0 1 0 I I #
vertex $-1 $554 $689 #
point $-1 56.503511554979603 -16.863314580415498 -1.4049696979590767 #
vertex $-1 $558 $690 #
point $-1 56.503511554979603 -9.4926122758741229 -1.4049696979590767 #
straight-curve $-1 -68.333384197515784 41.340581732824312 0 0 0 -1 I I #
point $-1 -68.333384197515784 -41.340581732824312 -11.829384087195471 #
straight-curve $-1 -68.333384197515784 0 -11.829384087195471 0 1 0 I I #
point $-1 -68.333384197515784 41.340581732824312 -11.829384087195471 #
vertex $-1 $580 $691 #
straight-curve $-1 -68.333384197515784 0 11.829384087195471 0 -1 0 I I #
edge $-1 $660 -68.333384197515784 $592 68.333384197515784 $588 $692 forward 7 unknown #
straight-curve $-1 68.333384197515784 0 11.829384087195471 0 1 0 I I #
straight-curve $-1 -68.333384197515784 -41.340581732824312 0 0 0 -1 I I #
point $-1 68.333384197515784 -41.340581732824312 11.829384087195471 #
straight-curve $-1 -68.333384197515784 0 11.829384087195471 0 -1 0 I I #
straight-curve $-1 -68.333384197515784 -30.266029824728349 49.642374898845773 0 0 1 I I #
point $-1 -68.333384197515784 -30.266029824728342 11.829384087195471 #
point $-1 -57.237284384139897 -24.806427247311014 0.73155077533023194 #
straight-curve $-1 -68.333384197515784 -1.44517178050552 49.642374898845773 0 0 -1 I I #
point $-1 -68.333384197515784 -1.44517178050552 11.829384087195471 #
straight-curve $-1 -68.333384197515784 -3.4523871789614269 0.97490498451106877 0 -1 0 I I #
point $-1 -68.333384197515784 -1.44517178050552 0.97490498451106944 #
point $-1 -57.237284384139897 -6.9047743579228538 0.73155077533023194 #
straight-curve $-1 -68.333384197515784 16.456481108882642 49.642374898845773 0 0 -1 I I #
point $-1 -68.333384197515784 16.456481108882642 11.829384087195471 #
straight-curve $-1 -68.333384197515784 5.4984392657326531 0.97490498451106877 0 -1 0 I I #
point $-1 -68.333384197515784 16.456481108882642 0.97490498451106944 #
point $-1 -57.237284384139897 10.996878531465306 0.73155077533023194 #
straight-curve $-1 -68.333384197515784 34.358133998270802 49.642374898845773 0 0 -1 I I #
point $-1 -68.333384197515784 34.358133998270802 11.829384087195471 #
straight-curve $-1 -68.333384197515784 14.449265710426733 0.97490498451106877 0 -1 0 I I #
point $-1 -68.333384197515784 34.358133998270802 0.97490498451106944 #
point $-1 -57.237284384139897 28.898531420853466 0.73155077533023194 #
straight-curve $-1 68.333384197515784 -21.777116116776419 93.84140398817712 0 0 -1 I I #
point $-1 68.333384197515784 -21.777116116776419 11.829384087195471 #
straight-curve $-1 68.333384197515784 -6.588981714072407 0.14793334342087405 0 1 0 I I #
point $-1 68.33338419751577 -21.777116116776419 0.14793334342087405 #
point $-1 53.759100798286077 -16.863314580415498 -2.0892281276074769 #
point $-1 53.759100798286077 -9.4926122758741229 -2.0892281276074769 #
point $-1 -68.333384197515784 -41.340581732824312 11.829384087195471 #
straight-curve $-1 0 -41.340581732824312 11.829384087195471 1 0 0 I I #
End-of-ACIS-data 