500 0 11 0           
7 Unknown 11 ACIS 5.0 NT 24 Thu Mar 25 23:12:40 1999 
-1 9.9999999999999995e-007 1e-010 
body $-1 $11 $-1 $12 #
body $-1 $13 $-1 $14 #
body $-1 $15 $-1 $16 #
body $-1 $17 $-1 $18 #
body $-1 $19 $-1 $20 #
body $-1 $21 $-1 $22 #
body $-1 $23 $-1 $24 #
body $-1 $25 $-1 $26 #
body $-1 $27 $-1 $28 #
body $-1 $29 $-1 $30 #
body $-1 $31 $-1 $32 #
lump $-1 $-1 $33 $0 #
transform $-1 1 0 0 0 1 0 0 0 1 70.968962675862912 40.144344102210113 10.907470795067496 1 rotate no_reflect no_shear #
lump $-1 $-1 $34 $1 #
transform $-1 1 0 0 0 1 0 0 0 1 70.968962675862912 40.144344102210113 10.907470795067496 1 rotate no_reflect no_shear #
lump $-1 $-1 $35 $2 #
transform $-1 1 0 0 0 1 0 0 0 1 70.968962675862912 40.144344102210113 10.907470795067496 1 rotate no_reflect no_shear #
lump $-1 $-1 $36 $3 #
transform $-1 1 0 0 0 1 0 0 0 1 70.968962675862912 40.144344102210113 10.907470795067496 1 rotate no_reflect no_shear #
lump $-1 $-1 $37 $4 #
transform $-1 1 0 0 0 1 0 0 0 1 70.968962675862912 40.144344102210113 10.907470795067496 1 rotate no_reflect no_shear #
lump $-1 $-1 $38 $5 #
transform $-1 1 0 0 0 1 0 0 0 1 70.968962675862912 40.144344102210113 10.907470795067496 1 rotate no_reflect no_shear #
lump $-1 $-1 $39 $6 #
transform $-1 1 0 0 0 1 0 0 0 1 70.968962675862912 40.144344102210113 10.907470795067496 1 rotate no_reflect no_shear #
lump $-1 $-1 $40 $7 #
transform $-1 1 0 0 0 1 0 0 0 1 70.968962675862912 40.144344102210113 10.907470795067496 1 rotate no_reflect no_shear #
lump $-1 $-1 $41 $8 #
transform $-1 1 0 0 0 1 0 0 0 1 70.968962675862912 40.144344102210113 10.907470795067496 1 rotate no_reflect no_shear #
lump $-1 $-1 $42 $9 #
transform $-1 1 0 0 0 1 0 0 0 1 70.968962675862912 40.144344102210113 10.907470795067496 1 rotate no_reflect no_shear #
lump $-1 $-1 $43 $10 #
transform $-1 1 0 0 0 1 0 0 0 1 70.968962675862912 40.144344102210113 10.907470795067496 1 rotate no_reflect no_shear #
shell $-1 $-1 $-1 $44 $-1 $11 #
shell $-1 $-1 $-1 $45 $-1 $13 #
shell $-1 $-1 $-1 $46 $-1 $15 #
shell $-1 $-1 $-1 $47 $-1 $17 #
shell $-1 $-1 $-1 $48 $-1 $19 #
shell $-1 $-1 $-1 $49 $-1 $21 #
shell $-1 $-1 $-1 $50 $-1 $23 #
shell $-1 $-1 $-1 $51 $-1 $25 #
shell $-1 $-1 $-1 $52 $-1 $27 #
shell $-1 $-1 $-1 $53 $-1 $29 #
shell $-1 $-1 $-1 $54 $-1 $31 #
face $-1 $55 $56 $33 $-1 $57 reversed single #
face $-1 $58 $59 $34 $-1 $60 forward single #
face $-1 $61 $62 $35 $-1 $63 reversed single #
face $-1 $64 $65 $36 $-1 $66 reversed single #
face $-1 $67 $68 $37 $-1 $69 forward single #
face $-1 $70 $71 $38 $-1 $72 reversed single #
face $-1 $73 $74 $39 $-1 $75 forward single #
face $-1 $76 $77 $40 $-1 $78 reversed single #
face $-1 $79 $80 $41 $-1 $81 forward single #
face $-1 $82 $83 $42 $-1 $84 reversed single #
face $-1 $85 $86 $43 $-1 $87 forward single #
face $-1 $88 $89 $33 $-1 $90 forward single #
loop $-1 $-1 $91 $44 #
plane-surface $-1 0 -40.144344102210113 0 0 1 0 0 0 1 forward_v I I I I #
face $-1 $92 $93 $34 $-1 $94 reversed single #
loop $-1 $-1 $95 $45 #
plane-surface $-1 0 -40.144344102210113 0 0 1 0 0 0 1 forward_v I I I I #
face $-1 $96 $97 $35 $-1 $98 reversed single #
loop $-1 $-1 $99 $46 #
plane-surface $-1 0 35.309721766831046 6.2360360999321376 0 0 1 1 0 0 forward_v I I I I #
face $-1 $100 $101 $36 $-1 $102 reversed single #
loop $-1 $-1 $103 $47 #
plane-surface $-1 60.463540138391522 -18.026679184908019 206.92872587521518 0 -1 0 -0.66913061440640931 0 -0.74314481823134659 forward_v I I I I #
face $-1 $104 $105 $37 $-1 $106 forward single #
loop $-1 $107 $108 $48 #
cone-surface $-1 67.227915382361658 -22.299178712358945 7.2702201558404296 -0.66913061440640931 0 -0.74314481823134659 0.74314481823134659 0 -0.66913061440640931 1 I I 0 1 1 forward I I I I #
face $-1 $109 $110 $38 $-1 $111 reversed single #
loop $-1 $-1 $112 $49 #
plane-surface $-1 60.463540138391522 -1.8594196461213581 206.92872587521518 0 -1 0 -0.66913061440640931 0 -0.74314481823134659 forward_v I I I I #
face $-1 $113 $114 $39 $-1 $115 forward single #
loop $-1 $116 $117 $50 #
cone-surface $-1 67.227915382361658 -6.1319191735722853 7.2702201558404296 -0.66913061440640931 0 -0.74314481823134659 0.74314481823134659 0 -0.66913061440640931 1 I I 0 1 1 forward I I I I #
face $-1 $118 $119 $40 $-1 $120 reversed single #
loop $-1 $-1 $121 $51 #
plane-surface $-1 60.463540138391522 14.307839892665308 206.92872587521518 0 -1 0 -0.66913061440640931 0 -0.74314481823134659 forward_v I I I I #
face $-1 $122 $123 $41 $-1 $124 forward single #
loop $-1 $125 $126 $52 #
cone-surface $-1 67.227915382361658 10.035340365214381 7.2702201558404296 -0.66913061440640931 0 -0.74314481823134659 0.74314481823134659 0 -0.66913061440640931 1 I I 0 1 1 forward I I I I #
face $-1 $127 $128 $42 $-1 $129 reversed single #
loop $-1 $-1 $130 $53 #
plane-surface $-1 60.463540138391522 21.930100376550122 206.92872587521518 0 1 0 0.66913061440640931 0 0.74314481823134659 forward_v I I I I #
face $-1 $131 $132 $43 $-1 $133 forward single #
loop $-1 $134 $135 $54 #
cone-surface $-1 67.227915382361658 26.202599904001048 7.2702201558404296 -0.66913061440640931 0 -0.74314481823134659 0.74314481823134659 0 -0.66913061440640931 1 I I 0 1 1 forward I I I I #
face $-1 $136 $137 $33 $-1 $138 reversed single #
loop $-1 $-1 $139 $55 #
plane-surface $-1 0 0 10.907470795067496 0 0 1 1 0 0 forward_v I I I I #
coedge $-1 $140 $141 $142 $143 reversed $56 $-1 #
face $-1 $144 $145 $34 $-1 $146 reversed single #
loop $-1 $-1 $147 $58 #
plane-surface $-1 0 0 -10.907470795067496 0 0 1 1 0 0 forward_v I I I I #
coedge $-1 $148 $149 $150 $151 forward $59 $-1 #
face $-1 $152 $153 $35 $-1 $154 reversed single #
loop $-1 $-1 $155 $61 #
plane-surface $-1 0 30.475099431451973 8.571753447499816 0 1 0 0 0 1 forward_v I I I I #
coedge $-1 $156 $157 $158 $159 reversed $62 $-1 #
face $-1 $160 $161 $36 $-1 $162 reversed single #
loop $-1 $-1 $163 $64 #
plane-surface $-1 -34.511471059779836 -22.299178712358945 101.44829213957244 0.66913061440640931 0 0.74314481823134659 0.74314481823134659 0 -0.66913061440640931 forward_v I I I I #
coedge $-1 $164 $165 $166 $167 reversed $65 $-1 #
face $-1 $-1 $168 $37 $-1 $169 forward single #
loop $-1 $170 $171 $67 #
cone-surface $-1 65.614636100339254 -22.299178712358945 5.4784920343308698 -0.66913061440640931 0 -0.74314481823134659 0.3715724091156733 0 -0.33456530720320465 1 I I -0.70710678118654746 0.70710678118654746 0.5 forward I I I I #
loop $-1 $-1 $172 $48 #
coedge $-1 $108 $108 $173 $174 reversed $68 $-1 #
face $-1 $175 $176 $38 $-1 $177 reversed single #
loop $-1 $-1 $178 $70 #
plane-surface $-1 -34.511471059779836 -6.1319191735722853 101.44829213957244 0.66913061440640931 0 0.74314481823134659 0.74314481823134659 0 -0.66913061440640931 forward_v I I I I #
coedge $-1 $179 $180 $181 $182 reversed $71 $-1 #
face $-1 $-1 $183 $39 $-1 $184 forward single #
loop $-1 $185 $186 $73 #
cone-surface $-1 65.614636100339254 -6.1319191735722853 5.4784920343308698 -0.66913061440640931 0 -0.74314481823134659 0.3715724091156733 0 -0.33456530720320465 1 I I -0.70710678118654746 0.70710678118654746 0.5 forward I I I I #
loop $-1 $-1 $187 $50 #
coedge $-1 $117 $117 $188 $189 reversed $74 $-1 #
face $-1 $190 $191 $40 $-1 $192 reversed single #
loop $-1 $-1 $193 $76 #
plane-surface $-1 -34.511471059779836 10.035340365214381 101.44829213957244 0.66913061440640931 0 0.74314481823134659 0.74314481823134659 0 -0.66913061440640931 forward_v I I I I #
coedge $-1 $194 $195 $196 $197 reversed $77 $-1 #
face $-1 $-1 $198 $41 $-1 $199 forward single #
loop $-1 $200 $201 $79 #
cone-surface $-1 65.614636100339254 10.035340365214381 5.4784920343308698 -0.66913061440640931 0 -0.74314481823134659 0.3715724091156733 0 -0.33456530720320465 1 I I -0.70710678118654746 0.70710678118654746 0.5 forward I I I I #
loop $-1 $-1 $202 $52 #
coedge $-1 $126 $126 $203 $204 reversed $80 $-1 #
face $-1 $205 $206 $42 $-1 $207 reversed single #
loop $-1 $-1 $208 $82 #
plane-surface $-1 -34.511471059779836 26.202599904001048 101.44829213957244 0.66913061440640931 0 0.74314481823134659 0.74314481823134659 0 -0.66913061440640931 forward_v I I I I #
coedge $-1 $209 $210 $211 $212 reversed $83 $-1 #
face $-1 $-1 $213 $43 $-1 $214 forward single #
loop $-1 $215 $216 $85 #
cone-surface $-1 65.614636100339254 26.202599904001048 5.4784920343308698 -0.66913061440640931 0 -0.74314481823134659 0.3715724091156733 0 -0.33456530720320465 1 I I -0.70710678118654746 0.70710678118654746 0.5 forward I I I I #
loop $-1 $-1 $217 $54 #
coedge $-1 $135 $135 $218 $219 reversed $86 $-1 #
face $-1 $220 $221 $33 $-1 $222 reversed single #
loop $-1 $-1 $223 $88 #
plane-surface $-1 0 0 -10.907470795067496 0 0 1 1 0 0 forward_v I I I I #
coedge $-1 $224 $225 $226 $227 forward $89 $-1 #
coedge $-1 $228 $91 $229 $230 reversed $56 $-1 #
coedge $-1 $91 $228 $231 $232 forward $56 $-1 #
coedge $-1 $233 $223 $91 $143 forward $137 $-1 #
edge $-1 $234 -70.968962675862912 $235 70.968962675862912 $91 $236 forward 7 unknown #
face $-1 $237 $238 $34 $-1 $239 reversed single #
loop $-1 $-1 $240 $92 #
plane-surface $-1 -51.917954944748423 -53.717009964610355 0 0 1 0 0 0 1 forward_v I I I I #
coedge $-1 $241 $242 $149 $243 forward $93 $-1 #
coedge $-1 $244 $95 $245 $246 reversed $59 $-1 #
coedge $-1 $95 $244 $147 $243 reversed $59 $-1 #
coedge $-1 $247 $248 $95 $151 reversed $238 $-1 #
edge $-1 $249 -10.907470795067496 $250 10.907470795067496 $150 $251 forward 7 unknown #
face $-1 $252 $253 $35 $-1 $254 forward single #
loop $-1 $-1 $255 $96 #
plane-surface $-1 -70.968962675862912 0 0 1 0 0 0 0 -1 forward_v I I I I #
coedge $-1 $256 $257 $258 $259 reversed $97 $-1 #
coedge $-1 $260 $99 $261 $262 forward $62 $-1 #
coedge $-1 $99 $260 $263 $264 reversed $62 $-1 #
coedge $-1 $265 $266 $99 $159 forward $267 $-1 #
edge $-1 $268 12.82023854803645 $269 22.489483218794597 $158 $270 forward 7 unknown #
face $-1 $271 $272 $36 $-1 $273 reversed single #
loop $-1 $-1 $274 $100 #
plane-surface $-1 60.463540138391522 -26.57167823980987 206.92872587521518 0 1 0 0.66913061440640931 0 0.74314481823134659 forward_v I I I I #
coedge $-1 $275 $276 $277 $278 reversed $101 $-1 #
coedge $-1 $165 $103 $279 $280 reversed $65 $-1 #
coedge $-1 $103 $164 $275 $281 reversed $65 $-1 #
coedge $-1 $277 $282 $103 $167 forward $283 $-1 #
edge $-1 $284 -40.737192606667151 $285 -35.812525969302996 $166 $286 forward 7 unknown #
loop $-1 $-1 $173 $104 #
plane-surface $-1 -34.511471059779836 -22.299178712358945 101.44829213957244 0.66913061440640931 0 0.74314481823134659 0.74314481823134659 0 -0.66913061440640931 forward_v I I I I #
loop $-1 $-1 $287 $67 #
coedge $-1 $171 $171 $172 $288 reversed $105 $-1 #
coedge $-1 $172 $172 $171 $288 forward $107 $-1 #
coedge $-1 $173 $173 $108 $174 forward $168 $-1 #
edge $-1 $289 0 $289 6.2831853071796004 $173 $290 forward 7 unknown #
face $-1 $291 $292 $38 $-1 $293 reversed single #
loop $-1 $-1 $294 $109 #
plane-surface $-1 60.463540138391522 -10.404418701023213 206.92872587521518 0 1 0 0.66913061440640931 0 0.74314481823134659 forward_v I I I I #
coedge $-1 $295 $296 $297 $298 reversed $110 $-1 #
coedge $-1 $180 $112 $299 $300 reversed $71 $-1 #
coedge $-1 $112 $179 $295 $301 reversed $71 $-1 #
coedge $-1 $297 $302 $112 $182 forward $303 $-1 #
edge $-1 $304 -40.737192606667151 $305 -35.812525969302996 $181 $306 forward 7 unknown #
loop $-1 $-1 $188 $113 #
plane-surface $-1 -34.511471059779836 -6.1319191735722853 101.44829213957244 0.66913061440640931 0 0.74314481823134659 0.74314481823134659 0 -0.66913061440640931 forward_v I I I I #
loop $-1 $-1 $307 $73 #
coedge $-1 $186 $186 $187 $308 reversed $114 $-1 #
coedge $-1 $187 $187 $186 $308 forward $116 $-1 #
coedge $-1 $188 $188 $117 $189 forward $183 $-1 #
edge $-1 $309 0 $309 6.2831853071796004 $188 $310 forward 7 unknown #
face $-1 $311 $312 $40 $-1 $313 reversed single #
loop $-1 $-1 $314 $118 #
plane-surface $-1 60.463540138391522 5.7628408377634539 206.92872587521518 0 1 0 0.66913061440640931 0 0.74314481823134659 forward_v I I I I #
coedge $-1 $315 $316 $317 $318 reversed $119 $-1 #
coedge $-1 $195 $121 $319 $320 reversed $77 $-1 #
coedge $-1 $121 $194 $315 $321 reversed $77 $-1 #
coedge $-1 $317 $322 $121 $197 forward $323 $-1 #
edge $-1 $324 -40.737192606667151 $325 -35.812525969302996 $196 $326 forward 7 unknown #
loop $-1 $-1 $203 $122 #
plane-surface $-1 -34.511471059779836 10.035340365214381 101.44829213957244 0.66913061440640931 0 0.74314481823134659 0.74314481823134659 0 -0.66913061440640931 forward_v I I I I #
loop $-1 $-1 $327 $79 #
coedge $-1 $201 $201 $202 $328 reversed $123 $-1 #
coedge $-1 $202 $202 $201 $328 forward $125 $-1 #
coedge $-1 $203 $203 $126 $204 forward $198 $-1 #
edge $-1 $329 0 $329 6.2831853071796004 $203 $330 forward 7 unknown #
face $-1 $331 $332 $42 $-1 $333 forward single #
loop $-1 $-1 $211 $127 #
plane-surface $-1 70.968962675862912 0 0 -1 0 0 0 0 1 forward_v I I I I #
coedge $-1 $334 $335 $336 $337 reversed $128 $-1 #
coedge $-1 $210 $130 $338 $339 reversed $83 $-1 #
coedge $-1 $130 $209 $334 $340 reversed $83 $-1 #
coedge $-1 $336 $341 $130 $212 forward $206 $-1 #
edge $-1 $342 92.556892142540093 $343 96.991081996206518 $211 $344 forward 7 unknown #
loop $-1 $-1 $218 $131 #
plane-surface $-1 -34.511471059779836 26.202599904001048 101.44829213957244 0.66913061440640931 0 0.74314481823134659 0.74314481823134659 0 -0.66913061440640931 forward_v I I I I #
loop $-1 $-1 $345 $85 #
coedge $-1 $216 $216 $217 $346 reversed $132 $-1 #
coedge $-1 $217 $217 $216 $346 forward $134 $-1 #
coedge $-1 $218 $218 $135 $219 forward $213 $-1 #
edge $-1 $347 0 $347 6.2831853071796004 $218 $348 forward 7 unknown #
face $-1 $349 $350 $33 $-1 $351 reversed single #
loop $-1 $-1 $352 $136 #
plane-surface $-1 -70.968962675862912 0 0 1 0 0 0 0 -1 forward_v I I I I #
coedge $-1 $142 $353 $354 $355 forward $137 $-1 #
coedge $-1 $356 $139 $357 $358 forward $89 $-1 #
coedge $-1 $139 $356 $228 $359 forward $89 $-1 #
coedge $-1 $229 $360 $139 $227 reversed $361 $-1 #
edge $-1 $362 -40.144344102210113 $363 40.144344102210113 $226 $364 forward 7 unknown #
coedge $-1 $141 $140 $225 $359 reversed $56 $-1 #
coedge $-1 $354 $226 $140 $230 forward $361 $-1 #
edge $-1 $362 -10.907470795067496 $234 10.907470795067496 $229 $365 forward 7 unknown #
coedge $-1 $366 $367 $141 $232 reversed $221 $-1 #
edge $-1 $368 -10.907470795067496 $235 10.907470795067496 $231 $369 forward 7 unknown #
coedge $-1 $353 $142 $367 $370 forward $137 $-1 #
vertex $-1 $230 $371 #
vertex $-1 $370 $372 #
straight-curve $-1 0 -40.144344102210113 -10.907470795067496 -1 0 0 I I #
face $-1 $373 $374 $34 $-1 $375 reversed single #
loop $-1 $-1 $150 $144 #
plane-surface $-1 -54.681888803768928 -46.930677033410234 0 1 0 0 0 0 -1 forward_v I I I I #
coedge $-1 $376 $377 $378 $379 forward $145 $-1 #
coedge $-1 $380 $147 $381 $382 forward $93 $-1 #
coedge $-1 $147 $380 $247 $383 forward $93 $-1 #
edge $-1 $249 -54.681888803768928 $384 -49.154021085727919 $147 $385 forward 7 unknown #
coedge $-1 $149 $148 $386 $387 forward $59 $-1 #
coedge $-1 $388 $389 $148 $246 forward $390 $-1 #
edge $-1 $391 49.154021085727919 $250 54.681888803768928 $245 $392 forward 7 unknown #
coedge $-1 $378 $150 $242 $383 reversed $238 $-1 #
coedge $-1 $150 $378 $388 $393 reversed $238 $-1 #
vertex $-1 $243 $394 #
vertex $-1 $393 $395 #
straight-curve $-1 -54.681888803768928 -40.144344102210113 0 0 0 1 I I #
face $-1 $396 $397 $35 $-1 $398 reversed single #
loop $-1 $-1 $258 $152 #
plane-surface $-1 0 0 10.907470795067496 0 0 1 1 0 0 forward_v I I I I #
coedge $-1 $399 $400 $260 $401 forward $153 $-1 #
coedge $-1 $261 $155 $399 $402 reversed $97 $-1 #
coedge $-1 $155 $261 $266 $403 reversed $97 $-1 #
coedge $-1 $404 $405 $155 $259 forward $253 $-1 #
edge $-1 $406 -70.968962675862912 $407 70.968962675862912 $258 $408 forward 7 unknown #
coedge $-1 $157 $156 $255 $401 reversed $62 $-1 #
coedge $-1 $257 $256 $156 $262 reversed $97 $-1 #
edge $-1 $268 -70.968962675862912 $409 70.968962675862912 $261 $410 forward 7 unknown #
coedge $-1 $411 $412 $157 $264 forward $397 $-1 #
edge $-1 $269 -70.968962675862912 $413 70.968962675862912 $263 $414 forward 7 unknown #
coedge $-1 $415 $158 $412 $416 reversed $267 $-1 #
coedge $-1 $158 $415 $257 $403 forward $267 $-1 #
loop $-1 $-1 $158 $396 #
vertex $-1 $159 $417 #
vertex $-1 $159 $418 #
straight-curve $-1 70.968962675862912 17.654860883415523 6.2360360999321376 0 1 0 I I #
face $-1 $-1 $283 $36 $-1 $419 forward single #
loop $-1 $-1 $420 $160 #
plane-surface $-1 70.968962675862912 0 0 -1 0 0 0 0 1 forward_v I I I I #
coedge $-1 $421 $422 $423 $424 reversed $161 $-1 #
coedge $-1 $425 $163 $165 $281 forward $101 $-1 #
coedge $-1 $163 $425 $421 $426 forward $101 $-1 #
coedge $-1 $423 $166 $163 $278 forward $283 $-1 #
edge $-1 $285 6.8770898287285469 $427 15.422088883630398 $277 $428 forward 7 unknown #
coedge $-1 $429 $430 $164 $280 forward $272 $-1 #
edge $-1 $431 -96.991081996206518 $284 -92.556892142540093 $279 $432 forward 7 unknown #
edge $-1 $285 135.31113267747341 $431 141.93792535172582 $165 $433 forward 7 unknown #
coedge $-1 $166 $423 $429 $434 forward $283 $-1 #
loop $-1 $-1 $423 $271 #
vertex $-1 $280 $435 #
vertex $-1 $167 $436 #
straight-curve $-1 30.231770069195761 -18.026679184908019 10.907470795067496 -1 0 0 I I #
coedge $-1 $287 $287 $-1 $437 reversed $170 $-1 #
edge $-1 $438 0 $438 6.2831853071796004 $171 $439 forward 7 unknown #
vertex $-1 $174 $440 #
ellipse-curve $-1 68.506629357180827 -22.299178712358945 8.6903758682342858 0.66913061440640931 0 0.74314481823134659 0.74314481823134659 0 -0.66913061440640931 1 I I #
face $-1 $-1 $303 $38 $-1 $441 forward single #
loop $-1 $-1 $442 $175 #
plane-surface $-1 70.968962675862912 0 0 -1 0 0 0 0 1 forward_v I I I I #
coedge $-1 $443 $444 $445 $446 reversed $176 $-1 #
coedge $-1 $447 $178 $180 $301 forward $110 $-1 #
coedge $-1 $178 $447 $443 $448 forward $110 $-1 #
coedge $-1 $445 $181 $178 $298 forward $303 $-1 #
edge $-1 $305 -1.2065399406647845 $449 7.3384591142370699 $297 $450 forward 7 unknown #
coedge $-1 $451 $452 $179 $300 forward $292 $-1 #
edge $-1 $453 -96.991081996206518 $304 -92.556892142540093 $299 $454 forward 7 unknown #
edge $-1 $305 135.31113267747341 $453 141.93792535172582 $180 $455 forward 7 unknown #
coedge $-1 $181 $445 $451 $456 forward $303 $-1 #
loop $-1 $-1 $445 $291 #
vertex $-1 $300 $457 #
vertex $-1 $182 $458 #
straight-curve $-1 30.231770069195761 -1.8594196461213581 10.907470795067496 -1 0 0 I I #
coedge $-1 $307 $307 $-1 $459 reversed $185 $-1 #
edge $-1 $460 0 $460 6.2831853071796004 $186 $461 forward 7 unknown #
vertex $-1 $189 $462 #
ellipse-curve $-1 68.506629357180827 -6.1319191735722853 8.6903758682342858 0.66913061440640931 0 0.74314481823134659 0.74314481823134659 0 -0.66913061440640931 1 I I #
face $-1 $-1 $323 $40 $-1 $463 forward single #
loop $-1 $-1 $464 $190 #
plane-surface $-1 70.968962675862912 0 0 -1 0 0 0 0 1 forward_v I I I I #
coedge $-1 $465 $466 $467 $468 reversed $191 $-1 #
coedge $-1 $469 $193 $195 $321 forward $119 $-1 #
coedge $-1 $193 $469 $465 $470 forward $119 $-1 #
coedge $-1 $467 $196 $193 $318 forward $323 $-1 #
edge $-1 $325 -9.2901697100581178 $471 -0.74517065515626335 $317 $472 forward 7 unknown #
coedge $-1 $473 $474 $194 $320 forward $312 $-1 #
edge $-1 $475 -96.991081996206518 $324 -92.556892142540093 $319 $476 forward 7 unknown #
edge $-1 $325 135.31113267747341 $475 141.93792535172582 $195 $477 forward 7 unknown #
coedge $-1 $196 $467 $473 $478 forward $323 $-1 #
loop $-1 $-1 $467 $311 #
vertex $-1 $320 $479 #
vertex $-1 $197 $480 #
straight-curve $-1 30.231770069195761 14.307839892665308 10.907470795067496 -1 0 0 I I #
coedge $-1 $327 $327 $-1 $481 reversed $200 $-1 #
edge $-1 $482 0 $482 6.2831853071796004 $201 $483 forward 7 unknown #
vertex $-1 $204 $484 #
ellipse-curve $-1 68.506629357180827 10.035340365214381 8.6903758682342858 0.66913061440640931 0 0.74314481823134659 0.74314481823134659 0 -0.66913061440640931 1 I I #
face $-1 $-1 $485 $42 $-1 $486 forward single #
loop $-1 $-1 $487 $205 #
plane-surface $-1 0 30.475099431451973 8.571753447499816 0 1 0 0 0 1 forward_v I I I I #
coedge $-1 $488 $208 $210 $340 forward $128 $-1 #
coedge $-1 $208 $488 $487 $489 reversed $128 $-1 #
coedge $-1 $490 $211 $208 $337 forward $206 $-1 #
edge $-1 $343 8.8288004245495983 $491 17.373799479451449 $336 $492 forward 7 unknown #
coedge $-1 $493 $494 $209 $339 forward $485 $-1 #
edge $-1 $495 35.812525969302996 $342 40.737192606667151 $338 $496 forward 7 unknown #
edge $-1 $343 -141.93792535172582 $495 -135.31113267747341 $210 $497 forward 7 unknown #
coedge $-1 $211 $490 $493 $498 reversed $206 $-1 #
vertex $-1 $498 $499 #
vertex $-1 $212 $500 #
straight-curve $-1 70.968962675862912 21.930100376550122 103.46436293760759 0 0 -1 I I #
coedge $-1 $345 $345 $-1 $501 reversed $215 $-1 #
edge $-1 $502 0 $502 6.2831853071796004 $216 $503 forward 7 unknown #
vertex $-1 $219 $504 #
ellipse-curve $-1 68.506629357180827 26.202599904001048 8.6903758682342858 0.66913061440640931 0 0.74314481823134659 0.74314481823134659 0 -0.66913061440640931 1 I I #
face $-1 $-1 $361 $33 $-1 $505 reversed single #
loop $-1 $-1 $506 $220 #
plane-surface $-1 0 40.144344102210113 0 0 -1 0 0 0 -1 forward_v I I I I #
coedge $-1 $367 $366 $507 $508 forward $221 $-1 #
coedge $-1 $223 $233 $509 $510 forward $137 $-1 #
coedge $-1 $360 $229 $223 $355 reversed $361 $-1 #
edge $-1 $511 -40.144344102210113 $234 40.144344102210113 $354 $512 forward 7 unknown #
coedge $-1 $225 $224 $366 $513 forward $89 $-1 #
coedge $-1 $506 $507 $224 $358 reversed $350 $-1 #
edge $-1 $363 -70.968962675862912 $514 70.968962675862912 $357 $515 forward 7 unknown #
edge $-1 $368 -70.968962675862912 $362 70.968962675862912 $228 $516 forward 7 unknown #
coedge $-1 $226 $354 $506 $517 reversed $361 $-1 #
loop $-1 $-1 $229 $349 #
vertex $-1 $227 $518 #
vertex $-1 $227 $519 #
straight-curve $-1 70.968962675862912 0 10.907470795067496 0 1 0 I I #
straight-curve $-1 70.968962675862912 -40.144344102210113 0 0 0 -1 I I #
coedge $-1 $352 $231 $356 $513 reversed $221 $-1 #
coedge $-1 $231 $352 $233 $370 reversed $221 $-1 #
vertex $-1 $513 $520 #
straight-curve $-1 -70.968962675862912 -40.144344102210113 0 0 0 -1 I I #
edge $-1 $235 -40.144344102210113 $521 40.144344102210113 $367 $522 forward 7 unknown #
point $-1 70.968962675862912 -40.144344102210113 -10.907470795067496 #
point $-1 -70.968962675862912 -40.144344102210113 -10.907470795067496 #
face $-1 $-1 $390 $34 $-1 $523 forward single #
loop $-1 $-1 $524 $237 #
plane-surface $-1 -49.154021085727919 -46.930677033410234 0 -1 0 0 0 0 1 forward_v I I I I #
coedge $-1 $525 $240 $380 $526 reversed $145 $-1 #
coedge $-1 $240 $525 $527 $528 reversed $145 $-1 #
coedge $-1 $248 $247 $240 $379 reversed $238 $-1 #
edge $-1 $529 -10.907470795067496 $530 10.907470795067496 $378 $531 forward 7 unknown #
coedge $-1 $242 $241 $376 $526 forward $93 $-1 #
coedge $-1 $386 $524 $241 $382 reversed $374 $-1 #
edge $-1 $384 -6.7863329312001213 $532 6.7863329312001213 $381 $533 forward 7 unknown #
edge $-1 $530 -6.7863329312001213 $249 6.7863329312001213 $247 $534 forward 7 unknown #
vertex $-1 $382 $535 #
straight-curve $-1 0 -40.144344102210113 -10.907470795067496 1 0 0 I I #
coedge $-1 $536 $381 $244 $387 reversed $374 $-1 #
edge $-1 $391 -10.907470795067496 $384 10.907470795067496 $386 $537 forward 7 unknown #
coedge $-1 $527 $245 $248 $393 forward $390 $-1 #
coedge $-1 $245 $527 $536 $538 forward $390 $-1 #
loop $-1 $-1 $245 $373 #
vertex $-1 $246 $539 #
straight-curve $-1 0 -40.144344102210113 10.907470795067496 -1 0 0 I I #
edge $-1 $250 -6.7863329312001213 $529 6.7863329312001213 $248 $540 forward 7 unknown #
point $-1 -54.681888803768928 -40.144344102210113 -10.907470795067496 #
point $-1 -54.681888803768928 -40.144344102210113 10.907470795067496 #
face $-1 $-1 $267 $35 $-1 $541 reversed single #
loop $-1 $-1 $263 $252 #
plane-surface $-1 0 40.144344102210113 0 0 -1 0 0 0 -1 forward_v I I I I #
coedge $-1 $542 $255 $256 $402 forward $153 $-1 #
coedge $-1 $255 $542 $411 $543 forward $153 $-1 #
edge $-1 $413 -22.489483218794597 $409 -12.82023854803645 $255 $544 forward 7 unknown #
edge $-1 $409 1.9501593761822296 $406 6.6215940713175865 $399 $545 forward 7 unknown #
edge $-1 $407 -6.6215940713175865 $268 -1.9501593761822296 $266 $546 forward 7 unknown #
coedge $-1 $547 $258 $415 $548 forward $253 $-1 #
coedge $-1 $258 $547 $542 $549 forward $253 $-1 #
vertex $-1 $259 $550 #
vertex $-1 $548 $551 #
straight-curve $-1 0 30.475099431451973 10.907470795067496 1 0 0 I I #
vertex $-1 $401 $552 #
straight-curve $-1 0 30.475099431451973 6.2360360999321376 -1 0 0 I I #
coedge $-1 $553 $263 $400 $543 reversed $397 $-1 #
coedge $-1 $263 $553 $265 $416 forward $397 $-1 #
vertex $-1 $401 $554 #
straight-curve $-1 0 40.144344102210113 6.2360360999321376 -1 0 0 I I #
coedge $-1 $266 $265 $404 $548 reversed $267 $-1 #
edge $-1 $555 -10.907470795067496 $269 -6.2360360999321376 $265 $556 forward 7 unknown #
point $-1 70.968962675862912 30.475099431451973 6.2360360999321376 #
point $-1 70.968962675862912 40.14434410221012 6.2360360999321376 #
plane-surface $-1 0 0 10.907470795067496 0 0 1 1 0 0 forward_v I I I I #
coedge $-1 $430 $429 $422 $557 forward $272 $-1 #
coedge $-1 $422 $274 $276 $426 reversed $161 $-1 #
coedge $-1 $274 $421 $420 $557 reversed $161 $-1 #
coedge $-1 $282 $277 $274 $424 forward $283 $-1 #
edge $-1 $427 35.812525969302996 $558 40.737192606667151 $423 $559 forward 7 unknown #
coedge $-1 $276 $275 $430 $560 reversed $101 $-1 #
edge $-1 $561 -141.93792535172582 $427 -135.31113267747341 $421 $562 forward 7 unknown #
vertex $-1 $278 $563 #
straight-curve $-1 66.044296038498771 -11.149589356179472 10.907470795067496 0 -1 0 I I #
coedge $-1 $420 $279 $282 $434 reversed $272 $-1 #
coedge $-1 $279 $420 $425 $560 forward $272 $-1 #
vertex $-1 $280 $564 #
straight-curve $-1 70.968962675862912 -18.026679184908019 103.46436293760759 0 0 1 I I #
straight-curve $-1 -34.511471059779836 -18.026679184908019 101.44829213957244 0.74314481823134659 0 -0.66913061440640931 I I #
edge $-1 $558 -26.57167823980987 $284 -18.026679184908019 $429 $565 forward 7 unknown #
point $-1 70.968962675862912 -18.026679184908019 10.907470795067496 #
point $-1 66.044296038498757 -18.026679184908019 10.907470795067496 #
edge $-1 $566 1 $566 0 $287 $-1 forward 7 unknown #
vertex $-1 $288 $567 #
ellipse-curve $-1 65.949201407542461 -22.299178712358945 5.8500644434465432 0.66913061440640931 0 0.74314481823134659 0.74314481823134659 0 -0.66913061440640931 1 I I #
point $-1 69.249774175412199 -22.299178712358945 8.0212452538279067 #
plane-surface $-1 0 0 10.907470795067496 0 0 1 1 0 0 forward_v I I I I #
coedge $-1 $452 $451 $444 $568 forward $292 $-1 #
coedge $-1 $444 $294 $296 $448 reversed $176 $-1 #
coedge $-1 $294 $443 $442 $568 reversed $176 $-1 #
coedge $-1 $302 $297 $294 $446 forward $303 $-1 #
edge $-1 $449 35.812525969302996 $569 40.737192606667151 $445 $570 forward 7 unknown #
coedge $-1 $296 $295 $452 $571 reversed $110 $-1 #
edge $-1 $572 -141.93792535172582 $449 -135.31113267747341 $443 $573 forward 7 unknown #
vertex $-1 $298 $574 #
straight-curve $-1 66.044296038498771 -3.0659595867861427 10.907470795067496 0 -1 0 I I #
coedge $-1 $442 $299 $302 $456 reversed $292 $-1 #
coedge $-1 $299 $442 $447 $571 forward $292 $-1 #
vertex $-1 $300 $575 #
straight-curve $-1 70.968962675862912 -1.8594196461213581 103.46436293760759 0 0 1 I I #
straight-curve $-1 -34.511471059779836 -1.8594196461213581 101.44829213957244 0.74314481823134659 0 -0.66913061440640931 I I #
edge $-1 $569 -10.404418701023213 $304 -1.8594196461213581 $451 $576 forward 7 unknown #
point $-1 70.968962675862912 -1.8594196461213581 10.907470795067496 #
point $-1 66.044296038498757 -1.8594196461213581 10.907470795067496 #
edge $-1 $577 1 $577 0 $307 $-1 forward 7 unknown #
vertex $-1 $308 $578 #
ellipse-curve $-1 65.949201407542461 -6.1319191735722853 5.8500644434465432 0.66913061440640931 0 0.74314481823134659 0.74314481823134659 0 -0.66913061440640931 1 I I #
point $-1 69.249774175412199 -6.1319191735722853 8.0212452538279067 #
plane-surface $-1 0 0 10.907470795067496 0 0 1 1 0 0 forward_v I I I I #
coedge $-1 $474 $473 $466 $579 forward $312 $-1 #
coedge $-1 $466 $314 $316 $470 reversed $191 $-1 #
coedge $-1 $314 $465 $464 $579 reversed $191 $-1 #
coedge $-1 $322 $317 $314 $468 forward $323 $-1 #
edge $-1 $471 35.812525969302996 $580 40.737192606667151 $467 $581 forward 7 unknown #
coedge $-1 $316 $315 $474 $582 reversed $119 $-1 #
edge $-1 $583 -141.93792535172582 $471 -135.31113267747341 $465 $584 forward 7 unknown #
vertex $-1 $318 $585 #
straight-curve $-1 66.044296038498771 5.0176701826071906 10.907470795067496 0 -1 0 I I #
coedge $-1 $464 $319 $322 $478 reversed $312 $-1 #
coedge $-1 $319 $464 $469 $582 forward $312 $-1 #
vertex $-1 $320 $586 #
straight-curve $-1 70.968962675862912 14.307839892665308 103.46436293760759 0 0 1 I I #
straight-curve $-1 -34.511471059779836 14.307839892665308 101.44829213957244 0.74314481823134659 0 -0.66913061440640931 I I #
edge $-1 $580 5.7628408377634539 $324 14.307839892665308 $473 $587 forward 7 unknown #
point $-1 70.968962675862912 14.307839892665308 10.907470795067496 #
point $-1 66.044296038498757 14.307839892665308 10.907470795067496 #
edge $-1 $588 1 $588 0 $327 $-1 forward 7 unknown #
vertex $-1 $328 $589 #
ellipse-curve $-1 65.949201407542461 10.035340365214381 5.8500644434465432 0.66913061440640931 0 0.74314481823134659 0.74314481823134659 0 -0.66913061440640931 1 I I #
point $-1 69.249774175412199 10.035340365214381 8.0212452538279067 #
loop $-1 $-1 $338 $331 #
plane-surface $-1 0 0 10.907470795067496 0 0 1 1 0 0 forward_v I I I I #
coedge $-1 $590 $591 $335 $489 forward $332 $-1 #
coedge $-1 $335 $334 $494 $592 reversed $128 $-1 #
edge $-1 $491 -98.041147208434012 $593 -91.41435453418157 $487 $594 forward 7 unknown #
coedge $-1 $341 $336 $591 $595 forward $206 $-1 #
vertex $-1 $595 $596 #
straight-curve $-1 70.968962675862912 13.101299952000524 6.4732809414010646 0 1 0 I I #
coedge $-1 $597 $338 $341 $498 forward $485 $-1 #
coedge $-1 $338 $597 $488 $592 forward $485 $-1 #
vertex $-1 $339 $598 #
straight-curve $-1 30.231770069195761 21.930100376550122 10.907470795067496 1 0 0 I I #
straight-curve $-1 -34.511471059779836 21.930100376550122 101.44829213957244 -0.74314481823134659 0 0.66913061440640931 I I #
edge $-1 $342 21.930100376550122 $599 30.475099431451973 $341 $600 forward 7 unknown #
point $-1 70.968962675862912 21.930100376550122 10.907470795067496 #
point $-1 70.968962675862912 21.930100376550122 6.4732809414010717 #
edge $-1 $601 1 $601 0 $345 $-1 forward 7 unknown #
vertex $-1 $346 $602 #
ellipse-curve $-1 65.949201407542461 26.202599904001048 5.8500644434465432 0.66913061440640931 0 0.74314481823134659 0.74314481823134659 0 -0.66913061440640931 1 I I #
point $-1 69.249774175412199 26.202599904001048 8.0212452538279067 #
plane-surface $-1 70.968962675862912 0 0 -1 0 0 0 0 1 forward_v I I I I #
coedge $-1 $509 $357 $360 $517 forward $350 $-1 #
coedge $-1 $357 $509 $352 $508 reversed $350 $-1 #
edge $-1 $514 -10.907470795067496 $521 10.907470795067496 $507 $603 forward 7 unknown #
coedge $-1 $507 $506 $353 $510 reversed $350 $-1 #
edge $-1 $521 -70.968962675862912 $511 70.968962675862912 $509 $604 forward 7 unknown #
vertex $-1 $355 $605 #
straight-curve $-1 70.968962675862912 0 -10.907470795067496 0 -1 0 I I #
edge $-1 $514 -40.144344102210113 $368 40.144344102210113 $366 $606 forward 7 unknown #
vertex $-1 $358 $607 #
straight-curve $-1 0 40.144344102210113 10.907470795067496 -1 0 0 I I #
straight-curve $-1 0 -40.144344102210113 10.907470795067496 1 0 0 I I #
edge $-1 $363 -10.907470795067496 $511 10.907470795067496 $360 $608 forward 7 unknown #
point $-1 70.968962675862912 -40.144344102210113 10.907470795067496 #
point $-1 70.968962675862912 40.144344102210113 10.907470795067496 #
point $-1 -70.968962675862912 -40.144344102210113 10.907470795067496 #
vertex $-1 $510 $609 #
straight-curve $-1 -70.968962675862912 0 -10.907470795067496 0 1 0 I I #
plane-surface $-1 0 0 10.907470795067496 0 0 1 1 0 0 forward_v I I I I #
coedge $-1 $381 $536 $525 $610 forward $374 $-1 #
coedge $-1 $377 $376 $524 $610 reversed $145 $-1 #
edge $-1 $532 -2.7639338590205043 $530 2.7639338590205043 $376 $611 forward 7 unknown #
coedge $-1 $389 $388 $377 $528 forward $390 $-1 #
edge $-1 $529 -2.7639338590205043 $612 2.7639338590205043 $377 $613 forward 7 unknown #
vertex $-1 $393 $614 #
vertex $-1 $383 $615 #
straight-curve $-1 -54.681888803768928 -53.717009964610355 0 0 0 -1 I I #
vertex $-1 $610 $616 #
straight-curve $-1 -49.154021085727919 -46.930677033410234 -10.907470795067496 0 -1 0 I I #
straight-curve $-1 -54.681888803768928 -46.930677033410234 -10.907470795067496 0 1 0 I I #
point $-1 -49.154021085727919 -40.144344102210113 -10.907470795067496 #
coedge $-1 $524 $386 $389 $538 reversed $374 $-1 #
straight-curve $-1 -49.154021085727919 -40.144344102210113 0 0 0 -1 I I #
edge $-1 $612 -6.7863329312001213 $391 6.7863329312001213 $536 $617 forward 7 unknown #
point $-1 -49.154021085727919 -40.144344102210113 10.907470795067496 #
straight-curve $-1 -54.681888803768928 -46.930677033410234 10.907470795067496 0 -1 0 I I #
plane-surface $-1 70.968962675862912 0 0 -1 0 0 0 0 1 forward_v I I I I #
coedge $-1 $400 $399 $405 $549 reversed $153 $-1 #
edge $-1 $618 -10.907470795067496 $413 -6.2360360999321376 $411 $619 forward 7 unknown #
straight-curve $-1 -70.968962675862912 17.654860883415523 6.2360360999321376 0 -1 0 I I #
straight-curve $-1 -70.968962675862912 30.475099431451973 4.285876723749908 0 0 1 I I #
straight-curve $-1 70.968962675862912 30.475099431451973 4.285876723749908 0 0 -1 I I #
coedge $-1 $405 $404 $553 $620 forward $253 $-1 #
edge $-1 $407 30.475099431451973 $555 40.144344102210113 $415 $621 forward 7 unknown #
edge $-1 $618 -40.144344102210113 $406 -30.475099431451973 $542 $622 forward 7 unknown #
point $-1 -70.968962675862912 30.475099431451973 10.907470795067495 #
point $-1 70.968962675862912 30.475099431451973 10.907470795067495 #
point $-1 -70.968962675862912 30.475099431451973 6.2360360999321376 #
coedge $-1 $412 $411 $547 $620 reversed $397 $-1 #
point $-1 -70.968962675862912 40.14434410221012 6.2360360999321376 #
vertex $-1 $548 $623 #
straight-curve $-1 70.968962675862912 40.144344102210113 0 0 0 -1 I I #
edge $-1 $558 92.556892142540093 $561 96.991081996206518 $420 $624 forward 7 unknown #
vertex $-1 $434 $625 #
straight-curve $-1 30.231770069195761 -26.57167823980987 10.907470795067496 1 0 0 I I #
edge $-1 $561 -15.422088883630398 $431 -6.8770898287285469 $430 $626 forward 7 unknown #
vertex $-1 $560 $627 #
straight-curve $-1 -34.511471059779836 -26.57167823980987 101.44829213957244 -0.74314481823134659 0 0.66913061440640931 I I #
point $-1 66.044296038498757 -26.57167823980987 10.907470795067496 #
point $-1 70.968962675862912 -18.026679184908019 6.4732809414010717 #
straight-curve $-1 70.968962675862912 0 10.907470795067496 0 1 0 I I #
vertex $-1 $437 $628 #
point $-1 66.692346225773804 -22.299178712358945 5.1809338290401339 #
edge $-1 $569 92.556892142540093 $572 96.991081996206518 $442 $629 forward 7 unknown #
vertex $-1 $456 $630 #
straight-curve $-1 30.231770069195761 -10.404418701023213 10.907470795067496 1 0 0 I I #
edge $-1 $572 -7.3384591142370699 $453 1.2065399406647845 $452 $631 forward 7 unknown #
vertex $-1 $571 $632 #
straight-curve $-1 -34.511471059779836 -10.404418701023213 101.44829213957244 -0.74314481823134659 0 0.66913061440640931 I I #
point $-1 66.044296038498757 -10.404418701023213 10.907470795067496 #
point $-1 70.968962675862912 -1.8594196461213581 6.4732809414010717 #
straight-curve $-1 70.968962675862912 0 10.907470795067496 0 1 0 I I #
vertex $-1 $459 $633 #
point $-1 66.692346225773804 -6.1319191735722853 5.1809338290401339 #
edge $-1 $580 92.556892142540093 $583 96.991081996206518 $464 $634 forward 7 unknown #
vertex $-1 $478 $635 #
straight-curve $-1 30.231770069195761 5.7628408377634539 10.907470795067496 1 0 0 I I #
edge $-1 $583 0.74517065515626335 $475 9.2901697100581178 $474 $636 forward 7 unknown #
vertex $-1 $582 $637 #
straight-curve $-1 -34.511471059779836 5.7628408377634539 101.44829213957244 -0.74314481823134659 0 0.66913061440640931 I I #
point $-1 66.044296038498757 5.7628408377634539 10.907470795067496 #
point $-1 70.968962675862912 14.307839892665308 6.4732809414010717 #
straight-curve $-1 70.968962675862912 0 10.907470795067496 0 1 0 I I #
vertex $-1 $481 $638 #
point $-1 66.692346225773804 10.035340365214381 5.1809338290401339 #
coedge $-1 $591 $487 $597 $639 reversed $332 $-1 #
coedge $-1 $487 $590 $490 $595 reversed $332 $-1 #
edge $-1 $593 -17.373799479451449 $495 -8.8288004245495983 $494 $640 forward 7 unknown #
vertex $-1 $592 $641 #
straight-curve $-1 -1.8898078455414797 30.475099431451973 72.075614010089737 -0.74314481823134659 0 0.66913061440640931 I I #
edge $-1 $491 2.1874042176511566 $599 6.6215940713175865 $490 $642 forward 7 unknown #
point $-1 70.968962675862912 30.475099431451973 6.4732809414010646 #
coedge $-1 $494 $493 $590 $639 forward $485 $-1 #
point $-1 66.044296038498757 21.930100376550122 10.907470795067496 #
vertex $-1 $639 $643 #
straight-curve $-1 70.968962675862912 0 10.907470795067496 0 1 0 I I #
vertex $-1 $501 $644 #
point $-1 66.692346225773804 26.202599904001048 5.1809338290401339 #
straight-curve $-1 -70.968962675862912 40.144344102210113 0 0 0 -1 I I #
straight-curve $-1 0 40.144344102210113 -10.907470795067496 1 0 0 I I #
point $-1 70.968962675862912 40.144344102210113 -10.907470795067496 #
straight-curve $-1 -70.968962675862912 0 10.907470795067496 0 -1 0 I I #
point $-1 -70.968962675862912 40.144344102210113 10.907470795067496 #
straight-curve $-1 70.968962675862912 40.144344102210113 0 0 0 -1 I I #
point $-1 -70.968962675862912 40.144344102210113 -10.907470795067496 #
edge $-1 $612 -10.907470795067496 $532 10.907470795067496 $524 $645 forward 7 unknown #
straight-curve $-1 -51.917954944748423 -53.717009964610355 -10.907470795067496 -1 0 0 I I #
vertex $-1 $538 $646 #
straight-curve $-1 -51.917954944748423 -53.717009964610355 10.907470795067496 1 0 0 I I #
point $-1 -54.681888803768928 -53.717009964610355 10.907470795067496 #
point $-1 -54.681888803768928 -53.717009964610355 -10.907470795067496 #
point $-1 -49.154021085727919 -53.717009964610355 -10.907470795067496 #
straight-curve $-1 -49.154021085727919 -46.930677033410234 10.907470795067496 0 1 0 I I #
vertex $-1 $620 $647 #
straight-curve $-1 -70.968962675862912 40.144344102210113 0 0 0 -1 I I #
edge $-1 $555 -70.968962675862912 $618 70.968962675862912 $553 $648 forward 7 unknown #
straight-curve $-1 70.968962675862912 0 10.907470795067496 0 1 0 I I #
straight-curve $-1 -70.968962675862912 0 10.907470795067496 0 -1 0 I I #
point $-1 70.968962675862912 40.144344102210113 10.907470795067496 #
straight-curve $-1 70.968962675862912 -26.57167823980987 103.46436293760759 0 0 -1 I I #
point $-1 70.968962675862912 -26.57167823980987 10.907470795067496 #
straight-curve $-1 70.968962675862912 -11.149589356179472 6.4732809414010646 0 1 0 I I #
point $-1 70.968962675862912 -26.57167823980987 6.4732809414010717 #
point $-1 65.280070793136048 -22.299178712358945 5.1069196252151965 #
straight-curve $-1 70.968962675862912 -10.404418701023213 103.46436293760759 0 0 -1 I I #
point $-1 70.968962675862912 -10.404418701023213 10.907470795067496 #
straight-curve $-1 70.968962675862912 -3.0659595867861427 6.4732809414010646 0 1 0 I I #
point $-1 70.968962675862912 -10.404418701023213 6.4732809414010717 #
point $-1 65.280070793136048 -6.1319191735722853 5.1069196252151965 #
straight-curve $-1 70.968962675862912 5.7628408377634539 103.46436293760759 0 0 -1 I I #
point $-1 70.968962675862912 5.7628408377634539 10.907470795067496 #
straight-curve $-1 70.968962675862912 5.0176701826071906 6.4732809414010646 0 1 0 I I #
point $-1 70.968962675862912 5.7628408377634539 6.4732809414010717 #
point $-1 65.280070793136048 10.035340365214381 5.1069196252151965 #
edge $-1 $599 -70.968962675862912 $593 -66.044296038498757 $597 $649 forward 7 unknown #
straight-curve $-1 66.044296038498771 13.101299952000524 10.907470795067496 0 -1 0 I I #
point $-1 66.044296038498757 30.475099431451973 10.907470795067496 #
straight-curve $-1 70.968962675862912 30.475099431451973 4.285876723749908 0 0 1 I I #
point $-1 70.968962675862912 30.475099431451973 10.907470795067495 #
point $-1 65.280070793136048 26.202599904001048 5.1069196252151965 #
straight-curve $-1 -49.154021085727919 -53.717009964610355 0 0 0 -1 I I #
point $-1 -49.154021085727919 -53.717009964610355 10.907470795067496 #
point $-1 -70.968962675862912 40.144344102210113 10.907470795067496 #
straight-curve $-1 0 40.144344102210113 10.907470795067496 -1 0 0 I I #
straight-curve $-1 0 30.475099431451973 10.907470795067496 -1 0 0 I I #
End-of-ACIS-data 