500 0 18 0           
7 Unknown 11 ACIS 5.0 NT 24 Fri Mar 26 00:21:52 1999 
-1 9.9999999999999995e-007 1e-010 
body $-1 $18 $-1 $19 #
body $-1 $20 $-1 $21 #
body $-1 $22 $-1 $23 #
body $-1 $24 $-1 $25 #
body $-1 $26 $-1 $27 #
body $-1 $28 $-1 $29 #
body $-1 $30 $-1 $31 #
body $-1 $32 $-1 $33 #
body $-1 $34 $-1 $35 #
body $-1 $36 $-1 $37 #
body $-1 $38 $-1 $39 #
body $-1 $40 $-1 $41 #
body $-1 $42 $-1 $43 #
body $-1 $44 $-1 $45 #
body $-1 $46 $-1 $47 #
body $-1 $48 $-1 $49 #
body $-1 $50 $-1 $51 #
body $-1 $52 $-1 $53 #
lump $-1 $-1 $54 $0 #
transform $-1 1 0 0 0 1 0 0 0 1 73.533738212225714 42.053614321737157 10.622686250788485 1 rotate no_reflect no_shear #
lump $-1 $-1 $55 $1 #
transform $-1 1 0 0 0 1 0 0 0 1 73.533738212225714 42.053614321737157 10.622686250788485 1 rotate no_reflect no_shear #
lump $-1 $-1 $56 $2 #
transform $-1 1 0 0 0 1 0 0 0 1 73.533738212225714 42.053614321737157 10.622686250788485 1 rotate no_reflect no_shear #
lump $-1 $-1 $57 $3 #
transform $-1 1 0 0 0 1 0 0 0 1 73.533738212225714 42.053614321737157 10.622686250788485 1 rotate no_reflect no_shear #
lump $-1 $-1 $58 $4 #
transform $-1 1 0 0 0 1 0 0 0 1 73.533738212225714 42.053614321737157 10.622686250788485 1 rotate no_reflect no_shear #
lump $-1 $-1 $59 $5 #
transform $-1 1 0 0 0 1 0 0 0 1 73.533738212225714 42.053614321737157 10.622686250788485 1 rotate no_reflect no_shear #
lump $-1 $-1 $60 $6 #
transform $-1 1 0 0 0 1 0 0 0 1 73.533738212225714 42.053614321737157 10.622686250788485 1 rotate no_reflect no_shear #
lump $-1 $-1 $61 $7 #
transform $-1 1 0 0 0 1 0 0 0 1 73.533738212225714 42.053614321737157 10.622686250788485 1 rotate no_reflect no_shear #
lump $-1 $-1 $62 $8 #
transform $-1 1 0 0 0 1 0 0 0 1 73.533738212225714 42.053614321737157 10.622686250788485 1 rotate no_reflect no_shear #
lump $-1 $-1 $63 $9 #
transform $-1 1 0 0 0 1 0 0 0 1 73.533738212225714 42.053614321737157 10.622686250788485 1 rotate no_reflect no_shear #
lump $-1 $-1 $64 $10 #
transform $-1 1 0 0 0 1 0 0 0 1 73.533738212225714 42.053614321737157 10.622686250788485 1 rotate no_reflect no_shear #
lump $-1 $-1 $65 $11 #
transform $-1 1 0 0 0 1 0 0 0 1 73.533738212225714 42.053614321737157 10.622686250788485 1 rotate no_reflect no_shear #
lump $-1 $-1 $66 $12 #
transform $-1 1 0 0 0 1 0 0 0 1 73.533738212225714 42.053614321737157 10.622686250788485 1 rotate no_reflect no_shear #
lump $-1 $-1 $67 $13 #
transform $-1 1 0 0 0 1 0 0 0 1 73.533738212225714 42.053614321737157 10.622686250788485 1 rotate no_reflect no_shear #
lump $-1 $-1 $68 $14 #
transform $-1 1 0 0 0 1 0 0 0 1 73.533738212225714 42.053614321737157 10.622686250788485 1 rotate no_reflect no_shear #
lump $-1 $-1 $69 $15 #
transform $-1 1 0 0 0 1 0 0 0 1 73.533738212225714 42.053614321737157 10.622686250788485 1 rotate no_reflect no_shear #
lump $-1 $-1 $70 $16 #
transform $-1 1 0 0 0 1 0 0 0 1 73.533738212225714 42.053614321737157 10.622686250788485 1 rotate no_reflect no_shear #
lump $-1 $-1 $71 $17 #
transform $-1 1 0 0 0 1 0 0 0 1 73.533738212225714 42.053614321737157 10.622686250788485 1 rotate no_reflect no_shear #
shell $-1 $-1 $-1 $72 $-1 $18 #
shell $-1 $-1 $-1 $73 $-1 $20 #
shell $-1 $-1 $-1 $74 $-1 $22 #
shell $-1 $-1 $-1 $75 $-1 $24 #
shell $-1 $-1 $-1 $76 $-1 $26 #
shell $-1 $-1 $-1 $77 $-1 $28 #
shell $-1 $-1 $-1 $78 $-1 $30 #
shell $-1 $-1 $-1 $79 $-1 $32 #
shell $-1 $-1 $-1 $80 $-1 $34 #
shell $-1 $-1 $-1 $81 $-1 $36 #
shell $-1 $-1 $-1 $82 $-1 $38 #
shell $-1 $-1 $-1 $83 $-1 $40 #
shell $-1 $-1 $-1 $84 $-1 $42 #
shell $-1 $-1 $-1 $85 $-1 $44 #
shell $-1 $-1 $-1 $86 $-1 $46 #
shell $-1 $-1 $-1 $87 $-1 $48 #
shell $-1 $-1 $-1 $88 $-1 $50 #
shell $-1 $-1 $-1 $89 $-1 $52 #
face $-1 $90 $91 $54 $-1 $92 forward single #
face $-1 $93 $94 $55 $-1 $95 reversed single #
face $-1 $96 $97 $56 $-1 $98 reversed single #
face $-1 $99 $100 $57 $-1 $101 reversed single #
face $-1 $102 $103 $58 $-1 $104 forward single #
face $-1 $105 $106 $59 $-1 $107 forward single #
face $-1 $108 $109 $60 $-1 $110 reversed single #
face $-1 $111 $112 $61 $-1 $113 forward single #
face $-1 $114 $115 $62 $-1 $116 forward single #
face $-1 $117 $118 $63 $-1 $119 reversed single #
face $-1 $120 $121 $64 $-1 $122 forward single #
face $-1 $123 $124 $65 $-1 $125 forward single #
face $-1 $126 $127 $66 $-1 $128 reversed single #
face $-1 $129 $130 $67 $-1 $131 forward single #
face $-1 $132 $133 $68 $-1 $134 forward single #
face $-1 $135 $136 $69 $-1 $137 reversed single #
face $-1 $138 $139 $70 $-1 $140 forward single #
face $-1 $141 $142 $71 $-1 $143 forward single #
face $-1 $144 $145 $54 $-1 $146 reversed single #
loop $-1 $-1 $147 $72 #
plane-surface $-1 0 0 10.622686250788485 0 0 1 1 0 0 forward_v I I I I #
face $-1 $148 $149 $55 $-1 $150 reversed single #
loop $-1 $-1 $151 $73 #
plane-surface $-1 0 -37.705428897608442 5.5997736792236008 0 0 1 1 0 0 forward_v I I I I #
face $-1 $152 $153 $56 $-1 $154 reversed single #
loop $-1 $-1 $155 $74 #
plane-surface $-1 0 37.705428897608442 5.5997736792236008 0 0 1 1 0 0 forward_v I I I I #
face $-1 $156 $157 $57 $-1 $158 reversed single #
loop $-1 $-1 $159 $75 #
plane-surface $-1 -194.00436336995978 -23.720220085873422 90.555968438160974 0 1 0 -0.81915205242281985 0 0.57357642473473569 forward_v I I I I #
face $-1 $160 $161 $58 $-1 $162 forward single #
loop $-1 $163 $164 $76 #
cone-surface $-1 -71.576299156197578 -21.708334843263835 8.1253204709589291 0.81915205242281985 0 -0.57357642473473569 0.28678821236736785 0 0.40957602621140993 1 I I 0 1 0.5 forward I I I I #
face $-1 $165 $166 $59 $-1 $167 forward single #
loop $-1 $168 $169 $77 #
cone-surface $-1 -71.576299156197578 -18.690506979349454 8.1253204709589291 0.81915205242281985 0 -0.57357642473473569 0.28678821236736785 0 0.40957602621140993 1 I I 0 1 0.5 forward I I I I #
face $-1 $170 $171 $60 $-1 $172 reversed single #
loop $-1 $-1 $173 $78 #
plane-surface $-1 -194.00436336995978 -10.253939478335656 90.555968438160974 0 1 0 -0.81915205242281985 0 0.57357642473473569 forward_v I I I I #
face $-1 $174 $175 $61 $-1 $176 forward single #
loop $-1 $177 $178 $79 #
cone-surface $-1 -71.576299156197578 -8.2420542357260729 8.1253204709589291 0.81915205242281985 0 -0.57357642473473569 0.28678821236736785 0 0.40957602621140993 1 I I 0 1 0.5 forward I I I I #
face $-1 $179 $180 $62 $-1 $181 forward single #
loop $-1 $182 $183 $80 #
cone-surface $-1 -71.576299156197578 -5.2242263718116959 8.1253204709589291 0.81915205242281985 0 -0.57357642473473569 0.28678821236736785 0 0.40957602621140993 1 I I 0 1 0.5 forward I I I I #
face $-1 $184 $185 $63 $-1 $186 reversed single #
loop $-1 $-1 $187 $81 #
plane-surface $-1 -194.00436336995978 3.2123411292021053 90.555968438160974 0 1 0 -0.81915205242281985 0 0.57357642473473569 forward_v I I I I #
face $-1 $188 $189 $64 $-1 $190 forward single #
loop $-1 $191 $192 $82 #
cone-surface $-1 -71.576299156197578 5.2242263718116888 8.1253204709589291 0.81915205242281985 0 -0.57357642473473569 0.28678821236736785 0 0.40957602621140993 1 I I 0 1 0.5 forward I I I I #
face $-1 $193 $194 $65 $-1 $195 forward single #
loop $-1 $196 $197 $83 #
cone-surface $-1 -71.576299156197578 8.2420542357260658 8.1253204709589291 0.81915205242281985 0 -0.57357642473473569 0.28678821236736785 0 0.40957602621140993 1 I I 0 1 0.5 forward I I I I #
face $-1 $198 $199 $66 $-1 $200 reversed single #
loop $-1 $-1 $201 $84 #
plane-surface $-1 -194.00436336995978 16.678621736739867 90.555968438160974 0 1 0 -0.81915205242281985 0 0.57357642473473569 forward_v I I I I #
face $-1 $202 $203 $67 $-1 $204 forward single #
loop $-1 $205 $206 $85 #
cone-surface $-1 -71.576299156197578 18.69050697934945 8.1253204709589291 0.81915205242281985 0 -0.57357642473473569 0.28678821236736785 0 0.40957602621140993 1 I I 0 1 0.5 forward I I I I #
face $-1 $207 $208 $68 $-1 $209 forward single #
loop $-1 $210 $211 $86 #
cone-surface $-1 -71.576299156197578 21.708334843263827 8.1253204709589291 0.81915205242281985 0 -0.57357642473473569 0.28678821236736785 0 0.40957602621140993 1 I I 0 1 0.5 forward I I I I #
face $-1 $212 $213 $69 $-1 $214 reversed single #
loop $-1 $-1 $215 $87 #
plane-surface $-1 91.660812328283257 -6.9543417936719294 210.88688897775654 0 -1 0 -0.7660444514056185 0 -0.64278759981090561 forward_v I I I I #
face $-1 $216 $217 $70 $-1 $218 forward single #
loop $-1 $219 $220 $88 #
cone-surface $-1 68.699524619528731 -19.570872114049948 5.5410875128349861 -0.7660444514056185 0 -0.64278759981090561 0.96418139971635841 0 -1.1490666771084277 1 I I 0 1 1.5 forward I I I I #
face $-1 $221 $222 $71 $-1 $223 forward single #
loop $-1 $224 $225 $89 #
cone-surface $-1 68.699524619528731 -12.000953921823132 5.5410875128349861 -0.7660444514056185 0 -0.64278759981090561 0.96418139971635841 0 -1.1490666771084277 1 I I 0 1 1.5 forward I I I I #
face $-1 $226 $227 $54 $-1 $228 reversed single #
loop $-1 $-1 $229 $90 #
plane-surface $-1 0 0 -10.622686250788485 0 0 1 1 0 0 forward_v I I I I #
coedge $-1 $230 $231 $232 $233 forward $91 $-1 #
face $-1 $234 $235 $55 $-1 $236 reversed single #
loop $-1 $-1 $237 $93 #
plane-surface $-1 0 -33.357243473479727 8.1112299650060447 0 -1 0 0 0 -1 forward_v I I I I #
coedge $-1 $238 $239 $240 $241 reversed $94 $-1 #
face $-1 $242 $243 $56 $-1 $244 forward single #
loop $-1 $-1 $245 $96 #
plane-surface $-1 0 33.357243473479727 8.1112299650060447 0 1 0 0 0 1 forward_v I I I I #
coedge $-1 $246 $247 $248 $249 reversed $97 $-1 #
face $-1 $250 $251 $57 $-1 $252 reversed single #
loop $-1 $-1 $253 $99 #
plane-surface $-1 -73.533738212225714 -20.199420911306643 6.2015311158640998 -0.81915205242281985 0 0.57357642473473569 0.57357642473473569 0 0.81915205242281985 forward_v I I I I #
coedge $-1 $254 $255 $256 $257 reversed $100 $-1 #
face $-1 $-1 $258 $58 $-1 $259 forward single #
loop $-1 $260 $261 $102 #
cone-surface $-1 -70.961935116880468 -21.708334843263835 7.6951381524078766 0.81915205242281985 0 -0.57357642473473569 0.14339410618368392 0 0.20478801310570496 1 I I -0.70710678118654746 0.70710678118654746 0.25 forward I I I I #
loop $-1 $-1 $262 $76 #
coedge $-1 $164 $164 $263 $264 reversed $103 $-1 #
face $-1 $-1 $265 $59 $-1 $266 forward single #
loop $-1 $267 $268 $105 #
cone-surface $-1 -70.961935116880468 -18.690506979349454 7.6951381524078766 0.81915205242281985 0 -0.57357642473473569 0.14339410618368392 0 0.20478801310570496 1 I I -0.70710678118654746 0.70710678118654746 0.25 forward I I I I #
loop $-1 $-1 $269 $77 #
coedge $-1 $169 $169 $270 $271 reversed $106 $-1 #
face $-1 $272 $273 $60 $-1 $274 reversed single #
loop $-1 $-1 $275 $108 #
plane-surface $-1 -73.533738212225714 -6.7331403037688773 6.2015311158640998 -0.81915205242281985 0 0.57357642473473569 0.57357642473473569 0 0.81915205242281985 forward_v I I I I #
coedge $-1 $276 $277 $278 $279 reversed $109 $-1 #
face $-1 $-1 $280 $61 $-1 $281 forward single #
loop $-1 $282 $283 $111 #
cone-surface $-1 -70.961935116880468 -8.2420542357260729 7.6951381524078766 0.81915205242281985 0 -0.57357642473473569 0.14339410618368392 0 0.20478801310570496 1 I I -0.70710678118654746 0.70710678118654746 0.25 forward I I I I #
loop $-1 $-1 $284 $79 #
coedge $-1 $178 $178 $285 $286 reversed $112 $-1 #
face $-1 $-1 $287 $62 $-1 $288 forward single #
loop $-1 $289 $290 $114 #
cone-surface $-1 -70.961935116880468 -5.2242263718116959 7.6951381524078766 0.81915205242281985 0 -0.57357642473473569 0.14339410618368392 0 0.20478801310570496 1 I I -0.70710678118654746 0.70710678118654746 0.25 forward I I I I #
loop $-1 $-1 $291 $80 #
coedge $-1 $183 $183 $292 $293 reversed $115 $-1 #
face $-1 $294 $295 $63 $-1 $296 reversed single #
loop $-1 $-1 $297 $117 #
plane-surface $-1 -73.533738212225714 6.7331403037688844 6.2015311158640998 -0.81915205242281985 0 0.57357642473473569 0.57357642473473569 0 0.81915205242281985 forward_v I I I I #
coedge $-1 $298 $299 $300 $301 reversed $118 $-1 #
face $-1 $-1 $302 $64 $-1 $303 forward single #
loop $-1 $304 $305 $120 #
cone-surface $-1 -70.961935116880468 5.2242263718116888 7.6951381524078766 0.81915205242281985 0 -0.57357642473473569 0.14339410618368392 0 0.20478801310570496 1 I I -0.70710678118654746 0.70710678118654746 0.25 forward I I I I #
loop $-1 $-1 $306 $82 #
coedge $-1 $192 $192 $307 $308 reversed $121 $-1 #
face $-1 $-1 $309 $65 $-1 $310 forward single #
loop $-1 $311 $312 $123 #
cone-surface $-1 -70.961935116880468 8.2420542357260658 7.6951381524078766 0.81915205242281985 0 -0.57357642473473569 0.14339410618368392 0 0.20478801310570496 1 I I -0.70710678118654746 0.70710678118654746 0.25 forward I I I I #
loop $-1 $-1 $313 $83 #
coedge $-1 $197 $197 $314 $315 reversed $124 $-1 #
face $-1 $316 $317 $66 $-1 $318 reversed single #
loop $-1 $-1 $319 $126 #
plane-surface $-1 -73.533738212225714 20.199420911306646 6.2015311158640998 -0.81915205242281985 0 0.57357642473473569 0.57357642473473569 0 0.81915205242281985 forward_v I I I I #
coedge $-1 $320 $321 $322 $323 reversed $127 $-1 #
face $-1 $-1 $324 $67 $-1 $325 forward single #
loop $-1 $326 $327 $129 #
cone-surface $-1 -70.961935116880468 18.69050697934945 7.6951381524078766 0.81915205242281985 0 -0.57357642473473569 0.14339410618368392 0 0.20478801310570496 1 I I -0.70710678118654746 0.70710678118654746 0.25 forward I I I I #
loop $-1 $-1 $328 $85 #
coedge $-1 $206 $206 $329 $330 reversed $130 $-1 #
face $-1 $-1 $331 $68 $-1 $332 forward single #
loop $-1 $333 $334 $132 #
cone-surface $-1 -70.961935116880468 21.708334843263827 7.6951381524078766 0.81915205242281985 0 -0.57357642473473569 0.14339410618368392 0 0.20478801310570496 1 I I -0.70710678118654746 0.70710678118654746 0.25 forward I I I I #
loop $-1 $-1 $335 $86 #
coedge $-1 $211 $211 $336 $337 reversed $133 $-1 #
face $-1 $338 $339 $69 $-1 $340 reversed single #
loop $-1 $-1 $341 $135 #
plane-surface $-1 -20.999411968894364 -15.785913017936544 116.35373879663646 0.7660444514056185 0 0.64278759981090561 0.64278759981090561 0 -0.7660444514056185 forward_v I I I I #
coedge $-1 $342 $343 $344 $345 reversed $136 $-1 #
face $-1 $-1 $346 $70 $-1 $347 forward single #
loop $-1 $348 $349 $138 #
cone-surface $-1 66.197910342617647 -19.570872114049948 3.4419839506881313 -0.7660444514056185 0 -0.64278759981090561 0.48209069985817921 0 -0.57453333855421385 1 I I -0.70710678118654724 0.70710678118654768 0.75 forward I I I I #
loop $-1 $-1 $350 $88 #
coedge $-1 $220 $220 $351 $352 reversed $139 $-1 #
face $-1 $-1 $353 $71 $-1 $354 forward single #
loop $-1 $355 $356 $141 #
cone-surface $-1 66.197910342617647 -12.000953921823132 3.4419839506881313 -0.7660444514056185 0 -0.64278759981090561 0.48209069985817921 0 -0.57453333855421385 1 I I -0.70710678118654724 0.70710678118654768 0.75 forward I I I I #
loop $-1 $-1 $357 $89 #
coedge $-1 $225 $225 $358 $359 reversed $142 $-1 #
face $-1 $360 $361 $54 $-1 $362 reversed single #
loop $-1 $-1 $363 $144 #
plane-surface $-1 0 -42.053614321737157 0 0 1 0 0 0 1 forward_v I I I I #
coedge $-1 $364 $365 $366 $367 forward $145 $-1 #
coedge $-1 $368 $147 $369 $370 forward $91 $-1 #
coedge $-1 $147 $368 $371 $372 forward $91 $-1 #
coedge $-1 $373 $374 $147 $233 reversed $375 $-1 #
edge $-1 $376 -42.053614321737157 $377 42.053614321737157 $232 $378 forward 7 unknown #
face $-1 $379 $380 $55 $-1 $381 reversed single #
loop $-1 $-1 $382 $148 #
plane-surface $-1 -73.533738212225714 0 0 1 0 0 0 0 -1 forward_v I I I I #
coedge $-1 $383 $384 $385 $386 reversed $149 $-1 #
coedge $-1 $387 $151 $388 $389 reversed $94 $-1 #
coedge $-1 $151 $387 $383 $390 forward $94 $-1 #
coedge $-1 $385 $391 $151 $241 forward $392 $-1 #
edge $-1 $393 -23.200899872932936 $394 -14.504529024675506 $240 $395 forward 7 unknown #
face $-1 $396 $397 $56 $-1 $398 reversed single #
loop $-1 $-1 $399 $152 #
plane-surface $-1 0 0 10.622686250788485 0 0 1 1 0 0 forward_v I I I I #
coedge $-1 $400 $401 $402 $403 reversed $153 $-1 #
coedge $-1 $404 $155 $400 $405 forward $97 $-1 #
coedge $-1 $155 $404 $406 $407 reversed $97 $-1 #
coedge $-1 $408 $409 $155 $249 forward $397 $-1 #
edge $-1 $410 14.504529024675506 $411 23.200899872932936 $248 $412 forward 7 unknown #
face $-1 $413 $414 $57 $-1 $415 reversed single #
loop $-1 $-1 $416 $156 #
plane-surface $-1 -194.00436336995978 -16.678621736739863 90.555968438160974 0 -1 0 0.81915205242281985 0 -0.57357642473473569 forward_v I I I I #
coedge $-1 $417 $418 $419 $420 reversed $157 $-1 #
coedge $-1 $255 $159 $421 $422 reversed $100 $-1 #
coedge $-1 $159 $254 $417 $423 reversed $100 $-1 #
coedge $-1 $419 $424 $159 $257 forward $425 $-1 #
edge $-1 $426 23.468443472754174 $427 26.564169532387623 $256 $428 forward 7 unknown #
loop $-1 $-1 $263 $160 #
plane-surface $-1 -73.533738212225714 -20.199420911306643 6.2015311158640998 -0.81915205242281985 0 0.57357642473473569 0.57357642473473569 0 0.81915205242281985 forward_v I I I I #
loop $-1 $-1 $429 $102 #
coedge $-1 $261 $261 $262 $430 reversed $161 $-1 #
coedge $-1 $262 $262 $261 $430 forward $163 $-1 #
coedge $-1 $263 $263 $164 $264 forward $258 $-1 #
edge $-1 $431 0 $431 6.2831853071796004 $263 $432 forward 7 unknown #
loop $-1 $-1 $270 $165 #
plane-surface $-1 -73.533738212225714 -20.199420911306643 6.2015311158640998 -0.81915205242281985 0 0.57357642473473569 0.57357642473473569 0 0.81915205242281985 forward_v I I I I #
loop $-1 $-1 $433 $105 #
coedge $-1 $268 $268 $269 $434 reversed $166 $-1 #
coedge $-1 $269 $269 $268 $434 forward $168 $-1 #
coedge $-1 $270 $270 $169 $271 forward $265 $-1 #
edge $-1 $435 0 $435 6.2831853071796004 $270 $436 forward 7 unknown #
face $-1 $437 $438 $60 $-1 $439 forward single #
loop $-1 $-1 $440 $170 #
plane-surface $-1 -194.00436336995978 -3.2123411292020982 90.555968438160974 0 -1 0 0.81915205242281985 0 -0.57357642473473569 forward_v I I I I #
coedge $-1 $441 $442 $443 $444 reversed $171 $-1 #
coedge $-1 $277 $173 $445 $446 reversed $109 $-1 #
coedge $-1 $173 $276 $441 $447 reversed $109 $-1 #
coedge $-1 $443 $448 $173 $279 forward $438 $-1 #
edge $-1 $449 23.468443472754174 $450 26.564169532387623 $278 $451 forward 7 unknown #
loop $-1 $-1 $285 $174 #
plane-surface $-1 -73.533738212225714 -6.7331403037688773 6.2015311158640998 -0.81915205242281985 0 0.57357642473473569 0.57357642473473569 0 0.81915205242281985 forward_v I I I I #
loop $-1 $-1 $452 $111 #
coedge $-1 $283 $283 $284 $453 reversed $175 $-1 #
coedge $-1 $284 $284 $283 $453 forward $177 $-1 #
coedge $-1 $285 $285 $178 $286 forward $280 $-1 #
edge $-1 $454 0 $454 6.2831853071796004 $285 $455 forward 7 unknown #
loop $-1 $-1 $292 $179 #
plane-surface $-1 -73.533738212225714 -6.7331403037688773 6.2015311158640998 -0.81915205242281985 0 0.57357642473473569 0.57357642473473569 0 0.81915205242281985 forward_v I I I I #
loop $-1 $-1 $456 $114 #
coedge $-1 $290 $290 $291 $457 reversed $180 $-1 #
coedge $-1 $291 $291 $290 $457 forward $182 $-1 #
coedge $-1 $292 $292 $183 $293 forward $287 $-1 #
edge $-1 $458 0 $458 6.2831853071796004 $292 $459 forward 7 unknown #
face $-1 $460 $461 $63 $-1 $462 forward single #
loop $-1 $-1 $463 $184 #
plane-surface $-1 -194.00436336995978 10.253939478335663 90.555968438160974 0 -1 0 0.81915205242281985 0 -0.57357642473473569 forward_v I I I I #
coedge $-1 $464 $465 $466 $467 reversed $185 $-1 #
coedge $-1 $299 $187 $468 $469 reversed $118 $-1 #
coedge $-1 $187 $298 $464 $470 reversed $118 $-1 #
coedge $-1 $466 $471 $187 $301 forward $461 $-1 #
edge $-1 $472 23.468443472754174 $473 26.564169532387623 $300 $474 forward 7 unknown #
loop $-1 $-1 $307 $188 #
plane-surface $-1 -73.533738212225714 6.7331403037688844 6.2015311158640998 -0.81915205242281985 0 0.57357642473473569 0.57357642473473569 0 0.81915205242281985 forward_v I I I I #
loop $-1 $-1 $475 $120 #
coedge $-1 $305 $305 $306 $476 reversed $189 $-1 #
coedge $-1 $306 $306 $305 $476 forward $191 $-1 #
coedge $-1 $307 $307 $192 $308 forward $302 $-1 #
edge $-1 $477 0 $477 6.2831853071796004 $307 $478 forward 7 unknown #
loop $-1 $-1 $314 $193 #
plane-surface $-1 -73.533738212225714 6.7331403037688844 6.2015311158640998 -0.81915205242281985 0 0.57357642473473569 0.57357642473473569 0 0.81915205242281985 forward_v I I I I #
loop $-1 $-1 $479 $123 #
coedge $-1 $312 $312 $313 $480 reversed $194 $-1 #
coedge $-1 $313 $313 $312 $480 forward $196 $-1 #
coedge $-1 $314 $314 $197 $315 forward $309 $-1 #
edge $-1 $481 0 $481 6.2831853071796004 $314 $482 forward 7 unknown #
face $-1 $483 $484 $66 $-1 $485 forward single #
loop $-1 $-1 $486 $198 #
plane-surface $-1 -194.00436336995978 23.720220085873425 90.555968438160974 0 -1 0 0.81915205242281985 0 -0.57357642473473569 forward_v I I I I #
coedge $-1 $487 $488 $489 $490 reversed $199 $-1 #
coedge $-1 $321 $201 $491 $492 reversed $127 $-1 #
coedge $-1 $201 $320 $487 $493 reversed $127 $-1 #
coedge $-1 $489 $494 $201 $323 forward $484 $-1 #
edge $-1 $495 23.468443472754174 $496 26.564169532387623 $322 $497 forward 7 unknown #
loop $-1 $-1 $329 $202 #
plane-surface $-1 -73.533738212225714 20.199420911306646 6.2015311158640998 -0.81915205242281985 0 0.57357642473473569 0.57357642473473569 0 0.81915205242281985 forward_v I I I I #
loop $-1 $-1 $498 $129 #
coedge $-1 $327 $327 $328 $499 reversed $203 $-1 #
coedge $-1 $328 $328 $327 $499 forward $205 $-1 #
coedge $-1 $329 $329 $206 $330 forward $324 $-1 #
edge $-1 $500 0 $500 6.2831853071796004 $329 $501 forward 7 unknown #
loop $-1 $-1 $336 $207 #
plane-surface $-1 -73.533738212225714 20.199420911306646 6.2015311158640998 -0.81915205242281985 0 0.57357642473473569 0.57357642473473569 0 0.81915205242281985 forward_v I I I I #
loop $-1 $-1 $502 $132 #
coedge $-1 $334 $334 $335 $503 reversed $208 $-1 #
coedge $-1 $335 $335 $334 $503 forward $210 $-1 #
coedge $-1 $336 $336 $211 $337 forward $331 $-1 #
edge $-1 $504 0 $504 6.2831853071796004 $336 $505 forward 7 unknown #
face $-1 $506 $507 $69 $-1 $508 forward single #
loop $-1 $-1 $509 $212 #
plane-surface $-1 91.660812328283257 -24.617484242201158 210.88688897775654 0 1 0 0.7660444514056185 0 0.64278759981090561 forward_v I I I I #
coedge $-1 $510 $511 $512 $513 reversed $213 $-1 #
coedge $-1 $343 $215 $514 $515 reversed $136 $-1 #
coedge $-1 $215 $342 $510 $516 reversed $136 $-1 #
coedge $-1 $512 $517 $215 $345 forward $507 $-1 #
edge $-1 $518 -27.703332048084086 $519 -21.889066739403781 $344 $520 forward 7 unknown #
loop $-1 $-1 $351 $216 #
plane-surface $-1 -20.999411968894364 -15.785913017936544 116.35373879663646 0.7660444514056185 0 0.64278759981090561 0.64278759981090561 0 -0.7660444514056185 forward_v I I I I #
loop $-1 $-1 $521 $138 #
coedge $-1 $349 $349 $350 $522 reversed $217 $-1 #
coedge $-1 $350 $350 $349 $522 forward $219 $-1 #
coedge $-1 $351 $351 $220 $352 forward $346 $-1 #
edge $-1 $523 0 $523 6.2831853071796004 $351 $524 forward 7 unknown #
loop $-1 $-1 $358 $221 #
plane-surface $-1 -20.999411968894364 -15.785913017936544 116.35373879663646 0.7660444514056185 0 0.64278759981090561 0.64278759981090561 0 -0.7660444514056185 forward_v I I I I #
loop $-1 $-1 $525 $141 #
coedge $-1 $356 $356 $357 $526 reversed $222 $-1 #
coedge $-1 $357 $357 $356 $526 forward $224 $-1 #
coedge $-1 $358 $358 $225 $359 forward $353 $-1 #
edge $-1 $527 0 $527 6.2831853071796004 $358 $528 forward 7 unknown #
face $-1 $529 $530 $54 $-1 $531 reversed single #
loop $-1 $-1 $532 $226 #
plane-surface $-1 -73.533738212225714 0 0 1 0 0 0 0 -1 forward_v I I I I #
coedge $-1 $533 $371 $534 $535 forward $227 $-1 #
coedge $-1 $536 $229 $533 $537 forward $145 $-1 #
coedge $-1 $229 $536 $538 $539 forward $145 $-1 #
coedge $-1 $374 $373 $229 $367 reversed $375 $-1 #
edge $-1 $540 -42.053614321737157 $541 42.053614321737157 $366 $542 forward 7 unknown #
coedge $-1 $231 $230 $543 $544 forward $91 $-1 #
coedge $-1 $545 $546 $230 $370 reversed $530 $-1 #
edge $-1 $377 -73.533738212225714 $547 73.533738212225714 $369 $548 forward 7 unknown #
coedge $-1 $363 $549 $231 $372 reversed $227 $-1 #
edge $-1 $550 -73.533738212225714 $376 73.533738212225714 $371 $551 forward 7 unknown #
coedge $-1 $366 $232 $549 $552 forward $375 $-1 #
coedge $-1 $232 $366 $545 $553 reversed $375 $-1 #
loop $-1 $-1 $373 $529 #
vertex $-1 $233 $554 #
vertex $-1 $233 $555 #
straight-curve $-1 73.533738212225714 0 10.622686250788485 0 1 0 I I #
face $-1 $556 $557 $55 $-1 $558 forward single #
loop $-1 $-1 $388 $234 #
plane-surface $-1 0 -42.053614321737157 0 0 1 0 0 0 1 forward_v I I I I #
coedge $-1 $559 $560 $561 $562 forward $235 $-1 #
coedge $-1 $561 $237 $239 $390 reversed $149 $-1 #
coedge $-1 $237 $561 $563 $564 reversed $149 $-1 #
coedge $-1 $565 $240 $237 $386 forward $392 $-1 #
edge $-1 $394 1.5441586967205785 $566 6.5670712682854662 $385 $567 forward 7 unknown #
coedge $-1 $239 $238 $559 $568 reversed $94 $-1 #
coedge $-1 $569 $570 $238 $389 forward $380 $-1 #
edge $-1 $571 -73.533738212225714 $393 73.533738212225714 $388 $572 forward 7 unknown #
edge $-1 $573 -73.533738212225714 $394 73.533738212225714 $383 $574 forward 7 unknown #
coedge $-1 $240 $565 $569 $575 forward $392 $-1 #
loop $-1 $-1 $385 $556 #
vertex $-1 $389 $576 #
vertex $-1 $241 $577 #
straight-curve $-1 73.533738212225714 -18.852714448804221 5.5997736792236008 0 1 0 I I #
face $-1 $578 $579 $56 $-1 $580 reversed single #
loop $-1 $-1 $409 $242 #
plane-surface $-1 73.533738212225714 0 0 -1 0 0 0 0 1 forward_v I I I I #
coedge $-1 $581 $582 $401 $583 forward $243 $-1 #
coedge $-1 $584 $245 $246 $405 reversed $153 $-1 #
coedge $-1 $245 $584 $399 $583 reversed $153 $-1 #
coedge $-1 $585 $586 $245 $403 forward $579 $-1 #
edge $-1 $587 1.5441586967205785 $588 6.5670712682854662 $402 $589 forward 7 unknown #
coedge $-1 $247 $246 $586 $590 reversed $97 $-1 #
edge $-1 $410 -73.533738212225714 $587 73.533738212225714 $400 $591 forward 7 unknown #
coedge $-1 $592 $593 $247 $407 forward $594 $-1 #
edge $-1 $411 -73.533738212225714 $595 73.533738212225714 $406 $596 forward 7 unknown #
coedge $-1 $597 $248 $593 $598 reversed $397 $-1 #
coedge $-1 $248 $597 $584 $599 forward $397 $-1 #
vertex $-1 $249 $600 #
vertex $-1 $407 $601 #
straight-curve $-1 73.533738212225714 18.852714448804221 5.5997736792236008 0 1 0 I I #
face $-1 $-1 $425 $57 $-1 $602 forward single #
loop $-1 $-1 $603 $250 #
plane-surface $-1 -73.533738212225714 0 0 1 0 0 0 0 -1 forward_v I I I I #
coedge $-1 $604 $605 $606 $607 reversed $251 $-1 #
coedge $-1 $608 $253 $255 $423 forward $157 $-1 #
coedge $-1 $253 $608 $604 $609 forward $157 $-1 #
coedge $-1 $606 $256 $253 $420 forward $425 $-1 #
edge $-1 $427 -13.6205096302201 $610 -6.5789112810865422 $419 $611 forward 7 unknown #
coedge $-1 $612 $613 $254 $422 forward $414 $-1 #
edge $-1 $614 -39.076453103216387 $426 -34.655297968292004 $421 $615 forward 7 unknown #
edge $-1 $427 -5.3972337880957042 $614 0 $255 $616 forward 7 unknown #
coedge $-1 $256 $606 $612 $617 forward $425 $-1 #
loop $-1 $-1 $606 $413 #
vertex $-1 $422 $618 #
vertex $-1 $257 $619 #
straight-curve $-1 -97.002181684979888 -23.720220085873422 10.622686250788483 1 0 0 I I #
coedge $-1 $429 $429 $-1 $620 reversed $260 $-1 #
edge $-1 $621 0 $621 6.2831853071796004 $261 $622 forward 7 unknown #
vertex $-1 $264 $623 #
ellipse-curve $-1 -71.985875182408989 -21.708334843263835 8.4121086833262968 -0.81915205242281985 0 0.57357642473473569 0.28678821236736785 0 0.40957602621140993 1 I I #
coedge $-1 $433 $433 $-1 $624 reversed $267 $-1 #
edge $-1 $625 0 $625 6.2831853071796004 $268 $626 forward 7 unknown #
vertex $-1 $271 $627 #
ellipse-curve $-1 -71.985875182408989 -18.690506979349454 8.4121086833262968 -0.81915205242281985 0 0.57357642473473569 0.28678821236736785 0 0.40957602621140993 1 I I #
face $-1 $-1 $628 $60 $-1 $629 reversed single #
loop $-1 $-1 $278 $272 #
plane-surface $-1 0 0 10.622686250788485 0 0 1 1 0 0 forward_v I I I I #
coedge $-1 $630 $631 $632 $633 reversed $273 $-1 #
coedge $-1 $634 $275 $277 $447 forward $171 $-1 #
coedge $-1 $275 $634 $630 $635 forward $171 $-1 #
coedge $-1 $632 $278 $275 $444 forward $438 $-1 #
edge $-1 $450 -6.8873693264512177 $636 0.1542290226823404 $443 $637 forward 7 unknown #
coedge $-1 $638 $639 $276 $446 forward $628 $-1 #
edge $-1 $640 -39.076453103216387 $449 -34.655297968292004 $445 $641 forward 7 unknown #
edge $-1 $450 -5.3972337880957042 $640 0 $277 $642 forward 7 unknown #
coedge $-1 $278 $632 $638 $643 forward $438 $-1 #
vertex $-1 $279 $644 #
vertex $-1 $279 $645 #
straight-curve $-1 -97.002181684979888 -10.253939478335656 10.622686250788483 1 0 0 I I #
coedge $-1 $452 $452 $-1 $646 reversed $282 $-1 #
edge $-1 $647 0 $647 6.2831853071796004 $283 $648 forward 7 unknown #
vertex $-1 $286 $649 #
ellipse-curve $-1 -71.985875182408989 -8.2420542357260729 8.4121086833262968 -0.81915205242281985 0 0.57357642473473569 0.28678821236736785 0 0.40957602621140993 1 I I #
coedge $-1 $456 $456 $-1 $650 reversed $289 $-1 #
edge $-1 $651 0 $651 6.2831853071796004 $290 $652 forward 7 unknown #
vertex $-1 $293 $653 #
ellipse-curve $-1 -71.985875182408989 -5.2242263718116959 8.4121086833262968 -0.81915205242281985 0 0.57357642473473569 0.28678821236736785 0 0.40957602621140993 1 I I #
face $-1 $-1 $654 $63 $-1 $655 reversed single #
loop $-1 $-1 $300 $294 #
plane-surface $-1 0 0 10.622686250788485 0 0 1 1 0 0 forward_v I I I I #
coedge $-1 $656 $657 $658 $659 reversed $295 $-1 #
coedge $-1 $660 $297 $299 $470 forward $185 $-1 #
coedge $-1 $297 $660 $656 $661 forward $185 $-1 #
coedge $-1 $658 $300 $297 $467 forward $461 $-1 #
edge $-1 $473 -0.15422902268233685 $662 6.8873693264512212 $466 $663 forward 7 unknown #
coedge $-1 $664 $665 $298 $469 forward $654 $-1 #
edge $-1 $666 -39.076453103216387 $472 -34.655297968292004 $468 $667 forward 7 unknown #
edge $-1 $473 -5.3972337880957042 $666 0 $299 $668 forward 7 unknown #
coedge $-1 $300 $658 $664 $669 forward $461 $-1 #
vertex $-1 $301 $670 #
vertex $-1 $301 $671 #
straight-curve $-1 -97.002181684979888 3.2123411292021053 10.622686250788483 1 0 0 I I #
coedge $-1 $475 $475 $-1 $672 reversed $304 $-1 #
edge $-1 $673 0 $673 6.2831853071796004 $305 $674 forward 7 unknown #
vertex $-1 $308 $675 #
ellipse-curve $-1 -71.985875182408989 5.2242263718116888 8.4121086833262968 -0.81915205242281985 0 0.57357642473473569 0.28678821236736785 0 0.40957602621140993 1 I I #
coedge $-1 $479 $479 $-1 $676 reversed $311 $-1 #
edge $-1 $677 0 $677 6.2831853071796004 $312 $678 forward 7 unknown #
vertex $-1 $315 $679 #
ellipse-curve $-1 -71.985875182408989 8.2420542357260658 8.4121086833262968 -0.81915205242281985 0 0.57357642473473569 0.28678821236736785 0 0.40957602621140993 1 I I #
face $-1 $-1 $680 $66 $-1 $681 reversed single #
loop $-1 $-1 $322 $316 #
plane-surface $-1 0 0 10.622686250788485 0 0 1 1 0 0 forward_v I I I I #
coedge $-1 $682 $683 $684 $685 reversed $317 $-1 #
coedge $-1 $686 $319 $321 $493 forward $199 $-1 #
coedge $-1 $319 $686 $682 $687 forward $199 $-1 #
coedge $-1 $684 $322 $319 $490 forward $484 $-1 #
edge $-1 $496 6.578911281086544 $688 13.620509630220102 $489 $689 forward 7 unknown #
coedge $-1 $690 $691 $320 $492 forward $680 $-1 #
edge $-1 $692 -39.076453103216387 $495 -34.655297968292004 $491 $693 forward 7 unknown #
edge $-1 $496 -5.3972337880957042 $692 0 $321 $694 forward 7 unknown #
coedge $-1 $322 $684 $690 $695 forward $484 $-1 #
vertex $-1 $323 $696 #
vertex $-1 $323 $697 #
straight-curve $-1 -97.002181684979888 16.678621736739867 10.622686250788483 1 0 0 I I #
coedge $-1 $498 $498 $-1 $698 reversed $326 $-1 #
edge $-1 $699 0 $699 6.2831853071796004 $327 $700 forward 7 unknown #
vertex $-1 $330 $701 #
ellipse-curve $-1 -71.985875182408989 18.69050697934945 8.4121086833262968 -0.81915205242281985 0 0.57357642473473569 0.28678821236736785 0 0.40957602621140993 1 I I #
coedge $-1 $502 $502 $-1 $702 reversed $333 $-1 #
edge $-1 $703 0 $703 6.2831853071796004 $334 $704 forward 7 unknown #
vertex $-1 $337 $705 #
ellipse-curve $-1 -71.985875182408989 21.708334843263827 8.4121086833262968 -0.81915205242281985 0 0.57357642473473569 0.28678821236736785 0 0.40957602621140993 1 I I #
face $-1 $-1 $706 $69 $-1 $707 reversed single #
loop $-1 $-1 $344 $338 #
plane-surface $-1 0 0 10.622686250788485 0 0 1 1 0 0 forward_v I I I I #
coedge $-1 $708 $709 $710 $711 reversed $339 $-1 #
coedge $-1 $712 $341 $343 $516 forward $213 $-1 #
coedge $-1 $341 $712 $708 $713 forward $213 $-1 #
coedge $-1 $710 $344 $341 $513 forward $507 $-1 #
edge $-1 $519 -0.93861471529634244 $714 16.724527733232886 $512 $715 forward 7 unknown #
coedge $-1 $716 $717 $342 $515 forward $706 $-1 #
edge $-1 $718 -101.74992998941943 $518 -94.82075823808978 $514 $719 forward 7 unknown #
edge $-1 $519 138.0220852090784 $718 147.06747642445148 $343 $720 forward 7 unknown #
coedge $-1 $344 $710 $716 $721 forward $507 $-1 #
vertex $-1 $515 $722 #
vertex $-1 $345 $723 #
straight-curve $-1 45.830406164141628 -6.9543417936719294 10.62268625078849 -1 0 0 I I #
coedge $-1 $521 $521 $-1 $724 reversed $348 $-1 #
edge $-1 $725 0 $725 6.2831853071796004 $349 $726 forward 7 unknown #
vertex $-1 $352 $727 #
ellipse-curve $-1 70.626605557885568 -19.570872114049948 7.1581003751236434 0.7660444514056185 0 0.64278759981090561 0.96418139971635841 0 -1.1490666771084277 1 I I #
coedge $-1 $525 $525 $-1 $728 reversed $355 $-1 #
edge $-1 $729 0 $729 6.2831853071796004 $356 $730 forward 7 unknown #
vertex $-1 $359 $731 #
ellipse-curve $-1 70.626605557885568 -12.000953921823132 7.1581003751236434 0.7660444514056185 0 0.64278759981090561 0.96418139971635841 0 -1.1490666771084277 1 I I #
face $-1 $-1 $375 $54 $-1 $732 reversed single #
loop $-1 $-1 $545 $360 #
plane-surface $-1 0 42.053614321737157 0 0 -1 0 0 0 -1 forward_v I I I I #
coedge $-1 $733 $543 $546 $734 forward $361 $-1 #
coedge $-1 $549 $363 $364 $537 reversed $227 $-1 #
coedge $-1 $543 $733 $363 $535 reversed $361 $-1 #
edge $-1 $550 -10.622686250788485 $735 10.622686250788485 $534 $736 forward 7 unknown #
coedge $-1 $365 $364 $733 $737 forward $145 $-1 #
edge $-1 $541 -73.533738212225714 $735 73.533738212225714 $533 $738 forward 7 unknown #
coedge $-1 $546 $545 $365 $539 reversed $530 $-1 #
edge $-1 $739 -73.533738212225714 $540 73.533738212225714 $538 $740 forward 7 unknown #
vertex $-1 $367 $741 #
vertex $-1 $552 $742 #
straight-curve $-1 73.533738212225714 0 -10.622686250788485 0 -1 0 I I #
coedge $-1 $532 $534 $368 $544 reversed $361 $-1 #
edge $-1 $547 -42.053614321737157 $550 42.053614321737157 $543 $743 forward 7 unknown #
coedge $-1 $538 $369 $374 $553 forward $530 $-1 #
coedge $-1 $369 $538 $532 $734 reversed $530 $-1 #
vertex $-1 $370 $744 #
straight-curve $-1 0 42.053614321737157 10.622686250788485 -1 0 0 I I #
coedge $-1 $371 $533 $373 $552 reversed $227 $-1 #
vertex $-1 $544 $745 #
straight-curve $-1 0 -42.053614321737157 10.622686250788485 1 0 0 I I #
edge $-1 $376 -10.622686250788485 $541 10.622686250788485 $373 $746 forward 7 unknown #
edge $-1 $377 -10.622686250788485 $540 10.622686250788485 $374 $747 forward 7 unknown #
point $-1 73.533738212225714 -42.053614321737157 10.622686250788485 #
point $-1 73.533738212225714 42.053614321737157 10.622686250788485 #
face $-1 $-1 $392 $55 $-1 $748 reversed single #
loop $-1 $-1 $563 $379 #
plane-surface $-1 0 0 10.622686250788485 0 0 1 1 0 0 forward_v I I I I #
coedge $-1 $749 $382 $387 $568 forward $235 $-1 #
coedge $-1 $382 $749 $750 $751 reversed $235 $-1 #
coedge $-1 $384 $383 $382 $562 reversed $149 $-1 #
edge $-1 $752 -6.5670712682854662 $573 -1.5441586967205785 $382 $753 forward 7 unknown #
coedge $-1 $750 $754 $384 $564 forward $557 $-1 #
edge $-1 $566 -73.533738212225714 $752 73.533738212225714 $563 $755 forward 7 unknown #
coedge $-1 $391 $385 $754 $756 reversed $392 $-1 #
vertex $-1 $386 $757 #
straight-curve $-1 73.533738212225714 -33.357243473479727 4.0556149825030223 0 0 1 I I #
edge $-1 $573 14.504529024675506 $571 23.200899872932936 $559 $758 forward 7 unknown #
coedge $-1 $759 $388 $391 $575 reversed $380 $-1 #
coedge $-1 $388 $759 $749 $760 forward $380 $-1 #
vertex $-1 $389 $761 #
straight-curve $-1 0 -42.053614321737157 5.5997736792236008 1 0 0 I I #
vertex $-1 $568 $762 #
straight-curve $-1 0 -33.357243473479727 5.5997736792236008 1 0 0 I I #
edge $-1 $763 -10.622686250788485 $393 -5.5997736792236008 $391 $764 forward 7 unknown #
point $-1 73.533738212225714 -42.053614321737157 5.5997736792236008 #
point $-1 73.533738212225714 -33.357243473479727 5.5997736792236008 #
face $-1 $-1 $594 $56 $-1 $765 reversed single #
loop $-1 $-1 $402 $396 #
plane-surface $-1 -73.533738212225714 0 0 1 0 0 0 0 -1 forward_v I I I I #
coedge $-1 $766 $399 $597 $767 forward $243 $-1 #
coedge $-1 $399 $766 $585 $768 forward $243 $-1 #
edge $-1 $588 -73.533738212225714 $769 73.533738212225714 $399 $770 forward 7 unknown #
coedge $-1 $401 $400 $409 $599 reversed $153 $-1 #
coedge $-1 $771 $402 $582 $768 reversed $579 $-1 #
coedge $-1 $402 $771 $404 $590 forward $579 $-1 #
vertex $-1 $590 $772 #
vertex $-1 $403 $773 #
straight-curve $-1 -73.533738212225714 33.357243473479727 4.0556149825030223 0 0 1 I I #
edge $-1 $595 -23.200899872932936 $587 -14.504529024675506 $586 $774 forward 7 unknown #
straight-curve $-1 0 33.357243473479727 5.5997736792236008 -1 0 0 I I #
coedge $-1 $775 $406 $771 $776 reversed $594 $-1 #
coedge $-1 $406 $775 $408 $598 forward $594 $-1 #
loop $-1 $-1 $406 $578 #
vertex $-1 $407 $777 #
straight-curve $-1 0 42.053614321737157 5.5997736792236008 -1 0 0 I I #
coedge $-1 $409 $408 $581 $767 reversed $397 $-1 #
edge $-1 $778 -10.622686250788485 $411 -5.5997736792236008 $408 $779 forward 7 unknown #
edge $-1 $769 -6.5670712682854662 $410 -1.5441586967205785 $409 $780 forward 7 unknown #
point $-1 73.533738212225714 33.357243473479727 5.5997736792236008 #
point $-1 73.533738212225714 42.053614321737157 5.5997736792236008 #
plane-surface $-1 0 0 10.622686250788485 0 0 1 1 0 0 forward_v I I I I #
coedge $-1 $613 $612 $605 $781 forward $414 $-1 #
coedge $-1 $605 $416 $418 $609 reversed $251 $-1 #
coedge $-1 $416 $604 $603 $781 reversed $251 $-1 #
coedge $-1 $424 $419 $416 $607 forward $425 $-1 #
edge $-1 $610 -26.564169532387623 $782 -23.468443472754174 $606 $783 forward 7 unknown #
coedge $-1 $418 $417 $613 $784 reversed $157 $-1 #
edge $-1 $785 0 $610 5.3972337880957042 $604 $786 forward 7 unknown #
vertex $-1 $420 $787 #
straight-curve $-1 -70.438012152592279 -10.099710455653321 10.622686250788483 0 1 0 I I #
coedge $-1 $603 $421 $424 $617 reversed $414 $-1 #
coedge $-1 $421 $603 $608 $784 forward $414 $-1 #
vertex $-1 $422 $788 #
straight-curve $-1 -73.533738212225714 -23.720220085873422 45.277984219080487 0 0 1 I I #
straight-curve $-1 -73.533738212225714 -23.720220085873422 6.2015311158640998 -0.57357642473473569 0 -0.81915205242281985 I I #
edge $-1 $782 16.678621736739863 $426 23.720220085873422 $612 $789 forward 7 unknown #
point $-1 -73.533738212225714 -23.720220085873422 10.622686250788485 #
point $-1 -70.438012152592265 -23.720220085873422 10.622686250788485 #
edge $-1 $790 1 $790 0 $429 $-1 forward 7 unknown #
vertex $-1 $430 $791 #
ellipse-curve $-1 -71.166723129986167 -21.708334843263835 7.8385322585915604 -0.81915205242281985 0 0.57357642473473569 0.28678821236736785 0 0.40957602621140993 1 I I #
point $-1 -71.69908697004162 -21.708334843263835 8.8216847095377062 #
edge $-1 $792 1 $792 0 $433 $-1 forward 7 unknown #
vertex $-1 $434 $793 #
ellipse-curve $-1 -71.166723129986167 -18.690506979349454 7.8385322585915604 -0.81915205242281985 0 0.57357642473473569 0.28678821236736785 0 0.40957602621140993 1 I I #
point $-1 -71.69908697004162 -18.690506979349454 8.8216847095377062 #
loop $-1 $-1 $445 $437 #
plane-surface $-1 -73.533738212225714 0 0 1 0 0 0 0 -1 forward_v I I I I #
coedge $-1 $631 $440 $442 $635 reversed $273 $-1 #
coedge $-1 $440 $630 $794 $795 reversed $273 $-1 #
coedge $-1 $448 $443 $440 $633 forward $438 $-1 #
edge $-1 $636 -26.564169532387623 $796 -23.468443472754174 $632 $797 forward 7 unknown #
coedge $-1 $442 $441 $639 $798 reversed $171 $-1 #
edge $-1 $799 0 $636 5.3972337880957042 $630 $800 forward 7 unknown #
vertex $-1 $444 $801 #
straight-curve $-1 -70.438012152592279 -3.3665701518844386 10.622686250788483 0 1 0 I I #
coedge $-1 $794 $445 $448 $643 reversed $628 $-1 #
coedge $-1 $445 $794 $634 $798 forward $628 $-1 #
vertex $-1 $446 $802 #
straight-curve $-1 -73.533738212225714 -10.253939478335656 45.277984219080487 0 0 1 I I #
straight-curve $-1 -73.533738212225714 -10.253939478335656 6.2015311158640998 -0.57357642473473569 0 -0.81915205242281985 I I #
edge $-1 $796 3.2123411292020982 $449 10.253939478335656 $638 $803 forward 7 unknown #
point $-1 -73.533738212225714 -10.253939478335656 10.622686250788485 #
point $-1 -70.438012152592265 -10.253939478335656 10.622686250788485 #
edge $-1 $804 1 $804 0 $452 $-1 forward 7 unknown #
vertex $-1 $453 $805 #
ellipse-curve $-1 -71.166723129986167 -8.2420542357260729 7.8385322585915604 -0.81915205242281985 0 0.57357642473473569 0.28678821236736785 0 0.40957602621140993 1 I I #
point $-1 -71.69908697004162 -8.2420542357260729 8.8216847095377062 #
edge $-1 $806 1 $806 0 $456 $-1 forward 7 unknown #
vertex $-1 $457 $807 #
ellipse-curve $-1 -71.166723129986167 -5.2242263718116959 7.8385322585915604 -0.81915205242281985 0 0.57357642473473569 0.28678821236736785 0 0.40957602621140993 1 I I #
point $-1 -71.69908697004162 -5.2242263718116959 8.8216847095377062 #
loop $-1 $-1 $468 $460 #
plane-surface $-1 -73.533738212225714 0 0 1 0 0 0 0 -1 forward_v I I I I #
coedge $-1 $657 $463 $465 $661 reversed $295 $-1 #
coedge $-1 $463 $656 $808 $809 reversed $295 $-1 #
coedge $-1 $471 $466 $463 $659 forward $461 $-1 #
edge $-1 $662 -26.564169532387623 $810 -23.468443472754174 $658 $811 forward 7 unknown #
coedge $-1 $465 $464 $665 $812 reversed $185 $-1 #
edge $-1 $813 0 $662 5.3972337880957042 $656 $814 forward 7 unknown #
vertex $-1 $467 $815 #
straight-curve $-1 -70.438012152592279 3.3665701518844422 10.622686250788483 0 1 0 I I #
coedge $-1 $808 $468 $471 $669 reversed $654 $-1 #
coedge $-1 $468 $808 $660 $812 forward $654 $-1 #
vertex $-1 $469 $816 #
straight-curve $-1 -73.533738212225714 3.2123411292021053 45.277984219080487 0 0 1 I I #
straight-curve $-1 -73.533738212225714 3.2123411292021053 6.2015311158640998 -0.57357642473473569 0 -0.81915205242281985 I I #
edge $-1 $810 -10.253939478335663 $472 -3.2123411292021053 $664 $817 forward 7 unknown #
point $-1 -73.533738212225714 3.2123411292021053 10.622686250788485 #
point $-1 -70.438012152592265 3.2123411292021053 10.622686250788485 #
edge $-1 $818 1 $818 0 $475 $-1 forward 7 unknown #
vertex $-1 $476 $819 #
ellipse-curve $-1 -71.166723129986167 5.2242263718116888 7.8385322585915604 -0.81915205242281985 0 0.57357642473473569 0.28678821236736785 0 0.40957602621140993 1 I I #
point $-1 -71.69908697004162 5.2242263718116888 8.8216847095377062 #
edge $-1 $820 1 $820 0 $479 $-1 forward 7 unknown #
vertex $-1 $480 $821 #
ellipse-curve $-1 -71.166723129986167 8.2420542357260658 7.8385322585915604 -0.81915205242281985 0 0.57357642473473569 0.28678821236736785 0 0.40957602621140993 1 I I #
point $-1 -71.69908697004162 8.2420542357260658 8.8216847095377062 #
loop $-1 $-1 $491 $483 #
plane-surface $-1 -73.533738212225714 0 0 1 0 0 0 0 -1 forward_v I I I I #
coedge $-1 $683 $486 $488 $687 reversed $317 $-1 #
coedge $-1 $486 $682 $822 $823 reversed $317 $-1 #
coedge $-1 $494 $489 $486 $685 forward $484 $-1 #
edge $-1 $688 -26.564169532387623 $824 -23.468443472754174 $684 $825 forward 7 unknown #
coedge $-1 $488 $487 $691 $826 reversed $199 $-1 #
edge $-1 $827 0 $688 5.3972337880957042 $682 $828 forward 7 unknown #
vertex $-1 $490 $829 #
straight-curve $-1 -70.438012152592279 10.099710455653323 10.622686250788483 0 1 0 I I #
coedge $-1 $822 $491 $494 $695 reversed $680 $-1 #
coedge $-1 $491 $822 $686 $826 forward $680 $-1 #
vertex $-1 $492 $830 #
straight-curve $-1 -73.533738212225714 16.678621736739867 45.277984219080487 0 0 1 I I #
straight-curve $-1 -73.533738212225714 16.678621736739867 6.2015311158640998 -0.57357642473473569 0 -0.81915205242281985 I I #
edge $-1 $824 -23.720220085873425 $495 -16.678621736739867 $690 $831 forward 7 unknown #
point $-1 -73.533738212225714 16.678621736739867 10.622686250788485 #
point $-1 -70.438012152592265 16.678621736739867 10.622686250788485 #
edge $-1 $832 1 $832 0 $498 $-1 forward 7 unknown #
vertex $-1 $499 $833 #
ellipse-curve $-1 -71.166723129986167 18.69050697934945 7.8385322585915604 -0.81915205242281985 0 0.57357642473473569 0.28678821236736785 0 0.40957602621140993 1 I I #
point $-1 -71.69908697004162 18.69050697934945 8.8216847095377062 #
edge $-1 $834 1 $834 0 $502 $-1 forward 7 unknown #
vertex $-1 $503 $835 #
ellipse-curve $-1 -71.166723129986167 21.708334843263827 7.8385322585915604 -0.81915205242281985 0 0.57357642473473569 0.28678821236736785 0 0.40957602621140993 1 I I #
point $-1 -71.69908697004162 21.708334843263827 8.8216847095377062 #
loop $-1 $-1 $514 $506 #
plane-surface $-1 73.533738212225714 0 0 -1 0 0 0 0 1 forward_v I I I I #
coedge $-1 $709 $509 $511 $713 reversed $339 $-1 #
coedge $-1 $509 $708 $836 $837 reversed $339 $-1 #
coedge $-1 $517 $512 $509 $711 forward $507 $-1 #
edge $-1 $714 21.889066739403781 $838 27.703332048084086 $710 $839 forward 7 unknown #
coedge $-1 $511 $510 $717 $840 reversed $213 $-1 #
edge $-1 $841 -147.06747642445148 $714 -138.0220852090784 $708 $842 forward 7 unknown #
vertex $-1 $513 $843 #
straight-curve $-1 67.719472903545423 -7.8929565089682718 10.62268625078849 0 -1 0 I I #
coedge $-1 $836 $514 $517 $721 reversed $706 $-1 #
coedge $-1 $514 $836 $712 $840 forward $706 $-1 #
vertex $-1 $515 $844 #
straight-curve $-1 73.533738212225714 -6.9543417936719294 105.44344448887827 0 0 1 I I #
straight-curve $-1 -20.999411968894364 -6.9543417936719294 116.35373879663646 0.64278759981090561 0 -0.7660444514056185 I I #
edge $-1 $838 -24.617484242201158 $518 -6.9543417936719294 $716 $845 forward 7 unknown #
point $-1 73.533738212225714 -6.9543417936719294 10.622686250788485 #
point $-1 67.719472903545409 -6.9543417936719294 10.622686250788504 #
edge $-1 $846 1 $846 0 $521 $-1 forward 7 unknown #
vertex $-1 $522 $847 #
ellipse-curve $-1 66.772443681171865 -19.570872114049948 3.9240746505463107 0.7660444514056185 0 0.64278759981090561 0.96418139971635841 0 -1.1490666771084277 1 I I #
point $-1 71.590786957601949 -19.570872114049948 6.0090336980152337 #
edge $-1 $848 1 $848 0 $525 $-1 forward 7 unknown #
vertex $-1 $526 $849 #
ellipse-curve $-1 66.772443681171865 -12.000953921823132 3.9240746505463107 0.7660444514056185 0 0.64278759981090561 0.96418139971635841 0 -1.1490666771084277 1 I I #
point $-1 71.590786957601949 -12.000953921823132 6.0090336980152337 #
plane-surface $-1 73.533738212225714 0 0 -1 0 0 0 0 1 forward_v I I I I #
coedge $-1 $534 $532 $536 $737 reversed $361 $-1 #
edge $-1 $547 -10.622686250788485 $739 10.622686250788485 $546 $850 forward 7 unknown #
vertex $-1 $737 $851 #
straight-curve $-1 -73.533738212225714 -42.053614321737157 0 0 0 -1 I I #
edge $-1 $735 -42.053614321737157 $739 42.053614321737157 $733 $852 forward 7 unknown #
straight-curve $-1 0 -42.053614321737157 -10.622686250788485 -1 0 0 I I #
vertex $-1 $539 $853 #
straight-curve $-1 0 42.053614321737157 -10.622686250788485 1 0 0 I I #
point $-1 73.533738212225714 42.053614321737157 -10.622686250788485 #
point $-1 73.533738212225714 -42.053614321737157 -10.622686250788485 #
straight-curve $-1 -73.533738212225714 0 10.622686250788485 0 -1 0 I I #
point $-1 -73.533738212225714 42.053614321737157 10.622686250788485 #
point $-1 -73.533738212225714 -42.053614321737157 10.622686250788485 #
straight-curve $-1 73.533738212225714 -42.053614321737157 0 0 0 -1 I I #
straight-curve $-1 73.533738212225714 42.053614321737157 0 0 0 -1 I I #
plane-surface $-1 73.533738212225714 0 0 -1 0 0 0 0 1 forward_v I I I I #
coedge $-1 $560 $559 $570 $760 reversed $235 $-1 #
coedge $-1 $854 $563 $560 $751 forward $557 $-1 #
edge $-1 $752 33.357243473479727 $855 42.053614321737157 $560 $856 forward 7 unknown #
vertex $-1 $751 $857 #
straight-curve $-1 -73.533738212225714 -33.357243473479727 4.0556149825030223 0 0 -1 I I #
coedge $-1 $563 $854 $565 $756 forward $557 $-1 #
straight-curve $-1 0 -33.357243473479727 10.622686250788485 -1 0 0 I I #
edge $-1 $763 -42.053614321737157 $566 -33.357243473479727 $565 $858 forward 7 unknown #
point $-1 73.533738212225714 -33.357243473479727 10.622686250788488 #
straight-curve $-1 -73.533738212225714 -18.852714448804221 5.5997736792236008 0 -1 0 I I #
coedge $-1 $570 $569 $854 $859 reversed $380 $-1 #
edge $-1 $855 -10.622686250788485 $571 -5.5997736792236008 $749 $860 forward 7 unknown #
point $-1 -73.533738212225714 -42.053614321737157 5.5997736792236008 #
point $-1 -73.533738212225714 -33.357243473479727 5.5997736792236008 #
vertex $-1 $756 $861 #
straight-curve $-1 73.533738212225714 -42.053614321737157 0 0 0 -1 I I #
plane-surface $-1 0 42.053614321737157 0 0 -1 0 0 0 -1 forward_v I I I I #
coedge $-1 $582 $581 $775 $862 forward $243 $-1 #
edge $-1 $769 33.357243473479727 $778 42.053614321737157 $597 $863 forward 7 unknown #
edge $-1 $864 -42.053614321737157 $588 -33.357243473479727 $585 $865 forward 7 unknown #
vertex $-1 $767 $866 #
straight-curve $-1 0 33.357243473479727 10.622686250788485 1 0 0 I I #
coedge $-1 $586 $585 $592 $776 forward $579 $-1 #
point $-1 -73.533738212225714 33.357243473479727 5.5997736792236008 #
point $-1 -73.533738212225714 33.357243473479727 10.622686250788488 #
straight-curve $-1 -73.533738212225714 18.852714448804221 5.5997736792236008 0 -1 0 I I #
coedge $-1 $593 $592 $766 $862 reversed $594 $-1 #
edge $-1 $864 -10.622686250788485 $595 -5.5997736792236008 $592 $867 forward 7 unknown #
point $-1 -73.533738212225714 42.053614321737157 5.5997736792236008 #
vertex $-1 $767 $868 #
straight-curve $-1 73.533738212225714 42.053614321737157 0 0 0 -1 I I #
straight-curve $-1 73.533738212225714 33.357243473479727 4.0556149825030223 0 0 -1 I I #
edge $-1 $782 34.655297968292004 $785 39.076453103216387 $603 $869 forward 7 unknown #
vertex $-1 $617 $870 #
straight-curve $-1 -97.002181684979888 -16.678621736739863 10.622686250788483 -1 0 0 I I #
edge $-1 $785 6.5789112810865422 $614 13.6205096302201 $613 $871 forward 7 unknown #
vertex $-1 $784 $872 #
straight-curve $-1 -73.533738212225714 -16.678621736739863 6.2015311158640998 0.57357642473473569 0 0.81915205242281985 I I #
point $-1 -70.438012152592265 -16.678621736739863 10.622686250788485 #
point $-1 -73.533738212225714 -23.720220085873422 6.2015311158640998 #
straight-curve $-1 -73.533738212225714 0 10.622686250788485 0 -1 0 I I #
vertex $-1 $620 $873 #
point $-1 -70.879934917618812 -21.708334843263835 8.2481082848029708 #
vertex $-1 $624 $874 #
point $-1 -70.879934917618812 -18.690506979349454 8.2481082848029708 #
coedge $-1 $639 $638 $631 $795 forward $628 $-1 #
edge $-1 $796 34.655297968292004 $799 39.076453103216387 $794 $875 forward 7 unknown #
vertex $-1 $643 $876 #
straight-curve $-1 -97.002181684979888 -3.2123411292020982 10.622686250788483 -1 0 0 I I #
edge $-1 $799 -0.1542290226823404 $640 6.8873693264512177 $639 $877 forward 7 unknown #
vertex $-1 $798 $878 #
straight-curve $-1 -73.533738212225714 -3.2123411292020982 6.2015311158640998 0.57357642473473569 0 0.81915205242281985 I I #
point $-1 -70.438012152592265 -3.2123411292020982 10.622686250788485 #
point $-1 -73.533738212225714 -10.253939478335656 6.2015311158640998 #
straight-curve $-1 -73.533738212225714 0 10.622686250788485 0 -1 0 I I #
vertex $-1 $646 $879 #
point $-1 -70.879934917618812 -8.2420542357260729 8.2481082848029708 #
vertex $-1 $650 $880 #
point $-1 -70.879934917618812 -5.2242263718116959 8.2481082848029708 #
coedge $-1 $665 $664 $657 $809 forward $654 $-1 #
edge $-1 $810 34.655297968292004 $813 39.076453103216387 $808 $881 forward 7 unknown #
vertex $-1 $669 $882 #
straight-curve $-1 -97.002181684979888 10.253939478335663 10.622686250788483 -1 0 0 I I #
edge $-1 $813 -6.8873693264512212 $666 0.15422902268233685 $665 $883 forward 7 unknown #
vertex $-1 $812 $884 #
straight-curve $-1 -73.533738212225714 10.253939478335663 6.2015311158640998 0.57357642473473569 0 0.81915205242281985 I I #
point $-1 -70.438012152592265 10.253939478335663 10.622686250788485 #
point $-1 -73.533738212225714 3.2123411292021053 6.2015311158640998 #
straight-curve $-1 -73.533738212225714 0 10.622686250788485 0 -1 0 I I #
vertex $-1 $672 $885 #
point $-1 -70.879934917618812 5.2242263718116888 8.2481082848029708 #
vertex $-1 $676 $886 #
point $-1 -70.879934917618812 8.2420542357260658 8.2481082848029708 #
coedge $-1 $691 $690 $683 $823 forward $680 $-1 #
edge $-1 $824 34.655297968292004 $827 39.076453103216387 $822 $887 forward 7 unknown #
vertex $-1 $695 $888 #
straight-curve $-1 -97.002181684979888 23.720220085873425 10.622686250788483 -1 0 0 I I #
edge $-1 $827 -13.620509630220102 $692 -6.578911281086544 $691 $889 forward 7 unknown #
vertex $-1 $826 $890 #
straight-curve $-1 -73.533738212225714 23.720220085873425 6.2015311158640998 0.57357642473473569 0 0.81915205242281985 I I #
point $-1 -70.438012152592265 23.720220085873425 10.622686250788485 #
point $-1 -73.533738212225714 16.678621736739867 6.2015311158640998 #
straight-curve $-1 -73.533738212225714 0 10.622686250788485 0 -1 0 I I #
vertex $-1 $698 $891 #
point $-1 -70.879934917618812 18.69050697934945 8.2481082848029708 #
vertex $-1 $702 $892 #
point $-1 -70.879934917618812 21.708334843263827 8.2481082848029708 #
coedge $-1 $717 $716 $709 $837 forward $706 $-1 #
edge $-1 $838 94.82075823808978 $841 101.74992998941943 $836 $893 forward 7 unknown #
vertex $-1 $721 $894 #
straight-curve $-1 45.830406164141628 -24.617484242201158 10.62268625078849 1 0 0 I I #
edge $-1 $841 -16.724527733232886 $718 0.93861471529634244 $717 $895 forward 7 unknown #
vertex $-1 $840 $896 #
straight-curve $-1 -20.999411968894364 -24.617484242201158 116.35373879663646 -0.64278759981090561 0 0.7660444514056185 I I #
point $-1 67.719472903545409 -24.617484242201158 10.622686250788504 #
point $-1 73.533738212225714 -6.9543417936719294 3.6935144994588427 #
straight-curve $-1 73.533738212225714 0 10.622686250788485 0 1 0 I I #
vertex $-1 $724 $897 #
point $-1 67.736625080888217 -19.570872114049948 2.7750079734378832 #
vertex $-1 $728 $898 #
point $-1 67.736625080888217 -12.000953921823132 2.7750079734378832 #
straight-curve $-1 -73.533738212225714 42.053614321737157 0 0 0 -1 I I #
point $-1 -73.533738212225714 -42.053614321737157 -10.622686250788485 #
straight-curve $-1 -73.533738212225714 0 -10.622686250788485 0 1 0 I I #
point $-1 -73.533738212225714 42.053614321737157 -10.622686250788485 #
coedge $-1 $754 $750 $759 $859 forward $557 $-1 #
vertex $-1 $751 $899 #
straight-curve $-1 -73.533738212225714 0 10.622686250788485 0 -1 0 I I #
point $-1 -73.533738212225714 -33.357243473479727 10.622686250788488 #
straight-curve $-1 73.533738212225714 0 10.622686250788485 0 1 0 I I #
edge $-1 $855 -73.533738212225714 $763 73.533738212225714 $759 $900 forward 7 unknown #
straight-curve $-1 -73.533738212225714 -42.053614321737157 0 0 0 -1 I I #
point $-1 73.533738212225714 -42.053614321737157 10.622686250788485 #
edge $-1 $778 -73.533738212225714 $864 73.533738212225714 $775 $901 forward 7 unknown #
straight-curve $-1 73.533738212225714 0 10.622686250788485 0 1 0 I I #
vertex $-1 $862 $902 #
straight-curve $-1 -73.533738212225714 0 10.622686250788485 0 -1 0 I I #
point $-1 73.533738212225714 33.357243473479727 10.622686250788488 #
straight-curve $-1 -73.533738212225714 42.053614321737157 0 0 0 -1 I I #
point $-1 73.533738212225714 42.053614321737157 10.622686250788485 #
straight-curve $-1 -73.533738212225714 -16.678621736739863 45.277984219080487 0 0 -1 I I #
point $-1 -73.533738212225714 -16.678621736739863 10.622686250788485 #
straight-curve $-1 -73.533738212225714 -10.099710455653321 6.2015311158641051 0 -1 0 I I #
point $-1 -73.533738212225714 -16.678621736739863 6.2015311158640998 #
point $-1 -70.75714710377477 -21.708334843263835 7.5517440462241927 #
point $-1 -70.75714710377477 -18.690506979349454 7.5517440462241927 #
straight-curve $-1 -73.533738212225714 -3.2123411292020982 45.277984219080487 0 0 -1 I I #
point $-1 -73.533738212225714 -3.2123411292020982 10.622686250788485 #
straight-curve $-1 -73.533738212225714 -3.3665701518844386 6.2015311158641051 0 -1 0 I I #
point $-1 -73.533738212225714 -3.2123411292020982 6.2015311158640998 #
point $-1 -70.75714710377477 -8.2420542357260729 7.5517440462241927 #
point $-1 -70.75714710377477 -5.2242263718116959 7.5517440462241927 #
straight-curve $-1 -73.533738212225714 10.253939478335663 45.277984219080487 0 0 -1 I I #
point $-1 -73.533738212225714 10.253939478335663 10.622686250788485 #
straight-curve $-1 -73.533738212225714 3.3665701518844422 6.2015311158641051 0 -1 0 I I #
point $-1 -73.533738212225714 10.253939478335663 6.2015311158640998 #
point $-1 -70.75714710377477 5.2242263718116888 7.5517440462241927 #
point $-1 -70.75714710377477 8.2420542357260658 7.5517440462241927 #
straight-curve $-1 -73.533738212225714 23.720220085873425 45.277984219080487 0 0 -1 I I #
point $-1 -73.533738212225714 23.720220085873425 10.622686250788485 #
straight-curve $-1 -73.533738212225714 10.099710455653323 6.2015311158641051 0 -1 0 I I #
point $-1 -73.533738212225714 23.720220085873425 6.2015311158640998 #
point $-1 -70.75714710377477 18.69050697934945 7.5517440462241927 #
point $-1 -70.75714710377477 21.708334843263827 7.5517440462241927 #
straight-curve $-1 73.533738212225714 -24.617484242201158 105.44344448887827 0 0 -1 I I #
point $-1 73.533738212225714 -24.617484242201158 10.622686250788485 #
straight-curve $-1 73.533738212225714 -7.8929565089682718 3.6935144994588356 0 1 0 I I #
point $-1 73.533738212225714 -24.617484242201158 3.6935144994588427 #
point $-1 65.623377004063428 -19.570872114049948 2.959893250829952 #
point $-1 65.623377004063428 -12.000953921823132 2.959893250829952 #
point $-1 -73.533738212225714 -42.053614321737157 10.622686250788485 #
straight-curve $-1 0 -42.053614321737157 10.622686250788485 1 0 0 I I #
straight-curve $-1 0 42.053614321737157 10.622686250788485 -1 0 0 I I #
point $-1 -73.533738212225714 42.053614321737157 10.622686250788485 #
End-of-ACIS-data 