500 0 2 0           
7 Unknown 11 ACIS 5.0 NT 24 Fri Mar 26 14:26:16 1999 
-1 9.9999999999999995e-007 1e-010 
body $-1 $2 $-1 $3 #
body $-1 $4 $-1 $5 #
lump $-1 $-1 $6 $0 #
transform $-1 1 0 0 0 1 0 0 0 1 48.451185644093144 21.385978059910386 5.8874585310595311 1 rotate no_reflect no_shear #
lump $-1 $-1 $7 $1 #
transform $-1 1 0 0 0 1 0 0 0 1 48.451185644093144 21.385978059910386 5.8874585310595311 1 rotate no_reflect no_shear #
shell $-1 $-1 $-1 $8 $-1 $2 #
shell $-1 $-1 $-1 $9 $-1 $4 #
face $-1 $10 $11 $6 $-1 $12 forward single #
face $-1 $13 $14 $7 $-1 $15 forward single #
face $-1 $16 $17 $6 $-1 $18 reversed single #
loop $-1 $-1 $19 $8 #
plane-surface $-1 0 0 5.8874585310595311 0 0 1 1 0 0 forward_v I I I I #
face $-1 $20 $21 $7 $-1 $22 reversed single #
loop $-1 $-1 $23 $9 #
plane-surface $-1 -45.766684589741885 0 -2.8874585310595311 0 0 1 1 0 0 forward_v I I I I #
face $-1 $24 $25 $6 $-1 $26 reversed single #
loop $-1 $-1 $27 $10 #
plane-surface $-1 0 0 -5.8874585310595311 0 0 1 1 0 0 forward_v I I I I #
coedge $-1 $28 $29 $30 $31 forward $11 $-1 #
face $-1 $32 $33 $7 $-1 $34 reversed single #
loop $-1 $-1 $35 $13 #
plane-surface $-1 -43.082183535390627 0 -4.3874585310595311 -1 0 0 0 0 1 forward_v I I I I #
coedge $-1 $36 $37 $38 $39 forward $14 $-1 #
face $-1 $40 $41 $6 $-1 $42 reversed single #
loop $-1 $-1 $43 $16 #
plane-surface $-1 0 -21.385978059910386 0 0 1 0 0 0 1 forward_v I I I I #
coedge $-1 $44 $45 $46 $47 forward $17 $-1 #
coedge $-1 $48 $19 $49 $50 forward $11 $-1 #
coedge $-1 $19 $48 $51 $52 forward $11 $-1 #
coedge $-1 $53 $54 $19 $31 reversed $55 $-1 #
edge $-1 $56 -21.385978059910386 $57 21.385978059910386 $30 $58 forward 7 unknown #
face $-1 $59 $60 $7 $-1 $61 reversed single #
loop $-1 $-1 $62 $20 #
plane-surface $-1 0 0 -5.8874585310595311 0 0 1 1 0 0 forward_v I I I I #
coedge $-1 $63 $38 $64 $65 reversed $21 $-1 #
coedge $-1 $66 $23 $67 $68 reversed $14 $-1 #
coedge $-1 $23 $66 $69 $70 reversed $14 $-1 #
coedge $-1 $35 $71 $23 $39 reversed $21 $-1 #
edge $-1 $72 -21.385978059910386 $73 21.385978059910386 $38 $74 forward 7 unknown #
face $-1 $75 $76 $6 $-1 $77 reversed single #
loop $-1 $-1 $78 $24 #
plane-surface $-1 -48.451185644093144 0 0 1 0 0 0 0 -1 forward_v I I I I #
coedge $-1 $79 $51 $80 $81 forward $25 $-1 #
coedge $-1 $82 $27 $79 $83 forward $17 $-1 #
coedge $-1 $27 $82 $84 $85 forward $17 $-1 #
coedge $-1 $54 $53 $27 $47 reversed $55 $-1 #
edge $-1 $86 -21.385978059910386 $87 21.385978059910386 $46 $88 forward 7 unknown #
coedge $-1 $29 $28 $89 $90 forward $11 $-1 #
coedge $-1 $91 $92 $28 $50 reversed $76 $-1 #
edge $-1 $57 -48.451185644093144 $93 48.451185644093144 $49 $94 forward 7 unknown #
coedge $-1 $43 $95 $29 $52 reversed $25 $-1 #
edge $-1 $96 -48.451185644093144 $56 48.451185644093144 $51 $97 forward 7 unknown #
coedge $-1 $46 $30 $95 $98 forward $55 $-1 #
coedge $-1 $30 $46 $91 $99 reversed $55 $-1 #
loop $-1 $-1 $53 $75 #
vertex $-1 $31 $100 #
vertex $-1 $31 $101 #
straight-curve $-1 48.451185644093144 0 5.8874585310595311 0 1 0 I I #
face $-1 $102 $103 $7 $-1 $104 reversed single #
loop $-1 $-1 $64 $32 #
plane-surface $-1 0 -21.385978059910386 0 0 1 0 0 0 1 forward_v I I I I #
coedge $-1 $105 $106 $63 $107 forward $33 $-1 #
coedge $-1 $71 $35 $62 $107 reversed $21 $-1 #
coedge $-1 $69 $108 $35 $65 forward $60 $-1 #
edge $-1 $109 -3.6937292655297655 $72 -0.69372926552976555 $64 $110 forward 7 unknown #
coedge $-1 $37 $36 $111 $112 reversed $14 $-1 #
coedge $-1 $113 $114 $36 $68 forward $115 $-1 #
edge $-1 $116 -25.567843349222201 $73 -20.198841240519684 $67 $117 forward 7 unknown #
coedge $-1 $118 $64 $37 $70 forward $60 $-1 #
edge $-1 $72 20.198841240519684 $119 25.567843349222201 $69 $120 forward 7 unknown #
coedge $-1 $38 $63 $113 $121 reversed $21 $-1 #
vertex $-1 $70 $122 #
vertex $-1 $68 $123 #
straight-curve $-1 -43.082183535390627 0 -2.8874585310595311 0 1 0 I I #
face $-1 $-1 $55 $6 $-1 $124 reversed single #
loop $-1 $-1 $91 $40 #
plane-surface $-1 0 21.385978059910386 0 0 -1 0 0 0 -1 forward_v I I I I #
coedge $-1 $125 $89 $92 $126 forward $41 $-1 #
coedge $-1 $95 $43 $44 $83 reversed $25 $-1 #
coedge $-1 $89 $125 $43 $81 reversed $41 $-1 #
edge $-1 $96 -5.8874585310595311 $127 5.8874585310595311 $80 $128 forward 7 unknown #
coedge $-1 $45 $44 $125 $129 forward $17 $-1 #
edge $-1 $87 -48.451185644093144 $127 48.451185644093144 $79 $130 forward 7 unknown #
coedge $-1 $92 $91 $45 $85 reversed $76 $-1 #
edge $-1 $131 -48.451185644093144 $86 48.451185644093144 $84 $132 forward 7 unknown #
vertex $-1 $47 $133 #
vertex $-1 $98 $134 #
straight-curve $-1 48.451185644093144 0 -5.8874585310595311 0 -1 0 I I #
coedge $-1 $78 $80 $48 $90 reversed $41 $-1 #
edge $-1 $93 -21.385978059910386 $96 21.385978059910386 $89 $135 forward 7 unknown #
coedge $-1 $84 $49 $54 $99 forward $76 $-1 #
coedge $-1 $49 $84 $78 $126 reversed $76 $-1 #
vertex $-1 $50 $136 #
straight-curve $-1 0 21.385978059910386 5.8874585310595311 -1 0 0 I I #
coedge $-1 $51 $79 $53 $98 reversed $25 $-1 #
vertex $-1 $90 $137 #
straight-curve $-1 0 -21.385978059910386 5.8874585310595311 1 0 0 I I #
edge $-1 $56 -5.8874585310595311 $87 5.8874585310595311 $53 $138 forward 7 unknown #
edge $-1 $57 -5.8874585310595311 $86 5.8874585310595311 $54 $139 forward 7 unknown #
point $-1 48.451185644093144 -21.385978059910386 5.8874585310595311 #
point $-1 48.451185644093144 21.385978059910386 5.8874585310595311 #
face $-1 $-1 $115 $7 $-1 $140 reversed single #
loop $-1 $-1 $111 $59 #
plane-surface $-1 -48.451185644093144 0 0 1 0 0 0 0 -1 forward_v I I I I #
coedge $-1 $141 $62 $108 $142 forward $33 $-1 #
coedge $-1 $62 $141 $143 $144 forward $33 $-1 #
edge $-1 $145 -21.385978059910386 $109 21.385978059910386 $62 $146 forward 7 unknown #
coedge $-1 $64 $118 $105 $142 reversed $60 $-1 #
vertex $-1 $142 $147 #
straight-curve $-1 -43.082183535390627 -21.385978059910386 -2.1937292655297655 0 0 1 I I #
coedge $-1 $148 $149 $66 $112 forward $103 $-1 #
edge $-1 $119 -21.385978059910386 $116 21.385978059910386 $111 $150 forward 7 unknown #
coedge $-1 $143 $67 $71 $121 forward $115 $-1 #
coedge $-1 $67 $143 $148 $151 reversed $115 $-1 #
loop $-1 $-1 $113 $102 #
vertex $-1 $151 $152 #
straight-curve $-1 -22.883342294870943 21.385978059910386 -2.8874585310595311 1 0 0 I I #
coedge $-1 $108 $69 $149 $153 forward $60 $-1 #
vertex $-1 $153 $154 #
straight-curve $-1 -22.883342294870943 -21.385978059910386 -2.8874585310595311 -1 0 0 I I #
edge $-1 $73 0.69372926552976555 $145 3.6937292655297655 $113 $155 forward 7 unknown #
point $-1 -43.082183535390627 -21.385978059910386 -2.8874585310595311 #
point $-1 -43.082183535390627 21.385978059910386 -2.8874585310595311 #
plane-surface $-1 48.451185644093144 0 0 -1 0 0 0 0 1 forward_v I I I I #
coedge $-1 $80 $78 $82 $129 reversed $41 $-1 #
edge $-1 $93 -5.8874585310595311 $131 5.8874585310595311 $92 $156 forward 7 unknown #
vertex $-1 $129 $157 #
straight-curve $-1 -48.451185644093144 -21.385978059910386 0 0 0 -1 I I #
edge $-1 $127 -21.385978059910386 $131 21.385978059910386 $125 $158 forward 7 unknown #
straight-curve $-1 0 -21.385978059910386 -5.8874585310595311 -1 0 0 I I #
vertex $-1 $85 $159 #
straight-curve $-1 0 21.385978059910386 -5.8874585310595311 1 0 0 I I #
point $-1 48.451185644093144 21.385978059910386 -5.8874585310595311 #
point $-1 48.451185644093144 -21.385978059910386 -5.8874585310595311 #
straight-curve $-1 -48.451185644093144 0 5.8874585310595311 0 -1 0 I I #
point $-1 -48.451185644093144 21.385978059910386 5.8874585310595311 #
point $-1 -48.451185644093144 -21.385978059910386 5.8874585310595311 #
straight-curve $-1 48.451185644093144 -21.385978059910386 0 0 0 -1 I I #
straight-curve $-1 48.451185644093144 21.385978059910386 0 0 0 -1 I I #
plane-surface $-1 0 21.385978059910386 0 0 -1 0 0 0 -1 forward_v I I I I #
coedge $-1 $106 $105 $160 $161 forward $33 $-1 #
edge $-1 $109 43.082183535390627 $162 48.451185644093144 $108 $163 forward 7 unknown #
coedge $-1 $114 $113 $106 $144 reversed $115 $-1 #
edge $-1 $164 -48.451185644093144 $145 -43.082183535390627 $143 $165 forward 7 unknown #
vertex $-1 $121 $166 #
straight-curve $-1 -43.082183535390627 0 -5.8874585310595311 0 -1 0 I I #
point $-1 -43.082183535390627 -21.385978059910386 -5.8874585310595311 #
coedge $-1 $160 $111 $114 $151 forward $103 $-1 #
coedge $-1 $111 $160 $118 $153 reversed $103 $-1 #
straight-curve $-1 -48.451185644093144 0 -2.8874585310595311 0 1 0 I I #
edge $-1 $116 2.8874585310595311 $164 5.8874585310595311 $114 $167 forward 7 unknown #
point $-1 -48.451185644093144 21.385978059910386 -2.8874585310595311 #
edge $-1 $119 2.8874585310595311 $162 5.8874585310595311 $149 $168 forward 7 unknown #
point $-1 -48.451185644093144 -21.385978059910386 -2.8874585310595311 #
straight-curve $-1 -43.082183535390627 21.385978059910386 -2.1937292655297655 0 0 -1 I I #
straight-curve $-1 -48.451185644093144 21.385978059910386 0 0 0 -1 I I #
point $-1 -48.451185644093144 -21.385978059910386 -5.8874585310595311 #
straight-curve $-1 -48.451185644093144 0 -5.8874585310595311 0 1 0 I I #
point $-1 -48.451185644093144 21.385978059910386 -5.8874585310595311 #
coedge $-1 $149 $148 $141 $161 reversed $103 $-1 #
edge $-1 $162 -21.385978059910386 $164 21.385978059910386 $160 $169 forward 7 unknown #
vertex $-1 $161 $170 #
straight-curve $-1 0 -21.385978059910386 -5.8874585310595311 -1 0 0 I I #
vertex $-1 $144 $171 #
straight-curve $-1 0 21.385978059910386 -5.8874585310595311 1 0 0 I I #
point $-1 -43.082183535390627 21.385978059910386 -5.8874585310595311 #
straight-curve $-1 -48.451185644093144 21.385978059910386 0 0 0 -1 I I #
straight-curve $-1 -48.451185644093144 -21.385978059910386 0 0 0 -1 I I #
straight-curve $-1 -48.451185644093144 0 -5.8874585310595311 0 1 0 I I #
point $-1 -48.451185644093144 -21.385978059910386 -5.8874585310595311 #
point $-1 -48.451185644093144 21.385978059910386 -5.8874585310595311 #
End-of-ACIS-data 