500 0 8 0           
7 Unknown 11 ACIS 5.0 NT 24 Fri Mar 26 02:49:16 1999 
-1 9.9999999999999995e-007 1e-010 
body $-1 $8 $-1 $9 #
body $-1 $10 $-1 $11 #
body $-1 $12 $-1 $13 #
body $-1 $14 $-1 $15 #
body $-1 $16 $-1 $17 #
body $-1 $18 $-1 $19 #
body $-1 $20 $-1 $21 #
body $-1 $22 $-1 $23 #
lump $-1 $-1 $24 $0 #
transform $-1 1 0 0 0 1 0 0 0 1 74.219794305246126 35.85051406495203 13.428160320504448 1 rotate no_reflect no_shear #
lump $-1 $-1 $25 $1 #
transform $-1 1 0 0 0 1 0 0 0 1 74.219794305246126 35.85051406495203 13.428160320504448 1 rotate no_reflect no_shear #
lump $-1 $-1 $26 $2 #
transform $-1 1 0 0 0 1 0 0 0 1 74.219794305246126 35.85051406495203 13.428160320504448 1 rotate no_reflect no_shear #
lump $-1 $-1 $27 $3 #
transform $-1 1 0 0 0 1 0 0 0 1 74.219794305246126 35.85051406495203 13.428160320504448 1 rotate no_reflect no_shear #
lump $-1 $-1 $28 $4 #
transform $-1 1 0 0 0 1 0 0 0 1 74.219794305246126 35.85051406495203 13.428160320504448 1 rotate no_reflect no_shear #
lump $-1 $-1 $29 $5 #
transform $-1 1 0 0 0 1 0 0 0 1 74.219794305246126 35.85051406495203 13.428160320504448 1 rotate no_reflect no_shear #
lump $-1 $-1 $30 $6 #
transform $-1 1 0 0 0 1 0 0 0 1 74.219794305246126 35.85051406495203 13.428160320504448 1 rotate no_reflect no_shear #
lump $-1 $-1 $31 $7 #
transform $-1 1 0 0 0 1 0 0 0 1 74.219794305246126 35.85051406495203 13.428160320504448 1 rotate no_reflect no_shear #
shell $-1 $-1 $-1 $32 $-1 $8 #
shell $-1 $-1 $-1 $33 $-1 $10 #
shell $-1 $-1 $-1 $34 $-1 $12 #
shell $-1 $-1 $-1 $35 $-1 $14 #
shell $-1 $-1 $-1 $36 $-1 $16 #
shell $-1 $-1 $-1 $37 $-1 $18 #
shell $-1 $-1 $-1 $38 $-1 $20 #
shell $-1 $-1 $-1 $39 $-1 $22 #
face $-1 $40 $41 $24 $-1 $42 forward single #
face $-1 $43 $44 $25 $-1 $45 reversed single #
face $-1 $46 $47 $26 $-1 $48 forward single #
face $-1 $49 $50 $27 $-1 $51 reversed single #
face $-1 $52 $53 $28 $-1 $54 forward single #
face $-1 $55 $56 $29 $-1 $57 reversed single #
face $-1 $58 $59 $30 $-1 $60 forward single #
face $-1 $61 $62 $31 $-1 $63 forward single #
face $-1 $64 $65 $24 $-1 $66 reversed single #
loop $-1 $-1 $67 $32 #
plane-surface $-1 0 0 13.428160320504448 0 0 1 1 0 0 forward_v I I I I #
face $-1 $68 $69 $25 $-1 $70 reversed single #
loop $-1 $-1 $71 $33 #
plane-surface $-1 -15.113378531056995 -29.886770601551643 126.48251138338406 0.79863551827123203 0 0.60181501223851219 0.60181501223851219 0 -0.79863551827123203 forward_v I I I I #
face $-1 $72 $73 $26 $-1 $74 forward single #
loop $-1 $75 $76 $34 #
cone-surface $-1 71.182215287310612 -29.886770601551643 9.9518791549441552 -0.79863551827123203 0 -0.60181501223851219 0.60181501223851219 0 -0.79863551827123203 1 I I 0 1 1 forward I I I I #
face $-1 $77 $78 $27 $-1 $79 reversed single #
loop $-1 $-1 $80 $35 #
plane-surface $-1 103.43574925085196 2.6645352591003757e-015 215.81568421968717 0 1 0 0.79863551827123203 0 0.60181501223851219 forward_v I I I I #
face $-1 $81 $82 $28 $-1 $83 forward single #
loop $-1 $84 $85 $36 #
cone-surface $-1 71.182215287310612 5.963743463400391 9.9518791549441552 -0.79863551827123203 0 -0.60181501223851219 0.60181501223851219 0 -0.79863551827123203 1 I I 0 1 1 forward I I I I #
face $-1 $86 $87 $29 $-1 $88 reversed single #
loop $-1 $-1 $89 $37 #
plane-surface $-1 -184.53190770638406 -31.773463537403053 109.65942832464445 0 1 0 -0.74314483375859142 0 0.66913059716165679 forward_v I I I I #
face $-1 $90 $91 $30 $-1 $92 forward single #
loop $-1 $93 $94 $38 #
cone-surface $-1 -72.247096994985739 -27.06187550161993 11.359111850226787 0.74314483375859142 0 -0.66913059716165679 0.3345652985808284 0 0.37157241687929571 1 I I 0 1 0.5 forward I I I I #
face $-1 $95 $96 $31 $-1 $97 forward single #
loop $-1 $98 $99 $39 #
cone-surface $-1 -72.247096994985739 -19.994493447945239 11.359111850226787 0.74314483375859142 0 -0.66913059716165679 0.3345652985808284 0 0.37157241687929571 1 I I 0 1 0.5 forward I I I I #
face $-1 $100 $101 $24 $-1 $102 reversed single #
loop $-1 $-1 $103 $40 #
plane-surface $-1 0 0 -13.428160320504448 0 0 1 1 0 0 forward_v I I I I #
coedge $-1 $104 $105 $106 $107 forward $41 $-1 #
face $-1 $108 $109 $25 $-1 $110 forward single #
loop $-1 $-1 $111 $43 #
plane-surface $-1 103.43574925085196 -23.923027138151255 215.81568421968717 0 -1 0 -0.79863551827123203 0 -0.60181501223851219 forward_v I I I I #
coedge $-1 $112 $113 $114 $115 reversed $44 $-1 #
face $-1 $-1 $116 $26 $-1 $117 forward single #
loop $-1 $118 $119 $46 #
cone-surface $-1 69.81562407689438 -29.886770601551643 8.9220788427792552 -0.79863551827123203 0 -0.60181501223851219 0.3009075061192561 0 -0.39931775913561601 1 I I -0.70710678118654746 0.70710678118654746 0.5 forward I I I I #
loop $-1 $-1 $120 $34 #
coedge $-1 $76 $76 $121 $122 reversed $47 $-1 #
face $-1 $123 $124 $27 $-1 $125 reversed single #
loop $-1 $-1 $126 $49 #
plane-surface $-1 -15.113378531056995 5.963743463400391 126.48251138338406 0.79863551827123203 0 0.60181501223851219 0.60181501223851219 0 -0.79863551827123203 forward_v I I I I #
coedge $-1 $127 $128 $129 $130 reversed $50 $-1 #
face $-1 $-1 $131 $28 $-1 $132 forward single #
loop $-1 $133 $134 $52 #
cone-surface $-1 69.81562407689438 5.963743463400391 8.9220788427792552 -0.79863551827123203 0 -0.60181501223851219 0.3009075061192561 0 -0.39931775913561601 1 I I -0.70710678118654746 0.70710678118654746 0.5 forward I I I I #
loop $-1 $-1 $135 $36 #
coedge $-1 $85 $85 $136 $137 reversed $53 $-1 #
face $-1 $138 $139 $29 $-1 $140 reversed single #
loop $-1 $-1 $141 $55 #
plane-surface $-1 -74.219794305246097 -23.528184474782584 10.333957755275108 -0.74314483375859142 0 0.66913059716165679 0.66913059716165679 0 0.74314483375859142 forward_v I I I I #
coedge $-1 $142 $143 $144 $145 reversed $56 $-1 #
face $-1 $-1 $146 $30 $-1 $147 forward single #
loop $-1 $148 $149 $58 #
cone-surface $-1 -71.481629693420302 -27.06187550161993 10.669882013273378 0.74314483375859142 0 -0.66913059716165679 0.1672826492904142 0 0.18578620843964785 1 I I -0.70710678118654746 0.70710678118654746 0.25 forward I I I I #
loop $-1 $-1 $150 $38 #
coedge $-1 $94 $94 $151 $152 reversed $59 $-1 #
face $-1 $-1 $153 $31 $-1 $154 forward single #
loop $-1 $155 $156 $61 #
cone-surface $-1 -71.481629693420302 -19.994493447945239 10.669882013273378 0.74314483375859142 0 -0.66913059716165679 0.1672826492904142 0 0.18578620843964785 1 I I -0.70710678118654746 0.70710678118654746 0.25 forward I I I I #
loop $-1 $-1 $157 $39 #
coedge $-1 $99 $99 $158 $159 reversed $62 $-1 #
face $-1 $160 $161 $24 $-1 $162 reversed single #
loop $-1 $-1 $163 $64 #
plane-surface $-1 0 -35.85051406495203 0 0 1 0 0 0 1 forward_v I I I I #
coedge $-1 $164 $165 $166 $167 forward $65 $-1 #
coedge $-1 $168 $67 $169 $170 forward $41 $-1 #
coedge $-1 $67 $168 $171 $172 forward $41 $-1 #
coedge $-1 $173 $174 $67 $107 reversed $175 $-1 #
edge $-1 $176 -35.85051406495203 $177 35.85051406495203 $106 $178 forward 7 unknown #
face $-1 $179 $180 $25 $-1 $181 reversed single #
loop $-1 $-1 $182 $68 #
plane-surface $-1 0 0 13.428160320504448 0 0 1 1 0 0 forward_v I I I I #
coedge $-1 $183 $184 $185 $186 reversed $69 $-1 #
coedge $-1 $187 $71 $188 $189 reversed $44 $-1 #
coedge $-1 $71 $187 $183 $190 forward $44 $-1 #
coedge $-1 $185 $191 $71 $115 forward $192 $-1 #
edge $-1 $193 -20.907128764176207 $194 -8.9796418373754339 $114 $195 forward 7 unknown #
loop $-1 $-1 $121 $72 #
plane-surface $-1 -15.113378531056995 -29.886770601551643 126.48251138338406 0.79863551827123203 0 0.60181501223851219 0.60181501223851219 0 -0.79863551827123203 forward_v I I I I #
loop $-1 $-1 $196 $46 #
coedge $-1 $119 $119 $120 $197 reversed $73 $-1 #
coedge $-1 $120 $120 $119 $197 forward $75 $-1 #
coedge $-1 $121 $121 $76 $122 forward $116 $-1 #
edge $-1 $198 0 $198 6.2831853071796004 $121 $199 forward 7 unknown #
face $-1 $200 $201 $27 $-1 $202 forward single #
loop $-1 $-1 $203 $77 #
plane-surface $-1 103.43574925085196 11.927486926800778 215.81568421968717 0 -1 0 -0.79863551827123203 0 -0.60181501223851219 forward_v I I I I #
coedge $-1 $204 $205 $206 $207 reversed $78 $-1 #
coedge $-1 $128 $80 $208 $209 reversed $50 $-1 #
coedge $-1 $80 $127 $204 $210 reversed $50 $-1 #
coedge $-1 $206 $211 $80 $130 forward $212 $-1 #
edge $-1 $213 94.479681789339139 $214 99.9744585083685 $129 $215 forward 7 unknown #
loop $-1 $-1 $136 $81 #
plane-surface $-1 -15.113378531056995 5.963743463400391 126.48251138338406 0.79863551827123203 0 0.60181501223851219 0.60181501223851219 0 -0.79863551827123203 forward_v I I I I #
loop $-1 $-1 $216 $52 #
coedge $-1 $134 $134 $135 $217 reversed $82 $-1 #
coedge $-1 $135 $135 $134 $217 forward $84 $-1 #
coedge $-1 $136 $136 $85 $137 forward $131 $-1 #
edge $-1 $218 0 $218 6.2831853071796004 $136 $219 forward 7 unknown #
face $-1 $220 $221 $29 $-1 $222 reversed single #
loop $-1 $-1 $223 $86 #
plane-surface $-1 -184.53190770638406 -15.282905412162114 109.65942832464445 0 -1 0 0.74314483375859142 0 -0.66913059716165679 forward_v I I I I #
coedge $-1 $224 $225 $226 $227 reversed $87 $-1 #
coedge $-1 $143 $89 $228 $229 reversed $56 $-1 #
coedge $-1 $89 $142 $224 $230 reversed $56 $-1 #
coedge $-1 $226 $231 $89 $145 forward $232 $-1 #
edge $-1 $233 18.046159547945905 $234 20.83219198221515 $144 $235 forward 7 unknown #
loop $-1 $-1 $151 $90 #
plane-surface $-1 -74.219794305246097 -23.528184474782584 10.333957755275108 -0.74314483375859142 0 0.66913059716165679 0.66913059716165679 0 0.74314483375859142 forward_v I I I I #
loop $-1 $-1 $236 $58 #
coedge $-1 $149 $149 $150 $237 reversed $91 $-1 #
coedge $-1 $150 $150 $149 $237 forward $93 $-1 #
coedge $-1 $151 $151 $94 $152 forward $146 $-1 #
edge $-1 $238 0 $238 6.2831853071796004 $151 $239 forward 7 unknown #
loop $-1 $-1 $158 $95 #
plane-surface $-1 -74.219794305246097 -23.528184474782584 10.333957755275108 -0.74314483375859142 0 0.66913059716165679 0.66913059716165679 0 0.74314483375859142 forward_v I I I I #
loop $-1 $-1 $240 $61 #
coedge $-1 $156 $156 $157 $241 reversed $96 $-1 #
coedge $-1 $157 $157 $156 $241 forward $98 $-1 #
coedge $-1 $158 $158 $99 $159 forward $153 $-1 #
edge $-1 $242 0 $242 6.2831853071796004 $158 $243 forward 7 unknown #
face $-1 $244 $245 $24 $-1 $246 reversed single #
loop $-1 $-1 $247 $100 #
plane-surface $-1 -74.219794305246126 0 0 1 0 0 0 0 -1 forward_v I I I I #
coedge $-1 $248 $171 $249 $250 forward $101 $-1 #
coedge $-1 $251 $103 $248 $252 forward $65 $-1 #
coedge $-1 $103 $251 $253 $254 forward $65 $-1 #
coedge $-1 $174 $173 $103 $167 reversed $175 $-1 #
edge $-1 $255 -35.85051406495203 $256 35.85051406495203 $166 $257 forward 7 unknown #
coedge $-1 $105 $104 $258 $259 forward $41 $-1 #
coedge $-1 $260 $261 $104 $170 reversed $245 $-1 #
edge $-1 $177 -74.219794305246126 $262 74.219794305246126 $169 $263 forward 7 unknown #
coedge $-1 $163 $264 $105 $172 reversed $101 $-1 #
edge $-1 $265 -74.219794305246126 $176 74.219794305246126 $171 $266 forward 7 unknown #
coedge $-1 $166 $106 $264 $267 forward $175 $-1 #
coedge $-1 $106 $166 $260 $268 reversed $175 $-1 #
loop $-1 $-1 $173 $244 #
vertex $-1 $107 $269 #
vertex $-1 $107 $270 #
straight-curve $-1 74.219794305246126 0 13.428160320504448 0 1 0 I I #
face $-1 $-1 $192 $25 $-1 $271 reversed single #
loop $-1 $-1 $188 $108 #
plane-surface $-1 0 -35.85051406495203 0 0 1 0 0 0 1 forward_v I I I I #
coedge $-1 $272 $273 $184 $274 forward $109 $-1 #
coedge $-1 $184 $111 $113 $190 reversed $69 $-1 #
coedge $-1 $111 $183 $182 $274 reversed $69 $-1 #
coedge $-1 $275 $114 $111 $186 forward $192 $-1 #
edge $-1 $194 -99.9744585083685 $276 -94.479681789339139 $185 $277 forward 7 unknown #
coedge $-1 $113 $112 $272 $278 reversed $44 $-1 #
coedge $-1 $279 $280 $112 $189 forward $180 $-1 #
edge $-1 $281 86.504940759563141 $193 93.385146552217648 $188 $282 forward 7 unknown #
edge $-1 $283 141.55938281783779 $194 148.43958861049228 $183 $284 forward 7 unknown #
coedge $-1 $114 $275 $279 $285 forward $192 $-1 #
loop $-1 $-1 $185 $179 #
vertex $-1 $189 $286 #
vertex $-1 $115 $287 #
straight-curve $-1 74.219794305246126 -14.943385300775821 7.9333836014750929 0 1 0 I I #
coedge $-1 $196 $196 $-1 $288 reversed $118 $-1 #
edge $-1 $289 0 $289 6.2831853071796004 $119 $290 forward 7 unknown #
vertex $-1 $122 $291 #
ellipse-curve $-1 72.149488738591202 -29.886770601551643 10.680771960989778 0.79863551827123203 0 0.60181501223851219 0.60181501223851219 0 -0.79863551827123203 1 I I #
face $-1 $-1 $212 $27 $-1 $292 reversed single #
loop $-1 $-1 $293 $123 #
plane-surface $-1 0 0 13.428160320504448 0 0 1 1 0 0 forward_v I I I I #
coedge $-1 $294 $295 $296 $297 reversed $124 $-1 #
coedge $-1 $298 $126 $128 $210 forward $78 $-1 #
coedge $-1 $126 $298 $294 $299 forward $78 $-1 #
coedge $-1 $296 $129 $126 $207 forward $212 $-1 #
edge $-1 $214 -2.9818717317001928 $300 8.9456151951005829 $206 $301 forward 7 unknown #
coedge $-1 $302 $303 $127 $209 forward $201 $-1 #
edge $-1 $304 18.361308546510301 $213 22.501919679820148 $208 $305 forward 7 unknown #
edge $-1 $214 -148.43958861049228 $304 -141.55938281783779 $128 $306 forward 7 unknown #
coedge $-1 $129 $296 $302 $307 reversed $212 $-1 #
loop $-1 $-1 $296 $200 #
vertex $-1 $307 $308 #
vertex $-1 $130 $309 #
straight-curve $-1 74.219794305246126 2.6645352591003757e-015 107.90784210984359 0 0 -1 I I #
coedge $-1 $216 $216 $-1 $310 reversed $133 $-1 #
edge $-1 $311 0 $311 6.2831853071796004 $134 $312 forward 7 unknown #
vertex $-1 $137 $313 #
ellipse-curve $-1 72.149488738591202 5.963743463400391 10.680771960989778 0.79863551827123203 0 0.60181501223851219 0.60181501223851219 0 -0.79863551827123203 1 I I #
face $-1 $-1 $232 $29 $-1 $314 forward single #
loop $-1 $-1 $315 $138 #
plane-surface $-1 -74.219794305246126 0 0 1 0 0 0 0 -1 forward_v I I I I #
coedge $-1 $316 $317 $318 $319 reversed $139 $-1 #
coedge $-1 $320 $141 $143 $230 forward $87 $-1 #
coedge $-1 $141 $320 $316 $321 forward $87 $-1 #
coedge $-1 $318 $144 $141 $227 forward $232 $-1 #
edge $-1 $234 -20.009371300011761 $322 -3.5188131747708216 $226 $323 forward 7 unknown #
coedge $-1 $324 $325 $142 $229 forward $221 $-1 #
edge $-1 $326 -44.495756407047153 $233 -41.40155384181778 $228 $327 forward 7 unknown #
edge $-1 $234 -4.1636601974070704 $326 4.2779462749537973e-014 $143 $328 forward 7 unknown #
coedge $-1 $144 $318 $324 $329 forward $232 $-1 #
loop $-1 $-1 $318 $220 #
vertex $-1 $229 $330 #
vertex $-1 $145 $331 #
straight-curve $-1 -92.26595385319203 -31.773463537403053 13.428160320504446 1 0 0 I I #
coedge $-1 $236 $236 $-1 $332 reversed $148 $-1 #
edge $-1 $333 0 $333 6.2831853071796004 $149 $334 forward 7 unknown #
vertex $-1 $152 $335 #
ellipse-curve $-1 -72.82677808811151 -27.06187550161993 11.881059037889761 -0.74314483375859142 0 0.66913059716165679 0.3345652985808284 0 0.37157241687929571 1 I I #
coedge $-1 $240 $240 $-1 $336 reversed $155 $-1 #
edge $-1 $337 0 $337 6.2831853071796004 $156 $338 forward 7 unknown #
vertex $-1 $159 $339 #
ellipse-curve $-1 -72.82677808811151 -19.994493447945239 11.881059037889761 -0.74314483375859142 0 0.66913059716165679 0.3345652985808284 0 0.37157241687929571 1 I I #
face $-1 $-1 $175 $24 $-1 $340 reversed single #
loop $-1 $-1 $260 $160 #
plane-surface $-1 0 35.85051406495203 0 0 -1 0 0 0 -1 forward_v I I I I #
coedge $-1 $341 $258 $261 $342 forward $161 $-1 #
coedge $-1 $264 $163 $164 $252 reversed $101 $-1 #
coedge $-1 $258 $341 $163 $250 reversed $161 $-1 #
edge $-1 $265 -13.428160320504448 $343 13.428160320504448 $249 $344 forward 7 unknown #
coedge $-1 $165 $164 $341 $345 forward $65 $-1 #
edge $-1 $256 -74.219794305246126 $343 74.219794305246126 $248 $346 forward 7 unknown #
coedge $-1 $261 $260 $165 $254 reversed $245 $-1 #
edge $-1 $347 -74.219794305246126 $255 74.219794305246126 $253 $348 forward 7 unknown #
vertex $-1 $167 $349 #
vertex $-1 $267 $350 #
straight-curve $-1 74.219794305246126 0 -13.428160320504448 0 -1 0 I I #
coedge $-1 $247 $249 $168 $259 reversed $161 $-1 #
edge $-1 $262 -35.85051406495203 $265 35.85051406495203 $258 $351 forward 7 unknown #
coedge $-1 $253 $169 $174 $268 forward $245 $-1 #
coedge $-1 $169 $253 $247 $342 reversed $245 $-1 #
vertex $-1 $170 $352 #
straight-curve $-1 0 35.85051406495203 13.428160320504448 -1 0 0 I I #
coedge $-1 $171 $248 $173 $267 reversed $101 $-1 #
vertex $-1 $259 $353 #
straight-curve $-1 0 -35.85051406495203 13.428160320504448 1 0 0 I I #
edge $-1 $176 -13.428160320504448 $256 13.428160320504448 $173 $354 forward 7 unknown #
edge $-1 $177 -13.428160320504448 $255 13.428160320504448 $174 $355 forward 7 unknown #
point $-1 74.219794305246126 -35.85051406495203 13.428160320504448 #
point $-1 74.219794305246126 35.85051406495203 13.428160320504448 #
plane-surface $-1 74.219794305246126 0 0 -1 0 0 0 0 1 forward_v I I I I #
coedge $-1 $356 $182 $187 $278 forward $109 $-1 #
coedge $-1 $182 $356 $275 $357 forward $109 $-1 #
edge $-1 $276 -22.501919679820148 $283 -18.361308546510301 $182 $358 forward 7 unknown #
coedge $-1 $191 $185 $273 $357 reversed $192 $-1 #
vertex $-1 $186 $359 #
straight-curve $-1 74.219794305246126 -23.923027138151255 107.90784210984359 0 0 1 I I #
edge $-1 $283 8.9796418373754339 $281 20.907128764176207 $272 $360 forward 7 unknown #
coedge $-1 $280 $188 $191 $285 reversed $180 $-1 #
coedge $-1 $188 $279 $356 $361 reversed $180 $-1 #
vertex $-1 $361 $362 #
straight-curve $-1 18.019211190028017 -35.85051406495203 82.514078517040389 0.60181501223851219 0 -0.79863551827123203 I I #
vertex $-1 $278 $363 #
straight-curve $-1 -15.113378531056995 -23.923027138151255 126.48251138338406 0.60181501223851219 0 -0.79863551827123203 I I #
edge $-1 $364 -13.428160320504448 $193 -7.9333836014750894 $191 $365 forward 7 unknown #
point $-1 74.219794305246126 -35.85051406495203 7.9333836014750894 #
point $-1 74.219794305246126 -23.923027138151255 7.9333836014750858 #
edge $-1 $366 1 $366 0 $196 $-1 forward 7 unknown #
vertex $-1 $197 $367 #
ellipse-curve $-1 70.214941836029993 -29.886770601551643 9.2229863488985107 0.79863551827123203 0 0.60181501223851219 0.60181501223851219 0 -0.79863551827123203 1 I I #
point $-1 72.751303750829749 -29.886770601551643 9.8821364427185667 #
plane-surface $-1 74.219794305246126 0 0 -1 0 0 0 0 1 forward_v I I I I #
coedge $-1 $303 $302 $295 $368 forward $201 $-1 #
coedge $-1 $295 $203 $205 $299 reversed $124 $-1 #
coedge $-1 $203 $294 $293 $368 reversed $124 $-1 #
coedge $-1 $211 $206 $203 $297 forward $212 $-1 #
edge $-1 $300 -99.9744585083685 $369 -94.479681789339139 $296 $370 forward 7 unknown #
coedge $-1 $205 $204 $303 $371 reversed $78 $-1 #
edge $-1 $372 141.55938281783779 $300 148.43958861049228 $294 $373 forward 7 unknown #
vertex $-1 $207 $374 #
straight-curve $-1 74.219794305246126 2.9818717317001955 7.9333836014750929 0 1 0 I I #
coedge $-1 $293 $208 $211 $307 forward $201 $-1 #
coedge $-1 $208 $293 $298 $371 forward $201 $-1 #
vertex $-1 $209 $375 #
straight-curve $-1 51.717874625425978 2.6645352591003757e-015 13.428160320504446 1 0 0 I I #
straight-curve $-1 -15.113378531056995 2.6645352591003757e-015 126.48251138338406 -0.60181501223851219 0 0.79863551827123203 I I #
edge $-1 $213 2.6645352591003757e-015 $369 11.927486926800778 $211 $376 forward 7 unknown #
point $-1 74.219794305246126 2.6645352591003757e-015 13.428160320504448 #
point $-1 74.219794305246126 2.6645352591003757e-015 7.9333836014750858 #
edge $-1 $377 1 $377 0 $216 $-1 forward 7 unknown #
vertex $-1 $217 $378 #
ellipse-curve $-1 70.214941836029993 5.963743463400391 9.2229863488985107 0.79863551827123203 0 0.60181501223851219 0.60181501223851219 0 -0.79863551827123203 1 I I #
point $-1 72.751303750829749 5.963743463400391 9.8821364427185667 #
plane-surface $-1 0 0 13.428160320504448 0 0 1 1 0 0 forward_v I I I I #
coedge $-1 $325 $324 $317 $379 forward $221 $-1 #
coedge $-1 $317 $223 $225 $321 reversed $139 $-1 #
coedge $-1 $223 $316 $315 $379 reversed $139 $-1 #
coedge $-1 $231 $226 $223 $319 forward $232 $-1 #
edge $-1 $322 -20.83219198221515 $380 -18.046159547945905 $318 $381 forward 7 unknown #
coedge $-1 $225 $224 $325 $382 reversed $87 $-1 #
edge $-1 $383 -4.2779462749537973e-014 $322 4.1636601974070704 $316 $384 forward 7 unknown #
vertex $-1 $227 $385 #
straight-curve $-1 -71.43376187097688 -11.764092237391292 13.42816032050445 0 1 0 I I #
coedge $-1 $315 $228 $231 $329 reversed $221 $-1 #
coedge $-1 $228 $315 $320 $382 forward $221 $-1 #
vertex $-1 $229 $386 #
straight-curve $-1 -74.219794305246126 -31.773463537403053 54.829714162322226 0 0 1 I I #
straight-curve $-1 -74.219794305246097 -31.773463537403053 10.333957755275108 -0.66913059716165679 0 -0.74314483375859142 I I #
edge $-1 $380 15.282905412162114 $233 31.773463537403053 $324 $387 forward 7 unknown #
point $-1 -74.219794305246126 -31.773463537403053 13.428160320504448 #
point $-1 -71.43376187097688 -31.773463537403053 13.428160320504448 #
edge $-1 $388 1 $388 0 $236 $-1 forward 7 unknown #
vertex $-1 $237 $389 #
ellipse-curve $-1 -71.667415901859954 -27.06187550161993 10.837164662563792 -0.74314483375859142 0 0.66913059716165679 0.3345652985808284 0 0.37157241687929571 1 I I #
point $-1 -72.492212789530697 -27.06187550161993 12.252631454769078 #
edge $-1 $390 1 $390 0 $240 $-1 forward 7 unknown #
vertex $-1 $241 $391 #
ellipse-curve $-1 -71.667415901859954 -19.994493447945239 10.837164662563792 -0.74314483375859142 0 0.66913059716165679 0.3345652985808284 0 0.37157241687929571 1 I I #
point $-1 -72.492212789530697 -19.994493447945239 12.252631454769078 #
plane-surface $-1 74.219794305246126 0 0 -1 0 0 0 0 1 forward_v I I I I #
coedge $-1 $249 $247 $251 $345 reversed $161 $-1 #
edge $-1 $262 -13.428160320504448 $347 13.428160320504448 $261 $392 forward 7 unknown #
vertex $-1 $345 $393 #
straight-curve $-1 -74.219794305246126 -35.85051406495203 0 0 0 -1 I I #
edge $-1 $343 -35.85051406495203 $347 35.85051406495203 $341 $394 forward 7 unknown #
straight-curve $-1 0 -35.85051406495203 -13.428160320504448 -1 0 0 I I #
vertex $-1 $254 $395 #
straight-curve $-1 0 35.85051406495203 -13.428160320504448 1 0 0 I I #
point $-1 74.219794305246126 35.85051406495203 -13.428160320504448 #
point $-1 74.219794305246126 -35.85051406495203 -13.428160320504448 #
straight-curve $-1 -74.219794305246126 0 13.428160320504448 0 -1 0 I I #
point $-1 -74.219794305246126 35.85051406495203 13.428160320504448 #
point $-1 -74.219794305246126 -35.85051406495203 13.428160320504448 #
straight-curve $-1 74.219794305246126 -35.85051406495203 0 0 0 -1 I I #
straight-curve $-1 74.219794305246126 35.85051406495203 0 0 0 -1 I I #
coedge $-1 $273 $272 $280 $361 forward $109 $-1 #
edge $-1 $364 -35.85051406495203 $276 -23.923027138151255 $275 $396 forward 7 unknown #
straight-curve $-1 51.717874625425978 -23.923027138151255 13.428160320504446 -1 0 0 I I #
point $-1 74.219794305246126 -23.923027138151255 13.428160320504448 #
straight-curve $-1 70.079183171936293 -14.943385300775821 13.428160320504446 0 -1 0 I I #
edge $-1 $281 70.079183171936279 $364 74.219794305246126 $280 $397 forward 7 unknown #
point $-1 70.079183171936279 -35.85051406495203 13.428160320504446 #
point $-1 70.079183171936279 -23.923027138151255 13.428160320504446 #
vertex $-1 $357 $398 #
straight-curve $-1 74.219794305246126 -35.85051406495203 0 0 0 -1 I I #
vertex $-1 $288 $399 #
point $-1 70.816756848268511 -29.886770601551643 8.4243508306272794 #
edge $-1 $369 -22.501919679820148 $372 -18.361308546510301 $293 $400 forward 7 unknown #
vertex $-1 $297 $401 #
straight-curve $-1 74.219794305246126 11.927486926800778 107.90784210984359 0 0 1 I I #
edge $-1 $372 -8.9456151951005829 $304 2.9818717317001928 $303 $402 forward 7 unknown #
vertex $-1 $371 $403 #
straight-curve $-1 -15.113378531056995 11.927486926800778 126.48251138338406 0.60181501223851219 0 -0.79863551827123203 I I #
point $-1 74.219794305246126 11.927486926800778 7.9333836014750858 #
point $-1 70.079183171936279 2.6645352591003757e-015 13.428160320504446 #
straight-curve $-1 74.219794305246126 0 13.428160320504448 0 1 0 I I #
vertex $-1 $310 $404 #
point $-1 70.816756848268511 5.963743463400391 8.4243508306272794 #
edge $-1 $380 41.40155384181778 $383 44.495756407047153 $315 $405 forward 7 unknown #
vertex $-1 $329 $406 #
straight-curve $-1 -92.26595385319203 -15.282905412162114 13.428160320504446 -1 0 0 I I #
edge $-1 $383 3.5188131747708216 $326 20.009371300011761 $325 $407 forward 7 unknown #
vertex $-1 $382 $408 #
straight-curve $-1 -74.219794305246097 -15.282905412162114 10.333957755275108 0.66913059716165679 0 0.74314483375859142 I I #
point $-1 -71.43376187097688 -15.282905412162114 13.428160320504448 #
point $-1 -74.219794305246126 -31.773463537403053 10.333957755275076 #
straight-curve $-1 -74.219794305246126 0 13.428160320504448 0 -1 0 I I #
vertex $-1 $332 $409 #
point $-1 -71.332850603279127 -27.06187550161993 11.208737079443088 #
vertex $-1 $336 $410 #
point $-1 -71.332850603279127 -19.994493447945239 11.208737079443088 #
straight-curve $-1 -74.219794305246126 35.85051406495203 0 0 0 -1 I I #
point $-1 -74.219794305246126 -35.85051406495203 -13.428160320504448 #
straight-curve $-1 -74.219794305246126 0 -13.428160320504448 0 1 0 I I #
point $-1 -74.219794305246126 35.85051406495203 -13.428160320504448 #
straight-curve $-1 74.219794305246126 0 13.428160320504448 0 1 0 I I #
straight-curve $-1 0 -35.85051406495203 13.428160320504448 1 0 0 I I #
point $-1 74.219794305246126 -35.85051406495203 13.428160320504448 #
point $-1 69.416306317758767 -29.886770601551643 8.6211713366599998 #
straight-curve $-1 51.717874625425978 11.927486926800778 13.428160320504446 -1 0 0 I I #
point $-1 74.219794305246126 11.927486926800778 13.428160320504448 #
straight-curve $-1 70.079183171936293 2.9818717317001955 13.428160320504446 0 -1 0 I I #
point $-1 70.079183171936279 11.927486926800778 13.428160320504446 #
point $-1 69.416306317758767 5.963743463400391 8.6211713366599998 #
straight-curve $-1 -74.219794305246126 -15.282905412162114 54.829714162322226 0 0 -1 I I #
point $-1 -74.219794305246126 -15.282905412162114 13.428160320504448 #
straight-curve $-1 -74.219794305246126 -11.764092237391292 10.333957755275069 0 -1 0 I I #
point $-1 -74.219794305246126 -15.282905412162114 10.333957755275076 #
point $-1 -71.295843484980651 -27.06187550161993 10.502599363982965 #
point $-1 -71.295843484980651 -19.994493447945239 10.502599363982965 #
End-of-ACIS-data 