500 0 16 0           
7 Unknown 11 ACIS 5.0 NT 24 Thu Mar 25 21:56:54 1999 
-1 9.9999999999999995e-007 1e-010 
body $-1 $16 $-1 $17 #
body $-1 $18 $-1 $19 #
body $-1 $20 $-1 $21 #
body $-1 $22 $-1 $23 #
body $-1 $24 $-1 $25 #
body $-1 $26 $-1 $27 #
body $-1 $28 $-1 $29 #
body $-1 $30 $-1 $31 #
body $-1 $32 $-1 $33 #
body $-1 $34 $-1 $35 #
body $-1 $36 $-1 $37 #
body $-1 $38 $-1 $39 #
body $-1 $40 $-1 $41 #
body $-1 $42 $-1 $43 #
body $-1 $44 $-1 $45 #
body $-1 $46 $-1 $47 #
lump $-1 $-1 $48 $0 #
transform $-1 1 0 0 0 1 0 0 0 1 67.598498489333778 39.021953757609708 18.380582320049914 1 rotate no_reflect no_shear #
lump $-1 $-1 $49 $1 #
transform $-1 1 0 0 0 1 0 0 0 1 67.598498489333778 39.021953757609708 18.380582320049914 1 rotate no_reflect no_shear #
lump $-1 $-1 $50 $2 #
transform $-1 1 0 0 0 1 0 0 0 1 67.598498489333778 39.021953757609708 18.380582320049914 1 rotate no_reflect no_shear #
lump $-1 $-1 $51 $3 #
transform $-1 1 0 0 0 1 0 0 0 1 67.598498489333778 39.021953757609708 18.380582320049914 1 rotate no_reflect no_shear #
lump $-1 $-1 $52 $4 #
transform $-1 1 0 0 0 1 0 0 0 1 67.598498489333778 39.021953757609708 18.380582320049914 1 rotate no_reflect no_shear #
lump $-1 $-1 $53 $5 #
transform $-1 1 0 0 0 1 0 0 0 1 67.598498489333778 39.021953757609708 18.380582320049914 1 rotate no_reflect no_shear #
lump $-1 $-1 $54 $6 #
transform $-1 1 0 0 0 1 0 0 0 1 67.598498489333778 39.021953757609708 18.380582320049914 1 rotate no_reflect no_shear #
lump $-1 $-1 $55 $7 #
transform $-1 1 0 0 0 1 0 0 0 1 67.598498489333778 39.021953757609708 18.380582320049914 1 rotate no_reflect no_shear #
lump $-1 $-1 $56 $8 #
transform $-1 1 0 0 0 1 0 0 0 1 67.598498489333778 39.021953757609708 18.380582320049914 1 rotate no_reflect no_shear #
lump $-1 $-1 $57 $9 #
transform $-1 1 0 0 0 1 0 0 0 1 67.598498489333778 39.021953757609708 18.380582320049914 1 rotate no_reflect no_shear #
lump $-1 $-1 $58 $10 #
transform $-1 1 0 0 0 1 0 0 0 1 67.598498489333778 39.021953757609708 18.380582320049914 1 rotate no_reflect no_shear #
lump $-1 $-1 $59 $11 #
transform $-1 1 0 0 0 1 0 0 0 1 67.598498489333778 39.021953757609708 18.380582320049914 1 rotate no_reflect no_shear #
lump $-1 $-1 $60 $12 #
transform $-1 1 0 0 0 1 0 0 0 1 67.598498489333778 39.021953757609708 18.380582320049914 1 rotate no_reflect no_shear #
lump $-1 $-1 $61 $13 #
transform $-1 1 0 0 0 1 0 0 0 1 67.598498489333778 39.021953757609708 18.380582320049914 1 rotate no_reflect no_shear #
lump $-1 $-1 $62 $14 #
transform $-1 1 0 0 0 1 0 0 0 1 67.598498489333778 39.021953757609708 18.380582320049914 1 rotate no_reflect no_shear #
lump $-1 $-1 $63 $15 #
transform $-1 1 0 0 0 1 0 0 0 1 67.598498489333778 39.021953757609708 18.380582320049914 1 rotate no_reflect no_shear #
shell $-1 $-1 $-1 $64 $-1 $16 #
shell $-1 $-1 $-1 $65 $-1 $18 #
shell $-1 $-1 $-1 $66 $-1 $20 #
shell $-1 $-1 $-1 $67 $-1 $22 #
shell $-1 $-1 $-1 $68 $-1 $24 #
shell $-1 $-1 $-1 $69 $-1 $26 #
shell $-1 $-1 $-1 $70 $-1 $28 #
shell $-1 $-1 $-1 $71 $-1 $30 #
shell $-1 $-1 $-1 $72 $-1 $32 #
shell $-1 $-1 $-1 $73 $-1 $34 #
shell $-1 $-1 $-1 $74 $-1 $36 #
shell $-1 $-1 $-1 $75 $-1 $38 #
shell $-1 $-1 $-1 $76 $-1 $40 #
shell $-1 $-1 $-1 $77 $-1 $42 #
shell $-1 $-1 $-1 $78 $-1 $44 #
shell $-1 $-1 $-1 $79 $-1 $46 #
face $-1 $80 $81 $48 $-1 $82 forward single #
face $-1 $83 $84 $49 $-1 $85 reversed single #
face $-1 $86 $87 $50 $-1 $88 reversed single #
face $-1 $89 $90 $51 $-1 $91 reversed single #
face $-1 $92 $93 $52 $-1 $94 forward single #
face $-1 $95 $96 $53 $-1 $97 forward single #
face $-1 $98 $99 $54 $-1 $100 reversed single #
face $-1 $101 $102 $55 $-1 $103 forward single #
face $-1 $104 $105 $56 $-1 $106 forward single #
face $-1 $107 $108 $57 $-1 $109 reversed single #
face $-1 $110 $111 $58 $-1 $112 forward single #
face $-1 $113 $114 $59 $-1 $115 forward single #
face $-1 $116 $117 $60 $-1 $118 reversed single #
face $-1 $119 $120 $61 $-1 $121 forward single #
face $-1 $122 $123 $62 $-1 $124 forward single #
face $-1 $125 $126 $63 $-1 $127 forward single #
face $-1 $128 $129 $48 $-1 $130 reversed single #
loop $-1 $-1 $131 $64 #
plane-surface $-1 0 0 18.380582320049914 0 0 1 1 0 0 forward_v I I I I #
face $-1 $132 $133 $49 $-1 $134 reversed single #
loop $-1 $-1 $135 $65 #
plane-surface $-1 0 -26.904467775943573 12.517666267536786 0 0 1 1 0 0 forward_v I I I I #
face $-1 $136 $137 $50 $-1 $138 reversed single #
loop $-1 $-1 $139 $66 #
plane-surface $-1 0 26.904467775943573 12.517666267536786 0 0 1 1 0 0 forward_v I I I I #
face $-1 $140 $141 $51 $-1 $142 reversed single #
loop $-1 $-1 $143 $67 #
plane-surface $-1 107.35068150709908 -6.8838396799281796 187.3567967973803 0 -1 0 -0.83867057594974714 0 -0.54463902268945019 forward_v I I I I #
face $-1 $144 $145 $52 $-1 $146 forward single #
loop $-1 $147 $148 $68 #
cone-surface $-1 61.320503840337473 -11.162015903525173 9.0867182334776686 -0.83867057594974714 0 -0.54463902268945019 0.13615975567236255 0 -0.20966764398743679 1 I I 0 1 0.25 forward I I I I #
face $-1 $149 $150 $53 $-1 $151 forward single #
loop $-1 $152 $153 $69 #
cone-surface $-1 61.320503840337473 -8.5951101693669791 9.0867182334776686 -0.83867057594974714 0 -0.54463902268945019 0.13615975567236255 0 -0.20966764398743679 1 I I 0 1 0.25 forward I I I I #
face $-1 $154 $155 $54 $-1 $156 reversed single #
loop $-1 $-1 $157 $70 #
plane-surface $-1 107.35068150709908 2.9947233565178948 187.3567967973803 0 -1 0 -0.83867057594974714 0 -0.54463902268945019 forward_v I I I I #
face $-1 $158 $159 $55 $-1 $160 forward single #
loop $-1 $161 $162 $71 #
cone-surface $-1 61.320503840337473 -1.2834528670790917 9.0867182334776686 -0.83867057594974714 0 -0.54463902268945019 0.13615975567236255 0 -0.20966764398743679 1 I I 0 1 0.25 forward I I I I #
face $-1 $163 $164 $56 $-1 $165 forward single #
loop $-1 $166 $167 $72 #
cone-surface $-1 61.320503840337473 1.2834528670790988 9.0867182334776686 -0.83867057594974714 0 -0.54463902268945019 0.13615975567236255 0 -0.20966764398743679 1 I I 0 1 0.25 forward I I I I #
face $-1 $168 $169 $57 $-1 $170 reversed single #
loop $-1 $-1 $171 $73 #
plane-surface $-1 107.35068150709908 12.873286392963976 187.3567967973803 0 -1 0 -0.83867057594974714 0 -0.54463902268945019 forward_v I I I I #
face $-1 $172 $173 $58 $-1 $174 forward single #
loop $-1 $175 $176 $74 #
cone-surface $-1 61.320503840337473 8.5951101693669898 9.0867182334776686 -0.83867057594974714 0 -0.54463902268945019 0.13615975567236255 0 -0.20966764398743679 1 I I 0 1 0.25 forward I I I I #
face $-1 $177 $178 $59 $-1 $179 forward single #
loop $-1 $180 $181 $75 #
cone-surface $-1 61.320503840337473 11.162015903525173 9.0867182334776686 -0.83867057594974714 0 -0.54463902268945019 0.13615975567236255 0 -0.20966764398743679 1 I I 0 1 0.25 forward I I I I #
face $-1 $182 $183 $60 $-1 $184 reversed single #
loop $-1 $-1 $185 $76 #
plane-surface $-1 -152.68072655322649 3.0936683503530134 113.19110504017513 0 1 0 -0.62932039886446345 0 0.77714595512881146 forward_v I I I I #
face $-1 $186 $187 $61 $-1 $188 forward single #
loop $-1 $189 $190 $77 #
cone-surface $-1 -60.950497549627407 4.4135277010197527 12.863371028781295 0.62932039886446345 0 -0.77714595512881146 0.38857297756440573 0 0.31466019943223172 1 I I 0 1 0.5 forward I I I I #
face $-1 $191 $192 $62 $-1 $193 forward single #
loop $-1 $194 $195 $78 #
cone-surface $-1 -60.950497549627407 6.3933167270198581 12.863371028781295 0.62932039886446345 0 -0.77714595512881146 0.38857297756440573 0 0.31466019943223172 1 I I 0 1 0.5 forward I I I I #
face $-1 $196 $197 $63 $-1 $198 forward single #
loop $-1 $199 $200 $79 #
cone-surface $-1 -60.950497549627407 8.3731057530199635 12.863371028781295 0.62932039886446345 0 -0.77714595512881146 0.38857297756440573 0 0.31466019943223172 1 I I 0 1 0.5 forward I I I I #
face $-1 $201 $202 $48 $-1 $203 reversed single #
loop $-1 $-1 $204 $80 #
plane-surface $-1 0 0 -18.380582320049914 0 0 1 1 0 0 forward_v I I I I #
coedge $-1 $205 $206 $207 $208 forward $81 $-1 #
face $-1 $209 $210 $49 $-1 $211 reversed single #
loop $-1 $-1 $212 $83 #
plane-surface $-1 0 -14.786981794277436 15.44912429379335 0 -1 0 0 0 -1 forward_v I I I I #
coedge $-1 $213 $214 $215 $216 reversed $84 $-1 #
face $-1 $217 $218 $50 $-1 $219 forward single #
loop $-1 $-1 $220 $86 #
plane-surface $-1 0 14.786981794277438 15.44912429379335 0 1 0 0 0 1 forward_v I I I I #
coedge $-1 $221 $222 $223 $224 reversed $87 $-1 #
face $-1 $225 $226 $51 $-1 $227 reversed single #
loop $-1 $-1 $228 $89 #
plane-surface $-1 -6.0350618156762579 -9.8785630364460744 113.72323649237025 0.83867057594974714 0 0.54463902268945019 0.54463902268945019 0 -0.83867057594974714 forward_v I I I I #
coedge $-1 $229 $230 $231 $232 reversed $90 $-1 #
face $-1 $-1 $233 $52 $-1 $234 forward single #
loop $-1 $235 $236 $92 #
cone-surface $-1 60.796334730368883 -11.162015903525173 8.7463188442967628 -0.83867057594974714 0 -0.54463902268945019 0.068079877836181274 0 -0.10483382199371839 1 I I -0.70710678118654746 0.70710678118654746 0.125 forward I I I I #
loop $-1 $-1 $237 $68 #
coedge $-1 $148 $148 $238 $239 reversed $93 $-1 #
face $-1 $-1 $240 $53 $-1 $241 forward single #
loop $-1 $242 $243 $95 #
cone-surface $-1 60.796334730368883 -8.5951101693669791 8.7463188442967628 -0.83867057594974714 0 -0.54463902268945019 0.068079877836181274 0 -0.10483382199371839 1 I I -0.70710678118654746 0.70710678118654746 0.125 forward I I I I #
loop $-1 $-1 $244 $69 #
coedge $-1 $153 $153 $245 $246 reversed $96 $-1 #
face $-1 $247 $248 $54 $-1 $249 reversed single #
loop $-1 $-1 $250 $98 #
plane-surface $-1 -6.0350618156762579 0 113.72323649237025 0.83867057594974714 0 0.54463902268945019 0.54463902268945019 0 -0.83867057594974714 forward_v I I I I #
coedge $-1 $251 $252 $253 $254 reversed $99 $-1 #
face $-1 $-1 $255 $55 $-1 $256 forward single #
loop $-1 $257 $258 $101 #
cone-surface $-1 60.796334730368883 -1.2834528670790917 8.7463188442967628 -0.83867057594974714 0 -0.54463902268945019 0.068079877836181274 0 -0.10483382199371839 1 I I -0.70710678118654746 0.70710678118654746 0.125 forward I I I I #
loop $-1 $-1 $259 $71 #
coedge $-1 $162 $162 $260 $261 reversed $102 $-1 #
face $-1 $-1 $262 $56 $-1 $263 forward single #
loop $-1 $264 $265 $104 #
cone-surface $-1 60.796334730368883 1.2834528670790988 8.7463188442967628 -0.83867057594974714 0 -0.54463902268945019 0.068079877836181274 0 -0.10483382199371839 1 I I -0.70710678118654746 0.70710678118654746 0.125 forward I I I I #
loop $-1 $-1 $266 $72 #
coedge $-1 $167 $167 $267 $268 reversed $105 $-1 #
face $-1 $269 $270 $57 $-1 $271 reversed single #
loop $-1 $-1 $272 $107 #
plane-surface $-1 -6.0350618156762579 9.8785630364460815 113.72323649237025 0.83867057594974714 0 0.54463902268945019 0.54463902268945019 0 -0.83867057594974714 forward_v I I I I #
coedge $-1 $273 $274 $275 $276 reversed $108 $-1 #
face $-1 $-1 $277 $58 $-1 $278 forward single #
loop $-1 $279 $280 $110 #
cone-surface $-1 60.796334730368883 8.5951101693669898 8.7463188442967628 -0.83867057594974714 0 -0.54463902268945019 0.068079877836181274 0 -0.10483382199371839 1 I I -0.70710678118654746 0.70710678118654746 0.125 forward I I I I #
loop $-1 $-1 $281 $74 #
coedge $-1 $176 $176 $282 $283 reversed $111 $-1 #
face $-1 $-1 $284 $59 $-1 $285 forward single #
loop $-1 $286 $287 $113 #
cone-surface $-1 60.796334730368883 11.162015903525173 8.7463188442967628 -0.83867057594974714 0 -0.54463902268945019 0.068079877836181274 0 -0.10483382199371839 1 I I -0.70710678118654746 0.70710678118654746 0.125 forward I I I I #
loop $-1 $-1 $288 $75 #
coedge $-1 $181 $181 $289 $290 reversed $114 $-1 #
face $-1 $291 $292 $60 $-1 $293 reversed single #
loop $-1 $-1 $294 $116 #
plane-surface $-1 -67.598498489333764 6.3933167270198581 8.1233056926414946 -0.62932039886446345 0 0.77714595512881146 0.77714595512881146 0 0.62932039886446345 forward_v I I I I #
coedge $-1 $295 $296 $297 $298 reversed $117 $-1 #
face $-1 $-1 $299 $61 $-1 $300 forward single #
loop $-1 $301 $302 $119 #
cone-surface $-1 -60.478507250479062 4.4135277010197527 12.280511562434686 0.62932039886446345 0 -0.77714595512881146 0.19428648878220287 0 0.15733009971611586 1 I I -0.70710678118654746 0.70710678118654746 0.25 forward I I I I #
loop $-1 $-1 $303 $77 #
coedge $-1 $190 $190 $304 $305 reversed $120 $-1 #
face $-1 $-1 $306 $62 $-1 $307 forward single #
loop $-1 $308 $309 $122 #
cone-surface $-1 -60.478507250479062 6.3933167270198581 12.280511562434686 0.62932039886446345 0 -0.77714595512881146 0.19428648878220287 0 0.15733009971611586 1 I I -0.70710678118654746 0.70710678118654746 0.25 forward I I I I #
loop $-1 $-1 $310 $78 #
coedge $-1 $195 $195 $311 $312 reversed $123 $-1 #
face $-1 $-1 $313 $63 $-1 $314 forward single #
loop $-1 $315 $316 $125 #
cone-surface $-1 -60.478507250479062 8.3731057530199635 12.280511562434686 0.62932039886446345 0 -0.77714595512881146 0.19428648878220287 0 0.15733009971611586 1 I I -0.70710678118654746 0.70710678118654746 0.25 forward I I I I #
loop $-1 $-1 $317 $79 #
coedge $-1 $200 $200 $318 $319 reversed $126 $-1 #
face $-1 $320 $321 $48 $-1 $322 reversed single #
loop $-1 $-1 $323 $128 #
plane-surface $-1 0 -39.021953757609708 0 0 1 0 0 0 1 forward_v I I I I #
coedge $-1 $324 $325 $326 $327 forward $129 $-1 #
coedge $-1 $328 $131 $329 $330 forward $81 $-1 #
coedge $-1 $131 $328 $331 $332 forward $81 $-1 #
coedge $-1 $333 $334 $131 $208 reversed $335 $-1 #
edge $-1 $336 -39.021953757609708 $337 39.021953757609708 $207 $338 forward 7 unknown #
face $-1 $339 $340 $49 $-1 $341 reversed single #
loop $-1 $-1 $342 $132 #
plane-surface $-1 -67.598498489333778 0 0 1 0 0 0 0 -1 forward_v I I I I #
coedge $-1 $343 $344 $345 $346 reversed $133 $-1 #
coedge $-1 $347 $135 $348 $349 reversed $84 $-1 #
coedge $-1 $135 $347 $343 $350 forward $84 $-1 #
coedge $-1 $345 $351 $135 $216 forward $352 $-1 #
edge $-1 $353 -25.569719869637922 $354 -1.3347479063056493 $215 $355 forward 7 unknown #
face $-1 $356 $357 $50 $-1 $358 reversed single #
loop $-1 $-1 $359 $136 #
plane-surface $-1 0 0 18.380582320049914 0 0 1 1 0 0 forward_v I I I I #
coedge $-1 $360 $361 $362 $363 reversed $137 $-1 #
coedge $-1 $364 $139 $360 $365 forward $87 $-1 #
coedge $-1 $139 $364 $366 $367 reversed $87 $-1 #
coedge $-1 $368 $369 $139 $224 forward $357 $-1 #
edge $-1 $370 1.3347479063056511 $371 25.569719869637922 $223 $372 forward 7 unknown #
face $-1 $373 $374 $51 $-1 $375 forward single #
loop $-1 $-1 $376 $140 #
plane-surface $-1 107.35068150709908 -12.873286392963969 187.3567967973803 0 1 0 0.83867057594974714 0 0.54463902268945019 forward_v I I I I #
coedge $-1 $377 $378 $379 $380 reversed $141 $-1 #
coedge $-1 $230 $143 $381 $382 reversed $90 $-1 #
coedge $-1 $143 $229 $377 $383 reversed $90 $-1 #
coedge $-1 $379 $384 $143 $232 forward $374 $-1 #
edge $-1 $385 -13.923157735784237 $386 -2.2058390137413895 $231 $387 forward 7 unknown #
loop $-1 $-1 $238 $144 #
plane-surface $-1 -6.0350618156762579 -9.8785630364460744 113.72323649237025 0.83867057594974714 0 0.54463902268945019 0.54463902268945019 0 -0.83867057594974714 forward_v I I I I #
loop $-1 $-1 $388 $92 #
coedge $-1 $236 $236 $237 $389 reversed $145 $-1 #
coedge $-1 $237 $237 $236 $389 forward $147 $-1 #
coedge $-1 $238 $238 $148 $239 forward $233 $-1 #
edge $-1 $390 0 $390 6.2831853071796004 $238 $391 forward 7 unknown #
loop $-1 $-1 $245 $149 #
plane-surface $-1 -6.0350618156762579 -9.8785630364460744 113.72323649237025 0.83867057594974714 0 0.54463902268945019 0.54463902268945019 0 -0.83867057594974714 forward_v I I I I #
loop $-1 $-1 $392 $95 #
coedge $-1 $243 $243 $244 $393 reversed $150 $-1 #
coedge $-1 $244 $244 $243 $393 forward $152 $-1 #
coedge $-1 $245 $245 $153 $246 forward $240 $-1 #
edge $-1 $394 0 $394 6.2831853071796004 $245 $395 forward 7 unknown #
face $-1 $396 $397 $54 $-1 $398 reversed single #
loop $-1 $-1 $399 $154 #
plane-surface $-1 107.35068150709908 -2.9947233565178948 187.3567967973803 0 1 0 0.83867057594974714 0 0.54463902268945019 forward_v I I I I #
coedge $-1 $400 $401 $402 $403 reversed $155 $-1 #
coedge $-1 $252 $157 $404 $405 reversed $99 $-1 #
coedge $-1 $157 $251 $400 $406 reversed $99 $-1 #
coedge $-1 $402 $407 $157 $254 forward $408 $-1 #
edge $-1 $409 -13.923157735784237 $410 -2.2058390137413895 $253 $411 forward 7 unknown #
loop $-1 $-1 $260 $158 #
plane-surface $-1 -6.0350618156762579 0 113.72323649237025 0.83867057594974714 0 0.54463902268945019 0.54463902268945019 0 -0.83867057594974714 forward_v I I I I #
loop $-1 $-1 $412 $101 #
coedge $-1 $258 $258 $259 $413 reversed $159 $-1 #
coedge $-1 $259 $259 $258 $413 forward $161 $-1 #
coedge $-1 $260 $260 $162 $261 forward $255 $-1 #
edge $-1 $414 0 $414 6.2831853071796004 $260 $415 forward 7 unknown #
loop $-1 $-1 $267 $163 #
plane-surface $-1 -6.0350618156762579 0 113.72323649237025 0.83867057594974714 0 0.54463902268945019 0.54463902268945019 0 -0.83867057594974714 forward_v I I I I #
loop $-1 $-1 $416 $104 #
coedge $-1 $265 $265 $266 $417 reversed $164 $-1 #
coedge $-1 $266 $266 $265 $417 forward $166 $-1 #
coedge $-1 $267 $267 $167 $268 forward $262 $-1 #
edge $-1 $418 0 $418 6.2831853071796004 $267 $419 forward 7 unknown #
face $-1 $420 $421 $57 $-1 $422 reversed single #
loop $-1 $-1 $423 $168 #
plane-surface $-1 107.35068150709908 6.8838396799281867 187.3567967973803 0 1 0 0.83867057594974714 0 0.54463902268945019 forward_v I I I I #
coedge $-1 $424 $425 $426 $427 reversed $169 $-1 #
coedge $-1 $274 $171 $428 $429 reversed $108 $-1 #
coedge $-1 $171 $273 $424 $430 reversed $108 $-1 #
coedge $-1 $426 $431 $171 $276 forward $432 $-1 #
edge $-1 $433 -13.923157735784237 $434 -2.2058390137413895 $275 $435 forward 7 unknown #
loop $-1 $-1 $282 $172 #
plane-surface $-1 -6.0350618156762579 9.8785630364460815 113.72323649237025 0.83867057594974714 0 0.54463902268945019 0.54463902268945019 0 -0.83867057594974714 forward_v I I I I #
loop $-1 $-1 $436 $110 #
coedge $-1 $280 $280 $281 $437 reversed $173 $-1 #
coedge $-1 $281 $281 $280 $437 forward $175 $-1 #
coedge $-1 $282 $282 $176 $283 forward $277 $-1 #
edge $-1 $438 0 $438 6.2831853071796004 $282 $439 forward 7 unknown #
loop $-1 $-1 $289 $177 #
plane-surface $-1 -6.0350618156762579 9.8785630364460815 113.72323649237025 0.83867057594974714 0 0.54463902268945019 0.54463902268945019 0 -0.83867057594974714 forward_v I I I I #
loop $-1 $-1 $440 $113 #
coedge $-1 $287 $287 $288 $441 reversed $178 $-1 #
coedge $-1 $288 $288 $287 $441 forward $180 $-1 #
coedge $-1 $289 $289 $181 $290 forward $284 $-1 #
edge $-1 $442 0 $442 6.2831853071796004 $289 $443 forward 7 unknown #
face $-1 $444 $445 $60 $-1 $446 reversed single #
loop $-1 $-1 $447 $182 #
plane-surface $-1 -152.68072655322649 9.6929651036867028 113.19110504017513 0 -1 0 0.62932039886446345 0 -0.77714595512881146 forward_v I I I I #
coedge $-1 $448 $449 $450 $451 reversed $183 $-1 #
coedge $-1 $296 $185 $452 $453 reversed $117 $-1 #
coedge $-1 $185 $295 $448 $454 reversed $117 $-1 #
coedge $-1 $450 $455 $185 $298 forward $456 $-1 #
edge $-1 $457 8.7418647872794679 $458 21.408546267827752 $297 $459 forward 7 unknown #
loop $-1 $-1 $304 $186 #
plane-surface $-1 -67.598498489333764 6.3933167270198581 8.1233056926414946 -0.62932039886446345 0 0.77714595512881146 0.77714595512881146 0 0.62932039886446345 forward_v I I I I #
loop $-1 $-1 $460 $119 #
coedge $-1 $302 $302 $303 $461 reversed $187 $-1 #
coedge $-1 $303 $303 $302 $461 forward $189 $-1 #
coedge $-1 $304 $304 $190 $305 forward $299 $-1 #
edge $-1 $462 0 $462 6.2831853071796004 $304 $463 forward 7 unknown #
loop $-1 $-1 $311 $191 #
plane-surface $-1 -67.598498489333764 6.3933167270198581 8.1233056926414946 -0.62932039886446345 0 0.77714595512881146 0.77714595512881146 0 0.62932039886446345 forward_v I I I I #
loop $-1 $-1 $464 $122 #
coedge $-1 $309 $309 $310 $465 reversed $192 $-1 #
coedge $-1 $310 $310 $309 $465 forward $194 $-1 #
coedge $-1 $311 $311 $195 $312 forward $306 $-1 #
edge $-1 $466 0 $466 6.2831853071796004 $311 $467 forward 7 unknown #
loop $-1 $-1 $318 $196 #
plane-surface $-1 -67.598498489333764 6.3933167270198581 8.1233056926414946 -0.62932039886446345 0 0.77714595512881146 0.77714595512881146 0 0.62932039886446345 forward_v I I I I #
loop $-1 $-1 $468 $125 #
coedge $-1 $316 $316 $317 $469 reversed $197 $-1 #
coedge $-1 $317 $317 $316 $469 forward $199 $-1 #
coedge $-1 $318 $318 $200 $319 forward $313 $-1 #
edge $-1 $470 0 $470 6.2831853071796004 $318 $471 forward 7 unknown #
face $-1 $472 $473 $48 $-1 $474 reversed single #
loop $-1 $-1 $475 $201 #
plane-surface $-1 -67.598498489333778 0 0 1 0 0 0 0 -1 forward_v I I I I #
coedge $-1 $476 $331 $477 $478 forward $202 $-1 #
coedge $-1 $479 $204 $476 $480 forward $129 $-1 #
coedge $-1 $204 $479 $481 $482 forward $129 $-1 #
coedge $-1 $334 $333 $204 $327 reversed $335 $-1 #
edge $-1 $483 -39.021953757609708 $484 39.021953757609708 $326 $485 forward 7 unknown #
coedge $-1 $206 $205 $486 $487 forward $81 $-1 #
coedge $-1 $488 $489 $205 $330 reversed $473 $-1 #
edge $-1 $337 -67.598498489333778 $490 67.598498489333778 $329 $491 forward 7 unknown #
coedge $-1 $323 $492 $206 $332 reversed $202 $-1 #
edge $-1 $493 -67.598498489333778 $336 67.598498489333778 $331 $494 forward 7 unknown #
coedge $-1 $326 $207 $492 $495 forward $335 $-1 #
coedge $-1 $207 $326 $488 $496 reversed $335 $-1 #
loop $-1 $-1 $333 $472 #
vertex $-1 $208 $497 #
vertex $-1 $208 $498 #
straight-curve $-1 67.598498489333778 0 18.380582320049914 0 1 0 I I #
face $-1 $499 $500 $49 $-1 $501 forward single #
loop $-1 $-1 $348 $209 #
plane-surface $-1 0 -39.021953757609708 0 0 1 0 0 0 1 forward_v I I I I #
coedge $-1 $502 $503 $504 $505 forward $210 $-1 #
coedge $-1 $504 $212 $214 $350 reversed $133 $-1 #
coedge $-1 $212 $504 $506 $507 reversed $133 $-1 #
coedge $-1 $508 $215 $212 $346 forward $352 $-1 #
edge $-1 $354 4.7931041206401108 $509 10.656020173153239 $345 $510 forward 7 unknown #
coedge $-1 $214 $213 $502 $511 reversed $84 $-1 #
coedge $-1 $512 $513 $213 $349 forward $340 $-1 #
edge $-1 $514 -67.598498489333778 $353 67.598498489333778 $348 $515 forward 7 unknown #
edge $-1 $516 -67.598498489333778 $354 67.598498489333778 $343 $517 forward 7 unknown #
coedge $-1 $215 $508 $512 $518 forward $352 $-1 #
loop $-1 $-1 $345 $499 #
vertex $-1 $349 $519 #
vertex $-1 $216 $520 #
straight-curve $-1 67.598498489333778 -13.452233887971786 12.517666267536786 0 1 0 I I #
face $-1 $521 $522 $50 $-1 $523 reversed single #
loop $-1 $-1 $369 $217 #
plane-surface $-1 67.598498489333778 0 0 -1 0 0 0 0 1 forward_v I I I I #
coedge $-1 $524 $525 $361 $526 forward $218 $-1 #
coedge $-1 $527 $220 $221 $365 reversed $137 $-1 #
coedge $-1 $220 $527 $359 $526 reversed $137 $-1 #
coedge $-1 $528 $529 $220 $363 forward $522 $-1 #
edge $-1 $530 4.7931041206401108 $531 10.656020173153239 $362 $532 forward 7 unknown #
coedge $-1 $222 $221 $529 $533 reversed $87 $-1 #
edge $-1 $370 -67.598498489333778 $530 67.598498489333778 $360 $534 forward 7 unknown #
coedge $-1 $535 $536 $222 $367 forward $537 $-1 #
edge $-1 $371 -67.598498489333778 $538 67.598498489333778 $366 $539 forward 7 unknown #
coedge $-1 $540 $223 $536 $541 reversed $357 $-1 #
coedge $-1 $223 $540 $527 $542 forward $357 $-1 #
vertex $-1 $224 $543 #
vertex $-1 $367 $544 #
straight-curve $-1 67.598498489333778 13.452233887971786 12.517666267536786 0 1 0 I I #
face $-1 $-1 $545 $51 $-1 $546 reversed single #
loop $-1 $-1 $231 $225 #
plane-surface $-1 0 0 18.380582320049914 0 0 1 1 0 0 forward_v I I I I #
coedge $-1 $547 $548 $549 $550 reversed $226 $-1 #
coedge $-1 $551 $228 $230 $383 forward $141 $-1 #
coedge $-1 $228 $551 $547 $552 forward $141 $-1 #
coedge $-1 $549 $231 $228 $380 forward $374 $-1 #
edge $-1 $386 1.9445581617051424 $553 7.934004874740932 $379 $554 forward 7 unknown #
coedge $-1 $555 $556 $229 $382 forward $545 $-1 #
edge $-1 $557 -93.340905229095227 $385 -75.297816078640238 $381 $558 forward 7 unknown #
edge $-1 $386 113.6830799916286 $557 135.19699697866753 $230 $559 forward 7 unknown #
coedge $-1 $231 $549 $555 $560 forward $374 $-1 #
vertex $-1 $382 $561 #
vertex $-1 $232 $562 #
straight-curve $-1 53.675340753549541 -6.8838396799281796 18.380582320049911 -1 0 0 I I #
coedge $-1 $388 $388 $-1 $563 reversed $235 $-1 #
edge $-1 $564 0 $564 6.2831853071796004 $236 $565 forward 7 unknown #
vertex $-1 $239 $566 #
ellipse-curve $-1 61.739839128312362 -11.162015903525173 9.3590377448224018 0.83867057594974714 0 0.54463902268945019 0.13615975567236255 0 -0.20966764398743679 1 I I #
coedge $-1 $392 $392 $-1 $567 reversed $242 $-1 #
edge $-1 $568 0 $568 6.2831853071796004 $243 $569 forward 7 unknown #
vertex $-1 $246 $570 #
ellipse-curve $-1 61.739839128312362 -8.5951101693669791 9.3590377448224018 0.83867057594974714 0 0.54463902268945019 0.13615975567236255 0 -0.20966764398743679 1 I I #
face $-1 $-1 $408 $54 $-1 $571 forward single #
loop $-1 $-1 $572 $247 #
plane-surface $-1 67.598498489333778 0 0 -1 0 0 0 0 1 forward_v I I I I #
coedge $-1 $573 $574 $575 $576 reversed $248 $-1 #
coedge $-1 $577 $250 $252 $406 forward $155 $-1 #
coedge $-1 $250 $577 $573 $578 forward $155 $-1 #
coedge $-1 $575 $253 $250 $403 forward $408 $-1 #
edge $-1 $410 -2.9947233565178948 $579 2.9947233565178948 $402 $580 forward 7 unknown #
coedge $-1 $581 $582 $251 $405 forward $397 $-1 #
edge $-1 $583 -93.340905229095227 $409 -75.297816078640238 $404 $584 forward 7 unknown #
edge $-1 $410 113.6830799916286 $583 135.19699697866753 $252 $585 forward 7 unknown #
coedge $-1 $253 $575 $581 $586 forward $408 $-1 #
loop $-1 $-1 $575 $396 #
vertex $-1 $405 $587 #
vertex $-1 $254 $588 #
straight-curve $-1 53.675340753549541 2.9947233565178948 18.380582320049911 -1 0 0 I I #
coedge $-1 $412 $412 $-1 $589 reversed $257 $-1 #
edge $-1 $590 0 $590 6.2831853071796004 $258 $591 forward 7 unknown #
vertex $-1 $261 $592 #
ellipse-curve $-1 61.739839128312362 -1.2834528670790917 9.3590377448224018 0.83867057594974714 0 0.54463902268945019 0.13615975567236255 0 -0.20966764398743679 1 I I #
coedge $-1 $416 $416 $-1 $593 reversed $264 $-1 #
edge $-1 $594 0 $594 6.2831853071796004 $265 $595 forward 7 unknown #
vertex $-1 $268 $596 #
ellipse-curve $-1 61.739839128312362 1.2834528670790988 9.3590377448224018 0.83867057594974714 0 0.54463902268945019 0.13615975567236255 0 -0.20966764398743679 1 I I #
face $-1 $-1 $432 $57 $-1 $597 forward single #
loop $-1 $-1 $598 $269 #
plane-surface $-1 67.598498489333778 0 0 -1 0 0 0 0 1 forward_v I I I I #
coedge $-1 $599 $600 $601 $602 reversed $270 $-1 #
coedge $-1 $603 $272 $274 $430 forward $169 $-1 #
coedge $-1 $272 $603 $599 $604 forward $169 $-1 #
coedge $-1 $601 $275 $272 $427 forward $432 $-1 #
edge $-1 $434 -7.9340048747409355 $605 -1.9445581617051459 $426 $606 forward 7 unknown #
coedge $-1 $607 $608 $273 $429 forward $421 $-1 #
edge $-1 $609 -93.340905229095227 $433 -75.297816078640238 $428 $610 forward 7 unknown #
edge $-1 $434 113.6830799916286 $609 135.19699697866753 $274 $611 forward 7 unknown #
coedge $-1 $275 $601 $607 $612 forward $432 $-1 #
loop $-1 $-1 $601 $420 #
vertex $-1 $429 $613 #
vertex $-1 $276 $614 #
straight-curve $-1 53.675340753549541 12.873286392963976 18.380582320049911 -1 0 0 I I #
coedge $-1 $436 $436 $-1 $615 reversed $279 $-1 #
edge $-1 $616 0 $616 6.2831853071796004 $280 $617 forward 7 unknown #
vertex $-1 $283 $618 #
ellipse-curve $-1 61.739839128312362 8.5951101693669898 9.3590377448224018 0.83867057594974714 0 0.54463902268945019 0.13615975567236255 0 -0.20966764398743679 1 I I #
coedge $-1 $440 $440 $-1 $619 reversed $286 $-1 #
edge $-1 $620 0 $620 6.2831853071796004 $287 $621 forward 7 unknown #
vertex $-1 $290 $622 #
ellipse-curve $-1 61.739839128312362 11.162015903525173 9.3590377448224018 0.83867057594974714 0 0.54463902268945019 0.13615975567236255 0 -0.20966764398743679 1 I I #
face $-1 $-1 $456 $60 $-1 $623 forward single #
loop $-1 $-1 $624 $291 #
plane-surface $-1 -67.598498489333778 0 0 1 0 0 0 0 -1 forward_v I I I I #
coedge $-1 $625 $626 $627 $628 reversed $292 $-1 #
coedge $-1 $629 $294 $296 $454 forward $183 $-1 #
coedge $-1 $294 $629 $625 $630 forward $183 $-1 #
coedge $-1 $627 $297 $294 $451 forward $456 $-1 #
edge $-1 $458 -0.10299001315691569 $631 6.4963067401767738 $450 $632 forward 7 unknown #
coedge $-1 $633 $634 $295 $453 forward $445 $-1 #
edge $-1 $635 -48.472246827446085 $457 -38.214970200037655 $452 $636 forward 7 unknown #
edge $-1 $458 -16.298973695936915 $635 1.7751293829024333e-014 $296 $637 forward 7 unknown #
coedge $-1 $297 $627 $633 $638 forward $456 $-1 #
loop $-1 $-1 $627 $444 #
vertex $-1 $453 $639 #
vertex $-1 $298 $640 #
straight-curve $-1 -76.340363276613246 3.0936683503530134 18.380582320049911 1 0 0 I I #
coedge $-1 $460 $460 $-1 $641 reversed $301 $-1 #
edge $-1 $642 0 $642 6.2831853071796004 $302 $643 forward 7 unknown #
vertex $-1 $305 $644 #
ellipse-curve $-1 -61.26515774905964 4.4135277010197527 13.251944006345697 -0.62932039886446345 0 0.77714595512881146 0.38857297756440573 0 0.31466019943223172 1 I I #
coedge $-1 $464 $464 $-1 $645 reversed $308 $-1 #
edge $-1 $646 0 $646 6.2831853071796004 $309 $647 forward 7 unknown #
vertex $-1 $312 $648 #
ellipse-curve $-1 -61.26515774905964 6.3933167270198581 13.251944006345697 -0.62932039886446345 0 0.77714595512881146 0.38857297756440573 0 0.31466019943223172 1 I I #
coedge $-1 $468 $468 $-1 $649 reversed $315 $-1 #
edge $-1 $650 0 $650 6.2831853071796004 $316 $651 forward 7 unknown #
vertex $-1 $319 $652 #
ellipse-curve $-1 -61.26515774905964 8.3731057530199635 13.251944006345697 -0.62932039886446345 0 0.77714595512881146 0.38857297756440573 0 0.31466019943223172 1 I I #
face $-1 $-1 $335 $48 $-1 $653 reversed single #
loop $-1 $-1 $488 $320 #
plane-surface $-1 0 39.021953757609708 0 0 -1 0 0 0 -1 forward_v I I I I #
coedge $-1 $654 $486 $489 $655 forward $321 $-1 #
coedge $-1 $492 $323 $324 $480 reversed $202 $-1 #
coedge $-1 $486 $654 $323 $478 reversed $321 $-1 #
edge $-1 $493 -18.380582320049914 $656 18.380582320049914 $477 $657 forward 7 unknown #
coedge $-1 $325 $324 $654 $658 forward $129 $-1 #
edge $-1 $484 -67.598498489333778 $656 67.598498489333778 $476 $659 forward 7 unknown #
coedge $-1 $489 $488 $325 $482 reversed $473 $-1 #
edge $-1 $660 -67.598498489333778 $483 67.598498489333778 $481 $661 forward 7 unknown #
vertex $-1 $327 $662 #
vertex $-1 $495 $663 #
straight-curve $-1 67.598498489333778 0 -18.380582320049914 0 -1 0 I I #
coedge $-1 $475 $477 $328 $487 reversed $321 $-1 #
edge $-1 $490 -39.021953757609708 $493 39.021953757609708 $486 $664 forward 7 unknown #
coedge $-1 $481 $329 $334 $496 forward $473 $-1 #
coedge $-1 $329 $481 $475 $655 reversed $473 $-1 #
vertex $-1 $330 $665 #
straight-curve $-1 0 39.021953757609708 18.380582320049914 -1 0 0 I I #
coedge $-1 $331 $476 $333 $495 reversed $202 $-1 #
vertex $-1 $487 $666 #
straight-curve $-1 0 -39.021953757609708 18.380582320049914 1 0 0 I I #
edge $-1 $336 -18.380582320049914 $484 18.380582320049914 $333 $667 forward 7 unknown #
edge $-1 $337 -18.380582320049914 $483 18.380582320049914 $334 $668 forward 7 unknown #
point $-1 67.598498489333778 -39.021953757609708 18.380582320049914 #
point $-1 67.598498489333778 39.021953757609708 18.380582320049914 #
face $-1 $-1 $352 $49 $-1 $669 reversed single #
loop $-1 $-1 $506 $339 #
plane-surface $-1 0 0 18.380582320049914 0 0 1 1 0 0 forward_v I I I I #
coedge $-1 $670 $342 $347 $511 forward $210 $-1 #
coedge $-1 $342 $670 $671 $672 reversed $210 $-1 #
coedge $-1 $344 $343 $342 $505 reversed $133 $-1 #
edge $-1 $673 -10.656020173153239 $516 -4.7931041206401108 $342 $674 forward 7 unknown #
coedge $-1 $671 $675 $344 $507 forward $500 $-1 #
edge $-1 $509 -67.598498489333778 $673 67.598498489333778 $506 $676 forward 7 unknown #
coedge $-1 $351 $345 $675 $677 reversed $352 $-1 #
vertex $-1 $346 $678 #
straight-curve $-1 67.598498489333778 -14.786981794277436 7.724562146896675 0 0 1 I I #
edge $-1 $516 1.3347479063056493 $514 25.569719869637922 $502 $679 forward 7 unknown #
coedge $-1 $680 $348 $351 $518 reversed $340 $-1 #
coedge $-1 $348 $680 $670 $681 forward $340 $-1 #
vertex $-1 $349 $682 #
straight-curve $-1 0 -39.021953757609708 12.517666267536786 1 0 0 I I #
vertex $-1 $511 $683 #
straight-curve $-1 0 -14.786981794277436 12.517666267536786 1 0 0 I I #
edge $-1 $684 -18.380582320049914 $353 -12.517666267536786 $351 $685 forward 7 unknown #
point $-1 67.598498489333778 -39.021953757609708 12.517666267536786 #
point $-1 67.598498489333778 -14.786981794277436 12.517666267536786 #
face $-1 $-1 $537 $50 $-1 $686 reversed single #
loop $-1 $-1 $362 $356 #
plane-surface $-1 -67.598498489333778 0 0 1 0 0 0 0 -1 forward_v I I I I #
coedge $-1 $687 $359 $540 $688 forward $218 $-1 #
coedge $-1 $359 $687 $528 $689 forward $218 $-1 #
edge $-1 $531 -67.598498489333778 $690 67.598498489333778 $359 $691 forward 7 unknown #
coedge $-1 $361 $360 $369 $542 reversed $137 $-1 #
coedge $-1 $692 $362 $525 $689 reversed $522 $-1 #
coedge $-1 $362 $692 $364 $533 forward $522 $-1 #
vertex $-1 $533 $693 #
vertex $-1 $363 $694 #
straight-curve $-1 -67.598498489333778 14.786981794277438 7.724562146896675 0 0 1 I I #
edge $-1 $538 -25.569719869637922 $530 -1.3347479063056511 $529 $695 forward 7 unknown #
straight-curve $-1 0 14.786981794277438 12.517666267536786 -1 0 0 I I #
coedge $-1 $696 $366 $692 $697 reversed $537 $-1 #
coedge $-1 $366 $696 $368 $541 forward $537 $-1 #
loop $-1 $-1 $366 $521 #
vertex $-1 $367 $698 #
straight-curve $-1 0 39.021953757609708 12.517666267536786 -1 0 0 I I #
coedge $-1 $369 $368 $524 $688 reversed $357 $-1 #
edge $-1 $699 -18.380582320049914 $371 -12.517666267536786 $368 $700 forward 7 unknown #
edge $-1 $690 -10.656020173153239 $370 -4.7931041206401108 $369 $701 forward 7 unknown #
point $-1 67.598498489333778 14.786981794277438 12.517666267536786 #
point $-1 67.598498489333778 39.021953757609708 12.517666267536786 #
loop $-1 $-1 $381 $373 #
plane-surface $-1 67.598498489333778 0 0 -1 0 0 0 0 1 forward_v I I I I #
coedge $-1 $548 $376 $378 $552 reversed $226 $-1 #
coedge $-1 $376 $547 $702 $703 reversed $226 $-1 #
coedge $-1 $384 $379 $376 $550 forward $374 $-1 #
edge $-1 $553 2.2058390137413895 $704 13.923157735784237 $549 $705 forward 7 unknown #
coedge $-1 $378 $377 $556 $706 reversed $141 $-1 #
edge $-1 $707 -135.19699697866753 $553 -113.6830799916286 $547 $708 forward 7 unknown #
vertex $-1 $380 $709 #
straight-curve $-1 55.881179767290938 -4.9392815182230372 18.380582320049911 0 -1 0 I I #
coedge $-1 $702 $381 $384 $560 reversed $545 $-1 #
coedge $-1 $381 $702 $551 $706 forward $545 $-1 #
vertex $-1 $382 $710 #
straight-curve $-1 67.598498489333778 -6.8838396799281796 93.678398398690149 0 0 1 I I #
straight-curve $-1 -6.0350618156762579 -6.8838396799281796 113.72323649237025 0.54463902268945019 0 -0.83867057594974714 I I #
edge $-1 $704 -12.873286392963969 $385 -6.8838396799281796 $555 $711 forward 7 unknown #
point $-1 67.598498489333778 -6.8838396799281796 18.380582320049914 #
point $-1 55.881179767290931 -6.8838396799281796 18.380582320049911 #
edge $-1 $712 1 $712 0 $388 $-1 forward 7 unknown #
vertex $-1 $389 $713 #
ellipse-curve $-1 60.901168552362599 -11.162015903525173 8.8143987221329443 0.83867057594974714 0 0.54463902268945019 0.13615975567236255 0 -0.20966764398743679 1 I I #
point $-1 61.875998883984714 -11.162015903525173 9.1493701008349575 #
edge $-1 $714 1 $714 0 $392 $-1 forward 7 unknown #
vertex $-1 $393 $715 #
ellipse-curve $-1 60.901168552362599 -8.5951101693669791 8.8143987221329443 0.83867057594974714 0 0.54463902268945019 0.13615975567236255 0 -0.20966764398743679 1 I I #
point $-1 61.875998883984714 -8.5951101693669791 9.1493701008349575 #
plane-surface $-1 0 0 18.380582320049914 0 0 1 1 0 0 forward_v I I I I #
coedge $-1 $582 $581 $574 $716 forward $397 $-1 #
coedge $-1 $574 $399 $401 $578 reversed $248 $-1 #
coedge $-1 $399 $573 $572 $716 reversed $248 $-1 #
coedge $-1 $407 $402 $399 $576 forward $408 $-1 #
edge $-1 $579 2.2058390137413895 $717 13.923157735784237 $575 $718 forward 7 unknown #
coedge $-1 $401 $400 $582 $719 reversed $155 $-1 #
edge $-1 $720 -135.19699697866753 $579 -113.6830799916286 $573 $721 forward 7 unknown #
vertex $-1 $403 $722 #
straight-curve $-1 55.881179767290938 0 18.380582320049911 0 -1 0 I I #
coedge $-1 $572 $404 $407 $586 reversed $397 $-1 #
coedge $-1 $404 $572 $577 $719 forward $397 $-1 #
vertex $-1 $405 $723 #
straight-curve $-1 67.598498489333778 2.9947233565178948 93.678398398690149 0 0 1 I I #
straight-curve $-1 -6.0350618156762579 2.9947233565178948 113.72323649237025 0.54463902268945019 0 -0.83867057594974714 I I #
edge $-1 $717 -2.9947233565178948 $409 2.9947233565178948 $581 $724 forward 7 unknown #
point $-1 67.598498489333778 2.9947233565178948 18.380582320049914 #
point $-1 55.881179767290931 2.9947233565178948 18.380582320049911 #
edge $-1 $725 1 $725 0 $412 $-1 forward 7 unknown #
vertex $-1 $413 $726 #
ellipse-curve $-1 60.901168552362599 -1.2834528670790917 8.8143987221329443 0.83867057594974714 0 0.54463902268945019 0.13615975567236255 0 -0.20966764398743679 1 I I #
point $-1 61.875998883984714 -1.2834528670790917 9.1493701008349575 #
edge $-1 $727 1 $727 0 $416 $-1 forward 7 unknown #
vertex $-1 $417 $728 #
ellipse-curve $-1 60.901168552362599 1.2834528670790988 8.8143987221329443 0.83867057594974714 0 0.54463902268945019 0.13615975567236255 0 -0.20966764398743679 1 I I #
point $-1 61.875998883984714 1.2834528670790988 9.1493701008349575 #
plane-surface $-1 0 0 18.380582320049914 0 0 1 1 0 0 forward_v I I I I #
coedge $-1 $608 $607 $600 $729 forward $421 $-1 #
coedge $-1 $600 $423 $425 $604 reversed $270 $-1 #
coedge $-1 $423 $599 $598 $729 reversed $270 $-1 #
coedge $-1 $431 $426 $423 $602 forward $432 $-1 #
edge $-1 $605 2.2058390137413895 $730 13.923157735784237 $601 $731 forward 7 unknown #
coedge $-1 $425 $424 $608 $732 reversed $169 $-1 #
edge $-1 $733 -135.19699697866753 $605 -113.6830799916286 $599 $734 forward 7 unknown #
vertex $-1 $427 $735 #
straight-curve $-1 55.881179767290938 4.9392815182230407 18.380582320049911 0 -1 0 I I #
coedge $-1 $598 $428 $431 $612 reversed $421 $-1 #
coedge $-1 $428 $598 $603 $732 forward $421 $-1 #
vertex $-1 $429 $736 #
straight-curve $-1 67.598498489333778 12.873286392963976 93.678398398690149 0 0 1 I I #
straight-curve $-1 -6.0350618156762579 12.873286392963976 113.72323649237025 0.54463902268945019 0 -0.83867057594974714 I I #
edge $-1 $730 6.8838396799281867 $433 12.873286392963976 $607 $737 forward 7 unknown #
point $-1 67.598498489333778 12.873286392963976 18.380582320049914 #
point $-1 55.881179767290931 12.873286392963976 18.380582320049911 #
edge $-1 $738 1 $738 0 $436 $-1 forward 7 unknown #
vertex $-1 $437 $739 #
ellipse-curve $-1 60.901168552362599 8.5951101693669898 8.8143987221329443 0.83867057594974714 0 0.54463902268945019 0.13615975567236255 0 -0.20966764398743679 1 I I #
point $-1 61.875998883984714 8.5951101693669898 9.1493701008349575 #
edge $-1 $740 1 $740 0 $440 $-1 forward 7 unknown #
vertex $-1 $441 $741 #
ellipse-curve $-1 60.901168552362599 11.162015903525173 8.8143987221329443 0.83867057594974714 0 0.54463902268945019 0.13615975567236255 0 -0.20966764398743679 1 I I #
point $-1 61.875998883984714 11.162015903525173 9.1493701008349575 #
plane-surface $-1 0 0 18.380582320049914 0 0 1 1 0 0 forward_v I I I I #
coedge $-1 $634 $633 $626 $742 forward $445 $-1 #
coedge $-1 $626 $447 $449 $630 reversed $292 $-1 #
coedge $-1 $447 $625 $624 $742 reversed $292 $-1 #
coedge $-1 $455 $450 $447 $628 forward $456 $-1 #
edge $-1 $631 -21.408546267827752 $743 -8.7418647872794679 $627 $744 forward 7 unknown #
coedge $-1 $449 $448 $634 $745 reversed $183 $-1 #
edge $-1 $746 -1.7751293829024333e-014 $631 16.298973695936915 $625 $747 forward 7 unknown #
vertex $-1 $451 $748 #
straight-curve $-1 -54.931817008785501 3.196658363509929 18.380582320049914 0 1 0 I I #
coedge $-1 $624 $452 $455 $638 reversed $445 $-1 #
coedge $-1 $452 $624 $629 $745 forward $445 $-1 #
vertex $-1 $453 $749 #
straight-curve $-1 -67.598498489333778 3.0936683503530134 56.595552520087566 0 0 1 I I #
straight-curve $-1 -67.598498489333764 3.0936683503530134 8.1233056926414946 -0.77714595512881146 0 -0.62932039886446345 I I #
edge $-1 $743 -9.6929651036867028 $457 -3.0936683503530134 $633 $750 forward 7 unknown #
point $-1 -67.598498489333778 3.0936683503530134 18.380582320049914 #
point $-1 -54.931817008785494 3.0936683503530134 18.380582320049914 #
edge $-1 $751 1 $751 0 $460 $-1 forward 7 unknown #
vertex $-1 $461 $752 #
ellipse-curve $-1 -60.635837350195175 4.4135277010197527 12.474798051216888 -0.62932039886446345 0 0.77714595512881146 0.38857297756440573 0 0.31466019943223172 1 I I #
point $-1 -60.876584771495239 4.4135277010197527 13.566604205777931 #
edge $-1 $753 1 $753 0 $464 $-1 forward 7 unknown #
vertex $-1 $465 $754 #
ellipse-curve $-1 -60.635837350195175 6.3933167270198581 12.474798051216888 -0.62932039886446345 0 0.77714595512881146 0.38857297756440573 0 0.31466019943223172 1 I I #
point $-1 -60.876584771495239 6.3933167270198581 13.566604205777931 #
edge $-1 $755 1 $755 0 $468 $-1 forward 7 unknown #
vertex $-1 $469 $756 #
ellipse-curve $-1 -60.635837350195175 8.3731057530199635 12.474798051216888 -0.62932039886446345 0 0.77714595512881146 0.38857297756440573 0 0.31466019943223172 1 I I #
point $-1 -60.876584771495239 8.3731057530199635 13.566604205777931 #
plane-surface $-1 67.598498489333778 0 0 -1 0 0 0 0 1 forward_v I I I I #
coedge $-1 $477 $475 $479 $658 reversed $321 $-1 #
edge $-1 $490 -18.380582320049914 $660 18.380582320049914 $489 $757 forward 7 unknown #
vertex $-1 $658 $758 #
straight-curve $-1 -67.598498489333778 -39.021953757609708 0 0 0 -1 I I #
edge $-1 $656 -39.021953757609708 $660 39.021953757609708 $654 $759 forward 7 unknown #
straight-curve $-1 0 -39.021953757609708 -18.380582320049914 -1 0 0 I I #
vertex $-1 $482 $760 #
straight-curve $-1 0 39.021953757609708 -18.380582320049914 1 0 0 I I #
point $-1 67.598498489333778 39.021953757609708 -18.380582320049914 #
point $-1 67.598498489333778 -39.021953757609708 -18.380582320049914 #
straight-curve $-1 -67.598498489333778 0 18.380582320049914 0 -1 0 I I #
point $-1 -67.598498489333778 39.021953757609708 18.380582320049914 #
point $-1 -67.598498489333778 -39.021953757609708 18.380582320049914 #
straight-curve $-1 67.598498489333778 -39.021953757609708 0 0 0 -1 I I #
straight-curve $-1 67.598498489333778 39.021953757609708 0 0 0 -1 I I #
plane-surface $-1 67.598498489333778 0 0 -1 0 0 0 0 1 forward_v I I I I #
coedge $-1 $503 $502 $513 $681 reversed $210 $-1 #
coedge $-1 $761 $506 $503 $672 forward $500 $-1 #
edge $-1 $673 14.786981794277436 $762 39.021953757609708 $503 $763 forward 7 unknown #
vertex $-1 $672 $764 #
straight-curve $-1 -67.598498489333778 -14.786981794277436 7.724562146896675 0 0 -1 I I #
coedge $-1 $506 $761 $508 $677 forward $500 $-1 #
straight-curve $-1 0 -14.786981794277436 18.380582320049914 -1 0 0 I I #
edge $-1 $684 -39.021953757609708 $509 -14.786981794277436 $508 $765 forward 7 unknown #
point $-1 67.598498489333778 -14.786981794277436 18.380582320049914 #
straight-curve $-1 -67.598498489333778 -13.452233887971786 12.517666267536786 0 -1 0 I I #
coedge $-1 $513 $512 $761 $766 reversed $340 $-1 #
edge $-1 $762 -18.380582320049914 $514 -12.517666267536786 $670 $767 forward 7 unknown #
point $-1 -67.598498489333778 -39.021953757609708 12.517666267536786 #
point $-1 -67.598498489333778 -14.786981794277436 12.517666267536786 #
vertex $-1 $677 $768 #
straight-curve $-1 67.598498489333778 -39.021953757609708 0 0 0 -1 I I #
plane-surface $-1 0 39.021953757609708 0 0 -1 0 0 0 -1 forward_v I I I I #
coedge $-1 $525 $524 $696 $769 forward $218 $-1 #
edge $-1 $690 14.786981794277438 $699 39.021953757609708 $540 $770 forward 7 unknown #
edge $-1 $771 -39.021953757609708 $531 -14.786981794277438 $528 $772 forward 7 unknown #
vertex $-1 $688 $773 #
straight-curve $-1 0 14.786981794277438 18.380582320049914 1 0 0 I I #
coedge $-1 $529 $528 $535 $697 forward $522 $-1 #
point $-1 -67.598498489333778 14.786981794277438 12.517666267536786 #
point $-1 -67.598498489333778 14.786981794277438 18.380582320049914 #
straight-curve $-1 -67.598498489333778 13.452233887971786 12.517666267536786 0 -1 0 I I #
coedge $-1 $536 $535 $687 $769 reversed $537 $-1 #
edge $-1 $771 -18.380582320049914 $538 -12.517666267536786 $535 $774 forward 7 unknown #
point $-1 -67.598498489333778 39.021953757609708 12.517666267536786 #
vertex $-1 $688 $775 #
straight-curve $-1 67.598498489333778 39.021953757609708 0 0 0 -1 I I #
straight-curve $-1 67.598498489333778 14.786981794277438 7.724562146896675 0 0 -1 I I #
coedge $-1 $556 $555 $548 $703 forward $545 $-1 #
edge $-1 $704 75.297816078640238 $707 93.340905229095227 $702 $776 forward 7 unknown #
vertex $-1 $560 $777 #
straight-curve $-1 53.675340753549541 -12.873286392963969 18.380582320049911 1 0 0 I I #
edge $-1 $707 -7.934004874740932 $557 -1.9445581617051424 $556 $778 forward 7 unknown #
vertex $-1 $706 $779 #
straight-curve $-1 -6.0350618156762579 -12.873286392963969 113.72323649237025 -0.54463902268945019 0 0.83867057594974714 I I #
point $-1 55.881179767290931 -12.873286392963969 18.380582320049911 #
point $-1 67.598498489333778 -6.8838396799281796 0.33749316959492148 #
straight-curve $-1 67.598498489333778 0 18.380582320049914 0 1 0 I I #
vertex $-1 $563 $780 #
point $-1 61.037328308034965 -11.162015903525173 8.6047310781455071 #
vertex $-1 $567 $781 #
point $-1 61.037328308034965 -8.5951101693669791 8.6047310781455071 #
edge $-1 $717 75.297816078640238 $720 93.340905229095227 $572 $782 forward 7 unknown #
vertex $-1 $586 $783 #
straight-curve $-1 53.675340753549541 -2.9947233565178948 18.380582320049911 1 0 0 I I #
edge $-1 $720 -2.9947233565178948 $583 2.9947233565178948 $582 $784 forward 7 unknown #
vertex $-1 $719 $785 #
straight-curve $-1 -6.0350618156762579 -2.9947233565178948 113.72323649237025 -0.54463902268945019 0 0.83867057594974714 I I #
point $-1 55.881179767290931 -2.9947233565178948 18.380582320049911 #
point $-1 67.598498489333778 2.9947233565178948 0.33749316959492148 #
straight-curve $-1 67.598498489333778 0 18.380582320049914 0 1 0 I I #
vertex $-1 $589 $786 #
point $-1 61.037328308034965 -1.2834528670790917 8.6047310781455071 #
vertex $-1 $593 $787 #
point $-1 61.037328308034965 1.2834528670790988 8.6047310781455071 #
edge $-1 $730 75.297816078640238 $733 93.340905229095227 $598 $788 forward 7 unknown #
vertex $-1 $612 $789 #
straight-curve $-1 53.675340753549541 6.8838396799281867 18.380582320049911 1 0 0 I I #
edge $-1 $733 1.9445581617051459 $609 7.9340048747409355 $608 $790 forward 7 unknown #
vertex $-1 $732 $791 #
straight-curve $-1 -6.0350618156762579 6.8838396799281867 113.72323649237025 -0.54463902268945019 0 0.83867057594974714 I I #
point $-1 55.881179767290931 6.8838396799281867 18.380582320049911 #
point $-1 67.598498489333778 12.873286392963976 0.33749316959492148 #
straight-curve $-1 67.598498489333778 0 18.380582320049914 0 1 0 I I #
vertex $-1 $615 $792 #
point $-1 61.037328308034965 8.5951101693669898 8.6047310781455071 #
vertex $-1 $619 $793 #
point $-1 61.037328308034965 11.162015903525173 8.6047310781455071 #
edge $-1 $743 38.214970200037655 $746 48.472246827446085 $624 $794 forward 7 unknown #
vertex $-1 $638 $795 #
straight-curve $-1 -76.340363276613246 9.6929651036867028 18.380582320049911 -1 0 0 I I #
edge $-1 $746 -6.4963067401767738 $635 0.10299001315691569 $634 $796 forward 7 unknown #
vertex $-1 $745 $797 #
straight-curve $-1 -67.598498489333764 9.6929651036867028 8.1233056926414946 0.77714595512881146 0 0.62932039886446345 I I #
point $-1 -54.931817008785494 9.6929651036867028 18.380582320049914 #
point $-1 -67.598498489333778 3.0936683503530134 8.1233056926414839 #
straight-curve $-1 -67.598498489333778 0 18.380582320049914 0 -1 0 I I #
vertex $-1 $641 $798 #
point $-1 -60.247264372630774 4.4135277010197527 12.789458250649121 #
vertex $-1 $645 $799 #
point $-1 -60.247264372630774 6.3933167270198581 12.789458250649121 #
vertex $-1 $649 $800 #
point $-1 -60.247264372630774 8.3731057530199635 12.789458250649121 #
straight-curve $-1 -67.598498489333778 39.021953757609708 0 0 0 -1 I I #
point $-1 -67.598498489333778 -39.021953757609708 -18.380582320049914 #
straight-curve $-1 -67.598498489333778 0 -18.380582320049914 0 1 0 I I #
point $-1 -67.598498489333778 39.021953757609708 -18.380582320049914 #
coedge $-1 $675 $671 $680 $766 forward $500 $-1 #
vertex $-1 $672 $801 #
straight-curve $-1 -67.598498489333778 0 18.380582320049914 0 -1 0 I I #
point $-1 -67.598498489333778 -14.786981794277436 18.380582320049914 #
straight-curve $-1 67.598498489333778 0 18.380582320049914 0 1 0 I I #
edge $-1 $762 -67.598498489333778 $684 67.598498489333778 $680 $802 forward 7 unknown #
straight-curve $-1 -67.598498489333778 -39.021953757609708 0 0 0 -1 I I #
point $-1 67.598498489333778 -39.021953757609708 18.380582320049914 #
edge $-1 $699 -67.598498489333778 $771 67.598498489333778 $696 $803 forward 7 unknown #
straight-curve $-1 67.598498489333778 0 18.380582320049914 0 1 0 I I #
vertex $-1 $769 $804 #
straight-curve $-1 -67.598498489333778 0 18.380582320049914 0 -1 0 I I #
point $-1 67.598498489333778 14.786981794277438 18.380582320049914 #
straight-curve $-1 -67.598498489333778 39.021953757609708 0 0 0 -1 I I #
point $-1 67.598498489333778 39.021953757609708 18.380582320049914 #
straight-curve $-1 67.598498489333778 -12.873286392963969 93.678398398690149 0 0 -1 I I #
point $-1 67.598498489333778 -12.873286392963969 18.380582320049914 #
straight-curve $-1 67.598498489333778 -4.9392815182230372 0.33749316959492148 0 1 0 I I #
point $-1 67.598498489333778 -12.873286392963969 0.33749316959492148 #
point $-1 60.691500908375168 -11.162015903525173 8.6782389664605812 #
point $-1 60.691500908375168 -8.5951101693669791 8.6782389664605812 #
straight-curve $-1 67.598498489333778 -2.9947233565178948 93.678398398690149 0 0 -1 I I #
point $-1 67.598498489333778 -2.9947233565178948 18.380582320049914 #
straight-curve $-1 67.598498489333778 0 0.33749316959492148 0 1 0 I I #
point $-1 67.598498489333778 -2.9947233565178948 0.33749316959492148 #
point $-1 60.691500908375168 -1.2834528670790917 8.6782389664605812 #
point $-1 60.691500908375168 1.2834528670790988 8.6782389664605812 #
straight-curve $-1 67.598498489333778 6.8838396799281867 93.678398398690149 0 0 -1 I I #
point $-1 67.598498489333778 6.8838396799281867 18.380582320049914 #
straight-curve $-1 67.598498489333778 4.9392815182230407 0.33749316959492148 0 1 0 I I #
point $-1 67.598498489333778 6.8838396799281867 0.33749316959492148 #
point $-1 60.691500908375168 8.5951101693669898 8.6782389664605812 #
point $-1 60.691500908375168 11.162015903525173 8.6782389664605812 #
straight-curve $-1 -67.598498489333778 9.6929651036867028 56.595552520087566 0 0 -1 I I #
point $-1 -67.598498489333778 9.6929651036867028 18.380582320049914 #
straight-curve $-1 -67.598498489333778 3.196658363509929 8.1233056926414768 0 -1 0 I I #
point $-1 -67.598498489333778 9.6929651036867028 8.1233056926414839 #
point $-1 -60.321177150762949 4.4135277010197527 12.086225073652484 #
point $-1 -60.321177150762949 6.3933167270198581 12.086225073652484 #
point $-1 -60.321177150762949 8.3731057530199635 12.086225073652484 #
point $-1 -67.598498489333778 -39.021953757609708 18.380582320049914 #
straight-curve $-1 0 -39.021953757609708 18.380582320049914 1 0 0 I I #
straight-curve $-1 0 39.021953757609708 18.380582320049914 -1 0 0 I I #
point $-1 -67.598498489333778 39.021953757609708 18.380582320049914 #
End-of-ACIS-data 