500 0 7 0           
7 Unknown 11 ACIS 5.0 NT 24 Fri Mar 26 03:02:02 1999 
-1 9.9999999999999995e-007 1e-010 
body $-1 $7 $-1 $8 #
body $-1 $9 $-1 $10 #
body $-1 $11 $-1 $12 #
body $-1 $13 $-1 $14 #
body $-1 $15 $-1 $16 #
body $-1 $17 $-1 $18 #
body $-1 $19 $-1 $20 #
lump $-1 $-1 $21 $0 #
transform $-1 1 0 0 0 1 0 0 0 1 42.196111941892759 28.410357446200432 14.062897169802035 1 rotate no_reflect no_shear #
lump $-1 $-1 $22 $1 #
transform $-1 1 0 0 0 1 0 0 0 1 42.196111941892759 28.410357446200432 14.062897169802035 1 rotate no_reflect no_shear #
lump $-1 $-1 $23 $2 #
transform $-1 1 0 0 0 1 0 0 0 1 42.196111941892759 28.410357446200432 14.062897169802035 1 rotate no_reflect no_shear #
lump $-1 $-1 $24 $3 #
transform $-1 1 0 0 0 1 0 0 0 1 42.196111941892759 28.410357446200432 14.062897169802035 1 rotate no_reflect no_shear #
lump $-1 $-1 $25 $4 #
transform $-1 1 0 0 0 1 0 0 0 1 42.196111941892759 28.410357446200432 14.062897169802035 1 rotate no_reflect no_shear #
lump $-1 $-1 $26 $5 #
transform $-1 1 0 0 0 1 0 0 0 1 42.196111941892759 28.410357446200432 14.062897169802035 1 rotate no_reflect no_shear #
lump $-1 $-1 $27 $6 #
transform $-1 1 0 0 0 1 0 0 0 1 42.196111941892759 28.410357446200432 14.062897169802035 1 rotate no_reflect no_shear #
shell $-1 $-1 $-1 $28 $-1 $7 #
shell $-1 $-1 $-1 $29 $-1 $9 #
shell $-1 $-1 $-1 $30 $-1 $11 #
shell $-1 $-1 $-1 $31 $-1 $13 #
shell $-1 $-1 $-1 $32 $-1 $15 #
shell $-1 $-1 $-1 $33 $-1 $17 #
shell $-1 $-1 $-1 $34 $-1 $19 #
face $-1 $35 $36 $21 $-1 $37 forward single #
face $-1 $38 $39 $22 $-1 $40 forward single #
face $-1 $41 $42 $23 $-1 $43 reversed single #
face $-1 $44 $45 $24 $-1 $46 forward single #
face $-1 $47 $48 $25 $-1 $49 reversed single #
face $-1 $50 $51 $26 $-1 $52 forward single #
face $-1 $53 $54 $27 $-1 $55 forward single #
face $-1 $56 $57 $21 $-1 $58 reversed single #
loop $-1 $-1 $59 $28 #
plane-surface $-1 0 0 14.062897169802035 0 0 1 1 0 0 forward_v I I I I #
face $-1 $60 $61 $22 $-1 $62 reversed single #
loop $-1 $-1 $63 $29 #
plane-surface $-1 0 -21.663295517130766 8.1381236271032975 0 0 1 1 0 0 forward_v I I I I #
face $-1 $64 $65 $23 $-1 $66 reversed single #
loop $-1 $-1 $67 $30 #
plane-surface $-1 23.525874328028756 -10.483570952667273 121.63091633942011 0 1 0 0.5877852598018023 0 0.80901698891910034 forward_v I I I I #
face $-1 $68 $69 $24 $-1 $70 forward single #
loop $-1 $71 $72 $31 #
cone-surface $-1 34.281276285917741 -6.7688661866268411 7.7803820627041249 -0.5877852598018023 0 -0.80901698891910034 1.2135254833786506 0 -0.88167788970270344 1 I I 0 1 1.5 forward I I I I #
face $-1 $73 $74 $25 $-1 $75 reversed single #
loop $-1 $-1 $76 $32 #
plane-surface $-1 -94.153153655764527 17.754578602727722 73.755137179237721 0 1 0 -0.61566148304635926 0 0.78801074757464917 forward_v I I I I #
face $-1 $77 $78 $26 $-1 $79 forward single #
loop $-1 $80 $81 $33 #
cone-surface $-1 -36.888600024654039 20.799086843719923 9.4427516897584951 0.61566148304635926 0 -0.78801074757464917 1.1820161213619738 0 0.92349222456953894 1 I I 0 1 1.5 forward I I I I #
face $-1 $82 $83 $27 $-1 $84 forward single #
loop $-1 $85 $86 $34 #
cone-surface $-1 -36.888600024654039 25.365849205208232 9.4427516897584951 0.61566148304635926 0 -0.78801074757464917 1.1820161213619738 0 0.92349222456953894 1 I I 0 1 1.5 forward I I I I #
face $-1 $87 $88 $21 $-1 $89 reversed single #
loop $-1 $-1 $90 $35 #
plane-surface $-1 0 0 -14.062897169802035 0 0 1 1 0 0 forward_v I I I I #
coedge $-1 $91 $92 $93 $94 forward $36 $-1 #
face $-1 $95 $96 $22 $-1 $97 reversed single #
loop $-1 $-1 $98 $38 #
plane-surface $-1 0 -21.663295517130766 2.798368568439308 0 0 1 1 0 0 forward_v I I I I #
coedge $-1 $99 $100 $101 $102 reversed $39 $-1 #
face $-1 $103 $104 $23 $-1 $105 reversed single #
loop $-1 $-1 $106 $41 #
plane-surface $-1 -26.078630912753979 -6.7688661866268411 53.356173484773365 0.5877852598018023 0 0.80901698891910034 0.80901698891910034 0 -0.5877852598018023 forward_v I I I I #
coedge $-1 $107 $108 $109 $110 reversed $42 $-1 #
face $-1 $-1 $111 $24 $-1 $112 forward single #
loop $-1 $113 $114 $44 #
cone-surface $-1 33.021696082242762 -6.7688661866268411 6.0467186768226071 -0.5877852598018023 0 -0.80901698891910034 0.60676274168932531 0 -0.44083894485135172 1 I I -0.70710678118654757 0.70710678118654757 0.75 forward I I I I #
loop $-1 $-1 $115 $31 #
coedge $-1 $72 $72 $116 $117 reversed $45 $-1 #
face $-1 $118 $119 $25 $-1 $120 forward single #
loop $-1 $-1 $121 $47 #
plane-surface $-1 -42.196111941892752 23.082468024464081 7.2531577470887356 -0.61566148304635926 0 0.78801074757464917 0.78801074757464917 0 0.61566148304635926 forward_v I I I I #
coedge $-1 $122 $123 $124 $125 reversed $48 $-1 #
face $-1 $-1 $126 $26 $-1 $127 forward single #
loop $-1 $128 $129 $50 #
cone-surface $-1 -35.477376402877304 20.799086843719923 7.63646786039061 0.61566148304635926 0 -0.78801074757464917 0.59100806068098688 0 0.46174611228476947 1 I I -0.70710678118654757 0.70710678118654757 0.75 forward I I I I #
loop $-1 $-1 $130 $33 #
coedge $-1 $81 $81 $131 $132 reversed $51 $-1 #
face $-1 $-1 $133 $27 $-1 $134 forward single #
loop $-1 $135 $136 $53 #
cone-surface $-1 -35.477376402877304 25.365849205208232 7.63646786039061 0.61566148304635926 0 -0.78801074757464917 0.59100806068098688 0 0.46174611228476947 1 I I -0.70710678118654757 0.70710678118654757 0.75 forward I I I I #
loop $-1 $-1 $137 $34 #
coedge $-1 $86 $86 $138 $139 reversed $54 $-1 #
face $-1 $140 $141 $21 $-1 $142 reversed single #
loop $-1 $-1 $143 $56 #
plane-surface $-1 0 -28.410357446200432 0 0 1 0 0 0 1 forward_v I I I I #
coedge $-1 $144 $145 $146 $147 forward $57 $-1 #
coedge $-1 $148 $59 $149 $150 forward $36 $-1 #
coedge $-1 $59 $148 $151 $152 forward $36 $-1 #
coedge $-1 $153 $154 $59 $94 reversed $155 $-1 #
edge $-1 $156 -28.410357446200432 $157 28.410357446200432 $93 $158 forward 7 unknown #
face $-1 $159 $160 $22 $-1 $161 reversed single #
loop $-1 $-1 $162 $60 #
plane-surface $-1 0 -14.9162335880611 5.4682460977713028 0 -1 0 0 0 -1 forward_v I I I I #
coedge $-1 $163 $164 $165 $166 reversed $61 $-1 #
coedge $-1 $167 $63 $168 $169 forward $39 $-1 #
coedge $-1 $63 $167 $170 $171 reversed $39 $-1 #
coedge $-1 $172 $173 $63 $102 forward $174 $-1 #
edge $-1 $175 4.0845858294957171 $176 17.578709687635047 $101 $177 forward 7 unknown #
face $-1 $178 $179 $23 $-1 $180 forward single #
loop $-1 $-1 $181 $64 #
plane-surface $-1 23.525874328028756 -3.0541614205864089 121.63091633942011 0 -1 0 -0.5877852598018023 0 -0.80901698891910034 forward_v I I I I #
coedge $-1 $182 $183 $184 $185 reversed $65 $-1 #
coedge $-1 $108 $67 $186 $187 reversed $42 $-1 #
coedge $-1 $67 $107 $182 $188 reversed $42 $-1 #
coedge $-1 $184 $189 $67 $110 forward $190 $-1 #
edge $-1 $191 46.75256099990802 $192 57.063789925719426 $109 $193 forward 7 unknown #
loop $-1 $-1 $116 $68 #
plane-surface $-1 -26.078630912753979 -6.7688661866268411 53.356173484773365 0.5877852598018023 0 0.80901698891910034 0.80901698891910034 0 -0.5877852598018023 forward_v I I I I #
loop $-1 $-1 $194 $44 #
coedge $-1 $114 $114 $115 $195 reversed $69 $-1 #
coedge $-1 $115 $115 $114 $195 forward $71 $-1 #
coedge $-1 $116 $116 $72 $117 forward $111 $-1 #
edge $-1 $196 0 $196 6.2831853071796004 $116 $197 forward 7 unknown #
face $-1 $198 $199 $25 $-1 $200 reversed single #
loop $-1 $-1 $124 $73 #
plane-surface $-1 0 0 14.062897169802035 0 0 1 1 0 0 forward_v I I I I #
coedge $-1 $201 $202 $203 $204 reversed $74 $-1 #
coedge $-1 $123 $76 $205 $206 reversed $48 $-1 #
coedge $-1 $76 $122 $201 $207 reversed $48 $-1 #
coedge $-1 $203 $208 $76 $125 forward $119 $-1 #
edge $-1 $209 4.8804648859895039 $210 13.59653370148304 $124 $211 forward 7 unknown #
loop $-1 $-1 $131 $77 #
plane-surface $-1 -42.196111941892752 23.082468024464081 7.2531577470887356 -0.61566148304635926 0 0.78801074757464917 0.78801074757464917 0 0.61566148304635926 forward_v I I I I #
loop $-1 $-1 $212 $50 #
coedge $-1 $129 $129 $130 $213 reversed $78 $-1 #
coedge $-1 $130 $130 $129 $213 forward $80 $-1 #
coedge $-1 $131 $131 $81 $132 forward $126 $-1 #
edge $-1 $214 0 $214 6.2831853071796004 $131 $215 forward 7 unknown #
loop $-1 $-1 $138 $82 #
plane-surface $-1 -42.196111941892752 23.082468024464081 7.2531577470887356 -0.61566148304635926 0 0.78801074757464917 0.78801074757464917 0 0.61566148304635926 forward_v I I I I #
loop $-1 $-1 $216 $53 #
coedge $-1 $136 $136 $137 $217 reversed $83 $-1 #
coedge $-1 $137 $137 $136 $217 forward $85 $-1 #
coedge $-1 $138 $138 $86 $139 forward $133 $-1 #
edge $-1 $218 0 $218 6.2831853071796004 $138 $219 forward 7 unknown #
face $-1 $220 $221 $21 $-1 $222 reversed single #
loop $-1 $-1 $223 $87 #
plane-surface $-1 -42.196111941892759 0 0 1 0 0 0 0 -1 forward_v I I I I #
coedge $-1 $224 $151 $225 $226 forward $88 $-1 #
coedge $-1 $227 $90 $224 $228 forward $57 $-1 #
coedge $-1 $90 $227 $229 $230 forward $57 $-1 #
coedge $-1 $154 $153 $90 $147 reversed $155 $-1 #
edge $-1 $231 -28.410357446200432 $232 28.410357446200432 $146 $233 forward 7 unknown #
coedge $-1 $92 $91 $234 $235 forward $36 $-1 #
coedge $-1 $236 $237 $91 $150 reversed $221 $-1 #
edge $-1 $157 -42.196111941892759 $238 42.196111941892759 $149 $239 forward 7 unknown #
coedge $-1 $143 $240 $92 $152 reversed $88 $-1 #
edge $-1 $241 -42.196111941892759 $156 42.196111941892759 $151 $242 forward 7 unknown #
coedge $-1 $146 $93 $240 $243 forward $155 $-1 #
coedge $-1 $93 $146 $236 $244 reversed $155 $-1 #
loop $-1 $-1 $153 $220 #
vertex $-1 $94 $245 #
vertex $-1 $94 $246 #
straight-curve $-1 42.196111941892759 0 14.062897169802035 0 1 0 I I #
face $-1 $247 $248 $22 $-1 $249 reversed single #
loop $-1 $-1 $250 $95 #
plane-surface $-1 -42.196111941892759 0 0 1 0 0 0 0 -1 forward_v I I I I #
coedge $-1 $251 $168 $173 $252 reversed $96 $-1 #
coedge $-1 $253 $98 $254 $255 reversed $61 $-1 #
coedge $-1 $98 $253 $251 $256 forward $61 $-1 #
coedge $-1 $173 $172 $98 $166 forward $174 $-1 #
edge $-1 $257 -17.578709687635047 $258 -4.0845858294957171 $165 $259 forward 7 unknown #
coedge $-1 $100 $99 $250 $260 reversed $39 $-1 #
coedge $-1 $162 $261 $99 $169 reversed $96 $-1 #
edge $-1 $175 -42.196111941892759 $262 42.196111941892759 $168 $263 forward 7 unknown #
coedge $-1 $264 $265 $100 $171 forward $248 $-1 #
edge $-1 $176 -42.196111941892759 $266 42.196111941892759 $170 $267 forward 7 unknown #
coedge $-1 $165 $101 $265 $268 forward $174 $-1 #
coedge $-1 $101 $165 $162 $252 forward $174 $-1 #
loop $-1 $-1 $101 $247 #
vertex $-1 $102 $269 #
vertex $-1 $268 $270 #
straight-curve $-1 42.196111941892759 -10.831647758565383 8.1381236271032975 0 -1 0 I I #
face $-1 $-1 $190 $23 $-1 $271 reversed single #
loop $-1 $-1 $272 $103 #
plane-surface $-1 0 0 14.062897169802035 0 0 1 1 0 0 forward_v I I I I #
coedge $-1 $273 $274 $275 $276 reversed $104 $-1 #
coedge $-1 $277 $106 $108 $188 forward $65 $-1 #
coedge $-1 $106 $277 $273 $278 forward $65 $-1 #
coedge $-1 $275 $109 $106 $185 forward $190 $-1 #
edge $-1 $192 -7.0991378593538528 $279 0.33027167272701163 $184 $280 forward 7 unknown #
coedge $-1 $281 $282 $107 $187 forward $179 $-1 #
edge $-1 $283 16.24098598357563 $191 30.433174777878381 $186 $284 forward 7 unknown #
edge $-1 $192 -84.392223883785519 $283 -66.84971366621339 $108 $285 forward 7 unknown #
coedge $-1 $109 $275 $281 $286 reversed $190 $-1 #
loop $-1 $-1 $275 $178 #
vertex $-1 $286 $287 #
vertex $-1 $110 $288 #
straight-curve $-1 42.196111941892759 -10.483570952667273 60.815458169710055 0 0 -1 I I #
coedge $-1 $194 $194 $-1 $289 reversed $113 $-1 #
edge $-1 $290 0 $290 6.2831853071796004 $114 $291 forward 7 unknown #
vertex $-1 $117 $292 #
ellipse-curve $-1 35.100017544741384 -6.7688661866268411 8.9072827068963321 0.5877852598018023 0 0.80901698891910034 1.2135254833786506 0 -0.88167788970270344 1 I I #
face $-1 $-1 $293 $25 $-1 $294 reversed single #
loop $-1 $-1 $295 $118 #
plane-surface $-1 0 28.410357446200432 0 0 -1 0 0 0 -1 forward_v I I I I #
coedge $-1 $296 $121 $123 $207 forward $74 $-1 #
coedge $-1 $121 $296 $295 $297 reversed $74 $-1 #
coedge $-1 $298 $124 $121 $204 forward $119 $-1 #
edge $-1 $210 6.2133445904956819 $299 16.869123433968397 $203 $300 forward 7 unknown #
coedge $-1 $301 $302 $122 $206 forward $293 $-1 #
edge $-1 $303 -29.624410842530132 $209 -22.814671419816825 $205 $304 forward 7 unknown #
edge $-1 $210 -11.06085017535607 $303 8.8800565823946346e-015 $123 $305 forward 7 unknown #
coedge $-1 $124 $298 $301 $306 forward $119 $-1 #
vertex $-1 $206 $307 #
vertex $-1 $125 $308 #
straight-curve $-1 -47.076576827882263 17.754578602727722 14.062897169802035 1 0 0 I I #
coedge $-1 $212 $212 $-1 $309 reversed $128 $-1 #
edge $-1 $310 0 $310 6.2831853071796004 $129 $311 forward 7 unknown #
vertex $-1 $132 $312 #
ellipse-curve $-1 -37.838077534145995 20.799086843719923 10.658027458445382 -0.61566148304635926 0 0.78801074757464917 1.1820161213619738 0 0.92349222456953894 1 I I #
coedge $-1 $216 $216 $-1 $313 reversed $135 $-1 #
edge $-1 $314 0 $314 6.2831853071796004 $136 $315 forward 7 unknown #
vertex $-1 $139 $316 #
ellipse-curve $-1 -37.838077534145995 25.365849205208232 10.658027458445382 -0.61566148304635926 0 0.78801074757464917 1.1820161213619738 0 0.92349222456953894 1 I I #
face $-1 $-1 $155 $21 $-1 $317 reversed single #
loop $-1 $-1 $236 $140 #
plane-surface $-1 0 28.410357446200432 0 0 -1 0 0 0 -1 forward_v I I I I #
coedge $-1 $318 $234 $237 $319 forward $141 $-1 #
coedge $-1 $240 $143 $144 $228 reversed $88 $-1 #
coedge $-1 $234 $318 $143 $226 reversed $141 $-1 #
edge $-1 $241 -14.062897169802035 $320 14.062897169802035 $225 $321 forward 7 unknown #
coedge $-1 $145 $144 $318 $322 forward $57 $-1 #
edge $-1 $232 -42.196111941892759 $320 42.196111941892759 $224 $323 forward 7 unknown #
coedge $-1 $237 $236 $145 $230 reversed $221 $-1 #
edge $-1 $324 -42.196111941892759 $231 42.196111941892759 $229 $325 forward 7 unknown #
vertex $-1 $147 $326 #
vertex $-1 $243 $327 #
straight-curve $-1 42.196111941892759 0 -14.062897169802035 0 -1 0 I I #
coedge $-1 $223 $225 $148 $235 reversed $141 $-1 #
edge $-1 $238 -28.410357446200432 $241 28.410357446200432 $234 $328 forward 7 unknown #
coedge $-1 $229 $149 $154 $244 forward $221 $-1 #
coedge $-1 $149 $229 $223 $319 reversed $221 $-1 #
vertex $-1 $150 $329 #
straight-curve $-1 0 28.410357446200432 14.062897169802035 -1 0 0 I I #
coedge $-1 $151 $224 $153 $243 reversed $88 $-1 #
vertex $-1 $235 $330 #
straight-curve $-1 0 -28.410357446200432 14.062897169802035 1 0 0 I I #
edge $-1 $156 -14.062897169802035 $232 14.062897169802035 $153 $331 forward 7 unknown #
edge $-1 $157 -14.062897169802035 $231 14.062897169802035 $154 $332 forward 7 unknown #
point $-1 42.196111941892759 -28.410357446200432 14.062897169802035 #
point $-1 42.196111941892759 28.410357446200432 14.062897169802035 #
face $-1 $-1 $174 $22 $-1 $333 reversed single #
loop $-1 $-1 $170 $159 #
plane-surface $-1 0 -28.410357446200432 0 0 1 0 0 0 1 forward_v I I I I #
coedge $-1 $334 $335 $167 $260 forward $160 $-1 #
coedge $-1 $261 $162 $164 $256 reversed $96 $-1 #
edge $-1 $258 0.064245519553656649 $175 5.4040005782176461 $173 $336 forward 7 unknown #
coedge $-1 $164 $163 $337 $338 reversed $61 $-1 #
coedge $-1 $265 $264 $163 $255 forward $248 $-1 #
edge $-1 $339 -42.196111941892759 $257 42.196111941892759 $254 $340 forward 7 unknown #
edge $-1 $341 -42.196111941892759 $258 42.196111941892759 $251 $342 forward 7 unknown #
vertex $-1 $255 $343 #
vertex $-1 $166 $344 #
straight-curve $-1 42.196111941892759 -10.831647758565383 2.798368568439308 0 1 0 I I #
edge $-1 $266 -17.578709687635047 $262 -4.0845858294957171 $250 $345 forward 7 unknown #
coedge $-1 $168 $251 $334 $346 reversed $96 $-1 #
vertex $-1 $260 $347 #
straight-curve $-1 0 -14.9162335880611 8.1381236271032975 -1 0 0 I I #
coedge $-1 $254 $170 $335 $348 forward $248 $-1 #
coedge $-1 $170 $254 $172 $268 reversed $248 $-1 #
vertex $-1 $348 $349 #
straight-curve $-1 0 -28.410357446200432 8.1381236271032975 -1 0 0 I I #
edge $-1 $176 -8.1381236271032975 $257 -2.798368568439308 $172 $350 forward 7 unknown #
point $-1 42.196111941892759 -14.9162335880611 8.1381236271032975 #
point $-1 42.196111941892759 -28.410357446200432 8.1381236271032975 #
plane-surface $-1 42.196111941892759 0 0 -1 0 0 0 0 1 forward_v I I I I #
coedge $-1 $282 $281 $274 $351 forward $179 $-1 #
coedge $-1 $274 $181 $183 $278 reversed $104 $-1 #
coedge $-1 $181 $273 $272 $351 reversed $104 $-1 #
coedge $-1 $189 $184 $181 $276 forward $190 $-1 #
edge $-1 $279 -57.063789925719426 $352 -46.75256099990802 $275 $353 forward 7 unknown #
coedge $-1 $183 $182 $282 $354 reversed $65 $-1 #
edge $-1 $355 66.84971366621339 $279 84.392223883785519 $273 $356 forward 7 unknown #
vertex $-1 $185 $357 #
straight-curve $-1 42.196111941892767 -3.3844330933134206 3.751668243990629 0 1 0 I I #
coedge $-1 $272 $186 $189 $286 forward $179 $-1 #
coedge $-1 $186 $272 $277 $354 forward $179 $-1 #
vertex $-1 $187 $358 #
straight-curve $-1 11.762937164014378 -10.483570952667273 14.062897169802035 1 0 0 I I #
straight-curve $-1 -26.078630912753979 -10.483570952667273 53.356173484773365 -0.80901698891910034 0 0.5877852598018023 I I #
edge $-1 $191 -10.483570952667273 $352 -3.0541614205864089 $189 $359 forward 7 unknown #
point $-1 42.196111941892759 -10.483570952667273 14.062897169802035 #
point $-1 42.196111941892767 -10.483570952667273 3.751668243990629 #
edge $-1 $360 1 $360 0 $194 $-1 forward 7 unknown #
vertex $-1 $195 $361 #
ellipse-curve $-1 33.462535027094113 -6.7688661866268411 6.653481418511932 0.5877852598018023 0 0.80901698891910034 1.2135254833786506 0 -0.88167788970270344 1 I I #
point $-1 36.313543028120023 -6.7688661866268411 8.0256048171936136 #
loop $-1 $-1 $205 $198 #
plane-surface $-1 -42.196111941892759 0 0 1 0 0 0 0 -1 forward_v I I I I #
coedge $-1 $362 $363 $202 $297 forward $199 $-1 #
coedge $-1 $202 $201 $302 $364 reversed $74 $-1 #
edge $-1 $299 3.3318997550102543 $365 14.392749930366334 $295 $366 forward 7 unknown #
coedge $-1 $208 $203 $363 $367 forward $119 $-1 #
vertex $-1 $367 $368 #
straight-curve $-1 -33.480043126399224 11.54123401223204 14.062897169802035 0 1 0 I I #
coedge $-1 $369 $205 $208 $306 reversed $293 $-1 #
coedge $-1 $205 $369 $296 $364 forward $293 $-1 #
vertex $-1 $206 $370 #
straight-curve $-1 -42.196111941892759 17.754578602727722 36.877568589618861 0 0 1 I I #
straight-curve $-1 -42.196111941892752 17.754578602727722 7.2531577470887356 -0.78801074757464917 0 -0.61566148304635926 I I #
edge $-1 $371 -28.410357446200432 $209 -17.754578602727722 $301 $372 forward 7 unknown #
point $-1 -42.196111941892759 17.754578602727722 14.062897169802035 #
point $-1 -33.480043126399224 17.754578602727722 14.062897169802035 #
edge $-1 $373 1 $373 0 $212 $-1 forward 7 unknown #
vertex $-1 $213 $374 #
ellipse-curve $-1 -35.939122515162076 20.799086843719923 8.2274759210715978 -0.61566148304635926 0 0.78801074757464917 1.1820161213619738 0 0.92349222456953894 1 I I #
point $-1 -36.656061412784034 20.799086843719923 11.581519683014932 #
edge $-1 $375 1 $375 0 $216 $-1 forward 7 unknown #
vertex $-1 $217 $376 #
ellipse-curve $-1 -35.939122515162076 25.365849205208232 8.2274759210715978 -0.61566148304635926 0 0.78801074757464917 1.1820161213619738 0 0.92349222456953894 1 I I #
point $-1 -36.656061412784034 25.365849205208232 11.581519683014932 #
plane-surface $-1 42.196111941892759 0 0 -1 0 0 0 0 1 forward_v I I I I #
coedge $-1 $225 $223 $227 $322 reversed $141 $-1 #
edge $-1 $238 -14.062897169802035 $324 14.062897169802035 $237 $377 forward 7 unknown #
vertex $-1 $322 $378 #
straight-curve $-1 -42.196111941892759 -28.410357446200432 0 0 0 -1 I I #
edge $-1 $320 -28.410357446200432 $324 28.410357446200432 $318 $379 forward 7 unknown #
straight-curve $-1 0 -28.410357446200432 -14.062897169802035 -1 0 0 I I #
vertex $-1 $230 $380 #
straight-curve $-1 0 28.410357446200432 -14.062897169802035 1 0 0 I I #
point $-1 42.196111941892759 28.410357446200432 -14.062897169802035 #
point $-1 42.196111941892759 -28.410357446200432 -14.062897169802035 #
straight-curve $-1 -42.196111941892759 0 14.062897169802035 0 -1 0 I I #
point $-1 -42.196111941892759 28.410357446200432 14.062897169802035 #
point $-1 -42.196111941892759 -28.410357446200432 14.062897169802035 #
straight-curve $-1 42.196111941892759 -28.410357446200432 0 0 0 -1 I I #
straight-curve $-1 42.196111941892759 28.410357446200432 0 0 0 -1 I I #
plane-surface $-1 42.196111941892759 0 0 -1 0 0 0 0 1 forward_v I I I I #
coedge $-1 $337 $250 $261 $346 forward $160 $-1 #
coedge $-1 $250 $337 $264 $348 reversed $160 $-1 #
straight-curve $-1 42.196111941892759 -14.9162335880611 2.7341230488856514 0 0 1 I I #
coedge $-1 $335 $334 $253 $338 forward $160 $-1 #
edge $-1 $341 4.0845858294957171 $339 17.578709687635047 $337 $381 forward 7 unknown #
vertex $-1 $255 $382 #
straight-curve $-1 0 -28.410357446200432 2.798368568439308 1 0 0 I I #
vertex $-1 $338 $383 #
straight-curve $-1 0 -14.9162335880611 2.798368568439308 1 0 0 I I #
point $-1 42.196111941892759 -28.410357446200432 2.798368568439308 #
point $-1 42.196111941892759 -14.9162335880611 2.798368568439308 #
straight-curve $-1 -42.196111941892759 -10.831647758565383 8.1381236271032975 0 1 0 I I #
edge $-1 $262 -5.4040005782176461 $341 -0.064245519553656649 $334 $384 forward 7 unknown #
point $-1 -42.196111941892759 -14.9162335880611 8.1381236271032975 #
edge $-1 $266 -8.1381236271032975 $339 -2.798368568439308 $335 $385 forward 7 unknown #
point $-1 -42.196111941892759 -28.410357446200432 8.1381236271032975 #
straight-curve $-1 42.196111941892759 -28.410357446200432 0 0 0 -1 I I #
edge $-1 $352 -30.433174777878381 $355 -16.24098598357563 $272 $386 forward 7 unknown #
vertex $-1 $351 $387 #
straight-curve $-1 42.196111941892759 -3.0541614205864089 60.815458169710055 0 0 1 I I #
edge $-1 $355 -0.33027167272701163 $283 7.0991378593538528 $282 $388 forward 7 unknown #
vertex $-1 $354 $389 #
straight-curve $-1 -26.078630912753979 -3.0541614205864089 53.356173484773365 0.80901698891910034 0 -0.5877852598018023 I I #
point $-1 42.196111941892767 -3.0541614205864089 3.751668243990629 #
point $-1 28.003923147590008 -10.483570952667273 14.062897169802035 #
straight-curve $-1 42.196111941892759 0 14.062897169802035 0 1 0 I I #
vertex $-1 $289 $390 #
point $-1 34.676060510472766 -6.7688661866268411 5.7718035288092286 #
coedge $-1 $363 $295 $369 $391 reversed $199 $-1 #
coedge $-1 $295 $362 $298 $367 reversed $199 $-1 #
edge $-1 $365 -16.869123433968397 $303 -6.2133445904956819 $302 $392 forward 7 unknown #
vertex $-1 $297 $393 #
straight-curve $-1 -30.854470309609805 28.410357446200432 16.114219514333453 -0.78801074757464917 0 -0.61566148304635926 I I #
edge $-1 $299 33.480043126399224 $371 42.196111941892759 $363 $394 forward 7 unknown #
point $-1 -33.480043126399224 28.41035744620044 14.062897169802035 #
coedge $-1 $302 $301 $362 $391 forward $293 $-1 #
point $-1 -42.196111941892759 17.754578602727722 7.2531577470887303 #
vertex $-1 $367 $395 #
straight-curve $-1 -42.196111941892759 0 14.062897169802035 0 -1 0 I I #
vertex $-1 $309 $396 #
point $-1 -34.7571063938001 20.799086843719923 9.1509681456411354 #
vertex $-1 $313 $397 #
point $-1 -34.7571063938001 25.365849205208232 9.1509681456411354 #
straight-curve $-1 -42.196111941892759 28.410357446200432 0 0 0 -1 I I #
point $-1 -42.196111941892759 -28.410357446200432 -14.062897169802035 #
straight-curve $-1 -42.196111941892759 0 -14.062897169802035 0 1 0 I I #
point $-1 -42.196111941892759 28.410357446200432 -14.062897169802035 #
straight-curve $-1 -42.196111941892759 -10.831647758565383 2.798368568439308 0 -1 0 I I #
point $-1 -42.196111941892759 -28.410357446200432 2.798368568439308 #
point $-1 -42.196111941892759 -14.9162335880611 2.798368568439308 #
straight-curve $-1 -42.196111941892759 -14.9162335880611 2.7341230488856514 0 0 -1 I I #
straight-curve $-1 -42.196111941892759 -28.410357446200432 0 0 0 -1 I I #
straight-curve $-1 11.762937164014378 -3.0541614205864089 14.062897169802035 -1 0 0 I I #
point $-1 42.196111941892759 -3.0541614205864089 14.062897169802035 #
straight-curve $-1 28.003923147590001 -3.3844330933134206 14.062897169802039 0 -1 0 I I #
point $-1 28.003923147590008 -3.0541614205864089 14.062897169802035 #
point $-1 32.580857137391412 -6.7688661866268411 5.4399559351332822 #
edge $-1 $371 -14.062897169802035 $365 -7.2531577470887303 $362 $398 forward 7 unknown #
straight-curve $-1 -42.196111941892759 11.54123401223204 7.2531577470887267 0 -1 0 I I #
point $-1 -42.196111941892759 28.41035744620044 7.2531577470887303 #
straight-curve $-1 0 28.410357446200432 14.062897169802035 -1 0 0 I I #
point $-1 -42.196111941892759 28.410357446200432 14.062897169802035 #
point $-1 -35.015630290592533 20.799086843719923 7.0454597997096231 #
point $-1 -35.015630290592533 25.365849205208232 7.0454597997096231 #
straight-curve $-1 -42.196111941892759 28.410357446200432 0 0 0 -1 I I #
End-of-ACIS-data 