500 0 9 0           
7 Unknown 11 ACIS 5.0 NT 24 Thu Mar 25 19:02:50 1999 
-1 9.9999999999999995e-007 1e-010 
body $-1 $9 $-1 $10 #
body $-1 $11 $-1 $12 #
body $-1 $13 $-1 $14 #
body $-1 $15 $-1 $16 #
body $-1 $17 $-1 $18 #
body $-1 $19 $-1 $20 #
body $-1 $21 $-1 $22 #
body $-1 $23 $-1 $24 #
body $-1 $25 $-1 $26 #
lump $-1 $-1 $27 $0 #
transform $-1 1 0 0 0 1 0 0 0 1 65.404828028199105 31.837522141648041 11.204782909185189 1 rotate no_reflect no_shear #
lump $-1 $-1 $28 $1 #
transform $-1 1 0 0 0 1 0 0 0 1 65.404828028199105 31.837522141648041 11.204782909185189 1 rotate no_reflect no_shear #
lump $-1 $-1 $29 $2 #
transform $-1 1 0 0 0 1 0 0 0 1 65.404828028199105 31.837522141648041 11.204782909185189 1 rotate no_reflect no_shear #
lump $-1 $-1 $30 $3 #
transform $-1 1 0 0 0 1 0 0 0 1 65.404828028199105 31.837522141648041 11.204782909185189 1 rotate no_reflect no_shear #
lump $-1 $-1 $31 $4 #
transform $-1 1 0 0 0 1 0 0 0 1 65.404828028199105 31.837522141648041 11.204782909185189 1 rotate no_reflect no_shear #
lump $-1 $-1 $32 $5 #
transform $-1 1 0 0 0 1 0 0 0 1 65.404828028199105 31.837522141648041 11.204782909185189 1 rotate no_reflect no_shear #
lump $-1 $-1 $33 $6 #
transform $-1 1 0 0 0 1 0 0 0 1 65.404828028199105 31.837522141648041 11.204782909185189 1 rotate no_reflect no_shear #
lump $-1 $-1 $34 $7 #
transform $-1 1 0 0 0 1 0 0 0 1 65.404828028199105 31.837522141648041 11.204782909185189 1 rotate no_reflect no_shear #
lump $-1 $-1 $35 $8 #
transform $-1 1 0 0 0 1 0 0 0 1 65.404828028199105 31.837522141648041 11.204782909185189 1 rotate no_reflect no_shear #
shell $-1 $-1 $-1 $36 $-1 $9 #
shell $-1 $-1 $-1 $37 $-1 $11 #
shell $-1 $-1 $-1 $38 $-1 $13 #
shell $-1 $-1 $-1 $39 $-1 $15 #
shell $-1 $-1 $-1 $40 $-1 $17 #
shell $-1 $-1 $-1 $41 $-1 $19 #
shell $-1 $-1 $-1 $42 $-1 $21 #
shell $-1 $-1 $-1 $43 $-1 $23 #
shell $-1 $-1 $-1 $44 $-1 $25 #
face $-1 $45 $46 $27 $-1 $47 forward single #
face $-1 $48 $49 $28 $-1 $50 forward single #
face $-1 $51 $52 $29 $-1 $53 forward single #
face $-1 $54 $55 $30 $-1 $56 reversed single #
face $-1 $57 $58 $31 $-1 $59 forward single #
face $-1 $60 $61 $32 $-1 $62 forward single #
face $-1 $63 $64 $33 $-1 $65 reversed single #
face $-1 $66 $67 $34 $-1 $68 forward single #
face $-1 $69 $70 $35 $-1 $71 forward single #
face $-1 $72 $73 $27 $-1 $74 reversed single #
loop $-1 $-1 $75 $36 #
plane-surface $-1 0 0 11.204782909185189 0 0 1 1 0 0 forward_v I I I I #
face $-1 $76 $77 $28 $-1 $78 forward single #
loop $-1 $-1 $79 $37 #
plane-surface $-1 0 -31.837522141648041 0 0 1 0 0 0 1 forward_v I I I I #
face $-1 $80 $81 $29 $-1 $82 reversed single #
loop $-1 $-1 $83 $38 #
plane-surface $-1 0 31.837522141648041 0 0 -1 0 0 0 -1 forward_v I I I I #
face $-1 $84 $85 $30 $-1 $86 reversed single #
loop $-1 $-1 $87 $39 #
plane-surface $-1 -132.77678235933925 -21.530749562779004 114.32049548373541 0 1 0 -0.51503808176128008 0 0.85716729658548041 forward_v I I I I #
face $-1 $88 $89 $31 $-1 $90 forward single #
loop $-1 $91 $92 $40 #
cone-surface $-1 -57.255243122339714 -19.112568190423843 5.6147040675288791 0.51503808176128008 0 -0.85716729658548041 0.85716729658548041 0 0.51503808176128008 1 I I 0 1 1 forward I I I I #
face $-1 $93 $94 $32 $-1 $95 forward single #
loop $-1 $96 $97 $41 #
cone-surface $-1 -57.255243122339714 -15.485296131891101 5.6147040675288791 0.51503808176128008 0 -0.85716729658548041 0.85716729658548041 0 0.51503808176128008 1 I I 0 1 1 forward I I I I #
face $-1 $98 $99 $33 $-1 $100 reversed single #
loop $-1 $-1 $101 $42 #
plane-surface $-1 -132.77678235933925 -1.4444106268013002 114.32049548373541 0 1 0 -0.51503808176128008 0 0.85716729658548041 forward_v I I I I #
face $-1 $102 $103 $34 $-1 $104 forward single #
loop $-1 $105 $106 $43 #
cone-surface $-1 -57.255243122339714 0.97377074555386045 5.6147040675288791 0.51503808176128008 0 -0.85716729658548041 0.85716729658548041 0 0.51503808176128008 1 I I 0 1 1 forward I I I I #
face $-1 $107 $108 $35 $-1 $109 forward single #
loop $-1 $110 $111 $44 #
cone-surface $-1 -57.255243122339714 4.6010428040865996 5.6147040675288791 0.51503808176128008 0 -0.85716729658548041 0.85716729658548041 0 0.51503808176128008 1 I I 0 1 1 forward I I I I #
face $-1 $112 $113 $27 $-1 $114 reversed single #
loop $-1 $-1 $115 $45 #
plane-surface $-1 0 0 -11.204782909185189 0 0 1 1 0 0 forward_v I I I I #
coedge $-1 $116 $117 $118 $119 forward $46 $-1 #
face $-1 $120 $121 $28 $-1 $122 reversed single #
loop $-1 $-1 $123 $48 #
plane-surface $-1 0 0 11.204782909185189 0 0 1 1 0 0 forward_v I I I I #
coedge $-1 $124 $125 $126 $127 forward $49 $-1 #
face $-1 $128 $129 $29 $-1 $130 reversed single #
loop $-1 $-1 $131 $51 #
plane-surface $-1 65.404828028199105 0 0 -1 0 0 0 0 1 forward_v I I I I #
coedge $-1 $132 $133 $134 $135 forward $52 $-1 #
face $-1 $136 $137 $30 $-1 $138 reversed single #
loop $-1 $-1 $139 $54 #
plane-surface $-1 -65.404828028199105 -17.298932161157474 2.1947362345960499 -0.51503808176128008 0 0.85716729658548041 0.85716729658548041 0 0.51503808176128008 forward_v I I I I #
coedge $-1 $140 $141 $142 $143 reversed $55 $-1 #
face $-1 $-1 $144 $31 $-1 $145 forward single #
loop $-1 $146 $147 $57 #
cone-surface $-1 -56.345756947625176 -19.112568190423843 4.1010649148744083 0.51503808176128008 0 -0.85716729658548041 0.4285836482927402 0 0.25751904088064004 1 I I -0.70710678118654746 0.70710678118654746 0.5 forward I I I I #
loop $-1 $-1 $148 $40 #
coedge $-1 $92 $92 $149 $150 reversed $58 $-1 #
face $-1 $-1 $151 $32 $-1 $152 forward single #
loop $-1 $153 $154 $60 #
cone-surface $-1 -56.345756947625176 -15.485296131891101 4.1010649148744083 0.51503808176128008 0 -0.85716729658548041 0.4285836482927402 0 0.25751904088064004 1 I I -0.70710678118654746 0.70710678118654746 0.5 forward I I I I #
loop $-1 $-1 $155 $41 #
coedge $-1 $97 $97 $156 $157 reversed $61 $-1 #
face $-1 $158 $159 $33 $-1 $160 reversed single #
loop $-1 $-1 $161 $63 #
plane-surface $-1 -65.404828028199105 2.78740677482023 2.1947362345960499 -0.51503808176128008 0 0.85716729658548041 0.85716729658548041 0 0.51503808176128008 forward_v I I I I #
coedge $-1 $162 $163 $164 $165 reversed $64 $-1 #
face $-1 $-1 $166 $34 $-1 $167 forward single #
loop $-1 $168 $169 $66 #
cone-surface $-1 -56.345756947625176 0.97377074555386045 4.1010649148744083 0.51503808176128008 0 -0.85716729658548041 0.4285836482927402 0 0.25751904088064004 1 I I -0.70710678118654746 0.70710678118654746 0.5 forward I I I I #
loop $-1 $-1 $170 $43 #
coedge $-1 $106 $106 $171 $172 reversed $67 $-1 #
face $-1 $-1 $173 $35 $-1 $174 forward single #
loop $-1 $175 $176 $69 #
cone-surface $-1 -56.345756947625176 4.6010428040865996 4.1010649148744083 0.51503808176128008 0 -0.85716729658548041 0.4285836482927402 0 0.25751904088064004 1 I I -0.70710678118654746 0.70710678118654746 0.5 forward I I I I #
loop $-1 $-1 $177 $44 #
coedge $-1 $111 $111 $178 $179 reversed $70 $-1 #
face $-1 $180 $181 $27 $-1 $182 reversed single #
loop $-1 $-1 $183 $72 #
plane-surface $-1 0 -31.837522141648041 0 0 1 0 0 0 1 forward_v I I I I #
coedge $-1 $184 $185 $186 $187 forward $73 $-1 #
coedge $-1 $188 $75 $189 $190 forward $46 $-1 #
coedge $-1 $75 $188 $191 $192 forward $46 $-1 #
coedge $-1 $193 $194 $75 $119 reversed $195 $-1 #
edge $-1 $196 -31.837522141648041 $197 31.837522141648041 $118 $198 forward 7 unknown #
face $-1 $199 $200 $28 $-1 $201 reversed single #
loop $-1 $-1 $202 $76 #
plane-surface $-1 -65.404828028199105 0 0 1 0 0 0 0 -1 forward_v I I I I #
coedge $-1 $203 $204 $205 $206 forward $77 $-1 #
coedge $-1 $205 $79 $202 $207 reversed $49 $-1 #
coedge $-1 $79 $205 $208 $209 reversed $49 $-1 #
coedge $-1 $210 $211 $79 $127 reversed $200 $-1 #
edge $-1 $212 -65.404828028199105 $213 65.404828028199105 $126 $214 forward 7 unknown #
face $-1 $215 $216 $29 $-1 $217 forward single #
loop $-1 $-1 $218 $80 #
plane-surface $-1 0 0 -11.204782909185189 0 0 1 1 0 0 forward_v I I I I #
coedge $-1 $219 $220 $133 $221 forward $81 $-1 #
coedge $-1 $222 $83 $223 $224 reversed $52 $-1 #
coedge $-1 $83 $222 $131 $221 reversed $52 $-1 #
coedge $-1 $225 $226 $83 $135 reversed $216 $-1 #
edge $-1 $227 -65.404828028199105 $228 65.404828028199105 $134 $229 forward 7 unknown #
face $-1 $230 $231 $30 $-1 $232 reversed single #
loop $-1 $-1 $233 $84 #
plane-surface $-1 -132.77678235933925 -13.067114759535944 114.32049548373541 0 -1 0 0.51503808176128008 0 -0.85716729658548041 forward_v I I I I #
coedge $-1 $234 $235 $236 $237 reversed $85 $-1 #
coedge $-1 $141 $87 $238 $239 reversed $55 $-1 #
coedge $-1 $87 $140 $234 $240 reversed $55 $-1 #
coedge $-1 $236 $241 $87 $143 forward $242 $-1 #
edge $-1 $243 0.98356315147051987 $244 15.978798695521476 $142 $245 forward 7 unknown #
loop $-1 $-1 $149 $88 #
plane-surface $-1 -65.404828028199105 -17.298932161157474 2.1947362345960499 -0.51503808176128008 0 0.85716729658548041 0.85716729658548041 0 0.51503808176128008 forward_v I I I I #
loop $-1 $-1 $246 $57 #
coedge $-1 $147 $147 $148 $247 reversed $89 $-1 #
coedge $-1 $148 $148 $147 $247 forward $91 $-1 #
coedge $-1 $149 $149 $92 $150 forward $144 $-1 #
edge $-1 $248 0 $248 6.2831853071796004 $149 $249 forward 7 unknown #
loop $-1 $-1 $156 $93 #
plane-surface $-1 -65.404828028199105 -17.298932161157474 2.1947362345960499 -0.51503808176128008 0 0.85716729658548041 0.85716729658548041 0 0.51503808176128008 forward_v I I I I #
loop $-1 $-1 $250 $60 #
coedge $-1 $154 $154 $155 $251 reversed $94 $-1 #
coedge $-1 $155 $155 $154 $251 forward $96 $-1 #
coedge $-1 $156 $156 $97 $157 forward $151 $-1 #
edge $-1 $252 0 $252 6.2831853071796004 $156 $253 forward 7 unknown #
face $-1 $254 $255 $33 $-1 $256 forward single #
loop $-1 $-1 $257 $98 #
plane-surface $-1 -132.77678235933925 7.0192241764417602 114.32049548373541 0 -1 0 0.51503808176128008 0 -0.85716729658548041 forward_v I I I I #
coedge $-1 $258 $259 $260 $261 reversed $99 $-1 #
coedge $-1 $163 $101 $262 $263 reversed $64 $-1 #
coedge $-1 $101 $162 $258 $264 reversed $64 $-1 #
coedge $-1 $260 $265 $101 $165 forward $255 $-1 #
edge $-1 $266 0.98356315147051987 $267 15.978798695521476 $164 $268 forward 7 unknown #
loop $-1 $-1 $171 $102 #
plane-surface $-1 -65.404828028199105 2.78740677482023 2.1947362345960499 -0.51503808176128008 0 0.85716729658548041 0.85716729658548041 0 0.51503808176128008 forward_v I I I I #
loop $-1 $-1 $269 $66 #
coedge $-1 $169 $169 $170 $270 reversed $103 $-1 #
coedge $-1 $170 $170 $169 $270 forward $105 $-1 #
coedge $-1 $171 $171 $106 $172 forward $166 $-1 #
edge $-1 $271 0 $271 6.2831853071796004 $171 $272 forward 7 unknown #
loop $-1 $-1 $178 $107 #
plane-surface $-1 -65.404828028199105 2.78740677482023 2.1947362345960499 -0.51503808176128008 0 0.85716729658548041 0.85716729658548041 0 0.51503808176128008 forward_v I I I I #
loop $-1 $-1 $273 $69 #
coedge $-1 $176 $176 $177 $274 reversed $108 $-1 #
coedge $-1 $177 $177 $176 $274 forward $110 $-1 #
coedge $-1 $178 $178 $111 $179 forward $173 $-1 #
edge $-1 $275 0 $275 6.2831853071796004 $178 $276 forward 7 unknown #
face $-1 $277 $278 $27 $-1 $279 reversed single #
loop $-1 $-1 $280 $112 #
plane-surface $-1 -65.404828028199105 0 0 1 0 0 0 0 -1 forward_v I I I I #
coedge $-1 $281 $191 $282 $283 forward $113 $-1 #
coedge $-1 $284 $115 $281 $285 forward $73 $-1 #
coedge $-1 $115 $284 $286 $287 forward $73 $-1 #
coedge $-1 $194 $193 $115 $187 reversed $195 $-1 #
edge $-1 $288 -31.837522141648041 $289 31.837522141648041 $186 $290 forward 7 unknown #
coedge $-1 $117 $116 $291 $292 forward $46 $-1 #
coedge $-1 $293 $294 $116 $190 reversed $278 $-1 #
edge $-1 $197 -65.404828028199105 $295 65.404828028199105 $189 $296 forward 7 unknown #
coedge $-1 $183 $297 $117 $192 reversed $113 $-1 #
edge $-1 $298 -65.404828028199105 $196 65.404828028199105 $191 $299 forward 7 unknown #
coedge $-1 $186 $118 $297 $300 forward $195 $-1 #
coedge $-1 $118 $186 $293 $301 reversed $195 $-1 #
loop $-1 $-1 $193 $277 #
vertex $-1 $119 $302 #
vertex $-1 $119 $303 #
straight-curve $-1 65.404828028199105 0 11.204782909185189 0 1 0 I I #
face $-1 $304 $305 $28 $-1 $306 reversed single #
loop $-1 $-1 $210 $120 #
plane-surface $-1 0 -36.990908431082559 7.068584504908868 0 0 1 1 0 0 forward_v I I I I #
coedge $-1 $307 $308 $124 $207 forward $121 $-1 #
coedge $-1 $309 $123 $308 $310 forward $77 $-1 #
coedge $-1 $123 $309 $311 $312 forward $77 $-1 #
coedge $-1 $125 $124 $123 $206 reversed $49 $-1 #
edge $-1 $313 -65.404828028199105 $314 65.404828028199105 $123 $315 forward 7 unknown #
edge $-1 $314 -11.204782909185189 $213 -7.068584504908868 $202 $316 forward 7 unknown #
coedge $-1 $311 $317 $125 $209 forward $318 $-1 #
edge $-1 $212 7.068584504908868 $313 11.204782909185189 $208 $319 forward 7 unknown #
coedge $-1 $320 $126 $317 $321 forward $200 $-1 #
coedge $-1 $126 $320 $307 $322 forward $200 $-1 #
vertex $-1 $209 $323 #
vertex $-1 $207 $324 #
straight-curve $-1 0 -31.837522141648041 7.068584504908868 -1 0 0 I I #
face $-1 $325 $326 $29 $-1 $327 reversed single #
loop $-1 $-1 $225 $128 #
plane-surface $-1 0 38.435319057883859 -5.2513080288026099 0 0 1 1 0 0 forward_v I I I I #
coedge $-1 $328 $329 $222 $330 forward $129 $-1 #
coedge $-1 $331 $131 $329 $332 reversed $81 $-1 #
coedge $-1 $131 $331 $225 $333 reversed $81 $-1 #
edge $-1 $227 5.2513080288026099 $334 11.204782909185189 $131 $335 forward 7 unknown #
coedge $-1 $133 $132 $218 $330 reversed $52 $-1 #
coedge $-1 $336 $337 $132 $224 forward $338 $-1 #
edge $-1 $339 -11.204782909185189 $228 -5.2513080288026099 $223 $340 forward 7 unknown #
coedge $-1 $341 $134 $220 $333 forward $216 $-1 #
coedge $-1 $134 $341 $336 $342 forward $216 $-1 #
vertex $-1 $221 $343 #
vertex $-1 $342 $344 #
straight-curve $-1 0 31.837522141648041 -5.2513080288026099 -1 0 0 I I #
face $-1 $-1 $242 $30 $-1 $345 forward single #
loop $-1 $-1 $346 $136 #
plane-surface $-1 -65.404828028199105 0 0 1 0 0 0 0 -1 forward_v I I I I #
coedge $-1 $347 $348 $349 $350 reversed $137 $-1 #
coedge $-1 $351 $139 $141 $240 forward $85 $-1 #
coedge $-1 $139 $351 $347 $352 forward $85 $-1 #
coedge $-1 $349 $142 $139 $237 forward $242 $-1 #
edge $-1 $244 -12.881283482200267 $353 -4.4176486789572067 $236 $354 forward 7 unknown #
coedge $-1 $355 $356 $140 $239 forward $231 $-1 #
edge $-1 $357 -54.965511507271657 $243 -45.955464832682516 $238 $358 forward 7 unknown #
edge $-1 $244 -17.493942668816654 $357 0 $141 $359 forward 7 unknown #
coedge $-1 $142 $349 $355 $360 forward $242 $-1 #
loop $-1 $-1 $349 $230 #
vertex $-1 $239 $361 #
vertex $-1 $143 $362 #
straight-curve $-1 -66.388391179669625 -21.530749562779004 11.204782909185191 1 0 0 I I #
coedge $-1 $246 $246 $-1 $363 reversed $146 $-1 #
edge $-1 $364 0 $364 6.2831853071796004 $147 $365 forward 7 unknown #
vertex $-1 $150 $366 #
ellipse-curve $-1 -57.90721025617362 -19.112568190423843 6.6997595718906249 -0.51503808176128008 0 0.85716729658548041 0.85716729658548041 0 0.51503808176128008 1 I I #
coedge $-1 $250 $250 $-1 $367 reversed $153 $-1 #
edge $-1 $368 0 $368 6.2831853071796004 $154 $369 forward 7 unknown #
vertex $-1 $157 $370 #
ellipse-curve $-1 -57.90721025617362 -15.485296131891101 6.6997595718906249 -0.51503808176128008 0 0.85716729658548041 0.85716729658548041 0 0.51503808176128008 1 I I #
face $-1 $-1 $371 $33 $-1 $372 reversed single #
loop $-1 $-1 $164 $158 #
plane-surface $-1 0 0 11.204782909185189 0 0 1 1 0 0 forward_v I I I I #
coedge $-1 $373 $374 $375 $376 reversed $159 $-1 #
coedge $-1 $377 $161 $163 $264 forward $99 $-1 #
coedge $-1 $161 $377 $373 $378 forward $99 $-1 #
coedge $-1 $375 $164 $161 $261 forward $255 $-1 #
edge $-1 $267 -2.8381140142114152 $379 5.6255207890316452 $260 $380 forward 7 unknown #
coedge $-1 $381 $382 $162 $263 forward $371 $-1 #
edge $-1 $383 -54.965511507271657 $266 -45.955464832682516 $262 $384 forward 7 unknown #
edge $-1 $267 -17.493942668816654 $383 0 $163 $385 forward 7 unknown #
coedge $-1 $164 $375 $381 $386 forward $255 $-1 #
vertex $-1 $165 $387 #
vertex $-1 $165 $388 #
straight-curve $-1 -66.388391179669625 -1.4444106268013002 11.204782909185191 1 0 0 I I #
coedge $-1 $269 $269 $-1 $389 reversed $168 $-1 #
edge $-1 $390 0 $390 6.2831853071796004 $169 $391 forward 7 unknown #
vertex $-1 $172 $392 #
ellipse-curve $-1 -57.90721025617362 0.97377074555386045 6.6997595718906249 -0.51503808176128008 0 0.85716729658548041 0.85716729658548041 0 0.51503808176128008 1 I I #
coedge $-1 $273 $273 $-1 $393 reversed $175 $-1 #
edge $-1 $394 0 $394 6.2831853071796004 $176 $395 forward 7 unknown #
vertex $-1 $179 $396 #
ellipse-curve $-1 -57.90721025617362 4.6010428040865996 6.6997595718906249 -0.51503808176128008 0 0.85716729658548041 0.85716729658548041 0 0.51503808176128008 1 I I #
face $-1 $-1 $195 $27 $-1 $397 reversed single #
loop $-1 $-1 $293 $180 #
plane-surface $-1 0 31.837522141648041 0 0 -1 0 0 0 -1 forward_v I I I I #
coedge $-1 $398 $291 $294 $399 forward $181 $-1 #
coedge $-1 $297 $183 $184 $285 reversed $113 $-1 #
coedge $-1 $291 $398 $183 $283 reversed $181 $-1 #
edge $-1 $298 -11.204782909185189 $400 11.204782909185189 $282 $401 forward 7 unknown #
coedge $-1 $185 $184 $398 $402 forward $73 $-1 #
edge $-1 $289 -65.404828028199105 $400 65.404828028199105 $281 $403 forward 7 unknown #
coedge $-1 $294 $293 $185 $287 reversed $278 $-1 #
edge $-1 $404 -65.404828028199105 $288 65.404828028199105 $286 $405 forward 7 unknown #
vertex $-1 $187 $406 #
vertex $-1 $300 $407 #
straight-curve $-1 65.404828028199105 0 -11.204782909185189 0 -1 0 I I #
coedge $-1 $280 $282 $188 $292 reversed $181 $-1 #
edge $-1 $295 -31.837522141648041 $298 31.837522141648041 $291 $408 forward 7 unknown #
coedge $-1 $286 $189 $194 $301 forward $278 $-1 #
coedge $-1 $189 $286 $280 $399 reversed $278 $-1 #
vertex $-1 $190 $409 #
straight-curve $-1 0 31.837522141648041 11.204782909185189 -1 0 0 I I #
coedge $-1 $191 $281 $193 $300 reversed $113 $-1 #
vertex $-1 $292 $410 #
straight-curve $-1 0 -31.837522141648041 11.204782909185189 1 0 0 I I #
edge $-1 $196 -11.204782909185189 $289 11.204782909185189 $193 $411 forward 7 unknown #
edge $-1 $197 -11.204782909185189 $288 11.204782909185189 $194 $412 forward 7 unknown #
point $-1 65.404828028199105 -31.837522141648041 11.204782909185189 #
point $-1 65.404828028199105 31.837522141648041 11.204782909185189 #
face $-1 $-1 $318 $28 $-1 $413 reversed single #
loop $-1 $-1 $414 $199 #
plane-surface $-1 0 -42.144294720517081 9.1366837070470286 0 1 0 0 0 1 forward_v I I I I #
coedge $-1 $415 $202 $211 $322 reversed $121 $-1 #
coedge $-1 $202 $415 $203 $310 reversed $121 $-1 #
coedge $-1 $204 $203 $416 $417 forward $77 $-1 #
edge $-1 $314 31.837522141648041 $418 42.144294720517081 $308 $419 forward 7 unknown #
coedge $-1 $420 $208 $204 $312 reversed $318 $-1 #
edge $-1 $421 -42.144294720517081 $313 -31.837522141648041 $311 $422 forward 7 unknown #
vertex $-1 $209 $423 #
vertex $-1 $310 $424 #
straight-curve $-1 0 -31.837522141648041 11.204782909185189 -1 0 0 I I #
straight-curve $-1 -65.404828028199105 -31.837522141648041 0 0 0 -1 I I #
coedge $-1 $208 $420 $210 $321 reversed $318 $-1 #
loop $-1 $-1 $208 $304 #
straight-curve $-1 65.404828028199105 -31.837522141648041 0 0 0 1 I I #
coedge $-1 $211 $210 $425 $426 forward $200 $-1 #
edge $-1 $212 -5.1533862894345184 $427 5.1533862894345219 $317 $428 forward 7 unknown #
edge $-1 $429 -5.1533862894345219 $213 5.1533862894345184 $307 $430 forward 7 unknown #
point $-1 65.404828028199105 -31.837522141648041 7.068584504908868 #
point $-1 -65.404828028199105 -31.837522141648041 7.068584504908868 #
face $-1 $-1 $338 $29 $-1 $431 reversed single #
loop $-1 $-1 $432 $215 #
plane-surface $-1 0 45.033115974119681 -8.2280454689938995 0 -1 0 0 0 -1 forward_v I I I I #
coedge $-1 $433 $218 $337 $434 forward $129 $-1 #
coedge $-1 $218 $433 $219 $332 forward $129 $-1 #
edge $-1 $334 -65.404828028199105 $339 65.404828028199105 $218 $435 forward 7 unknown #
coedge $-1 $220 $219 $432 $436 reversed $81 $-1 #
edge $-1 $437 -45.033115974119681 $334 -31.837522141648041 $219 $438 forward 7 unknown #
edge $-1 $227 -6.5977969162358185 $439 6.5977969162358221 $220 $440 forward 7 unknown #
vertex $-1 $330 $441 #
straight-curve $-1 65.404828028199105 31.837522141648041 0 0 0 -1 I I #
coedge $-1 $442 $223 $226 $342 reversed $338 $-1 #
coedge $-1 $223 $442 $328 $434 reversed $338 $-1 #
loop $-1 $-1 $223 $325 #
vertex $-1 $434 $443 #
straight-curve $-1 -65.404828028199105 31.837522141648041 0 0 0 1 I I #
coedge $-1 $226 $225 $444 $445 forward $216 $-1 #
edge $-1 $446 -6.5977969162358221 $228 6.5977969162358185 $336 $447 forward 7 unknown #
point $-1 65.404828028199105 31.837522141648041 -5.2513080288026099 #
point $-1 -65.404828028199105 31.837522141648041 -5.2513080288026099 #
plane-surface $-1 0 0 11.204782909185189 0 0 1 1 0 0 forward_v I I I I #
coedge $-1 $356 $355 $348 $448 forward $231 $-1 #
coedge $-1 $348 $233 $235 $352 reversed $137 $-1 #
coedge $-1 $233 $347 $346 $448 reversed $137 $-1 #
coedge $-1 $241 $236 $233 $350 forward $242 $-1 #
edge $-1 $353 -15.978798695521476 $449 -0.98356315147051987 $349 $450 forward 7 unknown #
coedge $-1 $235 $234 $356 $451 reversed $85 $-1 #
edge $-1 $452 0 $353 17.493942668816654 $347 $453 forward 7 unknown #
vertex $-1 $237 $454 #
straight-curve $-1 -50.409592484148149 -8.6494660805787369 11.204782909185187 0 1 0 I I #
coedge $-1 $346 $238 $241 $360 reversed $231 $-1 #
coedge $-1 $238 $346 $351 $451 forward $231 $-1 #
vertex $-1 $239 $455 #
straight-curve $-1 -65.404828028199105 -21.530749562779004 57.160247741867707 0 0 1 I I #
straight-curve $-1 -65.404828028199105 -21.530749562779004 2.1947362345960499 -0.85716729658548041 0 -0.51503808176128008 I I #
edge $-1 $449 13.067114759535944 $243 21.530749562779004 $355 $456 forward 7 unknown #
point $-1 -65.404828028199105 -21.530749562779004 11.204782909185189 #
point $-1 -50.409592484148149 -21.530749562779004 11.204782909185189 #
edge $-1 $457 1 $457 0 $246 $-1 forward 7 unknown #
vertex $-1 $247 $458 #
ellipse-curve $-1 -56.603275988505814 -19.112568190423843 4.5296485631671484 -0.51503808176128008 0 0.85716729658548041 0.85716729658548041 0 0.51503808176128008 1 I I #
point $-1 -57.050042959588126 -19.112568190423843 7.2147976536518907 #
edge $-1 $459 1 $459 0 $250 $-1 forward 7 unknown #
vertex $-1 $251 $460 #
ellipse-curve $-1 -56.603275988505814 -15.485296131891101 4.5296485631671484 -0.51503808176128008 0 0.85716729658548041 0.85716729658548041 0 0.51503808176128008 1 I I #
point $-1 -57.050042959588126 -15.485296131891101 7.2147976536518907 #
loop $-1 $-1 $262 $254 #
plane-surface $-1 -65.404828028199105 0 0 1 0 0 0 0 -1 forward_v I I I I #
coedge $-1 $374 $257 $259 $378 reversed $159 $-1 #
coedge $-1 $257 $373 $461 $462 reversed $159 $-1 #
coedge $-1 $265 $260 $257 $376 forward $255 $-1 #
edge $-1 $379 -15.978798695521476 $463 -0.98356315147051987 $375 $464 forward 7 unknown #
coedge $-1 $259 $258 $382 $465 reversed $99 $-1 #
edge $-1 $466 0 $379 17.493942668816654 $373 $467 forward 7 unknown #
vertex $-1 $261 $468 #
straight-curve $-1 -50.409592484148149 1.393703387410115 11.204782909185187 0 1 0 I I #
coedge $-1 $461 $262 $265 $386 reversed $371 $-1 #
coedge $-1 $262 $461 $377 $465 forward $371 $-1 #
vertex $-1 $263 $469 #
straight-curve $-1 -65.404828028199105 -1.4444106268013002 57.160247741867707 0 0 1 I I #
straight-curve $-1 -65.404828028199105 -1.4444106268013002 2.1947362345960499 -0.85716729658548041 0 -0.51503808176128008 I I #
edge $-1 $463 -7.0192241764417602 $266 1.4444106268013002 $381 $470 forward 7 unknown #
point $-1 -65.404828028199105 -1.4444106268013002 11.204782909185189 #
point $-1 -50.409592484148149 -1.4444106268013002 11.204782909185189 #
edge $-1 $471 1 $471 0 $269 $-1 forward 7 unknown #
vertex $-1 $270 $472 #
ellipse-curve $-1 -56.603275988505814 0.97377074555386045 4.5296485631671484 -0.51503808176128008 0 0.85716729658548041 0.85716729658548041 0 0.51503808176128008 1 I I #
point $-1 -57.050042959588126 0.97377074555386045 7.2147976536518907 #
edge $-1 $473 1 $473 0 $273 $-1 forward 7 unknown #
vertex $-1 $274 $474 #
ellipse-curve $-1 -56.603275988505814 4.6010428040865996 4.5296485631671484 -0.51503808176128008 0 0.85716729658548041 0.85716729658548041 0 0.51503808176128008 1 I I #
point $-1 -57.050042959588126 4.6010428040865996 7.2147976536518907 #
plane-surface $-1 65.404828028199105 0 0 -1 0 0 0 0 1 forward_v I I I I #
coedge $-1 $282 $280 $284 $402 reversed $181 $-1 #
edge $-1 $295 -11.204782909185189 $404 11.204782909185189 $294 $475 forward 7 unknown #
vertex $-1 $402 $476 #
straight-curve $-1 -65.404828028199105 -31.837522141648041 0 0 0 -1 I I #
edge $-1 $400 -31.837522141648041 $404 31.837522141648041 $398 $477 forward 7 unknown #
straight-curve $-1 0 -31.837522141648041 -11.204782909185189 -1 0 0 I I #
vertex $-1 $287 $478 #
straight-curve $-1 0 31.837522141648041 -11.204782909185189 1 0 0 I I #
point $-1 65.404828028199105 31.837522141648041 -11.204782909185189 #
point $-1 65.404828028199105 -31.837522141648041 -11.204782909185189 #
straight-curve $-1 -65.404828028199105 0 11.204782909185189 0 -1 0 I I #
point $-1 -65.404828028199105 31.837522141648041 11.204782909185189 #
point $-1 -65.404828028199105 -31.837522141648041 11.204782909185189 #
straight-curve $-1 65.404828028199105 -31.837522141648041 0 0 0 -1 I I #
straight-curve $-1 65.404828028199105 31.837522141648041 0 0 0 -1 I I #
plane-surface $-1 65.404828028199105 0 0 -1 0 0 0 0 1 forward_v I I I I #
coedge $-1 $425 $416 $415 $479 forward $305 $-1 #
coedge $-1 $308 $307 $414 $479 reversed $121 $-1 #
coedge $-1 $414 $480 $309 $417 reversed $305 $-1 #
edge $-1 $418 -65.404828028199105 $421 65.404828028199105 $416 $481 forward 7 unknown #
vertex $-1 $310 $482 #
straight-curve $-1 -65.404828028199105 0 11.204782909185189 0 -1 0 I I #
coedge $-1 $317 $311 $480 $483 forward $318 $-1 #
vertex $-1 $312 $484 #
straight-curve $-1 65.404828028199105 0 11.204782909185189 0 1 0 I I #
point $-1 65.404828028199105 -31.837522141648041 11.204782909185189 #
point $-1 -65.404828028199105 -31.837522141648041 11.204782909185189 #
coedge $-1 $480 $414 $320 $426 reversed $305 $-1 #
edge $-1 $427 -65.404828028199105 $429 65.404828028199105 $425 $485 forward 7 unknown #
vertex $-1 $483 $486 #
straight-curve $-1 65.404828028199105 -36.990908431082559 7.068584504908868 0 -1 0 I I #
vertex $-1 $322 $487 #
straight-curve $-1 -65.404828028199105 -36.990908431082559 7.068584504908868 0 1 0 I I #
plane-surface $-1 -65.404828028199105 0 0 1 0 0 0 0 -1 forward_v I I I I #
coedge $-1 $488 $444 $331 $436 forward $326 $-1 #
coedge $-1 $329 $328 $488 $489 forward $129 $-1 #
edge $-1 $339 -6.5977969162358185 $490 6.5977969162358221 $337 $491 forward 7 unknown #
straight-curve $-1 0 31.837522141648041 -11.204782909185189 -1 0 0 I I #
edge $-1 $439 -2.9767374401912896 $437 2.9767374401912896 $331 $492 forward 7 unknown #
vertex $-1 $332 $493 #
straight-curve $-1 65.404828028199105 0 -11.204782909185189 0 -1 0 I I #
vertex $-1 $333 $494 #
straight-curve $-1 65.404828028199105 38.435319057883859 -5.2513080288026099 0 1 0 I I #
point $-1 65.404828028199105 31.837522141648041 -11.204782909185189 #
coedge $-1 $337 $336 $495 $496 forward $338 $-1 #
point $-1 -65.404828028199105 31.837522141648041 -11.204782909185189 #
coedge $-1 $432 $495 $341 $445 reversed $326 $-1 #
edge $-1 $439 -65.404828028199105 $446 65.404828028199105 $444 $497 forward 7 unknown #
vertex $-1 $445 $498 #
straight-curve $-1 -65.404828028199105 38.435319057883859 -5.2513080288026099 0 -1 0 I I #
edge $-1 $449 45.955464832682516 $452 54.965511507271657 $346 $499 forward 7 unknown #
vertex $-1 $360 $500 #
straight-curve $-1 -66.388391179669625 -13.067114759535944 11.204782909185191 -1 0 0 I I #
edge $-1 $452 4.4176486789572067 $357 12.881283482200267 $356 $501 forward 7 unknown #
vertex $-1 $451 $502 #
straight-curve $-1 -65.404828028199105 -13.067114759535944 2.1947362345960499 0.85716729658548041 0 0.51503808176128008 I I #
point $-1 -50.409592484148149 -13.067114759535944 11.204782909185189 #
point $-1 -65.404828028199105 -21.530749562779004 2.1947362345960499 #
straight-curve $-1 -65.404828028199105 0 11.204782909185189 0 -1 0 I I #
vertex $-1 $363 $503 #
point $-1 -55.746108691920334 -19.112568190423843 5.0446866449284284 #
vertex $-1 $367 $504 #
point $-1 -55.746108691920334 -15.485296131891101 5.0446866449284284 #
coedge $-1 $382 $381 $374 $462 forward $371 $-1 #
edge $-1 $463 45.955464832682516 $466 54.965511507271657 $461 $505 forward 7 unknown #
vertex $-1 $386 $506 #
straight-curve $-1 -66.388391179669625 7.0192241764417602 11.204782909185191 -1 0 0 I I #
edge $-1 $466 -5.6255207890316452 $383 2.8381140142114152 $382 $507 forward 7 unknown #
vertex $-1 $465 $508 #
straight-curve $-1 -65.404828028199105 7.0192241764417602 2.1947362345960499 0.85716729658548041 0 0.51503808176128008 I I #
point $-1 -50.409592484148149 7.0192241764417602 11.204782909185189 #
point $-1 -65.404828028199105 -1.4444106268013002 2.1947362345960499 #
straight-curve $-1 -65.404828028199105 0 11.204782909185189 0 -1 0 I I #
vertex $-1 $389 $509 #
point $-1 -55.746108691920334 0.97377074555386045 5.0446866449284284 #
vertex $-1 $393 $510 #
point $-1 -55.746108691920334 4.6010428040865996 5.0446866449284284 #
straight-curve $-1 -65.404828028199105 31.837522141648041 0 0 0 -1 I I #
point $-1 -65.404828028199105 -31.837522141648041 -11.204782909185189 #
straight-curve $-1 -65.404828028199105 0 -11.204782909185189 0 1 0 I I #
point $-1 -65.404828028199105 31.837522141648041 -11.204782909185189 #
edge $-1 $418 -2.0680992021381606 $429 2.0680992021381606 $415 $511 forward 7 unknown #
coedge $-1 $416 $425 $420 $483 reversed $305 $-1 #
straight-curve $-1 0 -42.144294720517081 11.204782909185189 1 0 0 I I #
point $-1 -65.404828028199105 -42.144294720517081 11.204782909185189 #
edge $-1 $421 -2.0680992021381606 $427 2.0680992021381606 $420 $512 forward 7 unknown #
point $-1 65.404828028199105 -42.144294720517081 11.204782909185189 #
straight-curve $-1 0 -42.144294720517081 7.068584504908868 -1 0 0 I I #
point $-1 65.404828028199105 -42.144294720517081 7.068584504908868 #
point $-1 -65.404828028199105 -42.144294720517081 7.068584504908868 #
coedge $-1 $495 $432 $433 $489 reversed $326 $-1 #
edge $-1 $490 -65.404828028199105 $437 65.404828028199105 $488 $513 forward 7 unknown #
vertex $-1 $489 $514 #
straight-curve $-1 -65.404828028199105 38.435319057883859 -11.204782909185189 0 1 0 I I #
straight-curve $-1 65.404828028199105 45.033115974119681 -8.2280454689938995 0 0 -1 I I #
point $-1 65.404828028199105 45.033115974119681 -11.204782909185189 #
point $-1 65.404828028199105 45.033115974119681 -5.2513080288026099 #
coedge $-1 $444 $488 $442 $496 reversed $326 $-1 #
edge $-1 $446 -2.9767374401912896 $490 2.9767374401912896 $495 $515 forward 7 unknown #
straight-curve $-1 0 45.033115974119681 -5.2513080288026099 -1 0 0 I I #
point $-1 -65.404828028199105 45.033115974119681 -5.2513080288026099 #
straight-curve $-1 -65.404828028199105 -13.067114759535944 57.160247741867707 0 0 -1 I I #
point $-1 -65.404828028199105 -13.067114759535944 11.204782909185189 #
straight-curve $-1 -65.404828028199105 -8.6494660805787369 2.1947362345960508 0 -1 0 I I #
point $-1 -65.404828028199105 -13.067114759535944 2.1947362345960499 #
point $-1 -56.088237906744538 -19.112568190423843 3.6724812665816682 #
point $-1 -56.088237906744538 -15.485296131891101 3.6724812665816682 #
straight-curve $-1 -65.404828028199105 7.0192241764417602 57.160247741867707 0 0 -1 I I #
point $-1 -65.404828028199105 7.0192241764417602 11.204782909185189 #
straight-curve $-1 -65.404828028199105 1.393703387410115 2.1947362345960508 0 -1 0 I I #
point $-1 -65.404828028199105 7.0192241764417602 2.1947362345960499 #
point $-1 -56.088237906744538 0.97377074555386045 3.6724812665816682 #
point $-1 -56.088237906744538 4.6010428040865996 3.6724812665816682 #
straight-curve $-1 -65.404828028199105 -42.144294720517081 9.1366837070470286 0 0 -1 I I #
straight-curve $-1 65.404828028199105 -42.144294720517081 9.1366837070470286 0 0 -1 I I #
straight-curve $-1 0 45.033115974119681 -11.204782909185189 1 0 0 I I #
point $-1 -65.404828028199105 45.033115974119681 -11.204782909185189 #
straight-curve $-1 -65.404828028199105 45.033115974119681 -8.2280454689938995 0 0 -1 I I #
End-of-ACIS-data 