500 0 5 0           
7 Unknown 11 ACIS 5.0 NT 24 Thu Mar 25 21:13:19 1999 
-1 9.9999999999999995e-007 1e-010 
body $-1 $5 $-1 $6 #
body $-1 $7 $-1 $8 #
body $-1 $9 $-1 $10 #
body $-1 $11 $-1 $12 #
body $-1 $13 $-1 $14 #
lump $-1 $-1 $15 $0 #
transform $-1 1 0 0 0 1 0 0 0 1 60.482802819910276 37.552978003782663 18.408603448156956 1 rotate no_reflect no_shear #
lump $-1 $-1 $16 $1 #
transform $-1 1 0 0 0 1 0 0 0 1 60.482802819910276 37.552978003782663 18.408603448156956 1 rotate no_reflect no_shear #
lump $-1 $-1 $17 $2 #
transform $-1 1 0 0 0 1 0 0 0 1 60.482802819910276 37.552978003782663 18.408603448156956 1 rotate no_reflect no_shear #
lump $-1 $-1 $18 $3 #
transform $-1 1 0 0 0 1 0 0 0 1 60.482802819910276 37.552978003782663 18.408603448156956 1 rotate no_reflect no_shear #
lump $-1 $-1 $19 $4 #
transform $-1 1 0 0 0 1 0 0 0 1 60.482802819910276 37.552978003782663 18.408603448156956 1 rotate no_reflect no_shear #
shell $-1 $-1 $-1 $20 $-1 $5 #
shell $-1 $-1 $-1 $21 $-1 $7 #
shell $-1 $-1 $-1 $22 $-1 $9 #
shell $-1 $-1 $-1 $23 $-1 $11 #
shell $-1 $-1 $-1 $24 $-1 $13 #
face $-1 $25 $26 $15 $-1 $27 forward single #
face $-1 $28 $29 $16 $-1 $30 forward single #
face $-1 $31 $32 $17 $-1 $33 reversed single #
face $-1 $34 $35 $18 $-1 $36 forward single #
face $-1 $37 $38 $19 $-1 $39 forward single #
face $-1 $40 $41 $15 $-1 $42 reversed single #
loop $-1 $-1 $43 $20 #
plane-surface $-1 0 0 18.408603448156956 0 0 1 1 0 0 forward_v I I I I #
face $-1 $44 $45 $16 $-1 $46 reversed single #
loop $-1 $-1 $47 $21 #
plane-surface $-1 -51.177084393220596 0 -13.553377409779714 0 0 1 1 0 0 forward_v I I I I #
face $-1 $48 $49 $17 $-1 $50 reversed single #
loop $-1 $-1 $51 $22 #
plane-surface $-1 93.124729069038196 -25.259182567930232 173.22971138783137 0 -1 0 -0.82903758062907751 0 -0.55919289150049634 forward_v I I I I #
face $-1 $52 $53 $18 $-1 $54 forward single #
loop $-1 $55 $56 $23 #
cone-surface $-1 54.806117868164733 -34.040465022110538 11.007714102359691 -0.82903758062907751 0 -0.55919289150049634 0.55919289150049634 0 -0.82903758062907751 1 I I 0 1 1 forward I I I I #
face $-1 $57 $58 $19 $-1 $59 forward single #
loop $-1 $60 $61 $24 #
cone-surface $-1 54.806117868164733 -28.771695549602356 11.007714102359691 -0.82903758062907751 0 -0.55919289150049634 0.55919289150049634 0 -0.82903758062907751 1 I I 0 1 1 forward I I I I #
face $-1 $62 $63 $15 $-1 $64 reversed single #
loop $-1 $-1 $65 $25 #
plane-surface $-1 0 0 -18.408603448156956 0 0 1 1 0 0 forward_v I I I I #
coedge $-1 $66 $67 $68 $69 forward $26 $-1 #
face $-1 $70 $71 $16 $-1 $72 reversed single #
loop $-1 $-1 $73 $28 #
plane-surface $-1 -51.177084393220596 0 -17.856901813404455 0 0 1 1 0 0 forward_v I I I I #
coedge $-1 $74 $75 $76 $77 forward $29 $-1 #
face $-1 $78 $79 $17 $-1 $80 reversed single #
loop $-1 $-1 $81 $31 #
plane-surface $-1 -7.1603039699297284 -31.406080285856447 105.58660459799137 0.82903758062907751 0 0.55919289150049634 0.55919289150049634 0 -0.82903758062907751 forward_v I I I I #
coedge $-1 $82 $83 $84 $85 reversed $32 $-1 #
face $-1 $-1 $86 $18 $-1 $87 forward single #
loop $-1 $88 $89 $34 #
cone-surface $-1 53.135316308302606 -34.040465022110538 9.8807442553789393 -0.82903758062907751 0 -0.55919289150049634 0.27959644575024817 0 -0.41451879031453875 1 I I -0.70710678118654746 0.70710678118654746 0.5 forward I I I I #
loop $-1 $-1 $90 $23 #
coedge $-1 $56 $56 $91 $92 reversed $35 $-1 #
face $-1 $-1 $93 $19 $-1 $94 forward single #
loop $-1 $95 $96 $37 #
cone-surface $-1 53.135316308302606 -28.771695549602356 9.8807442553789393 -0.82903758062907751 0 -0.55919289150049634 0.27959644575024817 0 -0.41451879031453875 1 I I -0.70710678118654746 0.70710678118654746 0.5 forward I I I I #
loop $-1 $-1 $97 $24 #
coedge $-1 $61 $61 $98 $99 reversed $38 $-1 #
face $-1 $100 $101 $15 $-1 $102 reversed single #
loop $-1 $-1 $103 $40 #
plane-surface $-1 0 -37.552978003782663 0 0 1 0 0 0 1 forward_v I I I I #
coedge $-1 $104 $105 $106 $107 forward $41 $-1 #
coedge $-1 $108 $43 $109 $110 forward $26 $-1 #
coedge $-1 $43 $108 $111 $112 forward $26 $-1 #
coedge $-1 $113 $114 $43 $69 reversed $115 $-1 #
edge $-1 $116 -37.552978003782663 $117 37.552978003782663 $68 $118 forward 7 unknown #
face $-1 $119 $120 $16 $-1 $121 reversed single #
loop $-1 $-1 $122 $44 #
plane-surface $-1 -41.871365966530917 0 -15.705139611592084 -1 0 0 0 0 1 forward_v I I I I #
coedge $-1 $123 $124 $125 $126 forward $45 $-1 #
coedge $-1 $127 $47 $128 $129 reversed $29 $-1 #
coedge $-1 $47 $127 $130 $131 reversed $29 $-1 #
coedge $-1 $122 $132 $47 $77 reversed $71 $-1 #
edge $-1 $133 -37.552978003782663 $134 37.552978003782663 $76 $135 forward 7 unknown #
face $-1 $136 $137 $17 $-1 $138 forward single #
loop $-1 $-1 $139 $48 #
plane-surface $-1 0 -37.552978003782663 0 0 1 0 0 0 1 forward_v I I I I #
coedge $-1 $140 $141 $142 $143 reversed $49 $-1 #
coedge $-1 $83 $51 $144 $145 reversed $32 $-1 #
coedge $-1 $51 $82 $140 $146 reversed $32 $-1 #
coedge $-1 $142 $147 $51 $85 forward $137 $-1 #
edge $-1 $148 -13.920438285391178 $149 -5.0796339209952635 $84 $150 forward 7 unknown #
loop $-1 $-1 $91 $52 #
plane-surface $-1 -7.1603039699297284 -31.406080285856447 105.58660459799137 0.82903758062907751 0 0.55919289150049634 0.55919289150049634 0 -0.82903758062907751 forward_v I I I I #
loop $-1 $-1 $151 $34 #
coedge $-1 $89 $89 $90 $152 reversed $53 $-1 #
coedge $-1 $90 $90 $89 $152 forward $55 $-1 #
coedge $-1 $91 $91 $56 $92 forward $86 $-1 #
edge $-1 $153 0 $153 6.2831853071796004 $91 $154 forward 7 unknown #
loop $-1 $-1 $98 $57 #
plane-surface $-1 -7.1603039699297284 -31.406080285856447 105.58660459799137 0.82903758062907751 0 0.55919289150049634 0.55919289150049634 0 -0.82903758062907751 forward_v I I I I #
loop $-1 $-1 $155 $37 #
coedge $-1 $96 $96 $97 $156 reversed $58 $-1 #
coedge $-1 $97 $97 $96 $156 forward $60 $-1 #
coedge $-1 $98 $98 $61 $99 forward $93 $-1 #
edge $-1 $157 0 $157 6.2831853071796004 $98 $158 forward 7 unknown #
face $-1 $159 $160 $15 $-1 $161 reversed single #
loop $-1 $-1 $162 $62 #
plane-surface $-1 -60.482802819910276 0 0 1 0 0 0 0 -1 forward_v I I I I #
coedge $-1 $163 $111 $164 $165 forward $63 $-1 #
coedge $-1 $166 $65 $163 $167 forward $41 $-1 #
coedge $-1 $65 $166 $168 $169 forward $41 $-1 #
coedge $-1 $114 $113 $65 $107 reversed $115 $-1 #
edge $-1 $170 -37.552978003782663 $171 37.552978003782663 $106 $172 forward 7 unknown #
coedge $-1 $67 $66 $173 $174 forward $26 $-1 #
coedge $-1 $175 $176 $66 $110 reversed $160 $-1 #
edge $-1 $117 -60.482802819910276 $177 60.482802819910276 $109 $178 forward 7 unknown #
coedge $-1 $103 $179 $67 $112 reversed $63 $-1 #
edge $-1 $180 -60.482802819910276 $116 60.482802819910276 $111 $181 forward 7 unknown #
coedge $-1 $106 $68 $179 $182 forward $115 $-1 #
coedge $-1 $68 $106 $175 $183 reversed $115 $-1 #
loop $-1 $-1 $113 $159 #
vertex $-1 $69 $184 #
vertex $-1 $69 $185 #
straight-curve $-1 60.482802819910276 0 18.408603448156956 0 1 0 I I #
face $-1 $186 $187 $16 $-1 $188 reversed single #
loop $-1 $-1 $189 $70 #
plane-surface $-1 0 -37.552978003782663 0 0 1 0 0 0 1 forward_v I I I I #
coedge $-1 $125 $76 $190 $191 reversed $71 $-1 #
coedge $-1 $192 $73 $189 $193 reversed $45 $-1 #
coedge $-1 $73 $192 $194 $195 reversed $45 $-1 #
coedge $-1 $132 $122 $73 $126 reversed $71 $-1 #
edge $-1 $196 -37.552978003782663 $197 37.552978003782663 $125 $198 forward 7 unknown #
coedge $-1 $75 $74 $199 $200 reversed $29 $-1 #
coedge $-1 $201 $202 $74 $129 forward $203 $-1 #
edge $-1 $204 -34.894260623299978 $134 -16.282823769920618 $128 $205 forward 7 unknown #
coedge $-1 $206 $190 $75 $131 forward $120 $-1 #
edge $-1 $133 16.282823769920618 $207 34.894260623299978 $130 $208 forward 7 unknown #
coedge $-1 $76 $125 $201 $209 reversed $71 $-1 #
vertex $-1 $131 $210 #
vertex $-1 $129 $211 #
straight-curve $-1 -41.871365966530917 0 -13.553377409779714 0 1 0 I I #
face $-1 $-1 $212 $17 $-1 $213 reversed single #
loop $-1 $-1 $142 $78 #
plane-surface $-1 0 0 18.408603448156956 0 0 1 1 0 0 forward_v I I I I #
coedge $-1 $214 $215 $141 $216 forward $79 $-1 #
coedge $-1 $217 $81 $83 $146 forward $49 $-1 #
coedge $-1 $81 $217 $139 $216 reversed $49 $-1 #
coedge $-1 $218 $84 $81 $143 forward $137 $-1 #
edge $-1 $149 9.5561424250020082 $219 21.849937860854439 $142 $220 forward 7 unknown #
coedge $-1 $221 $222 $82 $145 forward $212 $-1 #
edge $-1 $223 -81.313284134892243 $148 -68.206252245758733 $144 $224 forward 7 unknown #
edge $-1 $149 105.1556686775084 $223 120.96560563982055 $83 $225 forward 7 unknown #
coedge $-1 $84 $218 $221 $226 forward $137 $-1 #
vertex $-1 $145 $227 #
vertex $-1 $85 $228 #
straight-curve $-1 46.562364534519098 -25.259182567930232 18.408603448156953 -1 0 0 I I #
coedge $-1 $151 $151 $-1 $229 reversed $88 $-1 #
edge $-1 $230 0 $230 6.2831853071796004 $89 $231 forward 7 unknown #
vertex $-1 $92 $232 #
ellipse-curve $-1 56.062400637712322 -34.040465022110538 11.855087503590193 0.82903758062907751 0 0.55919289150049634 0.55919289150049634 0 -0.82903758062907751 1 I I #
coedge $-1 $155 $155 $-1 $233 reversed $95 $-1 #
edge $-1 $234 0 $234 6.2831853071796004 $96 $235 forward 7 unknown #
vertex $-1 $99 $236 #
ellipse-curve $-1 56.062400637712322 -28.771695549602356 11.855087503590193 0.82903758062907751 0 0.55919289150049634 0.55919289150049634 0 -0.82903758062907751 1 I I #
face $-1 $-1 $115 $15 $-1 $237 reversed single #
loop $-1 $-1 $175 $100 #
plane-surface $-1 0 37.552978003782663 0 0 -1 0 0 0 -1 forward_v I I I I #
coedge $-1 $238 $173 $176 $239 forward $101 $-1 #
coedge $-1 $179 $103 $104 $167 reversed $63 $-1 #
coedge $-1 $173 $238 $103 $165 reversed $101 $-1 #
edge $-1 $180 -18.408603448156956 $240 18.408603448156956 $164 $241 forward 7 unknown #
coedge $-1 $105 $104 $238 $242 forward $41 $-1 #
edge $-1 $171 -60.482802819910276 $240 60.482802819910276 $163 $243 forward 7 unknown #
coedge $-1 $176 $175 $105 $169 reversed $160 $-1 #
edge $-1 $244 -60.482802819910276 $170 60.482802819910276 $168 $245 forward 7 unknown #
vertex $-1 $107 $246 #
vertex $-1 $182 $247 #
straight-curve $-1 60.482802819910276 0 -18.408603448156956 0 -1 0 I I #
coedge $-1 $162 $164 $108 $174 reversed $101 $-1 #
edge $-1 $177 -37.552978003782663 $180 37.552978003782663 $173 $248 forward 7 unknown #
coedge $-1 $168 $109 $114 $183 forward $160 $-1 #
coedge $-1 $109 $168 $162 $239 reversed $160 $-1 #
vertex $-1 $110 $249 #
straight-curve $-1 0 37.552978003782663 18.408603448156956 -1 0 0 I I #
coedge $-1 $111 $163 $113 $182 reversed $63 $-1 #
vertex $-1 $174 $250 #
straight-curve $-1 0 -37.552978003782663 18.408603448156956 1 0 0 I I #
edge $-1 $116 -18.408603448156956 $171 18.408603448156956 $113 $251 forward 7 unknown #
edge $-1 $117 -18.408603448156956 $170 18.408603448156956 $114 $252 forward 7 unknown #
point $-1 60.482802819910276 -37.552978003782663 18.408603448156956 #
point $-1 60.482802819910276 37.552978003782663 18.408603448156956 #
face $-1 $-1 $203 $16 $-1 $253 reversed single #
loop $-1 $-1 $254 $119 #
plane-surface $-1 -60.482802819910276 0 0 1 0 0 0 0 -1 forward_v I I I I #
coedge $-1 $190 $206 $123 $193 forward $120 $-1 #
coedge $-1 $130 $189 $122 $191 forward $120 $-1 #
edge $-1 $197 -10.004332007608413 $133 -5.7008076039836713 $190 $255 forward 7 unknown #
coedge $-1 $124 $123 $254 $256 reversed $45 $-1 #
edge $-1 $257 -34.894260623299978 $197 -16.282823769920618 $189 $258 forward 7 unknown #
coedge $-1 $202 $201 $124 $195 forward $203 $-1 #
edge $-1 $196 16.282823769920618 $259 34.894260623299978 $194 $260 forward 7 unknown #
vertex $-1 $195 $261 #
vertex $-1 $193 $262 #
straight-curve $-1 -41.871365966530917 0 -17.856901813404455 0 -1 0 I I #
coedge $-1 $263 $264 $127 $200 forward $187 $-1 #
edge $-1 $207 -37.552978003782663 $204 37.552978003782663 $199 $265 forward 7 unknown #
coedge $-1 $194 $128 $132 $209 forward $203 $-1 #
coedge $-1 $128 $194 $263 $266 reversed $203 $-1 #
loop $-1 $-1 $194 $186 #
vertex $-1 $266 $267 #
straight-curve $-1 -25.588542196610298 37.552978003782663 -13.553377409779714 1 0 0 I I #
coedge $-1 $189 $130 $264 $268 forward $120 $-1 #
vertex $-1 $268 $269 #
straight-curve $-1 -25.588542196610298 -37.552978003782663 -13.553377409779714 -1 0 0 I I #
edge $-1 $134 5.7008076039836713 $196 10.004332007608413 $201 $270 forward 7 unknown #
point $-1 -41.871365966530917 -37.552978003782663 -13.553377409779714 #
point $-1 -41.871365966530917 37.552978003782663 -13.553377409779714 #
loop $-1 $-1 $144 $136 #
plane-surface $-1 60.482802819910276 0 0 -1 0 0 0 0 1 forward_v I I I I #
coedge $-1 $215 $139 $271 $272 reversed $79 $-1 #
coedge $-1 $139 $214 $218 $273 reversed $79 $-1 #
edge $-1 $219 59.386041525645744 $274 75.195978487957916 $139 $275 forward 7 unknown #
coedge $-1 $141 $140 $222 $276 reversed $49 $-1 #
coedge $-1 $147 $142 $215 $273 forward $137 $-1 #
vertex $-1 $273 $277 #
straight-curve $-1 51.641998455514361 -15.703040142928224 18.408603448156953 0 -1 0 I I #
coedge $-1 $271 $144 $147 $226 reversed $212 $-1 #
coedge $-1 $144 $271 $217 $276 forward $212 $-1 #
vertex $-1 $145 $278 #
straight-curve $-1 60.482802819910276 -25.259182567930232 86.614855693915686 0 0 1 I I #
straight-curve $-1 -7.1603039699297284 -25.259182567930232 105.58660459799137 0.55919289150049634 0 -0.82903758062907751 I I #
edge $-1 $279 -37.552978003782663 $148 -25.259182567930232 $221 $280 forward 7 unknown #
point $-1 60.482802819910276 -25.259182567930232 18.408603448156956 #
point $-1 51.641998455514361 -25.259182567930232 18.408603448156953 #
edge $-1 $281 1 $281 0 $151 $-1 forward 7 unknown #
vertex $-1 $152 $282 #
ellipse-curve $-1 53.549835098617145 -34.040465022110538 10.160340701129188 0.82903758062907751 0 0.55919289150049634 0.55919289150049634 0 -0.82903758062907751 1 I I #
point $-1 56.621593529212824 -34.040465022110538 11.026049922961116 #
edge $-1 $283 1 $283 0 $155 $-1 forward 7 unknown #
vertex $-1 $156 $284 #
ellipse-curve $-1 53.549835098617145 -28.771695549602356 10.160340701129188 0.82903758062907751 0 0.55919289150049634 0.55919289150049634 0 -0.82903758062907751 1 I I #
point $-1 56.621593529212824 -28.771695549602356 11.026049922961116 #
plane-surface $-1 60.482802819910276 0 0 -1 0 0 0 0 1 forward_v I I I I #
coedge $-1 $164 $162 $166 $242 reversed $101 $-1 #
edge $-1 $177 -18.408603448156956 $244 18.408603448156956 $176 $285 forward 7 unknown #
vertex $-1 $242 $286 #
straight-curve $-1 -60.482802819910276 -37.552978003782663 0 0 0 -1 I I #
edge $-1 $240 -37.552978003782663 $244 37.552978003782663 $238 $287 forward 7 unknown #
straight-curve $-1 0 -37.552978003782663 -18.408603448156956 -1 0 0 I I #
vertex $-1 $169 $288 #
straight-curve $-1 0 37.552978003782663 -18.408603448156956 1 0 0 I I #
point $-1 60.482802819910276 37.552978003782663 -18.408603448156956 #
point $-1 60.482802819910276 -37.552978003782663 -18.408603448156956 #
straight-curve $-1 -60.482802819910276 0 18.408603448156956 0 -1 0 I I #
point $-1 -60.482802819910276 37.552978003782663 18.408603448156956 #
point $-1 -60.482802819910276 -37.552978003782663 18.408603448156956 #
straight-curve $-1 60.482802819910276 -37.552978003782663 0 0 0 -1 I I #
straight-curve $-1 60.482802819910276 37.552978003782663 0 0 0 -1 I I #
plane-surface $-1 0 37.552978003782663 0 0 -1 0 0 0 -1 forward_v I I I I #
coedge $-1 $264 $263 $192 $256 forward $187 $-1 #
straight-curve $-1 -41.871365966530917 -37.552978003782663 -7.8525698057960422 0 0 1 I I #
edge $-1 $259 -37.552978003782663 $257 37.552978003782663 $254 $289 forward 7 unknown #
vertex $-1 $193 $290 #
straight-curve $-1 -25.588542196610298 -37.552978003782663 -17.856901813404455 1 0 0 I I #
vertex $-1 $195 $291 #
straight-curve $-1 -25.588542196610298 37.552978003782663 -17.856901813404455 -1 0 0 I I #
point $-1 -41.871365966530917 37.552978003782663 -17.856901813404455 #
point $-1 -41.871365966530917 -37.552978003782663 -17.856901813404455 #
coedge $-1 $254 $199 $202 $266 forward $187 $-1 #
coedge $-1 $199 $254 $206 $268 reversed $187 $-1 #
straight-curve $-1 -60.482802819910276 0 -13.553377409779714 0 1 0 I I #
edge $-1 $204 13.553377409779714 $259 17.856901813404455 $202 $292 forward 7 unknown #
point $-1 -60.482802819910276 37.552978003782663 -13.553377409779714 #
edge $-1 $207 13.553377409779714 $257 17.856901813404455 $264 $293 forward 7 unknown #
point $-1 -60.482802819910276 -37.552978003782663 -13.553377409779714 #
straight-curve $-1 -41.871365966530917 37.552978003782663 -7.8525698057960422 0 0 -1 I I #
coedge $-1 $222 $221 $214 $272 forward $212 $-1 #
edge $-1 $279 -18.408603448156956 $274 -5.301571559023448 $271 $294 forward 7 unknown #
edge $-1 $219 51.641998455514361 $279 60.482802819910276 $215 $295 forward 7 unknown #
vertex $-1 $216 $296 #
straight-curve $-1 18.43374618001997 -37.552978003782663 67.641863637716227 0.55919289150049634 0 -0.82903758062907751 I I #
edge $-1 $274 -21.849937860854439 $223 -9.5561424250020082 $222 $297 forward 7 unknown #
point $-1 51.641998455514361 -37.552978003782663 18.408603448156956 #
point $-1 60.482802819910276 -25.259182567930232 5.3015715590234436 #
vertex $-1 $226 $298 #
straight-curve $-1 60.482802819910276 0 18.408603448156956 0 1 0 I I #
vertex $-1 $229 $299 #
point $-1 54.109027990117639 -34.040465022110538 9.3313031205001096 #
vertex $-1 $233 $300 #
point $-1 54.109027990117639 -28.771695549602356 9.3313031205001096 #
straight-curve $-1 -60.482802819910276 37.552978003782663 0 0 0 -1 I I #
point $-1 -60.482802819910276 -37.552978003782663 -18.408603448156956 #
straight-curve $-1 -60.482802819910276 0 -18.408603448156956 0 1 0 I I #
point $-1 -60.482802819910276 37.552978003782663 -18.408603448156956 #
straight-curve $-1 -60.482802819910276 0 -17.856901813404455 0 -1 0 I I #
point $-1 -60.482802819910276 -37.552978003782663 -17.856901813404455 #
point $-1 -60.482802819910276 37.552978003782663 -17.856901813404455 #
straight-curve $-1 -60.482802819910276 37.552978003782663 0 0 0 -1 I I #
straight-curve $-1 -60.482802819910276 -37.552978003782663 0 0 0 -1 I I #
straight-curve $-1 60.482802819910276 -37.552978003782663 0 0 0 -1 I I #
straight-curve $-1 0 -37.552978003782663 18.408603448156956 1 0 0 I I #
point $-1 60.482802819910276 -37.552978003782663 5.301571559023448 #
straight-curve $-1 60.482802819910276 -15.703040142928224 5.3015715590234507 0 1 0 I I #
point $-1 60.482802819910276 -37.552978003782663 18.408603448156956 #
point $-1 52.720797517988068 -34.040465022110538 9.6011478096286904 #
point $-1 52.720797517988068 -28.771695549602356 9.6011478096286904 #
End-of-ACIS-data 