500 0 7 0           
7 Unknown 11 ACIS 5.0 NT 24 Fri Mar 26 18:47:20 1999 
-1 9.9999999999999995e-007 1e-010 
body $-1 $7 $-1 $8 #
body $-1 $9 $-1 $10 #
body $-1 $11 $-1 $12 #
body $-1 $13 $-1 $14 #
body $-1 $15 $-1 $16 #
body $-1 $17 $-1 $18 #
body $-1 $19 $-1 $20 #
lump $-1 $-1 $21 $0 #
transform $-1 1 0 0 0 1 0 0 0 1 46.698202459791865 20.481395215015318 7.75532745906734 1 rotate no_reflect no_shear #
lump $-1 $-1 $22 $1 #
transform $-1 1 0 0 0 1 0 0 0 1 46.698202459791865 20.481395215015318 7.75532745906734 1 rotate no_reflect no_shear #
lump $-1 $-1 $23 $2 #
transform $-1 1 0 0 0 1 0 0 0 1 46.698202459791865 20.481395215015318 7.75532745906734 1 rotate no_reflect no_shear #
lump $-1 $-1 $24 $3 #
transform $-1 1 0 0 0 1 0 0 0 1 46.698202459791865 20.481395215015318 7.75532745906734 1 rotate no_reflect no_shear #
lump $-1 $-1 $25 $4 #
transform $-1 1 0 0 0 1 0 0 0 1 46.698202459791865 20.481395215015318 7.75532745906734 1 rotate no_reflect no_shear #
lump $-1 $-1 $26 $5 #
transform $-1 1 0 0 0 1 0 0 0 1 46.698202459791865 20.481395215015318 7.75532745906734 1 rotate no_reflect no_shear #
lump $-1 $-1 $27 $6 #
transform $-1 1 0 0 0 1 0 0 0 1 46.698202459791865 20.481395215015318 7.75532745906734 1 rotate no_reflect no_shear #
shell $-1 $-1 $-1 $28 $-1 $7 #
shell $-1 $-1 $-1 $29 $-1 $9 #
shell $-1 $-1 $-1 $30 $-1 $11 #
shell $-1 $-1 $-1 $31 $-1 $13 #
shell $-1 $-1 $-1 $32 $-1 $15 #
shell $-1 $-1 $-1 $33 $-1 $17 #
shell $-1 $-1 $-1 $34 $-1 $19 #
face $-1 $35 $36 $21 $-1 $37 forward single #
face $-1 $38 $39 $22 $-1 $40 forward single #
face $-1 $41 $42 $23 $-1 $43 reversed single #
face $-1 $44 $45 $24 $-1 $46 forward single #
face $-1 $47 $48 $25 $-1 $49 reversed single #
face $-1 $50 $51 $26 $-1 $52 forward single #
face $-1 $53 $54 $27 $-1 $55 forward single #
face $-1 $56 $57 $21 $-1 $58 reversed single #
loop $-1 $-1 $59 $28 #
plane-surface $-1 0 0 7.75532745906734 0 0 1 1 0 0 forward_v I I I I #
face $-1 $60 $61 $22 $-1 $62 forward single #
loop $-1 $-1 $63 $29 #
plane-surface $-1 -46.698202459791865 0 0 1 0 0 0 0 -1 forward_v I I I I #
face $-1 $64 $65 $23 $-1 $66 reversed single #
loop $-1 $-1 $67 $30 #
plane-surface $-1 35.909948342031647 -20.481395215015326 2.2687470371898257 0 -0.6560590369687036 0.75470957328743171 1 0 0 forward_v I I I I #
face $-1 $68 $69 $24 $-1 $70 forward single #
loop $-1 $71 $72 $31 #
cone-surface $-1 35.909948342031633 -15.35704336404868 2.7474709086522835 0 0.6560590369687036 -0.75470957328743171 2 0 0 1 I I 0 1 2 forward I I I I #
face $-1 $73 $74 $25 $-1 $75 reversed single #
loop $-1 $-1 $76 $32 #
plane-surface $-1 -37.235344410591395 49.136130112452541 99.099433738114058 1 0 0 0 -0.64278761758704617 -0.76604443648966558 forward_v I I I I #
face $-1 $77 $78 $26 $-1 $79 forward single #
loop $-1 $80 $81 $33 #
cone-surface $-1 -31.19621576888008 15.236306785481183 2.877111443267363 0 -0.64278761758704617 -0.76604443648966558 2.5 0 0 1 I I 0 1 2.5 forward I I I I #
face $-1 $82 $83 $27 $-1 $84 forward single #
loop $-1 $85 $86 $34 #
cone-surface $-1 -22.137522806313108 15.236306785481183 2.877111443267363 0 -0.64278761758704617 -0.76604443648966558 2.5 0 0 1 I I 0 1 2.5 forward I I I I #
face $-1 $87 $88 $21 $-1 $89 reversed single #
loop $-1 $-1 $90 $35 #
plane-surface $-1 0 0 -7.75532745906734 0 0 1 1 0 0 forward_v I I I I #
coedge $-1 $91 $92 $93 $94 forward $36 $-1 #
face $-1 $95 $96 $22 $-1 $97 reversed single #
loop $-1 $-1 $98 $38 #
plane-surface $-1 0 0 7.75532745906734 0 0 1 1 0 0 forward_v I I I I #
coedge $-1 $99 $100 $101 $102 forward $39 $-1 #
face $-1 $103 $104 $23 $-1 $105 reversed single #
loop $-1 $-1 $106 $41 #
plane-surface $-1 25.121694224271408 -81.754950682896521 72.755907940629058 1 0 0 0 0.6560590369687036 -0.75470957328743171 forward_v I I I I #
coedge $-1 $107 $108 $109 $110 reversed $42 $-1 #
face $-1 $-1 $111 $24 $-1 $112 forward single #
loop $-1 $113 $114 $44 #
cone-surface $-1 35.909948342031633 -12.732426799239072 -0.27180500411145925 0 0.6560590369687036 -0.75470957328743171 1 0 0 1 I I -0.70710678118654746 0.70710678118654746 1 forward I I I I #
loop $-1 $-1 $115 $31 #
coedge $-1 $72 $72 $116 $117 reversed $45 $-1 #
face $-1 $118 $119 $25 $-1 $120 reversed single #
loop $-1 $-1 $121 $47 #
plane-surface $-1 -26.666869287596594 -10.897922497001765 27.553637361330914 0 0.64278761758704617 0.76604443648966558 1 0 0 forward_v I I I I #
coedge $-1 $122 $123 $124 $125 reversed $48 $-1 #
face $-1 $-1 $126 $26 $-1 $127 forward single #
loop $-1 $128 $129 $50 #
cone-surface $-1 -31.19621576888008 13.08003946040882 0.30737216584195259 0 -0.64278761758704617 -0.76604443648966558 1.25 0 0 1 I I -0.70710678118654746 0.70710678118654746 1.25 forward I I I I #
loop $-1 $-1 $130 $33 #
coedge $-1 $81 $81 $131 $132 reversed $51 $-1 #
face $-1 $-1 $133 $27 $-1 $134 forward single #
loop $-1 $135 $136 $53 #
cone-surface $-1 -22.137522806313108 13.08003946040882 0.30737216584195259 0 -0.64278761758704617 -0.76604443648966558 1.25 0 0 1 I I -0.70710678118654746 0.70710678118654746 1.25 forward I I I I #
loop $-1 $-1 $137 $34 #
coedge $-1 $86 $86 $138 $139 reversed $54 $-1 #
face $-1 $140 $141 $21 $-1 $142 reversed single #
loop $-1 $-1 $143 $56 #
plane-surface $-1 0 -20.481395215015318 0 0 1 0 0 0 1 forward_v I I I I #
coedge $-1 $144 $145 $146 $147 forward $57 $-1 #
coedge $-1 $148 $59 $149 $150 forward $36 $-1 #
coedge $-1 $59 $148 $151 $152 forward $36 $-1 #
coedge $-1 $153 $154 $59 $94 reversed $155 $-1 #
edge $-1 $156 -20.481395215015318 $157 20.481395215015318 $93 $158 forward 7 unknown #
face $-1 $159 $160 $22 $-1 $161 reversed single #
loop $-1 $-1 $162 $60 #
plane-surface $-1 -56.161060508992328 -18.16166072729704 0 1 0 0 0 0 -1 forward_v I I I I #
coedge $-1 $163 $164 $99 $165 forward $61 $-1 #
coedge $-1 $166 $63 $98 $165 reversed $39 $-1 #
coedge $-1 $63 $166 $167 $168 reversed $39 $-1 #
coedge $-1 $169 $170 $63 $102 reversed $160 $-1 #
edge $-1 $171 -7.75532745906734 $172 7.75532745906734 $101 $173 forward 7 unknown #
face $-1 $174 $175 $23 $-1 $176 forward single #
loop $-1 $-1 $177 $64 #
plane-surface $-1 0 -20.481395215015318 0 0 1 0 0 0 1 forward_v I I I I #
coedge $-1 $178 $179 $180 $181 reversed $65 $-1 #
coedge $-1 $182 $67 $183 $184 reversed $42 $-1 #
coedge $-1 $67 $182 $178 $185 forward $42 $-1 #
coedge $-1 $180 $186 $67 $110 forward $175 $-1 #
edge $-1 $187 -28.743228288776063 $188 -7.1667200532555846 $109 $189 forward 7 unknown #
loop $-1 $-1 $116 $68 #
plane-surface $-1 35.909948342031647 -20.481395215015326 2.2687470371898257 0 -0.6560590369687036 0.75470957328743171 1 0 0 forward_v I I I I #
loop $-1 $-1 $190 $44 #
coedge $-1 $114 $114 $115 $191 reversed $69 $-1 #
coedge $-1 $115 $115 $114 $191 forward $71 $-1 #
coedge $-1 $116 $116 $72 $117 forward $111 $-1 #
edge $-1 $192 2.3222036888429843e-016 $192 6.2831853071796004 $116 $193 forward 7 unknown #
face $-1 $194 $195 $25 $-1 $196 forward single #
loop $-1 $-1 $197 $73 #
plane-surface $-1 -16.098394164601789 49.136130112452541 99.099433738114058 -1 0 0 0 0.64278761758704617 0.76604443648966558 forward_v I I I I #
coedge $-1 $198 $199 $200 $201 reversed $74 $-1 #
coedge $-1 $123 $76 $202 $203 reversed $48 $-1 #
coedge $-1 $76 $122 $198 $204 reversed $48 $-1 #
coedge $-1 $200 $205 $76 $125 forward $195 $-1 #
edge $-1 $206 4.0866698412109521 $207 11.871281094102073 $124 $208 forward 7 unknown #
loop $-1 $-1 $131 $77 #
plane-surface $-1 -26.666869287596594 -10.897922497001765 27.553637361330914 0 0.64278761758704617 0.76604443648966558 1 0 0 forward_v I I I I #
loop $-1 $-1 $209 $50 #
coedge $-1 $129 $129 $130 $210 reversed $78 $-1 #
coedge $-1 $130 $130 $129 $210 forward $80 $-1 #
coedge $-1 $131 $131 $81 $132 forward $126 $-1 #
edge $-1 $211 -1.5541789963710291e-017 $211 6.2831853071796004 $131 $212 forward 7 unknown #
loop $-1 $-1 $138 $82 #
plane-surface $-1 -26.666869287596594 -10.897922497001765 27.553637361330914 0 0.64278761758704617 0.76604443648966558 1 0 0 forward_v I I I I #
loop $-1 $-1 $213 $53 #
coedge $-1 $136 $136 $137 $214 reversed $83 $-1 #
coedge $-1 $137 $137 $136 $214 forward $85 $-1 #
coedge $-1 $138 $138 $86 $139 forward $133 $-1 #
edge $-1 $215 -1.5541789963710291e-017 $215 6.2831853071796004 $138 $216 forward 7 unknown #
face $-1 $217 $218 $21 $-1 $219 reversed single #
loop $-1 $-1 $220 $87 #
plane-surface $-1 -46.698202459791865 0 0 1 0 0 0 0 -1 forward_v I I I I #
coedge $-1 $221 $151 $222 $223 forward $88 $-1 #
coedge $-1 $224 $90 $221 $225 forward $57 $-1 #
coedge $-1 $90 $224 $226 $227 forward $57 $-1 #
coedge $-1 $154 $153 $90 $147 reversed $155 $-1 #
edge $-1 $228 -20.481395215015318 $229 20.481395215015318 $146 $230 forward 7 unknown #
coedge $-1 $92 $91 $220 $231 forward $36 $-1 #
coedge $-1 $232 $233 $91 $150 reversed $218 $-1 #
edge $-1 $157 -46.698202459791865 $234 46.698202459791865 $149 $235 forward 7 unknown #
coedge $-1 $143 $236 $92 $152 reversed $88 $-1 #
edge $-1 $237 -46.698202459791865 $156 46.698202459791865 $151 $238 forward 7 unknown #
coedge $-1 $146 $93 $236 $239 forward $155 $-1 #
coedge $-1 $93 $146 $232 $240 reversed $155 $-1 #
loop $-1 $-1 $153 $217 #
vertex $-1 $94 $241 #
vertex $-1 $94 $242 #
straight-curve $-1 46.698202459791865 0 7.75532745906734 0 1 0 I I #
face $-1 $243 $244 $22 $-1 $245 reversed single #
loop $-1 $-1 $101 $95 #
plane-surface $-1 -51.429631484392097 -15.841926239578759 0 0 -1 0 0 0 -1 forward_v I I I I #
coedge $-1 $246 $247 $248 $249 forward $96 $-1 #
coedge $-1 $250 $98 $170 $251 forward $61 $-1 #
coedge $-1 $98 $250 $252 $253 forward $61 $-1 #
edge $-1 $254 -20.481395215015318 $172 -15.841926239578759 $98 $255 forward 7 unknown #
coedge $-1 $100 $99 $256 $257 reversed $39 $-1 #
coedge $-1 $258 $259 $100 $168 forward $244 $-1 #
edge $-1 $171 15.841926239578759 $260 20.481395215015318 $167 $261 forward 7 unknown #
coedge $-1 $248 $101 $259 $262 reversed $160 $-1 #
coedge $-1 $101 $248 $163 $251 reversed $160 $-1 #
vertex $-1 $168 $263 #
vertex $-1 $251 $264 #
straight-curve $-1 -46.698202459791865 -15.841926239578759 0 0 0 1 I I #
face $-1 $-1 $265 $23 $-1 $266 reversed single #
loop $-1 $-1 $180 $103 #
plane-surface $-1 0 0 7.75532745906734 0 0 1 1 0 0 forward_v I I I I #
coedge $-1 $267 $268 $179 $269 forward $104 $-1 #
coedge $-1 $179 $106 $108 $185 reversed $65 $-1 #
coedge $-1 $106 $178 $177 $269 reversed $65 $-1 #
coedge $-1 $270 $109 $106 $181 forward $175 $-1 #
edge $-1 $188 -26.707668772684425 $271 -20.396080126432942 $180 $272 forward 7 unknown #
coedge $-1 $108 $107 $267 $273 reversed $42 $-1 #
coedge $-1 $274 $275 $107 $184 forward $265 $-1 #
edge $-1 $276 -6.9845365233555423 $187 1.3784005184510142 $183 $277 forward 7 unknown #
edge $-1 $278 9.44141639987384e-015 $188 8.3629370418065676 $178 $279 forward 7 unknown #
coedge $-1 $109 $270 $274 $280 forward $175 $-1 #
vertex $-1 $184 $281 #
vertex $-1 $110 $282 #
straight-curve $-1 17.954974171015824 -14.169806568763837 7.75532745906734 -1 0 0 I I #
coedge $-1 $190 $190 $-1 $283 reversed $113 $-1 #
edge $-1 $284 0 $284 6.2831853071796004 $114 $285 forward 7 unknown #
vertex $-1 $117 $286 #
ellipse-curve $-1 35.909948342031633 -17.325600891889579 5.0120372481285855 0 -0.6560590369687036 0.75470957328743171 2 0 0 1 I I #
face $-1 $-1 $287 $25 $-1 $288 reversed single #
loop $-1 $-1 $124 $118 #
plane-surface $-1 0 0 7.75532745906734 0 0 1 1 0 0 forward_v I I I I #
coedge $-1 $289 $290 $291 $292 reversed $119 $-1 #
coedge $-1 $293 $121 $123 $204 forward $74 $-1 #
coedge $-1 $121 $293 $289 $294 forward $74 $-1 #
coedge $-1 $291 $124 $121 $201 forward $195 $-1 #
edge $-1 $207 -23.901909766793096 $295 -2.7649595208034921 $200 $296 forward 7 unknown #
coedge $-1 $297 $298 $122 $203 forward $287 $-1 #
edge $-1 $299 -48.326453977962963 $206 -41.794389409989691 $202 $300 forward 7 unknown #
edge $-1 $207 30.800702067946247 $299 40.962790430030637 $123 $301 forward 7 unknown #
coedge $-1 $124 $291 $297 $302 forward $195 $-1 #
vertex $-1 $203 $303 #
vertex $-1 $125 $304 #
straight-curve $-1 -37.235344410591395 24.568065056226271 7.7553274590673382 0 -1 0 I I #
coedge $-1 $209 $209 $-1 $305 reversed $128 $-1 #
edge $-1 $306 0 $306 6.2831853071796004 $129 $307 forward 7 unknown #
vertex $-1 $132 $308 #
ellipse-curve $-1 -31.19621576888008 16.589089588569752 4.4892951750807084 0 0.64278761758704617 0.76604443648966558 2.5 0 0 1 I I #
coedge $-1 $213 $213 $-1 $309 reversed $135 $-1 #
edge $-1 $310 0 $310 6.2831853071796004 $136 $311 forward 7 unknown #
vertex $-1 $139 $312 #
ellipse-curve $-1 -22.137522806313108 16.589089588569752 4.4892951750807084 0 0.64278761758704617 0.76604443648966558 2.5 0 0 1 I I #
face $-1 $-1 $155 $21 $-1 $313 reversed single #
loop $-1 $-1 $232 $140 #
plane-surface $-1 0 20.481395215015318 0 0 -1 0 0 0 -1 forward_v I I I I #
coedge $-1 $314 $222 $148 $231 reversed $141 $-1 #
coedge $-1 $236 $143 $144 $225 reversed $88 $-1 #
coedge $-1 $220 $315 $143 $223 reversed $141 $-1 #
edge $-1 $237 -7.75532745906734 $316 7.75532745906734 $222 $317 forward 7 unknown #
coedge $-1 $145 $144 $315 $318 forward $57 $-1 #
edge $-1 $229 -46.698202459791865 $316 46.698202459791865 $221 $319 forward 7 unknown #
coedge $-1 $233 $232 $145 $227 reversed $218 $-1 #
edge $-1 $320 -46.698202459791865 $228 46.698202459791865 $226 $321 forward 7 unknown #
vertex $-1 $147 $322 #
vertex $-1 $239 $323 #
straight-curve $-1 46.698202459791865 0 -7.75532745906734 0 -1 0 I I #
edge $-1 $234 -20.481395215015318 $237 20.481395215015318 $220 $324 forward 7 unknown #
coedge $-1 $226 $149 $154 $240 forward $218 $-1 #
coedge $-1 $149 $226 $314 $325 reversed $218 $-1 #
vertex $-1 $150 $326 #
straight-curve $-1 0 20.481395215015318 7.75532745906734 -1 0 0 I I #
coedge $-1 $151 $221 $153 $239 reversed $88 $-1 #
vertex $-1 $231 $327 #
straight-curve $-1 0 -20.481395215015318 7.75532745906734 1 0 0 I I #
edge $-1 $156 -7.75532745906734 $229 7.75532745906734 $153 $328 forward 7 unknown #
edge $-1 $157 -7.75532745906734 $228 7.75532745906734 $154 $329 forward 7 unknown #
point $-1 46.698202459791865 -20.481395215015318 7.75532745906734 #
point $-1 46.698202459791865 20.481395215015318 7.75532745906734 #
face $-1 $-1 $330 $22 $-1 $331 reversed single #
loop $-1 $-1 $167 $159 #
plane-surface $-1 0 0 -7.75532745906734 0 0 1 1 0 0 forward_v I I I I #
coedge $-1 $332 $162 $333 $334 reversed $96 $-1 #
coedge $-1 $162 $332 $250 $335 reversed $96 $-1 #
coedge $-1 $170 $169 $162 $249 reversed $160 $-1 #
edge $-1 $336 -7.75532745906734 $337 7.75532745906734 $248 $338 forward 7 unknown #
coedge $-1 $164 $163 $247 $335 forward $61 $-1 #
edge $-1 $172 -4.7314290246002315 $336 4.7314290246002315 $170 $339 forward 7 unknown #
coedge $-1 $340 $256 $164 $253 reversed $330 $-1 #
edge $-1 $341 -56.161060508992328 $254 -46.698202459791865 $252 $342 forward 7 unknown #
vertex $-1 $257 $343 #
straight-curve $-1 -46.698202459791865 0 7.75532745906734 0 1 0 I I #
coedge $-1 $252 $344 $166 $257 forward $330 $-1 #
edge $-1 $260 -7.75532745906734 $254 7.75532745906734 $256 $345 forward 7 unknown #
coedge $-1 $333 $167 $344 $346 forward $244 $-1 #
coedge $-1 $167 $333 $169 $262 forward $244 $-1 #
vertex $-1 $346 $347 #
straight-curve $-1 -46.698202459791865 0 -7.75532745906734 0 -1 0 I I #
edge $-1 $337 -4.7314290246002315 $171 4.7314290246002315 $169 $348 forward 7 unknown #
point $-1 -46.698202459791865 -15.841926239578759 -7.75532745906734 #
point $-1 -46.698202459791865 -15.841926239578759 7.75532745906734 #
loop $-1 $-1 $183 $174 #
plane-surface $-1 46.698202459791865 0 0 -1 0 0 0 0 1 forward_v I I I I #
coedge $-1 $349 $177 $182 $273 forward $104 $-1 #
coedge $-1 $177 $349 $270 $350 reversed $104 $-1 #
edge $-1 $271 28.622626511247191 $278 34.109206933124696 $177 $351 forward 7 unknown #
coedge $-1 $186 $180 $268 $350 forward $175 $-1 #
vertex $-1 $350 $352 #
straight-curve $-1 25.121694224271408 -40.87747534144826 7.7553274590673382 0 -1 0 I I #
edge $-1 $278 7.1667200532555846 $276 28.743228288776063 $267 $353 forward 7 unknown #
coedge $-1 $275 $183 $186 $280 reversed $265 $-1 #
coedge $-1 $183 $274 $349 $354 forward $265 $-1 #
vertex $-1 $273 $355 #
straight-curve $-1 46.698202459791865 -15.210098635863176 6.8510153423752067 0 0.75470957328743171 0.6560590369687036 I I #
vertex $-1 $273 $356 #
straight-curve $-1 25.121694224271408 -20.481395215015326 2.2687470371898257 0 0.75470957328743171 0.6560590369687036 I I #
edge $-1 $357 -20.481395215015318 $187 -14.169806568763835 $274 $358 forward 7 unknown #
point $-1 46.698202459791887 -14.169806568763835 7.75532745906734 #
point $-1 25.121694224271408 -14.169806568763835 7.75532745906734 #
edge $-1 $359 1 $359 0 $190 $-1 forward 7 unknown #
vertex $-1 $191 $360 #
ellipse-curve $-1 35.909948342031633 -13.388485836207774 0.48290456917597246 0 -0.6560590369687036 0.75470957328743171 2 0 0 1 I I #
point $-1 37.909948342031633 -17.325600891889586 5.0120372481285944 #
loop $-1 $-1 $202 $194 #
plane-surface $-1 0 20.481395215015318 0 0 -1 0 0 0 -1 forward_v I I I I #
coedge $-1 $290 $197 $199 $294 reversed $119 $-1 #
coedge $-1 $197 $289 $361 $362 reversed $119 $-1 #
coedge $-1 $205 $200 $197 $292 forward $195 $-1 #
edge $-1 $295 -11.871281094102073 $363 -4.0866698412109521 $291 $364 forward 7 unknown #
coedge $-1 $199 $198 $298 $365 reversed $74 $-1 #
edge $-1 $366 -40.962790430030637 $295 -30.800702067946247 $289 $367 forward 7 unknown #
vertex $-1 $201 $368 #
straight-curve $-1 -13.333434643798297 12.69678396212419 7.7553274590673436 1 0 0 I I #
coedge $-1 $361 $202 $205 $302 reversed $287 $-1 #
coedge $-1 $202 $361 $293 $365 forward $287 $-1 #
vertex $-1 $203 $369 #
straight-curve $-1 -37.235344410591395 20.481395215015318 49.549716869057029 0 0 1 I I #
straight-curve $-1 -37.235344410591395 -10.897922497001765 27.553637361330914 0 0.76604443648966558 -0.64278761758704617 I I #
edge $-1 $363 16.098394164601789 $206 37.235344410591395 $297 $370 forward 7 unknown #
point $-1 -37.235344410591395 20.481395215015318 7.75532745906734 #
point $-1 -37.235344410591395 12.696783962124197 7.7553274590673382 #
edge $-1 $371 1 $371 0 $209 $-1 forward 7 unknown #
vertex $-1 $210 $372 #
ellipse-curve $-1 -31.19621576888008 13.883523982392628 1.2649277114540345 0 0.64278761758704617 0.76604443648966558 2.5 0 0 1 I I #
point $-1 -28.69621576888008 16.589089588569738 4.4892951750806915 #
edge $-1 $373 1 $373 0 $213 $-1 forward 7 unknown #
vertex $-1 $214 $374 #
ellipse-curve $-1 -22.137522806313108 13.883523982392628 1.2649277114540345 0 0.64278761758704617 0.76604443648966558 2.5 0 0 1 I I #
point $-1 -19.637522806313108 16.589089588569738 4.4892951750806915 #
plane-surface $-1 46.698202459791865 0 0 -1 0 0 0 0 1 forward_v I I I I #
coedge $-1 $315 $220 $233 $325 forward $141 $-1 #
coedge $-1 $222 $314 $224 $318 reversed $141 $-1 #
vertex $-1 $318 $375 #
straight-curve $-1 -46.698202459791865 -20.481395215015318 0 0 0 -1 I I #
edge $-1 $316 -20.481395215015318 $320 20.481395215015318 $315 $376 forward 7 unknown #
straight-curve $-1 0 -20.481395215015318 -7.75532745906734 -1 0 0 I I #
vertex $-1 $227 $377 #
straight-curve $-1 0 20.481395215015318 -7.75532745906734 1 0 0 I I #
point $-1 46.698202459791865 20.481395215015318 -7.75532745906734 #
point $-1 46.698202459791865 -20.481395215015318 -7.75532745906734 #
straight-curve $-1 -46.698202459791865 0 7.75532745906734 0 -1 0 I I #
edge $-1 $234 -7.75532745906734 $320 7.75532745906734 $233 $378 forward 7 unknown #
point $-1 -46.698202459791865 20.481395215015318 7.75532745906734 #
point $-1 -46.698202459791865 -20.481395215015318 7.75532745906734 #
straight-curve $-1 46.698202459791865 -20.481395215015318 0 0 0 -1 I I #
straight-curve $-1 46.698202459791865 20.481395215015318 0 0 0 -1 I I #
loop $-1 $-1 $256 $243 #
plane-surface $-1 0 -20.481395215015318 0 0 1 0 0 0 1 forward_v I I I I #
coedge $-1 $247 $246 $340 $379 reversed $96 $-1 #
coedge $-1 $259 $258 $246 $334 forward $244 $-1 #
edge $-1 $380 -2.3197344877182786 $337 2.3197344877182804 $246 $381 forward 7 unknown #
edge $-1 $336 -2.3197344877182804 $341 2.3197344877182786 $247 $382 forward 7 unknown #
vertex $-1 $251 $383 #
vertex $-1 $262 $384 #
straight-curve $-1 -56.161060508992328 -15.841926239578759 0 0 0 -1 I I #
straight-curve $-1 -51.429631484392097 -15.841926239578759 7.75532745906734 -1 0 0 I I #
coedge $-1 $344 $252 $332 $379 forward $330 $-1 #
vertex $-1 $335 $385 #
straight-curve $-1 0 -20.481395215015318 7.75532745906734 1 0 0 I I #
point $-1 -46.698202459791865 -20.481395215015318 7.75532745906734 #
coedge $-1 $256 $340 $258 $346 reversed $330 $-1 #
straight-curve $-1 -46.698202459791865 -20.481395215015318 0 0 0 1 I I #
edge $-1 $260 -4.7314290246002315 $380 4.7314290246002315 $344 $386 forward 7 unknown #
point $-1 -46.698202459791865 -20.481395215015318 -7.75532745906734 #
straight-curve $-1 -51.429631484392097 -15.841926239578759 -7.75532745906734 1 0 0 I I #
coedge $-1 $268 $267 $275 $354 reversed $104 $-1 #
edge $-1 $271 25.121694224271408 $357 46.698202459791865 $268 $387 forward 7 unknown #
straight-curve $-1 25.121694224271408 -20.481395215015318 36.377953970314529 0 0 -1 I I #
point $-1 25.121694224271408 -20.481395215015318 7.75532745906734 #
straight-curve $-1 17.954974171015824 -20.481395215015318 2.2687470371898315 1 0 0 I I #
edge $-1 $357 -7.75532745906734 $276 -2.2687470371898319 $275 $388 forward 7 unknown #
point $-1 46.698202459791887 -20.481395215015318 2.2687470371898319 #
point $-1 25.121694224271408 -20.481395215015318 2.2687470371898319 #
vertex $-1 $280 $389 #
straight-curve $-1 46.698202459791865 0 7.75532745906734 0 1 0 I I #
vertex $-1 $283 $390 #
point $-1 37.909948342031633 -13.388485836207774 0.48290456917597246 #
coedge $-1 $298 $297 $290 $362 forward $287 $-1 #
edge $-1 $363 41.794389409989691 $366 48.326453977962963 $361 $391 forward 7 unknown #
vertex $-1 $302 $392 #
straight-curve $-1 -16.098394164601789 24.568065056226271 7.7553274590673382 0 1 0 I I #
edge $-1 $366 2.7649595208034921 $299 23.901909766793096 $298 $393 forward 7 unknown #
vertex $-1 $365 $394 #
straight-curve $-1 -16.098394164601789 -10.897922497001765 27.553637361330914 0 -0.76604443648966558 0.64278761758704617 I I #
point $-1 -16.098394164601789 12.696783962124197 7.7553274590673382 #
point $-1 -37.235344410591395 20.481395215015318 1.2232628910940662 #
straight-curve $-1 0 20.481395215015318 7.75532745906734 -1 0 0 I I #
vertex $-1 $305 $395 #
point $-1 -28.69621576888008 13.883523982392628 1.2649277114540345 #
vertex $-1 $309 $396 #
point $-1 -19.637522806313108 13.883523982392628 1.2649277114540345 #
point $-1 -46.698202459791865 -20.481395215015318 -7.75532745906734 #
straight-curve $-1 -46.698202459791865 0 -7.75532745906734 0 1 0 I I #
point $-1 -46.698202459791865 20.481395215015318 -7.75532745906734 #
straight-curve $-1 -46.698202459791865 20.481395215015318 0 0 0 -1 I I #
edge $-1 $341 -7.75532745906734 $380 7.75532745906734 $332 $397 forward 7 unknown #
vertex $-1 $334 $398 #
straight-curve $-1 -56.161060508992328 -18.16166072729704 -7.75532745906734 0 1 0 I I #
straight-curve $-1 -56.161060508992328 -18.16166072729704 7.75532745906734 0 -1 0 I I #
point $-1 -56.161060508992328 -15.841926239578759 7.75532745906734 #
point $-1 -56.161060508992328 -15.841926239578759 -7.75532745906734 #
point $-1 -56.161060508992328 -20.481395215015318 7.75532745906734 #
straight-curve $-1 -51.429631484392097 -20.481395215015318 -7.75532745906734 -1 0 0 I I #
straight-curve $-1 0 -20.481395215015318 7.75532745906734 1 0 0 I I #
straight-curve $-1 46.698202459791865 -20.481395215015318 0 0 0 -1 I I #
point $-1 46.698202459791865 -20.481395215015318 7.75532745906734 #
point $-1 35.909948342031633 -12.076367762270369 -1.0265145773988911 #
straight-curve $-1 -16.098394164601789 20.481395215015318 49.549716869057029 0 0 -1 I I #
point $-1 -16.098394164601789 20.481395215015318 7.75532745906734 #
straight-curve $-1 -13.333434643798297 20.481395215015318 1.2232628910940662 -1 0 0 I I #
point $-1 -16.098394164601789 20.481395215015318 1.2232628910940662 #
point $-1 -31.19621576888008 12.276554938425011 -0.65018337977012941 #
point $-1 -22.137522806313108 12.276554938425011 -0.65018337977012941 #
straight-curve $-1 -56.161060508992328 -20.481395215015318 0 0 0 -1 I I #
point $-1 -56.161060508992328 -20.481395215015318 -7.75532745906734 #
End-of-ACIS-data 