500 0 9 0           
7 Unknown 11 ACIS 5.0 NT 24 Thu Mar 25 15:47:46 1999 
-1 9.9999999999999995e-007 1e-010 
body $-1 $9 $-1 $10 #
body $-1 $11 $-1 $12 #
body $-1 $13 $-1 $14 #
body $-1 $15 $-1 $16 #
body $-1 $17 $-1 $18 #
body $-1 $19 $-1 $20 #
body $-1 $21 $-1 $22 #
body $-1 $23 $-1 $24 #
body $-1 $25 $-1 $26 #
lump $-1 $-1 $27 $0 #
transform $-1 1 0 0 0 1 0 0 0 1 62.401806695760982 27.558528535224088 6.6011956775800904 1 rotate no_reflect no_shear #
lump $-1 $-1 $28 $1 #
transform $-1 1 0 0 0 1 0 0 0 1 62.401806695760982 27.558528535224088 6.6011956775800904 1 rotate no_reflect no_shear #
lump $-1 $-1 $29 $2 #
transform $-1 1 0 0 0 1 0 0 0 1 62.401806695760982 27.558528535224088 6.6011956775800904 1 rotate no_reflect no_shear #
lump $-1 $-1 $30 $3 #
transform $-1 1 0 0 0 1 0 0 0 1 62.401806695760982 27.558528535224088 6.6011956775800904 1 rotate no_reflect no_shear #
lump $-1 $-1 $31 $4 #
transform $-1 1 0 0 0 1 0 0 0 1 62.401806695760982 27.558528535224088 6.6011956775800904 1 rotate no_reflect no_shear #
lump $-1 $-1 $32 $5 #
transform $-1 1 0 0 0 1 0 0 0 1 62.401806695760982 27.558528535224088 6.6011956775800904 1 rotate no_reflect no_shear #
lump $-1 $-1 $33 $6 #
transform $-1 1 0 0 0 1 0 0 0 1 62.401806695760982 27.558528535224088 6.6011956775800904 1 rotate no_reflect no_shear #
lump $-1 $-1 $34 $7 #
transform $-1 1 0 0 0 1 0 0 0 1 62.401806695760982 27.558528535224088 6.6011956775800904 1 rotate no_reflect no_shear #
lump $-1 $-1 $35 $8 #
transform $-1 1 0 0 0 1 0 0 0 1 62.401806695760982 27.558528535224088 6.6011956775800904 1 rotate no_reflect no_shear #
shell $-1 $-1 $-1 $36 $-1 $9 #
shell $-1 $-1 $-1 $37 $-1 $11 #
shell $-1 $-1 $-1 $38 $-1 $13 #
shell $-1 $-1 $-1 $39 $-1 $15 #
shell $-1 $-1 $-1 $40 $-1 $17 #
shell $-1 $-1 $-1 $41 $-1 $19 #
shell $-1 $-1 $-1 $42 $-1 $21 #
shell $-1 $-1 $-1 $43 $-1 $23 #
shell $-1 $-1 $-1 $44 $-1 $25 #
face $-1 $45 $46 $27 $-1 $47 forward single #
face $-1 $48 $49 $28 $-1 $50 reversed single #
face $-1 $51 $52 $29 $-1 $53 forward single #
face $-1 $54 $55 $30 $-1 $56 reversed single #
face $-1 $57 $58 $31 $-1 $59 forward single #
face $-1 $60 $61 $32 $-1 $62 forward single #
face $-1 $63 $64 $33 $-1 $65 reversed single #
face $-1 $66 $67 $34 $-1 $68 forward single #
face $-1 $69 $70 $35 $-1 $71 forward single #
face $-1 $72 $73 $27 $-1 $74 reversed single #
loop $-1 $-1 $75 $36 #
plane-surface $-1 0 0 6.6011956775800904 0 0 1 1 0 0 forward_v I I I I #
face $-1 $76 $77 $28 $-1 $78 forward single #
loop $-1 $-1 $79 $37 #
plane-surface $-1 0 -22.103999247046868 4.545914731796648 0 -1 0 0 0 -1 forward_v I I I I #
face $-1 $80 $81 $29 $-1 $82 reversed single #
loop $-1 $-1 $83 $38 #
plane-surface $-1 0 25.022065381239425 4.9665463470160791 0 0 1 1 0 0 forward_v I I I I #
face $-1 $84 $85 $30 $-1 $86 reversed single #
loop $-1 $-1 $87 $39 #
plane-surface $-1 -140.94326645503986 -15.219419899671518 97.758186753568708 0 -1 0 0.62932039886446345 0 -0.77714595512881146 forward_v I I I I #
face $-1 $88 $89 $31 $-1 $90 forward single #
loop $-1 $91 $92 $40 #
cone-surface $-1 -58.354722411978273 -20.136976576368198 3.1347065655591848 0.62932039886446345 0 -0.77714595512881146 0.38857297756440573 0 0.31466019943223172 1 I I 0 1 0.5 forward I I I I #
face $-1 $93 $94 $32 $-1 $95 forward single #
loop $-1 $96 $97 $41 #
cone-surface $-1 -58.354722411978273 -17.186442570350192 3.1347065655591848 0.62932039886446345 0 -0.77714595512881146 0.38857297756440573 0 0.31466019943223172 1 I I 0 1 0.5 forward I I I I #
face $-1 $98 $99 $33 $-1 $100 reversed single #
loop $-1 $-1 $101 $42 #
plane-surface $-1 -140.94326645503986 0.19080149010394987 97.758186753568708 0 1 0 -0.62932039886446345 0 0.77714595512881146 forward_v I I I I #
face $-1 $102 $103 $34 $-1 $104 forward single #
loop $-1 $105 $106 $43 #
cone-surface $-1 -58.354722411978273 2.1578241607826207 3.1347065655591848 0.62932039886446345 0 -0.77714595512881146 0.38857297756440573 0 0.31466019943223172 1 I I 0 1 0.5 forward I I I I #
face $-1 $107 $108 $35 $-1 $109 forward single #
loop $-1 $110 $111 $44 #
cone-surface $-1 -58.354722411978273 5.1083581668006239 3.1347065655591848 0.62932039886446345 0 -0.77714595512881146 0.38857297756440573 0 0.31466019943223172 1 I I 0 1 0.5 forward I I I I #
face $-1 $112 $113 $27 $-1 $114 reversed single #
loop $-1 $-1 $115 $45 #
plane-surface $-1 0 0 -6.6011956775800904 0 0 1 1 0 0 forward_v I I I I #
coedge $-1 $116 $117 $118 $119 forward $46 $-1 #
face $-1 $120 $121 $28 $-1 $122 reversed single #
loop $-1 $-1 $123 $48 #
plane-surface $-1 0 -24.831263891135478 6.1011956775800904 0 0 1 1 0 0 forward_v I I I I #
coedge $-1 $124 $125 $126 $127 reversed $49 $-1 #
face $-1 $128 $129 $29 $-1 $130 reversed single #
loop $-1 $-1 $131 $51 #
plane-surface $-1 0 25.022065381239425 1.9665463470160791 0 0 1 1 0 0 forward_v I I I I #
coedge $-1 $132 $133 $134 $135 reversed $52 $-1 #
face $-1 $136 $137 $30 $-1 $138 forward single #
loop $-1 $-1 $139 $54 #
plane-surface $-1 -62.401806695760968 -18.661709573359193 0.76756342088744134 -0.62932039886446345 0 0.77714595512881146 0.77714595512881146 0 0.62932039886446345 forward_v I I I I #
coedge $-1 $140 $141 $142 $143 reversed $55 $-1 #
face $-1 $-1 $144 $31 $-1 $145 forward single #
loop $-1 $146 $147 $57 #
cone-surface $-1 -57.752275897452051 -20.136976576368198 2.3907470931023909 0.62932039886446345 0 -0.77714595512881146 0.19428648878220287 0 0.15733009971611586 1 I I -0.70710678118654746 0.70710678118654746 0.25 forward I I I I #
loop $-1 $-1 $148 $40 #
coedge $-1 $92 $92 $149 $150 reversed $58 $-1 #
face $-1 $-1 $151 $32 $-1 $152 forward single #
loop $-1 $153 $154 $60 #
cone-surface $-1 -57.752275897452051 -17.186442570350192 2.3907470931023909 0.62932039886446345 0 -0.77714595512881146 0.19428648878220287 0 0.15733009971611586 1 I I -0.70710678118654746 0.70710678118654746 0.25 forward I I I I #
loop $-1 $-1 $155 $41 #
coedge $-1 $97 $97 $156 $157 reversed $61 $-1 #
face $-1 $158 $159 $33 $-1 $160 reversed single #
loop $-1 $-1 $161 $63 #
plane-surface $-1 -62.401806695760968 3.6330911637916259 0.76756342088744134 -0.62932039886446345 0 0.77714595512881146 0.77714595512881146 0 0.62932039886446345 forward_v I I I I #
coedge $-1 $162 $163 $164 $165 reversed $64 $-1 #
face $-1 $-1 $166 $34 $-1 $167 forward single #
loop $-1 $168 $169 $66 #
cone-surface $-1 -57.752275897452051 2.1578241607826207 2.3907470931023909 0.62932039886446345 0 -0.77714595512881146 0.19428648878220287 0 0.15733009971611586 1 I I -0.70710678118654746 0.70710678118654746 0.25 forward I I I I #
loop $-1 $-1 $170 $43 #
coedge $-1 $106 $106 $171 $172 reversed $67 $-1 #
face $-1 $-1 $173 $35 $-1 $174 forward single #
loop $-1 $175 $176 $69 #
cone-surface $-1 -57.752275897452051 5.1083581668006239 2.3907470931023909 0.62932039886446345 0 -0.77714595512881146 0.19428648878220287 0 0.15733009971611586 1 I I -0.70710678118654746 0.70710678118654746 0.25 forward I I I I #
loop $-1 $-1 $177 $44 #
coedge $-1 $111 $111 $178 $179 reversed $70 $-1 #
face $-1 $180 $181 $27 $-1 $182 reversed single #
loop $-1 $-1 $183 $72 #
plane-surface $-1 0 -27.558528535224088 0 0 1 0 0 0 1 forward_v I I I I #
coedge $-1 $184 $185 $186 $187 forward $73 $-1 #
coedge $-1 $188 $75 $189 $190 forward $46 $-1 #
coedge $-1 $75 $188 $191 $192 forward $46 $-1 #
coedge $-1 $193 $194 $75 $119 reversed $195 $-1 #
edge $-1 $196 -27.558528535224088 $197 27.558528535224088 $118 $198 forward 7 unknown #
face $-1 $199 $200 $28 $-1 $201 reversed single #
loop $-1 $-1 $202 $76 #
plane-surface $-1 0 -24.831263891135478 2.9906337860132055 0 0 1 1 0 0 forward_v I I I I #
coedge $-1 $126 $203 $204 $205 reversed $77 $-1 #
coedge $-1 $206 $79 $207 $208 reversed $49 $-1 #
coedge $-1 $79 $206 $209 $210 reversed $49 $-1 #
coedge $-1 $211 $123 $79 $127 forward $77 $-1 #
edge $-1 $212 -62.401806695760982 $213 62.401806695760982 $79 $214 forward 7 unknown #
face $-1 $215 $216 $29 $-1 $217 reversed single #
loop $-1 $-1 $218 $80 #
plane-surface $-1 0 22.485602227254766 3.4665463470160791 0 1 0 0 0 1 forward_v I I I I #
coedge $-1 $219 $220 $221 $222 reversed $81 $-1 #
coedge $-1 $223 $83 $224 $225 reversed $52 $-1 #
coedge $-1 $83 $223 $226 $227 forward $52 $-1 #
coedge $-1 $228 $229 $83 $135 forward $216 $-1 #
edge $-1 $230 -15.047495844604372 $231 -9.9745695366350535 $134 $232 forward 7 unknown #
face $-1 $233 $234 $30 $-1 $235 reversed single #
loop $-1 $-1 $236 $84 #
plane-surface $-1 0 0 6.6011956775800904 0 0 1 1 0 0 forward_v I I I I #
coedge $-1 $237 $238 $239 $240 reversed $85 $-1 #
coedge $-1 $141 $87 $241 $242 reversed $55 $-1 #
coedge $-1 $87 $140 $237 $243 reversed $55 $-1 #
coedge $-1 $239 $244 $87 $143 forward $234 $-1 #
edge $-1 $245 42.27789769920426 $246 48.111529955896927 $142 $247 forward 7 unknown #
loop $-1 $-1 $149 $88 #
plane-surface $-1 -62.401806695760968 -18.661709573359193 0.76756342088744134 -0.62932039886446345 0 0.77714595512881146 0.77714595512881146 0 0.62932039886446345 forward_v I I I I #
loop $-1 $-1 $248 $57 #
coedge $-1 $147 $147 $148 $249 reversed $89 $-1 #
coedge $-1 $148 $148 $147 $249 forward $91 $-1 #
coedge $-1 $149 $149 $92 $150 forward $144 $-1 #
edge $-1 $250 0 $250 6.2831853071796004 $149 $251 forward 7 unknown #
loop $-1 $-1 $156 $93 #
plane-surface $-1 -62.401806695760968 -18.661709573359193 0.76756342088744134 -0.62932039886446345 0 0.77714595512881146 0.77714595512881146 0 0.62932039886446345 forward_v I I I I #
loop $-1 $-1 $252 $60 #
coedge $-1 $154 $154 $155 $253 reversed $94 $-1 #
coedge $-1 $155 $155 $154 $253 forward $96 $-1 #
coedge $-1 $156 $156 $97 $157 forward $151 $-1 #
edge $-1 $254 0 $254 6.2831853071796004 $156 $255 forward 7 unknown #
face $-1 $256 $257 $33 $-1 $258 forward single #
loop $-1 $-1 $259 $98 #
plane-surface $-1 -140.94326645503986 7.0753808374793019 97.758186753568708 0 -1 0 0.62932039886446345 0 -0.77714595512881146 forward_v I I I I #
coedge $-1 $260 $261 $262 $263 reversed $99 $-1 #
coedge $-1 $163 $101 $264 $265 reversed $64 $-1 #
coedge $-1 $101 $162 $260 $266 reversed $64 $-1 #
coedge $-1 $262 $267 $101 $165 forward $257 $-1 #
edge $-1 $268 8.0698265317589488 $269 15.273762269704186 $164 $270 forward 7 unknown #
loop $-1 $-1 $171 $102 #
plane-surface $-1 -62.401806695760968 3.6330911637916259 0.76756342088744134 -0.62932039886446345 0 0.77714595512881146 0.77714595512881146 0 0.62932039886446345 forward_v I I I I #
loop $-1 $-1 $271 $66 #
coedge $-1 $169 $169 $170 $272 reversed $103 $-1 #
coedge $-1 $170 $170 $169 $272 forward $105 $-1 #
coedge $-1 $171 $171 $106 $172 forward $166 $-1 #
edge $-1 $273 0 $273 6.2831853071796004 $171 $274 forward 7 unknown #
loop $-1 $-1 $178 $107 #
plane-surface $-1 -62.401806695760968 3.6330911637916259 0.76756342088744134 -0.62932039886446345 0 0.77714595512881146 0.77714595512881146 0 0.62932039886446345 forward_v I I I I #
loop $-1 $-1 $275 $69 #
coedge $-1 $176 $176 $177 $276 reversed $108 $-1 #
coedge $-1 $177 $177 $176 $276 forward $110 $-1 #
coedge $-1 $178 $178 $111 $179 forward $173 $-1 #
edge $-1 $277 0 $277 6.2831853071796004 $178 $278 forward 7 unknown #
face $-1 $279 $280 $27 $-1 $281 reversed single #
loop $-1 $-1 $282 $112 #
plane-surface $-1 -62.401806695760982 0 0 1 0 0 0 0 -1 forward_v I I I I #
coedge $-1 $283 $191 $284 $285 forward $113 $-1 #
coedge $-1 $286 $115 $283 $287 forward $73 $-1 #
coedge $-1 $115 $286 $288 $289 forward $73 $-1 #
coedge $-1 $194 $193 $115 $187 reversed $195 $-1 #
edge $-1 $290 -27.558528535224088 $291 27.558528535224088 $186 $292 forward 7 unknown #
coedge $-1 $117 $116 $293 $294 forward $46 $-1 #
coedge $-1 $295 $296 $116 $190 reversed $280 $-1 #
edge $-1 $197 -62.401806695760982 $297 62.401806695760982 $189 $298 forward 7 unknown #
coedge $-1 $183 $299 $117 $192 reversed $113 $-1 #
edge $-1 $300 -62.401806695760982 $196 62.401806695760982 $191 $301 forward 7 unknown #
coedge $-1 $186 $118 $299 $302 forward $195 $-1 #
coedge $-1 $118 $186 $295 $303 reversed $195 $-1 #
loop $-1 $-1 $193 $279 #
vertex $-1 $119 $304 #
vertex $-1 $119 $305 #
straight-curve $-1 62.401806695760982 0 6.6011956775800904 0 1 0 I I #
face $-1 $306 $307 $28 $-1 $308 reversed single #
loop $-1 $-1 $309 $120 #
plane-surface $-1 -62.401806695760982 0 0 1 0 0 0 0 -1 forward_v I I I I #
coedge $-1 $310 $311 $312 $313 reversed $121 $-1 #
coedge $-1 $123 $211 $314 $315 reversed $77 $-1 #
coedge $-1 $316 $207 $123 $205 forward $317 $-1 #
edge $-1 $212 9.6883673014791292 $318 15.142896589656349 $204 $319 forward 7 unknown #
coedge $-1 $125 $124 $311 $320 reversed $49 $-1 #
coedge $-1 $204 $312 $124 $208 forward $317 $-1 #
edge $-1 $321 0.71767642011488153 $212 3.8282383116817664 $207 $322 forward 7 unknown #
coedge $-1 $323 $309 $125 $210 forward $200 $-1 #
edge $-1 $213 -3.8282383116817664 $324 -0.71767642011488153 $209 $325 forward 7 unknown #
coedge $-1 $203 $126 $309 $326 reversed $77 $-1 #
vertex $-1 $205 $327 #
vertex $-1 $326 $328 #
straight-curve $-1 0 -22.103999247046868 6.1011956775800904 -1 0 0 I I #
face $-1 $329 $330 $29 $-1 $331 reversed single #
loop $-1 $-1 $134 $128 #
plane-surface $-1 62.401806695760982 0 0 -1 0 0 0 0 1 forward_v I I I I #
coedge $-1 $332 $226 $333 $334 reversed $129 $-1 #
coedge $-1 $335 $131 $332 $336 forward $81 $-1 #
coedge $-1 $131 $335 $337 $338 reversed $81 $-1 #
coedge $-1 $229 $228 $131 $222 forward $216 $-1 #
edge $-1 $339 9.9745695366350535 $340 15.047495844604372 $221 $341 forward 7 unknown #
coedge $-1 $133 $132 $342 $343 reversed $52 $-1 #
coedge $-1 $344 $345 $132 $225 forward $346 $-1 #
edge $-1 $347 -62.401806695760982 $230 62.401806695760982 $224 $348 forward 7 unknown #
coedge $-1 $218 $349 $133 $227 reversed $129 $-1 #
edge $-1 $350 -62.401806695760982 $231 62.401806695760982 $226 $351 forward 7 unknown #
coedge $-1 $221 $134 $349 $352 forward $216 $-1 #
coedge $-1 $134 $221 $344 $353 reversed $216 $-1 #
vertex $-1 $353 $354 #
vertex $-1 $135 $355 #
straight-curve $-1 62.401806695760982 12.511032690619713 4.9665463470160791 0 -1 0 I I #
face $-1 $-1 $356 $30 $-1 $357 forward single #
loop $-1 $-1 $358 $136 #
plane-surface $-1 -62.401806695760982 0 0 1 0 0 0 0 -1 forward_v I I I I #
coedge $-1 $359 $360 $361 $362 forward $137 $-1 #
coedge $-1 $363 $139 $141 $243 forward $85 $-1 #
coedge $-1 $139 $363 $364 $365 forward $85 $-1 #
coedge $-1 $358 $142 $139 $240 forward $234 $-1 #
edge $-1 $246 5.8885651129919214 $366 12.773144460367272 $239 $367 forward 7 unknown #
coedge $-1 $360 $359 $140 $242 forward $137 $-1 #
edge $-1 $368 -15.273762269704186 $245 -8.0698265317589488 $241 $369 forward 7 unknown #
edge $-1 $246 -1.8310242626372826e-014 $368 9.2697332983624356 $141 $370 forward 7 unknown #
coedge $-1 $142 $358 $360 $371 reversed $234 $-1 #
vertex $-1 $371 $372 #
vertex $-1 $143 $373 #
straight-curve $-1 -62.401806695760982 -15.219419899671518 48.879093376784354 0 0 -1 I I #
coedge $-1 $248 $248 $-1 $374 reversed $146 $-1 #
edge $-1 $375 0 $375 6.2831853071796004 $147 $376 forward 7 unknown #
vertex $-1 $150 $377 #
ellipse-curve $-1 -58.799838826788367 -20.136976576368198 3.684379549233757 -0.62932039886446345 0 0.77714595512881146 0.38857297756440573 0 0.31466019943223172 1 I I #
coedge $-1 $252 $252 $-1 $378 reversed $153 $-1 #
edge $-1 $379 0 $379 6.2831853071796004 $154 $380 forward 7 unknown #
vertex $-1 $157 $381 #
ellipse-curve $-1 -58.799838826788367 -17.186442570350192 3.684379549233757 -0.62932039886446345 0 0.77714595512881146 0.38857297756440573 0 0.31466019943223172 1 I I #
face $-1 $-1 $382 $33 $-1 $383 reversed single #
loop $-1 $-1 $164 $158 #
plane-surface $-1 0 0 6.6011956775800904 0 0 1 1 0 0 forward_v I I I I #
coedge $-1 $384 $385 $386 $387 reversed $159 $-1 #
coedge $-1 $388 $161 $163 $266 forward $99 $-1 #
coedge $-1 $161 $388 $384 $389 forward $99 $-1 #
coedge $-1 $386 $164 $161 $263 forward $257 $-1 #
edge $-1 $269 -1.6257440917918631 $390 5.258835255583489 $262 $391 forward 7 unknown #
coedge $-1 $392 $393 $162 $265 forward $382 $-1 #
edge $-1 $394 -48.111529955896927 $268 -42.27789769920426 $264 $395 forward 7 unknown #
edge $-1 $269 -9.2697332983624356 $394 1.8310242626372826e-014 $163 $396 forward 7 unknown #
coedge $-1 $164 $386 $392 $397 forward $257 $-1 #
vertex $-1 $165 $398 #
vertex $-1 $165 $399 #
straight-curve $-1 -70.471633227519931 0.19080149010394987 6.6011956775800869 1 0 0 I I #
coedge $-1 $271 $271 $-1 $400 reversed $168 $-1 #
edge $-1 $401 0 $401 6.2831853071796004 $169 $402 forward 7 unknown #
vertex $-1 $172 $403 #
ellipse-curve $-1 -58.799838826788367 2.1578241607826207 3.684379549233757 -0.62932039886446345 0 0.77714595512881146 0.38857297756440573 0 0.31466019943223172 1 I I #
coedge $-1 $275 $275 $-1 $404 reversed $175 $-1 #
edge $-1 $405 0 $405 6.2831853071796004 $176 $406 forward 7 unknown #
vertex $-1 $179 $407 #
ellipse-curve $-1 -58.799838826788367 5.1083581668006239 3.684379549233757 -0.62932039886446345 0 0.77714595512881146 0.38857297756440573 0 0.31466019943223172 1 I I #
face $-1 $-1 $195 $27 $-1 $408 reversed single #
loop $-1 $-1 $295 $180 #
plane-surface $-1 0 27.558528535224088 0 0 -1 0 0 0 -1 forward_v I I I I #
coedge $-1 $409 $293 $296 $410 forward $181 $-1 #
coedge $-1 $299 $183 $184 $287 reversed $113 $-1 #
coedge $-1 $293 $409 $183 $285 reversed $181 $-1 #
edge $-1 $300 -6.6011956775800904 $411 6.6011956775800904 $284 $412 forward 7 unknown #
coedge $-1 $185 $184 $409 $413 forward $73 $-1 #
edge $-1 $291 -62.401806695760982 $411 62.401806695760982 $283 $414 forward 7 unknown #
coedge $-1 $296 $295 $185 $289 reversed $280 $-1 #
edge $-1 $415 -62.401806695760982 $290 62.401806695760982 $288 $416 forward 7 unknown #
vertex $-1 $187 $417 #
vertex $-1 $302 $418 #
straight-curve $-1 62.401806695760982 0 -6.6011956775800904 0 -1 0 I I #
coedge $-1 $282 $284 $188 $294 reversed $181 $-1 #
edge $-1 $297 -27.558528535224088 $300 27.558528535224088 $293 $419 forward 7 unknown #
coedge $-1 $288 $189 $194 $303 forward $280 $-1 #
coedge $-1 $189 $288 $282 $410 reversed $280 $-1 #
vertex $-1 $190 $420 #
straight-curve $-1 0 27.558528535224088 6.6011956775800904 -1 0 0 I I #
coedge $-1 $191 $283 $193 $302 reversed $113 $-1 #
vertex $-1 $294 $421 #
straight-curve $-1 0 -27.558528535224088 6.6011956775800904 1 0 0 I I #
edge $-1 $196 -6.6011956775800904 $291 6.6011956775800904 $193 $422 forward 7 unknown #
edge $-1 $197 -6.6011956775800904 $290 6.6011956775800904 $194 $423 forward 7 unknown #
point $-1 62.401806695760982 -27.558528535224088 6.6011956775800904 #
point $-1 62.401806695760982 27.558528535224088 6.6011956775800904 #
face $-1 $-1 $317 $28 $-1 $424 reversed single #
loop $-1 $-1 $314 $199 #
plane-surface $-1 0 -27.558528535224088 0 0 1 0 0 0 1 forward_v I I I I #
coedge $-1 $209 $425 $211 $326 forward $200 $-1 #
coedge $-1 $426 $202 $427 $428 reversed $121 $-1 #
coedge $-1 $202 $426 $206 $320 forward $121 $-1 #
coedge $-1 $207 $316 $202 $313 forward $317 $-1 #
edge $-1 $429 -15.142896589656349 $321 -9.6883673014791292 $312 $430 forward 7 unknown #
coedge $-1 $431 $432 $203 $315 forward $307 $-1 #
edge $-1 $318 -62.401806695760982 $433 62.401806695760982 $314 $434 forward 7 unknown #
coedge $-1 $312 $204 $432 $435 forward $317 $-1 #
loop $-1 $-1 $204 $306 #
vertex $-1 $435 $436 #
straight-curve $-1 62.401806695760982 -12.415631945567739 6.1011956775800904 0 -1 0 I I #
edge $-1 $324 -62.401806695760982 $321 62.401806695760982 $206 $437 forward 7 unknown #
vertex $-1 $313 $438 #
straight-curve $-1 62.401806695760982 -22.103999247046868 2.272957365898324 0 0 1 I I #
coedge $-1 $425 $209 $426 $439 forward $200 $-1 #
vertex $-1 $439 $440 #
straight-curve $-1 -62.401806695760982 -22.103999247046868 2.272957365898324 0 0 -1 I I #
edge $-1 $433 -15.142896589656349 $213 -9.6883673014791292 $309 $441 forward 7 unknown #
point $-1 62.401806695760982 -22.103999247046868 6.1011956775800904 #
point $-1 -62.401806695760982 -22.103999247046868 6.1011956775800904 #
face $-1 $-1 $346 $29 $-1 $442 reversed single #
loop $-1 $-1 $342 $215 #
plane-surface $-1 -62.401806695760982 0 0 1 0 0 0 0 -1 forward_v I I I I #
coedge $-1 $349 $218 $219 $336 reversed $129 $-1 #
coedge $-1 $342 $443 $218 $334 forward $330 $-1 #
edge $-1 $444 0.23327317350803956 $350 3.2332731735080396 $333 $445 forward 7 unknown #
coedge $-1 $220 $219 $443 $446 reversed $81 $-1 #
edge $-1 $339 -62.401806695760982 $444 62.401806695760982 $332 $447 forward 7 unknown #
coedge $-1 $345 $344 $220 $338 forward $346 $-1 #
edge $-1 $340 -62.401806695760982 $448 62.401806695760982 $337 $449 forward 7 unknown #
vertex $-1 $222 $450 #
vertex $-1 $338 $451 #
straight-curve $-1 62.401806695760982 12.511032690619713 1.9665463470160791 0 1 0 I I #
coedge $-1 $452 $333 $223 $343 forward $330 $-1 #
edge $-1 $350 9.9745695366350535 $347 15.047495844604372 $342 $453 forward 7 unknown #
coedge $-1 $337 $224 $229 $353 forward $346 $-1 #
coedge $-1 $224 $337 $452 $454 reversed $346 $-1 #
loop $-1 $-1 $224 $329 #
vertex $-1 $454 $455 #
straight-curve $-1 0 27.558528535224088 4.9665463470160791 1 0 0 I I #
coedge $-1 $226 $332 $228 $352 reversed $129 $-1 #
vertex $-1 $343 $456 #
straight-curve $-1 0 22.485602227254766 4.9665463470160791 1 0 0 I I #
edge $-1 $231 -3.2332731735080396 $339 -0.23327317350803956 $228 $457 forward 7 unknown #
edge $-1 $230 -4.9665463470160791 $340 -1.9665463470160791 $229 $458 forward 7 unknown #
point $-1 62.401806695760982 27.558528535224085 4.9665463470160791 #
point $-1 62.401806695760982 22.485602227254766 4.9665463470160791 #
loop $-1 $-1 $364 $233 #
plane-surface $-1 0 -22.103999247046868 4.545914731796648 0 -1 0 0 0 -1 forward_v I I I I #
coedge $-1 $244 $239 $459 $460 forward $234 $-1 #
coedge $-1 $241 $236 $363 $461 forward $137 $-1 #
coedge $-1 $236 $241 $244 $371 forward $137 $-1 #
coedge $-1 $459 $364 $236 $362 reversed $356 $-1 #
edge $-1 $462 8.0698265317589488 $463 15.273762269704186 $236 $464 forward 7 unknown #
coedge $-1 $238 $237 $359 $461 reversed $85 $-1 #
coedge $-1 $361 $459 $238 $365 reversed $356 $-1 #
edge $-1 $463 -9.2697332983624356 $366 1.8310242626372826e-014 $364 $465 forward 7 unknown #
vertex $-1 $240 $466 #
straight-curve $-1 -62.401806695760982 -9.3308547866795966 0.76756342088743101 0 -1 0 I I #
vertex $-1 $242 $467 #
straight-curve $-1 -70.471633227519931 -15.219419899671518 6.6011956775800869 -1 0 0 I I #
straight-curve $-1 -62.401806695760968 -15.219419899671518 0.76756342088744134 0.77714595512881146 0 0.62932039886446345 I I #
edge $-1 $245 15.219419899671518 $462 22.103999247046868 $244 $468 forward 7 unknown #
point $-1 -62.401806695760982 -15.219419899671518 6.6011956775800904 #
point $-1 -62.401806695760982 -15.219419899671518 0.76756342088742979 #
edge $-1 $469 1 $469 0 $248 $-1 forward 7 unknown #
vertex $-1 $249 $470 #
ellipse-curve $-1 -57.909605997168164 -20.136976576368198 2.5850335818845935 -0.62932039886446345 0 0.77714595512881146 0.38857297756440573 0 0.31466019943223172 1 I I #
point $-1 -58.41126584922398 -20.136976576368198 3.9990397486660076 #
edge $-1 $471 1 $471 0 $252 $-1 forward 7 unknown #
vertex $-1 $253 $472 #
ellipse-curve $-1 -57.909605997168164 -17.186442570350192 2.5850335818845935 -0.62932039886446345 0 0.77714595512881146 0.38857297756440573 0 0.31466019943223172 1 I I #
point $-1 -58.41126584922398 -17.186442570350192 3.9990397486660076 #
loop $-1 $-1 $264 $256 #
plane-surface $-1 -62.401806695760982 0 0 1 0 0 0 0 -1 forward_v I I I I #
coedge $-1 $385 $259 $261 $389 reversed $159 $-1 #
coedge $-1 $259 $384 $473 $474 reversed $159 $-1 #
coedge $-1 $267 $262 $259 $387 forward $257 $-1 #
edge $-1 $390 -15.273762269704186 $475 -8.0698265317589488 $386 $476 forward 7 unknown #
coedge $-1 $261 $260 $393 $477 reversed $99 $-1 #
edge $-1 $478 -1.8310242626372826e-014 $390 9.2697332983624356 $384 $479 forward 7 unknown #
vertex $-1 $263 $480 #
straight-curve $-1 -55.197870957815752 1.8165455818958129 6.6011956775800886 0 1 0 I I #
coedge $-1 $473 $264 $267 $397 reversed $382 $-1 #
coedge $-1 $264 $473 $388 $477 forward $382 $-1 #
vertex $-1 $265 $481 #
straight-curve $-1 -62.401806695760982 0.19080149010394987 48.879093376784354 0 0 1 I I #
straight-curve $-1 -62.401806695760968 0.19080149010394987 0.76756342088744134 -0.77714595512881146 0 -0.62932039886446345 I I #
edge $-1 $475 -7.0753808374793019 $268 -0.19080149010394987 $392 $482 forward 7 unknown #
point $-1 -62.401806695760982 0.19080149010394987 6.6011956775800904 #
point $-1 -55.197870957815745 0.19080149010394987 6.6011956775800895 #
edge $-1 $483 1 $483 0 $271 $-1 forward 7 unknown #
vertex $-1 $272 $484 #
ellipse-curve $-1 -57.909605997168164 2.1578241607826207 2.5850335818845935 -0.62932039886446345 0 0.77714595512881146 0.38857297756440573 0 0.31466019943223172 1 I I #
point $-1 -58.41126584922398 2.1578241607826207 3.9990397486660076 #
edge $-1 $485 1 $485 0 $275 $-1 forward 7 unknown #
vertex $-1 $276 $486 #
ellipse-curve $-1 -57.909605997168164 5.1083581668006239 2.5850335818845935 -0.62932039886446345 0 0.77714595512881146 0.38857297756440573 0 0.31466019943223172 1 I I #
point $-1 -58.41126584922398 5.1083581668006239 3.9990397486660076 #
plane-surface $-1 62.401806695760982 0 0 -1 0 0 0 0 1 forward_v I I I I #
coedge $-1 $284 $282 $286 $413 reversed $181 $-1 #
edge $-1 $297 -6.6011956775800904 $415 6.6011956775800904 $296 $487 forward 7 unknown #
vertex $-1 $413 $488 #
straight-curve $-1 -62.401806695760982 -27.558528535224088 0 0 0 -1 I I #
edge $-1 $411 -27.558528535224088 $415 27.558528535224088 $409 $489 forward 7 unknown #
straight-curve $-1 0 -27.558528535224088 -6.6011956775800904 -1 0 0 I I #
vertex $-1 $289 $490 #
straight-curve $-1 0 27.558528535224088 -6.6011956775800904 1 0 0 I I #
point $-1 62.401806695760982 27.558528535224088 -6.6011956775800904 #
point $-1 62.401806695760982 -27.558528535224088 -6.6011956775800904 #
straight-curve $-1 -62.401806695760982 0 6.6011956775800904 0 -1 0 I I #
point $-1 -62.401806695760982 27.558528535224088 6.6011956775800904 #
point $-1 -62.401806695760982 -27.558528535224088 6.6011956775800904 #
straight-curve $-1 62.401806695760982 -27.558528535224088 0 0 0 -1 I I #
straight-curve $-1 62.401806695760982 27.558528535224088 0 0 0 -1 I I #
plane-surface $-1 62.401806695760982 0 0 -1 0 0 0 0 1 forward_v I I I I #
coedge $-1 $309 $323 $431 $491 reversed $200 $-1 #
coedge $-1 $311 $310 $323 $439 reversed $121 $-1 #
coedge $-1 $432 $431 $310 $428 forward $307 $-1 #
edge $-1 $492 -62.401806695760982 $429 62.401806695760982 $427 $493 forward 7 unknown #
vertex $-1 $428 $494 #
straight-curve $-1 62.401806695760982 -12.415631945567739 2.9906337860132055 0 1 0 I I #
coedge $-1 $427 $314 $425 $491 forward $307 $-1 #
coedge $-1 $314 $427 $316 $435 reversed $307 $-1 #
vertex $-1 $491 $495 #
straight-curve $-1 0 -27.558528535224088 6.1011956775800904 -1 0 0 I I #
edge $-1 $318 -6.1011956775800904 $429 -2.9906337860132055 $316 $496 forward 7 unknown #
point $-1 62.401806695760982 -27.558528535224088 6.1011956775800904 #
straight-curve $-1 0 -22.103999247046868 2.9906337860132055 1 0 0 I I #
point $-1 62.401806695760982 -22.103999247046868 2.9906337860132055 #
edge $-1 $324 9.6883673014791292 $492 15.142896589656349 $323 $497 forward 7 unknown #
point $-1 -62.401806695760982 -22.103999247046868 2.9906337860132055 #
straight-curve $-1 -62.401806695760982 -12.415631945567739 6.1011956775800904 0 1 0 I I #
plane-surface $-1 0 27.558528535224088 0 0 -1 0 0 0 -1 forward_v I I I I #
coedge $-1 $333 $452 $335 $446 forward $330 $-1 #
vertex $-1 $446 $498 #
straight-curve $-1 -62.401806695760982 22.485602227254766 1.7332731735080396 0 0 1 I I #
edge $-1 $448 -15.047495844604372 $444 -9.9745695366350535 $443 $499 forward 7 unknown #
straight-curve $-1 0 22.485602227254766 1.9665463470160791 -1 0 0 I I #
vertex $-1 $338 $500 #
straight-curve $-1 0 27.558528535224088 1.9665463470160791 -1 0 0 I I #
point $-1 62.401806695760982 22.485602227254766 1.9665463470160791 #
point $-1 62.401806695760982 27.558528535224085 1.9665463470160791 #
coedge $-1 $443 $342 $345 $454 forward $330 $-1 #
straight-curve $-1 -62.401806695760982 12.511032690619713 4.9665463470160791 0 1 0 I I #
edge $-1 $347 -4.9665463470160791 $448 -1.9665463470160791 $345 $501 forward 7 unknown #
point $-1 -62.401806695760982 27.558528535224085 4.9665463470160791 #
point $-1 -62.401806695760982 22.485602227254766 4.9665463470160791 #
straight-curve $-1 62.401806695760982 22.485602227254766 1.7332731735080396 0 0 -1 I I #
straight-curve $-1 62.401806695760982 27.558528535224088 0 0 0 -1 I I #
coedge $-1 $364 $361 $358 $460 reversed $356 $-1 #
edge $-1 $366 -48.111529955896927 $462 -42.27789769920426 $358 $502 forward 7 unknown #
edge $-1 $463 -12.773144460367272 $368 -5.8885651129919214 $359 $503 forward 7 unknown #
vertex $-1 $362 $504 #
vertex $-1 $362 $505 #
straight-curve $-1 -70.471633227519931 -22.103999247046868 6.6011956775800869 1 0 0 I I #
straight-curve $-1 -62.401806695760968 -22.103999247046868 0.76756342088744134 -0.77714595512881146 0 -0.62932039886446345 I I #
point $-1 -62.401806695760982 -22.103999247046868 0.76756342088742979 #
point $-1 -55.197870957815745 -15.219419899671518 6.6011956775800895 #
straight-curve $-1 -62.401806695760982 0 6.6011956775800904 0 -1 0 I I #
vertex $-1 $374 $506 #
point $-1 -57.521033019603763 -20.136976576368198 2.8996937813168255 #
vertex $-1 $378 $507 #
point $-1 -57.521033019603763 -17.186442570350192 2.8996937813168255 #
coedge $-1 $393 $392 $385 $474 forward $382 $-1 #
edge $-1 $475 42.27789769920426 $478 48.111529955896927 $473 $508 forward 7 unknown #
vertex $-1 $397 $509 #
straight-curve $-1 -70.471633227519931 7.0753808374793019 6.6011956775800869 -1 0 0 I I #
edge $-1 $478 -5.258835255583489 $394 1.6257440917918631 $393 $510 forward 7 unknown #
vertex $-1 $477 $511 #
straight-curve $-1 -62.401806695760968 7.0753808374793019 0.76756342088744134 0.77714595512881146 0 0.62932039886446345 I I #
point $-1 -55.197870957815745 7.0753808374793019 6.6011956775800895 #
point $-1 -62.401806695760982 0.19080149010394987 0.76756342088742979 #
straight-curve $-1 -62.401806695760982 0 6.6011956775800904 0 -1 0 I I #
vertex $-1 $400 $512 #
point $-1 -57.521033019603763 2.1578241607826207 2.8996937813168255 #
vertex $-1 $404 $513 #
point $-1 -57.521033019603763 5.1083581668006239 2.8996937813168255 #
straight-curve $-1 -62.401806695760982 27.558528535224088 0 0 0 -1 I I #
point $-1 -62.401806695760982 -27.558528535224088 -6.6011956775800904 #
straight-curve $-1 -62.401806695760982 0 -6.6011956775800904 0 1 0 I I #
point $-1 -62.401806695760982 27.558528535224088 -6.6011956775800904 #
edge $-1 $433 -6.1011956775800904 $492 -2.9906337860132055 $425 $514 forward 7 unknown #
vertex $-1 $428 $515 #
straight-curve $-1 0 -27.558528535224088 2.9906337860132055 1 0 0 I I #
point $-1 62.401806695760982 -27.558528535224088 2.9906337860132055 #
point $-1 -62.401806695760982 -27.558528535224088 6.1011956775800904 #
straight-curve $-1 62.401806695760982 -27.558528535224088 0 0 0 -1 I I #
straight-curve $-1 -62.401806695760982 -12.415631945567739 2.9906337860132055 0 -1 0 I I #
point $-1 -62.401806695760982 22.485602227254766 1.9665463470160791 #
straight-curve $-1 -62.401806695760982 12.511032690619713 1.9665463470160791 0 -1 0 I I #
point $-1 -62.401806695760982 27.558528535224085 1.9665463470160791 #
straight-curve $-1 -62.401806695760982 27.558528535224088 0 0 0 -1 I I #
straight-curve $-1 -62.401806695760982 -22.103999247046868 48.879093376784354 0 0 1 I I #
straight-curve $-1 -55.197870957815752 -9.3308547866795966 6.6011956775800886 0 1 0 I I #
point $-1 -62.401806695760982 -22.103999247046868 6.6011956775800904 #
point $-1 -55.197870957815745 -22.103999247046868 6.6011956775800895 #
point $-1 -57.594945797735939 -20.136976576368198 2.1964606043201882 #
point $-1 -57.594945797735939 -17.186442570350192 2.1964606043201882 #
straight-curve $-1 -62.401806695760982 7.0753808374793019 48.879093376784354 0 0 -1 I I #
point $-1 -62.401806695760982 7.0753808374793019 6.6011956775800904 #
straight-curve $-1 -62.401806695760982 1.8165455818958129 0.76756342088743101 0 -1 0 I I #
point $-1 -62.401806695760982 7.0753808374793019 0.76756342088742979 #
point $-1 -57.594945797735939 2.1578241607826207 2.1964606043201882 #
point $-1 -57.594945797735939 5.1083581668006239 2.1964606043201882 #
straight-curve $-1 -62.401806695760982 -27.558528535224088 0 0 0 -1 I I #
point $-1 -62.401806695760982 -27.558528535224088 2.9906337860132055 #
End-of-ACIS-data 