500 0 12 0           
7 Unknown 11 ACIS 5.0 NT 24 Thu Mar 25 20:20:03 1999 
-1 9.9999999999999995e-007 1e-010 
body $-1 $12 $-1 $13 #
body $-1 $14 $-1 $15 #
body $-1 $16 $-1 $17 #
body $-1 $18 $-1 $19 #
body $-1 $20 $-1 $21 #
body $-1 $22 $-1 $23 #
body $-1 $24 $-1 $25 #
body $-1 $26 $-1 $27 #
body $-1 $28 $-1 $29 #
body $-1 $30 $-1 $31 #
body $-1 $32 $-1 $33 #
body $-1 $34 $-1 $35 #
lump $-1 $-1 $36 $0 #
transform $-1 1 0 0 0 1 0 0 0 1 55.655995361186555 36.274317701729551 17.269351677599424 1 rotate no_reflect no_shear #
lump $-1 $-1 $37 $1 #
transform $-1 1 0 0 0 1 0 0 0 1 55.655995361186555 36.274317701729551 17.269351677599424 1 rotate no_reflect no_shear #
lump $-1 $-1 $38 $2 #
transform $-1 1 0 0 0 1 0 0 0 1 55.655995361186555 36.274317701729551 17.269351677599424 1 rotate no_reflect no_shear #
lump $-1 $-1 $39 $3 #
transform $-1 1 0 0 0 1 0 0 0 1 55.655995361186555 36.274317701729551 17.269351677599424 1 rotate no_reflect no_shear #
lump $-1 $-1 $40 $4 #
transform $-1 1 0 0 0 1 0 0 0 1 55.655995361186555 36.274317701729551 17.269351677599424 1 rotate no_reflect no_shear #
lump $-1 $-1 $41 $5 #
transform $-1 1 0 0 0 1 0 0 0 1 55.655995361186555 36.274317701729551 17.269351677599424 1 rotate no_reflect no_shear #
lump $-1 $-1 $42 $6 #
transform $-1 1 0 0 0 1 0 0 0 1 55.655995361186555 36.274317701729551 17.269351677599424 1 rotate no_reflect no_shear #
lump $-1 $-1 $43 $7 #
transform $-1 1 0 0 0 1 0 0 0 1 55.655995361186555 36.274317701729551 17.269351677599424 1 rotate no_reflect no_shear #
lump $-1 $-1 $44 $8 #
transform $-1 1 0 0 0 1 0 0 0 1 55.655995361186555 36.274317701729551 17.269351677599424 1 rotate no_reflect no_shear #
lump $-1 $-1 $45 $9 #
transform $-1 1 0 0 0 1 0 0 0 1 55.655995361186555 36.274317701729551 17.269351677599424 1 rotate no_reflect no_shear #
lump $-1 $-1 $46 $10 #
transform $-1 1 0 0 0 1 0 0 0 1 55.655995361186555 36.274317701729551 17.269351677599424 1 rotate no_reflect no_shear #
lump $-1 $-1 $47 $11 #
transform $-1 1 0 0 0 1 0 0 0 1 55.655995361186555 36.274317701729551 17.269351677599424 1 rotate no_reflect no_shear #
shell $-1 $-1 $-1 $48 $-1 $12 #
shell $-1 $-1 $-1 $49 $-1 $14 #
shell $-1 $-1 $-1 $50 $-1 $16 #
shell $-1 $-1 $-1 $51 $-1 $18 #
shell $-1 $-1 $-1 $52 $-1 $20 #
shell $-1 $-1 $-1 $53 $-1 $22 #
shell $-1 $-1 $-1 $54 $-1 $24 #
shell $-1 $-1 $-1 $55 $-1 $26 #
shell $-1 $-1 $-1 $56 $-1 $28 #
shell $-1 $-1 $-1 $57 $-1 $30 #
shell $-1 $-1 $-1 $58 $-1 $32 #
shell $-1 $-1 $-1 $59 $-1 $34 #
face $-1 $60 $61 $36 $-1 $62 forward single #
face $-1 $63 $64 $37 $-1 $65 reversed single #
face $-1 $66 $67 $38 $-1 $68 reversed single #
face $-1 $69 $70 $39 $-1 $71 reversed single #
face $-1 $72 $73 $40 $-1 $74 forward single #
face $-1 $75 $76 $41 $-1 $77 forward single #
face $-1 $78 $79 $42 $-1 $80 reversed single #
face $-1 $81 $82 $43 $-1 $83 forward single #
face $-1 $84 $85 $44 $-1 $86 forward single #
face $-1 $87 $88 $45 $-1 $89 reversed single #
face $-1 $90 $91 $46 $-1 $92 forward single #
face $-1 $93 $94 $47 $-1 $95 forward single #
face $-1 $96 $97 $36 $-1 $98 reversed single #
loop $-1 $-1 $99 $48 #
plane-surface $-1 0 0 17.269351677599424 0 0 1 1 0 0 forward_v I I I I #
face $-1 $100 $101 $37 $-1 $102 reversed single #
loop $-1 $-1 $103 $49 #
plane-surface $-1 -50.722052992334277 -17.06468713985381 0 0 -1 0 0 0 -1 forward_v I I I I #
face $-1 $104 $105 $38 $-1 $106 reversed single #
loop $-1 $-1 $107 $50 #
plane-surface $-1 -50.722052992334277 17.06468713985381 0 0 1 0 0 0 1 forward_v I I I I #
face $-1 $108 $109 $39 $-1 $110 reversed single #
loop $-1 $-1 $111 $51 #
plane-surface $-1 -151.06899485657775 -13.403707089058704 60.267655621861174 0 1 0 -0.85716730853699208 0 0.51503806187062418 forward_v I I I I #
face $-1 $112 $113 $40 $-1 $114 forward single #
loop $-1 $115 $116 $52 #
cone-surface $-1 -49.77578149997192 -11.154443936564782 9.1574538540738644 0.85716730853699208 0 -0.51503806187062418 0.51503806187062418 0 0.85716730853699208 1 I I 0 1 1 forward I I I I #
face $-1 $117 $118 $41 $-1 $119 forward single #
loop $-1 $120 $121 $53 #
cone-surface $-1 -49.77578149997192 -7.7805492078238991 9.1574538540738644 0.85716730853699208 0 -0.51503806187062418 0.51503806187062418 0 0.85716730853699208 1 I I 0 1 1 forward I I I I #
face $-1 $122 $123 $42 $-1 $124 reversed single #
loop $-1 $-1 $125 $54 #
plane-surface $-1 -151.06899485657775 5.5312860553299803 60.267655621861174 0 1 0 -0.85716730853699208 0 0.51503806187062418 forward_v I I I I #
face $-1 $126 $127 $43 $-1 $128 forward single #
loop $-1 $129 $130 $55 #
cone-surface $-1 -49.77578149997192 7.7805492078239027 9.1574538540738644 0.85716730853699208 0 -0.51503806187062418 0.51503806187062418 0 0.85716730853699208 1 I I 0 1 1 forward I I I I #
face $-1 $131 $132 $44 $-1 $133 forward single #
loop $-1 $134 $135 $56 #
cone-surface $-1 -49.77578149997192 11.154443936564789 9.1574538540738644 0.85716730853699208 0 -0.51503806187062418 0.51503806187062418 0 0.85716730853699208 1 I I 0 1 1 forward I I I I #
face $-1 $136 $137 $45 $-1 $138 reversed single #
loop $-1 $-1 $139 $57 #
plane-surface $-1 41.936033479028964 17.06468713985382 169.75973377194813 0 -1 0 -0.64278761758704617 0 -0.76604443648966558 forward_v I I I I #
face $-1 $140 $141 $46 $-1 $142 forward single #
loop $-1 $143 $144 $58 #
cone-surface $-1 51.936863592800464 9.7513421957970792 13.746860694920835 -0.64278761758704617 0 -0.76604443648966558 0.76604443648966558 0 -0.64278761758704617 1 I I 0 1 1 forward I I I I #
face $-1 $145 $146 $47 $-1 $147 forward single #
loop $-1 $148 $149 $59 #
cone-surface $-1 51.936863592800464 14.13934916223112 13.746860694920835 -0.64278761758704617 0 -0.76604443648966558 0.76604443648966558 0 -0.64278761758704617 1 I I 0 1 1 forward I I I I #
face $-1 $150 $151 $36 $-1 $152 reversed single #
loop $-1 $-1 $153 $60 #
plane-surface $-1 0 0 -17.269351677599424 0 0 1 1 0 0 forward_v I I I I #
coedge $-1 $154 $155 $156 $157 forward $61 $-1 #
face $-1 $158 $159 $37 $-1 $160 forward single #
loop $-1 $-1 $161 $63 #
plane-surface $-1 -45.788110623481998 -26.66950242079168 0 -1 0 0 0 0 1 forward_v I I I I #
coedge $-1 $162 $163 $164 $165 forward $64 $-1 #
face $-1 $166 $167 $38 $-1 $168 reversed single #
loop $-1 $-1 $169 $66 #
plane-surface $-1 -45.788110623481998 26.66950242079168 0 -1 0 0 0 0 1 forward_v I I I I #
coedge $-1 $170 $171 $172 $173 reversed $67 $-1 #
face $-1 $174 $175 $39 $-1 $176 reversed single #
loop $-1 $-1 $177 $69 #
plane-surface $-1 -55.655995361186555 -9.4674965721943423 2.9377436572492286 -0.85716730853699208 0 0.51503806187062418 0.51503806187062418 0 0.85716730853699208 forward_v I I I I #
coedge $-1 $178 $179 $180 $181 reversed $70 $-1 #
face $-1 $-1 $182 $40 $-1 $183 forward single #
loop $-1 $184 $185 $72 #
cone-surface $-1 -47.772633269509384 -11.154443936564782 7.9538410097880856 0.85716730853699208 0 -0.51503806187062418 0.25751903093531209 0 0.42858365426849604 1 I I -0.70710678118654691 0.70710678118654813 0.5 forward I I I I #
loop $-1 $-1 $186 $52 #
coedge $-1 $116 $116 $187 $188 reversed $73 $-1 #
face $-1 $-1 $189 $41 $-1 $190 forward single #
loop $-1 $191 $192 $75 #
cone-surface $-1 -47.772633269509384 -7.7805492078238991 7.9538410097880856 0.85716730853699208 0 -0.51503806187062418 0.25751903093531209 0 0.42858365426849604 1 I I -0.70710678118654691 0.70710678118654813 0.5 forward I I I I #
loop $-1 $-1 $193 $53 #
coedge $-1 $121 $121 $194 $195 reversed $76 $-1 #
face $-1 $196 $197 $42 $-1 $198 reversed single #
loop $-1 $-1 $199 $78 #
plane-surface $-1 -55.655995361186555 9.4674965721943423 2.9377436572492286 -0.85716730853699208 0 0.51503806187062418 0.51503806187062418 0 0.85716730853699208 forward_v I I I I #
coedge $-1 $200 $201 $202 $203 reversed $79 $-1 #
face $-1 $-1 $204 $43 $-1 $205 forward single #
loop $-1 $206 $207 $81 #
cone-surface $-1 -47.772633269509384 7.7805492078239027 7.9538410097880856 0.85716730853699208 0 -0.51503806187062418 0.25751903093531209 0 0.42858365426849604 1 I I -0.70710678118654691 0.70710678118654813 0.5 forward I I I I #
loop $-1 $-1 $208 $55 #
coedge $-1 $130 $130 $209 $210 reversed $82 $-1 #
face $-1 $-1 $211 $44 $-1 $212 forward single #
loop $-1 $213 $214 $84 #
cone-surface $-1 -47.772633269509384 11.154443936564789 7.9538410097880856 0.85716730853699208 0 -0.51503806187062418 0.25751903093531209 0 0.42858365426849604 1 I I -0.70710678118654691 0.70710678118654813 0.5 forward I I I I #
loop $-1 $-1 $215 $56 #
coedge $-1 $135 $135 $216 $217 reversed $85 $-1 #
face $-1 $218 $219 $45 $-1 $220 reversed single #
loop $-1 $-1 $221 $87 #
plane-surface $-1 -29.613935846276632 11.945345679014103 84.489802564484947 0.64278761758704617 0 0.76604443648966558 0.76604443648966558 0 -0.64278761758704617 forward_v I I I I #
coedge $-1 $222 $223 $224 $225 reversed $88 $-1 #
face $-1 $-1 $226 $46 $-1 $227 forward single #
loop $-1 $228 $229 $90 #
cone-surface $-1 50.476197538180799 9.7513421957970792 12.006106713207458 -0.64278761758704617 0 -0.76604443648966558 0.38302221824483279 0 -0.32139380879352308 1 I I -0.70710678118654746 0.70710678118654746 0.5 forward I I I I #
loop $-1 $-1 $230 $58 #
coedge $-1 $144 $144 $231 $232 reversed $91 $-1 #
face $-1 $-1 $233 $47 $-1 $234 forward single #
loop $-1 $235 $236 $93 #
cone-surface $-1 50.476197538180799 14.13934916223112 12.006106713207458 -0.64278761758704617 0 -0.76604443648966558 0.38302221824483279 0 -0.32139380879352308 1 I I -0.70710678118654746 0.70710678118654746 0.5 forward I I I I #
loop $-1 $-1 $237 $59 #
coedge $-1 $149 $149 $238 $239 reversed $94 $-1 #
face $-1 $240 $241 $36 $-1 $242 reversed single #
loop $-1 $-1 $243 $96 #
plane-surface $-1 0 -36.274317701729551 0 0 1 0 0 0 1 forward_v I I I I #
coedge $-1 $244 $245 $246 $247 forward $97 $-1 #
coedge $-1 $248 $99 $249 $250 forward $61 $-1 #
coedge $-1 $99 $248 $251 $252 forward $61 $-1 #
coedge $-1 $253 $254 $99 $157 reversed $255 $-1 #
edge $-1 $256 -36.274317701729551 $257 36.274317701729551 $156 $258 forward 7 unknown #
face $-1 $259 $260 $37 $-1 $261 reversed single #
loop $-1 $-1 $262 $100 #
plane-surface $-1 0 0 17.269351677599424 0 0 1 1 0 0 forward_v I I I I #
coedge $-1 $263 $264 $265 $266 reversed $101 $-1 #
coedge $-1 $267 $103 $268 $269 reversed $64 $-1 #
coedge $-1 $103 $267 $270 $271 reversed $64 $-1 #
coedge $-1 $264 $263 $103 $165 reversed $101 $-1 #
edge $-1 $272 -17.269351677599424 $273 17.269351677599424 $164 $274 forward 7 unknown #
face $-1 $275 $276 $38 $-1 $277 reversed single #
loop $-1 $-1 $278 $104 #
plane-surface $-1 0 0 -17.269351677599424 0 0 1 1 0 0 forward_v I I I I #
coedge $-1 $279 $280 $281 $282 forward $105 $-1 #
coedge $-1 $281 $107 $283 $284 reversed $67 $-1 #
coedge $-1 $107 $281 $285 $286 reversed $67 $-1 #
coedge $-1 $287 $288 $107 $173 forward $276 $-1 #
edge $-1 $289 -17.269351677599424 $290 17.269351677599424 $172 $291 forward 7 unknown #
face $-1 $292 $293 $39 $-1 $294 forward single #
loop $-1 $-1 $295 $108 #
plane-surface $-1 -151.06899485657775 -5.5312860553299803 60.267655621861174 0 -1 0 0.85716730853699208 0 -0.51503806187062418 forward_v I I I I #
coedge $-1 $296 $297 $298 $299 reversed $109 $-1 #
coedge $-1 $179 $111 $300 $301 reversed $70 $-1 #
coedge $-1 $111 $178 $296 $302 reversed $70 $-1 #
coedge $-1 $298 $303 $111 $181 forward $293 $-1 #
edge $-1 $304 19.878502067102318 $305 28.48980063714351 $180 $306 forward 7 unknown #
loop $-1 $-1 $187 $112 #
plane-surface $-1 -55.655995361186555 -9.4674965721943423 2.9377436572492286 -0.85716730853699208 0 0.51503806187062418 0.51503806187062418 0 0.85716730853699208 forward_v I I I I #
loop $-1 $-1 $307 $72 #
coedge $-1 $185 $185 $186 $308 reversed $113 $-1 #
coedge $-1 $186 $186 $185 $308 forward $115 $-1 #
coedge $-1 $187 $187 $116 $188 forward $182 $-1 #
edge $-1 $309 0 $309 6.2831853071796004 $187 $310 forward 7 unknown #
loop $-1 $-1 $194 $117 #
plane-surface $-1 -55.655995361186555 -9.4674965721943423 2.9377436572492286 -0.85716730853699208 0 0.51503806187062418 0.51503806187062418 0 0.85716730853699208 forward_v I I I I #
loop $-1 $-1 $311 $75 #
coedge $-1 $192 $192 $193 $312 reversed $118 $-1 #
coedge $-1 $193 $193 $192 $312 forward $120 $-1 #
coedge $-1 $194 $194 $121 $195 forward $189 $-1 #
edge $-1 $313 0 $313 6.2831853071796004 $194 $314 forward 7 unknown #
face $-1 $315 $316 $42 $-1 $317 forward single #
loop $-1 $-1 $318 $122 #
plane-surface $-1 -151.06899485657775 13.403707089058704 60.267655621861174 0 -1 0 0.85716730853699208 0 -0.51503806187062418 forward_v I I I I #
coedge $-1 $319 $320 $321 $322 reversed $123 $-1 #
coedge $-1 $201 $125 $323 $324 reversed $79 $-1 #
coedge $-1 $125 $200 $319 $325 reversed $79 $-1 #
coedge $-1 $321 $326 $125 $203 forward $316 $-1 #
edge $-1 $327 19.878502067102318 $328 28.48980063714351 $202 $329 forward 7 unknown #
loop $-1 $-1 $209 $126 #
plane-surface $-1 -55.655995361186555 9.4674965721943423 2.9377436572492286 -0.85716730853699208 0 0.51503806187062418 0.51503806187062418 0 0.85716730853699208 forward_v I I I I #
loop $-1 $-1 $330 $81 #
coedge $-1 $207 $207 $208 $331 reversed $127 $-1 #
coedge $-1 $208 $208 $207 $331 forward $129 $-1 #
coedge $-1 $209 $209 $130 $210 forward $204 $-1 #
edge $-1 $332 0 $332 6.2831853071796004 $209 $333 forward 7 unknown #
loop $-1 $-1 $216 $131 #
plane-surface $-1 -55.655995361186555 9.4674965721943423 2.9377436572492286 -0.85716730853699208 0 0.51503806187062418 0.51503806187062418 0 0.85716730853699208 forward_v I I I I #
loop $-1 $-1 $334 $84 #
coedge $-1 $214 $214 $215 $335 reversed $132 $-1 #
coedge $-1 $215 $215 $214 $335 forward $134 $-1 #
coedge $-1 $216 $216 $135 $217 forward $211 $-1 #
edge $-1 $336 0 $336 6.2831853071796004 $216 $337 forward 7 unknown #
face $-1 $338 $339 $45 $-1 $340 reversed single #
loop $-1 $-1 $341 $136 #
plane-surface $-1 41.936033479028964 6.8260042181743863 169.75973377194813 0 1 0 0.64278761758704617 0 0.76604443648966558 forward_v I I I I #
coedge $-1 $342 $343 $344 $345 reversed $137 $-1 #
coedge $-1 $223 $139 $346 $347 reversed $88 $-1 #
coedge $-1 $139 $222 $342 $348 reversed $88 $-1 #
coedge $-1 $344 $349 $139 $225 forward $350 $-1 #
edge $-1 $351 -34.687978621672073 $352 -29.528259576552173 $224 $353 forward 7 unknown #
loop $-1 $-1 $231 $140 #
plane-surface $-1 -29.613935846276632 11.945345679014103 84.489802564484947 0.64278761758704617 0 0.76604443648966558 0.76604443648966558 0 -0.64278761758704617 forward_v I I I I #
loop $-1 $-1 $354 $90 #
coedge $-1 $229 $229 $230 $355 reversed $141 $-1 #
coedge $-1 $230 $230 $229 $355 forward $143 $-1 #
coedge $-1 $231 $231 $144 $232 forward $226 $-1 #
edge $-1 $356 0 $356 6.2831853071796004 $231 $357 forward 7 unknown #
loop $-1 $-1 $238 $145 #
plane-surface $-1 -29.613935846276632 11.945345679014103 84.489802564484947 0.64278761758704617 0 0.76604443648966558 0.76604443648966558 0 -0.64278761758704617 forward_v I I I I #
loop $-1 $-1 $358 $93 #
coedge $-1 $236 $236 $237 $359 reversed $146 $-1 #
coedge $-1 $237 $237 $236 $359 forward $148 $-1 #
coedge $-1 $238 $238 $149 $239 forward $233 $-1 #
edge $-1 $360 0 $360 6.2831853071796004 $238 $361 forward 7 unknown #
face $-1 $362 $363 $36 $-1 $364 reversed single #
loop $-1 $-1 $365 $150 #
plane-surface $-1 -55.655995361186555 0 0 1 0 0 0 0 -1 forward_v I I I I #
coedge $-1 $366 $251 $367 $368 forward $151 $-1 #
coedge $-1 $369 $153 $366 $370 forward $97 $-1 #
coedge $-1 $153 $369 $371 $372 forward $97 $-1 #
coedge $-1 $254 $253 $153 $247 reversed $255 $-1 #
edge $-1 $373 -36.274317701729551 $374 36.274317701729551 $246 $375 forward 7 unknown #
coedge $-1 $155 $154 $376 $377 forward $61 $-1 #
coedge $-1 $378 $379 $154 $250 reversed $363 $-1 #
edge $-1 $257 -55.655995361186555 $380 55.655995361186555 $249 $381 forward 7 unknown #
coedge $-1 $243 $382 $155 $252 reversed $151 $-1 #
edge $-1 $383 -55.655995361186555 $256 55.655995361186555 $251 $384 forward 7 unknown #
coedge $-1 $246 $156 $382 $385 forward $255 $-1 #
coedge $-1 $156 $246 $378 $386 reversed $255 $-1 #
loop $-1 $-1 $253 $362 #
vertex $-1 $157 $387 #
vertex $-1 $157 $388 #
straight-curve $-1 55.655995361186555 0 17.269351677599424 0 1 0 I I #
face $-1 $389 $390 $37 $-1 $391 reversed single #
loop $-1 $-1 $392 $158 #
plane-surface $-1 -55.655995361186555 0 0 1 0 0 0 0 -1 forward_v I I I I #
coedge $-1 $270 $393 $264 $394 forward $159 $-1 #
coedge $-1 $164 $161 $395 $396 reversed $101 $-1 #
coedge $-1 $161 $164 $262 $394 reversed $101 $-1 #
coedge $-1 $397 $398 $161 $266 forward $399 $-1 #
edge $-1 $400 -17.269351677599424 $401 17.269351677599424 $265 $402 forward 7 unknown #
coedge $-1 $163 $162 $392 $403 reversed $64 $-1 #
coedge $-1 $395 $404 $162 $269 forward $390 $-1 #
edge $-1 $405 -30.294968865019417 $273 -20.42708412731486 $268 $406 forward 7 unknown #
coedge $-1 $407 $262 $163 $271 forward $159 $-1 #
edge $-1 $272 20.42708412731486 $408 30.294968865019417 $270 $409 forward 7 unknown #
vertex $-1 $271 $410 #
vertex $-1 $269 $411 #
straight-curve $-1 -45.788110623481998 -17.06468713985381 0 0 0 -1 I I #
face $-1 $412 $413 $38 $-1 $414 forward single #
loop $-1 $-1 $172 $166 #
plane-surface $-1 -55.655995361186555 0 0 1 0 0 0 0 -1 forward_v I I I I #
coedge $-1 $283 $415 $279 $416 forward $167 $-1 #
coedge $-1 $417 $169 $278 $416 reversed $105 $-1 #
coedge $-1 $169 $417 $418 $419 reversed $105 $-1 #
coedge $-1 $171 $170 $169 $282 reversed $67 $-1 #
edge $-1 $420 -17.269351677599424 $421 17.269351677599424 $169 $422 forward 7 unknown #
coedge $-1 $423 $278 $170 $284 forward $167 $-1 #
edge $-1 $421 20.42708412731486 $289 30.294968865019417 $283 $424 forward 7 unknown #
coedge $-1 $418 $425 $171 $286 forward $413 $-1 #
edge $-1 $290 -30.294968865019417 $420 -20.42708412731486 $285 $426 forward 7 unknown #
coedge $-1 $427 $172 $425 $428 reversed $276 $-1 #
coedge $-1 $172 $427 $423 $429 reversed $276 $-1 #
vertex $-1 $429 $430 #
vertex $-1 $173 $431 #
straight-curve $-1 -55.655995361186555 17.06468713985381 0 0 0 1 I I #
face $-1 $-1 $432 $39 $-1 $433 reversed single #
loop $-1 $-1 $180 $174 #
plane-surface $-1 0 0 17.269351677599424 0 0 1 1 0 0 forward_v I I I I #
coedge $-1 $434 $435 $436 $437 reversed $175 $-1 #
coedge $-1 $438 $177 $179 $302 forward $109 $-1 #
coedge $-1 $177 $438 $434 $439 forward $109 $-1 #
coedge $-1 $436 $180 $177 $299 forward $293 $-1 #
edge $-1 $305 -8.6699588029615331 $440 -0.79753776923280917 $298 $441 forward 7 unknown #
coedge $-1 $442 $443 $178 $301 forward $432 $-1 #
edge $-1 $444 -27.196084153681358 $304 -12.864476133331163 $300 $445 forward 7 unknown #
edge $-1 $305 -16.719732399514047 $444 0 $179 $446 forward 7 unknown #
coedge $-1 $180 $436 $442 $447 forward $293 $-1 #
vertex $-1 $181 $448 #
vertex $-1 $181 $449 #
straight-curve $-1 -75.534497428288873 -13.403707089058704 17.269351677599424 1 0 0 I I #
coedge $-1 $307 $307 $-1 $450 reversed $184 $-1 #
edge $-1 $451 0 $451 6.2831853071796004 $185 $452 forward 7 unknown #
vertex $-1 $188 $453 #
ellipse-curve $-1 -51.350346076165955 -11.154443936564782 10.10354766742433 -0.85716730853699208 0 0.51503806187062418 0.51503806187062418 0 0.85716730853699208 1 I I #
coedge $-1 $311 $311 $-1 $454 reversed $191 $-1 #
edge $-1 $455 0 $455 6.2831853071796004 $192 $456 forward 7 unknown #
vertex $-1 $195 $457 #
ellipse-curve $-1 -51.350346076165955 -7.7805492078238991 10.10354766742433 -0.85716730853699208 0 0.51503806187062418 0.51503806187062418 0 0.85716730853699208 1 I I #
face $-1 $-1 $458 $42 $-1 $459 reversed single #
loop $-1 $-1 $202 $196 #
plane-surface $-1 0 0 17.269351677599424 0 0 1 1 0 0 forward_v I I I I #
coedge $-1 $460 $461 $462 $463 reversed $197 $-1 #
coedge $-1 $464 $199 $201 $325 forward $123 $-1 #
coedge $-1 $199 $464 $460 $465 forward $123 $-1 #
coedge $-1 $462 $202 $199 $322 forward $316 $-1 #
edge $-1 $328 0.79753776923280917 $466 8.6699588029615331 $321 $467 forward 7 unknown #
coedge $-1 $468 $469 $200 $324 forward $458 $-1 #
edge $-1 $470 -27.196084153681358 $327 -12.864476133331163 $323 $471 forward 7 unknown #
edge $-1 $328 -16.719732399514047 $470 0 $201 $472 forward 7 unknown #
coedge $-1 $202 $462 $468 $473 forward $316 $-1 #
vertex $-1 $203 $474 #
vertex $-1 $203 $475 #
straight-curve $-1 -75.534497428288873 5.5312860553299803 17.269351677599424 1 0 0 I I #
coedge $-1 $330 $330 $-1 $476 reversed $206 $-1 #
edge $-1 $477 0 $477 6.2831853071796004 $207 $478 forward 7 unknown #
vertex $-1 $210 $479 #
ellipse-curve $-1 -51.350346076165955 7.7805492078239027 10.10354766742433 -0.85716730853699208 0 0.51503806187062418 0.51503806187062418 0 0.85716730853699208 1 I I #
coedge $-1 $334 $334 $-1 $480 reversed $213 $-1 #
edge $-1 $481 0 $481 6.2831853071796004 $214 $482 forward 7 unknown #
vertex $-1 $217 $483 #
ellipse-curve $-1 -51.350346076165955 11.154443936564789 10.10354766742433 -0.85716730853699208 0 0.51503806187062418 0.51503806187062418 0 0.85716730853699208 1 I I #
face $-1 $-1 $350 $45 $-1 $484 forward single #
loop $-1 $-1 $485 $218 #
plane-surface $-1 55.655995361186555 0 0 -1 0 0 0 0 1 forward_v I I I I #
coedge $-1 $486 $487 $488 $489 reversed $219 $-1 #
coedge $-1 $490 $221 $223 $348 forward $137 $-1 #
coedge $-1 $221 $490 $486 $491 forward $137 $-1 #
coedge $-1 $488 $224 $221 $345 forward $350 $-1 #
edge $-1 $352 -11.092014300346769 $492 -0.85333137866733466 $344 $493 forward 7 unknown #
coedge $-1 $494 $495 $222 $347 forward $339 $-1 #
edge $-1 $496 -71.940033646794717 $351 -67.610515208374636 $346 $497 forward 7 unknown #
edge $-1 $352 104.576455811678 $496 111.31199072237311 $223 $498 forward 7 unknown #
coedge $-1 $224 $488 $494 $499 forward $350 $-1 #
loop $-1 $-1 $488 $338 #
vertex $-1 $347 $500 #
vertex $-1 $225 $501 #
straight-curve $-1 20.968016739514482 17.06468713985382 17.269351677599417 -1 0 0 I I #
coedge $-1 $354 $354 $-1 $502 reversed $228 $-1 #
edge $-1 $503 0 $503 6.2831853071796004 $229 $504 forward 7 unknown #
vertex $-1 $232 $505 #
ellipse-curve $-1 53.076135838626612 9.7513421957970792 15.104592458389385 0.64278761758704617 0 0.76604443648966558 0.76604443648966558 0 -0.64278761758704617 1 I I #
coedge $-1 $358 $358 $-1 $506 reversed $235 $-1 #
edge $-1 $507 0 $507 6.2831853071796004 $236 $508 forward 7 unknown #
vertex $-1 $239 $509 #
ellipse-curve $-1 53.076135838626612 14.13934916223112 15.104592458389385 0.64278761758704617 0 0.76604443648966558 0.76604443648966558 0 -0.64278761758704617 1 I I #
face $-1 $-1 $255 $36 $-1 $510 reversed single #
loop $-1 $-1 $378 $240 #
plane-surface $-1 0 36.274317701729551 0 0 -1 0 0 0 -1 forward_v I I I I #
coedge $-1 $511 $376 $379 $512 forward $241 $-1 #
coedge $-1 $382 $243 $244 $370 reversed $151 $-1 #
coedge $-1 $376 $511 $243 $368 reversed $241 $-1 #
edge $-1 $383 -17.269351677599424 $513 17.269351677599424 $367 $514 forward 7 unknown #
coedge $-1 $245 $244 $511 $515 forward $97 $-1 #
edge $-1 $374 -55.655995361186555 $513 55.655995361186555 $366 $516 forward 7 unknown #
coedge $-1 $379 $378 $245 $372 reversed $363 $-1 #
edge $-1 $517 -55.655995361186555 $373 55.655995361186555 $371 $518 forward 7 unknown #
vertex $-1 $247 $519 #
vertex $-1 $385 $520 #
straight-curve $-1 55.655995361186555 0 -17.269351677599424 0 -1 0 I I #
coedge $-1 $365 $367 $248 $377 reversed $241 $-1 #
edge $-1 $380 -36.274317701729551 $383 36.274317701729551 $376 $521 forward 7 unknown #
coedge $-1 $371 $249 $254 $386 forward $363 $-1 #
coedge $-1 $249 $371 $365 $512 reversed $363 $-1 #
vertex $-1 $250 $522 #
straight-curve $-1 0 36.274317701729551 17.269351677599424 -1 0 0 I I #
coedge $-1 $251 $366 $253 $385 reversed $151 $-1 #
vertex $-1 $377 $523 #
straight-curve $-1 0 -36.274317701729551 17.269351677599424 1 0 0 I I #
edge $-1 $256 -17.269351677599424 $374 17.269351677599424 $253 $524 forward 7 unknown #
edge $-1 $257 -17.269351677599424 $373 17.269351677599424 $254 $525 forward 7 unknown #
point $-1 55.655995361186555 -36.274317701729551 17.269351677599424 #
point $-1 55.655995361186555 36.274317701729551 17.269351677599424 #
face $-1 $-1 $399 $37 $-1 $526 reversed single #
loop $-1 $-1 $395 $259 #
plane-surface $-1 0 0 -17.269351677599424 0 0 1 1 0 0 forward_v I I I I #
coedge $-1 $527 $528 $267 $403 forward $260 $-1 #
coedge $-1 $262 $407 $397 $529 forward $159 $-1 #
edge $-1 $401 -22.939566491333711 $272 -3.7299359294579695 $262 $530 forward 7 unknown #
coedge $-1 $531 $268 $263 $396 forward $390 $-1 #
edge $-1 $273 3.7299359294579695 $400 22.939566491333711 $395 $532 forward 7 unknown #
coedge $-1 $533 $265 $393 $529 reversed $399 $-1 #
coedge $-1 $265 $533 $531 $534 reversed $399 $-1 #
loop $-1 $-1 $265 $389 #
vertex $-1 $534 $535 #
vertex $-1 $266 $536 #
straight-curve $-1 -45.788110623481998 -36.274317701729551 0 0 0 1 I I #
edge $-1 $408 -17.269351677599424 $405 17.269351677599424 $392 $537 forward 7 unknown #
coedge $-1 $268 $531 $527 $538 forward $390 $-1 #
vertex $-1 $269 $539 #
straight-curve $-1 -25.361026496167138 -17.06468713985381 -17.269351677599424 1 0 0 I I #
coedge $-1 $393 $270 $528 $540 forward $159 $-1 #
vertex $-1 $540 $541 #
straight-curve $-1 -25.361026496167138 -17.06468713985381 17.269351677599424 -1 0 0 I I #
point $-1 -45.788110623481998 -17.06468713985381 17.269351677599424 #
point $-1 -45.788110623481998 -17.06468713985381 -17.269351677599424 #
face $-1 $-1 $542 $38 $-1 $543 reversed single #
loop $-1 $-1 $418 $275 #
plane-surface $-1 0 0 17.269351677599424 0 0 1 1 0 0 forward_v I I I I #
coedge $-1 $278 $423 $544 $545 forward $167 $-1 #
edge $-1 $546 -22.939566491333711 $421 -3.7299359294579695 $278 $547 forward 7 unknown #
coedge $-1 $280 $279 $548 $549 reversed $105 $-1 #
coedge $-1 $550 $285 $280 $419 forward $413 $-1 #
edge $-1 $420 3.7299359294579695 $551 22.939566491333711 $418 $552 forward 7 unknown #
vertex $-1 $286 $553 #
vertex $-1 $284 $554 #
straight-curve $-1 -45.788110623481998 17.06468713985381 0 0 0 -1 I I #
coedge $-1 $415 $283 $288 $429 forward $167 $-1 #
straight-curve $-1 -25.361026496167138 17.06468713985381 -17.269351677599424 -1 0 0 I I #
coedge $-1 $285 $550 $287 $428 forward $413 $-1 #
straight-curve $-1 -25.361026496167138 17.06468713985381 17.269351677599424 1 0 0 I I #
coedge $-1 $288 $287 $555 $556 forward $276 $-1 #
edge $-1 $557 -36.274317701729551 $290 -17.06468713985381 $287 $558 forward 7 unknown #
edge $-1 $289 17.06468713985381 $559 36.274317701729551 $288 $560 forward 7 unknown #
point $-1 -55.655995361186555 17.06468713985381 -17.269351677599424 #
point $-1 -55.655995361186555 17.06468713985381 17.269351677599424 #
loop $-1 $-1 $300 $292 #
plane-surface $-1 -55.655995361186555 0 0 1 0 0 0 0 -1 forward_v I I I I #
coedge $-1 $435 $295 $297 $439 reversed $175 $-1 #
coedge $-1 $295 $434 $561 $562 reversed $175 $-1 #
coedge $-1 $303 $298 $295 $437 forward $293 $-1 #
edge $-1 $440 -28.48980063714351 $563 -19.878502067102318 $436 $564 forward 7 unknown #
coedge $-1 $297 $296 $443 $565 reversed $109 $-1 #
edge $-1 $566 0 $440 16.719732399514047 $434 $567 forward 7 unknown #
vertex $-1 $299 $568 #
straight-curve $-1 -47.044696791145356 -4.7337482860971711 17.269351677599424 0 1 0 I I #
coedge $-1 $561 $300 $303 $447 reversed $432 $-1 #
coedge $-1 $300 $561 $438 $565 forward $432 $-1 #
vertex $-1 $301 $569 #
straight-curve $-1 -55.655995361186555 -13.403707089058704 30.133827810930587 0 0 1 I I #
straight-curve $-1 -55.655995361186555 -13.403707089058704 2.9377436572492286 -0.51503806187062418 0 -0.85716730853699208 I I #
edge $-1 $563 5.5312860553299803 $304 13.403707089058704 $442 $570 forward 7 unknown #
point $-1 -55.655995361186555 -13.403707089058704 17.269351677599424 #
point $-1 -47.044696791145363 -13.403707089058704 17.269351677599424 #
edge $-1 $571 1 $571 0 $307 $-1 forward 7 unknown #
vertex $-1 $308 $572 #
ellipse-curve $-1 -48.201216923777878 -11.154443936564782 8.2113600407233989 -0.85716730853699208 0 0.51503806187062418 0.51503806187062418 0 0.85716730853699208 1 I I #
point $-1 -50.835308014295336 -11.154443936564782 10.960714975961324 #
edge $-1 $573 1 $573 0 $311 $-1 forward 7 unknown #
vertex $-1 $312 $574 #
ellipse-curve $-1 -48.201216923777878 -7.7805492078238991 8.2113600407233989 -0.85716730853699208 0 0.51503806187062418 0.51503806187062418 0 0.85716730853699208 1 I I #
point $-1 -50.835308014295336 -7.7805492078238991 10.960714975961324 #
loop $-1 $-1 $323 $315 #
plane-surface $-1 -55.655995361186555 0 0 1 0 0 0 0 -1 forward_v I I I I #
coedge $-1 $461 $318 $320 $465 reversed $197 $-1 #
coedge $-1 $318 $460 $575 $576 reversed $197 $-1 #
coedge $-1 $326 $321 $318 $463 forward $316 $-1 #
edge $-1 $466 -28.48980063714351 $577 -19.878502067102318 $462 $578 forward 7 unknown #
coedge $-1 $320 $319 $469 $579 reversed $123 $-1 #
edge $-1 $580 0 $466 16.719732399514047 $460 $581 forward 7 unknown #
vertex $-1 $322 $582 #
straight-curve $-1 -47.044696791145356 4.7337482860971711 17.269351677599424 0 1 0 I I #
coedge $-1 $575 $323 $326 $473 reversed $458 $-1 #
coedge $-1 $323 $575 $464 $579 forward $458 $-1 #
vertex $-1 $324 $583 #
straight-curve $-1 -55.655995361186555 5.5312860553299803 30.133827810930587 0 0 1 I I #
straight-curve $-1 -55.655995361186555 5.5312860553299803 2.9377436572492286 -0.51503806187062418 0 -0.85716730853699208 I I #
edge $-1 $577 -13.403707089058704 $327 -5.5312860553299803 $468 $584 forward 7 unknown #
point $-1 -55.655995361186555 5.5312860553299803 17.269351677599424 #
point $-1 -47.044696791145363 5.5312860553299803 17.269351677599424 #
edge $-1 $585 1 $585 0 $330 $-1 forward 7 unknown #
vertex $-1 $331 $586 #
ellipse-curve $-1 -48.201216923777878 7.7805492078239027 8.2113600407233989 -0.85716730853699208 0 0.51503806187062418 0.51503806187062418 0 0.85716730853699208 1 I I #
point $-1 -50.835308014295336 7.7805492078239027 10.960714975961324 #
edge $-1 $587 1 $587 0 $334 $-1 forward 7 unknown #
vertex $-1 $335 $588 #
ellipse-curve $-1 -48.201216923777878 11.154443936564789 8.2113600407233989 -0.85716730853699208 0 0.51503806187062418 0.51503806187062418 0 0.85716730853699208 1 I I #
point $-1 -50.835308014295336 11.154443936564789 10.960714975961324 #
plane-surface $-1 0 0 17.269351677599424 0 0 1 1 0 0 forward_v I I I I #
coedge $-1 $495 $494 $487 $589 forward $339 $-1 #
coedge $-1 $487 $341 $343 $491 reversed $219 $-1 #
coedge $-1 $341 $486 $485 $589 reversed $219 $-1 #
coedge $-1 $349 $344 $341 $489 forward $350 $-1 #
edge $-1 $492 29.528259576552173 $590 34.687978621672073 $488 $591 forward 7 unknown #
coedge $-1 $343 $342 $495 $592 reversed $137 $-1 #
edge $-1 $593 -111.31199072237311 $492 -104.576455811678 $486 $594 forward 7 unknown #
vertex $-1 $345 $595 #
straight-curve $-1 50.496276316066663 5.9726728395070516 17.269351677599431 0 -1 0 I I #
coedge $-1 $485 $346 $349 $499 reversed $339 $-1 #
coedge $-1 $346 $485 $490 $592 forward $339 $-1 #
vertex $-1 $347 $596 #
straight-curve $-1 55.655995361186555 17.06468713985382 84.879866885974067 0 0 1 I I #
straight-curve $-1 -29.613935846276632 17.06468713985382 84.489802564484947 0.76604443648966558 0 -0.64278761758704617 I I #
edge $-1 $590 6.8260042181743863 $351 17.06468713985382 $494 $597 forward 7 unknown #
point $-1 55.655995361186555 17.06468713985382 17.269351677599424 #
point $-1 50.496276316066655 17.06468713985382 17.269351677599431 #
edge $-1 $598 1 $598 0 $354 $-1 forward 7 unknown #
vertex $-1 $355 $599 #
ellipse-curve $-1 50.797591346974322 9.7513421957970792 12.389128931452291 0.64278761758704617 0 0.76604443648966558 0.76604443648966558 0 -0.64278761758704617 1 I I #
point $-1 53.842180275116277 9.7513421957970792 14.461804840802333 #
edge $-1 $600 1 $600 0 $358 $-1 forward 7 unknown #
vertex $-1 $359 $601 #
ellipse-curve $-1 50.797591346974322 14.13934916223112 12.389128931452291 0.64278761758704617 0 0.76604443648966558 0.76604443648966558 0 -0.64278761758704617 1 I I #
point $-1 53.842180275116277 14.13934916223112 14.461804840802333 #
plane-surface $-1 55.655995361186555 0 0 -1 0 0 0 0 1 forward_v I I I I #
coedge $-1 $367 $365 $369 $515 reversed $241 $-1 #
edge $-1 $380 -17.269351677599424 $517 17.269351677599424 $379 $602 forward 7 unknown #
vertex $-1 $515 $603 #
straight-curve $-1 -55.655995361186555 -36.274317701729551 0 0 0 -1 I I #
edge $-1 $513 -36.274317701729551 $517 36.274317701729551 $511 $604 forward 7 unknown #
straight-curve $-1 0 -36.274317701729551 -17.269351677599424 -1 0 0 I I #
vertex $-1 $372 $605 #
straight-curve $-1 0 36.274317701729551 -17.269351677599424 1 0 0 I I #
point $-1 55.655995361186555 36.274317701729551 -17.269351677599424 #
point $-1 55.655995361186555 -36.274317701729551 -17.269351677599424 #
straight-curve $-1 -55.655995361186555 0 17.269351677599424 0 -1 0 I I #
point $-1 -55.655995361186555 36.274317701729551 17.269351677599424 #
point $-1 -55.655995361186555 -36.274317701729551 17.269351677599424 #
straight-curve $-1 55.655995361186555 -36.274317701729551 0 0 0 -1 I I #
straight-curve $-1 55.655995361186555 36.274317701729551 0 0 0 -1 I I #
plane-surface $-1 0 -36.274317701729551 0 0 1 0 0 0 1 forward_v I I I I #
coedge $-1 $606 $392 $404 $538 reversed $260 $-1 #
coedge $-1 $392 $606 $407 $540 reversed $260 $-1 #
edge $-1 $607 -55.655995361186555 $401 -45.788110623481998 $397 $608 forward 7 unknown #
straight-curve $-1 -45.788110623481998 -13.33475121039584 17.269351677599424 0 1 0 I I #
coedge $-1 $404 $395 $398 $534 forward $390 $-1 #
straight-curve $-1 -45.788110623481998 -13.33475121039584 -17.269351677599424 0 -1 0 I I #
coedge $-1 $398 $397 $606 $609 forward $399 $-1 #
edge $-1 $400 45.788110623481998 $610 55.655995361186555 $398 $611 forward 7 unknown #
point $-1 -45.788110623481998 -36.274317701729551 -17.269351677599424 #
point $-1 -45.788110623481998 -36.274317701729551 17.269351677599424 #
straight-curve $-1 -55.655995361186555 -17.06468713985381 0 0 0 -1 I I #
edge $-1 $610 -36.274317701729551 $405 -17.06468713985381 $527 $612 forward 7 unknown #
point $-1 -55.655995361186555 -17.06468713985381 -17.269351677599424 #
edge $-1 $408 17.06468713985381 $607 36.274317701729551 $528 $613 forward 7 unknown #
point $-1 -55.655995361186555 -17.06468713985381 17.269351677599424 #
loop $-1 $-1 $548 $412 #
plane-surface $-1 0 36.274317701729551 0 0 -1 0 0 0 -1 forward_v I I I I #
coedge $-1 $555 $548 $415 $545 reversed $542 $-1 #
edge $-1 $559 -55.655995361186555 $546 -45.788110623481998 $544 $614 forward 7 unknown #
vertex $-1 $416 $615 #
straight-curve $-1 -45.788110623481998 13.33475121039584 -17.269351677599424 0 -1 0 I I #
coedge $-1 $544 $616 $417 $549 forward $542 $-1 #
edge $-1 $551 -17.269351677599424 $546 17.269351677599424 $548 $617 forward 7 unknown #
coedge $-1 $425 $418 $616 $618 forward $413 $-1 #
vertex $-1 $618 $619 #
straight-curve $-1 -45.788110623481998 13.33475121039584 17.269351677599424 0 1 0 I I #
point $-1 -45.788110623481998 17.06468713985381 17.269351677599424 #
point $-1 -45.788110623481998 17.06468713985381 -17.269351677599424 #
coedge $-1 $616 $544 $427 $556 reversed $542 $-1 #
edge $-1 $557 -17.269351677599424 $559 17.269351677599424 $555 $620 forward 7 unknown #
vertex $-1 $618 $621 #
straight-curve $-1 -55.655995361186555 0 17.269351677599424 0 -1 0 I I #
vertex $-1 $545 $622 #
straight-curve $-1 -55.655995361186555 0 -17.269351677599424 0 1 0 I I #
coedge $-1 $443 $442 $435 $562 forward $432 $-1 #
edge $-1 $563 12.864476133331163 $566 27.196084153681358 $561 $623 forward 7 unknown #
vertex $-1 $447 $624 #
straight-curve $-1 -75.534497428288873 -5.5312860553299803 17.269351677599424 -1 0 0 I I #
edge $-1 $566 0.79753776923280917 $444 8.6699588029615331 $443 $625 forward 7 unknown #
vertex $-1 $565 $626 #
straight-curve $-1 -55.655995361186555 -5.5312860553299803 2.9377436572492286 0.51503806187062418 0 0.85716730853699208 I I #
point $-1 -47.044696791145363 -5.5312860553299803 17.269351677599424 #
point $-1 -55.655995361186555 -13.403707089058704 2.9377436572492286 #
straight-curve $-1 -55.655995361186555 0 17.269351677599424 0 -1 0 I I #
vertex $-1 $450 $627 #
point $-1 -47.686178861907258 -11.154443936564782 9.0685273492603908 #
vertex $-1 $454 $628 #
point $-1 -47.686178861907258 -7.7805492078238991 9.0685273492603908 #
coedge $-1 $469 $468 $461 $576 forward $458 $-1 #
edge $-1 $577 12.864476133331163 $580 27.196084153681358 $575 $629 forward 7 unknown #
vertex $-1 $473 $630 #
straight-curve $-1 -75.534497428288873 13.403707089058704 17.269351677599424 -1 0 0 I I #
edge $-1 $580 -8.6699588029615331 $470 -0.79753776923280917 $469 $631 forward 7 unknown #
vertex $-1 $579 $632 #
straight-curve $-1 -55.655995361186555 13.403707089058704 2.9377436572492286 0.51503806187062418 0 0.85716730853699208 I I #
point $-1 -47.044696791145363 13.403707089058704 17.269351677599424 #
point $-1 -55.655995361186555 5.5312860553299803 2.9377436572492286 #
straight-curve $-1 -55.655995361186555 0 17.269351677599424 0 -1 0 I I #
vertex $-1 $476 $633 #
point $-1 -47.686178861907258 7.7805492078239027 9.0685273492603908 #
vertex $-1 $480 $634 #
point $-1 -47.686178861907258 11.154443936564789 9.0685273492603908 #
edge $-1 $590 67.610515208374636 $593 71.940033646794717 $485 $635 forward 7 unknown #
vertex $-1 $499 $636 #
straight-curve $-1 20.968016739514482 6.8260042181743863 17.269351677599417 1 0 0 I I #
edge $-1 $593 0.85333137866733466 $496 11.092014300346769 $495 $637 forward 7 unknown #
vertex $-1 $592 $638 #
straight-curve $-1 -29.613935846276632 6.8260042181743863 84.489802564484947 -0.76604443648966558 0 0.64278761758704617 I I #
point $-1 50.496276316066655 6.8260042181743863 17.269351677599431 #
point $-1 55.655995361186555 17.06468713985382 12.93983323917935 #
straight-curve $-1 55.655995361186555 0 17.269351677599424 0 1 0 I I #
vertex $-1 $502 $639 #
point $-1 51.563635783463987 9.7513421957970792 11.746341313865244 #
vertex $-1 $506 $640 #
point $-1 51.563635783463987 14.13934916223112 11.746341313865244 #
straight-curve $-1 -55.655995361186555 36.274317701729551 0 0 0 -1 I I #
point $-1 -55.655995361186555 -36.274317701729551 -17.269351677599424 #
straight-curve $-1 -55.655995361186555 0 -17.269351677599424 0 1 0 I I #
point $-1 -55.655995361186555 36.274317701729551 -17.269351677599424 #
coedge $-1 $528 $527 $533 $609 reversed $260 $-1 #
vertex $-1 $540 $641 #
straight-curve $-1 0 -36.274317701729551 17.269351677599424 1 0 0 I I #
edge $-1 $607 -17.269351677599424 $610 17.269351677599424 $606 $642 forward 7 unknown #
vertex $-1 $538 $643 #
straight-curve $-1 0 -36.274317701729551 -17.269351677599424 -1 0 0 I I #
straight-curve $-1 -55.655995361186555 0 -17.269351677599424 0 1 0 I I #
straight-curve $-1 -55.655995361186555 0 17.269351677599424 0 -1 0 I I #
straight-curve $-1 0 36.274317701729551 -17.269351677599424 1 0 0 I I #
point $-1 -45.788110623481998 36.274317701729551 -17.269351677599424 #
coedge $-1 $548 $555 $550 $618 reversed $542 $-1 #
straight-curve $-1 -45.788110623481998 36.274317701729551 0 0 0 -1 I I #
edge $-1 $551 45.788110623481998 $557 55.655995361186555 $616 $644 forward 7 unknown #
point $-1 -45.788110623481998 36.274317701729551 17.269351677599424 #
straight-curve $-1 -55.655995361186555 36.274317701729551 0 0 0 -1 I I #
point $-1 -55.655995361186555 36.274317701729551 17.269351677599424 #
point $-1 -55.655995361186555 36.274317701729551 -17.269351677599424 #
straight-curve $-1 -55.655995361186555 -5.5312860553299803 30.133827810930587 0 0 -1 I I #
point $-1 -55.655995361186555 -5.5312860553299803 17.269351677599424 #
straight-curve $-1 -55.655995361186555 -4.7337482860971711 2.9377436572492286 0 -1 0 I I #
point $-1 -55.655995361186555 -5.5312860553299803 2.9377436572492286 #
point $-1 -47.344049615240891 -11.154443936564782 7.6963219788527732 #
point $-1 -47.344049615240891 -7.7805492078238991 7.6963219788527732 #
straight-curve $-1 -55.655995361186555 13.403707089058704 30.133827810930587 0 0 -1 I I #
point $-1 -55.655995361186555 13.403707089058704 17.269351677599424 #
straight-curve $-1 -55.655995361186555 4.7337482860971711 2.9377436572492286 0 -1 0 I I #
point $-1 -55.655995361186555 13.403707089058704 2.9377436572492286 #
point $-1 -47.344049615240891 7.7805492078239027 7.6963219788527732 #
point $-1 -47.344049615240891 11.154443936564789 7.6963219788527732 #
straight-curve $-1 55.655995361186555 6.8260042181743863 84.879866885974067 0 0 -1 I I #
point $-1 55.655995361186555 6.8260042181743863 17.269351677599424 #
straight-curve $-1 55.655995361186541 5.9726728395070516 12.939833239179364 0 1 0 I I #
point $-1 55.655995361186555 6.8260042181743863 12.93983323917935 #
point $-1 50.154803729387275 9.7513421957970792 11.623084494962626 #
point $-1 50.154803729387275 14.13934916223112 11.623084494962626 #
point $-1 -55.655995361186555 -36.274317701729551 17.269351677599424 #
straight-curve $-1 -55.655995361186555 -36.274317701729551 0 0 0 -1 I I #
point $-1 -55.655995361186555 -36.274317701729551 -17.269351677599424 #
straight-curve $-1 0 36.274317701729551 17.269351677599424 -1 0 0 I I #
End-of-ACIS-data 