500 0 10 0           
7 Unknown 11 ACIS 5.0 NT 24 Fri Mar 26 19:30:32 1999 
-1 9.9999999999999995e-007 1e-010 
body $-1 $10 $-1 $11 #
body $-1 $12 $-1 $13 #
body $-1 $14 $-1 $15 #
body $-1 $16 $-1 $17 #
body $-1 $18 $-1 $19 #
body $-1 $20 $-1 $21 #
body $-1 $22 $-1 $23 #
body $-1 $24 $-1 $25 #
body $-1 $26 $-1 $27 #
body $-1 $28 $-1 $29 #
lump $-1 $-1 $30 $0 #
transform $-1 1 0 0 0 1 0 0 0 1 62.919400616473894 42.023907420013821 10.473208800723803 1 rotate no_reflect no_shear #
lump $-1 $-1 $31 $1 #
transform $-1 1 0 0 0 1 0 0 0 1 62.919400616473894 42.023907420013821 10.473208800723803 1 rotate no_reflect no_shear #
lump $-1 $-1 $32 $2 #
transform $-1 1 0 0 0 1 0 0 0 1 62.919400616473894 42.023907420013821 10.473208800723803 1 rotate no_reflect no_shear #
lump $-1 $-1 $33 $3 #
transform $-1 1 0 0 0 1 0 0 0 1 62.919400616473894 42.023907420013821 10.473208800723803 1 rotate no_reflect no_shear #
lump $-1 $-1 $34 $4 #
transform $-1 1 0 0 0 1 0 0 0 1 62.919400616473894 42.023907420013821 10.473208800723803 1 rotate no_reflect no_shear #
lump $-1 $-1 $35 $5 #
transform $-1 1 0 0 0 1 0 0 0 1 62.919400616473894 42.023907420013821 10.473208800723803 1 rotate no_reflect no_shear #
lump $-1 $-1 $36 $6 #
transform $-1 1 0 0 0 1 0 0 0 1 62.919400616473894 42.023907420013821 10.473208800723803 1 rotate no_reflect no_shear #
lump $-1 $-1 $37 $7 #
transform $-1 1 0 0 0 1 0 0 0 1 62.919400616473894 42.023907420013821 10.473208800723803 1 rotate no_reflect no_shear #
lump $-1 $-1 $38 $8 #
transform $-1 1 0 0 0 1 0 0 0 1 62.919400616473894 42.023907420013821 10.473208800723803 1 rotate no_reflect no_shear #
lump $-1 $-1 $39 $9 #
transform $-1 1 0 0 0 1 0 0 0 1 62.919400616473894 42.023907420013821 10.473208800723803 1 rotate no_reflect no_shear #
shell $-1 $-1 $-1 $40 $-1 $10 #
shell $-1 $-1 $-1 $41 $-1 $12 #
shell $-1 $-1 $-1 $42 $-1 $14 #
shell $-1 $-1 $-1 $43 $-1 $16 #
shell $-1 $-1 $-1 $44 $-1 $18 #
shell $-1 $-1 $-1 $45 $-1 $20 #
shell $-1 $-1 $-1 $46 $-1 $22 #
shell $-1 $-1 $-1 $47 $-1 $24 #
shell $-1 $-1 $-1 $48 $-1 $26 #
shell $-1 $-1 $-1 $49 $-1 $28 #
face $-1 $50 $51 $30 $-1 $52 forward single #
face $-1 $53 $54 $31 $-1 $55 reversed single #
face $-1 $56 $57 $32 $-1 $58 reversed single #
face $-1 $59 $60 $33 $-1 $61 forward single #
face $-1 $62 $63 $34 $-1 $64 reversed single #
face $-1 $65 $66 $35 $-1 $67 forward single #
face $-1 $68 $69 $36 $-1 $70 reversed single #
face $-1 $71 $72 $37 $-1 $73 forward single #
face $-1 $74 $75 $38 $-1 $76 reversed single #
face $-1 $77 $78 $39 $-1 $79 forward single #
face $-1 $80 $81 $30 $-1 $82 reversed single #
loop $-1 $-1 $83 $40 #
plane-surface $-1 0 0 10.473208800723803 0 0 1 1 0 0 forward_v I I I I #
face $-1 $84 $85 $31 $-1 $86 reversed single #
loop $-1 $-1 $87 $41 #
plane-surface $-1 0 -38.46248265114194 5.750979684123152 0 0 1 1 0 0 forward_v I I I I #
face $-1 $88 $89 $32 $-1 $90 reversed single #
loop $-1 $-1 $91 $42 #
plane-surface $-1 -62.919400616473908 -26.951084452431452 3.7777712508068788 -0.79863551827123203 0 0.60181501223851219 0.60181501223851219 0 0.79863551827123203 forward_v I I I I #
face $-1 $92 $93 $33 $-1 $94 forward single #
loop $-1 $95 $96 $43 #
cone-surface $-1 -59.288721723665162 -26.951084452431452 6.2905582484022453 0.79863551827123203 0 -0.60181501223851219 0.60181501223851219 0 0.79863551827123203 1 I I 0 1 1 forward I I I I #
face $-1 $97 $98 $34 $-1 $99 reversed single #
loop $-1 $-1 $100 $44 #
plane-surface $-1 -163.41873685777972 3.5614247688718823 79.509450954893055 0 1 0 -0.79863551827123203 0 0.60181501223851219 forward_v I I I I #
face $-1 $101 $102 $35 $-1 $103 forward single #
loop $-1 $104 $105 $45 #
cone-surface $-1 -59.288721723665162 11.511398198710488 6.2905582484022453 0.79863551827123203 0 -0.60181501223851219 0.60181501223851219 0 0.79863551827123203 1 I I 0 1 1 forward I I I I #
face $-1 $106 $107 $36 $-1 $108 reversed single #
loop $-1 $-1 $109 $46 #
plane-surface $-1 28.962472471230882 -20.406875029764926 177.73048332099322 0 -1 0 -0.55919291073839883 0 -0.82903756765294845 forward_v I I I I #
face $-1 $110 $111 $37 $-1 $112 forward single #
loop $-1 $113 $114 $47 #
cone-surface $-1 56.122942948144605 -27.653966456017493 4.8511524239693564 -0.55919291073839883 0 -0.82903756765294845 1.2435563514794228 0 -0.83878936610759824 1 I I 0 1 1.5 forward I I I I #
face $-1 $115 $116 $38 $-1 $117 reversed single #
loop $-1 $-1 $118 $48 #
plane-surface $-1 -41.405693074051996 34.776815993761254 73.405389630467326 0.55919291073839883 0 0.82903756765294845 0.82903756765294845 0 -0.55919291073839883 forward_v I I I I #
face $-1 $119 $120 $39 $-1 $121 forward single #
loop $-1 $122 $123 $49 #
cone-surface $-1 56.122942948144605 34.776815993761254 4.8511524239693564 -0.55919291073839883 0 -0.82903756765294845 1.2435563514794228 0 -0.83878936610759824 1 I I 0 1 1.5 forward I I I I #
face $-1 $124 $125 $30 $-1 $126 reversed single #
loop $-1 $-1 $127 $50 #
plane-surface $-1 0 0 -10.473208800723803 0 0 1 1 0 0 forward_v I I I I #
coedge $-1 $128 $129 $130 $131 forward $51 $-1 #
face $-1 $132 $133 $31 $-1 $134 reversed single #
loop $-1 $-1 $135 $53 #
plane-surface $-1 0 -34.901057882270059 8.1120942424234777 0 -1 0 0 0 -1 forward_v I I I I #
coedge $-1 $136 $137 $138 $139 reversed $54 $-1 #
face $-1 $140 $141 $32 $-1 $142 forward single #
loop $-1 $-1 $143 $56 #
plane-surface $-1 -163.41873685777972 -19.001111022592845 79.509450954893055 0 -1 0 0.79863551827123203 0 -0.60181501223851219 forward_v I I I I #
coedge $-1 $144 $145 $146 $147 reversed $57 $-1 #
face $-1 $-1 $148 $33 $-1 $149 forward single #
loop $-1 $150 $151 $59 #
cone-surface $-1 -57.781412041471256 -26.951084452431452 5.1547189649198906 0.79863551827123203 0 -0.60181501223851219 0.3009075061192561 0 0.39931775913561601 1 I I -0.70710678118654746 0.70710678118654746 0.5 forward I I I I #
loop $-1 $-1 $152 $43 #
coedge $-1 $96 $96 $153 $154 reversed $60 $-1 #
face $-1 $155 $156 $34 $-1 $157 reversed single #
loop $-1 $-1 $158 $62 #
plane-surface $-1 -62.919400616473908 11.511398198710488 3.7777712508068788 -0.79863551827123203 0 0.60181501223851219 0.60181501223851219 0 0.79863551827123203 forward_v I I I I #
coedge $-1 $159 $160 $161 $162 reversed $63 $-1 #
face $-1 $-1 $163 $35 $-1 $164 forward single #
loop $-1 $165 $166 $65 #
cone-surface $-1 -57.781412041471256 11.511398198710488 5.1547189649198906 0.79863551827123203 0 -0.60181501223851219 0.3009075061192561 0 0.39931775913561601 1 I I -0.70710678118654746 0.70710678118654746 0.5 forward I I I I #
loop $-1 $-1 $167 $45 #
coedge $-1 $105 $105 $168 $169 reversed $66 $-1 #
face $-1 $170 $171 $36 $-1 $172 forward single #
loop $-1 $-1 $173 $68 #
plane-surface $-1 -41.405693074051996 -27.653966456017493 73.405389630467326 0.55919291073839883 0 0.82903756765294845 0.82903756765294845 0 -0.55919291073839883 forward_v I I I I #
coedge $-1 $174 $175 $176 $177 reversed $69 $-1 #
face $-1 $-1 $178 $37 $-1 $179 forward single #
loop $-1 $180 $181 $71 #
cone-surface $-1 54.419240843386518 -27.653966456017493 2.3253102292448702 -0.55919291073839883 0 -0.82903756765294845 0.62177817573971139 0 -0.41939468305379912 1 I I -0.70710678118654768 0.70710678118654735 0.75 forward I I I I #
loop $-1 $-1 $182 $47 #
coedge $-1 $114 $114 $183 $184 reversed $72 $-1 #
face $-1 $185 $186 $38 $-1 $187 forward single #
loop $-1 $-1 $188 $74 #
plane-surface $-1 28.962472471230882 27.529724567508687 177.73048332099322 0 1 0 0.55919291073839883 0 0.82903756765294845 forward_v I I I I #
coedge $-1 $189 $190 $191 $192 reversed $75 $-1 #
face $-1 $-1 $193 $39 $-1 $194 forward single #
loop $-1 $195 $196 $77 #
cone-surface $-1 54.419240843386518 34.776815993761254 2.3253102292448702 -0.55919291073839883 0 -0.82903756765294845 0.62177817573971139 0 -0.41939468305379912 1 I I -0.70710678118654768 0.70710678118654735 0.75 forward I I I I #
loop $-1 $-1 $197 $49 #
coedge $-1 $123 $123 $198 $199 reversed $78 $-1 #
face $-1 $200 $201 $30 $-1 $202 reversed single #
loop $-1 $-1 $203 $80 #
plane-surface $-1 0 -42.023907420013821 0 0 1 0 0 0 1 forward_v I I I I #
coedge $-1 $204 $205 $206 $207 forward $81 $-1 #
coedge $-1 $208 $83 $209 $210 forward $51 $-1 #
coedge $-1 $83 $208 $211 $212 forward $51 $-1 #
coedge $-1 $213 $214 $83 $131 reversed $215 $-1 #
edge $-1 $216 -42.023907420013821 $217 42.023907420013821 $130 $218 forward 7 unknown #
face $-1 $219 $220 $31 $-1 $221 reversed single #
loop $-1 $-1 $222 $84 #
plane-surface $-1 -62.919400616473894 0 0 1 0 0 0 0 -1 forward_v I I I I #
coedge $-1 $223 $224 $137 $225 reversed $85 $-1 #
coedge $-1 $226 $87 $227 $228 reversed $54 $-1 #
coedge $-1 $87 $226 $135 $225 forward $54 $-1 #
coedge $-1 $229 $230 $87 $139 forward $231 $-1 #
edge $-1 $232 -22.792666094442851 $233 -15.669816556699089 $138 $234 forward 7 unknown #
face $-1 $235 $236 $32 $-1 $237 reversed single #
loop $-1 $-1 $146 $88 #
plane-surface $-1 0 0 10.473208800723803 0 0 1 1 0 0 forward_v I I I I #
coedge $-1 $238 $239 $240 $241 reversed $89 $-1 #
coedge $-1 $242 $91 $243 $244 reversed $57 $-1 #
coedge $-1 $91 $242 $238 $245 forward $57 $-1 #
coedge $-1 $240 $246 $91 $147 forward $141 $-1 #
edge $-1 $247 -21.425515656054333 $248 -5.5255687963771187 $146 $249 forward 7 unknown #
loop $-1 $-1 $153 $92 #
plane-surface $-1 -62.919400616473908 -26.951084452431452 3.7777712508068788 -0.79863551827123203 0 0.60181501223851219 0.60181501223851219 0 0.79863551827123203 forward_v I I I I #
loop $-1 $-1 $250 $59 #
coedge $-1 $151 $151 $152 $251 reversed $93 $-1 #
coedge $-1 $152 $152 $151 $251 forward $95 $-1 #
coedge $-1 $153 $153 $96 $154 forward $148 $-1 #
edge $-1 $252 0 $252 6.2831853071796004 $153 $253 forward 7 unknown #
face $-1 $254 $255 $34 $-1 $256 forward single #
loop $-1 $-1 $257 $97 #
plane-surface $-1 -163.41873685777972 19.461371628549095 79.509450954893055 0 -1 0 0.79863551827123203 0 -0.60181501223851219 forward_v I I I I #
coedge $-1 $258 $259 $260 $261 reversed $98 $-1 #
coedge $-1 $160 $100 $262 $263 reversed $63 $-1 #
coedge $-1 $100 $159 $258 $264 reversed $63 $-1 #
coedge $-1 $260 $265 $100 $162 forward $255 $-1 #
edge $-1 $266 18.789967812415966 $267 23.835341751916829 $161 $268 forward 7 unknown #
loop $-1 $-1 $168 $101 #
plane-surface $-1 -62.919400616473908 11.511398198710488 3.7777712508068788 -0.79863551827123203 0 0.60181501223851219 0.60181501223851219 0 0.79863551827123203 forward_v I I I I #
loop $-1 $-1 $269 $65 #
coedge $-1 $166 $166 $167 $270 reversed $102 $-1 #
coedge $-1 $167 $167 $166 $270 forward $104 $-1 #
coedge $-1 $168 $168 $105 $169 forward $163 $-1 #
edge $-1 $271 0 $271 6.2831853071796004 $168 $272 forward 7 unknown #
face $-1 $273 $274 $36 $-1 $275 forward single #
loop $-1 $-1 $276 $106 #
plane-surface $-1 0 -34.901057882270059 8.1120942424234777 0 -1 0 0 0 -1 forward_v I I I I #
coedge $-1 $277 $278 $279 $280 reversed $107 $-1 #
coedge $-1 $175 $109 $281 $282 reversed $69 $-1 #
coedge $-1 $109 $174 $277 $283 reversed $69 $-1 #
coedge $-1 $279 $284 $109 $177 forward $274 $-1 #
edge $-1 $285 -48.438164380858453 $286 -37.413863887608414 $176 $287 forward 7 unknown #
loop $-1 $-1 $183 $110 #
plane-surface $-1 -41.405693074051996 -27.653966456017493 73.405389630467326 0.55919291073839883 0 0.82903756765294845 0.82903756765294845 0 -0.55919291073839883 forward_v I I I I #
loop $-1 $-1 $288 $71 #
coedge $-1 $181 $181 $182 $289 reversed $111 $-1 #
coedge $-1 $182 $182 $181 $289 forward $113 $-1 #
coedge $-1 $183 $183 $114 $184 forward $178 $-1 #
edge $-1 $290 0 $290 6.2831853071796004 $183 $291 forward 7 unknown #
face $-1 $292 $293 $38 $-1 $294 reversed single #
loop $-1 $-1 $191 $115 #
plane-surface $-1 0 0 10.473208800723803 0 0 1 1 0 0 forward_v I I I I #
coedge $-1 $295 $296 $297 $298 reversed $116 $-1 #
coedge $-1 $299 $118 $300 $301 reversed $75 $-1 #
coedge $-1 $118 $299 $295 $302 forward $75 $-1 #
coedge $-1 $297 $303 $118 $192 forward $186 $-1 #
edge $-1 $304 -24.635499423133194 $305 -10.14131657062806 $191 $306 forward 7 unknown #
loop $-1 $-1 $198 $119 #
plane-surface $-1 -41.405693074051996 34.776815993761254 73.405389630467326 0.55919291073839883 0 0.82903756765294845 0.82903756765294845 0 -0.55919291073839883 forward_v I I I I #
loop $-1 $-1 $307 $77 #
coedge $-1 $196 $196 $197 $308 reversed $120 $-1 #
coedge $-1 $197 $197 $196 $308 forward $122 $-1 #
coedge $-1 $198 $198 $123 $199 forward $193 $-1 #
edge $-1 $309 0 $309 6.2831853071796004 $198 $310 forward 7 unknown #
face $-1 $311 $312 $30 $-1 $313 reversed single #
loop $-1 $-1 $314 $124 #
plane-surface $-1 -62.919400616473894 0 0 1 0 0 0 0 -1 forward_v I I I I #
coedge $-1 $315 $211 $316 $317 forward $125 $-1 #
coedge $-1 $318 $127 $315 $319 forward $81 $-1 #
coedge $-1 $127 $318 $320 $321 forward $81 $-1 #
coedge $-1 $214 $213 $127 $207 reversed $215 $-1 #
edge $-1 $322 -42.023907420013821 $323 42.023907420013821 $206 $324 forward 7 unknown #
coedge $-1 $129 $128 $325 $326 forward $51 $-1 #
coedge $-1 $327 $328 $128 $210 reversed $312 $-1 #
edge $-1 $217 -62.919400616473894 $329 62.919400616473894 $209 $330 forward 7 unknown #
coedge $-1 $203 $331 $129 $212 reversed $125 $-1 #
edge $-1 $332 -62.919400616473894 $216 62.919400616473894 $211 $333 forward 7 unknown #
coedge $-1 $206 $130 $331 $334 forward $215 $-1 #
coedge $-1 $130 $206 $327 $335 reversed $215 $-1 #
loop $-1 $-1 $213 $311 #
vertex $-1 $131 $336 #
vertex $-1 $131 $337 #
straight-curve $-1 62.919400616473894 0 10.473208800723803 0 1 0 I I #
face $-1 $338 $339 $31 $-1 $340 forward single #
loop $-1 $-1 $227 $132 #
plane-surface $-1 0 -42.023907420013821 0 0 1 0 0 0 1 forward_v I I I I #
coedge $-1 $341 $342 $223 $343 forward $133 $-1 #
coedge $-1 $344 $135 $222 $343 reversed $85 $-1 #
coedge $-1 $135 $344 $229 $345 reversed $85 $-1 #
edge $-1 $346 -62.919400616473894 $233 62.919400616473894 $135 $347 forward 7 unknown #
coedge $-1 $137 $136 $341 $348 reversed $54 $-1 #
coedge $-1 $349 $350 $136 $228 forward $220 $-1 #
edge $-1 $351 -62.919400616473894 $232 62.919400616473894 $227 $352 forward 7 unknown #
coedge $-1 $353 $138 $224 $345 forward $231 $-1 #
coedge $-1 $138 $353 $349 $354 forward $231 $-1 #
loop $-1 $-1 $229 $338 #
vertex $-1 $228 $355 #
vertex $-1 $139 $356 #
straight-curve $-1 62.919400616473894 -19.23124132557097 5.750979684123152 0 1 0 I I #
face $-1 $-1 $357 $32 $-1 $358 forward single #
loop $-1 $-1 $359 $140 #
plane-surface $-1 -62.919400616473894 0 0 1 0 0 0 0 -1 forward_v I I I I #
coedge $-1 $239 $143 $145 $245 reversed $89 $-1 #
coedge $-1 $143 $238 $359 $360 reversed $89 $-1 #
coedge $-1 $361 $146 $143 $241 forward $141 $-1 #
edge $-1 $248 -23.835341751916829 $362 -18.789967812415966 $240 $363 forward 7 unknown #
coedge $-1 $145 $144 $364 $365 reversed $57 $-1 #
coedge $-1 $366 $367 $144 $244 forward $357 $-1 #
edge $-1 $368 -20.663692070403844 $247 -12.280096053524705 $243 $369 forward 7 unknown #
edge $-1 $370 2.3448253187574213e-014 $248 8.3835960168791619 $238 $371 forward 7 unknown #
coedge $-1 $146 $361 $366 $372 forward $141 $-1 #
vertex $-1 $244 $373 #
vertex $-1 $147 $374 #
straight-curve $-1 -57.874026676973031 -13.475542226215726 10.473208800723803 0 1 0 I I #
coedge $-1 $250 $250 $-1 $375 reversed $150 $-1 #
edge $-1 $376 0 $376 6.2831853071796004 $151 $377 forward 7 unknown #
vertex $-1 $154 $378 #
ellipse-curve $-1 -60.396713646723462 -26.951084452431452 7.1254900257653508 -0.79863551827123203 0 0.60181501223851219 0.60181501223851219 0 0.79863551827123203 1 I I #
face $-1 $-1 $379 $34 $-1 $380 reversed single #
loop $-1 $-1 $161 $155 #
plane-surface $-1 0 0 10.473208800723803 0 0 1 1 0 0 forward_v I I I I #
coedge $-1 $381 $382 $383 $384 reversed $156 $-1 #
coedge $-1 $385 $158 $160 $264 forward $98 $-1 #
coedge $-1 $158 $385 $381 $386 forward $98 $-1 #
coedge $-1 $383 $161 $158 $261 forward $255 $-1 #
edge $-1 $267 -2.1942743304833616 $387 13.705672529193851 $260 $388 forward 7 unknown #
coedge $-1 $389 $390 $159 $263 forward $379 $-1 #
edge $-1 $391 -35.976954226639627 $266 -29.281516676722724 $262 $392 forward 7 unknown #
edge $-1 $267 -8.3835960168791619 $391 -2.3448253187574213e-014 $160 $393 forward 7 unknown #
coedge $-1 $161 $383 $389 $394 forward $255 $-1 #
vertex $-1 $162 $395 #
vertex $-1 $162 $396 #
straight-curve $-1 -81.70936842888986 3.5614247688718823 10.473208800723803 1 0 0 I I #
coedge $-1 $269 $269 $-1 $397 reversed $165 $-1 #
edge $-1 $398 0 $398 6.2831853071796004 $166 $399 forward 7 unknown #
vertex $-1 $169 $400 #
ellipse-curve $-1 -60.396713646723462 11.511398198710488 7.1254900257653508 -0.79863551827123203 0 0.60181501223851219 0.60181501223851219 0 0.79863551827123203 1 I I #
face $-1 $-1 $401 $36 $-1 $402 reversed single #
loop $-1 $-1 $279 $170 #
plane-surface $-1 0 0 10.473208800723803 0 0 1 1 0 0 forward_v I I I I #
coedge $-1 $403 $404 $278 $405 reversed $171 $-1 #
coedge $-1 $406 $173 $175 $283 forward $107 $-1 #
coedge $-1 $173 $406 $276 $405 forward $107 $-1 #
coedge $-1 $407 $176 $173 $280 forward $274 $-1 #
edge $-1 $286 6.5798918017561796 $408 21.074074654261313 $279 $409 forward 7 unknown #
coedge $-1 $410 $411 $174 $282 forward $401 $-1 #
edge $-1 $412 -85.82801757531216 $285 -78.392032859772797 $281 $413 forward 7 unknown #
edge $-1 $286 112.54109202965986 $412 125.83880123294779 $175 $414 forward 7 unknown #
coedge $-1 $176 $407 $410 $415 forward $274 $-1 #
vertex $-1 $282 $416 #
vertex $-1 $177 $417 #
straight-curve $-1 14.481236235615441 -20.406875029764926 10.47320880072381 -1 0 0 I I #
coedge $-1 $288 $288 $-1 $418 reversed $180 $-1 #
edge $-1 $419 0 $419 6.2831853071796004 $181 $420 forward 7 unknown #
vertex $-1 $184 $421 #
ellipse-curve $-1 57.407250369848882 -27.653966456017493 6.7552164429541239 0.55919291073839883 0 0.82903756765294845 1.2435563514794228 0 -0.83878936610759824 1 I I #
face $-1 $-1 $422 $38 $-1 $423 reversed single #
loop $-1 $-1 $424 $185 #
plane-surface $-1 62.919400616473894 0 0 -1 0 0 0 0 1 forward_v I I I I #
coedge $-1 $296 $188 $190 $302 reversed $116 $-1 #
coedge $-1 $188 $295 $425 $426 reversed $116 $-1 #
coedge $-1 $427 $191 $188 $298 forward $186 $-1 #
edge $-1 $305 37.413863887608414 $428 48.438164380858453 $297 $429 forward 7 unknown #
coedge $-1 $190 $189 $424 $430 reversed $75 $-1 #
coedge $-1 $431 $432 $189 $301 forward $422 $-1 #
edge $-1 $433 -88.151476950725836 $304 -74.853767747437928 $300 $434 forward 7 unknown #
edge $-1 $435 -125.83880123294779 $305 -112.54109202965986 $295 $436 forward 7 unknown #
coedge $-1 $191 $427 $431 $437 forward $186 $-1 #
vertex $-1 $301 $438 #
vertex $-1 $192 $439 #
straight-curve $-1 51.895100123223862 17.388407996880627 10.47320880072381 0 -1 0 I I #
coedge $-1 $307 $307 $-1 $440 reversed $195 $-1 #
edge $-1 $441 0 $441 6.2831853071796004 $196 $442 forward 7 unknown #
vertex $-1 $199 $443 #
ellipse-curve $-1 57.407250369848882 34.776815993761254 6.7552164429541239 0.55919291073839883 0 0.82903756765294845 1.2435563514794228 0 -0.83878936610759824 1 I I #
face $-1 $-1 $215 $30 $-1 $444 reversed single #
loop $-1 $-1 $327 $200 #
plane-surface $-1 0 42.023907420013821 0 0 -1 0 0 0 -1 forward_v I I I I #
coedge $-1 $445 $325 $328 $446 forward $201 $-1 #
coedge $-1 $331 $203 $204 $319 reversed $125 $-1 #
coedge $-1 $325 $445 $203 $317 reversed $201 $-1 #
edge $-1 $332 -10.473208800723803 $447 10.473208800723803 $316 $448 forward 7 unknown #
coedge $-1 $205 $204 $445 $449 forward $81 $-1 #
edge $-1 $323 -62.919400616473894 $447 62.919400616473894 $315 $450 forward 7 unknown #
coedge $-1 $328 $327 $205 $321 reversed $312 $-1 #
edge $-1 $451 -62.919400616473894 $322 62.919400616473894 $320 $452 forward 7 unknown #
vertex $-1 $207 $453 #
vertex $-1 $334 $454 #
straight-curve $-1 62.919400616473894 0 -10.473208800723803 0 -1 0 I I #
coedge $-1 $314 $316 $208 $326 reversed $201 $-1 #
edge $-1 $329 -42.023907420013821 $332 42.023907420013821 $325 $455 forward 7 unknown #
coedge $-1 $320 $209 $214 $335 forward $312 $-1 #
coedge $-1 $209 $320 $314 $446 reversed $312 $-1 #
vertex $-1 $210 $456 #
straight-curve $-1 0 42.023907420013821 10.473208800723803 -1 0 0 I I #
coedge $-1 $211 $315 $213 $334 reversed $125 $-1 #
vertex $-1 $326 $457 #
straight-curve $-1 0 -42.023907420013821 10.473208800723803 1 0 0 I I #
edge $-1 $216 -10.473208800723803 $323 10.473208800723803 $213 $458 forward 7 unknown #
edge $-1 $217 -10.473208800723803 $322 10.473208800723803 $214 $459 forward 7 unknown #
point $-1 62.919400616473894 -42.023907420013821 10.473208800723803 #
point $-1 62.919400616473894 42.023907420013821 10.473208800723803 #
face $-1 $-1 $231 $31 $-1 $460 reversed single #
loop $-1 $-1 $461 $219 #
plane-surface $-1 0 0 10.473208800723803 0 0 1 1 0 0 forward_v I I I I #
coedge $-1 $462 $222 $226 $348 forward $133 $-1 #
coedge $-1 $222 $462 $463 $464 reversed $133 $-1 #
edge $-1 $465 -6.4171616795120645 $346 -1.6949325629114131 $222 $466 forward 7 unknown #
coedge $-1 $224 $223 $461 $467 reversed $85 $-1 #
edge $-1 $233 1.6949325629114131 $468 6.4171616795120645 $229 $469 forward 7 unknown #
vertex $-1 $348 $470 #
straight-curve $-1 0 -34.901057882270059 5.750979684123152 1 0 0 I I #
edge $-1 $346 15.669816556699089 $351 22.792666094442851 $341 $471 forward 7 unknown #
coedge $-1 $472 $227 $230 $354 reversed $220 $-1 #
coedge $-1 $227 $472 $462 $473 forward $220 $-1 #
vertex $-1 $228 $474 #
straight-curve $-1 0 -42.023907420013821 5.750979684123152 1 0 0 I I #
coedge $-1 $230 $229 $475 $476 reversed $231 $-1 #
edge $-1 $477 -10.473208800723803 $232 -5.750979684123152 $230 $478 forward 7 unknown #
point $-1 62.919400616473894 -42.023907420013821 5.750979684123152 #
point $-1 62.919400616473894 -34.901057882270059 5.750979684123152 #
loop $-1 $-1 $243 $235 #
plane-surface $-1 0 -34.901057882270059 8.1120942424234777 0 -1 0 0 0 -1 forward_v I I I I #
coedge $-1 $364 $479 $239 $360 forward $236 $-1 #
edge $-1 $362 29.281516676722724 $370 35.976954226639627 $359 $480 forward 7 unknown #
coedge $-1 $246 $240 $479 $481 forward $141 $-1 #
vertex $-1 $481 $482 #
straight-curve $-1 -81.70936842888986 -19.001111022592845 10.473208800723803 -1 0 0 I I #
coedge $-1 $483 $359 $242 $365 forward $236 $-1 #
edge $-1 $370 5.5255687963771187 $368 21.425515656054333 $364 $484 forward 7 unknown #
coedge $-1 $367 $243 $246 $372 reversed $357 $-1 #
coedge $-1 $243 $366 $483 $485 reversed $357 $-1 #
vertex $-1 $485 $486 #
straight-curve $-1 -50.483680520230955 -34.901057882270059 20.280529676851017 0.60181501223851219 0 0.79863551827123203 I I #
vertex $-1 $365 $487 #
straight-curve $-1 -62.919400616473908 -19.001111022592845 3.7777712508068788 0.60181501223851219 0 0.79863551827123203 I I #
edge $-1 $488 -62.919400616473894 $247 -57.874026676973031 $246 $489 forward 7 unknown #
point $-1 -57.874026676973031 -34.901057882270059 10.473208800723803 #
point $-1 -57.874026676973031 -19.001111022592845 10.473208800723803 #
edge $-1 $490 1 $490 0 $250 $-1 forward 7 unknown #
vertex $-1 $251 $491 #
ellipse-curve $-1 -58.180729800606869 -26.951084452431452 5.4556264710391469 -0.79863551827123203 0 0.60181501223851219 0.60181501223851219 0 0.79863551827123203 1 I I #
point $-1 -59.794898634484944 -26.951084452431452 7.924125544036575 #
loop $-1 $-1 $262 $254 #
plane-surface $-1 -62.919400616473894 0 0 1 0 0 0 0 -1 forward_v I I I I #
coedge $-1 $382 $257 $259 $386 reversed $156 $-1 #
coedge $-1 $257 $381 $492 $493 reversed $156 $-1 #
coedge $-1 $265 $260 $257 $384 forward $255 $-1 #
edge $-1 $387 -23.835341751916829 $494 -18.789967812415966 $383 $495 forward 7 unknown #
coedge $-1 $259 $258 $390 $496 reversed $98 $-1 #
edge $-1 $497 2.3448253187574213e-014 $387 8.3835960168791619 $381 $498 forward 7 unknown #
vertex $-1 $261 $499 #
straight-curve $-1 -57.874026676973031 5.7556990993552439 10.473208800723803 0 1 0 I I #
coedge $-1 $492 $262 $265 $394 reversed $379 $-1 #
coedge $-1 $262 $492 $385 $496 forward $379 $-1 #
vertex $-1 $263 $500 #
straight-curve $-1 -62.919400616473894 3.5614247688718823 39.754725477446527 0 0 1 I I #
straight-curve $-1 -62.919400616473908 3.5614247688718823 3.7777712508068788 -0.60181501223851219 0 -0.79863551827123203 I I #
edge $-1 $494 -19.461371628549095 $266 -3.5614247688718823 $389 $501 forward 7 unknown #
point $-1 -62.919400616473894 3.5614247688718823 10.473208800723803 #
point $-1 -57.874026676973031 3.5614247688718823 10.473208800723803 #
edge $-1 $502 1 $502 0 $269 $-1 forward 7 unknown #
vertex $-1 $270 $503 #
ellipse-curve $-1 -58.180729800606869 11.511398198710488 5.4556264710391469 -0.79863551827123203 0 0.60181501223851219 0.60181501223851219 0 0.79863551827123203 1 I I #
point $-1 -59.794898634484944 11.511398198710488 7.924125544036575 #
loop $-1 $-1 $281 $273 #
plane-surface $-1 62.919400616473894 0 0 -1 0 0 0 0 1 forward_v I I I I #
coedge $-1 $404 $276 $504 $505 reversed $171 $-1 #
coedge $-1 $276 $403 $407 $506 reversed $171 $-1 #
edge $-1 $507 -125.83880123294779 $408 -112.54109202965986 $276 $508 forward 7 unknown #
coedge $-1 $278 $277 $411 $509 reversed $107 $-1 #
coedge $-1 $284 $279 $404 $506 forward $274 $-1 #
vertex $-1 $506 $510 #
straight-curve $-1 51.895100123223862 -13.826983228008746 10.47320880072381 0 -1 0 I I #
coedge $-1 $504 $281 $284 $415 reversed $401 $-1 #
coedge $-1 $281 $504 $406 $509 forward $401 $-1 #
vertex $-1 $282 $511 #
straight-curve $-1 62.919400616473894 -20.406875029764926 88.865241660496608 0 0 1 I I #
straight-curve $-1 -41.405693074051996 -20.406875029764926 73.405389630467326 0.82903756765294845 0 -0.55919291073839883 I I #
edge $-1 $512 -34.901057882270059 $285 -20.406875029764926 $410 $513 forward 7 unknown #
point $-1 62.919400616473894 -20.406875029764926 10.473208800723803 #
point $-1 51.895100123223855 -20.406875029764926 10.473208800723803 #
edge $-1 $514 1 $514 0 $288 $-1 forward 7 unknown #
vertex $-1 $289 $515 #
ellipse-curve $-1 54.838635526440314 -27.653966456017493 2.9470884049845809 0.55919291073839883 0 0.82903756765294845 1.2435563514794228 0 -0.83878936610759824 1 I I #
point $-1 58.650806721328308 -27.653966456017493 5.9164270768465332 #
loop $-1 $-1 $300 $292 #
plane-surface $-1 0 42.023907420013821 0 0 -1 0 0 0 -1 forward_v I I I I #
coedge $-1 $516 $425 $299 $430 forward $293 $-1 #
coedge $-1 $424 $517 $296 $426 forward $293 $-1 #
edge $-1 $428 78.392032859772797 $435 85.82801757531216 $425 $518 forward 7 unknown #
coedge $-1 $303 $297 $517 $519 forward $186 $-1 #
vertex $-1 $519 $520 #
straight-curve $-1 14.481236235615441 27.529724567508687 10.47320880072381 1 0 0 I I #
edge $-1 $435 10.14131657062806 $433 24.635499423133194 $424 $521 forward 7 unknown #
coedge $-1 $432 $300 $303 $437 reversed $422 $-1 #
coedge $-1 $300 $431 $516 $522 forward $422 $-1 #
vertex $-1 $301 $523 #
straight-curve $-1 -10.161485419770807 42.023907420013821 52.330905067149693 -0.82903756765294845 0 0.55919291073839883 I I #
vertex $-1 $430 $524 #
straight-curve $-1 -41.405693074051996 27.529724567508687 73.405389630467326 -0.82903756765294845 0 0.55919291073839883 I I #
edge $-1 $525 -62.919400616473894 $304 -51.895100123223855 $431 $526 forward 7 unknown #
point $-1 51.895100123223855 42.023907420013821 10.473208800723803 #
point $-1 51.895100123223855 27.529724567508687 10.473208800723803 #
edge $-1 $527 1 $527 0 $307 $-1 forward 7 unknown #
vertex $-1 $308 $528 #
ellipse-curve $-1 54.838635526440314 34.776815993761254 2.9470884049845809 0.55919291073839883 0 0.82903756765294845 1.2435563514794228 0 -0.83878936610759824 1 I I #
point $-1 58.650806721328308 34.776815993761254 5.9164270768465332 #
plane-surface $-1 62.919400616473894 0 0 -1 0 0 0 0 1 forward_v I I I I #
coedge $-1 $316 $314 $318 $449 reversed $201 $-1 #
edge $-1 $329 -10.473208800723803 $451 10.473208800723803 $328 $529 forward 7 unknown #
vertex $-1 $449 $530 #
straight-curve $-1 -62.919400616473894 -42.023907420013821 0 0 0 -1 I I #
edge $-1 $447 -42.023907420013821 $451 42.023907420013821 $445 $531 forward 7 unknown #
straight-curve $-1 0 -42.023907420013821 -10.473208800723803 -1 0 0 I I #
vertex $-1 $321 $532 #
straight-curve $-1 0 42.023907420013821 -10.473208800723803 1 0 0 I I #
point $-1 62.919400616473894 42.023907420013821 -10.473208800723803 #
point $-1 62.919400616473894 -42.023907420013821 -10.473208800723803 #
straight-curve $-1 -62.919400616473894 0 10.473208800723803 0 -1 0 I I #
point $-1 -62.919400616473894 42.023907420013821 10.473208800723803 #
point $-1 -62.919400616473894 -42.023907420013821 10.473208800723803 #
straight-curve $-1 62.919400616473894 -42.023907420013821 0 0 0 -1 I I #
straight-curve $-1 62.919400616473894 42.023907420013821 0 0 0 -1 I I #
plane-surface $-1 62.919400616473894 0 0 -1 0 0 0 0 1 forward_v I I I I #
coedge $-1 $463 $475 $344 $467 forward $339 $-1 #
coedge $-1 $342 $341 $350 $473 reversed $133 $-1 #
coedge $-1 $533 $461 $342 $464 forward $339 $-1 #
edge $-1 $465 34.901057882270059 $534 42.023907420013821 $342 $535 forward 7 unknown #
vertex $-1 $464 $536 #
straight-curve $-1 -62.919400616473894 -34.901057882270059 4.0560471212117388 0 0 -1 I I #
edge $-1 $468 -62.919400616473894 $465 62.919400616473894 $461 $537 forward 7 unknown #
vertex $-1 $345 $538 #
straight-curve $-1 62.919400616473894 -34.901057882270059 4.0560471212117388 0 0 1 I I #
point $-1 -62.919400616473894 -34.901057882270059 5.750979684123152 #
straight-curve $-1 -62.919400616473894 -19.23124132557097 5.750979684123152 0 -1 0 I I #
coedge $-1 $350 $349 $533 $539 reversed $220 $-1 #
edge $-1 $534 -10.473208800723803 $351 -5.750979684123152 $462 $540 forward 7 unknown #
point $-1 -62.919400616473894 -42.023907420013821 5.750979684123152 #
coedge $-1 $461 $533 $353 $476 forward $339 $-1 #
edge $-1 $477 -42.023907420013821 $468 -34.901057882270059 $353 $541 forward 7 unknown #
vertex $-1 $476 $542 #
straight-curve $-1 62.919400616473894 -42.023907420013821 0 0 0 -1 I I #
coedge $-1 $359 $483 $361 $481 reversed $236 $-1 #
straight-curve $-1 -62.919400616473894 -19.001111022592845 39.754725477446527 0 0 -1 I I #
edge $-1 $362 19.001111022592845 $488 34.901057882270059 $479 $543 forward 7 unknown #
point $-1 -62.919400616473894 -19.001111022592845 10.473208800723803 #
coedge $-1 $479 $364 $367 $485 forward $236 $-1 #
straight-curve $-1 -62.919400616473894 -13.475542226215726 3.7777712508068975 0 -1 0 I I #
edge $-1 $368 -35.976954226639627 $488 -29.281516676722724 $483 $544 forward 7 unknown #
point $-1 -62.919400616473894 -34.901057882270059 3.7777712508068975 #
point $-1 -62.919400616473894 -19.001111022592845 3.7777712508068975 #
vertex $-1 $485 $545 #
straight-curve $-1 0 -34.901057882270059 10.473208800723803 1 0 0 I I #
vertex $-1 $375 $546 #
point $-1 -57.578914788368358 -26.951084452431452 6.254261989310379 #
coedge $-1 $390 $389 $382 $493 forward $379 $-1 #
edge $-1 $494 29.281516676722724 $497 35.976954226639627 $492 $547 forward 7 unknown #
vertex $-1 $394 $548 #
straight-curve $-1 -81.70936842888986 19.461371628549095 10.473208800723803 -1 0 0 I I #
edge $-1 $497 -13.705672529193851 $391 2.1942743304833616 $390 $549 forward 7 unknown #
vertex $-1 $496 $550 #
straight-curve $-1 -62.919400616473908 19.461371628549095 3.7777712508068788 0.60181501223851219 0 0.79863551827123203 I I #
point $-1 -57.874026676973031 19.461371628549095 10.473208800723803 #
point $-1 -62.919400616473894 3.5614247688718823 3.7777712508068975 #
straight-curve $-1 -62.919400616473894 0 10.473208800723803 0 -1 0 I I #
vertex $-1 $397 $551 #
point $-1 -57.578914788368358 11.511398198710488 6.254261989310379 #
coedge $-1 $411 $410 $403 $505 forward $401 $-1 #
edge $-1 $512 78.392032859772797 $507 85.82801757531216 $504 $552 forward 7 unknown #
edge $-1 $408 51.895100123223855 $512 62.919400616473894 $407 $553 forward 7 unknown #
vertex $-1 $505 $554 #
straight-curve $-1 -41.405693074051996 -34.901057882270059 73.405389630467326 -0.82903756765294845 0 0.55919291073839883 I I #
edge $-1 $507 -21.074074654261313 $412 -6.5798918017561796 $411 $555 forward 7 unknown #
point $-1 51.895100123223855 -34.901057882270059 10.473208800723803 #
point $-1 62.919400616473894 -20.406875029764926 3.0372240851844481 #
vertex $-1 $415 $556 #
straight-curve $-1 62.919400616473894 0 10.473208800723803 0 1 0 I I #
vertex $-1 $418 $557 #
point $-1 56.08219187791974 -27.653966456017493 2.1082990388769831 #
coedge $-1 $517 $424 $432 $522 reversed $293 $-1 #
coedge $-1 $425 $516 $427 $519 reversed $293 $-1 #
straight-curve $-1 62.919400616473894 27.529724567508687 88.865241660496608 0 0 -1 I I #
edge $-1 $428 27.529724567508687 $525 42.023907420013821 $517 $558 forward 7 unknown #
point $-1 62.919400616473894 27.529724567508687 10.473208800723803 #
straight-curve $-1 62.919400616473901 17.388407996880627 3.0372240851844339 0 1 0 I I #
edge $-1 $525 -10.473208800723803 $433 -3.0372240851844481 $516 $559 forward 7 unknown #
point $-1 62.919400616473894 42.023907420013821 3.0372240851844481 #
point $-1 62.919400616473894 27.529724567508687 3.0372240851844481 #
vertex $-1 $519 $560 #
straight-curve $-1 0 42.023907420013821 10.473208800723803 -1 0 0 I I #
vertex $-1 $440 $561 #
point $-1 56.08219187791974 34.776815993761254 2.1082990388769831 #
straight-curve $-1 -62.919400616473894 42.023907420013821 0 0 0 -1 I I #
point $-1 -62.919400616473894 -42.023907420013821 -10.473208800723803 #
straight-curve $-1 -62.919400616473894 0 -10.473208800723803 0 1 0 I I #
point $-1 -62.919400616473894 42.023907420013821 -10.473208800723803 #
coedge $-1 $475 $463 $472 $539 forward $339 $-1 #
vertex $-1 $464 $562 #
straight-curve $-1 -62.919400616473894 0 10.473208800723803 0 -1 0 I I #
point $-1 -62.919400616473894 -34.901057882270059 10.473208800723803 #
straight-curve $-1 0 -34.901057882270059 10.473208800723803 -1 0 0 I I #
point $-1 62.919400616473894 -34.901057882270059 10.473208800723803 #
edge $-1 $534 -62.919400616473894 $477 62.919400616473894 $472 $563 forward 7 unknown #
straight-curve $-1 -62.919400616473894 -42.023907420013821 0 0 0 -1 I I #
straight-curve $-1 62.919400616473894 0 10.473208800723803 0 1 0 I I #
point $-1 62.919400616473894 -42.023907420013821 10.473208800723803 #
straight-curve $-1 -62.919400616473894 0 10.473208800723803 0 -1 0 I I #
straight-curve $-1 -62.919400616473894 -34.901057882270059 39.754725477446527 0 0 1 I I #
point $-1 -62.919400616473894 -34.901057882270059 10.473208800723803 #
point $-1 -57.382094282335643 -26.951084452431452 4.8538114588006342 #
straight-curve $-1 -62.919400616473894 19.461371628549095 39.754725477446527 0 0 -1 I I #
point $-1 -62.919400616473894 19.461371628549095 10.473208800723803 #
straight-curve $-1 -62.919400616473894 5.7556990993552439 3.7777712508068975 0 -1 0 I I #
point $-1 -62.919400616473894 19.461371628549095 3.7777712508068975 #
point $-1 -57.382094282335643 11.511398198710488 4.8538114588006342 #
straight-curve $-1 62.919400616473894 -34.901057882270059 88.865241660496608 0 0 -1 I I #
straight-curve $-1 0 -34.901057882270059 10.473208800723803 1 0 0 I I #
point $-1 62.919400616473894 -34.901057882270059 3.0372240851844481 #
straight-curve $-1 62.919400616473901 -13.826983228008746 3.0372240851844339 0 1 0 I I #
point $-1 62.919400616473894 -34.901057882270059 10.473208800723803 #
point $-1 53.999846160332723 -27.653966456017493 1.7035320535051592 #
straight-curve $-1 62.919400616473894 0 10.473208800723803 0 1 0 I I #
straight-curve $-1 62.919400616473894 42.023907420013821 0 0 0 -1 I I #
point $-1 62.919400616473894 42.023907420013821 10.473208800723803 #
point $-1 53.999846160332723 34.776815993761254 1.7035320535051592 #
point $-1 -62.919400616473894 -42.023907420013821 10.473208800723803 #
straight-curve $-1 0 -42.023907420013821 10.473208800723803 1 0 0 I I #
End-of-ACIS-data 