500 0 6 0           
7 Unknown 11 ACIS 5.0 NT 24 Fri Mar 26 19:53:18 1999 
-1 9.9999999999999995e-007 1e-010 
body $-1 $6 $-1 $7 #
body $-1 $8 $-1 $9 #
body $-1 $10 $-1 $11 #
body $-1 $12 $-1 $13 #
body $-1 $14 $-1 $15 #
body $-1 $16 $-1 $17 #
lump $-1 $-1 $18 $0 #
transform $-1 1 0 0 0 1 0 0 0 1 64.75417340617085 32.314638756076697 9.6046479173957504 1 rotate no_reflect no_shear #
lump $-1 $-1 $19 $1 #
transform $-1 1 0 0 0 1 0 0 0 1 64.75417340617085 32.314638756076697 9.6046479173957504 1 rotate no_reflect no_shear #
lump $-1 $-1 $20 $2 #
transform $-1 1 0 0 0 1 0 0 0 1 64.75417340617085 32.314638756076697 9.6046479173957504 1 rotate no_reflect no_shear #
lump $-1 $-1 $21 $3 #
transform $-1 1 0 0 0 1 0 0 0 1 64.75417340617085 32.314638756076697 9.6046479173957504 1 rotate no_reflect no_shear #
lump $-1 $-1 $22 $4 #
transform $-1 1 0 0 0 1 0 0 0 1 64.75417340617085 32.314638756076697 9.6046479173957504 1 rotate no_reflect no_shear #
lump $-1 $-1 $23 $5 #
transform $-1 1 0 0 0 1 0 0 0 1 64.75417340617085 32.314638756076697 9.6046479173957504 1 rotate no_reflect no_shear #
shell $-1 $-1 $-1 $24 $-1 $6 #
shell $-1 $-1 $-1 $25 $-1 $8 #
shell $-1 $-1 $-1 $26 $-1 $10 #
shell $-1 $-1 $-1 $27 $-1 $12 #
shell $-1 $-1 $-1 $28 $-1 $14 #
shell $-1 $-1 $-1 $29 $-1 $16 #
face $-1 $30 $31 $18 $-1 $32 forward single #
face $-1 $33 $34 $19 $-1 $35 reversed single #
face $-1 $36 $37 $20 $-1 $38 reversed single #
face $-1 $39 $40 $21 $-1 $41 forward single #
face $-1 $42 $43 $22 $-1 $44 reversed single #
face $-1 $45 $46 $23 $-1 $47 forward single #
face $-1 $48 $49 $18 $-1 $50 reversed single #
loop $-1 $-1 $51 $24 #
plane-surface $-1 0 0 9.6046479173957504 0 0 1 1 0 0 forward_v I I I I #
face $-1 $52 $53 $19 $-1 $54 reversed single #
loop $-1 $-1 $55 $25 #
plane-surface $-1 -54.578496749376484 -28.499822797738624 0 1 0 0 0 0 -1 forward_v I I I I #
face $-1 $56 $57 $20 $-1 $58 reversed single #
loop $-1 $-1 $59 $26 #
plane-surface $-1 -156.3304047199548 -0.84523148488492161 96.998502623174886 0 1 0 -0.70710678939079041 0 0.70710677298230451 forward_v I I I I #
face $-1 $60 $61 $21 $-1 $62 forward single #
loop $-1 $63 $64 $27 #
cone-surface $-1 -62.092037457442864 6.3478433756224533 6.9425119333904703 0.70710678939079041 0 -0.70710677298230451 0.70710677298230451 0 0.70710678939079041 1 I I 0 1 1 forward I I I I #
face $-1 $65 $66 $22 $-1 $67 reversed single #
loop $-1 $-1 $68 $28 #
plane-surface $-1 48.791386556744413 -1.2506438360453274 184.97062597714771 0 -1 0 -0.64278761758704617 0 -0.76604443648966558 forward_v I I I I #
face $-1 $69 $70 $23 $-1 $71 forward single #
loop $-1 $72 $73 $29 #
cone-surface $-1 59.922198790046124 -7.8117764480249505 5.3359070535688939 -0.64278761758704617 0 -0.76604443648966558 1.1490666547344983 0 -0.96418142638056925 1 I I 0 1 1.5 forward I I I I #
face $-1 $74 $75 $18 $-1 $76 reversed single #
loop $-1 $-1 $77 $30 #
plane-surface $-1 0 0 -9.6046479173957504 0 0 1 1 0 0 forward_v I I I I #
coedge $-1 $78 $79 $80 $81 forward $31 $-1 #
face $-1 $82 $83 $19 $-1 $84 reversed single #
loop $-1 $-1 $85 $33 #
plane-surface $-1 -52.285510535703835 -24.68500683940055 0 0 -1 0 0 0 -1 forward_v I I I I #
coedge $-1 $86 $87 $88 $89 forward $34 $-1 #
face $-1 $90 $91 $20 $-1 $92 reversed single #
loop $-1 $-1 $93 $36 #
plane-surface $-1 -64.75417340617085 6.3478433756224533 5.4222734344268275 -0.70710678939079041 0 0.70710677298230451 0.70710677298230451 0 0.70710678939079041 forward_v I I I I #
coedge $-1 $94 $95 $96 $97 reversed $37 $-1 #
face $-1 $-1 $98 $21 $-1 $99 forward single #
loop $-1 $100 $101 $39 #
cone-surface $-1 -61.167535306977733 6.3478433756224533 6.0180098043785097 0.70710678939079041 0 -0.70710677298230451 0.35355338649115226 0 0.35355339469539521 1 I I -0.70710678118654746 0.70710678118654746 0.5 forward I I I I #
loop $-1 $-1 $102 $27 #
coedge $-1 $64 $64 $103 $104 reversed $40 $-1 #
face $-1 $105 $106 $22 $-1 $107 reversed single #
loop $-1 $-1 $108 $42 #
plane-surface $-1 -34.454975148397637 -7.8117764480249505 85.761477422579233 0.64278761758704617 0 0.76604443648966558 0.76604443648966558 0 -0.64278761758704617 forward_v I I I I #
coedge $-1 $109 $110 $111 $112 reversed $43 $-1 #
face $-1 $-1 $113 $23 $-1 $114 forward single #
loop $-1 $115 $116 $45 #
cone-surface $-1 58.832621106805888 -7.8117764480249505 4.0373989623540627 -0.64278761758704617 0 -0.76604443648966558 0.57453332736724916 0 -0.48209071319028463 1 I I -0.70710678118654757 0.70710678118654757 0.75 forward I I I I #
loop $-1 $-1 $117 $29 #
coedge $-1 $73 $73 $118 $119 reversed $46 $-1 #
face $-1 $120 $121 $18 $-1 $122 reversed single #
loop $-1 $-1 $123 $48 #
plane-surface $-1 0 -32.314638756076697 0 0 1 0 0 0 1 forward_v I I I I #
coedge $-1 $124 $125 $126 $127 forward $49 $-1 #
coedge $-1 $128 $51 $129 $130 forward $31 $-1 #
coedge $-1 $51 $128 $131 $132 forward $31 $-1 #
coedge $-1 $133 $134 $51 $81 reversed $135 $-1 #
edge $-1 $136 -32.314638756076697 $137 32.314638756076697 $80 $138 forward 7 unknown #
face $-1 $139 $140 $19 $-1 $141 forward single #
loop $-1 $-1 $142 $52 #
plane-surface $-1 -49.992524322031187 -28.499822797738624 0 -1 0 0 0 0 1 forward_v I I I I #
coedge $-1 $143 $144 $145 $146 forward $53 $-1 #
coedge $-1 $147 $55 $148 $149 reversed $34 $-1 #
coedge $-1 $55 $147 $150 $151 reversed $34 $-1 #
coedge $-1 $144 $143 $55 $89 reversed $53 $-1 #
edge $-1 $152 -9.6046479173957504 $153 9.6046479173957504 $88 $154 forward 7 unknown #
face $-1 $155 $156 $20 $-1 $157 reversed single #
loop $-1 $-1 $158 $56 #
plane-surface $-1 -156.3304047199548 13.540918236129828 96.998502623174886 0 -1 0 0.70710678939079041 0 -0.70710677298230451 forward_v I I I I #
coedge $-1 $159 $160 $161 $162 reversed $57 $-1 #
coedge $-1 $95 $59 $163 $164 reversed $37 $-1 #
coedge $-1 $59 $94 $159 $165 reversed $37 $-1 #
coedge $-1 $161 $166 $59 $97 forward $167 $-1 #
edge $-1 $168 13.41102895380655 $169 17.593403339723039 $96 $170 forward 7 unknown #
loop $-1 $-1 $103 $60 #
plane-surface $-1 -64.75417340617085 6.3478433756224533 5.4222734344268275 -0.70710678939079041 0 0.70710677298230451 0.70710677298230451 0 0.70710678939079041 forward_v I I I I #
loop $-1 $-1 $171 $39 #
coedge $-1 $101 $101 $102 $172 reversed $61 $-1 #
coedge $-1 $102 $102 $101 $172 forward $63 $-1 #
coedge $-1 $103 $103 $64 $104 forward $98 $-1 #
edge $-1 $173 0 $173 6.2831853071796004 $103 $174 forward 7 unknown #
face $-1 $175 $176 $22 $-1 $177 forward single #
loop $-1 $-1 $178 $65 #
plane-surface $-1 48.791386556744413 -14.372909060004574 184.97062597714771 0 1 0 0.64278761758704617 0 0.76604443648966558 forward_v I I I I #
coedge $-1 $179 $180 $181 $182 reversed $66 $-1 #
coedge $-1 $110 $68 $183 $184 reversed $43 $-1 #
coedge $-1 $68 $109 $179 $185 reversed $43 $-1 #
coedge $-1 $181 $186 $68 $112 forward $176 $-1 #
edge $-1 $187 -40.358480127798643 $188 -31.90950483564913 $111 $189 forward 7 unknown #
loop $-1 $-1 $118 $69 #
plane-surface $-1 -34.454975148397637 -7.8117764480249505 85.761477422579233 0.64278761758704617 0 0.76604443648966558 0.76604443648966558 0 -0.64278761758704617 forward_v I I I I #
loop $-1 $-1 $190 $45 #
coedge $-1 $116 $116 $117 $191 reversed $70 $-1 #
coedge $-1 $117 $117 $116 $191 forward $72 $-1 #
coedge $-1 $118 $118 $73 $119 forward $113 $-1 #
edge $-1 $192 0 $192 6.2831853071796004 $118 $193 forward 7 unknown #
face $-1 $194 $195 $18 $-1 $196 reversed single #
loop $-1 $-1 $197 $74 #
plane-surface $-1 -64.75417340617085 0 0 1 0 0 0 0 -1 forward_v I I I I #
coedge $-1 $198 $131 $199 $200 forward $75 $-1 #
coedge $-1 $201 $77 $198 $202 forward $49 $-1 #
coedge $-1 $77 $201 $203 $204 forward $49 $-1 #
coedge $-1 $134 $133 $77 $127 reversed $135 $-1 #
edge $-1 $205 -32.314638756076697 $206 32.314638756076697 $126 $207 forward 7 unknown #
coedge $-1 $79 $78 $208 $209 forward $31 $-1 #
coedge $-1 $210 $211 $78 $130 reversed $195 $-1 #
edge $-1 $137 -64.75417340617085 $212 64.75417340617085 $129 $213 forward 7 unknown #
coedge $-1 $123 $214 $79 $132 reversed $75 $-1 #
edge $-1 $215 -64.75417340617085 $136 64.75417340617085 $131 $216 forward 7 unknown #
coedge $-1 $126 $80 $214 $217 forward $135 $-1 #
coedge $-1 $80 $126 $210 $218 reversed $135 $-1 #
loop $-1 $-1 $133 $194 #
vertex $-1 $81 $219 #
vertex $-1 $81 $220 #
straight-curve $-1 64.75417340617085 0 9.6046479173957504 0 1 0 I I #
face $-1 $221 $222 $19 $-1 $223 reversed single #
loop $-1 $-1 $224 $82 #
plane-surface $-1 0 0 9.6046479173957504 0 0 1 1 0 0 forward_v I I I I #
coedge $-1 $225 $226 $227 $228 reversed $83 $-1 #
coedge $-1 $88 $85 $229 $230 reversed $53 $-1 #
coedge $-1 $85 $88 $231 $232 reversed $53 $-1 #
coedge $-1 $226 $225 $85 $146 reversed $83 $-1 #
edge $-1 $233 -9.6046479173957504 $234 9.6046479173957504 $145 $235 forward 7 unknown #
coedge $-1 $87 $86 $236 $237 reversed $34 $-1 #
coedge $-1 $229 $238 $86 $149 forward $222 $-1 #
edge $-1 $239 -18.064727357207385 $153 -10.435095440531239 $148 $240 forward 7 unknown #
coedge $-1 $241 $231 $87 $151 forward $140 $-1 #
edge $-1 $152 10.435095440531239 $242 18.064727357207385 $150 $243 forward 7 unknown #
vertex $-1 $151 $244 #
vertex $-1 $149 $245 #
straight-curve $-1 -54.578496749376484 -24.68500683940055 0 0 0 -1 I I #
face $-1 $-1 $167 $20 $-1 $246 forward single #
loop $-1 $-1 $247 $90 #
plane-surface $-1 -64.75417340617085 0 0 1 0 0 0 0 -1 forward_v I I I I #
coedge $-1 $248 $249 $250 $251 reversed $91 $-1 #
coedge $-1 $252 $93 $95 $165 forward $57 $-1 #
coedge $-1 $93 $252 $248 $253 forward $57 $-1 #
coedge $-1 $250 $96 $93 $162 forward $167 $-1 #
edge $-1 $169 -4.0191531726961482 $254 10.366996548318602 $161 $255 forward 7 unknown #
coedge $-1 $256 $257 $94 $164 forward $156 $-1 #
edge $-1 $258 -43.076977877160616 $168 -38.894603394191691 $163 $259 forward 7 unknown #
edge $-1 $169 -5.9147706481113804 $258 0 $95 $260 forward 7 unknown #
coedge $-1 $96 $250 $256 $261 forward $167 $-1 #
loop $-1 $-1 $250 $155 #
vertex $-1 $164 $262 #
vertex $-1 $97 $263 #
straight-curve $-1 -78.1652023599774 -0.84523148488492161 9.6046479173957522 1 0 0 I I #
coedge $-1 $171 $171 $-1 $264 reversed $100 $-1 #
edge $-1 $265 0 $265 6.2831853071796004 $101 $266 forward 7 unknown #
vertex $-1 $104 $267 #
ellipse-curve $-1 -62.662986213212605 6.3478433756224533 7.5134606759112872 -0.70710678939079041 0 0.70710677298230451 0.70710677298230451 0 0.70710678939079041 1 I I #
face $-1 $-1 $268 $22 $-1 $269 reversed single #
loop $-1 $-1 $111 $105 #
plane-surface $-1 0 0 9.6046479173957504 0 0 1 1 0 0 forward_v I I I I #
coedge $-1 $270 $271 $272 $273 reversed $106 $-1 #
coedge $-1 $274 $108 $110 $185 forward $66 $-1 #
coedge $-1 $108 $274 $270 $275 forward $66 $-1 #
coedge $-1 $272 $111 $108 $182 forward $176 $-1 #
edge $-1 $188 -2.6552443879671479 $276 10.467020835992098 $181 $277 forward 7 unknown #
coedge $-1 $278 $279 $109 $184 forward $268 $-1 #
edge $-1 $280 -89.970197271136684 $187 -82.8806650711781 $183 $281 forward 7 unknown #
edge $-1 $188 118.4789927831339 $280 129.50834681234173 $110 $282 forward 7 unknown #
coedge $-1 $111 $272 $278 $283 forward $176 $-1 #
vertex $-1 $184 $284 #
vertex $-1 $112 $285 #
straight-curve $-1 24.395693278372207 -1.2506438360453274 9.6046479173957522 -1 0 0 I I #
coedge $-1 $190 $190 $-1 $286 reversed $115 $-1 #
edge $-1 $287 0 $287 6.2831853071796004 $116 $288 forward 7 unknown #
vertex $-1 $119 $289 #
ellipse-curve $-1 60.529685760096079 -7.8117764480249505 6.0598818174164775 0.64278761758704617 0 0.76604443648966558 1.1490666547344983 0 -0.96418142638056925 1 I I #
face $-1 $-1 $135 $18 $-1 $290 reversed single #
loop $-1 $-1 $210 $120 #
plane-surface $-1 0 32.314638756076697 0 0 -1 0 0 0 -1 forward_v I I I I #
coedge $-1 $291 $208 $211 $292 forward $121 $-1 #
coedge $-1 $214 $123 $124 $202 reversed $75 $-1 #
coedge $-1 $208 $291 $123 $200 reversed $121 $-1 #
edge $-1 $215 -9.6046479173957504 $293 9.6046479173957504 $199 $294 forward 7 unknown #
coedge $-1 $125 $124 $291 $295 forward $49 $-1 #
edge $-1 $206 -64.75417340617085 $293 64.75417340617085 $198 $296 forward 7 unknown #
coedge $-1 $211 $210 $125 $204 reversed $195 $-1 #
edge $-1 $297 -64.75417340617085 $205 64.75417340617085 $203 $298 forward 7 unknown #
vertex $-1 $127 $299 #
vertex $-1 $217 $300 #
straight-curve $-1 64.75417340617085 0 -9.6046479173957504 0 -1 0 I I #
coedge $-1 $197 $199 $128 $209 reversed $121 $-1 #
edge $-1 $212 -32.314638756076697 $215 32.314638756076697 $208 $301 forward 7 unknown #
coedge $-1 $203 $129 $134 $218 forward $195 $-1 #
coedge $-1 $129 $203 $197 $292 reversed $195 $-1 #
vertex $-1 $130 $302 #
straight-curve $-1 0 32.314638756076697 9.6046479173957504 -1 0 0 I I #
coedge $-1 $131 $198 $133 $217 reversed $75 $-1 #
vertex $-1 $209 $303 #
straight-curve $-1 0 -32.314638756076697 9.6046479173957504 1 0 0 I I #
edge $-1 $136 -9.6046479173957504 $206 9.6046479173957504 $133 $304 forward 7 unknown #
edge $-1 $137 -9.6046479173957504 $205 9.6046479173957504 $134 $305 forward 7 unknown #
point $-1 64.75417340617085 -32.314638756076697 9.6046479173957504 #
point $-1 64.75417340617085 32.314638756076697 9.6046479173957504 #
face $-1 $-1 $306 $19 $-1 $307 reversed single #
loop $-1 $-1 $308 $139 #
plane-surface $-1 0 0 -9.6046479173957504 0 0 1 1 0 0 forward_v I I I I #
coedge $-1 $231 $241 $226 $309 forward $140 $-1 #
coedge $-1 $145 $142 $308 $310 reversed $83 $-1 #
coedge $-1 $142 $145 $224 $309 reversed $83 $-1 #
coedge $-1 $311 $312 $142 $228 forward $306 $-1 #
edge $-1 $313 -9.6046479173957504 $314 9.6046479173957504 $227 $315 forward 7 unknown #
coedge $-1 $308 $148 $143 $230 forward $222 $-1 #
edge $-1 $153 -28.435741481524566 $234 -23.849769054179269 $229 $316 forward 7 unknown #
coedge $-1 $150 $224 $144 $232 forward $140 $-1 #
edge $-1 $233 23.849769054179269 $152 28.435741481524566 $231 $317 forward 7 unknown #
vertex $-1 $232 $318 #
vertex $-1 $230 $319 #
straight-curve $-1 -49.992524322031187 -24.68500683940055 0 0 0 -1 I I #
coedge $-1 $312 $311 $147 $237 forward $306 $-1 #
edge $-1 $242 -9.6046479173957504 $239 9.6046479173957504 $236 $320 forward 7 unknown #
coedge $-1 $148 $308 $312 $321 forward $222 $-1 #
vertex $-1 $149 $322 #
straight-curve $-1 -54.578496749376484 -14.249911398869312 -9.6046479173957504 0 1 0 I I #
coedge $-1 $224 $150 $311 $323 forward $140 $-1 #
vertex $-1 $323 $324 #
straight-curve $-1 -54.578496749376484 -14.249911398869312 9.6046479173957504 0 -1 0 I I #
point $-1 -54.578496749376484 -24.68500683940055 9.6046479173957504 #
point $-1 -54.578496749376484 -24.68500683940055 -9.6046479173957504 #
plane-surface $-1 0 0 9.6046479173957504 0 0 1 1 0 0 forward_v I I I I #
coedge $-1 $257 $256 $249 $325 forward $156 $-1 #
coedge $-1 $249 $158 $160 $253 reversed $91 $-1 #
coedge $-1 $158 $248 $247 $325 reversed $91 $-1 #
coedge $-1 $166 $161 $158 $251 forward $167 $-1 #
edge $-1 $254 -17.593403339723039 $326 -13.41102895380655 $250 $327 forward 7 unknown #
coedge $-1 $160 $159 $257 $328 reversed $57 $-1 #
edge $-1 $329 0 $254 5.9147706481113804 $248 $330 forward 7 unknown #
vertex $-1 $162 $331 #
straight-curve $-1 -60.57179902025436 3.1739216878112266 9.6046479173957486 0 1 0 I I #
coedge $-1 $247 $163 $166 $261 reversed $156 $-1 #
coedge $-1 $163 $247 $252 $328 forward $156 $-1 #
vertex $-1 $164 $332 #
straight-curve $-1 -64.75417340617085 -0.84523148488492161 48.499251311587443 0 0 1 I I #
straight-curve $-1 -64.75417340617085 -0.84523148488492161 5.4222734344268275 -0.70710677298230451 0 -0.70710678939079041 I I #
edge $-1 $326 -13.540918236129828 $168 0.84523148488492161 $256 $333 forward 7 unknown #
point $-1 -64.75417340617085 -0.84523148488492161 9.6046479173957504 #
point $-1 -60.57179902025436 -0.84523148488492161 9.6046479173957504 #
edge $-1 $334 1 $334 0 $171 $-1 forward 7 unknown #
vertex $-1 $172 $335 #
ellipse-curve $-1 -61.521088701673129 6.3478433756224533 6.3715631908696624 -0.70710678939079041 0 0.70710677298230451 0.70710677298230451 0 0.70710678939079041 1 I I #
point $-1 -61.955879440230291 6.3478433756224533 8.2205674653020679 #
loop $-1 $-1 $183 $175 #
plane-surface $-1 64.75417340617085 0 0 -1 0 0 0 0 1 forward_v I I I I #
coedge $-1 $271 $178 $180 $275 reversed $106 $-1 #
coedge $-1 $178 $270 $336 $337 reversed $106 $-1 #
coedge $-1 $186 $181 $178 $273 forward $176 $-1 #
edge $-1 $276 31.90950483564913 $338 40.358480127798643 $272 $339 forward 7 unknown #
coedge $-1 $180 $179 $279 $340 reversed $66 $-1 #
edge $-1 $341 -129.50834681234173 $276 -118.4789927831339 $270 $342 forward 7 unknown #
vertex $-1 $182 $343 #
straight-curve $-1 56.305198114021323 -3.9058882240124753 9.6046479173957593 0 -1 0 I I #
coedge $-1 $336 $183 $186 $283 reversed $268 $-1 #
coedge $-1 $183 $336 $274 $340 forward $268 $-1 #
vertex $-1 $184 $344 #
straight-curve $-1 64.75417340617085 -1.2506438360453274 92.485312988573853 0 0 1 I I #
straight-curve $-1 -34.454975148397637 -1.2506438360453274 85.761477422579233 0.76604443648966558 0 -0.64278761758704617 I I #
edge $-1 $338 -14.372909060004574 $187 -1.2506438360453274 $278 $345 forward 7 unknown #
point $-1 64.75417340617085 -1.2506438360453274 9.6046479173957504 #
point $-1 56.305198114021337 -1.2506438360453274 9.6046479173957522 #
edge $-1 $346 1 $346 0 $190 $-1 forward 7 unknown #
vertex $-1 $191 $347 #
ellipse-curve $-1 59.31471181999617 -7.8117764480249505 4.6119322897213122 0.64278761758704617 0 0.76604443648966558 1.1490666547344983 0 -0.96418142638056925 1 I I #
point $-1 61.678752414830576 -7.8117764480249505 5.0957003910359067 #
plane-surface $-1 64.75417340617085 0 0 -1 0 0 0 0 1 forward_v I I I I #
coedge $-1 $199 $197 $201 $295 reversed $121 $-1 #
edge $-1 $212 -9.6046479173957504 $297 9.6046479173957504 $211 $348 forward 7 unknown #
vertex $-1 $295 $349 #
straight-curve $-1 -64.75417340617085 -32.314638756076697 0 0 0 -1 I I #
edge $-1 $293 -32.314638756076697 $297 32.314638756076697 $291 $350 forward 7 unknown #
straight-curve $-1 0 -32.314638756076697 -9.6046479173957504 -1 0 0 I I #
vertex $-1 $204 $351 #
straight-curve $-1 0 32.314638756076697 -9.6046479173957504 1 0 0 I I #
point $-1 64.75417340617085 32.314638756076697 -9.6046479173957504 #
point $-1 64.75417340617085 -32.314638756076697 -9.6046479173957504 #
straight-curve $-1 -64.75417340617085 0 9.6046479173957504 0 -1 0 I I #
point $-1 -64.75417340617085 32.314638756076697 9.6046479173957504 #
point $-1 -64.75417340617085 -32.314638756076697 9.6046479173957504 #
straight-curve $-1 64.75417340617085 -32.314638756076697 0 0 0 -1 I I #
straight-curve $-1 64.75417340617085 32.314638756076697 0 0 0 -1 I I #
loop $-1 $-1 $227 $221 #
plane-surface $-1 0 -32.314638756076697 0 0 1 0 0 0 1 forward_v I I I I #
coedge $-1 $238 $229 $225 $310 forward $222 $-1 #
edge $-1 $314 -18.064727357207385 $233 -10.435095440531239 $224 $352 forward 7 unknown #
edge $-1 $234 10.435095440531239 $313 18.064727357207385 $308 $353 forward 7 unknown #
coedge $-1 $236 $227 $241 $323 reversed $306 $-1 #
coedge $-1 $227 $236 $238 $321 reversed $306 $-1 #
vertex $-1 $321 $354 #
vertex $-1 $228 $355 #
straight-curve $-1 -49.992524322031187 -32.314638756076697 0 0 0 1 I I #
straight-curve $-1 -26.142755267851918 -24.68500683940055 -9.6046479173957504 1 0 0 I I #
straight-curve $-1 -26.142755267851918 -24.68500683940055 9.6046479173957504 -1 0 0 I I #
point $-1 -49.992524322031187 -24.68500683940055 9.6046479173957504 #
point $-1 -49.992524322031187 -24.68500683940055 -9.6046479173957504 #
straight-curve $-1 -54.578496749376484 -32.314638756076697 0 0 0 -1 I I #
edge $-1 $313 49.992524322031187 $239 54.578496749376484 $312 $356 forward 7 unknown #
point $-1 -54.578496749376484 -32.314638756076697 -9.6046479173957504 #
edge $-1 $242 -54.578496749376484 $314 -49.992524322031187 $311 $357 forward 7 unknown #
point $-1 -54.578496749376484 -32.314638756076697 9.6046479173957504 #
edge $-1 $326 38.894603394191691 $329 43.076977877160616 $247 $358 forward 7 unknown #
vertex $-1 $261 $359 #
straight-curve $-1 -78.1652023599774 13.540918236129828 9.6046479173957522 -1 0 0 I I #
edge $-1 $329 -10.366996548318602 $258 4.0191531726961482 $257 $360 forward 7 unknown #
vertex $-1 $328 $361 #
straight-curve $-1 -64.75417340617085 13.540918236129828 5.4222734344268275 0.70710677298230451 0 0.70710678939079041 I I #
point $-1 -60.57179902025436 13.540918236129828 9.6046479173957504 #
point $-1 -64.75417340617085 -0.84523148488492161 5.4222734344268275 #
straight-curve $-1 -64.75417340617085 0 9.6046479173957504 0 -1 0 I I #
vertex $-1 $264 $362 #
point $-1 -60.813981928690822 6.3478433756224533 7.078669980260452 #
coedge $-1 $279 $278 $271 $337 forward $268 $-1 #
edge $-1 $338 82.8806650711781 $341 89.970197271136684 $336 $363 forward 7 unknown #
vertex $-1 $283 $364 #
straight-curve $-1 24.395693278372207 -14.372909060004574 9.6046479173957522 1 0 0 I I #
edge $-1 $341 -10.467020835992098 $280 2.6552443879671479 $279 $365 forward 7 unknown #
vertex $-1 $340 $366 #
straight-curve $-1 -34.454975148397637 -14.372909060004574 85.761477422579233 -0.76604443648966558 0 0.64278761758704617 I I #
point $-1 56.305198114021337 -14.372909060004574 9.6046479173957522 #
point $-1 64.754173406170864 -1.2506438360453274 2.515115717437169 #
straight-curve $-1 64.75417340617085 0 9.6046479173957504 0 1 0 I I #
vertex $-1 $286 $367 #
point $-1 60.463778474730674 -7.8117764480249505 3.6477508633407427 #
straight-curve $-1 -64.75417340617085 32.314638756076697 0 0 0 -1 I I #
point $-1 -64.75417340617085 -32.314638756076697 -9.6046479173957504 #
straight-curve $-1 -64.75417340617085 0 -9.6046479173957504 0 1 0 I I #
point $-1 -64.75417340617085 32.314638756076697 -9.6046479173957504 #
straight-curve $-1 -49.992524322031187 -14.249911398869312 9.6046479173957504 0 1 0 I I #
straight-curve $-1 -49.992524322031187 -14.249911398869312 -9.6046479173957504 0 -1 0 I I #
point $-1 -49.992524322031187 -32.314638756076697 -9.6046479173957504 #
point $-1 -49.992524322031187 -32.314638756076697 9.6046479173957504 #
straight-curve $-1 0 -32.314638756076697 -9.6046479173957504 -1 0 0 I I #
straight-curve $-1 0 -32.314638756076697 9.6046479173957504 1 0 0 I I #
straight-curve $-1 -64.75417340617085 13.540918236129828 48.499251311587443 0 0 -1 I I #
point $-1 -64.75417340617085 13.540918236129828 9.6046479173957504 #
straight-curve $-1 -64.75417340617085 3.1739216878112266 5.4222734344268249 0 -1 0 I I #
point $-1 -64.75417340617085 13.540918236129828 5.4222734344268275 #
point $-1 -60.813981912282337 6.3478433756224533 5.6644564178873571 #
straight-curve $-1 64.75417340617085 -14.372909060004574 92.485312988573853 0 0 -1 I I #
point $-1 64.75417340617085 -14.372909060004574 9.6046479173957504 #
straight-curve $-1 64.75417340617085 -3.9058882240124753 2.5151157174371903 0 1 0 I I #
point $-1 64.754173406170864 -14.372909060004574 2.515115717437169 #
point $-1 58.350530393615607 -7.8117764480249505 3.4628656349868137 #
End-of-ACIS-data 