500 0 8 0           
7 Unknown 11 ACIS 5.0 NT 24 Fri Mar 26 14:57:14 1999 
-1 9.9999999999999995e-007 1e-010 
body $-1 $8 $-1 $9 #
body $-1 $10 $-1 $11 #
body $-1 $12 $-1 $13 #
body $-1 $14 $-1 $15 #
body $-1 $16 $-1 $17 #
body $-1 $18 $-1 $19 #
body $-1 $20 $-1 $21 #
body $-1 $22 $-1 $23 #
lump $-1 $-1 $24 $0 #
transform $-1 1 0 0 0 1 0 0 0 1 71.695303201391653 31.223023381864035 9.6432422536943339 1 rotate no_reflect no_shear #
lump $-1 $-1 $25 $1 #
transform $-1 1 0 0 0 1 0 0 0 1 71.695303201391653 31.223023381864035 9.6432422536943339 1 rotate no_reflect no_shear #
lump $-1 $-1 $26 $2 #
transform $-1 1 0 0 0 1 0 0 0 1 71.695303201391653 31.223023381864035 9.6432422536943339 1 rotate no_reflect no_shear #
lump $-1 $-1 $27 $3 #
transform $-1 1 0 0 0 1 0 0 0 1 71.695303201391653 31.223023381864035 9.6432422536943339 1 rotate no_reflect no_shear #
lump $-1 $-1 $28 $4 #
transform $-1 1 0 0 0 1 0 0 0 1 71.695303201391653 31.223023381864035 9.6432422536943339 1 rotate no_reflect no_shear #
lump $-1 $-1 $29 $5 #
transform $-1 1 0 0 0 1 0 0 0 1 71.695303201391653 31.223023381864035 9.6432422536943339 1 rotate no_reflect no_shear #
lump $-1 $-1 $30 $6 #
transform $-1 1 0 0 0 1 0 0 0 1 71.695303201391653 31.223023381864035 9.6432422536943339 1 rotate no_reflect no_shear #
lump $-1 $-1 $31 $7 #
transform $-1 1 0 0 0 1 0 0 0 1 71.695303201391653 31.223023381864035 9.6432422536943339 1 rotate no_reflect no_shear #
shell $-1 $-1 $-1 $32 $-1 $8 #
shell $-1 $-1 $-1 $33 $-1 $10 #
shell $-1 $-1 $-1 $34 $-1 $12 #
shell $-1 $-1 $-1 $35 $-1 $14 #
shell $-1 $-1 $-1 $36 $-1 $16 #
shell $-1 $-1 $-1 $37 $-1 $18 #
shell $-1 $-1 $-1 $38 $-1 $20 #
shell $-1 $-1 $-1 $39 $-1 $22 #
face $-1 $40 $41 $24 $-1 $42 forward single #
face $-1 $43 $44 $25 $-1 $45 forward single #
face $-1 $46 $47 $26 $-1 $48 reversed single #
face $-1 $49 $50 $27 $-1 $51 forward single #
face $-1 $52 $53 $28 $-1 $54 forward single #
face $-1 $55 $56 $29 $-1 $57 reversed single #
face $-1 $58 $59 $30 $-1 $60 forward single #
face $-1 $61 $62 $31 $-1 $63 forward single #
face $-1 $64 $65 $24 $-1 $66 reversed single #
loop $-1 $-1 $67 $32 #
plane-surface $-1 0 0 9.6432422536943339 0 0 1 1 0 0 forward_v I I I I #
face $-1 $68 $69 $25 $-1 $70 reversed single #
loop $-1 $-1 $71 $33 #
plane-surface $-1 -65.848888566486167 0 -3.9526492526297154 0 0 1 1 0 0 forward_v I I I I #
face $-1 $72 $73 $26 $-1 $74 reversed single #
loop $-1 $-1 $75 $34 #
plane-surface $-1 56.980537374140908 -150.0992247989638 81.792372626944115 1 0 0 0 0.82903758062907751 -0.55919289150049634 forward_v I I I I #
face $-1 $76 $77 $27 $-1 $78 forward single #
loop $-1 $79 $80 $35 #
cone-surface $-1 61.184756181926844 -25.904829482742748 3.8666898804126335 0 0.82903758062907751 -0.55919289150049634 2 0 0 1 I I 0 1 2 forward I I I I #
face $-1 $81 $82 $28 $-1 $83 forward single #
loop $-1 $84 $85 $36 #
cone-surface $-1 67.491084393605746 -25.904829482742748 3.8666898804126335 0 0.82903758062907751 -0.55919289150049634 2 0 0 1 I I 0 1 2 forward I I I I #
face $-1 $86 $87 $29 $-1 $88 reversed single #
loop $-1 $-1 $89 $37 #
plane-surface $-1 -60.002473931580695 88.459472091532831 151.93688835283905 1 0 0 0 -0.70710678939079041 -0.70710677298230451 forward_v I I I I #
face $-1 $90 $91 $30 $-1 $92 forward single #
loop $-1 $93 $94 $38 #
cone-surface $-1 -48.747624811581488 29.242046771158119 7.6622656134281311 0 -0.70710678939079041 -0.70710677298230451 0.5 0 0 1 I I 0 1 0.5 forward I I I I #
face $-1 $95 $96 $31 $-1 $97 forward single #
loop $-1 $98 $99 $39 #
cone-surface $-1 -31.865351131582685 29.242046771158119 7.6622656134281311 0 -0.70710678939079041 -0.70710677298230451 0.5 0 0 1 I I 0 1 0.5 forward I I I I #
face $-1 $100 $101 $24 $-1 $102 reversed single #
loop $-1 $-1 $103 $40 #
plane-surface $-1 0 0 -9.6432422536943339 0 0 1 1 0 0 forward_v I I I I #
coedge $-1 $104 $105 $106 $107 forward $41 $-1 #
face $-1 $108 $109 $25 $-1 $110 reversed single #
loop $-1 $-1 $111 $43 #
plane-surface $-1 -60.002473931580688 0 -6.7979457531620247 -1 0 0 0 0 1 forward_v I I I I #
coedge $-1 $112 $113 $114 $115 forward $44 $-1 #
face $-1 $116 $117 $26 $-1 $118 forward single #
loop $-1 $-1 $119 $46 #
plane-surface $-1 64.337920287766281 -31.223023381864024 1.6093648185621277 0 -0.82903758062907751 0.55919289150049634 1 0 0 forward_v I I I I #
coedge $-1 $120 $121 $122 $123 reversed $47 $-1 #
face $-1 $-1 $124 $27 $-1 $125 forward single #
loop $-1 $126 $127 $49 #
cone-surface $-1 61.184756181926844 -22.467057295237762 1.547883333196534 0 0.82903758062907751 -0.55919289150049634 1 0 0 1 I I -0.70710678118654768 0.70710678118654735 1 forward I I I I #
loop $-1 $-1 $128 $35 #
coedge $-1 $80 $80 $129 $130 reversed $50 $-1 #
face $-1 $-1 $131 $28 $-1 $132 forward single #
loop $-1 $133 $134 $52 #
cone-surface $-1 67.491084393605746 -22.467057295237762 1.547883333196534 0 0.82903758062907751 -0.55919289150049634 1 0 0 1 I I -0.70710678118654768 0.70710678118654735 1 forward I I I I #
loop $-1 $-1 $135 $36 #
coedge $-1 $85 $85 $136 $137 reversed $53 $-1 #
face $-1 $138 $139 $29 $-1 $140 reversed single #
loop $-1 $-1 $141 $55 #
plane-surface $-1 -40.306487971582087 -12.932999230737792 50.544419383391173 0 0.70710678939079041 0.70710677298230451 1 0 0 forward_v I I I I #
coedge $-1 $142 $143 $144 $145 reversed $56 $-1 #
face $-1 $-1 $146 $30 $-1 $147 forward single #
loop $-1 $148 $149 $58 #
cone-surface $-1 -48.747624811581488 28.711716679115025 7.1319355336914025 0 -0.70710678939079041 -0.70710677298230451 0.25 0 0 1 I I -0.70710678118654746 0.70710678118654746 0.25 forward I I I I #
loop $-1 $-1 $150 $38 #
coedge $-1 $94 $94 $151 $152 reversed $59 $-1 #
face $-1 $-1 $153 $31 $-1 $154 forward single #
loop $-1 $155 $156 $61 #
cone-surface $-1 -31.865351131582685 28.711716679115025 7.1319355336914025 0 -0.70710678939079041 -0.70710677298230451 0.25 0 0 1 I I -0.70710678118654746 0.70710678118654746 0.25 forward I I I I #
loop $-1 $-1 $157 $39 #
coedge $-1 $99 $99 $158 $159 reversed $62 $-1 #
face $-1 $160 $161 $24 $-1 $162 reversed single #
loop $-1 $-1 $163 $64 #
plane-surface $-1 0 -31.223023381864035 0 0 1 0 0 0 1 forward_v I I I I #
coedge $-1 $164 $165 $166 $167 forward $65 $-1 #
coedge $-1 $168 $67 $169 $170 forward $41 $-1 #
coedge $-1 $67 $168 $171 $172 forward $41 $-1 #
coedge $-1 $173 $174 $67 $107 reversed $175 $-1 #
edge $-1 $176 -31.223023381864035 $177 31.223023381864035 $106 $178 forward 7 unknown #
face $-1 $179 $180 $25 $-1 $181 reversed single #
loop $-1 $-1 $182 $68 #
plane-surface $-1 0 0 -9.6432422536943339 0 0 1 1 0 0 forward_v I I I I #
coedge $-1 $183 $114 $184 $185 reversed $69 $-1 #
coedge $-1 $186 $71 $187 $188 reversed $44 $-1 #
coedge $-1 $71 $186 $189 $190 reversed $44 $-1 #
coedge $-1 $111 $191 $71 $115 reversed $69 $-1 #
edge $-1 $192 -31.223023381864035 $193 31.223023381864035 $114 $194 forward 7 unknown #
face $-1 $195 $196 $26 $-1 $197 reversed single #
loop $-1 $-1 $198 $72 #
plane-surface $-1 0 0 9.6432422536943339 0 0 1 1 0 0 forward_v I I I I #
coedge $-1 $199 $200 $201 $202 reversed $73 $-1 #
coedge $-1 $121 $75 $203 $204 reversed $47 $-1 #
coedge $-1 $75 $120 $199 $205 reversed $47 $-1 #
coedge $-1 $201 $206 $75 $123 forward $196 $-1 #
edge $-1 $207 31.252944059777725 $208 39.286821494909944 $122 $209 forward 7 unknown #
loop $-1 $-1 $129 $76 #
plane-surface $-1 64.337920287766281 -31.223023381864024 1.6093648185621277 0 -0.82903758062907751 0.55919289150049634 1 0 0 forward_v I I I I #
loop $-1 $-1 $210 $49 #
coedge $-1 $127 $127 $128 $211 reversed $77 $-1 #
coedge $-1 $128 $128 $127 $211 forward $79 $-1 #
coedge $-1 $129 $129 $80 $130 forward $124 $-1 #
edge $-1 $212 -6.5980467238546365e-016 $212 6.2831853071795996 $129 $213 forward 7 unknown #
loop $-1 $-1 $136 $81 #
plane-surface $-1 64.337920287766281 -31.223023381864024 1.6093648185621277 0 -0.82903758062907751 0.55919289150049634 1 0 0 forward_v I I I I #
loop $-1 $-1 $214 $52 #
coedge $-1 $134 $134 $135 $215 reversed $82 $-1 #
coedge $-1 $135 $135 $134 $215 forward $84 $-1 #
coedge $-1 $136 $136 $85 $137 forward $131 $-1 #
edge $-1 $216 -6.5980467238546365e-016 $216 6.2831853071795996 $136 $217 forward 7 unknown #
face $-1 $218 $219 $29 $-1 $220 reversed single #
loop $-1 $-1 $221 $86 #
plane-surface $-1 -20.610502011583481 88.459472091532831 151.93688835283905 -1 0 0 0 0.70710678939079041 0.70710677298230451 forward_v I I I I #
coedge $-1 $222 $223 $224 $225 reversed $87 $-1 #
coedge $-1 $143 $89 $226 $227 reversed $56 $-1 #
coedge $-1 $89 $142 $222 $228 reversed $56 $-1 #
coedge $-1 $224 $229 $89 $145 forward $230 $-1 #
edge $-1 $231 13.00671266390238 $232 16.261559095923396 $144 $233 forward 7 unknown #
loop $-1 $-1 $151 $90 #
plane-surface $-1 -40.306487971582087 -12.932999230737792 50.544419383391173 0 0.70710678939079041 0.70710677298230451 1 0 0 forward_v I I I I #
loop $-1 $-1 $234 $58 #
coedge $-1 $149 $149 $150 $235 reversed $91 $-1 #
coedge $-1 $150 $150 $149 $235 forward $93 $-1 #
coedge $-1 $151 $151 $94 $152 forward $146 $-1 #
edge $-1 $236 -2.5121473800948401e-015 $236 6.2831853071795978 $151 $237 forward 7 unknown #
loop $-1 $-1 $158 $95 #
plane-surface $-1 -40.306487971582087 -12.932999230737792 50.544419383391173 0 0.70710678939079041 0.70710677298230451 1 0 0 forward_v I I I I #
loop $-1 $-1 $238 $61 #
coedge $-1 $156 $156 $157 $239 reversed $96 $-1 #
coedge $-1 $157 $157 $156 $239 forward $98 $-1 #
coedge $-1 $158 $158 $99 $159 forward $153 $-1 #
edge $-1 $240 -2.5121473800948401e-015 $240 6.2831853071795978 $158 $241 forward 7 unknown #
face $-1 $242 $243 $24 $-1 $244 reversed single #
loop $-1 $-1 $245 $100 #
plane-surface $-1 -71.695303201391653 0 0 1 0 0 0 0 -1 forward_v I I I I #
coedge $-1 $246 $171 $247 $248 forward $101 $-1 #
coedge $-1 $249 $103 $246 $250 forward $65 $-1 #
coedge $-1 $103 $249 $251 $252 forward $65 $-1 #
coedge $-1 $174 $173 $103 $167 reversed $175 $-1 #
edge $-1 $253 -31.223023381864035 $254 31.223023381864035 $166 $255 forward 7 unknown #
coedge $-1 $105 $104 $256 $257 forward $41 $-1 #
coedge $-1 $258 $259 $104 $170 reversed $243 $-1 #
edge $-1 $177 -71.695303201391653 $260 71.695303201391653 $169 $261 forward 7 unknown #
coedge $-1 $163 $262 $105 $172 reversed $101 $-1 #
edge $-1 $263 -71.695303201391653 $176 71.695303201391653 $171 $264 forward 7 unknown #
coedge $-1 $166 $106 $262 $265 forward $175 $-1 #
coedge $-1 $106 $166 $258 $266 reversed $175 $-1 #
loop $-1 $-1 $173 $242 #
vertex $-1 $107 $267 #
vertex $-1 $107 $268 #
straight-curve $-1 71.695303201391653 0 9.6432422536943339 0 1 0 I I #
face $-1 $269 $270 $25 $-1 $271 reversed single #
loop $-1 $-1 $184 $108 #
plane-surface $-1 0 -31.223023381864035 0 0 1 0 0 0 1 forward_v I I I I #
coedge $-1 $272 $273 $183 $274 forward $109 $-1 #
coedge $-1 $191 $111 $182 $274 reversed $69 $-1 #
coedge $-1 $189 $275 $111 $185 forward $180 $-1 #
edge $-1 $276 -6.2442693771133211 $192 -0.55367637604870312 $184 $277 forward 7 unknown #
coedge $-1 $113 $112 $278 $279 reversed $44 $-1 #
coedge $-1 $280 $281 $112 $188 forward $282 $-1 #
edge $-1 $283 -38.770858918148569 $193 -27.078029648337605 $187 $284 forward 7 unknown #
coedge $-1 $285 $184 $113 $190 forward $180 $-1 #
edge $-1 $192 27.078029648337605 $286 38.770858918148569 $189 $287 forward 7 unknown #
coedge $-1 $114 $183 $280 $288 reversed $69 $-1 #
vertex $-1 $190 $289 #
vertex $-1 $188 $290 #
straight-curve $-1 -60.002473931580688 0 -3.9526492526297154 0 1 0 I I #
face $-1 $-1 $291 $26 $-1 $292 reversed single #
loop $-1 $-1 $201 $116 #
plane-surface $-1 0 -31.223023381864035 0 0 1 0 0 0 1 forward_v I I I I #
coedge $-1 $203 $293 $294 $295 forward $117 $-1 #
coedge $-1 $294 $119 $121 $205 forward $73 $-1 #
coedge $-1 $119 $294 $296 $297 reversed $73 $-1 #
coedge $-1 $298 $122 $119 $202 forward $196 $-1 #
edge $-1 $208 24.811577230257768 $299 39.526343057508512 $201 $300 forward 7 unknown #
coedge $-1 $301 $198 $120 $204 forward $117 $-1 #
edge $-1 $302 -49.245507602108646 $207 -43.826589017617863 $203 $303 forward 7 unknown #
edge $-1 $208 -1.9029872570339353e-014 $302 9.6906070639597104 $121 $304 forward 7 unknown #
coedge $-1 $122 $298 $301 $305 reversed $196 $-1 #
vertex $-1 $305 $306 #
vertex $-1 $123 $307 #
straight-curve $-1 56.980537374140908 -31.223023381864039 40.896186313472057 0 0 -1 I I #
coedge $-1 $210 $210 $-1 $308 reversed $126 $-1 #
edge $-1 $309 0 $309 6.2831853071796004 $127 $310 forward 7 unknown #
vertex $-1 $130 $311 #
ellipse-curve $-1 61.184756181926844 -28.513564089618644 5.6263035361282281 0 -0.82903758062907751 0.55919289150049634 2 0 0 1 I I #
coedge $-1 $214 $214 $-1 $312 reversed $133 $-1 #
edge $-1 $313 0 $313 6.2831853071796004 $134 $314 forward 7 unknown #
vertex $-1 $137 $315 #
ellipse-curve $-1 67.491084393605746 -28.513564089618644 5.6263035361282281 0 -0.82903758062907751 0.55919289150049634 2 0 0 1 I I #
face $-1 $-1 $230 $29 $-1 $316 forward single #
loop $-1 $-1 $317 $138 #
plane-surface $-1 0 31.223023381864035 0 0 -1 0 0 0 -1 forward_v I I I I #
coedge $-1 $318 $319 $320 $321 reversed $139 $-1 #
coedge $-1 $322 $141 $143 $228 forward $87 $-1 #
coedge $-1 $141 $322 $318 $323 forward $87 $-1 #
coedge $-1 $320 $144 $141 $225 forward $230 $-1 #
edge $-1 $232 -39.849229945789652 $324 -0.45725802579243791 $224 $325 forward 7 unknown #
coedge $-1 $326 $327 $142 $227 forward $219 $-1 #
edge $-1 $328 -69.580048430275269 $231 -66.325201922725185 $226 $329 forward 7 unknown #
edge $-1 $232 57.842998742715174 $328 62.446046763728084 $143 $330 forward 7 unknown #
coedge $-1 $144 $320 $326 $331 forward $230 $-1 #
loop $-1 $-1 $320 $218 #
vertex $-1 $227 $332 #
vertex $-1 $145 $333 #
straight-curve $-1 -60.002473931580695 44.229736045766415 9.6432422536943392 0 -1 0 I I #
coedge $-1 $234 $234 $-1 $334 reversed $148 $-1 #
edge $-1 $335 0 $335 6.2831853071796004 $149 $336 forward 7 unknown #
vertex $-1 $152 $337 #
ellipse-curve $-1 -48.747624811581488 29.595600165853529 8.0158189999192988 0 0.70710678939079041 0.70710677298230451 0.5 0 0 1 I I #
coedge $-1 $238 $238 $-1 $338 reversed $155 $-1 #
edge $-1 $339 0 $339 6.2831853071796004 $156 $340 forward 7 unknown #
vertex $-1 $159 $341 #
ellipse-curve $-1 -31.865351131582685 29.595600165853529 8.0158189999192988 0 0.70710678939079041 0.70710677298230451 0.5 0 0 1 I I #
face $-1 $-1 $175 $24 $-1 $342 reversed single #
loop $-1 $-1 $258 $160 #
plane-surface $-1 0 31.223023381864035 0 0 -1 0 0 0 -1 forward_v I I I I #
coedge $-1 $343 $256 $259 $344 forward $161 $-1 #
coedge $-1 $262 $163 $164 $250 reversed $101 $-1 #
coedge $-1 $256 $343 $163 $248 reversed $161 $-1 #
edge $-1 $263 -9.6432422536943339 $345 9.6432422536943339 $247 $346 forward 7 unknown #
coedge $-1 $165 $164 $343 $347 forward $65 $-1 #
edge $-1 $254 -71.695303201391653 $345 71.695303201391653 $246 $348 forward 7 unknown #
coedge $-1 $259 $258 $165 $252 reversed $243 $-1 #
edge $-1 $349 -71.695303201391653 $253 71.695303201391653 $251 $350 forward 7 unknown #
vertex $-1 $167 $351 #
vertex $-1 $265 $352 #
straight-curve $-1 71.695303201391653 0 -9.6432422536943339 0 -1 0 I I #
coedge $-1 $245 $247 $168 $257 reversed $161 $-1 #
edge $-1 $260 -31.223023381864035 $263 31.223023381864035 $256 $353 forward 7 unknown #
coedge $-1 $251 $169 $174 $266 forward $243 $-1 #
coedge $-1 $169 $251 $245 $344 reversed $243 $-1 #
vertex $-1 $170 $354 #
straight-curve $-1 0 31.223023381864035 9.6432422536943339 -1 0 0 I I #
coedge $-1 $171 $246 $173 $265 reversed $101 $-1 #
vertex $-1 $257 $355 #
straight-curve $-1 0 -31.223023381864035 9.6432422536943339 1 0 0 I I #
edge $-1 $176 -9.6432422536943339 $254 9.6432422536943339 $173 $356 forward 7 unknown #
edge $-1 $177 -9.6432422536943339 $253 9.6432422536943339 $174 $357 forward 7 unknown #
point $-1 71.695303201391653 -31.223023381864035 9.6432422536943339 #
point $-1 71.695303201391653 31.223023381864035 9.6432422536943339 #
face $-1 $-1 $282 $25 $-1 $358 reversed single #
loop $-1 $-1 $278 $179 #
plane-surface $-1 -71.695303201391653 0 0 1 0 0 0 0 -1 forward_v I I I I #
coedge $-1 $359 $182 $275 $360 forward $109 $-1 #
coedge $-1 $182 $359 $361 $362 forward $109 $-1 #
edge $-1 $363 -31.223023381864035 $276 31.223023381864035 $182 $364 forward 7 unknown #
coedge $-1 $184 $285 $272 $360 reversed $180 $-1 #
vertex $-1 $360 $365 #
straight-curve $-1 -60.002473931580688 -31.223023381864035 -3.3989728765810123 0 0 1 I I #
coedge $-1 $366 $367 $186 $279 forward $270 $-1 #
edge $-1 $286 -31.223023381864035 $283 31.223023381864035 $278 $368 forward 7 unknown #
coedge $-1 $361 $187 $191 $288 forward $282 $-1 #
coedge $-1 $187 $361 $366 $369 reversed $282 $-1 #
loop $-1 $-1 $280 $269 #
vertex $-1 $369 $370 #
straight-curve $-1 -32.924444283243083 31.223023381864035 -3.9526492526297154 1 0 0 I I #
coedge $-1 $275 $189 $367 $371 forward $180 $-1 #
vertex $-1 $371 $372 #
straight-curve $-1 -32.924444283243083 -31.223023381864035 -3.9526492526297154 -1 0 0 I I #
edge $-1 $193 0.55367637604870312 $363 6.2442693771133211 $280 $373 forward 7 unknown #
point $-1 -60.002473931580688 -31.223023381864035 -3.9526492526297154 #
point $-1 -60.002473931580688 31.223023381864035 -3.9526492526297154 #
loop $-1 $-1 $296 $195 #
plane-surface $-1 71.695303201391653 0 0 -1 0 0 0 0 1 forward_v I I I I #
coedge $-1 $198 $301 $374 $375 forward $117 $-1 #
coedge $-1 $200 $199 $198 $295 reversed $73 $-1 #
edge $-1 $376 -39.526343057508512 $302 -24.811577230257768 $198 $377 forward 7 unknown #
coedge $-1 $374 $378 $200 $297 forward $291 $-1 #
edge $-1 $299 -8.0627344053809438 $376 1.6278726585787846 $296 $379 forward 7 unknown #
coedge $-1 $206 $201 $378 $380 reversed $196 $-1 #
vertex $-1 $202 $381 #
straight-curve $-1 32.16896014388314 -31.223023381864035 1.6093648185621166 1 0 0 I I #
coedge $-1 $293 $203 $206 $305 forward $117 $-1 #
vertex $-1 $204 $382 #
straight-curve $-1 56.980537374140908 -75.049612399481902 9.6432422536943321 0 -1 0 I I #
straight-curve $-1 56.980537374140908 -31.223023381864024 1.6093648185621277 0 0.55919289150049634 0.82903758062907751 I I #
edge $-1 $207 56.980537374140908 $383 71.695303201391653 $206 $384 forward 7 unknown #
point $-1 56.980537374140908 -31.223023381864035 9.6432422536943339 #
point $-1 56.980537374140908 -31.223023381864035 1.6093648185621119 #
edge $-1 $385 1 $385 0 $210 $-1 forward 7 unknown #
vertex $-1 $211 $386 #
ellipse-curve $-1 61.184756181926844 -23.296094875866839 2.10707622469703 0 -0.82903758062907751 0.55919289150049634 2 0 0 1 I I #
point $-1 63.184756181926844 -28.513564089618658 5.6263035361282361 #
edge $-1 $387 1 $387 0 $214 $-1 forward 7 unknown #
vertex $-1 $215 $388 #
ellipse-curve $-1 67.491084393605746 -23.296094875866839 2.10707622469703 0 -0.82903758062907751 0.55919289150049634 2 0 0 1 I I #
point $-1 69.491084393605746 -28.513564089618658 5.6263035361282361 #
plane-surface $-1 0 0 9.6432422536943339 0 0 1 1 0 0 forward_v I I I I #
coedge $-1 $327 $326 $319 $389 forward $219 $-1 #
coedge $-1 $319 $221 $223 $323 reversed $139 $-1 #
coedge $-1 $221 $318 $317 $389 reversed $139 $-1 #
coedge $-1 $229 $224 $221 $321 forward $230 $-1 #
edge $-1 $324 -16.261559095923396 $390 -13.00671266390238 $320 $391 forward 7 unknown #
coedge $-1 $223 $222 $327 $392 reversed $87 $-1 #
edge $-1 $393 -62.446046763728084 $324 -57.842998742715174 $318 $394 forward 7 unknown #
vertex $-1 $225 $395 #
straight-curve $-1 -20.153243985791043 27.96817694984302 9.6432422536943285 1 0 0 I I #
coedge $-1 $317 $226 $229 $331 reversed $219 $-1 #
coedge $-1 $226 $317 $322 $392 forward $219 $-1 #
vertex $-1 $227 $396 #
straight-curve $-1 -60.002473931580695 31.223023381864035 75.968444176419524 0 0 1 I I #
straight-curve $-1 -60.002473931580695 -12.932999230737792 50.544419383391173 0 0.70710677298230451 -0.70710678939079041 I I #
edge $-1 $390 20.610502011583481 $231 60.002473931580695 $326 $397 forward 7 unknown #
point $-1 -60.002473931580695 31.223023381864035 9.6432422536943339 #
point $-1 -60.002473931580695 27.96817694984302 9.6432422536943321 #
edge $-1 $398 1 $398 0 $234 $-1 forward 7 unknown #
vertex $-1 $235 $399 #
ellipse-curve $-1 -48.747624811581488 28.888493376462723 7.3087122269369784 0 0.70710678939079041 0.70710677298230451 0.5 0 0 1 I I #
point $-1 -48.247624811581488 29.595600165853511 8.0158189999192828 #
edge $-1 $400 1 $400 0 $238 $-1 forward 7 unknown #
vertex $-1 $239 $401 #
ellipse-curve $-1 -31.865351131582685 28.888493376462723 7.3087122269369784 0 0.70710678939079041 0.70710677298230451 0.5 0 0 1 I I #
point $-1 -31.365351131582685 29.595600165853511 8.0158189999192828 #
plane-surface $-1 71.695303201391653 0 0 -1 0 0 0 0 1 forward_v I I I I #
coedge $-1 $247 $245 $249 $347 reversed $161 $-1 #
edge $-1 $260 -9.6432422536943339 $349 9.6432422536943339 $259 $402 forward 7 unknown #
vertex $-1 $347 $403 #
straight-curve $-1 -71.695303201391653 -31.223023381864035 0 0 0 -1 I I #
edge $-1 $345 -31.223023381864035 $349 31.223023381864035 $343 $404 forward 7 unknown #
straight-curve $-1 0 -31.223023381864035 -9.6432422536943339 -1 0 0 I I #
vertex $-1 $252 $405 #
straight-curve $-1 0 31.223023381864035 -9.6432422536943339 1 0 0 I I #
point $-1 71.695303201391653 31.223023381864035 -9.6432422536943339 #
point $-1 71.695303201391653 -31.223023381864035 -9.6432422536943339 #
straight-curve $-1 -71.695303201391653 0 9.6432422536943339 0 -1 0 I I #
point $-1 -71.695303201391653 31.223023381864035 9.6432422536943339 #
point $-1 -71.695303201391653 -31.223023381864035 9.6432422536943339 #
straight-curve $-1 71.695303201391653 -31.223023381864035 0 0 0 -1 I I #
straight-curve $-1 71.695303201391653 31.223023381864035 0 0 0 -1 I I #
plane-surface $-1 0 31.223023381864035 0 0 -1 0 0 0 -1 forward_v I I I I #
coedge $-1 $273 $272 $406 $407 forward $109 $-1 #
edge $-1 $276 60.002473931580688 $408 71.695303201391653 $275 $409 forward 7 unknown #
coedge $-1 $281 $280 $273 $362 reversed $282 $-1 #
edge $-1 $410 -71.695303201391653 $363 -60.002473931580688 $361 $411 forward 7 unknown #
vertex $-1 $288 $412 #
straight-curve $-1 -60.002473931580688 0 -9.6432422536943339 0 -1 0 I I #
point $-1 -60.002473931580688 -31.223023381864035 -9.6432422536943339 #
coedge $-1 $406 $278 $281 $369 forward $270 $-1 #
coedge $-1 $278 $406 $285 $371 reversed $270 $-1 #
straight-curve $-1 -71.695303201391653 0 -3.9526492526297154 0 1 0 I I #
edge $-1 $283 3.9526492526297154 $410 9.6432422536943339 $281 $413 forward 7 unknown #
point $-1 -71.695303201391653 31.223023381864035 -3.9526492526297154 #
edge $-1 $286 3.9526492526297154 $408 9.6432422536943339 $367 $414 forward 7 unknown #
point $-1 -71.695303201391653 -31.223023381864035 -3.9526492526297154 #
straight-curve $-1 -60.002473931580688 31.223023381864035 -3.3989728765810123 0 0 -1 I I #
coedge $-1 $378 $296 $293 $375 reversed $291 $-1 #
edge $-1 $383 -31.223023381864035 $376 -25.80410479737326 $374 $415 forward 7 unknown #
vertex $-1 $295 $416 #
straight-curve $-1 32.16896014388314 -25.804104797373263 9.6432422536943339 -1 0 0 I I #
coedge $-1 $296 $374 $298 $380 forward $291 $-1 #
straight-curve $-1 71.695303201391653 -26.714399616318531 8.2936746432539543 0 0.55919289150049634 0.82903758062907751 I I #
edge $-1 $383 -9.6432422536943339 $299 -1.6093648185621119 $378 $417 forward 7 unknown #
point $-1 71.695303201391653 -31.223023381864035 1.6093648185621119 #
point $-1 56.980537374140908 -25.80410479737326 9.6432422536943339 #
vertex $-1 $375 $418 #
straight-curve $-1 0 -31.223023381864035 9.6432422536943339 1 0 0 I I #
vertex $-1 $308 $419 #
point $-1 63.184756181926844 -23.296094875866839 2.10707622469703 #
vertex $-1 $312 $420 #
point $-1 69.491084393605746 -23.296094875866839 2.10707622469703 #
edge $-1 $390 66.325201922725185 $393 69.580048430275269 $317 $421 forward 7 unknown #
vertex $-1 $331 $422 #
straight-curve $-1 -20.610502011583481 44.229736045766415 9.6432422536943392 0 1 0 I I #
edge $-1 $393 0.45725802579243791 $328 39.849229945789652 $327 $423 forward 7 unknown #
vertex $-1 $392 $424 #
straight-curve $-1 -20.610502011583481 -12.932999230737792 50.544419383391173 0 -0.70710677298230451 0.70710678939079041 I I #
point $-1 -20.610502011583481 27.96817694984302 9.6432422536943321 #
point $-1 -60.002473931580695 31.223023381864039 6.388395746144262 #
straight-curve $-1 0 31.223023381864035 9.6432422536943339 -1 0 0 I I #
vertex $-1 $334 $425 #
point $-1 -48.247624811581488 28.888493376462723 7.3087122269369784 #
vertex $-1 $338 $426 #
point $-1 -31.365351131582685 28.888493376462723 7.3087122269369784 #
straight-curve $-1 -71.695303201391653 31.223023381864035 0 0 0 -1 I I #
point $-1 -71.695303201391653 -31.223023381864035 -9.6432422536943339 #
straight-curve $-1 -71.695303201391653 0 -9.6432422536943339 0 1 0 I I #
point $-1 -71.695303201391653 31.223023381864035 -9.6432422536943339 #
coedge $-1 $367 $366 $359 $407 reversed $270 $-1 #
edge $-1 $408 -31.223023381864035 $410 31.223023381864035 $406 $427 forward 7 unknown #
vertex $-1 $407 $428 #
straight-curve $-1 0 -31.223023381864035 -9.6432422536943339 -1 0 0 I I #
vertex $-1 $362 $429 #
straight-curve $-1 0 31.223023381864035 -9.6432422536943339 1 0 0 I I #
point $-1 -60.002473931580688 31.223023381864035 -9.6432422536943339 #
straight-curve $-1 -71.695303201391653 31.223023381864035 0 0 0 -1 I I #
straight-curve $-1 -71.695303201391653 -31.223023381864035 0 0 0 -1 I I #
straight-curve $-1 71.695303201391653 0 9.6432422536943339 0 1 0 I I #
point $-1 71.695303201391653 -25.80410479737326 9.6432422536943339 #
straight-curve $-1 71.695303201391653 -31.223023381864035 0 0 0 -1 I I #
point $-1 71.695303201391653 -31.223023381864035 9.6432422536943339 #
point $-1 61.184756181926844 -21.638019714608685 0.98869044169603792 #
point $-1 67.491084393605746 -21.638019714608685 0.98869044169603792 #
straight-curve $-1 -20.610502011583481 31.223023381864035 75.968444176419524 0 0 -1 I I #
point $-1 -20.610502011583481 31.223023381864035 9.6432422536943339 #
straight-curve $-1 -20.153243985791043 31.223023381864031 6.3883957461442691 -1 0 0 I I #
point $-1 -20.610502011583481 31.223023381864039 6.388395746144262 #
point $-1 -48.747624811581488 28.534939981767327 6.9551588404458267 #
point $-1 -31.865351131582685 28.534939981767327 6.9551588404458267 #
straight-curve $-1 -71.695303201391653 0 -9.6432422536943339 0 1 0 I I #
point $-1 -71.695303201391653 -31.223023381864035 -9.6432422536943339 #
point $-1 -71.695303201391653 31.223023381864035 -9.6432422536943339 #
End-of-ACIS-data 