500 0 13 0           
7 Unknown 11 ACIS 5.0 NT 24 Fri Mar 26 01:16:25 1999 
-1 9.9999999999999995e-007 1e-010 
body $-1 $13 $-1 $14 #
body $-1 $15 $-1 $16 #
body $-1 $17 $-1 $18 #
body $-1 $19 $-1 $20 #
body $-1 $21 $-1 $22 #
body $-1 $23 $-1 $24 #
body $-1 $25 $-1 $26 #
body $-1 $27 $-1 $28 #
body $-1 $29 $-1 $30 #
body $-1 $31 $-1 $32 #
body $-1 $33 $-1 $34 #
body $-1 $35 $-1 $36 #
body $-1 $37 $-1 $38 #
lump $-1 $-1 $39 $0 #
transform $-1 1 0 0 0 1 0 0 0 1 79.798577837458424 51.318324888517687 19.654509664859546 1 rotate no_reflect no_shear #
lump $-1 $-1 $40 $1 #
transform $-1 1 0 0 0 1 0 0 0 1 79.798577837458424 51.318324888517687 19.654509664859546 1 rotate no_reflect no_shear #
lump $-1 $-1 $41 $2 #
transform $-1 1 0 0 0 1 0 0 0 1 79.798577837458424 51.318324888517687 19.654509664859546 1 rotate no_reflect no_shear #
lump $-1 $-1 $42 $3 #
transform $-1 1 0 0 0 1 0 0 0 1 79.798577837458424 51.318324888517687 19.654509664859546 1 rotate no_reflect no_shear #
lump $-1 $-1 $43 $4 #
transform $-1 1 0 0 0 1 0 0 0 1 79.798577837458424 51.318324888517687 19.654509664859546 1 rotate no_reflect no_shear #
lump $-1 $-1 $44 $5 #
transform $-1 1 0 0 0 1 0 0 0 1 79.798577837458424 51.318324888517687 19.654509664859546 1 rotate no_reflect no_shear #
lump $-1 $-1 $45 $6 #
transform $-1 1 0 0 0 1 0 0 0 1 79.798577837458424 51.318324888517687 19.654509664859546 1 rotate no_reflect no_shear #
lump $-1 $-1 $46 $7 #
transform $-1 1 0 0 0 1 0 0 0 1 79.798577837458424 51.318324888517687 19.654509664859546 1 rotate no_reflect no_shear #
lump $-1 $-1 $47 $8 #
transform $-1 1 0 0 0 1 0 0 0 1 79.798577837458424 51.318324888517687 19.654509664859546 1 rotate no_reflect no_shear #
lump $-1 $-1 $48 $9 #
transform $-1 1 0 0 0 1 0 0 0 1 79.798577837458424 51.318324888517687 19.654509664859546 1 rotate no_reflect no_shear #
lump $-1 $-1 $49 $10 #
transform $-1 1 0 0 0 1 0 0 0 1 79.798577837458424 51.318324888517687 19.654509664859546 1 rotate no_reflect no_shear #
lump $-1 $-1 $50 $11 #
transform $-1 1 0 0 0 1 0 0 0 1 79.798577837458424 51.318324888517687 19.654509664859546 1 rotate no_reflect no_shear #
lump $-1 $-1 $51 $12 #
transform $-1 1 0 0 0 1 0 0 0 1 79.798577837458424 51.318324888517687 19.654509664859546 1 rotate no_reflect no_shear #
shell $-1 $-1 $-1 $52 $-1 $13 #
shell $-1 $-1 $-1 $53 $-1 $15 #
shell $-1 $-1 $-1 $54 $-1 $17 #
shell $-1 $-1 $-1 $55 $-1 $19 #
shell $-1 $-1 $-1 $56 $-1 $21 #
shell $-1 $-1 $-1 $57 $-1 $23 #
shell $-1 $-1 $-1 $58 $-1 $25 #
shell $-1 $-1 $-1 $59 $-1 $27 #
shell $-1 $-1 $-1 $60 $-1 $29 #
shell $-1 $-1 $-1 $61 $-1 $31 #
shell $-1 $-1 $-1 $62 $-1 $33 #
shell $-1 $-1 $-1 $63 $-1 $35 #
shell $-1 $-1 $-1 $64 $-1 $37 #
face $-1 $65 $66 $39 $-1 $67 forward single #
face $-1 $68 $69 $40 $-1 $70 forward single #
face $-1 $71 $72 $41 $-1 $73 reversed single #
face $-1 $74 $75 $42 $-1 $76 forward single #
face $-1 $77 $78 $43 $-1 $79 forward single #
face $-1 $80 $81 $44 $-1 $82 forward single #
face $-1 $83 $84 $45 $-1 $85 reversed single #
face $-1 $86 $87 $46 $-1 $88 forward single #
face $-1 $89 $90 $47 $-1 $91 forward single #
face $-1 $92 $93 $48 $-1 $94 forward single #
face $-1 $95 $96 $49 $-1 $97 reversed single #
face $-1 $98 $99 $50 $-1 $100 forward single #
face $-1 $101 $102 $51 $-1 $103 forward single #
face $-1 $104 $105 $39 $-1 $106 reversed single #
loop $-1 $-1 $107 $52 #
plane-surface $-1 0 0 19.654509664859546 0 0 1 1 0 0 forward_v I I I I #
face $-1 $108 $109 $40 $-1 $110 reversed single #
loop $-1 $-1 $111 $53 #
plane-surface $-1 -67.28701616028853 0 10.182915370085031 0 0 1 1 0 0 forward_v I I I I #
face $-1 $112 $113 $41 $-1 $114 reversed single #
loop $-1 $-1 $115 $54 #
plane-surface $-1 -54.775454483118637 -149.57614644131766 141.28381489801939 1 0 0 0 0.61566148304635926 -0.78801074757464917 forward_v I I I I #
face $-1 $116 $117 $42 $-1 $118 forward single #
loop $-1 $119 $120 $55 #
cone-surface $-1 -48.15172775847789 -47.94309666050345 16.653987584112354 0 0.61566148304635926 -0.78801074757464917 1.5 0 0 1 I I 0 1 1.5 forward I I I I #
face $-1 $121 $122 $43 $-1 $123 forward single #
loop $-1 $124 $125 $56 #
cone-surface $-1 -38.216137671516762 -47.94309666050345 16.653987584112354 0 0.61566148304635926 -0.78801074757464917 1.5 0 0 1 I I 0 1 1.5 forward I I I I #
face $-1 $126 $127 $44 $-1 $128 forward single #
loop $-1 $129 $130 $57 #
cone-surface $-1 -28.280547584555634 -47.94309666050345 16.653987584112354 0 0.61566148304635926 -0.78801074757464917 1.5 0 0 1 I I 0 1 1.5 forward I I I I #
face $-1 $131 $132 $45 $-1 $133 reversed single #
loop $-1 $-1 $134 $58 #
plane-surface $-1 46.679944214254661 -149.57614644131766 141.28381489801939 1 0 0 0 0.61566148304635926 -0.78801074757464917 forward_v I I I I #
face $-1 $135 $136 $46 $-1 $137 forward single #
loop $-1 $138 $139 $59 #
cone-surface $-1 53.303670938895436 -47.94309666050345 16.653987584112354 0 0.61566148304635926 -0.78801074757464917 1.5 0 0 1 I I 0 1 1.5 forward I I I I #
face $-1 $140 $141 $47 $-1 $142 forward single #
loop $-1 $143 $144 $60 #
cone-surface $-1 63.239261025856536 -47.94309666050345 16.653987584112354 0 0.61566148304635926 -0.78801074757464917 1.5 0 0 1 I I 0 1 1.5 forward I I I I #
face $-1 $145 $146 $48 $-1 $147 forward single #
loop $-1 $148 $149 $61 #
cone-surface $-1 73.174851112817692 -47.94309666050345 16.653987584112354 0 0.61566148304635926 -0.78801074757464917 1.5 0 0 1 I I 0 1 1.5 forward I I I I #
face $-1 $150 $151 $49 $-1 $152 reversed single #
loop $-1 $-1 $153 $62 #
plane-surface $-1 -19.586363785168 138.21519379577899 178.31777924075573 1 0 0 0 -0.86602541151947299 -0.49999998660252726 forward_v I I I I #
face $-1 $154 $155 $50 $-1 $156 forward single #
loop $-1 $157 $158 $63 #
cone-surface $-1 -9.8472613253666026 45.071066733751124 12.707235835859999 0 -0.86602541151947299 -0.49999998660252726 2.5 0 0 1 I I 0 1 2.5 forward I I I I #
face $-1 $159 $160 $51 $-1 $161 forward single #
loop $-1 $162 $163 $64 #
cone-surface $-1 4.7613923643354923 45.071066733751124 12.707235835859999 0 -0.86602541151947299 -0.49999998660252726 2.5 0 0 1 I I 0 1 2.5 forward I I I I #
face $-1 $164 $165 $39 $-1 $166 reversed single #
loop $-1 $-1 $167 $65 #
plane-surface $-1 0 0 -19.654509664859546 0 0 1 1 0 0 forward_v I I I I #
coedge $-1 $168 $169 $170 $171 forward $66 $-1 #
face $-1 $172 $173 $40 $-1 $174 reversed single #
loop $-1 $-1 $175 $68 #
plane-surface $-1 -67.28701616028853 0 2.375695701031443 0 0 1 1 0 0 forward_v I I I I #
coedge $-1 $176 $177 $178 $179 forward $69 $-1 #
face $-1 $180 $181 $41 $-1 $182 reversed single #
loop $-1 $-1 $183 $71 #
plane-surface $-1 -38.216137671516762 -51.318324888517679 15.519540943840497 0 -0.61566148304635926 0.78801074757464917 1 0 0 forward_v I I I I #
coedge $-1 $184 $185 $186 $187 reversed $72 $-1 #
face $-1 $-1 $188 $42 $-1 $189 forward single #
loop $-1 $190 $191 $74 #
cone-surface $-1 -48.15172775847789 -46.752381573686648 15.129941803193709 0 0.61566148304635926 -0.78801074757464917 0.75 0 0 1 I I -0.70710678118654668 0.70710678118654835 0.75 forward I I I I #
loop $-1 $-1 $192 $55 #
coedge $-1 $120 $120 $193 $194 reversed $75 $-1 #
face $-1 $-1 $195 $43 $-1 $196 forward single #
loop $-1 $197 $198 $77 #
cone-surface $-1 -38.216137671516762 -46.752381573686648 15.129941803193709 0 0.61566148304635926 -0.78801074757464917 0.75 0 0 1 I I -0.70710678118654668 0.70710678118654835 0.75 forward I I I I #
loop $-1 $-1 $199 $56 #
coedge $-1 $125 $125 $200 $201 reversed $78 $-1 #
face $-1 $-1 $202 $44 $-1 $203 forward single #
loop $-1 $204 $205 $80 #
cone-surface $-1 -28.280547584555634 -46.752381573686648 15.129941803193709 0 0.61566148304635926 -0.78801074757464917 0.75 0 0 1 I I -0.70710678118654668 0.70710678118654835 0.75 forward I I I I #
loop $-1 $-1 $206 $57 #
coedge $-1 $130 $130 $207 $208 reversed $81 $-1 #
face $-1 $209 $210 $45 $-1 $211 reversed single #
loop $-1 $-1 $212 $83 #
plane-surface $-1 63.239261025856536 -51.318324888517679 15.519540943840497 0 -0.61566148304635926 0.78801074757464917 1 0 0 forward_v I I I I #
coedge $-1 $213 $214 $215 $216 reversed $84 $-1 #
face $-1 $-1 $217 $46 $-1 $218 forward single #
loop $-1 $219 $220 $86 #
cone-surface $-1 53.303670938895436 -46.752381573686648 15.129941803193709 0 0.61566148304635926 -0.78801074757464917 0.75 0 0 1 I I -0.70710678118654668 0.70710678118654835 0.75 forward I I I I #
loop $-1 $-1 $221 $59 #
coedge $-1 $139 $139 $222 $223 reversed $87 $-1 #
face $-1 $-1 $224 $47 $-1 $225 forward single #
loop $-1 $226 $227 $89 #
cone-surface $-1 63.239261025856536 -46.752381573686648 15.129941803193709 0 0.61566148304635926 -0.78801074757464917 0.75 0 0 1 I I -0.70710678118654668 0.70710678118654835 0.75 forward I I I I #
loop $-1 $-1 $228 $60 #
coedge $-1 $144 $144 $229 $230 reversed $90 $-1 #
face $-1 $-1 $231 $48 $-1 $232 forward single #
loop $-1 $233 $234 $92 #
cone-surface $-1 73.174851112817692 -46.752381573686648 15.129941803193709 0 0.61566148304635926 -0.78801074757464917 0.75 0 0 1 I I -0.70710678118654668 0.70710678118654835 0.75 forward I I I I #
loop $-1 $-1 $235 $61 #
coedge $-1 $149 $149 $236 $237 reversed $93 $-1 #
face $-1 $238 $239 $49 $-1 $240 reversed single #
loop $-1 $-1 $241 $95 #
plane-surface $-1 -2.5429344805155552 1.3750717187122063e-006 98.519203541495841 0 0.86602541151947299 0.49999998660252726 1 0 0 forward_v I I I I #
coedge $-1 $242 $243 $244 $245 reversed $96 $-1 #
face $-1 $-1 $246 $50 $-1 $247 forward single #
loop $-1 $248 $249 $98 #
cone-surface $-1 -9.8472613253666026 40.634163265052997 10.145588515357687 0 -0.86602541151947299 -0.49999998660252726 1.25 0 0 1 I I -0.70710678118654746 0.70710678118654746 1.25 forward I I I I #
loop $-1 $-1 $250 $63 #
coedge $-1 $158 $158 $251 $252 reversed $99 $-1 #
face $-1 $-1 $253 $51 $-1 $254 forward single #
loop $-1 $255 $256 $101 #
cone-surface $-1 4.7613923643354923 40.634163265052997 10.145588515357687 0 -0.86602541151947299 -0.49999998660252726 1.25 0 0 1 I I -0.70710678118654746 0.70710678118654746 1.25 forward I I I I #
loop $-1 $-1 $257 $64 #
coedge $-1 $163 $163 $258 $259 reversed $102 $-1 #
face $-1 $260 $261 $39 $-1 $262 reversed single #
loop $-1 $-1 $263 $104 #
plane-surface $-1 0 -51.318324888517687 0 0 1 0 0 0 1 forward_v I I I I #
coedge $-1 $264 $265 $266 $267 forward $105 $-1 #
coedge $-1 $268 $107 $269 $270 forward $66 $-1 #
coedge $-1 $107 $268 $271 $272 forward $66 $-1 #
coedge $-1 $273 $274 $107 $171 reversed $275 $-1 #
edge $-1 $276 -51.318324888517687 $277 51.318324888517687 $170 $278 forward 7 unknown #
face $-1 $279 $280 $40 $-1 $281 reversed single #
loop $-1 $-1 $282 $108 #
plane-surface $-1 -54.775454483118637 0 6.2793055355582368 -1 0 0 0 0 1 forward_v I I I I #
coedge $-1 $283 $284 $285 $286 forward $109 $-1 #
coedge $-1 $287 $111 $288 $289 reversed $69 $-1 #
coedge $-1 $111 $287 $290 $291 reversed $69 $-1 #
coedge $-1 $282 $292 $111 $179 reversed $173 $-1 #
edge $-1 $293 -51.318324888517687 $294 51.318324888517687 $178 $295 forward 7 unknown #
face $-1 $296 $297 $41 $-1 $298 forward single #
loop $-1 $-1 $299 $112 #
plane-surface $-1 -21.656820859914887 -149.57614644131766 141.28381489801939 -1 0 0 0 -0.61566148304635926 0.78801074757464917 forward_v I I I I #
coedge $-1 $300 $301 $302 $303 reversed $113 $-1 #
coedge $-1 $185 $115 $304 $305 reversed $72 $-1 #
coedge $-1 $115 $184 $300 $306 reversed $72 $-1 #
coedge $-1 $302 $307 $115 $187 forward $308 $-1 #
edge $-1 $309 50.987397784150147 $310 55.122366505169204 $186 $311 forward 7 unknown #
loop $-1 $-1 $193 $116 #
plane-surface $-1 -38.216137671516762 -51.318324888517679 15.519540943840497 0 -0.61566148304635926 0.78801074757464917 1 0 0 forward_v I I I I #
loop $-1 $-1 $312 $74 #
coedge $-1 $191 $191 $192 $313 reversed $117 $-1 #
coedge $-1 $192 $192 $191 $313 forward $119 $-1 #
coedge $-1 $193 $193 $120 $194 forward $188 $-1 #
edge $-1 $314 0 $314 6.2831853071796004 $193 $315 forward 7 unknown #
loop $-1 $-1 $200 $121 #
plane-surface $-1 -38.216137671516762 -51.318324888517679 15.519540943840497 0 -0.61566148304635926 0.78801074757464917 1 0 0 forward_v I I I I #
loop $-1 $-1 $316 $77 #
coedge $-1 $198 $198 $199 $317 reversed $122 $-1 #
coedge $-1 $199 $199 $198 $317 forward $124 $-1 #
coedge $-1 $200 $200 $125 $201 forward $195 $-1 #
edge $-1 $318 0 $318 6.2831853071796004 $200 $319 forward 7 unknown #
loop $-1 $-1 $207 $126 #
plane-surface $-1 -38.216137671516762 -51.318324888517679 15.519540943840497 0 -0.61566148304635926 0.78801074757464917 1 0 0 forward_v I I I I #
loop $-1 $-1 $320 $80 #
coedge $-1 $205 $205 $206 $321 reversed $127 $-1 #
coedge $-1 $206 $206 $205 $321 forward $129 $-1 #
coedge $-1 $207 $207 $130 $208 forward $202 $-1 #
edge $-1 $322 0 $322 6.2831853071796004 $207 $323 forward 7 unknown #
face $-1 $324 $325 $45 $-1 $326 forward single #
loop $-1 $-1 $215 $131 #
plane-surface $-1 0 -51.318324888517687 0 0 1 0 0 0 1 forward_v I I I I #
coedge $-1 $327 $328 $329 $330 reversed $132 $-1 #
coedge $-1 $214 $134 $331 $332 reversed $84 $-1 #
coedge $-1 $134 $213 $327 $333 reversed $84 $-1 #
coedge $-1 $329 $334 $134 $216 forward $210 $-1 #
edge $-1 $335 50.987397784150147 $336 55.122366505169204 $215 $337 forward 7 unknown #
loop $-1 $-1 $222 $135 #
plane-surface $-1 63.239261025856536 -51.318324888517679 15.519540943840497 0 -0.61566148304635926 0.78801074757464917 1 0 0 forward_v I I I I #
loop $-1 $-1 $338 $86 #
coedge $-1 $220 $220 $221 $339 reversed $136 $-1 #
coedge $-1 $221 $221 $220 $339 forward $138 $-1 #
coedge $-1 $222 $222 $139 $223 forward $217 $-1 #
edge $-1 $340 0 $340 6.2831853071796004 $222 $341 forward 7 unknown #
loop $-1 $-1 $229 $140 #
plane-surface $-1 63.239261025856536 -51.318324888517679 15.519540943840497 0 -0.61566148304635926 0.78801074757464917 1 0 0 forward_v I I I I #
loop $-1 $-1 $342 $89 #
coedge $-1 $227 $227 $228 $343 reversed $141 $-1 #
coedge $-1 $228 $228 $227 $343 forward $143 $-1 #
coedge $-1 $229 $229 $144 $230 forward $224 $-1 #
edge $-1 $344 0 $344 6.2831853071796004 $229 $345 forward 7 unknown #
loop $-1 $-1 $236 $145 #
plane-surface $-1 63.239261025856536 -51.318324888517679 15.519540943840497 0 -0.61566148304635926 0.78801074757464917 1 0 0 forward_v I I I I #
loop $-1 $-1 $346 $92 #
coedge $-1 $234 $234 $235 $347 reversed $146 $-1 #
coedge $-1 $235 $235 $234 $347 forward $148 $-1 #
coedge $-1 $236 $236 $149 $237 forward $231 $-1 #
edge $-1 $348 0 $348 6.2831853071796004 $236 $349 forward 7 unknown #
face $-1 $350 $351 $49 $-1 $352 reversed single #
loop $-1 $-1 $353 $150 #
plane-surface $-1 14.50049482413689 138.21519379577899 178.31777924075573 -1 0 0 0 0.86602541151947299 0.49999998660252726 forward_v I I I I #
coedge $-1 $354 $355 $356 $357 reversed $151 $-1 #
coedge $-1 $243 $153 $358 $359 reversed $96 $-1 #
coedge $-1 $153 $242 $354 $360 reversed $96 $-1 #
coedge $-1 $356 $361 $153 $245 forward $362 $-1 #
edge $-1 $363 17.789272009371807 $364 23.575044910307362 $244 $365 forward 7 unknown #
loop $-1 $-1 $251 $154 #
plane-surface $-1 -2.5429344805155552 1.3750717187122063e-006 98.519203541495841 0 0.86602541151947299 0.49999998660252726 1 0 0 forward_v I I I I #
loop $-1 $-1 $366 $98 #
coedge $-1 $249 $249 $250 $367 reversed $155 $-1 #
coedge $-1 $250 $250 $249 $367 forward $157 $-1 #
coedge $-1 $251 $251 $158 $252 forward $246 $-1 #
edge $-1 $368 -6.1534806513881298e-016 $368 6.2831853071795996 $251 $369 forward 7 unknown #
loop $-1 $-1 $258 $159 #
plane-surface $-1 -2.5429344805155552 1.3750717187122063e-006 98.519203541495841 0 0.86602541151947299 0.49999998660252726 1 0 0 forward_v I I I I #
loop $-1 $-1 $370 $101 #
coedge $-1 $256 $256 $257 $371 reversed $160 $-1 #
coedge $-1 $257 $257 $256 $371 forward $162 $-1 #
coedge $-1 $258 $258 $163 $259 forward $253 $-1 #
edge $-1 $372 -6.1534806513881298e-016 $372 6.2831853071795996 $258 $373 forward 7 unknown #
face $-1 $374 $375 $39 $-1 $376 reversed single #
loop $-1 $-1 $377 $164 #
plane-surface $-1 -79.798577837458424 0 0 1 0 0 0 0 -1 forward_v I I I I #
coedge $-1 $378 $271 $379 $380 forward $165 $-1 #
coedge $-1 $381 $167 $378 $382 forward $105 $-1 #
coedge $-1 $167 $381 $383 $384 forward $105 $-1 #
coedge $-1 $274 $273 $167 $267 reversed $275 $-1 #
edge $-1 $385 -51.318324888517687 $386 51.318324888517687 $266 $387 forward 7 unknown #
coedge $-1 $169 $168 $388 $389 forward $66 $-1 #
coedge $-1 $390 $391 $168 $270 reversed $375 $-1 #
edge $-1 $277 -79.798577837458424 $392 79.798577837458424 $269 $393 forward 7 unknown #
coedge $-1 $263 $394 $169 $272 reversed $165 $-1 #
edge $-1 $395 -79.798577837458424 $276 79.798577837458424 $271 $396 forward 7 unknown #
coedge $-1 $266 $170 $394 $397 forward $275 $-1 #
coedge $-1 $170 $266 $390 $398 reversed $275 $-1 #
loop $-1 $-1 $273 $374 #
vertex $-1 $171 $399 #
vertex $-1 $171 $400 #
straight-curve $-1 79.798577837458424 0 19.654509664859546 0 1 0 I I #
face $-1 $401 $402 $40 $-1 $403 reversed single #
loop $-1 $-1 $404 $172 #
plane-surface $-1 0 -51.318324888517687 0 0 1 0 0 0 1 forward_v I I I I #
coedge $-1 $285 $178 $405 $406 reversed $173 $-1 #
coedge $-1 $407 $175 $404 $408 reversed $109 $-1 #
coedge $-1 $175 $407 $409 $410 reversed $109 $-1 #
coedge $-1 $292 $282 $175 $286 reversed $173 $-1 #
edge $-1 $411 -51.318324888517687 $412 51.318324888517687 $285 $413 forward 7 unknown #
coedge $-1 $177 $176 $414 $415 reversed $69 $-1 #
coedge $-1 $416 $417 $176 $289 forward $418 $-1 #
edge $-1 $419 -46.155069757314159 $294 -21.131946402974371 $288 $420 forward 7 unknown #
coedge $-1 $421 $405 $177 $291 forward $280 $-1 #
edge $-1 $293 21.131946402974371 $422 46.155069757314159 $290 $423 forward 7 unknown #
coedge $-1 $178 $285 $416 $424 reversed $173 $-1 #
vertex $-1 $291 $425 #
vertex $-1 $289 $426 #
straight-curve $-1 -54.775454483118637 0 10.182915370085031 0 1 0 I I #
face $-1 $-1 $308 $41 $-1 $427 reversed single #
loop $-1 $-1 $428 $180 #
plane-surface $-1 0 0 19.654509664859546 0 0 1 1 0 0 forward_v I I I I #
coedge $-1 $429 $430 $431 $432 reversed $181 $-1 #
coedge $-1 $433 $183 $185 $306 forward $113 $-1 #
coedge $-1 $183 $433 $429 $434 forward $113 $-1 #
coedge $-1 $431 $186 $183 $303 forward $308 $-1 #
edge $-1 $310 -35.667385647360256 $435 -2.5487520241565065 $302 $436 forward 7 unknown #
coedge $-1 $437 $438 $184 $305 forward $297 $-1 #
edge $-1 $439 -28.762266839105564 $309 -23.469748332141144 $304 $440 forward 7 unknown #
edge $-1 $310 -8.8800565823946346e-015 $439 6.7163024403585876 $185 $441 forward 7 unknown #
coedge $-1 $186 $431 $437 $442 reversed $308 $-1 #
loop $-1 $-1 $431 $296 #
vertex $-1 $442 $443 #
vertex $-1 $187 $444 #
straight-curve $-1 -54.775454483118637 -51.318324888517687 70.641907449009693 0 0 -1 I I #
coedge $-1 $312 $312 $-1 $445 reversed $190 $-1 #
edge $-1 $446 0 $446 6.2831853071796004 $191 $447 forward 7 unknown #
vertex $-1 $194 $448 #
ellipse-curve $-1 -48.15172775847789 -48.67206563503548 17.587025304350014 0 -0.61566148304635926 0.78801074757464917 1.5 0 0 1 I I #
coedge $-1 $316 $316 $-1 $449 reversed $197 $-1 #
edge $-1 $450 0 $450 6.2831853071796004 $198 $451 forward 7 unknown #
vertex $-1 $201 $452 #
ellipse-curve $-1 -38.216137671516762 -48.67206563503548 17.587025304350014 0 -0.61566148304635926 0.78801074757464917 1.5 0 0 1 I I #
coedge $-1 $320 $320 $-1 $453 reversed $204 $-1 #
edge $-1 $454 0 $454 6.2831853071796004 $205 $455 forward 7 unknown #
vertex $-1 $208 $456 #
ellipse-curve $-1 -28.280547584555634 -48.67206563503548 17.587025304350014 0 -0.61566148304635926 0.78801074757464917 1.5 0 0 1 I I #
face $-1 $-1 $457 $45 $-1 $458 reversed single #
loop $-1 $-1 $331 $209 #
plane-surface $-1 0 0 19.654509664859546 0 0 1 1 0 0 forward_v I I I I #
coedge $-1 $459 $212 $214 $333 forward $132 $-1 #
coedge $-1 $212 $459 $460 $461 reversed $132 $-1 #
coedge $-1 $462 $215 $212 $330 forward $210 $-1 #
edge $-1 $336 15.060313701326393 $463 48.178947324530142 $329 $464 forward 7 unknown #
coedge $-1 $465 $466 $213 $332 forward $325 $-1 #
edge $-1 $467 -28.762266839105564 $335 -23.469748332141144 $331 $468 forward 7 unknown #
edge $-1 $336 -8.8800565823946346e-015 $467 6.7163024403585876 $214 $469 forward 7 unknown #
coedge $-1 $215 $462 $465 $470 reversed $210 $-1 #
vertex $-1 $470 $471 #
vertex $-1 $216 $472 #
straight-curve $-1 46.679944214254661 -51.318324888517687 70.641907449009693 0 0 -1 I I #
coedge $-1 $338 $338 $-1 $473 reversed $219 $-1 #
edge $-1 $474 0 $474 6.2831853071796004 $220 $475 forward 7 unknown #
vertex $-1 $223 $476 #
ellipse-curve $-1 53.303670938895436 -48.67206563503548 17.587025304350014 0 -0.61566148304635926 0.78801074757464917 1.5 0 0 1 I I #
coedge $-1 $342 $342 $-1 $477 reversed $226 $-1 #
edge $-1 $478 0 $478 6.2831853071796004 $227 $479 forward 7 unknown #
vertex $-1 $230 $480 #
ellipse-curve $-1 63.239261025856536 -48.67206563503548 17.587025304350014 0 -0.61566148304635926 0.78801074757464917 1.5 0 0 1 I I #
coedge $-1 $346 $346 $-1 $481 reversed $233 $-1 #
edge $-1 $482 0 $482 6.2831853071796004 $234 $483 forward 7 unknown #
vertex $-1 $237 $484 #
ellipse-curve $-1 73.174851112817692 -48.67206563503548 17.587025304350014 0 -0.61566148304635926 0.78801074757464917 1.5 0 0 1 I I #
face $-1 $-1 $362 $49 $-1 $485 forward single #
loop $-1 $-1 $486 $238 #
plane-surface $-1 0 51.318324888517687 0 0 -1 0 0 0 -1 forward_v I I I I #
coedge $-1 $487 $488 $489 $490 reversed $239 $-1 #
coedge $-1 $491 $241 $243 $360 forward $151 $-1 #
coedge $-1 $241 $491 $487 $492 forward $151 $-1 #
coedge $-1 $489 $244 $241 $357 forward $362 $-1 #
edge $-1 $364 -18.314896544910223 $493 15.771962064394668 $356 $494 forward 7 unknown #
coedge $-1 $495 $496 $242 $359 forward $351 $-1 #
edge $-1 $497 -79.525632939019104 $363 -69.504379955518317 $358 $498 forward 7 unknown #
edge $-1 $364 91.065103665105312 $497 102.63664977703536 $243 $499 forward 7 unknown #
coedge $-1 $244 $489 $495 $500 forward $362 $-1 #
loop $-1 $-1 $489 $350 #
vertex $-1 $359 $501 #
vertex $-1 $245 $502 #
straight-curve $-1 -19.586363785168 69.107596897889493 19.654509664859546 0 -1 0 I I #
coedge $-1 $366 $366 $-1 $503 reversed $248 $-1 #
edge $-1 $504 0 $504 6.2831853071796004 $249 $505 forward 7 unknown #
vertex $-1 $252 $506 #
ellipse-curve $-1 -9.8472613253666026 48.425438438049909 14.643883173109151 0 0.86602541151947299 0.49999998660252726 2.5 0 0 1 I I #
coedge $-1 $370 $370 $-1 $507 reversed $255 $-1 #
edge $-1 $508 0 $508 6.2831853071796004 $256 $509 forward 7 unknown #
vertex $-1 $259 $510 #
ellipse-curve $-1 4.7613923643354923 48.425438438049909 14.643883173109151 0 0.86602541151947299 0.49999998660252726 2.5 0 0 1 I I #
face $-1 $-1 $275 $39 $-1 $511 reversed single #
loop $-1 $-1 $390 $260 #
plane-surface $-1 0 51.318324888517687 0 0 -1 0 0 0 -1 forward_v I I I I #
coedge $-1 $512 $388 $391 $513 forward $261 $-1 #
coedge $-1 $394 $263 $264 $382 reversed $165 $-1 #
coedge $-1 $388 $512 $263 $380 reversed $261 $-1 #
edge $-1 $395 -19.654509664859546 $514 19.654509664859546 $379 $515 forward 7 unknown #
coedge $-1 $265 $264 $512 $516 forward $105 $-1 #
edge $-1 $386 -79.798577837458424 $514 79.798577837458424 $378 $517 forward 7 unknown #
coedge $-1 $391 $390 $265 $384 reversed $375 $-1 #
edge $-1 $518 -79.798577837458424 $385 79.798577837458424 $383 $519 forward 7 unknown #
vertex $-1 $267 $520 #
vertex $-1 $397 $521 #
straight-curve $-1 79.798577837458424 0 -19.654509664859546 0 -1 0 I I #
coedge $-1 $377 $379 $268 $389 reversed $261 $-1 #
edge $-1 $392 -51.318324888517687 $395 51.318324888517687 $388 $522 forward 7 unknown #
coedge $-1 $383 $269 $274 $398 forward $375 $-1 #
coedge $-1 $269 $383 $377 $513 reversed $375 $-1 #
vertex $-1 $270 $523 #
straight-curve $-1 0 51.318324888517687 19.654509664859546 -1 0 0 I I #
coedge $-1 $271 $378 $273 $397 reversed $165 $-1 #
vertex $-1 $389 $524 #
straight-curve $-1 0 -51.318324888517687 19.654509664859546 1 0 0 I I #
edge $-1 $276 -19.654509664859546 $386 19.654509664859546 $273 $525 forward 7 unknown #
edge $-1 $277 -19.654509664859546 $385 19.654509664859546 $274 $526 forward 7 unknown #
point $-1 79.798577837458424 -51.318324888517687 19.654509664859546 #
point $-1 79.798577837458424 51.318324888517687 19.654509664859546 #
face $-1 $-1 $418 $40 $-1 $527 reversed single #
loop $-1 $-1 $528 $279 #
plane-surface $-1 -79.798577837458424 0 0 1 0 0 0 0 -1 forward_v I I I I #
coedge $-1 $405 $421 $283 $408 forward $280 $-1 #
coedge $-1 $290 $404 $282 $406 forward $280 $-1 #
edge $-1 $412 -0.76395706674767538 $293 7.0432626023059122 $405 $529 forward 7 unknown #
coedge $-1 $284 $283 $528 $530 reversed $109 $-1 #
edge $-1 $531 -46.155069757314159 $412 -21.131946402974371 $404 $532 forward 7 unknown #
coedge $-1 $417 $416 $284 $410 forward $418 $-1 #
edge $-1 $411 21.131946402974371 $533 46.155069757314159 $409 $534 forward 7 unknown #
vertex $-1 $410 $535 #
vertex $-1 $408 $536 #
straight-curve $-1 -54.775454483118637 0 2.375695701031443 0 -1 0 I I #
coedge $-1 $537 $538 $287 $415 forward $402 $-1 #
edge $-1 $422 -51.318324888517687 $419 51.318324888517687 $414 $539 forward 7 unknown #
coedge $-1 $409 $288 $292 $424 forward $418 $-1 #
coedge $-1 $288 $409 $537 $540 reversed $418 $-1 #
loop $-1 $-1 $409 $401 #
vertex $-1 $540 $541 #
straight-curve $-1 -33.643508080144265 51.318324888517687 10.182915370085031 1 0 0 I I #
coedge $-1 $404 $290 $538 $542 forward $280 $-1 #
vertex $-1 $542 $543 #
straight-curve $-1 -33.643508080144265 -51.318324888517687 10.182915370085031 -1 0 0 I I #
edge $-1 $294 -7.0432626023059122 $411 0.76395706674767538 $416 $544 forward 7 unknown #
point $-1 -54.775454483118637 -51.318324888517687 10.182915370085031 #
point $-1 -54.775454483118637 51.318324888517687 10.182915370085031 #
plane-surface $-1 0 -51.318324888517687 0 0 1 0 0 0 1 forward_v I I I I #
coedge $-1 $438 $437 $430 $545 forward $297 $-1 #
coedge $-1 $430 $299 $301 $434 reversed $181 $-1 #
coedge $-1 $299 $429 $428 $545 reversed $181 $-1 #
coedge $-1 $307 $302 $299 $432 forward $308 $-1 #
edge $-1 $435 -55.122366505169204 $546 -50.987397784150147 $431 $547 forward 7 unknown #
coedge $-1 $301 $300 $438 $548 reversed $113 $-1 #
edge $-1 $549 -6.7163024403585876 $435 8.8800565823946346e-015 $429 $550 forward 7 unknown #
vertex $-1 $303 $551 #
straight-curve $-1 -19.108068835758381 -51.318324888517687 15.519540943840489 1 0 0 I I #
coedge $-1 $428 $304 $307 $442 forward $297 $-1 #
coedge $-1 $304 $428 $433 $548 forward $297 $-1 #
vertex $-1 $305 $552 #
straight-curve $-1 -54.775454483118637 -74.788073220658831 19.654509664859546 0 -1 0 I I #
straight-curve $-1 -54.775454483118637 -51.318324888517679 15.519540943840497 0 0.78801074757464917 0.61566148304635926 I I #
edge $-1 $309 -54.775454483118637 $546 -21.656820859914887 $307 $553 forward 7 unknown #
point $-1 -54.775454483118637 -51.318324888517687 19.654509664859546 #
point $-1 -54.775454483118637 -51.318324888517687 15.519540943840491 #
edge $-1 $554 1 $554 0 $312 $-1 forward 7 unknown #
vertex $-1 $313 $555 #
ellipse-curve $-1 -48.15172775847789 -47.21412768597142 15.720949863874697 0 -0.61566148304635926 0.78801074757464917 1.5 0 0 1 I I #
point $-1 -46.65172775847789 -48.67206563503548 17.587025304350014 #
edge $-1 $556 1 $556 0 $316 $-1 forward 7 unknown #
vertex $-1 $317 $557 #
ellipse-curve $-1 -38.216137671516762 -47.21412768597142 15.720949863874697 0 -0.61566148304635926 0.78801074757464917 1.5 0 0 1 I I #
point $-1 -36.716137671516762 -48.67206563503548 17.587025304350014 #
edge $-1 $558 1 $558 0 $320 $-1 forward 7 unknown #
vertex $-1 $321 $559 #
ellipse-curve $-1 -28.280547584555634 -47.21412768597142 15.720949863874697 0 -0.61566148304635926 0.78801074757464917 1.5 0 0 1 I I #
point $-1 -26.780547584555634 -48.67206563503548 17.587025304350014 #
loop $-1 $-1 $460 $324 #
plane-surface $-1 79.798577837458424 0 0 -1 0 0 0 0 1 forward_v I I I I #
coedge $-1 $328 $327 $466 $560 reversed $132 $-1 #
coedge $-1 $561 $562 $328 $461 forward $457 $-1 #
edge $-1 $463 -15.442303982998013 $563 -8.7260015426394162 $460 $564 forward 7 unknown #
coedge $-1 $334 $329 $562 $565 reversed $210 $-1 #
vertex $-1 $330 $566 #
straight-curve $-1 31.619630512928268 -51.318324888517687 15.519540943840489 1 0 0 I I #
coedge $-1 $567 $331 $334 $470 forward $325 $-1 #
coedge $-1 $331 $567 $459 $560 forward $325 $-1 #
vertex $-1 $332 $568 #
straight-curve $-1 46.679944214254661 -74.788073220658831 19.654509664859546 0 -1 0 I I #
straight-curve $-1 46.679944214254661 -51.318324888517679 15.519540943840497 0 0.78801074757464917 0.61566148304635926 I I #
edge $-1 $335 46.679944214254661 $569 79.798577837458424 $334 $570 forward 7 unknown #
point $-1 46.679944214254661 -51.318324888517687 19.654509664859546 #
point $-1 46.679944214254661 -51.318324888517687 15.519540943840491 #
edge $-1 $571 1 $571 0 $338 $-1 forward 7 unknown #
vertex $-1 $339 $572 #
ellipse-curve $-1 53.303670938895436 -47.21412768597142 15.720949863874697 0 -0.61566148304635926 0.78801074757464917 1.5 0 0 1 I I #
point $-1 54.803670938895436 -48.67206563503548 17.587025304350014 #
edge $-1 $573 1 $573 0 $342 $-1 forward 7 unknown #
vertex $-1 $343 $574 #
ellipse-curve $-1 63.239261025856536 -47.21412768597142 15.720949863874697 0 -0.61566148304635926 0.78801074757464917 1.5 0 0 1 I I #
point $-1 64.739261025856536 -48.67206563503548 17.587025304350014 #
edge $-1 $575 1 $575 0 $346 $-1 forward 7 unknown #
vertex $-1 $347 $576 #
ellipse-curve $-1 73.174851112817692 -47.21412768597142 15.720949863874697 0 -0.61566148304635926 0.78801074757464917 1.5 0 0 1 I I #
point $-1 74.674851112817692 -48.67206563503548 17.587025304350014 #
plane-surface $-1 0 0 19.654509664859546 0 0 1 1 0 0 forward_v I I I I #
coedge $-1 $496 $495 $488 $577 forward $351 $-1 #
coedge $-1 $488 $353 $355 $492 reversed $239 $-1 #
coedge $-1 $353 $487 $486 $577 reversed $239 $-1 #
coedge $-1 $361 $356 $353 $490 forward $362 $-1 #
edge $-1 $493 -23.575044910307362 $578 -17.789272009371807 $489 $579 forward 7 unknown #
coedge $-1 $355 $354 $496 $580 reversed $151 $-1 #
edge $-1 $581 -102.63664977703536 $493 -91.065103665105312 $487 $582 forward 7 unknown #
vertex $-1 $357 $583 #
straight-curve $-1 -1.2714672402577776 45.532551987582124 19.654509664859546 1 0 0 I I #
coedge $-1 $486 $358 $361 $500 reversed $351 $-1 #
coedge $-1 $358 $486 $491 $580 forward $351 $-1 #
vertex $-1 $359 $584 #
straight-curve $-1 -19.586363785168 51.318324888517687 89.158889620377863 0 0 1 I I #
straight-curve $-1 -19.586363785168 1.3750717187122063e-006 98.519203541495841 0 0.49999998660252726 -0.86602541151947299 I I #
edge $-1 $578 -14.50049482413689 $363 19.586363785168 $495 $585 forward 7 unknown #
point $-1 -19.586363785168 51.318324888517687 19.654509664859546 #
point $-1 -19.586363785168 45.532551987582131 19.654509664859546 #
edge $-1 $586 1 $586 0 $366 $-1 forward 7 unknown #
vertex $-1 $367 $587 #
ellipse-curve $-1 -9.8472613253666026 41.716695029452339 10.770588498610847 0 0.86602541151947299 0.49999998660252726 2.5 0 0 1 I I #
point $-1 -7.3472613253666026 48.425438438049909 14.643883173109153 #
edge $-1 $588 1 $588 0 $370 $-1 forward 7 unknown #
vertex $-1 $371 $589 #
ellipse-curve $-1 4.7613923643354923 41.716695029452339 10.770588498610847 0 0.86602541151947299 0.49999998660252726 2.5 0 0 1 I I #
point $-1 7.2613923643354923 48.425438438049909 14.643883173109153 #
plane-surface $-1 79.798577837458424 0 0 -1 0 0 0 0 1 forward_v I I I I #
coedge $-1 $379 $377 $381 $516 reversed $261 $-1 #
edge $-1 $392 -19.654509664859546 $518 19.654509664859546 $391 $590 forward 7 unknown #
vertex $-1 $516 $591 #
straight-curve $-1 -79.798577837458424 -51.318324888517687 0 0 0 -1 I I #
edge $-1 $514 -51.318324888517687 $518 51.318324888517687 $512 $592 forward 7 unknown #
straight-curve $-1 0 -51.318324888517687 -19.654509664859546 -1 0 0 I I #
vertex $-1 $384 $593 #
straight-curve $-1 0 51.318324888517687 -19.654509664859546 1 0 0 I I #
point $-1 79.798577837458424 51.318324888517687 -19.654509664859546 #
point $-1 79.798577837458424 -51.318324888517687 -19.654509664859546 #
straight-curve $-1 -79.798577837458424 0 19.654509664859546 0 -1 0 I I #
point $-1 -79.798577837458424 51.318324888517687 19.654509664859546 #
point $-1 -79.798577837458424 -51.318324888517687 19.654509664859546 #
straight-curve $-1 79.798577837458424 -51.318324888517687 0 0 0 -1 I I #
straight-curve $-1 79.798577837458424 51.318324888517687 0 0 0 -1 I I #
plane-surface $-1 0 51.318324888517687 0 0 -1 0 0 0 -1 forward_v I I I I #
coedge $-1 $538 $537 $407 $530 forward $402 $-1 #
straight-curve $-1 -54.775454483118637 -51.318324888517687 3.1396527677791184 0 0 1 I I #
edge $-1 $533 -51.318324888517687 $531 51.318324888517687 $528 $594 forward 7 unknown #
vertex $-1 $408 $595 #
straight-curve $-1 -33.643508080144265 -51.318324888517687 2.375695701031443 1 0 0 I I #
vertex $-1 $410 $596 #
straight-curve $-1 -33.643508080144265 51.318324888517687 2.375695701031443 -1 0 0 I I #
point $-1 -54.775454483118637 51.318324888517687 2.375695701031443 #
point $-1 -54.775454483118637 -51.318324888517687 2.375695701031443 #
coedge $-1 $528 $414 $417 $540 forward $402 $-1 #
coedge $-1 $414 $528 $421 $542 reversed $402 $-1 #
straight-curve $-1 -79.798577837458424 0 10.182915370085031 0 1 0 I I #
edge $-1 $419 -10.182915370085031 $533 -2.375695701031443 $417 $597 forward 7 unknown #
point $-1 -79.798577837458424 51.318324888517687 10.182915370085031 #
edge $-1 $422 -10.182915370085031 $531 -2.375695701031443 $538 $598 forward 7 unknown #
point $-1 -79.798577837458424 -51.318324888517687 10.182915370085031 #
straight-curve $-1 -54.775454483118637 51.318324888517687 3.1396527677791184 0 0 -1 I I #
edge $-1 $546 23.469748332141144 $549 28.762266839105564 $428 $599 forward 7 unknown #
vertex $-1 $545 $600 #
straight-curve $-1 -21.656820859914887 -51.318324888517687 70.641907449009693 0 0 1 I I #
edge $-1 $549 2.5487520241565065 $439 35.667385647360256 $438 $601 forward 7 unknown #
vertex $-1 $548 $602 #
straight-curve $-1 -21.656820859914887 -51.318324888517679 15.519540943840497 0 -0.78801074757464917 -0.61566148304635926 I I #
point $-1 -21.656820859914887 -51.318324888517687 15.519540943840491 #
point $-1 -54.775454483118637 -46.025806381553267 19.654509664859546 #
straight-curve $-1 0 -51.318324888517687 19.654509664859546 1 0 0 I I #
vertex $-1 $445 $603 #
point $-1 -46.65172775847789 -47.21412768597142 15.720949863874697 #
vertex $-1 $449 $604 #
point $-1 -36.716137671516762 -47.21412768597142 15.720949863874697 #
vertex $-1 $453 $605 #
point $-1 -26.780547584555634 -47.21412768597142 15.720949863874697 #
edge $-1 $563 -48.178947324530142 $467 -15.060313701326393 $466 $606 forward 7 unknown #
coedge $-1 $562 $460 $567 $607 reversed $457 $-1 #
coedge $-1 $460 $561 $462 $565 forward $457 $-1 #
vertex $-1 $461 $608 #
straight-curve $-1 79.798577837458424 -39.149623382600439 25.026772715665746 0 0.78801074757464917 0.61566148304635926 I I #
edge $-1 $569 -19.654509664859546 $463 -15.519540943840491 $562 $609 forward 7 unknown #
point $-1 79.79857783745841 -51.318324888517687 15.519540943840491 #
coedge $-1 $466 $465 $561 $607 forward $325 $-1 #
point $-1 46.679944214254661 -46.025806381553267 19.654509664859546 #
vertex $-1 $607 $610 #
straight-curve $-1 0 -51.318324888517687 19.654509664859546 1 0 0 I I #
vertex $-1 $473 $611 #
point $-1 54.803670938895436 -47.21412768597142 15.720949863874697 #
vertex $-1 $477 $612 #
point $-1 64.739261025856536 -47.21412768597142 15.720949863874697 #
vertex $-1 $481 $613 #
point $-1 74.674851112817692 -47.21412768597142 15.720949863874697 #
edge $-1 $578 69.504379955518317 $581 79.525632939019104 $486 $614 forward 7 unknown #
vertex $-1 $500 $615 #
straight-curve $-1 14.50049482413689 69.107596897889493 19.654509664859546 0 1 0 I I #
edge $-1 $581 -15.771962064394668 $497 18.314896544910223 $496 $616 forward 7 unknown #
vertex $-1 $580 $617 #
straight-curve $-1 14.50049482413689 1.3750717187122063e-006 98.519203541495841 0 -0.49999998660252726 0.86602541151947299 I I #
point $-1 14.50049482413689 45.532551987582131 19.654509664859546 #
point $-1 -19.586363785168 51.318324888517687 9.633256681358759 #
straight-curve $-1 0 51.318324888517687 19.654509664859546 -1 0 0 I I #
vertex $-1 $503 $618 #
point $-1 -7.3472613253666026 41.716695029452339 10.770588498610847 #
vertex $-1 $507 $619 #
point $-1 7.2613923643354923 41.716695029452339 10.770588498610847 #
straight-curve $-1 -79.798577837458424 51.318324888517687 0 0 0 -1 I I #
point $-1 -79.798577837458424 -51.318324888517687 -19.654509664859546 #
straight-curve $-1 -79.798577837458424 0 -19.654509664859546 0 1 0 I I #
point $-1 -79.798577837458424 51.318324888517687 -19.654509664859546 #
straight-curve $-1 -79.798577837458424 0 2.375695701031443 0 -1 0 I I #
point $-1 -79.798577837458424 -51.318324888517687 2.375695701031443 #
point $-1 -79.798577837458424 51.318324888517687 2.375695701031443 #
straight-curve $-1 -79.798577837458424 51.318324888517687 0 0 0 -1 I I #
straight-curve $-1 -79.798577837458424 -51.318324888517687 0 0 0 -1 I I #
straight-curve $-1 -21.656820859914887 -74.788073220658831 19.654509664859546 0 1 0 I I #
point $-1 -21.656820859914887 -51.318324888517687 19.654509664859546 #
straight-curve $-1 -19.108068835758381 -46.025806381553267 19.654509664859546 -1 0 0 I I #
point $-1 -21.656820859914887 -46.025806381553267 19.654509664859546 #
point $-1 -48.15172775847789 -46.290635461401877 14.538933742512722 #
point $-1 -38.216137671516762 -46.290635461401877 14.538933742512722 #
point $-1 -28.280547584555634 -46.290635461401877 14.538933742512722 #
straight-curve $-1 31.619630512928268 -46.025806381553267 19.654509664859546 -1 0 0 I I #
edge $-1 $569 -51.318324888517687 $563 -46.025806381553267 $561 $620 forward 7 unknown #
point $-1 79.79857783745841 -46.025806381553267 19.654509664859546 #
straight-curve $-1 79.798577837458424 -51.318324888517687 0 0 0 -1 I I #
point $-1 79.798577837458424 -51.318324888517687 19.654509664859546 #
point $-1 53.303670938895436 -46.290635461401877 14.538933742512722 #
point $-1 63.239261025856536 -46.290635461401877 14.538933742512722 #
point $-1 73.174851112817692 -46.290635461401877 14.538933742512722 #
straight-curve $-1 14.50049482413689 51.318324888517687 89.158889620377863 0 0 -1 I I #
point $-1 14.50049482413689 51.318324888517687 19.654509664859546 #
straight-curve $-1 -1.2714672402577776 51.318324888517687 9.633256681358759 -1 0 0 I I #
point $-1 14.50049482413689 51.318324888517687 9.633256681358759 #
point $-1 -9.8472613253666026 39.551631500653656 9.5205885321045276 #
point $-1 4.7613923643354923 39.551631500653656 9.5205885321045276 #
straight-curve $-1 79.798577837458424 0 19.654509664859546 0 1 0 I I #
End-of-ACIS-data 