500 0 8 0           
7 Unknown 11 ACIS 5.0 NT 24 Fri Mar 26 15:52:34 1999 
-1 9.9999999999999995e-007 1e-010 
body $-1 $8 $-1 $9 #
body $-1 $10 $-1 $11 #
body $-1 $12 $-1 $13 #
body $-1 $14 $-1 $15 #
body $-1 $16 $-1 $17 #
body $-1 $18 $-1 $19 #
body $-1 $20 $-1 $21 #
body $-1 $22 $-1 $23 #
lump $-1 $-1 $24 $0 #
transform $-1 1 0 0 0 1 0 0 0 1 43.245948667867061 19.83873415313915 5.6876446579792006 1 rotate no_reflect no_shear #
lump $-1 $-1 $25 $1 #
transform $-1 1 0 0 0 1 0 0 0 1 43.245948667867061 19.83873415313915 5.6876446579792006 1 rotate no_reflect no_shear #
lump $-1 $-1 $26 $2 #
transform $-1 1 0 0 0 1 0 0 0 1 43.245948667867061 19.83873415313915 5.6876446579792006 1 rotate no_reflect no_shear #
lump $-1 $-1 $27 $3 #
transform $-1 1 0 0 0 1 0 0 0 1 43.245948667867061 19.83873415313915 5.6876446579792006 1 rotate no_reflect no_shear #
lump $-1 $-1 $28 $4 #
transform $-1 1 0 0 0 1 0 0 0 1 43.245948667867061 19.83873415313915 5.6876446579792006 1 rotate no_reflect no_shear #
lump $-1 $-1 $29 $5 #
transform $-1 1 0 0 0 1 0 0 0 1 43.245948667867061 19.83873415313915 5.6876446579792006 1 rotate no_reflect no_shear #
lump $-1 $-1 $30 $6 #
transform $-1 1 0 0 0 1 0 0 0 1 43.245948667867061 19.83873415313915 5.6876446579792006 1 rotate no_reflect no_shear #
lump $-1 $-1 $31 $7 #
transform $-1 1 0 0 0 1 0 0 0 1 43.245948667867061 19.83873415313915 5.6876446579792006 1 rotate no_reflect no_shear #
shell $-1 $-1 $-1 $32 $-1 $8 #
shell $-1 $-1 $-1 $33 $-1 $10 #
shell $-1 $-1 $-1 $34 $-1 $12 #
shell $-1 $-1 $-1 $35 $-1 $14 #
shell $-1 $-1 $-1 $36 $-1 $16 #
shell $-1 $-1 $-1 $37 $-1 $18 #
shell $-1 $-1 $-1 $38 $-1 $20 #
shell $-1 $-1 $-1 $39 $-1 $22 #
face $-1 $40 $41 $24 $-1 $42 forward single #
face $-1 $43 $44 $25 $-1 $45 forward single #
face $-1 $46 $47 $26 $-1 $48 reversed single #
face $-1 $49 $50 $27 $-1 $51 forward single #
face $-1 $52 $53 $28 $-1 $54 reversed single #
face $-1 $55 $56 $29 $-1 $57 forward single #
face $-1 $58 $59 $30 $-1 $60 forward single #
face $-1 $61 $62 $31 $-1 $63 forward single #
face $-1 $64 $65 $24 $-1 $66 reversed single #
loop $-1 $-1 $67 $32 #
plane-surface $-1 0 0 5.6876446579792006 0 0 1 1 0 0 forward_v I I I I #
face $-1 $68 $69 $25 $-1 $70 reversed single #
loop $-1 $-1 $71 $33 #
plane-surface $-1 -43.245948667867061 0 0 1 0 0 0 0 -1 forward_v I I I I #
face $-1 $72 $73 $26 $-1 $74 reversed single #
loop $-1 $-1 $75 $34 #
plane-surface $-1 -12.080770186219837 -93.976761002668212 44.791293508745092 -1 0 0 0 -0.85716730853699208 0.51503806187062418 forward_v I I I I #
face $-1 $76 $77 $27 $-1 $78 forward single #
loop $-1 $79 $80 $35 #
cone-surface $-1 -16.615471834422372 -16.57426962565091 1.9872185885045728 0 0.85716730853699208 -0.51503806187062418 1.5 0 0 1 I I 0 1 1.5 forward I I I I #
face $-1 $81 $82 $28 $-1 $83 reversed single #
loop $-1 $-1 $84 $36 #
plane-surface $-1 -18.225741762736952 72.162169398773671 81.944122908689735 1 0 0 0 -0.84804810408105047 -0.52991925155115449 forward_v I I I I #
face $-1 $85 $86 $29 $-1 $87 forward single #
loop $-1 $88 $89 $37 #
cone-surface $-1 -14.199302191008091 18.243900735471772 3.7080050446206143 0 -0.84804810408105047 -0.52991925155115449 0.5 0 0 1 I I 0 1 0.5 forward I I I I #
face $-1 $90 $91 $30 $-1 $92 forward single #
loop $-1 $93 $94 $38 #
cone-surface $-1 -8.159642833414793 18.243900735471772 3.7080050446206143 0 -0.84804810408105047 -0.52991925155115449 0.5 0 0 1 I I 0 1 0.5 forward I I I I #
face $-1 $95 $96 $31 $-1 $97 forward single #
loop $-1 $98 $99 $39 #
cone-surface $-1 -2.1199834758214919 18.243900735471772 3.7080050446206143 0 -0.84804810408105047 -0.52991925155115449 0.5 0 0 1 I I 0 1 0.5 forward I I I I #
face $-1 $100 $101 $24 $-1 $102 reversed single #
loop $-1 $-1 $103 $40 #
plane-surface $-1 0 0 -5.6876446579792006 0 0 1 1 0 0 forward_v I I I I #
coedge $-1 $104 $105 $106 $107 forward $41 $-1 #
face $-1 $108 $109 $25 $-1 $110 forward single #
loop $-1 $-1 $111 $43 #
plane-surface $-1 0 19.83873415313915 0 0 -1 0 0 0 -1 forward_v I I I I #
coedge $-1 $112 $113 $114 $115 forward $44 $-1 #
face $-1 $116 $117 $26 $-1 $118 reversed single #
loop $-1 $-1 $119 $46 #
plane-surface $-1 -16.615471834422372 -19.838734153139157 0.24467433743558331 0 -0.85716730853699208 0.51503806187062418 1 0 0 forward_v I I I I #
coedge $-1 $120 $121 $122 $123 reversed $47 $-1 #
face $-1 $-1 $124 $27 $-1 $125 forward single #
loop $-1 $126 $127 $49 #
cone-surface $-1 -16.615471834422372 -14.302162818488551 0.62199913289878239 0 0.85716730853699208 -0.51503806187062418 0.75 0 0 1 I I -0.70710678118654746 0.70710678118654768 0.75 forward I I I I #
loop $-1 $-1 $128 $35 #
coedge $-1 $80 $80 $129 $130 reversed $50 $-1 #
face $-1 $131 $132 $28 $-1 $133 reversed single #
loop $-1 $-1 $134 $52 #
plane-surface $-1 -8.159642833414793 -1.1871201551685004 36.11040140729822 0 0.84804810408105047 0.52991925155115449 1 0 0 forward_v I I I I #
coedge $-1 $135 $136 $137 $138 reversed $53 $-1 #
face $-1 $-1 $139 $29 $-1 $140 forward single #
loop $-1 $141 $142 $55 #
cone-surface $-1 -14.199302191008091 17.444858615615018 3.2087081296523667 0 -0.84804810408105047 -0.52991925155115449 0.25 0 0 1 I I -0.70710678118654746 0.70710678118654746 0.25 forward I I I I #
loop $-1 $-1 $143 $37 #
coedge $-1 $89 $89 $144 $145 reversed $56 $-1 #
face $-1 $-1 $146 $30 $-1 $147 forward single #
loop $-1 $148 $149 $58 #
cone-surface $-1 -8.159642833414793 17.444858615615018 3.2087081296523667 0 -0.84804810408105047 -0.52991925155115449 0.25 0 0 1 I I -0.70710678118654746 0.70710678118654746 0.25 forward I I I I #
loop $-1 $-1 $150 $38 #
coedge $-1 $94 $94 $151 $152 reversed $59 $-1 #
face $-1 $-1 $153 $31 $-1 $154 forward single #
loop $-1 $155 $156 $61 #
cone-surface $-1 -2.1199834758214919 17.444858615615018 3.2087081296523667 0 -0.84804810408105047 -0.52991925155115449 0.25 0 0 1 I I -0.70710678118654746 0.70710678118654746 0.25 forward I I I I #
loop $-1 $-1 $157 $39 #
coedge $-1 $99 $99 $158 $159 reversed $62 $-1 #
face $-1 $160 $161 $24 $-1 $162 reversed single #
loop $-1 $-1 $163 $64 #
plane-surface $-1 0 -19.83873415313915 0 0 1 0 0 0 1 forward_v I I I I #
coedge $-1 $164 $165 $166 $167 forward $65 $-1 #
coedge $-1 $168 $67 $169 $170 forward $41 $-1 #
coedge $-1 $67 $168 $171 $172 forward $41 $-1 #
coedge $-1 $173 $174 $67 $107 reversed $175 $-1 #
edge $-1 $176 -19.83873415313915 $177 19.83873415313915 $106 $178 forward 7 unknown #
face $-1 $179 $180 $25 $-1 $181 reversed single #
loop $-1 $-1 $114 $68 #
plane-surface $-1 -46.336080535298358 0 -2.6876446579792006 0 0 1 1 0 0 forward_v I I I I #
coedge $-1 $182 $183 $113 $184 forward $69 $-1 #
coedge $-1 $185 $71 $186 $187 reversed $44 $-1 #
coedge $-1 $71 $185 $111 $184 reversed $44 $-1 #
coedge $-1 $188 $189 $71 $115 reversed $109 $-1 #
edge $-1 $190 -19.83873415313915 $191 19.83873415313915 $114 $192 forward 7 unknown #
face $-1 $193 $194 $26 $-1 $195 reversed single #
loop $-1 $-1 $196 $72 #
plane-surface $-1 -21.150173482624908 -93.976761002668212 44.791293508745092 1 0 0 0 0.85716730853699208 -0.51503806187062418 forward_v I I I I #
coedge $-1 $197 $198 $199 $200 reversed $73 $-1 #
coedge $-1 $121 $75 $201 $202 reversed $47 $-1 #
coedge $-1 $75 $120 $197 $203 reversed $47 $-1 #
coedge $-1 $199 $204 $75 $123 forward $205 $-1 #
edge $-1 $206 27.149646348194956 $207 30.420112751652209 $122 $208 forward 7 unknown #
loop $-1 $-1 $129 $76 #
plane-surface $-1 -16.615471834422372 -19.838734153139157 0.24467433743558331 0 -0.85716730853699208 0.51503806187062418 1 0 0 forward_v I I I I #
loop $-1 $-1 $209 $49 #
coedge $-1 $127 $127 $128 $210 reversed $77 $-1 #
coedge $-1 $128 $128 $127 $210 forward $79 $-1 #
coedge $-1 $129 $129 $80 $130 forward $124 $-1 #
edge $-1 $211 7.1231017466377989e-016 $211 6.2831853071796013 $129 $212 forward 7 unknown #
face $-1 $213 $214 $28 $-1 $215 forward single #
loop $-1 $-1 $216 $81 #
plane-surface $-1 1.9064560959073678 72.162169398773671 81.944122908689735 -1 0 0 0 0.84804810408105047 0.52991925155115449 forward_v I I I I #
coedge $-1 $217 $218 $219 $220 reversed $82 $-1 #
coedge $-1 $136 $84 $221 $222 reversed $53 $-1 #
coedge $-1 $84 $135 $217 $223 reversed $53 $-1 #
coedge $-1 $219 $224 $84 $138 forward $214 $-1 #
edge $-1 $225 16.242350546247685 $226 18.257957193909448 $137 $227 forward 7 unknown #
loop $-1 $-1 $144 $85 #
plane-surface $-1 -8.159642833414793 -1.1871201551685004 36.11040140729822 0 0.84804810408105047 0.52991925155115449 1 0 0 forward_v I I I I #
loop $-1 $-1 $228 $55 #
coedge $-1 $142 $142 $143 $229 reversed $86 $-1 #
coedge $-1 $143 $143 $142 $229 forward $88 $-1 #
coedge $-1 $144 $144 $89 $145 forward $139 $-1 #
edge $-1 $230 1.5064360498247893e-015 $230 6.2831853071796022 $144 $231 forward 7 unknown #
loop $-1 $-1 $151 $90 #
plane-surface $-1 -8.159642833414793 -1.1871201551685004 36.11040140729822 0 0.84804810408105047 0.52991925155115449 1 0 0 forward_v I I I I #
loop $-1 $-1 $232 $58 #
coedge $-1 $149 $149 $150 $233 reversed $91 $-1 #
coedge $-1 $150 $150 $149 $233 forward $93 $-1 #
coedge $-1 $151 $151 $94 $152 forward $146 $-1 #
edge $-1 $234 1.5064360498247893e-015 $234 6.2831853071796022 $151 $235 forward 7 unknown #
loop $-1 $-1 $158 $95 #
plane-surface $-1 -8.159642833414793 -1.1871201551685004 36.11040140729822 0 0.84804810408105047 0.52991925155115449 1 0 0 forward_v I I I I #
loop $-1 $-1 $236 $61 #
coedge $-1 $156 $156 $157 $237 reversed $96 $-1 #
coedge $-1 $157 $157 $156 $237 forward $98 $-1 #
coedge $-1 $158 $158 $99 $159 forward $153 $-1 #
edge $-1 $238 1.5064360498247893e-015 $238 6.2831853071796022 $158 $239 forward 7 unknown #
face $-1 $240 $241 $24 $-1 $242 reversed single #
loop $-1 $-1 $243 $100 #
plane-surface $-1 -43.245948667867061 0 0 1 0 0 0 0 -1 forward_v I I I I #
coedge $-1 $244 $171 $243 $245 forward $101 $-1 #
coedge $-1 $246 $103 $244 $247 forward $65 $-1 #
coedge $-1 $103 $246 $248 $249 forward $65 $-1 #
coedge $-1 $174 $173 $103 $167 reversed $175 $-1 #
edge $-1 $250 -19.83873415313915 $251 19.83873415313915 $166 $252 forward 7 unknown #
coedge $-1 $105 $104 $253 $254 forward $41 $-1 #
coedge $-1 $255 $256 $104 $170 reversed $241 $-1 #
edge $-1 $177 -43.245948667867061 $257 43.245948667867061 $169 $258 forward 7 unknown #
coedge $-1 $163 $259 $105 $172 reversed $101 $-1 #
edge $-1 $260 -43.245948667867061 $176 43.245948667867061 $171 $261 forward 7 unknown #
coedge $-1 $166 $106 $259 $262 forward $175 $-1 #
coedge $-1 $106 $166 $255 $263 reversed $175 $-1 #
loop $-1 $-1 $173 $240 #
vertex $-1 $107 $264 #
vertex $-1 $107 $265 #
straight-curve $-1 43.245948667867061 0 5.6876446579792006 0 1 0 I I #
face $-1 $266 $267 $25 $-1 $268 reversed single #
loop $-1 $-1 $269 $108 #
plane-surface $-1 -49.426212402729654 0 -4.1876446579792006 1 0 0 0 0 -1 forward_v I I I I #
coedge $-1 $270 $111 $271 $272 reversed $69 $-1 #
coedge $-1 $111 $270 $188 $273 reversed $69 $-1 #
edge $-1 $190 2.6876446579792006 $274 5.6876446579792006 $111 $275 forward 7 unknown #
coedge $-1 $113 $112 $276 $277 reversed $44 $-1 #
coedge $-1 $278 $279 $112 $187 forward $280 $-1 #
edge $-1 $281 -5.6876446579792006 $191 -2.6876446579792006 $186 $282 forward 7 unknown #
coedge $-1 $283 $114 $183 $273 forward $109 $-1 #
coedge $-1 $114 $283 $278 $284 forward $109 $-1 #
vertex $-1 $184 $285 #
vertex $-1 $284 $286 #
straight-curve $-1 -43.245948667867061 0 -2.6876446579792006 0 -1 0 I I #
face $-1 $-1 $205 $26 $-1 $287 forward single #
loop $-1 $-1 $288 $116 #
plane-surface $-1 0 -19.83873415313915 0 0 1 0 0 0 1 forward_v I I I I #
coedge $-1 $289 $290 $291 $292 reversed $117 $-1 #
coedge $-1 $293 $119 $121 $203 forward $73 $-1 #
coedge $-1 $119 $293 $289 $294 forward $73 $-1 #
coedge $-1 $291 $122 $119 $200 forward $205 $-1 #
edge $-1 $207 3.7730342690086509 $295 12.842437565413722 $199 $296 forward 7 unknown #
coedge $-1 $297 $298 $120 $202 forward $194 $-1 #
edge $-1 $299 -22.150972416936952 $206 -16.708002096393344 $201 $300 forward 7 unknown #
edge $-1 $207 -6.3499508979567212 $299 -1.379460482718971e-014 $121 $301 forward 7 unknown #
coedge $-1 $122 $291 $297 $302 forward $205 $-1 #
loop $-1 $-1 $291 $193 #
vertex $-1 $202 $303 #
vertex $-1 $123 $304 #
straight-curve $-1 -12.080770186219837 -46.988380501334106 5.6876446579791988 0 1 0 I I #
coedge $-1 $209 $209 $-1 $305 reversed $126 $-1 #
edge $-1 $306 0 $306 6.2831853071796004 $127 $307 forward 7 unknown #
vertex $-1 $130 $308 #
ellipse-curve $-1 -16.615471834422372 -18.203500951410525 2.966159497707396 0 -0.85716730853699208 0.51503806187062418 1.5 0 0 1 I I #
face $-1 $-1 $309 $28 $-1 $310 reversed single #
loop $-1 $-1 $137 $131 #
plane-surface $-1 0 0 5.6876446579792006 0 0 1 1 0 0 forward_v I I I I #
coedge $-1 $311 $312 $313 $314 reversed $132 $-1 #
coedge $-1 $315 $134 $136 $223 forward $82 $-1 #
coedge $-1 $134 $315 $311 $316 forward $82 $-1 #
coedge $-1 $313 $137 $134 $220 forward $214 $-1 #
edge $-1 $226 -14.145920346029556 $317 5.9862775126147643 $219 $318 forward 7 unknown #
coedge $-1 $319 $320 $135 $222 forward $309 $-1 #
edge $-1 $321 -38.510061818921926 $225 -35.284416796365669 $221 $322 forward 7 unknown #
edge $-1 $226 35.873857394310534 $321 39.6774683062783 $136 $323 forward 7 unknown #
coedge $-1 $137 $313 $319 $324 forward $214 $-1 #
vertex $-1 $222 $325 #
vertex $-1 $138 $326 #
straight-curve $-1 -18.225741762736952 36.081084699386835 5.6876446579791988 0 -1 0 I I #
coedge $-1 $228 $228 $-1 $327 reversed $141 $-1 #
edge $-1 $328 0 $328 6.2831853071796004 $142 $329 forward 7 unknown #
vertex $-1 $145 $330 #
ellipse-curve $-1 -14.199302191008091 18.830930829308265 4.0748221467010737 0 0.84804810408105047 0.52991925155115449 0.5 0 0 1 I I #
coedge $-1 $232 $232 $-1 $331 reversed $148 $-1 #
edge $-1 $332 0 $332 6.2831853071796004 $149 $333 forward 7 unknown #
vertex $-1 $152 $334 #
ellipse-curve $-1 -8.159642833414793 18.830930829308265 4.0748221467010737 0 0.84804810408105047 0.52991925155115449 0.5 0 0 1 I I #
coedge $-1 $236 $236 $-1 $335 reversed $155 $-1 #
edge $-1 $336 0 $336 6.2831853071796004 $156 $337 forward 7 unknown #
vertex $-1 $159 $338 #
ellipse-curve $-1 -2.1199834758214919 18.830930829308265 4.0748221467010737 0 0.84804810408105047 0.52991925155115449 0.5 0 0 1 I I #
face $-1 $-1 $175 $24 $-1 $339 reversed single #
loop $-1 $-1 $255 $160 #
plane-surface $-1 0 19.83873415313915 0 0 -1 0 0 0 -1 forward_v I I I I #
coedge $-1 $253 $340 $163 $245 reversed $161 $-1 #
coedge $-1 $259 $163 $164 $247 reversed $101 $-1 #
edge $-1 $260 -5.6876446579792006 $341 5.6876446579792006 $243 $342 forward 7 unknown #
coedge $-1 $165 $164 $340 $343 forward $65 $-1 #
edge $-1 $251 -43.245948667867061 $341 43.245948667867061 $244 $344 forward 7 unknown #
coedge $-1 $256 $255 $165 $249 reversed $241 $-1 #
edge $-1 $345 -43.245948667867061 $250 43.245948667867061 $248 $346 forward 7 unknown #
vertex $-1 $167 $347 #
vertex $-1 $262 $348 #
straight-curve $-1 43.245948667867061 0 -5.6876446579792006 0 -1 0 I I #
coedge $-1 $349 $243 $168 $254 reversed $161 $-1 #
edge $-1 $257 -19.83873415313915 $260 19.83873415313915 $253 $350 forward 7 unknown #
coedge $-1 $248 $169 $174 $263 forward $241 $-1 #
coedge $-1 $169 $248 $349 $351 reversed $241 $-1 #
vertex $-1 $170 $352 #
straight-curve $-1 0 19.83873415313915 5.6876446579792006 -1 0 0 I I #
coedge $-1 $171 $244 $173 $262 reversed $101 $-1 #
vertex $-1 $254 $353 #
straight-curve $-1 0 -19.83873415313915 5.6876446579792006 1 0 0 I I #
edge $-1 $176 -5.6876446579792006 $251 5.6876446579792006 $173 $354 forward 7 unknown #
edge $-1 $177 -5.6876446579792006 $250 5.6876446579792006 $174 $355 forward 7 unknown #
point $-1 43.245948667867061 -19.83873415313915 5.6876446579792006 #
point $-1 43.245948667867061 19.83873415313915 5.6876446579792006 #
face $-1 $-1 $280 $25 $-1 $356 reversed single #
loop $-1 $-1 $276 $179 #
plane-surface $-1 0 0 -5.6876446579792006 0 0 1 1 0 0 forward_v I I I I #
coedge $-1 $357 $358 $270 $359 forward $180 $-1 #
coedge $-1 $183 $182 $269 $359 reversed $69 $-1 #
coedge $-1 $276 $360 $182 $272 forward $267 $-1 #
edge $-1 $361 -49.426212402729654 $274 -43.245948667867061 $182 $362 forward 7 unknown #
edge $-1 $190 -3.0901318674312961 $363 3.0901318674312961 $183 $364 forward 7 unknown #
vertex $-1 $184 $365 #
straight-curve $-1 -43.245948667867061 19.83873415313915 0 0 0 -1 I I #
coedge $-1 $366 $271 $185 $277 forward $267 $-1 #
edge $-1 $274 -19.83873415313915 $281 19.83873415313915 $276 $367 forward 7 unknown #
coedge $-1 $368 $186 $189 $284 reversed $280 $-1 #
coedge $-1 $186 $368 $366 $369 reversed $280 $-1 #
loop $-1 $-1 $186 $266 #
vertex $-1 $369 $370 #
straight-curve $-1 -43.245948667867061 -19.83873415313915 0 0 0 1 I I #
coedge $-1 $189 $188 $358 $371 forward $109 $-1 #
edge $-1 $372 -3.0901318674312961 $191 3.0901318674312961 $278 $373 forward 7 unknown #
point $-1 -43.245948667867061 19.83873415313915 -2.6876446579792006 #
point $-1 -43.245948667867061 -19.83873415313915 -2.6876446579792006 #
plane-surface $-1 0 0 5.6876446579792006 0 0 1 1 0 0 forward_v I I I I #
coedge $-1 $298 $297 $290 $374 forward $194 $-1 #
coedge $-1 $290 $196 $198 $294 reversed $117 $-1 #
coedge $-1 $196 $289 $288 $374 reversed $117 $-1 #
coedge $-1 $204 $199 $196 $292 forward $205 $-1 #
edge $-1 $295 -30.420112751652209 $375 -27.149646348194956 $291 $376 forward 7 unknown #
coedge $-1 $198 $197 $298 $377 reversed $73 $-1 #
edge $-1 $378 1.379460482718971e-014 $295 6.3499508979567212 $289 $379 forward 7 unknown #
vertex $-1 $200 $380 #
straight-curve $-1 -8.3077359172111862 -16.568267749681894 5.6876446579792006 -1 0 0 I I #
coedge $-1 $288 $201 $204 $302 reversed $194 $-1 #
coedge $-1 $201 $288 $293 $377 forward $194 $-1 #
vertex $-1 $202 $381 #
straight-curve $-1 -12.080770186219837 -19.83873415313915 22.395646754372546 0 0 1 I I #
straight-curve $-1 -12.080770186219837 -19.838734153139157 0.24467433743558331 0 -0.51503806187062418 -0.85716730853699208 I I #
edge $-1 $375 -21.150173482624908 $206 -12.080770186219837 $297 $382 forward 7 unknown #
point $-1 -12.080770186219837 -19.83873415313915 5.6876446579792006 #
point $-1 -12.080770186219837 -16.568267749681898 5.6876446579792006 #
edge $-1 $383 1 $383 0 $209 $-1 forward 7 unknown #
vertex $-1 $210 $384 #
ellipse-curve $-1 -16.615471834422372 -14.945038299891294 1.0082776793017507 0 -0.85716730853699208 0.51503806187062418 1.5 0 0 1 I I #
point $-1 -15.115471834422372 -18.203500951410522 2.9661594977073951 #
loop $-1 $-1 $221 $213 #
plane-surface $-1 0 19.83873415313915 0 0 -1 0 0 0 -1 forward_v I I I I #
coedge $-1 $312 $216 $218 $316 reversed $132 $-1 #
coedge $-1 $216 $311 $385 $386 reversed $132 $-1 #
coedge $-1 $224 $219 $216 $314 forward $214 $-1 #
edge $-1 $317 -18.257957193909448 $387 -16.242350546247685 $313 $388 forward 7 unknown #
coedge $-1 $218 $217 $320 $389 reversed $82 $-1 #
edge $-1 $390 -39.6774683062783 $317 -35.873857394310534 $311 $391 forward 7 unknown #
vertex $-1 $220 $392 #
straight-curve $-1 -4.0798214167073965 17.823127505477387 5.6876446579792024 1 0 0 I I #
coedge $-1 $385 $221 $224 $324 reversed $309 $-1 #
coedge $-1 $221 $385 $315 $389 forward $309 $-1 #
vertex $-1 $222 $393 #
straight-curve $-1 -18.225741762736952 19.83873415313915 40.972061454344868 0 0 1 I I #
straight-curve $-1 -18.225741762736952 -1.1871201551685004 36.11040140729822 0 0.52991925155115449 -0.84804810408105047 I I #
edge $-1 $387 -1.9064560959073678 $225 18.225741762736952 $319 $394 forward 7 unknown #
point $-1 -18.225741762736952 19.83873415313915 5.6876446579792006 #
point $-1 -18.225741762736952 17.823127505477387 5.6876446579791988 #
edge $-1 $395 1 $395 0 $228 $-1 forward 7 unknown #
vertex $-1 $229 $396 #
ellipse-curve $-1 -14.199302191008091 17.65687064163528 3.3411879425401554 0 0.84804810408105047 0.52991925155115449 0.5 0 0 1 I I #
point $-1 -13.699302191008091 18.830930829308265 4.0748221467010728 #
edge $-1 $397 1 $397 0 $232 $-1 forward 7 unknown #
vertex $-1 $233 $398 #
ellipse-curve $-1 -8.159642833414793 17.65687064163528 3.3411879425401554 0 0.84804810408105047 0.52991925155115449 0.5 0 0 1 I I #
point $-1 -7.659642833414793 18.830930829308265 4.0748221467010728 #
edge $-1 $399 1 $399 0 $236 $-1 forward 7 unknown #
vertex $-1 $237 $400 #
ellipse-curve $-1 -2.1199834758214919 17.65687064163528 3.3411879425401554 0 0.84804810408105047 0.52991925155115449 0.5 0 0 1 I I #
point $-1 -1.6199834758214919 18.830930829308265 4.0748221467010728 #
plane-surface $-1 43.245948667867061 0 0 -1 0 0 0 0 1 forward_v I I I I #
coedge $-1 $243 $349 $246 $343 reversed $161 $-1 #
vertex $-1 $343 $401 #
straight-curve $-1 -43.245948667867061 -19.83873415313915 0 0 0 -1 I I #
edge $-1 $341 -19.83873415313915 $345 19.83873415313915 $340 $402 forward 7 unknown #
straight-curve $-1 0 -19.83873415313915 -5.6876446579792006 -1 0 0 I I #
vertex $-1 $249 $403 #
straight-curve $-1 0 19.83873415313915 -5.6876446579792006 1 0 0 I I #
point $-1 43.245948667867061 19.83873415313915 -5.6876446579792006 #
point $-1 43.245948667867061 -19.83873415313915 -5.6876446579792006 #
coedge $-1 $340 $253 $256 $351 forward $161 $-1 #
straight-curve $-1 -43.245948667867061 0 5.6876446579792006 0 -1 0 I I #
edge $-1 $257 -5.6876446579792006 $345 5.6876446579792006 $256 $404 forward 7 unknown #
point $-1 -43.245948667867061 19.83873415313915 5.6876446579792006 #
point $-1 -43.245948667867061 -19.83873415313915 5.6876446579792006 #
straight-curve $-1 43.245948667867061 -19.83873415313915 0 0 0 -1 I I #
straight-curve $-1 43.245948667867061 19.83873415313915 0 0 0 -1 I I #
plane-surface $-1 0 -19.83873415313915 0 0 1 0 0 0 1 forward_v I I I I #
coedge $-1 $405 $269 $360 $406 reversed $180 $-1 #
coedge $-1 $269 $405 $283 $371 reversed $180 $-1 #
edge $-1 $363 -1.5 $361 1.5 $270 $407 forward 7 unknown #
coedge $-1 $271 $366 $357 $406 forward $267 $-1 #
vertex $-1 $272 $408 #
straight-curve $-1 0 19.83873415313915 -5.6876446579792006 1 0 0 I I #
vertex $-1 $273 $409 #
straight-curve $-1 -46.336080535298358 19.83873415313915 -2.6876446579792006 -1 0 0 I I #
point $-1 -43.245948667867061 19.83873415313915 -5.6876446579792006 #
coedge $-1 $360 $276 $279 $369 forward $267 $-1 #
straight-curve $-1 -43.245948667867061 0 -5.6876446579792006 0 -1 0 I I #
coedge $-1 $279 $278 $405 $410 forward $280 $-1 #
edge $-1 $281 -3.0901318674312961 $411 3.0901318674312961 $279 $412 forward 7 unknown #
point $-1 -43.245948667867061 -19.83873415313915 -5.6876446579792006 #
edge $-1 $363 -19.83873415313915 $372 19.83873415313915 $358 $413 forward 7 unknown #
vertex $-1 $371 $414 #
straight-curve $-1 -46.336080535298358 -19.83873415313915 -2.6876446579792006 1 0 0 I I #
edge $-1 $375 16.708002096393344 $378 22.150972416936952 $288 $415 forward 7 unknown #
vertex $-1 $302 $416 #
straight-curve $-1 -21.150173482624908 -46.988380501334106 5.6876446579791988 0 -1 0 I I #
edge $-1 $378 -12.842437565413722 $299 -3.7730342690086509 $298 $417 forward 7 unknown #
vertex $-1 $377 $418 #
straight-curve $-1 -21.150173482624908 -19.838734153139157 0.24467433743558331 0 0.51503806187062418 0.85716730853699208 I I #
point $-1 -21.150173482624908 -16.568267749681898 5.6876446579792006 #
point $-1 -12.080770186219837 -19.83873415313915 0.24467433743559514 #
straight-curve $-1 0 -19.83873415313915 5.6876446579792006 1 0 0 I I #
vertex $-1 $305 $419 #
point $-1 -15.115471834422372 -14.945038299891294 1.0082776793017507 #
coedge $-1 $320 $319 $312 $386 forward $309 $-1 #
edge $-1 $387 35.284416796365669 $390 38.510061818921926 $385 $420 forward 7 unknown #
vertex $-1 $324 $421 #
straight-curve $-1 1.9064560959073678 36.081084699386835 5.6876446579791988 0 1 0 I I #
edge $-1 $390 -5.9862775126147643 $321 14.145920346029556 $320 $422 forward 7 unknown #
vertex $-1 $389 $423 #
straight-curve $-1 1.9064560959073678 -1.1871201551685004 36.11040140729822 0 -0.52991925155115449 0.84804810408105047 I I #
point $-1 1.9064560959073678 17.823127505477387 5.6876446579791988 #
point $-1 -18.225741762736952 19.83873415313915 2.4619996354229414 #
straight-curve $-1 0 19.83873415313915 5.6876446579792006 -1 0 0 I I #
vertex $-1 $327 $424 #
point $-1 -13.699302191008091 17.65687064163528 3.3411879425401554 #
vertex $-1 $331 $425 #
point $-1 -7.659642833414793 17.65687064163528 3.3411879425401554 #
vertex $-1 $335 $426 #
point $-1 -1.6199834758214919 17.65687064163528 3.3411879425401554 #
point $-1 -43.245948667867061 -19.83873415313915 -5.6876446579792006 #
straight-curve $-1 -43.245948667867061 0 -5.6876446579792006 0 1 0 I I #
point $-1 -43.245948667867061 19.83873415313915 -5.6876446579792006 #
straight-curve $-1 -43.245948667867061 19.83873415313915 0 0 0 -1 I I #
coedge $-1 $358 $357 $368 $410 reversed $180 $-1 #
edge $-1 $411 -19.83873415313915 $361 19.83873415313915 $357 $427 forward 7 unknown #
straight-curve $-1 -49.426212402729654 19.83873415313915 -4.1876446579792006 0 0 -1 I I #
point $-1 -49.426212402729654 19.83873415313915 -5.6876446579792006 #
point $-1 -49.426212402729654 19.83873415313915 -2.6876446579792006 #
edge $-1 $372 -1.5 $411 1.5 $405 $428 forward 7 unknown #
vertex $-1 $406 $429 #
straight-curve $-1 -46.336080535298358 -19.83873415313915 -5.6876446579792006 -1 0 0 I I #
straight-curve $-1 -49.426212402729654 0 -2.6876446579792006 0 -1 0 I I #
point $-1 -49.426212402729654 -19.83873415313915 -2.6876446579792006 #
straight-curve $-1 -21.150173482624908 -19.83873415313915 22.395646754372546 0 0 -1 I I #
point $-1 -21.150173482624908 -19.83873415313915 5.6876446579792006 #
straight-curve $-1 -8.3077359172111862 -19.83873415313915 0.24467433743559303 1 0 0 I I #
point $-1 -21.150173482624908 -19.83873415313915 0.24467433743559514 #
point $-1 -16.615471834422372 -13.659287337085807 0.23572058649581412 #
straight-curve $-1 1.9064560959073678 19.83873415313915 40.972061454344868 0 0 -1 I I #
point $-1 1.9064560959073678 19.83873415313915 5.6876446579792006 #
straight-curve $-1 -4.0798214167073965 19.83873415313915 2.4619996354229396 -1 0 0 I I #
point $-1 1.9064560959073678 19.83873415313915 2.4619996354229414 #
point $-1 -14.199302191008091 17.232846589594757 3.0762283167645781 #
point $-1 -8.159642833414793 17.232846589594757 3.0762283167645781 #
point $-1 -2.1199834758214919 17.232846589594757 3.0762283167645781 #
straight-curve $-1 -49.426212402729654 0 -5.6876446579792006 0 1 0 I I #
straight-curve $-1 -49.426212402729654 -19.83873415313915 -4.1876446579792006 0 0 -1 I I #
point $-1 -49.426212402729654 -19.83873415313915 -5.6876446579792006 #
End-of-ACIS-data 