500 0 14 0           
7 Unknown 11 ACIS 5.0 NT 24 Thu Mar 25 19:13:06 1999 
-1 9.9999999999999995e-007 1e-010 
body $-1 $14 $-1 $15 #
body $-1 $16 $-1 $17 #
body $-1 $18 $-1 $19 #
body $-1 $20 $-1 $21 #
body $-1 $22 $-1 $23 #
body $-1 $24 $-1 $25 #
body $-1 $26 $-1 $27 #
body $-1 $28 $-1 $29 #
body $-1 $30 $-1 $31 #
body $-1 $32 $-1 $33 #
body $-1 $34 $-1 $35 #
body $-1 $36 $-1 $37 #
body $-1 $38 $-1 $39 #
body $-1 $40 $-1 $41 #
lump $-1 $-1 $42 $0 #
transform $-1 1 0 0 0 1 0 0 0 1 65.443891720328381 33.349082369462664 16.650420171145825 1 rotate no_reflect no_shear #
lump $-1 $-1 $43 $1 #
transform $-1 1 0 0 0 1 0 0 0 1 65.443891720328381 33.349082369462664 16.650420171145825 1 rotate no_reflect no_shear #
lump $-1 $-1 $44 $2 #
transform $-1 1 0 0 0 1 0 0 0 1 65.443891720328381 33.349082369462664 16.650420171145825 1 rotate no_reflect no_shear #
lump $-1 $-1 $45 $3 #
transform $-1 1 0 0 0 1 0 0 0 1 65.443891720328381 33.349082369462664 16.650420171145825 1 rotate no_reflect no_shear #
lump $-1 $-1 $46 $4 #
transform $-1 1 0 0 0 1 0 0 0 1 65.443891720328381 33.349082369462664 16.650420171145825 1 rotate no_reflect no_shear #
lump $-1 $-1 $47 $5 #
transform $-1 1 0 0 0 1 0 0 0 1 65.443891720328381 33.349082369462664 16.650420171145825 1 rotate no_reflect no_shear #
lump $-1 $-1 $48 $6 #
transform $-1 1 0 0 0 1 0 0 0 1 65.443891720328381 33.349082369462664 16.650420171145825 1 rotate no_reflect no_shear #
lump $-1 $-1 $49 $7 #
transform $-1 1 0 0 0 1 0 0 0 1 65.443891720328381 33.349082369462664 16.650420171145825 1 rotate no_reflect no_shear #
lump $-1 $-1 $50 $8 #
transform $-1 1 0 0 0 1 0 0 0 1 65.443891720328381 33.349082369462664 16.650420171145825 1 rotate no_reflect no_shear #
lump $-1 $-1 $51 $9 #
transform $-1 1 0 0 0 1 0 0 0 1 65.443891720328381 33.349082369462664 16.650420171145825 1 rotate no_reflect no_shear #
lump $-1 $-1 $52 $10 #
transform $-1 1 0 0 0 1 0 0 0 1 65.443891720328381 33.349082369462664 16.650420171145825 1 rotate no_reflect no_shear #
lump $-1 $-1 $53 $11 #
transform $-1 1 0 0 0 1 0 0 0 1 65.443891720328381 33.349082369462664 16.650420171145825 1 rotate no_reflect no_shear #
lump $-1 $-1 $54 $12 #
transform $-1 1 0 0 0 1 0 0 0 1 65.443891720328381 33.349082369462664 16.650420171145825 1 rotate no_reflect no_shear #
lump $-1 $-1 $55 $13 #
transform $-1 1 0 0 0 1 0 0 0 1 65.443891720328381 33.349082369462664 16.650420171145825 1 rotate no_reflect no_shear #
shell $-1 $-1 $-1 $56 $-1 $14 #
shell $-1 $-1 $-1 $57 $-1 $16 #
shell $-1 $-1 $-1 $58 $-1 $18 #
shell $-1 $-1 $-1 $59 $-1 $20 #
shell $-1 $-1 $-1 $60 $-1 $22 #
shell $-1 $-1 $-1 $61 $-1 $24 #
shell $-1 $-1 $-1 $62 $-1 $26 #
shell $-1 $-1 $-1 $63 $-1 $28 #
shell $-1 $-1 $-1 $64 $-1 $30 #
shell $-1 $-1 $-1 $65 $-1 $32 #
shell $-1 $-1 $-1 $66 $-1 $34 #
shell $-1 $-1 $-1 $67 $-1 $36 #
shell $-1 $-1 $-1 $68 $-1 $38 #
shell $-1 $-1 $-1 $69 $-1 $40 #
face $-1 $70 $71 $42 $-1 $72 forward single #
face $-1 $73 $74 $43 $-1 $75 reversed single #
face $-1 $76 $77 $44 $-1 $78 reversed single #
face $-1 $79 $80 $45 $-1 $81 forward single #
face $-1 $82 $83 $46 $-1 $84 forward single #
face $-1 $85 $86 $47 $-1 $87 reversed single #
face $-1 $88 $89 $48 $-1 $90 forward single #
face $-1 $91 $92 $49 $-1 $93 forward single #
face $-1 $94 $95 $50 $-1 $96 reversed single #
face $-1 $97 $98 $51 $-1 $99 forward single #
face $-1 $100 $101 $52 $-1 $102 forward single #
face $-1 $103 $104 $53 $-1 $105 reversed single #
face $-1 $106 $107 $54 $-1 $108 forward single #
face $-1 $109 $110 $55 $-1 $111 forward single #
face $-1 $112 $113 $42 $-1 $114 reversed single #
loop $-1 $-1 $115 $56 #
plane-surface $-1 0 0 16.650420171145825 0 0 1 1 0 0 forward_v I I I I #
face $-1 $116 $117 $43 $-1 $118 reversed single #
loop $-1 $-1 $119 $57 #
plane-surface $-1 0 -25.593168579996856 10.3310148141585 0 0 1 1 0 0 forward_v I I I I #
face $-1 $120 $121 $44 $-1 $122 reversed single #
loop $-1 $-1 $123 $58 #
plane-surface $-1 23.804715549422127 -8.2578818832399179 181.1352018578167 0 -1 0 -0.52991927123019833 0 -0.84804809178421925 forward_v I I I I #
face $-1 $124 $125 $45 $-1 $126 forward single #
loop $-1 $127 $128 $59 #
cone-surface $-1 52.33015232445814 -13.257528710408621 8.0545108549212934 -0.52991927123019833 0 -0.84804809178421925 0.42402404589210962 0 -0.26495963561509916 1 I I 0 1 0.5 forward I I I I #
face $-1 $129 $130 $46 $-1 $131 forward single #
loop $-1 $132 $133 $60 #
cone-surface $-1 52.33015232445814 -10.257740614107401 8.0545108549212934 -0.52991927123019833 0 -0.84804809178421925 0.42402404589210962 0 -0.26495963561509916 1 I I 0 1 0.5 forward I I I I #
face $-1 $134 $135 $47 $-1 $136 reversed single #
loop $-1 $-1 $137 $61 #
plane-surface $-1 23.804715549422127 4.5387024067585138 181.1352018578167 0 -1 0 -0.52991927123019833 0 -0.84804809178421925 forward_v I I I I #
face $-1 $138 $139 $48 $-1 $140 forward single #
loop $-1 $141 $142 $62 #
cone-surface $-1 52.33015232445814 -0.46094442041019335 8.0545108549212934 -0.52991927123019833 0 -0.84804809178421925 0.42402404589210962 0 -0.26495963561509916 1 I I 0 1 0.5 forward I I I I #
face $-1 $143 $144 $49 $-1 $145 forward single #
loop $-1 $146 $147 $63 #
cone-surface $-1 52.33015232445814 2.5388436758910302 8.0545108549212934 -0.52991927123019833 0 -0.84804809178421925 0.42402404589210962 0 -0.26495963561509916 1 I I 0 1 0.5 forward I I I I #
face $-1 $148 $149 $50 $-1 $150 reversed single #
loop $-1 $-1 $151 $64 #
plane-surface $-1 23.804715549422127 17.335286696756942 181.1352018578167 0 -1 0 -0.52991927123019833 0 -0.84804809178421925 forward_v I I I I #
face $-1 $152 $153 $51 $-1 $154 forward single #
loop $-1 $155 $156 $65 #
cone-surface $-1 52.33015232445814 12.335639869588235 8.0545108549212934 -0.52991927123019833 0 -0.84804809178421925 0.42402404589210962 0 -0.26495963561509916 1 I I 0 1 0.5 forward I I I I #
face $-1 $157 $158 $52 $-1 $159 forward single #
loop $-1 $160 $161 $66 #
cone-surface $-1 52.33015232445814 15.335427965889458 8.0545108549212934 -0.52991927123019833 0 -0.84804809178421925 0.42402404589210962 0 -0.26495963561509916 1 I I 0 1 0.5 forward I I I I #
face $-1 $162 $163 $53 $-1 $164 reversed single #
loop $-1 $-1 $165 $67 #
plane-surface $-1 23.804715549422127 30.13187098675537 181.1352018578167 0 -1 0 -0.52991927123019833 0 -0.84804809178421925 forward_v I I I I #
face $-1 $166 $167 $54 $-1 $168 forward single #
loop $-1 $169 $170 $68 #
cone-surface $-1 52.33015232445814 25.132224159586663 8.0545108549212934 -0.52991927123019833 0 -0.84804809178421925 0.42402404589210962 0 -0.26495963561509916 1 I I 0 1 0.5 forward I I I I #
face $-1 $171 $172 $55 $-1 $173 forward single #
loop $-1 $174 $175 $69 #
cone-surface $-1 52.33015232445814 28.132012255887886 8.0545108549212934 -0.52991927123019833 0 -0.84804809178421925 0.42402404589210962 0 -0.26495963561509916 1 I I 0 1 0.5 forward I I I I #
face $-1 $176 $177 $42 $-1 $178 reversed single #
loop $-1 $-1 $179 $70 #
plane-surface $-1 0 0 -16.650420171145825 0 0 1 1 0 0 forward_v I I I I #
coedge $-1 $180 $181 $182 $183 forward $71 $-1 #
face $-1 $184 $185 $43 $-1 $186 reversed single #
loop $-1 $-1 $187 $73 #
plane-surface $-1 0 -17.837254790531048 13.490717492652163 0 -1 0 0 0 -1 forward_v I I I I #
coedge $-1 $188 $189 $190 $191 reversed $74 $-1 #
face $-1 $192 $193 $44 $-1 $194 reversed single #
loop $-1 $-1 $195 $76 #
plane-surface $-1 -45.555243264386746 -11.75763466225801 70.136066873101569 0.52991927123019833 0 0.84804809178421925 0.84804809178421925 0 -0.52991927123019833 forward_v I I I I #
coedge $-1 $196 $197 $198 $199 reversed $77 $-1 #
face $-1 $-1 $200 $45 $-1 $201 forward single #
loop $-1 $202 $203 $79 #
cone-surface $-1 51.786037776262631 -13.257528710408621 7.1837455716772638 -0.52991927123019833 0 -0.84804809178421925 0.21201202294605481 0 -0.13247981780754958 1 I I -0.70710678118654746 0.70710678118654746 0.25 forward I I I I #
loop $-1 $-1 $204 $59 #
coedge $-1 $128 $128 $205 $206 reversed $80 $-1 #
face $-1 $-1 $207 $46 $-1 $208 forward single #
loop $-1 $209 $210 $82 #
cone-surface $-1 51.786037776262631 -10.257740614107401 7.1837455716772638 -0.52991927123019833 0 -0.84804809178421925 0.21201202294605481 0 -0.13247981780754958 1 I I -0.70710678118654746 0.70710678118654746 0.25 forward I I I I #
loop $-1 $-1 $211 $60 #
coedge $-1 $133 $133 $212 $213 reversed $83 $-1 #
face $-1 $214 $215 $47 $-1 $216 reversed single #
loop $-1 $-1 $217 $85 #
plane-surface $-1 -45.555243264386746 1.038949627740422 70.136066873101569 0.52991927123019833 0 0.84804809178421925 0.84804809178421925 0 -0.52991927123019833 forward_v I I I I #
coedge $-1 $218 $219 $220 $221 reversed $86 $-1 #
face $-1 $-1 $222 $48 $-1 $223 forward single #
loop $-1 $224 $225 $88 #
cone-surface $-1 51.786037776262631 -0.46094442041019335 7.1837455716772638 -0.52991927123019833 0 -0.84804809178421925 0.21201202294605481 0 -0.13247981780754958 1 I I -0.70710678118654746 0.70710678118654746 0.25 forward I I I I #
loop $-1 $-1 $226 $62 #
coedge $-1 $142 $142 $227 $228 reversed $89 $-1 #
face $-1 $-1 $229 $49 $-1 $230 forward single #
loop $-1 $231 $232 $91 #
cone-surface $-1 51.786037776262631 2.5388436758910302 7.1837455716772638 -0.52991927123019833 0 -0.84804809178421925 0.21201202294605481 0 -0.13247981780754958 1 I I -0.70710678118654746 0.70710678118654746 0.25 forward I I I I #
loop $-1 $-1 $233 $63 #
coedge $-1 $147 $147 $234 $235 reversed $92 $-1 #
face $-1 $236 $237 $50 $-1 $238 reversed single #
loop $-1 $-1 $239 $94 #
plane-surface $-1 -45.555243264386746 13.83553391773885 70.136066873101569 0.52991927123019833 0 0.84804809178421925 0.84804809178421925 0 -0.52991927123019833 forward_v I I I I #
coedge $-1 $240 $241 $242 $243 reversed $95 $-1 #
face $-1 $-1 $244 $51 $-1 $245 forward single #
loop $-1 $246 $247 $97 #
cone-surface $-1 51.786037776262631 12.335639869588235 7.1837455716772638 -0.52991927123019833 0 -0.84804809178421925 0.21201202294605481 0 -0.13247981780754958 1 I I -0.70710678118654746 0.70710678118654746 0.25 forward I I I I #
loop $-1 $-1 $248 $65 #
coedge $-1 $156 $156 $249 $250 reversed $98 $-1 #
face $-1 $-1 $251 $52 $-1 $252 forward single #
loop $-1 $253 $254 $100 #
cone-surface $-1 51.786037776262631 15.335427965889458 7.1837455716772638 -0.52991927123019833 0 -0.84804809178421925 0.21201202294605481 0 -0.13247981780754958 1 I I -0.70710678118654746 0.70710678118654746 0.25 forward I I I I #
loop $-1 $-1 $255 $66 #
coedge $-1 $161 $161 $256 $257 reversed $101 $-1 #
face $-1 $258 $259 $53 $-1 $260 reversed single #
loop $-1 $-1 $261 $103 #
plane-surface $-1 -45.555243264386746 26.632118207737278 70.136066873101569 0.52991927123019833 0 0.84804809178421925 0.84804809178421925 0 -0.52991927123019833 forward_v I I I I #
coedge $-1 $262 $263 $264 $265 reversed $104 $-1 #
face $-1 $-1 $266 $54 $-1 $267 forward single #
loop $-1 $268 $269 $106 #
cone-surface $-1 51.786037776262631 25.132224159586663 7.1837455716772638 -0.52991927123019833 0 -0.84804809178421925 0.21201202294605481 0 -0.13247981780754958 1 I I -0.70710678118654746 0.70710678118654746 0.25 forward I I I I #
loop $-1 $-1 $270 $68 #
coedge $-1 $170 $170 $271 $272 reversed $107 $-1 #
face $-1 $-1 $273 $55 $-1 $274 forward single #
loop $-1 $275 $276 $109 #
cone-surface $-1 51.786037776262631 28.132012255887886 7.1837455716772638 -0.52991927123019833 0 -0.84804809178421925 0.21201202294605481 0 -0.13247981780754958 1 I I -0.70710678118654746 0.70710678118654746 0.25 forward I I I I #
loop $-1 $-1 $277 $69 #
coedge $-1 $175 $175 $278 $279 reversed $110 $-1 #
face $-1 $280 $281 $42 $-1 $282 reversed single #
loop $-1 $-1 $283 $112 #
plane-surface $-1 0 -33.349082369462664 0 0 1 0 0 0 1 forward_v I I I I #
coedge $-1 $284 $285 $286 $287 forward $113 $-1 #
coedge $-1 $288 $115 $289 $290 forward $71 $-1 #
coedge $-1 $115 $288 $291 $292 forward $71 $-1 #
coedge $-1 $293 $294 $115 $183 reversed $295 $-1 #
edge $-1 $296 -33.349082369462664 $297 33.349082369462664 $182 $298 forward 7 unknown #
face $-1 $299 $300 $43 $-1 $301 reversed single #
loop $-1 $-1 $302 $116 #
plane-surface $-1 -65.443891720328381 0 0 1 0 0 0 0 -1 forward_v I I I I #
coedge $-1 $303 $304 $305 $306 reversed $117 $-1 #
coedge $-1 $307 $119 $308 $309 reversed $74 $-1 #
coedge $-1 $119 $307 $303 $310 forward $74 $-1 #
coedge $-1 $305 $311 $119 $191 forward $312 $-1 #
edge $-1 $313 -20.552498079464236 $314 -5.0406705005326202 $190 $315 forward 7 unknown #
face $-1 $316 $317 $44 $-1 $318 reversed single #
loop $-1 $-1 $319 $120 #
plane-surface $-1 23.804715549422127 -15.257387441276101 181.1352018578167 0 1 0 0.52991927123019833 0 0.84804809178421925 forward_v I I I I #
coedge $-1 $320 $321 $322 $323 reversed $121 $-1 #
coedge $-1 $197 $123 $324 $325 reversed $77 $-1 #
coedge $-1 $123 $196 $320 $326 reversed $77 $-1 #
coedge $-1 $322 $327 $123 $199 forward $328 $-1 #
edge $-1 $329 -53.541533945617317 $330 -28.137324614652726 $198 $331 forward 7 unknown #
loop $-1 $-1 $205 $124 #
plane-surface $-1 -45.555243264386746 -11.75763466225801 70.136066873101569 0.52991927123019833 0 0.84804809178421925 0.84804809178421925 0 -0.52991927123019833 forward_v I I I I #
loop $-1 $-1 $332 $79 #
coedge $-1 $203 $203 $204 $333 reversed $125 $-1 #
coedge $-1 $204 $204 $203 $333 forward $127 $-1 #
coedge $-1 $205 $205 $128 $206 forward $200 $-1 #
edge $-1 $334 0 $334 6.2831853071796004 $205 $335 forward 7 unknown #
loop $-1 $-1 $212 $129 #
plane-surface $-1 -45.555243264386746 -11.75763466225801 70.136066873101569 0.52991927123019833 0 0.84804809178421925 0.84804809178421925 0 -0.52991927123019833 forward_v I I I I #
loop $-1 $-1 $336 $82 #
coedge $-1 $210 $210 $211 $337 reversed $130 $-1 #
coedge $-1 $211 $211 $210 $337 forward $132 $-1 #
coedge $-1 $212 $212 $133 $213 forward $207 $-1 #
edge $-1 $338 0 $338 6.2831853071796004 $212 $339 forward 7 unknown #
face $-1 $340 $341 $47 $-1 $342 reversed single #
loop $-1 $-1 $343 $134 #
plane-surface $-1 23.804715549422127 -2.4608031512776698 181.1352018578167 0 1 0 0.52991927123019833 0 0.84804809178421925 forward_v I I I I #
coedge $-1 $344 $345 $346 $347 reversed $135 $-1 #
coedge $-1 $219 $137 $348 $349 reversed $86 $-1 #
coedge $-1 $137 $218 $344 $350 reversed $86 $-1 #
coedge $-1 $346 $351 $137 $221 forward $352 $-1 #
edge $-1 $353 -53.541533945617317 $354 -28.137324614652726 $220 $355 forward 7 unknown #
loop $-1 $-1 $227 $138 #
plane-surface $-1 -45.555243264386746 1.038949627740422 70.136066873101569 0.52991927123019833 0 0.84804809178421925 0.84804809178421925 0 -0.52991927123019833 forward_v I I I I #
loop $-1 $-1 $356 $88 #
coedge $-1 $225 $225 $226 $357 reversed $139 $-1 #
coedge $-1 $226 $226 $225 $357 forward $141 $-1 #
coedge $-1 $227 $227 $142 $228 forward $222 $-1 #
edge $-1 $358 0 $358 6.2831853071796004 $227 $359 forward 7 unknown #
loop $-1 $-1 $234 $143 #
plane-surface $-1 -45.555243264386746 1.038949627740422 70.136066873101569 0.52991927123019833 0 0.84804809178421925 0.84804809178421925 0 -0.52991927123019833 forward_v I I I I #
loop $-1 $-1 $360 $91 #
coedge $-1 $232 $232 $233 $361 reversed $144 $-1 #
coedge $-1 $233 $233 $232 $361 forward $146 $-1 #
coedge $-1 $234 $234 $147 $235 forward $229 $-1 #
edge $-1 $362 0 $362 6.2831853071796004 $234 $363 forward 7 unknown #
face $-1 $364 $365 $50 $-1 $366 reversed single #
loop $-1 $-1 $367 $148 #
plane-surface $-1 23.804715549422127 10.335781138720758 181.1352018578167 0 1 0 0.52991927123019833 0 0.84804809178421925 forward_v I I I I #
coedge $-1 $368 $369 $370 $371 reversed $149 $-1 #
coedge $-1 $241 $151 $372 $373 reversed $95 $-1 #
coedge $-1 $151 $240 $368 $374 reversed $95 $-1 #
coedge $-1 $370 $375 $151 $243 forward $376 $-1 #
edge $-1 $377 -53.541533945617317 $378 -28.137324614652726 $242 $379 forward 7 unknown #
loop $-1 $-1 $249 $152 #
plane-surface $-1 -45.555243264386746 13.83553391773885 70.136066873101569 0.52991927123019833 0 0.84804809178421925 0.84804809178421925 0 -0.52991927123019833 forward_v I I I I #
loop $-1 $-1 $380 $97 #
coedge $-1 $247 $247 $248 $381 reversed $153 $-1 #
coedge $-1 $248 $248 $247 $381 forward $155 $-1 #
coedge $-1 $249 $249 $156 $250 forward $244 $-1 #
edge $-1 $382 0 $382 6.2831853071796004 $249 $383 forward 7 unknown #
loop $-1 $-1 $256 $157 #
plane-surface $-1 -45.555243264386746 13.83553391773885 70.136066873101569 0.52991927123019833 0 0.84804809178421925 0.84804809178421925 0 -0.52991927123019833 forward_v I I I I #
loop $-1 $-1 $384 $100 #
coedge $-1 $254 $254 $255 $385 reversed $158 $-1 #
coedge $-1 $255 $255 $254 $385 forward $160 $-1 #
coedge $-1 $256 $256 $161 $257 forward $251 $-1 #
edge $-1 $386 0 $386 6.2831853071796004 $256 $387 forward 7 unknown #
face $-1 $388 $389 $53 $-1 $390 reversed single #
loop $-1 $-1 $391 $162 #
plane-surface $-1 23.804715549422127 23.132365428719186 181.1352018578167 0 1 0 0.52991927123019833 0 0.84804809178421925 forward_v I I I I #
coedge $-1 $392 $393 $394 $395 reversed $163 $-1 #
coedge $-1 $263 $165 $396 $397 reversed $104 $-1 #
coedge $-1 $165 $262 $392 $398 reversed $104 $-1 #
coedge $-1 $394 $399 $165 $265 forward $400 $-1 #
edge $-1 $401 -53.541533945617317 $402 -28.137324614652726 $264 $403 forward 7 unknown #
loop $-1 $-1 $271 $166 #
plane-surface $-1 -45.555243264386746 26.632118207737278 70.136066873101569 0.52991927123019833 0 0.84804809178421925 0.84804809178421925 0 -0.52991927123019833 forward_v I I I I #
loop $-1 $-1 $404 $106 #
coedge $-1 $269 $269 $270 $405 reversed $167 $-1 #
coedge $-1 $270 $270 $269 $405 forward $169 $-1 #
coedge $-1 $271 $271 $170 $272 forward $266 $-1 #
edge $-1 $406 0 $406 6.2831853071796004 $271 $407 forward 7 unknown #
loop $-1 $-1 $278 $171 #
plane-surface $-1 -45.555243264386746 26.632118207737278 70.136066873101569 0.52991927123019833 0 0.84804809178421925 0.84804809178421925 0 -0.52991927123019833 forward_v I I I I #
loop $-1 $-1 $408 $109 #
coedge $-1 $276 $276 $277 $409 reversed $172 $-1 #
coedge $-1 $277 $277 $276 $409 forward $174 $-1 #
coedge $-1 $278 $278 $175 $279 forward $273 $-1 #
edge $-1 $410 0 $410 6.2831853071796004 $278 $411 forward 7 unknown #
face $-1 $412 $413 $42 $-1 $414 reversed single #
loop $-1 $-1 $415 $176 #
plane-surface $-1 -65.443891720328381 0 0 1 0 0 0 0 -1 forward_v I I I I #
coedge $-1 $416 $291 $417 $418 forward $177 $-1 #
coedge $-1 $419 $179 $416 $420 forward $113 $-1 #
coedge $-1 $179 $419 $421 $422 forward $113 $-1 #
coedge $-1 $294 $293 $179 $287 reversed $295 $-1 #
edge $-1 $423 -33.349082369462664 $424 33.349082369462664 $286 $425 forward 7 unknown #
coedge $-1 $181 $180 $426 $427 forward $71 $-1 #
coedge $-1 $428 $429 $180 $290 reversed $413 $-1 #
edge $-1 $297 -65.443891720328381 $430 65.443891720328381 $289 $431 forward 7 unknown #
coedge $-1 $283 $432 $181 $292 reversed $177 $-1 #
edge $-1 $433 -65.443891720328381 $296 65.443891720328381 $291 $434 forward 7 unknown #
coedge $-1 $286 $182 $432 $435 forward $295 $-1 #
coedge $-1 $182 $286 $428 $436 reversed $295 $-1 #
loop $-1 $-1 $293 $412 #
vertex $-1 $183 $437 #
vertex $-1 $183 $438 #
straight-curve $-1 65.443891720328381 0 16.650420171145825 0 1 0 I I #
face $-1 $439 $440 $43 $-1 $441 forward single #
loop $-1 $-1 $308 $184 #
plane-surface $-1 0 -33.349082369462664 0 0 1 0 0 0 1 forward_v I I I I #
coedge $-1 $442 $443 $444 $445 forward $185 $-1 #
coedge $-1 $444 $187 $189 $310 reversed $117 $-1 #
coedge $-1 $187 $444 $446 $447 reversed $117 $-1 #
coedge $-1 $448 $190 $187 $306 forward $312 $-1 #
edge $-1 $314 3.585656067832419 $449 9.9050614248197437 $305 $450 forward 7 unknown #
coedge $-1 $189 $188 $442 $451 reversed $74 $-1 #
coedge $-1 $452 $453 $188 $309 forward $300 $-1 #
edge $-1 $454 -65.443891720328381 $313 65.443891720328381 $308 $455 forward 7 unknown #
edge $-1 $456 -65.443891720328381 $314 65.443891720328381 $303 $457 forward 7 unknown #
coedge $-1 $190 $448 $452 $458 forward $312 $-1 #
loop $-1 $-1 $305 $439 #
vertex $-1 $309 $459 #
vertex $-1 $191 $460 #
straight-curve $-1 65.443891720328381 -12.796584289998428 10.3310148141585 0 1 0 I I #
face $-1 $-1 $328 $44 $-1 $461 forward single #
loop $-1 $-1 $462 $192 #
plane-surface $-1 65.443891720328381 0 0 -1 0 0 0 0 1 forward_v I I I I #
coedge $-1 $463 $464 $465 $466 reversed $193 $-1 #
coedge $-1 $467 $195 $197 $326 forward $121 $-1 #
coedge $-1 $195 $467 $463 $468 forward $121 $-1 #
coedge $-1 $465 $198 $195 $323 forward $328 $-1 #
edge $-1 $330 2.3790645521109131 $469 9.3785701101470966 $322 $470 forward 7 unknown #
coedge $-1 $471 $472 $196 $325 forward $317 $-1 #
edge $-1 $473 -89.791492869615652 $329 -73.917180757762523 $324 $474 forward 7 unknown #
edge $-1 $330 100.9316882886515 $473 130.88778344065679 $197 $475 forward 7 unknown #
coedge $-1 $198 $465 $471 $476 forward $328 $-1 #
loop $-1 $-1 $465 $316 #
vertex $-1 $325 $477 #
vertex $-1 $199 $478 #
straight-curve $-1 11.902357774711064 -8.2578818832399179 16.650420171145825 -1 0 0 I I #
coedge $-1 $332 $332 $-1 $479 reversed $202 $-1 #
edge $-1 $480 0 $480 6.2831853071796004 $203 $481 forward 7 unknown #
vertex $-1 $206 $482 #
ellipse-curve $-1 52.741787054846093 -13.257528710408621 8.7132641152192605 0.52991927123019833 0 0.84804809178421925 0.42402404589210962 0 -0.26495963561509916 1 I I #
coedge $-1 $336 $336 $-1 $483 reversed $209 $-1 #
edge $-1 $484 0 $484 6.2831853071796004 $210 $485 forward 7 unknown #
vertex $-1 $213 $486 #
ellipse-curve $-1 52.741787054846093 -10.257740614107401 8.7132641152192605 0.52991927123019833 0 0.84804809178421925 0.42402404589210962 0 -0.26495963561509916 1 I I #
face $-1 $-1 $352 $47 $-1 $487 forward single #
loop $-1 $-1 $488 $214 #
plane-surface $-1 65.443891720328381 0 0 -1 0 0 0 0 1 forward_v I I I I #
coedge $-1 $489 $490 $491 $492 reversed $215 $-1 #
coedge $-1 $493 $217 $219 $350 forward $135 $-1 #
coedge $-1 $217 $493 $489 $494 forward $135 $-1 #
coedge $-1 $491 $220 $217 $347 forward $352 $-1 #
edge $-1 $354 -4.0192275928883028 $495 2.9802779651478808 $346 $496 forward 7 unknown #
coedge $-1 $497 $498 $218 $349 forward $341 $-1 #
edge $-1 $499 -89.791492869615652 $353 -73.917180757762523 $348 $500 forward 7 unknown #
edge $-1 $354 100.9316882886515 $499 130.88778344065679 $219 $501 forward 7 unknown #
coedge $-1 $220 $491 $497 $502 forward $352 $-1 #
loop $-1 $-1 $491 $340 #
vertex $-1 $349 $503 #
vertex $-1 $221 $504 #
straight-curve $-1 11.902357774711064 4.5387024067585138 16.650420171145825 -1 0 0 I I #
coedge $-1 $356 $356 $-1 $505 reversed $224 $-1 #
edge $-1 $506 0 $506 6.2831853071796004 $225 $507 forward 7 unknown #
vertex $-1 $228 $508 #
ellipse-curve $-1 52.741787054846093 -0.46094442041019335 8.7132641152192605 0.52991927123019833 0 0.84804809178421925 0.42402404589210962 0 -0.26495963561509916 1 I I #
coedge $-1 $360 $360 $-1 $509 reversed $231 $-1 #
edge $-1 $510 0 $510 6.2831853071796004 $232 $511 forward 7 unknown #
vertex $-1 $235 $512 #
ellipse-curve $-1 52.741787054846093 2.5388436758910302 8.7132641152192605 0.52991927123019833 0 0.84804809178421925 0.42402404589210962 0 -0.26495963561509916 1 I I #
face $-1 $-1 $376 $50 $-1 $513 forward single #
loop $-1 $-1 $514 $236 #
plane-surface $-1 65.443891720328381 0 0 -1 0 0 0 0 1 forward_v I I I I #
coedge $-1 $515 $516 $517 $518 reversed $237 $-1 #
coedge $-1 $519 $239 $241 $374 forward $149 $-1 #
coedge $-1 $239 $519 $515 $520 forward $149 $-1 #
coedge $-1 $517 $242 $239 $371 forward $376 $-1 #
edge $-1 $378 -10.417519737887517 $521 -3.4180141798513333 $370 $522 forward 7 unknown #
coedge $-1 $523 $524 $240 $373 forward $365 $-1 #
edge $-1 $525 -89.791492869615652 $377 -73.917180757762523 $372 $526 forward 7 unknown #
edge $-1 $378 100.9316882886515 $525 130.88778344065679 $241 $527 forward 7 unknown #
coedge $-1 $242 $517 $523 $528 forward $376 $-1 #
loop $-1 $-1 $517 $364 #
vertex $-1 $373 $529 #
vertex $-1 $243 $530 #
straight-curve $-1 11.902357774711064 17.335286696756942 16.650420171145825 -1 0 0 I I #
coedge $-1 $380 $380 $-1 $531 reversed $246 $-1 #
edge $-1 $532 0 $532 6.2831853071796004 $247 $533 forward 7 unknown #
vertex $-1 $250 $534 #
ellipse-curve $-1 52.741787054846093 12.335639869588235 8.7132641152192605 0.52991927123019833 0 0.84804809178421925 0.42402404589210962 0 -0.26495963561509916 1 I I #
coedge $-1 $384 $384 $-1 $535 reversed $253 $-1 #
edge $-1 $536 0 $536 6.2831853071796004 $254 $537 forward 7 unknown #
vertex $-1 $257 $538 #
ellipse-curve $-1 52.741787054846093 15.335427965889458 8.7132641152192605 0.52991927123019833 0 0.84804809178421925 0.42402404589210962 0 -0.26495963561509916 1 I I #
face $-1 $-1 $400 $53 $-1 $539 forward single #
loop $-1 $-1 $540 $258 #
plane-surface $-1 65.443891720328381 0 0 -1 0 0 0 0 1 forward_v I I I I #
coedge $-1 $541 $542 $543 $544 reversed $259 $-1 #
coedge $-1 $545 $261 $263 $398 forward $163 $-1 #
coedge $-1 $261 $545 $541 $546 forward $163 $-1 #
coedge $-1 $543 $264 $261 $395 forward $400 $-1 #
edge $-1 $402 -16.815811882886731 $547 -9.8163063248505473 $394 $548 forward 7 unknown #
coedge $-1 $549 $550 $262 $397 forward $389 $-1 #
edge $-1 $551 -89.791492869615652 $401 -73.917180757762523 $396 $552 forward 7 unknown #
edge $-1 $402 100.9316882886515 $551 130.88778344065679 $263 $553 forward 7 unknown #
coedge $-1 $264 $543 $549 $554 forward $400 $-1 #
loop $-1 $-1 $543 $388 #
vertex $-1 $397 $555 #
vertex $-1 $265 $556 #
straight-curve $-1 11.902357774711064 30.13187098675537 16.650420171145825 -1 0 0 I I #
coedge $-1 $404 $404 $-1 $557 reversed $268 $-1 #
edge $-1 $558 0 $558 6.2831853071796004 $269 $559 forward 7 unknown #
vertex $-1 $272 $560 #
ellipse-curve $-1 52.741787054846093 25.132224159586663 8.7132641152192605 0.52991927123019833 0 0.84804809178421925 0.42402404589210962 0 -0.26495963561509916 1 I I #
coedge $-1 $408 $408 $-1 $561 reversed $275 $-1 #
edge $-1 $562 0 $562 6.2831853071796004 $276 $563 forward 7 unknown #
vertex $-1 $279 $564 #
ellipse-curve $-1 52.741787054846093 28.132012255887886 8.7132641152192605 0.52991927123019833 0 0.84804809178421925 0.42402404589210962 0 -0.26495963561509916 1 I I #
face $-1 $-1 $295 $42 $-1 $565 reversed single #
loop $-1 $-1 $428 $280 #
plane-surface $-1 0 33.349082369462664 0 0 -1 0 0 0 -1 forward_v I I I I #
coedge $-1 $566 $426 $429 $567 forward $281 $-1 #
coedge $-1 $432 $283 $284 $420 reversed $177 $-1 #
coedge $-1 $426 $566 $283 $418 reversed $281 $-1 #
edge $-1 $433 -16.650420171145825 $568 16.650420171145825 $417 $569 forward 7 unknown #
coedge $-1 $285 $284 $566 $570 forward $113 $-1 #
edge $-1 $424 -65.443891720328381 $568 65.443891720328381 $416 $571 forward 7 unknown #
coedge $-1 $429 $428 $285 $422 reversed $413 $-1 #
edge $-1 $572 -65.443891720328381 $423 65.443891720328381 $421 $573 forward 7 unknown #
vertex $-1 $287 $574 #
vertex $-1 $435 $575 #
straight-curve $-1 65.443891720328381 0 -16.650420171145825 0 -1 0 I I #
coedge $-1 $415 $417 $288 $427 reversed $281 $-1 #
edge $-1 $430 -33.349082369462664 $433 33.349082369462664 $426 $576 forward 7 unknown #
coedge $-1 $421 $289 $294 $436 forward $413 $-1 #
coedge $-1 $289 $421 $415 $567 reversed $413 $-1 #
vertex $-1 $290 $577 #
straight-curve $-1 0 33.349082369462664 16.650420171145825 -1 0 0 I I #
coedge $-1 $291 $416 $293 $435 reversed $177 $-1 #
vertex $-1 $427 $578 #
straight-curve $-1 0 -33.349082369462664 16.650420171145825 1 0 0 I I #
edge $-1 $296 -16.650420171145825 $424 16.650420171145825 $293 $579 forward 7 unknown #
edge $-1 $297 -16.650420171145825 $423 16.650420171145825 $294 $580 forward 7 unknown #
point $-1 65.443891720328381 -33.349082369462664 16.650420171145825 #
point $-1 65.443891720328381 33.349082369462664 16.650420171145825 #
face $-1 $-1 $312 $43 $-1 $581 reversed single #
loop $-1 $-1 $446 $299 #
plane-surface $-1 0 0 16.650420171145825 0 0 1 1 0 0 forward_v I I I I #
coedge $-1 $582 $302 $307 $451 forward $185 $-1 #
coedge $-1 $302 $582 $583 $584 reversed $185 $-1 #
coedge $-1 $304 $303 $302 $445 reversed $117 $-1 #
edge $-1 $585 -9.9050614248197437 $456 -3.585656067832419 $302 $586 forward 7 unknown #
coedge $-1 $583 $587 $304 $447 forward $440 $-1 #
edge $-1 $449 -65.443891720328381 $585 65.443891720328381 $446 $588 forward 7 unknown #
coedge $-1 $311 $305 $587 $589 reversed $312 $-1 #
vertex $-1 $306 $590 #
straight-curve $-1 65.443891720328381 -17.837254790531048 6.7453587463260813 0 0 1 I I #
edge $-1 $456 5.0406705005326202 $454 20.552498079464236 $442 $591 forward 7 unknown #
coedge $-1 $592 $308 $311 $458 reversed $300 $-1 #
coedge $-1 $308 $592 $582 $593 forward $300 $-1 #
vertex $-1 $309 $594 #
straight-curve $-1 0 -33.349082369462664 10.3310148141585 1 0 0 I I #
vertex $-1 $451 $595 #
straight-curve $-1 0 -17.837254790531048 10.3310148141585 1 0 0 I I #
edge $-1 $596 -16.650420171145825 $313 -10.3310148141585 $311 $597 forward 7 unknown #
point $-1 65.443891720328381 -33.349082369462664 10.3310148141585 #
point $-1 65.443891720328381 -17.837254790531048 10.3310148141585 #
plane-surface $-1 0 0 16.650420171145825 0 0 1 1 0 0 forward_v I I I I #
coedge $-1 $472 $471 $464 $598 forward $317 $-1 #
coedge $-1 $464 $319 $321 $468 reversed $193 $-1 #
coedge $-1 $319 $463 $462 $598 reversed $193 $-1 #
coedge $-1 $327 $322 $319 $466 forward $328 $-1 #
edge $-1 $469 28.137324614652726 $599 53.541533945617317 $465 $600 forward 7 unknown #
coedge $-1 $321 $320 $472 $601 reversed $121 $-1 #
edge $-1 $602 -130.88778344065679 $469 -100.9316882886515 $463 $603 forward 7 unknown #
vertex $-1 $323 $604 #
straight-curve $-1 40.03968238936379 -5.8788173311290048 16.650420171145818 0 -1 0 I I #
coedge $-1 $462 $324 $327 $476 reversed $317 $-1 #
coedge $-1 $324 $462 $467 $601 forward $317 $-1 #
vertex $-1 $325 $605 #
straight-curve $-1 65.443891720328381 -8.2578818832399179 90.567600928908348 0 0 1 I I #
straight-curve $-1 -45.555243264386746 -8.2578818832399179 70.136066873101569 0.84804809178421925 0 -0.52991927123019833 I I #
edge $-1 $599 -15.257387441276101 $329 -8.2578818832399179 $471 $606 forward 7 unknown #
point $-1 65.443891720328381 -8.2578818832399179 16.650420171145825 #
point $-1 40.03968238936379 -8.2578818832399179 16.650420171145825 #
edge $-1 $607 1 $607 0 $332 $-1 forward 7 unknown #
vertex $-1 $333 $608 #
ellipse-curve $-1 51.918517594070181 -13.257528710408621 7.3957575946233183 0.52991927123019833 0 0.84804809178421925 0.42402404589210962 0 -0.26495963561509916 1 I I #
point $-1 53.16581110073821 -13.257528710408621 8.44830447960417 #
edge $-1 $609 1 $609 0 $336 $-1 forward 7 unknown #
vertex $-1 $337 $610 #
ellipse-curve $-1 51.918517594070181 -10.257740614107401 7.3957575946233183 0.52991927123019833 0 0.84804809178421925 0.42402404589210962 0 -0.26495963561509916 1 I I #
point $-1 53.16581110073821 -10.257740614107401 8.44830447960417 #
plane-surface $-1 0 0 16.650420171145825 0 0 1 1 0 0 forward_v I I I I #
coedge $-1 $498 $497 $490 $611 forward $341 $-1 #
coedge $-1 $490 $343 $345 $494 reversed $215 $-1 #
coedge $-1 $343 $489 $488 $611 reversed $215 $-1 #
coedge $-1 $351 $346 $343 $492 forward $352 $-1 #
edge $-1 $495 28.137324614652726 $612 53.541533945617317 $491 $613 forward 7 unknown #
coedge $-1 $345 $344 $498 $614 reversed $135 $-1 #
edge $-1 $615 -130.88778344065679 $495 -100.9316882886515 $489 $616 forward 7 unknown #
vertex $-1 $347 $617 #
straight-curve $-1 40.03968238936379 0.51947481387021099 16.650420171145818 0 -1 0 I I #
coedge $-1 $488 $348 $351 $502 reversed $341 $-1 #
coedge $-1 $348 $488 $493 $614 forward $341 $-1 #
vertex $-1 $349 $618 #
straight-curve $-1 65.443891720328381 4.5387024067585138 90.567600928908348 0 0 1 I I #
straight-curve $-1 -45.555243264386746 4.5387024067585138 70.136066873101569 0.84804809178421925 0 -0.52991927123019833 I I #
edge $-1 $612 -2.4608031512776698 $353 4.5387024067585138 $497 $619 forward 7 unknown #
point $-1 65.443891720328381 4.5387024067585138 16.650420171145825 #
point $-1 40.03968238936379 4.5387024067585138 16.650420171145825 #
edge $-1 $620 1 $620 0 $356 $-1 forward 7 unknown #
vertex $-1 $357 $621 #
ellipse-curve $-1 51.918517594070181 -0.46094442041019335 7.3957575946233183 0.52991927123019833 0 0.84804809178421925 0.42402404589210962 0 -0.26495963561509916 1 I I #
point $-1 53.16581110073821 -0.46094442041019335 8.44830447960417 #
edge $-1 $622 1 $622 0 $360 $-1 forward 7 unknown #
vertex $-1 $361 $623 #
ellipse-curve $-1 51.918517594070181 2.5388436758910302 7.3957575946233183 0.52991927123019833 0 0.84804809178421925 0.42402404589210962 0 -0.26495963561509916 1 I I #
point $-1 53.16581110073821 2.5388436758910302 8.44830447960417 #
plane-surface $-1 0 0 16.650420171145825 0 0 1 1 0 0 forward_v I I I I #
coedge $-1 $524 $523 $516 $624 forward $365 $-1 #
coedge $-1 $516 $367 $369 $520 reversed $237 $-1 #
coedge $-1 $367 $515 $514 $624 reversed $237 $-1 #
coedge $-1 $375 $370 $367 $518 forward $376 $-1 #
edge $-1 $521 28.137324614652726 $625 53.541533945617317 $517 $626 forward 7 unknown #
coedge $-1 $369 $368 $524 $627 reversed $149 $-1 #
edge $-1 $628 -130.88778344065679 $521 -100.9316882886515 $515 $629 forward 7 unknown #
vertex $-1 $371 $630 #
straight-curve $-1 40.03968238936379 6.9177669588694251 16.650420171145818 0 -1 0 I I #
coedge $-1 $514 $372 $375 $528 reversed $365 $-1 #
coedge $-1 $372 $514 $519 $627 forward $365 $-1 #
vertex $-1 $373 $631 #
straight-curve $-1 65.443891720328381 17.335286696756942 90.567600928908348 0 0 1 I I #
straight-curve $-1 -45.555243264386746 17.335286696756942 70.136066873101569 0.84804809178421925 0 -0.52991927123019833 I I #
edge $-1 $625 10.335781138720758 $377 17.335286696756942 $523 $632 forward 7 unknown #
point $-1 65.443891720328381 17.335286696756942 16.650420171145825 #
point $-1 40.03968238936379 17.335286696756942 16.650420171145825 #
edge $-1 $633 1 $633 0 $380 $-1 forward 7 unknown #
vertex $-1 $381 $634 #
ellipse-curve $-1 51.918517594070181 12.335639869588235 7.3957575946233183 0.52991927123019833 0 0.84804809178421925 0.42402404589210962 0 -0.26495963561509916 1 I I #
point $-1 53.16581110073821 12.335639869588235 8.44830447960417 #
edge $-1 $635 1 $635 0 $384 $-1 forward 7 unknown #
vertex $-1 $385 $636 #
ellipse-curve $-1 51.918517594070181 15.335427965889458 7.3957575946233183 0.52991927123019833 0 0.84804809178421925 0.42402404589210962 0 -0.26495963561509916 1 I I #
point $-1 53.16581110073821 15.335427965889458 8.44830447960417 #
plane-surface $-1 0 0 16.650420171145825 0 0 1 1 0 0 forward_v I I I I #
coedge $-1 $550 $549 $542 $637 forward $389 $-1 #
coedge $-1 $542 $391 $393 $546 reversed $259 $-1 #
coedge $-1 $391 $541 $540 $637 reversed $259 $-1 #
coedge $-1 $399 $394 $391 $544 forward $400 $-1 #
edge $-1 $547 28.137324614652726 $638 53.541533945617317 $543 $639 forward 7 unknown #
coedge $-1 $393 $392 $550 $640 reversed $163 $-1 #
edge $-1 $641 -130.88778344065679 $547 -100.9316882886515 $541 $642 forward 7 unknown #
vertex $-1 $395 $643 #
straight-curve $-1 40.03968238936379 13.316059103868639 16.650420171145818 0 -1 0 I I #
coedge $-1 $540 $396 $399 $554 reversed $389 $-1 #
coedge $-1 $396 $540 $545 $640 forward $389 $-1 #
vertex $-1 $397 $644 #
straight-curve $-1 65.443891720328381 30.13187098675537 90.567600928908348 0 0 1 I I #
straight-curve $-1 -45.555243264386746 30.13187098675537 70.136066873101569 0.84804809178421925 0 -0.52991927123019833 I I #
edge $-1 $638 23.132365428719186 $401 30.13187098675537 $549 $645 forward 7 unknown #
point $-1 65.443891720328381 30.13187098675537 16.650420171145825 #
point $-1 40.03968238936379 30.13187098675537 16.650420171145825 #
edge $-1 $646 1 $646 0 $404 $-1 forward 7 unknown #
vertex $-1 $405 $647 #
ellipse-curve $-1 51.918517594070181 25.132224159586663 7.3957575946233183 0.52991927123019833 0 0.84804809178421925 0.42402404589210962 0 -0.26495963561509916 1 I I #
point $-1 53.16581110073821 25.132224159586663 8.44830447960417 #
edge $-1 $648 1 $648 0 $408 $-1 forward 7 unknown #
vertex $-1 $409 $649 #
ellipse-curve $-1 51.918517594070181 28.132012255887886 7.3957575946233183 0.52991927123019833 0 0.84804809178421925 0.42402404589210962 0 -0.26495963561509916 1 I I #
point $-1 53.16581110073821 28.132012255887886 8.44830447960417 #
plane-surface $-1 65.443891720328381 0 0 -1 0 0 0 0 1 forward_v I I I I #
coedge $-1 $417 $415 $419 $570 reversed $281 $-1 #
edge $-1 $430 -16.650420171145825 $572 16.650420171145825 $429 $650 forward 7 unknown #
vertex $-1 $570 $651 #
straight-curve $-1 -65.443891720328381 -33.349082369462664 0 0 0 -1 I I #
edge $-1 $568 -33.349082369462664 $572 33.349082369462664 $566 $652 forward 7 unknown #
straight-curve $-1 0 -33.349082369462664 -16.650420171145825 -1 0 0 I I #
vertex $-1 $422 $653 #
straight-curve $-1 0 33.349082369462664 -16.650420171145825 1 0 0 I I #
point $-1 65.443891720328381 33.349082369462664 -16.650420171145825 #
point $-1 65.443891720328381 -33.349082369462664 -16.650420171145825 #
straight-curve $-1 -65.443891720328381 0 16.650420171145825 0 -1 0 I I #
point $-1 -65.443891720328381 33.349082369462664 16.650420171145825 #
point $-1 -65.443891720328381 -33.349082369462664 16.650420171145825 #
straight-curve $-1 65.443891720328381 -33.349082369462664 0 0 0 -1 I I #
straight-curve $-1 65.443891720328381 33.349082369462664 0 0 0 -1 I I #
plane-surface $-1 65.443891720328381 0 0 -1 0 0 0 0 1 forward_v I I I I #
coedge $-1 $443 $442 $453 $593 reversed $185 $-1 #
coedge $-1 $654 $446 $443 $584 forward $440 $-1 #
edge $-1 $585 17.837254790531048 $655 33.349082369462664 $443 $656 forward 7 unknown #
vertex $-1 $584 $657 #
straight-curve $-1 -65.443891720328381 -17.837254790531048 6.7453587463260813 0 0 -1 I I #
coedge $-1 $446 $654 $448 $589 forward $440 $-1 #
straight-curve $-1 0 -17.837254790531048 16.650420171145825 -1 0 0 I I #
edge $-1 $596 -33.349082369462664 $449 -17.837254790531048 $448 $658 forward 7 unknown #
point $-1 65.443891720328381 -17.837254790531048 16.650420171145825 #
straight-curve $-1 -65.443891720328381 -12.796584289998428 10.3310148141585 0 -1 0 I I #
coedge $-1 $453 $452 $654 $659 reversed $300 $-1 #
edge $-1 $655 -16.650420171145825 $454 -10.3310148141585 $582 $660 forward 7 unknown #
point $-1 -65.443891720328381 -33.349082369462664 10.3310148141585 #
point $-1 -65.443891720328381 -17.837254790531048 10.3310148141585 #
vertex $-1 $589 $661 #
straight-curve $-1 65.443891720328381 -33.349082369462664 0 0 0 -1 I I #
edge $-1 $599 73.917180757762523 $602 89.791492869615652 $462 $662 forward 7 unknown #
vertex $-1 $476 $663 #
straight-curve $-1 11.902357774711064 -15.257387441276101 16.650420171145825 1 0 0 I I #
edge $-1 $602 -9.3785701101470966 $473 -2.3790645521109131 $472 $664 forward 7 unknown #
vertex $-1 $601 $665 #
straight-curve $-1 -45.555243264386746 -15.257387441276101 70.136066873101569 -0.84804809178421925 0 0.52991927123019833 I I #
point $-1 40.03968238936379 -15.257387441276101 16.650420171145825 #
point $-1 65.443891720328381 -8.2578818832399179 0.77610805929269588 #
straight-curve $-1 65.443891720328381 0 16.650420171145825 0 1 0 I I #
vertex $-1 $479 $666 #
point $-1 52.342541639962292 -13.257528710408621 7.1307979590082198 #
vertex $-1 $483 $667 #
point $-1 52.342541639962292 -10.257740614107401 7.1307979590082198 #
edge $-1 $612 73.917180757762523 $615 89.791492869615652 $488 $668 forward 7 unknown #
vertex $-1 $502 $669 #
straight-curve $-1 11.902357774711064 -2.4608031512776698 16.650420171145825 1 0 0 I I #
edge $-1 $615 -2.9802779651478808 $499 4.0192275928883028 $498 $670 forward 7 unknown #
vertex $-1 $614 $671 #
straight-curve $-1 -45.555243264386746 -2.4608031512776698 70.136066873101569 -0.84804809178421925 0 0.52991927123019833 I I #
point $-1 40.03968238936379 -2.4608031512776698 16.650420171145825 #
point $-1 65.443891720328381 4.5387024067585138 0.77610805929269588 #
straight-curve $-1 65.443891720328381 0 16.650420171145825 0 1 0 I I #
vertex $-1 $505 $672 #
point $-1 52.342541639962292 -0.46094442041019335 7.1307979590082198 #
vertex $-1 $509 $673 #
point $-1 52.342541639962292 2.5388436758910302 7.1307979590082198 #
edge $-1 $625 73.917180757762523 $628 89.791492869615652 $514 $674 forward 7 unknown #
vertex $-1 $528 $675 #
straight-curve $-1 11.902357774711064 10.335781138720758 16.650420171145825 1 0 0 I I #
edge $-1 $628 3.4180141798513333 $525 10.417519737887517 $524 $676 forward 7 unknown #
vertex $-1 $627 $677 #
straight-curve $-1 -45.555243264386746 10.335781138720758 70.136066873101569 -0.84804809178421925 0 0.52991927123019833 I I #
point $-1 40.03968238936379 10.335781138720758 16.650420171145825 #
point $-1 65.443891720328381 17.335286696756942 0.77610805929269588 #
straight-curve $-1 65.443891720328381 0 16.650420171145825 0 1 0 I I #
vertex $-1 $531 $678 #
point $-1 52.342541639962292 12.335639869588235 7.1307979590082198 #
vertex $-1 $535 $679 #
point $-1 52.342541639962292 15.335427965889458 7.1307979590082198 #
edge $-1 $638 73.917180757762523 $641 89.791492869615652 $540 $680 forward 7 unknown #
vertex $-1 $554 $681 #
straight-curve $-1 11.902357774711064 23.132365428719186 16.650420171145825 1 0 0 I I #
edge $-1 $641 9.8163063248505473 $551 16.815811882886731 $550 $682 forward 7 unknown #
vertex $-1 $640 $683 #
straight-curve $-1 -45.555243264386746 23.132365428719186 70.136066873101569 -0.84804809178421925 0 0.52991927123019833 I I #
point $-1 40.03968238936379 23.132365428719186 16.650420171145825 #
point $-1 65.443891720328381 30.13187098675537 0.77610805929269588 #
straight-curve $-1 65.443891720328381 0 16.650420171145825 0 1 0 I I #
vertex $-1 $557 $684 #
point $-1 52.342541639962292 25.132224159586663 7.1307979590082198 #
vertex $-1 $561 $685 #
point $-1 52.342541639962292 28.132012255887886 7.1307979590082198 #
straight-curve $-1 -65.443891720328381 33.349082369462664 0 0 0 -1 I I #
point $-1 -65.443891720328381 -33.349082369462664 -16.650420171145825 #
straight-curve $-1 -65.443891720328381 0 -16.650420171145825 0 1 0 I I #
point $-1 -65.443891720328381 33.349082369462664 -16.650420171145825 #
coedge $-1 $587 $583 $592 $659 forward $440 $-1 #
vertex $-1 $584 $686 #
straight-curve $-1 -65.443891720328381 0 16.650420171145825 0 -1 0 I I #
point $-1 -65.443891720328381 -17.837254790531048 16.650420171145825 #
straight-curve $-1 65.443891720328381 0 16.650420171145825 0 1 0 I I #
edge $-1 $655 -65.443891720328381 $596 65.443891720328381 $592 $687 forward 7 unknown #
straight-curve $-1 -65.443891720328381 -33.349082369462664 0 0 0 -1 I I #
point $-1 65.443891720328381 -33.349082369462664 16.650420171145825 #
straight-curve $-1 65.443891720328381 -15.257387441276101 90.567600928908348 0 0 -1 I I #
point $-1 65.443891720328381 -15.257387441276101 16.650420171145825 #
straight-curve $-1 65.443891720328395 -5.8788173311290048 0.77610805929270299 0 1 0 I I #
point $-1 65.443891720328381 -15.257387441276101 0.77610805929269588 #
point $-1 51.653557958455082 -13.257528710408621 6.9717335487312093 #
point $-1 51.653557958455082 -10.257740614107401 6.9717335487312093 #
straight-curve $-1 65.443891720328381 -2.4608031512776698 90.567600928908348 0 0 -1 I I #
point $-1 65.443891720328381 -2.4608031512776698 16.650420171145825 #
straight-curve $-1 65.443891720328395 0.51947481387021099 0.77610805929270299 0 1 0 I I #
point $-1 65.443891720328381 -2.4608031512776698 0.77610805929269588 #
point $-1 51.653557958455082 -0.46094442041019335 6.9717335487312093 #
point $-1 51.653557958455082 2.5388436758910302 6.9717335487312093 #
straight-curve $-1 65.443891720328381 10.335781138720758 90.567600928908348 0 0 -1 I I #
point $-1 65.443891720328381 10.335781138720758 16.650420171145825 #
straight-curve $-1 65.443891720328395 6.9177669588694251 0.77610805929270299 0 1 0 I I #
point $-1 65.443891720328381 10.335781138720758 0.77610805929269588 #
point $-1 51.653557958455082 12.335639869588235 6.9717335487312093 #
point $-1 51.653557958455082 15.335427965889458 6.9717335487312093 #
straight-curve $-1 65.443891720328381 23.132365428719186 90.567600928908348 0 0 -1 I I #
point $-1 65.443891720328381 23.132365428719186 16.650420171145825 #
straight-curve $-1 65.443891720328395 13.316059103868639 0.77610805929270299 0 1 0 I I #
point $-1 65.443891720328381 23.132365428719186 0.77610805929269588 #
point $-1 51.653557958455082 25.132224159586663 6.9717335487312093 #
point $-1 51.653557958455082 28.132012255887886 6.9717335487312093 #
point $-1 -65.443891720328381 -33.349082369462664 16.650420171145825 #
straight-curve $-1 0 -33.349082369462664 16.650420171145825 1 0 0 I I #
End-of-ACIS-data 