500 0 7 0           
7 Unknown 11 ACIS 5.0 NT 24 Fri Mar 26 17:18:23 1999 
-1 9.9999999999999995e-007 1e-010 
body $-1 $7 $-1 $8 #
body $-1 $9 $-1 $10 #
body $-1 $11 $-1 $12 #
body $-1 $13 $-1 $14 #
body $-1 $15 $-1 $16 #
body $-1 $17 $-1 $18 #
body $-1 $19 $-1 $20 #
lump $-1 $-1 $21 $0 #
transform $-1 1 0 0 0 1 0 0 0 1 48.244880520035402 19.805917043959234 4.8874380942425484 1 rotate no_reflect no_shear #
lump $-1 $-1 $22 $1 #
transform $-1 1 0 0 0 1 0 0 0 1 48.244880520035402 19.805917043959234 4.8874380942425484 1 rotate no_reflect no_shear #
lump $-1 $-1 $23 $2 #
transform $-1 1 0 0 0 1 0 0 0 1 48.244880520035402 19.805917043959234 4.8874380942425484 1 rotate no_reflect no_shear #
lump $-1 $-1 $24 $3 #
transform $-1 1 0 0 0 1 0 0 0 1 48.244880520035402 19.805917043959234 4.8874380942425484 1 rotate no_reflect no_shear #
lump $-1 $-1 $25 $4 #
transform $-1 1 0 0 0 1 0 0 0 1 48.244880520035402 19.805917043959234 4.8874380942425484 1 rotate no_reflect no_shear #
lump $-1 $-1 $26 $5 #
transform $-1 1 0 0 0 1 0 0 0 1 48.244880520035402 19.805917043959234 4.8874380942425484 1 rotate no_reflect no_shear #
lump $-1 $-1 $27 $6 #
transform $-1 1 0 0 0 1 0 0 0 1 48.244880520035402 19.805917043959234 4.8874380942425484 1 rotate no_reflect no_shear #
shell $-1 $-1 $-1 $28 $-1 $7 #
shell $-1 $-1 $-1 $29 $-1 $9 #
shell $-1 $-1 $-1 $30 $-1 $11 #
shell $-1 $-1 $-1 $31 $-1 $13 #
shell $-1 $-1 $-1 $32 $-1 $15 #
shell $-1 $-1 $-1 $33 $-1 $17 #
shell $-1 $-1 $-1 $34 $-1 $19 #
face $-1 $35 $36 $21 $-1 $37 forward single #
face $-1 $38 $39 $22 $-1 $40 forward single #
face $-1 $41 $42 $23 $-1 $43 reversed single #
face $-1 $44 $45 $24 $-1 $46 forward single #
face $-1 $47 $48 $25 $-1 $49 reversed single #
face $-1 $50 $51 $26 $-1 $52 forward single #
face $-1 $53 $54 $27 $-1 $55 forward single #
face $-1 $56 $57 $21 $-1 $58 reversed single #
loop $-1 $-1 $59 $28 #
plane-surface $-1 0 0 4.8874380942425484 0 0 1 1 0 0 forward_v I I I I #
face $-1 $60 $61 $22 $-1 $62 reversed single #
loop $-1 $-1 $63 $29 #
plane-surface $-1 0 -19.805917043959234 0 0 1 0 0 0 1 forward_v I I I I #
face $-1 $64 $65 $23 $-1 $66 reversed single #
loop $-1 $-1 $67 $30 #
plane-surface $-1 -115.27230147753366 6.1337583148984667 69.430179744109068 0 1 0 -0.69465837861970381 0 0.71933979245794832 forward_v I I I I #
face $-1 $68 $69 $24 $-1 $70 forward single #
loop $-1 $71 $72 $31 #
cone-surface $-1 -45.335335891573642 10.419779957295486 2.0504849346433272 0.69465837861970381 0 -0.71933979245794832 0.71933979245794832 0 0.69465837861970381 1 I I 0 1 1 forward I I I I #
face $-1 $73 $74 $25 $-1 $75 reversed single #
loop $-1 $-1 $76 $32 #
plane-surface $-1 17.54870664481836 -2.3189064505476615 134.43797650404281 0 -1 0 -0.52991927123019833 0 -0.84804809178421925 forward_v I I I I #
face $-1 $77 $78 $26 $-1 $79 forward single #
loop $-1 $80 $81 $33 #
cone-surface $-1 45.013555216392881 -6.9199851449809309 2.3772399970199176 -0.52991927123019833 0 -0.84804809178421925 0.42402404589210962 0 -0.26495963561509916 1 I I 0 1 0.5 forward I I I I #
face $-1 $82 $83 $27 $-1 $84 forward single #
loop $-1 $85 $86 $34 #
cone-surface $-1 45.013555216392881 -4.1593379283209693 2.3772399970199176 -0.52991927123019833 0 -0.84804809178421925 0.42402404589210962 0 -0.26495963561509916 1 I I 0 1 0.5 forward I I I I #
face $-1 $87 $88 $21 $-1 $89 reversed single #
loop $-1 $-1 $90 $35 #
plane-surface $-1 0 0 -4.8874380942425484 0 0 1 1 0 0 forward_v I I I I #
coedge $-1 $91 $92 $93 $94 forward $36 $-1 #
face $-1 $95 $96 $22 $-1 $97 forward single #
loop $-1 $-1 $98 $38 #
plane-surface $-1 -48.244880520035402 0 0 1 0 0 0 0 -1 forward_v I I I I #
coedge $-1 $99 $100 $101 $102 forward $39 $-1 #
face $-1 $103 $104 $23 $-1 $105 reversed single #
loop $-1 $-1 $106 $41 #
plane-surface $-1 -48.244880520035409 10.419779957295482 0.021255063227513915 -0.69465837861970381 0 0.71933979245794832 0.71933979245794832 0 0.69465837861970381 forward_v I I I I #
coedge $-1 $107 $108 $109 $110 reversed $42 $-1 #
face $-1 $-1 $111 $24 $-1 $112 forward single #
loop $-1 $113 $114 $44 #
cone-surface $-1 -44.598002037134933 10.419779957295486 1.2869533943226559 0.69465837861970381 0 -0.71933979245794832 0.35966989622897416 0 0.3473291893098519 1 I I -0.70710678118654746 0.70710678118654746 0.5 forward I I I I #
loop $-1 $-1 $115 $31 #
coedge $-1 $72 $72 $116 $117 reversed $45 $-1 #
face $-1 $118 $119 $25 $-1 $120 reversed single #
loop $-1 $-1 $121 $47 #
plane-surface $-1 -33.583077206711941 -5.5396615366509501 52.610018777295465 0.52991927123019833 0 0.84804809178421925 0.84804809178421925 0 -0.52991927123019833 forward_v I I I I #
coedge $-1 $122 $123 $124 $125 reversed $48 $-1 #
face $-1 $-1 $126 $26 $-1 $127 forward single #
loop $-1 $128 $129 $50 #
cone-surface $-1 44.377682818374616 -6.9199851449809309 1.3596314610899318 -0.52991927123019833 0 -0.84804809178421925 0.21201202294605481 0 -0.13247981780754958 1 I I -0.70710678118654746 0.70710678118654746 0.25 forward I I I I #
loop $-1 $-1 $130 $33 #
coedge $-1 $81 $81 $131 $132 reversed $51 $-1 #
face $-1 $-1 $133 $27 $-1 $134 forward single #
loop $-1 $135 $136 $53 #
cone-surface $-1 44.377682818374616 -4.1593379283209693 1.3596314610899318 -0.52991927123019833 0 -0.84804809178421925 0.21201202294605481 0 -0.13247981780754958 1 I I -0.70710678118654746 0.70710678118654746 0.25 forward I I I I #
loop $-1 $-1 $137 $34 #
coedge $-1 $86 $86 $138 $139 reversed $54 $-1 #
face $-1 $140 $141 $21 $-1 $142 reversed single #
loop $-1 $-1 $143 $56 #
plane-surface $-1 0 -19.805917043959234 0 0 1 0 0 0 1 forward_v I I I I #
coedge $-1 $144 $145 $146 $147 forward $57 $-1 #
coedge $-1 $148 $59 $149 $150 forward $36 $-1 #
coedge $-1 $59 $148 $151 $152 forward $36 $-1 #
coedge $-1 $153 $154 $59 $94 reversed $155 $-1 #
edge $-1 $156 -19.805917043959234 $157 19.805917043959234 $93 $158 forward 7 unknown #
face $-1 $159 $160 $22 $-1 $161 reversed single #
loop $-1 $-1 $162 $60 #
plane-surface $-1 0 -22.794868762928896 2.0248580341340192 0 0 1 1 0 0 forward_v I I I I #
coedge $-1 $163 $164 $100 $165 forward $61 $-1 #
coedge $-1 $166 $63 $167 $168 reversed $39 $-1 #
coedge $-1 $63 $166 $98 $165 reversed $39 $-1 #
coedge $-1 $169 $162 $63 $102 reversed $96 $-1 #
edge $-1 $170 -48.244880520035402 $171 48.244880520035402 $101 $172 forward 7 unknown #
face $-1 $173 $174 $23 $-1 $175 forward single #
loop $-1 $-1 $176 $64 #
plane-surface $-1 -115.27230147753366 14.705801599692498 69.430179744109068 0 -1 0 0.69465837861970381 0 -0.71933979245794832 forward_v I I I I #
coedge $-1 $177 $178 $179 $180 reversed $65 $-1 #
coedge $-1 $108 $67 $181 $182 reversed $42 $-1 #
coedge $-1 $67 $107 $177 $183 reversed $42 $-1 #
coedge $-1 $179 $184 $67 $110 forward $174 $-1 #
edge $-1 $185 9.3912702187314281 $186 14.430350145397199 $109 $187 forward 7 unknown #
loop $-1 $-1 $116 $68 #
plane-surface $-1 -48.244880520035409 10.419779957295482 0.021255063227513915 -0.69465837861970381 0 0.71933979245794832 0.71933979245794832 0 0.69465837861970381 forward_v I I I I #
loop $-1 $-1 $188 $44 #
coedge $-1 $114 $114 $115 $189 reversed $69 $-1 #
coedge $-1 $115 $115 $114 $189 forward $71 $-1 #
coedge $-1 $116 $116 $72 $117 forward $111 $-1 #
edge $-1 $190 0 $190 6.2831853071796004 $116 $191 forward 7 unknown #
face $-1 $192 $193 $25 $-1 $194 reversed single #
loop $-1 $-1 $195 $73 #
plane-surface $-1 17.54870664481836 -8.7604166227542386 134.43797650404281 0 1 0 0.52991927123019833 0 0.84804809178421925 forward_v I I I I #
coedge $-1 $196 $197 $198 $199 reversed $74 $-1 #
coedge $-1 $123 $76 $200 $201 reversed $48 $-1 #
coedge $-1 $76 $122 $196 $202 reversed $48 $-1 #
coedge $-1 $198 $203 $76 $125 forward $204 $-1 #
edge $-1 $205 -39.470527197626225 $206 -34.014661750762656 $124 $207 forward 7 unknown #
loop $-1 $-1 $131 $77 #
plane-surface $-1 -33.583077206711941 -5.5396615366509501 52.610018777295465 0.52991927123019833 0 0.84804809178421925 0.84804809178421925 0 -0.52991927123019833 forward_v I I I I #
loop $-1 $-1 $208 $50 #
coedge $-1 $129 $129 $130 $209 reversed $78 $-1 #
coedge $-1 $130 $130 $129 $209 forward $80 $-1 #
coedge $-1 $131 $131 $81 $132 forward $126 $-1 #
edge $-1 $210 0 $210 6.2831853071796004 $131 $211 forward 7 unknown #
loop $-1 $-1 $138 $82 #
plane-surface $-1 -33.583077206711941 -5.5396615366509501 52.610018777295465 0.52991927123019833 0 0.84804809178421925 0.84804809178421925 0 -0.52991927123019833 forward_v I I I I #
loop $-1 $-1 $212 $53 #
coedge $-1 $136 $136 $137 $213 reversed $83 $-1 #
coedge $-1 $137 $137 $136 $213 forward $85 $-1 #
coedge $-1 $138 $138 $86 $139 forward $133 $-1 #
edge $-1 $214 0 $214 6.2831853071796004 $138 $215 forward 7 unknown #
face $-1 $216 $217 $21 $-1 $218 reversed single #
loop $-1 $-1 $219 $87 #
plane-surface $-1 -48.244880520035402 0 0 1 0 0 0 0 -1 forward_v I I I I #
coedge $-1 $220 $151 $221 $222 forward $88 $-1 #
coedge $-1 $223 $90 $220 $224 forward $57 $-1 #
coedge $-1 $90 $223 $225 $226 forward $57 $-1 #
coedge $-1 $154 $153 $90 $147 reversed $155 $-1 #
edge $-1 $227 -19.805917043959234 $228 19.805917043959234 $146 $229 forward 7 unknown #
coedge $-1 $92 $91 $230 $231 forward $36 $-1 #
coedge $-1 $232 $233 $91 $150 reversed $217 $-1 #
edge $-1 $157 -48.244880520035402 $234 48.244880520035402 $149 $235 forward 7 unknown #
coedge $-1 $143 $236 $92 $152 reversed $88 $-1 #
edge $-1 $237 -48.244880520035402 $156 48.244880520035402 $151 $238 forward 7 unknown #
coedge $-1 $146 $93 $236 $239 forward $155 $-1 #
coedge $-1 $93 $146 $232 $240 reversed $155 $-1 #
loop $-1 $-1 $153 $216 #
vertex $-1 $94 $241 #
vertex $-1 $94 $242 #
straight-curve $-1 48.244880520035402 0 4.8874380942425484 0 1 0 I I #
face $-1 $243 $244 $22 $-1 $245 reversed single #
loop $-1 $-1 $246 $95 #
plane-surface $-1 0 -22.794868762928896 -0.97514196586598056 0 0 1 1 0 0 forward_v I I I I #
coedge $-1 $101 $247 $248 $249 forward $96 $-1 #
coedge $-1 $250 $98 $251 $252 reversed $61 $-1 #
coedge $-1 $98 $250 $169 $253 reversed $61 $-1 #
edge $-1 $170 -2.0248580341340192 $254 0.97514196586598056 $98 $255 forward 7 unknown #
coedge $-1 $100 $99 $256 $257 forward $39 $-1 #
coedge $-1 $248 $258 $99 $168 forward $259 $-1 #
edge $-1 $260 -0.97514196586598056 $171 2.0248580341340192 $167 $261 forward 7 unknown #
coedge $-1 $247 $101 $164 $253 forward $96 $-1 #
vertex $-1 $165 $262 #
vertex $-1 $249 $263 #
straight-curve $-1 0 -19.805917043959234 2.0248580341340192 1 0 0 I I #
face $-1 $-1 $264 $23 $-1 $265 reversed single #
loop $-1 $-1 $109 $103 #
plane-surface $-1 0 0 4.8874380942425484 0 0 1 1 0 0 forward_v I I I I #
coedge $-1 $266 $267 $268 $269 reversed $104 $-1 #
coedge $-1 $270 $106 $108 $183 forward $65 $-1 #
coedge $-1 $106 $270 $266 $271 forward $65 $-1 #
coedge $-1 $268 $109 $106 $180 forward $174 $-1 #
edge $-1 $186 0.92386833625072562 $272 9.4959116210447565 $179 $273 forward 7 unknown #
coedge $-1 $274 $275 $107 $182 forward $264 $-1 #
edge $-1 $276 -34.693834808827013 $185 -29.827651777811987 $181 $277 forward 7 unknown #
edge $-1 $186 -7.0051455230183937 $276 -9.8783556607683496e-015 $108 $278 forward 7 unknown #
coedge $-1 $109 $268 $274 $279 forward $174 $-1 #
vertex $-1 $182 $280 #
vertex $-1 $110 $281 #
straight-curve $-1 -57.63615073876683 6.1337583148984667 4.8874380942425475 1 0 0 I I #
coedge $-1 $188 $188 $-1 $282 reversed $113 $-1 #
edge $-1 $283 0 $283 6.2831853071796004 $114 $284 forward 7 unknown #
vertex $-1 $117 $285 #
ellipse-curve $-1 -45.725340556702513 10.419779957295486 2.4543465787350365 -0.69465837861970381 0 0.71933979245794832 0.71933979245794832 0 0.69465837861970381 1 I I #
face $-1 $-1 $204 $25 $-1 $286 forward single #
loop $-1 $-1 $287 $118 #
plane-surface $-1 48.244880520035402 0 0 -1 0 0 0 0 1 forward_v I I I I #
coedge $-1 $288 $289 $290 $291 reversed $119 $-1 #
coedge $-1 $292 $121 $123 $202 forward $74 $-1 #
coedge $-1 $121 $292 $288 $293 forward $74 $-1 #
coedge $-1 $290 $124 $121 $199 forward $204 $-1 #
edge $-1 $206 -0.4509243177778135 $294 5.9905858544287636 $198 $295 forward 7 unknown #
coedge $-1 $296 $297 $122 $201 forward $193 $-1 #
edge $-1 $298 -65.74075332625624 $205 -62.331550157778857 $200 $299 forward 7 unknown #
edge $-1 $206 90.056322300311479 $298 96.489761040070803 $123 $300 forward 7 unknown #
coedge $-1 $124 $290 $296 $301 forward $204 $-1 #
loop $-1 $-1 $290 $192 #
vertex $-1 $201 $302 #
vertex $-1 $125 $303 #
straight-curve $-1 8.7743533224091799 -2.3189064505476615 4.8874380942425546 -1 0 0 I I #
coedge $-1 $208 $208 $-1 $304 reversed $128 $-1 #
edge $-1 $305 0 $305 6.2831853071796004 $129 $306 forward 7 unknown #
vertex $-1 $132 $307 #
ellipse-curve $-1 45.51694779660361 -6.9199851449809309 3.1828365100038671 0.52991927123019833 0 0.84804809178421925 0.42402404589210962 0 -0.26495963561509916 1 I I #
coedge $-1 $212 $212 $-1 $308 reversed $135 $-1 #
edge $-1 $309 0 $309 6.2831853071796004 $136 $310 forward 7 unknown #
vertex $-1 $139 $311 #
ellipse-curve $-1 45.51694779660361 -4.1593379283209693 3.1828365100038671 0.52991927123019833 0 0.84804809178421925 0.42402404589210962 0 -0.26495963561509916 1 I I #
face $-1 $-1 $155 $21 $-1 $312 reversed single #
loop $-1 $-1 $232 $140 #
plane-surface $-1 0 19.805917043959234 0 0 -1 0 0 0 -1 forward_v I I I I #
coedge $-1 $313 $230 $233 $314 forward $141 $-1 #
coedge $-1 $236 $143 $144 $224 reversed $88 $-1 #
coedge $-1 $230 $313 $143 $222 reversed $141 $-1 #
edge $-1 $237 -4.8874380942425484 $315 4.8874380942425484 $221 $316 forward 7 unknown #
coedge $-1 $145 $144 $313 $317 forward $57 $-1 #
edge $-1 $228 -48.244880520035402 $315 48.244880520035402 $220 $318 forward 7 unknown #
coedge $-1 $233 $232 $145 $226 reversed $217 $-1 #
edge $-1 $319 -48.244880520035402 $227 48.244880520035402 $225 $320 forward 7 unknown #
vertex $-1 $147 $321 #
vertex $-1 $239 $322 #
straight-curve $-1 48.244880520035402 0 -4.8874380942425484 0 -1 0 I I #
coedge $-1 $219 $221 $148 $231 reversed $141 $-1 #
edge $-1 $234 -19.805917043959234 $237 19.805917043959234 $230 $323 forward 7 unknown #
coedge $-1 $225 $149 $154 $240 forward $217 $-1 #
coedge $-1 $149 $225 $219 $314 reversed $217 $-1 #
vertex $-1 $150 $324 #
straight-curve $-1 0 19.805917043959234 4.8874380942425484 -1 0 0 I I #
coedge $-1 $151 $220 $153 $239 reversed $88 $-1 #
vertex $-1 $231 $325 #
straight-curve $-1 0 -19.805917043959234 4.8874380942425484 1 0 0 I I #
edge $-1 $156 -4.8874380942425484 $228 4.8874380942425484 $153 $326 forward 7 unknown #
edge $-1 $157 -4.8874380942425484 $227 4.8874380942425484 $154 $327 forward 7 unknown #
point $-1 48.244880520035402 -19.805917043959234 4.8874380942425484 #
point $-1 48.244880520035402 19.805917043959234 4.8874380942425484 #
face $-1 $-1 $259 $22 $-1 $328 reversed single #
loop $-1 $-1 $329 $159 #
plane-surface $-1 0 -25.783820481898559 0.52485803413401921 0 1 0 0 0 1 forward_v I I I I #
coedge $-1 $330 $256 $258 $331 forward $160 $-1 #
coedge $-1 $162 $169 $332 $333 forward $96 $-1 #
coedge $-1 $334 $167 $162 $249 reversed $259 $-1 #
edge $-1 $335 -2.9889517189696626 $171 2.9889517189696626 $248 $336 forward 7 unknown #
coedge $-1 $164 $163 $329 $337 reversed $61 $-1 #
coedge $-1 $256 $330 $163 $252 forward $160 $-1 #
edge $-1 $338 -2.9889517189696626 $254 2.9889517189696626 $163 $339 forward 7 unknown #
edge $-1 $170 -2.9889517189696626 $340 2.9889517189696626 $164 $341 forward 7 unknown #
vertex $-1 $165 $342 #
straight-curve $-1 -48.244880520035402 -19.805917043959234 0 0 0 -1 I I #
coedge $-1 $246 $251 $166 $257 reversed $160 $-1 #
edge $-1 $260 -48.244880520035402 $254 48.244880520035402 $256 $343 forward 7 unknown #
coedge $-1 $167 $334 $246 $331 reversed $259 $-1 #
loop $-1 $-1 $167 $243 #
vertex $-1 $168 $344 #
straight-curve $-1 48.244880520035402 -19.805917043959234 0 0 0 1 I I #
point $-1 -48.244880520035402 -19.805917043959234 2.0248580341340192 #
point $-1 48.244880520035402 -19.805917043959234 2.0248580341340192 #
loop $-1 $-1 $181 $173 #
plane-surface $-1 -48.244880520035402 0 0 1 0 0 0 0 -1 forward_v I I I I #
coedge $-1 $267 $176 $178 $271 reversed $104 $-1 #
coedge $-1 $176 $266 $345 $346 reversed $104 $-1 #
coedge $-1 $184 $179 $176 $269 forward $174 $-1 #
edge $-1 $272 -14.430350145397199 $347 -9.3912702187314281 $268 $348 forward 7 unknown #
coedge $-1 $178 $177 $275 $349 reversed $65 $-1 #
edge $-1 $350 9.8783556607683496e-015 $272 7.0051455230183937 $266 $351 forward 7 unknown #
vertex $-1 $180 $352 #
straight-curve $-1 -43.205800593369631 5.2098899786477411 4.8874380942425475 0 1 0 I I #
coedge $-1 $345 $181 $184 $279 reversed $264 $-1 #
coedge $-1 $181 $345 $270 $349 forward $264 $-1 #
vertex $-1 $182 $353 #
straight-curve $-1 -48.244880520035402 6.1337583148984667 34.715089872054534 0 0 1 I I #
straight-curve $-1 -48.244880520035409 6.1337583148984667 0.021255063227513915 -0.71933979245794832 0 -0.69465837861970381 I I #
edge $-1 $347 -14.705801599692498 $185 -6.1337583148984667 $274 $354 forward 7 unknown #
point $-1 -48.244880520035402 6.1337583148984667 4.8874380942425484 #
point $-1 -43.205800593369631 6.1337583148984667 4.8874380942425484 #
edge $-1 $355 1 $355 0 $188 $-1 forward 7 unknown #
vertex $-1 $189 $356 #
ellipse-curve $-1 -44.945331226444786 10.419779957295486 1.64662329055163 -0.69465837861970381 0 0.71933979245794832 0.71933979245794832 0 0.69465837861970381 1 I I #
point $-1 -45.006000764244561 10.419779957295486 3.1490049573547285 #
plane-surface $-1 0 0 4.8874380942425484 0 0 1 1 0 0 forward_v I I I I #
coedge $-1 $297 $296 $289 $357 forward $193 $-1 #
coedge $-1 $289 $195 $197 $293 reversed $119 $-1 #
coedge $-1 $195 $288 $287 $357 reversed $119 $-1 #
coedge $-1 $203 $198 $195 $291 forward $204 $-1 #
edge $-1 $294 34.014661750762656 $358 39.470527197626225 $290 $359 forward 7 unknown #
coedge $-1 $197 $196 $297 $360 reversed $74 $-1 #
edge $-1 $361 -96.489761040070803 $294 -90.056322300311479 $288 $362 forward 7 unknown #
vertex $-1 $199 $363 #
straight-curve $-1 42.789015073171846 -2.769830768325475 4.8874380942425475 0 -1 0 I I #
coedge $-1 $287 $200 $203 $301 reversed $193 $-1 #
coedge $-1 $200 $287 $292 $360 forward $193 $-1 #
vertex $-1 $201 $364 #
straight-curve $-1 48.244880520035402 -2.3189064505476615 67.218988252021404 0 0 1 I I #
straight-curve $-1 -33.583077206711941 -2.3189064505476615 52.610018777295465 0.84804809178421925 0 -0.52991927123019833 I I #
edge $-1 $358 -8.7604166227542386 $205 -2.3189064505476615 $296 $365 forward 7 unknown #
point $-1 48.244880520035402 -2.3189064505476615 4.8874380942425484 #
point $-1 42.789015073171832 -2.3189064505476615 4.8874380942425475 #
edge $-1 $366 1 $366 0 $208 $-1 forward 7 unknown #
vertex $-1 $209 $367 #
ellipse-curve $-1 44.510162636182166 -6.9199851449809309 1.5716434840359867 0.52991927123019833 0 0.84804809178421925 0.42402404589210962 0 -0.26495963561509916 1 I I #
point $-1 45.940971842495713 -6.9199851449809309 2.9178768743887487 #
edge $-1 $368 1 $368 0 $212 $-1 forward 7 unknown #
vertex $-1 $213 $369 #
ellipse-curve $-1 44.510162636182166 -4.1593379283209693 1.5716434840359867 0.52991927123019833 0 0.84804809178421925 0.42402404589210962 0 -0.26495963561509916 1 I I #
point $-1 45.940971842495713 -4.1593379283209693 2.9178768743887487 #
plane-surface $-1 48.244880520035402 0 0 -1 0 0 0 0 1 forward_v I I I I #
coedge $-1 $221 $219 $223 $317 reversed $141 $-1 #
edge $-1 $234 -4.8874380942425484 $319 4.8874380942425484 $233 $370 forward 7 unknown #
vertex $-1 $317 $371 #
straight-curve $-1 -48.244880520035402 -19.805917043959234 0 0 0 -1 I I #
edge $-1 $315 -19.805917043959234 $319 19.805917043959234 $313 $372 forward 7 unknown #
straight-curve $-1 0 -19.805917043959234 -4.8874380942425484 -1 0 0 I I #
vertex $-1 $226 $373 #
straight-curve $-1 0 19.805917043959234 -4.8874380942425484 1 0 0 I I #
point $-1 48.244880520035402 19.805917043959234 -4.8874380942425484 #
point $-1 48.244880520035402 -19.805917043959234 -4.8874380942425484 #
straight-curve $-1 -48.244880520035402 0 4.8874380942425484 0 -1 0 I I #
point $-1 -48.244880520035402 19.805917043959234 4.8874380942425484 #
point $-1 -48.244880520035402 -19.805917043959234 4.8874380942425484 #
straight-curve $-1 48.244880520035402 -19.805917043959234 0 0 0 -1 I I #
straight-curve $-1 48.244880520035402 19.805917043959234 0 0 0 -1 I I #
plane-surface $-1 48.244880520035402 0 0 -1 0 0 0 0 1 forward_v I I I I #
coedge $-1 $374 $332 $250 $337 forward $244 $-1 #
coedge $-1 $251 $246 $374 $375 forward $160 $-1 #
edge $-1 $260 -2.9889517189696626 $376 2.9889517189696626 $258 $377 forward 7 unknown #
coedge $-1 $329 $378 $247 $333 reversed $244 $-1 #
edge $-1 $340 -48.244880520035402 $335 48.244880520035402 $332 $379 forward 7 unknown #
coedge $-1 $258 $248 $378 $380 forward $259 $-1 #
vertex $-1 $249 $381 #
straight-curve $-1 48.244880520035402 -22.794868762928896 2.0248580341340192 0 1 0 I I #
edge $-1 $340 -1.5 $338 1.4999999999999998 $250 $382 forward 7 unknown #
vertex $-1 $252 $383 #
straight-curve $-1 -48.244880520035402 -22.794868762928896 -0.97514196586598056 0 1 0 I I #
vertex $-1 $253 $384 #
straight-curve $-1 -48.244880520035402 -22.794868762928896 2.0248580341340192 0 -1 0 I I #
point $-1 -48.244880520035402 -19.805917043959234 -0.97514196586598056 #
straight-curve $-1 0 -19.805917043959234 -0.97514196586598056 -1 0 0 I I #
point $-1 48.244880520035402 -19.805917043959234 -0.97514196586598056 #
coedge $-1 $275 $274 $267 $346 forward $264 $-1 #
edge $-1 $347 29.827651777811987 $350 34.693834808827013 $345 $385 forward 7 unknown #
vertex $-1 $279 $386 #
straight-curve $-1 -57.63615073876683 14.705801599692498 4.8874380942425475 -1 0 0 I I #
edge $-1 $350 -9.4959116210447565 $276 -0.92386833625072562 $275 $387 forward 7 unknown #
vertex $-1 $349 $388 #
straight-curve $-1 -48.244880520035409 14.705801599692498 0.021255063227513915 0.71933979245794832 0 0.69465837861970381 I I #
point $-1 -43.205800593369631 14.705801599692498 4.8874380942425484 #
point $-1 -48.244880520035402 6.1337583148984667 0.021255063227520778 #
straight-curve $-1 -48.244880520035402 0 4.8874380942425484 0 -1 0 I I #
vertex $-1 $282 $389 #
point $-1 -44.225991433986835 10.419779957295486 2.3412816691713338 #
edge $-1 $358 62.331550157778857 $361 65.74075332625624 $287 $390 forward 7 unknown #
vertex $-1 $301 $391 #
straight-curve $-1 8.7743533224091799 -8.7604166227542386 4.8874380942425546 1 0 0 I I #
edge $-1 $361 -5.9905858544287636 $298 0.4509243177778135 $297 $392 forward 7 unknown #
vertex $-1 $360 $393 #
straight-curve $-1 -33.583077206711941 -8.7604166227542386 52.610018777295465 -0.84804809178421925 0 0.52991927123019833 I I #
point $-1 42.789015073171832 -8.7604166227542386 4.8874380942425475 #
point $-1 48.244880520035402 -2.3189064505476615 1.4782349257651646 #
straight-curve $-1 48.244880520035402 0 4.8874380942425484 0 1 0 I I #
vertex $-1 $304 $394 #
point $-1 44.934186682074277 -6.9199851449809309 1.3066838484208874 #
vertex $-1 $308 $395 #
point $-1 44.934186682074277 -4.1593379283209693 1.3066838484208874 #
straight-curve $-1 -48.244880520035402 19.805917043959234 0 0 0 -1 I I #
point $-1 -48.244880520035402 -19.805917043959234 -4.8874380942425484 #
straight-curve $-1 -48.244880520035402 0 -4.8874380942425484 0 1 0 I I #
point $-1 -48.244880520035402 19.805917043959234 -4.8874380942425484 #
coedge $-1 $378 $329 $330 $375 reversed $244 $-1 #
edge $-1 $376 -48.244880520035402 $338 48.244880520035402 $374 $396 forward 7 unknown #
vertex $-1 $380 $397 #
straight-curve $-1 48.244880520035402 -22.794868762928896 -0.97514196586598056 0 -1 0 I I #
coedge $-1 $332 $374 $334 $380 reversed $244 $-1 #
straight-curve $-1 0 -25.783820481898559 2.0248580341340192 1 0 0 I I #
edge $-1 $335 -1.5 $376 1.4999999999999998 $334 $398 forward 7 unknown #
point $-1 48.244880520035402 -25.783820481898559 2.0248580341340192 #
straight-curve $-1 -48.244880520035402 -25.783820481898559 0.52485803413401921 0 0 -1 I I #
point $-1 -48.244880520035402 -25.783820481898559 -0.97514196586598056 #
point $-1 -48.244880520035402 -25.783820481898559 2.0248580341340192 #
straight-curve $-1 -48.244880520035402 14.705801599692498 34.715089872054534 0 0 -1 I I #
point $-1 -48.244880520035402 14.705801599692498 4.8874380942425484 #
straight-curve $-1 -48.244880520035402 5.2098899786477411 0.021255063227521909 0 -1 0 I I #
point $-1 -48.244880520035402 14.705801599692498 0.021255063227520778 #
point $-1 -44.250672847825079 10.419779957295486 0.92728349809368171 #
straight-curve $-1 48.244880520035402 -8.7604166227542386 67.218988252021404 0 0 -1 I I #
point $-1 48.244880520035402 -8.7604166227542386 4.8874380942425484 #
straight-curve $-1 48.244880520035409 -2.769830768325475 1.4782349257651575 0 1 0 I I #
point $-1 48.244880520035402 -8.7604166227542386 1.4782349257651646 #
point $-1 44.245203000567066 -6.9199851449809309 1.1476194381438769 #
point $-1 44.245203000567066 -4.1593379283209693 1.1476194381438769 #
straight-curve $-1 0 -25.783820481898559 -0.97514196586598056 -1 0 0 I I #
point $-1 48.244880520035402 -25.783820481898559 -0.97514196586598056 #
straight-curve $-1 48.244880520035402 -25.783820481898559 0.52485803413401921 0 0 -1 I I #
End-of-ACIS-data 