500 0 8 0           
7 Unknown 11 ACIS 5.0 NT 24 Fri Mar 26 02:37:37 1999 
-1 9.9999999999999995e-007 1e-010 
body $-1 $8 $-1 $9 #
body $-1 $10 $-1 $11 #
body $-1 $12 $-1 $13 #
body $-1 $14 $-1 $15 #
body $-1 $16 $-1 $17 #
body $-1 $18 $-1 $19 #
body $-1 $20 $-1 $21 #
body $-1 $22 $-1 $23 #
lump $-1 $-1 $24 $0 #
transform $-1 1 0 0 0 1 0 0 0 1 46.795861690115053 30.294418656012624 6.7367568278726031 1 rotate no_reflect no_shear #
lump $-1 $-1 $25 $1 #
transform $-1 1 0 0 0 1 0 0 0 1 46.795861690115053 30.294418656012624 6.7367568278726031 1 rotate no_reflect no_shear #
lump $-1 $-1 $26 $2 #
transform $-1 1 0 0 0 1 0 0 0 1 46.795861690115053 30.294418656012624 6.7367568278726031 1 rotate no_reflect no_shear #
lump $-1 $-1 $27 $3 #
transform $-1 1 0 0 0 1 0 0 0 1 46.795861690115053 30.294418656012624 6.7367568278726031 1 rotate no_reflect no_shear #
lump $-1 $-1 $28 $4 #
transform $-1 1 0 0 0 1 0 0 0 1 46.795861690115053 30.294418656012624 6.7367568278726031 1 rotate no_reflect no_shear #
lump $-1 $-1 $29 $5 #
transform $-1 1 0 0 0 1 0 0 0 1 46.795861690115053 30.294418656012624 6.7367568278726031 1 rotate no_reflect no_shear #
lump $-1 $-1 $30 $6 #
transform $-1 1 0 0 0 1 0 0 0 1 46.795861690115053 30.294418656012624 6.7367568278726031 1 rotate no_reflect no_shear #
lump $-1 $-1 $31 $7 #
transform $-1 1 0 0 0 1 0 0 0 1 46.795861690115053 30.294418656012624 6.7367568278726031 1 rotate no_reflect no_shear #
shell $-1 $-1 $-1 $32 $-1 $8 #
shell $-1 $-1 $-1 $33 $-1 $10 #
shell $-1 $-1 $-1 $34 $-1 $12 #
shell $-1 $-1 $-1 $35 $-1 $14 #
shell $-1 $-1 $-1 $36 $-1 $16 #
shell $-1 $-1 $-1 $37 $-1 $18 #
shell $-1 $-1 $-1 $38 $-1 $20 #
shell $-1 $-1 $-1 $39 $-1 $22 #
face $-1 $40 $41 $24 $-1 $42 forward single #
face $-1 $43 $44 $25 $-1 $45 reversed single #
face $-1 $46 $47 $26 $-1 $48 reversed single #
face $-1 $49 $50 $27 $-1 $51 forward single #
face $-1 $52 $53 $28 $-1 $54 forward single #
face $-1 $55 $56 $29 $-1 $57 reversed single #
face $-1 $58 $59 $30 $-1 $60 forward single #
face $-1 $61 $62 $31 $-1 $63 forward single #
face $-1 $64 $65 $24 $-1 $66 reversed single #
loop $-1 $-1 $67 $32 #
plane-surface $-1 0 0 6.7367568278726031 0 0 1 1 0 0 forward_v I I I I #
face $-1 $68 $69 $25 $-1 $70 reversed single #
loop $-1 $-1 $71 $33 #
plane-surface $-1 0 -26.17755442387972 3.7367568278726031 0 0 1 1 0 0 forward_v I I I I #
face $-1 $72 $73 $26 $-1 $74 reversed single #
loop $-1 $-1 $75 $34 #
plane-surface $-1 -37.400298747070138 36.288855374075695 111.80823431900164 1 0 0 0 -0.5877852598018023 -0.80901698891910034 forward_v I I I I #
face $-1 $76 $77 $27 $-1 $78 forward single #
loop $-1 $79 $80 $35 #
cone-surface $-1 -31.756901730863618 25.136770463089576 2.4369917884803809 0 -0.5877852598018023 -0.80901698891910034 2.5 0 0 1 I I 0 1 2.5 forward I I I I #
face $-1 $81 $82 $28 $-1 $83 forward single #
loop $-1 $84 $85 $36 #
cone-surface $-1 -23.291806206553844 25.136770463089576 2.4369917884803809 0 -0.5877852598018023 -0.80901698891910034 2.5 0 0 1 I I 0 1 2.5 forward I I I I #
face $-1 $86 $87 $29 $-1 $88 reversed single #
loop $-1 $-1 $89 $37 #
plane-surface $-1 17.648409190347312 36.288855374075695 111.80823431900164 1 0 0 0 -0.5877852598018023 -0.80901698891910034 forward_v I I I I #
face $-1 $90 $91 $30 $-1 $92 forward single #
loop $-1 $93 $94 $38 #
cone-surface $-1 23.291806206553836 25.136770463089576 2.4369917884803809 0 -0.5877852598018023 -0.80901698891910034 2.5 0 0 1 I I 0 1 2.5 forward I I I I #
face $-1 $95 $96 $31 $-1 $97 forward single #
loop $-1 $98 $99 $39 #
cone-surface $-1 31.756901730863611 25.136770463089576 2.4369917884803809 0 -0.5877852598018023 -0.80901698891910034 2.5 0 0 1 I I 0 1 2.5 forward I I I I #
face $-1 $100 $101 $24 $-1 $102 reversed single #
loop $-1 $-1 $103 $40 #
plane-surface $-1 0 0 -6.7367568278726031 0 0 1 1 0 0 forward_v I I I I #
coedge $-1 $104 $105 $106 $107 forward $41 $-1 #
face $-1 $108 $109 $25 $-1 $110 reversed single #
loop $-1 $-1 $111 $43 #
plane-surface $-1 0 -22.060690191746815 5.2367568278726031 0 -1 0 0 0 -1 forward_v I I I I #
coedge $-1 $112 $113 $114 $115 reversed $44 $-1 #
face $-1 $116 $117 $26 $-1 $118 reversed single #
loop $-1 $-1 $119 $46 #
plane-surface $-1 -27.524353968708731 -18.722980068271276 36.09094008217852 0 0.5877852598018023 0.80901698891910034 1 0 0 forward_v I I I I #
coedge $-1 $120 $121 $122 $123 reversed $47 $-1 #
face $-1 $-1 $124 $27 $-1 $125 forward single #
loop $-1 $126 $127 $49 #
cone-surface $-1 -31.756901730863618 23.551806891161633 0.25547662605528121 0 -0.5877852598018023 -0.80901698891910034 1.25 0 0 1 I I -0.70710678118654757 0.70710678118654735 1.25 forward I I I I #
loop $-1 $-1 $128 $35 #
coedge $-1 $80 $80 $129 $130 reversed $50 $-1 #
face $-1 $-1 $131 $28 $-1 $132 forward single #
loop $-1 $133 $134 $52 #
cone-surface $-1 -23.291806206553844 23.551806891161633 0.25547662605528121 0 -0.5877852598018023 -0.80901698891910034 1.25 0 0 1 I I -0.70710678118654757 0.70710678118654735 1.25 forward I I I I #
loop $-1 $-1 $135 $36 #
coedge $-1 $85 $85 $136 $137 reversed $53 $-1 #
face $-1 $138 $139 $29 $-1 $140 reversed single #
loop $-1 $-1 $141 $55 #
plane-surface $-1 27.524353968708716 -18.722980068271276 36.09094008217852 0 0.5877852598018023 0.80901698891910034 1 0 0 forward_v I I I I #
coedge $-1 $142 $143 $144 $145 reversed $56 $-1 #
face $-1 $-1 $146 $30 $-1 $147 forward single #
loop $-1 $148 $149 $58 #
cone-surface $-1 23.291806206553836 23.551806891161633 0.25547662605528121 0 -0.5877852598018023 -0.80901698891910034 1.25 0 0 1 I I -0.70710678118654757 0.70710678118654735 1.25 forward I I I I #
loop $-1 $-1 $150 $38 #
coedge $-1 $94 $94 $151 $152 reversed $59 $-1 #
face $-1 $-1 $153 $31 $-1 $154 forward single #
loop $-1 $155 $156 $61 #
cone-surface $-1 31.756901730863611 23.551806891161633 0.25547662605528121 0 -0.5877852598018023 -0.80901698891910034 1.25 0 0 1 I I -0.70710678118654757 0.70710678118654735 1.25 forward I I I I #
loop $-1 $-1 $157 $39 #
coedge $-1 $99 $99 $158 $159 reversed $62 $-1 #
face $-1 $160 $161 $24 $-1 $162 reversed single #
loop $-1 $-1 $163 $64 #
plane-surface $-1 0 -30.294418656012624 0 0 1 0 0 0 1 forward_v I I I I #
coedge $-1 $164 $165 $166 $167 forward $65 $-1 #
coedge $-1 $168 $67 $169 $170 forward $41 $-1 #
coedge $-1 $67 $168 $171 $172 forward $41 $-1 #
coedge $-1 $173 $174 $67 $107 reversed $175 $-1 #
edge $-1 $176 -30.294418656012624 $177 30.294418656012624 $106 $178 forward 7 unknown #
face $-1 $179 $180 $25 $-1 $181 reversed single #
loop $-1 $-1 $182 $68 #
plane-surface $-1 -46.795861690115053 0 0 1 0 0 0 0 -1 forward_v I I I I #
coedge $-1 $183 $184 $185 $186 reversed $69 $-1 #
coedge $-1 $187 $71 $188 $189 reversed $44 $-1 #
coedge $-1 $71 $187 $183 $190 forward $44 $-1 #
coedge $-1 $185 $191 $71 $115 forward $192 $-1 #
edge $-1 $193 -17.205641444072764 $194 -8.9719129798069552 $114 $195 forward 7 unknown #
face $-1 $196 $197 $26 $-1 $198 forward single #
loop $-1 $-1 $199 $72 #
plane-surface $-1 -17.648409190347326 36.288855374075695 111.80823431900164 -1 0 0 0 0.5877852598018023 0.80901698891910034 forward_v I I I I #
coedge $-1 $200 $201 $202 $203 reversed $73 $-1 #
coedge $-1 $121 $75 $204 $205 reversed $47 $-1 #
coedge $-1 $75 $120 $200 $206 reversed $47 $-1 #
coedge $-1 $202 $207 $75 $123 forward $197 $-1 #
edge $-1 $208 -12.149990968974777 $209 -3.5351585774800753 $122 $210 forward 7 unknown #
loop $-1 $-1 $129 $76 #
plane-surface $-1 -27.524353968708731 -18.722980068271276 36.09094008217852 0 0.5877852598018023 0.80901698891910034 1 0 0 forward_v I I I I #
loop $-1 $-1 $211 $49 #
coedge $-1 $127 $127 $128 $212 reversed $77 $-1 #
coedge $-1 $128 $128 $127 $212 forward $79 $-1 #
coedge $-1 $129 $129 $80 $130 forward $124 $-1 #
edge $-1 $213 5.2090389699018289e-016 $213 6.2831853071796013 $129 $214 forward 7 unknown #
loop $-1 $-1 $136 $81 #
plane-surface $-1 -27.524353968708731 -18.722980068271276 36.09094008217852 0 0.5877852598018023 0.80901698891910034 1 0 0 forward_v I I I I #
loop $-1 $-1 $215 $52 #
coedge $-1 $134 $134 $135 $216 reversed $82 $-1 #
coedge $-1 $135 $135 $134 $216 forward $84 $-1 #
coedge $-1 $136 $136 $85 $137 forward $131 $-1 #
edge $-1 $217 5.2090389699018289e-016 $217 6.2831853071796013 $136 $218 forward 7 unknown #
face $-1 $219 $220 $29 $-1 $221 forward single #
loop $-1 $-1 $222 $86 #
plane-surface $-1 37.400298747070124 36.288855374075695 111.80823431900164 -1 0 0 0 0.5877852598018023 0.80901698891910034 forward_v I I I I #
coedge $-1 $223 $224 $225 $226 reversed $87 $-1 #
coedge $-1 $143 $89 $227 $228 reversed $56 $-1 #
coedge $-1 $89 $142 $223 $229 reversed $56 $-1 #
coedge $-1 $225 $230 $89 $145 forward $220 $-1 #
edge $-1 $231 -12.149990968974777 $232 -3.5351585774800753 $144 $233 forward 7 unknown #
loop $-1 $-1 $151 $90 #
plane-surface $-1 27.524353968708716 -18.722980068271276 36.09094008217852 0 0.5877852598018023 0.80901698891910034 1 0 0 forward_v I I I I #
loop $-1 $-1 $234 $58 #
coedge $-1 $149 $149 $150 $235 reversed $91 $-1 #
coedge $-1 $150 $150 $149 $235 forward $93 $-1 #
coedge $-1 $151 $151 $94 $152 forward $146 $-1 #
edge $-1 $236 5.2090389699018289e-016 $236 6.2831853071796013 $151 $237 forward 7 unknown #
loop $-1 $-1 $158 $95 #
plane-surface $-1 27.524353968708716 -18.722980068271276 36.09094008217852 0 0.5877852598018023 0.80901698891910034 1 0 0 forward_v I I I I #
loop $-1 $-1 $238 $61 #
coedge $-1 $156 $156 $157 $239 reversed $96 $-1 #
coedge $-1 $157 $157 $156 $239 forward $98 $-1 #
coedge $-1 $158 $158 $99 $159 forward $153 $-1 #
edge $-1 $240 5.2090389699018289e-016 $240 6.2831853071796013 $158 $241 forward 7 unknown #
face $-1 $242 $243 $24 $-1 $244 reversed single #
loop $-1 $-1 $245 $100 #
plane-surface $-1 -46.795861690115053 0 0 1 0 0 0 0 -1 forward_v I I I I #
coedge $-1 $246 $171 $247 $248 forward $101 $-1 #
coedge $-1 $249 $103 $246 $250 forward $65 $-1 #
coedge $-1 $103 $249 $251 $252 forward $65 $-1 #
coedge $-1 $174 $173 $103 $167 reversed $175 $-1 #
edge $-1 $253 -30.294418656012624 $254 30.294418656012624 $166 $255 forward 7 unknown #
coedge $-1 $105 $104 $256 $257 forward $41 $-1 #
coedge $-1 $258 $259 $104 $170 reversed $243 $-1 #
edge $-1 $177 -46.795861690115053 $260 46.795861690115053 $169 $261 forward 7 unknown #
coedge $-1 $163 $262 $105 $172 reversed $101 $-1 #
edge $-1 $263 -46.795861690115053 $176 46.795861690115053 $171 $264 forward 7 unknown #
coedge $-1 $166 $106 $262 $265 forward $175 $-1 #
coedge $-1 $106 $166 $258 $266 reversed $175 $-1 #
loop $-1 $-1 $173 $242 #
vertex $-1 $107 $267 #
vertex $-1 $107 $268 #
straight-curve $-1 46.795861690115053 0 6.7367568278726031 0 1 0 I I #
face $-1 $269 $270 $25 $-1 $271 forward single #
loop $-1 $-1 $188 $108 #
plane-surface $-1 0 -30.294418656012624 0 0 1 0 0 0 1 forward_v I I I I #
coedge $-1 $272 $273 $274 $275 forward $109 $-1 #
coedge $-1 $274 $111 $113 $190 reversed $69 $-1 #
coedge $-1 $111 $274 $276 $277 reversed $69 $-1 #
coedge $-1 $278 $114 $111 $186 forward $192 $-1 #
edge $-1 $194 1.1183784139363016 $279 4.118378413936302 $185 $280 forward 7 unknown #
coedge $-1 $113 $112 $272 $281 reversed $44 $-1 #
coedge $-1 $282 $283 $112 $189 forward $180 $-1 #
edge $-1 $284 -46.795861690115053 $193 46.795861690115053 $188 $285 forward 7 unknown #
edge $-1 $286 -46.795861690115053 $194 46.795861690115053 $183 $287 forward 7 unknown #
coedge $-1 $114 $278 $282 $288 forward $192 $-1 #
loop $-1 $-1 $185 $269 #
vertex $-1 $189 $289 #
vertex $-1 $115 $290 #
straight-curve $-1 46.795861690115053 -13.08877721193986 3.7367568278726031 0 1 0 I I #
face $-1 $-1 $291 $26 $-1 $292 reversed single #
loop $-1 $-1 $122 $116 #
plane-surface $-1 0 0 6.7367568278726031 0 0 1 1 0 0 forward_v I I I I #
coedge $-1 $293 $294 $295 $296 reversed $117 $-1 #
coedge $-1 $297 $119 $121 $206 forward $73 $-1 #
coedge $-1 $119 $297 $293 $298 forward $73 $-1 #
coedge $-1 $295 $122 $119 $203 forward $197 $-1 #
edge $-1 $209 -23.638121762715773 $299 -3.886232205992961 $202 $300 forward 7 unknown #
coedge $-1 $301 $302 $120 $205 forward $291 $-1 #
edge $-1 $303 -55.426402557860193 $208 -49.167360331628217 $204 $304 forward 7 unknown #
edge $-1 $209 49.940318789559257 $303 60.588837312025248 $121 $305 forward 7 unknown #
coedge $-1 $122 $295 $301 $306 forward $197 $-1 #
vertex $-1 $205 $307 #
vertex $-1 $123 $308 #
straight-curve $-1 -37.400298747070138 18.144427687037847 6.736756827872604 0 -1 0 I I #
coedge $-1 $211 $211 $-1 $309 reversed $126 $-1 #
edge $-1 $310 0 $310 6.2831853071796004 $127 $311 forward 7 unknown #
vertex $-1 $130 $312 #
ellipse-curve $-1 -31.756901730863618 25.987002460265273 3.6072357147566128 0 0.5877852598018023 0.80901698891910034 2.5 0 0 1 I I #
coedge $-1 $215 $215 $-1 $313 reversed $133 $-1 #
edge $-1 $314 0 $314 6.2831853071796004 $134 $315 forward 7 unknown #
vertex $-1 $137 $316 #
ellipse-curve $-1 -23.291806206553844 25.987002460265273 3.6072357147566128 0 0.5877852598018023 0.80901698891910034 2.5 0 0 1 I I #
face $-1 $-1 $317 $29 $-1 $318 reversed single #
loop $-1 $-1 $144 $138 #
plane-surface $-1 0 0 6.7367568278726031 0 0 1 1 0 0 forward_v I I I I #
coedge $-1 $319 $320 $321 $322 reversed $139 $-1 #
coedge $-1 $323 $141 $143 $229 forward $87 $-1 #
coedge $-1 $141 $323 $319 $324 forward $87 $-1 #
coedge $-1 $321 $144 $141 $226 forward $220 $-1 #
edge $-1 $232 3.8862322059929539 $325 23.638121762715766 $225 $326 forward 7 unknown #
coedge $-1 $327 $328 $142 $228 forward $317 $-1 #
edge $-1 $329 -55.426402557860193 $231 -49.167360331628217 $227 $330 forward 7 unknown #
edge $-1 $232 49.940318789559257 $329 60.588837312025248 $143 $331 forward 7 unknown #
coedge $-1 $144 $321 $327 $332 forward $220 $-1 #
vertex $-1 $145 $333 #
vertex $-1 $145 $334 #
straight-curve $-1 17.648409190347312 18.144427687037847 6.736756827872604 0 -1 0 I I #
coedge $-1 $234 $234 $-1 $335 reversed $148 $-1 #
edge $-1 $336 0 $336 6.2831853071796004 $149 $337 forward 7 unknown #
vertex $-1 $152 $338 #
ellipse-curve $-1 23.291806206553836 25.987002460265273 3.6072357147566128 0 0.5877852598018023 0.80901698891910034 2.5 0 0 1 I I #
coedge $-1 $238 $238 $-1 $339 reversed $155 $-1 #
edge $-1 $340 0 $340 6.2831853071796004 $156 $341 forward 7 unknown #
vertex $-1 $159 $342 #
ellipse-curve $-1 31.756901730863611 25.987002460265273 3.6072357147566128 0 0.5877852598018023 0.80901698891910034 2.5 0 0 1 I I #
face $-1 $-1 $175 $24 $-1 $343 reversed single #
loop $-1 $-1 $258 $160 #
plane-surface $-1 0 30.294418656012624 0 0 -1 0 0 0 -1 forward_v I I I I #
coedge $-1 $344 $256 $259 $345 forward $161 $-1 #
coedge $-1 $262 $163 $164 $250 reversed $101 $-1 #
coedge $-1 $256 $344 $163 $248 reversed $161 $-1 #
edge $-1 $263 -6.7367568278726031 $346 6.7367568278726031 $247 $347 forward 7 unknown #
coedge $-1 $165 $164 $344 $348 forward $65 $-1 #
edge $-1 $254 -46.795861690115053 $346 46.795861690115053 $246 $349 forward 7 unknown #
coedge $-1 $259 $258 $165 $252 reversed $243 $-1 #
edge $-1 $350 -46.795861690115053 $253 46.795861690115053 $251 $351 forward 7 unknown #
vertex $-1 $167 $352 #
vertex $-1 $265 $353 #
straight-curve $-1 46.795861690115053 0 -6.7367568278726031 0 -1 0 I I #
coedge $-1 $245 $247 $168 $257 reversed $161 $-1 #
edge $-1 $260 -30.294418656012624 $263 30.294418656012624 $256 $354 forward 7 unknown #
coedge $-1 $251 $169 $174 $266 forward $243 $-1 #
coedge $-1 $169 $251 $245 $345 reversed $243 $-1 #
vertex $-1 $170 $355 #
straight-curve $-1 0 30.294418656012624 6.7367568278726031 -1 0 0 I I #
coedge $-1 $171 $246 $173 $265 reversed $101 $-1 #
vertex $-1 $257 $356 #
straight-curve $-1 0 -30.294418656012624 6.7367568278726031 1 0 0 I I #
edge $-1 $176 -6.7367568278726031 $254 6.7367568278726031 $173 $357 forward 7 unknown #
edge $-1 $177 -6.7367568278726031 $253 6.7367568278726031 $174 $358 forward 7 unknown #
point $-1 46.795861690115053 -30.294418656012624 6.7367568278726031 #
point $-1 46.795861690115053 30.294418656012624 6.7367568278726031 #
face $-1 $-1 $192 $25 $-1 $359 reversed single #
loop $-1 $-1 $276 $179 #
plane-surface $-1 0 0 6.7367568278726031 0 0 1 1 0 0 forward_v I I I I #
coedge $-1 $360 $182 $187 $281 forward $109 $-1 #
coedge $-1 $182 $360 $361 $362 reversed $109 $-1 #
coedge $-1 $184 $183 $182 $275 reversed $69 $-1 #
edge $-1 $363 -4.118378413936302 $286 -1.1183784139363016 $182 $364 forward 7 unknown #
coedge $-1 $361 $365 $184 $277 forward $270 $-1 #
edge $-1 $279 -46.795861690115053 $363 46.795861690115053 $276 $366 forward 7 unknown #
coedge $-1 $191 $185 $365 $367 reversed $192 $-1 #
vertex $-1 $186 $368 #
straight-curve $-1 46.795861690115053 -22.060690191746815 2.6183784139363016 0 0 1 I I #
edge $-1 $286 8.9719129798069552 $284 17.205641444072764 $272 $369 forward 7 unknown #
coedge $-1 $370 $188 $191 $288 reversed $180 $-1 #
coedge $-1 $188 $370 $360 $371 forward $180 $-1 #
vertex $-1 $189 $372 #
straight-curve $-1 0 -30.294418656012624 3.7367568278726031 1 0 0 I I #
vertex $-1 $281 $373 #
straight-curve $-1 0 -22.060690191746815 3.7367568278726031 1 0 0 I I #
edge $-1 $374 -6.7367568278726031 $193 -3.7367568278726031 $191 $375 forward 7 unknown #
point $-1 46.795861690115053 -30.294418656012624 3.7367568278726031 #
point $-1 46.795861690115053 -22.060690191746815 3.7367568278726031 #
loop $-1 $-1 $204 $196 #
plane-surface $-1 0 30.294418656012624 0 0 -1 0 0 0 -1 forward_v I I I I #
coedge $-1 $294 $199 $201 $298 reversed $117 $-1 #
coedge $-1 $199 $293 $376 $377 reversed $117 $-1 #
coedge $-1 $207 $202 $199 $296 forward $197 $-1 #
edge $-1 $299 3.5351585774800753 $378 12.149990968974777 $295 $379 forward 7 unknown #
coedge $-1 $201 $200 $302 $380 reversed $73 $-1 #
edge $-1 $381 -60.588837312025248 $299 -49.940318789559257 $293 $382 forward 7 unknown #
vertex $-1 $203 $383 #
straight-curve $-1 -13.762176984354365 21.67958626451793 6.736756827872604 1 0 0 I I #
coedge $-1 $376 $204 $207 $306 reversed $291 $-1 #
coedge $-1 $204 $376 $297 $380 forward $291 $-1 #
vertex $-1 $205 $384 #
straight-curve $-1 -37.400298747070138 30.294418656012624 55.904117159500821 0 0 1 I I #
straight-curve $-1 -37.400298747070138 -18.722980068271276 36.09094008217852 0 0.80901698891910034 -0.5877852598018023 I I #
edge $-1 $378 17.648409190347326 $208 37.400298747070138 $301 $385 forward 7 unknown #
point $-1 -37.400298747070138 30.294418656012624 6.7367568278726031 #
point $-1 -37.400298747070138 21.679586264517923 6.736756827872604 #
edge $-1 $386 1 $386 0 $211 $-1 forward 7 unknown #
vertex $-1 $212 $387 #
ellipse-curve $-1 -31.756901730863618 24.286538465913885 1.2667478622041564 0 0.5877852598018023 0.80901698891910034 2.5 0 0 1 I I #
point $-1 -29.256901730863618 25.98700246026527 3.6072357147566056 #
edge $-1 $388 1 $388 0 $215 $-1 forward 7 unknown #
vertex $-1 $216 $389 #
ellipse-curve $-1 -23.291806206553844 24.286538465913885 1.2667478622041564 0 0.5877852598018023 0.80901698891910034 2.5 0 0 1 I I #
point $-1 -20.791806206553844 25.98700246026527 3.6072357147566056 #
loop $-1 $-1 $227 $219 #
plane-surface $-1 0 30.294418656012624 0 0 -1 0 0 0 -1 forward_v I I I I #
coedge $-1 $320 $222 $224 $324 reversed $139 $-1 #
coedge $-1 $222 $319 $390 $391 reversed $139 $-1 #
coedge $-1 $230 $225 $222 $322 forward $220 $-1 #
edge $-1 $325 3.5351585774800753 $392 12.149990968974777 $321 $393 forward 7 unknown #
coedge $-1 $224 $223 $328 $394 reversed $87 $-1 #
edge $-1 $395 -60.588837312025248 $325 -49.940318789559257 $319 $396 forward 7 unknown #
vertex $-1 $226 $397 #
straight-curve $-1 13.762176984354358 21.67958626451793 6.736756827872604 1 0 0 I I #
coedge $-1 $390 $227 $230 $332 reversed $317 $-1 #
coedge $-1 $227 $390 $323 $394 forward $317 $-1 #
vertex $-1 $228 $398 #
straight-curve $-1 17.648409190347312 30.294418656012624 55.904117159500821 0 0 1 I I #
straight-curve $-1 17.648409190347312 -18.722980068271276 36.09094008217852 0 0.80901698891910034 -0.5877852598018023 I I #
edge $-1 $392 -37.400298747070124 $231 -17.648409190347312 $327 $399 forward 7 unknown #
point $-1 17.648409190347312 30.294418656012624 6.7367568278726031 #
point $-1 17.648409190347312 21.679586264517923 6.736756827872604 #
edge $-1 $400 1 $400 0 $234 $-1 forward 7 unknown #
vertex $-1 $235 $401 #
ellipse-curve $-1 23.291806206553836 24.286538465913885 1.2667478622041564 0 0.5877852598018023 0.80901698891910034 2.5 0 0 1 I I #
point $-1 25.791806206553836 25.98700246026527 3.6072357147566056 #
edge $-1 $402 1 $402 0 $238 $-1 forward 7 unknown #
vertex $-1 $239 $403 #
ellipse-curve $-1 31.756901730863611 24.286538465913885 1.2667478622041564 0 0.5877852598018023 0.80901698891910034 2.5 0 0 1 I I #
point $-1 34.256901730863611 25.98700246026527 3.6072357147566056 #
plane-surface $-1 46.795861690115053 0 0 -1 0 0 0 0 1 forward_v I I I I #
coedge $-1 $247 $245 $249 $348 reversed $161 $-1 #
edge $-1 $260 -6.7367568278726031 $350 6.7367568278726031 $259 $404 forward 7 unknown #
vertex $-1 $348 $405 #
straight-curve $-1 -46.795861690115053 -30.294418656012624 0 0 0 -1 I I #
edge $-1 $346 -30.294418656012624 $350 30.294418656012624 $344 $406 forward 7 unknown #
straight-curve $-1 0 -30.294418656012624 -6.7367568278726031 -1 0 0 I I #
vertex $-1 $252 $407 #
straight-curve $-1 0 30.294418656012624 -6.7367568278726031 1 0 0 I I #
point $-1 46.795861690115053 30.294418656012624 -6.7367568278726031 #
point $-1 46.795861690115053 -30.294418656012624 -6.7367568278726031 #
straight-curve $-1 -46.795861690115053 0 6.7367568278726031 0 -1 0 I I #
point $-1 -46.795861690115053 30.294418656012624 6.7367568278726031 #
point $-1 -46.795861690115053 -30.294418656012624 6.7367568278726031 #
straight-curve $-1 46.795861690115053 -30.294418656012624 0 0 0 -1 I I #
straight-curve $-1 46.795861690115053 30.294418656012624 0 0 0 -1 I I #
plane-surface $-1 46.795861690115053 0 0 -1 0 0 0 0 1 forward_v I I I I #
coedge $-1 $273 $272 $283 $371 reversed $109 $-1 #
coedge $-1 $408 $276 $273 $362 forward $270 $-1 #
edge $-1 $363 22.060690191746815 $409 30.294418656012624 $273 $410 forward 7 unknown #
vertex $-1 $362 $411 #
straight-curve $-1 -46.795861690115053 -22.060690191746815 2.6183784139363016 0 0 -1 I I #
coedge $-1 $276 $408 $278 $367 forward $270 $-1 #
straight-curve $-1 0 -22.060690191746815 6.7367568278726031 -1 0 0 I I #
edge $-1 $374 -30.294418656012624 $279 -22.060690191746815 $278 $412 forward 7 unknown #
point $-1 46.795861690115053 -22.060690191746815 6.7367568278726031 #
straight-curve $-1 -46.795861690115053 -13.08877721193986 3.7367568278726031 0 -1 0 I I #
coedge $-1 $283 $282 $408 $413 reversed $180 $-1 #
edge $-1 $409 -6.7367568278726031 $284 -3.7367568278726031 $360 $414 forward 7 unknown #
point $-1 -46.795861690115053 -30.294418656012624 3.7367568278726031 #
point $-1 -46.795861690115053 -22.060690191746815 3.7367568278726031 #
vertex $-1 $367 $415 #
straight-curve $-1 46.795861690115053 -30.294418656012624 0 0 0 -1 I I #
coedge $-1 $302 $301 $294 $377 forward $291 $-1 #
edge $-1 $378 49.167360331628217 $381 55.426402557860193 $376 $416 forward 7 unknown #
vertex $-1 $306 $417 #
straight-curve $-1 -17.648409190347326 18.144427687037847 6.736756827872604 0 1 0 I I #
edge $-1 $381 3.886232205992961 $303 23.638121762715773 $302 $418 forward 7 unknown #
vertex $-1 $380 $419 #
straight-curve $-1 -17.648409190347326 -18.722980068271276 36.09094008217852 0 -0.80901698891910034 0.5877852598018023 I I #
point $-1 -17.648409190347326 21.679586264517923 6.736756827872604 #
point $-1 -37.400298747070138 30.294418656012624 0.47771460164062773 #
straight-curve $-1 0 30.294418656012624 6.7367568278726031 -1 0 0 I I #
vertex $-1 $309 $420 #
point $-1 -29.256901730863618 24.286538465913885 1.2667478622041564 #
vertex $-1 $313 $421 #
point $-1 -20.791806206553844 24.286538465913885 1.2667478622041564 #
coedge $-1 $328 $327 $320 $391 forward $317 $-1 #
edge $-1 $392 49.167360331628217 $395 55.426402557860193 $390 $422 forward 7 unknown #
vertex $-1 $332 $423 #
straight-curve $-1 37.400298747070124 18.144427687037847 6.736756827872604 0 1 0 I I #
edge $-1 $395 -23.638121762715766 $329 -3.8862322059929539 $328 $424 forward 7 unknown #
vertex $-1 $394 $425 #
straight-curve $-1 37.400298747070124 -18.722980068271276 36.09094008217852 0 -0.80901698891910034 0.5877852598018023 I I #
point $-1 37.400298747070124 21.679586264517923 6.736756827872604 #
point $-1 17.648409190347312 30.294418656012624 0.47771460164062773 #
straight-curve $-1 0 30.294418656012624 6.7367568278726031 -1 0 0 I I #
vertex $-1 $335 $426 #
point $-1 25.791806206553836 24.286538465913885 1.2667478622041564 #
vertex $-1 $339 $427 #
point $-1 34.256901730863611 24.286538465913885 1.2667478622041564 #
straight-curve $-1 -46.795861690115053 30.294418656012624 0 0 0 -1 I I #
point $-1 -46.795861690115053 -30.294418656012624 -6.7367568278726031 #
straight-curve $-1 -46.795861690115053 0 -6.7367568278726031 0 1 0 I I #
point $-1 -46.795861690115053 30.294418656012624 -6.7367568278726031 #
coedge $-1 $365 $361 $370 $413 forward $270 $-1 #
vertex $-1 $362 $428 #
straight-curve $-1 -46.795861690115053 0 6.7367568278726031 0 -1 0 I I #
point $-1 -46.795861690115053 -22.060690191746815 6.7367568278726031 #
straight-curve $-1 46.795861690115053 0 6.7367568278726031 0 1 0 I I #
edge $-1 $409 -46.795861690115053 $374 46.795861690115053 $370 $429 forward 7 unknown #
straight-curve $-1 -46.795861690115053 -30.294418656012624 0 0 0 -1 I I #
point $-1 46.795861690115053 -30.294418656012624 6.7367568278726031 #
straight-curve $-1 -17.648409190347326 30.294418656012624 55.904117159500821 0 0 -1 I I #
point $-1 -17.648409190347326 30.294418656012624 6.7367568278726031 #
straight-curve $-1 -13.762176984354365 30.294418656012624 0.47771460164062773 -1 0 0 I I #
point $-1 -17.648409190347326 30.294418656012624 0.47771460164062773 #
point $-1 -31.756901730863618 22.81707531640938 -0.75579461009359394 #
point $-1 -23.291806206553844 22.81707531640938 -0.75579461009359394 #
straight-curve $-1 37.400298747070124 30.294418656012624 55.904117159500821 0 0 -1 I I #
point $-1 37.400298747070124 30.294418656012624 6.7367568278726031 #
straight-curve $-1 13.762176984354358 30.294418656012624 0.47771460164062773 -1 0 0 I I #
point $-1 37.400298747070124 30.294418656012624 0.47771460164062773 #
point $-1 23.291806206553836 22.81707531640938 -0.75579461009359394 #
point $-1 31.756901730863611 22.81707531640938 -0.75579461009359394 #
point $-1 -46.795861690115053 -30.294418656012624 6.7367568278726031 #
straight-curve $-1 0 -30.294418656012624 6.7367568278726031 1 0 0 I I #
End-of-ACIS-data 