500 0 10 0           
7 Unknown 11 ACIS 5.0 NT 24 Thu Mar 25 18:25:46 1999 
-1 9.9999999999999995e-007 1e-010 
body $-1 $10 $-1 $11 #
body $-1 $12 $-1 $13 #
body $-1 $14 $-1 $15 #
body $-1 $16 $-1 $17 #
body $-1 $18 $-1 $19 #
body $-1 $20 $-1 $21 #
body $-1 $22 $-1 $23 #
body $-1 $24 $-1 $25 #
body $-1 $26 $-1 $27 #
body $-1 $28 $-1 $29 #
lump $-1 $-1 $30 $0 #
transform $-1 1 0 0 0 1 0 0 0 1 73.290810876796769 39.347370816344814 13.751946327886667 1 rotate no_reflect no_shear #
lump $-1 $-1 $31 $1 #
transform $-1 1 0 0 0 1 0 0 0 1 73.290810876796769 39.347370816344814 13.751946327886667 1 rotate no_reflect no_shear #
lump $-1 $-1 $32 $2 #
transform $-1 1 0 0 0 1 0 0 0 1 73.290810876796769 39.347370816344814 13.751946327886667 1 rotate no_reflect no_shear #
lump $-1 $-1 $33 $3 #
transform $-1 1 0 0 0 1 0 0 0 1 73.290810876796769 39.347370816344814 13.751946327886667 1 rotate no_reflect no_shear #
lump $-1 $-1 $34 $4 #
transform $-1 1 0 0 0 1 0 0 0 1 73.290810876796769 39.347370816344814 13.751946327886667 1 rotate no_reflect no_shear #
lump $-1 $-1 $35 $5 #
transform $-1 1 0 0 0 1 0 0 0 1 73.290810876796769 39.347370816344814 13.751946327886667 1 rotate no_reflect no_shear #
lump $-1 $-1 $36 $6 #
transform $-1 1 0 0 0 1 0 0 0 1 73.290810876796769 39.347370816344814 13.751946327886667 1 rotate no_reflect no_shear #
lump $-1 $-1 $37 $7 #
transform $-1 1 0 0 0 1 0 0 0 1 73.290810876796769 39.347370816344814 13.751946327886667 1 rotate no_reflect no_shear #
lump $-1 $-1 $38 $8 #
transform $-1 1 0 0 0 1 0 0 0 1 73.290810876796769 39.347370816344814 13.751946327886667 1 rotate no_reflect no_shear #
lump $-1 $-1 $39 $9 #
transform $-1 1 0 0 0 1 0 0 0 1 73.290810876796769 39.347370816344814 13.751946327886667 1 rotate no_reflect no_shear #
shell $-1 $-1 $-1 $40 $-1 $10 #
shell $-1 $-1 $-1 $41 $-1 $12 #
shell $-1 $-1 $-1 $42 $-1 $14 #
shell $-1 $-1 $-1 $43 $-1 $16 #
shell $-1 $-1 $-1 $44 $-1 $18 #
shell $-1 $-1 $-1 $45 $-1 $20 #
shell $-1 $-1 $-1 $46 $-1 $22 #
shell $-1 $-1 $-1 $47 $-1 $24 #
shell $-1 $-1 $-1 $48 $-1 $26 #
shell $-1 $-1 $-1 $49 $-1 $28 #
face $-1 $50 $51 $30 $-1 $52 forward single #
face $-1 $53 $54 $31 $-1 $55 forward single #
face $-1 $56 $57 $32 $-1 $58 reversed single #
face $-1 $59 $60 $33 $-1 $61 forward single #
face $-1 $62 $63 $34 $-1 $64 reversed single #
face $-1 $65 $66 $35 $-1 $67 forward single #
face $-1 $68 $69 $36 $-1 $70 forward single #
face $-1 $71 $72 $37 $-1 $73 reversed single #
face $-1 $74 $75 $38 $-1 $76 forward single #
face $-1 $77 $78 $39 $-1 $79 forward single #
face $-1 $80 $81 $30 $-1 $82 reversed single #
loop $-1 $-1 $83 $40 #
plane-surface $-1 0 0 13.751946327886667 0 0 1 1 0 0 forward_v I I I I #
face $-1 $84 $85 $31 $-1 $86 reversed single #
loop $-1 $-1 $87 $41 #
plane-surface $-1 -73.290810876796769 0 0 1 0 0 0 0 -1 forward_v I I I I #
face $-1 $88 $89 $32 $-1 $90 reversed single #
loop $-1 $-1 $91 $42 #
plane-surface $-1 -26.105473507186773 -159.42000712326643 90.814637677960533 -1 0 0 0 -0.81915205242281985 0.57357642473473569 forward_v I I I I #
face $-1 $92 $93 $33 $-1 $94 forward single #
loop $-1 $95 $96 $43 #
cone-surface $-1 -42.657906987786234 -35.108243206572418 8.9963630403725823 0 0.81915205242281985 -0.57357642473473569 1.5 0 0 1 I I 0 1 1.5 forward I I I I #
face $-1 $97 $98 $34 $-1 $99 reversed single #
loop $-1 $-1 $100 $44 #
plane-surface $-1 -16.351245628658035 90.123406234704049 166.07004209541171 1 0 0 0 -0.71933980857756763 -0.69465836192734942 forward_v I I I I #
face $-1 $101 $102 $35 $-1 $103 forward single #
loop $-1 $104 $105 $45 #
cone-surface $-1 -10.630050076109875 34.233576816839275 8.6074223167561179 0 -0.71933980857756763 -0.69465836192734942 2 0 0 1 I I 0 1 2 forward I I I I #
face $-1 $106 $107 $36 $-1 $108 forward single #
loop $-1 $109 $110 $46 #
cone-surface $-1 -2.0482567472876383 34.233576816839275 8.6074223167561179 0 -0.71933980857756763 -0.69465836192734942 2 0 0 1 I I 0 1 2 forward I I I I #
face $-1 $111 $112 $37 $-1 $113 reversed single #
loop $-1 $-1 $114 $47 #
plane-surface $-1 10.407531603150574 90.123406234704049 166.07004209541171 1 0 0 0 -0.71933980857756763 -0.69465836192734942 forward_v I I I I #
face $-1 $115 $116 $38 $-1 $117 forward single #
loop $-1 $118 $119 $48 #
cone-surface $-1 16.128727155698726 34.233576816839275 8.6074223167561179 0 -0.71933980857756763 -0.69465836192734942 2 0 0 1 I I 0 1 2 forward I I I I #
face $-1 $120 $121 $39 $-1 $122 forward single #
loop $-1 $123 $124 $49 #
cone-surface $-1 24.71052048452097 34.233576816839275 8.6074223167561179 0 -0.71933980857756763 -0.69465836192734942 2 0 0 1 I I 0 1 2 forward I I I I #
face $-1 $125 $126 $30 $-1 $127 reversed single #
loop $-1 $-1 $128 $50 #
plane-surface $-1 0 0 -13.751946327886667 0 0 1 1 0 0 forward_v I I I I #
coedge $-1 $129 $130 $131 $132 forward $51 $-1 #
face $-1 $133 $134 $31 $-1 $135 forward single #
loop $-1 $-1 $136 $53 #
plane-surface $-1 0 39.347370816344814 0 0 -1 0 0 0 -1 forward_v I I I I #
coedge $-1 $137 $138 $139 $140 forward $54 $-1 #
face $-1 $141 $142 $32 $-1 $143 reversed single #
loop $-1 $-1 $144 $56 #
plane-surface $-1 -42.657906987786234 -39.347370816344821 6.7388751407149954 0 -0.81915205242281985 0.57357642473473569 1 0 0 forward_v I I I I #
coedge $-1 $145 $146 $147 $148 reversed $57 $-1 #
face $-1 $-1 $149 $33 $-1 $150 forward single #
loop $-1 $151 $152 $59 #
cone-surface $-1 -42.657906987786234 -32.710054139006445 7.3171330278932771 0 0.81915205242281985 -0.57357642473473569 0.75 0 0 1 I I -0.70710678118654757 0.70710678118654757 0.75 forward I I I I #
loop $-1 $-1 $153 $43 #
coedge $-1 $96 $96 $154 $155 reversed $60 $-1 #
face $-1 $156 $157 $34 $-1 $158 reversed single #
loop $-1 $-1 $159 $62 #
plane-surface $-1 -6.33915341169876 -15.318589498515351 64.245892839406096 0 0.71933980857756763 0.69465836192734942 1 0 0 forward_v I I I I #
coedge $-1 $160 $161 $162 $163 reversed $63 $-1 #
face $-1 $-1 $164 $35 $-1 $165 forward single #
loop $-1 $166 $167 $65 #
cone-surface $-1 -10.630050076109875 31.352705073926678 5.82539687899855 0 -0.71933980857756763 -0.69465836192734942 1 0 0 1 I I -0.70710678118654746 0.70710678118654746 1 forward I I I I #
loop $-1 $-1 $168 $45 #
coedge $-1 $105 $105 $169 $170 reversed $66 $-1 #
face $-1 $-1 $171 $36 $-1 $172 forward single #
loop $-1 $173 $174 $68 #
cone-surface $-1 -2.0482567472876383 31.352705073926678 5.82539687899855 0 -0.71933980857756763 -0.69465836192734942 1 0 0 1 I I -0.70710678118654746 0.70710678118654746 1 forward I I I I #
loop $-1 $-1 $175 $46 #
coedge $-1 $110 $110 $176 $177 reversed $69 $-1 #
face $-1 $178 $179 $37 $-1 $180 reversed single #
loop $-1 $-1 $181 $71 #
plane-surface $-1 20.419623820109848 -15.318589498515351 64.245892839406096 0 0.71933980857756763 0.69465836192734942 1 0 0 forward_v I I I I #
coedge $-1 $182 $183 $184 $185 reversed $72 $-1 #
face $-1 $-1 $186 $38 $-1 $187 forward single #
loop $-1 $188 $189 $74 #
cone-surface $-1 16.128727155698726 31.352705073926678 5.82539687899855 0 -0.71933980857756763 -0.69465836192734942 1 0 0 1 I I -0.70710678118654746 0.70710678118654746 1 forward I I I I #
loop $-1 $-1 $190 $48 #
coedge $-1 $119 $119 $191 $192 reversed $75 $-1 #
face $-1 $-1 $193 $39 $-1 $194 forward single #
loop $-1 $195 $196 $77 #
cone-surface $-1 24.71052048452097 31.352705073926678 5.82539687899855 0 -0.71933980857756763 -0.69465836192734942 1 0 0 1 I I -0.70710678118654746 0.70710678118654746 1 forward I I I I #
loop $-1 $-1 $197 $49 #
coedge $-1 $124 $124 $198 $199 reversed $78 $-1 #
face $-1 $200 $201 $30 $-1 $202 reversed single #
loop $-1 $-1 $203 $80 #
plane-surface $-1 0 -39.347370816344814 0 0 1 0 0 0 1 forward_v I I I I #
coedge $-1 $204 $205 $206 $207 forward $81 $-1 #
coedge $-1 $208 $83 $209 $210 forward $51 $-1 #
coedge $-1 $83 $208 $211 $212 forward $51 $-1 #
coedge $-1 $213 $214 $83 $132 reversed $215 $-1 #
edge $-1 $216 -39.347370816344814 $217 39.347370816344814 $131 $218 forward 7 unknown #
face $-1 $219 $220 $31 $-1 $221 reversed single #
loop $-1 $-1 $139 $84 #
plane-surface $-1 -80.331046081002299 0 -9.9002933773709927 0 0 1 1 0 0 forward_v I I I I #
coedge $-1 $222 $223 $138 $224 forward $85 $-1 #
coedge $-1 $225 $87 $226 $227 reversed $54 $-1 #
coedge $-1 $87 $225 $136 $224 reversed $54 $-1 #
coedge $-1 $228 $229 $87 $140 reversed $134 $-1 #
edge $-1 $230 -39.347370816344814 $231 39.347370816344814 $139 $232 forward 7 unknown #
face $-1 $233 $234 $32 $-1 $235 reversed single #
loop $-1 $-1 $236 $88 #
plane-surface $-1 -59.210340468385695 -159.42000712326643 90.814637677960533 1 0 0 0 0.81915205242281985 -0.57357642473473569 forward_v I I I I #
coedge $-1 $237 $238 $239 $240 reversed $89 $-1 #
coedge $-1 $146 $91 $241 $242 reversed $57 $-1 #
coedge $-1 $91 $145 $237 $243 reversed $57 $-1 #
coedge $-1 $239 $244 $91 $148 forward $245 $-1 #
edge $-1 $246 40.362632745288401 $247 45.273237908335481 $147 $248 forward 7 unknown #
loop $-1 $-1 $154 $92 #
plane-surface $-1 -42.657906987786234 -39.347370816344821 6.7388751407149954 0 -0.81915205242281985 0.57357642473473569 1 0 0 forward_v I I I I #
loop $-1 $-1 $249 $59 #
coedge $-1 $152 $152 $153 $250 reversed $93 $-1 #
coedge $-1 $153 $153 $152 $250 forward $95 $-1 #
coedge $-1 $154 $154 $96 $155 forward $149 $-1 #
edge $-1 $251 9.7007090055335263e-016 $251 6.2831853071796013 $154 $252 forward 7 unknown #
face $-1 $253 $254 $34 $-1 $255 forward single #
loop $-1 $-1 $256 $97 #
plane-surface $-1 3.6729388052605145 90.123406234704049 166.07004209541171 -1 0 0 0 0.71933980857756763 0.69465836192734942 forward_v I I I I #
coedge $-1 $257 $258 $259 $260 reversed $98 $-1 #
coedge $-1 $161 $100 $261 $262 reversed $63 $-1 #
coedge $-1 $100 $160 $257 $263 reversed $63 $-1 #
coedge $-1 $259 $264 $100 $163 forward $254 $-1 #
edge $-1 $265 5.7143323010072109 $266 11.618856431348227 $162 $267 forward 7 unknown #
loop $-1 $-1 $169 $101 #
plane-surface $-1 -6.33915341169876 -15.318589498515351 64.245892839406096 0 0.71933980857756763 0.69465836192734942 1 0 0 forward_v I I I I #
loop $-1 $-1 $268 $65 #
coedge $-1 $167 $167 $168 $269 reversed $102 $-1 #
coedge $-1 $168 $168 $167 $269 forward $104 $-1 #
coedge $-1 $169 $169 $105 $170 forward $164 $-1 #
edge $-1 $270 1.9167062832294437e-015 $270 6.2831853071796022 $169 $271 forward 7 unknown #
loop $-1 $-1 $176 $106 #
plane-surface $-1 -6.33915341169876 -15.318589498515351 64.245892839406096 0 0.71933980857756763 0.69465836192734942 1 0 0 forward_v I I I I #
loop $-1 $-1 $272 $68 #
coedge $-1 $174 $174 $175 $273 reversed $107 $-1 #
coedge $-1 $175 $175 $174 $273 forward $109 $-1 #
coedge $-1 $176 $176 $110 $177 forward $171 $-1 #
edge $-1 $274 1.9167062832294437e-015 $274 6.2831853071796022 $176 $275 forward 7 unknown #
face $-1 $276 $277 $37 $-1 $278 forward single #
loop $-1 $-1 $279 $111 #
plane-surface $-1 30.431716037069123 90.123406234704049 166.07004209541171 -1 0 0 0 0.71933980857756763 0.69465836192734942 forward_v I I I I #
coedge $-1 $280 $281 $282 $283 reversed $112 $-1 #
coedge $-1 $183 $114 $284 $285 reversed $72 $-1 #
coedge $-1 $114 $182 $280 $286 reversed $72 $-1 #
coedge $-1 $282 $287 $114 $185 forward $277 $-1 #
edge $-1 $288 5.7143323010072109 $289 11.618856431348227 $184 $290 forward 7 unknown #
loop $-1 $-1 $191 $115 #
plane-surface $-1 20.419623820109848 -15.318589498515351 64.245892839406096 0 0.71933980857756763 0.69465836192734942 1 0 0 forward_v I I I I #
loop $-1 $-1 $291 $74 #
coedge $-1 $189 $189 $190 $292 reversed $116 $-1 #
coedge $-1 $190 $190 $189 $292 forward $118 $-1 #
coedge $-1 $191 $191 $119 $192 forward $186 $-1 #
edge $-1 $293 1.9167062832294437e-015 $293 6.2831853071796022 $191 $294 forward 7 unknown #
loop $-1 $-1 $198 $120 #
plane-surface $-1 20.419623820109848 -15.318589498515351 64.245892839406096 0 0.71933980857756763 0.69465836192734942 1 0 0 forward_v I I I I #
loop $-1 $-1 $295 $77 #
coedge $-1 $196 $196 $197 $296 reversed $121 $-1 #
coedge $-1 $197 $197 $196 $296 forward $123 $-1 #
coedge $-1 $198 $198 $124 $199 forward $193 $-1 #
edge $-1 $297 1.9167062832294437e-015 $297 6.2831853071796022 $198 $298 forward 7 unknown #
face $-1 $299 $300 $30 $-1 $301 reversed single #
loop $-1 $-1 $302 $125 #
plane-surface $-1 -73.290810876796769 0 0 1 0 0 0 0 -1 forward_v I I I I #
coedge $-1 $303 $211 $302 $304 forward $126 $-1 #
coedge $-1 $305 $128 $303 $306 forward $81 $-1 #
coedge $-1 $128 $305 $307 $308 forward $81 $-1 #
coedge $-1 $214 $213 $128 $207 reversed $215 $-1 #
edge $-1 $309 -39.347370816344814 $310 39.347370816344814 $206 $311 forward 7 unknown #
coedge $-1 $130 $129 $312 $313 forward $51 $-1 #
coedge $-1 $314 $315 $129 $210 reversed $300 $-1 #
edge $-1 $217 -73.290810876796769 $316 73.290810876796769 $209 $317 forward 7 unknown #
coedge $-1 $203 $318 $130 $212 reversed $126 $-1 #
edge $-1 $319 -73.290810876796769 $216 73.290810876796769 $211 $320 forward 7 unknown #
coedge $-1 $206 $131 $318 $321 forward $215 $-1 #
coedge $-1 $131 $206 $314 $322 reversed $215 $-1 #
loop $-1 $-1 $213 $299 #
vertex $-1 $132 $323 #
vertex $-1 $132 $324 #
straight-curve $-1 73.290810876796769 0 13.751946327886667 0 1 0 I I #
face $-1 $325 $326 $31 $-1 $327 reversed single #
loop $-1 $-1 $328 $133 #
plane-surface $-1 -87.371281285207829 0 -11.82611985262883 1 0 0 0 0 -1 forward_v I I I I #
coedge $-1 $329 $136 $330 $331 reversed $85 $-1 #
coedge $-1 $136 $329 $228 $332 reversed $85 $-1 #
edge $-1 $230 9.9002933773709927 $333 13.751946327886667 $136 $334 forward 7 unknown #
coedge $-1 $138 $137 $335 $336 reversed $54 $-1 #
coedge $-1 $337 $338 $137 $227 forward $339 $-1 #
edge $-1 $340 -13.751946327886667 $231 -9.9002933773709927 $226 $341 forward 7 unknown #
coedge $-1 $342 $139 $223 $332 forward $134 $-1 #
coedge $-1 $139 $342 $337 $343 forward $134 $-1 #
vertex $-1 $224 $344 #
vertex $-1 $343 $345 #
straight-curve $-1 -73.290810876796769 0 -9.9002933773709927 0 -1 0 I I #
face $-1 $-1 $245 $32 $-1 $346 forward single #
loop $-1 $-1 $347 $141 #
plane-surface $-1 0 -39.347370816344814 0 0 1 0 0 0 1 forward_v I I I I #
coedge $-1 $348 $349 $350 $351 reversed $142 $-1 #
coedge $-1 $352 $144 $146 $243 forward $89 $-1 #
coedge $-1 $144 $352 $348 $353 forward $89 $-1 #
coedge $-1 $350 $147 $144 $240 forward $245 $-1 #
edge $-1 $247 4.7765200132936556 $354 37.881386974492578 $239 $355 forward 7 unknown #
coedge $-1 $356 $357 $145 $242 forward $234 $-1 #
edge $-1 $358 -38.668443698265264 $246 -31.655372511093599 $241 $359 forward 7 unknown #
edge $-1 $247 -8.5613790094634989 $358 -1.207859054955032e-014 $146 $360 forward 7 unknown #
coedge $-1 $147 $350 $356 $361 forward $245 $-1 #
loop $-1 $-1 $350 $233 #
vertex $-1 $242 $362 #
vertex $-1 $148 $363 #
straight-curve $-1 -26.105473507186773 -79.710003561633215 13.751946327886671 0 1 0 I I #
coedge $-1 $249 $249 $-1 $364 reversed $151 $-1 #
edge $-1 $365 0 $365 6.2831853071796004 $152 $366 forward 7 unknown #
vertex $-1 $155 $367 #
ellipse-curve $-1 -42.657906987786234 -36.892068234821274 10.245410734300835 0 -0.81915205242281985 0.57357642473473569 1.5 0 0 1 I I #
face $-1 $-1 $368 $34 $-1 $369 reversed single #
loop $-1 $-1 $162 $156 #
plane-surface $-1 0 0 13.751946327886667 0 0 1 1 0 0 forward_v I I I I #
coedge $-1 $370 $371 $372 $373 reversed $157 $-1 #
coedge $-1 $374 $159 $161 $263 forward $98 $-1 #
coedge $-1 $159 $374 $370 $375 forward $98 $-1 #
coedge $-1 $372 $162 $159 $260 forward $254 $-1 #
edge $-1 $266 -13.181668922808655 $376 6.8425155111098945 $259 $377 forward 7 unknown #
coedge $-1 $378 $379 $160 $262 forward $368 $-1 #
edge $-1 $380 -75.397388590419865 $265 -69.283074719819183 $261 $381 forward 7 unknown #
edge $-1 $266 70.194845203085379 $380 78.694741632689627 $161 $382 forward 7 unknown #
coedge $-1 $162 $372 $378 $383 forward $254 $-1 #
vertex $-1 $262 $384 #
vertex $-1 $163 $385 #
straight-curve $-1 -16.351245628658035 45.061703117352025 13.751946327886671 0 -1 0 I I #
coedge $-1 $268 $268 $-1 $386 reversed $166 $-1 #
edge $-1 $387 0 $387 6.2831853071796004 $167 $388 forward 7 unknown #
vertex $-1 $170 $389 #
ellipse-curve $-1 -10.630050076109875 36.395108751174305 10.69478939258634 0 0.71933980857756763 0.69465836192734942 2 0 0 1 I I #
coedge $-1 $272 $272 $-1 $390 reversed $173 $-1 #
edge $-1 $391 0 $391 6.2831853071796004 $174 $392 forward 7 unknown #
vertex $-1 $177 $393 #
ellipse-curve $-1 -2.0482567472876383 36.395108751174305 10.69478939258634 0 0.71933980857756763 0.69465836192734942 2 0 0 1 I I #
face $-1 $-1 $394 $37 $-1 $395 reversed single #
loop $-1 $-1 $184 $178 #
plane-surface $-1 0 0 13.751946327886667 0 0 1 1 0 0 forward_v I I I I #
coedge $-1 $396 $397 $398 $399 reversed $179 $-1 #
coedge $-1 $400 $181 $183 $286 forward $112 $-1 #
coedge $-1 $181 $400 $396 $401 forward $112 $-1 #
coedge $-1 $398 $184 $181 $283 forward $277 $-1 #
edge $-1 $289 0.19771969309564952 $402 20.221904127014199 $282 $403 forward 7 unknown #
coedge $-1 $404 $405 $182 $285 forward $394 $-1 #
edge $-1 $406 -75.397388590419865 $288 -69.283074719819183 $284 $407 forward 7 unknown #
edge $-1 $289 70.194845203085379 $406 78.694741632689627 $183 $408 forward 7 unknown #
coedge $-1 $184 $398 $404 $409 forward $277 $-1 #
vertex $-1 $185 $410 #
vertex $-1 $185 $411 #
straight-curve $-1 10.407531603150574 45.061703117352025 13.751946327886671 0 -1 0 I I #
coedge $-1 $291 $291 $-1 $412 reversed $188 $-1 #
edge $-1 $413 0 $413 6.2831853071796004 $189 $414 forward 7 unknown #
vertex $-1 $192 $415 #
ellipse-curve $-1 16.128727155698726 36.395108751174305 10.69478939258634 0 0.71933980857756763 0.69465836192734942 2 0 0 1 I I #
coedge $-1 $295 $295 $-1 $416 reversed $195 $-1 #
edge $-1 $417 0 $417 6.2831853071796004 $196 $418 forward 7 unknown #
vertex $-1 $199 $419 #
ellipse-curve $-1 24.71052048452097 36.395108751174305 10.69478939258634 0 0.71933980857756763 0.69465836192734942 2 0 0 1 I I #
face $-1 $-1 $215 $30 $-1 $420 reversed single #
loop $-1 $-1 $314 $200 #
plane-surface $-1 0 39.347370816344814 0 0 -1 0 0 0 -1 forward_v I I I I #
coedge $-1 $312 $421 $203 $304 reversed $201 $-1 #
coedge $-1 $318 $203 $204 $306 reversed $126 $-1 #
edge $-1 $319 -13.751946327886667 $422 13.751946327886667 $302 $423 forward 7 unknown #
coedge $-1 $205 $204 $421 $424 forward $81 $-1 #
edge $-1 $310 -73.290810876796769 $422 73.290810876796769 $303 $425 forward 7 unknown #
coedge $-1 $315 $314 $205 $308 reversed $300 $-1 #
edge $-1 $426 -73.290810876796769 $309 73.290810876796769 $307 $427 forward 7 unknown #
vertex $-1 $207 $428 #
vertex $-1 $321 $429 #
straight-curve $-1 73.290810876796769 0 -13.751946327886667 0 -1 0 I I #
coedge $-1 $430 $302 $208 $313 reversed $201 $-1 #
edge $-1 $316 -39.347370816344814 $319 39.347370816344814 $312 $431 forward 7 unknown #
coedge $-1 $307 $209 $214 $322 forward $300 $-1 #
coedge $-1 $209 $307 $430 $432 reversed $300 $-1 #
vertex $-1 $210 $433 #
straight-curve $-1 0 39.347370816344814 13.751946327886667 -1 0 0 I I #
coedge $-1 $211 $303 $213 $321 reversed $126 $-1 #
vertex $-1 $313 $434 #
straight-curve $-1 0 -39.347370816344814 13.751946327886667 1 0 0 I I #
edge $-1 $216 -13.751946327886667 $310 13.751946327886667 $213 $435 forward 7 unknown #
edge $-1 $217 -13.751946327886667 $309 13.751946327886667 $214 $436 forward 7 unknown #
point $-1 73.290810876796769 -39.347370816344814 13.751946327886667 #
point $-1 73.290810876796769 39.347370816344814 13.751946327886667 #
face $-1 $-1 $339 $31 $-1 $437 reversed single #
loop $-1 $-1 $335 $219 #
plane-surface $-1 0 0 -13.751946327886667 0 0 1 1 0 0 forward_v I I I I #
coedge $-1 $438 $439 $329 $440 forward $220 $-1 #
coedge $-1 $223 $222 $328 $440 reversed $85 $-1 #
coedge $-1 $335 $441 $222 $331 forward $326 $-1 #
edge $-1 $442 -87.371281285207829 $333 -73.290810876796769 $222 $443 forward 7 unknown #
edge $-1 $230 -7.0402352042055298 $444 7.0402352042055298 $223 $445 forward 7 unknown #
vertex $-1 $224 $446 #
straight-curve $-1 -73.290810876796769 39.347370816344814 0 0 0 -1 I I #
coedge $-1 $447 $330 $225 $336 forward $326 $-1 #
edge $-1 $333 -39.347370816344814 $340 39.347370816344814 $335 $448 forward 7 unknown #
coedge $-1 $449 $226 $229 $343 reversed $339 $-1 #
coedge $-1 $226 $449 $447 $450 reversed $339 $-1 #
loop $-1 $-1 $226 $325 #
vertex $-1 $450 $451 #
straight-curve $-1 -73.290810876796769 -39.347370816344814 0 0 0 1 I I #
coedge $-1 $229 $228 $439 $452 forward $134 $-1 #
edge $-1 $453 -7.0402352042055298 $231 7.0402352042055298 $337 $454 forward 7 unknown #
point $-1 -73.290810876796769 39.347370816344814 -9.9002933773709927 #
point $-1 -73.290810876796769 -39.347370816344814 -9.9002933773709927 #
plane-surface $-1 0 0 13.751946327886667 0 0 1 1 0 0 forward_v I I I I #
coedge $-1 $357 $356 $349 $455 forward $234 $-1 #
coedge $-1 $349 $236 $238 $353 reversed $142 $-1 #
coedge $-1 $236 $348 $347 $455 reversed $142 $-1 #
coedge $-1 $244 $239 $236 $351 forward $245 $-1 #
edge $-1 $354 -45.273237908335481 $456 -40.362632745288401 $350 $457 forward 7 unknown #
coedge $-1 $238 $237 $357 $458 reversed $89 $-1 #
edge $-1 $459 1.207859054955032e-014 $354 8.5613790094634989 $348 $460 forward 7 unknown #
vertex $-1 $240 $461 #
straight-curve $-1 -21.328953493893117 -34.436765653297734 13.751946327886667 -1 0 0 I I #
coedge $-1 $347 $241 $244 $361 reversed $234 $-1 #
coedge $-1 $241 $347 $352 $458 forward $234 $-1 #
vertex $-1 $242 $462 #
straight-curve $-1 -26.105473507186773 -39.347370816344814 45.407318838980267 0 0 1 I I #
straight-curve $-1 -26.105473507186773 -39.347370816344821 6.7388751407149954 0 -0.57357642473473569 -0.81915205242281985 I I #
edge $-1 $456 -59.210340468385695 $246 -26.105473507186773 $356 $463 forward 7 unknown #
point $-1 -26.105473507186773 -39.347370816344814 13.751946327886667 #
point $-1 -26.105473507186773 -34.436765653297734 13.751946327886667 #
edge $-1 $464 1 $464 0 $249 $-1 forward 7 unknown #
vertex $-1 $250 $465 #
ellipse-curve $-1 -42.657906987786234 -33.324418178323562 7.7473153464443287 0 -0.81915205242281985 0.57357642473473569 1.5 0 0 1 I I #
point $-1 -41.157906987786234 -36.892068234821274 10.245410734300837 #
loop $-1 $-1 $261 $253 #
plane-surface $-1 0 39.347370816344814 0 0 -1 0 0 0 -1 forward_v I I I I #
coedge $-1 $371 $256 $258 $375 reversed $157 $-1 #
coedge $-1 $256 $370 $466 $467 reversed $157 $-1 #
coedge $-1 $264 $259 $256 $373 forward $254 $-1 #
edge $-1 $376 -11.618856431348227 $468 -5.7143323010072109 $372 $469 forward 7 unknown #
coedge $-1 $258 $257 $379 $470 reversed $98 $-1 #
edge $-1 $471 -78.694741632689627 $376 -70.194845203085379 $370 $472 forward 7 unknown #
vertex $-1 $260 $473 #
straight-curve $-1 -3.16957670584938 33.44284668600379 13.751946327886678 1 0 0 I I #
coedge $-1 $466 $261 $264 $383 reversed $368 $-1 #
coedge $-1 $261 $466 $374 $470 forward $368 $-1 #
vertex $-1 $262 $474 #
straight-curve $-1 -16.351245628658035 39.347370816344814 83.035021047705854 0 0 1 I I #
straight-curve $-1 -16.351245628658035 -15.318589498515351 64.245892839406096 0 0.69465836192734942 -0.71933980857756763 I I #
edge $-1 $468 -3.6729388052605145 $265 16.351245628658035 $378 $475 forward 7 unknown #
point $-1 -16.351245628658035 39.347370816344814 13.751946327886667 #
point $-1 -16.351245628658035 33.442846686003797 13.751946327886671 #
edge $-1 $476 1 $476 0 $268 $-1 forward 7 unknown #
vertex $-1 $269 $477 #
ellipse-curve $-1 -10.630050076109875 32.072044882504244 6.5200552409258989 0 0.71933980857756763 0.69465836192734942 2 0 0 1 I I #
point $-1 -8.6300500761098746 36.395108751174305 10.694789392586335 #
edge $-1 $478 1 $478 0 $272 $-1 forward 7 unknown #
vertex $-1 $273 $479 #
ellipse-curve $-1 -2.0482567472876383 32.072044882504244 6.5200552409258989 0 0.71933980857756763 0.69465836192734942 2 0 0 1 I I #
point $-1 -0.048256747287638291 36.395108751174305 10.694789392586335 #
loop $-1 $-1 $284 $276 #
plane-surface $-1 0 39.347370816344814 0 0 -1 0 0 0 -1 forward_v I I I I #
coedge $-1 $397 $279 $281 $401 reversed $179 $-1 #
coedge $-1 $279 $396 $480 $481 reversed $179 $-1 #
coedge $-1 $287 $282 $279 $399 forward $277 $-1 #
edge $-1 $402 -11.618856431348227 $482 -5.7143323010072109 $398 $483 forward 7 unknown #
coedge $-1 $281 $280 $405 $484 reversed $112 $-1 #
edge $-1 $485 -78.694741632689627 $402 -70.194845203085379 $396 $486 forward 7 unknown #
vertex $-1 $283 $487 #
straight-curve $-1 10.209811910054924 33.44284668600379 13.751946327886678 1 0 0 I I #
coedge $-1 $480 $284 $287 $409 reversed $394 $-1 #
coedge $-1 $284 $480 $400 $484 forward $394 $-1 #
vertex $-1 $285 $488 #
straight-curve $-1 10.407531603150574 39.347370816344814 83.035021047705854 0 0 1 I I #
straight-curve $-1 10.407531603150574 -15.318589498515351 64.245892839406096 0 0.69465836192734942 -0.71933980857756763 I I #
edge $-1 $482 -30.431716037069123 $288 -10.407531603150574 $404 $489 forward 7 unknown #
point $-1 10.407531603150574 39.347370816344814 13.751946327886667 #
point $-1 10.407531603150574 33.442846686003797 13.751946327886671 #
edge $-1 $490 1 $490 0 $291 $-1 forward 7 unknown #
vertex $-1 $292 $491 #
ellipse-curve $-1 16.128727155698726 32.072044882504244 6.5200552409258989 0 0.71933980857756763 0.69465836192734942 2 0 0 1 I I #
point $-1 18.128727155698726 36.395108751174305 10.694789392586335 #
edge $-1 $492 1 $492 0 $295 $-1 forward 7 unknown #
vertex $-1 $296 $493 #
ellipse-curve $-1 24.71052048452097 32.072044882504244 6.5200552409258989 0 0.71933980857756763 0.69465836192734942 2 0 0 1 I I #
point $-1 26.71052048452097 36.395108751174305 10.694789392586335 #
plane-surface $-1 73.290810876796769 0 0 -1 0 0 0 0 1 forward_v I I I I #
coedge $-1 $302 $430 $305 $424 reversed $201 $-1 #
vertex $-1 $424 $494 #
straight-curve $-1 -73.290810876796769 -39.347370816344814 0 0 0 -1 I I #
edge $-1 $422 -39.347370816344814 $426 39.347370816344814 $421 $495 forward 7 unknown #
straight-curve $-1 0 -39.347370816344814 -13.751946327886667 -1 0 0 I I #
vertex $-1 $308 $496 #
straight-curve $-1 0 39.347370816344814 -13.751946327886667 1 0 0 I I #
point $-1 73.290810876796769 39.347370816344814 -13.751946327886667 #
point $-1 73.290810876796769 -39.347370816344814 -13.751946327886667 #
coedge $-1 $421 $312 $315 $432 forward $201 $-1 #
straight-curve $-1 -73.290810876796769 0 13.751946327886667 0 -1 0 I I #
edge $-1 $316 -13.751946327886667 $426 13.751946327886667 $315 $497 forward 7 unknown #
point $-1 -73.290810876796769 39.347370816344814 13.751946327886667 #
point $-1 -73.290810876796769 -39.347370816344814 13.751946327886667 #
straight-curve $-1 73.290810876796769 -39.347370816344814 0 0 0 -1 I I #
straight-curve $-1 73.290810876796769 39.347370816344814 0 0 0 -1 I I #
plane-surface $-1 0 -39.347370816344814 0 0 1 0 0 0 1 forward_v I I I I #
coedge $-1 $498 $328 $441 $499 reversed $220 $-1 #
coedge $-1 $328 $498 $342 $452 reversed $220 $-1 #
edge $-1 $444 -1.9258264752578373 $442 1.9258264752578373 $329 $500 forward 7 unknown #
coedge $-1 $330 $447 $438 $499 forward $326 $-1 #
vertex $-1 $331 $501 #
straight-curve $-1 0 39.347370816344814 -13.751946327886667 1 0 0 I I #
vertex $-1 $332 $502 #
straight-curve $-1 -80.331046081002299 39.347370816344814 -9.9002933773709927 -1 0 0 I I #
point $-1 -73.290810876796769 39.347370816344814 -13.751946327886667 #
coedge $-1 $441 $335 $338 $450 forward $326 $-1 #
straight-curve $-1 -73.290810876796769 0 -13.751946327886667 0 -1 0 I I #
coedge $-1 $338 $337 $498 $503 forward $339 $-1 #
edge $-1 $340 -7.0402352042055298 $504 7.0402352042055298 $338 $505 forward 7 unknown #
point $-1 -73.290810876796769 -39.347370816344814 -13.751946327886667 #
edge $-1 $444 -39.347370816344814 $453 39.347370816344814 $439 $506 forward 7 unknown #
vertex $-1 $452 $507 #
straight-curve $-1 -80.331046081002299 -39.347370816344814 -9.9002933773709927 1 0 0 I I #
edge $-1 $456 31.655372511093599 $459 38.668443698265264 $347 $508 forward 7 unknown #
vertex $-1 $361 $509 #
straight-curve $-1 -59.210340468385695 -79.710003561633215 13.751946327886671 0 -1 0 I I #
edge $-1 $459 -37.881386974492578 $358 -4.7765200132936556 $357 $510 forward 7 unknown #
vertex $-1 $458 $511 #
straight-curve $-1 -59.210340468385695 -39.347370816344821 6.7388751407149954 0 0.57357642473473569 0.81915205242281985 I I #
point $-1 -59.210340468385695 -34.436765653297734 13.751946327886667 #
point $-1 -26.105473507186773 -39.347370816344814 6.7388751407150052 #
straight-curve $-1 0 -39.347370816344814 13.751946327886667 1 0 0 I I #
vertex $-1 $364 $512 #
point $-1 -41.157906987786234 -33.324418178323562 7.7473153464443287 #
coedge $-1 $379 $378 $371 $467 forward $368 $-1 #
edge $-1 $468 69.283074719819183 $471 75.397388590419865 $466 $513 forward 7 unknown #
vertex $-1 $383 $514 #
straight-curve $-1 3.6729388052605145 45.061703117352025 13.751946327886671 0 1 0 I I #
edge $-1 $471 -6.8425155111098945 $380 13.181668922808655 $379 $515 forward 7 unknown #
vertex $-1 $470 $516 #
straight-curve $-1 3.6729388052605145 -15.318589498515351 64.245892839406096 0 -0.69465836192734942 0.71933980857756763 I I #
point $-1 3.6729388052605145 33.442846686003797 13.751946327886671 #
point $-1 -16.351245628658035 39.347370816344814 7.6376324572859957 #
straight-curve $-1 0 39.347370816344814 13.751946327886667 -1 0 0 I I #
vertex $-1 $386 $517 #
point $-1 -8.6300500761098746 32.072044882504244 6.5200552409258989 #
vertex $-1 $390 $518 #
point $-1 -0.048256747287638291 32.072044882504244 6.5200552409258989 #
coedge $-1 $405 $404 $397 $481 forward $394 $-1 #
edge $-1 $482 69.283074719819183 $485 75.397388590419865 $480 $519 forward 7 unknown #
vertex $-1 $409 $520 #
straight-curve $-1 30.431716037069123 45.061703117352025 13.751946327886671 0 1 0 I I #
edge $-1 $485 -20.221904127014199 $406 -0.19771969309564952 $405 $521 forward 7 unknown #
vertex $-1 $484 $522 #
straight-curve $-1 30.431716037069123 -15.318589498515351 64.245892839406096 0 -0.69465836192734942 0.71933980857756763 I I #
point $-1 30.431716037069123 33.442846686003797 13.751946327886671 #
point $-1 10.407531603150574 39.347370816344814 7.6376324572859957 #
straight-curve $-1 0 39.347370816344814 13.751946327886667 -1 0 0 I I #
vertex $-1 $412 $523 #
point $-1 18.128727155698726 32.072044882504244 6.5200552409258989 #
vertex $-1 $416 $524 #
point $-1 26.71052048452097 32.072044882504244 6.5200552409258989 #
point $-1 -73.290810876796769 -39.347370816344814 -13.751946327886667 #
straight-curve $-1 -73.290810876796769 0 -13.751946327886667 0 1 0 I I #
point $-1 -73.290810876796769 39.347370816344814 -13.751946327886667 #
straight-curve $-1 -73.290810876796769 39.347370816344814 0 0 0 -1 I I #
coedge $-1 $439 $438 $449 $503 reversed $220 $-1 #
edge $-1 $504 -39.347370816344814 $442 39.347370816344814 $438 $525 forward 7 unknown #
straight-curve $-1 -87.371281285207829 39.347370816344814 -11.82611985262883 0 0 -1 I I #
point $-1 -87.371281285207829 39.347370816344814 -13.751946327886667 #
point $-1 -87.371281285207829 39.347370816344814 -9.9002933773709927 #
edge $-1 $453 -1.9258264752578373 $504 1.9258264752578373 $498 $526 forward 7 unknown #
vertex $-1 $499 $527 #
straight-curve $-1 -80.331046081002299 -39.347370816344814 -13.751946327886667 -1 0 0 I I #
straight-curve $-1 -87.371281285207829 0 -9.9002933773709927 0 -1 0 I I #
point $-1 -87.371281285207829 -39.347370816344814 -9.9002933773709927 #
straight-curve $-1 -59.210340468385695 -39.347370816344814 45.407318838980267 0 0 -1 I I #
point $-1 -59.210340468385695 -39.347370816344814 13.751946327886667 #
straight-curve $-1 -21.328953493893117 -39.347370816344814 6.7388751407150167 1 0 0 I I #
point $-1 -59.210340468385695 -39.347370816344814 6.7388751407150052 #
point $-1 -42.657906987786234 -32.095690099689328 6.8869507093422255 #
straight-curve $-1 3.6729388052605145 39.347370816344814 83.035021047705854 0 0 -1 I I #
point $-1 3.6729388052605145 39.347370816344814 13.751946327886667 #
straight-curve $-1 -3.16957670584938 39.347370816344814 7.6376324572859957 -1 0 0 I I #
point $-1 3.6729388052605145 39.347370816344814 7.6376324572859957 #
point $-1 -10.630050076109875 30.633365265349109 5.130738517071201 #
point $-1 -2.0482567472876383 30.633365265349109 5.130738517071201 #
straight-curve $-1 30.431716037069123 39.347370816344814 83.035021047705854 0 0 -1 I I #
point $-1 30.431716037069123 39.347370816344814 13.751946327886667 #
straight-curve $-1 10.209811910054924 39.347370816344814 7.6376324572859957 -1 0 0 I I #
point $-1 30.431716037069123 39.347370816344814 7.6376324572859957 #
point $-1 16.128727155698726 30.633365265349109 5.130738517071201 #
point $-1 24.71052048452097 30.633365265349109 5.130738517071201 #
straight-curve $-1 -87.371281285207829 0 -13.751946327886667 0 1 0 I I #
straight-curve $-1 -87.371281285207829 -39.347370816344814 -11.82611985262883 0 0 -1 I I #
point $-1 -87.371281285207829 -39.347370816344814 -13.751946327886667 #
End-of-ACIS-data 