500 0 8 0           
7 Unknown 11 ACIS 5.0 NT 24 Fri Mar 26 00:05:23 1999 
-1 9.9999999999999995e-007 1e-010 
body $-1 $8 $-1 $9 #
body $-1 $10 $-1 $11 #
body $-1 $12 $-1 $13 #
body $-1 $14 $-1 $15 #
body $-1 $16 $-1 $17 #
body $-1 $18 $-1 $19 #
body $-1 $20 $-1 $21 #
body $-1 $22 $-1 $23 #
lump $-1 $-1 $24 $0 #
transform $-1 1 0 0 0 1 0 0 0 1 73.978087710196235 44.25364826884055 10.170762486128861 1 rotate no_reflect no_shear #
lump $-1 $-1 $25 $1 #
transform $-1 1 0 0 0 1 0 0 0 1 73.978087710196235 44.25364826884055 10.170762486128861 1 rotate no_reflect no_shear #
lump $-1 $-1 $26 $2 #
transform $-1 1 0 0 0 1 0 0 0 1 73.978087710196235 44.25364826884055 10.170762486128861 1 rotate no_reflect no_shear #
lump $-1 $-1 $27 $3 #
transform $-1 1 0 0 0 1 0 0 0 1 73.978087710196235 44.25364826884055 10.170762486128861 1 rotate no_reflect no_shear #
lump $-1 $-1 $28 $4 #
transform $-1 1 0 0 0 1 0 0 0 1 73.978087710196235 44.25364826884055 10.170762486128861 1 rotate no_reflect no_shear #
lump $-1 $-1 $29 $5 #
transform $-1 1 0 0 0 1 0 0 0 1 73.978087710196235 44.25364826884055 10.170762486128861 1 rotate no_reflect no_shear #
lump $-1 $-1 $30 $6 #
transform $-1 1 0 0 0 1 0 0 0 1 73.978087710196235 44.25364826884055 10.170762486128861 1 rotate no_reflect no_shear #
lump $-1 $-1 $31 $7 #
transform $-1 1 0 0 0 1 0 0 0 1 73.978087710196235 44.25364826884055 10.170762486128861 1 rotate no_reflect no_shear #
shell $-1 $-1 $-1 $32 $-1 $8 #
shell $-1 $-1 $-1 $33 $-1 $10 #
shell $-1 $-1 $-1 $34 $-1 $12 #
shell $-1 $-1 $-1 $35 $-1 $14 #
shell $-1 $-1 $-1 $36 $-1 $16 #
shell $-1 $-1 $-1 $37 $-1 $18 #
shell $-1 $-1 $-1 $38 $-1 $20 #
shell $-1 $-1 $-1 $39 $-1 $22 #
face $-1 $40 $41 $24 $-1 $42 forward single #
face $-1 $43 $44 $25 $-1 $45 forward single #
face $-1 $46 $47 $26 $-1 $48 reversed single #
face $-1 $49 $50 $27 $-1 $51 forward single #
face $-1 $52 $53 $28 $-1 $54 forward single #
face $-1 $55 $56 $29 $-1 $57 reversed single #
face $-1 $58 $59 $30 $-1 $60 forward single #
face $-1 $61 $62 $31 $-1 $63 forward single #
face $-1 $64 $65 $24 $-1 $66 reversed single #
loop $-1 $-1 $67 $32 #
plane-surface $-1 0 0 10.170762486128861 0 0 1 1 0 0 forward_v I I I I #
face $-1 $68 $69 $25 $-1 $70 reversed single #
loop $-1 $-1 $71 $33 #
plane-surface $-1 0 -44.25364826884055 0 0 1 0 0 0 1 forward_v I I I I #
face $-1 $72 $73 $26 $-1 $74 reversed single #
loop $-1 $-1 $75 $34 #
plane-surface $-1 -43.120498601187222 111.92942718931829 162.6449642409172 1 0 0 0 -0.80901700255871778 -0.5877852410284794 forward_v I I I I #
face $-1 $76 $77 $27 $-1 $78 forward single #
loop $-1 $79 $80 $35 #
cone-surface $-1 -38.462216441007058 39.752862316571729 5.4616413967187878 0 -0.80901700255871778 -0.5877852410284794 1.5 0 0 1 I I 0 1 1.5 forward I I I I #
face $-1 $81 $82 $28 $-1 $83 forward single #
loop $-1 $84 $85 $36 #
cone-surface $-1 -31.474793200736812 39.752862316571729 5.4616413967187878 0 -0.80901700255871778 -0.5877852410284794 1.5 0 0 1 I I 0 1 1.5 forward I I I I #
face $-1 $86 $87 $29 $-1 $88 reversed single #
loop $-1 $-1 $89 $37 #
plane-surface $-1 30.857589109009005 111.92942718931829 162.6449642409172 1 0 0 0 -0.80901700255871778 -0.5877852410284794 forward_v I I I I #
face $-1 $90 $91 $30 $-1 $92 forward single #
loop $-1 $93 $94 $38 #
cone-surface $-1 35.515871269189176 39.752862316571729 5.4616413967187878 0 -0.80901700255871778 -0.5877852410284794 1.5 0 0 1 I I 0 1 1.5 forward I I I I #
face $-1 $95 $96 $31 $-1 $97 forward single #
loop $-1 $98 $99 $39 #
cone-surface $-1 42.503294509459423 39.752862316571729 5.4616413967187878 0 -0.80901700255871778 -0.5877852410284794 1.5 0 0 1 I I 0 1 1.5 forward I I I I #
face $-1 $100 $101 $24 $-1 $102 reversed single #
loop $-1 $-1 $103 $40 #
plane-surface $-1 0 0 -10.170762486128861 0 0 1 1 0 0 forward_v I I I I #
coedge $-1 $104 $105 $106 $107 forward $41 $-1 #
face $-1 $108 $109 $25 $-1 $110 reversed single #
loop $-1 $-1 $111 $43 #
plane-surface $-1 0 0 -10.170762486128861 0 0 1 1 0 0 forward_v I I I I #
coedge $-1 $112 $113 $114 $115 forward $44 $-1 #
face $-1 $116 $117 $26 $-1 $118 reversed single #
loop $-1 $-1 $119 $46 #
plane-surface $-1 -34.968504820871935 -7.769634359339463 75.678508009789837 0 0.80901700255871778 0.5877852410284794 1 0 0 forward_v I I I I #
coedge $-1 $120 $121 $122 $123 reversed $47 $-1 #
face $-1 $-1 $124 $27 $-1 $125 forward single #
loop $-1 $126 $127 $49 #
cone-surface $-1 -38.462216441007058 36.859874104885847 3.3597624894520415 0 -0.80901700255871778 -0.5877852410284794 0.75 0 0 1 I I -0.70710678118654724 0.70710678118654768 0.75 forward I I I I #
loop $-1 $-1 $128 $35 #
coedge $-1 $80 $80 $129 $130 reversed $50 $-1 #
face $-1 $-1 $131 $28 $-1 $132 forward single #
loop $-1 $133 $134 $52 #
cone-surface $-1 -31.474793200736812 36.859874104885847 3.3597624894520415 0 -0.80901700255871778 -0.5877852410284794 0.75 0 0 1 I I -0.70710678118654724 0.70710678118654768 0.75 forward I I I I #
loop $-1 $-1 $135 $36 #
coedge $-1 $85 $85 $136 $137 reversed $53 $-1 #
face $-1 $138 $139 $29 $-1 $140 reversed single #
loop $-1 $-1 $141 $55 #
plane-surface $-1 39.009582889324292 -7.769634359339463 75.678508009789837 0 0.80901700255871778 0.5877852410284794 1 0 0 forward_v I I I I #
coedge $-1 $142 $143 $144 $145 reversed $56 $-1 #
face $-1 $-1 $146 $30 $-1 $147 forward single #
loop $-1 $148 $149 $58 #
cone-surface $-1 35.515871269189176 36.859874104885847 3.3597624894520415 0 -0.80901700255871778 -0.5877852410284794 0.75 0 0 1 I I -0.70710678118654724 0.70710678118654768 0.75 forward I I I I #
loop $-1 $-1 $150 $38 #
coedge $-1 $94 $94 $151 $152 reversed $59 $-1 #
face $-1 $-1 $153 $31 $-1 $154 forward single #
loop $-1 $155 $156 $61 #
cone-surface $-1 42.503294509459423 36.859874104885847 3.3597624894520415 0 -0.80901700255871778 -0.5877852410284794 0.75 0 0 1 I I -0.70710678118654724 0.70710678118654768 0.75 forward I I I I #
loop $-1 $-1 $157 $39 #
coedge $-1 $99 $99 $158 $159 reversed $62 $-1 #
face $-1 $160 $161 $24 $-1 $162 reversed single #
loop $-1 $-1 $163 $64 #
plane-surface $-1 0 -44.25364826884055 0 0 1 0 0 0 1 forward_v I I I I #
coedge $-1 $164 $165 $166 $167 forward $65 $-1 #
coedge $-1 $168 $67 $169 $170 forward $41 $-1 #
coedge $-1 $67 $168 $171 $172 forward $41 $-1 #
coedge $-1 $173 $174 $67 $107 reversed $175 $-1 #
edge $-1 $176 -44.25364826884055 $177 44.25364826884055 $106 $178 forward 7 unknown #
face $-1 $179 $180 $25 $-1 $181 forward single #
loop $-1 $-1 $182 $68 #
plane-surface $-1 73.978087710196235 0 0 -1 0 0 0 0 1 forward_v I I I I #
coedge $-1 $183 $184 $185 $186 forward $69 $-1 #
coedge $-1 $185 $71 $182 $187 reversed $44 $-1 #
coedge $-1 $71 $185 $188 $189 reversed $44 $-1 #
coedge $-1 $190 $191 $71 $115 reversed $180 $-1 #
edge $-1 $192 -73.978087710196235 $193 73.978087710196235 $114 $194 forward 7 unknown #
face $-1 $195 $196 $26 $-1 $197 forward single #
loop $-1 $-1 $198 $72 #
plane-surface $-1 -26.816511040556648 111.92942718931829 162.6449642409172 -1 0 0 0 0.80901700255871778 0.5877852410284794 forward_v I I I I #
coedge $-1 $199 $200 $201 $202 reversed $73 $-1 #
coedge $-1 $121 $75 $203 $204 reversed $47 $-1 #
coedge $-1 $75 $120 $199 $205 reversed $47 $-1 #
coedge $-1 $201 $206 $75 $123 forward $196 $-1 #
edge $-1 $207 11.711065325818595 $208 16.140186310822592 $122 $209 forward 7 unknown #
loop $-1 $-1 $129 $76 #
plane-surface $-1 -34.968504820871935 -7.769634359339463 75.678508009789837 0 0.80901700255871778 0.5877852410284794 1 0 0 forward_v I I I I #
loop $-1 $-1 $210 $49 #
coedge $-1 $127 $127 $128 $211 reversed $77 $-1 #
coedge $-1 $128 $128 $127 $211 forward $79 $-1 #
coedge $-1 $129 $129 $80 $130 forward $124 $-1 #
edge $-1 $212 1.07752068552374e-015 $212 6.2831853071796013 $129 $213 forward 7 unknown #
loop $-1 $-1 $136 $81 #
plane-surface $-1 -34.968504820871935 -7.769634359339463 75.678508009789837 0 0.80901700255871778 0.5877852410284794 1 0 0 forward_v I I I I #
loop $-1 $-1 $214 $52 #
coedge $-1 $134 $134 $135 $215 reversed $82 $-1 #
coedge $-1 $135 $135 $134 $215 forward $84 $-1 #
coedge $-1 $136 $136 $85 $137 forward $131 $-1 #
edge $-1 $216 1.07752068552374e-015 $216 6.2831853071796013 $136 $217 forward 7 unknown #
face $-1 $218 $219 $29 $-1 $220 forward single #
loop $-1 $-1 $221 $86 #
plane-surface $-1 47.16157666963958 111.92942718931829 162.6449642409172 -1 0 0 0 0.80901700255871778 0.5877852410284794 forward_v I I I I #
coedge $-1 $222 $223 $224 $225 reversed $87 $-1 #
coedge $-1 $143 $89 $226 $227 reversed $56 $-1 #
coedge $-1 $89 $142 $222 $228 reversed $56 $-1 #
coedge $-1 $224 $229 $89 $145 forward $219 $-1 #
edge $-1 $230 11.711065325818595 $231 16.140186310822592 $144 $232 forward 7 unknown #
loop $-1 $-1 $151 $90 #
plane-surface $-1 39.009582889324292 -7.769634359339463 75.678508009789837 0 0.80901700255871778 0.5877852410284794 1 0 0 forward_v I I I I #
loop $-1 $-1 $233 $58 #
coedge $-1 $149 $149 $150 $234 reversed $91 $-1 #
coedge $-1 $150 $150 $149 $234 forward $93 $-1 #
coedge $-1 $151 $151 $94 $152 forward $146 $-1 #
edge $-1 $235 1.07752068552374e-015 $235 6.2831853071796013 $151 $236 forward 7 unknown #
loop $-1 $-1 $158 $95 #
plane-surface $-1 39.009582889324292 -7.769634359339463 75.678508009789837 0 0.80901700255871778 0.5877852410284794 1 0 0 forward_v I I I I #
loop $-1 $-1 $237 $61 #
coedge $-1 $156 $156 $157 $238 reversed $96 $-1 #
coedge $-1 $157 $157 $156 $238 forward $98 $-1 #
coedge $-1 $158 $158 $99 $159 forward $153 $-1 #
edge $-1 $239 1.07752068552374e-015 $239 6.2831853071796013 $158 $240 forward 7 unknown #
face $-1 $241 $242 $24 $-1 $243 reversed single #
loop $-1 $-1 $244 $100 #
plane-surface $-1 -73.978087710196235 0 0 1 0 0 0 0 -1 forward_v I I I I #
coedge $-1 $245 $171 $246 $247 forward $101 $-1 #
coedge $-1 $248 $103 $245 $249 forward $65 $-1 #
coedge $-1 $103 $248 $250 $251 forward $65 $-1 #
coedge $-1 $174 $173 $103 $167 reversed $175 $-1 #
edge $-1 $252 -44.25364826884055 $253 44.25364826884055 $166 $254 forward 7 unknown #
coedge $-1 $105 $104 $255 $256 forward $41 $-1 #
coedge $-1 $257 $258 $104 $170 reversed $242 $-1 #
edge $-1 $177 -73.978087710196235 $259 73.978087710196235 $169 $260 forward 7 unknown #
coedge $-1 $163 $261 $105 $172 reversed $101 $-1 #
edge $-1 $262 -73.978087710196235 $176 73.978087710196235 $171 $263 forward 7 unknown #
coedge $-1 $166 $106 $261 $264 forward $175 $-1 #
coedge $-1 $106 $166 $257 $265 reversed $175 $-1 #
loop $-1 $-1 $173 $241 #
vertex $-1 $107 $266 #
vertex $-1 $107 $267 #
straight-curve $-1 73.978087710196235 0 10.170762486128861 0 1 0 I I #
face $-1 $268 $269 $25 $-1 $270 reversed single #
loop $-1 $-1 $191 $108 #
plane-surface $-1 0 -47.665722270973632 -7.1494249243294554 0 0 1 1 0 0 forward_v I I I I #
coedge $-1 $271 $272 $112 $187 forward $109 $-1 #
coedge $-1 $273 $111 $272 $274 forward $69 $-1 #
coedge $-1 $111 $273 $275 $276 forward $69 $-1 #
coedge $-1 $113 $112 $111 $186 reversed $44 $-1 #
edge $-1 $277 -73.978087710196235 $278 73.978087710196235 $111 $279 forward 7 unknown #
edge $-1 $278 -10.170762486128861 $193 -7.1494249243294554 $182 $280 forward 7 unknown #
coedge $-1 $275 $281 $113 $189 forward $282 $-1 #
edge $-1 $192 7.1494249243294554 $277 10.170762486128861 $188 $283 forward 7 unknown #
coedge $-1 $284 $114 $281 $285 forward $180 $-1 #
coedge $-1 $114 $284 $271 $286 forward $180 $-1 #
vertex $-1 $189 $287 #
vertex $-1 $286 $288 #
straight-curve $-1 0 -44.25364826884055 -7.1494249243294554 1 0 0 I I #
face $-1 $-1 $289 $26 $-1 $290 reversed single #
loop $-1 $-1 $122 $116 #
plane-surface $-1 0 0 10.170762486128861 0 0 1 1 0 0 forward_v I I I I #
coedge $-1 $291 $292 $293 $294 reversed $117 $-1 #
coedge $-1 $295 $119 $121 $205 forward $73 $-1 #
coedge $-1 $119 $295 $291 $296 forward $73 $-1 #
coedge $-1 $293 $122 $119 $202 forward $196 $-1 #
edge $-1 $208 -25.636246190751255 $297 -9.3322586301206805 $201 $298 forward 7 unknown #
coedge $-1 $299 $300 $120 $204 forward $289 $-1 #
edge $-1 $301 -77.24788186015914 $207 -71.151719634329737 $203 $302 forward 7 unknown #
edge $-1 $208 80.972025700914088 $301 88.507296537681142 $121 $303 forward 7 unknown #
coedge $-1 $122 $293 $299 $304 forward $196 $-1 #
vertex $-1 $204 $305 #
vertex $-1 $123 $306 #
straight-curve $-1 -43.120498601187222 55.964713594659145 10.170762486128865 0 -1 0 I I #
coedge $-1 $210 $210 $-1 $307 reversed $126 $-1 #
edge $-1 $308 0 $308 6.2831853071796004 $127 $309 forward 7 unknown #
vertex $-1 $130 $310 #
ellipse-curve $-1 -38.462216441007058 42.039087776338548 7.1226813732141574 0 0.80901700255871778 0.5877852410284794 1.5 0 0 1 I I #
coedge $-1 $214 $214 $-1 $311 reversed $133 $-1 #
edge $-1 $312 0 $312 6.2831853071796004 $134 $313 forward 7 unknown #
vertex $-1 $137 $314 #
ellipse-curve $-1 -31.474793200736812 42.039087776338548 7.1226813732141574 0 0.80901700255871778 0.5877852410284794 1.5 0 0 1 I I #
face $-1 $-1 $315 $29 $-1 $316 reversed single #
loop $-1 $-1 $144 $138 #
plane-surface $-1 0 0 10.170762486128861 0 0 1 1 0 0 forward_v I I I I #
coedge $-1 $317 $318 $319 $320 reversed $139 $-1 #
coedge $-1 $321 $141 $143 $228 forward $87 $-1 #
coedge $-1 $141 $321 $317 $322 forward $87 $-1 #
coedge $-1 $319 $144 $141 $225 forward $219 $-1 #
edge $-1 $231 11.352797664346859 $323 27.656785224977433 $224 $324 forward 7 unknown #
coedge $-1 $325 $326 $142 $227 forward $315 $-1 #
edge $-1 $327 -77.24788186015914 $230 -71.151719634329737 $226 $328 forward 7 unknown #
edge $-1 $231 80.972025700914088 $327 88.507296537681142 $143 $329 forward 7 unknown #
coedge $-1 $144 $319 $325 $330 forward $219 $-1 #
vertex $-1 $145 $331 #
vertex $-1 $145 $332 #
straight-curve $-1 30.857589109009005 55.964713594659145 10.170762486128865 0 -1 0 I I #
coedge $-1 $233 $233 $-1 $333 reversed $148 $-1 #
edge $-1 $334 0 $334 6.2831853071796004 $149 $335 forward 7 unknown #
vertex $-1 $152 $336 #
ellipse-curve $-1 35.515871269189176 42.039087776338548 7.1226813732141574 0 0.80901700255871778 0.5877852410284794 1.5 0 0 1 I I #
coedge $-1 $237 $237 $-1 $337 reversed $155 $-1 #
edge $-1 $338 0 $338 6.2831853071796004 $156 $339 forward 7 unknown #
vertex $-1 $159 $340 #
ellipse-curve $-1 42.503294509459423 42.039087776338548 7.1226813732141574 0 0.80901700255871778 0.5877852410284794 1.5 0 0 1 I I #
face $-1 $-1 $175 $24 $-1 $341 reversed single #
loop $-1 $-1 $257 $160 #
plane-surface $-1 0 44.25364826884055 0 0 -1 0 0 0 -1 forward_v I I I I #
coedge $-1 $342 $255 $258 $343 forward $161 $-1 #
coedge $-1 $261 $163 $164 $249 reversed $101 $-1 #
coedge $-1 $255 $342 $163 $247 reversed $161 $-1 #
edge $-1 $262 -10.170762486128861 $344 10.170762486128861 $246 $345 forward 7 unknown #
coedge $-1 $165 $164 $342 $346 forward $65 $-1 #
edge $-1 $253 -73.978087710196235 $344 73.978087710196235 $245 $347 forward 7 unknown #
coedge $-1 $258 $257 $165 $251 reversed $242 $-1 #
edge $-1 $348 -73.978087710196235 $252 73.978087710196235 $250 $349 forward 7 unknown #
vertex $-1 $167 $350 #
vertex $-1 $264 $351 #
straight-curve $-1 73.978087710196235 0 -10.170762486128861 0 -1 0 I I #
coedge $-1 $244 $246 $168 $256 reversed $161 $-1 #
edge $-1 $259 -44.25364826884055 $262 44.25364826884055 $255 $352 forward 7 unknown #
coedge $-1 $250 $169 $174 $265 forward $242 $-1 #
coedge $-1 $169 $250 $244 $343 reversed $242 $-1 #
vertex $-1 $170 $353 #
straight-curve $-1 0 44.25364826884055 10.170762486128861 -1 0 0 I I #
coedge $-1 $171 $245 $173 $264 reversed $101 $-1 #
vertex $-1 $256 $354 #
straight-curve $-1 0 -44.25364826884055 10.170762486128861 1 0 0 I I #
edge $-1 $176 -10.170762486128861 $253 10.170762486128861 $173 $355 forward 7 unknown #
edge $-1 $177 -10.170762486128861 $252 10.170762486128861 $174 $356 forward 7 unknown #
point $-1 73.978087710196235 -44.25364826884055 10.170762486128861 #
point $-1 73.978087710196235 44.25364826884055 10.170762486128861 #
face $-1 $-1 $282 $25 $-1 $357 reversed single #
loop $-1 $-1 $358 $179 #
plane-surface $-1 0 -51.077796273106713 -8.6600937052291584 0 1 0 0 0 1 forward_v I I I I #
coedge $-1 $359 $182 $191 $286 reversed $109 $-1 #
coedge $-1 $182 $359 $183 $274 reversed $109 $-1 #
coedge $-1 $184 $183 $360 $361 forward $69 $-1 #
edge $-1 $278 44.25364826884055 $362 51.077796273106713 $272 $363 forward 7 unknown #
coedge $-1 $364 $188 $184 $276 reversed $282 $-1 #
edge $-1 $365 -51.077796273106713 $277 -44.25364826884055 $275 $366 forward 7 unknown #
vertex $-1 $189 $367 #
vertex $-1 $274 $368 #
straight-curve $-1 0 -44.25364826884055 -10.170762486128861 1 0 0 I I #
straight-curve $-1 73.978087710196235 -44.25364826884055 0 0 0 1 I I #
coedge $-1 $188 $364 $190 $285 reversed $282 $-1 #
loop $-1 $-1 $188 $268 #
straight-curve $-1 -73.978087710196235 -44.25364826884055 0 0 0 -1 I I #
coedge $-1 $191 $190 $369 $370 forward $180 $-1 #
edge $-1 $192 -3.4120740021330818 $371 3.4120740021330818 $281 $372 forward 7 unknown #
edge $-1 $373 -3.4120740021330818 $193 3.4120740021330818 $271 $374 forward 7 unknown #
point $-1 -73.978087710196235 -44.25364826884055 -7.1494249243294554 #
point $-1 73.978087710196235 -44.25364826884055 -7.1494249243294554 #
loop $-1 $-1 $203 $195 #
plane-surface $-1 0 44.25364826884055 0 0 -1 0 0 0 -1 forward_v I I I I #
coedge $-1 $292 $198 $200 $296 reversed $117 $-1 #
coedge $-1 $198 $291 $375 $376 reversed $117 $-1 #
coedge $-1 $206 $201 $198 $294 forward $196 $-1 #
edge $-1 $297 -16.140186310822592 $377 -11.711065325818595 $293 $378 forward 7 unknown #
coedge $-1 $200 $199 $300 $379 reversed $73 $-1 #
edge $-1 $380 -88.507296537681142 $297 -80.972025700914088 $291 $381 forward 7 unknown #
vertex $-1 $202 $382 #
straight-curve $-1 -17.484252410435968 39.824527283836559 10.170762486128858 1 0 0 I I #
coedge $-1 $375 $203 $206 $304 reversed $289 $-1 #
coedge $-1 $203 $375 $295 $379 forward $289 $-1 #
vertex $-1 $204 $383 #
straight-curve $-1 -43.120498601187222 44.25364826884055 81.322482120458602 0 0 1 I I #
straight-curve $-1 -43.120498601187222 -7.769634359339463 75.678508009789837 0 0.5877852410284794 -0.80901700255871778 I I #
edge $-1 $377 26.816511040556648 $207 43.120498601187222 $299 $384 forward 7 unknown #
point $-1 -43.120498601187222 44.25364826884055 10.170762486128861 #
point $-1 -43.120498601187222 39.824527283836552 10.170762486128865 #
edge $-1 $385 1 $385 0 $210 $-1 forward 7 unknown #
vertex $-1 $211 $386 #
ellipse-curve $-1 -38.462216441007058 37.466636856804882 3.8006014202234013 0 0.80901700255871778 0.5877852410284794 1.5 0 0 1 I I #
point $-1 -36.962216441007058 42.039087776338576 7.122681373214176 #
edge $-1 $387 1 $387 0 $214 $-1 forward 7 unknown #
vertex $-1 $215 $388 #
ellipse-curve $-1 -31.474793200736812 37.466636856804882 3.8006014202234013 0 0.80901700255871778 0.5877852410284794 1.5 0 0 1 I I #
point $-1 -29.974793200736812 42.039087776338576 7.122681373214176 #
loop $-1 $-1 $226 $218 #
plane-surface $-1 0 44.25364826884055 0 0 -1 0 0 0 -1 forward_v I I I I #
coedge $-1 $318 $221 $223 $322 reversed $139 $-1 #
coedge $-1 $221 $317 $389 $390 reversed $139 $-1 #
coedge $-1 $229 $224 $221 $320 forward $219 $-1 #
edge $-1 $323 -16.140186310822592 $391 -11.711065325818595 $319 $392 forward 7 unknown #
coedge $-1 $223 $222 $326 $393 reversed $87 $-1 #
edge $-1 $394 -88.507296537681142 $323 -80.972025700914088 $317 $395 forward 7 unknown #
vertex $-1 $225 $396 #
straight-curve $-1 19.504791444662146 39.824527283836559 10.170762486128858 1 0 0 I I #
coedge $-1 $389 $226 $229 $330 reversed $315 $-1 #
coedge $-1 $226 $389 $321 $393 forward $315 $-1 #
vertex $-1 $227 $397 #
straight-curve $-1 30.857589109009005 44.25364826884055 81.322482120458602 0 0 1 I I #
straight-curve $-1 30.857589109009005 -7.769634359339463 75.678508009789837 0 0.5877852410284794 -0.80901700255871778 I I #
edge $-1 $391 -47.16157666963958 $230 -30.857589109009005 $325 $398 forward 7 unknown #
point $-1 30.857589109009005 44.25364826884055 10.170762486128861 #
point $-1 30.857589109009005 39.824527283836552 10.170762486128865 #
edge $-1 $399 1 $399 0 $233 $-1 forward 7 unknown #
vertex $-1 $234 $400 #
ellipse-curve $-1 35.515871269189176 37.466636856804882 3.8006014202234013 0 0.80901700255871778 0.5877852410284794 1.5 0 0 1 I I #
point $-1 37.015871269189176 42.039087776338576 7.122681373214176 #
edge $-1 $401 1 $401 0 $237 $-1 forward 7 unknown #
vertex $-1 $238 $402 #
ellipse-curve $-1 42.503294509459423 37.466636856804882 3.8006014202234013 0 0.80901700255871778 0.5877852410284794 1.5 0 0 1 I I #
point $-1 44.003294509459423 42.039087776338576 7.122681373214176 #
plane-surface $-1 73.978087710196235 0 0 -1 0 0 0 0 1 forward_v I I I I #
coedge $-1 $246 $244 $248 $346 reversed $161 $-1 #
edge $-1 $259 -10.170762486128861 $348 10.170762486128861 $258 $403 forward 7 unknown #
vertex $-1 $346 $404 #
straight-curve $-1 -73.978087710196235 -44.25364826884055 0 0 0 -1 I I #
edge $-1 $344 -44.25364826884055 $348 44.25364826884055 $342 $405 forward 7 unknown #
straight-curve $-1 0 -44.25364826884055 -10.170762486128861 -1 0 0 I I #
vertex $-1 $251 $406 #
straight-curve $-1 0 44.25364826884055 -10.170762486128861 1 0 0 I I #
point $-1 73.978087710196235 44.25364826884055 -10.170762486128861 #
point $-1 73.978087710196235 -44.25364826884055 -10.170762486128861 #
straight-curve $-1 -73.978087710196235 0 10.170762486128861 0 -1 0 I I #
point $-1 -73.978087710196235 44.25364826884055 10.170762486128861 #
point $-1 -73.978087710196235 -44.25364826884055 10.170762486128861 #
straight-curve $-1 73.978087710196235 -44.25364826884055 0 0 0 -1 I I #
straight-curve $-1 73.978087710196235 44.25364826884055 0 0 0 -1 I I #
plane-surface $-1 -73.978087710196235 0 0 1 0 0 0 0 -1 forward_v I I I I #
coedge $-1 $360 $369 $364 $407 forward $269 $-1 #
coedge $-1 $272 $271 $408 $409 forward $109 $-1 #
coedge $-1 $408 $358 $273 $361 reversed $269 $-1 #
edge $-1 $362 -73.978087710196235 $365 73.978087710196235 $360 $410 forward 7 unknown #
vertex $-1 $409 $411 #
straight-curve $-1 73.978087710196235 0 -10.170762486128861 0 -1 0 I I #
coedge $-1 $281 $275 $358 $407 reversed $282 $-1 #
vertex $-1 $276 $412 #
straight-curve $-1 -73.978087710196235 0 -10.170762486128861 0 1 0 I I #
point $-1 -73.978087710196235 -44.25364826884055 -10.170762486128861 #
point $-1 73.978087710196235 -44.25364826884055 -10.170762486128861 #
coedge $-1 $358 $408 $284 $370 reversed $269 $-1 #
edge $-1 $371 -73.978087710196235 $373 73.978087710196235 $369 $413 forward 7 unknown #
vertex $-1 $285 $414 #
straight-curve $-1 -73.978087710196235 -47.665722270973632 -7.1494249243294554 0 -1 0 I I #
vertex $-1 $286 $415 #
straight-curve $-1 73.978087710196235 -47.665722270973632 -7.1494249243294554 0 1 0 I I #
coedge $-1 $300 $299 $292 $376 forward $289 $-1 #
edge $-1 $377 71.151719634329737 $380 77.24788186015914 $375 $416 forward 7 unknown #
vertex $-1 $304 $417 #
straight-curve $-1 -26.816511040556648 55.964713594659145 10.170762486128865 0 1 0 I I #
edge $-1 $380 9.3322586301206805 $301 25.636246190751255 $300 $418 forward 7 unknown #
vertex $-1 $379 $419 #
straight-curve $-1 -26.816511040556648 -7.769634359339463 75.678508009789837 0 -0.5877852410284794 0.80901700255871778 I I #
point $-1 -26.816511040556648 39.824527283836552 10.170762486128865 #
point $-1 -43.120498601187222 44.25364826884055 4.0746002602994622 #
straight-curve $-1 0 44.25364826884055 10.170762486128861 -1 0 0 I I #
vertex $-1 $307 $420 #
point $-1 -36.962216441007058 37.466636856804882 3.8006014202234013 #
vertex $-1 $311 $421 #
point $-1 -29.974793200736812 37.466636856804882 3.8006014202234013 #
coedge $-1 $326 $325 $318 $390 forward $315 $-1 #
edge $-1 $391 71.151719634329737 $394 77.24788186015914 $389 $422 forward 7 unknown #
vertex $-1 $330 $423 #
straight-curve $-1 47.16157666963958 55.964713594659145 10.170762486128865 0 1 0 I I #
edge $-1 $394 -27.656785224977433 $327 -11.352797664346859 $326 $424 forward 7 unknown #
vertex $-1 $393 $425 #
straight-curve $-1 47.16157666963958 -7.769634359339463 75.678508009789837 0 -0.5877852410284794 0.80901700255871778 I I #
point $-1 47.16157666963958 39.824527283836552 10.170762486128865 #
point $-1 30.857589109009005 44.25364826884055 4.0746002602994622 #
straight-curve $-1 0 44.25364826884055 10.170762486128861 -1 0 0 I I #
vertex $-1 $333 $426 #
point $-1 37.015871269189176 37.466636856804882 3.8006014202234013 #
vertex $-1 $337 $427 #
point $-1 44.003294509459423 37.466636856804882 3.8006014202234013 #
straight-curve $-1 -73.978087710196235 44.25364826884055 0 0 0 -1 I I #
point $-1 -73.978087710196235 -44.25364826884055 -10.170762486128861 #
straight-curve $-1 -73.978087710196235 0 -10.170762486128861 0 1 0 I I #
point $-1 -73.978087710196235 44.25364826884055 -10.170762486128861 #
edge $-1 $371 -1.510668780899703 $365 1.510668780899703 $364 $428 forward 7 unknown #
coedge $-1 $369 $360 $359 $409 reversed $269 $-1 #
edge $-1 $373 -1.510668780899703 $362 1.510668780899703 $359 $429 forward 7 unknown #
straight-curve $-1 0 -51.077796273106713 -10.170762486128861 -1 0 0 I I #
point $-1 73.978087710196235 -51.077796273106713 -10.170762486128861 #
point $-1 -73.978087710196235 -51.077796273106713 -10.170762486128861 #
straight-curve $-1 0 -51.077796273106713 -7.1494249243294554 1 0 0 I I #
point $-1 -73.978087710196235 -51.077796273106713 -7.1494249243294554 #
point $-1 73.978087710196235 -51.077796273106713 -7.1494249243294554 #
straight-curve $-1 -26.816511040556648 44.25364826884055 81.322482120458602 0 0 -1 I I #
point $-1 -26.816511040556648 44.25364826884055 10.170762486128861 #
straight-curve $-1 -17.484252410435968 44.25364826884055 4.0746002602994551 -1 0 0 I I #
point $-1 -26.816511040556648 44.25364826884055 4.0746002602994622 #
point $-1 -38.462216441007058 36.253111352966812 2.9189235586806817 #
point $-1 -31.474793200736812 36.253111352966812 2.9189235586806817 #
straight-curve $-1 47.16157666963958 44.25364826884055 81.322482120458602 0 0 -1 I I #
point $-1 47.16157666963958 44.25364826884055 10.170762486128861 #
straight-curve $-1 19.504791444662146 44.25364826884055 4.0746002602994551 -1 0 0 I I #
point $-1 47.16157666963958 44.25364826884055 4.0746002602994622 #
point $-1 35.515871269189176 36.253111352966812 2.9189235586806817 #
point $-1 42.503294509459423 36.253111352966812 2.9189235586806817 #
straight-curve $-1 -73.978087710196235 -51.077796273106713 -8.6600937052291584 0 0 -1 I I #
straight-curve $-1 73.978087710196235 -51.077796273106713 -8.6600937052291584 0 0 -1 I I #
End-of-ACIS-data 