500 0 14 0           
7 Unknown 11 ACIS 5.0 NT 24 Thu Mar 25 18:00:06 1999 
-1 9.9999999999999995e-007 1e-010 
body $-1 $14 $-1 $15 #
body $-1 $16 $-1 $17 #
body $-1 $18 $-1 $19 #
body $-1 $20 $-1 $21 #
body $-1 $22 $-1 $23 #
body $-1 $24 $-1 $25 #
body $-1 $26 $-1 $27 #
body $-1 $28 $-1 $29 #
body $-1 $30 $-1 $31 #
body $-1 $32 $-1 $33 #
body $-1 $34 $-1 $35 #
body $-1 $36 $-1 $37 #
body $-1 $38 $-1 $39 #
body $-1 $40 $-1 $41 #
lump $-1 $-1 $42 $0 #
transform $-1 1 0 0 0 1 0 0 0 1 69.475997192297129 36.245958714656872 16.707299619695515 1 rotate no_reflect no_shear #
lump $-1 $-1 $43 $1 #
transform $-1 1 0 0 0 1 0 0 0 1 69.475997192297129 36.245958714656872 16.707299619695515 1 rotate no_reflect no_shear #
lump $-1 $-1 $44 $2 #
transform $-1 1 0 0 0 1 0 0 0 1 69.475997192297129 36.245958714656872 16.707299619695515 1 rotate no_reflect no_shear #
lump $-1 $-1 $45 $3 #
transform $-1 1 0 0 0 1 0 0 0 1 69.475997192297129 36.245958714656872 16.707299619695515 1 rotate no_reflect no_shear #
lump $-1 $-1 $46 $4 #
transform $-1 1 0 0 0 1 0 0 0 1 69.475997192297129 36.245958714656872 16.707299619695515 1 rotate no_reflect no_shear #
lump $-1 $-1 $47 $5 #
transform $-1 1 0 0 0 1 0 0 0 1 69.475997192297129 36.245958714656872 16.707299619695515 1 rotate no_reflect no_shear #
lump $-1 $-1 $48 $6 #
transform $-1 1 0 0 0 1 0 0 0 1 69.475997192297129 36.245958714656872 16.707299619695515 1 rotate no_reflect no_shear #
lump $-1 $-1 $49 $7 #
transform $-1 1 0 0 0 1 0 0 0 1 69.475997192297129 36.245958714656872 16.707299619695515 1 rotate no_reflect no_shear #
lump $-1 $-1 $50 $8 #
transform $-1 1 0 0 0 1 0 0 0 1 69.475997192297129 36.245958714656872 16.707299619695515 1 rotate no_reflect no_shear #
lump $-1 $-1 $51 $9 #
transform $-1 1 0 0 0 1 0 0 0 1 69.475997192297129 36.245958714656872 16.707299619695515 1 rotate no_reflect no_shear #
lump $-1 $-1 $52 $10 #
transform $-1 1 0 0 0 1 0 0 0 1 69.475997192297129 36.245958714656872 16.707299619695515 1 rotate no_reflect no_shear #
lump $-1 $-1 $53 $11 #
transform $-1 1 0 0 0 1 0 0 0 1 69.475997192297129 36.245958714656872 16.707299619695515 1 rotate no_reflect no_shear #
lump $-1 $-1 $54 $12 #
transform $-1 1 0 0 0 1 0 0 0 1 69.475997192297129 36.245958714656872 16.707299619695515 1 rotate no_reflect no_shear #
lump $-1 $-1 $55 $13 #
transform $-1 1 0 0 0 1 0 0 0 1 69.475997192297129 36.245958714656872 16.707299619695515 1 rotate no_reflect no_shear #
shell $-1 $-1 $-1 $56 $-1 $14 #
shell $-1 $-1 $-1 $57 $-1 $16 #
shell $-1 $-1 $-1 $58 $-1 $18 #
shell $-1 $-1 $-1 $59 $-1 $20 #
shell $-1 $-1 $-1 $60 $-1 $22 #
shell $-1 $-1 $-1 $61 $-1 $24 #
shell $-1 $-1 $-1 $62 $-1 $26 #
shell $-1 $-1 $-1 $63 $-1 $28 #
shell $-1 $-1 $-1 $64 $-1 $30 #
shell $-1 $-1 $-1 $65 $-1 $32 #
shell $-1 $-1 $-1 $66 $-1 $34 #
shell $-1 $-1 $-1 $67 $-1 $36 #
shell $-1 $-1 $-1 $68 $-1 $38 #
shell $-1 $-1 $-1 $69 $-1 $40 #
face $-1 $70 $71 $42 $-1 $72 forward single #
face $-1 $73 $74 $43 $-1 $75 forward single #
face $-1 $76 $77 $44 $-1 $78 reversed single #
face $-1 $79 $80 $45 $-1 $81 forward single #
face $-1 $82 $83 $46 $-1 $84 forward single #
face $-1 $85 $86 $47 $-1 $87 reversed single #
face $-1 $88 $89 $48 $-1 $90 forward single #
face $-1 $91 $92 $49 $-1 $93 forward single #
face $-1 $94 $95 $50 $-1 $96 reversed single #
face $-1 $97 $98 $51 $-1 $99 forward single #
face $-1 $100 $101 $52 $-1 $102 forward single #
face $-1 $103 $104 $53 $-1 $105 reversed single #
face $-1 $106 $107 $54 $-1 $108 forward single #
face $-1 $109 $110 $55 $-1 $111 forward single #
face $-1 $112 $113 $42 $-1 $114 reversed single #
loop $-1 $-1 $115 $56 #
plane-surface $-1 0 0 16.707299619695515 0 0 1 1 0 0 forward_v I I I I #
face $-1 $116 $117 $43 $-1 $118 reversed single #
loop $-1 $-1 $119 $57 #
plane-surface $-1 -69.475997192297129 0 0 1 0 0 0 0 -1 forward_v I I I I #
face $-1 $120 $121 $44 $-1 $122 reversed single #
loop $-1 $-1 $123 $58 #
plane-surface $-1 0.70549529256166466 -125.56258014409883 115.68297640354997 -1 0 0 0 -0.64278761758704617 0.76604443648966558 forward_v I I I I #
face $-1 $124 $125 $45 $-1 $126 forward single #
loop $-1 $127 $128 $59 #
cone-surface $-1 -12.525294913266549 -29.144642539655294 9.8135357378568209 0 0.64278761758704617 -0.76604443648966558 2.5 0 0 1 I I 0 1 2.5 forward I I I I #
face $-1 $129 $130 $46 $-1 $131 forward single #
loop $-1 $132 $133 $60 #
cone-surface $-1 -4.586820789769618 -29.144642539655294 9.8135357378568209 0 0.64278761758704617 -0.76604443648966558 2.5 0 0 1 I I 0 1 2.5 forward I I I I #
face $-1 $134 $135 $47 $-1 $136 reversed single #
loop $-1 $-1 $137 $61 #
plane-surface $-1 38.26469026526491 -125.56258014409883 115.68297640354997 -1 0 0 0 -0.64278761758704617 0.76604443648966558 forward_v I I I I #
face $-1 $138 $139 $48 $-1 $140 forward single #
loop $-1 $141 $142 $62 #
cone-surface $-1 25.033900059436704 -29.144642539655294 9.8135357378568209 0 0.64278761758704617 -0.76604443648966558 2.5 0 0 1 I I 0 1 2.5 forward I I I I #
face $-1 $143 $144 $49 $-1 $145 forward single #
loop $-1 $146 $147 $63 #
cone-surface $-1 32.972374182933635 -29.144642539655294 9.8135357378568209 0 0.64278761758704617 -0.76604443648966558 2.5 0 0 1 I I 0 1 2.5 forward I I I I #
face $-1 $148 $149 $50 $-1 $150 reversed single #
loop $-1 $-1 $151 $64 #
plane-surface $-1 -13.902863153960645 103.59123258990297 152.88770820503069 1 0 0 0 -0.79863551827123203 -0.60181501223851219 forward_v I I I I #
face $-1 $152 $153 $51 $-1 $154 forward single #
loop $-1 $155 $156 $65 #
cone-surface $-1 -8.304893265831744 32.345572715328736 12.61480757835503 0 -0.79863551827123203 -0.60181501223851219 1.5 0 0 1 I I 0 1 1.5 forward I I I I #
face $-1 $157 $158 $52 $-1 $159 forward single #
loop $-1 $160 $161 $66 #
cone-surface $-1 0.09206156636159335 32.345572715328736 12.61480757835503 0 -0.79863551827123203 -0.60181501223851219 1.5 0 0 1 I I 0 1 1.5 forward I I I I #
face $-1 $162 $163 $53 $-1 $164 reversed single #
loop $-1 $-1 $165 $67 #
plane-surface $-1 45.349594403502927 103.59123258990297 152.88770820503069 1 0 0 0 -0.79863551827123203 -0.60181501223851219 forward_v I I I I #
face $-1 $166 $167 $54 $-1 $168 forward single #
loop $-1 $169 $170 $68 #
cone-surface $-1 50.947564291631835 32.345572715328736 12.61480757835503 0 -0.79863551827123203 -0.60181501223851219 1.5 0 0 1 I I 0 1 1.5 forward I I I I #
face $-1 $171 $172 $55 $-1 $173 forward single #
loop $-1 $174 $175 $69 #
cone-surface $-1 59.344519123825179 32.345572715328736 12.61480757835503 0 -0.79863551827123203 -0.60181501223851219 1.5 0 0 1 I I 0 1 1.5 forward I I I I #
face $-1 $176 $177 $42 $-1 $178 reversed single #
loop $-1 $-1 $179 $70 #
plane-surface $-1 0 0 -16.707299619695515 0 0 1 1 0 0 forward_v I I I I #
coedge $-1 $180 $181 $182 $183 forward $71 $-1 #
face $-1 $184 $185 $43 $-1 $186 forward single #
loop $-1 $-1 $187 $73 #
plane-surface $-1 0 36.245958714656872 0 0 -1 0 0 0 -1 forward_v I I I I #
coedge $-1 $188 $189 $190 $191 forward $74 $-1 #
face $-1 $192 $193 $44 $-1 $194 reversed single #
loop $-1 $-1 $195 $76 #
plane-surface $-1 -8.5560578515180836 -36.245958714656865 9.2395741660882891 0 -0.64278761758704617 0.76604443648966558 1 0 0 forward_v I I I I #
coedge $-1 $196 $197 $198 $199 reversed $77 $-1 #
face $-1 $-1 $200 $45 $-1 $201 forward single #
loop $-1 $202 $203 $79 #
cone-surface $-1 -12.525294913266549 -25.689686068389918 5.6960790372096604 0 0.64278761758704617 -0.76604443648966558 1.25 0 0 1 I I -0.70710678118654746 0.70710678118654746 1.25 forward I I I I #
loop $-1 $-1 $204 $59 #
coedge $-1 $128 $128 $205 $206 reversed $80 $-1 #
face $-1 $-1 $207 $46 $-1 $208 forward single #
loop $-1 $209 $210 $82 #
cone-surface $-1 -4.586820789769618 -25.689686068389918 5.6960790372096604 0 0.64278761758704617 -0.76604443648966558 1.25 0 0 1 I I -0.70710678118654746 0.70710678118654746 1.25 forward I I I I #
loop $-1 $-1 $211 $60 #
coedge $-1 $133 $133 $212 $213 reversed $83 $-1 #
face $-1 $214 $215 $47 $-1 $216 reversed single #
loop $-1 $-1 $217 $85 #
plane-surface $-1 29.003137121185162 -36.245958714656865 9.2395741660882891 0 -0.64278761758704617 0.76604443648966558 1 0 0 forward_v I I I I #
coedge $-1 $218 $219 $220 $221 reversed $86 $-1 #
face $-1 $-1 $222 $48 $-1 $223 forward single #
loop $-1 $224 $225 $88 #
cone-surface $-1 25.033900059436704 -25.689686068389918 5.6960790372096604 0 0.64278761758704617 -0.76604443648966558 1.25 0 0 1 I I -0.70710678118654746 0.70710678118654746 1.25 forward I I I I #
loop $-1 $-1 $226 $62 #
coedge $-1 $142 $142 $227 $228 reversed $89 $-1 #
face $-1 $-1 $229 $49 $-1 $230 forward single #
loop $-1 $231 $232 $91 #
cone-surface $-1 32.972374182933635 -25.689686068389918 5.6960790372096604 0 0.64278761758704617 -0.76604443648966558 1.25 0 0 1 I I -0.70710678118654746 0.70710678118654746 1.25 forward I I I I #
loop $-1 $-1 $233 $63 #
coedge $-1 $147 $147 $234 $235 reversed $92 $-1 #
face $-1 $236 $237 $50 $-1 $238 reversed single #
loop $-1 $-1 $239 $94 #
plane-surface $-1 -4.106415849735086 -7.3807654602587576 69.264312003900443 0 0.79863551827123203 0.60181501223851219 1 0 0 forward_v I I I I #
coedge $-1 $240 $241 $242 $243 reversed $95 $-1 #
face $-1 $-1 $244 $51 $-1 $245 forward single #
loop $-1 $246 $247 $97 #
cone-surface $-1 -8.304893265831744 29.8572979560603 10.739758109050886 0 -0.79863551827123203 -0.60181501223851219 0.75 0 0 1 I I -0.70710678118654757 0.70710678118654757 0.75 forward I I I I #
loop $-1 $-1 $248 $65 #
coedge $-1 $156 $156 $249 $250 reversed $98 $-1 #
face $-1 $-1 $251 $52 $-1 $252 forward single #
loop $-1 $253 $254 $100 #
cone-surface $-1 0.09206156636159335 29.8572979560603 10.739758109050886 0 -0.79863551827123203 -0.60181501223851219 0.75 0 0 1 I I -0.70710678118654757 0.70710678118654757 0.75 forward I I I I #
loop $-1 $-1 $255 $66 #
coedge $-1 $161 $161 $256 $257 reversed $101 $-1 #
face $-1 $258 $259 $53 $-1 $260 reversed single #
loop $-1 $-1 $261 $103 #
plane-surface $-1 55.146041707728486 -7.3807654602587576 69.264312003900443 0 0.79863551827123203 0.60181501223851219 1 0 0 forward_v I I I I #
coedge $-1 $262 $263 $264 $265 reversed $104 $-1 #
face $-1 $-1 $266 $54 $-1 $267 forward single #
loop $-1 $268 $269 $106 #
cone-surface $-1 50.947564291631835 29.8572979560603 10.739758109050886 0 -0.79863551827123203 -0.60181501223851219 0.75 0 0 1 I I -0.70710678118654757 0.70710678118654757 0.75 forward I I I I #
loop $-1 $-1 $270 $68 #
coedge $-1 $170 $170 $271 $272 reversed $107 $-1 #
face $-1 $-1 $273 $55 $-1 $274 forward single #
loop $-1 $275 $276 $109 #
cone-surface $-1 59.344519123825179 29.8572979560603 10.739758109050886 0 -0.79863551827123203 -0.60181501223851219 0.75 0 0 1 I I -0.70710678118654757 0.70710678118654757 0.75 forward I I I I #
loop $-1 $-1 $277 $69 #
coedge $-1 $175 $175 $278 $279 reversed $110 $-1 #
face $-1 $280 $281 $42 $-1 $282 reversed single #
loop $-1 $-1 $283 $112 #
plane-surface $-1 0 -36.245958714656872 0 0 1 0 0 0 1 forward_v I I I I #
coedge $-1 $284 $285 $286 $287 forward $113 $-1 #
coedge $-1 $288 $115 $289 $290 forward $71 $-1 #
coedge $-1 $115 $288 $291 $292 forward $71 $-1 #
coedge $-1 $293 $294 $115 $183 reversed $295 $-1 #
edge $-1 $296 -36.245958714656872 $297 36.245958714656872 $182 $298 forward 7 unknown #
face $-1 $299 $300 $43 $-1 $301 reversed single #
loop $-1 $-1 $190 $116 #
plane-surface $-1 -79.699536827130672 0 2.2213448923187862 0 0 1 1 0 0 forward_v I I I I #
coedge $-1 $302 $303 $189 $304 forward $117 $-1 #
coedge $-1 $305 $119 $306 $307 reversed $74 $-1 #
coedge $-1 $119 $305 $187 $304 reversed $74 $-1 #
coedge $-1 $308 $309 $119 $191 reversed $185 $-1 #
edge $-1 $310 -36.245958714656872 $311 36.245958714656872 $190 $312 forward 7 unknown #
face $-1 $313 $314 $44 $-1 $315 reversed single #
loop $-1 $-1 $316 $120 #
plane-surface $-1 -17.817610995597832 -125.56258014409883 115.68297640354997 1 0 0 0 0.64278761758704617 -0.76604443648966558 forward_v I I I I #
coedge $-1 $317 $318 $319 $320 reversed $121 $-1 #
coedge $-1 $197 $123 $321 $322 reversed $77 $-1 #
coedge $-1 $123 $196 $317 $323 reversed $77 $-1 #
coedge $-1 $319 $324 $123 $199 forward $325 $-1 #
edge $-1 $326 26.535331357392543 $327 35.435019808832571 $198 $328 forward 7 unknown #
loop $-1 $-1 $205 $124 #
plane-surface $-1 -8.5560578515180836 -36.245958714656865 9.2395741660882891 0 -0.64278761758704617 0.76604443648966558 1 0 0 forward_v I I I I #
loop $-1 $-1 $329 $79 #
coedge $-1 $203 $203 $204 $330 reversed $125 $-1 #
coedge $-1 $204 $204 $203 $330 forward $127 $-1 #
coedge $-1 $205 $205 $128 $206 forward $200 $-1 #
edge $-1 $331 -1.7515847460830894e-016 $331 6.2831853071796004 $205 $332 forward 7 unknown #
loop $-1 $-1 $212 $129 #
plane-surface $-1 -8.5560578515180836 -36.245958714656865 9.2395741660882891 0 -0.64278761758704617 0.76604443648966558 1 0 0 forward_v I I I I #
loop $-1 $-1 $333 $82 #
coedge $-1 $210 $210 $211 $334 reversed $130 $-1 #
coedge $-1 $211 $211 $210 $334 forward $132 $-1 #
coedge $-1 $212 $212 $133 $213 forward $207 $-1 #
edge $-1 $335 -1.7515847460830894e-016 $335 6.2831853071796004 $212 $336 forward 7 unknown #
face $-1 $337 $338 $47 $-1 $339 reversed single #
loop $-1 $-1 $340 $134 #
plane-surface $-1 19.741583977105414 -125.56258014409883 115.68297640354997 1 0 0 0 0.64278761758704617 -0.76604443648966558 forward_v I I I I #
coedge $-1 $341 $342 $343 $344 reversed $135 $-1 #
coedge $-1 $219 $137 $345 $346 reversed $86 $-1 #
coedge $-1 $137 $218 $341 $347 reversed $86 $-1 #
coedge $-1 $343 $348 $137 $221 forward $349 $-1 #
edge $-1 $350 26.535331357392543 $351 35.435019808832571 $220 $352 forward 7 unknown #
loop $-1 $-1 $227 $138 #
plane-surface $-1 29.003137121185162 -36.245958714656865 9.2395741660882891 0 -0.64278761758704617 0.76604443648966558 1 0 0 forward_v I I I I #
loop $-1 $-1 $353 $88 #
coedge $-1 $225 $225 $226 $354 reversed $139 $-1 #
coedge $-1 $226 $226 $225 $354 forward $141 $-1 #
coedge $-1 $227 $227 $142 $228 forward $222 $-1 #
edge $-1 $355 -1.7515847460830894e-016 $355 6.2831853071796004 $227 $356 forward 7 unknown #
loop $-1 $-1 $234 $143 #
plane-surface $-1 29.003137121185162 -36.245958714656865 9.2395741660882891 0 -0.64278761758704617 0.76604443648966558 1 0 0 forward_v I I I I #
loop $-1 $-1 $357 $91 #
coedge $-1 $232 $232 $233 $358 reversed $144 $-1 #
coedge $-1 $233 $233 $232 $358 forward $146 $-1 #
coedge $-1 $234 $234 $147 $235 forward $229 $-1 #
edge $-1 $359 -1.7515847460830894e-016 $359 6.2831853071796004 $234 $360 forward 7 unknown #
face $-1 $361 $362 $50 $-1 $363 forward single #
loop $-1 $-1 $364 $148 #
plane-surface $-1 5.6900314544904731 103.59123258990297 152.88770820503069 -1 0 0 0 0.79863551827123203 0.60181501223851219 forward_v I I I I #
coedge $-1 $365 $366 $367 $368 reversed $149 $-1 #
coedge $-1 $241 $151 $369 $370 reversed $95 $-1 #
coedge $-1 $151 $240 $365 $371 reversed $95 $-1 #
coedge $-1 $367 $372 $151 $243 forward $362 $-1 #
edge $-1 $373 15.549657580294614 $374 19.571833337820799 $242 $375 forward 7 unknown #
loop $-1 $-1 $249 $152 #
plane-surface $-1 -4.106415849735086 -7.3807654602587576 69.264312003900443 0 0.79863551827123203 0.60181501223851219 1 0 0 forward_v I I I I #
loop $-1 $-1 $376 $97 #
coedge $-1 $247 $247 $248 $377 reversed $153 $-1 #
coedge $-1 $248 $248 $247 $377 forward $155 $-1 #
coedge $-1 $249 $249 $156 $250 forward $244 $-1 #
edge $-1 $378 -1.0398911092268053e-015 $378 6.2831853071795996 $249 $379 forward 7 unknown #
loop $-1 $-1 $256 $157 #
plane-surface $-1 -4.106415849735086 -7.3807654602587576 69.264312003900443 0 0.79863551827123203 0.60181501223851219 1 0 0 forward_v I I I I #
loop $-1 $-1 $380 $100 #
coedge $-1 $254 $254 $255 $381 reversed $158 $-1 #
coedge $-1 $255 $255 $254 $381 forward $160 $-1 #
coedge $-1 $256 $256 $161 $257 forward $251 $-1 #
edge $-1 $382 -1.0398911092268053e-015 $382 6.2831853071795996 $256 $383 forward 7 unknown #
face $-1 $384 $385 $53 $-1 $386 forward single #
loop $-1 $-1 $387 $162 #
plane-surface $-1 64.942489011954052 103.59123258990297 152.88770820503069 -1 0 0 0 0.79863551827123203 0.60181501223851219 forward_v I I I I #
coedge $-1 $388 $389 $390 $391 reversed $163 $-1 #
coedge $-1 $263 $165 $392 $393 reversed $104 $-1 #
coedge $-1 $165 $262 $388 $394 reversed $104 $-1 #
coedge $-1 $390 $395 $165 $265 forward $385 $-1 #
edge $-1 $396 15.549657580294614 $397 19.571833337820799 $264 $398 forward 7 unknown #
loop $-1 $-1 $271 $166 #
plane-surface $-1 55.146041707728486 -7.3807654602587576 69.264312003900443 0 0.79863551827123203 0.60181501223851219 1 0 0 forward_v I I I I #
loop $-1 $-1 $399 $106 #
coedge $-1 $269 $269 $270 $400 reversed $167 $-1 #
coedge $-1 $270 $270 $269 $400 forward $169 $-1 #
coedge $-1 $271 $271 $170 $272 forward $266 $-1 #
edge $-1 $401 -1.0398911092268053e-015 $401 6.2831853071795996 $271 $402 forward 7 unknown #
loop $-1 $-1 $278 $171 #
plane-surface $-1 55.146041707728486 -7.3807654602587576 69.264312003900443 0 0.79863551827123203 0.60181501223851219 1 0 0 forward_v I I I I #
loop $-1 $-1 $403 $109 #
coedge $-1 $276 $276 $277 $404 reversed $172 $-1 #
coedge $-1 $277 $277 $276 $404 forward $174 $-1 #
coedge $-1 $278 $278 $175 $279 forward $273 $-1 #
edge $-1 $405 -1.0398911092268053e-015 $405 6.2831853071795996 $278 $406 forward 7 unknown #
face $-1 $407 $408 $42 $-1 $409 reversed single #
loop $-1 $-1 $410 $176 #
plane-surface $-1 -69.475997192297129 0 0 1 0 0 0 0 -1 forward_v I I I I #
coedge $-1 $411 $291 $410 $412 forward $177 $-1 #
coedge $-1 $413 $179 $411 $414 forward $113 $-1 #
coedge $-1 $179 $413 $415 $416 forward $113 $-1 #
coedge $-1 $294 $293 $179 $287 reversed $295 $-1 #
edge $-1 $417 -36.245958714656872 $418 36.245958714656872 $286 $419 forward 7 unknown #
coedge $-1 $181 $180 $420 $421 forward $71 $-1 #
coedge $-1 $422 $423 $180 $290 reversed $408 $-1 #
edge $-1 $297 -69.475997192297129 $424 69.475997192297129 $289 $425 forward 7 unknown #
coedge $-1 $283 $426 $181 $292 reversed $177 $-1 #
edge $-1 $427 -69.475997192297129 $296 69.475997192297129 $291 $428 forward 7 unknown #
coedge $-1 $286 $182 $426 $429 forward $295 $-1 #
coedge $-1 $182 $286 $422 $430 reversed $295 $-1 #
loop $-1 $-1 $293 $407 #
vertex $-1 $183 $431 #
vertex $-1 $183 $432 #
straight-curve $-1 69.475997192297129 0 16.707299619695515 0 1 0 I I #
face $-1 $433 $434 $43 $-1 $435 reversed single #
loop $-1 $-1 $436 $184 #
plane-surface $-1 -79.699536827130672 0 -7.3875831222388406 0 0 1 1 0 0 forward_v I I I I #
coedge $-1 $437 $187 $438 $439 reversed $117 $-1 #
coedge $-1 $187 $437 $308 $440 reversed $117 $-1 #
edge $-1 $310 -2.2213448923187862 $441 7.3875831222388406 $187 $442 forward 7 unknown #
coedge $-1 $189 $188 $436 $443 forward $74 $-1 #
coedge $-1 $444 $445 $188 $307 forward $446 $-1 #
edge $-1 $447 -7.3875831222388406 $311 2.2213448923187862 $306 $448 forward 7 unknown #
coedge $-1 $449 $190 $303 $440 forward $185 $-1 #
coedge $-1 $190 $449 $444 $450 forward $185 $-1 #
vertex $-1 $304 $451 #
vertex $-1 $450 $452 #
straight-curve $-1 -69.475997192297129 0 2.2213448923187862 0 -1 0 I I #
face $-1 $-1 $325 $44 $-1 $453 forward single #
loop $-1 $-1 $454 $192 #
plane-surface $-1 0 -36.245958714656872 0 0 1 0 0 0 1 forward_v I I I I #
coedge $-1 $455 $456 $457 $458 reversed $193 $-1 #
coedge $-1 $459 $195 $197 $323 forward $121 $-1 #
coedge $-1 $195 $459 $455 $460 forward $121 $-1 #
coedge $-1 $457 $198 $195 $320 forward $325 $-1 #
edge $-1 $327 -4.9835242183207065 $461 13.53958206983879 $319 $462 forward 7 unknown #
coedge $-1 $463 $464 $196 $322 forward $314 $-1 #
edge $-1 $465 -48.601914035686704 $326 -41.134188582079474 $321 $466 forward 7 unknown #
edge $-1 $327 -11.617718277835287 $465 8.8685336385193395e-015 $197 $467 forward 7 unknown #
coedge $-1 $198 $457 $463 $468 forward $325 $-1 #
loop $-1 $-1 $457 $313 #
vertex $-1 $322 $469 #
vertex $-1 $199 $470 #
straight-curve $-1 0.70549529256166466 -62.781290072049416 16.707299619695519 0 1 0 I I #
coedge $-1 $329 $329 $-1 $471 reversed $202 $-1 #
edge $-1 $472 0 $472 6.2831853071796004 $203 $473 forward 7 unknown #
vertex $-1 $206 $474 #
ellipse-curve $-1 -12.525294913266549 -31.796114488936858 12.973436892891897 0 -0.64278761758704617 0.76604443648966558 2.5 0 0 1 I I #
coedge $-1 $333 $333 $-1 $475 reversed $209 $-1 #
edge $-1 $476 0 $476 6.2831853071796004 $210 $477 forward 7 unknown #
vertex $-1 $213 $478 #
ellipse-curve $-1 -4.586820789769618 -31.796114488936858 12.973436892891897 0 -0.64278761758704617 0.76604443648966558 2.5 0 0 1 I I #
face $-1 $-1 $349 $47 $-1 $479 forward single #
loop $-1 $-1 $480 $214 #
plane-surface $-1 0 -36.245958714656872 0 0 1 0 0 0 1 forward_v I I I I #
coedge $-1 $481 $482 $483 $484 reversed $215 $-1 #
coedge $-1 $485 $217 $219 $347 forward $135 $-1 #
coedge $-1 $217 $485 $481 $486 forward $135 $-1 #
coedge $-1 $483 $220 $217 $344 forward $349 $-1 #
edge $-1 $351 -23.763121704672329 $487 -5.2400154165128328 $343 $488 forward 7 unknown #
coedge $-1 $489 $490 $218 $346 forward $338 $-1 #
edge $-1 $491 -48.601914035686704 $350 -41.134188582079474 $345 $492 forward 7 unknown #
edge $-1 $351 -11.617718277835287 $491 8.8685336385193395e-015 $219 $493 forward 7 unknown #
coedge $-1 $220 $483 $489 $494 forward $349 $-1 #
loop $-1 $-1 $483 $337 #
vertex $-1 $346 $495 #
vertex $-1 $221 $496 #
straight-curve $-1 38.26469026526491 -62.781290072049416 16.707299619695519 0 1 0 I I #
coedge $-1 $353 $353 $-1 $497 reversed $224 $-1 #
edge $-1 $498 0 $498 6.2831853071796004 $225 $499 forward 7 unknown #
vertex $-1 $228 $500 #
ellipse-curve $-1 25.033900059436704 -31.796114488936858 12.973436892891897 0 -0.64278761758704617 0.76604443648966558 2.5 0 0 1 I I #
coedge $-1 $357 $357 $-1 $501 reversed $231 $-1 #
edge $-1 $502 0 $502 6.2831853071796004 $232 $503 forward 7 unknown #
vertex $-1 $235 $504 #
ellipse-curve $-1 32.972374182933635 -31.796114488936858 12.973436892891897 0 -0.64278761758704617 0.76604443648966558 2.5 0 0 1 I I #
face $-1 $-1 $505 $50 $-1 $506 reversed single #
loop $-1 $-1 $242 $236 #
plane-surface $-1 0 0 16.707299619695515 0 0 1 1 0 0 forward_v I I I I #
coedge $-1 $507 $508 $509 $510 reversed $237 $-1 #
coedge $-1 $511 $239 $241 $371 forward $149 $-1 #
coedge $-1 $239 $511 $507 $512 forward $149 $-1 #
coedge $-1 $509 $242 $239 $368 forward $362 $-1 #
edge $-1 $374 -11.849655229093102 $513 7.7432393793580161 $367 $514 forward 7 unknown #
coedge $-1 $515 $516 $240 $370 forward $505 $-1 #
edge $-1 $517 -65.074162145250199 $373 -59.736554482819827 $369 $518 forward 7 unknown #
edge $-1 $374 65.808508614759035 $517 72.491917429313688 $241 $519 forward 7 unknown #
coedge $-1 $242 $509 $515 $520 forward $362 $-1 #
vertex $-1 $243 $521 #
vertex $-1 $243 $522 #
straight-curve $-1 -13.902863153960645 51.795616294951486 16.707299619695519 0 -1 0 I I #
coedge $-1 $376 $376 $-1 $523 reversed $246 $-1 #
edge $-1 $524 0 $524 6.2831853071796004 $247 $525 forward 7 unknown #
vertex $-1 $250 $526 #
ellipse-curve $-1 -8.304893265831744 34.234870835893794 14.038495788480326 0 0.79863551827123203 0.60181501223851219 1.5 0 0 1 I I #
coedge $-1 $380 $380 $-1 $527 reversed $253 $-1 #
edge $-1 $528 0 $528 6.2831853071796004 $254 $529 forward 7 unknown #
vertex $-1 $257 $530 #
ellipse-curve $-1 0.09206156636159335 34.234870835893794 14.038495788480326 0 0.79863551827123203 0.60181501223851219 1.5 0 0 1 I I #
face $-1 $-1 $531 $53 $-1 $532 reversed single #
loop $-1 $-1 $264 $258 #
plane-surface $-1 0 0 16.707299619695515 0 0 1 1 0 0 forward_v I I I I #
coedge $-1 $533 $534 $535 $536 reversed $259 $-1 #
coedge $-1 $537 $261 $263 $394 forward $163 $-1 #
coedge $-1 $261 $537 $533 $538 forward $163 $-1 #
coedge $-1 $535 $264 $261 $391 forward $385 $-1 #
edge $-1 $397 17.776573549638684 $539 37.369468158089809 $390 $540 forward 7 unknown #
coedge $-1 $541 $542 $262 $393 forward $531 $-1 #
edge $-1 $543 -65.074162145250199 $396 -59.736554482819827 $392 $544 forward 7 unknown #
edge $-1 $397 65.808508614759035 $543 72.491917429313688 $263 $545 forward 7 unknown #
coedge $-1 $264 $535 $541 $546 forward $385 $-1 #
vertex $-1 $265 $547 #
vertex $-1 $265 $548 #
straight-curve $-1 45.349594403502927 51.795616294951486 16.707299619695519 0 -1 0 I I #
coedge $-1 $399 $399 $-1 $549 reversed $268 $-1 #
edge $-1 $550 0 $550 6.2831853071796004 $269 $551 forward 7 unknown #
vertex $-1 $272 $552 #
ellipse-curve $-1 50.947564291631835 34.234870835893794 14.038495788480326 0 0.79863551827123203 0.60181501223851219 1.5 0 0 1 I I #
coedge $-1 $403 $403 $-1 $553 reversed $275 $-1 #
edge $-1 $554 0 $554 6.2831853071796004 $276 $555 forward 7 unknown #
vertex $-1 $279 $556 #
ellipse-curve $-1 59.344519123825179 34.234870835893794 14.038495788480326 0 0.79863551827123203 0.60181501223851219 1.5 0 0 1 I I #
face $-1 $-1 $295 $42 $-1 $557 reversed single #
loop $-1 $-1 $422 $280 #
plane-surface $-1 0 36.245958714656872 0 0 -1 0 0 0 -1 forward_v I I I I #
coedge $-1 $420 $558 $283 $412 reversed $281 $-1 #
coedge $-1 $426 $283 $284 $414 reversed $177 $-1 #
edge $-1 $427 -16.707299619695515 $559 16.707299619695515 $410 $560 forward 7 unknown #
coedge $-1 $285 $284 $558 $561 forward $113 $-1 #
edge $-1 $418 -69.475997192297129 $559 69.475997192297129 $411 $562 forward 7 unknown #
coedge $-1 $423 $422 $285 $416 reversed $408 $-1 #
edge $-1 $563 -69.475997192297129 $417 69.475997192297129 $415 $564 forward 7 unknown #
vertex $-1 $287 $565 #
vertex $-1 $429 $566 #
straight-curve $-1 69.475997192297129 0 -16.707299619695515 0 -1 0 I I #
coedge $-1 $567 $410 $288 $421 reversed $281 $-1 #
edge $-1 $424 -36.245958714656872 $427 36.245958714656872 $420 $568 forward 7 unknown #
coedge $-1 $415 $289 $294 $430 forward $408 $-1 #
coedge $-1 $289 $415 $567 $569 reversed $408 $-1 #
vertex $-1 $290 $570 #
straight-curve $-1 0 36.245958714656872 16.707299619695515 -1 0 0 I I #
coedge $-1 $291 $411 $293 $429 reversed $177 $-1 #
vertex $-1 $421 $571 #
straight-curve $-1 0 -36.245958714656872 16.707299619695515 1 0 0 I I #
edge $-1 $296 -16.707299619695515 $418 16.707299619695515 $293 $572 forward 7 unknown #
edge $-1 $297 -16.707299619695515 $417 16.707299619695515 $294 $573 forward 7 unknown #
point $-1 69.475997192297129 -36.245958714656872 16.707299619695515 #
point $-1 69.475997192297129 36.245958714656872 16.707299619695515 #
face $-1 $-1 $446 $43 $-1 $574 reversed single #
loop $-1 $-1 $575 $299 #
plane-surface $-1 -89.923076461964214 0 -2.5831191149600272 1 0 0 0 0 -1 forward_v I I I I #
coedge $-1 $576 $438 $305 $443 reversed $300 $-1 #
coedge $-1 $303 $302 $575 $577 reversed $117 $-1 #
coedge $-1 $436 $578 $302 $439 forward $300 $-1 #
edge $-1 $579 -10.223539634833543 $441 10.223539634833543 $302 $580 forward 7 unknown #
edge $-1 $310 -10.223539634833543 $581 10.223539634833543 $303 $582 forward 7 unknown #
vertex $-1 $304 $583 #
straight-curve $-1 -69.475997192297129 36.245958714656872 0 0 0 -1 I I #
edge $-1 $447 -36.245958714656872 $441 36.245958714656872 $436 $584 forward 7 unknown #
coedge $-1 $585 $306 $309 $450 reversed $446 $-1 #
coedge $-1 $306 $585 $576 $586 reversed $446 $-1 #
loop $-1 $-1 $306 $433 #
vertex $-1 $307 $587 #
straight-curve $-1 -69.475997192297129 -36.245958714656872 0 0 0 1 I I #
coedge $-1 $309 $308 $588 $589 forward $185 $-1 #
edge $-1 $590 -10.223539634833543 $311 10.223539634833543 $444 $591 forward 7 unknown #
point $-1 -69.475997192297129 36.245958714656872 2.2213448923187862 #
point $-1 -69.475997192297129 -36.245958714656872 2.2213448923187862 #
plane-surface $-1 0 0 16.707299619695515 0 0 1 1 0 0 forward_v I I I I #
coedge $-1 $464 $463 $456 $592 forward $314 $-1 #
coedge $-1 $456 $316 $318 $460 reversed $193 $-1 #
coedge $-1 $316 $455 $454 $592 reversed $193 $-1 #
coedge $-1 $324 $319 $316 $458 forward $325 $-1 #
edge $-1 $461 -35.435019808832571 $593 -26.535331357392543 $457 $594 forward 7 unknown #
coedge $-1 $318 $317 $464 $595 reversed $121 $-1 #
edge $-1 $596 -8.8685336385193395e-015 $461 11.617718277835287 $455 $597 forward 7 unknown #
vertex $-1 $320 $598 #
straight-curve $-1 -4.2780289257590418 -27.346270263216844 16.707299619695515 -1 0 0 I I #
coedge $-1 $454 $321 $324 $468 reversed $314 $-1 #
coedge $-1 $321 $454 $459 $595 forward $314 $-1 #
vertex $-1 $322 $599 #
straight-curve $-1 0.70549529256166466 -36.245958714656872 57.841488201774986 0 0 1 I I #
straight-curve $-1 0.70549529256166466 -36.245958714656865 9.2395741660882891 0 -0.76604443648966558 -0.64278761758704617 I I #
edge $-1 $593 -17.817610995597832 $326 0.70549529256166466 $463 $600 forward 7 unknown #
point $-1 0.70549529256166466 -36.245958714656872 16.707299619695515 #
point $-1 0.70549529256166466 -27.346270263216844 16.707299619695515 #
edge $-1 $601 1 $601 0 $329 $-1 forward 7 unknown #
vertex $-1 $330 $602 #
ellipse-curve $-1 -12.525294913266549 -26.493170590373726 6.6536345828217422 0 -0.64278761758704617 0.76604443648966558 2.5 0 0 1 I I #
point $-1 -10.025294913266549 -31.796114488936862 12.9734368928919 #
edge $-1 $603 1 $603 0 $333 $-1 forward 7 unknown #
vertex $-1 $334 $604 #
ellipse-curve $-1 -4.586820789769618 -26.493170590373726 6.6536345828217422 0 -0.64278761758704617 0.76604443648966558 2.5 0 0 1 I I #
point $-1 -2.086820789769618 -31.796114488936862 12.9734368928919 #
plane-surface $-1 0 0 16.707299619695515 0 0 1 1 0 0 forward_v I I I I #
coedge $-1 $490 $489 $482 $605 forward $338 $-1 #
coedge $-1 $482 $340 $342 $486 reversed $215 $-1 #
coedge $-1 $340 $481 $480 $605 reversed $215 $-1 #
coedge $-1 $348 $343 $340 $484 forward $349 $-1 #
edge $-1 $487 -35.435019808832571 $606 -26.535331357392543 $483 $607 forward 7 unknown #
coedge $-1 $342 $341 $490 $608 reversed $135 $-1 #
edge $-1 $609 -8.8685336385193395e-015 $487 11.617718277835287 $481 $610 forward 7 unknown #
vertex $-1 $344 $611 #
straight-curve $-1 14.501568560592581 -27.346270263216844 16.707299619695515 -1 0 0 I I #
coedge $-1 $480 $345 $348 $494 reversed $338 $-1 #
coedge $-1 $345 $480 $485 $608 forward $338 $-1 #
vertex $-1 $346 $612 #
straight-curve $-1 38.26469026526491 -36.245958714656872 57.841488201774986 0 0 1 I I #
straight-curve $-1 38.26469026526491 -36.245958714656865 9.2395741660882891 0 -0.76604443648966558 -0.64278761758704617 I I #
edge $-1 $606 19.741583977105414 $350 38.26469026526491 $489 $613 forward 7 unknown #
point $-1 38.26469026526491 -36.245958714656872 16.707299619695515 #
point $-1 38.26469026526491 -27.346270263216844 16.707299619695515 #
edge $-1 $614 1 $614 0 $353 $-1 forward 7 unknown #
vertex $-1 $354 $615 #
ellipse-curve $-1 25.033900059436704 -26.493170590373726 6.6536345828217422 0 -0.64278761758704617 0.76604443648966558 2.5 0 0 1 I I #
point $-1 27.533900059436704 -31.796114488936862 12.9734368928919 #
edge $-1 $616 1 $616 0 $357 $-1 forward 7 unknown #
vertex $-1 $358 $617 #
ellipse-curve $-1 32.972374182933635 -26.493170590373726 6.6536345828217422 0 -0.64278761758704617 0.76604443648966558 2.5 0 0 1 I I #
point $-1 35.472374182933635 -31.796114488936862 12.9734368928919 #
loop $-1 $-1 $369 $361 #
plane-surface $-1 0 36.245958714656872 0 0 -1 0 0 0 -1 forward_v I I I I #
coedge $-1 $508 $364 $366 $512 reversed $237 $-1 #
coedge $-1 $364 $507 $618 $619 reversed $237 $-1 #
coedge $-1 $372 $367 $364 $510 forward $362 $-1 #
edge $-1 $513 -19.571833337820799 $620 -15.549657580294614 $509 $621 forward 7 unknown #
coedge $-1 $366 $365 $516 $622 reversed $149 $-1 #
edge $-1 $623 -72.491917429313688 $513 -65.808508614759035 $507 $624 forward 7 unknown #
vertex $-1 $368 $625 #
straight-curve $-1 -2.053207924867543 32.223782957130688 16.707299619695519 1 0 0 I I #
coedge $-1 $618 $369 $372 $520 reversed $505 $-1 #
coedge $-1 $369 $618 $511 $622 forward $505 $-1 #
vertex $-1 $370 $626 #
straight-curve $-1 -13.902863153960645 36.245958714656872 76.443854102515346 0 0 1 I I #
straight-curve $-1 -13.902863153960645 -7.3807654602587576 69.264312003900443 0 0.60181501223851219 -0.79863551827123203 I I #
edge $-1 $620 -5.6900314544904731 $373 13.902863153960645 $515 $627 forward 7 unknown #
point $-1 -13.902863153960645 36.245958714656872 16.707299619695515 #
point $-1 -13.902863153960645 32.223782957130688 16.707299619695526 #
edge $-1 $628 1 $628 0 $376 $-1 forward 7 unknown #
vertex $-1 $377 $629 #
ellipse-curve $-1 -8.304893265831744 30.456274594763723 11.191119368229771 0 0.79863551827123203 0.60181501223851219 1.5 0 0 1 I I #
point $-1 -6.804893265831744 34.234870835893744 14.03849578848029 #
edge $-1 $630 1 $630 0 $380 $-1 forward 7 unknown #
vertex $-1 $381 $631 #
ellipse-curve $-1 0.09206156636159335 30.456274594763723 11.191119368229771 0 0.79863551827123203 0.60181501223851219 1.5 0 0 1 I I #
point $-1 1.5920615663615933 34.234870835893744 14.03849578848029 #
loop $-1 $-1 $392 $384 #
plane-surface $-1 0 36.245958714656872 0 0 -1 0 0 0 -1 forward_v I I I I #
coedge $-1 $534 $387 $389 $538 reversed $259 $-1 #
coedge $-1 $387 $533 $632 $633 reversed $259 $-1 #
coedge $-1 $395 $390 $387 $536 forward $385 $-1 #
edge $-1 $539 -19.571833337820799 $634 -15.549657580294614 $535 $635 forward 7 unknown #
coedge $-1 $389 $388 $542 $636 reversed $163 $-1 #
edge $-1 $637 -72.491917429313688 $539 -65.808508614759035 $533 $638 forward 7 unknown #
vertex $-1 $391 $639 #
straight-curve $-1 27.573020853864243 32.223782957130688 16.707299619695519 1 0 0 I I #
coedge $-1 $632 $392 $395 $546 reversed $531 $-1 #
coedge $-1 $392 $632 $537 $636 forward $531 $-1 #
vertex $-1 $393 $640 #
straight-curve $-1 45.349594403502927 36.245958714656872 76.443854102515346 0 0 1 I I #
straight-curve $-1 45.349594403502927 -7.3807654602587576 69.264312003900443 0 0.60181501223851219 -0.79863551827123203 I I #
edge $-1 $634 -64.942489011954052 $396 -45.349594403502927 $541 $641 forward 7 unknown #
point $-1 45.349594403502927 36.245958714656872 16.707299619695515 #
point $-1 45.349594403502927 32.223782957130688 16.707299619695526 #
edge $-1 $642 1 $642 0 $399 $-1 forward 7 unknown #
vertex $-1 $400 $643 #
ellipse-curve $-1 50.947564291631835 30.456274594763723 11.191119368229771 0 0.79863551827123203 0.60181501223851219 1.5 0 0 1 I I #
point $-1 52.447564291631835 34.234870835893744 14.03849578848029 #
edge $-1 $644 1 $644 0 $403 $-1 forward 7 unknown #
vertex $-1 $404 $645 #
ellipse-curve $-1 59.344519123825179 30.456274594763723 11.191119368229771 0 0.79863551827123203 0.60181501223851219 1.5 0 0 1 I I #
point $-1 60.844519123825179 34.234870835893744 14.03849578848029 #
plane-surface $-1 69.475997192297129 0 0 -1 0 0 0 0 1 forward_v I I I I #
coedge $-1 $410 $567 $413 $561 reversed $281 $-1 #
vertex $-1 $561 $646 #
straight-curve $-1 -69.475997192297129 -36.245958714656872 0 0 0 -1 I I #
edge $-1 $559 -36.245958714656872 $563 36.245958714656872 $558 $647 forward 7 unknown #
straight-curve $-1 0 -36.245958714656872 -16.707299619695515 -1 0 0 I I #
vertex $-1 $416 $648 #
straight-curve $-1 0 36.245958714656872 -16.707299619695515 1 0 0 I I #
point $-1 69.475997192297129 36.245958714656872 -16.707299619695515 #
point $-1 69.475997192297129 -36.245958714656872 -16.707299619695515 #
coedge $-1 $558 $420 $423 $569 forward $281 $-1 #
straight-curve $-1 -69.475997192297129 0 16.707299619695515 0 -1 0 I I #
edge $-1 $424 -16.707299619695515 $563 16.707299619695515 $423 $649 forward 7 unknown #
point $-1 -69.475997192297129 36.245958714656872 16.707299619695515 #
point $-1 -69.475997192297129 -36.245958714656872 16.707299619695515 #
straight-curve $-1 69.475997192297129 -36.245958714656872 0 0 0 -1 I I #
straight-curve $-1 69.475997192297129 36.245958714656872 0 0 0 -1 I I #
plane-surface $-1 0 -36.245958714656872 0 0 1 0 0 0 1 forward_v I I I I #
coedge $-1 $650 $588 $437 $577 forward $434 $-1 #
coedge $-1 $578 $436 $445 $586 forward $300 $-1 #
edge $-1 $581 -4.8044640072788134 $579 4.8044640072788134 $437 $651 forward 7 unknown #
coedge $-1 $438 $576 $650 $652 forward $300 $-1 #
vertex $-1 $439 $653 #
straight-curve $-1 -79.699536827130672 36.245958714656872 -7.3875831222388406 1 0 0 I I #
vertex $-1 $440 $654 #
straight-curve $-1 -79.699536827130672 36.245958714656872 2.2213448923187862 -1 0 0 I I #
point $-1 -69.475997192297129 36.245958714656872 -7.3875831222388406 #
straight-curve $-1 -69.475997192297129 0 -7.3875831222388406 0 1 0 I I #
coedge $-1 $445 $444 $655 $656 forward $446 $-1 #
edge $-1 $447 -10.223539634833543 $657 10.223539634833543 $445 $658 forward 7 unknown #
point $-1 -69.475997192297129 -36.245958714656872 -7.3875831222388406 #
coedge $-1 $575 $655 $449 $589 reversed $434 $-1 #
edge $-1 $581 -36.245958714656872 $590 36.245958714656872 $588 $659 forward 7 unknown #
vertex $-1 $589 $660 #
straight-curve $-1 -79.699536827130672 -36.245958714656872 2.2213448923187862 1 0 0 I I #
edge $-1 $593 41.134188582079474 $596 48.601914035686704 $454 $661 forward 7 unknown #
vertex $-1 $468 $662 #
straight-curve $-1 -17.817610995597832 -62.781290072049416 16.707299619695519 0 -1 0 I I #
edge $-1 $596 -13.53958206983879 $465 4.9835242183207065 $464 $663 forward 7 unknown #
vertex $-1 $595 $664 #
straight-curve $-1 -17.817610995597832 -36.245958714656865 9.2395741660882891 0 0.76604443648966558 0.64278761758704617 I I #
point $-1 -17.817610995597832 -27.346270263216844 16.707299619695515 #
point $-1 0.70549529256166466 -36.245958714656872 9.2395741660882837 #
straight-curve $-1 0 -36.245958714656872 16.707299619695515 1 0 0 I I #
vertex $-1 $471 $665 #
point $-1 -10.025294913266549 -26.493170590373726 6.6536345828217422 #
vertex $-1 $475 $666 #
point $-1 -2.086820789769618 -26.493170590373726 6.6536345828217422 #
edge $-1 $606 41.134188582079474 $609 48.601914035686704 $480 $667 forward 7 unknown #
vertex $-1 $494 $668 #
straight-curve $-1 19.741583977105414 -62.781290072049416 16.707299619695519 0 -1 0 I I #
edge $-1 $609 5.2400154165128328 $491 23.763121704672329 $490 $669 forward 7 unknown #
vertex $-1 $608 $670 #
straight-curve $-1 19.741583977105414 -36.245958714656865 9.2395741660882891 0 0.76604443648966558 0.64278761758704617 I I #
point $-1 19.741583977105414 -27.346270263216844 16.707299619695515 #
point $-1 38.26469026526491 -36.245958714656872 9.2395741660882837 #
straight-curve $-1 0 -36.245958714656872 16.707299619695515 1 0 0 I I #
vertex $-1 $497 $671 #
point $-1 27.533900059436704 -26.493170590373726 6.6536345828217422 #
vertex $-1 $501 $672 #
point $-1 35.472374182933635 -26.493170590373726 6.6536345828217422 #
coedge $-1 $516 $515 $508 $619 forward $505 $-1 #
edge $-1 $620 59.736554482819827 $623 65.074162145250199 $618 $673 forward 7 unknown #
vertex $-1 $520 $674 #
straight-curve $-1 5.6900314544904731 51.795616294951486 16.707299619695519 0 1 0 I I #
edge $-1 $623 -7.7432393793580161 $517 11.849655229093102 $516 $675 forward 7 unknown #
vertex $-1 $622 $676 #
straight-curve $-1 5.6900314544904731 -7.3807654602587576 69.264312003900443 0 -0.60181501223851219 0.79863551827123203 I I #
point $-1 5.6900314544904731 32.223782957130688 16.707299619695526 #
point $-1 -13.902863153960645 36.245958714656872 11.369691957265147 #
straight-curve $-1 0 36.245958714656872 16.707299619695515 -1 0 0 I I #
vertex $-1 $523 $677 #
point $-1 -6.804893265831744 30.456274594763723 11.191119368229771 #
vertex $-1 $527 $678 #
point $-1 1.5920615663615933 30.456274594763723 11.191119368229771 #
coedge $-1 $542 $541 $534 $633 forward $531 $-1 #
edge $-1 $634 59.736554482819827 $637 65.074162145250199 $632 $679 forward 7 unknown #
vertex $-1 $546 $680 #
straight-curve $-1 64.942489011954052 51.795616294951486 16.707299619695519 0 1 0 I I #
edge $-1 $637 -37.369468158089809 $543 -17.776573549638684 $542 $681 forward 7 unknown #
vertex $-1 $636 $682 #
straight-curve $-1 64.942489011954052 -7.3807654602587576 69.264312003900443 0 -0.60181501223851219 0.79863551827123203 I I #
point $-1 64.942489011954052 32.223782957130688 16.707299619695526 #
point $-1 45.349594403502927 36.245958714656872 11.369691957265147 #
straight-curve $-1 0 36.245958714656872 16.707299619695515 -1 0 0 I I #
vertex $-1 $549 $683 #
point $-1 52.447564291631835 30.456274594763723 11.191119368229771 #
vertex $-1 $553 $684 #
point $-1 60.844519123825179 30.456274594763723 11.191119368229771 #
point $-1 -69.475997192297129 -36.245958714656872 -16.707299619695515 #
straight-curve $-1 -69.475997192297129 0 -16.707299619695515 0 1 0 I I #
point $-1 -69.475997192297129 36.245958714656872 -16.707299619695515 #
straight-curve $-1 -69.475997192297129 36.245958714656872 0 0 0 -1 I I #
coedge $-1 $655 $575 $578 $652 reversed $434 $-1 #
straight-curve $-1 -89.923076461964214 36.245958714656872 -2.5831191149600272 0 0 -1 I I #
edge $-1 $657 -36.245958714656872 $579 36.245958714656872 $650 $685 forward 7 unknown #
point $-1 -89.923076461964214 36.245958714656872 -7.3875831222388406 #
point $-1 -89.923076461964214 36.245958714656872 2.2213448923187862 #
coedge $-1 $588 $650 $585 $656 reversed $434 $-1 #
edge $-1 $590 -4.8044640072788134 $657 4.8044640072788134 $655 $686 forward 7 unknown #
vertex $-1 $652 $687 #
straight-curve $-1 -79.699536827130672 -36.245958714656872 -7.3875831222388406 -1 0 0 I I #
straight-curve $-1 -89.923076461964214 0 2.2213448923187862 0 -1 0 I I #
point $-1 -89.923076461964214 -36.245958714656872 2.2213448923187862 #
straight-curve $-1 -17.817610995597832 -36.245958714656872 57.841488201774986 0 0 -1 I I #
point $-1 -17.817610995597832 -36.245958714656872 16.707299619695515 #
straight-curve $-1 -4.2780289257590418 -36.245958714656872 9.2395741660882784 1 0 0 I I #
point $-1 -17.817610995597832 -36.245958714656872 9.2395741660882837 #
point $-1 -12.525294913266549 -24.886201546406109 4.7385234915975785 #
point $-1 -4.586820789769618 -24.886201546406109 4.7385234915975785 #
straight-curve $-1 19.741583977105414 -36.245958714656872 57.841488201774986 0 0 -1 I I #
point $-1 19.741583977105414 -36.245958714656872 16.707299619695515 #
straight-curve $-1 14.501568560592581 -36.245958714656872 9.2395741660882784 1 0 0 I I #
point $-1 19.741583977105414 -36.245958714656872 9.2395741660882837 #
point $-1 25.033900059436704 -24.886201546406109 4.7385234915975785 #
point $-1 32.972374182933635 -24.886201546406109 4.7385234915975785 #
straight-curve $-1 5.6900314544904731 36.245958714656872 76.443854102515346 0 0 -1 I I #
point $-1 5.6900314544904731 36.245958714656872 16.707299619695515 #
straight-curve $-1 -2.053207924867543 36.245958714656872 11.36969195726515 -1 0 0 I I #
point $-1 5.6900314544904731 36.245958714656872 11.369691957265147 #
point $-1 -8.304893265831744 29.258321317356877 10.288396849872001 #
point $-1 0.09206156636159335 29.258321317356877 10.288396849872001 #
straight-curve $-1 64.942489011954052 36.245958714656872 76.443854102515346 0 0 -1 I I #
point $-1 64.942489011954052 36.245958714656872 16.707299619695515 #
straight-curve $-1 27.573020853864243 36.245958714656872 11.36969195726515 -1 0 0 I I #
point $-1 64.942489011954052 36.245958714656872 11.369691957265147 #
point $-1 50.947564291631835 29.258321317356877 10.288396849872001 #
point $-1 59.344519123825179 29.258321317356877 10.288396849872001 #
straight-curve $-1 -89.923076461964214 0 -7.3875831222388406 0 1 0 I I #
straight-curve $-1 -89.923076461964214 -36.245958714656872 -2.5831191149600272 0 0 -1 I I #
point $-1 -89.923076461964214 -36.245958714656872 -7.3875831222388406 #
End-of-ACIS-data 