500 0 5 0           
7 Unknown 11 ACIS 5.0 NT 24 Thu Mar 25 22:11:56 1999 
-1 9.9999999999999995e-007 1e-010 
body $-1 $5 $-1 $6 #
body $-1 $7 $-1 $8 #
body $-1 $9 $-1 $10 #
body $-1 $11 $-1 $12 #
body $-1 $13 $-1 $14 #
lump $-1 $-1 $15 $0 #
transform $-1 1 0 0 0 1 0 0 0 1 63.963133640552996 39.807568562222386 10.381894548240115 1 rotate no_reflect no_shear #
lump $-1 $-1 $16 $1 #
transform $-1 1 0 0 0 1 0 0 0 1 63.963133640552996 39.807568562222386 10.381894548240115 1 rotate no_reflect no_shear #
lump $-1 $-1 $17 $2 #
transform $-1 1 0 0 0 1 0 0 0 1 63.963133640552996 39.807568562222386 10.381894548240115 1 rotate no_reflect no_shear #
lump $-1 $-1 $18 $3 #
transform $-1 1 0 0 0 1 0 0 0 1 63.963133640552996 39.807568562222386 10.381894548240115 1 rotate no_reflect no_shear #
lump $-1 $-1 $19 $4 #
transform $-1 1 0 0 0 1 0 0 0 1 63.963133640552996 39.807568562222386 10.381894548240115 1 rotate no_reflect no_shear #
shell $-1 $-1 $-1 $20 $-1 $5 #
shell $-1 $-1 $-1 $21 $-1 $7 #
shell $-1 $-1 $-1 $22 $-1 $9 #
shell $-1 $-1 $-1 $23 $-1 $11 #
shell $-1 $-1 $-1 $24 $-1 $13 #
face $-1 $25 $26 $15 $-1 $27 forward single #
face $-1 $28 $29 $16 $-1 $30 forward single #
face $-1 $31 $32 $17 $-1 $33 reversed single #
face $-1 $34 $35 $18 $-1 $36 forward single #
face $-1 $37 $38 $19 $-1 $39 forward single #
face $-1 $40 $41 $15 $-1 $42 reversed single #
loop $-1 $-1 $43 $20 #
plane-surface $-1 0 0 10.381894548240115 0 0 1 1 0 0 forward_v I I I I #
face $-1 $44 $45 $16 $-1 $46 reversed single #
loop $-1 $-1 $47 $21 #
plane-surface $-1 -59.788269898144343 0 -6.0104537974216434 0 0 1 1 0 0 forward_v I I I I #
face $-1 $48 $49 $17 $-1 $50 reversed single #
loop $-1 $-1 $51 $22 #
plane-surface $-1 95.378707025904248 18.033075588974093 178.81717682013223 0 -1 0 -0.81915205242281985 0 -0.57357642473473569 forward_v I I I I #
face $-1 $52 $53 $18 $-1 $54 forward single #
loop $-1 $55 $56 $23 #
cone-surface $-1 59.758669427707638 8.9869974521346876 4.9578362419257811 -0.81915205242281985 0 -0.57357642473473569 0.86036463710210354 0 -1.2287280786342298 1 I I 0 1 1.5 forward I I I I #
face $-1 $57 $58 $19 $-1 $59 forward single #
loop $-1 $60 $61 $24 #
cone-surface $-1 59.758669427707638 14.414644334238332 4.9578362419257811 -0.81915205242281985 0 -0.57357642473473569 0.86036463710210354 0 -1.2287280786342298 1 I I 0 1 1.5 forward I I I I #
face $-1 $62 $63 $15 $-1 $64 reversed single #
loop $-1 $-1 $65 $25 #
plane-surface $-1 0 0 -10.381894548240115 0 0 1 1 0 0 forward_v I I I I #
coedge $-1 $66 $67 $68 $69 forward $26 $-1 #
face $-1 $70 $71 $16 $-1 $72 reversed single #
loop $-1 $-1 $73 $28 #
plane-surface $-1 -55.613406155735689 0 -8.1961741728308795 -1 0 0 0 0 1 forward_v I I I I #
coedge $-1 $74 $75 $76 $77 forward $29 $-1 #
face $-1 $78 $79 $17 $-1 $80 reversed single #
loop $-1 $-1 $81 $31 #
plane-surface $-1 -9.412357376203957 11.70082089318651 105.44168580337526 0.81915205242281985 0 0.57357642473473569 0.57357642473473569 0 -0.81915205242281985 forward_v I I I I #
coedge $-1 $82 $83 $84 $85 reversed $32 $-1 #
face $-1 $-1 $86 $18 $-1 $87 forward single #
loop $-1 $88 $89 $34 #
cone-surface $-1 58.346796479660597 8.9869974521346876 3.969232190546915 -0.81915205242281985 0 -0.57357642473473569 0.43018231855105177 0 -0.61436403931711492 1 I I -0.70710678118654757 0.70710678118654757 0.75 forward I I I I #
loop $-1 $-1 $90 $23 #
coedge $-1 $56 $56 $91 $92 reversed $35 $-1 #
face $-1 $-1 $93 $19 $-1 $94 forward single #
loop $-1 $95 $96 $37 #
cone-surface $-1 58.346796479660597 14.414644334238332 3.969232190546915 -0.81915205242281985 0 -0.57357642473473569 0.43018231855105177 0 -0.61436403931711492 1 I I -0.70710678118654757 0.70710678118654757 0.75 forward I I I I #
loop $-1 $-1 $97 $24 #
coedge $-1 $61 $61 $98 $99 reversed $38 $-1 #
face $-1 $100 $101 $15 $-1 $102 reversed single #
loop $-1 $-1 $103 $40 #
plane-surface $-1 0 -39.807568562222386 0 0 1 0 0 0 1 forward_v I I I I #
coedge $-1 $104 $105 $106 $107 forward $41 $-1 #
coedge $-1 $108 $43 $109 $110 forward $26 $-1 #
coedge $-1 $43 $108 $111 $112 forward $26 $-1 #
coedge $-1 $113 $114 $43 $69 reversed $115 $-1 #
edge $-1 $116 -39.807568562222386 $117 39.807568562222386 $68 $118 forward 7 unknown #
face $-1 $119 $120 $16 $-1 $121 reversed single #
loop $-1 $-1 $122 $44 #
plane-surface $-1 0 0 -10.381894548240115 0 0 1 1 0 0 forward_v I I I I #
coedge $-1 $123 $76 $124 $125 reversed $45 $-1 #
coedge $-1 $126 $47 $127 $128 reversed $29 $-1 #
coedge $-1 $47 $126 $129 $130 reversed $29 $-1 #
coedge $-1 $73 $131 $47 $77 reversed $45 $-1 #
edge $-1 $132 -39.807568562222386 $133 39.807568562222386 $76 $134 forward 7 unknown #
face $-1 $135 $136 $17 $-1 $137 forward single #
loop $-1 $-1 $138 $48 #
plane-surface $-1 95.378707025904248 5.3685661973989269 178.81717682013223 0 1 0 0.81915205242281985 0 0.57357642473473569 forward_v I I I I #
coedge $-1 $139 $140 $141 $142 reversed $49 $-1 #
coedge $-1 $83 $51 $143 $144 reversed $32 $-1 #
coedge $-1 $51 $82 $139 $145 reversed $32 $-1 #
coedge $-1 $141 $146 $51 $85 forward $136 $-1 #
edge $-1 $147 -16.273780127600872 $148 -9.4598695193700308 $84 $149 forward 7 unknown #
loop $-1 $-1 $91 $52 #
plane-surface $-1 -9.412357376203957 11.70082089318651 105.44168580337526 0.81915205242281985 0 0.57357642473473569 0.57357642473473569 0 -0.81915205242281985 forward_v I I I I #
loop $-1 $-1 $150 $34 #
coedge $-1 $89 $89 $90 $151 reversed $53 $-1 #
coedge $-1 $90 $90 $89 $151 forward $55 $-1 #
coedge $-1 $91 $91 $56 $92 forward $86 $-1 #
edge $-1 $152 0 $152 6.2831853071796004 $91 $153 forward 7 unknown #
loop $-1 $-1 $98 $57 #
plane-surface $-1 -9.412357376203957 11.70082089318651 105.44168580337526 0.81915205242281985 0 0.57357642473473569 0.57357642473473569 0 -0.81915205242281985 forward_v I I I I #
loop $-1 $-1 $154 $37 #
coedge $-1 $96 $96 $97 $155 reversed $58 $-1 #
coedge $-1 $97 $97 $96 $155 forward $60 $-1 #
coedge $-1 $98 $98 $61 $99 forward $93 $-1 #
edge $-1 $156 0 $156 6.2831853071796004 $98 $157 forward 7 unknown #
face $-1 $158 $159 $15 $-1 $160 reversed single #
loop $-1 $-1 $161 $62 #
plane-surface $-1 -63.963133640552996 0 0 1 0 0 0 0 -1 forward_v I I I I #
coedge $-1 $162 $111 $163 $164 forward $63 $-1 #
coedge $-1 $165 $65 $162 $166 forward $41 $-1 #
coedge $-1 $65 $165 $167 $168 forward $41 $-1 #
coedge $-1 $114 $113 $65 $107 reversed $115 $-1 #
edge $-1 $169 -39.807568562222386 $170 39.807568562222386 $106 $171 forward 7 unknown #
coedge $-1 $67 $66 $172 $173 forward $26 $-1 #
coedge $-1 $174 $175 $66 $110 reversed $159 $-1 #
edge $-1 $117 -63.963133640552996 $176 63.963133640552996 $109 $177 forward 7 unknown #
coedge $-1 $103 $178 $67 $112 reversed $63 $-1 #
edge $-1 $179 -63.963133640552996 $116 63.963133640552996 $111 $180 forward 7 unknown #
coedge $-1 $106 $68 $178 $181 forward $115 $-1 #
coedge $-1 $68 $106 $174 $182 reversed $115 $-1 #
loop $-1 $-1 $113 $158 #
vertex $-1 $69 $183 #
vertex $-1 $69 $184 #
straight-curve $-1 63.963133640552996 0 10.381894548240115 0 1 0 I I #
face $-1 $185 $186 $16 $-1 $187 reversed single #
loop $-1 $-1 $124 $70 #
plane-surface $-1 0 -39.807568562222386 0 0 1 0 0 0 1 forward_v I I I I #
coedge $-1 $188 $189 $123 $190 forward $71 $-1 #
coedge $-1 $131 $73 $122 $190 reversed $45 $-1 #
coedge $-1 $129 $191 $73 $125 forward $120 $-1 #
edge $-1 $192 -6.2838074618246758 $132 -1.9123667110062037 $124 $193 forward 7 unknown #
coedge $-1 $75 $74 $194 $195 reversed $29 $-1 #
coedge $-1 $196 $197 $74 $128 forward $198 $-1 #
edge $-1 $199 -34.068998691480829 $133 -25.719271206663517 $127 $200 forward 7 unknown #
coedge $-1 $201 $124 $75 $130 forward $120 $-1 #
edge $-1 $132 25.719271206663517 $202 34.068998691480829 $129 $203 forward 7 unknown #
coedge $-1 $76 $123 $196 $204 reversed $45 $-1 #
vertex $-1 $130 $205 #
vertex $-1 $128 $206 #
straight-curve $-1 -55.613406155735689 0 -6.0104537974216434 0 1 0 I I #
face $-1 $-1 $207 $17 $-1 $208 reversed single #
loop $-1 $-1 $84 $78 #
plane-surface $-1 0 0 10.381894548240115 0 0 1 1 0 0 forward_v I I I I #
coedge $-1 $209 $210 $211 $212 reversed $79 $-1 #
coedge $-1 $213 $81 $83 $145 forward $49 $-1 #
coedge $-1 $81 $213 $209 $214 forward $49 $-1 #
coedge $-1 $211 $84 $81 $142 forward $136 $-1 #
edge $-1 $148 -12.182665142380838 $215 0.481844249194328 $141 $216 forward 7 unknown #
coedge $-1 $217 $218 $82 $144 forward $207 $-1 #
edge $-1 $219 -88.757967008799028 $147 -79.026693861826004 $143 $220 forward 7 unknown #
edge $-1 $148 116.04657642494482 $219 127.92626728110598 $83 $221 forward 7 unknown #
coedge $-1 $84 $211 $217 $222 forward $136 $-1 #
vertex $-1 $144 $223 #
vertex $-1 $85 $224 #
straight-curve $-1 47.689353512952124 18.033075588974093 10.381894548240112 -1 0 0 I I #
coedge $-1 $150 $150 $-1 $225 reversed $88 $-1 #
edge $-1 $226 0 $226 6.2831853071796004 $89 $227 forward 7 unknown #
vertex $-1 $92 $228 #
ellipse-curve $-1 60.556178336437576 8.9869974521346876 5.5162579747536036 0.81915205242281985 0 0.57357642473473569 0.86036463710210354 0 -1.2287280786342298 1 I I #
coedge $-1 $154 $154 $-1 $229 reversed $95 $-1 #
edge $-1 $230 0 $230 6.2831853071796004 $96 $231 forward 7 unknown #
vertex $-1 $99 $232 #
ellipse-curve $-1 60.556178336437576 14.414644334238332 5.5162579747536036 0.81915205242281985 0 0.57357642473473569 0.86036463710210354 0 -1.2287280786342298 1 I I #
face $-1 $-1 $115 $15 $-1 $233 reversed single #
loop $-1 $-1 $174 $100 #
plane-surface $-1 0 39.807568562222386 0 0 -1 0 0 0 -1 forward_v I I I I #
coedge $-1 $234 $172 $175 $235 forward $101 $-1 #
coedge $-1 $178 $103 $104 $166 reversed $63 $-1 #
coedge $-1 $172 $234 $103 $164 reversed $101 $-1 #
edge $-1 $179 -10.381894548240115 $236 10.381894548240115 $163 $237 forward 7 unknown #
coedge $-1 $105 $104 $234 $238 forward $41 $-1 #
edge $-1 $170 -63.963133640552996 $236 63.963133640552996 $162 $239 forward 7 unknown #
coedge $-1 $175 $174 $105 $168 reversed $159 $-1 #
edge $-1 $240 -63.963133640552996 $169 63.963133640552996 $167 $241 forward 7 unknown #
vertex $-1 $107 $242 #
vertex $-1 $181 $243 #
straight-curve $-1 63.963133640552996 0 -10.381894548240115 0 -1 0 I I #
coedge $-1 $161 $163 $108 $173 reversed $101 $-1 #
edge $-1 $176 -39.807568562222386 $179 39.807568562222386 $172 $244 forward 7 unknown #
coedge $-1 $167 $109 $114 $182 forward $159 $-1 #
coedge $-1 $109 $167 $161 $235 reversed $159 $-1 #
vertex $-1 $110 $245 #
straight-curve $-1 0 39.807568562222386 10.381894548240115 -1 0 0 I I #
coedge $-1 $111 $162 $113 $181 reversed $63 $-1 #
vertex $-1 $173 $246 #
straight-curve $-1 0 -39.807568562222386 10.381894548240115 1 0 0 I I #
edge $-1 $116 -10.381894548240115 $170 10.381894548240115 $113 $247 forward 7 unknown #
edge $-1 $117 -10.381894548240115 $169 10.381894548240115 $114 $248 forward 7 unknown #
point $-1 63.963133640552996 -39.807568562222386 10.381894548240115 #
point $-1 63.963133640552996 39.807568562222386 10.381894548240115 #
face $-1 $-1 $198 $16 $-1 $249 reversed single #
loop $-1 $-1 $194 $119 #
plane-surface $-1 -63.963133640552996 0 0 1 0 0 0 0 -1 forward_v I I I I #
coedge $-1 $250 $122 $191 $251 forward $71 $-1 #
coedge $-1 $122 $250 $252 $253 forward $71 $-1 #
edge $-1 $254 -39.807568562222386 $192 39.807568562222386 $122 $255 forward 7 unknown #
coedge $-1 $124 $201 $188 $251 reversed $120 $-1 #
vertex $-1 $251 $256 #
straight-curve $-1 -55.613406155735689 -39.807568562222386 -4.0980870864154397 0 0 1 I I #
coedge $-1 $257 $258 $126 $195 forward $186 $-1 #
edge $-1 $202 -39.807568562222386 $199 39.807568562222386 $194 $259 forward 7 unknown #
coedge $-1 $252 $127 $131 $204 forward $198 $-1 #
coedge $-1 $127 $252 $257 $260 reversed $198 $-1 #
loop $-1 $-1 $196 $185 #
vertex $-1 $260 $261 #
straight-curve $-1 -29.894134949072171 39.807568562222386 -6.0104537974216434 1 0 0 I I #
coedge $-1 $191 $129 $258 $262 forward $120 $-1 #
vertex $-1 $262 $263 #
straight-curve $-1 -29.894134949072171 -39.807568562222386 -6.0104537974216434 -1 0 0 I I #
edge $-1 $133 1.9123667110062037 $254 6.2838074618246758 $196 $264 forward 7 unknown #
point $-1 -55.613406155735689 -39.807568562222386 -6.0104537974216434 #
point $-1 -55.613406155735689 39.807568562222386 -6.0104537974216434 #
loop $-1 $-1 $143 $135 #
plane-surface $-1 63.963133640552996 0 0 -1 0 0 0 0 1 forward_v I I I I #
coedge $-1 $210 $138 $140 $214 reversed $79 $-1 #
coedge $-1 $138 $209 $265 $266 reversed $79 $-1 #
coedge $-1 $146 $141 $138 $212 forward $136 $-1 #
edge $-1 $215 9.4598695193700308 $267 16.273780127600872 $211 $268 forward 7 unknown #
coedge $-1 $140 $139 $218 $269 reversed $49 $-1 #
edge $-1 $270 -127.92626728110598 $215 -116.04657642494482 $209 $271 forward 7 unknown #
vertex $-1 $142 $272 #
straight-curve $-1 57.149223032322155 5.8504104465932549 10.381894548240105 0 -1 0 I I #
coedge $-1 $265 $143 $146 $222 reversed $207 $-1 #
coedge $-1 $143 $265 $213 $269 forward $207 $-1 #
vertex $-1 $144 $273 #
straight-curve $-1 63.963133640552996 18.033075588974093 89.408588410066116 0 0 1 I I #
straight-curve $-1 -9.412357376203957 18.033075588974093 105.44168580337526 0.57357642473473569 0 -0.81915205242281985 I I #
edge $-1 $267 5.3685661973989269 $147 18.033075588974093 $217 $274 forward 7 unknown #
point $-1 63.963133640552996 18.033075588974093 10.381894548240115 #
point $-1 57.149223032322155 18.033075588974093 10.381894548240112 #
edge $-1 $275 1 $275 0 $150 $-1 forward 7 unknown #
vertex $-1 $151 $276 #
ellipse-curve $-1 58.961160518977714 8.9869974521346876 4.3994145090979666 0.81915205242281985 0 0.57357642473473569 0.86036463710210354 0 -1.2287280786342298 1 I I #
point $-1 61.41654297353967 8.9869974521346876 4.2875298961193655 #
edge $-1 $277 1 $277 0 $154 $-1 forward 7 unknown #
vertex $-1 $155 $278 #
ellipse-curve $-1 58.961160518977714 14.414644334238332 4.3994145090979666 0.81915205242281985 0 0.57357642473473569 0.86036463710210354 0 -1.2287280786342298 1 I I #
point $-1 61.41654297353967 14.414644334238332 4.2875298961193655 #
plane-surface $-1 63.963133640552996 0 0 -1 0 0 0 0 1 forward_v I I I I #
coedge $-1 $163 $161 $165 $238 reversed $101 $-1 #
edge $-1 $176 -10.381894548240115 $240 10.381894548240115 $175 $279 forward 7 unknown #
vertex $-1 $238 $280 #
straight-curve $-1 -63.963133640552996 -39.807568562222386 0 0 0 -1 I I #
edge $-1 $236 -39.807568562222386 $240 39.807568562222386 $234 $281 forward 7 unknown #
straight-curve $-1 0 -39.807568562222386 -10.381894548240115 -1 0 0 I I #
vertex $-1 $168 $282 #
straight-curve $-1 0 39.807568562222386 -10.381894548240115 1 0 0 I I #
point $-1 63.963133640552996 39.807568562222386 -10.381894548240115 #
point $-1 63.963133640552996 -39.807568562222386 -10.381894548240115 #
straight-curve $-1 -63.963133640552996 0 10.381894548240115 0 -1 0 I I #
point $-1 -63.963133640552996 39.807568562222386 10.381894548240115 #
point $-1 -63.963133640552996 -39.807568562222386 10.381894548240115 #
straight-curve $-1 63.963133640552996 -39.807568562222386 0 0 0 -1 I I #
straight-curve $-1 63.963133640552996 39.807568562222386 0 0 0 -1 I I #
plane-surface $-1 0 39.807568562222386 0 0 -1 0 0 0 -1 forward_v I I I I #
coedge $-1 $189 $188 $283 $284 forward $71 $-1 #
edge $-1 $192 55.613406155735689 $285 63.963133640552996 $191 $286 forward 7 unknown #
coedge $-1 $197 $196 $189 $253 reversed $198 $-1 #
edge $-1 $287 -63.963133640552996 $254 -55.613406155735689 $252 $288 forward 7 unknown #
vertex $-1 $204 $289 #
straight-curve $-1 -55.613406155735689 0 -10.381894548240115 0 -1 0 I I #
point $-1 -55.613406155735689 -39.807568562222386 -10.381894548240115 #
coedge $-1 $283 $194 $197 $260 forward $186 $-1 #
coedge $-1 $194 $283 $201 $262 reversed $186 $-1 #
straight-curve $-1 -63.963133640552996 0 -6.0104537974216434 0 1 0 I I #
edge $-1 $199 6.0104537974216434 $287 10.381894548240115 $197 $290 forward 7 unknown #
point $-1 -63.963133640552996 39.807568562222386 -6.0104537974216434 #
edge $-1 $202 6.0104537974216434 $285 10.381894548240115 $258 $291 forward 7 unknown #
point $-1 -63.963133640552996 -39.807568562222386 -6.0104537974216434 #
straight-curve $-1 -55.613406155735689 39.807568562222386 -4.0980870864154397 0 0 -1 I I #
coedge $-1 $218 $217 $210 $266 forward $207 $-1 #
edge $-1 $267 79.026693861826004 $270 88.757967008799028 $265 $292 forward 7 unknown #
vertex $-1 $222 $293 #
straight-curve $-1 47.689353512952124 5.3685661973989269 10.381894548240112 1 0 0 I I #
edge $-1 $270 -0.481844249194328 $219 12.182665142380838 $218 $294 forward 7 unknown #
vertex $-1 $269 $295 #
straight-curve $-1 -9.412357376203957 5.3685661973989269 105.44168580337526 -0.57357642473473569 0 0.81915205242281985 I I #
point $-1 57.149223032322155 5.3685661973989269 10.381894548240112 #
point $-1 63.963133640552996 18.033075588974093 0.65062140126708812 #
straight-curve $-1 63.963133640552996 0 10.381894548240115 0 1 0 I I #
vertex $-1 $225 $296 #
point $-1 59.821525156079815 8.9869974521346876 3.170686430463737 #
vertex $-1 $229 $297 #
point $-1 59.821525156079815 14.414644334238332 3.170686430463737 #
straight-curve $-1 -63.963133640552996 39.807568562222386 0 0 0 -1 I I #
point $-1 -63.963133640552996 -39.807568562222386 -10.381894548240115 #
straight-curve $-1 -63.963133640552996 0 -10.381894548240115 0 1 0 I I #
point $-1 -63.963133640552996 39.807568562222386 -10.381894548240115 #
coedge $-1 $258 $257 $250 $284 reversed $186 $-1 #
edge $-1 $285 -39.807568562222386 $287 39.807568562222386 $283 $298 forward 7 unknown #
vertex $-1 $284 $299 #
straight-curve $-1 0 -39.807568562222386 -10.381894548240115 -1 0 0 I I #
vertex $-1 $253 $300 #
straight-curve $-1 0 39.807568562222386 -10.381894548240115 1 0 0 I I #
point $-1 -55.613406155735689 39.807568562222386 -10.381894548240115 #
straight-curve $-1 -63.963133640552996 39.807568562222386 0 0 0 -1 I I #
straight-curve $-1 -63.963133640552996 -39.807568562222386 0 0 0 -1 I I #
straight-curve $-1 63.963133640552996 5.3685661973989269 89.408588410066116 0 0 -1 I I #
point $-1 63.963133640552996 5.3685661973989269 10.381894548240115 #
straight-curve $-1 63.963133640553004 5.8504104465932549 0.65062140126708101 0 1 0 I I #
point $-1 63.963133640552996 5.3685661973989269 0.65062140126708812 #
point $-1 57.73243244034348 8.9869974521346876 3.5390498719958634 #
point $-1 57.73243244034348 14.414644334238332 3.5390498719958634 #
straight-curve $-1 -63.963133640552996 0 -10.381894548240115 0 1 0 I I #
point $-1 -63.963133640552996 -39.807568562222386 -10.381894548240115 #
point $-1 -63.963133640552996 39.807568562222386 -10.381894548240115 #
End-of-ACIS-data 