500 0 3 0           
7 Unknown 11 ACIS 5.0 NT 24 Thu Mar 25 21:58:49 1999 
-1 9.9999999999999995e-007 1e-010 
body $-1 $3 $-1 $4 #
body $-1 $5 $-1 $6 #
body $-1 $7 $-1 $8 #
lump $-1 $-1 $9 $0 #
transform $-1 1 0 0 0 1 0 0 0 1 65.037385174108095 35.997131794721042 14.914086178740011 1 rotate no_reflect no_shear #
lump $-1 $-1 $10 $1 #
transform $-1 1 0 0 0 1 0 0 0 1 65.037385174108095 35.997131794721042 14.914086178740011 1 rotate no_reflect no_shear #
lump $-1 $-1 $11 $2 #
transform $-1 1 0 0 0 1 0 0 0 1 65.037385174108095 35.997131794721042 14.914086178740011 1 rotate no_reflect no_shear #
shell $-1 $-1 $-1 $12 $-1 $3 #
shell $-1 $-1 $-1 $13 $-1 $5 #
shell $-1 $-1 $-1 $14 $-1 $7 #
face $-1 $15 $16 $9 $-1 $17 forward single #
face $-1 $18 $19 $10 $-1 $20 reversed single #
face $-1 $21 $22 $11 $-1 $23 reversed single #
face $-1 $24 $25 $9 $-1 $26 reversed single #
loop $-1 $-1 $27 $12 #
plane-surface $-1 0 0 14.914086178740011 0 0 1 1 0 0 forward_v I I I I #
face $-1 $28 $29 $10 $-1 $30 reversed single #
loop $-1 $-1 $31 $13 #
plane-surface $-1 -48.016571579269282 -50.968303598893272 0 0 1 0 0 0 1 forward_v I I I I #
face $-1 $32 $33 $11 $-1 $34 forward single #
loop $-1 $-1 $35 $14 #
plane-surface $-1 0 30.748194560651953 12.742584394701463 0 0 1 1 0 0 forward_v I I I I #
face $-1 $36 $37 $9 $-1 $38 reversed single #
loop $-1 $-1 $39 $15 #
plane-surface $-1 0 0 -14.914086178740011 0 0 1 1 0 0 forward_v I I I I #
coedge $-1 $40 $41 $42 $43 forward $16 $-1 #
face $-1 $44 $45 $10 $-1 $46 reversed single #
loop $-1 $-1 $47 $18 #
plane-surface $-1 -49.864002970330041 -43.482717696807157 0 1 0 0 0 0 -1 forward_v I I I I #
coedge $-1 $48 $49 $50 $51 forward $19 $-1 #
face $-1 $52 $53 $11 $-1 $54 forward single #
loop $-1 $-1 $55 $21 #
plane-surface $-1 0 30.748194560651953 9.3950964278396434 0 0 1 1 0 0 forward_v I I I I #
coedge $-1 $56 $57 $58 $59 reversed $22 $-1 #
face $-1 $60 $61 $9 $-1 $62 reversed single #
loop $-1 $-1 $63 $24 #
plane-surface $-1 0 -35.997131794721042 0 0 1 0 0 0 1 forward_v I I I I #
coedge $-1 $64 $65 $66 $67 forward $25 $-1 #
coedge $-1 $68 $27 $69 $70 forward $16 $-1 #
coedge $-1 $27 $68 $71 $72 forward $16 $-1 #
coedge $-1 $73 $74 $27 $43 reversed $75 $-1 #
edge $-1 $76 -35.997131794721042 $77 35.997131794721042 $42 $78 forward 7 unknown #
face $-1 $79 $80 $10 $-1 $81 reversed single #
loop $-1 $-1 $82 $28 #
plane-surface $-1 -46.169140188208523 -43.482717696807157 0 -1 0 0 0 0 1 forward_v I I I I #
coedge $-1 $83 $84 $85 $86 reversed $29 $-1 #
coedge $-1 $87 $31 $88 $89 reversed $19 $-1 #
coedge $-1 $31 $87 $90 $91 reversed $19 $-1 #
coedge $-1 $84 $83 $31 $51 reversed $29 $-1 #
edge $-1 $92 -14.914086178740011 $93 14.914086178740011 $50 $94 forward 7 unknown #
face $-1 $95 $96 $11 $-1 $97 reversed single #
loop $-1 $-1 $98 $32 #
plane-surface $-1 0 25.49925732658286 11.068840411270553 0 1 0 0 0 1 forward_v I I I I #
coedge $-1 $99 $100 $101 $102 reversed $33 $-1 #
coedge $-1 $103 $35 $104 $105 reversed $22 $-1 #
coedge $-1 $35 $103 $106 $107 reversed $22 $-1 #
coedge $-1 $108 $109 $35 $59 forward $110 $-1 #
edge $-1 $111 10.125160046256884 $112 20.623034514395066 $58 $113 forward 7 unknown #
face $-1 $114 $115 $9 $-1 $116 reversed single #
loop $-1 $-1 $117 $36 #
plane-surface $-1 -65.037385174108095 0 0 1 0 0 0 0 -1 forward_v I I I I #
coedge $-1 $118 $71 $119 $120 forward $37 $-1 #
coedge $-1 $121 $39 $118 $122 forward $25 $-1 #
coedge $-1 $39 $121 $123 $124 forward $25 $-1 #
coedge $-1 $74 $73 $39 $67 reversed $75 $-1 #
edge $-1 $125 -35.997131794721042 $126 35.997131794721042 $66 $127 forward 7 unknown #
coedge $-1 $41 $40 $128 $129 forward $16 $-1 #
coedge $-1 $130 $131 $40 $70 reversed $115 $-1 #
edge $-1 $77 -65.037385174108095 $132 65.037385174108095 $69 $133 forward 7 unknown #
coedge $-1 $63 $134 $41 $72 reversed $37 $-1 #
edge $-1 $135 -65.037385174108095 $76 65.037385174108095 $71 $136 forward 7 unknown #
coedge $-1 $66 $42 $134 $137 forward $75 $-1 #
coedge $-1 $42 $66 $130 $138 reversed $75 $-1 #
loop $-1 $-1 $73 $114 #
vertex $-1 $43 $139 #
vertex $-1 $43 $140 #
straight-curve $-1 65.037385174108095 0 14.914086178740011 0 1 0 I I #
face $-1 $141 $142 $10 $-1 $81 reversed single #
loop $-1 $-1 $85 $44 #
plane-surface $-1 0 -35.997131794721042 0 0 1 0 0 0 1 forward_v I I I I #
coedge $-1 $143 $144 $87 $145 forward $45 $-1 #
coedge $-1 $50 $47 $146 $147 reversed $29 $-1 #
coedge $-1 $47 $50 $148 $149 reversed $29 $-1 #
coedge $-1 $150 $151 $47 $86 forward $80 $-1 #
edge $-1 $152 -14.914086178740011 $153 14.914086178740011 $85 $154 forward 7 unknown #
coedge $-1 $49 $48 $82 $145 reversed $19 $-1 #
coedge $-1 $146 $155 $48 $89 forward $156 $-1 #
edge $-1 $157 -1.8474313910607592 $93 1.8474313910607592 $48 $158 forward 7 unknown #
coedge $-1 $159 $148 $49 $91 forward $160 $-1 #
edge $-1 $92 -1.8474313910607592 $161 1.8474313910607592 $49 $162 forward 7 unknown #
vertex $-1 $149 $163 #
vertex $-1 $147 $164 #
straight-curve $-1 -49.864002970330041 -50.968303598893272 0 0 0 -1 I I #
face $-1 $165 $166 $11 $-1 $97 reversed single #
loop $-1 $-1 $167 $52 #
plane-surface $-1 0 35.997131794721042 0 0 -1 0 0 0 -1 forward_v I I I I #
coedge $-1 $104 $168 $169 $170 reversed $53 $-1 #
coedge $-1 $171 $55 $167 $172 reversed $33 $-1 #
coedge $-1 $55 $171 $168 $173 reversed $33 $-1 #
coedge $-1 $109 $174 $55 $102 forward $110 $-1 #
edge $-1 $175 -20.623034514395066 $176 -10.125160046256884 $101 $177 forward 7 unknown #
coedge $-1 $57 $56 $178 $179 reversed $22 $-1 #
coedge $-1 $180 $98 $56 $105 forward $53 $-1 #
edge $-1 $181 -65.037385174108095 $111 65.037385174108095 $104 $182 forward 7 unknown #
coedge $-1 $183 $184 $57 $107 forward $166 $-1 #
edge $-1 $112 -65.037385174108095 $185 65.037385174108095 $106 $186 forward 7 unknown #
coedge $-1 $187 $58 $184 $188 reversed $110 $-1 #
coedge $-1 $58 $101 $180 $189 forward $110 $-1 #
loop $-1 $-1 $58 $190 #
vertex $-1 $59 $191 #
vertex $-1 $107 $192 #
straight-curve $-1 65.037385174108095 15.374097280325977 12.742584394701463 0 1 0 I I #
face $-1 $-1 $75 $9 $-1 $193 reversed single #
loop $-1 $-1 $130 $60 #
plane-surface $-1 0 35.997131794721042 0 0 -1 0 0 0 -1 forward_v I I I I #
coedge $-1 $194 $128 $131 $195 forward $61 $-1 #
coedge $-1 $134 $63 $64 $122 reversed $37 $-1 #
coedge $-1 $128 $194 $63 $120 reversed $61 $-1 #
edge $-1 $135 -14.914086178740011 $196 14.914086178740011 $119 $197 forward 7 unknown #
coedge $-1 $65 $64 $194 $198 forward $25 $-1 #
edge $-1 $126 -65.037385174108095 $196 65.037385174108095 $118 $199 forward 7 unknown #
coedge $-1 $131 $130 $65 $124 reversed $115 $-1 #
edge $-1 $200 -65.037385174108095 $125 65.037385174108095 $123 $201 forward 7 unknown #
vertex $-1 $67 $202 #
vertex $-1 $137 $203 #
straight-curve $-1 65.037385174108095 0 -14.914086178740011 0 -1 0 I I #
coedge $-1 $117 $119 $68 $129 reversed $61 $-1 #
edge $-1 $132 -35.997131794721042 $135 35.997131794721042 $128 $204 forward 7 unknown #
coedge $-1 $123 $69 $74 $138 forward $115 $-1 #
coedge $-1 $69 $123 $117 $195 reversed $115 $-1 #
vertex $-1 $70 $205 #
straight-curve $-1 0 35.997131794721042 14.914086178740011 -1 0 0 I I #
coedge $-1 $71 $118 $73 $137 reversed $37 $-1 #
vertex $-1 $129 $206 #
straight-curve $-1 0 -35.997131794721042 14.914086178740011 1 0 0 I I #
edge $-1 $76 -14.914086178740011 $126 14.914086178740011 $73 $207 forward 7 unknown #
edge $-1 $77 -14.914086178740011 $125 14.914086178740011 $74 $208 forward 7 unknown #
point $-1 65.037385174108095 -35.997131794721042 14.914086178740011 #
point $-1 65.037385174108095 35.997131794721042 14.914086178740011 #
face $-1 $209 $160 $10 $-1 $210 forward single #
loop $-1 $-1 $211 $79 #
coedge $-1 $212 $82 $155 $213 reversed $45 $-1 #
coedge $-1 $82 $212 $159 $214 reversed $45 $-1 #
edge $-1 $161 -14.914086178740011 $157 14.914086178740011 $82 $215 forward 7 unknown #
coedge $-1 $216 $88 $83 $147 forward $156 $-1 #
edge $-1 $93 -7.4855859020861146 $152 7.4855859020861146 $83 $217 forward 7 unknown #
coedge $-1 $90 $218 $84 $149 forward $160 $-1 #
edge $-1 $153 -7.4855859020861146 $92 7.4855859020861146 $84 $219 forward 7 unknown #
coedge $-1 $220 $85 $218 $221 reversed $80 $-1 #
coedge $-1 $85 $220 $216 $222 reversed $80 $-1 #
vertex $-1 $222 $223 #
vertex $-1 $149 $224 #
straight-curve $-1 -49.864002970330041 -35.997131794721042 0 0 0 1 I I #
coedge $-1 $88 $225 $143 $213 forward $156 $-1 #
loop $-1 $-1 $226 $209 #
vertex $-1 $145 $227 #
straight-curve $-1 -48.016571579269282 -50.968303598893272 -14.914086178740011 -1 0 0 I I #
coedge $-1 $228 $90 $144 $214 forward $160 $-1 #
loop $-1 $-1 $229 $141 #
vertex $-1 $214 $230 #
straight-curve $-1 -48.016571579269282 -50.968303598893272 14.914086178740011 1 0 0 I I #
point $-1 -49.864002970330041 -50.968303598893272 14.914086178740011 #
point $-1 -49.864002970330041 -50.968303598893272 -14.914086178740011 #
face $-1 $231 $232 $11 $-1 $233 reversed single #
loop $-1 $-1 $106 $95 #
coedge $-1 $234 $235 $99 $172 forward $96 $-1 #
coedge $-1 $98 $180 $100 $173 forward $53 $-1 #
coedge $-1 $236 $178 $98 $170 forward $232 $-1 #
edge $-1 $181 -7.2081641890661867 $237 -3.8606762222043667 $169 $238 forward 7 unknown #
coedge $-1 $100 $99 $236 $239 reversed $33 $-1 #
edge $-1 $240 -65.037385174108095 $175 65.037385174108095 $167 $241 forward 7 unknown #
edge $-1 $176 -65.037385174108095 $237 65.037385174108095 $168 $242 forward 7 unknown #
coedge $-1 $101 $243 $234 $244 reversed $110 $-1 #
vertex $-1 $244 $245 #
vertex $-1 $102 $246 #
straight-curve $-1 65.037385174108095 15.374097280325977 9.3950964278396434 0 -1 0 I I #
coedge $-1 $169 $247 $103 $179 forward $232 $-1 #
edge $-1 $185 -20.623034514395066 $181 -10.125160046256884 $178 $248 forward 7 unknown #
coedge $-1 $168 $104 $109 $189 reversed $53 $-1 #
vertex $-1 $179 $249 #
straight-curve $-1 0 25.49925732658286 12.742584394701463 1 0 0 I I #
coedge $-1 $250 $106 $247 $251 reversed $166 $-1 #
coedge $-1 $106 $250 $108 $188 forward $166 $-1 #
vertex $-1 $179 $252 #
straight-curve $-1 0 35.997131794721042 12.742584394701463 -1 0 0 I I #
coedge $-1 $253 $108 $254 $255 reversed $110 $-1 #
edge $-1 $256 -14.914086178740011 $112 -12.742584394701463 $108 $257 forward 7 unknown #
edge $-1 $176 3.8606762222043667 $111 7.2081641890661867 $109 $258 forward 7 unknown #
face $-1 $-1 $110 $11 $-1 $259 reversed single #
point $-1 65.037385174108095 25.49925732658286 12.742584394701463 #
point $-1 65.037385174108095 35.997131794721042 12.742584394701463 #
plane-surface $-1 65.037385174108095 0 0 -1 0 0 0 0 1 forward_v I I I I #
coedge $-1 $119 $117 $121 $198 reversed $61 $-1 #
edge $-1 $132 -14.914086178740011 $200 14.914086178740011 $131 $260 forward 7 unknown #
vertex $-1 $198 $261 #
straight-curve $-1 -65.037385174108095 -35.997131794721042 0 0 0 -1 I I #
edge $-1 $196 -35.997131794721042 $200 35.997131794721042 $194 $262 forward 7 unknown #
straight-curve $-1 0 -35.997131794721042 -14.914086178740011 -1 0 0 I I #
vertex $-1 $124 $263 #
straight-curve $-1 0 35.997131794721042 -14.914086178740011 1 0 0 I I #
point $-1 65.037385174108095 35.997131794721042 -14.914086178740011 #
point $-1 65.037385174108095 -35.997131794721042 -14.914086178740011 #
straight-curve $-1 -65.037385174108095 0 14.914086178740011 0 -1 0 I I #
point $-1 -65.037385174108095 35.997131794721042 14.914086178740011 #
point $-1 -65.037385174108095 -35.997131794721042 14.914086178740011 #
straight-curve $-1 65.037385174108095 -35.997131794721042 0 0 0 -1 I I #
straight-curve $-1 65.037385174108095 35.997131794721042 0 0 0 -1 I I #
face $-1 $264 $156 $10 $-1 $265 reversed single #
plane-surface $-1 0 0 14.914086178740011 0 0 1 1 0 0 forward_v I I I I #
coedge $-1 $266 $267 $212 $268 forward $142 $-1 #
coedge $-1 $144 $143 $211 $268 reversed $45 $-1 #
edge $-1 $269 -7.4855859020861146 $157 7.4855859020861146 $143 $270 forward 7 unknown #
edge $-1 $161 -7.4855859020861146 $271 7.4855859020861146 $144 $272 forward 7 unknown #
straight-curve $-1 -46.169140188208523 -50.968303598893272 0 0 0 -1 I I #
coedge $-1 $273 $146 $151 $222 forward $156 $-1 #
straight-curve $-1 -49.864002970330041 -43.482717696807157 -14.914086178740011 0 1 0 I I #
coedge $-1 $148 $274 $150 $221 forward $160 $-1 #
straight-curve $-1 -49.864002970330041 -43.482717696807157 14.914086178740011 0 -1 0 I I #
coedge $-1 $151 $150 $275 $276 forward $80 $-1 #
edge $-1 $277 -65.037385174108095 $153 -49.864002970330041 $150 $278 forward 7 unknown #
edge $-1 $152 49.864002970330041 $279 65.037385174108095 $151 $280 forward 7 unknown #
point $-1 -49.864002970330041 -35.997131794721042 -14.914086178740011 #
point $-1 -49.864002970330041 -35.997131794721042 14.914086178740011 #
coedge $-1 $155 $226 $266 $281 forward $156 $-1 #
coedge $-1 $225 $282 $283 $284 forward $156 $-1 #
point $-1 -46.169140188208523 -50.968303598893272 -14.914086178740011 #
coedge $-1 $229 $159 $267 $285 forward $160 $-1 #
coedge $-1 $286 $228 $287 $288 forward $160 $-1 #
point $-1 -46.169140188208523 -50.968303598893272 14.914086178740011 #
face $-1 $289 $290 $11 $-1 $291 reversed single #
loop $-1 $-1 $178 $165 #
plane-surface $-1 -65.037385174108095 0 0 1 0 0 0 0 -1 forward_v I I I I #
coedge $-1 $292 $167 $174 $244 forward $96 $-1 #
coedge $-1 $167 $292 $293 $294 reversed $96 $-1 #
coedge $-1 $293 $169 $171 $239 forward $232 $-1 #
vertex $-1 $239 $295 #
straight-curve $-1 -65.037385174108095 25.49925732658286 5.5344202056352767 0 0 -1 I I #
edge $-1 $237 10.125160046256884 $240 20.623034514395066 $236 $296 forward 7 unknown #
vertex $-1 $294 $297 #
straight-curve $-1 0 35.997131794721042 9.3950964278396434 1 0 0 I I #
straight-curve $-1 0 25.49925732658286 9.3950964278396434 -1 0 0 I I #
coedge $-1 $174 $253 $298 $299 reversed $110 $-1 #
edge $-1 $175 -9.3950964278396434 $300 14.914086178740011 $174 $257 forward 7 unknown #
point $-1 65.037385174108095 35.997131794721042 9.3950964278396434 #
point $-1 65.037385174108095 25.49925732658286 9.3950964278396434 #
coedge $-1 $178 $301 $183 $251 forward $232 $-1 #
straight-curve $-1 -65.037385174108095 15.374097280325977 12.742584394701463 0 -1 0 I I #
point $-1 -65.037385174108095 25.49925732658286 12.742584394701463 #
coedge $-1 $184 $183 $302 $303 reversed $166 $-1 #
edge $-1 $304 -14.914086178740011 $185 -12.742584394701463 $183 $305 forward 7 unknown #
point $-1 -65.037385174108095 35.997131794721042 12.742584394701463 #
coedge $-1 $243 $187 $306 $307 forward $110 $-1 #
coedge $-1 $302 $308 $187 $255 forward $309 $-1 #
edge $-1 $310 -35.997131794721042 $256 35.997131794721042 $187 $311 forward 7 unknown #
vertex $-1 $255 $312 #
straight-curve $-1 65.037385174108095 35.997131794721042 0 0 0 -1 I I #
straight-curve $-1 65.037385174108095 25.49925732658286 5.5344202056352767 0 0 1 I I #
plane-surface $-1 65.037385174108095 0 0 -1 0 0 0 0 1 forward_v I I I I #
straight-curve $-1 -65.037385174108095 35.997131794721042 0 0 0 -1 I I #
point $-1 -65.037385174108095 -35.997131794721042 -14.914086178740011 #
straight-curve $-1 -65.037385174108095 0 -14.914086178740011 0 1 0 I I #
point $-1 -65.037385174108095 35.997131794721042 -14.914086178740011 #
face $-1 $313 $314 $10 $-1 $315 reversed single #
plane-surface $-1 0 0 -14.914086178740011 0 0 1 1 0 0 forward_v I I I I #
coedge $-1 $316 $211 $225 $281 reversed $142 $-1 #
coedge $-1 $211 $316 $228 $285 reversed $142 $-1 #
edge $-1 $271 -14.914086178740011 $269 14.914086178740011 $211 $317 forward 7 unknown #
vertex $-1 $213 $318 #
straight-curve $-1 -46.169140188208523 -43.482717696807157 -14.914086178740011 0 -1 0 I I #
vertex $-1 $285 $319 #
straight-curve $-1 -46.169140188208523 -43.482717696807157 14.914086178740011 0 1 0 I I #
coedge $-1 $282 $216 $320 $321 forward $156 $-1 #
coedge $-1 $218 $286 $322 $323 forward $160 $-1 #
coedge $-1 $322 $320 $220 $276 reversed $314 $-1 #
edge $-1 $277 -14.914086178740011 $279 14.914086178740011 $275 $324 forward 7 unknown #
vertex $-1 $323 $325 #
straight-curve $-1 0 -35.997131794721042 14.914086178740011 1 0 0 I I #
vertex $-1 $321 $326 #
straight-curve $-1 0 -35.997131794721042 -14.914086178740011 -1 0 0 I I #
edge $-1 $327 -65.037385174108095 $269 46.169140188208523 $266 $280 forward 7 unknown #
coedge $-1 $226 $273 $328 $329 forward $156 $-1 #
coedge $-1 $330 $331 $226 $284 reversed $332 $-1 #
edge $-1 $333 -35.997131794721042 $327 35.997131794721042 $283 $334 forward 7 unknown #
edge $-1 $271 -46.169140188208523 $335 65.037385174108095 $267 $278 forward 7 unknown #
coedge $-1 $274 $229 $336 $337 forward $160 $-1 #
coedge $-1 $331 $330 $229 $288 reversed $332 $-1 #
edge $-1 $335 -35.997131794721042 $338 35.997131794721042 $287 $339 forward 7 unknown #
face $-1 $340 $341 $11 $-1 $342 reversed single #
loop $-1 $-1 $343 $231 #
plane-surface $-1 -48.016571579269282 -50.968303598893272 0 0 1 0 0 0 1 forward_v I I I I #
coedge $-1 $235 $234 $344 $345 reversed $96 $-1 #
coedge $-1 $346 $236 $235 $294 forward $232 $-1 #
edge $-1 $240 -9.3950964278396434 $347 14.914086178740011 $235 $305 forward 7 unknown #
point $-1 -65.037385174108095 25.49925732658286 9.3950964278396434 #
straight-curve $-1 -65.037385174108095 15.374097280325977 9.3950964278396434 0 1 0 I I #
point $-1 -65.037385174108095 35.997131794721042 9.3950964278396434 #
coedge $-1 $348 $344 $243 $299 forward $349 $-1 #
edge $-1 $300 -35.997131794721042 $350 35.997131794721042 $243 $351 forward 7 unknown #
vertex $-1 $299 $352 #
coedge $-1 $247 $353 $354 $355 reversed $232 $-1 #
coedge $-1 $354 $254 $250 $303 forward $309 $-1 #
edge $-1 $256 -65.037385174108095 $304 65.037385174108095 $250 $356 forward 7 unknown #
vertex $-1 $303 $357 #
straight-curve $-1 -65.037385174108095 35.997131794721042 0 0 0 -1 I I #
coedge $-1 $358 $359 $253 $307 reversed $360 $-1 #
edge $-1 $310 -14.914086178740011 $350 14.914086178740011 $253 $361 forward 7 unknown #
coedge $-1 $254 $362 $358 $363 forward $309 $-1 #
loop $-1 $-1 $254 $364 #
vertex $-1 $255 $365 #
straight-curve $-1 65.037385174108095 0 14.914086178740011 0 1 0 I I #
point $-1 65.037385174108095 35.997131794721042 14.914086178740011 #
face $-1 $366 $367 $10 $-1 $368 reversed single #
loop $-1 $-1 $369 $264 #
plane-surface $-1 -65.037385174108095 0 0 1 0 0 0 0 -1 forward_v I I I I #
coedge $-1 $267 $266 $331 $370 reversed $142 $-1 #
straight-curve $-1 -46.169140188208523 -35.997131794721042 0 0 0 -1 I I #
point $-1 -46.169140188208523 -35.997131794721042 -14.914086178740011 #
point $-1 -46.169140188208523 -35.997131794721042 14.914086178740011 #
coedge $-1 $275 $369 $273 $321 reversed $314 $-1 #
edge $-1 $279 -35.997131794721042 $371 35.997131794721042 $320 $372 forward 7 unknown #
coedge $-1 $369 $275 $274 $323 reversed $314 $-1 #
edge $-1 $373 -35.997131794721042 $277 35.997131794721042 $322 $374 forward 7 unknown #
straight-curve $-1 -65.037385174108095 -35.997131794721042 0 0 0 -1 I I #
point $-1 -65.037385174108095 -35.997131794721042 14.914086178740011 #
point $-1 -65.037385174108095 -35.997131794721042 -14.914086178740011 #
vertex $-1 $370 $375 #
coedge $-1 $376 $377 $282 $329 reversed $367 $-1 #
edge $-1 $371 -65.037385174108095 $333 65.037385174108095 $328 $378 forward 7 unknown #
coedge $-1 $287 $283 $377 $379 reversed $332 $-1 #
coedge $-1 $283 $287 $316 $370 forward $332 $-1 #
loop $-1 $-1 $331 $366 #
vertex $-1 $284 $380 #
straight-curve $-1 65.037385174108095 0 -14.914086178740011 0 -1 0 I I #
vertex $-1 $288 $381 #
coedge $-1 $377 $376 $286 $337 reversed $367 $-1 #
edge $-1 $338 -65.037385174108095 $373 65.037385174108095 $336 $382 forward 7 unknown #
vertex $-1 $288 $383 #
straight-curve $-1 65.037385174108095 0 14.914086178740011 0 1 0 I I #
face $-1 $384 $385 $11 $-1 $386 reversed single #
loop $-1 $-1 $387 $289 #
plane-surface $-1 -49.864002970330041 -43.482717696807157 0 1 0 0 0 0 -1 forward_v I I I I #
coedge $-1 $388 $389 $390 $391 forward $290 $-1 #
coedge $-1 $298 $392 $292 $345 forward $349 $-1 #
edge $-1 $347 -65.037385174108095 $300 65.037385174108095 $292 $393 forward 7 unknown #
coedge $-1 $353 $293 $392 $394 reversed $232 $-1 #
vertex $-1 $345 $395 #
coedge $-1 $396 $298 $359 $397 forward $349 $-1 #
loop $-1 $-1 $298 $398 #
vertex $-1 $307 $399 #
straight-curve $-1 65.037385174108095 0 -14.914086178740011 0 -1 0 I I #
point $-1 65.037385174108095 35.997131794721042 -14.914086178740011 #
coedge $-1 $301 $346 $400 $401 reversed $232 $-1 #
coedge $-1 $402 $302 $301 $355 forward $309 $-1 #
edge $-1 $304 -35.997131794721042 $403 35.997131794721042 $301 $404 forward 7 unknown #
straight-curve $-1 0 35.997131794721042 14.914086178740011 -1 0 0 I I #
point $-1 -65.037385174108095 35.997131794721042 14.914086178740011 #
coedge $-1 $405 $306 $308 $363 reversed $360 $-1 #
coedge $-1 $306 $405 $348 $397 reversed $360 $-1 #
loop $-1 $-1 $405 $406 #
straight-curve $-1 65.037385174108095 -35.997131794721042 0 0 0 -1 I I #
coedge $-1 $308 $407 $408 $409 forward $309 $-1 #
edge $-1 $410 -46.169140188208523 $310 65.037385174108095 $358 $411 forward 7 unknown #
face $-1 $398 $309 $11 $-1 $412 forward single #
point $-1 65.037385174108095 -35.997131794721042 14.914086178740011 #
face $-1 $-1 $332 $10 $-1 $413 reversed single #
loop $-1 $-1 $377 $313 #
plane-surface $-1 0 35.997131794721042 0 0 -1 0 0 0 -1 forward_v I I I I #
coedge $-1 $320 $322 $376 $414 forward $314 $-1 #
edge $-1 $335 -14.914086178740011 $327 14.914086178740011 $331 $415 forward 7 unknown #
vertex $-1 $329 $416 #
straight-curve $-1 -65.037385174108095 0 -14.914086178740011 0 1 0 I I #
vertex $-1 $337 $417 #
straight-curve $-1 -65.037385174108095 0 14.914086178740011 0 -1 0 I I #
point $-1 65.037385174108095 -35.997131794721042 -14.914086178740011 #
coedge $-1 $336 $328 $369 $414 reversed $367 $-1 #
coedge $-1 $328 $336 $330 $379 forward $367 $-1 #
straight-curve $-1 0 35.997131794721042 -14.914086178740011 1 0 0 I I #
edge $-1 $338 -14.914086178740011 $333 14.914086178740011 $330 $418 forward 7 unknown #
point $-1 65.037385174108095 35.997131794721042 -14.914086178740011 #
point $-1 65.037385174108095 -35.997131794721042 14.914086178740011 #
straight-curve $-1 0 35.997131794721042 14.914086178740011 -1 0 0 I I #
point $-1 65.037385174108095 35.997131794721042 14.914086178740011 #
face $-1 $406 $419 $11 $-1 $420 reversed single #
loop $-1 $-1 $421 $340 #
plane-surface $-1 -46.169140188208523 -43.482717696807157 0 -1 0 0 0 0 1 forward_v I I I I #
coedge $-1 $422 $423 $424 $425 reversed $341 $-1 #
coedge $-1 $426 $343 $427 $428 reversed $290 $-1 #
coedge $-1 $343 $426 $407 $429 reversed $290 $-1 #
coedge $-1 $423 $422 $343 $391 reversed $341 $-1 #
edge $-1 $430 -14.914086178740011 $431 14.914086178740011 $390 $432 forward 7 unknown #
coedge $-1 $344 $433 $346 $394 forward $349 $-1 #
straight-curve $-1 0 35.997131794721042 -14.914086178740011 1 0 0 I I #
edge $-1 $434 -35.997131794721042 $347 35.997131794721042 $346 $435 forward 7 unknown #
point $-1 -65.037385174108095 35.997131794721042 -14.914086178740011 #
coedge $-1 $427 $348 $436 $437 forward $349 $-1 #
edge $-1 $350 -65.037385174108095 $438 46.169140188208523 $359 $439 forward 7 unknown #
face $-1 $190 $349 $11 $-1 $440 reversed single #
point $-1 65.037385174108095 -35.997131794721042 -14.914086178740011 #
coedge $-1 $441 $442 $353 $401 forward $419 $-1 #
edge $-1 $403 -14.914086178740011 $434 14.914086178740011 $353 $443 forward 7 unknown #
coedge $-1 $444 $354 $442 $445 forward $309 $-1 #
vertex $-1 $355 $446 #
straight-curve $-1 -65.037385174108095 0 14.914086178740011 0 -1 0 I I #
coedge $-1 $359 $358 $447 $448 forward $360 $-1 #
face $-1 $364 $360 $11 $-1 $420 reversed single #
coedge $-1 $362 $444 $389 $429 forward $309 $-1 #
coedge $-1 $421 $447 $362 $409 reversed $385 $-1 #
edge $-1 $449 -7.4855859020861146 $410 7.4855859020861146 $408 $450 forward 7 unknown #
vertex $-1 $363 $451 #
straight-curve $-1 0 -35.997131794721042 14.914086178740011 1 0 0 I I #
plane-surface $-1 0 0 14.914086178740011 0 0 1 1 0 0 forward_v I I I I #
plane-surface $-1 65.037385174108095 0 0 -1 0 0 0 0 1 forward_v I I I I #
edge $-1 $373 -14.914086178740011 $371 14.914086178740011 $376 $452 forward 7 unknown #
straight-curve $-1 65.037385174108095 -35.997131794721042 0 0 0 -1 I I #
point $-1 -65.037385174108095 35.997131794721042 -14.914086178740011 #
point $-1 -65.037385174108095 35.997131794721042 14.914086178740011 #
straight-curve $-1 65.037385174108095 35.997131794721042 0 0 0 -1 I I #
loop $-1 $-1 $424 $384 #
plane-surface $-1 0 -35.997131794721042 0 0 1 0 0 0 1 forward_v I I I I #
coedge $-1 $436 $408 $426 $453 forward $385 $-1 #
coedge $-1 $390 $387 $454 $455 reversed $341 $-1 #
coedge $-1 $387 $390 $444 $456 reversed $341 $-1 #
coedge $-1 $442 $441 $387 $425 forward $419 $-1 #
edge $-1 $457 -14.914086178740011 $458 14.914086178740011 $424 $459 forward 7 unknown #
coedge $-1 $389 $388 $421 $453 reversed $290 $-1 #
coedge $-1 $454 $396 $388 $428 forward $349 $-1 #
edge $-1 $460 -1.8474313910607592 $431 1.8474313910607592 $388 $461 forward 7 unknown #
edge $-1 $430 -1.8474313910607592 $449 1.8474313910607592 $389 $462 forward 7 unknown #
vertex $-1 $456 $463 #
vertex $-1 $455 $464 #
straight-curve $-1 -49.864002970330041 -50.968303598893272 0 0 0 -1 I I #
coedge $-1 $392 $454 $441 $465 forward $349 $-1 #
vertex $-1 $394 $466 #
straight-curve $-1 -65.037385174108095 0 -14.914086178740011 0 1 0 I I #
coedge $-1 $447 $421 $396 $437 reversed $385 $-1 #
edge $-1 $438 -7.4855859020861146 $460 7.4855859020861146 $436 $467 forward 7 unknown #
vertex $-1 $437 $468 #
straight-curve $-1 0 -35.997131794721042 -14.914086178740011 -1 0 0 I I #
plane-surface $-1 0 0 -14.914086178740011 0 0 1 1 0 0 forward_v I I I I #
coedge $-1 $424 $400 $433 $465 reversed $419 $-1 #
coedge $-1 $400 $424 $402 $445 reversed $419 $-1 #
straight-curve $-1 -65.037385174108095 -35.997131794721042 0 0 0 -1 I I #
coedge $-1 $407 $402 $423 $456 forward $309 $-1 #
edge $-1 $403 -65.037385174108095 $458 -49.864002970330041 $442 $411 forward 7 unknown #
point $-1 -65.037385174108095 -35.997131794721042 14.914086178740011 #
coedge $-1 $408 $436 $405 $448 reversed $385 $-1 #
edge $-1 $410 -14.914086178740011 $438 14.914086178740011 $405 $469 forward 7 unknown #
vertex $-1 $409 $470 #
straight-curve $-1 -46.169140188208523 -43.482717696807157 14.914086178740011 0 1 0 I I #
point $-1 -46.169140188208523 -35.997131794721042 14.914086178740011 #
straight-curve $-1 -65.037385174108095 35.997131794721042 0 0 0 -1 I I #
edge $-1 $449 -14.914086178740011 $460 14.914086178740011 $421 $471 forward 7 unknown #
coedge $-1 $433 $427 $422 $455 forward $349 $-1 #
edge $-1 $431 -7.4855859020861146 $457 7.4855859020861146 $422 $472 forward 7 unknown #
edge $-1 $458 -7.4855859020861146 $430 7.4855859020861146 $423 $473 forward 7 unknown #
vertex $-1 $465 $474 #
vertex $-1 $456 $475 #
straight-curve $-1 -49.864002970330041 -35.997131794721042 0 0 0 1 I I #
vertex $-1 $453 $476 #
straight-curve $-1 -48.016571579269282 -50.968303598893272 -14.914086178740011 -1 0 0 I I #
straight-curve $-1 -48.016571579269282 -50.968303598893272 14.914086178740011 1 0 0 I I #
point $-1 -49.864002970330041 -50.968303598893272 14.914086178740011 #
point $-1 -49.864002970330041 -50.968303598893272 -14.914086178740011 #
edge $-1 $457 49.864002970330041 $434 65.037385174108095 $441 $439 forward 7 unknown #
point $-1 -65.037385174108095 -35.997131794721042 -14.914086178740011 #
straight-curve $-1 -46.169140188208523 -43.482717696807157 -14.914086178740011 0 -1 0 I I #
point $-1 -46.169140188208523 -35.997131794721042 -14.914086178740011 #
straight-curve $-1 -46.169140188208523 -35.997131794721042 0 0 0 -1 I I #
point $-1 -46.169140188208523 -50.968303598893272 14.914086178740011 #
straight-curve $-1 -46.169140188208523 -50.968303598893272 0 0 0 -1 I I #
straight-curve $-1 -49.864002970330041 -43.482717696807157 -14.914086178740011 0 1 0 I I #
straight-curve $-1 -49.864002970330041 -43.482717696807157 14.914086178740011 0 -1 0 I I #
point $-1 -49.864002970330041 -35.997131794721042 -14.914086178740011 #
point $-1 -49.864002970330041 -35.997131794721042 14.914086178740011 #
point $-1 -46.169140188208523 -50.968303598893272 -14.914086178740011 #
End-of-ACIS-data 