500 0 10 0           
7 Unknown 11 ACIS 5.0 NT 24 Fri Mar 26 17:13:15 1999 
-1 9.9999999999999995e-007 1e-010 
body $-1 $10 $-1 $11 #
body $-1 $12 $-1 $13 #
body $-1 $14 $-1 $15 #
body $-1 $16 $-1 $17 #
body $-1 $18 $-1 $19 #
body $-1 $20 $-1 $21 #
body $-1 $22 $-1 $23 #
body $-1 $24 $-1 $25 #
body $-1 $26 $-1 $27 #
body $-1 $28 $-1 $29 #
lump $-1 $-1 $30 $0 #
transform $-1 1 0 0 0 1 0 0 0 1 47.389141514328443 31.99573334342303 13.513747111615437 1 rotate no_reflect no_shear #
lump $-1 $-1 $31 $1 #
transform $-1 1 0 0 0 1 0 0 0 1 47.389141514328443 31.99573334342303 13.513747111615437 1 rotate no_reflect no_shear #
lump $-1 $-1 $32 $2 #
transform $-1 1 0 0 0 1 0 0 0 1 47.389141514328443 31.99573334342303 13.513747111615437 1 rotate no_reflect no_shear #
lump $-1 $-1 $33 $3 #
transform $-1 1 0 0 0 1 0 0 0 1 47.389141514328443 31.99573334342303 13.513747111615437 1 rotate no_reflect no_shear #
lump $-1 $-1 $34 $4 #
transform $-1 1 0 0 0 1 0 0 0 1 47.389141514328443 31.99573334342303 13.513747111615437 1 rotate no_reflect no_shear #
lump $-1 $-1 $35 $5 #
transform $-1 1 0 0 0 1 0 0 0 1 47.389141514328443 31.99573334342303 13.513747111615437 1 rotate no_reflect no_shear #
lump $-1 $-1 $36 $6 #
transform $-1 1 0 0 0 1 0 0 0 1 47.389141514328443 31.99573334342303 13.513747111615437 1 rotate no_reflect no_shear #
lump $-1 $-1 $37 $7 #
transform $-1 1 0 0 0 1 0 0 0 1 47.389141514328443 31.99573334342303 13.513747111615437 1 rotate no_reflect no_shear #
lump $-1 $-1 $38 $8 #
transform $-1 1 0 0 0 1 0 0 0 1 47.389141514328443 31.99573334342303 13.513747111615437 1 rotate no_reflect no_shear #
lump $-1 $-1 $39 $9 #
transform $-1 1 0 0 0 1 0 0 0 1 47.389141514328443 31.99573334342303 13.513747111615437 1 rotate no_reflect no_shear #
shell $-1 $-1 $-1 $40 $-1 $10 #
shell $-1 $-1 $-1 $41 $-1 $12 #
shell $-1 $-1 $-1 $42 $-1 $14 #
shell $-1 $-1 $-1 $43 $-1 $16 #
shell $-1 $-1 $-1 $44 $-1 $18 #
shell $-1 $-1 $-1 $45 $-1 $20 #
shell $-1 $-1 $-1 $46 $-1 $22 #
shell $-1 $-1 $-1 $47 $-1 $24 #
shell $-1 $-1 $-1 $48 $-1 $26 #
shell $-1 $-1 $-1 $49 $-1 $28 #
face $-1 $50 $51 $30 $-1 $52 forward single #
face $-1 $53 $54 $31 $-1 $55 reversed single #
face $-1 $56 $57 $32 $-1 $58 reversed single #
face $-1 $59 $60 $33 $-1 $61 reversed single #
face $-1 $62 $63 $34 $-1 $64 forward single #
face $-1 $65 $66 $35 $-1 $67 forward single #
face $-1 $68 $69 $36 $-1 $70 reversed single #
face $-1 $71 $72 $37 $-1 $73 forward single #
face $-1 $74 $75 $38 $-1 $76 reversed single #
face $-1 $77 $78 $39 $-1 $79 forward single #
face $-1 $80 $81 $30 $-1 $82 reversed single #
loop $-1 $-1 $83 $40 #
plane-surface $-1 0 0 13.513747111615437 0 0 1 1 0 0 forward_v I I I I #
face $-1 $84 $85 $31 $-1 $86 reversed single #
loop $-1 $-1 $87 $41 #
plane-surface $-1 -32.724917709176843 -26.043469453663658 0 1 0 0 0 0 -1 forward_v I I I I #
face $-1 $88 $89 $32 $-1 $90 reversed single #
loop $-1 $-1 $91 $42 #
plane-surface $-1 -28.791714949425714 20.091205563904285 0 0 1 0 0 0 1 forward_v I I I I #
face $-1 $92 $93 $33 $-1 $94 reversed single #
loop $-1 $-1 $95 $43 #
plane-surface $-1 -118.91922049869829 6.4369035279568934 71.475895211398381 0 1 0 -0.75470958851134928 0 0.65605901945558964 forward_v I I I I #
face $-1 $96 $97 $34 $-1 $98 forward single #
loop $-1 $99 $100 $44 #
cone-surface $-1 -45.178461328146909 8.7338305474054501 11.076717937046611 0.75470958851134928 0 -0.65605901945558964 0.32802950972779482 0 0.37735479425567464 1 I I 0 1 0.5 forward I I I I #
face $-1 $101 $102 $35 $-1 $103 forward single #
loop $-1 $104 $105 $45 #
cone-surface $-1 -45.178461328146909 12.17922107657829 11.076717937046611 0.75470958851134928 0 -0.65605901945558964 0.32802950972779482 0 0.37735479425567464 1 I I 0 1 0.5 forward I I I I #
face $-1 $106 $107 $36 $-1 $108 reversed single #
loop $-1 $-1 $109 $46 #
plane-surface $-1 38.039213062183222 -4.9414626719815082 137.04432332066563 0 -1 0 -0.6560590369687036 0 -0.75470957328743171 forward_v I I I I #
face $-1 $110 $111 $37 $-1 $112 forward single #
loop $-1 $113 $114 $47 #
cone-surface $-1 40.421047764756835 -9.8269701302346952 7.1436542036307209 -0.6560590369687036 0 -0.75470957328743171 1.5094191465748634 0 -1.3121180739374072 1 I I 0 1 2 forward I I I I #
face $-1 $115 $116 $38 $-1 $117 reversed single #
loop $-1 $-1 $118 $48 #
plane-surface $-1 38.039213062183222 15.149742891922774 137.04432332066563 0 -1 0 -0.6560590369687036 0 -0.75470957328743171 forward_v I I I I #
face $-1 $119 $120 $39 $-1 $121 forward single #
loop $-1 $122 $123 $49 #
cone-surface $-1 40.421047764756835 10.264235433669587 7.1436542036307209 -0.6560590369687036 0 -0.75470957328743171 1.5094191465748634 0 -1.3121180739374072 1 I I 0 1 2 forward I I I I #
face $-1 $124 $125 $30 $-1 $126 reversed single #
loop $-1 $-1 $127 $50 #
plane-surface $-1 0 0 -13.513747111615437 0 0 1 1 0 0 forward_v I I I I #
coedge $-1 $128 $129 $130 $131 forward $51 $-1 #
face $-1 $132 $133 $31 $-1 $134 reversed single #
loop $-1 $-1 $135 $53 #
plane-surface $-1 -28.791714949425714 -20.091205563904285 0 0 -1 0 0 0 -1 forward_v I I I I #
coedge $-1 $136 $137 $138 $139 forward $54 $-1 #
face $-1 $140 $141 $32 $-1 $142 reversed single #
loop $-1 $-1 $143 $56 #
plane-surface $-1 -32.724917709176843 26.043469453663658 0 1 0 0 0 0 -1 forward_v I I I I #
coedge $-1 $144 $145 $146 $147 forward $57 $-1 #
face $-1 $148 $149 $33 $-1 $150 reversed single #
loop $-1 $-1 $151 $59 #
plane-surface $-1 -47.389141514328458 10.456525811991877 9.2957477819333931 -0.75470958851134928 0 0.65605901945558964 0.65605901945558964 0 0.75470958851134928 forward_v I I I I #
coedge $-1 $152 $153 $154 $155 reversed $60 $-1 #
face $-1 $-1 $156 $34 $-1 $157 forward single #
loop $-1 $158 $159 $62 #
cone-surface $-1 -44.612429136763396 8.7338305474054501 10.584673672454919 0.75470958851134928 0 -0.65605901945558964 0.16401475486389741 0 0.18867739712783732 1 I I -0.70710678118654746 0.70710678118654746 0.25 forward I I I I #
loop $-1 $-1 $160 $44 #
coedge $-1 $100 $100 $161 $162 reversed $63 $-1 #
face $-1 $-1 $163 $35 $-1 $164 forward single #
loop $-1 $165 $166 $65 #
cone-surface $-1 -44.612429136763396 12.17922107657829 10.584673672454919 0.75470958851134928 0 -0.65605901945558964 0.16401475486389741 0 0.18867739712783732 1 I I -0.70710678118654746 0.70710678118654746 0.25 forward I I I I #
loop $-1 $-1 $167 $45 #
coedge $-1 $105 $105 $168 $169 reversed $66 $-1 #
face $-1 $170 $171 $36 $-1 $172 reversed single #
loop $-1 $-1 $173 $68 #
plane-surface $-1 -24.14093602714464 -9.8269701302346952 65.514245779192549 0.6560590369687036 0 0.75470957328743171 0.75470957328743171 0 -0.6560590369687036 forward_v I I I I #
coedge $-1 $174 $175 $176 $177 reversed $69 $-1 #
face $-1 $-1 $178 $37 $-1 $179 forward single #
loop $-1 $180 $181 $71 #
cone-surface $-1 38.652068974075391 -9.8269701302346952 5.1086769332339443 -0.6560590369687036 0 -0.75470957328743171 0.75470957328743171 0 -0.6560590369687036 1 I I -0.70710678118654746 0.70710678118654746 1 forward I I I I #
loop $-1 $-1 $182 $47 #
coedge $-1 $114 $114 $183 $184 reversed $72 $-1 #
face $-1 $185 $186 $38 $-1 $187 reversed single #
loop $-1 $-1 $188 $74 #
plane-surface $-1 -24.14093602714464 10.264235433669587 65.514245779192549 0.6560590369687036 0 0.75470957328743171 0.75470957328743171 0 -0.6560590369687036 forward_v I I I I #
coedge $-1 $189 $190 $191 $192 reversed $75 $-1 #
face $-1 $-1 $193 $39 $-1 $194 forward single #
loop $-1 $195 $196 $77 #
cone-surface $-1 38.652068974075391 10.264235433669587 5.1086769332339443 -0.6560590369687036 0 -0.75470957328743171 0.75470957328743171 0 -0.6560590369687036 1 I I -0.70710678118654746 0.70710678118654746 1 forward I I I I #
loop $-1 $-1 $197 $49 #
coedge $-1 $123 $123 $198 $199 reversed $78 $-1 #
face $-1 $200 $201 $30 $-1 $202 reversed single #
loop $-1 $-1 $203 $80 #
plane-surface $-1 0 -31.99573334342303 0 0 1 0 0 0 1 forward_v I I I I #
coedge $-1 $204 $205 $206 $207 forward $81 $-1 #
coedge $-1 $208 $83 $209 $210 forward $51 $-1 #
coedge $-1 $83 $208 $211 $212 forward $51 $-1 #
coedge $-1 $213 $214 $83 $131 reversed $215 $-1 #
edge $-1 $216 -31.99573334342303 $217 31.99573334342303 $130 $218 forward 7 unknown #
face $-1 $219 $220 $31 $-1 $221 forward single #
loop $-1 $-1 $222 $84 #
plane-surface $-1 -24.858512189674585 -26.043469453663658 0 -1 0 0 0 0 1 forward_v I I I I #
coedge $-1 $223 $224 $225 $226 forward $85 $-1 #
coedge $-1 $227 $87 $228 $229 reversed $54 $-1 #
coedge $-1 $87 $227 $230 $231 reversed $54 $-1 #
coedge $-1 $224 $223 $87 $139 reversed $85 $-1 #
edge $-1 $232 -13.513747111615437 $233 13.513747111615437 $138 $234 forward 7 unknown #
face $-1 $235 $236 $32 $-1 $237 reversed single #
loop $-1 $-1 $238 $88 #
plane-surface $-1 -24.858512189674585 26.043469453663658 0 -1 0 0 0 0 1 forward_v I I I I #
coedge $-1 $239 $240 $241 $242 reversed $89 $-1 #
coedge $-1 $243 $91 $244 $245 reversed $57 $-1 #
coedge $-1 $91 $243 $246 $247 reversed $57 $-1 #
coedge $-1 $240 $239 $91 $147 reversed $89 $-1 #
edge $-1 $248 -13.513747111615437 $249 13.513747111615437 $146 $250 forward 7 unknown #
face $-1 $251 $252 $33 $-1 $253 reversed single #
loop $-1 $-1 $254 $92 #
plane-surface $-1 -118.91922049869829 14.476148096026861 71.475895211398381 0 -1 0 0.75470958851134928 0 -0.65605901945558964 forward_v I I I I #
coedge $-1 $255 $256 $257 $258 reversed $93 $-1 #
coedge $-1 $153 $95 $259 $260 reversed $60 $-1 #
coedge $-1 $95 $152 $255 $261 reversed $60 $-1 #
coedge $-1 $257 $262 $95 $155 forward $263 $-1 #
edge $-1 $264 12.070468735020704 $265 15.737119518872397 $154 $266 forward 7 unknown #
loop $-1 $-1 $161 $96 #
plane-surface $-1 -47.389141514328458 10.456525811991877 9.2957477819333931 -0.75470958851134928 0 0.65605901945558964 0.65605901945558964 0 0.75470958851134928 forward_v I I I I #
loop $-1 $-1 $267 $62 #
coedge $-1 $159 $159 $160 $268 reversed $97 $-1 #
coedge $-1 $160 $160 $159 $268 forward $99 $-1 #
coedge $-1 $161 $161 $100 $162 forward $156 $-1 #
edge $-1 $269 0 $269 6.2831853071796004 $161 $270 forward 7 unknown #
loop $-1 $-1 $168 $101 #
plane-surface $-1 -47.389141514328458 10.456525811991877 9.2957477819333931 -0.75470958851134928 0 0.65605901945558964 0.65605901945558964 0 0.75470958851134928 forward_v I I I I #
loop $-1 $-1 $271 $65 #
coedge $-1 $166 $166 $167 $272 reversed $102 $-1 #
coedge $-1 $167 $167 $166 $272 forward $104 $-1 #
coedge $-1 $168 $168 $105 $169 forward $163 $-1 #
edge $-1 $273 0 $273 6.2831853071796004 $168 $274 forward 7 unknown #
face $-1 $275 $276 $36 $-1 $277 forward single #
loop $-1 $-1 $278 $106 #
plane-surface $-1 38.039213062183222 -14.712477588487882 137.04432332066563 0 1 0 0.6560590369687036 0 0.75470957328743171 forward_v I I I I #
coedge $-1 $279 $280 $281 $282 reversed $107 $-1 #
coedge $-1 $175 $109 $283 $284 reversed $69 $-1 #
coedge $-1 $109 $174 $279 $285 reversed $69 $-1 #
coedge $-1 $281 $286 $109 $177 forward $276 $-1 #
edge $-1 $287 -28.369534983236832 $288 -16.659186991519078 $176 $289 forward 7 unknown #
loop $-1 $-1 $183 $110 #
plane-surface $-1 -24.14093602714464 -9.8269701302346952 65.514245779192549 0.6560590369687036 0 0.75470957328743171 0.75470957328743171 0 -0.6560590369687036 forward_v I I I I #
loop $-1 $-1 $290 $71 #
coedge $-1 $181 $181 $182 $291 reversed $111 $-1 #
coedge $-1 $182 $182 $181 $291 forward $113 $-1 #
coedge $-1 $183 $183 $114 $184 forward $178 $-1 #
edge $-1 $292 0 $292 6.2831853071796004 $183 $293 forward 7 unknown #
face $-1 $294 $295 $38 $-1 $296 reversed single #
loop $-1 $-1 $297 $115 #
plane-surface $-1 38.039213062183222 5.3787279754163997 137.04432332066563 0 1 0 0.6560590369687036 0 0.75470957328743171 forward_v I I I I #
coedge $-1 $298 $299 $300 $301 reversed $116 $-1 #
coedge $-1 $190 $118 $302 $303 reversed $75 $-1 #
coedge $-1 $118 $189 $298 $304 reversed $75 $-1 #
coedge $-1 $300 $305 $118 $192 forward $306 $-1 #
edge $-1 $307 -28.369534983236832 $308 -16.659186991519078 $191 $309 forward 7 unknown #
loop $-1 $-1 $198 $119 #
plane-surface $-1 -24.14093602714464 10.264235433669587 65.514245779192549 0.6560590369687036 0 0.75470957328743171 0.75470957328743171 0 -0.6560590369687036 forward_v I I I I #
loop $-1 $-1 $310 $77 #
coedge $-1 $196 $196 $197 $311 reversed $120 $-1 #
coedge $-1 $197 $197 $196 $311 forward $122 $-1 #
coedge $-1 $198 $198 $123 $199 forward $193 $-1 #
edge $-1 $312 0 $312 6.2831853071796004 $198 $313 forward 7 unknown #
face $-1 $314 $315 $30 $-1 $316 reversed single #
loop $-1 $-1 $317 $124 #
plane-surface $-1 -47.389141514328443 0 0 1 0 0 0 0 -1 forward_v I I I I #
coedge $-1 $318 $211 $319 $320 forward $125 $-1 #
coedge $-1 $321 $127 $318 $322 forward $81 $-1 #
coedge $-1 $127 $321 $323 $324 forward $81 $-1 #
coedge $-1 $214 $213 $127 $207 reversed $215 $-1 #
edge $-1 $325 -31.99573334342303 $326 31.99573334342303 $206 $327 forward 7 unknown #
coedge $-1 $129 $128 $328 $329 forward $51 $-1 #
coedge $-1 $330 $331 $128 $210 reversed $315 $-1 #
edge $-1 $217 -47.389141514328443 $332 47.389141514328443 $209 $333 forward 7 unknown #
coedge $-1 $203 $334 $129 $212 reversed $125 $-1 #
edge $-1 $335 -47.389141514328443 $216 47.389141514328443 $211 $336 forward 7 unknown #
coedge $-1 $206 $130 $334 $337 forward $215 $-1 #
coedge $-1 $130 $206 $330 $338 reversed $215 $-1 #
loop $-1 $-1 $213 $314 #
vertex $-1 $131 $339 #
vertex $-1 $131 $340 #
straight-curve $-1 47.389141514328443 0 13.513747111615437 0 1 0 I I #
face $-1 $341 $342 $31 $-1 $343 reversed single #
loop $-1 $-1 $344 $132 #
plane-surface $-1 0 0 13.513747111615437 0 0 1 1 0 0 forward_v I I I I #
coedge $-1 $345 $346 $347 $348 reversed $133 $-1 #
coedge $-1 $138 $135 $349 $350 reversed $85 $-1 #
coedge $-1 $135 $138 $351 $352 reversed $85 $-1 #
coedge $-1 $346 $345 $135 $226 reversed $133 $-1 #
edge $-1 $353 -13.513747111615437 $354 13.513747111615437 $225 $355 forward 7 unknown #
coedge $-1 $137 $136 $356 $357 reversed $54 $-1 #
coedge $-1 $349 $358 $136 $229 forward $342 $-1 #
edge $-1 $359 -18.973998616591203 $233 -7.0694708370724566 $228 $360 forward 7 unknown #
coedge $-1 $361 $351 $137 $231 forward $220 $-1 #
edge $-1 $232 7.0694708370724566 $362 18.973998616591203 $230 $363 forward 7 unknown #
vertex $-1 $231 $364 #
vertex $-1 $229 $365 #
straight-curve $-1 -32.724917709176843 -20.091205563904285 0 0 0 -1 I I #
face $-1 $366 $367 $32 $-1 $368 forward single #
loop $-1 $-1 $369 $140 #
plane-surface $-1 0 0 -13.513747111615437 0 0 1 1 0 0 forward_v I I I I #
coedge $-1 $370 $371 $243 $372 forward $141 $-1 #
coedge $-1 $146 $143 $373 $374 reversed $89 $-1 #
coedge $-1 $143 $146 $375 $376 reversed $89 $-1 #
coedge $-1 $377 $378 $143 $242 forward $379 $-1 #
edge $-1 $380 -13.513747111615437 $381 13.513747111615437 $241 $382 forward 7 unknown #
coedge $-1 $145 $144 $238 $372 reversed $57 $-1 #
coedge $-1 $373 $369 $144 $245 forward $236 $-1 #
edge $-1 $383 10.462654714961728 $249 18.329060234463988 $244 $384 forward 7 unknown #
coedge $-1 $385 $375 $145 $247 forward $367 $-1 #
edge $-1 $248 -18.329060234463988 $386 -10.462654714961728 $246 $387 forward 7 unknown #
vertex $-1 $247 $388 #
vertex $-1 $245 $389 #
straight-curve $-1 -32.724917709176843 20.091205563904285 0 0 0 -1 I I #
face $-1 $-1 $263 $33 $-1 $390 forward single #
loop $-1 $-1 $391 $148 #
plane-surface $-1 -47.389141514328443 0 0 1 0 0 0 0 -1 forward_v I I I I #
coedge $-1 $392 $393 $394 $395 reversed $149 $-1 #
coedge $-1 $396 $151 $153 $261 forward $93 $-1 #
coedge $-1 $151 $396 $392 $397 forward $93 $-1 #
coedge $-1 $394 $154 $151 $258 forward $263 $-1 #
edge $-1 $265 1.2086406219609547 $398 9.2478851900309227 $257 $399 forward 7 unknown #
coedge $-1 $400 $401 $152 $260 forward $252 $-1 #
edge $-1 $402 -26.442199823765783 $264 -22.224200494083753 $259 $403 forward 7 unknown #
edge $-1 $265 -5.5889038563853051 $402 -2.1388861263899031e-014 $153 $404 forward 7 unknown #
coedge $-1 $154 $394 $400 $405 forward $263 $-1 #
loop $-1 $-1 $394 $251 #
vertex $-1 $260 $406 #
vertex $-1 $155 $407 #
straight-curve $-1 -59.459610249349147 6.4369035279568934 13.513747111615437 1 0 0 I I #
coedge $-1 $267 $267 $-1 $408 reversed $158 $-1 #
edge $-1 $409 0 $409 6.2831853071796004 $159 $410 forward 7 unknown #
vertex $-1 $162 $411 #
ellipse-curve $-1 -45.555816122402604 8.7338305474054501 11.404747446774421 -0.75470958851134928 0 0.65605901945558964 0.32802950972779482 0 0.37735479425567464 1 I I #
coedge $-1 $271 $271 $-1 $412 reversed $165 $-1 #
edge $-1 $413 0 $413 6.2831853071796004 $166 $414 forward 7 unknown #
vertex $-1 $169 $415 #
ellipse-curve $-1 -45.555816122402604 12.17922107657829 11.404747446774421 -0.75470958851134928 0 0.65605901945558964 0.32802950972779482 0 0.37735479425567464 1 I I #
face $-1 $-1 $416 $36 $-1 $417 reversed single #
loop $-1 $-1 $176 $170 #
plane-surface $-1 0 0 13.513747111615437 0 0 1 1 0 0 forward_v I I I I #
coedge $-1 $418 $419 $420 $421 reversed $171 $-1 #
coedge $-1 $422 $173 $175 $285 forward $107 $-1 #
coedge $-1 $173 $422 $418 $423 forward $107 $-1 #
coedge $-1 $420 $176 $173 $282 forward $276 $-1 #
edge $-1 $288 0.02797760686416062 $424 9.7989925233705346 $281 $425 forward 7 unknown #
coedge $-1 $426 $427 $174 $284 forward $416 $-1 #
edge $-1 $428 -65.188064970468133 $287 -55.008414548717376 $283 $429 forward 7 unknown #
edge $-1 $288 79.261919640408422 $428 94.778283028656901 $175 $430 forward 7 unknown #
coedge $-1 $176 $420 $426 $431 forward $276 $-1 #
vertex $-1 $177 $432 #
vertex $-1 $177 $433 #
straight-curve $-1 19.019606531091611 -4.9414626719815082 13.513747111615437 -1 0 0 I I #
coedge $-1 $290 $290 $-1 $434 reversed $180 $-1 #
edge $-1 $435 0 $435 6.2831853071796004 $181 $436 forward 7 unknown #
vertex $-1 $184 $437 #
ellipse-curve $-1 41.533967518469574 -9.8269701302346952 8.4239219007400621 0.6560590369687036 0 0.75470957328743171 1.5094191465748634 0 -1.3121180739374072 1 I I #
face $-1 $-1 $306 $38 $-1 $438 forward single #
loop $-1 $-1 $439 $185 #
plane-surface $-1 47.389141514328443 0 0 -1 0 0 0 0 1 forward_v I I I I #
coedge $-1 $440 $441 $442 $443 reversed $186 $-1 #
coedge $-1 $444 $188 $190 $304 forward $116 $-1 #
coedge $-1 $188 $444 $440 $445 forward $116 $-1 #
coedge $-1 $442 $191 $188 $301 forward $306 $-1 #
edge $-1 $308 -10.01762517508798 $446 -0.24661025858160635 $300 $447 forward 7 unknown #
coedge $-1 $448 $449 $189 $303 forward $295 $-1 #
edge $-1 $450 -65.188064970468133 $307 -55.008414548717376 $302 $451 forward 7 unknown #
edge $-1 $308 79.261919640408422 $450 94.778283028656901 $190 $452 forward 7 unknown #
coedge $-1 $191 $442 $448 $453 forward $306 $-1 #
loop $-1 $-1 $442 $294 #
vertex $-1 $303 $454 #
vertex $-1 $192 $455 #
straight-curve $-1 19.019606531091611 15.149742891922774 13.513747111615437 -1 0 0 I I #
coedge $-1 $310 $310 $-1 $456 reversed $195 $-1 #
edge $-1 $457 0 $457 6.2831853071796004 $196 $458 forward 7 unknown #
vertex $-1 $199 $459 #
ellipse-curve $-1 41.533967518469574 10.264235433669587 8.4239219007400621 0.6560590369687036 0 0.75470957328743171 1.5094191465748634 0 -1.3121180739374072 1 I I #
face $-1 $-1 $215 $30 $-1 $460 reversed single #
loop $-1 $-1 $330 $200 #
plane-surface $-1 0 31.99573334342303 0 0 -1 0 0 0 -1 forward_v I I I I #
coedge $-1 $461 $328 $331 $462 forward $201 $-1 #
coedge $-1 $334 $203 $204 $322 reversed $125 $-1 #
coedge $-1 $328 $461 $203 $320 reversed $201 $-1 #
edge $-1 $335 -13.513747111615437 $463 13.513747111615437 $319 $464 forward 7 unknown #
coedge $-1 $205 $204 $461 $465 forward $81 $-1 #
edge $-1 $326 -47.389141514328443 $463 47.389141514328443 $318 $466 forward 7 unknown #
coedge $-1 $331 $330 $205 $324 reversed $315 $-1 #
edge $-1 $467 -47.389141514328443 $325 47.389141514328443 $323 $468 forward 7 unknown #
vertex $-1 $207 $469 #
vertex $-1 $337 $470 #
straight-curve $-1 47.389141514328443 0 -13.513747111615437 0 -1 0 I I #
coedge $-1 $317 $319 $208 $329 reversed $201 $-1 #
edge $-1 $332 -31.99573334342303 $335 31.99573334342303 $328 $471 forward 7 unknown #
coedge $-1 $323 $209 $214 $338 forward $315 $-1 #
coedge $-1 $209 $323 $317 $462 reversed $315 $-1 #
vertex $-1 $210 $472 #
straight-curve $-1 0 31.99573334342303 13.513747111615437 -1 0 0 I I #
coedge $-1 $211 $318 $213 $337 reversed $125 $-1 #
vertex $-1 $329 $473 #
straight-curve $-1 0 -31.99573334342303 13.513747111615437 1 0 0 I I #
edge $-1 $216 -13.513747111615437 $326 13.513747111615437 $213 $474 forward 7 unknown #
edge $-1 $217 -13.513747111615437 $325 13.513747111615437 $214 $475 forward 7 unknown #
point $-1 47.389141514328443 -31.99573334342303 13.513747111615437 #
point $-1 47.389141514328443 31.99573334342303 13.513747111615437 #
face $-1 $-1 $476 $31 $-1 $477 reversed single #
loop $-1 $-1 $478 $219 #
plane-surface $-1 0 0 -13.513747111615437 0 0 1 1 0 0 forward_v I I I I #
coedge $-1 $351 $361 $346 $479 forward $220 $-1 #
coedge $-1 $225 $222 $478 $480 reversed $133 $-1 #
coedge $-1 $222 $225 $344 $479 reversed $133 $-1 #
coedge $-1 $481 $482 $222 $348 forward $476 $-1 #
edge $-1 $483 -13.513747111615437 $484 13.513747111615437 $347 $485 forward 7 unknown #
coedge $-1 $478 $228 $223 $350 forward $342 $-1 #
edge $-1 $233 -18.329060234463988 $354 -10.462654714961728 $349 $486 forward 7 unknown #
coedge $-1 $230 $344 $224 $352 forward $220 $-1 #
edge $-1 $353 10.462654714961728 $232 18.329060234463988 $351 $487 forward 7 unknown #
vertex $-1 $352 $488 #
vertex $-1 $350 $489 #
straight-curve $-1 -24.858512189674585 -20.091205563904285 0 0 0 -1 I I #
coedge $-1 $482 $481 $227 $357 forward $476 $-1 #
edge $-1 $362 -13.513747111615437 $359 13.513747111615437 $356 $490 forward 7 unknown #
coedge $-1 $228 $478 $482 $491 forward $342 $-1 #
vertex $-1 $229 $492 #
straight-curve $-1 -32.724917709176843 -13.021734726831829 -13.513747111615437 0 1 0 I I #
coedge $-1 $344 $230 $481 $493 forward $220 $-1 #
vertex $-1 $493 $494 #
straight-curve $-1 -32.724917709176843 -13.021734726831829 13.513747111615437 0 -1 0 I I #
point $-1 -32.724917709176843 -20.091205563904285 13.513747111615437 #
point $-1 -32.724917709176843 -20.091205563904285 -13.513747111615437 #
face $-1 $-1 $379 $32 $-1 $495 reversed single #
loop $-1 $-1 $385 $235 #
plane-surface $-1 0 0 13.513747111615437 0 0 1 1 0 0 forward_v I I I I #
coedge $-1 $244 $496 $370 $497 forward $236 $-1 #
coedge $-1 $498 $238 $369 $497 reversed $141 $-1 #
coedge $-1 $238 $498 $385 $499 reversed $141 $-1 #
edge $-1 $386 -13.513747111615437 $383 13.513747111615437 $238 $500 forward 7 unknown #
coedge $-1 $496 $244 $239 $374 forward $236 $-1 #
edge $-1 $249 7.0694708370724566 $380 18.973998616591203 $373 $501 forward 7 unknown #
coedge $-1 $246 $502 $240 $376 forward $367 $-1 #
edge $-1 $381 -18.973998616591203 $248 -7.0694708370724566 $375 $503 forward 7 unknown #
coedge $-1 $504 $241 $502 $505 reversed $379 $-1 #
coedge $-1 $241 $504 $496 $506 reversed $379 $-1 #
loop $-1 $-1 $504 $366 #
vertex $-1 $506 $507 #
vertex $-1 $242 $508 #
straight-curve $-1 -32.724917709176843 31.99573334342303 0 0 0 1 I I #
vertex $-1 $245 $509 #
straight-curve $-1 -14.395857474712857 20.091205563904285 -13.513747111615437 -1 0 0 I I #
coedge $-1 $502 $246 $371 $499 forward $367 $-1 #
vertex $-1 $247 $510 #
straight-curve $-1 -14.395857474712857 20.091205563904285 13.513747111615437 1 0 0 I I #
point $-1 -32.724917709176843 20.091205563904285 13.513747111615437 #
point $-1 -32.724917709176843 20.091205563904285 -13.513747111615437 #
plane-surface $-1 0 0 13.513747111615437 0 0 1 1 0 0 forward_v I I I I #
coedge $-1 $401 $400 $393 $511 forward $252 $-1 #
coedge $-1 $393 $254 $256 $397 reversed $149 $-1 #
coedge $-1 $254 $392 $391 $511 reversed $149 $-1 #
coedge $-1 $262 $257 $254 $395 forward $263 $-1 #
edge $-1 $398 -15.737119518872397 $512 -12.070468735020704 $394 $513 forward 7 unknown #
coedge $-1 $256 $255 $401 $514 reversed $93 $-1 #
edge $-1 $515 2.1388861263899031e-014 $398 5.5889038563853051 $392 $516 forward 7 unknown #
vertex $-1 $258 $517 #
straight-curve $-1 -43.722490730476757 5.2282629059959387 13.513747111615437 0 1 0 I I #
coedge $-1 $391 $259 $262 $405 reversed $252 $-1 #
coedge $-1 $259 $391 $396 $514 forward $252 $-1 #
vertex $-1 $260 $518 #
straight-curve $-1 -47.389141514328443 6.4369035279568934 35.73794760569919 0 0 1 I I #
straight-curve $-1 -47.389141514328458 6.4369035279568934 9.2957477819333931 -0.65605901945558964 0 -0.75470958851134928 I I #
edge $-1 $512 -14.476148096026861 $264 -6.4369035279568934 $400 $519 forward 7 unknown #
point $-1 -47.389141514328443 6.4369035279568934 13.513747111615437 #
point $-1 -43.72249073047675 6.4369035279568934 13.513747111615437 #
edge $-1 $520 1 $520 0 $267 $-1 forward 7 unknown #
vertex $-1 $268 $521 #
ellipse-curve $-1 -44.801106533891236 8.7338305474054501 10.748688427318816 -0.75470958851134928 0 0.65605901945558964 0.32802950972779482 0 0.37735479425567464 1 I I #
point $-1 -45.227786612674791 8.7338305474054501 11.782102241030081 #
edge $-1 $522 1 $522 0 $271 $-1 forward 7 unknown #
vertex $-1 $272 $523 #
ellipse-curve $-1 -44.801106533891236 12.17922107657829 10.748688427318816 -0.75470958851134928 0 0.65605901945558964 0.32802950972779482 0 0.37735479425567464 1 I I #
point $-1 -45.227786612674791 12.17922107657829 11.782102241030081 #
loop $-1 $-1 $283 $275 #
plane-surface $-1 47.389141514328443 0 0 -1 0 0 0 0 1 forward_v I I I I #
coedge $-1 $419 $278 $280 $423 reversed $171 $-1 #
coedge $-1 $278 $418 $524 $525 reversed $171 $-1 #
coedge $-1 $286 $281 $278 $421 forward $276 $-1 #
edge $-1 $424 16.659186991519078 $526 28.369534983236832 $420 $527 forward 7 unknown #
coedge $-1 $280 $279 $427 $528 reversed $107 $-1 #
edge $-1 $529 -94.778283028656901 $424 -79.261919640408422 $418 $530 forward 7 unknown #
vertex $-1 $282 $531 #
straight-curve $-1 35.678793522610675 -4.9134850651173476 13.513747111615444 0 -1 0 I I #
coedge $-1 $524 $283 $286 $431 reversed $416 $-1 #
coedge $-1 $283 $524 $422 $528 forward $416 $-1 #
vertex $-1 $284 $532 #
straight-curve $-1 47.389141514328443 -4.9414626719815082 68.522161660332813 0 0 1 I I #
straight-curve $-1 -24.14093602714464 -4.9414626719815082 65.514245779192549 0.75470957328743171 0 -0.6560590369687036 I I #
edge $-1 $526 -14.712477588487882 $287 -4.9414626719815082 $426 $533 forward 7 unknown #
point $-1 47.389141514328443 -4.9414626719815082 13.513747111615437 #
point $-1 35.67879352261069 -4.9414626719815082 13.513747111615437 #
edge $-1 $534 1 $534 0 $290 $-1 forward 7 unknown #
vertex $-1 $291 $535 #
ellipse-curve $-1 39.308128011044097 -9.8269701302346952 5.8633865065213762 0.6560590369687036 0 0.75470957328743171 1.5094191465748634 0 -1.3121180739374072 1 I I #
point $-1 43.043386665044437 -9.8269701302346952 7.1118038268026575 #
plane-surface $-1 0 0 13.513747111615437 0 0 1 1 0 0 forward_v I I I I #
coedge $-1 $449 $448 $441 $536 forward $295 $-1 #
coedge $-1 $441 $297 $299 $445 reversed $186 $-1 #
coedge $-1 $297 $440 $439 $536 reversed $186 $-1 #
coedge $-1 $305 $300 $297 $443 forward $306 $-1 #
edge $-1 $446 16.659186991519078 $537 28.369534983236832 $442 $538 forward 7 unknown #
coedge $-1 $299 $298 $449 $539 reversed $116 $-1 #
edge $-1 $540 -94.778283028656901 $446 -79.261919640408422 $440 $541 forward 7 unknown #
vertex $-1 $301 $542 #
straight-curve $-1 35.678793522610675 5.1321177168347933 13.513747111615444 0 -1 0 I I #
coedge $-1 $439 $302 $305 $453 reversed $295 $-1 #
coedge $-1 $302 $439 $444 $539 forward $295 $-1 #
vertex $-1 $303 $543 #
straight-curve $-1 47.389141514328443 15.149742891922774 68.522161660332813 0 0 1 I I #
straight-curve $-1 -24.14093602714464 15.149742891922774 65.514245779192549 0.75470957328743171 0 -0.6560590369687036 I I #
edge $-1 $537 5.3787279754163997 $307 15.149742891922774 $448 $544 forward 7 unknown #
point $-1 47.389141514328443 15.149742891922774 13.513747111615437 #
point $-1 35.67879352261069 15.149742891922774 13.513747111615437 #
edge $-1 $545 1 $545 0 $310 $-1 forward 7 unknown #
vertex $-1 $311 $546 #
ellipse-curve $-1 39.308128011044097 10.264235433669587 5.8633865065213762 0.6560590369687036 0 0.75470957328743171 1.5094191465748634 0 -1.3121180739374072 1 I I #
point $-1 43.043386665044437 10.264235433669587 7.1118038268026575 #
plane-surface $-1 47.389141514328443 0 0 -1 0 0 0 0 1 forward_v I I I I #
coedge $-1 $319 $317 $321 $465 reversed $201 $-1 #
edge $-1 $332 -13.513747111615437 $467 13.513747111615437 $331 $547 forward 7 unknown #
vertex $-1 $465 $548 #
straight-curve $-1 -47.389141514328443 -31.99573334342303 0 0 0 -1 I I #
edge $-1 $463 -31.99573334342303 $467 31.99573334342303 $461 $549 forward 7 unknown #
straight-curve $-1 0 -31.99573334342303 -13.513747111615437 -1 0 0 I I #
vertex $-1 $324 $550 #
straight-curve $-1 0 31.99573334342303 -13.513747111615437 1 0 0 I I #
point $-1 47.389141514328443 31.99573334342303 -13.513747111615437 #
point $-1 47.389141514328443 -31.99573334342303 -13.513747111615437 #
straight-curve $-1 -47.389141514328443 0 13.513747111615437 0 -1 0 I I #
point $-1 -47.389141514328443 31.99573334342303 13.513747111615437 #
point $-1 -47.389141514328443 -31.99573334342303 13.513747111615437 #
straight-curve $-1 47.389141514328443 -31.99573334342303 0 0 0 -1 I I #
straight-curve $-1 47.389141514328443 31.99573334342303 0 0 0 -1 I I #
loop $-1 $-1 $347 $341 #
plane-surface $-1 0 -31.99573334342303 0 0 1 0 0 0 1 forward_v I I I I #
coedge $-1 $358 $349 $345 $480 forward $342 $-1 #
edge $-1 $484 -18.973998616591203 $353 -7.0694708370724566 $344 $551 forward 7 unknown #
edge $-1 $354 7.0694708370724566 $483 18.973998616591203 $478 $552 forward 7 unknown #
coedge $-1 $356 $347 $361 $493 reversed $476 $-1 #
coedge $-1 $347 $356 $358 $491 reversed $476 $-1 #
vertex $-1 $491 $553 #
vertex $-1 $348 $554 #
straight-curve $-1 -24.858512189674585 -31.99573334342303 0 0 0 1 I I #
straight-curve $-1 -14.395857474712857 -20.091205563904285 -13.513747111615437 1 0 0 I I #
straight-curve $-1 -14.395857474712857 -20.091205563904285 13.513747111615437 -1 0 0 I I #
point $-1 -24.858512189674585 -20.091205563904285 13.513747111615437 #
point $-1 -24.858512189674585 -20.091205563904285 -13.513747111615437 #
straight-curve $-1 -32.724917709176843 -31.99573334342303 0 0 0 -1 I I #
edge $-1 $483 24.858512189674585 $359 32.724917709176843 $482 $555 forward 7 unknown #
point $-1 -32.724917709176843 -31.99573334342303 -13.513747111615437 #
edge $-1 $362 -32.724917709176843 $484 -24.858512189674585 $481 $556 forward 7 unknown #
point $-1 -32.724917709176843 -31.99573334342303 13.513747111615437 #
plane-surface $-1 0 31.99573334342303 0 0 -1 0 0 0 -1 forward_v I I I I #
coedge $-1 $369 $373 $378 $506 forward $236 $-1 #
edge $-1 $557 -18.973998616591203 $383 -7.0694708370724566 $369 $558 forward 7 unknown #
coedge $-1 $371 $370 $504 $559 reversed $141 $-1 #
edge $-1 $386 7.0694708370724566 $560 18.973998616591203 $385 $561 forward 7 unknown #
straight-curve $-1 -24.858512189674585 20.091205563904285 0 0 0 -1 I I #
straight-curve $-1 -32.724917709176843 13.021734726831829 -13.513747111615437 0 1 0 I I #
coedge $-1 $375 $385 $377 $505 forward $367 $-1 #
straight-curve $-1 -32.724917709176843 13.021734726831829 13.513747111615437 0 -1 0 I I #
coedge $-1 $378 $377 $498 $559 forward $379 $-1 #
edge $-1 $560 24.858512189674585 $381 32.724917709176843 $377 $562 forward 7 unknown #
edge $-1 $380 -32.724917709176843 $557 -24.858512189674585 $378 $563 forward 7 unknown #
point $-1 -32.724917709176843 31.99573334342303 -13.513747111615437 #
point $-1 -32.724917709176843 31.99573334342303 13.513747111615437 #
point $-1 -24.858512189674585 20.091205563904285 -13.513747111615437 #
point $-1 -24.858512189674585 20.091205563904285 13.513747111615437 #
edge $-1 $512 22.224200494083753 $515 26.442199823765783 $391 $564 forward 7 unknown #
vertex $-1 $405 $565 #
straight-curve $-1 -59.459610249349147 14.476148096026861 13.513747111615437 -1 0 0 I I #
edge $-1 $515 -9.2478851900309227 $402 -1.2086406219609547 $401 $566 forward 7 unknown #
vertex $-1 $514 $567 #
straight-curve $-1 -47.389141514328458 14.476148096026861 9.2957477819333931 0.65605901945558964 0 0.75470958851134928 I I #
point $-1 -43.72249073047675 14.476148096026861 13.513747111615437 #
point $-1 -47.389141514328443 6.4369035279568934 9.2957477819334091 #
straight-curve $-1 -47.389141514328443 0 13.513747111615437 0 -1 0 I I #
vertex $-1 $408 $568 #
point $-1 -44.473077024163437 8.7338305474054501 11.126043221574491 #
vertex $-1 $412 $569 #
point $-1 -44.473077024163437 12.17922107657829 11.126043221574491 #
coedge $-1 $427 $426 $419 $525 forward $416 $-1 #
edge $-1 $526 55.008414548717376 $529 65.188064970468133 $524 $570 forward 7 unknown #
vertex $-1 $431 $571 #
straight-curve $-1 19.019606531091611 -14.712477588487882 13.513747111615437 1 0 0 I I #
edge $-1 $529 -9.7989925233705346 $428 -0.02797760686416062 $427 $572 forward 7 unknown #
vertex $-1 $528 $573 #
straight-curve $-1 -24.14093602714464 -14.712477588487882 65.514245779192549 -0.75470957328743171 0 0.6560590369687036 I I #
point $-1 35.67879352261069 -14.712477588487882 13.513747111615437 #
point $-1 47.389141514328436 -4.9414626719815082 3.3340966898646798 #
straight-curve $-1 47.389141514328443 0 13.513747111615437 0 1 0 I I #
vertex $-1 $434 $574 #
point $-1 40.817547157618961 -9.8269701302346952 4.551268432583969 #
edge $-1 $537 55.008414548717376 $540 65.188064970468133 $439 $575 forward 7 unknown #
vertex $-1 $453 $576 #
straight-curve $-1 19.019606531091611 5.3787279754163997 13.513747111615437 1 0 0 I I #
edge $-1 $540 0.24661025858160635 $450 10.01762517508798 $449 $577 forward 7 unknown #
vertex $-1 $539 $578 #
straight-curve $-1 -24.14093602714464 5.3787279754163997 65.514245779192549 -0.75470957328743171 0 0.6560590369687036 I I #
point $-1 35.67879352261069 5.3787279754163997 13.513747111615437 #
point $-1 47.389141514328436 15.149742891922774 3.3340966898646798 #
straight-curve $-1 47.389141514328443 0 13.513747111615437 0 1 0 I I #
vertex $-1 $456 $579 #
point $-1 40.817547157618961 10.264235433669587 4.551268432583969 #
straight-curve $-1 -47.389141514328443 31.99573334342303 0 0 0 -1 I I #
point $-1 -47.389141514328443 -31.99573334342303 -13.513747111615437 #
straight-curve $-1 -47.389141514328443 0 -13.513747111615437 0 1 0 I I #
point $-1 -47.389141514328443 31.99573334342303 -13.513747111615437 #
straight-curve $-1 -24.858512189674585 -13.021734726831829 13.513747111615437 0 1 0 I I #
straight-curve $-1 -24.858512189674585 -13.021734726831829 -13.513747111615437 0 -1 0 I I #
point $-1 -24.858512189674585 -31.99573334342303 -13.513747111615437 #
point $-1 -24.858512189674585 -31.99573334342303 13.513747111615437 #
straight-curve $-1 0 -31.99573334342303 -13.513747111615437 -1 0 0 I I #
straight-curve $-1 0 -31.99573334342303 13.513747111615437 1 0 0 I I #
vertex $-1 $559 $580 #
straight-curve $-1 -24.858512189674585 13.021734726831829 -13.513747111615437 0 -1 0 I I #
edge $-1 $560 -13.513747111615437 $557 13.513747111615437 $504 $581 forward 7 unknown #
vertex $-1 $505 $582 #
straight-curve $-1 -24.858512189674585 13.021734726831829 13.513747111615437 0 1 0 I I #
straight-curve $-1 0 31.99573334342303 13.513747111615437 -1 0 0 I I #
straight-curve $-1 0 31.99573334342303 -13.513747111615437 1 0 0 I I #
straight-curve $-1 -47.389141514328443 14.476148096026861 35.73794760569919 0 0 -1 I I #
point $-1 -47.389141514328443 14.476148096026861 13.513747111615437 #
straight-curve $-1 -47.389141514328443 5.2282629059959387 9.2957477819334091 0 -1 0 I I #
point $-1 -47.389141514328443 14.476148096026861 9.2957477819334091 #
point $-1 -44.423751739635556 8.7338305474054501 10.420658917591021 #
point $-1 -44.423751739635556 12.17922107657829 10.420658917591021 #
straight-curve $-1 47.389141514328443 -14.712477588487882 68.522161660332813 0 0 -1 I I #
point $-1 47.389141514328443 -14.712477588487882 13.513747111615437 #
straight-curve $-1 47.389141514328443 -4.9134850651173476 3.3340966898646798 0 1 0 I I #
point $-1 47.389141514328436 -14.712477588487882 3.3340966898646798 #
point $-1 37.996009937106685 -9.8269701302346952 4.3539673599465125 #
straight-curve $-1 47.389141514328443 5.3787279754163997 68.522161660332813 0 0 -1 I I #
point $-1 47.389141514328443 5.3787279754163997 13.513747111615437 #
straight-curve $-1 47.389141514328443 5.1321177168347933 3.3340966898646798 0 1 0 I I #
point $-1 47.389141514328436 5.3787279754163997 3.3340966898646798 #
point $-1 37.996009937106685 10.264235433669587 4.3539673599465125 #
point $-1 -24.858512189674585 31.99573334342303 -13.513747111615437 #
straight-curve $-1 -24.858512189674585 31.99573334342303 0 0 0 -1 I I #
point $-1 -24.858512189674585 31.99573334342303 13.513747111615437 #
End-of-ACIS-data 