500 0 3 0           
7 Unknown 11 ACIS 5.0 NT 24 Fri Mar 26 16:20:29 1999 
-1 9.9999999999999995e-007 1e-010 
body $-1 $3 $-1 $4 #
body $-1 $5 $-1 $6 #
body $-1 $7 $-1 $8 #
lump $-1 $-1 $9 $0 #
transform $-1 1 0 0 0 1 0 0 0 1 79.355449079866943 39.283696048912191 19.51884295183369 1 rotate no_reflect no_shear #
lump $-1 $-1 $10 $1 #
transform $-1 1 0 0 0 1 0 0 0 1 79.355449079866943 39.283696048912191 19.51884295183369 1 rotate no_reflect no_shear #
lump $-1 $-1 $11 $2 #
transform $-1 1 0 0 0 1 0 0 0 1 79.355449079866943 39.283696048912191 19.51884295183369 1 rotate no_reflect no_shear #
shell $-1 $-1 $-1 $12 $-1 $3 #
shell $-1 $-1 $-1 $13 $-1 $5 #
shell $-1 $-1 $-1 $14 $-1 $7 #
face $-1 $15 $16 $9 $-1 $17 forward single #
face $-1 $18 $19 $10 $-1 $20 reversed single #
face $-1 $21 $22 $11 $-1 $23 reversed single #
face $-1 $24 $25 $9 $-1 $26 reversed single #
loop $-1 $-1 $27 $12 #
plane-surface $-1 0 0 19.51884295183369 0 0 1 1 0 0 forward_v I I I I #
face $-1 $28 $29 $10 $-1 $30 forward single #
loop $-1 $-1 $31 $13 #
plane-surface $-1 0 -28.683708024306021 -8.6526964684333478 0 0 1 1 0 0 forward_v I I I I #
face $-1 $32 $33 $11 $-1 $34 forward single #
loop $-1 $-1 $35 $14 #
plane-surface $-1 0 28.683708024306014 -8.6526964684333478 0 0 1 1 0 0 forward_v I I I I #
face $-1 $36 $37 $9 $-1 $38 reversed single #
loop $-1 $-1 $39 $15 #
plane-surface $-1 0 0 -19.51884295183369 0 0 1 1 0 0 forward_v I I I I #
coedge $-1 $40 $41 $42 $43 forward $16 $-1 #
face $-1 $44 $45 $10 $-1 $46 reversed single #
loop $-1 $-1 $47 $18 #
plane-surface $-1 0 -18.083719999699852 -14.085769710133519 0 -1 0 0 0 -1 forward_v I I I I #
coedge $-1 $48 $49 $50 $51 reversed $19 $-1 #
face $-1 $52 $53 $11 $-1 $54 reversed single #
loop $-1 $-1 $55 $21 #
plane-surface $-1 0 18.083719999699845 -14.085769710133519 0 1 0 0 0 1 forward_v I I I I #
coedge $-1 $56 $57 $58 $59 reversed $22 $-1 #
face $-1 $60 $61 $9 $-1 $62 reversed single #
loop $-1 $-1 $63 $24 #
plane-surface $-1 0 -39.283696048912191 0 0 1 0 0 0 1 forward_v I I I I #
coedge $-1 $64 $65 $66 $67 forward $25 $-1 #
coedge $-1 $68 $27 $69 $70 forward $16 $-1 #
coedge $-1 $27 $68 $71 $72 forward $16 $-1 #
coedge $-1 $73 $74 $27 $43 reversed $75 $-1 #
edge $-1 $76 -39.283696048912191 $77 39.283696048912191 $42 $78 forward 7 unknown #
face $-1 $79 $80 $10 $-1 $81 reversed single #
loop $-1 $-1 $82 $28 #
plane-surface $-1 0 -39.283696048912191 0 0 1 0 0 0 1 forward_v I I I I #
coedge $-1 $83 $84 $85 $86 reversed $29 $-1 #
coedge $-1 $87 $31 $82 $88 reversed $19 $-1 #
coedge $-1 $31 $87 $83 $89 reversed $19 $-1 #
coedge $-1 $85 $90 $31 $51 forward $91 $-1 #
edge $-1 $92 -24.94184203675918 $93 -3.7418659875468414 $50 $94 forward 7 unknown #
face $-1 $95 $96 $11 $-1 $97 reversed single #
loop $-1 $-1 $98 $32 #
plane-surface $-1 0 39.283696048912191 0 0 -1 0 0 0 -1 forward_v I I I I #
coedge $-1 $99 $100 $101 $102 reversed $33 $-1 #
coedge $-1 $103 $35 $99 $104 reversed $22 $-1 #
coedge $-1 $35 $103 $98 $105 reversed $22 $-1 #
coedge $-1 $106 $107 $35 $59 forward $108 $-1 #
edge $-1 $109 3.7418659875468379 $110 24.941842036759176 $58 $111 forward 7 unknown #
face $-1 $112 $113 $9 $-1 $114 reversed single #
loop $-1 $-1 $115 $36 #
plane-surface $-1 -79.355449079866943 0 0 1 0 0 0 0 -1 forward_v I I I I #
coedge $-1 $116 $71 $117 $118 forward $37 $-1 #
coedge $-1 $119 $39 $116 $120 forward $25 $-1 #
coedge $-1 $39 $119 $121 $122 forward $25 $-1 #
coedge $-1 $74 $73 $39 $67 reversed $75 $-1 #
edge $-1 $123 -39.283696048912191 $124 39.283696048912191 $66 $125 forward 7 unknown #
coedge $-1 $41 $40 $126 $127 forward $16 $-1 #
coedge $-1 $128 $129 $40 $70 reversed $113 $-1 #
edge $-1 $77 -79.355449079866943 $130 79.355449079866943 $69 $131 forward 7 unknown #
coedge $-1 $63 $132 $41 $72 reversed $37 $-1 #
edge $-1 $133 -79.355449079866943 $76 79.355449079866943 $71 $134 forward 7 unknown #
coedge $-1 $66 $42 $132 $135 forward $75 $-1 #
coedge $-1 $42 $66 $128 $136 reversed $75 $-1 #
loop $-1 $-1 $73 $112 #
vertex $-1 $43 $137 #
vertex $-1 $43 $138 #
straight-curve $-1 79.355449079866943 0 19.51884295183369 0 1 0 I I #
face $-1 $139 $140 $10 $-1 $141 forward single #
loop $-1 $-1 $142 $44 #
plane-surface $-1 0 0 -19.51884295183369 0 0 1 1 0 0 forward_v I I I I #
coedge $-1 $143 $144 $48 $88 forward $45 $-1 #
coedge $-1 $145 $47 $49 $89 forward $29 $-1 #
coedge $-1 $47 $145 $142 $146 reversed $29 $-1 #
coedge $-1 $147 $50 $47 $86 forward $91 $-1 #
edge $-1 $93 1.6098116133665883 $148 12.475958096766931 $85 $149 forward 7 unknown #
coedge $-1 $49 $48 $150 $151 reversed $19 $-1 #
edge $-1 $152 -79.355449079866943 $92 79.355449079866943 $82 $153 forward 7 unknown #
edge $-1 $93 -79.355449079866943 $154 79.355449079866943 $83 $155 forward 7 unknown #
coedge $-1 $50 $156 $143 $157 forward $91 $-1 #
loop $-1 $-1 $85 $158 #
vertex $-1 $88 $159 #
vertex $-1 $51 $160 #
straight-curve $-1 79.355449079866943 -14.341854012153011 -8.6526964684333478 0 1 0 I I #
face $-1 $161 $162 $11 $-1 $163 reversed single #
loop $-1 $-1 $164 $52 #
plane-surface $-1 -79.355449079866943 0 0 1 0 0 0 0 -1 forward_v I I I I #
coedge $-1 $165 $166 $57 $105 forward $53 $-1 #
coedge $-1 $167 $55 $56 $104 forward $33 $-1 #
coedge $-1 $55 $167 $168 $169 reversed $33 $-1 #
coedge $-1 $170 $164 $55 $102 forward $96 $-1 #
edge $-1 $171 1.6098116133665883 $172 12.475958096766931 $101 $173 forward 7 unknown #
coedge $-1 $57 $56 $164 $174 reversed $22 $-1 #
edge $-1 $171 -79.355449079866943 $109 79.355449079866943 $99 $175 forward 7 unknown #
edge $-1 $110 -79.355449079866943 $176 79.355449079866943 $98 $177 forward 7 unknown #
coedge $-1 $178 $58 $166 $179 reversed $108 $-1 #
coedge $-1 $58 $180 $167 $181 forward $108 $-1 #
loop $-1 $-1 $58 $182 #
vertex $-1 $59 $183 #
vertex $-1 $105 $184 #
straight-curve $-1 79.355449079866943 14.341854012153007 -8.6526964684333478 0 1 0 I I #
face $-1 $-1 $75 $9 $-1 $185 reversed single #
loop $-1 $-1 $128 $60 #
plane-surface $-1 0 39.283696048912191 0 0 -1 0 0 0 -1 forward_v I I I I #
coedge $-1 $186 $126 $129 $187 forward $61 $-1 #
coedge $-1 $132 $63 $64 $120 reversed $37 $-1 #
coedge $-1 $126 $186 $63 $118 reversed $61 $-1 #
edge $-1 $133 -19.51884295183369 $188 19.51884295183369 $117 $189 forward 7 unknown #
coedge $-1 $65 $64 $186 $190 forward $25 $-1 #
edge $-1 $124 -79.355449079866943 $188 79.355449079866943 $116 $191 forward 7 unknown #
coedge $-1 $129 $128 $65 $122 reversed $113 $-1 #
edge $-1 $192 -79.355449079866943 $123 79.355449079866943 $121 $193 forward 7 unknown #
vertex $-1 $67 $194 #
vertex $-1 $135 $195 #
straight-curve $-1 79.355449079866943 0 -19.51884295183369 0 -1 0 I I #
coedge $-1 $115 $117 $68 $127 reversed $61 $-1 #
edge $-1 $130 -39.283696048912191 $133 39.283696048912191 $126 $196 forward 7 unknown #
coedge $-1 $121 $69 $74 $136 forward $113 $-1 #
coedge $-1 $69 $121 $115 $187 reversed $113 $-1 #
vertex $-1 $70 $197 #
straight-curve $-1 0 39.283696048912191 19.51884295183369 -1 0 0 I I #
coedge $-1 $71 $116 $73 $135 reversed $37 $-1 #
vertex $-1 $127 $198 #
straight-curve $-1 0 -39.283696048912191 19.51884295183369 1 0 0 I I #
edge $-1 $76 -19.51884295183369 $124 19.51884295183369 $73 $199 forward 7 unknown #
edge $-1 $77 -19.51884295183369 $123 19.51884295183369 $74 $200 forward 7 unknown #
point $-1 79.355449079866943 -39.283696048912191 19.51884295183369 #
point $-1 79.355449079866943 39.283696048912191 19.51884295183369 #
face $-1 $201 $202 $10 $-1 $203 reversed single #
loop $-1 $-1 $204 $79 #
plane-surface $-1 0 0 19.51884295183369 0 0 1 1 0 0 forward_v I I I I #
coedge $-1 $205 $206 $84 $146 forward $80 $-1 #
coedge $-1 $207 $82 $90 $157 reversed $45 $-1 #
coedge $-1 $82 $207 $208 $209 forward $45 $-1 #
coedge $-1 $84 $83 $210 $211 reversed $29 $-1 #
edge $-1 $148 -79.355449079866943 $212 79.355449079866943 $142 $213 forward 7 unknown #
coedge $-1 $214 $85 $206 $215 reversed $91 $-1 #
vertex $-1 $146 $216 #
straight-curve $-1 79.355449079866943 -18.083719999699852 -7.0428848550667595 0 0 -1 I I #
coedge $-1 $208 $210 $87 $151 forward $202 $-1 #
edge $-1 $154 3.7418659875468414 $152 24.94184203675918 $150 $217 forward 7 unknown #
vertex $-1 $88 $218 #
straight-curve $-1 0 -39.283696048912191 -8.6526964684333478 1 0 0 I I #
vertex $-1 $151 $219 #
straight-curve $-1 0 -18.083719999699852 -8.6526964684333478 -1 0 0 I I #
coedge $-1 $90 $214 $204 $220 reversed $91 $-1 #
edge $-1 $221 -19.51884295183369 $92 8.6526964684333478 $90 $222 forward 7 unknown #
face $-1 $-1 $91 $10 $-1 $223 reversed single #
point $-1 79.355449079866943 -39.283696048912191 -8.6526964684333478 #
point $-1 79.355449079866943 -18.083719999699852 -8.6526964684333478 #
face $-1 $224 $225 $11 $-1 $226 forward single #
loop $-1 $-1 $227 $95 #
plane-surface $-1 0 -28.683708024306021 -8.6526964684333478 0 0 1 1 0 0 forward_v I I I I #
coedge $-1 $101 $228 $103 $174 forward $96 $-1 #
coedge $-1 $229 $98 $228 $230 reversed $53 $-1 #
coedge $-1 $98 $229 $106 $179 forward $53 $-1 #
coedge $-1 $100 $99 $107 $181 reversed $33 $-1 #
coedge $-1 $231 $232 $100 $169 forward $233 $-1 #
edge $-1 $172 -79.355449079866943 $234 79.355449079866943 $168 $235 forward 7 unknown #
coedge $-1 $236 $101 $232 $237 reversed $96 $-1 #
vertex $-1 $174 $238 #
vertex $-1 $102 $239 #
straight-curve $-1 -79.355449079866943 18.083719999699845 -7.0428848550667595 0 0 -1 I I #
edge $-1 $176 -24.941842036759176 $171 -3.7418659875468379 $164 $240 forward 7 unknown #
straight-curve $-1 0 18.083719999699845 -8.6526964684333478 1 0 0 I I #
vertex $-1 $174 $241 #
straight-curve $-1 0 39.283696048912191 -8.6526964684333478 -1 0 0 I I #
coedge $-1 $242 $106 $243 $244 reversed $108 $-1 #
edge $-1 $245 -19.51884295183369 $110 8.6526964684333478 $106 $246 forward 7 unknown #
coedge $-1 $107 $247 $231 $248 reversed $108 $-1 #
edge $-1 $234 -12.475958096766931 $109 -1.6098116133665883 $107 $249 forward 7 unknown #
face $-1 $-1 $108 $11 $-1 $250 reversed single #
point $-1 79.355449079866943 18.083719999699845 -8.6526964684333478 #
point $-1 79.355449079866943 39.283696048912184 -8.6526964684333478 #
plane-surface $-1 79.355449079866943 0 0 -1 0 0 0 0 1 forward_v I I I I #
coedge $-1 $117 $115 $119 $190 reversed $61 $-1 #
edge $-1 $130 -19.51884295183369 $192 19.51884295183369 $129 $251 forward 7 unknown #
vertex $-1 $190 $252 #
straight-curve $-1 -79.355449079866943 -39.283696048912191 0 0 0 -1 I I #
edge $-1 $188 -39.283696048912191 $192 39.283696048912191 $186 $253 forward 7 unknown #
straight-curve $-1 0 -39.283696048912191 -19.51884295183369 -1 0 0 I I #
vertex $-1 $122 $254 #
straight-curve $-1 0 39.283696048912191 -19.51884295183369 1 0 0 I I #
point $-1 79.355449079866943 39.283696048912191 -19.51884295183369 #
point $-1 79.355449079866943 -39.283696048912191 -19.51884295183369 #
straight-curve $-1 -79.355449079866943 0 19.51884295183369 0 -1 0 I I #
point $-1 -79.355449079866943 39.283696048912191 19.51884295183369 #
point $-1 -79.355449079866943 -39.283696048912191 19.51884295183369 #
straight-curve $-1 79.355449079866943 -39.283696048912191 0 0 0 -1 I I #
straight-curve $-1 79.355449079866943 39.283696048912191 0 0 0 -1 I I #
face $-1 $158 $255 $10 $-1 $256 reversed single #
loop $-1 $-1 $150 $139 #
plane-surface $-1 -79.355449079866943 0 0 1 0 0 0 0 -1 forward_v I I I I #
coedge $-1 $257 $258 $156 $220 forward $140 $-1 #
coedge $-1 $259 $142 $260 $261 forward $80 $-1 #
coedge $-1 $142 $259 $147 $215 forward $80 $-1 #
coedge $-1 $144 $143 $258 $262 reversed $45 $-1 #
coedge $-1 $263 $150 $144 $209 reversed $202 $-1 #
edge $-1 $264 -19.51884295183369 $152 8.6526964684333478 $208 $265 forward 7 unknown #
coedge $-1 $150 $260 $145 $211 forward $202 $-1 #
edge $-1 $212 -12.475958096766931 $154 -1.6098116133665883 $210 $266 forward 7 unknown #
vertex $-1 $261 $267 #
straight-curve $-1 0 -18.083719999699852 -19.51884295183369 -1 0 0 I I #
coedge $-1 $156 $147 $268 $269 reversed $91 $-1 #
edge $-1 $270 -39.283696048912191 $148 18.083719999699852 $147 $271 forward 7 unknown #
point $-1 79.355449079866943 -18.083719999699852 -19.51884295183369 #
straight-curve $-1 -79.355449079866943 -14.341854012153011 -8.6526964684333478 0 -1 0 I I #
point $-1 -79.355449079866943 -39.283696048912191 -8.6526964684333478 #
point $-1 -79.355449079866943 -18.083719999699852 -8.6526964684333478 #
edge $-1 $221 -39.283696048912191 $272 39.283696048912191 $156 $273 forward 7 unknown #
vertex $-1 $220 $274 #
straight-curve $-1 79.355449079866943 -39.283696048912191 0 0 0 -1 I I #
plane-surface $-1 79.355449079866943 0 0 -1 0 0 0 0 1 forward_v I I I I #
face $-1 $275 $276 $11 $-1 $277 reversed single #
loop $-1 $-1 $278 $161 #
plane-surface $-1 0 -18.083719999699852 -14.085769710133519 0 -1 0 0 0 -1 forward_v I I I I #
coedge $-1 $279 $280 $281 $282 reversed $162 $-1 #
coedge $-1 $164 $283 $165 $230 forward $96 $-1 #
coedge $-1 $166 $165 $284 $285 reversed $53 $-1 #
edge $-1 $286 -19.51884295183369 $176 8.6526964684333478 $165 $287 forward 7 unknown #
coedge $-1 $288 $168 $180 $248 forward $233 $-1 #
coedge $-1 $168 $288 $170 $237 forward $233 $-1 #
loop $-1 $-1 $168 $275 #
vertex $-1 $248 $289 #
straight-curve $-1 0 18.083719999699845 -19.51884295183369 1 0 0 I I #
coedge $-1 $290 $170 $291 $292 forward $96 $-1 #
edge $-1 $293 -18.083719999699852 $172 18.083719999699845 $170 $294 forward 7 unknown #
point $-1 -79.355449079866943 18.083719999699845 -8.6526964684333478 #
point $-1 -79.355449079866943 18.083719999699845 -19.51884295183369 #
straight-curve $-1 -79.355449079866943 14.341854012153007 -8.6526964684333478 0 -1 0 I I #
point $-1 -79.355449079866943 39.283696048912184 -8.6526964684333478 #
coedge $-1 $281 $178 $295 $296 forward $108 $-1 #
coedge $-1 $284 $297 $178 $244 forward $298 $-1 #
edge $-1 $299 -39.283696048912191 $245 39.283696048912191 $178 $300 forward 7 unknown #
vertex $-1 $244 $301 #
straight-curve $-1 79.355449079866943 39.283696048912191 0 0 0 -1 I I #
coedge $-1 $180 $281 $278 $302 forward $108 $-1 #
edge $-1 $234 -18.083719999699845 $303 18.083719999699852 $180 $304 forward 7 unknown #
straight-curve $-1 79.355449079866943 18.083719999699845 -7.0428848550667595 0 0 1 I I #
plane-surface $-1 79.355449079866943 0 0 -1 0 0 0 0 1 forward_v I I I I #
straight-curve $-1 -79.355449079866943 39.283696048912191 0 0 0 -1 I I #
point $-1 -79.355449079866943 -39.283696048912191 -19.51884295183369 #
straight-curve $-1 -79.355449079866943 0 -19.51884295183369 0 1 0 I I #
point $-1 -79.355449079866943 39.283696048912191 -19.51884295183369 #
loop $-1 $-1 $268 $201 #
plane-surface $-1 0 39.283696048912191 0 0 -1 0 0 0 -1 forward_v I I I I #
coedge $-1 $305 $204 $306 $307 forward $140 $-1 #
coedge $-1 $204 $305 $207 $262 forward $140 $-1 #
coedge $-1 $206 $205 $308 $309 forward $80 $-1 #
coedge $-1 $210 $310 $205 $261 reversed $202 $-1 #
edge $-1 $212 -18.083719999699852 $311 39.283696048912191 $260 $312 forward 7 unknown #
edge $-1 $264 -79.355449079866943 $221 79.355449079866943 $207 $313 forward 7 unknown #
coedge $-1 $310 $208 $305 $314 reversed $202 $-1 #
vertex $-1 $314 $315 #
straight-curve $-1 -79.355449079866943 -39.283696048912191 0 0 0 -1 I I #
straight-curve $-1 -79.355449079866943 -18.083719999699852 -7.0428848550667595 0 0 1 I I #
point $-1 -79.355449079866943 -18.083719999699852 -19.51884295183369 #
coedge $-1 $308 $306 $214 $269 forward $255 $-1 #
edge $-1 $272 -19.51884295183369 $270 19.51884295183369 $214 $316 forward 7 unknown #
vertex $-1 $215 $317 #
straight-curve $-1 79.355449079866943 0 -19.51884295183369 0 -1 0 I I #
vertex $-1 $220 $318 #
straight-curve $-1 79.355449079866943 0 19.51884295183369 0 1 0 I I #
point $-1 79.355449079866943 -39.283696048912191 19.51884295183369 #
face $-1 $319 $233 $11 $-1 $320 reversed single #
loop $-1 $-1 $321 $224 #
plane-surface $-1 0 -39.283696048912191 0 0 1 0 0 0 1 forward_v I I I I #
coedge $-1 $322 $323 $247 $302 reversed $225 $-1 #
coedge $-1 $324 $227 $321 $325 reversed $162 $-1 #
coedge $-1 $227 $324 $322 $326 reversed $162 $-1 #
coedge $-1 $247 $242 $227 $282 forward $108 $-1 #
edge $-1 $327 -24.94184203675918 $328 -3.7418659875468414 $281 $329 forward 7 unknown #
coedge $-1 $228 $330 $331 $332 reversed $96 $-1 #
coedge $-1 $331 $243 $229 $285 forward $298 $-1 #
edge $-1 $245 -79.355449079866943 $286 79.355449079866943 $229 $333 forward 7 unknown #
vertex $-1 $285 $334 #
straight-curve $-1 -79.355449079866943 39.283696048912191 0 0 0 -1 I I #
coedge $-1 $232 $231 $323 $335 forward $233 $-1 #
point $-1 79.355449079866943 18.083719999699845 -19.51884295183369 #
coedge $-1 $330 $236 $324 $336 forward $96 $-1 #
coedge $-1 $323 $322 $236 $292 reversed $225 $-1 #
edge $-1 $293 -12.475958096766931 $337 -1.6098116133665883 $236 $338 forward 7 unknown #
vertex $-1 $237 $339 #
straight-curve $-1 -79.355449079866943 0 -19.51884295183369 0 1 0 I I #
coedge $-1 $340 $321 $242 $296 reversed $276 $-1 #
edge $-1 $299 -19.51884295183369 $327 8.6526964684333478 $242 $341 forward 7 unknown #
coedge $-1 $243 $331 $340 $342 forward $298 $-1 #
loop $-1 $-1 $243 $319 #
vertex $-1 $244 $343 #
straight-curve $-1 79.355449079866943 0 19.51884295183369 0 1 0 I I #
point $-1 79.355449079866943 39.283696048912191 19.51884295183369 #
edge $-1 $328 1.6098116133665883 $303 12.475958096766931 $247 $344 forward 7 unknown #
vertex $-1 $335 $345 #
straight-curve $-1 79.355449079866943 0 -19.51884295183369 0 -1 0 I I #
coedge $-1 $258 $257 $263 $314 forward $140 $-1 #
coedge $-1 $268 $346 $257 $307 reversed $255 $-1 #
edge $-1 $272 -79.355449079866943 $347 79.355449079866943 $306 $348 forward 7 unknown #
coedge $-1 $346 $268 $259 $309 reversed $255 $-1 #
edge $-1 $311 -79.355449079866943 $270 79.355449079866943 $308 $349 forward 7 unknown #
coedge $-1 $260 $263 $346 $350 forward $202 $-1 #
vertex $-1 $309 $351 #
straight-curve $-1 -79.355449079866943 0 -19.51884295183369 0 1 0 I I #
straight-curve $-1 0 -39.283696048912191 19.51884295183369 1 0 0 I I #
edge $-1 $347 -39.283696048912191 $264 39.283696048912191 $263 $352 forward 7 unknown #
point $-1 -79.355449079866943 -39.283696048912191 19.51884295183369 #
straight-curve $-1 79.355449079866943 39.283696048912191 0 0 0 -1 I I #
point $-1 79.355449079866943 39.283696048912191 -19.51884295183369 #
point $-1 79.355449079866943 39.283696048912191 19.51884295183369 #
face $-1 $182 $298 $11 $-1 $353 forward single #
plane-surface $-1 0 0 -19.51884295183369 0 0 1 1 0 0 forward_v I I I I #
coedge $-1 $295 $354 $279 $325 forward $276 $-1 #
coedge $-1 $291 $278 $280 $326 forward $225 $-1 #
coedge $-1 $278 $291 $288 $335 reversed $225 $-1 #
coedge $-1 $280 $279 $290 $336 reversed $162 $-1 #
edge $-1 $355 -79.355449079866943 $327 79.355449079866943 $321 $356 forward 7 unknown #
edge $-1 $328 -79.355449079866943 $337 79.355449079866943 $322 $357 forward 7 unknown #
vertex $-1 $325 $358 #
vertex $-1 $282 $359 #
straight-curve $-1 79.355449079866943 -14.341854012153011 -8.6526964684333478 0 1 0 I I #
coedge $-1 $283 $290 $354 $360 reversed $96 $-1 #
coedge $-1 $297 $284 $283 $332 forward $298 $-1 #
edge $-1 $286 -39.283696048912191 $361 39.283696048912191 $283 $362 forward 7 unknown #
straight-curve $-1 0 39.283696048912191 19.51884295183369 -1 0 0 I I #
point $-1 -79.355449079866943 39.283696048912191 19.51884295183369 #
edge $-1 $303 -79.355449079866943 $293 79.355449079866943 $288 $363 forward 7 unknown #
edge $-1 $337 3.7418659875468414 $355 24.94184203675918 $290 $364 forward 7 unknown #
vertex $-1 $336 $365 #
straight-curve $-1 -79.355449079866943 -18.083719999699852 -7.0428848550667595 0 0 1 I I #
point $-1 -79.355449079866943 -18.083719999699852 -19.51884295183369 #
coedge $-1 $354 $295 $297 $342 reversed $276 $-1 #
straight-curve $-1 79.355449079866943 -39.283696048912191 0 0 0 -1 I I #
edge $-1 $361 -79.355449079866943 $299 79.355449079866943 $340 $366 forward 7 unknown #
point $-1 79.355449079866943 -39.283696048912191 19.51884295183369 #
straight-curve $-1 79.355449079866943 -18.083719999699852 -7.0428848550667595 0 0 -1 I I #
point $-1 79.355449079866943 -18.083719999699852 -19.51884295183369 #
coedge $-1 $306 $308 $310 $350 reversed $255 $-1 #
vertex $-1 $307 $367 #
straight-curve $-1 0 39.283696048912191 19.51884295183369 -1 0 0 I I #
straight-curve $-1 0 39.283696048912191 -19.51884295183369 1 0 0 I I #
edge $-1 $347 -19.51884295183369 $311 19.51884295183369 $346 $368 forward 7 unknown #
point $-1 -79.355449079866943 39.283696048912191 -19.51884295183369 #
straight-curve $-1 -79.355449079866943 0 19.51884295183369 0 -1 0 I I #
plane-surface $-1 0 0 19.51884295183369 0 0 1 1 0 0 forward_v I I I I #
coedge $-1 $321 $340 $330 $360 forward $276 $-1 #
vertex $-1 $325 $369 #
straight-curve $-1 0 -39.283696048912191 -8.6526964684333478 1 0 0 I I #
straight-curve $-1 0 -18.083719999699852 -8.6526964684333478 -1 0 0 I I #
point $-1 79.355449079866943 -39.283696048912191 -8.6526964684333478 #
point $-1 79.355449079866943 -18.083719999699852 -8.6526964684333478 #
edge $-1 $361 -19.51884295183369 $355 8.6526964684333478 $330 $370 forward 7 unknown #
vertex $-1 $332 $371 #
straight-curve $-1 -79.355449079866943 0 19.51884295183369 0 -1 0 I I #
straight-curve $-1 0 -18.083719999699852 -19.51884295183369 -1 0 0 I I #
straight-curve $-1 -79.355449079866943 -14.341854012153011 -8.6526964684333478 0 -1 0 I I #
point $-1 -79.355449079866943 -18.083719999699852 -8.6526964684333478 #
straight-curve $-1 0 -39.283696048912191 19.51884295183369 1 0 0 I I #
point $-1 -79.355449079866943 39.283696048912191 19.51884295183369 #
straight-curve $-1 -79.355449079866943 39.283696048912191 0 0 0 -1 I I #
point $-1 -79.355449079866943 -39.283696048912191 -8.6526964684333478 #
straight-curve $-1 -79.355449079866943 -39.283696048912191 0 0 0 -1 I I #
point $-1 -79.355449079866943 -39.283696048912191 19.51884295183369 #
End-of-ACIS-data 