500 0 12 0           
7 Unknown 11 ACIS 5.0 NT 24 Fri Mar 26 01:16:40 1999 
-1 9.9999999999999995e-007 1e-010 
body $-1 $12 $-1 $13 #
body $-1 $14 $-1 $15 #
body $-1 $16 $-1 $17 #
body $-1 $18 $-1 $19 #
body $-1 $20 $-1 $21 #
body $-1 $22 $-1 $23 #
body $-1 $24 $-1 $25 #
body $-1 $26 $-1 $27 #
body $-1 $28 $-1 $29 #
body $-1 $30 $-1 $31 #
body $-1 $32 $-1 $33 #
body $-1 $34 $-1 $35 #
lump $-1 $-1 $36 $0 #
transform $-1 1 0 0 0 1 0 0 0 1 51.352885525070953 29.577707386625541 8.0275127280495511 1 rotate no_reflect no_shear #
lump $-1 $-1 $37 $1 #
transform $-1 1 0 0 0 1 0 0 0 1 51.352885525070953 29.577707386625541 8.0275127280495511 1 rotate no_reflect no_shear #
lump $-1 $-1 $38 $2 #
transform $-1 1 0 0 0 1 0 0 0 1 51.352885525070953 29.577707386625541 8.0275127280495511 1 rotate no_reflect no_shear #
lump $-1 $-1 $39 $3 #
transform $-1 1 0 0 0 1 0 0 0 1 51.352885525070953 29.577707386625541 8.0275127280495511 1 rotate no_reflect no_shear #
lump $-1 $-1 $40 $4 #
transform $-1 1 0 0 0 1 0 0 0 1 51.352885525070953 29.577707386625541 8.0275127280495511 1 rotate no_reflect no_shear #
lump $-1 $-1 $41 $5 #
transform $-1 1 0 0 0 1 0 0 0 1 51.352885525070953 29.577707386625541 8.0275127280495511 1 rotate no_reflect no_shear #
lump $-1 $-1 $42 $6 #
transform $-1 1 0 0 0 1 0 0 0 1 51.352885525070953 29.577707386625541 8.0275127280495511 1 rotate no_reflect no_shear #
lump $-1 $-1 $43 $7 #
transform $-1 1 0 0 0 1 0 0 0 1 51.352885525070953 29.577707386625541 8.0275127280495511 1 rotate no_reflect no_shear #
lump $-1 $-1 $44 $8 #
transform $-1 1 0 0 0 1 0 0 0 1 51.352885525070953 29.577707386625541 8.0275127280495511 1 rotate no_reflect no_shear #
lump $-1 $-1 $45 $9 #
transform $-1 1 0 0 0 1 0 0 0 1 51.352885525070953 29.577707386625541 8.0275127280495511 1 rotate no_reflect no_shear #
lump $-1 $-1 $46 $10 #
transform $-1 1 0 0 0 1 0 0 0 1 51.352885525070953 29.577707386625541 8.0275127280495511 1 rotate no_reflect no_shear #
lump $-1 $-1 $47 $11 #
transform $-1 1 0 0 0 1 0 0 0 1 51.352885525070953 29.577707386625541 8.0275127280495511 1 rotate no_reflect no_shear #
shell $-1 $-1 $-1 $48 $-1 $12 #
shell $-1 $-1 $-1 $49 $-1 $14 #
shell $-1 $-1 $-1 $50 $-1 $16 #
shell $-1 $-1 $-1 $51 $-1 $18 #
shell $-1 $-1 $-1 $52 $-1 $20 #
shell $-1 $-1 $-1 $53 $-1 $22 #
shell $-1 $-1 $-1 $54 $-1 $24 #
shell $-1 $-1 $-1 $55 $-1 $26 #
shell $-1 $-1 $-1 $56 $-1 $28 #
shell $-1 $-1 $-1 $57 $-1 $30 #
shell $-1 $-1 $-1 $58 $-1 $32 #
shell $-1 $-1 $-1 $59 $-1 $34 #
face $-1 $60 $61 $36 $-1 $62 forward single #
face $-1 $63 $64 $37 $-1 $65 forward single #
face $-1 $66 $67 $38 $-1 $68 reversed single #
face $-1 $69 $70 $39 $-1 $71 reversed single #
face $-1 $72 $73 $40 $-1 $74 forward single #
face $-1 $75 $76 $41 $-1 $77 forward single #
face $-1 $78 $79 $42 $-1 $80 reversed single #
face $-1 $81 $82 $43 $-1 $83 forward single #
face $-1 $84 $85 $44 $-1 $86 forward single #
face $-1 $87 $88 $45 $-1 $89 reversed single #
face $-1 $90 $91 $46 $-1 $92 forward single #
face $-1 $93 $94 $47 $-1 $95 forward single #
face $-1 $96 $97 $36 $-1 $98 reversed single #
loop $-1 $-1 $99 $48 #
plane-surface $-1 0 0 8.0275127280495511 0 0 1 1 0 0 forward_v I I I I #
face $-1 $100 $101 $37 $-1 $102 reversed single #
loop $-1 $-1 $103 $49 #
plane-surface $-1 -48.08299028493397 0 -2.1325936031978383 0 0 1 1 0 0 forward_v I I I I #
face $-1 $104 $105 $38 $-1 $106 reversed single #
loop $-1 $-1 $107 $50 #
plane-surface $-1 46.722272122773425 -19.890923918070669 0 0 1 0 0 0 1 forward_v I I I I #
face $-1 $108 $109 $39 $-1 $110 reversed single #
loop $-1 $-1 $111 $51 #
plane-surface $-1 15.464548432152334 -107.090737593619 70.562770871810869 -1 0 0 0 -0.75470958851134928 0.65605901945558964 forward_v I I I I #
face $-1 $112 $113 $40 $-1 $114 forward single #
loop $-1 $115 $116 $52 #
cone-surface $-1 3.7143394843628528 -25.221225328295784 3.6484692002690395 0 0.75470958851134928 -0.65605901945558964 1.5 0 0 1 I I 0 1 1.5 forward I I I I #
face $-1 $117 $118 $41 $-1 $119 forward single #
loop $-1 $120 $121 $53 #
cone-surface $-1 10.764464853036543 -25.221225328295784 3.6484692002690395 0 0.75470958851134928 -0.65605901945558964 1.5 0 0 1 I I 0 1 1.5 forward I I I I #
face $-1 $122 $123 $42 $-1 $124 reversed single #
loop $-1 $-1 $125 $54 #
plane-surface $-1 -44.813095044796995 56.359344526613093 115.67632198347226 1 0 0 0 -0.68199836817093118 -0.7313536940579346 forward_v I I I I #
face $-1 $126 $127 $43 $-1 $128 forward single #
loop $-1 $129 $130 $55 #
cone-surface $-1 -39.548698327210019 23.803597276272725 2.4211385841632715 0 -0.68199836817093118 -0.7313536940579346 1.5 0 0 1 I I 0 1 1.5 forward I I I I #
face $-1 $131 $132 $44 $-1 $133 forward single #
loop $-1 $134 $135 $56 #
cone-surface $-1 -31.652103250829548 23.803597276272725 2.4211385841632715 0 -0.68199836817093118 -0.7313536940579346 1.5 0 0 1 I I 0 1 1.5 forward I I I I #
face $-1 $136 $137 $45 $-1 $138 reversed single #
loop $-1 $-1 $139 $57 #
plane-surface $-1 23.666270208921478 56.359344526613093 115.67632198347226 1 0 0 0 -0.68199836817093118 -0.7313536940579346 forward_v I I I I #
face $-1 $140 $141 $46 $-1 $142 forward single #
loop $-1 $143 $144 $58 #
cone-surface $-1 28.930666926508458 23.803597276272725 2.4211385841632715 0 -0.68199836817093118 -0.7313536940579346 1.5 0 0 1 I I 0 1 1.5 forward I I I I #
face $-1 $145 $146 $47 $-1 $147 forward single #
loop $-1 $148 $149 $59 #
cone-surface $-1 36.827262002888922 23.803597276272725 2.4211385841632715 0 -0.68199836817093118 -0.7313536940579346 1.5 0 0 1 I I 0 1 1.5 forward I I I I #
face $-1 $150 $151 $36 $-1 $152 reversed single #
loop $-1 $-1 $153 $60 #
plane-surface $-1 0 0 -8.0275127280495511 0 0 1 1 0 0 forward_v I I I I #
coedge $-1 $154 $155 $156 $157 forward $61 $-1 #
face $-1 $158 $159 $37 $-1 $160 reversed single #
loop $-1 $-1 $161 $63 #
plane-surface $-1 -48.08299028493397 0 -5.1325936031978383 0 0 1 1 0 0 forward_v I I I I #
coedge $-1 $162 $163 $164 $165 forward $64 $-1 #
face $-1 $166 $167 $38 $-1 $168 reversed single #
loop $-1 $-1 $169 $66 #
plane-surface $-1 42.091658720475898 -18.390923918070669 0 1 0 0 0 0 -1 forward_v I I I I #
coedge $-1 $170 $171 $172 $173 forward $67 $-1 #
face $-1 $174 $175 $39 $-1 $176 reversed single #
loop $-1 $-1 $177 $69 #
plane-surface $-1 7.2394021686996979 -29.577707386625548 3.1817234242244865 0 -0.75470958851134928 0.65605901945558964 1 0 0 forward_v I I I I #
coedge $-1 $178 $179 $180 $181 reversed $70 $-1 #
face $-1 $-1 $182 $40 $-1 $183 forward single #
loop $-1 $184 $185 $72 #
cone-surface $-1 3.7143394843628528 -22.404901212874186 1.2002760598093722 0 0.75470958851134928 -0.65605901945558964 0.75 0 0 1 I I -0.70710678118654757 0.70710678118654757 0.75 forward I I I I #
loop $-1 $-1 $186 $52 #
coedge $-1 $116 $116 $187 $188 reversed $73 $-1 #
face $-1 $-1 $189 $41 $-1 $190 forward single #
loop $-1 $191 $192 $75 #
cone-surface $-1 10.764464853036543 -22.404901212874186 1.2002760598093722 0 0.75470958851134928 -0.65605901945558964 0.75 0 0 1 I I -0.70710678118654757 0.70710678118654757 0.75 forward I I I I #
loop $-1 $-1 $193 $53 #
coedge $-1 $121 $121 $194 $195 reversed $76 $-1 #
face $-1 $196 $197 $42 $-1 $198 reversed single #
loop $-1 $-1 $199 $78 #
plane-surface $-1 -35.600400789019787 -13.685823731320944 40.562076924882504 0 0.68199836817093118 0.7313536940579346 1 0 0 forward_v I I I I #
coedge $-1 $200 $201 $202 $203 reversed $79 $-1 #
face $-1 $-1 $204 $43 $-1 $205 forward single #
loop $-1 $206 $207 $81 #
cone-surface $-1 -39.548698327210019 21.705230017033834 0.17091524323299723 0 -0.68199836817093118 -0.7313536940579346 0.75 0 0 1 I I -0.70710678118654757 0.70710678118654757 0.75 forward I I I I #
loop $-1 $-1 $208 $55 #
coedge $-1 $130 $130 $209 $210 reversed $82 $-1 #
face $-1 $-1 $211 $44 $-1 $212 forward single #
loop $-1 $213 $214 $84 #
cone-surface $-1 -31.652103250829548 21.705230017033834 0.17091524323299723 0 -0.68199836817093118 -0.7313536940579346 0.75 0 0 1 I I -0.70710678118654757 0.70710678118654757 0.75 forward I I I I #
loop $-1 $-1 $215 $56 #
coedge $-1 $135 $135 $216 $217 reversed $85 $-1 #
face $-1 $218 $219 $45 $-1 $220 reversed single #
loop $-1 $-1 $221 $87 #
plane-surface $-1 32.87896446469869 -13.685823731320944 40.562076924882504 0 0.68199836817093118 0.7313536940579346 1 0 0 forward_v I I I I #
coedge $-1 $222 $223 $224 $225 reversed $88 $-1 #
face $-1 $-1 $226 $46 $-1 $227 forward single #
loop $-1 $228 $229 $90 #
cone-surface $-1 28.930666926508458 21.705230017033834 0.17091524323299723 0 -0.68199836817093118 -0.7313536940579346 0.75 0 0 1 I I -0.70710678118654757 0.70710678118654757 0.75 forward I I I I #
loop $-1 $-1 $230 $58 #
coedge $-1 $144 $144 $231 $232 reversed $91 $-1 #
face $-1 $-1 $233 $47 $-1 $234 forward single #
loop $-1 $235 $236 $93 #
cone-surface $-1 36.827262002888922 21.705230017033834 0.17091524323299723 0 -0.68199836817093118 -0.7313536940579346 0.75 0 0 1 I I -0.70710678118654757 0.70710678118654757 0.75 forward I I I I #
loop $-1 $-1 $237 $59 #
coedge $-1 $149 $149 $238 $239 reversed $94 $-1 #
face $-1 $240 $241 $36 $-1 $242 reversed single #
loop $-1 $-1 $243 $96 #
plane-surface $-1 0 -29.577707386625541 0 0 1 0 0 0 1 forward_v I I I I #
coedge $-1 $244 $245 $246 $247 forward $97 $-1 #
coedge $-1 $248 $99 $249 $250 forward $61 $-1 #
coedge $-1 $99 $248 $251 $252 forward $61 $-1 #
coedge $-1 $253 $254 $99 $157 reversed $255 $-1 #
edge $-1 $256 -29.577707386625541 $257 29.577707386625541 $156 $258 forward 7 unknown #
face $-1 $259 $260 $37 $-1 $261 reversed single #
loop $-1 $-1 $262 $100 #
plane-surface $-1 -44.813095044796988 0 -3.6325936031978383 -1 0 0 0 0 1 forward_v I I I I #
coedge $-1 $263 $264 $265 $266 forward $101 $-1 #
coedge $-1 $267 $103 $268 $269 reversed $64 $-1 #
coedge $-1 $103 $267 $270 $271 reversed $64 $-1 #
coedge $-1 $262 $272 $103 $165 reversed $159 $-1 #
edge $-1 $273 -29.577707386625541 $274 29.577707386625541 $164 $275 forward 7 unknown #
face $-1 $276 $277 $38 $-1 $278 reversed single #
loop $-1 $-1 $279 $104 #
plane-surface $-1 46.722272122773425 -16.890923918070669 0 0 -1 0 0 0 -1 forward_v I I I I #
coedge $-1 $280 $281 $282 $283 forward $105 $-1 #
coedge $-1 $284 $107 $285 $286 reversed $67 $-1 #
coedge $-1 $107 $284 $287 $288 reversed $67 $-1 #
coedge $-1 $281 $280 $107 $173 reversed $105 $-1 #
edge $-1 $289 -8.0275127280495511 $290 8.0275127280495511 $172 $291 forward 7 unknown #
face $-1 $292 $293 $39 $-1 $294 reversed single #
loop $-1 $-1 $295 $108 #
plane-surface $-1 -0.98574409475293834 -107.090737593619 70.562770871810869 1 0 0 0 0.75470958851134928 -0.65605901945558964 forward_v I I I I #
coedge $-1 $296 $297 $298 $299 reversed $109 $-1 #
coedge $-1 $179 $111 $300 $301 reversed $70 $-1 #
coedge $-1 $111 $178 $296 $302 reversed $70 $-1 #
coedge $-1 $298 $303 $111 $181 forward $304 $-1 #
edge $-1 $305 23.967661410183958 $306 28.180041678767285 $180 $307 forward 7 unknown #
loop $-1 $-1 $187 $112 #
plane-surface $-1 7.2394021686996979 -29.577707386625548 3.1817234242244865 0 -0.75470958851134928 0.65605901945558964 1 0 0 forward_v I I I I #
loop $-1 $-1 $308 $72 #
coedge $-1 $185 $185 $186 $309 reversed $113 $-1 #
coedge $-1 $186 $186 $185 $309 forward $115 $-1 #
coedge $-1 $187 $187 $116 $188 forward $182 $-1 #
edge $-1 $310 -4.6730296814113435e-016 $310 6.2831853071795996 $187 $311 forward 7 unknown #
loop $-1 $-1 $194 $117 #
plane-surface $-1 7.2394021686996979 -29.577707386625548 3.1817234242244865 0 -0.75470958851134928 0.65605901945558964 1 0 0 forward_v I I I I #
loop $-1 $-1 $312 $75 #
coedge $-1 $192 $192 $193 $313 reversed $118 $-1 #
coedge $-1 $193 $193 $192 $313 forward $120 $-1 #
coedge $-1 $194 $194 $121 $195 forward $189 $-1 #
edge $-1 $314 -4.6730296814113435e-016 $314 6.2831853071795996 $194 $315 forward 7 unknown #
face $-1 $316 $317 $42 $-1 $318 forward single #
loop $-1 $-1 $319 $122 #
plane-surface $-1 -26.387706533242575 56.359344526613093 115.67632198347226 -1 0 0 0 0.68199836817093118 0.7313536940579346 forward_v I I I I #
coedge $-1 $320 $321 $322 $323 reversed $123 $-1 #
coedge $-1 $201 $125 $324 $325 reversed $79 $-1 #
coedge $-1 $125 $200 $320 $326 reversed $79 $-1 #
coedge $-1 $322 $327 $125 $203 forward $317 $-1 #
edge $-1 $328 -1.3980351233189943 $329 6.9764481311651956 $202 $330 forward 7 unknown #
loop $-1 $-1 $209 $126 #
plane-surface $-1 -35.600400789019787 -13.685823731320944 40.562076924882504 0 0.68199836817093118 0.7313536940579346 1 0 0 forward_v I I I I #
loop $-1 $-1 $331 $81 #
coedge $-1 $207 $207 $208 $332 reversed $127 $-1 #
coedge $-1 $208 $208 $207 $332 forward $129 $-1 #
coedge $-1 $209 $209 $130 $210 forward $204 $-1 #
edge $-1 $333 9.1391525541200384e-016 $333 6.2831853071796013 $209 $334 forward 7 unknown #
loop $-1 $-1 $216 $131 #
plane-surface $-1 -35.600400789019787 -13.685823731320944 40.562076924882504 0 0.68199836817093118 0.7313536940579346 1 0 0 forward_v I I I I #
loop $-1 $-1 $335 $84 #
coedge $-1 $214 $214 $215 $336 reversed $132 $-1 #
coedge $-1 $215 $215 $214 $336 forward $134 $-1 #
coedge $-1 $216 $216 $135 $217 forward $211 $-1 #
edge $-1 $337 9.1391525541200384e-016 $337 6.2831853071796013 $216 $338 forward 7 unknown #
face $-1 $339 $340 $45 $-1 $341 forward single #
loop $-1 $-1 $342 $136 #
plane-surface $-1 42.091658720475905 56.359344526613093 115.67632198347226 -1 0 0 0 0.68199836817093118 0.7313536940579346 forward_v I I I I #
coedge $-1 $343 $344 $345 $346 reversed $137 $-1 #
coedge $-1 $223 $139 $347 $348 reversed $88 $-1 #
coedge $-1 $139 $222 $343 $349 reversed $88 $-1 #
coedge $-1 $345 $350 $139 $225 forward $340 $-1 #
edge $-1 $351 -1.3980351233189943 $352 6.9764481311651956 $224 $353 forward 7 unknown #
loop $-1 $-1 $231 $140 #
plane-surface $-1 32.87896446469869 -13.685823731320944 40.562076924882504 0 0.68199836817093118 0.7313536940579346 1 0 0 forward_v I I I I #
loop $-1 $-1 $354 $90 #
coedge $-1 $229 $229 $230 $355 reversed $141 $-1 #
coedge $-1 $230 $230 $229 $355 forward $143 $-1 #
coedge $-1 $231 $231 $144 $232 forward $226 $-1 #
edge $-1 $356 9.1391525541200384e-016 $356 6.2831853071796013 $231 $357 forward 7 unknown #
loop $-1 $-1 $238 $145 #
plane-surface $-1 32.87896446469869 -13.685823731320944 40.562076924882504 0 0.68199836817093118 0.7313536940579346 1 0 0 forward_v I I I I #
loop $-1 $-1 $358 $93 #
coedge $-1 $236 $236 $237 $359 reversed $146 $-1 #
coedge $-1 $237 $237 $236 $359 forward $148 $-1 #
coedge $-1 $238 $238 $149 $239 forward $233 $-1 #
edge $-1 $360 9.1391525541200384e-016 $360 6.2831853071796013 $238 $361 forward 7 unknown #
face $-1 $362 $363 $36 $-1 $364 reversed single #
loop $-1 $-1 $365 $150 #
plane-surface $-1 -51.352885525070953 0 0 1 0 0 0 0 -1 forward_v I I I I #
coedge $-1 $366 $251 $367 $368 forward $151 $-1 #
coedge $-1 $369 $153 $366 $370 forward $97 $-1 #
coedge $-1 $153 $369 $371 $372 forward $97 $-1 #
coedge $-1 $254 $253 $153 $247 reversed $255 $-1 #
edge $-1 $373 -29.577707386625541 $374 29.577707386625541 $246 $375 forward 7 unknown #
coedge $-1 $155 $154 $376 $377 forward $61 $-1 #
coedge $-1 $378 $379 $154 $250 reversed $363 $-1 #
edge $-1 $257 -51.352885525070953 $380 51.352885525070953 $249 $381 forward 7 unknown #
coedge $-1 $243 $382 $155 $252 reversed $151 $-1 #
edge $-1 $383 -51.352885525070953 $256 51.352885525070953 $251 $384 forward 7 unknown #
coedge $-1 $246 $156 $382 $385 forward $255 $-1 #
coedge $-1 $156 $246 $378 $386 reversed $255 $-1 #
loop $-1 $-1 $253 $362 #
vertex $-1 $157 $387 #
vertex $-1 $157 $388 #
straight-curve $-1 51.352885525070953 0 8.0275127280495511 0 1 0 I I #
face $-1 $389 $390 $37 $-1 $391 reversed single #
loop $-1 $-1 $392 $158 #
plane-surface $-1 0 -29.577707386625541 0 0 1 0 0 0 1 forward_v I I I I #
coedge $-1 $265 $164 $393 $394 reversed $159 $-1 #
coedge $-1 $395 $161 $392 $396 reversed $101 $-1 #
coedge $-1 $161 $395 $397 $398 reversed $101 $-1 #
coedge $-1 $272 $262 $161 $266 reversed $159 $-1 #
edge $-1 $399 -29.577707386625541 $400 29.577707386625541 $265 $401 forward 7 unknown #
coedge $-1 $163 $162 $402 $403 reversed $64 $-1 #
coedge $-1 $404 $405 $162 $269 forward $406 $-1 #
edge $-1 $407 -27.311390382603967 $274 -20.771599902330003 $268 $408 forward 7 unknown #
coedge $-1 $409 $393 $163 $271 forward $260 $-1 #
edge $-1 $273 20.771599902330003 $410 27.311390382603967 $270 $411 forward 7 unknown #
coedge $-1 $164 $265 $404 $412 reversed $159 $-1 #
vertex $-1 $271 $413 #
vertex $-1 $269 $414 #
straight-curve $-1 -44.813095044796988 0 -2.1325936031978383 0 1 0 I I #
face $-1 $415 $416 $38 $-1 $417 reversed single #
loop $-1 $-1 $418 $166 #
plane-surface $-1 51.352885525070953 0 0 -1 0 0 0 0 1 forward_v I I I I #
coedge $-1 $419 $420 $421 $422 reversed $167 $-1 #
coedge $-1 $172 $169 $423 $424 reversed $105 $-1 #
coedge $-1 $169 $172 $425 $426 reversed $105 $-1 #
coedge $-1 $420 $419 $169 $283 reversed $167 $-1 #
edge $-1 $427 -8.0275127280495511 $428 8.0275127280495511 $282 $429 forward 7 unknown #
coedge $-1 $171 $170 $418 $430 reversed $67 $-1 #
coedge $-1 $423 $431 $170 $286 forward $416 $-1 #
edge $-1 $432 -27.99174946368424 $290 -18.730522659089186 $285 $433 forward 7 unknown #
coedge $-1 $434 $425 $171 $288 forward $435 $-1 #
edge $-1 $289 18.730522659089186 $436 27.99174946368424 $287 $437 forward 7 unknown #
vertex $-1 $288 $438 #
vertex $-1 $286 $439 #
straight-curve $-1 42.091658720475898 -19.890923918070669 0 0 0 -1 I I #
face $-1 $-1 $304 $39 $-1 $440 forward single #
loop $-1 $-1 $441 $174 #
plane-surface $-1 0 -29.577707386625541 0 0 1 0 0 0 1 forward_v I I I I #
coedge $-1 $442 $443 $444 $445 reversed $175 $-1 #
coedge $-1 $446 $177 $179 $302 forward $109 $-1 #
coedge $-1 $177 $446 $442 $447 forward $109 $-1 #
coedge $-1 $444 $180 $177 $299 forward $304 $-1 #
edge $-1 $306 -11.844847347802485 $448 4.6054451791027873 $298 $449 forward 7 unknown #
coedge $-1 $450 $451 $178 $301 forward $293 $-1 #
edge $-1 $452 -32.099662011680941 $305 -27.253872707855884 $300 $453 forward 7 unknown #
edge $-1 $306 -6.4207337200833701 $452 -1.0694430631949516e-014 $179 $454 forward 7 unknown #
coedge $-1 $180 $444 $450 $455 forward $304 $-1 #
loop $-1 $-1 $444 $292 #
vertex $-1 $301 $456 #
vertex $-1 $181 $457 #
straight-curve $-1 15.464548432152334 -53.545368796809498 8.0275127280495511 0 1 0 I I #
coedge $-1 $308 $308 $-1 $458 reversed $184 $-1 #
edge $-1 $459 0 $459 6.2831853071796004 $185 $460 forward 7 unknown #
vertex $-1 $188 $461 #
ellipse-curve $-1 3.7143394843628528 -27.471517252333875 5.6046180761370223 0 -0.75470958851134928 0.65605901945558964 1.5 0 0 1 I I #
coedge $-1 $312 $312 $-1 $462 reversed $191 $-1 #
edge $-1 $463 0 $463 6.2831853071796004 $192 $464 forward 7 unknown #
vertex $-1 $195 $465 #
ellipse-curve $-1 10.764464853036543 -27.471517252333875 5.6046180761370223 0 -0.75470958851134928 0.65605901945558964 1.5 0 0 1 I I #
face $-1 $-1 $466 $42 $-1 $467 reversed single #
loop $-1 $-1 $202 $196 #
plane-surface $-1 0 0 8.0275127280495511 0 0 1 1 0 0 forward_v I I I I #
coedge $-1 $468 $469 $470 $471 reversed $197 $-1 #
coedge $-1 $472 $199 $201 $326 forward $123 $-1 #
coedge $-1 $199 $472 $468 $473 forward $123 $-1 #
coedge $-1 $470 $202 $199 $323 forward $317 $-1 #
edge $-1 $329 -27.012894650287102 $474 -8.5875061387326816 $322 $475 forward 7 unknown #
coedge $-1 $476 $477 $200 $325 forward $466 $-1 #
edge $-1 $478 -57.61998041068545 $328 -49.810648263686581 $324 $479 forward 7 unknown #
edge $-1 $329 47.704753728499711 $478 59.155414773251067 $201 $480 forward 7 unknown #
coedge $-1 $202 $470 $476 $481 forward $317 $-1 #
vertex $-1 $325 $482 #
vertex $-1 $203 $483 #
straight-curve $-1 -44.813095044796995 28.179672263306546 8.0275127280495511 0 -1 0 I I #
coedge $-1 $331 $331 $-1 $484 reversed $206 $-1 #
edge $-1 $485 0 $485 6.2831853071796004 $207 $486 forward 7 unknown #
vertex $-1 $210 $487 #
ellipse-curve $-1 -39.548698327210019 25.390465759383442 4.1228466545501199 0 0.68199836817093118 0.7313536940579346 1.5 0 0 1 I I #
coedge $-1 $335 $335 $-1 $488 reversed $213 $-1 #
edge $-1 $489 0 $489 6.2831853071796004 $214 $490 forward 7 unknown #
vertex $-1 $217 $491 #
ellipse-curve $-1 -31.652103250829548 25.390465759383442 4.1228466545501199 0 0.68199836817093118 0.7313536940579346 1.5 0 0 1 I I #
face $-1 $-1 $492 $45 $-1 $493 reversed single #
loop $-1 $-1 $224 $218 #
plane-surface $-1 0 0 8.0275127280495511 0 0 1 1 0 0 forward_v I I I I #
coedge $-1 $494 $495 $496 $497 reversed $219 $-1 #
coedge $-1 $498 $221 $223 $349 forward $137 $-1 #
coedge $-1 $221 $498 $494 $499 forward $137 $-1 #
coedge $-1 $496 $224 $221 $346 forward $340 $-1 #
edge $-1 $352 7.2267879765721332 $500 25.65217648812656 $345 $501 forward 7 unknown #
coedge $-1 $502 $503 $222 $348 forward $492 $-1 #
edge $-1 $504 -57.61998041068545 $351 -49.810648263686581 $347 $505 forward 7 unknown #
edge $-1 $352 47.704753728499711 $504 59.155414773251067 $223 $506 forward 7 unknown #
coedge $-1 $224 $496 $502 $507 forward $340 $-1 #
vertex $-1 $225 $508 #
vertex $-1 $225 $509 #
straight-curve $-1 23.666270208921478 28.179672263306546 8.0275127280495511 0 -1 0 I I #
coedge $-1 $354 $354 $-1 $510 reversed $228 $-1 #
edge $-1 $511 0 $511 6.2831853071796004 $229 $512 forward 7 unknown #
vertex $-1 $232 $513 #
ellipse-curve $-1 28.930666926508458 25.390465759383442 4.1228466545501199 0 0.68199836817093118 0.7313536940579346 1.5 0 0 1 I I #
coedge $-1 $358 $358 $-1 $514 reversed $235 $-1 #
edge $-1 $515 0 $515 6.2831853071796004 $236 $516 forward 7 unknown #
vertex $-1 $239 $517 #
ellipse-curve $-1 36.827262002888922 25.390465759383442 4.1228466545501199 0 0.68199836817093118 0.7313536940579346 1.5 0 0 1 I I #
face $-1 $-1 $255 $36 $-1 $518 reversed single #
loop $-1 $-1 $378 $240 #
plane-surface $-1 0 29.577707386625541 0 0 -1 0 0 0 -1 forward_v I I I I #
coedge $-1 $519 $376 $379 $520 forward $241 $-1 #
coedge $-1 $382 $243 $244 $370 reversed $151 $-1 #
coedge $-1 $376 $519 $243 $368 reversed $241 $-1 #
edge $-1 $383 -8.0275127280495511 $521 8.0275127280495511 $367 $522 forward 7 unknown #
coedge $-1 $245 $244 $519 $523 forward $97 $-1 #
edge $-1 $374 -51.352885525070953 $521 51.352885525070953 $366 $524 forward 7 unknown #
coedge $-1 $379 $378 $245 $372 reversed $363 $-1 #
edge $-1 $525 -51.352885525070953 $373 51.352885525070953 $371 $526 forward 7 unknown #
vertex $-1 $247 $527 #
vertex $-1 $385 $528 #
straight-curve $-1 51.352885525070953 0 -8.0275127280495511 0 -1 0 I I #
coedge $-1 $365 $367 $248 $377 reversed $241 $-1 #
edge $-1 $380 -29.577707386625541 $383 29.577707386625541 $376 $529 forward 7 unknown #
coedge $-1 $371 $249 $254 $386 forward $363 $-1 #
coedge $-1 $249 $371 $365 $520 reversed $363 $-1 #
vertex $-1 $250 $530 #
straight-curve $-1 0 29.577707386625541 8.0275127280495511 -1 0 0 I I #
coedge $-1 $251 $366 $253 $385 reversed $151 $-1 #
vertex $-1 $377 $531 #
straight-curve $-1 0 -29.577707386625541 8.0275127280495511 1 0 0 I I #
edge $-1 $256 -8.0275127280495511 $374 8.0275127280495511 $253 $532 forward 7 unknown #
edge $-1 $257 -8.0275127280495511 $373 8.0275127280495511 $254 $533 forward 7 unknown #
point $-1 51.352885525070953 -29.577707386625541 8.0275127280495511 #
point $-1 51.352885525070953 29.577707386625541 8.0275127280495511 #
face $-1 $-1 $406 $37 $-1 $534 reversed single #
loop $-1 $-1 $535 $259 #
plane-surface $-1 -51.352885525070953 0 0 1 0 0 0 0 -1 forward_v I I I I #
coedge $-1 $393 $409 $263 $396 forward $260 $-1 #
coedge $-1 $270 $392 $262 $394 forward $260 $-1 #
edge $-1 $400 -3.3162968015989192 $273 -0.31629680159891915 $393 $536 forward 7 unknown #
coedge $-1 $264 $263 $535 $537 reversed $101 $-1 #
edge $-1 $538 -27.311390382603967 $400 -20.771599902330003 $392 $539 forward 7 unknown #
coedge $-1 $405 $404 $264 $398 forward $406 $-1 #
edge $-1 $399 20.771599902330003 $540 27.311390382603967 $397 $541 forward 7 unknown #
vertex $-1 $398 $542 #
vertex $-1 $396 $543 #
straight-curve $-1 -44.813095044796988 0 -5.1325936031978383 0 -1 0 I I #
coedge $-1 $544 $545 $267 $403 forward $390 $-1 #
edge $-1 $410 -29.577707386625541 $407 29.577707386625541 $402 $546 forward 7 unknown #
coedge $-1 $397 $268 $272 $412 forward $406 $-1 #
coedge $-1 $268 $397 $544 $547 reversed $406 $-1 #
loop $-1 $-1 $397 $389 #
vertex $-1 $547 $548 #
straight-curve $-1 -24.041495142466985 29.577707386625541 -2.1325936031978383 1 0 0 I I #
coedge $-1 $392 $270 $545 $549 forward $260 $-1 #
vertex $-1 $549 $550 #
straight-curve $-1 -24.041495142466985 -29.577707386625541 -2.1325936031978383 -1 0 0 I I #
edge $-1 $274 0.31629680159891915 $399 3.3162968015989192 $404 $551 forward 7 unknown #
point $-1 -44.813095044796988 -29.577707386625541 -2.1325936031978383 #
point $-1 -44.813095044796988 29.577707386625541 -2.1325936031978383 #
face $-1 $-1 $435 $38 $-1 $552 forward single #
loop $-1 $-1 $285 $276 #
plane-surface $-1 0 0 -8.0275127280495511 0 0 1 1 0 0 forward_v I I I I #
coedge $-1 $553 $554 $284 $430 forward $277 $-1 #
coedge $-1 $282 $279 $555 $556 reversed $167 $-1 #
coedge $-1 $279 $282 $557 $558 reversed $167 $-1 #
coedge $-1 $554 $553 $279 $422 forward $277 $-1 #
edge $-1 $559 -8.0275127280495511 $560 8.0275127280495511 $421 $561 forward 7 unknown #
coedge $-1 $555 $285 $280 $424 forward $416 $-1 #
edge $-1 $290 -10.695461959035335 $428 -7.6954619590353346 $423 $562 forward 7 unknown #
coedge $-1 $287 $557 $281 $426 forward $435 $-1 #
edge $-1 $427 7.6954619590353346 $289 10.695461959035335 $425 $563 forward 7 unknown #
vertex $-1 $426 $564 #
vertex $-1 $424 $565 #
straight-curve $-1 42.091658720475898 -16.890923918070669 0 0 0 -1 I I #
edge $-1 $436 -8.0275127280495511 $432 8.0275127280495511 $418 $566 forward 7 unknown #
coedge $-1 $285 $555 $553 $567 forward $416 $-1 #
vertex $-1 $430 $568 #
straight-curve $-1 23.361136061386713 -19.890923918070669 -8.0275127280495511 -1 0 0 I I #
coedge $-1 $557 $287 $554 $569 forward $435 $-1 #
loop $-1 $-1 $287 $415 #
vertex $-1 $569 $570 #
straight-curve $-1 23.361136061386713 -19.890923918070669 8.0275127280495511 1 0 0 I I #
point $-1 42.091658720475898 -19.890923918070669 8.0275127280495511 #
point $-1 42.091658720475898 -19.890923918070669 -8.0275127280495511 #
plane-surface $-1 0 0 8.0275127280495511 0 0 1 1 0 0 forward_v I I I I #
coedge $-1 $451 $450 $443 $571 forward $293 $-1 #
coedge $-1 $443 $295 $297 $447 reversed $175 $-1 #
coedge $-1 $295 $442 $441 $571 reversed $175 $-1 #
coedge $-1 $303 $298 $295 $445 forward $304 $-1 #
edge $-1 $448 -28.180041678767285 $572 -23.967661410183958 $444 $573 forward 7 unknown #
coedge $-1 $297 $296 $451 $574 reversed $109 $-1 #
edge $-1 $575 1.0694430631949516e-014 $448 6.4207337200833701 $442 $576 forward 7 unknown #
vertex $-1 $299 $577 #
straight-curve $-1 3.6197010843498489 -25.365327118042213 8.0275127280495511 -1 0 0 I I #
coedge $-1 $441 $300 $303 $455 reversed $293 $-1 #
coedge $-1 $300 $441 $446 $574 forward $293 $-1 #
vertex $-1 $301 $578 #
straight-curve $-1 15.464548432152334 -29.577707386625541 35.281385435905435 0 0 1 I I #
straight-curve $-1 15.464548432152334 -29.577707386625548 3.1817234242244865 0 -0.65605901945558964 -0.75470958851134928 I I #
edge $-1 $572 -0.98574409475293834 $305 15.464548432152334 $450 $579 forward 7 unknown #
point $-1 15.464548432152334 -29.577707386625541 8.0275127280495511 #
point $-1 15.464548432152334 -25.365327118042213 8.0275127280495511 #
edge $-1 $580 1 $580 0 $308 $-1 forward 7 unknown #
vertex $-1 $309 $581 #
ellipse-curve $-1 3.7143394843628528 -22.9709334042577 1.6923203244010645 0 -0.75470958851134928 0.65605901945558964 1.5 0 0 1 I I #
point $-1 5.2143394843628528 -27.471517252333868 5.6046180761370152 #
edge $-1 $582 1 $582 0 $312 $-1 forward 7 unknown #
vertex $-1 $313 $583 #
ellipse-curve $-1 10.764464853036543 -22.9709334042577 1.6923203244010645 0 -0.75470958851134928 0.65605901945558964 1.5 0 0 1 I I #
point $-1 12.264464853036543 -27.471517252333868 5.6046180761370152 #
loop $-1 $-1 $324 $316 #
plane-surface $-1 0 29.577707386625541 0 0 -1 0 0 0 -1 forward_v I I I I #
coedge $-1 $469 $319 $321 $473 reversed $197 $-1 #
coedge $-1 $319 $468 $584 $585 reversed $197 $-1 #
coedge $-1 $327 $322 $319 $471 forward $317 $-1 #
edge $-1 $474 -6.9764481311651956 $586 1.3980351233189943 $470 $587 forward 7 unknown #
coedge $-1 $321 $320 $477 $588 reversed $123 $-1 #
edge $-1 $589 -59.155414773251067 $474 -47.704753728499711 $468 $590 forward 7 unknown #
vertex $-1 $323 $591 #
straight-curve $-1 -17.800200394509893 21.203224132141351 8.0275127280495511 1 0 0 I I #
coedge $-1 $584 $324 $327 $481 reversed $466 $-1 #
coedge $-1 $324 $584 $472 $588 forward $466 $-1 #
vertex $-1 $325 $592 #
straight-curve $-1 -44.813095044796995 29.577707386625541 57.838160991736132 0 0 1 I I #
straight-curve $-1 -44.813095044796995 -13.685823731320944 40.562076924882504 0 0.7313536940579346 -0.68199836817093118 I I #
edge $-1 $586 26.387706533242575 $328 44.813095044796995 $476 $593 forward 7 unknown #
point $-1 -44.813095044796995 29.577707386625541 8.0275127280495511 #
point $-1 -44.813095044796995 21.203224132141351 8.0275127280495511 #
edge $-1 $594 1 $594 0 $331 $-1 forward 7 unknown #
vertex $-1 $332 $595 #
ellipse-curve $-1 -39.548698327210019 22.216728793162034 0.71943051377644818 0 0.68199836817093118 0.7313536940579346 1.5 0 0 1 I I #
point $-1 -38.048698327210019 25.390465759383421 4.122846654550095 #
edge $-1 $596 1 $596 0 $335 $-1 forward 7 unknown #
vertex $-1 $336 $597 #
ellipse-curve $-1 -31.652103250829548 22.216728793162034 0.71943051377644818 0 0.68199836817093118 0.7313536940579346 1.5 0 0 1 I I #
point $-1 -30.152103250829548 25.390465759383421 4.122846654550095 #
loop $-1 $-1 $347 $339 #
plane-surface $-1 0 29.577707386625541 0 0 -1 0 0 0 -1 forward_v I I I I #
coedge $-1 $495 $342 $344 $499 reversed $219 $-1 #
coedge $-1 $342 $494 $598 $599 reversed $219 $-1 #
coedge $-1 $350 $345 $342 $497 forward $340 $-1 #
edge $-1 $500 -6.9764481311651956 $600 1.3980351233189943 $496 $601 forward 7 unknown #
coedge $-1 $344 $343 $503 $602 reversed $137 $-1 #
edge $-1 $603 -59.155414773251067 $500 -47.704753728499711 $494 $604 forward 7 unknown #
vertex $-1 $346 $605 #
straight-curve $-1 16.439482232349345 21.203224132141351 8.0275127280495511 1 0 0 I I #
coedge $-1 $598 $347 $350 $507 reversed $492 $-1 #
coedge $-1 $347 $598 $498 $602 forward $492 $-1 #
vertex $-1 $348 $606 #
straight-curve $-1 23.666270208921478 29.577707386625541 57.838160991736132 0 0 1 I I #
straight-curve $-1 23.666270208921478 -13.685823731320944 40.562076924882504 0 0.7313536940579346 -0.68199836817093118 I I #
edge $-1 $600 -42.091658720475905 $351 -23.666270208921478 $502 $607 forward 7 unknown #
point $-1 23.666270208921478 29.577707386625541 8.0275127280495511 #
point $-1 23.666270208921478 21.203224132141351 8.0275127280495511 #
edge $-1 $608 1 $608 0 $354 $-1 forward 7 unknown #
vertex $-1 $355 $609 #
ellipse-curve $-1 28.930666926508458 22.216728793162034 0.71943051377644818 0 0.68199836817093118 0.7313536940579346 1.5 0 0 1 I I #
point $-1 30.430666926508458 25.390465759383421 4.122846654550095 #
edge $-1 $610 1 $610 0 $358 $-1 forward 7 unknown #
vertex $-1 $359 $611 #
ellipse-curve $-1 36.827262002888922 22.216728793162034 0.71943051377644818 0 0.68199836817093118 0.7313536940579346 1.5 0 0 1 I I #
point $-1 38.327262002888922 25.390465759383421 4.122846654550095 #
plane-surface $-1 51.352885525070953 0 0 -1 0 0 0 0 1 forward_v I I I I #
coedge $-1 $367 $365 $369 $523 reversed $241 $-1 #
edge $-1 $380 -8.0275127280495511 $525 8.0275127280495511 $379 $612 forward 7 unknown #
vertex $-1 $523 $613 #
straight-curve $-1 -51.352885525070953 -29.577707386625541 0 0 0 -1 I I #
edge $-1 $521 -29.577707386625541 $525 29.577707386625541 $519 $614 forward 7 unknown #
straight-curve $-1 0 -29.577707386625541 -8.0275127280495511 -1 0 0 I I #
vertex $-1 $372 $615 #
straight-curve $-1 0 29.577707386625541 -8.0275127280495511 1 0 0 I I #
point $-1 51.352885525070953 29.577707386625541 -8.0275127280495511 #
point $-1 51.352885525070953 -29.577707386625541 -8.0275127280495511 #
straight-curve $-1 -51.352885525070953 0 8.0275127280495511 0 -1 0 I I #
point $-1 -51.352885525070953 29.577707386625541 8.0275127280495511 #
point $-1 -51.352885525070953 -29.577707386625541 8.0275127280495511 #
straight-curve $-1 51.352885525070953 -29.577707386625541 0 0 0 -1 I I #
straight-curve $-1 51.352885525070953 29.577707386625541 0 0 0 -1 I I #
plane-surface $-1 0 29.577707386625541 0 0 -1 0 0 0 -1 forward_v I I I I #
coedge $-1 $545 $544 $395 $537 forward $390 $-1 #
straight-curve $-1 -44.813095044796988 -29.577707386625541 -1.8162968015989192 0 0 1 I I #
edge $-1 $540 -29.577707386625541 $538 29.577707386625541 $535 $616 forward 7 unknown #
vertex $-1 $396 $617 #
straight-curve $-1 -24.041495142466985 -29.577707386625541 -5.1325936031978383 1 0 0 I I #
vertex $-1 $398 $618 #
straight-curve $-1 -24.041495142466985 29.577707386625541 -5.1325936031978383 -1 0 0 I I #
point $-1 -44.813095044796988 29.577707386625541 -5.1325936031978383 #
point $-1 -44.813095044796988 -29.577707386625541 -5.1325936031978383 #
coedge $-1 $535 $402 $405 $547 forward $390 $-1 #
coedge $-1 $402 $535 $409 $549 reversed $390 $-1 #
straight-curve $-1 -51.352885525070953 0 -2.1325936031978383 0 1 0 I I #
edge $-1 $407 2.1325936031978383 $540 5.1325936031978383 $405 $619 forward 7 unknown #
point $-1 -51.352885525070953 29.577707386625541 -2.1325936031978383 #
edge $-1 $410 2.1325936031978383 $538 5.1325936031978383 $545 $620 forward 7 unknown #
point $-1 -51.352885525070953 -29.577707386625541 -2.1325936031978383 #
straight-curve $-1 -44.813095044796988 29.577707386625541 -1.8162968015989192 0 0 -1 I I #
plane-surface $-1 0 0 8.0275127280495511 0 0 1 1 0 0 forward_v I I I I #
coedge $-1 $421 $418 $431 $567 reversed $277 $-1 #
coedge $-1 $418 $421 $434 $569 reversed $277 $-1 #
coedge $-1 $431 $423 $419 $556 forward $416 $-1 #
edge $-1 $428 18.730522659089186 $559 27.99174946368424 $555 $621 forward 7 unknown #
coedge $-1 $425 $434 $420 $558 forward $435 $-1 #
edge $-1 $560 -27.99174946368424 $427 -18.730522659089186 $557 $622 forward 7 unknown #
vertex $-1 $567 $623 #
vertex $-1 $422 $624 #
straight-curve $-1 51.352885525070953 -16.890923918070669 0 0 0 1 I I #
straight-curve $-1 42.091658720475898 -9.1954619590353346 -8.0275127280495511 0 1 0 I I #
straight-curve $-1 42.091658720475898 -9.1954619590353346 8.0275127280495511 0 -1 0 I I #
point $-1 42.091658720475898 -16.890923918070669 8.0275127280495511 #
point $-1 42.091658720475898 -16.890923918070669 -8.0275127280495511 #
straight-curve $-1 51.352885525070953 -19.890923918070669 0 0 0 -1 I I #
edge $-1 $559 16.890923918070669 $432 19.890923918070669 $553 $625 forward 7 unknown #
point $-1 51.352885525070953 -19.890923918070669 -8.0275127280495511 #
edge $-1 $436 -19.890923918070669 $560 -16.890923918070669 $554 $626 forward 7 unknown #
point $-1 51.352885525070953 -19.890923918070669 8.0275127280495511 #
edge $-1 $572 27.253872707855884 $575 32.099662011680941 $441 $627 forward 7 unknown #
vertex $-1 $455 $628 #
straight-curve $-1 -0.98574409475293834 -53.545368796809498 8.0275127280495511 0 -1 0 I I #
edge $-1 $575 -4.6054451791027873 $452 11.844847347802485 $451 $629 forward 7 unknown #
vertex $-1 $574 $630 #
straight-curve $-1 -0.98574409475293834 -29.577707386625548 3.1817234242244865 0 0.65605901945558964 0.75470958851134928 I I #
point $-1 -0.98574409475293834 -25.365327118042213 8.0275127280495511 #
point $-1 15.464548432152334 -29.577707386625541 3.1817234242244945 #
straight-curve $-1 0 -29.577707386625541 8.0275127280495511 1 0 0 I I #
vertex $-1 $458 $631 #
point $-1 5.2143394843628528 -22.9709334042577 1.6923203244010645 #
vertex $-1 $462 $632 #
point $-1 12.264464853036543 -22.9709334042577 1.6923203244010645 #
coedge $-1 $477 $476 $469 $585 forward $466 $-1 #
edge $-1 $586 49.810648263686581 $589 57.61998041068545 $584 $633 forward 7 unknown #
vertex $-1 $481 $634 #
straight-curve $-1 -26.387706533242575 28.179672263306546 8.0275127280495511 0 1 0 I I #
edge $-1 $589 8.5875061387326816 $478 27.012894650287102 $477 $635 forward 7 unknown #
vertex $-1 $588 $636 #
straight-curve $-1 -26.387706533242575 -13.685823731320944 40.562076924882504 0 -0.7313536940579346 0.68199836817093118 I I #
point $-1 -26.387706533242575 21.203224132141351 8.0275127280495511 #
point $-1 -44.813095044796995 29.577707386625541 0.21818058105068161 #
straight-curve $-1 0 29.577707386625541 8.0275127280495511 -1 0 0 I I #
vertex $-1 $484 $637 #
point $-1 -38.048698327210019 22.216728793162034 0.71943051377644818 #
vertex $-1 $488 $638 #
point $-1 -30.152103250829548 22.216728793162034 0.71943051377644818 #
coedge $-1 $503 $502 $495 $599 forward $492 $-1 #
edge $-1 $600 49.810648263686581 $603 57.61998041068545 $598 $639 forward 7 unknown #
vertex $-1 $507 $640 #
straight-curve $-1 42.091658720475905 28.179672263306546 8.0275127280495511 0 1 0 I I #
edge $-1 $603 -25.65217648812656 $504 -7.2267879765721332 $503 $641 forward 7 unknown #
vertex $-1 $602 $642 #
straight-curve $-1 42.091658720475905 -13.685823731320944 40.562076924882504 0 -0.7313536940579346 0.68199836817093118 I I #
point $-1 42.091658720475905 21.203224132141351 8.0275127280495511 #
point $-1 23.666270208921478 29.577707386625541 0.21818058105068161 #
straight-curve $-1 0 29.577707386625541 8.0275127280495511 -1 0 0 I I #
vertex $-1 $510 $643 #
point $-1 30.430666926508458 22.216728793162034 0.71943051377644818 #
vertex $-1 $514 $644 #
point $-1 38.327262002888922 22.216728793162034 0.71943051377644818 #
straight-curve $-1 -51.352885525070953 29.577707386625541 0 0 0 -1 I I #
point $-1 -51.352885525070953 -29.577707386625541 -8.0275127280495511 #
straight-curve $-1 -51.352885525070953 0 -8.0275127280495511 0 1 0 I I #
point $-1 -51.352885525070953 29.577707386625541 -8.0275127280495511 #
straight-curve $-1 -51.352885525070953 0 -5.1325936031978383 0 -1 0 I I #
point $-1 -51.352885525070953 -29.577707386625541 -5.1325936031978383 #
point $-1 -51.352885525070953 29.577707386625541 -5.1325936031978383 #
straight-curve $-1 -51.352885525070953 29.577707386625541 0 0 0 -1 I I #
straight-curve $-1 -51.352885525070953 -29.577707386625541 0 0 0 -1 I I #
straight-curve $-1 23.361136061386713 -16.890923918070669 -8.0275127280495511 1 0 0 I I #
straight-curve $-1 23.361136061386713 -16.890923918070669 8.0275127280495511 -1 0 0 I I #
point $-1 51.352885525070953 -16.890923918070669 -8.0275127280495511 #
point $-1 51.352885525070953 -16.890923918070669 8.0275127280495511 #
straight-curve $-1 51.352885525070953 0 -8.0275127280495511 0 -1 0 I I #
straight-curve $-1 51.352885525070953 0 8.0275127280495511 0 1 0 I I #
straight-curve $-1 -0.98574409475293834 -29.577707386625541 35.281385435905435 0 0 -1 I I #
point $-1 -0.98574409475293834 -29.577707386625541 8.0275127280495511 #
straight-curve $-1 3.6197010843498489 -29.577707386625541 3.1817234242244936 1 0 0 I I #
point $-1 -0.98574409475293834 -29.577707386625541 3.1817234242244945 #
point $-1 3.7143394843628528 -21.838869021490673 0.70823179521767998 #
point $-1 10.764464853036543 -21.838869021490673 0.70823179521767998 #
straight-curve $-1 -26.387706533242575 29.577707386625541 57.838160991736132 0 0 -1 I I #
point $-1 -26.387706533242575 29.577707386625541 8.0275127280495511 #
straight-curve $-1 -17.800200394509893 29.577707386625537 0.21818058105068161 -1 0 0 I I #
point $-1 -26.387706533242575 29.577707386625541 0.21818058105068161 #
point $-1 -39.548698327210019 21.193731240905635 -0.37760002731045372 #
point $-1 -31.652103250829548 21.193731240905635 -0.37760002731045372 #
straight-curve $-1 42.091658720475905 29.577707386625541 57.838160991736132 0 0 -1 I I #
point $-1 42.091658720475905 29.577707386625541 8.0275127280495511 #
straight-curve $-1 16.439482232349345 29.577707386625537 0.21818058105068161 -1 0 0 I I #
point $-1 42.091658720475905 29.577707386625541 0.21818058105068161 #
point $-1 28.930666926508458 21.193731240905635 -0.37760002731045372 #
point $-1 36.827262002888922 21.193731240905635 -0.37760002731045372 #
End-of-ACIS-data 