500 0 6 0           
7 Unknown 11 ACIS 5.0 NT 24 Thu Mar 25 16:31:00 1999 
-1 9.9999999999999995e-007 1e-010 
body $-1 $6 $-1 $7 #
body $-1 $8 $-1 $9 #
body $-1 $10 $-1 $11 #
body $-1 $12 $-1 $13 #
body $-1 $14 $-1 $15 #
body $-1 $16 $-1 $17 #
lump $-1 $-1 $18 $0 #
transform $-1 1 0 0 0 1 0 0 0 1 40.864284188360237 24.244454186693879 5.7296732789367377 1 rotate no_reflect no_shear #
lump $-1 $-1 $19 $1 #
transform $-1 1 0 0 0 1 0 0 0 1 40.864284188360237 24.244454186693879 5.7296732789367377 1 rotate no_reflect no_shear #
lump $-1 $-1 $20 $2 #
transform $-1 1 0 0 0 1 0 0 0 1 40.864284188360237 24.244454186693879 5.7296732789367377 1 rotate no_reflect no_shear #
lump $-1 $-1 $21 $3 #
transform $-1 1 0 0 0 1 0 0 0 1 40.864284188360237 24.244454186693879 5.7296732789367377 1 rotate no_reflect no_shear #
lump $-1 $-1 $22 $4 #
transform $-1 1 0 0 0 1 0 0 0 1 40.864284188360237 24.244454186693879 5.7296732789367377 1 rotate no_reflect no_shear #
lump $-1 $-1 $23 $5 #
transform $-1 1 0 0 0 1 0 0 0 1 40.864284188360237 24.244454186693879 5.7296732789367377 1 rotate no_reflect no_shear #
shell $-1 $-1 $-1 $24 $-1 $6 #
shell $-1 $-1 $-1 $25 $-1 $8 #
shell $-1 $-1 $-1 $26 $-1 $10 #
shell $-1 $-1 $-1 $27 $-1 $12 #
shell $-1 $-1 $-1 $28 $-1 $14 #
shell $-1 $-1 $-1 $29 $-1 $16 #
face $-1 $30 $31 $18 $-1 $32 forward single #
face $-1 $33 $34 $19 $-1 $35 forward single #
face $-1 $36 $37 $20 $-1 $38 reversed single #
face $-1 $39 $40 $21 $-1 $41 forward single #
face $-1 $42 $43 $22 $-1 $44 forward single #
face $-1 $45 $46 $23 $-1 $47 forward single #
face $-1 $48 $49 $18 $-1 $50 reversed single #
loop $-1 $-1 $51 $24 #
plane-surface $-1 0 0 5.7296732789367377 0 0 1 1 0 0 forward_v I I I I #
face $-1 $52 $53 $19 $-1 $54 reversed single #
loop $-1 $-1 $55 $25 #
plane-surface $-1 0 -24.244454186693879 0 0 1 0 0 0 1 forward_v I I I I #
face $-1 $56 $57 $20 $-1 $58 reversed single #
loop $-1 $-1 $59 $26 #
plane-surface $-1 -95.551371360831439 -16.954803172749919 61.851373620065083 0 1 0 -0.66913061440640931 0 0.74314481823134659 forward_v I I I I #
face $-1 $60 $61 $21 $-1 $62 forward single #
loop $-1 $63 $64 $27 #
cone-surface $-1 -37.888470214189347 -14.68846765287214 2.9633434702221901 0.66913061440640931 0 -0.74314481823134659 0.3715724091156733 0 0.33456530720320465 1 I I 0 1 0.5 forward I I I I #
face $-1 $65 $66 $22 $-1 $67 forward single #
loop $-1 $68 $69 $28 #
cone-surface $-1 -37.888470214189347 -11.288964373055467 2.9633434702221901 0.66913061440640931 0 -0.74314481823134659 0.3715724091156733 0 0.33456530720320465 1 I I 0 1 0.5 forward I I I I #
face $-1 $70 $71 $23 $-1 $72 forward single #
loop $-1 $73 $74 $29 #
cone-surface $-1 -37.888470214189347 -7.889461093238797 2.9633434702221901 0.66913061440640931 0 -0.74314481823134659 0.3715724091156733 0 0.33456530720320465 1 I I 0 1 0.5 forward I I I I #
face $-1 $75 $76 $18 $-1 $77 reversed single #
loop $-1 $-1 $78 $30 #
plane-surface $-1 0 0 -5.7296732789367377 0 0 1 1 0 0 forward_v I I I I #
coedge $-1 $79 $80 $81 $82 forward $31 $-1 #
face $-1 $83 $84 $19 $-1 $85 forward single #
loop $-1 $-1 $86 $33 #
plane-surface $-1 -40.864284188360237 0 0 1 0 0 0 0 -1 forward_v I I I I #
coedge $-1 $87 $88 $89 $90 forward $34 $-1 #
face $-1 $91 $92 $20 $-1 $93 reversed single #
loop $-1 $-1 $94 $36 #
plane-surface $-1 -40.864284188360237 -11.288964373055467 1.115211529438966 -0.66913061440640931 0 0.74314481823134659 0.74314481823134659 0 0.66913061440640931 forward_v I I I I #
coedge $-1 $95 $96 $97 $98 reversed $37 $-1 #
face $-1 $-1 $99 $21 $-1 $100 forward single #
loop $-1 $101 $102 $39 #
cone-surface $-1 -37.307813014710021 -14.68846765287214 2.3184583316986993 0.66913061440640931 0 -0.74314481823134659 0.18578620455783665 0 0.16728265360160233 1 I I -0.70710678118654746 0.70710678118654746 0.25 forward I I I I #
loop $-1 $-1 $103 $27 #
coedge $-1 $64 $64 $104 $105 reversed $40 $-1 #
face $-1 $-1 $106 $22 $-1 $107 forward single #
loop $-1 $108 $109 $42 #
cone-surface $-1 -37.307813014710021 -11.288964373055467 2.3184583316986993 0.66913061440640931 0 -0.74314481823134659 0.18578620455783665 0 0.16728265360160233 1 I I -0.70710678118654746 0.70710678118654746 0.25 forward I I I I #
loop $-1 $-1 $110 $28 #
coedge $-1 $69 $69 $111 $112 reversed $43 $-1 #
face $-1 $-1 $113 $23 $-1 $114 forward single #
loop $-1 $115 $116 $45 #
cone-surface $-1 -37.307813014710021 -7.889461093238797 2.3184583316986993 0.66913061440640931 0 -0.74314481823134659 0.18578620455783665 0 0.16728265360160233 1 I I -0.70710678118654746 0.70710678118654746 0.25 forward I I I I #
loop $-1 $-1 $117 $29 #
coedge $-1 $74 $74 $118 $119 reversed $46 $-1 #
face $-1 $120 $121 $18 $-1 $122 reversed single #
loop $-1 $-1 $123 $48 #
plane-surface $-1 0 -24.244454186693879 0 0 1 0 0 0 1 forward_v I I I I #
coedge $-1 $124 $125 $126 $127 forward $49 $-1 #
coedge $-1 $128 $51 $129 $130 forward $31 $-1 #
coedge $-1 $51 $128 $131 $132 forward $31 $-1 #
coedge $-1 $133 $134 $51 $82 reversed $135 $-1 #
edge $-1 $136 -24.244454186693879 $137 24.244454186693879 $81 $138 forward 7 unknown #
face $-1 $139 $140 $19 $-1 $141 reversed single #
loop $-1 $-1 $142 $52 #
plane-surface $-1 0 -27.889279693665859 3.6318110965801043 0 0 1 1 0 0 forward_v I I I I #
coedge $-1 $143 $144 $88 $145 forward $53 $-1 #
coedge $-1 $146 $55 $147 $148 reversed $34 $-1 #
coedge $-1 $55 $146 $86 $145 reversed $34 $-1 #
coedge $-1 $149 $142 $55 $90 reversed $84 $-1 #
edge $-1 $150 -40.864284188360237 $151 40.864284188360237 $89 $152 forward 7 unknown #
face $-1 $153 $154 $20 $-1 $155 forward single #
loop $-1 $-1 $156 $56 #
plane-surface $-1 -95.551371360831439 -5.6231255733610146 61.851373620065083 0 -1 0 0.66913061440640931 0 -0.74314481823134659 forward_v I I I I #
coedge $-1 $157 $158 $159 $160 reversed $57 $-1 #
coedge $-1 $96 $59 $161 $162 reversed $37 $-1 #
coedge $-1 $59 $95 $157 $163 reversed $37 $-1 #
coedge $-1 $159 $164 $59 $98 forward $154 $-1 #
edge $-1 $165 6.9114014920554823 $166 12.036280348641803 $97 $167 forward 7 unknown #
loop $-1 $-1 $104 $60 #
plane-surface $-1 -40.864284188360237 -11.288964373055467 1.115211529438966 -0.66913061440640931 0 0.74314481823134659 0.74314481823134659 0 0.66913061440640931 forward_v I I I I #
loop $-1 $-1 $168 $39 #
coedge $-1 $102 $102 $103 $169 reversed $61 $-1 #
coedge $-1 $103 $103 $102 $169 forward $63 $-1 #
coedge $-1 $104 $104 $64 $105 forward $99 $-1 #
edge $-1 $170 0 $170 6.2831853071796004 $104 $171 forward 7 unknown #
loop $-1 $-1 $111 $65 #
plane-surface $-1 -40.864284188360237 -11.288964373055467 1.115211529438966 -0.66913061440640931 0 0.74314481823134659 0.74314481823134659 0 0.66913061440640931 forward_v I I I I #
loop $-1 $-1 $172 $42 #
coedge $-1 $109 $109 $110 $173 reversed $66 $-1 #
coedge $-1 $110 $110 $109 $173 forward $68 $-1 #
coedge $-1 $111 $111 $69 $112 forward $106 $-1 #
edge $-1 $174 0 $174 6.2831853071796004 $111 $175 forward 7 unknown #
loop $-1 $-1 $118 $70 #
plane-surface $-1 -40.864284188360237 -11.288964373055467 1.115211529438966 -0.66913061440640931 0 0.74314481823134659 0.74314481823134659 0 0.66913061440640931 forward_v I I I I #
loop $-1 $-1 $176 $45 #
coedge $-1 $116 $116 $117 $177 reversed $71 $-1 #
coedge $-1 $117 $117 $116 $177 forward $73 $-1 #
coedge $-1 $118 $118 $74 $119 forward $113 $-1 #
edge $-1 $178 0 $178 6.2831853071796004 $118 $179 forward 7 unknown #
face $-1 $180 $181 $18 $-1 $182 reversed single #
loop $-1 $-1 $183 $75 #
plane-surface $-1 -40.864284188360237 0 0 1 0 0 0 0 -1 forward_v I I I I #
coedge $-1 $184 $131 $185 $186 forward $76 $-1 #
coedge $-1 $187 $78 $184 $188 forward $49 $-1 #
coedge $-1 $78 $187 $189 $190 forward $49 $-1 #
coedge $-1 $134 $133 $78 $127 reversed $135 $-1 #
edge $-1 $191 -24.244454186693879 $192 24.244454186693879 $126 $193 forward 7 unknown #
coedge $-1 $80 $79 $194 $195 forward $31 $-1 #
coedge $-1 $196 $197 $79 $130 reversed $181 $-1 #
edge $-1 $137 -40.864284188360237 $198 40.864284188360237 $129 $199 forward 7 unknown #
coedge $-1 $123 $200 $80 $132 reversed $76 $-1 #
edge $-1 $201 -40.864284188360237 $136 40.864284188360237 $131 $202 forward 7 unknown #
coedge $-1 $126 $81 $200 $203 forward $135 $-1 #
coedge $-1 $81 $126 $196 $204 reversed $135 $-1 #
loop $-1 $-1 $133 $180 #
vertex $-1 $82 $205 #
vertex $-1 $82 $206 #
straight-curve $-1 40.864284188360237 0 5.7296732789367377 0 1 0 I I #
face $-1 $207 $208 $19 $-1 $209 reversed single #
loop $-1 $-1 $210 $83 #
plane-surface $-1 0 -27.889279693665859 0.63181109658010337 0 0 1 1 0 0 forward_v I I I I #
coedge $-1 $89 $211 $212 $213 forward $84 $-1 #
coedge $-1 $214 $86 $215 $216 reversed $53 $-1 #
coedge $-1 $86 $214 $149 $217 reversed $53 $-1 #
edge $-1 $150 -3.6318110965801043 $218 -0.63181109658010337 $86 $219 forward 7 unknown #
coedge $-1 $88 $87 $220 $221 forward $34 $-1 #
coedge $-1 $212 $222 $87 $148 forward $223 $-1 #
edge $-1 $224 0.63181109658010337 $151 3.6318110965801043 $147 $225 forward 7 unknown #
coedge $-1 $211 $89 $144 $217 forward $84 $-1 #
vertex $-1 $145 $226 #
vertex $-1 $213 $227 #
straight-curve $-1 0 -24.244454186693879 3.6318110965801043 1 0 0 I I #
face $-1 $-1 $228 $20 $-1 $229 reversed single #
loop $-1 $-1 $97 $91 #
plane-surface $-1 0 0 5.7296732789367377 0 0 1 1 0 0 forward_v I I I I #
coedge $-1 $230 $231 $232 $233 reversed $92 $-1 #
coedge $-1 $234 $94 $96 $163 forward $57 $-1 #
coedge $-1 $94 $234 $230 $235 forward $57 $-1 #
coedge $-1 $232 $97 $94 $160 forward $154 $-1 #
edge $-1 $166 -11.310320986222186 $236 0.021356613166719107 $159 $237 forward 7 unknown #
coedge $-1 $238 $239 $95 $162 forward $228 $-1 #
edge $-1 $240 -29.810475280593575 $165 -25.196013531095804 $161 $241 forward 7 unknown #
edge $-1 $166 -6.8962047919318312 $240 0 $96 $242 forward 7 unknown #
coedge $-1 $97 $232 $238 $243 forward $154 $-1 #
vertex $-1 $162 $244 #
vertex $-1 $98 $245 #
straight-curve $-1 -47.77568568041572 -16.954803172749919 5.7296732789367368 1 0 0 I I #
coedge $-1 $168 $168 $-1 $246 reversed $101 $-1 #
edge $-1 $247 0 $247 6.2831853071796004 $102 $248 forward 7 unknown #
vertex $-1 $105 $249 #
ellipse-curve $-1 -38.301844760067077 -14.68846765287214 3.4224424041878514 -0.66913061440640931 0 0.74314481823134659 0.3715724091156733 0 0.33456530720320465 1 I I #
coedge $-1 $172 $172 $-1 $250 reversed $108 $-1 #
edge $-1 $251 0 $251 6.2831853071796004 $109 $252 forward 7 unknown #
vertex $-1 $112 $253 #
ellipse-curve $-1 -38.301844760067077 -11.288964373055467 3.4224424041878514 -0.66913061440640931 0 0.74314481823134659 0.3715724091156733 0 0.33456530720320465 1 I I #
coedge $-1 $176 $176 $-1 $254 reversed $115 $-1 #
edge $-1 $255 0 $255 6.2831853071796004 $116 $256 forward 7 unknown #
vertex $-1 $119 $257 #
ellipse-curve $-1 -38.301844760067077 -7.889461093238797 3.4224424041878514 -0.66913061440640931 0 0.74314481823134659 0.3715724091156733 0 0.33456530720320465 1 I I #
face $-1 $-1 $135 $18 $-1 $258 reversed single #
loop $-1 $-1 $196 $120 #
plane-surface $-1 0 24.244454186693879 0 0 -1 0 0 0 -1 forward_v I I I I #
coedge $-1 $259 $194 $197 $260 forward $121 $-1 #
coedge $-1 $200 $123 $124 $188 reversed $76 $-1 #
coedge $-1 $194 $259 $123 $186 reversed $121 $-1 #
edge $-1 $201 -5.7296732789367377 $261 5.7296732789367377 $185 $262 forward 7 unknown #
coedge $-1 $125 $124 $259 $263 forward $49 $-1 #
edge $-1 $192 -40.864284188360237 $261 40.864284188360237 $184 $264 forward 7 unknown #
coedge $-1 $197 $196 $125 $190 reversed $181 $-1 #
edge $-1 $265 -40.864284188360237 $191 40.864284188360237 $189 $266 forward 7 unknown #
vertex $-1 $127 $267 #
vertex $-1 $203 $268 #
straight-curve $-1 40.864284188360237 0 -5.7296732789367377 0 -1 0 I I #
coedge $-1 $183 $185 $128 $195 reversed $121 $-1 #
edge $-1 $198 -24.244454186693879 $201 24.244454186693879 $194 $269 forward 7 unknown #
coedge $-1 $189 $129 $134 $204 forward $181 $-1 #
coedge $-1 $129 $189 $183 $260 reversed $181 $-1 #
vertex $-1 $130 $270 #
straight-curve $-1 0 24.244454186693879 5.7296732789367377 -1 0 0 I I #
coedge $-1 $131 $184 $133 $203 reversed $76 $-1 #
vertex $-1 $195 $271 #
straight-curve $-1 0 -24.244454186693879 5.7296732789367377 1 0 0 I I #
edge $-1 $136 -5.7296732789367377 $192 5.7296732789367377 $133 $272 forward 7 unknown #
edge $-1 $137 -5.7296732789367377 $191 5.7296732789367377 $134 $273 forward 7 unknown #
point $-1 40.864284188360237 -24.244454186693879 5.7296732789367377 #
point $-1 40.864284188360237 24.244454186693879 5.7296732789367377 #
face $-1 $-1 $223 $19 $-1 $274 reversed single #
loop $-1 $-1 $275 $139 #
plane-surface $-1 0 -31.534105200637839 2.1318110965801038 0 1 0 0 0 1 forward_v I I I I #
coedge $-1 $276 $220 $222 $277 forward $140 $-1 #
coedge $-1 $142 $149 $278 $279 forward $84 $-1 #
coedge $-1 $280 $147 $142 $213 reversed $223 $-1 #
edge $-1 $281 -3.6448255069719799 $151 3.6448255069719799 $212 $282 forward 7 unknown #
coedge $-1 $144 $143 $275 $283 reversed $53 $-1 #
coedge $-1 $220 $276 $143 $216 forward $140 $-1 #
edge $-1 $284 -3.6448255069719799 $218 3.6448255069719799 $143 $285 forward 7 unknown #
edge $-1 $150 -3.6448255069719799 $286 3.6448255069719799 $144 $287 forward 7 unknown #
vertex $-1 $145 $288 #
straight-curve $-1 -40.864284188360237 -24.244454186693879 0 0 0 -1 I I #
coedge $-1 $210 $215 $146 $221 reversed $140 $-1 #
edge $-1 $224 -40.864284188360237 $218 40.864284188360237 $220 $289 forward 7 unknown #
coedge $-1 $147 $280 $210 $277 reversed $223 $-1 #
loop $-1 $-1 $147 $207 #
vertex $-1 $148 $290 #
straight-curve $-1 40.864284188360237 -24.244454186693879 0 0 0 1 I I #
point $-1 -40.864284188360237 -24.244454186693879 3.6318110965801043 #
point $-1 40.864284188360237 -24.244454186693879 3.6318110965801043 #
loop $-1 $-1 $161 $153 #
plane-surface $-1 -40.864284188360237 0 0 1 0 0 0 0 -1 forward_v I I I I #
coedge $-1 $231 $156 $158 $235 reversed $92 $-1 #
coedge $-1 $156 $230 $291 $292 reversed $92 $-1 #
coedge $-1 $164 $159 $156 $233 forward $154 $-1 #
edge $-1 $236 -12.036280348641803 $293 -6.9114014920554823 $232 $294 forward 7 unknown #
coedge $-1 $158 $157 $239 $295 reversed $57 $-1 #
edge $-1 $296 0 $236 6.8962047919318312 $230 $297 forward 7 unknown #
vertex $-1 $160 $298 #
straight-curve $-1 -35.739405331773909 -5.6444821865277337 5.7296732789367377 0 1 0 I I #
coedge $-1 $291 $161 $164 $243 reversed $228 $-1 #
coedge $-1 $161 $291 $234 $295 forward $228 $-1 #
vertex $-1 $162 $299 #
straight-curve $-1 -40.864284188360237 -16.954803172749919 30.925686810032541 0 0 1 I I #
straight-curve $-1 -40.864284188360237 -16.954803172749919 1.115211529438966 -0.74314481823134659 0 -0.66913061440640931 I I #
edge $-1 $293 5.6231255733610146 $165 16.954803172749919 $238 $300 forward 7 unknown #
point $-1 -40.864284188360237 -16.954803172749919 5.7296732789367377 #
point $-1 -35.739405331773916 -16.954803172749919 5.7296732789367377 #
edge $-1 $301 1 $301 0 $168 $-1 forward 7 unknown #
vertex $-1 $169 $302 #
ellipse-curve $-1 -37.475095668311624 -14.68846765287214 2.504244536256536 -0.66913061440640931 0 0.74314481823134659 0.3715724091156733 0 0.33456530720320465 1 I I #
point $-1 -37.930272350951398 -14.68846765287214 3.7570077113910494 #
edge $-1 $303 1 $303 0 $172 $-1 forward 7 unknown #
vertex $-1 $173 $304 #
ellipse-curve $-1 -37.475095668311624 -11.288964373055467 2.504244536256536 -0.66913061440640931 0 0.74314481823134659 0.3715724091156733 0 0.33456530720320465 1 I I #
point $-1 -37.930272350951398 -11.288964373055467 3.7570077113910494 #
edge $-1 $305 1 $305 0 $176 $-1 forward 7 unknown #
vertex $-1 $177 $306 #
ellipse-curve $-1 -37.475095668311624 -7.889461093238797 2.504244536256536 -0.66913061440640931 0 0.74314481823134659 0.3715724091156733 0 0.33456530720320465 1 I I #
point $-1 -37.930272350951398 -7.889461093238797 3.7570077113910494 #
plane-surface $-1 40.864284188360237 0 0 -1 0 0 0 0 1 forward_v I I I I #
coedge $-1 $185 $183 $187 $263 reversed $121 $-1 #
edge $-1 $198 -5.7296732789367377 $265 5.7296732789367377 $197 $307 forward 7 unknown #
vertex $-1 $263 $308 #
straight-curve $-1 -40.864284188360237 -24.244454186693879 0 0 0 -1 I I #
edge $-1 $261 -24.244454186693879 $265 24.244454186693879 $259 $309 forward 7 unknown #
straight-curve $-1 0 -24.244454186693879 -5.7296732789367377 -1 0 0 I I #
vertex $-1 $190 $310 #
straight-curve $-1 0 24.244454186693879 -5.7296732789367377 1 0 0 I I #
point $-1 40.864284188360237 24.244454186693879 -5.7296732789367377 #
point $-1 40.864284188360237 -24.244454186693879 -5.7296732789367377 #
straight-curve $-1 -40.864284188360237 0 5.7296732789367377 0 -1 0 I I #
point $-1 -40.864284188360237 24.244454186693879 5.7296732789367377 #
point $-1 -40.864284188360237 -24.244454186693879 5.7296732789367377 #
straight-curve $-1 40.864284188360237 -24.244454186693879 0 0 0 -1 I I #
straight-curve $-1 40.864284188360237 24.244454186693879 0 0 0 -1 I I #
plane-surface $-1 40.864284188360237 0 0 -1 0 0 0 0 1 forward_v I I I I #
coedge $-1 $311 $278 $214 $283 forward $208 $-1 #
coedge $-1 $215 $210 $311 $312 forward $140 $-1 #
edge $-1 $224 -3.6448255069719799 $313 3.6448255069719799 $222 $314 forward 7 unknown #
coedge $-1 $275 $315 $211 $279 reversed $208 $-1 #
edge $-1 $286 -40.864284188360237 $281 40.864284188360237 $278 $316 forward 7 unknown #
coedge $-1 $222 $212 $315 $317 forward $223 $-1 #
vertex $-1 $213 $318 #
straight-curve $-1 40.864284188360237 -27.889279693665859 3.6318110965801043 0 1 0 I I #
edge $-1 $286 -1.5000000000000004 $284 1.5000000000000004 $214 $319 forward 7 unknown #
vertex $-1 $216 $320 #
straight-curve $-1 -40.864284188360237 -27.889279693665859 0.63181109658010337 0 1 0 I I #
vertex $-1 $217 $321 #
straight-curve $-1 -40.864284188360237 -27.889279693665859 3.6318110965801043 0 -1 0 I I #
point $-1 -40.864284188360237 -24.244454186693879 0.63181109658010337 #
straight-curve $-1 0 -24.244454186693879 0.63181109658010337 -1 0 0 I I #
point $-1 40.864284188360237 -24.244454186693879 0.63181109658010337 #
coedge $-1 $239 $238 $231 $292 forward $228 $-1 #
edge $-1 $293 25.196013531095804 $296 29.810475280593575 $291 $322 forward 7 unknown #
vertex $-1 $243 $323 #
straight-curve $-1 -47.77568568041572 -5.6231255733610146 5.7296732789367368 -1 0 0 I I #
edge $-1 $296 -0.021356613166719107 $240 11.310320986222186 $239 $324 forward 7 unknown #
vertex $-1 $295 $325 #
straight-curve $-1 -40.864284188360237 -5.6231255733610146 1.115211529438966 0.74314481823134659 0 0.66913061440640931 I I #
point $-1 -35.739405331773916 -5.6231255733610146 5.7296732789367377 #
point $-1 -40.864284188360237 -16.954803172749919 1.115211529438966 #
straight-curve $-1 -40.864284188360237 0 5.7296732789367377 0 -1 0 I I #
vertex $-1 $246 $326 #
point $-1 -37.103523259195953 -14.68846765287214 2.8388098434597406 #
vertex $-1 $250 $327 #
point $-1 -37.103523259195953 -11.288964373055467 2.8388098434597406 #
vertex $-1 $254 $328 #
point $-1 -37.103523259195953 -7.889461093238797 2.8388098434597406 #
straight-curve $-1 -40.864284188360237 24.244454186693879 0 0 0 -1 I I #
point $-1 -40.864284188360237 -24.244454186693879 -5.7296732789367377 #
straight-curve $-1 -40.864284188360237 0 -5.7296732789367377 0 1 0 I I #
point $-1 -40.864284188360237 24.244454186693879 -5.7296732789367377 #
coedge $-1 $315 $275 $276 $312 reversed $208 $-1 #
edge $-1 $313 -40.864284188360237 $284 40.864284188360237 $311 $329 forward 7 unknown #
vertex $-1 $317 $330 #
straight-curve $-1 40.864284188360237 -27.889279693665859 0.63181109658010337 0 -1 0 I I #
coedge $-1 $278 $311 $280 $317 reversed $208 $-1 #
straight-curve $-1 0 -31.534105200637839 3.6318110965801043 1 0 0 I I #
edge $-1 $281 -1.5000000000000004 $313 1.5000000000000004 $280 $331 forward 7 unknown #
point $-1 40.864284188360237 -31.534105200637839 3.6318110965801043 #
straight-curve $-1 -40.864284188360237 -31.534105200637839 2.1318110965801038 0 0 -1 I I #
point $-1 -40.864284188360237 -31.534105200637839 0.63181109658010337 #
point $-1 -40.864284188360237 -31.534105200637839 3.6318110965801043 #
straight-curve $-1 -40.864284188360237 -5.6231255733610146 30.925686810032541 0 0 -1 I I #
point $-1 -40.864284188360237 -5.6231255733610146 5.7296732789367377 #
straight-curve $-1 -40.864284188360237 -5.6444821865277337 1.1152115294389628 0 -1 0 I I #
point $-1 -40.864284188360237 -5.6231255733610146 1.115211529438966 #
point $-1 -37.140530361108418 -14.68846765287214 2.1326721271408626 #
point $-1 -37.140530361108418 -11.288964373055467 2.1326721271408626 #
point $-1 -37.140530361108418 -7.889461093238797 2.1326721271408626 #
straight-curve $-1 0 -31.534105200637839 0.63181109658010337 -1 0 0 I I #
point $-1 40.864284188360237 -31.534105200637839 0.63181109658010337 #
straight-curve $-1 40.864284188360237 -31.534105200637839 2.1318110965801038 0 0 -1 I I #
End-of-ACIS-data 