500 0 10 0           
7 Unknown 11 ACIS 5.0 NT 24 Fri Mar 26 20:36:17 1999 
-1 9.9999999999999995e-007 1e-010 
body $-1 $10 $-1 $11 #
body $-1 $12 $-1 $13 #
body $-1 $14 $-1 $15 #
body $-1 $16 $-1 $17 #
body $-1 $18 $-1 $19 #
body $-1 $20 $-1 $21 #
body $-1 $22 $-1 $23 #
body $-1 $24 $-1 $25 #
body $-1 $26 $-1 $27 #
body $-1 $28 $-1 $29 #
lump $-1 $-1 $30 $0 #
transform $-1 1 0 0 0 1 0 0 0 1 46.246528519547105 31.483403638803836 15.503032503813708 1 rotate no_reflect no_shear #
lump $-1 $-1 $31 $1 #
transform $-1 1 0 0 0 1 0 0 0 1 46.246528519547105 31.483403638803836 15.503032503813708 1 rotate no_reflect no_shear #
lump $-1 $-1 $32 $2 #
transform $-1 1 0 0 0 1 0 0 0 1 46.246528519547105 31.483403638803836 15.503032503813708 1 rotate no_reflect no_shear #
lump $-1 $-1 $33 $3 #
transform $-1 1 0 0 0 1 0 0 0 1 46.246528519547105 31.483403638803836 15.503032503813708 1 rotate no_reflect no_shear #
lump $-1 $-1 $34 $4 #
transform $-1 1 0 0 0 1 0 0 0 1 46.246528519547105 31.483403638803836 15.503032503813708 1 rotate no_reflect no_shear #
lump $-1 $-1 $35 $5 #
transform $-1 1 0 0 0 1 0 0 0 1 46.246528519547105 31.483403638803836 15.503032503813708 1 rotate no_reflect no_shear #
lump $-1 $-1 $36 $6 #
transform $-1 1 0 0 0 1 0 0 0 1 46.246528519547105 31.483403638803836 15.503032503813708 1 rotate no_reflect no_shear #
lump $-1 $-1 $37 $7 #
transform $-1 1 0 0 0 1 0 0 0 1 46.246528519547105 31.483403638803836 15.503032503813708 1 rotate no_reflect no_shear #
lump $-1 $-1 $38 $8 #
transform $-1 1 0 0 0 1 0 0 0 1 46.246528519547105 31.483403638803836 15.503032503813708 1 rotate no_reflect no_shear #
lump $-1 $-1 $39 $9 #
transform $-1 1 0 0 0 1 0 0 0 1 46.246528519547105 31.483403638803836 15.503032503813708 1 rotate no_reflect no_shear #
shell $-1 $-1 $-1 $40 $-1 $10 #
shell $-1 $-1 $-1 $41 $-1 $12 #
shell $-1 $-1 $-1 $42 $-1 $14 #
shell $-1 $-1 $-1 $43 $-1 $16 #
shell $-1 $-1 $-1 $44 $-1 $18 #
shell $-1 $-1 $-1 $45 $-1 $20 #
shell $-1 $-1 $-1 $46 $-1 $22 #
shell $-1 $-1 $-1 $47 $-1 $24 #
shell $-1 $-1 $-1 $48 $-1 $26 #
shell $-1 $-1 $-1 $49 $-1 $28 #
face $-1 $50 $51 $30 $-1 $52 forward single #
face $-1 $53 $54 $31 $-1 $55 reversed single #
face $-1 $56 $57 $32 $-1 $58 forward single #
face $-1 $59 $60 $33 $-1 $61 reversed single #
face $-1 $62 $63 $34 $-1 $64 forward single #
face $-1 $65 $66 $35 $-1 $67 forward single #
face $-1 $68 $69 $36 $-1 $70 reversed single #
face $-1 $71 $72 $37 $-1 $73 forward single #
face $-1 $74 $75 $38 $-1 $76 forward single #
face $-1 $77 $78 $39 $-1 $79 forward single #
face $-1 $80 $81 $30 $-1 $82 reversed single #
loop $-1 $-1 $83 $40 #
plane-surface $-1 0 0 15.503032503813708 0 0 1 1 0 0 forward_v I I I I #
face $-1 $84 $85 $31 $-1 $86 reversed single #
loop $-1 $-1 $87 $41 #
plane-surface $-1 -40.469305738303234 0 7.8793085148323616 0 0 1 1 0 0 forward_v I I I I #
face $-1 $88 $89 $32 $-1 $90 reversed single #
loop $-1 $-1 $91 $42 #
plane-surface $-1 46.246528519547105 0 0 -1 0 0 0 0 1 forward_v I I I I #
face $-1 $92 $93 $33 $-1 $94 reversed single #
loop $-1 $-1 $95 $43 #
plane-surface $-1 -27.581526860603056 -80.497257018813798 82.39967934673173 -1 0 0 0 -0.52991927123019833 0.84804809178421925 forward_v I I I I #
face $-1 $96 $97 $34 $-1 $98 forward single #
loop $-1 $99 $100 $44 #
cone-surface $-1 -32.660495500928988 -21.877482373097681 9.1392158451727568 0 0.52991927123019833 -0.84804809178421925 1 0 0 1 I I 0 1 1 forward I I I I #
face $-1 $101 $102 $35 $-1 $103 forward single #
loop $-1 $104 $105 $45 #
cone-surface $-1 -29.61311431673343 -21.877482373097681 9.1392158451727568 0 0.52991927123019833 -0.84804809178421925 1 0 0 1 I I 0 1 1 forward I I I I #
face $-1 $106 $107 $36 $-1 $108 reversed single #
loop $-1 $-1 $109 $46 #
plane-surface $-1 22.223899603265203 34.908242374811294 114.34826417359641 1 0 0 0 -0.5877852598018023 -0.80901698891910034 forward_v I I I I #
face $-1 $110 $111 $37 $-1 $112 forward single #
loop $-1 $113 $114 $47 #
cone-surface $-1 24.526367375765695 21.473386917416402 7.5366020034321233 0 -0.5877852598018023 -0.80901698891910034 1 0 0 1 I I 0 1 1 forward I I I I #
face $-1 $115 $116 $38 $-1 $117 forward single #
loop $-1 $118 $119 $48 #
cone-surface $-1 27.98006903451644 21.473386917416402 7.5366020034321233 0 -0.5877852598018023 -0.80901698891910034 1 0 0 1 I I 0 1 1 forward I I I I #
face $-1 $120 $121 $39 $-1 $122 forward single #
loop $-1 $123 $124 $49 #
cone-surface $-1 31.433770693267185 21.473386917416402 7.5366020034321233 0 -0.5877852598018023 -0.80901698891910034 1 0 0 1 I I 0 1 1 forward I I I I #
face $-1 $125 $126 $30 $-1 $127 reversed single #
loop $-1 $-1 $128 $50 #
plane-surface $-1 0 0 -15.503032503813708 0 0 1 1 0 0 forward_v I I I I #
coedge $-1 $129 $130 $131 $132 forward $51 $-1 #
face $-1 $133 $134 $31 $-1 $135 reversed single #
loop $-1 $-1 $136 $53 #
plane-surface $-1 -34.692082957059363 0 11.691170509323035 -1 0 0 0 0 1 forward_v I I I I #
coedge $-1 $137 $138 $139 $140 forward $54 $-1 #
face $-1 $141 $142 $32 $-1 $143 reversed single #
loop $-1 $-1 $144 $56 #
plane-surface $-1 0 0 -15.503032503813708 0 0 1 1 0 0 forward_v I I I I #
coedge $-1 $145 $146 $147 $148 forward $57 $-1 #
face $-1 $149 $150 $33 $-1 $151 reversed single #
loop $-1 $-1 $152 $59 #
plane-surface $-1 -31.136804908831209 -31.483403638803829 3.9611188214389301 0 -0.52991927123019833 0.84804809178421925 1 0 0 forward_v I I I I #
coedge $-1 $153 $154 $155 $156 reversed $60 $-1 #
face $-1 $-1 $157 $34 $-1 $158 forward single #
loop $-1 $159 $160 $62 #
cone-surface $-1 -32.660495500928988 -21.24206280077583 8.1223319818270792 0 0.52991927123019833 -0.84804809178421925 0.5 0 0 1 I I -0.70710678118654746 0.70710678118654746 0.5 forward I I I I #
loop $-1 $-1 $161 $44 #
coedge $-1 $100 $100 $162 $163 reversed $63 $-1 #
face $-1 $-1 $164 $35 $-1 $165 forward single #
loop $-1 $166 $167 $65 #
cone-surface $-1 -29.61311431673343 -21.24206280077583 8.1223319818270792 0 0.52991927123019833 -0.84804809178421925 0.5 0 0 1 I I -0.70710678118654746 0.70710678118654746 0.5 forward I I I I #
loop $-1 $-1 $168 $45 #
coedge $-1 $105 $105 $169 $170 reversed $66 $-1 #
face $-1 $171 $172 $36 $-1 $173 reversed single #
loop $-1 $-1 $174 $68 #
plane-surface $-1 27.98006903451644 -19.457813186775624 39.51980967190579 0 0.5877852598018023 0.80901698891910034 1 0 0 forward_v I I I I #
coedge $-1 $175 $176 $177 $178 reversed $69 $-1 #
face $-1 $-1 $179 $37 $-1 $180 forward single #
loop $-1 $181 $182 $71 #
cone-surface $-1 24.526367375765695 20.111957360464046 5.6627550118242507 0 -0.5877852598018023 -0.80901698891910034 0.5 0 0 1 I I -0.70710678118654746 0.70710678118654746 0.5 forward I I I I #
loop $-1 $-1 $183 $47 #
coedge $-1 $114 $114 $184 $185 reversed $72 $-1 #
face $-1 $-1 $186 $38 $-1 $187 forward single #
loop $-1 $188 $189 $74 #
cone-surface $-1 27.98006903451644 20.111957360464046 5.6627550118242507 0 -0.5877852598018023 -0.80901698891910034 0.5 0 0 1 I I -0.70710678118654746 0.70710678118654746 0.5 forward I I I I #
loop $-1 $-1 $190 $48 #
coedge $-1 $119 $119 $191 $192 reversed $75 $-1 #
face $-1 $-1 $193 $39 $-1 $194 forward single #
loop $-1 $195 $196 $77 #
cone-surface $-1 31.433770693267185 20.111957360464046 5.6627550118242507 0 -0.5877852598018023 -0.80901698891910034 0.5 0 0 1 I I -0.70710678118654746 0.70710678118654746 0.5 forward I I I I #
loop $-1 $-1 $197 $49 #
coedge $-1 $124 $124 $198 $199 reversed $78 $-1 #
face $-1 $200 $201 $30 $-1 $202 reversed single #
loop $-1 $-1 $203 $80 #
plane-surface $-1 0 -31.483403638803836 0 0 1 0 0 0 1 forward_v I I I I #
coedge $-1 $204 $205 $206 $207 forward $81 $-1 #
coedge $-1 $208 $83 $209 $210 forward $51 $-1 #
coedge $-1 $83 $208 $211 $212 forward $51 $-1 #
coedge $-1 $213 $214 $83 $132 reversed $215 $-1 #
edge $-1 $216 -31.483403638803836 $217 31.483403638803836 $131 $218 forward 7 unknown #
face $-1 $219 $220 $31 $-1 $221 reversed single #
loop $-1 $-1 $222 $84 #
plane-surface $-1 0 31.483403638803836 0 0 -1 0 0 0 -1 forward_v I I I I #
coedge $-1 $139 $223 $224 $225 reversed $85 $-1 #
coedge $-1 $226 $87 $227 $228 reversed $54 $-1 #
coedge $-1 $87 $226 $229 $230 reversed $54 $-1 #
coedge $-1 $231 $136 $87 $140 reversed $85 $-1 #
edge $-1 $232 -31.483403638803836 $233 31.483403638803836 $139 $234 forward 7 unknown #
face $-1 $235 $236 $32 $-1 $237 reversed single #
loop $-1 $-1 $147 $88 #
plane-surface $-1 52.501673546436813 -7.8567385750828613 0 0 1 0 0 0 1 forward_v I I I I #
coedge $-1 $238 $239 $146 $240 forward $89 $-1 #
coedge $-1 $241 $91 $242 $243 reversed $57 $-1 #
coedge $-1 $91 $241 $144 $240 reversed $57 $-1 #
coedge $-1 $244 $245 $91 $148 reversed $142 $-1 #
edge $-1 $246 -15.503032503813708 $247 15.503032503813708 $147 $248 forward 7 unknown #
face $-1 $249 $250 $33 $-1 $251 forward single #
loop $-1 $-1 $252 $92 #
plane-surface $-1 0 -31.483403638803836 0 0 1 0 0 0 1 forward_v I I I I #
coedge $-1 $253 $254 $255 $256 reversed $93 $-1 #
coedge $-1 $154 $95 $257 $258 reversed $60 $-1 #
coedge $-1 $95 $153 $253 $259 reversed $60 $-1 #
coedge $-1 $255 $260 $95 $156 forward $250 $-1 #
edge $-1 $261 8.7652248706030633 $262 27.236147528601908 $155 $263 forward 7 unknown #
loop $-1 $-1 $162 $96 #
plane-surface $-1 -31.136804908831209 -31.483403638803829 3.9611188214389301 0 -0.52991927123019833 0.84804809178421925 1 0 0 forward_v I I I I #
loop $-1 $-1 $264 $62 #
coedge $-1 $160 $160 $161 $265 reversed $97 $-1 #
coedge $-1 $161 $161 $160 $265 forward $99 $-1 #
coedge $-1 $162 $162 $100 $163 forward $157 $-1 #
edge $-1 $266 -1.5080103936493007e-015 $266 6.2831853071795987 $162 $267 forward 7 unknown #
loop $-1 $-1 $169 $101 #
plane-surface $-1 -31.136804908831209 -31.483403638803829 3.9611188214389301 0 -0.52991927123019833 0.84804809178421925 1 0 0 forward_v I I I I #
loop $-1 $-1 $268 $65 #
coedge $-1 $167 $167 $168 $269 reversed $102 $-1 #
coedge $-1 $168 $168 $167 $269 forward $104 $-1 #
coedge $-1 $169 $169 $105 $170 forward $164 $-1 #
edge $-1 $270 -1.5080103936493007e-015 $270 6.2831853071795987 $169 $271 forward 7 unknown #
face $-1 $272 $273 $36 $-1 $274 reversed single #
loop $-1 $-1 $275 $106 #
plane-surface $-1 33.736238465767677 34.908242374811294 114.34826417359641 -1 0 0 0 0.5877852598018023 0.80901698891910034 forward_v I I I I #
coedge $-1 $276 $277 $278 $279 reversed $107 $-1 #
coedge $-1 $176 $109 $280 $281 reversed $69 $-1 #
coedge $-1 $109 $175 $276 $282 reversed $69 $-1 #
coedge $-1 $278 $283 $109 $178 forward $284 $-1 #
edge $-1 $285 -14.029282451398188 $286 3.8556771372738154 $177 $287 forward 7 unknown #
loop $-1 $-1 $184 $110 #
plane-surface $-1 27.98006903451644 -19.457813186775624 39.51980967190579 0 0.5877852598018023 0.80901698891910034 1 0 0 forward_v I I I I #
loop $-1 $-1 $288 $71 #
coedge $-1 $182 $182 $183 $289 reversed $111 $-1 #
coedge $-1 $183 $183 $182 $289 forward $113 $-1 #
coedge $-1 $184 $184 $114 $185 forward $179 $-1 #
edge $-1 $290 7.9751585205580499e-016 $290 6.2831853071796013 $184 $291 forward 7 unknown #
loop $-1 $-1 $191 $115 #
plane-surface $-1 27.98006903451644 -19.457813186775624 39.51980967190579 0 0.5877852598018023 0.80901698891910034 1 0 0 forward_v I I I I #
loop $-1 $-1 $292 $74 #
coedge $-1 $189 $189 $190 $293 reversed $116 $-1 #
coedge $-1 $190 $190 $189 $293 forward $118 $-1 #
coedge $-1 $191 $191 $119 $192 forward $186 $-1 #
edge $-1 $294 7.9751585205580499e-016 $294 6.2831853071796013 $191 $295 forward 7 unknown #
loop $-1 $-1 $198 $120 #
plane-surface $-1 27.98006903451644 -19.457813186775624 39.51980967190579 0 0.5877852598018023 0.80901698891910034 1 0 0 forward_v I I I I #
loop $-1 $-1 $296 $77 #
coedge $-1 $196 $196 $197 $297 reversed $121 $-1 #
coedge $-1 $197 $197 $196 $297 forward $123 $-1 #
coedge $-1 $198 $198 $124 $199 forward $193 $-1 #
edge $-1 $298 7.9751585205580499e-016 $298 6.2831853071796013 $198 $299 forward 7 unknown #
face $-1 $300 $301 $30 $-1 $302 reversed single #
loop $-1 $-1 $303 $125 #
plane-surface $-1 -46.246528519547105 0 0 1 0 0 0 0 -1 forward_v I I I I #
coedge $-1 $304 $211 $305 $306 forward $126 $-1 #
coedge $-1 $307 $128 $304 $308 forward $81 $-1 #
coedge $-1 $128 $307 $309 $310 forward $81 $-1 #
coedge $-1 $214 $213 $128 $207 reversed $215 $-1 #
edge $-1 $311 -31.483403638803836 $312 31.483403638803836 $206 $313 forward 7 unknown #
coedge $-1 $130 $129 $314 $315 forward $51 $-1 #
coedge $-1 $316 $317 $129 $210 reversed $301 $-1 #
edge $-1 $217 -46.246528519547105 $318 46.246528519547105 $209 $319 forward 7 unknown #
coedge $-1 $203 $320 $130 $212 reversed $126 $-1 #
edge $-1 $321 -46.246528519547105 $216 46.246528519547105 $211 $322 forward 7 unknown #
coedge $-1 $206 $131 $320 $323 forward $215 $-1 #
coedge $-1 $131 $206 $316 $324 reversed $215 $-1 #
loop $-1 $-1 $213 $300 #
vertex $-1 $132 $325 #
vertex $-1 $132 $326 #
straight-curve $-1 46.246528519547105 0 15.503032503813708 0 1 0 I I #
face $-1 $327 $328 $31 $-1 $329 forward single #
loop $-1 $-1 $330 $133 #
plane-surface $-1 -46.246528519547105 0 0 1 0 0 0 0 -1 forward_v I I I I #
coedge $-1 $229 $331 $231 $332 forward $134 $-1 #
coedge $-1 $136 $231 $333 $334 reversed $85 $-1 #
coedge $-1 $335 $227 $136 $225 forward $336 $-1 #
edge $-1 $233 2.0337232601708441 $337 9.6574472491521917 $224 $338 forward 7 unknown #
coedge $-1 $138 $137 $330 $339 reversed $54 $-1 #
coedge $-1 $224 $340 $137 $228 forward $336 $-1 #
edge $-1 $341 -26.011875650395488 $233 -14.457430087907746 $227 $342 forward 7 unknown #
coedge $-1 $343 $222 $138 $230 forward $134 $-1 #
edge $-1 $232 14.457430087907746 $344 26.011875650395488 $229 $345 forward 7 unknown #
coedge $-1 $223 $139 $222 $332 reversed $85 $-1 #
vertex $-1 $230 $346 #
vertex $-1 $228 $347 #
straight-curve $-1 -34.692082957059363 0 7.8793085148323616 0 -1 0 I I #
face $-1 $348 $349 $32 $-1 $350 reversed single #
loop $-1 $-1 $351 $141 #
plane-surface $-1 52.501673546436813 -0.47733863117641917 0 0 -1 0 0 0 -1 forward_v I I I I #
coedge $-1 $352 $144 $353 $354 forward $89 $-1 #
coedge $-1 $144 $352 $244 $355 forward $89 $-1 #
edge $-1 $246 -7.8567385750828613 $356 -0.47733863117641917 $144 $357 forward 7 unknown #
coedge $-1 $146 $145 $358 $359 forward $57 $-1 #
coedge $-1 $360 $361 $145 $243 forward $362 $-1 #
edge $-1 $363 0.47733863117641917 $247 7.8567385750828613 $242 $364 forward 7 unknown #
coedge $-1 $365 $147 $239 $355 reversed $142 $-1 #
coedge $-1 $147 $365 $360 $366 reversed $142 $-1 #
vertex $-1 $240 $367 #
vertex $-1 $366 $368 #
straight-curve $-1 46.246528519547105 -7.8567385750828613 0 0 0 1 I I #
face $-1 $-1 $369 $33 $-1 $370 forward single #
loop $-1 $-1 $155 $149 #
plane-surface $-1 0 0 15.503032503813708 0 0 1 1 0 0 forward_v I I I I #
coedge $-1 $371 $372 $373 $374 forward $150 $-1 #
coedge $-1 $375 $152 $154 $259 forward $93 $-1 #
coedge $-1 $152 $375 $376 $377 forward $93 $-1 #
coedge $-1 $378 $155 $152 $256 forward $250 $-1 #
edge $-1 $262 12.013124406187451 $379 19.123680502643758 $255 $380 forward 7 unknown #
coedge $-1 $372 $371 $153 $258 forward $150 $-1 #
edge $-1 $381 -37.238720851926942 $261 -25.696807169552159 $257 $382 forward 7 unknown #
edge $-1 $262 -21.780513200775708 $381 8.3790584163743152e-015 $154 $383 forward 7 unknown #
coedge $-1 $155 $378 $372 $384 forward $250 $-1 #
vertex $-1 $156 $385 #
vertex $-1 $156 $386 #
straight-curve $-1 -27.581526860603056 -40.248628509406899 15.503032503813706 0 1 0 I I #
coedge $-1 $264 $264 $-1 $387 reversed $159 $-1 #
edge $-1 $388 0 $388 6.2831853071796004 $160 $389 forward 7 unknown #
vertex $-1 $163 $390 #
ellipse-curve $-1 -32.660495500928988 -22.247942309804422 9.7320756626263112 0 -0.52991927123019833 0.84804809178421925 1 0 0 1 I I #
coedge $-1 $268 $268 $-1 $391 reversed $166 $-1 #
edge $-1 $392 0 $392 6.2831853071796004 $167 $393 forward 7 unknown #
vertex $-1 $170 $394 #
ellipse-curve $-1 -29.61311431673343 -22.247942309804422 9.7320756626263112 0 -0.52991927123019833 0.84804809178421925 1 0 0 1 I I #
face $-1 $-1 $284 $36 $-1 $395 forward single #
loop $-1 $-1 $396 $171 #
plane-surface $-1 0 31.483403638803836 0 0 -1 0 0 0 -1 forward_v I I I I #
coedge $-1 $397 $398 $399 $400 reversed $172 $-1 #
coedge $-1 $401 $174 $176 $282 forward $107 $-1 #
coedge $-1 $174 $401 $397 $402 forward $107 $-1 #
coedge $-1 $399 $177 $174 $279 forward $284 $-1 #
edge $-1 $286 8.2338650860069826 $403 19.746203948509457 $278 $404 forward 7 unknown #
coedge $-1 $405 $406 $175 $281 forward $273 $-1 #
edge $-1 $407 -54.665283589451057 $285 -41.671099582984496 $280 $408 forward 7 unknown #
edge $-1 $286 40.859781302087093 $407 62.966807277607678 $176 $409 forward 7 unknown #
coedge $-1 $177 $399 $405 $410 forward $284 $-1 #
loop $-1 $-1 $399 $272 #
vertex $-1 $281 $411 #
vertex $-1 $178 $412 #
straight-curve $-1 22.223899603265203 17.454121187405647 15.503032503813706 0 -1 0 I I #
coedge $-1 $288 $288 $-1 $413 reversed $181 $-1 #
edge $-1 $414 0 $414 6.2831853071796004 $182 $415 forward 7 unknown #
vertex $-1 $185 $416 #
ellipse-curve $-1 24.526367375765695 22.540923844467837 9.0059405005804205 0 0.5877852598018023 0.80901698891910034 1 0 0 1 I I #
coedge $-1 $292 $292 $-1 $417 reversed $188 $-1 #
edge $-1 $418 0 $418 6.2831853071796004 $189 $419 forward 7 unknown #
vertex $-1 $192 $420 #
ellipse-curve $-1 27.98006903451644 22.540923844467837 9.0059405005804205 0 0.5877852598018023 0.80901698891910034 1 0 0 1 I I #
coedge $-1 $296 $296 $-1 $421 reversed $195 $-1 #
edge $-1 $422 0 $422 6.2831853071796004 $196 $423 forward 7 unknown #
vertex $-1 $199 $424 #
ellipse-curve $-1 31.433770693267185 22.540923844467837 9.0059405005804205 0 0.5877852598018023 0.80901698891910034 1 0 0 1 I I #
face $-1 $-1 $215 $30 $-1 $425 reversed single #
loop $-1 $-1 $316 $200 #
plane-surface $-1 0 31.483403638803836 0 0 -1 0 0 0 -1 forward_v I I I I #
coedge $-1 $426 $314 $317 $427 forward $201 $-1 #
coedge $-1 $320 $203 $204 $308 reversed $126 $-1 #
coedge $-1 $314 $426 $203 $306 reversed $201 $-1 #
edge $-1 $321 -15.503032503813708 $428 15.503032503813708 $305 $429 forward 7 unknown #
coedge $-1 $205 $204 $426 $430 forward $81 $-1 #
edge $-1 $312 -46.246528519547105 $428 46.246528519547105 $304 $431 forward 7 unknown #
coedge $-1 $317 $316 $205 $310 reversed $301 $-1 #
edge $-1 $432 -46.246528519547105 $311 46.246528519547105 $309 $433 forward 7 unknown #
vertex $-1 $207 $434 #
vertex $-1 $323 $435 #
straight-curve $-1 46.246528519547105 0 -15.503032503813708 0 -1 0 I I #
coedge $-1 $303 $305 $208 $315 reversed $201 $-1 #
edge $-1 $318 -31.483403638803836 $321 31.483403638803836 $314 $436 forward 7 unknown #
coedge $-1 $309 $209 $214 $324 forward $301 $-1 #
coedge $-1 $209 $309 $303 $427 reversed $301 $-1 #
vertex $-1 $210 $437 #
straight-curve $-1 0 31.483403638803836 15.503032503813708 -1 0 0 I I #
coedge $-1 $211 $304 $213 $323 reversed $126 $-1 #
vertex $-1 $315 $438 #
straight-curve $-1 0 -31.483403638803836 15.503032503813708 1 0 0 I I #
edge $-1 $216 -15.503032503813708 $312 15.503032503813708 $213 $439 forward 7 unknown #
edge $-1 $217 -15.503032503813708 $311 15.503032503813708 $214 $440 forward 7 unknown #
point $-1 46.246528519547105 -31.483403638803836 15.503032503813708 #
point $-1 46.246528519547105 31.483403638803836 15.503032503813708 #
face $-1 $-1 $336 $31 $-1 $441 reversed single #
loop $-1 $-1 $333 $219 #
plane-surface $-1 0 0 15.503032503813708 0 0 1 1 0 0 forward_v I I I I #
coedge $-1 $442 $443 $226 $339 forward $220 $-1 #
coedge $-1 $222 $343 $444 $445 reversed $134 $-1 #
edge $-1 $446 -9.6574472491521917 $232 -2.0337232601708441 $222 $447 forward 7 unknown #
coedge $-1 $444 $448 $223 $334 forward $328 $-1 #
edge $-1 $337 -31.483403638803836 $446 31.483403638803836 $333 $449 forward 7 unknown #
coedge $-1 $340 $224 $448 $450 reversed $336 $-1 #
loop $-1 $-1 $224 $327 #
vertex $-1 $225 $451 #
straight-curve $-1 -34.692082957059363 -31.483403638803836 5.8455852546615175 0 0 1 I I #
edge $-1 $344 -31.483403638803836 $341 31.483403638803836 $330 $452 forward 7 unknown #
coedge $-1 $227 $335 $442 $453 forward $336 $-1 #
vertex $-1 $339 $454 #
straight-curve $-1 -20.234652869151617 -31.483403638803836 7.8793085148323616 1 0 0 I I #
coedge $-1 $331 $229 $443 $455 reversed $134 $-1 #
vertex $-1 $339 $456 #
straight-curve $-1 -20.234652869151617 31.483403638803836 7.8793085148323616 -1 0 0 I I #
point $-1 -34.692082957059363 31.483403638803836 7.8793085148323616 #
point $-1 -34.692082957059363 -31.483403638803836 7.8793085148323616 #
face $-1 $-1 $362 $32 $-1 $457 forward single #
loop $-1 $-1 $458 $235 #
plane-surface $-1 58.756818573326527 -4.1670386031296403 0 -1 0 0 0 0 1 forward_v I I I I #
coedge $-1 $353 $459 $460 $461 forward $236 $-1 #
coedge $-1 $239 $238 $462 $463 forward $89 $-1 #
coedge $-1 $358 $351 $238 $354 reversed $236 $-1 #
edge $-1 $356 -6.2551450268897142 $464 6.2551450268897142 $353 $465 forward 7 unknown #
edge $-1 $466 -6.2551450268897142 $246 6.2551450268897142 $244 $467 forward 7 unknown #
vertex $-1 $354 $468 #
straight-curve $-1 46.246528519547105 0 -15.503032503813708 0 1 0 I I #
coedge $-1 $459 $353 $241 $359 reversed $236 $-1 #
edge $-1 $363 -15.503032503813708 $356 15.503032503813708 $358 $469 forward 7 unknown #
coedge $-1 $470 $242 $245 $366 forward $362 $-1 #
coedge $-1 $242 $470 $459 $471 forward $362 $-1 #
loop $-1 $-1 $242 $348 #
vertex $-1 $243 $472 #
straight-curve $-1 46.246528519547105 0 15.503032503813708 0 -1 0 I I #
coedge $-1 $245 $244 $458 $473 reversed $142 $-1 #
edge $-1 $247 -6.2551450268897142 $474 6.2551450268897142 $245 $475 forward 7 unknown #
point $-1 46.246528519547098 -7.8567385750828613 -15.503032503813708 #
point $-1 46.246528519547098 -7.8567385750828613 15.503032503813708 #
loop $-1 $-1 $376 $249 #
plane-surface $-1 -34.692082957059363 0 11.691170509323035 -1 0 0 0 0 1 forward_v I I I I #
coedge $-1 $257 $252 $375 $476 forward $150 $-1 #
coedge $-1 $252 $257 $260 $384 reversed $150 $-1 #
coedge $-1 $477 $376 $252 $374 reversed $369 $-1 #
edge $-1 $478 25.696807169552159 $479 37.238720851926942 $252 $480 forward 7 unknown #
coedge $-1 $254 $253 $371 $476 reversed $93 $-1 #
coedge $-1 $373 $477 $254 $377 reversed $369 $-1 #
edge $-1 $479 -8.3790584163743152e-015 $379 21.780513200775708 $376 $481 forward 7 unknown #
coedge $-1 $260 $255 $477 $482 forward $250 $-1 #
vertex $-1 $482 $483 #
straight-curve $-1 -15.568402454415605 -13.012480980804991 15.503032503813708 -1 0 0 I I #
vertex $-1 $258 $484 #
straight-curve $-1 -27.581526860603056 -31.483403638803836 41.199839673365865 0 0 1 I I #
straight-curve $-1 -27.581526860603056 -31.483403638803829 3.9611188214389301 0 -0.84804809178421925 -0.52991927123019833 I I #
edge $-1 $478 -34.692082957059363 $261 -27.581526860603056 $372 $485 forward 7 unknown #
point $-1 -27.581526860603056 -31.483403638803836 15.503032503813708 #
point $-1 -27.581526860603056 -13.012480980804991 15.503032503813708 #
edge $-1 $486 1 $486 0 $264 $-1 forward 7 unknown #
vertex $-1 $265 $487 #
ellipse-curve $-1 -32.660495500928988 -21.50702243639093 8.5463560277191881 0 -0.52991927123019833 0.84804809178421925 1 0 0 1 I I #
point $-1 -31.660495500928988 -22.247942309804433 9.7320756626263254 #
edge $-1 $488 1 $488 0 $268 $-1 forward 7 unknown #
vertex $-1 $269 $489 #
ellipse-curve $-1 -29.61311431673343 -21.50702243639093 8.5463560277191881 0 -0.52991927123019833 0.84804809178421925 1 0 0 1 I I #
point $-1 -28.61311431673343 -22.247942309804433 9.7320756626263254 #
plane-surface $-1 0 0 15.503032503813708 0 0 1 1 0 0 forward_v I I I I #
coedge $-1 $406 $405 $398 $490 forward $273 $-1 #
coedge $-1 $398 $275 $277 $402 reversed $172 $-1 #
coedge $-1 $275 $397 $396 $490 reversed $172 $-1 #
coedge $-1 $283 $278 $275 $400 forward $284 $-1 #
edge $-1 $403 -3.8556771372738154 $491 14.029282451398188 $399 $492 forward 7 unknown #
coedge $-1 $277 $276 $406 $493 reversed $107 $-1 #
edge $-1 $494 -62.966807277607678 $403 -40.859781302087093 $397 $495 forward 7 unknown #
vertex $-1 $279 $496 #
straight-curve $-1 13.99003451725822 13.598444050131828 15.503032503813708 1 0 0 I I #
coedge $-1 $396 $280 $283 $410 reversed $273 $-1 #
coedge $-1 $280 $396 $401 $493 forward $273 $-1 #
vertex $-1 $281 $497 #
straight-curve $-1 22.223899603265203 31.483403638803836 57.174132086798203 0 0 1 I I #
straight-curve $-1 22.223899603265203 -19.457813186775624 39.51980967190579 0 0.80901698891910034 -0.5877852598018023 I I #
edge $-1 $491 -33.736238465767677 $285 -22.223899603265203 $405 $498 forward 7 unknown #
point $-1 22.223899603265203 31.483403638803836 15.503032503813708 #
point $-1 22.223899603265203 13.598444050131832 15.503032503813703 #
edge $-1 $499 1 $499 0 $288 $-1 forward 7 unknown #
vertex $-1 $289 $500 #
ellipse-curve $-1 24.526367375765695 20.405849990364949 6.0672635062838012 0 0.5877852598018023 0.80901698891910034 1 0 0 1 I I #
point $-1 25.526367375765695 22.540923844467855 9.0059405005804436 #
edge $-1 $501 1 $501 0 $292 $-1 forward 7 unknown #
vertex $-1 $293 $502 #
ellipse-curve $-1 27.98006903451644 20.405849990364949 6.0672635062838012 0 0.5877852598018023 0.80901698891910034 1 0 0 1 I I #
point $-1 28.98006903451644 22.540923844467855 9.0059405005804436 #
edge $-1 $503 1 $503 0 $296 $-1 forward 7 unknown #
vertex $-1 $297 $504 #
ellipse-curve $-1 31.433770693267185 20.405849990364949 6.0672635062838012 0 0.5877852598018023 0.80901698891910034 1 0 0 1 I I #
point $-1 32.433770693267185 22.540923844467855 9.0059405005804436 #
plane-surface $-1 46.246528519547105 0 0 -1 0 0 0 0 1 forward_v I I I I #
coedge $-1 $305 $303 $307 $430 reversed $201 $-1 #
edge $-1 $318 -15.503032503813708 $432 15.503032503813708 $317 $505 forward 7 unknown #
vertex $-1 $430 $506 #
straight-curve $-1 -46.246528519547105 -31.483403638803836 0 0 0 -1 I I #
edge $-1 $428 -31.483403638803836 $432 31.483403638803836 $426 $507 forward 7 unknown #
straight-curve $-1 0 -31.483403638803836 -15.503032503813708 -1 0 0 I I #
vertex $-1 $310 $508 #
straight-curve $-1 0 31.483403638803836 -15.503032503813708 1 0 0 I I #
point $-1 46.246528519547105 31.483403638803836 -15.503032503813708 #
point $-1 46.246528519547105 -31.483403638803836 -15.503032503813708 #
straight-curve $-1 -46.246528519547105 0 15.503032503813708 0 -1 0 I I #
point $-1 -46.246528519547105 31.483403638803836 15.503032503813708 #
point $-1 -46.246528519547105 -31.483403638803836 15.503032503813708 #
straight-curve $-1 46.246528519547105 -31.483403638803836 0 0 0 -1 I I #
straight-curve $-1 46.246528519547105 31.483403638803836 0 0 0 -1 I I #
plane-surface $-1 0 -31.483403638803836 0 0 1 0 0 0 1 forward_v I I I I #
coedge $-1 $509 $330 $340 $453 reversed $220 $-1 #
coedge $-1 $330 $509 $343 $455 forward $220 $-1 #
coedge $-1 $510 $333 $331 $445 forward $328 $-1 #
edge $-1 $446 34.692082957059363 $511 46.246528519547105 $331 $512 forward 7 unknown #
vertex $-1 $445 $513 #
straight-curve $-1 -34.692082957059363 31.483403638803836 5.8455852546615175 0 0 -1 I I #
coedge $-1 $333 $510 $335 $450 forward $328 $-1 #
straight-curve $-1 -34.692082957059363 0 15.503032503813708 0 1 0 I I #
edge $-1 $514 -46.246528519547105 $337 -34.692082957059363 $335 $515 forward 7 unknown #
point $-1 -34.692082957059363 -31.483403638803836 15.503032503813708 #
straight-curve $-1 -46.246528519547105 0 7.8793085148323616 0 -1 0 I I #
edge $-1 $514 -15.503032503813708 $341 -7.8793085148323616 $442 $516 forward 7 unknown #
point $-1 -46.246528519547105 -31.483403638803836 7.8793085148323616 #
edge $-1 $511 -15.503032503813708 $344 -7.8793085148323616 $343 $517 forward 7 unknown #
point $-1 -46.246528519547105 31.483403638803836 7.8793085148323616 #
plane-surface $-1 0 0 15.503032503813708 0 0 1 1 0 0 forward_v I I I I #
coedge $-1 $462 $518 $365 $473 forward $349 $-1 #
coedge $-1 $351 $358 $361 $471 reversed $236 $-1 #
coedge $-1 $518 $462 $351 $461 reversed $349 $-1 #
edge $-1 $519 -15.503032503813708 $464 15.503032503813708 $460 $520 forward 7 unknown #
coedge $-1 $460 $458 $352 $463 reversed $349 $-1 #
edge $-1 $464 -3.6896999719532211 $466 3.6896999719532211 $462 $521 forward 7 unknown #
vertex $-1 $463 $522 #
straight-curve $-1 52.501673546436813 -0.47733863117641917 -15.503032503813708 1 0 0 I I #
vertex $-1 $473 $523 #
straight-curve $-1 52.501673546436813 -7.8567385750828613 -15.503032503813708 -1 0 0 I I #
point $-1 46.246528519547098 -0.47733863117641917 -15.503032503813708 #
straight-curve $-1 46.246528519547105 -0.47733863117641917 0 0 0 -1 I I #
coedge $-1 $361 $360 $518 $524 forward $362 $-1 #
edge $-1 $519 -6.2551450268897142 $363 6.2551450268897142 $459 $525 forward 7 unknown #
point $-1 46.246528519547098 -0.47733863117641917 15.503032503813708 #
edge $-1 $474 -15.503032503813708 $466 15.503032503813708 $458 $526 forward 7 unknown #
vertex $-1 $524 $527 #
straight-curve $-1 52.501673546436813 -7.8567385750828613 15.503032503813708 1 0 0 I I #
edge $-1 $479 -19.123680502643758 $381 -12.013124406187451 $371 $528 forward 7 unknown #
coedge $-1 $376 $373 $378 $482 reversed $369 $-1 #
vertex $-1 $384 $529 #
vertex $-1 $374 $530 #
straight-curve $-1 -34.692082957059363 -31.483403638803836 41.199839673365865 0 0 -1 I I #
straight-curve $-1 -34.692082957059363 -31.483403638803829 3.9611188214389301 0 0.84804809178421925 0.52991927123019833 I I #
edge $-1 $379 13.012480980804993 $478 31.483403638803836 $378 $531 forward 7 unknown #
point $-1 -34.692082957059363 -13.012480980804993 15.503032503813708 #
point $-1 -27.581526860603056 -31.483403638803836 3.9611188214389257 #
straight-curve $-1 0 -31.483403638803836 15.503032503813708 1 0 0 I I #
vertex $-1 $387 $532 #
point $-1 -31.660495500928988 -21.50702243639093 8.5463560277191881 #
vertex $-1 $391 $533 #
point $-1 -28.61311431673343 -21.50702243639093 8.5463560277191881 #
edge $-1 $491 41.671099582984496 $494 54.665283589451057 $396 $534 forward 7 unknown #
vertex $-1 $410 $535 #
straight-curve $-1 33.736238465767677 17.454121187405647 15.503032503813706 0 1 0 I I #
edge $-1 $494 -19.746203948509457 $407 -8.2338650860069826 $406 $536 forward 7 unknown #
vertex $-1 $493 $537 #
straight-curve $-1 33.736238465767677 -19.457813186775624 39.51980967190579 0 -0.80901698891910034 0.5877852598018023 I I #
point $-1 33.736238465767677 13.598444050131832 15.503032503813703 #
point $-1 22.223899603265203 31.483403638803836 2.5088484973471452 #
straight-curve $-1 0 31.483403638803836 15.503032503813708 -1 0 0 I I #
vertex $-1 $413 $538 #
point $-1 25.526367375765695 20.405849990364949 6.0672635062838012 #
vertex $-1 $417 $539 #
point $-1 28.98006903451644 20.405849990364949 6.0672635062838012 #
vertex $-1 $421 $540 #
point $-1 32.433770693267185 20.405849990364949 6.0672635062838012 #
straight-curve $-1 -46.246528519547105 31.483403638803836 0 0 0 -1 I I #
point $-1 -46.246528519547105 -31.483403638803836 -15.503032503813708 #
straight-curve $-1 -46.246528519547105 0 -15.503032503813708 0 1 0 I I #
point $-1 -46.246528519547105 31.483403638803836 -15.503032503813708 #
coedge $-1 $443 $442 $510 $541 reversed $220 $-1 #
coedge $-1 $448 $444 $509 $541 forward $328 $-1 #
vertex $-1 $445 $542 #
straight-curve $-1 0 31.483403638803836 15.503032503813708 -1 0 0 I I #
point $-1 -34.692082957059363 31.483403638803836 15.503032503813708 #
vertex $-1 $541 $543 #
straight-curve $-1 0 -31.483403638803836 15.503032503813708 1 0 0 I I #
straight-curve $-1 -46.246528519547105 -31.483403638803836 0 0 0 -1 I I #
straight-curve $-1 -46.246528519547105 31.483403638803836 0 0 0 -1 I I #
coedge $-1 $458 $460 $470 $524 reversed $349 $-1 #
vertex $-1 $524 $544 #
straight-curve $-1 58.756818573326527 -0.47733863117641917 0 0 0 -1 I I #
straight-curve $-1 58.756818573326527 -4.1670386031296403 -15.503032503813708 0 -1 0 I I #
point $-1 58.756818573326527 -0.47733863117641917 -15.503032503813708 #
point $-1 58.756818573326527 -7.8567385750828613 -15.503032503813708 #
edge $-1 $474 -3.6896999719532211 $519 3.6896999719532211 $518 $545 forward 7 unknown #
straight-curve $-1 52.501673546436813 -0.47733863117641917 15.503032503813708 -1 0 0 I I #
straight-curve $-1 58.756818573326527 -7.8567385750828613 0 0 0 -1 I I #
point $-1 58.756818573326527 -7.8567385750828613 15.503032503813708 #
straight-curve $-1 -15.568402454415605 -31.483403638803836 3.9611188214389279 1 0 0 I I #
point $-1 -34.692082957059363 -31.483403638803836 15.503032503813708 #
point $-1 -34.692082957059363 -31.483403638803836 3.9611188214389257 #
straight-curve $-1 -34.692082957059363 0 15.503032503813708 0 -1 0 I I #
point $-1 -32.660495500928988 -20.977103165160731 7.6983079359349693 #
point $-1 -29.61311431673343 -20.977103165160731 7.6983079359349693 #
straight-curve $-1 33.736238465767677 31.483403638803836 57.174132086798203 0 0 -1 I I #
point $-1 33.736238465767677 31.483403638803836 15.503032503813708 #
straight-curve $-1 13.99003451725822 31.483403638803836 2.5088484973471417 -1 0 0 I I #
point $-1 33.736238465767677 31.483403638803836 2.5088484973471452 #
point $-1 24.526367375765695 19.818064730563144 5.2582465173647002 #
point $-1 27.98006903451644 19.818064730563144 5.2582465173647002 #
point $-1 31.433770693267185 19.818064730563144 5.2582465173647002 #
edge $-1 $511 -31.483403638803836 $514 31.483403638803836 $509 $546 forward 7 unknown #
point $-1 -46.246528519547105 31.483403638803836 15.503032503813708 #
point $-1 -46.246528519547105 -31.483403638803836 15.503032503813708 #
point $-1 58.756818573326527 -0.47733863117641917 15.503032503813708 #
straight-curve $-1 58.756818573326527 -4.1670386031296403 15.503032503813708 0 1 0 I I #
straight-curve $-1 -46.246528519547105 0 15.503032503813708 0 -1 0 I I #
End-of-ACIS-data 