500 0 10 0           
7 Unknown 11 ACIS 5.0 NT 24 Thu Mar 25 23:00:14 1999 
-1 9.9999999999999995e-007 1e-010 
body $-1 $10 $-1 $11 #
body $-1 $12 $-1 $13 #
body $-1 $14 $-1 $15 #
body $-1 $16 $-1 $17 #
body $-1 $18 $-1 $19 #
body $-1 $20 $-1 $21 #
body $-1 $22 $-1 $23 #
body $-1 $24 $-1 $25 #
body $-1 $26 $-1 $27 #
body $-1 $28 $-1 $29 #
lump $-1 $-1 $30 $0 #
transform $-1 1 0 0 0 1 0 0 0 1 70.73458052308726 36.497808765524489 9.8592090977862927 1 rotate no_reflect no_shear #
lump $-1 $-1 $31 $1 #
transform $-1 1 0 0 0 1 0 0 0 1 70.73458052308726 36.497808765524489 9.8592090977862927 1 rotate no_reflect no_shear #
lump $-1 $-1 $32 $2 #
transform $-1 1 0 0 0 1 0 0 0 1 70.73458052308726 36.497808765524489 9.8592090977862927 1 rotate no_reflect no_shear #
lump $-1 $-1 $33 $3 #
transform $-1 1 0 0 0 1 0 0 0 1 70.73458052308726 36.497808765524489 9.8592090977862927 1 rotate no_reflect no_shear #
lump $-1 $-1 $34 $4 #
transform $-1 1 0 0 0 1 0 0 0 1 70.73458052308726 36.497808765524489 9.8592090977862927 1 rotate no_reflect no_shear #
lump $-1 $-1 $35 $5 #
transform $-1 1 0 0 0 1 0 0 0 1 70.73458052308726 36.497808765524489 9.8592090977862927 1 rotate no_reflect no_shear #
lump $-1 $-1 $36 $6 #
transform $-1 1 0 0 0 1 0 0 0 1 70.73458052308726 36.497808765524489 9.8592090977862927 1 rotate no_reflect no_shear #
lump $-1 $-1 $37 $7 #
transform $-1 1 0 0 0 1 0 0 0 1 70.73458052308726 36.497808765524489 9.8592090977862927 1 rotate no_reflect no_shear #
lump $-1 $-1 $38 $8 #
transform $-1 1 0 0 0 1 0 0 0 1 70.73458052308726 36.497808765524489 9.8592090977862927 1 rotate no_reflect no_shear #
lump $-1 $-1 $39 $9 #
transform $-1 1 0 0 0 1 0 0 0 1 70.73458052308726 36.497808765524489 9.8592090977862927 1 rotate no_reflect no_shear #
shell $-1 $-1 $-1 $40 $-1 $10 #
shell $-1 $-1 $-1 $41 $-1 $12 #
shell $-1 $-1 $-1 $42 $-1 $14 #
shell $-1 $-1 $-1 $43 $-1 $16 #
shell $-1 $-1 $-1 $44 $-1 $18 #
shell $-1 $-1 $-1 $45 $-1 $20 #
shell $-1 $-1 $-1 $46 $-1 $22 #
shell $-1 $-1 $-1 $47 $-1 $24 #
shell $-1 $-1 $-1 $48 $-1 $26 #
shell $-1 $-1 $-1 $49 $-1 $28 #
face $-1 $50 $51 $30 $-1 $52 forward single #
face $-1 $53 $54 $31 $-1 $55 forward single #
face $-1 $56 $57 $32 $-1 $58 reversed single #
face $-1 $59 $60 $33 $-1 $61 forward single #
face $-1 $62 $63 $34 $-1 $64 reversed single #
face $-1 $65 $66 $35 $-1 $67 forward single #
face $-1 $68 $69 $36 $-1 $70 forward single #
face $-1 $71 $72 $37 $-1 $73 reversed single #
face $-1 $74 $75 $38 $-1 $76 forward single #
face $-1 $77 $78 $39 $-1 $79 forward single #
face $-1 $80 $81 $30 $-1 $82 reversed single #
loop $-1 $-1 $83 $40 #
plane-surface $-1 0 0 9.8592090977862927 0 0 1 1 0 0 forward_v I I I I #
face $-1 $84 $85 $31 $-1 $86 reversed single #
loop $-1 $-1 $87 $41 #
plane-surface $-1 -70.73458052308726 0 0 1 0 0 0 0 -1 forward_v I I I I #
face $-1 $88 $89 $32 $-1 $90 reversed single #
loop $-1 $-1 $91 $42 #
plane-surface $-1 35.920813906393875 92.786283784416526 149.27210873669691 1 0 0 0 -0.74314483375859142 -0.66913059716165679 forward_v I I I I #
face $-1 $92 $93 $33 $-1 $94 forward single #
loop $-1 $95 $96 $43 #
cone-surface $-1 53.327697214740567 30.795721802096811 3.8264780601232427 0 -0.74314483375859142 -0.66913059716165679 3 0 0 1 I I 0 1 3 forward I I I I #
face $-1 $97 $98 $34 $-1 $99 reversed single #
loop $-1 $-1 $100 $44 #
plane-surface $-1 -15.765264594243595 -146.43999711396248 94.624265062560269 -1 0 0 0 -0.77714596973225614 0.62932038083071107 forward_v I I I I #
face $-1 $101 $102 $35 $-1 $103 forward single #
loop $-1 $104 $105 $45 #
cone-surface $-1 -32.88188912578623 -33.888404459418943 7.0121507759867701 0 0.77714596973225614 -0.62932038083071107 1 0 0 1 I I 0 1 1 forward I I I I #
face $-1 $106 $107 $36 $-1 $108 forward single #
loop $-1 $109 $110 $46 #
cone-surface $-1 -22.611914406860649 -33.888404459418943 7.0121507759867701 0 0.77714596973225614 -0.62932038083071107 1 0 0 1 I I 0 1 1 forward I I I I #
face $-1 $111 $112 $37 $-1 $113 reversed single #
loop $-1 $-1 $114 $47 #
plane-surface $-1 50.539252263410305 -146.43999711396248 94.624265062560269 -1 0 0 0 -0.77714596973225614 0.62932038083071107 forward_v I I I I #
face $-1 $115 $116 $38 $-1 $117 forward single #
loop $-1 $118 $119 $48 #
cone-surface $-1 33.422627731867664 -33.888404459418943 7.0121507759867701 0 0.77714596973225614 -0.62932038083071107 1 0 0 1 I I 0 1 1 forward I I I I #
face $-1 $120 $121 $39 $-1 $122 forward single #
loop $-1 $123 $124 $49 #
cone-surface $-1 43.692602450793245 -33.888404459418943 7.0121507759867701 0 0.77714596973225614 -0.62932038083071107 1 0 0 1 I I 0 1 1 forward I I I I #
face $-1 $125 $126 $30 $-1 $127 reversed single #
loop $-1 $-1 $128 $50 #
plane-surface $-1 0 0 -9.8592090977862927 0 0 1 1 0 0 forward_v I I I I #
coedge $-1 $129 $130 $131 $132 forward $51 $-1 #
face $-1 $133 $134 $31 $-1 $135 forward single #
loop $-1 $-1 $136 $53 #
plane-surface $-1 0 36.497808765524489 0 0 -1 0 0 0 -1 forward_v I I I I #
coedge $-1 $137 $138 $139 $140 forward $54 $-1 #
face $-1 $141 $142 $32 $-1 $143 reversed single #
loop $-1 $-1 $144 $56 #
plane-surface $-1 53.327697214740567 -12.345792383210238 54.610764525911549 0 0.74314483375859142 0.66913059716165679 1 0 0 forward_v I I I I #
coedge $-1 $145 $146 $147 $148 reversed $57 $-1 #
face $-1 $-1 $149 $33 $-1 $150 forward single #
loop $-1 $151 $152 $59 #
cone-surface $-1 53.327697214740567 28.253477915780742 1.5374314402636227 0 -0.74314483375859142 -0.66913059716165679 1.5 0 0 1 I I -0.70710678118654757 0.70710678118654757 1.5 forward I I I I #
loop $-1 $-1 $153 $43 #
coedge $-1 $96 $96 $154 $155 reversed $60 $-1 #
face $-1 $156 $157 $34 $-1 $158 reversed single #
loop $-1 $-1 $159 $62 #
plane-surface $-1 -27.74690176632344 -36.497808765524468 5.5948387571805256 0 -0.77714596973225614 0.62932038083071107 1 0 0 forward_v I I I I #
coedge $-1 $160 $161 $162 $163 reversed $63 $-1 #
face $-1 $-1 $164 $35 $-1 $165 forward single #
loop $-1 $166 $167 $65 #
cone-surface $-1 -32.88188912578623 -32.617036628750967 5.9826174340747773 0 0.77714596973225614 -0.62932038083071107 0.5 0 0 1 I I -0.70710678118654746 0.70710678118654746 0.5 forward I I I I #
loop $-1 $-1 $168 $45 #
coedge $-1 $105 $105 $169 $170 reversed $66 $-1 #
face $-1 $-1 $171 $36 $-1 $172 forward single #
loop $-1 $173 $174 $68 #
cone-surface $-1 -22.611914406860649 -32.617036628750967 5.9826174340747773 0 0.77714596973225614 -0.62932038083071107 0.5 0 0 1 I I -0.70710678118654746 0.70710678118654746 0.5 forward I I I I #
loop $-1 $-1 $175 $46 #
coedge $-1 $110 $110 $176 $177 reversed $69 $-1 #
face $-1 $178 $179 $37 $-1 $180 reversed single #
loop $-1 $-1 $181 $71 #
plane-surface $-1 38.557615091330462 -36.497808765524468 5.5948387571805256 0 -0.77714596973225614 0.62932038083071107 1 0 0 forward_v I I I I #
coedge $-1 $182 $183 $184 $185 reversed $72 $-1 #
face $-1 $-1 $186 $38 $-1 $187 forward single #
loop $-1 $188 $189 $74 #
cone-surface $-1 33.422627731867664 -32.617036628750967 5.9826174340747773 0 0.77714596973225614 -0.62932038083071107 0.5 0 0 1 I I -0.70710678118654746 0.70710678118654746 0.5 forward I I I I #
loop $-1 $-1 $190 $48 #
coedge $-1 $119 $119 $191 $192 reversed $75 $-1 #
face $-1 $-1 $193 $39 $-1 $194 forward single #
loop $-1 $195 $196 $77 #
cone-surface $-1 43.692602450793245 -32.617036628750967 5.9826174340747773 0 0.77714596973225614 -0.62932038083071107 0.5 0 0 1 I I -0.70710678118654746 0.70710678118654746 0.5 forward I I I I #
loop $-1 $-1 $197 $49 #
coedge $-1 $124 $124 $198 $199 reversed $78 $-1 #
face $-1 $200 $201 $30 $-1 $202 reversed single #
loop $-1 $-1 $203 $80 #
plane-surface $-1 0 -36.497808765524489 0 0 1 0 0 0 1 forward_v I I I I #
coedge $-1 $204 $205 $206 $207 forward $81 $-1 #
coedge $-1 $208 $83 $209 $210 forward $51 $-1 #
coedge $-1 $83 $208 $211 $212 forward $51 $-1 #
coedge $-1 $213 $214 $83 $132 reversed $215 $-1 #
edge $-1 $216 -36.497808765524489 $217 36.497808765524489 $131 $218 forward 7 unknown #
face $-1 $219 $220 $31 $-1 $221 reversed single #
loop $-1 $-1 $139 $84 #
plane-surface $-1 -75.164644188520626 0 -5.1760020320370774 0 0 1 1 0 0 forward_v I I I I #
coedge $-1 $222 $223 $138 $224 forward $85 $-1 #
coedge $-1 $225 $87 $226 $227 reversed $54 $-1 #
coedge $-1 $87 $225 $136 $224 reversed $54 $-1 #
coedge $-1 $228 $229 $87 $140 reversed $134 $-1 #
edge $-1 $230 -36.497808765524489 $231 36.497808765524489 $139 $232 forward 7 unknown #
face $-1 $233 $234 $32 $-1 $235 reversed single #
loop $-1 $-1 $236 $88 #
plane-surface $-1 70.73458052308726 0 0 -1 0 0 0 0 1 forward_v I I I I #
coedge $-1 $237 $238 $239 $240 reversed $89 $-1 #
coedge $-1 $146 $91 $241 $242 reversed $57 $-1 #
coedge $-1 $91 $145 $237 $243 reversed $57 $-1 #
coedge $-1 $239 $244 $91 $148 forward $245 $-1 #
edge $-1 $246 9.8953331266837736 $247 18.444453782182819 $147 $248 forward 7 unknown #
loop $-1 $-1 $154 $92 #
plane-surface $-1 53.327697214740567 -12.345792383210238 54.610764525911549 0 0.74314483375859142 0.66913059716165679 1 0 0 forward_v I I I I #
loop $-1 $-1 $249 $59 #
coedge $-1 $152 $152 $153 $250 reversed $93 $-1 #
coedge $-1 $153 $153 $152 $250 forward $95 $-1 #
coedge $-1 $154 $154 $96 $155 forward $149 $-1 #
edge $-1 $251 -7.4591784958648532e-016 $251 6.2831853071795996 $154 $252 forward 7 unknown #
face $-1 $253 $254 $34 $-1 $255 forward single #
loop $-1 $-1 $256 $97 #
plane-surface $-1 -39.728538938403283 -146.43999711396248 94.624265062560269 1 0 0 0 0.77714596973225614 -0.62932038083071107 forward_v I I I I #
coedge $-1 $257 $258 $259 $260 reversed $98 $-1 #
coedge $-1 $161 $100 $261 $262 reversed $63 $-1 #
coedge $-1 $100 $160 $257 $263 reversed $63 $-1 #
coedge $-1 $259 $264 $100 $163 forward $254 $-1 #
edge $-1 $265 36.722189791456749 $266 40.175408712064169 $162 $267 forward 7 unknown #
loop $-1 $-1 $169 $101 #
plane-surface $-1 -27.74690176632344 -36.497808765524468 5.5948387571805256 0 -0.77714596973225614 0.62932038083071107 1 0 0 forward_v I I I I #
loop $-1 $-1 $268 $65 #
coedge $-1 $167 $167 $168 $269 reversed $102 $-1 #
coedge $-1 $168 $168 $167 $269 forward $104 $-1 #
coedge $-1 $169 $169 $105 $170 forward $164 $-1 #
edge $-1 $270 -1.350493429296548e-015 $270 6.2831853071795987 $169 $271 forward 7 unknown #
loop $-1 $-1 $176 $106 #
plane-surface $-1 -27.74690176632344 -36.497808765524468 5.5948387571805256 0 -0.77714596973225614 0.62932038083071107 1 0 0 forward_v I I I I #
loop $-1 $-1 $272 $68 #
coedge $-1 $174 $174 $175 $273 reversed $107 $-1 #
coedge $-1 $175 $175 $174 $273 forward $109 $-1 #
coedge $-1 $176 $176 $110 $177 forward $171 $-1 #
edge $-1 $274 -1.350493429296548e-015 $274 6.2831853071795987 $176 $275 forward 7 unknown #
face $-1 $276 $277 $37 $-1 $278 reversed single #
loop $-1 $-1 $279 $111 #
plane-surface $-1 26.575977919250619 -146.43999711396248 94.624265062560269 1 0 0 0 0.77714596973225614 -0.62932038083071107 forward_v I I I I #
coedge $-1 $280 $281 $282 $283 reversed $112 $-1 #
coedge $-1 $183 $114 $284 $285 reversed $72 $-1 #
coedge $-1 $114 $182 $280 $286 reversed $72 $-1 #
coedge $-1 $282 $287 $114 $185 forward $288 $-1 #
edge $-1 $289 36.722189791456749 $290 40.175408712064169 $184 $291 forward 7 unknown #
loop $-1 $-1 $191 $115 #
plane-surface $-1 38.557615091330462 -36.497808765524468 5.5948387571805256 0 -0.77714596973225614 0.62932038083071107 1 0 0 forward_v I I I I #
loop $-1 $-1 $292 $74 #
coedge $-1 $189 $189 $190 $293 reversed $116 $-1 #
coedge $-1 $190 $190 $189 $293 forward $118 $-1 #
coedge $-1 $191 $191 $119 $192 forward $186 $-1 #
edge $-1 $294 -1.350493429296548e-015 $294 6.2831853071795987 $191 $295 forward 7 unknown #
loop $-1 $-1 $198 $120 #
plane-surface $-1 38.557615091330462 -36.497808765524468 5.5948387571805256 0 -0.77714596973225614 0.62932038083071107 1 0 0 forward_v I I I I #
loop $-1 $-1 $296 $77 #
coedge $-1 $196 $196 $197 $297 reversed $121 $-1 #
coedge $-1 $197 $197 $196 $297 forward $123 $-1 #
coedge $-1 $198 $198 $124 $199 forward $193 $-1 #
edge $-1 $298 -1.350493429296548e-015 $298 6.2831853071795987 $198 $299 forward 7 unknown #
face $-1 $300 $301 $30 $-1 $302 reversed single #
loop $-1 $-1 $303 $125 #
plane-surface $-1 -70.73458052308726 0 0 1 0 0 0 0 -1 forward_v I I I I #
coedge $-1 $304 $211 $303 $305 forward $126 $-1 #
coedge $-1 $306 $128 $304 $307 forward $81 $-1 #
coedge $-1 $128 $306 $308 $309 forward $81 $-1 #
coedge $-1 $214 $213 $128 $207 reversed $215 $-1 #
edge $-1 $310 -36.497808765524489 $311 36.497808765524489 $206 $312 forward 7 unknown #
coedge $-1 $130 $129 $313 $314 forward $51 $-1 #
coedge $-1 $315 $316 $129 $210 reversed $301 $-1 #
edge $-1 $217 -70.73458052308726 $317 70.73458052308726 $209 $318 forward 7 unknown #
coedge $-1 $203 $319 $130 $212 reversed $126 $-1 #
edge $-1 $320 -70.73458052308726 $216 70.73458052308726 $211 $321 forward 7 unknown #
coedge $-1 $206 $131 $319 $322 forward $215 $-1 #
coedge $-1 $131 $206 $315 $323 reversed $215 $-1 #
loop $-1 $-1 $213 $300 #
vertex $-1 $132 $324 #
vertex $-1 $132 $325 #
straight-curve $-1 70.73458052308726 0 9.8592090977862927 0 1 0 I I #
face $-1 $326 $327 $31 $-1 $328 reversed single #
loop $-1 $-1 $329 $133 #
plane-surface $-1 -79.594707853953992 0 -7.5176055649116851 1 0 0 0 0 -1 forward_v I I I I #
coedge $-1 $330 $136 $331 $332 reversed $85 $-1 #
coedge $-1 $136 $330 $228 $333 reversed $85 $-1 #
edge $-1 $230 5.1760020320370774 $334 9.8592090977862927 $136 $335 forward 7 unknown #
coedge $-1 $138 $137 $336 $337 reversed $54 $-1 #
coedge $-1 $338 $339 $137 $227 forward $340 $-1 #
edge $-1 $341 -9.8592090977862927 $231 -5.1760020320370774 $226 $342 forward 7 unknown #
coedge $-1 $343 $139 $223 $333 forward $134 $-1 #
coedge $-1 $139 $343 $338 $344 forward $134 $-1 #
vertex $-1 $224 $345 #
vertex $-1 $344 $346 #
straight-curve $-1 -70.73458052308726 0 -5.1760020320370774 0 -1 0 I I #
face $-1 $-1 $245 $32 $-1 $347 forward single #
loop $-1 $-1 $348 $141 #
plane-surface $-1 0 36.497808765524489 0 0 -1 0 0 0 -1 forward_v I I I I #
coedge $-1 $349 $350 $238 $351 forward $142 $-1 #
coedge $-1 $352 $144 $146 $243 forward $89 $-1 #
coedge $-1 $144 $352 $236 $351 reversed $89 $-1 #
coedge $-1 $353 $147 $144 $240 forward $245 $-1 #
edge $-1 $247 9.2569652990235909 $354 44.070731915716976 $239 $355 forward 7 unknown #
coedge $-1 $356 $348 $145 $242 forward $234 $-1 #
edge $-1 $357 -74.271605897654041 $246 -64.776845270562163 $241 $358 forward 7 unknown #
edge $-1 $247 60.219157013830056 $357 72.995617531048993 $146 $359 forward 7 unknown #
coedge $-1 $147 $353 $356 $360 forward $245 $-1 #
loop $-1 $-1 $239 $233 #
vertex $-1 $242 $361 #
vertex $-1 $148 $362 #
straight-curve $-1 35.920813906393875 46.393141892208263 9.859209097786291 0 -1 0 I I #
coedge $-1 $249 $249 $-1 $363 reversed $151 $-1 #
edge $-1 $364 0 $364 6.2831853071796004 $152 $365 forward 7 unknown #
vertex $-1 $155 $366 #
ellipse-curve $-1 53.327697214740567 32.22324843777497 5.1118287842403554 0 0.74314483375859142 0.66913059716165679 3 0 0 1 I I #
face $-1 $-1 $367 $34 $-1 $368 reversed single #
loop $-1 $-1 $162 $156 #
plane-surface $-1 0 0 9.8592090977862927 0 0 1 1 0 0 forward_v I I I I #
coedge $-1 $369 $370 $371 $372 reversed $157 $-1 #
coedge $-1 $373 $159 $161 $263 forward $98 $-1 #
coedge $-1 $159 $373 $369 $374 forward $98 $-1 #
coedge $-1 $371 $162 $159 $260 forward $254 $-1 #
edge $-1 $266 1.8918137110818751 $375 25.855088055241563 $259 $376 forward 7 unknown #
coedge $-1 $377 $378 $160 $262 forward $367 $-1 #
edge $-1 $379 -41.717293774099637 $265 -37.452923433493844 $261 $380 forward 7 unknown #
edge $-1 $266 -5.4872192698560047 $379 3.4122099130144743e-014 $161 $381 forward 7 unknown #
coedge $-1 $162 $371 $377 $382 forward $254 $-1 #
vertex $-1 $262 $383 #
vertex $-1 $163 $384 #
straight-curve $-1 -15.765264594243595 -73.219998556981238 9.859209097786291 0 1 0 I I #
coedge $-1 $268 $268 $-1 $385 reversed $166 $-1 #
edge $-1 $386 0 $386 6.2831853071796004 $167 $387 forward 7 unknown #
vertex $-1 $170 $388 #
ellipse-curve $-1 -32.88188912578623 -34.771199305220776 7.7270239274833967 0 -0.77714596973225614 0.62932038083071107 1 0 0 1 I I #
coedge $-1 $272 $272 $-1 $389 reversed $173 $-1 #
edge $-1 $390 0 $390 6.2831853071796004 $174 $391 forward 7 unknown #
vertex $-1 $177 $392 #
ellipse-curve $-1 -22.611914406860649 -34.771199305220776 7.7270239274833967 0 -0.77714596973225614 0.62932038083071107 1 0 0 1 I I #
face $-1 $-1 $288 $37 $-1 $393 forward single #
loop $-1 $-1 $394 $178 #
plane-surface $-1 0 -36.497808765524489 0 0 1 0 0 0 1 forward_v I I I I #
coedge $-1 $395 $396 $397 $398 reversed $179 $-1 #
coedge $-1 $399 $181 $183 $286 forward $112 $-1 #
coedge $-1 $181 $399 $395 $400 forward $112 $-1 #
coedge $-1 $397 $184 $181 $283 forward $288 $-1 #
edge $-1 $290 -31.260444717745074 $401 -7.2971703735853879 $282 $402 forward 7 unknown #
coedge $-1 $403 $404 $182 $285 forward $277 $-1 #
edge $-1 $405 -41.717293774099637 $289 -37.452923433493844 $284 $406 forward 7 unknown #
edge $-1 $290 -5.4872192698560047 $405 3.4122099130144743e-014 $183 $407 forward 7 unknown #
coedge $-1 $184 $397 $403 $408 forward $288 $-1 #
loop $-1 $-1 $397 $276 #
vertex $-1 $285 $409 #
vertex $-1 $185 $410 #
straight-curve $-1 50.539252263410305 -73.219998556981238 9.859209097786291 0 1 0 I I #
coedge $-1 $292 $292 $-1 $411 reversed $188 $-1 #
edge $-1 $412 0 $412 6.2831853071796004 $189 $413 forward 7 unknown #
vertex $-1 $192 $414 #
ellipse-curve $-1 33.422627731867664 -34.771199305220776 7.7270239274833967 0 -0.77714596973225614 0.62932038083071107 1 0 0 1 I I #
coedge $-1 $296 $296 $-1 $415 reversed $195 $-1 #
edge $-1 $416 0 $416 6.2831853071796004 $196 $417 forward 7 unknown #
vertex $-1 $199 $418 #
ellipse-curve $-1 43.692602450793245 -34.771199305220776 7.7270239274833967 0 -0.77714596973225614 0.62932038083071107 1 0 0 1 I I #
face $-1 $-1 $215 $30 $-1 $419 reversed single #
loop $-1 $-1 $315 $200 #
plane-surface $-1 0 36.497808765524489 0 0 -1 0 0 0 -1 forward_v I I I I #
coedge $-1 $313 $420 $203 $305 reversed $201 $-1 #
coedge $-1 $319 $203 $204 $307 reversed $126 $-1 #
edge $-1 $320 -9.8592090977862927 $421 9.8592090977862927 $303 $422 forward 7 unknown #
coedge $-1 $205 $204 $420 $423 forward $81 $-1 #
edge $-1 $311 -70.73458052308726 $421 70.73458052308726 $304 $424 forward 7 unknown #
coedge $-1 $316 $315 $205 $309 reversed $301 $-1 #
edge $-1 $425 -70.73458052308726 $310 70.73458052308726 $308 $426 forward 7 unknown #
vertex $-1 $207 $427 #
vertex $-1 $322 $428 #
straight-curve $-1 70.73458052308726 0 -9.8592090977862927 0 -1 0 I I #
coedge $-1 $429 $303 $208 $314 reversed $201 $-1 #
edge $-1 $317 -36.497808765524489 $320 36.497808765524489 $313 $430 forward 7 unknown #
coedge $-1 $308 $209 $214 $323 forward $301 $-1 #
coedge $-1 $209 $308 $429 $431 reversed $301 $-1 #
vertex $-1 $210 $432 #
straight-curve $-1 0 36.497808765524489 9.8592090977862927 -1 0 0 I I #
coedge $-1 $211 $304 $213 $322 reversed $126 $-1 #
vertex $-1 $314 $433 #
straight-curve $-1 0 -36.497808765524489 9.8592090977862927 1 0 0 I I #
edge $-1 $216 -9.8592090977862927 $311 9.8592090977862927 $213 $434 forward 7 unknown #
edge $-1 $217 -9.8592090977862927 $310 9.8592090977862927 $214 $435 forward 7 unknown #
point $-1 70.73458052308726 -36.497808765524489 9.8592090977862927 #
point $-1 70.73458052308726 36.497808765524489 9.8592090977862927 #
face $-1 $-1 $340 $31 $-1 $436 reversed single #
loop $-1 $-1 $336 $219 #
plane-surface $-1 0 0 -9.8592090977862927 0 0 1 1 0 0 forward_v I I I I #
coedge $-1 $437 $438 $330 $439 forward $220 $-1 #
coedge $-1 $223 $222 $329 $439 reversed $85 $-1 #
coedge $-1 $336 $440 $222 $332 forward $327 $-1 #
edge $-1 $441 -79.594707853953992 $334 -70.73458052308726 $222 $442 forward 7 unknown #
edge $-1 $230 -4.4300636654333658 $443 4.4300636654333658 $223 $444 forward 7 unknown #
vertex $-1 $224 $445 #
straight-curve $-1 -70.73458052308726 36.497808765524489 0 0 0 -1 I I #
coedge $-1 $446 $331 $225 $337 forward $327 $-1 #
edge $-1 $334 -36.497808765524489 $341 36.497808765524489 $336 $447 forward 7 unknown #
coedge $-1 $448 $226 $229 $344 reversed $340 $-1 #
coedge $-1 $226 $448 $446 $449 reversed $340 $-1 #
loop $-1 $-1 $226 $326 #
vertex $-1 $449 $450 #
straight-curve $-1 -70.73458052308726 -36.497808765524489 0 0 0 1 I I #
coedge $-1 $229 $228 $438 $451 forward $134 $-1 #
edge $-1 $452 -4.4300636654333658 $231 4.4300636654333658 $338 $453 forward 7 unknown #
point $-1 -70.73458052308726 36.497808765524489 -5.1760020320370774 #
point $-1 -70.73458052308726 -36.497808765524489 -5.1760020320370774 #
plane-surface $-1 0 0 9.8592090977862927 0 0 1 1 0 0 forward_v I I I I #
coedge $-1 $241 $454 $352 $455 forward $234 $-1 #
coedge $-1 $350 $236 $454 $456 reversed $142 $-1 #
coedge $-1 $236 $349 $353 $457 reversed $142 $-1 #
edge $-1 $354 35.796829536405347 $458 48.573290053624291 $236 $459 forward 7 unknown #
coedge $-1 $238 $237 $348 $455 reversed $89 $-1 #
coedge $-1 $244 $239 $350 $457 forward $245 $-1 #
vertex $-1 $457 $460 #
straight-curve $-1 26.663848607370284 27.94868811002544 9.859209097786291 1 0 0 I I #
coedge $-1 $454 $241 $244 $360 reversed $234 $-1 #
vertex $-1 $242 $461 #
straight-curve $-1 35.920813906393875 36.497808765524489 74.636054368348454 0 0 1 I I #
straight-curve $-1 35.920813906393875 -12.345792383210238 54.610764525911549 0 0.66913059716165679 -0.74314483375859142 I I #
edge $-1 $462 -70.73458052308726 $246 -35.920813906393875 $356 $463 forward 7 unknown #
point $-1 35.920813906393875 36.497808765524489 9.8592090977862927 #
point $-1 35.920813906393875 27.948688110025444 9.859209097786291 #
edge $-1 $464 1 $464 0 $249 $-1 forward 7 unknown #
vertex $-1 $250 $465 #
ellipse-curve $-1 53.327697214740567 29.36819516641863 2.5411273360061077 0 0.74314483375859142 0.66913059716165679 3 0 0 1 I I #
point $-1 56.327697214740567 32.223248437774991 5.1118287842403776 #
loop $-1 $-1 $261 $253 #
plane-surface $-1 0 -36.497808765524489 0 0 1 0 0 0 1 forward_v I I I I #
coedge $-1 $370 $256 $258 $374 reversed $157 $-1 #
coedge $-1 $256 $369 $466 $467 reversed $157 $-1 #
coedge $-1 $264 $259 $256 $372 forward $254 $-1 #
edge $-1 $375 -40.175408712064169 $468 -36.722189791456749 $371 $469 forward 7 unknown #
coedge $-1 $258 $257 $378 $470 reversed $98 $-1 #
edge $-1 $471 -3.4122099130144743e-014 $375 5.4872192698560047 $369 $472 forward 7 unknown #
vertex $-1 $260 $473 #
straight-curve $-1 -13.87345088316172 -33.04458984491707 9.8592090977862927 -1 0 0 I I #
coedge $-1 $466 $261 $264 $382 reversed $367 $-1 #
coedge $-1 $261 $466 $373 $470 forward $367 $-1 #
vertex $-1 $262 $474 #
straight-curve $-1 -15.765264594243595 -36.497808765524489 47.312132531280135 0 0 1 I I #
straight-curve $-1 -15.765264594243595 -36.497808765524468 5.5948387571805256 0 -0.62932038083071107 -0.77714596973225614 I I #
edge $-1 $468 -39.728538938403283 $265 -15.765264594243595 $377 $475 forward 7 unknown #
point $-1 -15.765264594243595 -36.497808765524489 9.8592090977862927 #
point $-1 -15.765264594243595 -33.04458984491707 9.8592090977862927 #
edge $-1 $476 1 $476 0 $268 $-1 forward 7 unknown #
vertex $-1 $269 $477 #
ellipse-curve $-1 -32.88188912578623 -33.005609613617096 6.2972776244901327 0 -0.77714596973225614 0.62932038083071107 1 0 0 1 I I #
point $-1 -31.88188912578623 -34.77119930522079 7.7270239274834065 #
edge $-1 $478 1 $478 0 $272 $-1 forward 7 unknown #
vertex $-1 $273 $479 #
ellipse-curve $-1 -22.611914406860649 -33.005609613617096 6.2972776244901327 0 -0.77714596973225614 0.62932038083071107 1 0 0 1 I I #
point $-1 -21.611914406860649 -34.77119930522079 7.7270239274834065 #
plane-surface $-1 0 0 9.8592090977862927 0 0 1 1 0 0 forward_v I I I I #
coedge $-1 $404 $403 $396 $480 forward $277 $-1 #
coedge $-1 $396 $279 $281 $400 reversed $179 $-1 #
coedge $-1 $279 $395 $394 $480 reversed $179 $-1 #
coedge $-1 $287 $282 $279 $398 forward $288 $-1 #
edge $-1 $401 -40.175408712064169 $481 -36.722189791456749 $397 $482 forward 7 unknown #
coedge $-1 $281 $280 $404 $483 reversed $112 $-1 #
edge $-1 $484 -3.4122099130144743e-014 $401 5.4872192698560047 $395 $485 forward 7 unknown #
vertex $-1 $283 $486 #
straight-curve $-1 19.278807545665231 -33.04458984491707 9.8592090977862927 -1 0 0 I I #
coedge $-1 $394 $284 $287 $408 reversed $277 $-1 #
coedge $-1 $284 $394 $399 $483 forward $277 $-1 #
vertex $-1 $285 $487 #
straight-curve $-1 50.539252263410305 -36.497808765524489 47.312132531280135 0 0 1 I I #
straight-curve $-1 50.539252263410305 -36.497808765524468 5.5948387571805256 0 -0.62932038083071107 -0.77714596973225614 I I #
edge $-1 $481 26.575977919250619 $289 50.539252263410305 $403 $488 forward 7 unknown #
point $-1 50.539252263410305 -36.497808765524489 9.8592090977862927 #
point $-1 50.539252263410305 -33.04458984491707 9.8592090977862927 #
edge $-1 $489 1 $489 0 $292 $-1 forward 7 unknown #
vertex $-1 $293 $490 #
ellipse-curve $-1 33.422627731867664 -33.005609613617096 6.2972776244901327 0 -0.77714596973225614 0.62932038083071107 1 0 0 1 I I #
point $-1 34.422627731867664 -34.77119930522079 7.7270239274834065 #
edge $-1 $491 1 $491 0 $296 $-1 forward 7 unknown #
vertex $-1 $297 $492 #
ellipse-curve $-1 43.692602450793245 -33.005609613617096 6.2972776244901327 0 -0.77714596973225614 0.62932038083071107 1 0 0 1 I I #
point $-1 44.692602450793245 -34.77119930522079 7.7270239274834065 #
plane-surface $-1 70.73458052308726 0 0 -1 0 0 0 0 1 forward_v I I I I #
coedge $-1 $303 $429 $306 $423 reversed $201 $-1 #
vertex $-1 $423 $493 #
straight-curve $-1 -70.73458052308726 -36.497808765524489 0 0 0 -1 I I #
edge $-1 $421 -36.497808765524489 $425 36.497808765524489 $420 $494 forward 7 unknown #
straight-curve $-1 0 -36.497808765524489 -9.8592090977862927 -1 0 0 I I #
vertex $-1 $309 $495 #
straight-curve $-1 0 36.497808765524489 -9.8592090977862927 1 0 0 I I #
point $-1 70.73458052308726 36.497808765524489 -9.8592090977862927 #
point $-1 70.73458052308726 -36.497808765524489 -9.8592090977862927 #
coedge $-1 $420 $313 $316 $431 forward $201 $-1 #
straight-curve $-1 -70.73458052308726 0 9.8592090977862927 0 -1 0 I I #
edge $-1 $317 -9.8592090977862927 $425 9.8592090977862927 $316 $496 forward 7 unknown #
point $-1 -70.73458052308726 36.497808765524489 9.8592090977862927 #
point $-1 -70.73458052308726 -36.497808765524489 9.8592090977862927 #
straight-curve $-1 70.73458052308726 -36.497808765524489 0 0 0 -1 I I #
straight-curve $-1 70.73458052308726 36.497808765524489 0 0 0 -1 I I #
plane-surface $-1 0 -36.497808765524489 0 0 1 0 0 0 1 forward_v I I I I #
coedge $-1 $497 $329 $440 $498 reversed $220 $-1 #
coedge $-1 $329 $497 $343 $451 reversed $220 $-1 #
edge $-1 $443 -2.3416035328746077 $441 2.3416035328746077 $330 $499 forward 7 unknown #
coedge $-1 $331 $446 $437 $498 forward $327 $-1 #
vertex $-1 $332 $500 #
straight-curve $-1 0 36.497808765524489 -9.8592090977862927 1 0 0 I I #
vertex $-1 $333 $501 #
straight-curve $-1 -75.164644188520626 36.497808765524489 -5.1760020320370774 -1 0 0 I I #
point $-1 -70.73458052308726 36.497808765524489 -9.8592090977862927 #
coedge $-1 $440 $336 $339 $449 forward $327 $-1 #
straight-curve $-1 -70.73458052308726 0 -9.8592090977862927 0 -1 0 I I #
coedge $-1 $339 $338 $497 $502 forward $340 $-1 #
edge $-1 $341 -4.4300636654333658 $503 4.4300636654333658 $339 $504 forward 7 unknown #
point $-1 -70.73458052308726 -36.497808765524489 -9.8592090977862927 #
edge $-1 $443 -36.497808765524489 $452 36.497808765524489 $438 $505 forward 7 unknown #
vertex $-1 $451 $506 #
straight-curve $-1 -75.164644188520626 -36.497808765524489 -5.1760020320370774 1 0 0 I I #
coedge $-1 $348 $356 $349 $456 forward $234 $-1 #
edge $-1 $458 -44.070731915716976 $357 -9.2569652990235909 $348 $507 forward 7 unknown #
edge $-1 $462 -9.8592090977862927 $458 -0.36444847069441266 $349 $508 forward 7 unknown #
edge $-1 $354 27.948688110025444 $462 36.497808765524489 $350 $509 forward 7 unknown #
vertex $-1 $351 $510 #
straight-curve $-1 70.73458052308726 3.9959341858364983 36.46143803270288 0 0.66913059716165679 -0.74314483375859142 I I #
point $-1 70.73458052308726 27.948688110025444 9.859209097786291 #
point $-1 35.920813906393875 36.497808765524489 0.36444847069441266 #
vertex $-1 $457 $511 #
straight-curve $-1 0 36.497808765524489 9.8592090977862927 -1 0 0 I I #
vertex $-1 $363 $512 #
point $-1 56.327697214740567 29.36819516641863 2.5411273360061077 #
coedge $-1 $378 $377 $370 $467 forward $367 $-1 #
edge $-1 $468 37.452923433493844 $471 41.717293774099637 $466 $513 forward 7 unknown #
vertex $-1 $382 $514 #
straight-curve $-1 -39.728538938403283 -73.219998556981238 9.859209097786291 0 -1 0 I I #
edge $-1 $471 -25.855088055241563 $379 -1.8918137110818751 $378 $515 forward 7 unknown #
vertex $-1 $470 $516 #
straight-curve $-1 -39.728538938403283 -36.497808765524468 5.5948387571805256 0 0.62932038083071107 0.77714596973225614 I I #
point $-1 -39.728538938403283 -33.04458984491707 9.8592090977862927 #
point $-1 -15.765264594243595 -36.497808765524489 5.5948387571804989 #
straight-curve $-1 0 -36.497808765524489 9.8592090977862927 1 0 0 I I #
vertex $-1 $385 $517 #
point $-1 -31.88188912578623 -33.005609613617096 6.2972776244901327 #
vertex $-1 $389 $518 #
point $-1 -21.611914406860649 -33.005609613617096 6.2972776244901327 #
edge $-1 $481 37.452923433493844 $484 41.717293774099637 $394 $519 forward 7 unknown #
vertex $-1 $408 $520 #
straight-curve $-1 26.575977919250619 -73.219998556981238 9.859209097786291 0 -1 0 I I #
edge $-1 $484 7.2971703735853879 $405 31.260444717745074 $404 $521 forward 7 unknown #
vertex $-1 $483 $522 #
straight-curve $-1 26.575977919250619 -36.497808765524468 5.5948387571805256 0 0.62932038083071107 0.77714596973225614 I I #
point $-1 26.575977919250619 -33.04458984491707 9.8592090977862927 #
point $-1 50.539252263410305 -36.497808765524489 5.5948387571804989 #
straight-curve $-1 0 -36.497808765524489 9.8592090977862927 1 0 0 I I #
vertex $-1 $411 $523 #
point $-1 34.422627731867664 -33.005609613617096 6.2972776244901327 #
vertex $-1 $415 $524 #
point $-1 44.692602450793245 -33.005609613617096 6.2972776244901327 #
point $-1 -70.73458052308726 -36.497808765524489 -9.8592090977862927 #
straight-curve $-1 -70.73458052308726 0 -9.8592090977862927 0 1 0 I I #
point $-1 -70.73458052308726 36.497808765524489 -9.8592090977862927 #
straight-curve $-1 -70.73458052308726 36.497808765524489 0 0 0 -1 I I #
coedge $-1 $438 $437 $448 $502 reversed $220 $-1 #
edge $-1 $503 -36.497808765524489 $441 36.497808765524489 $437 $525 forward 7 unknown #
straight-curve $-1 -79.594707853953992 36.497808765524489 -7.5176055649116851 0 0 -1 I I #
point $-1 -79.594707853953992 36.497808765524489 -9.8592090977862927 #
point $-1 -79.594707853953992 36.497808765524489 -5.1760020320370774 #
edge $-1 $452 -2.3416035328746077 $503 2.3416035328746077 $497 $526 forward 7 unknown #
vertex $-1 $498 $527 #
straight-curve $-1 -75.164644188520626 -36.497808765524489 -9.8592090977862927 -1 0 0 I I #
straight-curve $-1 -79.594707853953992 0 -5.1760020320370774 0 -1 0 I I #
point $-1 -79.594707853953992 -36.497808765524489 -5.1760020320370774 #
straight-curve $-1 26.663848607370284 36.497808765524496 0.36444847069440556 -1 0 0 I I #
straight-curve $-1 70.73458052308726 36.497808765524489 0 0 0 -1 I I #
straight-curve $-1 70.73458052308726 0 9.8592090977862927 0 1 0 I I #
point $-1 70.73458052308726 36.497808765524489 0.36444847069441266 #
point $-1 70.73458052308726 36.497808765524489 9.8592090977862927 #
point $-1 53.327697214740567 27.138760665142854 0.53373554452113758 #
straight-curve $-1 -39.728538938403283 -36.497808765524489 47.312132531280135 0 0 -1 I I #
point $-1 -39.728538938403283 -36.497808765524489 9.8592090977862927 #
straight-curve $-1 -13.87345088316172 -36.497808765524489 5.5948387571805043 1 0 0 I I #
point $-1 -39.728538938403283 -36.497808765524489 5.5948387571804989 #
point $-1 -32.88188912578623 -32.228463643884837 5.6679572436594219 #
point $-1 -22.611914406860649 -32.228463643884837 5.6679572436594219 #
straight-curve $-1 26.575977919250619 -36.497808765524489 47.312132531280135 0 0 -1 I I #
point $-1 26.575977919250619 -36.497808765524489 9.8592090977862927 #
straight-curve $-1 19.278807545665231 -36.497808765524489 5.5948387571805043 1 0 0 I I #
point $-1 26.575977919250619 -36.497808765524489 5.5948387571804989 #
point $-1 33.422627731867664 -32.228463643884837 5.6679572436594219 #
point $-1 43.692602450793245 -32.228463643884837 5.6679572436594219 #
straight-curve $-1 -79.594707853953992 0 -9.8592090977862927 0 1 0 I I #
straight-curve $-1 -79.594707853953992 -36.497808765524489 -7.5176055649116851 0 0 -1 I I #
point $-1 -79.594707853953992 -36.497808765524489 -9.8592090977862927 #
End-of-ACIS-data 