500 0 7 0           
7 Unknown 11 ACIS 5.0 NT 24 Fri Mar 26 16:39:15 1999 
-1 9.9999999999999995e-007 1e-010 
body $-1 $7 $-1 $8 #
body $-1 $9 $-1 $10 #
body $-1 $11 $-1 $12 #
body $-1 $13 $-1 $14 #
body $-1 $15 $-1 $16 #
body $-1 $17 $-1 $18 #
body $-1 $19 $-1 $20 #
lump $-1 $-1 $21 $0 #
transform $-1 1 0 0 0 1 0 0 0 1 61.217688528092289 25.670252453530715 12.732890198285919 1 rotate no_reflect no_shear #
lump $-1 $-1 $22 $1 #
transform $-1 1 0 0 0 1 0 0 0 1 11.99264849624025 -4.5270559856297181 12.732890198285919 1 rotate no_reflect no_shear #
lump $-1 $-1 $23 $2 #
transform $-1 1 0 0 0 1 0 0 0 1 11.99264849624025 55.867560892691145 12.732890198285919 1 rotate no_reflect no_shear #
lump $-1 $-1 $24 $3 #
transform $-1 0.84804809178421925 0 0.52991927123019833 0 1 0 -0.52991927123019833 0 0.84804809178421925 -64.880865782407895 28.091512692884454 125.25041995390211 1 rotate no_reflect no_shear #
lump $-1 $-1 $25 $4 #
transform $-1 0.84804809178421925 0 0.52991927123019833 0 -1 0 0.52991927123019833 0 -0.84804809178421925 3.908765427143428 25.856140079258459 22.368843806952288 1 rotate no_reflect no_shear #
lump $-1 $-1 $26 $5 #
transform $-1 0.84804809178421925 0 0.52991927123019833 0 -1 0 0.52991927123019833 0 -0.84804809178421925 3.908765427143428 28.091512692884454 22.368843806952288 1 rotate no_reflect no_shear #
lump $-1 $-1 $27 $6 #
transform $-1 0.84804809178421925 0 0.52991927123019833 0 -1 0 0.52991927123019833 0 -0.84804809178421925 3.908765427143428 30.326885306510448 22.368843806952288 1 rotate no_reflect no_shear #
shell $-1 $-1 $-1 $28 $-1 $7 #
shell $-1 $-1 $-1 $29 $-1 $9 #
shell $-1 $-1 $-1 $30 $-1 $11 #
shell $-1 $-1 $-1 $31 $-1 $13 #
shell $-1 $-1 $-1 $32 $-1 $15 #
shell $-1 $-1 $-1 $33 $-1 $17 #
shell $-1 $-1 $-1 $34 $-1 $19 #
face $-1 $35 $36 $21 $-1 $37 forward single #
face $-1 $38 $39 $22 $-1 $40 forward single #
face $-1 $41 $42 $23 $-1 $43 forward single #
face $-1 $44 $45 $24 $-1 $46 forward single #
face $-1 $47 $48 $25 $-1 $49 forward single #
face $-1 $50 $51 $26 $-1 $52 forward single #
face $-1 $53 $54 $27 $-1 $55 forward single #
face $-1 $56 $57 $21 $-1 $58 reversed single #
loop $-1 $-1 $59 $28 #
plane-surface $-1 0 0 12.732890198285919 0 0 1 1 0 0 forward_v I I I I #
face $-1 $60 $61 $22 $-1 $62 reversed single #
loop $-1 $-1 $63 $29 #
plane-surface $-1 0 0 12.732890198285919 0 0 1 1 0 0 forward_v I I I I #
face $-1 $64 $65 $23 $-1 $66 reversed single #
loop $-1 $-1 $67 $30 #
plane-surface $-1 0 0 12.732890198285919 0 0 1 1 0 0 forward_v I I I I #
face $-1 $68 $69 $24 $-1 $70 reversed single #
loop $-1 $-1 $71 $31 #
plane-surface $-1 0 0 122.43537705618458 0 0 1 1 0 0 forward_v I I I I #
face $-1 $72 $73 $25 $-1 $74 forward single #
loop $-1 $75 $76 $32 #
cone-surface $-1 0 0 -0.75804925687429403 0 0 1 0.5 0 0 1 I I 0 1 0.5 forward I I I I #
face $-1 $77 $78 $26 $-1 $79 forward single #
loop $-1 $80 $81 $33 #
cone-surface $-1 0 0 -0.75804925687429403 0 0 1 0.5 0 0 1 I I 0 1 0.5 forward I I I I #
face $-1 $82 $83 $27 $-1 $84 forward single #
loop $-1 $85 $86 $34 #
cone-surface $-1 0 0 -0.75804925687429403 0 0 1 0.5 0 0 1 I I 0 1 0.5 forward I I I I #
face $-1 $87 $88 $21 $-1 $89 reversed single #
loop $-1 $-1 $90 $35 #
plane-surface $-1 0 0 -12.732890198285919 0 0 1 1 0 0 forward_v I I I I #
coedge $-1 $91 $92 $93 $94 forward $36 $-1 #
face $-1 $95 $96 $22 $-1 $97 reversed single #
loop $-1 $-1 $98 $38 #
plane-surface $-1 0 0 -12.732890198285919 0 0 1 1 0 0 forward_v I I I I #
coedge $-1 $99 $100 $101 $102 forward $39 $-1 #
face $-1 $103 $104 $23 $-1 $105 reversed single #
loop $-1 $-1 $106 $41 #
plane-surface $-1 0 0 -12.732890198285919 0 0 1 1 0 0 forward_v I I I I #
coedge $-1 $107 $108 $109 $110 forward $42 $-1 #
face $-1 $111 $112 $24 $-1 $113 reversed single #
loop $-1 $-1 $114 $44 #
plane-surface $-1 0 0 -122.43537705618458 0 0 1 1 0 0 forward_v I I I I #
coedge $-1 $115 $116 $117 $118 forward $45 $-1 #
face $-1 $-1 $119 $25 $-1 $120 forward single #
loop $-1 $-1 $121 $47 #
plane-surface $-1 0 0 -1.2660985137485881 0 0 -1 -1 0 0 forward_v I I I I #
loop $-1 $-1 $122 $32 #
coedge $-1 $76 $76 $121 $123 reversed $48 $-1 #
face $-1 $-1 $124 $26 $-1 $125 forward single #
loop $-1 $-1 $126 $50 #
plane-surface $-1 0 0 -1.2660985137485881 0 0 -1 -1 0 0 forward_v I I I I #
loop $-1 $-1 $127 $33 #
coedge $-1 $81 $81 $126 $128 reversed $51 $-1 #
face $-1 $-1 $129 $27 $-1 $130 forward single #
loop $-1 $-1 $131 $53 #
plane-surface $-1 0 0 -1.2660985137485881 0 0 -1 -1 0 0 forward_v I I I I #
loop $-1 $-1 $132 $34 #
coedge $-1 $86 $86 $131 $133 reversed $54 $-1 #
face $-1 $134 $135 $21 $-1 $136 reversed single #
loop $-1 $-1 $137 $56 #
plane-surface $-1 0 -25.670252453530715 0 0 1 0 0 0 1 forward_v I I I I #
coedge $-1 $138 $139 $140 $141 forward $57 $-1 #
coedge $-1 $142 $59 $143 $144 forward $36 $-1 #
coedge $-1 $59 $142 $145 $146 forward $36 $-1 #
coedge $-1 $147 $148 $59 $94 reversed $149 $-1 #
edge $-1 $150 -25.670252453530715 $151 25.670252453530715 $93 $152 forward 7 unknown #
face $-1 $153 $154 $22 $-1 $155 reversed single #
loop $-1 $-1 $156 $60 #
plane-surface $-1 0 -4.5270559856297181 0 0 1 0 0 0 1 forward_v I I I I #
coedge $-1 $157 $158 $159 $160 forward $61 $-1 #
coedge $-1 $161 $63 $162 $163 forward $39 $-1 #
coedge $-1 $63 $161 $164 $165 forward $39 $-1 #
coedge $-1 $166 $167 $63 $102 reversed $168 $-1 #
edge $-1 $169 -4.5270559856297181 $170 4.5270559856297181 $101 $171 forward 7 unknown #
face $-1 $172 $173 $23 $-1 $174 reversed single #
loop $-1 $-1 $175 $64 #
plane-surface $-1 0 -4.527055985629719 0 0 1 0 0 0 1 forward_v I I I I #
coedge $-1 $176 $177 $178 $179 forward $65 $-1 #
coedge $-1 $180 $67 $181 $182 forward $42 $-1 #
coedge $-1 $67 $180 $183 $184 forward $42 $-1 #
coedge $-1 $185 $186 $67 $110 reversed $187 $-1 #
edge $-1 $188 -4.527055985629719 $189 4.527055985629719 $109 $190 forward 7 unknown #
face $-1 $191 $192 $24 $-1 $193 reversed single #
loop $-1 $-1 $194 $68 #
plane-surface $-1 0 -3.7256210227099906 0 0 1 0 0 0 1 forward_v I I I I #
coedge $-1 $195 $196 $197 $198 forward $69 $-1 #
coedge $-1 $199 $71 $200 $201 forward $45 $-1 #
coedge $-1 $71 $199 $202 $203 forward $45 $-1 #
coedge $-1 $204 $205 $71 $118 reversed $206 $-1 #
edge $-1 $207 -3.7256210227099906 $208 3.7256210227099906 $117 $209 forward 7 unknown #
loop $-1 $210 $211 $72 #
cone-surface $-1 0 0 0 0 0 1 0.25 0 0 1 I I -0.70710678118654746 0.70710678118654746 0.25 forward I I I I #
coedge $-1 $121 $121 $76 $123 forward $73 $-1 #
coedge $-1 $122 $122 $211 $212 forward $75 $-1 #
edge $-1 $213 0 $213 6.2831853071796004 $121 $214 forward 7 unknown #
loop $-1 $215 $216 $77 #
cone-surface $-1 0 0 0 0 0 1 0.25 0 0 1 I I -0.70710678118654746 0.70710678118654746 0.25 forward I I I I #
coedge $-1 $126 $126 $81 $128 forward $78 $-1 #
coedge $-1 $127 $127 $216 $217 forward $80 $-1 #
edge $-1 $218 0 $218 6.2831853071796004 $126 $219 forward 7 unknown #
loop $-1 $220 $221 $82 #
cone-surface $-1 0 0 0 0 0 1 0.25 0 0 1 I I -0.70710678118654746 0.70710678118654746 0.25 forward I I I I #
coedge $-1 $131 $131 $86 $133 forward $83 $-1 #
coedge $-1 $132 $132 $221 $222 forward $85 $-1 #
edge $-1 $223 0 $223 6.2831853071796004 $131 $224 forward 7 unknown #
face $-1 $225 $226 $21 $-1 $227 reversed single #
loop $-1 $-1 $228 $87 #
plane-surface $-1 -61.217688528092289 0 0 1 0 0 0 0 -1 forward_v I I I I #
coedge $-1 $229 $145 $230 $231 forward $88 $-1 #
coedge $-1 $232 $90 $229 $233 forward $57 $-1 #
coedge $-1 $90 $232 $234 $235 forward $57 $-1 #
coedge $-1 $148 $147 $90 $141 reversed $149 $-1 #
edge $-1 $236 -25.670252453530715 $237 25.670252453530715 $140 $238 forward 7 unknown #
coedge $-1 $92 $91 $239 $240 forward $36 $-1 #
coedge $-1 $241 $242 $91 $144 reversed $226 $-1 #
edge $-1 $151 -61.217688528092289 $243 61.217688528092289 $143 $244 forward 7 unknown #
coedge $-1 $137 $245 $92 $146 reversed $88 $-1 #
edge $-1 $246 -61.217688528092289 $150 61.217688528092289 $145 $247 forward 7 unknown #
coedge $-1 $140 $93 $245 $248 forward $149 $-1 #
coedge $-1 $93 $140 $241 $249 reversed $149 $-1 #
loop $-1 $-1 $147 $225 #
vertex $-1 $94 $250 #
vertex $-1 $94 $251 #
straight-curve $-1 61.217688528092289 0 12.732890198285919 0 1 0 I I #
face $-1 $252 $253 $22 $-1 $254 reversed single #
loop $-1 $-1 $255 $95 #
plane-surface $-1 -2.4855307344369706 0 0 1 0 0 0 0 -1 forward_v I I I I #
coedge $-1 $256 $164 $257 $258 forward $96 $-1 #
coedge $-1 $259 $98 $256 $260 forward $61 $-1 #
coedge $-1 $98 $259 $261 $262 forward $61 $-1 #
coedge $-1 $167 $166 $98 $160 reversed $168 $-1 #
edge $-1 $263 -4.5270559856297181 $264 4.5270559856297181 $159 $265 forward 7 unknown #
coedge $-1 $100 $99 $266 $267 forward $39 $-1 #
coedge $-1 $268 $269 $99 $163 reversed $253 $-1 #
edge $-1 $170 -2.4855307344369706 $270 2.4855307344369706 $162 $271 forward 7 unknown #
coedge $-1 $156 $272 $100 $165 reversed $96 $-1 #
edge $-1 $273 -2.4855307344369706 $169 2.4855307344369706 $164 $274 forward 7 unknown #
coedge $-1 $159 $101 $272 $275 forward $168 $-1 #
coedge $-1 $101 $159 $268 $276 reversed $168 $-1 #
loop $-1 $-1 $166 $252 #
vertex $-1 $102 $277 #
vertex $-1 $102 $278 #
straight-curve $-1 2.4855307344369706 0 12.732890198285919 0 1 0 I I #
face $-1 $279 $280 $23 $-1 $281 reversed single #
loop $-1 $-1 $282 $103 #
plane-surface $-1 -2.4855307344369706 0 0 1 0 0 0 0 -1 forward_v I I I I #
coedge $-1 $283 $183 $284 $285 forward $104 $-1 #
coedge $-1 $286 $106 $283 $287 forward $65 $-1 #
coedge $-1 $106 $286 $288 $289 forward $65 $-1 #
coedge $-1 $186 $185 $106 $179 reversed $187 $-1 #
edge $-1 $290 -4.527055985629719 $291 4.527055985629719 $178 $292 forward 7 unknown #
coedge $-1 $108 $107 $293 $294 forward $42 $-1 #
coedge $-1 $295 $296 $107 $182 reversed $280 $-1 #
edge $-1 $189 -2.4855307344369706 $297 2.4855307344369706 $181 $298 forward 7 unknown #
coedge $-1 $175 $299 $108 $184 reversed $104 $-1 #
edge $-1 $300 -2.4855307344369706 $188 2.4855307344369706 $183 $301 forward 7 unknown #
coedge $-1 $178 $109 $299 $302 forward $187 $-1 #
coedge $-1 $109 $178 $295 $303 reversed $187 $-1 #
loop $-1 $-1 $185 $279 #
vertex $-1 $110 $304 #
vertex $-1 $110 $305 #
straight-curve $-1 2.4855307344369706 0 12.732890198285919 0 1 0 I I #
face $-1 $306 $307 $24 $-1 $308 reversed single #
loop $-1 $-1 $309 $111 #
plane-surface $-1 -244.87075411236916 0 0 1 0 0 0 0 -1 forward_v I I I I #
coedge $-1 $310 $202 $311 $312 forward $112 $-1 #
coedge $-1 $313 $114 $310 $314 forward $69 $-1 #
coedge $-1 $114 $313 $315 $316 forward $69 $-1 #
coedge $-1 $205 $204 $114 $198 reversed $206 $-1 #
edge $-1 $317 -3.7256210227099906 $318 3.7256210227099906 $197 $319 forward 7 unknown #
coedge $-1 $116 $115 $320 $321 forward $45 $-1 #
coedge $-1 $322 $323 $115 $201 reversed $307 $-1 #
edge $-1 $208 -244.87075411236916 $324 244.87075411236916 $200 $325 forward 7 unknown #
coedge $-1 $194 $326 $116 $203 reversed $112 $-1 #
edge $-1 $327 -244.87075411236916 $207 244.87075411236916 $202 $328 forward 7 unknown #
coedge $-1 $197 $117 $326 $329 forward $206 $-1 #
coedge $-1 $117 $197 $322 $330 reversed $206 $-1 #
loop $-1 $-1 $204 $306 #
vertex $-1 $118 $331 #
vertex $-1 $118 $332 #
straight-curve $-1 244.87075411236916 0 122.43537705618458 0 1 0 I I #
loop $-1 $-1 $333 $72 #
coedge $-1 $211 $211 $122 $212 reversed $119 $-1 #
edge $-1 $334 0 $334 6.2831853071796004 $211 $335 forward 7 unknown #
vertex $-1 $123 $336 #
ellipse-curve $-1 0 0 -1.2660985137485881 0 0 -1 0.5 0 0 1 I I #
loop $-1 $-1 $337 $77 #
coedge $-1 $216 $216 $127 $217 reversed $124 $-1 #
edge $-1 $338 0 $338 6.2831853071796004 $216 $339 forward 7 unknown #
vertex $-1 $128 $340 #
ellipse-curve $-1 0 0 -1.2660985137485881 0 0 -1 0.5 0 0 1 I I #
loop $-1 $-1 $341 $82 #
coedge $-1 $221 $221 $132 $222 reversed $129 $-1 #
edge $-1 $342 0 $342 6.2831853071796004 $221 $343 forward 7 unknown #
vertex $-1 $133 $344 #
ellipse-curve $-1 0 0 -1.2660985137485881 0 0 -1 0.5 0 0 1 I I #
face $-1 $-1 $149 $21 $-1 $345 reversed single #
loop $-1 $-1 $241 $134 #
plane-surface $-1 0 25.670252453530715 0 0 -1 0 0 0 -1 forward_v I I I I #
coedge $-1 $346 $239 $242 $347 forward $135 $-1 #
coedge $-1 $245 $137 $138 $233 reversed $88 $-1 #
coedge $-1 $239 $346 $137 $231 reversed $135 $-1 #
edge $-1 $246 -12.732890198285919 $348 12.732890198285919 $230 $349 forward 7 unknown #
coedge $-1 $139 $138 $346 $350 forward $57 $-1 #
edge $-1 $237 -61.217688528092289 $348 61.217688528092289 $229 $351 forward 7 unknown #
coedge $-1 $242 $241 $139 $235 reversed $226 $-1 #
edge $-1 $352 -61.217688528092289 $236 61.217688528092289 $234 $353 forward 7 unknown #
vertex $-1 $141 $354 #
vertex $-1 $248 $355 #
straight-curve $-1 61.217688528092289 0 -12.732890198285919 0 -1 0 I I #
coedge $-1 $228 $230 $142 $240 reversed $135 $-1 #
edge $-1 $243 -25.670252453530715 $246 25.670252453530715 $239 $356 forward 7 unknown #
coedge $-1 $234 $143 $148 $249 forward $226 $-1 #
coedge $-1 $143 $234 $228 $347 reversed $226 $-1 #
vertex $-1 $144 $357 #
straight-curve $-1 0 25.670252453530715 12.732890198285919 -1 0 0 I I #
coedge $-1 $145 $229 $147 $248 reversed $88 $-1 #
vertex $-1 $240 $358 #
straight-curve $-1 0 -25.670252453530715 12.732890198285919 1 0 0 I I #
edge $-1 $150 -12.732890198285919 $237 12.732890198285919 $147 $359 forward 7 unknown #
edge $-1 $151 -12.732890198285919 $236 12.732890198285919 $148 $360 forward 7 unknown #
point $-1 61.217688528092289 -25.670252453530715 12.732890198285919 #
point $-1 61.217688528092289 25.670252453530715 12.732890198285919 #
face $-1 $-1 $168 $22 $-1 $361 reversed single #
loop $-1 $-1 $268 $153 #
plane-surface $-1 0 4.5270559856297181 0 0 -1 0 0 0 -1 forward_v I I I I #
coedge $-1 $362 $266 $269 $363 forward $154 $-1 #
coedge $-1 $272 $156 $157 $260 reversed $96 $-1 #
coedge $-1 $266 $362 $156 $258 reversed $154 $-1 #
edge $-1 $273 -12.732890198285919 $364 12.732890198285919 $257 $365 forward 7 unknown #
coedge $-1 $158 $157 $362 $366 forward $61 $-1 #
edge $-1 $264 -2.4855307344369706 $364 2.4855307344369706 $256 $367 forward 7 unknown #
coedge $-1 $269 $268 $158 $262 reversed $253 $-1 #
edge $-1 $368 -2.4855307344369706 $263 2.4855307344369706 $261 $369 forward 7 unknown #
vertex $-1 $160 $370 #
vertex $-1 $275 $371 #
straight-curve $-1 2.4855307344369706 0 -12.732890198285919 0 -1 0 I I #
coedge $-1 $255 $257 $161 $267 reversed $154 $-1 #
edge $-1 $270 -4.5270559856297181 $273 4.5270559856297181 $266 $372 forward 7 unknown #
coedge $-1 $261 $162 $167 $276 forward $253 $-1 #
coedge $-1 $162 $261 $255 $363 reversed $253 $-1 #
vertex $-1 $163 $373 #
straight-curve $-1 0 4.5270559856297181 12.732890198285919 -1 0 0 I I #
coedge $-1 $164 $256 $166 $275 reversed $96 $-1 #
vertex $-1 $267 $374 #
straight-curve $-1 0 -4.5270559856297181 12.732890198285919 1 0 0 I I #
edge $-1 $169 -12.732890198285919 $264 12.732890198285919 $166 $375 forward 7 unknown #
edge $-1 $170 -12.732890198285919 $263 12.732890198285919 $167 $376 forward 7 unknown #
point $-1 2.4855307344369706 -4.5270559856297181 12.732890198285919 #
point $-1 2.4855307344369706 4.5270559856297181 12.732890198285919 #
face $-1 $-1 $187 $23 $-1 $377 reversed single #
loop $-1 $-1 $295 $172 #
plane-surface $-1 0 4.527055985629719 0 0 -1 0 0 0 -1 forward_v I I I I #
coedge $-1 $378 $293 $296 $379 forward $173 $-1 #
coedge $-1 $299 $175 $176 $287 reversed $104 $-1 #
coedge $-1 $293 $378 $175 $285 reversed $173 $-1 #
edge $-1 $300 -12.732890198285919 $380 12.732890198285919 $284 $381 forward 7 unknown #
coedge $-1 $177 $176 $378 $382 forward $65 $-1 #
edge $-1 $291 -2.4855307344369706 $380 2.4855307344369706 $283 $383 forward 7 unknown #
coedge $-1 $296 $295 $177 $289 reversed $280 $-1 #
edge $-1 $384 -2.4855307344369706 $290 2.4855307344369706 $288 $385 forward 7 unknown #
vertex $-1 $179 $386 #
vertex $-1 $302 $387 #
straight-curve $-1 2.4855307344369706 0 -12.732890198285919 0 -1 0 I I #
coedge $-1 $282 $284 $180 $294 reversed $173 $-1 #
edge $-1 $297 -4.527055985629719 $300 4.527055985629719 $293 $388 forward 7 unknown #
coedge $-1 $288 $181 $186 $303 forward $280 $-1 #
coedge $-1 $181 $288 $282 $379 reversed $280 $-1 #
vertex $-1 $182 $389 #
straight-curve $-1 0 4.527055985629719 12.732890198285919 -1 0 0 I I #
coedge $-1 $183 $283 $185 $302 reversed $104 $-1 #
vertex $-1 $294 $390 #
straight-curve $-1 0 -4.527055985629719 12.732890198285919 1 0 0 I I #
edge $-1 $188 -12.732890198285919 $291 12.732890198285919 $185 $391 forward 7 unknown #
edge $-1 $189 -12.732890198285919 $290 12.732890198285919 $186 $392 forward 7 unknown #
point $-1 2.4855307344369706 -4.527055985629719 12.732890198285919 #
point $-1 2.4855307344369706 4.527055985629719 12.732890198285919 #
face $-1 $-1 $206 $24 $-1 $393 reversed single #
loop $-1 $-1 $322 $191 #
plane-surface $-1 0 3.7256210227099906 0 0 -1 0 0 0 -1 forward_v I I I I #
coedge $-1 $394 $320 $323 $395 forward $192 $-1 #
coedge $-1 $326 $194 $195 $314 reversed $112 $-1 #
coedge $-1 $320 $394 $194 $312 reversed $192 $-1 #
edge $-1 $327 -122.43537705618458 $396 122.43537705618458 $311 $397 forward 7 unknown #
coedge $-1 $196 $195 $394 $398 forward $69 $-1 #
edge $-1 $318 -244.87075411236916 $396 244.87075411236916 $310 $399 forward 7 unknown #
coedge $-1 $323 $322 $196 $316 reversed $307 $-1 #
edge $-1 $400 -244.87075411236916 $317 244.87075411236916 $315 $401 forward 7 unknown #
vertex $-1 $198 $402 #
vertex $-1 $329 $403 #
straight-curve $-1 244.87075411236916 0 -122.43537705618458 0 -1 0 I I #
coedge $-1 $309 $311 $199 $321 reversed $192 $-1 #
edge $-1 $324 -3.7256210227099906 $327 3.7256210227099906 $320 $404 forward 7 unknown #
coedge $-1 $315 $200 $205 $330 forward $307 $-1 #
coedge $-1 $200 $315 $309 $395 reversed $307 $-1 #
vertex $-1 $201 $405 #
straight-curve $-1 0 3.7256210227099906 122.43537705618458 -1 0 0 I I #
coedge $-1 $202 $310 $204 $329 reversed $112 $-1 #
vertex $-1 $321 $406 #
straight-curve $-1 0 -3.7256210227099906 122.43537705618458 1 0 0 I I #
edge $-1 $207 -122.43537705618458 $318 122.43537705618458 $204 $407 forward 7 unknown #
edge $-1 $208 -122.43537705618458 $317 122.43537705618458 $205 $408 forward 7 unknown #
point $-1 244.87075411236916 -3.7256210227099906 122.43537705618458 #
point $-1 244.87075411236916 3.7256210227099906 122.43537705618458 #
coedge $-1 $333 $333 $-1 $409 reversed $210 $-1 #
vertex $-1 $212 $410 #
ellipse-curve $-1 0 0 -0.25 0 0 -1 0.5 0 0 1 I I #
point $-1 0.5 0 -1.2660985137485881 #
coedge $-1 $337 $337 $-1 $411 reversed $215 $-1 #
vertex $-1 $217 $412 #
ellipse-curve $-1 0 0 -0.25 0 0 -1 0.5 0 0 1 I I #
point $-1 0.5 0 -1.2660985137485881 #
coedge $-1 $341 $341 $-1 $413 reversed $220 $-1 #
vertex $-1 $222 $414 #
ellipse-curve $-1 0 0 -0.25 0 0 -1 0.5 0 0 1 I I #
point $-1 0.5 0 -1.2660985137485881 #
plane-surface $-1 61.217688528092289 0 0 -1 0 0 0 0 1 forward_v I I I I #
coedge $-1 $230 $228 $232 $350 reversed $135 $-1 #
edge $-1 $243 -12.732890198285919 $352 12.732890198285919 $242 $415 forward 7 unknown #
vertex $-1 $350 $416 #
straight-curve $-1 -61.217688528092289 -25.670252453530715 0 0 0 -1 I I #
edge $-1 $348 -25.670252453530715 $352 25.670252453530715 $346 $417 forward 7 unknown #
straight-curve $-1 0 -25.670252453530715 -12.732890198285919 -1 0 0 I I #
vertex $-1 $235 $418 #
straight-curve $-1 0 25.670252453530715 -12.732890198285919 1 0 0 I I #
point $-1 61.217688528092289 25.670252453530715 -12.732890198285919 #
point $-1 61.217688528092289 -25.670252453530715 -12.732890198285919 #
straight-curve $-1 -61.217688528092289 0 12.732890198285919 0 -1 0 I I #
point $-1 -61.217688528092289 25.670252453530715 12.732890198285919 #
point $-1 -61.217688528092289 -25.670252453530715 12.732890198285919 #
straight-curve $-1 61.217688528092289 -25.670252453530715 0 0 0 -1 I I #
straight-curve $-1 61.217688528092289 25.670252453530715 0 0 0 -1 I I #
plane-surface $-1 2.4855307344369706 0 0 -1 0 0 0 0 1 forward_v I I I I #
coedge $-1 $257 $255 $259 $366 reversed $154 $-1 #
edge $-1 $270 -12.732890198285919 $368 12.732890198285919 $269 $419 forward 7 unknown #
vertex $-1 $366 $420 #
straight-curve $-1 -2.4855307344369706 -4.5270559856297181 0 0 0 -1 I I #
edge $-1 $364 -4.5270559856297181 $368 4.5270559856297181 $362 $421 forward 7 unknown #
straight-curve $-1 0 -4.5270559856297181 -12.732890198285919 -1 0 0 I I #
vertex $-1 $262 $422 #
straight-curve $-1 0 4.5270559856297181 -12.732890198285919 1 0 0 I I #
point $-1 2.4855307344369706 4.5270559856297181 -12.732890198285919 #
point $-1 2.4855307344369706 -4.5270559856297181 -12.732890198285919 #
straight-curve $-1 -2.4855307344369706 0 12.732890198285919 0 -1 0 I I #
point $-1 -2.4855307344369706 4.5270559856297181 12.732890198285919 #
point $-1 -2.4855307344369706 -4.5270559856297181 12.732890198285919 #
straight-curve $-1 2.4855307344369706 -4.5270559856297181 0 0 0 -1 I I #
straight-curve $-1 2.4855307344369706 4.5270559856297181 0 0 0 -1 I I #
plane-surface $-1 2.4855307344369706 0 0 -1 0 0 0 0 1 forward_v I I I I #
coedge $-1 $284 $282 $286 $382 reversed $173 $-1 #
edge $-1 $297 -12.732890198285919 $384 12.732890198285919 $296 $423 forward 7 unknown #
vertex $-1 $382 $424 #
straight-curve $-1 -2.4855307344369706 -4.527055985629719 0 0 0 -1 I I #
edge $-1 $380 -4.527055985629719 $384 4.527055985629719 $378 $425 forward 7 unknown #
straight-curve $-1 0 -4.527055985629719 -12.732890198285919 -1 0 0 I I #
vertex $-1 $289 $426 #
straight-curve $-1 0 4.527055985629719 -12.732890198285919 1 0 0 I I #
point $-1 2.4855307344369706 4.527055985629719 -12.732890198285919 #
point $-1 2.4855307344369706 -4.527055985629719 -12.732890198285919 #
straight-curve $-1 -2.4855307344369706 0 12.732890198285919 0 -1 0 I I #
point $-1 -2.4855307344369706 4.527055985629719 12.732890198285919 #
point $-1 -2.4855307344369706 -4.527055985629719 12.732890198285919 #
straight-curve $-1 2.4855307344369706 -4.527055985629719 0 0 0 -1 I I #
straight-curve $-1 2.4855307344369706 4.527055985629719 0 0 0 -1 I I #
plane-surface $-1 244.87075411236916 0 0 -1 0 0 0 0 1 forward_v I I I I #
coedge $-1 $311 $309 $313 $398 reversed $192 $-1 #
edge $-1 $324 -122.43537705618458 $400 122.43537705618458 $323 $427 forward 7 unknown #
vertex $-1 $398 $428 #
straight-curve $-1 -244.87075411236916 -3.7256210227099906 0 0 0 -1 I I #
edge $-1 $396 -3.7256210227099906 $400 3.7256210227099906 $394 $429 forward 7 unknown #
straight-curve $-1 0 -3.7256210227099906 -122.43537705618458 -1 0 0 I I #
vertex $-1 $316 $430 #
straight-curve $-1 0 3.7256210227099906 -122.43537705618458 1 0 0 I I #
point $-1 244.87075411236916 3.7256210227099906 -122.43537705618458 #
point $-1 244.87075411236916 -3.7256210227099906 -122.43537705618458 #
straight-curve $-1 -244.87075411236916 0 122.43537705618458 0 -1 0 I I #
point $-1 -244.87075411236916 3.7256210227099906 122.43537705618458 #
point $-1 -244.87075411236916 -3.7256210227099906 122.43537705618458 #
straight-curve $-1 244.87075411236916 -3.7256210227099906 0 0 0 -1 I I #
straight-curve $-1 244.87075411236916 3.7256210227099906 0 0 0 -1 I I #
edge $-1 $431 1 $431 0 $333 $-1 forward 7 unknown #
point $-1 0.5 0 -0.25 #
edge $-1 $432 1 $432 0 $337 $-1 forward 7 unknown #
point $-1 0.5 0 -0.25 #
edge $-1 $433 1 $433 0 $341 $-1 forward 7 unknown #
point $-1 0.5 0 -0.25 #
straight-curve $-1 -61.217688528092289 25.670252453530715 0 0 0 -1 I I #
point $-1 -61.217688528092289 -25.670252453530715 -12.732890198285919 #
straight-curve $-1 -61.217688528092289 0 -12.732890198285919 0 1 0 I I #
point $-1 -61.217688528092289 25.670252453530715 -12.732890198285919 #
straight-curve $-1 -2.4855307344369706 4.5270559856297181 0 0 0 -1 I I #
point $-1 -2.4855307344369706 -4.5270559856297181 -12.732890198285919 #
straight-curve $-1 -2.4855307344369706 0 -12.732890198285919 0 1 0 I I #
point $-1 -2.4855307344369706 4.5270559856297181 -12.732890198285919 #
straight-curve $-1 -2.4855307344369706 4.527055985629719 0 0 0 -1 I I #
point $-1 -2.4855307344369706 -4.527055985629719 -12.732890198285919 #
straight-curve $-1 -2.4855307344369706 0 -12.732890198285919 0 1 0 I I #
point $-1 -2.4855307344369706 4.527055985629719 -12.732890198285919 #
straight-curve $-1 -244.87075411236916 3.7256210227099906 0 0 0 -1 I I #
point $-1 -244.87075411236916 -3.7256210227099906 -122.43537705618458 #
straight-curve $-1 -244.87075411236916 0 -122.43537705618458 0 1 0 I I #
point $-1 -244.87075411236916 3.7256210227099906 -122.43537705618458 #
vertex $-1 $409 $434 #
vertex $-1 $411 $435 #
vertex $-1 $413 $436 #
point $-1 0 0 0.25 #
point $-1 0 0 0.25 #
point $-1 0 0 0.25 #
End-of-ACIS-data 