500 0 11 0           
7 Unknown 11 ACIS 5.0 NT 24 Fri Mar 26 17:19:39 1999 
-1 9.9999999999999995e-007 1e-010 
body $-1 $11 $-1 $12 #
body $-1 $13 $-1 $14 #
body $-1 $15 $-1 $16 #
body $-1 $17 $-1 $18 #
body $-1 $19 $-1 $20 #
body $-1 $21 $-1 $22 #
body $-1 $23 $-1 $24 #
body $-1 $25 $-1 $26 #
body $-1 $27 $-1 $28 #
body $-1 $29 $-1 $30 #
body $-1 $31 $-1 $32 #
lump $-1 $-1 $33 $0 #
transform $-1 1 0 0 0 1 0 0 0 1 63.4797204504532 29.375958894813593 6.5505331234697861 1 rotate no_reflect no_shear #
lump $-1 $-1 $34 $1 #
transform $-1 1 0 0 0 1 0 0 0 1 63.4797204504532 29.375958894813593 6.5505331234697861 1 rotate no_reflect no_shear #
lump $-1 $-1 $35 $2 #
transform $-1 1 0 0 0 1 0 0 0 1 63.4797204504532 29.375958894813593 6.5505331234697861 1 rotate no_reflect no_shear #
lump $-1 $-1 $36 $3 #
transform $-1 1 0 0 0 1 0 0 0 1 63.4797204504532 29.375958894813593 6.5505331234697861 1 rotate no_reflect no_shear #
lump $-1 $-1 $37 $4 #
transform $-1 1 0 0 0 1 0 0 0 1 63.4797204504532 29.375958894813593 6.5505331234697861 1 rotate no_reflect no_shear #
lump $-1 $-1 $38 $5 #
transform $-1 1 0 0 0 1 0 0 0 1 63.4797204504532 29.375958894813593 6.5505331234697861 1 rotate no_reflect no_shear #
lump $-1 $-1 $39 $6 #
transform $-1 1 0 0 0 1 0 0 0 1 63.4797204504532 29.375958894813593 6.5505331234697861 1 rotate no_reflect no_shear #
lump $-1 $-1 $40 $7 #
transform $-1 1 0 0 0 1 0 0 0 1 63.4797204504532 29.375958894813593 6.5505331234697861 1 rotate no_reflect no_shear #
lump $-1 $-1 $41 $8 #
transform $-1 1 0 0 0 1 0 0 0 1 63.4797204504532 29.375958894813593 6.5505331234697861 1 rotate no_reflect no_shear #
lump $-1 $-1 $42 $9 #
transform $-1 1 0 0 0 1 0 0 0 1 63.4797204504532 29.375958894813593 6.5505331234697861 1 rotate no_reflect no_shear #
lump $-1 $-1 $43 $10 #
transform $-1 1 0 0 0 1 0 0 0 1 63.4797204504532 29.375958894813593 6.5505331234697861 1 rotate no_reflect no_shear #
shell $-1 $-1 $-1 $44 $-1 $11 #
shell $-1 $-1 $-1 $45 $-1 $13 #
shell $-1 $-1 $-1 $46 $-1 $15 #
shell $-1 $-1 $-1 $47 $-1 $17 #
shell $-1 $-1 $-1 $48 $-1 $19 #
shell $-1 $-1 $-1 $49 $-1 $21 #
shell $-1 $-1 $-1 $50 $-1 $23 #
shell $-1 $-1 $-1 $51 $-1 $25 #
shell $-1 $-1 $-1 $52 $-1 $27 #
shell $-1 $-1 $-1 $53 $-1 $29 #
shell $-1 $-1 $-1 $54 $-1 $31 #
face $-1 $55 $56 $33 $-1 $57 forward single #
face $-1 $58 $59 $34 $-1 $60 forward single #
face $-1 $61 $62 $35 $-1 $63 reversed single #
face $-1 $64 $65 $36 $-1 $66 reversed single #
face $-1 $67 $68 $37 $-1 $69 forward single #
face $-1 $70 $71 $38 $-1 $72 forward single #
face $-1 $73 $74 $39 $-1 $75 reversed single #
face $-1 $76 $77 $40 $-1 $78 forward single #
face $-1 $79 $80 $41 $-1 $81 forward single #
face $-1 $82 $83 $42 $-1 $84 reversed single #
face $-1 $85 $86 $43 $-1 $87 forward single #
face $-1 $88 $89 $33 $-1 $90 reversed single #
loop $-1 $-1 $91 $44 #
plane-surface $-1 0 0 6.5505331234697861 0 0 1 1 0 0 forward_v I I I I #
face $-1 $92 $93 $34 $-1 $94 reversed single #
loop $-1 $-1 $95 $45 #
plane-surface $-1 0 -26.066187434335731 -2.4328266508827223 0 0 1 1 0 0 forward_v I I I I #
face $-1 $96 $97 $35 $-1 $98 reversed single #
loop $-1 $-1 $99 $46 #
plane-surface $-1 -57.312466858829971 21.640316440902623 0 0 1 0 0 0 1 forward_v I I I I #
face $-1 $100 $101 $36 $-1 $102 reversed single #
loop $-1 $-1 $103 $47 #
plane-surface $-1 35.392263812180261 -14.06700033013178 178.66763953211506 0 -1 0 -0.5877852598018023 0 -0.80901698891910034 forward_v I I I I #
face $-1 $104 $105 $37 $-1 $106 forward single #
loop $-1 $107 $108 $48 #
cone-surface $-1 59.130413911637277 -20.27372578993613 2.8987375398534887 -0.5877852598018023 0 -0.80901698891910034 0.80901698891910034 0 -0.5877852598018023 1 I I 0 1 1 forward I I I I #
face $-1 $109 $110 $38 $-1 $111 forward single #
loop $-1 $112 $113 $49 #
cone-surface $-1 59.130413911637277 -16.54969051405352 2.8987375398534887 -0.5877852598018023 0 -0.80901698891910034 0.80901698891910034 0 -0.5877852598018023 1 I I 0 1 1 forward I I I I #
face $-1 $114 $115 $39 $-1 $116 reversed single #
loop $-1 $-1 $117 $50 #
plane-surface $-1 35.392263812180261 8.1313658772484665 178.66763953211506 0 -1 0 -0.5877852598018023 0 -0.80901698891910034 forward_v I I I I #
face $-1 $118 $119 $40 $-1 $120 forward single #
loop $-1 $121 $122 $51 #
cone-surface $-1 59.130413911637277 1.9246404174441167 2.8987375398534887 -0.5877852598018023 0 -0.80901698891910034 0.80901698891910034 0 -0.5877852598018023 1 I I 0 1 1 forward I I I I #
face $-1 $123 $124 $41 $-1 $125 forward single #
loop $-1 $126 $127 $52 #
cone-surface $-1 59.130413911637277 5.648675693326723 2.8987375398534887 -0.5877852598018023 0 -0.80901698891910034 0.80901698891910034 0 -0.5877852598018023 1 I I 0 1 1 forward I I I I #
face $-1 $128 $129 $42 $-1 $130 reversed single #
loop $-1 $-1 $131 $53 #
plane-surface $-1 -164.87403933377442 4.9558935578499295 76.562348242964973 0 1 0 -0.79863551827123203 0 0.60181501223851219 forward_v I I I I #
face $-1 $132 $133 $43 $-1 $134 forward single #
loop $-1 $135 $136 $54 #
cone-surface $-1 -59.906293204393741 9.2984323332543113 2.4760978403822187 0.79863551827123203 0 -0.60181501223851219 0.90272251835776829 0 1.197953277406848 1 I I 0 1 1.5 forward I I I I #
face $-1 $137 $138 $33 $-1 $139 reversed single #
loop $-1 $-1 $140 $55 #
plane-surface $-1 0 0 -6.5505331234697861 0 0 1 1 0 0 forward_v I I I I #
coedge $-1 $141 $142 $143 $144 forward $56 $-1 #
face $-1 $145 $146 $34 $-1 $147 reversed single #
loop $-1 $-1 $148 $58 #
plane-surface $-1 0 -26.066187434335731 -5.5302310549604883 0 0 1 1 0 0 forward_v I I I I #
coedge $-1 $149 $150 $151 $152 reversed $59 $-1 #
face $-1 $153 $154 $35 $-1 $155 reversed single #
loop $-1 $-1 $156 $61 #
plane-surface $-1 -58.947571246481317 25.508137667858108 0 1 0 0 0 0 -1 forward_v I I I I #
coedge $-1 $157 $158 $159 $160 forward $62 $-1 #
face $-1 $161 $162 $36 $-1 $163 reversed single #
loop $-1 $-1 $164 $64 #
plane-surface $-1 -39.232624142050568 -18.411708151994823 75.955294939611292 0.5877852598018023 0 0.80901698891910034 0.80901698891910034 0 -0.5877852598018023 forward_v I I I I #
coedge $-1 $165 $166 $167 $168 reversed $65 $-1 #
face $-1 $-1 $169 $37 $-1 $170 forward single #
loop $-1 $171 $172 $67 #
cone-surface $-1 58.079658292320573 -20.27372578993613 1.4524965308222919 -0.5877852598018023 0 -0.80901698891910034 0.40450849445955017 0 -0.29389262990090115 1 I I -0.70710678118654746 0.70710678118654746 0.5 forward I I I I #
loop $-1 $-1 $173 $48 #
coedge $-1 $108 $108 $174 $175 reversed $68 $-1 #
face $-1 $-1 $176 $38 $-1 $177 forward single #
loop $-1 $178 $179 $70 #
cone-surface $-1 58.079658292320573 -16.54969051405352 1.4524965308222919 -0.5877852598018023 0 -0.80901698891910034 0.40450849445955017 0 -0.29389262990090115 1 I I -0.70710678118654746 0.70710678118654746 0.5 forward I I I I #
loop $-1 $-1 $180 $49 #
coedge $-1 $113 $113 $181 $182 reversed $71 $-1 #
face $-1 $183 $184 $39 $-1 $185 reversed single #
loop $-1 $-1 $186 $73 #
plane-surface $-1 -39.232624142050568 3.7866580553854234 75.955294939611292 0.5877852598018023 0 0.80901698891910034 0.80901698891910034 0 -0.5877852598018023 forward_v I I I I #
coedge $-1 $187 $188 $189 $190 reversed $74 $-1 #
face $-1 $-1 $191 $40 $-1 $192 forward single #
loop $-1 $193 $194 $76 #
cone-surface $-1 58.079658292320573 1.9246404174441167 1.4524965308222919 -0.5877852598018023 0 -0.80901698891910034 0.40450849445955017 0 -0.29389262990090115 1 I I -0.70710678118654746 0.70710678118654746 0.5 forward I I I I #
loop $-1 $-1 $195 $51 #
coedge $-1 $122 $122 $196 $197 reversed $77 $-1 #
face $-1 $-1 $198 $41 $-1 $199 forward single #
loop $-1 $200 $201 $79 #
cone-surface $-1 58.079658292320573 5.648675693326723 1.4524965308222919 -0.5877852598018023 0 -0.80901698891910034 0.40450849445955017 0 -0.29389262990090115 1 I I -0.70710678118654746 0.70710678118654746 0.5 forward I I I I #
loop $-1 $-1 $202 $52 #
coedge $-1 $127 $127 $203 $204 reversed $80 $-1 #
face $-1 $205 $206 $42 $-1 $207 reversed single #
loop $-1 $-1 $208 $82 #
plane-surface $-1 -63.479720450453186 9.2984323332543113 0.15625076339132704 -0.79863551827123203 0 0.60181501223851219 0.60181501223851219 0 0.79863551827123203 forward_v I I I I #
coedge $-1 $209 $210 $211 $212 reversed $83 $-1 #
face $-1 $-1 $213 $43 $-1 $214 forward single #
loop $-1 $215 $216 $85 #
cone-surface $-1 -58.143107936101288 9.2984323332543113 1.1474424781549999 0.79863551827123203 0 -0.60181501223851219 0.45136125917888414 0 0.59897663870342399 1 I I -0.70710678118654746 0.70710678118654768 0.75 forward I I I I #
loop $-1 $-1 $217 $54 #
coedge $-1 $136 $136 $218 $219 reversed $86 $-1 #
face $-1 $220 $221 $33 $-1 $222 reversed single #
loop $-1 $-1 $223 $88 #
plane-surface $-1 0 -29.375958894813593 0 0 1 0 0 0 1 forward_v I I I I #
coedge $-1 $224 $225 $226 $227 forward $89 $-1 #
coedge $-1 $228 $91 $229 $230 forward $56 $-1 #
coedge $-1 $91 $228 $231 $232 forward $56 $-1 #
coedge $-1 $233 $234 $91 $144 reversed $235 $-1 #
edge $-1 $236 -29.375958894813593 $237 29.375958894813593 $143 $238 forward 7 unknown #
face $-1 $239 $240 $34 $-1 $241 reversed single #
loop $-1 $-1 $242 $92 #
plane-surface $-1 0 -22.75641597385787 -3.9815288529216053 0 -1 0 0 0 -1 forward_v I I I I #
coedge $-1 $243 $244 $245 $246 reversed $93 $-1 #
coedge $-1 $247 $95 $248 $249 forward $59 $-1 #
coedge $-1 $95 $247 $250 $251 reversed $59 $-1 #
coedge $-1 $252 $253 $95 $152 forward $254 $-1 #
edge $-1 $255 9.7233222566900039 $256 16.342865177645727 $151 $257 forward 7 unknown #
face $-1 $258 $259 $35 $-1 $260 reversed single #
loop $-1 $-1 $261 $96 #
plane-surface $-1 -55.677362471178625 25.508137667858108 0 -1 0 0 0 0 1 forward_v I I I I #
coedge $-1 $262 $263 $264 $265 reversed $97 $-1 #
coedge $-1 $266 $99 $267 $268 reversed $62 $-1 #
coedge $-1 $99 $266 $269 $270 reversed $62 $-1 #
coedge $-1 $263 $262 $99 $160 reversed $97 $-1 #
edge $-1 $271 -6.5505331234697861 $272 6.5505331234697861 $159 $273 forward 7 unknown #
face $-1 $274 $275 $36 $-1 $276 forward single #
loop $-1 $-1 $277 $100 #
plane-surface $-1 35.392263812180261 -22.756415973857866 178.66763953211506 0 1 0 0.5877852598018023 0 0.80901698891910034 forward_v I I I I #
coedge $-1 $278 $279 $280 $281 reversed $101 $-1 #
coedge $-1 $166 $103 $282 $283 reversed $65 $-1 #
coedge $-1 $103 $165 $278 $284 reversed $65 $-1 #
coedge $-1 $280 $285 $103 $168 forward $275 $-1 #
edge $-1 $286 -45.78358854436307 $287 -38.598701445562824 $167 $288 forward 7 unknown #
loop $-1 $-1 $174 $104 #
plane-surface $-1 -39.232624142050568 -18.411708151994823 75.955294939611292 0.5877852598018023 0 0.80901698891910034 0.80901698891910034 0 -0.5877852598018023 forward_v I I I I #
loop $-1 $-1 $289 $67 #
coedge $-1 $172 $172 $173 $290 reversed $105 $-1 #
coedge $-1 $173 $173 $172 $290 forward $107 $-1 #
coedge $-1 $174 $174 $108 $175 forward $169 $-1 #
edge $-1 $291 0 $291 6.2831853071796004 $174 $292 forward 7 unknown #
loop $-1 $-1 $181 $109 #
plane-surface $-1 -39.232624142050568 -18.411708151994823 75.955294939611292 0.5877852598018023 0 0.80901698891910034 0.80901698891910034 0 -0.5877852598018023 forward_v I I I I #
loop $-1 $-1 $293 $70 #
coedge $-1 $179 $179 $180 $294 reversed $110 $-1 #
coedge $-1 $180 $180 $179 $294 forward $112 $-1 #
coedge $-1 $181 $181 $113 $182 forward $176 $-1 #
edge $-1 $295 0 $295 6.2831853071796004 $181 $296 forward 7 unknown #
face $-1 $297 $298 $39 $-1 $299 reversed single #
loop $-1 $-1 $300 $114 #
plane-surface $-1 35.392263812180261 -0.5580497664776205 178.66763953211506 0 1 0 0.5877852598018023 0 0.80901698891910034 forward_v I I I I #
coedge $-1 $301 $302 $303 $304 reversed $115 $-1 #
coedge $-1 $188 $117 $305 $306 reversed $74 $-1 #
coedge $-1 $117 $187 $301 $307 reversed $74 $-1 #
coedge $-1 $303 $308 $117 $190 forward $309 $-1 #
edge $-1 $310 -45.78358854436307 $311 -38.598701445562824 $189 $312 forward 7 unknown #
loop $-1 $-1 $196 $118 #
plane-surface $-1 -39.232624142050568 3.7866580553854234 75.955294939611292 0.5877852598018023 0 0.80901698891910034 0.80901698891910034 0 -0.5877852598018023 forward_v I I I I #
loop $-1 $-1 $313 $76 #
coedge $-1 $194 $194 $195 $314 reversed $119 $-1 #
coedge $-1 $195 $195 $194 $314 forward $121 $-1 #
coedge $-1 $196 $196 $122 $197 forward $191 $-1 #
edge $-1 $315 0 $315 6.2831853071796004 $196 $316 forward 7 unknown #
loop $-1 $-1 $203 $123 #
plane-surface $-1 -39.232624142050568 3.7866580553854234 75.955294939611292 0.5877852598018023 0 0.80901698891910034 0.80901698891910034 0 -0.5877852598018023 forward_v I I I I #
loop $-1 $-1 $317 $79 #
coedge $-1 $201 $201 $202 $318 reversed $124 $-1 #
coedge $-1 $202 $202 $201 $318 forward $126 $-1 #
coedge $-1 $203 $203 $127 $204 forward $198 $-1 #
edge $-1 $319 0 $319 6.2831853071796004 $203 $320 forward 7 unknown #
face $-1 $321 $322 $42 $-1 $323 reversed single #
loop $-1 $-1 $324 $128 #
plane-surface $-1 -164.87403933377442 13.640971108658693 76.562348242964973 0 -1 0 0.79863551827123203 0 -0.60181501223851219 forward_v I I I I #
coedge $-1 $325 $326 $327 $328 reversed $129 $-1 #
coedge $-1 $210 $131 $329 $330 reversed $83 $-1 #
coedge $-1 $131 $209 $325 $331 reversed $83 $-1 #
coedge $-1 $327 $332 $131 $212 forward $333 $-1 #
edge $-1 $334 18.957299216434009 $335 23.775736449374875 $211 $336 forward 7 unknown #
loop $-1 $-1 $218 $132 #
plane-surface $-1 -63.479720450453186 9.2984323332543113 0.15625076339132704 -0.79863551827123203 0 0.60181501223851219 0.60181501223851219 0 0.79863551827123203 forward_v I I I I #
loop $-1 $-1 $337 $85 #
coedge $-1 $216 $216 $217 $338 reversed $133 $-1 #
coedge $-1 $217 $217 $216 $338 forward $135 $-1 #
coedge $-1 $218 $218 $136 $219 forward $213 $-1 #
edge $-1 $339 0 $339 6.2831853071796004 $218 $340 forward 7 unknown #
face $-1 $341 $342 $33 $-1 $343 reversed single #
loop $-1 $-1 $344 $137 #
plane-surface $-1 -63.4797204504532 0 0 1 0 0 0 0 -1 forward_v I I I I #
coedge $-1 $345 $231 $346 $347 forward $138 $-1 #
coedge $-1 $348 $140 $345 $349 forward $89 $-1 #
coedge $-1 $140 $348 $350 $351 forward $89 $-1 #
coedge $-1 $234 $233 $140 $227 reversed $235 $-1 #
edge $-1 $352 -29.375958894813593 $353 29.375958894813593 $226 $354 forward 7 unknown #
coedge $-1 $142 $141 $355 $356 forward $56 $-1 #
coedge $-1 $357 $358 $141 $230 reversed $342 $-1 #
edge $-1 $237 -63.4797204504532 $359 63.4797204504532 $229 $360 forward 7 unknown #
coedge $-1 $223 $361 $142 $232 reversed $138 $-1 #
edge $-1 $362 -63.4797204504532 $236 63.4797204504532 $231 $363 forward 7 unknown #
coedge $-1 $226 $143 $361 $364 forward $235 $-1 #
coedge $-1 $143 $226 $357 $365 reversed $235 $-1 #
loop $-1 $-1 $233 $341 #
vertex $-1 $144 $366 #
vertex $-1 $144 $367 #
straight-curve $-1 63.4797204504532 0 6.5505331234697861 0 1 0 I I #
face $-1 $368 $369 $34 $-1 $370 reversed single #
loop $-1 $-1 $371 $145 #
plane-surface $-1 -63.4797204504532 0 0 1 0 0 0 0 -1 forward_v I I I I #
coedge $-1 $372 $248 $253 $373 reversed $146 $-1 #
coedge $-1 $374 $148 $375 $376 reversed $93 $-1 #
coedge $-1 $148 $374 $372 $377 forward $93 $-1 #
coedge $-1 $253 $252 $148 $246 forward $254 $-1 #
edge $-1 $378 -16.342865177645727 $379 -9.7233222566900039 $245 $380 forward 7 unknown #
coedge $-1 $150 $149 $371 $381 reversed $59 $-1 #
coedge $-1 $242 $382 $149 $249 reversed $146 $-1 #
edge $-1 $255 -63.4797204504532 $383 63.4797204504532 $248 $384 forward 7 unknown #
coedge $-1 $385 $386 $150 $251 forward $369 $-1 #
edge $-1 $256 -63.4797204504532 $387 63.4797204504532 $250 $388 forward 7 unknown #
coedge $-1 $245 $151 $386 $389 forward $254 $-1 #
coedge $-1 $151 $245 $242 $373 forward $254 $-1 #
loop $-1 $-1 $151 $368 #
vertex $-1 $152 $390 #
vertex $-1 $389 $391 #
straight-curve $-1 63.4797204504532 -13.033093717167866 -2.4328266508827223 0 -1 0 I I #
face $-1 $392 $393 $35 $-1 $394 reversed single #
loop $-1 $-1 $395 $153 #
plane-surface $-1 0 29.375958894813593 0 0 -1 0 0 0 -1 forward_v I I I I #
coedge $-1 $396 $397 $266 $398 forward $154 $-1 #
coedge $-1 $159 $156 $399 $400 reversed $97 $-1 #
coedge $-1 $156 $159 $401 $402 reversed $97 $-1 #
coedge $-1 $403 $404 $156 $265 forward $259 $-1 #
edge $-1 $405 -6.5505331234697861 $406 6.5505331234697861 $264 $407 forward 7 unknown #
coedge $-1 $158 $157 $261 $398 reversed $62 $-1 #
coedge $-1 $399 $408 $157 $268 forward $393 $-1 #
edge $-1 $409 27.02112904176364 $272 30.291337817066331 $267 $410 forward 7 unknown #
coedge $-1 $411 $401 $158 $270 forward $412 $-1 #
edge $-1 $271 -30.291337817066331 $413 -27.02112904176364 $269 $414 forward 7 unknown #
vertex $-1 $270 $415 #
vertex $-1 $268 $416 #
straight-curve $-1 -58.947571246481317 21.640316440902623 0 0 0 -1 I I #
face $-1 $-1 $417 $36 $-1 $418 reversed single #
loop $-1 $-1 $167 $161 #
plane-surface $-1 0 0 6.5505331234697861 0 0 1 1 0 0 forward_v I I I I #
coedge $-1 $419 $420 $421 $422 reversed $162 $-1 #
coedge $-1 $423 $164 $166 $284 forward $101 $-1 #
coedge $-1 $164 $423 $419 $424 forward $101 $-1 #
coedge $-1 $421 $167 $164 $281 forward $275 $-1 #
edge $-1 $287 4.8611462541343684 $425 13.550561897860455 $280 $426 forward 7 unknown #
coedge $-1 $427 $428 $165 $283 forward $417 $-1 #
edge $-1 $429 -88.003412780677067 $286 -82.78328664258774 $282 $430 forward 7 unknown #
edge $-1 $287 118.0784319762363 $429 126.9594409009064 $166 $431 forward 7 unknown #
coedge $-1 $167 $421 $427 $432 forward $275 $-1 #
vertex $-1 $283 $433 #
vertex $-1 $168 $434 #
straight-curve $-1 17.69613190609013 -14.06700033013178 6.5505331234697906 -1 0 0 I I #
coedge $-1 $289 $289 $-1 $435 reversed $171 $-1 #
edge $-1 $436 0 $436 6.2831853071796004 $172 $437 forward 7 unknown #
vertex $-1 $175 $438 #
ellipse-curve $-1 59.88727690105307 -20.27372578993613 3.9404700544251288 0.5877852598018023 0 0.80901698891910034 0.80901698891910034 0 -0.5877852598018023 1 I I #
coedge $-1 $293 $293 $-1 $439 reversed $178 $-1 #
edge $-1 $440 0 $440 6.2831853071796004 $179 $441 forward 7 unknown #
vertex $-1 $182 $442 #
ellipse-curve $-1 59.88727690105307 -16.54969051405352 3.9404700544251288 0.5877852598018023 0 0.80901698891910034 0.80901698891910034 0 -0.5877852598018023 1 I I #
face $-1 $-1 $309 $39 $-1 $443 forward single #
loop $-1 $-1 $444 $183 #
plane-surface $-1 63.4797204504532 0 0 -1 0 0 0 0 1 forward_v I I I I #
coedge $-1 $445 $446 $447 $448 reversed $184 $-1 #
coedge $-1 $449 $186 $188 $307 forward $115 $-1 #
coedge $-1 $186 $449 $445 $450 forward $115 $-1 #
coedge $-1 $447 $189 $186 $304 forward $309 $-1 #
edge $-1 $311 -6.2380368495557548 $451 2.4513787941703322 $303 $452 forward 7 unknown #
coedge $-1 $453 $454 $187 $306 forward $298 $-1 #
edge $-1 $455 -88.003412780677067 $310 -82.78328664258774 $305 $456 forward 7 unknown #
edge $-1 $311 118.0784319762363 $455 126.9594409009064 $188 $457 forward 7 unknown #
coedge $-1 $189 $447 $453 $458 forward $309 $-1 #
loop $-1 $-1 $447 $297 #
vertex $-1 $306 $459 #
vertex $-1 $190 $460 #
straight-curve $-1 17.69613190609013 8.1313658772484665 6.5505331234697906 -1 0 0 I I #
coedge $-1 $313 $313 $-1 $461 reversed $193 $-1 #
edge $-1 $462 0 $462 6.2831853071796004 $194 $463 forward 7 unknown #
vertex $-1 $197 $464 #
ellipse-curve $-1 59.88727690105307 1.9246404174441167 3.9404700544251288 0.5877852598018023 0 0.80901698891910034 0.80901698891910034 0 -0.5877852598018023 1 I I #
coedge $-1 $317 $317 $-1 $465 reversed $200 $-1 #
edge $-1 $466 0 $466 6.2831853071796004 $201 $467 forward 7 unknown #
vertex $-1 $204 $468 #
ellipse-curve $-1 59.88727690105307 5.648675693326723 3.9404700544251288 0.5877852598018023 0 0.80901698891910034 0.80901698891910034 0 -0.5877852598018023 1 I I #
face $-1 $-1 $333 $42 $-1 $469 forward single #
loop $-1 $-1 $470 $205 #
plane-surface $-1 -63.4797204504532 0 0 1 0 0 0 0 -1 forward_v I I I I #
coedge $-1 $471 $472 $473 $474 reversed $206 $-1 #
coedge $-1 $475 $208 $210 $331 forward $129 $-1 #
coedge $-1 $208 $475 $471 $476 forward $129 $-1 #
coedge $-1 $473 $211 $208 $328 forward $333 $-1 #
edge $-1 $335 0.30667739122277382 $477 8.9917549420315375 $327 $478 forward 7 unknown #
coedge $-1 $479 $480 $209 $330 forward $322 $-1 #
edge $-1 $481 -38.124923358091181 $334 -31.730640998012699 $329 $482 forward 7 unknown #
edge $-1 $335 -8.0065088689266588 $481 2.3603419307191141e-014 $210 $483 forward 7 unknown #
coedge $-1 $211 $473 $479 $484 forward $333 $-1 #
loop $-1 $-1 $473 $321 #
vertex $-1 $330 $485 #
vertex $-1 $212 $486 #
straight-curve $-1 -82.43701966688721 4.9558935578499295 6.5505331234697834 1 0 0 I I #
coedge $-1 $337 $337 $-1 $487 reversed $215 $-1 #
edge $-1 $488 0 $488 6.2831853071796004 $216 $489 forward 7 unknown #
vertex $-1 $219 $490 #
ellipse-curve $-1 -61.070501833982767 9.2984323332543113 3.3533919434305499 -0.79863551827123203 0 0.60181501223851219 0.90272251835776829 0 1.197953277406848 1 I I #
face $-1 $-1 $235 $33 $-1 $491 reversed single #
loop $-1 $-1 $357 $220 #
plane-surface $-1 0 29.375958894813593 0 0 -1 0 0 0 -1 forward_v I I I I #
coedge $-1 $492 $355 $358 $493 forward $221 $-1 #
coedge $-1 $361 $223 $224 $349 reversed $138 $-1 #
coedge $-1 $355 $492 $223 $347 reversed $221 $-1 #
edge $-1 $362 -6.5505331234697861 $494 6.5505331234697861 $346 $495 forward 7 unknown #
coedge $-1 $225 $224 $492 $496 forward $89 $-1 #
edge $-1 $353 -63.4797204504532 $494 63.4797204504532 $345 $497 forward 7 unknown #
coedge $-1 $358 $357 $225 $351 reversed $342 $-1 #
edge $-1 $498 -63.4797204504532 $352 63.4797204504532 $350 $499 forward 7 unknown #
vertex $-1 $227 $500 #
vertex $-1 $364 $501 #
straight-curve $-1 63.4797204504532 0 -6.5505331234697861 0 -1 0 I I #
coedge $-1 $344 $346 $228 $356 reversed $221 $-1 #
edge $-1 $359 -29.375958894813593 $362 29.375958894813593 $355 $502 forward 7 unknown #
coedge $-1 $350 $229 $234 $365 forward $342 $-1 #
coedge $-1 $229 $350 $344 $493 reversed $342 $-1 #
vertex $-1 $230 $503 #
straight-curve $-1 0 29.375958894813593 6.5505331234697861 -1 0 0 I I #
coedge $-1 $231 $345 $233 $364 reversed $138 $-1 #
vertex $-1 $356 $504 #
straight-curve $-1 0 -29.375958894813593 6.5505331234697861 1 0 0 I I #
edge $-1 $236 -6.5505331234697861 $353 6.5505331234697861 $233 $505 forward 7 unknown #
edge $-1 $237 -6.5505331234697861 $352 6.5505331234697861 $234 $506 forward 7 unknown #
point $-1 63.4797204504532 -29.375958894813593 6.5505331234697861 #
point $-1 63.4797204504532 29.375958894813593 6.5505331234697861 #
face $-1 $-1 $254 $34 $-1 $507 reversed single #
loop $-1 $-1 $250 $239 #
plane-surface $-1 0 -29.375958894813593 0 0 1 0 0 0 1 forward_v I I I I #
coedge $-1 $508 $509 $247 $381 forward $240 $-1 #
coedge $-1 $382 $242 $244 $377 reversed $146 $-1 #
edge $-1 $379 -3.5394666284996856 $255 -0.44206222442191967 $253 $510 forward 7 unknown #
coedge $-1 $244 $243 $511 $512 reversed $93 $-1 #
coedge $-1 $386 $385 $243 $376 forward $369 $-1 #
edge $-1 $513 -63.4797204504532 $378 63.4797204504532 $375 $514 forward 7 unknown #
edge $-1 $515 -63.4797204504532 $379 63.4797204504532 $372 $516 forward 7 unknown #
vertex $-1 $376 $517 #
vertex $-1 $246 $518 #
straight-curve $-1 63.4797204504532 -13.033093717167866 -5.5302310549604883 0 1 0 I I #
edge $-1 $387 -16.342865177645727 $383 -9.7233222566900039 $371 $519 forward 7 unknown #
coedge $-1 $248 $372 $508 $520 reversed $146 $-1 #
vertex $-1 $381 $521 #
straight-curve $-1 0 -22.75641597385787 -2.4328266508827223 -1 0 0 I I #
coedge $-1 $375 $250 $509 $522 forward $369 $-1 #
coedge $-1 $250 $375 $252 $389 reversed $369 $-1 #
vertex $-1 $522 $523 #
straight-curve $-1 0 -29.375958894813593 -2.4328266508827223 -1 0 0 I I #
edge $-1 $256 2.4328266508827223 $378 5.5302310549604883 $252 $524 forward 7 unknown #
point $-1 63.4797204504532 -22.75641597385787 -2.4328266508827223 #
point $-1 63.4797204504532 -29.375958894813593 -2.4328266508827223 #
face $-1 $-1 $412 $35 $-1 $525 forward single #
loop $-1 $-1 $408 $258 #
plane-surface $-1 0 0 -6.5505331234697861 0 0 1 1 0 0 forward_v I I I I #
coedge $-1 $404 $403 $526 $527 forward $259 $-1 #
coedge $-1 $526 $261 $408 $528 reversed $154 $-1 #
coedge $-1 $261 $526 $411 $529 reversed $154 $-1 #
edge $-1 $413 -6.5505331234697861 $409 6.5505331234697861 $261 $530 forward 7 unknown #
coedge $-1 $531 $267 $262 $400 forward $393 $-1 #
edge $-1 $272 8.8862476069735692 $405 16.621890060884539 $399 $532 forward 7 unknown #
coedge $-1 $269 $533 $263 $402 forward $412 $-1 #
edge $-1 $406 -16.621890060884539 $271 -8.8862476069735692 $401 $534 forward 7 unknown #
coedge $-1 $395 $264 $533 $535 reversed $259 $-1 #
coedge $-1 $264 $395 $531 $536 reversed $259 $-1 #
vertex $-1 $536 $537 #
vertex $-1 $265 $538 #
straight-curve $-1 -58.947571246481317 29.375958894813593 0 0 0 1 I I #
coedge $-1 $267 $531 $396 $528 forward $393 $-1 #
vertex $-1 $268 $539 #
straight-curve $-1 -28.656233429414986 21.640316440902623 -6.5505331234697861 -1 0 0 I I #
coedge $-1 $533 $269 $397 $529 forward $412 $-1 #
loop $-1 $-1 $411 $392 #
vertex $-1 $270 $540 #
straight-curve $-1 -28.656233429414986 21.640316440902623 6.5505331234697861 1 0 0 I I #
point $-1 -58.947571246481317 21.640316440902623 6.5505331234697861 #
point $-1 -58.947571246481317 21.640316440902623 -6.5505331234697861 #
loop $-1 $-1 $282 $274 #
plane-surface $-1 63.4797204504532 0 0 -1 0 0 0 0 1 forward_v I I I I #
coedge $-1 $420 $277 $279 $424 reversed $162 $-1 #
coedge $-1 $277 $419 $541 $542 reversed $162 $-1 #
coedge $-1 $285 $280 $277 $422 forward $275 $-1 #
edge $-1 $425 38.598701445562824 $543 45.78358854436307 $421 $544 forward 7 unknown #
coedge $-1 $279 $278 $428 $545 reversed $101 $-1 #
edge $-1 $546 -126.9594409009064 $425 -118.0784319762363 $419 $547 forward 7 unknown #
vertex $-1 $281 $548 #
straight-curve $-1 56.294833351652954 -9.2058540759974115 6.5505331234697906 0 -1 0 I I #
coedge $-1 $541 $282 $285 $432 reversed $417 $-1 #
coedge $-1 $282 $541 $423 $545 forward $417 $-1 #
vertex $-1 $283 $549 #
straight-curve $-1 63.4797204504532 -14.06700033013178 89.33381976605753 0 0 1 I I #
straight-curve $-1 -39.232624142050568 -14.06700033013178 75.955294939611292 0.80901698891910034 0 -0.5877852598018023 I I #
edge $-1 $543 -22.756415973857866 $286 -14.06700033013178 $427 $550 forward 7 unknown #
point $-1 63.4797204504532 -14.06700033013178 6.5505331234697861 #
point $-1 56.294833351652954 -14.06700033013178 6.5505331234697906 #
edge $-1 $551 1 $551 0 $289 $-1 forward 7 unknown #
vertex $-1 $290 $552 #
ellipse-curve $-1 58.373550922221476 -20.27372578993613 1.857005025281842 0.5877852598018023 0 0.80901698891910034 0.80901698891910034 0 -0.5877852598018023 1 I I #
point $-1 60.696293889972175 -20.27372578993613 3.3526847946233325 #
edge $-1 $553 1 $553 0 $293 $-1 forward 7 unknown #
vertex $-1 $294 $554 #
ellipse-curve $-1 58.373550922221476 -16.54969051405352 1.857005025281842 0.5877852598018023 0 0.80901698891910034 0.80901698891910034 0 -0.5877852598018023 1 I I #
point $-1 60.696293889972175 -16.54969051405352 3.3526847946233325 #
plane-surface $-1 0 0 6.5505331234697861 0 0 1 1 0 0 forward_v I I I I #
coedge $-1 $454 $453 $446 $555 forward $298 $-1 #
coedge $-1 $446 $300 $302 $450 reversed $184 $-1 #
coedge $-1 $300 $445 $444 $555 reversed $184 $-1 #
coedge $-1 $308 $303 $300 $448 forward $309 $-1 #
edge $-1 $451 38.598701445562824 $556 45.78358854436307 $447 $557 forward 7 unknown #
coedge $-1 $302 $301 $454 $558 reversed $115 $-1 #
edge $-1 $559 -126.9594409009064 $451 -118.0784319762363 $445 $560 forward 7 unknown #
vertex $-1 $304 $561 #
straight-curve $-1 56.294833351652954 1.8933290276927117 6.5505331234697906 0 -1 0 I I #
coedge $-1 $444 $305 $308 $458 reversed $298 $-1 #
coedge $-1 $305 $444 $449 $558 forward $298 $-1 #
vertex $-1 $306 $562 #
straight-curve $-1 63.4797204504532 8.1313658772484665 89.33381976605753 0 0 1 I I #
straight-curve $-1 -39.232624142050568 8.1313658772484665 75.955294939611292 0.80901698891910034 0 -0.5877852598018023 I I #
edge $-1 $556 -0.5580497664776205 $310 8.1313658772484665 $453 $563 forward 7 unknown #
point $-1 63.4797204504532 8.1313658772484665 6.5505331234697861 #
point $-1 56.294833351652954 8.1313658772484665 6.5505331234697906 #
edge $-1 $564 1 $564 0 $313 $-1 forward 7 unknown #
vertex $-1 $314 $565 #
ellipse-curve $-1 58.373550922221476 1.9246404174441167 1.857005025281842 0.5877852598018023 0 0.80901698891910034 0.80901698891910034 0 -0.5877852598018023 1 I I #
point $-1 60.696293889972175 1.9246404174441167 3.3526847946233325 #
edge $-1 $566 1 $566 0 $317 $-1 forward 7 unknown #
vertex $-1 $318 $567 #
ellipse-curve $-1 58.373550922221476 5.648675693326723 1.857005025281842 0.5877852598018023 0 0.80901698891910034 0.80901698891910034 0 -0.5877852598018023 1 I I #
point $-1 60.696293889972175 5.648675693326723 3.3526847946233325 #
plane-surface $-1 0 0 6.5505331234697861 0 0 1 1 0 0 forward_v I I I I #
coedge $-1 $480 $479 $472 $568 forward $322 $-1 #
coedge $-1 $472 $324 $326 $476 reversed $206 $-1 #
coedge $-1 $324 $471 $470 $568 reversed $206 $-1 #
coedge $-1 $332 $327 $324 $474 forward $333 $-1 #
edge $-1 $477 -23.775736449374875 $569 -18.957299216434009 $473 $570 forward 7 unknown #
coedge $-1 $326 $325 $480 $571 reversed $129 $-1 #
edge $-1 $572 -2.3603419307191141e-014 $477 8.0065088689266588 $471 $573 forward 7 unknown #
vertex $-1 $328 $574 #
straight-curve $-1 -58.661283217512334 4.6492161666271556 6.550533123469787 0 1 0 I I #
coedge $-1 $470 $329 $332 $484 reversed $322 $-1 #
coedge $-1 $329 $470 $475 $571 forward $322 $-1 #
vertex $-1 $330 $575 #
straight-curve $-1 -63.4797204504532 4.9558935578499295 38.281174121482486 0 0 1 I I #
straight-curve $-1 -63.479720450453186 4.9558935578499295 0.15625076339132704 -0.60181501223851219 0 -0.79863551827123203 I I #
edge $-1 $569 -13.640971108658693 $334 -4.9558935578499295 $479 $576 forward 7 unknown #
point $-1 -63.4797204504532 4.9558935578499295 6.5505331234697861 #
point $-1 -58.661283217512334 4.9558935578499295 6.5505331234697861 #
edge $-1 $577 1 $577 0 $337 $-1 forward 7 unknown #
vertex $-1 $338 $578 #
ellipse-curve $-1 -58.742084574804714 9.2984323332543113 1.5988037373338841 -0.79863551827123203 0 0.60181501223851219 0.90272251835776829 0 1.197953277406848 1 I I #
point $-1 -60.167779315624998 9.2984323332543113 4.5513452208374012 #
plane-surface $-1 63.4797204504532 0 0 -1 0 0 0 0 1 forward_v I I I I #
coedge $-1 $346 $344 $348 $496 reversed $221 $-1 #
edge $-1 $359 -6.5505331234697861 $498 6.5505331234697861 $358 $579 forward 7 unknown #
vertex $-1 $496 $580 #
straight-curve $-1 -63.4797204504532 -29.375958894813593 0 0 0 -1 I I #
edge $-1 $494 -29.375958894813593 $498 29.375958894813593 $492 $581 forward 7 unknown #
straight-curve $-1 0 -29.375958894813593 -6.5505331234697861 -1 0 0 I I #
vertex $-1 $351 $582 #
straight-curve $-1 0 29.375958894813593 -6.5505331234697861 1 0 0 I I #
point $-1 63.4797204504532 29.375958894813593 -6.5505331234697861 #
point $-1 63.4797204504532 -29.375958894813593 -6.5505331234697861 #
straight-curve $-1 -63.4797204504532 0 6.5505331234697861 0 -1 0 I I #
point $-1 -63.4797204504532 29.375958894813593 6.5505331234697861 #
point $-1 -63.4797204504532 -29.375958894813593 6.5505331234697861 #
straight-curve $-1 63.4797204504532 -29.375958894813593 0 0 0 -1 I I #
straight-curve $-1 63.4797204504532 29.375958894813593 0 0 0 -1 I I #
plane-surface $-1 63.4797204504532 0 0 -1 0 0 0 0 1 forward_v I I I I #
coedge $-1 $511 $371 $382 $520 forward $240 $-1 #
coedge $-1 $371 $511 $385 $522 reversed $240 $-1 #
straight-curve $-1 63.4797204504532 -22.75641597385787 -1.9907644264608026 0 0 1 I I #
coedge $-1 $509 $508 $374 $512 forward $240 $-1 #
edge $-1 $515 9.7233222566900039 $513 16.342865177645727 $511 $583 forward 7 unknown #
vertex $-1 $376 $584 #
straight-curve $-1 0 -29.375958894813593 -5.5302310549604883 1 0 0 I I #
vertex $-1 $512 $585 #
straight-curve $-1 0 -22.75641597385787 -5.5302310549604883 1 0 0 I I #
point $-1 63.4797204504532 -29.375958894813593 -5.5302310549604883 #
point $-1 63.4797204504532 -22.75641597385787 -5.5302310549604883 #
straight-curve $-1 -63.4797204504532 -13.033093717167866 -2.4328266508827223 0 1 0 I I #
edge $-1 $383 0.44206222442191967 $515 3.5394666284996856 $508 $586 forward 7 unknown #
point $-1 -63.4797204504532 -22.75641597385787 -2.4328266508827223 #
edge $-1 $387 2.4328266508827223 $513 5.5302310549604883 $509 $587 forward 7 unknown #
point $-1 -63.4797204504532 -29.375958894813593 -2.4328266508827223 #
straight-curve $-1 63.4797204504532 -29.375958894813593 0 0 0 -1 I I #
plane-surface $-1 0 0 6.5505331234697861 0 0 1 1 0 0 forward_v I I I I #
coedge $-1 $397 $396 $395 $527 reversed $154 $-1 #
edge $-1 $588 -6.5505331234697861 $589 6.5505331234697861 $395 $590 forward 7 unknown #
edge $-1 $589 -16.621890060884539 $409 -8.8862476069735692 $408 $591 forward 7 unknown #
edge $-1 $413 8.8862476069735692 $588 16.621890060884539 $411 $592 forward 7 unknown #
straight-curve $-1 -55.677362471178625 21.640316440902623 0 0 0 -1 I I #
coedge $-1 $408 $399 $404 $536 forward $393 $-1 #
straight-curve $-1 -58.947571246481317 12.754068833929054 -6.5505331234697861 0 1 0 I I #
coedge $-1 $401 $411 $403 $535 forward $412 $-1 #
straight-curve $-1 -58.947571246481317 12.754068833929054 6.5505331234697861 0 -1 0 I I #
edge $-1 $588 55.677362471178625 $406 58.947571246481317 $403 $593 forward 7 unknown #
edge $-1 $405 -58.947571246481317 $589 -55.677362471178625 $404 $594 forward 7 unknown #
point $-1 -58.947571246481317 29.375958894813593 -6.5505331234697861 #
point $-1 -58.947571246481317 29.375958894813593 6.5505331234697861 #
point $-1 -55.677362471178625 21.640316440902623 -6.5505331234697861 #
point $-1 -55.677362471178625 21.640316440902623 6.5505331234697861 #
coedge $-1 $428 $427 $420 $542 forward $417 $-1 #
edge $-1 $543 82.78328664258774 $546 88.003412780677067 $541 $595 forward 7 unknown #
vertex $-1 $432 $596 #
straight-curve $-1 17.69613190609013 -22.756415973857866 6.5505331234697906 1 0 0 I I #
edge $-1 $546 -13.550561897860455 $429 -4.8611462541343684 $428 $597 forward 7 unknown #
vertex $-1 $545 $598 #
straight-curve $-1 -39.232624142050568 -22.756415973857866 75.955294939611292 -0.80901698891910034 0 0.5877852598018023 I I #
point $-1 56.294833351652954 -22.756415973857866 6.5505331234697906 #
point $-1 63.4797204504532 -14.06700033013178 1.3304069853804634 #
straight-curve $-1 63.4797204504532 0 6.5505331234697861 0 1 0 I I #
vertex $-1 $435 $599 #
point $-1 59.182567911140573 -20.27372578993613 1.2692197654800399 #
vertex $-1 $439 $600 #
point $-1 59.182567911140573 -16.54969051405352 1.2692197654800399 #
edge $-1 $556 82.78328664258774 $559 88.003412780677067 $444 $601 forward 7 unknown #
vertex $-1 $458 $602 #
straight-curve $-1 17.69613190609013 -0.5580497664776205 6.5505331234697906 1 0 0 I I #
edge $-1 $559 -2.4513787941703322 $455 6.2380368495557548 $454 $603 forward 7 unknown #
vertex $-1 $558 $604 #
straight-curve $-1 -39.232624142050568 -0.5580497664776205 75.955294939611292 -0.80901698891910034 0 0.5877852598018023 I I #
point $-1 56.294833351652954 -0.5580497664776205 6.5505331234697906 #
point $-1 63.4797204504532 8.1313658772484665 1.3304069853804634 #
straight-curve $-1 63.4797204504532 0 6.5505331234697861 0 1 0 I I #
vertex $-1 $461 $605 #
point $-1 59.182567911140573 1.9246404174441167 1.2692197654800399 #
vertex $-1 $465 $606 #
point $-1 59.182567911140573 5.648675693326723 1.2692197654800399 #
edge $-1 $569 31.730640998012699 $572 38.124923358091181 $470 $607 forward 7 unknown #
vertex $-1 $484 $608 #
straight-curve $-1 -82.43701966688721 13.640971108658693 6.5505331234697834 -1 0 0 I I #
edge $-1 $572 -8.9917549420315375 $481 -0.30667739122277382 $480 $609 forward 7 unknown #
vertex $-1 $571 $610 #
straight-curve $-1 -63.479720450453186 13.640971108658693 0.15625076339132704 0.60181501223851219 0 0.79863551827123203 I I #
point $-1 -58.661283217512334 13.640971108658693 6.5505331234697861 #
point $-1 -63.4797204504532 4.9558935578499295 0.1562507633913082 #
straight-curve $-1 -63.4797204504532 0 6.5505331234697861 0 -1 0 I I #
vertex $-1 $487 $611 #
point $-1 -57.839362056446944 9.2984323332543113 2.7967570147407321 #
straight-curve $-1 -63.4797204504532 29.375958894813593 0 0 0 -1 I I #
point $-1 -63.4797204504532 -29.375958894813593 -6.5505331234697861 #
straight-curve $-1 -63.4797204504532 0 -6.5505331234697861 0 1 0 I I #
point $-1 -63.4797204504532 29.375958894813593 -6.5505331234697861 #
straight-curve $-1 -63.4797204504532 -13.033093717167866 -5.5302310549604883 0 -1 0 I I #
point $-1 -63.4797204504532 -29.375958894813593 -5.5302310549604883 #
point $-1 -63.4797204504532 -22.75641597385787 -5.5302310549604883 #
straight-curve $-1 -63.4797204504532 -22.75641597385787 -1.9907644264608026 0 0 -1 I I #
straight-curve $-1 -63.4797204504532 -29.375958894813593 0 0 0 -1 I I #
vertex $-1 $535 $612 #
vertex $-1 $527 $613 #
straight-curve $-1 -55.677362471178625 29.375958894813593 0 0 0 -1 I I #
straight-curve $-1 -55.677362471178625 12.754068833929054 -6.5505331234697861 0 -1 0 I I #
straight-curve $-1 -55.677362471178625 12.754068833929054 6.5505331234697861 0 1 0 I I #
straight-curve $-1 0 29.375958894813593 6.5505331234697861 -1 0 0 I I #
straight-curve $-1 0 29.375958894813593 -6.5505331234697861 1 0 0 I I #
straight-curve $-1 63.4797204504532 -22.756415973857866 89.33381976605753 0 0 -1 I I #
point $-1 63.4797204504532 -22.756415973857866 6.5505331234697861 #
straight-curve $-1 63.4797204504532 -9.2058540759974115 1.3304069853804634 0 1 0 I I #
point $-1 63.4797204504532 -22.756415973857866 1.3304069853804634 #
point $-1 57.785765662419671 -20.27372578993613 1.0479880363627418 #
point $-1 57.785765662419671 -16.54969051405352 1.0479880363627418 #
straight-curve $-1 63.4797204504532 -0.5580497664776205 89.33381976605753 0 0 -1 I I #
point $-1 63.4797204504532 -0.5580497664776205 6.5505331234697861 #
straight-curve $-1 63.4797204504532 1.8933290276927117 1.3304069853804634 0 1 0 I I #
point $-1 63.4797204504532 -0.5580497664776205 1.3304069853804634 #
point $-1 57.785765662419671 1.9246404174441167 1.0479880363627418 #
point $-1 57.785765662419671 5.648675693326723 1.0479880363627418 #
straight-curve $-1 -63.4797204504532 13.640971108658693 38.281174121482486 0 0 -1 I I #
point $-1 -63.4797204504532 13.640971108658693 6.5505331234697861 #
straight-curve $-1 -63.4797204504532 4.6492161666271556 0.15625076339130911 0 -1 0 I I #
point $-1 -63.4797204504532 13.640971108658693 0.1562507633913082 #
point $-1 -57.544131297397861 9.2984323332543113 0.69608121897611563 #
point $-1 -55.677362471178625 29.375958894813593 6.5505331234697861 #
point $-1 -55.677362471178625 29.375958894813593 -6.5505331234697861 #
End-of-ACIS-data 