500 0 17 0           
7 Unknown 11 ACIS 5.0 NT 24 Fri Mar 26 20:19:14 1999 
-1 9.9999999999999995e-007 1e-010 
body $-1 $17 $-1 $18 #
body $-1 $19 $-1 $20 #
body $-1 $21 $-1 $22 #
body $-1 $23 $-1 $24 #
body $-1 $25 $-1 $26 #
body $-1 $27 $-1 $28 #
body $-1 $29 $-1 $30 #
body $-1 $31 $-1 $32 #
body $-1 $33 $-1 $34 #
body $-1 $35 $-1 $36 #
body $-1 $37 $-1 $38 #
body $-1 $39 $-1 $40 #
body $-1 $41 $-1 $42 #
body $-1 $43 $-1 $44 #
body $-1 $45 $-1 $46 #
body $-1 $47 $-1 $48 #
body $-1 $49 $-1 $50 #
lump $-1 $-1 $51 $0 #
transform $-1 1 0 0 0 1 0 0 0 1 61.226233710745568 42.163829735090665 14.174623335363773 1 rotate no_reflect no_shear #
lump $-1 $-1 $52 $1 #
transform $-1 1 0 0 0 0.70710677298230451 0.70710678939079041 0 -0.70710678939079041 0.70710677298230451 67.705757684422025 -86.58697109139095 111.71659059864967 1 rotate no_reflect no_shear #
lump $-1 $-1 $53 $2 #
transform $-1 1 0 0 0 -0.70710677298230451 -0.70710678939079041 0 0.70710678939079041 -0.70710677298230451 63.756612356877227 2.4936960264872425 25.855550627395047 1 rotate no_reflect no_shear #
lump $-1 $-1 $54 $3 #
transform $-1 1 0 0 0 -0.70710677298230451 -0.70710678939079041 0 0.70710678939079041 -0.70710677298230451 67.705757684422039 2.4936960264872425 25.855550627395047 1 rotate no_reflect no_shear #
lump $-1 $-1 $55 $4 #
transform $-1 1 0 0 0 -0.70710677298230451 -0.70710678939079041 0 0.70710678939079041 -0.70710677298230451 71.654903011966852 2.4936960264872425 25.855550627395047 1 rotate no_reflect no_shear #
lump $-1 $-1 $56 $5 #
transform $-1 1 0 0 0 0.7313536940579346 -0.68199836817093118 0 0.68199836817093118 0.7313536940579346 7.3840235518137636 106.16669716536572 163.60400738721165 1 rotate no_reflect no_shear #
lump $-1 $-1 $57 $6 #
transform $-1 1 0 0 0 -0.7313536940579346 0.68199836817093118 0 -0.68199836817093118 -0.7313536940579346 4.2194420296078645 74.947538799475495 19.176096202362011 1 rotate no_reflect no_shear #
lump $-1 $-1 $58 $7 #
transform $-1 1 0 0 0 -0.7313536940579346 0.68199836817093118 0 -0.68199836817093118 -0.7313536940579346 10.548605074019662 74.947538799475495 19.176096202362011 1 rotate no_reflect no_shear #
lump $-1 $-1 $59 $8 #
transform $-1 1 0 0 0 0.7313536940579346 -0.68199836817093118 0 0.68199836817093118 0.7313536940579346 37.997140407186549 106.16669716536572 163.60400738721165 1 rotate no_reflect no_shear #
lump $-1 $-1 $60 $9 #
transform $-1 1 0 0 0 -0.7313536940579346 0.68199836817093118 0 -0.68199836817093118 -0.7313536940579346 34.832558884980649 74.947538799475495 19.176096202362011 1 rotate no_reflect no_shear #
lump $-1 $-1 $61 $10 #
transform $-1 1 0 0 0 -0.7313536940579346 0.68199836817093118 0 -0.68199836817093118 -0.7313536940579346 41.161721929392449 74.947538799475495 19.176096202362011 1 rotate no_reflect no_shear #
lump $-1 $-1 $62 $11 #
transform $-1 1 0 0 0 0.7313536940579346 -0.68199836817093118 0 0.68199836817093118 0.7313536940579346 68.610257262559344 106.16669716536572 163.60400738721165 1 rotate no_reflect no_shear #
lump $-1 $-1 $63 $12 #
transform $-1 1 0 0 0 -0.7313536940579346 0.68199836817093118 0 -0.68199836817093118 -0.7313536940579346 65.445675740353437 74.947538799475495 19.176096202362011 1 rotate no_reflect no_shear #
lump $-1 $-1 $64 $13 #
transform $-1 1 0 0 0 -0.7313536940579346 0.68199836817093118 0 -0.68199836817093118 -0.7313536940579346 71.774838784765237 74.947538799475495 19.176096202362011 1 rotate no_reflect no_shear #
lump $-1 $-1 $65 $14 #
transform $-1 1 0 0 0 0.7313536940579346 -0.68199836817093118 0 0.68199836817093118 0.7313536940579346 99.223374117932138 106.16669716536572 163.60400738721165 1 rotate no_reflect no_shear #
lump $-1 $-1 $66 $15 #
transform $-1 1 0 0 0 -0.7313536940579346 0.68199836817093118 0 -0.68199836817093118 -0.7313536940579346 96.058792595726231 74.947538799475495 19.176096202362011 1 rotate no_reflect no_shear #
lump $-1 $-1 $67 $16 #
transform $-1 1 0 0 0 -0.7313536940579346 0.68199836817093118 0 -0.68199836817093118 -0.7313536940579346 102.38795564013802 74.947538799475495 19.176096202362011 1 rotate no_reflect no_shear #
shell $-1 $-1 $-1 $68 $-1 $17 #
shell $-1 $-1 $-1 $69 $-1 $19 #
shell $-1 $-1 $-1 $70 $-1 $21 #
shell $-1 $-1 $-1 $71 $-1 $23 #
shell $-1 $-1 $-1 $72 $-1 $25 #
shell $-1 $-1 $-1 $73 $-1 $27 #
shell $-1 $-1 $-1 $74 $-1 $29 #
shell $-1 $-1 $-1 $75 $-1 $31 #
shell $-1 $-1 $-1 $76 $-1 $33 #
shell $-1 $-1 $-1 $77 $-1 $35 #
shell $-1 $-1 $-1 $78 $-1 $37 #
shell $-1 $-1 $-1 $79 $-1 $39 #
shell $-1 $-1 $-1 $80 $-1 $41 #
shell $-1 $-1 $-1 $81 $-1 $43 #
shell $-1 $-1 $-1 $82 $-1 $45 #
shell $-1 $-1 $-1 $83 $-1 $47 #
shell $-1 $-1 $-1 $84 $-1 $49 #
face $-1 $85 $86 $51 $-1 $87 forward single #
face $-1 $88 $89 $52 $-1 $90 forward single #
face $-1 $91 $92 $53 $-1 $93 forward single #
face $-1 $94 $95 $54 $-1 $96 forward single #
face $-1 $97 $98 $55 $-1 $99 forward single #
face $-1 $100 $101 $56 $-1 $102 forward single #
face $-1 $103 $104 $57 $-1 $105 forward single #
face $-1 $106 $107 $58 $-1 $108 forward single #
face $-1 $109 $110 $59 $-1 $111 forward single #
face $-1 $112 $113 $60 $-1 $114 forward single #
face $-1 $115 $116 $61 $-1 $117 forward single #
face $-1 $118 $119 $62 $-1 $120 forward single #
face $-1 $121 $122 $63 $-1 $123 forward single #
face $-1 $124 $125 $64 $-1 $126 forward single #
face $-1 $127 $128 $65 $-1 $129 forward single #
face $-1 $130 $131 $66 $-1 $132 forward single #
face $-1 $133 $134 $67 $-1 $135 forward single #
face $-1 $136 $137 $51 $-1 $138 reversed single #
loop $-1 $-1 $139 $68 #
plane-surface $-1 0 0 14.174623335363773 0 0 1 1 0 0 forward_v I I I I #
face $-1 $140 $141 $52 $-1 $142 reversed single #
loop $-1 $-1 $143 $69 #
plane-surface $-1 0 0 122.45246742149114 0 0 1 1 0 0 forward_v I I I I #
face $-1 $144 $145 $53 $-1 $146 forward single #
loop $-1 $147 $148 $70 #
cone-surface $-1 0 0 -0.75 0 0 1 0.5 0 0 1 I I 0 1 0.5 forward I I I I #
face $-1 $149 $150 $54 $-1 $151 forward single #
loop $-1 $152 $153 $71 #
cone-surface $-1 0 0 -0.75 0 0 1 0.5 0 0 1 I I 0 1 0.5 forward I I I I #
face $-1 $154 $155 $55 $-1 $156 forward single #
loop $-1 $157 $158 $72 #
cone-surface $-1 0 0 -0.75 0 0 1 0.5 0 0 1 I I 0 1 0.5 forward I I I I #
face $-1 $159 $160 $56 $-1 $161 reversed single #
loop $-1 $-1 $162 $73 #
plane-surface $-1 0 0 122.45246742149115 0 0 1 1 0 0 forward_v I I I I #
face $-1 $163 $164 $57 $-1 $165 forward single #
loop $-1 $166 $167 $74 #
cone-surface $-1 0 0 -2.6084170049134787 0 0 1 1.5 0 0 1 I I 0 1 1.5 forward I I I I #
face $-1 $168 $169 $58 $-1 $170 forward single #
loop $-1 $171 $172 $75 #
cone-surface $-1 0 0 -2.6084170049134787 0 0 1 1.5 0 0 1 I I 0 1 1.5 forward I I I I #
face $-1 $173 $174 $59 $-1 $175 reversed single #
loop $-1 $-1 $176 $76 #
plane-surface $-1 0 0 122.45246742149115 0 0 1 1 0 0 forward_v I I I I #
face $-1 $177 $178 $60 $-1 $179 forward single #
loop $-1 $180 $181 $77 #
cone-surface $-1 0 0 -2.6084170049134787 0 0 1 1.5 0 0 1 I I 0 1 1.5 forward I I I I #
face $-1 $182 $183 $61 $-1 $184 forward single #
loop $-1 $185 $186 $78 #
cone-surface $-1 0 0 -2.6084170049134787 0 0 1 1.5 0 0 1 I I 0 1 1.5 forward I I I I #
face $-1 $187 $188 $62 $-1 $189 reversed single #
loop $-1 $-1 $190 $79 #
plane-surface $-1 0 0 122.45246742149115 0 0 1 1 0 0 forward_v I I I I #
face $-1 $191 $192 $63 $-1 $193 forward single #
loop $-1 $194 $195 $80 #
cone-surface $-1 0 0 -2.6084170049134787 0 0 1 1.5 0 0 1 I I 0 1 1.5 forward I I I I #
face $-1 $196 $197 $64 $-1 $198 forward single #
loop $-1 $199 $200 $81 #
cone-surface $-1 0 0 -2.6084170049134787 0 0 1 1.5 0 0 1 I I 0 1 1.5 forward I I I I #
face $-1 $201 $202 $65 $-1 $203 reversed single #
loop $-1 $-1 $204 $82 #
plane-surface $-1 0 0 122.45246742149115 0 0 1 1 0 0 forward_v I I I I #
face $-1 $205 $206 $66 $-1 $207 forward single #
loop $-1 $208 $209 $83 #
cone-surface $-1 0 0 -2.6084170049134787 0 0 1 1.5 0 0 1 I I 0 1 1.5 forward I I I I #
face $-1 $210 $211 $67 $-1 $212 forward single #
loop $-1 $213 $214 $84 #
cone-surface $-1 0 0 -2.6084170049134787 0 0 1 1.5 0 0 1 I I 0 1 1.5 forward I I I I #
face $-1 $215 $216 $51 $-1 $217 reversed single #
loop $-1 $-1 $218 $85 #
plane-surface $-1 0 0 -14.174623335363773 0 0 1 1 0 0 forward_v I I I I #
coedge $-1 $219 $220 $221 $222 forward $86 $-1 #
face $-1 $223 $224 $52 $-1 $225 reversed single #
loop $-1 $-1 $226 $88 #
plane-surface $-1 0 0 -122.45246742149114 0 0 1 1 0 0 forward_v I I I I #
coedge $-1 $227 $228 $229 $230 forward $89 $-1 #
face $-1 $-1 $231 $53 $-1 $232 forward single #
loop $-1 $-1 $233 $91 #
plane-surface $-1 0 0 -1.25 0 0 -1 -1 0 0 forward_v I I I I #
loop $-1 $-1 $234 $70 #
coedge $-1 $148 $148 $233 $235 reversed $92 $-1 #
face $-1 $-1 $236 $54 $-1 $237 forward single #
loop $-1 $-1 $238 $94 #
plane-surface $-1 0 0 -1.25 0 0 -1 -1 0 0 forward_v I I I I #
loop $-1 $-1 $239 $71 #
coedge $-1 $153 $153 $238 $240 reversed $95 $-1 #
face $-1 $-1 $241 $55 $-1 $242 forward single #
loop $-1 $-1 $243 $97 #
plane-surface $-1 0 0 -1.25 0 0 -1 -1 0 0 forward_v I I I I #
loop $-1 $-1 $244 $72 #
coedge $-1 $158 $158 $243 $245 reversed $98 $-1 #
face $-1 $246 $247 $56 $-1 $248 reversed single #
loop $-1 $-1 $249 $100 #
plane-surface $-1 0 0 -122.45246742149115 0 0 1 1 0 0 forward_v I I I I #
coedge $-1 $250 $251 $252 $253 forward $101 $-1 #
face $-1 $-1 $254 $57 $-1 $255 forward single #
loop $-1 $-1 $256 $103 #
plane-surface $-1 0 0 -4.4668340098269583 0 0 -1 -1 0 0 forward_v I I I I #
loop $-1 $-1 $257 $74 #
coedge $-1 $167 $167 $256 $258 reversed $104 $-1 #
face $-1 $-1 $259 $58 $-1 $260 forward single #
loop $-1 $-1 $261 $106 #
plane-surface $-1 0 0 -4.4668340098269583 0 0 -1 -1 0 0 forward_v I I I I #
loop $-1 $-1 $262 $75 #
coedge $-1 $172 $172 $261 $263 reversed $107 $-1 #
face $-1 $264 $265 $59 $-1 $266 reversed single #
loop $-1 $-1 $267 $109 #
plane-surface $-1 0 0 -122.45246742149115 0 0 1 1 0 0 forward_v I I I I #
coedge $-1 $268 $269 $270 $271 forward $110 $-1 #
face $-1 $-1 $272 $60 $-1 $273 forward single #
loop $-1 $-1 $274 $112 #
plane-surface $-1 0 0 -4.4668340098269583 0 0 -1 -1 0 0 forward_v I I I I #
loop $-1 $-1 $275 $77 #
coedge $-1 $181 $181 $274 $276 reversed $113 $-1 #
face $-1 $-1 $277 $61 $-1 $278 forward single #
loop $-1 $-1 $279 $115 #
plane-surface $-1 0 0 -4.4668340098269583 0 0 -1 -1 0 0 forward_v I I I I #
loop $-1 $-1 $280 $78 #
coedge $-1 $186 $186 $279 $281 reversed $116 $-1 #
face $-1 $282 $283 $62 $-1 $284 reversed single #
loop $-1 $-1 $285 $118 #
plane-surface $-1 0 0 -122.45246742149115 0 0 1 1 0 0 forward_v I I I I #
coedge $-1 $286 $287 $288 $289 forward $119 $-1 #
face $-1 $-1 $290 $63 $-1 $291 forward single #
loop $-1 $-1 $292 $121 #
plane-surface $-1 0 0 -4.4668340098269583 0 0 -1 -1 0 0 forward_v I I I I #
loop $-1 $-1 $293 $80 #
coedge $-1 $195 $195 $292 $294 reversed $122 $-1 #
face $-1 $-1 $295 $64 $-1 $296 forward single #
loop $-1 $-1 $297 $124 #
plane-surface $-1 0 0 -4.4668340098269583 0 0 -1 -1 0 0 forward_v I I I I #
loop $-1 $-1 $298 $81 #
coedge $-1 $200 $200 $297 $299 reversed $125 $-1 #
face $-1 $300 $301 $65 $-1 $302 reversed single #
loop $-1 $-1 $303 $127 #
plane-surface $-1 0 0 -122.45246742149115 0 0 1 1 0 0 forward_v I I I I #
coedge $-1 $304 $305 $306 $307 forward $128 $-1 #
face $-1 $-1 $308 $66 $-1 $309 forward single #
loop $-1 $-1 $310 $130 #
plane-surface $-1 0 0 -4.4668340098269583 0 0 -1 -1 0 0 forward_v I I I I #
loop $-1 $-1 $311 $83 #
coedge $-1 $209 $209 $310 $312 reversed $131 $-1 #
face $-1 $-1 $313 $67 $-1 $314 forward single #
loop $-1 $-1 $315 $133 #
plane-surface $-1 0 0 -4.4668340098269583 0 0 -1 -1 0 0 forward_v I I I I #
loop $-1 $-1 $316 $84 #
coedge $-1 $214 $214 $315 $317 reversed $134 $-1 #
face $-1 $318 $319 $51 $-1 $320 reversed single #
loop $-1 $-1 $321 $136 #
plane-surface $-1 0 -42.163829735090665 0 0 1 0 0 0 1 forward_v I I I I #
coedge $-1 $322 $323 $324 $325 forward $137 $-1 #
coedge $-1 $326 $139 $327 $328 forward $86 $-1 #
coedge $-1 $139 $326 $329 $330 forward $86 $-1 #
coedge $-1 $331 $332 $139 $222 reversed $333 $-1 #
edge $-1 $334 -42.163829735090665 $335 42.163829735090665 $221 $336 forward 7 unknown #
face $-1 $337 $338 $52 $-1 $339 reversed single #
loop $-1 $-1 $340 $140 #
plane-surface $-1 0 -244.90493484298227 0 0 1 0 0 0 1 forward_v I I I I #
coedge $-1 $341 $342 $343 $344 forward $141 $-1 #
coedge $-1 $345 $143 $346 $347 forward $89 $-1 #
coedge $-1 $143 $345 $348 $349 forward $89 $-1 #
coedge $-1 $350 $351 $143 $230 reversed $352 $-1 #
edge $-1 $353 -244.90493484298227 $354 244.90493484298227 $229 $355 forward 7 unknown #
loop $-1 $356 $357 $144 #
cone-surface $-1 0 0 0 0 0 1 0.25 0 0 1 I I -0.70710678118654746 0.70710678118654746 0.25 forward I I I I #
coedge $-1 $233 $233 $148 $235 forward $145 $-1 #
coedge $-1 $234 $234 $357 $358 forward $147 $-1 #
edge $-1 $359 0 $359 6.2831853071796004 $233 $360 forward 7 unknown #
loop $-1 $361 $362 $149 #
cone-surface $-1 0 0 0 0 0 1 0.25 0 0 1 I I -0.70710678118654746 0.70710678118654746 0.25 forward I I I I #
coedge $-1 $238 $238 $153 $240 forward $150 $-1 #
coedge $-1 $239 $239 $362 $363 forward $152 $-1 #
edge $-1 $364 0 $364 6.2831853071796004 $238 $365 forward 7 unknown #
loop $-1 $366 $367 $154 #
cone-surface $-1 0 0 0 0 0 1 0.25 0 0 1 I I -0.70710678118654746 0.70710678118654746 0.25 forward I I I I #
coedge $-1 $243 $243 $158 $245 forward $155 $-1 #
coedge $-1 $244 $244 $367 $368 forward $157 $-1 #
edge $-1 $369 0 $369 6.2831853071796004 $243 $370 forward 7 unknown #
face $-1 $371 $372 $56 $-1 $373 reversed single #
loop $-1 $-1 $374 $159 #
plane-surface $-1 0 -244.90493484298227 0 0 1 0 0 0 1 forward_v I I I I #
coedge $-1 $375 $376 $377 $378 forward $160 $-1 #
coedge $-1 $379 $162 $380 $381 forward $101 $-1 #
coedge $-1 $162 $379 $382 $383 forward $101 $-1 #
coedge $-1 $384 $385 $162 $253 reversed $386 $-1 #
edge $-1 $387 -244.90493484298227 $388 244.90493484298227 $252 $389 forward 7 unknown #
loop $-1 $390 $391 $163 #
cone-surface $-1 0 0 0 0 0 1 0.75 0 0 1 I I -0.70710678118654757 0.70710678118654757 0.75 forward I I I I #
coedge $-1 $256 $256 $167 $258 forward $164 $-1 #
coedge $-1 $257 $257 $391 $392 forward $166 $-1 #
edge $-1 $393 0 $393 6.2831853071796004 $256 $394 forward 7 unknown #
loop $-1 $395 $396 $168 #
cone-surface $-1 0 0 0 0 0 1 0.75 0 0 1 I I -0.70710678118654757 0.70710678118654757 0.75 forward I I I I #
coedge $-1 $261 $261 $172 $263 forward $169 $-1 #
coedge $-1 $262 $262 $396 $397 forward $171 $-1 #
edge $-1 $398 0 $398 6.2831853071796004 $261 $399 forward 7 unknown #
face $-1 $400 $401 $59 $-1 $402 reversed single #
loop $-1 $-1 $403 $173 #
plane-surface $-1 0 -244.90493484298227 0 0 1 0 0 0 1 forward_v I I I I #
coedge $-1 $404 $405 $406 $407 forward $174 $-1 #
coedge $-1 $408 $176 $409 $410 forward $110 $-1 #
coedge $-1 $176 $408 $411 $412 forward $110 $-1 #
coedge $-1 $413 $414 $176 $271 reversed $415 $-1 #
edge $-1 $416 -244.90493484298227 $417 244.90493484298227 $270 $418 forward 7 unknown #
loop $-1 $419 $420 $177 #
cone-surface $-1 0 0 0 0 0 1 0.75 0 0 1 I I -0.70710678118654757 0.70710678118654757 0.75 forward I I I I #
coedge $-1 $274 $274 $181 $276 forward $178 $-1 #
coedge $-1 $275 $275 $420 $421 forward $180 $-1 #
edge $-1 $422 0 $422 6.2831853071796004 $274 $423 forward 7 unknown #
loop $-1 $424 $425 $182 #
cone-surface $-1 0 0 0 0 0 1 0.75 0 0 1 I I -0.70710678118654757 0.70710678118654757 0.75 forward I I I I #
coedge $-1 $279 $279 $186 $281 forward $183 $-1 #
coedge $-1 $280 $280 $425 $426 forward $185 $-1 #
edge $-1 $427 0 $427 6.2831853071796004 $279 $428 forward 7 unknown #
face $-1 $429 $430 $62 $-1 $431 reversed single #
loop $-1 $-1 $432 $187 #
plane-surface $-1 0 -244.90493484298227 0 0 1 0 0 0 1 forward_v I I I I #
coedge $-1 $433 $434 $435 $436 forward $188 $-1 #
coedge $-1 $437 $190 $438 $439 forward $119 $-1 #
coedge $-1 $190 $437 $440 $441 forward $119 $-1 #
coedge $-1 $442 $443 $190 $289 reversed $444 $-1 #
edge $-1 $445 -244.90493484298227 $446 244.90493484298227 $288 $447 forward 7 unknown #
loop $-1 $448 $449 $191 #
cone-surface $-1 0 0 0 0 0 1 0.75 0 0 1 I I -0.70710678118654757 0.70710678118654757 0.75 forward I I I I #
coedge $-1 $292 $292 $195 $294 forward $192 $-1 #
coedge $-1 $293 $293 $449 $450 forward $194 $-1 #
edge $-1 $451 0 $451 6.2831853071796004 $292 $452 forward 7 unknown #
loop $-1 $453 $454 $196 #
cone-surface $-1 0 0 0 0 0 1 0.75 0 0 1 I I -0.70710678118654757 0.70710678118654757 0.75 forward I I I I #
coedge $-1 $297 $297 $200 $299 forward $197 $-1 #
coedge $-1 $298 $298 $454 $455 forward $199 $-1 #
edge $-1 $456 0 $456 6.2831853071796004 $297 $457 forward 7 unknown #
face $-1 $458 $459 $65 $-1 $460 reversed single #
loop $-1 $-1 $461 $201 #
plane-surface $-1 0 -244.90493484298227 0 0 1 0 0 0 1 forward_v I I I I #
coedge $-1 $462 $463 $464 $465 forward $202 $-1 #
coedge $-1 $466 $204 $467 $468 forward $128 $-1 #
coedge $-1 $204 $466 $469 $470 forward $128 $-1 #
coedge $-1 $471 $472 $204 $307 reversed $473 $-1 #
edge $-1 $474 -244.90493484298227 $475 244.90493484298227 $306 $476 forward 7 unknown #
loop $-1 $477 $478 $205 #
cone-surface $-1 0 0 0 0 0 1 0.75 0 0 1 I I -0.70710678118654757 0.70710678118654757 0.75 forward I I I I #
coedge $-1 $310 $310 $209 $312 forward $206 $-1 #
coedge $-1 $311 $311 $478 $479 forward $208 $-1 #
edge $-1 $480 0 $480 6.2831853071796004 $310 $481 forward 7 unknown #
loop $-1 $482 $483 $210 #
cone-surface $-1 0 0 0 0 0 1 0.75 0 0 1 I I -0.70710678118654757 0.70710678118654757 0.75 forward I I I I #
coedge $-1 $315 $315 $214 $317 forward $211 $-1 #
coedge $-1 $316 $316 $483 $484 forward $213 $-1 #
edge $-1 $485 0 $485 6.2831853071796004 $315 $486 forward 7 unknown #
face $-1 $487 $488 $51 $-1 $489 reversed single #
loop $-1 $-1 $490 $215 #
plane-surface $-1 -61.226233710745568 0 0 1 0 0 0 0 -1 forward_v I I I I #
coedge $-1 $491 $329 $492 $493 forward $216 $-1 #
coedge $-1 $494 $218 $491 $495 forward $137 $-1 #
coedge $-1 $218 $494 $496 $497 forward $137 $-1 #
coedge $-1 $332 $331 $218 $325 reversed $333 $-1 #
edge $-1 $498 -42.163829735090665 $499 42.163829735090665 $324 $500 forward 7 unknown #
coedge $-1 $220 $219 $501 $502 forward $86 $-1 #
coedge $-1 $503 $504 $219 $328 reversed $488 $-1 #
edge $-1 $335 -61.226233710745568 $505 61.226233710745568 $327 $506 forward 7 unknown #
coedge $-1 $321 $507 $220 $330 reversed $216 $-1 #
edge $-1 $508 -61.226233710745568 $334 61.226233710745568 $329 $509 forward 7 unknown #
coedge $-1 $324 $221 $507 $510 forward $333 $-1 #
coedge $-1 $221 $324 $503 $511 reversed $333 $-1 #
loop $-1 $-1 $331 $487 #
vertex $-1 $222 $512 #
vertex $-1 $222 $513 #
straight-curve $-1 61.226233710745568 0 14.174623335363773 0 1 0 I I #
face $-1 $514 $515 $52 $-1 $516 reversed single #
loop $-1 $-1 $517 $223 #
plane-surface $-1 -6.5819088792413467 0 0 1 0 0 0 0 -1 forward_v I I I I #
coedge $-1 $518 $348 $519 $520 forward $224 $-1 #
coedge $-1 $521 $226 $518 $522 forward $141 $-1 #
coedge $-1 $226 $521 $523 $524 forward $141 $-1 #
coedge $-1 $351 $350 $226 $344 reversed $352 $-1 #
edge $-1 $525 -244.90493484298227 $526 244.90493484298227 $343 $527 forward 7 unknown #
coedge $-1 $228 $227 $528 $529 forward $89 $-1 #
coedge $-1 $530 $531 $227 $347 reversed $515 $-1 #
edge $-1 $354 -6.5819088792413467 $532 6.5819088792413467 $346 $533 forward 7 unknown #
coedge $-1 $340 $534 $228 $349 reversed $224 $-1 #
edge $-1 $535 -6.5819088792413467 $353 6.5819088792413467 $348 $536 forward 7 unknown #
coedge $-1 $343 $229 $534 $537 forward $352 $-1 #
coedge $-1 $229 $343 $530 $538 reversed $352 $-1 #
loop $-1 $-1 $350 $514 #
vertex $-1 $230 $539 #
vertex $-1 $230 $540 #
straight-curve $-1 6.5819088792413467 0 122.45246742149114 0 1 0 I I #
loop $-1 $-1 $541 $144 #
coedge $-1 $357 $357 $234 $358 reversed $231 $-1 #
edge $-1 $542 0 $542 6.2831853071796004 $357 $543 forward 7 unknown #
vertex $-1 $235 $544 #
ellipse-curve $-1 0 0 -1.25 0 0 -1 0.5 0 0 1 I I #
loop $-1 $-1 $545 $149 #
coedge $-1 $362 $362 $239 $363 reversed $236 $-1 #
edge $-1 $546 0 $546 6.2831853071796004 $362 $547 forward 7 unknown #
vertex $-1 $240 $548 #
ellipse-curve $-1 0 0 -1.25 0 0 -1 0.5 0 0 1 I I #
loop $-1 $-1 $549 $154 #
coedge $-1 $367 $367 $244 $368 reversed $241 $-1 #
edge $-1 $550 0 $550 6.2831853071796004 $367 $551 forward 7 unknown #
vertex $-1 $245 $552 #
ellipse-curve $-1 0 0 -1.25 0 0 -1 0.5 0 0 1 I I #
face $-1 $553 $554 $56 $-1 $555 reversed single #
loop $-1 $-1 $556 $246 #
plane-surface $-1 -7.3840235518137636 0 0 1 0 0 0 0 -1 forward_v I I I I #
coedge $-1 $557 $382 $558 $559 forward $247 $-1 #
coedge $-1 $560 $249 $557 $561 forward $160 $-1 #
coedge $-1 $249 $560 $562 $563 forward $160 $-1 #
coedge $-1 $385 $384 $249 $378 reversed $386 $-1 #
edge $-1 $564 -244.90493484298227 $565 244.90493484298227 $377 $566 forward 7 unknown #
coedge $-1 $251 $250 $567 $568 forward $101 $-1 #
coedge $-1 $569 $570 $250 $381 reversed $554 $-1 #
edge $-1 $388 -7.3840235518137636 $571 7.3840235518137636 $380 $572 forward 7 unknown #
coedge $-1 $374 $573 $251 $383 reversed $247 $-1 #
edge $-1 $574 -7.3840235518137636 $387 7.3840235518137636 $382 $575 forward 7 unknown #
coedge $-1 $377 $252 $573 $576 forward $386 $-1 #
coedge $-1 $252 $377 $569 $577 reversed $386 $-1 #
loop $-1 $-1 $384 $553 #
vertex $-1 $253 $578 #
vertex $-1 $253 $579 #
straight-curve $-1 7.3840235518137636 0 122.45246742149115 0 1 0 I I #
loop $-1 $-1 $580 $163 #
coedge $-1 $391 $391 $257 $392 reversed $254 $-1 #
edge $-1 $581 0 $581 6.2831853071796004 $391 $582 forward 7 unknown #
vertex $-1 $258 $583 #
ellipse-curve $-1 0 0 -4.4668340098269583 0 0 -1 1.5 0 0 1 I I #
loop $-1 $-1 $584 $168 #
coedge $-1 $396 $396 $262 $397 reversed $259 $-1 #
edge $-1 $585 0 $585 6.2831853071796004 $396 $586 forward 7 unknown #
vertex $-1 $263 $587 #
ellipse-curve $-1 0 0 -4.4668340098269583 0 0 -1 1.5 0 0 1 I I #
face $-1 $588 $589 $59 $-1 $590 reversed single #
loop $-1 $-1 $591 $264 #
plane-surface $-1 -7.3840235518137636 0 0 1 0 0 0 0 -1 forward_v I I I I #
coedge $-1 $592 $411 $593 $594 forward $265 $-1 #
coedge $-1 $595 $267 $592 $596 forward $174 $-1 #
coedge $-1 $267 $595 $597 $598 forward $174 $-1 #
coedge $-1 $414 $413 $267 $407 reversed $415 $-1 #
edge $-1 $599 -244.90493484298227 $600 244.90493484298227 $406 $601 forward 7 unknown #
coedge $-1 $269 $268 $602 $603 forward $110 $-1 #
coedge $-1 $604 $605 $268 $410 reversed $589 $-1 #
edge $-1 $417 -7.3840235518137636 $606 7.3840235518137636 $409 $607 forward 7 unknown #
coedge $-1 $403 $608 $269 $412 reversed $265 $-1 #
edge $-1 $609 -7.3840235518137636 $416 7.3840235518137636 $411 $610 forward 7 unknown #
coedge $-1 $406 $270 $608 $611 forward $415 $-1 #
coedge $-1 $270 $406 $604 $612 reversed $415 $-1 #
loop $-1 $-1 $413 $588 #
vertex $-1 $271 $613 #
vertex $-1 $271 $614 #
straight-curve $-1 7.3840235518137636 0 122.45246742149115 0 1 0 I I #
loop $-1 $-1 $615 $177 #
coedge $-1 $420 $420 $275 $421 reversed $272 $-1 #
edge $-1 $616 0 $616 6.2831853071796004 $420 $617 forward 7 unknown #
vertex $-1 $276 $618 #
ellipse-curve $-1 0 0 -4.4668340098269583 0 0 -1 1.5 0 0 1 I I #
loop $-1 $-1 $619 $182 #
coedge $-1 $425 $425 $280 $426 reversed $277 $-1 #
edge $-1 $620 0 $620 6.2831853071796004 $425 $621 forward 7 unknown #
vertex $-1 $281 $622 #
ellipse-curve $-1 0 0 -4.4668340098269583 0 0 -1 1.5 0 0 1 I I #
face $-1 $623 $624 $62 $-1 $625 reversed single #
loop $-1 $-1 $626 $282 #
plane-surface $-1 -7.3840235518137636 0 0 1 0 0 0 0 -1 forward_v I I I I #
coedge $-1 $627 $440 $628 $629 forward $283 $-1 #
coedge $-1 $630 $285 $627 $631 forward $188 $-1 #
coedge $-1 $285 $630 $632 $633 forward $188 $-1 #
coedge $-1 $443 $442 $285 $436 reversed $444 $-1 #
edge $-1 $634 -244.90493484298227 $635 244.90493484298227 $435 $636 forward 7 unknown #
coedge $-1 $287 $286 $637 $638 forward $119 $-1 #
coedge $-1 $639 $640 $286 $439 reversed $624 $-1 #
edge $-1 $446 -7.3840235518137636 $641 7.3840235518137636 $438 $642 forward 7 unknown #
coedge $-1 $432 $643 $287 $441 reversed $283 $-1 #
edge $-1 $644 -7.3840235518137636 $445 7.3840235518137636 $440 $645 forward 7 unknown #
coedge $-1 $435 $288 $643 $646 forward $444 $-1 #
coedge $-1 $288 $435 $639 $647 reversed $444 $-1 #
loop $-1 $-1 $442 $623 #
vertex $-1 $289 $648 #
vertex $-1 $289 $649 #
straight-curve $-1 7.3840235518137636 0 122.45246742149115 0 1 0 I I #
loop $-1 $-1 $650 $191 #
coedge $-1 $449 $449 $293 $450 reversed $290 $-1 #
edge $-1 $651 0 $651 6.2831853071796004 $449 $652 forward 7 unknown #
vertex $-1 $294 $653 #
ellipse-curve $-1 0 0 -4.4668340098269583 0 0 -1 1.5 0 0 1 I I #
loop $-1 $-1 $654 $196 #
coedge $-1 $454 $454 $298 $455 reversed $295 $-1 #
edge $-1 $655 0 $655 6.2831853071796004 $454 $656 forward 7 unknown #
vertex $-1 $299 $657 #
ellipse-curve $-1 0 0 -4.4668340098269583 0 0 -1 1.5 0 0 1 I I #
face $-1 $658 $659 $65 $-1 $660 reversed single #
loop $-1 $-1 $661 $300 #
plane-surface $-1 -7.3840235518137636 0 0 1 0 0 0 0 -1 forward_v I I I I #
coedge $-1 $662 $469 $663 $664 forward $301 $-1 #
coedge $-1 $665 $303 $662 $666 forward $202 $-1 #
coedge $-1 $303 $665 $667 $668 forward $202 $-1 #
coedge $-1 $472 $471 $303 $465 reversed $473 $-1 #
edge $-1 $669 -244.90493484298227 $670 244.90493484298227 $464 $671 forward 7 unknown #
coedge $-1 $305 $304 $672 $673 forward $128 $-1 #
coedge $-1 $674 $675 $304 $468 reversed $659 $-1 #
edge $-1 $475 -7.3840235518137636 $676 7.3840235518137636 $467 $677 forward 7 unknown #
coedge $-1 $461 $678 $305 $470 reversed $301 $-1 #
edge $-1 $679 -7.3840235518137636 $474 7.3840235518137636 $469 $680 forward 7 unknown #
coedge $-1 $464 $306 $678 $681 forward $473 $-1 #
coedge $-1 $306 $464 $674 $682 reversed $473 $-1 #
loop $-1 $-1 $471 $658 #
vertex $-1 $307 $683 #
vertex $-1 $307 $684 #
straight-curve $-1 7.3840235518137636 0 122.45246742149115 0 1 0 I I #
loop $-1 $-1 $685 $205 #
coedge $-1 $478 $478 $311 $479 reversed $308 $-1 #
edge $-1 $686 0 $686 6.2831853071796004 $478 $687 forward 7 unknown #
vertex $-1 $312 $688 #
ellipse-curve $-1 0 0 -4.4668340098269583 0 0 -1 1.5 0 0 1 I I #
loop $-1 $-1 $689 $210 #
coedge $-1 $483 $483 $316 $484 reversed $313 $-1 #
edge $-1 $690 0 $690 6.2831853071796004 $483 $691 forward 7 unknown #
vertex $-1 $317 $692 #
ellipse-curve $-1 0 0 -4.4668340098269583 0 0 -1 1.5 0 0 1 I I #
face $-1 $-1 $333 $51 $-1 $693 reversed single #
loop $-1 $-1 $503 $318 #
plane-surface $-1 0 42.163829735090665 0 0 -1 0 0 0 -1 forward_v I I I I #
coedge $-1 $694 $501 $504 $695 forward $319 $-1 #
coedge $-1 $507 $321 $322 $495 reversed $216 $-1 #
coedge $-1 $501 $694 $321 $493 reversed $319 $-1 #
edge $-1 $508 -14.174623335363773 $696 14.174623335363773 $492 $697 forward 7 unknown #
coedge $-1 $323 $322 $694 $698 forward $137 $-1 #
edge $-1 $499 -61.226233710745568 $696 61.226233710745568 $491 $699 forward 7 unknown #
coedge $-1 $504 $503 $323 $497 reversed $488 $-1 #
edge $-1 $700 -61.226233710745568 $498 61.226233710745568 $496 $701 forward 7 unknown #
vertex $-1 $325 $702 #
vertex $-1 $510 $703 #
straight-curve $-1 61.226233710745568 0 -14.174623335363773 0 -1 0 I I #
coedge $-1 $490 $492 $326 $502 reversed $319 $-1 #
edge $-1 $505 -42.163829735090665 $508 42.163829735090665 $501 $704 forward 7 unknown #
coedge $-1 $496 $327 $332 $511 forward $488 $-1 #
coedge $-1 $327 $496 $490 $695 reversed $488 $-1 #
vertex $-1 $328 $705 #
straight-curve $-1 0 42.163829735090665 14.174623335363773 -1 0 0 I I #
coedge $-1 $329 $491 $331 $510 reversed $216 $-1 #
vertex $-1 $502 $706 #
straight-curve $-1 0 -42.163829735090665 14.174623335363773 1 0 0 I I #
edge $-1 $334 -14.174623335363773 $499 14.174623335363773 $331 $707 forward 7 unknown #
edge $-1 $335 -14.174623335363773 $498 14.174623335363773 $332 $708 forward 7 unknown #
point $-1 61.226233710745568 -42.163829735090665 14.174623335363773 #
point $-1 61.226233710745568 42.163829735090665 14.174623335363773 #
face $-1 $-1 $352 $52 $-1 $709 reversed single #
loop $-1 $-1 $530 $337 #
plane-surface $-1 0 244.90493484298227 0 0 -1 0 0 0 -1 forward_v I I I I #
coedge $-1 $710 $528 $531 $711 forward $338 $-1 #
coedge $-1 $534 $340 $341 $522 reversed $224 $-1 #
coedge $-1 $528 $710 $340 $520 reversed $338 $-1 #
edge $-1 $535 -122.45246742149114 $712 122.45246742149114 $519 $713 forward 7 unknown #
coedge $-1 $342 $341 $710 $714 forward $141 $-1 #
edge $-1 $526 -6.5819088792413467 $712 6.5819088792413467 $518 $715 forward 7 unknown #
coedge $-1 $531 $530 $342 $524 reversed $515 $-1 #
edge $-1 $716 -6.5819088792413467 $525 6.5819088792413467 $523 $717 forward 7 unknown #
vertex $-1 $344 $718 #
vertex $-1 $537 $719 #
straight-curve $-1 6.5819088792413467 0 -122.45246742149114 0 -1 0 I I #
coedge $-1 $517 $519 $345 $529 reversed $338 $-1 #
edge $-1 $532 -244.90493484298227 $535 244.90493484298227 $528 $720 forward 7 unknown #
coedge $-1 $523 $346 $351 $538 forward $515 $-1 #
coedge $-1 $346 $523 $517 $711 reversed $515 $-1 #
vertex $-1 $347 $721 #
straight-curve $-1 0 244.90493484298227 122.45246742149114 -1 0 0 I I #
coedge $-1 $348 $518 $350 $537 reversed $224 $-1 #
vertex $-1 $529 $722 #
straight-curve $-1 0 -244.90493484298227 122.45246742149114 1 0 0 I I #
edge $-1 $353 -122.45246742149114 $526 122.45246742149114 $350 $723 forward 7 unknown #
edge $-1 $354 -122.45246742149114 $525 122.45246742149114 $351 $724 forward 7 unknown #
point $-1 6.5819088792413467 -244.90493484298227 122.45246742149114 #
point $-1 6.5819088792413467 244.90493484298227 122.45246742149114 #
coedge $-1 $541 $541 $-1 $725 reversed $356 $-1 #
vertex $-1 $358 $726 #
ellipse-curve $-1 0 0 -0.25 0 0 -1 0.5 0 0 1 I I #
point $-1 0.5 0 -1.25 #
coedge $-1 $545 $545 $-1 $727 reversed $361 $-1 #
vertex $-1 $363 $728 #
ellipse-curve $-1 0 0 -0.25 0 0 -1 0.5 0 0 1 I I #
point $-1 0.5 0 -1.25 #
coedge $-1 $549 $549 $-1 $729 reversed $366 $-1 #
vertex $-1 $368 $730 #
ellipse-curve $-1 0 0 -0.25 0 0 -1 0.5 0 0 1 I I #
point $-1 0.5 0 -1.25 #
face $-1 $-1 $386 $56 $-1 $731 reversed single #
loop $-1 $-1 $569 $371 #
plane-surface $-1 0 244.90493484298227 0 0 -1 0 0 0 -1 forward_v I I I I #
coedge $-1 $732 $567 $570 $733 forward $372 $-1 #
coedge $-1 $573 $374 $375 $561 reversed $247 $-1 #
coedge $-1 $567 $732 $374 $559 reversed $372 $-1 #
edge $-1 $574 -122.45246742149115 $734 122.45246742149115 $558 $735 forward 7 unknown #
coedge $-1 $376 $375 $732 $736 forward $160 $-1 #
edge $-1 $565 -7.3840235518137636 $734 7.3840235518137636 $557 $737 forward 7 unknown #
coedge $-1 $570 $569 $376 $563 reversed $554 $-1 #
edge $-1 $738 -7.3840235518137636 $564 7.3840235518137636 $562 $739 forward 7 unknown #
vertex $-1 $378 $740 #
vertex $-1 $576 $741 #
straight-curve $-1 7.3840235518137636 0 -122.45246742149115 0 -1 0 I I #
coedge $-1 $556 $558 $379 $568 reversed $372 $-1 #
edge $-1 $571 -244.90493484298227 $574 244.90493484298227 $567 $742 forward 7 unknown #
coedge $-1 $562 $380 $385 $577 forward $554 $-1 #
coedge $-1 $380 $562 $556 $733 reversed $554 $-1 #
vertex $-1 $381 $743 #
straight-curve $-1 0 244.90493484298227 122.45246742149115 -1 0 0 I I #
coedge $-1 $382 $557 $384 $576 reversed $247 $-1 #
vertex $-1 $568 $744 #
straight-curve $-1 0 -244.90493484298227 122.45246742149115 1 0 0 I I #
edge $-1 $387 -122.45246742149115 $565 122.45246742149115 $384 $745 forward 7 unknown #
edge $-1 $388 -122.45246742149115 $564 122.45246742149115 $385 $746 forward 7 unknown #
point $-1 7.3840235518137636 -244.90493484298227 122.45246742149115 #
point $-1 7.3840235518137636 244.90493484298227 122.45246742149115 #
coedge $-1 $580 $580 $-1 $747 reversed $390 $-1 #
vertex $-1 $392 $748 #
ellipse-curve $-1 0 0 -0.75 0 0 -1 1.5 0 0 1 I I #
point $-1 1.5 0 -4.4668340098269583 #
coedge $-1 $584 $584 $-1 $749 reversed $395 $-1 #
vertex $-1 $397 $750 #
ellipse-curve $-1 0 0 -0.75 0 0 -1 1.5 0 0 1 I I #
point $-1 1.5 0 -4.4668340098269583 #
face $-1 $-1 $415 $59 $-1 $751 reversed single #
loop $-1 $-1 $604 $400 #
plane-surface $-1 0 244.90493484298227 0 0 -1 0 0 0 -1 forward_v I I I I #
coedge $-1 $752 $602 $605 $753 forward $401 $-1 #
coedge $-1 $608 $403 $404 $596 reversed $265 $-1 #
coedge $-1 $602 $752 $403 $594 reversed $401 $-1 #
edge $-1 $609 -122.45246742149115 $754 122.45246742149115 $593 $755 forward 7 unknown #
coedge $-1 $405 $404 $752 $756 forward $174 $-1 #
edge $-1 $600 -7.3840235518137636 $754 7.3840235518137636 $592 $757 forward 7 unknown #
coedge $-1 $605 $604 $405 $598 reversed $589 $-1 #
edge $-1 $758 -7.3840235518137636 $599 7.3840235518137636 $597 $759 forward 7 unknown #
vertex $-1 $407 $760 #
vertex $-1 $611 $761 #
straight-curve $-1 7.3840235518137636 0 -122.45246742149115 0 -1 0 I I #
coedge $-1 $591 $593 $408 $603 reversed $401 $-1 #
edge $-1 $606 -244.90493484298227 $609 244.90493484298227 $602 $762 forward 7 unknown #
coedge $-1 $597 $409 $414 $612 forward $589 $-1 #
coedge $-1 $409 $597 $591 $753 reversed $589 $-1 #
vertex $-1 $410 $763 #
straight-curve $-1 0 244.90493484298227 122.45246742149115 -1 0 0 I I #
coedge $-1 $411 $592 $413 $611 reversed $265 $-1 #
vertex $-1 $603 $764 #
straight-curve $-1 0 -244.90493484298227 122.45246742149115 1 0 0 I I #
edge $-1 $416 -122.45246742149115 $600 122.45246742149115 $413 $765 forward 7 unknown #
edge $-1 $417 -122.45246742149115 $599 122.45246742149115 $414 $766 forward 7 unknown #
point $-1 7.3840235518137636 -244.90493484298227 122.45246742149115 #
point $-1 7.3840235518137636 244.90493484298227 122.45246742149115 #
coedge $-1 $615 $615 $-1 $767 reversed $419 $-1 #
vertex $-1 $421 $768 #
ellipse-curve $-1 0 0 -0.75 0 0 -1 1.5 0 0 1 I I #
point $-1 1.5 0 -4.4668340098269583 #
coedge $-1 $619 $619 $-1 $769 reversed $424 $-1 #
vertex $-1 $426 $770 #
ellipse-curve $-1 0 0 -0.75 0 0 -1 1.5 0 0 1 I I #
point $-1 1.5 0 -4.4668340098269583 #
face $-1 $-1 $444 $62 $-1 $771 reversed single #
loop $-1 $-1 $639 $429 #
plane-surface $-1 0 244.90493484298227 0 0 -1 0 0 0 -1 forward_v I I I I #
coedge $-1 $772 $637 $640 $773 forward $430 $-1 #
coedge $-1 $643 $432 $433 $631 reversed $283 $-1 #
coedge $-1 $637 $772 $432 $629 reversed $430 $-1 #
edge $-1 $644 -122.45246742149115 $774 122.45246742149115 $628 $775 forward 7 unknown #
coedge $-1 $434 $433 $772 $776 forward $188 $-1 #
edge $-1 $635 -7.3840235518137636 $774 7.3840235518137636 $627 $777 forward 7 unknown #
coedge $-1 $640 $639 $434 $633 reversed $624 $-1 #
edge $-1 $778 -7.3840235518137636 $634 7.3840235518137636 $632 $779 forward 7 unknown #
vertex $-1 $436 $780 #
vertex $-1 $646 $781 #
straight-curve $-1 7.3840235518137636 0 -122.45246742149115 0 -1 0 I I #
coedge $-1 $626 $628 $437 $638 reversed $430 $-1 #
edge $-1 $641 -244.90493484298227 $644 244.90493484298227 $637 $782 forward 7 unknown #
coedge $-1 $632 $438 $443 $647 forward $624 $-1 #
coedge $-1 $438 $632 $626 $773 reversed $624 $-1 #
vertex $-1 $439 $783 #
straight-curve $-1 0 244.90493484298227 122.45246742149115 -1 0 0 I I #
coedge $-1 $440 $627 $442 $646 reversed $283 $-1 #
vertex $-1 $638 $784 #
straight-curve $-1 0 -244.90493484298227 122.45246742149115 1 0 0 I I #
edge $-1 $445 -122.45246742149115 $635 122.45246742149115 $442 $785 forward 7 unknown #
edge $-1 $446 -122.45246742149115 $634 122.45246742149115 $443 $786 forward 7 unknown #
point $-1 7.3840235518137636 -244.90493484298227 122.45246742149115 #
point $-1 7.3840235518137636 244.90493484298227 122.45246742149115 #
coedge $-1 $650 $650 $-1 $787 reversed $448 $-1 #
vertex $-1 $450 $788 #
ellipse-curve $-1 0 0 -0.75 0 0 -1 1.5 0 0 1 I I #
point $-1 1.5 0 -4.4668340098269583 #
coedge $-1 $654 $654 $-1 $789 reversed $453 $-1 #
vertex $-1 $455 $790 #
ellipse-curve $-1 0 0 -0.75 0 0 -1 1.5 0 0 1 I I #
point $-1 1.5 0 -4.4668340098269583 #
face $-1 $-1 $473 $65 $-1 $791 reversed single #
loop $-1 $-1 $674 $458 #
plane-surface $-1 0 244.90493484298227 0 0 -1 0 0 0 -1 forward_v I I I I #
coedge $-1 $792 $672 $675 $793 forward $459 $-1 #
coedge $-1 $678 $461 $462 $666 reversed $301 $-1 #
coedge $-1 $672 $792 $461 $664 reversed $459 $-1 #
edge $-1 $679 -122.45246742149115 $794 122.45246742149115 $663 $795 forward 7 unknown #
coedge $-1 $463 $462 $792 $796 forward $202 $-1 #
edge $-1 $670 -7.3840235518137636 $794 7.3840235518137636 $662 $797 forward 7 unknown #
coedge $-1 $675 $674 $463 $668 reversed $659 $-1 #
edge $-1 $798 -7.3840235518137636 $669 7.3840235518137636 $667 $799 forward 7 unknown #
vertex $-1 $465 $800 #
vertex $-1 $681 $801 #
straight-curve $-1 7.3840235518137636 0 -122.45246742149115 0 -1 0 I I #
coedge $-1 $661 $663 $466 $673 reversed $459 $-1 #
edge $-1 $676 -244.90493484298227 $679 244.90493484298227 $672 $802 forward 7 unknown #
coedge $-1 $667 $467 $472 $682 forward $659 $-1 #
coedge $-1 $467 $667 $661 $793 reversed $659 $-1 #
vertex $-1 $468 $803 #
straight-curve $-1 0 244.90493484298227 122.45246742149115 -1 0 0 I I #
coedge $-1 $469 $662 $471 $681 reversed $301 $-1 #
vertex $-1 $673 $804 #
straight-curve $-1 0 -244.90493484298227 122.45246742149115 1 0 0 I I #
edge $-1 $474 -122.45246742149115 $670 122.45246742149115 $471 $805 forward 7 unknown #
edge $-1 $475 -122.45246742149115 $669 122.45246742149115 $472 $806 forward 7 unknown #
point $-1 7.3840235518137636 -244.90493484298227 122.45246742149115 #
point $-1 7.3840235518137636 244.90493484298227 122.45246742149115 #
coedge $-1 $685 $685 $-1 $807 reversed $477 $-1 #
vertex $-1 $479 $808 #
ellipse-curve $-1 0 0 -0.75 0 0 -1 1.5 0 0 1 I I #
point $-1 1.5 0 -4.4668340098269583 #
coedge $-1 $689 $689 $-1 $809 reversed $482 $-1 #
vertex $-1 $484 $810 #
ellipse-curve $-1 0 0 -0.75 0 0 -1 1.5 0 0 1 I I #
point $-1 1.5 0 -4.4668340098269583 #
plane-surface $-1 61.226233710745568 0 0 -1 0 0 0 0 1 forward_v I I I I #
coedge $-1 $492 $490 $494 $698 reversed $319 $-1 #
edge $-1 $505 -14.174623335363773 $700 14.174623335363773 $504 $811 forward 7 unknown #
vertex $-1 $698 $812 #
straight-curve $-1 -61.226233710745568 -42.163829735090665 0 0 0 -1 I I #
edge $-1 $696 -42.163829735090665 $700 42.163829735090665 $694 $813 forward 7 unknown #
straight-curve $-1 0 -42.163829735090665 -14.174623335363773 -1 0 0 I I #
vertex $-1 $497 $814 #
straight-curve $-1 0 42.163829735090665 -14.174623335363773 1 0 0 I I #
point $-1 61.226233710745568 42.163829735090665 -14.174623335363773 #
point $-1 61.226233710745568 -42.163829735090665 -14.174623335363773 #
straight-curve $-1 -61.226233710745568 0 14.174623335363773 0 -1 0 I I #
point $-1 -61.226233710745568 42.163829735090665 14.174623335363773 #
point $-1 -61.226233710745568 -42.163829735090665 14.174623335363773 #
straight-curve $-1 61.226233710745568 -42.163829735090665 0 0 0 -1 I I #
straight-curve $-1 61.226233710745568 42.163829735090665 0 0 0 -1 I I #
plane-surface $-1 6.5819088792413467 0 0 -1 0 0 0 0 1 forward_v I I I I #
coedge $-1 $519 $517 $521 $714 reversed $338 $-1 #
edge $-1 $532 -122.45246742149114 $716 122.45246742149114 $531 $815 forward 7 unknown #
vertex $-1 $714 $816 #
straight-curve $-1 -6.5819088792413467 -244.90493484298227 0 0 0 -1 I I #
edge $-1 $712 -244.90493484298227 $716 244.90493484298227 $710 $817 forward 7 unknown #
straight-curve $-1 0 -244.90493484298227 -122.45246742149114 -1 0 0 I I #
vertex $-1 $524 $818 #
straight-curve $-1 0 244.90493484298227 -122.45246742149114 1 0 0 I I #
point $-1 6.5819088792413467 244.90493484298227 -122.45246742149114 #
point $-1 6.5819088792413467 -244.90493484298227 -122.45246742149114 #
straight-curve $-1 -6.5819088792413467 0 122.45246742149114 0 -1 0 I I #
point $-1 -6.5819088792413467 244.90493484298227 122.45246742149114 #
point $-1 -6.5819088792413467 -244.90493484298227 122.45246742149114 #
straight-curve $-1 6.5819088792413467 -244.90493484298227 0 0 0 -1 I I #
straight-curve $-1 6.5819088792413467 244.90493484298227 0 0 0 -1 I I #
edge $-1 $819 1 $819 0 $541 $-1 forward 7 unknown #
point $-1 0.5 0 -0.25 #
edge $-1 $820 1 $820 0 $545 $-1 forward 7 unknown #
point $-1 0.5 0 -0.25 #
edge $-1 $821 1 $821 0 $549 $-1 forward 7 unknown #
point $-1 0.5 0 -0.25 #
plane-surface $-1 7.3840235518137636 0 0 -1 0 0 0 0 1 forward_v I I I I #
coedge $-1 $558 $556 $560 $736 reversed $372 $-1 #
edge $-1 $571 -122.45246742149115 $738 122.45246742149115 $570 $822 forward 7 unknown #
vertex $-1 $736 $823 #
straight-curve $-1 -7.3840235518137636 -244.90493484298227 0 0 0 -1 I I #
edge $-1 $734 -244.90493484298227 $738 244.90493484298227 $732 $824 forward 7 unknown #
straight-curve $-1 0 -244.90493484298227 -122.45246742149115 -1 0 0 I I #
vertex $-1 $563 $825 #
straight-curve $-1 0 244.90493484298227 -122.45246742149115 1 0 0 I I #
point $-1 7.3840235518137636 244.90493484298227 -122.45246742149115 #
point $-1 7.3840235518137636 -244.90493484298227 -122.45246742149115 #
straight-curve $-1 -7.3840235518137636 0 122.45246742149115 0 -1 0 I I #
point $-1 -7.3840235518137636 244.90493484298227 122.45246742149115 #
point $-1 -7.3840235518137636 -244.90493484298227 122.45246742149115 #
straight-curve $-1 7.3840235518137636 -244.90493484298227 0 0 0 -1 I I #
straight-curve $-1 7.3840235518137636 244.90493484298227 0 0 0 -1 I I #
edge $-1 $826 1 $826 0 $580 $-1 forward 7 unknown #
point $-1 1.5 0 -0.75 #
edge $-1 $827 1 $827 0 $584 $-1 forward 7 unknown #
point $-1 1.5 0 -0.75 #
plane-surface $-1 7.3840235518137636 0 0 -1 0 0 0 0 1 forward_v I I I I #
coedge $-1 $593 $591 $595 $756 reversed $401 $-1 #
edge $-1 $606 -122.45246742149115 $758 122.45246742149115 $605 $828 forward 7 unknown #
vertex $-1 $756 $829 #
straight-curve $-1 -7.3840235518137636 -244.90493484298227 0 0 0 -1 I I #
edge $-1 $754 -244.90493484298227 $758 244.90493484298227 $752 $830 forward 7 unknown #
straight-curve $-1 0 -244.90493484298227 -122.45246742149115 -1 0 0 I I #
vertex $-1 $598 $831 #
straight-curve $-1 0 244.90493484298227 -122.45246742149115 1 0 0 I I #
point $-1 7.3840235518137636 244.90493484298227 -122.45246742149115 #
point $-1 7.3840235518137636 -244.90493484298227 -122.45246742149115 #
straight-curve $-1 -7.3840235518137636 0 122.45246742149115 0 -1 0 I I #
point $-1 -7.3840235518137636 244.90493484298227 122.45246742149115 #
point $-1 -7.3840235518137636 -244.90493484298227 122.45246742149115 #
straight-curve $-1 7.3840235518137636 -244.90493484298227 0 0 0 -1 I I #
straight-curve $-1 7.3840235518137636 244.90493484298227 0 0 0 -1 I I #
edge $-1 $832 1 $832 0 $615 $-1 forward 7 unknown #
point $-1 1.5 0 -0.75 #
edge $-1 $833 1 $833 0 $619 $-1 forward 7 unknown #
point $-1 1.5 0 -0.75 #
plane-surface $-1 7.3840235518137636 0 0 -1 0 0 0 0 1 forward_v I I I I #
coedge $-1 $628 $626 $630 $776 reversed $430 $-1 #
edge $-1 $641 -122.45246742149115 $778 122.45246742149115 $640 $834 forward 7 unknown #
vertex $-1 $776 $835 #
straight-curve $-1 -7.3840235518137636 -244.90493484298227 0 0 0 -1 I I #
edge $-1 $774 -244.90493484298227 $778 244.90493484298227 $772 $836 forward 7 unknown #
straight-curve $-1 0 -244.90493484298227 -122.45246742149115 -1 0 0 I I #
vertex $-1 $633 $837 #
straight-curve $-1 0 244.90493484298227 -122.45246742149115 1 0 0 I I #
point $-1 7.3840235518137636 244.90493484298227 -122.45246742149115 #
point $-1 7.3840235518137636 -244.90493484298227 -122.45246742149115 #
straight-curve $-1 -7.3840235518137636 0 122.45246742149115 0 -1 0 I I #
point $-1 -7.3840235518137636 244.90493484298227 122.45246742149115 #
point $-1 -7.3840235518137636 -244.90493484298227 122.45246742149115 #
straight-curve $-1 7.3840235518137636 -244.90493484298227 0 0 0 -1 I I #
straight-curve $-1 7.3840235518137636 244.90493484298227 0 0 0 -1 I I #
edge $-1 $838 1 $838 0 $650 $-1 forward 7 unknown #
point $-1 1.5 0 -0.75 #
edge $-1 $839 1 $839 0 $654 $-1 forward 7 unknown #
point $-1 1.5 0 -0.75 #
plane-surface $-1 7.3840235518137636 0 0 -1 0 0 0 0 1 forward_v I I I I #
coedge $-1 $663 $661 $665 $796 reversed $459 $-1 #
edge $-1 $676 -122.45246742149115 $798 122.45246742149115 $675 $840 forward 7 unknown #
vertex $-1 $796 $841 #
straight-curve $-1 -7.3840235518137636 -244.90493484298227 0 0 0 -1 I I #
edge $-1 $794 -244.90493484298227 $798 244.90493484298227 $792 $842 forward 7 unknown #
straight-curve $-1 0 -244.90493484298227 -122.45246742149115 -1 0 0 I I #
vertex $-1 $668 $843 #
straight-curve $-1 0 244.90493484298227 -122.45246742149115 1 0 0 I I #
point $-1 7.3840235518137636 244.90493484298227 -122.45246742149115 #
point $-1 7.3840235518137636 -244.90493484298227 -122.45246742149115 #
straight-curve $-1 -7.3840235518137636 0 122.45246742149115 0 -1 0 I I #
point $-1 -7.3840235518137636 244.90493484298227 122.45246742149115 #
point $-1 -7.3840235518137636 -244.90493484298227 122.45246742149115 #
straight-curve $-1 7.3840235518137636 -244.90493484298227 0 0 0 -1 I I #
straight-curve $-1 7.3840235518137636 244.90493484298227 0 0 0 -1 I I #
edge $-1 $844 1 $844 0 $685 $-1 forward 7 unknown #
point $-1 1.5 0 -0.75 #
edge $-1 $845 1 $845 0 $689 $-1 forward 7 unknown #
point $-1 1.5 0 -0.75 #
straight-curve $-1 -61.226233710745568 42.163829735090665 0 0 0 -1 I I #
point $-1 -61.226233710745568 -42.163829735090665 -14.174623335363773 #
straight-curve $-1 -61.226233710745568 0 -14.174623335363773 0 1 0 I I #
point $-1 -61.226233710745568 42.163829735090665 -14.174623335363773 #
straight-curve $-1 -6.5819088792413467 244.90493484298227 0 0 0 -1 I I #
point $-1 -6.5819088792413467 -244.90493484298227 -122.45246742149114 #
straight-curve $-1 -6.5819088792413467 0 -122.45246742149114 0 1 0 I I #
point $-1 -6.5819088792413467 244.90493484298227 -122.45246742149114 #
vertex $-1 $725 $846 #
vertex $-1 $727 $847 #
vertex $-1 $729 $848 #
straight-curve $-1 -7.3840235518137636 244.90493484298227 0 0 0 -1 I I #
point $-1 -7.3840235518137636 -244.90493484298227 -122.45246742149115 #
straight-curve $-1 -7.3840235518137636 0 -122.45246742149115 0 1 0 I I #
point $-1 -7.3840235518137636 244.90493484298227 -122.45246742149115 #
vertex $-1 $747 $849 #
vertex $-1 $749 $850 #
straight-curve $-1 -7.3840235518137636 244.90493484298227 0 0 0 -1 I I #
point $-1 -7.3840235518137636 -244.90493484298227 -122.45246742149115 #
straight-curve $-1 -7.3840235518137636 0 -122.45246742149115 0 1 0 I I #
point $-1 -7.3840235518137636 244.90493484298227 -122.45246742149115 #
vertex $-1 $767 $851 #
vertex $-1 $769 $852 #
straight-curve $-1 -7.3840235518137636 244.90493484298227 0 0 0 -1 I I #
point $-1 -7.3840235518137636 -244.90493484298227 -122.45246742149115 #
straight-curve $-1 -7.3840235518137636 0 -122.45246742149115 0 1 0 I I #
point $-1 -7.3840235518137636 244.90493484298227 -122.45246742149115 #
vertex $-1 $787 $853 #
vertex $-1 $789 $854 #
straight-curve $-1 -7.3840235518137636 244.90493484298227 0 0 0 -1 I I #
point $-1 -7.3840235518137636 -244.90493484298227 -122.45246742149115 #
straight-curve $-1 -7.3840235518137636 0 -122.45246742149115 0 1 0 I I #
point $-1 -7.3840235518137636 244.90493484298227 -122.45246742149115 #
vertex $-1 $807 $855 #
vertex $-1 $809 $856 #
point $-1 0 0 0.25 #
point $-1 0 0 0.25 #
point $-1 0 0 0.25 #
point $-1 0 0 0.75 #
point $-1 0 0 0.75 #
point $-1 0 0 0.75 #
point $-1 0 0 0.75 #
point $-1 0 0 0.75 #
point $-1 0 0 0.75 #
point $-1 0 0 0.75 #
point $-1 0 0 0.75 #
End-of-ACIS-data 