500 0 14 0           
7 Unknown 11 ACIS 5.0 NT 24 Fri Mar 26 20:09:29 1999 
-1 9.9999999999999995e-007 1e-010 
body $-1 $14 $-1 $15 #
body $-1 $16 $-1 $17 #
body $-1 $18 $-1 $19 #
body $-1 $20 $-1 $21 #
body $-1 $22 $-1 $23 #
body $-1 $24 $-1 $25 #
body $-1 $26 $-1 $27 #
body $-1 $28 $-1 $29 #
body $-1 $30 $-1 $31 #
body $-1 $32 $-1 $33 #
body $-1 $34 $-1 $35 #
body $-1 $36 $-1 $37 #
body $-1 $38 $-1 $39 #
body $-1 $40 $-1 $41 #
lump $-1 $-1 $42 $0 #
transform $-1 1 0 0 0 1 0 0 0 1 45.044099246192815 28.406087160969239 6.1503899036290282 1 rotate no_reflect no_shear #
lump $-1 $-1 $43 $1 #
transform $-1 1 0 0 0 1 0 0 0 1 45.044099246192815 28.406087160969239 6.1503899036290282 1 rotate no_reflect no_shear #
lump $-1 $-1 $44 $2 #
transform $-1 1 0 0 0 1 0 0 0 1 45.044099246192815 28.406087160969239 6.1503899036290282 1 rotate no_reflect no_shear #
lump $-1 $-1 $45 $3 #
transform $-1 1 0 0 0 1 0 0 0 1 45.044099246192815 28.406087160969239 6.1503899036290282 1 rotate no_reflect no_shear #
lump $-1 $-1 $46 $4 #
transform $-1 1 0 0 0 1 0 0 0 1 45.044099246192815 28.406087160969239 6.1503899036290282 1 rotate no_reflect no_shear #
lump $-1 $-1 $47 $5 #
transform $-1 1 0 0 0 1 0 0 0 1 45.044099246192815 28.406087160969239 6.1503899036290282 1 rotate no_reflect no_shear #
lump $-1 $-1 $48 $6 #
transform $-1 1 0 0 0 1 0 0 0 1 45.044099246192815 28.406087160969239 6.1503899036290282 1 rotate no_reflect no_shear #
lump $-1 $-1 $49 $7 #
transform $-1 1 0 0 0 1 0 0 0 1 45.044099246192815 28.406087160969239 6.1503899036290282 1 rotate no_reflect no_shear #
lump $-1 $-1 $50 $8 #
transform $-1 1 0 0 0 1 0 0 0 1 45.044099246192815 28.406087160969239 6.1503899036290282 1 rotate no_reflect no_shear #
lump $-1 $-1 $51 $9 #
transform $-1 1 0 0 0 1 0 0 0 1 45.044099246192815 28.406087160969239 6.1503899036290282 1 rotate no_reflect no_shear #
lump $-1 $-1 $52 $10 #
transform $-1 1 0 0 0 1 0 0 0 1 45.044099246192815 28.406087160969239 6.1503899036290282 1 rotate no_reflect no_shear #
lump $-1 $-1 $53 $11 #
transform $-1 1 0 0 0 1 0 0 0 1 45.044099246192815 28.406087160969239 6.1503899036290282 1 rotate no_reflect no_shear #
lump $-1 $-1 $54 $12 #
transform $-1 1 0 0 0 1 0 0 0 1 45.044099246192815 28.406087160969239 6.1503899036290282 1 rotate no_reflect no_shear #
lump $-1 $-1 $55 $13 #
transform $-1 1 0 0 0 1 0 0 0 1 45.044099246192815 28.406087160969239 6.1503899036290282 1 rotate no_reflect no_shear #
shell $-1 $-1 $-1 $56 $-1 $14 #
shell $-1 $-1 $-1 $57 $-1 $16 #
shell $-1 $-1 $-1 $58 $-1 $18 #
shell $-1 $-1 $-1 $59 $-1 $20 #
shell $-1 $-1 $-1 $60 $-1 $22 #
shell $-1 $-1 $-1 $61 $-1 $24 #
shell $-1 $-1 $-1 $62 $-1 $26 #
shell $-1 $-1 $-1 $63 $-1 $28 #
shell $-1 $-1 $-1 $64 $-1 $30 #
shell $-1 $-1 $-1 $65 $-1 $32 #
shell $-1 $-1 $-1 $66 $-1 $34 #
shell $-1 $-1 $-1 $67 $-1 $36 #
shell $-1 $-1 $-1 $68 $-1 $38 #
shell $-1 $-1 $-1 $69 $-1 $40 #
face $-1 $70 $71 $42 $-1 $72 forward single #
face $-1 $73 $74 $43 $-1 $75 reversed single #
face $-1 $76 $77 $44 $-1 $78 reversed single #
face $-1 $79 $80 $45 $-1 $81 reversed single #
face $-1 $82 $83 $46 $-1 $84 forward single #
face $-1 $85 $86 $47 $-1 $87 forward single #
face $-1 $88 $89 $48 $-1 $90 reversed single #
face $-1 $91 $92 $49 $-1 $93 forward single #
face $-1 $94 $95 $50 $-1 $96 reversed single #
face $-1 $97 $98 $51 $-1 $99 forward single #
face $-1 $100 $101 $52 $-1 $102 reversed single #
face $-1 $103 $104 $53 $-1 $105 forward single #
face $-1 $106 $107 $54 $-1 $108 reversed single #
face $-1 $109 $110 $55 $-1 $111 forward single #
face $-1 $112 $113 $42 $-1 $114 reversed single #
loop $-1 $-1 $115 $56 #
plane-surface $-1 0 0 6.1503899036290282 0 0 1 1 0 0 forward_v I I I I #
face $-1 $116 $117 $43 $-1 $118 reversed single #
loop $-1 $-1 $119 $57 #
plane-surface $-1 -41.612244747413953 -24.749939671823807 0 0 -1 0 0 0 -1 forward_v I I I I #
face $-1 $120 $121 $44 $-1 $122 reversed single #
loop $-1 $-1 $123 $58 #
plane-surface $-1 38.180390248635092 -26.578013416396523 0 1 0 0 0 0 -1 forward_v I I I I #
face $-1 $124 $125 $45 $-1 $126 reversed single #
loop $-1 $-1 $127 $59 #
plane-surface $-1 18.218401872739943 78.018669933555799 94.261037080004783 1 0 0 0 -0.86602541151947299 -0.49999998660252726 forward_v I I I I #
face $-1 $128 $129 $46 $-1 $130 forward single #
loop $-1 $131 $132 $60 #
cone-surface $-1 21.282900494948578 25.09072759729078 2.1915203259669576 0 -0.86602541151947299 -0.49999998660252726 1.5 0 0 1 I I 0 1 1.5 forward I I I I #
face $-1 $133 $134 $47 $-1 $135 forward single #
loop $-1 $136 $137 $61 #
cone-surface $-1 25.879648428261532 25.09072759729078 2.1915203259669576 0 -0.86602541151947299 -0.49999998660252726 1.5 0 0 1 I I 0 1 1.5 forward I I I I #
face $-1 $138 $139 $48 $-1 $140 reversed single #
loop $-1 $-1 $141 $62 #
plane-surface $-1 -21.796012762476408 -74.804940101816982 77.673597612616589 -1 0 0 0 -0.51503808176128008 0.85716729658548041 forward_v I I I I #
face $-1 $142 $143 $49 $-1 $144 forward single #
loop $-1 $145 $146 $63 #
cone-surface $-1 -27.893287202715108 -21.485685127434575 -0.32534529457907535 0 0.51503808176128008 -0.85716729658548041 2.5 0 0 1 I I 0 1 2.5 forward I I I I #
face $-1 $147 $148 $50 $-1 $149 reversed single #
loop $-1 $-1 $150 $64 #
plane-surface $-1 -3.2004879606663437 -74.804940101816982 77.673597612616589 -1 0 0 0 -0.51503808176128008 0.85716729658548041 forward_v I I I I #
face $-1 $151 $152 $51 $-1 $153 forward single #
loop $-1 $154 $155 $65 #
cone-surface $-1 -9.297762400905043 -21.485685127434575 -0.32534529457907535 0 0.51503808176128008 -0.85716729658548041 2.5 0 0 1 I I 0 1 2.5 forward I I I I #
face $-1 $156 $157 $52 $-1 $158 reversed single #
loop $-1 $-1 $159 $66 #
plane-surface $-1 15.395036841143728 -74.804940101816982 77.673597612616589 -1 0 0 0 -0.51503808176128008 0.85716729658548041 forward_v I I I I #
face $-1 $160 $161 $53 $-1 $162 forward single #
loop $-1 $163 $164 $67 #
cone-surface $-1 9.2977624009050288 -21.485685127434575 -0.32534529457907535 0 0.51503808176128008 -0.85716729658548041 2.5 0 0 1 I I 0 1 2.5 forward I I I I #
face $-1 $165 $166 $54 $-1 $167 reversed single #
loop $-1 $-1 $168 $68 #
plane-surface $-1 33.9905616429538 -74.804940101816982 77.673597612616589 -1 0 0 0 -0.51503808176128008 0.85716729658548041 forward_v I I I I #
face $-1 $169 $170 $55 $-1 $171 forward single #
loop $-1 $172 $173 $69 #
cone-surface $-1 27.893287202715101 -21.485685127434575 -0.32534529457907535 0 0.51503808176128008 -0.85716729658548041 2.5 0 0 1 I I 0 1 2.5 forward I I I I #
face $-1 $174 $175 $42 $-1 $176 reversed single #
loop $-1 $-1 $177 $70 #
plane-surface $-1 0 0 -6.1503899036290282 0 0 1 1 0 0 forward_v I I I I #
coedge $-1 $178 $179 $180 $181 forward $71 $-1 #
face $-1 $182 $183 $43 $-1 $184 forward single #
loop $-1 $-1 $185 $73 #
plane-surface $-1 -38.180390248635092 -26.578013416396523 0 -1 0 0 0 0 1 forward_v I I I I #
coedge $-1 $186 $187 $188 $189 forward $74 $-1 #
face $-1 $190 $191 $44 $-1 $192 forward single #
loop $-1 $-1 $193 $76 #
plane-surface $-1 41.612244747413953 -24.749939671823807 0 0 -1 0 0 0 -1 forward_v I I I I #
coedge $-1 $194 $195 $196 $197 forward $77 $-1 #
face $-1 $198 $199 $45 $-1 $200 reversed single #
loop $-1 $-1 $201 $79 #
plane-surface $-1 23.581274461605048 7.6113957447887515e-007 49.21693904076615 0 0.86602541151947299 0.49999998660252726 1 0 0 forward_v I I I I #
coedge $-1 $202 $203 $204 $205 reversed $80 $-1 #
face $-1 $-1 $206 $46 $-1 $207 forward single #
loop $-1 $208 $209 $82 #
cone-surface $-1 21.282900494948578 22.896650750352034 0.92476951302083954 0 -0.86602541151947299 -0.49999998660252726 0.75 0 0 1 I I -0.70710678118654757 0.70710678118654757 0.75 forward I I I I #
loop $-1 $-1 $210 $60 #
coedge $-1 $132 $132 $211 $212 reversed $83 $-1 #
face $-1 $-1 $213 $47 $-1 $214 forward single #
loop $-1 $215 $216 $85 #
cone-surface $-1 25.879648428261532 22.896650750352034 0.92476951302083954 0 -0.86602541151947299 -0.49999998660252726 0.75 0 0 1 I I -0.70710678118654757 0.70710678118654757 0.75 forward I I I I #
loop $-1 $-1 $217 $61 #
coedge $-1 $137 $137 $218 $219 reversed $86 $-1 #
face $-1 $220 $221 $48 $-1 $222 reversed single #
loop $-1 $-1 $223 $88 #
plane-surface $-1 -27.893287202715108 -28.406087160969243 0.45294005664224812 0 -0.51503808176128008 0.85716729658548041 1 0 0 forward_v I I I I #
coedge $-1 $224 $225 $226 $227 reversed $89 $-1 #
face $-1 $-1 $228 $49 $-1 $229 forward single #
loop $-1 $230 $231 $91 #
cone-surface $-1 -27.893287202715108 -18.662559846891916 -5.0238146900256346 0 0.51503808176128008 -0.85716729658548041 1.25 0 0 1 I I -0.70710678118654746 0.70710678118654746 1.25 forward I I I I #
loop $-1 $-1 $232 $63 #
coedge $-1 $146 $146 $233 $234 reversed $92 $-1 #
face $-1 $235 $236 $50 $-1 $237 reversed single #
loop $-1 $-1 $238 $94 #
plane-surface $-1 -9.297762400905043 -28.406087160969243 0.45294005664224812 0 -0.51503808176128008 0.85716729658548041 1 0 0 forward_v I I I I #
coedge $-1 $239 $240 $241 $242 reversed $95 $-1 #
face $-1 $-1 $243 $51 $-1 $244 forward single #
loop $-1 $245 $246 $97 #
cone-surface $-1 -9.297762400905043 -18.662559846891916 -5.0238146900256346 0 0.51503808176128008 -0.85716729658548041 1.25 0 0 1 I I -0.70710678118654746 0.70710678118654746 1.25 forward I I I I #
loop $-1 $-1 $247 $65 #
coedge $-1 $155 $155 $248 $249 reversed $98 $-1 #
face $-1 $250 $251 $52 $-1 $252 reversed single #
loop $-1 $-1 $253 $100 #
plane-surface $-1 9.2977624009050288 -28.406087160969243 0.45294005664224812 0 -0.51503808176128008 0.85716729658548041 1 0 0 forward_v I I I I #
coedge $-1 $254 $255 $256 $257 reversed $101 $-1 #
face $-1 $-1 $258 $53 $-1 $259 forward single #
loop $-1 $260 $261 $103 #
cone-surface $-1 9.2977624009050288 -18.662559846891916 -5.0238146900256346 0 0.51503808176128008 -0.85716729658548041 1.25 0 0 1 I I -0.70710678118654746 0.70710678118654746 1.25 forward I I I I #
loop $-1 $-1 $262 $67 #
coedge $-1 $164 $164 $263 $264 reversed $104 $-1 #
face $-1 $265 $266 $54 $-1 $267 reversed single #
loop $-1 $-1 $268 $106 #
plane-surface $-1 27.893287202715101 -28.406087160969243 0.45294005664224812 0 -0.51503808176128008 0.85716729658548041 1 0 0 forward_v I I I I #
coedge $-1 $269 $270 $271 $272 reversed $107 $-1 #
face $-1 $-1 $273 $55 $-1 $274 forward single #
loop $-1 $275 $276 $109 #
cone-surface $-1 27.893287202715101 -18.662559846891916 -5.0238146900256346 0 0.51503808176128008 -0.85716729658548041 1.25 0 0 1 I I -0.70710678118654746 0.70710678118654746 1.25 forward I I I I #
loop $-1 $-1 $277 $69 #
coedge $-1 $173 $173 $278 $279 reversed $110 $-1 #
face $-1 $280 $281 $42 $-1 $282 reversed single #
loop $-1 $-1 $283 $112 #
plane-surface $-1 0 -28.406087160969239 0 0 1 0 0 0 1 forward_v I I I I #
coedge $-1 $284 $285 $286 $287 forward $113 $-1 #
coedge $-1 $288 $115 $289 $290 forward $71 $-1 #
coedge $-1 $115 $288 $291 $292 forward $71 $-1 #
coedge $-1 $293 $294 $115 $181 reversed $295 $-1 #
edge $-1 $296 -28.406087160969239 $297 28.406087160969239 $180 $298 forward 7 unknown #
face $-1 $299 $300 $43 $-1 $301 reversed single #
loop $-1 $-1 $302 $116 #
plane-surface $-1 0 0 6.1503899036290282 0 0 1 1 0 0 forward_v I I I I #
coedge $-1 $303 $304 $305 $306 reversed $117 $-1 #
coedge $-1 $307 $119 $308 $309 reversed $74 $-1 #
coedge $-1 $119 $307 $310 $311 reversed $74 $-1 #
coedge $-1 $304 $303 $119 $189 reversed $117 $-1 #
edge $-1 $312 -6.1503899036290282 $313 6.1503899036290282 $188 $314 forward 7 unknown #
face $-1 $315 $316 $44 $-1 $317 reversed single #
loop $-1 $-1 $318 $120 #
plane-surface $-1 0 0 6.1503899036290282 0 0 1 1 0 0 forward_v I I I I #
coedge $-1 $319 $320 $321 $322 reversed $121 $-1 #
coedge $-1 $323 $123 $324 $325 reversed $77 $-1 #
coedge $-1 $123 $323 $326 $327 reversed $77 $-1 #
coedge $-1 $320 $319 $123 $197 reversed $121 $-1 #
edge $-1 $328 -6.1503899036290282 $329 6.1503899036290282 $196 $330 forward 7 unknown #
face $-1 $331 $332 $45 $-1 $333 reversed single #
loop $-1 $-1 $334 $124 #
plane-surface $-1 28.944147050470153 78.018669933555799 94.261037080004783 -1 0 0 0 0.86602541151947299 0.49999998660252726 forward_v I I I I #
coedge $-1 $335 $336 $337 $338 reversed $125 $-1 #
coedge $-1 $203 $127 $339 $340 reversed $80 $-1 #
coedge $-1 $127 $202 $335 $341 reversed $80 $-1 #
coedge $-1 $337 $342 $127 $205 forward $343 $-1 #
edge $-1 $344 10.60324780580866 $345 14.144851356567266 $204 $346 forward 7 unknown #
loop $-1 $-1 $211 $128 #
plane-surface $-1 23.581274461605048 7.6113957447887515e-007 49.21693904076615 0 0.86602541151947299 0.49999998660252726 1 0 0 forward_v I I I I #
loop $-1 $-1 $347 $82 #
coedge $-1 $209 $209 $210 $348 reversed $129 $-1 #
coedge $-1 $210 $210 $209 $348 forward $131 $-1 #
coedge $-1 $211 $211 $132 $212 forward $206 $-1 #
edge $-1 $349 1.0014764268020925e-015 $349 6.2831853071796013 $211 $350 forward 7 unknown #
loop $-1 $-1 $218 $133 #
plane-surface $-1 23.581274461605048 7.6113957447887515e-007 49.21693904076615 0 0.86602541151947299 0.49999998660252726 1 0 0 forward_v I I I I #
loop $-1 $-1 $351 $85 #
coedge $-1 $216 $216 $217 $352 reversed $134 $-1 #
coedge $-1 $217 $217 $216 $352 forward $136 $-1 #
coedge $-1 $218 $218 $137 $219 forward $213 $-1 #
edge $-1 $353 1.0014764268020925e-015 $353 6.2831853071796013 $218 $354 forward 7 unknown #
face $-1 $355 $356 $48 $-1 $357 forward single #
loop $-1 $-1 $358 $138 #
plane-surface $-1 -33.990561642953807 -74.804940101816982 77.673597612616589 1 0 0 0 0.51503808176128008 -0.85716729658548041 forward_v I I I I #
coedge $-1 $359 $360 $361 $362 reversed $139 $-1 #
coedge $-1 $225 $141 $363 $364 reversed $89 $-1 #
coedge $-1 $141 $224 $359 $365 reversed $89 $-1 #
coedge $-1 $361 $366 $141 $227 forward $356 $-1 #
edge $-1 $367 8.9963828899392517 $368 18.478531600326445 $226 $369 forward 7 unknown #
loop $-1 $-1 $233 $142 #
plane-surface $-1 -27.893287202715108 -28.406087160969243 0.45294005664224812 0 -0.51503808176128008 0.85716729658548041 1 0 0 forward_v I I I I #
loop $-1 $-1 $370 $91 #
coedge $-1 $231 $231 $232 $371 reversed $143 $-1 #
coedge $-1 $232 $232 $231 $371 forward $145 $-1 #
coedge $-1 $233 $233 $146 $234 forward $228 $-1 #
edge $-1 $372 -3.3720742061012724e-016 $372 6.2831853071796004 $233 $373 forward 7 unknown #
face $-1 $374 $375 $50 $-1 $376 reversed single #
loop $-1 $-1 $377 $147 #
plane-surface $-1 -15.395036841143742 -74.804940101816982 77.673597612616589 1 0 0 0 0.51503808176128008 -0.85716729658548041 forward_v I I I I #
coedge $-1 $378 $379 $380 $381 reversed $148 $-1 #
coedge $-1 $240 $150 $382 $383 reversed $95 $-1 #
coedge $-1 $150 $239 $378 $384 reversed $95 $-1 #
coedge $-1 $380 $385 $150 $242 forward $386 $-1 #
edge $-1 $387 8.9963828899392517 $388 18.478531600326445 $241 $389 forward 7 unknown #
loop $-1 $-1 $248 $151 #
plane-surface $-1 -9.297762400905043 -28.406087160969243 0.45294005664224812 0 -0.51503808176128008 0.85716729658548041 1 0 0 forward_v I I I I #
loop $-1 $-1 $390 $97 #
coedge $-1 $246 $246 $247 $391 reversed $152 $-1 #
coedge $-1 $247 $247 $246 $391 forward $154 $-1 #
coedge $-1 $248 $248 $155 $249 forward $243 $-1 #
edge $-1 $392 -3.3720742061012724e-016 $392 6.2831853071796004 $248 $393 forward 7 unknown #
face $-1 $394 $395 $52 $-1 $396 reversed single #
loop $-1 $-1 $397 $156 #
plane-surface $-1 3.2004879606663295 -74.804940101816982 77.673597612616589 1 0 0 0 0.51503808176128008 -0.85716729658548041 forward_v I I I I #
coedge $-1 $398 $399 $400 $401 reversed $157 $-1 #
coedge $-1 $255 $159 $402 $403 reversed $101 $-1 #
coedge $-1 $159 $254 $398 $404 reversed $101 $-1 #
coedge $-1 $400 $405 $159 $257 forward $406 $-1 #
edge $-1 $407 8.9963828899392517 $408 18.478531600326445 $256 $409 forward 7 unknown #
loop $-1 $-1 $263 $160 #
plane-surface $-1 9.2977624009050288 -28.406087160969243 0.45294005664224812 0 -0.51503808176128008 0.85716729658548041 1 0 0 forward_v I I I I #
loop $-1 $-1 $410 $103 #
coedge $-1 $261 $261 $262 $411 reversed $161 $-1 #
coedge $-1 $262 $262 $261 $411 forward $163 $-1 #
coedge $-1 $263 $263 $164 $264 forward $258 $-1 #
edge $-1 $412 -3.3720742061012724e-016 $412 6.2831853071796004 $263 $413 forward 7 unknown #
face $-1 $414 $415 $54 $-1 $416 reversed single #
loop $-1 $-1 $417 $165 #
plane-surface $-1 21.796012762476401 -74.804940101816982 77.673597612616589 1 0 0 0 0.51503808176128008 -0.85716729658548041 forward_v I I I I #
coedge $-1 $418 $419 $420 $421 reversed $166 $-1 #
coedge $-1 $270 $168 $422 $423 reversed $107 $-1 #
coedge $-1 $168 $269 $418 $424 reversed $107 $-1 #
coedge $-1 $420 $425 $168 $272 forward $426 $-1 #
edge $-1 $427 8.9963828899392517 $428 18.478531600326445 $271 $429 forward 7 unknown #
loop $-1 $-1 $278 $169 #
plane-surface $-1 27.893287202715101 -28.406087160969243 0.45294005664224812 0 -0.51503808176128008 0.85716729658548041 1 0 0 forward_v I I I I #
loop $-1 $-1 $430 $109 #
coedge $-1 $276 $276 $277 $431 reversed $170 $-1 #
coedge $-1 $277 $277 $276 $431 forward $172 $-1 #
coedge $-1 $278 $278 $173 $279 forward $273 $-1 #
edge $-1 $432 -3.3720742061012724e-016 $432 6.2831853071796004 $278 $433 forward 7 unknown #
face $-1 $434 $435 $42 $-1 $436 reversed single #
loop $-1 $-1 $437 $174 #
plane-surface $-1 -45.044099246192815 0 0 1 0 0 0 0 -1 forward_v I I I I #
coedge $-1 $438 $291 $439 $440 forward $175 $-1 #
coedge $-1 $441 $177 $438 $442 forward $113 $-1 #
coedge $-1 $177 $441 $443 $444 forward $113 $-1 #
coedge $-1 $294 $293 $177 $287 reversed $295 $-1 #
edge $-1 $445 -28.406087160969239 $446 28.406087160969239 $286 $447 forward 7 unknown #
coedge $-1 $179 $178 $448 $449 forward $71 $-1 #
coedge $-1 $450 $451 $178 $290 reversed $435 $-1 #
edge $-1 $297 -45.044099246192815 $452 45.044099246192815 $289 $453 forward 7 unknown #
coedge $-1 $283 $454 $179 $292 reversed $175 $-1 #
edge $-1 $455 -45.044099246192815 $296 45.044099246192815 $291 $456 forward 7 unknown #
coedge $-1 $286 $180 $454 $457 forward $295 $-1 #
coedge $-1 $180 $286 $450 $458 reversed $295 $-1 #
loop $-1 $-1 $293 $434 #
vertex $-1 $181 $459 #
vertex $-1 $181 $460 #
straight-curve $-1 45.044099246192815 0 6.1503899036290282 0 1 0 I I #
face $-1 $461 $462 $43 $-1 $463 reversed single #
loop $-1 $-1 $464 $182 #
plane-surface $-1 -45.044099246192815 0 0 1 0 0 0 0 -1 forward_v I I I I #
coedge $-1 $310 $465 $304 $466 forward $183 $-1 #
coedge $-1 $188 $185 $467 $468 reversed $117 $-1 #
coedge $-1 $185 $188 $302 $466 reversed $117 $-1 #
coedge $-1 $469 $470 $185 $306 forward $471 $-1 #
edge $-1 $472 -6.1503899036290282 $473 6.1503899036290282 $305 $474 forward 7 unknown #
coedge $-1 $187 $186 $464 $475 reversed $74 $-1 #
coedge $-1 $467 $476 $186 $309 forward $462 $-1 #
edge $-1 $477 -24.237976872485838 $313 -17.374267874928115 $308 $478 forward 7 unknown #
coedge $-1 $479 $302 $187 $311 forward $183 $-1 #
edge $-1 $312 17.374267874928115 $480 24.237976872485838 $310 $481 forward 7 unknown #
vertex $-1 $311 $482 #
vertex $-1 $309 $483 #
straight-curve $-1 -38.180390248635092 -24.749939671823807 0 0 0 -1 I I #
face $-1 $484 $485 $44 $-1 $486 reversed single #
loop $-1 $-1 $487 $190 #
plane-surface $-1 0 -28.406087160969239 0 0 1 0 0 0 1 forward_v I I I I #
coedge $-1 $326 $488 $320 $489 forward $191 $-1 #
coedge $-1 $196 $193 $490 $491 reversed $121 $-1 #
coedge $-1 $193 $196 $318 $489 reversed $121 $-1 #
coedge $-1 $492 $493 $193 $322 forward $494 $-1 #
edge $-1 $495 -6.1503899036290282 $496 6.1503899036290282 $321 $497 forward 7 unknown #
coedge $-1 $195 $194 $487 $498 reversed $77 $-1 #
coedge $-1 $490 $499 $194 $325 forward $485 $-1 #
edge $-1 $500 -15.117080452770978 $329 -11.460932963625545 $324 $501 forward 7 unknown #
coedge $-1 $502 $318 $195 $327 forward $191 $-1 #
edge $-1 $328 11.460932963625545 $503 15.117080452770978 $326 $504 forward 7 unknown #
vertex $-1 $327 $505 #
vertex $-1 $325 $506 #
straight-curve $-1 38.180390248635092 -24.749939671823807 0 0 0 -1 I I #
face $-1 $-1 $343 $45 $-1 $507 forward single #
loop $-1 $-1 $508 $198 #
plane-surface $-1 0 28.406087160969239 0 0 -1 0 0 0 -1 forward_v I I I I #
coedge $-1 $509 $510 $511 $512 reversed $199 $-1 #
coedge $-1 $513 $201 $203 $341 forward $125 $-1 #
coedge $-1 $201 $513 $509 $514 forward $125 $-1 #
coedge $-1 $511 $204 $201 $338 forward $343 $-1 #
edge $-1 $345 6.4277646419374186 $515 17.153509819667629 $337 $516 forward 7 unknown #
coedge $-1 $517 $518 $202 $340 forward $332 $-1 #
edge $-1 $519 -47.11436614570902 $344 -40.980128636373365 $339 $520 forward 7 unknown #
edge $-1 $345 49.728967030627082 $519 56.812174321938443 $203 $521 forward 7 unknown #
coedge $-1 $204 $511 $517 $522 forward $343 $-1 #
loop $-1 $-1 $511 $331 #
vertex $-1 $340 $523 #
vertex $-1 $205 $524 #
straight-curve $-1 18.218401872739943 39.009334966777899 6.1503899036290264 0 -1 0 I I #
coedge $-1 $347 $347 $-1 $525 reversed $208 $-1 #
edge $-1 $526 0 $526 6.2831853071796004 $209 $527 forward 7 unknown #
vertex $-1 $212 $528 #
ellipse-curve $-1 21.282900494948578 26.635285385589942 3.0832711489611921 0 0.86602541151947299 0.49999998660252726 1.5 0 0 1 I I #
coedge $-1 $351 $351 $-1 $529 reversed $215 $-1 #
edge $-1 $530 0 $530 6.2831853071796004 $216 $531 forward 7 unknown #
vertex $-1 $219 $532 #
ellipse-curve $-1 25.879648428261532 26.635285385589942 3.0832711489611921 0 0.86602541151947299 0.49999998660252726 1.5 0 0 1 I I #
face $-1 $-1 $533 $48 $-1 $534 reversed single #
loop $-1 $-1 $226 $220 #
plane-surface $-1 0 0 6.1503899036290282 0 0 1 1 0 0 forward_v I I I I #
coedge $-1 $535 $536 $537 $538 reversed $221 $-1 #
coedge $-1 $539 $223 $225 $365 forward $139 $-1 #
coedge $-1 $223 $539 $535 $540 forward $139 $-1 #
coedge $-1 $537 $226 $223 $362 forward $356 $-1 #
edge $-1 $368 7.8493691611188545 $541 20.043918041596253 $361 $542 forward 7 unknown #
coedge $-1 $543 $544 $224 $364 forward $533 $-1 #
edge $-1 $545 -38.383858749666047 $367 -32.686408902679268 $363 $546 forward 7 unknown #
edge $-1 $368 -11.062191416027263 $545 -4.1317035397669616e-015 $225 $547 forward 7 unknown #
coedge $-1 $226 $537 $543 $548 forward $356 $-1 #
vertex $-1 $364 $549 #
vertex $-1 $227 $550 #
straight-curve $-1 -21.796012762476408 -37.402470050908491 6.1503899036290264 0 1 0 I I #
coedge $-1 $370 $370 $-1 $551 reversed $230 $-1 #
edge $-1 $552 0 $552 6.2831853071796004 $231 $553 forward 7 unknown #
vertex $-1 $234 $554 #
ellipse-curve $-1 -27.893287202715108 -23.665012805775639 3.3016649801356412 0 -0.51503808176128008 0.85716729658548041 2.5 0 0 1 I I #
face $-1 $-1 $386 $50 $-1 $555 forward single #
loop $-1 $-1 $556 $235 #
plane-surface $-1 0 -28.406087160969239 0 0 1 0 0 0 1 forward_v I I I I #
coedge $-1 $557 $558 $559 $560 reversed $236 $-1 #
coedge $-1 $561 $238 $240 $384 forward $148 $-1 #
coedge $-1 $238 $561 $557 $562 forward $148 $-1 #
coedge $-1 $559 $241 $238 $381 forward $386 $-1 #
edge $-1 $388 -1.4483932397861778 $563 10.746155640691221 $380 $564 forward 7 unknown #
coedge $-1 $565 $566 $239 $383 forward $375 $-1 #
edge $-1 $567 -38.383858749666047 $387 -32.686408902679268 $382 $568 forward 7 unknown #
edge $-1 $388 -11.062191416027263 $567 -4.1317035397669616e-015 $240 $569 forward 7 unknown #
coedge $-1 $241 $559 $565 $570 forward $386 $-1 #
loop $-1 $-1 $559 $374 #
vertex $-1 $383 $571 #
vertex $-1 $242 $572 #
straight-curve $-1 -3.2004879606663437 -37.402470050908491 6.1503899036290264 0 1 0 I I #
coedge $-1 $390 $390 $-1 $573 reversed $245 $-1 #
edge $-1 $574 0 $574 6.2831853071796004 $246 $575 forward 7 unknown #
vertex $-1 $249 $576 #
ellipse-curve $-1 -9.297762400905043 -23.665012805775639 3.3016649801356412 0 -0.51503808176128008 0.85716729658548041 2.5 0 0 1 I I #
face $-1 $-1 $406 $52 $-1 $577 forward single #
loop $-1 $-1 $578 $250 #
plane-surface $-1 0 -28.406087160969239 0 0 1 0 0 0 1 forward_v I I I I #
coedge $-1 $579 $580 $581 $582 reversed $251 $-1 #
coedge $-1 $583 $253 $255 $404 forward $157 $-1 #
coedge $-1 $253 $583 $579 $584 forward $157 $-1 #
coedge $-1 $581 $256 $253 $401 forward $406 $-1 #
edge $-1 $408 -10.746155640691214 $585 1.4483932397861849 $400 $586 forward 7 unknown #
coedge $-1 $587 $588 $254 $403 forward $395 $-1 #
edge $-1 $589 -38.383858749666047 $407 -32.686408902679268 $402 $590 forward 7 unknown #
edge $-1 $408 -11.062191416027263 $589 -4.1317035397669616e-015 $255 $591 forward 7 unknown #
coedge $-1 $256 $581 $587 $592 forward $406 $-1 #
loop $-1 $-1 $581 $394 #
vertex $-1 $403 $593 #
vertex $-1 $257 $594 #
straight-curve $-1 15.395036841143728 -37.402470050908491 6.1503899036290264 0 1 0 I I #
coedge $-1 $410 $410 $-1 $595 reversed $260 $-1 #
edge $-1 $596 0 $596 6.2831853071796004 $261 $597 forward 7 unknown #
vertex $-1 $264 $598 #
ellipse-curve $-1 9.2977624009050288 -23.665012805775639 3.3016649801356412 0 -0.51503808176128008 0.85716729658548041 2.5 0 0 1 I I #
face $-1 $-1 $426 $54 $-1 $599 forward single #
loop $-1 $-1 $600 $265 #
plane-surface $-1 0 -28.406087160969239 0 0 1 0 0 0 1 forward_v I I I I #
coedge $-1 $601 $602 $603 $604 reversed $266 $-1 #
coedge $-1 $605 $268 $270 $424 forward $166 $-1 #
coedge $-1 $268 $605 $601 $606 forward $166 $-1 #
coedge $-1 $603 $271 $268 $421 forward $426 $-1 #
edge $-1 $428 -20.04391804159625 $607 -7.849369161118851 $420 $608 forward 7 unknown #
coedge $-1 $609 $610 $269 $423 forward $415 $-1 #
edge $-1 $611 -38.383858749666047 $427 -32.686408902679268 $422 $612 forward 7 unknown #
edge $-1 $428 -11.062191416027263 $611 -4.1317035397669616e-015 $270 $613 forward 7 unknown #
coedge $-1 $271 $603 $609 $614 forward $426 $-1 #
loop $-1 $-1 $603 $414 #
vertex $-1 $423 $615 #
vertex $-1 $272 $616 #
straight-curve $-1 33.9905616429538 -37.402470050908491 6.1503899036290264 0 1 0 I I #
coedge $-1 $430 $430 $-1 $617 reversed $275 $-1 #
edge $-1 $618 0 $618 6.2831853071796004 $276 $619 forward 7 unknown #
vertex $-1 $279 $620 #
ellipse-curve $-1 27.893287202715101 -23.665012805775639 3.3016649801356412 0 -0.51503808176128008 0.85716729658548041 2.5 0 0 1 I I #
face $-1 $-1 $295 $42 $-1 $621 reversed single #
loop $-1 $-1 $450 $280 #
plane-surface $-1 0 28.406087160969239 0 0 -1 0 0 0 -1 forward_v I I I I #
coedge $-1 $622 $448 $451 $623 forward $281 $-1 #
coedge $-1 $454 $283 $284 $442 reversed $175 $-1 #
coedge $-1 $448 $622 $283 $440 reversed $281 $-1 #
edge $-1 $455 -6.1503899036290282 $624 6.1503899036290282 $439 $625 forward 7 unknown #
coedge $-1 $285 $284 $622 $626 forward $113 $-1 #
edge $-1 $446 -45.044099246192815 $624 45.044099246192815 $438 $627 forward 7 unknown #
coedge $-1 $451 $450 $285 $444 reversed $435 $-1 #
edge $-1 $628 -45.044099246192815 $445 45.044099246192815 $443 $629 forward 7 unknown #
vertex $-1 $287 $630 #
vertex $-1 $457 $631 #
straight-curve $-1 45.044099246192815 0 -6.1503899036290282 0 -1 0 I I #
coedge $-1 $437 $439 $288 $449 reversed $281 $-1 #
edge $-1 $452 -28.406087160969239 $455 28.406087160969239 $448 $632 forward 7 unknown #
coedge $-1 $443 $289 $294 $458 forward $435 $-1 #
coedge $-1 $289 $443 $437 $623 reversed $435 $-1 #
vertex $-1 $290 $633 #
straight-curve $-1 0 28.406087160969239 6.1503899036290282 -1 0 0 I I #
coedge $-1 $291 $438 $293 $457 reversed $175 $-1 #
vertex $-1 $449 $634 #
straight-curve $-1 0 -28.406087160969239 6.1503899036290282 1 0 0 I I #
edge $-1 $296 -6.1503899036290282 $446 6.1503899036290282 $293 $635 forward 7 unknown #
edge $-1 $297 -6.1503899036290282 $445 6.1503899036290282 $294 $636 forward 7 unknown #
point $-1 45.044099246192815 -28.406087160969239 6.1503899036290282 #
point $-1 45.044099246192815 28.406087160969239 6.1503899036290282 #
face $-1 $-1 $471 $43 $-1 $637 reversed single #
loop $-1 $-1 $467 $299 #
plane-surface $-1 0 0 -6.1503899036290282 0 0 1 1 0 0 forward_v I I I I #
coedge $-1 $638 $639 $307 $475 forward $300 $-1 #
coedge $-1 $302 $479 $469 $640 forward $183 $-1 #
edge $-1 $473 -15.117080452770978 $312 -11.460932963625545 $302 $641 forward 7 unknown #
coedge $-1 $642 $308 $303 $468 forward $462 $-1 #
edge $-1 $313 11.460932963625545 $472 15.117080452770978 $467 $643 forward 7 unknown #
coedge $-1 $644 $305 $465 $640 reversed $471 $-1 #
coedge $-1 $305 $644 $642 $645 reversed $471 $-1 #
loop $-1 $-1 $305 $461 #
vertex $-1 $645 $646 #
vertex $-1 $306 $647 #
straight-curve $-1 -38.180390248635092 -28.406087160969239 0 0 0 1 I I #
edge $-1 $480 -6.1503899036290282 $477 6.1503899036290282 $464 $648 forward 7 unknown #
coedge $-1 $308 $642 $638 $649 forward $462 $-1 #
vertex $-1 $309 $650 #
straight-curve $-1 -20.806122373706977 -24.749939671823807 -6.1503899036290282 1 0 0 I I #
coedge $-1 $465 $310 $639 $651 forward $183 $-1 #
vertex $-1 $651 $652 #
straight-curve $-1 -20.806122373706977 -24.749939671823807 6.1503899036290282 -1 0 0 I I #
point $-1 -38.180390248635092 -24.749939671823807 6.1503899036290282 #
point $-1 -38.180390248635092 -24.749939671823807 -6.1503899036290282 #
face $-1 $-1 $494 $44 $-1 $653 reversed single #
loop $-1 $-1 $490 $315 #
plane-surface $-1 0 0 -6.1503899036290282 0 0 1 1 0 0 forward_v I I I I #
coedge $-1 $654 $655 $323 $498 forward $316 $-1 #
coedge $-1 $318 $502 $492 $656 forward $191 $-1 #
edge $-1 $496 -24.237976872485838 $328 -17.374267874928115 $318 $657 forward 7 unknown #
coedge $-1 $658 $324 $319 $491 forward $485 $-1 #
edge $-1 $329 17.374267874928115 $495 24.237976872485838 $490 $659 forward 7 unknown #
coedge $-1 $660 $321 $488 $656 reversed $494 $-1 #
coedge $-1 $321 $660 $658 $661 reversed $494 $-1 #
loop $-1 $-1 $321 $484 #
vertex $-1 $661 $662 #
vertex $-1 $322 $663 #
straight-curve $-1 45.044099246192815 -24.749939671823807 0 0 0 1 I I #
edge $-1 $503 -6.1503899036290282 $500 6.1503899036290282 $487 $664 forward 7 unknown #
coedge $-1 $324 $658 $654 $665 forward $485 $-1 #
vertex $-1 $325 $666 #
straight-curve $-1 38.180390248635092 -13.289006708198261 -6.1503899036290282 0 1 0 I I #
coedge $-1 $488 $326 $655 $667 forward $191 $-1 #
vertex $-1 $667 $668 #
straight-curve $-1 38.180390248635092 -13.289006708198261 6.1503899036290282 0 -1 0 I I #
point $-1 38.180390248635092 -24.749939671823807 6.1503899036290282 #
point $-1 38.180390248635092 -24.749939671823807 -6.1503899036290282 #
plane-surface $-1 0 0 6.1503899036290282 0 0 1 1 0 0 forward_v I I I I #
coedge $-1 $518 $517 $510 $669 forward $332 $-1 #
coedge $-1 $510 $334 $336 $514 reversed $199 $-1 #
coedge $-1 $334 $509 $508 $669 reversed $199 $-1 #
coedge $-1 $342 $337 $334 $512 forward $343 $-1 #
edge $-1 $515 -14.144851356567266 $670 -10.60324780580866 $511 $671 forward 7 unknown #
coedge $-1 $336 $335 $518 $672 reversed $125 $-1 #
edge $-1 $673 -56.812174321938443 $515 -49.728967030627082 $509 $674 forward 7 unknown #
vertex $-1 $338 $675 #
straight-curve $-1 11.790637230802524 24.864483610210637 6.1503899036290228 1 0 0 I I #
coedge $-1 $508 $339 $342 $522 reversed $332 $-1 #
coedge $-1 $339 $508 $513 $672 forward $332 $-1 #
vertex $-1 $340 $676 #
straight-curve $-1 18.218401872739943 28.406087160969239 47.130518540002392 0 0 1 I I #
straight-curve $-1 18.218401872739943 7.6113957447887515e-007 49.21693904076615 0 0.49999998660252726 -0.86602541151947299 I I #
edge $-1 $670 -28.944147050470153 $344 -18.218401872739943 $517 $677 forward 7 unknown #
point $-1 18.218401872739943 28.406087160969239 6.1503899036290282 #
point $-1 18.218401872739943 24.864483610210634 6.1503899036290264 #
edge $-1 $678 1 $678 0 $347 $-1 forward 7 unknown #
vertex $-1 $348 $679 #
ellipse-curve $-1 21.282900494948578 23.546169808991639 1.299769502972735 0 0.86602541151947299 0.49999998660252726 1.5 0 0 1 I I #
point $-1 22.782900494948578 26.635285385589924 3.0832711489611802 #
edge $-1 $680 1 $680 0 $351 $-1 forward 7 unknown #
vertex $-1 $352 $681 #
ellipse-curve $-1 25.879648428261532 23.546169808991639 1.299769502972735 0 0.86602541151947299 0.49999998660252726 1.5 0 0 1 I I #
point $-1 27.379648428261532 26.635285385589924 3.0832711489611802 #
loop $-1 $-1 $363 $355 #
plane-surface $-1 0 -28.406087160969239 0 0 1 0 0 0 1 forward_v I I I I #
coedge $-1 $536 $358 $360 $540 reversed $221 $-1 #
coedge $-1 $358 $535 $682 $683 reversed $221 $-1 #
coedge $-1 $366 $361 $358 $538 forward $356 $-1 #
edge $-1 $541 -18.478531600326445 $684 -8.9963828899392517 $537 $685 forward 7 unknown #
coedge $-1 $360 $359 $544 $686 reversed $139 $-1 #
edge $-1 $687 4.1317035397669616e-015 $541 11.062191416027263 $535 $688 forward 7 unknown #
vertex $-1 $362 $689 #
straight-curve $-1 -13.946643601357554 -18.923938450582042 6.1503899036290282 -1 0 0 I I #
coedge $-1 $682 $363 $366 $548 reversed $533 $-1 #
coedge $-1 $363 $682 $539 $686 forward $533 $-1 #
vertex $-1 $364 $690 #
straight-curve $-1 -21.796012762476408 -28.406087160969239 38.836798806308295 0 0 1 I I #
straight-curve $-1 -21.796012762476408 -28.406087160969243 0.45294005664224812 0 -0.85716729658548041 -0.51503808176128008 I I #
edge $-1 $684 -33.990561642953807 $367 -21.796012762476408 $543 $691 forward 7 unknown #
point $-1 -21.796012762476408 -28.406087160969239 6.1503899036290282 #
point $-1 -21.796012762476408 -18.923938450582046 6.1503899036290282 #
edge $-1 $692 1 $692 0 $370 $-1 forward 7 unknown #
vertex $-1 $371 $693 #
ellipse-curve $-1 -27.893287202715108 -19.306357449093518 -3.9523555692937844 0 -0.51503808176128008 0.85716729658548041 2.5 0 0 1 I I #
point $-1 -25.393287202715108 -23.665012805775635 3.3016649801356337 #
plane-surface $-1 0 0 6.1503899036290282 0 0 1 1 0 0 forward_v I I I I #
coedge $-1 $566 $565 $558 $694 forward $375 $-1 #
coedge $-1 $558 $377 $379 $562 reversed $236 $-1 #
coedge $-1 $377 $557 $556 $694 reversed $236 $-1 #
coedge $-1 $385 $380 $377 $560 forward $386 $-1 #
edge $-1 $563 -18.478531600326445 $695 -8.9963828899392517 $559 $696 forward 7 unknown #
coedge $-1 $379 $378 $566 $697 reversed $148 $-1 #
edge $-1 $698 4.1317035397669616e-015 $563 11.062191416027263 $557 $699 forward 7 unknown #
vertex $-1 $381 $700 #
straight-curve $-1 -4.6488812004525215 -18.923938450582042 6.1503899036290282 -1 0 0 I I #
coedge $-1 $556 $382 $385 $570 reversed $375 $-1 #
coedge $-1 $382 $556 $561 $697 forward $375 $-1 #
vertex $-1 $383 $701 #
straight-curve $-1 -3.2004879606663437 -28.406087160969239 38.836798806308295 0 0 1 I I #
straight-curve $-1 -3.2004879606663437 -28.406087160969243 0.45294005664224812 0 -0.85716729658548041 -0.51503808176128008 I I #
edge $-1 $695 -15.395036841143742 $387 -3.2004879606663437 $565 $702 forward 7 unknown #
point $-1 -3.2004879606663437 -28.406087160969239 6.1503899036290282 #
point $-1 -3.2004879606663437 -18.923938450582046 6.1503899036290282 #
edge $-1 $703 1 $703 0 $390 $-1 forward 7 unknown #
vertex $-1 $391 $704 #
ellipse-curve $-1 -9.297762400905043 -19.306357449093518 -3.9523555692937844 0 -0.51503808176128008 0.85716729658548041 2.5 0 0 1 I I #
point $-1 -6.797762400905043 -23.665012805775635 3.3016649801356337 #
plane-surface $-1 0 0 6.1503899036290282 0 0 1 1 0 0 forward_v I I I I #
coedge $-1 $588 $587 $580 $705 forward $395 $-1 #
coedge $-1 $580 $397 $399 $584 reversed $251 $-1 #
coedge $-1 $397 $579 $578 $705 reversed $251 $-1 #
coedge $-1 $405 $400 $397 $582 forward $406 $-1 #
edge $-1 $585 -18.478531600326445 $706 -8.9963828899392517 $581 $707 forward 7 unknown #
coedge $-1 $399 $398 $588 $708 reversed $157 $-1 #
edge $-1 $709 4.1317035397669616e-015 $585 11.062191416027263 $579 $710 forward 7 unknown #
vertex $-1 $401 $711 #
straight-curve $-1 4.6488812004525144 -18.923938450582042 6.1503899036290282 -1 0 0 I I #
coedge $-1 $578 $402 $405 $592 reversed $395 $-1 #
coedge $-1 $402 $578 $583 $708 forward $395 $-1 #
vertex $-1 $403 $712 #
straight-curve $-1 15.395036841143728 -28.406087160969239 38.836798806308295 0 0 1 I I #
straight-curve $-1 15.395036841143728 -28.406087160969243 0.45294005664224812 0 -0.85716729658548041 -0.51503808176128008 I I #
edge $-1 $706 3.2004879606663295 $407 15.395036841143728 $587 $713 forward 7 unknown #
point $-1 15.395036841143728 -28.406087160969239 6.1503899036290282 #
point $-1 15.395036841143728 -18.923938450582046 6.1503899036290282 #
edge $-1 $714 1 $714 0 $410 $-1 forward 7 unknown #
vertex $-1 $411 $715 #
ellipse-curve $-1 9.2977624009050288 -19.306357449093518 -3.9523555692937844 0 -0.51503808176128008 0.85716729658548041 2.5 0 0 1 I I #
point $-1 11.797762400905029 -23.665012805775635 3.3016649801356337 #
plane-surface $-1 0 0 6.1503899036290282 0 0 1 1 0 0 forward_v I I I I #
coedge $-1 $610 $609 $602 $716 forward $415 $-1 #
coedge $-1 $602 $417 $419 $606 reversed $266 $-1 #
coedge $-1 $417 $601 $600 $716 reversed $266 $-1 #
coedge $-1 $425 $420 $417 $604 forward $426 $-1 #
edge $-1 $607 -18.478531600326445 $717 -8.9963828899392517 $603 $718 forward 7 unknown #
coedge $-1 $419 $418 $610 $719 reversed $166 $-1 #
edge $-1 $720 4.1317035397669616e-015 $607 11.062191416027263 $601 $721 forward 7 unknown #
vertex $-1 $421 $722 #
straight-curve $-1 13.94664360135755 -18.923938450582042 6.1503899036290282 -1 0 0 I I #
coedge $-1 $600 $422 $425 $614 reversed $415 $-1 #
coedge $-1 $422 $600 $605 $719 forward $415 $-1 #
vertex $-1 $423 $723 #
straight-curve $-1 33.9905616429538 -28.406087160969239 38.836798806308295 0 0 1 I I #
straight-curve $-1 33.9905616429538 -28.406087160969243 0.45294005664224812 0 -0.85716729658548041 -0.51503808176128008 I I #
edge $-1 $717 21.796012762476401 $427 33.9905616429538 $609 $724 forward 7 unknown #
point $-1 33.9905616429538 -28.406087160969239 6.1503899036290282 #
point $-1 33.9905616429538 -18.923938450582046 6.1503899036290282 #
edge $-1 $725 1 $725 0 $430 $-1 forward 7 unknown #
vertex $-1 $431 $726 #
ellipse-curve $-1 27.893287202715101 -19.306357449093518 -3.9523555692937844 0 -0.51503808176128008 0.85716729658548041 2.5 0 0 1 I I #
point $-1 30.393287202715101 -23.665012805775635 3.3016649801356337 #
plane-surface $-1 45.044099246192815 0 0 -1 0 0 0 0 1 forward_v I I I I #
coedge $-1 $439 $437 $441 $626 reversed $281 $-1 #
edge $-1 $452 -6.1503899036290282 $628 6.1503899036290282 $451 $727 forward 7 unknown #
vertex $-1 $626 $728 #
straight-curve $-1 -45.044099246192815 -28.406087160969239 0 0 0 -1 I I #
edge $-1 $624 -28.406087160969239 $628 28.406087160969239 $622 $729 forward 7 unknown #
straight-curve $-1 0 -28.406087160969239 -6.1503899036290282 -1 0 0 I I #
vertex $-1 $444 $730 #
straight-curve $-1 0 28.406087160969239 -6.1503899036290282 1 0 0 I I #
point $-1 45.044099246192815 28.406087160969239 -6.1503899036290282 #
point $-1 45.044099246192815 -28.406087160969239 -6.1503899036290282 #
straight-curve $-1 -45.044099246192815 0 6.1503899036290282 0 -1 0 I I #
point $-1 -45.044099246192815 28.406087160969239 6.1503899036290282 #
point $-1 -45.044099246192815 -28.406087160969239 6.1503899036290282 #
straight-curve $-1 45.044099246192815 -28.406087160969239 0 0 0 -1 I I #
straight-curve $-1 45.044099246192815 28.406087160969239 0 0 0 -1 I I #
plane-surface $-1 0 -28.406087160969239 0 0 1 0 0 0 1 forward_v I I I I #
coedge $-1 $731 $464 $476 $649 reversed $300 $-1 #
coedge $-1 $464 $731 $479 $651 reversed $300 $-1 #
edge $-1 $732 -45.044099246192815 $473 -38.180390248635092 $469 $733 forward 7 unknown #
straight-curve $-1 -38.180390248635092 -13.289006708198261 6.1503899036290282 0 1 0 I I #
coedge $-1 $476 $467 $470 $645 forward $462 $-1 #
straight-curve $-1 -38.180390248635092 -13.289006708198261 -6.1503899036290282 0 -1 0 I I #
coedge $-1 $470 $469 $731 $734 forward $471 $-1 #
edge $-1 $472 38.180390248635092 $735 45.044099246192815 $470 $736 forward 7 unknown #
point $-1 -38.180390248635092 -28.406087160969239 -6.1503899036290282 #
point $-1 -38.180390248635092 -28.406087160969239 6.1503899036290282 #
straight-curve $-1 -45.044099246192815 -24.749939671823807 0 0 0 -1 I I #
edge $-1 $735 -28.406087160969239 $477 -24.749939671823807 $638 $737 forward 7 unknown #
point $-1 -45.044099246192815 -24.749939671823807 -6.1503899036290282 #
edge $-1 $480 24.749939671823807 $732 28.406087160969239 $639 $738 forward 7 unknown #
point $-1 -45.044099246192815 -24.749939671823807 6.1503899036290282 #
plane-surface $-1 45.044099246192815 0 0 -1 0 0 0 0 1 forward_v I I I I #
coedge $-1 $739 $487 $499 $665 reversed $316 $-1 #
coedge $-1 $487 $739 $502 $667 reversed $316 $-1 #
edge $-1 $740 -28.406087160969239 $496 -24.749939671823807 $492 $741 forward 7 unknown #
straight-curve $-1 20.806122373706977 -24.749939671823807 6.1503899036290282 -1 0 0 I I #
coedge $-1 $499 $490 $493 $661 forward $485 $-1 #
straight-curve $-1 20.806122373706977 -24.749939671823807 -6.1503899036290282 1 0 0 I I #
coedge $-1 $493 $492 $739 $742 forward $494 $-1 #
edge $-1 $495 24.749939671823807 $743 28.406087160969239 $493 $744 forward 7 unknown #
point $-1 45.044099246192815 -24.749939671823807 -6.1503899036290282 #
point $-1 45.044099246192815 -24.749939671823807 6.1503899036290282 #
straight-curve $-1 38.180390248635092 -28.406087160969239 0 0 0 -1 I I #
edge $-1 $743 -45.044099246192815 $500 -38.180390248635092 $654 $745 forward 7 unknown #
point $-1 38.180390248635092 -28.406087160969239 -6.1503899036290282 #
edge $-1 $503 38.180390248635092 $740 45.044099246192815 $655 $746 forward 7 unknown #
point $-1 38.180390248635092 -28.406087160969239 6.1503899036290282 #
edge $-1 $670 40.980128636373365 $673 47.11436614570902 $508 $747 forward 7 unknown #
vertex $-1 $522 $748 #
straight-curve $-1 28.944147050470153 39.009334966777899 6.1503899036290264 0 1 0 I I #
edge $-1 $673 -17.153509819667629 $519 -6.4277646419374186 $518 $749 forward 7 unknown #
vertex $-1 $672 $750 #
straight-curve $-1 28.944147050470153 7.6113957447887515e-007 49.21693904076615 0 -0.49999998660252726 0.86602541151947299 I I #
point $-1 28.944147050470153 24.864483610210634 6.1503899036290264 #
point $-1 18.218401872739943 28.406087160969239 0.016152394293371231 #
straight-curve $-1 0 28.406087160969239 6.1503899036290282 -1 0 0 I I #
vertex $-1 $525 $751 #
point $-1 22.782900494948578 23.546169808991639 1.299769502972735 #
vertex $-1 $529 $752 #
point $-1 27.379648428261532 23.546169808991639 1.299769502972735 #
coedge $-1 $544 $543 $536 $683 forward $533 $-1 #
edge $-1 $684 32.686408902679268 $687 38.383858749666047 $682 $753 forward 7 unknown #
vertex $-1 $548 $754 #
straight-curve $-1 -33.990561642953807 -37.402470050908491 6.1503899036290264 0 -1 0 I I #
edge $-1 $687 -20.043918041596253 $545 -7.8493691611188545 $544 $755 forward 7 unknown #
vertex $-1 $686 $756 #
straight-curve $-1 -33.990561642953807 -28.406087160969243 0.45294005664224812 0 0.85716729658548041 0.51503808176128008 I I #
point $-1 -33.990561642953807 -18.923938450582046 6.1503899036290282 #
point $-1 -21.796012762476408 -28.406087160969239 0.45294005664225023 #
straight-curve $-1 0 -28.406087160969239 6.1503899036290282 1 0 0 I I #
vertex $-1 $551 $757 #
point $-1 -25.393287202715108 -19.306357449093518 -3.9523555692937844 #
edge $-1 $695 32.686408902679268 $698 38.383858749666047 $556 $758 forward 7 unknown #
vertex $-1 $570 $759 #
straight-curve $-1 -15.395036841143742 -37.402470050908491 6.1503899036290264 0 -1 0 I I #
edge $-1 $698 -10.746155640691221 $567 1.4483932397861778 $566 $760 forward 7 unknown #
vertex $-1 $697 $761 #
straight-curve $-1 -15.395036841143742 -28.406087160969243 0.45294005664224812 0 0.85716729658548041 0.51503808176128008 I I #
point $-1 -15.395036841143742 -18.923938450582046 6.1503899036290282 #
point $-1 -3.2004879606663437 -28.406087160969239 0.45294005664225023 #
straight-curve $-1 0 -28.406087160969239 6.1503899036290282 1 0 0 I I #
vertex $-1 $573 $762 #
point $-1 -6.797762400905043 -19.306357449093518 -3.9523555692937844 #
edge $-1 $706 32.686408902679268 $709 38.383858749666047 $578 $763 forward 7 unknown #
vertex $-1 $592 $764 #
straight-curve $-1 3.2004879606663295 -37.402470050908491 6.1503899036290264 0 -1 0 I I #
edge $-1 $709 -1.4483932397861849 $589 10.746155640691214 $588 $765 forward 7 unknown #
vertex $-1 $708 $766 #
straight-curve $-1 3.2004879606663295 -28.406087160969243 0.45294005664224812 0 0.85716729658548041 0.51503808176128008 I I #
point $-1 3.2004879606663295 -18.923938450582046 6.1503899036290282 #
point $-1 15.395036841143728 -28.406087160969239 0.45294005664225023 #
straight-curve $-1 0 -28.406087160969239 6.1503899036290282 1 0 0 I I #
vertex $-1 $595 $767 #
point $-1 11.797762400905029 -19.306357449093518 -3.9523555692937844 #
edge $-1 $717 32.686408902679268 $720 38.383858749666047 $600 $768 forward 7 unknown #
vertex $-1 $614 $769 #
straight-curve $-1 21.796012762476401 -37.402470050908491 6.1503899036290264 0 -1 0 I I #
edge $-1 $720 7.849369161118851 $611 20.04391804159625 $610 $770 forward 7 unknown #
vertex $-1 $719 $771 #
straight-curve $-1 21.796012762476401 -28.406087160969243 0.45294005664224812 0 0.85716729658548041 0.51503808176128008 I I #
point $-1 21.796012762476401 -18.923938450582046 6.1503899036290282 #
point $-1 33.9905616429538 -28.406087160969239 0.45294005664225023 #
straight-curve $-1 0 -28.406087160969239 6.1503899036290282 1 0 0 I I #
vertex $-1 $617 $772 #
point $-1 30.393287202715101 -19.306357449093518 -3.9523555692937844 #
straight-curve $-1 -45.044099246192815 28.406087160969239 0 0 0 -1 I I #
point $-1 -45.044099246192815 -28.406087160969239 -6.1503899036290282 #
straight-curve $-1 -45.044099246192815 0 -6.1503899036290282 0 1 0 I I #
point $-1 -45.044099246192815 28.406087160969239 -6.1503899036290282 #
coedge $-1 $639 $638 $644 $734 reversed $300 $-1 #
vertex $-1 $651 $773 #
straight-curve $-1 0 -28.406087160969239 6.1503899036290282 1 0 0 I I #
edge $-1 $732 -6.1503899036290282 $735 6.1503899036290282 $731 $774 forward 7 unknown #
vertex $-1 $649 $775 #
straight-curve $-1 0 -28.406087160969239 -6.1503899036290282 -1 0 0 I I #
straight-curve $-1 -45.044099246192815 0 -6.1503899036290282 0 1 0 I I #
straight-curve $-1 -45.044099246192815 0 6.1503899036290282 0 -1 0 I I #
coedge $-1 $655 $654 $660 $742 reversed $316 $-1 #
vertex $-1 $656 $776 #
straight-curve $-1 45.044099246192815 0 6.1503899036290282 0 1 0 I I #
edge $-1 $740 -6.1503899036290282 $743 6.1503899036290282 $660 $777 forward 7 unknown #
vertex $-1 $742 $778 #
straight-curve $-1 45.044099246192815 0 -6.1503899036290282 0 -1 0 I I #
straight-curve $-1 0 -28.406087160969239 -6.1503899036290282 -1 0 0 I I #
straight-curve $-1 0 -28.406087160969239 6.1503899036290282 1 0 0 I I #
straight-curve $-1 28.944147050470153 28.406087160969239 47.130518540002392 0 0 -1 I I #
point $-1 28.944147050470153 28.406087160969239 6.1503899036290282 #
straight-curve $-1 11.790637230802524 28.406087160969243 0.016152394293367678 -1 0 0 I I #
point $-1 28.944147050470153 28.406087160969239 0.016152394293371231 #
point $-1 21.282900494948578 22.247131691712429 0.54976952306894411 #
point $-1 25.879648428261532 22.247131691712429 0.54976952306894411 #
straight-curve $-1 -33.990561642953807 -28.406087160969239 38.836798806308295 0 0 -1 I I #
point $-1 -33.990561642953807 -28.406087160969239 6.1503899036290282 #
straight-curve $-1 -13.946643601357554 -28.406087160969239 0.45294005664225151 1 0 0 I I #
point $-1 -33.990561642953807 -28.406087160969239 0.45294005664225023 #
point $-1 -27.893287202715108 -18.018762244690315 -6.0952738107574849 #
straight-curve $-1 -15.395036841143742 -28.406087160969239 38.836798806308295 0 0 -1 I I #
point $-1 -15.395036841143742 -28.406087160969239 6.1503899036290282 #
straight-curve $-1 -4.6488812004525215 -28.406087160969239 0.45294005664225151 1 0 0 I I #
point $-1 -15.395036841143742 -28.406087160969239 0.45294005664225023 #
point $-1 -9.297762400905043 -18.018762244690315 -6.0952738107574849 #
straight-curve $-1 3.2004879606663295 -28.406087160969239 38.836798806308295 0 0 -1 I I #
point $-1 3.2004879606663295 -28.406087160969239 6.1503899036290282 #
straight-curve $-1 4.6488812004525144 -28.406087160969239 0.45294005664225151 1 0 0 I I #
point $-1 3.2004879606663295 -28.406087160969239 0.45294005664225023 #
point $-1 9.2977624009050288 -18.018762244690315 -6.0952738107574849 #
straight-curve $-1 21.796012762476401 -28.406087160969239 38.836798806308295 0 0 -1 I I #
point $-1 21.796012762476401 -28.406087160969239 6.1503899036290282 #
straight-curve $-1 13.94664360135755 -28.406087160969239 0.45294005664225151 1 0 0 I I #
point $-1 21.796012762476401 -28.406087160969239 0.45294005664225023 #
point $-1 27.893287202715101 -18.018762244690315 -6.0952738107574849 #
point $-1 -45.044099246192815 -28.406087160969239 6.1503899036290282 #
straight-curve $-1 -45.044099246192815 -28.406087160969239 0 0 0 -1 I I #
point $-1 -45.044099246192815 -28.406087160969239 -6.1503899036290282 #
point $-1 45.044099246192815 -28.406087160969239 6.1503899036290282 #
straight-curve $-1 45.044099246192815 -28.406087160969239 0 0 0 -1 I I #
point $-1 45.044099246192815 -28.406087160969239 -6.1503899036290282 #
End-of-ACIS-data 