500 0 6 0           
7 Unknown 11 ACIS 5.0 NT 24 Fri Mar 26 15:17:28 1999 
-1 9.9999999999999995e-007 1e-010 
body $-1 $6 $-1 $7 #
body $-1 $8 $-1 $9 #
body $-1 $10 $-1 $11 #
body $-1 $12 $-1 $13 #
body $-1 $14 $-1 $15 #
body $-1 $16 $-1 $17 #
lump $-1 $-1 $18 $0 #
transform $-1 1 0 0 0 1 0 0 0 1 75.547959837641528 32.891848354862944 9.9867067755015846 1 rotate no_reflect no_shear #
lump $-1 $-1 $19 $1 #
transform $-1 1 0 0 0 1 0 0 0 1 75.547959837641528 32.891848354862944 9.9867067755015846 1 rotate no_reflect no_shear #
lump $-1 $-1 $20 $2 #
transform $-1 1 0 0 0 1 0 0 0 1 75.547959837641528 32.891848354862944 9.9867067755015846 1 rotate no_reflect no_shear #
lump $-1 $-1 $21 $3 #
transform $-1 1 0 0 0 1 0 0 0 1 75.547959837641528 32.891848354862944 9.9867067755015846 1 rotate no_reflect no_shear #
lump $-1 $-1 $22 $4 #
transform $-1 1 0 0 0 1 0 0 0 1 75.547959837641528 32.891848354862944 9.9867067755015846 1 rotate no_reflect no_shear #
lump $-1 $-1 $23 $5 #
transform $-1 1 0 0 0 1 0 0 0 1 75.547959837641528 32.891848354862944 9.9867067755015846 1 rotate no_reflect no_shear #
shell $-1 $-1 $-1 $24 $-1 $6 #
shell $-1 $-1 $-1 $25 $-1 $8 #
shell $-1 $-1 $-1 $26 $-1 $10 #
shell $-1 $-1 $-1 $27 $-1 $12 #
shell $-1 $-1 $-1 $28 $-1 $14 #
shell $-1 $-1 $-1 $29 $-1 $16 #
face $-1 $30 $31 $18 $-1 $32 forward single #
face $-1 $33 $34 $19 $-1 $35 forward single #
face $-1 $36 $37 $20 $-1 $38 reversed single #
face $-1 $39 $40 $21 $-1 $41 forward single #
face $-1 $42 $43 $22 $-1 $44 forward single #
face $-1 $45 $46 $23 $-1 $47 forward single #
face $-1 $48 $49 $18 $-1 $50 reversed single #
loop $-1 $-1 $51 $24 #
plane-surface $-1 0 0 9.9867067755015846 0 0 1 1 0 0 forward_v I I I I #
face $-1 $52 $53 $19 $-1 $54 forward single #
loop $-1 $-1 $55 $25 #
plane-surface $-1 0 -32.891848354862944 0 0 1 0 0 0 1 forward_v I I I I #
face $-1 $56 $57 $20 $-1 $58 reversed single #
loop $-1 $-1 $59 $26 #
plane-surface $-1 57.289825313446983 116.46433036314259 147.82217507223731 1 0 0 0 -0.80901700255871778 -0.5877852410284794 forward_v I I I I #
face $-1 $60 $61 $21 $-1 $62 forward single #
loop $-1 $63 $64 $27 #
cone-surface $-1 60.941452218285875 30.928647912713657 7.5696723391890943 0 -0.80901700255871778 -0.5877852410284794 1 0 0 1 I I 0 1 1 forward I I I I #
face $-1 $65 $66 $22 $-1 $67 forward single #
loop $-1 $68 $69 $28 #
cone-surface $-1 66.418892575544234 30.928647912713657 7.5696723391890943 0 -0.80901700255871778 -0.5877852410284794 1 0 0 1 I I 0 1 1 forward I I I I #
face $-1 $70 $71 $23 $-1 $72 forward single #
loop $-1 $73 $74 $29 #
cone-surface $-1 71.896332932802594 30.928647912713657 7.5696723391890943 0 -0.80901700255871778 -0.5877852410284794 1 0 0 1 I I 0 1 1 forward I I I I #
face $-1 $75 $76 $18 $-1 $77 reversed single #
loop $-1 $-1 $78 $30 #
plane-surface $-1 0 0 -9.9867067755015846 0 0 1 1 0 0 forward_v I I I I #
coedge $-1 $79 $80 $81 $82 forward $31 $-1 #
face $-1 $83 $84 $19 $-1 $85 reversed single #
loop $-1 $-1 $86 $33 #
plane-surface $-1 0 0 9.9867067755015846 0 0 1 1 0 0 forward_v I I I I #
coedge $-1 $87 $88 $89 $90 forward $34 $-1 #
face $-1 $91 $92 $20 $-1 $93 reversed single #
loop $-1 $-1 $94 $36 #
plane-surface $-1 66.418892575544263 -5.7748376714076954 59.0102235074813 0 0.80901700255871778 0.5877852410284794 1 0 0 forward_v I I I I #
coedge $-1 $95 $96 $97 $98 reversed $37 $-1 #
face $-1 $-1 $99 $21 $-1 $100 forward single #
loop $-1 $101 $102 $39 #
cone-surface $-1 60.941452218285875 30.085447614764988 6.9570514810396098 0 -0.80901700255871778 -0.5877852410284794 0.5 0 0 1 I I -0.70710678118654691 0.70710678118654813 0.5 forward I I I I #
loop $-1 $-1 $103 $27 #
coedge $-1 $64 $64 $104 $105 reversed $40 $-1 #
face $-1 $-1 $106 $22 $-1 $107 forward single #
loop $-1 $108 $109 $42 #
cone-surface $-1 66.418892575544234 30.085447614764988 6.9570514810396098 0 -0.80901700255871778 -0.5877852410284794 0.5 0 0 1 I I -0.70710678118654691 0.70710678118654813 0.5 forward I I I I #
loop $-1 $-1 $110 $28 #
coedge $-1 $69 $69 $111 $112 reversed $43 $-1 #
face $-1 $-1 $113 $23 $-1 $114 forward single #
loop $-1 $115 $116 $45 #
cone-surface $-1 71.896332932802594 30.085447614764988 6.9570514810396098 0 -0.80901700255871778 -0.5877852410284794 0.5 0 0 1 I I -0.70710678118654691 0.70710678118654813 0.5 forward I I I I #
loop $-1 $-1 $117 $29 #
coedge $-1 $74 $74 $118 $119 reversed $46 $-1 #
face $-1 $120 $121 $18 $-1 $122 reversed single #
loop $-1 $-1 $123 $48 #
plane-surface $-1 0 -32.891848354862944 0 0 1 0 0 0 1 forward_v I I I I #
coedge $-1 $124 $125 $126 $127 forward $49 $-1 #
coedge $-1 $128 $51 $129 $130 forward $31 $-1 #
coedge $-1 $51 $128 $131 $132 forward $31 $-1 #
coedge $-1 $133 $134 $51 $82 reversed $135 $-1 #
edge $-1 $136 -32.891848354862944 $137 32.891848354862944 $81 $138 forward 7 unknown #
face $-1 $139 $140 $19 $-1 $141 reversed single #
loop $-1 $-1 $142 $52 #
plane-surface $-1 -75.547959837641528 0 0 1 0 0 0 0 -1 forward_v I I I I #
coedge $-1 $143 $144 $145 $146 forward $53 $-1 #
coedge $-1 $145 $55 $142 $147 reversed $34 $-1 #
coedge $-1 $55 $145 $148 $149 reversed $34 $-1 #
coedge $-1 $150 $151 $55 $90 reversed $140 $-1 #
edge $-1 $152 -75.547959837641528 $153 75.547959837641528 $89 $154 forward 7 unknown #
face $-1 $155 $156 $20 $-1 $157 forward single #
loop $-1 $-1 $158 $56 #
plane-surface $-1 75.547959837641528 0 0 -1 0 0 0 0 1 forward_v I I I I #
coedge $-1 $159 $160 $161 $162 reversed $57 $-1 #
coedge $-1 $96 $59 $163 $164 reversed $37 $-1 #
coedge $-1 $59 $95 $159 $165 reversed $37 $-1 #
coedge $-1 $161 $166 $59 $98 forward $156 $-1 #
edge $-1 $167 25.340316826708353 $168 28.389334117668334 $97 $169 forward 7 unknown #
loop $-1 $-1 $104 $60 #
plane-surface $-1 66.418892575544263 -5.7748376714076954 59.0102235074813 0 0.80901700255871778 0.5877852410284794 1 0 0 forward_v I I I I #
loop $-1 $-1 $170 $39 #
coedge $-1 $102 $102 $103 $171 reversed $61 $-1 #
coedge $-1 $103 $103 $102 $171 forward $63 $-1 #
coedge $-1 $104 $104 $64 $105 forward $99 $-1 #
edge $-1 $172 3.140214676602885e-016 $172 6.2831853071796004 $104 $173 forward 7 unknown #
loop $-1 $-1 $111 $65 #
plane-surface $-1 66.418892575544263 -5.7748376714076954 59.0102235074813 0 0.80901700255871778 0.5877852410284794 1 0 0 forward_v I I I I #
loop $-1 $-1 $174 $42 #
coedge $-1 $109 $109 $110 $175 reversed $66 $-1 #
coedge $-1 $110 $110 $109 $175 forward $68 $-1 #
coedge $-1 $111 $111 $69 $112 forward $106 $-1 #
edge $-1 $176 3.140214676602885e-016 $176 6.2831853071796004 $111 $177 forward 7 unknown #
loop $-1 $-1 $118 $70 #
plane-surface $-1 66.418892575544263 -5.7748376714076954 59.0102235074813 0 0.80901700255871778 0.5877852410284794 1 0 0 forward_v I I I I #
loop $-1 $-1 $178 $45 #
coedge $-1 $116 $116 $117 $179 reversed $71 $-1 #
coedge $-1 $117 $117 $116 $179 forward $73 $-1 #
coedge $-1 $118 $118 $74 $119 forward $113 $-1 #
edge $-1 $180 3.140214676602885e-016 $180 6.2831853071796004 $118 $181 forward 7 unknown #
face $-1 $182 $183 $18 $-1 $184 reversed single #
loop $-1 $-1 $185 $75 #
plane-surface $-1 -75.547959837641528 0 0 1 0 0 0 0 -1 forward_v I I I I #
coedge $-1 $186 $131 $187 $188 forward $76 $-1 #
coedge $-1 $189 $78 $186 $190 forward $49 $-1 #
coedge $-1 $78 $189 $191 $192 forward $49 $-1 #
coedge $-1 $134 $133 $78 $127 reversed $135 $-1 #
edge $-1 $193 -32.891848354862944 $194 32.891848354862944 $126 $195 forward 7 unknown #
coedge $-1 $80 $79 $196 $197 forward $31 $-1 #
coedge $-1 $198 $199 $79 $130 reversed $183 $-1 #
edge $-1 $137 -75.547959837641528 $200 75.547959837641528 $129 $201 forward 7 unknown #
coedge $-1 $123 $202 $80 $132 reversed $76 $-1 #
edge $-1 $203 -75.547959837641528 $136 75.547959837641528 $131 $204 forward 7 unknown #
coedge $-1 $126 $81 $202 $205 forward $135 $-1 #
coedge $-1 $81 $126 $198 $206 reversed $135 $-1 #
loop $-1 $-1 $133 $182 #
vertex $-1 $82 $207 #
vertex $-1 $82 $208 #
straight-curve $-1 75.547959837641528 0 9.9867067755015846 0 1 0 I I #
face $-1 $209 $210 $19 $-1 $211 reversed single #
loop $-1 $-1 $150 $83 #
plane-surface $-1 0 -36.927106347299443 6.8876488258981645 0 0 1 1 0 0 forward_v I I I I #
coedge $-1 $212 $213 $87 $147 forward $84 $-1 #
coedge $-1 $214 $86 $213 $215 forward $53 $-1 #
coedge $-1 $86 $214 $216 $217 forward $53 $-1 #
coedge $-1 $88 $87 $86 $146 reversed $34 $-1 #
edge $-1 $218 -75.547959837641528 $219 75.547959837641528 $86 $220 forward 7 unknown #
edge $-1 $219 -9.9867067755015846 $153 -6.8876488258981645 $142 $221 forward 7 unknown #
coedge $-1 $216 $222 $88 $149 forward $223 $-1 #
edge $-1 $152 6.8876488258981645 $218 9.9867067755015846 $148 $224 forward 7 unknown #
coedge $-1 $225 $89 $222 $226 forward $140 $-1 #
coedge $-1 $89 $225 $212 $227 forward $140 $-1 #
vertex $-1 $149 $228 #
vertex $-1 $147 $229 #
straight-curve $-1 0 -32.891848354862944 6.8876488258981645 -1 0 0 I I #
face $-1 $-1 $230 $20 $-1 $231 reversed single #
loop $-1 $-1 $161 $91 #
plane-surface $-1 0 0 9.9867067755015846 0 0 1 1 0 0 forward_v I I I I #
coedge $-1 $232 $233 $160 $234 forward $92 $-1 #
coedge $-1 $235 $94 $96 $165 forward $57 $-1 #
coedge $-1 $94 $235 $158 $234 reversed $57 $-1 #
coedge $-1 $236 $97 $94 $162 forward $156 $-1 #
edge $-1 $168 24.080379025674851 $237 42.338513549869411 $161 $238 forward 7 unknown #
coedge $-1 $239 $240 $95 $164 forward $230 $-1 #
edge $-1 $241 -68.120993157971611 $167 -63.924380760617069 $163 $242 forward 7 unknown #
edge $-1 $168 60.596398563850485 $241 65.783696709725945 $96 $243 forward 7 unknown #
coedge $-1 $97 $236 $239 $244 forward $156 $-1 #
vertex $-1 $164 $245 #
vertex $-1 $98 $246 #
straight-curve $-1 57.289825313446983 58.232165181571297 9.9867067755015881 0 -1 0 I I #
coedge $-1 $170 $170 $-1 $247 reversed $101 $-1 #
edge $-1 $248 0 $248 6.2831853071796004 $102 $249 forward 7 unknown #
vertex $-1 $105 $250 #
ellipse-curve $-1 60.941452218285875 31.367339709382946 7.8884005768243224 0 0.80901700255871778 0.5877852410284794 1 0 0 1 I I #
coedge $-1 $174 $174 $-1 $251 reversed $108 $-1 #
edge $-1 $252 0 $252 6.2831853071796004 $109 $253 forward 7 unknown #
vertex $-1 $112 $254 #
ellipse-curve $-1 66.418892575544234 31.367339709382946 7.8884005768243224 0 0.80901700255871778 0.5877852410284794 1 0 0 1 I I #
coedge $-1 $178 $178 $-1 $255 reversed $115 $-1 #
edge $-1 $256 0 $256 6.2831853071796004 $116 $257 forward 7 unknown #
vertex $-1 $119 $258 #
ellipse-curve $-1 71.896332932802594 31.367339709382946 7.8884005768243224 0 0.80901700255871778 0.5877852410284794 1 0 0 1 I I #
face $-1 $-1 $135 $18 $-1 $259 reversed single #
loop $-1 $-1 $198 $120 #
plane-surface $-1 0 32.891848354862944 0 0 -1 0 0 0 -1 forward_v I I I I #
coedge $-1 $260 $196 $199 $261 forward $121 $-1 #
coedge $-1 $202 $123 $124 $190 reversed $76 $-1 #
coedge $-1 $196 $260 $123 $188 reversed $121 $-1 #
edge $-1 $203 -9.9867067755015846 $262 9.9867067755015846 $187 $263 forward 7 unknown #
coedge $-1 $125 $124 $260 $264 forward $49 $-1 #
edge $-1 $194 -75.547959837641528 $262 75.547959837641528 $186 $265 forward 7 unknown #
coedge $-1 $199 $198 $125 $192 reversed $183 $-1 #
edge $-1 $266 -75.547959837641528 $193 75.547959837641528 $191 $267 forward 7 unknown #
vertex $-1 $127 $268 #
vertex $-1 $205 $269 #
straight-curve $-1 75.547959837641528 0 -9.9867067755015846 0 -1 0 I I #
coedge $-1 $185 $187 $128 $197 reversed $121 $-1 #
edge $-1 $200 -32.891848354862944 $203 32.891848354862944 $196 $270 forward 7 unknown #
coedge $-1 $191 $129 $134 $206 forward $183 $-1 #
coedge $-1 $129 $191 $185 $261 reversed $183 $-1 #
vertex $-1 $130 $271 #
straight-curve $-1 0 32.891848354862944 9.9867067755015846 -1 0 0 I I #
coedge $-1 $131 $186 $133 $205 reversed $76 $-1 #
vertex $-1 $197 $272 #
straight-curve $-1 0 -32.891848354862944 9.9867067755015846 1 0 0 I I #
edge $-1 $136 -9.9867067755015846 $194 9.9867067755015846 $133 $273 forward 7 unknown #
edge $-1 $137 -9.9867067755015846 $193 9.9867067755015846 $134 $274 forward 7 unknown #
point $-1 75.547959837641528 -32.891848354862944 9.9867067755015846 #
point $-1 75.547959837641528 32.891848354862944 9.9867067755015846 #
face $-1 $-1 $223 $19 $-1 $275 reversed single #
loop $-1 $-1 $276 $139 #
plane-surface $-1 0 -40.962364339735942 8.4371778006998746 0 1 0 0 0 1 forward_v I I I I #
coedge $-1 $277 $142 $151 $227 reversed $84 $-1 #
coedge $-1 $142 $277 $143 $215 reversed $84 $-1 #
coedge $-1 $144 $143 $278 $279 forward $53 $-1 #
edge $-1 $219 32.891848354862944 $280 40.962364339735942 $213 $281 forward 7 unknown #
coedge $-1 $282 $148 $144 $217 reversed $223 $-1 #
edge $-1 $283 -40.962364339735942 $218 -32.891848354862944 $216 $284 forward 7 unknown #
vertex $-1 $149 $285 #
vertex $-1 $215 $286 #
straight-curve $-1 0 -32.891848354862944 9.9867067755015846 -1 0 0 I I #
straight-curve $-1 -75.547959837641528 -32.891848354862944 0 0 0 -1 I I #
coedge $-1 $148 $282 $150 $226 reversed $223 $-1 #
loop $-1 $-1 $148 $209 #
straight-curve $-1 75.547959837641528 -32.891848354862944 0 0 0 1 I I #
coedge $-1 $151 $150 $287 $288 forward $140 $-1 #
edge $-1 $152 -4.0352579924364989 $289 4.0352579924364989 $222 $290 forward 7 unknown #
edge $-1 $291 -4.0352579924364989 $153 4.0352579924364989 $212 $292 forward 7 unknown #
point $-1 75.547959837641528 -32.891848354862944 6.8876488258981645 #
point $-1 -75.547959837641528 -32.891848354862944 6.8876488258981645 #
loop $-1 $-1 $163 $155 #
plane-surface $-1 0 32.891848354862944 0 0 -1 0 0 0 -1 forward_v I I I I #
coedge $-1 $233 $158 $293 $294 reversed $92 $-1 #
coedge $-1 $158 $232 $236 $295 reversed $92 $-1 #
edge $-1 $237 35.029079316384873 $296 40.216377462260319 $158 $297 forward 7 unknown #
coedge $-1 $160 $159 $240 $298 reversed $57 $-1 #
coedge $-1 $166 $161 $233 $295 forward $156 $-1 #
vertex $-1 $295 $299 #
straight-curve $-1 33.209446287772131 29.84283106390297 9.9867067755015846 1 0 0 I I #
coedge $-1 $293 $163 $166 $244 reversed $230 $-1 #
coedge $-1 $163 $293 $235 $298 forward $230 $-1 #
vertex $-1 $164 $300 #
straight-curve $-1 57.289825313446983 32.891848354862944 73.911087536118657 0 0 1 I I #
straight-curve $-1 57.289825313446983 -5.7748376714076954 59.0102235074813 0 0.5877852410284794 -0.80901700255871778 I I #
edge $-1 $301 -75.547959837641528 $167 -57.289825313446983 $239 $302 forward 7 unknown #
point $-1 57.289825313446983 32.891848354862944 9.9867067755015846 #
point $-1 57.289825313446983 29.842831063902963 9.9867067755015881 #
edge $-1 $303 1 $303 0 $170 $-1 forward 7 unknown #
vertex $-1 $171 $304 #
ellipse-curve $-1 60.941452218285875 30.489956116044347 7.2509441015538503 0 0.80901700255871778 0.5877852410284794 1 0 0 1 I I #
point $-1 61.941452218285875 31.367339709382968 7.8884005768243375 #
edge $-1 $305 1 $305 0 $174 $-1 forward 7 unknown #
vertex $-1 $175 $306 #
ellipse-curve $-1 66.418892575544234 30.489956116044347 7.2509441015538503 0 0.80901700255871778 0.5877852410284794 1 0 0 1 I I #
point $-1 67.418892575544234 31.367339709382968 7.8884005768243375 #
edge $-1 $307 1 $307 0 $178 $-1 forward 7 unknown #
vertex $-1 $179 $308 #
ellipse-curve $-1 71.896332932802594 30.489956116044347 7.2509441015538503 0 0.80901700255871778 0.5877852410284794 1 0 0 1 I I #
point $-1 72.896332932802594 31.367339709382968 7.8884005768243375 #
plane-surface $-1 75.547959837641528 0 0 -1 0 0 0 0 1 forward_v I I I I #
coedge $-1 $187 $185 $189 $264 reversed $121 $-1 #
edge $-1 $200 -9.9867067755015846 $266 9.9867067755015846 $199 $309 forward 7 unknown #
vertex $-1 $264 $310 #
straight-curve $-1 -75.547959837641528 -32.891848354862944 0 0 0 -1 I I #
edge $-1 $262 -32.891848354862944 $266 32.891848354862944 $260 $311 forward 7 unknown #
straight-curve $-1 0 -32.891848354862944 -9.9867067755015846 -1 0 0 I I #
vertex $-1 $192 $312 #
straight-curve $-1 0 32.891848354862944 -9.9867067755015846 1 0 0 I I #
point $-1 75.547959837641528 32.891848354862944 -9.9867067755015846 #
point $-1 75.547959837641528 -32.891848354862944 -9.9867067755015846 #
straight-curve $-1 -75.547959837641528 0 9.9867067755015846 0 -1 0 I I #
point $-1 -75.547959837641528 32.891848354862944 9.9867067755015846 #
point $-1 -75.547959837641528 -32.891848354862944 9.9867067755015846 #
straight-curve $-1 75.547959837641528 -32.891848354862944 0 0 0 -1 I I #
straight-curve $-1 75.547959837641528 32.891848354862944 0 0 0 -1 I I #
plane-surface $-1 75.547959837641528 0 0 -1 0 0 0 0 1 forward_v I I I I #
coedge $-1 $287 $278 $277 $313 forward $210 $-1 #
coedge $-1 $213 $212 $276 $313 reversed $84 $-1 #
coedge $-1 $276 $314 $214 $279 reversed $210 $-1 #
edge $-1 $280 -75.547959837641528 $283 75.547959837641528 $278 $315 forward 7 unknown #
vertex $-1 $215 $316 #
straight-curve $-1 -75.547959837641528 0 9.9867067755015846 0 -1 0 I I #
coedge $-1 $222 $216 $314 $317 forward $223 $-1 #
vertex $-1 $217 $318 #
straight-curve $-1 75.547959837641528 0 9.9867067755015846 0 1 0 I I #
point $-1 75.547959837641528 -32.891848354862944 9.9867067755015846 #
point $-1 -75.547959837641528 -32.891848354862944 9.9867067755015846 #
coedge $-1 $314 $276 $225 $288 reversed $210 $-1 #
edge $-1 $289 -75.547959837641528 $291 75.547959837641528 $287 $319 forward 7 unknown #
vertex $-1 $317 $320 #
straight-curve $-1 75.547959837641528 -36.927106347299443 6.8876488258981645 0 -1 0 I I #
vertex $-1 $227 $321 #
straight-curve $-1 -75.547959837641528 -36.927106347299443 6.8876488258981645 0 1 0 I I #
coedge $-1 $240 $239 $232 $294 forward $230 $-1 #
edge $-1 $301 -9.9867067755015846 $296 -5.7900943781470389 $232 $322 forward 7 unknown #
edge $-1 $237 29.842831063902963 $301 32.891848354862944 $233 $323 forward 7 unknown #
vertex $-1 $234 $324 #
straight-curve $-1 75.547959837641528 9.253255234915958 38.325827526434857 0 0.5877852410284794 -0.80901700255871778 I I #
edge $-1 $296 -42.338513549869411 $241 -24.080379025674851 $240 $325 forward 7 unknown #
point $-1 75.547959837641542 29.842831063902963 9.9867067755015881 #
point $-1 57.289825313446983 32.891848354862951 5.7900943781470389 #
vertex $-1 $295 $326 #
straight-curve $-1 0 32.891848354862944 9.9867067755015846 -1 0 0 I I #
vertex $-1 $247 $327 #
point $-1 61.941452218285875 30.489956116044347 7.2509441015538503 #
vertex $-1 $251 $328 #
point $-1 67.418892575544234 30.489956116044347 7.2509441015538503 #
vertex $-1 $255 $329 #
point $-1 72.896332932802594 30.489956116044347 7.2509441015538503 #
straight-curve $-1 -75.547959837641528 32.891848354862944 0 0 0 -1 I I #
point $-1 -75.547959837641528 -32.891848354862944 -9.9867067755015846 #
straight-curve $-1 -75.547959837641528 0 -9.9867067755015846 0 1 0 I I #
point $-1 -75.547959837641528 32.891848354862944 -9.9867067755015846 #
edge $-1 $280 -1.54952897480171 $291 1.54952897480171 $277 $330 forward 7 unknown #
coedge $-1 $278 $287 $282 $317 reversed $210 $-1 #
straight-curve $-1 0 -40.962364339735942 9.9867067755015846 1 0 0 I I #
point $-1 -75.547959837641528 -40.962364339735942 9.9867067755015846 #
edge $-1 $283 -1.54952897480171 $289 1.54952897480171 $282 $331 forward 7 unknown #
point $-1 75.547959837641528 -40.962364339735942 9.9867067755015846 #
straight-curve $-1 0 -40.962364339735942 6.8876488258981645 -1 0 0 I I #
point $-1 75.547959837641528 -40.962364339735942 6.8876488258981645 #
point $-1 -75.547959837641528 -40.962364339735942 6.8876488258981645 #
straight-curve $-1 75.547959837641528 32.891848354862944 0 0 0 -1 I I #
straight-curve $-1 75.547959837641528 0 9.9867067755015846 0 1 0 I I #
point $-1 75.547959837641542 32.891848354862951 5.7900943781470389 #
straight-curve $-1 33.209446287772131 32.891848354862944 5.7900943781470495 -1 0 0 I I #
point $-1 75.547959837641528 32.891848354862944 9.9867067755015846 #
point $-1 60.941452218285875 29.680939113485628 6.6631588605253693 #
point $-1 66.418892575544234 29.680939113485628 6.6631588605253693 #
point $-1 71.896332932802594 29.680939113485628 6.6631588605253693 #
straight-curve $-1 -75.547959837641528 -40.962364339735942 8.4371778006998746 0 0 -1 I I #
straight-curve $-1 75.547959837641528 -40.962364339735942 8.4371778006998746 0 0 -1 I I #
End-of-ACIS-data 