500 0 4 0           
7 Unknown 11 ACIS 5.0 NT 24 Thu Mar 25 15:25:09 1999 
-1 9.9999999999999995e-007 1e-010 
body $-1 $4 $-1 $5 #
body $-1 $6 $-1 $7 #
body $-1 $8 $-1 $9 #
body $-1 $10 $-1 $11 #
lump $-1 $-1 $12 $0 #
transform $-1 1 0 0 0 1 0 0 0 1 67.967162083803828 39.223567761958833 17.726438282508845 1 rotate no_reflect no_shear #
lump $-1 $-1 $13 $1 #
transform $-1 1 0 0 0 1 0 0 0 1 67.967162083803828 39.223567761958833 17.726438282508845 1 rotate no_reflect no_shear #
lump $-1 $-1 $14 $2 #
transform $-1 1 0 0 0 1 0 0 0 1 67.967162083803828 39.223567761958833 17.726438282508845 1 rotate no_reflect no_shear #
lump $-1 $-1 $15 $3 #
transform $-1 1 0 0 0 1 0 0 0 1 67.967162083803828 39.223567761958833 17.726438282508845 1 rotate no_reflect no_shear #
shell $-1 $-1 $-1 $16 $-1 $4 #
shell $-1 $-1 $-1 $17 $-1 $6 #
shell $-1 $-1 $-1 $18 $-1 $8 #
shell $-1 $-1 $-1 $19 $-1 $10 #
face $-1 $20 $21 $12 $-1 $22 forward single #
face $-1 $23 $24 $13 $-1 $25 forward single #
face $-1 $26 $27 $14 $-1 $28 reversed single #
face $-1 $29 $30 $15 $-1 $31 forward single #
face $-1 $32 $33 $12 $-1 $34 reversed single #
loop $-1 $-1 $35 $16 #
plane-surface $-1 0 0 17.726438282508845 0 0 1 1 0 0 forward_v I I I I #
face $-1 $36 $37 $13 $-1 $38 reversed single #
loop $-1 $-1 $39 $17 #
plane-surface $-1 -58.750815326688702 0 16.541996393026459 0 0 1 1 0 0 forward_v I I I I #
face $-1 $40 $41 $14 $-1 $42 reversed single #
loop $-1 $-1 $43 $18 #
plane-surface $-1 33.457631218027586 -128.40450956635109 103.53248943009135 1 0 0 0 0.6560590369687036 -0.75470957328743171 forward_v I I I I #
face $-1 $44 $45 $15 $-1 $46 forward single #
loop $-1 $47 $48 $19 #
cone-surface $-1 44.273109996436318 -26.479506212552803 5.7797473460349815 0 0.6560590369687036 -0.75470957328743171 2.5 0 0 1 I I 0 1 2.5 forward I I I I #
face $-1 $49 $50 $12 $-1 $51 reversed single #
loop $-1 $-1 $52 $20 #
plane-surface $-1 0 0 -17.726438282508845 0 0 1 1 0 0 forward_v I I I I #
coedge $-1 $53 $54 $55 $56 forward $21 $-1 #
face $-1 $57 $58 $13 $-1 $59 reversed single #
loop $-1 $-1 $60 $23 #
plane-surface $-1 -58.750815326688702 0 6.3400029722308915 0 0 1 1 0 0 forward_v I I I I #
coedge $-1 $61 $62 $63 $64 forward $24 $-1 #
face $-1 $65 $66 $14 $-1 $67 reversed single #
loop $-1 $-1 $68 $26 #
plane-surface $-1 44.273109996436318 -39.223567761958847 0.94155364244075201 0 -0.6560590369687036 0.75470957328743171 1 0 0 forward_v I I I I #
coedge $-1 $69 $70 $71 $72 reversed $27 $-1 #
face $-1 $-1 $73 $15 $-1 $74 forward single #
loop $-1 $75 $76 $29 #
cone-surface $-1 44.273109996436318 -22.569771165204216 1.2821117629858776 0 0.6560590369687036 -0.75470957328743171 1.25 0 0 1 I I -0.70710678118654746 0.70710678118654746 1.25 forward I I I I #
loop $-1 $-1 $77 $19 #
coedge $-1 $48 $48 $78 $79 reversed $30 $-1 #
face $-1 $80 $81 $12 $-1 $82 reversed single #
loop $-1 $-1 $83 $32 #
plane-surface $-1 0 -39.223567761958833 0 0 1 0 0 0 1 forward_v I I I I #
coedge $-1 $84 $85 $86 $87 forward $33 $-1 #
coedge $-1 $88 $35 $89 $90 forward $21 $-1 #
coedge $-1 $35 $88 $91 $92 forward $21 $-1 #
coedge $-1 $93 $94 $35 $56 reversed $95 $-1 #
edge $-1 $96 -39.223567761958833 $97 39.223567761958833 $55 $98 forward 7 unknown #
face $-1 $99 $100 $13 $-1 $101 reversed single #
loop $-1 $-1 $102 $36 #
plane-surface $-1 -49.534468569573576 0 11.440999682628675 -1 0 0 0 0 1 forward_v I I I I #
coedge $-1 $103 $104 $105 $106 forward $37 $-1 #
coedge $-1 $107 $39 $108 $109 reversed $24 $-1 #
coedge $-1 $39 $107 $110 $111 reversed $24 $-1 #
coedge $-1 $102 $112 $39 $64 reversed $58 $-1 #
edge $-1 $113 -39.223567761958833 $114 39.223567761958833 $63 $115 forward 7 unknown #
face $-1 $116 $117 $14 $-1 $118 forward single #
loop $-1 $-1 $119 $40 #
plane-surface $-1 55.08858877484505 -128.40450956635109 103.53248943009135 -1 0 0 0 -0.6560590369687036 0.75470957328743171 forward_v I I I I #
coedge $-1 $120 $121 $122 $123 reversed $41 $-1 #
coedge $-1 $70 $43 $124 $125 reversed $27 $-1 #
coedge $-1 $43 $69 $120 $126 reversed $27 $-1 #
coedge $-1 $122 $127 $43 $72 forward $128 $-1 #
edge $-1 $129 34.039806432536828 $130 50.824691072604907 $71 $131 forward 7 unknown #
loop $-1 $-1 $78 $44 #
plane-surface $-1 44.273109996436318 -39.223567761958847 0.94155364244075201 0 -0.6560590369687036 0.75470957328743171 1 0 0 forward_v I I I I #
loop $-1 $-1 $132 $29 #
coedge $-1 $76 $76 $77 $133 reversed $45 $-1 #
coedge $-1 $77 $77 $76 $133 forward $47 $-1 #
coedge $-1 $78 $78 $48 $79 forward $73 $-1 #
edge $-1 $134 -1.8577629510743875e-016 $134 6.2831853071796004 $78 $135 forward 7 unknown #
face $-1 $136 $137 $12 $-1 $138 reversed single #
loop $-1 $-1 $139 $49 #
plane-surface $-1 -67.967162083803828 0 0 1 0 0 0 0 -1 forward_v I I I I #
coedge $-1 $140 $91 $141 $142 forward $50 $-1 #
coedge $-1 $143 $52 $140 $144 forward $33 $-1 #
coedge $-1 $52 $143 $145 $146 forward $33 $-1 #
coedge $-1 $94 $93 $52 $87 reversed $95 $-1 #
edge $-1 $147 -39.223567761958833 $148 39.223567761958833 $86 $149 forward 7 unknown #
coedge $-1 $54 $53 $150 $151 forward $21 $-1 #
coedge $-1 $152 $153 $53 $90 reversed $137 $-1 #
edge $-1 $97 -67.967162083803828 $154 67.967162083803828 $89 $155 forward 7 unknown #
coedge $-1 $83 $156 $54 $92 reversed $50 $-1 #
edge $-1 $157 -67.967162083803828 $96 67.967162083803828 $91 $158 forward 7 unknown #
coedge $-1 $86 $55 $156 $159 forward $95 $-1 #
coedge $-1 $55 $86 $152 $160 reversed $95 $-1 #
loop $-1 $-1 $93 $136 #
vertex $-1 $56 $161 #
vertex $-1 $56 $162 #
straight-curve $-1 67.967162083803828 0 17.726438282508845 0 1 0 I I #
face $-1 $163 $164 $13 $-1 $165 reversed single #
loop $-1 $-1 $166 $57 #
plane-surface $-1 0 -39.223567761958833 0 0 1 0 0 0 1 forward_v I I I I #
coedge $-1 $105 $63 $167 $168 reversed $58 $-1 #
coedge $-1 $169 $60 $166 $170 reversed $37 $-1 #
coedge $-1 $60 $169 $171 $172 reversed $37 $-1 #
coedge $-1 $112 $102 $60 $106 reversed $58 $-1 #
edge $-1 $173 -39.223567761958833 $174 39.223567761958833 $105 $175 forward 7 unknown #
coedge $-1 $62 $61 $176 $177 reversed $24 $-1 #
coedge $-1 $178 $179 $61 $109 forward $180 $-1 #
edge $-1 $181 -38.59175442045948 $114 -20.159060906229225 $108 $182 forward 7 unknown #
coedge $-1 $183 $167 $62 $111 forward $100 $-1 #
edge $-1 $113 20.159060906229225 $184 38.59175442045948 $110 $185 forward 7 unknown #
coedge $-1 $63 $105 $178 $186 reversed $58 $-1 #
vertex $-1 $111 $187 #
vertex $-1 $109 $188 #
straight-curve $-1 -49.534468569573576 0 16.541996393026459 0 1 0 I I #
face $-1 $-1 $128 $14 $-1 $189 reversed single #
loop $-1 $-1 $190 $65 #
plane-surface $-1 0 0 17.726438282508845 0 0 1 1 0 0 forward_v I I I I #
coedge $-1 $191 $192 $193 $194 reversed $66 $-1 #
coedge $-1 $195 $68 $70 $126 forward $41 $-1 #
coedge $-1 $68 $195 $191 $196 forward $41 $-1 #
coedge $-1 $193 $71 $68 $123 forward $128 $-1 #
edge $-1 $130 11.321076219809427 $197 32.952033776626891 $122 $198 forward 7 unknown #
coedge $-1 $199 $200 $69 $125 forward $117 $-1 #
edge $-1 $201 -44.287487617753342 $129 -24.978687021216714 $124 $202 forward 7 unknown #
edge $-1 $130 1.8809995614912076e-014 $201 25.58441191149813 $70 $203 forward 7 unknown #
coedge $-1 $71 $193 $199 $204 reversed $128 $-1 #
loop $-1 $-1 $193 $116 #
vertex $-1 $204 $205 #
vertex $-1 $72 $206 #
straight-curve $-1 33.457631218027586 -39.223567761958833 51.766244715045673 0 0 -1 I I #
coedge $-1 $132 $132 $-1 $207 reversed $75 $-1 #
edge $-1 $208 0 $208 6.2831853071796004 $76 $209 forward 7 unknown #
vertex $-1 $79 $210 #
ellipse-curve $-1 44.273109996436318 -29.569167463690519 9.3339959624748055 0 -0.6560590369687036 0.75470957328743171 2.5 0 0 1 I I #
face $-1 $-1 $95 $12 $-1 $211 reversed single #
loop $-1 $-1 $152 $80 #
plane-surface $-1 0 39.223567761958833 0 0 -1 0 0 0 -1 forward_v I I I I #
coedge $-1 $212 $150 $153 $213 forward $81 $-1 #
coedge $-1 $156 $83 $84 $144 reversed $50 $-1 #
coedge $-1 $150 $212 $83 $142 reversed $81 $-1 #
edge $-1 $157 -17.726438282508845 $214 17.726438282508845 $141 $215 forward 7 unknown #
coedge $-1 $85 $84 $212 $216 forward $33 $-1 #
edge $-1 $148 -67.967162083803828 $214 67.967162083803828 $140 $217 forward 7 unknown #
coedge $-1 $153 $152 $85 $146 reversed $137 $-1 #
edge $-1 $218 -67.967162083803828 $147 67.967162083803828 $145 $219 forward 7 unknown #
vertex $-1 $87 $220 #
vertex $-1 $159 $221 #
straight-curve $-1 67.967162083803828 0 -17.726438282508845 0 -1 0 I I #
coedge $-1 $139 $141 $88 $151 reversed $81 $-1 #
edge $-1 $154 -39.223567761958833 $157 39.223567761958833 $150 $222 forward 7 unknown #
coedge $-1 $145 $89 $94 $160 forward $137 $-1 #
coedge $-1 $89 $145 $139 $213 reversed $137 $-1 #
vertex $-1 $90 $223 #
straight-curve $-1 0 39.223567761958833 17.726438282508845 -1 0 0 I I #
coedge $-1 $91 $140 $93 $159 reversed $50 $-1 #
vertex $-1 $151 $224 #
straight-curve $-1 0 -39.223567761958833 17.726438282508845 1 0 0 I I #
edge $-1 $96 -17.726438282508845 $148 17.726438282508845 $93 $225 forward 7 unknown #
edge $-1 $97 -17.726438282508845 $147 17.726438282508845 $94 $226 forward 7 unknown #
point $-1 67.967162083803828 -39.223567761958833 17.726438282508845 #
point $-1 67.967162083803828 39.223567761958833 17.726438282508845 #
face $-1 $-1 $180 $13 $-1 $227 reversed single #
loop $-1 $-1 $228 $99 #
plane-surface $-1 -67.967162083803828 0 0 1 0 0 0 0 -1 forward_v I I I I #
coedge $-1 $167 $183 $103 $170 forward $100 $-1 #
coedge $-1 $110 $166 $102 $168 forward $100 $-1 #
edge $-1 $174 0.61950313091655396 $113 10.821496551712121 $167 $229 forward 7 unknown #
coedge $-1 $104 $103 $228 $230 reversed $37 $-1 #
edge $-1 $231 -38.59175442045948 $174 -20.159060906229225 $166 $232 forward 7 unknown #
coedge $-1 $179 $178 $104 $172 forward $180 $-1 #
edge $-1 $173 20.159060906229225 $233 38.59175442045948 $171 $234 forward 7 unknown #
vertex $-1 $172 $235 #
vertex $-1 $170 $236 #
straight-curve $-1 -49.534468569573576 0 6.3400029722308915 0 -1 0 I I #
coedge $-1 $237 $238 $107 $177 forward $164 $-1 #
edge $-1 $184 -39.223567761958833 $181 39.223567761958833 $176 $239 forward 7 unknown #
coedge $-1 $171 $108 $112 $186 forward $180 $-1 #
coedge $-1 $108 $171 $237 $240 reversed $180 $-1 #
loop $-1 $-1 $171 $163 #
vertex $-1 $240 $241 #
straight-curve $-1 -29.375407663344351 39.223567761958833 16.541996393026459 1 0 0 I I #
coedge $-1 $166 $110 $238 $242 forward $100 $-1 #
vertex $-1 $242 $243 #
straight-curve $-1 -29.375407663344351 -39.223567761958833 16.541996393026459 -1 0 0 I I #
edge $-1 $114 -10.821496551712121 $173 -0.61950313091655396 $178 $244 forward 7 unknown #
point $-1 -49.534468569573576 -39.223567761958833 16.541996393026459 #
point $-1 -49.534468569573576 39.223567761958833 16.541996393026459 #
plane-surface $-1 0 -39.223567761958833 0 0 1 0 0 0 1 forward_v I I I I #
coedge $-1 $200 $199 $192 $245 forward $117 $-1 #
coedge $-1 $192 $119 $121 $196 reversed $66 $-1 #
coedge $-1 $119 $191 $190 $245 reversed $66 $-1 #
coedge $-1 $127 $122 $119 $194 forward $128 $-1 #
edge $-1 $197 -50.824691072604907 $246 -34.039806432536828 $193 $247 forward 7 unknown #
coedge $-1 $121 $120 $200 $248 reversed $41 $-1 #
edge $-1 $249 -25.58441191149813 $197 -1.8809995614912076e-014 $191 $250 forward 7 unknown #
vertex $-1 $123 $251 #
straight-curve $-1 22.136554998218159 -39.223567761958833 0.941553642440764 1 0 0 I I #
coedge $-1 $190 $124 $127 $204 forward $117 $-1 #
coedge $-1 $124 $190 $195 $248 forward $117 $-1 #
vertex $-1 $125 $252 #
straight-curve $-1 33.457631218027586 -64.202254783175547 17.726438282508845 0 -1 0 I I #
straight-curve $-1 33.457631218027586 -39.223567761958847 0.94155364244075201 0 0.75470957328743171 0.6560590369687036 I I #
edge $-1 $129 33.457631218027586 $246 55.08858877484505 $127 $253 forward 7 unknown #
point $-1 33.457631218027586 -39.223567761958833 17.726438282508845 #
point $-1 33.457631218027586 -39.223567761958833 0.94155364244076434 #
edge $-1 $254 1 $254 0 $132 $-1 forward 7 unknown #
vertex $-1 $133 $255 #
ellipse-curve $-1 44.273109996436318 -23.389844961415097 2.2254987295951674 0 -0.6560590369687036 0.75470957328743171 2.5 0 0 1 I I #
point $-1 46.773109996436318 -29.569167463690512 9.3339959624747966 #
plane-surface $-1 67.967162083803828 0 0 -1 0 0 0 0 1 forward_v I I I I #
coedge $-1 $141 $139 $143 $216 reversed $81 $-1 #
edge $-1 $154 -17.726438282508845 $218 17.726438282508845 $153 $256 forward 7 unknown #
vertex $-1 $216 $257 #
straight-curve $-1 -67.967162083803828 -39.223567761958833 0 0 0 -1 I I #
edge $-1 $214 -39.223567761958833 $218 39.223567761958833 $212 $258 forward 7 unknown #
straight-curve $-1 0 -39.223567761958833 -17.726438282508845 -1 0 0 I I #
vertex $-1 $146 $259 #
straight-curve $-1 0 39.223567761958833 -17.726438282508845 1 0 0 I I #
point $-1 67.967162083803828 39.223567761958833 -17.726438282508845 #
point $-1 67.967162083803828 -39.223567761958833 -17.726438282508845 #
straight-curve $-1 -67.967162083803828 0 17.726438282508845 0 -1 0 I I #
point $-1 -67.967162083803828 39.223567761958833 17.726438282508845 #
point $-1 -67.967162083803828 -39.223567761958833 17.726438282508845 #
straight-curve $-1 67.967162083803828 -39.223567761958833 0 0 0 -1 I I #
straight-curve $-1 67.967162083803828 39.223567761958833 0 0 0 -1 I I #
plane-surface $-1 0 39.223567761958833 0 0 -1 0 0 0 -1 forward_v I I I I #
coedge $-1 $238 $237 $169 $230 forward $164 $-1 #
straight-curve $-1 -49.534468569573576 -39.223567761958833 5.7204998413143375 0 0 1 I I #
edge $-1 $233 -39.223567761958833 $231 39.223567761958833 $228 $260 forward 7 unknown #
vertex $-1 $170 $261 #
straight-curve $-1 -29.375407663344351 -39.223567761958833 6.3400029722308915 1 0 0 I I #
vertex $-1 $172 $262 #
straight-curve $-1 -29.375407663344351 39.223567761958833 6.3400029722308915 -1 0 0 I I #
point $-1 -49.534468569573576 39.223567761958833 6.3400029722308915 #
point $-1 -49.534468569573576 -39.223567761958833 6.3400029722308915 #
coedge $-1 $228 $176 $179 $240 forward $164 $-1 #
coedge $-1 $176 $228 $183 $242 reversed $164 $-1 #
straight-curve $-1 -67.967162083803828 0 16.541996393026459 0 1 0 I I #
edge $-1 $181 -16.541996393026459 $233 -6.3400029722308915 $179 $263 forward 7 unknown #
point $-1 -67.967162083803828 39.223567761958833 16.541996393026459 #
edge $-1 $184 -16.541996393026459 $231 -6.3400029722308915 $238 $264 forward 7 unknown #
point $-1 -67.967162083803828 -39.223567761958833 16.541996393026459 #
straight-curve $-1 -49.534468569573576 39.223567761958833 5.7204998413143375 0 0 -1 I I #
edge $-1 $246 24.978687021216714 $249 44.287487617753342 $190 $265 forward 7 unknown #
vertex $-1 $245 $266 #
straight-curve $-1 55.08858877484505 -39.223567761958833 51.766244715045673 0 0 1 I I #
edge $-1 $249 -32.952033776626891 $201 -11.321076219809427 $200 $267 forward 7 unknown #
vertex $-1 $248 $268 #
straight-curve $-1 55.08858877484505 -39.223567761958847 0.94155364244075201 0 -0.75470957328743171 -0.6560590369687036 I I #
point $-1 55.08858877484505 -39.223567761958833 0.94155364244076434 #
point $-1 33.457631218027586 -19.914767165422209 17.726438282508845 #
straight-curve $-1 0 -39.223567761958833 17.726438282508845 1 0 0 I I #
vertex $-1 $207 $269 #
point $-1 46.773109996436318 -23.389844961415097 2.2254987295951674 #
straight-curve $-1 -67.967162083803828 39.223567761958833 0 0 0 -1 I I #
point $-1 -67.967162083803828 -39.223567761958833 -17.726438282508845 #
straight-curve $-1 -67.967162083803828 0 -17.726438282508845 0 1 0 I I #
point $-1 -67.967162083803828 39.223567761958833 -17.726438282508845 #
straight-curve $-1 -67.967162083803828 0 6.3400029722308915 0 -1 0 I I #
point $-1 -67.967162083803828 -39.223567761958833 6.3400029722308915 #
point $-1 -67.967162083803828 39.223567761958833 6.3400029722308915 #
straight-curve $-1 -67.967162083803828 39.223567761958833 0 0 0 -1 I I #
straight-curve $-1 -67.967162083803828 -39.223567761958833 0 0 0 -1 I I #
straight-curve $-1 55.08858877484505 -64.202254783175547 17.726438282508845 0 1 0 I I #
point $-1 55.08858877484505 -39.223567761958833 17.726438282508845 #
straight-curve $-1 22.136554998218159 -19.914767165422212 17.726438282508845 -1 0 0 I I #
point $-1 55.08858877484505 -19.914767165422209 17.726438282508845 #
point $-1 44.273109996436318 -21.749697368993335 0.33872479637658792 #
End-of-ACIS-data 