500 0 17 0           
7 Unknown 11 ACIS 5.0 NT 24 Fri Mar 26 14:45:41 1999 
-1 9.9999999999999995e-007 1e-010 
body $-1 $17 $-1 $18 #
body $-1 $19 $-1 $20 #
body $-1 $21 $-1 $22 #
body $-1 $23 $-1 $24 #
body $-1 $25 $-1 $26 #
body $-1 $27 $-1 $28 #
body $-1 $29 $-1 $30 #
body $-1 $31 $-1 $32 #
body $-1 $33 $-1 $34 #
body $-1 $35 $-1 $36 #
body $-1 $37 $-1 $38 #
body $-1 $39 $-1 $40 #
body $-1 $41 $-1 $42 #
body $-1 $43 $-1 $44 #
body $-1 $45 $-1 $46 #
body $-1 $47 $-1 $48 #
body $-1 $49 $-1 $50 #
lump $-1 $-1 $51 $0 #
transform $-1 1 0 0 0 1 0 0 0 1 48.462172307504503 27.449967095249878 7.0494316876680259 1 rotate no_reflect no_shear #
lump $-1 $-1 $52 $1 #
transform $-1 1 0 0 0 1 0 0 0 1 48.462172307504503 27.449967095249878 7.0494316876680259 1 rotate no_reflect no_shear #
lump $-1 $-1 $53 $2 #
transform $-1 1 0 0 0 1 0 0 0 1 48.462172307504503 27.449967095249878 7.0494316876680259 1 rotate no_reflect no_shear #
lump $-1 $-1 $54 $3 #
transform $-1 1 0 0 0 1 0 0 0 1 48.462172307504503 27.449967095249878 7.0494316876680259 1 rotate no_reflect no_shear #
lump $-1 $-1 $55 $4 #
transform $-1 1 0 0 0 1 0 0 0 1 48.462172307504503 27.449967095249878 7.0494316876680259 1 rotate no_reflect no_shear #
lump $-1 $-1 $56 $5 #
transform $-1 1 0 0 0 1 0 0 0 1 48.462172307504503 27.449967095249878 7.0494316876680259 1 rotate no_reflect no_shear #
lump $-1 $-1 $57 $6 #
transform $-1 1 0 0 0 1 0 0 0 1 48.462172307504503 27.449967095249878 7.0494316876680259 1 rotate no_reflect no_shear #
lump $-1 $-1 $58 $7 #
transform $-1 1 0 0 0 1 0 0 0 1 48.462172307504503 27.449967095249878 7.0494316876680259 1 rotate no_reflect no_shear #
lump $-1 $-1 $59 $8 #
transform $-1 1 0 0 0 1 0 0 0 1 48.462172307504503 27.449967095249878 7.0494316876680259 1 rotate no_reflect no_shear #
lump $-1 $-1 $60 $9 #
transform $-1 1 0 0 0 1 0 0 0 1 48.462172307504503 27.449967095249878 7.0494316876680259 1 rotate no_reflect no_shear #
lump $-1 $-1 $61 $10 #
transform $-1 1 0 0 0 1 0 0 0 1 48.462172307504503 27.449967095249878 7.0494316876680259 1 rotate no_reflect no_shear #
lump $-1 $-1 $62 $11 #
transform $-1 1 0 0 0 1 0 0 0 1 48.462172307504503 27.449967095249878 7.0494316876680259 1 rotate no_reflect no_shear #
lump $-1 $-1 $63 $12 #
transform $-1 1 0 0 0 1 0 0 0 1 48.462172307504503 27.449967095249878 7.0494316876680259 1 rotate no_reflect no_shear #
lump $-1 $-1 $64 $13 #
transform $-1 1 0 0 0 1 0 0 0 1 48.462172307504503 27.449967095249878 7.0494316876680259 1 rotate no_reflect no_shear #
lump $-1 $-1 $65 $14 #
transform $-1 1 0 0 0 1 0 0 0 1 48.462172307504503 27.449967095249878 7.0494316876680259 1 rotate no_reflect no_shear #
lump $-1 $-1 $66 $15 #
transform $-1 1 0 0 0 1 0 0 0 1 48.462172307504503 27.449967095249878 7.0494316876680259 1 rotate no_reflect no_shear #
lump $-1 $-1 $67 $16 #
transform $-1 1 0 0 0 1 0 0 0 1 48.462172307504503 27.449967095249878 7.0494316876680259 1 rotate no_reflect no_shear #
shell $-1 $-1 $-1 $68 $-1 $17 #
shell $-1 $-1 $-1 $69 $-1 $19 #
shell $-1 $-1 $-1 $70 $-1 $21 #
shell $-1 $-1 $-1 $71 $-1 $23 #
shell $-1 $-1 $-1 $72 $-1 $25 #
shell $-1 $-1 $-1 $73 $-1 $27 #
shell $-1 $-1 $-1 $74 $-1 $29 #
shell $-1 $-1 $-1 $75 $-1 $31 #
shell $-1 $-1 $-1 $76 $-1 $33 #
shell $-1 $-1 $-1 $77 $-1 $35 #
shell $-1 $-1 $-1 $78 $-1 $37 #
shell $-1 $-1 $-1 $79 $-1 $39 #
shell $-1 $-1 $-1 $80 $-1 $41 #
shell $-1 $-1 $-1 $81 $-1 $43 #
shell $-1 $-1 $-1 $82 $-1 $45 #
shell $-1 $-1 $-1 $83 $-1 $47 #
shell $-1 $-1 $-1 $84 $-1 $49 #
face $-1 $85 $86 $51 $-1 $87 forward single #
face $-1 $88 $89 $52 $-1 $90 reversed single #
face $-1 $91 $92 $53 $-1 $93 forward single #
face $-1 $94 $95 $54 $-1 $96 forward single #
face $-1 $97 $98 $55 $-1 $99 forward single #
face $-1 $100 $101 $56 $-1 $102 reversed single #
face $-1 $103 $104 $57 $-1 $105 forward single #
face $-1 $106 $107 $58 $-1 $108 forward single #
face $-1 $109 $110 $59 $-1 $111 forward single #
face $-1 $112 $113 $60 $-1 $114 reversed single #
face $-1 $115 $116 $61 $-1 $117 forward single #
face $-1 $118 $119 $62 $-1 $120 forward single #
face $-1 $121 $122 $63 $-1 $123 forward single #
face $-1 $124 $125 $64 $-1 $126 reversed single #
face $-1 $127 $128 $65 $-1 $129 forward single #
face $-1 $130 $131 $66 $-1 $132 forward single #
face $-1 $133 $134 $67 $-1 $135 forward single #
face $-1 $136 $137 $51 $-1 $138 reversed single #
loop $-1 $-1 $139 $68 #
plane-surface $-1 0 0 7.0494316876680259 0 0 1 1 0 0 forward_v I I I I #
face $-1 $140 $141 $52 $-1 $142 reversed single #
loop $-1 $-1 $143 $69 #
plane-surface $-1 -101.25095451972552 -6.1232998564228609 81.659331215804428 0 1 0 -0.54463904215088732 0 0.83867056331134215 forward_v I I I I #
face $-1 $144 $145 $53 $-1 $146 forward single #
loop $-1 $147 $148 $70 #
cone-surface $-1 -42.882757241601645 -4.8986398851382873 3.036060516839977 0.54463904215088732 0 -0.83867056331134215 0.41933528165567108 0 0.27231952107544366 1 I I 0 1 0.5 forward I I I I #
face $-1 $149 $150 $54 $-1 $151 forward single #
loop $-1 $152 $153 $71 #
cone-surface $-1 -42.882757241601645 -3.0616499282114304 3.036060516839977 0.54463904215088732 0 -0.83867056331134215 0.41933528165567108 0 0.27231952107544366 1 I I 0 1 0.5 forward I I I I #
face $-1 $154 $155 $55 $-1 $156 forward single #
loop $-1 $157 $158 $72 #
cone-surface $-1 -42.882757241601645 -1.2246599712845736 3.036060516839977 0.54463904215088732 0 -0.83867056331134215 0.41933528165567108 0 0.27231952107544366 1 I I 0 1 0.5 forward I I I I #
face $-1 $159 $160 $56 $-1 $161 reversed single #
loop $-1 $-1 $162 $73 #
plane-surface $-1 -101.25095451972552 21.326667238827017 81.659331215804428 0 1 0 -0.54463904215088732 0 0.83867056331134215 forward_v I I I I #
face $-1 $163 $164 $57 $-1 $165 forward single #
loop $-1 $166 $167 $74 #
cone-surface $-1 -42.882757241601645 22.551327210111591 3.036060516839977 0.54463904215088732 0 -0.83867056331134215 0.41933528165567108 0 0.27231952107544366 1 I I 0 1 0.5 forward I I I I #
face $-1 $168 $169 $58 $-1 $170 forward single #
loop $-1 $171 $172 $75 #
cone-surface $-1 -42.882757241601645 24.388317167038448 3.036060516839977 0.54463904215088732 0 -0.83867056331134215 0.41933528165567108 0 0.27231952107544366 1 I I 0 1 0.5 forward I I I I #
face $-1 $173 $174 $59 $-1 $175 forward single #
loop $-1 $176 $177 $76 #
cone-surface $-1 -42.882757241601645 26.225307123965305 3.036060516839977 0.54463904215088732 0 -0.83867056331134215 0.41933528165567108 0 0.27231952107544366 1 I I 0 1 0.5 forward I I I I #
face $-1 $178 $179 $60 $-1 $180 reversed single #
loop $-1 $-1 $181 $77 #
plane-surface $-1 19.963359822873272 0 134.44811342802544 0 -1 0 -0.54463904215088732 0 -0.83867056331134215 forward_v I I I I #
face $-1 $182 $183 $61 $-1 $184 forward single #
loop $-1 $185 $186 $78 #
cone-surface $-1 42.882757241601645 -4.8986398851382873 3.0360605168399788 -0.54463904215088732 0 -0.83867056331134215 0.41933528165567108 0 -0.27231952107544366 1 I I 0 1 0.5 forward I I I I #
face $-1 $187 $188 $62 $-1 $189 forward single #
loop $-1 $190 $191 $79 #
cone-surface $-1 42.882757241601645 -3.0616499282114304 3.0360605168399788 -0.54463904215088732 0 -0.83867056331134215 0.41933528165567108 0 -0.27231952107544366 1 I I 0 1 0.5 forward I I I I #
face $-1 $192 $193 $63 $-1 $194 forward single #
loop $-1 $195 $196 $80 #
cone-surface $-1 42.882757241601645 -1.2246599712845736 3.0360605168399788 -0.54463904215088732 0 -0.83867056331134215 0.41933528165567108 0 -0.27231952107544366 1 I I 0 1 0.5 forward I I I I #
face $-1 $197 $198 $64 $-1 $199 reversed single #
loop $-1 $-1 $200 $81 #
plane-surface $-1 19.963359822873272 21.326667238827017 134.44811342802544 0 1 0 0.54463904215088732 0 0.83867056331134215 forward_v I I I I #
face $-1 $201 $202 $65 $-1 $203 forward single #
loop $-1 $204 $205 $82 #
cone-surface $-1 42.882757241601645 22.551327210111591 3.0360605168399788 -0.54463904215088732 0 -0.83867056331134215 0.41933528165567108 0 -0.27231952107544366 1 I I 0 1 0.5 forward I I I I #
face $-1 $206 $207 $66 $-1 $208 forward single #
loop $-1 $209 $210 $83 #
cone-surface $-1 42.882757241601645 24.388317167038448 3.0360605168399788 -0.54463904215088732 0 -0.83867056331134215 0.41933528165567108 0 -0.27231952107544366 1 I I 0 1 0.5 forward I I I I #
face $-1 $211 $212 $67 $-1 $213 forward single #
loop $-1 $214 $215 $84 #
cone-surface $-1 42.882757241601645 26.225307123965305 3.0360605168399788 -0.54463904215088732 0 -0.83867056331134215 0.41933528165567108 0 -0.27231952107544366 1 I I 0 1 0.5 forward I I I I #
face $-1 $216 $217 $51 $-1 $218 reversed single #
loop $-1 $-1 $219 $85 #
plane-surface $-1 0 0 -7.0494316876680259 0 0 1 1 0 0 forward_v I I I I #
coedge $-1 $220 $221 $222 $223 forward $86 $-1 #
face $-1 $224 $225 $52 $-1 $226 reversed single #
loop $-1 $-1 $227 $88 #
plane-surface $-1 -48.46217230750451 -3.0616499282114304 0.37173651895217574 -0.54463904215088732 0 0.83867056331134215 0.83867056331134215 0 0.54463904215088732 forward_v I I I I #
coedge $-1 $228 $229 $230 $231 reversed $89 $-1 #
face $-1 $-1 $232 $53 $-1 $233 forward single #
loop $-1 $234 $235 $91 #
cone-surface $-1 -42.308556734059806 -4.8986398851382873 2.1518692895420255 0.54463904215088732 0 -0.83867056331134215 0.20966764082783554 0 0.13615976053772183 1 I I -0.70710678118654746 0.70710678118654746 0.25 forward I I I I #
loop $-1 $-1 $236 $70 #
coedge $-1 $148 $148 $237 $238 reversed $92 $-1 #
face $-1 $-1 $239 $54 $-1 $240 forward single #
loop $-1 $241 $242 $94 #
cone-surface $-1 -42.308556734059806 -3.0616499282114304 2.1518692895420255 0.54463904215088732 0 -0.83867056331134215 0.20966764082783554 0 0.13615976053772183 1 I I -0.70710678118654746 0.70710678118654746 0.25 forward I I I I #
loop $-1 $-1 $243 $71 #
coedge $-1 $153 $153 $244 $245 reversed $95 $-1 #
face $-1 $-1 $246 $55 $-1 $247 forward single #
loop $-1 $248 $249 $97 #
cone-surface $-1 -42.308556734059806 -1.2246599712845736 2.1518692895420255 0.54463904215088732 0 -0.83867056331134215 0.20966764082783554 0 0.13615976053772183 1 I I -0.70710678118654746 0.70710678118654746 0.25 forward I I I I #
loop $-1 $-1 $250 $72 #
coedge $-1 $158 $158 $251 $252 reversed $98 $-1 #
face $-1 $253 $254 $56 $-1 $255 forward single #
loop $-1 $-1 $256 $100 #
plane-surface $-1 -48.46217230750451 24.388317167038448 0.37173651895217574 -0.54463904215088732 0 0.83867056331134215 0.83867056331134215 0 0.54463904215088732 forward_v I I I I #
coedge $-1 $257 $258 $259 $260 reversed $101 $-1 #
face $-1 $-1 $261 $57 $-1 $262 forward single #
loop $-1 $263 $264 $103 #
cone-surface $-1 -42.308556734059806 22.551327210111591 2.1518692895420255 0.54463904215088732 0 -0.83867056331134215 0.20966764082783554 0 0.13615976053772183 1 I I -0.70710678118654746 0.70710678118654746 0.25 forward I I I I #
loop $-1 $-1 $265 $74 #
coedge $-1 $167 $167 $266 $267 reversed $104 $-1 #
face $-1 $-1 $268 $58 $-1 $269 forward single #
loop $-1 $270 $271 $106 #
cone-surface $-1 -42.308556734059806 24.388317167038448 2.1518692895420255 0.54463904215088732 0 -0.83867056331134215 0.20966764082783554 0 0.13615976053772183 1 I I -0.70710678118654746 0.70710678118654746 0.25 forward I I I I #
loop $-1 $-1 $272 $75 #
coedge $-1 $172 $172 $273 $274 reversed $107 $-1 #
face $-1 $-1 $275 $59 $-1 $276 forward single #
loop $-1 $277 $278 $109 #
cone-surface $-1 -42.308556734059806 26.225307123965305 2.1518692895420255 0.54463904215088732 0 -0.83867056331134215 0.20966764082783554 0 0.13615976053772183 1 I I -0.70710678118654746 0.70710678118654746 0.25 forward I I I I #
loop $-1 $-1 $279 $76 #
coedge $-1 $177 $177 $280 $281 reversed $110 $-1 #
face $-1 $282 $283 $60 $-1 $284 reversed single #
loop $-1 $-1 $285 $112 #
plane-surface $-1 -32.825422389347743 -3.0616499282114304 53.160518731173184 0.54463904215088732 0 0.83867056331134215 0.83867056331134215 0 -0.54463904215088732 forward_v I I I I #
coedge $-1 $286 $287 $288 $289 reversed $113 $-1 #
face $-1 $-1 $290 $61 $-1 $291 forward single #
loop $-1 $292 $293 $115 #
cone-surface $-1 42.308556734059806 -4.8986398851382873 2.1518692895420273 -0.54463904215088732 0 -0.83867056331134215 0.20966764082783554 0 -0.13615976053772183 1 I I -0.70710678118654746 0.70710678118654746 0.25 forward I I I I #
loop $-1 $-1 $294 $78 #
coedge $-1 $186 $186 $295 $296 reversed $116 $-1 #
face $-1 $-1 $297 $62 $-1 $298 forward single #
loop $-1 $299 $300 $118 #
cone-surface $-1 42.308556734059806 -3.0616499282114304 2.1518692895420273 -0.54463904215088732 0 -0.83867056331134215 0.20966764082783554 0 -0.13615976053772183 1 I I -0.70710678118654746 0.70710678118654746 0.25 forward I I I I #
loop $-1 $-1 $301 $79 #
coedge $-1 $191 $191 $302 $303 reversed $119 $-1 #
face $-1 $-1 $304 $63 $-1 $305 forward single #
loop $-1 $306 $307 $121 #
cone-surface $-1 42.308556734059806 -1.2246599712845736 2.1518692895420273 -0.54463904215088732 0 -0.83867056331134215 0.20966764082783554 0 -0.13615976053772183 1 I I -0.70710678118654746 0.70710678118654746 0.25 forward I I I I #
loop $-1 $-1 $308 $80 #
coedge $-1 $196 $196 $309 $310 reversed $122 $-1 #
face $-1 $311 $312 $64 $-1 $313 reversed single #
loop $-1 $-1 $314 $124 #
plane-surface $-1 -32.825422389347743 24.388317167038448 53.160518731173184 0.54463904215088732 0 0.83867056331134215 0.83867056331134215 0 -0.54463904215088732 forward_v I I I I #
coedge $-1 $315 $316 $317 $318 reversed $125 $-1 #
face $-1 $-1 $319 $65 $-1 $320 forward single #
loop $-1 $321 $322 $127 #
cone-surface $-1 42.308556734059806 22.551327210111591 2.1518692895420273 -0.54463904215088732 0 -0.83867056331134215 0.20966764082783554 0 -0.13615976053772183 1 I I -0.70710678118654746 0.70710678118654746 0.25 forward I I I I #
loop $-1 $-1 $323 $82 #
coedge $-1 $205 $205 $324 $325 reversed $128 $-1 #
face $-1 $-1 $326 $66 $-1 $327 forward single #
loop $-1 $328 $329 $130 #
cone-surface $-1 42.308556734059806 24.388317167038448 2.1518692895420273 -0.54463904215088732 0 -0.83867056331134215 0.20966764082783554 0 -0.13615976053772183 1 I I -0.70710678118654746 0.70710678118654746 0.25 forward I I I I #
loop $-1 $-1 $330 $83 #
coedge $-1 $210 $210 $331 $332 reversed $131 $-1 #
face $-1 $-1 $333 $67 $-1 $334 forward single #
loop $-1 $335 $336 $133 #
cone-surface $-1 42.308556734059806 26.225307123965305 2.1518692895420273 -0.54463904215088732 0 -0.83867056331134215 0.20966764082783554 0 -0.13615976053772183 1 I I -0.70710678118654746 0.70710678118654746 0.25 forward I I I I #
loop $-1 $-1 $337 $84 #
coedge $-1 $215 $215 $338 $339 reversed $134 $-1 #
face $-1 $340 $341 $51 $-1 $342 reversed single #
loop $-1 $-1 $343 $136 #
plane-surface $-1 0 -27.449967095249878 0 0 1 0 0 0 1 forward_v I I I I #
coedge $-1 $344 $345 $346 $347 forward $137 $-1 #
coedge $-1 $348 $139 $349 $350 forward $86 $-1 #
coedge $-1 $139 $348 $351 $352 forward $86 $-1 #
coedge $-1 $353 $354 $139 $223 reversed $355 $-1 #
edge $-1 $356 -27.449967095249878 $357 27.449967095249878 $222 $358 forward 7 unknown #
face $-1 $359 $360 $52 $-1 $361 reversed single #
loop $-1 $-1 $362 $140 #
plane-surface $-1 -101.25095451972552 0 81.659331215804428 0 -1 0 0.54463904215088732 0 -0.83867056331134215 forward_v I I I I #
coedge $-1 $363 $364 $365 $366 reversed $141 $-1 #
coedge $-1 $229 $143 $367 $368 reversed $89 $-1 #
coedge $-1 $143 $228 $363 $369 reversed $89 $-1 #
coedge $-1 $365 $370 $143 $231 forward $371 $-1 #
edge $-1 $372 2.1633049523582599 $373 12.446053590155714 $230 $374 forward 7 unknown #
loop $-1 $-1 $237 $144 #
plane-surface $-1 -48.46217230750451 -3.0616499282114304 0.37173651895217574 -0.54463904215088732 0 0.83867056331134215 0.83867056331134215 0 0.54463904215088732 forward_v I I I I #
loop $-1 $-1 $375 $91 #
coedge $-1 $235 $235 $236 $376 reversed $145 $-1 #
coedge $-1 $236 $236 $235 $376 forward $147 $-1 #
coedge $-1 $237 $237 $148 $238 forward $232 $-1 #
edge $-1 $377 0 $377 6.2831853071796004 $237 $378 forward 7 unknown #
loop $-1 $-1 $244 $149 #
plane-surface $-1 -48.46217230750451 -3.0616499282114304 0.37173651895217574 -0.54463904215088732 0 0.83867056331134215 0.83867056331134215 0 0.54463904215088732 forward_v I I I I #
loop $-1 $-1 $379 $94 #
coedge $-1 $242 $242 $243 $380 reversed $150 $-1 #
coedge $-1 $243 $243 $242 $380 forward $152 $-1 #
coedge $-1 $244 $244 $153 $245 forward $239 $-1 #
edge $-1 $381 0 $381 6.2831853071796004 $244 $382 forward 7 unknown #
loop $-1 $-1 $251 $154 #
plane-surface $-1 -48.46217230750451 -3.0616499282114304 0.37173651895217574 -0.54463904215088732 0 0.83867056331134215 0.83867056331134215 0 0.54463904215088732 forward_v I I I I #
loop $-1 $-1 $383 $97 #
coedge $-1 $249 $249 $250 $384 reversed $155 $-1 #
coedge $-1 $250 $250 $249 $384 forward $157 $-1 #
coedge $-1 $251 $251 $158 $252 forward $246 $-1 #
edge $-1 $385 0 $385 6.2831853071796004 $251 $386 forward 7 unknown #
face $-1 $387 $388 $56 $-1 $389 reversed single #
loop $-1 $-1 $259 $159 #
plane-surface $-1 0 0 7.0494316876680259 0 0 1 1 0 0 forward_v I I I I #
coedge $-1 $390 $391 $392 $393 reversed $160 $-1 #
coedge $-1 $258 $162 $394 $395 reversed $101 $-1 #
coedge $-1 $162 $257 $390 $396 reversed $101 $-1 #
coedge $-1 $392 $397 $162 $260 forward $254 $-1 #
edge $-1 $398 2.1633049523582599 $399 12.446053590155714 $259 $400 forward 7 unknown #
loop $-1 $-1 $266 $163 #
plane-surface $-1 -48.46217230750451 24.388317167038448 0.37173651895217574 -0.54463904215088732 0 0.83867056331134215 0.83867056331134215 0 0.54463904215088732 forward_v I I I I #
loop $-1 $-1 $401 $103 #
coedge $-1 $264 $264 $265 $402 reversed $164 $-1 #
coedge $-1 $265 $265 $264 $402 forward $166 $-1 #
coedge $-1 $266 $266 $167 $267 forward $261 $-1 #
edge $-1 $403 0 $403 6.2831853071796004 $266 $404 forward 7 unknown #
loop $-1 $-1 $273 $168 #
plane-surface $-1 -48.46217230750451 24.388317167038448 0.37173651895217574 -0.54463904215088732 0 0.83867056331134215 0.83867056331134215 0 0.54463904215088732 forward_v I I I I #
loop $-1 $-1 $405 $106 #
coedge $-1 $271 $271 $272 $406 reversed $169 $-1 #
coedge $-1 $272 $272 $271 $406 forward $171 $-1 #
coedge $-1 $273 $273 $172 $274 forward $268 $-1 #
edge $-1 $407 0 $407 6.2831853071796004 $273 $408 forward 7 unknown #
loop $-1 $-1 $280 $173 #
plane-surface $-1 -48.46217230750451 24.388317167038448 0.37173651895217574 -0.54463904215088732 0 0.83867056331134215 0.83867056331134215 0 0.54463904215088732 forward_v I I I I #
loop $-1 $-1 $409 $109 #
coedge $-1 $278 $278 $279 $410 reversed $174 $-1 #
coedge $-1 $279 $279 $278 $410 forward $176 $-1 #
coedge $-1 $280 $280 $177 $281 forward $275 $-1 #
edge $-1 $411 0 $411 6.2831853071796004 $280 $412 forward 7 unknown #
face $-1 $413 $414 $60 $-1 $415 forward single #
loop $-1 $-1 $416 $178 #
plane-surface $-1 19.963359822873272 -6.1232998564228609 134.44811342802544 0 1 0 0.54463904215088732 0 0.83867056331134215 forward_v I I I I #
coedge $-1 $417 $418 $419 $420 reversed $179 $-1 #
coedge $-1 $287 $181 $421 $422 reversed $113 $-1 #
coedge $-1 $181 $286 $417 $423 reversed $113 $-1 #
coedge $-1 $419 $424 $181 $289 forward $414 $-1 #
edge $-1 $425 -38.480492396067866 $426 -28.197743758270406 $288 $427 forward 7 unknown #
loop $-1 $-1 $295 $182 #
plane-surface $-1 -32.825422389347743 -3.0616499282114304 53.160518731173184 0.54463904215088732 0 0.83867056331134215 0.83867056331134215 0 -0.54463904215088732 forward_v I I I I #
loop $-1 $-1 $428 $115 #
coedge $-1 $293 $293 $294 $429 reversed $183 $-1 #
coedge $-1 $294 $294 $293 $429 forward $185 $-1 #
coedge $-1 $295 $295 $186 $296 forward $290 $-1 #
edge $-1 $430 0 $430 6.2831853071796004 $295 $431 forward 7 unknown #
loop $-1 $-1 $302 $187 #
plane-surface $-1 -32.825422389347743 -3.0616499282114304 53.160518731173184 0.54463904215088732 0 0.83867056331134215 0.83867056331134215 0 -0.54463904215088732 forward_v I I I I #
loop $-1 $-1 $432 $118 #
coedge $-1 $300 $300 $301 $433 reversed $188 $-1 #
coedge $-1 $301 $301 $300 $433 forward $190 $-1 #
coedge $-1 $302 $302 $191 $303 forward $297 $-1 #
edge $-1 $434 0 $434 6.2831853071796004 $302 $435 forward 7 unknown #
loop $-1 $-1 $309 $192 #
plane-surface $-1 -32.825422389347743 -3.0616499282114304 53.160518731173184 0.54463904215088732 0 0.83867056331134215 0.83867056331134215 0 -0.54463904215088732 forward_v I I I I #
loop $-1 $-1 $436 $121 #
coedge $-1 $307 $307 $308 $437 reversed $193 $-1 #
coedge $-1 $308 $308 $307 $437 forward $195 $-1 #
coedge $-1 $309 $309 $196 $310 forward $304 $-1 #
edge $-1 $438 0 $438 6.2831853071796004 $309 $439 forward 7 unknown #
face $-1 $440 $441 $64 $-1 $442 forward single #
loop $-1 $-1 $317 $197 #
plane-surface $-1 48.462172307504503 0 0 -1 0 0 0 0 1 forward_v I I I I #
coedge $-1 $443 $444 $445 $446 reversed $198 $-1 #
coedge $-1 $316 $200 $447 $448 reversed $125 $-1 #
coedge $-1 $200 $315 $443 $449 reversed $125 $-1 #
coedge $-1 $445 $450 $200 $318 forward $312 $-1 #
edge $-1 $451 60.174625026344692 $452 66.852320195060543 $317 $453 forward 7 unknown #
loop $-1 $-1 $324 $201 #
plane-surface $-1 -32.825422389347743 24.388317167038448 53.160518731173184 0.54463904215088732 0 0.83867056331134215 0.83867056331134215 0 -0.54463904215088732 forward_v I I I I #
loop $-1 $-1 $454 $127 #
coedge $-1 $322 $322 $323 $455 reversed $202 $-1 #
coedge $-1 $323 $323 $322 $455 forward $204 $-1 #
coedge $-1 $324 $324 $205 $325 forward $319 $-1 #
edge $-1 $456 0 $456 6.2831853071796004 $324 $457 forward 7 unknown #
loop $-1 $-1 $331 $206 #
plane-surface $-1 -32.825422389347743 24.388317167038448 53.160518731173184 0.54463904215088732 0 0.83867056331134215 0.83867056331134215 0 -0.54463904215088732 forward_v I I I I #
loop $-1 $-1 $458 $130 #
coedge $-1 $329 $329 $330 $459 reversed $207 $-1 #
coedge $-1 $330 $330 $329 $459 forward $209 $-1 #
coedge $-1 $331 $331 $210 $332 forward $326 $-1 #
edge $-1 $460 0 $460 6.2831853071796004 $331 $461 forward 7 unknown #
loop $-1 $-1 $338 $211 #
plane-surface $-1 -32.825422389347743 24.388317167038448 53.160518731173184 0.54463904215088732 0 0.83867056331134215 0.83867056331134215 0 -0.54463904215088732 forward_v I I I I #
loop $-1 $-1 $462 $133 #
coedge $-1 $336 $336 $337 $463 reversed $212 $-1 #
coedge $-1 $337 $337 $336 $463 forward $214 $-1 #
coedge $-1 $338 $338 $215 $339 forward $333 $-1 #
edge $-1 $464 0 $464 6.2831853071796004 $338 $465 forward 7 unknown #
face $-1 $466 $467 $51 $-1 $468 reversed single #
loop $-1 $-1 $469 $216 #
plane-surface $-1 -48.462172307504503 0 0 1 0 0 0 0 -1 forward_v I I I I #
coedge $-1 $470 $351 $471 $472 forward $217 $-1 #
coedge $-1 $473 $219 $470 $474 forward $137 $-1 #
coedge $-1 $219 $473 $475 $476 forward $137 $-1 #
coedge $-1 $354 $353 $219 $347 reversed $355 $-1 #
edge $-1 $477 -27.449967095249878 $478 27.449967095249878 $346 $479 forward 7 unknown #
coedge $-1 $221 $220 $480 $481 forward $86 $-1 #
coedge $-1 $482 $483 $220 $350 reversed $467 $-1 #
edge $-1 $357 -48.462172307504503 $484 48.462172307504503 $349 $485 forward 7 unknown #
coedge $-1 $343 $486 $221 $352 reversed $217 $-1 #
edge $-1 $487 -48.462172307504503 $356 48.462172307504503 $351 $488 forward 7 unknown #
coedge $-1 $346 $222 $486 $489 forward $355 $-1 #
coedge $-1 $222 $346 $482 $490 reversed $355 $-1 #
loop $-1 $-1 $353 $466 #
vertex $-1 $223 $491 #
vertex $-1 $223 $492 #
straight-curve $-1 48.462172307504503 0 7.0494316876680259 0 1 0 I I #
face $-1 $-1 $371 $52 $-1 $493 forward single #
loop $-1 $-1 $494 $224 #
plane-surface $-1 -48.462172307504503 0 0 1 0 0 0 0 -1 forward_v I I I I #
coedge $-1 $495 $496 $497 $498 reversed $225 $-1 #
coedge $-1 $499 $227 $229 $369 forward $141 $-1 #
coedge $-1 $227 $499 $495 $500 forward $141 $-1 #
coedge $-1 $497 $230 $227 $366 forward $371 $-1 #
edge $-1 $373 -4.5924748923171457 $501 1.5308249641057152 $365 $502 forward 7 unknown #
coedge $-1 $503 $504 $228 $368 forward $360 $-1 #
edge $-1 $505 -40.457929088950031 $372 -33.780233920234188 $367 $506 forward 7 unknown #
edge $-1 $373 -12.260772092915541 $505 -8.4684966040957343e-015 $229 $507 forward 7 unknown #
coedge $-1 $230 $497 $503 $508 forward $371 $-1 #
loop $-1 $-1 $497 $359 #
vertex $-1 $368 $509 #
vertex $-1 $231 $510 #
straight-curve $-1 -50.625477259862762 -6.1232998564228609 7.0494316876680259 1 0 0 I I #
coedge $-1 $375 $375 $-1 $511 reversed $234 $-1 #
edge $-1 $512 0 $512 6.2831853071796004 $235 $513 forward 7 unknown #
vertex $-1 $238 $514 #
ellipse-curve $-1 -43.320797988605776 -4.8986398851382873 3.7105841033101061 -0.54463904215088732 0 0.83867056331134215 0.41933528165567108 0 0.27231952107544366 1 I I #
coedge $-1 $379 $379 $-1 $515 reversed $241 $-1 #
edge $-1 $516 0 $516 6.2831853071796004 $242 $517 forward 7 unknown #
vertex $-1 $245 $518 #
ellipse-curve $-1 -43.320797988605776 -3.0616499282114304 3.7105841033101061 -0.54463904215088732 0 0.83867056331134215 0.41933528165567108 0 0.27231952107544366 1 I I #
coedge $-1 $383 $383 $-1 $519 reversed $248 $-1 #
edge $-1 $520 0 $520 6.2831853071796004 $249 $521 forward 7 unknown #
vertex $-1 $252 $522 #
ellipse-curve $-1 -43.320797988605776 -1.2246599712845736 3.7105841033101061 -0.54463904215088732 0 0.83867056331134215 0.41933528165567108 0 0.27231952107544366 1 I I #
face $-1 $-1 $523 $56 $-1 $524 reversed single #
loop $-1 $-1 $525 $253 #
plane-surface $-1 0 27.449967095249878 0 0 -1 0 0 0 -1 forward_v I I I I #
coedge $-1 $526 $256 $258 $396 forward $160 $-1 #
coedge $-1 $256 $526 $525 $527 reversed $160 $-1 #
coedge $-1 $528 $259 $256 $393 forward $254 $-1 #
edge $-1 $399 9.1325086553077934 $529 15.255808511730654 $392 $530 forward 7 unknown #
coedge $-1 $531 $532 $257 $395 forward $523 $-1 #
edge $-1 $533 -40.457929088950031 $398 -33.780233920234188 $394 $534 forward 7 unknown #
edge $-1 $399 -12.260772092915541 $533 -8.4684966040957343e-015 $258 $535 forward 7 unknown #
coedge $-1 $259 $528 $531 $536 forward $254 $-1 #
vertex $-1 $395 $537 #
vertex $-1 $260 $538 #
straight-curve $-1 -50.625477259862762 21.326667238827017 7.0494316876680259 1 0 0 I I #
coedge $-1 $401 $401 $-1 $539 reversed $263 $-1 #
edge $-1 $540 0 $540 6.2831853071796004 $264 $541 forward 7 unknown #
vertex $-1 $267 $542 #
ellipse-curve $-1 -43.320797988605776 22.551327210111591 3.7105841033101061 -0.54463904215088732 0 0.83867056331134215 0.41933528165567108 0 0.27231952107544366 1 I I #
coedge $-1 $405 $405 $-1 $543 reversed $270 $-1 #
edge $-1 $544 0 $544 6.2831853071796004 $271 $545 forward 7 unknown #
vertex $-1 $274 $546 #
ellipse-curve $-1 -43.320797988605776 24.388317167038448 3.7105841033101061 -0.54463904215088732 0 0.83867056331134215 0.41933528165567108 0 0.27231952107544366 1 I I #
coedge $-1 $409 $409 $-1 $547 reversed $277 $-1 #
edge $-1 $548 0 $548 6.2831853071796004 $278 $549 forward 7 unknown #
vertex $-1 $281 $550 #
ellipse-curve $-1 -43.320797988605776 26.225307123965305 3.7105841033101061 -0.54463904215088732 0 0.83867056331134215 0.41933528165567108 0 0.27231952107544366 1 I I #
face $-1 $-1 $551 $60 $-1 $552 reversed single #
loop $-1 $-1 $288 $282 #
plane-surface $-1 0 0 7.0494316876680259 0 0 1 1 0 0 forward_v I I I I #
coedge $-1 $553 $554 $555 $556 reversed $283 $-1 #
coedge $-1 $557 $285 $287 $423 forward $179 $-1 #
coedge $-1 $285 $557 $553 $558 forward $179 $-1 #
coedge $-1 $555 $288 $285 $420 forward $414 $-1 #
edge $-1 $426 -1.5308249641057152 $559 4.5924748923171457 $419 $560 forward 7 unknown #
coedge $-1 $561 $562 $286 $422 forward $551 $-1 #
edge $-1 $563 -66.852320195060543 $425 -60.174625026344692 $421 $564 forward 7 unknown #
edge $-1 $426 84.663572522093446 $563 96.924344615008977 $287 $565 forward 7 unknown #
coedge $-1 $288 $555 $561 $566 forward $414 $-1 #
vertex $-1 $422 $567 #
vertex $-1 $289 $568 #
straight-curve $-1 9.9816799114366361 0 7.0494316876680259 -1 0 0 I I #
coedge $-1 $428 $428 $-1 $569 reversed $292 $-1 #
edge $-1 $570 0 $570 6.2831853071796004 $293 $571 forward 7 unknown #
vertex $-1 $296 $572 #
ellipse-curve $-1 43.320797988605769 -4.8986398851382873 3.710584103310099 0.54463904215088732 0 0.83867056331134215 0.41933528165567108 0 -0.27231952107544366 1 I I #
coedge $-1 $432 $432 $-1 $573 reversed $299 $-1 #
edge $-1 $574 0 $574 6.2831853071796004 $300 $575 forward 7 unknown #
vertex $-1 $303 $576 #
ellipse-curve $-1 43.320797988605769 -3.0616499282114304 3.710584103310099 0.54463904215088732 0 0.83867056331134215 0.41933528165567108 0 -0.27231952107544366 1 I I #
coedge $-1 $436 $436 $-1 $577 reversed $306 $-1 #
edge $-1 $578 0 $578 6.2831853071796004 $307 $579 forward 7 unknown #
vertex $-1 $310 $580 #
ellipse-curve $-1 43.320797988605769 -1.2246599712845736 3.710584103310099 0.54463904215088732 0 0.83867056331134215 0.41933528165567108 0 -0.27231952107544366 1 I I #
face $-1 $-1 $581 $64 $-1 $582 reversed single #
loop $-1 $-1 $447 $311 #
plane-surface $-1 0 0 7.0494316876680259 0 0 1 1 0 0 forward_v I I I I #
coedge $-1 $583 $314 $316 $449 forward $198 $-1 #
coedge $-1 $314 $583 $584 $585 reversed $198 $-1 #
coedge $-1 $586 $317 $314 $446 forward $312 $-1 #
edge $-1 $452 9.1325086553077934 $587 15.255808511730654 $445 $588 forward 7 unknown #
coedge $-1 $589 $590 $315 $448 forward $441 $-1 #
edge $-1 $591 28.197743758270406 $451 38.480492396067866 $447 $592 forward 7 unknown #
edge $-1 $452 -96.924344615008977 $591 -84.663572522093446 $316 $593 forward 7 unknown #
coedge $-1 $317 $586 $589 $594 reversed $312 $-1 #
vertex $-1 $594 $595 #
vertex $-1 $318 $596 #
straight-curve $-1 48.462172307504503 21.326667238827017 67.224056714012718 0 0 -1 I I #
coedge $-1 $454 $454 $-1 $597 reversed $321 $-1 #
edge $-1 $598 0 $598 6.2831853071796004 $322 $599 forward 7 unknown #
vertex $-1 $325 $600 #
ellipse-curve $-1 43.320797988605769 22.551327210111591 3.710584103310099 0.54463904215088732 0 0.83867056331134215 0.41933528165567108 0 -0.27231952107544366 1 I I #
coedge $-1 $458 $458 $-1 $601 reversed $328 $-1 #
edge $-1 $602 0 $602 6.2831853071796004 $329 $603 forward 7 unknown #
vertex $-1 $332 $604 #
ellipse-curve $-1 43.320797988605769 24.388317167038448 3.710584103310099 0.54463904215088732 0 0.83867056331134215 0.41933528165567108 0 -0.27231952107544366 1 I I #
coedge $-1 $462 $462 $-1 $605 reversed $335 $-1 #
edge $-1 $606 0 $606 6.2831853071796004 $336 $607 forward 7 unknown #
vertex $-1 $339 $608 #
ellipse-curve $-1 43.320797988605769 26.225307123965305 3.710584103310099 0.54463904215088732 0 0.83867056331134215 0.41933528165567108 0 -0.27231952107544366 1 I I #
face $-1 $-1 $355 $51 $-1 $609 reversed single #
loop $-1 $-1 $482 $340 #
plane-surface $-1 0 27.449967095249878 0 0 -1 0 0 0 -1 forward_v I I I I #
coedge $-1 $610 $480 $483 $611 forward $341 $-1 #
coedge $-1 $486 $343 $344 $474 reversed $217 $-1 #
coedge $-1 $480 $610 $343 $472 reversed $341 $-1 #
edge $-1 $487 -7.0494316876680259 $612 7.0494316876680259 $471 $613 forward 7 unknown #
coedge $-1 $345 $344 $610 $614 forward $137 $-1 #
edge $-1 $478 -48.462172307504503 $612 48.462172307504503 $470 $615 forward 7 unknown #
coedge $-1 $483 $482 $345 $476 reversed $467 $-1 #
edge $-1 $616 -48.462172307504503 $477 48.462172307504503 $475 $617 forward 7 unknown #
vertex $-1 $347 $618 #
vertex $-1 $489 $619 #
straight-curve $-1 48.462172307504503 0 -7.0494316876680259 0 -1 0 I I #
coedge $-1 $469 $471 $348 $481 reversed $341 $-1 #
edge $-1 $484 -27.449967095249878 $487 27.449967095249878 $480 $620 forward 7 unknown #
coedge $-1 $475 $349 $354 $490 forward $467 $-1 #
coedge $-1 $349 $475 $469 $611 reversed $467 $-1 #
vertex $-1 $350 $621 #
straight-curve $-1 0 27.449967095249878 7.0494316876680259 -1 0 0 I I #
coedge $-1 $351 $470 $353 $489 reversed $217 $-1 #
vertex $-1 $481 $622 #
straight-curve $-1 0 -27.449967095249878 7.0494316876680259 1 0 0 I I #
edge $-1 $356 -7.0494316876680259 $478 7.0494316876680259 $353 $623 forward 7 unknown #
edge $-1 $357 -7.0494316876680259 $477 7.0494316876680259 $354 $624 forward 7 unknown #
point $-1 48.462172307504503 -27.449967095249878 7.0494316876680259 #
point $-1 48.462172307504503 27.449967095249878 7.0494316876680259 #
plane-surface $-1 0 0 7.0494316876680259 0 0 1 1 0 0 forward_v I I I I #
coedge $-1 $504 $503 $496 $625 forward $360 $-1 #
coedge $-1 $496 $362 $364 $500 reversed $225 $-1 #
coedge $-1 $362 $495 $494 $625 reversed $225 $-1 #
coedge $-1 $370 $365 $362 $498 forward $371 $-1 #
edge $-1 $501 -12.446053590155714 $626 -2.1633049523582599 $497 $627 forward 7 unknown #
coedge $-1 $364 $363 $504 $628 reversed $141 $-1 #
edge $-1 $629 8.4684966040957343e-015 $501 12.260772092915541 $495 $630 forward 7 unknown #
vertex $-1 $366 $631 #
straight-curve $-1 -38.179423669707049 -1.5308249641057152 7.049431687668025 0 1 0 I I #
coedge $-1 $494 $367 $370 $508 reversed $360 $-1 #
coedge $-1 $367 $494 $499 $628 forward $360 $-1 #
vertex $-1 $368 $632 #
straight-curve $-1 -48.462172307504503 -6.1232998564228609 40.829665607902214 0 0 1 I I #
straight-curve $-1 -48.46217230750451 -6.1232998564228609 0.37173651895217574 -0.83867056331134215 0 -0.54463904215088732 I I #
edge $-1 $626 0 $372 6.1232998564228609 $503 $633 forward 7 unknown #
point $-1 -48.462172307504503 -6.1232998564228609 7.0494316876680259 #
point $-1 -38.179423669707049 -6.1232998564228609 7.0494316876680259 #
edge $-1 $634 1 $634 0 $375 $-1 forward 7 unknown #
vertex $-1 $376 $635 #
ellipse-curve $-1 -42.444716494597529 -4.8986398851382873 2.3615369303698612 -0.54463904215088732 0 0.83867056331134215 0.41933528165567108 0 0.27231952107544366 1 I I #
point $-1 -42.901462706950092 -4.8986398851382873 3.9829036243855365 #
edge $-1 $636 1 $636 0 $379 $-1 forward 7 unknown #
vertex $-1 $380 $637 #
ellipse-curve $-1 -42.444716494597529 -3.0616499282114304 2.3615369303698612 -0.54463904215088732 0 0.83867056331134215 0.41933528165567108 0 0.27231952107544366 1 I I #
point $-1 -42.901462706950092 -3.0616499282114304 3.9829036243855365 #
edge $-1 $638 1 $638 0 $383 $-1 forward 7 unknown #
vertex $-1 $384 $639 #
ellipse-curve $-1 -42.444716494597529 -1.2246599712845736 2.3615369303698612 -0.54463904215088732 0 0.83867056331134215 0.41933528165567108 0 0.27231952107544366 1 I I #
point $-1 -42.901462706950092 -1.2246599712845736 3.9829036243855365 #
loop $-1 $-1 $394 $387 #
plane-surface $-1 -48.462172307504503 0 0 1 0 0 0 0 -1 forward_v I I I I #
coedge $-1 $640 $641 $391 $527 forward $388 $-1 #
coedge $-1 $391 $390 $532 $642 reversed $160 $-1 #
edge $-1 $529 7.9598954704902178 $643 20.220667563405751 $525 $644 forward 7 unknown #
coedge $-1 $397 $392 $641 $645 forward $254 $-1 #
vertex $-1 $645 $646 #
straight-curve $-1 -38.179423669707049 12.194158583519224 7.049431687668025 0 1 0 I I #
coedge $-1 $647 $394 $397 $536 reversed $523 $-1 #
coedge $-1 $394 $647 $526 $642 forward $523 $-1 #
vertex $-1 $395 $648 #
straight-curve $-1 -48.462172307504503 21.326667238827017 40.829665607902214 0 0 1 I I #
straight-curve $-1 -48.46217230750451 21.326667238827017 0.37173651895217574 -0.83867056331134215 0 -0.54463904215088732 I I #
edge $-1 $649 -27.449967095249878 $398 -21.326667238827017 $531 $650 forward 7 unknown #
point $-1 -48.462172307504503 21.326667238827017 7.0494316876680259 #
point $-1 -38.179423669707049 21.326667238827017 7.0494316876680259 #
edge $-1 $651 1 $651 0 $401 $-1 forward 7 unknown #
vertex $-1 $402 $652 #
ellipse-curve $-1 -42.444716494597529 22.551327210111591 2.3615369303698612 -0.54463904215088732 0 0.83867056331134215 0.41933528165567108 0 0.27231952107544366 1 I I #
point $-1 -42.901462706950092 22.551327210111591 3.9829036243855365 #
edge $-1 $653 1 $653 0 $405 $-1 forward 7 unknown #
vertex $-1 $406 $654 #
ellipse-curve $-1 -42.444716494597529 24.388317167038448 2.3615369303698612 -0.54463904215088732 0 0.83867056331134215 0.41933528165567108 0 0.27231952107544366 1 I I #
point $-1 -42.901462706950092 24.388317167038448 3.9829036243855365 #
edge $-1 $655 1 $655 0 $409 $-1 forward 7 unknown #
vertex $-1 $410 $656 #
ellipse-curve $-1 -42.444716494597529 26.225307123965305 2.3615369303698612 -0.54463904215088732 0 0.83867056331134215 0.41933528165567108 0 0.27231952107544366 1 I I #
point $-1 -42.901462706950092 26.225307123965305 3.9829036243855365 #
loop $-1 $-1 $421 $413 #
plane-surface $-1 48.462172307504503 0 0 -1 0 0 0 0 1 forward_v I I I I #
coedge $-1 $554 $416 $418 $558 reversed $283 $-1 #
coedge $-1 $416 $553 $657 $658 reversed $283 $-1 #
coedge $-1 $424 $419 $416 $556 forward $414 $-1 #
edge $-1 $559 28.197743758270406 $659 38.480492396067866 $555 $660 forward 7 unknown #
coedge $-1 $418 $417 $562 $661 reversed $179 $-1 #
edge $-1 $662 -96.924344615008977 $559 -84.663572522093446 $553 $663 forward 7 unknown #
vertex $-1 $420 $664 #
straight-curve $-1 38.179423669707035 -1.5308249641057152 7.0494316876680223 0 -1 0 I I #
coedge $-1 $657 $421 $424 $566 reversed $551 $-1 #
coedge $-1 $421 $657 $557 $661 forward $551 $-1 #
vertex $-1 $422 $665 #
straight-curve $-1 48.462172307504503 0 67.224056714012718 0 0 1 I I #
straight-curve $-1 -32.825422389347743 0 53.160518731173184 0.83867056331134215 0 -0.54463904215088732 I I #
edge $-1 $659 -6.1232998564228609 $425 0 $561 $666 forward 7 unknown #
point $-1 48.462172307504503 0 7.0494316876680259 #
point $-1 38.179423669707042 0 7.0494316876680259 #
edge $-1 $667 1 $667 0 $428 $-1 forward 7 unknown #
vertex $-1 $429 $668 #
ellipse-curve $-1 42.444716494597529 -4.8986398851382873 2.361536930369863 0.54463904215088732 0 0.83867056331134215 0.41933528165567108 0 -0.27231952107544366 1 I I #
point $-1 43.740133270261438 -4.8986398851382873 3.4382645822346509 #
edge $-1 $669 1 $669 0 $432 $-1 forward 7 unknown #
vertex $-1 $433 $670 #
ellipse-curve $-1 42.444716494597529 -3.0616499282114304 2.361536930369863 0.54463904215088732 0 0.83867056331134215 0.41933528165567108 0 -0.27231952107544366 1 I I #
point $-1 43.740133270261438 -3.0616499282114304 3.4382645822346509 #
edge $-1 $671 1 $671 0 $436 $-1 forward 7 unknown #
vertex $-1 $437 $672 #
ellipse-curve $-1 42.444716494597529 -1.2246599712845736 2.361536930369863 0.54463904215088732 0 0.83867056331134215 0.41933528165567108 0 -0.27231952107544366 1 I I #
point $-1 43.740133270261438 -1.2246599712845736 3.4382645822346509 #
loop $-1 $-1 $584 $440 #
plane-surface $-1 0 27.449967095249878 0 0 -1 0 0 0 -1 forward_v I I I I #
coedge $-1 $444 $443 $590 $673 reversed $198 $-1 #
coedge $-1 $674 $675 $444 $585 forward $581 $-1 #
edge $-1 $587 -68.682839870910243 $676 -56.422067777994712 $584 $677 forward 7 unknown #
coedge $-1 $450 $445 $675 $678 reversed $312 $-1 #
vertex $-1 $446 $679 #
straight-curve $-1 48.462172307504495 12.194158583519224 0.37173651895217219 0 1 0 I I #
coedge $-1 $680 $447 $450 $594 forward $441 $-1 #
coedge $-1 $447 $680 $583 $673 forward $441 $-1 #
vertex $-1 $448 $681 #
straight-curve $-1 9.9816799114366361 21.326667238827017 7.0494316876680259 1 0 0 I I #
straight-curve $-1 -32.825422389347743 21.326667238827017 53.160518731173184 -0.83867056331134215 0 0.54463904215088732 I I #
edge $-1 $451 21.326667238827017 $682 27.449967095249878 $450 $683 forward 7 unknown #
point $-1 48.462172307504503 21.326667238827017 7.0494316876680259 #
point $-1 48.462172307504495 21.326667238827017 0.37173651895217574 #
edge $-1 $684 1 $684 0 $454 $-1 forward 7 unknown #
vertex $-1 $455 $685 #
ellipse-curve $-1 42.444716494597529 22.551327210111591 2.361536930369863 0.54463904215088732 0 0.83867056331134215 0.41933528165567108 0 -0.27231952107544366 1 I I #
point $-1 43.740133270261438 22.551327210111591 3.4382645822346509 #
edge $-1 $686 1 $686 0 $458 $-1 forward 7 unknown #
vertex $-1 $459 $687 #
ellipse-curve $-1 42.444716494597529 24.388317167038448 2.361536930369863 0.54463904215088732 0 0.83867056331134215 0.41933528165567108 0 -0.27231952107544366 1 I I #
point $-1 43.740133270261438 24.388317167038448 3.4382645822346509 #
edge $-1 $688 1 $688 0 $462 $-1 forward 7 unknown #
vertex $-1 $463 $689 #
ellipse-curve $-1 42.444716494597529 26.225307123965305 2.361536930369863 0.54463904215088732 0 0.83867056331134215 0.41933528165567108 0 -0.27231952107544366 1 I I #
point $-1 43.740133270261438 26.225307123965305 3.4382645822346509 #
plane-surface $-1 48.462172307504503 0 0 -1 0 0 0 0 1 forward_v I I I I #
coedge $-1 $471 $469 $473 $614 reversed $341 $-1 #
edge $-1 $484 -7.0494316876680259 $616 7.0494316876680259 $483 $690 forward 7 unknown #
vertex $-1 $614 $691 #
straight-curve $-1 -48.462172307504503 -27.449967095249878 0 0 0 -1 I I #
edge $-1 $612 -27.449967095249878 $616 27.449967095249878 $610 $692 forward 7 unknown #
straight-curve $-1 0 -27.449967095249878 -7.0494316876680259 -1 0 0 I I #
vertex $-1 $476 $693 #
straight-curve $-1 0 27.449967095249878 -7.0494316876680259 1 0 0 I I #
point $-1 48.462172307504503 27.449967095249878 -7.0494316876680259 #
point $-1 48.462172307504503 -27.449967095249878 -7.0494316876680259 #
straight-curve $-1 -48.462172307504503 0 7.0494316876680259 0 -1 0 I I #
point $-1 -48.462172307504503 27.449967095249878 7.0494316876680259 #
point $-1 -48.462172307504503 -27.449967095249878 7.0494316876680259 #
straight-curve $-1 48.462172307504503 -27.449967095249878 0 0 0 -1 I I #
straight-curve $-1 48.462172307504503 27.449967095249878 0 0 0 -1 I I #
edge $-1 $626 33.780233920234188 $629 40.457929088950031 $494 $694 forward 7 unknown #
vertex $-1 $508 $695 #
straight-curve $-1 -50.625477259862762 0 7.0494316876680259 -1 0 0 I I #
edge $-1 $629 -1.5308249641057152 $505 4.5924748923171457 $504 $696 forward 7 unknown #
vertex $-1 $628 $697 #
straight-curve $-1 -48.46217230750451 0 0.37173651895217574 0.83867056331134215 0 0.54463904215088732 I I #
point $-1 -38.179423669707049 0 7.0494316876680259 #
point $-1 -48.462172307504503 -6.1232998564228609 0.37173651895218035 #
straight-curve $-1 -48.462172307504503 0 7.0494316876680259 0 -1 0 I I #
vertex $-1 $511 $698 #
point $-1 -42.025381212941859 -4.8986398851382873 2.6338564514453049 #
vertex $-1 $515 $699 #
point $-1 -42.025381212941859 -3.0616499282114304 2.6338564514453049 #
vertex $-1 $519 $700 #
point $-1 -42.025381212941859 -1.2246599712845736 2.6338564514453049 #
coedge $-1 $641 $525 $647 $701 reversed $388 $-1 #
coedge $-1 $525 $640 $528 $645 reversed $388 $-1 #
edge $-1 $643 -15.255808511730654 $533 -9.1325086553077934 $532 $702 forward 7 unknown #
vertex $-1 $527 $703 #
straight-curve $-1 -31.503693651571616 27.449967095249878 11.384701532337004 -0.83867056331134215 0 -0.54463904215088732 I I #
edge $-1 $529 38.179423669707049 $649 48.462172307504503 $641 $704 forward 7 unknown #
point $-1 -38.179423669707049 27.449967095249878 7.0494316876680259 #
coedge $-1 $532 $531 $640 $701 forward $523 $-1 #
point $-1 -48.462172307504503 21.326667238827017 0.37173651895218035 #
vertex $-1 $645 $705 #
straight-curve $-1 -48.462172307504503 0 7.0494316876680259 0 -1 0 I I #
vertex $-1 $539 $706 #
point $-1 -42.025381212941859 22.551327210111591 2.6338564514453049 #
vertex $-1 $543 $707 #
point $-1 -42.025381212941859 24.388317167038448 2.6338564514453049 #
vertex $-1 $547 $708 #
point $-1 -42.025381212941859 26.225307123965305 2.6338564514453049 #
coedge $-1 $562 $561 $554 $658 forward $551 $-1 #
edge $-1 $659 60.174625026344692 $662 66.852320195060543 $657 $709 forward 7 unknown #
vertex $-1 $566 $710 #
straight-curve $-1 9.9816799114366361 -6.1232998564228609 7.0494316876680259 1 0 0 I I #
edge $-1 $662 -4.5924748923171457 $563 1.5308249641057152 $562 $711 forward 7 unknown #
vertex $-1 $661 $712 #
straight-curve $-1 -32.825422389347743 -6.1232998564228609 53.160518731173184 -0.83867056331134215 0 0.54463904215088732 I I #
point $-1 38.179423669707042 -6.1232998564228609 7.0494316876680259 #
point $-1 48.462172307504495 0 0.37173651895217574 #
straight-curve $-1 48.462172307504503 0 7.0494316876680259 0 1 0 I I #
vertex $-1 $569 $713 #
point $-1 42.864051776253199 -4.8986398851382873 2.0892174092944193 #
vertex $-1 $573 $714 #
point $-1 42.864051776253199 -3.0616499282114304 2.0892174092944193 #
vertex $-1 $577 $715 #
point $-1 42.864051776253199 -1.2246599712845736 2.0892174092944193 #
edge $-1 $676 -15.255808511730654 $591 -9.1325086553077934 $590 $716 forward 7 unknown #
coedge $-1 $675 $584 $680 $717 reversed $581 $-1 #
coedge $-1 $584 $674 $586 $678 forward $581 $-1 #
vertex $-1 $585 $718 #
straight-curve $-1 -9.1401036968545117 27.449967095249878 37.779092638447501 -0.83867056331134215 0 0.54463904215088732 I I #
edge $-1 $682 -7.0494316876680259 $587 -0.37173651895217236 $586 $719 forward 7 unknown #
point $-1 48.462172307504503 27.449967095249878 0.37173651895217236 #
coedge $-1 $590 $589 $674 $717 forward $441 $-1 #
point $-1 38.179423669707042 21.326667238827017 7.0494316876680259 #
vertex $-1 $594 $720 #
straight-curve $-1 48.462172307504503 0 7.0494316876680259 0 1 0 I I #
vertex $-1 $597 $721 #
point $-1 42.864051776253199 22.551327210111591 2.0892174092944193 #
vertex $-1 $601 $722 #
point $-1 42.864051776253199 24.388317167038448 2.0892174092944193 #
vertex $-1 $605 $723 #
point $-1 42.864051776253199 26.225307123965305 2.0892174092944193 #
straight-curve $-1 -48.462172307504503 27.449967095249878 0 0 0 -1 I I #
point $-1 -48.462172307504503 -27.449967095249878 -7.0494316876680259 #
straight-curve $-1 -48.462172307504503 0 -7.0494316876680259 0 1 0 I I #
point $-1 -48.462172307504503 27.449967095249878 -7.0494316876680259 #
straight-curve $-1 -48.462172307504503 0 40.829665607902214 0 0 -1 I I #
point $-1 -48.462172307504503 0 7.0494316876680259 #
straight-curve $-1 -48.462172307504503 -1.5308249641057152 0.37173651895218029 0 -1 0 I I #
point $-1 -48.462172307504503 0 0.37173651895218035 #
point $-1 -42.172396973522083 -4.8986398851382873 1.94220164871419 #
point $-1 -42.172396973522083 -3.0616499282114304 1.94220164871419 #
point $-1 -42.172396973522083 -1.2246599712845736 1.94220164871419 #
edge $-1 $649 -7.0494316876680259 $643 -0.37173651895218035 $640 $724 forward 7 unknown #
straight-curve $-1 -48.462172307504503 12.194158583519224 0.37173651895218029 0 -1 0 I I #
point $-1 -48.462172307504503 27.449967095249878 0.37173651895218035 #
straight-curve $-1 0 27.449967095249878 7.0494316876680259 -1 0 0 I I #
point $-1 -48.462172307504503 27.449967095249878 7.0494316876680259 #
point $-1 -42.172396973522083 22.551327210111591 1.94220164871419 #
point $-1 -42.172396973522083 24.388317167038448 1.94220164871419 #
point $-1 -42.172396973522083 26.225307123965305 1.94220164871419 #
straight-curve $-1 48.462172307504503 -6.1232998564228609 67.224056714012718 0 0 -1 I I #
point $-1 48.462172307504503 -6.1232998564228609 7.0494316876680259 #
straight-curve $-1 48.462172307504495 -1.5308249641057152 0.37173651895217219 0 1 0 I I #
point $-1 48.462172307504495 -6.1232998564228609 0.37173651895217574 #
point $-1 42.172396973522083 -4.8986398851382873 1.9422016487141918 #
point $-1 42.172396973522083 -3.0616499282114304 1.9422016487141918 #
point $-1 42.172396973522083 -1.2246599712845736 1.9422016487141918 #
straight-curve $-1 38.179423669707035 12.194158583519224 7.0494316876680223 0 -1 0 I I #
edge $-1 $682 -48.462172307504503 $676 -38.179423669707042 $674 $725 forward 7 unknown #
point $-1 38.179423669707042 27.449967095249878 7.0494316876680259 #
straight-curve $-1 48.462172307504503 27.449967095249878 0 0 0 -1 I I #
point $-1 48.462172307504503 27.449967095249878 7.0494316876680259 #
point $-1 42.172396973522083 22.551327210111591 1.9422016487141918 #
point $-1 42.172396973522083 24.388317167038448 1.9422016487141918 #
point $-1 42.172396973522083 26.225307123965305 1.9422016487141918 #
straight-curve $-1 -48.462172307504503 27.449967095249878 0 0 0 -1 I I #
straight-curve $-1 0 27.449967095249878 7.0494316876680259 -1 0 0 I I #
End-of-ACIS-data 