500 0 6 0           
7 Unknown 11 ACIS 5.0 NT 24 Fri Mar 26 15:01:20 1999 
-1 9.9999999999999995e-007 1e-010 
body $-1 $6 $-1 $7 #
body $-1 $8 $-1 $9 #
body $-1 $10 $-1 $11 #
body $-1 $12 $-1 $13 #
body $-1 $14 $-1 $15 #
body $-1 $16 $-1 $17 #
lump $-1 $-1 $18 $0 #
transform $-1 1 0 0 0 1 0 0 0 1 45.22598956266976 21.888236118065191 10.377189564101661 1 rotate no_reflect no_shear #
lump $-1 $-1 $19 $1 #
transform $-1 1 0 0 0 1 0 0 0 1 45.22598956266976 21.888236118065191 10.377189564101661 1 rotate no_reflect no_shear #
lump $-1 $-1 $20 $2 #
transform $-1 1 0 0 0 1 0 0 0 1 45.22598956266976 21.888236118065191 10.377189564101661 1 rotate no_reflect no_shear #
lump $-1 $-1 $21 $3 #
transform $-1 1 0 0 0 1 0 0 0 1 45.22598956266976 21.888236118065191 10.377189564101661 1 rotate no_reflect no_shear #
lump $-1 $-1 $22 $4 #
transform $-1 1 0 0 0 1 0 0 0 1 45.22598956266976 21.888236118065191 10.377189564101661 1 rotate no_reflect no_shear #
lump $-1 $-1 $23 $5 #
transform $-1 1 0 0 0 1 0 0 0 1 45.22598956266976 21.888236118065191 10.377189564101661 1 rotate no_reflect no_shear #
shell $-1 $-1 $-1 $24 $-1 $6 #
shell $-1 $-1 $-1 $25 $-1 $8 #
shell $-1 $-1 $-1 $26 $-1 $10 #
shell $-1 $-1 $-1 $27 $-1 $12 #
shell $-1 $-1 $-1 $28 $-1 $14 #
shell $-1 $-1 $-1 $29 $-1 $16 #
face $-1 $30 $31 $18 $-1 $32 forward single #
face $-1 $33 $34 $19 $-1 $35 forward single #
face $-1 $36 $37 $20 $-1 $38 reversed single #
face $-1 $39 $40 $21 $-1 $41 forward single #
face $-1 $42 $43 $22 $-1 $44 reversed single #
face $-1 $45 $46 $23 $-1 $47 forward single #
face $-1 $48 $49 $18 $-1 $50 reversed single #
loop $-1 $-1 $51 $24 #
plane-surface $-1 0 0 10.377189564101661 0 0 1 1 0 0 forward_v I I I I #
face $-1 $52 $53 $19 $-1 $54 reversed single #
loop $-1 $-1 $55 $25 #
plane-surface $-1 -45.22598956266976 0 0 1 0 0 0 0 -1 forward_v I I I I #
face $-1 $56 $57 $20 $-1 $58 reversed single #
loop $-1 $-1 $59 $26 #
plane-surface $-1 -19.97330096035359 -73.769360634315532 75.818727038026609 -1 0 0 0 -0.57357644374324357 0.81915203911291934 forward_v I I I I #
face $-1 $60 $61 $21 $-1 $62 forward single #
loop $-1 $63 $64 $27 #
cone-surface $-1 -29.088847612081878 -12.99531276716831 2.1743178934736731 0 0.57357644374324357 -0.81915203911291934 3 0 0 1 I I 0 1 3 forward I I I I #
face $-1 $65 $66 $22 $-1 $67 reversed single #
loop $-1 $-1 $68 $28 #
plane-surface $-1 21.741890952886372 -73.769360634315532 75.818727038026609 -1 0 0 0 -0.57357644374324357 0.81915203911291934 forward_v I I I I #
face $-1 $69 $70 $23 $-1 $71 forward single #
loop $-1 $72 $73 $29 #
cone-surface $-1 12.626344301158085 -12.99531276716831 2.1743178934736731 0 0.57357644374324357 -0.81915203911291934 3 0 0 1 I I 0 1 3 forward I I I I #
face $-1 $74 $75 $18 $-1 $76 reversed single #
loop $-1 $-1 $77 $30 #
plane-surface $-1 0 0 -10.377189564101661 0 0 1 1 0 0 forward_v I I I I #
coedge $-1 $78 $79 $80 $81 forward $31 $-1 #
face $-1 $82 $83 $19 $-1 $84 forward single #
loop $-1 $-1 $85 $33 #
plane-surface $-1 0 21.888236118065191 0 0 -1 0 0 0 -1 forward_v I I I I #
coedge $-1 $86 $87 $88 $89 forward $34 $-1 #
face $-1 $90 $91 $20 $-1 $92 reversed single #
loop $-1 $-1 $93 $36 #
plane-surface $-1 -29.088847612081878 -21.888236118065187 1.7248038957055201 0 -0.57357644374324357 0.81915203911291934 1 0 0 forward_v I I I I #
coedge $-1 $94 $95 $96 $97 reversed $37 $-1 #
face $-1 $-1 $98 $21 $-1 $99 forward single #
loop $-1 $100 $101 $39 #
cone-surface $-1 -29.088847612081878 -9.4204683049309157 -2.9310890016256224 0 0.57357644374324357 -0.81915203911291934 1.5 0 0 1 I I -0.70710678118654757 0.70710678118654757 1.5 forward I I I I #
loop $-1 $-1 $102 $27 #
coedge $-1 $64 $64 $103 $104 reversed $40 $-1 #
face $-1 $105 $106 $22 $-1 $107 reversed single #
loop $-1 $-1 $108 $42 #
plane-surface $-1 12.626344301158085 -21.888236118065187 1.7248038957055201 0 -0.57357644374324357 0.81915203911291934 1 0 0 forward_v I I I I #
coedge $-1 $109 $110 $111 $112 reversed $43 $-1 #
face $-1 $-1 $113 $23 $-1 $114 forward single #
loop $-1 $115 $116 $45 #
cone-surface $-1 12.626344301158085 -9.4204683049309157 -2.9310890016256224 0 0.57357644374324357 -0.81915203911291934 1.5 0 0 1 I I -0.70710678118654757 0.70710678118654757 1.5 forward I I I I #
loop $-1 $-1 $117 $29 #
coedge $-1 $73 $73 $118 $119 reversed $46 $-1 #
face $-1 $120 $121 $18 $-1 $122 reversed single #
loop $-1 $-1 $123 $48 #
plane-surface $-1 0 -21.888236118065191 0 0 1 0 0 0 1 forward_v I I I I #
coedge $-1 $124 $125 $126 $127 forward $49 $-1 #
coedge $-1 $128 $51 $129 $130 forward $31 $-1 #
coedge $-1 $51 $128 $131 $132 forward $31 $-1 #
coedge $-1 $133 $134 $51 $81 reversed $135 $-1 #
edge $-1 $136 -21.888236118065191 $137 21.888236118065191 $80 $138 forward 7 unknown #
face $-1 $139 $140 $19 $-1 $141 reversed single #
loop $-1 $-1 $88 $52 #
plane-surface $-1 -48.736787212099557 0 -2.3846844111668268 0 0 1 1 0 0 forward_v I I I I #
coedge $-1 $142 $143 $87 $144 forward $53 $-1 #
coedge $-1 $145 $55 $146 $147 reversed $34 $-1 #
coedge $-1 $55 $145 $85 $144 reversed $34 $-1 #
coedge $-1 $148 $149 $55 $89 reversed $83 $-1 #
edge $-1 $150 -21.888236118065191 $151 21.888236118065191 $88 $152 forward 7 unknown #
face $-1 $153 $154 $20 $-1 $155 reversed single #
loop $-1 $-1 $156 $56 #
plane-surface $-1 -38.204394263810165 -73.769360634315532 75.818727038026609 1 0 0 0 0.57357644374324357 -0.81915203911291934 forward_v I I I I #
coedge $-1 $157 $158 $159 $160 reversed $57 $-1 #
coedge $-1 $95 $59 $161 $162 reversed $37 $-1 #
coedge $-1 $59 $94 $157 $163 reversed $37 $-1 #
coedge $-1 $159 $164 $59 $97 forward $165 $-1 #
edge $-1 $166 14.996444199092576 $167 27.353331307641284 $96 $168 forward 7 unknown #
loop $-1 $-1 $103 $60 #
plane-surface $-1 -29.088847612081878 -21.888236118065187 1.7248038957055201 0 -0.57357644374324357 0.81915203911291934 1 0 0 forward_v I I I I #
loop $-1 $-1 $169 $39 #
coedge $-1 $101 $101 $102 $170 reversed $61 $-1 #
coedge $-1 $102 $102 $101 $170 forward $63 $-1 #
coedge $-1 $103 $103 $64 $104 forward $98 $-1 #
edge $-1 $171 3.3962547958739457e-016 $171 6.2831853071796004 $103 $172 forward 7 unknown #
face $-1 $173 $174 $22 $-1 $175 reversed single #
loop $-1 $-1 $176 $65 #
plane-surface $-1 3.5107976494297972 -73.769360634315532 75.818727038026609 1 0 0 0 0.57357644374324357 -0.81915203911291934 forward_v I I I I #
coedge $-1 $177 $178 $179 $180 reversed $66 $-1 #
coedge $-1 $110 $68 $181 $182 reversed $43 $-1 #
coedge $-1 $68 $109 $177 $183 reversed $43 $-1 #
coedge $-1 $179 $184 $68 $112 forward $185 $-1 #
edge $-1 $186 14.996444199092576 $187 27.353331307641284 $111 $188 forward 7 unknown #
loop $-1 $-1 $118 $69 #
plane-surface $-1 12.626344301158085 -21.888236118065187 1.7248038957055201 0 -0.57357644374324357 0.81915203911291934 1 0 0 forward_v I I I I #
loop $-1 $-1 $189 $45 #
coedge $-1 $116 $116 $117 $190 reversed $70 $-1 #
coedge $-1 $117 $117 $116 $190 forward $72 $-1 #
coedge $-1 $118 $118 $73 $119 forward $113 $-1 #
edge $-1 $191 3.3962547958739457e-016 $191 6.2831853071796004 $118 $192 forward 7 unknown #
face $-1 $193 $194 $18 $-1 $195 reversed single #
loop $-1 $-1 $196 $74 #
plane-surface $-1 -45.22598956266976 0 0 1 0 0 0 0 -1 forward_v I I I I #
coedge $-1 $197 $131 $198 $199 forward $75 $-1 #
coedge $-1 $200 $77 $197 $201 forward $49 $-1 #
coedge $-1 $77 $200 $202 $203 forward $49 $-1 #
coedge $-1 $134 $133 $77 $127 reversed $135 $-1 #
edge $-1 $204 -21.888236118065191 $205 21.888236118065191 $126 $206 forward 7 unknown #
coedge $-1 $79 $78 $207 $208 forward $31 $-1 #
coedge $-1 $209 $210 $78 $130 reversed $194 $-1 #
edge $-1 $137 -45.22598956266976 $211 45.22598956266976 $129 $212 forward 7 unknown #
coedge $-1 $123 $213 $79 $132 reversed $75 $-1 #
edge $-1 $214 -45.22598956266976 $136 45.22598956266976 $131 $215 forward 7 unknown #
coedge $-1 $126 $80 $213 $216 forward $135 $-1 #
coedge $-1 $80 $126 $209 $217 reversed $135 $-1 #
loop $-1 $-1 $133 $193 #
vertex $-1 $81 $218 #
vertex $-1 $81 $219 #
straight-curve $-1 45.22598956266976 0 10.377189564101661 0 1 0 I I #
face $-1 $220 $221 $19 $-1 $222 reversed single #
loop $-1 $-1 $223 $82 #
plane-surface $-1 -48.736787212099557 0 -8.2650390480980942 0 0 1 1 0 0 forward_v I I I I #
coedge $-1 $224 $85 $225 $226 reversed $53 $-1 #
coedge $-1 $85 $224 $148 $227 reversed $53 $-1 #
edge $-1 $150 2.3846844111668268 $228 8.2650390480980942 $85 $229 forward 7 unknown #
coedge $-1 $87 $86 $223 $230 forward $34 $-1 #
coedge $-1 $231 $232 $86 $147 forward $233 $-1 #
edge $-1 $234 -8.2650390480980942 $151 -2.3846844111668268 $146 $235 forward 7 unknown #
coedge $-1 $236 $88 $143 $227 forward $83 $-1 #
coedge $-1 $88 $236 $231 $237 forward $83 $-1 #
vertex $-1 $144 $238 #
vertex $-1 $237 $239 #
straight-curve $-1 -45.22598956266976 0 -2.3846844111668268 0 -1 0 I I #
face $-1 $-1 $165 $20 $-1 $240 forward single #
loop $-1 $-1 $241 $90 #
plane-surface $-1 0 -21.888236118065191 0 0 1 0 0 0 1 forward_v I I I I #
coedge $-1 $242 $243 $244 $245 reversed $91 $-1 #
coedge $-1 $246 $93 $95 $163 forward $57 $-1 #
coedge $-1 $93 $246 $242 $247 forward $57 $-1 #
coedge $-1 $244 $96 $93 $160 forward $165 $-1 #
edge $-1 $167 5.4288771543126515 $248 23.659970457769226 $159 $249 forward 7 unknown #
coedge $-1 $250 $251 $94 $162 forward $154 $-1 #
edge $-1 $252 -36.184559623307784 $166 -27.532173954911642 $161 $253 forward 7 unknown #
edge $-1 $167 -15.084973873629485 $252 4.3111677576717944e-015 $95 $254 forward 7 unknown #
coedge $-1 $96 $244 $250 $255 forward $165 $-1 #
loop $-1 $-1 $244 $153 #
vertex $-1 $162 $256 #
vertex $-1 $97 $257 #
straight-curve $-1 -19.97330096035359 -36.884680317157766 10.377189564101663 0 1 0 I I #
coedge $-1 $169 $169 $-1 $258 reversed $100 $-1 #
edge $-1 $259 0 $259 6.2831853071796004 $101 $260 forward 7 unknown #
vertex $-1 $104 $261 #
ellipse-curve $-1 -29.088847612081878 -15.709792563790838 6.0509967299035878 0 -0.57357644374324357 0.81915203911291934 3 0 0 1 I I #
face $-1 $-1 $185 $22 $-1 $262 forward single #
loop $-1 $-1 $263 $105 #
plane-surface $-1 0 -21.888236118065191 0 0 1 0 0 0 1 forward_v I I I I #
coedge $-1 $264 $265 $266 $267 reversed $106 $-1 #
coedge $-1 $268 $108 $110 $183 forward $66 $-1 #
coedge $-1 $108 $268 $264 $269 forward $66 $-1 #
coedge $-1 $266 $111 $108 $180 forward $185 $-1 #
edge $-1 $187 -15.42871880230733 $270 2.8023745011492451 $179 $271 forward 7 unknown #
coedge $-1 $272 $273 $109 $182 forward $174 $-1 #
edge $-1 $274 -36.184559623307784 $186 -27.532173954911642 $181 $275 forward 7 unknown #
edge $-1 $187 -15.084973873629485 $274 4.3111677576717944e-015 $110 $276 forward 7 unknown #
coedge $-1 $111 $266 $272 $277 forward $185 $-1 #
loop $-1 $-1 $266 $173 #
vertex $-1 $182 $278 #
vertex $-1 $112 $279 #
straight-curve $-1 21.741890952886372 -36.884680317157766 10.377189564101663 0 1 0 I I #
coedge $-1 $189 $189 $-1 $280 reversed $115 $-1 #
edge $-1 $281 0 $281 6.2831853071796004 $116 $282 forward 7 unknown #
vertex $-1 $119 $283 #
ellipse-curve $-1 12.626344301158085 -15.709792563790838 6.0509967299035878 0 -0.57357644374324357 0.81915203911291934 3 0 0 1 I I #
face $-1 $-1 $135 $18 $-1 $284 reversed single #
loop $-1 $-1 $209 $120 #
plane-surface $-1 0 21.888236118065191 0 0 -1 0 0 0 -1 forward_v I I I I #
coedge $-1 $285 $207 $210 $286 forward $121 $-1 #
coedge $-1 $213 $123 $124 $201 reversed $75 $-1 #
coedge $-1 $207 $285 $123 $199 reversed $121 $-1 #
edge $-1 $214 -10.377189564101661 $287 10.377189564101661 $198 $288 forward 7 unknown #
coedge $-1 $125 $124 $285 $289 forward $49 $-1 #
edge $-1 $205 -45.22598956266976 $287 45.22598956266976 $197 $290 forward 7 unknown #
coedge $-1 $210 $209 $125 $203 reversed $194 $-1 #
edge $-1 $291 -45.22598956266976 $204 45.22598956266976 $202 $292 forward 7 unknown #
vertex $-1 $127 $293 #
vertex $-1 $216 $294 #
straight-curve $-1 45.22598956266976 0 -10.377189564101661 0 -1 0 I I #
coedge $-1 $196 $198 $128 $208 reversed $121 $-1 #
edge $-1 $211 -21.888236118065191 $214 21.888236118065191 $207 $295 forward 7 unknown #
coedge $-1 $202 $129 $134 $217 forward $194 $-1 #
coedge $-1 $129 $202 $196 $286 reversed $194 $-1 #
vertex $-1 $130 $296 #
straight-curve $-1 0 21.888236118065191 10.377189564101661 -1 0 0 I I #
coedge $-1 $131 $197 $133 $216 reversed $75 $-1 #
vertex $-1 $208 $297 #
straight-curve $-1 0 -21.888236118065191 10.377189564101661 1 0 0 I I #
edge $-1 $136 -10.377189564101661 $205 10.377189564101661 $133 $298 forward 7 unknown #
edge $-1 $137 -10.377189564101661 $204 10.377189564101661 $134 $299 forward 7 unknown #
point $-1 45.22598956266976 -21.888236118065191 10.377189564101661 #
point $-1 45.22598956266976 21.888236118065191 10.377189564101661 #
face $-1 $-1 $233 $19 $-1 $300 reversed single #
loop $-1 $-1 $301 $139 #
plane-surface $-1 -52.247584861529354 0 -5.3248617296324605 1 0 0 0 0 -1 forward_v I I I I #
coedge $-1 $302 $225 $145 $230 reversed $140 $-1 #
coedge $-1 $143 $142 $301 $303 reversed $53 $-1 #
coedge $-1 $223 $304 $142 $226 forward $140 $-1 #
edge $-1 $305 -3.5107976494297972 $228 3.5107976494297972 $142 $306 forward 7 unknown #
edge $-1 $150 -3.5107976494297972 $307 3.5107976494297972 $143 $308 forward 7 unknown #
vertex $-1 $144 $309 #
straight-curve $-1 -45.22598956266976 21.888236118065191 0 0 0 -1 I I #
edge $-1 $234 -21.888236118065191 $228 21.888236118065191 $223 $310 forward 7 unknown #
coedge $-1 $311 $146 $149 $237 reversed $233 $-1 #
coedge $-1 $146 $311 $302 $312 reversed $233 $-1 #
loop $-1 $-1 $146 $220 #
vertex $-1 $147 $313 #
straight-curve $-1 -45.22598956266976 -21.888236118065191 0 0 0 1 I I #
coedge $-1 $149 $148 $314 $315 forward $83 $-1 #
edge $-1 $316 -3.5107976494297972 $151 3.5107976494297972 $231 $317 forward 7 unknown #
point $-1 -45.22598956266976 21.888236118065191 -2.3846844111668268 #
point $-1 -45.22598956266976 -21.888236118065191 -2.3846844111668268 #
plane-surface $-1 0 0 10.377189564101661 0 0 1 1 0 0 forward_v I I I I #
coedge $-1 $251 $250 $243 $318 forward $154 $-1 #
coedge $-1 $243 $156 $158 $247 reversed $91 $-1 #
coedge $-1 $156 $242 $241 $318 reversed $91 $-1 #
coedge $-1 $164 $159 $156 $245 forward $165 $-1 #
edge $-1 $248 -27.353331307641284 $319 -14.996444199092576 $244 $320 forward 7 unknown #
coedge $-1 $158 $157 $251 $321 reversed $57 $-1 #
edge $-1 $322 -4.3111677576717944e-015 $248 15.084973873629485 $242 $323 forward 7 unknown #
vertex $-1 $160 $324 #
straight-curve $-1 -14.544423806040939 -9.5313490095164823 10.377189564101661 -1 0 0 I I #
coedge $-1 $241 $161 $164 $255 reversed $154 $-1 #
coedge $-1 $161 $241 $246 $321 forward $154 $-1 #
vertex $-1 $162 $325 #
straight-curve $-1 -19.97330096035359 -21.888236118065191 37.909363519013304 0 0 1 I I #
straight-curve $-1 -19.97330096035359 -21.888236118065187 1.7248038957055201 0 -0.81915203911291934 -0.57357644374324357 I I #
edge $-1 $319 -38.204394263810165 $166 -19.97330096035359 $250 $326 forward 7 unknown #
point $-1 -19.97330096035359 -21.888236118065191 10.377189564101661 #
point $-1 -19.97330096035359 -9.5313490095164806 10.377189564101661 #
edge $-1 $327 1 $327 0 $169 $-1 forward 7 unknown #
vertex $-1 $170 $328 #
ellipse-curve $-1 -29.088847612081878 -10.280832970545781 -1.7023609429562434 0 -0.57357644374324357 0.81915203911291934 3 0 0 1 I I #
point $-1 -26.088847612081878 -15.709792563790838 6.0509967299035896 #
plane-surface $-1 0 0 10.377189564101661 0 0 1 1 0 0 forward_v I I I I #
coedge $-1 $273 $272 $265 $329 forward $174 $-1 #
coedge $-1 $265 $176 $178 $269 reversed $106 $-1 #
coedge $-1 $176 $264 $263 $329 reversed $106 $-1 #
coedge $-1 $184 $179 $176 $267 forward $185 $-1 #
edge $-1 $270 -27.353331307641284 $330 -14.996444199092576 $266 $331 forward 7 unknown #
coedge $-1 $178 $177 $273 $332 reversed $66 $-1 #
edge $-1 $333 -4.3111677576717944e-015 $270 15.084973873629485 $264 $334 forward 7 unknown #
vertex $-1 $180 $335 #
straight-curve $-1 6.3131721505790424 -9.5313490095164823 10.377189564101661 -1 0 0 I I #
coedge $-1 $263 $181 $184 $277 reversed $174 $-1 #
coedge $-1 $181 $263 $268 $332 forward $174 $-1 #
vertex $-1 $182 $336 #
straight-curve $-1 21.741890952886372 -21.888236118065191 37.909363519013304 0 0 1 I I #
straight-curve $-1 21.741890952886372 -21.888236118065187 1.7248038957055201 0 -0.81915203911291934 -0.57357644374324357 I I #
edge $-1 $330 3.5107976494297972 $186 21.741890952886372 $272 $337 forward 7 unknown #
point $-1 21.741890952886372 -21.888236118065191 10.377189564101661 #
point $-1 21.741890952886372 -9.5313490095164806 10.377189564101661 #
edge $-1 $338 1 $338 0 $189 $-1 forward 7 unknown #
vertex $-1 $190 $339 #
ellipse-curve $-1 12.626344301158085 -10.280832970545781 -1.7023609429562434 0 -0.57357644374324357 0.81915203911291934 3 0 0 1 I I #
point $-1 15.626344301158085 -15.709792563790838 6.0509967299035896 #
plane-surface $-1 45.22598956266976 0 0 -1 0 0 0 0 1 forward_v I I I I #
coedge $-1 $198 $196 $200 $289 reversed $121 $-1 #
edge $-1 $211 -10.377189564101661 $291 10.377189564101661 $210 $340 forward 7 unknown #
vertex $-1 $289 $341 #
straight-curve $-1 -45.22598956266976 -21.888236118065191 0 0 0 -1 I I #
edge $-1 $287 -21.888236118065191 $291 21.888236118065191 $285 $342 forward 7 unknown #
straight-curve $-1 0 -21.888236118065191 -10.377189564101661 -1 0 0 I I #
vertex $-1 $203 $343 #
straight-curve $-1 0 21.888236118065191 -10.377189564101661 1 0 0 I I #
point $-1 45.22598956266976 21.888236118065191 -10.377189564101661 #
point $-1 45.22598956266976 -21.888236118065191 -10.377189564101661 #
straight-curve $-1 -45.22598956266976 0 10.377189564101661 0 -1 0 I I #
point $-1 -45.22598956266976 21.888236118065191 10.377189564101661 #
point $-1 -45.22598956266976 -21.888236118065191 10.377189564101661 #
straight-curve $-1 45.22598956266976 -21.888236118065191 0 0 0 -1 I I #
straight-curve $-1 45.22598956266976 21.888236118065191 0 0 0 -1 I I #
plane-surface $-1 0 -21.888236118065191 0 0 1 0 0 0 1 forward_v I I I I #
coedge $-1 $344 $314 $224 $303 forward $221 $-1 #
coedge $-1 $304 $223 $232 $312 forward $140 $-1 #
edge $-1 $307 -2.9401773184656337 $305 2.9401773184656337 $224 $345 forward 7 unknown #
coedge $-1 $225 $302 $344 $346 forward $140 $-1 #
vertex $-1 $226 $347 #
straight-curve $-1 -48.736787212099557 21.888236118065191 -8.2650390480980942 1 0 0 I I #
vertex $-1 $227 $348 #
straight-curve $-1 -48.736787212099557 21.888236118065191 -2.3846844111668268 -1 0 0 I I #
point $-1 -45.22598956266976 21.888236118065191 -8.2650390480980942 #
straight-curve $-1 -45.22598956266976 0 -8.2650390480980942 0 1 0 I I #
coedge $-1 $232 $231 $349 $350 forward $233 $-1 #
edge $-1 $234 -3.5107976494297972 $351 3.5107976494297972 $232 $352 forward 7 unknown #
point $-1 -45.22598956266976 -21.888236118065191 -8.2650390480980942 #
coedge $-1 $301 $349 $236 $315 reversed $221 $-1 #
edge $-1 $307 -21.888236118065191 $316 21.888236118065191 $314 $353 forward 7 unknown #
vertex $-1 $315 $354 #
straight-curve $-1 -48.736787212099557 -21.888236118065191 -2.3846844111668268 1 0 0 I I #
edge $-1 $319 27.532173954911642 $322 36.184559623307784 $241 $355 forward 7 unknown #
vertex $-1 $255 $356 #
straight-curve $-1 -38.204394263810165 -36.884680317157766 10.377189564101663 0 -1 0 I I #
edge $-1 $322 -23.659970457769226 $252 -5.4288771543126515 $251 $357 forward 7 unknown #
vertex $-1 $321 $358 #
straight-curve $-1 -38.204394263810165 -21.888236118065187 1.7248038957055201 0 0.81915203911291934 0.57357644374324357 I I #
point $-1 -38.204394263810165 -9.5313490095164806 10.377189564101661 #
point $-1 -19.97330096035359 -21.888236118065191 1.7248038957055176 #
straight-curve $-1 0 -21.888236118065191 10.377189564101661 1 0 0 I I #
vertex $-1 $258 $359 #
point $-1 -26.088847612081878 -10.280832970545781 -1.7023609429562434 #
edge $-1 $330 27.532173954911642 $333 36.184559623307784 $263 $360 forward 7 unknown #
vertex $-1 $277 $361 #
straight-curve $-1 3.5107976494297972 -36.884680317157766 10.377189564101663 0 -1 0 I I #
edge $-1 $333 -2.8023745011492451 $274 15.42871880230733 $273 $362 forward 7 unknown #
vertex $-1 $332 $363 #
straight-curve $-1 3.5107976494297972 -21.888236118065187 1.7248038957055201 0 0.81915203911291934 0.57357644374324357 I I #
point $-1 3.5107976494297972 -9.5313490095164806 10.377189564101661 #
point $-1 21.741890952886372 -21.888236118065191 1.7248038957055176 #
straight-curve $-1 0 -21.888236118065191 10.377189564101661 1 0 0 I I #
vertex $-1 $280 $364 #
point $-1 15.626344301158085 -10.280832970545781 -1.7023609429562434 #
straight-curve $-1 -45.22598956266976 21.888236118065191 0 0 0 -1 I I #
point $-1 -45.22598956266976 -21.888236118065191 -10.377189564101661 #
straight-curve $-1 -45.22598956266976 0 -10.377189564101661 0 1 0 I I #
point $-1 -45.22598956266976 21.888236118065191 -10.377189564101661 #
coedge $-1 $349 $301 $304 $346 reversed $221 $-1 #
straight-curve $-1 -52.247584861529354 21.888236118065191 -5.3248617296324605 0 0 -1 I I #
edge $-1 $351 -21.888236118065191 $305 21.888236118065191 $344 $365 forward 7 unknown #
point $-1 -52.247584861529354 21.888236118065191 -8.2650390480980942 #
point $-1 -52.247584861529354 21.888236118065191 -2.3846844111668268 #
coedge $-1 $314 $344 $311 $350 reversed $221 $-1 #
edge $-1 $316 -2.9401773184656337 $351 2.9401773184656337 $349 $366 forward 7 unknown #
vertex $-1 $346 $367 #
straight-curve $-1 -48.736787212099557 -21.888236118065191 -8.2650390480980942 -1 0 0 I I #
straight-curve $-1 -52.247584861529354 0 -2.3846844111668268 0 -1 0 I I #
point $-1 -52.247584861529354 -21.888236118065191 -2.3846844111668268 #
straight-curve $-1 -38.204394263810165 -21.888236118065191 37.909363519013304 0 0 -1 I I #
point $-1 -38.204394263810165 -21.888236118065191 10.377189564101661 #
straight-curve $-1 -14.544423806040939 -21.888236118065191 1.724803895705517 1 0 0 I I #
point $-1 -38.204394263810165 -21.888236118065191 1.7248038957055176 #
point $-1 -29.088847612081878 -8.5601036393160506 -4.1598170602950013 #
straight-curve $-1 3.5107976494297972 -21.888236118065191 37.909363519013304 0 0 -1 I I #
point $-1 3.5107976494297972 -21.888236118065191 10.377189564101661 #
straight-curve $-1 6.3131721505790424 -21.888236118065191 1.724803895705517 1 0 0 I I #
point $-1 3.5107976494297972 -21.888236118065191 1.7248038957055176 #
point $-1 12.626344301158085 -8.5601036393160506 -4.1598170602950013 #
straight-curve $-1 -52.247584861529354 0 -8.2650390480980942 0 1 0 I I #
straight-curve $-1 -52.247584861529354 -21.888236118065191 -5.3248617296324605 0 0 -1 I I #
point $-1 -52.247584861529354 -21.888236118065191 -8.2650390480980942 #
End-of-ACIS-data 