500 0 16 0           
7 Unknown 11 ACIS 5.0 NT 24 Thu Mar 25 18:37:07 1999 
-1 9.9999999999999995e-007 1e-010 
body $-1 $16 $-1 $17 #
body $-1 $18 $-1 $19 #
body $-1 $20 $-1 $21 #
body $-1 $22 $-1 $23 #
body $-1 $24 $-1 $25 #
body $-1 $26 $-1 $27 #
body $-1 $28 $-1 $29 #
body $-1 $30 $-1 $31 #
body $-1 $32 $-1 $33 #
body $-1 $34 $-1 $35 #
body $-1 $36 $-1 $37 #
body $-1 $38 $-1 $39 #
body $-1 $40 $-1 $41 #
body $-1 $42 $-1 $43 #
body $-1 $44 $-1 $45 #
body $-1 $46 $-1 $47 #
lump $-1 $-1 $48 $0 #
transform $-1 1 0 0 0 1 0 0 0 1 54.534134952848902 28.880107534907104 7.7213105276514078 1 rotate no_reflect no_shear #
lump $-1 $-1 $49 $1 #
transform $-1 1 0 0 0 1 0 0 0 1 54.534134952848902 28.880107534907104 7.7213105276514078 1 rotate no_reflect no_shear #
lump $-1 $-1 $50 $2 #
transform $-1 1 0 0 0 1 0 0 0 1 54.534134952848902 28.880107534907104 7.7213105276514078 1 rotate no_reflect no_shear #
lump $-1 $-1 $51 $3 #
transform $-1 1 0 0 0 1 0 0 0 1 54.534134952848902 28.880107534907104 7.7213105276514078 1 rotate no_reflect no_shear #
lump $-1 $-1 $52 $4 #
transform $-1 1 0 0 0 1 0 0 0 1 54.534134952848902 28.880107534907104 7.7213105276514078 1 rotate no_reflect no_shear #
lump $-1 $-1 $53 $5 #
transform $-1 1 0 0 0 1 0 0 0 1 54.534134952848902 28.880107534907104 7.7213105276514078 1 rotate no_reflect no_shear #
lump $-1 $-1 $54 $6 #
transform $-1 1 0 0 0 1 0 0 0 1 54.534134952848902 28.880107534907104 7.7213105276514078 1 rotate no_reflect no_shear #
lump $-1 $-1 $55 $7 #
transform $-1 1 0 0 0 1 0 0 0 1 54.534134952848902 28.880107534907104 7.7213105276514078 1 rotate no_reflect no_shear #
lump $-1 $-1 $56 $8 #
transform $-1 1 0 0 0 1 0 0 0 1 54.534134952848902 28.880107534907104 7.7213105276514078 1 rotate no_reflect no_shear #
lump $-1 $-1 $57 $9 #
transform $-1 1 0 0 0 1 0 0 0 1 54.534134952848902 28.880107534907104 7.7213105276514078 1 rotate no_reflect no_shear #
lump $-1 $-1 $58 $10 #
transform $-1 1 0 0 0 1 0 0 0 1 54.534134952848902 28.880107534907104 7.7213105276514078 1 rotate no_reflect no_shear #
lump $-1 $-1 $59 $11 #
transform $-1 1 0 0 0 1 0 0 0 1 54.534134952848902 28.880107534907104 7.7213105276514078 1 rotate no_reflect no_shear #
lump $-1 $-1 $60 $12 #
transform $-1 1 0 0 0 1 0 0 0 1 54.534134952848902 28.880107534907104 7.7213105276514078 1 rotate no_reflect no_shear #
lump $-1 $-1 $61 $13 #
transform $-1 1 0 0 0 1 0 0 0 1 54.534134952848902 28.880107534907104 7.7213105276514078 1 rotate no_reflect no_shear #
lump $-1 $-1 $62 $14 #
transform $-1 1 0 0 0 1 0 0 0 1 54.534134952848902 28.880107534907104 7.7213105276514078 1 rotate no_reflect no_shear #
lump $-1 $-1 $63 $15 #
transform $-1 1 0 0 0 1 0 0 0 1 54.534134952848902 28.880107534907104 7.7213105276514078 1 rotate no_reflect no_shear #
shell $-1 $-1 $-1 $64 $-1 $16 #
shell $-1 $-1 $-1 $65 $-1 $18 #
shell $-1 $-1 $-1 $66 $-1 $20 #
shell $-1 $-1 $-1 $67 $-1 $22 #
shell $-1 $-1 $-1 $68 $-1 $24 #
shell $-1 $-1 $-1 $69 $-1 $26 #
shell $-1 $-1 $-1 $70 $-1 $28 #
shell $-1 $-1 $-1 $71 $-1 $30 #
shell $-1 $-1 $-1 $72 $-1 $32 #
shell $-1 $-1 $-1 $73 $-1 $34 #
shell $-1 $-1 $-1 $74 $-1 $36 #
shell $-1 $-1 $-1 $75 $-1 $38 #
shell $-1 $-1 $-1 $76 $-1 $40 #
shell $-1 $-1 $-1 $77 $-1 $42 #
shell $-1 $-1 $-1 $78 $-1 $44 #
shell $-1 $-1 $-1 $79 $-1 $46 #
face $-1 $80 $81 $48 $-1 $82 forward single #
face $-1 $83 $84 $49 $-1 $85 forward single #
face $-1 $86 $87 $50 $-1 $88 reversed single #
face $-1 $89 $90 $51 $-1 $91 forward single #
face $-1 $92 $93 $52 $-1 $94 forward single #
face $-1 $95 $96 $53 $-1 $97 forward single #
face $-1 $98 $99 $54 $-1 $100 reversed single #
face $-1 $101 $102 $55 $-1 $103 forward single #
face $-1 $104 $105 $56 $-1 $106 forward single #
face $-1 $107 $108 $57 $-1 $109 forward single #
face $-1 $110 $111 $58 $-1 $112 reversed single #
face $-1 $113 $114 $59 $-1 $115 forward single #
face $-1 $116 $117 $60 $-1 $118 forward single #
face $-1 $119 $120 $61 $-1 $121 reversed single #
face $-1 $122 $123 $62 $-1 $124 forward single #
face $-1 $125 $126 $63 $-1 $127 forward single #
face $-1 $128 $129 $48 $-1 $130 reversed single #
loop $-1 $-1 $131 $64 #
plane-surface $-1 0 0 7.7213105276514078 0 0 1 1 0 0 forward_v I I I I #
face $-1 $132 $133 $49 $-1 $134 reversed single #
loop $-1 $-1 $135 $65 #
plane-surface $-1 -54.534134952848902 0 0 1 0 0 0 0 -1 forward_v I I I I #
face $-1 $136 $137 $50 $-1 $138 reversed single #
loop $-1 $-1 $139 $66 #
plane-surface $-1 -9.2123669256453873 88.893989188605104 108.27703493504261 1 0 0 0 -0.83867057594974714 -0.54463902268945019 forward_v I I I I #
face $-1 $140 $141 $51 $-1 $142 forward single #
loop $-1 $143 $144 $67 #
cone-surface $-1 -6.4585522097946964 25.498915821735807 3.4180623741026506 0 -0.83867057594974714 -0.54463902268945019 1 0 0 1 I I 0 1 1 forward I I I I #
face $-1 $145 $146 $52 $-1 $147 forward single #
loop $-1 $148 $149 $68 #
cone-surface $-1 -2.3278301360186688 25.498915821735807 3.4180623741026506 0 -0.83867057594974714 -0.54463902268945019 1 0 0 1 I I 0 1 1 forward I I I I #
face $-1 $150 $151 $53 $-1 $152 forward single #
loop $-1 $153 $154 $69 #
cone-surface $-1 1.8028919377573587 25.498915821735807 3.4180623741026506 0 -0.83867057594974714 -0.54463902268945019 1 0 0 1 I I 0 1 1 forward I I I I #
face $-1 $155 $156 $54 $-1 $157 reversed single #
loop $-1 $-1 $158 $70 #
plane-surface $-1 40.765061373595486 88.893989188605104 108.27703493504261 1 0 0 0 -0.83867057594974714 -0.54463902268945019 forward_v I I I I #
face $-1 $159 $160 $55 $-1 $161 forward single #
loop $-1 $162 $163 $71 #
cone-surface $-1 43.518876089446167 25.498915821735807 3.4180623741026506 0 -0.83867057594974714 -0.54463902268945019 1 0 0 1 I I 0 1 1 forward I I I I #
face $-1 $164 $165 $56 $-1 $166 forward single #
loop $-1 $167 $168 $72 #
cone-surface $-1 47.649598163222194 25.498915821735807 3.4180623741026506 0 -0.83867057594974714 -0.54463902268945019 1 0 0 1 I I 0 1 1 forward I I I I #
face $-1 $169 $170 $57 $-1 $171 forward single #
loop $-1 $172 $173 $73 #
cone-surface $-1 51.780320236998222 25.498915821735807 3.4180623741026506 0 -0.83867057594974714 -0.54463902268945019 1 0 0 1 I I 0 1 1 forward I I I I #
face $-1 $174 $175 $58 $-1 $176 reversed single #
loop $-1 $-1 $177 $74 #
plane-surface $-1 -15.507512005154794 -97.518994655417828 85.814090693394647 -1 0 0 0 -0.62932039886446345 0.77714595512881146 forward_v I I I I #
face $-1 $178 $179 $59 $-1 $180 forward single #
loop $-1 $181 $182 $75 #
cone-surface $-1 -31.699859735797492 -23.950020277692317 3.3837239264141443 0 0.62932039886446345 -0.77714595512881146 1.5 0 0 1 I I 0 1 1.5 forward I I I I #
face $-1 $183 $184 $60 $-1 $185 forward single #
loop $-1 $186 $187 $76 #
cone-surface $-1 -21.984451097411871 -23.950020277692317 3.3837239264141443 0 0.62932039886446345 -0.77714595512881146 1.5 0 0 1 I I 0 1 1.5 forward I I I I #
face $-1 $188 $189 $61 $-1 $190 reversed single #
loop $-1 $-1 $191 $77 #
plane-surface $-1 47.290212135270664 -97.518994655417828 85.814090693394647 -1 0 0 0 -0.62932039886446345 0.77714595512881146 forward_v I I I I #
face $-1 $192 $193 $62 $-1 $194 forward single #
loop $-1 $195 $196 $78 #
cone-surface $-1 31.097864404627956 -23.950020277692317 3.3837239264141443 0 0.62932039886446345 -0.77714595512881146 1.5 0 0 1 I I 0 1 1.5 forward I I I I #
face $-1 $197 $198 $63 $-1 $199 forward single #
loop $-1 $200 $201 $79 #
cone-surface $-1 40.813273043013581 -23.950020277692317 3.3837239264141443 0 0.62932039886446345 -0.77714595512881146 1.5 0 0 1 I I 0 1 1.5 forward I I I I #
face $-1 $202 $203 $48 $-1 $204 reversed single #
loop $-1 $-1 $205 $80 #
plane-surface $-1 0 0 -7.7213105276514078 0 0 1 1 0 0 forward_v I I I I #
coedge $-1 $206 $207 $208 $209 forward $81 $-1 #
face $-1 $210 $211 $49 $-1 $212 reversed single #
loop $-1 $-1 $213 $83 #
plane-surface $-1 0 28.880107534907104 0 0 -1 0 0 0 -1 forward_v I I I I #
coedge $-1 $214 $215 $216 $217 forward $84 $-1 #
face $-1 $218 $219 $50 $-1 $220 reversed single #
loop $-1 $-1 $221 $86 #
plane-surface $-1 -2.3278301360186759 -2.5783595510489477 48.874199007174184 0 0.83867057594974714 0.54463902268945019 1 0 0 forward_v I I I I #
coedge $-1 $222 $223 $224 $225 reversed $87 $-1 #
face $-1 $-1 $226 $51 $-1 $227 forward single #
loop $-1 $228 $229 $89 #
cone-surface $-1 -6.4585522097946964 24.065123663197006 2.486946889238947 0 -0.83867057594974714 -0.54463902268945019 0.5 0 0 1 I I -0.70710678118654746 0.70710678118654746 0.5 forward I I I I #
loop $-1 $-1 $230 $67 #
coedge $-1 $144 $144 $231 $232 reversed $90 $-1 #
face $-1 $-1 $233 $52 $-1 $234 forward single #
loop $-1 $235 $236 $92 #
cone-surface $-1 -2.3278301360186688 24.065123663197006 2.486946889238947 0 -0.83867057594974714 -0.54463902268945019 0.5 0 0 1 I I -0.70710678118654746 0.70710678118654746 0.5 forward I I I I #
loop $-1 $-1 $237 $68 #
coedge $-1 $149 $149 $238 $239 reversed $93 $-1 #
face $-1 $-1 $240 $53 $-1 $241 forward single #
loop $-1 $242 $243 $95 #
cone-surface $-1 1.8028919377573587 24.065123663197006 2.486946889238947 0 -0.83867057594974714 -0.54463902268945019 0.5 0 0 1 I I -0.70710678118654746 0.70710678118654746 0.5 forward I I I I #
loop $-1 $-1 $244 $69 #
coedge $-1 $154 $154 $245 $246 reversed $96 $-1 #
face $-1 $247 $248 $54 $-1 $249 forward single #
loop $-1 $-1 $250 $98 #
plane-surface $-1 47.649598163222194 -2.5783595510489477 48.874199007174184 0 0.83867057594974714 0.54463902268945019 1 0 0 forward_v I I I I #
coedge $-1 $251 $252 $253 $254 reversed $99 $-1 #
face $-1 $-1 $255 $55 $-1 $256 forward single #
loop $-1 $257 $258 $101 #
cone-surface $-1 43.518876089446167 24.065123663197006 2.486946889238947 0 -0.83867057594974714 -0.54463902268945019 0.5 0 0 1 I I -0.70710678118654746 0.70710678118654746 0.5 forward I I I I #
loop $-1 $-1 $259 $71 #
coedge $-1 $163 $163 $260 $261 reversed $102 $-1 #
face $-1 $-1 $262 $56 $-1 $263 forward single #
loop $-1 $264 $265 $104 #
cone-surface $-1 47.649598163222194 24.065123663197006 2.486946889238947 0 -0.83867057594974714 -0.54463902268945019 0.5 0 0 1 I I -0.70710678118654746 0.70710678118654746 0.5 forward I I I I #
loop $-1 $-1 $266 $72 #
coedge $-1 $168 $168 $267 $268 reversed $105 $-1 #
face $-1 $-1 $269 $57 $-1 $270 forward single #
loop $-1 $271 $272 $107 #
cone-surface $-1 51.780320236998222 24.065123663197006 2.486946889238947 0 -0.83867057594974714 -0.54463902268945019 0.5 0 0 1 I I -0.70710678118654746 0.70710678118654746 0.5 forward I I I I #
loop $-1 $-1 $273 $73 #
coedge $-1 $173 $173 $274 $275 reversed $108 $-1 #
face $-1 $276 $277 $58 $-1 $278 reversed single #
loop $-1 $-1 $279 $110 #
plane-surface $-1 -26.842155416604683 -28.880107534907125 1.0521259032841215 0 -0.62932039886446345 0.77714595512881146 1 0 0 forward_v I I I I #
coedge $-1 $280 $281 $282 $283 reversed $111 $-1 #
face $-1 $-1 $284 $59 $-1 $285 forward single #
loop $-1 $286 $287 $113 #
cone-surface $-1 -31.699859735797492 -22.665821201183249 1.7978701710139191 0 0.62932039886446345 -0.77714595512881146 0.75 0 0 1 I I -0.70710678118654757 0.70710678118654757 0.75 forward I I I I #
loop $-1 $-1 $288 $75 #
coedge $-1 $182 $182 $289 $290 reversed $114 $-1 #
face $-1 $-1 $291 $60 $-1 $292 forward single #
loop $-1 $293 $294 $116 #
cone-surface $-1 -21.984451097411871 -22.665821201183249 1.7978701710139191 0 0.62932039886446345 -0.77714595512881146 0.75 0 0 1 I I -0.70710678118654757 0.70710678118654757 0.75 forward I I I I #
loop $-1 $-1 $295 $76 #
coedge $-1 $187 $187 $296 $297 reversed $117 $-1 #
face $-1 $298 $299 $61 $-1 $300 reversed single #
loop $-1 $-1 $301 $119 #
plane-surface $-1 35.955568723820775 -28.880107534907125 1.0521259032841215 0 -0.62932039886446345 0.77714595512881146 1 0 0 forward_v I I I I #
coedge $-1 $302 $303 $304 $305 reversed $120 $-1 #
face $-1 $-1 $306 $62 $-1 $307 forward single #
loop $-1 $308 $309 $122 #
cone-surface $-1 31.097864404627956 -22.665821201183249 1.7978701710139191 0 0.62932039886446345 -0.77714595512881146 0.75 0 0 1 I I -0.70710678118654757 0.70710678118654757 0.75 forward I I I I #
loop $-1 $-1 $310 $78 #
coedge $-1 $196 $196 $311 $312 reversed $123 $-1 #
face $-1 $-1 $313 $63 $-1 $314 forward single #
loop $-1 $315 $316 $125 #
cone-surface $-1 40.813273043013581 -22.665821201183249 1.7978701710139191 0 0.62932039886446345 -0.77714595512881146 0.75 0 0 1 I I -0.70710678118654757 0.70710678118654757 0.75 forward I I I I #
loop $-1 $-1 $317 $79 #
coedge $-1 $201 $201 $318 $319 reversed $126 $-1 #
face $-1 $320 $321 $48 $-1 $322 reversed single #
loop $-1 $-1 $323 $128 #
plane-surface $-1 0 -28.880107534907104 0 0 1 0 0 0 1 forward_v I I I I #
coedge $-1 $324 $325 $326 $327 forward $129 $-1 #
coedge $-1 $328 $131 $329 $330 forward $81 $-1 #
coedge $-1 $131 $328 $331 $332 forward $81 $-1 #
coedge $-1 $333 $334 $131 $209 reversed $335 $-1 #
edge $-1 $336 -28.880107534907104 $337 28.880107534907104 $208 $338 forward 7 unknown #
face $-1 $339 $340 $49 $-1 $341 reversed single #
loop $-1 $-1 $216 $132 #
plane-surface $-1 -59.090841606456941 0 3.2190703712924709 0 0 1 1 0 0 forward_v I I I I #
coedge $-1 $342 $343 $214 $344 forward $133 $-1 #
coedge $-1 $345 $135 $213 $344 reversed $84 $-1 #
coedge $-1 $135 $345 $346 $347 reversed $84 $-1 #
coedge $-1 $348 $349 $135 $217 reversed $211 $-1 #
edge $-1 $350 -28.880107534907104 $351 28.880107534907104 $216 $352 forward 7 unknown #
face $-1 $353 $354 $50 $-1 $355 forward single #
loop $-1 $-1 $356 $136 #
plane-surface $-1 4.5567066536080354 88.893989188605104 108.27703493504261 -1 0 0 0 0.83867057594974714 0.54463902268945019 forward_v I I I I #
coedge $-1 $357 $358 $359 $360 reversed $137 $-1 #
coedge $-1 $223 $139 $361 $362 reversed $87 $-1 #
coedge $-1 $139 $222 $357 $363 reversed $87 $-1 #
coedge $-1 $359 $364 $139 $225 forward $354 $-1 #
edge $-1 $365 15.566887059395448 $366 20.30035674461018 $224 $367 forward 7 unknown #
loop $-1 $-1 $231 $140 #
plane-surface $-1 -2.3278301360186759 -2.5783595510489477 48.874199007174184 0 0.83867057594974714 0.54463902268945019 1 0 0 forward_v I I I I #
loop $-1 $-1 $368 $89 #
coedge $-1 $229 $229 $230 $369 reversed $141 $-1 #
coedge $-1 $230 $230 $229 $369 forward $143 $-1 #
coedge $-1 $231 $231 $144 $232 forward $226 $-1 #
edge $-1 $370 0 $370 6.2831853071796004 $231 $371 forward 7 unknown #
loop $-1 $-1 $238 $145 #
plane-surface $-1 -2.3278301360186759 -2.5783595510489477 48.874199007174184 0 0.83867057594974714 0.54463902268945019 1 0 0 forward_v I I I I #
loop $-1 $-1 $372 $92 #
coedge $-1 $236 $236 $237 $373 reversed $146 $-1 #
coedge $-1 $237 $237 $236 $373 forward $148 $-1 #
coedge $-1 $238 $238 $149 $239 forward $233 $-1 #
edge $-1 $374 0 $374 6.2831853071796004 $238 $375 forward 7 unknown #
loop $-1 $-1 $245 $150 #
plane-surface $-1 -2.3278301360186759 -2.5783595510489477 48.874199007174184 0 0.83867057594974714 0.54463902268945019 1 0 0 forward_v I I I I #
loop $-1 $-1 $376 $95 #
coedge $-1 $243 $243 $244 $377 reversed $151 $-1 #
coedge $-1 $244 $244 $243 $377 forward $153 $-1 #
coedge $-1 $245 $245 $154 $246 forward $240 $-1 #
edge $-1 $378 0 $378 6.2831853071796004 $245 $379 forward 7 unknown #
face $-1 $380 $381 $54 $-1 $382 reversed single #
loop $-1 $-1 $253 $155 #
plane-surface $-1 0 0 7.7213105276514078 0 0 1 1 0 0 forward_v I I I I #
coedge $-1 $383 $384 $385 $386 reversed $156 $-1 #
coedge $-1 $252 $158 $387 $388 reversed $99 $-1 #
coedge $-1 $158 $251 $383 $389 reversed $99 $-1 #
coedge $-1 $385 $390 $158 $254 forward $248 $-1 #
edge $-1 $391 15.566887059395448 $392 20.30035674461018 $253 $393 forward 7 unknown #
loop $-1 $-1 $260 $159 #
plane-surface $-1 47.649598163222194 -2.5783595510489477 48.874199007174184 0 0.83867057594974714 0.54463902268945019 1 0 0 forward_v I I I I #
loop $-1 $-1 $394 $101 #
coedge $-1 $258 $258 $259 $395 reversed $160 $-1 #
coedge $-1 $259 $259 $258 $395 forward $162 $-1 #
coedge $-1 $260 $260 $163 $261 forward $255 $-1 #
edge $-1 $396 0 $396 6.2831853071796004 $260 $397 forward 7 unknown #
loop $-1 $-1 $267 $164 #
plane-surface $-1 47.649598163222194 -2.5783595510489477 48.874199007174184 0 0.83867057594974714 0.54463902268945019 1 0 0 forward_v I I I I #
loop $-1 $-1 $398 $104 #
coedge $-1 $265 $265 $266 $399 reversed $165 $-1 #
coedge $-1 $266 $266 $265 $399 forward $167 $-1 #
coedge $-1 $267 $267 $168 $268 forward $262 $-1 #
edge $-1 $400 0 $400 6.2831853071796004 $267 $401 forward 7 unknown #
loop $-1 $-1 $274 $169 #
plane-surface $-1 47.649598163222194 -2.5783595510489477 48.874199007174184 0 0.83867057594974714 0.54463902268945019 1 0 0 forward_v I I I I #
loop $-1 $-1 $402 $107 #
coedge $-1 $272 $272 $273 $403 reversed $170 $-1 #
coedge $-1 $273 $273 $272 $403 forward $172 $-1 #
coedge $-1 $274 $274 $173 $275 forward $269 $-1 #
edge $-1 $404 0 $404 6.2831853071796004 $274 $405 forward 7 unknown #
face $-1 $406 $407 $58 $-1 $408 reversed single #
loop $-1 $-1 $409 $174 #
plane-surface $-1 -38.176798828054572 -97.518994655417828 85.814090693394647 1 0 0 0 0.62932039886446345 -0.77714595512881146 forward_v I I I I #
coedge $-1 $410 $411 $412 $413 reversed $175 $-1 #
coedge $-1 $281 $177 $414 $415 reversed $111 $-1 #
coedge $-1 $177 $280 $410 $416 reversed $111 $-1 #
coedge $-1 $412 $417 $177 $283 forward $418 $-1 #
edge $-1 $419 19.87938979280181 $420 28.115146752509915 $282 $421 forward 7 unknown #
loop $-1 $-1 $289 $178 #
plane-surface $-1 -26.842155416604683 -28.880107534907125 1.0521259032841215 0 -0.62932039886446345 0.77714595512881146 1 0 0 forward_v I I I I #
loop $-1 $-1 $422 $113 #
coedge $-1 $287 $287 $288 $423 reversed $179 $-1 #
coedge $-1 $288 $288 $287 $423 forward $181 $-1 #
coedge $-1 $289 $289 $182 $290 forward $284 $-1 #
edge $-1 $424 -4.4016637462936053e-016 $424 6.2831853071796004 $289 $425 forward 7 unknown #
loop $-1 $-1 $296 $183 #
plane-surface $-1 -26.842155416604683 -28.880107534907125 1.0521259032841215 0 -0.62932039886446345 0.77714595512881146 1 0 0 forward_v I I I I #
loop $-1 $-1 $426 $116 #
coedge $-1 $294 $294 $295 $427 reversed $184 $-1 #
coedge $-1 $295 $295 $294 $427 forward $186 $-1 #
coedge $-1 $296 $296 $187 $297 forward $291 $-1 #
edge $-1 $428 -4.4016637462936053e-016 $428 6.2831853071796004 $296 $429 forward 7 unknown #
face $-1 $430 $431 $61 $-1 $432 reversed single #
loop $-1 $-1 $433 $188 #
plane-surface $-1 24.620925312370886 -97.518994655417828 85.814090693394647 1 0 0 0 0.62932039886446345 -0.77714595512881146 forward_v I I I I #
coedge $-1 $434 $435 $436 $437 reversed $189 $-1 #
coedge $-1 $303 $191 $438 $439 reversed $120 $-1 #
coedge $-1 $191 $302 $434 $440 reversed $120 $-1 #
coedge $-1 $436 $441 $191 $305 forward $442 $-1 #
edge $-1 $443 19.87938979280181 $444 28.115146752509915 $304 $445 forward 7 unknown #
loop $-1 $-1 $311 $192 #
plane-surface $-1 35.955568723820775 -28.880107534907125 1.0521259032841215 0 -0.62932039886446345 0.77714595512881146 1 0 0 forward_v I I I I #
loop $-1 $-1 $446 $122 #
coedge $-1 $309 $309 $310 $447 reversed $193 $-1 #
coedge $-1 $310 $310 $309 $447 forward $195 $-1 #
coedge $-1 $311 $311 $196 $312 forward $306 $-1 #
edge $-1 $448 -4.4016637462936053e-016 $448 6.2831853071796004 $311 $449 forward 7 unknown #
loop $-1 $-1 $318 $197 #
plane-surface $-1 35.955568723820775 -28.880107534907125 1.0521259032841215 0 -0.62932039886446345 0.77714595512881146 1 0 0 forward_v I I I I #
loop $-1 $-1 $450 $125 #
coedge $-1 $316 $316 $317 $451 reversed $198 $-1 #
coedge $-1 $317 $317 $316 $451 forward $200 $-1 #
coedge $-1 $318 $318 $201 $319 forward $313 $-1 #
edge $-1 $452 -4.4016637462936053e-016 $452 6.2831853071796004 $318 $453 forward 7 unknown #
face $-1 $454 $455 $48 $-1 $456 reversed single #
loop $-1 $-1 $457 $202 #
plane-surface $-1 -54.534134952848902 0 0 1 0 0 0 0 -1 forward_v I I I I #
coedge $-1 $458 $331 $459 $460 forward $203 $-1 #
coedge $-1 $461 $205 $458 $462 forward $129 $-1 #
coedge $-1 $205 $461 $463 $464 forward $129 $-1 #
coedge $-1 $334 $333 $205 $327 reversed $335 $-1 #
edge $-1 $465 -28.880107534907104 $466 28.880107534907104 $326 $467 forward 7 unknown #
coedge $-1 $207 $206 $468 $469 forward $81 $-1 #
coedge $-1 $470 $471 $206 $330 reversed $455 $-1 #
edge $-1 $337 -54.534134952848902 $472 54.534134952848902 $329 $473 forward 7 unknown #
coedge $-1 $323 $474 $207 $332 reversed $203 $-1 #
edge $-1 $475 -54.534134952848902 $336 54.534134952848902 $331 $476 forward 7 unknown #
coedge $-1 $326 $208 $474 $477 forward $335 $-1 #
coedge $-1 $208 $326 $470 $478 reversed $335 $-1 #
loop $-1 $-1 $333 $454 #
vertex $-1 $209 $479 #
vertex $-1 $209 $480 #
straight-curve $-1 54.534134952848902 0 7.7213105276514078 0 1 0 I I #
face $-1 $481 $482 $49 $-1 $483 forward single #
loop $-1 $-1 $484 $210 #
plane-surface $-1 -63.64754826006498 0 5.4701904494719393 1 0 0 0 0 -1 forward_v I I I I #
coedge $-1 $485 $213 $349 $486 reversed $133 $-1 #
coedge $-1 $213 $485 $487 $488 reversed $133 $-1 #
edge $-1 $489 -7.7213105276514078 $351 -3.2190703712924709 $213 $490 forward 7 unknown #
coedge $-1 $215 $214 $491 $492 reversed $84 $-1 #
coedge $-1 $493 $494 $215 $347 forward $495 $-1 #
edge $-1 $350 3.2190703712924709 $496 7.7213105276514078 $346 $497 forward 7 unknown #
coedge $-1 $498 $216 $494 $499 forward $211 $-1 #
coedge $-1 $216 $498 $342 $486 forward $211 $-1 #
vertex $-1 $347 $500 #
vertex $-1 $344 $501 #
straight-curve $-1 -54.534134952848902 0 3.2190703712924709 0 1 0 I I #
face $-1 $-1 $502 $50 $-1 $503 reversed single #
loop $-1 $-1 $224 $218 #
plane-surface $-1 0 0 7.7213105276514078 0 0 1 1 0 0 forward_v I I I I #
coedge $-1 $504 $505 $506 $507 reversed $219 $-1 #
coedge $-1 $508 $221 $223 $363 forward $137 $-1 #
coedge $-1 $221 $508 $504 $509 forward $137 $-1 #
coedge $-1 $506 $224 $221 $360 forward $354 $-1 #
edge $-1 $366 -8.0484518576360493 $510 5.7206217216173734 $359 $511 forward 7 unknown #
coedge $-1 $512 $513 $222 $362 forward $502 $-1 #
edge $-1 $514 -53.706111299929447 $365 -46.417206939869899 $361 $515 forward 7 unknown #
edge $-1 $366 49.069193148834927 $514 57.760215069814187 $223 $516 forward 7 unknown #
coedge $-1 $224 $506 $512 $517 forward $354 $-1 #
vertex $-1 $362 $518 #
vertex $-1 $225 $519 #
straight-curve $-1 -9.2123669256453873 44.446994594302552 7.7213105276514042 0 -1 0 I I #
coedge $-1 $368 $368 $-1 $520 reversed $228 $-1 #
edge $-1 $521 0 $521 6.2831853071796004 $229 $522 forward 7 unknown #
vertex $-1 $232 $523 #
ellipse-curve $-1 -6.4585522097946964 26.513372692299736 4.0768583476216289 0 0.83867057594974714 0.54463902268945019 1 0 0 1 I I #
coedge $-1 $372 $372 $-1 $524 reversed $235 $-1 #
edge $-1 $525 0 $525 6.2831853071796004 $236 $526 forward 7 unknown #
vertex $-1 $239 $527 #
ellipse-curve $-1 -2.3278301360186688 26.513372692299736 4.0768583476216289 0 0.83867057594974714 0.54463902268945019 1 0 0 1 I I #
coedge $-1 $376 $376 $-1 $528 reversed $242 $-1 #
edge $-1 $529 0 $529 6.2831853071796004 $243 $530 forward 7 unknown #
vertex $-1 $246 $531 #
ellipse-curve $-1 1.8028919377573587 26.513372692299736 4.0768583476216289 0 0.83867057594974714 0.54463902268945019 1 0 0 1 I I #
face $-1 $-1 $532 $54 $-1 $533 reversed single #
loop $-1 $-1 $387 $247 #
plane-surface $-1 0 28.880107534907104 0 0 -1 0 0 0 -1 forward_v I I I I #
coedge $-1 $534 $250 $252 $389 forward $156 $-1 #
coedge $-1 $250 $534 $535 $536 reversed $156 $-1 #
coedge $-1 $537 $253 $250 $386 forward $248 $-1 #
edge $-1 $392 16.940262291984389 $538 30.709335871237805 $385 $539 forward 7 unknown #
coedge $-1 $540 $541 $251 $388 forward $381 $-1 #
edge $-1 $542 -53.706111299929447 $391 -46.417206939869899 $387 $543 forward 7 unknown #
edge $-1 $392 49.069193148834927 $542 57.760215069814187 $252 $544 forward 7 unknown #
coedge $-1 $253 $537 $540 $545 forward $248 $-1 #
vertex $-1 $254 $546 #
vertex $-1 $254 $547 #
straight-curve $-1 40.765061373595486 44.446994594302552 7.7213105276514042 0 -1 0 I I #
coedge $-1 $394 $394 $-1 $548 reversed $257 $-1 #
edge $-1 $549 0 $549 6.2831853071796004 $258 $550 forward 7 unknown #
vertex $-1 $261 $551 #
ellipse-curve $-1 43.518876089446167 26.513372692299736 4.0768583476216289 0 0.83867057594974714 0.54463902268945019 1 0 0 1 I I #
coedge $-1 $398 $398 $-1 $552 reversed $264 $-1 #
edge $-1 $553 0 $553 6.2831853071796004 $265 $554 forward 7 unknown #
vertex $-1 $268 $555 #
ellipse-curve $-1 47.649598163222194 26.513372692299736 4.0768583476216289 0 0.83867057594974714 0.54463902268945019 1 0 0 1 I I #
coedge $-1 $402 $402 $-1 $556 reversed $271 $-1 #
edge $-1 $557 0 $557 6.2831853071796004 $272 $558 forward 7 unknown #
vertex $-1 $275 $559 #
ellipse-curve $-1 51.780320236998222 26.513372692299736 4.0768583476216289 0 0.83867057594974714 0.54463902268945019 1 0 0 1 I I #
face $-1 $-1 $418 $58 $-1 $560 forward single #
loop $-1 $-1 $561 $276 #
plane-surface $-1 0 -28.880107534907104 0 0 1 0 0 0 1 forward_v I I I I #
coedge $-1 $562 $563 $564 $565 reversed $277 $-1 #
coedge $-1 $566 $279 $281 $416 forward $175 $-1 #
coedge $-1 $279 $566 $562 $567 forward $175 $-1 #
coedge $-1 $564 $282 $279 $413 forward $418 $-1 #
edge $-1 $420 2.0864342968524525 $568 24.755721119752231 $412 $569 forward 7 unknown #
coedge $-1 $570 $571 $280 $415 forward $407 $-1 #
edge $-1 $572 -41.854919443413188 $419 -35.185734819045919 $414 $573 forward 7 unknown #
edge $-1 $420 -10.597439136568696 $572 -2.7465363939559239e-014 $281 $574 forward 7 unknown #
coedge $-1 $282 $564 $570 $575 forward $418 $-1 #
loop $-1 $-1 $564 $406 #
vertex $-1 $415 $576 #
vertex $-1 $283 $577 #
straight-curve $-1 -15.507512005154794 -48.759497327708914 7.7213105276514042 0 1 0 I I #
coedge $-1 $422 $422 $-1 $578 reversed $286 $-1 #
edge $-1 $579 0 $579 6.2831853071796004 $287 $580 forward 7 unknown #
vertex $-1 $290 $581 #
ellipse-curve $-1 -31.699859735797492 -24.762229055053048 4.3867182154677753 0 -0.62932039886446345 0.77714595512881146 1.5 0 0 1 I I #
coedge $-1 $426 $426 $-1 $582 reversed $293 $-1 #
edge $-1 $583 0 $583 6.2831853071796004 $294 $584 forward 7 unknown #
vertex $-1 $297 $585 #
ellipse-curve $-1 -21.984451097411871 -24.762229055053048 4.3867182154677753 0 -0.62932039886446345 0.77714595512881146 1.5 0 0 1 I I #
face $-1 $-1 $442 $61 $-1 $586 forward single #
loop $-1 $-1 $587 $298 #
plane-surface $-1 0 -28.880107534907104 0 0 1 0 0 0 1 forward_v I I I I #
coedge $-1 $588 $589 $590 $591 reversed $299 $-1 #
coedge $-1 $592 $301 $303 $440 forward $189 $-1 #
coedge $-1 $301 $592 $588 $593 forward $189 $-1 #
coedge $-1 $590 $304 $301 $437 forward $442 $-1 #
edge $-1 $444 -29.312427773360277 $594 -6.6431409504604986 $436 $595 forward 7 unknown #
coedge $-1 $596 $597 $302 $439 forward $431 $-1 #
edge $-1 $598 -41.854919443413188 $443 -35.185734819045919 $438 $599 forward 7 unknown #
edge $-1 $444 -10.597439136568696 $598 -2.7465363939559239e-014 $303 $600 forward 7 unknown #
coedge $-1 $304 $590 $596 $601 forward $442 $-1 #
loop $-1 $-1 $590 $430 #
vertex $-1 $439 $602 #
vertex $-1 $305 $603 #
straight-curve $-1 47.290212135270664 -48.759497327708914 7.7213105276514042 0 1 0 I I #
coedge $-1 $446 $446 $-1 $604 reversed $308 $-1 #
edge $-1 $605 0 $605 6.2831853071796004 $309 $606 forward 7 unknown #
vertex $-1 $312 $607 #
ellipse-curve $-1 31.097864404627956 -24.762229055053048 4.3867182154677753 0 -0.62932039886446345 0.77714595512881146 1.5 0 0 1 I I #
coedge $-1 $450 $450 $-1 $608 reversed $315 $-1 #
edge $-1 $609 0 $609 6.2831853071796004 $316 $610 forward 7 unknown #
vertex $-1 $319 $611 #
ellipse-curve $-1 40.813273043013581 -24.762229055053048 4.3867182154677753 0 -0.62932039886446345 0.77714595512881146 1.5 0 0 1 I I #
face $-1 $-1 $335 $48 $-1 $612 reversed single #
loop $-1 $-1 $470 $320 #
plane-surface $-1 0 28.880107534907104 0 0 -1 0 0 0 -1 forward_v I I I I #
coedge $-1 $613 $468 $471 $614 forward $321 $-1 #
coedge $-1 $474 $323 $324 $462 reversed $203 $-1 #
coedge $-1 $468 $613 $323 $460 reversed $321 $-1 #
edge $-1 $475 -7.7213105276514078 $615 7.7213105276514078 $459 $616 forward 7 unknown #
coedge $-1 $325 $324 $613 $617 forward $129 $-1 #
edge $-1 $466 -54.534134952848902 $615 54.534134952848902 $458 $618 forward 7 unknown #
coedge $-1 $471 $470 $325 $464 reversed $455 $-1 #
edge $-1 $619 -54.534134952848902 $465 54.534134952848902 $463 $620 forward 7 unknown #
vertex $-1 $327 $621 #
vertex $-1 $477 $622 #
straight-curve $-1 54.534134952848902 0 -7.7213105276514078 0 -1 0 I I #
coedge $-1 $457 $459 $328 $469 reversed $321 $-1 #
edge $-1 $472 -28.880107534907104 $475 28.880107534907104 $468 $623 forward 7 unknown #
coedge $-1 $463 $329 $334 $478 forward $455 $-1 #
coedge $-1 $329 $463 $457 $614 reversed $455 $-1 #
vertex $-1 $330 $624 #
straight-curve $-1 0 28.880107534907104 7.7213105276514078 -1 0 0 I I #
coedge $-1 $331 $458 $333 $477 reversed $203 $-1 #
vertex $-1 $469 $625 #
straight-curve $-1 0 -28.880107534907104 7.7213105276514078 1 0 0 I I #
edge $-1 $336 -7.7213105276514078 $466 7.7213105276514078 $333 $626 forward 7 unknown #
edge $-1 $337 -7.7213105276514078 $465 7.7213105276514078 $334 $627 forward 7 unknown #
point $-1 54.534134952848902 -28.880107534907104 7.7213105276514078 #
point $-1 54.534134952848902 28.880107534907104 7.7213105276514078 #
face $-1 $-1 $495 $49 $-1 $628 reversed single #
loop $-1 $-1 $491 $339 #
plane-surface $-1 0 0 7.7213105276514078 0 0 1 1 0 0 forward_v I I I I #
coedge $-1 $629 $630 $485 $631 forward $340 $-1 #
coedge $-1 $343 $342 $484 $631 reversed $133 $-1 #
edge $-1 $632 -4.5567066536080389 $351 4.5567066536080389 $342 $633 forward 7 unknown #
coedge $-1 $634 $491 $343 $488 forward $482 $-1 #
edge $-1 $489 54.534134952848902 $635 63.64754826006498 $343 $636 forward 7 unknown #
vertex $-1 $488 $637 #
straight-curve $-1 -54.534134952848902 28.880107534907104 0 0 0 -1 I I #
coedge $-1 $487 $638 $345 $492 forward $482 $-1 #
edge $-1 $496 -28.880107534907104 $489 28.880107534907104 $491 $639 forward 7 unknown #
coedge $-1 $640 $346 $638 $641 reversed $495 $-1 #
coedge $-1 $346 $640 $348 $499 reversed $495 $-1 #
loop $-1 $-1 $346 $481 #
vertex $-1 $347 $642 #
straight-curve $-1 -54.534134952848902 -28.880107534907104 0 0 0 1 I I #
coedge $-1 $349 $348 $629 $643 forward $211 $-1 #
edge $-1 $350 -4.5567066536080389 $644 4.5567066536080389 $494 $645 forward 7 unknown #
point $-1 -54.534134952848902 -28.880107534907104 3.2190703712924709 #
point $-1 -54.534134952848902 28.880107534907104 3.2190703712924709 #
loop $-1 $-1 $361 $353 #
plane-surface $-1 0 28.880107534907104 0 0 -1 0 0 0 -1 forward_v I I I I #
coedge $-1 $505 $356 $358 $509 reversed $219 $-1 #
coedge $-1 $356 $504 $646 $647 reversed $219 $-1 #
coedge $-1 $364 $359 $356 $507 forward $354 $-1 #
edge $-1 $510 -20.30035674461018 $648 -15.566887059395448 $506 $649 forward 7 unknown #
coedge $-1 $358 $357 $513 $650 reversed $137 $-1 #
edge $-1 $651 -57.760215069814187 $510 -49.069193148834927 $504 $652 forward 7 unknown #
vertex $-1 $360 $653 #
straight-curve $-1 -1.163915068009338 24.146637849692375 7.7213105276514078 1 0 0 I I #
coedge $-1 $646 $361 $364 $517 reversed $502 $-1 #
coedge $-1 $361 $646 $508 $650 forward $502 $-1 #
vertex $-1 $362 $654 #
straight-curve $-1 -9.2123669256453873 28.880107534907104 54.138517467521304 0 0 1 I I #
straight-curve $-1 -9.2123669256453873 -2.5783595510489477 48.874199007174184 0 0.54463902268945019 -0.83867057594974714 I I #
edge $-1 $648 -4.5567066536080354 $365 9.2123669256453873 $512 $655 forward 7 unknown #
point $-1 -9.2123669256453873 28.880107534907104 7.7213105276514078 #
point $-1 -9.2123669256453873 24.146637849692372 7.7213105276514113 #
edge $-1 $656 1 $656 0 $368 $-1 forward 7 unknown #
vertex $-1 $369 $657 #
ellipse-curve $-1 -6.4585522097946964 24.484458951171881 2.7592664005836722 0 0.83867057594974714 0.54463902268945019 1 0 0 1 I I #
point $-1 -5.4585522097946964 26.513372692299736 4.0768583476216289 #
edge $-1 $658 1 $658 0 $372 $-1 forward 7 unknown #
vertex $-1 $373 $659 #
ellipse-curve $-1 -2.3278301360186688 24.484458951171881 2.7592664005836722 0 0.83867057594974714 0.54463902268945019 1 0 0 1 I I #
point $-1 -1.3278301360186688 26.513372692299736 4.0768583476216289 #
edge $-1 $660 1 $660 0 $376 $-1 forward 7 unknown #
vertex $-1 $377 $661 #
ellipse-curve $-1 1.8028919377573587 24.484458951171881 2.7592664005836722 0 0.83867057594974714 0.54463902268945019 1 0 0 1 I I #
point $-1 2.8028919377573587 26.513372692299736 4.0768583476216289 #
loop $-1 $-1 $535 $380 #
plane-surface $-1 54.534134952848902 0 0 -1 0 0 0 0 1 forward_v I I I I #
coedge $-1 $384 $383 $541 $662 reversed $156 $-1 #
coedge $-1 $663 $664 $384 $536 forward $532 $-1 #
edge $-1 $538 27.872379220607606 $665 36.563401141586866 $535 $666 forward 7 unknown #
coedge $-1 $390 $385 $664 $667 forward $248 $-1 #
vertex $-1 $667 $668 #
straight-curve $-1 23.824799081611097 24.146637849692375 7.7213105276514078 1 0 0 I I #
coedge $-1 $669 $387 $390 $545 reversed $381 $-1 #
coedge $-1 $387 $669 $534 $662 forward $381 $-1 #
vertex $-1 $388 $670 #
straight-curve $-1 40.765061373595486 28.880107534907104 54.138517467521304 0 0 1 I I #
straight-curve $-1 40.765061373595486 -2.5783595510489477 48.874199007174184 0 0.54463902268945019 -0.83867057594974714 I I #
edge $-1 $671 -54.534134952848902 $391 -40.765061373595486 $540 $672 forward 7 unknown #
point $-1 40.765061373595486 28.880107534907104 7.7213105276514078 #
point $-1 40.765061373595486 24.146637849692372 7.7213105276514113 #
edge $-1 $673 1 $673 0 $394 $-1 forward 7 unknown #
vertex $-1 $395 $674 #
ellipse-curve $-1 43.518876089446167 24.484458951171881 2.7592664005836722 0 0.83867057594974714 0.54463902268945019 1 0 0 1 I I #
point $-1 44.518876089446167 26.513372692299736 4.0768583476216289 #
edge $-1 $675 1 $675 0 $398 $-1 forward 7 unknown #
vertex $-1 $399 $676 #
ellipse-curve $-1 47.649598163222194 24.484458951171881 2.7592664005836722 0 0.83867057594974714 0.54463902268945019 1 0 0 1 I I #
point $-1 48.649598163222194 26.513372692299736 4.0768583476216289 #
edge $-1 $677 1 $677 0 $402 $-1 forward 7 unknown #
vertex $-1 $403 $678 #
ellipse-curve $-1 51.780320236998222 24.484458951171881 2.7592664005836722 0 0.83867057594974714 0.54463902268945019 1 0 0 1 I I #
point $-1 52.780320236998222 26.513372692299736 4.0768583476216289 #
plane-surface $-1 0 0 7.7213105276514078 0 0 1 1 0 0 forward_v I I I I #
coedge $-1 $571 $570 $563 $679 forward $407 $-1 #
coedge $-1 $563 $409 $411 $567 reversed $277 $-1 #
coedge $-1 $409 $562 $561 $679 reversed $277 $-1 #
coedge $-1 $417 $412 $409 $565 forward $418 $-1 #
edge $-1 $568 -28.115146752509915 $680 -19.87938979280181 $564 $681 forward 7 unknown #
coedge $-1 $411 $410 $571 $682 reversed $175 $-1 #
edge $-1 $683 2.7465363939559239e-014 $568 10.597439136568696 $562 $684 forward 7 unknown #
vertex $-1 $413 $685 #
straight-curve $-1 -13.421077708302342 -20.644350575198999 7.7213105276514078 -1 0 0 I I #
coedge $-1 $561 $414 $417 $575 reversed $407 $-1 #
coedge $-1 $414 $561 $566 $682 forward $407 $-1 #
vertex $-1 $415 $686 #
straight-curve $-1 -15.507512005154794 -28.880107534907104 42.907045346697323 0 0 1 I I #
straight-curve $-1 -15.507512005154794 -28.880107534907125 1.0521259032841215 0 -0.77714595512881146 -0.62932039886446345 I I #
edge $-1 $680 -38.176798828054572 $419 -15.507512005154794 $570 $687 forward 7 unknown #
point $-1 -15.507512005154794 -28.880107534907104 7.7213105276514078 #
point $-1 -15.507512005154794 -20.644350575198999 7.7213105276514078 #
edge $-1 $688 1 $688 0 $422 $-1 forward 7 unknown #
vertex $-1 $423 $689 #
ellipse-curve $-1 -31.699859735797492 -23.137811500331598 2.3807296373605276 0 -0.62932039886446345 0.77714595512881146 1.5 0 0 1 I I #
point $-1 -30.199859735797492 -24.762229055053037 4.3867182154677611 #
edge $-1 $690 1 $690 0 $426 $-1 forward 7 unknown #
vertex $-1 $427 $691 #
ellipse-curve $-1 -21.984451097411871 -23.137811500331598 2.3807296373605276 0 -0.62932039886446345 0.77714595512881146 1.5 0 0 1 I I #
point $-1 -20.484451097411871 -24.762229055053037 4.3867182154677611 #
plane-surface $-1 0 0 7.7213105276514078 0 0 1 1 0 0 forward_v I I I I #
coedge $-1 $597 $596 $589 $692 forward $431 $-1 #
coedge $-1 $589 $433 $435 $593 reversed $299 $-1 #
coedge $-1 $433 $588 $587 $692 reversed $299 $-1 #
coedge $-1 $441 $436 $433 $591 forward $442 $-1 #
edge $-1 $594 -28.115146752509915 $693 -19.87938979280181 $590 $694 forward 7 unknown #
coedge $-1 $435 $434 $597 $695 reversed $189 $-1 #
edge $-1 $696 2.7465363939559239e-014 $594 10.597439136568696 $588 $697 forward 7 unknown #
vertex $-1 $437 $698 #
straight-curve $-1 17.977784361910388 -20.644350575198999 7.7213105276514078 -1 0 0 I I #
coedge $-1 $587 $438 $441 $601 reversed $431 $-1 #
coedge $-1 $438 $587 $592 $695 forward $431 $-1 #
vertex $-1 $439 $699 #
straight-curve $-1 47.290212135270664 -28.880107534907104 42.907045346697323 0 0 1 I I #
straight-curve $-1 47.290212135270664 -28.880107534907125 1.0521259032841215 0 -0.77714595512881146 -0.62932039886446345 I I #
edge $-1 $693 24.620925312370886 $443 47.290212135270664 $596 $700 forward 7 unknown #
point $-1 47.290212135270664 -28.880107534907104 7.7213105276514078 #
point $-1 47.290212135270664 -20.644350575198999 7.7213105276514078 #
edge $-1 $701 1 $701 0 $446 $-1 forward 7 unknown #
vertex $-1 $447 $702 #
ellipse-curve $-1 31.097864404627956 -23.137811500331598 2.3807296373605276 0 -0.62932039886446345 0.77714595512881146 1.5 0 0 1 I I #
point $-1 32.597864404627956 -24.762229055053037 4.3867182154677611 #
edge $-1 $703 1 $703 0 $450 $-1 forward 7 unknown #
vertex $-1 $451 $704 #
ellipse-curve $-1 40.813273043013581 -23.137811500331598 2.3807296373605276 0 -0.62932039886446345 0.77714595512881146 1.5 0 0 1 I I #
point $-1 42.313273043013581 -24.762229055053037 4.3867182154677611 #
plane-surface $-1 54.534134952848902 0 0 -1 0 0 0 0 1 forward_v I I I I #
coedge $-1 $459 $457 $461 $617 reversed $321 $-1 #
edge $-1 $472 -7.7213105276514078 $619 7.7213105276514078 $471 $705 forward 7 unknown #
vertex $-1 $617 $706 #
straight-curve $-1 -54.534134952848902 -28.880107534907104 0 0 0 -1 I I #
edge $-1 $615 -28.880107534907104 $619 28.880107534907104 $613 $707 forward 7 unknown #
straight-curve $-1 0 -28.880107534907104 -7.7213105276514078 -1 0 0 I I #
vertex $-1 $464 $708 #
straight-curve $-1 0 28.880107534907104 -7.7213105276514078 1 0 0 I I #
point $-1 54.534134952848902 28.880107534907104 -7.7213105276514078 #
point $-1 54.534134952848902 -28.880107534907104 -7.7213105276514078 #
straight-curve $-1 -54.534134952848902 0 7.7213105276514078 0 -1 0 I I #
point $-1 -54.534134952848902 28.880107534907104 7.7213105276514078 #
point $-1 -54.534134952848902 -28.880107534907104 7.7213105276514078 #
straight-curve $-1 54.534134952848902 -28.880107534907104 0 0 0 -1 I I #
straight-curve $-1 54.534134952848902 28.880107534907104 0 0 0 -1 I I #
plane-surface $-1 0 -28.880107534907104 0 0 1 0 0 0 1 forward_v I I I I #
coedge $-1 $709 $484 $498 $643 reversed $340 $-1 #
coedge $-1 $484 $709 $634 $710 reversed $340 $-1 #
edge $-1 $635 -2.2511200781794685 $632 2.2511200781794685 $485 $711 forward 7 unknown #
vertex $-1 $486 $712 #
straight-curve $-1 -59.090841606456941 28.880107534907104 3.2190703712924709 1 0 0 I I #
coedge $-1 $638 $487 $630 $710 forward $482 $-1 #
vertex $-1 $488 $713 #
straight-curve $-1 0 28.880107534907104 7.7213105276514078 -1 0 0 I I #
point $-1 -54.534134952848902 28.880107534907104 7.7213105276514078 #
coedge $-1 $491 $634 $493 $641 forward $482 $-1 #
straight-curve $-1 -54.534134952848902 0 7.7213105276514078 0 1 0 I I #
coedge $-1 $494 $493 $709 $714 forward $495 $-1 #
edge $-1 $715 -63.64754826006498 $496 -54.534134952848902 $493 $716 forward 7 unknown #
point $-1 -54.534134952848902 -28.880107534907104 7.7213105276514078 #
edge $-1 $644 -28.880107534907104 $632 28.880107534907104 $629 $717 forward 7 unknown #
vertex $-1 $643 $718 #
straight-curve $-1 -59.090841606456941 -28.880107534907104 3.2190703712924709 -1 0 0 I I #
coedge $-1 $513 $512 $505 $647 forward $502 $-1 #
edge $-1 $648 46.417206939869899 $651 53.706111299929447 $646 $719 forward 7 unknown #
vertex $-1 $517 $720 #
straight-curve $-1 4.5567066536080354 44.446994594302552 7.7213105276514042 0 1 0 I I #
edge $-1 $651 -5.7206217216173734 $514 8.0484518576360493 $513 $721 forward 7 unknown #
vertex $-1 $650 $722 #
straight-curve $-1 4.5567066536080354 -2.5783595510489477 48.874199007174184 0 -0.54463902268945019 0.83867057594974714 I I #
point $-1 4.5567066536080354 24.146637849692372 7.7213105276514113 #
point $-1 -9.2123669256453873 28.880107534907104 0.43240616759185713 #
straight-curve $-1 0 28.880107534907104 7.7213105276514078 -1 0 0 I I #
vertex $-1 $520 $723 #
point $-1 -5.4585522097946964 24.484458951171881 2.7592664005836722 #
vertex $-1 $524 $724 #
point $-1 -1.3278301360186688 24.484458951171881 2.7592664005836722 #
vertex $-1 $528 $725 #
point $-1 2.8028919377573587 24.484458951171881 2.7592664005836722 #
edge $-1 $665 -30.709335871237805 $542 -16.940262291984389 $541 $726 forward 7 unknown #
coedge $-1 $664 $535 $669 $727 reversed $532 $-1 #
coedge $-1 $535 $663 $537 $667 reversed $532 $-1 #
vertex $-1 $536 $728 #
straight-curve $-1 54.534134952848902 8.9662524709509057 31.097054861688157 0 0.54463902268945019 -0.83867057594974714 I I #
edge $-1 $538 24.146637849692372 $671 28.880107534907104 $664 $729 forward 7 unknown #
point $-1 54.534134952848902 24.146637849692372 7.7213105276514113 #
coedge $-1 $541 $540 $663 $727 forward $381 $-1 #
point $-1 40.765061373595486 28.880107534907104 0.43240616759185713 #
vertex $-1 $667 $730 #
straight-curve $-1 0 28.880107534907104 7.7213105276514078 -1 0 0 I I #
vertex $-1 $548 $731 #
point $-1 44.518876089446167 24.484458951171881 2.7592664005836722 #
vertex $-1 $552 $732 #
point $-1 48.649598163222194 24.484458951171881 2.7592664005836722 #
vertex $-1 $556 $733 #
point $-1 52.780320236998222 24.484458951171881 2.7592664005836722 #
edge $-1 $680 35.185734819045919 $683 41.854919443413188 $561 $734 forward 7 unknown #
vertex $-1 $575 $735 #
straight-curve $-1 -38.176798828054572 -48.759497327708914 7.7213105276514042 0 -1 0 I I #
edge $-1 $683 -24.755721119752231 $572 -2.0864342968524525 $571 $736 forward 7 unknown #
vertex $-1 $682 $737 #
straight-curve $-1 -38.176798828054572 -28.880107534907125 1.0521259032841215 0 0.77714595512881146 0.62932039886446345 I I #
point $-1 -38.176798828054572 -20.644350575198999 7.7213105276514078 #
point $-1 -15.507512005154794 -28.880107534907104 1.0521259032841388 #
straight-curve $-1 0 -28.880107534907104 7.7213105276514078 1 0 0 I I #
vertex $-1 $578 $738 #
point $-1 -30.199859735797492 -23.137811500331598 2.3807296373605276 #
vertex $-1 $582 $739 #
point $-1 -20.484451097411871 -23.137811500331598 2.3807296373605276 #
edge $-1 $693 35.185734819045919 $696 41.854919443413188 $587 $740 forward 7 unknown #
vertex $-1 $601 $741 #
straight-curve $-1 24.620925312370886 -48.759497327708914 7.7213105276514042 0 -1 0 I I #
edge $-1 $696 6.6431409504604986 $598 29.312427773360277 $597 $742 forward 7 unknown #
vertex $-1 $695 $743 #
straight-curve $-1 24.620925312370886 -28.880107534907125 1.0521259032841215 0 0.77714595512881146 0.62932039886446345 I I #
point $-1 24.620925312370886 -20.644350575198999 7.7213105276514078 #
point $-1 47.290212135270664 -28.880107534907104 1.0521259032841388 #
straight-curve $-1 0 -28.880107534907104 7.7213105276514078 1 0 0 I I #
vertex $-1 $604 $744 #
point $-1 32.597864404627956 -23.137811500331598 2.3807296373605276 #
vertex $-1 $608 $745 #
point $-1 42.313273043013581 -23.137811500331598 2.3807296373605276 #
straight-curve $-1 -54.534134952848902 28.880107534907104 0 0 0 -1 I I #
point $-1 -54.534134952848902 -28.880107534907104 -7.7213105276514078 #
straight-curve $-1 -54.534134952848902 0 -7.7213105276514078 0 1 0 I I #
point $-1 -54.534134952848902 28.880107534907104 -7.7213105276514078 #
coedge $-1 $630 $629 $640 $714 reversed $340 $-1 #
edge $-1 $635 -28.880107534907104 $715 28.880107534907104 $630 $746 forward 7 unknown #
straight-curve $-1 -63.64754826006498 28.880107534907104 5.4701904494719393 0 0 -1 I I #
point $-1 -63.64754826006498 28.880107534907104 3.2190703712924709 #
point $-1 -63.64754826006498 28.880107534907104 7.7213105276514078 #
edge $-1 $715 -2.2511200781794685 $644 2.2511200781794685 $709 $747 forward 7 unknown #
vertex $-1 $710 $748 #
straight-curve $-1 0 -28.880107534907104 7.7213105276514078 1 0 0 I I #
straight-curve $-1 -63.64754826006498 0 3.2190703712924709 0 1 0 I I #
point $-1 -63.64754826006498 -28.880107534907104 3.2190703712924709 #
straight-curve $-1 4.5567066536080354 28.880107534907104 54.138517467521304 0 0 -1 I I #
point $-1 4.5567066536080354 28.880107534907104 7.7213105276514078 #
straight-curve $-1 -1.163915068009338 28.880107534907104 0.43240616759185357 -1 0 0 I I #
point $-1 4.5567066536080354 28.880107534907104 0.43240616759185713 #
point $-1 -6.4585522097946964 23.645788375222132 2.2146273778942218 #
point $-1 -2.3278301360186688 23.645788375222132 2.2146273778942218 #
point $-1 1.8028919377573587 23.645788375222132 2.2146273778942218 #
straight-curve $-1 23.824799081611097 28.880107534907104 0.43240616759185357 -1 0 0 I I #
edge $-1 $671 -7.7213105276514078 $665 -0.43240616759185713 $663 $749 forward 7 unknown #
point $-1 54.534134952848902 28.880107534907104 0.43240616759185713 #
straight-curve $-1 54.534134952848902 0 7.7213105276514078 0 1 0 I I #
point $-1 54.534134952848902 28.880107534907104 7.7213105276514078 #
point $-1 43.518876089446167 23.645788375222132 2.2146273778942218 #
point $-1 47.649598163222194 23.645788375222132 2.2146273778942218 #
point $-1 51.780320236998222 23.645788375222132 2.2146273778942218 #
straight-curve $-1 -38.176798828054572 -28.880107534907104 42.907045346697323 0 0 -1 I I #
point $-1 -38.176798828054572 -28.880107534907104 7.7213105276514078 #
straight-curve $-1 -13.421077708302342 -28.880107534907104 1.0521259032841401 1 0 0 I I #
point $-1 -38.176798828054572 -28.880107534907104 1.0521259032841388 #
point $-1 -31.699859735797492 -22.1938309020349 1.2150107046673106 #
point $-1 -21.984451097411871 -22.1938309020349 1.2150107046673106 #
straight-curve $-1 24.620925312370886 -28.880107534907104 42.907045346697323 0 0 -1 I I #
point $-1 24.620925312370886 -28.880107534907104 7.7213105276514078 #
straight-curve $-1 17.977784361910388 -28.880107534907104 1.0521259032841401 1 0 0 I I #
point $-1 24.620925312370886 -28.880107534907104 1.0521259032841388 #
point $-1 31.097864404627956 -22.1938309020349 1.2150107046673106 #
point $-1 40.813273043013581 -22.1938309020349 1.2150107046673106 #
straight-curve $-1 -63.64754826006498 0 7.7213105276514078 0 -1 0 I I #
straight-curve $-1 -63.64754826006498 -28.880107534907104 5.4701904494719393 0 0 -1 I I #
point $-1 -63.64754826006498 -28.880107534907104 7.7213105276514078 #
straight-curve $-1 54.534134952848902 28.880107534907104 0 0 0 -1 I I #
End-of-ACIS-data 