500 0 8 0           
7 Unknown 11 ACIS 5.0 NT 24 Fri Mar 26 17:16:04 1999 
-1 9.9999999999999995e-007 1e-010 
body $-1 $8 $-1 $9 #
body $-1 $10 $-1 $11 #
body $-1 $12 $-1 $13 #
body $-1 $14 $-1 $15 #
body $-1 $16 $-1 $17 #
body $-1 $18 $-1 $19 #
body $-1 $20 $-1 $21 #
body $-1 $22 $-1 $23 #
lump $-1 $-1 $24 $0 #
transform $-1 1 0 0 0 1 0 0 0 1 69.5516830957976 35.263405914703959 16.305410606838318 1 rotate no_reflect no_shear #
lump $-1 $-1 $25 $1 #
transform $-1 1 0 0 0 1 0 0 0 1 69.5516830957976 35.263405914703959 16.305410606838318 1 rotate no_reflect no_shear #
lump $-1 $-1 $26 $2 #
transform $-1 1 0 0 0 1 0 0 0 1 69.5516830957976 35.263405914703959 16.305410606838318 1 rotate no_reflect no_shear #
lump $-1 $-1 $27 $3 #
transform $-1 1 0 0 0 1 0 0 0 1 69.5516830957976 35.263405914703959 16.305410606838318 1 rotate no_reflect no_shear #
lump $-1 $-1 $28 $4 #
transform $-1 1 0 0 0 1 0 0 0 1 69.5516830957976 35.263405914703959 16.305410606838318 1 rotate no_reflect no_shear #
lump $-1 $-1 $29 $5 #
transform $-1 1 0 0 0 1 0 0 0 1 69.5516830957976 35.263405914703959 16.305410606838318 1 rotate no_reflect no_shear #
lump $-1 $-1 $30 $6 #
transform $-1 1 0 0 0 1 0 0 0 1 69.5516830957976 35.263405914703959 16.305410606838318 1 rotate no_reflect no_shear #
lump $-1 $-1 $31 $7 #
transform $-1 1 0 0 0 1 0 0 0 1 69.5516830957976 35.263405914703959 16.305410606838318 1 rotate no_reflect no_shear #
shell $-1 $-1 $-1 $32 $-1 $8 #
shell $-1 $-1 $-1 $33 $-1 $10 #
shell $-1 $-1 $-1 $34 $-1 $12 #
shell $-1 $-1 $-1 $35 $-1 $14 #
shell $-1 $-1 $-1 $36 $-1 $16 #
shell $-1 $-1 $-1 $37 $-1 $18 #
shell $-1 $-1 $-1 $38 $-1 $20 #
shell $-1 $-1 $-1 $39 $-1 $22 #
face $-1 $40 $41 $24 $-1 $42 forward single #
face $-1 $43 $44 $25 $-1 $45 reversed single #
face $-1 $46 $47 $26 $-1 $48 forward single #
face $-1 $49 $50 $27 $-1 $51 reversed single #
face $-1 $52 $53 $28 $-1 $54 forward single #
face $-1 $55 $56 $29 $-1 $57 forward single #
face $-1 $58 $59 $30 $-1 $60 reversed single #
face $-1 $61 $62 $31 $-1 $63 forward single #
face $-1 $64 $65 $24 $-1 $66 reversed single #
loop $-1 $-1 $67 $32 #
plane-surface $-1 0 0 16.305410606838318 0 0 1 1 0 0 forward_v I I I I #
face $-1 $68 $69 $25 $-1 $70 reversed single #
loop $-1 $-1 $71 $33 #
plane-surface $-1 -63.175927676230216 0 11.480617364802644 0 0 1 1 0 0 forward_v I I I I #
face $-1 $72 $73 $26 $-1 $74 reversed single #
loop $-1 $-1 $75 $34 #
plane-surface $-1 69.5516830957976 0 0 -1 0 0 0 0 1 forward_v I I I I #
face $-1 $76 $77 $27 $-1 $78 reversed single #
loop $-1 $-1 $79 $35 #
plane-surface $-1 17.646021799267601 -130.13167466445537 114.94902571842461 -1 0 0 0 -0.68199836817093118 0.7313536940579346 forward_v I I I I #
face $-1 $80 $81 $28 $-1 $82 forward single #
loop $-1 $83 $84 $36 #
cone-surface $-1 1.4608737822085089 -33.265519037443518 14.394660955544111 0 0.68199836817093118 -0.7313536940579346 0.5 0 0 1 I I 0 1 0.5 forward I I I I #
face $-1 $85 $86 $29 $-1 $87 forward single #
loop $-1 $88 $89 $37 #
cone-surface $-1 11.171962592443961 -33.265519037443518 14.394660955544111 0 0.68199836817093118 -0.7313536940579346 0.5 0 0 1 I I 0 1 0.5 forward I I I I #
face $-1 $90 $91 $30 $-1 $92 reversed single #
loop $-1 $-1 $93 $38 #
plane-surface $-1 -34.359403137294962 88.897999453214425 146.96035516562659 1 0 0 0 -0.73135370988377701 -0.68199835119979291 forward_v I I I I #
face $-1 $94 $95 $31 $-1 $96 forward single #
loop $-1 $97 $98 $39 #
cone-surface $-1 -17.660541194515801 22.117455558846462 3.0167626942633925 0 -0.73135370988377701 -0.68199835119979291 5 0 0 1 I I 0 1 5 forward I I I I #
face $-1 $99 $100 $24 $-1 $101 reversed single #
loop $-1 $-1 $102 $40 #
plane-surface $-1 0 0 -16.305410606838318 0 0 1 1 0 0 forward_v I I I I #
coedge $-1 $103 $104 $105 $106 forward $41 $-1 #
face $-1 $107 $108 $25 $-1 $109 reversed single #
loop $-1 $-1 $110 $43 #
plane-surface $-1 -56.800172256662833 0 13.893013985820481 -1 0 0 0 0 1 forward_v I I I I #
coedge $-1 $111 $112 $113 $114 forward $44 $-1 #
face $-1 $115 $116 $26 $-1 $117 forward single #
loop $-1 $-1 $118 $46 #
plane-surface $-1 0 -35.263405914703959 0 0 1 0 0 0 1 forward_v I I I I #
coedge $-1 $119 $120 $121 $122 forward $47 $-1 #
face $-1 $123 $124 $27 $-1 $125 reversed single #
loop $-1 $-1 $126 $49 #
plane-surface $-1 6.3164181873262351 -35.263405914703966 13.215264998307845 0 -0.68199836817093118 0.7313536940579346 1 0 0 forward_v I I I I #
coedge $-1 $127 $128 $129 $130 reversed $50 $-1 #
face $-1 $-1 $131 $28 $-1 $132 forward single #
loop $-1 $133 $134 $52 #
cone-surface $-1 1.4608737822085089 -32.754020261315318 13.846145685000661 0 0.68199836817093118 -0.7313536940579346 0.25 0 0 1 I I -0.70710678118654746 0.70710678118654746 0.25 forward I I I I #
loop $-1 $-1 $135 $36 #
coedge $-1 $84 $84 $136 $137 reversed $53 $-1 #
face $-1 $-1 $138 $29 $-1 $139 forward single #
loop $-1 $140 $141 $55 #
cone-surface $-1 11.171962592443961 -32.754020261315318 13.846145685000661 0 0.68199836817093118 -0.7313536940579346 0.25 0 0 1 I I -0.70710678118654746 0.70710678118654746 0.25 forward I I I I #
loop $-1 $-1 $142 $37 #
coedge $-1 $89 $89 $143 $144 reversed $56 $-1 #
face $-1 $145 $146 $30 $-1 $147 reversed single #
loop $-1 $-1 $148 $58 #
plane-surface $-1 -17.660541194515801 -12.835763468330285 52.092088776617658 0 0.73135370988377701 0.68199835119979291 1 0 0 forward_v I I I I #
coedge $-1 $149 $150 $151 $152 reversed $59 $-1 #
face $-1 $-1 $153 $31 $-1 $154 forward single #
loop $-1 $155 $156 $61 #
cone-surface $-1 -17.660541194515801 14.506897387152513 -4.0801974423443959 0 -0.73135370988377701 -0.68199835119979291 2.5 0 0 1 I I -0.70710678118654746 0.70710678118654746 2.5 forward I I I I #
loop $-1 $-1 $157 $39 #
coedge $-1 $98 $98 $158 $159 reversed $62 $-1 #
face $-1 $160 $161 $24 $-1 $162 reversed single #
loop $-1 $-1 $163 $64 #
plane-surface $-1 0 -35.263405914703959 0 0 1 0 0 0 1 forward_v I I I I #
coedge $-1 $164 $165 $166 $167 forward $65 $-1 #
coedge $-1 $168 $67 $169 $170 forward $41 $-1 #
coedge $-1 $67 $168 $171 $172 forward $41 $-1 #
coedge $-1 $173 $174 $67 $106 reversed $175 $-1 #
edge $-1 $176 -35.263405914703959 $177 35.263405914703959 $105 $178 forward 7 unknown #
face $-1 $179 $180 $25 $-1 $181 reversed single #
loop $-1 $-1 $182 $68 #
plane-surface $-1 0 35.263405914703959 0 0 -1 0 0 0 -1 forward_v I I I I #
coedge $-1 $113 $183 $184 $185 reversed $69 $-1 #
coedge $-1 $186 $71 $187 $188 reversed $44 $-1 #
coedge $-1 $71 $186 $189 $190 reversed $44 $-1 #
coedge $-1 $191 $110 $71 $114 reversed $69 $-1 #
edge $-1 $192 -35.263405914703959 $193 35.263405914703959 $113 $194 forward 7 unknown #
face $-1 $195 $196 $26 $-1 $197 reversed single #
loop $-1 $-1 $198 $72 #
plane-surface $-1 75.442351678982092 0 15.69779145648681 0 0 1 1 0 0 forward_v I I I I #
coedge $-1 $199 $200 $120 $201 forward $73 $-1 #
coedge $-1 $202 $75 $203 $204 reversed $47 $-1 #
coedge $-1 $75 $202 $118 $201 reversed $47 $-1 #
coedge $-1 $205 $206 $75 $122 reversed $116 $-1 #
edge $-1 $207 -35.263405914703959 $208 35.263405914703959 $121 $209 forward 7 unknown #
face $-1 $210 $211 $27 $-1 $212 forward single #
loop $-1 $-1 $213 $76 #
plane-surface $-1 -5.0131854246151306 -130.13167466445537 114.94902571842461 1 0 0 0 0.68199836817093118 -0.7313536940579346 forward_v I I I I #
coedge $-1 $214 $215 $216 $217 reversed $77 $-1 #
coedge $-1 $128 $79 $218 $219 reversed $50 $-1 #
coedge $-1 $79 $127 $214 $220 reversed $50 $-1 #
coedge $-1 $216 $221 $79 $130 forward $211 $-1 #
edge $-1 $222 29.802431417523728 $223 33.116206803873681 $129 $224 forward 7 unknown #
loop $-1 $-1 $136 $80 #
plane-surface $-1 6.3164181873262351 -35.263405914703966 13.215264998307845 0 -0.68199836817093118 0.7313536940579346 1 0 0 forward_v I I I I #
loop $-1 $-1 $225 $52 #
coedge $-1 $134 $134 $135 $226 reversed $81 $-1 #
coedge $-1 $135 $135 $134 $226 forward $83 $-1 #
coedge $-1 $136 $136 $84 $137 forward $131 $-1 #
edge $-1 $227 3.1243262971221418e-015 $227 6.283185307179604 $136 $228 forward 7 unknown #
loop $-1 $-1 $143 $85 #
plane-surface $-1 6.3164181873262351 -35.263405914703966 13.215264998307845 0 -0.68199836817093118 0.7313536940579346 1 0 0 forward_v I I I I #
loop $-1 $-1 $229 $55 #
coedge $-1 $141 $141 $142 $230 reversed $86 $-1 #
coedge $-1 $142 $142 $141 $230 forward $88 $-1 #
coedge $-1 $143 $143 $89 $144 forward $138 $-1 #
edge $-1 $231 3.1243262971221418e-015 $231 6.283185307179604 $143 $232 forward 7 unknown #
face $-1 $233 $234 $30 $-1 $235 reversed single #
loop $-1 $-1 $236 $90 #
plane-surface $-1 -0.96167925173664059 88.897999453214425 146.96035516562659 -1 0 0 0 0.73135370988377701 0.68199835119979291 forward_v I I I I #
coedge $-1 $237 $238 $239 $240 reversed $91 $-1 #
coedge $-1 $150 $93 $241 $242 reversed $59 $-1 #
coedge $-1 $93 $149 $237 $243 reversed $59 $-1 #
coedge $-1 $239 $244 $93 $152 forward $245 $-1 #
edge $-1 $246 9.185593811903253 $247 23.913146729649206 $151 $248 forward 7 unknown #
loop $-1 $-1 $158 $94 #
plane-surface $-1 -17.660541194515801 -12.835763468330285 52.092088776617658 0 0.73135370988377701 0.68199835119979291 1 0 0 forward_v I I I I #
loop $-1 $-1 $249 $61 #
coedge $-1 $156 $156 $157 $250 reversed $95 $-1 #
coedge $-1 $157 $157 $156 $250 forward $97 $-1 #
coedge $-1 $158 $158 $98 $159 forward $153 $-1 #
edge $-1 $251 -2.7417442474294412e-016 $251 6.2831853071796004 $158 $252 forward 7 unknown #
face $-1 $253 $254 $24 $-1 $255 reversed single #
loop $-1 $-1 $256 $99 #
plane-surface $-1 -69.5516830957976 0 0 1 0 0 0 0 -1 forward_v I I I I #
coedge $-1 $257 $171 $258 $259 forward $100 $-1 #
coedge $-1 $260 $102 $257 $261 forward $65 $-1 #
coedge $-1 $102 $260 $262 $263 forward $65 $-1 #
coedge $-1 $174 $173 $102 $167 reversed $175 $-1 #
edge $-1 $264 -35.263405914703959 $265 35.263405914703959 $166 $266 forward 7 unknown #
coedge $-1 $104 $103 $267 $268 forward $41 $-1 #
coedge $-1 $269 $270 $103 $170 reversed $254 $-1 #
edge $-1 $177 -69.5516830957976 $271 69.5516830957976 $169 $272 forward 7 unknown #
coedge $-1 $163 $273 $104 $172 reversed $100 $-1 #
edge $-1 $274 -69.5516830957976 $176 69.5516830957976 $171 $275 forward 7 unknown #
coedge $-1 $166 $105 $273 $276 forward $175 $-1 #
coedge $-1 $105 $166 $269 $277 reversed $175 $-1 #
loop $-1 $-1 $173 $253 #
vertex $-1 $106 $278 #
vertex $-1 $106 $279 #
straight-curve $-1 69.5516830957976 0 16.305410606838318 0 1 0 I I #
face $-1 $280 $281 $25 $-1 $282 forward single #
loop $-1 $-1 $283 $107 #
plane-surface $-1 -69.5516830957976 0 0 1 0 0 0 0 -1 forward_v I I I I #
coedge $-1 $189 $284 $191 $285 forward $108 $-1 #
coedge $-1 $110 $191 $286 $287 reversed $69 $-1 #
coedge $-1 $288 $187 $110 $185 forward $289 $-1 #
edge $-1 $193 4.5341103718924032 $290 9.3589036139280779 $184 $291 forward 7 unknown #
coedge $-1 $112 $111 $283 $292 reversed $44 $-1 #
coedge $-1 $184 $293 $111 $188 forward $289 $-1 #
edge $-1 $294 -37.963719257682492 $193 -25.212208418547725 $187 $295 forward 7 unknown #
coedge $-1 $296 $182 $112 $190 forward $108 $-1 #
edge $-1 $192 25.212208418547725 $297 37.963719257682492 $189 $298 forward 7 unknown #
coedge $-1 $183 $113 $182 $285 reversed $69 $-1 #
vertex $-1 $190 $299 #
vertex $-1 $188 $300 #
straight-curve $-1 -56.800172256662833 0 11.480617364802644 0 -1 0 I I #
face $-1 $301 $302 $26 $-1 $303 reversed single #
loop $-1 $-1 $304 $115 #
plane-surface $-1 75.442351678982092 0 7.8504736004817151 0 0 1 1 0 0 forward_v I I I I #
coedge $-1 $206 $205 $305 $306 forward $116 $-1 #
coedge $-1 $307 $118 $308 $309 reversed $73 $-1 #
coedge $-1 $118 $307 $205 $310 reversed $73 $-1 #
edge $-1 $207 -15.69779145648681 $311 -7.8504736004817151 $118 $312 forward 7 unknown #
coedge $-1 $120 $119 $313 $314 forward $47 $-1 #
coedge $-1 $315 $316 $119 $204 forward $317 $-1 #
edge $-1 $318 7.8504736004817151 $208 15.69779145648681 $203 $319 forward 7 unknown #
coedge $-1 $198 $121 $200 $310 forward $116 $-1 #
coedge $-1 $121 $198 $315 $320 forward $116 $-1 #
vertex $-1 $201 $321 #
vertex $-1 $320 $322 #
straight-curve $-1 69.5516830957976 0 15.69779145648681 0 1 0 I I #
face $-1 $-1 $323 $27 $-1 $324 reversed single #
loop $-1 $-1 $129 $123 #
plane-surface $-1 0 0 16.305410606838318 0 0 1 1 0 0 forward_v I I I I #
coedge $-1 $325 $326 $327 $328 reversed $124 $-1 #
coedge $-1 $329 $126 $128 $220 forward $77 $-1 #
coedge $-1 $126 $329 $325 $330 forward $77 $-1 #
coedge $-1 $327 $129 $126 $217 forward $211 $-1 #
edge $-1 $223 -14.487812705604483 $331 8.1713945182782481 $216 $332 forward 7 unknown #
coedge $-1 $333 $334 $127 $219 forward $323 $-1 #
edge $-1 $335 -44.259247860904452 $222 -41.169102252373989 $218 $336 forward 7 unknown #
edge $-1 $223 -4.5310161325136527 $335 -1.0042470408882777e-014 $128 $337 forward 7 unknown #
coedge $-1 $129 $327 $333 $338 forward $211 $-1 #
vertex $-1 $130 $339 #
vertex $-1 $130 $340 #
straight-curve $-1 17.646021799267601 -65.065837332227687 16.305410606838322 0 1 0 I I #
coedge $-1 $225 $225 $-1 $341 reversed $133 $-1 #
edge $-1 $342 0 $342 6.2831853071796004 $134 $343 forward 7 unknown #
vertex $-1 $137 $344 #
ellipse-curve $-1 1.4608737822085089 -33.606518221528987 14.760337802573083 0 -0.68199836817093118 0.7313536940579346 0.5 0 0 1 I I #
coedge $-1 $229 $229 $-1 $345 reversed $140 $-1 #
edge $-1 $346 0 $346 6.2831853071796004 $141 $347 forward 7 unknown #
vertex $-1 $144 $348 #
ellipse-curve $-1 11.171962592443961 -33.606518221528987 14.760337802573083 0 -0.68199836817093118 0.7313536940579346 0.5 0 0 1 I I #
face $-1 $-1 $245 $30 $-1 $349 forward single #
loop $-1 $-1 $350 $145 #
plane-surface $-1 0 35.263405914703959 0 0 -1 0 0 0 -1 forward_v I I I I #
coedge $-1 $351 $352 $353 $354 reversed $146 $-1 #
coedge $-1 $355 $148 $150 $243 forward $91 $-1 #
coedge $-1 $148 $355 $351 $356 forward $91 $-1 #
coedge $-1 $353 $151 $148 $240 forward $245 $-1 #
edge $-1 $247 -25.529132540037061 $357 7.8685913455212599 $239 $358 forward 7 unknown #
coedge $-1 $359 $360 $149 $242 forward $234 $-1 #
edge $-1 $361 -72.968134283908171 $246 -57.174766975974975 $241 $362 forward 7 unknown #
edge $-1 $247 48.932107250083362 $361 70.526811829407904 $150 $363 forward 7 unknown #
coedge $-1 $151 $353 $359 $364 forward $245 $-1 #
loop $-1 $-1 $353 $233 #
vertex $-1 $242 $365 #
vertex $-1 $152 $366 #
straight-curve $-1 -34.359403137294962 44.448999726607212 16.305410606838322 0 -1 0 I I #
coedge $-1 $249 $249 $-1 $367 reversed $155 $-1 #
edge $-1 $368 0 $368 6.2831853071796004 $156 $369 forward 7 unknown #
vertex $-1 $159 $370 #
ellipse-curve $-1 -17.660541194515801 27.899629455830993 8.4087269528717208 0 0.73135370988377701 0.68199835119979291 5 0 0 1 I I #
face $-1 $-1 $175 $24 $-1 $371 reversed single #
loop $-1 $-1 $269 $160 #
plane-surface $-1 0 35.263405914703959 0 0 -1 0 0 0 -1 forward_v I I I I #
coedge $-1 $372 $267 $270 $373 forward $161 $-1 #
coedge $-1 $273 $163 $164 $261 reversed $100 $-1 #
coedge $-1 $267 $372 $163 $259 reversed $161 $-1 #
edge $-1 $274 -16.305410606838318 $374 16.305410606838318 $258 $375 forward 7 unknown #
coedge $-1 $165 $164 $372 $376 forward $65 $-1 #
edge $-1 $265 -69.5516830957976 $374 69.5516830957976 $257 $377 forward 7 unknown #
coedge $-1 $270 $269 $165 $263 reversed $254 $-1 #
edge $-1 $378 -69.5516830957976 $264 69.5516830957976 $262 $379 forward 7 unknown #
vertex $-1 $167 $380 #
vertex $-1 $276 $381 #
straight-curve $-1 69.5516830957976 0 -16.305410606838318 0 -1 0 I I #
coedge $-1 $256 $258 $168 $268 reversed $161 $-1 #
edge $-1 $271 -35.263405914703959 $274 35.263405914703959 $267 $382 forward 7 unknown #
coedge $-1 $262 $169 $174 $277 forward $254 $-1 #
coedge $-1 $169 $262 $256 $373 reversed $254 $-1 #
vertex $-1 $170 $383 #
straight-curve $-1 0 35.263405914703959 16.305410606838318 -1 0 0 I I #
coedge $-1 $171 $257 $173 $276 reversed $100 $-1 #
vertex $-1 $268 $384 #
straight-curve $-1 0 -35.263405914703959 16.305410606838318 1 0 0 I I #
edge $-1 $176 -16.305410606838318 $265 16.305410606838318 $173 $385 forward 7 unknown #
edge $-1 $177 -16.305410606838318 $264 16.305410606838318 $174 $386 forward 7 unknown #
point $-1 69.5516830957976 -35.263405914703959 16.305410606838318 #
point $-1 69.5516830957976 35.263405914703959 16.305410606838318 #
face $-1 $-1 $289 $25 $-1 $387 reversed single #
loop $-1 $-1 $286 $179 #
plane-surface $-1 0 0 16.305410606838318 0 0 1 1 0 0 forward_v I I I I #
coedge $-1 $388 $389 $186 $292 forward $180 $-1 #
coedge $-1 $182 $296 $390 $391 reversed $108 $-1 #
edge $-1 $392 -9.3589036139280779 $192 -4.5341103718924032 $182 $393 forward 7 unknown #
coedge $-1 $390 $394 $183 $287 forward $281 $-1 #
edge $-1 $290 -35.263405914703959 $392 35.263405914703959 $286 $395 forward 7 unknown #
coedge $-1 $293 $184 $394 $396 reversed $289 $-1 #
loop $-1 $-1 $184 $280 #
vertex $-1 $185 $397 #
straight-curve $-1 -56.800172256662833 -35.263405914703959 6.9465069929102405 0 0 1 I I #
edge $-1 $297 -35.263405914703959 $294 35.263405914703959 $283 $398 forward 7 unknown #
coedge $-1 $187 $288 $388 $399 forward $289 $-1 #
vertex $-1 $292 $400 #
straight-curve $-1 -31.587963838115108 -35.263405914703959 11.480617364802644 1 0 0 I I #
coedge $-1 $284 $189 $389 $401 reversed $108 $-1 #
vertex $-1 $292 $402 #
straight-curve $-1 -31.587963838115108 35.263405914703959 11.480617364802644 -1 0 0 I I #
point $-1 -56.800172256662833 35.263405914703959 11.480617364802644 #
point $-1 -56.800172256662833 -35.263405914703959 11.480617364802644 #
face $-1 $-1 $317 $26 $-1 $403 reversed single #
loop $-1 $-1 $404 $195 #
plane-surface $-1 81.333020262166585 0 11.774132528484262 -1 0 0 0 0 1 forward_v I I I I #
coedge $-1 $308 $405 $406 $407 forward $196 $-1 #
coedge $-1 $404 $408 $198 $306 reversed $302 $-1 #
edge $-1 $409 -35.263405914703959 $410 35.263405914703959 $305 $411 forward 7 unknown #
coedge $-1 $200 $199 $404 $412 reversed $73 $-1 #
coedge $-1 $313 $304 $199 $309 forward $196 $-1 #
edge $-1 $413 -5.8906685831844925 $311 5.8906685831844925 $199 $414 forward 7 unknown #
edge $-1 $207 -5.8906685831844925 $409 5.8906685831844925 $200 $415 forward 7 unknown #
vertex $-1 $201 $416 #
straight-curve $-1 69.5516830957976 -35.263405914703959 0 0 0 -1 I I #
coedge $-1 $405 $308 $202 $314 reversed $196 $-1 #
edge $-1 $318 -35.263405914703959 $311 35.263405914703959 $313 $417 forward 7 unknown #
coedge $-1 $418 $203 $206 $320 reversed $317 $-1 #
coedge $-1 $203 $418 $405 $419 reversed $317 $-1 #
loop $-1 $-1 $203 $301 #
vertex $-1 $204 $420 #
straight-curve $-1 69.5516830957976 35.263405914703959 0 0 0 1 I I #
edge $-1 $410 -5.8906685831844925 $208 5.8906685831844925 $315 $421 forward 7 unknown #
point $-1 69.5516830957976 -35.263405914703959 15.69779145648681 #
point $-1 69.5516830957976 35.263405914703959 15.69779145648681 #
loop $-1 $-1 $218 $210 #
plane-surface $-1 0 -35.263405914703959 0 0 1 0 0 0 1 forward_v I I I I #
coedge $-1 $326 $213 $215 $330 reversed $124 $-1 #
coedge $-1 $213 $325 $422 $423 reversed $124 $-1 #
coedge $-1 $221 $216 $213 $328 forward $211 $-1 #
edge $-1 $331 -33.116206803873681 $424 -29.802431417523728 $327 $425 forward 7 unknown #
coedge $-1 $215 $214 $334 $426 reversed $77 $-1 #
edge $-1 $427 1.0042470408882777e-014 $331 4.5310161325136527 $325 $428 forward 7 unknown #
vertex $-1 $217 $429 #
straight-curve $-1 3.1582090936631175 -31.949630528354014 16.305410606838318 -1 0 0 I I #
coedge $-1 $422 $218 $221 $338 reversed $323 $-1 #
coedge $-1 $218 $422 $329 $426 forward $323 $-1 #
vertex $-1 $219 $430 #
straight-curve $-1 17.646021799267601 -35.263405914703959 57.474512859212304 0 0 1 I I #
straight-curve $-1 17.646021799267601 -35.263405914703966 13.215264998307845 0 -0.7313536940579346 -0.68199836817093118 I I #
edge $-1 $424 -5.0131854246151306 $222 17.646021799267601 $333 $431 forward 7 unknown #
point $-1 17.646021799267601 -35.263405914703959 16.305410606838318 #
point $-1 17.646021799267601 -31.94963052835401 16.305410606838318 #
edge $-1 $432 1 $432 0 $225 $-1 forward 7 unknown #
vertex $-1 $226 $433 #
ellipse-curve $-1 1.4608737822085089 -32.924519853358049 14.028984108515145 0 -0.68199836817093118 0.7313536940579346 0.5 0 0 1 I I #
point $-1 1.9608737822085089 -33.606518221528979 14.760337802573078 #
edge $-1 $434 1 $434 0 $229 $-1 forward 7 unknown #
vertex $-1 $230 $435 #
ellipse-curve $-1 11.171962592443961 -32.924519853358049 14.028984108515145 0 -0.68199836817093118 0.7313536940579346 0.5 0 0 1 I I #
point $-1 11.671962592443961 -33.606518221528979 14.760337802573078 #
plane-surface $-1 0 0 16.305410606838318 0 0 1 1 0 0 forward_v I I I I #
coedge $-1 $360 $359 $352 $436 forward $234 $-1 #
coedge $-1 $352 $236 $238 $356 reversed $146 $-1 #
coedge $-1 $236 $351 $350 $436 reversed $146 $-1 #
coedge $-1 $244 $239 $236 $354 forward $245 $-1 #
edge $-1 $357 -23.913146729649206 $437 -9.185593811903253 $353 $438 forward 7 unknown #
coedge $-1 $238 $237 $360 $439 reversed $91 $-1 #
edge $-1 $440 -70.526811829407904 $357 -48.932107250083362 $351 $441 forward 7 unknown #
vertex $-1 $240 $442 #
straight-curve $-1 -8.8302705972579005 20.535852996958006 16.305410606838318 1 0 0 I I #
coedge $-1 $350 $241 $244 $364 reversed $234 $-1 #
coedge $-1 $241 $350 $355 $439 forward $234 $-1 #
vertex $-1 $242 $443 #
straight-curve $-1 -34.359403137294962 35.263405914703959 73.480177582813297 0 0 1 I I #
straight-curve $-1 -34.359403137294962 -12.835763468330285 52.092088776617658 0 0.68199835119979291 -0.73135370988377701 I I #
edge $-1 $437 0.96167925173664059 $246 34.359403137294962 $359 $444 forward 7 unknown #
point $-1 -34.359403137294962 35.263405914703959 16.305410606838318 #
point $-1 -34.359403137294962 20.535852996958006 16.305410606838322 #
edge $-1 $445 1 $445 0 $249 $-1 forward 7 unknown #
vertex $-1 $250 $446 #
ellipse-curve $-1 -17.660541194515801 16.335281661861956 -2.3752015643449136 0 0.73135370988377701 0.68199835119979291 5 0 0 1 I I #
point $-1 -12.660541194515801 27.899629455830969 8.4087269528716995 #
plane-surface $-1 69.5516830957976 0 0 -1 0 0 0 0 1 forward_v I I I I #
coedge $-1 $258 $256 $260 $376 reversed $161 $-1 #
edge $-1 $271 -16.305410606838318 $378 16.305410606838318 $270 $447 forward 7 unknown #
vertex $-1 $376 $448 #
straight-curve $-1 -69.5516830957976 -35.263405914703959 0 0 0 -1 I I #
edge $-1 $374 -35.263405914703959 $378 35.263405914703959 $372 $449 forward 7 unknown #
straight-curve $-1 0 -35.263405914703959 -16.305410606838318 -1 0 0 I I #
vertex $-1 $263 $450 #
straight-curve $-1 0 35.263405914703959 -16.305410606838318 1 0 0 I I #
point $-1 69.5516830957976 35.263405914703959 -16.305410606838318 #
point $-1 69.5516830957976 -35.263405914703959 -16.305410606838318 #
straight-curve $-1 -69.5516830957976 0 16.305410606838318 0 -1 0 I I #
point $-1 -69.5516830957976 35.263405914703959 16.305410606838318 #
point $-1 -69.5516830957976 -35.263405914703959 16.305410606838318 #
straight-curve $-1 69.5516830957976 -35.263405914703959 0 0 0 -1 I I #
straight-curve $-1 69.5516830957976 35.263405914703959 0 0 0 -1 I I #
plane-surface $-1 0 -35.263405914703959 0 0 1 0 0 0 1 forward_v I I I I #
coedge $-1 $451 $283 $293 $399 reversed $180 $-1 #
coedge $-1 $283 $451 $296 $401 forward $180 $-1 #
coedge $-1 $452 $286 $284 $391 forward $281 $-1 #
edge $-1 $392 56.800172256662833 $453 69.5516830957976 $284 $454 forward 7 unknown #
vertex $-1 $391 $455 #
straight-curve $-1 -56.800172256662833 35.263405914703959 6.9465069929102405 0 0 -1 I I #
coedge $-1 $286 $452 $288 $396 forward $281 $-1 #
straight-curve $-1 -56.800172256662833 0 16.305410606838318 0 1 0 I I #
edge $-1 $456 -69.5516830957976 $290 -56.800172256662833 $288 $457 forward 7 unknown #
point $-1 -56.800172256662833 -35.263405914703959 16.305410606838318 #
straight-curve $-1 -69.5516830957976 0 11.480617364802644 0 -1 0 I I #
edge $-1 $456 -16.305410606838318 $294 -11.480617364802644 $388 $458 forward 7 unknown #
point $-1 -69.5516830957976 -35.263405914703959 11.480617364802644 #
edge $-1 $453 -16.305410606838318 $297 -11.480617364802644 $296 $459 forward 7 unknown #
point $-1 -69.5516830957976 35.263405914703959 11.480617364802644 #
plane-surface $-1 0 35.263405914703959 0 0 -1 0 0 0 -1 forward_v I I I I #
coedge $-1 $406 $305 $307 $412 forward $302 $-1 #
coedge $-1 $304 $313 $316 $419 forward $196 $-1 #
coedge $-1 $408 $404 $304 $407 reversed $302 $-1 #
edge $-1 $460 -35.263405914703959 $413 35.263405914703959 $406 $461 forward 7 unknown #
coedge $-1 $305 $406 $418 $462 reversed $302 $-1 #
vertex $-1 $306 $463 #
vertex $-1 $306 $464 #
straight-curve $-1 81.333020262166585 0 15.69779145648681 0 1 0 I I #
edge $-1 $409 -3.9236589280025473 $413 3.9236589280025473 $404 $465 forward 7 unknown #
vertex $-1 $412 $466 #
straight-curve $-1 75.442351678982092 -35.263405914703959 7.8504736004817151 -1 0 0 I I #
straight-curve $-1 75.442351678982092 -35.263405914703959 15.69779145648681 1 0 0 I I #
point $-1 69.5516830957976 -35.263405914703959 7.8504736004817151 #
straight-curve $-1 69.5516830957976 0 7.8504736004817151 0 -1 0 I I #
coedge $-1 $316 $315 $408 $462 forward $317 $-1 #
edge $-1 $318 -5.8906685831844925 $460 5.8906685831844925 $316 $467 forward 7 unknown #
point $-1 69.5516830957976 35.263405914703959 7.8504736004817151 #
straight-curve $-1 75.442351678982092 35.263405914703959 15.69779145648681 -1 0 0 I I #
coedge $-1 $334 $333 $326 $423 forward $323 $-1 #
edge $-1 $424 41.169102252373989 $427 44.259247860904452 $422 $468 forward 7 unknown #
vertex $-1 $338 $469 #
straight-curve $-1 -5.0131854246151306 -65.065837332227687 16.305410606838322 0 -1 0 I I #
edge $-1 $427 -8.1713945182782481 $335 14.487812705604483 $334 $470 forward 7 unknown #
vertex $-1 $426 $471 #
straight-curve $-1 -5.0131854246151306 -35.263405914703966 13.215264998307845 0 0.7313536940579346 0.68199836817093118 I I #
point $-1 -5.0131854246151306 -31.94963052835401 16.305410606838318 #
point $-1 17.646021799267601 -35.263405914703959 13.215264998307852 #
straight-curve $-1 0 -35.263405914703959 16.305410606838318 1 0 0 I I #
vertex $-1 $341 $472 #
point $-1 1.9608737822085089 -32.924519853358049 14.028984108515145 #
vertex $-1 $345 $473 #
point $-1 11.671962592443961 -32.924519853358049 14.028984108515145 #
edge $-1 $437 57.174766975974975 $440 72.968134283908171 $350 $474 forward 7 unknown #
vertex $-1 $364 $475 #
straight-curve $-1 -0.96167925173664059 44.448999726607212 16.305410606838322 0 1 0 I I #
edge $-1 $440 -7.8685913455212599 $361 25.529132540037061 $360 $476 forward 7 unknown #
vertex $-1 $439 $477 #
straight-curve $-1 -0.96167925173664059 -12.835763468330285 52.092088776617658 0 -0.68199835119979291 0.73135370988377701 I I #
point $-1 -0.96167925173664059 20.535852996958006 16.305410606838322 #
point $-1 -34.359403137294962 35.263405914703959 0.51204329890513378 #
straight-curve $-1 0 35.263405914703959 16.305410606838318 -1 0 0 I I #
vertex $-1 $367 $478 #
point $-1 -12.660541194515801 16.335281661861956 -2.3752015643449136 #
straight-curve $-1 -69.5516830957976 35.263405914703959 0 0 0 -1 I I #
point $-1 -69.5516830957976 -35.263405914703959 -16.305410606838318 #
straight-curve $-1 -69.5516830957976 0 -16.305410606838318 0 1 0 I I #
point $-1 -69.5516830957976 35.263405914703959 -16.305410606838318 #
coedge $-1 $389 $388 $452 $479 reversed $180 $-1 #
coedge $-1 $394 $390 $451 $479 forward $281 $-1 #
vertex $-1 $391 $480 #
straight-curve $-1 0 35.263405914703959 16.305410606838318 -1 0 0 I I #
point $-1 -56.800172256662833 35.263405914703959 16.305410606838318 #
vertex $-1 $479 $481 #
straight-curve $-1 0 -35.263405914703959 16.305410606838318 1 0 0 I I #
straight-curve $-1 -69.5516830957976 -35.263405914703959 0 0 0 -1 I I #
straight-curve $-1 -69.5516830957976 35.263405914703959 0 0 0 -1 I I #
vertex $-1 $407 $482 #
straight-curve $-1 81.333020262166585 0 7.8504736004817151 0 -1 0 I I #
edge $-1 $410 -3.9236589280025473 $460 3.9236589280025473 $408 $483 forward 7 unknown #
point $-1 81.333020262166585 -35.263405914703959 15.69779145648681 #
point $-1 81.333020262166585 35.263405914703959 15.69779145648681 #
straight-curve $-1 81.333020262166585 -35.263405914703959 11.774132528484262 0 0 -1 I I #
point $-1 81.333020262166585 -35.263405914703959 7.8504736004817151 #
straight-curve $-1 75.442351678982092 35.263405914703959 7.8504736004817151 1 0 0 I I #
straight-curve $-1 -5.0131854246151306 -35.263405914703959 57.474512859212304 0 0 -1 I I #
point $-1 -5.0131854246151306 -35.263405914703959 16.305410606838318 #
straight-curve $-1 3.1582090936631175 -35.263405914703959 13.215264998307852 1 0 0 I I #
point $-1 -5.0131854246151306 -35.263405914703959 13.215264998307852 #
point $-1 1.4608737822085089 -32.583520669272588 13.663307261486176 #
point $-1 11.171962592443961 -32.583520669272588 13.663307261486176 #
straight-curve $-1 -0.96167925173664059 35.263405914703959 73.480177582813297 0 0 -1 I I #
point $-1 -0.96167925173664059 35.263405914703959 16.305410606838318 #
straight-curve $-1 -8.8302705972579005 35.263405914703959 0.51204329890513023 -1 0 0 I I #
point $-1 -0.96167925173664059 35.263405914703959 0.51204329890513378 #
point $-1 -17.660541194515801 12.678513112443071 -5.7851933203438781 #
edge $-1 $453 -35.263405914703959 $456 35.263405914703959 $451 $484 forward 7 unknown #
point $-1 -69.5516830957976 35.263405914703959 16.305410606838318 #
point $-1 -69.5516830957976 -35.263405914703959 16.305410606838318 #
point $-1 81.333020262166585 35.263405914703959 7.8504736004817151 #
straight-curve $-1 81.333020262166585 35.263405914703959 11.774132528484262 0 0 -1 I I #
straight-curve $-1 -69.5516830957976 0 16.305410606838318 0 -1 0 I I #
End-of-ACIS-data 