500 0 4 0           
7 Unknown 11 ACIS 5.0 NT 24 Fri Mar 26 17:04:23 1999 
-1 9.9999999999999995e-007 1e-010 
body $-1 $4 $-1 $5 #
body $-1 $6 $-1 $7 #
body $-1 $8 $-1 $9 #
body $-1 $10 $-1 $11 #
lump $-1 $-1 $12 $0 #
transform $-1 1 0 0 0 1 0 0 0 1 73.412884914700768 46.013951469501066 19.12232367780053 1 rotate no_reflect no_shear #
lump $-1 $-1 $13 $1 #
transform $-1 1 0 0 0 1 0 0 0 1 73.412884914700768 46.013951469501066 19.12232367780053 1 rotate no_reflect no_shear #
lump $-1 $-1 $14 $2 #
transform $-1 1 0 0 0 1 0 0 0 1 73.412884914700768 46.013951469501066 19.12232367780053 1 rotate no_reflect no_shear #
lump $-1 $-1 $15 $3 #
transform $-1 1 0 0 0 1 0 0 0 1 73.412884914700768 46.013951469501066 19.12232367780053 1 rotate no_reflect no_shear #
shell $-1 $-1 $-1 $16 $-1 $4 #
shell $-1 $-1 $-1 $17 $-1 $6 #
shell $-1 $-1 $-1 $18 $-1 $8 #
shell $-1 $-1 $-1 $19 $-1 $10 #
face $-1 $20 $21 $12 $-1 $22 forward single #
face $-1 $23 $24 $13 $-1 $25 forward single #
face $-1 $26 $27 $14 $-1 $28 reversed single #
face $-1 $29 $30 $15 $-1 $31 forward single #
face $-1 $32 $33 $12 $-1 $34 reversed single #
loop $-1 $-1 $35 $16 #
plane-surface $-1 0 0 19.12232367780053 0 0 1 1 0 0 forward_v I I I I #
face $-1 $36 $37 $13 $-1 $38 reversed single #
loop $-1 $-1 $39 $17 #
plane-surface $-1 0 -35.405517498394715 -10.675400328784129 0 0 1 1 0 0 forward_v I I I I #
face $-1 $40 $41 $14 $-1 $42 reversed single #
loop $-1 $-1 $43 $18 #
plane-surface $-1 87.897330660421247 26.457122238553929 222.42355283349619 0 1 0 0.75470958851134928 0 0.65605901945558964 forward_v I I I I #
face $-1 $44 $45 $15 $-1 $46 forward single #
loop $-1 $47 $48 $19 #
cone-surface $-1 70.905024672017632 36.235536854027515 16.473633962268654 -0.75470958851134928 0 -0.65605901945558964 0.65605901945558964 0 -0.75470958851134928 1 I I 0 1 1 forward I I I I #
face $-1 $49 $50 $12 $-1 $51 reversed single #
loop $-1 $-1 $52 $20 #
plane-surface $-1 0 0 -19.12232367780053 0 0 1 1 0 0 forward_v I I I I #
coedge $-1 $53 $54 $55 $56 forward $21 $-1 #
face $-1 $57 $58 $13 $-1 $59 reversed single #
loop $-1 $-1 $60 $23 #
plane-surface $-1 0 -24.797083527288361 -14.898862003292329 0 -1 0 0 0 -1 forward_v I I I I #
coedge $-1 $61 $62 $63 $64 reversed $24 $-1 #
face $-1 $65 $66 $14 $-1 $67 forward single #
loop $-1 $-1 $68 $26 #
plane-surface $-1 -22.913485670388468 36.235536854027501 126.09718224840692 0.75470958851134928 0 0.65605901945558964 0.65605901945558964 0 -0.75470958851134928 forward_v I I I I #
coedge $-1 $69 $70 $71 $72 reversed $27 $-1 #
face $-1 $-1 $73 $15 $-1 $74 forward single #
loop $-1 $75 $76 $29 #
cone-surface $-1 69.687083196420488 36.235536854027515 15.414893617110657 -0.75470958851134928 0 -0.65605901945558964 0.32802950972779482 0 -0.37735479425567464 1 I I -0.70710678118654746 0.70710678118654746 0.5 forward I I I I #
loop $-1 $-1 $77 $19 #
coedge $-1 $48 $48 $78 $79 reversed $30 $-1 #
face $-1 $80 $81 $12 $-1 $82 reversed single #
loop $-1 $-1 $83 $32 #
plane-surface $-1 0 -46.013951469501066 0 0 1 0 0 0 1 forward_v I I I I #
coedge $-1 $84 $85 $86 $87 forward $33 $-1 #
coedge $-1 $88 $35 $89 $90 forward $21 $-1 #
coedge $-1 $35 $88 $91 $92 forward $21 $-1 #
coedge $-1 $93 $94 $35 $56 reversed $95 $-1 #
edge $-1 $96 -46.013951469501066 $97 46.013951469501066 $55 $98 forward 7 unknown #
face $-1 $99 $100 $13 $-1 $101 reversed single #
loop $-1 $-1 $102 $36 #
plane-surface $-1 0 0 -19.12232367780053 0 0 1 1 0 0 forward_v I I I I #
coedge $-1 $103 $104 $105 $106 reversed $37 $-1 #
coedge $-1 $107 $39 $104 $108 forward $24 $-1 #
coedge $-1 $39 $107 $109 $110 reversed $24 $-1 #
coedge $-1 $111 $105 $39 $64 forward $100 $-1 #
edge $-1 $112 7.0943247780910035 $113 28.311192720303708 $63 $114 forward 7 unknown #
face $-1 $115 $116 $14 $-1 $117 reversed single #
loop $-1 $-1 $118 $40 #
plane-surface $-1 0 0 19.12232367780053 0 0 1 1 0 0 forward_v I I I I #
coedge $-1 $119 $120 $121 $122 reversed $41 $-1 #
coedge $-1 $70 $43 $123 $124 reversed $27 $-1 #
coedge $-1 $43 $69 $119 $125 reversed $27 $-1 #
coedge $-1 $121 $126 $43 $72 forward $127 $-1 #
edge $-1 $128 92.089452738947557 $129 95.925410499150843 $71 $130 forward 7 unknown #
loop $-1 $-1 $78 $44 #
plane-surface $-1 -22.913485670388468 36.235536854027501 126.09718224840692 0.75470958851134928 0 0.65605901945558964 0.65605901945558964 0 -0.75470958851134928 forward_v I I I I #
loop $-1 $-1 $131 $29 #
coedge $-1 $76 $76 $77 $132 reversed $45 $-1 #
coedge $-1 $77 $77 $76 $132 forward $47 $-1 #
coedge $-1 $78 $78 $48 $79 forward $73 $-1 #
edge $-1 $133 0 $133 6.2831853071796004 $78 $134 forward 7 unknown #
face $-1 $135 $136 $12 $-1 $137 reversed single #
loop $-1 $-1 $138 $49 #
plane-surface $-1 -73.412884914700768 0 0 1 0 0 0 0 -1 forward_v I I I I #
coedge $-1 $139 $91 $140 $141 forward $50 $-1 #
coedge $-1 $142 $52 $139 $143 forward $33 $-1 #
coedge $-1 $52 $142 $144 $145 forward $33 $-1 #
coedge $-1 $94 $93 $52 $87 reversed $95 $-1 #
edge $-1 $146 -46.013951469501066 $147 46.013951469501066 $86 $148 forward 7 unknown #
coedge $-1 $54 $53 $149 $150 forward $21 $-1 #
coedge $-1 $151 $152 $53 $90 reversed $136 $-1 #
edge $-1 $97 -73.412884914700768 $153 73.412884914700768 $89 $154 forward 7 unknown #
coedge $-1 $83 $155 $54 $92 reversed $50 $-1 #
edge $-1 $156 -73.412884914700768 $96 73.412884914700768 $91 $157 forward 7 unknown #
coedge $-1 $86 $55 $155 $158 forward $95 $-1 #
coedge $-1 $55 $86 $151 $159 reversed $95 $-1 #
loop $-1 $-1 $93 $135 #
vertex $-1 $56 $160 #
vertex $-1 $56 $161 #
straight-curve $-1 73.412884914700768 0 19.12232367780053 0 1 0 I I #
face $-1 $162 $163 $13 $-1 $164 reversed single #
loop $-1 $-1 $105 $57 #
plane-surface $-1 73.412884914700768 0 0 -1 0 0 0 0 1 forward_v I I I I #
coedge $-1 $165 $166 $103 $167 forward $58 $-1 #
coedge $-1 $168 $60 $102 $167 reversed $37 $-1 #
coedge $-1 $60 $168 $61 $108 reversed $37 $-1 #
coedge $-1 $63 $169 $60 $106 forward $100 $-1 #
edge $-1 $170 -11.672892676154365 $112 -3.2259693271379639 $105 $171 forward 7 unknown #
coedge $-1 $62 $61 $172 $173 reversed $24 $-1 #
edge $-1 $112 -73.412884914700768 $174 73.412884914700768 $104 $175 forward 7 unknown #
coedge $-1 $176 $177 $62 $110 forward $163 $-1 #
edge $-1 $113 -73.412884914700768 $178 73.412884914700768 $109 $179 forward 7 unknown #
coedge $-1 $169 $63 $177 $180 forward $100 $-1 #
vertex $-1 $64 $181 #
vertex $-1 $180 $182 #
straight-curve $-1 73.412884914700768 -17.702758749197358 -10.675400328784129 0 -1 0 I I #
face $-1 $-1 $127 $14 $-1 $183 reversed single #
loop $-1 $-1 $184 $65 #
plane-surface $-1 0 46.013951469501066 0 0 -1 0 0 0 -1 forward_v I I I I #
coedge $-1 $123 $185 $186 $187 forward $66 $-1 #
coedge $-1 $186 $68 $70 $125 forward $41 $-1 #
coedge $-1 $68 $186 $184 $188 reversed $41 $-1 #
coedge $-1 $189 $71 $68 $122 forward $127 $-1 #
edge $-1 $129 8.3393538115401782 $190 27.896183042487316 $121 $191 forward 7 unknown #
coedge $-1 $192 $118 $69 $124 forward $66 $-1 #
edge $-1 $193 26.129672461806813 $128 29.464219584490145 $123 $194 forward 7 unknown #
edge $-1 $129 -146.82576982940151 $193 -141.74307601101549 $70 $195 forward 7 unknown #
coedge $-1 $71 $189 $192 $196 reversed $127 $-1 #
loop $-1 $-1 $121 $115 #
vertex $-1 $196 $197 #
vertex $-1 $72 $198 #
straight-curve $-1 73.412884914700768 26.457122238553929 111.21177641674809 0 0 -1 I I #
coedge $-1 $131 $131 $-1 $199 reversed $75 $-1 #
edge $-1 $200 0 $200 6.2831853071796004 $76 $201 forward 7 unknown #
vertex $-1 $79 $202 #
ellipse-curve $-1 71.745611353359138 36.235536854027515 17.204344797698884 0.75470958851134928 0 0.65605901945558964 0.65605901945558964 0 -0.75470958851134928 1 I I #
face $-1 $-1 $95 $12 $-1 $203 reversed single #
loop $-1 $-1 $151 $80 #
plane-surface $-1 0 46.013951469501066 0 0 -1 0 0 0 -1 forward_v I I I I #
coedge $-1 $204 $149 $152 $205 forward $81 $-1 #
coedge $-1 $155 $83 $84 $143 reversed $50 $-1 #
coedge $-1 $149 $204 $83 $141 reversed $81 $-1 #
edge $-1 $156 -19.12232367780053 $206 19.12232367780053 $140 $207 forward 7 unknown #
coedge $-1 $85 $84 $204 $208 forward $33 $-1 #
edge $-1 $147 -73.412884914700768 $206 73.412884914700768 $139 $209 forward 7 unknown #
coedge $-1 $152 $151 $85 $145 reversed $136 $-1 #
edge $-1 $210 -73.412884914700768 $146 73.412884914700768 $144 $211 forward 7 unknown #
vertex $-1 $87 $212 #
vertex $-1 $158 $213 #
straight-curve $-1 73.412884914700768 0 -19.12232367780053 0 -1 0 I I #
coedge $-1 $138 $140 $88 $150 reversed $81 $-1 #
edge $-1 $153 -46.013951469501066 $156 46.013951469501066 $149 $214 forward 7 unknown #
coedge $-1 $144 $89 $94 $159 forward $136 $-1 #
coedge $-1 $89 $144 $138 $205 reversed $136 $-1 #
vertex $-1 $90 $215 #
straight-curve $-1 0 46.013951469501066 19.12232367780053 -1 0 0 I I #
coedge $-1 $91 $139 $93 $158 reversed $50 $-1 #
vertex $-1 $150 $216 #
straight-curve $-1 0 -46.013951469501066 19.12232367780053 1 0 0 I I #
edge $-1 $96 -19.12232367780053 $147 19.12232367780053 $93 $217 forward 7 unknown #
edge $-1 $97 -19.12232367780053 $146 19.12232367780053 $94 $218 forward 7 unknown #
point $-1 73.412884914700768 -46.013951469501066 19.12232367780053 #
point $-1 73.412884914700768 46.013951469501066 19.12232367780053 #
face $-1 $-1 $219 $13 $-1 $220 reversed single #
loop $-1 $-1 $109 $99 #
plane-surface $-1 0 -46.013951469501066 0 0 1 0 0 0 1 forward_v I I I I #
coedge $-1 $221 $102 $169 $222 forward $58 $-1 #
coedge $-1 $102 $221 $223 $224 forward $58 $-1 #
edge $-1 $225 -73.412884914700768 $170 73.412884914700768 $102 $226 forward 7 unknown #
coedge $-1 $104 $103 $227 $228 reversed $37 $-1 #
coedge $-1 $105 $111 $165 $222 reversed $100 $-1 #
vertex $-1 $222 $229 #
straight-curve $-1 73.412884914700768 -24.797083527288361 -7.4494310016461647 0 0 1 I I #
coedge $-1 $227 $230 $107 $173 forward $219 $-1 #
edge $-1 $178 -28.311192720303708 $174 -7.0943247780910035 $172 $231 forward 7 unknown #
vertex $-1 $173 $232 #
straight-curve $-1 0 -24.797083527288361 -10.675400328784129 -1 0 0 I I #
coedge $-1 $233 $109 $230 $234 forward $163 $-1 #
coedge $-1 $109 $233 $111 $180 reversed $163 $-1 #
vertex $-1 $234 $235 #
straight-curve $-1 0 -46.013951469501066 -10.675400328784129 -1 0 0 I I #
edge $-1 $113 10.675400328784129 $236 19.12232367780053 $111 $237 forward 7 unknown #
point $-1 73.412884914700768 -24.797083527288361 -10.675400328784129 #
point $-1 73.412884914700768 -46.013951469501066 -10.675400328784129 #
plane-surface $-1 73.412884914700768 0 0 -1 0 0 0 0 1 forward_v I I I I #
coedge $-1 $238 $239 $120 $188 forward $116 $-1 #
coedge $-1 $118 $192 $238 $240 forward $66 $-1 #
coedge $-1 $120 $119 $118 $187 reversed $41 $-1 #
edge $-1 $241 -27.896183042487323 $193 -8.3393538115401782 $118 $242 forward 7 unknown #
edge $-1 $190 -91.7260940952212 $241 -86.643400276835166 $184 $243 forward 7 unknown #
coedge $-1 $126 $121 $239 $244 reversed $127 $-1 #
vertex $-1 $122 $245 #
straight-curve $-1 73.412884914700768 18.11776842701375 15.286365917597244 0 1 0 I I #
coedge $-1 $185 $123 $126 $196 forward $66 $-1 #
vertex $-1 $124 $246 #
straight-curve $-1 43.948665330210623 26.457122238553929 19.122323677800537 1 0 0 I I #
straight-curve $-1 -22.913485670388468 26.457122238553929 126.09718224840692 -0.65605901945558964 0 0.75470958851134928 I I #
edge $-1 $128 26.457122238553929 $247 46.013951469501066 $126 $248 forward 7 unknown #
point $-1 73.412884914700768 26.457122238553929 19.12232367780053 #
point $-1 73.412884914700768 26.457122238553929 15.286365917597251 #
edge $-1 $249 1 $249 0 $131 $-1 forward 7 unknown #
vertex $-1 $132 $250 #
ellipse-curve $-1 70.064437990676169 36.235536854027515 15.742923126838452 0.75470958851134928 0 0.65605901945558964 0.65605901945558964 0 -0.75470958851134928 1 I I #
point $-1 72.401670372814692 36.235536854027515 16.449635209187509 #
plane-surface $-1 73.412884914700768 0 0 -1 0 0 0 0 1 forward_v I I I I #
coedge $-1 $140 $138 $142 $208 reversed $81 $-1 #
edge $-1 $153 -19.12232367780053 $210 19.12232367780053 $152 $251 forward 7 unknown #
vertex $-1 $208 $252 #
straight-curve $-1 -73.412884914700768 -46.013951469501066 0 0 0 -1 I I #
edge $-1 $206 -46.013951469501066 $210 46.013951469501066 $204 $253 forward 7 unknown #
straight-curve $-1 0 -46.013951469501066 -19.12232367780053 -1 0 0 I I #
vertex $-1 $145 $254 #
straight-curve $-1 0 46.013951469501066 -19.12232367780053 1 0 0 I I #
point $-1 73.412884914700768 46.013951469501066 -19.12232367780053 #
point $-1 73.412884914700768 -46.013951469501066 -19.12232367780053 #
straight-curve $-1 -73.412884914700768 0 19.12232367780053 0 -1 0 I I #
point $-1 -73.412884914700768 46.013951469501066 19.12232367780053 #
point $-1 -73.412884914700768 -46.013951469501066 19.12232367780053 #
straight-curve $-1 73.412884914700768 -46.013951469501066 0 0 0 -1 I I #
straight-curve $-1 73.412884914700768 46.013951469501066 0 0 0 -1 I I #
loop $-1 $-1 $227 $162 #
plane-surface $-1 -73.412884914700768 0 0 1 0 0 0 0 -1 forward_v I I I I #
coedge $-1 $166 $165 $233 $255 forward $58 $-1 #
edge $-1 $170 24.797083527288361 $236 46.013951469501066 $169 $256 forward 7 unknown #
coedge $-1 $230 $227 $166 $224 reversed $219 $-1 #
edge $-1 $257 -46.013951469501066 $225 -24.797083527288361 $223 $258 forward 7 unknown #
vertex $-1 $228 $259 #
straight-curve $-1 0 -24.797083527288361 -19.12232367780053 1 0 0 I I #
coedge $-1 $223 $172 $168 $228 forward $219 $-1 #
edge $-1 $174 3.2259693271379639 $225 11.672892676154365 $227 $260 forward 7 unknown #
point $-1 73.412884914700768 -24.797083527288361 -19.12232367780053 #
coedge $-1 $172 $223 $176 $234 reversed $219 $-1 #
straight-curve $-1 -73.412884914700768 -17.702758749197358 -10.675400328784129 0 1 0 I I #
point $-1 -73.412884914700768 -24.797083527288361 -10.675400328784129 #
coedge $-1 $177 $176 $221 $255 reversed $163 $-1 #
edge $-1 $178 10.675400328784129 $257 19.12232367780053 $230 $261 forward 7 unknown #
point $-1 -73.412884914700768 -46.013951469501066 -10.675400328784129 #
vertex $-1 $180 $262 #
straight-curve $-1 73.412884914700768 -46.013951469501066 0 0 0 -1 I I #
coedge $-1 $239 $184 $185 $240 reversed $116 $-1 #
coedge $-1 $184 $238 $189 $244 forward $116 $-1 #
edge $-1 $247 -73.412884914700768 $241 -70.078337792017436 $238 $263 forward 7 unknown #
vertex $-1 $187 $264 #
straight-curve $-1 70.078337792017464 18.11776842701375 19.122323677800523 0 -1 0 I I #
straight-curve $-1 13.235153564098795 46.013951469501066 84.512928647954936 -0.65605901945558975 0 0.75470958851134939 I I #
edge $-1 $247 -19.12232367780053 $190 -15.286365917597248 $189 $265 forward 7 unknown #
point $-1 73.412884914700768 46.013951469501066 15.286365917597248 #
point $-1 70.078337792017436 26.457122238553929 19.122323677800551 #
vertex $-1 $196 $266 #
straight-curve $-1 73.412884914700768 0 19.12232367780053 0 1 0 I I #
vertex $-1 $199 $267 #
point $-1 70.720497010131751 36.235536854027515 14.988213538327102 #
straight-curve $-1 -73.412884914700768 46.013951469501066 0 0 0 -1 I I #
point $-1 -73.412884914700768 -46.013951469501066 -19.12232367780053 #
straight-curve $-1 -73.412884914700768 0 -19.12232367780053 0 1 0 I I #
point $-1 -73.412884914700768 46.013951469501066 -19.12232367780053 #
edge $-1 $236 -73.412884914700768 $257 73.412884914700768 $233 $268 forward 7 unknown #
straight-curve $-1 73.412884914700768 0 -19.12232367780053 0 -1 0 I I #
vertex $-1 $224 $269 #
straight-curve $-1 -73.412884914700768 0 -19.12232367780053 0 1 0 I I #
point $-1 -73.412884914700768 -24.797083527288361 -19.12232367780053 #
straight-curve $-1 -73.412884914700768 -24.797083527288361 -7.4494310016461647 0 0 -1 I I #
straight-curve $-1 -73.412884914700768 -46.013951469501066 0 0 0 -1 I I #
point $-1 73.412884914700768 -46.013951469501066 -19.12232367780053 #
straight-curve $-1 0 46.013951469501066 19.12232367780053 -1 0 0 I I #
point $-1 70.078337792017436 46.013951469501073 19.122323677800551 #
straight-curve $-1 73.412884914700768 46.013951469501066 0 0 0 -1 I I #
point $-1 73.412884914700768 46.013951469501066 19.12232367780053 #
point $-1 69.309728402164808 36.235536854027515 15.086864107382862 #
straight-curve $-1 0 -46.013951469501066 -19.12232367780053 -1 0 0 I I #
point $-1 -73.412884914700768 -46.013951469501066 -19.12232367780053 #
End-of-ACIS-data 