500 0 2 0           
7 Unknown 11 ACIS 5.0 NT 24 Fri Mar 26 15:52:04 1999 
-1 9.9999999999999995e-007 1e-010 
body $-1 $2 $-1 $3 #
body $-1 $4 $-1 $5 #
lump $-1 $-1 $6 $0 #
transform $-1 1 0 0 0 1 0 0 0 1 62.748496963408307 40.832578550125731 11.691498617973407 1 rotate no_reflect no_shear #
lump $-1 $-1 $7 $1 #
transform $-1 1 0 0 0 1 0 0 0 1 62.748496963408307 40.832578550125731 11.691498617973407 1 rotate no_reflect no_shear #
shell $-1 $-1 $-1 $8 $-1 $2 #
shell $-1 $-1 $-1 $9 $-1 $4 #
face $-1 $10 $11 $6 $-1 $12 forward single #
face $-1 $13 $14 $7 $-1 $15 reversed single #
face $-1 $16 $17 $6 $-1 $18 reversed single #
loop $-1 $-1 $19 $8 #
plane-surface $-1 0 0 11.691498617973407 0 0 1 1 0 0 forward_v I I I I #
face $-1 $20 $21 $7 $-1 $22 reversed single #
loop $-1 $-1 $23 $9 #
plane-surface $-1 0 -33.26089972241806 8.4028074725569528 0 0 1 1 0 0 forward_v I I I I #
face $-1 $24 $25 $6 $-1 $26 reversed single #
loop $-1 $-1 $27 $10 #
plane-surface $-1 0 0 -11.691498617973407 0 0 1 1 0 0 forward_v I I I I #
coedge $-1 $28 $29 $30 $31 forward $11 $-1 #
face $-1 $32 $33 $7 $-1 $34 reversed single #
loop $-1 $-1 $35 $13 #
plane-surface $-1 0 -25.689220894710385 10.047153045265178 0 -1 0 0 0 -1 forward_v I I I I #
coedge $-1 $36 $37 $38 $39 reversed $14 $-1 #
face $-1 $40 $41 $6 $-1 $42 reversed single #
loop $-1 $-1 $43 $16 #
plane-surface $-1 0 -40.832578550125731 0 0 1 0 0 0 1 forward_v I I I I #
coedge $-1 $44 $45 $46 $47 forward $17 $-1 #
coedge $-1 $48 $19 $49 $50 forward $11 $-1 #
coedge $-1 $19 $48 $51 $52 forward $11 $-1 #
coedge $-1 $53 $54 $19 $31 reversed $55 $-1 #
edge $-1 $56 -40.832578550125731 $57 40.832578550125731 $30 $58 forward 7 unknown #
face $-1 $59 $60 $7 $-1 $61 reversed single #
loop $-1 $-1 $62 $20 #
plane-surface $-1 -62.748496963408307 0 0 1 0 0 0 0 -1 forward_v I I I I #
coedge $-1 $63 $64 $65 $66 reversed $21 $-1 #
coedge $-1 $67 $23 $68 $69 reversed $14 $-1 #
coedge $-1 $23 $67 $63 $70 forward $14 $-1 #
coedge $-1 $65 $71 $23 $39 forward $72 $-1 #
edge $-1 $73 -24.202128688916702 $74 -9.0587710335013547 $38 $75 forward 7 unknown #
face $-1 $76 $77 $6 $-1 $78 reversed single #
loop $-1 $-1 $79 $24 #
plane-surface $-1 -62.748496963408307 0 0 1 0 0 0 0 -1 forward_v I I I I #
coedge $-1 $80 $51 $81 $82 forward $25 $-1 #
coedge $-1 $83 $27 $80 $84 forward $17 $-1 #
coedge $-1 $27 $83 $85 $86 forward $17 $-1 #
coedge $-1 $54 $53 $27 $47 reversed $55 $-1 #
edge $-1 $87 -40.832578550125731 $88 40.832578550125731 $46 $89 forward 7 unknown #
coedge $-1 $29 $28 $90 $91 forward $11 $-1 #
coedge $-1 $92 $93 $28 $50 reversed $77 $-1 #
edge $-1 $57 -62.748496963408307 $94 62.748496963408307 $49 $95 forward 7 unknown #
coedge $-1 $43 $96 $29 $52 reversed $25 $-1 #
edge $-1 $97 -62.748496963408307 $56 62.748496963408307 $51 $98 forward 7 unknown #
coedge $-1 $46 $30 $96 $99 forward $55 $-1 #
coedge $-1 $30 $46 $92 $100 reversed $55 $-1 #
loop $-1 $-1 $53 $76 #
vertex $-1 $31 $101 #
vertex $-1 $31 $102 #
straight-curve $-1 62.748496963408307 0 11.691498617973407 0 1 0 I I #
face $-1 $103 $104 $7 $-1 $105 forward single #
loop $-1 $-1 $68 $32 #
plane-surface $-1 0 -40.832578550125731 0 0 1 0 0 0 1 forward_v I I I I #
coedge $-1 $106 $107 $108 $109 forward $33 $-1 #
coedge $-1 $108 $35 $37 $70 reversed $21 $-1 #
coedge $-1 $35 $108 $110 $111 reversed $21 $-1 #
coedge $-1 $112 $38 $35 $66 forward $72 $-1 #
edge $-1 $74 3.3792309499243638 $113 6.6679220953408143 $65 $114 forward 7 unknown #
coedge $-1 $37 $36 $106 $115 reversed $14 $-1 #
coedge $-1 $116 $117 $36 $69 forward $60 $-1 #
edge $-1 $118 -62.748496963408307 $73 62.748496963408307 $68 $119 forward 7 unknown #
edge $-1 $120 -62.748496963408307 $74 62.748496963408307 $63 $121 forward 7 unknown #
coedge $-1 $38 $112 $116 $122 forward $72 $-1 #
loop $-1 $-1 $65 $103 #
vertex $-1 $69 $123 #
vertex $-1 $39 $124 #
straight-curve $-1 62.748496963408307 -16.63044986120903 8.4028074725569528 0 1 0 I I #
face $-1 $-1 $55 $6 $-1 $125 reversed single #
loop $-1 $-1 $92 $40 #
plane-surface $-1 0 40.832578550125731 0 0 -1 0 0 0 -1 forward_v I I I I #
coedge $-1 $126 $90 $93 $127 forward $41 $-1 #
coedge $-1 $96 $43 $44 $84 reversed $25 $-1 #
coedge $-1 $90 $126 $43 $82 reversed $41 $-1 #
edge $-1 $97 -11.691498617973407 $128 11.691498617973407 $81 $129 forward 7 unknown #
coedge $-1 $45 $44 $126 $130 forward $17 $-1 #
edge $-1 $88 -62.748496963408307 $128 62.748496963408307 $80 $131 forward 7 unknown #
coedge $-1 $93 $92 $45 $86 reversed $77 $-1 #
edge $-1 $132 -62.748496963408307 $87 62.748496963408307 $85 $133 forward 7 unknown #
vertex $-1 $47 $134 #
vertex $-1 $99 $135 #
straight-curve $-1 62.748496963408307 0 -11.691498617973407 0 -1 0 I I #
coedge $-1 $79 $81 $48 $91 reversed $41 $-1 #
edge $-1 $94 -40.832578550125731 $97 40.832578550125731 $90 $136 forward 7 unknown #
coedge $-1 $85 $49 $54 $100 forward $77 $-1 #
coedge $-1 $49 $85 $79 $127 reversed $77 $-1 #
vertex $-1 $50 $137 #
straight-curve $-1 0 40.832578550125731 11.691498617973407 -1 0 0 I I #
coedge $-1 $51 $80 $53 $99 reversed $25 $-1 #
vertex $-1 $91 $138 #
straight-curve $-1 0 -40.832578550125731 11.691498617973407 1 0 0 I I #
edge $-1 $56 -11.691498617973407 $88 11.691498617973407 $53 $139 forward 7 unknown #
edge $-1 $57 -11.691498617973407 $87 11.691498617973407 $54 $140 forward 7 unknown #
point $-1 62.748496963408307 -40.832578550125731 11.691498617973407 #
point $-1 62.748496963408307 40.832578550125731 11.691498617973407 #
face $-1 $-1 $72 $7 $-1 $141 reversed single #
loop $-1 $-1 $110 $59 #
plane-surface $-1 0 0 11.691498617973407 0 0 1 1 0 0 forward_v I I I I #
coedge $-1 $142 $62 $67 $115 forward $33 $-1 #
coedge $-1 $62 $142 $143 $144 reversed $33 $-1 #
coedge $-1 $64 $63 $62 $109 reversed $21 $-1 #
edge $-1 $145 -6.6679220953408143 $120 -3.3792309499243638 $62 $146 forward 7 unknown #
coedge $-1 $143 $147 $64 $111 forward $104 $-1 #
edge $-1 $113 -62.748496963408307 $145 62.748496963408307 $110 $148 forward 7 unknown #
coedge $-1 $71 $65 $147 $149 reversed $72 $-1 #
vertex $-1 $66 $150 #
straight-curve $-1 62.748496963408307 -25.689220894710385 5.023576522632589 0 0 1 I I #
edge $-1 $120 9.0587710335013547 $118 24.202128688916702 $106 $151 forward 7 unknown #
coedge $-1 $152 $68 $71 $122 reversed $60 $-1 #
coedge $-1 $68 $152 $142 $153 forward $60 $-1 #
vertex $-1 $69 $154 #
straight-curve $-1 0 -40.832578550125731 8.4028074725569528 1 0 0 I I #
vertex $-1 $115 $155 #
straight-curve $-1 0 -25.689220894710385 8.4028074725569528 1 0 0 I I #
edge $-1 $156 -11.691498617973407 $73 -8.4028074725569528 $71 $157 forward 7 unknown #
point $-1 62.748496963408307 -40.832578550125731 8.4028074725569528 #
point $-1 62.748496963408307 -25.689220894710385 8.4028074725569528 #
plane-surface $-1 62.748496963408307 0 0 -1 0 0 0 0 1 forward_v I I I I #
coedge $-1 $81 $79 $83 $130 reversed $41 $-1 #
edge $-1 $94 -11.691498617973407 $132 11.691498617973407 $93 $158 forward 7 unknown #
vertex $-1 $130 $159 #
straight-curve $-1 -62.748496963408307 -40.832578550125731 0 0 0 -1 I I #
edge $-1 $128 -40.832578550125731 $132 40.832578550125731 $126 $160 forward 7 unknown #
straight-curve $-1 0 -40.832578550125731 -11.691498617973407 -1 0 0 I I #
vertex $-1 $86 $161 #
straight-curve $-1 0 40.832578550125731 -11.691498617973407 1 0 0 I I #
point $-1 62.748496963408307 40.832578550125731 -11.691498617973407 #
point $-1 62.748496963408307 -40.832578550125731 -11.691498617973407 #
straight-curve $-1 -62.748496963408307 0 11.691498617973407 0 -1 0 I I #
point $-1 -62.748496963408307 40.832578550125731 11.691498617973407 #
point $-1 -62.748496963408307 -40.832578550125731 11.691498617973407 #
straight-curve $-1 62.748496963408307 -40.832578550125731 0 0 0 -1 I I #
straight-curve $-1 62.748496963408307 40.832578550125731 0 0 0 -1 I I #
plane-surface $-1 62.748496963408307 0 0 -1 0 0 0 0 1 forward_v I I I I #
coedge $-1 $107 $106 $117 $153 reversed $33 $-1 #
coedge $-1 $162 $110 $107 $144 forward $104 $-1 #
edge $-1 $145 25.689220894710385 $163 40.832578550125731 $107 $164 forward 7 unknown #
vertex $-1 $144 $165 #
straight-curve $-1 -62.748496963408307 -25.689220894710385 5.023576522632589 0 0 -1 I I #
coedge $-1 $110 $162 $112 $149 forward $104 $-1 #
straight-curve $-1 0 -25.689220894710385 11.691498617973407 -1 0 0 I I #
edge $-1 $156 -40.832578550125731 $113 -25.689220894710385 $112 $166 forward 7 unknown #
point $-1 62.748496963408307 -25.689220894710385 11.691498617973403 #
straight-curve $-1 -62.748496963408307 -16.63044986120903 8.4028074725569528 0 -1 0 I I #
coedge $-1 $117 $116 $162 $167 reversed $60 $-1 #
edge $-1 $163 -11.691498617973407 $118 -8.4028074725569528 $142 $168 forward 7 unknown #
point $-1 -62.748496963408307 -40.832578550125731 8.4028074725569528 #
point $-1 -62.748496963408307 -25.689220894710385 8.4028074725569528 #
vertex $-1 $149 $169 #
straight-curve $-1 62.748496963408307 -40.832578550125731 0 0 0 -1 I I #
straight-curve $-1 -62.748496963408307 40.832578550125731 0 0 0 -1 I I #
point $-1 -62.748496963408307 -40.832578550125731 -11.691498617973407 #
straight-curve $-1 -62.748496963408307 0 -11.691498617973407 0 1 0 I I #
point $-1 -62.748496963408307 40.832578550125731 -11.691498617973407 #
coedge $-1 $147 $143 $152 $167 forward $104 $-1 #
vertex $-1 $144 $170 #
straight-curve $-1 -62.748496963408307 0 11.691498617973407 0 -1 0 I I #
point $-1 -62.748496963408307 -25.689220894710385 11.691498617973403 #
straight-curve $-1 62.748496963408307 0 11.691498617973407 0 1 0 I I #
edge $-1 $163 -62.748496963408307 $156 62.748496963408307 $152 $171 forward 7 unknown #
straight-curve $-1 -62.748496963408307 -40.832578550125731 0 0 0 -1 I I #
point $-1 62.748496963408307 -40.832578550125731 11.691498617973407 #
point $-1 -62.748496963408307 -40.832578550125731 11.691498617973407 #
straight-curve $-1 0 -40.832578550125731 11.691498617973407 1 0 0 I I #
End-of-ACIS-data 