500 0 9 0           
7 Unknown 11 ACIS 5.0 NT 24 Fri Mar 26 19:09:02 1999 
-1 9.9999999999999995e-007 1e-010 
body $-1 $9 $-1 $10 #
body $-1 $11 $-1 $12 #
body $-1 $13 $-1 $14 #
body $-1 $15 $-1 $16 #
body $-1 $17 $-1 $18 #
body $-1 $19 $-1 $20 #
body $-1 $21 $-1 $22 #
body $-1 $23 $-1 $24 #
body $-1 $25 $-1 $26 #
lump $-1 $-1 $27 $0 #
transform $-1 1 0 0 0 1 0 0 0 1 60.524307992797631 37.173122298503138 17.188782775156117 1 rotate no_reflect no_shear #
lump $-1 $-1 $28 $1 #
transform $-1 1 0 0 0 1 0 0 0 1 60.524307992797631 37.173122298503138 17.188782775156117 1 rotate no_reflect no_shear #
lump $-1 $-1 $29 $2 #
transform $-1 1 0 0 0 1 0 0 0 1 60.524307992797631 37.173122298503138 17.188782775156117 1 rotate no_reflect no_shear #
lump $-1 $-1 $30 $3 #
transform $-1 1 0 0 0 1 0 0 0 1 60.524307992797631 37.173122298503138 17.188782775156117 1 rotate no_reflect no_shear #
lump $-1 $-1 $31 $4 #
transform $-1 1 0 0 0 1 0 0 0 1 60.524307992797631 37.173122298503138 17.188782775156117 1 rotate no_reflect no_shear #
lump $-1 $-1 $32 $5 #
transform $-1 1 0 0 0 1 0 0 0 1 60.524307992797631 37.173122298503138 17.188782775156117 1 rotate no_reflect no_shear #
lump $-1 $-1 $33 $6 #
transform $-1 1 0 0 0 1 0 0 0 1 60.524307992797631 37.173122298503138 17.188782775156117 1 rotate no_reflect no_shear #
lump $-1 $-1 $34 $7 #
transform $-1 1 0 0 0 1 0 0 0 1 60.524307992797631 37.173122298503138 17.188782775156117 1 rotate no_reflect no_shear #
lump $-1 $-1 $35 $8 #
transform $-1 1 0 0 0 1 0 0 0 1 60.524307992797631 37.173122298503138 17.188782775156117 1 rotate no_reflect no_shear #
shell $-1 $-1 $-1 $36 $-1 $9 #
shell $-1 $-1 $-1 $37 $-1 $11 #
shell $-1 $-1 $-1 $38 $-1 $13 #
shell $-1 $-1 $-1 $39 $-1 $15 #
shell $-1 $-1 $-1 $40 $-1 $17 #
shell $-1 $-1 $-1 $41 $-1 $19 #
shell $-1 $-1 $-1 $42 $-1 $21 #
shell $-1 $-1 $-1 $43 $-1 $23 #
shell $-1 $-1 $-1 $44 $-1 $25 #
face $-1 $45 $46 $27 $-1 $47 forward single #
face $-1 $48 $49 $28 $-1 $50 reversed single #
face $-1 $51 $52 $29 $-1 $53 reversed single #
face $-1 $54 $55 $30 $-1 $56 reversed single #
face $-1 $57 $58 $31 $-1 $59 forward single #
face $-1 $60 $61 $32 $-1 $62 forward single #
face $-1 $63 $64 $33 $-1 $65 reversed single #
face $-1 $66 $67 $34 $-1 $68 forward single #
face $-1 $69 $70 $35 $-1 $71 forward single #
face $-1 $72 $73 $27 $-1 $74 reversed single #
loop $-1 $-1 $75 $36 #
plane-surface $-1 0 0 17.188782775156117 0 0 1 1 0 0 forward_v I I I I #
face $-1 $76 $77 $28 $-1 $78 reversed single #
loop $-1 $-1 $79 $37 #
plane-surface $-1 0 -27.925754406056427 10.69883304714695 0 0 1 1 0 0 forward_v I I I I #
face $-1 $80 $81 $29 $-1 $82 reversed single #
loop $-1 $-1 $83 $38 #
plane-surface $-1 0 27.92575440605642 10.69883304714695 0 0 1 1 0 0 forward_v I I I I #
face $-1 $84 $85 $30 $-1 $86 reversed single #
loop $-1 $-1 $87 $39 #
plane-surface $-1 24.932199300185303 -3.1233862527385128 169.70288399299295 0 -1 0 -0.54463904215088732 0 -0.83867056331134215 forward_v I I I I #
face $-1 $88 $89 $31 $-1 $90 forward single #
loop $-1 $91 $92 $40 #
cone-surface $-1 48.390078378534135 -9.974943269686932 8.7420731353771224 -0.54463904215088732 0 -0.83867056331134215 0.83867056331134215 0 -0.54463904215088732 1 I I 0 1 1 forward I I I I #
face $-1 $93 $94 $32 $-1 $95 forward single #
loop $-1 $96 $97 $41 #
cone-surface $-1 48.390078378534135 -5.8640090595178762 8.7420731353771224 -0.54463904215088732 0 -0.83867056331134215 0.83867056331134215 0 -0.54463904215088732 1 I I 0 1 1 forward I I I I #
face $-1 $98 $99 $33 $-1 $100 reversed single #
loop $-1 $-1 $101 $42 #
plane-surface $-1 -121.04861679646802 11.822333750485559 111.48496909553899 0 1 0 -0.50000000669873634 0 0.8660253999169214 forward_v I I I I #
face $-1 $102 $103 $34 $-1 $104 forward single #
loop $-1 $105 $106 $43 #
cone-surface $-1 -51.150739402107448 13.781205968521029 11.488275201231598 0.50000000669873634 0 -0.8660253999169214 0.4330126999584607 0 0.25000000334936817 1 I I 0 1 0.5 forward I I I I #
face $-1 $107 $108 $35 $-1 $109 forward single #
loop $-1 $110 $111 $44 #
cone-surface $-1 -51.150739402107448 16.719514295574243 11.488275201231598 0.50000000669873634 0 -0.8660253999169214 0.4330126999584607 0 0.25000000334936817 1 I I 0 1 0.5 forward I I I I #
face $-1 $112 $113 $27 $-1 $114 reversed single #
loop $-1 $-1 $115 $45 #
plane-surface $-1 0 0 -17.188782775156117 0 0 1 1 0 0 forward_v I I I I #
coedge $-1 $116 $117 $118 $119 forward $46 $-1 #
face $-1 $120 $121 $28 $-1 $122 reversed single #
loop $-1 $-1 $123 $48 #
plane-surface $-1 0 -18.678386513609716 13.943807911151534 0 -1 0 0 0 -1 forward_v I I I I #
coedge $-1 $124 $125 $126 $127 reversed $49 $-1 #
face $-1 $128 $129 $29 $-1 $130 forward single #
loop $-1 $-1 $131 $51 #
plane-surface $-1 0 18.678386513609709 13.943807911151534 0 1 0 0 0 1 forward_v I I I I #
coedge $-1 $132 $133 $134 $135 reversed $52 $-1 #
face $-1 $136 $137 $30 $-1 $138 reversed single #
loop $-1 $-1 $139 $54 #
plane-surface $-1 -40.995602963899884 -7.9194761646024077 68.182973036295451 0.54463904215088732 0 0.83867056331134215 0.83867056331134215 0 -0.54463904215088732 forward_v I I I I #
coedge $-1 $140 $141 $142 $143 reversed $55 $-1 #
face $-1 $-1 $144 $31 $-1 $145 forward single #
loop $-1 $146 $147 $57 #
cone-surface $-1 47.481401982287124 -9.974943269686932 7.3428342154153903 -0.54463904215088732 0 -0.83867056331134215 0.41933528165567108 0 -0.27231952107544366 1 I I -0.70710678118654746 0.70710678118654746 0.5 forward I I I I #
loop $-1 $-1 $148 $40 #
coedge $-1 $92 $92 $149 $150 reversed $58 $-1 #
face $-1 $-1 $151 $32 $-1 $152 forward single #
loop $-1 $153 $154 $60 #
cone-surface $-1 47.481401982287124 -5.8640090595178762 7.3428342154153903 -0.54463904215088732 0 -0.83867056331134215 0.41933528165567108 0 -0.27231952107544366 1 I I -0.70710678118654746 0.70710678118654746 0.5 forward I I I I #
loop $-1 $-1 $155 $41 #
coedge $-1 $97 $97 $156 $157 reversed $61 $-1 #
face $-1 $158 $159 $33 $-1 $160 forward single #
loop $-1 $-1 $161 $63 #
plane-surface $-1 -60.524307992797631 15.250360132047639 6.6537930272239976 -0.50000000669873634 0 0.8660253999169214 0.8660253999169214 0 0.50000000669873634 forward_v I I I I #
coedge $-1 $162 $163 $164 $165 reversed $64 $-1 #
face $-1 $-1 $166 $34 $-1 $167 forward single #
loop $-1 $168 $169 $66 #
cone-surface $-1 -50.775739397083399 13.781205968521029 10.838756151293907 0.50000000669873634 0 -0.8660253999169214 0.21650634997923035 0 0.12500000167468409 1 I I -0.70710678118654746 0.70710678118654746 0.25 forward I I I I #
loop $-1 $-1 $170 $43 #
coedge $-1 $106 $106 $171 $172 reversed $67 $-1 #
face $-1 $-1 $173 $35 $-1 $174 forward single #
loop $-1 $175 $176 $69 #
cone-surface $-1 -50.775739397083399 16.719514295574243 10.838756151293907 0.50000000669873634 0 -0.8660253999169214 0.21650634997923035 0 0.12500000167468409 1 I I -0.70710678118654746 0.70710678118654746 0.25 forward I I I I #
loop $-1 $-1 $177 $44 #
coedge $-1 $111 $111 $178 $179 reversed $70 $-1 #
face $-1 $180 $181 $27 $-1 $182 reversed single #
loop $-1 $-1 $183 $72 #
plane-surface $-1 0 -37.173122298503138 0 0 1 0 0 0 1 forward_v I I I I #
coedge $-1 $184 $185 $186 $187 forward $73 $-1 #
coedge $-1 $188 $75 $189 $190 forward $46 $-1 #
coedge $-1 $75 $188 $191 $192 forward $46 $-1 #
coedge $-1 $193 $194 $75 $119 reversed $195 $-1 #
edge $-1 $196 -37.173122298503138 $197 37.173122298503138 $118 $198 forward 7 unknown #
face $-1 $199 $200 $28 $-1 $201 reversed single #
loop $-1 $-1 $202 $76 #
plane-surface $-1 -60.524307992797631 0 0 1 0 0 0 0 -1 forward_v I I I I #
coedge $-1 $203 $204 $205 $206 reversed $77 $-1 #
coedge $-1 $207 $79 $208 $209 reversed $49 $-1 #
coedge $-1 $79 $207 $203 $210 forward $49 $-1 #
coedge $-1 $205 $211 $79 $127 forward $212 $-1 #
edge $-1 $213 -23.210245095474924 $214 -4.7155093105815027 $126 $215 forward 7 unknown #
face $-1 $216 $217 $29 $-1 $218 reversed single #
loop $-1 $-1 $219 $80 #
plane-surface $-1 0 0 17.188782775156117 0 0 1 1 0 0 forward_v I I I I #
coedge $-1 $220 $221 $222 $223 reversed $81 $-1 #
coedge $-1 $224 $83 $220 $225 forward $52 $-1 #
coedge $-1 $83 $224 $226 $227 reversed $52 $-1 #
coedge $-1 $228 $229 $83 $135 forward $217 $-1 #
edge $-1 $230 4.7155093105814991 $231 23.210245095474921 $134 $232 forward 7 unknown #
face $-1 $233 $234 $30 $-1 $235 forward single #
loop $-1 $-1 $236 $84 #
plane-surface $-1 24.932199300185303 -12.715566076466303 169.70288399299295 0 1 0 0.54463904215088732 0 0.83867056331134215 forward_v I I I I #
coedge $-1 $237 $238 $239 $240 reversed $85 $-1 #
coedge $-1 $141 $87 $241 $242 reversed $55 $-1 #
coedge $-1 $87 $140 $237 $243 reversed $55 $-1 #
coedge $-1 $239 $244 $87 $143 forward $234 $-1 #
edge $-1 $245 -48.05820834270498 $246 -25.062462864521187 $142 $247 forward 7 unknown #
loop $-1 $-1 $149 $88 #
plane-surface $-1 -40.995602963899884 -7.9194761646024077 68.182973036295451 0.54463904215088732 0 0.83867056331134215 0.83867056331134215 0 -0.54463904215088732 forward_v I I I I #
loop $-1 $-1 $248 $57 #
coedge $-1 $147 $147 $148 $249 reversed $89 $-1 #
coedge $-1 $148 $148 $147 $249 forward $91 $-1 #
coedge $-1 $149 $149 $92 $150 forward $144 $-1 #
edge $-1 $250 0 $250 6.2831853071796004 $149 $251 forward 7 unknown #
loop $-1 $-1 $156 $93 #
plane-surface $-1 -40.995602963899884 -7.9194761646024077 68.182973036295451 0.54463904215088732 0 0.83867056331134215 0.83867056331134215 0 -0.54463904215088732 forward_v I I I I #
loop $-1 $-1 $252 $60 #
coedge $-1 $154 $154 $155 $253 reversed $94 $-1 #
coedge $-1 $155 $155 $154 $253 forward $96 $-1 #
coedge $-1 $156 $156 $97 $157 forward $151 $-1 #
edge $-1 $254 0 $254 6.2831853071796004 $156 $255 forward 7 unknown #
face $-1 $256 $257 $33 $-1 $258 forward single #
loop $-1 $-1 $164 $98 #
plane-surface $-1 0 0 17.188782775156117 0 0 1 1 0 0 forward_v I I I I #
coedge $-1 $259 $260 $261 $262 reversed $99 $-1 #
coedge $-1 $163 $101 $263 $264 reversed $64 $-1 #
coedge $-1 $101 $162 $259 $265 reversed $64 $-1 #
coedge $-1 $261 $266 $101 $165 forward $159 $-1 #
edge $-1 $267 4.0543638135659421e-007 $268 18.247137580118022 $164 $269 forward 7 unknown #
loop $-1 $-1 $171 $102 #
plane-surface $-1 -60.524307992797631 15.250360132047639 6.6537930272239976 -0.50000000669873634 0 0.8660253999169214 0.8660253999169214 0 0.50000000669873634 forward_v I I I I #
loop $-1 $-1 $270 $66 #
coedge $-1 $169 $169 $170 $271 reversed $103 $-1 #
coedge $-1 $170 $170 $169 $271 forward $105 $-1 #
coedge $-1 $171 $171 $106 $172 forward $166 $-1 #
edge $-1 $272 0 $272 6.2831853071796004 $171 $273 forward 7 unknown #
loop $-1 $-1 $178 $107 #
plane-surface $-1 -60.524307992797631 15.250360132047639 6.6537930272239976 -0.50000000669873634 0 0.8660253999169214 0.8660253999169214 0 0.50000000669873634 forward_v I I I I #
loop $-1 $-1 $274 $69 #
coedge $-1 $176 $176 $177 $275 reversed $108 $-1 #
coedge $-1 $177 $177 $176 $275 forward $110 $-1 #
coedge $-1 $178 $178 $111 $179 forward $173 $-1 #
edge $-1 $276 0 $276 6.2831853071796004 $178 $277 forward 7 unknown #
face $-1 $278 $279 $27 $-1 $280 reversed single #
loop $-1 $-1 $281 $112 #
plane-surface $-1 -60.524307992797631 0 0 1 0 0 0 0 -1 forward_v I I I I #
coedge $-1 $282 $191 $283 $284 forward $113 $-1 #
coedge $-1 $285 $115 $282 $286 forward $73 $-1 #
coedge $-1 $115 $285 $287 $288 forward $73 $-1 #
coedge $-1 $194 $193 $115 $187 reversed $195 $-1 #
edge $-1 $289 -37.173122298503138 $290 37.173122298503138 $186 $291 forward 7 unknown #
coedge $-1 $117 $116 $292 $293 forward $46 $-1 #
coedge $-1 $294 $295 $116 $190 reversed $279 $-1 #
edge $-1 $197 -60.524307992797631 $296 60.524307992797631 $189 $297 forward 7 unknown #
coedge $-1 $183 $298 $117 $192 reversed $113 $-1 #
edge $-1 $299 -60.524307992797631 $196 60.524307992797631 $191 $300 forward 7 unknown #
coedge $-1 $186 $118 $298 $301 forward $195 $-1 #
coedge $-1 $118 $186 $294 $302 reversed $195 $-1 #
loop $-1 $-1 $193 $278 #
vertex $-1 $119 $303 #
vertex $-1 $119 $304 #
straight-curve $-1 60.524307992797631 0 17.188782775156117 0 1 0 I I #
face $-1 $305 $306 $28 $-1 $307 forward single #
loop $-1 $-1 $208 $120 #
plane-surface $-1 0 -37.173122298503138 0 0 1 0 0 0 1 forward_v I I I I #
coedge $-1 $308 $309 $310 $311 forward $121 $-1 #
coedge $-1 $310 $123 $125 $210 reversed $77 $-1 #
coedge $-1 $123 $310 $312 $313 reversed $77 $-1 #
coedge $-1 $314 $126 $123 $206 forward $212 $-1 #
edge $-1 $214 3.7269290915711828 $315 10.216878819580353 $205 $316 forward 7 unknown #
coedge $-1 $125 $124 $308 $317 reversed $49 $-1 #
coedge $-1 $318 $319 $124 $209 forward $200 $-1 #
edge $-1 $320 -60.524307992797631 $213 60.524307992797631 $208 $321 forward 7 unknown #
edge $-1 $322 -60.524307992797631 $214 60.524307992797631 $203 $323 forward 7 unknown #
coedge $-1 $126 $314 $318 $324 forward $212 $-1 #
loop $-1 $-1 $205 $305 #
vertex $-1 $209 $325 #
vertex $-1 $127 $326 #
straight-curve $-1 60.524307992797631 -13.962877203028214 10.69883304714695 0 1 0 I I #
face $-1 $327 $328 $29 $-1 $329 reversed single #
loop $-1 $-1 $229 $128 #
plane-surface $-1 60.524307992797631 0 0 -1 0 0 0 0 1 forward_v I I I I #
coedge $-1 $330 $331 $221 $332 forward $129 $-1 #
coedge $-1 $333 $131 $132 $225 reversed $81 $-1 #
coedge $-1 $131 $333 $219 $332 reversed $81 $-1 #
coedge $-1 $334 $335 $131 $223 forward $328 $-1 #
edge $-1 $336 3.7269290915711828 $337 10.216878819580353 $222 $338 forward 7 unknown #
coedge $-1 $133 $132 $335 $339 reversed $52 $-1 #
edge $-1 $230 -60.524307992797631 $336 60.524307992797631 $220 $340 forward 7 unknown #
coedge $-1 $341 $342 $133 $227 forward $343 $-1 #
edge $-1 $231 -60.524307992797631 $344 60.524307992797631 $226 $345 forward 7 unknown #
coedge $-1 $346 $134 $342 $347 reversed $217 $-1 #
coedge $-1 $134 $346 $333 $348 forward $217 $-1 #
vertex $-1 $135 $349 #
vertex $-1 $227 $350 #
straight-curve $-1 60.524307992797631 13.96287720302821 10.69883304714695 0 1 0 I I #
face $-1 $-1 $351 $30 $-1 $352 reversed single #
loop $-1 $-1 $142 $136 #
plane-surface $-1 0 0 17.188782775156117 0 0 1 1 0 0 forward_v I I I I #
coedge $-1 $353 $354 $355 $356 reversed $137 $-1 #
coedge $-1 $357 $139 $141 $243 forward $85 $-1 #
coedge $-1 $139 $357 $353 $358 forward $85 $-1 #
coedge $-1 $355 $142 $139 $240 forward $234 $-1 #
edge $-1 $246 -0.83635182956269105 $359 8.7558279941650987 $239 $360 forward 7 unknown #
coedge $-1 $361 $362 $140 $242 forward $351 $-1 #
edge $-1 $363 -82.596271224286212 $245 -67.662659221340363 $241 $364 forward 7 unknown #
edge $-1 $246 93.62933303450518 $363 121.04861598559526 $141 $365 forward 7 unknown #
coedge $-1 $142 $355 $361 $366 forward $234 $-1 #
vertex $-1 $242 $367 #
vertex $-1 $143 $368 #
straight-curve $-1 12.466099650092652 -3.1233862527385128 17.188782775156113 -1 0 0 I I #
coedge $-1 $248 $248 $-1 $369 reversed $146 $-1 #
edge $-1 $370 0 $370 6.2831853071796004 $147 $371 forward 7 unknown #
vertex $-1 $150 $372 #
ellipse-curve $-1 49.026435253705706 -9.974943269686932 9.7219767736831919 0.54463904215088732 0 0.83867056331134215 0.83867056331134215 0 -0.54463904215088732 1 I I #
coedge $-1 $252 $252 $-1 $373 reversed $153 $-1 #
edge $-1 $374 0 $374 6.2831853071796004 $154 $375 forward 7 unknown #
vertex $-1 $157 $376 #
ellipse-curve $-1 49.026435253705706 -5.8640090595178762 9.7219767736831919 0.54463904215088732 0 0.83867056331134215 0.83867056331134215 0 -0.54463904215088732 1 I I #
face $-1 $-1 $377 $33 $-1 $378 reversed single #
loop $-1 $-1 $379 $158 #
plane-surface $-1 0 18.678386513609709 13.943807911151534 0 1 0 0 0 1 forward_v I I I I #
coedge $-1 $380 $161 $163 $265 forward $99 $-1 #
coedge $-1 $161 $380 $379 $381 forward $99 $-1 #
coedge $-1 $382 $164 $161 $262 forward $159 $-1 #
edge $-1 $268 4.197153684461739 $383 11.0532064475859 $261 $384 forward 7 unknown #
coedge $-1 $385 $386 $162 $264 forward $377 $-1 #
edge $-1 $387 -49.088691520545495 $267 -38.55370177261338 $263 $388 forward 7 unknown #
edge $-1 $268 -21.069979213579771 $387 0 $163 $389 forward 7 unknown #
coedge $-1 $164 $382 $385 $390 forward $159 $-1 #
vertex $-1 $264 $391 #
vertex $-1 $165 $392 #
straight-curve $-1 -60.524308398234012 11.822333750485559 17.188782775156113 1 0 0 I I #
coedge $-1 $270 $270 $-1 $393 reversed $168 $-1 #
edge $-1 $394 0 $394 6.2831853071796004 $169 $395 forward 7 unknown #
vertex $-1 $172 $396 #
ellipse-curve $-1 -51.400739405456811 13.781205968521029 11.921287901190055 -0.50000000669873634 0 0.8660253999169214 0.4330126999584607 0 0.25000000334936817 1 I I #
coedge $-1 $274 $274 $-1 $397 reversed $175 $-1 #
edge $-1 $398 0 $398 6.2831853071796004 $176 $399 forward 7 unknown #
vertex $-1 $179 $400 #
ellipse-curve $-1 -51.400739405456811 16.719514295574243 11.921287901190055 -0.50000000669873634 0 0.8660253999169214 0.4330126999584607 0 0.25000000334936817 1 I I #
face $-1 $-1 $195 $27 $-1 $401 reversed single #
loop $-1 $-1 $294 $180 #
plane-surface $-1 0 37.173122298503138 0 0 -1 0 0 0 -1 forward_v I I I I #
coedge $-1 $402 $292 $295 $403 forward $181 $-1 #
coedge $-1 $298 $183 $184 $286 reversed $113 $-1 #
coedge $-1 $292 $402 $183 $284 reversed $181 $-1 #
edge $-1 $299 -17.188782775156117 $404 17.188782775156117 $283 $405 forward 7 unknown #
coedge $-1 $185 $184 $402 $406 forward $73 $-1 #
edge $-1 $290 -60.524307992797631 $404 60.524307992797631 $282 $407 forward 7 unknown #
coedge $-1 $295 $294 $185 $288 reversed $279 $-1 #
edge $-1 $408 -60.524307992797631 $289 60.524307992797631 $287 $409 forward 7 unknown #
vertex $-1 $187 $410 #
vertex $-1 $301 $411 #
straight-curve $-1 60.524307992797631 0 -17.188782775156117 0 -1 0 I I #
coedge $-1 $281 $283 $188 $293 reversed $181 $-1 #
edge $-1 $296 -37.173122298503138 $299 37.173122298503138 $292 $412 forward 7 unknown #
coedge $-1 $287 $189 $194 $302 forward $279 $-1 #
coedge $-1 $189 $287 $281 $403 reversed $279 $-1 #
vertex $-1 $190 $413 #
straight-curve $-1 0 37.173122298503138 17.188782775156117 -1 0 0 I I #
coedge $-1 $191 $282 $193 $301 reversed $113 $-1 #
vertex $-1 $293 $414 #
straight-curve $-1 0 -37.173122298503138 17.188782775156117 1 0 0 I I #
edge $-1 $196 -17.188782775156117 $290 17.188782775156117 $193 $415 forward 7 unknown #
edge $-1 $197 -17.188782775156117 $289 17.188782775156117 $194 $416 forward 7 unknown #
point $-1 60.524307992797631 -37.173122298503138 17.188782775156117 #
point $-1 60.524307992797631 37.173122298503138 17.188782775156117 #
face $-1 $-1 $212 $28 $-1 $417 reversed single #
loop $-1 $-1 $312 $199 #
plane-surface $-1 0 0 17.188782775156117 0 0 1 1 0 0 forward_v I I I I #
coedge $-1 $418 $202 $207 $317 forward $121 $-1 #
coedge $-1 $202 $418 $419 $420 reversed $121 $-1 #
coedge $-1 $204 $203 $202 $311 reversed $77 $-1 #
edge $-1 $421 -10.216878819580353 $322 -3.7269290915711828 $202 $422 forward 7 unknown #
coedge $-1 $419 $423 $204 $313 forward $306 $-1 #
edge $-1 $315 -60.524307992797631 $421 60.524307992797631 $312 $424 forward 7 unknown #
coedge $-1 $211 $205 $423 $425 reversed $212 $-1 #
vertex $-1 $206 $426 #
straight-curve $-1 60.524307992797631 -18.678386513609716 6.9719039555757671 0 0 1 I I #
edge $-1 $322 4.7155093105815027 $320 23.210245095474924 $308 $427 forward 7 unknown #
coedge $-1 $428 $208 $211 $324 reversed $200 $-1 #
coedge $-1 $208 $428 $418 $429 forward $200 $-1 #
vertex $-1 $209 $430 #
straight-curve $-1 0 -37.173122298503138 10.69883304714695 1 0 0 I I #
vertex $-1 $317 $431 #
straight-curve $-1 0 -18.678386513609716 10.69883304714695 1 0 0 I I #
edge $-1 $432 -17.188782775156117 $213 -10.69883304714695 $211 $433 forward 7 unknown #
point $-1 60.524307992797631 -37.173122298503138 10.69883304714695 #
point $-1 60.524307992797631 -18.678386513609716 10.69883304714695 #
face $-1 $-1 $343 $29 $-1 $434 reversed single #
loop $-1 $-1 $222 $216 #
plane-surface $-1 -60.524307992797631 0 0 1 0 0 0 0 -1 forward_v I I I I #
coedge $-1 $435 $219 $346 $436 forward $129 $-1 #
coedge $-1 $219 $435 $334 $437 forward $129 $-1 #
edge $-1 $337 -60.524307992797631 $438 60.524307992797631 $219 $439 forward 7 unknown #
coedge $-1 $221 $220 $229 $348 reversed $81 $-1 #
coedge $-1 $440 $222 $331 $437 reversed $328 $-1 #
coedge $-1 $222 $440 $224 $339 forward $328 $-1 #
vertex $-1 $339 $441 #
vertex $-1 $223 $442 #
straight-curve $-1 -60.524307992797631 18.678386513609709 6.9719039555757671 0 0 1 I I #
edge $-1 $344 -23.210245095474921 $336 -4.7155093105814991 $335 $443 forward 7 unknown #
straight-curve $-1 0 18.678386513609709 10.69883304714695 -1 0 0 I I #
coedge $-1 $444 $226 $440 $445 reversed $343 $-1 #
coedge $-1 $226 $444 $228 $347 forward $343 $-1 #
loop $-1 $-1 $226 $327 #
vertex $-1 $227 $446 #
straight-curve $-1 0 37.173122298503138 10.69883304714695 -1 0 0 I I #
coedge $-1 $229 $228 $330 $436 reversed $217 $-1 #
edge $-1 $447 -17.188782775156117 $231 -10.69883304714695 $228 $448 forward 7 unknown #
edge $-1 $438 -10.216878819580353 $230 -3.7269290915711828 $229 $449 forward 7 unknown #
point $-1 60.524307992797631 18.678386513609709 10.69883304714695 #
point $-1 60.524307992797631 37.173122298503131 10.69883304714695 #
loop $-1 $-1 $241 $233 #
plane-surface $-1 60.524307992797631 0 0 -1 0 0 0 0 1 forward_v I I I I #
coedge $-1 $354 $236 $238 $358 reversed $137 $-1 #
coedge $-1 $236 $353 $450 $451 reversed $137 $-1 #
coedge $-1 $244 $239 $236 $356 forward $234 $-1 #
edge $-1 $359 25.062462864521187 $452 48.05820834270498 $355 $453 forward 7 unknown #
coedge $-1 $238 $237 $362 $454 reversed $85 $-1 #
edge $-1 $455 -121.04861598559526 $359 -93.62933303450518 $353 $456 forward 7 unknown #
vertex $-1 $240 $457 #
straight-curve $-1 37.528562514613839 -3.9597380823012038 17.188782775156113 0 -1 0 I I #
coedge $-1 $450 $241 $244 $366 reversed $351 $-1 #
coedge $-1 $241 $450 $357 $454 forward $351 $-1 #
vertex $-1 $242 $458 #
straight-curve $-1 60.524307992797631 -3.1233862527385128 84.851441996496476 0 0 1 I I #
straight-curve $-1 -40.995602963899884 -3.1233862527385128 68.182973036295451 0.83867056331134215 0 -0.54463904215088732 I I #
edge $-1 $452 -12.715566076466303 $245 -3.1233862527385128 $361 $459 forward 7 unknown #
point $-1 60.524307992797631 -3.1233862527385128 17.188782775156117 #
point $-1 37.528562514613839 -3.1233862527385128 17.188782775156106 #
edge $-1 $460 1 $460 0 $248 $-1 forward 7 unknown #
vertex $-1 $249 $461 #
ellipse-curve $-1 47.75372150336257 -9.974943269686932 7.7621694970710617 0.54463904215088732 0 0.83867056331134215 0.83867056331134215 0 -0.54463904215088732 1 I I #
point $-1 49.865105817017046 -9.974943269686932 9.1773377315322975 #
edge $-1 $462 1 $462 0 $252 $-1 forward 7 unknown #
vertex $-1 $253 $463 #
ellipse-curve $-1 47.75372150336257 -5.8640090595178762 7.7621694970710617 0.54463904215088732 0 0.83867056331134215 0.83867056331134215 0 -0.54463904215088732 1 I I #
point $-1 49.865105817017046 -5.8640090595178762 9.1773377315322975 #
loop $-1 $-1 $263 $256 #
plane-surface $-1 -60.524307992797631 0 0 1 0 0 0 0 -1 forward_v I I I I #
coedge $-1 $464 $465 $260 $381 reversed $257 $-1 #
coedge $-1 $260 $259 $386 $466 reversed $99 $-1 #
edge $-1 $467 0 $383 21.069979213579771 $379 $468 forward 7 unknown #
coedge $-1 $266 $261 $465 $469 forward $159 $-1 #
vertex $-1 $469 $470 #
straight-curve $-1 -42.277170818115991 7.6251800660238196 17.188782775156117 0 1 0 I I #
coedge $-1 $471 $263 $266 $390 reversed $377 $-1 #
coedge $-1 $263 $471 $380 $466 forward $377 $-1 #
vertex $-1 $264 $472 #
straight-curve $-1 -60.524307992797631 11.822333750485559 55.742484547769493 0 0 1 I I #
straight-curve $-1 -60.524307992797631 11.822333750485559 6.6537930272239976 -0.8660253999169214 0 -0.50000000669873634 I I #
edge $-1 $473 -18.678386513609709 $267 -11.822333750485559 $385 $474 forward 7 unknown #
point $-1 -60.524307992797631 11.822333750485559 17.188782775156117 #
point $-1 -42.277170818115991 11.822333750485559 17.188782775156117 #
edge $-1 $475 1 $475 0 $270 $-1 forward 7 unknown #
vertex $-1 $271 $476 #
ellipse-curve $-1 -50.900739398758084 13.781205968521029 11.055262501273138 -0.50000000669873634 0 0.8660253999169214 0.4330126999584607 0 0.25000000334936817 1 I I #
point $-1 -50.967726705498357 13.781205968521029 12.171287904539428 #
edge $-1 $477 1 $477 0 $274 $-1 forward 7 unknown #
vertex $-1 $275 $478 #
ellipse-curve $-1 -50.900739398758084 16.719514295574243 11.055262501273138 -0.50000000669873634 0 0.8660253999169214 0.4330126999584607 0 0.25000000334936817 1 I I #
point $-1 -50.967726705498357 16.719514295574243 12.171287904539428 #
plane-surface $-1 60.524307992797631 0 0 -1 0 0 0 0 1 forward_v I I I I #
coedge $-1 $283 $281 $285 $406 reversed $181 $-1 #
edge $-1 $296 -17.188782775156117 $408 17.188782775156117 $295 $479 forward 7 unknown #
vertex $-1 $406 $480 #
straight-curve $-1 -60.524307992797631 -37.173122298503138 0 0 0 -1 I I #
edge $-1 $404 -37.173122298503138 $408 37.173122298503138 $402 $481 forward 7 unknown #
straight-curve $-1 0 -37.173122298503138 -17.188782775156117 -1 0 0 I I #
vertex $-1 $288 $482 #
straight-curve $-1 0 37.173122298503138 -17.188782775156117 1 0 0 I I #
point $-1 60.524307992797631 37.173122298503138 -17.188782775156117 #
point $-1 60.524307992797631 -37.173122298503138 -17.188782775156117 #
straight-curve $-1 -60.524307992797631 0 17.188782775156117 0 -1 0 I I #
point $-1 -60.524307992797631 37.173122298503138 17.188782775156117 #
point $-1 -60.524307992797631 -37.173122298503138 17.188782775156117 #
straight-curve $-1 60.524307992797631 -37.173122298503138 0 0 0 -1 I I #
straight-curve $-1 60.524307992797631 37.173122298503138 0 0 0 -1 I I #
plane-surface $-1 60.524307992797631 0 0 -1 0 0 0 0 1 forward_v I I I I #
coedge $-1 $309 $308 $319 $429 reversed $121 $-1 #
coedge $-1 $483 $312 $309 $420 forward $306 $-1 #
edge $-1 $421 18.678386513609716 $484 37.173122298503138 $309 $485 forward 7 unknown #
vertex $-1 $420 $486 #
straight-curve $-1 -60.524307992797631 -18.678386513609716 6.9719039555757671 0 0 -1 I I #
coedge $-1 $312 $483 $314 $425 forward $306 $-1 #
straight-curve $-1 0 -18.678386513609716 17.188782775156117 -1 0 0 I I #
edge $-1 $432 -37.173122298503138 $315 -18.678386513609716 $314 $487 forward 7 unknown #
point $-1 60.524307992797631 -18.678386513609716 17.18878277515612 #
straight-curve $-1 -60.524307992797631 -13.962877203028214 10.69883304714695 0 -1 0 I I #
coedge $-1 $319 $318 $483 $488 reversed $200 $-1 #
edge $-1 $484 -17.188782775156117 $320 -10.69883304714695 $418 $489 forward 7 unknown #
point $-1 -60.524307992797631 -37.173122298503138 10.69883304714695 #
point $-1 -60.524307992797631 -18.678386513609716 10.69883304714695 #
vertex $-1 $425 $490 #
straight-curve $-1 60.524307992797631 -37.173122298503138 0 0 0 -1 I I #
plane-surface $-1 0 37.173122298503138 0 0 -1 0 0 0 -1 forward_v I I I I #
coedge $-1 $331 $330 $444 $491 forward $129 $-1 #
edge $-1 $438 18.678386513609709 $447 37.173122298503138 $346 $492 forward 7 unknown #
edge $-1 $493 -37.173122298503138 $337 -18.678386513609709 $334 $494 forward 7 unknown #
vertex $-1 $436 $495 #
straight-curve $-1 0 18.678386513609709 17.188782775156117 1 0 0 I I #
coedge $-1 $335 $334 $341 $445 forward $328 $-1 #
point $-1 -60.524307992797631 18.678386513609709 10.69883304714695 #
point $-1 -60.524307992797631 18.678386513609709 17.18878277515612 #
straight-curve $-1 -60.524307992797631 13.96287720302821 10.69883304714695 0 -1 0 I I #
coedge $-1 $342 $341 $435 $491 reversed $343 $-1 #
edge $-1 $493 -17.188782775156117 $344 -10.69883304714695 $341 $496 forward 7 unknown #
point $-1 -60.524307992797631 37.173122298503131 10.69883304714695 #
vertex $-1 $436 $497 #
straight-curve $-1 60.524307992797631 37.173122298503138 0 0 0 -1 I I #
straight-curve $-1 60.524307992797631 18.678386513609709 6.9719039555757671 0 0 -1 I I #
coedge $-1 $362 $361 $354 $451 forward $351 $-1 #
edge $-1 $452 67.662659221340363 $455 82.596271224286212 $450 $498 forward 7 unknown #
vertex $-1 $366 $499 #
straight-curve $-1 12.466099650092652 -12.715566076466303 17.188782775156113 1 0 0 I I #
edge $-1 $455 -8.7558279941650987 $363 0.83635182956269105 $362 $500 forward 7 unknown #
vertex $-1 $454 $501 #
straight-curve $-1 -40.995602963899884 -12.715566076466303 68.182973036295451 -0.83867056331134215 0 0.54463904215088732 I I #
point $-1 37.528562514613839 -12.715566076466303 17.188782775156106 #
point $-1 60.524307992797631 -3.1233862527385128 2.2551707722102634 #
straight-curve $-1 60.524307992797631 0 17.188782775156117 0 1 0 I I #
vertex $-1 $369 $502 #
point $-1 48.592392066673909 -9.974943269686932 7.2175304549201744 #
vertex $-1 $373 $503 #
point $-1 48.592392066673909 -5.8640090595178762 7.2175304549201744 #
coedge $-1 $465 $379 $471 $504 reversed $257 $-1 #
coedge $-1 $379 $464 $382 $469 reversed $257 $-1 #
edge $-1 $467 -11.0532064475859 $387 -4.197153684461739 $386 $505 forward 7 unknown #
vertex $-1 $504 $506 #
straight-curve $-1 -60.524307992797631 18.67838651360972 6.6537930272239976 0.8660253999169214 0 0.50000000669873634 I I #
edge $-1 $383 42.277170818115991 $473 60.524307992797631 $382 $507 forward 7 unknown #
point $-1 -42.277170818115991 18.67838651360972 17.188782775156117 #
coedge $-1 $386 $385 $464 $504 forward $377 $-1 #
point $-1 -60.524307992797631 11.822333750485559 6.6537930272239976 #
vertex $-1 $390 $508 #
straight-curve $-1 -60.524307992797631 0 17.188782775156117 0 -1 0 I I #
vertex $-1 $393 $509 #
point $-1 -50.467726698799623 13.781205968521029 11.305262504622506 #
vertex $-1 $397 $510 #
point $-1 -50.467726698799623 16.719514295574243 11.305262504622506 #
straight-curve $-1 -60.524307992797631 37.173122298503138 0 0 0 -1 I I #
point $-1 -60.524307992797631 -37.173122298503138 -17.188782775156117 #
straight-curve $-1 -60.524307992797631 0 -17.188782775156117 0 1 0 I I #
point $-1 -60.524307992797631 37.173122298503138 -17.188782775156117 #
coedge $-1 $423 $419 $428 $488 forward $306 $-1 #
vertex $-1 $420 $511 #
straight-curve $-1 -60.524307992797631 0 17.188782775156117 0 -1 0 I I #
point $-1 -60.524307992797631 -18.678386513609716 17.18878277515612 #
straight-curve $-1 60.524307992797631 0 17.188782775156117 0 1 0 I I #
edge $-1 $484 -60.524307992797631 $432 60.524307992797631 $428 $512 forward 7 unknown #
straight-curve $-1 -60.524307992797631 -37.173122298503138 0 0 0 -1 I I #
point $-1 60.524307992797631 -37.173122298503138 17.188782775156117 #
edge $-1 $447 -60.524307992797631 $493 60.524307992797631 $444 $513 forward 7 unknown #
straight-curve $-1 60.524307992797631 0 17.188782775156117 0 1 0 I I #
vertex $-1 $491 $514 #
straight-curve $-1 -60.524307992797631 0 17.188782775156117 0 -1 0 I I #
point $-1 60.524307992797631 18.678386513609709 17.18878277515612 #
straight-curve $-1 -60.524307992797631 37.173122298503138 0 0 0 -1 I I #
point $-1 60.524307992797631 37.173122298503138 17.188782775156117 #
straight-curve $-1 60.524307992797631 -12.715566076466303 84.851441996496476 0 0 -1 I I #
point $-1 60.524307992797631 -12.715566076466303 17.188782775156117 #
straight-curve $-1 60.524307992797631 -3.9597380823012038 2.2551707722102705 0 1 0 I I #
point $-1 60.524307992797631 -12.715566076466303 2.2551707722102634 #
point $-1 47.209082461211679 -9.974943269686932 6.9234989337597188 #
point $-1 47.209082461211679 -5.8640090595178762 6.9234989337597188 #
edge $-1 $473 38.553701772613373 $467 49.088691520545495 $471 $515 forward 7 unknown #
straight-curve $-1 -60.524307992797631 7.6251800660238196 6.6537930272239976 0 -1 0 I I #
point $-1 -60.524307992797631 18.67838651360972 6.6537930272239976 #
straight-curve $-1 0 18.678386513609709 17.188782775156117 -1 0 0 I I #
point $-1 -60.524307992797631 18.678386513609709 17.18878277515612 #
point $-1 -50.650739395408714 13.781205968521029 10.622249801314677 #
point $-1 -50.650739395408714 16.719514295574243 10.622249801314677 #
point $-1 -60.524307992797631 -37.173122298503138 17.188782775156117 #
straight-curve $-1 0 -37.173122298503138 17.188782775156117 1 0 0 I I #
straight-curve $-1 0 37.173122298503138 17.188782775156117 -1 0 0 I I #
point $-1 -60.524307992797631 37.173122298503138 17.188782775156117 #
straight-curve $-1 -60.524307992797631 18.67838651360972 55.742484547769493 0 0 -1 I I #
End-of-ACIS-data 