500 0 9 0           
7 Unknown 11 ACIS 5.0 NT 24 Fri Mar 26 15:50:07 1999 
-1 9.9999999999999995e-007 1e-010 
body $-1 $9 $-1 $10 #
body $-1 $11 $-1 $12 #
body $-1 $13 $-1 $14 #
body $-1 $15 $-1 $16 #
body $-1 $17 $-1 $18 #
body $-1 $19 $-1 $20 #
body $-1 $21 $-1 $22 #
body $-1 $23 $-1 $24 #
body $-1 $25 $-1 $26 #
lump $-1 $-1 $27 $0 #
transform $-1 1 0 0 0 1 0 0 0 1 43.103122043519392 17.84661570373936 7.0681138331900026 1 rotate no_reflect no_shear #
lump $-1 $-1 $28 $1 #
transform $-1 1 0 0 0 1 0 0 0 1 43.103122043519392 17.84661570373936 7.0681138331900026 1 rotate no_reflect no_shear #
lump $-1 $-1 $29 $2 #
transform $-1 1 0 0 0 1 0 0 0 1 43.103122043519392 17.84661570373936 7.0681138331900026 1 rotate no_reflect no_shear #
lump $-1 $-1 $30 $3 #
transform $-1 1 0 0 0 1 0 0 0 1 43.103122043519392 17.84661570373936 7.0681138331900026 1 rotate no_reflect no_shear #
lump $-1 $-1 $31 $4 #
transform $-1 1 0 0 0 1 0 0 0 1 43.103122043519392 17.84661570373936 7.0681138331900026 1 rotate no_reflect no_shear #
lump $-1 $-1 $32 $5 #
transform $-1 1 0 0 0 1 0 0 0 1 43.103122043519392 17.84661570373936 7.0681138331900026 1 rotate no_reflect no_shear #
lump $-1 $-1 $33 $6 #
transform $-1 1 0 0 0 1 0 0 0 1 43.103122043519392 17.84661570373936 7.0681138331900026 1 rotate no_reflect no_shear #
lump $-1 $-1 $34 $7 #
transform $-1 1 0 0 0 1 0 0 0 1 43.103122043519392 17.84661570373936 7.0681138331900026 1 rotate no_reflect no_shear #
lump $-1 $-1 $35 $8 #
transform $-1 1 0 0 0 1 0 0 0 1 43.103122043519392 17.84661570373936 7.0681138331900026 1 rotate no_reflect no_shear #
shell $-1 $-1 $-1 $36 $-1 $9 #
shell $-1 $-1 $-1 $37 $-1 $11 #
shell $-1 $-1 $-1 $38 $-1 $13 #
shell $-1 $-1 $-1 $39 $-1 $15 #
shell $-1 $-1 $-1 $40 $-1 $17 #
shell $-1 $-1 $-1 $41 $-1 $19 #
shell $-1 $-1 $-1 $42 $-1 $21 #
shell $-1 $-1 $-1 $43 $-1 $23 #
shell $-1 $-1 $-1 $44 $-1 $25 #
face $-1 $45 $46 $27 $-1 $47 forward single #
face $-1 $48 $49 $28 $-1 $50 reversed single #
face $-1 $51 $52 $29 $-1 $53 reversed single #
face $-1 $54 $55 $30 $-1 $56 forward single #
face $-1 $57 $58 $31 $-1 $59 forward single #
face $-1 $60 $61 $32 $-1 $62 forward single #
face $-1 $63 $64 $33 $-1 $65 reversed single #
face $-1 $66 $67 $34 $-1 $68 forward single #
face $-1 $69 $70 $35 $-1 $71 forward single #
face $-1 $72 $73 $27 $-1 $74 reversed single #
loop $-1 $-1 $75 $36 #
plane-surface $-1 0 0 7.0681138331900026 0 0 1 1 0 0 forward_v I I I I #
face $-1 $76 $77 $28 $-1 $78 reversed single #
loop $-1 $-1 $79 $37 #
plane-surface $-1 -34.936940264052893 -15.443595053766117 0 1 0 0 0 0 -1 forward_v I I I I #
face $-1 $80 $81 $29 $-1 $82 reversed single #
loop $-1 $-1 $83 $38 #
plane-surface $-1 -114.57133807655775 11.691316999059026 48.654607009260246 0 1 0 -0.82903758062907751 0 0.55919289150049634 forward_v I I I I #
face $-1 $84 $85 $30 $-1 $86 forward single #
loop $-1 $87 $88 $39 #
cone-surface $-1 -40.403920938040308 12.922376739995094 3.4435595210294796 0.82903758062907751 0 -0.55919289150049634 0.27959644575024817 0 0.41451879031453875 1 I I 0 1 0.5 forward I I I I #
face $-1 $89 $90 $31 $-1 $91 forward single #
loop $-1 $92 $93 $40 #
cone-surface $-1 -40.403920938040308 14.768966351399193 3.4435595210294796 0.82903758062907751 0 -0.55919289150049634 0.27959644575024817 0 0.41451879031453875 1 I I 0 1 0.5 forward I I I I #
face $-1 $94 $95 $32 $-1 $96 forward single #
loop $-1 $97 $98 $41 #
cone-surface $-1 -40.403920938040308 16.615555962803292 3.4435595210294796 0.82903758062907751 0 -0.55919289150049634 0.27959644575024817 0 0.41451879031453875 1 I I 0 1 0.5 forward I I I I #
face $-1 $99 $100 $33 $-1 $101 reversed single #
loop $-1 $-1 $102 $42 #
plane-surface $-1 17.755768961077905 9.6508036591930733 120.98955411761609 0 1 0 0.54463904215088732 0 0.83867056331134215 forward_v I I I I #
face $-1 $103 $104 $34 $-1 $105 forward single #
loop $-1 $106 $107 $43 #
cone-surface $-1 38.497778972996514 11.992464243349154 3.6296744072498583 -0.54463904215088732 0 -0.83867056331134215 0.83867056331134215 0 -0.54463904215088732 1 I I 0 1 1 forward I I I I #
face $-1 $108 $109 $35 $-1 $110 forward single #
loop $-1 $111 $112 $44 #
cone-surface $-1 38.497778972996514 15.504955119583279 3.6296744072498583 -0.54463904215088732 0 -0.83867056331134215 0.83867056331134215 0 -0.54463904215088732 1 I I 0 1 1 forward I I I I #
face $-1 $113 $114 $27 $-1 $115 reversed single #
loop $-1 $-1 $116 $45 #
plane-surface $-1 0 0 -7.0681138331900026 0 0 1 1 0 0 forward_v I I I I #
coedge $-1 $117 $118 $119 $120 forward $46 $-1 #
face $-1 $121 $122 $28 $-1 $123 reversed single #
loop $-1 $-1 $124 $48 #
plane-surface $-1 -33.436940264052893 -13.040574403792874 0 0 -1 0 0 0 -1 forward_v I I I I #
coedge $-1 $125 $126 $127 $128 forward $49 $-1 #
face $-1 $129 $130 $29 $-1 $131 forward single #
loop $-1 $-1 $132 $51 #
plane-surface $-1 -43.103122043519406 14.768966351399193 0.44868811283146215 -0.82903758062907751 0 0.55919289150049634 0.55919289150049634 0 0.82903758062907751 forward_v I I I I #
coedge $-1 $133 $134 $135 $136 reversed $52 $-1 #
face $-1 $-1 $137 $30 $-1 $138 forward single #
loop $-1 $139 $140 $54 #
cone-surface $-1 -39.729889880367985 12.922376739995094 2.9889198461731006 0.82903758062907751 0 -0.55919289150049634 0.13979822287512408 0 0.20725939515726938 1 I I -0.70710678118654746 0.70710678118654746 0.25 forward I I I I #
loop $-1 $-1 $141 $39 #
coedge $-1 $88 $88 $142 $143 reversed $55 $-1 #
face $-1 $-1 $144 $31 $-1 $145 forward single #
loop $-1 $146 $147 $57 #
cone-surface $-1 -39.729889880367985 14.768966351399193 2.9889198461731006 0.82903758062907751 0 -0.55919289150049634 0.13979822287512408 0 0.20725939515726938 1 I I -0.70710678118654746 0.70710678118654746 0.25 forward I I I I #
loop $-1 $-1 $148 $40 #
coedge $-1 $93 $93 $149 $150 reversed $58 $-1 #
face $-1 $-1 $151 $32 $-1 $152 forward single #
loop $-1 $153 $154 $60 #
cone-surface $-1 -39.729889880367985 16.615555962803292 2.9889198461731006 0.82903758062907751 0 -0.55919289150049634 0.13979822287512408 0 0.20725939515726938 1 I I -0.70710678118654746 0.70710678118654746 0.25 forward I I I I #
loop $-1 $-1 $155 $41 #
coedge $-1 $98 $98 $156 $157 reversed $61 $-1 #
face $-1 $158 $159 $33 $-1 $160 reversed single #
loop $-1 $-1 $161 $63 #
plane-surface $-1 -29.195517245912491 13.748709681466217 48.690914828184219 0.54463904215088732 0 0.83867056331134215 0.83867056331134215 0 -0.54463904215088732 forward_v I I I I #
coedge $-1 $162 $163 $164 $165 reversed $64 $-1 #
face $-1 $-1 $166 $34 $-1 $167 forward single #
loop $-1 $168 $169 $66 #
cone-surface $-1 37.722690149055992 11.992464243349154 2.4361423056521279 -0.54463904215088732 0 -0.83867056331134215 0.41933528165567108 0 -0.27231952107544366 1 I I -0.70710678118654746 0.70710678118654746 0.5 forward I I I I #
loop $-1 $-1 $170 $43 #
coedge $-1 $107 $107 $171 $172 reversed $67 $-1 #
face $-1 $-1 $173 $35 $-1 $174 forward single #
loop $-1 $175 $176 $69 #
cone-surface $-1 37.722690149055992 15.504955119583279 2.4361423056521279 -0.54463904215088732 0 -0.83867056331134215 0.41933528165567108 0 -0.27231952107544366 1 I I -0.70710678118654746 0.70710678118654746 0.5 forward I I I I #
loop $-1 $-1 $177 $44 #
coedge $-1 $112 $112 $178 $179 reversed $70 $-1 #
face $-1 $180 $181 $27 $-1 $182 reversed single #
loop $-1 $-1 $183 $72 #
plane-surface $-1 0 -17.84661570373936 0 0 1 0 0 0 1 forward_v I I I I #
coedge $-1 $184 $185 $186 $187 forward $73 $-1 #
coedge $-1 $188 $75 $189 $190 forward $46 $-1 #
coedge $-1 $75 $188 $191 $192 forward $46 $-1 #
coedge $-1 $193 $194 $75 $120 reversed $195 $-1 #
edge $-1 $196 -17.84661570373936 $197 17.84661570373936 $119 $198 forward 7 unknown #
face $-1 $199 $200 $28 $-1 $201 forward single #
loop $-1 $-1 $202 $76 #
plane-surface $-1 -31.936940264052893 -15.443595053766117 0 -1 0 0 0 0 1 forward_v I I I I #
coedge $-1 $203 $204 $205 $206 forward $77 $-1 #
coedge $-1 $207 $79 $208 $209 reversed $49 $-1 #
coedge $-1 $79 $207 $210 $211 reversed $49 $-1 #
coedge $-1 $204 $203 $79 $128 reversed $77 $-1 #
edge $-1 $212 -7.0681138331900026 $213 7.0681138331900026 $127 $214 forward 7 unknown #
face $-1 $215 $216 $29 $-1 $217 reversed single #
loop $-1 $-1 $135 $80 #
plane-surface $-1 0 0 7.0681138331900026 0 0 1 1 0 0 forward_v I I I I #
coedge $-1 $218 $219 $220 $221 reversed $81 $-1 #
coedge $-1 $134 $83 $222 $223 reversed $52 $-1 #
coedge $-1 $83 $133 $218 $224 reversed $52 $-1 #
coedge $-1 $220 $225 $83 $136 forward $130 $-1 #
edge $-1 $226 14.182546994759484 $227 18.647405880687543 $135 $228 forward 7 unknown #
loop $-1 $-1 $142 $84 #
plane-surface $-1 -43.103122043519406 14.768966351399193 0.44868811283146215 -0.82903758062907751 0 0.55919289150049634 0.55919289150049634 0 0.82903758062907751 forward_v I I I I #
loop $-1 $-1 $229 $54 #
coedge $-1 $140 $140 $141 $230 reversed $85 $-1 #
coedge $-1 $141 $141 $140 $230 forward $87 $-1 #
coedge $-1 $142 $142 $88 $143 forward $137 $-1 #
edge $-1 $231 0 $231 6.2831853071796004 $142 $232 forward 7 unknown #
loop $-1 $-1 $149 $89 #
plane-surface $-1 -43.103122043519406 14.768966351399193 0.44868811283146215 -0.82903758062907751 0 0.55919289150049634 0.55919289150049634 0 0.82903758062907751 forward_v I I I I #
loop $-1 $-1 $233 $57 #
coedge $-1 $147 $147 $148 $234 reversed $90 $-1 #
coedge $-1 $148 $148 $147 $234 forward $92 $-1 #
coedge $-1 $149 $149 $93 $150 forward $144 $-1 #
edge $-1 $235 0 $235 6.2831853071796004 $149 $236 forward 7 unknown #
loop $-1 $-1 $156 $94 #
plane-surface $-1 -43.103122043519406 14.768966351399193 0.44868811283146215 -0.82903758062907751 0 0.55919289150049634 0.55919289150049634 0 0.82903758062907751 forward_v I I I I #
loop $-1 $-1 $237 $60 #
coedge $-1 $154 $154 $155 $238 reversed $95 $-1 #
coedge $-1 $155 $155 $154 $238 forward $97 $-1 #
coedge $-1 $156 $156 $98 $157 forward $151 $-1 #
edge $-1 $239 0 $239 6.2831853071796004 $156 $240 forward 7 unknown #
face $-1 $241 $242 $33 $-1 $243 forward single #
loop $-1 $-1 $164 $99 #
plane-surface $-1 43.103122043519392 0 0 -1 0 0 0 0 1 forward_v I I I I #
coedge $-1 $244 $245 $246 $247 reversed $100 $-1 #
coedge $-1 $163 $102 $248 $249 reversed $64 $-1 #
coedge $-1 $102 $162 $244 $250 reversed $64 $-1 #
coedge $-1 $246 $251 $102 $165 forward $159 $-1 #
edge $-1 $252 53.426663225618043 $253 58.755148437614231 $164 $254 forward 7 unknown #
loop $-1 $-1 $171 $103 #
plane-surface $-1 -29.195517245912491 13.748709681466217 48.690914828184219 0.54463904215088732 0 0.83867056331134215 0.83867056331134215 0 -0.54463904215088732 forward_v I I I I #
loop $-1 $-1 $255 $66 #
coedge $-1 $169 $169 $170 $256 reversed $104 $-1 #
coedge $-1 $170 $170 $169 $256 forward $106 $-1 #
coedge $-1 $171 $171 $107 $172 forward $166 $-1 #
edge $-1 $257 0 $257 6.2831853071796004 $171 $258 forward 7 unknown #
loop $-1 $-1 $178 $108 #
plane-surface $-1 -29.195517245912491 13.748709681466217 48.690914828184219 0.54463904215088732 0 0.83867056331134215 0.83867056331134215 0 -0.54463904215088732 forward_v I I I I #
loop $-1 $-1 $259 $69 #
coedge $-1 $176 $176 $177 $260 reversed $109 $-1 #
coedge $-1 $177 $177 $176 $260 forward $111 $-1 #
coedge $-1 $178 $178 $112 $179 forward $173 $-1 #
edge $-1 $261 0 $261 6.2831853071796004 $178 $262 forward 7 unknown #
face $-1 $263 $264 $27 $-1 $265 reversed single #
loop $-1 $-1 $266 $113 #
plane-surface $-1 -43.103122043519392 0 0 1 0 0 0 0 -1 forward_v I I I I #
coedge $-1 $267 $191 $268 $269 forward $114 $-1 #
coedge $-1 $270 $116 $267 $271 forward $73 $-1 #
coedge $-1 $116 $270 $272 $273 forward $73 $-1 #
coedge $-1 $194 $193 $116 $187 reversed $195 $-1 #
edge $-1 $274 -17.84661570373936 $275 17.84661570373936 $186 $276 forward 7 unknown #
coedge $-1 $118 $117 $277 $278 forward $46 $-1 #
coedge $-1 $279 $280 $117 $190 reversed $264 $-1 #
edge $-1 $197 -43.103122043519392 $281 43.103122043519392 $189 $282 forward 7 unknown #
coedge $-1 $183 $283 $118 $192 reversed $114 $-1 #
edge $-1 $284 -43.103122043519392 $196 43.103122043519392 $191 $285 forward 7 unknown #
coedge $-1 $186 $119 $283 $286 forward $195 $-1 #
coedge $-1 $119 $186 $279 $287 reversed $195 $-1 #
loop $-1 $-1 $193 $263 #
vertex $-1 $120 $288 #
vertex $-1 $120 $289 #
straight-curve $-1 43.103122043519392 0 7.0681138331900026 0 1 0 I I #
face $-1 $290 $291 $28 $-1 $292 reversed single #
loop $-1 $-1 $293 $121 #
plane-surface $-1 0 0 7.0681138331900026 0 0 1 1 0 0 forward_v I I I I #
coedge $-1 $294 $295 $296 $297 reversed $122 $-1 #
coedge $-1 $127 $124 $298 $299 reversed $77 $-1 #
coedge $-1 $124 $127 $300 $301 reversed $77 $-1 #
coedge $-1 $295 $294 $124 $206 reversed $122 $-1 #
edge $-1 $302 -7.0681138331900026 $303 7.0681138331900026 $205 $304 forward 7 unknown #
coedge $-1 $126 $125 $305 $306 reversed $49 $-1 #
coedge $-1 $298 $307 $125 $209 forward $291 $-1 #
edge $-1 $308 -10.124818176856301 $213 -5.3187768769098156 $208 $309 forward 7 unknown #
coedge $-1 $310 $300 $126 $211 forward $200 $-1 #
edge $-1 $212 5.3187768769098156 $311 10.124818176856301 $210 $312 forward 7 unknown #
vertex $-1 $211 $313 #
vertex $-1 $209 $314 #
straight-curve $-1 -34.936940264052893 -13.040574403792874 0 0 0 -1 I I #
face $-1 $-1 $315 $29 $-1 $316 reversed single #
loop $-1 $-1 $317 $129 #
plane-surface $-1 0 17.84661570373936 0 0 -1 0 0 0 -1 forward_v I I I I #
coedge $-1 $318 $132 $134 $224 forward $81 $-1 #
coedge $-1 $132 $318 $317 $319 reversed $81 $-1 #
coedge $-1 $320 $135 $132 $221 forward $130 $-1 #
edge $-1 $227 4.3068338233594297 $321 10.462132528039763 $220 $322 forward 7 unknown #
coedge $-1 $323 $324 $133 $223 forward $315 $-1 #
edge $-1 $325 -23.87861539179864 $226 -17.259189671440119 $222 $326 forward 7 unknown #
edge $-1 $227 -7.9844700349237367 $325 -2.5434524534472062e-014 $134 $327 forward 7 unknown #
coedge $-1 $135 $320 $323 $328 forward $130 $-1 #
vertex $-1 $223 $329 #
vertex $-1 $136 $330 #
straight-curve $-1 -57.285669038278876 11.691316999059026 7.0681138331900009 1 0 0 I I #
coedge $-1 $229 $229 $-1 $331 reversed $139 $-1 #
edge $-1 $332 0 $332 6.2831853071796004 $140 $333 forward 7 unknown #
vertex $-1 $143 $334 #
ellipse-curve $-1 -40.870692600555365 12.922376739995094 3.7584009730107386 -0.82903758062907751 0 0.55919289150049634 0.27959644575024817 0 0.41451879031453875 1 I I #
coedge $-1 $233 $233 $-1 $335 reversed $146 $-1 #
edge $-1 $336 0 $336 6.2831853071796004 $147 $337 forward 7 unknown #
vertex $-1 $150 $338 #
ellipse-curve $-1 -40.870692600555365 14.768966351399193 3.7584009730107386 -0.82903758062907751 0 0.55919289150049634 0.27959644575024817 0 0.41451879031453875 1 I I #
coedge $-1 $237 $237 $-1 $339 reversed $153 $-1 #
edge $-1 $340 0 $340 6.2831853071796004 $154 $341 forward 7 unknown #
vertex $-1 $157 $342 #
ellipse-curve $-1 -40.870692600555365 16.615555962803292 3.7584009730107386 -0.82903758062907751 0 0.55919289150049634 0.27959644575024817 0 0.41451879031453875 1 I I #
face $-1 $-1 $343 $33 $-1 $344 reversed single #
loop $-1 $-1 $248 $158 #
plane-surface $-1 0 0 7.0681138331900026 0 0 1 1 0 0 forward_v I I I I #
coedge $-1 $345 $161 $163 $250 forward $100 $-1 #
coedge $-1 $161 $345 $346 $347 reversed $100 $-1 #
coedge $-1 $348 $164 $161 $247 forward $159 $-1 #
edge $-1 $253 2.7764488184599649 $349 10.972260863006252 $246 $350 forward 7 unknown #
coedge $-1 $351 $352 $162 $249 forward $242 $-1 #
edge $-1 $353 26.020090027664843 $252 34.225237562980439 $248 $354 forward 7 unknown #
edge $-1 $253 -86.206244087038797 $353 -76.422727299566219 $163 $355 forward 7 unknown #
coedge $-1 $164 $348 $351 $356 reversed $159 $-1 #
vertex $-1 $356 $357 #
vertex $-1 $165 $358 #
straight-curve $-1 43.103122043519392 9.6508036591930733 60.494777058808047 0 0 -1 I I #
coedge $-1 $255 $255 $-1 $359 reversed $168 $-1 #
edge $-1 $360 0 $360 6.2831853071796004 $169 $361 forward 7 unknown #
vertex $-1 $172 $362 #
ellipse-curve $-1 39.00054827586159 11.992464243349154 4.4038712271919138 0.54463904215088732 0 0.83867056331134215 0.83867056331134215 0 -0.54463904215088732 1 I I #
coedge $-1 $259 $259 $-1 $363 reversed $175 $-1 #
edge $-1 $364 0 $364 6.2831853071796004 $176 $365 forward 7 unknown #
vertex $-1 $179 $366 #
ellipse-curve $-1 39.00054827586159 15.504955119583279 4.4038712271919138 0.54463904215088732 0 0.83867056331134215 0.83867056331134215 0 -0.54463904215088732 1 I I #
face $-1 $-1 $195 $27 $-1 $367 reversed single #
loop $-1 $-1 $279 $180 #
plane-surface $-1 0 17.84661570373936 0 0 -1 0 0 0 -1 forward_v I I I I #
coedge $-1 $368 $277 $280 $369 forward $181 $-1 #
coedge $-1 $283 $183 $184 $271 reversed $114 $-1 #
coedge $-1 $277 $368 $183 $269 reversed $181 $-1 #
edge $-1 $284 -7.0681138331900026 $370 7.0681138331900026 $268 $371 forward 7 unknown #
coedge $-1 $185 $184 $368 $372 forward $73 $-1 #
edge $-1 $275 -43.103122043519392 $370 43.103122043519392 $267 $373 forward 7 unknown #
coedge $-1 $280 $279 $185 $273 reversed $264 $-1 #
edge $-1 $374 -43.103122043519392 $274 43.103122043519392 $272 $375 forward 7 unknown #
vertex $-1 $187 $376 #
vertex $-1 $286 $377 #
straight-curve $-1 43.103122043519392 0 -7.0681138331900026 0 -1 0 I I #
coedge $-1 $266 $268 $188 $278 reversed $181 $-1 #
edge $-1 $281 -17.84661570373936 $284 17.84661570373936 $277 $378 forward 7 unknown #
coedge $-1 $272 $189 $194 $287 forward $264 $-1 #
coedge $-1 $189 $272 $266 $369 reversed $264 $-1 #
vertex $-1 $190 $379 #
straight-curve $-1 0 17.84661570373936 7.0681138331900026 -1 0 0 I I #
coedge $-1 $191 $267 $193 $286 reversed $114 $-1 #
vertex $-1 $278 $380 #
straight-curve $-1 0 -17.84661570373936 7.0681138331900026 1 0 0 I I #
edge $-1 $196 -7.0681138331900026 $275 7.0681138331900026 $193 $381 forward 7 unknown #
edge $-1 $197 -7.0681138331900026 $274 7.0681138331900026 $194 $382 forward 7 unknown #
point $-1 43.103122043519392 -17.84661570373936 7.0681138331900026 #
point $-1 43.103122043519392 17.84661570373936 7.0681138331900026 #
face $-1 $-1 $383 $28 $-1 $384 reversed single #
loop $-1 $-1 $385 $199 #
plane-surface $-1 0 0 -7.0681138331900026 0 0 1 1 0 0 forward_v I I I I #
coedge $-1 $300 $310 $295 $386 forward $200 $-1 #
coedge $-1 $205 $202 $385 $387 reversed $122 $-1 #
coedge $-1 $202 $205 $293 $386 reversed $122 $-1 #
coedge $-1 $388 $389 $202 $297 forward $383 $-1 #
edge $-1 $390 -7.0681138331900026 $391 7.0681138331900026 $296 $392 forward 7 unknown #
coedge $-1 $385 $208 $203 $299 forward $291 $-1 #
edge $-1 $213 -18.218470132026447 $303 -15.218470132026447 $298 $393 forward 7 unknown #
coedge $-1 $210 $293 $204 $301 forward $200 $-1 #
edge $-1 $302 15.218470132026447 $212 18.218470132026447 $300 $394 forward 7 unknown #
vertex $-1 $301 $395 #
vertex $-1 $299 $396 #
straight-curve $-1 -31.936940264052893 -13.040574403792874 0 0 0 -1 I I #
coedge $-1 $389 $388 $207 $306 forward $383 $-1 #
edge $-1 $311 -7.0681138331900026 $308 7.0681138331900026 $305 $397 forward 7 unknown #
coedge $-1 $208 $385 $389 $398 forward $291 $-1 #
vertex $-1 $209 $399 #
straight-curve $-1 -34.936940264052893 -7.7217975268830585 -7.0681138331900026 0 1 0 I I #
coedge $-1 $293 $210 $388 $400 forward $200 $-1 #
vertex $-1 $400 $401 #
straight-curve $-1 -34.936940264052893 -7.7217975268830585 7.0681138331900026 0 -1 0 I I #
point $-1 -34.936940264052893 -13.040574403792874 7.0681138331900026 #
point $-1 -34.936940264052893 -13.040574403792874 -7.0681138331900026 #
loop $-1 $-1 $222 $215 #
plane-surface $-1 -43.103122043519392 0 0 1 0 0 0 0 -1 forward_v I I I I #
coedge $-1 $402 $403 $219 $319 forward $216 $-1 #
coedge $-1 $219 $218 $324 $404 reversed $81 $-1 #
edge $-1 $321 3.8810200354240516 $405 11.865490070347763 $317 $406 forward 7 unknown #
coedge $-1 $225 $220 $403 $407 forward $130 $-1 #
vertex $-1 $407 $408 #
straight-curve $-1 -38.638263157591332 7.3844831756995966 7.0681138331900035 0 1 0 I I #
coedge $-1 $409 $222 $225 $328 reversed $315 $-1 #
coedge $-1 $222 $409 $318 $404 forward $315 $-1 #
vertex $-1 $223 $410 #
straight-curve $-1 -43.103122043519392 11.691316999059026 24.327303504630123 0 0 1 I I #
straight-curve $-1 -43.103122043519406 11.691316999059026 0.44868811283146215 -0.55919289150049634 0 -0.82903758062907751 I I #
edge $-1 $411 -17.84661570373936 $226 -11.691316999059026 $323 $412 forward 7 unknown #
point $-1 -43.103122043519392 11.691316999059026 7.0681138331900026 #
point $-1 -38.638263157591332 11.691316999059026 7.0681138331900026 #
edge $-1 $413 1 $413 0 $229 $-1 forward 7 unknown #
vertex $-1 $230 $414 #
ellipse-curve $-1 -39.937149275525258 12.922376739995094 3.1287180690482246 -0.82903758062907751 0 0.55919289150049634 0.27959644575024817 0 0.41451879031453875 1 I I #
point $-1 -40.591096154805108 12.922376739995094 4.1729197633252735 #
edge $-1 $415 1 $415 0 $233 $-1 forward 7 unknown #
vertex $-1 $234 $416 #
ellipse-curve $-1 -39.937149275525258 14.768966351399193 3.1287180690482246 -0.82903758062907751 0 0.55919289150049634 0.27959644575024817 0 0.41451879031453875 1 I I #
point $-1 -40.591096154805108 14.768966351399193 4.1729197633252735 #
edge $-1 $417 1 $417 0 $237 $-1 forward 7 unknown #
vertex $-1 $238 $418 #
ellipse-curve $-1 -39.937149275525258 16.615555962803292 3.1287180690482246 -0.82903758062907751 0 0.55919289150049634 0.27959644575024817 0 0.41451879031453875 1 I I #
point $-1 -40.591096154805108 16.615555962803292 4.1729197633252735 #
loop $-1 $-1 $346 $241 #
plane-surface $-1 0 17.84661570373936 0 0 -1 0 0 0 -1 forward_v I I I I #
coedge $-1 $245 $244 $352 $419 reversed $100 $-1 #
coedge $-1 $420 $421 $245 $347 forward $343 $-1 #
edge $-1 $349 -60.704047032904739 $422 -50.920530245432154 $346 $423 forward 7 unknown #
coedge $-1 $251 $246 $421 $424 reversed $159 $-1 #
vertex $-1 $247 $425 #
straight-curve $-1 43.103122043519392 6.8743548407331083 1.7396286211938161 0 1 0 I I #
coedge $-1 $426 $248 $251 $356 forward $242 $-1 #
coedge $-1 $248 $426 $345 $419 forward $242 $-1 #
vertex $-1 $249 $427 #
straight-curve $-1 8.8778844805389525 9.6508036591930733 7.0681138331900044 1 0 0 I I #
straight-curve $-1 -29.195517245912491 9.6508036591930733 48.690914828184219 -0.83867056331134215 0 0.54463904215088732 I I #
edge $-1 $252 9.6508036591930733 $428 17.84661570373936 $251 $429 forward 7 unknown #
point $-1 43.103122043519392 9.6508036591930733 7.0681138331900026 #
point $-1 43.103122043519399 9.6508036591930733 1.7396286211938161 #
edge $-1 $430 1 $430 0 $255 $-1 forward 7 unknown #
vertex $-1 $256 $431 #
ellipse-curve $-1 37.995009670131438 11.992464243349154 2.8554775873077989 0.54463904215088732 0 0.83867056331134215 0.83867056331134215 0 -0.54463904215088732 1 I I #
point $-1 39.839218839172936 11.992464243349154 3.8592321850410309 #
edge $-1 $432 1 $432 0 $259 $-1 forward 7 unknown #
vertex $-1 $260 $433 #
ellipse-curve $-1 37.995009670131438 15.504955119583279 2.8554775873077989 0.54463904215088732 0 0.83867056331134215 0.83867056331134215 0 -0.54463904215088732 1 I I #
point $-1 39.839218839172936 15.504955119583279 3.8592321850410309 #
plane-surface $-1 43.103122043519392 0 0 -1 0 0 0 0 1 forward_v I I I I #
coedge $-1 $268 $266 $270 $372 reversed $181 $-1 #
edge $-1 $281 -7.0681138331900026 $374 7.0681138331900026 $280 $434 forward 7 unknown #
vertex $-1 $372 $435 #
straight-curve $-1 -43.103122043519392 -17.84661570373936 0 0 0 -1 I I #
edge $-1 $370 -17.84661570373936 $374 17.84661570373936 $368 $436 forward 7 unknown #
straight-curve $-1 0 -17.84661570373936 -7.0681138331900026 -1 0 0 I I #
vertex $-1 $273 $437 #
straight-curve $-1 0 17.84661570373936 -7.0681138331900026 1 0 0 I I #
point $-1 43.103122043519392 17.84661570373936 -7.0681138331900026 #
point $-1 43.103122043519392 -17.84661570373936 -7.0681138331900026 #
straight-curve $-1 -43.103122043519392 0 7.0681138331900026 0 -1 0 I I #
point $-1 -43.103122043519392 17.84661570373936 7.0681138331900026 #
point $-1 -43.103122043519392 -17.84661570373936 7.0681138331900026 #
straight-curve $-1 43.103122043519392 -17.84661570373936 0 0 0 -1 I I #
straight-curve $-1 43.103122043519392 17.84661570373936 0 0 0 -1 I I #
loop $-1 $-1 $296 $290 #
plane-surface $-1 0 -17.84661570373936 0 0 1 0 0 0 1 forward_v I I I I #
coedge $-1 $307 $298 $294 $387 forward $291 $-1 #
edge $-1 $391 -10.124818176856301 $302 -5.3187768769098156 $293 $438 forward 7 unknown #
edge $-1 $303 5.3187768769098156 $390 10.124818176856301 $385 $439 forward 7 unknown #
coedge $-1 $305 $296 $310 $400 reversed $383 $-1 #
coedge $-1 $296 $305 $307 $398 reversed $383 $-1 #
vertex $-1 $398 $440 #
vertex $-1 $297 $441 #
straight-curve $-1 -31.936940264052893 -17.84661570373936 0 0 0 1 I I #
straight-curve $-1 -16.718470132026447 -13.040574403792874 -7.0681138331900026 1 0 0 I I #
straight-curve $-1 -16.718470132026447 -13.040574403792874 7.0681138331900026 -1 0 0 I I #
point $-1 -31.936940264052893 -13.040574403792874 7.0681138331900026 #
point $-1 -31.936940264052893 -13.040574403792874 -7.0681138331900026 #
straight-curve $-1 -34.936940264052893 -17.84661570373936 0 0 0 -1 I I #
edge $-1 $390 31.936940264052893 $308 34.936940264052893 $389 $442 forward 7 unknown #
point $-1 -34.936940264052893 -17.84661570373936 -7.0681138331900026 #
edge $-1 $311 -34.936940264052893 $391 -31.936940264052893 $388 $443 forward 7 unknown #
point $-1 -34.936940264052893 -17.84661570373936 7.0681138331900026 #
coedge $-1 $403 $317 $409 $444 reversed $216 $-1 #
coedge $-1 $317 $402 $320 $407 reversed $216 $-1 #
edge $-1 $405 -10.462132528039763 $325 -4.3068338233594297 $324 $445 forward 7 unknown #
vertex $-1 $319 $446 #
straight-curve $-1 -36.468024342011198 17.84661570373936 10.285625293730934 -0.55919289150049634 0 -0.82903758062907751 I I #
edge $-1 $321 38.638263157591332 $411 43.103122043519392 $403 $447 forward 7 unknown #
point $-1 -38.638263157591332 17.84661570373936 7.0681138331900026 #
coedge $-1 $324 $323 $402 $444 forward $315 $-1 #
point $-1 -43.103122043519392 11.691316999059026 0.44868811283148324 #
vertex $-1 $407 $448 #
straight-curve $-1 -43.103122043519392 0 7.0681138331900026 0 -1 0 I I #
vertex $-1 $331 $449 #
point $-1 -39.657552829775007 12.922376739995094 3.5432368593627634 #
vertex $-1 $335 $450 #
point $-1 -39.657552829775007 14.768966351399193 3.5432368593627634 #
vertex $-1 $339 $451 #
point $-1 -39.657552829775007 16.615555962803292 3.5432368593627634 #
edge $-1 $422 -10.972260863006252 $353 -2.7764488184599649 $352 $452 forward 7 unknown #
coedge $-1 $421 $346 $426 $453 reversed $343 $-1 #
coedge $-1 $346 $420 $348 $424 forward $343 $-1 #
vertex $-1 $347 $454 #
straight-curve $-1 -7.8075752768450268 17.84661570373936 34.801422651877459 -0.83867056331134215 0 0.54463904215088732 I I #
edge $-1 $428 -7.0681138331900026 $349 -1.7396286211938083 $348 $455 forward 7 unknown #
point $-1 43.103122043519392 17.84661570373936 1.7396286211938083 #
coedge $-1 $352 $351 $420 $453 forward $242 $-1 #
point $-1 34.897974508203795 9.6508036591930733 7.0681138331900044 #
vertex $-1 $356 $456 #
straight-curve $-1 43.103122043519392 0 7.0681138331900026 0 1 0 I I #
vertex $-1 $359 $457 #
point $-1 38.833680233442777 11.992464243349154 2.3108385451569116 #
vertex $-1 $363 $458 #
point $-1 38.833680233442777 15.504955119583279 2.3108385451569116 #
straight-curve $-1 -43.103122043519392 17.84661570373936 0 0 0 -1 I I #
point $-1 -43.103122043519392 -17.84661570373936 -7.0681138331900026 #
straight-curve $-1 -43.103122043519392 0 -7.0681138331900026 0 1 0 I I #
point $-1 -43.103122043519392 17.84661570373936 -7.0681138331900026 #
straight-curve $-1 -31.936940264052893 -7.7217975268830585 7.0681138331900026 0 1 0 I I #
straight-curve $-1 -31.936940264052893 -7.7217975268830585 -7.0681138331900026 0 -1 0 I I #
point $-1 -31.936940264052893 -17.84661570373936 -7.0681138331900026 #
point $-1 -31.936940264052893 -17.84661570373936 7.0681138331900026 #
straight-curve $-1 0 -17.84661570373936 -7.0681138331900026 -1 0 0 I I #
straight-curve $-1 0 -17.84661570373936 7.0681138331900026 1 0 0 I I #
edge $-1 $411 -7.0681138331900026 $405 -0.44868811283148324 $402 $459 forward 7 unknown #
straight-curve $-1 -43.103122043519392 7.3844831756995966 0.44868811283148269 0 -1 0 I I #
point $-1 -43.103122043519392 17.84661570373936 0.44868811283148324 #
straight-curve $-1 0 17.84661570373936 7.0681138331900026 -1 0 0 I I #
point $-1 -43.103122043519392 17.84661570373936 7.0681138331900026 #
point $-1 -39.522630485210712 12.922376739995094 2.8491216232979766 #
point $-1 -39.522630485210712 14.768966351399193 2.8491216232979766 #
point $-1 -39.522630485210712 16.615555962803292 2.8491216232979766 #
straight-curve $-1 34.897974508203809 6.8743548407331083 7.0681138331900009 0 -1 0 I I #
edge $-1 $428 -43.103122043519392 $422 -34.897974508203795 $420 $460 forward 7 unknown #
point $-1 34.897974508203795 17.84661570373936 7.0681138331900044 #
straight-curve $-1 43.103122043519392 17.84661570373936 0 0 0 -1 I I #
point $-1 43.103122043519392 17.84661570373936 7.0681138331900026 #
point $-1 37.450370627980547 11.992464243349154 2.0168070239964568 #
point $-1 37.450370627980547 15.504955119583279 2.0168070239964568 #
straight-curve $-1 -43.103122043519392 17.84661570373936 0 0 0 -1 I I #
straight-curve $-1 0 17.84661570373936 7.0681138331900026 -1 0 0 I I #
End-of-ACIS-data 