500 0 8 0           
7 Unknown 11 ACIS 5.0 NT 24 Fri Mar 26 00:09:34 1999 
-1 9.9999999999999995e-007 1e-010 
body $-1 $8 $-1 $9 #
body $-1 $10 $-1 $11 #
body $-1 $12 $-1 $13 #
body $-1 $14 $-1 $15 #
body $-1 $16 $-1 $17 #
body $-1 $18 $-1 $19 #
body $-1 $20 $-1 $21 #
body $-1 $22 $-1 $23 #
lump $-1 $-1 $24 $0 #
transform $-1 1 0 0 0 1 0 0 0 1 58.972746971037935 24.779640251513463 9.465675865967091 1 rotate no_reflect no_shear #
lump $-1 $-1 $25 $1 #
transform $-1 1 0 0 0 1 0 0 0 1 58.972746971037935 24.779640251513463 9.465675865967091 1 rotate no_reflect no_shear #
lump $-1 $-1 $26 $2 #
transform $-1 1 0 0 0 1 0 0 0 1 58.972746971037935 24.779640251513463 9.465675865967091 1 rotate no_reflect no_shear #
lump $-1 $-1 $27 $3 #
transform $-1 1 0 0 0 1 0 0 0 1 58.972746971037935 24.779640251513463 9.465675865967091 1 rotate no_reflect no_shear #
lump $-1 $-1 $28 $4 #
transform $-1 1 0 0 0 1 0 0 0 1 58.972746971037935 24.779640251513463 9.465675865967091 1 rotate no_reflect no_shear #
lump $-1 $-1 $29 $5 #
transform $-1 1 0 0 0 1 0 0 0 1 58.972746971037935 24.779640251513463 9.465675865967091 1 rotate no_reflect no_shear #
lump $-1 $-1 $30 $6 #
transform $-1 1 0 0 0 1 0 0 0 1 58.972746971037935 24.779640251513463 9.465675865967091 1 rotate no_reflect no_shear #
lump $-1 $-1 $31 $7 #
transform $-1 1 0 0 0 1 0 0 0 1 58.972746971037935 24.779640251513463 9.465675865967091 1 rotate no_reflect no_shear #
shell $-1 $-1 $-1 $32 $-1 $8 #
shell $-1 $-1 $-1 $33 $-1 $10 #
shell $-1 $-1 $-1 $34 $-1 $12 #
shell $-1 $-1 $-1 $35 $-1 $14 #
shell $-1 $-1 $-1 $36 $-1 $16 #
shell $-1 $-1 $-1 $37 $-1 $18 #
shell $-1 $-1 $-1 $38 $-1 $20 #
shell $-1 $-1 $-1 $39 $-1 $22 #
face $-1 $40 $41 $24 $-1 $42 forward single #
face $-1 $43 $44 $25 $-1 $45 forward single #
face $-1 $46 $47 $26 $-1 $48 reversed single #
face $-1 $49 $50 $27 $-1 $51 forward single #
face $-1 $52 $53 $28 $-1 $54 forward single #
face $-1 $55 $56 $29 $-1 $57 forward single #
face $-1 $58 $59 $30 $-1 $60 reversed single #
face $-1 $61 $62 $31 $-1 $63 forward single #
face $-1 $64 $65 $24 $-1 $66 reversed single #
loop $-1 $-1 $67 $32 #
plane-surface $-1 0 0 9.465675865967091 0 0 1 1 0 0 forward_v I I I I #
face $-1 $68 $69 $25 $-1 $70 reversed single #
loop $-1 $-1 $71 $33 #
plane-surface $-1 -58.972746971037935 0 0 1 0 0 0 0 -1 forward_v I I I I #
face $-1 $72 $73 $26 $-1 $74 reversed single #
loop $-1 $-1 $75 $34 #
plane-surface $-1 50.230511965728425 -125.87866184790875 62.308425813398664 -1 0 0 0 -0.85716730853699208 0.51503806187062418 forward_v I I I I #
face $-1 $76 $77 $27 $-1 $78 forward single #
loop $-1 $79 $80 $35 #
cone-surface $-1 28.998868334827293 -20.680673840555183 4.4776785421759913 0 0.85716730853699208 -0.51503806187062418 1.5 0 0 1 I I 0 1 1.5 forward I I I I #
face $-1 $81 $82 $28 $-1 $83 forward single #
loop $-1 $84 $85 $36 #
cone-surface $-1 36.960734696415216 -20.680673840555183 4.4776785421759913 0 0.85716730853699208 -0.51503806187062418 1.5 0 0 1 I I 0 1 1.5 forward I I I I #
face $-1 $86 $87 $29 $-1 $88 forward single #
loop $-1 $89 $90 $37 #
cone-surface $-1 44.922601058003139 -20.680673840555183 4.4776785421759913 0 0.85716730853699208 -0.51503806187062418 1.5 0 0 1 I I 0 1 1.5 forward I I I I #
face $-1 $91 $92 $30 $-1 $93 reversed single #
loop $-1 $-1 $94 $38 #
plane-surface $-1 3.9966232257364993 45.252577185393228 126.82870387477848 1 0 0 0 -0.52991927123019833 -0.84804809178421925 forward_v I I I I #
face $-1 $95 $96 $31 $-1 $97 forward single #
loop $-1 $98 $99 $39 #
cone-surface $-1 11.073220661754164 16.41960699399803 3.0514181031593659 0 -0.52991927123019833 -0.84804809178421925 2 0 0 1 I I 0 1 2 forward I I I I #
face $-1 $100 $101 $24 $-1 $102 reversed single #
loop $-1 $-1 $103 $40 #
plane-surface $-1 0 0 -9.465675865967091 0 0 1 1 0 0 forward_v I I I I #
coedge $-1 $104 $105 $106 $107 forward $41 $-1 #
face $-1 $108 $109 $25 $-1 $110 reversed single #
loop $-1 $-1 $111 $43 #
plane-surface $-1 0 24.779640251513463 0 0 -1 0 0 0 -1 forward_v I I I I #
coedge $-1 $112 $113 $114 $115 forward $44 $-1 #
face $-1 $116 $117 $26 $-1 $118 reversed single #
loop $-1 $-1 $119 $46 #
plane-surface $-1 36.960734696415216 -24.77964025151347 1.5620072070984605 0 -0.85716730853699208 0.51503806187062418 1 0 0 forward_v I I I I #
coedge $-1 $120 $121 $122 $123 reversed $47 $-1 #
face $-1 $-1 $124 $27 $-1 $125 forward single #
loop $-1 $126 $127 $49 #
cone-surface $-1 28.998868334827293 -18.313333487852223 3.0552370014162342 0 0.85716730853699208 -0.51503806187062418 0.75 0 0 1 I I -0.70710678118654757 0.70710678118654757 0.75 forward I I I I #
loop $-1 $-1 $128 $35 #
coedge $-1 $80 $80 $129 $130 reversed $50 $-1 #
face $-1 $-1 $131 $28 $-1 $132 forward single #
loop $-1 $133 $134 $52 #
cone-surface $-1 36.960734696415216 -18.313333487852223 3.0552370014162342 0 0.85716730853699208 -0.51503806187062418 0.75 0 0 1 I I -0.70710678118654757 0.70710678118654757 0.75 forward I I I I #
loop $-1 $-1 $135 $36 #
coedge $-1 $85 $85 $136 $137 reversed $53 $-1 #
face $-1 $-1 $138 $29 $-1 $139 forward single #
loop $-1 $140 $141 $55 #
cone-surface $-1 44.922601058003139 -18.313333487852223 3.0552370014162342 0 0.85716730853699208 -0.51503806187062418 0.75 0 0 1 I I -0.70710678118654757 0.70710678118654757 0.75 forward I I I I #
loop $-1 $-1 $142 $37 #
coedge $-1 $90 $90 $143 $144 reversed $56 $-1 #
face $-1 $145 $146 $30 $-1 $147 reversed single #
loop $-1 $-1 $148 $58 #
plane-surface $-1 11.073220661754164 -17.249013009277391 26.805252802653854 0 0.52991927123019833 0.84804809178421925 1 0 0 forward_v I I I I #
coedge $-1 $149 $150 $151 $152 reversed $59 $-1 #
face $-1 $-1 $153 $31 $-1 $154 forward single #
loop $-1 $155 $156 $61 #
cone-surface $-1 11.073220661754164 14.669419505005955 0.25053268365254588 0 -0.52991927123019833 -0.84804809178421925 1 0 0 1 I I -0.70710678118654746 0.70710678118654746 1 forward I I I I #
loop $-1 $-1 $157 $39 #
coedge $-1 $99 $99 $158 $159 reversed $62 $-1 #
face $-1 $160 $161 $24 $-1 $162 reversed single #
loop $-1 $-1 $163 $64 #
plane-surface $-1 0 -24.779640251513463 0 0 1 0 0 0 1 forward_v I I I I #
coedge $-1 $164 $165 $166 $167 forward $65 $-1 #
coedge $-1 $168 $67 $169 $170 forward $41 $-1 #
coedge $-1 $67 $168 $171 $172 forward $41 $-1 #
coedge $-1 $173 $174 $67 $107 reversed $175 $-1 #
edge $-1 $176 -24.779640251513463 $177 24.779640251513463 $106 $178 forward 7 unknown #
face $-1 $179 $180 $25 $-1 $181 reversed single #
loop $-1 $-1 $114 $68 #
plane-surface $-1 -62.797952337207327 0 4.2138102579329448 0 0 1 1 0 0 forward_v I I I I #
coedge $-1 $182 $183 $112 $184 forward $69 $-1 #
coedge $-1 $185 $71 $111 $184 reversed $44 $-1 #
coedge $-1 $71 $185 $186 $187 reversed $44 $-1 #
coedge $-1 $188 $189 $71 $115 reversed $109 $-1 #
edge $-1 $190 -24.779640251513463 $191 24.779640251513463 $114 $192 forward 7 unknown #
face $-1 $193 $194 $26 $-1 $195 reversed single #
loop $-1 $-1 $196 $72 #
plane-surface $-1 23.690957427102006 -125.87866184790875 62.308425813398664 1 0 0 0 0.85716730853699208 -0.51503806187062418 forward_v I I I I #
coedge $-1 $197 $198 $199 $200 reversed $73 $-1 #
coedge $-1 $121 $75 $201 $202 reversed $47 $-1 #
coedge $-1 $75 $120 $197 $203 reversed $47 $-1 #
coedge $-1 $199 $204 $75 $123 forward $205 $-1 #
edge $-1 $206 38.15969067244091 $207 42.908693751757035 $122 $208 forward 7 unknown #
loop $-1 $-1 $129 $76 #
plane-surface $-1 36.960734696415216 -24.77964025151347 1.5620072070984605 0 -0.85716730853699208 0.51503806187062418 1 0 0 forward_v I I I I #
loop $-1 $-1 $209 $49 #
coedge $-1 $127 $127 $128 $210 reversed $77 $-1 #
coedge $-1 $128 $128 $127 $210 forward $79 $-1 #
coedge $-1 $129 $129 $80 $130 forward $124 $-1 #
edge $-1 $211 -5.0754500367666359e-016 $211 6.2831853071795996 $129 $212 forward 7 unknown #
loop $-1 $-1 $136 $81 #
plane-surface $-1 36.960734696415216 -24.77964025151347 1.5620072070984605 0 -0.85716730853699208 0.51503806187062418 1 0 0 forward_v I I I I #
loop $-1 $-1 $213 $52 #
coedge $-1 $134 $134 $135 $214 reversed $82 $-1 #
coedge $-1 $135 $135 $134 $214 forward $84 $-1 #
coedge $-1 $136 $136 $85 $137 forward $131 $-1 #
edge $-1 $215 -5.0754500367666359e-016 $215 6.2831853071795996 $136 $216 forward 7 unknown #
loop $-1 $-1 $143 $86 #
plane-surface $-1 36.960734696415216 -24.77964025151347 1.5620072070984605 0 -0.85716730853699208 0.51503806187062418 1 0 0 forward_v I I I I #
loop $-1 $-1 $217 $55 #
coedge $-1 $141 $141 $142 $218 reversed $87 $-1 #
coedge $-1 $142 $142 $141 $218 forward $89 $-1 #
coedge $-1 $143 $143 $90 $144 forward $138 $-1 #
edge $-1 $219 -5.0754500367666359e-016 $219 6.2831853071795996 $143 $220 forward 7 unknown #
face $-1 $221 $222 $30 $-1 $223 forward single #
loop $-1 $-1 $224 $91 #
plane-surface $-1 18.149818097771828 45.252577185393228 126.82870387477848 -1 0 0 0 0.52991927123019833 0.84804809178421925 forward_v I I I I #
coedge $-1 $225 $226 $227 $228 reversed $92 $-1 #
coedge $-1 $150 $94 $229 $230 reversed $59 $-1 #
coedge $-1 $94 $149 $225 $231 reversed $59 $-1 #
coedge $-1 $227 $232 $94 $152 forward $222 $-1 #
edge $-1 $233 -2.1533516588168489 $234 12.126178420690298 $151 $235 forward 7 unknown #
loop $-1 $-1 $158 $95 #
plane-surface $-1 11.073220661754164 -17.249013009277391 26.805252802653854 0 0.52991927123019833 0.84804809178421925 1 0 0 forward_v I I I I #
loop $-1 $-1 $236 $61 #
coedge $-1 $156 $156 $157 $237 reversed $96 $-1 #
coedge $-1 $157 $157 $156 $237 forward $98 $-1 #
coedge $-1 $158 $158 $99 $159 forward $153 $-1 #
edge $-1 $238 -3.7621541557828905e-016 $238 6.2831853071796004 $158 $239 forward 7 unknown #
face $-1 $240 $241 $24 $-1 $242 reversed single #
loop $-1 $-1 $243 $100 #
plane-surface $-1 -58.972746971037935 0 0 1 0 0 0 0 -1 forward_v I I I I #
coedge $-1 $244 $171 $245 $246 forward $101 $-1 #
coedge $-1 $247 $103 $244 $248 forward $65 $-1 #
coedge $-1 $103 $247 $249 $250 forward $65 $-1 #
coedge $-1 $174 $173 $103 $167 reversed $175 $-1 #
edge $-1 $251 -24.779640251513463 $252 24.779640251513463 $166 $253 forward 7 unknown #
coedge $-1 $105 $104 $254 $255 forward $41 $-1 #
coedge $-1 $256 $257 $104 $170 reversed $241 $-1 #
edge $-1 $177 -58.972746971037935 $258 58.972746971037935 $169 $259 forward 7 unknown #
coedge $-1 $163 $260 $105 $172 reversed $101 $-1 #
edge $-1 $261 -58.972746971037935 $176 58.972746971037935 $171 $262 forward 7 unknown #
coedge $-1 $166 $106 $260 $263 forward $175 $-1 #
coedge $-1 $106 $166 $256 $264 reversed $175 $-1 #
loop $-1 $-1 $173 $240 #
vertex $-1 $107 $265 #
vertex $-1 $107 $266 #
straight-curve $-1 58.972746971037935 0 9.465675865967091 0 1 0 I I #
face $-1 $267 $268 $25 $-1 $269 forward single #
loop $-1 $-1 $270 $108 #
plane-surface $-1 -66.623157703376719 0 6.8397430619500188 1 0 0 0 0 -1 forward_v I I I I #
coedge $-1 $271 $111 $189 $272 reversed $69 $-1 #
coedge $-1 $111 $271 $273 $274 reversed $69 $-1 #
edge $-1 $275 -9.465675865967091 $191 -4.2138102579329448 $111 $276 forward 7 unknown #
coedge $-1 $113 $112 $277 $278 reversed $44 $-1 #
coedge $-1 $279 $280 $113 $187 forward $281 $-1 #
edge $-1 $190 4.2138102579329448 $282 9.465675865967091 $186 $283 forward 7 unknown #
coedge $-1 $284 $114 $280 $285 forward $109 $-1 #
coedge $-1 $114 $284 $182 $272 forward $109 $-1 #
vertex $-1 $187 $286 #
vertex $-1 $184 $287 #
straight-curve $-1 -58.972746971037935 0 4.2138102579329448 0 1 0 I I #
face $-1 $-1 $205 $26 $-1 $288 forward single #
loop $-1 $-1 $289 $116 #
plane-surface $-1 0 -24.779640251513463 0 0 1 0 0 0 1 forward_v I I I I #
coedge $-1 $290 $291 $292 $293 reversed $117 $-1 #
coedge $-1 $294 $119 $121 $203 forward $73 $-1 #
coedge $-1 $119 $294 $290 $295 forward $73 $-1 #
coedge $-1 $292 $122 $119 $200 forward $205 $-1 #
edge $-1 $207 -31.750144617520817 $296 -5.2105900788943984 $199 $297 forward 7 unknown #
coedge $-1 $298 $299 $120 $202 forward $194 $-1 #
edge $-1 $300 -29.592205699600861 $206 -21.688537040732243 $201 $301 forward 7 unknown #
edge $-1 $207 -9.2206837336792109 $300 -1.3747022483095021e-014 $121 $302 forward 7 unknown #
coedge $-1 $122 $292 $298 $303 forward $205 $-1 #
loop $-1 $-1 $292 $193 #
vertex $-1 $202 $304 #
vertex $-1 $123 $305 #
straight-curve $-1 50.230511965728425 -62.939330923954373 9.4656758659670928 0 1 0 I I #
coedge $-1 $209 $209 $-1 $306 reversed $126 $-1 #
edge $-1 $307 0 $307 6.2831853071796004 $127 $308 forward 7 unknown #
vertex $-1 $130 $309 #
ellipse-curve $-1 28.998868334827293 -22.4051387118554 5.5138415365327811 0 -0.85716730853699208 0.51503806187062418 1.5 0 0 1 I I #
coedge $-1 $213 $213 $-1 $310 reversed $133 $-1 #
edge $-1 $311 0 $311 6.2831853071796004 $134 $312 forward 7 unknown #
vertex $-1 $137 $313 #
ellipse-curve $-1 36.960734696415216 -22.4051387118554 5.5138415365327811 0 -0.85716730853699208 0.51503806187062418 1.5 0 0 1 I I #
coedge $-1 $217 $217 $-1 $314 reversed $140 $-1 #
edge $-1 $315 0 $315 6.2831853071796004 $141 $316 forward 7 unknown #
vertex $-1 $144 $317 #
ellipse-curve $-1 44.922601058003139 -22.4051387118554 5.5138415365327811 0 -0.85716730853699208 0.51503806187062418 1.5 0 0 1 I I #
face $-1 $-1 $318 $30 $-1 $319 reversed single #
loop $-1 $-1 $151 $145 #
plane-surface $-1 0 0 9.465675865967091 0 0 1 1 0 0 forward_v I I I I #
coedge $-1 $320 $321 $322 $323 reversed $146 $-1 #
coedge $-1 $324 $148 $150 $231 forward $92 $-1 #
coedge $-1 $148 $324 $320 $325 forward $92 $-1 #
coedge $-1 $322 $151 $148 $228 forward $222 $-1 #
edge $-1 $234 -1.5399871051405825 $326 12.613207766894746 $227 $327 forward 7 unknown #
coedge $-1 $328 $329 $149 $230 forward $318 $-1 #
edge $-1 $330 -62.871516941592397 $233 -53.948676071422149 $229 $331 forward 7 unknown #
edge $-1 $234 32.721166936301891 $330 49.55928050302694 $150 $332 forward 7 unknown #
coedge $-1 $151 $322 $328 $333 forward $222 $-1 #
vertex $-1 $230 $334 #
vertex $-1 $152 $335 #
straight-curve $-1 3.9966232257364993 22.626288592696614 9.4656758659670928 0 -1 0 I I #
coedge $-1 $236 $236 $-1 $336 reversed $155 $-1 #
edge $-1 $337 0 $337 6.2831853071796004 $156 $338 forward 7 unknown #
vertex $-1 $159 $339 #
ellipse-curve $-1 11.073220661754164 17.6398752117599 5.00425543088196 0 0.52991927123019833 0.84804809178421925 2 0 0 1 I I #
face $-1 $-1 $175 $24 $-1 $340 reversed single #
loop $-1 $-1 $256 $160 #
plane-surface $-1 0 24.779640251513463 0 0 -1 0 0 0 -1 forward_v I I I I #
coedge $-1 $341 $254 $257 $342 forward $161 $-1 #
coedge $-1 $260 $163 $164 $248 reversed $101 $-1 #
coedge $-1 $254 $341 $163 $246 reversed $161 $-1 #
edge $-1 $261 -9.465675865967091 $343 9.465675865967091 $245 $344 forward 7 unknown #
coedge $-1 $165 $164 $341 $345 forward $65 $-1 #
edge $-1 $252 -58.972746971037935 $343 58.972746971037935 $244 $346 forward 7 unknown #
coedge $-1 $257 $256 $165 $250 reversed $241 $-1 #
edge $-1 $347 -58.972746971037935 $251 58.972746971037935 $249 $348 forward 7 unknown #
vertex $-1 $167 $349 #
vertex $-1 $263 $350 #
straight-curve $-1 58.972746971037935 0 -9.465675865967091 0 -1 0 I I #
coedge $-1 $243 $245 $168 $255 reversed $161 $-1 #
edge $-1 $258 -24.779640251513463 $261 24.779640251513463 $254 $351 forward 7 unknown #
coedge $-1 $249 $169 $174 $264 forward $241 $-1 #
coedge $-1 $169 $249 $243 $342 reversed $241 $-1 #
vertex $-1 $170 $352 #
straight-curve $-1 0 24.779640251513463 9.465675865967091 -1 0 0 I I #
coedge $-1 $171 $244 $173 $263 reversed $101 $-1 #
vertex $-1 $255 $353 #
straight-curve $-1 0 -24.779640251513463 9.465675865967091 1 0 0 I I #
edge $-1 $176 -9.465675865967091 $252 9.465675865967091 $173 $354 forward 7 unknown #
edge $-1 $177 -9.465675865967091 $251 9.465675865967091 $174 $355 forward 7 unknown #
point $-1 58.972746971037935 -24.779640251513463 9.465675865967091 #
point $-1 58.972746971037935 24.779640251513463 9.465675865967091 #
face $-1 $-1 $281 $25 $-1 $356 reversed single #
loop $-1 $-1 $277 $179 #
plane-surface $-1 0 0 9.465675865967091 0 0 1 1 0 0 forward_v I I I I #
coedge $-1 $357 $358 $271 $359 forward $180 $-1 #
coedge $-1 $183 $182 $270 $359 reversed $69 $-1 #
edge $-1 $360 -3.8252053661693921 $191 3.8252053661693921 $182 $361 forward 7 unknown #
coedge $-1 $362 $277 $183 $274 forward $268 $-1 #
edge $-1 $275 58.972746971037935 $363 66.623157703376719 $183 $364 forward 7 unknown #
vertex $-1 $274 $365 #
straight-curve $-1 -58.972746971037935 24.779640251513463 0 0 0 -1 I I #
coedge $-1 $273 $366 $185 $278 forward $268 $-1 #
edge $-1 $282 -24.779640251513463 $275 24.779640251513463 $277 $367 forward 7 unknown #
coedge $-1 $368 $186 $366 $369 reversed $281 $-1 #
coedge $-1 $186 $368 $188 $285 reversed $281 $-1 #
loop $-1 $-1 $186 $267 #
vertex $-1 $187 $370 #
straight-curve $-1 -58.972746971037935 -24.779640251513463 0 0 0 1 I I #
coedge $-1 $189 $188 $357 $371 forward $109 $-1 #
edge $-1 $190 -3.8252053661693921 $372 3.8252053661693921 $280 $373 forward 7 unknown #
point $-1 -58.972746971037935 -24.779640251513463 4.2138102579329448 #
point $-1 -58.972746971037935 24.779640251513463 4.2138102579329448 #
plane-surface $-1 0 0 9.465675865967091 0 0 1 1 0 0 forward_v I I I I #
coedge $-1 $299 $298 $291 $374 forward $194 $-1 #
coedge $-1 $291 $196 $198 $295 reversed $117 $-1 #
coedge $-1 $196 $290 $289 $374 reversed $117 $-1 #
coedge $-1 $204 $199 $196 $293 forward $205 $-1 #
edge $-1 $296 -42.908693751757035 $375 -38.15969067244091 $292 $376 forward 7 unknown #
coedge $-1 $198 $197 $299 $377 reversed $73 $-1 #
edge $-1 $378 1.3747022483095021e-014 $296 9.2206837336792109 $290 $379 forward 7 unknown #
vertex $-1 $200 $380 #
straight-curve $-1 18.480367348207608 -20.030637172197338 9.465675865967091 -1 0 0 I I #
coedge $-1 $289 $201 $204 $303 reversed $194 $-1 #
coedge $-1 $201 $289 $294 $377 forward $194 $-1 #
vertex $-1 $202 $381 #
straight-curve $-1 50.230511965728425 -24.779640251513463 31.154212906699332 0 0 1 I I #
straight-curve $-1 50.230511965728425 -24.77964025151347 1.5620072070984605 0 -0.51503806187062418 -0.85716730853699208 I I #
edge $-1 $375 23.690957427102006 $206 50.230511965728425 $298 $382 forward 7 unknown #
point $-1 50.230511965728425 -24.779640251513463 9.465675865967091 #
point $-1 50.230511965728425 -20.030637172197338 9.465675865967091 #
edge $-1 $383 1 $383 0 $209 $-1 forward 7 unknown #
vertex $-1 $210 $384 #
ellipse-curve $-1 28.998868334827293 -18.956208969254966 3.4415155478192023 0 -0.85716730853699208 0.51503806187062418 1.5 0 0 1 I I #
point $-1 30.498868334827293 -22.4051387118554 5.5138415365327802 #
edge $-1 $385 1 $385 0 $213 $-1 forward 7 unknown #
vertex $-1 $214 $386 #
ellipse-curve $-1 36.960734696415216 -18.956208969254966 3.4415155478192023 0 -0.85716730853699208 0.51503806187062418 1.5 0 0 1 I I #
point $-1 38.460734696415216 -22.4051387118554 5.5138415365327802 #
edge $-1 $387 1 $387 0 $217 $-1 forward 7 unknown #
vertex $-1 $218 $388 #
ellipse-curve $-1 44.922601058003139 -18.956208969254966 3.4415155478192023 0 -0.85716730853699208 0.51503806187062418 1.5 0 0 1 I I #
point $-1 46.422601058003139 -22.4051387118554 5.5138415365327802 #
loop $-1 $-1 $229 $221 #
plane-surface $-1 0 24.779640251513463 0 0 -1 0 0 0 -1 forward_v I I I I #
coedge $-1 $321 $224 $226 $325 reversed $146 $-1 #
coedge $-1 $224 $320 $389 $390 reversed $146 $-1 #
coedge $-1 $232 $227 $224 $323 forward $222 $-1 #
edge $-1 $326 -12.126178420690298 $391 2.1533516588168489 $322 $392 forward 7 unknown #
coedge $-1 $226 $225 $329 $393 reversed $92 $-1 #
edge $-1 $394 -49.55928050302694 $326 -32.721166936301891 $320 $395 forward 7 unknown #
vertex $-1 $228 $396 #
straight-curve $-1 5.5366103308770818 10.50011017200632 9.4656758659670892 1 0 0 I I #
coedge $-1 $389 $229 $232 $333 reversed $318 $-1 #
coedge $-1 $229 $389 $324 $393 forward $318 $-1 #
vertex $-1 $230 $397 #
straight-curve $-1 3.9966232257364993 24.779640251513463 63.414351937389242 0 0 1 I I #
straight-curve $-1 3.9966232257364993 -17.249013009277391 26.805252802653854 0 0.84804809178421925 -0.52991927123019833 I I #
edge $-1 $391 -18.149818097771828 $233 -3.9966232257364993 $328 $398 forward 7 unknown #
point $-1 3.9966232257364993 24.779640251513463 9.465675865967091 #
point $-1 3.9966232257364993 10.500110172006316 9.4656758659670928 #
edge $-1 $399 1 $399 0 $236 $-1 forward 7 unknown #
vertex $-1 $237 $400 #
ellipse-curve $-1 11.073220661754164 15.199338776236154 1.0985807754367651 0 0.52991927123019833 0.84804809178421925 2 0 0 1 I I #
point $-1 13.073220661754164 17.639875211759904 5.0042554308819671 #
plane-surface $-1 58.972746971037935 0 0 -1 0 0 0 0 1 forward_v I I I I #
coedge $-1 $245 $243 $247 $345 reversed $161 $-1 #
edge $-1 $258 -9.465675865967091 $347 9.465675865967091 $257 $401 forward 7 unknown #
vertex $-1 $345 $402 #
straight-curve $-1 -58.972746971037935 -24.779640251513463 0 0 0 -1 I I #
edge $-1 $343 -24.779640251513463 $347 24.779640251513463 $341 $403 forward 7 unknown #
straight-curve $-1 0 -24.779640251513463 -9.465675865967091 -1 0 0 I I #
vertex $-1 $250 $404 #
straight-curve $-1 0 24.779640251513463 -9.465675865967091 1 0 0 I I #
point $-1 58.972746971037935 24.779640251513463 -9.465675865967091 #
point $-1 58.972746971037935 -24.779640251513463 -9.465675865967091 #
straight-curve $-1 -58.972746971037935 0 9.465675865967091 0 -1 0 I I #
point $-1 -58.972746971037935 24.779640251513463 9.465675865967091 #
point $-1 -58.972746971037935 -24.779640251513463 9.465675865967091 #
straight-curve $-1 58.972746971037935 -24.779640251513463 0 0 0 -1 I I #
straight-curve $-1 58.972746971037935 24.779640251513463 0 0 0 -1 I I #
plane-surface $-1 0 -24.779640251513463 0 0 1 0 0 0 1 forward_v I I I I #
coedge $-1 $405 $270 $284 $371 reversed $180 $-1 #
coedge $-1 $270 $405 $362 $406 reversed $180 $-1 #
edge $-1 $363 -2.625932804017074 $360 2.625932804017074 $271 $407 forward 7 unknown #
vertex $-1 $272 $408 #
straight-curve $-1 -62.797952337207327 24.779640251513463 4.2138102579329448 1 0 0 I I #
coedge $-1 $366 $273 $358 $406 forward $268 $-1 #
vertex $-1 $274 $409 #
straight-curve $-1 0 24.779640251513463 9.465675865967091 -1 0 0 I I #
point $-1 -58.972746971037935 24.779640251513463 9.465675865967091 #
coedge $-1 $277 $362 $279 $369 forward $268 $-1 #
straight-curve $-1 -58.972746971037935 0 9.465675865967091 0 1 0 I I #
coedge $-1 $280 $279 $405 $410 forward $281 $-1 #
edge $-1 $411 -66.623157703376719 $282 -58.972746971037935 $279 $412 forward 7 unknown #
point $-1 -58.972746971037935 -24.779640251513463 9.465675865967091 #
edge $-1 $372 -24.779640251513463 $360 24.779640251513463 $357 $413 forward 7 unknown #
vertex $-1 $371 $414 #
straight-curve $-1 -62.797952337207327 -24.779640251513463 4.2138102579329448 -1 0 0 I I #
edge $-1 $375 21.688537040732243 $378 29.592205699600861 $289 $415 forward 7 unknown #
vertex $-1 $303 $416 #
straight-curve $-1 23.690957427102006 -62.939330923954373 9.4656758659670928 0 -1 0 I I #
edge $-1 $378 5.2105900788943984 $300 31.750144617520817 $299 $417 forward 7 unknown #
vertex $-1 $377 $418 #
straight-curve $-1 23.690957427102006 -24.77964025151347 1.5620072070984605 0 0.51503806187062418 0.85716730853699208 I I #
point $-1 23.690957427102006 -20.030637172197338 9.465675865967091 #
point $-1 50.230511965728425 -24.779640251513463 1.5620072070984723 #
straight-curve $-1 0 -24.779640251513463 9.465675865967091 1 0 0 I I #
vertex $-1 $306 $419 #
point $-1 30.498868334827293 -18.956208969254966 3.4415155478192023 #
vertex $-1 $310 $420 #
point $-1 38.460734696415216 -18.956208969254966 3.4415155478192023 #
vertex $-1 $314 $421 #
point $-1 46.422601058003139 -18.956208969254966 3.4415155478192023 #
coedge $-1 $329 $328 $321 $390 forward $318 $-1 #
edge $-1 $391 53.948676071422149 $394 62.871516941592397 $389 $422 forward 7 unknown #
vertex $-1 $333 $423 #
straight-curve $-1 18.149818097771828 22.626288592696614 9.4656758659670928 0 1 0 I I #
edge $-1 $394 -12.613207766894746 $330 1.5399871051405825 $329 $424 forward 7 unknown #
vertex $-1 $393 $425 #
straight-curve $-1 18.149818097771828 -17.249013009277391 26.805252802653854 0 -0.84804809178421925 0.52991927123019833 I I #
point $-1 18.149818097771828 10.500110172006316 9.4656758659670928 #
point $-1 3.9966232257364993 24.779640251513463 0.54283499579684502 #
straight-curve $-1 0 24.779640251513463 9.465675865967091 -1 0 0 I I #
vertex $-1 $336 $426 #
point $-1 13.073220661754164 15.199338776236154 1.0985807754367651 #
straight-curve $-1 -58.972746971037935 24.779640251513463 0 0 0 -1 I I #
point $-1 -58.972746971037935 -24.779640251513463 -9.465675865967091 #
straight-curve $-1 -58.972746971037935 0 -9.465675865967091 0 1 0 I I #
point $-1 -58.972746971037935 24.779640251513463 -9.465675865967091 #
coedge $-1 $358 $357 $368 $410 reversed $180 $-1 #
edge $-1 $363 -24.779640251513463 $411 24.779640251513463 $358 $427 forward 7 unknown #
straight-curve $-1 -66.623157703376719 24.779640251513463 6.8397430619500188 0 0 -1 I I #
point $-1 -66.623157703376719 24.779640251513463 4.2138102579329448 #
point $-1 -66.623157703376719 24.779640251513463 9.4656758659670928 #
edge $-1 $411 -2.625932804017074 $372 2.625932804017074 $405 $428 forward 7 unknown #
vertex $-1 $406 $429 #
straight-curve $-1 0 -24.779640251513463 9.465675865967091 1 0 0 I I #
straight-curve $-1 -66.623157703376719 0 4.2138102579329448 0 1 0 I I #
point $-1 -66.623157703376719 -24.779640251513463 4.2138102579329448 #
straight-curve $-1 23.690957427102006 -24.779640251513463 31.154212906699332 0 0 -1 I I #
point $-1 23.690957427102006 -24.779640251513463 9.465675865967091 #
straight-curve $-1 18.480367348207608 -24.779640251513463 1.5620072070984694 1 0 0 I I #
point $-1 23.690957427102006 -24.779640251513463 1.5620072070984723 #
point $-1 28.998868334827293 -17.670458006449479 2.6689584550132661 #
point $-1 36.960734696415216 -17.670458006449479 2.6689584550132661 #
point $-1 44.922601058003139 -17.670458006449479 2.6689584550132661 #
straight-curve $-1 18.149818097771828 24.779640251513463 63.414351937389242 0 0 -1 I I #
point $-1 18.149818097771828 24.779640251513463 9.465675865967091 #
straight-curve $-1 5.5366103308770818 24.779640251513463 0.54283499579683969 -1 0 0 I I #
point $-1 18.149818097771828 24.779640251513463 0.54283499579684502 #
point $-1 11.073220661754164 14.139500233775756 -0.59751540813167336 #
straight-curve $-1 -66.623157703376719 0 9.4656758659670928 0 -1 0 I I #
straight-curve $-1 -66.623157703376719 -24.779640251513463 6.8397430619500188 0 0 -1 I I #
point $-1 -66.623157703376719 -24.779640251513463 9.4656758659670928 #
End-of-ACIS-data 