500 0 4 0           
7 Unknown 11 ACIS 5.0 NT 24 Fri Mar 26 20:10:17 1999 
-1 9.9999999999999995e-007 1e-010 
body $-1 $4 $-1 $5 #
body $-1 $6 $-1 $7 #
body $-1 $8 $-1 $9 #
body $-1 $10 $-1 $11 #
lump $-1 $-1 $12 $0 #
transform $-1 1 0 0 0 1 0 0 0 1 64.563737907040618 30.435023299653029 14.118518163448467 1 rotate no_reflect no_shear #
lump $-1 $-1 $13 $1 #
transform $-1 1 0 0 0 1 0 0 0 1 64.563737907040618 30.435023299653029 14.118518163448467 1 rotate no_reflect no_shear #
lump $-1 $-1 $14 $2 #
transform $-1 1 0 0 0 1 0 0 0 1 64.563737907040618 30.435023299653029 14.118518163448467 1 rotate no_reflect no_shear #
lump $-1 $-1 $15 $3 #
transform $-1 1 0 0 0 1 0 0 0 1 64.563737907040618 30.435023299653029 14.118518163448467 1 rotate no_reflect no_shear #
shell $-1 $-1 $-1 $16 $-1 $4 #
shell $-1 $-1 $-1 $17 $-1 $6 #
shell $-1 $-1 $-1 $18 $-1 $8 #
shell $-1 $-1 $-1 $19 $-1 $10 #
face $-1 $20 $21 $12 $-1 $22 forward single #
face $-1 $23 $24 $13 $-1 $25 forward single #
face $-1 $26 $27 $14 $-1 $28 reversed single #
face $-1 $29 $30 $15 $-1 $31 forward single #
face $-1 $32 $33 $12 $-1 $34 reversed single #
loop $-1 $-1 $35 $16 #
plane-surface $-1 0 0 14.118518163448467 0 0 1 1 0 0 forward_v I I I I #
face $-1 $36 $37 $13 $-1 $38 reversed single #
loop $-1 $-1 $39 $17 #
plane-surface $-1 0 -30.435023299653029 0 0 1 0 0 0 1 forward_v I I I I #
face $-1 $40 $41 $14 $-1 $42 reversed single #
loop $-1 $-1 $43 $18 #
plane-surface $-1 -144.06255116877077 -7.3418201518014818 102.59874704748792 0 1 0 -0.61566148304635926 0 0.78801074757464917 forward_v I I I I #
face $-1 $44 $45 $15 $-1 $46 forward single #
loop $-1 $47 $48 $19 #
cone-surface $-1 -54.642840116102754 -2.5240520122002224 5.6562924788681102 0.61566148304635926 0 -0.78801074757464917 1.1820161213619738 0 0.92349222456953894 1 I I 0 1 1.5 forward I I I I #
face $-1 $49 $50 $12 $-1 $51 reversed single #
loop $-1 $-1 $52 $20 #
plane-surface $-1 0 0 -14.118518163448467 0 0 1 1 0 0 forward_v I I I I #
coedge $-1 $53 $54 $55 $56 forward $21 $-1 #
face $-1 $57 $58 $13 $-1 $59 reversed single #
loop $-1 $-1 $60 $23 #
plane-surface $-1 0 0 -14.118518163448467 0 0 1 1 0 0 forward_v I I I I #
coedge $-1 $61 $62 $63 $64 forward $24 $-1 #
face $-1 $65 $66 $14 $-1 $67 reversed single #
loop $-1 $-1 $68 $26 #
plane-surface $-1 -64.563737907040633 -2.5240520122002224 0.844908298806331 -0.61566148304635926 0 0.78801074757464917 0.78801074757464917 0 0.61566148304635926 forward_v I I I I #
coedge $-1 $69 $70 $71 $72 reversed $27 $-1 #
face $-1 $-1 $73 $15 $-1 $74 forward single #
loop $-1 $75 $76 $29 #
cone-surface $-1 -52.75491897894868 -2.5240520122002224 3.2398636659278388 0.61566148304635926 0 -0.78801074757464917 0.59100806068098688 0 0.46174611228476947 1 I I -0.70710678118654757 0.70710678118654757 0.75 forward I I I I #
loop $-1 $-1 $77 $19 #
coedge $-1 $48 $48 $78 $79 reversed $30 $-1 #
face $-1 $80 $81 $12 $-1 $82 reversed single #
loop $-1 $-1 $83 $32 #
plane-surface $-1 0 -30.435023299653029 0 0 1 0 0 0 1 forward_v I I I I #
coedge $-1 $84 $85 $86 $87 forward $33 $-1 #
coedge $-1 $88 $35 $89 $90 forward $21 $-1 #
coedge $-1 $35 $88 $91 $92 forward $21 $-1 #
coedge $-1 $93 $94 $35 $56 reversed $95 $-1 #
edge $-1 $96 -30.435023299653029 $97 30.435023299653029 $55 $98 forward 7 unknown #
face $-1 $99 $100 $13 $-1 $101 reversed single #
loop $-1 $-1 $102 $36 #
plane-surface $-1 -40.25306031803315 -48.478823010665067 0 0 1 0 0 0 1 forward_v I I I I #
coedge $-1 $103 $104 $62 $105 forward $37 $-1 #
coedge $-1 $106 $39 $107 $108 reversed $24 $-1 #
coedge $-1 $39 $106 $60 $105 reversed $24 $-1 #
coedge $-1 $109 $110 $39 $64 reversed $100 $-1 #
edge $-1 $111 -14.118518163448467 $112 14.118518163448467 $63 $113 forward 7 unknown #
face $-1 $114 $115 $14 $-1 $116 reversed single #
loop $-1 $-1 $117 $40 #
plane-surface $-1 -144.06255116877077 2.2937161274010371 102.59874704748792 0 -1 0 0.61566148304635926 0 -0.78801074757464917 forward_v I I I I #
coedge $-1 $118 $119 $120 $121 reversed $41 $-1 #
coedge $-1 $70 $43 $122 $123 reversed $27 $-1 #
coedge $-1 $43 $69 $118 $124 reversed $27 $-1 #
coedge $-1 $120 $125 $43 $72 forward $126 $-1 #
edge $-1 $127 7.4675376773447653 $128 24.456983209481876 $71 $129 forward 7 unknown #
loop $-1 $-1 $78 $44 #
plane-surface $-1 -64.563737907040633 -2.5240520122002224 0.844908298806331 -0.61566148304635926 0 0.78801074757464917 0.78801074757464917 0 0.61566148304635926 forward_v I I I I #
loop $-1 $-1 $130 $29 #
coedge $-1 $76 $76 $77 $131 reversed $45 $-1 #
coedge $-1 $77 $77 $76 $131 forward $47 $-1 #
coedge $-1 $78 $78 $48 $79 forward $73 $-1 #
edge $-1 $132 0 $132 6.2831853071796004 $78 $133 forward 7 unknown #
face $-1 $134 $135 $12 $-1 $136 reversed single #
loop $-1 $-1 $137 $49 #
plane-surface $-1 -64.563737907040618 0 0 1 0 0 0 0 -1 forward_v I I I I #
coedge $-1 $138 $91 $139 $140 forward $50 $-1 #
coedge $-1 $141 $52 $138 $142 forward $33 $-1 #
coedge $-1 $52 $141 $143 $144 forward $33 $-1 #
coedge $-1 $94 $93 $52 $87 reversed $95 $-1 #
edge $-1 $145 -30.435023299653029 $146 30.435023299653029 $86 $147 forward 7 unknown #
coedge $-1 $54 $53 $148 $149 forward $21 $-1 #
coedge $-1 $150 $151 $53 $90 reversed $135 $-1 #
edge $-1 $97 -64.563737907040618 $152 64.563737907040618 $89 $153 forward 7 unknown #
coedge $-1 $83 $154 $54 $92 reversed $50 $-1 #
edge $-1 $155 -64.563737907040618 $96 64.563737907040618 $91 $156 forward 7 unknown #
coedge $-1 $86 $55 $154 $157 forward $95 $-1 #
coedge $-1 $55 $86 $150 $158 reversed $95 $-1 #
loop $-1 $-1 $93 $134 #
vertex $-1 $56 $159 #
vertex $-1 $56 $160 #
straight-curve $-1 64.563737907040618 0 14.118518163448467 0 1 0 I I #
face $-1 $161 $162 $13 $-1 $163 reversed single #
loop $-1 $-1 $63 $57 #
plane-surface $-1 -44.179419055922615 -39.456923155159046 0 1 0 0 0 0 -1 forward_v I I I I #
coedge $-1 $164 $165 $166 $167 forward $58 $-1 #
coedge $-1 $168 $60 $169 $170 forward $37 $-1 #
coedge $-1 $60 $168 $109 $171 forward $37 $-1 #
edge $-1 $111 -44.179419055922615 $172 -36.326701580143684 $60 $173 forward 7 unknown #
coedge $-1 $62 $61 $174 $175 forward $24 $-1 #
coedge $-1 $176 $177 $61 $108 forward $178 $-1 #
edge $-1 $179 36.326701580143684 $112 44.179419055922615 $107 $180 forward 7 unknown #
coedge $-1 $166 $63 $104 $171 reversed $100 $-1 #
coedge $-1 $63 $166 $176 $181 reversed $100 $-1 #
vertex $-1 $105 $182 #
vertex $-1 $181 $183 #
straight-curve $-1 -44.179419055922615 -30.435023299653029 0 0 0 1 I I #
face $-1 $-1 $126 $14 $-1 $184 forward single #
loop $-1 $-1 $185 $65 #
plane-surface $-1 -64.563737907040618 0 0 1 0 0 0 0 -1 forward_v I I I I #
coedge $-1 $186 $187 $188 $189 reversed $66 $-1 #
coedge $-1 $190 $68 $70 $124 forward $41 $-1 #
coedge $-1 $68 $190 $186 $191 forward $41 $-1 #
coedge $-1 $188 $71 $68 $121 forward $126 $-1 #
edge $-1 $128 -6.0797941457013707 $192 3.5557421335011483 $120 $193 forward 7 unknown #
coedge $-1 $194 $195 $69 $123 forward $115 $-1 #
edge $-1 $196 -50.454465224937614 $127 -37.180855360295496 $122 $197 forward 7 unknown #
edge $-1 $128 -21.559916009302519 $196 -1.8033521786330445e-014 $70 $198 forward 7 unknown #
coedge $-1 $71 $188 $194 $199 forward $126 $-1 #
loop $-1 $-1 $188 $114 #
vertex $-1 $123 $200 #
vertex $-1 $72 $201 #
straight-curve $-1 -72.031275584385384 -7.3418201518014818 14.118518163448464 1 0 0 I I #
coedge $-1 $130 $130 $-1 $202 reversed $75 $-1 #
edge $-1 $203 0 $203 6.2831853071796004 $76 $204 forward 7 unknown #
vertex $-1 $79 $205 #
ellipse-curve $-1 -56.069015140972063 -2.5240520122002224 7.4817132311274035 -0.61566148304635926 0 0.78801074757464917 1.1820161213619738 0 0.92349222456953894 1 I I #
face $-1 $-1 $95 $12 $-1 $206 reversed single #
loop $-1 $-1 $150 $80 #
plane-surface $-1 0 30.435023299653029 0 0 -1 0 0 0 -1 forward_v I I I I #
coedge $-1 $207 $148 $151 $208 forward $81 $-1 #
coedge $-1 $154 $83 $84 $142 reversed $50 $-1 #
coedge $-1 $148 $207 $83 $140 reversed $81 $-1 #
edge $-1 $155 -14.118518163448467 $209 14.118518163448467 $139 $210 forward 7 unknown #
coedge $-1 $85 $84 $207 $211 forward $33 $-1 #
edge $-1 $146 -64.563737907040618 $209 64.563737907040618 $138 $212 forward 7 unknown #
coedge $-1 $151 $150 $85 $144 reversed $135 $-1 #
edge $-1 $213 -64.563737907040618 $145 64.563737907040618 $143 $214 forward 7 unknown #
vertex $-1 $87 $215 #
vertex $-1 $157 $216 #
straight-curve $-1 64.563737907040618 0 -14.118518163448467 0 -1 0 I I #
coedge $-1 $137 $139 $88 $149 reversed $81 $-1 #
edge $-1 $152 -30.435023299653029 $155 30.435023299653029 $148 $217 forward 7 unknown #
coedge $-1 $143 $89 $94 $158 forward $135 $-1 #
coedge $-1 $89 $143 $137 $208 reversed $135 $-1 #
vertex $-1 $90 $218 #
straight-curve $-1 0 30.435023299653029 14.118518163448467 -1 0 0 I I #
coedge $-1 $91 $138 $93 $157 reversed $50 $-1 #
vertex $-1 $149 $219 #
straight-curve $-1 0 -30.435023299653029 14.118518163448467 1 0 0 I I #
edge $-1 $96 -14.118518163448467 $146 14.118518163448467 $93 $220 forward 7 unknown #
edge $-1 $97 -14.118518163448467 $145 14.118518163448467 $94 $221 forward 7 unknown #
point $-1 64.563737907040618 -30.435023299653029 14.118518163448467 #
point $-1 64.563737907040618 30.435023299653029 14.118518163448467 #
face $-1 $-1 $178 $13 $-1 $222 forward single #
loop $-1 $-1 $223 $99 #
plane-surface $-1 -36.326701580143684 -39.456923155159046 0 -1 0 0 0 0 1 forward_v I I I I #
coedge $-1 $224 $102 $168 $225 reversed $58 $-1 #
coedge $-1 $102 $224 $226 $227 reversed $58 $-1 #
coedge $-1 $110 $109 $102 $167 reversed $100 $-1 #
edge $-1 $228 -14.118518163448467 $229 14.118518163448467 $166 $230 forward 7 unknown #
coedge $-1 $104 $103 $164 $225 forward $37 $-1 #
coedge $-1 $174 $223 $103 $170 reversed $162 $-1 #
edge $-1 $172 -9.021899855506021 $231 9.021899855506021 $169 $232 forward 7 unknown #
edge $-1 $229 -9.021899855506021 $111 9.021899855506021 $109 $233 forward 7 unknown #
vertex $-1 $170 $234 #
straight-curve $-1 0 -30.435023299653029 -14.118518163448467 1 0 0 I I #
coedge $-1 $235 $169 $106 $175 reversed $162 $-1 #
edge $-1 $179 -14.118518163448467 $172 14.118518163448467 $174 $236 forward 7 unknown #
coedge $-1 $226 $107 $110 $181 forward $178 $-1 #
coedge $-1 $107 $226 $235 $237 forward $178 $-1 #
loop $-1 $-1 $107 $161 #
vertex $-1 $108 $238 #
straight-curve $-1 0 -30.435023299653029 14.118518163448467 -1 0 0 I I #
edge $-1 $112 -9.021899855506021 $228 9.021899855506021 $110 $239 forward 7 unknown #
point $-1 -44.179419055922615 -30.435023299653025 -14.118518163448467 #
point $-1 -44.179419055922615 -30.435023299653025 14.118518163448467 #
plane-surface $-1 0 0 14.118518163448467 0 0 1 1 0 0 forward_v I I I I #
coedge $-1 $195 $194 $187 $240 forward $115 $-1 #
coedge $-1 $187 $117 $119 $191 reversed $66 $-1 #
coedge $-1 $117 $186 $185 $240 reversed $66 $-1 #
coedge $-1 $125 $120 $117 $189 forward $126 $-1 #
edge $-1 $192 -24.456983209481876 $241 -7.4675376773447653 $188 $242 forward 7 unknown #
coedge $-1 $119 $118 $195 $243 reversed $41 $-1 #
edge $-1 $244 1.8033521786330445e-014 $192 21.559916009302519 $186 $245 forward 7 unknown #
vertex $-1 $121 $246 #
straight-curve $-1 -47.574292374903507 -1.2620260061001112 14.118518163448467 0 1 0 I I #
coedge $-1 $185 $122 $125 $199 reversed $115 $-1 #
coedge $-1 $122 $185 $190 $243 forward $115 $-1 #
vertex $-1 $123 $247 #
straight-curve $-1 -64.563737907040618 -7.3418201518014818 51.299373523743959 0 0 1 I I #
straight-curve $-1 -64.563737907040633 -7.3418201518014818 0.844908298806331 -0.78801074757464917 0 -0.61566148304635926 I I #
edge $-1 $241 -2.2937161274010371 $127 7.3418201518014818 $194 $248 forward 7 unknown #
point $-1 -64.563737907040618 -7.3418201518014818 14.118518163448467 #
point $-1 -47.574292374903507 -7.3418201518014818 14.118518163448467 #
edge $-1 $249 1 $249 0 $130 $-1 forward 7 unknown #
vertex $-1 $131 $250 #
ellipse-curve $-1 -53.216665091233452 -2.5240520122002224 3.8308717266088257 -0.61566148304635926 0 0.78801074757464917 1.1820161213619738 0 0.92349222456953894 1 I I #
point $-1 -54.88699901961008 -2.5240520122002224 8.4052054556969331 #
plane-surface $-1 64.563737907040618 0 0 -1 0 0 0 0 1 forward_v I I I I #
coedge $-1 $139 $137 $141 $211 reversed $81 $-1 #
edge $-1 $152 -14.118518163448467 $213 14.118518163448467 $151 $251 forward 7 unknown #
vertex $-1 $211 $252 #
straight-curve $-1 -64.563737907040618 -30.435023299653029 0 0 0 -1 I I #
edge $-1 $209 -30.435023299653029 $213 30.435023299653029 $207 $253 forward 7 unknown #
straight-curve $-1 0 -30.435023299653029 -14.118518163448467 -1 0 0 I I #
vertex $-1 $144 $254 #
straight-curve $-1 0 30.435023299653029 -14.118518163448467 1 0 0 I I #
point $-1 64.563737907040618 30.435023299653029 -14.118518163448467 #
point $-1 64.563737907040618 -30.435023299653029 -14.118518163448467 #
straight-curve $-1 -64.563737907040618 0 14.118518163448467 0 -1 0 I I #
point $-1 -64.563737907040618 30.435023299653029 14.118518163448467 #
point $-1 -64.563737907040618 -30.435023299653029 14.118518163448467 #
straight-curve $-1 64.563737907040618 -30.435023299653029 0 0 0 -1 I I #
straight-curve $-1 64.563737907040618 30.435023299653029 0 0 0 -1 I I #
plane-surface $-1 0 0 14.118518163448467 0 0 1 1 0 0 forward_v I I I I #
coedge $-1 $169 $235 $224 $255 forward $162 $-1 #
coedge $-1 $165 $164 $223 $255 reversed $58 $-1 #
edge $-1 $231 -3.9263587378894655 $229 3.9263587378894655 $164 $256 forward 7 unknown #
coedge $-1 $177 $176 $165 $227 forward $178 $-1 #
edge $-1 $228 -3.9263587378894655 $257 3.9263587378894655 $165 $258 forward 7 unknown #
vertex $-1 $181 $259 #
vertex $-1 $171 $260 #
straight-curve $-1 -44.179419055922615 -48.478823010665067 0 0 0 -1 I I #
vertex $-1 $255 $261 #
straight-curve $-1 -36.326701580143684 -39.456923155159046 -14.118518163448467 0 -1 0 I I #
straight-curve $-1 -44.179419055922615 -39.456923155159046 -14.118518163448467 0 1 0 I I #
point $-1 -36.326701580143684 -30.435023299653025 -14.118518163448467 #
coedge $-1 $223 $174 $177 $237 reversed $162 $-1 #
straight-curve $-1 -36.326701580143684 -30.435023299653029 0 0 0 -1 I I #
edge $-1 $257 -9.021899855506021 $179 9.021899855506021 $235 $262 forward 7 unknown #
point $-1 -36.326701580143684 -30.435023299653025 14.118518163448467 #
straight-curve $-1 -44.179419055922615 -39.456923155159046 14.118518163448467 0 -1 0 I I #
edge $-1 $241 37.180855360295496 $244 50.454465224937614 $185 $263 forward 7 unknown #
vertex $-1 $199 $264 #
straight-curve $-1 -72.031275584385384 2.2937161274010371 14.118518163448464 -1 0 0 I I #
edge $-1 $244 -3.5557421335011483 $196 6.0797941457013707 $195 $265 forward 7 unknown #
vertex $-1 $243 $266 #
straight-curve $-1 -64.563737907040633 2.2937161274010371 0.844908298806331 0.78801074757464917 0 0.61566148304635926 I I #
point $-1 -47.574292374903507 2.2937161274010371 14.118518163448467 #
point $-1 -64.563737907040618 -7.3418201518014818 0.84490829880634211 #
straight-curve $-1 -64.563737907040618 0 14.118518163448467 0 -1 0 I I #
vertex $-1 $202 $267 #
point $-1 -52.034648969871476 -2.5240520122002224 4.7543639511783642 #
straight-curve $-1 -64.563737907040618 30.435023299653029 0 0 0 -1 I I #
point $-1 -64.563737907040618 -30.435023299653029 -14.118518163448467 #
straight-curve $-1 -64.563737907040618 0 -14.118518163448467 0 1 0 I I #
point $-1 -64.563737907040618 30.435023299653029 -14.118518163448467 #
edge $-1 $257 -14.118518163448467 $231 14.118518163448467 $223 $268 forward 7 unknown #
straight-curve $-1 -40.25306031803315 -48.478823010665067 -14.118518163448467 -1 0 0 I I #
vertex $-1 $237 $269 #
straight-curve $-1 -40.25306031803315 -48.478823010665067 14.118518163448467 1 0 0 I I #
point $-1 -44.179419055922615 -48.478823010665067 14.118518163448467 #
point $-1 -44.179419055922615 -48.478823010665067 -14.118518163448467 #
point $-1 -36.326701580143684 -48.478823010665067 -14.118518163448467 #
straight-curve $-1 -36.326701580143684 -39.456923155159046 14.118518163448467 0 1 0 I I #
straight-curve $-1 -64.563737907040618 2.2937161274010371 51.299373523743959 0 0 -1 I I #
point $-1 -64.563737907040618 2.2937161274010371 14.118518163448467 #
straight-curve $-1 -64.563737907040618 -1.2620260061001112 0.8449082988063451 0 -1 0 I I #
point $-1 -64.563737907040618 2.2937161274010371 0.84490829880634211 #
point $-1 -52.293172866663909 -2.5240520122002224 2.6488556052468519 #
straight-curve $-1 -36.326701580143684 -48.478823010665067 0 0 0 -1 I I #
point $-1 -36.326701580143684 -48.478823010665067 14.118518163448467 #
End-of-ACIS-data 