500 0 5 0           
7 Unknown 11 ACIS 5.0 NT 24 Thu Mar 25 18:59:37 1999 
-1 9.9999999999999995e-007 1e-010 
body $-1 $5 $-1 $6 #
body $-1 $7 $-1 $8 #
body $-1 $9 $-1 $10 #
body $-1 $11 $-1 $12 #
body $-1 $13 $-1 $14 #
lump $-1 $-1 $15 $0 #
transform $-1 1 0 0 0 1 0 0 0 1 72.804956205938907 47.60929099739112 13.386017549054374 1 rotate no_reflect no_shear #
lump $-1 $-1 $16 $1 #
transform $-1 1 0 0 0 1 0 0 0 1 72.804956205938907 47.60929099739112 13.386017549054374 1 rotate no_reflect no_shear #
lump $-1 $-1 $17 $2 #
transform $-1 1 0 0 0 1 0 0 0 1 72.804956205938907 47.60929099739112 13.386017549054374 1 rotate no_reflect no_shear #
lump $-1 $-1 $18 $3 #
transform $-1 1 0 0 0 1 0 0 0 1 72.804956205938907 47.60929099739112 13.386017549054374 1 rotate no_reflect no_shear #
lump $-1 $-1 $19 $4 #
transform $-1 1 0 0 0 1 0 0 0 1 72.804956205938907 47.60929099739112 13.386017549054374 1 rotate no_reflect no_shear #
shell $-1 $-1 $-1 $20 $-1 $5 #
shell $-1 $-1 $-1 $21 $-1 $7 #
shell $-1 $-1 $-1 $22 $-1 $9 #
shell $-1 $-1 $-1 $23 $-1 $11 #
shell $-1 $-1 $-1 $24 $-1 $13 #
face $-1 $25 $26 $15 $-1 $27 forward single #
face $-1 $28 $29 $16 $-1 $30 reversed single #
face $-1 $31 $32 $17 $-1 $33 forward single #
face $-1 $34 $35 $18 $-1 $36 reversed single #
face $-1 $37 $38 $19 $-1 $39 reversed single #
face $-1 $40 $41 $15 $-1 $42 reversed single #
loop $-1 $-1 $43 $20 #
plane-surface $-1 0 0 13.386017549054374 0 0 1 1 0 0 forward_v I I I I #
face $-1 $44 $45 $16 $-1 $46 reversed single #
loop $-1 $-1 $47 $21 #
plane-surface $-1 -77.965156283129403 -45.30336651931313 0 0 1 0 0 0 1 forward_v I I I I #
face $-1 $48 $49 $17 $-1 $50 forward single #
loop $-1 $-1 $51 $22 #
plane-surface $-1 58.440460253184114 22.818518425727966 207.5582430962462 0 1 0 0.6560590369687036 0 0.75470957328743171 forward_v I I I I #
face $-1 $52 $53 $18 $-1 $54 reversed single #
loop $-1 $55 $56 $23 #
cone-surface $-1 64.73534741464421 29.901596303346004 5.9217703099320946 -0.6560590369687036 0 -0.75470957328743171 1.8867739332185793 0 -1.640147592421759 1 I I 0 1 2.5 forward I I I I #
face $-1 $57 $58 $19 $-1 $59 reversed single #
loop $-1 $60 $61 $24 #
cone-surface $-1 64.73534741464421 40.526213119773068 5.9217703099320946 -0.6560590369687036 0 -0.75470957328743171 1.8867739332185793 0 -1.640147592421759 1 I I 0 1 2.5 forward I I I I #
face $-1 $62 $63 $15 $-1 $64 reversed single #
loop $-1 $-1 $65 $25 #
plane-surface $-1 0 0 -13.386017549054374 0 0 1 1 0 0 forward_v I I I I #
coedge $-1 $66 $67 $68 $69 forward $26 $-1 #
face $-1 $70 $71 $16 $-1 $72 reversed single #
loop $-1 $-1 $73 $28 #
plane-surface $-1 -83.125356360319898 -41.994466518029043 0 1 0 0 0 0 -1 forward_v I I I I #
coedge $-1 $74 $75 $76 $77 forward $29 $-1 #
face $-1 $78 $79 $17 $-1 $80 reversed single #
loop $-1 $-1 $81 $31 #
plane-surface $-1 -37.088238656849725 35.213904711559543 97.665048233457583 0.6560590369687036 0 0.75470957328743171 0.75470957328743171 0 -0.6560590369687036 forward_v I I I I #
coedge $-1 $82 $83 $84 $85 reversed $32 $-1 #
face $-1 $86 $87 $18 $-1 $88 forward single #
loop $-1 $89 $90 $34 #
cone-surface $-1 62.316296148231089 29.901596303346004 3.1389702170158227 -0.6560590369687036 0 -0.75470957328743171 0.94338696660928967 0 -0.8200737962108795 1 I I -0.70710678118654746 0.70710678118654746 1.25 forward I I I I #
loop $-1 $-1 $91 $23 #
coedge $-1 $56 $56 $92 $93 reversed $35 $-1 #
face $-1 $94 $95 $19 $-1 $96 reversed single #
loop $-1 $97 $98 $37 #
cone-surface $-1 62.316296148231089 40.526213119773068 3.1389702170158227 -0.6560590369687036 0 -0.75470957328743171 0.94338696660928967 0 -0.8200737962108795 1 I I -0.70710678118654746 0.70710678118654746 1.25 forward I I I I #
loop $-1 $-1 $99 $24 #
coedge $-1 $61 $61 $100 $101 reversed $38 $-1 #
face $-1 $102 $103 $15 $-1 $104 reversed single #
loop $-1 $-1 $105 $40 #
plane-surface $-1 0 -47.60929099739112 0 0 1 0 0 0 1 forward_v I I I I #
coedge $-1 $106 $107 $108 $109 forward $41 $-1 #
coedge $-1 $110 $43 $111 $112 forward $26 $-1 #
coedge $-1 $43 $110 $113 $114 forward $26 $-1 #
coedge $-1 $115 $116 $43 $69 reversed $117 $-1 #
edge $-1 $118 -47.60929099739112 $119 47.60929099739112 $68 $120 forward 7 unknown #
face $-1 $121 $122 $16 $-1 $123 reversed single #
loop $-1 $-1 $124 $44 #
plane-surface $-1 -77.965156283129403 -38.685566516744956 0 0 -1 0 0 0 -1 forward_v I I I I #
coedge $-1 $125 $126 $127 $128 forward $45 $-1 #
coedge $-1 $129 $47 $130 $131 reversed $29 $-1 #
coedge $-1 $47 $129 $132 $133 reversed $29 $-1 #
coedge $-1 $126 $125 $47 $77 reversed $45 $-1 #
edge $-1 $134 -13.386017549054374 $135 13.386017549054374 $76 $136 forward 7 unknown #
face $-1 $137 $138 $17 $-1 $139 forward single #
loop $-1 $-1 $140 $48 #
plane-surface $-1 72.804956205938907 0 0 -1 0 0 0 0 1 forward_v I I I I #
coedge $-1 $141 $142 $140 $143 reversed $49 $-1 #
coedge $-1 $83 $51 $142 $144 forward $32 $-1 #
coedge $-1 $51 $82 $145 $146 reversed $32 $-1 #
coedge $-1 $147 $140 $51 $85 forward $79 $-1 #
edge $-1 $148 -101.64277222469937 $149 -90.393103999068728 $84 $150 forward 7 unknown #
face $-1 $151 $152 $18 $-1 $153 forward single #
loop $-1 $-1 $154 $52 #
plane-surface $-1 58.440460253184114 22.818518425727966 207.5582430962462 0 1 0 0.6560590369687036 0 0.75470957328743171 forward_v I I I I #
loop $-1 $-1 $155 $34 #
coedge $-1 $90 $90 $91 $156 forward $53 $-1 #
coedge $-1 $91 $91 $90 $156 reversed $55 $-1 #
coedge $-1 $92 $92 $56 $93 forward $152 $-1 #
edge $-1 $157 0 $157 6.2831853071796004 $92 $158 forward 7 unknown #
face $-1 $159 $160 $19 $-1 $161 reversed single #
loop $-1 $162 $163 $57 #
cone-surface $-1 64.73534741464421 29.901596303346004 5.9217703099320946 -0.6560590369687036 0 -0.75470957328743171 1.8867739332185793 0 -1.640147592421759 1 I I 0 1 2.5 forward I I I I #
loop $-1 $-1 $164 $37 #
coedge $-1 $98 $98 $99 $165 forward $58 $-1 #
coedge $-1 $99 $99 $98 $165 reversed $60 $-1 #
coedge $-1 $100 $100 $61 $101 forward $166 $-1 #
edge $-1 $167 0 $167 6.2831853071796004 $100 $168 forward 7 unknown #
face $-1 $169 $170 $15 $-1 $171 reversed single #
loop $-1 $-1 $172 $62 #
plane-surface $-1 -72.804956205938907 0 0 1 0 0 0 0 -1 forward_v I I I I #
coedge $-1 $173 $113 $174 $175 forward $63 $-1 #
coedge $-1 $176 $65 $173 $177 forward $41 $-1 #
coedge $-1 $65 $176 $178 $179 forward $41 $-1 #
coedge $-1 $116 $115 $65 $109 reversed $117 $-1 #
edge $-1 $180 -47.60929099739112 $181 47.60929099739112 $108 $182 forward 7 unknown #
coedge $-1 $67 $66 $183 $184 forward $26 $-1 #
coedge $-1 $185 $186 $66 $112 reversed $170 $-1 #
edge $-1 $119 -72.804956205938907 $187 72.804956205938907 $111 $188 forward 7 unknown #
coedge $-1 $105 $189 $67 $114 reversed $63 $-1 #
edge $-1 $190 -72.804956205938907 $118 72.804956205938907 $113 $191 forward 7 unknown #
coedge $-1 $108 $68 $189 $192 forward $117 $-1 #
coedge $-1 $68 $108 $185 $193 reversed $117 $-1 #
loop $-1 $-1 $115 $169 #
vertex $-1 $69 $194 #
vertex $-1 $69 $195 #
straight-curve $-1 72.804956205938907 0 13.386017549054374 0 1 0 I I #
face $-1 $196 $197 $16 $-1 $123 reversed single #
loop $-1 $-1 $198 $70 #
plane-surface $-1 -72.804956205938907 0 0 1 0 0 0 0 -1 forward_v I I I I #
coedge $-1 $199 $200 $198 $201 reversed $71 $-1 #
coedge $-1 $76 $73 $202 $203 reversed $45 $-1 #
coedge $-1 $73 $76 $204 $205 reversed $45 $-1 #
coedge $-1 $200 $199 $73 $128 reversed $71 $-1 #
edge $-1 $206 -13.386017549054374 $207 13.386017549054374 $127 $208 forward 7 unknown #
coedge $-1 $75 $74 $209 $210 reversed $29 $-1 #
coedge $-1 $202 $211 $74 $131 forward $212 $-1 #
edge $-1 $213 -5.1602000771904954 $135 5.1602000771904954 $74 $214 forward 7 unknown #
coedge $-1 $215 $204 $75 $133 forward $216 $-1 #
edge $-1 $134 -5.1602000771904954 $217 5.1602000771904954 $75 $218 forward 7 unknown #
vertex $-1 $205 $219 #
vertex $-1 $203 $220 #
straight-curve $-1 -83.125356360319898 -45.30336651931313 0 0 0 -1 I I #
face $-1 $221 $222 $17 $-1 $223 reversed single #
loop $-1 $-1 $145 $78 #
plane-surface $-1 0 0 13.386017549054374 0 0 1 1 0 0 forward_v I I I I #
coedge $-1 $84 $224 $81 $143 forward $79 $-1 #
coedge $-1 $225 $81 $226 $227 reversed $49 $-1 #
coedge $-1 $81 $225 $82 $144 reversed $49 $-1 #
edge $-1 $228 -30.002338641611349 $148 -5.2115660699481943 $140 $229 forward 7 unknown #
edge $-1 $148 -145.60991241187784 $230 -128.46257110306922 $82 $231 forward 7 unknown #
coedge $-1 $232 $233 $83 $146 forward $138 $-1 #
edge $-1 $149 -43.584726079346851 $230 -30.643463437161941 $145 $234 forward 7 unknown #
coedge $-1 $235 $84 $233 $236 reversed $79 $-1 #
vertex $-1 $143 $237 #
vertex $-1 $146 $238 #
straight-curve $-1 72.804956205938907 22.818518425727966 103.7791215481231 0 0 1 I I #
face $-1 $239 $240 $18 $-1 $241 reversed single #
loop $-1 $242 $92 $86 #
plane-surface $-1 -37.088238656849725 35.213904711559543 97.665048233457583 0.6560590369687036 0 0.75470957328743171 0.75470957328743171 0 -0.6560590369687036 forward_v I I I I #
coedge $-1 $243 $244 $245 $246 reversed $87 $-1 #
coedge $-1 $155 $155 $-1 $247 forward $89 $-1 #
edge $-1 $248 0 $248 6.2831853071796004 $90 $249 forward 7 unknown #
vertex $-1 $93 $250 #
ellipse-curve $-1 66.334324884846438 29.901596303346004 7.7611834362390626 -0.6560590369687036 0 -0.75470957328743171 1.8867739332185793 0 -1.640147592421759 1 I I #
face $-1 $251 $252 $19 $-1 $253 forward single #
loop $-1 $254 $255 $94 #
cone-surface $-1 62.316296148231089 29.901596303346004 3.1389702170158227 -0.6560590369687036 0 -0.75470957328743171 0.94338696660928967 0 -0.8200737962108795 1 I I -0.70710678118654746 0.70710678118654746 1.25 forward I I I I #
loop $-1 $-1 $256 $57 #
coedge $-1 $163 $163 $257 $258 reversed $95 $-1 #
coedge $-1 $164 $164 $-1 $259 forward $97 $-1 #
edge $-1 $260 0 $260 6.2831853071796004 $98 $261 forward 7 unknown #
loop $-1 $262 $100 $251 #
vertex $-1 $101 $263 #
ellipse-curve $-1 66.334324884846438 40.526213119773068 7.7611834362390626 -0.6560590369687036 0 -0.75470957328743171 1.8867739332185793 0 -1.640147592421759 1 I I #
face $-1 $-1 $117 $15 $-1 $264 reversed single #
loop $-1 $-1 $185 $102 #
plane-surface $-1 0 47.60929099739112 0 0 -1 0 0 0 -1 forward_v I I I I #
coedge $-1 $265 $183 $186 $266 forward $103 $-1 #
coedge $-1 $189 $105 $106 $177 reversed $63 $-1 #
coedge $-1 $183 $265 $105 $175 reversed $103 $-1 #
edge $-1 $190 -13.386017549054374 $267 13.386017549054374 $174 $268 forward 7 unknown #
coedge $-1 $107 $106 $265 $269 forward $41 $-1 #
edge $-1 $181 -72.804956205938907 $267 72.804956205938907 $173 $270 forward 7 unknown #
coedge $-1 $186 $185 $107 $179 reversed $170 $-1 #
edge $-1 $271 -72.804956205938907 $180 72.804956205938907 $178 $272 forward 7 unknown #
vertex $-1 $109 $273 #
vertex $-1 $192 $274 #
straight-curve $-1 72.804956205938907 0 -13.386017549054374 0 -1 0 I I #
coedge $-1 $172 $174 $110 $184 reversed $103 $-1 #
edge $-1 $187 -47.60929099739112 $190 47.60929099739112 $183 $275 forward 7 unknown #
coedge $-1 $178 $111 $116 $193 forward $170 $-1 #
coedge $-1 $111 $178 $172 $266 reversed $170 $-1 #
vertex $-1 $112 $276 #
straight-curve $-1 0 47.60929099739112 13.386017549054374 -1 0 0 I I #
coedge $-1 $113 $173 $115 $192 reversed $63 $-1 #
vertex $-1 $184 $277 #
straight-curve $-1 0 -47.60929099739112 13.386017549054374 1 0 0 I I #
edge $-1 $118 -13.386017549054374 $181 13.386017549054374 $115 $278 forward 7 unknown #
edge $-1 $119 -13.386017549054374 $180 13.386017549054374 $116 $279 forward 7 unknown #
point $-1 72.804956205938907 -47.60929099739112 13.386017549054374 #
point $-1 72.804956205938907 47.60929099739112 13.386017549054374 #
face $-1 $280 $216 $16 $-1 $281 forward single #
loop $-1 $-1 $209 $121 #
coedge $-1 $282 $283 $124 $201 forward $122 $-1 #
coedge $-1 $127 $124 $284 $285 reversed $71 $-1 #
coedge $-1 $124 $127 $286 $287 reversed $71 $-1 #
edge $-1 $288 -13.386017549054374 $289 13.386017549054374 $198 $290 forward 7 unknown #
coedge $-1 $284 $130 $125 $203 forward $212 $-1 #
edge $-1 $135 -3.308900001284087 $207 3.308900001284087 $125 $291 forward 7 unknown #
coedge $-1 $132 $286 $126 $205 forward $216 $-1 #
edge $-1 $206 -3.308900001284087 $134 3.308900001284087 $126 $292 forward 7 unknown #
vertex $-1 $287 $293 #
vertex $-1 $285 $294 #
straight-curve $-1 -83.125356360319898 -38.685566516744956 0 0 0 -1 I I #
coedge $-1 $295 $296 $129 $210 forward $197 $-1 #
edge $-1 $217 -13.386017549054374 $213 13.386017549054374 $209 $297 forward 7 unknown #
coedge $-1 $130 $298 $295 $299 forward $212 $-1 #
loop $-1 $-1 $300 $280 #
vertex $-1 $131 $301 #
straight-curve $-1 -77.965156283129403 -45.30336651931313 -13.386017549054374 -1 0 0 I I #
coedge $-1 $302 $132 $296 $303 forward $216 $-1 #
loop $-1 $-1 $304 $196 #
vertex $-1 $303 $305 #
straight-curve $-1 -77.965156283129403 -45.30336651931313 13.386017549054374 1 0 0 I I #
point $-1 -83.125356360319898 -45.30336651931313 13.386017549054374 #
point $-1 -83.125356360319898 -45.30336651931313 -13.386017549054374 #
face $-1 $306 $307 $17 $-1 $308 reversed single #
loop $-1 $-1 $309 $137 #
plane-surface $-1 -77.965156283129403 -45.30336651931313 0 0 1 0 0 0 1 forward_v I I I I #
coedge $-1 $140 $310 $311 $312 reversed $79 $-1 #
coedge $-1 $142 $141 $232 $313 reversed $49 $-1 #
coedge $-1 $311 $314 $141 $227 forward $315 $-1 #
edge $-1 $316 82.430127972950402 $228 99.577469281759022 $226 $317 forward 7 unknown #
vertex $-1 $312 $318 #
straight-curve $-1 72.804956205938907 17.606952355779772 2.1363493234237154 0 -1 0 I I #
vertex $-1 $313 $319 #
straight-curve $-1 -37.088238656849725 22.818518425727966 97.665048233457583 -0.75470957328743171 0 0.6560590369687036 I I #
coedge $-1 $320 $145 $225 $313 forward $138 $-1 #
coedge $-1 $145 $321 $147 $236 forward $138 $-1 #
straight-curve $-1 29.220230126592057 22.818518425727966 13.386017549054372 -1 0 0 I I #
coedge $-1 $310 $147 $322 $323 forward $79 $-1 #
edge $-1 $324 -47.60929099739112 $149 22.818518425727966 $147 $325 forward 7 unknown #
point $-1 72.804956205938907 22.818518425727966 2.1363493234237296 #
point $-1 72.804956205938907 22.818518425727966 13.386017549054374 #
face $-1 $326 $327 $18 $-1 $328 forward single #
loop $-1 $-1 $329 $151 #
plane-surface $-1 72.804956205938907 0 0 -1 0 0 0 0 1 forward_v I I I I #
loop $-1 $-1 $330 $86 #
coedge $-1 $244 $154 $331 $332 forward $87 $-1 #
coedge $-1 $154 $243 $333 $334 reversed $87 $-1 #
coedge $-1 $335 $329 $154 $246 forward $240 $-1 #
edge $-1 $336 -101.64277222469937 $337 -90.393103999068728 $245 $338 forward 7 unknown #
edge $-1 $339 1 $339 0 $155 $-1 forward 7 unknown #
vertex $-1 $156 $340 #
ellipse-curve $-1 63.136369944441967 29.901596303346004 4.0823571836251125 0.6560590369687036 0 0.75470957328743171 1.8867739332185793 0 -1.640147592421759 1 I I #
point $-1 68.22109881806503 29.901596303346004 6.1210358438173191 #
face $-1 $341 $166 $19 $-1 $342 forward single #
loop $-1 $-1 $343 $159 #
plane-surface $-1 58.440460253184114 22.818518425727966 207.5582430962462 0 1 0 0.6560590369687036 0 0.75470957328743171 forward_v I I I I #
loop $-1 $-1 $344 $94 #
coedge $-1 $255 $255 $256 $345 forward $160 $-1 #
coedge $-1 $256 $256 $255 $345 reversed $162 $-1 #
coedge $-1 $257 $257 $163 $258 forward $262 $-1 #
edge $-1 $346 0 $346 6.2831853071796004 $257 $347 forward 7 unknown #
edge $-1 $348 1 $348 0 $164 $-1 forward 7 unknown #
vertex $-1 $165 $349 #
ellipse-curve $-1 63.136369944441967 40.526213119773068 4.0823571836251125 0.6560590369687036 0 0.75470957328743171 1.8867739332185793 0 -1.640147592421759 1 I I #
loop $-1 $350 $257 $251 #
point $-1 68.22109881806503 40.526213119773068 6.1210358438173191 #
plane-surface $-1 72.804956205938907 0 0 -1 0 0 0 0 1 forward_v I I I I #
coedge $-1 $174 $172 $176 $269 reversed $103 $-1 #
edge $-1 $187 -13.386017549054374 $271 13.386017549054374 $186 $351 forward 7 unknown #
vertex $-1 $269 $352 #
straight-curve $-1 -72.804956205938907 -47.60929099739112 0 0 0 -1 I I #
edge $-1 $267 -47.60929099739112 $271 47.60929099739112 $265 $353 forward 7 unknown #
straight-curve $-1 0 -47.60929099739112 -13.386017549054374 -1 0 0 I I #
vertex $-1 $179 $354 #
straight-curve $-1 0 47.60929099739112 -13.386017549054374 1 0 0 I I #
point $-1 72.804956205938907 47.60929099739112 -13.386017549054374 #
point $-1 72.804956205938907 -47.60929099739112 -13.386017549054374 #
straight-curve $-1 -72.804956205938907 0 13.386017549054374 0 -1 0 I I #
point $-1 -72.804956205938907 47.60929099739112 13.386017549054374 #
point $-1 -72.804956205938907 -47.60929099739112 13.386017549054374 #
straight-curve $-1 72.804956205938907 -47.60929099739112 0 0 0 -1 I I #
straight-curve $-1 72.804956205938907 47.60929099739112 0 0 0 -1 I I #
face $-1 $355 $212 $16 $-1 $356 reversed single #
plane-surface $-1 0 0 13.386017549054374 0 0 1 1 0 0 forward_v I I I I #
coedge $-1 $357 $198 $358 $359 reversed $122 $-1 #
coedge $-1 $198 $357 $360 $361 reversed $122 $-1 #
coedge $-1 $360 $202 $199 $285 forward $212 $-1 #
edge $-1 $207 -5.1602000771904954 $288 5.1602000771904954 $199 $362 forward 7 unknown #
coedge $-1 $204 $358 $200 $287 forward $216 $-1 #
edge $-1 $289 -5.1602000771904954 $206 5.1602000771904954 $200 $363 forward 7 unknown #
vertex $-1 $361 $364 #
vertex $-1 $287 $365 #
straight-curve $-1 -72.804956205938907 -38.685566516744956 0 0 0 1 I I #
straight-curve $-1 -83.125356360319898 -41.994466518029043 -13.386017549054374 0 1 0 I I #
straight-curve $-1 -83.125356360319898 -41.994466518029043 13.386017549054374 0 -1 0 I I #
point $-1 -83.125356360319898 -38.685566516744956 13.386017549054374 #
point $-1 -83.125356360319898 -38.685566516744956 -13.386017549054374 #
coedge $-1 $366 $209 $211 $299 reversed $197 $-1 #
coedge $-1 $209 $366 $215 $303 reversed $197 $-1 #
straight-curve $-1 -72.804956205938907 -45.30336651931313 0 0 0 -1 I I #
coedge $-1 $211 $300 $367 $368 forward $212 $-1 #
edge $-1 $369 -47.60929099739112 $213 -45.30336651931313 $295 $370 forward 7 unknown #
coedge $-1 $298 $371 $372 $373 forward $212 $-1 #
point $-1 -72.804956205938907 -45.30336651931313 -13.386017549054374 #
coedge $-1 $304 $215 $374 $375 forward $216 $-1 #
edge $-1 $217 45.30336651931313 $376 47.60929099739112 $296 $377 forward 7 unknown #
coedge $-1 $378 $302 $379 $380 forward $216 $-1 #
point $-1 -72.804956205938907 -45.30336651931313 13.386017549054374 #
face $-1 $381 $382 $17 $-1 $383 reversed single #
loop $-1 $-1 $384 $221 #
plane-surface $-1 -83.125356360319898 -41.994466518029043 0 1 0 0 0 0 -1 forward_v I I I I #
coedge $-1 $385 $386 $387 $388 forward $222 $-1 #
coedge $-1 $224 $235 $389 $390 reversed $79 $-1 #
coedge $-1 $391 $226 $224 $312 forward $315 $-1 #
edge $-1 $228 -2.136349323423715 $392 13.386017549054374 $224 $393 forward 7 unknown #
edge $-1 $230 5.2115660699481943 $316 30.002338641611349 $232 $394 forward 7 unknown #
coedge $-1 $226 $395 $320 $396 reversed $315 $-1 #
loop $-1 $-1 $226 $397 #
vertex $-1 $396 $398 #
straight-curve $-1 -2.3471131447397795 47.60929099739112 67.465047924195204 0.75470957328743171 0 -0.6560590369687036 I I #
point $-1 72.804956205938907 47.60929099739112 2.136349323423715 #
point $-1 59.863693563753998 22.818518425727966 13.386017549054372 #
coedge $-1 $399 $232 $314 $396 forward $138 $-1 #
coedge $-1 $233 $400 $401 $402 forward $138 $-1 #
coedge $-1 $401 $403 $235 $323 reversed $404 $-1 #
edge $-1 $324 -13.386017549054374 $405 13.386017549054374 $235 $406 forward 7 unknown #
vertex $-1 $236 $407 #
straight-curve $-1 72.804956205938907 0 13.386017549054374 0 1 0 I I #
face $-1 $408 $409 $18 $-1 $410 reversed single #
loop $-1 $-1 $333 $239 #
plane-surface $-1 0 0 13.386017549054374 0 0 1 1 0 0 forward_v I I I I #
coedge $-1 $245 $411 $330 $412 forward $240 $-1 #
coedge $-1 $413 $331 $329 $412 reversed $242 $-1 #
coedge $-1 $330 $414 $243 $332 reversed $242 $-1 #
edge $-1 $336 -145.60991241187784 $415 -128.46257110306922 $243 $416 forward 7 unknown #
coedge $-1 $417 $418 $244 $334 forward $327 $-1 #
edge $-1 $337 -43.584726079346851 $415 -30.643463437161941 $333 $419 forward 7 unknown #
coedge $-1 $420 $245 $418 $421 reversed $240 $-1 #
vertex $-1 $412 $422 #
vertex $-1 $334 $423 #
straight-curve $-1 72.804956205938907 22.818518425727966 103.7791215481231 0 0 1 I I #
vertex $-1 $247 $424 #
point $-1 65.023143877660544 29.901596303346004 2.4422095912033535 #
face $-1 $425 $426 $19 $-1 $427 reversed single #
plane-surface $-1 -37.088238656849725 35.213904711559543 97.665048233457583 0.6560590369687036 0 0.75470957328743171 0.75470957328743171 0 -0.6560590369687036 forward_v I I I I #
coedge $-1 $428 $429 $430 $431 reversed $252 $-1 #
coedge $-1 $344 $344 $-1 $432 forward $254 $-1 #
edge $-1 $433 0 $433 6.2831853071796004 $255 $434 forward 7 unknown #
vertex $-1 $258 $435 #
ellipse-curve $-1 66.334324884846438 29.901596303346004 7.7611834362390626 -0.6560590369687036 0 -0.75470957328743171 1.8867739332185793 0 -1.640147592421759 1 I I #
vertex $-1 $259 $436 #
point $-1 65.023143877660544 40.526213119773068 2.4422095912033535 #
loop $-1 $-1 $437 $251 #
straight-curve $-1 -72.804956205938907 47.60929099739112 0 0 0 -1 I I #
point $-1 -72.804956205938907 -47.60929099739112 -13.386017549054374 #
straight-curve $-1 -72.804956205938907 0 -13.386017549054374 0 1 0 I I #
point $-1 -72.804956205938907 47.60929099739112 -13.386017549054374 #
face $-1 $438 $439 $16 $-1 $440 reversed single #
plane-surface $-1 0 0 -13.386017549054374 0 0 1 1 0 0 forward_v I I I I #
coedge $-1 $283 $282 $441 $442 forward $122 $-1 #
coedge $-1 $286 $378 $282 $359 forward $216 $-1 #
edge $-1 $443 -47.60929099739112 $289 38.685566516744956 $282 $377 forward 7 unknown #
coedge $-1 $371 $284 $283 $361 forward $212 $-1 #
edge $-1 $288 -38.685566516744956 $444 47.60929099739112 $283 $370 forward 7 unknown #
straight-curve $-1 -77.965156283129403 -38.685566516744956 -13.386017549054374 1 0 0 I I #
straight-curve $-1 -77.965156283129403 -38.685566516744956 13.386017549054374 -1 0 0 I I #
point $-1 -72.804956205938907 -38.685566516744956 -13.386017549054374 #
point $-1 -72.804956205938907 -38.685566516744956 13.386017549054374 #
coedge $-1 $296 $295 $445 $446 reversed $197 $-1 #
coedge $-1 $447 $445 $298 $368 reversed $439 $-1 #
edge $-1 $448 -72.804956205938907 $369 72.804956205938907 $367 $449 forward 7 unknown #
vertex $-1 $299 $450 #
straight-curve $-1 -72.804956205938907 0 -13.386017549054374 0 1 0 I I #
coedge $-1 $300 $360 $451 $452 forward $212 $-1 #
coedge $-1 $453 $454 $300 $373 reversed $455 $-1 #
edge $-1 $456 -47.60929099739112 $448 47.60929099739112 $372 $457 forward 7 unknown #
coedge $-1 $445 $447 $302 $375 reversed $439 $-1 #
edge $-1 $376 -72.804956205938907 $458 72.804956205938907 $374 $459 forward 7 unknown #
vertex $-1 $303 $460 #
straight-curve $-1 -72.804956205938907 0 13.386017549054374 0 -1 0 I I #
coedge $-1 $358 $304 $461 $462 forward $216 $-1 #
coedge $-1 $454 $453 $304 $380 reversed $455 $-1 #
edge $-1 $458 -47.60929099739112 $463 47.60929099739112 $379 $464 forward 7 unknown #
face $-1 $465 $466 $17 $-1 $467 reversed single #
loop $-1 $-1 $468 $306 #
plane-surface $-1 -77.965156283129403 -38.685566516744956 0 0 -1 0 0 0 -1 forward_v I I I I #
coedge $-1 $469 $470 $471 $472 forward $307 $-1 #
coedge $-1 $473 $309 $474 $475 reversed $222 $-1 #
coedge $-1 $309 $473 $476 $477 reversed $222 $-1 #
coedge $-1 $470 $469 $309 $388 reversed $307 $-1 #
edge $-1 $478 -13.386017549054374 $479 13.386017549054374 $387 $480 forward 7 unknown #
coedge $-1 $481 $482 $310 $390 forward $483 $-1 #
edge $-1 $392 -47.60929099739112 $405 47.60929099739112 $310 $484 forward 7 unknown #
coedge $-1 $395 $311 $482 $485 reversed $315 $-1 #
vertex $-1 $390 $486 #
straight-curve $-1 72.804956205938907 47.60929099739112 0 0 0 -1 I I #
straight-curve $-1 59.863693563754005 17.606952355779772 13.386017549054387 0 1 0 I I #
coedge $-1 $314 $391 $487 $488 reversed $315 $-1 #
edge $-1 $316 -59.863693563753998 $489 72.804956205938907 $314 $490 forward 7 unknown #
face $-1 $-1 $315 $17 $-1 $491 reversed single #
point $-1 59.863693563753998 47.60929099739112 13.386017549054372 #
coedge $-1 $492 $320 $493 $494 forward $138 $-1 #
coedge $-1 $321 $476 $495 $496 forward $138 $-1 #
coedge $-1 $497 $322 $321 $402 reversed $404 $-1 #
edge $-1 $498 -72.804956205938907 $324 72.804956205938907 $401 $499 forward 7 unknown #
coedge $-1 $322 $497 $481 $500 reversed $404 $-1 #
loop $-1 $-1 $497 $501 #
vertex $-1 $323 $502 #
straight-curve $-1 72.804956205938907 -47.60929099739112 0 0 0 -1 I I #
point $-1 72.804956205938907 -47.60929099739112 13.386017549054374 #
face $-1 $503 $504 $18 $-1 $505 reversed single #
loop $-1 $-1 $506 $326 #
plane-surface $-1 -77.965156283129403 -45.30336651931313 0 0 1 0 0 0 1 forward_v I I I I #
coedge $-1 $329 $507 $508 $509 reversed $240 $-1 #
edge $-1 $510 -30.002338641611349 $336 -5.2115660699481943 $329 $511 forward 7 unknown #
coedge $-1 $414 $330 $512 $513 reversed $242 $-1 #
coedge $-1 $331 $413 $417 $514 reversed $242 $-1 #
vertex $-1 $514 $515 #
straight-curve $-1 -37.088238656849725 22.818518425727966 97.665048233457583 -0.75470957328743171 0 0.6560590369687036 I I #
coedge $-1 $516 $333 $414 $514 forward $327 $-1 #
coedge $-1 $333 $517 $335 $421 forward $327 $-1 #
straight-curve $-1 29.220230126592057 22.818518425727966 13.386017549054372 -1 0 0 I I #
coedge $-1 $507 $335 $518 $519 forward $240 $-1 #
edge $-1 $520 -47.60929099739112 $337 22.818518425727966 $335 $521 forward 7 unknown #
point $-1 72.804956205938907 22.818518425727966 2.1363493234237296 #
point $-1 72.804956205938907 22.818518425727966 13.386017549054374 #
point $-1 61.496222352020212 29.901596303346004 2.1955832504065329 #
face $-1 $522 $523 $19 $-1 $524 forward single #
loop $-1 $-1 $525 $341 #
plane-surface $-1 72.804956205938907 0 0 -1 0 0 0 0 1 forward_v I I I I #
coedge $-1 $429 $343 $526 $527 forward $252 $-1 #
coedge $-1 $343 $428 $528 $529 reversed $252 $-1 #
coedge $-1 $530 $525 $343 $431 forward $426 $-1 #
edge $-1 $531 -101.64277222469937 $532 -90.393103999068728 $430 $533 forward 7 unknown #
edge $-1 $534 1 $534 0 $344 $-1 forward 7 unknown #
vertex $-1 $345 $535 #
ellipse-curve $-1 63.136369944441967 29.901596303346004 4.0823571836251125 0.6560590369687036 0 0.75470957328743171 1.8867739332185793 0 -1.640147592421759 1 I I #
point $-1 68.22109881806503 29.901596303346004 6.1210358438173191 #
point $-1 61.496222352020212 40.526213119773068 2.1955832504065329 #
coedge $-1 $536 $526 $525 $537 reversed $350 $-1 #
face $-1 $538 $539 $16 $-1 $540 reversed single #
loop $-1 $-1 $445 $355 #
plane-surface $-1 0 -47.60929099739112 0 0 1 0 0 0 1 forward_v I I I I #
coedge $-1 $461 $451 $357 $442 reversed $539 $-1 #
edge $-1 $443 -13.386017549054374 $444 13.386017549054374 $441 $541 forward 7 unknown #
vertex $-1 $462 $542 #
vertex $-1 $452 $543 #
coedge $-1 $367 $374 $366 $446 forward $439 $-1 #
edge $-1 $376 -13.386017549054374 $369 13.386017549054374 $366 $544 forward 7 unknown #
coedge $-1 $374 $367 $454 $545 reversed $439 $-1 #
vertex $-1 $545 $546 #
straight-curve $-1 0 -47.60929099739112 -13.386017549054374 -1 0 0 I I #
point $-1 -72.804956205938907 -47.60929099739112 -13.386017549054374 #
coedge $-1 $441 $547 $371 $452 reversed $539 $-1 #
edge $-1 $444 -72.804956205938907 $456 72.804956205938907 $451 $548 forward 7 unknown #
coedge $-1 $379 $372 $547 $549 reversed $455 $-1 #
coedge $-1 $372 $379 $447 $545 forward $455 $-1 #
loop $-1 $-1 $454 $538 #
vertex $-1 $373 $550 #
straight-curve $-1 72.804956205938907 0 -13.386017549054374 0 -1 0 I I #
vertex $-1 $380 $551 #
straight-curve $-1 0 -47.60929099739112 13.386017549054374 1 0 0 I I #
point $-1 -72.804956205938907 -47.60929099739112 13.386017549054374 #
coedge $-1 $547 $441 $378 $462 reversed $539 $-1 #
edge $-1 $463 -72.804956205938907 $443 72.804956205938907 $461 $552 forward 7 unknown #
vertex $-1 $380 $553 #
straight-curve $-1 72.804956205938907 0 13.386017549054374 0 1 0 I I #
face $-1 $554 $555 $17 $-1 $467 reversed single #
loop $-1 $-1 $556 $381 #
plane-surface $-1 -72.804956205938907 0 0 1 0 0 0 0 -1 forward_v I I I I #
coedge $-1 $557 $558 $556 $559 reversed $382 $-1 #
coedge $-1 $387 $384 $560 $561 reversed $307 $-1 #
coedge $-1 $384 $387 $562 $563 reversed $307 $-1 #
coedge $-1 $558 $557 $384 $472 reversed $382 $-1 #
edge $-1 $564 -13.386017549054374 $565 13.386017549054374 $471 $566 forward 7 unknown #
coedge $-1 $386 $385 $567 $568 reversed $222 $-1 #
coedge $-1 $560 $569 $385 $475 forward $483 $-1 #
edge $-1 $570 -5.1602000771904954 $479 5.1602000771904954 $385 $571 forward 7 unknown #
coedge $-1 $400 $562 $386 $477 forward $138 $-1 #
edge $-1 $478 -5.1602000771904954 $572 5.1602000771904954 $386 $573 forward 7 unknown #
vertex $-1 $563 $574 #
vertex $-1 $561 $575 #
straight-curve $-1 -83.125356360319898 -45.30336651931313 0 0 0 -1 I I #
coedge $-1 $569 $389 $403 $500 forward $483 $-1 #
coedge $-1 $389 $576 $391 $485 forward $483 $-1 #
loop $-1 $-1 $389 $554 #
straight-curve $-1 72.804956205938907 0 -13.386017549054374 0 -1 0 I I #
edge $-1 $577 -72.804956205938907 $392 72.804956205938907 $391 $578 forward 7 unknown #
point $-1 72.804956205938907 47.60929099739112 -13.386017549054374 #
coedge $-1 $579 $493 $395 $488 forward $466 $-1 #
edge $-1 $489 -13.386017549054374 $577 13.386017549054374 $395 $580 forward 7 unknown #
vertex $-1 $396 $581 #
straight-curve $-1 0 47.60929099739112 13.386017549054374 -1 0 0 I I #
plane-surface $-1 0 47.60929099739112 0 0 -1 0 0 0 -1 forward_v I I I I #
coedge $-1 $562 $399 $558 $582 forward $138 $-1 #
coedge $-1 $487 $556 $399 $494 reversed $466 $-1 #
edge $-1 $489 -47.60929099739112 $583 38.685566516744956 $493 $584 forward 7 unknown #
coedge $-1 $567 $585 $400 $496 reversed $555 $-1 #
edge $-1 $572 45.30336651931313 $498 47.60929099739112 $495 $584 forward 7 unknown #
coedge $-1 $403 $401 $585 $586 forward $404 $-1 #
vertex $-1 $496 $587 #
straight-curve $-1 0 -47.60929099739112 13.386017549054374 1 0 0 I I #
edge $-1 $405 -72.804956205938907 $588 72.804956205938907 $403 $589 forward 7 unknown #
face $-1 $397 $404 $17 $-1 $590 reversed single #
point $-1 72.804956205938907 -47.60929099739112 -13.386017549054374 #
face $-1 $591 $592 $18 $-1 $593 reversed single #
loop $-1 $-1 $594 $408 #
plane-surface $-1 -83.125356360319898 -41.994466518029043 0 1 0 0 0 0 -1 forward_v I I I I #
coedge $-1 $595 $596 $597 $598 forward $409 $-1 #
coedge $-1 $411 $420 $599 $600 reversed $240 $-1 #
coedge $-1 $601 $512 $411 $509 forward $602 $-1 #
edge $-1 $510 -2.136349323423715 $603 13.386017549054374 $411 $604 forward 7 unknown #
vertex $-1 $509 $605 #
straight-curve $-1 72.804956205938907 17.606952355779772 2.1363493234237154 0 -1 0 I I #
coedge $-1 $508 $606 $413 $513 forward $602 $-1 #
edge $-1 $607 82.430127972950402 $510 99.577469281759022 $512 $608 forward 7 unknown #
edge $-1 $415 5.2115660699481943 $607 30.002338641611349 $417 $609 forward 7 unknown #
point $-1 59.863693563753998 22.818518425727966 13.386017549054372 #
coedge $-1 $610 $417 $606 $611 forward $327 $-1 #
coedge $-1 $418 $612 $613 $614 forward $327 $-1 #
coedge $-1 $613 $615 $420 $519 reversed $616 $-1 #
edge $-1 $520 -13.386017549054374 $617 13.386017549054374 $420 $618 forward 7 unknown #
vertex $-1 $421 $619 #
straight-curve $-1 72.804956205938907 0 13.386017549054374 0 1 0 I I #
face $-1 $620 $621 $19 $-1 $622 reversed single #
loop $-1 $-1 $528 $425 #
plane-surface $-1 0 0 13.386017549054374 0 0 1 1 0 0 forward_v I I I I #
coedge $-1 $430 $623 $437 $537 forward $426 $-1 #
coedge $-1 $437 $624 $428 $527 reversed $350 $-1 #
edge $-1 $531 -145.60991241187784 $625 -128.46257110306922 $428 $626 forward 7 unknown #
coedge $-1 $627 $628 $429 $529 forward $523 $-1 #
edge $-1 $532 -43.584726079346851 $625 -30.643463437161941 $528 $629 forward 7 unknown #
coedge $-1 $630 $430 $628 $631 reversed $426 $-1 #
vertex $-1 $537 $632 #
vertex $-1 $529 $633 #
straight-curve $-1 72.804956205938907 22.818518425727966 103.7791215481231 0 0 1 I I #
vertex $-1 $432 $634 #
point $-1 65.023143877660544 29.901596303346004 2.4422095912033535 #
coedge $-1 $624 $437 $635 $636 reversed $350 $-1 #
edge $-1 $637 -30.002338641611349 $531 -5.2115660699481943 $525 $638 forward 7 unknown #
face $-1 $-1 $455 $16 $-1 $639 reversed single #
loop $-1 $-1 $547 $438 #
plane-surface $-1 0 47.60929099739112 0 0 -1 0 0 0 -1 forward_v I I I I #
straight-curve $-1 -72.804956205938907 47.60929099739112 0 0 0 -1 I I #
point $-1 -72.804956205938907 47.60929099739112 13.386017549054374 #
point $-1 -72.804956205938907 47.60929099739112 -13.386017549054374 #
straight-curve $-1 -72.804956205938907 -47.60929099739112 0 0 0 -1 I I #
edge $-1 $458 -13.386017549054374 $448 13.386017549054374 $454 $640 forward 7 unknown #
point $-1 72.804956205938907 -47.60929099739112 -13.386017549054374 #
coedge $-1 $451 $461 $453 $549 forward $539 $-1 #
straight-curve $-1 0 47.60929099739112 -13.386017549054374 1 0 0 I I #
edge $-1 $463 -13.386017549054374 $456 13.386017549054374 $453 $641 forward 7 unknown #
point $-1 72.804956205938907 47.60929099739112 -13.386017549054374 #
point $-1 72.804956205938907 -47.60929099739112 13.386017549054374 #
straight-curve $-1 0 47.60929099739112 13.386017549054374 -1 0 0 I I #
point $-1 72.804956205938907 47.60929099739112 13.386017549054374 #
face $-1 $501 $483 $17 $-1 $642 reversed single #
loop $-1 $-1 $567 $465 #
coedge $-1 $493 $579 $468 $559 forward $466 $-1 #
coedge $-1 $471 $468 $643 $644 reversed $382 $-1 #
coedge $-1 $468 $471 $492 $582 reversed $382 $-1 #
edge $-1 $645 -13.386017549054374 $583 13.386017549054374 $556 $646 forward 7 unknown #
coedge $-1 $643 $474 $469 $561 forward $483 $-1 #
edge $-1 $479 -3.308900001284087 $565 3.308900001284087 $469 $647 forward 7 unknown #
coedge $-1 $476 $492 $470 $563 forward $138 $-1 #
edge $-1 $564 -3.308900001284087 $478 3.308900001284087 $470 $648 forward 7 unknown #
vertex $-1 $582 $649 #
vertex $-1 $644 $650 #
straight-curve $-1 -83.125356360319898 -38.685566516744956 0 0 0 -1 I I #
coedge $-1 $651 $495 $473 $568 forward $555 $-1 #
edge $-1 $572 -13.386017549054374 $570 13.386017549054374 $567 $652 forward 7 unknown #
coedge $-1 $474 $481 $651 $653 forward $483 $-1 #
vertex $-1 $475 $654 #
straight-curve $-1 -77.965156283129403 -45.30336651931313 -13.386017549054374 -1 0 0 I I #
vertex $-1 $496 $655 #
straight-curve $-1 -77.965156283129403 -45.30336651931313 13.386017549054374 1 0 0 I I #
point $-1 -83.125356360319898 -45.30336651931313 13.386017549054374 #
point $-1 -83.125356360319898 -45.30336651931313 -13.386017549054374 #
coedge $-1 $482 $643 $579 $656 forward $483 $-1 #
vertex $-1 $485 $657 #
straight-curve $-1 0 47.60929099739112 -13.386017549054374 1 0 0 I I #
coedge $-1 $556 $487 $576 $656 reversed $466 $-1 #
straight-curve $-1 -72.804956205938907 47.60929099739112 0 0 0 -1 I I #
point $-1 -72.804956205938907 47.60929099739112 13.386017549054374 #
edge $-1 $583 -5.1602000771904954 $564 5.1602000771904954 $558 $658 forward 7 unknown #
vertex $-1 $582 $659 #
straight-curve $-1 -72.804956205938907 0 13.386017549054374 0 -1 0 I I #
coedge $-1 $495 $651 $497 $586 reversed $555 $-1 #
edge $-1 $498 -13.386017549054374 $588 13.386017549054374 $585 $660 forward 7 unknown #
point $-1 -72.804956205938907 -47.60929099739112 13.386017549054374 #
vertex $-1 $653 $661 #
straight-curve $-1 0 -47.60929099739112 -13.386017549054374 -1 0 0 I I #
plane-surface $-1 0 -47.60929099739112 0 0 1 0 0 0 1 forward_v I I I I #
face $-1 $662 $663 $18 $-1 $664 reversed single #
loop $-1 $-1 $665 $503 #
plane-surface $-1 -77.965156283129403 -38.685566516744956 0 0 -1 0 0 0 -1 forward_v I I I I #
coedge $-1 $666 $667 $668 $669 forward $504 $-1 #
coedge $-1 $670 $506 $671 $672 reversed $409 $-1 #
coedge $-1 $506 $670 $673 $674 reversed $409 $-1 #
coedge $-1 $667 $666 $506 $598 reversed $504 $-1 #
edge $-1 $675 -13.386017549054374 $676 13.386017549054374 $597 $677 forward 7 unknown #
coedge $-1 $678 $679 $507 $600 forward $680 $-1 #
edge $-1 $603 -47.60929099739112 $617 47.60929099739112 $507 $681 forward 7 unknown #
coedge $-1 $682 $508 $679 $683 reversed $602 $-1 #
loop $-1 $-1 $512 $684 #
vertex $-1 $600 $685 #
straight-curve $-1 72.804956205938907 47.60929099739112 0 0 0 -1 I I #
point $-1 72.804956205938907 47.60929099739112 2.136349323423715 #
coedge $-1 $512 $682 $516 $611 reversed $602 $-1 #
vertex $-1 $611 $686 #
straight-curve $-1 -2.3471131447397795 47.60929099739112 67.465047924195204 0.75470957328743171 0 -0.6560590369687036 I I #
straight-curve $-1 59.863693563754005 17.606952355779772 13.386017549054387 0 1 0 I I #
coedge $-1 $687 $516 $688 $689 forward $327 $-1 #
edge $-1 $607 -59.863693563753998 $690 72.804956205938907 $606 $691 forward 7 unknown #
coedge $-1 $517 $673 $692 $693 forward $327 $-1 #
coedge $-1 $694 $518 $517 $614 reversed $616 $-1 #
edge $-1 $695 -72.804956205938907 $520 72.804956205938907 $613 $696 forward 7 unknown #
coedge $-1 $518 $694 $678 $697 reversed $616 $-1 #
loop $-1 $-1 $694 $698 #
vertex $-1 $519 $699 #
straight-curve $-1 72.804956205938907 -47.60929099739112 0 0 0 -1 I I #
point $-1 72.804956205938907 -47.60929099739112 13.386017549054374 #
face $-1 $700 $701 $19 $-1 $702 reversed single #
loop $-1 $-1 $703 $522 #
plane-surface $-1 -77.965156283129403 -45.30336651931313 0 0 1 0 0 0 1 forward_v I I I I #
coedge $-1 $525 $704 $705 $706 reversed $426 $-1 #
coedge $-1 $526 $536 $627 $707 reversed $350 $-1 #
vertex $-1 $707 $708 #
straight-curve $-1 -37.088238656849725 22.818518425727966 97.665048233457583 -0.75470957328743171 0 0.6560590369687036 I I #
coedge $-1 $709 $528 $624 $707 forward $523 $-1 #
coedge $-1 $528 $710 $530 $631 forward $523 $-1 #
straight-curve $-1 29.220230126592057 22.818518425727966 13.386017549054372 -1 0 0 I I #
coedge $-1 $704 $530 $711 $712 forward $426 $-1 #
edge $-1 $713 -47.60929099739112 $532 22.818518425727966 $530 $714 forward 7 unknown #
point $-1 72.804956205938907 22.818518425727966 2.1363493234237296 #
point $-1 72.804956205938907 22.818518425727966 13.386017549054374 #
point $-1 61.496222352020212 29.901596303346004 2.1955832504065329 #
coedge $-1 $705 $715 $536 $636 forward $716 $-1 #
edge $-1 $717 82.430127972950402 $637 99.577469281759022 $635 $718 forward 7 unknown #
vertex $-1 $706 $719 #
straight-curve $-1 72.804956205938907 17.606952355779772 2.1363493234237154 0 -1 0 I I #
plane-surface $-1 72.804956205938907 0 0 -1 0 0 0 0 1 forward_v I I I I #
straight-curve $-1 72.804956205938907 -47.60929099739112 0 0 0 -1 I I #
straight-curve $-1 72.804956205938907 47.60929099739112 0 0 0 -1 I I #
plane-surface $-1 0 0 -13.386017549054374 0 0 1 1 0 0 forward_v I I I I #
coedge $-1 $576 $560 $557 $644 forward $483 $-1 #
edge $-1 $565 -5.1602000771904954 $645 5.1602000771904954 $557 $720 forward 7 unknown #
vertex $-1 $656 $721 #
straight-curve $-1 -72.804956205938907 -38.685566516744956 0 0 0 1 I I #
straight-curve $-1 -83.125356360319898 -41.994466518029043 -13.386017549054374 0 1 0 I I #
straight-curve $-1 -83.125356360319898 -41.994466518029043 13.386017549054374 0 -1 0 I I #
point $-1 -83.125356360319898 -38.685566516744956 13.386017549054374 #
point $-1 -83.125356360319898 -38.685566516744956 -13.386017549054374 #
coedge $-1 $585 $567 $569 $653 reversed $555 $-1 #
straight-curve $-1 -72.804956205938907 -45.30336651931313 0 0 0 -1 I I #
edge $-1 $588 -47.60929099739112 $570 -45.30336651931313 $651 $722 forward 7 unknown #
point $-1 -72.804956205938907 -45.30336651931313 -13.386017549054374 #
point $-1 -72.804956205938907 -45.30336651931313 13.386017549054374 #
edge $-1 $645 -38.685566516744956 $577 47.60929099739112 $579 $722 forward 7 unknown #
point $-1 -72.804956205938907 47.60929099739112 -13.386017549054374 #
straight-curve $-1 -77.965156283129403 -38.685566516744956 13.386017549054374 -1 0 0 I I #
point $-1 -72.804956205938907 -38.685566516744956 13.386017549054374 #
straight-curve $-1 -72.804956205938907 -47.60929099739112 0 0 0 -1 I I #
point $-1 -72.804956205938907 -47.60929099739112 -13.386017549054374 #
face $-1 $723 $724 $18 $-1 $664 reversed single #
loop $-1 $-1 $725 $591 #
plane-surface $-1 -72.804956205938907 0 0 1 0 0 0 0 -1 forward_v I I I I #
coedge $-1 $726 $727 $725 $728 reversed $592 $-1 #
coedge $-1 $597 $594 $729 $730 reversed $504 $-1 #
coedge $-1 $594 $597 $731 $732 reversed $504 $-1 #
coedge $-1 $727 $726 $594 $669 reversed $592 $-1 #
edge $-1 $733 -13.386017549054374 $734 13.386017549054374 $668 $735 forward 7 unknown #
coedge $-1 $596 $595 $736 $737 reversed $409 $-1 #
coedge $-1 $729 $738 $595 $672 forward $680 $-1 #
edge $-1 $739 -5.1602000771904954 $676 5.1602000771904954 $595 $740 forward 7 unknown #
coedge $-1 $612 $731 $596 $674 forward $327 $-1 #
edge $-1 $675 -5.1602000771904954 $741 5.1602000771904954 $596 $742 forward 7 unknown #
vertex $-1 $732 $743 #
vertex $-1 $730 $744 #
straight-curve $-1 -83.125356360319898 -45.30336651931313 0 0 0 -1 I I #
coedge $-1 $738 $599 $615 $697 forward $680 $-1 #
coedge $-1 $599 $745 $601 $683 forward $680 $-1 #
loop $-1 $-1 $599 $723 #
straight-curve $-1 72.804956205938907 0 -13.386017549054374 0 -1 0 I I #
coedge $-1 $606 $601 $746 $747 reversed $602 $-1 #
edge $-1 $748 -72.804956205938907 $603 72.804956205938907 $601 $749 forward 7 unknown #
face $-1 $-1 $602 $18 $-1 $750 reversed single #
point $-1 72.804956205938907 47.60929099739112 -13.386017549054374 #
point $-1 59.863693563753998 47.60929099739112 13.386017549054372 #
coedge $-1 $731 $610 $727 $751 forward $327 $-1 #
coedge $-1 $746 $725 $610 $689 reversed $663 $-1 #
edge $-1 $690 -47.60929099739112 $752 38.685566516744956 $688 $753 forward 7 unknown #
vertex $-1 $611 $754 #
straight-curve $-1 0 47.60929099739112 13.386017549054374 -1 0 0 I I #
coedge $-1 $736 $755 $612 $693 reversed $724 $-1 #
edge $-1 $741 45.30336651931313 $695 47.60929099739112 $692 $753 forward 7 unknown #
coedge $-1 $615 $613 $755 $756 forward $616 $-1 #
vertex $-1 $693 $757 #
straight-curve $-1 0 -47.60929099739112 13.386017549054374 1 0 0 I I #
edge $-1 $617 -72.804956205938907 $758 72.804956205938907 $615 $759 forward 7 unknown #
face $-1 $684 $616 $18 $-1 $760 reversed single #
point $-1 72.804956205938907 -47.60929099739112 -13.386017549054374 #
face $-1 $761 $762 $19 $-1 $763 reversed single #
loop $-1 $-1 $764 $620 #
plane-surface $-1 -83.125356360319898 -41.994466518029043 0 1 0 0 0 0 -1 forward_v I I I I #
coedge $-1 $765 $766 $767 $768 forward $621 $-1 #
coedge $-1 $623 $630 $769 $770 reversed $426 $-1 #
coedge $-1 $771 $635 $623 $706 forward $716 $-1 #
edge $-1 $637 -2.136349323423715 $772 13.386017549054374 $623 $773 forward 7 unknown #
edge $-1 $625 5.2115660699481943 $717 30.002338641611349 $627 $774 forward 7 unknown #
point $-1 59.863693563753998 22.818518425727966 13.386017549054372 #
coedge $-1 $775 $627 $715 $776 forward $523 $-1 #
coedge $-1 $628 $777 $778 $779 forward $523 $-1 #
coedge $-1 $778 $780 $630 $712 reversed $781 $-1 #
edge $-1 $713 -13.386017549054374 $782 13.386017549054374 $630 $783 forward 7 unknown #
vertex $-1 $631 $784 #
straight-curve $-1 72.804956205938907 0 13.386017549054374 0 1 0 I I #
coedge $-1 $635 $785 $709 $776 reversed $716 $-1 #
loop $-1 $-1 $635 $786 #
vertex $-1 $776 $787 #
straight-curve $-1 -2.3471131447397795 47.60929099739112 67.465047924195204 0.75470957328743171 0 -0.6560590369687036 I I #
point $-1 72.804956205938907 47.60929099739112 2.136349323423715 #
straight-curve $-1 -77.965156283129403 -38.685566516744956 -13.386017549054374 1 0 0 I I #
point $-1 -72.804956205938907 -38.685566516744956 -13.386017549054374 #
straight-curve $-1 -72.804956205938907 0 -13.386017549054374 0 1 0 I I #
face $-1 $698 $680 $18 $-1 $788 reversed single #
loop $-1 $-1 $736 $662 #
coedge $-1 $688 $789 $665 $728 forward $663 $-1 #
coedge $-1 $668 $665 $790 $791 reversed $592 $-1 #
coedge $-1 $665 $668 $687 $751 reversed $592 $-1 #
edge $-1 $792 -13.386017549054374 $752 13.386017549054374 $725 $793 forward 7 unknown #
coedge $-1 $790 $671 $666 $730 forward $680 $-1 #
edge $-1 $676 -3.308900001284087 $734 3.308900001284087 $666 $794 forward 7 unknown #
coedge $-1 $673 $687 $667 $732 forward $327 $-1 #
edge $-1 $733 -3.308900001284087 $675 3.308900001284087 $667 $795 forward 7 unknown #
vertex $-1 $751 $796 #
vertex $-1 $791 $797 #
straight-curve $-1 -83.125356360319898 -38.685566516744956 0 0 0 -1 I I #
coedge $-1 $798 $692 $670 $737 forward $724 $-1 #
edge $-1 $741 -13.386017549054374 $739 13.386017549054374 $736 $799 forward 7 unknown #
coedge $-1 $671 $678 $798 $800 forward $680 $-1 #
vertex $-1 $672 $801 #
straight-curve $-1 -77.965156283129403 -45.30336651931313 -13.386017549054374 -1 0 0 I I #
vertex $-1 $693 $802 #
straight-curve $-1 -77.965156283129403 -45.30336651931313 13.386017549054374 1 0 0 I I #
point $-1 -83.125356360319898 -45.30336651931313 13.386017549054374 #
point $-1 -83.125356360319898 -45.30336651931313 -13.386017549054374 #
coedge $-1 $679 $790 $789 $803 forward $680 $-1 #
coedge $-1 $789 $688 $682 $747 forward $663 $-1 #
edge $-1 $690 -13.386017549054374 $748 13.386017549054374 $682 $804 forward 7 unknown #
vertex $-1 $683 $805 #
straight-curve $-1 0 47.60929099739112 -13.386017549054374 1 0 0 I I #
plane-surface $-1 0 47.60929099739112 0 0 -1 0 0 0 -1 forward_v I I I I #
edge $-1 $752 -5.1602000771904954 $733 5.1602000771904954 $727 $806 forward 7 unknown #
vertex $-1 $751 $807 #
straight-curve $-1 -72.804956205938907 0 13.386017549054374 0 -1 0 I I #
point $-1 -72.804956205938907 47.60929099739112 13.386017549054374 #
coedge $-1 $692 $798 $694 $756 reversed $724 $-1 #
edge $-1 $695 -13.386017549054374 $758 13.386017549054374 $755 $808 forward 7 unknown #
point $-1 -72.804956205938907 -47.60929099739112 13.386017549054374 #
vertex $-1 $800 $809 #
straight-curve $-1 0 -47.60929099739112 -13.386017549054374 -1 0 0 I I #
plane-surface $-1 0 -47.60929099739112 0 0 1 0 0 0 1 forward_v I I I I #
face $-1 $810 $811 $19 $-1 $812 reversed single #
loop $-1 $-1 $813 $700 #
plane-surface $-1 -77.965156283129403 -38.685566516744956 0 0 -1 0 0 0 -1 forward_v I I I I #
coedge $-1 $814 $815 $816 $817 forward $701 $-1 #
coedge $-1 $818 $703 $819 $820 reversed $621 $-1 #
coedge $-1 $703 $818 $821 $822 reversed $621 $-1 #
coedge $-1 $815 $814 $703 $768 reversed $701 $-1 #
edge $-1 $823 -13.386017549054374 $824 13.386017549054374 $767 $825 forward 7 unknown #
coedge $-1 $826 $827 $704 $770 forward $828 $-1 #
edge $-1 $772 -47.60929099739112 $782 47.60929099739112 $704 $829 forward 7 unknown #
coedge $-1 $785 $705 $827 $830 reversed $716 $-1 #
vertex $-1 $770 $831 #
straight-curve $-1 72.804956205938907 47.60929099739112 0 0 0 -1 I I #
straight-curve $-1 59.863693563754005 17.606952355779772 13.386017549054387 0 1 0 I I #
coedge $-1 $832 $709 $833 $834 forward $523 $-1 #
edge $-1 $717 -59.863693563753998 $835 72.804956205938907 $715 $836 forward 7 unknown #
coedge $-1 $710 $821 $837 $838 forward $523 $-1 #
coedge $-1 $839 $711 $710 $779 reversed $781 $-1 #
edge $-1 $840 -72.804956205938907 $713 72.804956205938907 $778 $841 forward 7 unknown #
coedge $-1 $711 $839 $826 $842 reversed $781 $-1 #
loop $-1 $-1 $839 $843 #
vertex $-1 $712 $844 #
straight-curve $-1 72.804956205938907 -47.60929099739112 0 0 0 -1 I I #
point $-1 72.804956205938907 -47.60929099739112 13.386017549054374 #
coedge $-1 $715 $771 $845 $846 reversed $716 $-1 #
face $-1 $-1 $716 $19 $-1 $847 reversed single #
point $-1 59.863693563753998 47.60929099739112 13.386017549054372 #
plane-surface $-1 0 0 -13.386017549054374 0 0 1 1 0 0 forward_v I I I I #
coedge $-1 $725 $746 $745 $803 reversed $663 $-1 #
coedge $-1 $745 $729 $726 $791 forward $680 $-1 #
edge $-1 $734 -5.1602000771904954 $792 5.1602000771904954 $726 $848 forward 7 unknown #
vertex $-1 $803 $849 #
straight-curve $-1 -72.804956205938907 -38.685566516744956 0 0 0 1 I I #
straight-curve $-1 -83.125356360319898 -41.994466518029043 -13.386017549054374 0 1 0 I I #
straight-curve $-1 -83.125356360319898 -41.994466518029043 13.386017549054374 0 -1 0 I I #
point $-1 -83.125356360319898 -38.685566516744956 13.386017549054374 #
point $-1 -83.125356360319898 -38.685566516744956 -13.386017549054374 #
coedge $-1 $755 $736 $738 $800 reversed $724 $-1 #
straight-curve $-1 -72.804956205938907 -45.30336651931313 0 0 0 -1 I I #
edge $-1 $758 -47.60929099739112 $739 -45.30336651931313 $798 $850 forward 7 unknown #
point $-1 -72.804956205938907 -45.30336651931313 -13.386017549054374 #
point $-1 -72.804956205938907 -45.30336651931313 13.386017549054374 #
edge $-1 $792 -38.685566516744956 $748 47.60929099739112 $789 $850 forward 7 unknown #
straight-curve $-1 -72.804956205938907 47.60929099739112 0 0 0 -1 I I #
point $-1 -72.804956205938907 47.60929099739112 -13.386017549054374 #
straight-curve $-1 -77.965156283129403 -38.685566516744956 13.386017549054374 -1 0 0 I I #
point $-1 -72.804956205938907 -38.685566516744956 13.386017549054374 #
straight-curve $-1 -72.804956205938907 -47.60929099739112 0 0 0 -1 I I #
point $-1 -72.804956205938907 -47.60929099739112 -13.386017549054374 #
face $-1 $851 $852 $19 $-1 $812 reversed single #
loop $-1 $-1 $853 $761 #
plane-surface $-1 -72.804956205938907 0 0 1 0 0 0 0 -1 forward_v I I I I #
coedge $-1 $854 $855 $853 $856 reversed $762 $-1 #
coedge $-1 $767 $764 $857 $858 reversed $701 $-1 #
coedge $-1 $764 $767 $859 $860 reversed $701 $-1 #
coedge $-1 $855 $854 $764 $817 reversed $762 $-1 #
edge $-1 $861 -13.386017549054374 $862 13.386017549054374 $816 $863 forward 7 unknown #
coedge $-1 $766 $765 $864 $865 reversed $621 $-1 #
coedge $-1 $857 $866 $765 $820 forward $828 $-1 #
edge $-1 $867 -5.1602000771904954 $824 5.1602000771904954 $765 $868 forward 7 unknown #
coedge $-1 $777 $859 $766 $822 forward $523 $-1 #
edge $-1 $823 -5.1602000771904954 $869 5.1602000771904954 $766 $870 forward 7 unknown #
vertex $-1 $860 $871 #
vertex $-1 $858 $872 #
straight-curve $-1 -83.125356360319898 -45.30336651931313 0 0 0 -1 I I #
coedge $-1 $866 $769 $780 $842 forward $828 $-1 #
coedge $-1 $769 $873 $771 $830 forward $828 $-1 #
loop $-1 $-1 $769 $851 #
straight-curve $-1 72.804956205938907 0 -13.386017549054374 0 -1 0 I I #
edge $-1 $874 -72.804956205938907 $772 72.804956205938907 $771 $875 forward 7 unknown #
point $-1 72.804956205938907 47.60929099739112 -13.386017549054374 #
coedge $-1 $859 $775 $855 $876 forward $523 $-1 #
coedge $-1 $845 $853 $775 $834 reversed $811 $-1 #
edge $-1 $835 -47.60929099739112 $877 38.685566516744956 $833 $878 forward 7 unknown #
vertex $-1 $776 $879 #
straight-curve $-1 0 47.60929099739112 13.386017549054374 -1 0 0 I I #
coedge $-1 $864 $880 $777 $838 reversed $852 $-1 #
edge $-1 $869 45.30336651931313 $840 47.60929099739112 $837 $878 forward 7 unknown #
coedge $-1 $780 $778 $880 $881 forward $781 $-1 #
vertex $-1 $838 $882 #
straight-curve $-1 0 -47.60929099739112 13.386017549054374 1 0 0 I I #
edge $-1 $782 -72.804956205938907 $883 72.804956205938907 $780 $884 forward 7 unknown #
face $-1 $786 $781 $19 $-1 $885 reversed single #
point $-1 72.804956205938907 -47.60929099739112 -13.386017549054374 #
coedge $-1 $886 $833 $785 $846 forward $811 $-1 #
edge $-1 $835 -13.386017549054374 $874 13.386017549054374 $785 $887 forward 7 unknown #
plane-surface $-1 0 47.60929099739112 0 0 -1 0 0 0 -1 forward_v I I I I #
straight-curve $-1 -77.965156283129403 -38.685566516744956 -13.386017549054374 1 0 0 I I #
point $-1 -72.804956205938907 -38.685566516744956 -13.386017549054374 #
straight-curve $-1 -72.804956205938907 0 -13.386017549054374 0 1 0 I I #
face $-1 $843 $828 $19 $-1 $888 reversed single #
loop $-1 $-1 $864 $810 #
coedge $-1 $833 $886 $813 $856 forward $811 $-1 #
coedge $-1 $816 $813 $889 $890 reversed $762 $-1 #
coedge $-1 $813 $816 $832 $876 reversed $762 $-1 #
edge $-1 $891 -13.386017549054374 $877 13.386017549054374 $853 $892 forward 7 unknown #
coedge $-1 $889 $819 $814 $858 forward $828 $-1 #
edge $-1 $824 -3.308900001284087 $862 3.308900001284087 $814 $893 forward 7 unknown #
coedge $-1 $821 $832 $815 $860 forward $523 $-1 #
edge $-1 $861 -3.308900001284087 $823 3.308900001284087 $815 $894 forward 7 unknown #
vertex $-1 $876 $895 #
vertex $-1 $890 $896 #
straight-curve $-1 -83.125356360319898 -38.685566516744956 0 0 0 -1 I I #
coedge $-1 $897 $837 $818 $865 forward $852 $-1 #
edge $-1 $869 -13.386017549054374 $867 13.386017549054374 $864 $898 forward 7 unknown #
coedge $-1 $819 $826 $897 $899 forward $828 $-1 #
vertex $-1 $820 $900 #
straight-curve $-1 -77.965156283129403 -45.30336651931313 -13.386017549054374 -1 0 0 I I #
vertex $-1 $838 $901 #
straight-curve $-1 -77.965156283129403 -45.30336651931313 13.386017549054374 1 0 0 I I #
point $-1 -83.125356360319898 -45.30336651931313 13.386017549054374 #
point $-1 -83.125356360319898 -45.30336651931313 -13.386017549054374 #
coedge $-1 $827 $889 $886 $902 forward $828 $-1 #
vertex $-1 $830 $903 #
straight-curve $-1 0 47.60929099739112 -13.386017549054374 1 0 0 I I #
edge $-1 $877 -5.1602000771904954 $861 5.1602000771904954 $855 $904 forward 7 unknown #
vertex $-1 $876 $905 #
straight-curve $-1 -72.804956205938907 0 13.386017549054374 0 -1 0 I I #
point $-1 -72.804956205938907 47.60929099739112 13.386017549054374 #
coedge $-1 $837 $897 $839 $881 reversed $852 $-1 #
edge $-1 $840 -13.386017549054374 $883 13.386017549054374 $880 $906 forward 7 unknown #
point $-1 -72.804956205938907 -47.60929099739112 13.386017549054374 #
vertex $-1 $899 $907 #
straight-curve $-1 0 -47.60929099739112 -13.386017549054374 -1 0 0 I I #
plane-surface $-1 0 -47.60929099739112 0 0 1 0 0 0 1 forward_v I I I I #
coedge $-1 $853 $845 $873 $902 reversed $811 $-1 #
straight-curve $-1 -72.804956205938907 47.60929099739112 0 0 0 -1 I I #
plane-surface $-1 0 0 -13.386017549054374 0 0 1 1 0 0 forward_v I I I I #
coedge $-1 $873 $857 $854 $890 forward $828 $-1 #
edge $-1 $862 -5.1602000771904954 $891 5.1602000771904954 $854 $908 forward 7 unknown #
vertex $-1 $902 $909 #
straight-curve $-1 -72.804956205938907 -38.685566516744956 0 0 0 1 I I #
straight-curve $-1 -83.125356360319898 -41.994466518029043 -13.386017549054374 0 1 0 I I #
straight-curve $-1 -83.125356360319898 -41.994466518029043 13.386017549054374 0 -1 0 I I #
point $-1 -83.125356360319898 -38.685566516744956 13.386017549054374 #
point $-1 -83.125356360319898 -38.685566516744956 -13.386017549054374 #
coedge $-1 $880 $864 $866 $899 reversed $852 $-1 #
straight-curve $-1 -72.804956205938907 -45.30336651931313 0 0 0 -1 I I #
edge $-1 $883 -47.60929099739112 $867 -45.30336651931313 $897 $910 forward 7 unknown #
point $-1 -72.804956205938907 -45.30336651931313 -13.386017549054374 #
point $-1 -72.804956205938907 -45.30336651931313 13.386017549054374 #
edge $-1 $891 -38.685566516744956 $874 47.60929099739112 $886 $910 forward 7 unknown #
point $-1 -72.804956205938907 47.60929099739112 -13.386017549054374 #
straight-curve $-1 -77.965156283129403 -38.685566516744956 13.386017549054374 -1 0 0 I I #
point $-1 -72.804956205938907 -38.685566516744956 13.386017549054374 #
straight-curve $-1 -72.804956205938907 -47.60929099739112 0 0 0 -1 I I #
point $-1 -72.804956205938907 -47.60929099739112 -13.386017549054374 #
straight-curve $-1 -77.965156283129403 -38.685566516744956 -13.386017549054374 1 0 0 I I #
point $-1 -72.804956205938907 -38.685566516744956 -13.386017549054374 #
straight-curve $-1 -72.804956205938907 0 -13.386017549054374 0 1 0 I I #
End-of-ACIS-data 