500 0 8 0           
7 Unknown 11 ACIS 5.0 NT 24 Fri Mar 26 16:41:56 1999 
-1 9.9999999999999995e-007 1e-010 
body $-1 $8 $-1 $9 #
body $-1 $10 $-1 $11 #
body $-1 $12 $-1 $13 #
body $-1 $14 $-1 $15 #
body $-1 $16 $-1 $17 #
body $-1 $18 $-1 $19 #
body $-1 $20 $-1 $21 #
body $-1 $22 $-1 $23 #
lump $-1 $-1 $24 $0 #
transform $-1 1 0 0 0 1 0 0 0 1 65.276650288399907 36.021387600932663 15.952438726604635 1 rotate no_reflect no_shear #
lump $-1 $-1 $25 $1 #
transform $-1 1 0 0 0 1 0 0 0 1 65.276650288399907 36.021387600932663 15.952438726604635 1 rotate no_reflect no_shear #
lump $-1 $-1 $26 $2 #
transform $-1 1 0 0 0 1 0 0 0 1 65.276650288399907 36.021387600932663 15.952438726604635 1 rotate no_reflect no_shear #
lump $-1 $-1 $27 $3 #
transform $-1 1 0 0 0 1 0 0 0 1 65.276650288399907 36.021387600932663 15.952438726604635 1 rotate no_reflect no_shear #
lump $-1 $-1 $28 $4 #
transform $-1 1 0 0 0 1 0 0 0 1 65.276650288399907 36.021387600932663 15.952438726604635 1 rotate no_reflect no_shear #
lump $-1 $-1 $29 $5 #
transform $-1 1 0 0 0 1 0 0 0 1 65.276650288399907 36.021387600932663 15.952438726604635 1 rotate no_reflect no_shear #
lump $-1 $-1 $30 $6 #
transform $-1 1 0 0 0 1 0 0 0 1 65.276650288399907 36.021387600932663 15.952438726604635 1 rotate no_reflect no_shear #
lump $-1 $-1 $31 $7 #
transform $-1 1 0 0 0 1 0 0 0 1 65.276650288399907 36.021387600932663 15.952438726604635 1 rotate no_reflect no_shear #
shell $-1 $-1 $-1 $32 $-1 $8 #
shell $-1 $-1 $-1 $33 $-1 $10 #
shell $-1 $-1 $-1 $34 $-1 $12 #
shell $-1 $-1 $-1 $35 $-1 $14 #
shell $-1 $-1 $-1 $36 $-1 $16 #
shell $-1 $-1 $-1 $37 $-1 $18 #
shell $-1 $-1 $-1 $38 $-1 $20 #
shell $-1 $-1 $-1 $39 $-1 $22 #
face $-1 $40 $41 $24 $-1 $42 forward single #
face $-1 $43 $44 $25 $-1 $45 reversed single #
face $-1 $46 $47 $26 $-1 $48 reversed single #
face $-1 $49 $50 $27 $-1 $51 forward single #
face $-1 $52 $53 $28 $-1 $54 forward single #
face $-1 $55 $56 $29 $-1 $57 reversed single #
face $-1 $58 $59 $30 $-1 $60 forward single #
face $-1 $61 $62 $31 $-1 $63 forward single #
face $-1 $64 $65 $24 $-1 $66 reversed single #
loop $-1 $-1 $67 $32 #
plane-surface $-1 0 0 15.952438726604635 0 0 1 1 0 0 forward_v I I I I #
face $-1 $68 $69 $25 $-1 $70 reversed single #
loop $-1 $-1 $71 $33 #
plane-surface $-1 -56.903438321709345 -27.199275654010371 0 0 -1 0 0 0 -1 forward_v I I I I #
face $-1 $72 $73 $26 $-1 $74 reversed single #
loop $-1 $-1 $75 $34 #
plane-surface $-1 -2.9362514175511834 -133.04139845471397 99.925820963565243 -1 0 0 0 -0.74314483375859142 0.66913059716165679 forward_v I I I I #
face $-1 $76 $77 $27 $-1 $78 forward single #
loop $-1 $79 $80 $35 #
cone-surface $-1 -21.086039070538007 -34.059975600369455 13.866142729348239 0 0.74314483375859142 -0.66913059716165679 0.5 0 0 1 I I 0 1 0.5 forward I I I I #
face $-1 $81 $82 $28 $-1 $83 forward single #
loop $-1 $84 $85 $36 #
cone-surface $-1 -10.196166478745916 -34.059975600369455 13.866142729348239 0 0.74314483375859142 -0.66913059716165679 0.5 0 0 1 I I 0 1 0.5 forward I I I I #
face $-1 $86 $87 $29 $-1 $88 reversed single #
loop $-1 $-1 $89 $37 #
plane-surface $-1 -28.345954131732732 84.835373262706838 153.46403716446301 1 0 0 0 -0.74314483375859142 -0.66913059716165679 forward_v I I I I #
face $-1 $90 $91 $30 $-1 $92 forward single #
loop $-1 $93 $94 $38 #
cone-surface $-1 -21.086039070538007 34.059975600369448 13.866142729348246 0 -0.74314483375859142 -0.66913059716165679 0.5 0 0 1 I I 0 1 0.5 forward I I I I #
face $-1 $95 $96 $31 $-1 $97 forward single #
loop $-1 $98 $99 $39 #
cone-surface $-1 -10.196166478745916 34.059975600369448 13.866142729348246 0 -0.74314483375859142 -0.66913059716165679 0.5 0 0 1 I I 0 1 0.5 forward I I I I #
face $-1 $100 $101 $24 $-1 $102 reversed single #
loop $-1 $-1 $103 $40 #
plane-surface $-1 0 0 -15.952438726604635 0 0 1 1 0 0 forward_v I I I I #
coedge $-1 $104 $105 $106 $107 forward $41 $-1 #
face $-1 $108 $109 $25 $-1 $110 forward single #
loop $-1 $-1 $111 $43 #
plane-surface $-1 -48.530226355018783 -31.610331627471517 0 -1 0 0 0 0 1 forward_v I I I I #
coedge $-1 $112 $113 $114 $115 forward $44 $-1 #
face $-1 $116 $117 $26 $-1 $118 reversed single #
loop $-1 $-1 $119 $46 #
plane-surface $-1 -15.641102774641958 -36.021387600932655 12.568612987185915 0 -0.74314483375859142 0.66913059716165679 1 0 0 forward_v I I I I #
coedge $-1 $120 $121 $122 $123 reversed $47 $-1 #
face $-1 $-1 $124 $27 $-1 $125 forward single #
loop $-1 $126 $127 $49 #
cone-surface $-1 -21.086039070538007 -33.436182543937278 13.304476952510788 0 0.74314483375859142 -0.66913059716165679 0.25 0 0 1 I I -0.70710678118654746 0.70710678118654746 0.25 forward I I I I #
loop $-1 $-1 $128 $35 #
coedge $-1 $80 $80 $129 $130 reversed $50 $-1 #
face $-1 $-1 $131 $28 $-1 $132 forward single #
loop $-1 $133 $134 $52 #
cone-surface $-1 -10.196166478745916 -33.436182543937278 13.304476952510788 0 0.74314483375859142 -0.66913059716165679 0.25 0 0 1 I I -0.70710678118654746 0.70710678118654746 0.25 forward I I I I #
loop $-1 $-1 $135 $36 #
coedge $-1 $85 $85 $136 $137 reversed $53 $-1 #
face $-1 $138 $139 $29 $-1 $140 reversed single #
loop $-1 $-1 $141 $55 #
plane-surface $-1 -15.641102774641958 -12.184637591074477 66.10682918808368 0 0.74314483375859142 0.66913059716165679 1 0 0 forward_v I I I I #
coedge $-1 $142 $143 $144 $145 reversed $56 $-1 #
face $-1 $-1 $146 $30 $-1 $147 forward single #
loop $-1 $148 $149 $58 #
cone-surface $-1 -21.086039070538007 33.436182543937271 13.304476952510795 0 -0.74314483375859142 -0.66913059716165679 0.25 0 0 1 I I -0.70710678118654746 0.70710678118654746 0.25 forward I I I I #
loop $-1 $-1 $150 $38 #
coedge $-1 $94 $94 $151 $152 reversed $59 $-1 #
face $-1 $-1 $153 $31 $-1 $154 forward single #
loop $-1 $155 $156 $61 #
cone-surface $-1 -10.196166478745916 33.436182543937271 13.304476952510795 0 -0.74314483375859142 -0.66913059716165679 0.25 0 0 1 I I -0.70710678118654746 0.70710678118654746 0.25 forward I I I I #
loop $-1 $-1 $157 $39 #
coedge $-1 $99 $99 $158 $159 reversed $62 $-1 #
face $-1 $160 $161 $24 $-1 $162 reversed single #
loop $-1 $-1 $163 $64 #
plane-surface $-1 0 -36.021387600932663 0 0 1 0 0 0 1 forward_v I I I I #
coedge $-1 $164 $165 $166 $167 forward $65 $-1 #
coedge $-1 $168 $67 $169 $170 forward $41 $-1 #
coedge $-1 $67 $168 $171 $172 forward $41 $-1 #
coedge $-1 $173 $174 $67 $107 reversed $175 $-1 #
edge $-1 $176 -36.021387600932663 $177 36.021387600932663 $106 $178 forward 7 unknown #
face $-1 $179 $180 $25 $-1 $181 reversed single #
loop $-1 $-1 $182 $68 #
plane-surface $-1 0 0 15.952438726604635 0 0 1 1 0 0 forward_v I I I I #
coedge $-1 $183 $184 $185 $186 reversed $69 $-1 #
coedge $-1 $187 $71 $188 $189 reversed $44 $-1 #
coedge $-1 $71 $187 $190 $191 reversed $44 $-1 #
coedge $-1 $184 $183 $71 $115 reversed $69 $-1 #
edge $-1 $192 -15.952438726604635 $193 15.952438726604635 $114 $194 forward 7 unknown #
face $-1 $195 $196 $26 $-1 $197 forward single #
loop $-1 $-1 $198 $72 #
plane-surface $-1 -28.345954131732732 -133.04139845471397 99.925820963565243 1 0 0 0 0.74314483375859142 -0.66913059716165679 forward_v I I I I #
coedge $-1 $199 $200 $201 $202 reversed $73 $-1 #
coedge $-1 $121 $75 $203 $204 reversed $47 $-1 #
coedge $-1 $75 $120 $199 $205 reversed $47 $-1 #
coedge $-1 $201 $206 $75 $123 forward $196 $-1 #
edge $-1 $207 30.499311626424323 $208 33.546121931565679 $122 $209 forward 7 unknown #
loop $-1 $-1 $129 $76 #
plane-surface $-1 -15.641102774641958 -36.021387600932655 12.568612987185915 0 -0.74314483375859142 0.66913059716165679 1 0 0 forward_v I I I I #
loop $-1 $-1 $210 $49 #
coedge $-1 $127 $127 $128 $211 reversed $77 $-1 #
coedge $-1 $128 $128 $127 $211 forward $79 $-1 #
coedge $-1 $129 $129 $80 $130 forward $124 $-1 #
edge $-1 $212 5.280361632448144e-015 $212 6.2831853071796058 $129 $213 forward 7 unknown #
loop $-1 $-1 $136 $81 #
plane-surface $-1 -15.641102774641958 -36.021387600932655 12.568612987185915 0 -0.74314483375859142 0.66913059716165679 1 0 0 forward_v I I I I #
loop $-1 $-1 $214 $52 #
coedge $-1 $134 $134 $135 $215 reversed $82 $-1 #
coedge $-1 $135 $135 $134 $215 forward $84 $-1 #
coedge $-1 $136 $136 $85 $137 forward $131 $-1 #
edge $-1 $216 5.280361632448144e-015 $216 6.2831853071796058 $136 $217 forward 7 unknown #
face $-1 $218 $219 $29 $-1 $220 reversed single #
loop $-1 $-1 $221 $86 #
plane-surface $-1 -2.9362514175511834 84.835373262706838 153.46403716446301 -1 0 0 0 0.74314483375859142 0.66913059716165679 forward_v I I I I #
coedge $-1 $222 $223 $224 $225 reversed $87 $-1 #
coedge $-1 $143 $89 $226 $227 reversed $56 $-1 #
coedge $-1 $89 $142 $222 $228 reversed $56 $-1 #
coedge $-1 $224 $229 $89 $145 forward $230 $-1 #
edge $-1 $231 6.3962990304207565 $232 9.4431093355621201 $144 $233 forward 7 unknown #
loop $-1 $-1 $151 $90 #
plane-surface $-1 -15.641102774641958 -12.184637591074477 66.10682918808368 0 0.74314483375859142 0.66913059716165679 1 0 0 forward_v I I I I #
loop $-1 $-1 $234 $58 #
coedge $-1 $149 $149 $150 $235 reversed $91 $-1 #
coedge $-1 $150 $150 $149 $235 forward $93 $-1 #
coedge $-1 $151 $151 $94 $152 forward $146 $-1 #
edge $-1 $236 -7.9205424486722156e-015 $236 6.2831853071795924 $151 $237 forward 7 unknown #
loop $-1 $-1 $158 $95 #
plane-surface $-1 -15.641102774641958 -12.184637591074477 66.10682918808368 0 0.74314483375859142 0.66913059716165679 1 0 0 forward_v I I I I #
loop $-1 $-1 $238 $61 #
coedge $-1 $156 $156 $157 $239 reversed $96 $-1 #
coedge $-1 $157 $157 $156 $239 forward $98 $-1 #
coedge $-1 $158 $158 $99 $159 forward $153 $-1 #
edge $-1 $240 -7.9205424486722156e-015 $240 6.2831853071795924 $158 $241 forward 7 unknown #
face $-1 $242 $243 $24 $-1 $244 reversed single #
loop $-1 $-1 $245 $100 #
plane-surface $-1 -65.276650288399907 0 0 1 0 0 0 0 -1 forward_v I I I I #
coedge $-1 $246 $171 $247 $248 forward $101 $-1 #
coedge $-1 $249 $103 $246 $250 forward $65 $-1 #
coedge $-1 $103 $249 $251 $252 forward $65 $-1 #
coedge $-1 $174 $173 $103 $167 reversed $175 $-1 #
edge $-1 $253 -36.021387600932663 $254 36.021387600932663 $166 $255 forward 7 unknown #
coedge $-1 $105 $104 $256 $257 forward $41 $-1 #
coedge $-1 $258 $259 $104 $170 reversed $243 $-1 #
edge $-1 $177 -65.276650288399907 $260 65.276650288399907 $169 $261 forward 7 unknown #
coedge $-1 $163 $262 $105 $172 reversed $101 $-1 #
edge $-1 $263 -65.276650288399907 $176 65.276650288399907 $171 $264 forward 7 unknown #
coedge $-1 $166 $106 $262 $265 forward $175 $-1 #
coedge $-1 $106 $166 $258 $266 reversed $175 $-1 #
loop $-1 $-1 $173 $242 #
vertex $-1 $107 $267 #
vertex $-1 $107 $268 #
straight-curve $-1 65.276650288399907 0 15.952438726604635 0 1 0 I I #
face $-1 $269 $270 $25 $-1 $271 reversed single #
loop $-1 $-1 $272 $108 #
plane-surface $-1 -65.276650288399907 0 0 1 0 0 0 0 -1 forward_v I I I I #
coedge $-1 $190 $273 $184 $274 forward $109 $-1 #
coedge $-1 $114 $111 $275 $276 reversed $69 $-1 #
coedge $-1 $111 $114 $182 $274 reversed $69 $-1 #
coedge $-1 $277 $278 $111 $186 forward $279 $-1 #
edge $-1 $280 -15.952438726604635 $281 15.952438726604635 $185 $282 forward 7 unknown #
coedge $-1 $113 $112 $272 $283 reversed $44 $-1 #
coedge $-1 $275 $284 $112 $189 forward $270 $-1 #
edge $-1 $285 -36.824931127545234 $193 -20.078507194164111 $188 $286 forward 7 unknown #
coedge $-1 $287 $182 $113 $191 forward $109 $-1 #
edge $-1 $192 20.078507194164111 $288 36.824931127545234 $190 $289 forward 7 unknown #
vertex $-1 $191 $290 #
vertex $-1 $189 $291 #
straight-curve $-1 -48.530226355018783 -27.199275654010371 0 0 0 -1 I I #
face $-1 $-1 $292 $26 $-1 $293 reversed single #
loop $-1 $-1 $122 $116 #
plane-surface $-1 0 0 15.952438726604635 0 0 1 1 0 0 forward_v I I I I #
coedge $-1 $294 $295 $296 $297 reversed $117 $-1 #
coedge $-1 $298 $119 $121 $205 forward $73 $-1 #
coedge $-1 $119 $298 $294 $299 forward $73 $-1 #
coedge $-1 $296 $122 $119 $202 forward $196 $-1 #
edge $-1 $208 -4.8842999697697955 $300 20.525402744411753 $201 $301 forward 7 unknown #
coedge $-1 $302 $303 $120 $204 forward $292 $-1 #
edge $-1 $304 -37.394297494596714 $207 -34.010471755177988 $203 $305 forward 7 unknown #
edge $-1 $208 -4.5533866155058877 $304 1.0034820483328475e-014 $121 $306 forward 7 unknown #
coedge $-1 $122 $296 $302 $307 forward $196 $-1 #
vertex $-1 $204 $308 #
vertex $-1 $123 $309 #
straight-curve $-1 -2.9362514175511834 -66.520699227356985 15.952438726604633 0 1 0 I I #
coedge $-1 $210 $210 $-1 $310 reversed $126 $-1 #
edge $-1 $311 0 $311 6.2831853071796004 $127 $312 forward 7 unknown #
vertex $-1 $130 $313 #
ellipse-curve $-1 -21.086039070538007 -34.497982448361981 14.260525856895272 0 -0.74314483375859142 0.66913059716165679 0.5 0 0 1 I I #
coedge $-1 $214 $214 $-1 $314 reversed $133 $-1 #
edge $-1 $315 0 $315 6.2831853071796004 $134 $316 forward 7 unknown #
vertex $-1 $137 $317 #
ellipse-curve $-1 -10.196166478745916 -34.497982448361981 14.260525856895272 0 -0.74314483375859142 0.66913059716165679 0.5 0 0 1 I I #
face $-1 $-1 $230 $29 $-1 $318 forward single #
loop $-1 $-1 $319 $138 #
plane-surface $-1 0 36.021387600932663 0 0 -1 0 0 0 -1 forward_v I I I I #
coedge $-1 $320 $321 $322 $323 reversed $139 $-1 #
coedge $-1 $324 $141 $143 $228 forward $87 $-1 #
coedge $-1 $141 $324 $320 $325 forward $87 $-1 #
coedge $-1 $322 $144 $141 $225 forward $230 $-1 #
edge $-1 $232 -20.525402744411753 $326 4.8842999697697955 $224 $327 forward 7 unknown #
coedge $-1 $328 $329 $142 $227 forward $219 $-1 #
edge $-1 $330 -64.163405595045589 $231 -60.779579855626871 $226 $331 forward 7 unknown #
edge $-1 $232 67.489388586359411 $330 72.042775201865311 $143 $332 forward 7 unknown #
coedge $-1 $144 $322 $328 $333 forward $230 $-1 #
loop $-1 $-1 $322 $218 #
vertex $-1 $227 $334 #
vertex $-1 $145 $335 #
straight-curve $-1 -28.345954131732732 42.417686631353419 15.95243872660464 0 -1 0 I I #
coedge $-1 $234 $234 $-1 $336 reversed $148 $-1 #
edge $-1 $337 0 $337 6.2831853071796004 $149 $338 forward 7 unknown #
vertex $-1 $152 $339 #
ellipse-curve $-1 -21.086039070538007 34.497982448361974 14.260525856895278 0 0.74314483375859142 0.66913059716165679 0.5 0 0 1 I I #
coedge $-1 $238 $238 $-1 $340 reversed $155 $-1 #
edge $-1 $341 0 $341 6.2831853071796004 $156 $342 forward 7 unknown #
vertex $-1 $159 $343 #
ellipse-curve $-1 -10.196166478745916 34.497982448361974 14.260525856895278 0 0.74314483375859142 0.66913059716165679 0.5 0 0 1 I I #
face $-1 $-1 $175 $24 $-1 $344 reversed single #
loop $-1 $-1 $258 $160 #
plane-surface $-1 0 36.021387600932663 0 0 -1 0 0 0 -1 forward_v I I I I #
coedge $-1 $345 $256 $259 $346 forward $161 $-1 #
coedge $-1 $262 $163 $164 $250 reversed $101 $-1 #
coedge $-1 $256 $345 $163 $248 reversed $161 $-1 #
edge $-1 $263 -15.952438726604635 $347 15.952438726604635 $247 $348 forward 7 unknown #
coedge $-1 $165 $164 $345 $349 forward $65 $-1 #
edge $-1 $254 -65.276650288399907 $347 65.276650288399907 $246 $350 forward 7 unknown #
coedge $-1 $259 $258 $165 $252 reversed $243 $-1 #
edge $-1 $351 -65.276650288399907 $253 65.276650288399907 $251 $352 forward 7 unknown #
vertex $-1 $167 $353 #
vertex $-1 $265 $354 #
straight-curve $-1 65.276650288399907 0 -15.952438726604635 0 -1 0 I I #
coedge $-1 $245 $247 $168 $257 reversed $161 $-1 #
edge $-1 $260 -36.021387600932663 $263 36.021387600932663 $256 $355 forward 7 unknown #
coedge $-1 $251 $169 $174 $266 forward $243 $-1 #
coedge $-1 $169 $251 $245 $346 reversed $243 $-1 #
vertex $-1 $170 $356 #
straight-curve $-1 0 36.021387600932663 15.952438726604635 -1 0 0 I I #
coedge $-1 $171 $246 $173 $265 reversed $101 $-1 #
vertex $-1 $257 $357 #
straight-curve $-1 0 -36.021387600932663 15.952438726604635 1 0 0 I I #
edge $-1 $176 -15.952438726604635 $254 15.952438726604635 $173 $358 forward 7 unknown #
edge $-1 $177 -15.952438726604635 $253 15.952438726604635 $174 $359 forward 7 unknown #
point $-1 65.276650288399907 -36.021387600932663 15.952438726604635 #
point $-1 65.276650288399907 36.021387600932663 15.952438726604635 #
face $-1 $-1 $279 $25 $-1 $360 reversed single #
loop $-1 $-1 $275 $179 #
plane-surface $-1 0 0 -15.952438726604635 0 0 1 1 0 0 forward_v I I I I #
coedge $-1 $361 $362 $187 $283 forward $180 $-1 #
coedge $-1 $182 $287 $277 $363 forward $109 $-1 #
edge $-1 $281 -20.216221787196904 $192 -11.394109840274613 $182 $364 forward 7 unknown #
coedge $-1 $365 $188 $183 $276 forward $270 $-1 #
edge $-1 $193 11.394109840274613 $280 20.216221787196904 $275 $366 forward 7 unknown #
coedge $-1 $367 $185 $273 $363 reversed $279 $-1 #
coedge $-1 $185 $367 $365 $368 reversed $279 $-1 #
loop $-1 $-1 $185 $269 #
vertex $-1 $368 $369 #
vertex $-1 $186 $370 #
straight-curve $-1 -48.530226355018783 -36.021387600932663 0 0 0 1 I I #
edge $-1 $288 -15.952438726604635 $285 15.952438726604635 $272 $371 forward 7 unknown #
coedge $-1 $188 $365 $361 $372 forward $270 $-1 #
vertex $-1 $189 $373 #
straight-curve $-1 -28.451719160854672 -27.199275654010371 -15.952438726604635 1 0 0 I I #
coedge $-1 $273 $190 $362 $374 forward $109 $-1 #
vertex $-1 $374 $375 #
straight-curve $-1 -28.451719160854672 -27.199275654010371 15.952438726604635 -1 0 0 I I #
point $-1 -48.530226355018783 -27.199275654010371 15.952438726604635 #
point $-1 -48.530226355018783 -27.199275654010371 -15.952438726604635 #
loop $-1 $-1 $203 $195 #
plane-surface $-1 0 -36.021387600932663 0 0 1 0 0 0 1 forward_v I I I I #
coedge $-1 $295 $198 $200 $299 reversed $117 $-1 #
coedge $-1 $198 $294 $376 $377 reversed $117 $-1 #
coedge $-1 $206 $201 $198 $297 forward $196 $-1 #
edge $-1 $300 -33.546121931565679 $378 -30.499311626424323 $296 $379 forward 7 unknown #
coedge $-1 $200 $199 $303 $380 reversed $73 $-1 #
edge $-1 $381 -1.0034820483328475e-014 $300 4.5533866155058877 $294 $382 forward 7 unknown #
vertex $-1 $202 $383 #
straight-curve $-1 -7.8205513873209789 -32.974577295791299 15.952438726604635 -1 0 0 I I #
coedge $-1 $376 $203 $206 $307 reversed $292 $-1 #
coedge $-1 $203 $376 $298 $380 forward $292 $-1 #
vertex $-1 $204 $384 #
straight-curve $-1 -2.9362514175511834 -36.021387600932663 49.962910481782622 0 0 1 I I #
straight-curve $-1 -2.9362514175511834 -36.021387600932655 12.568612987185915 0 -0.66913059716165679 -0.74314483375859142 I I #
edge $-1 $378 -28.345954131732732 $207 -2.9362514175511834 $302 $385 forward 7 unknown #
point $-1 -2.9362514175511834 -36.021387600932663 15.952438726604635 #
point $-1 -2.9362514175511834 -32.974577295791306 15.952438726604635 #
edge $-1 $386 1 $386 0 $210 $-1 forward 7 unknown #
vertex $-1 $211 $387 #
ellipse-curve $-1 -21.086039070538007 -33.621968752376922 13.471759601801201 0 -0.74314483375859142 0.66913059716165679 0.5 0 0 1 I I #
point $-1 -20.586039070538007 -34.497982448361981 14.260525856895276 #
edge $-1 $388 1 $388 0 $214 $-1 forward 7 unknown #
vertex $-1 $215 $389 #
ellipse-curve $-1 -10.196166478745916 -33.621968752376922 13.471759601801201 0 -0.74314483375859142 0.66913059716165679 0.5 0 0 1 I I #
point $-1 -9.6961664787459156 -34.497982448361981 14.260525856895276 #
plane-surface $-1 0 0 15.952438726604635 0 0 1 1 0 0 forward_v I I I I #
coedge $-1 $329 $328 $321 $390 forward $219 $-1 #
coedge $-1 $321 $221 $223 $325 reversed $139 $-1 #
coedge $-1 $221 $320 $319 $390 reversed $139 $-1 #
coedge $-1 $229 $224 $221 $323 forward $230 $-1 #
edge $-1 $326 -9.4431093355621201 $391 -6.3962990304207565 $322 $392 forward 7 unknown #
coedge $-1 $223 $222 $329 $393 reversed $87 $-1 #
edge $-1 $394 -72.042775201865311 $326 -67.489388586359411 $320 $395 forward 7 unknown #
vertex $-1 $225 $396 #
straight-curve $-1 -7.8205513873209789 32.974577295791306 15.952438726604633 1 0 0 I I #
coedge $-1 $319 $226 $229 $333 reversed $219 $-1 #
coedge $-1 $226 $319 $324 $393 forward $219 $-1 #
vertex $-1 $227 $397 #
straight-curve $-1 -28.345954131732732 36.021387600932663 76.732018582231504 0 0 1 I I #
straight-curve $-1 -28.345954131732732 -12.184637591074477 66.10682918808368 0 0.66913059716165679 -0.74314483375859142 I I #
edge $-1 $391 2.9362514175511834 $231 28.345954131732732 $328 $398 forward 7 unknown #
point $-1 -28.345954131732732 36.021387600932663 15.952438726604635 #
point $-1 -28.345954131732732 32.974577295791299 15.95243872660464 #
edge $-1 $399 1 $399 0 $234 $-1 forward 7 unknown #
vertex $-1 $235 $400 #
ellipse-curve $-1 -21.086039070538007 33.621968752376915 13.471759601801208 0 0.74314483375859142 0.66913059716165679 0.5 0 0 1 I I #
point $-1 -20.586039070538007 34.497982448361974 14.260525856895283 #
edge $-1 $401 1 $401 0 $238 $-1 forward 7 unknown #
vertex $-1 $239 $402 #
ellipse-curve $-1 -10.196166478745916 33.621968752376915 13.471759601801208 0 0.74314483375859142 0.66913059716165679 0.5 0 0 1 I I #
point $-1 -9.6961664787459156 34.497982448361974 14.260525856895283 #
plane-surface $-1 65.276650288399907 0 0 -1 0 0 0 0 1 forward_v I I I I #
coedge $-1 $247 $245 $249 $349 reversed $161 $-1 #
edge $-1 $260 -15.952438726604635 $351 15.952438726604635 $259 $403 forward 7 unknown #
vertex $-1 $349 $404 #
straight-curve $-1 -65.276650288399907 -36.021387600932663 0 0 0 -1 I I #
edge $-1 $347 -36.021387600932663 $351 36.021387600932663 $345 $405 forward 7 unknown #
straight-curve $-1 0 -36.021387600932663 -15.952438726604635 -1 0 0 I I #
vertex $-1 $252 $406 #
straight-curve $-1 0 36.021387600932663 -15.952438726604635 1 0 0 I I #
point $-1 65.276650288399907 36.021387600932663 -15.952438726604635 #
point $-1 65.276650288399907 -36.021387600932663 -15.952438726604635 #
straight-curve $-1 -65.276650288399907 0 15.952438726604635 0 -1 0 I I #
point $-1 -65.276650288399907 36.021387600932663 15.952438726604635 #
point $-1 -65.276650288399907 -36.021387600932663 15.952438726604635 #
straight-curve $-1 65.276650288399907 -36.021387600932663 0 0 0 -1 I I #
straight-curve $-1 65.276650288399907 36.021387600932663 0 0 0 -1 I I #
plane-surface $-1 0 -36.021387600932663 0 0 1 0 0 0 1 forward_v I I I I #
coedge $-1 $407 $272 $284 $372 reversed $180 $-1 #
coedge $-1 $272 $407 $287 $374 reversed $180 $-1 #
edge $-1 $408 -65.276650288399907 $281 -48.530226355018783 $277 $409 forward 7 unknown #
straight-curve $-1 -48.530226355018783 -15.805165813735758 15.952438726604635 0 1 0 I I #
coedge $-1 $284 $275 $278 $368 forward $270 $-1 #
straight-curve $-1 -48.530226355018783 -15.805165813735758 -15.952438726604635 0 -1 0 I I #
coedge $-1 $278 $277 $407 $410 forward $279 $-1 #
edge $-1 $280 48.530226355018783 $411 65.276650288399907 $278 $412 forward 7 unknown #
point $-1 -48.530226355018783 -36.021387600932663 -15.952438726604635 #
point $-1 -48.530226355018783 -36.021387600932663 15.952438726604635 #
straight-curve $-1 -65.276650288399907 -27.199275654010371 0 0 0 -1 I I #
edge $-1 $411 -36.021387600932663 $285 -27.199275654010371 $361 $413 forward 7 unknown #
point $-1 -65.276650288399907 -27.199275654010371 -15.952438726604635 #
edge $-1 $288 27.199275654010371 $408 36.021387600932663 $362 $414 forward 7 unknown #
point $-1 -65.276650288399907 -27.199275654010371 15.952438726604635 #
coedge $-1 $303 $302 $295 $377 forward $292 $-1 #
edge $-1 $378 34.010471755177988 $381 37.394297494596714 $376 $415 forward 7 unknown #
vertex $-1 $307 $416 #
straight-curve $-1 -28.345954131732732 -66.520699227356985 15.952438726604633 0 -1 0 I I #
edge $-1 $381 -20.525402744411753 $304 4.8842999697697955 $303 $417 forward 7 unknown #
vertex $-1 $380 $418 #
straight-curve $-1 -28.345954131732732 -36.021387600932655 12.568612987185915 0 0.66913059716165679 0.74314483375859142 I I #
point $-1 -28.345954131732732 -32.974577295791306 15.952438726604635 #
point $-1 -2.9362514175511834 -36.021387600932663 12.568612987185908 #
straight-curve $-1 0 -36.021387600932663 15.952438726604635 1 0 0 I I #
vertex $-1 $310 $419 #
point $-1 -20.586039070538007 -33.621968752376922 13.471759601801201 #
vertex $-1 $314 $420 #
point $-1 -9.6961664787459156 -33.621968752376922 13.471759601801201 #
edge $-1 $391 60.779579855626871 $394 64.163405595045589 $319 $421 forward 7 unknown #
vertex $-1 $333 $422 #
straight-curve $-1 -2.9362514175511834 42.417686631353419 15.95243872660464 0 1 0 I I #
edge $-1 $394 -4.8842999697697955 $330 20.525402744411753 $329 $423 forward 7 unknown #
vertex $-1 $393 $424 #
straight-curve $-1 -2.9362514175511834 -12.184637591074477 66.10682918808368 0 -0.66913059716165679 0.74314483375859142 I I #
point $-1 -2.9362514175511834 32.974577295791299 15.95243872660464 #
point $-1 -28.345954131732732 36.021387600932655 12.568612987185908 #
straight-curve $-1 0 36.021387600932663 15.952438726604635 -1 0 0 I I #
vertex $-1 $336 $425 #
point $-1 -20.586039070538007 33.621968752376915 13.471759601801208 #
vertex $-1 $340 $426 #
point $-1 -9.6961664787459156 33.621968752376915 13.471759601801208 #
straight-curve $-1 -65.276650288399907 36.021387600932663 0 0 0 -1 I I #
point $-1 -65.276650288399907 -36.021387600932663 -15.952438726604635 #
straight-curve $-1 -65.276650288399907 0 -15.952438726604635 0 1 0 I I #
point $-1 -65.276650288399907 36.021387600932663 -15.952438726604635 #
coedge $-1 $362 $361 $367 $410 reversed $180 $-1 #
vertex $-1 $374 $427 #
straight-curve $-1 0 -36.021387600932663 15.952438726604635 1 0 0 I I #
edge $-1 $408 -15.952438726604635 $411 15.952438726604635 $407 $428 forward 7 unknown #
vertex $-1 $372 $429 #
straight-curve $-1 0 -36.021387600932663 -15.952438726604635 -1 0 0 I I #
straight-curve $-1 -65.276650288399907 0 -15.952438726604635 0 1 0 I I #
straight-curve $-1 -65.276650288399907 0 15.952438726604635 0 -1 0 I I #
straight-curve $-1 -28.345954131732732 -36.021387600932663 49.962910481782622 0 0 -1 I I #
point $-1 -28.345954131732732 -36.021387600932663 15.952438726604635 #
straight-curve $-1 -7.8205513873209789 -36.021387600932663 12.568612987185904 1 0 0 I I #
point $-1 -28.345954131732732 -36.021387600932663 12.568612987185908 #
point $-1 -21.086039070538007 -33.250396335497634 13.137194303220374 #
point $-1 -10.196166478745916 -33.250396335497634 13.137194303220374 #
straight-curve $-1 -2.9362514175511834 36.021387600932663 76.732018582231504 0 0 -1 I I #
point $-1 -2.9362514175511834 36.021387600932663 15.952438726604635 #
straight-curve $-1 -7.8205513873209789 36.02138760093267 12.568612987185912 -1 0 0 I I #
point $-1 -2.9362514175511834 36.021387600932655 12.568612987185908 #
point $-1 -21.086039070538007 33.250396335497626 13.137194303220381 #
point $-1 -10.196166478745916 33.250396335497626 13.137194303220381 #
point $-1 -65.276650288399907 -36.021387600932663 15.952438726604635 #
straight-curve $-1 -65.276650288399907 -36.021387600932663 0 0 0 -1 I I #
point $-1 -65.276650288399907 -36.021387600932663 -15.952438726604635 #
End-of-ACIS-data 