500 0 9 0           
7 Unknown 11 ACIS 5.0 NT 24 Fri Mar 26 00:21:58 1999 
-1 9.9999999999999995e-007 1e-010 
body $-1 $9 $-1 $10 #
body $-1 $11 $-1 $12 #
body $-1 $13 $-1 $14 #
body $-1 $15 $-1 $16 #
body $-1 $17 $-1 $18 #
body $-1 $19 $-1 $20 #
body $-1 $21 $-1 $22 #
body $-1 $23 $-1 $24 #
body $-1 $25 $-1 $26 #
lump $-1 $-1 $27 $0 #
transform $-1 1 0 0 0 1 0 0 0 1 60.154423657948541 41.039096624774203 8.7252072706225619 1 rotate no_reflect no_shear #
lump $-1 $-1 $28 $1 #
transform $-1 1 0 0 0 1 0 0 0 1 60.154423657948541 41.039096624774203 8.7252072706225619 1 rotate no_reflect no_shear #
lump $-1 $-1 $29 $2 #
transform $-1 1 0 0 0 1 0 0 0 1 60.154423657948541 41.039096624774203 8.7252072706225619 1 rotate no_reflect no_shear #
lump $-1 $-1 $30 $3 #
transform $-1 1 0 0 0 1 0 0 0 1 60.154423657948541 41.039096624774203 8.7252072706225619 1 rotate no_reflect no_shear #
lump $-1 $-1 $31 $4 #
transform $-1 1 0 0 0 1 0 0 0 1 60.154423657948541 41.039096624774203 8.7252072706225619 1 rotate no_reflect no_shear #
lump $-1 $-1 $32 $5 #
transform $-1 1 0 0 0 1 0 0 0 1 60.154423657948541 41.039096624774203 8.7252072706225619 1 rotate no_reflect no_shear #
lump $-1 $-1 $33 $6 #
transform $-1 1 0 0 0 1 0 0 0 1 60.154423657948541 41.039096624774203 8.7252072706225619 1 rotate no_reflect no_shear #
lump $-1 $-1 $34 $7 #
transform $-1 1 0 0 0 1 0 0 0 1 60.154423657948541 41.039096624774203 8.7252072706225619 1 rotate no_reflect no_shear #
lump $-1 $-1 $35 $8 #
transform $-1 1 0 0 0 1 0 0 0 1 60.154423657948541 41.039096624774203 8.7252072706225619 1 rotate no_reflect no_shear #
shell $-1 $-1 $-1 $36 $-1 $9 #
shell $-1 $-1 $-1 $37 $-1 $11 #
shell $-1 $-1 $-1 $38 $-1 $13 #
shell $-1 $-1 $-1 $39 $-1 $15 #
shell $-1 $-1 $-1 $40 $-1 $17 #
shell $-1 $-1 $-1 $41 $-1 $19 #
shell $-1 $-1 $-1 $42 $-1 $21 #
shell $-1 $-1 $-1 $43 $-1 $23 #
shell $-1 $-1 $-1 $44 $-1 $25 #
face $-1 $45 $46 $27 $-1 $47 forward single #
face $-1 $48 $49 $28 $-1 $50 reversed single #
face $-1 $51 $52 $29 $-1 $53 reversed single #
face $-1 $54 $55 $30 $-1 $56 forward single #
face $-1 $57 $58 $31 $-1 $59 forward single #
face $-1 $60 $61 $32 $-1 $62 forward single #
face $-1 $63 $64 $33 $-1 $65 reversed single #
face $-1 $66 $67 $34 $-1 $68 forward single #
face $-1 $69 $70 $35 $-1 $71 forward single #
face $-1 $72 $73 $27 $-1 $74 reversed single #
loop $-1 $-1 $75 $36 #
plane-surface $-1 0 0 8.7252072706225619 0 0 1 1 0 0 forward_v I I I I #
face $-1 $76 $77 $28 $-1 $78 reversed single #
loop $-1 $-1 $79 $37 #
plane-surface $-1 -49.758171127590316 -38.066545496758067 0 1 0 0 0 0 -1 forward_v I I I I #
face $-1 $80 $81 $29 $-1 $82 reversed single #
loop $-1 $-1 $83 $38 #
plane-surface $-1 98.428139203749311 30.307692853548495 170.65945622281635 0 1 0 0.84804810408105047 0 0.52991925155115449 forward_v I I I I #
face $-1 $84 $85 $30 $-1 $86 forward single #
loop $-1 $87 $88 $39 #
cone-surface $-1 58.396074492400714 32.453973607793628 6.4538952938078742 -0.84804810408105047 0 -0.52991925155115449 0.26495962577557725 0 -0.42402405204052523 1 I I 0 1 0.5 forward I I I I #
face $-1 $89 $90 $31 $-1 $91 forward single #
loop $-1 $92 $93 $40 #
cone-surface $-1 58.396074492400714 35.673394739161338 6.4538952938078742 -0.84804810408105047 0 -0.52991925155115449 0.26495962577557725 0 -0.42402405204052523 1 I I 0 1 0.5 forward I I I I #
face $-1 $94 $95 $32 $-1 $96 forward single #
loop $-1 $97 $98 $41 #
cone-surface $-1 58.396074492400714 38.892815870529049 6.4538952938078742 -0.84804810408105047 0 -0.52991925155115449 0.26495962577557725 0 -0.42402405204052523 1 I I 0 1 0.5 forward I I I I #
face $-1 $99 $100 $33 $-1 $101 reversed single #
loop $-1 $-1 $102 $42 #
plane-surface $-1 -122.11806159843891 -26.293364813544464 108.37668721725487 0 1 0 -0.51503808176128008 0 0.85716729658548041 forward_v I I I I #
face $-1 $103 $104 $34 $-1 $105 forward single #
loop $-1 $106 $107 $43 #
cone-surface $-1 -55.780586082806963 -21.863705389015124 4.5195138266954986 0.51503808176128008 0 -0.85716729658548041 1.2857509448782207 0 0.77255712264192011 1 I I 0 1 1.5 forward I I I I #
face $-1 $108 $109 $35 $-1 $110 forward single #
loop $-1 $111 $112 $44 #
cone-surface $-1 -55.780586082806963 -15.219216252221116 4.5195138266954986 0.51503808176128008 0 -0.85716729658548041 1.2857509448782207 0 0.77255712264192011 1 I I 0 1 1.5 forward I I I I #
face $-1 $113 $114 $27 $-1 $115 reversed single #
loop $-1 $-1 $116 $45 #
plane-surface $-1 0 0 -8.7252072706225619 0 0 1 1 0 0 forward_v I I I I #
coedge $-1 $117 $118 $119 $120 forward $46 $-1 #
face $-1 $121 $122 $28 $-1 $123 reversed single #
loop $-1 $-1 $124 $48 #
plane-surface $-1 -48.15455115182597 -35.093994368741932 0 0 -1 0 0 0 -1 forward_v I I I I #
coedge $-1 $125 $126 $127 $128 forward $49 $-1 #
face $-1 $129 $130 $29 $-1 $131 reversed single #
loop $-1 $-1 $132 $51 #
plane-surface $-1 -3.5995506666737924 35.673394739161353 106.90548189819404 0.84804810408105047 0 0.52991925155115449 0.52991925155115449 0 -0.84804810408105047 forward_v I I I I #
coedge $-1 $133 $134 $135 $136 reversed $52 $-1 #
face $-1 $-1 $137 $30 $-1 $138 forward single #
loop $-1 $139 $140 $54 #
cone-surface $-1 57.62777919549535 32.453973607793628 5.9738111255311992 -0.84804810408105047 0 -0.52991925155115449 0.13247981288778862 0 -0.21201202602026262 1 I I -0.70710678118654746 0.70710678118654746 0.25 forward I I I I #
loop $-1 $-1 $141 $39 #
coedge $-1 $88 $88 $142 $143 reversed $55 $-1 #
face $-1 $-1 $144 $31 $-1 $145 forward single #
loop $-1 $146 $147 $57 #
cone-surface $-1 57.62777919549535 35.673394739161338 5.9738111255311992 -0.84804810408105047 0 -0.52991925155115449 0.13247981288778862 0 -0.21201202602026262 1 I I -0.70710678118654746 0.70710678118654746 0.25 forward I I I I #
loop $-1 $-1 $148 $40 #
coedge $-1 $93 $93 $149 $150 reversed $58 $-1 #
face $-1 $-1 $151 $32 $-1 $152 forward single #
loop $-1 $153 $154 $60 #
cone-surface $-1 57.62777919549535 38.892815870529049 5.9738111255311992 -0.84804810408105047 0 -0.52991925155115449 0.13247981288778862 0 -0.21201202602026262 1 I I -0.70710678118654746 0.70710678118654746 0.25 forward I I I I #
loop $-1 $-1 $155 $41 #
coedge $-1 $98 $98 $156 $157 reversed $61 $-1 #
face $-1 $158 $159 $33 $-1 $160 reversed single #
loop $-1 $-1 $161 $63 #
plane-surface $-1 -60.154423657948549 -18.54146082061812 5.2518778081720399 -0.51503808176128008 0 0.85716729658548041 0.85716729658548041 0 0.51503808176128008 forward_v I I I I #
coedge $-1 $162 $163 $164 $165 reversed $64 $-1 #
face $-1 $-1 $166 $34 $-1 $167 forward single #
loop $-1 $168 $169 $66 #
cone-surface $-1 -53.910765373915694 -21.863705389015124 1.4076096415545898 0.51503808176128008 0 -0.85716729658548041 0.64287547243911036 0 0.38627856132096006 1 I I -0.70710678118654757 0.70710678118654757 0.75 forward I I I I #
loop $-1 $-1 $170 $43 #
coedge $-1 $107 $107 $171 $172 reversed $67 $-1 #
face $-1 $-1 $173 $35 $-1 $174 forward single #
loop $-1 $175 $176 $69 #
cone-surface $-1 -53.910765373915694 -15.219216252221116 1.4076096415545898 0.51503808176128008 0 -0.85716729658548041 0.64287547243911036 0 0.38627856132096006 1 I I -0.70710678118654757 0.70710678118654757 0.75 forward I I I I #
loop $-1 $-1 $177 $44 #
coedge $-1 $112 $112 $178 $179 reversed $70 $-1 #
face $-1 $180 $181 $27 $-1 $182 reversed single #
loop $-1 $-1 $183 $72 #
plane-surface $-1 0 -41.039096624774203 0 0 1 0 0 0 1 forward_v I I I I #
coedge $-1 $184 $185 $186 $187 forward $73 $-1 #
coedge $-1 $188 $75 $189 $190 forward $46 $-1 #
coedge $-1 $75 $188 $191 $192 forward $46 $-1 #
coedge $-1 $193 $194 $75 $120 reversed $195 $-1 #
edge $-1 $196 -41.039096624774203 $197 41.039096624774203 $119 $198 forward 7 unknown #
face $-1 $199 $200 $28 $-1 $201 forward single #
loop $-1 $-1 $202 $76 #
plane-surface $-1 -46.550931176061624 -38.066545496758067 0 -1 0 0 0 0 1 forward_v I I I I #
coedge $-1 $203 $204 $205 $206 forward $77 $-1 #
coedge $-1 $207 $79 $208 $209 reversed $49 $-1 #
coedge $-1 $79 $207 $210 $211 reversed $49 $-1 #
coedge $-1 $204 $203 $79 $128 reversed $77 $-1 #
edge $-1 $212 -8.7252072706225619 $213 8.7252072706225619 $127 $214 forward 7 unknown #
face $-1 $215 $216 $29 $-1 $217 reversed single #
loop $-1 $-1 $135 $80 #
plane-surface $-1 60.154423657948541 0 0 -1 0 0 0 0 1 forward_v I I I I #
coedge $-1 $218 $219 $220 $221 reversed $81 $-1 #
coedge $-1 $134 $83 $222 $223 reversed $52 $-1 #
coedge $-1 $83 $133 $218 $224 reversed $52 $-1 #
coedge $-1 $220 $225 $83 $136 forward $130 $-1 #
edge $-1 $226 76.604520840785611 $227 80.451936083637278 $135 $228 forward 7 unknown #
loop $-1 $-1 $142 $84 #
plane-surface $-1 -3.5995506666737924 35.673394739161353 106.90548189819404 0.84804810408105047 0 0.52991925155115449 0.52991925155115449 0 -0.84804810408105047 forward_v I I I I #
loop $-1 $-1 $229 $54 #
coedge $-1 $140 $140 $141 $230 reversed $85 $-1 #
coedge $-1 $141 $141 $140 $230 forward $87 $-1 #
coedge $-1 $142 $142 $88 $143 forward $137 $-1 #
edge $-1 $231 0 $231 6.2831853071796004 $142 $232 forward 7 unknown #
loop $-1 $-1 $149 $89 #
plane-surface $-1 -3.5995506666737924 35.673394739161353 106.90548189819404 0.84804810408105047 0 0.52991925155115449 0.52991925155115449 0 -0.84804810408105047 forward_v I I I I #
loop $-1 $-1 $233 $57 #
coedge $-1 $147 $147 $148 $234 reversed $90 $-1 #
coedge $-1 $148 $148 $147 $234 forward $92 $-1 #
coedge $-1 $149 $149 $93 $150 forward $144 $-1 #
edge $-1 $235 0 $235 6.2831853071796004 $149 $236 forward 7 unknown #
loop $-1 $-1 $156 $94 #
plane-surface $-1 -3.5995506666737924 35.673394739161353 106.90548189819404 0.84804810408105047 0 0.52991925155115449 0.52991925155115449 0 -0.84804810408105047 forward_v I I I I #
loop $-1 $-1 $237 $60 #
coedge $-1 $154 $154 $155 $238 reversed $95 $-1 #
coedge $-1 $155 $155 $154 $238 forward $97 $-1 #
coedge $-1 $156 $156 $98 $157 forward $151 $-1 #
edge $-1 $239 0 $239 6.2831853071796004 $156 $240 forward 7 unknown #
face $-1 $241 $242 $33 $-1 $243 reversed single #
loop $-1 $-1 $244 $99 #
plane-surface $-1 -122.11806159843891 -10.789556827691776 108.37668721725487 0 -1 0 0.51503808176128008 0 -0.85716729658548041 forward_v I I I I #
coedge $-1 $245 $246 $247 $248 reversed $100 $-1 #
coedge $-1 $163 $102 $249 $250 reversed $64 $-1 #
coedge $-1 $102 $162 $245 $251 reversed $64 $-1 #
coedge $-1 $247 $252 $102 $165 forward $253 $-1 #
edge $-1 $254 0.90460714127091535 $255 6.68519799641345 $164 $256 forward 7 unknown #
loop $-1 $-1 $171 $103 #
plane-surface $-1 -60.154423657948549 -18.54146082061812 5.2518778081720399 -0.51503808176128008 0 0.85716729658548041 0.85716729658548041 0 0.51503808176128008 forward_v I I I I #
loop $-1 $-1 $257 $66 #
coedge $-1 $169 $169 $170 $258 reversed $104 $-1 #
coedge $-1 $170 $170 $169 $258 forward $106 $-1 #
coedge $-1 $171 $171 $107 $172 forward $166 $-1 #
edge $-1 $259 0 $259 6.2831853071796004 $171 $260 forward 7 unknown #
loop $-1 $-1 $178 $108 #
plane-surface $-1 -60.154423657948549 -18.54146082061812 5.2518778081720399 -0.51503808176128008 0 0.85716729658548041 0.85716729658548041 0 0.51503808176128008 forward_v I I I I #
loop $-1 $-1 $261 $69 #
coedge $-1 $176 $176 $177 $262 reversed $109 $-1 #
coedge $-1 $177 $177 $176 $262 forward $111 $-1 #
coedge $-1 $178 $178 $112 $179 forward $173 $-1 #
edge $-1 $263 0 $263 6.2831853071796004 $178 $264 forward 7 unknown #
face $-1 $265 $266 $27 $-1 $267 reversed single #
loop $-1 $-1 $268 $113 #
plane-surface $-1 -60.154423657948541 0 0 1 0 0 0 0 -1 forward_v I I I I #
coedge $-1 $269 $191 $270 $271 forward $114 $-1 #
coedge $-1 $272 $116 $269 $273 forward $73 $-1 #
coedge $-1 $116 $272 $274 $275 forward $73 $-1 #
coedge $-1 $194 $193 $116 $187 reversed $195 $-1 #
edge $-1 $276 -41.039096624774203 $277 41.039096624774203 $186 $278 forward 7 unknown #
coedge $-1 $118 $117 $279 $280 forward $46 $-1 #
coedge $-1 $281 $282 $117 $190 reversed $266 $-1 #
edge $-1 $197 -60.154423657948541 $283 60.154423657948541 $189 $284 forward 7 unknown #
coedge $-1 $183 $285 $118 $192 reversed $114 $-1 #
edge $-1 $286 -60.154423657948541 $196 60.154423657948541 $191 $287 forward 7 unknown #
coedge $-1 $186 $119 $285 $288 forward $195 $-1 #
coedge $-1 $119 $186 $281 $289 reversed $195 $-1 #
loop $-1 $-1 $193 $265 #
vertex $-1 $120 $290 #
vertex $-1 $120 $291 #
straight-curve $-1 60.154423657948541 0 8.7252072706225619 0 1 0 I I #
face $-1 $292 $293 $28 $-1 $294 reversed single #
loop $-1 $-1 $295 $121 #
plane-surface $-1 0 0 8.7252072706225619 0 0 1 1 0 0 forward_v I I I I #
coedge $-1 $296 $297 $298 $299 reversed $122 $-1 #
coedge $-1 $127 $124 $300 $301 reversed $77 $-1 #
coedge $-1 $124 $127 $302 $303 reversed $77 $-1 #
coedge $-1 $297 $296 $124 $206 reversed $122 $-1 #
edge $-1 $304 -8.7252072706225619 $305 8.7252072706225619 $205 $306 forward 7 unknown #
coedge $-1 $126 $125 $307 $308 reversed $49 $-1 #
coedge $-1 $300 $309 $125 $209 forward $293 $-1 #
edge $-1 $310 -22.005823876395169 $213 -16.060721620362898 $208 $311 forward 7 unknown #
coedge $-1 $312 $302 $126 $211 forward $200 $-1 #
edge $-1 $212 16.060721620362898 $313 22.005823876395169 $210 $314 forward 7 unknown #
vertex $-1 $211 $315 #
vertex $-1 $209 $316 #
straight-curve $-1 -49.758171127590316 -35.093994368741932 0 0 0 -1 I I #
face $-1 $-1 $317 $29 $-1 $318 forward single #
loop $-1 $-1 $319 $129 #
plane-surface $-1 0 41.039096624774203 0 0 -1 0 0 0 -1 forward_v I I I I #
coedge $-1 $320 $132 $134 $224 forward $81 $-1 #
coedge $-1 $132 $320 $319 $321 reversed $81 $-1 #
coedge $-1 $322 $135 $132 $221 forward $130 $-1 #
edge $-1 $227 12.470995483967819 $323 23.202399255193527 $220 $324 forward 7 unknown #
coedge $-1 $325 $326 $133 $223 forward $317 $-1 #
edge $-1 $327 8.5362222667484033 $226 10.940354056073886 $222 $328 forward 7 unknown #
edge $-1 $227 -120.30884731589714 $327 -115.77205839515454 $134 $329 forward 7 unknown #
coedge $-1 $135 $322 $325 $330 reversed $130 $-1 #
vertex $-1 $330 $331 #
vertex $-1 $136 $332 #
straight-curve $-1 60.154423657948541 30.307692853548495 85.329728111408173 0 0 -1 I I #
coedge $-1 $229 $229 $-1 $333 reversed $139 $-1 #
edge $-1 $334 0 $334 6.2831853071796004 $140 $335 forward 7 unknown #
vertex $-1 $143 $336 #
ellipse-curve $-1 58.952357763285789 32.453973607793628 6.8014996491967423 0.84804810408105047 0 0.52991925155115449 0.26495962577557725 0 -0.42402405204052523 1 I I #
coedge $-1 $233 $233 $-1 $337 reversed $146 $-1 #
edge $-1 $338 0 $338 6.2831853071796004 $147 $339 forward 7 unknown #
vertex $-1 $150 $340 #
ellipse-curve $-1 58.952357763285789 35.673394739161338 6.8014996491967423 0.84804810408105047 0 0.52991925155115449 0.26495962577557725 0 -0.42402405204052523 1 I I #
coedge $-1 $237 $237 $-1 $341 reversed $153 $-1 #
edge $-1 $342 0 $342 6.2831853071796004 $154 $343 forward 7 unknown #
vertex $-1 $157 $344 #
ellipse-curve $-1 58.952357763285789 38.892815870529049 6.8014996491967423 0.84804810408105047 0 0.52991925155115449 0.26495962577557725 0 -0.42402405204052523 1 I I #
face $-1 $-1 $253 $33 $-1 $345 forward single #
loop $-1 $-1 $346 $158 #
plane-surface $-1 -60.154423657948541 0 0 1 0 0 0 0 -1 forward_v I I I I #
coedge $-1 $347 $348 $349 $350 reversed $159 $-1 #
coedge $-1 $351 $161 $163 $251 forward $100 $-1 #
coedge $-1 $161 $351 $347 $352 forward $100 $-1 #
coedge $-1 $349 $164 $161 $248 forward $253 $-1 #
edge $-1 $255 -17.022634403235404 $353 -1.5188264173827157 $247 $354 forward 7 unknown #
coedge $-1 $355 $356 $162 $250 forward $242 $-1 #
edge $-1 $357 -48.936465800455387 $254 -45.463136338004873 $249 $358 forward 7 unknown #
edge $-1 $255 -6.7438303796347387 $357 -8.3777685069199533e-015 $163 $359 forward 7 unknown #
coedge $-1 $164 $349 $355 $360 forward $253 $-1 #
loop $-1 $-1 $349 $241 #
vertex $-1 $250 $361 #
vertex $-1 $165 $362 #
straight-curve $-1 -61.059030799219457 -26.293364813544464 8.7252072706225619 1 0 0 I I #
coedge $-1 $257 $257 $-1 $363 reversed $168 $-1 #
edge $-1 $364 0 $364 6.2831853071796004 $169 $365 forward 7 unknown #
vertex $-1 $172 $366 #
ellipse-curve $-1 -57.264128230377274 -21.863705389015124 6.9885425393973026 -0.51503808176128008 0 0.85716729658548041 1.2857509448782207 0 0.77255712264192011 1 I I #
coedge $-1 $261 $261 $-1 $367 reversed $175 $-1 #
edge $-1 $368 0 $368 6.2831853071796004 $176 $369 forward 7 unknown #
vertex $-1 $179 $370 #
ellipse-curve $-1 -57.264128230377274 -15.219216252221116 6.9885425393973026 -0.51503808176128008 0 0.85716729658548041 1.2857509448782207 0 0.77255712264192011 1 I I #
face $-1 $-1 $195 $27 $-1 $371 reversed single #
loop $-1 $-1 $281 $180 #
plane-surface $-1 0 41.039096624774203 0 0 -1 0 0 0 -1 forward_v I I I I #
coedge $-1 $372 $279 $282 $373 forward $181 $-1 #
coedge $-1 $285 $183 $184 $273 reversed $114 $-1 #
coedge $-1 $279 $372 $183 $271 reversed $181 $-1 #
edge $-1 $286 -8.7252072706225619 $374 8.7252072706225619 $270 $375 forward 7 unknown #
coedge $-1 $185 $184 $372 $376 forward $73 $-1 #
edge $-1 $277 -60.154423657948541 $374 60.154423657948541 $269 $377 forward 7 unknown #
coedge $-1 $282 $281 $185 $275 reversed $266 $-1 #
edge $-1 $378 -60.154423657948541 $276 60.154423657948541 $274 $379 forward 7 unknown #
vertex $-1 $187 $380 #
vertex $-1 $288 $381 #
straight-curve $-1 60.154423657948541 0 -8.7252072706225619 0 -1 0 I I #
coedge $-1 $268 $270 $188 $280 reversed $181 $-1 #
edge $-1 $283 -41.039096624774203 $286 41.039096624774203 $279 $382 forward 7 unknown #
coedge $-1 $274 $189 $194 $289 forward $266 $-1 #
coedge $-1 $189 $274 $268 $373 reversed $266 $-1 #
vertex $-1 $190 $383 #
straight-curve $-1 0 41.039096624774203 8.7252072706225619 -1 0 0 I I #
coedge $-1 $191 $269 $193 $288 reversed $114 $-1 #
vertex $-1 $280 $384 #
straight-curve $-1 0 -41.039096624774203 8.7252072706225619 1 0 0 I I #
edge $-1 $196 -8.7252072706225619 $277 8.7252072706225619 $193 $385 forward 7 unknown #
edge $-1 $197 -8.7252072706225619 $276 8.7252072706225619 $194 $386 forward 7 unknown #
point $-1 60.154423657948541 -41.039096624774203 8.7252072706225619 #
point $-1 60.154423657948541 41.039096624774203 8.7252072706225619 #
face $-1 $-1 $387 $28 $-1 $388 reversed single #
loop $-1 $-1 $389 $199 #
plane-surface $-1 0 0 -8.7252072706225619 0 0 1 1 0 0 forward_v I I I I #
coedge $-1 $302 $312 $297 $390 forward $200 $-1 #
coedge $-1 $205 $202 $389 $391 reversed $122 $-1 #
coedge $-1 $202 $205 $295 $390 reversed $122 $-1 #
coedge $-1 $392 $393 $202 $299 forward $387 $-1 #
edge $-1 $394 -8.7252072706225619 $395 8.7252072706225619 $298 $396 forward 7 unknown #
coedge $-1 $389 $208 $203 $301 forward $293 $-1 #
edge $-1 $213 -25.680895551677331 $305 -22.473655600148639 $300 $397 forward 7 unknown #
coedge $-1 $210 $295 $204 $303 forward $200 $-1 #
edge $-1 $304 22.473655600148639 $212 25.680895551677331 $302 $398 forward 7 unknown #
vertex $-1 $303 $399 #
vertex $-1 $301 $400 #
straight-curve $-1 -46.550931176061624 -35.093994368741932 0 0 0 -1 I I #
coedge $-1 $393 $392 $207 $308 forward $387 $-1 #
edge $-1 $313 -8.7252072706225619 $310 8.7252072706225619 $307 $401 forward 7 unknown #
coedge $-1 $208 $389 $393 $402 forward $293 $-1 #
vertex $-1 $209 $403 #
straight-curve $-1 -49.758171127590316 -19.033272748379034 -8.7252072706225619 0 1 0 I I #
coedge $-1 $295 $210 $392 $404 forward $200 $-1 #
vertex $-1 $404 $405 #
straight-curve $-1 -49.758171127590316 -19.033272748379034 8.7252072706225619 0 -1 0 I I #
point $-1 -49.758171127590316 -35.093994368741932 8.7252072706225619 #
point $-1 -49.758171127590316 -35.093994368741932 -8.7252072706225619 #
loop $-1 $-1 $222 $215 #
plane-surface $-1 0 0 8.7252072706225619 0 0 1 1 0 0 forward_v I I I I #
coedge $-1 $406 $407 $219 $321 forward $216 $-1 #
coedge $-1 $219 $218 $326 $408 reversed $81 $-1 #
edge $-1 $323 -74.024616098477765 $409 -69.48782717773517 $319 $410 forward 7 unknown #
coedge $-1 $225 $220 $407 $411 reversed $130 $-1 #
vertex $-1 $321 $412 #
straight-curve $-1 60.154423657948541 17.836697369580676 4.8777920277708944 0 1 0 I I #
coedge $-1 $413 $222 $225 $330 forward $317 $-1 #
coedge $-1 $222 $413 $320 $408 forward $317 $-1 #
vertex $-1 $223 $414 #
straight-curve $-1 49.214069601874655 30.307692853548495 8.7252072706225619 1 0 0 I I #
straight-curve $-1 -3.5995506666737924 30.307692853548495 106.90548189819404 -0.52991925155115449 0 0.84804810408105047 I I #
edge $-1 $226 30.307692853548495 $415 41.039096624774203 $225 $416 forward 7 unknown #
point $-1 60.154423657948541 30.307692853548495 8.7252072706225619 #
point $-1 60.154423657948541 30.307692853548495 4.8777920277708944 #
edge $-1 $417 1 $417 0 $229 $-1 forward 7 unknown #
vertex $-1 $230 $418 #
ellipse-curve $-1 57.839791221515611 32.453973607793628 6.1062909384189874 0.84804810408105047 0 0.52991925155115449 0.26495962577557725 0 -0.42402405204052523 1 I I #
point $-1 59.217317389061392 32.453973607793628 6.3774755971562351 #
edge $-1 $419 1 $419 0 $233 $-1 forward 7 unknown #
vertex $-1 $234 $420 #
ellipse-curve $-1 57.839791221515611 35.673394739161338 6.1062909384189874 0.84804810408105047 0 0.52991925155115449 0.26495962577557725 0 -0.42402405204052523 1 I I #
point $-1 59.217317389061392 35.673394739161338 6.3774755971562351 #
edge $-1 $421 1 $421 0 $237 $-1 forward 7 unknown #
vertex $-1 $238 $422 #
ellipse-curve $-1 57.839791221515611 38.892815870529049 6.1062909384189874 0.84804810408105047 0 0.52991925155115449 0.26495962577557725 0 -0.42402405204052523 1 I I #
point $-1 59.217317389061392 38.892815870529049 6.3774755971562351 #
plane-surface $-1 0 0 8.7252072706225619 0 0 1 1 0 0 forward_v I I I I #
coedge $-1 $356 $355 $348 $423 forward $242 $-1 #
coedge $-1 $348 $244 $246 $352 reversed $159 $-1 #
coedge $-1 $244 $347 $346 $423 reversed $159 $-1 #
coedge $-1 $252 $247 $244 $350 forward $253 $-1 #
edge $-1 $353 -6.68519799641345 $424 -0.90460714127091535 $349 $425 forward 7 unknown #
coedge $-1 $246 $245 $356 $426 reversed $100 $-1 #
edge $-1 $427 8.3777685069199533e-015 $353 6.7438303796347387 $347 $428 forward 7 unknown #
vertex $-1 $248 $429 #
straight-curve $-1 -54.373832802806007 -9.27073041030906 8.7252072706225619 0 1 0 I I #
coedge $-1 $346 $249 $252 $360 reversed $242 $-1 #
coedge $-1 $249 $346 $351 $426 forward $242 $-1 #
vertex $-1 $250 $430 #
straight-curve $-1 -60.154423657948541 -26.293364813544464 54.188343608627434 0 0 1 I I #
straight-curve $-1 -60.154423657948549 -26.293364813544464 5.2518778081720399 -0.85716729658548041 0 -0.51503808176128008 I I #
edge $-1 $424 10.789556827691776 $254 26.293364813544464 $355 $431 forward 7 unknown #
point $-1 -60.154423657948541 -26.293364813544464 8.7252072706225619 #
point $-1 -54.373832802806007 -26.293364813544464 8.7252072706225619 #
edge $-1 $432 1 $432 0 $257 $-1 forward 7 unknown #
vertex $-1 $258 $433 #
ellipse-curve $-1 -54.297043935236651 -21.863705389015124 2.0504851139936999 -0.51503808176128008 0 0.85716729658548041 1.2857509448782207 0 0.77255712264192011 1 I I #
point $-1 -55.978377285499043 -21.863705389015124 7.7610996620392179 #
edge $-1 $434 1 $434 0 $261 $-1 forward 7 unknown #
vertex $-1 $262 $435 #
ellipse-curve $-1 -54.297043935236651 -15.219216252221116 2.0504851139936999 -0.51503808176128008 0 0.85716729658548041 1.2857509448782207 0 0.77255712264192011 1 I I #
point $-1 -55.978377285499043 -15.219216252221116 7.7610996620392179 #
plane-surface $-1 60.154423657948541 0 0 -1 0 0 0 0 1 forward_v I I I I #
coedge $-1 $270 $268 $272 $376 reversed $181 $-1 #
edge $-1 $283 -8.7252072706225619 $378 8.7252072706225619 $282 $436 forward 7 unknown #
vertex $-1 $376 $437 #
straight-curve $-1 -60.154423657948541 -41.039096624774203 0 0 0 -1 I I #
edge $-1 $374 -41.039096624774203 $378 41.039096624774203 $372 $438 forward 7 unknown #
straight-curve $-1 0 -41.039096624774203 -8.7252072706225619 -1 0 0 I I #
vertex $-1 $275 $439 #
straight-curve $-1 0 41.039096624774203 -8.7252072706225619 1 0 0 I I #
point $-1 60.154423657948541 41.039096624774203 -8.7252072706225619 #
point $-1 60.154423657948541 -41.039096624774203 -8.7252072706225619 #
straight-curve $-1 -60.154423657948541 0 8.7252072706225619 0 -1 0 I I #
point $-1 -60.154423657948541 41.039096624774203 8.7252072706225619 #
point $-1 -60.154423657948541 -41.039096624774203 8.7252072706225619 #
straight-curve $-1 60.154423657948541 -41.039096624774203 0 0 0 -1 I I #
straight-curve $-1 60.154423657948541 41.039096624774203 0 0 0 -1 I I #
loop $-1 $-1 $298 $292 #
plane-surface $-1 0 -41.039096624774203 0 0 1 0 0 0 1 forward_v I I I I #
coedge $-1 $309 $300 $296 $391 forward $293 $-1 #
edge $-1 $395 -22.005823876395169 $304 -16.060721620362898 $295 $440 forward 7 unknown #
edge $-1 $305 16.060721620362898 $394 22.005823876395169 $389 $441 forward 7 unknown #
coedge $-1 $307 $298 $312 $404 reversed $387 $-1 #
coedge $-1 $298 $307 $309 $402 reversed $387 $-1 #
vertex $-1 $402 $442 #
vertex $-1 $299 $443 #
straight-curve $-1 -46.550931176061624 -41.039096624774203 0 0 0 1 I I #
straight-curve $-1 -24.077275575912985 -35.093994368741932 -8.7252072706225619 1 0 0 I I #
straight-curve $-1 -24.077275575912985 -35.093994368741932 8.7252072706225619 -1 0 0 I I #
point $-1 -46.550931176061624 -35.093994368741932 8.7252072706225619 #
point $-1 -46.550931176061624 -35.093994368741932 -8.7252072706225619 #
straight-curve $-1 -49.758171127590316 -41.039096624774203 0 0 0 -1 I I #
edge $-1 $394 46.550931176061624 $310 49.758171127590316 $393 $444 forward 7 unknown #
point $-1 -49.758171127590316 -41.039096624774203 -8.7252072706225619 #
edge $-1 $313 -49.758171127590316 $395 -46.550931176061624 $392 $445 forward 7 unknown #
point $-1 -49.758171127590316 -41.039096624774203 8.7252072706225619 #
coedge $-1 $407 $319 $413 $446 reversed $216 $-1 #
coedge $-1 $319 $406 $322 $411 forward $216 $-1 #
edge $-1 $409 -23.202399255193534 $327 -12.470995483967819 $326 $447 forward 7 unknown #
vertex $-1 $321 $448 #
straight-curve $-1 20.927354498681662 41.039096624774203 67.654227365412567 -0.52991925155115449 0 0.84804810408105047 I I #
edge $-1 $415 -8.7252072706225619 $323 -4.8777920277708926 $322 $449 forward 7 unknown #
point $-1 60.154423657948541 41.039096624774203 4.8777920277708926 #
coedge $-1 $326 $325 $406 $446 forward $317 $-1 #
point $-1 57.750291868623059 30.307692853548495 8.7252072706225619 #
vertex $-1 $330 $450 #
straight-curve $-1 60.154423657948541 0 8.7252072706225619 0 1 0 I I #
vertex $-1 $333 $451 #
point $-1 58.104750847291193 32.453973607793628 5.6822668863784624 #
vertex $-1 $337 $452 #
point $-1 58.104750847291193 35.673394739161338 5.6822668863784624 #
vertex $-1 $341 $453 #
point $-1 58.104750847291193 38.892815870529049 5.6822668863784624 #
edge $-1 $424 45.463136338004873 $427 48.936465800455387 $346 $454 forward 7 unknown #
vertex $-1 $360 $455 #
straight-curve $-1 -61.059030799219457 -10.789556827691776 8.7252072706225619 -1 0 0 I I #
edge $-1 $427 1.5188264173827157 $357 17.022634403235404 $356 $456 forward 7 unknown #
vertex $-1 $426 $457 #
straight-curve $-1 -60.154423657948549 -10.789556827691776 5.2518778081720399 0.85716729658548041 0 0.51503808176128008 I I #
point $-1 -54.373832802806007 -10.789556827691776 8.7252072706225619 #
point $-1 -60.154423657948541 -26.293364813544464 5.2518778081720443 #
straight-curve $-1 -60.154423657948541 0 8.7252072706225619 0 -1 0 I I #
vertex $-1 $363 $458 #
point $-1 -53.011292990358434 -21.863705389015124 2.8230422366356205 #
vertex $-1 $367 $459 #
point $-1 -53.011292990358434 -15.219216252221116 2.8230422366356205 #
straight-curve $-1 -60.154423657948541 41.039096624774203 0 0 0 -1 I I #
point $-1 -60.154423657948541 -41.039096624774203 -8.7252072706225619 #
straight-curve $-1 -60.154423657948541 0 -8.7252072706225619 0 1 0 I I #
point $-1 -60.154423657948541 41.039096624774203 -8.7252072706225619 #
straight-curve $-1 -46.550931176061624 -19.033272748379034 8.7252072706225619 0 1 0 I I #
straight-curve $-1 -46.550931176061624 -19.033272748379034 -8.7252072706225619 0 -1 0 I I #
point $-1 -46.550931176061624 -41.039096624774203 -8.7252072706225619 #
point $-1 -46.550931176061624 -41.039096624774203 8.7252072706225619 #
straight-curve $-1 0 -41.039096624774203 -8.7252072706225619 -1 0 0 I I #
straight-curve $-1 0 -41.039096624774203 8.7252072706225619 1 0 0 I I #
edge $-1 $415 -60.154423657948541 $409 -57.750291868623059 $406 $460 forward 7 unknown #
straight-curve $-1 57.750291868623052 17.836697369580676 8.725207270622569 0 -1 0 I I #
point $-1 57.750291868623059 41.03909662477421 8.7252072706225619 #
straight-curve $-1 60.154423657948541 41.039096624774203 0 0 0 -1 I I #
point $-1 60.154423657948541 41.039096624774203 8.7252072706225619 #
point $-1 57.415767169475089 32.453973607793628 5.841331312643411 #
point $-1 57.415767169475089 35.673394739161338 5.841331312643411 #
point $-1 57.415767169475089 38.892815870529049 5.841331312643411 #
straight-curve $-1 -60.154423657948541 -10.789556827691776 54.188343608627434 0 0 -1 I I #
point $-1 -60.154423657948541 -10.789556827691776 8.7252072706225619 #
straight-curve $-1 -60.154423657948541 -9.27073041030906 5.2518778081720416 0 -1 0 I I #
point $-1 -60.154423657948541 -10.789556827691776 5.2518778081720443 #
point $-1 -53.524486812594738 -21.863705389015124 0.76473416911547942 #
point $-1 -53.524486812594738 -15.219216252221116 0.76473416911547942 #
straight-curve $-1 0 41.039096624774203 8.7252072706225619 -1 0 0 I I #
End-of-ACIS-data 