500 0 6 0           
7 Unknown 11 ACIS 5.0 NT 24 Thu Mar 25 23:39:09 1999 
-1 9.9999999999999995e-007 1e-010 
body $-1 $6 $-1 $7 #
body $-1 $8 $-1 $9 #
body $-1 $10 $-1 $11 #
body $-1 $12 $-1 $13 #
body $-1 $14 $-1 $15 #
body $-1 $16 $-1 $17 #
lump $-1 $-1 $18 $0 #
transform $-1 1 0 0 0 1 0 0 0 1 61.192052980132452 39.620299619003696 10.536554792321487 1 rotate no_reflect no_shear #
lump $-1 $-1 $19 $1 #
transform $-1 1 0 0 0 1 0 0 0 1 61.192052980132452 39.620299619003696 10.536554792321487 1 rotate no_reflect no_shear #
lump $-1 $-1 $20 $2 #
transform $-1 1 0 0 0 1 0 0 0 1 61.192052980132452 39.620299619003696 10.536554792321487 1 rotate no_reflect no_shear #
lump $-1 $-1 $21 $3 #
transform $-1 1 0 0 0 1 0 0 0 1 61.192052980132452 39.620299619003696 10.536554792321487 1 rotate no_reflect no_shear #
lump $-1 $-1 $22 $4 #
transform $-1 1 0 0 0 1 0 0 0 1 61.192052980132452 39.620299619003696 10.536554792321487 1 rotate no_reflect no_shear #
lump $-1 $-1 $23 $5 #
transform $-1 1 0 0 0 1 0 0 0 1 61.192052980132452 39.620299619003696 10.536554792321487 1 rotate no_reflect no_shear #
shell $-1 $-1 $-1 $24 $-1 $6 #
shell $-1 $-1 $-1 $25 $-1 $8 #
shell $-1 $-1 $-1 $26 $-1 $10 #
shell $-1 $-1 $-1 $27 $-1 $12 #
shell $-1 $-1 $-1 $28 $-1 $14 #
shell $-1 $-1 $-1 $29 $-1 $16 #
face $-1 $30 $31 $18 $-1 $32 forward single #
face $-1 $33 $34 $19 $-1 $35 forward single #
face $-1 $36 $37 $20 $-1 $38 reversed single #
face $-1 $39 $40 $21 $-1 $41 forward single #
face $-1 $42 $43 $22 $-1 $44 forward single #
face $-1 $45 $46 $23 $-1 $47 forward single #
face $-1 $48 $49 $18 $-1 $50 reversed single #
loop $-1 $-1 $51 $24 #
plane-surface $-1 0 0 10.536554792321487 0 0 1 1 0 0 forward_v I I I I #
face $-1 $52 $53 $19 $-1 $54 reversed single #
loop $-1 $-1 $55 $25 #
plane-surface $-1 -61.192052980132452 0 0 1 0 0 0 0 -1 forward_v I I I I #
face $-1 $56 $57 $20 $-1 $58 reversed single #
loop $-1 $-1 $59 $26 #
plane-surface $-1 43.100554438641375 8.2259668041477774 172.76807957221413 0 -1 0 -0.62932039886446345 0 -0.77714595512881146 forward_v I I I I #
face $-1 $60 $61 $21 $-1 $62 forward single #
loop $-1 $63 $64 $27 #
cone-surface $-1 54.420281689699273 -5.4761492053297474 4.7720906248267516 -0.62932039886446345 0 -0.77714595512881146 0.77714595512881146 0 -0.62932039886446345 1 I I 0 1 1 forward I I I I #
face $-1 $65 $66 $22 $-1 $67 forward single #
loop $-1 $68 $69 $28 #
cone-surface $-1 54.420281689699273 -0.33785570177567337 4.7720906248267516 -0.62932039886446345 0 -0.77714595512881146 0.77714595512881146 0 -0.62932039886446345 1 I I 0 1 1 forward I I I I #
face $-1 $70 $71 $23 $-1 $72 forward single #
loop $-1 $73 $74 $29 #
cone-surface $-1 54.420281689699273 4.8004378017783935 4.7720906248267516 -0.62932039886446345 0 -0.77714595512881146 0.77714595512881146 0 -0.62932039886446345 1 I I 0 1 1 forward I I I I #
face $-1 $75 $76 $18 $-1 $77 reversed single #
loop $-1 $-1 $78 $30 #
plane-surface $-1 0 0 -10.536554792321487 0 0 1 1 0 0 forward_v I I I I #
coedge $-1 $79 $80 $81 $82 forward $31 $-1 #
face $-1 $83 $84 $19 $-1 $85 reversed single #
loop $-1 $-1 $86 $33 #
plane-surface $-1 0 39.620299619003696 0 0 -1 0 0 0 -1 forward_v I I I I #
coedge $-1 $87 $88 $89 $90 forward $34 $-1 #
face $-1 $91 $92 $20 $-1 $93 reversed single #
loop $-1 $-1 $94 $36 #
plane-surface $-1 -33.918259938943287 -0.33785570177567337 77.657766653138395 0.62932039886446345 0 0.77714595512881146 0.77714595512881146 0 -0.62932039886446345 forward_v I I I I #
coedge $-1 $95 $96 $97 $98 reversed $37 $-1 #
face $-1 $-1 $99 $21 $-1 $100 forward single #
loop $-1 $101 $102 $39 #
cone-surface $-1 53.44511067641934 -5.4761492053297474 3.5678547381515049 -0.62932039886446345 0 -0.77714595512881146 0.38857297756440573 0 -0.31466019943223172 1 I I -0.70710678118654746 0.70710678118654746 0.5 forward I I I I #
loop $-1 $-1 $103 $27 #
coedge $-1 $64 $64 $104 $105 reversed $40 $-1 #
face $-1 $-1 $106 $22 $-1 $107 forward single #
loop $-1 $108 $109 $42 #
cone-surface $-1 53.44511067641934 -0.33785570177567337 3.5678547381515049 -0.62932039886446345 0 -0.77714595512881146 0.38857297756440573 0 -0.31466019943223172 1 I I -0.70710678118654746 0.70710678118654746 0.5 forward I I I I #
loop $-1 $-1 $110 $28 #
coedge $-1 $69 $69 $111 $112 reversed $43 $-1 #
face $-1 $-1 $113 $23 $-1 $114 forward single #
loop $-1 $115 $116 $45 #
cone-surface $-1 53.44511067641934 4.8004378017783935 3.5678547381515049 -0.62932039886446345 0 -0.77714595512881146 0.38857297756440573 0 -0.31466019943223172 1 I I -0.70710678118654746 0.70710678118654746 0.5 forward I I I I #
loop $-1 $-1 $117 $29 #
coedge $-1 $74 $74 $118 $119 reversed $46 $-1 #
face $-1 $120 $121 $18 $-1 $122 reversed single #
loop $-1 $-1 $123 $48 #
plane-surface $-1 0 -39.620299619003696 0 0 1 0 0 0 1 forward_v I I I I #
coedge $-1 $124 $125 $126 $127 forward $49 $-1 #
coedge $-1 $128 $51 $129 $130 forward $31 $-1 #
coedge $-1 $51 $128 $131 $132 forward $31 $-1 #
coedge $-1 $133 $134 $51 $82 reversed $135 $-1 #
edge $-1 $136 -39.620299619003696 $137 39.620299619003696 $81 $138 forward 7 unknown #
face $-1 $139 $140 $19 $-1 $141 reversed single #
loop $-1 $-1 $89 $52 #
plane-surface $-1 -66.77655564404175 0 5.8885343784572282 0 0 1 1 0 0 forward_v I I I I #
coedge $-1 $142 $143 $87 $144 forward $53 $-1 #
coedge $-1 $145 $55 $86 $144 reversed $34 $-1 #
coedge $-1 $55 $145 $146 $147 reversed $34 $-1 #
coedge $-1 $148 $149 $55 $90 reversed $84 $-1 #
edge $-1 $150 -39.620299619003696 $151 39.620299619003696 $89 $152 forward 7 unknown #
face $-1 $153 $154 $20 $-1 $155 forward single #
loop $-1 $-1 $156 $56 #
plane-surface $-1 43.100554438641375 -8.9016782076991241 172.76807957221413 0 1 0 0.62932039886446345 0 0.77714595512881146 forward_v I I I I #
coedge $-1 $157 $158 $159 $160 reversed $57 $-1 #
coedge $-1 $96 $59 $161 $162 reversed $37 $-1 #
coedge $-1 $59 $95 $157 $163 reversed $37 $-1 #
coedge $-1 $159 $164 $59 $98 forward $154 $-1 #
edge $-1 $165 -39.641775760811768 $166 -27.419254807640808 $97 $167 forward 7 unknown #
loop $-1 $-1 $104 $60 #
plane-surface $-1 -33.918259938943287 -0.33785570177567337 77.657766653138395 0.62932039886446345 0 0.77714595512881146 0.77714595512881146 0 -0.62932039886446345 forward_v I I I I #
loop $-1 $-1 $168 $39 #
coedge $-1 $102 $102 $103 $169 reversed $61 $-1 #
coedge $-1 $103 $103 $102 $169 forward $63 $-1 #
coedge $-1 $104 $104 $64 $105 forward $99 $-1 #
edge $-1 $170 0 $170 6.2831853071796004 $104 $171 forward 7 unknown #
loop $-1 $-1 $111 $65 #
plane-surface $-1 -33.918259938943287 -0.33785570177567337 77.657766653138395 0.62932039886446345 0 0.77714595512881146 0.77714595512881146 0 -0.62932039886446345 forward_v I I I I #
loop $-1 $-1 $172 $42 #
coedge $-1 $109 $109 $110 $173 reversed $66 $-1 #
coedge $-1 $110 $110 $109 $173 forward $68 $-1 #
coedge $-1 $111 $111 $69 $112 forward $106 $-1 #
edge $-1 $174 0 $174 6.2831853071796004 $111 $175 forward 7 unknown #
loop $-1 $-1 $118 $70 #
plane-surface $-1 -33.918259938943287 -0.33785570177567337 77.657766653138395 0.62932039886446345 0 0.77714595512881146 0.77714595512881146 0 -0.62932039886446345 forward_v I I I I #
loop $-1 $-1 $176 $45 #
coedge $-1 $116 $116 $117 $177 reversed $71 $-1 #
coedge $-1 $117 $117 $116 $177 forward $73 $-1 #
coedge $-1 $118 $118 $74 $119 forward $113 $-1 #
edge $-1 $178 0 $178 6.2831853071796004 $118 $179 forward 7 unknown #
face $-1 $180 $181 $18 $-1 $182 reversed single #
loop $-1 $-1 $183 $75 #
plane-surface $-1 -61.192052980132452 0 0 1 0 0 0 0 -1 forward_v I I I I #
coedge $-1 $184 $131 $185 $186 forward $76 $-1 #
coedge $-1 $187 $78 $184 $188 forward $49 $-1 #
coedge $-1 $78 $187 $189 $190 forward $49 $-1 #
coedge $-1 $134 $133 $78 $127 reversed $135 $-1 #
edge $-1 $191 -39.620299619003696 $192 39.620299619003696 $126 $193 forward 7 unknown #
coedge $-1 $80 $79 $194 $195 forward $31 $-1 #
coedge $-1 $196 $197 $79 $130 reversed $181 $-1 #
edge $-1 $137 -61.192052980132452 $198 61.192052980132452 $129 $199 forward 7 unknown #
coedge $-1 $123 $200 $80 $132 reversed $76 $-1 #
edge $-1 $201 -61.192052980132452 $136 61.192052980132452 $131 $202 forward 7 unknown #
coedge $-1 $126 $81 $200 $203 forward $135 $-1 #
coedge $-1 $81 $126 $196 $204 reversed $135 $-1 #
loop $-1 $-1 $133 $180 #
vertex $-1 $82 $205 #
vertex $-1 $82 $206 #
straight-curve $-1 61.192052980132452 0 10.536554792321487 0 1 0 I I #
face $-1 $207 $208 $19 $-1 $209 forward single #
loop $-1 $-1 $210 $83 #
plane-surface $-1 -72.361058307951055 0 8.2125445853893577 1 0 0 0 0 -1 forward_v I I I I #
coedge $-1 $211 $86 $149 $212 reversed $53 $-1 #
coedge $-1 $86 $211 $213 $214 reversed $53 $-1 #
edge $-1 $215 -10.536554792321487 $151 -5.8885343784572282 $86 $216 forward 7 unknown #
coedge $-1 $88 $87 $217 $218 reversed $34 $-1 #
coedge $-1 $219 $220 $88 $147 forward $221 $-1 #
edge $-1 $150 5.8885343784572282 $222 10.536554792321487 $146 $223 forward 7 unknown #
coedge $-1 $224 $89 $220 $225 forward $84 $-1 #
coedge $-1 $89 $224 $142 $212 forward $84 $-1 #
vertex $-1 $147 $226 #
vertex $-1 $144 $227 #
straight-curve $-1 -61.192052980132452 0 5.8885343784572282 0 1 0 I I #
face $-1 $-1 $228 $20 $-1 $229 reversed single #
loop $-1 $-1 $97 $91 #
plane-surface $-1 0 0 10.536554792321487 0 0 1 1 0 0 forward_v I I I I #
coedge $-1 $230 $231 $232 $233 reversed $92 $-1 #
coedge $-1 $234 $94 $96 $163 forward $57 $-1 #
coedge $-1 $94 $234 $230 $235 forward $57 $-1 #
coedge $-1 $232 $97 $94 $160 forward $154 $-1 #
edge $-1 $166 -8.3948946550356141 $236 8.7327503568112874 $159 $237 forward 7 unknown #
coedge $-1 $238 $239 $95 $162 forward $228 $-1 #
edge $-1 $240 -85.745087510553333 $165 -75.847484993785585 $161 $241 forward 7 unknown #
edge $-1 $166 106.65666007637675 $240 122.38410596026489 $96 $242 forward 7 unknown #
coedge $-1 $97 $232 $238 $243 forward $154 $-1 #
vertex $-1 $162 $244 #
vertex $-1 $98 $245 #
straight-curve $-1 21.550277219320687 8.2259668041477774 10.536554792321482 -1 0 0 I I #
coedge $-1 $168 $168 $-1 $246 reversed $101 $-1 #
edge $-1 $247 0 $247 6.2831853071796004 $102 $248 forward 7 unknown #
vertex $-1 $105 $249 #
ellipse-curve $-1 55.080792503546988 -5.4761492053297474 5.5877535339376037 0.62932039886446345 0 0.77714595512881146 0.77714595512881146 0 -0.62932039886446345 1 I I #
coedge $-1 $172 $172 $-1 $250 reversed $108 $-1 #
edge $-1 $251 0 $251 6.2831853071796004 $109 $252 forward 7 unknown #
vertex $-1 $112 $253 #
ellipse-curve $-1 55.080792503546988 -0.33785570177567337 5.5877535339376037 0.62932039886446345 0 0.77714595512881146 0.77714595512881146 0 -0.62932039886446345 1 I I #
coedge $-1 $176 $176 $-1 $254 reversed $115 $-1 #
edge $-1 $255 0 $255 6.2831853071796004 $116 $256 forward 7 unknown #
vertex $-1 $119 $257 #
ellipse-curve $-1 55.080792503546988 4.8004378017783935 5.5877535339376037 0.62932039886446345 0 0.77714595512881146 0.77714595512881146 0 -0.62932039886446345 1 I I #
face $-1 $-1 $135 $18 $-1 $258 reversed single #
loop $-1 $-1 $196 $120 #
plane-surface $-1 0 39.620299619003696 0 0 -1 0 0 0 -1 forward_v I I I I #
coedge $-1 $259 $194 $197 $260 forward $121 $-1 #
coedge $-1 $200 $123 $124 $188 reversed $76 $-1 #
coedge $-1 $194 $259 $123 $186 reversed $121 $-1 #
edge $-1 $201 -10.536554792321487 $261 10.536554792321487 $185 $262 forward 7 unknown #
coedge $-1 $125 $124 $259 $263 forward $49 $-1 #
edge $-1 $192 -61.192052980132452 $261 61.192052980132452 $184 $264 forward 7 unknown #
coedge $-1 $197 $196 $125 $190 reversed $181 $-1 #
edge $-1 $265 -61.192052980132452 $191 61.192052980132452 $189 $266 forward 7 unknown #
vertex $-1 $127 $267 #
vertex $-1 $203 $268 #
straight-curve $-1 61.192052980132452 0 -10.536554792321487 0 -1 0 I I #
coedge $-1 $183 $185 $128 $195 reversed $121 $-1 #
edge $-1 $198 -39.620299619003696 $201 39.620299619003696 $194 $269 forward 7 unknown #
coedge $-1 $189 $129 $134 $204 forward $181 $-1 #
coedge $-1 $129 $189 $183 $260 reversed $181 $-1 #
vertex $-1 $130 $270 #
straight-curve $-1 0 39.620299619003696 10.536554792321487 -1 0 0 I I #
coedge $-1 $131 $184 $133 $203 reversed $76 $-1 #
vertex $-1 $195 $271 #
straight-curve $-1 0 -39.620299619003696 10.536554792321487 1 0 0 I I #
edge $-1 $136 -10.536554792321487 $192 10.536554792321487 $133 $272 forward 7 unknown #
edge $-1 $137 -10.536554792321487 $191 10.536554792321487 $134 $273 forward 7 unknown #
point $-1 61.192052980132452 -39.620299619003696 10.536554792321487 #
point $-1 61.192052980132452 39.620299619003696 10.536554792321487 #
face $-1 $-1 $221 $19 $-1 $274 reversed single #
loop $-1 $-1 $217 $139 #
plane-surface $-1 0 0 10.536554792321487 0 0 1 1 0 0 forward_v I I I I #
coedge $-1 $275 $276 $211 $277 forward $140 $-1 #
coedge $-1 $143 $142 $210 $277 reversed $53 $-1 #
edge $-1 $278 -5.5845026639093049 $151 5.5845026639092978 $142 $279 forward 7 unknown #
coedge $-1 $280 $217 $143 $214 forward $208 $-1 #
edge $-1 $215 61.192052980132452 $281 72.361058307951055 $143 $282 forward 7 unknown #
vertex $-1 $214 $283 #
straight-curve $-1 -61.192052980132452 39.620299619003696 0 0 0 -1 I I #
coedge $-1 $213 $284 $145 $218 forward $208 $-1 #
edge $-1 $222 -39.620299619003696 $215 39.620299619003696 $217 $285 forward 7 unknown #
coedge $-1 $286 $146 $284 $287 reversed $221 $-1 #
coedge $-1 $146 $286 $148 $225 reversed $221 $-1 #
loop $-1 $-1 $146 $207 #
vertex $-1 $147 $288 #
straight-curve $-1 -61.192052980132452 -39.620299619003696 0 0 0 1 I I #
coedge $-1 $149 $148 $275 $289 forward $84 $-1 #
edge $-1 $150 -5.5845026639092978 $290 5.5845026639093049 $220 $291 forward 7 unknown #
point $-1 -61.192052980132452 -39.620299619003696 5.8885343784572282 #
point $-1 -61.192052980132452 39.620299619003696 5.8885343784572282 #
loop $-1 $-1 $161 $153 #
plane-surface $-1 61.192052980132452 0 0 -1 0 0 0 0 1 forward_v I I I I #
coedge $-1 $231 $156 $158 $235 reversed $92 $-1 #
coedge $-1 $156 $230 $292 $293 reversed $92 $-1 #
coedge $-1 $164 $159 $156 $233 forward $154 $-1 #
edge $-1 $236 27.419254807640808 $294 39.641775760811768 $232 $295 forward 7 unknown #
coedge $-1 $158 $157 $239 $296 reversed $57 $-1 #
edge $-1 $297 -122.38410596026489 $236 -106.65666007637675 $230 $298 forward 7 unknown #
vertex $-1 $160 $299 #
straight-curve $-1 48.969532026961502 -0.16892785088783668 10.536554792321489 0 -1 0 I I #
coedge $-1 $292 $161 $164 $243 reversed $228 $-1 #
coedge $-1 $161 $292 $234 $296 forward $228 $-1 #
vertex $-1 $162 $300 #
straight-curve $-1 61.192052980132452 8.2259668041477774 86.384039786107067 0 0 1 I I #
straight-curve $-1 -33.918259938943287 8.2259668041477774 77.657766653138395 0.77714595512881146 0 -0.62932039886446345 I I #
edge $-1 $294 -8.9016782076991241 $165 8.2259668041477774 $238 $301 forward 7 unknown #
point $-1 61.192052980132452 8.2259668041477774 10.536554792321487 #
point $-1 48.969532026961495 8.2259668041477774 10.536554792321482 #
edge $-1 $302 1 $302 0 $168 $-1 forward 7 unknown #
vertex $-1 $169 $303 #
ellipse-curve $-1 53.759770875851572 -5.4761492053297474 3.9564277157159107 0.62932039886446345 0 0.77714595512881146 0.77714595512881146 0 -0.62932039886446345 1 I I #
point $-1 55.85793845867579 -5.4761492053297474 4.958433135073129 #
edge $-1 $304 1 $304 0 $172 $-1 forward 7 unknown #
vertex $-1 $173 $305 #
ellipse-curve $-1 53.759770875851572 -0.33785570177567337 3.9564277157159107 0.62932039886446345 0 0.77714595512881146 0.77714595512881146 0 -0.62932039886446345 1 I I #
point $-1 55.85793845867579 -0.33785570177567337 4.958433135073129 #
edge $-1 $306 1 $306 0 $176 $-1 forward 7 unknown #
vertex $-1 $177 $307 #
ellipse-curve $-1 53.759770875851572 4.8004378017783935 3.9564277157159107 0.62932039886446345 0 0.77714595512881146 0.77714595512881146 0 -0.62932039886446345 1 I I #
point $-1 55.85793845867579 4.8004378017783935 4.958433135073129 #
plane-surface $-1 61.192052980132452 0 0 -1 0 0 0 0 1 forward_v I I I I #
coedge $-1 $185 $183 $187 $263 reversed $121 $-1 #
edge $-1 $198 -10.536554792321487 $265 10.536554792321487 $197 $308 forward 7 unknown #
vertex $-1 $263 $309 #
straight-curve $-1 -61.192052980132452 -39.620299619003696 0 0 0 -1 I I #
edge $-1 $261 -39.620299619003696 $265 39.620299619003696 $259 $310 forward 7 unknown #
straight-curve $-1 0 -39.620299619003696 -10.536554792321487 -1 0 0 I I #
vertex $-1 $190 $311 #
straight-curve $-1 0 39.620299619003696 -10.536554792321487 1 0 0 I I #
point $-1 61.192052980132452 39.620299619003696 -10.536554792321487 #
point $-1 61.192052980132452 -39.620299619003696 -10.536554792321487 #
straight-curve $-1 -61.192052980132452 0 10.536554792321487 0 -1 0 I I #
point $-1 -61.192052980132452 39.620299619003696 10.536554792321487 #
point $-1 -61.192052980132452 -39.620299619003696 10.536554792321487 #
straight-curve $-1 61.192052980132452 -39.620299619003696 0 0 0 -1 I I #
straight-curve $-1 61.192052980132452 39.620299619003696 0 0 0 -1 I I #
plane-surface $-1 0 -39.620299619003696 0 0 1 0 0 0 1 forward_v I I I I #
coedge $-1 $312 $210 $224 $289 reversed $140 $-1 #
coedge $-1 $210 $312 $280 $313 reversed $140 $-1 #
edge $-1 $281 -2.3240102069321296 $278 2.3240102069321296 $211 $314 forward 7 unknown #
vertex $-1 $212 $315 #
straight-curve $-1 -66.77655564404175 39.620299619003696 5.8885343784572282 1 0 0 I I #
coedge $-1 $284 $213 $276 $313 forward $208 $-1 #
vertex $-1 $214 $316 #
straight-curve $-1 0 39.620299619003696 10.536554792321487 -1 0 0 I I #
point $-1 -61.192052980132452 39.620299619003696 10.536554792321487 #
coedge $-1 $217 $280 $219 $287 forward $208 $-1 #
straight-curve $-1 -61.192052980132452 0 10.536554792321487 0 1 0 I I #
coedge $-1 $220 $219 $312 $317 forward $221 $-1 #
edge $-1 $318 -72.361058307951055 $222 -61.192052980132452 $219 $319 forward 7 unknown #
point $-1 -61.192052980132452 -39.620299619003696 10.536554792321487 #
edge $-1 $290 -39.620299619003696 $278 39.620299619003696 $275 $320 forward 7 unknown #
vertex $-1 $289 $321 #
straight-curve $-1 -66.77655564404175 -39.620299619003696 5.8885343784572282 -1 0 0 I I #
coedge $-1 $239 $238 $231 $293 forward $228 $-1 #
edge $-1 $294 75.847484993785585 $297 85.745087510553333 $292 $322 forward 7 unknown #
vertex $-1 $243 $323 #
straight-curve $-1 21.550277219320687 -8.9016782076991241 10.536554792321482 1 0 0 I I #
edge $-1 $297 -8.7327503568112874 $240 8.3948946550356141 $239 $324 forward 7 unknown #
vertex $-1 $296 $325 #
straight-curve $-1 -33.918259938943287 -8.9016782076991241 77.657766653138395 -0.77714595512881146 0 0.62932039886446345 I I #
point $-1 48.969532026961495 -8.9016782076991241 10.536554792321482 #
point $-1 61.192052980132452 8.2259668041477774 0.63895227555373424 #
straight-curve $-1 61.192052980132452 0 10.536554792321487 0 1 0 I I #
vertex $-1 $246 $326 #
point $-1 54.536916830980381 -5.4761492053297474 3.3271073168514471 #
vertex $-1 $250 $327 #
point $-1 54.536916830980381 -0.33785570177567337 3.3271073168514471 #
vertex $-1 $254 $328 #
point $-1 54.536916830980381 4.8004378017783935 3.3271073168514471 #
straight-curve $-1 -61.192052980132452 39.620299619003696 0 0 0 -1 I I #
point $-1 -61.192052980132452 -39.620299619003696 -10.536554792321487 #
straight-curve $-1 -61.192052980132452 0 -10.536554792321487 0 1 0 I I #
point $-1 -61.192052980132452 39.620299619003696 -10.536554792321487 #
coedge $-1 $276 $275 $286 $317 reversed $140 $-1 #
edge $-1 $281 -39.620299619003696 $318 39.620299619003696 $276 $329 forward 7 unknown #
straight-curve $-1 -72.361058307951055 39.620299619003696 8.2125445853893577 0 0 -1 I I #
point $-1 -72.361058307951055 39.620299619003696 5.8885343784572282 #
point $-1 -72.361058307951055 39.620299619003696 10.536554792321487 #
edge $-1 $318 -2.3240102069321296 $290 2.3240102069321296 $312 $330 forward 7 unknown #
vertex $-1 $313 $331 #
straight-curve $-1 0 -39.620299619003696 10.536554792321487 1 0 0 I I #
straight-curve $-1 -72.361058307951055 0 5.8885343784572282 0 1 0 I I #
point $-1 -72.361058307951055 -39.620299619003696 5.8885343784572282 #
straight-curve $-1 61.192052980132452 -8.9016782076991241 86.384039786107067 0 0 -1 I I #
point $-1 61.192052980132452 -8.9016782076991241 10.536554792321487 #
straight-curve $-1 61.192052980132452 -0.16892785088783668 0.63895227555372713 0 1 0 I I #
point $-1 61.192052980132452 -8.9016782076991241 0.63895227555373424 #
point $-1 53.130450476987107 -5.4761492053297474 3.1792817605870991 #
point $-1 53.130450476987107 -0.33785570177567337 3.1792817605870991 #
point $-1 53.130450476987107 4.8004378017783935 3.1792817605870991 #
straight-curve $-1 -72.361058307951055 0 10.536554792321487 0 -1 0 I I #
straight-curve $-1 -72.361058307951055 -39.620299619003696 8.2125445853893577 0 0 -1 I I #
point $-1 -72.361058307951055 -39.620299619003696 10.536554792321487 #
End-of-ACIS-data 