500 0 11 0           
7 Unknown 11 ACIS 5.0 NT 24 Fri Mar 26 03:06:29 1999 
-1 9.9999999999999995e-007 1e-010 
body $-1 $11 $-1 $12 #
body $-1 $13 $-1 $14 #
body $-1 $15 $-1 $16 #
body $-1 $17 $-1 $18 #
body $-1 $19 $-1 $20 #
body $-1 $21 $-1 $22 #
body $-1 $23 $-1 $24 #
body $-1 $25 $-1 $26 #
body $-1 $27 $-1 $28 #
body $-1 $29 $-1 $30 #
body $-1 $31 $-1 $32 #
lump $-1 $-1 $33 $0 #
transform $-1 1 0 0 0 1 0 0 0 1 70.490432447279275 44.253199492980514 14.930913632454788 1 rotate no_reflect no_shear #
lump $-1 $-1 $34 $1 #
transform $-1 1 0 0 0 1 0 0 0 1 70.490432447279275 44.253199492980514 14.930913632454788 1 rotate no_reflect no_shear #
lump $-1 $-1 $35 $2 #
transform $-1 1 0 0 0 1 0 0 0 1 70.490432447279275 44.253199492980514 14.930913632454788 1 rotate no_reflect no_shear #
lump $-1 $-1 $36 $3 #
transform $-1 1 0 0 0 1 0 0 0 1 70.490432447279275 44.253199492980514 14.930913632454788 1 rotate no_reflect no_shear #
lump $-1 $-1 $37 $4 #
transform $-1 1 0 0 0 1 0 0 0 1 70.490432447279275 44.253199492980514 14.930913632454788 1 rotate no_reflect no_shear #
lump $-1 $-1 $38 $5 #
transform $-1 1 0 0 0 1 0 0 0 1 70.490432447279275 44.253199492980514 14.930913632454788 1 rotate no_reflect no_shear #
lump $-1 $-1 $39 $6 #
transform $-1 1 0 0 0 1 0 0 0 1 70.490432447279275 44.253199492980514 14.930913632454788 1 rotate no_reflect no_shear #
lump $-1 $-1 $40 $7 #
transform $-1 1 0 0 0 1 0 0 0 1 70.490432447279275 44.253199492980514 14.930913632454788 1 rotate no_reflect no_shear #
lump $-1 $-1 $41 $8 #
transform $-1 1 0 0 0 1 0 0 0 1 70.490432447279275 44.253199492980514 14.930913632454788 1 rotate no_reflect no_shear #
lump $-1 $-1 $42 $9 #
transform $-1 1 0 0 0 1 0 0 0 1 70.490432447279275 44.253199492980514 14.930913632454788 1 rotate no_reflect no_shear #
lump $-1 $-1 $43 $10 #
transform $-1 1 0 0 0 1 0 0 0 1 70.490432447279275 44.253199492980514 14.930913632454788 1 rotate no_reflect no_shear #
shell $-1 $-1 $-1 $44 $-1 $11 #
shell $-1 $-1 $-1 $45 $-1 $13 #
shell $-1 $-1 $-1 $46 $-1 $15 #
shell $-1 $-1 $-1 $47 $-1 $17 #
shell $-1 $-1 $-1 $48 $-1 $19 #
shell $-1 $-1 $-1 $49 $-1 $21 #
shell $-1 $-1 $-1 $50 $-1 $23 #
shell $-1 $-1 $-1 $51 $-1 $25 #
shell $-1 $-1 $-1 $52 $-1 $27 #
shell $-1 $-1 $-1 $53 $-1 $29 #
shell $-1 $-1 $-1 $54 $-1 $31 #
face $-1 $55 $56 $33 $-1 $57 forward single #
face $-1 $58 $59 $34 $-1 $60 reversed single #
face $-1 $61 $62 $35 $-1 $63 reversed single #
face $-1 $64 $65 $36 $-1 $66 forward single #
face $-1 $67 $68 $37 $-1 $69 forward single #
face $-1 $70 $71 $38 $-1 $72 reversed single #
face $-1 $73 $74 $39 $-1 $75 forward single #
face $-1 $76 $77 $40 $-1 $78 forward single #
face $-1 $79 $80 $41 $-1 $81 reversed single #
face $-1 $82 $83 $42 $-1 $84 forward single #
face $-1 $85 $86 $43 $-1 $87 forward single #
face $-1 $88 $89 $33 $-1 $90 reversed single #
loop $-1 $-1 $91 $44 #
plane-surface $-1 0 0 14.930913632454788 0 0 1 1 0 0 forward_v I I I I #
face $-1 $92 $93 $34 $-1 $94 reversed single #
loop $-1 $-1 $95 $45 #
plane-surface $-1 -60.044105716852378 -35.030955530582702 0 1 0 0 0 0 -1 forward_v I I I I #
face $-1 $96 $97 $35 $-1 $98 reversed single #
loop $-1 $-1 $99 $46 #
plane-surface $-1 -187.36886759445889 -16.386613557274067 84.76581733073408 0 1 0 -0.82903758062907751 0 0.55919289150049634 forward_v I I I I #
face $-1 $100 $101 $36 $-1 $102 forward single #
loop $-1 $103 $104 $47 #
cone-surface $-1 -66.601212610280939 -11.646379380058306 9.8547676908266659 0.82903758062907751 0 -0.55919289150049634 0.55919289150049634 0 0.82903758062907751 1 I I 0 1 1 forward I I I I #
face $-1 $105 $106 $37 $-1 $107 forward single #
loop $-1 $108 $109 $48 #
cone-surface $-1 -66.601212610280939 -4.5360281142346679 9.8547676908266659 0.82903758062907751 0 -0.55919289150049634 0.55919289150049634 0 0.82903758062907751 1 I I 0 1 1 forward I I I I #
face $-1 $110 $111 $38 $-1 $112 reversed single #
loop $-1 $-1 $113 $49 #
plane-surface $-1 29.037614287815671 4.6503814118652578 198.67734260534243 0 -1 0 -0.54463904215088732 0 -0.83867056331134215 forward_v I I I I #
face $-1 $114 $115 $39 $-1 $116 forward single #
loop $-1 $117 $118 $50 #
cone-surface $-1 60.997873048055368 -5.6955326331765903 8.0428510374034712 -0.54463904215088732 0 -0.83867056331134215 0.83867056331134215 0 -0.54463904215088732 1 I I 0 1 1 forward I I I I #
face $-1 $119 $120 $40 $-1 $121 forward single #
loop $-1 $122 $123 $51 #
cone-surface $-1 60.997873048055368 0.51201579384851925 8.0428510374034712 -0.54463904215088732 0 -0.83867056331134215 0.83867056331134215 0 -0.54463904215088732 1 I I 0 1 1 forward I I I I #
face $-1 $124 $125 $41 $-1 $126 reversed single #
loop $-1 $-1 $127 $52 #
plane-surface $-1 29.037614287815671 39.681336942447956 198.67734260534243 0 -1 0 -0.54463904215088732 0 -0.83867056331134215 forward_v I I I I #
face $-1 $128 $129 $42 $-1 $130 forward single #
loop $-1 $131 $132 $53 #
cone-surface $-1 60.997873048055368 29.335422897406119 8.0428510374034712 -0.54463904215088732 0 -0.83867056331134215 0.83867056331134215 0 -0.54463904215088732 1 I I 0 1 1 forward I I I I #
face $-1 $133 $134 $43 $-1 $135 forward single #
loop $-1 $136 $137 $54 #
cone-surface $-1 60.997873048055368 35.542971324431221 8.0428510374034712 -0.54463904215088732 0 -0.83867056331134215 0.83867056331134215 0 -0.54463904215088732 1 I I 0 1 1 forward I I I I #
face $-1 $138 $139 $33 $-1 $140 reversed single #
loop $-1 $-1 $141 $55 #
plane-surface $-1 0 0 -14.930913632454788 0 0 1 1 0 0 forward_v I I I I #
coedge $-1 $142 $143 $144 $145 forward $56 $-1 #
face $-1 $146 $147 $34 $-1 $148 reversed single #
loop $-1 $-1 $149 $58 #
plane-surface $-1 -57.668018521306998 -25.808711568184886 0 0 -1 0 0 0 -1 forward_v I I I I #
coedge $-1 $150 $151 $152 $153 forward $59 $-1 #
face $-1 $154 $155 $35 $-1 $156 reversed single #
loop $-1 $-1 $157 $61 #
plane-surface $-1 -70.490432447279218 -8.091203747146487 5.9303198441050711 -0.82903758062907751 0 0.55919289150049634 0.55919289150049634 0 0.82903758062907751 forward_v I I I I #
coedge $-1 $158 $159 $160 $161 reversed $62 $-1 #
face $-1 $-1 $162 $36 $-1 $163 forward single #
loop $-1 $164 $165 $64 #
cone-surface $-1 -65.332962471867191 -11.646379380058306 8.9993221976231492 0.82903758062907751 0 -0.55919289150049634 0.27959644575024817 0 0.41451879031453875 1 I I -0.70710678118654746 0.70710678118654746 0.5 forward I I I I #
loop $-1 $-1 $166 $47 #
coedge $-1 $104 $104 $167 $168 reversed $65 $-1 #
face $-1 $-1 $169 $37 $-1 $170 forward single #
loop $-1 $171 $172 $67 #
cone-surface $-1 -65.332962471867191 -4.5360281142346679 8.9993221976231492 0.82903758062907751 0 -0.55919289150049634 0.27959644575024817 0 0.41451879031453875 1 I I -0.70710678118654746 0.70710678118654746 0.5 forward I I I I #
loop $-1 $-1 $173 $48 #
coedge $-1 $109 $109 $174 $175 reversed $68 $-1 #
face $-1 $176 $177 $38 $-1 $178 reversed single #
loop $-1 $-1 $179 $70 #
plane-surface $-1 -47.746068929960359 -2.591758419664032 80.440841228102784 0.54463904215088732 0 0.83867056331134215 0.83867056331134215 0 -0.54463904215088732 forward_v I I I I #
coedge $-1 $180 $181 $182 $183 reversed $71 $-1 #
face $-1 $-1 $184 $39 $-1 $185 forward single #
loop $-1 $186 $187 $73 #
cone-surface $-1 59.913024612629997 -5.6955326331765903 6.3723309717605066 -0.54463904215088732 0 -0.83867056331134215 0.41933528165567108 0 -0.27231952107544366 1 I I -0.70710678118654746 0.70710678118654746 0.5 forward I I I I #
loop $-1 $-1 $188 $50 #
coedge $-1 $118 $118 $189 $190 reversed $74 $-1 #
face $-1 $-1 $191 $40 $-1 $192 forward single #
loop $-1 $193 $194 $76 #
cone-surface $-1 59.913024612629997 0.51201579384851925 6.3723309717605066 -0.54463904215088732 0 -0.83867056331134215 0.41933528165567108 0 -0.27231952107544366 1 I I -0.70710678118654746 0.70710678118654746 0.5 forward I I I I #
loop $-1 $-1 $195 $51 #
coedge $-1 $123 $123 $196 $197 reversed $77 $-1 #
face $-1 $198 $199 $41 $-1 $200 reversed single #
loop $-1 $-1 $201 $79 #
plane-surface $-1 -47.746068929960359 32.43919711091867 80.440841228102784 0.54463904215088732 0 0.83867056331134215 0.83867056331134215 0 -0.54463904215088732 forward_v I I I I #
coedge $-1 $202 $203 $204 $205 reversed $80 $-1 #
face $-1 $-1 $206 $42 $-1 $207 forward single #
loop $-1 $208 $209 $82 #
cone-surface $-1 59.913024612629997 29.335422897406119 6.3723309717605066 -0.54463904215088732 0 -0.83867056331134215 0.41933528165567108 0 -0.27231952107544366 1 I I -0.70710678118654746 0.70710678118654746 0.5 forward I I I I #
loop $-1 $-1 $210 $53 #
coedge $-1 $132 $132 $211 $212 reversed $83 $-1 #
face $-1 $-1 $213 $43 $-1 $214 forward single #
loop $-1 $215 $216 $85 #
cone-surface $-1 59.913024612629997 35.542971324431221 6.3723309717605066 -0.54463904215088732 0 -0.83867056331134215 0.41933528165567108 0 -0.27231952107544366 1 I I -0.70710678118654746 0.70710678118654746 0.5 forward I I I I #
loop $-1 $-1 $217 $54 #
coedge $-1 $137 $137 $218 $219 reversed $86 $-1 #
face $-1 $220 $221 $33 $-1 $222 reversed single #
loop $-1 $-1 $223 $88 #
plane-surface $-1 0 -44.253199492980514 0 0 1 0 0 0 1 forward_v I I I I #
coedge $-1 $224 $225 $226 $227 forward $89 $-1 #
coedge $-1 $228 $91 $229 $230 forward $56 $-1 #
coedge $-1 $91 $228 $231 $232 forward $56 $-1 #
coedge $-1 $233 $234 $91 $145 reversed $235 $-1 #
edge $-1 $236 -44.253199492980514 $237 44.253199492980514 $144 $238 forward 7 unknown #
face $-1 $239 $240 $34 $-1 $241 forward single #
loop $-1 $-1 $242 $92 #
plane-surface $-1 -55.291931325761617 -35.030955530582702 0 -1 0 0 0 0 1 forward_v I I I I #
coedge $-1 $243 $244 $245 $246 forward $93 $-1 #
coedge $-1 $247 $95 $248 $249 reversed $59 $-1 #
coedge $-1 $95 $247 $250 $251 reversed $59 $-1 #
coedge $-1 $244 $243 $95 $153 reversed $93 $-1 #
edge $-1 $252 -14.930913632454788 $253 14.930913632454788 $152 $254 forward 7 unknown #
face $-1 $255 $256 $35 $-1 $257 reversed single #
loop $-1 $-1 $258 $96 #
plane-surface $-1 -187.36886759445889 0.20420606298109156 84.76581733073408 0 -1 0 0.82903758062907751 0 -0.55919289150049634 forward_v I I I I #
coedge $-1 $259 $260 $261 $262 reversed $97 $-1 #
coedge $-1 $159 $99 $263 $264 reversed $62 $-1 #
coedge $-1 $99 $158 $259 $265 reversed $62 $-1 #
coedge $-1 $261 $266 $99 $161 forward $267 $-1 #
edge $-1 $268 23.19400134995017 $269 29.264978327748466 $160 $270 forward 7 unknown #
loop $-1 $-1 $167 $100 #
plane-surface $-1 -70.490432447279218 -8.091203747146487 5.9303198441050711 -0.82903758062907751 0 0.55919289150049634 0.55919289150049634 0 0.82903758062907751 forward_v I I I I #
loop $-1 $-1 $271 $64 #
coedge $-1 $165 $165 $166 $272 reversed $101 $-1 #
coedge $-1 $166 $166 $165 $272 forward $103 $-1 #
coedge $-1 $167 $167 $104 $168 forward $162 $-1 #
edge $-1 $273 0 $273 6.2831853071796004 $167 $274 forward 7 unknown #
loop $-1 $-1 $174 $105 #
plane-surface $-1 -70.490432447279218 -8.091203747146487 5.9303198441050711 -0.82903758062907751 0 0.55919289150049634 0.55919289150049634 0 0.82903758062907751 forward_v I I I I #
loop $-1 $-1 $275 $67 #
coedge $-1 $172 $172 $173 $276 reversed $106 $-1 #
coedge $-1 $173 $173 $172 $276 forward $108 $-1 #
coedge $-1 $174 $174 $109 $175 forward $169 $-1 #
edge $-1 $277 0 $277 6.2831853071796004 $174 $278 forward 7 unknown #
face $-1 $279 $280 $38 $-1 $281 forward single #
loop $-1 $-1 $282 $110 #
plane-surface $-1 29.037614287815671 -9.8338982511933217 198.67734260534243 0 1 0 0.54463904215088732 0 0.83867056331134215 forward_v I I I I #
coedge $-1 $283 $284 $285 $286 reversed $111 $-1 #
coedge $-1 $181 $113 $287 $288 reversed $71 $-1 #
coedge $-1 $113 $180 $283 $289 reversed $71 $-1 #
coedge $-1 $285 $290 $113 $183 forward $280 $-1 #
edge $-1 $291 -55.971625303371439 $292 -38.611564333623505 $182 $293 forward 7 unknown #
loop $-1 $-1 $189 $114 #
plane-surface $-1 -47.746068929960359 -2.591758419664032 80.440841228102784 0.54463904215088732 0 0.83867056331134215 0.83867056331134215 0 -0.54463904215088732 forward_v I I I I #
loop $-1 $-1 $294 $73 #
coedge $-1 $187 $187 $188 $295 reversed $115 $-1 #
coedge $-1 $188 $188 $187 $295 forward $117 $-1 #
coedge $-1 $189 $189 $118 $190 forward $184 $-1 #
edge $-1 $296 0 $296 6.2831853071796004 $189 $297 forward 7 unknown #
loop $-1 $-1 $196 $119 #
plane-surface $-1 -47.746068929960359 -2.591758419664032 80.440841228102784 0.54463904215088732 0 0.83867056331134215 0.83867056331134215 0 -0.54463904215088732 forward_v I I I I #
loop $-1 $-1 $298 $76 #
coedge $-1 $194 $194 $195 $299 reversed $120 $-1 #
coedge $-1 $195 $195 $194 $299 forward $122 $-1 #
coedge $-1 $196 $196 $123 $197 forward $191 $-1 #
edge $-1 $300 0 $300 6.2831853071796004 $196 $301 forward 7 unknown #
face $-1 $302 $303 $41 $-1 $304 reversed single #
loop $-1 $-1 $305 $124 #
plane-surface $-1 29.037614287815671 25.19705727938938 198.67734260534243 0 1 0 0.54463904215088732 0 0.83867056331134215 forward_v I I I I #
coedge $-1 $306 $307 $308 $309 reversed $125 $-1 #
coedge $-1 $203 $127 $310 $311 reversed $80 $-1 #
coedge $-1 $127 $202 $306 $312 reversed $80 $-1 #
coedge $-1 $308 $313 $127 $205 forward $314 $-1 #
edge $-1 $315 -55.971625303371439 $316 -38.611564333623505 $204 $317 forward 7 unknown #
loop $-1 $-1 $211 $128 #
plane-surface $-1 -47.746068929960359 32.43919711091867 80.440841228102784 0.54463904215088732 0 0.83867056331134215 0.83867056331134215 0 -0.54463904215088732 forward_v I I I I #
loop $-1 $-1 $318 $82 #
coedge $-1 $209 $209 $210 $319 reversed $129 $-1 #
coedge $-1 $210 $210 $209 $319 forward $131 $-1 #
coedge $-1 $211 $211 $132 $212 forward $206 $-1 #
edge $-1 $320 0 $320 6.2831853071796004 $211 $321 forward 7 unknown #
loop $-1 $-1 $218 $133 #
plane-surface $-1 -47.746068929960359 32.43919711091867 80.440841228102784 0.54463904215088732 0 0.83867056331134215 0.83867056331134215 0 -0.54463904215088732 forward_v I I I I #
loop $-1 $-1 $322 $85 #
coedge $-1 $216 $216 $217 $323 reversed $134 $-1 #
coedge $-1 $217 $217 $216 $323 forward $136 $-1 #
coedge $-1 $218 $218 $137 $219 forward $213 $-1 #
edge $-1 $324 0 $324 6.2831853071796004 $218 $325 forward 7 unknown #
face $-1 $326 $327 $33 $-1 $328 reversed single #
loop $-1 $-1 $329 $138 #
plane-surface $-1 -70.490432447279275 0 0 1 0 0 0 0 -1 forward_v I I I I #
coedge $-1 $330 $231 $331 $332 forward $139 $-1 #
coedge $-1 $333 $141 $330 $334 forward $89 $-1 #
coedge $-1 $141 $333 $335 $336 forward $89 $-1 #
coedge $-1 $234 $233 $141 $227 reversed $235 $-1 #
edge $-1 $337 -44.253199492980514 $338 44.253199492980514 $226 $339 forward 7 unknown #
coedge $-1 $143 $142 $340 $341 forward $56 $-1 #
coedge $-1 $342 $343 $142 $230 reversed $327 $-1 #
edge $-1 $237 -70.490432447279275 $344 70.490432447279275 $229 $345 forward 7 unknown #
coedge $-1 $223 $346 $143 $232 reversed $139 $-1 #
edge $-1 $347 -70.490432447279275 $236 70.490432447279275 $231 $348 forward 7 unknown #
coedge $-1 $226 $144 $346 $349 forward $235 $-1 #
coedge $-1 $144 $226 $342 $350 reversed $235 $-1 #
loop $-1 $-1 $233 $326 #
vertex $-1 $145 $351 #
vertex $-1 $145 $352 #
straight-curve $-1 70.490432447279275 0 14.930913632454788 0 1 0 I I #
face $-1 $353 $354 $34 $-1 $355 reversed single #
loop $-1 $-1 $356 $146 #
plane-surface $-1 0 0 14.930913632454788 0 0 1 1 0 0 forward_v I I I I #
coedge $-1 $357 $358 $359 $360 reversed $147 $-1 #
coedge $-1 $152 $149 $361 $362 reversed $93 $-1 #
coedge $-1 $149 $152 $363 $364 reversed $93 $-1 #
coedge $-1 $358 $357 $149 $246 reversed $147 $-1 #
edge $-1 $365 -14.930913632454788 $366 14.930913632454788 $245 $367 forward 7 unknown #
coedge $-1 $151 $150 $368 $369 reversed $59 $-1 #
coedge $-1 $361 $370 $150 $249 forward $354 $-1 #
edge $-1 $371 -26.737721727689163 $253 -8.2932338028935355 $248 $372 forward 7 unknown #
coedge $-1 $373 $363 $151 $251 forward $240 $-1 #
edge $-1 $252 8.2932338028935355 $374 26.737721727689163 $250 $375 forward 7 unknown #
vertex $-1 $251 $376 #
vertex $-1 $249 $377 #
straight-curve $-1 -60.044105716852378 -25.808711568184886 0 0 0 -1 I I #
face $-1 $-1 $267 $35 $-1 $378 forward single #
loop $-1 $-1 $379 $154 #
plane-surface $-1 -70.490432447279275 0 0 1 0 0 0 0 -1 forward_v I I I I #
coedge $-1 $380 $381 $382 $383 reversed $155 $-1 #
coedge $-1 $384 $157 $159 $265 forward $97 $-1 #
coedge $-1 $157 $384 $380 $385 forward $97 $-1 #
coedge $-1 $382 $160 $157 $262 forward $267 $-1 #
edge $-1 $269 -12.341011683700824 $386 4.2498079365543351 $261 $387 forward 7 unknown #
coedge $-1 $388 $389 $158 $264 forward $256 $-1 #
edge $-1 $390 -36.452588821262054 $268 -27.451995032912251 $263 $391 forward 7 unknown #
edge $-1 $269 -10.856677668966494 $390 1.0173809813788825e-013 $159 $392 forward 7 unknown #
coedge $-1 $160 $382 $388 $393 forward $267 $-1 #
loop $-1 $-1 $382 $255 #
vertex $-1 $264 $394 #
vertex $-1 $161 $395 #
straight-curve $-1 -93.684433797229445 -16.386613557274067 14.930913632454789 1 0 0 I I #
coedge $-1 $271 $271 $-1 $396 reversed $164 $-1 #
edge $-1 $397 0 $397 6.2831853071796004 $165 $398 forward 7 unknown #
vertex $-1 $168 $399 #
ellipse-curve $-1 -67.454943958380113 -11.646379380058306 10.430616738279907 -0.82903758062907751 0 0.55919289150049634 0.55919289150049634 0 0.82903758062907751 1 I I #
coedge $-1 $275 $275 $-1 $400 reversed $171 $-1 #
edge $-1 $401 0 $401 6.2831853071796004 $172 $402 forward 7 unknown #
vertex $-1 $175 $403 #
ellipse-curve $-1 -67.454943958380113 -4.5360281142346679 10.430616738279907 -0.82903758062907751 0 0.55919289150049634 0.55919289150049634 0 0.82903758062907751 1 I I #
face $-1 $-1 $404 $38 $-1 $405 reversed single #
loop $-1 $-1 $182 $176 #
plane-surface $-1 0 0 14.930913632454788 0 0 1 1 0 0 forward_v I I I I #
coedge $-1 $406 $407 $408 $409 reversed $177 $-1 #
coedge $-1 $410 $179 $181 $289 forward $111 $-1 #
coedge $-1 $179 $410 $406 $411 forward $111 $-1 #
coedge $-1 $408 $182 $179 $286 forward $280 $-1 #
edge $-1 $292 -5.9462606216972738 $412 8.5380190413613057 $285 $413 forward 7 unknown #
coedge $-1 $414 $415 $180 $288 forward $404 $-1 #
edge $-1 $416 -95.681513292344462 $291 -84.407757670216427 $287 $417 forward 7 unknown #
edge $-1 $292 120.28136531846181 $416 140.98086489455858 $181 $418 forward 7 unknown #
coedge $-1 $182 $408 $414 $419 forward $280 $-1 #
vertex $-1 $288 $420 #
vertex $-1 $183 $421 #
straight-curve $-1 14.518807143907836 4.6503814118652578 14.930913632454789 -1 0 0 I I #
coedge $-1 $294 $294 $-1 $422 reversed $186 $-1 #
edge $-1 $423 0 $423 6.2831853071796004 $187 $424 forward 7 unknown #
vertex $-1 $190 $425 #
ellipse-curve $-1 61.810401962405301 -5.6955326331765903 9.2940358213907821 0.54463904215088732 0 0.83867056331134215 0.83867056331134215 0 -0.54463904215088732 1 I I #
coedge $-1 $298 $298 $-1 $426 reversed $193 $-1 #
edge $-1 $427 0 $427 6.2831853071796004 $194 $428 forward 7 unknown #
vertex $-1 $197 $429 #
ellipse-curve $-1 61.810401962405301 0.51201579384851925 9.2940358213907821 0.54463904215088732 0 0.83867056331134215 0.83867056331134215 0 -0.54463904215088732 1 I I #
face $-1 $-1 $314 $41 $-1 $430 forward single #
loop $-1 $-1 $431 $198 #
plane-surface $-1 70.490432447279275 0 0 -1 0 0 0 0 1 forward_v I I I I #
coedge $-1 $432 $433 $434 $435 reversed $199 $-1 #
coedge $-1 $436 $201 $203 $312 forward $125 $-1 #
coedge $-1 $201 $436 $432 $437 forward $125 $-1 #
coedge $-1 $434 $204 $201 $309 forward $314 $-1 #
edge $-1 $316 -23.461738386988621 $438 -8.9774587239300452 $308 $439 forward 7 unknown #
coedge $-1 $440 $441 $202 $311 forward $303 $-1 #
edge $-1 $442 -95.681513292344462 $315 -84.407757670216427 $310 $443 forward 7 unknown #
edge $-1 $316 120.28136531846181 $442 140.98086489455858 $203 $444 forward 7 unknown #
coedge $-1 $204 $434 $440 $445 forward $314 $-1 #
loop $-1 $-1 $434 $302 #
vertex $-1 $311 $446 #
vertex $-1 $205 $447 #
straight-curve $-1 14.518807143907836 39.681336942447956 14.930913632454789 -1 0 0 I I #
coedge $-1 $318 $318 $-1 $448 reversed $208 $-1 #
edge $-1 $449 0 $449 6.2831853071796004 $209 $450 forward 7 unknown #
vertex $-1 $212 $451 #
ellipse-curve $-1 61.810401962405301 29.335422897406119 9.2940358213907821 0.54463904215088732 0 0.83867056331134215 0.83867056331134215 0 -0.54463904215088732 1 I I #
coedge $-1 $322 $322 $-1 $452 reversed $215 $-1 #
edge $-1 $453 0 $453 6.2831853071796004 $216 $454 forward 7 unknown #
vertex $-1 $219 $455 #
ellipse-curve $-1 61.810401962405301 35.542971324431221 9.2940358213907821 0.54463904215088732 0 0.83867056331134215 0.83867056331134215 0 -0.54463904215088732 1 I I #
face $-1 $-1 $235 $33 $-1 $456 reversed single #
loop $-1 $-1 $342 $220 #
plane-surface $-1 0 44.253199492980514 0 0 -1 0 0 0 -1 forward_v I I I I #
coedge $-1 $457 $340 $343 $458 forward $221 $-1 #
coedge $-1 $346 $223 $224 $334 reversed $139 $-1 #
coedge $-1 $340 $457 $223 $332 reversed $221 $-1 #
edge $-1 $347 -14.930913632454788 $459 14.930913632454788 $331 $460 forward 7 unknown #
coedge $-1 $225 $224 $457 $461 forward $89 $-1 #
edge $-1 $338 -70.490432447279275 $459 70.490432447279275 $330 $462 forward 7 unknown #
coedge $-1 $343 $342 $225 $336 reversed $327 $-1 #
edge $-1 $463 -70.490432447279275 $337 70.490432447279275 $335 $464 forward 7 unknown #
vertex $-1 $227 $465 #
vertex $-1 $349 $466 #
straight-curve $-1 70.490432447279275 0 -14.930913632454788 0 -1 0 I I #
coedge $-1 $329 $331 $228 $341 reversed $221 $-1 #
edge $-1 $344 -44.253199492980514 $347 44.253199492980514 $340 $467 forward 7 unknown #
coedge $-1 $335 $229 $234 $350 forward $327 $-1 #
coedge $-1 $229 $335 $329 $458 reversed $327 $-1 #
vertex $-1 $230 $468 #
straight-curve $-1 0 44.253199492980514 14.930913632454788 -1 0 0 I I #
coedge $-1 $231 $330 $233 $349 reversed $139 $-1 #
vertex $-1 $341 $469 #
straight-curve $-1 0 -44.253199492980514 14.930913632454788 1 0 0 I I #
edge $-1 $236 -14.930913632454788 $338 14.930913632454788 $233 $470 forward 7 unknown #
edge $-1 $237 -14.930913632454788 $337 14.930913632454788 $234 $471 forward 7 unknown #
point $-1 70.490432447279275 -44.253199492980514 14.930913632454788 #
point $-1 70.490432447279275 44.253199492980514 14.930913632454788 #
face $-1 $-1 $472 $34 $-1 $473 reversed single #
loop $-1 $-1 $474 $239 #
plane-surface $-1 0 0 -14.930913632454788 0 0 1 1 0 0 forward_v I I I I #
coedge $-1 $363 $373 $358 $475 forward $240 $-1 #
coedge $-1 $245 $242 $474 $476 reversed $147 $-1 #
coedge $-1 $242 $245 $356 $475 reversed $147 $-1 #
coedge $-1 $477 $478 $242 $360 forward $472 $-1 #
edge $-1 $479 -14.930913632454788 $480 14.930913632454788 $359 $481 forward 7 unknown #
coedge $-1 $474 $248 $243 $362 forward $354 $-1 #
edge $-1 $253 -31.21009645619888 $366 -26.457922065108118 $361 $482 forward 7 unknown #
coedge $-1 $250 $356 $244 $364 forward $240 $-1 #
edge $-1 $365 26.457922065108118 $252 31.21009645619888 $363 $483 forward 7 unknown #
vertex $-1 $364 $484 #
vertex $-1 $362 $485 #
straight-curve $-1 -55.291931325761617 -25.808711568184886 0 0 0 -1 I I #
coedge $-1 $478 $477 $247 $369 forward $472 $-1 #
edge $-1 $374 -14.930913632454788 $371 14.930913632454788 $368 $486 forward 7 unknown #
coedge $-1 $248 $474 $478 $487 forward $354 $-1 #
vertex $-1 $249 $488 #
straight-curve $-1 -60.044105716852378 -17.515477765291351 -14.930913632454788 0 1 0 I I #
coedge $-1 $356 $250 $477 $489 forward $240 $-1 #
vertex $-1 $489 $490 #
straight-curve $-1 -60.044105716852378 -17.515477765291351 14.930913632454788 0 -1 0 I I #
point $-1 -60.044105716852378 -25.808711568184886 14.930913632454788 #
point $-1 -60.044105716852378 -25.808711568184886 -14.930913632454788 #
plane-surface $-1 0 0 14.930913632454788 0 0 1 1 0 0 forward_v I I I I #
coedge $-1 $389 $388 $381 $491 forward $256 $-1 #
coedge $-1 $381 $258 $260 $385 reversed $155 $-1 #
coedge $-1 $258 $380 $379 $491 reversed $155 $-1 #
coedge $-1 $266 $261 $258 $383 forward $267 $-1 #
edge $-1 $386 -29.264978327748466 $492 -23.19400134995017 $382 $493 forward 7 unknown #
coedge $-1 $260 $259 $389 $494 reversed $97 $-1 #
edge $-1 $495 -1.0173809813788825e-013 $386 10.856677668966494 $380 $496 forward 7 unknown #
vertex $-1 $262 $497 #
straight-curve $-1 -64.41945546948098 -4.0456018735732435 14.930913632454788 0 1 0 I I #
coedge $-1 $379 $263 $266 $393 reversed $256 $-1 #
coedge $-1 $263 $379 $384 $494 forward $256 $-1 #
vertex $-1 $264 $498 #
straight-curve $-1 -70.490432447279275 -16.386613557274067 42.38290866536704 0 0 1 I I #
straight-curve $-1 -70.490432447279218 -16.386613557274067 5.9303198441050711 -0.55919289150049634 0 -0.82903758062907751 I I #
edge $-1 $492 -0.20420606298109156 $268 16.386613557274067 $388 $499 forward 7 unknown #
point $-1 -70.490432447279275 -16.386613557274067 14.930913632454788 #
point $-1 -64.41945546948098 -16.386613557274067 14.930913632454788 #
edge $-1 $500 1 $500 0 $271 $-1 forward 7 unknown #
vertex $-1 $272 $501 #
ellipse-curve $-1 -65.747481262181736 -11.646379380058306 9.2789186433733981 -0.82903758062907751 0 0.55919289150049634 0.55919289150049634 0 0.82903758062907751 1 I I #
point $-1 -66.895751066879654 -11.646379380058306 11.259654318909011 #
edge $-1 $502 1 $502 0 $275 $-1 forward 7 unknown #
vertex $-1 $276 $503 #
ellipse-curve $-1 -65.747481262181736 -4.5360281142346679 9.2789186433733981 -0.82903758062907751 0 0.55919289150049634 0.55919289150049634 0 0.82903758062907751 1 I I #
point $-1 -66.895751066879654 -4.5360281142346679 11.259654318909011 #
loop $-1 $-1 $287 $279 #
plane-surface $-1 70.490432447279275 0 0 -1 0 0 0 0 1 forward_v I I I I #
coedge $-1 $407 $282 $284 $411 reversed $177 $-1 #
coedge $-1 $282 $406 $504 $505 reversed $177 $-1 #
coedge $-1 $290 $285 $282 $409 forward $280 $-1 #
edge $-1 $412 38.611564333623505 $506 55.971625303371439 $408 $507 forward 7 unknown #
coedge $-1 $284 $283 $415 $508 reversed $111 $-1 #
edge $-1 $509 -140.98086489455858 $412 -120.28136531846181 $406 $510 forward 7 unknown #
vertex $-1 $286 $511 #
straight-curve $-1 53.130371477531341 -1.295879209832016 14.930913632454782 0 -1 0 I I #
coedge $-1 $504 $287 $290 $419 reversed $404 $-1 #
coedge $-1 $287 $504 $410 $508 forward $404 $-1 #
vertex $-1 $288 $512 #
straight-curve $-1 70.490432447279275 4.6503814118652578 99.338671302671216 0 0 1 I I #
straight-curve $-1 -47.746068929960359 4.6503814118652578 80.440841228102784 0.83867056331134215 0 -0.54463904215088732 I I #
edge $-1 $506 -9.8338982511933217 $291 4.6503814118652578 $414 $513 forward 7 unknown #
point $-1 70.490432447279275 4.6503814118652578 14.930913632454788 #
point $-1 53.130371477531341 4.6503814118652578 14.930913632454789 #
edge $-1 $514 1 $514 0 $294 $-1 forward 7 unknown #
vertex $-1 $295 $515 #
ellipse-curve $-1 60.185344133705442 -5.6955326331765903 6.791666253416178 0.54463904215088732 0 0.83867056331134215 0.83867056331134215 0 -0.54463904215088732 1 I I #
point $-1 62.649072525716633 -5.6955326331765903 8.749396779239877 #
edge $-1 $516 1 $516 0 $298 $-1 forward 7 unknown #
vertex $-1 $299 $517 #
ellipse-curve $-1 60.185344133705442 0.51201579384851925 6.791666253416178 0.54463904215088732 0 0.83867056331134215 0.83867056331134215 0 -0.54463904215088732 1 I I #
point $-1 62.649072525716633 0.51201579384851925 8.749396779239877 #
plane-surface $-1 0 0 14.930913632454788 0 0 1 1 0 0 forward_v I I I I #
coedge $-1 $441 $440 $433 $518 forward $303 $-1 #
coedge $-1 $433 $305 $307 $437 reversed $199 $-1 #
coedge $-1 $305 $432 $431 $518 reversed $199 $-1 #
coedge $-1 $313 $308 $305 $435 forward $314 $-1 #
edge $-1 $438 38.611564333623505 $519 55.971625303371439 $434 $520 forward 7 unknown #
coedge $-1 $307 $306 $441 $521 reversed $125 $-1 #
edge $-1 $522 -140.98086489455858 $438 -120.28136531846181 $432 $523 forward 7 unknown #
vertex $-1 $309 $524 #
straight-curve $-1 53.130371477531341 16.219598555459335 14.930913632454782 0 -1 0 I I #
coedge $-1 $431 $310 $313 $445 reversed $303 $-1 #
coedge $-1 $310 $431 $436 $521 forward $303 $-1 #
vertex $-1 $311 $525 #
straight-curve $-1 70.490432447279275 39.681336942447956 99.338671302671216 0 0 1 I I #
straight-curve $-1 -47.746068929960359 39.681336942447956 80.440841228102784 0.83867056331134215 0 -0.54463904215088732 I I #
edge $-1 $519 25.19705727938938 $315 39.681336942447956 $440 $526 forward 7 unknown #
point $-1 70.490432447279275 39.681336942447956 14.930913632454788 #
point $-1 53.130371477531341 39.681336942447956 14.930913632454789 #
edge $-1 $527 1 $527 0 $318 $-1 forward 7 unknown #
vertex $-1 $319 $528 #
ellipse-curve $-1 60.185344133705442 29.335422897406119 6.791666253416178 0.54463904215088732 0 0.83867056331134215 0.83867056331134215 0 -0.54463904215088732 1 I I #
point $-1 62.649072525716633 29.335422897406119 8.749396779239877 #
edge $-1 $529 1 $529 0 $322 $-1 forward 7 unknown #
vertex $-1 $323 $530 #
ellipse-curve $-1 60.185344133705442 35.542971324431221 6.791666253416178 0.54463904215088732 0 0.83867056331134215 0.83867056331134215 0 -0.54463904215088732 1 I I #
point $-1 62.649072525716633 35.542971324431221 8.749396779239877 #
plane-surface $-1 70.490432447279275 0 0 -1 0 0 0 0 1 forward_v I I I I #
coedge $-1 $331 $329 $333 $461 reversed $221 $-1 #
edge $-1 $344 -14.930913632454788 $463 14.930913632454788 $343 $531 forward 7 unknown #
vertex $-1 $461 $532 #
straight-curve $-1 -70.490432447279275 -44.253199492980514 0 0 0 -1 I I #
edge $-1 $459 -44.253199492980514 $463 44.253199492980514 $457 $533 forward 7 unknown #
straight-curve $-1 0 -44.253199492980514 -14.930913632454788 -1 0 0 I I #
vertex $-1 $336 $534 #
straight-curve $-1 0 44.253199492980514 -14.930913632454788 1 0 0 I I #
point $-1 70.490432447279275 44.253199492980514 -14.930913632454788 #
point $-1 70.490432447279275 -44.253199492980514 -14.930913632454788 #
straight-curve $-1 -70.490432447279275 0 14.930913632454788 0 -1 0 I I #
point $-1 -70.490432447279275 44.253199492980514 14.930913632454788 #
point $-1 -70.490432447279275 -44.253199492980514 14.930913632454788 #
straight-curve $-1 70.490432447279275 -44.253199492980514 0 0 0 -1 I I #
straight-curve $-1 70.490432447279275 44.253199492980514 0 0 0 -1 I I #
loop $-1 $-1 $359 $353 #
plane-surface $-1 0 -44.253199492980514 0 0 1 0 0 0 1 forward_v I I I I #
coedge $-1 $370 $361 $357 $476 forward $354 $-1 #
edge $-1 $480 -26.737721727689163 $365 -8.2932338028935355 $356 $535 forward 7 unknown #
edge $-1 $366 8.2932338028935355 $479 26.737721727689163 $474 $536 forward 7 unknown #
coedge $-1 $368 $359 $373 $489 reversed $472 $-1 #
coedge $-1 $359 $368 $370 $487 reversed $472 $-1 #
vertex $-1 $487 $537 #
vertex $-1 $360 $538 #
straight-curve $-1 -55.291931325761617 -44.253199492980514 0 0 0 1 I I #
straight-curve $-1 -28.834009260653499 -25.808711568184886 -14.930913632454788 1 0 0 I I #
straight-curve $-1 -28.834009260653499 -25.808711568184886 14.930913632454788 -1 0 0 I I #
point $-1 -55.291931325761617 -25.808711568184886 14.930913632454788 #
point $-1 -55.291931325761617 -25.808711568184886 -14.930913632454788 #
straight-curve $-1 -60.044105716852378 -44.253199492980514 0 0 0 -1 I I #
edge $-1 $479 55.291931325761617 $371 60.044105716852378 $478 $539 forward 7 unknown #
point $-1 -60.044105716852378 -44.253199492980514 -14.930913632454788 #
edge $-1 $374 -60.044105716852378 $480 -55.291931325761617 $477 $540 forward 7 unknown #
point $-1 -60.044105716852378 -44.253199492980514 14.930913632454788 #
edge $-1 $492 27.451995032912251 $495 36.452588821262054 $379 $541 forward 7 unknown #
vertex $-1 $393 $542 #
straight-curve $-1 -93.684433797229445 0.20420606298109156 14.930913632454789 -1 0 0 I I #
edge $-1 $495 -4.2498079365543351 $390 12.341011683700824 $389 $543 forward 7 unknown #
vertex $-1 $494 $544 #
straight-curve $-1 -70.490432447279218 0.20420606298109156 5.9303198441050711 0.55919289150049634 0 0.82903758062907751 I I #
point $-1 -64.41945546948098 0.20420606298109156 14.930913632454788 #
point $-1 -70.490432447279275 -16.386613557274067 5.9303198441049867 #
straight-curve $-1 -70.490432447279275 0 14.930913632454788 0 -1 0 I I #
vertex $-1 $396 $545 #
point $-1 -65.188288370681235 -11.646379380058306 10.107956224002475 #
vertex $-1 $400 $546 #
point $-1 -65.188288370681235 -4.5360281142346679 10.107956224002475 #
coedge $-1 $415 $414 $407 $505 forward $404 $-1 #
edge $-1 $506 84.407757670216427 $509 95.681513292344462 $504 $547 forward 7 unknown #
vertex $-1 $419 $548 #
straight-curve $-1 14.518807143907836 -9.8338982511933217 14.930913632454789 1 0 0 I I #
edge $-1 $509 -8.5380190413613057 $416 5.9462606216972738 $415 $549 forward 7 unknown #
vertex $-1 $508 $550 #
straight-curve $-1 -47.746068929960359 -9.8338982511933217 80.440841228102784 -0.83867056331134215 0 0.54463904215088732 I I #
point $-1 53.130371477531341 -9.8338982511933217 14.930913632454789 #
point $-1 70.490432447279289 4.6503814118652578 3.6571580103267536 #
straight-curve $-1 70.490432447279275 0 14.930913632454788 0 1 0 I I #
vertex $-1 $422 $551 #
point $-1 61.024014697016781 -5.6955326331765903 6.2470272112652907 #
vertex $-1 $426 $552 #
point $-1 61.024014697016781 0.51201579384851925 6.2470272112652907 #
edge $-1 $519 84.407757670216427 $522 95.681513292344462 $431 $553 forward 7 unknown #
vertex $-1 $445 $554 #
straight-curve $-1 14.518807143907836 25.19705727938938 14.930913632454789 1 0 0 I I #
edge $-1 $522 8.9774587239300452 $442 23.461738386988621 $441 $555 forward 7 unknown #
vertex $-1 $521 $556 #
straight-curve $-1 -47.746068929960359 25.19705727938938 80.440841228102784 -0.83867056331134215 0 0.54463904215088732 I I #
point $-1 53.130371477531341 25.19705727938938 14.930913632454789 #
point $-1 70.490432447279289 39.681336942447956 3.6571580103267536 #
straight-curve $-1 70.490432447279275 0 14.930913632454788 0 1 0 I I #
vertex $-1 $448 $557 #
point $-1 61.024014697016781 29.335422897406119 6.2470272112652907 #
vertex $-1 $452 $558 #
point $-1 61.024014697016781 35.542971324431221 6.2470272112652907 #
straight-curve $-1 -70.490432447279275 44.253199492980514 0 0 0 -1 I I #
point $-1 -70.490432447279275 -44.253199492980514 -14.930913632454788 #
straight-curve $-1 -70.490432447279275 0 -14.930913632454788 0 1 0 I I #
point $-1 -70.490432447279275 44.253199492980514 -14.930913632454788 #
straight-curve $-1 -55.291931325761617 -17.515477765291351 14.930913632454788 0 1 0 I I #
straight-curve $-1 -55.291931325761617 -17.515477765291351 -14.930913632454788 0 -1 0 I I #
point $-1 -55.291931325761617 -44.253199492980514 -14.930913632454788 #
point $-1 -55.291931325761617 -44.253199492980514 14.930913632454788 #
straight-curve $-1 0 -44.253199492980514 -14.930913632454788 -1 0 0 I I #
straight-curve $-1 0 -44.253199492980514 14.930913632454788 1 0 0 I I #
straight-curve $-1 -70.490432447279275 0.20420606298109156 42.38290866536704 0 0 -1 I I #
point $-1 -70.490432447279275 0.20420606298109156 14.930913632454788 #
straight-curve $-1 -70.490432447279275 -4.0456018735732435 5.9303198441049911 0 -1 0 I I #
point $-1 -70.490432447279275 0.20420606298109156 5.9303198441049867 #
point $-1 -64.918443681552645 -11.646379380058306 8.7197257518729003 #
point $-1 -64.918443681552645 -4.5360281142346679 8.7197257518729003 #
straight-curve $-1 70.490432447279275 -9.8338982511933217 99.338671302671216 0 0 -1 I I #
point $-1 70.490432447279275 -9.8338982511933217 14.930913632454788 #
straight-curve $-1 70.490432447279275 -1.295879209832016 3.6571580103267607 0 1 0 I I #
point $-1 70.490432447279289 -9.8338982511933217 3.6571580103267536 #
point $-1 59.640705091554551 -5.6955326331765903 5.9529956901048351 #
point $-1 59.640705091554551 0.51201579384851925 5.9529956901048351 #
straight-curve $-1 70.490432447279275 25.19705727938938 99.338671302671216 0 0 -1 I I #
point $-1 70.490432447279275 25.19705727938938 14.930913632454788 #
straight-curve $-1 70.490432447279275 16.219598555459335 3.6571580103267607 0 1 0 I I #
point $-1 70.490432447279289 25.19705727938938 3.6571580103267536 #
point $-1 59.640705091554551 29.335422897406119 5.9529956901048351 #
point $-1 59.640705091554551 35.542971324431221 5.9529956901048351 #
End-of-ACIS-data 