500 0 11 0           
7 Unknown 11 ACIS 5.0 NT 24 Fri Mar 26 18:36:17 1999 
-1 9.9999999999999995e-007 1e-010 
body $-1 $11 $-1 $12 #
body $-1 $13 $-1 $14 #
body $-1 $15 $-1 $16 #
body $-1 $17 $-1 $18 #
body $-1 $19 $-1 $20 #
body $-1 $21 $-1 $22 #
body $-1 $23 $-1 $24 #
body $-1 $25 $-1 $26 #
body $-1 $27 $-1 $28 #
body $-1 $29 $-1 $30 #
body $-1 $31 $-1 $32 #
lump $-1 $-1 $33 $0 #
transform $-1 1 0 0 0 1 0 0 0 1 51.626331369975887 34.991740349404324 11.796510506597944 1 rotate no_reflect no_shear #
lump $-1 $-1 $34 $1 #
transform $-1 1 0 0 0 1 0 0 0 1 51.626331369975887 34.991740349404324 11.796510506597944 1 rotate no_reflect no_shear #
lump $-1 $-1 $35 $2 #
transform $-1 1 0 0 0 1 0 0 0 1 51.626331369975887 34.991740349404324 11.796510506597944 1 rotate no_reflect no_shear #
lump $-1 $-1 $36 $3 #
transform $-1 1 0 0 0 1 0 0 0 1 51.626331369975887 34.991740349404324 11.796510506597944 1 rotate no_reflect no_shear #
lump $-1 $-1 $37 $4 #
transform $-1 1 0 0 0 1 0 0 0 1 51.626331369975887 34.991740349404324 11.796510506597944 1 rotate no_reflect no_shear #
lump $-1 $-1 $38 $5 #
transform $-1 1 0 0 0 1 0 0 0 1 51.626331369975887 34.991740349404324 11.796510506597944 1 rotate no_reflect no_shear #
lump $-1 $-1 $39 $6 #
transform $-1 1 0 0 0 1 0 0 0 1 51.626331369975887 34.991740349404324 11.796510506597944 1 rotate no_reflect no_shear #
lump $-1 $-1 $40 $7 #
transform $-1 1 0 0 0 1 0 0 0 1 51.626331369975887 34.991740349404324 11.796510506597944 1 rotate no_reflect no_shear #
lump $-1 $-1 $41 $8 #
transform $-1 1 0 0 0 1 0 0 0 1 51.626331369975887 34.991740349404324 11.796510506597944 1 rotate no_reflect no_shear #
lump $-1 $-1 $42 $9 #
transform $-1 1 0 0 0 1 0 0 0 1 51.626331369975887 34.991740349404324 11.796510506597944 1 rotate no_reflect no_shear #
lump $-1 $-1 $43 $10 #
transform $-1 1 0 0 0 1 0 0 0 1 51.626331369975887 34.991740349404324 11.796510506597944 1 rotate no_reflect no_shear #
shell $-1 $-1 $-1 $44 $-1 $11 #
shell $-1 $-1 $-1 $45 $-1 $13 #
shell $-1 $-1 $-1 $46 $-1 $15 #
shell $-1 $-1 $-1 $47 $-1 $17 #
shell $-1 $-1 $-1 $48 $-1 $19 #
shell $-1 $-1 $-1 $49 $-1 $21 #
shell $-1 $-1 $-1 $50 $-1 $23 #
shell $-1 $-1 $-1 $51 $-1 $25 #
shell $-1 $-1 $-1 $52 $-1 $27 #
shell $-1 $-1 $-1 $53 $-1 $29 #
shell $-1 $-1 $-1 $54 $-1 $31 #
face $-1 $55 $56 $33 $-1 $57 forward single #
face $-1 $58 $59 $34 $-1 $60 forward single #
face $-1 $61 $62 $35 $-1 $63 forward single #
face $-1 $64 $65 $36 $-1 $66 reversed single #
face $-1 $67 $68 $37 $-1 $69 forward single #
face $-1 $70 $71 $38 $-1 $72 forward single #
face $-1 $73 $74 $39 $-1 $75 forward single #
face $-1 $76 $77 $40 $-1 $78 reversed single #
face $-1 $79 $80 $41 $-1 $81 forward single #
face $-1 $82 $83 $42 $-1 $84 forward single #
face $-1 $85 $86 $43 $-1 $87 forward single #
face $-1 $88 $89 $33 $-1 $90 reversed single #
loop $-1 $-1 $91 $44 #
plane-surface $-1 0 0 11.796510506597944 0 0 1 1 0 0 forward_v I I I I #
face $-1 $92 $93 $34 $-1 $94 reversed single #
loop $-1 $-1 $95 $45 #
plane-surface $-1 0 -34.991740349404324 0 0 1 0 0 0 1 forward_v I I I I #
face $-1 $96 $97 $35 $-1 $98 reversed single #
loop $-1 $-1 $99 $46 #
plane-surface $-1 0 34.991740349404324 0 0 -1 0 0 0 -1 forward_v I I I I #
face $-1 $100 $101 $36 $-1 $102 reversed single #
loop $-1 $-1 $103 $47 #
plane-surface $-1 56.722403574582643 25.657315346623403 152.75169289563956 0 -1 0 -0.73135370988377701 0 -0.68199835119979291 forward_v I I I I #
face $-1 $104 $105 $37 $-1 $106 forward single #
loop $-1 $107 $108 $48 #
cone-surface $-1 48.940006243882138 17.98845288833698 8.9669206775800685 -0.73135370988377701 0 -0.68199835119979291 0.34099917559989645 0 -0.36567685494188851 1 I I 0 1 0.5 forward I I I I #
face $-1 $109 $110 $38 $-1 $111 forward single #
loop $-1 $112 $113 $49 #
cone-surface $-1 48.940006243882138 20.864276310194391 8.9669206775800685 -0.73135370988377701 0 -0.68199835119979291 0.34099917559989645 0 -0.36567685494188851 1 I I 0 1 0.5 forward I I I I #
face $-1 $114 $115 $39 $-1 $116 forward single #
loop $-1 $117 $118 $50 #
cone-surface $-1 48.940006243882138 23.740099732051803 8.9669206775800685 -0.73135370988377701 0 -0.68199835119979291 0.34099917559989645 0 -0.36567685494188851 1 I I 0 1 0.5 forward I I I I #
face $-1 $119 $120 $40 $-1 $121 reversed single #
loop $-1 $-1 $122 $51 #
plane-surface $-1 -127.14054932021804 16.071237273765366 77.237474945397395 0 1 0 -0.73135370988377701 0 0.68199835119979291 forward_v I I I I #
face $-1 $123 $124 $41 $-1 $125 forward single #
loop $-1 $126 $127 $52 #
cone-surface $-1 -48.940006243882152 17.98845288833698 8.9669206775800685 0.73135370988377701 0 -0.68199835119979291 0.34099917559989645 0 0.36567685494188851 1 I I 0 1 0.5 forward I I I I #
face $-1 $128 $129 $42 $-1 $130 forward single #
loop $-1 $131 $132 $53 #
cone-surface $-1 -48.940006243882152 20.864276310194391 8.9669206775800685 0.73135370988377701 0 -0.68199835119979291 0.34099917559989645 0 0.36567685494188851 1 I I 0 1 0.5 forward I I I I #
face $-1 $133 $134 $43 $-1 $135 forward single #
loop $-1 $136 $137 $54 #
cone-surface $-1 -48.940006243882152 23.740099732051803 8.9669206775800685 0.73135370988377701 0 -0.68199835119979291 0.34099917559989645 0 0.36567685494188851 1 I I 0 1 0.5 forward I I I I #
face $-1 $138 $139 $33 $-1 $140 reversed single #
loop $-1 $-1 $141 $55 #
plane-surface $-1 0 0 -11.796510506597944 0 0 1 1 0 0 forward_v I I I I #
coedge $-1 $142 $143 $144 $145 forward $56 $-1 #
face $-1 $146 $147 $34 $-1 $148 reversed single #
loop $-1 $-1 $149 $58 #
plane-surface $-1 0 0 -11.796510506597944 0 0 1 1 0 0 forward_v I I I I #
coedge $-1 $150 $151 $152 $153 forward $59 $-1 #
face $-1 $154 $155 $35 $-1 $156 reversed single #
loop $-1 $-1 $157 $61 #
plane-surface $-1 0 0 -11.796510506597944 0 0 1 1 0 0 forward_v I I I I #
coedge $-1 $158 $159 $160 $161 forward $62 $-1 #
face $-1 $162 $163 $36 $-1 $164 reversed single #
loop $-1 $-1 $165 $64 #
plane-surface $-1 -18.791814375659513 20.864276310194384 82.333547150004165 0.73135370988377701 0 0.68199835119979291 0.68199835119979291 0 -0.73135370988377701 forward_v I I I I #
coedge $-1 $166 $167 $168 $169 reversed $65 $-1 #
face $-1 $-1 $170 $37 $-1 $171 forward single #
loop $-1 $172 $173 $67 #
cone-surface $-1 48.391490961469302 17.98845288833698 8.4554219141802243 -0.73135370988377701 0 -0.68199835119979291 0.17049958779994823 0 -0.18283842747094425 1 I I -0.70710678118654746 0.70710678118654746 0.25 forward I I I I #
loop $-1 $-1 $174 $48 #
coedge $-1 $108 $108 $175 $176 reversed $68 $-1 #
face $-1 $-1 $177 $38 $-1 $178 forward single #
loop $-1 $179 $180 $70 #
cone-surface $-1 48.391490961469302 20.864276310194391 8.4554219141802243 -0.73135370988377701 0 -0.68199835119979291 0.17049958779994823 0 -0.18283842747094425 1 I I -0.70710678118654746 0.70710678118654746 0.25 forward I I I I #
loop $-1 $-1 $181 $49 #
coedge $-1 $113 $113 $182 $183 reversed $71 $-1 #
face $-1 $-1 $184 $39 $-1 $185 forward single #
loop $-1 $186 $187 $73 #
cone-surface $-1 48.391490961469302 23.740099732051803 8.4554219141802243 -0.73135370988377701 0 -0.68199835119979291 0.17049958779994823 0 -0.18283842747094425 1 I I -0.70710678118654746 0.70710678118654746 0.25 forward I I I I #
loop $-1 $-1 $188 $50 #
coedge $-1 $118 $118 $189 $190 reversed $74 $-1 #
face $-1 $191 $192 $40 $-1 $193 reversed single #
loop $-1 $-1 $194 $76 #
plane-surface $-1 -51.626331369975887 20.864276310194384 6.8193291997619951 -0.73135370988377701 0 0.68199835119979291 0.68199835119979291 0 0.73135370988377701 forward_v I I I I #
coedge $-1 $195 $196 $197 $198 reversed $77 $-1 #
face $-1 $-1 $199 $41 $-1 $200 forward single #
loop $-1 $201 $202 $79 #
cone-surface $-1 -48.391490961469316 17.98845288833698 8.4554219141802243 0.73135370988377701 0 -0.68199835119979291 0.17049958779994823 0 0.18283842747094425 1 I I -0.70710678118654746 0.70710678118654746 0.25 forward I I I I #
loop $-1 $-1 $203 $52 #
coedge $-1 $127 $127 $204 $205 reversed $80 $-1 #
face $-1 $-1 $206 $42 $-1 $207 forward single #
loop $-1 $208 $209 $82 #
cone-surface $-1 -48.391490961469316 20.864276310194391 8.4554219141802243 0.73135370988377701 0 -0.68199835119979291 0.17049958779994823 0 0.18283842747094425 1 I I -0.70710678118654746 0.70710678118654746 0.25 forward I I I I #
loop $-1 $-1 $210 $53 #
coedge $-1 $132 $132 $211 $212 reversed $83 $-1 #
face $-1 $-1 $213 $43 $-1 $214 forward single #
loop $-1 $215 $216 $85 #
cone-surface $-1 -48.391490961469316 23.740099732051803 8.4554219141802243 0.73135370988377701 0 -0.68199835119979291 0.17049958779994823 0 0.18283842747094425 1 I I -0.70710678118654746 0.70710678118654746 0.25 forward I I I I #
loop $-1 $-1 $217 $54 #
coedge $-1 $137 $137 $218 $219 reversed $86 $-1 #
face $-1 $220 $221 $33 $-1 $222 reversed single #
loop $-1 $-1 $223 $88 #
plane-surface $-1 0 -34.991740349404324 0 0 1 0 0 0 1 forward_v I I I I #
coedge $-1 $224 $225 $226 $227 forward $89 $-1 #
coedge $-1 $228 $91 $229 $230 forward $56 $-1 #
coedge $-1 $91 $228 $231 $232 forward $56 $-1 #
coedge $-1 $233 $234 $91 $145 reversed $235 $-1 #
edge $-1 $236 -34.991740349404324 $237 34.991740349404324 $144 $238 forward 7 unknown #
face $-1 $239 $240 $34 $-1 $241 reversed single #
loop $-1 $-1 $242 $92 #
plane-surface $-1 -32.030790135842722 -44.326165352185242 0 0 1 0 0 0 1 forward_v I I I I #
coedge $-1 $243 $244 $151 $245 forward $93 $-1 #
coedge $-1 $246 $95 $247 $248 reversed $59 $-1 #
coedge $-1 $95 $246 $149 $245 reversed $59 $-1 #
coedge $-1 $249 $250 $95 $153 reversed $240 $-1 #
edge $-1 $251 -11.796510506597944 $252 11.796510506597944 $152 $253 forward 7 unknown #
face $-1 $254 $255 $35 $-1 $256 reversed single #
loop $-1 $-1 $257 $96 #
plane-surface $-1 -35.528269914905451 39.658952850794776 0 1 0 0 0 0 -1 forward_v I I I I #
coedge $-1 $258 $259 $159 $260 forward $97 $-1 #
coedge $-1 $261 $99 $262 $263 reversed $62 $-1 #
coedge $-1 $99 $261 $157 $260 reversed $62 $-1 #
coedge $-1 $264 $265 $99 $161 reversed $266 $-1 #
edge $-1 $267 -11.796510506597944 $268 11.796510506597944 $160 $269 forward 7 unknown #
face $-1 $270 $271 $36 $-1 $272 forward single #
loop $-1 $-1 $273 $100 #
plane-surface $-1 56.722403574582643 16.071237273765366 152.75169289563956 0 1 0 0.73135370988377701 0 0.68199835119979291 forward_v I I I I #
coedge $-1 $274 $275 $276 $277 reversed $101 $-1 #
coedge $-1 $167 $103 $278 $279 reversed $65 $-1 #
coedge $-1 $103 $166 $274 $280 reversed $65 $-1 #
coedge $-1 $276 $281 $103 $169 forward $271 $-1 #
edge $-1 $282 -23.265129582684565 $283 -18.623833040380902 $168 $284 forward 7 unknown #
loop $-1 $-1 $175 $104 #
plane-surface $-1 -18.791814375659513 20.864276310194384 82.333547150004165 0.73135370988377701 0 0.68199835119979291 0.68199835119979291 0 -0.73135370988377701 forward_v I I I I #
loop $-1 $-1 $285 $67 #
coedge $-1 $173 $173 $174 $286 reversed $105 $-1 #
coedge $-1 $174 $174 $173 $286 forward $107 $-1 #
coedge $-1 $175 $175 $108 $176 forward $170 $-1 #
edge $-1 $287 0 $287 6.2831853071796004 $175 $288 forward 7 unknown #
loop $-1 $-1 $182 $109 #
plane-surface $-1 -18.791814375659513 20.864276310194384 82.333547150004165 0.73135370988377701 0 0.68199835119979291 0.68199835119979291 0 -0.73135370988377701 forward_v I I I I #
loop $-1 $-1 $289 $70 #
coedge $-1 $180 $180 $181 $290 reversed $110 $-1 #
coedge $-1 $181 $181 $180 $290 forward $112 $-1 #
coedge $-1 $182 $182 $113 $183 forward $177 $-1 #
edge $-1 $291 0 $291 6.2831853071796004 $182 $292 forward 7 unknown #
loop $-1 $-1 $189 $114 #
plane-surface $-1 -18.791814375659513 20.864276310194384 82.333547150004165 0.73135370988377701 0 0.68199835119979291 0.68199835119979291 0 -0.73135370988377701 forward_v I I I I #
loop $-1 $-1 $293 $73 #
coedge $-1 $187 $187 $188 $294 reversed $115 $-1 #
coedge $-1 $188 $188 $187 $294 forward $117 $-1 #
coedge $-1 $189 $189 $118 $190 forward $184 $-1 #
edge $-1 $295 0 $295 6.2831853071796004 $189 $296 forward 7 unknown #
face $-1 $297 $298 $40 $-1 $299 reversed single #
loop $-1 $-1 $300 $119 #
plane-surface $-1 -127.14054932021804 25.657315346623403 77.237474945397395 0 -1 0 0.73135370988377701 0 -0.68199835119979291 forward_v I I I I #
coedge $-1 $301 $302 $303 $304 reversed $120 $-1 #
coedge $-1 $196 $122 $305 $306 reversed $77 $-1 #
coedge $-1 $122 $195 $301 $307 reversed $77 $-1 #
coedge $-1 $303 $308 $122 $198 forward $309 $-1 #
edge $-1 $310 11.943943290133134 $311 16.58523983243682 $197 $312 forward 7 unknown #
loop $-1 $-1 $204 $123 #
plane-surface $-1 -51.626331369975887 20.864276310194384 6.8193291997619951 -0.73135370988377701 0 0.68199835119979291 0.68199835119979291 0 0.73135370988377701 forward_v I I I I #
loop $-1 $-1 $313 $79 #
coedge $-1 $202 $202 $203 $314 reversed $124 $-1 #
coedge $-1 $203 $203 $202 $314 forward $126 $-1 #
coedge $-1 $204 $204 $127 $205 forward $199 $-1 #
edge $-1 $315 0 $315 6.2831853071796004 $204 $316 forward 7 unknown #
loop $-1 $-1 $211 $128 #
plane-surface $-1 -51.626331369975887 20.864276310194384 6.8193291997619951 -0.73135370988377701 0 0.68199835119979291 0.68199835119979291 0 0.73135370988377701 forward_v I I I I #
loop $-1 $-1 $317 $82 #
coedge $-1 $209 $209 $210 $318 reversed $129 $-1 #
coedge $-1 $210 $210 $209 $318 forward $131 $-1 #
coedge $-1 $211 $211 $132 $212 forward $206 $-1 #
edge $-1 $319 0 $319 6.2831853071796004 $211 $320 forward 7 unknown #
loop $-1 $-1 $218 $133 #
plane-surface $-1 -51.626331369975887 20.864276310194384 6.8193291997619951 -0.73135370988377701 0 0.68199835119979291 0.68199835119979291 0 0.73135370988377701 forward_v I I I I #
loop $-1 $-1 $321 $85 #
coedge $-1 $216 $216 $217 $322 reversed $134 $-1 #
coedge $-1 $217 $217 $216 $322 forward $136 $-1 #
coedge $-1 $218 $218 $137 $219 forward $213 $-1 #
edge $-1 $323 0 $323 6.2831853071796004 $218 $324 forward 7 unknown #
face $-1 $325 $326 $33 $-1 $327 reversed single #
loop $-1 $-1 $328 $138 #
plane-surface $-1 -51.626331369975887 0 0 1 0 0 0 0 -1 forward_v I I I I #
coedge $-1 $329 $231 $330 $331 forward $139 $-1 #
coedge $-1 $332 $141 $329 $333 forward $89 $-1 #
coedge $-1 $141 $332 $334 $335 forward $89 $-1 #
coedge $-1 $234 $233 $141 $227 reversed $235 $-1 #
edge $-1 $336 -34.991740349404324 $337 34.991740349404324 $226 $338 forward 7 unknown #
coedge $-1 $143 $142 $339 $340 forward $56 $-1 #
coedge $-1 $341 $342 $142 $230 reversed $326 $-1 #
edge $-1 $237 -51.626331369975887 $343 51.626331369975887 $229 $344 forward 7 unknown #
coedge $-1 $223 $345 $143 $232 reversed $139 $-1 #
edge $-1 $346 -51.626331369975887 $236 51.626331369975887 $231 $347 forward 7 unknown #
coedge $-1 $226 $144 $345 $348 forward $235 $-1 #
coedge $-1 $144 $226 $341 $349 reversed $235 $-1 #
loop $-1 $-1 $233 $325 #
vertex $-1 $145 $350 #
vertex $-1 $145 $351 #
straight-curve $-1 51.626331369975887 0 11.796510506597944 0 1 0 I I #
face $-1 $352 $353 $34 $-1 $354 reversed single #
loop $-1 $-1 $152 $146 #
plane-surface $-1 -35.528269914905451 -39.658952850794783 0 1 0 0 0 0 -1 forward_v I I I I #
coedge $-1 $355 $356 $357 $358 forward $147 $-1 #
coedge $-1 $359 $149 $360 $361 forward $93 $-1 #
coedge $-1 $149 $359 $249 $362 forward $93 $-1 #
edge $-1 $251 -35.528269914905451 $363 -28.533310356779996 $149 $364 forward 7 unknown #
coedge $-1 $151 $150 $365 $366 forward $59 $-1 #
coedge $-1 $367 $368 $150 $248 forward $369 $-1 #
edge $-1 $370 28.533310356779996 $252 35.528269914905451 $247 $371 forward 7 unknown #
coedge $-1 $357 $152 $244 $362 reversed $240 $-1 #
coedge $-1 $152 $357 $367 $372 reversed $240 $-1 #
vertex $-1 $245 $373 #
vertex $-1 $372 $374 #
straight-curve $-1 -35.528269914905451 -34.991740349404324 0 0 0 1 I I #
face $-1 $375 $266 $35 $-1 $376 reversed single #
loop $-1 $-1 $377 $154 #
plane-surface $-1 -32.030790135842722 44.326165352185235 0 0 -1 0 0 0 -1 forward_v I I I I #
coedge $-1 $378 $379 $380 $381 forward $155 $-1 #
coedge $-1 $382 $157 $378 $383 forward $97 $-1 #
coedge $-1 $157 $382 $264 $384 forward $97 $-1 #
edge $-1 $267 28.533310356779996 $385 35.528269914905451 $157 $386 forward 7 unknown #
coedge $-1 $159 $158 $387 $388 forward $62 $-1 #
coedge $-1 $389 $390 $158 $263 forward $391 $-1 #
edge $-1 $392 -35.528269914905451 $268 -28.533310356779996 $262 $393 forward 7 unknown #
coedge $-1 $394 $160 $259 $384 reversed $266 $-1 #
coedge $-1 $160 $394 $389 $395 reversed $266 $-1 #
loop $-1 $-1 $160 $254 #
vertex $-1 $260 $396 #
vertex $-1 $395 $397 #
straight-curve $-1 -28.533310356779996 34.991740349404324 0 0 0 1 I I #
face $-1 $-1 $398 $36 $-1 $399 reversed single #
loop $-1 $-1 $168 $162 #
plane-surface $-1 0 0 11.796510506597944 0 0 1 1 0 0 forward_v I I I I #
coedge $-1 $400 $401 $402 $403 reversed $163 $-1 #
coedge $-1 $404 $165 $167 $280 forward $101 $-1 #
coedge $-1 $165 $404 $400 $405 forward $101 $-1 #
coedge $-1 $402 $168 $165 $277 forward $271 $-1 #
edge $-1 $283 -15.22517719152621 $406 -5.6390991186681738 $276 $407 forward 7 unknown #
coedge $-1 $408 $409 $166 $279 forward $398 $-1 #
edge $-1 $410 -69.556517248057773 $282 -64.579335941221842 $278 $411 forward 7 unknown #
edge $-1 $283 96.447226137152725 $410 103.25266273995176 $167 $412 forward 7 unknown #
coedge $-1 $168 $402 $408 $413 forward $271 $-1 #
vertex $-1 $169 $414 #
vertex $-1 $169 $415 #
straight-curve $-1 28.361201787291321 25.657315346623403 11.79651050659794 -1 0 0 I I #
coedge $-1 $285 $285 $-1 $416 reversed $172 $-1 #
edge $-1 $417 0 $417 6.2831853071796004 $173 $418 forward 7 unknown #
vertex $-1 $176 $419 #
ellipse-curve $-1 49.305683098824048 17.98845288833698 9.3079198531799836 0.73135370988377701 0 0.68199835119979291 0.34099917559989645 0 -0.36567685494188851 1 I I #
coedge $-1 $289 $289 $-1 $420 reversed $179 $-1 #
edge $-1 $421 0 $421 6.2831853071796004 $180 $422 forward 7 unknown #
vertex $-1 $183 $423 #
ellipse-curve $-1 49.305683098824048 20.864276310194391 9.3079198531799836 0.73135370988377701 0 0.68199835119979291 0.34099917559989645 0 -0.36567685494188851 1 I I #
coedge $-1 $293 $293 $-1 $424 reversed $186 $-1 #
edge $-1 $425 0 $425 6.2831853071796004 $187 $426 forward 7 unknown #
vertex $-1 $190 $427 #
ellipse-curve $-1 49.305683098824048 23.740099732051803 9.3079198531799836 0.73135370988377701 0 0.68199835119979291 0.34099917559989645 0 -0.36567685494188851 1 I I #
face $-1 $-1 $309 $40 $-1 $428 forward single #
loop $-1 $-1 $429 $191 #
plane-surface $-1 -51.626331369975887 0 0 1 0 0 0 0 -1 forward_v I I I I #
coedge $-1 $430 $431 $432 $433 reversed $192 $-1 #
coedge $-1 $434 $194 $196 $307 forward $120 $-1 #
coedge $-1 $194 $434 $430 $435 forward $120 $-1 #
coedge $-1 $432 $197 $194 $304 forward $309 $-1 #
edge $-1 $311 5.6390991186681738 $436 15.22517719152621 $303 $437 forward 7 unknown #
coedge $-1 $438 $439 $195 $306 forward $298 $-1 #
edge $-1 $440 -31.799408272936702 $310 -26.822226966100754 $305 $441 forward 7 unknown #
edge $-1 $311 -6.8054366027990696 $440 0 $196 $442 forward 7 unknown #
coedge $-1 $197 $432 $438 $443 forward $309 $-1 #
loop $-1 $-1 $432 $297 #
vertex $-1 $306 $444 #
vertex $-1 $198 $445 #
straight-curve $-1 -63.570274660109021 16.071237273765366 11.79651050659794 1 0 0 I I #
coedge $-1 $313 $313 $-1 $446 reversed $201 $-1 #
edge $-1 $447 0 $447 6.2831853071796004 $202 $448 forward 7 unknown #
vertex $-1 $205 $449 #
ellipse-curve $-1 -49.305683098824048 17.98845288833698 9.3079198531799694 -0.73135370988377701 0 0.68199835119979291 0.34099917559989645 0 0.36567685494188851 1 I I #
coedge $-1 $317 $317 $-1 $450 reversed $208 $-1 #
edge $-1 $451 0 $451 6.2831853071796004 $209 $452 forward 7 unknown #
vertex $-1 $212 $453 #
ellipse-curve $-1 -49.305683098824048 20.864276310194391 9.3079198531799694 -0.73135370988377701 0 0.68199835119979291 0.34099917559989645 0 0.36567685494188851 1 I I #
coedge $-1 $321 $321 $-1 $454 reversed $215 $-1 #
edge $-1 $455 0 $455 6.2831853071796004 $216 $456 forward 7 unknown #
vertex $-1 $219 $457 #
ellipse-curve $-1 -49.305683098824048 23.740099732051803 9.3079198531799694 -0.73135370988377701 0 0.68199835119979291 0.34099917559989645 0 0.36567685494188851 1 I I #
face $-1 $-1 $235 $33 $-1 $458 reversed single #
loop $-1 $-1 $341 $220 #
plane-surface $-1 0 34.991740349404324 0 0 -1 0 0 0 -1 forward_v I I I I #
coedge $-1 $459 $339 $342 $460 forward $221 $-1 #
coedge $-1 $345 $223 $224 $333 reversed $139 $-1 #
coedge $-1 $339 $459 $223 $331 reversed $221 $-1 #
edge $-1 $346 -11.796510506597944 $461 11.796510506597944 $330 $462 forward 7 unknown #
coedge $-1 $225 $224 $459 $463 forward $89 $-1 #
edge $-1 $337 -51.626331369975887 $461 51.626331369975887 $329 $464 forward 7 unknown #
coedge $-1 $342 $341 $225 $335 reversed $326 $-1 #
edge $-1 $465 -51.626331369975887 $336 51.626331369975887 $334 $466 forward 7 unknown #
vertex $-1 $227 $467 #
vertex $-1 $348 $468 #
straight-curve $-1 51.626331369975887 0 -11.796510506597944 0 -1 0 I I #
coedge $-1 $328 $330 $228 $340 reversed $221 $-1 #
edge $-1 $343 -34.991740349404324 $346 34.991740349404324 $339 $469 forward 7 unknown #
coedge $-1 $334 $229 $234 $349 forward $326 $-1 #
coedge $-1 $229 $334 $328 $460 reversed $326 $-1 #
vertex $-1 $230 $470 #
straight-curve $-1 0 34.991740349404324 11.796510506597944 -1 0 0 I I #
coedge $-1 $231 $329 $233 $348 reversed $139 $-1 #
vertex $-1 $340 $471 #
straight-curve $-1 0 -34.991740349404324 11.796510506597944 1 0 0 I I #
edge $-1 $236 -11.796510506597944 $337 11.796510506597944 $233 $472 forward 7 unknown #
edge $-1 $237 -11.796510506597944 $336 11.796510506597944 $234 $473 forward 7 unknown #
point $-1 51.626331369975887 -34.991740349404324 11.796510506597944 #
point $-1 51.626331369975887 34.991740349404324 11.796510506597944 #
face $-1 $-1 $369 $34 $-1 $474 forward single #
loop $-1 $-1 $475 $239 #
plane-surface $-1 -28.533310356779996 -39.658952850794783 0 -1 0 0 0 0 1 forward_v I I I I #
coedge $-1 $476 $242 $359 $477 reversed $147 $-1 #
coedge $-1 $242 $476 $478 $479 reversed $147 $-1 #
coedge $-1 $250 $249 $242 $358 reversed $240 $-1 #
edge $-1 $480 -11.796510506597944 $481 11.796510506597944 $357 $482 forward 7 unknown #
coedge $-1 $244 $243 $355 $477 forward $93 $-1 #
coedge $-1 $365 $475 $243 $361 reversed $353 $-1 #
edge $-1 $363 -4.6672125013904591 $483 4.6672125013904591 $360 $484 forward 7 unknown #
edge $-1 $481 -4.6672125013904591 $251 4.6672125013904591 $249 $485 forward 7 unknown #
vertex $-1 $361 $486 #
straight-curve $-1 0 -34.991740349404324 -11.796510506597944 1 0 0 I I #
coedge $-1 $487 $360 $246 $366 reversed $353 $-1 #
edge $-1 $370 -11.796510506597944 $363 11.796510506597944 $365 $488 forward 7 unknown #
coedge $-1 $478 $247 $250 $372 forward $369 $-1 #
coedge $-1 $247 $478 $487 $489 forward $369 $-1 #
loop $-1 $-1 $247 $352 #
vertex $-1 $248 $490 #
straight-curve $-1 0 -34.991740349404324 11.796510506597944 -1 0 0 I I #
edge $-1 $252 -4.6672125013904591 $480 4.6672125013904591 $250 $491 forward 7 unknown #
point $-1 -35.528269914905451 -34.991740349404324 -11.796510506597944 #
point $-1 -35.528269914905451 -34.991740349404324 11.796510506597944 #
face $-1 $-1 $391 $35 $-1 $492 forward single #
plane-surface $-1 -28.533310356779996 39.658952850794776 0 -1 0 0 0 0 1 forward_v I I I I #
coedge $-1 $493 $494 $394 $495 forward $255 $-1 #
coedge $-1 $387 $257 $258 $383 reversed $155 $-1 #
coedge $-1 $257 $387 $390 $496 reversed $155 $-1 #
coedge $-1 $494 $493 $257 $381 reversed $255 $-1 #
edge $-1 $497 -11.796510506597944 $498 11.796510506597944 $380 $499 forward 7 unknown #
coedge $-1 $259 $258 $493 $500 forward $97 $-1 #
edge $-1 $385 -4.6672125013904591 $498 4.6672125013904591 $378 $501 forward 7 unknown #
edge $-1 $502 -4.6672125013904591 $267 4.6672125013904591 $264 $503 forward 7 unknown #
vertex $-1 $383 $504 #
straight-curve $-1 0 34.991740349404324 -11.796510506597944 -1 0 0 I I #
coedge $-1 $379 $378 $261 $388 reversed $155 $-1 #
edge $-1 $392 -11.796510506597944 $385 11.796510506597944 $387 $505 forward 7 unknown #
coedge $-1 $506 $262 $265 $395 forward $391 $-1 #
coedge $-1 $262 $506 $379 $496 forward $391 $-1 #
loop $-1 $-1 $262 $375 #
vertex $-1 $263 $507 #
straight-curve $-1 0 34.991740349404324 11.796510506597944 1 0 0 I I #
coedge $-1 $265 $264 $377 $495 reversed $266 $-1 #
edge $-1 $268 -4.6672125013904591 $508 4.6672125013904591 $265 $509 forward 7 unknown #
point $-1 -28.533310356779996 34.991740349404317 -11.796510506597944 #
point $-1 -28.533310356779996 34.991740349404317 11.796510506597944 #
loop $-1 $-1 $278 $270 #
plane-surface $-1 51.626331369975887 0 0 -1 0 0 0 0 1 forward_v I I I I #
coedge $-1 $401 $273 $275 $405 reversed $163 $-1 #
coedge $-1 $273 $400 $510 $511 reversed $163 $-1 #
coedge $-1 $281 $276 $273 $403 forward $271 $-1 #
edge $-1 $406 18.623833040380902 $512 23.265129582684565 $402 $513 forward 7 unknown #
coedge $-1 $275 $274 $409 $514 reversed $101 $-1 #
edge $-1 $515 -103.25266273995176 $406 -96.447226137152725 $400 $516 forward 7 unknown #
vertex $-1 $277 $517 #
straight-curve $-1 46.985034827672209 10.432138155097192 11.796510506597947 0 -1 0 I I #
coedge $-1 $510 $278 $281 $413 reversed $398 $-1 #
coedge $-1 $278 $510 $404 $514 forward $398 $-1 #
vertex $-1 $279 $518 #
straight-curve $-1 51.626331369975887 25.657315346623403 76.375846447819782 0 0 1 I I #
straight-curve $-1 -18.791814375659513 25.657315346623403 82.333547150004165 0.68199835119979291 0 -0.73135370988377701 I I #
edge $-1 $512 16.071237273765366 $282 25.657315346623403 $408 $519 forward 7 unknown #
point $-1 51.626331369975887 25.657315346623403 11.796510506597944 #
point $-1 46.985034827672223 25.657315346623403 11.79651050659794 #
edge $-1 $520 1 $520 0 $285 $-1 forward 7 unknown #
vertex $-1 $286 $521 #
ellipse-curve $-1 48.574329388940242 17.98845288833698 8.6259215019801729 0.73135370988377701 0 0.68199835119979291 0.34099917559989645 0 -0.36567685494188851 1 I I #
point $-1 49.646682274423917 17.98845288833698 8.9422429982380773 #
edge $-1 $522 1 $522 0 $289 $-1 forward 7 unknown #
vertex $-1 $290 $523 #
ellipse-curve $-1 48.574329388940242 20.864276310194391 8.6259215019801729 0.73135370988377701 0 0.68199835119979291 0.34099917559989645 0 -0.36567685494188851 1 I I #
point $-1 49.646682274423917 20.864276310194391 8.9422429982380773 #
edge $-1 $524 1 $524 0 $293 $-1 forward 7 unknown #
vertex $-1 $294 $525 #
ellipse-curve $-1 48.574329388940242 23.740099732051803 8.6259215019801729 0.73135370988377701 0 0.68199835119979291 0.34099917559989645 0 -0.36567685494188851 1 I I #
point $-1 49.646682274423917 23.740099732051803 8.9422429982380773 #
plane-surface $-1 0 0 11.796510506597944 0 0 1 1 0 0 forward_v I I I I #
coedge $-1 $439 $438 $431 $526 forward $298 $-1 #
coedge $-1 $431 $300 $302 $435 reversed $192 $-1 #
coedge $-1 $300 $430 $429 $526 reversed $192 $-1 #
coedge $-1 $308 $303 $300 $433 forward $309 $-1 #
edge $-1 $436 -16.58523983243682 $527 -11.943943290133134 $432 $528 forward 7 unknown #
coedge $-1 $302 $301 $439 $529 reversed $120 $-1 #
edge $-1 $530 0 $436 6.8054366027990696 $430 $531 forward 7 unknown #
vertex $-1 $304 $532 #
straight-curve $-1 -46.985034827672202 10.432138155097192 11.796510506597944 0 1 0 I I #
coedge $-1 $429 $305 $308 $443 reversed $298 $-1 #
coedge $-1 $305 $429 $434 $529 forward $298 $-1 #
vertex $-1 $306 $533 #
straight-curve $-1 -51.626331369975887 16.071237273765366 38.618737472698697 0 0 1 I I #
straight-curve $-1 -51.626331369975887 16.071237273765366 6.8193291997619951 -0.68199835119979291 0 -0.73135370988377701 I I #
edge $-1 $527 -25.657315346623403 $310 -16.071237273765366 $438 $534 forward 7 unknown #
point $-1 -51.626331369975887 16.071237273765366 11.796510506597944 #
point $-1 -46.985034827672202 16.071237273765366 11.796510506597944 #
edge $-1 $535 1 $535 0 $313 $-1 forward 7 unknown #
vertex $-1 $314 $536 #
ellipse-curve $-1 -48.574329388940257 17.98845288833698 8.6259215019801729 -0.73135370988377701 0 0.68199835119979291 0.34099917559989645 0 0.36567685494188851 1 I I #
point $-1 -48.964683923224143 17.98845288833698 9.6735967081218543 #
edge $-1 $537 1 $537 0 $317 $-1 forward 7 unknown #
vertex $-1 $318 $538 #
ellipse-curve $-1 -48.574329388940257 20.864276310194391 8.6259215019801729 -0.73135370988377701 0 0.68199835119979291 0.34099917559989645 0 0.36567685494188851 1 I I #
point $-1 -48.964683923224143 20.864276310194391 9.6735967081218543 #
edge $-1 $539 1 $539 0 $321 $-1 forward 7 unknown #
vertex $-1 $322 $540 #
ellipse-curve $-1 -48.574329388940257 23.740099732051803 8.6259215019801729 -0.73135370988377701 0 0.68199835119979291 0.34099917559989645 0 0.36567685494188851 1 I I #
point $-1 -48.964683923224143 23.740099732051803 9.6735967081218543 #
plane-surface $-1 51.626331369975887 0 0 -1 0 0 0 0 1 forward_v I I I I #
coedge $-1 $330 $328 $332 $463 reversed $221 $-1 #
edge $-1 $343 -11.796510506597944 $465 11.796510506597944 $342 $541 forward 7 unknown #
vertex $-1 $463 $542 #
straight-curve $-1 -51.626331369975887 -34.991740349404324 0 0 0 -1 I I #
edge $-1 $461 -34.991740349404324 $465 34.991740349404324 $459 $543 forward 7 unknown #
straight-curve $-1 0 -34.991740349404324 -11.796510506597944 -1 0 0 I I #
vertex $-1 $335 $544 #
straight-curve $-1 0 34.991740349404324 -11.796510506597944 1 0 0 I I #
point $-1 51.626331369975887 34.991740349404324 -11.796510506597944 #
point $-1 51.626331369975887 -34.991740349404324 -11.796510506597944 #
straight-curve $-1 -51.626331369975887 0 11.796510506597944 0 -1 0 I I #
point $-1 -51.626331369975887 34.991740349404324 11.796510506597944 #
point $-1 -51.626331369975887 -34.991740349404324 11.796510506597944 #
straight-curve $-1 51.626331369975887 -34.991740349404324 0 0 0 -1 I I #
straight-curve $-1 51.626331369975887 34.991740349404324 0 0 0 -1 I I #
plane-surface $-1 0 0 11.796510506597944 0 0 1 1 0 0 forward_v I I I I #
coedge $-1 $360 $487 $476 $545 forward $353 $-1 #
coedge $-1 $356 $355 $475 $545 reversed $147 $-1 #
edge $-1 $483 -3.4974797790627257 $481 3.4974797790627292 $355 $546 forward 7 unknown #
coedge $-1 $368 $367 $356 $479 forward $369 $-1 #
edge $-1 $480 -3.4974797790627292 $547 3.4974797790627257 $356 $548 forward 7 unknown #
vertex $-1 $372 $549 #
vertex $-1 $362 $550 #
straight-curve $-1 -35.528269914905451 -44.326165352185242 0 0 0 -1 I I #
vertex $-1 $545 $551 #
straight-curve $-1 -28.533310356779996 -39.658952850794783 -11.796510506597944 0 -1 0 I I #
straight-curve $-1 -35.528269914905451 -39.658952850794783 -11.796510506597944 0 1 0 I I #
point $-1 -28.533310356779996 -34.991740349404324 -11.796510506597944 #
coedge $-1 $475 $365 $368 $489 reversed $353 $-1 #
straight-curve $-1 -28.533310356779996 -34.991740349404324 0 0 0 -1 I I #
edge $-1 $547 -4.6672125013904591 $370 4.6672125013904591 $487 $552 forward 7 unknown #
point $-1 -28.533310356779996 -34.991740349404324 11.796510506597944 #
straight-curve $-1 -35.528269914905451 -39.658952850794783 11.796510506597944 0 -1 0 I I #
plane-surface $-1 0 0 11.796510506597944 0 0 1 1 0 0 forward_v I I I I #
coedge $-1 $380 $377 $382 $500 reversed $255 $-1 #
coedge $-1 $377 $380 $506 $553 reversed $255 $-1 #
edge $-1 $508 -11.796510506597944 $502 11.796510506597944 $394 $554 forward 7 unknown #
edge $-1 $497 -4.6672125013904591 $392 4.6672125013904591 $379 $555 forward 7 unknown #
vertex $-1 $553 $556 #
vertex $-1 $500 $557 #
straight-curve $-1 -35.528269914905451 44.326165352185235 0 0 0 -1 I I #
edge $-1 $498 -3.4974797790627292 $502 3.4974797790627257 $493 $558 forward 7 unknown #
straight-curve $-1 -35.528269914905451 39.658952850794776 -11.796510506597944 0 1 0 I I #
vertex $-1 $384 $559 #
straight-curve $-1 -28.533310356779996 39.658952850794776 -11.796510506597944 0 -1 0 I I #
point $-1 -35.528269914905451 34.991740349404317 -11.796510506597944 #
straight-curve $-1 -35.528269914905451 34.991740349404324 0 0 0 -1 I I #
coedge $-1 $390 $389 $494 $553 forward $391 $-1 #
point $-1 -35.528269914905451 34.991740349404317 11.796510506597944 #
vertex $-1 $395 $560 #
straight-curve $-1 -28.533310356779996 39.658952850794776 11.796510506597944 0 1 0 I I #
coedge $-1 $409 $408 $401 $511 forward $398 $-1 #
edge $-1 $512 64.579335941221842 $515 69.556517248057773 $510 $561 forward 7 unknown #
vertex $-1 $413 $562 #
straight-curve $-1 28.361201787291321 16.071237273765366 11.79651050659794 1 0 0 I I #
edge $-1 $515 5.6390991186681738 $410 15.22517719152621 $409 $563 forward 7 unknown #
vertex $-1 $514 $564 #
straight-curve $-1 -18.791814375659513 16.071237273765366 82.333547150004165 -0.68199835119979291 0 0.73135370988377701 I I #
point $-1 46.985034827672223 16.071237273765366 11.79651050659794 #
point $-1 51.626331369975887 25.657315346623403 6.8193291997620094 #
straight-curve $-1 51.626331369975887 0 11.796510506597944 0 1 0 I I #
vertex $-1 $416 $565 #
point $-1 48.91532856454014 17.98845288833698 8.2602446470382844 #
vertex $-1 $420 $566 #
point $-1 48.91532856454014 20.864276310194391 8.2602446470382844 #
vertex $-1 $424 $567 #
point $-1 48.91532856454014 23.740099732051803 8.2602446470382844 #
edge $-1 $527 26.822226966100754 $530 31.799408272936702 $429 $568 forward 7 unknown #
vertex $-1 $443 $569 #
straight-curve $-1 -63.570274660109021 25.657315346623403 11.79651050659794 -1 0 0 I I #
edge $-1 $530 -15.22517719152621 $440 -5.6390991186681738 $439 $570 forward 7 unknown #
vertex $-1 $529 $571 #
straight-curve $-1 -51.626331369975887 25.657315346623403 6.8193291997619951 0.68199835119979291 0 0.73135370988377701 I I #
point $-1 -46.985034827672202 25.657315346623403 11.796510506597944 #
point $-1 -51.626331369975887 16.071237273765366 6.8193291997619951 #
straight-curve $-1 -51.626331369975887 0 11.796510506597944 0 -1 0 I I #
vertex $-1 $446 $572 #
point $-1 -48.233330213340366 17.98845288833698 8.9915983569220614 #
vertex $-1 $450 $573 #
point $-1 -48.233330213340366 20.864276310194391 8.9915983569220614 #
vertex $-1 $454 $574 #
point $-1 -48.233330213340366 23.740099732051803 8.9915983569220614 #
straight-curve $-1 -51.626331369975887 34.991740349404324 0 0 0 -1 I I #
point $-1 -51.626331369975887 -34.991740349404324 -11.796510506597944 #
straight-curve $-1 -51.626331369975887 0 -11.796510506597944 0 1 0 I I #
point $-1 -51.626331369975887 34.991740349404324 -11.796510506597944 #
edge $-1 $547 -11.796510506597944 $483 11.796510506597944 $475 $575 forward 7 unknown #
straight-curve $-1 -32.030790135842722 -44.326165352185242 -11.796510506597944 -1 0 0 I I #
vertex $-1 $489 $576 #
straight-curve $-1 -32.030790135842722 -44.326165352185242 11.796510506597944 1 0 0 I I #
point $-1 -35.528269914905451 -44.326165352185242 11.796510506597944 #
point $-1 -35.528269914905451 -44.326165352185242 -11.796510506597944 #
point $-1 -28.533310356779996 -44.326165352185242 -11.796510506597944 #
straight-curve $-1 -28.533310356779996 -39.658952850794783 11.796510506597944 0 1 0 I I #
edge $-1 $508 -3.4974797790627257 $497 3.4974797790627292 $494 $577 forward 7 unknown #
straight-curve $-1 -28.533310356779996 44.326165352185235 0 0 0 -1 I I #
straight-curve $-1 -35.528269914905451 39.658952850794776 11.796510506597944 0 -1 0 I I #
point $-1 -35.528269914905451 44.326165352185235 11.796510506597944 #
point $-1 -35.528269914905451 44.326165352185235 -11.796510506597944 #
straight-curve $-1 -32.030790135842722 44.326165352185235 -11.796510506597944 1 0 0 I I #
point $-1 -28.533310356779996 44.326165352185235 -11.796510506597944 #
point $-1 -28.533310356779996 44.326165352185235 11.796510506597944 #
straight-curve $-1 51.626331369975887 16.071237273765366 76.375846447819782 0 0 -1 I I #
point $-1 51.626331369975887 16.071237273765366 11.796510506597944 #
straight-curve $-1 51.626331369975887 10.432138155097192 6.8193291997620022 0 1 0 I I #
point $-1 51.626331369975887 16.071237273765366 6.8193291997620094 #
point $-1 48.208652533998361 17.98845288833698 8.2849223263802756 #
point $-1 48.208652533998361 20.864276310194391 8.2849223263802756 #
point $-1 48.208652533998361 23.740099732051803 8.2849223263802756 #
straight-curve $-1 -51.626331369975887 25.657315346623403 38.618737472698697 0 0 -1 I I #
point $-1 -51.626331369975887 25.657315346623403 11.796510506597944 #
straight-curve $-1 -51.626331369975887 10.432138155097192 6.8193291997619916 0 -1 0 I I #
point $-1 -51.626331369975887 25.657315346623403 6.8193291997619951 #
point $-1 -48.208652533998375 17.98845288833698 8.2849223263802756 #
point $-1 -48.208652533998375 20.864276310194391 8.2849223263802756 #
point $-1 -48.208652533998375 23.740099732051803 8.2849223263802756 #
straight-curve $-1 -28.533310356779996 -44.326165352185242 0 0 0 -1 I I #
point $-1 -28.533310356779996 -44.326165352185242 11.796510506597944 #
straight-curve $-1 -32.030790135842722 44.326165352185235 11.796510506597944 -1 0 0 I I #
End-of-ACIS-data 