500 0 8 0           
7 Unknown 11 ACIS 5.0 NT 24 Fri Mar 26 19:01:57 1999 
-1 9.9999999999999995e-007 1e-010 
body $-1 $8 $-1 $9 #
body $-1 $10 $-1 $11 #
body $-1 $12 $-1 $13 #
body $-1 $14 $-1 $15 #
body $-1 $16 $-1 $17 #
body $-1 $18 $-1 $19 #
body $-1 $20 $-1 $21 #
body $-1 $22 $-1 $23 #
lump $-1 $-1 $24 $0 #
transform $-1 1 0 0 0 1 0 0 0 1 67.588732566301459 40.339336784962747 18.513597472252734 1 rotate no_reflect no_shear #
lump $-1 $-1 $25 $1 #
transform $-1 1 0 0 0 1 0 0 0 1 67.588732566301459 40.339336784962747 18.513597472252734 1 rotate no_reflect no_shear #
lump $-1 $-1 $26 $2 #
transform $-1 1 0 0 0 1 0 0 0 1 67.588732566301459 40.339336784962747 18.513597472252734 1 rotate no_reflect no_shear #
lump $-1 $-1 $27 $3 #
transform $-1 1 0 0 0 1 0 0 0 1 67.588732566301459 40.339336784962747 18.513597472252734 1 rotate no_reflect no_shear #
lump $-1 $-1 $28 $4 #
transform $-1 1 0 0 0 1 0 0 0 1 67.588732566301459 40.339336784962747 18.513597472252734 1 rotate no_reflect no_shear #
lump $-1 $-1 $29 $5 #
transform $-1 1 0 0 0 1 0 0 0 1 67.588732566301459 40.339336784962747 18.513597472252734 1 rotate no_reflect no_shear #
lump $-1 $-1 $30 $6 #
transform $-1 1 0 0 0 1 0 0 0 1 67.588732566301459 40.339336784962747 18.513597472252734 1 rotate no_reflect no_shear #
lump $-1 $-1 $31 $7 #
transform $-1 1 0 0 0 1 0 0 0 1 67.588732566301459 40.339336784962747 18.513597472252734 1 rotate no_reflect no_shear #
shell $-1 $-1 $-1 $32 $-1 $8 #
shell $-1 $-1 $-1 $33 $-1 $10 #
shell $-1 $-1 $-1 $34 $-1 $12 #
shell $-1 $-1 $-1 $35 $-1 $14 #
shell $-1 $-1 $-1 $36 $-1 $16 #
shell $-1 $-1 $-1 $37 $-1 $18 #
shell $-1 $-1 $-1 $38 $-1 $20 #
shell $-1 $-1 $-1 $39 $-1 $22 #
face $-1 $40 $41 $24 $-1 $42 forward single #
face $-1 $43 $44 $25 $-1 $45 forward single #
face $-1 $46 $47 $26 $-1 $48 forward single #
face $-1 $49 $50 $27 $-1 $51 reversed single #
face $-1 $52 $53 $28 $-1 $54 forward single #
face $-1 $55 $56 $29 $-1 $57 forward single #
face $-1 $58 $59 $30 $-1 $60 reversed single #
face $-1 $61 $62 $31 $-1 $63 forward single #
face $-1 $64 $65 $24 $-1 $66 reversed single #
loop $-1 $-1 $67 $32 #
plane-surface $-1 0 0 18.513597472252734 0 0 1 1 0 0 forward_v I I I I #
face $-1 $68 $69 $25 $-1 $70 reversed single #
loop $-1 $-1 $71 $33 #
plane-surface $-1 0 -28.91446340360179 -10.678187852034021 0 0 1 1 0 0 forward_v I I I I #
face $-1 $72 $73 $26 $-1 $74 reversed single #
loop $-1 $-1 $75 $34 #
plane-surface $-1 0 28.914463403601793 -10.678187852034021 0 0 1 1 0 0 forward_v I I I I #
face $-1 $76 $77 $27 $-1 $78 reversed single #
loop $-1 $-1 $79 $35 #
plane-surface $-1 74.260464843912828 10.919381759068319 191.6300133366596 0 -1 0 -0.73135370988377701 0 -0.68199835119979291 forward_v I I I I #
face $-1 $80 $81 $28 $-1 $82 forward single #
loop $-1 $83 $84 $36 #
cone-surface $-1 58.648869733333264 5.4268119382903492 9.0074122636801714 -0.73135370988377701 0 -0.68199835119979291 0.68199835119979291 0 -0.73135370988377701 1 I I 0 1 1 forward I I I I #
face $-1 $85 $86 $29 $-1 $87 forward single #
loop $-1 $88 $89 $37 #
cone-surface $-1 58.648869733333264 8.7223538307571289 9.0074122636801714 -0.73135370988377701 0 -0.68199835119979291 0.68199835119979291 0 -0.73135370988377701 1 I I 0 1 1 forward I I I I #
face $-1 $90 $91 $30 $-1 $92 reversed single #
loop $-1 $-1 $93 $38 #
plane-surface $-1 -179.65593121540604 -9.8237780204973042 89.122952435256138 0 1 0 -0.82903758062907751 0 0.55919289150049634 forward_v I I I I #
face $-1 $94 $95 $31 $-1 $96 forward single #
loop $-1 $97 $98 $39 #
cone-surface $-1 -65.450238881149289 -5.0966031786118506 15.71376853920809 0.82903758062907751 0 -0.55919289150049634 0.55919289150049634 0 0.82903758062907751 1 I I 0 1 1 forward I I I I #
face $-1 $99 $100 $24 $-1 $101 reversed single #
loop $-1 $-1 $102 $40 #
plane-surface $-1 0 0 -18.513597472252734 0 0 1 1 0 0 forward_v I I I I #
coedge $-1 $103 $104 $105 $106 forward $41 $-1 #
face $-1 $107 $108 $25 $-1 $109 reversed single #
loop $-1 $-1 $110 $43 #
plane-surface $-1 0 -17.489590022240833 -14.595892662143378 0 -1 0 0 0 -1 forward_v I I I I #
coedge $-1 $111 $112 $113 $114 reversed $44 $-1 #
face $-1 $115 $116 $26 $-1 $117 reversed single #
loop $-1 $-1 $118 $46 #
plane-surface $-1 0 17.489590022240836 -14.595892662143378 0 1 0 0 0 1 forward_v I I I I #
coedge $-1 $119 $120 $121 $122 reversed $47 $-1 #
face $-1 $123 $124 $27 $-1 $125 reversed single #
loop $-1 $-1 $126 $49 #
plane-surface $-1 -24.602075773501227 7.0745828845237426 99.439204996856915 0.73135370988377701 0 0.68199835119979291 0.68199835119979291 0 -0.73135370988377701 forward_v I I I I #
coedge $-1 $127 $128 $129 $130 reversed $50 $-1 #
face $-1 $-1 $131 $28 $-1 $132 forward single #
loop $-1 $133 $134 $52 #
cone-surface $-1 57.706560196276826 5.4268119382903492 8.1286944259126486 -0.73135370988377701 0 -0.68199835119979291 0.34099917559989645 0 -0.36567685494188851 1 I I -0.70710678118654746 0.70710678118654746 0.5 forward I I I I #
loop $-1 $-1 $135 $36 #
coedge $-1 $84 $84 $136 $137 reversed $53 $-1 #
face $-1 $-1 $138 $29 $-1 $139 forward single #
loop $-1 $140 $141 $55 #
cone-surface $-1 57.706560196276826 8.7223538307571289 8.1286944259126486 -0.73135370988377701 0 -0.68199835119979291 0.34099917559989645 0 -0.36567685494188851 1 I I -0.70710678118654746 0.70710678118654746 0.5 forward I I I I #
loop $-1 $-1 $142 $37 #
coedge $-1 $89 $89 $143 $144 reversed $56 $-1 #
face $-1 $145 $146 $30 $-1 $147 reversed single #
loop $-1 $-1 $148 $58 #
plane-surface $-1 -67.588732566301431 -5.0966031786118506 13.532674842048394 -0.82903758062907751 0 0.55919289150049634 0.55919289150049634 0 0.82903758062907751 forward_v I I I I #
coedge $-1 $149 $150 $151 $152 reversed $59 $-1 #
face $-1 $-1 $153 $31 $-1 $154 forward single #
loop $-1 $155 $156 $61 #
cone-surface $-1 -64.57706372126647 -5.0966031786118506 15.124804475515369 0.82903758062907751 0 -0.55919289150049634 0.27959644575024817 0 0.41451879031453875 1 I I -0.70710678118654746 0.70710678118654746 0.5 forward I I I I #
loop $-1 $-1 $157 $39 #
coedge $-1 $98 $98 $158 $159 reversed $62 $-1 #
face $-1 $160 $161 $24 $-1 $162 reversed single #
loop $-1 $-1 $163 $64 #
plane-surface $-1 0 -40.339336784962747 0 0 1 0 0 0 1 forward_v I I I I #
coedge $-1 $164 $165 $166 $167 forward $65 $-1 #
coedge $-1 $168 $67 $169 $170 forward $41 $-1 #
coedge $-1 $67 $168 $171 $172 forward $41 $-1 #
coedge $-1 $173 $174 $67 $106 reversed $175 $-1 #
edge $-1 $176 -40.339336784962747 $177 40.339336784962747 $105 $178 forward 7 unknown #
face $-1 $179 $180 $25 $-1 $181 reversed single #
loop $-1 $-1 $182 $68 #
plane-surface $-1 0 0 -18.513597472252734 0 0 1 1 0 0 forward_v I I I I #
coedge $-1 $183 $184 $185 $186 reversed $69 $-1 #
coedge $-1 $187 $71 $184 $188 forward $44 $-1 #
coedge $-1 $71 $187 $189 $190 reversed $44 $-1 #
coedge $-1 $191 $185 $71 $114 forward $180 $-1 #
edge $-1 $192 3.032358320439938 $193 25.882105083161854 $113 $194 forward 7 unknown #
face $-1 $195 $196 $26 $-1 $197 reversed single #
loop $-1 $-1 $121 $72 #
plane-surface $-1 67.588732566301459 0 0 -1 0 0 0 0 1 forward_v I I I I #
coedge $-1 $198 $199 $200 $201 reversed $73 $-1 #
coedge $-1 $202 $75 $203 $204 reversed $47 $-1 #
coedge $-1 $75 $202 $199 $205 forward $47 $-1 #
coedge $-1 $206 $207 $75 $122 forward $116 $-1 #
edge $-1 $208 -25.882105083161857 $209 -3.0323583204399398 $121 $210 forward 7 unknown #
face $-1 $211 $212 $27 $-1 $213 forward single #
loop $-1 $-1 $214 $76 #
plane-surface $-1 74.260464843912828 3.2297840099791664 191.6300133366596 0 1 0 0.73135370988377701 0 0.68199835119979291 forward_v I I I I #
coedge $-1 $215 $216 $217 $218 reversed $77 $-1 #
coedge $-1 $128 $79 $219 $220 reversed $50 $-1 #
coedge $-1 $79 $127 $215 $221 reversed $50 $-1 #
coedge $-1 $217 $222 $79 $130 forward $212 $-1 #
edge $-1 $223 -30.458500144345045 $224 -13.732039842637754 $129 $225 forward 7 unknown #
loop $-1 $-1 $136 $80 #
plane-surface $-1 -24.602075773501227 7.0745828845237426 99.439204996856915 0.73135370988377701 0 0.68199835119979291 0.68199835119979291 0 -0.73135370988377701 forward_v I I I I #
loop $-1 $-1 $226 $52 #
coedge $-1 $134 $134 $135 $227 reversed $81 $-1 #
coedge $-1 $135 $135 $134 $227 forward $83 $-1 #
coedge $-1 $136 $136 $84 $137 forward $131 $-1 #
edge $-1 $228 0 $228 6.2831853071796004 $136 $229 forward 7 unknown #
loop $-1 $-1 $143 $85 #
plane-surface $-1 -24.602075773501227 7.0745828845237426 99.439204996856915 0.73135370988377701 0 0.68199835119979291 0.68199835119979291 0 -0.73135370988377701 forward_v I I I I #
loop $-1 $-1 $230 $55 #
coedge $-1 $141 $141 $142 $231 reversed $86 $-1 #
coedge $-1 $142 $142 $141 $231 forward $88 $-1 #
coedge $-1 $143 $143 $89 $144 forward $138 $-1 #
edge $-1 $232 0 $232 6.2831853071796004 $143 $233 forward 7 unknown #
face $-1 $234 $235 $30 $-1 $236 reversed single #
loop $-1 $-1 $237 $90 #
plane-surface $-1 -179.65593121540604 -0.36942833672639708 89.122952435256138 0 -1 0 0.82903758062907751 0 -0.55919289150049634 forward_v I I I I #
coedge $-1 $238 $239 $240 $241 reversed $91 $-1 #
coedge $-1 $150 $93 $242 $243 reversed $59 $-1 #
coedge $-1 $93 $149 $238 $244 reversed $59 $-1 #
coedge $-1 $240 $245 $93 $152 forward $246 $-1 #
edge $-1 $247 22.239233041401562 $248 25.598907672569368 $151 $249 forward 7 unknown #
loop $-1 $-1 $158 $94 #
plane-surface $-1 -67.588732566301431 -5.0966031786118506 13.532674842048394 -0.82903758062907751 0 0.55919289150049634 0.55919289150049634 0 0.82903758062907751 forward_v I I I I #
loop $-1 $-1 $250 $61 #
coedge $-1 $156 $156 $157 $251 reversed $95 $-1 #
coedge $-1 $157 $157 $156 $251 forward $97 $-1 #
coedge $-1 $158 $158 $98 $159 forward $153 $-1 #
edge $-1 $252 0 $252 6.2831853071796004 $158 $253 forward 7 unknown #
face $-1 $254 $255 $24 $-1 $256 reversed single #
loop $-1 $-1 $257 $99 #
plane-surface $-1 -67.588732566301459 0 0 1 0 0 0 0 -1 forward_v I I I I #
coedge $-1 $258 $171 $259 $260 forward $100 $-1 #
coedge $-1 $261 $102 $258 $262 forward $65 $-1 #
coedge $-1 $102 $261 $263 $264 forward $65 $-1 #
coedge $-1 $174 $173 $102 $167 reversed $175 $-1 #
edge $-1 $265 -40.339336784962747 $266 40.339336784962747 $166 $267 forward 7 unknown #
coedge $-1 $104 $103 $268 $269 forward $41 $-1 #
coedge $-1 $270 $271 $103 $170 reversed $255 $-1 #
edge $-1 $177 -67.588732566301459 $272 67.588732566301459 $169 $273 forward 7 unknown #
coedge $-1 $163 $274 $104 $172 reversed $100 $-1 #
edge $-1 $275 -67.588732566301459 $176 67.588732566301459 $171 $276 forward 7 unknown #
coedge $-1 $166 $105 $274 $277 forward $175 $-1 #
coedge $-1 $105 $166 $270 $278 reversed $175 $-1 #
loop $-1 $-1 $173 $254 #
vertex $-1 $106 $279 #
vertex $-1 $106 $280 #
straight-curve $-1 67.588732566301459 0 18.513597472252734 0 1 0 I I #
face $-1 $281 $282 $25 $-1 $283 reversed single #
loop $-1 $-1 $185 $107 #
plane-surface $-1 67.588732566301459 0 0 -1 0 0 0 0 1 forward_v I I I I #
coedge $-1 $284 $285 $183 $286 forward $108 $-1 #
coedge $-1 $287 $110 $182 $286 reversed $69 $-1 #
coedge $-1 $110 $287 $111 $188 reversed $69 $-1 #
coedge $-1 $113 $288 $110 $186 forward $180 $-1 #
edge $-1 $289 -11.215651141181045 $192 -3.3802415209623327 $185 $290 forward 7 unknown #
coedge $-1 $112 $111 $291 $292 reversed $44 $-1 #
edge $-1 $192 -67.588732566301459 $293 67.588732566301459 $184 $294 forward 7 unknown #
coedge $-1 $295 $296 $112 $190 forward $282 $-1 #
edge $-1 $193 -67.588732566301459 $297 67.588732566301459 $189 $298 forward 7 unknown #
coedge $-1 $288 $113 $296 $299 forward $180 $-1 #
vertex $-1 $114 $300 #
vertex $-1 $299 $301 #
straight-curve $-1 67.588732566301459 -14.457231701800895 -10.678187852034021 0 -1 0 I I #
face $-1 $302 $303 $26 $-1 $304 reversed single #
loop $-1 $-1 $305 $115 #
plane-surface $-1 0 0 -18.513597472252734 0 0 1 1 0 0 forward_v I I I I #
coedge $-1 $306 $118 $305 $307 reversed $73 $-1 #
coedge $-1 $118 $306 $120 $205 reversed $73 $-1 #
coedge $-1 $308 $309 $118 $201 forward $303 $-1 #
edge $-1 $310 -11.215651141181045 $311 -3.3802415209623327 $200 $312 forward 7 unknown #
coedge $-1 $120 $119 $308 $313 reversed $47 $-1 #
coedge $-1 $314 $315 $119 $204 forward $316 $-1 #
edge $-1 $317 -67.588732566301459 $208 67.588732566301459 $203 $318 forward 7 unknown #
edge $-1 $311 -67.588732566301459 $209 67.588732566301459 $199 $319 forward 7 unknown #
coedge $-1 $320 $121 $306 $321 forward $116 $-1 #
coedge $-1 $121 $320 $314 $322 reversed $116 $-1 #
vertex $-1 $322 $323 #
vertex $-1 $122 $324 #
straight-curve $-1 67.588732566301459 14.457231701800897 -10.678187852034021 0 -1 0 I I #
face $-1 $-1 $325 $27 $-1 $326 reversed single #
loop $-1 $-1 $129 $123 #
plane-surface $-1 0 0 18.513597472252734 0 0 1 1 0 0 forward_v I I I I #
coedge $-1 $327 $328 $329 $330 reversed $124 $-1 #
coedge $-1 $331 $126 $128 $221 forward $77 $-1 #
coedge $-1 $126 $331 $327 $332 forward $77 $-1 #
coedge $-1 $329 $129 $126 $218 forward $212 $-1 #
edge $-1 $224 -7.3820903168064476 $333 0.30750743228270494 $217 $334 forward 7 unknown #
coedge $-1 $335 $336 $127 $220 forward $325 $-1 #
edge $-1 $337 -95.23834228888694 $223 -77.30140919607706 $219 $338 forward 7 unknown #
edge $-1 $224 110.65180422406615 $337 135.17746513260289 $128 $339 forward 7 unknown #
coedge $-1 $129 $329 $335 $340 forward $212 $-1 #
vertex $-1 $220 $341 #
vertex $-1 $130 $342 #
straight-curve $-1 37.130232421956414 10.919381759068319 18.513597472252741 -1 0 0 I I #
coedge $-1 $226 $226 $-1 $343 reversed $133 $-1 #
edge $-1 $344 0 $344 6.2831853071796004 $134 $345 forward 7 unknown #
vertex $-1 $137 $346 #
ellipse-curve $-1 59.225502415447821 5.4268119382903492 9.5451309258478076 0.73135370988377701 0 0.68199835119979291 0.68199835119979291 0 -0.73135370988377701 1 I I #
coedge $-1 $230 $230 $-1 $347 reversed $140 $-1 #
edge $-1 $348 0 $348 6.2831853071796004 $141 $349 forward 7 unknown #
vertex $-1 $144 $350 #
ellipse-curve $-1 59.225502415447821 8.7223538307571289 9.5451309258478076 0.73135370988377701 0 0.68199835119979291 0.68199835119979291 0 -0.73135370988377701 1 I I #
face $-1 $-1 $246 $30 $-1 $351 forward single #
loop $-1 $-1 $352 $145 #
plane-surface $-1 -67.588732566301459 0 0 1 0 0 0 0 -1 forward_v I I I I #
coedge $-1 $353 $354 $355 $356 reversed $146 $-1 #
coedge $-1 $357 $148 $150 $244 forward $91 $-1 #
coedge $-1 $148 $357 $353 $358 forward $91 $-1 #
coedge $-1 $355 $151 $148 $241 forward $246 $-1 #
edge $-1 $248 -7.2754764311913789 $359 2.1788732525795282 $240 $360 forward 7 unknown #
coedge $-1 $361 $362 $149 $243 forward $235 $-1 #
edge $-1 $363 -31.028801375579718 $247 -26.047878745375336 $242 $364 forward 7 unknown #
edge $-1 $248 -6.0080782181488006 $363 5.1237215713061704e-014 $150 $365 forward 7 unknown #
coedge $-1 $151 $355 $361 $366 forward $246 $-1 #
loop $-1 $-1 $355 $234 #
vertex $-1 $243 $367 #
vertex $-1 $152 $368 #
straight-curve $-1 -89.827965607703021 -9.8237780204973042 18.513597472252734 1 0 0 I I #
coedge $-1 $250 $250 $-1 $369 reversed $155 $-1 #
edge $-1 $370 0 $370 6.2831853071796004 $156 $371 forward 7 unknown #
vertex $-1 $159 $372 #
ellipse-curve $-1 -65.908895250717549 -5.0966031786118506 16.02313615715055 -0.82903758062907751 0 0.55919289150049634 0.55919289150049634 0 0.82903758062907751 1 I I #
face $-1 $-1 $175 $24 $-1 $373 reversed single #
loop $-1 $-1 $270 $160 #
plane-surface $-1 0 40.339336784962747 0 0 -1 0 0 0 -1 forward_v I I I I #
coedge $-1 $374 $268 $271 $375 forward $161 $-1 #
coedge $-1 $274 $163 $164 $262 reversed $100 $-1 #
coedge $-1 $268 $374 $163 $260 reversed $161 $-1 #
edge $-1 $275 -18.513597472252734 $376 18.513597472252734 $259 $377 forward 7 unknown #
coedge $-1 $165 $164 $374 $378 forward $65 $-1 #
edge $-1 $266 -67.588732566301459 $376 67.588732566301459 $258 $379 forward 7 unknown #
coedge $-1 $271 $270 $165 $264 reversed $255 $-1 #
edge $-1 $380 -67.588732566301459 $265 67.588732566301459 $263 $381 forward 7 unknown #
vertex $-1 $167 $382 #
vertex $-1 $277 $383 #
straight-curve $-1 67.588732566301459 0 -18.513597472252734 0 -1 0 I I #
coedge $-1 $257 $259 $168 $269 reversed $161 $-1 #
edge $-1 $272 -40.339336784962747 $275 40.339336784962747 $268 $384 forward 7 unknown #
coedge $-1 $263 $169 $174 $278 forward $255 $-1 #
coedge $-1 $169 $263 $257 $375 reversed $255 $-1 #
vertex $-1 $170 $385 #
straight-curve $-1 0 40.339336784962747 18.513597472252734 -1 0 0 I I #
coedge $-1 $171 $258 $173 $277 reversed $100 $-1 #
vertex $-1 $269 $386 #
straight-curve $-1 0 -40.339336784962747 18.513597472252734 1 0 0 I I #
edge $-1 $176 -18.513597472252734 $266 18.513597472252734 $173 $387 forward 7 unknown #
edge $-1 $177 -18.513597472252734 $265 18.513597472252734 $174 $388 forward 7 unknown #
point $-1 67.588732566301459 -40.339336784962747 18.513597472252734 #
point $-1 67.588732566301459 40.339336784962747 18.513597472252734 #
face $-1 $-1 $389 $25 $-1 $390 reversed single #
loop $-1 $-1 $189 $179 #
plane-surface $-1 0 -40.339336784962747 0 0 1 0 0 0 1 forward_v I I I I #
coedge $-1 $391 $182 $288 $392 forward $108 $-1 #
coedge $-1 $182 $391 $393 $394 forward $108 $-1 #
edge $-1 $395 -67.588732566301459 $289 67.588732566301459 $182 $396 forward 7 unknown #
coedge $-1 $184 $183 $397 $398 reversed $69 $-1 #
coedge $-1 $185 $191 $284 $392 reversed $180 $-1 #
vertex $-1 $392 $399 #
straight-curve $-1 67.588732566301459 -17.489590022240833 -7.2979463310716888 0 0 1 I I #
coedge $-1 $397 $400 $187 $292 forward $389 $-1 #
edge $-1 $297 -25.882105083161854 $293 -3.032358320439938 $291 $401 forward 7 unknown #
vertex $-1 $292 $402 #
straight-curve $-1 0 -17.489590022240833 -10.678187852034021 -1 0 0 I I #
coedge $-1 $403 $189 $400 $404 forward $282 $-1 #
coedge $-1 $189 $403 $191 $299 reversed $282 $-1 #
vertex $-1 $404 $405 #
straight-curve $-1 0 -40.339336784962747 -10.678187852034021 -1 0 0 I I #
edge $-1 $193 10.678187852034021 $406 18.513597472252734 $191 $407 forward 7 unknown #
point $-1 67.588732566301459 -17.489590022240833 -10.678187852034021 #
point $-1 67.588732566301459 -40.339336784962747 -10.678187852034021 #
face $-1 $-1 $316 $26 $-1 $408 reversed single #
loop $-1 $-1 $308 $195 #
plane-surface $-1 -67.588732566301459 0 0 1 0 0 0 0 -1 forward_v I I I I #
coedge $-1 $409 $410 $198 $307 forward $196 $-1 #
coedge $-1 $199 $198 $206 $321 reversed $73 $-1 #
edge $-1 $411 -67.588732566301459 $310 67.588732566301459 $305 $412 forward 7 unknown #
coedge $-1 $413 $200 $202 $313 forward $303 $-1 #
coedge $-1 $200 $413 $409 $414 reversed $303 $-1 #
vertex $-1 $414 $415 #
vertex $-1 $313 $416 #
straight-curve $-1 -67.588732566301459 17.489590022240836 -7.2979463310716888 0 0 1 I I #
edge $-1 $311 3.0323583204399398 $317 25.882105083161857 $308 $417 forward 7 unknown #
coedge $-1 $418 $203 $207 $322 forward $316 $-1 #
coedge $-1 $203 $418 $413 $419 reversed $316 $-1 #
loop $-1 $-1 $203 $302 #
vertex $-1 $419 $420 #
straight-curve $-1 0 40.339336784962747 -10.678187852034021 1 0 0 I I #
straight-curve $-1 0 17.489590022240836 -10.678187852034021 1 0 0 I I #
coedge $-1 $207 $206 $410 $421 reversed $116 $-1 #
edge $-1 $209 3.3802415209623327 $411 11.215651141181045 $206 $422 forward 7 unknown #
edge $-1 $208 10.678187852034021 $423 18.513597472252734 $207 $424 forward 7 unknown #
point $-1 67.588732566301459 40.339336784962754 -10.678187852034021 #
point $-1 67.588732566301459 17.489590022240836 -10.678187852034021 #
loop $-1 $-1 $219 $211 #
plane-surface $-1 67.588732566301459 0 0 -1 0 0 0 0 1 forward_v I I I I #
coedge $-1 $328 $214 $216 $332 reversed $124 $-1 #
coedge $-1 $214 $327 $425 $426 reversed $124 $-1 #
coedge $-1 $222 $217 $214 $330 forward $212 $-1 #
edge $-1 $333 13.732039842637754 $427 30.458500144345045 $329 $428 forward 7 unknown #
coedge $-1 $216 $215 $336 $429 reversed $77 $-1 #
edge $-1 $430 -135.17746513260289 $333 -110.65180422406615 $327 $431 forward 7 unknown #
vertex $-1 $218 $432 #
straight-curve $-1 50.862272264594168 3.5372914422618713 18.513597472252741 0 -1 0 I I #
coedge $-1 $425 $219 $222 $340 reversed $325 $-1 #
coedge $-1 $219 $425 $331 $429 forward $325 $-1 #
vertex $-1 $220 $433 #
straight-curve $-1 67.588732566301459 10.919381759068319 95.815006668329801 0 0 1 I I #
straight-curve $-1 -24.602075773501227 10.919381759068319 99.439204996856915 0.68199835119979291 0 -0.73135370988377701 I I #
edge $-1 $427 3.2297840099791664 $223 10.919381759068319 $335 $434 forward 7 unknown #
point $-1 67.588732566301459 10.919381759068319 18.513597472252734 #
point $-1 50.862272264594168 10.919381759068319 18.513597472252741 #
edge $-1 $435 1 $435 0 $226 $-1 forward 7 unknown #
vertex $-1 $227 $436 #
ellipse-curve $-1 58.072237051218714 5.4268119382903492 8.4696936015125459 0.73135370988377701 0 0.68199835119979291 0.68199835119979291 0 -0.73135370988377701 1 I I #
point $-1 59.907500766647601 5.4268119382903492 8.8137772159640235 #
edge $-1 $437 1 $437 0 $230 $-1 forward 7 unknown #
vertex $-1 $231 $438 #
ellipse-curve $-1 58.072237051218714 8.7223538307571289 8.4696936015125459 0.73135370988377701 0 0.68199835119979291 0.68199835119979291 0 -0.73135370988377701 1 I I #
point $-1 59.907500766647601 8.7223538307571289 8.8137772159640235 #
plane-surface $-1 0 0 18.513597472252734 0 0 1 1 0 0 forward_v I I I I #
coedge $-1 $362 $361 $354 $439 forward $235 $-1 #
coedge $-1 $354 $237 $239 $358 reversed $146 $-1 #
coedge $-1 $237 $353 $352 $439 reversed $146 $-1 #
coedge $-1 $245 $240 $237 $356 forward $246 $-1 #
edge $-1 $359 -25.598907672569368 $440 -22.239233041401562 $355 $441 forward 7 unknown #
coedge $-1 $239 $238 $362 $442 reversed $91 $-1 #
edge $-1 $443 -5.1237215713061704e-014 $359 6.0080782181488006 $353 $444 forward 7 unknown #
vertex $-1 $241 $445 #
straight-curve $-1 -64.229057935133653 -2.5483015893059253 18.513597472252734 0 1 0 I I #
coedge $-1 $352 $242 $245 $366 reversed $235 $-1 #
coedge $-1 $242 $352 $357 $442 forward $235 $-1 #
vertex $-1 $243 $446 #
straight-curve $-1 -67.588732566301459 -9.8237780204973042 44.561476217628069 0 0 1 I I #
straight-curve $-1 -67.588732566301431 -9.8237780204973042 13.532674842048394 -0.55919289150049634 0 -0.82903758062907751 I I #
edge $-1 $440 0.36942833672639708 $247 9.8237780204973042 $361 $447 forward 7 unknown #
point $-1 -67.588732566301459 -9.8237780204973042 18.513597472252734 #
point $-1 -64.229057935133653 -9.8237780204973042 18.513597472252734 #
edge $-1 $448 1 $448 0 $250 $-1 forward 7 unknown #
vertex $-1 $251 $449 #
ellipse-curve $-1 -64.991582511581015 -5.0966031786118506 15.404400921265617 -0.82903758062907751 0 0.55919289150049634 0.55919289150049634 0 0.82903758062907751 1 I I #
point $-1 -65.349702359217076 -5.0966031786118506 16.852173737779641 #
plane-surface $-1 67.588732566301459 0 0 -1 0 0 0 0 1 forward_v I I I I #
coedge $-1 $259 $257 $261 $378 reversed $161 $-1 #
edge $-1 $272 -18.513597472252734 $380 18.513597472252734 $271 $450 forward 7 unknown #
vertex $-1 $378 $451 #
straight-curve $-1 -67.588732566301459 -40.339336784962747 0 0 0 -1 I I #
edge $-1 $376 -40.339336784962747 $380 40.339336784962747 $374 $452 forward 7 unknown #
straight-curve $-1 0 -40.339336784962747 -18.513597472252734 -1 0 0 I I #
vertex $-1 $264 $453 #
straight-curve $-1 0 40.339336784962747 -18.513597472252734 1 0 0 I I #
point $-1 67.588732566301459 40.339336784962747 -18.513597472252734 #
point $-1 67.588732566301459 -40.339336784962747 -18.513597472252734 #
straight-curve $-1 -67.588732566301459 0 18.513597472252734 0 -1 0 I I #
point $-1 -67.588732566301459 40.339336784962747 18.513597472252734 #
point $-1 -67.588732566301459 -40.339336784962747 18.513597472252734 #
straight-curve $-1 67.588732566301459 -40.339336784962747 0 0 0 -1 I I #
straight-curve $-1 67.588732566301459 40.339336784962747 0 0 0 -1 I I #
loop $-1 $-1 $397 $281 #
plane-surface $-1 -67.588732566301459 0 0 1 0 0 0 0 -1 forward_v I I I I #
coedge $-1 $285 $284 $403 $454 forward $108 $-1 #
edge $-1 $289 17.489590022240833 $406 40.339336784962747 $288 $455 forward 7 unknown #
coedge $-1 $400 $397 $285 $394 reversed $389 $-1 #
edge $-1 $456 -40.339336784962747 $395 -17.489590022240833 $393 $457 forward 7 unknown #
vertex $-1 $398 $458 #
straight-curve $-1 0 -17.489590022240833 -18.513597472252734 1 0 0 I I #
coedge $-1 $393 $291 $287 $398 forward $389 $-1 #
edge $-1 $293 3.3802415209623327 $395 11.215651141181045 $397 $459 forward 7 unknown #
point $-1 67.588732566301459 -17.489590022240833 -18.513597472252734 #
coedge $-1 $291 $393 $295 $404 reversed $389 $-1 #
straight-curve $-1 -67.588732566301459 -14.457231701800895 -10.678187852034021 0 1 0 I I #
point $-1 -67.588732566301459 -17.489590022240833 -10.678187852034021 #
coedge $-1 $296 $295 $391 $454 reversed $282 $-1 #
edge $-1 $297 10.678187852034021 $456 18.513597472252734 $400 $460 forward 7 unknown #
point $-1 -67.588732566301459 -40.339336784962747 -10.678187852034021 #
vertex $-1 $299 $461 #
straight-curve $-1 67.588732566301459 -40.339336784962747 0 0 0 -1 I I #
plane-surface $-1 0 40.339336784962747 0 0 -1 0 0 0 -1 forward_v I I I I #
coedge $-1 $462 $305 $309 $414 forward $196 $-1 #
coedge $-1 $305 $462 $320 $421 forward $196 $-1 #
vertex $-1 $307 $463 #
straight-curve $-1 0 17.489590022240836 -18.513597472252734 -1 0 0 I I #
coedge $-1 $309 $308 $315 $419 forward $303 $-1 #
edge $-1 $310 17.489590022240836 $464 40.339336784962747 $309 $465 forward 7 unknown #
point $-1 -67.588732566301459 17.489590022240836 -18.513597472252734 #
point $-1 -67.588732566301459 17.489590022240836 -10.678187852034021 #
straight-curve $-1 -67.588732566301459 14.457231701800897 -10.678187852034021 0 1 0 I I #
coedge $-1 $315 $314 $462 $466 reversed $316 $-1 #
edge $-1 $317 10.678187852034021 $464 18.513597472252734 $315 $467 forward 7 unknown #
point $-1 -67.588732566301459 40.339336784962754 -10.678187852034021 #
edge $-1 $423 -40.339336784962747 $411 -17.489590022240836 $320 $468 forward 7 unknown #
straight-curve $-1 67.588732566301459 17.489590022240836 -7.2979463310716888 0 0 -1 I I #
vertex $-1 $421 $469 #
straight-curve $-1 67.588732566301459 40.339336784962747 0 0 0 -1 I I #
coedge $-1 $336 $335 $328 $426 forward $325 $-1 #
edge $-1 $427 77.30140919607706 $430 95.23834228888694 $425 $470 forward 7 unknown #
vertex $-1 $340 $471 #
straight-curve $-1 37.130232421956414 3.2297840099791664 18.513597472252741 1 0 0 I I #
edge $-1 $430 -0.30750743228270494 $337 7.3820903168064476 $336 $472 forward 7 unknown #
vertex $-1 $429 $473 #
straight-curve $-1 -24.602075773501227 3.2297840099791664 99.439204996856915 -0.68199835119979291 0 0.73135370988377701 I I #
point $-1 50.862272264594168 3.2297840099791664 18.513597472252741 #
point $-1 67.588732566301459 10.919381759068319 0.57666437944286031 #
straight-curve $-1 67.588732566301459 0 18.513597472252734 0 1 0 I I #
vertex $-1 $343 $474 #
point $-1 58.754235402418509 5.4268119382903492 7.738339891628768 #
vertex $-1 $347 $475 #
point $-1 58.754235402418509 8.7223538307571289 7.738339891628768 #
edge $-1 $440 26.047878745375336 $443 31.028801375579718 $352 $476 forward 7 unknown #
vertex $-1 $366 $477 #
straight-curve $-1 -89.827965607703021 -0.36942833672639708 18.513597472252734 -1 0 0 I I #
edge $-1 $443 -2.1788732525795282 $363 7.2754764311913789 $362 $478 forward 7 unknown #
vertex $-1 $442 $479 #
straight-curve $-1 -67.588732566301431 -0.36942833672639708 13.532674842048394 0.55919289150049634 0 0.82903758062907751 I I #
point $-1 -64.229057935133653 -0.36942833672639708 18.513597472252734 #
point $-1 -67.588732566301459 -9.8237780204973042 13.532674842048351 #
straight-curve $-1 -67.588732566301459 0 18.513597472252734 0 -1 0 I I #
vertex $-1 $369 $480 #
point $-1 -64.432389620080514 -5.0966031786118506 16.233438501894696 #
straight-curve $-1 -67.588732566301459 40.339336784962747 0 0 0 -1 I I #
point $-1 -67.588732566301459 -40.339336784962747 -18.513597472252734 #
straight-curve $-1 -67.588732566301459 0 -18.513597472252734 0 1 0 I I #
point $-1 -67.588732566301459 40.339336784962747 -18.513597472252734 #
edge $-1 $406 -67.588732566301459 $456 67.588732566301459 $403 $481 forward 7 unknown #
straight-curve $-1 67.588732566301459 0 -18.513597472252734 0 -1 0 I I #
vertex $-1 $394 $482 #
straight-curve $-1 -67.588732566301459 0 -18.513597472252734 0 1 0 I I #
point $-1 -67.588732566301459 -17.489590022240833 -18.513597472252734 #
straight-curve $-1 -67.588732566301459 -17.489590022240833 -7.2979463310716888 0 0 -1 I I #
straight-curve $-1 -67.588732566301459 -40.339336784962747 0 0 0 -1 I I #
point $-1 67.588732566301459 -40.339336784962747 -18.513597472252734 #
coedge $-1 $410 $409 $418 $466 forward $196 $-1 #
point $-1 67.588732566301459 17.489590022240836 -18.513597472252734 #
vertex $-1 $466 $483 #
straight-curve $-1 -67.588732566301459 0 -18.513597472252734 0 1 0 I I #
edge $-1 $464 -67.588732566301459 $423 67.588732566301459 $418 $484 forward 7 unknown #
straight-curve $-1 -67.588732566301459 40.339336784962747 0 0 0 -1 I I #
straight-curve $-1 67.588732566301459 0 -18.513597472252734 0 -1 0 I I #
point $-1 67.588732566301459 40.339336784962747 -18.513597472252734 #
straight-curve $-1 67.588732566301459 3.2297840099791664 95.815006668329801 0 0 -1 I I #
point $-1 67.588732566301459 3.2297840099791664 18.513597472252734 #
straight-curve $-1 67.588732566301445 3.5372914422618713 0.57666437944287452 0 1 0 I I #
point $-1 67.588732566301459 3.2297840099791664 0.57666437944286031 #
point $-1 57.340883341334937 5.4268119382903492 7.7876952503127521 #
point $-1 57.340883341334937 8.7223538307571289 7.7876952503127521 #
straight-curve $-1 -67.588732566301459 -0.36942833672639708 44.561476217628069 0 0 -1 I I #
point $-1 -67.588732566301459 -0.36942833672639708 18.513597472252734 #
straight-curve $-1 -67.588732566301459 -2.5483015893059253 13.532674842048355 0 -1 0 I I #
point $-1 -67.588732566301459 -0.36942833672639708 13.532674842048351 #
point $-1 -64.162544930951924 -5.0966031786118506 14.84520802976512 #
straight-curve $-1 0 -40.339336784962747 -18.513597472252734 -1 0 0 I I #
point $-1 -67.588732566301459 -40.339336784962747 -18.513597472252734 #
point $-1 -67.588732566301459 40.339336784962747 -18.513597472252734 #
straight-curve $-1 0 40.339336784962747 -18.513597472252734 1 0 0 I I #
End-of-ACIS-data 