500 0 11 0           
7 Unknown 11 ACIS 5.0 NT 24 Fri Mar 26 00:49:02 1999 
-1 9.9999999999999995e-007 1e-010 
body $-1 $11 $-1 $12 #
body $-1 $13 $-1 $14 #
body $-1 $15 $-1 $16 #
body $-1 $17 $-1 $18 #
body $-1 $19 $-1 $20 #
body $-1 $21 $-1 $22 #
body $-1 $23 $-1 $24 #
body $-1 $25 $-1 $26 #
body $-1 $27 $-1 $28 #
body $-1 $29 $-1 $30 #
body $-1 $31 $-1 $32 #
lump $-1 $-1 $33 $0 #
transform $-1 1 0 0 0 1 0 0 0 1 77.349772637104394 41.570397995442733 17.407754814748632 1 rotate no_reflect no_shear #
lump $-1 $-1 $34 $1 #
transform $-1 1 0 0 0 1 0 0 0 1 77.349772637104394 41.570397995442733 17.407754814748632 1 rotate no_reflect no_shear #
lump $-1 $-1 $35 $2 #
transform $-1 1 0 0 0 1 0 0 0 1 77.349772637104394 41.570397995442733 17.407754814748632 1 rotate no_reflect no_shear #
lump $-1 $-1 $36 $3 #
transform $-1 1 0 0 0 1 0 0 0 1 77.349772637104394 41.570397995442733 17.407754814748632 1 rotate no_reflect no_shear #
lump $-1 $-1 $37 $4 #
transform $-1 1 0 0 0 1 0 0 0 1 77.349772637104394 41.570397995442733 17.407754814748632 1 rotate no_reflect no_shear #
lump $-1 $-1 $38 $5 #
transform $-1 1 0 0 0 1 0 0 0 1 77.349772637104394 41.570397995442733 17.407754814748632 1 rotate no_reflect no_shear #
lump $-1 $-1 $39 $6 #
transform $-1 1 0 0 0 1 0 0 0 1 77.349772637104394 41.570397995442733 17.407754814748632 1 rotate no_reflect no_shear #
lump $-1 $-1 $40 $7 #
transform $-1 1 0 0 0 1 0 0 0 1 77.349772637104394 41.570397995442733 17.407754814748632 1 rotate no_reflect no_shear #
lump $-1 $-1 $41 $8 #
transform $-1 1 0 0 0 1 0 0 0 1 77.349772637104394 41.570397995442733 17.407754814748632 1 rotate no_reflect no_shear #
lump $-1 $-1 $42 $9 #
transform $-1 1 0 0 0 1 0 0 0 1 77.349772637104394 41.570397995442733 17.407754814748632 1 rotate no_reflect no_shear #
lump $-1 $-1 $43 $10 #
transform $-1 1 0 0 0 1 0 0 0 1 77.349772637104394 41.570397995442733 17.407754814748632 1 rotate no_reflect no_shear #
shell $-1 $-1 $-1 $44 $-1 $11 #
shell $-1 $-1 $-1 $45 $-1 $13 #
shell $-1 $-1 $-1 $46 $-1 $15 #
shell $-1 $-1 $-1 $47 $-1 $17 #
shell $-1 $-1 $-1 $48 $-1 $19 #
shell $-1 $-1 $-1 $49 $-1 $21 #
shell $-1 $-1 $-1 $50 $-1 $23 #
shell $-1 $-1 $-1 $51 $-1 $25 #
shell $-1 $-1 $-1 $52 $-1 $27 #
shell $-1 $-1 $-1 $53 $-1 $29 #
shell $-1 $-1 $-1 $54 $-1 $31 #
face $-1 $55 $56 $33 $-1 $57 forward single #
face $-1 $58 $59 $34 $-1 $60 reversed single #
face $-1 $61 $62 $35 $-1 $63 forward single #
face $-1 $64 $65 $36 $-1 $66 reversed single #
face $-1 $67 $68 $37 $-1 $69 forward single #
face $-1 $70 $71 $38 $-1 $72 forward single #
face $-1 $73 $74 $39 $-1 $75 forward single #
face $-1 $76 $77 $40 $-1 $78 reversed single #
face $-1 $79 $80 $41 $-1 $81 forward single #
face $-1 $82 $83 $42 $-1 $84 forward single #
face $-1 $85 $86 $43 $-1 $87 forward single #
face $-1 $88 $89 $33 $-1 $90 reversed single #
loop $-1 $-1 $91 $44 #
plane-surface $-1 0 0 17.407754814748632 0 0 1 1 0 0 forward_v I I I I #
face $-1 $92 $93 $34 $-1 $94 reversed single #
loop $-1 $-1 $95 $45 #
plane-surface $-1 -46.043439424530881 -35.014128692596543 0 1 0 0 0 0 -1 forward_v I I I I #
face $-1 $96 $97 $35 $-1 $98 reversed single #
loop $-1 $-1 $99 $46 #
plane-surface $-1 0 32.304103533268346 -7.5676743609464197 0 0 1 1 0 0 forward_v I I I I #
face $-1 $100 $101 $36 $-1 $102 reversed single #
loop $-1 $-1 $103 $47 #
plane-surface $-1 46.901734880566835 23.037809071093978 224.51930856519729 0 -1 0 -0.6018150307709319 0 -0.79863550430605224 forward_v I I I I #
face $-1 $104 $105 $37 $-1 $106 forward single #
loop $-1 $107 $108 $48 #
cone-surface $-1 69.982871008903444 11.150836709005787 11.260796212516748 -0.6018150307709319 0 -0.79863550430605224 0.79863550430605224 0 -0.6018150307709319 1 I I 0 1 1 forward I I I I #
face $-1 $109 $110 $38 $-1 $111 forward single #
loop $-1 $112 $113 $49 #
cone-surface $-1 69.982871008903444 15.608451344788861 11.260796212516748 -0.6018150307709319 0 -0.79863550430605224 0.79863550430605224 0 -0.6018150307709319 1 I I 0 1 1 forward I I I I #
face $-1 $114 $115 $39 $-1 $116 forward single #
loop $-1 $117 $118 $50 #
cone-surface $-1 69.982871008903444 20.066065980571935 11.260796212516748 -0.6018150307709319 0 -0.79863550430605224 0.79863550430605224 0 -0.6018150307709319 1 I I 0 1 1 forward I I I I #
face $-1 $119 $120 $40 $-1 $121 reversed single #
loop $-1 $-1 $122 $51 #
plane-surface $-1 -170.45028423655151 8.1790936184837442 131.41879696575018 0 1 0 -0.6018150307709319 0 0.79863550430605224 forward_v I I I I #
face $-1 $123 $124 $41 $-1 $125 forward single #
loop $-1 $126 $127 $52 #
cone-surface $-1 -69.982871008903444 11.150836709005787 11.26079621251677 0.6018150307709319 0 -0.79863550430605224 0.79863550430605224 0 0.6018150307709319 1 I I 0 1 1 forward I I I I #
face $-1 $128 $129 $42 $-1 $130 forward single #
loop $-1 $131 $132 $53 #
cone-surface $-1 -69.982871008903444 15.608451344788861 11.26079621251677 0.6018150307709319 0 -0.79863550430605224 0.79863550430605224 0 0.6018150307709319 1 I I 0 1 1 forward I I I I #
face $-1 $133 $134 $43 $-1 $135 forward single #
loop $-1 $136 $137 $54 #
cone-surface $-1 -69.982871008903444 20.066065980571935 11.26079621251677 0.6018150307709319 0 -0.79863550430605224 0.79863550430605224 0 0.6018150307709319 1 I I 0 1 1 forward I I I I #
face $-1 $138 $139 $33 $-1 $140 reversed single #
loop $-1 $-1 $141 $55 #
plane-surface $-1 0 0 -17.407754814748632 0 0 1 1 0 0 forward_v I I I I #
coedge $-1 $142 $143 $144 $145 forward $56 $-1 #
face $-1 $146 $147 $34 $-1 $148 reversed single #
loop $-1 $-1 $149 $58 #
plane-surface $-1 -44.288851216069006 -28.457859389750357 0 0 -1 0 0 0 -1 forward_v I I I I #
coedge $-1 $150 $151 $152 $153 forward $59 $-1 #
face $-1 $154 $155 $35 $-1 $156 reversed single #
loop $-1 $-1 $157 $61 #
plane-surface $-1 0 23.037809071093967 -12.487714587847526 0 1 0 0 0 1 forward_v I I I I #
coedge $-1 $158 $159 $160 $161 reversed $62 $-1 #
face $-1 $162 $163 $36 $-1 $164 reversed single #
loop $-1 $-1 $165 $64 #
plane-surface $-1 -46.198776718880296 15.608451344788861 100.9707592092126 0.6018150307709319 0 0.79863550430605224 0.79863550430605224 0 -0.6018150307709319 forward_v I I I I #
coedge $-1 $166 $167 $168 $169 reversed $65 $-1 #
face $-1 $-1 $170 $37 $-1 $171 forward single #
loop $-1 $172 $173 $67 #
cone-surface $-1 68.643411513477901 11.150836709005787 9.4832734606234332 -0.6018150307709319 0 -0.79863550430605224 0.39931775215302612 0 -0.30090751538546595 1 I I -0.70710678118654746 0.70710678118654746 0.5 forward I I I I #
loop $-1 $-1 $174 $48 #
coedge $-1 $108 $108 $175 $176 reversed $68 $-1 #
face $-1 $-1 $177 $38 $-1 $178 forward single #
loop $-1 $179 $180 $70 #
cone-surface $-1 68.643411513477901 15.608451344788861 9.4832734606234332 -0.6018150307709319 0 -0.79863550430605224 0.39931775215302612 0 -0.30090751538546595 1 I I -0.70710678118654746 0.70710678118654746 0.5 forward I I I I #
loop $-1 $-1 $181 $49 #
coedge $-1 $113 $113 $182 $183 reversed $71 $-1 #
face $-1 $-1 $184 $39 $-1 $185 forward single #
loop $-1 $186 $187 $73 #
cone-surface $-1 68.643411513477901 20.066065980571935 9.4832734606234332 -0.6018150307709319 0 -0.79863550430605224 0.39931775215302612 0 -0.30090751538546595 1 I I -0.70710678118654746 0.70710678118654746 0.5 forward I I I I #
loop $-1 $-1 $188 $50 #
coedge $-1 $118 $118 $189 $190 reversed $74 $-1 #
face $-1 $191 $192 $40 $-1 $193 reversed single #
loop $-1 $-1 $194 $76 #
plane-surface $-1 -77.34977263710438 15.608451344788861 7.8702476097654852 -0.6018150307709319 0 0.79863550430605224 0.79863550430605224 0 0.6018150307709319 forward_v I I I I #
coedge $-1 $195 $196 $197 $198 reversed $77 $-1 #
face $-1 $-1 $199 $41 $-1 $200 forward single #
loop $-1 $201 $202 $79 #
cone-surface $-1 -68.643411513477901 11.150836709005787 9.4832734606234546 0.6018150307709319 0 -0.79863550430605224 0.39931775215302612 0 0.30090751538546595 1 I I -0.70710678118654746 0.70710678118654746 0.5 forward I I I I #
loop $-1 $-1 $203 $52 #
coedge $-1 $127 $127 $204 $205 reversed $80 $-1 #
face $-1 $-1 $206 $42 $-1 $207 forward single #
loop $-1 $208 $209 $82 #
cone-surface $-1 -68.643411513477901 15.608451344788861 9.4832734606234546 0.6018150307709319 0 -0.79863550430605224 0.39931775215302612 0 0.30090751538546595 1 I I -0.70710678118654746 0.70710678118654746 0.5 forward I I I I #
loop $-1 $-1 $210 $53 #
coedge $-1 $132 $132 $211 $212 reversed $83 $-1 #
face $-1 $-1 $213 $43 $-1 $214 forward single #
loop $-1 $215 $216 $85 #
cone-surface $-1 -68.643411513477901 20.066065980571935 9.4832734606234546 0.6018150307709319 0 -0.79863550430605224 0.39931775215302612 0 0.30090751538546595 1 I I -0.70710678118654746 0.70710678118654746 0.5 forward I I I I #
loop $-1 $-1 $217 $54 #
coedge $-1 $137 $137 $218 $219 reversed $86 $-1 #
face $-1 $220 $221 $33 $-1 $222 reversed single #
loop $-1 $-1 $223 $88 #
plane-surface $-1 0 -41.570397995442733 0 0 1 0 0 0 1 forward_v I I I I #
coedge $-1 $224 $225 $226 $227 forward $89 $-1 #
coedge $-1 $228 $91 $229 $230 forward $56 $-1 #
coedge $-1 $91 $228 $231 $232 forward $56 $-1 #
coedge $-1 $233 $234 $91 $145 reversed $235 $-1 #
edge $-1 $236 -41.570397995442733 $237 41.570397995442733 $144 $238 forward 7 unknown #
face $-1 $239 $240 $34 $-1 $241 forward single #
loop $-1 $-1 $242 $92 #
plane-surface $-1 -42.53426300760713 -35.014128692596543 0 -1 0 0 0 0 1 forward_v I I I I #
coedge $-1 $243 $244 $245 $246 forward $93 $-1 #
coedge $-1 $247 $95 $248 $249 reversed $59 $-1 #
coedge $-1 $95 $247 $250 $251 reversed $59 $-1 #
coedge $-1 $244 $243 $95 $153 reversed $93 $-1 #
edge $-1 $252 -17.407754814748632 $253 17.407754814748632 $152 $254 forward 7 unknown #
face $-1 $255 $256 $35 $-1 $257 reversed single #
loop $-1 $-1 $258 $96 #
plane-surface $-1 0 41.570397995442733 0 0 -1 0 0 0 -1 forward_v I I I I #
coedge $-1 $259 $260 $261 $262 reversed $97 $-1 #
coedge $-1 $263 $99 $258 $264 reversed $62 $-1 #
coedge $-1 $99 $263 $260 $265 forward $62 $-1 #
coedge $-1 $266 $267 $99 $161 forward $256 $-1 #
edge $-1 $268 -25.418346228808552 $269 -6.8857573044597942 $160 $270 forward 7 unknown #
face $-1 $271 $272 $36 $-1 $273 reversed single #
loop $-1 $-1 $274 $100 #
plane-surface $-1 46.901734880566835 8.1790936184837442 224.51930856519729 0 1 0 0.6018150307709319 0 0.79863550430605224 forward_v I I I I #
coedge $-1 $275 $276 $277 $278 reversed $101 $-1 #
coedge $-1 $167 $103 $279 $280 reversed $65 $-1 #
coedge $-1 $103 $166 $275 $281 reversed $65 $-1 #
coedge $-1 $277 $282 $103 $169 forward $283 $-1 #
edge $-1 $284 -53.898905196820976 $285 -41.242205900499172 $168 $286 forward 7 unknown #
loop $-1 $-1 $175 $104 #
plane-surface $-1 -46.198776718880296 15.608451344788861 100.9707592092126 0.6018150307709319 0 0.79863550430605224 0.79863550430605224 0 -0.6018150307709319 forward_v I I I I #
loop $-1 $-1 $287 $67 #
coedge $-1 $173 $173 $174 $288 reversed $105 $-1 #
coedge $-1 $174 $174 $173 $288 forward $107 $-1 #
coedge $-1 $175 $175 $108 $176 forward $170 $-1 #
edge $-1 $289 0 $289 6.2831853071796004 $175 $290 forward 7 unknown #
loop $-1 $-1 $182 $109 #
plane-surface $-1 -46.198776718880296 15.608451344788861 100.9707592092126 0.6018150307709319 0 0.79863550430605224 0.79863550430605224 0 -0.6018150307709319 forward_v I I I I #
loop $-1 $-1 $291 $70 #
coedge $-1 $180 $180 $181 $292 reversed $110 $-1 #
coedge $-1 $181 $181 $180 $292 forward $112 $-1 #
coedge $-1 $182 $182 $113 $183 forward $177 $-1 #
edge $-1 $293 0 $293 6.2831853071796004 $182 $294 forward 7 unknown #
loop $-1 $-1 $189 $114 #
plane-surface $-1 -46.198776718880296 15.608451344788861 100.9707592092126 0.6018150307709319 0 0.79863550430605224 0.79863550430605224 0 -0.6018150307709319 forward_v I I I I #
loop $-1 $-1 $295 $73 #
coedge $-1 $187 $187 $188 $296 reversed $115 $-1 #
coedge $-1 $188 $188 $187 $296 forward $117 $-1 #
coedge $-1 $189 $189 $118 $190 forward $184 $-1 #
edge $-1 $297 0 $297 6.2831853071796004 $189 $298 forward 7 unknown #
face $-1 $299 $300 $40 $-1 $301 forward single #
loop $-1 $-1 $302 $119 #
plane-surface $-1 -170.45028423655151 23.037809071093978 131.41879696575018 0 -1 0 0.6018150307709319 0 -0.79863550430605224 forward_v I I I I #
coedge $-1 $303 $304 $305 $306 reversed $120 $-1 #
coedge $-1 $196 $122 $307 $308 reversed $77 $-1 #
coedge $-1 $122 $195 $303 $309 reversed $77 $-1 #
coedge $-1 $305 $310 $122 $198 forward $300 $-1 #
edge $-1 $311 7.8753694811713615 $312 20.532068777493151 $197 $313 forward 7 unknown #
loop $-1 $-1 $204 $123 #
plane-surface $-1 -77.34977263710438 15.608451344788861 7.8702476097654852 -0.6018150307709319 0 0.79863550430605224 0.79863550430605224 0 0.6018150307709319 forward_v I I I I #
loop $-1 $-1 $314 $79 #
coedge $-1 $202 $202 $203 $315 reversed $124 $-1 #
coedge $-1 $203 $203 $202 $315 forward $126 $-1 #
coedge $-1 $204 $204 $127 $205 forward $199 $-1 #
edge $-1 $316 0 $316 6.2831853071796004 $204 $317 forward 7 unknown #
loop $-1 $-1 $211 $128 #
plane-surface $-1 -77.34977263710438 15.608451344788861 7.8702476097654852 -0.6018150307709319 0 0.79863550430605224 0.79863550430605224 0 0.6018150307709319 forward_v I I I I #
loop $-1 $-1 $318 $82 #
coedge $-1 $209 $209 $210 $319 reversed $129 $-1 #
coedge $-1 $210 $210 $209 $319 forward $131 $-1 #
coedge $-1 $211 $211 $132 $212 forward $206 $-1 #
edge $-1 $320 0 $320 6.2831853071796004 $211 $321 forward 7 unknown #
loop $-1 $-1 $218 $133 #
plane-surface $-1 -77.34977263710438 15.608451344788861 7.8702476097654852 -0.6018150307709319 0 0.79863550430605224 0.79863550430605224 0 0.6018150307709319 forward_v I I I I #
loop $-1 $-1 $322 $85 #
coedge $-1 $216 $216 $217 $323 reversed $134 $-1 #
coedge $-1 $217 $217 $216 $323 forward $136 $-1 #
coedge $-1 $218 $218 $137 $219 forward $213 $-1 #
edge $-1 $324 0 $324 6.2831853071796004 $218 $325 forward 7 unknown #
face $-1 $326 $327 $33 $-1 $328 reversed single #
loop $-1 $-1 $329 $138 #
plane-surface $-1 -77.349772637104394 0 0 1 0 0 0 0 -1 forward_v I I I I #
coedge $-1 $330 $231 $331 $332 forward $139 $-1 #
coedge $-1 $333 $141 $330 $334 forward $89 $-1 #
coedge $-1 $141 $333 $335 $336 forward $89 $-1 #
coedge $-1 $234 $233 $141 $227 reversed $235 $-1 #
edge $-1 $337 -41.570397995442733 $338 41.570397995442733 $226 $339 forward 7 unknown #
coedge $-1 $143 $142 $340 $341 forward $56 $-1 #
coedge $-1 $342 $343 $142 $230 reversed $327 $-1 #
edge $-1 $237 -77.349772637104394 $344 77.349772637104394 $229 $345 forward 7 unknown #
coedge $-1 $223 $346 $143 $232 reversed $139 $-1 #
edge $-1 $347 -77.349772637104394 $236 77.349772637104394 $231 $348 forward 7 unknown #
coedge $-1 $226 $144 $346 $349 forward $235 $-1 #
coedge $-1 $144 $226 $342 $350 reversed $235 $-1 #
loop $-1 $-1 $233 $326 #
vertex $-1 $145 $351 #
vertex $-1 $145 $352 #
straight-curve $-1 77.349772637104394 0 17.407754814748632 0 1 0 I I #
face $-1 $353 $354 $34 $-1 $355 reversed single #
loop $-1 $-1 $356 $146 #
plane-surface $-1 0 0 17.407754814748632 0 0 1 1 0 0 forward_v I I I I #
coedge $-1 $357 $358 $359 $360 reversed $147 $-1 #
coedge $-1 $152 $149 $361 $362 reversed $93 $-1 #
coedge $-1 $149 $152 $363 $364 reversed $93 $-1 #
coedge $-1 $358 $357 $149 $246 reversed $147 $-1 #
edge $-1 $365 -17.407754814748632 $366 17.407754814748632 $245 $367 forward 7 unknown #
coedge $-1 $151 $150 $368 $369 reversed $59 $-1 #
coedge $-1 $361 $370 $150 $249 forward $354 $-1 #
edge $-1 $371 -24.063333649144461 $253 -10.950795043452086 $248 $372 forward 7 unknown #
coedge $-1 $373 $363 $151 $251 forward $240 $-1 #
edge $-1 $252 10.950795043452086 $374 24.063333649144461 $250 $375 forward 7 unknown #
vertex $-1 $251 $376 #
vertex $-1 $249 $377 #
straight-curve $-1 -46.043439424530881 -28.457859389750357 0 0 0 -1 I I #
face $-1 $378 $379 $35 $-1 $380 reversed single #
loop $-1 $-1 $160 $154 #
plane-surface $-1 77.349772637104394 0 0 -1 0 0 0 0 1 forward_v I I I I #
coedge $-1 $381 $382 $158 $264 forward $155 $-1 #
coedge $-1 $383 $157 $384 $385 reversed $97 $-1 #
coedge $-1 $157 $383 $159 $265 reversed $97 $-1 #
coedge $-1 $386 $387 $157 $262 forward $388 $-1 #
edge $-1 $389 -11.163897520824868 $390 -1.3238170670226568 $261 $391 forward 7 unknown #
coedge $-1 $159 $158 $386 $392 reversed $62 $-1 #
edge $-1 $393 -77.349772637104394 $268 77.349772637104394 $258 $394 forward 7 unknown #
edge $-1 $390 -77.349772637104394 $269 77.349772637104394 $260 $395 forward 7 unknown #
coedge $-1 $396 $160 $383 $397 forward $256 $-1 #
coedge $-1 $160 $396 $381 $398 reversed $256 $-1 #
vertex $-1 $398 $399 #
vertex $-1 $161 $400 #
straight-curve $-1 77.349772637104394 16.152051766634173 -7.5676743609464197 0 -1 0 I I #
face $-1 $-1 $283 $36 $-1 $401 forward single #
loop $-1 $-1 $402 $162 #
plane-surface $-1 77.349772637104394 0 0 -1 0 0 0 0 1 forward_v I I I I #
coedge $-1 $403 $404 $405 $406 reversed $163 $-1 #
coedge $-1 $407 $165 $167 $281 forward $101 $-1 #
coedge $-1 $165 $407 $403 $408 forward $101 $-1 #
coedge $-1 $405 $168 $165 $278 forward $283 $-1 #
edge $-1 $285 -15.233583398699547 $409 -0.37486794608931362 $277 $410 forward 7 unknown #
coedge $-1 $411 $412 $166 $280 forward $272 $-1 #
edge $-1 $413 -104.38940667283318 $284 -94.851899467850018 $279 $414 forward 7 unknown #
edge $-1 $285 138.85164065679584 $413 154.69954527420879 $167 $415 forward 7 unknown #
coedge $-1 $168 $405 $411 $416 forward $283 $-1 #
loop $-1 $-1 $405 $271 #
vertex $-1 $280 $417 #
vertex $-1 $169 $418 #
straight-curve $-1 23.450867440283417 23.037809071093978 17.407754814748628 -1 0 0 I I #
coedge $-1 $287 $287 $-1 $419 reversed $172 $-1 #
edge $-1 $420 0 $420 6.2831853071796004 $173 $421 forward 7 unknown #
vertex $-1 $176 $422 #
ellipse-curve $-1 71.021422988943513 11.150836709005787 12.639001212257032 0.6018150307709319 0 0.79863550430605224 0.79863550430605224 0 -0.6018150307709319 1 I I #
coedge $-1 $291 $291 $-1 $423 reversed $179 $-1 #
edge $-1 $424 0 $424 6.2831853071796004 $180 $425 forward 7 unknown #
vertex $-1 $183 $426 #
ellipse-curve $-1 71.021422988943513 15.608451344788861 12.639001212257032 0.6018150307709319 0 0.79863550430605224 0.79863550430605224 0 -0.6018150307709319 1 I I #
coedge $-1 $295 $295 $-1 $427 reversed $186 $-1 #
edge $-1 $428 0 $428 6.2831853071796004 $187 $429 forward 7 unknown #
vertex $-1 $190 $430 #
ellipse-curve $-1 71.021422988943513 20.066065980571935 12.639001212257032 0.6018150307709319 0 0.79863550430605224 0.79863550430605224 0 -0.6018150307709319 1 I I #
face $-1 $-1 $431 $40 $-1 $432 reversed single #
loop $-1 $-1 $197 $191 #
plane-surface $-1 0 0 17.407754814748632 0 0 1 1 0 0 forward_v I I I I #
coedge $-1 $433 $434 $435 $436 reversed $192 $-1 #
coedge $-1 $437 $194 $196 $309 forward $120 $-1 #
coedge $-1 $194 $437 $433 $438 forward $120 $-1 #
coedge $-1 $435 $197 $194 $306 forward $300 $-1 #
edge $-1 $312 0.37486794608931362 $439 15.233583398699547 $305 $440 forward 7 unknown #
coedge $-1 $441 $442 $195 $308 forward $431 $-1 #
edge $-1 $443 -57.839150873109617 $311 -48.301643668126459 $307 $444 forward 7 unknown #
edge $-1 $312 -15.847904617412915 $443 1.7763522597878294e-014 $196 $445 forward 7 unknown #
coedge $-1 $197 $435 $441 $446 forward $300 $-1 #
vertex $-1 $198 $447 #
vertex $-1 $198 $448 #
straight-curve $-1 -85.225142118275755 8.1790936184837442 17.407754814748628 1 0 0 I I #
coedge $-1 $314 $314 $-1 $449 reversed $201 $-1 #
edge $-1 $450 0 $450 6.2831853071796004 $202 $451 forward 7 unknown #
vertex $-1 $205 $452 #
ellipse-curve $-1 -71.021422988943513 11.150836709005787 12.639001212257044 -0.6018150307709319 0 0.79863550430605224 0.79863550430605224 0 0.6018150307709319 1 I I #
coedge $-1 $318 $318 $-1 $453 reversed $208 $-1 #
edge $-1 $454 0 $454 6.2831853071796004 $209 $455 forward 7 unknown #
vertex $-1 $212 $456 #
ellipse-curve $-1 -71.021422988943513 15.608451344788861 12.639001212257044 -0.6018150307709319 0 0.79863550430605224 0.79863550430605224 0 0.6018150307709319 1 I I #
coedge $-1 $322 $322 $-1 $457 reversed $215 $-1 #
edge $-1 $458 0 $458 6.2831853071796004 $216 $459 forward 7 unknown #
vertex $-1 $219 $460 #
ellipse-curve $-1 -71.021422988943513 20.066065980571935 12.639001212257044 -0.6018150307709319 0 0.79863550430605224 0.79863550430605224 0 0.6018150307709319 1 I I #
face $-1 $-1 $235 $33 $-1 $461 reversed single #
loop $-1 $-1 $342 $220 #
plane-surface $-1 0 41.570397995442733 0 0 -1 0 0 0 -1 forward_v I I I I #
coedge $-1 $462 $340 $343 $463 forward $221 $-1 #
coedge $-1 $346 $223 $224 $334 reversed $139 $-1 #
coedge $-1 $340 $462 $223 $332 reversed $221 $-1 #
edge $-1 $347 -17.407754814748632 $464 17.407754814748632 $331 $465 forward 7 unknown #
coedge $-1 $225 $224 $462 $466 forward $89 $-1 #
edge $-1 $338 -77.349772637104394 $464 77.349772637104394 $330 $467 forward 7 unknown #
coedge $-1 $343 $342 $225 $336 reversed $327 $-1 #
edge $-1 $468 -77.349772637104394 $337 77.349772637104394 $335 $469 forward 7 unknown #
vertex $-1 $227 $470 #
vertex $-1 $349 $471 #
straight-curve $-1 77.349772637104394 0 -17.407754814748632 0 -1 0 I I #
coedge $-1 $329 $331 $228 $341 reversed $221 $-1 #
edge $-1 $344 -41.570397995442733 $347 41.570397995442733 $340 $472 forward 7 unknown #
coedge $-1 $335 $229 $234 $350 forward $327 $-1 #
coedge $-1 $229 $335 $329 $463 reversed $327 $-1 #
vertex $-1 $230 $473 #
straight-curve $-1 0 41.570397995442733 17.407754814748632 -1 0 0 I I #
coedge $-1 $231 $330 $233 $349 reversed $139 $-1 #
vertex $-1 $341 $474 #
straight-curve $-1 0 -41.570397995442733 17.407754814748632 1 0 0 I I #
edge $-1 $236 -17.407754814748632 $338 17.407754814748632 $233 $475 forward 7 unknown #
edge $-1 $237 -17.407754814748632 $337 17.407754814748632 $234 $476 forward 7 unknown #
point $-1 77.349772637104394 -41.570397995442733 17.407754814748632 #
point $-1 77.349772637104394 41.570397995442733 17.407754814748632 #
face $-1 $-1 $477 $34 $-1 $478 reversed single #
loop $-1 $-1 $479 $239 #
plane-surface $-1 0 0 -17.407754814748632 0 0 1 1 0 0 forward_v I I I I #
coedge $-1 $363 $373 $358 $480 forward $240 $-1 #
coedge $-1 $245 $242 $479 $481 reversed $147 $-1 #
coedge $-1 $242 $245 $356 $480 reversed $147 $-1 #
coedge $-1 $482 $483 $242 $360 forward $477 $-1 #
edge $-1 $484 -17.407754814748632 $485 17.407754814748632 $359 $486 forward 7 unknown #
coedge $-1 $479 $248 $243 $362 forward $354 $-1 #
edge $-1 $253 -23.899013816496378 $366 -20.389837399572627 $361 $487 forward 7 unknown #
coedge $-1 $250 $356 $244 $364 forward $240 $-1 #
edge $-1 $365 20.389837399572627 $252 23.899013816496378 $363 $488 forward 7 unknown #
vertex $-1 $364 $489 #
vertex $-1 $362 $490 #
straight-curve $-1 -42.53426300760713 -28.457859389750357 0 0 0 -1 I I #
coedge $-1 $483 $482 $247 $369 forward $477 $-1 #
edge $-1 $374 -17.407754814748632 $371 17.407754814748632 $368 $491 forward 7 unknown #
coedge $-1 $248 $479 $483 $492 forward $354 $-1 #
vertex $-1 $249 $493 #
straight-curve $-1 -46.043439424530881 -17.507064346298272 -17.407754814748632 0 1 0 I I #
coedge $-1 $356 $250 $482 $494 forward $240 $-1 #
vertex $-1 $494 $495 #
straight-curve $-1 -46.043439424530881 -17.507064346298272 17.407754814748632 0 -1 0 I I #
point $-1 -46.043439424530881 -28.457859389750357 17.407754814748632 #
point $-1 -46.043439424530881 -28.457859389750357 -17.407754814748632 #
face $-1 $-1 $388 $35 $-1 $496 reversed single #
loop $-1 $-1 $384 $255 #
plane-surface $-1 0 0 -17.407754814748632 0 0 1 1 0 0 forward_v I I I I #
coedge $-1 $497 $258 $267 $398 forward $155 $-1 #
coedge $-1 $258 $497 $498 $499 reversed $155 $-1 #
coedge $-1 $260 $259 $266 $397 reversed $97 $-1 #
coedge $-1 $500 $501 $259 $385 forward $379 $-1 #
edge $-1 $502 -77.349772637104394 $389 77.349772637104394 $384 $503 forward 7 unknown #
coedge $-1 $498 $261 $263 $392 forward $388 $-1 #
coedge $-1 $261 $498 $500 $504 reversed $388 $-1 #
loop $-1 $-1 $386 $378 #
vertex $-1 $504 $505 #
vertex $-1 $392 $506 #
straight-curve $-1 -77.349772637104394 23.037809071093967 -6.2438572939237629 0 0 1 I I #
edge $-1 $390 6.8857573044597942 $393 25.418346228808552 $386 $507 forward 7 unknown #
vertex $-1 $499 $508 #
straight-curve $-1 0 41.570397995442733 -7.5676743609464197 1 0 0 I I #
straight-curve $-1 0 23.037809071093967 -7.5676743609464197 1 0 0 I I #
coedge $-1 $267 $266 $501 $509 reversed $256 $-1 #
edge $-1 $269 1.3238170670226568 $502 11.163897520824868 $266 $510 forward 7 unknown #
edge $-1 $268 7.5676743609464197 $511 17.407754814748632 $267 $512 forward 7 unknown #
point $-1 77.349772637104394 41.570397995442725 -7.5676743609464197 #
point $-1 77.349772637104394 23.037809071093967 -7.5676743609464197 #
plane-surface $-1 0 0 17.407754814748632 0 0 1 1 0 0 forward_v I I I I #
coedge $-1 $412 $411 $404 $513 forward $272 $-1 #
coedge $-1 $404 $274 $276 $408 reversed $163 $-1 #
coedge $-1 $274 $403 $402 $513 reversed $163 $-1 #
coedge $-1 $282 $277 $274 $406 forward $283 $-1 #
edge $-1 $409 41.242205900499172 $514 53.898905196820976 $405 $515 forward 7 unknown #
coedge $-1 $276 $275 $412 $516 reversed $101 $-1 #
edge $-1 $517 -154.69954527420879 $409 -138.85164065679584 $403 $518 forward 7 unknown #
vertex $-1 $278 $519 #
straight-curve $-1 64.693073340782618 7.8042256723944305 17.407754814748628 0 -1 0 I I #
coedge $-1 $402 $279 $282 $416 reversed $272 $-1 #
coedge $-1 $279 $402 $407 $516 forward $272 $-1 #
vertex $-1 $280 $520 #
straight-curve $-1 77.349772637104394 23.037809071093978 112.25965428259865 0 0 1 I I #
straight-curve $-1 -46.198776718880296 23.037809071093978 100.9707592092126 0.79863550430605224 0 -0.6018150307709319 I I #
edge $-1 $514 8.1790936184837442 $284 23.037809071093978 $411 $521 forward 7 unknown #
point $-1 77.349772637104394 23.037809071093978 17.407754814748632 #
point $-1 64.69307334078259 23.037809071093978 17.407754814748643 #
edge $-1 $522 1 $522 0 $287 $-1 forward 7 unknown #
vertex $-1 $288 $523 #
ellipse-curve $-1 68.944319028863362 11.150836709005787 9.8825912127764592 0.6018150307709319 0 0.79863550430605224 0.79863550430605224 0 -0.6018150307709319 1 I I #
point $-1 71.820058493249576 11.150836709005787 12.037186181486106 #
edge $-1 $524 1 $524 0 $291 $-1 forward 7 unknown #
vertex $-1 $292 $525 #
ellipse-curve $-1 68.944319028863362 15.608451344788861 9.8825912127764592 0.6018150307709319 0 0.79863550430605224 0.79863550430605224 0 -0.6018150307709319 1 I I #
point $-1 71.820058493249576 15.608451344788861 12.037186181486106 #
edge $-1 $526 1 $526 0 $295 $-1 forward 7 unknown #
vertex $-1 $296 $527 #
ellipse-curve $-1 68.944319028863362 20.066065980571935 9.8825912127764592 0.6018150307709319 0 0.79863550430605224 0.79863550430605224 0 -0.6018150307709319 1 I I #
point $-1 71.820058493249576 20.066065980571935 12.037186181486106 #
loop $-1 $-1 $307 $299 #
plane-surface $-1 -77.349772637104394 0 0 1 0 0 0 0 -1 forward_v I I I I #
coedge $-1 $434 $302 $304 $438 reversed $192 $-1 #
coedge $-1 $302 $433 $528 $529 reversed $192 $-1 #
coedge $-1 $310 $305 $302 $436 forward $300 $-1 #
edge $-1 $439 -20.532068777493151 $530 -7.8753694811713615 $435 $531 forward 7 unknown #
coedge $-1 $304 $303 $442 $532 reversed $120 $-1 #
edge $-1 $533 -1.7763522597878294e-014 $439 15.847904617412915 $433 $534 forward 7 unknown #
vertex $-1 $306 $535 #
straight-curve $-1 -64.693073340782604 7.8042256723944305 17.407754814748632 0 1 0 I I #
coedge $-1 $528 $307 $310 $446 reversed $431 $-1 #
coedge $-1 $307 $528 $437 $532 forward $431 $-1 #
vertex $-1 $308 $536 #
straight-curve $-1 -77.349772637104394 8.1790936184837442 65.709398482875088 0 0 1 I I #
straight-curve $-1 -77.34977263710438 8.1790936184837442 7.8702476097654852 -0.79863550430605224 0 -0.6018150307709319 I I #
edge $-1 $530 -23.037809071093978 $311 -8.1790936184837442 $441 $537 forward 7 unknown #
point $-1 -77.349772637104394 8.1790936184837442 17.407754814748632 #
point $-1 -64.693073340782604 8.1790936184837442 17.407754814748632 #
edge $-1 $538 1 $538 0 $314 $-1 forward 7 unknown #
vertex $-1 $315 $539 #
ellipse-curve $-1 -68.944319028863362 11.150836709005787 9.8825912127764806 -0.6018150307709319 0 0.79863550430605224 0.79863550430605224 0 0.6018150307709319 1 I I #
point $-1 -70.222787484637465 11.150836709005787 13.240816243027989 #
edge $-1 $540 1 $540 0 $318 $-1 forward 7 unknown #
vertex $-1 $319 $541 #
ellipse-curve $-1 -68.944319028863362 15.608451344788861 9.8825912127764806 -0.6018150307709319 0 0.79863550430605224 0.79863550430605224 0 0.6018150307709319 1 I I #
point $-1 -70.222787484637465 15.608451344788861 13.240816243027989 #
edge $-1 $542 1 $542 0 $322 $-1 forward 7 unknown #
vertex $-1 $323 $543 #
ellipse-curve $-1 -68.944319028863362 20.066065980571935 9.8825912127764806 -0.6018150307709319 0 0.79863550430605224 0.79863550430605224 0 0.6018150307709319 1 I I #
point $-1 -70.222787484637465 20.066065980571935 13.240816243027989 #
plane-surface $-1 77.349772637104394 0 0 -1 0 0 0 0 1 forward_v I I I I #
coedge $-1 $331 $329 $333 $466 reversed $221 $-1 #
edge $-1 $344 -17.407754814748632 $468 17.407754814748632 $343 $544 forward 7 unknown #
vertex $-1 $466 $545 #
straight-curve $-1 -77.349772637104394 -41.570397995442733 0 0 0 -1 I I #
edge $-1 $464 -41.570397995442733 $468 41.570397995442733 $462 $546 forward 7 unknown #
straight-curve $-1 0 -41.570397995442733 -17.407754814748632 -1 0 0 I I #
vertex $-1 $336 $547 #
straight-curve $-1 0 41.570397995442733 -17.407754814748632 1 0 0 I I #
point $-1 77.349772637104394 41.570397995442733 -17.407754814748632 #
point $-1 77.349772637104394 -41.570397995442733 -17.407754814748632 #
straight-curve $-1 -77.349772637104394 0 17.407754814748632 0 -1 0 I I #
point $-1 -77.349772637104394 41.570397995442733 17.407754814748632 #
point $-1 -77.349772637104394 -41.570397995442733 17.407754814748632 #
straight-curve $-1 77.349772637104394 -41.570397995442733 0 0 0 -1 I I #
straight-curve $-1 77.349772637104394 41.570397995442733 0 0 0 -1 I I #
loop $-1 $-1 $359 $353 #
plane-surface $-1 0 -41.570397995442733 0 0 1 0 0 0 1 forward_v I I I I #
coedge $-1 $370 $361 $357 $481 forward $354 $-1 #
edge $-1 $485 -24.063333649144461 $365 -10.950795043452086 $356 $548 forward 7 unknown #
edge $-1 $366 10.950795043452086 $484 24.063333649144461 $479 $549 forward 7 unknown #
coedge $-1 $368 $359 $373 $494 reversed $477 $-1 #
coedge $-1 $359 $368 $370 $492 reversed $477 $-1 #
vertex $-1 $492 $550 #
vertex $-1 $360 $551 #
straight-curve $-1 -42.53426300760713 -41.570397995442733 0 0 0 1 I I #
straight-curve $-1 -22.144425608034503 -28.457859389750357 -17.407754814748632 1 0 0 I I #
straight-curve $-1 -22.144425608034503 -28.457859389750357 17.407754814748632 -1 0 0 I I #
point $-1 -42.53426300760713 -28.457859389750357 17.407754814748632 #
point $-1 -42.53426300760713 -28.457859389750357 -17.407754814748632 #
straight-curve $-1 -46.043439424530881 -41.570397995442733 0 0 0 -1 I I #
edge $-1 $484 42.53426300760713 $371 46.043439424530881 $483 $552 forward 7 unknown #
point $-1 -46.043439424530881 -41.570397995442733 -17.407754814748632 #
edge $-1 $374 -46.043439424530881 $485 -42.53426300760713 $482 $553 forward 7 unknown #
point $-1 -46.043439424530881 -41.570397995442733 17.407754814748632 #
plane-surface $-1 -77.349772637104394 0 0 1 0 0 0 0 -1 forward_v I I I I #
coedge $-1 $382 $381 $554 $555 reversed $155 $-1 #
coedge $-1 $387 $386 $382 $499 forward $388 $-1 #
edge $-1 $393 7.5676743609464197 $556 17.407754814748632 $382 $557 forward 7 unknown #
coedge $-1 $554 $384 $387 $504 forward $379 $-1 #
coedge $-1 $384 $554 $396 $509 forward $379 $-1 #
vertex $-1 $397 $558 #
straight-curve $-1 0 23.037809071093967 -17.407754814748632 -1 0 0 I I #
edge $-1 $389 23.037809071093967 $556 41.570397995442733 $387 $559 forward 7 unknown #
point $-1 -77.349772637104394 23.037809071093967 -17.407754814748632 #
point $-1 -77.349772637104394 23.037809071093967 -7.5676743609464197 #
straight-curve $-1 -77.349772637104394 16.152051766634173 -7.5676743609464197 0 1 0 I I #
point $-1 -77.349772637104394 41.570397995442725 -7.5676743609464197 #
edge $-1 $511 -41.570397995442733 $502 -23.037809071093967 $396 $560 forward 7 unknown #
straight-curve $-1 77.349772637104394 23.037809071093967 -6.2438572939237629 0 0 -1 I I #
vertex $-1 $509 $561 #
straight-curve $-1 77.349772637104394 41.570397995442733 0 0 0 -1 I I #
edge $-1 $514 94.851899467850018 $517 104.38940667283318 $402 $562 forward 7 unknown #
vertex $-1 $416 $563 #
straight-curve $-1 23.450867440283417 8.1790936184837442 17.407754814748628 1 0 0 I I #
edge $-1 $517 0.37486794608931362 $413 15.233583398699547 $412 $564 forward 7 unknown #
vertex $-1 $516 $565 #
straight-curve $-1 -46.198776718880296 8.1790936184837442 100.9707592092126 -0.79863550430605224 0 0.6018150307709319 I I #
point $-1 64.69307334078259 8.1790936184837442 17.407754814748643 #
point $-1 77.349772637104394 23.037809071093978 7.870247609765471 #
straight-curve $-1 77.349772637104394 0 17.407754814748632 0 1 0 I I #
vertex $-1 $419 $566 #
point $-1 69.742954533169424 11.150836709005787 9.2807761820055283 #
vertex $-1 $423 $567 #
point $-1 69.742954533169424 15.608451344788861 9.2807761820055283 #
vertex $-1 $427 $568 #
point $-1 69.742954533169424 20.066065980571935 9.2807761820055283 #
coedge $-1 $442 $441 $434 $529 forward $431 $-1 #
edge $-1 $530 48.301643668126459 $533 57.839150873109617 $528 $569 forward 7 unknown #
vertex $-1 $446 $570 #
straight-curve $-1 -85.225142118275755 23.037809071093978 17.407754814748628 -1 0 0 I I #
edge $-1 $533 -15.233583398699547 $443 -0.37486794608931362 $442 $571 forward 7 unknown #
vertex $-1 $532 $572 #
straight-curve $-1 -77.34977263710438 23.037809071093978 7.8702476097654852 0.79863550430605224 0 0.6018150307709319 I I #
point $-1 -64.693073340782604 23.037809071093978 17.407754814748632 #
point $-1 -77.349772637104394 8.1790936184837442 7.8702476097654746 #
straight-curve $-1 -77.349772637104394 0 17.407754814748632 0 -1 0 I I #
vertex $-1 $449 $573 #
point $-1 -68.145683524557313 11.150836709005787 10.484406243547413 #
vertex $-1 $453 $574 #
point $-1 -68.145683524557313 15.608451344788861 10.484406243547413 #
vertex $-1 $457 $575 #
point $-1 -68.145683524557313 20.066065980571935 10.484406243547413 #
straight-curve $-1 -77.349772637104394 41.570397995442733 0 0 0 -1 I I #
point $-1 -77.349772637104394 -41.570397995442733 -17.407754814748632 #
straight-curve $-1 -77.349772637104394 0 -17.407754814748632 0 1 0 I I #
point $-1 -77.349772637104394 41.570397995442733 -17.407754814748632 #
straight-curve $-1 -42.53426300760713 -17.507064346298272 17.407754814748632 0 1 0 I I #
straight-curve $-1 -42.53426300760713 -17.507064346298272 -17.407754814748632 0 -1 0 I I #
point $-1 -42.53426300760713 -41.570397995442733 -17.407754814748632 #
point $-1 -42.53426300760713 -41.570397995442733 17.407754814748632 #
straight-curve $-1 0 -41.570397995442733 -17.407754814748632 -1 0 0 I I #
straight-curve $-1 0 -41.570397995442733 17.407754814748632 1 0 0 I I #
coedge $-1 $501 $500 $497 $555 forward $379 $-1 #
edge $-1 $556 -77.349772637104394 $511 77.349772637104394 $497 $576 forward 7 unknown #
vertex $-1 $555 $577 #
straight-curve $-1 -77.349772637104394 41.570397995442733 0 0 0 -1 I I #
point $-1 77.349772637104394 23.037809071093967 -17.407754814748632 #
straight-curve $-1 -77.349772637104394 0 -17.407754814748632 0 1 0 I I #
straight-curve $-1 77.349772637104394 0 -17.407754814748632 0 -1 0 I I #
point $-1 77.349772637104394 41.570397995442733 -17.407754814748632 #
straight-curve $-1 77.349772637104394 8.1790936184837442 112.25965428259865 0 0 -1 I I #
point $-1 77.349772637104394 8.1790936184837442 17.407754814748632 #
straight-curve $-1 77.349772637104394 7.8042256723944305 7.870247609765471 0 1 0 I I #
point $-1 77.349772637104394 8.1790936184837442 7.870247609765471 #
point $-1 68.34250399809244 11.150836709005787 9.0839557084704072 #
point $-1 68.34250399809244 15.608451344788861 9.0839557084704072 #
point $-1 68.34250399809244 20.066065980571935 9.0839557084704072 #
straight-curve $-1 -77.349772637104394 23.037809071093978 65.709398482875088 0 0 -1 I I #
point $-1 -77.349772637104394 23.037809071093978 17.407754814748632 #
straight-curve $-1 -77.349772637104394 7.8042256723944305 7.8702476097654852 0 -1 0 I I #
point $-1 -77.349772637104394 23.037809071093978 7.8702476097654746 #
point $-1 -68.34250399809244 11.150836709005787 9.0839557084704285 #
point $-1 -68.34250399809244 15.608451344788861 9.0839557084704285 #
point $-1 -68.34250399809244 20.066065980571935 9.0839557084704285 #
straight-curve $-1 0 41.570397995442733 -17.407754814748632 1 0 0 I I #
point $-1 -77.349772637104394 41.570397995442733 -17.407754814748632 #
End-of-ACIS-data 