500 0 13 0           
7 Unknown 11 ACIS 5.0 NT 24 Fri Mar 26 00:09:43 1999 
-1 9.9999999999999995e-007 1e-010 
body $-1 $13 $-1 $14 #
body $-1 $15 $-1 $16 #
body $-1 $17 $-1 $18 #
body $-1 $19 $-1 $20 #
body $-1 $21 $-1 $22 #
body $-1 $23 $-1 $24 #
body $-1 $25 $-1 $26 #
body $-1 $27 $-1 $28 #
body $-1 $29 $-1 $30 #
body $-1 $31 $-1 $32 #
body $-1 $33 $-1 $34 #
body $-1 $35 $-1 $36 #
body $-1 $37 $-1 $38 #
lump $-1 $-1 $39 $0 #
transform $-1 1 0 0 0 1 0 0 0 1 44.035767693105868 22.155634210899482 9.464777127010402 1 rotate no_reflect no_shear #
lump $-1 $-1 $40 $1 #
transform $-1 1 0 0 0 1 0 0 0 1 44.035767693105868 22.155634210899482 9.464777127010402 1 rotate no_reflect no_shear #
lump $-1 $-1 $41 $2 #
transform $-1 1 0 0 0 1 0 0 0 1 44.035767693105868 22.155634210899482 9.464777127010402 1 rotate no_reflect no_shear #
lump $-1 $-1 $42 $3 #
transform $-1 1 0 0 0 1 0 0 0 1 44.035767693105868 22.155634210899482 9.464777127010402 1 rotate no_reflect no_shear #
lump $-1 $-1 $43 $4 #
transform $-1 1 0 0 0 1 0 0 0 1 44.035767693105868 22.155634210899482 9.464777127010402 1 rotate no_reflect no_shear #
lump $-1 $-1 $44 $5 #
transform $-1 1 0 0 0 1 0 0 0 1 44.035767693105868 22.155634210899482 9.464777127010402 1 rotate no_reflect no_shear #
lump $-1 $-1 $45 $6 #
transform $-1 1 0 0 0 1 0 0 0 1 44.035767693105868 22.155634210899482 9.464777127010402 1 rotate no_reflect no_shear #
lump $-1 $-1 $46 $7 #
transform $-1 1 0 0 0 1 0 0 0 1 44.035767693105868 22.155634210899482 9.464777127010402 1 rotate no_reflect no_shear #
lump $-1 $-1 $47 $8 #
transform $-1 1 0 0 0 1 0 0 0 1 44.035767693105868 22.155634210899482 9.464777127010402 1 rotate no_reflect no_shear #
lump $-1 $-1 $48 $9 #
transform $-1 1 0 0 0 1 0 0 0 1 44.035767693105868 22.155634210899482 9.464777127010402 1 rotate no_reflect no_shear #
lump $-1 $-1 $49 $10 #
transform $-1 1 0 0 0 1 0 0 0 1 44.035767693105868 22.155634210899482 9.464777127010402 1 rotate no_reflect no_shear #
lump $-1 $-1 $50 $11 #
transform $-1 1 0 0 0 1 0 0 0 1 44.035767693105868 22.155634210899482 9.464777127010402 1 rotate no_reflect no_shear #
lump $-1 $-1 $51 $12 #
transform $-1 1 0 0 0 1 0 0 0 1 44.035767693105868 22.155634210899482 9.464777127010402 1 rotate no_reflect no_shear #
shell $-1 $-1 $-1 $52 $-1 $13 #
shell $-1 $-1 $-1 $53 $-1 $15 #
shell $-1 $-1 $-1 $54 $-1 $17 #
shell $-1 $-1 $-1 $55 $-1 $19 #
shell $-1 $-1 $-1 $56 $-1 $21 #
shell $-1 $-1 $-1 $57 $-1 $23 #
shell $-1 $-1 $-1 $58 $-1 $25 #
shell $-1 $-1 $-1 $59 $-1 $27 #
shell $-1 $-1 $-1 $60 $-1 $29 #
shell $-1 $-1 $-1 $61 $-1 $31 #
shell $-1 $-1 $-1 $62 $-1 $33 #
shell $-1 $-1 $-1 $63 $-1 $35 #
shell $-1 $-1 $-1 $64 $-1 $37 #
face $-1 $65 $66 $39 $-1 $67 forward single #
face $-1 $68 $69 $40 $-1 $70 reversed single #
face $-1 $71 $72 $41 $-1 $73 forward single #
face $-1 $74 $75 $42 $-1 $76 forward single #
face $-1 $77 $78 $43 $-1 $79 reversed single #
face $-1 $80 $81 $44 $-1 $82 forward single #
face $-1 $83 $84 $45 $-1 $85 forward single #
face $-1 $86 $87 $46 $-1 $88 reversed single #
face $-1 $89 $90 $47 $-1 $91 forward single #
face $-1 $92 $93 $48 $-1 $94 forward single #
face $-1 $95 $96 $49 $-1 $97 reversed single #
face $-1 $98 $99 $50 $-1 $100 forward single #
face $-1 $101 $102 $51 $-1 $103 forward single #
face $-1 $104 $105 $39 $-1 $106 reversed single #
loop $-1 $-1 $107 $52 #
plane-surface $-1 0 0 9.464777127010402 0 0 1 1 0 0 forward_v I I I I #
face $-1 $108 $109 $40 $-1 $110 reversed single #
loop $-1 $-1 $111 $53 #
plane-surface $-1 -27.986894278140291 -97.647675156619059 48.551839962534551 -1 0 0 0 -0.85716730853699208 0.51503806187062418 forward_v I I I I #
face $-1 $112 $113 $41 $-1 $114 forward single #
loop $-1 $115 $116 $54 #
cone-surface $-1 -37.154205023724401 -18.806026389191139 5.4479696594241398 0 0.85716730853699208 -0.51503806187062418 1 0 0 1 I I 0 1 1 forward I I I I #
face $-1 $117 $118 $42 $-1 $119 forward single #
loop $-1 $120 $121 $55 #
cone-surface $-1 -31.653818576373936 -18.806026389191139 5.4479696594241398 0 0.85716730853699208 -0.51503806187062418 1 0 0 1 I I 0 1 1 forward I I I I #
face $-1 $122 $123 $43 $-1 $124 reversed single #
loop $-1 $-1 $125 $56 #
plane-surface $-1 -5.0508864114408434 -97.647675156619059 48.551839962534551 -1 0 0 0 -0.85716730853699208 0.51503806187062418 forward_v I I I I #
face $-1 $126 $127 $44 $-1 $128 forward single #
loop $-1 $129 $130 $57 #
cone-surface $-1 -14.218197157024957 -18.806026389191139 5.4479696594241398 0 0.85716730853699208 -0.51503806187062418 1 0 0 1 I I 0 1 1 forward I I I I #
face $-1 $131 $132 $45 $-1 $133 forward single #
loop $-1 $134 $135 $58 #
cone-surface $-1 -8.7178107096744881 -18.806026389191139 5.4479696594241398 0 0.85716730853699208 -0.51503806187062418 1 0 0 1 I I 0 1 1 forward I I I I #
face $-1 $136 $137 $46 $-1 $138 reversed single #
loop $-1 $-1 $139 $59 #
plane-surface $-1 17.885121455258599 -97.647675156619059 48.551839962534551 -1 0 0 0 -0.85716730853699208 0.51503806187062418 forward_v I I I I #
face $-1 $140 $141 $47 $-1 $142 forward single #
loop $-1 $143 $144 $60 #
cone-surface $-1 8.7178107096744881 -18.806026389191139 5.4479696594241398 0 0.85716730853699208 -0.51503806187062418 1 0 0 1 I I 0 1 1 forward I I I I #
face $-1 $145 $146 $48 $-1 $147 forward single #
loop $-1 $148 $149 $61 #
cone-surface $-1 14.21819715702496 -18.806026389191139 5.4479696594241398 0 0.85716730853699208 -0.51503806187062418 1 0 0 1 I I 0 1 1 forward I I I I #
face $-1 $150 $151 $49 $-1 $152 reversed single #
loop $-1 $-1 $153 $62 #
plane-surface $-1 40.82112932195804 -97.647675156619059 48.551839962534551 -1 0 0 0 -0.85716730853699208 0.51503806187062418 forward_v I I I I #
face $-1 $154 $155 $50 $-1 $156 forward single #
loop $-1 $157 $158 $63 #
cone-surface $-1 31.653818576373936 -18.806026389191139 5.4479696594241398 0 0.85716730853699208 -0.51503806187062418 1 0 0 1 I I 0 1 1 forward I I I I #
face $-1 $159 $160 $51 $-1 $161 forward single #
loop $-1 $162 $163 $64 #
cone-surface $-1 37.154205023724401 -18.806026389191139 5.4479696594241398 0 0.85716730853699208 -0.51503806187062418 1 0 0 1 I I 0 1 1 forward I I I I #
face $-1 $164 $165 $39 $-1 $166 reversed single #
loop $-1 $-1 $167 $65 #
plane-surface $-1 0 0 -9.464777127010402 0 0 1 1 0 0 forward_v I I I I #
coedge $-1 $168 $169 $170 $171 forward $66 $-1 #
face $-1 $172 $173 $40 $-1 $174 reversed single #
loop $-1 $-1 $175 $68 #
plane-surface $-1 -34.404011800049169 -22.155634210899493 3.1916470712499674 0 -0.85716730853699208 0.51503806187062418 1 0 0 forward_v I I I I #
coedge $-1 $176 $177 $178 $179 reversed $69 $-1 #
face $-1 $-1 $180 $41 $-1 $181 forward single #
loop $-1 $182 $183 $71 #
cone-surface $-1 -37.154205023724401 -16.912473252546032 4.3102081887827897 0 0.85716730853699208 -0.51503806187062418 0.5 0 0 1 I I -0.70710678118654746 0.70710678118654746 0.5 forward I I I I #
loop $-1 $-1 $184 $54 #
coedge $-1 $116 $116 $185 $186 reversed $72 $-1 #
face $-1 $-1 $187 $42 $-1 $188 forward single #
loop $-1 $189 $190 $74 #
cone-surface $-1 -31.653818576373936 -16.912473252546032 4.3102081887827897 0 0.85716730853699208 -0.51503806187062418 0.5 0 0 1 I I -0.70710678118654746 0.70710678118654746 0.5 forward I I I I #
loop $-1 $-1 $191 $55 #
coedge $-1 $121 $121 $192 $193 reversed $75 $-1 #
face $-1 $194 $195 $43 $-1 $196 reversed single #
loop $-1 $-1 $197 $77 #
plane-surface $-1 -11.468003933349721 -22.155634210899493 3.1916470712499674 0 -0.85716730853699208 0.51503806187062418 1 0 0 forward_v I I I I #
coedge $-1 $198 $199 $200 $201 reversed $78 $-1 #
face $-1 $-1 $202 $44 $-1 $203 forward single #
loop $-1 $204 $205 $80 #
cone-surface $-1 -14.218197157024957 -16.912473252546032 4.3102081887827897 0 0.85716730853699208 -0.51503806187062418 0.5 0 0 1 I I -0.70710678118654746 0.70710678118654746 0.5 forward I I I I #
loop $-1 $-1 $206 $57 #
coedge $-1 $130 $130 $207 $208 reversed $81 $-1 #
face $-1 $-1 $209 $45 $-1 $210 forward single #
loop $-1 $211 $212 $83 #
cone-surface $-1 -8.7178107096744881 -16.912473252546032 4.3102081887827897 0 0.85716730853699208 -0.51503806187062418 0.5 0 0 1 I I -0.70710678118654746 0.70710678118654746 0.5 forward I I I I #
loop $-1 $-1 $213 $58 #
coedge $-1 $135 $135 $214 $215 reversed $84 $-1 #
face $-1 $216 $217 $46 $-1 $218 reversed single #
loop $-1 $-1 $219 $86 #
plane-surface $-1 11.468003933349721 -22.155634210899493 3.1916470712499674 0 -0.85716730853699208 0.51503806187062418 1 0 0 forward_v I I I I #
coedge $-1 $220 $221 $222 $223 reversed $87 $-1 #
face $-1 $-1 $224 $47 $-1 $225 forward single #
loop $-1 $226 $227 $89 #
cone-surface $-1 8.7178107096744881 -16.912473252546032 4.3102081887827897 0 0.85716730853699208 -0.51503806187062418 0.5 0 0 1 I I -0.70710678118654746 0.70710678118654746 0.5 forward I I I I #
loop $-1 $-1 $228 $60 #
coedge $-1 $144 $144 $229 $230 reversed $90 $-1 #
face $-1 $-1 $231 $48 $-1 $232 forward single #
loop $-1 $233 $234 $92 #
cone-surface $-1 14.21819715702496 -16.912473252546032 4.3102081887827897 0 0.85716730853699208 -0.51503806187062418 0.5 0 0 1 I I -0.70710678118654746 0.70710678118654746 0.5 forward I I I I #
loop $-1 $-1 $235 $61 #
coedge $-1 $149 $149 $236 $237 reversed $93 $-1 #
face $-1 $238 $239 $49 $-1 $240 reversed single #
loop $-1 $-1 $241 $95 #
plane-surface $-1 34.404011800049162 -22.155634210899493 3.1916470712499674 0 -0.85716730853699208 0.51503806187062418 1 0 0 forward_v I I I I #
coedge $-1 $242 $243 $244 $245 reversed $96 $-1 #
face $-1 $-1 $246 $50 $-1 $247 forward single #
loop $-1 $248 $249 $98 #
cone-surface $-1 31.653818576373936 -16.912473252546032 4.3102081887827897 0 0.85716730853699208 -0.51503806187062418 0.5 0 0 1 I I -0.70710678118654746 0.70710678118654746 0.5 forward I I I I #
loop $-1 $-1 $250 $63 #
coedge $-1 $158 $158 $251 $252 reversed $99 $-1 #
face $-1 $-1 $253 $51 $-1 $254 forward single #
loop $-1 $255 $256 $101 #
cone-surface $-1 37.154205023724401 -16.912473252546032 4.3102081887827897 0 0.85716730853699208 -0.51503806187062418 0.5 0 0 1 I I -0.70710678118654746 0.70710678118654746 0.5 forward I I I I #
loop $-1 $-1 $257 $64 #
coedge $-1 $163 $163 $258 $259 reversed $102 $-1 #
face $-1 $260 $261 $39 $-1 $262 reversed single #
loop $-1 $-1 $263 $104 #
plane-surface $-1 0 -22.155634210899482 0 0 1 0 0 0 1 forward_v I I I I #
coedge $-1 $264 $265 $266 $267 forward $105 $-1 #
coedge $-1 $268 $107 $269 $270 forward $66 $-1 #
coedge $-1 $107 $268 $271 $272 forward $66 $-1 #
coedge $-1 $273 $274 $107 $171 reversed $275 $-1 #
edge $-1 $276 -22.155634210899482 $277 22.155634210899482 $170 $278 forward 7 unknown #
face $-1 $279 $280 $40 $-1 $281 reversed single #
loop $-1 $-1 $282 $108 #
plane-surface $-1 -40.821129321958047 -97.647675156619059 48.551839962534551 1 0 0 0 0.85716730853699208 -0.51503806187062418 forward_v I I I I #
coedge $-1 $283 $284 $285 $286 reversed $109 $-1 #
coedge $-1 $177 $111 $287 $288 reversed $69 $-1 #
coedge $-1 $111 $176 $283 $289 reversed $69 $-1 #
coedge $-1 $285 $290 $111 $179 forward $291 $-1 #
edge $-1 $292 26.668203367410047 $293 30.437480046073503 $178 $294 forward 7 unknown #
loop $-1 $-1 $185 $112 #
plane-surface $-1 -34.404011800049169 -22.155634210899493 3.1916470712499674 0 -0.85716730853699208 0.51503806187062418 1 0 0 forward_v I I I I #
loop $-1 $-1 $295 $71 #
coedge $-1 $183 $183 $184 $296 reversed $113 $-1 #
coedge $-1 $184 $184 $183 $296 forward $115 $-1 #
coedge $-1 $185 $185 $116 $186 forward $180 $-1 #
edge $-1 $297 1.989908531437693e-015 $297 6.2831853071796022 $185 $298 forward 7 unknown #
loop $-1 $-1 $192 $117 #
plane-surface $-1 -34.404011800049169 -22.155634210899493 3.1916470712499674 0 -0.85716730853699208 0.51503806187062418 1 0 0 forward_v I I I I #
loop $-1 $-1 $299 $74 #
coedge $-1 $190 $190 $191 $300 reversed $118 $-1 #
coedge $-1 $191 $191 $190 $300 forward $120 $-1 #
coedge $-1 $192 $192 $121 $193 forward $187 $-1 #
edge $-1 $301 1.989908531437693e-015 $301 6.2831853071796022 $192 $302 forward 7 unknown #
face $-1 $303 $304 $43 $-1 $305 reversed single #
loop $-1 $-1 $306 $122 #
plane-surface $-1 -17.885121455258599 -97.647675156619059 48.551839962534551 1 0 0 0 0.85716730853699208 -0.51503806187062418 forward_v I I I I #
coedge $-1 $307 $308 $309 $310 reversed $123 $-1 #
coedge $-1 $199 $125 $311 $312 reversed $78 $-1 #
coedge $-1 $125 $198 $307 $313 reversed $78 $-1 #
coedge $-1 $309 $314 $125 $201 forward $315 $-1 #
edge $-1 $316 26.668203367410047 $317 30.437480046073503 $200 $318 forward 7 unknown #
loop $-1 $-1 $207 $126 #
plane-surface $-1 -11.468003933349721 -22.155634210899493 3.1916470712499674 0 -0.85716730853699208 0.51503806187062418 1 0 0 forward_v I I I I #
loop $-1 $-1 $319 $80 #
coedge $-1 $205 $205 $206 $320 reversed $127 $-1 #
coedge $-1 $206 $206 $205 $320 forward $129 $-1 #
coedge $-1 $207 $207 $130 $208 forward $202 $-1 #
edge $-1 $321 1.989908531437693e-015 $321 6.2831853071796022 $207 $322 forward 7 unknown #
loop $-1 $-1 $214 $131 #
plane-surface $-1 -11.468003933349721 -22.155634210899493 3.1916470712499674 0 -0.85716730853699208 0.51503806187062418 1 0 0 forward_v I I I I #
loop $-1 $-1 $323 $83 #
coedge $-1 $212 $212 $213 $324 reversed $132 $-1 #
coedge $-1 $213 $213 $212 $324 forward $134 $-1 #
coedge $-1 $214 $214 $135 $215 forward $209 $-1 #
edge $-1 $325 1.989908531437693e-015 $325 6.2831853071796022 $214 $326 forward 7 unknown #
face $-1 $327 $328 $46 $-1 $329 reversed single #
loop $-1 $-1 $330 $136 #
plane-surface $-1 5.0508864114408434 -97.647675156619059 48.551839962534551 1 0 0 0 0.85716730853699208 -0.51503806187062418 forward_v I I I I #
coedge $-1 $331 $332 $333 $334 reversed $137 $-1 #
coedge $-1 $221 $139 $335 $336 reversed $87 $-1 #
coedge $-1 $139 $220 $331 $337 reversed $87 $-1 #
coedge $-1 $333 $338 $139 $223 forward $339 $-1 #
edge $-1 $340 26.668203367410047 $341 30.437480046073503 $222 $342 forward 7 unknown #
loop $-1 $-1 $229 $140 #
plane-surface $-1 11.468003933349721 -22.155634210899493 3.1916470712499674 0 -0.85716730853699208 0.51503806187062418 1 0 0 forward_v I I I I #
loop $-1 $-1 $343 $89 #
coedge $-1 $227 $227 $228 $344 reversed $141 $-1 #
coedge $-1 $228 $228 $227 $344 forward $143 $-1 #
coedge $-1 $229 $229 $144 $230 forward $224 $-1 #
edge $-1 $345 1.989908531437693e-015 $345 6.2831853071796022 $229 $346 forward 7 unknown #
loop $-1 $-1 $236 $145 #
plane-surface $-1 11.468003933349721 -22.155634210899493 3.1916470712499674 0 -0.85716730853699208 0.51503806187062418 1 0 0 forward_v I I I I #
loop $-1 $-1 $347 $92 #
coedge $-1 $234 $234 $235 $348 reversed $146 $-1 #
coedge $-1 $235 $235 $234 $348 forward $148 $-1 #
coedge $-1 $236 $236 $149 $237 forward $231 $-1 #
edge $-1 $349 1.989908531437693e-015 $349 6.2831853071796022 $236 $350 forward 7 unknown #
face $-1 $351 $352 $49 $-1 $353 reversed single #
loop $-1 $-1 $354 $150 #
plane-surface $-1 27.986894278140284 -97.647675156619059 48.551839962534551 1 0 0 0 0.85716730853699208 -0.51503806187062418 forward_v I I I I #
coedge $-1 $355 $356 $357 $358 reversed $151 $-1 #
coedge $-1 $243 $153 $359 $360 reversed $96 $-1 #
coedge $-1 $153 $242 $355 $361 reversed $96 $-1 #
coedge $-1 $357 $362 $153 $245 forward $363 $-1 #
edge $-1 $364 26.668203367410047 $365 30.437480046073503 $244 $366 forward 7 unknown #
loop $-1 $-1 $251 $154 #
plane-surface $-1 34.404011800049162 -22.155634210899493 3.1916470712499674 0 -0.85716730853699208 0.51503806187062418 1 0 0 forward_v I I I I #
loop $-1 $-1 $367 $98 #
coedge $-1 $249 $249 $250 $368 reversed $155 $-1 #
coedge $-1 $250 $250 $249 $368 forward $157 $-1 #
coedge $-1 $251 $251 $158 $252 forward $246 $-1 #
edge $-1 $369 1.989908531437693e-015 $369 6.2831853071796022 $251 $370 forward 7 unknown #
loop $-1 $-1 $258 $159 #
plane-surface $-1 34.404011800049162 -22.155634210899493 3.1916470712499674 0 -0.85716730853699208 0.51503806187062418 1 0 0 forward_v I I I I #
loop $-1 $-1 $371 $101 #
coedge $-1 $256 $256 $257 $372 reversed $160 $-1 #
coedge $-1 $257 $257 $256 $372 forward $162 $-1 #
coedge $-1 $258 $258 $163 $259 forward $253 $-1 #
edge $-1 $373 1.989908531437693e-015 $373 6.2831853071796022 $258 $374 forward 7 unknown #
face $-1 $375 $376 $39 $-1 $377 reversed single #
loop $-1 $-1 $378 $164 #
plane-surface $-1 -44.035767693105868 0 0 1 0 0 0 0 -1 forward_v I I I I #
coedge $-1 $379 $271 $380 $381 forward $165 $-1 #
coedge $-1 $382 $167 $379 $383 forward $105 $-1 #
coedge $-1 $167 $382 $384 $385 forward $105 $-1 #
coedge $-1 $274 $273 $167 $267 reversed $275 $-1 #
edge $-1 $386 -22.155634210899482 $387 22.155634210899482 $266 $388 forward 7 unknown #
coedge $-1 $169 $168 $389 $390 forward $66 $-1 #
coedge $-1 $391 $392 $168 $270 reversed $376 $-1 #
edge $-1 $277 -44.035767693105868 $393 44.035767693105868 $269 $394 forward 7 unknown #
coedge $-1 $263 $395 $169 $272 reversed $165 $-1 #
edge $-1 $396 -44.035767693105868 $276 44.035767693105868 $271 $397 forward 7 unknown #
coedge $-1 $266 $170 $395 $398 forward $275 $-1 #
coedge $-1 $170 $266 $391 $399 reversed $275 $-1 #
loop $-1 $-1 $273 $375 #
vertex $-1 $171 $400 #
vertex $-1 $171 $401 #
straight-curve $-1 44.035767693105868 0 9.464777127010402 0 1 0 I I #
face $-1 $-1 $291 $40 $-1 $402 forward single #
loop $-1 $-1 $403 $172 #
plane-surface $-1 0 -22.155634210899482 0 0 1 0 0 0 1 forward_v I I I I #
coedge $-1 $404 $405 $406 $407 reversed $173 $-1 #
coedge $-1 $408 $175 $177 $289 forward $109 $-1 #
coedge $-1 $175 $408 $404 $409 forward $109 $-1 #
coedge $-1 $406 $178 $175 $286 forward $291 $-1 #
edge $-1 $293 10.784888378115706 $410 23.619123421933462 $285 $411 forward 7 unknown #
coedge $-1 $412 $413 $176 $288 forward $280 $-1 #
edge $-1 $414 -21.08427291001729 $292 -14.811142854256873 $287 $415 forward 7 unknown #
edge $-1 $293 -7.3184429612316597 $414 -2.0715698412831909e-014 $177 $416 forward 7 unknown #
coedge $-1 $178 $406 $412 $417 forward $291 $-1 #
loop $-1 $-1 $406 $279 #
vertex $-1 $288 $418 #
vertex $-1 $179 $419 #
straight-curve $-1 -27.986894278140291 -48.823837578309529 9.4647771270104002 0 1 0 I I #
coedge $-1 $295 $295 $-1 $420 reversed $182 $-1 #
edge $-1 $421 0 $421 6.2831853071796004 $183 $422 forward 7 unknown #
vertex $-1 $186 $423 #
ellipse-curve $-1 -37.154205023724401 -20.270995871567759 6.3282120991301847 0 -0.85716730853699208 0.51503806187062418 1 0 0 1 I I #
coedge $-1 $299 $299 $-1 $424 reversed $189 $-1 #
edge $-1 $425 0 $425 6.2831853071796004 $190 $426 forward 7 unknown #
vertex $-1 $193 $427 #
ellipse-curve $-1 -31.653818576373936 -20.270995871567759 6.3282120991301847 0 -0.85716730853699208 0.51503806187062418 1 0 0 1 I I #
face $-1 $-1 $315 $43 $-1 $428 forward single #
loop $-1 $-1 $429 $194 #
plane-surface $-1 0 -22.155634210899482 0 0 1 0 0 0 1 forward_v I I I I #
coedge $-1 $430 $431 $432 $433 reversed $195 $-1 #
coedge $-1 $434 $197 $199 $313 forward $123 $-1 #
coedge $-1 $197 $434 $430 $435 forward $123 $-1 #
coedge $-1 $432 $200 $197 $310 forward $315 $-1 #
edge $-1 $317 -0.6831155552340169 $436 12.151119488583738 $309 $437 forward 7 unknown #
coedge $-1 $438 $439 $198 $312 forward $304 $-1 #
edge $-1 $440 -21.08427291001729 $316 -14.811142854256873 $311 $441 forward 7 unknown #
edge $-1 $317 -7.3184429612316597 $440 -2.0715698412831909e-014 $199 $442 forward 7 unknown #
coedge $-1 $200 $432 $438 $443 forward $315 $-1 #
loop $-1 $-1 $432 $303 #
vertex $-1 $312 $444 #
vertex $-1 $201 $445 #
straight-curve $-1 -5.0508864114408434 -48.823837578309529 9.4647771270104002 0 1 0 I I #
coedge $-1 $319 $319 $-1 $446 reversed $204 $-1 #
edge $-1 $447 0 $447 6.2831853071796004 $205 $448 forward 7 unknown #
vertex $-1 $208 $449 #
ellipse-curve $-1 -14.218197157024957 -20.270995871567759 6.3282120991301847 0 -0.85716730853699208 0.51503806187062418 1 0 0 1 I I #
coedge $-1 $323 $323 $-1 $450 reversed $211 $-1 #
edge $-1 $451 0 $451 6.2831853071796004 $212 $452 forward 7 unknown #
vertex $-1 $215 $453 #
ellipse-curve $-1 -8.7178107096744881 -20.270995871567759 6.3282120991301847 0 -0.85716730853699208 0.51503806187062418 1 0 0 1 I I #
face $-1 $-1 $339 $46 $-1 $454 forward single #
loop $-1 $-1 $455 $216 #
plane-surface $-1 0 -22.155634210899482 0 0 1 0 0 0 1 forward_v I I I I #
coedge $-1 $456 $457 $458 $459 reversed $217 $-1 #
coedge $-1 $460 $219 $221 $337 forward $137 $-1 #
coedge $-1 $219 $460 $456 $461 forward $137 $-1 #
coedge $-1 $458 $222 $219 $334 forward $339 $-1 #
edge $-1 $341 -12.151119488583738 $462 0.6831155552340169 $333 $463 forward 7 unknown #
coedge $-1 $464 $465 $220 $336 forward $328 $-1 #
edge $-1 $466 -21.08427291001729 $340 -14.811142854256873 $335 $467 forward 7 unknown #
edge $-1 $341 -7.3184429612316597 $466 -2.0715698412831909e-014 $221 $468 forward 7 unknown #
coedge $-1 $222 $458 $464 $469 forward $339 $-1 #
loop $-1 $-1 $458 $327 #
vertex $-1 $336 $470 #
vertex $-1 $223 $471 #
straight-curve $-1 17.885121455258599 -48.823837578309529 9.4647771270104002 0 1 0 I I #
coedge $-1 $343 $343 $-1 $472 reversed $226 $-1 #
edge $-1 $473 0 $473 6.2831853071796004 $227 $474 forward 7 unknown #
vertex $-1 $230 $475 #
ellipse-curve $-1 8.7178107096744881 -20.270995871567759 6.3282120991301847 0 -0.85716730853699208 0.51503806187062418 1 0 0 1 I I #
coedge $-1 $347 $347 $-1 $476 reversed $233 $-1 #
edge $-1 $477 0 $477 6.2831853071796004 $234 $478 forward 7 unknown #
vertex $-1 $237 $479 #
ellipse-curve $-1 14.21819715702496 -20.270995871567759 6.3282120991301847 0 -0.85716730853699208 0.51503806187062418 1 0 0 1 I I #
face $-1 $-1 $363 $49 $-1 $480 forward single #
loop $-1 $-1 $481 $238 #
plane-surface $-1 0 -22.155634210899482 0 0 1 0 0 0 1 forward_v I I I I #
coedge $-1 $482 $483 $484 $485 reversed $239 $-1 #
coedge $-1 $486 $241 $243 $361 forward $151 $-1 #
coedge $-1 $241 $486 $482 $487 forward $151 $-1 #
coedge $-1 $484 $244 $241 $358 forward $363 $-1 #
edge $-1 $365 -23.619123421933459 $488 -10.784888378115703 $357 $489 forward 7 unknown #
coedge $-1 $490 $491 $242 $360 forward $352 $-1 #
edge $-1 $492 -21.08427291001729 $364 -14.811142854256873 $359 $493 forward 7 unknown #
edge $-1 $365 -7.3184429612316597 $492 -2.0715698412831909e-014 $243 $494 forward 7 unknown #
coedge $-1 $244 $484 $490 $495 forward $363 $-1 #
loop $-1 $-1 $484 $351 #
vertex $-1 $360 $496 #
vertex $-1 $245 $497 #
straight-curve $-1 40.82112932195804 -48.823837578309529 9.4647771270104002 0 1 0 I I #
coedge $-1 $367 $367 $-1 $498 reversed $248 $-1 #
edge $-1 $499 0 $499 6.2831853071796004 $249 $500 forward 7 unknown #
vertex $-1 $252 $501 #
ellipse-curve $-1 31.653818576373936 -20.270995871567759 6.3282120991301847 0 -0.85716730853699208 0.51503806187062418 1 0 0 1 I I #
coedge $-1 $371 $371 $-1 $502 reversed $255 $-1 #
edge $-1 $503 0 $503 6.2831853071796004 $256 $504 forward 7 unknown #
vertex $-1 $259 $505 #
ellipse-curve $-1 37.154205023724401 -20.270995871567759 6.3282120991301847 0 -0.85716730853699208 0.51503806187062418 1 0 0 1 I I #
face $-1 $-1 $275 $39 $-1 $506 reversed single #
loop $-1 $-1 $391 $260 #
plane-surface $-1 0 22.155634210899482 0 0 -1 0 0 0 -1 forward_v I I I I #
coedge $-1 $507 $389 $392 $508 forward $261 $-1 #
coedge $-1 $395 $263 $264 $383 reversed $165 $-1 #
coedge $-1 $389 $507 $263 $381 reversed $261 $-1 #
edge $-1 $396 -9.464777127010402 $509 9.464777127010402 $380 $510 forward 7 unknown #
coedge $-1 $265 $264 $507 $511 forward $105 $-1 #
edge $-1 $387 -44.035767693105868 $509 44.035767693105868 $379 $512 forward 7 unknown #
coedge $-1 $392 $391 $265 $385 reversed $376 $-1 #
edge $-1 $513 -44.035767693105868 $386 44.035767693105868 $384 $514 forward 7 unknown #
vertex $-1 $267 $515 #
vertex $-1 $398 $516 #
straight-curve $-1 44.035767693105868 0 -9.464777127010402 0 -1 0 I I #
coedge $-1 $378 $380 $268 $390 reversed $261 $-1 #
edge $-1 $393 -22.155634210899482 $396 22.155634210899482 $389 $517 forward 7 unknown #
coedge $-1 $384 $269 $274 $399 forward $376 $-1 #
coedge $-1 $269 $384 $378 $508 reversed $376 $-1 #
vertex $-1 $270 $518 #
straight-curve $-1 0 22.155634210899482 9.464777127010402 -1 0 0 I I #
coedge $-1 $271 $379 $273 $398 reversed $165 $-1 #
vertex $-1 $390 $519 #
straight-curve $-1 0 -22.155634210899482 9.464777127010402 1 0 0 I I #
edge $-1 $276 -9.464777127010402 $387 9.464777127010402 $273 $520 forward 7 unknown #
edge $-1 $277 -9.464777127010402 $386 9.464777127010402 $274 $521 forward 7 unknown #
point $-1 44.035767693105868 -22.155634210899482 9.464777127010402 #
point $-1 44.035767693105868 22.155634210899482 9.464777127010402 #
plane-surface $-1 0 0 9.464777127010402 0 0 1 1 0 0 forward_v I I I I #
coedge $-1 $413 $412 $405 $522 forward $280 $-1 #
coedge $-1 $405 $282 $284 $409 reversed $173 $-1 #
coedge $-1 $282 $404 $403 $522 reversed $173 $-1 #
coedge $-1 $290 $285 $282 $407 forward $291 $-1 #
edge $-1 $410 -30.437480046073503 $523 -26.668203367410047 $406 $524 forward 7 unknown #
coedge $-1 $284 $283 $413 $525 reversed $109 $-1 #
edge $-1 $526 2.0715698412831909e-014 $410 7.3184429612316597 $404 $527 forward 7 unknown #
vertex $-1 $286 $528 #
straight-curve $-1 -17.202005900024584 -18.38635753223603 9.464777127010402 -1 0 0 I I #
coedge $-1 $403 $287 $290 $417 reversed $280 $-1 #
coedge $-1 $287 $403 $408 $525 forward $280 $-1 #
vertex $-1 $288 $529 #
straight-curve $-1 -27.986894278140291 -22.155634210899485 24.275919981267275 0 0 1 I I #
straight-curve $-1 -27.986894278140291 -22.155634210899493 3.1916470712499674 0 -0.51503806187062418 -0.85716730853699208 I I #
edge $-1 $523 -40.821129321958047 $292 -27.986894278140291 $412 $530 forward 7 unknown #
point $-1 -27.986894278140291 -22.155634210899482 9.464777127010402 #
point $-1 -27.986894278140291 -18.386357532236026 9.464777127010402 #
edge $-1 $531 1 $531 0 $295 $-1 forward 7 unknown #
vertex $-1 $296 $532 #
ellipse-curve $-1 -37.154205023724401 -17.341056906814529 4.567727219718102 0 -0.85716730853699208 0.51503806187062418 1 0 0 1 I I #
point $-1 -36.154205023724401 -20.270995871567745 6.3282120991301785 #
edge $-1 $533 1 $533 0 $299 $-1 forward 7 unknown #
vertex $-1 $300 $534 #
ellipse-curve $-1 -31.653818576373936 -17.341056906814529 4.567727219718102 0 -0.85716730853699208 0.51503806187062418 1 0 0 1 I I #
point $-1 -30.653818576373936 -20.270995871567745 6.3282120991301785 #
plane-surface $-1 0 0 9.464777127010402 0 0 1 1 0 0 forward_v I I I I #
coedge $-1 $439 $438 $431 $535 forward $304 $-1 #
coedge $-1 $431 $306 $308 $435 reversed $195 $-1 #
coedge $-1 $306 $430 $429 $535 reversed $195 $-1 #
coedge $-1 $314 $309 $306 $433 forward $315 $-1 #
edge $-1 $436 -30.437480046073503 $536 -26.668203367410047 $432 $537 forward 7 unknown #
coedge $-1 $308 $307 $439 $538 reversed $123 $-1 #
edge $-1 $539 2.0715698412831909e-014 $436 7.3184429612316597 $430 $540 forward 7 unknown #
vertex $-1 $310 $541 #
straight-curve $-1 -5.7340019666748603 -18.38635753223603 9.464777127010402 -1 0 0 I I #
coedge $-1 $429 $311 $314 $443 reversed $304 $-1 #
coedge $-1 $311 $429 $434 $538 forward $304 $-1 #
vertex $-1 $312 $542 #
straight-curve $-1 -5.0508864114408434 -22.155634210899485 24.275919981267275 0 0 1 I I #
straight-curve $-1 -5.0508864114408434 -22.155634210899493 3.1916470712499674 0 -0.51503806187062418 -0.85716730853699208 I I #
edge $-1 $536 -17.885121455258599 $316 -5.0508864114408434 $438 $543 forward 7 unknown #
point $-1 -5.0508864114408434 -22.155634210899482 9.464777127010402 #
point $-1 -5.0508864114408434 -18.386357532236026 9.464777127010402 #
edge $-1 $544 1 $544 0 $319 $-1 forward 7 unknown #
vertex $-1 $320 $545 #
ellipse-curve $-1 -14.218197157024957 -17.341056906814529 4.567727219718102 0 -0.85716730853699208 0.51503806187062418 1 0 0 1 I I #
point $-1 -13.218197157024957 -20.270995871567745 6.3282120991301785 #
edge $-1 $546 1 $546 0 $323 $-1 forward 7 unknown #
vertex $-1 $324 $547 #
ellipse-curve $-1 -8.7178107096744881 -17.341056906814529 4.567727219718102 0 -0.85716730853699208 0.51503806187062418 1 0 0 1 I I #
point $-1 -7.7178107096744881 -20.270995871567745 6.3282120991301785 #
plane-surface $-1 0 0 9.464777127010402 0 0 1 1 0 0 forward_v I I I I #
coedge $-1 $465 $464 $457 $548 forward $328 $-1 #
coedge $-1 $457 $330 $332 $461 reversed $217 $-1 #
coedge $-1 $330 $456 $455 $548 reversed $217 $-1 #
coedge $-1 $338 $333 $330 $459 forward $339 $-1 #
edge $-1 $462 -30.437480046073503 $549 -26.668203367410047 $458 $550 forward 7 unknown #
coedge $-1 $332 $331 $465 $551 reversed $137 $-1 #
edge $-1 $552 2.0715698412831909e-014 $462 7.3184429612316597 $456 $553 forward 7 unknown #
vertex $-1 $334 $554 #
straight-curve $-1 5.7340019666748603 -18.38635753223603 9.464777127010402 -1 0 0 I I #
coedge $-1 $455 $335 $338 $469 reversed $328 $-1 #
coedge $-1 $335 $455 $460 $551 forward $328 $-1 #
vertex $-1 $336 $555 #
straight-curve $-1 17.885121455258599 -22.155634210899485 24.275919981267275 0 0 1 I I #
straight-curve $-1 17.885121455258599 -22.155634210899493 3.1916470712499674 0 -0.51503806187062418 -0.85716730853699208 I I #
edge $-1 $549 5.0508864114408434 $340 17.885121455258599 $464 $556 forward 7 unknown #
point $-1 17.885121455258599 -22.155634210899482 9.464777127010402 #
point $-1 17.885121455258599 -18.386357532236026 9.464777127010402 #
edge $-1 $557 1 $557 0 $343 $-1 forward 7 unknown #
vertex $-1 $344 $558 #
ellipse-curve $-1 8.7178107096744881 -17.341056906814529 4.567727219718102 0 -0.85716730853699208 0.51503806187062418 1 0 0 1 I I #
point $-1 9.7178107096744881 -20.270995871567745 6.3282120991301785 #
edge $-1 $559 1 $559 0 $347 $-1 forward 7 unknown #
vertex $-1 $348 $560 #
ellipse-curve $-1 14.21819715702496 -17.341056906814529 4.567727219718102 0 -0.85716730853699208 0.51503806187062418 1 0 0 1 I I #
point $-1 15.21819715702496 -20.270995871567745 6.3282120991301785 #
plane-surface $-1 0 0 9.464777127010402 0 0 1 1 0 0 forward_v I I I I #
coedge $-1 $491 $490 $483 $561 forward $352 $-1 #
coedge $-1 $483 $354 $356 $487 reversed $239 $-1 #
coedge $-1 $354 $482 $481 $561 reversed $239 $-1 #
coedge $-1 $362 $357 $354 $485 forward $363 $-1 #
edge $-1 $488 -30.437480046073503 $562 -26.668203367410047 $484 $563 forward 7 unknown #
coedge $-1 $356 $355 $491 $564 reversed $151 $-1 #
edge $-1 $565 2.0715698412831909e-014 $488 7.3184429612316597 $482 $566 forward 7 unknown #
vertex $-1 $358 $567 #
straight-curve $-1 17.202005900024581 -18.38635753223603 9.464777127010402 -1 0 0 I I #
coedge $-1 $481 $359 $362 $495 reversed $352 $-1 #
coedge $-1 $359 $481 $486 $564 forward $352 $-1 #
vertex $-1 $360 $568 #
straight-curve $-1 40.82112932195804 -22.155634210899485 24.275919981267275 0 0 1 I I #
straight-curve $-1 40.82112932195804 -22.155634210899493 3.1916470712499674 0 -0.51503806187062418 -0.85716730853699208 I I #
edge $-1 $562 27.986894278140284 $364 40.82112932195804 $490 $569 forward 7 unknown #
point $-1 40.82112932195804 -22.155634210899482 9.464777127010402 #
point $-1 40.82112932195804 -18.386357532236026 9.464777127010402 #
edge $-1 $570 1 $570 0 $367 $-1 forward 7 unknown #
vertex $-1 $368 $571 #
ellipse-curve $-1 31.653818576373936 -17.341056906814529 4.567727219718102 0 -0.85716730853699208 0.51503806187062418 1 0 0 1 I I #
point $-1 32.653818576373936 -20.270995871567745 6.3282120991301785 #
edge $-1 $572 1 $572 0 $371 $-1 forward 7 unknown #
vertex $-1 $372 $573 #
ellipse-curve $-1 37.154205023724401 -17.341056906814529 4.567727219718102 0 -0.85716730853699208 0.51503806187062418 1 0 0 1 I I #
point $-1 38.154205023724401 -20.270995871567745 6.3282120991301785 #
plane-surface $-1 44.035767693105868 0 0 -1 0 0 0 0 1 forward_v I I I I #
coedge $-1 $380 $378 $382 $511 reversed $261 $-1 #
edge $-1 $393 -9.464777127010402 $513 9.464777127010402 $392 $574 forward 7 unknown #
vertex $-1 $511 $575 #
straight-curve $-1 -44.035767693105868 -22.155634210899482 0 0 0 -1 I I #
edge $-1 $509 -22.155634210899482 $513 22.155634210899482 $507 $576 forward 7 unknown #
straight-curve $-1 0 -22.155634210899482 -9.464777127010402 -1 0 0 I I #
vertex $-1 $385 $577 #
straight-curve $-1 0 22.155634210899482 -9.464777127010402 1 0 0 I I #
point $-1 44.035767693105868 22.155634210899482 -9.464777127010402 #
point $-1 44.035767693105868 -22.155634210899482 -9.464777127010402 #
straight-curve $-1 -44.035767693105868 0 9.464777127010402 0 -1 0 I I #
point $-1 -44.035767693105868 22.155634210899482 9.464777127010402 #
point $-1 -44.035767693105868 -22.155634210899482 9.464777127010402 #
straight-curve $-1 44.035767693105868 -22.155634210899482 0 0 0 -1 I I #
straight-curve $-1 44.035767693105868 22.155634210899482 0 0 0 -1 I I #
edge $-1 $523 14.811142854256873 $526 21.08427291001729 $403 $578 forward 7 unknown #
vertex $-1 $417 $579 #
straight-curve $-1 -40.821129321958047 -48.823837578309529 9.4647771270104002 0 -1 0 I I #
edge $-1 $526 -23.619123421933462 $414 -10.784888378115706 $413 $580 forward 7 unknown #
vertex $-1 $525 $581 #
straight-curve $-1 -40.821129321958047 -22.155634210899493 3.1916470712499674 0 0.51503806187062418 0.85716730853699208 I I #
point $-1 -40.821129321958047 -18.386357532236026 9.464777127010402 #
point $-1 -27.986894278140291 -22.155634210899482 3.1916470712499851 #
straight-curve $-1 0 -22.155634210899482 9.464777127010402 1 0 0 I I #
vertex $-1 $420 $582 #
point $-1 -36.154205023724401 -17.341056906814529 4.567727219718102 #
vertex $-1 $424 $583 #
point $-1 -30.653818576373936 -17.341056906814529 4.567727219718102 #
edge $-1 $536 14.811142854256873 $539 21.08427291001729 $429 $584 forward 7 unknown #
vertex $-1 $443 $585 #
straight-curve $-1 -17.885121455258599 -48.823837578309529 9.4647771270104002 0 -1 0 I I #
edge $-1 $539 -12.151119488583738 $440 0.6831155552340169 $439 $586 forward 7 unknown #
vertex $-1 $538 $587 #
straight-curve $-1 -17.885121455258599 -22.155634210899493 3.1916470712499674 0 0.51503806187062418 0.85716730853699208 I I #
point $-1 -17.885121455258599 -18.386357532236026 9.464777127010402 #
point $-1 -5.0508864114408434 -22.155634210899482 3.1916470712499851 #
straight-curve $-1 0 -22.155634210899482 9.464777127010402 1 0 0 I I #
vertex $-1 $446 $588 #
point $-1 -13.218197157024957 -17.341056906814529 4.567727219718102 #
vertex $-1 $450 $589 #
point $-1 -7.7178107096744881 -17.341056906814529 4.567727219718102 #
edge $-1 $549 14.811142854256873 $552 21.08427291001729 $455 $590 forward 7 unknown #
vertex $-1 $469 $591 #
straight-curve $-1 5.0508864114408434 -48.823837578309529 9.4647771270104002 0 -1 0 I I #
edge $-1 $552 -0.6831155552340169 $466 12.151119488583738 $465 $592 forward 7 unknown #
vertex $-1 $551 $593 #
straight-curve $-1 5.0508864114408434 -22.155634210899493 3.1916470712499674 0 0.51503806187062418 0.85716730853699208 I I #
point $-1 5.0508864114408434 -18.386357532236026 9.464777127010402 #
point $-1 17.885121455258599 -22.155634210899482 3.1916470712499851 #
straight-curve $-1 0 -22.155634210899482 9.464777127010402 1 0 0 I I #
vertex $-1 $472 $594 #
point $-1 9.7178107096744881 -17.341056906814529 4.567727219718102 #
vertex $-1 $476 $595 #
point $-1 15.21819715702496 -17.341056906814529 4.567727219718102 #
edge $-1 $562 14.811142854256873 $565 21.08427291001729 $481 $596 forward 7 unknown #
vertex $-1 $495 $597 #
straight-curve $-1 27.986894278140284 -48.823837578309529 9.4647771270104002 0 -1 0 I I #
edge $-1 $565 10.784888378115703 $492 23.619123421933459 $491 $598 forward 7 unknown #
vertex $-1 $564 $599 #
straight-curve $-1 27.986894278140284 -22.155634210899493 3.1916470712499674 0 0.51503806187062418 0.85716730853699208 I I #
point $-1 27.986894278140284 -18.386357532236026 9.464777127010402 #
point $-1 40.82112932195804 -22.155634210899482 3.1916470712499851 #
straight-curve $-1 0 -22.155634210899482 9.464777127010402 1 0 0 I I #
vertex $-1 $498 $600 #
point $-1 32.653818576373936 -17.341056906814529 4.567727219718102 #
vertex $-1 $502 $601 #
point $-1 38.154205023724401 -17.341056906814529 4.567727219718102 #
straight-curve $-1 -44.035767693105868 22.155634210899482 0 0 0 -1 I I #
point $-1 -44.035767693105868 -22.155634210899482 -9.464777127010402 #
straight-curve $-1 -44.035767693105868 0 -9.464777127010402 0 1 0 I I #
point $-1 -44.035767693105868 22.155634210899482 -9.464777127010402 #
straight-curve $-1 -40.821129321958047 -22.155634210899485 24.275919981267275 0 0 -1 I I #
point $-1 -40.821129321958047 -22.155634210899482 9.464777127010402 #
straight-curve $-1 -17.202005900024584 -22.155634210899482 3.1916470712499834 1 0 0 I I #
point $-1 -40.821129321958047 -22.155634210899482 3.1916470712499851 #
point $-1 -37.154205023724401 -16.483889598277536 4.0526891578474773 #
point $-1 -31.653818576373936 -16.483889598277536 4.0526891578474773 #
straight-curve $-1 -17.885121455258599 -22.155634210899485 24.275919981267275 0 0 -1 I I #
point $-1 -17.885121455258599 -22.155634210899482 9.464777127010402 #
straight-curve $-1 -5.7340019666748603 -22.155634210899482 3.1916470712499834 1 0 0 I I #
point $-1 -17.885121455258599 -22.155634210899482 3.1916470712499851 #
point $-1 -14.218197157024957 -16.483889598277536 4.0526891578474773 #
point $-1 -8.7178107096744881 -16.483889598277536 4.0526891578474773 #
straight-curve $-1 5.0508864114408434 -22.155634210899485 24.275919981267275 0 0 -1 I I #
point $-1 5.0508864114408434 -22.155634210899482 9.464777127010402 #
straight-curve $-1 5.7340019666748603 -22.155634210899482 3.1916470712499834 1 0 0 I I #
point $-1 5.0508864114408434 -22.155634210899482 3.1916470712499851 #
point $-1 8.7178107096744881 -16.483889598277536 4.0526891578474773 #
point $-1 14.21819715702496 -16.483889598277536 4.0526891578474773 #
straight-curve $-1 27.986894278140284 -22.155634210899485 24.275919981267275 0 0 -1 I I #
point $-1 27.986894278140284 -22.155634210899482 9.464777127010402 #
straight-curve $-1 17.202005900024581 -22.155634210899482 3.1916470712499834 1 0 0 I I #
point $-1 27.986894278140284 -22.155634210899482 3.1916470712499851 #
point $-1 31.653818576373936 -16.483889598277536 4.0526891578474773 #
point $-1 37.154205023724401 -16.483889598277536 4.0526891578474773 #
End-of-ACIS-data 