500 0 4 0           
7 Unknown 11 ACIS 5.0 NT 24 Fri Mar 26 01:45:51 1999 
-1 9.9999999999999995e-007 1e-010 
body $-1 $4 $-1 $5 #
body $-1 $6 $-1 $7 #
body $-1 $8 $-1 $9 #
body $-1 $10 $-1 $11 #
lump $-1 $-1 $12 $0 #
transform $-1 1 0 0 0 1 0 0 0 1 58.745689260536516 38.060544481298493 8.9766991137538081 1 rotate no_reflect no_shear #
lump $-1 $-1 $13 $1 #
transform $-1 1 0 0 0 1 0 0 0 1 58.745689260536516 38.060544481298493 8.9766991137538081 1 rotate no_reflect no_shear #
lump $-1 $-1 $14 $2 #
transform $-1 1 0 0 0 1 0 0 0 1 58.745689260536516 38.060544481298493 8.9766991137538081 1 rotate no_reflect no_shear #
lump $-1 $-1 $15 $3 #
transform $-1 1 0 0 0 1 0 0 0 1 58.745689260536516 38.060544481298493 8.9766991137538081 1 rotate no_reflect no_shear #
shell $-1 $-1 $-1 $16 $-1 $4 #
shell $-1 $-1 $-1 $17 $-1 $6 #
shell $-1 $-1 $-1 $18 $-1 $8 #
shell $-1 $-1 $-1 $19 $-1 $10 #
face $-1 $20 $21 $12 $-1 $22 forward single #
face $-1 $23 $24 $13 $-1 $25 reversed single #
face $-1 $26 $27 $14 $-1 $28 forward single #
face $-1 $29 $30 $15 $-1 $31 reversed single #
face $-1 $32 $33 $12 $-1 $34 reversed single #
loop $-1 $-1 $35 $16 #
plane-surface $-1 0 0 8.9766991137538081 0 0 1 1 0 0 forward_v I I I I #
face $-1 $36 $37 $13 $-1 $38 forward single #
loop $-1 $-1 $39 $17 #
plane-surface $-1 -55.5080943919682 0 0.81659689600345642 0 0 1 1 0 0 forward_v I I I I #
face $-1 $40 $41 $14 $-1 $42 forward single #
loop $-1 $-1 $43 $18 #
plane-surface $-1 70.336280610786019 -23.529772687965327 170.37023842164041 0 -1 0 -0.75470958851134928 0 -0.65605901945558964 forward_v I I I I #
face $-1 $44 $45 $15 $-1 $46 reversed single #
loop $-1 $47 $48 $19 #
cone-surface $-1 56.277463268185201 -30.79515858463191 6.2984882684439283 -0.75470958851134928 0 -0.65605901945558964 0.65605901945558964 0 -0.75470958851134928 1 I I 0 1 1 forward I I I I #
face $-1 $49 $50 $12 $-1 $51 reversed single #
loop $-1 $-1 $52 $20 #
plane-surface $-1 0 0 -8.9766991137538081 0 0 1 1 0 0 forward_v I I I I #
coedge $-1 $53 $54 $55 $56 forward $21 $-1 #
face $-1 $57 $58 $13 $-1 $59 forward single #
loop $-1 $-1 $60 $23 #
plane-surface $-1 -55.5080943919682 0 -2.245841798811703 0 0 1 1 0 0 forward_v I I I I #
coedge $-1 $61 $62 $63 $64 reversed $24 $-1 #
face $-1 $65 $66 $14 $-1 $67 reversed single #
loop $-1 $-1 $68 $26 #
plane-surface $-1 -18.335589326484182 -30.79515858463191 93.288959834619703 0.75470958851134928 0 0.65605901945558964 0.65605901945558964 0 -0.75470958851134928 forward_v I I I I #
coedge $-1 $69 $70 $71 $72 reversed $27 $-1 #
face $-1 $73 $74 $15 $-1 $75 forward single #
loop $-1 $76 $77 $29 #
cone-surface $-1 55.326757670169251 -30.79515858463191 5.4720525216084344 -0.75470958851134928 0 -0.65605901945558964 0.32802950972779482 0 -0.37735479425567464 1 I I -0.70710678118654746 0.70710678118654746 0.5 forward I I I I #
loop $-1 $-1 $78 $19 #
coedge $-1 $48 $48 $79 $80 reversed $30 $-1 #
face $-1 $81 $82 $12 $-1 $83 reversed single #
loop $-1 $-1 $84 $32 #
plane-surface $-1 0 -38.060544481298493 0 0 1 0 0 0 1 forward_v I I I I #
coedge $-1 $85 $86 $87 $88 forward $33 $-1 #
coedge $-1 $89 $35 $90 $91 forward $21 $-1 #
coedge $-1 $35 $89 $92 $93 forward $21 $-1 #
coedge $-1 $94 $95 $35 $56 reversed $96 $-1 #
edge $-1 $97 -38.060544481298493 $98 38.060544481298493 $55 $99 forward 7 unknown #
face $-1 $100 $101 $13 $-1 $102 reversed single #
loop $-1 $-1 $103 $36 #
plane-surface $-1 -52.270499523399884 0 -0.71462245140412328 -1 0 0 0 0 1 forward_v I I I I #
coedge $-1 $104 $105 $106 $107 reversed $37 $-1 #
coedge $-1 $108 $39 $109 $110 reversed $24 $-1 #
coedge $-1 $39 $108 $111 $112 reversed $24 $-1 #
coedge $-1 $113 $103 $39 $64 forward $58 $-1 #
edge $-1 $114 -38.060544481298493 $115 38.060544481298493 $63 $116 forward 7 unknown #
face $-1 $117 $118 $14 $-1 $119 reversed single #
loop $-1 $-1 $120 $40 #
plane-surface $-1 58.745689260536516 0 0 -1 0 0 0 0 1 forward_v I I I I #
coedge $-1 $121 $122 $123 $124 reversed $41 $-1 #
coedge $-1 $70 $43 $122 $125 forward $27 $-1 #
coedge $-1 $43 $69 $120 $126 reversed $27 $-1 #
coedge $-1 $127 $123 $43 $72 forward $128 $-1 #
edge $-1 $129 19.787798577961496 $130 23.577548955143506 $71 $131 forward 7 unknown #
face $-1 $132 $133 $15 $-1 $134 forward single #
loop $-1 $-1 $135 $44 #
plane-surface $-1 70.336280610786019 -23.529772687965327 170.37023842164041 0 -1 0 -0.75470958851134928 0 -0.65605901945558964 forward_v I I I I #
loop $-1 $-1 $136 $29 #
coedge $-1 $77 $77 $78 $137 forward $45 $-1 #
coedge $-1 $78 $78 $77 $137 reversed $47 $-1 #
coedge $-1 $79 $79 $48 $80 forward $133 $-1 #
edge $-1 $138 0 $138 6.2831853071796004 $79 $139 forward 7 unknown #
face $-1 $140 $141 $12 $-1 $142 reversed single #
loop $-1 $-1 $143 $49 #
plane-surface $-1 -58.745689260536516 0 0 1 0 0 0 0 -1 forward_v I I I I #
coedge $-1 $144 $92 $145 $146 forward $50 $-1 #
coedge $-1 $147 $52 $144 $148 forward $33 $-1 #
coedge $-1 $52 $147 $149 $150 forward $33 $-1 #
coedge $-1 $95 $94 $52 $88 reversed $96 $-1 #
edge $-1 $151 -38.060544481298493 $152 38.060544481298493 $87 $153 forward 7 unknown #
coedge $-1 $54 $53 $154 $155 forward $21 $-1 #
coedge $-1 $156 $157 $53 $91 reversed $141 $-1 #
edge $-1 $98 -58.745689260536516 $158 58.745689260536516 $90 $159 forward 7 unknown #
coedge $-1 $84 $160 $54 $93 reversed $50 $-1 #
edge $-1 $161 -58.745689260536516 $97 58.745689260536516 $92 $162 forward 7 unknown #
coedge $-1 $87 $55 $160 $163 forward $96 $-1 #
coedge $-1 $55 $87 $156 $164 reversed $96 $-1 #
loop $-1 $-1 $94 $140 #
vertex $-1 $56 $165 #
vertex $-1 $56 $166 #
straight-curve $-1 58.745689260536516 0 8.9766991137538081 0 1 0 I I #
face $-1 $167 $168 $13 $-1 $102 reversed single #
loop $-1 $-1 $169 $57 #
plane-surface $-1 -58.745689260536516 0 0 1 0 0 0 0 -1 forward_v I I I I #
coedge $-1 $63 $106 $170 $171 reversed $58 $-1 #
coedge $-1 $172 $60 $173 $174 reversed $37 $-1 #
coedge $-1 $60 $172 $175 $176 reversed $37 $-1 #
coedge $-1 $103 $113 $60 $107 forward $58 $-1 #
edge $-1 $177 -38.060544481298493 $178 38.060544481298493 $106 $179 forward 7 unknown #
coedge $-1 $62 $61 $180 $181 reversed $24 $-1 #
coedge $-1 $170 $182 $61 $110 forward $183 $-1 #
edge $-1 $184 -30.991642064552416 $114 -24.516452327415784 $109 $185 forward 7 unknown #
coedge $-1 $186 $187 $62 $112 forward $188 $-1 #
edge $-1 $115 24.516452327415784 $189 30.991642064552416 $111 $190 forward 7 unknown #
coedge $-1 $106 $63 $187 $191 reversed $58 $-1 #
vertex $-1 $110 $192 #
vertex $-1 $112 $193 #
straight-curve $-1 -52.270499523399884 0 0.81659689600345642 0 1 0 I I #
face $-1 $194 $195 $14 $-1 $196 forward single #
loop $-1 $-1 $197 $65 #
plane-surface $-1 -55.5080943919682 0 0.81659689600345642 0 0 1 1 0 0 forward_v I I I I #
coedge $-1 $198 $199 $70 $126 forward $66 $-1 #
coedge $-1 $200 $68 $201 $202 reversed $41 $-1 #
coedge $-1 $68 $200 $69 $125 reversed $41 $-1 #
coedge $-1 $71 $203 $68 $124 forward $128 $-1 #
edge $-1 $204 -22.66296518898254 $129 -8.1321933956493719 $123 $205 forward 7 unknown #
edge $-1 $129 111.71483972685478 $206 117.49137852107306 $69 $207 forward 7 unknown #
edge $-1 $130 76.208420097066394 $206 80.568029313470717 $120 $208 forward 7 unknown #
coedge $-1 $209 $71 $199 $210 forward $128 $-1 #
loop $-1 $-1 $71 $211 #
vertex $-1 $124 $212 #
vertex $-1 $210 $213 #
straight-curve $-1 35.16814030539301 -23.529772687965327 8.9766991137538099 1 0 0 I I #
face $-1 $214 $215 $15 $-1 $216 reversed single #
loop $-1 $217 $79 $73 #
plane-surface $-1 -18.335589326484182 -30.79515858463191 93.288959834619703 0.75470958851134928 0 0.65605901945558964 0.65605901945558964 0 -0.75470958851134928 forward_v I I I I #
coedge $-1 $218 $219 $220 $221 reversed $74 $-1 #
coedge $-1 $136 $136 $-1 $222 forward $76 $-1 #
edge $-1 $223 0 $223 6.2831853071796004 $77 $224 forward 7 unknown #
vertex $-1 $80 $225 #
ellipse-curve $-1 56.850814071945507 -30.79515858463191 6.7968945055516512 -0.75470958851134928 0 -0.65605901945558964 0.65605901945558964 0 -0.75470958851134928 1 I I #
face $-1 $-1 $96 $12 $-1 $226 reversed single #
loop $-1 $-1 $156 $81 #
plane-surface $-1 0 38.060544481298493 0 0 -1 0 0 0 -1 forward_v I I I I #
coedge $-1 $227 $154 $157 $228 forward $82 $-1 #
coedge $-1 $160 $84 $85 $148 reversed $50 $-1 #
coedge $-1 $154 $227 $84 $146 reversed $82 $-1 #
edge $-1 $161 -8.9766991137538081 $229 8.9766991137538081 $145 $230 forward 7 unknown #
coedge $-1 $86 $85 $227 $231 forward $33 $-1 #
edge $-1 $152 -58.745689260536516 $229 58.745689260536516 $144 $232 forward 7 unknown #
coedge $-1 $157 $156 $86 $150 reversed $141 $-1 #
edge $-1 $233 -58.745689260536516 $151 58.745689260536516 $149 $234 forward 7 unknown #
vertex $-1 $88 $235 #
vertex $-1 $163 $236 #
straight-curve $-1 58.745689260536516 0 -8.9766991137538081 0 -1 0 I I #
coedge $-1 $143 $145 $89 $155 reversed $82 $-1 #
edge $-1 $158 -38.060544481298493 $161 38.060544481298493 $154 $237 forward 7 unknown #
coedge $-1 $149 $90 $95 $164 forward $141 $-1 #
coedge $-1 $90 $149 $143 $228 reversed $141 $-1 #
vertex $-1 $91 $238 #
straight-curve $-1 0 38.060544481298493 8.9766991137538081 -1 0 0 I I #
coedge $-1 $92 $144 $94 $163 reversed $50 $-1 #
vertex $-1 $155 $239 #
straight-curve $-1 0 -38.060544481298493 8.9766991137538081 1 0 0 I I #
edge $-1 $97 -8.9766991137538081 $152 8.9766991137538081 $94 $240 forward 7 unknown #
edge $-1 $98 -8.9766991137538081 $151 8.9766991137538081 $95 $241 forward 7 unknown #
point $-1 58.745689260536516 -38.060544481298493 8.9766991137538081 #
point $-1 58.745689260536516 38.060544481298493 8.9766991137538081 #
face $-1 $242 $183 $13 $-1 $243 reversed single #
loop $-1 $-1 $180 $100 #
coedge $-1 $244 $245 $172 $246 forward $101 $-1 #
coedge $-1 $175 $109 $103 $171 forward $183 $-1 #
edge $-1 $114 -1.1739081217055181 $178 1.8885305731096413 $170 $247 forward 7 unknown #
coedge $-1 $105 $104 $169 $246 reversed $37 $-1 #
coedge $-1 $187 $248 $104 $174 forward $188 $-1 #
edge $-1 $249 -30.991642064552416 $177 -24.516452327415784 $173 $250 forward 7 unknown #
coedge $-1 $251 $170 $105 $176 forward $183 $-1 #
edge $-1 $178 24.516452327415784 $252 30.991642064552416 $175 $253 forward 7 unknown #
vertex $-1 $174 $254 #
vertex $-1 $176 $255 #
straight-curve $-1 -52.270499523399884 0 -2.245841798811703 0 -1 0 I I #
coedge $-1 $256 $257 $108 $181 forward $168 $-1 #
edge $-1 $189 -38.060544481298493 $184 38.060544481298493 $180 $258 forward 7 unknown #
coedge $-1 $109 $259 $256 $260 forward $183 $-1 #
loop $-1 $-1 $109 $167 #
vertex $-1 $110 $261 #
straight-curve $-1 -27.7540471959841 -38.060544481298493 0.81659689600345642 1 0 0 I I #
coedge $-1 $262 $111 $257 $263 reversed $188 $-1 #
coedge $-1 $111 $173 $113 $191 forward $188 $-1 #
loop $-1 $-1 $111 $264 #
vertex $-1 $181 $265 #
straight-curve $-1 -27.7540471959841 38.060544481298493 0.81659689600345642 -1 0 0 I I #
edge $-1 $177 -1.8885305731096413 $115 1.1739081217055181 $187 $266 forward 7 unknown #
point $-1 -52.270499523399884 -38.060544481298493 0.81659689600345642 #
point $-1 -52.270499523399884 38.060544481298493 0.81659689600345642 #
face $-1 $267 $268 $14 $-1 $269 forward single #
loop $-1 $-1 $270 $117 #
plane-surface $-1 -55.5080943919682 0 -2.245841798811703 0 0 1 1 0 0 forward_v I I I I #
coedge $-1 $271 $272 $273 $274 reversed $118 $-1 #
coedge $-1 $275 $120 $200 $276 forward $66 $-1 #
coedge $-1 $120 $277 $127 $210 reversed $66 $-1 #
coedge $-1 $122 $121 $198 $276 reversed $41 $-1 #
coedge $-1 $278 $279 $121 $202 forward $280 $-1 #
edge $-1 $281 -76.27372789901743 $204 -70.497189104799148 $201 $282 forward 7 unknown #
coedge $-1 $123 $283 $278 $284 forward $128 $-1 #
vertex $-1 $202 $285 #
straight-curve $-1 54.955938883354506 -15.397579292315955 8.9766991137538028 0 1 0 I I #
vertex $-1 $276 $286 #
straight-curve $-1 -18.335589326484182 -23.529772687965327 93.288959834619703 0.65605901945558964 0 -0.75470958851134928 I I #
straight-curve $-1 58.745689260536516 -23.529772687965327 85.185119210820204 0 0 -1 I I #
coedge $-1 $283 $127 $287 $288 forward $128 $-1 #
edge $-1 $130 -23.529772687965327 $289 38.060544481298493 $199 $290 forward 7 unknown #
face $-1 $291 $128 $14 $-1 $292 forward single #
point $-1 54.955938883354506 -23.529772687965327 8.9766991137538099 #
point $-1 58.745689260536516 -23.529772687965327 8.9766991137538081 #
face $-1 $293 $294 $15 $-1 $295 reversed single #
loop $-1 $-1 $296 $132 #
plane-surface $-1 58.745689260536516 0 0 -1 0 0 0 0 1 forward_v I I I I #
loop $-1 $-1 $297 $73 #
coedge $-1 $219 $135 $298 $299 forward $74 $-1 #
coedge $-1 $135 $218 $296 $300 reversed $74 $-1 #
coedge $-1 $301 $302 $135 $221 forward $303 $-1 #
edge $-1 $304 19.787798577961496 $305 23.577548955143506 $220 $306 forward 7 unknown #
edge $-1 $307 1 $307 0 $136 $-1 forward 7 unknown #
vertex $-1 $137 $308 #
ellipse-curve $-1 55.704112464424924 -30.79515858463191 5.8000820313362293 0.75470958851134928 0 0.65605901945558964 0.65605901945558964 0 -0.75470958851134928 1 I I #
point $-1 57.506873091401069 -30.79515858463191 6.042184917040279 #
plane-surface $-1 58.745689260536516 0 0 -1 0 0 0 0 1 forward_v I I I I #
coedge $-1 $145 $143 $147 $231 reversed $82 $-1 #
edge $-1 $158 -8.9766991137538081 $233 8.9766991137538081 $157 $309 forward 7 unknown #
vertex $-1 $231 $310 #
straight-curve $-1 -58.745689260536516 -38.060544481298493 0 0 0 -1 I I #
edge $-1 $229 -38.060544481298493 $233 38.060544481298493 $227 $311 forward 7 unknown #
straight-curve $-1 0 -38.060544481298493 -8.9766991137538081 -1 0 0 I I #
vertex $-1 $150 $312 #
straight-curve $-1 0 38.060544481298493 -8.9766991137538081 1 0 0 I I #
point $-1 58.745689260536516 38.060544481298493 -8.9766991137538081 #
point $-1 58.745689260536516 -38.060544481298493 -8.9766991137538081 #
straight-curve $-1 -58.745689260536516 0 8.9766991137538081 0 -1 0 I I #
point $-1 -58.745689260536516 38.060544481298493 8.9766991137538081 #
point $-1 -58.745689260536516 -38.060544481298493 8.9766991137538081 #
straight-curve $-1 58.745689260536516 -38.060544481298493 0 0 0 -1 I I #
straight-curve $-1 58.745689260536516 38.060544481298493 0 0 0 -1 I I #
face $-1 $313 $314 $13 $-1 $315 forward single #
plane-surface $-1 0 -38.060544481298493 0 0 1 0 0 0 1 forward_v I I I I #
coedge $-1 $316 $169 $248 $317 forward $101 $-1 #
coedge $-1 $169 $316 $251 $318 reversed $101 $-1 #
edge $-1 $252 -38.060544481298493 $249 38.060544481298493 $169 $319 forward 7 unknown #
straight-curve $-1 -52.270499523399884 -38.060544481298493 -0.35731122570206164 0 0 -1 I I #
coedge $-1 $173 $320 $244 $317 reversed $188 $-1 #
vertex $-1 $317 $321 #
straight-curve $-1 -27.7540471959841 38.060544481298493 -2.245841798811703 1 0 0 I I #
coedge $-1 $322 $175 $245 $318 forward $183 $-1 #
vertex $-1 $318 $323 #
straight-curve $-1 -27.7540471959841 -38.060544481298493 -2.245841798811703 -1 0 0 I I #
point $-1 -52.270499523399884 38.060544481298493 -2.245841798811703 #
point $-1 -52.270499523399884 -38.060544481298493 -2.245841798811703 #
coedge $-1 $324 $180 $182 $260 reversed $168 $-1 #
coedge $-1 $180 $324 $186 $263 forward $168 $-1 #
straight-curve $-1 -58.745689260536516 0 0.81659689600345642 0 -1 0 I I #
coedge $-1 $182 $325 $326 $327 reversed $183 $-1 #
edge $-1 $328 -8.9766991137538081 $184 -0.81659689600345642 $256 $329 forward 7 unknown #
point $-1 -58.745689260536516 -38.060544481298493 0.81659689600345642 #
coedge $-1 $330 $186 $331 $332 reversed $188 $-1 #
edge $-1 $333 -8.9766991137538081 $189 -0.81659689600345642 $186 $334 forward 7 unknown #
face $-1 $335 $188 $13 $-1 $336 reversed single #
point $-1 -58.745689260536516 38.060544481298493 0.81659689600345642 #
straight-curve $-1 -52.270499523399884 38.060544481298493 -0.35731122570206164 0 0 1 I I #
face $-1 $337 $338 $14 $-1 $339 reversed single #
loop $-1 $-1 $340 $194 #
plane-surface $-1 -52.270499523399884 0 -0.71462245140412328 -1 0 0 0 0 1 forward_v I I I I #
coedge $-1 $341 $342 $343 $344 reversed $195 $-1 #
coedge $-1 $345 $197 $346 $347 reversed $118 $-1 #
coedge $-1 $197 $345 $348 $349 reversed $118 $-1 #
coedge $-1 $350 $340 $197 $274 forward $268 $-1 #
edge $-1 $351 -38.060544481298493 $352 38.060544481298493 $273 $353 forward 7 unknown #
coedge $-1 $354 $198 $279 $355 forward $66 $-1 #
edge $-1 $206 8.1321933956493719 $281 22.66296518898254 $198 $356 forward 7 unknown #
coedge $-1 $199 $354 $357 $358 reversed $66 $-1 #
coedge $-1 $359 $201 $203 $284 reversed $280 $-1 #
coedge $-1 $201 $360 $275 $355 reversed $280 $-1 #
loop $-1 $-1 $201 $361 #
vertex $-1 $355 $362 #
straight-curve $-1 8.7056221248846946 -38.060544481298493 62.181603694243549 -0.65605901945558975 0 0.75470958851134939 I I #
coedge $-1 $203 $209 $363 $364 forward $128 $-1 #
edge $-1 $365 -58.745689260536516 $204 54.955938883354506 $278 $366 forward 7 unknown #
point $-1 54.955938883354506 -38.060544481298493 8.9766991137538081 #
point $-1 58.745689260536523 -23.529772687965327 4.6170898973494872 #
coedge $-1 $357 $367 $209 $288 reversed $368 $-1 #
edge $-1 $289 -58.745689260536516 $369 58.745689260536516 $287 $370 forward 7 unknown #
vertex $-1 $210 $371 #
straight-curve $-1 58.745689260536516 0 8.9766991137538081 0 1 0 I I #
face $-1 $372 $373 $14 $-1 $374 reversed single #
plane-surface $-1 0 0 8.9766991137538081 0 0 1 1 0 0 forward_v I I I I #
face $-1 $375 $376 $15 $-1 $377 forward single #
loop $-1 $-1 $378 $214 #
plane-surface $-1 -55.5080943919682 0 0.81659689600345642 0 0 1 1 0 0 forward_v I I I I #
coedge $-1 $379 $380 $219 $300 forward $215 $-1 #
coedge $-1 $381 $298 $302 $382 reversed $217 $-1 #
coedge $-1 $297 $383 $218 $299 reversed $217 $-1 #
edge $-1 $304 111.71483972685478 $384 117.49137852107306 $218 $385 forward 7 unknown #
edge $-1 $305 76.208420097066394 $384 80.568029313470717 $296 $386 forward 7 unknown #
coedge $-1 $387 $220 $380 $388 forward $303 $-1 #
coedge $-1 $220 $389 $297 $382 forward $303 $-1 #
loop $-1 $-1 $220 $390 #
vertex $-1 $382 $391 #
vertex $-1 $388 $392 #
straight-curve $-1 35.16814030539301 -23.529772687965327 8.9766991137538099 1 0 0 I I #
vertex $-1 $222 $393 #
point $-1 56.360171483880514 -30.79515858463191 5.0453724428248803 #
straight-curve $-1 -58.745689260536516 38.060544481298493 0 0 0 -1 I I #
point $-1 -58.745689260536516 -38.060544481298493 -8.9766991137538081 #
straight-curve $-1 -58.745689260536516 0 -8.9766991137538081 0 1 0 I I #
point $-1 -58.745689260536516 38.060544481298493 -8.9766991137538081 #
face $-1 $264 $394 $13 $-1 $395 reversed single #
loop $-1 $-1 $396 $242 #
plane-surface $-1 0 0 8.9766991137538081 0 0 1 1 0 0 forward_v I I I I #
coedge $-1 $245 $244 $397 $398 reversed $101 $-1 #
edge $-1 $249 2.245841798811703 $399 8.9766991137538081 $248 $334 forward 7 unknown #
edge $-1 $252 2.245841798811703 $400 8.9766991137538081 $245 $329 forward 7 unknown #
straight-curve $-1 -58.745689260536516 0 -2.245841798811703 0 1 0 I I #
coedge $-1 $248 $330 $401 $402 reversed $188 $-1 #
point $-1 -58.745689260536516 38.060544481298493 -2.245841798811703 #
coedge $-1 $325 $251 $403 $404 reversed $183 $-1 #
point $-1 -58.745689260536516 -38.060544481298493 -2.245841798811703 #
coedge $-1 $257 $256 $405 $406 reversed $168 $-1 #
coedge $-1 $259 $322 $407 $408 reversed $183 $-1 #
coedge $-1 $396 $405 $259 $327 forward $314 $-1 #
edge $-1 $328 -58.745689260536516 $409 58.745689260536516 $259 $410 forward 7 unknown #
vertex $-1 $406 $411 #
straight-curve $-1 -58.745689260536516 -38.060544481298493 0 0 0 -1 I I #
coedge $-1 $320 $262 $412 $413 forward $188 $-1 #
coedge $-1 $405 $396 $262 $332 forward $314 $-1 #
edge $-1 $414 -58.745689260536516 $333 58.745689260536516 $262 $415 forward 7 unknown #
vertex $-1 $332 $416 #
straight-curve $-1 -58.745689260536516 38.060544481298493 0 0 0 -1 I I #
face $-1 $-1 $417 $13 $-1 $418 reversed single #
plane-surface $-1 0 38.060544481298493 0 0 -1 0 0 0 -1 forward_v I I I I #
face $-1 $361 $419 $14 $-1 $339 reversed single #
loop $-1 $-1 $420 $267 #
plane-surface $-1 -58.745689260536516 0 0 1 0 0 0 0 -1 forward_v I I I I #
coedge $-1 $273 $343 $421 $422 reversed $268 $-1 #
coedge $-1 $423 $270 $424 $425 reversed $195 $-1 #
coedge $-1 $270 $423 $426 $427 reversed $195 $-1 #
coedge $-1 $340 $350 $270 $344 forward $268 $-1 #
edge $-1 $428 -38.060544481298493 $429 38.060544481298493 $343 $430 forward 7 unknown #
coedge $-1 $272 $271 $431 $432 reversed $118 $-1 #
coedge $-1 $421 $359 $271 $347 forward $280 $-1 #
edge $-1 $433 -30.991642064552416 $351 -24.516452327415784 $346 $434 forward 7 unknown #
coedge $-1 $367 $435 $272 $349 forward $368 $-1 #
edge $-1 $352 24.516452327415784 $436 30.991642064552416 $348 $437 forward 7 unknown #
coedge $-1 $343 $273 $435 $438 reversed $268 $-1 #
vertex $-1 $347 $439 #
vertex $-1 $349 $440 #
straight-curve $-1 -52.270499523399884 0 0.81659689600345642 0 1 0 I I #
coedge $-1 $277 $275 $441 $442 reversed $66 $-1 #
edge $-1 $281 -4.6170898973494916 $443 8.9766991137538081 $275 $444 forward 7 unknown #
straight-curve $-1 58.745689260536516 -15.397579292315955 4.6170898973494943 0 -1 0 I I #
coedge $-1 $445 $287 $277 $358 forward $368 $-1 #
edge $-1 $289 -8.9766991137538081 $446 8.9766991137538081 $277 $447 forward 7 unknown #
coedge $-1 $346 $278 $448 $449 forward $280 $-1 #
coedge $-1 $279 $450 $451 $452 reversed $280 $-1 #
face $-1 $211 $280 $14 $-1 $453 reversed single #
point $-1 58.745689260536516 -38.060544481298493 4.6170898973494916 #
coedge $-1 $454 $448 $283 $364 reversed $419 $-1 #
edge $-1 $369 -38.060544481298493 $365 38.060544481298493 $363 $455 forward 7 unknown #
vertex $-1 $364 $456 #
straight-curve $-1 0 -38.060544481298493 8.9766991137538081 1 0 0 I I #
coedge $-1 $287 $348 $454 $457 reversed $368 $-1 #
loop $-1 $-1 $348 $372 #
vertex $-1 $288 $458 #
straight-curve $-1 0 38.060544481298493 8.9766991137538081 -1 0 0 I I #
point $-1 58.745689260536516 38.060544481298493 8.9766991137538081 #
face $-1 $-1 $368 $14 $-1 $459 reversed single #
loop $-1 $-1 $441 $291 #
plane-surface $-1 0 0 -8.9766991137538081 0 0 1 1 0 0 forward_v I I I I #
face $-1 $460 $461 $15 $-1 $462 forward single #
loop $-1 $-1 $463 $293 #
plane-surface $-1 -55.5080943919682 0 -2.245841798811703 0 0 1 1 0 0 forward_v I I I I #
coedge $-1 $464 $465 $466 $467 reversed $294 $-1 #
coedge $-1 $468 $296 $383 $469 forward $215 $-1 #
coedge $-1 $296 $470 $301 $388 reversed $215 $-1 #
coedge $-1 $383 $297 $471 $472 reversed $217 $-1 #
edge $-1 $473 -22.66296518898254 $304 -8.1321933956493719 $302 $474 forward 7 unknown #
coedge $-1 $298 $381 $379 $469 reversed $217 $-1 #
vertex $-1 $469 $475 #
straight-curve $-1 -18.335589326484182 -23.529772687965327 93.288959834619703 0.65605901945558964 0 -0.75470958851134928 I I #
straight-curve $-1 58.745689260536516 -23.529772687965327 85.185119210820204 0 0 -1 I I #
coedge $-1 $476 $301 $477 $478 forward $303 $-1 #
edge $-1 $305 -23.529772687965327 $479 38.060544481298493 $380 $480 forward 7 unknown #
coedge $-1 $302 $476 $481 $482 forward $303 $-1 #
face $-1 $483 $303 $15 $-1 $484 forward single #
point $-1 54.955938883354506 -23.529772687965327 8.9766991137538099 #
point $-1 58.745689260536516 -23.529772687965327 8.9766991137538081 #
point $-1 54.949402875913577 -30.79515858463191 5.1440230118806394 #
loop $-1 $-1 $485 $313 #
plane-surface $-1 0 0 -8.9766991137538081 0 0 1 1 0 0 forward_v I I I I #
coedge $-1 $331 $326 $486 $487 forward $314 $-1 #
coedge $-1 $401 $403 $316 $398 forward $394 $-1 #
edge $-1 $400 -38.060544481298493 $399 38.060544481298493 $316 $488 forward 7 unknown #
vertex $-1 $402 $489 #
vertex $-1 $398 $490 #
coedge $-1 $485 $397 $320 $402 forward $394 $-1 #
edge $-1 $399 -58.745689260536516 $491 58.745689260536516 $320 $492 forward 7 unknown #
coedge $-1 $397 $485 $322 $404 forward $394 $-1 #
edge $-1 $493 -58.745689260536516 $400 58.745689260536516 $322 $494 forward 7 unknown #
coedge $-1 $326 $331 $324 $406 forward $314 $-1 #
edge $-1 $333 -38.060544481298493 $328 38.060544481298493 $324 $495 forward 7 unknown #
coedge $-1 $496 $486 $325 $408 forward $417 $-1 #
edge $-1 $409 -8.9766991137538081 $493 8.9766991137538081 $407 $497 forward 7 unknown #
vertex $-1 $487 $498 #
straight-curve $-1 0 -38.060544481298493 8.9766991137538081 1 0 0 I I #
point $-1 -58.745689260536516 -38.060544481298493 8.9766991137538081 #
coedge $-1 $486 $496 $330 $413 reversed $417 $-1 #
edge $-1 $414 -8.9766991137538081 $491 8.9766991137538081 $412 $499 forward 7 unknown #
vertex $-1 $487 $500 #
straight-curve $-1 0 38.060544481298493 8.9766991137538081 -1 0 0 I I #
point $-1 -58.745689260536516 38.060544481298493 8.9766991137538081 #
loop $-1 $-1 $407 $335 #
plane-surface $-1 58.745689260536516 0 0 -1 0 0 0 0 1 forward_v I I I I #
loop $-1 $-1 $431 $337 #
coedge $-1 $501 $502 $423 $503 forward $338 $-1 #
coedge $-1 $426 $346 $340 $422 forward $280 $-1 #
edge $-1 $351 -1.1739081217055181 $429 1.8885305731096413 $421 $504 forward 7 unknown #
coedge $-1 $342 $341 $420 $503 reversed $195 $-1 #
coedge $-1 $435 $505 $341 $425 forward $368 $-1 #
edge $-1 $506 -30.991642064552416 $428 -24.516452327415784 $424 $507 forward 7 unknown #
coedge $-1 $450 $421 $342 $427 forward $280 $-1 #
edge $-1 $429 24.516452327415784 $508 30.991642064552416 $426 $509 forward 7 unknown #
vertex $-1 $425 $510 #
vertex $-1 $427 $511 #
straight-curve $-1 -52.270499523399884 0 -2.245841798811703 0 -1 0 I I #
coedge $-1 $448 $454 $345 $432 forward $419 $-1 #
edge $-1 $436 -38.060544481298493 $433 38.060544481298493 $431 $512 forward 7 unknown #
vertex $-1 $347 $513 #
straight-curve $-1 -27.7540471959841 -38.060544481298493 0.81659689600345642 1 0 0 I I #
coedge $-1 $348 $424 $350 $438 forward $368 $-1 #
vertex $-1 $432 $514 #
straight-curve $-1 -27.7540471959841 38.060544481298493 0.81659689600345642 -1 0 0 I I #
edge $-1 $428 -1.8885305731096413 $352 1.1739081217055181 $435 $515 forward 7 unknown #
point $-1 -52.270499523399884 -38.060544481298493 0.81659689600345642 #
point $-1 -52.270499523399884 38.060544481298493 0.81659689600345642 #
coedge $-1 $451 $516 $354 $442 forward $373 $-1 #
edge $-1 $446 -38.060544481298493 $443 38.060544481298493 $354 $517 forward 7 unknown #
vertex $-1 $355 $518 #
straight-curve $-1 58.745689260536516 -38.060544481298493 0 0 0 -1 I I #
coedge $-1 $505 $357 $516 $519 reversed $368 $-1 #
vertex $-1 $442 $520 #
straight-curve $-1 58.745689260536516 38.060544481298493 0 0 0 -1 I I #
coedge $-1 $363 $431 $359 $449 reversed $419 $-1 #
edge $-1 $365 -8.9766991137538081 $433 -0.81659689600345642 $448 $521 forward 7 unknown #
coedge $-1 $360 $426 $502 $522 forward $280 $-1 #
coedge $-1 $523 $441 $360 $452 forward $373 $-1 #
edge $-1 $443 -58.745689260536516 $524 58.745689260536516 $360 $525 forward 7 unknown #
plane-surface $-1 0 -38.060544481298493 0 0 1 0 0 0 1 forward_v I I I I #
coedge $-1 $431 $363 $367 $457 forward $419 $-1 #
straight-curve $-1 -58.745689260536516 0 8.9766991137538081 0 -1 0 I I #
point $-1 -58.745689260536516 -38.060544481298493 8.9766991137538081 #
edge $-1 $369 -8.9766991137538081 $436 -0.81659689600345642 $367 $526 forward 7 unknown #
point $-1 -58.745689260536516 38.060544481298493 8.9766991137538081 #
plane-surface $-1 0 38.060544481298493 0 0 -1 0 0 0 -1 forward_v I I I I #
face $-1 $527 $528 $15 $-1 $529 reversed single #
loop $-1 $-1 $530 $375 #
plane-surface $-1 -52.270499523399884 0 -0.71462245140412328 -1 0 0 0 0 1 forward_v I I I I #
coedge $-1 $531 $532 $533 $534 reversed $376 $-1 #
coedge $-1 $535 $378 $536 $537 reversed $294 $-1 #
coedge $-1 $378 $535 $538 $539 reversed $294 $-1 #
coedge $-1 $540 $530 $378 $467 forward $461 $-1 #
edge $-1 $541 -38.060544481298493 $542 38.060544481298493 $466 $543 forward 7 unknown #
coedge $-1 $544 $379 $545 $546 forward $215 $-1 #
edge $-1 $384 8.1321933956493719 $547 22.66296518898254 $379 $548 forward 7 unknown #
coedge $-1 $380 $544 $549 $550 reversed $215 $-1 #
coedge $-1 $481 $545 $381 $472 forward $551 $-1 #
edge $-1 $547 -76.27372789901743 $473 -70.497189104799148 $471 $552 forward 7 unknown #
vertex $-1 $472 $553 #
straight-curve $-1 54.955938883354506 -15.397579292315955 8.9766991137538028 0 1 0 I I #
point $-1 58.745689260536523 -23.529772687965327 4.6170898973494872 #
coedge $-1 $389 $387 $554 $555 forward $303 $-1 #
coedge $-1 $549 $556 $387 $478 reversed $557 $-1 #
edge $-1 $479 -58.745689260536516 $558 58.745689260536516 $477 $559 forward 7 unknown #
vertex $-1 $388 $560 #
straight-curve $-1 58.745689260536516 0 8.9766991137538081 0 1 0 I I #
coedge $-1 $561 $471 $389 $482 reversed $551 $-1 #
edge $-1 $562 -58.745689260536516 $473 54.955938883354506 $481 $563 forward 7 unknown #
face $-1 $564 $565 $15 $-1 $566 reversed single #
plane-surface $-1 0 0 8.9766991137538081 0 0 1 1 0 0 forward_v I I I I #
coedge $-1 $403 $401 $496 $567 forward $394 $-1 #
coedge $-1 $407 $412 $396 $487 reversed $417 $-1 #
edge $-1 $409 -38.060544481298493 $414 38.060544481298493 $486 $568 forward 7 unknown #
straight-curve $-1 -58.745689260536516 0 -8.9766991137538081 0 1 0 I I #
point $-1 -58.745689260536516 38.060544481298493 -8.9766991137538081 #
point $-1 -58.745689260536516 -38.060544481298493 -8.9766991137538081 #
vertex $-1 $567 $569 #
straight-curve $-1 0 38.060544481298493 -8.9766991137538081 1 0 0 I I #
vertex $-1 $408 $570 #
straight-curve $-1 0 -38.060544481298493 -8.9766991137538081 -1 0 0 I I #
straight-curve $-1 -58.745689260536516 0 8.9766991137538081 0 -1 0 I I #
coedge $-1 $412 $407 $485 $567 reversed $417 $-1 #
straight-curve $-1 58.745689260536516 -38.060544481298493 0 0 0 -1 I I #
point $-1 58.745689260536516 -38.060544481298493 8.9766991137538081 #
straight-curve $-1 58.745689260536516 38.060544481298493 0 0 0 -1 I I #
point $-1 58.745689260536516 38.060544481298493 8.9766991137538081 #
coedge $-1 $571 $420 $505 $572 forward $338 $-1 #
coedge $-1 $420 $571 $450 $522 reversed $338 $-1 #
edge $-1 $508 -38.060544481298493 $506 38.060544481298493 $420 $573 forward 7 unknown #
straight-curve $-1 -52.270499523399884 -38.060544481298493 -0.35731122570206164 0 0 -1 I I #
coedge $-1 $424 $445 $501 $572 reversed $368 $-1 #
vertex $-1 $572 $574 #
straight-curve $-1 -27.7540471959841 38.060544481298493 -2.245841798811703 1 0 0 I I #
vertex $-1 $522 $575 #
straight-curve $-1 -27.7540471959841 -38.060544481298493 -2.245841798811703 -1 0 0 I I #
point $-1 -52.270499523399884 38.060544481298493 -2.245841798811703 #
point $-1 -52.270499523399884 -38.060544481298493 -2.245841798811703 #
straight-curve $-1 -58.745689260536516 0 0.81659689600345642 0 -1 0 I I #
point $-1 -58.745689260536516 -38.060544481298493 0.81659689600345642 #
point $-1 -58.745689260536516 38.060544481298493 0.81659689600345642 #
straight-curve $-1 -52.270499523399884 38.060544481298493 -0.35731122570206164 0 0 1 I I #
coedge $-1 $441 $523 $445 $519 forward $373 $-1 #
straight-curve $-1 58.745689260536516 0 -8.9766991137538081 0 -1 0 I I #
point $-1 58.745689260536516 -38.060544481298493 -8.9766991137538081 #
edge $-1 $576 -58.745689260536516 $446 58.745689260536516 $445 $577 forward 7 unknown #
point $-1 58.745689260536516 38.060544481298493 -8.9766991137538081 #
straight-curve $-1 -58.745689260536516 -38.060544481298493 0 0 0 -1 I I #
edge $-1 $508 2.245841798811703 $524 8.9766991137538081 $502 $521 forward 7 unknown #
coedge $-1 $516 $451 $571 $578 forward $373 $-1 #
vertex $-1 $578 $579 #
straight-curve $-1 0 -38.060544481298493 -8.9766991137538081 -1 0 0 I I #
straight-curve $-1 -58.745689260536516 38.060544481298493 0 0 0 -1 I I #
face $-1 $580 $581 $15 $-1 $529 reversed single #
loop $-1 $-1 $582 $460 #
plane-surface $-1 -58.745689260536516 0 0 1 0 0 0 0 -1 forward_v I I I I #
coedge $-1 $466 $533 $583 $584 reversed $461 $-1 #
coedge $-1 $585 $463 $586 $587 reversed $376 $-1 #
coedge $-1 $463 $585 $588 $589 reversed $376 $-1 #
coedge $-1 $530 $540 $463 $534 forward $461 $-1 #
edge $-1 $590 -38.060544481298493 $591 38.060544481298493 $533 $592 forward 7 unknown #
coedge $-1 $465 $464 $593 $594 reversed $294 $-1 #
coedge $-1 $583 $561 $464 $537 forward $551 $-1 #
edge $-1 $595 -30.991642064552416 $541 -24.516452327415784 $536 $596 forward 7 unknown #
coedge $-1 $556 $597 $465 $539 forward $557 $-1 #
edge $-1 $542 24.516452327415784 $598 30.991642064552416 $538 $599 forward 7 unknown #
coedge $-1 $533 $466 $597 $600 reversed $461 $-1 #
vertex $-1 $537 $601 #
vertex $-1 $539 $602 #
straight-curve $-1 -52.270499523399884 0 0.81659689600345642 0 1 0 I I #
coedge $-1 $470 $468 $603 $604 reversed $215 $-1 #
coedge $-1 $471 $605 $468 $546 reversed $551 $-1 #
edge $-1 $547 -4.6170898973494916 $606 8.9766991137538081 $468 $607 forward 7 unknown #
vertex $-1 $546 $608 #
straight-curve $-1 58.745689260536516 -15.397579292315955 4.6170898973494943 0 -1 0 I I #
coedge $-1 $609 $477 $470 $550 forward $557 $-1 #
edge $-1 $479 -8.9766991137538081 $610 8.9766991137538081 $470 $611 forward 7 unknown #
loop $-1 $-1 $471 $580 #
straight-curve $-1 8.7056221248846946 -38.060544481298493 62.181603694243549 -0.65605901945558975 0 0.75470958851134939 I I #
point $-1 54.955938883354506 -38.060544481298493 8.9766991137538081 #
coedge $-1 $612 $613 $476 $555 reversed $581 $-1 #
edge $-1 $558 -38.060544481298493 $562 38.060544481298493 $554 $614 forward 7 unknown #
coedge $-1 $477 $538 $612 $615 reversed $557 $-1 #
loop $-1 $-1 $538 $564 #
vertex $-1 $478 $616 #
straight-curve $-1 0 38.060544481298493 8.9766991137538081 -1 0 0 I I #
point $-1 58.745689260536516 38.060544481298493 8.9766991137538081 #
coedge $-1 $536 $481 $613 $617 forward $551 $-1 #
vertex $-1 $555 $618 #
straight-curve $-1 0 -38.060544481298493 8.9766991137538081 1 0 0 I I #
face $-1 $-1 $557 $15 $-1 $619 reversed single #
loop $-1 $-1 $603 $483 #
plane-surface $-1 0 0 -8.9766991137538081 0 0 1 1 0 0 forward_v I I I I #
edge $-1 $491 -38.060544481298493 $493 38.060544481298493 $496 $620 forward 7 unknown #
straight-curve $-1 58.745689260536516 0 8.9766991137538081 0 1 0 I I #
point $-1 58.745689260536516 38.060544481298493 -8.9766991137538081 #
point $-1 58.745689260536516 -38.060544481298493 -8.9766991137538081 #
coedge $-1 $502 $501 $523 $578 reversed $338 $-1 #
edge $-1 $506 2.245841798811703 $576 8.9766991137538081 $505 $526 forward 7 unknown #
straight-curve $-1 -58.745689260536516 0 -2.245841798811703 0 1 0 I I #
point $-1 -58.745689260536516 38.060544481298493 -2.245841798811703 #
point $-1 -58.745689260536516 -38.060544481298493 -2.245841798811703 #
vertex $-1 $519 $621 #
straight-curve $-1 0 38.060544481298493 -8.9766991137538081 1 0 0 I I #
edge $-1 $524 -38.060544481298493 $576 38.060544481298493 $571 $622 forward 7 unknown #
point $-1 -58.745689260536516 -38.060544481298493 -8.9766991137538081 #
face $-1 $390 $551 $15 $-1 $623 reversed single #
loop $-1 $-1 $593 $527 #
coedge $-1 $624 $625 $585 $626 forward $528 $-1 #
coedge $-1 $588 $536 $530 $584 forward $551 $-1 #
edge $-1 $541 -1.1739081217055181 $591 1.8885305731096413 $583 $627 forward 7 unknown #
coedge $-1 $532 $531 $582 $626 reversed $376 $-1 #
coedge $-1 $597 $628 $531 $587 forward $557 $-1 #
edge $-1 $629 -30.991642064552416 $590 -24.516452327415784 $586 $630 forward 7 unknown #
coedge $-1 $631 $583 $532 $589 forward $551 $-1 #
edge $-1 $591 24.516452327415784 $632 30.991642064552416 $588 $633 forward 7 unknown #
vertex $-1 $587 $634 #
vertex $-1 $589 $635 #
straight-curve $-1 -52.270499523399884 0 -2.245841798811703 0 -1 0 I I #
coedge $-1 $613 $612 $535 $594 forward $581 $-1 #
edge $-1 $598 -38.060544481298493 $595 38.060544481298493 $593 $636 forward 7 unknown #
vertex $-1 $537 $637 #
straight-curve $-1 -27.7540471959841 -38.060544481298493 0.81659689600345642 1 0 0 I I #
coedge $-1 $538 $586 $540 $600 forward $557 $-1 #
vertex $-1 $594 $638 #
straight-curve $-1 -27.7540471959841 38.060544481298493 0.81659689600345642 -1 0 0 I I #
edge $-1 $590 -1.8885305731096413 $542 1.1739081217055181 $597 $639 forward 7 unknown #
point $-1 -52.270499523399884 -38.060544481298493 0.81659689600345642 #
point $-1 -52.270499523399884 38.060544481298493 0.81659689600345642 #
coedge $-1 $640 $641 $544 $604 forward $565 $-1 #
edge $-1 $610 -38.060544481298493 $606 38.060544481298493 $544 $642 forward 7 unknown #
coedge $-1 $545 $631 $640 $643 reversed $551 $-1 #
vertex $-1 $546 $644 #
straight-curve $-1 58.745689260536516 -38.060544481298493 0 0 0 -1 I I #
point $-1 58.745689260536516 -38.060544481298493 4.6170898973494916 #
coedge $-1 $628 $549 $641 $645 reversed $557 $-1 #
vertex $-1 $604 $646 #
straight-curve $-1 58.745689260536516 38.060544481298493 0 0 0 -1 I I #
coedge $-1 $593 $554 $556 $615 forward $581 $-1 #
coedge $-1 $554 $593 $561 $617 reversed $581 $-1 #
straight-curve $-1 -58.745689260536516 0 8.9766991137538081 0 -1 0 I I #
edge $-1 $558 -8.9766991137538081 $598 -0.81659689600345642 $556 $647 forward 7 unknown #
point $-1 -58.745689260536516 38.060544481298493 8.9766991137538081 #
edge $-1 $562 -8.9766991137538081 $595 -0.81659689600345642 $613 $648 forward 7 unknown #
point $-1 -58.745689260536516 -38.060544481298493 8.9766991137538081 #
plane-surface $-1 0 38.060544481298493 0 0 -1 0 0 0 -1 forward_v I I I I #
straight-curve $-1 58.745689260536516 0 -8.9766991137538081 0 -1 0 I I #
point $-1 -58.745689260536516 38.060544481298493 -8.9766991137538081 #
straight-curve $-1 -58.745689260536516 0 -8.9766991137538081 0 1 0 I I #
plane-surface $-1 0 -38.060544481298493 0 0 1 0 0 0 1 forward_v I I I I #
coedge $-1 $649 $582 $628 $650 forward $528 $-1 #
coedge $-1 $582 $649 $631 $651 reversed $528 $-1 #
edge $-1 $632 -38.060544481298493 $629 38.060544481298493 $582 $652 forward 7 unknown #
straight-curve $-1 -52.270499523399884 -38.060544481298493 -0.35731122570206164 0 0 -1 I I #
coedge $-1 $586 $609 $624 $650 reversed $557 $-1 #
vertex $-1 $650 $653 #
straight-curve $-1 -27.7540471959841 38.060544481298493 -2.245841798811703 1 0 0 I I #
coedge $-1 $605 $588 $625 $651 forward $551 $-1 #
vertex $-1 $651 $654 #
straight-curve $-1 -27.7540471959841 -38.060544481298493 -2.245841798811703 -1 0 0 I I #
point $-1 -52.270499523399884 38.060544481298493 -2.245841798811703 #
point $-1 -52.270499523399884 -38.060544481298493 -2.245841798811703 #
straight-curve $-1 -58.745689260536516 0 0.81659689600345642 0 -1 0 I I #
point $-1 -58.745689260536516 -38.060544481298493 0.81659689600345642 #
point $-1 -58.745689260536516 38.060544481298493 0.81659689600345642 #
straight-curve $-1 -52.270499523399884 38.060544481298493 -0.35731122570206164 0 0 1 I I #
coedge $-1 $655 $603 $605 $643 forward $565 $-1 #
coedge $-1 $603 $655 $609 $645 forward $565 $-1 #
straight-curve $-1 58.745689260536516 0 -8.9766991137538081 0 -1 0 I I #
edge $-1 $606 -58.745689260536516 $656 58.745689260536516 $605 $657 forward 7 unknown #
point $-1 58.745689260536516 -38.060544481298493 -8.9766991137538081 #
edge $-1 $658 -58.745689260536516 $610 58.745689260536516 $609 $659 forward 7 unknown #
point $-1 58.745689260536516 38.060544481298493 -8.9766991137538081 #
straight-curve $-1 -58.745689260536516 38.060544481298493 0 0 0 -1 I I #
straight-curve $-1 -58.745689260536516 -38.060544481298493 0 0 0 -1 I I #
coedge $-1 $625 $624 $655 $660 reversed $528 $-1 #
edge $-1 $629 2.245841798811703 $658 8.9766991137538081 $628 $647 forward 7 unknown #
edge $-1 $632 2.245841798811703 $656 8.9766991137538081 $625 $648 forward 7 unknown #
straight-curve $-1 -58.745689260536516 0 -2.245841798811703 0 1 0 I I #
point $-1 -58.745689260536516 38.060544481298493 -2.245841798811703 #
point $-1 -58.745689260536516 -38.060544481298493 -2.245841798811703 #
coedge $-1 $641 $640 $649 $660 forward $565 $-1 #
vertex $-1 $660 $661 #
straight-curve $-1 0 -38.060544481298493 -8.9766991137538081 -1 0 0 I I #
vertex $-1 $645 $662 #
straight-curve $-1 0 38.060544481298493 -8.9766991137538081 1 0 0 I I #
edge $-1 $656 -38.060544481298493 $658 38.060544481298493 $649 $663 forward 7 unknown #
point $-1 -58.745689260536516 -38.060544481298493 -8.9766991137538081 #
point $-1 -58.745689260536516 38.060544481298493 -8.9766991137538081 #
straight-curve $-1 -58.745689260536516 0 -8.9766991137538081 0 1 0 I I #
End-of-ACIS-data 