500 0 7 0           
7 Unknown 11 ACIS 5.0 NT 24 Fri Mar 26 20:11:41 1999 
-1 9.9999999999999995e-007 1e-010 
body $-1 $7 $-1 $8 #
body $-1 $9 $-1 $10 #
body $-1 $11 $-1 $12 #
body $-1 $13 $-1 $14 #
body $-1 $15 $-1 $16 #
body $-1 $17 $-1 $18 #
body $-1 $19 $-1 $20 #
lump $-1 $-1 $21 $0 #
transform $-1 1 0 0 0 1 0 0 0 1 61.896420178838468 39.920518099473462 17.994995591188172 1 rotate no_reflect no_shear #
lump $-1 $-1 $22 $1 #
transform $-1 1 0 0 0 1 0 0 0 1 61.896420178838468 39.920518099473462 17.994995591188172 1 rotate no_reflect no_shear #
lump $-1 $-1 $23 $2 #
transform $-1 1 0 0 0 1 0 0 0 1 61.896420178838468 39.920518099473462 17.994995591188172 1 rotate no_reflect no_shear #
lump $-1 $-1 $24 $3 #
transform $-1 1 0 0 0 1 0 0 0 1 61.896420178838468 39.920518099473462 17.994995591188172 1 rotate no_reflect no_shear #
lump $-1 $-1 $25 $4 #
transform $-1 1 0 0 0 1 0 0 0 1 61.896420178838468 39.920518099473462 17.994995591188172 1 rotate no_reflect no_shear #
lump $-1 $-1 $26 $5 #
transform $-1 1 0 0 0 1 0 0 0 1 61.896420178838468 39.920518099473462 17.994995591188172 1 rotate no_reflect no_shear #
lump $-1 $-1 $27 $6 #
transform $-1 1 0 0 0 1 0 0 0 1 61.896420178838468 39.920518099473462 17.994995591188172 1 rotate no_reflect no_shear #
shell $-1 $-1 $-1 $28 $-1 $7 #
shell $-1 $-1 $-1 $29 $-1 $9 #
shell $-1 $-1 $-1 $30 $-1 $11 #
shell $-1 $-1 $-1 $31 $-1 $13 #
shell $-1 $-1 $-1 $32 $-1 $15 #
shell $-1 $-1 $-1 $33 $-1 $17 #
shell $-1 $-1 $-1 $34 $-1 $19 #
face $-1 $35 $36 $21 $-1 $37 forward single #
face $-1 $38 $39 $22 $-1 $40 forward single #
face $-1 $41 $42 $23 $-1 $43 forward single #
face $-1 $44 $45 $24 $-1 $46 reversed single #
face $-1 $47 $48 $25 $-1 $49 forward single #
face $-1 $50 $51 $26 $-1 $52 forward single #
face $-1 $53 $54 $27 $-1 $55 forward single #
face $-1 $56 $57 $21 $-1 $58 reversed single #
loop $-1 $-1 $59 $28 #
plane-surface $-1 0 0 17.994995591188172 0 0 1 1 0 0 forward_v I I I I #
face $-1 $60 $61 $22 $-1 $62 reversed single #
loop $-1 $-1 $63 $29 #
plane-surface $-1 -55.568428109104261 0 -8.8066575914881895 0 0 1 1 0 0 forward_v I I I I #
face $-1 $64 $65 $23 $-1 $66 reversed single #
loop $-1 $-1 $67 $30 #
plane-surface $-1 55.568428109104261 0 -8.8066575914881895 0 0 1 1 0 0 forward_v I I I I #
face $-1 $68 $69 $24 $-1 $70 reversed single #
loop $-1 $-1 $71 $31 #
plane-surface $-1 41.6933478354877 100.257386894794 134.56487411793853 -1 0 0 0 0.83867057594974714 0.54463902268945019 forward_v I I I I #
face $-1 $72 $73 $25 $-1 $74 forward single #
loop $-1 $75 $76 $32 #
cone-surface $-1 23.469262141446478 32.228176541695554 7.8492109421700018 0 -0.83867057594974714 -0.54463902268945019 2 0 0 1 I I 0 1 2 forward I I I I #
face $-1 $77 $78 $26 $-1 $79 forward single #
loop $-1 $80 $81 $33 #
cone-surface $-1 30.303294276711938 32.228176541695554 7.8492109421700018 0 -0.83867057594974714 -0.54463902268945019 2 0 0 1 I I 0 1 2 forward I I I I #
face $-1 $82 $83 $27 $-1 $84 forward single #
loop $-1 $85 $86 $34 #
cone-surface $-1 37.137326411977398 32.228176541695554 7.8492109421700018 0 -0.83867057594974714 -0.54463902268945019 2 0 0 1 I I 0 1 2 forward I I I I #
face $-1 $87 $88 $21 $-1 $89 reversed single #
loop $-1 $-1 $90 $35 #
plane-surface $-1 0 0 -17.994995591188172 0 0 1 1 0 0 forward_v I I I I #
coedge $-1 $91 $92 $93 $94 forward $36 $-1 #
face $-1 $95 $96 $22 $-1 $97 reversed single #
loop $-1 $-1 $98 $38 #
plane-surface $-1 -49.240436039370053 0 -13.400826591338181 -1 0 0 0 0 1 forward_v I I I I #
coedge $-1 $99 $100 $101 $102 forward $39 $-1 #
face $-1 $103 $104 $23 $-1 $105 reversed single #
loop $-1 $-1 $106 $41 #
plane-surface $-1 49.240436039370053 0 -13.400826591338181 1 0 0 0 0 -1 forward_v I I I I #
coedge $-1 $107 $108 $109 $110 reversed $42 $-1 #
face $-1 $111 $112 $24 $-1 $113 reversed single #
loop $-1 $-1 $114 $44 #
plane-surface $-1 30.303294276711938 -3.564025826434019 67.142462529582232 0 0.83867057594974714 0.54463902268945019 1 0 0 forward_v I I I I #
coedge $-1 $115 $116 $117 $118 reversed $45 $-1 #
face $-1 $-1 $119 $25 $-1 $120 forward single #
loop $-1 $121 $122 $47 #
cone-surface $-1 23.469262141446478 29.481067776270386 6.0652177079630647 0 -0.83867057594974714 -0.54463902268945019 1 0 0 1 I I -0.70710678118654746 0.70710678118654746 1 forward I I I I #
loop $-1 $-1 $123 $32 #
coedge $-1 $76 $76 $124 $125 reversed $48 $-1 #
face $-1 $-1 $126 $26 $-1 $127 forward single #
loop $-1 $128 $129 $50 #
cone-surface $-1 30.303294276711938 29.481067776270386 6.0652177079630647 0 -0.83867057594974714 -0.54463902268945019 1 0 0 1 I I -0.70710678118654746 0.70710678118654746 1 forward I I I I #
loop $-1 $-1 $130 $33 #
coedge $-1 $81 $81 $131 $132 reversed $51 $-1 #
face $-1 $-1 $133 $27 $-1 $134 forward single #
loop $-1 $135 $136 $53 #
cone-surface $-1 37.137326411977398 29.481067776270386 6.0652177079630647 0 -0.83867057594974714 -0.54463902268945019 1 0 0 1 I I -0.70710678118654746 0.70710678118654746 1 forward I I I I #
loop $-1 $-1 $137 $34 #
coedge $-1 $86 $86 $138 $139 reversed $54 $-1 #
face $-1 $140 $141 $21 $-1 $142 reversed single #
loop $-1 $-1 $143 $56 #
plane-surface $-1 0 -39.920518099473462 0 0 1 0 0 0 1 forward_v I I I I #
coedge $-1 $144 $145 $146 $147 forward $57 $-1 #
coedge $-1 $148 $59 $149 $150 forward $36 $-1 #
coedge $-1 $59 $148 $151 $152 forward $36 $-1 #
coedge $-1 $153 $154 $59 $94 reversed $155 $-1 #
edge $-1 $156 -39.920518099473462 $157 39.920518099473462 $93 $158 forward 7 unknown #
face $-1 $159 $160 $22 $-1 $161 reversed single #
loop $-1 $-1 $162 $60 #
plane-surface $-1 0 0 -17.994995591188172 0 0 1 1 0 0 forward_v I I I I #
coedge $-1 $163 $101 $164 $165 reversed $61 $-1 #
coedge $-1 $166 $63 $167 $168 reversed $39 $-1 #
coedge $-1 $63 $166 $169 $170 reversed $39 $-1 #
coedge $-1 $98 $171 $63 $102 reversed $61 $-1 #
edge $-1 $172 -39.920518099473462 $173 39.920518099473462 $101 $174 forward 7 unknown #
face $-1 $175 $176 $23 $-1 $177 reversed single #
loop $-1 $-1 $178 $64 #
plane-surface $-1 0 -39.920518099473462 0 0 1 0 0 0 1 forward_v I I I I #
coedge $-1 $179 $180 $181 $182 reversed $65 $-1 #
coedge $-1 $183 $67 $184 $185 reversed $42 $-1 #
coedge $-1 $67 $183 $178 $186 reversed $42 $-1 #
coedge $-1 $187 $188 $67 $110 forward $189 $-1 #
edge $-1 $190 -39.920518099473462 $191 39.920518099473462 $109 $192 forward 7 unknown #
face $-1 $193 $194 $24 $-1 $195 reversed single #
loop $-1 $-1 $196 $68 #
plane-surface $-1 18.913240717936176 100.257386894794 134.56487411793853 1 0 0 0 -0.83867057594974714 -0.54463902268945019 forward_v I I I I #
coedge $-1 $197 $198 $199 $200 reversed $69 $-1 #
coedge $-1 $116 $71 $201 $202 reversed $45 $-1 #
coedge $-1 $71 $115 $197 $203 reversed $45 $-1 #
coedge $-1 $199 $204 $71 $118 forward $194 $-1 #
edge $-1 $205 49.287441467781093 $206 67.100302342782484 $117 $207 forward 7 unknown #
loop $-1 $-1 $124 $72 #
plane-surface $-1 30.303294276711938 -3.564025826434019 67.142462529582232 0 0.83867057594974714 0.54463902268945019 1 0 0 forward_v I I I I #
loop $-1 $-1 $208 $47 #
coedge $-1 $122 $122 $123 $209 reversed $73 $-1 #
coedge $-1 $123 $123 $122 $209 forward $75 $-1 #
coedge $-1 $124 $124 $76 $125 forward $119 $-1 #
edge $-1 $210 -1.3443307357375898e-015 $210 6.2831853071795987 $124 $211 forward 7 unknown #
loop $-1 $-1 $131 $77 #
plane-surface $-1 30.303294276711938 -3.564025826434019 67.142462529582232 0 0.83867057594974714 0.54463902268945019 1 0 0 forward_v I I I I #
loop $-1 $-1 $212 $50 #
coedge $-1 $129 $129 $130 $213 reversed $78 $-1 #
coedge $-1 $130 $130 $129 $213 forward $80 $-1 #
coedge $-1 $131 $131 $81 $132 forward $126 $-1 #
edge $-1 $214 -1.3443307357375898e-015 $214 6.2831853071795987 $131 $215 forward 7 unknown #
loop $-1 $-1 $138 $82 #
plane-surface $-1 30.303294276711938 -3.564025826434019 67.142462529582232 0 0.83867057594974714 0.54463902268945019 1 0 0 forward_v I I I I #
loop $-1 $-1 $216 $53 #
coedge $-1 $136 $136 $137 $217 reversed $83 $-1 #
coedge $-1 $137 $137 $136 $217 forward $85 $-1 #
coedge $-1 $138 $138 $86 $139 forward $133 $-1 #
edge $-1 $218 -1.3443307357375898e-015 $218 6.2831853071795987 $138 $219 forward 7 unknown #
face $-1 $220 $221 $21 $-1 $222 reversed single #
loop $-1 $-1 $223 $87 #
plane-surface $-1 -61.896420178838468 0 0 1 0 0 0 0 -1 forward_v I I I I #
coedge $-1 $224 $151 $225 $226 forward $88 $-1 #
coedge $-1 $227 $90 $224 $228 forward $57 $-1 #
coedge $-1 $90 $227 $229 $230 forward $57 $-1 #
coedge $-1 $154 $153 $90 $147 reversed $155 $-1 #
edge $-1 $231 -39.920518099473462 $232 39.920518099473462 $146 $233 forward 7 unknown #
coedge $-1 $92 $91 $234 $235 forward $36 $-1 #
coedge $-1 $236 $237 $91 $150 reversed $221 $-1 #
edge $-1 $157 -61.896420178838468 $238 61.896420178838468 $149 $239 forward 7 unknown #
coedge $-1 $143 $240 $92 $152 reversed $88 $-1 #
edge $-1 $241 -61.896420178838468 $156 61.896420178838468 $151 $242 forward 7 unknown #
coedge $-1 $146 $93 $240 $243 forward $155 $-1 #
coedge $-1 $93 $146 $236 $244 reversed $155 $-1 #
loop $-1 $-1 $153 $220 #
vertex $-1 $94 $245 #
vertex $-1 $94 $246 #
straight-curve $-1 61.896420178838468 0 17.994995591188172 0 1 0 I I #
face $-1 $247 $248 $22 $-1 $249 reversed single #
loop $-1 $-1 $164 $95 #
plane-surface $-1 0 -39.920518099473462 0 0 1 0 0 0 1 forward_v I I I I #
coedge $-1 $250 $251 $163 $252 forward $96 $-1 #
coedge $-1 $171 $98 $162 $252 reversed $61 $-1 #
coedge $-1 $169 $253 $98 $165 forward $160 $-1 #
edge $-1 $254 -11.294582295519081 $172 -2.1062442958190992 $164 $255 forward 7 unknown #
coedge $-1 $100 $99 $256 $257 reversed $39 $-1 #
coedge $-1 $258 $259 $99 $168 forward $260 $-1 #
edge $-1 $261 -34.112206124286338 $173 -21.456221984817923 $167 $262 forward 7 unknown #
coedge $-1 $263 $164 $100 $170 forward $160 $-1 #
edge $-1 $172 21.456221984817923 $264 34.112206124286338 $169 $265 forward 7 unknown #
coedge $-1 $101 $163 $258 $266 reversed $61 $-1 #
vertex $-1 $170 $267 #
vertex $-1 $168 $268 #
straight-curve $-1 -49.240436039370053 0 -8.8066575914881895 0 1 0 I I #
face $-1 $269 $270 $23 $-1 $271 reversed single #
loop $-1 $-1 $272 $103 #
plane-surface $-1 0 0 -17.994995591188172 0 0 1 1 0 0 forward_v I I I I #
coedge $-1 $273 $274 $108 $186 forward $104 $-1 #
coedge $-1 $275 $106 $272 $276 reversed $65 $-1 #
coedge $-1 $106 $275 $183 $277 reversed $65 $-1 #
coedge $-1 $184 $278 $106 $182 forward $270 $-1 #
edge $-1 $279 -11.294582295519081 $280 -2.1062442958190992 $181 $281 forward 7 unknown #
coedge $-1 $108 $107 $180 $277 forward $42 $-1 #
coedge $-1 $282 $181 $107 $185 forward $270 $-1 #
edge $-1 $280 21.456221984817923 $190 34.112206124286338 $184 $283 forward 7 unknown #
edge $-1 $191 -34.112206124286338 $284 -21.456221984817923 $178 $285 forward 7 unknown #
coedge $-1 $286 $109 $274 $287 forward $189 $-1 #
coedge $-1 $109 $286 $282 $288 reversed $189 $-1 #
loop $-1 $-1 $109 $269 #
vertex $-1 $288 $289 #
vertex $-1 $287 $290 #
straight-curve $-1 61.896420178838468 0 -8.8066575914881895 0 -1 0 I I #
face $-1 $-1 $291 $24 $-1 $292 forward single #
loop $-1 $-1 $117 $111 #
plane-surface $-1 0 39.920518099473462 0 0 -1 0 0 0 -1 forward_v I I I I #
coedge $-1 $293 $294 $295 $296 reversed $112 $-1 #
coedge $-1 $297 $114 $116 $203 forward $69 $-1 #
coedge $-1 $114 $297 $293 $298 forward $69 $-1 #
coedge $-1 $295 $117 $114 $200 forward $194 $-1 #
edge $-1 $206 -26.541700697131731 $299 -3.7615935795802073 $199 $300 forward 7 unknown #
coedge $-1 $301 $302 $115 $202 forward $291 $-1 #
edge $-1 $303 -21.775982084528561 $205 -10.208175347923536 $201 $304 forward 7 unknown #
edge $-1 $206 -79.841036198946952 $303 -58.60163495391182 $116 $305 forward 7 unknown #
coedge $-1 $117 $295 $301 $306 reversed $194 $-1 #
vertex $-1 $306 $307 #
vertex $-1 $118 $308 #
straight-curve $-1 41.6933478354877 39.920518099473462 67.282437058969265 0 0 -1 I I #
coedge $-1 $208 $208 $-1 $309 reversed $121 $-1 #
edge $-1 $310 0 $310 6.2831853071796004 $122 $311 forward 7 unknown #
vertex $-1 $125 $312 #
ellipse-curve $-1 23.469262141446478 34.136614731170951 9.0885651536874761 0 0.83867057594974714 0.54463902268945019 2 0 0 1 I I #
coedge $-1 $212 $212 $-1 $313 reversed $128 $-1 #
edge $-1 $314 0 $314 6.2831853071796004 $129 $315 forward 7 unknown #
vertex $-1 $132 $316 #
ellipse-curve $-1 30.303294276711938 34.136614731170951 9.0885651536874761 0 0.83867057594974714 0.54463902268945019 2 0 0 1 I I #
coedge $-1 $216 $216 $-1 $317 reversed $135 $-1 #
edge $-1 $318 0 $318 6.2831853071796004 $136 $319 forward 7 unknown #
vertex $-1 $139 $320 #
ellipse-curve $-1 37.137326411977398 34.136614731170951 9.0885651536874761 0 0.83867057594974714 0.54463902268945019 2 0 0 1 I I #
face $-1 $-1 $155 $21 $-1 $321 reversed single #
loop $-1 $-1 $236 $140 #
plane-surface $-1 0 39.920518099473462 0 0 -1 0 0 0 -1 forward_v I I I I #
coedge $-1 $322 $234 $237 $323 forward $141 $-1 #
coedge $-1 $240 $143 $144 $228 reversed $88 $-1 #
coedge $-1 $234 $322 $143 $226 reversed $141 $-1 #
edge $-1 $241 -17.994995591188172 $324 17.994995591188172 $225 $325 forward 7 unknown #
coedge $-1 $145 $144 $322 $326 forward $57 $-1 #
edge $-1 $232 -61.896420178838468 $324 61.896420178838468 $224 $327 forward 7 unknown #
coedge $-1 $237 $236 $145 $230 reversed $221 $-1 #
edge $-1 $328 -61.896420178838468 $231 61.896420178838468 $229 $329 forward 7 unknown #
vertex $-1 $147 $330 #
vertex $-1 $243 $331 #
straight-curve $-1 61.896420178838468 0 -17.994995591188172 0 -1 0 I I #
coedge $-1 $223 $225 $148 $235 reversed $141 $-1 #
edge $-1 $238 -39.920518099473462 $241 39.920518099473462 $234 $332 forward 7 unknown #
coedge $-1 $229 $149 $154 $244 forward $221 $-1 #
coedge $-1 $149 $229 $223 $323 reversed $221 $-1 #
vertex $-1 $150 $333 #
straight-curve $-1 0 39.920518099473462 17.994995591188172 -1 0 0 I I #
coedge $-1 $151 $224 $153 $243 reversed $88 $-1 #
vertex $-1 $235 $334 #
straight-curve $-1 0 -39.920518099473462 17.994995591188172 1 0 0 I I #
edge $-1 $156 -17.994995591188172 $232 17.994995591188172 $153 $335 forward 7 unknown #
edge $-1 $157 -17.994995591188172 $231 17.994995591188172 $154 $336 forward 7 unknown #
point $-1 61.896420178838468 -39.920518099473462 17.994995591188172 #
point $-1 61.896420178838468 39.920518099473462 17.994995591188172 #
face $-1 $-1 $260 $22 $-1 $337 reversed single #
loop $-1 $-1 $256 $159 #
plane-surface $-1 -61.896420178838468 0 0 1 0 0 0 0 -1 forward_v I I I I #
coedge $-1 $338 $162 $253 $339 forward $96 $-1 #
coedge $-1 $162 $338 $340 $341 forward $96 $-1 #
edge $-1 $342 -39.920518099473462 $254 39.920518099473462 $162 $343 forward 7 unknown #
coedge $-1 $164 $263 $250 $339 reversed $160 $-1 #
vertex $-1 $339 $344 #
straight-curve $-1 -49.240436039370053 -39.920518099473462 -6.7004132956690903 0 0 1 I I #
coedge $-1 $345 $346 $166 $257 forward $248 $-1 #
edge $-1 $264 -39.920518099473462 $261 39.920518099473462 $256 $347 forward 7 unknown #
coedge $-1 $340 $167 $171 $266 forward $260 $-1 #
coedge $-1 $167 $340 $345 $348 reversed $260 $-1 #
loop $-1 $-1 $258 $247 #
vertex $-1 $348 $349 #
straight-curve $-1 -27.78421405455213 39.920518099473462 -8.8066575914881895 1 0 0 I I #
coedge $-1 $253 $169 $346 $350 forward $160 $-1 #
vertex $-1 $350 $351 #
straight-curve $-1 -27.78421405455213 -39.920518099473462 -8.8066575914881895 -1 0 0 I I #
edge $-1 $173 2.1062442958190992 $342 11.294582295519081 $258 $352 forward 7 unknown #
point $-1 -49.240436039370053 -39.920518099473462 -8.8066575914881895 #
point $-1 -49.240436039370053 39.920518099473462 -8.8066575914881895 #
face $-1 $-1 $189 $23 $-1 $353 reversed single #
loop $-1 $-1 $184 $175 #
plane-surface $-1 0 39.920518099473462 0 0 -1 0 0 0 -1 forward_v I I I I #
coedge $-1 $354 $355 $179 $276 forward $176 $-1 #
coedge $-1 $356 $178 $275 $357 forward $104 $-1 #
coedge $-1 $178 $356 $187 $287 reversed $104 $-1 #
coedge $-1 $180 $179 $273 $357 reversed $65 $-1 #
edge $-1 $358 -39.920518099473462 $279 39.920518099473462 $272 $359 forward 7 unknown #
edge $-1 $280 -39.920518099473462 $284 39.920518099473462 $180 $360 forward 7 unknown #
coedge $-1 $181 $282 $354 $361 reversed $270 $-1 #
vertex $-1 $361 $362 #
vertex $-1 $185 $363 #
straight-curve $-1 49.240436039370053 39.920518099473462 -6.7004132956690903 0 0 1 I I #
coedge $-1 $278 $184 $188 $288 forward $270 $-1 #
straight-curve $-1 27.78421405455213 39.920518099473462 -8.8066575914881895 1 0 0 I I #
vertex $-1 $186 $364 #
straight-curve $-1 27.78421405455213 -39.920518099473462 -8.8066575914881895 -1 0 0 I I #
coedge $-1 $188 $187 $365 $366 reversed $189 $-1 #
edge $-1 $191 8.8066575914881895 $367 17.994995591188172 $187 $368 forward 7 unknown #
edge $-1 $190 8.8066575914881895 $369 17.994995591188172 $188 $370 forward 7 unknown #
point $-1 61.896420178838468 39.920518099473462 -8.8066575914881895 #
point $-1 61.896420178838468 -39.920518099473462 -8.8066575914881895 #
loop $-1 $-1 $201 $193 #
plane-surface $-1 0 0 17.994995591188172 0 0 1 1 0 0 forward_v I I I I #
coedge $-1 $294 $196 $198 $298 reversed $112 $-1 #
coedge $-1 $196 $293 $371 $372 reversed $112 $-1 #
coedge $-1 $204 $199 $196 $296 forward $194 $-1 #
edge $-1 $299 -67.100302342782484 $373 -49.287441467781093 $295 $374 forward 7 unknown #
coedge $-1 $198 $197 $302 $375 reversed $69 $-1 #
edge $-1 $376 58.60163495391182 $299 79.841036198946952 $293 $377 forward 7 unknown #
vertex $-1 $200 $378 #
straight-curve $-1 15.151647138355969 39.920518099473462 0.18213471618678767 -1 0 0 I I #
coedge $-1 $371 $201 $204 $306 forward $291 $-1 #
coedge $-1 $201 $371 $297 $375 forward $291 $-1 #
vertex $-1 $202 $379 #
straight-curve $-1 41.6933478354877 50.128693447396998 17.994995591188172 0 1 0 I I #
straight-curve $-1 41.6933478354877 -3.564025826434019 67.142462529582232 0 -0.54463902268945019 0.83867057594974714 I I #
edge $-1 $205 -41.6933478354877 $373 -18.913240717936176 $204 $380 forward 7 unknown #
point $-1 41.6933478354877 39.920518099473462 17.994995591188172 #
point $-1 41.6933478354877 39.920518099473462 0.18213471618678057 #
edge $-1 $381 1 $381 0 $208 $-1 forward 7 unknown #
vertex $-1 $209 $382 #
ellipse-curve $-1 23.469262141446478 30.319738352220135 6.6098567306525151 0 0.83867057594974714 0.54463902268945019 2 0 0 1 I I #
point $-1 25.469262141446478 34.136614731170965 9.0885651536874885 #
edge $-1 $383 1 $383 0 $212 $-1 forward 7 unknown #
vertex $-1 $213 $384 #
ellipse-curve $-1 30.303294276711938 30.319738352220135 6.6098567306525151 0 0.83867057594974714 0.54463902268945019 2 0 0 1 I I #
point $-1 32.303294276711938 34.136614731170965 9.0885651536874885 #
edge $-1 $385 1 $385 0 $216 $-1 forward 7 unknown #
vertex $-1 $217 $386 #
ellipse-curve $-1 37.137326411977398 30.319738352220135 6.6098567306525151 0 0.83867057594974714 0.54463902268945019 2 0 0 1 I I #
point $-1 39.137326411977398 34.136614731170965 9.0885651536874885 #
plane-surface $-1 61.896420178838468 0 0 -1 0 0 0 0 1 forward_v I I I I #
coedge $-1 $225 $223 $227 $326 reversed $141 $-1 #
edge $-1 $238 -17.994995591188172 $328 17.994995591188172 $237 $387 forward 7 unknown #
vertex $-1 $326 $388 #
straight-curve $-1 -61.896420178838468 -39.920518099473462 0 0 0 -1 I I #
edge $-1 $324 -39.920518099473462 $328 39.920518099473462 $322 $389 forward 7 unknown #
straight-curve $-1 0 -39.920518099473462 -17.994995591188172 -1 0 0 I I #
vertex $-1 $230 $390 #
straight-curve $-1 0 39.920518099473462 -17.994995591188172 1 0 0 I I #
point $-1 61.896420178838468 39.920518099473462 -17.994995591188172 #
point $-1 61.896420178838468 -39.920518099473462 -17.994995591188172 #
straight-curve $-1 -61.896420178838468 0 17.994995591188172 0 -1 0 I I #
point $-1 -61.896420178838468 39.920518099473462 17.994995591188172 #
point $-1 -61.896420178838468 -39.920518099473462 17.994995591188172 #
straight-curve $-1 61.896420178838468 -39.920518099473462 0 0 0 -1 I I #
straight-curve $-1 61.896420178838468 39.920518099473462 0 0 0 -1 I I #
plane-surface $-1 0 39.920518099473462 0 0 -1 0 0 0 -1 forward_v I I I I #
coedge $-1 $251 $250 $391 $392 forward $96 $-1 #
edge $-1 $254 49.240436039370053 $393 61.896420178838468 $253 $394 forward 7 unknown #
coedge $-1 $259 $258 $251 $341 reversed $260 $-1 #
edge $-1 $395 -61.896420178838468 $342 -49.240436039370053 $340 $396 forward 7 unknown #
vertex $-1 $266 $397 #
straight-curve $-1 -49.240436039370053 0 -17.994995591188172 0 -1 0 I I #
point $-1 -49.240436039370053 -39.920518099473462 -17.994995591188172 #
coedge $-1 $391 $256 $259 $348 forward $248 $-1 #
coedge $-1 $256 $391 $263 $350 reversed $248 $-1 #
straight-curve $-1 -61.896420178838468 0 -8.8066575914881895 0 1 0 I I #
edge $-1 $261 8.8066575914881895 $395 17.994995591188172 $259 $398 forward 7 unknown #
point $-1 -61.896420178838468 39.920518099473462 -8.8066575914881895 #
edge $-1 $264 8.8066575914881895 $393 17.994995591188172 $346 $399 forward 7 unknown #
point $-1 -61.896420178838468 -39.920518099473462 -8.8066575914881895 #
straight-curve $-1 -49.240436039370053 39.920518099473462 -6.7004132956690903 0 0 -1 I I #
plane-surface $-1 61.896420178838468 0 0 -1 0 0 0 0 1 forward_v I I I I #
coedge $-1 $365 $272 $278 $361 forward $176 $-1 #
coedge $-1 $272 $365 $356 $400 forward $176 $-1 #
coedge $-1 $274 $273 $355 $400 reversed $104 $-1 #
edge $-1 $284 2.1062442958190992 $358 11.294582295519081 $273 $401 forward 7 unknown #
vertex $-1 $276 $402 #
straight-curve $-1 49.240436039370053 0 -17.994995591188172 0 1 0 I I #
straight-curve $-1 49.240436039370053 0 -8.8066575914881895 0 -1 0 I I #
edge $-1 $279 49.240436039370053 $369 61.896420178838468 $278 $403 forward 7 unknown #
point $-1 49.240436039370053 39.920518099473462 -17.994995591188172 #
point $-1 49.240436039370053 39.920518099473462 -8.8066575914881895 #
point $-1 49.240436039370053 -39.920518099473462 -8.8066575914881895 #
coedge $-1 $355 $354 $286 $366 forward $176 $-1 #
edge $-1 $369 -39.920518099473462 $367 39.920518099473462 $286 $404 forward 7 unknown #
vertex $-1 $287 $405 #
straight-curve $-1 61.896420178838468 -39.920518099473462 0 0 0 -1 I I #
vertex $-1 $366 $406 #
straight-curve $-1 61.896420178838468 39.920518099473462 0 0 0 -1 I I #
coedge $-1 $302 $301 $294 $372 forward $291 $-1 #
edge $-1 $373 10.208175347923536 $376 21.775982084528561 $371 $407 forward 7 unknown #
vertex $-1 $372 $408 #
straight-curve $-1 18.913240717936176 39.920518099473462 67.282437058969265 0 0 1 I I #
edge $-1 $376 3.7615935795802073 $303 26.541700697131731 $302 $409 forward 7 unknown #
vertex $-1 $375 $410 #
straight-curve $-1 18.913240717936176 -3.564025826434019 67.142462529582232 0 0.54463902268945019 -0.83867057594974714 I I #
point $-1 18.913240717936176 39.920518099473462 0.18213471618678057 #
point $-1 41.6933478354877 28.352711362868437 17.994995591188172 #
straight-curve $-1 0 39.920518099473462 17.994995591188172 -1 0 0 I I #
vertex $-1 $309 $411 #
point $-1 25.469262141446478 30.319738352220135 6.6098567306525151 #
vertex $-1 $313 $412 #
point $-1 32.303294276711938 30.319738352220135 6.6098567306525151 #
vertex $-1 $317 $413 #
point $-1 39.137326411977398 30.319738352220135 6.6098567306525151 #
straight-curve $-1 -61.896420178838468 39.920518099473462 0 0 0 -1 I I #
point $-1 -61.896420178838468 -39.920518099473462 -17.994995591188172 #
straight-curve $-1 -61.896420178838468 0 -17.994995591188172 0 1 0 I I #
point $-1 -61.896420178838468 39.920518099473462 -17.994995591188172 #
coedge $-1 $346 $345 $338 $392 reversed $248 $-1 #
edge $-1 $393 -39.920518099473462 $395 39.920518099473462 $391 $414 forward 7 unknown #
vertex $-1 $392 $415 #
straight-curve $-1 0 -39.920518099473462 -17.994995591188172 -1 0 0 I I #
vertex $-1 $341 $416 #
straight-curve $-1 0 39.920518099473462 -17.994995591188172 1 0 0 I I #
point $-1 -49.240436039370053 39.920518099473462 -17.994995591188172 #
straight-curve $-1 -61.896420178838468 39.920518099473462 0 0 0 -1 I I #
straight-curve $-1 -61.896420178838468 -39.920518099473462 0 0 0 -1 I I #
edge $-1 $367 -61.896420178838468 $358 -49.240436039370053 $356 $417 forward 7 unknown #
straight-curve $-1 49.240436039370053 -39.920518099473462 -6.7004132956690903 0 0 -1 I I #
point $-1 49.240436039370053 -39.920518099473462 -17.994995591188172 #
straight-curve $-1 0 39.920518099473462 -17.994995591188172 1 0 0 I I #
straight-curve $-1 61.896420178838468 0 -17.994995591188172 0 -1 0 I I #
point $-1 61.896420178838468 -39.920518099473462 -17.994995591188172 #
point $-1 61.896420178838468 39.920518099473462 -17.994995591188172 #
straight-curve $-1 18.913240717936176 50.128693447396998 17.994995591188172 0 -1 0 I I #
point $-1 18.913240717936176 39.920518099473462 17.994995591188172 #
straight-curve $-1 15.151647138355969 28.35271136286844 17.994995591188172 1 0 0 I I #
point $-1 18.913240717936176 28.352711362868437 17.994995591188172 #
point $-1 23.469262141446478 28.642397200320637 5.5205786852736143 #
point $-1 30.303294276711938 28.642397200320637 5.5205786852736143 #
point $-1 37.137326411977398 28.642397200320637 5.5205786852736143 #
straight-curve $-1 -61.896420178838468 0 -17.994995591188172 0 1 0 I I #
point $-1 -61.896420178838468 -39.920518099473462 -17.994995591188172 #
point $-1 -61.896420178838468 39.920518099473462 -17.994995591188172 #
straight-curve $-1 0 -39.920518099473462 -17.994995591188172 -1 0 0 I I #
End-of-ACIS-data 