500 0 7 0           
7 Unknown 11 ACIS 5.0 NT 24 Fri Mar 26 16:50:02 1999 
-1 9.9999999999999995e-007 1e-010 
body $-1 $7 $-1 $8 #
body $-1 $9 $-1 $10 #
body $-1 $11 $-1 $12 #
body $-1 $13 $-1 $14 #
body $-1 $15 $-1 $16 #
body $-1 $17 $-1 $18 #
body $-1 $19 $-1 $20 #
lump $-1 $-1 $21 $0 #
transform $-1 1 0 0 0 1 0 0 0 1 41.617481002227848 17.83199895550641 8.8484090889390359 1 rotate no_reflect no_shear #
lump $-1 $-1 $22 $1 #
transform $-1 1 0 0 0 1 0 0 0 1 41.617481002227848 17.83199895550641 8.8484090889390359 1 rotate no_reflect no_shear #
lump $-1 $-1 $23 $2 #
transform $-1 1 0 0 0 1 0 0 0 1 41.617481002227848 17.83199895550641 8.8484090889390359 1 rotate no_reflect no_shear #
lump $-1 $-1 $24 $3 #
transform $-1 1 0 0 0 1 0 0 0 1 41.617481002227848 17.83199895550641 8.8484090889390359 1 rotate no_reflect no_shear #
lump $-1 $-1 $25 $4 #
transform $-1 1 0 0 0 1 0 0 0 1 41.617481002227848 17.83199895550641 8.8484090889390359 1 rotate no_reflect no_shear #
lump $-1 $-1 $26 $5 #
transform $-1 1 0 0 0 1 0 0 0 1 41.617481002227848 17.83199895550641 8.8484090889390359 1 rotate no_reflect no_shear #
lump $-1 $-1 $27 $6 #
transform $-1 1 0 0 0 1 0 0 0 1 41.617481002227848 17.83199895550641 8.8484090889390359 1 rotate no_reflect no_shear #
shell $-1 $-1 $-1 $28 $-1 $7 #
shell $-1 $-1 $-1 $29 $-1 $9 #
shell $-1 $-1 $-1 $30 $-1 $11 #
shell $-1 $-1 $-1 $31 $-1 $13 #
shell $-1 $-1 $-1 $32 $-1 $15 #
shell $-1 $-1 $-1 $33 $-1 $17 #
shell $-1 $-1 $-1 $34 $-1 $19 #
face $-1 $35 $36 $21 $-1 $37 forward single #
face $-1 $38 $39 $22 $-1 $40 forward single #
face $-1 $41 $42 $23 $-1 $43 reversed single #
face $-1 $44 $45 $24 $-1 $46 forward single #
face $-1 $47 $48 $25 $-1 $49 forward single #
face $-1 $50 $51 $26 $-1 $52 reversed single #
face $-1 $53 $54 $27 $-1 $55 forward single #
face $-1 $56 $57 $21 $-1 $58 reversed single #
loop $-1 $-1 $59 $28 #
plane-surface $-1 0 0 8.8484090889390359 0 0 1 1 0 0 forward_v I I I I #
face $-1 $60 $61 $22 $-1 $62 reversed single #
loop $-1 $-1 $63 $29 #
plane-surface $-1 -36.22434501295038 0 -5.8484090889390359 0 0 1 1 0 0 forward_v I I I I #
face $-1 $64 $65 $23 $-1 $66 reversed single #
loop $-1 $-1 $67 $30 #
plane-surface $-1 -7.9193718900337302 -79.687630957210317 57.80492780282492 1 0 0 0 0.74314483375859142 -0.66913059716165679 forward_v I I I I #
face $-1 $68 $69 $24 $-1 $70 forward single #
loop $-1 $71 $72 $31 #
cone-surface $-1 -5.4864220154059353 -14.4267217769768 5.1445732319165263 0 0.74314483375859142 -0.66913059716165679 0.25 0 0 1 I I 0 1 0.25 forward I I I I #
face $-1 $73 $74 $25 $-1 $75 forward single #
loop $-1 $76 $77 $32 #
cone-surface $-1 -1.8369972034642359 -14.4267217769768 5.1445732319165263 0 0.74314483375859142 -0.66913059716165679 0.25 0 0 1 I I 0 1 0.25 forward I I I I #
face $-1 $78 $79 $26 $-1 $80 reversed single #
loop $-1 $-1 $81 $33 #
plane-surface $-1 22.503824254069507 54.383409436996715 84.940588075773746 1 0 0 0 -0.73135370988377701 -0.68199835119979291 forward_v I I I I #
face $-1 $82 $83 $27 $-1 $84 forward single #
loop $-1 $85 $86 $34 #
cone-surface $-1 32.060652628148688 14.14614611710269 4.9706913879969798 0 -0.73135370988377701 -0.68199835119979291 1 0 0 1 I I 0 1 1 forward I I I I #
face $-1 $87 $88 $21 $-1 $89 reversed single #
loop $-1 $-1 $90 $35 #
plane-surface $-1 0 0 -8.8484090889390359 0 0 1 1 0 0 forward_v I I I I #
coedge $-1 $91 $92 $93 $94 forward $36 $-1 #
face $-1 $95 $96 $22 $-1 $97 reversed single #
loop $-1 $-1 $98 $38 #
plane-surface $-1 -30.831209023672912 0 -7.3484090889390359 -1 0 0 0 0 1 forward_v I I I I #
coedge $-1 $99 $100 $101 $102 forward $39 $-1 #
face $-1 $103 $104 $23 $-1 $105 reversed single #
loop $-1 $-1 $106 $41 #
plane-surface $-1 -3.6617096094350856 -17.831998955506414 2.1098679720556675 0 -0.74314483375859142 0.66913059716165679 1 0 0 forward_v I I I I #
coedge $-1 $107 $108 $109 $110 reversed $42 $-1 #
face $-1 $-1 $111 $24 $-1 $112 forward single #
loop $-1 $113 $114 $44 #
cone-surface $-1 -5.4864220154059353 -13.96225625587768 4.7263666086904905 0 0.74314483375859142 -0.66913059716165679 0.125 0 0 1 I I -0.70710678118654746 0.70710678118654746 0.125 forward I I I I #
loop $-1 $-1 $115 $31 #
coedge $-1 $72 $72 $116 $117 reversed $45 $-1 #
face $-1 $-1 $118 $25 $-1 $119 forward single #
loop $-1 $120 $121 $47 #
cone-surface $-1 -1.8369972034642359 -13.96225625587768 4.7263666086904905 0 0.74314483375859142 -0.66913059716165679 0.125 0 0 1 I I -0.70710678118654746 0.70710678118654746 0.125 forward I I I I #
loop $-1 $-1 $122 $32 #
coedge $-1 $77 $77 $123 $124 reversed $48 $-1 #
face $-1 $125 $126 $26 $-1 $127 reversed single #
loop $-1 $-1 $128 $50 #
plane-surface $-1 32.060652628148674 -6.4907888169971812 28.174481226557553 0 0.73135370988377701 0.68199835119979291 1 0 0 forward_v I I I I #
coedge $-1 $129 $130 $131 $132 reversed $51 $-1 #
face $-1 $-1 $133 $27 $-1 $134 forward single #
loop $-1 $135 $136 $53 #
cone-surface $-1 32.060652628148688 13.245083616877981 4.1304370333990228 0 -0.73135370988377701 -0.68199835119979291 0.5 0 0 1 I I -0.70710678118654691 0.70710678118654813 0.5 forward I I I I #
loop $-1 $-1 $137 $34 #
coedge $-1 $86 $86 $138 $139 reversed $54 $-1 #
face $-1 $140 $141 $21 $-1 $142 reversed single #
loop $-1 $-1 $143 $56 #
plane-surface $-1 0 -17.83199895550641 0 0 1 0 0 0 1 forward_v I I I I #
coedge $-1 $144 $145 $146 $147 forward $57 $-1 #
coedge $-1 $148 $59 $149 $150 forward $36 $-1 #
coedge $-1 $59 $148 $151 $152 forward $36 $-1 #
coedge $-1 $153 $154 $59 $94 reversed $155 $-1 #
edge $-1 $156 -17.83199895550641 $157 17.83199895550641 $93 $158 forward 7 unknown #
face $-1 $159 $160 $22 $-1 $161 reversed single #
loop $-1 $-1 $162 $60 #
plane-surface $-1 0 0 -8.8484090889390359 0 0 1 1 0 0 forward_v I I I I #
coedge $-1 $163 $101 $164 $165 reversed $61 $-1 #
coedge $-1 $166 $63 $167 $168 reversed $39 $-1 #
coedge $-1 $63 $166 $169 $170 reversed $39 $-1 #
coedge $-1 $98 $171 $63 $102 reversed $61 $-1 #
edge $-1 $172 -17.83199895550641 $173 17.83199895550641 $101 $174 forward 7 unknown #
face $-1 $175 $176 $23 $-1 $177 forward single #
loop $-1 $-1 $178 $64 #
plane-surface $-1 0.59595267116355899 -79.687630957210317 57.80492780282492 -1 0 0 0 -0.74314483375859142 0.66913059716165679 forward_v I I I I #
coedge $-1 $179 $180 $181 $182 reversed $65 $-1 #
coedge $-1 $108 $67 $183 $184 reversed $42 $-1 #
coedge $-1 $67 $107 $179 $185 reversed $42 $-1 #
coedge $-1 $181 $186 $67 $110 forward $187 $-1 #
edge $-1 $188 20.054054812473424 $189 26.792595929356789 $109 $190 forward 7 unknown #
loop $-1 $-1 $116 $68 #
plane-surface $-1 -3.6617096094350856 -17.831998955506414 2.1098679720556675 0 -0.74314483375859142 0.66913059716165679 1 0 0 forward_v I I I I #
loop $-1 $-1 $191 $44 #
coedge $-1 $114 $114 $115 $192 reversed $69 $-1 #
coedge $-1 $115 $115 $114 $192 forward $71 $-1 #
coedge $-1 $116 $116 $72 $117 forward $111 $-1 #
edge $-1 $193 -2.1142780346562591e-015 $193 6.2831853071795987 $116 $194 forward 7 unknown #
loop $-1 $-1 $123 $73 #
plane-surface $-1 -3.6617096094350856 -17.831998955506414 2.1098679720556675 0 -0.74314483375859142 0.66913059716165679 1 0 0 forward_v I I I I #
loop $-1 $-1 $195 $47 #
coedge $-1 $121 $121 $122 $196 reversed $74 $-1 #
coedge $-1 $122 $122 $121 $196 forward $76 $-1 #
coedge $-1 $123 $123 $77 $124 forward $118 $-1 #
edge $-1 $197 -2.1142780346562591e-015 $197 6.2831853071795987 $123 $198 forward 7 unknown #
face $-1 $199 $200 $26 $-1 $201 reversed single #
loop $-1 $-1 $202 $78 #
plane-surface $-1 41.617481002227848 0 0 -1 0 0 0 0 1 forward_v I I I I #
coedge $-1 $203 $204 $205 $206 reversed $79 $-1 #
coedge $-1 $130 $81 $207 $208 reversed $51 $-1 #
coedge $-1 $81 $129 $203 $209 reversed $51 $-1 #
coedge $-1 $205 $210 $81 $132 forward $211 $-1 #
edge $-1 $212 9.3597057629919469 $213 15.660640149233725 $131 $214 forward 7 unknown #
loop $-1 $-1 $138 $82 #
plane-surface $-1 32.060652628148674 -6.4907888169971812 28.174481226557553 0 0.73135370988377701 0.68199835119979291 1 0 0 forward_v I I I I #
loop $-1 $-1 $215 $53 #
coedge $-1 $136 $136 $137 $216 reversed $83 $-1 #
coedge $-1 $137 $137 $136 $216 forward $85 $-1 #
coedge $-1 $138 $138 $86 $139 forward $133 $-1 #
edge $-1 $217 -3.5863479570962646e-017 $217 6.2831853071796004 $138 $218 forward 7 unknown #
face $-1 $219 $220 $21 $-1 $221 reversed single #
loop $-1 $-1 $222 $87 #
plane-surface $-1 -41.617481002227848 0 0 1 0 0 0 0 -1 forward_v I I I I #
coedge $-1 $223 $151 $224 $225 forward $88 $-1 #
coedge $-1 $226 $90 $223 $227 forward $57 $-1 #
coedge $-1 $90 $226 $228 $229 forward $57 $-1 #
coedge $-1 $154 $153 $90 $147 reversed $155 $-1 #
edge $-1 $230 -17.83199895550641 $231 17.83199895550641 $146 $232 forward 7 unknown #
coedge $-1 $92 $91 $233 $234 forward $36 $-1 #
coedge $-1 $235 $236 $91 $150 reversed $220 $-1 #
edge $-1 $157 -41.617481002227848 $237 41.617481002227848 $149 $238 forward 7 unknown #
coedge $-1 $143 $239 $92 $152 reversed $88 $-1 #
edge $-1 $240 -41.617481002227848 $156 41.617481002227848 $151 $241 forward 7 unknown #
coedge $-1 $146 $93 $239 $242 forward $155 $-1 #
coedge $-1 $93 $146 $235 $243 reversed $155 $-1 #
loop $-1 $-1 $153 $219 #
vertex $-1 $94 $244 #
vertex $-1 $94 $245 #
straight-curve $-1 41.617481002227848 0 8.8484090889390359 0 1 0 I I #
face $-1 $246 $247 $22 $-1 $248 reversed single #
loop $-1 $-1 $164 $95 #
plane-surface $-1 0 -17.83199895550641 0 0 1 0 0 0 1 forward_v I I I I #
coedge $-1 $249 $250 $163 $251 forward $96 $-1 #
coedge $-1 $171 $98 $162 $251 reversed $61 $-1 #
coedge $-1 $169 $252 $98 $165 forward $160 $-1 #
edge $-1 $253 -5.1742045444695179 $172 -2.1742045444695179 $164 $254 forward 7 unknown #
coedge $-1 $100 $99 $255 $256 reversed $39 $-1 #
coedge $-1 $257 $258 $99 $168 forward $259 $-1 #
edge $-1 $260 -23.505308495752658 $173 -12.719036517197722 $167 $261 forward 7 unknown #
coedge $-1 $262 $164 $100 $170 forward $160 $-1 #
edge $-1 $172 12.719036517197722 $263 23.505308495752658 $169 $264 forward 7 unknown #
coedge $-1 $101 $163 $257 $265 reversed $61 $-1 #
vertex $-1 $170 $266 #
vertex $-1 $168 $267 #
straight-curve $-1 -30.831209023672912 0 -5.8484090889390359 0 1 0 I I #
face $-1 $-1 $187 $23 $-1 $268 reversed single #
loop $-1 $-1 $269 $103 #
plane-surface $-1 0 0 8.8484090889390359 0 0 1 1 0 0 forward_v I I I I #
coedge $-1 $270 $271 $272 $273 reversed $104 $-1 #
coedge $-1 $274 $106 $108 $185 forward $65 $-1 #
coedge $-1 $106 $274 $270 $275 forward $65 $-1 #
coedge $-1 $272 $109 $106 $182 forward $187 $-1 #
edge $-1 $189 -6.0885170853161874 $276 2.4268074758811018 $181 $277 forward 7 unknown #
coedge $-1 $278 $279 $107 $184 forward $176 $-1 #
edge $-1 $280 -28.079226046399381 $188 -22.011816523098748 $183 $281 forward 7 unknown #
edge $-1 $189 5.3474328436922466e-015 $280 9.0676013756322007 $108 $282 forward 7 unknown #
coedge $-1 $109 $272 $278 $283 reversed $187 $-1 #
loop $-1 $-1 $272 $175 #
vertex $-1 $283 $284 #
vertex $-1 $110 $285 #
straight-curve $-1 -7.9193718900337302 -17.83199895550641 28.90246390141246 0 0 -1 I I #
coedge $-1 $191 $191 $-1 $286 reversed $113 $-1 #
edge $-1 $287 0 $287 6.2831853071796004 $114 $288 forward 7 unknown #
vertex $-1 $117 $289 #
ellipse-curve $-1 -5.4864220154059353 -14.798294193856094 5.4791385304973534 0 -0.74314483375859142 0.66913059716165679 0.25 0 0 1 I I #
coedge $-1 $195 $195 $-1 $290 reversed $120 $-1 #
edge $-1 $291 0 $291 6.2831853071796004 $121 $292 forward 7 unknown #
vertex $-1 $124 $293 #
ellipse-curve $-1 -1.8369972034642359 -14.798294193856094 5.4791385304973534 0 -0.74314483375859142 0.66913059716165679 0.25 0 0 1 I I #
face $-1 $-1 $211 $26 $-1 $294 forward single #
loop $-1 $-1 $295 $125 #
plane-surface $-1 0 17.83199895550641 0 0 -1 0 0 0 -1 forward_v I I I I #
coedge $-1 $296 $297 $204 $298 forward $126 $-1 #
coedge $-1 $299 $128 $130 $209 forward $79 $-1 #
coedge $-1 $128 $299 $202 $298 reversed $79 $-1 #
coedge $-1 $300 $131 $128 $206 forward $211 $-1 #
edge $-1 $213 6.4734979399951698 $301 25.587154688153504 $205 $302 forward 7 unknown #
coedge $-1 $303 $295 $129 $208 forward $200 $-1 #
edge $-1 $304 -40.378809992835812 $212 -33.621884948947837 $207 $305 forward 7 unknown #
edge $-1 $213 26.425068850323761 $304 35.6639979110128 $130 $306 forward 7 unknown #
coedge $-1 $131 $300 $303 $307 forward $211 $-1 #
loop $-1 $-1 $205 $199 #
vertex $-1 $208 $308 #
vertex $-1 $132 $309 #
straight-curve $-1 22.503824254069507 27.191704718498357 8.8484090889390359 0 -1 0 I I #
coedge $-1 $215 $215 $-1 $310 reversed $135 $-1 #
edge $-1 $311 0 $311 6.2831853071796004 $136 $312 forward 7 unknown #
vertex $-1 $139 $313 #
ellipse-curve $-1 32.060652628148688 14.681531762385521 5.4699465669950511 0 0.73135370988377701 0.68199835119979291 1 0 0 1 I I #
face $-1 $-1 $155 $21 $-1 $314 reversed single #
loop $-1 $-1 $235 $140 #
plane-surface $-1 0 17.83199895550641 0 0 -1 0 0 0 -1 forward_v I I I I #
coedge $-1 $315 $233 $236 $316 forward $141 $-1 #
coedge $-1 $239 $143 $144 $227 reversed $88 $-1 #
coedge $-1 $233 $315 $143 $225 reversed $141 $-1 #
edge $-1 $240 -8.8484090889390359 $317 8.8484090889390359 $224 $318 forward 7 unknown #
coedge $-1 $145 $144 $315 $319 forward $57 $-1 #
edge $-1 $231 -41.617481002227848 $317 41.617481002227848 $223 $320 forward 7 unknown #
coedge $-1 $236 $235 $145 $229 reversed $220 $-1 #
edge $-1 $321 -41.617481002227848 $230 41.617481002227848 $228 $322 forward 7 unknown #
vertex $-1 $147 $323 #
vertex $-1 $242 $324 #
straight-curve $-1 41.617481002227848 0 -8.8484090889390359 0 -1 0 I I #
coedge $-1 $222 $224 $148 $234 reversed $141 $-1 #
edge $-1 $237 -17.83199895550641 $240 17.83199895550641 $233 $325 forward 7 unknown #
coedge $-1 $228 $149 $154 $243 forward $220 $-1 #
coedge $-1 $149 $228 $222 $316 reversed $220 $-1 #
vertex $-1 $150 $326 #
straight-curve $-1 0 17.83199895550641 8.8484090889390359 -1 0 0 I I #
coedge $-1 $151 $223 $153 $242 reversed $88 $-1 #
vertex $-1 $234 $327 #
straight-curve $-1 0 -17.83199895550641 8.8484090889390359 1 0 0 I I #
edge $-1 $156 -8.8484090889390359 $231 8.8484090889390359 $153 $328 forward 7 unknown #
edge $-1 $157 -8.8484090889390359 $230 8.8484090889390359 $154 $329 forward 7 unknown #
point $-1 41.617481002227848 -17.83199895550641 8.8484090889390359 #
point $-1 41.617481002227848 17.83199895550641 8.8484090889390359 #
face $-1 $-1 $259 $22 $-1 $330 reversed single #
loop $-1 $-1 $255 $159 #
plane-surface $-1 -41.617481002227848 0 0 1 0 0 0 0 -1 forward_v I I I I #
coedge $-1 $331 $162 $252 $332 forward $96 $-1 #
coedge $-1 $162 $331 $333 $334 forward $96 $-1 #
edge $-1 $335 -17.83199895550641 $253 17.83199895550641 $162 $336 forward 7 unknown #
coedge $-1 $164 $262 $249 $332 reversed $160 $-1 #
vertex $-1 $332 $337 #
straight-curve $-1 -30.831209023672912 -17.83199895550641 -3.6742045444695179 0 0 1 I I #
coedge $-1 $338 $339 $166 $256 forward $247 $-1 #
edge $-1 $263 -17.83199895550641 $260 17.83199895550641 $255 $340 forward 7 unknown #
coedge $-1 $333 $167 $171 $265 forward $259 $-1 #
coedge $-1 $167 $333 $338 $341 reversed $259 $-1 #
loop $-1 $-1 $257 $246 #
vertex $-1 $341 $342 #
straight-curve $-1 -18.11217250647519 17.83199895550641 -5.8484090889390359 1 0 0 I I #
coedge $-1 $252 $169 $339 $343 forward $160 $-1 #
vertex $-1 $343 $344 #
straight-curve $-1 -18.11217250647519 -17.83199895550641 -5.8484090889390359 -1 0 0 I I #
edge $-1 $173 2.1742045444695179 $335 5.1742045444695179 $257 $345 forward 7 unknown #
point $-1 -30.831209023672912 -17.83199895550641 -5.8484090889390359 #
point $-1 -30.831209023672912 17.83199895550641 -5.8484090889390359 #
plane-surface $-1 0 -17.83199895550641 0 0 1 0 0 0 1 forward_v I I I I #
coedge $-1 $279 $278 $271 $346 forward $176 $-1 #
coedge $-1 $271 $178 $180 $275 reversed $104 $-1 #
coedge $-1 $178 $270 $269 $346 reversed $104 $-1 #
coedge $-1 $186 $181 $178 $273 forward $187 $-1 #
edge $-1 $276 -26.792595929356789 $347 -20.054054812473424 $272 $348 forward 7 unknown #
coedge $-1 $180 $179 $279 $349 reversed $65 $-1 #
edge $-1 $350 -9.0676013756322007 $276 -5.3474328436922466e-015 $270 $351 forward 7 unknown #
vertex $-1 $182 $352 #
straight-curve $-1 -1.8308548047175428 -17.83199895550641 2.1098679720556746 1 0 0 I I #
coedge $-1 $269 $183 $186 $283 forward $176 $-1 #
coedge $-1 $183 $269 $274 $349 forward $176 $-1 #
vertex $-1 $184 $353 #
straight-curve $-1 -7.9193718900337302 -39.843815478605158 8.8484090889390359 0 -1 0 I I #
straight-curve $-1 -7.9193718900337302 -17.831998955506414 2.1098679720556675 0 0.66913059716165679 0.74314483375859142 I I #
edge $-1 $188 -7.9193718900337302 $347 0.59595267116355899 $186 $354 forward 7 unknown #
point $-1 -7.9193718900337302 -17.83199895550641 8.8484090889390359 #
point $-1 -7.9193718900337302 -17.83199895550641 2.1098679720556714 #
edge $-1 $355 1 $355 0 $191 $-1 forward 7 unknown #
vertex $-1 $192 $356 #
ellipse-curve $-1 -5.4864220154059353 -14.055149360097504 4.8100079333356973 0 -0.74314483375859142 0.66913059716165679 0.25 0 0 1 I I #
point $-1 -5.2364220154059353 -14.798294193856096 5.4791385304973543 #
edge $-1 $357 1 $357 0 $195 $-1 forward 7 unknown #
vertex $-1 $196 $358 #
ellipse-curve $-1 -1.8369972034642359 -14.055149360097504 4.8100079333356973 0 -0.74314483375859142 0.66913059716165679 0.25 0 0 1 I I #
point $-1 -1.5869972034642359 -14.798294193856096 5.4791385304973543 #
plane-surface $-1 0 0 8.8484090889390359 0 0 1 1 0 0 forward_v I I I I #
coedge $-1 $207 $359 $299 $360 forward $200 $-1 #
coedge $-1 $297 $202 $359 $361 reversed $126 $-1 #
coedge $-1 $202 $296 $300 $362 reversed $126 $-1 #
edge $-1 $301 13.908959530187847 $363 23.147888590876889 $202 $364 forward 7 unknown #
coedge $-1 $204 $203 $295 $360 reversed $79 $-1 #
coedge $-1 $210 $205 $297 $362 forward $211 $-1 #
vertex $-1 $362 $365 #
straight-curve $-1 16.030326314074337 11.531064569264633 8.8484090889390341 1 0 0 I I #
coedge $-1 $359 $207 $210 $307 reversed $200 $-1 #
vertex $-1 $208 $366 #
straight-curve $-1 22.503824254069507 17.83199895550641 42.470294037886873 0 0 1 I I #
straight-curve $-1 22.503824254069507 -6.4907888169971812 28.174481226557553 0 0.68199835119979291 -0.73135370988377701 I I #
edge $-1 $367 -41.617481002227848 $212 -22.503824254069507 $303 $368 forward 7 unknown #
point $-1 22.503824254069507 17.83199895550641 8.8484090889390359 #
point $-1 22.503824254069507 11.531064569264633 8.8484090889390359 #
edge $-1 $369 1 $369 0 $215 $-1 forward 7 unknown #
vertex $-1 $216 $370 #
ellipse-curve $-1 32.060652628148688 13.610760471819869 4.4714362089989201 0 0.73135370988377701 0.68199835119979291 1 0 0 1 I I #
point $-1 33.060652628148688 14.681531762385509 5.4699465669950396 #
plane-surface $-1 41.617481002227848 0 0 -1 0 0 0 0 1 forward_v I I I I #
coedge $-1 $224 $222 $226 $319 reversed $141 $-1 #
edge $-1 $237 -8.8484090889390359 $321 8.8484090889390359 $236 $371 forward 7 unknown #
vertex $-1 $319 $372 #
straight-curve $-1 -41.617481002227848 -17.83199895550641 0 0 0 -1 I I #
edge $-1 $317 -17.83199895550641 $321 17.83199895550641 $315 $373 forward 7 unknown #
straight-curve $-1 0 -17.83199895550641 -8.8484090889390359 -1 0 0 I I #
vertex $-1 $229 $374 #
straight-curve $-1 0 17.83199895550641 -8.8484090889390359 1 0 0 I I #
point $-1 41.617481002227848 17.83199895550641 -8.8484090889390359 #
point $-1 41.617481002227848 -17.83199895550641 -8.8484090889390359 #
straight-curve $-1 -41.617481002227848 0 8.8484090889390359 0 -1 0 I I #
point $-1 -41.617481002227848 17.83199895550641 8.8484090889390359 #
point $-1 -41.617481002227848 -17.83199895550641 8.8484090889390359 #
straight-curve $-1 41.617481002227848 -17.83199895550641 0 0 0 -1 I I #
straight-curve $-1 41.617481002227848 17.83199895550641 0 0 0 -1 I I #
plane-surface $-1 0 17.83199895550641 0 0 -1 0 0 0 -1 forward_v I I I I #
coedge $-1 $250 $249 $375 $376 forward $96 $-1 #
edge $-1 $253 30.831209023672912 $377 41.617481002227848 $252 $378 forward 7 unknown #
coedge $-1 $258 $257 $250 $334 reversed $259 $-1 #
edge $-1 $379 -41.617481002227848 $335 -30.831209023672912 $333 $380 forward 7 unknown #
vertex $-1 $265 $381 #
straight-curve $-1 -30.831209023672912 0 -8.8484090889390359 0 -1 0 I I #
point $-1 -30.831209023672912 -17.83199895550641 -8.8484090889390359 #
coedge $-1 $375 $255 $258 $341 forward $247 $-1 #
coedge $-1 $255 $375 $262 $343 reversed $247 $-1 #
straight-curve $-1 -41.617481002227848 0 -5.8484090889390359 0 1 0 I I #
edge $-1 $260 5.8484090889390359 $379 8.8484090889390359 $258 $382 forward 7 unknown #
point $-1 -41.617481002227848 17.83199895550641 -5.8484090889390359 #
edge $-1 $263 5.8484090889390359 $377 8.8484090889390359 $339 $383 forward 7 unknown #
point $-1 -41.617481002227848 -17.83199895550641 -5.8484090889390359 #
straight-curve $-1 -30.831209023672912 17.83199895550641 -3.6742045444695179 0 0 -1 I I #
edge $-1 $347 22.011816523098748 $350 28.079226046399381 $269 $384 forward 7 unknown #
vertex $-1 $273 $385 #
straight-curve $-1 0.59595267116355899 -17.83199895550641 28.90246390141246 0 0 1 I I #
edge $-1 $350 -2.4268074758811018 $280 6.0885170853161874 $279 $386 forward 7 unknown #
vertex $-1 $349 $387 #
straight-curve $-1 0.59595267116355899 -17.831998955506414 2.1098679720556675 0 -0.66913059716165679 -0.74314483375859142 I I #
point $-1 0.59595267116355899 -17.83199895550641 2.1098679720556714 #
point $-1 -7.9193718900337302 -11.764589432205778 8.8484090889390359 #
straight-curve $-1 0 -17.83199895550641 8.8484090889390359 1 0 0 I I #
vertex $-1 $286 $388 #
point $-1 -5.2364220154059353 -14.055149360097504 4.8100079333356973 #
vertex $-1 $290 $389 #
point $-1 -1.5869972034642359 -14.055149360097504 4.8100079333356973 #
coedge $-1 $295 $303 $296 $361 forward $200 $-1 #
edge $-1 $363 -25.587154688153504 $304 -6.4734979399951698 $295 $390 forward 7 unknown #
edge $-1 $367 -8.8484090889390359 $363 -2.0914840450510646 $296 $391 forward 7 unknown #
edge $-1 $301 11.531064569264633 $367 17.83199895550641 $297 $392 forward 7 unknown #
vertex $-1 $360 $393 #
straight-curve $-1 41.617481002227848 2.0451771027718717 19.020778241965232 0 0.68199835119979291 -0.73135370988377701 I I #
point $-1 41.617481002227841 11.531064569264633 8.8484090889390359 #
point $-1 22.503824254069507 17.83199895550641 2.0914840450510646 #
vertex $-1 $362 $394 #
straight-curve $-1 0 17.83199895550641 8.8484090889390359 -1 0 0 I I #
vertex $-1 $310 $395 #
point $-1 33.060652628148688 13.610760471819869 4.4714362089989201 #
straight-curve $-1 -41.617481002227848 17.83199895550641 0 0 0 -1 I I #
point $-1 -41.617481002227848 -17.83199895550641 -8.8484090889390359 #
straight-curve $-1 -41.617481002227848 0 -8.8484090889390359 0 1 0 I I #
point $-1 -41.617481002227848 17.83199895550641 -8.8484090889390359 #
coedge $-1 $339 $338 $331 $376 reversed $247 $-1 #
edge $-1 $377 -17.83199895550641 $379 17.83199895550641 $375 $396 forward 7 unknown #
vertex $-1 $376 $397 #
straight-curve $-1 0 -17.83199895550641 -8.8484090889390359 -1 0 0 I I #
vertex $-1 $334 $398 #
straight-curve $-1 0 17.83199895550641 -8.8484090889390359 1 0 0 I I #
point $-1 -30.831209023672912 17.83199895550641 -8.8484090889390359 #
straight-curve $-1 -41.617481002227848 17.83199895550641 0 0 0 -1 I I #
straight-curve $-1 -41.617481002227848 -17.83199895550641 0 0 0 -1 I I #
straight-curve $-1 0.59595267116355899 -39.843815478605158 8.8484090889390359 0 1 0 I I #
point $-1 0.59595267116355899 -17.83199895550641 8.8484090889390359 #
straight-curve $-1 -1.8308548047175428 -11.764589432205778 8.8484090889390359 -1 0 0 I I #
point $-1 0.59595267116355899 -11.764589432205778 8.8484090889390359 #
point $-1 -5.4864220154059353 -13.869363151657856 4.6427252840452837 #
point $-1 -1.8369972034642359 -13.869363151657856 4.6427252840452837 #
straight-curve $-1 16.030326314074337 17.83199895550641 2.091484045051061 -1 0 0 I I #
straight-curve $-1 41.617481002227848 17.83199895550641 0 0 0 -1 I I #
straight-curve $-1 41.617481002227848 0 8.8484090889390359 0 1 0 I I #
point $-1 41.617481002227841 17.83199895550641 2.0914840450510646 #
point $-1 41.617481002227848 17.83199895550641 8.8484090889390359 #
point $-1 32.060652628148688 12.879406761936092 3.7894378577991259 #
straight-curve $-1 -41.617481002227848 0 -8.8484090889390359 0 1 0 I I #
point $-1 -41.617481002227848 -17.83199895550641 -8.8484090889390359 #
point $-1 -41.617481002227848 17.83199895550641 -8.8484090889390359 #
End-of-ACIS-data 