500 0 10 0           
7 Unknown 11 ACIS 5.0 NT 24 Thu Mar 25 21:56:28 1999 
-1 9.9999999999999995e-007 1e-010 
body $-1 $10 $-1 $11 #
body $-1 $12 $-1 $13 #
body $-1 $14 $-1 $15 #
body $-1 $16 $-1 $17 #
body $-1 $18 $-1 $19 #
body $-1 $20 $-1 $21 #
body $-1 $22 $-1 $23 #
body $-1 $24 $-1 $25 #
body $-1 $26 $-1 $27 #
body $-1 $28 $-1 $29 #
lump $-1 $-1 $30 $0 #
transform $-1 1 0 0 0 1 0 0 0 1 79.103976561784719 35.419954030483389 12.498000015413247 1 rotate no_reflect no_shear #
lump $-1 $-1 $31 $1 #
transform $-1 1 0 0 0 1 0 0 0 1 79.103976561784719 35.419954030483389 12.498000015413247 1 rotate no_reflect no_shear #
lump $-1 $-1 $32 $2 #
transform $-1 1 0 0 0 1 0 0 0 1 79.103976561784719 35.419954030483389 12.498000015413247 1 rotate no_reflect no_shear #
lump $-1 $-1 $33 $3 #
transform $-1 1 0 0 0 1 0 0 0 1 79.103976561784719 35.419954030483389 12.498000015413247 1 rotate no_reflect no_shear #
lump $-1 $-1 $34 $4 #
transform $-1 1 0 0 0 1 0 0 0 1 79.103976561784719 35.419954030483389 12.498000015413247 1 rotate no_reflect no_shear #
lump $-1 $-1 $35 $5 #
transform $-1 1 0 0 0 1 0 0 0 1 79.103976561784719 35.419954030483389 12.498000015413247 1 rotate no_reflect no_shear #
lump $-1 $-1 $36 $6 #
transform $-1 1 0 0 0 1 0 0 0 1 79.103976561784719 35.419954030483389 12.498000015413247 1 rotate no_reflect no_shear #
lump $-1 $-1 $37 $7 #
transform $-1 1 0 0 0 1 0 0 0 1 79.103976561784719 35.419954030483389 12.498000015413247 1 rotate no_reflect no_shear #
lump $-1 $-1 $38 $8 #
transform $-1 1 0 0 0 1 0 0 0 1 79.103976561784719 35.419954030483389 12.498000015413247 1 rotate no_reflect no_shear #
lump $-1 $-1 $39 $9 #
transform $-1 1 0 0 0 1 0 0 0 1 79.103976561784719 35.419954030483389 12.498000015413247 1 rotate no_reflect no_shear #
shell $-1 $-1 $-1 $40 $-1 $10 #
shell $-1 $-1 $-1 $41 $-1 $12 #
shell $-1 $-1 $-1 $42 $-1 $14 #
shell $-1 $-1 $-1 $43 $-1 $16 #
shell $-1 $-1 $-1 $44 $-1 $18 #
shell $-1 $-1 $-1 $45 $-1 $20 #
shell $-1 $-1 $-1 $46 $-1 $22 #
shell $-1 $-1 $-1 $47 $-1 $24 #
shell $-1 $-1 $-1 $48 $-1 $26 #
shell $-1 $-1 $-1 $49 $-1 $28 #
face $-1 $50 $51 $30 $-1 $52 forward single #
face $-1 $53 $54 $31 $-1 $55 reversed single #
face $-1 $56 $57 $32 $-1 $58 reversed single #
face $-1 $59 $60 $33 $-1 $61 forward single #
face $-1 $62 $63 $34 $-1 $64 forward single #
face $-1 $65 $66 $35 $-1 $67 forward single #
face $-1 $68 $69 $36 $-1 $70 reversed single #
face $-1 $71 $72 $37 $-1 $73 forward single #
face $-1 $74 $75 $38 $-1 $76 forward single #
face $-1 $77 $78 $39 $-1 $79 forward single #
face $-1 $80 $81 $30 $-1 $82 reversed single #
loop $-1 $-1 $83 $40 #
plane-surface $-1 0 0 12.498000015413247 0 0 1 1 0 0 forward_v I I I I #
face $-1 $84 $85 $31 $-1 $86 forward single #
loop $-1 $-1 $87 $41 #
plane-surface $-1 0 -26.488058664995577 4.0338946613082527 0 -1 0 0 0 -1 forward_v I I I I #
face $-1 $88 $89 $32 $-1 $90 reversed single #
loop $-1 $-1 $91 $42 #
plane-surface $-1 -79.103976561784691 -18.573706732236197 0.17044050444235381 -0.51503808176128008 0 0.85716729658548041 0.85716729658548041 0 0.51503808176128008 forward_v I I I I #
face $-1 $92 $93 $33 $-1 $94 forward single #
loop $-1 $95 $96 $43 #
cone-surface $-1 -67.861011112759783 -23.322317891891824 4.6953818921648978 0.51503808176128008 0 -0.85716729658548041 0.85716729658548041 0 0.51503808176128008 1 I I 0 1 1 forward I I I I #
face $-1 $97 $98 $34 $-1 $99 forward single #
loop $-1 $100 $101 $44 #
cone-surface $-1 -67.861011112759783 -18.573706732236197 4.6953818921648978 0.51503808176128008 0 -0.85716729658548041 0.85716729658548041 0 0.51503808176128008 1 I I 0 1 1 forward I I I I #
face $-1 $102 $103 $35 $-1 $104 forward single #
loop $-1 $105 $106 $45 #
cone-surface $-1 -67.861011112759783 -13.825095572580569 4.6953818921648978 0.51503808176128008 0 -0.85716729658548041 0.85716729658548041 0 0.51503808176128008 1 I I 0 1 1 forward I I I I #
face $-1 $107 $108 $36 $-1 $109 reversed single #
loop $-1 $-1 $110 $46 #
plane-surface $-1 -56.506706915467703 -18.573706732236197 81.653561200584051 0.51503808176128008 0 0.85716729658548041 0.85716729658548041 0 -0.51503808176128008 forward_v I I I I #
face $-1 $111 $112 $37 $-1 $113 forward single #
loop $-1 $114 $115 $47 #
cone-surface $-1 67.861011112759812 -23.322317891891824 4.6953818921648836 -0.51503808176128008 0 -0.85716729658548041 0.85716729658548041 0 -0.51503808176128008 1 I I 0 1 1 forward I I I I #
face $-1 $116 $117 $38 $-1 $118 forward single #
loop $-1 $119 $120 $48 #
cone-surface $-1 67.861011112759812 -18.573706732236197 4.6953818921648836 -0.51503808176128008 0 -0.85716729658548041 0.85716729658548041 0 -0.51503808176128008 1 I I 0 1 1 forward I I I I #
face $-1 $121 $122 $39 $-1 $123 forward single #
loop $-1 $124 $125 $49 #
cone-surface $-1 67.861011112759812 -13.825095572580569 4.6953818921648836 -0.51503808176128008 0 -0.85716729658548041 0.85716729658548041 0 -0.51503808176128008 1 I I 0 1 1 forward I I I I #
face $-1 $126 $127 $30 $-1 $128 reversed single #
loop $-1 $-1 $129 $50 #
plane-surface $-1 0 0 -12.498000015413247 0 0 1 1 0 0 forward_v I I I I #
coedge $-1 $130 $131 $132 $133 forward $51 $-1 #
face $-1 $134 $135 $31 $-1 $136 reversed single #
loop $-1 $-1 $137 $53 #
plane-surface $-1 0 -30.954006347739483 6.5824308929738526 0 0 1 1 0 0 forward_v I I I I #
coedge $-1 $138 $139 $140 $141 reversed $54 $-1 #
face $-1 $142 $143 $32 $-1 $144 forward single #
loop $-1 $-1 $145 $56 #
plane-surface $-1 -160.58709725792642 -10.659354799476816 135.78112398169478 0 -1 0 0.51503808176128008 0 -0.85716729658548041 forward_v I I I I #
coedge $-1 $146 $147 $148 $149 reversed $57 $-1 #
face $-1 $-1 $150 $33 $-1 $151 forward single #
loop $-1 $152 $153 $59 #
cone-surface $-1 -66.618778617910806 -23.322317891891824 2.6279598761092515 0.51503808176128008 0 -0.85716729658548041 0.4285836482927402 0 0.25751904088064004 1 I I -0.70710678118654746 0.70710678118654746 0.5 forward I I I I #
loop $-1 $-1 $154 $43 #
coedge $-1 $96 $96 $155 $156 reversed $60 $-1 #
face $-1 $-1 $157 $34 $-1 $158 forward single #
loop $-1 $159 $160 $62 #
cone-surface $-1 -66.618778617910806 -18.573706732236197 2.6279598761092515 0.51503808176128008 0 -0.85716729658548041 0.4285836482927402 0 0.25751904088064004 1 I I -0.70710678118654746 0.70710678118654746 0.5 forward I I I I #
loop $-1 $-1 $161 $44 #
coedge $-1 $101 $101 $162 $163 reversed $63 $-1 #
face $-1 $-1 $164 $35 $-1 $165 forward single #
loop $-1 $166 $167 $65 #
cone-surface $-1 -66.618778617910806 -13.825095572580569 2.6279598761092515 0.51503808176128008 0 -0.85716729658548041 0.4285836482927402 0 0.25751904088064004 1 I I -0.70710678118654746 0.70710678118654746 0.5 forward I I I I #
loop $-1 $-1 $168 $45 #
coedge $-1 $106 $106 $169 $170 reversed $66 $-1 #
face $-1 $171 $172 $36 $-1 $173 reversed single #
loop $-1 $-1 $174 $68 #
plane-surface $-1 24.976413780674022 -10.659354799476816 217.26424467783647 0 -1 0 -0.51503808176128008 0 -0.85716729658548041 forward_v I I I I #
coedge $-1 $175 $176 $177 $178 reversed $69 $-1 #
face $-1 $-1 $179 $37 $-1 $180 forward single #
loop $-1 $181 $182 $71 #
cone-surface $-1 66.618778617910834 -23.322317891891824 2.6279598761092373 -0.51503808176128008 0 -0.85716729658548041 0.4285836482927402 0 -0.25751904088064004 1 I I -0.70710678118654746 0.70710678118654746 0.5 forward I I I I #
loop $-1 $-1 $183 $47 #
coedge $-1 $115 $115 $184 $185 reversed $72 $-1 #
face $-1 $-1 $186 $38 $-1 $187 forward single #
loop $-1 $188 $189 $74 #
cone-surface $-1 66.618778617910834 -18.573706732236197 2.6279598761092373 -0.51503808176128008 0 -0.85716729658548041 0.4285836482927402 0 -0.25751904088064004 1 I I -0.70710678118654746 0.70710678118654746 0.5 forward I I I I #
loop $-1 $-1 $190 $48 #
coedge $-1 $120 $120 $191 $192 reversed $75 $-1 #
face $-1 $-1 $193 $39 $-1 $194 forward single #
loop $-1 $195 $196 $77 #
cone-surface $-1 66.618778617910834 -13.825095572580569 2.6279598761092373 -0.51503808176128008 0 -0.85716729658548041 0.4285836482927402 0 -0.25751904088064004 1 I I -0.70710678118654746 0.70710678118654746 0.5 forward I I I I #
loop $-1 $-1 $197 $49 #
coedge $-1 $125 $125 $198 $199 reversed $78 $-1 #
face $-1 $200 $201 $30 $-1 $202 reversed single #
loop $-1 $-1 $203 $80 #
plane-surface $-1 0 -35.419954030483389 0 0 1 0 0 0 1 forward_v I I I I #
coedge $-1 $204 $205 $206 $207 forward $81 $-1 #
coedge $-1 $208 $83 $209 $210 forward $51 $-1 #
coedge $-1 $83 $208 $211 $212 forward $51 $-1 #
coedge $-1 $213 $214 $83 $133 reversed $215 $-1 #
edge $-1 $216 -35.419954030483389 $217 35.419954030483389 $132 $218 forward 7 unknown #
face $-1 $219 $220 $31 $-1 $221 reversed single #
loop $-1 $-1 $222 $84 #
plane-surface $-1 0 -30.954006347739483 1.4853584296426527 0 0 1 1 0 0 forward_v I I I I #
coedge $-1 $223 $224 $225 $226 reversed $85 $-1 #
coedge $-1 $227 $87 $228 $229 reversed $54 $-1 #
coedge $-1 $87 $227 $230 $231 reversed $54 $-1 #
coedge $-1 $222 $232 $87 $141 forward $135 $-1 #
edge $-1 $233 -79.103976561784719 $234 79.103976561784719 $87 $235 forward 7 unknown #
face $-1 $236 $237 $32 $-1 $238 forward single #
loop $-1 $-1 $239 $88 #
plane-surface $-1 0 -26.488058664995577 4.0338946613082527 0 -1 0 0 0 -1 forward_v I I I I #
coedge $-1 $240 $241 $242 $243 reversed $89 $-1 #
coedge $-1 $244 $91 $239 $245 forward $57 $-1 #
coedge $-1 $91 $244 $240 $246 forward $57 $-1 #
coedge $-1 $242 $247 $91 $149 forward $237 $-1 #
edge $-1 $248 -17.201205298877479 $249 -1.3725014333587175 $148 $250 forward 7 unknown #
loop $-1 $-1 $155 $92 #
plane-surface $-1 -79.103976561784691 -18.573706732236197 0.17044050444235381 -0.51503808176128008 0 0.85716729658548041 0.85716729658548041 0 0.51503808176128008 forward_v I I I I #
loop $-1 $-1 $251 $59 #
coedge $-1 $153 $153 $154 $252 reversed $93 $-1 #
coedge $-1 $154 $154 $153 $252 forward $95 $-1 #
coedge $-1 $155 $155 $96 $156 forward $150 $-1 #
edge $-1 $253 0 $253 6.2831853071796004 $155 $254 forward 7 unknown #
loop $-1 $-1 $162 $97 #
plane-surface $-1 -79.103976561784691 -18.573706732236197 0.17044050444235381 -0.51503808176128008 0 0.85716729658548041 0.85716729658548041 0 0.51503808176128008 forward_v I I I I #
loop $-1 $-1 $255 $62 #
coedge $-1 $160 $160 $161 $256 reversed $98 $-1 #
coedge $-1 $161 $161 $160 $256 forward $100 $-1 #
coedge $-1 $162 $162 $101 $163 forward $157 $-1 #
edge $-1 $257 0 $257 6.2831853071796004 $162 $258 forward 7 unknown #
loop $-1 $-1 $169 $102 #
plane-surface $-1 -79.103976561784691 -18.573706732236197 0.17044050444235381 -0.51503808176128008 0 0.85716729658548041 0.85716729658548041 0 0.51503808176128008 forward_v I I I I #
loop $-1 $-1 $259 $65 #
coedge $-1 $167 $167 $168 $260 reversed $103 $-1 #
coedge $-1 $168 $168 $167 $260 forward $105 $-1 #
coedge $-1 $169 $169 $106 $170 forward $164 $-1 #
edge $-1 $261 0 $261 6.2831853071796004 $169 $262 forward 7 unknown #
face $-1 $263 $264 $36 $-1 $265 forward single #
loop $-1 $-1 $266 $107 #
plane-surface $-1 79.103976561784719 0 0 -1 0 0 0 0 1 forward_v I I I I #
coedge $-1 $267 $268 $269 $270 reversed $108 $-1 #
coedge $-1 $271 $110 $272 $273 forward $69 $-1 #
coedge $-1 $110 $271 $267 $274 forward $69 $-1 #
coedge $-1 $269 $266 $110 $178 forward $172 $-1 #
edge $-1 $275 -17.201205298877479 $276 -1.3725014333587175 $177 $277 forward 7 unknown #
loop $-1 $-1 $184 $111 #
plane-surface $-1 -56.506706915467703 -18.573706732236197 81.653561200584051 0.51503808176128008 0 0.85716729658548041 0.85716729658548041 0 -0.51503808176128008 forward_v I I I I #
loop $-1 $-1 $278 $71 #
coedge $-1 $182 $182 $183 $279 reversed $112 $-1 #
coedge $-1 $183 $183 $182 $279 forward $114 $-1 #
coedge $-1 $184 $184 $115 $185 forward $179 $-1 #
edge $-1 $280 0 $280 6.2831853071796004 $184 $281 forward 7 unknown #
loop $-1 $-1 $191 $116 #
plane-surface $-1 -56.506706915467703 -18.573706732236197 81.653561200584051 0.51503808176128008 0 0.85716729658548041 0.85716729658548041 0 -0.51503808176128008 forward_v I I I I #
loop $-1 $-1 $282 $74 #
coedge $-1 $189 $189 $190 $283 reversed $117 $-1 #
coedge $-1 $190 $190 $189 $283 forward $119 $-1 #
coedge $-1 $191 $191 $120 $192 forward $186 $-1 #
edge $-1 $284 0 $284 6.2831853071796004 $191 $285 forward 7 unknown #
loop $-1 $-1 $198 $121 #
plane-surface $-1 -56.506706915467703 -18.573706732236197 81.653561200584051 0.51503808176128008 0 0.85716729658548041 0.85716729658548041 0 -0.51503808176128008 forward_v I I I I #
loop $-1 $-1 $286 $77 #
coedge $-1 $196 $196 $197 $287 reversed $122 $-1 #
coedge $-1 $197 $197 $196 $287 forward $124 $-1 #
coedge $-1 $198 $198 $125 $199 forward $193 $-1 #
edge $-1 $288 0 $288 6.2831853071796004 $198 $289 forward 7 unknown #
face $-1 $290 $291 $30 $-1 $292 reversed single #
loop $-1 $-1 $293 $126 #
plane-surface $-1 -79.103976561784719 0 0 1 0 0 0 0 -1 forward_v I I I I #
coedge $-1 $294 $211 $295 $296 forward $127 $-1 #
coedge $-1 $297 $129 $294 $298 forward $81 $-1 #
coedge $-1 $129 $297 $299 $300 forward $81 $-1 #
coedge $-1 $214 $213 $129 $207 reversed $215 $-1 #
edge $-1 $301 -35.419954030483389 $302 35.419954030483389 $206 $303 forward 7 unknown #
coedge $-1 $131 $130 $304 $305 forward $51 $-1 #
coedge $-1 $306 $307 $130 $210 reversed $291 $-1 #
edge $-1 $217 -79.103976561784719 $308 79.103976561784719 $209 $309 forward 7 unknown #
coedge $-1 $203 $310 $131 $212 reversed $127 $-1 #
edge $-1 $311 -79.103976561784719 $216 79.103976561784719 $211 $312 forward 7 unknown #
coedge $-1 $206 $132 $310 $313 forward $215 $-1 #
coedge $-1 $132 $206 $306 $314 reversed $215 $-1 #
loop $-1 $-1 $213 $290 #
vertex $-1 $133 $315 #
vertex $-1 $133 $316 #
straight-curve $-1 79.103976561784719 0 12.498000015413247 0 1 0 I I #
face $-1 $317 $318 $31 $-1 $319 reversed single #
loop $-1 $-1 $320 $134 #
plane-surface $-1 -79.103976561784719 0 0 1 0 0 0 0 -1 forward_v I I I I #
coedge $-1 $321 $140 $322 $323 reversed $135 $-1 #
coedge $-1 $324 $137 $227 $325 forward $85 $-1 #
coedge $-1 $137 $324 $326 $327 reversed $85 $-1 #
coedge $-1 $328 $230 $137 $226 forward $329 $-1 #
edge $-1 $330 11.011055491125836 $331 19.942950856613649 $225 $332 forward 7 unknown #
coedge $-1 $139 $138 $223 $325 reversed $54 $-1 #
coedge $-1 $333 $320 $138 $229 forward $220 $-1 #
edge $-1 $334 -4.5654835623197263 $233 0.5315889010114736 $228 $335 forward 7 unknown #
coedge $-1 $225 $322 $139 $231 forward $329 $-1 #
edge $-1 $234 -0.5315889010114736 $330 4.5654835623197263 $230 $336 forward 7 unknown #
coedge $-1 $140 $321 $333 $337 reversed $135 $-1 #
vertex $-1 $337 $338 #
vertex $-1 $323 $339 #
straight-curve $-1 0 -26.488058664995577 1.4853584296426527 1 0 0 I I #
face $-1 $-1 $340 $32 $-1 $341 reversed single #
loop $-1 $-1 $242 $142 #
plane-surface $-1 0 0 12.498000015413247 0 0 1 1 0 0 forward_v I I I I #
coedge $-1 $342 $343 $146 $245 reversed $143 $-1 #
coedge $-1 $241 $145 $147 $246 reversed $89 $-1 #
coedge $-1 $145 $240 $344 $345 reversed $89 $-1 #
coedge $-1 $346 $148 $145 $243 forward $237 $-1 #
edge $-1 $249 -21.70607605729171 $347 -1.1895720671784886 $242 $348 forward 7 unknown #
coedge $-1 $147 $146 $349 $350 reversed $57 $-1 #
edge $-1 $248 -23.935238863919022 $351 3.3153694567098467e-014 $239 $352 forward 7 unknown #
edge $-1 $353 -3.3153694567098467e-014 $249 23.935238863919022 $240 $354 forward 7 unknown #
coedge $-1 $148 $346 $342 $355 forward $237 $-1 #
vertex $-1 $355 $356 #
vertex $-1 $149 $357 #
straight-curve $-1 -58.587472571671498 -9.2868533661180983 12.498000015413247 0 1 0 I I #
coedge $-1 $251 $251 $-1 $358 reversed $152 $-1 #
edge $-1 $359 0 $359 6.2831853071796004 $153 $360 forward 7 unknown #
vertex $-1 $156 $361 #
ellipse-curve $-1 -68.845724566728109 -23.322317891891824 6.3342202599277879 -0.51503808176128008 0 0.85716729658548041 0.85716729658548041 0 0.51503808176128008 1 I I #
coedge $-1 $255 $255 $-1 $362 reversed $159 $-1 #
edge $-1 $363 0 $363 6.2831853071796004 $160 $364 forward 7 unknown #
vertex $-1 $163 $365 #
ellipse-curve $-1 -68.845724566728109 -18.573706732236197 6.3342202599277879 -0.51503808176128008 0 0.85716729658548041 0.85716729658548041 0 0.51503808176128008 1 I I #
coedge $-1 $259 $259 $-1 $366 reversed $166 $-1 #
edge $-1 $367 0 $367 6.2831853071796004 $167 $368 forward 7 unknown #
vertex $-1 $170 $369 #
ellipse-curve $-1 -68.845724566728109 -13.825095572580569 6.3342202599277879 -0.51503808176128008 0 0.85716729658548041 0.85716729658548041 0 0.51503808176128008 1 I I #
face $-1 $-1 $370 $36 $-1 $371 forward single #
loop $-1 $-1 $272 $171 #
plane-surface $-1 0 -26.488058664995577 4.0338946613082527 0 -1 0 0 0 -1 forward_v I I I I #
coedge $-1 $177 $372 $373 $374 forward $172 $-1 #
coedge $-1 $268 $174 $176 $274 reversed $108 $-1 #
coedge $-1 $174 $267 $375 $376 reversed $108 $-1 #
coedge $-1 $372 $177 $174 $270 forward $172 $-1 #
edge $-1 $276 -108.46168183447591 $377 -96.134122323504982 $269 $378 forward 7 unknown #
coedge $-1 $176 $175 $379 $380 reversed $69 $-1 #
coedge $-1 $373 $381 $175 $273 reversed $264 $-1 #
edge $-1 $275 -158.20795312356944 $382 -134.27271425965034 $272 $383 forward 7 unknown #
edge $-1 $384 134.27271425965034 $276 158.20795312356944 $267 $385 forward 7 unknown #
vertex $-1 $178 $386 #
vertex $-1 $178 $387 #
straight-curve $-1 79.103976561784719 -9.2868533661180983 0.1704405044423325 0 1 0 I I #
coedge $-1 $278 $278 $-1 $388 reversed $181 $-1 #
edge $-1 $389 0 $389 6.2831853071796004 $182 $390 forward 7 unknown #
vertex $-1 $185 $391 #
ellipse-curve $-1 68.845724566728137 -23.322317891891824 6.3342202599277559 0.51503808176128008 0 0.85716729658548041 0.85716729658548041 0 -0.51503808176128008 1 I I #
coedge $-1 $282 $282 $-1 $392 reversed $188 $-1 #
edge $-1 $393 0 $393 6.2831853071796004 $189 $394 forward 7 unknown #
vertex $-1 $192 $395 #
ellipse-curve $-1 68.845724566728137 -18.573706732236197 6.3342202599277559 0.51503808176128008 0 0.85716729658548041 0.85716729658548041 0 -0.51503808176128008 1 I I #
coedge $-1 $286 $286 $-1 $396 reversed $195 $-1 #
edge $-1 $397 0 $397 6.2831853071796004 $196 $398 forward 7 unknown #
vertex $-1 $199 $399 #
ellipse-curve $-1 68.845724566728137 -13.825095572580569 6.3342202599277559 0.51503808176128008 0 0.85716729658548041 0.85716729658548041 0 -0.51503808176128008 1 I I #
face $-1 $-1 $215 $30 $-1 $400 reversed single #
loop $-1 $-1 $306 $200 #
plane-surface $-1 0 35.419954030483389 0 0 -1 0 0 0 -1 forward_v I I I I #
coedge $-1 $401 $304 $307 $402 forward $201 $-1 #
coedge $-1 $310 $203 $204 $298 reversed $127 $-1 #
coedge $-1 $304 $401 $203 $296 reversed $201 $-1 #
edge $-1 $311 -12.498000015413247 $403 12.498000015413247 $295 $404 forward 7 unknown #
coedge $-1 $205 $204 $401 $405 forward $81 $-1 #
edge $-1 $302 -79.103976561784719 $403 79.103976561784719 $294 $406 forward 7 unknown #
coedge $-1 $307 $306 $205 $300 reversed $291 $-1 #
edge $-1 $407 -79.103976561784719 $301 79.103976561784719 $299 $408 forward 7 unknown #
vertex $-1 $207 $409 #
vertex $-1 $313 $410 #
straight-curve $-1 79.103976561784719 0 -12.498000015413247 0 -1 0 I I #
coedge $-1 $293 $295 $208 $305 reversed $201 $-1 #
edge $-1 $308 -35.419954030483389 $311 35.419954030483389 $304 $411 forward 7 unknown #
coedge $-1 $299 $209 $214 $314 forward $291 $-1 #
coedge $-1 $209 $299 $293 $402 reversed $291 $-1 #
vertex $-1 $210 $412 #
straight-curve $-1 0 35.419954030483389 12.498000015413247 -1 0 0 I I #
coedge $-1 $211 $294 $213 $313 reversed $127 $-1 #
vertex $-1 $305 $413 #
straight-curve $-1 0 -35.419954030483389 12.498000015413247 1 0 0 I I #
edge $-1 $216 -12.498000015413247 $302 12.498000015413247 $213 $414 forward 7 unknown #
edge $-1 $217 -12.498000015413247 $301 12.498000015413247 $214 $415 forward 7 unknown #
point $-1 79.103976561784719 -35.419954030483389 12.498000015413247 #
point $-1 79.103976561784719 35.419954030483389 12.498000015413247 #
face $-1 $-1 $329 $31 $-1 $416 reversed single #
loop $-1 $-1 $326 $219 #
plane-surface $-1 0 -35.419954030483389 0 0 1 0 0 0 1 forward_v I I I I #
coedge $-1 $228 $417 $324 $418 forward $220 $-1 #
coedge $-1 $232 $222 $419 $420 reversed $135 $-1 #
coedge $-1 $230 $328 $222 $323 forward $329 $-1 #
edge $-1 $421 -19.942950856613649 $234 -11.011055491125836 $322 $422 forward 7 unknown #
coedge $-1 $224 $223 $320 $418 reversed $85 $-1 #
edge $-1 $330 -79.103976561784719 $334 79.103976561784719 $227 $423 forward 7 unknown #
coedge $-1 $424 $425 $224 $327 forward $318 $-1 #
edge $-1 $331 -79.103976561784719 $426 79.103976561784719 $326 $427 forward 7 unknown #
coedge $-1 $322 $225 $425 $428 forward $329 $-1 #
loop $-1 $-1 $225 $317 #
vertex $-1 $226 $429 #
vertex $-1 $428 $430 #
straight-curve $-1 79.103976561784719 -15.477003173869742 6.5824308929738526 0 -1 0 I I #
coedge $-1 $417 $228 $232 $337 forward $220 $-1 #
vertex $-1 $418 $431 #
straight-curve $-1 -79.103976561784719 -26.488058664995577 2.0169473306541263 0 0 -1 I I #
straight-curve $-1 79.103976561784719 -26.488058664995577 2.0169473306541263 0 0 1 I I #
edge $-1 $233 11.011055491125836 $432 19.942950856613649 $333 $433 forward 7 unknown #
point $-1 -79.103976561784719 -26.488058664995577 1.4853584296426527 #
point $-1 79.103976561784719 -26.488058664995577 1.4853584296426527 #
loop $-1 $-1 $434 $236 #
plane-surface $-1 -79.103976561784719 0 0 1 0 0 0 0 -1 forward_v I I I I #
coedge $-1 $343 $239 $247 $355 reversed $143 $-1 #
coedge $-1 $239 $342 $434 $435 reversed $143 $-1 #
coedge $-1 $349 $436 $241 $345 forward $340 $-1 #
edge $-1 $347 55.392561975434141 $353 67.720121486405048 $344 $437 forward 7 unknown #
coedge $-1 $247 $242 $436 $438 forward $237 $-1 #
vertex $-1 $438 $439 #
straight-curve $-1 -80.293548628963208 -10.659354799476816 12.498000015413247 -1 0 0 I I #
coedge $-1 $434 $344 $244 $350 forward $340 $-1 #
edge $-1 $353 1.3725014333587175 $351 17.201205298877479 $349 $440 forward 7 unknown #
vertex $-1 $435 $441 #
straight-curve $-1 -79.103976561784691 -26.488058664995577 0.17044050444235381 -0.85716729658548041 0 -0.51503808176128008 I I #
vertex $-1 $350 $442 #
straight-curve $-1 -79.103976561784691 -10.659354799476816 0.17044050444235381 0.85716729658548041 0 0.51503808176128008 I I #
edge $-1 $443 1.1895720671784886 $248 21.70607605729171 $247 $444 forward 7 unknown #
point $-1 -58.587472571671498 -26.488058664995577 12.498000015413247 #
point $-1 -58.587472571671498 -10.659354799476816 12.498000015413247 #
edge $-1 $445 1 $445 0 $251 $-1 forward 7 unknown #
vertex $-1 $252 $446 #
ellipse-curve $-1 -66.876297658791444 -23.322317891891824 3.0565435244019916 -0.51503808176128008 0 0.85716729658548041 0.85716729658548041 0 0.51503808176128008 1 I I #
point $-1 -67.98855727014265 -23.322317891891824 6.8492583416890849 #
edge $-1 $447 1 $447 0 $255 $-1 forward 7 unknown #
vertex $-1 $256 $448 #
ellipse-curve $-1 -66.876297658791444 -18.573706732236197 3.0565435244019916 -0.51503808176128008 0 0.85716729658548041 0.85716729658548041 0 0.51503808176128008 1 I I #
point $-1 -67.98855727014265 -18.573706732236197 6.8492583416890849 #
edge $-1 $449 1 $449 0 $259 $-1 forward 7 unknown #
vertex $-1 $260 $450 #
ellipse-curve $-1 -66.876297658791444 -13.825095572580569 3.0565435244019916 -0.51503808176128008 0 0.85716729658548041 0.85716729658548041 0 0.51503808176128008 1 I I #
point $-1 -67.98855727014265 -13.825095572580569 6.8492583416890849 #
loop $-1 $-1 $451 $263 #
plane-surface $-1 0 0 12.498000015413247 0 0 1 1 0 0 forward_v I I I I #
coedge $-1 $266 $269 $452 $453 reversed $172 $-1 #
coedge $-1 $381 $272 $266 $374 reversed $264 $-1 #
edge $-1 $454 96.134122323504982 $275 108.46168183447591 $266 $455 forward 7 unknown #
coedge $-1 $379 $452 $268 $376 forward $370 $-1 #
edge $-1 $377 -66.615769671447708 $384 -46.099265681334458 $375 $456 forward 7 unknown #
vertex $-1 $376 $457 #
straight-curve $-1 79.103976561784719 -10.659354799476816 108.63212233891824 0 0 1 I I #
coedge $-1 $451 $375 $271 $380 forward $370 $-1 #
edge $-1 $384 1.3725014333587175 $382 17.201205298877479 $379 $458 forward 7 unknown #
coedge $-1 $272 $373 $451 $459 reversed $264 $-1 #
vertex $-1 $459 $460 #
straight-curve $-1 -56.506706915467703 -26.488058664995577 81.653561200584051 -0.85716729658548041 0 0.51503808176128008 I I #
vertex $-1 $380 $461 #
straight-curve $-1 -56.506706915467703 -10.659354799476816 81.653561200584051 0.85716729658548041 0 -0.51503808176128008 I I #
point $-1 79.103976561784719 -26.488058664995577 0.17044050444232539 #
point $-1 79.103976561784719 -10.659354799476816 0.17044050444232539 #
edge $-1 $462 1 $462 0 $278 $-1 forward 7 unknown #
vertex $-1 $279 $463 #
ellipse-curve $-1 66.876297658791472 -23.322317891891824 3.0565435244019774 0.51503808176128008 0 0.85716729658548041 0.85716729658548041 0 -0.51503808176128008 1 I I #
point $-1 69.702891863313639 -23.322317891891824 5.8191821781665105 #
edge $-1 $464 1 $464 0 $282 $-1 forward 7 unknown #
vertex $-1 $283 $465 #
ellipse-curve $-1 66.876297658791472 -18.573706732236197 3.0565435244019774 0.51503808176128008 0 0.85716729658548041 0.85716729658548041 0 -0.51503808176128008 1 I I #
point $-1 69.702891863313639 -18.573706732236197 5.8191821781665105 #
edge $-1 $466 1 $466 0 $286 $-1 forward 7 unknown #
vertex $-1 $287 $467 #
ellipse-curve $-1 66.876297658791472 -13.825095572580569 3.0565435244019774 0.51503808176128008 0 0.85716729658548041 0.85716729658548041 0 -0.51503808176128008 1 I I #
point $-1 69.702891863313639 -13.825095572580569 5.8191821781665105 #
plane-surface $-1 79.103976561784719 0 0 -1 0 0 0 0 1 forward_v I I I I #
coedge $-1 $295 $293 $297 $405 reversed $201 $-1 #
edge $-1 $308 -12.498000015413247 $407 12.498000015413247 $307 $468 forward 7 unknown #
vertex $-1 $405 $469 #
straight-curve $-1 -79.103976561784719 -35.419954030483389 0 0 0 -1 I I #
edge $-1 $403 -35.419954030483389 $407 35.419954030483389 $401 $470 forward 7 unknown #
straight-curve $-1 0 -35.419954030483389 -12.498000015413247 -1 0 0 I I #
vertex $-1 $300 $471 #
straight-curve $-1 0 35.419954030483389 -12.498000015413247 1 0 0 I I #
point $-1 79.103976561784719 35.419954030483389 -12.498000015413247 #
point $-1 79.103976561784719 -35.419954030483389 -12.498000015413247 #
straight-curve $-1 -79.103976561784719 0 12.498000015413247 0 -1 0 I I #
point $-1 -79.103976561784719 35.419954030483389 12.498000015413247 #
point $-1 -79.103976561784719 -35.419954030483389 12.498000015413247 #
straight-curve $-1 79.103976561784719 -35.419954030483389 0 0 0 -1 I I #
straight-curve $-1 79.103976561784719 35.419954030483389 0 0 0 -1 I I #
plane-surface $-1 79.103976561784719 0 0 -1 0 0 0 0 1 forward_v I I I I #
coedge $-1 $320 $333 $424 $472 reversed $220 $-1 #
edge $-1 $426 -19.942950856613649 $334 -11.011055491125836 $320 $473 forward 7 unknown #
coedge $-1 $425 $424 $321 $420 forward $318 $-1 #
edge $-1 $432 -79.103976561784719 $421 79.103976561784719 $419 $474 forward 7 unknown #
vertex $-1 $420 $475 #
straight-curve $-1 79.103976561784719 -15.477003173869742 1.4853584296426527 0 1 0 I I #
straight-curve $-1 0 -26.488058664995577 6.5824308929738526 -1 0 0 I I #
coedge $-1 $419 $326 $417 $472 forward $318 $-1 #
coedge $-1 $326 $419 $328 $428 reversed $318 $-1 #
vertex $-1 $472 $476 #
straight-curve $-1 0 -35.419954030483389 6.5824308929738526 -1 0 0 I I #
edge $-1 $331 -6.5824308929738526 $421 -1.4853584296426527 $328 $477 forward 7 unknown #
point $-1 79.103976561784719 -26.488058664995577 6.5824308929738526 #
point $-1 79.103976561784719 -35.419954030483389 6.5824308929738526 #
point $-1 -79.103976561784719 -26.488058664995577 6.5824308929738526 #
vertex $-1 $420 $478 #
straight-curve $-1 -79.103976561784719 -15.477003173869742 1.4853584296426527 0 -1 0 I I #
coedge $-1 $436 $349 $343 $435 forward $340 $-1 #
edge $-1 $351 -67.720121486405048 $443 -55.392561975434141 $434 $479 forward 7 unknown #
coedge $-1 $344 $434 $346 $438 reversed $340 $-1 #
straight-curve $-1 -79.103976561784719 -10.659354799476816 67.890561990847388 0 0 -1 I I #
edge $-1 $347 10.659354799476816 $443 26.488058664995577 $436 $480 forward 7 unknown #
point $-1 -79.103976561784719 -10.659354799476816 12.498000015413247 #
straight-curve $-1 -79.103976561784719 -9.2868533661180983 0.17044050444233472 0 -1 0 I I #
point $-1 -79.103976561784719 -26.488058664995577 0.17044050444233674 #
point $-1 -79.103976561784719 -10.659354799476816 0.17044050444233674 #
vertex $-1 $435 $481 #
straight-curve $-1 -80.293548628963208 -26.488058664995577 12.498000015413247 1 0 0 I I #
vertex $-1 $358 $482 #
point $-1 -66.019130362205971 -23.322317891891824 3.5715816061632717 #
vertex $-1 $362 $483 #
point $-1 -66.019130362205971 -18.573706732236197 3.5715816061632717 #
vertex $-1 $366 $484 #
point $-1 -66.019130362205971 -13.825095572580569 3.5715816061632717 #
coedge $-1 $452 $379 $381 $459 forward $370 $-1 #
coedge $-1 $375 $451 $372 $453 forward $370 $-1 #
edge $-1 $454 -26.488058664995577 $377 -10.659354799476816 $372 $485 forward 7 unknown #
vertex $-1 $453 $486 #
straight-curve $-1 79.103976561784719 -26.488058664995577 108.63212233891824 0 0 -1 I I #
straight-curve $-1 12.488206890337011 -10.659354799476816 12.498000015413254 -1 0 0 I I #
point $-1 79.103976561784719 -10.659354799476816 12.498000015413247 #
straight-curve $-1 58.587472571671491 -9.2868533661180983 12.49800001541324 0 -1 0 I I #
edge $-1 $382 46.099265681334458 $454 66.615769671447708 $451 $487 forward 7 unknown #
point $-1 58.587472571671469 -26.488058664995577 12.498000015413254 #
point $-1 58.587472571671469 -10.659354799476816 12.498000015413254 #
vertex $-1 $388 $488 #
point $-1 67.733464955376959 -23.322317891891824 2.5415054426406973 #
vertex $-1 $392 $489 #
point $-1 67.733464955376959 -18.573706732236197 2.5415054426406973 #
vertex $-1 $396 $490 #
point $-1 67.733464955376959 -13.825095572580569 2.5415054426406973 #
straight-curve $-1 -79.103976561784719 35.419954030483389 0 0 0 -1 I I #
point $-1 -79.103976561784719 -35.419954030483389 -12.498000015413247 #
straight-curve $-1 -79.103976561784719 0 -12.498000015413247 0 1 0 I I #
point $-1 -79.103976561784719 35.419954030483389 -12.498000015413247 #
edge $-1 $426 -6.5824308929738526 $432 -1.4853584296426527 $417 $491 forward 7 unknown #
straight-curve $-1 -79.103976561784719 -15.477003173869742 6.5824308929738526 0 1 0 I I #
straight-curve $-1 0 -35.419954030483389 1.4853584296426527 1 0 0 I I #
point $-1 79.103976561784719 -35.419954030483389 1.4853584296426527 #
point $-1 -79.103976561784719 -35.419954030483389 6.5824308929738526 #
straight-curve $-1 79.103976561784719 -35.419954030483389 0 0 0 -1 I I #
point $-1 -79.103976561784719 -35.419954030483389 1.4853584296426527 #
straight-curve $-1 -79.103976561784719 -26.488058664995577 67.890561990847388 0 0 1 I I #
straight-curve $-1 -79.103976561784719 0 12.498000015413247 0 -1 0 I I #
point $-1 -79.103976561784719 -26.488058664995577 12.498000015413247 #
point $-1 -66.361259577030168 -23.322317891891824 2.1993762278165114 #
point $-1 -66.361259577030168 -18.573706732236197 2.1993762278165114 #
point $-1 -66.361259577030168 -13.825095572580569 2.1993762278165114 #
straight-curve $-1 79.103976561784719 0 12.498000015413247 0 1 0 I I #
point $-1 79.103976561784719 -26.488058664995577 12.498000015413247 #
straight-curve $-1 12.488206890337011 -26.488058664995577 12.498000015413254 1 0 0 I I #
point $-1 66.361259577030197 -23.322317891891824 2.1993762278164972 #
point $-1 66.361259577030197 -18.573706732236197 2.1993762278164972 #
point $-1 66.361259577030197 -13.825095572580569 2.1993762278164972 #
straight-curve $-1 -79.103976561784719 -35.419954030483389 0 0 0 -1 I I #
End-of-ACIS-data 