500 0 14 0           
7 Unknown 11 ACIS 5.0 NT 24 Thu Mar 25 22:12:52 1999 
-1 9.9999999999999995e-007 1e-010 
body $-1 $14 $-1 $15 #
body $-1 $16 $-1 $17 #
body $-1 $18 $-1 $19 #
body $-1 $20 $-1 $21 #
body $-1 $22 $-1 $23 #
body $-1 $24 $-1 $25 #
body $-1 $26 $-1 $27 #
body $-1 $28 $-1 $29 #
body $-1 $30 $-1 $31 #
body $-1 $32 $-1 $33 #
body $-1 $34 $-1 $35 #
body $-1 $36 $-1 $37 #
body $-1 $38 $-1 $39 #
body $-1 $40 $-1 $41 #
lump $-1 $-1 $42 $0 #
transform $-1 1 0 0 0 1 0 0 0 1 53.860286263618882 37.243598136309402 13.291851110129992 1 rotate no_reflect no_shear #
lump $-1 $-1 $43 $1 #
transform $-1 1 0 0 0 1 0 0 0 1 53.860286263618882 37.243598136309402 13.291851110129992 1 rotate no_reflect no_shear #
lump $-1 $-1 $44 $2 #
transform $-1 1 0 0 0 1 0 0 0 1 53.860286263618882 37.243598136309402 13.291851110129992 1 rotate no_reflect no_shear #
lump $-1 $-1 $45 $3 #
transform $-1 1 0 0 0 1 0 0 0 1 53.860286263618882 37.243598136309402 13.291851110129992 1 rotate no_reflect no_shear #
lump $-1 $-1 $46 $4 #
transform $-1 1 0 0 0 1 0 0 0 1 53.860286263618882 37.243598136309402 13.291851110129992 1 rotate no_reflect no_shear #
lump $-1 $-1 $47 $5 #
transform $-1 1 0 0 0 1 0 0 0 1 53.860286263618882 37.243598136309402 13.291851110129992 1 rotate no_reflect no_shear #
lump $-1 $-1 $48 $6 #
transform $-1 1 0 0 0 1 0 0 0 1 53.860286263618882 37.243598136309402 13.291851110129992 1 rotate no_reflect no_shear #
lump $-1 $-1 $49 $7 #
transform $-1 1 0 0 0 1 0 0 0 1 53.860286263618882 37.243598136309402 13.291851110129992 1 rotate no_reflect no_shear #
lump $-1 $-1 $50 $8 #
transform $-1 1 0 0 0 1 0 0 0 1 53.860286263618882 37.243598136309402 13.291851110129992 1 rotate no_reflect no_shear #
lump $-1 $-1 $51 $9 #
transform $-1 1 0 0 0 1 0 0 0 1 53.860286263618882 37.243598136309402 13.291851110129992 1 rotate no_reflect no_shear #
lump $-1 $-1 $52 $10 #
transform $-1 1 0 0 0 1 0 0 0 1 53.860286263618882 37.243598136309402 13.291851110129992 1 rotate no_reflect no_shear #
lump $-1 $-1 $53 $11 #
transform $-1 1 0 0 0 1 0 0 0 1 53.860286263618882 37.243598136309402 13.291851110129992 1 rotate no_reflect no_shear #
lump $-1 $-1 $54 $12 #
transform $-1 1 0 0 0 1 0 0 0 1 53.860286263618882 37.243598136309402 13.291851110129992 1 rotate no_reflect no_shear #
lump $-1 $-1 $55 $13 #
transform $-1 1 0 0 0 1 0 0 0 1 53.860286263618882 37.243598136309402 13.291851110129992 1 rotate no_reflect no_shear #
shell $-1 $-1 $-1 $56 $-1 $14 #
shell $-1 $-1 $-1 $57 $-1 $16 #
shell $-1 $-1 $-1 $58 $-1 $18 #
shell $-1 $-1 $-1 $59 $-1 $20 #
shell $-1 $-1 $-1 $60 $-1 $22 #
shell $-1 $-1 $-1 $61 $-1 $24 #
shell $-1 $-1 $-1 $62 $-1 $26 #
shell $-1 $-1 $-1 $63 $-1 $28 #
shell $-1 $-1 $-1 $64 $-1 $30 #
shell $-1 $-1 $-1 $65 $-1 $32 #
shell $-1 $-1 $-1 $66 $-1 $34 #
shell $-1 $-1 $-1 $67 $-1 $36 #
shell $-1 $-1 $-1 $68 $-1 $38 #
shell $-1 $-1 $-1 $69 $-1 $40 #
face $-1 $70 $71 $42 $-1 $72 forward single #
face $-1 $73 $74 $43 $-1 $75 reversed single #
face $-1 $76 $77 $44 $-1 $78 forward single #
face $-1 $79 $80 $45 $-1 $81 reversed single #
face $-1 $82 $83 $46 $-1 $84 forward single #
face $-1 $85 $86 $47 $-1 $87 reversed single #
face $-1 $88 $89 $48 $-1 $90 forward single #
face $-1 $91 $92 $49 $-1 $93 reversed single #
face $-1 $94 $95 $50 $-1 $96 forward single #
face $-1 $97 $98 $51 $-1 $99 reversed single #
face $-1 $100 $101 $52 $-1 $102 forward single #
face $-1 $103 $104 $53 $-1 $105 reversed single #
face $-1 $106 $107 $54 $-1 $108 forward single #
face $-1 $109 $110 $55 $-1 $111 forward single #
face $-1 $112 $113 $42 $-1 $114 reversed single #
loop $-1 $-1 $115 $56 #
plane-surface $-1 0 0 13.291851110129992 0 0 1 1 0 0 forward_v I I I I #
face $-1 $116 $117 $43 $-1 $118 reversed single #
loop $-1 $-1 $119 $57 #
plane-surface $-1 0 -32.259050529902218 7.0261389418726026 0 0 1 1 0 0 forward_v I I I I #
face $-1 $120 $121 $44 $-1 $122 reversed single #
loop $-1 $-1 $123 $58 #
plane-surface $-1 0 37.243598136309402 0 0 -1 0 0 0 -1 forward_v I I I I #
face $-1 $124 $125 $45 $-1 $126 reversed single #
loop $-1 $-1 $127 $59 #
plane-surface $-1 59.176873758344833 -13.846279582045209 160.05793195508187 0 -1 0 -0.73135370988377701 0 -0.68199835119979291 forward_v I I I I #
face $-1 $128 $129 $46 $-1 $130 forward single #
loop $-1 $131 $132 $60 #
cone-surface $-1 49.14360590259362 -17.089793731270586 8.5360707117298311 -0.73135370988377701 0 -0.68199835119979291 1.0229975267996894 0 -1.0970305648256655 1 I I 0 1 1.5 forward I I I I #
face $-1 $133 $134 $47 $-1 $135 reversed single #
loop $-1 $-1 $136 $61 #
plane-surface $-1 59.176873758344833 -0.4180562405953836 160.05793195508187 0 -1 0 -0.73135370988377701 0 -0.68199835119979291 forward_v I I I I #
face $-1 $137 $138 $48 $-1 $139 forward single #
loop $-1 $140 $141 $62 #
cone-surface $-1 49.14360590259362 -3.6615703898207599 8.5360707117298311 -0.73135370988377701 0 -0.68199835119979291 1.0229975267996894 0 -1.0970305648256655 1 I I 0 1 1.5 forward I I I I #
face $-1 $142 $143 $49 $-1 $144 reversed single #
loop $-1 $-1 $145 $63 #
plane-surface $-1 59.176873758344833 13.010167100854446 160.05793195508187 0 -1 0 -0.73135370988377701 0 -0.68199835119979291 forward_v I I I I #
face $-1 $146 $147 $50 $-1 $148 forward single #
loop $-1 $149 $150 $64 #
cone-surface $-1 49.14360590259362 9.7666529516290694 8.5360707117298311 -0.73135370988377701 0 -0.68199835119979291 1.0229975267996894 0 -1.0970305648256655 1 I I 0 1 1.5 forward I I I I #
face $-1 $151 $152 $51 $-1 $153 reversed single #
loop $-1 $-1 $154 $65 #
plane-surface $-1 59.176873758344833 26.438390442304275 160.05793195508187 0 -1 0 -0.73135370988377701 0 -0.68199835119979291 forward_v I I I I #
face $-1 $155 $156 $52 $-1 $157 forward single #
loop $-1 $158 $159 $66 #
cone-surface $-1 49.14360590259362 23.194876293078899 8.5360707117298311 -0.73135370988377701 0 -0.68199835119979291 1.0229975267996894 0 -1.0970305648256655 1 I I 0 1 1.5 forward I I I I #
face $-1 $160 $161 $53 $-1 $162 reversed single #
loop $-1 $-1 $163 $67 #
plane-surface $-1 -143.16468909557915 4.0359604834116993 68.478665433283268 0 1 0 -0.82903758062907751 0 0.55919289150049634 forward_v I I I I #
face $-1 $164 $165 $54 $-1 $166 forward single #
loop $-1 $167 $168 $68 #
cone-surface $-1 -50.73024331150863 7.3574838320552232 9.8044531533616599 0.82903758062907751 0 -0.55919289150049634 0.55919289150049634 0 0.82903758062907751 1 I I 0 1 1 forward I I I I #
face $-1 $169 $170 $55 $-1 $171 forward single #
loop $-1 $172 $173 $69 #
cone-surface $-1 -50.73024331150863 12.339768855020502 9.8044531533616599 0.82903758062907751 0 -0.55919289150049634 0.55919289150049634 0 0.82903758062907751 1 I I 0 1 1 forward I I I I #
face $-1 $174 $175 $42 $-1 $176 reversed single #
loop $-1 $-1 $177 $70 #
plane-surface $-1 0 0 -13.291851110129992 0 0 1 1 0 0 forward_v I I I I #
coedge $-1 $178 $179 $180 $181 forward $71 $-1 #
face $-1 $182 $183 $43 $-1 $184 reversed single #
loop $-1 $-1 $185 $73 #
plane-surface $-1 0 -27.274502923495035 10.158995026001298 0 -1 0 0 0 -1 forward_v I I I I #
coedge $-1 $186 $187 $188 $189 reversed $74 $-1 #
face $-1 $190 $191 $44 $-1 $192 reversed single #
loop $-1 $-1 $193 $76 #
plane-surface $-1 0 0 -13.291851110129992 0 0 1 1 0 0 forward_v I I I I #
coedge $-1 $194 $195 $196 $197 forward $77 $-1 #
face $-1 $198 $199 $45 $-1 $200 reversed single #
loop $-1 $-1 $201 $79 #
plane-surface $-1 -19.604966590254982 -17.089793731270586 86.592679101208006 0.73135370988377701 0 0.68199835119979291 0.68199835119979291 0 -0.73135370988377701 forward_v I I I I #
coedge $-1 $202 $203 $204 $205 reversed $80 $-1 #
face $-1 $-1 $206 $46 $-1 $207 forward single #
loop $-1 $208 $209 $82 #
cone-surface $-1 46.433973552414535 -17.089793731270586 6.0092977286907168 -0.73135370988377701 0 -0.68199835119979291 0.51149876339984468 0 -0.54851528241283276 1 I I -0.70710678118654757 0.70710678118654757 0.75 forward I I I I #
loop $-1 $-1 $210 $60 #
coedge $-1 $132 $132 $211 $212 reversed $83 $-1 #
face $-1 $213 $214 $47 $-1 $215 reversed single #
loop $-1 $-1 $216 $85 #
plane-surface $-1 -19.604966590254982 -3.6615703898207599 86.592679101208006 0.73135370988377701 0 0.68199835119979291 0.68199835119979291 0 -0.73135370988377701 forward_v I I I I #
coedge $-1 $217 $218 $219 $220 reversed $86 $-1 #
face $-1 $-1 $221 $48 $-1 $222 forward single #
loop $-1 $223 $224 $88 #
cone-surface $-1 46.433973552414535 -3.6615703898207599 6.0092977286907168 -0.73135370988377701 0 -0.68199835119979291 0.51149876339984468 0 -0.54851528241283276 1 I I -0.70710678118654757 0.70710678118654757 0.75 forward I I I I #
loop $-1 $-1 $225 $62 #
coedge $-1 $141 $141 $226 $227 reversed $89 $-1 #
face $-1 $228 $229 $49 $-1 $230 reversed single #
loop $-1 $-1 $231 $91 #
plane-surface $-1 -19.604966590254982 9.7666529516290694 86.592679101208006 0.73135370988377701 0 0.68199835119979291 0.68199835119979291 0 -0.73135370988377701 forward_v I I I I #
coedge $-1 $232 $233 $234 $235 reversed $92 $-1 #
face $-1 $-1 $236 $50 $-1 $237 forward single #
loop $-1 $238 $239 $94 #
cone-surface $-1 46.433973552414535 9.7666529516290694 6.0092977286907168 -0.73135370988377701 0 -0.68199835119979291 0.51149876339984468 0 -0.54851528241283276 1 I I -0.70710678118654757 0.70710678118654757 0.75 forward I I I I #
loop $-1 $-1 $240 $64 #
coedge $-1 $150 $150 $241 $242 reversed $95 $-1 #
face $-1 $243 $244 $51 $-1 $245 reversed single #
loop $-1 $-1 $246 $97 #
plane-surface $-1 -19.604966590254982 23.194876293078899 86.592679101208006 0.73135370988377701 0 0.68199835119979291 0.68199835119979291 0 -0.73135370988377701 forward_v I I I I #
coedge $-1 $247 $248 $249 $250 reversed $98 $-1 #
face $-1 $-1 $251 $52 $-1 $252 forward single #
loop $-1 $253 $254 $100 #
cone-surface $-1 46.433973552414535 23.194876293078899 6.0092977286907168 -0.73135370988377701 0 -0.68199835119979291 0.51149876339984468 0 -0.54851528241283276 1 I I -0.70710678118654757 0.70710678118654757 0.75 forward I I I I #
loop $-1 $-1 $255 $66 #
coedge $-1 $159 $159 $256 $257 reversed $101 $-1 #
face $-1 $258 $259 $53 $-1 $260 reversed single #
loop $-1 $-1 $261 $103 #
plane-surface $-1 -53.860286263618875 9.8486263435378589 8.2420870076882551 -0.82903758062907751 0 0.55919289150049634 0.55919289150049634 0 0.82903758062907751 forward_v I I I I #
coedge $-1 $262 $263 $264 $265 reversed $104 $-1 #
face $-1 $-1 $266 $54 $-1 $267 forward single #
loop $-1 $268 $269 $106 #
cone-surface $-1 -48.888735963612675 7.3574838320552232 8.5623408020639484 0.82903758062907751 0 -0.55919289150049634 0.27959644575024817 0 0.41451879031453875 1 I I -0.70710678118654746 0.70710678118654746 0.5 forward I I I I #
loop $-1 $-1 $270 $68 #
coedge $-1 $168 $168 $271 $272 reversed $107 $-1 #
face $-1 $-1 $273 $55 $-1 $274 forward single #
loop $-1 $275 $276 $109 #
cone-surface $-1 -48.888735963612675 12.339768855020502 8.5623408020639484 0.82903758062907751 0 -0.55919289150049634 0.27959644575024817 0 0.41451879031453875 1 I I -0.70710678118654746 0.70710678118654746 0.5 forward I I I I #
loop $-1 $-1 $277 $69 #
coedge $-1 $173 $173 $278 $279 reversed $110 $-1 #
face $-1 $280 $281 $42 $-1 $282 reversed single #
loop $-1 $-1 $283 $112 #
plane-surface $-1 0 -37.243598136309402 0 0 1 0 0 0 1 forward_v I I I I #
coedge $-1 $284 $285 $286 $287 forward $113 $-1 #
coedge $-1 $288 $115 $289 $290 forward $71 $-1 #
coedge $-1 $115 $288 $291 $292 forward $71 $-1 #
coedge $-1 $293 $294 $115 $181 reversed $295 $-1 #
edge $-1 $296 -37.243598136309402 $297 37.243598136309402 $180 $298 forward 7 unknown #
face $-1 $299 $300 $43 $-1 $301 reversed single #
loop $-1 $-1 $302 $116 #
plane-surface $-1 -53.860286263618882 0 0 1 0 0 0 0 -1 forward_v I I I I #
coedge $-1 $303 $304 $305 $306 reversed $117 $-1 #
coedge $-1 $307 $119 $308 $309 reversed $74 $-1 #
coedge $-1 $119 $307 $303 $310 forward $74 $-1 #
coedge $-1 $305 $311 $119 $189 forward $312 $-1 #
edge $-1 $313 -21.114072871358292 $314 -11.144977658543926 $188 $315 forward 7 unknown #
face $-1 $316 $317 $44 $-1 $318 reversed single #
loop $-1 $-1 $319 $120 #
plane-surface $-1 -30.276584043358898 42.646201983311968 0 1 0 0 0 0 -1 forward_v I I I I #
coedge $-1 $320 $321 $195 $322 forward $121 $-1 #
coedge $-1 $323 $123 $324 $325 reversed $77 $-1 #
coedge $-1 $123 $323 $193 $322 reversed $77 $-1 #
coedge $-1 $326 $327 $123 $197 reversed $328 $-1 #
edge $-1 $329 -13.291851110129992 $330 13.291851110129992 $196 $331 forward 7 unknown #
face $-1 $332 $333 $45 $-1 $334 forward single #
loop $-1 $-1 $335 $124 #
plane-surface $-1 59.176873758344833 -20.333307880495962 160.05793195508187 0 1 0 0.73135370988377701 0 0.68199835119979291 forward_v I I I I #
coedge $-1 $336 $337 $338 $339 reversed $125 $-1 #
coedge $-1 $203 $127 $340 $341 reversed $80 $-1 #
coedge $-1 $127 $202 $336 $342 reversed $80 $-1 #
coedge $-1 $338 $343 $127 $205 forward $333 $-1 #
edge $-1 $344 -24.271849384446465 $345 -19.160722797928454 $204 $346 forward 7 unknown #
loop $-1 $-1 $211 $128 #
plane-surface $-1 -19.604966590254982 -17.089793731270586 86.592679101208006 0.73135370988377701 0 0.68199835119979291 0.68199835119979291 0 -0.73135370988377701 forward_v I I I I #
loop $-1 $-1 $347 $82 #
coedge $-1 $209 $209 $210 $348 reversed $129 $-1 #
coedge $-1 $210 $210 $209 $348 forward $131 $-1 #
coedge $-1 $211 $211 $132 $212 forward $206 $-1 #
edge $-1 $349 0 $349 6.2831853071796004 $211 $350 forward 7 unknown #
face $-1 $351 $352 $47 $-1 $353 reversed single #
loop $-1 $-1 $354 $133 #
plane-surface $-1 59.176873758344833 -6.9050845390461362 160.05793195508187 0 1 0 0.73135370988377701 0 0.68199835119979291 forward_v I I I I #
coedge $-1 $355 $356 $357 $358 reversed $134 $-1 #
coedge $-1 $218 $136 $359 $360 reversed $86 $-1 #
coedge $-1 $136 $217 $355 $361 reversed $86 $-1 #
coedge $-1 $357 $362 $136 $220 forward $363 $-1 #
edge $-1 $364 -24.271849384446465 $365 -19.160722797928454 $219 $366 forward 7 unknown #
loop $-1 $-1 $226 $137 #
plane-surface $-1 -19.604966590254982 -3.6615703898207599 86.592679101208006 0.73135370988377701 0 0.68199835119979291 0.68199835119979291 0 -0.73135370988377701 forward_v I I I I #
loop $-1 $-1 $367 $88 #
coedge $-1 $224 $224 $225 $368 reversed $138 $-1 #
coedge $-1 $225 $225 $224 $368 forward $140 $-1 #
coedge $-1 $226 $226 $141 $227 forward $221 $-1 #
edge $-1 $369 0 $369 6.2831853071796004 $226 $370 forward 7 unknown #
face $-1 $371 $372 $49 $-1 $373 reversed single #
loop $-1 $-1 $374 $142 #
plane-surface $-1 59.176873758344833 6.5231388024036931 160.05793195508187 0 1 0 0.73135370988377701 0 0.68199835119979291 forward_v I I I I #
coedge $-1 $375 $376 $377 $378 reversed $143 $-1 #
coedge $-1 $233 $145 $379 $380 reversed $92 $-1 #
coedge $-1 $145 $232 $375 $381 reversed $92 $-1 #
coedge $-1 $377 $382 $145 $235 forward $383 $-1 #
edge $-1 $384 -24.271849384446465 $385 -19.160722797928454 $234 $386 forward 7 unknown #
loop $-1 $-1 $241 $146 #
plane-surface $-1 -19.604966590254982 9.7666529516290694 86.592679101208006 0.73135370988377701 0 0.68199835119979291 0.68199835119979291 0 -0.73135370988377701 forward_v I I I I #
loop $-1 $-1 $387 $94 #
coedge $-1 $239 $239 $240 $388 reversed $147 $-1 #
coedge $-1 $240 $240 $239 $388 forward $149 $-1 #
coedge $-1 $241 $241 $150 $242 forward $236 $-1 #
edge $-1 $389 0 $389 6.2831853071796004 $241 $390 forward 7 unknown #
face $-1 $391 $392 $51 $-1 $393 reversed single #
loop $-1 $-1 $394 $151 #
plane-surface $-1 59.176873758344833 19.951362143853522 160.05793195508187 0 1 0 0.73135370988377701 0 0.68199835119979291 forward_v I I I I #
coedge $-1 $395 $396 $397 $398 reversed $152 $-1 #
coedge $-1 $248 $154 $399 $400 reversed $98 $-1 #
coedge $-1 $154 $247 $395 $401 reversed $98 $-1 #
coedge $-1 $397 $402 $154 $250 forward $403 $-1 #
edge $-1 $404 -24.271849384446465 $405 -19.160722797928454 $249 $406 forward 7 unknown #
loop $-1 $-1 $256 $155 #
plane-surface $-1 -19.604966590254982 23.194876293078899 86.592679101208006 0.73135370988377701 0 0.68199835119979291 0.68199835119979291 0 -0.73135370988377701 forward_v I I I I #
loop $-1 $-1 $407 $100 #
coedge $-1 $254 $254 $255 $408 reversed $156 $-1 #
coedge $-1 $255 $255 $254 $408 forward $158 $-1 #
coedge $-1 $256 $256 $159 $257 forward $251 $-1 #
edge $-1 $409 0 $409 6.2831853071796004 $256 $410 forward 7 unknown #
face $-1 $411 $412 $53 $-1 $413 reversed single #
loop $-1 $-1 $414 $160 #
plane-surface $-1 -143.16468909557915 15.661292203664019 68.478665433283268 0 -1 0 0.82903758062907751 0 -0.55919289150049634 forward_v I I I I #
coedge $-1 $415 $416 $417 $418 reversed $161 $-1 #
coedge $-1 $263 $163 $419 $420 reversed $104 $-1 #
coedge $-1 $163 $262 $415 $421 reversed $104 $-1 #
coedge $-1 $417 $422 $163 $265 forward $423 $-1 #
edge $-1 $424 17.722058284170693 $425 21.128167073228369 $264 $426 forward 7 unknown #
loop $-1 $-1 $271 $164 #
plane-surface $-1 -53.860286263618875 9.8486263435378589 8.2420870076882551 -0.82903758062907751 0 0.55919289150049634 0.55919289150049634 0 0.82903758062907751 forward_v I I I I #
loop $-1 $-1 $427 $106 #
coedge $-1 $269 $269 $270 $428 reversed $165 $-1 #
coedge $-1 $270 $270 $269 $428 forward $167 $-1 #
coedge $-1 $271 $271 $168 $272 forward $266 $-1 #
edge $-1 $429 0 $429 6.2831853071796004 $271 $430 forward 7 unknown #
loop $-1 $-1 $278 $169 #
plane-surface $-1 -53.860286263618875 9.8486263435378589 8.2420870076882551 -0.82903758062907751 0 0.55919289150049634 0.55919289150049634 0 0.82903758062907751 forward_v I I I I #
loop $-1 $-1 $431 $109 #
coedge $-1 $276 $276 $277 $432 reversed $170 $-1 #
coedge $-1 $277 $277 $276 $432 forward $172 $-1 #
coedge $-1 $278 $278 $173 $279 forward $273 $-1 #
edge $-1 $433 0 $433 6.2831853071796004 $278 $434 forward 7 unknown #
face $-1 $435 $436 $42 $-1 $437 reversed single #
loop $-1 $-1 $438 $174 #
plane-surface $-1 -53.860286263618882 0 0 1 0 0 0 0 -1 forward_v I I I I #
coedge $-1 $439 $291 $440 $441 forward $175 $-1 #
coedge $-1 $442 $177 $439 $443 forward $113 $-1 #
coedge $-1 $177 $442 $444 $445 forward $113 $-1 #
coedge $-1 $294 $293 $177 $287 reversed $295 $-1 #
edge $-1 $446 -37.243598136309402 $447 37.243598136309402 $286 $448 forward 7 unknown #
coedge $-1 $179 $178 $449 $450 forward $71 $-1 #
coedge $-1 $451 $452 $178 $290 reversed $436 $-1 #
edge $-1 $297 -53.860286263618882 $453 53.860286263618882 $289 $454 forward 7 unknown #
coedge $-1 $283 $455 $179 $292 reversed $175 $-1 #
edge $-1 $456 -53.860286263618882 $296 53.860286263618882 $291 $457 forward 7 unknown #
coedge $-1 $286 $180 $455 $458 forward $295 $-1 #
coedge $-1 $180 $286 $451 $459 reversed $295 $-1 #
loop $-1 $-1 $293 $435 #
vertex $-1 $181 $460 #
vertex $-1 $181 $461 #
straight-curve $-1 53.860286263618882 0 13.291851110129992 0 1 0 I I #
face $-1 $462 $463 $43 $-1 $464 forward single #
loop $-1 $-1 $308 $182 #
plane-surface $-1 0 -37.243598136309402 0 0 1 0 0 0 1 forward_v I I I I #
coedge $-1 $465 $466 $467 $468 forward $183 $-1 #
coedge $-1 $467 $185 $187 $310 reversed $117 $-1 #
coedge $-1 $185 $467 $469 $470 reversed $117 $-1 #
coedge $-1 $471 $188 $185 $306 forward $312 $-1 #
edge $-1 $314 1.9466414288719536 $472 8.2123535971293435 $305 $473 forward 7 unknown #
coedge $-1 $187 $186 $465 $474 reversed $74 $-1 #
coedge $-1 $475 $476 $186 $309 forward $300 $-1 #
edge $-1 $477 -53.860286263618882 $313 53.860286263618882 $308 $478 forward 7 unknown #
edge $-1 $479 -53.860286263618882 $314 53.860286263618882 $303 $480 forward 7 unknown #
coedge $-1 $188 $471 $475 $481 forward $312 $-1 #
loop $-1 $-1 $305 $462 #
vertex $-1 $309 $482 #
vertex $-1 $189 $483 #
straight-curve $-1 53.860286263618882 -16.129525264951109 7.0261389418726026 0 1 0 I I #
face $-1 $484 $328 $44 $-1 $485 reversed single #
loop $-1 $-1 $486 $190 #
plane-surface $-1 -28.776584043358898 48.048805830314535 0 0 -1 0 0 0 -1 forward_v I I I I #
coedge $-1 $487 $488 $489 $490 forward $191 $-1 #
coedge $-1 $491 $193 $487 $492 forward $121 $-1 #
coedge $-1 $193 $491 $326 $493 forward $121 $-1 #
edge $-1 $329 27.276584043358898 $494 30.276584043358898 $193 $495 forward 7 unknown #
coedge $-1 $195 $194 $496 $497 forward $77 $-1 #
coedge $-1 $498 $499 $194 $325 forward $500 $-1 #
edge $-1 $501 -30.276584043358898 $330 -27.276584043358898 $324 $502 forward 7 unknown #
coedge $-1 $503 $196 $321 $493 reversed $328 $-1 #
coedge $-1 $196 $503 $498 $504 reversed $328 $-1 #
loop $-1 $-1 $196 $316 #
vertex $-1 $322 $505 #
vertex $-1 $504 $506 #
straight-curve $-1 -27.276584043358898 37.243598136309402 0 0 0 1 I I #
face $-1 $-1 $507 $45 $-1 $508 reversed single #
loop $-1 $-1 $204 $198 #
plane-surface $-1 0 0 13.291851110129992 0 0 1 1 0 0 forward_v I I I I #
coedge $-1 $509 $510 $511 $512 reversed $199 $-1 #
coedge $-1 $513 $201 $203 $342 forward $125 $-1 #
coedge $-1 $201 $513 $509 $514 forward $125 $-1 #
coedge $-1 $511 $204 $201 $339 forward $333 $-1 #
edge $-1 $345 5.3013827164099165 $515 11.788411014860669 $338 $516 forward 7 unknown #
coedge $-1 $517 $518 $202 $341 forward $507 $-1 #
edge $-1 $519 -72.218127224932744 $344 -66.737114867410938 $340 $520 forward 7 unknown #
edge $-1 $345 100.22623390086665 $519 107.72057252723776 $203 $521 forward 7 unknown #
coedge $-1 $204 $511 $517 $522 forward $333 $-1 #
vertex $-1 $205 $523 #
vertex $-1 $205 $524 #
straight-curve $-1 29.588436879172416 -13.846279582045209 13.291851110129997 -1 0 0 I I #
coedge $-1 $347 $347 $-1 $525 reversed $208 $-1 #
edge $-1 $526 0 $526 6.2831853071796004 $209 $527 forward 7 unknown #
vertex $-1 $212 $528 #
ellipse-curve $-1 51.304722970359869 -17.089793731270586 10.551344931369098 0.73135370988377701 0 0.68199835119979291 1.0229975267996894 0 -1.0970305648256655 1 I I #
face $-1 $-1 $363 $47 $-1 $529 forward single #
loop $-1 $-1 $530 $213 #
plane-surface $-1 53.860286263618882 0 0 -1 0 0 0 0 1 forward_v I I I I #
coedge $-1 $531 $532 $533 $534 reversed $214 $-1 #
coedge $-1 $535 $216 $218 $361 forward $134 $-1 #
coedge $-1 $216 $535 $531 $536 forward $134 $-1 #
coedge $-1 $533 $219 $216 $358 forward $363 $-1 #
edge $-1 $365 -1.4127289543149963 $537 5.0742993441357562 $357 $538 forward 7 unknown #
coedge $-1 $539 $540 $217 $360 forward $352 $-1 #
edge $-1 $541 -72.218127224932744 $364 -66.737114867410938 $359 $542 forward 7 unknown #
edge $-1 $365 100.22623390086665 $541 107.72057252723776 $218 $543 forward 7 unknown #
coedge $-1 $219 $533 $539 $544 forward $363 $-1 #
loop $-1 $-1 $533 $351 #
vertex $-1 $360 $545 #
vertex $-1 $220 $546 #
straight-curve $-1 29.588436879172416 -0.4180562405953836 13.291851110129997 -1 0 0 I I #
coedge $-1 $367 $367 $-1 $547 reversed $223 $-1 #
edge $-1 $548 0 $548 6.2831853071796004 $224 $549 forward 7 unknown #
vertex $-1 $227 $550 #
ellipse-curve $-1 51.304722970359869 -3.6615703898207599 10.551344931369098 0.73135370988377701 0 0.68199835119979291 1.0229975267996894 0 -1.0970305648256655 1 I I #
face $-1 $-1 $383 $49 $-1 $551 forward single #
loop $-1 $-1 $552 $228 #
plane-surface $-1 53.860286263618882 0 0 -1 0 0 0 0 1 forward_v I I I I #
coedge $-1 $553 $554 $555 $556 reversed $229 $-1 #
coedge $-1 $557 $231 $233 $381 forward $143 $-1 #
coedge $-1 $231 $557 $553 $558 forward $143 $-1 #
coedge $-1 $555 $234 $231 $378 forward $383 $-1 #
edge $-1 $385 -8.126840625039911 $559 -1.6398123265891584 $377 $560 forward 7 unknown #
coedge $-1 $561 $562 $232 $380 forward $372 $-1 #
edge $-1 $563 -72.218127224932744 $384 -66.737114867410938 $379 $564 forward 7 unknown #
edge $-1 $385 100.22623390086665 $563 107.72057252723776 $233 $565 forward 7 unknown #
coedge $-1 $234 $555 $561 $566 forward $383 $-1 #
loop $-1 $-1 $555 $371 #
vertex $-1 $380 $567 #
vertex $-1 $235 $568 #
straight-curve $-1 29.588436879172416 13.010167100854446 13.291851110129997 -1 0 0 I I #
coedge $-1 $387 $387 $-1 $569 reversed $238 $-1 #
edge $-1 $570 0 $570 6.2831853071796004 $239 $571 forward 7 unknown #
vertex $-1 $242 $572 #
ellipse-curve $-1 51.304722970359869 9.7666529516290694 10.551344931369098 0.73135370988377701 0 0.68199835119979291 1.0229975267996894 0 -1.0970305648256655 1 I I #
face $-1 $-1 $403 $51 $-1 $573 forward single #
loop $-1 $-1 $574 $243 #
plane-surface $-1 53.860286263618882 0 0 -1 0 0 0 0 1 forward_v I I I I #
coedge $-1 $575 $576 $577 $578 reversed $244 $-1 #
coedge $-1 $579 $246 $248 $401 forward $152 $-1 #
coedge $-1 $246 $579 $575 $580 forward $152 $-1 #
coedge $-1 $577 $249 $246 $398 forward $403 $-1 #
edge $-1 $405 -14.840952295764826 $581 -8.3539239973140731 $397 $582 forward 7 unknown #
coedge $-1 $583 $584 $247 $400 forward $392 $-1 #
edge $-1 $585 -72.218127224932744 $404 -66.737114867410938 $399 $586 forward 7 unknown #
edge $-1 $405 100.22623390086665 $585 107.72057252723776 $248 $587 forward 7 unknown #
coedge $-1 $249 $577 $583 $588 forward $403 $-1 #
loop $-1 $-1 $577 $391 #
vertex $-1 $400 $589 #
vertex $-1 $250 $590 #
straight-curve $-1 29.588436879172416 26.438390442304275 13.291851110129997 -1 0 0 I I #
coedge $-1 $407 $407 $-1 $591 reversed $253 $-1 #
edge $-1 $592 0 $592 6.2831853071796004 $254 $593 forward 7 unknown #
vertex $-1 $257 $594 #
ellipse-curve $-1 51.304722970359869 23.194876293078899 10.551344931369098 0.73135370988377701 0 0.68199835119979291 1.0229975267996894 0 -1.0970305648256655 1 I I #
face $-1 $-1 $423 $53 $-1 $595 forward single #
loop $-1 $-1 $596 $258 #
plane-surface $-1 -53.860286263618882 0 0 1 0 0 0 0 -1 forward_v I I I I #
coedge $-1 $597 $598 $599 $600 reversed $259 $-1 #
coedge $-1 $601 $261 $263 $421 forward $161 $-1 #
coedge $-1 $261 $601 $597 $602 forward $161 $-1 #
coedge $-1 $599 $264 $261 $418 forward $423 $-1 #
edge $-1 $425 -0.88835268835723014 $603 10.736979031895089 $417 $604 forward 7 unknown #
coedge $-1 $605 $606 $262 $420 forward $412 $-1 #
edge $-1 $607 -25.99724570895339 $424 -20.947481606511644 $419 $608 forward 7 unknown #
edge $-1 $425 -6.0911160367542747 $607 1.2809303928265426e-014 $263 $609 forward 7 unknown #
coedge $-1 $264 $599 $605 $610 forward $423 $-1 #
loop $-1 $-1 $599 $411 #
vertex $-1 $420 $611 #
vertex $-1 $265 $612 #
straight-curve $-1 -71.582344547789575 4.0359604834116993 13.29185111012999 1 0 0 I I #
coedge $-1 $427 $427 $-1 $613 reversed $268 $-1 #
edge $-1 $614 0 $614 6.2831853071796004 $269 $615 forward 7 unknown #
vertex $-1 $272 $616 #
ellipse-curve $-1 -52.15723186909004 7.3574838320552232 10.766969058909121 -0.82903758062907751 0 0.55919289150049634 0.55919289150049634 0 0.82903758062907751 1 I I #
coedge $-1 $431 $431 $-1 $617 reversed $275 $-1 #
edge $-1 $618 0 $618 6.2831853071796004 $276 $619 forward 7 unknown #
vertex $-1 $279 $620 #
ellipse-curve $-1 -52.15723186909004 12.339768855020502 10.766969058909121 -0.82903758062907751 0 0.55919289150049634 0.55919289150049634 0 0.82903758062907751 1 I I #
face $-1 $-1 $295 $42 $-1 $621 reversed single #
loop $-1 $-1 $451 $280 #
plane-surface $-1 0 37.243598136309402 0 0 -1 0 0 0 -1 forward_v I I I I #
coedge $-1 $622 $449 $452 $623 forward $281 $-1 #
coedge $-1 $455 $283 $284 $443 reversed $175 $-1 #
coedge $-1 $449 $622 $283 $441 reversed $281 $-1 #
edge $-1 $456 -13.291851110129992 $624 13.291851110129992 $440 $625 forward 7 unknown #
coedge $-1 $285 $284 $622 $626 forward $113 $-1 #
edge $-1 $447 -53.860286263618882 $624 53.860286263618882 $439 $627 forward 7 unknown #
coedge $-1 $452 $451 $285 $445 reversed $436 $-1 #
edge $-1 $628 -53.860286263618882 $446 53.860286263618882 $444 $629 forward 7 unknown #
vertex $-1 $287 $630 #
vertex $-1 $458 $631 #
straight-curve $-1 53.860286263618882 0 -13.291851110129992 0 -1 0 I I #
coedge $-1 $438 $440 $288 $450 reversed $281 $-1 #
edge $-1 $453 -37.243598136309402 $456 37.243598136309402 $449 $632 forward 7 unknown #
coedge $-1 $444 $289 $294 $459 forward $436 $-1 #
coedge $-1 $289 $444 $438 $623 reversed $436 $-1 #
vertex $-1 $290 $633 #
straight-curve $-1 0 37.243598136309402 13.291851110129992 -1 0 0 I I #
coedge $-1 $291 $439 $293 $458 reversed $175 $-1 #
vertex $-1 $450 $634 #
straight-curve $-1 0 -37.243598136309402 13.291851110129992 1 0 0 I I #
edge $-1 $296 -13.291851110129992 $447 13.291851110129992 $293 $635 forward 7 unknown #
edge $-1 $297 -13.291851110129992 $446 13.291851110129992 $294 $636 forward 7 unknown #
point $-1 53.860286263618882 -37.243598136309402 13.291851110129992 #
point $-1 53.860286263618882 37.243598136309402 13.291851110129992 #
face $-1 $-1 $312 $43 $-1 $637 reversed single #
loop $-1 $-1 $469 $299 #
plane-surface $-1 0 0 13.291851110129992 0 0 1 1 0 0 forward_v I I I I #
coedge $-1 $638 $302 $307 $474 forward $183 $-1 #
coedge $-1 $302 $638 $639 $640 reversed $183 $-1 #
coedge $-1 $304 $303 $302 $468 reversed $117 $-1 #
edge $-1 $641 -8.2123535971293435 $479 -1.9466414288719536 $302 $642 forward 7 unknown #
coedge $-1 $639 $643 $304 $470 forward $463 $-1 #
edge $-1 $472 -53.860286263618882 $641 53.860286263618882 $469 $644 forward 7 unknown #
coedge $-1 $311 $305 $643 $645 reversed $312 $-1 #
vertex $-1 $306 $646 #
straight-curve $-1 53.860286263618882 -27.274502923495035 5.079497513000649 0 0 1 I I #
edge $-1 $479 11.144977658543926 $477 21.114072871358292 $465 $647 forward 7 unknown #
coedge $-1 $648 $308 $311 $481 reversed $300 $-1 #
coedge $-1 $308 $648 $638 $649 forward $300 $-1 #
vertex $-1 $309 $650 #
straight-curve $-1 0 -37.243598136309402 7.0261389418726026 1 0 0 I I #
vertex $-1 $474 $651 #
straight-curve $-1 0 -27.274502923495035 7.0261389418726026 1 0 0 I I #
edge $-1 $652 -13.291851110129992 $313 -7.0261389418726026 $311 $653 forward 7 unknown #
point $-1 53.860286263618882 -37.243598136309402 7.0261389418726026 #
point $-1 53.860286263618882 -27.274502923495035 7.0261389418726026 #
face $-1 $-1 $500 $44 $-1 $654 forward single #
plane-surface $-1 -27.276584043358898 42.646201983311968 0 -1 0 0 0 0 1 forward_v I I I I #
coedge $-1 $655 $656 $503 $657 forward $317 $-1 #
coedge $-1 $496 $319 $320 $492 reversed $191 $-1 #
coedge $-1 $319 $496 $499 $658 reversed $191 $-1 #
coedge $-1 $656 $655 $319 $490 reversed $317 $-1 #
edge $-1 $659 -13.291851110129992 $660 13.291851110129992 $489 $661 forward 7 unknown #
coedge $-1 $321 $320 $655 $662 forward $121 $-1 #
edge $-1 $494 -5.4026038470025668 $660 5.4026038470025668 $487 $663 forward 7 unknown #
edge $-1 $664 -5.4026038470025668 $329 5.4026038470025668 $326 $665 forward 7 unknown #
vertex $-1 $492 $666 #
straight-curve $-1 0 37.243598136309402 -13.291851110129992 -1 0 0 I I #
coedge $-1 $488 $487 $323 $497 reversed $191 $-1 #
edge $-1 $501 -13.291851110129992 $494 13.291851110129992 $496 $667 forward 7 unknown #
coedge $-1 $668 $324 $327 $504 forward $500 $-1 #
coedge $-1 $324 $668 $488 $658 forward $500 $-1 #
loop $-1 $-1 $324 $484 #
vertex $-1 $325 $669 #
straight-curve $-1 0 37.243598136309402 13.291851110129992 1 0 0 I I #
coedge $-1 $327 $326 $486 $657 reversed $328 $-1 #
edge $-1 $330 -5.4026038470025668 $670 5.4026038470025668 $327 $671 forward 7 unknown #
point $-1 -27.276584043358898 37.243598136309402 -13.291851110129992 #
point $-1 -27.276584043358898 37.243598136309402 13.291851110129992 #
loop $-1 $-1 $340 $332 #
plane-surface $-1 53.860286263618882 0 0 -1 0 0 0 0 1 forward_v I I I I #
coedge $-1 $510 $335 $337 $514 reversed $199 $-1 #
coedge $-1 $335 $509 $672 $673 reversed $199 $-1 #
coedge $-1 $343 $338 $335 $512 forward $333 $-1 #
edge $-1 $515 19.160722797928454 $674 24.271849384446465 $511 $675 forward 7 unknown #
coedge $-1 $337 $336 $518 $676 reversed $125 $-1 #
edge $-1 $677 -107.72057252723776 $515 -100.22623390086665 $509 $678 forward 7 unknown #
vertex $-1 $339 $679 #
straight-curve $-1 48.74915967710087 -8.5448968656352928 13.291851110129983 0 -1 0 I I #
coedge $-1 $672 $340 $343 $522 reversed $507 $-1 #
coedge $-1 $340 $672 $513 $676 forward $507 $-1 #
vertex $-1 $341 $680 #
straight-curve $-1 53.860286263618882 -13.846279582045209 80.028965977540935 0 0 1 I I #
straight-curve $-1 -19.604966590254982 -13.846279582045209 86.592679101208006 0.68199835119979291 0 -0.73135370988377701 I I #
edge $-1 $674 -20.333307880495962 $344 -13.846279582045209 $517 $681 forward 7 unknown #
point $-1 53.860286263618882 -13.846279582045209 13.291851110129992 #
point $-1 48.74915967710087 -13.846279582045209 13.291851110129997 #
edge $-1 $682 1 $682 0 $347 $-1 forward 7 unknown #
vertex $-1 $348 $683 #
ellipse-curve $-1 46.982488834827365 -17.089793731270586 6.520796492090561 0.73135370988377701 0 0.68199835119979291 1.0229975267996894 0 -1.0970305648256655 1 I I #
point $-1 52.327720497159561 -17.089793731270586 9.4543143665434357 #
plane-surface $-1 0 0 13.291851110129992 0 0 1 1 0 0 forward_v I I I I #
coedge $-1 $540 $539 $532 $684 forward $352 $-1 #
coedge $-1 $532 $354 $356 $536 reversed $214 $-1 #
coedge $-1 $354 $531 $530 $684 reversed $214 $-1 #
coedge $-1 $362 $357 $354 $534 forward $363 $-1 #
edge $-1 $537 19.160722797928454 $685 24.271849384446465 $533 $686 forward 7 unknown #
coedge $-1 $356 $355 $540 $687 reversed $134 $-1 #
edge $-1 $688 -107.72057252723776 $537 -100.22623390086665 $531 $689 forward 7 unknown #
vertex $-1 $358 $690 #
straight-curve $-1 48.74915967710087 -1.8307851949103799 13.291851110129983 0 -1 0 I I #
coedge $-1 $530 $359 $362 $544 reversed $352 $-1 #
coedge $-1 $359 $530 $535 $687 forward $352 $-1 #
vertex $-1 $360 $691 #
straight-curve $-1 53.860286263618882 -0.4180562405953836 80.028965977540935 0 0 1 I I #
straight-curve $-1 -19.604966590254982 -0.4180562405953836 86.592679101208006 0.68199835119979291 0 -0.73135370988377701 I I #
edge $-1 $685 -6.9050845390461362 $364 -0.4180562405953836 $539 $692 forward 7 unknown #
point $-1 53.860286263618882 -0.4180562405953836 13.291851110129992 #
point $-1 48.74915967710087 -0.4180562405953836 13.291851110129997 #
edge $-1 $693 1 $693 0 $367 $-1 forward 7 unknown #
vertex $-1 $368 $694 #
ellipse-curve $-1 46.982488834827365 -3.6615703898207599 6.520796492090561 0.73135370988377701 0 0.68199835119979291 1.0229975267996894 0 -1.0970305648256655 1 I I #
point $-1 52.327720497159561 -3.6615703898207599 9.4543143665434357 #
plane-surface $-1 0 0 13.291851110129992 0 0 1 1 0 0 forward_v I I I I #
coedge $-1 $562 $561 $554 $695 forward $372 $-1 #
coedge $-1 $554 $374 $376 $558 reversed $229 $-1 #
coedge $-1 $374 $553 $552 $695 reversed $229 $-1 #
coedge $-1 $382 $377 $374 $556 forward $383 $-1 #
edge $-1 $559 19.160722797928454 $696 24.271849384446465 $555 $697 forward 7 unknown #
coedge $-1 $376 $375 $562 $698 reversed $143 $-1 #
edge $-1 $699 -107.72057252723776 $559 -100.22623390086665 $553 $700 forward 7 unknown #
vertex $-1 $378 $701 #
straight-curve $-1 48.74915967710087 4.8833264758145347 13.291851110129983 0 -1 0 I I #
coedge $-1 $552 $379 $382 $566 reversed $372 $-1 #
coedge $-1 $379 $552 $557 $698 forward $372 $-1 #
vertex $-1 $380 $702 #
straight-curve $-1 53.860286263618882 13.010167100854446 80.028965977540935 0 0 1 I I #
straight-curve $-1 -19.604966590254982 13.010167100854446 86.592679101208006 0.68199835119979291 0 -0.73135370988377701 I I #
edge $-1 $696 6.5231388024036931 $384 13.010167100854446 $561 $703 forward 7 unknown #
point $-1 53.860286263618882 13.010167100854446 13.291851110129992 #
point $-1 48.74915967710087 13.010167100854446 13.291851110129997 #
edge $-1 $704 1 $704 0 $387 $-1 forward 7 unknown #
vertex $-1 $388 $705 #
ellipse-curve $-1 46.982488834827365 9.7666529516290694 6.520796492090561 0.73135370988377701 0 0.68199835119979291 1.0229975267996894 0 -1.0970305648256655 1 I I #
point $-1 52.327720497159561 9.7666529516290694 9.4543143665434357 #
plane-surface $-1 0 0 13.291851110129992 0 0 1 1 0 0 forward_v I I I I #
coedge $-1 $584 $583 $576 $706 forward $392 $-1 #
coedge $-1 $576 $394 $396 $580 reversed $244 $-1 #
coedge $-1 $394 $575 $574 $706 reversed $244 $-1 #
coedge $-1 $402 $397 $394 $578 forward $403 $-1 #
edge $-1 $581 19.160722797928454 $707 24.271849384446465 $577 $708 forward 7 unknown #
coedge $-1 $396 $395 $584 $709 reversed $152 $-1 #
edge $-1 $710 -107.72057252723776 $581 -100.22623390086665 $575 $711 forward 7 unknown #
vertex $-1 $398 $712 #
straight-curve $-1 48.74915967710087 11.597438146539449 13.291851110129983 0 -1 0 I I #
coedge $-1 $574 $399 $402 $588 reversed $392 $-1 #
coedge $-1 $399 $574 $579 $709 forward $392 $-1 #
vertex $-1 $400 $713 #
straight-curve $-1 53.860286263618882 26.438390442304275 80.028965977540935 0 0 1 I I #
straight-curve $-1 -19.604966590254982 26.438390442304275 86.592679101208006 0.68199835119979291 0 -0.73135370988377701 I I #
edge $-1 $707 19.951362143853522 $404 26.438390442304275 $583 $714 forward 7 unknown #
point $-1 53.860286263618882 26.438390442304275 13.291851110129992 #
point $-1 48.74915967710087 26.438390442304275 13.291851110129997 #
edge $-1 $715 1 $715 0 $407 $-1 forward 7 unknown #
vertex $-1 $408 $716 #
ellipse-curve $-1 46.982488834827365 23.194876293078899 6.520796492090561 0.73135370988377701 0 0.68199835119979291 1.0229975267996894 0 -1.0970305648256655 1 I I #
point $-1 52.327720497159561 23.194876293078899 9.4543143665434357 #
plane-surface $-1 0 0 13.291851110129992 0 0 1 1 0 0 forward_v I I I I #
coedge $-1 $606 $605 $598 $717 forward $412 $-1 #
coedge $-1 $598 $414 $416 $602 reversed $259 $-1 #
coedge $-1 $414 $597 $596 $717 reversed $259 $-1 #
coedge $-1 $422 $417 $414 $600 forward $423 $-1 #
edge $-1 $603 -21.128167073228369 $718 -17.722058284170693 $599 $719 forward 7 unknown #
coedge $-1 $416 $415 $606 $720 reversed $161 $-1 #
edge $-1 $721 -1.2809303928265426e-014 $603 6.0911160367542747 $597 $722 forward 7 unknown #
vertex $-1 $418 $723 #
straight-curve $-1 -50.454177474561213 4.9243131717689295 13.291851110129992 0 1 0 I I #
coedge $-1 $596 $419 $422 $610 reversed $412 $-1 #
coedge $-1 $419 $596 $601 $720 forward $412 $-1 #
vertex $-1 $420 $724 #
straight-curve $-1 -53.860286263618882 4.0359604834116993 34.239332716641634 0 0 1 I I #
straight-curve $-1 -53.860286263618875 4.0359604834116993 8.2420870076882551 -0.55919289150049634 0 -0.82903758062907751 I I #
edge $-1 $718 -15.661292203664019 $424 -4.0359604834116993 $605 $725 forward 7 unknown #
point $-1 -53.860286263618882 4.0359604834116993 13.291851110129992 #
point $-1 -50.454177474561206 4.0359604834116993 13.291851110129992 #
edge $-1 $726 1 $726 0 $427 $-1 forward 7 unknown #
vertex $-1 $428 $727 #
ellipse-curve $-1 -49.303254753927213 7.3574838320552232 8.8419372478141973 -0.82903758062907751 0 0.55919289150049634 0.55919289150049634 0 0.82903758062907751 1 I I #
point $-1 -51.598038977589553 7.3574838320552232 11.596006639538201 #
edge $-1 $728 1 $728 0 $431 $-1 forward 7 unknown #
vertex $-1 $432 $729 #
ellipse-curve $-1 -49.303254753927213 12.339768855020502 8.8419372478141973 -0.82903758062907751 0 0.55919289150049634 0.55919289150049634 0 0.82903758062907751 1 I I #
point $-1 -51.598038977589553 12.339768855020502 11.596006639538201 #
plane-surface $-1 53.860286263618882 0 0 -1 0 0 0 0 1 forward_v I I I I #
coedge $-1 $440 $438 $442 $626 reversed $281 $-1 #
edge $-1 $453 -13.291851110129992 $628 13.291851110129992 $452 $730 forward 7 unknown #
vertex $-1 $626 $731 #
straight-curve $-1 -53.860286263618882 -37.243598136309402 0 0 0 -1 I I #
edge $-1 $624 -37.243598136309402 $628 37.243598136309402 $622 $732 forward 7 unknown #
straight-curve $-1 0 -37.243598136309402 -13.291851110129992 -1 0 0 I I #
vertex $-1 $445 $733 #
straight-curve $-1 0 37.243598136309402 -13.291851110129992 1 0 0 I I #
point $-1 53.860286263618882 37.243598136309402 -13.291851110129992 #
point $-1 53.860286263618882 -37.243598136309402 -13.291851110129992 #
straight-curve $-1 -53.860286263618882 0 13.291851110129992 0 -1 0 I I #
point $-1 -53.860286263618882 37.243598136309402 13.291851110129992 #
point $-1 -53.860286263618882 -37.243598136309402 13.291851110129992 #
straight-curve $-1 53.860286263618882 -37.243598136309402 0 0 0 -1 I I #
straight-curve $-1 53.860286263618882 37.243598136309402 0 0 0 -1 I I #
plane-surface $-1 53.860286263618882 0 0 -1 0 0 0 0 1 forward_v I I I I #
coedge $-1 $466 $465 $476 $649 reversed $183 $-1 #
coedge $-1 $734 $469 $466 $640 forward $463 $-1 #
edge $-1 $641 27.274502923495035 $735 37.243598136309402 $466 $736 forward 7 unknown #
vertex $-1 $640 $737 #
straight-curve $-1 -53.860286263618882 -27.274502923495035 5.079497513000649 0 0 -1 I I #
coedge $-1 $469 $734 $471 $645 forward $463 $-1 #
straight-curve $-1 0 -27.274502923495035 13.291851110129992 -1 0 0 I I #
edge $-1 $652 -37.243598136309402 $472 -27.274502923495035 $471 $738 forward 7 unknown #
point $-1 53.860286263618882 -27.274502923495035 13.291851110129993 #
straight-curve $-1 -53.860286263618882 -16.129525264951109 7.0261389418726026 0 -1 0 I I #
coedge $-1 $476 $475 $734 $739 reversed $300 $-1 #
edge $-1 $735 -13.291851110129992 $477 -7.0261389418726026 $638 $740 forward 7 unknown #
point $-1 -53.860286263618882 -37.243598136309402 7.0261389418726026 #
point $-1 -53.860286263618882 -27.274502923495035 7.0261389418726026 #
vertex $-1 $645 $741 #
straight-curve $-1 53.860286263618882 -37.243598136309402 0 0 0 -1 I I #
plane-surface $-1 0 0 13.291851110129992 0 0 1 1 0 0 forward_v I I I I #
coedge $-1 $489 $486 $491 $662 reversed $317 $-1 #
coedge $-1 $486 $489 $668 $742 reversed $317 $-1 #
edge $-1 $670 -13.291851110129992 $664 13.291851110129992 $503 $743 forward 7 unknown #
edge $-1 $659 -5.4026038470025668 $501 5.4026038470025668 $488 $744 forward 7 unknown #
vertex $-1 $742 $745 #
vertex $-1 $662 $746 #
straight-curve $-1 -30.276584043358898 48.048805830314535 0 0 0 -1 I I #
edge $-1 $660 -1.5 $664 1.5 $655 $747 forward 7 unknown #
straight-curve $-1 -30.276584043358898 42.646201983311968 -13.291851110129992 0 1 0 I I #
vertex $-1 $493 $748 #
straight-curve $-1 -27.276584043358898 42.646201983311968 -13.291851110129992 0 -1 0 I I #
point $-1 -30.276584043358898 37.243598136309402 -13.291851110129992 #
straight-curve $-1 -30.276584043358898 37.243598136309402 0 0 0 -1 I I #
coedge $-1 $499 $498 $656 $742 forward $500 $-1 #
point $-1 -30.276584043358898 37.243598136309402 13.291851110129992 #
vertex $-1 $504 $749 #
straight-curve $-1 -27.276584043358898 42.646201983311968 13.291851110129992 0 1 0 I I #
coedge $-1 $518 $517 $510 $673 forward $507 $-1 #
edge $-1 $674 66.737114867410938 $677 72.218127224932744 $672 $750 forward 7 unknown #
vertex $-1 $522 $751 #
straight-curve $-1 29.588436879172416 -20.333307880495962 13.291851110129997 1 0 0 I I #
edge $-1 $677 -11.788411014860669 $519 -5.3013827164099165 $518 $752 forward 7 unknown #
vertex $-1 $676 $753 #
straight-curve $-1 -19.604966590254982 -20.333307880495962 86.592679101208006 -0.68199835119979291 0 0.73135370988377701 I I #
point $-1 48.74915967710087 -20.333307880495962 13.291851110129997 #
point $-1 53.860286263618882 -13.846279582045209 7.8108387526081913 #
straight-curve $-1 53.860286263618882 0 13.291851110129992 0 1 0 I I #
vertex $-1 $525 $754 #
point $-1 48.005486361627057 -17.089793731270586 5.4237659272648955 #
edge $-1 $685 66.737114867410938 $688 72.218127224932744 $530 $755 forward 7 unknown #
vertex $-1 $544 $756 #
straight-curve $-1 29.588436879172416 -6.9050845390461362 13.291851110129997 1 0 0 I I #
edge $-1 $688 -5.0742993441357562 $541 1.4127289543149963 $540 $757 forward 7 unknown #
vertex $-1 $687 $758 #
straight-curve $-1 -19.604966590254982 -6.9050845390461362 86.592679101208006 -0.68199835119979291 0 0.73135370988377701 I I #
point $-1 48.74915967710087 -6.9050845390461362 13.291851110129997 #
point $-1 53.860286263618882 -0.4180562405953836 7.8108387526081913 #
straight-curve $-1 53.860286263618882 0 13.291851110129992 0 1 0 I I #
vertex $-1 $547 $759 #
point $-1 48.005486361627057 -3.6615703898207599 5.4237659272648955 #
edge $-1 $696 66.737114867410938 $699 72.218127224932744 $552 $760 forward 7 unknown #
vertex $-1 $566 $761 #
straight-curve $-1 29.588436879172416 6.5231388024036931 13.291851110129997 1 0 0 I I #
edge $-1 $699 1.6398123265891584 $563 8.126840625039911 $562 $762 forward 7 unknown #
vertex $-1 $698 $763 #
straight-curve $-1 -19.604966590254982 6.5231388024036931 86.592679101208006 -0.68199835119979291 0 0.73135370988377701 I I #
point $-1 48.74915967710087 6.5231388024036931 13.291851110129997 #
point $-1 53.860286263618882 13.010167100854446 7.8108387526081913 #
straight-curve $-1 53.860286263618882 0 13.291851110129992 0 1 0 I I #
vertex $-1 $569 $764 #
point $-1 48.005486361627057 9.7666529516290694 5.4237659272648955 #
edge $-1 $707 66.737114867410938 $710 72.218127224932744 $574 $765 forward 7 unknown #
vertex $-1 $588 $766 #
straight-curve $-1 29.588436879172416 19.951362143853522 13.291851110129997 1 0 0 I I #
edge $-1 $710 8.3539239973140731 $585 14.840952295764826 $584 $767 forward 7 unknown #
vertex $-1 $709 $768 #
straight-curve $-1 -19.604966590254982 19.951362143853522 86.592679101208006 -0.68199835119979291 0 0.73135370988377701 I I #
point $-1 48.74915967710087 19.951362143853522 13.291851110129997 #
point $-1 53.860286263618882 26.438390442304275 7.8108387526081913 #
straight-curve $-1 53.860286263618882 0 13.291851110129992 0 1 0 I I #
vertex $-1 $591 $769 #
point $-1 48.005486361627057 23.194876293078899 5.4237659272648955 #
edge $-1 $718 20.947481606511644 $721 25.99724570895339 $596 $770 forward 7 unknown #
vertex $-1 $610 $771 #
straight-curve $-1 -71.582344547789575 15.661292203664019 13.29185111012999 -1 0 0 I I #
edge $-1 $721 -10.736979031895089 $607 0.88835268835723014 $606 $772 forward 7 unknown #
vertex $-1 $720 $773 #
straight-curve $-1 -53.860286263618875 15.661292203664019 8.2420870076882551 0.55919289150049634 0 0.82903758062907751 I I #
point $-1 -50.454177474561206 15.661292203664019 13.291851110129992 #
point $-1 -53.860286263618882 4.0359604834116993 8.2420870076882444 #
straight-curve $-1 -53.860286263618882 0 13.291851110129992 0 -1 0 I I #
vertex $-1 $613 $774 #
point $-1 -48.744061862426719 7.3574838320552232 9.6709748284432742 #
vertex $-1 $617 $775 #
point $-1 -48.744061862426719 12.339768855020502 9.6709748284432742 #
straight-curve $-1 -53.860286263618882 37.243598136309402 0 0 0 -1 I I #
point $-1 -53.860286263618882 -37.243598136309402 -13.291851110129992 #
straight-curve $-1 -53.860286263618882 0 -13.291851110129992 0 1 0 I I #
point $-1 -53.860286263618882 37.243598136309402 -13.291851110129992 #
coedge $-1 $643 $639 $648 $739 forward $463 $-1 #
vertex $-1 $640 $776 #
straight-curve $-1 -53.860286263618882 0 13.291851110129992 0 -1 0 I I #
point $-1 -53.860286263618882 -27.274502923495035 13.291851110129993 #
straight-curve $-1 53.860286263618882 0 13.291851110129992 0 1 0 I I #
edge $-1 $735 -53.860286263618882 $652 53.860286263618882 $648 $777 forward 7 unknown #
straight-curve $-1 -53.860286263618882 -37.243598136309402 0 0 0 -1 I I #
point $-1 53.860286263618882 -37.243598136309402 13.291851110129992 #
edge $-1 $670 -1.5 $659 1.5 $656 $778 forward 7 unknown #
straight-curve $-1 -27.276584043358898 48.048805830314535 0 0 0 -1 I I #
straight-curve $-1 -30.276584043358898 42.646201983311968 13.291851110129992 0 -1 0 I I #
point $-1 -30.276584043358898 48.048805830314535 13.291851110129992 #
point $-1 -30.276584043358898 48.048805830314535 -13.291851110129992 #
straight-curve $-1 -28.776584043358898 48.048805830314535 -13.291851110129992 1 0 0 I I #
point $-1 -27.276584043358898 48.048805830314535 -13.291851110129992 #
point $-1 -27.276584043358898 48.048805830314535 13.291851110129992 #
straight-curve $-1 53.860286263618882 -20.333307880495962 80.028965977540935 0 0 -1 I I #
point $-1 53.860286263618882 -20.333307880495962 13.291851110129992 #
straight-curve $-1 53.860286263618882 -8.5448968656352928 7.8108387526081984 0 1 0 I I #
point $-1 53.860286263618882 -20.333307880495962 7.8108387526081913 #
point $-1 45.885458270001706 -17.089793731270586 5.4977989652908725 #
straight-curve $-1 53.860286263618882 -6.9050845390461362 80.028965977540935 0 0 -1 I I #
point $-1 53.860286263618882 -6.9050845390461362 13.291851110129992 #
straight-curve $-1 53.860286263618882 -1.8307851949103799 7.8108387526081984 0 1 0 I I #
point $-1 53.860286263618882 -6.9050845390461362 7.8108387526081913 #
point $-1 45.885458270001706 -3.6615703898207599 5.4977989652908725 #
straight-curve $-1 53.860286263618882 6.5231388024036931 80.028965977540935 0 0 -1 I I #
point $-1 53.860286263618882 6.5231388024036931 13.291851110129992 #
straight-curve $-1 53.860286263618882 4.8833264758145347 7.8108387526081984 0 1 0 I I #
point $-1 53.860286263618882 6.5231388024036931 7.8108387526081913 #
point $-1 45.885458270001706 9.7666529516290694 5.4977989652908725 #
straight-curve $-1 53.860286263618882 19.951362143853522 80.028965977540935 0 0 -1 I I #
point $-1 53.860286263618882 19.951362143853522 13.291851110129992 #
straight-curve $-1 53.860286263618882 11.597438146539449 7.8108387526081984 0 1 0 I I #
point $-1 53.860286263618882 19.951362143853522 7.8108387526081913 #
point $-1 45.885458270001706 23.194876293078899 5.4977989652908725 #
straight-curve $-1 -53.860286263618882 15.661292203664019 34.239332716641634 0 0 -1 I I #
point $-1 -53.860286263618882 15.661292203664019 13.291851110129992 #
straight-curve $-1 -53.860286263618882 4.9243131717689295 8.2420870076882338 0 -1 0 I I #
point $-1 -53.860286263618882 15.661292203664019 8.2420870076882444 #
point $-1 -48.474217173298136 7.3574838320552232 8.2827443563136995 #
point $-1 -48.474217173298136 12.339768855020502 8.2827443563136995 #
point $-1 -53.860286263618882 -37.243598136309402 13.291851110129992 #
straight-curve $-1 0 -37.243598136309402 13.291851110129992 1 0 0 I I #
straight-curve $-1 -28.776584043358898 48.048805830314535 13.291851110129992 -1 0 0 I I #
End-of-ACIS-data 