500 0 8 0           
7 Unknown 11 ACIS 5.0 NT 24 Thu Mar 25 22:39:22 1999 
-1 9.9999999999999995e-007 1e-010 
body $-1 $8 $-1 $9 #
body $-1 $10 $-1 $11 #
body $-1 $12 $-1 $13 #
body $-1 $14 $-1 $15 #
body $-1 $16 $-1 $17 #
body $-1 $18 $-1 $19 #
body $-1 $20 $-1 $21 #
body $-1 $22 $-1 $23 #
lump $-1 $-1 $24 $0 #
transform $-1 1 0 0 0 1 0 0 0 1 42.72469252601703 19.707965639911791 5.5128413178595386 1 rotate no_reflect no_shear #
lump $-1 $-1 $25 $1 #
transform $-1 1 0 0 0 1 0 0 0 1 42.72469252601703 19.707965639911791 5.5128413178595386 1 rotate no_reflect no_shear #
lump $-1 $-1 $26 $2 #
transform $-1 1 0 0 0 1 0 0 0 1 42.72469252601703 19.707965639911791 5.5128413178595386 1 rotate no_reflect no_shear #
lump $-1 $-1 $27 $3 #
transform $-1 1 0 0 0 1 0 0 0 1 42.72469252601703 19.707965639911791 5.5128413178595386 1 rotate no_reflect no_shear #
lump $-1 $-1 $28 $4 #
transform $-1 1 0 0 0 1 0 0 0 1 42.72469252601703 19.707965639911791 5.5128413178595386 1 rotate no_reflect no_shear #
lump $-1 $-1 $29 $5 #
transform $-1 1 0 0 0 1 0 0 0 1 42.72469252601703 19.707965639911791 5.5128413178595386 1 rotate no_reflect no_shear #
lump $-1 $-1 $30 $6 #
transform $-1 1 0 0 0 1 0 0 0 1 42.72469252601703 19.707965639911791 5.5128413178595386 1 rotate no_reflect no_shear #
lump $-1 $-1 $31 $7 #
transform $-1 1 0 0 0 1 0 0 0 1 42.72469252601703 19.707965639911791 5.5128413178595386 1 rotate no_reflect no_shear #
shell $-1 $-1 $-1 $32 $-1 $8 #
shell $-1 $-1 $-1 $33 $-1 $10 #
shell $-1 $-1 $-1 $34 $-1 $12 #
shell $-1 $-1 $-1 $35 $-1 $14 #
shell $-1 $-1 $-1 $36 $-1 $16 #
shell $-1 $-1 $-1 $37 $-1 $18 #
shell $-1 $-1 $-1 $38 $-1 $20 #
shell $-1 $-1 $-1 $39 $-1 $22 #
face $-1 $40 $41 $24 $-1 $42 forward single #
face $-1 $43 $44 $25 $-1 $45 forward single #
face $-1 $46 $47 $26 $-1 $48 reversed single #
face $-1 $49 $50 $27 $-1 $51 forward single #
face $-1 $52 $53 $28 $-1 $54 reversed single #
face $-1 $55 $56 $29 $-1 $57 forward single #
face $-1 $58 $59 $30 $-1 $60 reversed single #
face $-1 $61 $62 $31 $-1 $63 forward single #
face $-1 $64 $65 $24 $-1 $66 reversed single #
loop $-1 $-1 $67 $32 #
plane-surface $-1 0 0 5.5128413178595386 0 0 1 1 0 0 forward_v I I I I #
face $-1 $68 $69 $25 $-1 $70 forward single #
loop $-1 $-1 $71 $33 #
plane-surface $-1 0 -19.707965639911791 0 0 1 0 0 0 1 forward_v I I I I #
face $-1 $72 $73 $26 $-1 $74 reversed single #
loop $-1 $-1 $75 $34 #
plane-surface $-1 -110.96760644300633 -12.605442908712615 52.584094488670182 0 1 0 -0.79863551827123203 0 0.60181501223851219 forward_v I I I I #
face $-1 $76 $77 $27 $-1 $78 forward single #
loop $-1 $79 $80 $35 #
cone-surface $-1 -40.244688781756203 -8.6632192953136098 2.703334804642008 0.79863551827123203 0 -0.60181501223851219 0.60181501223851219 0 0.79863551827123203 1 I I 0 1 1 forward I I I I #
face $-1 $81 $82 $28 $-1 $83 reversed single #
loop $-1 $-1 $84 $36 #
plane-surface $-1 -110.96760644300633 5.0107908700395285 52.584094488670182 0 1 0 -0.79863551827123203 0 0.60181501223851219 forward_v I I I I #
face $-1 $85 $86 $29 $-1 $87 forward single #
loop $-1 $88 $89 $37 #
cone-surface $-1 -40.244688781756203 8.9530144834385332 2.703334804642008 0.79863551827123203 0 -0.60181501223851219 0.60181501223851219 0 0.79863551827123203 1 I I 0 1 1 forward I I I I #
face $-1 $90 $91 $30 $-1 $92 reversed single #
loop $-1 $-1 $93 $38 #
plane-surface $-1 61.628810502754156 10.972006761682607 119.53971430108264 0 1 0 0.80901700255871778 0 0.5877852410284794 forward_v I I I I #
face $-1 $94 $95 $31 $-1 $96 forward single #
loop $-1 $97 $98 $39 #
cone-surface $-1 39.537462261531005 15.339986200797199 1.9391720503000149 -0.80901700255871778 0 -0.5877852410284794 0.5877852410284794 0 -0.80901700255871778 1 I I 0 1 1 forward I I I I #
face $-1 $99 $100 $24 $-1 $101 reversed single #
loop $-1 $-1 $102 $40 #
plane-surface $-1 0 0 -5.5128413178595386 0 0 1 1 0 0 forward_v I I I I #
coedge $-1 $103 $104 $105 $106 forward $41 $-1 #
face $-1 $107 $108 $25 $-1 $109 reversed single #
loop $-1 $-1 $110 $43 #
plane-surface $-1 0 0 5.5128413178595386 0 0 1 1 0 0 forward_v I I I I #
coedge $-1 $111 $112 $113 $114 forward $44 $-1 #
face $-1 $115 $116 $26 $-1 $117 reversed single #
loop $-1 $-1 $118 $46 #
plane-surface $-1 -42.724692526017037 -8.6632192953136098 1.1593717778069603 -0.79863551827123203 0 0.60181501223851219 0.60181501223851219 0 0.79863551827123203 forward_v I I I I #
coedge $-1 $119 $120 $121 $122 reversed $47 $-1 #
face $-1 $-1 $123 $27 $-1 $124 forward single #
loop $-1 $125 $126 $49 #
cone-surface $-1 -39.005654533676235 -8.6632192953136098 1.7696555553315125 0.79863551827123203 0 -0.60181501223851219 0.3009075061192561 0 0.39931775913561601 1 I I -0.70710678118654746 0.70710678118654746 0.5 forward I I I I #
loop $-1 $-1 $127 $35 #
coedge $-1 $80 $80 $128 $129 reversed $50 $-1 #
face $-1 $130 $131 $28 $-1 $132 reversed single #
loop $-1 $-1 $133 $52 #
plane-surface $-1 -42.724692526017037 8.9530144834385332 1.1593717778069603 -0.79863551827123203 0 0.60181501223851219 0.60181501223851219 0 0.79863551827123203 forward_v I I I I #
coedge $-1 $134 $135 $136 $137 reversed $53 $-1 #
face $-1 $-1 $138 $29 $-1 $139 forward single #
loop $-1 $140 $141 $55 #
cone-surface $-1 -39.005654533676235 8.9530144834385332 1.7696555553315125 0.79863551827123203 0 -0.60181501223851219 0.3009075061192561 0 0.39931775913561601 1 I I -0.70710678118654746 0.70710678118654746 0.5 forward I I I I #
loop $-1 $-1 $142 $37 #
coedge $-1 $89 $89 $143 $144 reversed $56 $-1 #
face $-1 $145 $146 $30 $-1 $147 reversed single #
loop $-1 $-1 $148 $58 #
plane-surface $-1 -7.5011948625281448 15.339986200797199 69.313826912537451 0.80901700255871778 0 0.5877852410284794 0.5877852410284794 0 -0.80901700255871778 forward_v I I I I #
coedge $-1 $149 $150 $151 $152 reversed $59 $-1 #
face $-1 $-1 $153 $31 $-1 $154 forward single #
loop $-1 $155 $156 $61 #
cone-surface $-1 37.881603187047439 15.339986200797199 0.73612004752844573 -0.80901700255871778 0 -0.5877852410284794 0.2938926205142397 0 -0.40450850127935889 1 I I -0.70710678118654746 0.70710678118654746 0.5 forward I I I I #
loop $-1 $-1 $157 $39 #
coedge $-1 $98 $98 $158 $159 reversed $62 $-1 #
face $-1 $160 $161 $24 $-1 $162 reversed single #
loop $-1 $-1 $163 $64 #
plane-surface $-1 0 -19.707965639911791 0 0 1 0 0 0 1 forward_v I I I I #
coedge $-1 $164 $165 $166 $167 forward $65 $-1 #
coedge $-1 $168 $67 $169 $170 forward $41 $-1 #
coedge $-1 $67 $168 $171 $172 forward $41 $-1 #
coedge $-1 $173 $174 $67 $106 reversed $175 $-1 #
edge $-1 $176 -19.707965639911791 $177 19.707965639911791 $105 $178 forward 7 unknown #
face $-1 $179 $180 $25 $-1 $181 reversed single #
loop $-1 $-1 $182 $68 #
plane-surface $-1 -42.72469252601703 0 0 1 0 0 0 0 -1 forward_v I I I I #
coedge $-1 $183 $184 $185 $186 forward $69 $-1 #
coedge $-1 $185 $71 $182 $187 reversed $44 $-1 #
coedge $-1 $71 $185 $188 $189 reversed $44 $-1 #
coedge $-1 $190 $191 $71 $114 reversed $180 $-1 #
edge $-1 $192 -42.72469252601703 $193 42.72469252601703 $113 $194 forward 7 unknown #
face $-1 $195 $196 $26 $-1 $197 forward single #
loop $-1 $-1 $198 $72 #
plane-surface $-1 -110.96760644300633 -4.7209956819146051 52.584094488670182 0 -1 0 0.79863551827123203 0 -0.60181501223851219 forward_v I I I I #
coedge $-1 $199 $200 $201 $202 reversed $73 $-1 #
coedge $-1 $120 $75 $203 $204 reversed $47 $-1 #
coedge $-1 $75 $119 $199 $205 reversed $47 $-1 #
coedge $-1 $201 $206 $75 $122 forward $196 $-1 #
edge $-1 $207 12.759110695486136 $208 16.039685206119067 $121 $209 forward 7 unknown #
loop $-1 $-1 $128 $76 #
plane-surface $-1 -42.724692526017037 -8.6632192953136098 1.1593717778069603 -0.79863551827123203 0 0.60181501223851219 0.60181501223851219 0 0.79863551827123203 forward_v I I I I #
loop $-1 $-1 $210 $49 #
coedge $-1 $126 $126 $127 $211 reversed $77 $-1 #
coedge $-1 $127 $127 $126 $211 forward $79 $-1 #
coedge $-1 $128 $128 $80 $129 forward $123 $-1 #
edge $-1 $212 0 $212 6.2831853071796004 $128 $213 forward 7 unknown #
face $-1 $214 $215 $28 $-1 $216 forward single #
loop $-1 $-1 $217 $81 #
plane-surface $-1 -110.96760644300633 12.895238096837538 52.584094488670182 0 -1 0 0.79863551827123203 0 -0.60181501223851219 forward_v I I I I #
coedge $-1 $218 $219 $220 $221 reversed $82 $-1 #
coedge $-1 $135 $84 $222 $223 reversed $53 $-1 #
coedge $-1 $84 $134 $218 $224 reversed $53 $-1 #
coedge $-1 $220 $225 $84 $137 forward $215 $-1 #
edge $-1 $226 12.759110695486136 $227 16.039685206119067 $136 $228 forward 7 unknown #
loop $-1 $-1 $143 $85 #
plane-surface $-1 -42.724692526017037 8.9530144834385332 1.1593717778069603 -0.79863551827123203 0 0.60181501223851219 0.60181501223851219 0 0.79863551827123203 forward_v I I I I #
loop $-1 $-1 $229 $55 #
coedge $-1 $141 $141 $142 $230 reversed $86 $-1 #
coedge $-1 $142 $142 $141 $230 forward $88 $-1 #
coedge $-1 $143 $143 $89 $144 forward $138 $-1 #
edge $-1 $231 0 $231 6.2831853071796004 $143 $232 forward 7 unknown #
face $-1 $233 $234 $30 $-1 $235 forward single #
loop $-1 $-1 $236 $90 #
plane-surface $-1 0 19.707965639911791 0 0 -1 0 0 0 -1 forward_v I I I I #
coedge $-1 $237 $238 $239 $240 reversed $91 $-1 #
coedge $-1 $150 $93 $241 $242 reversed $59 $-1 #
coedge $-1 $93 $149 $237 $243 reversed $59 $-1 #
coedge $-1 $239 $244 $93 $152 forward $245 $-1 #
edge $-1 $246 54.25701583268178 $247 59.586035603286156 $151 $248 forward 7 unknown #
loop $-1 $-1 $158 $94 #
plane-surface $-1 -7.5011948625281448 15.339986200797199 69.313826912537451 0.80901700255871778 0 0.5877852410284794 0.5877852410284794 0 -0.80901700255871778 forward_v I I I I #
loop $-1 $-1 $249 $61 #
coedge $-1 $156 $156 $157 $250 reversed $95 $-1 #
coedge $-1 $157 $157 $156 $250 forward $97 $-1 #
coedge $-1 $158 $158 $98 $159 forward $153 $-1 #
edge $-1 $251 0 $251 6.2831853071796004 $158 $252 forward 7 unknown #
face $-1 $253 $254 $24 $-1 $255 reversed single #
loop $-1 $-1 $256 $99 #
plane-surface $-1 -42.72469252601703 0 0 1 0 0 0 0 -1 forward_v I I I I #
coedge $-1 $257 $171 $258 $259 forward $100 $-1 #
coedge $-1 $260 $102 $257 $261 forward $65 $-1 #
coedge $-1 $102 $260 $262 $263 forward $65 $-1 #
coedge $-1 $174 $173 $102 $167 reversed $175 $-1 #
edge $-1 $264 -19.707965639911791 $265 19.707965639911791 $166 $266 forward 7 unknown #
coedge $-1 $104 $103 $267 $268 forward $41 $-1 #
coedge $-1 $269 $270 $103 $170 reversed $254 $-1 #
edge $-1 $177 -42.72469252601703 $271 42.72469252601703 $169 $272 forward 7 unknown #
coedge $-1 $163 $273 $104 $172 reversed $100 $-1 #
edge $-1 $274 -42.72469252601703 $176 42.72469252601703 $171 $275 forward 7 unknown #
coedge $-1 $166 $105 $273 $276 forward $175 $-1 #
coedge $-1 $105 $166 $269 $277 reversed $175 $-1 #
loop $-1 $-1 $173 $253 #
vertex $-1 $106 $278 #
vertex $-1 $106 $279 #
straight-curve $-1 42.72469252601703 0 5.5128413178595386 0 1 0 I I #
face $-1 $280 $281 $25 $-1 $282 reversed single #
loop $-1 $-1 $190 $107 #
plane-surface $-1 0 -21.799697501071439 2.5128413178595386 0 0 1 1 0 0 forward_v I I I I #
coedge $-1 $283 $284 $111 $187 forward $108 $-1 #
coedge $-1 $285 $110 $284 $286 forward $69 $-1 #
coedge $-1 $110 $285 $287 $288 forward $69 $-1 #
coedge $-1 $112 $111 $110 $186 reversed $44 $-1 #
edge $-1 $289 -42.72469252601703 $290 42.72469252601703 $110 $291 forward 7 unknown #
edge $-1 $290 -5.5128413178595386 $193 -2.5128413178595386 $182 $292 forward 7 unknown #
coedge $-1 $287 $293 $112 $189 forward $294 $-1 #
edge $-1 $192 2.5128413178595386 $289 5.5128413178595386 $188 $295 forward 7 unknown #
coedge $-1 $296 $113 $293 $297 forward $180 $-1 #
coedge $-1 $113 $296 $283 $298 forward $180 $-1 #
vertex $-1 $189 $299 #
vertex $-1 $187 $300 #
straight-curve $-1 0 -19.707965639911791 2.5128413178595386 -1 0 0 I I #
face $-1 $-1 $301 $26 $-1 $302 reversed single #
loop $-1 $-1 $121 $115 #
plane-surface $-1 0 0 5.5128413178595386 0 0 1 1 0 0 forward_v I I I I #
coedge $-1 $303 $304 $305 $306 reversed $116 $-1 #
coedge $-1 $307 $118 $120 $205 forward $73 $-1 #
coedge $-1 $118 $307 $303 $308 forward $73 $-1 #
coedge $-1 $305 $121 $118 $202 forward $196 $-1 #
edge $-1 $208 -8.2738332610558096 $309 -0.38938603425780016 $201 $310 forward 7 unknown #
coedge $-1 $311 $312 $119 $204 forward $301 $-1 #
edge $-1 $313 -25.13267546652812 $207 -20.779205926475552 $203 $314 forward 7 unknown #
edge $-1 $208 -5.4511343916638264 $313 -1.1724126593787106e-014 $120 $315 forward 7 unknown #
coedge $-1 $121 $305 $311 $316 forward $196 $-1 #
vertex $-1 $204 $317 #
vertex $-1 $122 $318 #
straight-curve $-1 -55.483803221503166 -12.605442908712615 5.5128413178595395 1 0 0 I I #
coedge $-1 $210 $210 $-1 $319 reversed $125 $-1 #
edge $-1 $320 0 $320 6.2831853071796004 $126 $321 forward 7 unknown #
vertex $-1 $129 $322 #
ellipse-curve $-1 -41.084405270700564 -8.6632192953136098 3.3361065478332534 -0.79863551827123203 0 0.60181501223851219 0.60181501223851219 0 0.79863551827123203 1 I I #
face $-1 $-1 $323 $28 $-1 $324 reversed single #
loop $-1 $-1 $136 $130 #
plane-surface $-1 0 0 5.5128413178595386 0 0 1 1 0 0 forward_v I I I I #
coedge $-1 $325 $326 $327 $328 reversed $131 $-1 #
coedge $-1 $329 $133 $135 $224 forward $82 $-1 #
coedge $-1 $133 $329 $325 $330 forward $82 $-1 #
coedge $-1 $327 $136 $133 $221 forward $215 $-1 #
edge $-1 $227 0.53428362832026188 $331 8.4187308551182714 $220 $332 forward 7 unknown #
coedge $-1 $333 $334 $134 $223 forward $323 $-1 #
edge $-1 $335 -25.13267546652812 $226 -20.779205926475552 $222 $336 forward 7 unknown #
edge $-1 $227 -5.4511343916638264 $335 -1.1724126593787106e-014 $135 $337 forward 7 unknown #
coedge $-1 $136 $327 $333 $338 forward $215 $-1 #
vertex $-1 $137 $339 #
vertex $-1 $137 $340 #
straight-curve $-1 -55.483803221503166 5.0107908700395285 5.5128413178595395 1 0 0 I I #
coedge $-1 $229 $229 $-1 $341 reversed $140 $-1 #
edge $-1 $342 0 $342 6.2831853071796004 $141 $343 forward 7 unknown #
vertex $-1 $144 $344 #
ellipse-curve $-1 -41.084405270700564 8.9530144834385332 3.3361065478332534 -0.79863551827123203 0 0.60181501223851219 0.60181501223851219 0 0.79863551827123203 1 I I #
face $-1 $-1 $245 $30 $-1 $345 reversed single #
loop $-1 $-1 $346 $145 #
plane-surface $-1 0 0 5.5128413178595386 0 0 1 1 0 0 forward_v I I I I #
coedge $-1 $347 $348 $238 $349 forward $146 $-1 #
coedge $-1 $350 $148 $150 $243 forward $91 $-1 #
coedge $-1 $148 $350 $236 $349 reversed $91 $-1 #
coedge $-1 $351 $151 $148 $240 forward $245 $-1 #
edge $-1 $247 3.3020136612840076 $352 12.037972539513191 $239 $353 forward 7 unknown #
coedge $-1 $354 $346 $149 $242 forward $234 $-1 #
edge $-1 $355 8.0385278920763206 $246 11.910287274639952 $241 $356 forward 7 unknown #
edge $-1 $247 -85.449385052034046 $355 -78.862354428759105 $150 $357 forward 7 unknown #
coedge $-1 $151 $351 $354 $358 reversed $245 $-1 #
loop $-1 $-1 $239 $233 #
vertex $-1 $358 $359 #
vertex $-1 $152 $360 #
straight-curve $-1 42.72469252601703 10.972006761682607 59.76985715054132 0 0 -1 I I #
coedge $-1 $249 $249 $-1 $361 reversed $155 $-1 #
edge $-1 $362 0 $362 6.2831853071796004 $156 $363 forward 7 unknown #
vertex $-1 $159 $364 #
ellipse-curve $-1 40.788812834735218 15.339986200797199 2.8483314325573477 0.80901700255871778 0 0.5877852410284794 0.5877852410284794 0 -0.80901700255871778 1 I I #
face $-1 $-1 $175 $24 $-1 $365 reversed single #
loop $-1 $-1 $269 $160 #
plane-surface $-1 0 19.707965639911791 0 0 -1 0 0 0 -1 forward_v I I I I #
coedge $-1 $366 $267 $270 $367 forward $161 $-1 #
coedge $-1 $273 $163 $164 $261 reversed $100 $-1 #
coedge $-1 $267 $366 $163 $259 reversed $161 $-1 #
edge $-1 $274 -5.5128413178595386 $368 5.5128413178595386 $258 $369 forward 7 unknown #
coedge $-1 $165 $164 $366 $370 forward $65 $-1 #
edge $-1 $265 -42.72469252601703 $368 42.72469252601703 $257 $371 forward 7 unknown #
coedge $-1 $270 $269 $165 $263 reversed $254 $-1 #
edge $-1 $372 -42.72469252601703 $264 42.72469252601703 $262 $373 forward 7 unknown #
vertex $-1 $167 $374 #
vertex $-1 $276 $375 #
straight-curve $-1 42.72469252601703 0 -5.5128413178595386 0 -1 0 I I #
coedge $-1 $256 $258 $168 $268 reversed $161 $-1 #
edge $-1 $271 -19.707965639911791 $274 19.707965639911791 $267 $376 forward 7 unknown #
coedge $-1 $262 $169 $174 $277 forward $254 $-1 #
coedge $-1 $169 $262 $256 $367 reversed $254 $-1 #
vertex $-1 $170 $377 #
straight-curve $-1 0 19.707965639911791 5.5128413178595386 -1 0 0 I I #
coedge $-1 $171 $257 $173 $276 reversed $100 $-1 #
vertex $-1 $268 $378 #
straight-curve $-1 0 -19.707965639911791 5.5128413178595386 1 0 0 I I #
edge $-1 $176 -5.5128413178595386 $265 5.5128413178595386 $173 $379 forward 7 unknown #
edge $-1 $177 -5.5128413178595386 $264 5.5128413178595386 $174 $380 forward 7 unknown #
point $-1 42.72469252601703 -19.707965639911791 5.5128413178595386 #
point $-1 42.72469252601703 19.707965639911791 5.5128413178595386 #
face $-1 $-1 $294 $25 $-1 $381 reversed single #
loop $-1 $-1 $382 $179 #
plane-surface $-1 0 -23.891429362231086 4.0128413178595386 0 1 0 0 0 1 forward_v I I I I #
coedge $-1 $383 $182 $191 $298 reversed $108 $-1 #
coedge $-1 $182 $383 $183 $286 reversed $108 $-1 #
coedge $-1 $184 $183 $384 $385 forward $69 $-1 #
edge $-1 $290 19.707965639911791 $386 23.891429362231086 $284 $387 forward 7 unknown #
coedge $-1 $388 $188 $184 $288 reversed $294 $-1 #
edge $-1 $389 -23.891429362231086 $289 -19.707965639911791 $287 $390 forward 7 unknown #
vertex $-1 $189 $391 #
vertex $-1 $286 $392 #
straight-curve $-1 0 -19.707965639911791 5.5128413178595386 -1 0 0 I I #
straight-curve $-1 -42.72469252601703 -19.707965639911791 0 0 0 -1 I I #
coedge $-1 $188 $388 $190 $297 reversed $294 $-1 #
loop $-1 $-1 $188 $280 #
straight-curve $-1 42.72469252601703 -19.707965639911791 0 0 0 1 I I #
coedge $-1 $191 $190 $393 $394 forward $180 $-1 #
edge $-1 $192 -2.0917318611596478 $395 2.0917318611596478 $293 $396 forward 7 unknown #
edge $-1 $397 -2.0917318611596478 $193 2.0917318611596478 $283 $398 forward 7 unknown #
point $-1 42.72469252601703 -19.707965639911791 2.5128413178595386 #
point $-1 -42.72469252601703 -19.707965639911791 2.5128413178595386 #
loop $-1 $-1 $203 $195 #
plane-surface $-1 -42.72469252601703 0 0 1 0 0 0 0 -1 forward_v I I I I #
coedge $-1 $304 $198 $200 $308 reversed $116 $-1 #
coedge $-1 $198 $303 $399 $400 reversed $116 $-1 #
coedge $-1 $206 $201 $198 $306 forward $196 $-1 #
edge $-1 $309 -16.039685206119067 $401 -12.759110695486136 $305 $402 forward 7 unknown #
coedge $-1 $200 $199 $312 $403 reversed $73 $-1 #
edge $-1 $404 1.1724126593787106e-014 $309 5.4511343916638264 $303 $405 forward 7 unknown #
vertex $-1 $202 $406 #
straight-curve $-1 -39.444118015384092 -4.3316096476568049 5.5128413178595395 0 1 0 I I #
coedge $-1 $399 $203 $206 $316 reversed $301 $-1 #
coedge $-1 $203 $399 $307 $403 forward $301 $-1 #
vertex $-1 $204 $407 #
straight-curve $-1 -42.72469252601703 -12.605442908712615 26.292047244335091 0 0 1 I I #
straight-curve $-1 -42.724692526017037 -12.605442908712615 1.1593717778069603 -0.60181501223851219 0 -0.79863551827123203 I I #
edge $-1 $401 4.7209956819146051 $207 12.605442908712615 $311 $408 forward 7 unknown #
point $-1 -42.72469252601703 -12.605442908712615 5.5128413178595386 #
point $-1 -39.444118015384099 -12.605442908712615 5.5128413178595386 #
edge $-1 $409 1 $409 0 $210 $-1 forward 7 unknown #
vertex $-1 $211 $410 #
ellipse-curve $-1 -39.404972292811848 -8.6632192953136098 2.0705630614507688 -0.79863551827123203 0 0.60181501223851219 0.60181501223851219 0 0.79863551827123203 1 I I #
point $-1 -40.482590258462047 -8.6632192953136098 4.1347420661044794 #
loop $-1 $-1 $222 $214 #
plane-surface $-1 -42.72469252601703 0 0 1 0 0 0 0 -1 forward_v I I I I #
coedge $-1 $326 $217 $219 $330 reversed $131 $-1 #
coedge $-1 $217 $325 $411 $412 reversed $131 $-1 #
coedge $-1 $225 $220 $217 $328 forward $215 $-1 #
edge $-1 $331 -16.039685206119067 $413 -12.759110695486136 $327 $414 forward 7 unknown #
coedge $-1 $219 $218 $334 $415 reversed $82 $-1 #
edge $-1 $416 1.1724126593787106e-014 $331 5.4511343916638264 $325 $417 forward 7 unknown #
vertex $-1 $221 $418 #
straight-curve $-1 -39.444118015384092 4.4765072417192666 5.5128413178595395 0 1 0 I I #
coedge $-1 $411 $222 $225 $338 reversed $323 $-1 #
coedge $-1 $222 $411 $329 $415 forward $323 $-1 #
vertex $-1 $223 $419 #
straight-curve $-1 -42.72469252601703 5.0107908700395285 26.292047244335091 0 0 1 I I #
straight-curve $-1 -42.724692526017037 5.0107908700395285 1.1593717778069603 -0.60181501223851219 0 -0.79863551827123203 I I #
edge $-1 $413 -12.895238096837538 $226 -5.0107908700395285 $333 $420 forward 7 unknown #
point $-1 -42.72469252601703 5.0107908700395285 5.5128413178595386 #
point $-1 -39.444118015384099 5.0107908700395285 5.5128413178595386 #
edge $-1 $421 1 $421 0 $229 $-1 forward 7 unknown #
vertex $-1 $230 $422 #
ellipse-curve $-1 -39.404972292811848 8.9530144834385332 2.0705630614507688 -0.79863551827123203 0 0.60181501223851219 0.60181501223851219 0 0.79863551827123203 1 I I #
point $-1 -40.482590258462047 8.9530144834385332 4.1347420661044794 #
plane-surface $-1 42.72469252601703 0 0 -1 0 0 0 0 1 forward_v I I I I #
coedge $-1 $241 $423 $350 $424 forward $234 $-1 #
coedge $-1 $348 $236 $423 $425 reversed $146 $-1 #
coedge $-1 $236 $347 $351 $426 forward $146 $-1 #
edge $-1 $352 -55.206806994570272 $427 -48.619776371295345 $236 $428 forward 7 unknown #
coedge $-1 $238 $237 $346 $424 reversed $91 $-1 #
coedge $-1 $244 $239 $348 $426 reversed $245 $-1 #
vertex $-1 $240 $429 #
straight-curve $-1 42.72469252601703 7.6699931003985995 0.18382154725517097 0 1 0 I I #
coedge $-1 $423 $241 $244 $358 forward $234 $-1 #
vertex $-1 $242 $430 #
straight-curve $-1 30.814405251377078 10.972006761682607 5.5128413178595395 1 0 0 I I #
straight-curve $-1 -7.5011948625281448 10.972006761682607 69.313826912537451 -0.5877852410284794 0 0.80901700255871778 I I #
edge $-1 $246 10.972006761682607 $431 19.707965639911791 $244 $432 forward 7 unknown #
point $-1 42.72469252601703 10.972006761682607 5.5128413178595386 #
point $-1 42.72469252601703 10.972006761682607 0.18382154725516386 #
edge $-1 $433 1 $433 0 $249 $-1 forward 7 unknown #
vertex $-1 $250 $434 #
ellipse-curve $-1 38.286111688326798 15.339986200797199 1.0300126680426853 0.80901700255871778 0 0.5877852410284794 0.5877852410284794 0 -0.80901700255871778 1 I I #
point $-1 41.376598075763688 15.339986200797199 2.0393144299986261 #
plane-surface $-1 42.72469252601703 0 0 -1 0 0 0 0 1 forward_v I I I I #
coedge $-1 $258 $256 $260 $370 reversed $161 $-1 #
edge $-1 $271 -5.5128413178595386 $372 5.5128413178595386 $270 $435 forward 7 unknown #
vertex $-1 $370 $436 #
straight-curve $-1 -42.72469252601703 -19.707965639911791 0 0 0 -1 I I #
edge $-1 $368 -19.707965639911791 $372 19.707965639911791 $366 $437 forward 7 unknown #
straight-curve $-1 0 -19.707965639911791 -5.5128413178595386 -1 0 0 I I #
vertex $-1 $263 $438 #
straight-curve $-1 0 19.707965639911791 -5.5128413178595386 1 0 0 I I #
point $-1 42.72469252601703 19.707965639911791 -5.5128413178595386 #
point $-1 42.72469252601703 -19.707965639911791 -5.5128413178595386 #
straight-curve $-1 -42.72469252601703 0 5.5128413178595386 0 -1 0 I I #
point $-1 -42.72469252601703 19.707965639911791 5.5128413178595386 #
point $-1 -42.72469252601703 -19.707965639911791 5.5128413178595386 #
straight-curve $-1 42.72469252601703 -19.707965639911791 0 0 0 -1 I I #
straight-curve $-1 42.72469252601703 19.707965639911791 0 0 0 -1 I I #
plane-surface $-1 42.72469252601703 0 0 -1 0 0 0 0 1 forward_v I I I I #
coedge $-1 $393 $384 $383 $439 forward $281 $-1 #
coedge $-1 $284 $283 $382 $439 reversed $108 $-1 #
coedge $-1 $382 $440 $285 $385 reversed $281 $-1 #
edge $-1 $386 -42.72469252601703 $389 42.72469252601703 $384 $441 forward 7 unknown #
vertex $-1 $286 $442 #
straight-curve $-1 -42.72469252601703 0 5.5128413178595386 0 -1 0 I I #
coedge $-1 $293 $287 $440 $443 forward $294 $-1 #
vertex $-1 $288 $444 #
straight-curve $-1 42.72469252601703 0 5.5128413178595386 0 1 0 I I #
point $-1 42.72469252601703 -19.707965639911791 5.5128413178595386 #
point $-1 -42.72469252601703 -19.707965639911791 5.5128413178595386 #
coedge $-1 $440 $382 $296 $394 reversed $281 $-1 #
edge $-1 $395 -42.72469252601703 $397 42.72469252601703 $393 $445 forward 7 unknown #
vertex $-1 $443 $446 #
straight-curve $-1 42.72469252601703 -21.799697501071439 2.5128413178595386 0 -1 0 I I #
vertex $-1 $298 $447 #
straight-curve $-1 -42.72469252601703 -21.799697501071439 2.5128413178595386 0 1 0 I I #
coedge $-1 $312 $311 $304 $400 forward $301 $-1 #
edge $-1 $401 20.779205926475552 $404 25.13267546652812 $399 $448 forward 7 unknown #
vertex $-1 $316 $449 #
straight-curve $-1 -55.483803221503166 -4.7209956819146051 5.5128413178595395 -1 0 0 I I #
edge $-1 $404 0.38938603425780016 $313 8.2738332610558096 $312 $450 forward 7 unknown #
vertex $-1 $403 $451 #
straight-curve $-1 -42.724692526017037 -4.7209956819146051 1.1593717778069603 0.60181501223851219 0 0.79863551827123203 I I #
point $-1 -39.444118015384099 -4.7209956819146051 5.5128413178595386 #
point $-1 -42.72469252601703 -12.605442908712615 1.1593717778069697 #
straight-curve $-1 -42.72469252601703 0 5.5128413178595386 0 -1 0 I I #
vertex $-1 $319 $452 #
point $-1 -38.803157280573338 -8.6632192953136098 2.8691985797220005 #
coedge $-1 $334 $333 $326 $412 forward $323 $-1 #
edge $-1 $413 20.779205926475552 $416 25.13267546652812 $411 $453 forward 7 unknown #
vertex $-1 $338 $454 #
straight-curve $-1 -55.483803221503166 12.895238096837538 5.5128413178595395 -1 0 0 I I #
edge $-1 $416 -8.4187308551182714 $335 -0.53428362832026188 $334 $455 forward 7 unknown #
vertex $-1 $415 $456 #
straight-curve $-1 -42.724692526017037 12.895238096837538 1.1593717778069603 0.60181501223851219 0 0.79863551827123203 I I #
point $-1 -39.444118015384099 12.895238096837538 5.5128413178595386 #
point $-1 -42.72469252601703 5.0107908700395285 1.1593717778069697 #
straight-curve $-1 -42.72469252601703 0 5.5128413178595386 0 -1 0 I I #
vertex $-1 $341 $457 #
point $-1 -38.803157280573338 8.9530144834385332 2.8691985797220005 #
coedge $-1 $346 $354 $347 $425 forward $234 $-1 #
edge $-1 $427 -12.037972539513191 $355 -3.3020136612840076 $346 $458 forward 7 unknown #
edge $-1 $431 -42.72469252601703 $427 -38.852933143453399 $347 $459 forward 7 unknown #
edge $-1 $431 -5.5128413178595386 $352 -0.18382154725516611 $351 $460 forward 7 unknown #
vertex $-1 $424 $461 #
straight-curve $-1 10.274946170300797 19.707965639911791 44.847067062840068 -0.5877852410284794 0 0.80901700255871778 I I #
point $-1 42.72469252601703 19.707965639911791 0.18382154725516611 #
point $-1 38.852933143453399 10.972006761682607 5.5128413178595395 #
vertex $-1 $358 $462 #
straight-curve $-1 42.72469252601703 0 5.5128413178595386 0 1 0 I I #
vertex $-1 $361 $463 #
point $-1 38.873896929355276 15.339986200797199 0.22099566548396765 #
straight-curve $-1 -42.72469252601703 19.707965639911791 0 0 0 -1 I I #
point $-1 -42.72469252601703 -19.707965639911791 -5.5128413178595386 #
straight-curve $-1 -42.72469252601703 0 -5.5128413178595386 0 1 0 I I #
point $-1 -42.72469252601703 19.707965639911791 -5.5128413178595386 #
edge $-1 $386 -1.5 $397 1.5 $383 $464 forward 7 unknown #
coedge $-1 $384 $393 $388 $443 reversed $281 $-1 #
straight-curve $-1 0 -23.891429362231086 5.5128413178595386 1 0 0 I I #
point $-1 -42.72469252601703 -23.891429362231086 5.5128413178595386 #
edge $-1 $389 -1.5 $395 1.5 $388 $465 forward 7 unknown #
point $-1 42.72469252601703 -23.891429362231086 5.5128413178595386 #
straight-curve $-1 0 -23.891429362231086 2.5128413178595386 -1 0 0 I I #
point $-1 42.72469252601703 -23.891429362231086 2.5128413178595386 #
point $-1 -42.72469252601703 -23.891429362231086 2.5128413178595386 #
straight-curve $-1 -42.72469252601703 -4.7209956819146051 26.292047244335091 0 0 -1 I I #
point $-1 -42.72469252601703 -4.7209956819146051 5.5128413178595386 #
straight-curve $-1 -42.72469252601703 -4.3316096476568049 1.1593717778069759 0 -1 0 I I #
point $-1 -42.72469252601703 -4.7209956819146051 1.1593717778069697 #
point $-1 -38.606336774540623 -8.6632192953136098 1.4687480492122564 #
straight-curve $-1 -42.72469252601703 12.895238096837538 26.292047244335091 0 0 -1 I I #
point $-1 -42.72469252601703 12.895238096837538 5.5128413178595386 #
straight-curve $-1 -42.72469252601703 4.4765072417192666 1.1593717778069759 0 -1 0 I I #
point $-1 -42.72469252601703 12.895238096837538 1.1593717778069697 #
point $-1 -38.606336774540623 8.9530144834385332 1.4687480492122564 #
straight-curve $-1 38.852933143453392 7.6699931003985995 5.5128413178595466 0 -1 0 I I #
straight-curve $-1 0 19.707965639911791 5.5128413178595386 -1 0 0 I I #
straight-curve $-1 42.72469252601703 19.707965639911791 0 0 0 -1 I I #
point $-1 38.852933143453399 19.707965639911791 5.5128413178595395 #
point $-1 42.72469252601703 19.707965639911791 5.5128413178595386 #
point $-1 37.47709468576808 15.339986200797199 0.44222742701420603 #
straight-curve $-1 -42.72469252601703 -23.891429362231086 4.0128413178595386 0 0 -1 I I #
straight-curve $-1 42.72469252601703 -23.891429362231086 4.0128413178595386 0 0 -1 I I #
End-of-ACIS-data 