500 0 9 0           
7 Unknown 11 ACIS 5.0 NT 24 Thu Mar 25 21:41:46 1999 
-1 9.9999999999999995e-007 1e-010 
body $-1 $9 $-1 $10 #
body $-1 $11 $-1 $12 #
body $-1 $13 $-1 $14 #
body $-1 $15 $-1 $16 #
body $-1 $17 $-1 $18 #
body $-1 $19 $-1 $20 #
body $-1 $21 $-1 $22 #
body $-1 $23 $-1 $24 #
body $-1 $25 $-1 $26 #
lump $-1 $-1 $27 $0 #
transform $-1 1 0 0 0 1 0 0 0 1 78.167668691061124 38.200461204373298 15.113472059122122 1 rotate no_reflect no_shear #
lump $-1 $-1 $28 $1 #
transform $-1 1 0 0 0 1 0 0 0 1 78.167668691061124 38.200461204373298 15.113472059122122 1 rotate no_reflect no_shear #
lump $-1 $-1 $29 $2 #
transform $-1 1 0 0 0 1 0 0 0 1 78.167668691061124 38.200461204373298 15.113472059122122 1 rotate no_reflect no_shear #
lump $-1 $-1 $30 $3 #
transform $-1 1 0 0 0 1 0 0 0 1 78.167668691061124 38.200461204373298 15.113472059122122 1 rotate no_reflect no_shear #
lump $-1 $-1 $31 $4 #
transform $-1 1 0 0 0 1 0 0 0 1 78.167668691061124 38.200461204373298 15.113472059122122 1 rotate no_reflect no_shear #
lump $-1 $-1 $32 $5 #
transform $-1 1 0 0 0 1 0 0 0 1 78.167668691061124 38.200461204373298 15.113472059122122 1 rotate no_reflect no_shear #
lump $-1 $-1 $33 $6 #
transform $-1 1 0 0 0 1 0 0 0 1 78.167668691061124 38.200461204373298 15.113472059122122 1 rotate no_reflect no_shear #
lump $-1 $-1 $34 $7 #
transform $-1 1 0 0 0 1 0 0 0 1 78.167668691061124 38.200461204373298 15.113472059122122 1 rotate no_reflect no_shear #
lump $-1 $-1 $35 $8 #
transform $-1 1 0 0 0 1 0 0 0 1 78.167668691061124 38.200461204373298 15.113472059122122 1 rotate no_reflect no_shear #
shell $-1 $-1 $-1 $36 $-1 $9 #
shell $-1 $-1 $-1 $37 $-1 $11 #
shell $-1 $-1 $-1 $38 $-1 $13 #
shell $-1 $-1 $-1 $39 $-1 $15 #
shell $-1 $-1 $-1 $40 $-1 $17 #
shell $-1 $-1 $-1 $41 $-1 $19 #
shell $-1 $-1 $-1 $42 $-1 $21 #
shell $-1 $-1 $-1 $43 $-1 $23 #
shell $-1 $-1 $-1 $44 $-1 $25 #
face $-1 $45 $46 $27 $-1 $47 forward single #
face $-1 $48 $49 $28 $-1 $50 reversed single #
face $-1 $51 $52 $29 $-1 $53 reversed single #
face $-1 $54 $55 $30 $-1 $56 forward single #
face $-1 $57 $58 $31 $-1 $59 forward single #
face $-1 $60 $61 $32 $-1 $62 reversed single #
face $-1 $63 $64 $33 $-1 $65 forward single #
face $-1 $66 $67 $34 $-1 $68 forward single #
face $-1 $69 $70 $35 $-1 $71 forward single #
face $-1 $72 $73 $27 $-1 $74 reversed single #
loop $-1 $-1 $75 $36 #
plane-surface $-1 0 0 15.113472059122122 0 0 1 1 0 0 forward_v I I I I #
face $-1 $76 $77 $28 $-1 $78 reversed single #
loop $-1 $-1 $79 $37 #
plane-surface $-1 -56.14167540461726 -29.213713143401979 0 1 0 0 0 0 -1 forward_v I I I I #
face $-1 $80 $81 $29 $-1 $82 reversed single #
loop $-1 $-1 $83 $38 #
plane-surface $-1 -176.55268556898878 29.738746353498037 123.56006643974889 0 1 0 -0.62932039886446345 0 0.77714595512881146 forward_v I I I I #
face $-1 $84 $85 $30 $-1 $86 forward single #
loop $-1 $87 $88 $39 #
cone-surface $-1 -69.7960575600233 32.156379168033823 8.2005087267639052 0.62932039886446345 0 -0.77714595512881146 0.38857297756440573 0 0.31466019943223172 1 I I 0 1 0.5 forward I I I I #
face $-1 $89 $90 $31 $-1 $91 forward single #
loop $-1 $92 $93 $40 #
cone-surface $-1 -69.7960575600233 35.782828389837519 8.2005087267639052 0.62932039886446345 0 -0.77714595512881146 0.38857297756440573 0 0.31466019943223172 1 I I 0 1 0.5 forward I I I I #
face $-1 $94 $95 $32 $-1 $96 reversed single #
loop $-1 $-1 $97 $41 #
plane-surface $-1 127.90245018230985 24.339341586223711 224.64937435453271 0 -1 0 -0.84804810408105047 0 -0.52991925155115449 forward_v I I I I #
face $-1 $98 $99 $33 $-1 $100 forward single #
loop $-1 $101 $102 $42 #
cone-surface $-1 75.642062822742133 11.107660375685406 11.740485659301399 -0.84804810408105047 0 -0.52991925155115449 0.79487887732673168 0 -1.2720721561215758 1 I I 0 1 1.5 forward I I I I #
face $-1 $103 $104 $34 $-1 $105 forward single #
loop $-1 $106 $107 $43 #
cone-surface $-1 75.642062822742133 16.069540829637269 11.740485659301399 -0.84804810408105047 0 -0.52991925155115449 0.79487887732673168 0 -1.2720721561215758 1 I I 0 1 1.5 forward I I I I #
face $-1 $108 $109 $35 $-1 $110 forward single #
loop $-1 $111 $112 $44 #
cone-surface $-1 75.642062822742133 21.031421283589133 11.740485659301399 -0.84804810408105047 0 -0.52991925155115449 0.79487887732673168 0 -1.2720721561215758 1 I I 0 1 1.5 forward I I I I #
face $-1 $113 $114 $27 $-1 $115 reversed single #
loop $-1 $-1 $116 $45 #
plane-surface $-1 0 0 -15.113472059122122 0 0 1 1 0 0 forward_v I I I I #
coedge $-1 $117 $118 $119 $120 forward $46 $-1 #
face $-1 $121 $122 $28 $-1 $123 reversed single #
loop $-1 $-1 $124 $48 #
plane-surface $-1 -52.041199988717068 -20.226965082430659 0 0 -1 0 0 0 -1 forward_v I I I I #
coedge $-1 $125 $126 $127 $128 forward $49 $-1 #
face $-1 $129 $130 $29 $-1 $131 forward single #
loop $-1 $-1 $132 $51 #
plane-surface $-1 -78.167668691061138 33.969603778935678 2.0646913495345132 -0.62932039886446345 0 0.77714595512881146 0.77714595512881146 0 0.62932039886446345 forward_v I I I I #
coedge $-1 $133 $134 $135 $136 reversed $52 $-1 #
face $-1 $-1 $137 $30 $-1 $138 forward single #
loop $-1 $139 $140 $54 #
cone-surface $-1 -69.324067260874955 32.156379168033823 7.6176492604172967 0.62932039886446345 0 -0.77714595512881146 0.19428648878220287 0 0.15733009971611586 1 I I -0.70710678118654746 0.70710678118654746 0.25 forward I I I I #
loop $-1 $-1 $141 $39 #
coedge $-1 $88 $88 $142 $143 reversed $55 $-1 #
face $-1 $-1 $144 $31 $-1 $145 forward single #
loop $-1 $146 $147 $57 #
cone-surface $-1 -69.324067260874955 35.782828389837519 7.6176492604172967 0.62932039886446345 0 -0.77714595512881146 0.19428648878220287 0 0.15733009971611586 1 I I -0.70710678118654746 0.70710678118654746 0.25 forward I I I I #
loop $-1 $-1 $148 $40 #
coedge $-1 $93 $93 $149 $150 reversed $58 $-1 #
face $-1 $151 $152 $32 $-1 $153 reversed single #
loop $-1 $-1 $154 $60 #
plane-surface $-1 -4.6774362854702929 16.069540829637269 141.80426937800127 0.84804810408105047 0 0.52991925155115449 0.52991925155115449 0 -0.84804810408105047 forward_v I I I I #
coedge $-1 $155 $156 $157 $158 reversed $61 $-1 #
face $-1 $-1 $159 $33 $-1 $160 forward single #
loop $-1 $161 $162 $63 #
cone-surface $-1 74.320376475039893 11.107660375685406 10.91460439526781 -0.84804810408105047 0 -0.52991925155115449 0.39743943866336584 0 -0.63603607806078788 1 I I -0.70710678118654757 0.70710678118654757 0.75 forward I I I I #
loop $-1 $-1 $163 $42 #
coedge $-1 $102 $102 $164 $165 reversed $64 $-1 #
face $-1 $-1 $166 $34 $-1 $167 forward single #
loop $-1 $168 $169 $66 #
cone-surface $-1 74.320376475039893 16.069540829637269 10.91460439526781 -0.84804810408105047 0 -0.52991925155115449 0.39743943866336584 0 -0.63603607806078788 1 I I -0.70710678118654757 0.70710678118654757 0.75 forward I I I I #
loop $-1 $-1 $170 $43 #
coedge $-1 $107 $107 $171 $172 reversed $67 $-1 #
face $-1 $-1 $173 $35 $-1 $174 forward single #
loop $-1 $175 $176 $69 #
cone-surface $-1 74.320376475039893 21.031421283589133 10.91460439526781 -0.84804810408105047 0 -0.52991925155115449 0.39743943866336584 0 -0.63603607806078788 1 I I -0.70710678118654757 0.70710678118654757 0.75 forward I I I I #
loop $-1 $-1 $177 $44 #
coedge $-1 $112 $112 $178 $179 reversed $70 $-1 #
face $-1 $180 $181 $27 $-1 $182 reversed single #
loop $-1 $-1 $183 $72 #
plane-surface $-1 0 -38.200461204373298 0 0 1 0 0 0 1 forward_v I I I I #
coedge $-1 $184 $185 $186 $187 forward $73 $-1 #
coedge $-1 $188 $75 $189 $190 forward $46 $-1 #
coedge $-1 $75 $188 $191 $192 forward $46 $-1 #
coedge $-1 $193 $194 $75 $120 reversed $195 $-1 #
edge $-1 $196 -38.200461204373298 $197 38.200461204373298 $119 $198 forward 7 unknown #
face $-1 $199 $200 $28 $-1 $201 forward single #
loop $-1 $-1 $202 $76 #
plane-surface $-1 -47.940724572816876 -29.213713143401979 0 -1 0 0 0 0 1 forward_v I I I I #
coedge $-1 $203 $204 $205 $206 forward $77 $-1 #
coedge $-1 $207 $79 $208 $209 reversed $49 $-1 #
coedge $-1 $79 $207 $210 $211 reversed $49 $-1 #
coedge $-1 $204 $203 $79 $128 reversed $77 $-1 #
edge $-1 $212 -15.113472059122122 $213 15.113472059122122 $127 $214 forward 7 unknown #
face $-1 $215 $216 $29 $-1 $217 reversed single #
loop $-1 $-1 $135 $80 #
plane-surface $-1 0 0 15.113472059122122 0 0 1 1 0 0 forward_v I I I I #
coedge $-1 $218 $219 $220 $221 reversed $81 $-1 #
coedge $-1 $134 $83 $222 $223 reversed $52 $-1 #
coedge $-1 $83 $133 $218 $224 reversed $52 $-1 #
coedge $-1 $220 $225 $83 $136 forward $130 $-1 #
edge $-1 $226 10.108674093433265 $227 26.22257595664442 $135 $228 forward 7 unknown #
loop $-1 $-1 $142 $84 #
plane-surface $-1 -78.167668691061138 33.969603778935678 2.0646913495345132 -0.62932039886446345 0 0.77714595512881146 0.77714595512881146 0 0.62932039886446345 forward_v I I I I #
loop $-1 $-1 $229 $54 #
coedge $-1 $140 $140 $141 $230 reversed $85 $-1 #
coedge $-1 $141 $141 $140 $230 forward $87 $-1 #
coedge $-1 $142 $142 $88 $143 forward $137 $-1 #
edge $-1 $231 0 $231 6.2831853071796004 $142 $232 forward 7 unknown #
loop $-1 $-1 $149 $89 #
plane-surface $-1 -78.167668691061138 33.969603778935678 2.0646913495345132 -0.62932039886446345 0 0.77714595512881146 0.77714595512881146 0 0.62932039886446345 forward_v I I I I #
loop $-1 $-1 $233 $57 #
coedge $-1 $147 $147 $148 $234 reversed $90 $-1 #
coedge $-1 $148 $148 $147 $234 forward $92 $-1 #
coedge $-1 $149 $149 $93 $150 forward $144 $-1 #
edge $-1 $235 0 $235 6.2831853071796004 $149 $236 forward 7 unknown #
face $-1 $237 $238 $32 $-1 $239 reversed single #
loop $-1 $-1 $240 $94 #
plane-surface $-1 127.90245018230985 7.7997400730508275 224.64937435453271 0 1 0 0.84804810408105047 0 0.52991925155115449 forward_v I I I I #
coedge $-1 $241 $242 $243 $244 reversed $95 $-1 #
coedge $-1 $156 $97 $245 $246 reversed $61 $-1 #
coedge $-1 $97 $155 $241 $247 reversed $61 $-1 #
coedge $-1 $243 $248 $97 $158 forward $249 $-1 #
edge $-1 $250 -14.216443599906199 $251 -10.536532402551103 $157 $252 forward 7 unknown #
loop $-1 $-1 $164 $98 #
plane-surface $-1 -4.6774362854702929 16.069540829637269 141.80426937800127 0.84804810408105047 0 0.52991925155115449 0.52991925155115449 0 -0.84804810408105047 forward_v I I I I #
loop $-1 $-1 $253 $63 #
coedge $-1 $162 $162 $163 $254 reversed $99 $-1 #
coedge $-1 $163 $163 $162 $254 forward $101 $-1 #
coedge $-1 $164 $164 $102 $165 forward $159 $-1 #
edge $-1 $255 0 $255 6.2831853071796004 $164 $256 forward 7 unknown #
loop $-1 $-1 $171 $103 #
plane-surface $-1 -4.6774362854702929 16.069540829637269 141.80426937800127 0.84804810408105047 0 0.52991925155115449 0.52991925155115449 0 -0.84804810408105047 forward_v I I I I #
loop $-1 $-1 $257 $66 #
coedge $-1 $169 $169 $170 $258 reversed $104 $-1 #
coedge $-1 $170 $170 $169 $258 forward $106 $-1 #
coedge $-1 $171 $171 $107 $172 forward $166 $-1 #
edge $-1 $259 0 $259 6.2831853071796004 $171 $260 forward 7 unknown #
loop $-1 $-1 $178 $108 #
plane-surface $-1 -4.6774362854702929 16.069540829637269 141.80426937800127 0.84804810408105047 0 0.52991925155115449 0.52991925155115449 0 -0.84804810408105047 forward_v I I I I #
loop $-1 $-1 $261 $69 #
coedge $-1 $176 $176 $177 $262 reversed $109 $-1 #
coedge $-1 $177 $177 $176 $262 forward $111 $-1 #
coedge $-1 $178 $178 $112 $179 forward $173 $-1 #
edge $-1 $263 0 $263 6.2831853071796004 $178 $264 forward 7 unknown #
face $-1 $265 $266 $27 $-1 $267 reversed single #
loop $-1 $-1 $268 $113 #
plane-surface $-1 -78.167668691061124 0 0 1 0 0 0 0 -1 forward_v I I I I #
coedge $-1 $269 $191 $270 $271 forward $114 $-1 #
coedge $-1 $272 $116 $269 $273 forward $73 $-1 #
coedge $-1 $116 $272 $274 $275 forward $73 $-1 #
coedge $-1 $194 $193 $116 $187 reversed $195 $-1 #
edge $-1 $276 -38.200461204373298 $277 38.200461204373298 $186 $278 forward 7 unknown #
coedge $-1 $118 $117 $279 $280 forward $46 $-1 #
coedge $-1 $281 $282 $117 $190 reversed $266 $-1 #
edge $-1 $197 -78.167668691061124 $283 78.167668691061124 $189 $284 forward 7 unknown #
coedge $-1 $183 $285 $118 $192 reversed $114 $-1 #
edge $-1 $286 -78.167668691061124 $196 78.167668691061124 $191 $287 forward 7 unknown #
coedge $-1 $186 $119 $285 $288 forward $195 $-1 #
coedge $-1 $119 $186 $281 $289 reversed $195 $-1 #
loop $-1 $-1 $193 $265 #
vertex $-1 $120 $290 #
vertex $-1 $120 $291 #
straight-curve $-1 78.167668691061124 0 15.113472059122122 0 1 0 I I #
face $-1 $292 $293 $28 $-1 $294 reversed single #
loop $-1 $-1 $295 $121 #
plane-surface $-1 0 0 15.113472059122122 0 0 1 1 0 0 forward_v I I I I #
coedge $-1 $296 $297 $298 $299 reversed $122 $-1 #
coedge $-1 $127 $124 $300 $301 reversed $77 $-1 #
coedge $-1 $124 $127 $302 $303 reversed $77 $-1 #
coedge $-1 $297 $296 $124 $206 reversed $122 $-1 #
edge $-1 $304 -15.113472059122122 $305 15.113472059122122 $205 $306 forward 7 unknown #
coedge $-1 $126 $125 $307 $308 reversed $49 $-1 #
coedge $-1 $300 $309 $125 $209 forward $293 $-1 #
edge $-1 $310 -23.59360463267231 $213 -5.6201085107296702 $208 $311 forward 7 unknown #
coedge $-1 $312 $302 $126 $211 forward $200 $-1 #
edge $-1 $212 5.6201085107296702 $313 23.59360463267231 $210 $314 forward 7 unknown #
vertex $-1 $211 $315 #
vertex $-1 $209 $316 #
straight-curve $-1 -56.14167540461726 -20.226965082430659 0 0 0 -1 I I #
face $-1 $-1 $317 $29 $-1 $318 reversed single #
loop $-1 $-1 $319 $129 #
plane-surface $-1 0 38.200461204373298 0 0 -1 0 0 0 -1 forward_v I I I I #
coedge $-1 $320 $132 $134 $224 forward $81 $-1 #
coedge $-1 $132 $320 $319 $321 reversed $81 $-1 #
coedge $-1 $322 $135 $132 $221 forward $130 $-1 #
edge $-1 $227 12.753944464030198 $323 21.21565931490548 $220 $324 forward 7 unknown #
coedge $-1 $325 $326 $133 $223 forward $317 $-1 #
edge $-1 $327 -59.71534187033992 $226 -46.666561160752323 $222 $328 forward 7 unknown #
edge $-1 $227 -20.734717535189766 $327 -1.8310242626372826e-014 $134 $329 forward 7 unknown #
coedge $-1 $135 $322 $325 $330 forward $130 $-1 #
vertex $-1 $223 $331 #
vertex $-1 $136 $332 #
straight-curve $-1 -88.276342784494389 29.738746353498037 15.113472059122124 1 0 0 I I #
coedge $-1 $229 $229 $-1 $333 reversed $139 $-1 #
edge $-1 $334 0 $334 6.2831853071796004 $140 $335 forward 7 unknown #
vertex $-1 $143 $336 #
ellipse-curve $-1 -70.11071775945554 32.156379168033823 8.5890817043283256 -0.62932039886446345 0 0.77714595512881146 0.38857297756440573 0 0.31466019943223172 1 I I #
coedge $-1 $233 $233 $-1 $337 reversed $146 $-1 #
edge $-1 $338 0 $338 6.2831853071796004 $147 $339 forward 7 unknown #
vertex $-1 $150 $340 #
ellipse-curve $-1 -70.11071775945554 35.782828389837519 8.5890817043283256 -0.62932039886446345 0 0.77714595512881146 0.38857297756440573 0 0.31466019943223172 1 I I #
face $-1 $-1 $249 $32 $-1 $341 forward single #
loop $-1 $-1 $342 $151 #
plane-surface $-1 78.167668691061124 0 0 -1 0 0 0 0 1 forward_v I I I I #
coedge $-1 $343 $344 $345 $346 reversed $152 $-1 #
coedge $-1 $347 $154 $156 $247 forward $95 $-1 #
coedge $-1 $154 $347 $343 $348 forward $95 $-1 #
coedge $-1 $345 $157 $154 $244 forward $249 $-1 #
edge $-1 $251 -16.304571171405076 $349 0.23503034176780702 $243 $350 forward 7 unknown #
coedge $-1 $351 $352 $155 $246 forward $238 $-1 #
edge $-1 $353 -103.1003042670452 $250 -97.211215118144239 $245 $354 forward 7 unknown #
edge $-1 $251 149.39105070715533 $353 156.33533738212219 $156 $355 forward 7 unknown #
coedge $-1 $157 $345 $351 $356 forward $249 $-1 #
loop $-1 $-1 $345 $237 #
vertex $-1 $246 $357 #
vertex $-1 $158 $358 #
straight-curve $-1 63.951225091154924 24.339341586223711 15.113472059122117 -1 0 0 I I #
coedge $-1 $253 $253 $-1 $359 reversed $161 $-1 #
edge $-1 $360 0 $360 6.2831853071796004 $162 $361 forward 7 unknown #
vertex $-1 $165 $362 #
ellipse-curve $-1 76.32771309238359 11.107660375685406 12.168927484671627 0.84804810408105047 0 0.52991925155115449 0.79487887732673168 0 -1.2720721561215758 1 I I #
coedge $-1 $257 $257 $-1 $363 reversed $168 $-1 #
edge $-1 $364 0 $364 6.2831853071796004 $169 $365 forward 7 unknown #
vertex $-1 $172 $366 #
ellipse-curve $-1 76.32771309238359 16.069540829637269 12.168927484671627 0.84804810408105047 0 0.52991925155115449 0.79487887732673168 0 -1.2720721561215758 1 I I #
coedge $-1 $261 $261 $-1 $367 reversed $175 $-1 #
edge $-1 $368 0 $368 6.2831853071796004 $176 $369 forward 7 unknown #
vertex $-1 $179 $370 #
ellipse-curve $-1 76.32771309238359 21.031421283589133 12.168927484671627 0.84804810408105047 0 0.52991925155115449 0.79487887732673168 0 -1.2720721561215758 1 I I #
face $-1 $-1 $195 $27 $-1 $371 reversed single #
loop $-1 $-1 $281 $180 #
plane-surface $-1 0 38.200461204373298 0 0 -1 0 0 0 -1 forward_v I I I I #
coedge $-1 $372 $279 $282 $373 forward $181 $-1 #
coedge $-1 $285 $183 $184 $273 reversed $114 $-1 #
coedge $-1 $279 $372 $183 $271 reversed $181 $-1 #
edge $-1 $286 -15.113472059122122 $374 15.113472059122122 $270 $375 forward 7 unknown #
coedge $-1 $185 $184 $372 $376 forward $73 $-1 #
edge $-1 $277 -78.167668691061124 $374 78.167668691061124 $269 $377 forward 7 unknown #
coedge $-1 $282 $281 $185 $275 reversed $266 $-1 #
edge $-1 $378 -78.167668691061124 $276 78.167668691061124 $274 $379 forward 7 unknown #
vertex $-1 $187 $380 #
vertex $-1 $288 $381 #
straight-curve $-1 78.167668691061124 0 -15.113472059122122 0 -1 0 I I #
coedge $-1 $268 $270 $188 $280 reversed $181 $-1 #
edge $-1 $283 -38.200461204373298 $286 38.200461204373298 $279 $382 forward 7 unknown #
coedge $-1 $274 $189 $194 $289 forward $266 $-1 #
coedge $-1 $189 $274 $268 $373 reversed $266 $-1 #
vertex $-1 $190 $383 #
straight-curve $-1 0 38.200461204373298 15.113472059122122 -1 0 0 I I #
coedge $-1 $191 $269 $193 $288 reversed $114 $-1 #
vertex $-1 $280 $384 #
straight-curve $-1 0 -38.200461204373298 15.113472059122122 1 0 0 I I #
edge $-1 $196 -15.113472059122122 $277 15.113472059122122 $193 $385 forward 7 unknown #
edge $-1 $197 -15.113472059122122 $276 15.113472059122122 $194 $386 forward 7 unknown #
point $-1 78.167668691061124 -38.200461204373298 15.113472059122122 #
point $-1 78.167668691061124 38.200461204373298 15.113472059122122 #
face $-1 $-1 $387 $28 $-1 $388 reversed single #
loop $-1 $-1 $389 $199 #
plane-surface $-1 0 0 -15.113472059122122 0 0 1 1 0 0 forward_v I I I I #
coedge $-1 $302 $312 $297 $390 forward $200 $-1 #
coedge $-1 $205 $202 $389 $391 reversed $122 $-1 #
coedge $-1 $202 $205 $295 $390 reversed $122 $-1 #
coedge $-1 $392 $393 $202 $299 forward $387 $-1 #
edge $-1 $394 -15.113472059122122 $395 15.113472059122122 $298 $396 forward 7 unknown #
coedge $-1 $389 $208 $203 $301 forward $293 $-1 #
edge $-1 $213 -30.121075410258726 $305 -21.920124578458342 $300 $397 forward 7 unknown #
coedge $-1 $210 $295 $204 $303 forward $200 $-1 #
edge $-1 $304 21.920124578458342 $212 30.121075410258726 $302 $398 forward 7 unknown #
vertex $-1 $303 $399 #
vertex $-1 $301 $400 #
straight-curve $-1 -47.940724572816876 -20.226965082430659 0 0 0 -1 I I #
coedge $-1 $393 $392 $207 $308 forward $387 $-1 #
edge $-1 $313 -15.113472059122122 $310 15.113472059122122 $307 $401 forward 7 unknown #
coedge $-1 $208 $389 $393 $402 forward $293 $-1 #
vertex $-1 $209 $403 #
straight-curve $-1 -56.14167540461726 -14.606856571700989 -15.113472059122122 0 1 0 I I #
coedge $-1 $295 $210 $392 $404 forward $200 $-1 #
vertex $-1 $404 $405 #
straight-curve $-1 -56.14167540461726 -14.606856571700989 15.113472059122122 0 -1 0 I I #
point $-1 -56.14167540461726 -20.226965082430659 15.113472059122122 #
point $-1 -56.14167540461726 -20.226965082430659 -15.113472059122122 #
loop $-1 $-1 $222 $215 #
plane-surface $-1 -78.167668691061124 0 0 1 0 0 0 0 -1 forward_v I I I I #
coedge $-1 $406 $407 $219 $321 forward $216 $-1 #
coedge $-1 $219 $218 $326 $408 reversed $81 $-1 #
edge $-1 $323 8.9894500455532995 $409 29.72416758074305 $319 $410 forward 7 unknown #
coedge $-1 $225 $220 $407 $411 forward $130 $-1 #
vertex $-1 $411 $412 #
straight-curve $-1 -62.053766827849969 16.984801889467839 15.113472059122122 0 1 0 I I #
coedge $-1 $413 $222 $225 $330 reversed $317 $-1 #
coedge $-1 $222 $413 $320 $408 forward $317 $-1 #
vertex $-1 $223 $414 #
straight-curve $-1 -78.167668691061124 29.738746353498037 61.780033219874447 0 0 1 I I #
straight-curve $-1 -78.167668691061138 29.738746353498037 2.0646913495345132 -0.77714595512881146 0 -0.62932039886446345 I I #
edge $-1 $415 -38.200461204373298 $226 -29.738746353498037 $325 $416 forward 7 unknown #
point $-1 -78.167668691061124 29.738746353498037 15.113472059122122 #
point $-1 -62.053766827849969 29.738746353498037 15.11347205912212 #
edge $-1 $417 1 $417 0 $229 $-1 forward 7 unknown #
vertex $-1 $230 $418 #
ellipse-curve $-1 -69.481397360591075 32.156379168033823 7.8119357491994998 -0.62932039886446345 0 0.77714595512881146 0.38857297756440573 0 0.31466019943223172 1 I I #
point $-1 -69.722144781891132 32.156379168033823 8.9037419037605421 #
edge $-1 $419 1 $419 0 $233 $-1 forward 7 unknown #
vertex $-1 $234 $420 #
ellipse-curve $-1 -69.481397360591075 35.782828389837519 7.8119357491994998 -0.62932039886446345 0 0.77714595512881146 0.38857297756440573 0 0.31466019943223172 1 I I #
point $-1 -69.722144781891132 35.782828389837519 8.9037419037605421 #
plane-surface $-1 0 0 15.113472059122122 0 0 1 1 0 0 forward_v I I I I #
coedge $-1 $352 $351 $344 $421 forward $238 $-1 #
coedge $-1 $344 $240 $242 $348 reversed $152 $-1 #
coedge $-1 $240 $343 $342 $421 reversed $152 $-1 #
coedge $-1 $248 $243 $240 $346 forward $249 $-1 #
edge $-1 $349 10.536532402551103 $422 14.216443599906199 $345 $423 forward 7 unknown #
coedge $-1 $242 $241 $352 $424 reversed $95 $-1 #
edge $-1 $425 -156.33533738212219 $349 -149.39105070715533 $343 $426 forward 7 unknown #
vertex $-1 $244 $427 #
straight-curve $-1 74.487757493706027 8.0347704148186345 15.113472059122117 0 -1 0 I I #
coedge $-1 $342 $245 $248 $356 reversed $238 $-1 #
coedge $-1 $245 $342 $347 $424 forward $238 $-1 #
vertex $-1 $246 $428 #
straight-curve $-1 78.167668691061124 24.339341586223711 112.32468717726636 0 0 1 I I #
straight-curve $-1 -4.6774362854702929 24.339341586223711 141.80426937800127 0.52991925155115449 0 -0.84804810408105047 I I #
edge $-1 $422 7.7997400730508275 $250 24.339341586223711 $351 $429 forward 7 unknown #
point $-1 78.167668691061124 24.339341586223711 15.113472059122122 #
point $-1 74.487757493706027 24.339341586223711 15.113472059122117 #
edge $-1 $430 1 $430 0 $253 $-1 forward 7 unknown #
vertex $-1 $254 $431 #
ellipse-curve $-1 74.956412553100677 11.107660375685406 11.312043833931176 0.84804810408105047 0 0.52991925155115449 0.79487887732673168 0 -1.2720721561215758 1 I I #
point $-1 77.1225919697103 11.107660375685406 10.896855328550046 #
edge $-1 $432 1 $432 0 $257 $-1 forward 7 unknown #
vertex $-1 $258 $433 #
ellipse-curve $-1 74.956412553100677 16.069540829637269 11.312043833931176 0.84804810408105047 0 0.52991925155115449 0.79487887732673168 0 -1.2720721561215758 1 I I #
point $-1 77.1225919697103 16.069540829637269 10.896855328550046 #
edge $-1 $434 1 $434 0 $261 $-1 forward 7 unknown #
vertex $-1 $262 $435 #
ellipse-curve $-1 74.956412553100677 21.031421283589133 11.312043833931176 0.84804810408105047 0 0.52991925155115449 0.79487887732673168 0 -1.2720721561215758 1 I I #
point $-1 77.1225919697103 21.031421283589133 10.896855328550046 #
plane-surface $-1 78.167668691061124 0 0 -1 0 0 0 0 1 forward_v I I I I #
coedge $-1 $270 $268 $272 $376 reversed $181 $-1 #
edge $-1 $283 -15.113472059122122 $378 15.113472059122122 $282 $436 forward 7 unknown #
vertex $-1 $376 $437 #
straight-curve $-1 -78.167668691061124 -38.200461204373298 0 0 0 -1 I I #
edge $-1 $374 -38.200461204373298 $378 38.200461204373298 $372 $438 forward 7 unknown #
straight-curve $-1 0 -38.200461204373298 -15.113472059122122 -1 0 0 I I #
vertex $-1 $275 $439 #
straight-curve $-1 0 38.200461204373298 -15.113472059122122 1 0 0 I I #
point $-1 78.167668691061124 38.200461204373298 -15.113472059122122 #
point $-1 78.167668691061124 -38.200461204373298 -15.113472059122122 #
straight-curve $-1 -78.167668691061124 0 15.113472059122122 0 -1 0 I I #
point $-1 -78.167668691061124 38.200461204373298 15.113472059122122 #
point $-1 -78.167668691061124 -38.200461204373298 15.113472059122122 #
straight-curve $-1 78.167668691061124 -38.200461204373298 0 0 0 -1 I I #
straight-curve $-1 78.167668691061124 38.200461204373298 0 0 0 -1 I I #
loop $-1 $-1 $298 $292 #
plane-surface $-1 0 -38.200461204373298 0 0 1 0 0 0 1 forward_v I I I I #
coedge $-1 $309 $300 $296 $391 forward $293 $-1 #
edge $-1 $395 -23.59360463267231 $304 -5.6201085107296702 $295 $440 forward 7 unknown #
edge $-1 $305 5.6201085107296702 $394 23.59360463267231 $389 $441 forward 7 unknown #
coedge $-1 $307 $298 $312 $404 reversed $387 $-1 #
coedge $-1 $298 $307 $309 $402 reversed $387 $-1 #
vertex $-1 $402 $442 #
vertex $-1 $299 $443 #
straight-curve $-1 -47.940724572816876 -38.200461204373298 0 0 0 1 I I #
straight-curve $-1 -26.020599994358534 -20.226965082430659 -15.113472059122122 1 0 0 I I #
straight-curve $-1 -26.020599994358534 -20.226965082430659 15.113472059122122 -1 0 0 I I #
point $-1 -47.940724572816876 -20.226965082430659 15.113472059122122 #
point $-1 -47.940724572816876 -20.226965082430659 -15.113472059122122 #
straight-curve $-1 -56.14167540461726 -38.200461204373298 0 0 0 -1 I I #
edge $-1 $394 47.940724572816876 $310 56.14167540461726 $393 $444 forward 7 unknown #
point $-1 -56.14167540461726 -38.200461204373298 -15.113472059122122 #
edge $-1 $313 -56.14167540461726 $395 -47.940724572816876 $392 $445 forward 7 unknown #
point $-1 -56.14167540461726 -38.200461204373298 15.113472059122122 #
coedge $-1 $407 $319 $413 $446 reversed $216 $-1 #
coedge $-1 $319 $406 $322 $411 reversed $216 $-1 #
edge $-1 $409 -21.21565931490548 $327 -12.753944464030198 $326 $447 forward 7 unknown #
vertex $-1 $321 $448 #
straight-curve $-1 -55.067652086115714 38.200461204373298 20.770716347361894 -0.77714595512881146 0 -0.62932039886446345 I I #
edge $-1 $323 62.053766827849969 $415 78.167668691061124 $407 $449 forward 7 unknown #
point $-1 -62.053766827849969 38.200461204373319 15.11347205912212 #
coedge $-1 $326 $325 $406 $446 forward $317 $-1 #
point $-1 -78.167668691061124 29.738746353498037 2.0646913495345247 #
vertex $-1 $411 $450 #
straight-curve $-1 -78.167668691061124 0 15.113472059122122 0 -1 0 I I #
vertex $-1 $333 $451 #
point $-1 -69.092824383026667 32.156379168033823 8.1265959486317314 #
vertex $-1 $337 $452 #
point $-1 -69.092824383026667 35.782828389837519 8.1265959486317314 #
edge $-1 $422 97.211215118144239 $425 103.1003042670452 $342 $453 forward 7 unknown #
vertex $-1 $356 $454 #
straight-curve $-1 63.951225091154924 7.7997400730508275 15.113472059122117 1 0 0 I I #
edge $-1 $425 -0.23503034176780702 $353 16.304571171405076 $352 $455 forward 7 unknown #
vertex $-1 $424 $456 #
straight-curve $-1 -4.6774362854702929 7.7997400730508275 141.80426937800127 -0.52991925155115449 0 0.84804810408105047 I I #
point $-1 74.487757493706027 7.7997400730508275 15.113472059122117 #
point $-1 78.167668691061124 24.339341586223711 9.2243829102211521 #
straight-curve $-1 78.167668691061124 0 15.113472059122122 0 1 0 I I #
vertex $-1 $359 $457 #
point $-1 75.751291430427415 11.107660375685406 10.0399716778096 #
vertex $-1 $363 $458 #
point $-1 75.751291430427415 16.069540829637269 10.0399716778096 #
vertex $-1 $367 $459 #
point $-1 75.751291430427415 21.031421283589133 10.0399716778096 #
straight-curve $-1 -78.167668691061124 38.200461204373298 0 0 0 -1 I I #
point $-1 -78.167668691061124 -38.200461204373298 -15.113472059122122 #
straight-curve $-1 -78.167668691061124 0 -15.113472059122122 0 1 0 I I #
point $-1 -78.167668691061124 38.200461204373298 -15.113472059122122 #
straight-curve $-1 -47.940724572816876 -14.606856571700989 15.113472059122122 0 1 0 I I #
straight-curve $-1 -47.940724572816876 -14.606856571700989 -15.113472059122122 0 -1 0 I I #
point $-1 -47.940724572816876 -38.200461204373298 -15.113472059122122 #
point $-1 -47.940724572816876 -38.200461204373298 15.113472059122122 #
straight-curve $-1 0 -38.200461204373298 -15.113472059122122 -1 0 0 I I #
straight-curve $-1 0 -38.200461204373298 15.113472059122122 1 0 0 I I #
edge $-1 $415 -15.113472059122122 $409 -2.0646913495345247 $406 $460 forward 7 unknown #
straight-curve $-1 -78.167668691061124 16.984801889467839 2.0646913495345189 0 -1 0 I I #
point $-1 -78.167668691061124 38.200461204373319 2.0646913495345247 #
straight-curve $-1 0 38.200461204373298 15.113472059122122 -1 0 0 I I #
point $-1 -78.167668691061124 38.200461204373298 15.113472059122122 #
point $-1 -69.166737161158835 32.156379168033823 7.4233627716350936 #
point $-1 -69.166737161158835 35.782828389837519 7.4233627716350936 #
straight-curve $-1 78.167668691061124 7.7997400730508275 112.32468717726636 0 0 -1 I I #
point $-1 78.167668691061124 7.7997400730508275 15.113472059122122 #
straight-curve $-1 78.167668691061124 8.0347704148186345 9.2243829102211663 0 1 0 I I #
point $-1 78.167668691061124 7.7997400730508275 9.2243829102211521 #
point $-1 73.68434039697911 11.107660375685406 10.517164956604445 #
point $-1 73.68434039697911 16.069540829637269 10.517164956604445 #
point $-1 73.68434039697911 21.031421283589133 10.517164956604445 #
straight-curve $-1 -78.167668691061124 38.200461204373298 0 0 0 -1 I I #
End-of-ACIS-data 