500 0 15 0           
7 Unknown 11 ACIS 5.0 NT 24 Thu Mar 25 17:31:52 1999 
-1 9.9999999999999995e-007 1e-010 
body $-1 $15 $-1 $16 #
body $-1 $17 $-1 $18 #
body $-1 $19 $-1 $20 #
body $-1 $21 $-1 $22 #
body $-1 $23 $-1 $24 #
body $-1 $25 $-1 $26 #
body $-1 $27 $-1 $28 #
body $-1 $29 $-1 $30 #
body $-1 $31 $-1 $32 #
body $-1 $33 $-1 $34 #
body $-1 $35 $-1 $36 #
body $-1 $37 $-1 $38 #
body $-1 $39 $-1 $40 #
body $-1 $41 $-1 $42 #
body $-1 $43 $-1 $44 #
lump $-1 $-1 $45 $0 #
transform $-1 1 0 0 0 1 0 0 0 1 51.737418744468521 21.938863444529325 6.9776927785121252 1 rotate no_reflect no_shear #
lump $-1 $-1 $46 $1 #
transform $-1 1 0 0 0 1 0 0 0 1 51.737418744468521 21.938863444529325 6.9776927785121252 1 rotate no_reflect no_shear #
lump $-1 $-1 $47 $2 #
transform $-1 1 0 0 0 1 0 0 0 1 51.737418744468521 21.938863444529325 6.9776927785121252 1 rotate no_reflect no_shear #
lump $-1 $-1 $48 $3 #
transform $-1 1 0 0 0 1 0 0 0 1 51.737418744468521 21.938863444529325 6.9776927785121252 1 rotate no_reflect no_shear #
lump $-1 $-1 $49 $4 #
transform $-1 1 0 0 0 1 0 0 0 1 51.737418744468521 21.938863444529325 6.9776927785121252 1 rotate no_reflect no_shear #
lump $-1 $-1 $50 $5 #
transform $-1 1 0 0 0 1 0 0 0 1 51.737418744468521 21.938863444529325 6.9776927785121252 1 rotate no_reflect no_shear #
lump $-1 $-1 $51 $6 #
transform $-1 1 0 0 0 1 0 0 0 1 51.737418744468521 21.938863444529325 6.9776927785121252 1 rotate no_reflect no_shear #
lump $-1 $-1 $52 $7 #
transform $-1 1 0 0 0 1 0 0 0 1 51.737418744468521 21.938863444529325 6.9776927785121252 1 rotate no_reflect no_shear #
lump $-1 $-1 $53 $8 #
transform $-1 1 0 0 0 1 0 0 0 1 51.737418744468521 21.938863444529325 6.9776927785121252 1 rotate no_reflect no_shear #
lump $-1 $-1 $54 $9 #
transform $-1 1 0 0 0 1 0 0 0 1 51.737418744468521 21.938863444529325 6.9776927785121252 1 rotate no_reflect no_shear #
lump $-1 $-1 $55 $10 #
transform $-1 1 0 0 0 1 0 0 0 1 51.737418744468521 21.938863444529325 6.9776927785121252 1 rotate no_reflect no_shear #
lump $-1 $-1 $56 $11 #
transform $-1 1 0 0 0 1 0 0 0 1 51.737418744468521 21.938863444529325 6.9776927785121252 1 rotate no_reflect no_shear #
lump $-1 $-1 $57 $12 #
transform $-1 1 0 0 0 1 0 0 0 1 51.737418744468521 21.938863444529325 6.9776927785121252 1 rotate no_reflect no_shear #
lump $-1 $-1 $58 $13 #
transform $-1 1 0 0 0 1 0 0 0 1 51.737418744468521 21.938863444529325 6.9776927785121252 1 rotate no_reflect no_shear #
lump $-1 $-1 $59 $14 #
transform $-1 1 0 0 0 1 0 0 0 1 51.737418744468521 21.938863444529325 6.9776927785121252 1 rotate no_reflect no_shear #
shell $-1 $-1 $-1 $60 $-1 $15 #
shell $-1 $-1 $-1 $61 $-1 $17 #
shell $-1 $-1 $-1 $62 $-1 $19 #
shell $-1 $-1 $-1 $63 $-1 $21 #
shell $-1 $-1 $-1 $64 $-1 $23 #
shell $-1 $-1 $-1 $65 $-1 $25 #
shell $-1 $-1 $-1 $66 $-1 $27 #
shell $-1 $-1 $-1 $67 $-1 $29 #
shell $-1 $-1 $-1 $68 $-1 $31 #
shell $-1 $-1 $-1 $69 $-1 $33 #
shell $-1 $-1 $-1 $70 $-1 $35 #
shell $-1 $-1 $-1 $71 $-1 $37 #
shell $-1 $-1 $-1 $72 $-1 $39 #
shell $-1 $-1 $-1 $73 $-1 $41 #
shell $-1 $-1 $-1 $74 $-1 $43 #
face $-1 $75 $76 $45 $-1 $77 forward single #
face $-1 $78 $79 $46 $-1 $80 forward single #
face $-1 $81 $82 $47 $-1 $83 forward single #
face $-1 $84 $85 $48 $-1 $86 reversed single #
face $-1 $87 $88 $49 $-1 $89 forward single #
face $-1 $90 $91 $50 $-1 $92 forward single #
face $-1 $93 $94 $51 $-1 $95 reversed single #
face $-1 $96 $97 $52 $-1 $98 forward single #
face $-1 $99 $100 $53 $-1 $101 forward single #
face $-1 $102 $103 $54 $-1 $104 reversed single #
face $-1 $105 $106 $55 $-1 $107 forward single #
face $-1 $108 $109 $56 $-1 $110 forward single #
face $-1 $111 $112 $57 $-1 $113 reversed single #
face $-1 $114 $115 $58 $-1 $116 forward single #
face $-1 $117 $118 $59 $-1 $119 forward single #
face $-1 $120 $121 $45 $-1 $122 reversed single #
loop $-1 $-1 $123 $60 #
plane-surface $-1 0 0 6.9776927785121252 0 0 1 1 0 0 forward_v I I I I #
face $-1 $124 $125 $46 $-1 $126 reversed single #
loop $-1 $-1 $127 $61 #
plane-surface $-1 -47.88272847519427 0 -2.8182493761388234 0 0 1 1 0 0 forward_v I I I I #
face $-1 $128 $129 $47 $-1 $130 reversed single #
loop $-1 $-1 $131 $62 #
plane-surface $-1 47.882728475194263 0 -2.8182493761388234 0 0 1 1 0 0 forward_v I I I I #
face $-1 $132 $133 $48 $-1 $134 reversed single #
loop $-1 $-1 $135 $63 #
plane-surface $-1 -4.7019253838076835 58.569539655730956 106.34278746688702 -1 0 0 0 0.66913061440640931 0.74314481823134659 forward_v I I I I #
face $-1 $136 $137 $49 $-1 $138 forward single #
loop $-1 $139 $140 $64 #
cone-surface $-1 -19.566755760477797 17.114790871974485 2.4244772649963622 0 -0.66913061440640931 -0.74314481823134659 1.5 0 0 1 I I 0 1 1.5 forward I I I I #
face $-1 $141 $142 $50 $-1 $143 forward single #
loop $-1 $144 $145 $65 #
cone-surface $-1 -10.647857534475733 17.114790871974485 2.4244772649963622 0 -0.66913061440640931 -0.74314481823134659 1.5 0 0 1 I I 0 1 1.5 forward I I I I #
face $-1 $146 $147 $51 $-1 $148 reversed single #
loop $-1 $-1 $149 $66 #
plane-surface $-1 39.326112822112336 58.569539655730956 106.34278746688702 -1 0 0 0 0.66913061440640931 0.74314481823134659 forward_v I I I I #
face $-1 $150 $151 $52 $-1 $152 forward single #
loop $-1 $153 $154 $67 #
cone-surface $-1 24.461282445442215 17.114790871974485 2.4244772649963622 0 -0.66913061440640931 -0.74314481823134659 1.5 0 0 1 I I 0 1 1.5 forward I I I I #
face $-1 $155 $156 $53 $-1 $157 forward single #
loop $-1 $158 $159 $68 #
cone-surface $-1 33.380180671444286 17.114790871974485 2.4244772649963622 0 -0.66913061440640931 -0.74314481823134659 1.5 0 0 1 I I 0 1 1.5 forward I I I I #
face $-1 $160 $161 $54 $-1 $162 reversed single #
loop $-1 $-1 $163 $69 #
plane-surface $-1 -33.295826971876522 -100.03231546708375 70.404267670946808 1 0 0 0 0.75470958851134928 -0.65605901945558964 forward_v I I I I #
face $-1 $164 $165 $55 $-1 $166 forward single #
loop $-1 $167 $168 $70 #
cone-surface $-1 -29.761705871708337 -18.912786135836029 3.8024034735866725 0 0.75470958851134928 -0.65605901945558964 1 0 0 1 I I 0 1 1 forward I I I I #
face $-1 $169 $170 $56 $-1 $171 forward single #
loop $-1 $172 $173 $71 #
cone-surface $-1 -24.460524221456062 -18.912786135836029 3.8024034735866725 0 0.75470958851134928 -0.65605901945558964 1 0 0 1 I I 0 1 1 forward I I I I #
face $-1 $174 $175 $57 $-1 $176 reversed single #
loop $-1 $-1 $177 $72 #
plane-surface $-1 20.926403121287901 -100.03231546708375 70.404267670946808 1 0 0 0 0.75470958851134928 -0.65605901945558964 forward_v I I I I #
face $-1 $178 $179 $58 $-1 $180 forward single #
loop $-1 $181 $182 $73 #
cone-surface $-1 24.460524221456076 -18.912786135836029 3.8024034735866725 0 0.75470958851134928 -0.65605901945558964 1 0 0 1 I I 0 1 1 forward I I I I #
face $-1 $183 $184 $59 $-1 $185 forward single #
loop $-1 $186 $187 $74 #
cone-surface $-1 29.761705871708365 -18.912786135836029 3.8024034735866725 0 0.75470958851134928 -0.65605901945558964 1 0 0 1 I I 0 1 1 forward I I I I #
face $-1 $188 $189 $45 $-1 $190 reversed single #
loop $-1 $-1 $191 $75 #
plane-surface $-1 0 0 -6.9776927785121252 0 0 1 1 0 0 forward_v I I I I #
coedge $-1 $192 $193 $194 $195 forward $76 $-1 #
face $-1 $196 $197 $46 $-1 $198 reversed single #
loop $-1 $-1 $199 $78 #
plane-surface $-1 -44.028038205920019 0 -4.8979710773254741 -1 0 0 0 0 1 forward_v I I I I #
coedge $-1 $200 $201 $202 $203 forward $79 $-1 #
face $-1 $204 $205 $47 $-1 $206 reversed single #
loop $-1 $-1 $207 $81 #
plane-surface $-1 44.028038205920012 0 -4.8979710773254741 1 0 0 0 0 -1 forward_v I I I I #
coedge $-1 $208 $209 $210 $211 reversed $82 $-1 #
face $-1 $212 $213 $48 $-1 $214 reversed single #
loop $-1 $-1 $215 $84 #
plane-surface $-1 -15.107306647476761 -10.668641928844842 29.445998169652768 0 0.66913061440640931 0.74314481823134659 1 0 0 forward_v I I I I #
coedge $-1 $216 $217 $218 $219 reversed $85 $-1 #
face $-1 $-1 $220 $49 $-1 $221 forward single #
loop $-1 $222 $223 $87 #
cone-surface $-1 -19.566755760477797 15.615832719811415 0.75971561825299005 0 -0.66913061440640931 -0.74314481823134659 0.75 0 0 1 I I -0.70710678118654757 0.70710678118654757 0.75 forward I I I I #
loop $-1 $-1 $224 $64 #
coedge $-1 $140 $140 $225 $226 reversed $88 $-1 #
face $-1 $-1 $227 $50 $-1 $228 forward single #
loop $-1 $229 $230 $90 #
cone-surface $-1 -10.647857534475733 15.615832719811415 0.75971561825299005 0 -0.66913061440640931 -0.74314481823134659 0.75 0 0 1 I I -0.70710678118654757 0.70710678118654757 0.75 forward I I I I #
loop $-1 $-1 $231 $65 #
coedge $-1 $145 $145 $232 $233 reversed $91 $-1 #
face $-1 $234 $235 $51 $-1 $236 reversed single #
loop $-1 $-1 $237 $93 #
plane-surface $-1 28.920731558443258 -10.668641928844842 29.445998169652768 0 0.66913061440640931 0.74314481823134659 1 0 0 forward_v I I I I #
coedge $-1 $238 $239 $240 $241 reversed $94 $-1 #
face $-1 $-1 $242 $52 $-1 $243 forward single #
loop $-1 $244 $245 $96 #
cone-surface $-1 24.461282445442215 15.615832719811415 0.75971561825299005 0 -0.66913061440640931 -0.74314481823134659 0.75 0 0 1 I I -0.70710678118654757 0.70710678118654757 0.75 forward I I I I #
loop $-1 $-1 $246 $67 #
coedge $-1 $154 $154 $247 $248 reversed $97 $-1 #
face $-1 $-1 $249 $53 $-1 $250 forward single #
loop $-1 $251 $252 $99 #
cone-surface $-1 33.380180671444286 15.615832719811415 0.75971561825299005 0 -0.66913061440640931 -0.74314481823134659 0.75 0 0 1 I I -0.70710678118654757 0.70710678118654757 0.75 forward I I I I #
loop $-1 $-1 $253 $68 #
coedge $-1 $159 $159 $254 $255 reversed $100 $-1 #
face $-1 $256 $257 $54 $-1 $258 reversed single #
loop $-1 $-1 $259 $102 #
plane-surface $-1 -27.111115046582199 -21.938863444529332 2.5186672496282796 0 -0.75470958851134928 0.65605901945558964 1 0 0 forward_v I I I I #
coedge $-1 $260 $261 $262 $263 reversed $103 $-1 #
face $-1 $-1 $264 $55 $-1 $265 forward single #
loop $-1 $266 $267 $105 #
cone-surface $-1 -29.761705871708337 -17.447439861356024 2.5285974233753521 0 0.75470958851134928 -0.65605901945558964 0.5 0 0 1 I I -0.70710678118654746 0.70710678118654746 0.5 forward I I I I #
loop $-1 $-1 $268 $70 #
coedge $-1 $168 $168 $269 $270 reversed $106 $-1 #
face $-1 $-1 $271 $56 $-1 $272 forward single #
loop $-1 $273 $274 $108 #
cone-surface $-1 -24.460524221456062 -17.447439861356024 2.5285974233753521 0 0.75470958851134928 -0.65605901945558964 0.5 0 0 1 I I -0.70710678118654746 0.70710678118654746 0.5 forward I I I I #
loop $-1 $-1 $275 $71 #
coedge $-1 $173 $173 $276 $277 reversed $109 $-1 #
face $-1 $278 $279 $57 $-1 $280 reversed single #
loop $-1 $-1 $281 $111 #
plane-surface $-1 27.111115046582221 -21.938863444529332 2.5186672496282796 0 -0.75470958851134928 0.65605901945558964 1 0 0 forward_v I I I I #
coedge $-1 $282 $283 $284 $285 reversed $112 $-1 #
face $-1 $-1 $286 $58 $-1 $287 forward single #
loop $-1 $288 $289 $114 #
cone-surface $-1 24.460524221456076 -17.447439861356024 2.5285974233753521 0 0.75470958851134928 -0.65605901945558964 0.5 0 0 1 I I -0.70710678118654746 0.70710678118654746 0.5 forward I I I I #
loop $-1 $-1 $290 $73 #
coedge $-1 $182 $182 $291 $292 reversed $115 $-1 #
face $-1 $-1 $293 $59 $-1 $294 forward single #
loop $-1 $295 $296 $117 #
cone-surface $-1 29.761705871708365 -17.447439861356024 2.5285974233753521 0 0.75470958851134928 -0.65605901945558964 0.5 0 0 1 I I -0.70710678118654746 0.70710678118654746 0.5 forward I I I I #
loop $-1 $-1 $297 $74 #
coedge $-1 $187 $187 $298 $299 reversed $118 $-1 #
face $-1 $300 $301 $45 $-1 $302 reversed single #
loop $-1 $-1 $303 $120 #
plane-surface $-1 0 -21.938863444529325 0 0 1 0 0 0 1 forward_v I I I I #
coedge $-1 $304 $305 $306 $307 forward $121 $-1 #
coedge $-1 $308 $123 $309 $310 forward $76 $-1 #
coedge $-1 $123 $308 $311 $312 forward $76 $-1 #
coedge $-1 $313 $314 $123 $195 reversed $315 $-1 #
edge $-1 $316 -21.938863444529325 $317 21.938863444529325 $194 $318 forward 7 unknown #
face $-1 $319 $320 $46 $-1 $321 reversed single #
loop $-1 $-1 $322 $124 #
plane-surface $-1 0 0 -6.9776927785121252 0 0 1 1 0 0 forward_v I I I I #
coedge $-1 $323 $202 $324 $325 reversed $125 $-1 #
coedge $-1 $326 $127 $327 $328 reversed $79 $-1 #
coedge $-1 $127 $326 $329 $330 reversed $79 $-1 #
coedge $-1 $199 $331 $127 $203 reversed $125 $-1 #
edge $-1 $332 -21.938863444529325 $333 21.938863444529325 $202 $334 forward 7 unknown #
face $-1 $335 $336 $47 $-1 $337 reversed single #
loop $-1 $-1 $338 $128 #
plane-surface $-1 0 -21.938863444529325 0 0 1 0 0 0 1 forward_v I I I I #
coedge $-1 $339 $340 $341 $342 reversed $129 $-1 #
coedge $-1 $343 $131 $344 $345 reversed $82 $-1 #
coedge $-1 $131 $343 $338 $346 reversed $82 $-1 #
coedge $-1 $347 $348 $131 $211 forward $349 $-1 #
edge $-1 $350 -21.938863444529325 $351 21.938863444529325 $210 $352 forward 7 unknown #
face $-1 $353 $354 $48 $-1 $355 reversed single #
loop $-1 $-1 $356 $132 #
plane-surface $-1 -25.512687911145839 58.569539655730956 106.34278746688702 1 0 0 0 -0.66913061440640931 -0.74314481823134659 forward_v I I I I #
coedge $-1 $357 $358 $359 $360 reversed $133 $-1 #
coedge $-1 $217 $135 $361 $362 reversed $85 $-1 #
coedge $-1 $135 $216 $357 $363 reversed $85 $-1 #
coedge $-1 $359 $364 $135 $219 forward $354 $-1 #
edge $-1 $365 46.193700954931387 $366 53.085325915823191 $218 $367 forward 7 unknown #
loop $-1 $-1 $225 $136 #
plane-surface $-1 -15.107306647476761 -10.668641928844842 29.445998169652768 0 0.66913061440640931 0.74314481823134659 1 0 0 forward_v I I I I #
loop $-1 $-1 $368 $87 #
coedge $-1 $223 $223 $224 $369 reversed $137 $-1 #
coedge $-1 $224 $224 $223 $369 forward $139 $-1 #
coedge $-1 $225 $225 $140 $226 forward $220 $-1 #
edge $-1 $370 -3.7340330679507494e-016 $370 6.2831853071796004 $225 $371 forward 7 unknown #
loop $-1 $-1 $232 $141 #
plane-surface $-1 -15.107306647476761 -10.668641928844842 29.445998169652768 0 0.66913061440640931 0.74314481823134659 1 0 0 forward_v I I I I #
loop $-1 $-1 $372 $90 #
coedge $-1 $230 $230 $231 $373 reversed $142 $-1 #
coedge $-1 $231 $231 $230 $373 forward $144 $-1 #
coedge $-1 $232 $232 $145 $233 forward $227 $-1 #
edge $-1 $374 -3.7340330679507494e-016 $374 6.2831853071796004 $232 $375 forward 7 unknown #
face $-1 $376 $377 $51 $-1 $378 forward single #
loop $-1 $-1 $379 $146 #
plane-surface $-1 18.51535029477418 58.569539655730956 106.34278746688702 1 0 0 0 -0.66913061440640931 -0.74314481823134659 forward_v I I I I #
coedge $-1 $380 $381 $382 $383 reversed $147 $-1 #
coedge $-1 $239 $149 $384 $385 reversed $94 $-1 #
coedge $-1 $149 $238 $380 $386 reversed $94 $-1 #
coedge $-1 $382 $387 $149 $241 forward $388 $-1 #
edge $-1 $389 46.193700954931387 $390 53.085325915823191 $240 $391 forward 7 unknown #
loop $-1 $-1 $247 $150 #
plane-surface $-1 28.920731558443258 -10.668641928844842 29.445998169652768 0 0.66913061440640931 0.74314481823134659 1 0 0 forward_v I I I I #
loop $-1 $-1 $392 $96 #
coedge $-1 $245 $245 $246 $393 reversed $151 $-1 #
coedge $-1 $246 $246 $245 $393 forward $153 $-1 #
coedge $-1 $247 $247 $154 $248 forward $242 $-1 #
edge $-1 $394 -3.7340330679507494e-016 $394 6.2831853071796004 $247 $395 forward 7 unknown #
loop $-1 $-1 $254 $155 #
plane-surface $-1 28.920731558443258 -10.668641928844842 29.445998169652768 0 0.66913061440640931 0.74314481823134659 1 0 0 forward_v I I I I #
loop $-1 $-1 $396 $99 #
coedge $-1 $252 $252 $253 $397 reversed $156 $-1 #
coedge $-1 $253 $253 $252 $397 forward $158 $-1 #
coedge $-1 $254 $254 $159 $255 forward $249 $-1 #
edge $-1 $398 -3.7340330679507494e-016 $398 6.2831853071796004 $254 $399 forward 7 unknown #
face $-1 $400 $401 $54 $-1 $402 forward single #
loop $-1 $-1 $403 $160 #
plane-surface $-1 -20.92640312128788 -100.03231546708375 70.404267670946808 -1 0 0 0 -0.75470958851134928 0.65605901945558964 forward_v I I I I #
coedge $-1 $404 $405 $406 $407 reversed $161 $-1 #
coedge $-1 $261 $163 $408 $409 reversed $103 $-1 #
coedge $-1 $163 $260 $404 $410 reversed $103 $-1 #
coedge $-1 $406 $411 $163 $263 forward $412 $-1 #
edge $-1 $413 28.224441056961279 $414 32.683466585845117 $262 $415 forward 7 unknown #
loop $-1 $-1 $269 $164 #
plane-surface $-1 -27.111115046582199 -21.938863444529332 2.5186672496282796 0 -0.75470958851134928 0.65605901945558964 1 0 0 forward_v I I I I #
loop $-1 $-1 $416 $105 #
coedge $-1 $267 $267 $268 $417 reversed $165 $-1 #
coedge $-1 $268 $268 $267 $417 forward $167 $-1 #
coedge $-1 $269 $269 $168 $270 forward $264 $-1 #
edge $-1 $418 -3.0637682555159467e-017 $418 6.2831853071796004 $269 $419 forward 7 unknown #
loop $-1 $-1 $276 $169 #
plane-surface $-1 -27.111115046582199 -21.938863444529332 2.5186672496282796 0 -0.75470958851134928 0.65605901945558964 1 0 0 forward_v I I I I #
loop $-1 $-1 $420 $108 #
coedge $-1 $274 $274 $275 $421 reversed $170 $-1 #
coedge $-1 $275 $275 $274 $421 forward $172 $-1 #
coedge $-1 $276 $276 $173 $277 forward $271 $-1 #
edge $-1 $422 -3.0637682555159467e-017 $422 6.2831853071796004 $276 $423 forward 7 unknown #
face $-1 $424 $425 $57 $-1 $426 reversed single #
loop $-1 $-1 $427 $174 #
plane-surface $-1 33.295826971876537 -100.03231546708375 70.404267670946808 -1 0 0 0 -0.75470958851134928 0.65605901945558964 forward_v I I I I #
coedge $-1 $428 $429 $430 $431 reversed $175 $-1 #
coedge $-1 $283 $177 $432 $433 reversed $112 $-1 #
coedge $-1 $177 $282 $428 $434 reversed $112 $-1 #
coedge $-1 $430 $435 $177 $285 forward $425 $-1 #
edge $-1 $436 28.224441056961279 $437 32.683466585845117 $284 $438 forward 7 unknown #
loop $-1 $-1 $291 $178 #
plane-surface $-1 27.111115046582221 -21.938863444529332 2.5186672496282796 0 -0.75470958851134928 0.65605901945558964 1 0 0 forward_v I I I I #
loop $-1 $-1 $439 $114 #
coedge $-1 $289 $289 $290 $440 reversed $179 $-1 #
coedge $-1 $290 $290 $289 $440 forward $181 $-1 #
coedge $-1 $291 $291 $182 $292 forward $286 $-1 #
edge $-1 $441 -3.0637682555159467e-017 $441 6.2831853071796004 $291 $442 forward 7 unknown #
loop $-1 $-1 $298 $183 #
plane-surface $-1 27.111115046582221 -21.938863444529332 2.5186672496282796 0 -0.75470958851134928 0.65605901945558964 1 0 0 forward_v I I I I #
loop $-1 $-1 $443 $117 #
coedge $-1 $296 $296 $297 $444 reversed $184 $-1 #
coedge $-1 $297 $297 $296 $444 forward $186 $-1 #
coedge $-1 $298 $298 $187 $299 forward $293 $-1 #
edge $-1 $445 -3.0637682555159467e-017 $445 6.2831853071796004 $298 $446 forward 7 unknown #
face $-1 $447 $448 $45 $-1 $449 reversed single #
loop $-1 $-1 $450 $188 #
plane-surface $-1 -51.737418744468521 0 0 1 0 0 0 0 -1 forward_v I I I I #
coedge $-1 $451 $311 $452 $453 forward $189 $-1 #
coedge $-1 $454 $191 $451 $455 forward $121 $-1 #
coedge $-1 $191 $454 $456 $457 forward $121 $-1 #
coedge $-1 $314 $313 $191 $307 reversed $315 $-1 #
edge $-1 $458 -21.938863444529325 $459 21.938863444529325 $306 $460 forward 7 unknown #
coedge $-1 $193 $192 $461 $462 forward $76 $-1 #
coedge $-1 $463 $464 $192 $310 reversed $448 $-1 #
edge $-1 $317 -51.737418744468521 $465 51.737418744468521 $309 $466 forward 7 unknown #
coedge $-1 $303 $467 $193 $312 reversed $189 $-1 #
edge $-1 $468 -51.737418744468521 $316 51.737418744468521 $311 $469 forward 7 unknown #
coedge $-1 $306 $194 $467 $470 forward $315 $-1 #
coedge $-1 $194 $306 $463 $471 reversed $315 $-1 #
loop $-1 $-1 $313 $447 #
vertex $-1 $195 $472 #
vertex $-1 $195 $473 #
straight-curve $-1 51.737418744468521 0 6.9776927785121252 0 1 0 I I #
face $-1 $474 $475 $46 $-1 $476 reversed single #
loop $-1 $-1 $324 $196 #
plane-surface $-1 0 -21.938863444529325 0 0 1 0 0 0 1 forward_v I I I I #
coedge $-1 $477 $478 $323 $479 forward $197 $-1 #
coedge $-1 $331 $199 $322 $479 reversed $125 $-1 #
coedge $-1 $329 $480 $199 $325 forward $320 $-1 #
edge $-1 $481 -4.5287072398493882 $332 -0.36926383747608638 $324 $482 forward 7 unknown #
coedge $-1 $201 $200 $483 $484 reversed $79 $-1 #
coedge $-1 $485 $486 $200 $328 forward $487 $-1 #
edge $-1 $488 -27.796054506871386 $333 -20.086673968322884 $327 $489 forward 7 unknown #
coedge $-1 $490 $324 $201 $330 forward $320 $-1 #
edge $-1 $332 20.086673968322884 $491 27.796054506871386 $329 $492 forward 7 unknown #
coedge $-1 $202 $323 $485 $493 reversed $125 $-1 #
vertex $-1 $330 $494 #
vertex $-1 $328 $495 #
straight-curve $-1 -44.028038205920019 0 -2.8182493761388234 0 1 0 I I #
face $-1 $496 $497 $47 $-1 $498 reversed single #
loop $-1 $-1 $499 $204 #
plane-surface $-1 0 0 -6.9776927785121252 0 0 1 1 0 0 forward_v I I I I #
coedge $-1 $500 $501 $209 $346 forward $205 $-1 #
coedge $-1 $502 $207 $499 $503 reversed $129 $-1 #
coedge $-1 $207 $502 $343 $504 reversed $129 $-1 #
coedge $-1 $344 $505 $207 $342 forward $497 $-1 #
edge $-1 $506 -4.5287072398493882 $507 -0.36926383747608638 $341 $508 forward 7 unknown #
coedge $-1 $209 $208 $340 $504 forward $82 $-1 #
coedge $-1 $509 $341 $208 $345 forward $497 $-1 #
edge $-1 $507 20.086673968322881 $350 27.796054506871382 $344 $510 forward 7 unknown #
edge $-1 $351 -27.796054506871382 $511 -20.086673968322881 $338 $512 forward 7 unknown #
coedge $-1 $513 $210 $501 $514 forward $349 $-1 #
coedge $-1 $210 $513 $509 $515 reversed $349 $-1 #
loop $-1 $-1 $210 $496 #
vertex $-1 $515 $516 #
vertex $-1 $514 $517 #
straight-curve $-1 51.737418744468521 0 -2.8182493761388234 0 -1 0 I I #
face $-1 $-1 $518 $48 $-1 $519 forward single #
loop $-1 $-1 $218 $212 #
plane-surface $-1 0 21.938863444529325 0 0 -1 0 0 0 -1 forward_v I I I I #
coedge $-1 $520 $521 $522 $523 reversed $213 $-1 #
coedge $-1 $524 $215 $217 $363 forward $133 $-1 #
coedge $-1 $215 $524 $520 $525 forward $133 $-1 #
coedge $-1 $522 $218 $215 $360 forward $354 $-1 #
edge $-1 $366 -2.8517279399306972 $526 17.959034587407459 $359 $527 forward 7 unknown #
coedge $-1 $528 $529 $216 $362 forward $518 $-1 #
edge $-1 $530 -14.999831145729292 $365 -7.3459063833361533 $361 $531 forward 7 unknown #
edge $-1 $366 -43.877726889058657 $530 -33.578355118413526 $217 $532 forward 7 unknown #
coedge $-1 $218 $522 $528 $533 reversed $354 $-1 #
vertex $-1 $533 $534 #
vertex $-1 $219 $535 #
straight-curve $-1 -4.7019253838076835 21.938863444529325 53.171393733443509 0 0 -1 I I #
coedge $-1 $368 $368 $-1 $536 reversed $222 $-1 #
edge $-1 $537 0 $537 6.2831853071796004 $223 $538 forward 7 unknown #
vertex $-1 $226 $539 #
ellipse-curve $-1 -19.566755760477797 18.111901063332748 3.5318802980662278 0 0.66913061440640931 0.74314481823134659 1.5 0 0 1 I I #
coedge $-1 $372 $372 $-1 $540 reversed $229 $-1 #
edge $-1 $541 0 $541 6.2831853071796004 $230 $542 forward 7 unknown #
vertex $-1 $233 $543 #
ellipse-curve $-1 -10.647857534475733 18.111901063332748 3.5318802980662278 0 0.66913061440640931 0.74314481823134659 1.5 0 0 1 I I #
face $-1 $-1 $388 $51 $-1 $544 reversed single #
loop $-1 $-1 $545 $234 #
plane-surface $-1 0 0 6.9776927785121252 0 0 1 1 0 0 forward_v I I I I #
coedge $-1 $546 $547 $548 $549 reversed $235 $-1 #
coedge $-1 $550 $237 $239 $386 forward $147 $-1 #
coedge $-1 $237 $550 $546 $551 forward $147 $-1 #
coedge $-1 $548 $240 $237 $383 forward $388 $-1 #
edge $-1 $390 -24.865747042890707 $552 -4.054984515552551 $382 $553 forward 7 unknown #
coedge $-1 $554 $555 $238 $385 forward $377 $-1 #
edge $-1 $556 -14.999831145729292 $389 -7.3459063833361533 $384 $557 forward 7 unknown #
edge $-1 $390 -43.877726889058657 $556 -33.578355118413526 $239 $558 forward 7 unknown #
coedge $-1 $240 $548 $554 $559 reversed $388 $-1 #
loop $-1 $-1 $548 $376 #
vertex $-1 $559 $560 #
vertex $-1 $241 $561 #
straight-curve $-1 39.326112822112336 21.938863444529325 53.171393733443509 0 0 -1 I I #
coedge $-1 $392 $392 $-1 $562 reversed $244 $-1 #
edge $-1 $563 0 $563 6.2831853071796004 $245 $564 forward 7 unknown #
vertex $-1 $248 $565 #
ellipse-curve $-1 24.461282445442215 18.111901063332748 3.5318802980662278 0 0.66913061440640931 0.74314481823134659 1.5 0 0 1 I I #
coedge $-1 $396 $396 $-1 $566 reversed $251 $-1 #
edge $-1 $567 0 $567 6.2831853071796004 $252 $568 forward 7 unknown #
vertex $-1 $255 $569 #
ellipse-curve $-1 33.380180671444286 18.111901063332748 3.5318802980662278 0 0.66913061440640931 0.74314481823134659 1.5 0 0 1 I I #
face $-1 $-1 $412 $54 $-1 $570 reversed single #
loop $-1 $-1 $571 $256 #
plane-surface $-1 0 0 6.9776927785121252 0 0 1 1 0 0 forward_v I I I I #
coedge $-1 $572 $573 $574 $575 reversed $257 $-1 #
coedge $-1 $576 $259 $261 $410 forward $161 $-1 #
coedge $-1 $259 $576 $572 $577 forward $161 $-1 #
coedge $-1 $574 $262 $259 $407 forward $412 $-1 #
edge $-1 $414 -19.740269448585423 $578 -7.3708455979967802 $406 $579 forward 7 unknown #
coedge $-1 $580 $581 $260 $409 forward $401 $-1 #
edge $-1 $582 -31.95346594595047 $413 -28.077294289012549 $408 $583 forward 7 unknown #
edge $-1 $414 1.0694430631949516e-014 $582 5.9082666985577754 $261 $584 forward 7 unknown #
coedge $-1 $262 $574 $580 $585 reversed $412 $-1 #
loop $-1 $-1 $574 $400 #
vertex $-1 $585 $586 #
vertex $-1 $263 $587 #
straight-curve $-1 -33.295826971876522 -21.938863444529325 35.202133835473404 0 0 -1 I I #
coedge $-1 $416 $416 $-1 $588 reversed $266 $-1 #
edge $-1 $589 0 $589 6.2831853071796004 $267 $590 forward 7 unknown #
vertex $-1 $270 $591 #
ellipse-curve $-1 -29.761705871708337 -20.000777616060365 4.7481800140702051 0 -0.75470958851134928 0.65605901945558964 1 0 0 1 I I #
coedge $-1 $420 $420 $-1 $592 reversed $273 $-1 #
edge $-1 $593 0 $593 6.2831853071796004 $274 $594 forward 7 unknown #
vertex $-1 $277 $595 #
ellipse-curve $-1 -24.460524221456062 -20.000777616060365 4.7481800140702051 0 -0.75470958851134928 0.65605901945558964 1 0 0 1 I I #
face $-1 $-1 $596 $57 $-1 $597 forward single #
loop $-1 $-1 $284 $278 #
plane-surface $-1 0 -21.938863444529325 0 0 1 0 0 0 1 forward_v I I I I #
coedge $-1 $598 $599 $600 $601 reversed $279 $-1 #
coedge $-1 $602 $281 $283 $434 forward $175 $-1 #
coedge $-1 $281 $602 $598 $603 forward $175 $-1 #
coedge $-1 $600 $284 $281 $431 forward $425 $-1 #
edge $-1 $437 7.3708455979967908 $604 19.740269448585426 $430 $605 forward 7 unknown #
coedge $-1 $606 $607 $282 $433 forward $596 $-1 #
edge $-1 $608 -31.95346594595047 $436 -28.077294289012549 $432 $609 forward 7 unknown #
edge $-1 $437 1.0694430631949516e-014 $608 5.9082666985577754 $283 $610 forward 7 unknown #
coedge $-1 $284 $600 $606 $611 reversed $425 $-1 #
vertex $-1 $611 $612 #
vertex $-1 $285 $613 #
straight-curve $-1 20.926403121287901 -21.938863444529325 35.202133835473404 0 0 -1 I I #
coedge $-1 $439 $439 $-1 $614 reversed $288 $-1 #
edge $-1 $615 0 $615 6.2831853071796004 $289 $616 forward 7 unknown #
vertex $-1 $292 $617 #
ellipse-curve $-1 24.460524221456076 -20.000777616060365 4.7481800140702051 0 -0.75470958851134928 0.65605901945558964 1 0 0 1 I I #
coedge $-1 $443 $443 $-1 $618 reversed $295 $-1 #
edge $-1 $619 0 $619 6.2831853071796004 $296 $620 forward 7 unknown #
vertex $-1 $299 $621 #
ellipse-curve $-1 29.761705871708365 -20.000777616060365 4.7481800140702051 0 -0.75470958851134928 0.65605901945558964 1 0 0 1 I I #
face $-1 $-1 $315 $45 $-1 $622 reversed single #
loop $-1 $-1 $463 $300 #
plane-surface $-1 0 21.938863444529325 0 0 -1 0 0 0 -1 forward_v I I I I #
coedge $-1 $623 $461 $464 $624 forward $301 $-1 #
coedge $-1 $467 $303 $304 $455 reversed $189 $-1 #
coedge $-1 $461 $623 $303 $453 reversed $301 $-1 #
edge $-1 $468 -6.9776927785121252 $625 6.9776927785121252 $452 $626 forward 7 unknown #
coedge $-1 $305 $304 $623 $627 forward $121 $-1 #
edge $-1 $459 -51.737418744468521 $625 51.737418744468521 $451 $628 forward 7 unknown #
coedge $-1 $464 $463 $305 $457 reversed $448 $-1 #
edge $-1 $629 -51.737418744468521 $458 51.737418744468521 $456 $630 forward 7 unknown #
vertex $-1 $307 $631 #
vertex $-1 $470 $632 #
straight-curve $-1 51.737418744468521 0 -6.9776927785121252 0 -1 0 I I #
coedge $-1 $450 $452 $308 $462 reversed $301 $-1 #
edge $-1 $465 -21.938863444529325 $468 21.938863444529325 $461 $633 forward 7 unknown #
coedge $-1 $456 $309 $314 $471 forward $448 $-1 #
coedge $-1 $309 $456 $450 $624 reversed $448 $-1 #
vertex $-1 $310 $634 #
straight-curve $-1 0 21.938863444529325 6.9776927785121252 -1 0 0 I I #
coedge $-1 $311 $451 $313 $470 reversed $189 $-1 #
vertex $-1 $462 $635 #
straight-curve $-1 0 -21.938863444529325 6.9776927785121252 1 0 0 I I #
edge $-1 $316 -6.9776927785121252 $459 6.9776927785121252 $313 $636 forward 7 unknown #
edge $-1 $317 -6.9776927785121252 $458 6.9776927785121252 $314 $637 forward 7 unknown #
point $-1 51.737418744468521 -21.938863444529325 6.9776927785121252 #
point $-1 51.737418744468521 21.938863444529325 6.9776927785121252 #
face $-1 $-1 $487 $46 $-1 $638 reversed single #
loop $-1 $-1 $483 $319 #
plane-surface $-1 -51.737418744468521 0 0 1 0 0 0 0 -1 forward_v I I I I #
coedge $-1 $639 $322 $480 $640 forward $197 $-1 #
coedge $-1 $322 $639 $641 $642 forward $197 $-1 #
edge $-1 $643 -21.938863444529325 $481 21.938863444529325 $322 $644 forward 7 unknown #
coedge $-1 $324 $490 $477 $640 reversed $320 $-1 #
vertex $-1 $640 $645 #
straight-curve $-1 -44.028038205920019 -21.938863444529325 -2.448985538662737 0 0 1 I I #
coedge $-1 $646 $647 $326 $484 forward $475 $-1 #
edge $-1 $491 -21.938863444529325 $488 21.938863444529325 $483 $648 forward 7 unknown #
coedge $-1 $641 $327 $331 $493 forward $487 $-1 #
coedge $-1 $327 $641 $646 $649 reversed $487 $-1 #
loop $-1 $-1 $485 $474 #
vertex $-1 $649 $650 #
straight-curve $-1 -23.941364237597135 21.938863444529325 -2.8182493761388234 1 0 0 I I #
coedge $-1 $480 $329 $647 $651 forward $320 $-1 #
vertex $-1 $651 $652 #
straight-curve $-1 -23.941364237597135 -21.938863444529325 -2.8182493761388234 -1 0 0 I I #
edge $-1 $333 0.36926383747608638 $643 4.5287072398493882 $485 $653 forward 7 unknown #
point $-1 -44.028038205920019 -21.938863444529325 -2.8182493761388234 #
point $-1 -44.028038205920019 21.938863444529325 -2.8182493761388234 #
face $-1 $-1 $349 $47 $-1 $654 reversed single #
loop $-1 $-1 $344 $335 #
plane-surface $-1 0 21.938863444529325 0 0 -1 0 0 0 -1 forward_v I I I I #
coedge $-1 $655 $656 $339 $503 forward $336 $-1 #
coedge $-1 $657 $338 $502 $658 forward $205 $-1 #
coedge $-1 $338 $657 $347 $514 reversed $205 $-1 #
coedge $-1 $340 $339 $500 $658 reversed $129 $-1 #
edge $-1 $659 -21.938863444529325 $506 21.938863444529325 $499 $660 forward 7 unknown #
edge $-1 $507 -21.938863444529325 $511 21.938863444529325 $340 $661 forward 7 unknown #
coedge $-1 $341 $509 $655 $662 reversed $497 $-1 #
vertex $-1 $662 $663 #
vertex $-1 $345 $664 #
straight-curve $-1 44.028038205920012 21.938863444529325 -2.448985538662737 0 0 1 I I #
coedge $-1 $505 $344 $348 $515 forward $497 $-1 #
straight-curve $-1 23.941364237597131 21.938863444529325 -2.8182493761388234 1 0 0 I I #
vertex $-1 $346 $665 #
straight-curve $-1 23.941364237597131 -21.938863444529325 -2.8182493761388234 -1 0 0 I I #
coedge $-1 $348 $347 $666 $667 reversed $349 $-1 #
edge $-1 $351 2.8182493761388234 $668 6.9776927785121252 $347 $669 forward 7 unknown #
edge $-1 $350 2.8182493761388234 $670 6.9776927785121252 $348 $671 forward 7 unknown #
point $-1 51.737418744468513 21.938863444529325 -2.8182493761388234 #
point $-1 51.737418744468513 -21.938863444529325 -2.8182493761388234 #
loop $-1 $-1 $361 $353 #
plane-surface $-1 0 0 6.9776927785121252 0 0 1 1 0 0 forward_v I I I I #
coedge $-1 $521 $356 $358 $525 reversed $213 $-1 #
coedge $-1 $356 $520 $672 $673 reversed $213 $-1 #
coedge $-1 $364 $359 $356 $523 forward $354 $-1 #
edge $-1 $526 -53.085325915823191 $674 -46.193700954931387 $522 $675 forward 7 unknown #
coedge $-1 $358 $357 $529 $676 reversed $133 $-1 #
edge $-1 $677 33.578355118413526 $526 43.877726889058657 $520 $678 forward 7 unknown #
vertex $-1 $360 $679 #
straight-curve $-1 -7.5536533237383807 21.938863444529321 0.086067817620321563 -1 0 0 I I #
coedge $-1 $672 $361 $364 $533 forward $518 $-1 #
coedge $-1 $361 $672 $524 $676 forward $518 $-1 #
vertex $-1 $362 $680 #
straight-curve $-1 -4.7019253838076835 29.284769827865478 6.9776927785121288 0 1 0 I I #
straight-curve $-1 -4.7019253838076835 -10.668641928844842 29.445998169652768 0 -0.74314481823134659 0.66913061440640931 I I #
edge $-1 $365 4.7019253838076835 $674 25.512687911145839 $364 $681 forward 7 unknown #
point $-1 -4.7019253838076835 21.938863444529325 6.9776927785121252 #
point $-1 -4.7019253838076835 21.938863444529325 0.086067817620321563 #
edge $-1 $682 1 $682 0 $368 $-1 forward 7 unknown #
vertex $-1 $369 $683 #
ellipse-curve $-1 -19.566755760477797 16.117680680616221 1.3170742319265001 0 0.66913061440640931 0.74314481823134659 1.5 0 0 1 I I #
point $-1 -18.066755760477797 18.111901063332745 3.5318802980662247 #
edge $-1 $684 1 $684 0 $372 $-1 forward 7 unknown #
vertex $-1 $373 $685 #
ellipse-curve $-1 -10.647857534475733 16.117680680616221 1.3170742319265001 0 0.66913061440640931 0.74314481823134659 1.5 0 0 1 I I #
point $-1 -9.1478575344757331 18.111901063332745 3.5318802980662247 #
plane-surface $-1 0 21.938863444529325 0 0 -1 0 0 0 -1 forward_v I I I I #
coedge $-1 $555 $554 $547 $686 forward $377 $-1 #
coedge $-1 $547 $379 $381 $551 reversed $235 $-1 #
coedge $-1 $379 $546 $545 $686 reversed $235 $-1 #
coedge $-1 $387 $382 $379 $549 forward $388 $-1 #
edge $-1 $552 -53.085325915823191 $687 -46.193700954931387 $548 $688 forward 7 unknown #
coedge $-1 $381 $380 $555 $689 reversed $147 $-1 #
edge $-1 $690 33.578355118413526 $552 43.877726889058657 $546 $691 forward 7 unknown #
vertex $-1 $383 $692 #
straight-curve $-1 14.460365779221629 21.938863444529321 0.086067817620321563 -1 0 0 I I #
coedge $-1 $545 $384 $387 $559 forward $377 $-1 #
coedge $-1 $384 $545 $550 $689 forward $377 $-1 #
vertex $-1 $385 $693 #
straight-curve $-1 39.326112822112336 29.284769827865478 6.9776927785121288 0 1 0 I I #
straight-curve $-1 39.326112822112336 -10.668641928844842 29.445998169652768 0 -0.74314481823134659 0.66913061440640931 I I #
edge $-1 $389 -39.326112822112336 $687 -18.51535029477418 $387 $694 forward 7 unknown #
point $-1 39.326112822112336 21.938863444529325 6.9776927785121252 #
point $-1 39.326112822112336 21.938863444529325 0.086067817620321563 #
edge $-1 $695 1 $695 0 $392 $-1 forward 7 unknown #
vertex $-1 $393 $696 #
ellipse-curve $-1 24.461282445442215 16.117680680616221 1.3170742319265001 0 0.66913061440640931 0.74314481823134659 1.5 0 0 1 I I #
point $-1 25.961282445442215 18.111901063332745 3.5318802980662247 #
edge $-1 $697 1 $697 0 $396 $-1 forward 7 unknown #
vertex $-1 $397 $698 #
ellipse-curve $-1 33.380180671444286 16.117680680616221 1.3170742319265001 0 0.66913061440640931 0.74314481823134659 1.5 0 0 1 I I #
point $-1 34.880180671444286 18.111901063332745 3.5318802980662247 #
plane-surface $-1 0 -21.938863444529325 0 0 1 0 0 0 1 forward_v I I I I #
coedge $-1 $581 $580 $573 $699 forward $401 $-1 #
coedge $-1 $573 $403 $405 $577 reversed $257 $-1 #
coedge $-1 $403 $572 $571 $699 reversed $257 $-1 #
coedge $-1 $411 $406 $403 $575 forward $412 $-1 #
edge $-1 $578 -32.683466585845117 $700 -28.224441056961279 $574 $701 forward 7 unknown #
coedge $-1 $405 $404 $581 $702 reversed $161 $-1 #
edge $-1 $703 -5.9082666985577754 $578 -1.0694430631949516e-014 $572 $704 forward 7 unknown #
vertex $-1 $407 $705 #
straight-curve $-1 -13.5555575232911 -21.938863444529325 2.5186672496282889 1 0 0 I I #
coedge $-1 $571 $408 $411 $585 forward $401 $-1 #
coedge $-1 $408 $571 $576 $702 forward $401 $-1 #
vertex $-1 $409 $706 #
straight-curve $-1 -33.295826971876522 -50.016157733541874 6.9776927785121252 0 -1 0 I I #
straight-curve $-1 -33.295826971876522 -21.938863444529332 2.5186672496282796 0 0.65605901945558964 0.75470958851134928 I I #
edge $-1 $413 -33.295826971876522 $700 -20.92640312128788 $411 $707 forward 7 unknown #
point $-1 -33.295826971876522 -21.938863444529325 6.9776927785121252 #
point $-1 -33.295826971876522 -21.938863444529325 2.5186672496282876 #
edge $-1 $708 1 $708 0 $416 $-1 forward 7 unknown #
vertex $-1 $417 $709 #
ellipse-curve $-1 -29.761705871708337 -17.824794655611697 2.8566269331031471 0 -0.75470958851134928 0.65605901945558964 1 0 0 1 I I #
point $-1 -28.761705871708337 -20.000777616060358 4.7481800140701989 #
edge $-1 $710 1 $710 0 $420 $-1 forward 7 unknown #
vertex $-1 $421 $711 #
ellipse-curve $-1 -24.460524221456062 -17.824794655611697 2.8566269331031471 0 -0.75470958851134928 0.65605901945558964 1 0 0 1 I I #
point $-1 -23.460524221456062 -20.000777616060358 4.7481800140701989 #
loop $-1 $-1 $432 $424 #
plane-surface $-1 0 0 6.9776927785121252 0 0 1 1 0 0 forward_v I I I I #
coedge $-1 $599 $427 $429 $603 reversed $279 $-1 #
coedge $-1 $427 $598 $712 $713 reversed $279 $-1 #
coedge $-1 $435 $430 $427 $601 forward $425 $-1 #
edge $-1 $604 -32.683466585845117 $714 -28.224441056961279 $600 $715 forward 7 unknown #
coedge $-1 $429 $428 $607 $716 reversed $175 $-1 #
edge $-1 $717 -5.9082666985577754 $604 -1.0694430631949516e-014 $598 $718 forward 7 unknown #
vertex $-1 $431 $719 #
straight-curve $-1 13.55555752329111 -21.938863444529325 2.5186672496282889 1 0 0 I I #
coedge $-1 $712 $432 $435 $611 forward $596 $-1 #
coedge $-1 $432 $712 $602 $716 forward $596 $-1 #
vertex $-1 $433 $720 #
straight-curve $-1 20.926403121287901 -50.016157733541874 6.9776927785121252 0 -1 0 I I #
straight-curve $-1 20.926403121287901 -21.938863444529332 2.5186672496282796 0 0.65605901945558964 0.75470958851134928 I I #
edge $-1 $436 20.926403121287901 $714 33.295826971876537 $435 $721 forward 7 unknown #
point $-1 20.926403121287901 -21.938863444529325 6.9776927785121252 #
point $-1 20.926403121287901 -21.938863444529325 2.5186672496282876 #
edge $-1 $722 1 $722 0 $439 $-1 forward 7 unknown #
vertex $-1 $440 $723 #
ellipse-curve $-1 24.460524221456076 -17.824794655611697 2.8566269331031471 0 -0.75470958851134928 0.65605901945558964 1 0 0 1 I I #
point $-1 25.460524221456076 -20.000777616060358 4.7481800140701989 #
edge $-1 $724 1 $724 0 $443 $-1 forward 7 unknown #
vertex $-1 $444 $725 #
ellipse-curve $-1 29.761705871708365 -17.824794655611697 2.8566269331031471 0 -0.75470958851134928 0.65605901945558964 1 0 0 1 I I #
point $-1 30.761705871708365 -20.000777616060358 4.7481800140701989 #
plane-surface $-1 51.737418744468521 0 0 -1 0 0 0 0 1 forward_v I I I I #
coedge $-1 $452 $450 $454 $627 reversed $301 $-1 #
edge $-1 $465 -6.9776927785121252 $629 6.9776927785121252 $464 $726 forward 7 unknown #
vertex $-1 $627 $727 #
straight-curve $-1 -51.737418744468521 -21.938863444529325 0 0 0 -1 I I #
edge $-1 $625 -21.938863444529325 $629 21.938863444529325 $623 $728 forward 7 unknown #
straight-curve $-1 0 -21.938863444529325 -6.9776927785121252 -1 0 0 I I #
vertex $-1 $457 $729 #
straight-curve $-1 0 21.938863444529325 -6.9776927785121252 1 0 0 I I #
point $-1 51.737418744468521 21.938863444529325 -6.9776927785121252 #
point $-1 51.737418744468521 -21.938863444529325 -6.9776927785121252 #
straight-curve $-1 -51.737418744468521 0 6.9776927785121252 0 -1 0 I I #
point $-1 -51.737418744468521 21.938863444529325 6.9776927785121252 #
point $-1 -51.737418744468521 -21.938863444529325 6.9776927785121252 #
straight-curve $-1 51.737418744468521 -21.938863444529325 0 0 0 -1 I I #
straight-curve $-1 51.737418744468521 21.938863444529325 0 0 0 -1 I I #
plane-surface $-1 0 21.938863444529325 0 0 -1 0 0 0 -1 forward_v I I I I #
coedge $-1 $478 $477 $730 $731 forward $197 $-1 #
edge $-1 $481 44.028038205920019 $732 51.737418744468521 $480 $733 forward 7 unknown #
coedge $-1 $486 $485 $478 $642 reversed $487 $-1 #
edge $-1 $734 -51.737418744468521 $643 -44.028038205920019 $641 $735 forward 7 unknown #
vertex $-1 $493 $736 #
straight-curve $-1 -44.028038205920019 0 -6.9776927785121252 0 -1 0 I I #
point $-1 -44.028038205920019 -21.938863444529325 -6.9776927785121252 #
coedge $-1 $730 $483 $486 $649 forward $475 $-1 #
coedge $-1 $483 $730 $490 $651 reversed $475 $-1 #
straight-curve $-1 -51.737418744468521 0 -2.8182493761388234 0 1 0 I I #
edge $-1 $488 2.8182493761388234 $734 6.9776927785121252 $486 $737 forward 7 unknown #
point $-1 -51.737418744468521 21.938863444529325 -2.8182493761388234 #
edge $-1 $491 2.8182493761388234 $732 6.9776927785121252 $647 $738 forward 7 unknown #
point $-1 -51.737418744468521 -21.938863444529325 -2.8182493761388234 #
straight-curve $-1 -44.028038205920019 21.938863444529325 -2.448985538662737 0 0 -1 I I #
plane-surface $-1 51.737418744468521 0 0 -1 0 0 0 0 1 forward_v I I I I #
coedge $-1 $666 $499 $505 $662 forward $336 $-1 #
coedge $-1 $499 $666 $657 $739 forward $336 $-1 #
coedge $-1 $501 $500 $656 $739 reversed $205 $-1 #
edge $-1 $511 0.36926383747608638 $659 4.5287072398493882 $500 $740 forward 7 unknown #
vertex $-1 $503 $741 #
straight-curve $-1 44.028038205920012 0 -6.9776927785121252 0 1 0 I I #
straight-curve $-1 44.028038205920012 0 -2.8182493761388234 0 -1 0 I I #
edge $-1 $506 44.028038205920012 $670 51.737418744468521 $505 $742 forward 7 unknown #
point $-1 44.028038205920012 21.938863444529325 -6.9776927785121252 #
point $-1 44.028038205920012 21.938863444529325 -2.8182493761388234 #
point $-1 44.028038205920012 -21.938863444529325 -2.8182493761388234 #
coedge $-1 $656 $655 $513 $667 forward $336 $-1 #
edge $-1 $670 -21.938863444529325 $668 21.938863444529325 $513 $743 forward 7 unknown #
vertex $-1 $514 $744 #
straight-curve $-1 51.737418744468521 -21.938863444529325 0 0 0 -1 I I #
vertex $-1 $667 $745 #
straight-curve $-1 51.737418744468521 21.938863444529325 0 0 0 -1 I I #
coedge $-1 $529 $528 $521 $673 forward $518 $-1 #
edge $-1 $674 7.3459063833361533 $677 14.999831145729292 $672 $746 forward 7 unknown #
vertex $-1 $673 $747 #
straight-curve $-1 -25.512687911145839 21.938863444529325 53.171393733443509 0 0 1 I I #
edge $-1 $677 -17.959034587407459 $530 2.8517279399306972 $529 $748 forward 7 unknown #
vertex $-1 $676 $749 #
straight-curve $-1 -25.512687911145839 -10.668641928844842 29.445998169652768 0 0.74314481823134659 -0.66913061440640931 I I #
point $-1 -25.512687911145839 21.938863444529325 0.086067817620321563 #
point $-1 -4.7019253838076835 14.284938682136186 6.9776927785121252 #
straight-curve $-1 0 21.938863444529325 6.9776927785121252 -1 0 0 I I #
vertex $-1 $536 $750 #
point $-1 -18.066755760477797 16.117680680616221 1.3170742319265001 #
vertex $-1 $540 $751 #
point $-1 -9.1478575344757331 16.117680680616221 1.3170742319265001 #
edge $-1 $687 7.3459063833361533 $690 14.999831145729292 $545 $752 forward 7 unknown #
vertex $-1 $686 $753 #
straight-curve $-1 18.51535029477418 21.938863444529325 53.171393733443509 0 0 1 I I #
edge $-1 $690 4.054984515552551 $556 24.865747042890707 $555 $754 forward 7 unknown #
vertex $-1 $689 $755 #
straight-curve $-1 18.51535029477418 -10.668641928844842 29.445998169652768 0 0.74314481823134659 -0.66913061440640931 I I #
point $-1 18.51535029477418 21.938863444529325 0.086067817620321563 #
point $-1 39.326112822112336 14.284938682136186 6.9776927785121252 #
straight-curve $-1 0 21.938863444529325 6.9776927785121252 -1 0 0 I I #
vertex $-1 $562 $756 #
point $-1 25.961282445442215 16.117680680616221 1.3170742319265001 #
vertex $-1 $566 $757 #
point $-1 34.880180671444286 16.117680680616221 1.3170742319265001 #
edge $-1 $700 28.077294289012549 $703 31.95346594595047 $571 $758 forward 7 unknown #
vertex $-1 $575 $759 #
straight-curve $-1 -20.92640312128788 -21.938863444529325 35.202133835473404 0 0 1 I I #
edge $-1 $703 7.3708455979967802 $582 19.740269448585423 $581 $760 forward 7 unknown #
vertex $-1 $702 $761 #
straight-curve $-1 -20.92640312128788 -21.938863444529332 2.5186672496282796 0 -0.65605901945558964 -0.75470958851134928 I I #
point $-1 -20.92640312128788 -21.938863444529325 2.5186672496282876 #
point $-1 -33.295826971876522 -18.062691787591405 6.9776927785121252 #
straight-curve $-1 0 -21.938863444529325 6.9776927785121252 1 0 0 I I #
vertex $-1 $588 $762 #
point $-1 -28.761705871708337 -17.824794655611697 2.8566269331031471 #
vertex $-1 $592 $763 #
point $-1 -23.460524221456062 -17.824794655611697 2.8566269331031471 #
coedge $-1 $607 $606 $599 $713 forward $596 $-1 #
edge $-1 $714 28.077294289012549 $717 31.95346594595047 $712 $764 forward 7 unknown #
vertex $-1 $713 $765 #
straight-curve $-1 33.295826971876537 -21.938863444529325 35.202133835473404 0 0 1 I I #
edge $-1 $717 -19.740269448585426 $608 -7.3708455979967908 $607 $766 forward 7 unknown #
vertex $-1 $716 $767 #
straight-curve $-1 33.295826971876537 -21.938863444529332 2.5186672496282796 0 -0.65605901945558964 -0.75470958851134928 I I #
point $-1 33.295826971876537 -21.938863444529325 2.5186672496282876 #
point $-1 20.926403121287901 -18.062691787591405 6.9776927785121252 #
straight-curve $-1 0 -21.938863444529325 6.9776927785121252 1 0 0 I I #
vertex $-1 $614 $768 #
point $-1 25.460524221456076 -17.824794655611697 2.8566269331031471 #
vertex $-1 $618 $769 #
point $-1 30.761705871708365 -17.824794655611697 2.8566269331031471 #
straight-curve $-1 -51.737418744468521 21.938863444529325 0 0 0 -1 I I #
point $-1 -51.737418744468521 -21.938863444529325 -6.9776927785121252 #
straight-curve $-1 -51.737418744468521 0 -6.9776927785121252 0 1 0 I I #
point $-1 -51.737418744468521 21.938863444529325 -6.9776927785121252 #
coedge $-1 $647 $646 $639 $731 reversed $475 $-1 #
edge $-1 $732 -21.938863444529325 $734 21.938863444529325 $730 $770 forward 7 unknown #
vertex $-1 $731 $771 #
straight-curve $-1 0 -21.938863444529325 -6.9776927785121252 -1 0 0 I I #
vertex $-1 $642 $772 #
straight-curve $-1 0 21.938863444529325 -6.9776927785121252 1 0 0 I I #
point $-1 -44.028038205920019 21.938863444529325 -6.9776927785121252 #
straight-curve $-1 -51.737418744468521 21.938863444529325 0 0 0 -1 I I #
straight-curve $-1 -51.737418744468521 -21.938863444529325 0 0 0 -1 I I #
edge $-1 $668 -51.737418744468521 $659 -44.028038205920012 $657 $773 forward 7 unknown #
straight-curve $-1 44.028038205920012 -21.938863444529325 -2.448985538662737 0 0 -1 I I #
point $-1 44.028038205920012 -21.938863444529325 -6.9776927785121252 #
straight-curve $-1 0 21.938863444529325 -6.9776927785121252 1 0 0 I I #
straight-curve $-1 51.737418744468521 0 -6.9776927785121252 0 -1 0 I I #
point $-1 51.737418744468521 -21.938863444529325 -6.9776927785121252 #
point $-1 51.737418744468521 21.938863444529325 -6.9776927785121252 #
straight-curve $-1 -25.512687911145839 29.284769827865478 6.9776927785121288 0 -1 0 I I #
point $-1 -25.512687911145839 21.938863444529325 6.9776927785121252 #
straight-curve $-1 -7.5536533237383807 14.284938682136186 6.9776927785121217 1 0 0 I I #
point $-1 -25.512687911145839 14.284938682136186 6.9776927785121252 #
point $-1 -19.566755760477797 15.113984759006609 0.20235700457948014 #
point $-1 -10.647857534475733 15.113984759006609 0.20235700457948014 #
straight-curve $-1 18.51535029477418 29.284769827865478 6.9776927785121288 0 -1 0 I I #
point $-1 18.51535029477418 21.938863444529325 6.9776927785121252 #
straight-curve $-1 14.460365779221629 14.284938682136186 6.9776927785121217 1 0 0 I I #
point $-1 18.51535029477418 14.284938682136186 6.9776927785121252 #
point $-1 24.461282445442215 15.113984759006609 0.20235700457948014 #
point $-1 33.380180671444286 15.113984759006609 0.20235700457948014 #
straight-curve $-1 -20.92640312128788 -50.016157733541874 6.9776927785121252 0 1 0 I I #
point $-1 -20.92640312128788 -21.938863444529325 6.9776927785121252 #
straight-curve $-1 -13.5555575232911 -18.062691787591405 6.9776927785121252 -1 0 0 I I #
point $-1 -20.92640312128788 -18.062691787591405 6.9776927785121252 #
point $-1 -29.761705871708337 -17.070085067100351 2.2005679136475571 #
point $-1 -24.460524221456062 -17.070085067100351 2.2005679136475571 #
straight-curve $-1 33.295826971876537 -50.016157733541874 6.9776927785121252 0 1 0 I I #
point $-1 33.295826971876537 -21.938863444529325 6.9776927785121252 #
straight-curve $-1 13.55555752329111 -18.062691787591405 6.9776927785121252 -1 0 0 I I #
point $-1 33.295826971876537 -18.062691787591405 6.9776927785121252 #
point $-1 24.460524221456076 -17.070085067100351 2.2005679136475571 #
point $-1 29.761705871708365 -17.070085067100351 2.2005679136475571 #
straight-curve $-1 -51.737418744468521 0 -6.9776927785121252 0 1 0 I I #
point $-1 -51.737418744468521 -21.938863444529325 -6.9776927785121252 #
point $-1 -51.737418744468521 21.938863444529325 -6.9776927785121252 #
straight-curve $-1 0 -21.938863444529325 -6.9776927785121252 -1 0 0 I I #
End-of-ACIS-data 