500 0 6 0           
7 Unknown 11 ACIS 5.0 NT 24 Fri Mar 26 16:35:04 1999 
-1 9.9999999999999995e-007 1e-010 
body $-1 $6 $-1 $7 #
body $-1 $8 $-1 $9 #
body $-1 $10 $-1 $11 #
body $-1 $12 $-1 $13 #
body $-1 $14 $-1 $15 #
body $-1 $16 $-1 $17 #
lump $-1 $-1 $18 $0 #
transform $-1 1 0 0 0 1 0 0 0 1 75.943479720450455 48.770282928358498 13.991967489383212 1 rotate no_reflect no_shear #
lump $-1 $-1 $19 $1 #
transform $-1 1 0 0 0 1 0 0 0 1 75.943479720450455 48.770282928358498 13.991967489383212 1 rotate no_reflect no_shear #
lump $-1 $-1 $20 $2 #
transform $-1 1 0 0 0 1 0 0 0 1 75.943479720450455 48.770282928358498 13.991967489383212 1 rotate no_reflect no_shear #
lump $-1 $-1 $21 $3 #
transform $-1 1 0 0 0 1 0 0 0 1 75.943479720450455 48.770282928358498 13.991967489383212 1 rotate no_reflect no_shear #
lump $-1 $-1 $22 $4 #
transform $-1 1 0 0 0 1 0 0 0 1 75.943479720450455 48.770282928358498 13.991967489383212 1 rotate no_reflect no_shear #
lump $-1 $-1 $23 $5 #
transform $-1 1 0 0 0 1 0 0 0 1 75.943479720450455 48.770282928358498 13.991967489383212 1 rotate no_reflect no_shear #
shell $-1 $-1 $-1 $24 $-1 $6 #
shell $-1 $-1 $-1 $25 $-1 $8 #
shell $-1 $-1 $-1 $26 $-1 $10 #
shell $-1 $-1 $-1 $27 $-1 $12 #
shell $-1 $-1 $-1 $28 $-1 $14 #
shell $-1 $-1 $-1 $29 $-1 $16 #
face $-1 $30 $31 $18 $-1 $32 reversed single #
face $-1 $33 $34 $19 $-1 $35 forward single #
face $-1 $36 $37 $20 $-1 $38 reversed single #
face $-1 $39 $40 $21 $-1 $41 forward single #
face $-1 $42 $43 $22 $-1 $44 reversed single #
face $-1 $45 $46 $23 $-1 $47 forward single #
face $-1 $48 $49 $18 $-1 $50 forward single #
loop $-1 $-1 $51 $24 #
plane-surface $-1 0 -48.770282928358498 0 0 1 0 0 0 1 forward_v I I I I #
face $-1 $52 $53 $19 $-1 $54 reversed single #
loop $-1 $-1 $55 $25 #
plane-surface $-1 0 -48.770282928358498 0 0 1 0 0 0 1 forward_v I I I I #
face $-1 $56 $57 $20 $-1 $58 reversed single #
loop $-1 $-1 $59 $26 #
plane-surface $-1 42.341265052971053 -4.2948036808684478 220.1147985564655 0 -1 0 -0.5877852598018023 0 -0.80901698891910034 forward_v I I I I #
face $-1 $60 $61 $21 $-1 $62 forward single #
loop $-1 $63 $64 $27 #
cone-surface $-1 70.35418921045806 -14.377185168584134 8.9971049757137216 -0.5877852598018023 0 -0.80901698891910034 2.0225424722977507 0 -1.4694631495045059 1 I I 0 1 2.5 forward I I I I #
face $-1 $65 $66 $22 $-1 $67 reversed single #
loop $-1 $-1 $68 $28 #
plane-surface $-1 42.341265052971053 40.634873769448284 220.1147985564655 0 -1 0 -0.5877852598018023 0 -0.80901698891910034 forward_v I I I I #
face $-1 $69 $70 $23 $-1 $71 forward single #
loop $-1 $72 $73 $29 #
cone-surface $-1 70.35418921045806 30.552492281732597 8.9971049757137216 -0.5877852598018023 0 -0.80901698891910034 2.0225424722977507 0 -1.4694631495045059 1 I I 0 1 2.5 forward I I I I #
face $-1 $74 $75 $18 $-1 $76 reversed single #
loop $-1 $-1 $77 $30 #
plane-surface $-1 0 0 13.991967489383212 0 0 1 1 0 0 forward_v I I I I #
coedge $-1 $78 $79 $80 $81 reversed $31 $-1 #
face $-1 $82 $83 $19 $-1 $84 reversed single #
loop $-1 $-1 $85 $33 #
plane-surface $-1 0 0 -13.991967489383212 0 0 1 1 0 0 forward_v I I I I #
coedge $-1 $86 $87 $88 $89 forward $34 $-1 #
face $-1 $90 $91 $20 $-1 $92 reversed single #
loop $-1 $-1 $93 $36 #
plane-surface $-1 -46.935650862504701 -14.377185168584134 97.235667973510331 0.5877852598018023 0 0.80901698891910034 0.80901698891910034 0 -0.5877852598018023 forward_v I I I I #
coedge $-1 $94 $95 $96 $97 reversed $37 $-1 #
face $-1 $-1 $98 $21 $-1 $99 forward single #
loop $-1 $100 $101 $39 #
cone-surface $-1 68.18217136567668 -14.377185168584134 6.0075789415697063 -0.5877852598018023 0 -0.80901698891910034 1.0112712361488754 0 -0.73473157475225293 1 I I -0.70710678118654746 0.70710678118654746 1.25 forward I I I I #
loop $-1 $-1 $102 $27 #
coedge $-1 $64 $64 $103 $104 reversed $40 $-1 #
face $-1 $105 $106 $22 $-1 $107 reversed single #
loop $-1 $-1 $108 $42 #
plane-surface $-1 -46.935650862504701 30.552492281732597 97.235667973510331 0.5877852598018023 0 0.80901698891910034 0.80901698891910034 0 -0.5877852598018023 forward_v I I I I #
coedge $-1 $109 $110 $111 $112 reversed $43 $-1 #
face $-1 $-1 $113 $23 $-1 $114 forward single #
loop $-1 $115 $116 $45 #
cone-surface $-1 68.18217136567668 30.552492281732597 6.0075789415697063 -0.5877852598018023 0 -0.80901698891910034 1.0112712361488754 0 -0.73473157475225293 1 I I -0.70710678118654746 0.70710678118654746 1.25 forward I I I I #
loop $-1 $-1 $117 $29 #
coedge $-1 $73 $73 $118 $119 reversed $46 $-1 #
face $-1 $120 $121 $18 $-1 $122 reversed single #
loop $-1 $-1 $123 $48 #
plane-surface $-1 0 0 -13.991967489383212 0 0 1 1 0 0 forward_v I I I I #
coedge $-1 $124 $125 $126 $127 forward $49 $-1 #
coedge $-1 $128 $51 $129 $130 reversed $31 $-1 #
coedge $-1 $51 $128 $131 $132 forward $31 $-1 #
coedge $-1 $133 $123 $51 $81 forward $75 $-1 #
edge $-1 $134 -75.943479720450455 $135 75.943479720450455 $51 $136 forward 7 unknown #
face $-1 $137 $138 $19 $-1 $139 reversed single #
loop $-1 $-1 $140 $52 #
plane-surface $-1 -56.671442357948997 -64.945590041506961 0 0 1 0 0 0 1 forward_v I I I I #
coedge $-1 $141 $142 $87 $143 forward $53 $-1 #
coedge $-1 $144 $55 $145 $146 reversed $34 $-1 #
coedge $-1 $55 $144 $85 $143 reversed $34 $-1 #
coedge $-1 $147 $148 $55 $89 reversed $138 $-1 #
edge $-1 $149 -13.991967489383212 $150 13.991967489383212 $88 $151 forward 7 unknown #
face $-1 $152 $153 $20 $-1 $154 forward single #
loop $-1 $-1 $155 $56 #
plane-surface $-1 42.341265052971053 -24.45956665629982 220.1147985564655 0 1 0 0.5877852598018023 0 0.80901698891910034 forward_v I I I I #
coedge $-1 $156 $157 $158 $159 reversed $57 $-1 #
coedge $-1 $95 $59 $160 $161 reversed $37 $-1 #
coedge $-1 $59 $94 $156 $162 reversed $37 $-1 #
coedge $-1 $158 $163 $59 $97 forward $153 $-1 #
edge $-1 $164 -54.772847193964928 $165 -46.468838714038519 $96 $166 forward 7 unknown #
loop $-1 $-1 $103 $60 #
plane-surface $-1 -46.935650862504701 -14.377185168584134 97.235667973510331 0.5877852598018023 0 0.80901698891910034 0.80901698891910034 0 -0.5877852598018023 forward_v I I I I #
loop $-1 $-1 $167 $39 #
coedge $-1 $101 $101 $102 $168 reversed $61 $-1 #
coedge $-1 $102 $102 $101 $168 forward $63 $-1 #
coedge $-1 $103 $103 $64 $104 forward $98 $-1 #
edge $-1 $169 0 $169 6.2831853071796004 $103 $170 forward 7 unknown #
face $-1 $171 $172 $22 $-1 $173 reversed single #
loop $-1 $-1 $174 $65 #
plane-surface $-1 42.341265052971053 20.470110794016911 220.1147985564655 0 1 0 0.5877852598018023 0 0.80901698891910034 forward_v I I I I #
coedge $-1 $175 $176 $177 $178 reversed $66 $-1 #
coedge $-1 $110 $68 $179 $180 reversed $43 $-1 #
coedge $-1 $68 $109 $175 $181 reversed $43 $-1 #
coedge $-1 $177 $182 $68 $112 forward $183 $-1 #
edge $-1 $184 -54.772847193964928 $185 -46.468838714038519 $111 $186 forward 7 unknown #
loop $-1 $-1 $118 $69 #
plane-surface $-1 -46.935650862504701 30.552492281732597 97.235667973510331 0.5877852598018023 0 0.80901698891910034 0.80901698891910034 0 -0.5877852598018023 forward_v I I I I #
loop $-1 $-1 $187 $45 #
coedge $-1 $116 $116 $117 $188 reversed $70 $-1 #
coedge $-1 $117 $117 $116 $188 forward $72 $-1 #
coedge $-1 $118 $118 $73 $119 forward $113 $-1 #
edge $-1 $189 0 $189 6.2831853071796004 $118 $190 forward 7 unknown #
face $-1 $191 $192 $18 $-1 $193 reversed single #
loop $-1 $-1 $194 $74 #
plane-surface $-1 -75.943479720450455 0 0 1 0 0 0 0 -1 forward_v I I I I #
coedge $-1 $80 $195 $196 $197 forward $75 $-1 #
coedge $-1 $198 $77 $199 $200 forward $49 $-1 #
coedge $-1 $77 $198 $128 $201 forward $49 $-1 #
coedge $-1 $129 $202 $77 $127 reversed $203 $-1 #
edge $-1 $204 -48.770282928358498 $205 48.770282928358498 $126 $206 forward 7 unknown #
coedge $-1 $79 $78 $125 $201 reversed $31 $-1 #
coedge $-1 $196 $126 $78 $130 forward $203 $-1 #
edge $-1 $204 -13.991967489383212 $134 13.991967489383212 $129 $207 forward 7 unknown #
coedge $-1 $208 $209 $79 $132 reversed $121 $-1 #
edge $-1 $210 -13.991967489383212 $135 13.991967489383212 $131 $211 forward 7 unknown #
coedge $-1 $195 $80 $209 $212 forward $75 $-1 #
vertex $-1 $130 $213 #
vertex $-1 $212 $214 #
straight-curve $-1 0 -48.770282928358498 -13.991967489383212 -1 0 0 I I #
face $-1 $215 $216 $19 $-1 $217 reversed single #
loop $-1 $-1 $88 $82 #
plane-surface $-1 -58.804334548650623 -56.857936484932729 0 1 0 0 0 0 -1 forward_v I I I I #
coedge $-1 $218 $219 $220 $221 forward $83 $-1 #
coedge $-1 $222 $85 $223 $224 forward $53 $-1 #
coedge $-1 $85 $222 $147 $225 forward $53 $-1 #
edge $-1 $149 -58.804334548650623 $226 -54.538550167247372 $85 $227 forward 7 unknown #
coedge $-1 $87 $86 $228 $229 forward $34 $-1 #
coedge $-1 $230 $231 $86 $146 forward $232 $-1 #
edge $-1 $233 54.538550167247372 $150 58.804334548650623 $145 $234 forward 7 unknown #
coedge $-1 $220 $88 $142 $225 reversed $138 $-1 #
coedge $-1 $88 $220 $230 $235 reversed $138 $-1 #
vertex $-1 $143 $236 #
vertex $-1 $235 $237 #
straight-curve $-1 -58.804334548650623 -48.770282928358498 0 0 0 1 I I #
face $-1 $-1 $238 $20 $-1 $239 reversed single #
loop $-1 $-1 $96 $90 #
plane-surface $-1 0 0 13.991967489383212 0 0 1 1 0 0 forward_v I I I I #
coedge $-1 $240 $241 $242 $243 reversed $91 $-1 #
coedge $-1 $244 $93 $95 $162 forward $57 $-1 #
coedge $-1 $93 $244 $240 $245 forward $57 $-1 #
coedge $-1 $242 $96 $93 $159 forward $153 $-1 #
edge $-1 $165 -2.8937889034236193 $246 17.270974072007753 $158 $247 forward 7 unknown #
coedge $-1 $248 $249 $94 $161 forward $238 $-1 #
edge $-1 $250 -102.09864722019815 $164 -96.065431788849537 $160 $251 forward 7 unknown #
edge $-1 $165 141.62264040475665 $250 151.88695944090085 $95 $252 forward 7 unknown #
coedge $-1 $96 $242 $248 $253 forward $153 $-1 #
vertex $-1 $97 $254 #
vertex $-1 $97 $255 #
straight-curve $-1 21.170632526485527 -4.2948036808684478 13.991967489383214 -1 0 0 I I #
coedge $-1 $167 $167 $-1 $256 reversed $100 $-1 #
edge $-1 $257 0 $257 6.2831853071796004 $101 $258 forward 7 unknown #
vertex $-1 $104 $259 #
ellipse-curve $-1 71.791475480487236 -14.377185168584134 10.975359773708915 0.5877852598018023 0 0.80901698891910034 2.0225424722977507 0 -1.4694631495045059 1 I I #
face $-1 $-1 $183 $22 $-1 $260 forward single #
loop $-1 $-1 $261 $105 #
plane-surface $-1 75.943479720450455 0 0 -1 0 0 0 0 1 forward_v I I I I #
coedge $-1 $262 $263 $264 $265 reversed $106 $-1 #
coedge $-1 $266 $108 $110 $181 forward $66 $-1 #
coedge $-1 $108 $266 $262 $267 forward $66 $-1 #
coedge $-1 $264 $111 $108 $178 forward $183 $-1 #
edge $-1 $185 -25.358627628581985 $268 -5.1938646531506123 $177 $269 forward 7 unknown #
coedge $-1 $270 $271 $109 $180 forward $172 $-1 #
edge $-1 $272 -102.09864722019815 $184 -96.065431788849537 $179 $273 forward 7 unknown #
edge $-1 $185 141.62264040475665 $272 151.88695944090085 $110 $274 forward 7 unknown #
coedge $-1 $111 $264 $270 $275 forward $183 $-1 #
loop $-1 $-1 $264 $171 #
vertex $-1 $180 $276 #
vertex $-1 $112 $277 #
straight-curve $-1 21.170632526485527 40.634873769448284 13.991967489383214 -1 0 0 I I #
coedge $-1 $187 $187 $-1 $278 reversed $115 $-1 #
edge $-1 $279 0 $279 6.2831853071796004 $116 $280 forward 7 unknown #
vertex $-1 $119 $281 #
ellipse-curve $-1 71.791475480487236 30.552492281732597 10.975359773708915 0.5877852598018023 0 0.80901698891910034 2.0225424722977507 0 -1.4694631495045059 1 I I #
face $-1 $-1 $203 $18 $-1 $282 reversed single #
loop $-1 $-1 $283 $120 #
plane-surface $-1 0 48.770282928358498 0 0 -1 0 0 0 -1 forward_v I I I I #
coedge $-1 $209 $208 $284 $285 forward $121 $-1 #
coedge $-1 $123 $133 $286 $287 forward $75 $-1 #
coedge $-1 $202 $129 $123 $197 reversed $203 $-1 #
edge $-1 $288 -48.770282928358498 $134 48.770282928358498 $196 $289 forward 7 unknown #
coedge $-1 $125 $124 $208 $290 forward $49 $-1 #
coedge $-1 $283 $284 $124 $200 reversed $192 $-1 #
edge $-1 $205 -75.943479720450455 $291 75.943479720450455 $199 $292 forward 7 unknown #
edge $-1 $210 -75.943479720450455 $204 75.943479720450455 $128 $293 forward 7 unknown #
coedge $-1 $126 $196 $283 $294 reversed $203 $-1 #
loop $-1 $-1 $129 $191 #
vertex $-1 $127 $295 #
vertex $-1 $127 $296 #
straight-curve $-1 75.943479720450455 0 13.991967489383212 0 1 0 I I #
straight-curve $-1 75.943479720450455 -48.770282928358498 0 0 0 -1 I I #
coedge $-1 $194 $131 $198 $290 reversed $121 $-1 #
coedge $-1 $131 $194 $133 $212 reversed $121 $-1 #
vertex $-1 $290 $297 #
straight-curve $-1 -75.943479720450455 -48.770282928358498 0 0 0 -1 I I #
edge $-1 $135 -48.770282928358498 $298 48.770282928358498 $209 $299 forward 7 unknown #
point $-1 75.943479720450455 -48.770282928358498 -13.991967489383212 #
point $-1 -75.943479720450455 -48.770282928358498 -13.991967489383212 #
face $-1 $-1 $232 $19 $-1 $300 forward single #
loop $-1 $-1 $301 $137 #
plane-surface $-1 -54.538550167247372 -56.857936484932729 0 -1 0 0 0 0 1 forward_v I I I I #
coedge $-1 $302 $140 $222 $303 reversed $83 $-1 #
coedge $-1 $140 $302 $304 $305 reversed $83 $-1 #
coedge $-1 $148 $147 $140 $221 reversed $138 $-1 #
edge $-1 $306 -13.991967489383212 $307 13.991967489383212 $220 $308 forward 7 unknown #
coedge $-1 $142 $141 $218 $303 forward $53 $-1 #
coedge $-1 $228 $301 $141 $224 reversed $216 $-1 #
edge $-1 $226 -8.0876535565742316 $309 8.0876535565742316 $223 $310 forward 7 unknown #
edge $-1 $307 -8.0876535565742316 $149 8.0876535565742316 $147 $311 forward 7 unknown #
vertex $-1 $224 $312 #
straight-curve $-1 0 -48.770282928358498 -13.991967489383212 1 0 0 I I #
coedge $-1 $313 $223 $144 $229 reversed $216 $-1 #
edge $-1 $233 -13.991967489383212 $226 13.991967489383212 $228 $314 forward 7 unknown #
coedge $-1 $304 $145 $148 $235 forward $232 $-1 #
coedge $-1 $145 $304 $313 $315 forward $232 $-1 #
loop $-1 $-1 $145 $215 #
vertex $-1 $146 $316 #
straight-curve $-1 0 -48.770282928358498 13.991967489383212 -1 0 0 I I #
edge $-1 $150 -8.0876535565742316 $306 8.0876535565742316 $148 $317 forward 7 unknown #
point $-1 -58.804334548650623 -48.770282928358498 -13.991967489383212 #
point $-1 -58.804334548650623 -48.770282928358498 13.991967489383212 #
loop $-1 $-1 $160 $152 #
plane-surface $-1 75.943479720450455 0 0 -1 0 0 0 0 1 forward_v I I I I #
coedge $-1 $241 $155 $157 $245 reversed $91 $-1 #
coedge $-1 $155 $240 $318 $319 reversed $91 $-1 #
coedge $-1 $163 $158 $155 $243 forward $153 $-1 #
edge $-1 $246 46.468838714038519 $320 54.772847193964928 $242 $321 forward 7 unknown #
coedge $-1 $157 $156 $249 $322 reversed $57 $-1 #
edge $-1 $323 -151.88695944090085 $246 -141.62264040475665 $240 $324 forward 7 unknown #
vertex $-1 $159 $325 #
straight-curve $-1 67.639471240524045 -7.188592584292067 13.991967489383207 0 -1 0 I I #
coedge $-1 $318 $160 $163 $253 reversed $238 $-1 #
coedge $-1 $160 $318 $244 $322 forward $238 $-1 #
vertex $-1 $161 $326 #
straight-curve $-1 75.943479720450455 -4.2948036808684478 110.05739927823275 0 0 1 I I #
straight-curve $-1 -46.935650862504701 -4.2948036808684478 97.235667973510331 0.80901698891910034 0 -0.5877852598018023 I I #
edge $-1 $320 -24.45956665629982 $164 -4.2948036808684478 $248 $327 forward 7 unknown #
point $-1 75.943479720450455 -4.2948036808684478 13.991967489383212 #
point $-1 67.639471240524045 -4.2948036808684478 13.991967489383214 #
edge $-1 $328 1 $328 0 $167 $-1 forward 7 unknown #
vertex $-1 $168 $329 #
ellipse-curve $-1 68.91690294042894 -14.377185168584134 7.0188501777185817 0.5877852598018023 0 0.80901698891910034 2.0225424722977507 0 -1.4694631495045059 1 I I #
point $-1 73.814017952784951 -14.377185168584134 9.5058966242043539 #
plane-surface $-1 0 0 13.991967489383212 0 0 1 1 0 0 forward_v I I I I #
coedge $-1 $271 $270 $263 $330 forward $172 $-1 #
coedge $-1 $263 $174 $176 $267 reversed $106 $-1 #
coedge $-1 $174 $262 $261 $330 reversed $106 $-1 #
coedge $-1 $182 $177 $174 $265 forward $183 $-1 #
edge $-1 $268 46.468838714038519 $331 54.772847193964928 $264 $332 forward 7 unknown #
coedge $-1 $176 $175 $271 $333 reversed $66 $-1 #
edge $-1 $334 -151.88695944090085 $268 -141.62264040475665 $262 $335 forward 7 unknown #
vertex $-1 $178 $336 #
straight-curve $-1 67.639471240524045 15.276246140866299 13.991967489383207 0 -1 0 I I #
coedge $-1 $261 $179 $182 $275 reversed $172 $-1 #
coedge $-1 $179 $261 $266 $333 forward $172 $-1 #
vertex $-1 $180 $337 #
straight-curve $-1 75.943479720450455 40.634873769448284 110.05739927823275 0 0 1 I I #
straight-curve $-1 -46.935650862504701 40.634873769448284 97.235667973510331 0.80901698891910034 0 -0.5877852598018023 I I #
edge $-1 $331 20.470110794016911 $184 40.634873769448284 $270 $338 forward 7 unknown #
point $-1 75.943479720450455 40.634873769448284 13.991967489383212 #
point $-1 67.639471240524045 40.634873769448284 13.991967489383214 #
edge $-1 $339 1 $339 0 $187 $-1 forward 7 unknown #
vertex $-1 $188 $340 #
ellipse-curve $-1 68.91690294042894 30.552492281732597 7.0188501777185817 0.5877852598018023 0 0.80901698891910034 2.0225424722977507 0 -1.4694631495045059 1 I I #
point $-1 73.814017952784951 30.552492281732597 9.5058966242043539 #
plane-surface $-1 75.943479720450455 0 0 -1 0 0 0 0 1 forward_v I I I I #
coedge $-1 $286 $199 $202 $294 forward $192 $-1 #
coedge $-1 $199 $286 $194 $285 reversed $192 $-1 #
edge $-1 $291 -13.991967489383212 $298 13.991967489383212 $284 $341 forward 7 unknown #
coedge $-1 $284 $283 $195 $287 reversed $192 $-1 #
edge $-1 $298 -75.943479720450455 $288 75.943479720450455 $286 $342 forward 7 unknown #
vertex $-1 $197 $343 #
straight-curve $-1 75.943479720450455 0 -13.991967489383212 0 -1 0 I I #
edge $-1 $291 -48.770282928358498 $210 48.770282928358498 $208 $344 forward 7 unknown #
vertex $-1 $200 $345 #
straight-curve $-1 0 48.770282928358498 13.991967489383212 -1 0 0 I I #
straight-curve $-1 0 -48.770282928358498 13.991967489383212 1 0 0 I I #
edge $-1 $205 -13.991967489383212 $288 13.991967489383212 $202 $346 forward 7 unknown #
point $-1 75.943479720450455 -48.770282928358498 13.991967489383212 #
point $-1 75.943479720450455 48.770282928358498 13.991967489383212 #
point $-1 -75.943479720450455 -48.770282928358498 13.991967489383212 #
vertex $-1 $287 $347 #
straight-curve $-1 -75.943479720450455 0 -13.991967489383212 0 1 0 I I #
plane-surface $-1 0 0 13.991967489383212 0 0 1 1 0 0 forward_v I I I I #
coedge $-1 $223 $313 $302 $348 forward $216 $-1 #
coedge $-1 $219 $218 $301 $348 reversed $83 $-1 #
edge $-1 $309 -2.1328921907016252 $307 2.1328921907016252 $218 $349 forward 7 unknown #
coedge $-1 $231 $230 $219 $305 forward $232 $-1 #
edge $-1 $306 -2.1328921907016252 $350 2.1328921907016252 $219 $351 forward 7 unknown #
vertex $-1 $235 $352 #
vertex $-1 $225 $353 #
straight-curve $-1 -58.804334548650623 -64.945590041506961 0 0 0 -1 I I #
vertex $-1 $348 $354 #
straight-curve $-1 -54.538550167247372 -56.857936484932729 -13.991967489383212 0 -1 0 I I #
straight-curve $-1 -58.804334548650623 -56.857936484932729 -13.991967489383212 0 1 0 I I #
point $-1 -54.538550167247372 -48.770282928358498 -13.991967489383212 #
coedge $-1 $301 $228 $231 $315 reversed $216 $-1 #
straight-curve $-1 -54.538550167247372 -48.770282928358498 0 0 0 -1 I I #
edge $-1 $350 -8.0876535565742316 $233 8.0876535565742316 $313 $355 forward 7 unknown #
point $-1 -54.538550167247372 -48.770282928358498 13.991967489383212 #
straight-curve $-1 -58.804334548650623 -56.857936484932729 13.991967489383212 0 -1 0 I I #
coedge $-1 $249 $248 $241 $319 forward $238 $-1 #
edge $-1 $320 96.065431788849537 $323 102.09864722019815 $318 $356 forward 7 unknown #
vertex $-1 $253 $357 #
straight-curve $-1 21.170632526485527 -24.45956665629982 13.991967489383214 1 0 0 I I #
edge $-1 $323 -17.270974072007753 $250 2.8937889034236193 $249 $358 forward 7 unknown #
vertex $-1 $322 $359 #
straight-curve $-1 -46.935650862504701 -24.45956665629982 97.235667973510331 -0.80901698891910034 0 0.5877852598018023 I I #
point $-1 67.639471240524045 -24.45956665629982 13.991967489383214 #
point $-1 75.943479720450455 -4.2948036808684478 7.9587520580346052 #
straight-curve $-1 75.943479720450455 0 13.991967489383212 0 1 0 I I #
vertex $-1 $256 $360 #
point $-1 70.939445412726684 -14.377185168584134 5.5493870282140758 #
edge $-1 $331 96.065431788849537 $334 102.09864722019815 $261 $361 forward 7 unknown #
vertex $-1 $275 $362 #
straight-curve $-1 21.170632526485527 20.470110794016911 13.991967489383214 1 0 0 I I #
edge $-1 $334 5.1938646531506123 $272 25.358627628581985 $271 $363 forward 7 unknown #
vertex $-1 $333 $364 #
straight-curve $-1 -46.935650862504701 20.470110794016911 97.235667973510331 -0.80901698891910034 0 0.5877852598018023 I I #
point $-1 67.639471240524045 20.470110794016911 13.991967489383214 #
point $-1 75.943479720450455 40.634873769448284 7.9587520580346052 #
straight-curve $-1 75.943479720450455 0 13.991967489383212 0 1 0 I I #
vertex $-1 $278 $365 #
point $-1 70.939445412726684 30.552492281732597 5.5493870282140758 #
straight-curve $-1 -75.943479720450455 48.770282928358498 0 0 0 -1 I I #
straight-curve $-1 0 48.770282928358498 -13.991967489383212 1 0 0 I I #
point $-1 75.943479720450455 48.770282928358498 -13.991967489383212 #
straight-curve $-1 -75.943479720450455 0 13.991967489383212 0 -1 0 I I #
point $-1 -75.943479720450455 48.770282928358498 13.991967489383212 #
straight-curve $-1 75.943479720450455 48.770282928358498 0 0 0 -1 I I #
point $-1 -75.943479720450455 48.770282928358498 -13.991967489383212 #
edge $-1 $350 -13.991967489383212 $309 13.991967489383212 $301 $366 forward 7 unknown #
straight-curve $-1 -56.671442357948997 -64.945590041506961 -13.991967489383212 -1 0 0 I I #
vertex $-1 $315 $367 #
straight-curve $-1 -56.671442357948997 -64.945590041506961 13.991967489383212 1 0 0 I I #
point $-1 -58.804334548650623 -64.945590041506961 13.991967489383212 #
point $-1 -58.804334548650623 -64.945590041506961 -13.991967489383212 #
point $-1 -54.538550167247372 -64.945590041506961 -13.991967489383212 #
straight-curve $-1 -54.538550167247372 -56.857936484932729 13.991967489383212 0 1 0 I I #
straight-curve $-1 75.943479720450455 -24.45956665629982 110.05739927823275 0 0 -1 I I #
point $-1 75.943479720450455 -24.45956665629982 13.991967489383212 #
straight-curve $-1 75.943479720450455 -7.188592584292067 7.9587520580345981 0 1 0 I I #
point $-1 75.943479720450455 -24.45956665629982 7.9587520580346052 #
point $-1 67.44743979092442 -14.377185168584134 4.9963077054208309 #
straight-curve $-1 75.943479720450455 20.470110794016911 110.05739927823275 0 0 -1 I I #
point $-1 75.943479720450455 20.470110794016911 13.991967489383212 #
straight-curve $-1 75.943479720450455 15.276246140866299 7.9587520580345981 0 1 0 I I #
point $-1 75.943479720450455 20.470110794016911 7.9587520580346052 #
point $-1 67.44743979092442 30.552492281732597 4.9963077054208309 #
straight-curve $-1 -54.538550167247372 -64.945590041506961 0 0 0 -1 I I #
point $-1 -54.538550167247372 -64.945590041506961 13.991967489383212 #
End-of-ACIS-data 