500 0 8 0           
7 Unknown 11 ACIS 5.0 NT 24 Thu Mar 25 15:07:47 1999 
-1 9.9999999999999995e-007 1e-010 
body $-1 $8 $-1 $9 #
body $-1 $10 $-1 $11 #
body $-1 $12 $-1 $13 #
body $-1 $14 $-1 $15 #
body $-1 $16 $-1 $17 #
body $-1 $18 $-1 $19 #
body $-1 $20 $-1 $21 #
body $-1 $22 $-1 $23 #
lump $-1 $-1 $24 $0 #
transform $-1 1 0 0 0 1 0 0 0 1 79.250465407269502 48.22095871020953 13.366831506235943 1 rotate no_reflect no_shear #
lump $-1 $-1 $25 $1 #
transform $-1 1 0 0 0 1 0 0 0 1 79.250465407269502 48.22095871020953 13.366831506235943 1 rotate no_reflect no_shear #
lump $-1 $-1 $26 $2 #
transform $-1 1 0 0 0 1 0 0 0 1 79.250465407269502 48.22095871020953 13.366831506235943 1 rotate no_reflect no_shear #
lump $-1 $-1 $27 $3 #
transform $-1 1 0 0 0 1 0 0 0 1 79.250465407269502 48.22095871020953 13.366831506235943 1 rotate no_reflect no_shear #
lump $-1 $-1 $28 $4 #
transform $-1 1 0 0 0 1 0 0 0 1 79.250465407269502 48.22095871020953 13.366831506235943 1 rotate no_reflect no_shear #
lump $-1 $-1 $29 $5 #
transform $-1 1 0 0 0 1 0 0 0 1 79.250465407269502 48.22095871020953 13.366831506235943 1 rotate no_reflect no_shear #
lump $-1 $-1 $30 $6 #
transform $-1 1 0 0 0 1 0 0 0 1 79.250465407269502 48.22095871020953 13.366831506235943 1 rotate no_reflect no_shear #
lump $-1 $-1 $31 $7 #
transform $-1 1 0 0 0 1 0 0 0 1 79.250465407269502 48.22095871020953 13.366831506235943 1 rotate no_reflect no_shear #
shell $-1 $-1 $-1 $32 $-1 $8 #
shell $-1 $-1 $-1 $33 $-1 $10 #
shell $-1 $-1 $-1 $34 $-1 $12 #
shell $-1 $-1 $-1 $35 $-1 $14 #
shell $-1 $-1 $-1 $36 $-1 $16 #
shell $-1 $-1 $-1 $37 $-1 $18 #
shell $-1 $-1 $-1 $38 $-1 $20 #
shell $-1 $-1 $-1 $39 $-1 $22 #
face $-1 $40 $41 $24 $-1 $42 forward single #
face $-1 $43 $44 $25 $-1 $45 forward single #
face $-1 $46 $47 $26 $-1 $48 reversed single #
face $-1 $49 $50 $27 $-1 $51 forward single #
face $-1 $52 $53 $28 $-1 $54 forward single #
face $-1 $55 $56 $29 $-1 $57 reversed single #
face $-1 $58 $59 $30 $-1 $60 forward single #
face $-1 $61 $62 $31 $-1 $63 forward single #
face $-1 $64 $65 $24 $-1 $66 reversed single #
loop $-1 $-1 $67 $32 #
plane-surface $-1 0 0 13.366831506235943 0 0 1 1 0 0 forward_v I I I I #
face $-1 $68 $69 $25 $-1 $70 reversed single #
loop $-1 $-1 $71 $33 #
plane-surface $-1 0 -42.105630236588283 -8.8740377376048158 0 0 1 1 0 0 forward_v I I I I #
face $-1 $72 $73 $26 $-1 $74 reversed single #
loop $-1 $-1 $75 $34 #
plane-surface $-1 -217.87850430617897 23.757158705339876 85.563795365396572 0 1 0 -0.87461971476443456 0 0.48480960649040278 forward_v I I I I #
face $-1 $76 $77 $27 $-1 $78 forward single #
loop $-1 $79 $80 $35 #
cone-surface $-1 -77.332284242088889 29.545464406493949 10.694393660493306 0.87461971476443456 0 -0.48480960649040278 0.48480960649040278 0 0.87461971476443456 1 I I 0 1 1 forward I I I I #
face $-1 $81 $82 $28 $-1 $83 forward single #
loop $-1 $84 $85 $36 #
cone-surface $-1 -77.332284242088889 38.227922958225051 10.694393660493306 0.87461971476443456 0 -0.48480960649040278 0.48480960649040278 0 0.87461971476443456 1 I I 0 1 1 forward I I I I #
face $-1 $86 $87 $29 $-1 $88 reversed single #
loop $-1 $-1 $89 $37 #
plane-surface $-1 -34.765561269252601 40.229922522817603 114.77092461158422 0.69465837861970381 0 0.71933979245794832 0.71933979245794832 0 -0.69465837861970381 forward_v I I I I #
face $-1 $90 $91 $30 $-1 $92 forward single #
loop $-1 $93 $94 $38 #
cone-surface $-1 74.244779911893119 36.805192728221058 8.497894143286155 -0.69465837861970381 0 -0.71933979245794832 0.71933979245794832 0 -0.69465837861970381 1 I I 0 1 1 forward I I I I #
face $-1 $95 $96 $31 $-1 $97 forward single #
loop $-1 $98 $99 $39 #
cone-surface $-1 74.244779911893119 43.654652317414147 8.497894143286155 -0.69465837861970381 0 -0.71933979245794832 0.71933979245794832 0 -0.69465837861970381 1 I I 0 1 1 forward I I I I #
face $-1 $100 $101 $24 $-1 $102 reversed single #
loop $-1 $-1 $103 $40 #
plane-surface $-1 0 0 -13.366831506235943 0 0 1 1 0 0 forward_v I I I I #
coedge $-1 $104 $105 $106 $107 forward $41 $-1 #
face $-1 $108 $109 $25 $-1 $110 reversed single #
loop $-1 $-1 $111 $43 #
plane-surface $-1 0 -42.105630236588283 -12.866831506235943 0 0 1 1 0 0 forward_v I I I I #
coedge $-1 $112 $113 $114 $115 reversed $44 $-1 #
face $-1 $116 $117 $26 $-1 $118 reversed single #
loop $-1 $-1 $119 $46 #
plane-surface $-1 -79.250465407269473 33.886693682359493 8.721021468837364 -0.87461971476443456 0 0.48480960649040278 0.48480960649040278 0 0.87461971476443456 forward_v I I I I #
coedge $-1 $120 $121 $122 $123 reversed $47 $-1 #
face $-1 $-1 $124 $27 $-1 $125 forward single #
loop $-1 $126 $127 $49 #
cone-surface $-1 -76.26440044929619 29.545464406493949 10.10245603020476 0.87461971476443456 0 -0.48480960649040278 0.24240480324520139 0 0.43730985738221728 1 I I -0.70710678118654746 0.70710678118654746 0.5 forward I I I I #
loop $-1 $-1 $128 $35 #
coedge $-1 $80 $80 $129 $130 reversed $50 $-1 #
face $-1 $-1 $131 $28 $-1 $132 forward single #
loop $-1 $133 $134 $52 #
cone-surface $-1 -76.26440044929619 38.227922958225051 10.10245603020476 0.87461971476443456 0 -0.48480960649040278 0.24240480324520139 0 0.43730985738221728 1 I I -0.70710678118654746 0.70710678118654746 0.5 forward I I I I #
loop $-1 $-1 $135 $36 #
coedge $-1 $85 $85 $136 $137 reversed $53 $-1 #
face $-1 $138 $139 $29 $-1 $140 forward single #
loop $-1 $-1 $141 $55 #
plane-surface $-1 75.338438340088913 32.238886335425669 228.78695128810634 0 1 0 0.69465837861970381 0 0.71933979245794832 forward_v I I I I #
coedge $-1 $142 $143 $144 $145 reversed $56 $-1 #
face $-1 $-1 $146 $30 $-1 $147 forward single #
loop $-1 $148 $149 $58 #
cone-surface $-1 73.396273580954215 36.805192728221058 7.6192401361040218 -0.69465837861970381 0 -0.71933979245794832 0.35966989622897416 0 -0.3473291893098519 1 I I -0.70710678118654813 0.70710678118654691 0.5 forward I I I I #
loop $-1 $-1 $150 $38 #
coedge $-1 $94 $94 $151 $152 reversed $59 $-1 #
face $-1 $-1 $153 $31 $-1 $154 forward single #
loop $-1 $155 $156 $61 #
cone-surface $-1 73.396273580954215 43.654652317414147 7.6192401361040218 -0.69465837861970381 0 -0.71933979245794832 0.35966989622897416 0 -0.3473291893098519 1 I I -0.70710678118654813 0.70710678118654691 0.5 forward I I I I #
loop $-1 $-1 $157 $39 #
coedge $-1 $99 $99 $158 $159 reversed $62 $-1 #
face $-1 $160 $161 $24 $-1 $162 reversed single #
loop $-1 $-1 $163 $64 #
plane-surface $-1 0 -48.22095871020953 0 0 1 0 0 0 1 forward_v I I I I #
coedge $-1 $164 $165 $166 $167 forward $65 $-1 #
coedge $-1 $168 $67 $169 $170 forward $41 $-1 #
coedge $-1 $67 $168 $171 $172 forward $41 $-1 #
coedge $-1 $173 $174 $67 $107 reversed $175 $-1 #
edge $-1 $176 -48.22095871020953 $177 48.22095871020953 $106 $178 forward 7 unknown #
face $-1 $179 $180 $25 $-1 $181 reversed single #
loop $-1 $-1 $182 $68 #
plane-surface $-1 0 -35.990301762967036 -10.87043462192038 0 -1 0 0 0 -1 forward_v I I I I #
coedge $-1 $183 $184 $185 $186 reversed $69 $-1 #
coedge $-1 $187 $71 $188 $189 forward $44 $-1 #
coedge $-1 $71 $187 $190 $191 reversed $44 $-1 #
coedge $-1 $192 $193 $71 $115 forward $194 $-1 #
edge $-1 $195 14.937486644672894 $196 27.168143591915388 $114 $197 forward 7 unknown #
face $-1 $198 $199 $26 $-1 $200 reversed single #
loop $-1 $-1 $201 $72 #
plane-surface $-1 -217.87850430617897 44.016228659379109 85.563795365396572 0 -1 0 0.87461971476443456 0 -0.48480960649040278 forward_v I I I I #
coedge $-1 $202 $203 $204 $205 reversed $73 $-1 #
coedge $-1 $121 $75 $206 $207 reversed $47 $-1 #
coedge $-1 $75 $120 $202 $208 reversed $47 $-1 #
coedge $-1 $204 $209 $75 $123 forward $210 $-1 #
edge $-1 $211 29.688786745819982 $212 32.264001205360287 $122 $213 forward 7 unknown #
loop $-1 $-1 $129 $76 #
plane-surface $-1 -79.250465407269473 33.886693682359493 8.721021468837364 -0.87461971476443456 0 0.48480960649040278 0.48480960649040278 0 0.87461971476443456 forward_v I I I I #
loop $-1 $-1 $214 $49 #
coedge $-1 $127 $127 $128 $215 reversed $77 $-1 #
coedge $-1 $128 $128 $127 $215 forward $79 $-1 #
coedge $-1 $129 $129 $80 $130 forward $124 $-1 #
edge $-1 $216 0 $216 6.2831853071796004 $129 $217 forward 7 unknown #
loop $-1 $-1 $136 $81 #
plane-surface $-1 -79.250465407269473 33.886693682359493 8.721021468837364 -0.87461971476443456 0 0.48480960649040278 0.48480960649040278 0 0.87461971476443456 forward_v I I I I #
loop $-1 $-1 $218 $52 #
coedge $-1 $134 $134 $135 $219 reversed $82 $-1 #
coedge $-1 $135 $135 $134 $219 forward $84 $-1 #
coedge $-1 $136 $136 $85 $137 forward $131 $-1 #
edge $-1 $220 0 $220 6.2831853071796004 $136 $221 forward 7 unknown #
face $-1 $222 $223 $29 $-1 $224 reversed single #
loop $-1 $-1 $144 $86 #
plane-surface $-1 0 0 13.366831506235943 0 0 1 1 0 0 forward_v I I I I #
coedge $-1 $225 $226 $227 $228 reversed $87 $-1 #
coedge $-1 $229 $89 $230 $231 reversed $56 $-1 #
coedge $-1 $89 $229 $225 $232 forward $56 $-1 #
coedge $-1 $227 $233 $89 $145 forward $139 $-1 #
edge $-1 $234 -28.105997448800736 $235 -12.123925074016867 $144 $236 forward 7 unknown #
loop $-1 $-1 $151 $90 #
plane-surface $-1 -34.765561269252601 40.229922522817603 114.77092461158422 0.69465837861970381 0 0.71933979245794832 0.71933979245794832 0 -0.69465837861970381 forward_v I I I I #
loop $-1 $-1 $237 $58 #
coedge $-1 $149 $149 $150 $238 reversed $91 $-1 #
coedge $-1 $150 $150 $149 $238 forward $93 $-1 #
coedge $-1 $151 $151 $94 $152 forward $146 $-1 #
edge $-1 $239 0 $239 6.2831853071796004 $151 $240 forward 7 unknown #
loop $-1 $-1 $158 $95 #
plane-surface $-1 -34.765561269252601 40.229922522817603 114.77092461158422 0.69465837861970381 0 0.71933979245794832 0.71933979245794832 0 -0.69465837861970381 forward_v I I I I #
loop $-1 $-1 $241 $61 #
coedge $-1 $156 $156 $157 $242 reversed $96 $-1 #
coedge $-1 $157 $157 $156 $242 forward $98 $-1 #
coedge $-1 $158 $158 $99 $159 forward $153 $-1 #
edge $-1 $243 0 $243 6.2831853071796004 $158 $244 forward 7 unknown #
face $-1 $245 $246 $24 $-1 $247 reversed single #
loop $-1 $-1 $248 $100 #
plane-surface $-1 -79.250465407269502 0 0 1 0 0 0 0 -1 forward_v I I I I #
coedge $-1 $249 $171 $250 $251 forward $101 $-1 #
coedge $-1 $252 $103 $249 $253 forward $65 $-1 #
coedge $-1 $103 $252 $254 $255 forward $65 $-1 #
coedge $-1 $174 $173 $103 $167 reversed $175 $-1 #
edge $-1 $256 -48.22095871020953 $257 48.22095871020953 $166 $258 forward 7 unknown #
coedge $-1 $105 $104 $259 $260 forward $41 $-1 #
coedge $-1 $261 $262 $104 $170 reversed $246 $-1 #
edge $-1 $177 -79.250465407269502 $263 79.250465407269502 $169 $264 forward 7 unknown #
coedge $-1 $163 $265 $105 $172 reversed $101 $-1 #
edge $-1 $266 -79.250465407269502 $176 79.250465407269502 $171 $267 forward 7 unknown #
coedge $-1 $166 $106 $265 $268 forward $175 $-1 #
coedge $-1 $106 $166 $261 $269 reversed $175 $-1 #
loop $-1 $-1 $173 $245 #
vertex $-1 $107 $270 #
vertex $-1 $107 $271 #
straight-curve $-1 79.250465407269502 0 13.366831506235943 0 1 0 I I #
face $-1 $272 $273 $25 $-1 $274 reversed single #
loop $-1 $-1 $275 $108 #
plane-surface $-1 -79.250465407269502 0 0 1 0 0 0 0 -1 forward_v I I I I #
coedge $-1 $276 $188 $193 $277 reversed $109 $-1 #
coedge $-1 $278 $111 $279 $280 reversed $69 $-1 #
coedge $-1 $111 $278 $276 $281 forward $69 $-1 #
coedge $-1 $193 $192 $111 $186 forward $194 $-1 #
edge $-1 $282 -27.168143591915388 $283 -14.937486644672894 $185 $284 forward 7 unknown #
coedge $-1 $113 $112 $275 $285 reversed $44 $-1 #
coedge $-1 $182 $286 $112 $189 reversed $109 $-1 #
edge $-1 $195 -79.250465407269502 $287 79.250465407269502 $188 $288 forward 7 unknown #
coedge $-1 $289 $290 $113 $191 forward $273 $-1 #
edge $-1 $196 -79.250465407269502 $291 79.250465407269502 $190 $292 forward 7 unknown #
coedge $-1 $185 $114 $290 $293 forward $194 $-1 #
coedge $-1 $114 $185 $182 $277 forward $194 $-1 #
loop $-1 $-1 $114 $272 #
vertex $-1 $115 $294 #
vertex $-1 $293 $295 #
straight-curve $-1 79.250465407269502 -21.052815118294141 -8.8740377376048158 0 -1 0 I I #
face $-1 $-1 $210 $26 $-1 $296 forward single #
loop $-1 $-1 $297 $116 #
plane-surface $-1 -79.250465407269502 0 0 1 0 0 0 0 -1 forward_v I I I I #
coedge $-1 $298 $299 $300 $301 reversed $117 $-1 #
coedge $-1 $302 $119 $121 $208 forward $73 $-1 #
coedge $-1 $119 $302 $298 $303 forward $73 $-1 #
coedge $-1 $300 $122 $119 $205 forward $210 $-1 #
edge $-1 $212 6.8138118641601295 $304 27.072881818199363 $204 $305 forward 7 unknown #
coedge $-1 $306 $307 $120 $207 forward $199 $-1 #
edge $-1 $308 -34.060876213860972 $211 -29.415066176462343 $206 $309 forward 7 unknown #
edge $-1 $212 -5.3118057585174094 $308 5.8834582418425628e-014 $121 $310 forward 7 unknown #
coedge $-1 $122 $300 $306 $311 forward $210 $-1 #
loop $-1 $-1 $300 $198 #
vertex $-1 $207 $312 #
vertex $-1 $123 $313 #
straight-curve $-1 -108.93925215308948 23.757158705339876 13.36683150623594 1 0 0 I I #
coedge $-1 $214 $214 $-1 $314 reversed $126 $-1 #
edge $-1 $315 0 $315 6.2831853071796004 $127 $316 forward 7 unknown #
vertex $-1 $130 $317 #
ellipse-curve $-1 -77.962858177499342 29.545464406493949 11.043926487536639 -0.87461971476443456 0 0.48480960649040278 0.48480960649040278 0 0.87461971476443456 1 I I #
coedge $-1 $218 $218 $-1 $318 reversed $133 $-1 #
edge $-1 $319 0 $319 6.2831853071796004 $134 $320 forward 7 unknown #
vertex $-1 $137 $321 #
ellipse-curve $-1 -77.962858177499342 38.227922958225051 11.043926487536639 -0.87461971476443456 0 0.48480960649040278 0.48480960649040278 0 0.87461971476443456 1 I I #
face $-1 $-1 $322 $29 $-1 $323 reversed single #
loop $-1 $-1 $324 $138 #
plane-surface $-1 79.250465407269502 0 0 -1 0 0 0 0 1 forward_v I I I I #
coedge $-1 $226 $141 $143 $232 reversed $87 $-1 #
coedge $-1 $141 $225 $325 $326 reversed $87 $-1 #
coedge $-1 $327 $144 $141 $228 forward $139 $-1 #
edge $-1 $235 32.572229529730421 $328 41.581246237225045 $227 $329 forward 7 unknown #
coedge $-1 $143 $142 $324 $330 reversed $56 $-1 #
coedge $-1 $331 $332 $142 $231 forward $322 $-1 #
edge $-1 $333 -106.13351279880115 $234 -93.609505643974856 $230 $334 forward 7 unknown #
edge $-1 $335 -158.50093081453895 $235 -145.97692365971267 $225 $336 forward 7 unknown #
coedge $-1 $144 $327 $331 $337 forward $139 $-1 #
vertex $-1 $231 $338 #
vertex $-1 $145 $339 #
straight-curve $-1 70.241448699774878 20.114961261408801 13.366831506235954 0 -1 0 I I #
coedge $-1 $237 $237 $-1 $340 reversed $148 $-1 #
edge $-1 $341 0 $341 6.2831853071796004 $149 $342 forward 7 unknown #
vertex $-1 $152 $343 #
ellipse-curve $-1 74.745957053522176 36.805192728221058 9.0168782542393195 0.69465837861970381 0 0.71933979245794832 0.71933979245794832 0 -0.69465837861970381 1 I I #
coedge $-1 $241 $241 $-1 $344 reversed $155 $-1 #
edge $-1 $345 0 $345 6.2831853071796004 $156 $346 forward 7 unknown #
vertex $-1 $159 $347 #
ellipse-curve $-1 74.745957053522176 43.654652317414147 9.0168782542393195 0.69465837861970381 0 0.71933979245794832 0.71933979245794832 0 -0.69465837861970381 1 I I #
face $-1 $-1 $175 $24 $-1 $348 reversed single #
loop $-1 $-1 $261 $160 #
plane-surface $-1 0 48.22095871020953 0 0 -1 0 0 0 -1 forward_v I I I I #
coedge $-1 $349 $259 $262 $350 forward $161 $-1 #
coedge $-1 $265 $163 $164 $253 reversed $101 $-1 #
coedge $-1 $259 $349 $163 $251 reversed $161 $-1 #
edge $-1 $266 -13.366831506235943 $351 13.366831506235943 $250 $352 forward 7 unknown #
coedge $-1 $165 $164 $349 $353 forward $65 $-1 #
edge $-1 $257 -79.250465407269502 $351 79.250465407269502 $249 $354 forward 7 unknown #
coedge $-1 $262 $261 $165 $255 reversed $246 $-1 #
edge $-1 $355 -79.250465407269502 $256 79.250465407269502 $254 $356 forward 7 unknown #
vertex $-1 $167 $357 #
vertex $-1 $268 $358 #
straight-curve $-1 79.250465407269502 0 -13.366831506235943 0 -1 0 I I #
coedge $-1 $248 $250 $168 $260 reversed $161 $-1 #
edge $-1 $263 -48.22095871020953 $266 48.22095871020953 $259 $359 forward 7 unknown #
coedge $-1 $254 $169 $174 $269 forward $246 $-1 #
coedge $-1 $169 $254 $248 $350 reversed $246 $-1 #
vertex $-1 $170 $360 #
straight-curve $-1 0 48.22095871020953 13.366831506235943 -1 0 0 I I #
coedge $-1 $171 $249 $173 $268 reversed $101 $-1 #
vertex $-1 $260 $361 #
straight-curve $-1 0 -48.22095871020953 13.366831506235943 1 0 0 I I #
edge $-1 $176 -13.366831506235943 $257 13.366831506235943 $173 $362 forward 7 unknown #
edge $-1 $177 -13.366831506235943 $256 13.366831506235943 $174 $363 forward 7 unknown #
point $-1 79.250465407269502 -48.22095871020953 13.366831506235943 #
point $-1 79.250465407269502 48.22095871020953 13.366831506235943 #
face $-1 $-1 $194 $25 $-1 $364 reversed single #
loop $-1 $-1 $190 $179 #
plane-surface $-1 0 -48.22095871020953 0 0 1 0 0 0 1 forward_v I I I I #
coedge $-1 $365 $366 $187 $285 forward $180 $-1 #
coedge $-1 $286 $182 $184 $281 reversed $109 $-1 #
edge $-1 $283 -7.4316141952757535 $195 -3.4388204266446261 $193 $367 forward 7 unknown #
coedge $-1 $184 $183 $368 $369 reversed $69 $-1 #
coedge $-1 $290 $289 $183 $280 forward $273 $-1 #
edge $-1 $370 -79.250465407269502 $282 79.250465407269502 $279 $371 forward 7 unknown #
edge $-1 $372 -79.250465407269502 $283 79.250465407269502 $276 $373 forward 7 unknown #
vertex $-1 $280 $374 #
vertex $-1 $186 $375 #
straight-curve $-1 79.250465407269502 -21.052815118294141 -12.866831506235943 0 1 0 I I #
edge $-1 $291 -27.168143591915388 $287 -14.937486644672894 $275 $376 forward 7 unknown #
coedge $-1 $188 $276 $365 $377 reversed $109 $-1 #
vertex $-1 $285 $378 #
straight-curve $-1 0 -35.990301762967036 -8.8740377376048158 -1 0 0 I I #
coedge $-1 $279 $190 $366 $379 forward $273 $-1 #
coedge $-1 $190 $279 $192 $293 reversed $273 $-1 #
vertex $-1 $379 $380 #
straight-curve $-1 0 -48.22095871020953 -8.8740377376048158 -1 0 0 I I #
edge $-1 $196 8.8740377376048158 $282 12.866831506235943 $192 $381 forward 7 unknown #
point $-1 79.250465407269502 -35.990301762967036 -8.8740377376048158 #
point $-1 79.250465407269502 -48.22095871020953 -8.8740377376048158 #
plane-surface $-1 0 0 13.366831506235943 0 0 1 1 0 0 forward_v I I I I #
coedge $-1 $307 $306 $299 $382 forward $199 $-1 #
coedge $-1 $299 $201 $203 $303 reversed $117 $-1 #
coedge $-1 $201 $298 $297 $382 reversed $117 $-1 #
coedge $-1 $209 $204 $201 $301 forward $210 $-1 #
edge $-1 $304 -32.264001205360287 $383 -29.688786745819982 $300 $384 forward 7 unknown #
coedge $-1 $203 $202 $307 $385 reversed $73 $-1 #
edge $-1 $386 -5.8834582418425628e-014 $304 5.3118057585174094 $298 $387 forward 7 unknown #
vertex $-1 $205 $388 #
straight-curve $-1 -76.675250947729182 16.943346841179746 13.366831506235943 0 1 0 I I #
coedge $-1 $297 $206 $209 $311 reversed $199 $-1 #
coedge $-1 $206 $297 $302 $385 forward $199 $-1 #
vertex $-1 $207 $389 #
straight-curve $-1 -79.250465407269502 23.757158705339876 42.781897682698286 0 0 1 I I #
straight-curve $-1 -79.250465407269473 23.757158705339876 8.721021468837364 -0.48480960649040278 0 -0.87461971476443456 I I #
edge $-1 $383 -44.016228659379109 $211 -23.757158705339876 $306 $390 forward 7 unknown #
point $-1 -79.250465407269502 23.757158705339876 13.366831506235943 #
point $-1 -76.675250947729197 23.757158705339876 13.366831506235943 #
edge $-1 $391 1 $391 0 $214 $-1 forward 7 unknown #
vertex $-1 $215 $392 #
ellipse-curve $-1 -76.701710306678407 29.545464406493949 10.34486083344996 -0.87461971476443456 0 0.48480960649040278 0.48480960649040278 0 0.87461971476443456 1 I I #
point $-1 -77.478048571008955 29.545464406493949 11.918546202301085 #
edge $-1 $393 1 $393 0 $218 $-1 forward 7 unknown #
vertex $-1 $219 $394 #
ellipse-curve $-1 -76.701710306678407 38.227922958225051 10.34486083344996 -0.87461971476443456 0 0.48480960649040278 0.48480960649040278 0 0.87461971476443456 1 I I #
point $-1 -77.478048571008955 38.227922958225051 11.918546202301085 #
loop $-1 $-1 $230 $222 #
plane-surface $-1 0 48.22095871020953 0 0 -1 0 0 0 -1 forward_v I I I I #
coedge $-1 $395 $325 $229 $330 forward $223 $-1 #
coedge $-1 $324 $396 $226 $326 forward $223 $-1 #
edge $-1 $328 101.02664413781723 $335 109.72655064181045 $325 $397 forward 7 unknown #
coedge $-1 $233 $227 $396 $398 forward $139 $-1 #
vertex $-1 $398 $399 #
straight-curve $-1 37.669219170044457 32.238886335425669 13.36683150623594 1 0 0 I I #
edge $-1 $335 12.123925074016867 $333 28.105997448800736 $324 $400 forward 7 unknown #
coedge $-1 $332 $230 $233 $337 reversed $322 $-1 #
coedge $-1 $230 $331 $395 $401 forward $322 $-1 #
vertex $-1 $231 $402 #
straight-curve $-1 2.9044063377468561 48.22095871020953 78.393458920271527 -0.71933979245794832 0 0.69465837861970381 I I #
vertex $-1 $330 $403 #
straight-curve $-1 -34.765561269252601 32.238886335425669 114.77092461158422 -0.71933979245794832 0 0.69465837861970381 I I #
edge $-1 $404 -79.250465407269502 $234 -70.241448699774878 $331 $405 forward 7 unknown #
point $-1 70.241448699774878 48.220958710209537 13.36683150623594 #
point $-1 70.241448699774878 32.238886335425669 13.36683150623594 #
edge $-1 $406 1 $406 0 $237 $-1 forward 7 unknown #
vertex $-1 $238 $407 #
ellipse-curve $-1 73.743602770264062 36.805192728221058 7.9789100323329958 0.69465837861970381 0 0.71933979245794832 0.71933979245794832 0 -0.69465837861970381 1 I I #
point $-1 75.46529684598012 36.805192728221058 8.3222198756196093 #
edge $-1 $408 1 $408 0 $241 $-1 forward 7 unknown #
vertex $-1 $242 $409 #
ellipse-curve $-1 73.743602770264062 43.654652317414147 7.9789100323329958 0.69465837861970381 0 0.71933979245794832 0.71933979245794832 0 -0.69465837861970381 1 I I #
point $-1 75.46529684598012 43.654652317414147 8.3222198756196093 #
plane-surface $-1 79.250465407269502 0 0 -1 0 0 0 0 1 forward_v I I I I #
coedge $-1 $250 $248 $252 $353 reversed $161 $-1 #
edge $-1 $263 -13.366831506235943 $355 13.366831506235943 $262 $410 forward 7 unknown #
vertex $-1 $353 $411 #
straight-curve $-1 -79.250465407269502 -48.22095871020953 0 0 0 -1 I I #
edge $-1 $351 -48.22095871020953 $355 48.22095871020953 $349 $412 forward 7 unknown #
straight-curve $-1 0 -48.22095871020953 -13.366831506235943 -1 0 0 I I #
vertex $-1 $255 $413 #
straight-curve $-1 0 48.22095871020953 -13.366831506235943 1 0 0 I I #
point $-1 79.250465407269502 48.22095871020953 -13.366831506235943 #
point $-1 79.250465407269502 -48.22095871020953 -13.366831506235943 #
straight-curve $-1 -79.250465407269502 0 13.366831506235943 0 -1 0 I I #
point $-1 -79.250465407269502 48.22095871020953 13.366831506235943 #
point $-1 -79.250465407269502 -48.22095871020953 13.366831506235943 #
straight-curve $-1 79.250465407269502 -48.22095871020953 0 0 0 -1 I I #
straight-curve $-1 79.250465407269502 48.22095871020953 0 0 0 -1 I I #
plane-surface $-1 79.250465407269502 0 0 -1 0 0 0 0 1 forward_v I I I I #
coedge $-1 $368 $275 $286 $377 forward $180 $-1 #
coedge $-1 $275 $368 $289 $379 reversed $180 $-1 #
straight-curve $-1 79.250465407269502 -35.990301762967036 -5.4352173109601898 0 0 1 I I #
coedge $-1 $366 $365 $278 $369 forward $180 $-1 #
edge $-1 $372 14.937486644672894 $370 27.168143591915388 $368 $414 forward 7 unknown #
vertex $-1 $280 $415 #
straight-curve $-1 0 -48.22095871020953 -12.866831506235943 1 0 0 I I #
vertex $-1 $369 $416 #
straight-curve $-1 0 -35.990301762967036 -12.866831506235943 1 0 0 I I #
point $-1 79.250465407269502 -48.22095871020953 -12.866831506235943 #
point $-1 79.250465407269502 -35.990301762967036 -12.866831506235943 #
straight-curve $-1 -79.250465407269502 -21.052815118294141 -8.8740377376048158 0 1 0 I I #
edge $-1 $287 3.4388204266446261 $372 7.4316141952757535 $365 $417 forward 7 unknown #
point $-1 -79.250465407269502 -35.990301762967036 -8.8740377376048158 #
edge $-1 $291 8.8740377376048158 $370 12.866831506235943 $366 $418 forward 7 unknown #
point $-1 -79.250465407269502 -48.22095871020953 -8.8740377376048158 #
straight-curve $-1 79.250465407269502 -48.22095871020953 0 0 0 -1 I I #
edge $-1 $383 29.415066176462343 $386 34.060876213860972 $297 $419 forward 7 unknown #
vertex $-1 $311 $420 #
straight-curve $-1 -108.93925215308948 44.016228659379109 13.36683150623594 -1 0 0 I I #
edge $-1 $386 -27.072881818199363 $308 -6.8138118641601295 $307 $421 forward 7 unknown #
vertex $-1 $385 $422 #
straight-curve $-1 -79.250465407269473 44.016228659379109 8.721021468837364 0.48480960649040278 0 0.87461971476443456 I I #
point $-1 -76.675250947729197 44.016228659379109 13.366831506235943 #
point $-1 -79.250465407269502 23.757158705339876 8.7210214688373124 #
straight-curve $-1 -79.250465407269502 0 13.366831506235943 0 -1 0 I I #
vertex $-1 $314 $423 #
point $-1 -76.216900700188006 29.545464406493949 11.219480548214396 #
vertex $-1 $318 $424 #
point $-1 -76.216900700188006 38.227922958225051 11.219480548214396 #
coedge $-1 $396 $324 $332 $401 reversed $223 $-1 #
coedge $-1 $325 $395 $327 $398 reversed $223 $-1 #
straight-curve $-1 79.250465407269502 32.238886335425669 114.39347564405317 0 0 -1 I I #
edge $-1 $328 32.238886335425669 $404 48.22095871020953 $396 $425 forward 7 unknown #
point $-1 79.250465407269502 32.238886335425669 13.366831506235943 #
straight-curve $-1 79.250465407269502 20.114961261408801 4.6669250022427278 0 1 0 I I #
edge $-1 $404 -13.366831506235943 $333 -4.6669250022427207 $395 $426 forward 7 unknown #
point $-1 79.250465407269488 48.220958710209537 4.6669250022427207 #
point $-1 79.250465407269488 32.238886335425669 4.6669250022427207 #
vertex $-1 $398 $427 #
straight-curve $-1 0 48.22095871020953 13.366831506235943 -1 0 0 I I #
vertex $-1 $340 $428 #
point $-1 74.46294256272202 36.805192728221058 7.2842516537132918 #
vertex $-1 $344 $429 #
point $-1 74.46294256272202 43.654652317414147 7.2842516537132918 #
straight-curve $-1 -79.250465407269502 48.22095871020953 0 0 0 -1 I I #
point $-1 -79.250465407269502 -48.22095871020953 -13.366831506235943 #
straight-curve $-1 -79.250465407269502 0 -13.366831506235943 0 1 0 I I #
point $-1 -79.250465407269502 48.22095871020953 -13.366831506235943 #
straight-curve $-1 -79.250465407269502 -21.052815118294141 -12.866831506235943 0 -1 0 I I #
point $-1 -79.250465407269502 -48.22095871020953 -12.866831506235943 #
point $-1 -79.250465407269502 -35.990301762967036 -12.866831506235943 #
straight-curve $-1 -79.250465407269502 -35.990301762967036 -5.4352173109601898 0 0 -1 I I #
straight-curve $-1 -79.250465407269502 -48.22095871020953 0 0 0 -1 I I #
straight-curve $-1 -79.250465407269502 44.016228659379109 42.781897682698286 0 0 -1 I I #
point $-1 -79.250465407269502 44.016228659379109 13.366831506235943 #
straight-curve $-1 -79.250465407269502 16.943346841179746 8.7210214688373089 0 -1 0 I I #
point $-1 -79.250465407269502 44.016228659379109 8.7210214688373124 #
point $-1 -75.827090591913972 29.545464406493949 9.860051226959559 #
point $-1 -75.827090591913972 38.227922958225051 9.860051226959559 #
straight-curve $-1 79.250465407269502 0 13.366831506235943 0 1 0 I I #
straight-curve $-1 79.250465407269502 48.22095871020953 0 0 0 -1 I I #
point $-1 79.250465407269502 48.22095871020953 13.366831506235943 #
point $-1 73.048944391644369 36.805192728221058 7.2595702398750479 #
point $-1 73.048944391644369 43.654652317414147 7.2595702398750479 #
End-of-ACIS-data 