500 0 14 0           
7 Unknown 11 ACIS 5.0 NT 24 Thu Mar 25 16:08:55 1999 
-1 9.9999999999999995e-007 1e-010 
body $-1 $14 $-1 $15 #
body $-1 $16 $-1 $17 #
body $-1 $18 $-1 $19 #
body $-1 $20 $-1 $21 #
body $-1 $22 $-1 $23 #
body $-1 $24 $-1 $25 #
body $-1 $26 $-1 $27 #
body $-1 $28 $-1 $29 #
body $-1 $30 $-1 $31 #
body $-1 $32 $-1 $33 #
body $-1 $34 $-1 $35 #
body $-1 $36 $-1 $37 #
body $-1 $38 $-1 $39 #
body $-1 $40 $-1 $41 #
lump $-1 $-1 $42 $0 #
transform $-1 1 0 0 0 1 0 0 0 1 71.285134434034234 45.70237098716445 14.770874636929502 1 rotate no_reflect no_shear #
lump $-1 $-1 $43 $1 #
transform $-1 1 0 0 0 1 0 0 0 1 71.285134434034234 45.70237098716445 14.770874636929502 1 rotate no_reflect no_shear #
lump $-1 $-1 $44 $2 #
transform $-1 1 0 0 0 1 0 0 0 1 71.285134434034234 45.70237098716445 14.770874636929502 1 rotate no_reflect no_shear #
lump $-1 $-1 $45 $3 #
transform $-1 1 0 0 0 1 0 0 0 1 71.285134434034234 45.70237098716445 14.770874636929502 1 rotate no_reflect no_shear #
lump $-1 $-1 $46 $4 #
transform $-1 1 0 0 0 1 0 0 0 1 71.285134434034234 45.70237098716445 14.770874636929502 1 rotate no_reflect no_shear #
lump $-1 $-1 $47 $5 #
transform $-1 1 0 0 0 1 0 0 0 1 71.285134434034234 45.70237098716445 14.770874636929502 1 rotate no_reflect no_shear #
lump $-1 $-1 $48 $6 #
transform $-1 1 0 0 0 1 0 0 0 1 71.285134434034234 45.70237098716445 14.770874636929502 1 rotate no_reflect no_shear #
lump $-1 $-1 $49 $7 #
transform $-1 1 0 0 0 1 0 0 0 1 71.285134434034234 45.70237098716445 14.770874636929502 1 rotate no_reflect no_shear #
lump $-1 $-1 $50 $8 #
transform $-1 1 0 0 0 1 0 0 0 1 71.285134434034234 45.70237098716445 14.770874636929502 1 rotate no_reflect no_shear #
lump $-1 $-1 $51 $9 #
transform $-1 1 0 0 0 1 0 0 0 1 71.285134434034234 45.70237098716445 14.770874636929502 1 rotate no_reflect no_shear #
lump $-1 $-1 $52 $10 #
transform $-1 1 0 0 0 1 0 0 0 1 71.285134434034234 45.70237098716445 14.770874636929502 1 rotate no_reflect no_shear #
lump $-1 $-1 $53 $11 #
transform $-1 1 0 0 0 1 0 0 0 1 71.285134434034234 45.70237098716445 14.770874636929502 1 rotate no_reflect no_shear #
lump $-1 $-1 $54 $12 #
transform $-1 1 0 0 0 1 0 0 0 1 71.285134434034234 45.70237098716445 14.770874636929502 1 rotate no_reflect no_shear #
lump $-1 $-1 $55 $13 #
transform $-1 1 0 0 0 1 0 0 0 1 71.285134434034234 45.70237098716445 14.770874636929502 1 rotate no_reflect no_shear #
shell $-1 $-1 $-1 $56 $-1 $14 #
shell $-1 $-1 $-1 $57 $-1 $16 #
shell $-1 $-1 $-1 $58 $-1 $18 #
shell $-1 $-1 $-1 $59 $-1 $20 #
shell $-1 $-1 $-1 $60 $-1 $22 #
shell $-1 $-1 $-1 $61 $-1 $24 #
shell $-1 $-1 $-1 $62 $-1 $26 #
shell $-1 $-1 $-1 $63 $-1 $28 #
shell $-1 $-1 $-1 $64 $-1 $30 #
shell $-1 $-1 $-1 $65 $-1 $32 #
shell $-1 $-1 $-1 $66 $-1 $34 #
shell $-1 $-1 $-1 $67 $-1 $36 #
shell $-1 $-1 $-1 $68 $-1 $38 #
shell $-1 $-1 $-1 $69 $-1 $40 #
face $-1 $70 $71 $42 $-1 $72 forward single #
face $-1 $73 $74 $43 $-1 $75 forward single #
face $-1 $76 $77 $44 $-1 $78 reversed single #
face $-1 $79 $80 $45 $-1 $81 forward single #
face $-1 $82 $83 $46 $-1 $84 forward single #
face $-1 $85 $86 $47 $-1 $87 reversed single #
face $-1 $88 $89 $48 $-1 $90 forward single #
face $-1 $91 $92 $49 $-1 $93 forward single #
face $-1 $94 $95 $50 $-1 $96 reversed single #
face $-1 $97 $98 $51 $-1 $99 forward single #
face $-1 $100 $101 $52 $-1 $102 forward single #
face $-1 $103 $104 $53 $-1 $105 reversed single #
face $-1 $106 $107 $54 $-1 $108 forward single #
face $-1 $109 $110 $55 $-1 $111 forward single #
face $-1 $112 $113 $42 $-1 $114 reversed single #
loop $-1 $-1 $115 $56 #
plane-surface $-1 0 0 14.770874636929502 0 0 1 1 0 0 forward_v I I I I #
face $-1 $116 $117 $43 $-1 $118 reversed single #
loop $-1 $-1 $119 $57 #
plane-surface $-1 -61.852767727462066 0 5.8266815045824298 0 0 1 1 0 0 forward_v I I I I #
face $-1 $120 $121 $44 $-1 $122 reversed single #
loop $-1 $-1 $123 $58 #
plane-surface $-1 -21.872809208531024 58.504229530388365 176.33126468664204 1 0 0 0 -0.6018150307709319 -0.79863550430605224 forward_v I I I I #
face $-1 $124 $125 $45 $-1 $126 forward single #
loop $-1 $127 $128 $59 #
cone-surface $-1 -15.442164346133566 39.246270490789335 8.9849838571234386 0 -0.6018150307709319 -0.79863550430605224 2 0 0 1 I I 0 1 2 forward I I I I #
face $-1 $129 $130 $46 $-1 $131 forward single #
loop $-1 $132 $133 $60 #
cone-surface $-1 -5.79619705253738 39.246270490789335 8.9849838571234386 0 -0.6018150307709319 -0.79863550430605224 2 0 0 1 I I 0 1 2 forward I I I I #
face $-1 $134 $135 $47 $-1 $136 reversed single #
loop $-1 $-1 $137 $61 #
plane-surface $-1 18.230285603284273 58.504229530388365 176.33126468664204 1 0 0 0 -0.6018150307709319 -0.79863550430605224 forward_v I I I I #
face $-1 $138 $139 $48 $-1 $140 forward single #
loop $-1 $141 $142 $62 #
cone-surface $-1 24.66093046568173 39.246270490789335 8.9849838571234386 0 -0.6018150307709319 -0.79863550430605224 2 0 0 1 I I 0 1 2 forward I I I I #
face $-1 $143 $144 $49 $-1 $145 forward single #
loop $-1 $146 $147 $63 #
cone-surface $-1 34.306897759277916 39.246270490789335 8.9849838571234386 0 -0.6018150307709319 -0.79863550430605224 2 0 0 1 I I 0 1 2 forward I I I I #
face $-1 $148 $149 $50 $-1 $150 reversed single #
loop $-1 $-1 $151 $64 #
plane-surface $-1 0.63444780986007743 -131.50330173302112 121.3225170827522 -1 0 0 0 -0.6018150307709319 0.79863550430605224 forward_v I I I I #
face $-1 $152 $153 $51 $-1 $154 forward single #
loop $-1 $155 $156 $65 #
cone-surface $-1 -15.442164346133566 -39.246270490789328 8.9849838571234386 0 0.6018150307709319 -0.79863550430605224 2 0 0 1 I I 0 1 2 forward I I I I #
face $-1 $157 $158 $52 $-1 $159 forward single #
loop $-1 $160 $161 $66 #
cone-surface $-1 -5.79619705253738 -39.246270490789328 8.9849838571234386 0 0.6018150307709319 -0.79863550430605224 2 0 0 1 I I 0 1 2 forward I I I I #
face $-1 $162 $163 $53 $-1 $164 reversed single #
loop $-1 $-1 $165 $67 #
plane-surface $-1 40.737542621675374 -131.50330173302112 121.3225170827522 -1 0 0 0 -0.6018150307709319 0.79863550430605224 forward_v I I I I #
face $-1 $166 $167 $54 $-1 $168 forward single #
loop $-1 $169 $170 $68 #
cone-surface $-1 24.66093046568173 -39.246270490789328 8.9849838571234386 0 0.6018150307709319 -0.79863550430605224 2 0 0 1 I I 0 1 2 forward I I I I #
face $-1 $171 $172 $55 $-1 $173 forward single #
loop $-1 $174 $175 $69 #
cone-surface $-1 34.306897759277916 -39.246270490789328 8.9849838571234386 0 0.6018150307709319 -0.79863550430605224 2 0 0 1 I I 0 1 2 forward I I I I #
face $-1 $176 $177 $42 $-1 $178 reversed single #
loop $-1 $-1 $179 $70 #
plane-surface $-1 0 0 -14.770874636929502 0 0 1 1 0 0 forward_v I I I I #
coedge $-1 $180 $181 $182 $183 forward $71 $-1 #
face $-1 $184 $185 $43 $-1 $186 reversed single #
loop $-1 $-1 $187 $73 #
plane-surface $-1 -61.852767727462066 0 -2.3555184384977235 0 0 1 1 0 0 forward_v I I I I #
coedge $-1 $188 $189 $190 $191 forward $74 $-1 #
face $-1 $192 $193 $44 $-1 $194 reversed single #
loop $-1 $-1 $195 $76 #
plane-surface $-1 -10.619180699335473 -27.296701215468296 62.469586110142728 0 0.6018150307709319 0.79863550430605224 1 0 0 forward_v I I I I #
coedge $-1 $196 $197 $198 $199 reversed $77 $-1 #
face $-1 $-1 $200 $45 $-1 $201 forward single #
loop $-1 $202 $203 $79 #
cone-surface $-1 -15.442164346133566 37.038727663906151 6.0554756383496233 0 -0.6018150307709319 -0.79863550430605224 1 0 0 1 I I -0.70710678118654724 0.70710678118654791 1 forward I I I I #
loop $-1 $-1 $204 $59 #
coedge $-1 $128 $128 $205 $206 reversed $80 $-1 #
face $-1 $-1 $207 $46 $-1 $208 forward single #
loop $-1 $209 $210 $82 #
cone-surface $-1 -5.79619705253738 37.038727663906151 6.0554756383496233 0 -0.6018150307709319 -0.79863550430605224 1 0 0 1 I I -0.70710678118654724 0.70710678118654791 1 forward I I I I #
loop $-1 $-1 $211 $60 #
coedge $-1 $133 $133 $212 $213 reversed $83 $-1 #
face $-1 $214 $215 $47 $-1 $216 reversed single #
loop $-1 $-1 $217 $85 #
plane-surface $-1 29.483914112479823 -27.296701215468296 62.469586110142728 0 0.6018150307709319 0.79863550430605224 1 0 0 forward_v I I I I #
coedge $-1 $218 $219 $220 $221 reversed $86 $-1 #
face $-1 $-1 $222 $48 $-1 $223 forward single #
loop $-1 $224 $225 $88 #
cone-surface $-1 24.66093046568173 37.038727663906151 6.0554756383496233 0 -0.6018150307709319 -0.79863550430605224 1 0 0 1 I I -0.70710678118654724 0.70710678118654791 1 forward I I I I #
loop $-1 $-1 $226 $62 #
coedge $-1 $142 $142 $227 $228 reversed $89 $-1 #
face $-1 $-1 $229 $49 $-1 $230 forward single #
loop $-1 $231 $232 $91 #
cone-surface $-1 34.306897759277916 37.038727663906151 6.0554756383496233 0 -0.6018150307709319 -0.79863550430605224 1 0 0 1 I I -0.70710678118654724 0.70710678118654791 1 forward I I I I #
loop $-1 $-1 $233 $63 #
coedge $-1 $147 $147 $234 $235 reversed $92 $-1 #
face $-1 $236 $237 $50 $-1 $238 reversed single #
loop $-1 $-1 $239 $94 #
plane-surface $-1 -10.619180699335473 -45.702370987164457 7.4608385062528839 0 -0.6018150307709319 0.79863550430605224 1 0 0 forward_v I I I I #
coedge $-1 $240 $241 $242 $243 reversed $95 $-1 #
face $-1 $-1 $244 $51 $-1 $245 forward single #
loop $-1 $246 $247 $97 #
cone-surface $-1 -15.442164346133566 -37.038727663906144 6.0554756383496233 0 0.6018150307709319 -0.79863550430605224 1 0 0 1 I I -0.70710678118654724 0.70710678118654791 1 forward I I I I #
loop $-1 $-1 $248 $65 #
coedge $-1 $156 $156 $249 $250 reversed $98 $-1 #
face $-1 $-1 $251 $52 $-1 $252 forward single #
loop $-1 $253 $254 $100 #
cone-surface $-1 -5.79619705253738 -37.038727663906144 6.0554756383496233 0 0.6018150307709319 -0.79863550430605224 1 0 0 1 I I -0.70710678118654724 0.70710678118654791 1 forward I I I I #
loop $-1 $-1 $255 $66 #
coedge $-1 $161 $161 $256 $257 reversed $101 $-1 #
face $-1 $258 $259 $53 $-1 $260 reversed single #
loop $-1 $-1 $261 $103 #
plane-surface $-1 29.483914112479823 -45.702370987164457 7.4608385062528839 0 -0.6018150307709319 0.79863550430605224 1 0 0 forward_v I I I I #
coedge $-1 $262 $263 $264 $265 reversed $104 $-1 #
face $-1 $-1 $266 $54 $-1 $267 forward single #
loop $-1 $268 $269 $106 #
cone-surface $-1 24.66093046568173 -37.038727663906144 6.0554756383496233 0 0.6018150307709319 -0.79863550430605224 1 0 0 1 I I -0.70710678118654724 0.70710678118654791 1 forward I I I I #
loop $-1 $-1 $270 $68 #
coedge $-1 $170 $170 $271 $272 reversed $107 $-1 #
face $-1 $-1 $273 $55 $-1 $274 forward single #
loop $-1 $275 $276 $109 #
cone-surface $-1 34.306897759277916 -37.038727663906144 6.0554756383496233 0 0.6018150307709319 -0.79863550430605224 1 0 0 1 I I -0.70710678118654724 0.70710678118654791 1 forward I I I I #
loop $-1 $-1 $277 $69 #
coedge $-1 $175 $175 $278 $279 reversed $110 $-1 #
face $-1 $280 $281 $42 $-1 $282 reversed single #
loop $-1 $-1 $283 $112 #
plane-surface $-1 0 -45.70237098716445 0 0 1 0 0 0 1 forward_v I I I I #
coedge $-1 $284 $285 $286 $287 forward $113 $-1 #
coedge $-1 $288 $115 $289 $290 forward $71 $-1 #
coedge $-1 $115 $288 $291 $292 forward $71 $-1 #
coedge $-1 $293 $294 $115 $183 reversed $295 $-1 #
edge $-1 $296 -45.70237098716445 $297 45.70237098716445 $182 $298 forward 7 unknown #
face $-1 $299 $300 $43 $-1 $301 reversed single #
loop $-1 $-1 $302 $116 #
plane-surface $-1 -52.420401020889898 0 1.7355815330423532 -1 0 0 0 0 1 forward_v I I I I #
coedge $-1 $303 $304 $305 $306 forward $117 $-1 #
coedge $-1 $307 $119 $308 $309 reversed $74 $-1 #
coedge $-1 $119 $307 $310 $311 reversed $74 $-1 #
coedge $-1 $302 $312 $119 $191 reversed $185 $-1 #
edge $-1 $313 -45.70237098716445 $314 45.70237098716445 $190 $315 forward 7 unknown #
face $-1 $316 $317 $44 $-1 $318 forward single #
loop $-1 $-1 $319 $120 #
plane-surface $-1 0.63444780986007743 58.504229530388365 176.33126468664204 -1 0 0 0 0.6018150307709319 0.79863550430605224 forward_v I I I I #
coedge $-1 $320 $321 $322 $323 reversed $121 $-1 #
coedge $-1 $197 $123 $324 $325 reversed $77 $-1 #
coedge $-1 $123 $196 $320 $326 reversed $77 $-1 #
coedge $-1 $322 $327 $123 $199 forward $317 $-1 #
edge $-1 $328 -16.450256221970267 $329 -6.7495108214445061 $198 $330 forward 7 unknown #
loop $-1 $-1 $205 $124 #
plane-surface $-1 -10.619180699335473 -27.296701215468296 62.469586110142728 0 0.6018150307709319 0.79863550430605224 1 0 0 forward_v I I I I #
loop $-1 $-1 $331 $79 #
coedge $-1 $203 $203 $204 $332 reversed $125 $-1 #
coedge $-1 $204 $204 $203 $332 forward $127 $-1 #
coedge $-1 $205 $205 $128 $206 forward $200 $-1 #
edge $-1 $333 1.6472766561430553e-016 $333 6.2831853071796004 $205 $334 forward 7 unknown #
loop $-1 $-1 $212 $129 #
plane-surface $-1 -10.619180699335473 -27.296701215468296 62.469586110142728 0 0.6018150307709319 0.79863550430605224 1 0 0 forward_v I I I I #
loop $-1 $-1 $335 $82 #
coedge $-1 $210 $210 $211 $336 reversed $130 $-1 #
coedge $-1 $211 $211 $210 $336 forward $132 $-1 #
coedge $-1 $212 $212 $133 $213 forward $207 $-1 #
edge $-1 $337 1.6472766561430553e-016 $337 6.2831853071796004 $212 $338 forward 7 unknown #
face $-1 $339 $340 $47 $-1 $341 forward single #
loop $-1 $-1 $342 $134 #
plane-surface $-1 40.737542621675374 58.504229530388365 176.33126468664204 -1 0 0 0 0.6018150307709319 0.79863550430605224 forward_v I I I I #
coedge $-1 $343 $344 $345 $346 reversed $135 $-1 #
coedge $-1 $219 $137 $347 $348 reversed $86 $-1 #
coedge $-1 $137 $218 $343 $349 reversed $86 $-1 #
coedge $-1 $345 $350 $137 $221 forward $340 $-1 #
edge $-1 $351 -16.450256221970267 $352 -6.7495108214445061 $220 $353 forward 7 unknown #
loop $-1 $-1 $227 $138 #
plane-surface $-1 29.483914112479823 -27.296701215468296 62.469586110142728 0 0.6018150307709319 0.79863550430605224 1 0 0 forward_v I I I I #
loop $-1 $-1 $354 $88 #
coedge $-1 $225 $225 $226 $355 reversed $139 $-1 #
coedge $-1 $226 $226 $225 $355 forward $141 $-1 #
coedge $-1 $227 $227 $142 $228 forward $222 $-1 #
edge $-1 $356 1.6472766561430553e-016 $356 6.2831853071796004 $227 $357 forward 7 unknown #
loop $-1 $-1 $234 $143 #
plane-surface $-1 29.483914112479823 -27.296701215468296 62.469586110142728 0 0.6018150307709319 0.79863550430605224 1 0 0 forward_v I I I I #
loop $-1 $-1 $358 $91 #
coedge $-1 $232 $232 $233 $359 reversed $144 $-1 #
coedge $-1 $233 $233 $232 $359 forward $146 $-1 #
coedge $-1 $234 $234 $147 $235 forward $229 $-1 #
edge $-1 $360 1.6472766561430553e-016 $360 6.2831853071796004 $234 $361 forward 7 unknown #
face $-1 $362 $363 $50 $-1 $364 reversed single #
loop $-1 $-1 $365 $148 #
plane-surface $-1 -21.872809208531024 -131.50330173302112 121.3225170827522 1 0 0 0 0.6018150307709319 -0.79863550430605224 forward_v I I I I #
coedge $-1 $366 $367 $368 $369 reversed $149 $-1 #
coedge $-1 $241 $151 $370 $371 reversed $95 $-1 #
coedge $-1 $151 $240 $366 $372 reversed $95 $-1 #
coedge $-1 $368 $373 $151 $243 forward $374 $-1 #
edge $-1 $375 20.049279879346109 $376 29.750025279871856 $242 $377 forward 7 unknown #
loop $-1 $-1 $249 $152 #
plane-surface $-1 -10.619180699335473 -45.702370987164457 7.4608385062528839 0 -0.6018150307709319 0.79863550430605224 1 0 0 forward_v I I I I #
loop $-1 $-1 $378 $97 #
coedge $-1 $247 $247 $248 $379 reversed $153 $-1 #
coedge $-1 $248 $248 $247 $379 forward $155 $-1 #
coedge $-1 $249 $249 $156 $250 forward $244 $-1 #
edge $-1 $380 -6.9924678859621399e-016 $380 6.2831853071795996 $249 $381 forward 7 unknown #
loop $-1 $-1 $256 $157 #
plane-surface $-1 -10.619180699335473 -45.702370987164457 7.4608385062528839 0 -0.6018150307709319 0.79863550430605224 1 0 0 forward_v I I I I #
loop $-1 $-1 $382 $100 #
coedge $-1 $254 $254 $255 $383 reversed $158 $-1 #
coedge $-1 $255 $255 $254 $383 forward $160 $-1 #
coedge $-1 $256 $256 $161 $257 forward $251 $-1 #
edge $-1 $384 -6.9924678859621399e-016 $384 6.2831853071795996 $256 $385 forward 7 unknown #
face $-1 $386 $387 $53 $-1 $388 reversed single #
loop $-1 $-1 $389 $162 #
plane-surface $-1 18.230285603284273 -131.50330173302112 121.3225170827522 1 0 0 0 0.6018150307709319 -0.79863550430605224 forward_v I I I I #
coedge $-1 $390 $391 $392 $393 reversed $163 $-1 #
coedge $-1 $263 $165 $394 $395 reversed $104 $-1 #
coedge $-1 $165 $262 $390 $396 reversed $104 $-1 #
coedge $-1 $392 $397 $165 $265 forward $398 $-1 #
edge $-1 $399 20.049279879346109 $400 29.750025279871856 $264 $401 forward 7 unknown #
loop $-1 $-1 $271 $166 #
plane-surface $-1 29.483914112479823 -45.702370987164457 7.4608385062528839 0 -0.6018150307709319 0.79863550430605224 1 0 0 forward_v I I I I #
loop $-1 $-1 $402 $106 #
coedge $-1 $269 $269 $270 $403 reversed $167 $-1 #
coedge $-1 $270 $270 $269 $403 forward $169 $-1 #
coedge $-1 $271 $271 $170 $272 forward $266 $-1 #
edge $-1 $404 -6.9924678859621399e-016 $404 6.2831853071795996 $271 $405 forward 7 unknown #
loop $-1 $-1 $278 $171 #
plane-surface $-1 29.483914112479823 -45.702370987164457 7.4608385062528839 0 -0.6018150307709319 0.79863550430605224 1 0 0 forward_v I I I I #
loop $-1 $-1 $406 $109 #
coedge $-1 $276 $276 $277 $407 reversed $172 $-1 #
coedge $-1 $277 $277 $276 $407 forward $174 $-1 #
coedge $-1 $278 $278 $175 $279 forward $273 $-1 #
edge $-1 $408 -6.9924678859621399e-016 $408 6.2831853071795996 $278 $409 forward 7 unknown #
face $-1 $410 $411 $42 $-1 $412 reversed single #
loop $-1 $-1 $413 $176 #
plane-surface $-1 -71.285134434034234 0 0 1 0 0 0 0 -1 forward_v I I I I #
coedge $-1 $414 $291 $415 $416 forward $177 $-1 #
coedge $-1 $417 $179 $414 $418 forward $113 $-1 #
coedge $-1 $179 $417 $419 $420 forward $113 $-1 #
coedge $-1 $294 $293 $179 $287 reversed $295 $-1 #
edge $-1 $421 -45.70237098716445 $422 45.70237098716445 $286 $423 forward 7 unknown #
coedge $-1 $181 $180 $424 $425 forward $71 $-1 #
coedge $-1 $426 $427 $180 $290 reversed $411 $-1 #
edge $-1 $297 -71.285134434034234 $428 71.285134434034234 $289 $429 forward 7 unknown #
coedge $-1 $283 $430 $181 $292 reversed $177 $-1 #
edge $-1 $431 -71.285134434034234 $296 71.285134434034234 $291 $432 forward 7 unknown #
coedge $-1 $286 $182 $430 $433 forward $295 $-1 #
coedge $-1 $182 $286 $426 $434 reversed $295 $-1 #
loop $-1 $-1 $293 $410 #
vertex $-1 $183 $435 #
vertex $-1 $183 $436 #
straight-curve $-1 71.285134434034234 0 14.770874636929502 0 1 0 I I #
face $-1 $437 $438 $43 $-1 $439 reversed single #
loop $-1 $-1 $440 $184 #
plane-surface $-1 0 -45.70237098716445 0 0 1 0 0 0 1 forward_v I I I I #
coedge $-1 $305 $190 $441 $442 reversed $185 $-1 #
coedge $-1 $443 $187 $440 $444 reversed $117 $-1 #
coedge $-1 $187 $443 $445 $446 reversed $117 $-1 #
coedge $-1 $312 $302 $187 $306 reversed $185 $-1 #
edge $-1 $447 -45.70237098716445 $448 45.70237098716445 $305 $449 forward 7 unknown #
coedge $-1 $189 $188 $450 $451 reversed $74 $-1 #
coedge $-1 $452 $453 $188 $309 forward $454 $-1 #
edge $-1 $455 -40.358750570303201 $314 -21.494017157158865 $308 $456 forward 7 unknown #
coedge $-1 $457 $441 $189 $311 forward $300 $-1 #
edge $-1 $313 21.494017157158865 $458 40.358750570303201 $310 $459 forward 7 unknown #
coedge $-1 $190 $305 $452 $460 reversed $185 $-1 #
vertex $-1 $311 $461 #
vertex $-1 $309 $462 #
straight-curve $-1 -52.420401020889898 0 5.8266815045824298 0 1 0 I I #
face $-1 $-1 $463 $44 $-1 $464 reversed single #
loop $-1 $-1 $198 $192 #
plane-surface $-1 0 0 14.770874636929502 0 0 1 1 0 0 forward_v I I I I #
coedge $-1 $465 $466 $467 $468 reversed $193 $-1 #
coedge $-1 $469 $195 $197 $326 forward $121 $-1 #
coedge $-1 $195 $469 $465 $470 forward $121 $-1 #
coedge $-1 $467 $198 $195 $323 forward $317 $-1 #
edge $-1 $329 -16.563218858863287 $471 5.944038159527814 $322 $472 forward 7 unknown #
coedge $-1 $473 $474 $196 $325 forward $463 $-1 #
edge $-1 $475 -80.704793837068138 $328 -73.394757706391516 $324 $476 forward 7 unknown #
edge $-1 $329 79.25809266031564 $475 91.404741974328914 $197 $477 forward 7 unknown #
coedge $-1 $198 $467 $473 $478 forward $317 $-1 #
vertex $-1 $325 $479 #
vertex $-1 $199 $480 #
straight-curve $-1 -21.872809208531024 29.252114765194182 14.770874636929506 0 -1 0 I I #
coedge $-1 $331 $331 $-1 $481 reversed $202 $-1 #
edge $-1 $482 0 $482 6.2831853071796004 $203 $483 forward 7 unknown #
vertex $-1 $206 $484 #
ellipse-curve $-1 -15.442164346133566 40.851998286901583 11.115856571591193 0 0.6018150307709319 0.79863550430605224 2 0 0 1 I I #
coedge $-1 $335 $335 $-1 $485 reversed $209 $-1 #
edge $-1 $486 0 $486 6.2831853071796004 $210 $487 forward 7 unknown #
vertex $-1 $213 $488 #
ellipse-curve $-1 -5.79619705253738 40.851998286901583 11.115856571591193 0 0.6018150307709319 0.79863550430605224 2 0 0 1 I I #
face $-1 $-1 $489 $47 $-1 $490 reversed single #
loop $-1 $-1 $220 $214 #
plane-surface $-1 0 0 14.770874636929502 0 0 1 1 0 0 forward_v I I I I #
coedge $-1 $491 $492 $493 $494 reversed $215 $-1 #
coedge $-1 $495 $217 $219 $349 forward $135 $-1 #
coedge $-1 $217 $495 $491 $496 forward $135 $-1 #
coedge $-1 $493 $220 $217 $346 forward $340 $-1 #
edge $-1 $352 3.488328547044361 $497 25.995585565435462 $345 $498 forward 7 unknown #
coedge $-1 $499 $500 $218 $348 forward $489 $-1 #
edge $-1 $501 -80.704793837068138 $351 -73.394757706391516 $347 $502 forward 7 unknown #
edge $-1 $352 79.25809266031564 $501 91.404741974328914 $219 $503 forward 7 unknown #
coedge $-1 $220 $493 $499 $504 forward $340 $-1 #
vertex $-1 $221 $505 #
vertex $-1 $221 $506 #
straight-curve $-1 18.230285603284273 29.252114765194182 14.770874636929506 0 -1 0 I I #
coedge $-1 $354 $354 $-1 $507 reversed $224 $-1 #
edge $-1 $508 0 $508 6.2831853071796004 $225 $509 forward 7 unknown #
vertex $-1 $228 $510 #
ellipse-curve $-1 24.66093046568173 40.851998286901583 11.115856571591193 0 0.6018150307709319 0.79863550430605224 2 0 0 1 I I #
coedge $-1 $358 $358 $-1 $511 reversed $231 $-1 #
edge $-1 $512 0 $512 6.2831853071796004 $232 $513 forward 7 unknown #
vertex $-1 $235 $514 #
ellipse-curve $-1 34.306897759277916 40.851998286901583 11.115856571591193 0 0.6018150307709319 0.79863550430605224 2 0 0 1 I I #
face $-1 $-1 $374 $50 $-1 $515 forward single #
loop $-1 $-1 $516 $236 #
plane-surface $-1 0 -45.70237098716445 0 0 1 0 0 0 1 forward_v I I I I #
coedge $-1 $517 $518 $519 $520 reversed $237 $-1 #
coedge $-1 $521 $239 $241 $372 forward $149 $-1 #
coedge $-1 $239 $521 $517 $522 forward $149 $-1 #
coedge $-1 $519 $242 $239 $369 forward $374 $-1 #
edge $-1 $376 -5.944038159527814 $523 16.563218858863287 $368 $524 forward 7 unknown #
coedge $-1 $525 $526 $240 $371 forward $363 $-1 #
edge $-1 $527 -53.200420035123209 $375 -45.890383904446594 $370 $528 forward 7 unknown #
edge $-1 $376 -12.146649314013274 $527 -8.8817612989391469e-015 $241 $529 forward 7 unknown #
coedge $-1 $242 $519 $525 $530 forward $374 $-1 #
loop $-1 $-1 $519 $362 #
vertex $-1 $371 $531 #
vertex $-1 $243 $532 #
straight-curve $-1 0.63444780986007743 -65.751650866510559 14.770874636929506 0 1 0 I I #
coedge $-1 $378 $378 $-1 $533 reversed $246 $-1 #
edge $-1 $534 0 $534 6.2831853071796004 $247 $535 forward 7 unknown #
vertex $-1 $250 $536 #
ellipse-curve $-1 -15.442164346133566 -40.851998286901576 11.115856571591195 0 -0.6018150307709319 0.79863550430605224 2 0 0 1 I I #
coedge $-1 $382 $382 $-1 $537 reversed $253 $-1 #
edge $-1 $538 0 $538 6.2831853071796004 $254 $539 forward 7 unknown #
vertex $-1 $257 $540 #
ellipse-curve $-1 -5.79619705253738 -40.851998286901576 11.115856571591195 0 -0.6018150307709319 0.79863550430605224 2 0 0 1 I I #
face $-1 $-1 $398 $53 $-1 $541 forward single #
loop $-1 $-1 $542 $258 #
plane-surface $-1 0 -45.70237098716445 0 0 1 0 0 0 1 forward_v I I I I #
coedge $-1 $543 $544 $545 $546 reversed $259 $-1 #
coedge $-1 $547 $261 $263 $396 forward $163 $-1 #
coedge $-1 $261 $547 $543 $548 forward $163 $-1 #
coedge $-1 $545 $264 $261 $393 forward $398 $-1 #
edge $-1 $400 -25.995585565435462 $549 -3.488328547044361 $392 $550 forward 7 unknown #
coedge $-1 $551 $552 $262 $395 forward $387 $-1 #
edge $-1 $553 -53.200420035123209 $399 -45.890383904446594 $394 $554 forward 7 unknown #
edge $-1 $400 -12.146649314013274 $553 -8.8817612989391469e-015 $263 $555 forward 7 unknown #
coedge $-1 $264 $545 $551 $556 forward $398 $-1 #
loop $-1 $-1 $545 $386 #
vertex $-1 $395 $557 #
vertex $-1 $265 $558 #
straight-curve $-1 40.737542621675374 -65.751650866510559 14.770874636929506 0 1 0 I I #
coedge $-1 $402 $402 $-1 $559 reversed $268 $-1 #
edge $-1 $560 0 $560 6.2831853071796004 $269 $561 forward 7 unknown #
vertex $-1 $272 $562 #
ellipse-curve $-1 24.66093046568173 -40.851998286901576 11.115856571591195 0 -0.6018150307709319 0.79863550430605224 2 0 0 1 I I #
coedge $-1 $406 $406 $-1 $563 reversed $275 $-1 #
edge $-1 $564 0 $564 6.2831853071796004 $276 $565 forward 7 unknown #
vertex $-1 $279 $566 #
ellipse-curve $-1 34.306897759277916 -40.851998286901576 11.115856571591195 0 -0.6018150307709319 0.79863550430605224 2 0 0 1 I I #
face $-1 $-1 $295 $42 $-1 $567 reversed single #
loop $-1 $-1 $426 $280 #
plane-surface $-1 0 45.70237098716445 0 0 -1 0 0 0 -1 forward_v I I I I #
coedge $-1 $568 $424 $427 $569 forward $281 $-1 #
coedge $-1 $430 $283 $284 $418 reversed $177 $-1 #
coedge $-1 $424 $568 $283 $416 reversed $281 $-1 #
edge $-1 $431 -14.770874636929502 $570 14.770874636929502 $415 $571 forward 7 unknown #
coedge $-1 $285 $284 $568 $572 forward $113 $-1 #
edge $-1 $422 -71.285134434034234 $570 71.285134434034234 $414 $573 forward 7 unknown #
coedge $-1 $427 $426 $285 $420 reversed $411 $-1 #
edge $-1 $574 -71.285134434034234 $421 71.285134434034234 $419 $575 forward 7 unknown #
vertex $-1 $287 $576 #
vertex $-1 $433 $577 #
straight-curve $-1 71.285134434034234 0 -14.770874636929502 0 -1 0 I I #
coedge $-1 $413 $415 $288 $425 reversed $281 $-1 #
edge $-1 $428 -45.70237098716445 $431 45.70237098716445 $424 $578 forward 7 unknown #
coedge $-1 $419 $289 $294 $434 forward $411 $-1 #
coedge $-1 $289 $419 $413 $569 reversed $411 $-1 #
vertex $-1 $290 $579 #
straight-curve $-1 0 45.70237098716445 14.770874636929502 -1 0 0 I I #
coedge $-1 $291 $414 $293 $433 reversed $177 $-1 #
vertex $-1 $425 $580 #
straight-curve $-1 0 -45.70237098716445 14.770874636929502 1 0 0 I I #
edge $-1 $296 -14.770874636929502 $422 14.770874636929502 $293 $581 forward 7 unknown #
edge $-1 $297 -14.770874636929502 $421 14.770874636929502 $294 $582 forward 7 unknown #
point $-1 71.285134434034234 -45.70237098716445 14.770874636929502 #
point $-1 71.285134434034234 45.70237098716445 14.770874636929502 #
face $-1 $-1 $454 $43 $-1 $583 reversed single #
loop $-1 $-1 $584 $299 #
plane-surface $-1 -71.285134434034234 0 0 1 0 0 0 0 -1 forward_v I I I I #
coedge $-1 $441 $457 $303 $444 forward $300 $-1 #
coedge $-1 $310 $440 $302 $442 forward $300 $-1 #
edge $-1 $448 -3.2233092050189001 $313 4.9588907380612532 $441 $585 forward 7 unknown #
coedge $-1 $304 $303 $584 $586 reversed $117 $-1 #
edge $-1 $587 -40.358750570303201 $448 -21.494017157158865 $440 $588 forward 7 unknown #
coedge $-1 $453 $452 $304 $446 forward $454 $-1 #
edge $-1 $447 21.494017157158865 $589 40.358750570303201 $445 $590 forward 7 unknown #
vertex $-1 $446 $591 #
vertex $-1 $444 $592 #
straight-curve $-1 -52.420401020889898 0 -2.3555184384977235 0 -1 0 I I #
coedge $-1 $593 $594 $307 $451 forward $438 $-1 #
edge $-1 $458 -45.70237098716445 $455 45.70237098716445 $450 $595 forward 7 unknown #
coedge $-1 $445 $308 $312 $460 forward $454 $-1 #
coedge $-1 $308 $445 $593 $596 reversed $454 $-1 #
loop $-1 $-1 $445 $437 #
vertex $-1 $596 $597 #
straight-curve $-1 -30.926383863731033 45.70237098716445 5.8266815045824298 1 0 0 I I #
coedge $-1 $440 $310 $594 $598 forward $300 $-1 #
vertex $-1 $598 $599 #
straight-curve $-1 -30.926383863731033 -45.70237098716445 5.8266815045824298 -1 0 0 I I #
edge $-1 $314 -4.9588907380612532 $447 3.2233092050189001 $452 $600 forward 7 unknown #
point $-1 -52.420401020889898 -45.70237098716445 5.8266815045824298 #
point $-1 -52.420401020889898 45.70237098716445 5.8266815045824298 #
loop $-1 $-1 $324 $316 #
plane-surface $-1 0 45.70237098716445 0 0 -1 0 0 0 -1 forward_v I I I I #
coedge $-1 $466 $319 $321 $470 reversed $193 $-1 #
coedge $-1 $319 $465 $601 $602 reversed $193 $-1 #
coedge $-1 $327 $322 $319 $468 forward $317 $-1 #
edge $-1 $471 6.7495108214445061 $603 16.450256221970267 $467 $604 forward 7 unknown #
coedge $-1 $321 $320 $474 $605 reversed $121 $-1 #
edge $-1 $606 -91.404741974328914 $471 -79.25809266031564 $465 $607 forward 7 unknown #
vertex $-1 $323 $608 #
straight-curve $-1 -5.3095903496677366 36.001625586638696 14.770874636929499 1 0 0 I I #
coedge $-1 $601 $324 $327 $478 reversed $463 $-1 #
coedge $-1 $324 $601 $469 $605 forward $463 $-1 #
vertex $-1 $325 $609 #
straight-curve $-1 -21.872809208531024 45.70237098716445 88.165632343321022 0 0 1 I I #
straight-curve $-1 -21.872809208531024 -27.296701215468296 62.469586110142728 0 0.79863550430605224 -0.6018150307709319 I I #
edge $-1 $603 -0.63444780986007743 $328 21.872809208531024 $473 $610 forward 7 unknown #
point $-1 -21.872809208531024 45.70237098716445 14.770874636929502 #
point $-1 -21.872809208531024 36.001625586638689 14.770874636929506 #
edge $-1 $611 1 $611 0 $331 $-1 forward 7 unknown #
vertex $-1 $332 $612 #
ellipse-curve $-1 -15.442164346133566 37.64054269467708 6.8541111426556762 0 0.6018150307709319 0.79863550430605224 2 0 0 1 I I #
point $-1 -13.442164346133566 40.851998286901591 11.115856571591202 #
edge $-1 $613 1 $613 0 $335 $-1 forward 7 unknown #
vertex $-1 $336 $614 #
ellipse-curve $-1 -5.79619705253738 37.64054269467708 6.8541111426556762 0 0.6018150307709319 0.79863550430605224 2 0 0 1 I I #
point $-1 -3.79619705253738 40.851998286901591 11.115856571591202 #
loop $-1 $-1 $347 $339 #
plane-surface $-1 0 45.70237098716445 0 0 -1 0 0 0 -1 forward_v I I I I #
coedge $-1 $492 $342 $344 $496 reversed $215 $-1 #
coedge $-1 $342 $491 $615 $616 reversed $215 $-1 #
coedge $-1 $350 $345 $342 $494 forward $340 $-1 #
edge $-1 $497 6.7495108214445061 $617 16.450256221970267 $493 $618 forward 7 unknown #
coedge $-1 $344 $343 $500 $619 reversed $135 $-1 #
edge $-1 $620 -91.404741974328914 $497 -79.25809266031564 $491 $621 forward 7 unknown #
vertex $-1 $346 $622 #
straight-curve $-1 14.741957056239912 36.001625586638696 14.770874636929499 1 0 0 I I #
coedge $-1 $615 $347 $350 $504 reversed $489 $-1 #
coedge $-1 $347 $615 $495 $619 forward $489 $-1 #
vertex $-1 $348 $623 #
straight-curve $-1 18.230285603284273 45.70237098716445 88.165632343321022 0 0 1 I I #
straight-curve $-1 18.230285603284273 -27.296701215468296 62.469586110142728 0 0.79863550430605224 -0.6018150307709319 I I #
edge $-1 $617 -40.737542621675374 $351 -18.230285603284273 $499 $624 forward 7 unknown #
point $-1 18.230285603284273 45.70237098716445 14.770874636929502 #
point $-1 18.230285603284273 36.001625586638689 14.770874636929506 #
edge $-1 $625 1 $625 0 $354 $-1 forward 7 unknown #
vertex $-1 $355 $626 #
ellipse-curve $-1 24.66093046568173 37.64054269467708 6.8541111426556762 0 0.6018150307709319 0.79863550430605224 2 0 0 1 I I #
point $-1 26.66093046568173 40.851998286901591 11.115856571591202 #
edge $-1 $627 1 $627 0 $358 $-1 forward 7 unknown #
vertex $-1 $359 $628 #
ellipse-curve $-1 34.306897759277916 37.64054269467708 6.8541111426556762 0 0.6018150307709319 0.79863550430605224 2 0 0 1 I I #
point $-1 36.306897759277916 40.851998286901591 11.115856571591202 #
plane-surface $-1 0 0 14.770874636929502 0 0 1 1 0 0 forward_v I I I I #
coedge $-1 $526 $525 $518 $629 forward $363 $-1 #
coedge $-1 $518 $365 $367 $522 reversed $237 $-1 #
coedge $-1 $365 $517 $516 $629 reversed $237 $-1 #
coedge $-1 $373 $368 $365 $520 forward $374 $-1 #
edge $-1 $523 -29.750025279871856 $630 -20.049279879346109 $519 $631 forward 7 unknown #
coedge $-1 $367 $366 $526 $632 reversed $149 $-1 #
edge $-1 $633 8.8817612989391469e-015 $523 12.146649314013274 $517 $634 forward 7 unknown #
vertex $-1 $369 $635 #
straight-curve $-1 -5.3095903496677366 -36.001625586638703 14.770874636929502 -1 0 0 I I #
coedge $-1 $516 $370 $373 $530 reversed $363 $-1 #
coedge $-1 $370 $516 $521 $632 forward $363 $-1 #
vertex $-1 $371 $636 #
straight-curve $-1 0.63444780986007743 -45.70237098716445 60.6612585413761 0 0 1 I I #
straight-curve $-1 0.63444780986007743 -45.702370987164457 7.4608385062528839 0 -0.79863550430605224 -0.6018150307709319 I I #
edge $-1 $630 -21.872809208531024 $375 0.63444780986007743 $525 $637 forward 7 unknown #
point $-1 0.63444780986007743 -45.70237098716445 14.770874636929502 #
point $-1 0.63444780986007743 -36.001625586638703 14.770874636929502 #
edge $-1 $638 1 $638 0 $378 $-1 forward 7 unknown #
vertex $-1 $379 $639 #
ellipse-curve $-1 -15.442164346133566 -37.640542694677073 6.8541111426556762 0 -0.6018150307709319 0.79863550430605224 2 0 0 1 I I #
point $-1 -13.442164346133566 -40.851998286901583 11.115856571591202 #
edge $-1 $640 1 $640 0 $382 $-1 forward 7 unknown #
vertex $-1 $383 $641 #
ellipse-curve $-1 -5.79619705253738 -37.640542694677073 6.8541111426556762 0 -0.6018150307709319 0.79863550430605224 2 0 0 1 I I #
point $-1 -3.79619705253738 -40.851998286901583 11.115856571591202 #
plane-surface $-1 0 0 14.770874636929502 0 0 1 1 0 0 forward_v I I I I #
coedge $-1 $552 $551 $544 $642 forward $387 $-1 #
coedge $-1 $544 $389 $391 $548 reversed $259 $-1 #
coedge $-1 $389 $543 $542 $642 reversed $259 $-1 #
coedge $-1 $397 $392 $389 $546 forward $398 $-1 #
edge $-1 $549 -29.750025279871856 $643 -20.049279879346109 $545 $644 forward 7 unknown #
coedge $-1 $391 $390 $552 $645 reversed $163 $-1 #
edge $-1 $646 8.8817612989391469e-015 $549 12.146649314013274 $543 $647 forward 7 unknown #
vertex $-1 $393 $648 #
straight-curve $-1 14.741957056239912 -36.001625586638703 14.770874636929502 -1 0 0 I I #
coedge $-1 $542 $394 $397 $556 reversed $387 $-1 #
coedge $-1 $394 $542 $547 $645 forward $387 $-1 #
vertex $-1 $395 $649 #
straight-curve $-1 40.737542621675374 -45.70237098716445 60.6612585413761 0 0 1 I I #
straight-curve $-1 40.737542621675374 -45.702370987164457 7.4608385062528839 0 -0.79863550430605224 -0.6018150307709319 I I #
edge $-1 $643 18.230285603284273 $399 40.737542621675374 $551 $650 forward 7 unknown #
point $-1 40.737542621675374 -45.70237098716445 14.770874636929502 #
point $-1 40.737542621675374 -36.001625586638703 14.770874636929502 #
edge $-1 $651 1 $651 0 $402 $-1 forward 7 unknown #
vertex $-1 $403 $652 #
ellipse-curve $-1 24.66093046568173 -37.640542694677073 6.8541111426556762 0 -0.6018150307709319 0.79863550430605224 2 0 0 1 I I #
point $-1 26.66093046568173 -40.851998286901583 11.115856571591202 #
edge $-1 $653 1 $653 0 $406 $-1 forward 7 unknown #
vertex $-1 $407 $654 #
ellipse-curve $-1 34.306897759277916 -37.640542694677073 6.8541111426556762 0 -0.6018150307709319 0.79863550430605224 2 0 0 1 I I #
point $-1 36.306897759277916 -40.851998286901583 11.115856571591202 #
plane-surface $-1 71.285134434034234 0 0 -1 0 0 0 0 1 forward_v I I I I #
coedge $-1 $415 $413 $417 $572 reversed $281 $-1 #
edge $-1 $428 -14.770874636929502 $574 14.770874636929502 $427 $655 forward 7 unknown #
vertex $-1 $572 $656 #
straight-curve $-1 -71.285134434034234 -45.70237098716445 0 0 0 -1 I I #
edge $-1 $570 -45.70237098716445 $574 45.70237098716445 $568 $657 forward 7 unknown #
straight-curve $-1 0 -45.70237098716445 -14.770874636929502 -1 0 0 I I #
vertex $-1 $420 $658 #
straight-curve $-1 0 45.70237098716445 -14.770874636929502 1 0 0 I I #
point $-1 71.285134434034234 45.70237098716445 -14.770874636929502 #
point $-1 71.285134434034234 -45.70237098716445 -14.770874636929502 #
straight-curve $-1 -71.285134434034234 0 14.770874636929502 0 -1 0 I I #
point $-1 -71.285134434034234 45.70237098716445 14.770874636929502 #
point $-1 -71.285134434034234 -45.70237098716445 14.770874636929502 #
straight-curve $-1 71.285134434034234 -45.70237098716445 0 0 0 -1 I I #
straight-curve $-1 71.285134434034234 45.70237098716445 0 0 0 -1 I I #
plane-surface $-1 0 45.70237098716445 0 0 -1 0 0 0 -1 forward_v I I I I #
coedge $-1 $594 $593 $443 $586 forward $438 $-1 #
straight-curve $-1 -52.420401020889898 -45.70237098716445 0.86779076652117659 0 0 1 I I #
edge $-1 $589 -45.70237098716445 $587 45.70237098716445 $584 $659 forward 7 unknown #
vertex $-1 $444 $660 #
straight-curve $-1 -30.926383863731033 -45.70237098716445 -2.3555184384977235 1 0 0 I I #
vertex $-1 $446 $661 #
straight-curve $-1 -30.926383863731033 45.70237098716445 -2.3555184384977235 -1 0 0 I I #
point $-1 -52.420401020889898 45.70237098716445 -2.3555184384977235 #
point $-1 -52.420401020889898 -45.70237098716445 -2.3555184384977235 #
coedge $-1 $584 $450 $453 $596 forward $438 $-1 #
coedge $-1 $450 $584 $457 $598 reversed $438 $-1 #
straight-curve $-1 -71.285134434034234 0 5.8266815045824298 0 1 0 I I #
edge $-1 $455 -5.8266815045824298 $589 2.3555184384977235 $453 $662 forward 7 unknown #
point $-1 -71.285134434034234 45.70237098716445 5.8266815045824298 #
edge $-1 $458 -5.8266815045824298 $587 2.3555184384977235 $594 $663 forward 7 unknown #
point $-1 -71.285134434034234 -45.70237098716445 5.8266815045824298 #
straight-curve $-1 -52.420401020889898 45.70237098716445 0.86779076652117659 0 0 -1 I I #
coedge $-1 $474 $473 $466 $602 forward $463 $-1 #
edge $-1 $603 73.394757706391516 $606 80.704793837068138 $601 $664 forward 7 unknown #
vertex $-1 $478 $665 #
straight-curve $-1 0.63444780986007743 29.252114765194182 14.770874636929506 0 1 0 I I #
edge $-1 $606 -5.944038159527814 $475 16.563218858863287 $474 $666 forward 7 unknown #
vertex $-1 $605 $667 #
straight-curve $-1 0.63444780986007743 -27.296701215468296 62.469586110142728 0 -0.79863550430605224 0.6018150307709319 I I #
point $-1 0.63444780986007743 36.001625586638689 14.770874636929506 #
point $-1 -21.872809208531024 45.70237098716445 7.460838506252891 #
straight-curve $-1 0 45.70237098716445 14.770874636929502 -1 0 0 I I #
vertex $-1 $481 $668 #
point $-1 -13.442164346133566 37.64054269467708 6.8541111426556762 #
vertex $-1 $485 $669 #
point $-1 -3.79619705253738 37.64054269467708 6.8541111426556762 #
coedge $-1 $500 $499 $492 $616 forward $489 $-1 #
edge $-1 $617 73.394757706391516 $620 80.704793837068138 $615 $670 forward 7 unknown #
vertex $-1 $504 $671 #
straight-curve $-1 40.737542621675374 29.252114765194182 14.770874636929506 0 1 0 I I #
edge $-1 $620 -25.995585565435462 $501 -3.488328547044361 $500 $672 forward 7 unknown #
vertex $-1 $619 $673 #
straight-curve $-1 40.737542621675374 -27.296701215468296 62.469586110142728 0 -0.79863550430605224 0.6018150307709319 I I #
point $-1 40.737542621675374 36.001625586638689 14.770874636929506 #
point $-1 18.230285603284273 45.70237098716445 7.460838506252891 #
straight-curve $-1 0 45.70237098716445 14.770874636929502 -1 0 0 I I #
vertex $-1 $507 $674 #
point $-1 26.66093046568173 37.64054269467708 6.8541111426556762 #
vertex $-1 $511 $675 #
point $-1 36.306897759277916 37.64054269467708 6.8541111426556762 #
edge $-1 $630 45.890383904446594 $633 53.200420035123209 $516 $676 forward 7 unknown #
vertex $-1 $530 $677 #
straight-curve $-1 -21.872809208531024 -65.751650866510559 14.770874636929506 0 -1 0 I I #
edge $-1 $633 -16.563218858863287 $527 5.944038159527814 $526 $678 forward 7 unknown #
vertex $-1 $632 $679 #
straight-curve $-1 -21.872809208531024 -45.702370987164457 7.4608385062528839 0 0.79863550430605224 0.6018150307709319 I I #
point $-1 -21.872809208531024 -36.001625586638703 14.770874636929502 #
point $-1 0.63444780986007743 -45.70237098716445 7.4608385062528892 #
straight-curve $-1 0 -45.70237098716445 14.770874636929502 1 0 0 I I #
vertex $-1 $533 $680 #
point $-1 -13.442164346133566 -37.640542694677073 6.8541111426556762 #
vertex $-1 $537 $681 #
point $-1 -3.79619705253738 -37.640542694677073 6.8541111426556762 #
edge $-1 $643 45.890383904446594 $646 53.200420035123209 $542 $682 forward 7 unknown #
vertex $-1 $556 $683 #
straight-curve $-1 18.230285603284273 -65.751650866510559 14.770874636929506 0 -1 0 I I #
edge $-1 $646 3.488328547044361 $553 25.995585565435462 $552 $684 forward 7 unknown #
vertex $-1 $645 $685 #
straight-curve $-1 18.230285603284273 -45.702370987164457 7.4608385062528839 0 0.79863550430605224 0.6018150307709319 I I #
point $-1 18.230285603284273 -36.001625586638703 14.770874636929502 #
point $-1 40.737542621675374 -45.70237098716445 7.4608385062528892 #
straight-curve $-1 0 -45.70237098716445 14.770874636929502 1 0 0 I I #
vertex $-1 $559 $686 #
point $-1 26.66093046568173 -37.640542694677073 6.8541111426556762 #
vertex $-1 $563 $687 #
point $-1 36.306897759277916 -37.640542694677073 6.8541111426556762 #
straight-curve $-1 -71.285134434034234 45.70237098716445 0 0 0 -1 I I #
point $-1 -71.285134434034234 -45.70237098716445 -14.770874636929502 #
straight-curve $-1 -71.285134434034234 0 -14.770874636929502 0 1 0 I I #
point $-1 -71.285134434034234 45.70237098716445 -14.770874636929502 #
straight-curve $-1 -71.285134434034234 0 -2.3555184384977235 0 -1 0 I I #
point $-1 -71.285134434034234 -45.70237098716445 -2.3555184384977235 #
point $-1 -71.285134434034234 45.70237098716445 -2.3555184384977235 #
straight-curve $-1 -71.285134434034234 45.70237098716445 0 0 0 -1 I I #
straight-curve $-1 -71.285134434034234 -45.70237098716445 0 0 0 -1 I I #
straight-curve $-1 0.63444780986007743 45.70237098716445 88.165632343321022 0 0 -1 I I #
point $-1 0.63444780986007743 45.70237098716445 14.770874636929502 #
straight-curve $-1 -5.3095903496677366 45.70237098716445 7.4608385062528981 -1 0 0 I I #
point $-1 0.63444780986007743 45.70237098716445 7.460838506252891 #
point $-1 -15.442164346133566 36.436912633135222 5.2568401340435704 #
point $-1 -5.79619705253738 36.436912633135222 5.2568401340435704 #
straight-curve $-1 40.737542621675374 45.70237098716445 88.165632343321022 0 0 -1 I I #
point $-1 40.737542621675374 45.70237098716445 14.770874636929502 #
straight-curve $-1 14.741957056239912 45.70237098716445 7.4608385062528981 -1 0 0 I I #
point $-1 40.737542621675374 45.70237098716445 7.460838506252891 #
point $-1 24.66093046568173 36.436912633135222 5.2568401340435704 #
point $-1 34.306897759277916 36.436912633135222 5.2568401340435704 #
straight-curve $-1 -21.872809208531024 -45.70237098716445 60.6612585413761 0 0 -1 I I #
point $-1 -21.872809208531024 -45.70237098716445 14.770874636929502 #
straight-curve $-1 -5.3095903496677366 -45.70237098716445 7.460838506252891 1 0 0 I I #
point $-1 -21.872809208531024 -45.70237098716445 7.4608385062528892 #
point $-1 -15.442164346133566 -36.436912633135215 5.2568401340435704 #
point $-1 -5.79619705253738 -36.436912633135215 5.2568401340435704 #
straight-curve $-1 18.230285603284273 -45.70237098716445 60.6612585413761 0 0 -1 I I #
point $-1 18.230285603284273 -45.70237098716445 14.770874636929502 #
straight-curve $-1 14.741957056239912 -45.70237098716445 7.460838506252891 1 0 0 I I #
point $-1 18.230285603284273 -45.70237098716445 7.4608385062528892 #
point $-1 24.66093046568173 -36.436912633135215 5.2568401340435704 #
point $-1 34.306897759277916 -36.436912633135215 5.2568401340435704 #
End-of-ACIS-data 