500 0 6 0           
7 Unknown 11 ACIS 5.0 NT 24 Fri Mar 26 18:04:10 1999 
-1 9.9999999999999995e-007 1e-010 
body $-1 $6 $-1 $7 #
body $-1 $8 $-1 $9 #
body $-1 $10 $-1 $11 #
body $-1 $12 $-1 $13 #
body $-1 $14 $-1 $15 #
body $-1 $16 $-1 $17 #
lump $-1 $-1 $18 $0 #
transform $-1 1 0 0 0 1 0 0 0 1 70.589312417981503 45.406849345072935 15.633608577419642 1 rotate no_reflect no_shear #
lump $-1 $-1 $19 $1 #
transform $-1 1 0 0 0 1 0 0 0 1 70.589312417981503 45.406849345072935 15.633608577419642 1 rotate no_reflect no_shear #
lump $-1 $-1 $20 $2 #
transform $-1 1 0 0 0 1 0 0 0 1 70.589312417981503 45.406849345072935 15.633608577419642 1 rotate no_reflect no_shear #
lump $-1 $-1 $21 $3 #
transform $-1 1 0 0 0 1 0 0 0 1 70.589312417981503 45.406849345072935 15.633608577419642 1 rotate no_reflect no_shear #
lump $-1 $-1 $22 $4 #
transform $-1 1 0 0 0 1 0 0 0 1 70.589312417981503 45.406849345072935 15.633608577419642 1 rotate no_reflect no_shear #
lump $-1 $-1 $23 $5 #
transform $-1 1 0 0 0 1 0 0 0 1 70.589312417981503 45.406849345072935 15.633608577419642 1 rotate no_reflect no_shear #
shell $-1 $-1 $-1 $24 $-1 $6 #
shell $-1 $-1 $-1 $25 $-1 $8 #
shell $-1 $-1 $-1 $26 $-1 $10 #
shell $-1 $-1 $-1 $27 $-1 $12 #
shell $-1 $-1 $-1 $28 $-1 $14 #
shell $-1 $-1 $-1 $29 $-1 $16 #
face $-1 $30 $31 $18 $-1 $32 reversed single #
face $-1 $33 $34 $19 $-1 $35 reversed single #
face $-1 $36 $37 $20 $-1 $38 forward single #
face $-1 $39 $40 $21 $-1 $41 reversed single #
face $-1 $42 $43 $22 $-1 $44 forward single #
face $-1 $45 $46 $23 $-1 $47 forward single #
face $-1 $48 $49 $18 $-1 $50 forward single #
loop $-1 $-1 $51 $24 #
plane-surface $-1 0 45.406849345072935 0 0 -1 0 0 0 -1 forward_v I I I I #
face $-1 $52 $53 $19 $-1 $54 reversed single #
loop $-1 $-1 $55 $25 #
plane-surface $-1 0 -38.493632993630243 6.69525139454983 0 0 1 1 0 0 forward_v I I I I #
face $-1 $56 $57 $20 $-1 $58 reversed single #
loop $-1 $-1 $59 $26 #
plane-surface $-1 0 45.406849345072935 0 0 -1 0 0 0 -1 forward_v I I I I #
face $-1 $60 $61 $21 $-1 $62 reversed single #
loop $-1 $-1 $63 $27 #
plane-surface $-1 -161.33718433050552 21.976423174801134 120.47734603302669 0 1 0 -0.64278761758704617 0 0.76604443648966558 forward_v I I I I #
face $-1 $64 $65 $22 $-1 $66 forward single #
loop $-1 $67 $68 $28 #
cone-surface $-1 -67.6936381842673 24.853880810530164 12.87726171085631 0.64278761758704617 0 -0.76604443648966558 0.76604443648966558 0 0.64278761758704617 1 I I 0 1 1 forward I I I I #
face $-1 $69 $70 $23 $-1 $71 forward single #
loop $-1 $72 $73 $29 #
cone-surface $-1 -67.6936381842673 29.170067264123723 12.87726171085631 0.64278761758704617 0 -0.76604443648966558 0.76604443648966558 0 0.64278761758704617 1 I I 0 1 1 forward I I I I #
face $-1 $74 $75 $18 $-1 $76 reversed single #
loop $-1 $-1 $77 $30 #
plane-surface $-1 0 0 15.633608577419642 0 0 1 1 0 0 forward_v I I I I #
coedge $-1 $78 $79 $80 $81 reversed $31 $-1 #
face $-1 $82 $83 $19 $-1 $84 reversed single #
loop $-1 $-1 $85 $33 #
plane-surface $-1 0 -31.580416642187551 11.164429985984734 0 -1 0 0 0 -1 forward_v I I I I #
coedge $-1 $86 $87 $88 $89 reversed $34 $-1 #
face $-1 $90 $91 $20 $-1 $92 reversed single #
loop $-1 $-1 $93 $36 #
plane-surface $-1 0 0 -15.633608577419642 0 0 1 1 0 0 forward_v I I I I #
coedge $-1 $94 $95 $96 $97 forward $37 $-1 #
face $-1 $98 $99 $21 $-1 $100 reversed single #
loop $-1 $-1 $101 $39 #
plane-surface $-1 -70.589312417981475 27.011974037326944 12.328245926175498 -0.64278761758704617 0 0.76604443648966558 0.76604443648966558 0 0.64278761758704617 forward_v I I I I #
coedge $-1 $102 $103 $104 $105 reversed $40 $-1 #
face $-1 $-1 $106 $22 $-1 $107 forward single #
loop $-1 $108 $109 $42 #
cone-surface $-1 -66.446159007730074 24.853880810530164 11.390573951670214 0.64278761758704617 0 -0.76604443648966558 0.38302221824483279 0 0.32139380879352308 1 I I -0.70710678118654746 0.70710678118654746 0.5 forward I I I I #
loop $-1 $-1 $110 $28 #
coedge $-1 $68 $68 $111 $112 reversed $43 $-1 #
face $-1 $-1 $113 $23 $-1 $114 forward single #
loop $-1 $115 $116 $45 #
cone-surface $-1 -66.446159007730074 29.170067264123723 11.390573951670214 0.64278761758704617 0 -0.76604443648966558 0.38302221824483279 0 0.32139380879352308 1 I I -0.70710678118654746 0.70710678118654746 0.5 forward I I I I #
loop $-1 $-1 $117 $29 #
coedge $-1 $73 $73 $118 $119 reversed $46 $-1 #
face $-1 $120 $121 $18 $-1 $122 reversed single #
loop $-1 $-1 $123 $48 #
plane-surface $-1 0 0 -15.633608577419642 0 0 1 1 0 0 forward_v I I I I #
coedge $-1 $124 $125 $126 $127 forward $49 $-1 #
coedge $-1 $128 $51 $129 $130 reversed $31 $-1 #
coedge $-1 $51 $128 $131 $132 forward $31 $-1 #
coedge $-1 $123 $133 $51 $81 forward $75 $-1 #
edge $-1 $134 -70.589312417981503 $135 70.589312417981503 $51 $136 forward 7 unknown #
face $-1 $137 $138 $19 $-1 $139 reversed single #
loop $-1 $-1 $140 $52 #
plane-surface $-1 -70.589312417981503 0 0 1 0 0 0 0 -1 forward_v I I I I #
coedge $-1 $141 $142 $143 $144 reversed $53 $-1 #
coedge $-1 $145 $55 $146 $147 reversed $34 $-1 #
coedge $-1 $55 $145 $141 $148 forward $34 $-1 #
coedge $-1 $143 $149 $55 $89 forward $150 $-1 #
edge $-1 $151 -26.160032848257813 $152 -12.333600145372429 $88 $153 forward 7 unknown #
face $-1 $154 $155 $20 $-1 $156 reversed single #
loop $-1 $-1 $157 $56 #
plane-surface $-1 -68.10950918315632 50.84430781954395 0 1 0 0 0 0 -1 forward_v I I I I #
coedge $-1 $158 $159 $95 $160 forward $57 $-1 #
coedge $-1 $161 $59 $162 $163 reversed $37 $-1 #
coedge $-1 $59 $161 $93 $160 reversed $37 $-1 #
coedge $-1 $164 $165 $59 $97 reversed $166 $-1 #
edge $-1 $167 -15.633608577419642 $168 15.633608577419642 $96 $169 forward 7 unknown #
face $-1 $170 $171 $21 $-1 $172 reversed single #
loop $-1 $-1 $173 $60 #
plane-surface $-1 -161.33718433050552 32.047524899852753 120.47734603302669 0 -1 0 0.64278761758704617 0 -0.76604443648966558 forward_v I I I I #
coedge $-1 $174 $175 $176 $177 reversed $61 $-1 #
coedge $-1 $103 $63 $178 $179 reversed $40 $-1 #
coedge $-1 $63 $102 $174 $180 reversed $40 $-1 #
coedge $-1 $176 $181 $63 $105 forward $182 $-1 #
edge $-1 $183 10.079279747271258 $184 14.018457479212302 $104 $185 forward 7 unknown #
loop $-1 $-1 $111 $64 #
plane-surface $-1 -70.589312417981475 27.011974037326944 12.328245926175498 -0.64278761758704617 0 0.76604443648966558 0.76604443648966558 0 0.64278761758704617 forward_v I I I I #
loop $-1 $-1 $186 $42 #
coedge $-1 $109 $109 $110 $187 reversed $65 $-1 #
coedge $-1 $110 $110 $109 $187 forward $67 $-1 #
coedge $-1 $111 $111 $68 $112 forward $106 $-1 #
edge $-1 $188 0 $188 6.2831853071796004 $111 $189 forward 7 unknown #
loop $-1 $-1 $118 $69 #
plane-surface $-1 -70.589312417981475 27.011974037326944 12.328245926175498 -0.64278761758704617 0 0.76604443648966558 0.76604443648966558 0 0.64278761758704617 forward_v I I I I #
loop $-1 $-1 $190 $45 #
coedge $-1 $116 $116 $117 $191 reversed $70 $-1 #
coedge $-1 $117 $117 $116 $191 forward $72 $-1 #
coedge $-1 $118 $118 $73 $119 forward $113 $-1 #
edge $-1 $192 0 $192 6.2831853071796004 $118 $193 forward 7 unknown #
face $-1 $194 $195 $18 $-1 $196 reversed single #
loop $-1 $-1 $197 $74 #
plane-surface $-1 0 -45.406849345072935 0 0 1 0 0 0 1 forward_v I I I I #
coedge $-1 $198 $80 $199 $200 forward $75 $-1 #
coedge $-1 $201 $77 $128 $202 forward $49 $-1 #
coedge $-1 $77 $201 $203 $204 forward $49 $-1 #
coedge $-1 $205 $131 $77 $127 reversed $206 $-1 #
edge $-1 $207 -45.406849345072935 $208 45.406849345072935 $126 $209 forward 7 unknown #
coedge $-1 $79 $78 $124 $202 reversed $31 $-1 #
coedge $-1 $210 $211 $78 $130 forward $195 $-1 #
edge $-1 $212 -15.633608577419642 $134 15.633608577419642 $78 $213 forward 7 unknown #
coedge $-1 $126 $199 $79 $132 reversed $206 $-1 #
edge $-1 $208 -15.633608577419642 $135 15.633608577419642 $131 $214 forward 7 unknown #
coedge $-1 $80 $198 $210 $215 forward $75 $-1 #
vertex $-1 $81 $216 #
vertex $-1 $200 $217 #
straight-curve $-1 0 45.406849345072935 -15.633608577419642 1 0 0 I I #
face $-1 $218 $219 $19 $-1 $220 forward single #
loop $-1 $-1 $146 $82 #
plane-surface $-1 0 -45.406849345072935 0 0 1 0 0 0 1 forward_v I I I I #
coedge $-1 $221 $222 $223 $224 forward $83 $-1 #
coedge $-1 $223 $85 $87 $148 reversed $53 $-1 #
coedge $-1 $85 $223 $225 $226 reversed $53 $-1 #
coedge $-1 $227 $88 $85 $144 forward $150 $-1 #
edge $-1 $152 1.113036401557463 $228 10.05139358442727 $143 $229 forward 7 unknown #
coedge $-1 $87 $86 $221 $230 reversed $34 $-1 #
coedge $-1 $231 $232 $86 $147 forward $138 $-1 #
edge $-1 $233 -70.589312417981503 $151 70.589312417981503 $146 $234 forward 7 unknown #
edge $-1 $235 -70.589312417981503 $152 70.589312417981503 $141 $236 forward 7 unknown #
coedge $-1 $88 $227 $231 $237 forward $150 $-1 #
loop $-1 $-1 $143 $218 #
vertex $-1 $147 $238 #
vertex $-1 $89 $239 #
straight-curve $-1 70.589312417981503 -19.246816496815121 6.69525139454983 0 1 0 I I #
face $-1 $240 $166 $20 $-1 $241 reversed single #
loop $-1 $-1 $242 $90 #
plane-surface $-1 -66.25739867146207 56.281766294014965 0 0 -1 0 0 0 -1 forward_v I I I I #
coedge $-1 $243 $244 $245 $246 forward $91 $-1 #
coedge $-1 $247 $93 $243 $248 forward $57 $-1 #
coedge $-1 $93 $247 $164 $249 forward $57 $-1 #
edge $-1 $167 64.405288159767821 $250 68.10950918315632 $93 $251 forward 7 unknown #
coedge $-1 $95 $94 $252 $253 forward $37 $-1 #
coedge $-1 $254 $255 $94 $163 forward $256 $-1 #
edge $-1 $257 -68.10950918315632 $168 -64.405288159767821 $162 $258 forward 7 unknown #
coedge $-1 $259 $96 $159 $249 reversed $166 $-1 #
coedge $-1 $96 $259 $254 $260 reversed $166 $-1 #
loop $-1 $-1 $96 $154 #
vertex $-1 $160 $261 #
vertex $-1 $260 $262 #
straight-curve $-1 -64.405288159767821 45.406849345072935 0 0 0 1 I I #
face $-1 $-1 $182 $21 $-1 $263 forward single #
loop $-1 $-1 $264 $98 #
plane-surface $-1 -70.589312417981503 0 0 1 0 0 0 0 -1 forward_v I I I I #
coedge $-1 $265 $266 $267 $268 reversed $99 $-1 #
coedge $-1 $269 $101 $103 $180 forward $61 $-1 #
coedge $-1 $101 $269 $265 $270 forward $61 $-1 #
coedge $-1 $267 $104 $101 $177 forward $182 $-1 #
edge $-1 $184 8.4704361561376622 $271 18.541537881189281 $176 $272 forward 7 unknown #
coedge $-1 $273 $274 $102 $179 forward $171 $-1 #
edge $-1 $275 -47.910427090337869 $183 -44.605064439093702 $178 $276 forward 7 unknown #
edge $-1 $184 -5.1422313697518192 $275 3.6615954734859901e-014 $103 $277 forward 7 unknown #
coedge $-1 $104 $267 $273 $278 forward $182 $-1 #
loop $-1 $-1 $267 $170 #
vertex $-1 $179 $279 #
vertex $-1 $105 $280 #
straight-curve $-1 -80.668592165252761 21.976423174801134 15.633608577419643 1 0 0 I I #
coedge $-1 $186 $186 $-1 $281 reversed $108 $-1 #
edge $-1 $282 0 $282 6.2831853071796004 $109 $283 forward 7 unknown #
vertex $-1 $112 $284 #
ellipse-curve $-1 -68.619723552010996 24.853880810530164 13.980927251797551 -0.64278761758704617 0 0.76604443648966558 0.76604443648966558 0 0.64278761758704617 1 I I #
coedge $-1 $190 $190 $-1 $285 reversed $115 $-1 #
edge $-1 $286 0 $286 6.2831853071796004 $116 $287 forward 7 unknown #
vertex $-1 $119 $288 #
ellipse-curve $-1 -68.619723552010996 29.170067264123723 13.980927251797551 -0.64278761758704617 0 0.76604443648966558 0.76604443648966558 0 0.64278761758704617 1 I I #
face $-1 $-1 $206 $18 $-1 $289 reversed single #
loop $-1 $-1 $129 $120 #
plane-surface $-1 -70.589312417981503 0 0 1 0 0 0 0 -1 forward_v I I I I #
coedge $-1 $290 $203 $291 $292 forward $121 $-1 #
coedge $-1 $133 $123 $290 $293 forward $75 $-1 #
coedge $-1 $131 $205 $123 $200 reversed $206 $-1 #
edge $-1 $135 -45.406849345072935 $294 45.406849345072935 $199 $295 forward 7 unknown #
coedge $-1 $125 $124 $211 $296 forward $49 $-1 #
edge $-1 $208 -70.589312417981503 $212 70.589312417981503 $128 $297 forward 7 unknown #
coedge $-1 $197 $298 $125 $204 reversed $121 $-1 #
edge $-1 $299 -70.589312417981503 $207 70.589312417981503 $203 $300 forward 7 unknown #
coedge $-1 $199 $126 $298 $301 forward $206 $-1 #
loop $-1 $-1 $205 $194 #
vertex $-1 $127 $302 #
vertex $-1 $127 $303 #
straight-curve $-1 70.589312417981503 0 15.633608577419642 0 1 0 I I #
coedge $-1 $291 $129 $133 $215 reversed $195 $-1 #
coedge $-1 $129 $291 $201 $296 reversed $195 $-1 #
vertex $-1 $202 $304 #
straight-curve $-1 -70.589312417981503 45.406849345072935 0 0 0 -1 I I #
straight-curve $-1 70.589312417981503 45.406849345072935 0 0 0 -1 I I #
edge $-1 $305 -45.406849345072935 $134 45.406849345072935 $210 $306 forward 7 unknown #
point $-1 -70.589312417981503 45.406849345072935 -15.633608577419642 #
point $-1 70.589312417981503 45.406849345072935 -15.633608577419642 #
face $-1 $-1 $150 $19 $-1 $307 reversed single #
loop $-1 $-1 $225 $137 #
plane-surface $-1 0 0 15.633608577419642 0 0 1 1 0 0 forward_v I I I I #
coedge $-1 $308 $140 $145 $230 forward $83 $-1 #
coedge $-1 $140 $308 $309 $310 reversed $83 $-1 #
coedge $-1 $142 $141 $140 $224 reversed $53 $-1 #
edge $-1 $311 -10.05139358442727 $235 -1.113036401557463 $140 $312 forward 7 unknown #
coedge $-1 $309 $313 $142 $226 forward $219 $-1 #
edge $-1 $228 -70.589312417981503 $311 70.589312417981503 $225 $314 forward 7 unknown #
coedge $-1 $149 $143 $313 $315 reversed $150 $-1 #
vertex $-1 $144 $316 #
straight-curve $-1 70.589312417981503 -31.580416642187551 5.582214992992367 0 0 1 I I #
edge $-1 $235 12.333600145372429 $233 26.160032848257813 $221 $317 forward 7 unknown #
coedge $-1 $318 $146 $149 $237 reversed $138 $-1 #
coedge $-1 $146 $318 $308 $319 forward $138 $-1 #
vertex $-1 $147 $320 #
straight-curve $-1 0 -45.406849345072935 6.69525139454983 1 0 0 I I #
vertex $-1 $230 $321 #
straight-curve $-1 0 -31.580416642187551 6.69525139454983 1 0 0 I I #
edge $-1 $322 -15.633608577419642 $151 -6.69525139454983 $149 $323 forward 7 unknown #
point $-1 70.589312417981503 -45.406849345072935 6.69525139454983 #
point $-1 70.589312417981503 -31.580416642187551 6.69525139454983 #
face $-1 $-1 $256 $20 $-1 $324 forward single #
plane-surface $-1 -64.405288159767821 50.84430781954395 0 -1 0 0 0 0 1 forward_v I I I I #
coedge $-1 $325 $326 $259 $327 forward $155 $-1 #
coedge $-1 $252 $157 $158 $248 reversed $91 $-1 #
coedge $-1 $157 $252 $255 $328 reversed $91 $-1 #
coedge $-1 $326 $325 $157 $246 reversed $155 $-1 #
edge $-1 $329 -15.633608577419642 $330 15.633608577419642 $245 $331 forward 7 unknown #
coedge $-1 $159 $158 $325 $332 forward $57 $-1 #
edge $-1 $250 -5.4374584744710148 $330 5.4374584744710148 $243 $333 forward 7 unknown #
edge $-1 $334 -5.4374584744710148 $167 5.4374584744710148 $164 $335 forward 7 unknown #
vertex $-1 $248 $336 #
straight-curve $-1 0 45.406849345072935 -15.633608577419642 -1 0 0 I I #
coedge $-1 $244 $243 $161 $253 reversed $91 $-1 #
edge $-1 $257 -15.633608577419642 $250 15.633608577419642 $252 $337 forward 7 unknown #
coedge $-1 $338 $162 $165 $260 forward $256 $-1 #
coedge $-1 $162 $338 $244 $328 forward $256 $-1 #
loop $-1 $-1 $162 $240 #
vertex $-1 $163 $339 #
straight-curve $-1 0 45.406849345072935 15.633608577419642 1 0 0 I I #
coedge $-1 $165 $164 $242 $327 reversed $166 $-1 #
edge $-1 $168 -5.4374584744710148 $340 5.4374584744710148 $165 $341 forward 7 unknown #
point $-1 -64.405288159767821 45.406849345072935 -15.633608577419642 #
point $-1 -64.405288159767821 45.406849345072935 15.633608577419642 #
plane-surface $-1 0 0 15.633608577419642 0 0 1 1 0 0 forward_v I I I I #
coedge $-1 $274 $273 $266 $342 forward $171 $-1 #
coedge $-1 $266 $173 $175 $270 reversed $99 $-1 #
coedge $-1 $173 $265 $264 $342 reversed $99 $-1 #
coedge $-1 $181 $176 $173 $268 forward $182 $-1 #
edge $-1 $271 -14.018457479212302 $343 -10.079279747271258 $267 $344 forward 7 unknown #
coedge $-1 $175 $174 $274 $345 reversed $61 $-1 #
edge $-1 $346 -3.6615954734859901e-014 $271 5.1422313697518192 $265 $347 forward 7 unknown #
vertex $-1 $177 $348 #
straight-curve $-1 -66.65013468604046 13.505987018663472 15.633608577419643 0 1 0 I I #
coedge $-1 $264 $178 $181 $278 reversed $171 $-1 #
coedge $-1 $178 $264 $269 $345 forward $171 $-1 #
vertex $-1 $179 $349 #
straight-curve $-1 -70.589312417981503 21.976423174801134 60.238673016513346 0 0 1 I I #
straight-curve $-1 -70.589312417981475 21.976423174801134 12.328245926175498 -0.76604443648966558 0 -0.64278761758704617 I I #
edge $-1 $343 -32.047524899852753 $183 -21.976423174801134 $273 $350 forward 7 unknown #
point $-1 -70.589312417981503 21.976423174801134 15.633608577419642 #
point $-1 -66.65013468604046 21.976423174801134 15.633608577419642 #
edge $-1 $351 1 $351 0 $186 $-1 forward 7 unknown #
vertex $-1 $187 $352 #
ellipse-curve $-1 -66.76755281652359 24.853880810530164 11.773596169915047 -0.64278761758704617 0 0.76604443648966558 0.76604443648966558 0 0.64278761758704617 1 I I #
point $-1 -67.853679115521345 24.853880810530164 14.623714869384619 #
edge $-1 $353 1 $353 0 $190 $-1 forward 7 unknown #
vertex $-1 $191 $354 #
ellipse-curve $-1 -66.76755281652359 29.170067264123723 11.773596169915047 -0.64278761758704617 0 0.76604443648966558 0.76604443648966558 0 0.64278761758704617 1 I I #
point $-1 -67.853679115521345 29.170067264123723 14.623714869384619 #
plane-surface $-1 70.589312417981503 0 0 -1 0 0 0 0 1 forward_v I I I I #
coedge $-1 $298 $197 $198 $293 reversed $121 $-1 #
coedge $-1 $211 $210 $197 $292 reversed $195 $-1 #
edge $-1 $299 -15.633608577419642 $305 15.633608577419642 $291 $355 forward 7 unknown #
edge $-1 $294 -70.589312417981503 $305 70.589312417981503 $290 $356 forward 7 unknown #
vertex $-1 $301 $357 #
straight-curve $-1 70.589312417981503 0 -15.633608577419642 0 -1 0 I I #
edge $-1 $212 -45.406849345072935 $299 45.406849345072935 $211 $358 forward 7 unknown #
straight-curve $-1 0 45.406849345072935 15.633608577419642 -1 0 0 I I #
coedge $-1 $203 $290 $205 $301 reversed $121 $-1 #
vertex $-1 $296 $359 #
straight-curve $-1 0 -45.406849345072935 15.633608577419642 1 0 0 I I #
edge $-1 $207 -15.633608577419642 $294 15.633608577419642 $205 $360 forward 7 unknown #
point $-1 70.589312417981503 -45.406849345072935 15.633608577419642 #
point $-1 70.589312417981503 45.406849345072935 15.633608577419642 #
point $-1 -70.589312417981503 45.406849345072935 15.633608577419642 #
vertex $-1 $215 $361 #
straight-curve $-1 -70.589312417981503 0 -15.633608577419642 0 1 0 I I #
plane-surface $-1 70.589312417981503 0 0 -1 0 0 0 0 1 forward_v I I I I #
coedge $-1 $222 $221 $232 $319 reversed $83 $-1 #
coedge $-1 $362 $225 $222 $310 forward $219 $-1 #
edge $-1 $311 31.580416642187551 $363 45.406849345072935 $222 $364 forward 7 unknown #
vertex $-1 $310 $365 #
straight-curve $-1 -70.589312417981503 -31.580416642187551 5.582214992992367 0 0 -1 I I #
coedge $-1 $225 $362 $227 $315 forward $219 $-1 #
straight-curve $-1 0 -31.580416642187551 15.633608577419642 -1 0 0 I I #
edge $-1 $322 -45.406849345072935 $228 -31.580416642187551 $227 $366 forward 7 unknown #
point $-1 70.589312417981503 -31.580416642187551 15.633608577419638 #
straight-curve $-1 -70.589312417981503 -19.246816496815121 6.69525139454983 0 -1 0 I I #
coedge $-1 $232 $231 $362 $367 reversed $138 $-1 #
edge $-1 $363 -15.633608577419642 $233 -6.69525139454983 $308 $368 forward 7 unknown #
point $-1 -70.589312417981503 -45.406849345072935 6.69525139454983 #
point $-1 -70.589312417981503 -31.580416642187551 6.69525139454983 #
vertex $-1 $315 $369 #
straight-curve $-1 70.589312417981503 -45.406849345072935 0 0 0 -1 I I #
plane-surface $-1 0 0 15.633608577419642 0 0 1 1 0 0 forward_v I I I I #
coedge $-1 $245 $242 $247 $332 reversed $155 $-1 #
coedge $-1 $242 $245 $338 $370 reversed $155 $-1 #
edge $-1 $340 -15.633608577419642 $334 15.633608577419642 $259 $371 forward 7 unknown #
edge $-1 $329 -5.4374584744710148 $257 5.4374584744710148 $244 $372 forward 7 unknown #
vertex $-1 $370 $373 #
vertex $-1 $332 $374 #
straight-curve $-1 -68.10950918315632 56.281766294014965 0 0 0 -1 I I #
edge $-1 $330 -1.8521105116942493 $334 1.8521105116942493 $325 $375 forward 7 unknown #
straight-curve $-1 -68.10950918315632 50.84430781954395 -15.633608577419642 0 1 0 I I #
vertex $-1 $249 $376 #
straight-curve $-1 -64.405288159767821 50.84430781954395 -15.633608577419642 0 -1 0 I I #
point $-1 -68.10950918315632 45.406849345072935 -15.633608577419642 #
straight-curve $-1 -68.10950918315632 45.406849345072935 0 0 0 -1 I I #
coedge $-1 $255 $254 $326 $370 forward $256 $-1 #
point $-1 -68.10950918315632 45.406849345072935 15.633608577419642 #
vertex $-1 $260 $377 #
straight-curve $-1 -64.405288159767821 50.84430781954395 15.633608577419642 0 1 0 I I #
edge $-1 $343 44.605064439093702 $346 47.910427090337869 $264 $378 forward 7 unknown #
vertex $-1 $278 $379 #
straight-curve $-1 -80.668592165252761 32.047524899852753 15.633608577419643 -1 0 0 I I #
edge $-1 $346 -18.541537881189281 $275 -8.4704361561376622 $274 $380 forward 7 unknown #
vertex $-1 $345 $381 #
straight-curve $-1 -70.589312417981475 32.047524899852753 12.328245926175498 0.76604443648966558 0 0.64278761758704617 I I #
point $-1 -66.65013468604046 32.047524899852753 15.633608577419642 #
point $-1 -70.589312417981503 21.976423174801134 12.328245926175475 #
straight-curve $-1 -70.589312417981503 0 15.633608577419642 0 -1 0 I I #
vertex $-1 $281 $382 #
point $-1 -66.001508380033926 24.853880810530164 12.416383787502093 #
vertex $-1 $285 $383 #
point $-1 -66.001508380033926 29.170067264123723 12.416383787502093 #
straight-curve $-1 -70.589312417981503 -45.406849345072935 0 0 0 -1 I I #
straight-curve $-1 0 -45.406849345072935 -15.633608577419642 -1 0 0 I I #
point $-1 70.589312417981503 -45.406849345072935 -15.633608577419642 #
straight-curve $-1 -70.589312417981503 0 15.633608577419642 0 -1 0 I I #
point $-1 -70.589312417981503 -45.406849345072935 15.633608577419642 #
straight-curve $-1 70.589312417981503 -45.406849345072935 0 0 0 -1 I I #
point $-1 -70.589312417981503 -45.406849345072935 -15.633608577419642 #
coedge $-1 $313 $309 $318 $367 forward $219 $-1 #
vertex $-1 $310 $384 #
straight-curve $-1 -70.589312417981503 0 15.633608577419642 0 -1 0 I I #
point $-1 -70.589312417981503 -31.580416642187551 15.633608577419638 #
straight-curve $-1 70.589312417981503 0 15.633608577419642 0 1 0 I I #
edge $-1 $363 -70.589312417981503 $322 70.589312417981503 $318 $385 forward 7 unknown #
straight-curve $-1 -70.589312417981503 -45.406849345072935 0 0 0 -1 I I #
point $-1 70.589312417981503 -45.406849345072935 15.633608577419642 #
edge $-1 $340 -1.8521105116942493 $329 1.8521105116942493 $326 $386 forward 7 unknown #
straight-curve $-1 -64.405288159767821 56.281766294014965 0 0 0 -1 I I #
straight-curve $-1 -68.10950918315632 50.84430781954395 15.633608577419642 0 -1 0 I I #
point $-1 -68.10950918315632 56.281766294014965 15.633608577419642 #
point $-1 -68.10950918315632 56.281766294014965 -15.633608577419642 #
straight-curve $-1 -66.25739867146207 56.281766294014965 -15.633608577419642 1 0 0 I I #
point $-1 -64.405288159767821 56.281766294014965 -15.633608577419642 #
point $-1 -64.405288159767821 56.281766294014965 15.633608577419642 #
straight-curve $-1 -70.589312417981503 32.047524899852753 60.238673016513346 0 0 -1 I I #
point $-1 -70.589312417981503 32.047524899852753 15.633608577419642 #
straight-curve $-1 -70.589312417981503 13.505987018663472 12.328245926175477 0 -1 0 I I #
point $-1 -70.589312417981503 32.047524899852753 12.328245926175475 #
point $-1 -66.124765198936558 24.853880810530164 11.007551733425382 #
point $-1 -66.124765198936558 29.170067264123723 11.007551733425382 #
point $-1 -70.589312417981503 -45.406849345072935 15.633608577419642 #
straight-curve $-1 0 -45.406849345072935 15.633608577419642 1 0 0 I I #
straight-curve $-1 -66.25739867146207 56.281766294014965 15.633608577419642 -1 0 0 I I #
End-of-ACIS-data 