500 0 14 0           
7 Unknown 11 ACIS 5.0 NT 24 Fri Mar 26 01:20:12 1999 
-1 9.9999999999999995e-007 1e-010 
body $-1 $14 $-1 $15 #
body $-1 $16 $-1 $17 #
body $-1 $18 $-1 $19 #
body $-1 $20 $-1 $21 #
body $-1 $22 $-1 $23 #
body $-1 $24 $-1 $25 #
body $-1 $26 $-1 $27 #
body $-1 $28 $-1 $29 #
body $-1 $30 $-1 $31 #
body $-1 $32 $-1 $33 #
body $-1 $34 $-1 $35 #
body $-1 $36 $-1 $37 #
body $-1 $38 $-1 $39 #
body $-1 $40 $-1 $41 #
lump $-1 $-1 $42 $0 #
transform $-1 1 0 0 0 1 0 0 0 1 72.623065889461969 40.734254829017658 13.123051065143564 1 rotate no_reflect no_shear #
lump $-1 $-1 $43 $1 #
transform $-1 1 0 0 0 1 0 0 0 1 72.623065889461969 40.734254829017658 13.123051065143564 1 rotate no_reflect no_shear #
lump $-1 $-1 $44 $2 #
transform $-1 1 0 0 0 1 0 0 0 1 72.623065889461969 40.734254829017658 13.123051065143564 1 rotate no_reflect no_shear #
lump $-1 $-1 $45 $3 #
transform $-1 1 0 0 0 1 0 0 0 1 72.623065889461969 40.734254829017658 13.123051065143564 1 rotate no_reflect no_shear #
lump $-1 $-1 $46 $4 #
transform $-1 1 0 0 0 1 0 0 0 1 72.623065889461969 40.734254829017658 13.123051065143564 1 rotate no_reflect no_shear #
lump $-1 $-1 $47 $5 #
transform $-1 1 0 0 0 1 0 0 0 1 72.623065889461969 40.734254829017658 13.123051065143564 1 rotate no_reflect no_shear #
lump $-1 $-1 $48 $6 #
transform $-1 1 0 0 0 1 0 0 0 1 72.623065889461969 40.734254829017658 13.123051065143564 1 rotate no_reflect no_shear #
lump $-1 $-1 $49 $7 #
transform $-1 1 0 0 0 1 0 0 0 1 72.623065889461969 40.734254829017658 13.123051065143564 1 rotate no_reflect no_shear #
lump $-1 $-1 $50 $8 #
transform $-1 1 0 0 0 1 0 0 0 1 72.623065889461969 40.734254829017658 13.123051065143564 1 rotate no_reflect no_shear #
lump $-1 $-1 $51 $9 #
transform $-1 1 0 0 0 1 0 0 0 1 72.623065889461969 40.734254829017658 13.123051065143564 1 rotate no_reflect no_shear #
lump $-1 $-1 $52 $10 #
transform $-1 1 0 0 0 1 0 0 0 1 72.623065889461969 40.734254829017658 13.123051065143564 1 rotate no_reflect no_shear #
lump $-1 $-1 $53 $11 #
transform $-1 1 0 0 0 1 0 0 0 1 72.623065889461969 40.734254829017658 13.123051065143564 1 rotate no_reflect no_shear #
lump $-1 $-1 $54 $12 #
transform $-1 1 0 0 0 1 0 0 0 1 72.623065889461969 40.734254829017658 13.123051065143564 1 rotate no_reflect no_shear #
lump $-1 $-1 $55 $13 #
transform $-1 1 0 0 0 1 0 0 0 1 72.623065889461969 40.734254829017658 13.123051065143564 1 rotate no_reflect no_shear #
shell $-1 $-1 $-1 $56 $-1 $14 #
shell $-1 $-1 $-1 $57 $-1 $16 #
shell $-1 $-1 $-1 $58 $-1 $18 #
shell $-1 $-1 $-1 $59 $-1 $20 #
shell $-1 $-1 $-1 $60 $-1 $22 #
shell $-1 $-1 $-1 $61 $-1 $24 #
shell $-1 $-1 $-1 $62 $-1 $26 #
shell $-1 $-1 $-1 $63 $-1 $28 #
shell $-1 $-1 $-1 $64 $-1 $30 #
shell $-1 $-1 $-1 $65 $-1 $32 #
shell $-1 $-1 $-1 $66 $-1 $34 #
shell $-1 $-1 $-1 $67 $-1 $36 #
shell $-1 $-1 $-1 $68 $-1 $38 #
shell $-1 $-1 $-1 $69 $-1 $40 #
face $-1 $70 $71 $42 $-1 $72 forward single #
face $-1 $73 $74 $43 $-1 $75 reversed single #
face $-1 $76 $77 $44 $-1 $78 reversed single #
face $-1 $79 $80 $45 $-1 $81 forward single #
face $-1 $82 $83 $46 $-1 $84 forward single #
face $-1 $85 $86 $47 $-1 $87 reversed single #
face $-1 $88 $89 $48 $-1 $90 forward single #
face $-1 $91 $92 $49 $-1 $93 forward single #
face $-1 $94 $95 $50 $-1 $96 reversed single #
face $-1 $97 $98 $51 $-1 $99 forward single #
face $-1 $100 $101 $52 $-1 $102 forward single #
face $-1 $103 $104 $53 $-1 $105 reversed single #
face $-1 $106 $107 $54 $-1 $108 forward single #
face $-1 $109 $110 $55 $-1 $111 forward single #
face $-1 $112 $113 $42 $-1 $114 reversed single #
loop $-1 $-1 $115 $56 #
plane-surface $-1 0 0 13.123051065143564 0 0 1 1 0 0 forward_v I I I I #
face $-1 $116 $117 $43 $-1 $118 reversed single #
loop $-1 $-1 $119 $57 #
plane-surface $-1 0 -35.237964441334277 8.6004104066078355 0 0 1 1 0 0 forward_v I I I I #
face $-1 $120 $121 $44 $-1 $122 reversed single #
loop $-1 $-1 $123 $58 #
plane-surface $-1 -52.48067613421982 105.03274780159063 153.97579009946327 -1 0 0 0 0.78801076186113728 0.61566146476048833 forward_v I I I I #
face $-1 $124 $125 $45 $-1 $126 forward single #
loop $-1 $127 $128 $59 #
cone-surface $-1 -66.868097387964212 34.485889304747239 5.7541774556830276 0 -0.78801076186113728 -0.61566146476048833 1.5 0 0 1 I I 0 1 1.5 forward I I I I #
face $-1 $129 $130 $46 $-1 $131 forward single #
loop $-1 $132 $133 $60 #
cone-surface $-1 -58.235644635717577 34.485889304747239 5.7541774556830276 0 -0.78801076186113728 -0.61566146476048833 1.5 0 0 1 I I 0 1 1.5 forward I I I I #
face $-1 $134 $135 $47 $-1 $136 reversed single #
loop $-1 $-1 $137 $61 #
plane-surface $-1 -16.169143189488835 105.03274780159063 153.97579009946327 -1 0 0 0 0.78801076186113728 0.61566146476048833 forward_v I I I I #
face $-1 $138 $139 $48 $-1 $140 forward single #
loop $-1 $141 $142 $62 #
cone-surface $-1 -30.556564443233228 34.485889304747239 5.7541774556830276 0 -0.78801076186113728 -0.61566146476048833 1.5 0 0 1 I I 0 1 1.5 forward I I I I #
face $-1 $143 $144 $49 $-1 $145 forward single #
loop $-1 $146 $147 $63 #
cone-surface $-1 -21.924111690986592 34.485889304747239 5.7541774556830276 0 -0.78801076186113728 -0.61566146476048833 1.5 0 0 1 I I 0 1 1.5 forward I I I I #
face $-1 $148 $149 $50 $-1 $150 reversed single #
loop $-1 $-1 $151 $64 #
plane-surface $-1 20.142389755242156 105.03274780159063 153.97579009946327 -1 0 0 0 0.78801076186113728 0.61566146476048833 forward_v I I I I #
face $-1 $152 $153 $51 $-1 $154 forward single #
loop $-1 $155 $156 $65 #
cone-surface $-1 5.754968501497757 34.485889304747239 5.7541774556830276 0 -0.78801076186113728 -0.61566146476048833 1.5 0 0 1 I I 0 1 1.5 forward I I I I #
face $-1 $157 $158 $52 $-1 $159 forward single #
loop $-1 $160 $161 $66 #
cone-surface $-1 14.387421253744392 34.485889304747239 5.7541774556830276 0 -0.78801076186113728 -0.61566146476048833 1.5 0 0 1 I I 0 1 1.5 forward I I I I #
face $-1 $162 $163 $53 $-1 $164 reversed single #
loop $-1 $-1 $165 $67 #
plane-surface $-1 56.453922699973141 105.03274780159063 153.97579009946327 -1 0 0 0 0.78801076186113728 0.61566146476048833 forward_v I I I I #
face $-1 $166 $167 $54 $-1 $168 forward single #
loop $-1 $169 $170 $68 #
cone-surface $-1 42.066501446228742 34.485889304747239 5.7541774556830276 0 -0.78801076186113728 -0.61566146476048833 1.5 0 0 1 I I 0 1 1.5 forward I I I I #
face $-1 $171 $172 $55 $-1 $173 forward single #
loop $-1 $174 $175 $69 #
cone-surface $-1 50.698954198475377 34.485889304747239 5.7541774556830276 0 -0.78801076186113728 -0.61566146476048833 1.5 0 0 1 I I 0 1 1.5 forward I I I I #
face $-1 $176 $177 $42 $-1 $178 reversed single #
loop $-1 $-1 $179 $70 #
plane-surface $-1 0 0 -13.123051065143564 0 0 1 1 0 0 forward_v I I I I #
coedge $-1 $180 $181 $182 $183 forward $71 $-1 #
face $-1 $184 $185 $43 $-1 $186 reversed single #
loop $-1 $-1 $187 $73 #
plane-surface $-1 0 -29.741674053650897 10.8617307358757 0 -1 0 0 0 -1 forward_v I I I I #
coedge $-1 $188 $189 $190 $191 reversed $74 $-1 #
face $-1 $192 $193 $44 $-1 $194 reversed single #
loop $-1 $-1 $195 $76 #
plane-surface $-1 -62.551871011840895 -9.4227671589023601 64.553343857656046 0 0.78801076186113728 0.61566146476048833 1 0 0 forward_v I I I I #
coedge $-1 $196 $197 $198 $199 reversed $77 $-1 #
face $-1 $-1 $200 $45 $-1 $201 forward single #
loop $-1 $202 $203 $79 #
cone-surface $-1 -66.868097387964212 32.634152995355009 4.3074425330557915 0 -0.78801076186113728 -0.61566146476048833 0.75 0 0 1 I I -0.70710678118654757 0.70710678118654757 0.75 forward I I I I #
loop $-1 $-1 $204 $59 #
coedge $-1 $128 $128 $205 $206 reversed $80 $-1 #
face $-1 $-1 $207 $46 $-1 $208 forward single #
loop $-1 $209 $210 $82 #
cone-surface $-1 -58.235644635717577 32.634152995355009 4.3074425330557915 0 -0.78801076186113728 -0.61566146476048833 0.75 0 0 1 I I -0.70710678118654757 0.70710678118654757 0.75 forward I I I I #
loop $-1 $-1 $211 $60 #
coedge $-1 $133 $133 $212 $213 reversed $83 $-1 #
face $-1 $214 $215 $47 $-1 $216 reversed single #
loop $-1 $-1 $217 $85 #
plane-surface $-1 -26.24033806710991 -9.4227671589023601 64.553343857656046 0 0.78801076186113728 0.61566146476048833 1 0 0 forward_v I I I I #
coedge $-1 $218 $219 $220 $221 reversed $86 $-1 #
face $-1 $-1 $222 $48 $-1 $223 forward single #
loop $-1 $224 $225 $88 #
cone-surface $-1 -30.556564443233228 32.634152995355009 4.3074425330557915 0 -0.78801076186113728 -0.61566146476048833 0.75 0 0 1 I I -0.70710678118654757 0.70710678118654757 0.75 forward I I I I #
loop $-1 $-1 $226 $62 #
coedge $-1 $142 $142 $227 $228 reversed $89 $-1 #
face $-1 $-1 $229 $49 $-1 $230 forward single #
loop $-1 $231 $232 $91 #
cone-surface $-1 -21.924111690986592 32.634152995355009 4.3074425330557915 0 -0.78801076186113728 -0.61566146476048833 0.75 0 0 1 I I -0.70710678118654757 0.70710678118654757 0.75 forward I I I I #
loop $-1 $-1 $233 $63 #
coedge $-1 $147 $147 $234 $235 reversed $92 $-1 #
face $-1 $236 $237 $50 $-1 $238 reversed single #
loop $-1 $-1 $239 $94 #
plane-surface $-1 10.071194877621082 -9.4227671589023601 64.553343857656046 0 0.78801076186113728 0.61566146476048833 1 0 0 forward_v I I I I #
coedge $-1 $240 $241 $242 $243 reversed $95 $-1 #
face $-1 $-1 $244 $51 $-1 $245 forward single #
loop $-1 $246 $247 $97 #
cone-surface $-1 5.754968501497757 32.634152995355009 4.3074425330557915 0 -0.78801076186113728 -0.61566146476048833 0.75 0 0 1 I I -0.70710678118654757 0.70710678118654757 0.75 forward I I I I #
loop $-1 $-1 $248 $65 #
coedge $-1 $156 $156 $249 $250 reversed $98 $-1 #
face $-1 $-1 $251 $52 $-1 $252 forward single #
loop $-1 $253 $254 $100 #
cone-surface $-1 14.387421253744392 32.634152995355009 4.3074425330557915 0 -0.78801076186113728 -0.61566146476048833 0.75 0 0 1 I I -0.70710678118654757 0.70710678118654757 0.75 forward I I I I #
loop $-1 $-1 $255 $66 #
coedge $-1 $161 $161 $256 $257 reversed $101 $-1 #
face $-1 $258 $259 $53 $-1 $260 reversed single #
loop $-1 $-1 $261 $103 #
plane-surface $-1 46.382727822352066 -9.4227671589023601 64.553343857656046 0 0.78801076186113728 0.61566146476048833 1 0 0 forward_v I I I I #
coedge $-1 $262 $263 $264 $265 reversed $104 $-1 #
face $-1 $-1 $266 $54 $-1 $267 forward single #
loop $-1 $268 $269 $106 #
cone-surface $-1 42.066501446228742 32.634152995355009 4.3074425330557915 0 -0.78801076186113728 -0.61566146476048833 0.75 0 0 1 I I -0.70710678118654757 0.70710678118654757 0.75 forward I I I I #
loop $-1 $-1 $270 $68 #
coedge $-1 $170 $170 $271 $272 reversed $107 $-1 #
face $-1 $-1 $273 $55 $-1 $274 forward single #
loop $-1 $275 $276 $109 #
cone-surface $-1 50.698954198475377 32.634152995355009 4.3074425330557915 0 -0.78801076186113728 -0.61566146476048833 0.75 0 0 1 I I -0.70710678118654757 0.70710678118654757 0.75 forward I I I I #
loop $-1 $-1 $277 $69 #
coedge $-1 $175 $175 $278 $279 reversed $110 $-1 #
face $-1 $280 $281 $42 $-1 $282 reversed single #
loop $-1 $-1 $283 $112 #
plane-surface $-1 0 -40.734254829017658 0 0 1 0 0 0 1 forward_v I I I I #
coedge $-1 $284 $285 $286 $287 forward $113 $-1 #
coedge $-1 $288 $115 $289 $290 forward $71 $-1 #
coedge $-1 $115 $288 $291 $292 forward $71 $-1 #
coedge $-1 $293 $294 $115 $183 reversed $295 $-1 #
edge $-1 $296 -40.734254829017658 $297 40.734254829017658 $182 $298 forward 7 unknown #
face $-1 $299 $300 $43 $-1 $301 reversed single #
loop $-1 $-1 $302 $116 #
plane-surface $-1 -72.623065889461969 0 0 1 0 0 0 0 -1 forward_v I I I I #
coedge $-1 $303 $304 $305 $306 reversed $117 $-1 #
coedge $-1 $307 $119 $308 $309 reversed $74 $-1 #
coedge $-1 $119 $307 $303 $310 forward $74 $-1 #
coedge $-1 $305 $311 $119 $191 forward $312 $-1 #
edge $-1 $313 -23.115272608350519 $314 -12.122691832983758 $190 $315 forward 7 unknown #
face $-1 $316 $317 $44 $-1 $318 forward single #
loop $-1 $-1 $319 $120 #
plane-surface $-1 -72.623065889461969 0 0 1 0 0 0 0 -1 forward_v I I I I #
coedge $-1 $320 $321 $322 $323 reversed $121 $-1 #
coedge $-1 $197 $123 $324 $325 reversed $77 $-1 #
coedge $-1 $123 $196 $320 $326 reversed $77 $-1 #
coedge $-1 $322 $327 $123 $199 forward $328 $-1 #
edge $-1 $329 63.86484398458807 $330 76.632613555395423 $198 $331 forward 7 unknown #
loop $-1 $-1 $205 $124 #
plane-surface $-1 -62.551871011840895 -9.4227671589023601 64.553343857656046 0 0.78801076186113728 0.61566146476048833 1 0 0 forward_v I I I I #
loop $-1 $-1 $332 $79 #
coedge $-1 $203 $203 $204 $333 reversed $125 $-1 #
coedge $-1 $204 $204 $203 $333 forward $127 $-1 #
coedge $-1 $205 $205 $128 $206 forward $200 $-1 #
edge $-1 $334 3.0331404736004386e-015 $334 6.2831853071796031 $205 $335 forward 7 unknown #
loop $-1 $-1 $212 $129 #
plane-surface $-1 -62.551871011840895 -9.4227671589023601 64.553343857656046 0 0.78801076186113728 0.61566146476048833 1 0 0 forward_v I I I I #
loop $-1 $-1 $336 $82 #
coedge $-1 $210 $210 $211 $337 reversed $130 $-1 #
coedge $-1 $211 $211 $210 $337 forward $132 $-1 #
coedge $-1 $212 $212 $133 $213 forward $207 $-1 #
edge $-1 $338 3.0331404736004386e-015 $338 6.2831853071796031 $212 $339 forward 7 unknown #
face $-1 $340 $341 $47 $-1 $342 forward single #
loop $-1 $-1 $343 $134 #
plane-surface $-1 -36.311532944730985 105.03274780159063 153.97579009946327 1 0 0 0 -0.78801076186113728 -0.61566146476048833 forward_v I I I I #
coedge $-1 $344 $345 $346 $347 reversed $135 $-1 #
coedge $-1 $219 $137 $348 $349 reversed $86 $-1 #
coedge $-1 $137 $218 $344 $350 reversed $86 $-1 #
coedge $-1 $346 $351 $137 $221 forward $352 $-1 #
edge $-1 $353 63.86484398458807 $354 76.632613555395423 $220 $355 forward 7 unknown #
loop $-1 $-1 $227 $138 #
plane-surface $-1 -26.24033806710991 -9.4227671589023601 64.553343857656046 0 0.78801076186113728 0.61566146476048833 1 0 0 forward_v I I I I #
loop $-1 $-1 $356 $88 #
coedge $-1 $225 $225 $226 $357 reversed $139 $-1 #
coedge $-1 $226 $226 $225 $357 forward $141 $-1 #
coedge $-1 $227 $227 $142 $228 forward $222 $-1 #
edge $-1 $358 3.0331404736004386e-015 $358 6.2831853071796031 $227 $359 forward 7 unknown #
loop $-1 $-1 $234 $143 #
plane-surface $-1 -26.24033806710991 -9.4227671589023601 64.553343857656046 0 0.78801076186113728 0.61566146476048833 1 0 0 forward_v I I I I #
loop $-1 $-1 $360 $91 #
coedge $-1 $232 $232 $233 $361 reversed $144 $-1 #
coedge $-1 $233 $233 $232 $361 forward $146 $-1 #
coedge $-1 $234 $234 $147 $235 forward $229 $-1 #
edge $-1 $362 3.0331404736004386e-015 $362 6.2831853071796031 $234 $363 forward 7 unknown #
face $-1 $364 $365 $50 $-1 $366 forward single #
loop $-1 $-1 $367 $148 #
plane-surface $-1 8.8817841970012523e-015 105.03274780159063 153.97579009946327 1 0 0 0 -0.78801076186113728 -0.61566146476048833 forward_v I I I I #
coedge $-1 $368 $369 $370 $371 reversed $149 $-1 #
coedge $-1 $241 $151 $372 $373 reversed $95 $-1 #
coedge $-1 $151 $240 $368 $374 reversed $95 $-1 #
coedge $-1 $370 $375 $151 $243 forward $376 $-1 #
edge $-1 $377 63.86484398458807 $378 76.632613555395423 $242 $379 forward 7 unknown #
loop $-1 $-1 $249 $152 #
plane-surface $-1 10.071194877621082 -9.4227671589023601 64.553343857656046 0 0.78801076186113728 0.61566146476048833 1 0 0 forward_v I I I I #
loop $-1 $-1 $380 $97 #
coedge $-1 $247 $247 $248 $381 reversed $153 $-1 #
coedge $-1 $248 $248 $247 $381 forward $155 $-1 #
coedge $-1 $249 $249 $156 $250 forward $244 $-1 #
edge $-1 $382 3.0331404736004386e-015 $382 6.2831853071796031 $249 $383 forward 7 unknown #
loop $-1 $-1 $256 $157 #
plane-surface $-1 10.071194877621082 -9.4227671589023601 64.553343857656046 0 0.78801076186113728 0.61566146476048833 1 0 0 forward_v I I I I #
loop $-1 $-1 $384 $100 #
coedge $-1 $254 $254 $255 $385 reversed $158 $-1 #
coedge $-1 $255 $255 $254 $385 forward $160 $-1 #
coedge $-1 $256 $256 $161 $257 forward $251 $-1 #
edge $-1 $386 3.0331404736004386e-015 $386 6.2831853071796031 $256 $387 forward 7 unknown #
face $-1 $388 $389 $53 $-1 $390 forward single #
loop $-1 $-1 $391 $162 #
plane-surface $-1 36.311532944730992 105.03274780159063 153.97579009946327 1 0 0 0 -0.78801076186113728 -0.61566146476048833 forward_v I I I I #
coedge $-1 $392 $393 $394 $395 reversed $163 $-1 #
coedge $-1 $263 $165 $396 $397 reversed $104 $-1 #
coedge $-1 $165 $262 $392 $398 reversed $104 $-1 #
coedge $-1 $394 $399 $165 $265 forward $400 $-1 #
edge $-1 $401 63.86484398458807 $402 76.632613555395423 $264 $403 forward 7 unknown #
loop $-1 $-1 $271 $166 #
plane-surface $-1 46.382727822352066 -9.4227671589023601 64.553343857656046 0 0.78801076186113728 0.61566146476048833 1 0 0 forward_v I I I I #
loop $-1 $-1 $404 $106 #
coedge $-1 $269 $269 $270 $405 reversed $167 $-1 #
coedge $-1 $270 $270 $269 $405 forward $169 $-1 #
coedge $-1 $271 $271 $170 $272 forward $266 $-1 #
edge $-1 $406 3.0331404736004386e-015 $406 6.2831853071796031 $271 $407 forward 7 unknown #
loop $-1 $-1 $278 $171 #
plane-surface $-1 46.382727822352066 -9.4227671589023601 64.553343857656046 0 0.78801076186113728 0.61566146476048833 1 0 0 forward_v I I I I #
loop $-1 $-1 $408 $109 #
coedge $-1 $276 $276 $277 $409 reversed $172 $-1 #
coedge $-1 $277 $277 $276 $409 forward $174 $-1 #
coedge $-1 $278 $278 $175 $279 forward $273 $-1 #
edge $-1 $410 3.0331404736004386e-015 $410 6.2831853071796031 $278 $411 forward 7 unknown #
face $-1 $412 $413 $42 $-1 $414 reversed single #
loop $-1 $-1 $415 $176 #
plane-surface $-1 -72.623065889461969 0 0 1 0 0 0 0 -1 forward_v I I I I #
coedge $-1 $416 $291 $417 $418 forward $177 $-1 #
coedge $-1 $419 $179 $416 $420 forward $113 $-1 #
coedge $-1 $179 $419 $421 $422 forward $113 $-1 #
coedge $-1 $294 $293 $179 $287 reversed $295 $-1 #
edge $-1 $423 -40.734254829017658 $424 40.734254829017658 $286 $425 forward 7 unknown #
coedge $-1 $181 $180 $426 $427 forward $71 $-1 #
coedge $-1 $428 $429 $180 $290 reversed $413 $-1 #
edge $-1 $297 -72.623065889461969 $430 72.623065889461969 $289 $431 forward 7 unknown #
coedge $-1 $283 $432 $181 $292 reversed $177 $-1 #
edge $-1 $433 -72.623065889461969 $296 72.623065889461969 $291 $434 forward 7 unknown #
coedge $-1 $286 $182 $432 $435 forward $295 $-1 #
coedge $-1 $182 $286 $428 $436 reversed $295 $-1 #
loop $-1 $-1 $293 $412 #
vertex $-1 $183 $437 #
vertex $-1 $183 $438 #
straight-curve $-1 72.623065889461969 0 13.123051065143564 0 1 0 I I #
face $-1 $439 $440 $43 $-1 $441 forward single #
loop $-1 $-1 $308 $184 #
plane-surface $-1 0 -40.734254829017658 0 0 1 0 0 0 1 forward_v I I I I #
coedge $-1 $442 $443 $444 $445 forward $185 $-1 #
coedge $-1 $444 $187 $189 $310 reversed $117 $-1 #
coedge $-1 $187 $444 $446 $447 reversed $117 $-1 #
coedge $-1 $448 $190 $187 $306 forward $312 $-1 #
edge $-1 $314 3.1695450386699857 $449 7.6921856972057139 $305 $450 forward 7 unknown #
coedge $-1 $189 $188 $442 $451 reversed $74 $-1 #
coedge $-1 $452 $453 $188 $309 forward $300 $-1 #
edge $-1 $454 -72.623065889461969 $313 72.623065889461969 $308 $455 forward 7 unknown #
edge $-1 $456 -72.623065889461969 $314 72.623065889461969 $303 $457 forward 7 unknown #
coedge $-1 $190 $448 $452 $458 forward $312 $-1 #
loop $-1 $-1 $305 $439 #
vertex $-1 $309 $459 #
vertex $-1 $191 $460 #
straight-curve $-1 72.623065889461969 -17.618982220667139 8.6004104066078355 0 1 0 I I #
face $-1 $-1 $328 $44 $-1 $461 reversed single #
loop $-1 $-1 $324 $192 #
plane-surface $-1 0 0 13.123051065143564 0 0 1 1 0 0 forward_v I I I I #
coedge $-1 $462 $463 $321 $464 forward $193 $-1 #
coedge $-1 $465 $195 $197 $326 forward $121 $-1 #
coedge $-1 $195 $465 $319 $464 reversed $121 $-1 #
coedge $-1 $466 $198 $195 $323 forward $328 $-1 #
edge $-1 $330 21.204740628299373 $467 41.347130383541526 $322 $468 forward 7 unknown #
coedge $-1 $469 $470 $196 $325 forward $317 $-1 #
edge $-1 $471 -21.757393644325745 $329 -11.782119071777657 $324 $472 forward 7 unknown #
edge $-1 $330 -81.46850965803533 $471 -65.265977676552964 $197 $473 forward 7 unknown #
coedge $-1 $198 $466 $469 $474 reversed $328 $-1 #
loop $-1 $-1 $322 $316 #
vertex $-1 $474 $475 #
vertex $-1 $199 $476 #
straight-curve $-1 -52.48067613421982 40.734254829017658 76.987895049731634 0 0 -1 I I #
coedge $-1 $332 $332 $-1 $477 reversed $202 $-1 #
edge $-1 $478 0 $478 6.2831853071796004 $203 $479 forward 7 unknown #
vertex $-1 $206 $480 #
ellipse-curve $-1 -66.868097387964212 35.746617542743607 6.7391662797398917 0 0.78801076186113728 0.61566146476048833 1.5 0 0 1 I I #
coedge $-1 $336 $336 $-1 $481 reversed $209 $-1 #
edge $-1 $482 0 $482 6.2831853071796004 $210 $483 forward 7 unknown #
vertex $-1 $213 $484 #
ellipse-curve $-1 -58.235644635717577 35.746617542743607 6.7391662797398917 0 0.78801076186113728 0.61566146476048833 1.5 0 0 1 I I #
face $-1 $-1 $352 $47 $-1 $485 reversed single #
loop $-1 $-1 $486 $214 #
plane-surface $-1 0 0 13.123051065143564 0 0 1 1 0 0 forward_v I I I I #
coedge $-1 $487 $488 $489 $490 reversed $215 $-1 #
coedge $-1 $491 $217 $219 $350 forward $135 $-1 #
coedge $-1 $217 $491 $487 $492 forward $135 $-1 #
coedge $-1 $489 $220 $217 $347 forward $352 $-1 #
edge $-1 $354 3.0489741559338803 $493 23.19136391117603 $346 $494 forward 7 unknown #
coedge $-1 $495 $496 $218 $349 forward $341 $-1 #
edge $-1 $497 -21.757393644325745 $353 -11.782119071777657 $348 $498 forward 7 unknown #
edge $-1 $354 -81.46850965803533 $497 -65.265977676552964 $219 $499 forward 7 unknown #
coedge $-1 $220 $489 $495 $500 reversed $352 $-1 #
loop $-1 $-1 $489 $340 #
vertex $-1 $500 $501 #
vertex $-1 $221 $502 #
straight-curve $-1 -16.169143189488835 40.734254829017658 76.987895049731634 0 0 -1 I I #
coedge $-1 $356 $356 $-1 $503 reversed $224 $-1 #
edge $-1 $504 0 $504 6.2831853071796004 $225 $505 forward 7 unknown #
vertex $-1 $228 $506 #
ellipse-curve $-1 -30.556564443233228 35.746617542743607 6.7391662797398917 0 0.78801076186113728 0.61566146476048833 1.5 0 0 1 I I #
coedge $-1 $360 $360 $-1 $507 reversed $231 $-1 #
edge $-1 $508 0 $508 6.2831853071796004 $232 $509 forward 7 unknown #
vertex $-1 $235 $510 #
ellipse-curve $-1 -21.924111690986592 35.746617542743607 6.7391662797398917 0 0.78801076186113728 0.61566146476048833 1.5 0 0 1 I I #
face $-1 $-1 $376 $50 $-1 $511 reversed single #
loop $-1 $-1 $512 $236 #
plane-surface $-1 0 0 13.123051065143564 0 0 1 1 0 0 forward_v I I I I #
coedge $-1 $513 $514 $515 $516 reversed $237 $-1 #
coedge $-1 $517 $239 $241 $374 forward $149 $-1 #
coedge $-1 $239 $517 $513 $518 forward $149 $-1 #
coedge $-1 $515 $242 $239 $371 forward $376 $-1 #
edge $-1 $378 -15.106792316431616 $519 5.035597438810532 $370 $520 forward 7 unknown #
coedge $-1 $521 $522 $240 $373 forward $365 $-1 #
edge $-1 $523 -21.757393644325745 $377 -11.782119071777657 $372 $524 forward 7 unknown #
edge $-1 $378 -81.46850965803533 $523 -65.265977676552964 $241 $525 forward 7 unknown #
coedge $-1 $242 $515 $521 $526 reversed $376 $-1 #
loop $-1 $-1 $515 $364 #
vertex $-1 $526 $527 #
vertex $-1 $243 $528 #
straight-curve $-1 20.142389755242156 40.734254829017658 76.987895049731634 0 0 -1 I I #
coedge $-1 $380 $380 $-1 $529 reversed $246 $-1 #
edge $-1 $530 0 $530 6.2831853071796004 $247 $531 forward 7 unknown #
vertex $-1 $250 $532 #
ellipse-curve $-1 5.754968501497757 35.746617542743607 6.7391662797398917 0 0.78801076186113728 0.61566146476048833 1.5 0 0 1 I I #
coedge $-1 $384 $384 $-1 $533 reversed $253 $-1 #
edge $-1 $534 0 $534 6.2831853071796004 $254 $535 forward 7 unknown #
vertex $-1 $257 $536 #
ellipse-curve $-1 14.387421253744392 35.746617542743607 6.7391662797398917 0 0.78801076186113728 0.61566146476048833 1.5 0 0 1 I I #
face $-1 $-1 $400 $53 $-1 $537 reversed single #
loop $-1 $-1 $538 $258 #
plane-surface $-1 0 0 13.123051065143564 0 0 1 1 0 0 forward_v I I I I #
coedge $-1 $539 $540 $541 $542 reversed $259 $-1 #
coedge $-1 $543 $261 $263 $398 forward $163 $-1 #
coedge $-1 $261 $543 $539 $544 forward $163 $-1 #
coedge $-1 $541 $264 $261 $395 forward $400 $-1 #
edge $-1 $402 -33.262558788797108 $545 -13.120169033554959 $394 $546 forward 7 unknown #
coedge $-1 $547 $548 $262 $397 forward $389 $-1 #
edge $-1 $549 -21.757393644325745 $401 -11.782119071777657 $396 $550 forward 7 unknown #
edge $-1 $402 -81.46850965803533 $549 -65.265977676552964 $263 $551 forward 7 unknown #
coedge $-1 $264 $541 $547 $552 reversed $400 $-1 #
loop $-1 $-1 $541 $388 #
vertex $-1 $552 $553 #
vertex $-1 $265 $554 #
straight-curve $-1 56.453922699973141 40.734254829017658 76.987895049731634 0 0 -1 I I #
coedge $-1 $404 $404 $-1 $555 reversed $268 $-1 #
edge $-1 $556 0 $556 6.2831853071796004 $269 $557 forward 7 unknown #
vertex $-1 $272 $558 #
ellipse-curve $-1 42.066501446228742 35.746617542743607 6.7391662797398917 0 0.78801076186113728 0.61566146476048833 1.5 0 0 1 I I #
coedge $-1 $408 $408 $-1 $559 reversed $275 $-1 #
edge $-1 $560 0 $560 6.2831853071796004 $276 $561 forward 7 unknown #
vertex $-1 $279 $562 #
ellipse-curve $-1 50.698954198475377 35.746617542743607 6.7391662797398917 0 0.78801076186113728 0.61566146476048833 1.5 0 0 1 I I #
face $-1 $-1 $295 $42 $-1 $563 reversed single #
loop $-1 $-1 $428 $280 #
plane-surface $-1 0 40.734254829017658 0 0 -1 0 0 0 -1 forward_v I I I I #
coedge $-1 $564 $426 $429 $565 forward $281 $-1 #
coedge $-1 $432 $283 $284 $420 reversed $177 $-1 #
coedge $-1 $426 $564 $283 $418 reversed $281 $-1 #
edge $-1 $433 -13.123051065143564 $566 13.123051065143564 $417 $567 forward 7 unknown #
coedge $-1 $285 $284 $564 $568 forward $113 $-1 #
edge $-1 $424 -72.623065889461969 $566 72.623065889461969 $416 $569 forward 7 unknown #
coedge $-1 $429 $428 $285 $422 reversed $413 $-1 #
edge $-1 $570 -72.623065889461969 $423 72.623065889461969 $421 $571 forward 7 unknown #
vertex $-1 $287 $572 #
vertex $-1 $435 $573 #
straight-curve $-1 72.623065889461969 0 -13.123051065143564 0 -1 0 I I #
coedge $-1 $415 $417 $288 $427 reversed $281 $-1 #
edge $-1 $430 -40.734254829017658 $433 40.734254829017658 $426 $574 forward 7 unknown #
coedge $-1 $421 $289 $294 $436 forward $413 $-1 #
coedge $-1 $289 $421 $415 $565 reversed $413 $-1 #
vertex $-1 $290 $575 #
straight-curve $-1 0 40.734254829017658 13.123051065143564 -1 0 0 I I #
coedge $-1 $291 $416 $293 $435 reversed $177 $-1 #
vertex $-1 $427 $576 #
straight-curve $-1 0 -40.734254829017658 13.123051065143564 1 0 0 I I #
edge $-1 $296 -13.123051065143564 $424 13.123051065143564 $293 $577 forward 7 unknown #
edge $-1 $297 -13.123051065143564 $423 13.123051065143564 $294 $578 forward 7 unknown #
point $-1 72.623065889461969 -40.734254829017658 13.123051065143564 #
point $-1 72.623065889461969 40.734254829017658 13.123051065143564 #
face $-1 $-1 $312 $43 $-1 $579 reversed single #
loop $-1 $-1 $446 $299 #
plane-surface $-1 0 0 13.123051065143564 0 0 1 1 0 0 forward_v I I I I #
coedge $-1 $580 $302 $307 $451 forward $185 $-1 #
coedge $-1 $302 $580 $581 $582 reversed $185 $-1 #
coedge $-1 $304 $303 $302 $445 reversed $117 $-1 #
edge $-1 $583 -7.6921856972057139 $456 -3.1695450386699857 $302 $584 forward 7 unknown #
coedge $-1 $581 $585 $304 $447 forward $440 $-1 #
edge $-1 $449 -72.623065889461969 $583 72.623065889461969 $446 $586 forward 7 unknown #
coedge $-1 $311 $305 $585 $587 reversed $312 $-1 #
vertex $-1 $306 $588 #
straight-curve $-1 72.623065889461969 -29.741674053650897 5.4308653679378498 0 0 1 I I #
edge $-1 $456 12.122691832983758 $454 23.115272608350519 $442 $589 forward 7 unknown #
coedge $-1 $590 $308 $311 $458 reversed $300 $-1 #
coedge $-1 $308 $590 $580 $591 forward $300 $-1 #
vertex $-1 $309 $592 #
straight-curve $-1 0 -40.734254829017658 8.6004104066078355 1 0 0 I I #
vertex $-1 $451 $593 #
straight-curve $-1 0 -29.741674053650897 8.6004104066078355 1 0 0 I I #
edge $-1 $594 -13.123051065143564 $313 -8.6004104066078355 $311 $595 forward 7 unknown #
point $-1 72.623065889461969 -40.734254829017658 8.6004104066078355 #
point $-1 72.623065889461969 -29.741674053650897 8.6004104066078355 #
plane-surface $-1 0 40.734254829017658 0 0 -1 0 0 0 -1 forward_v I I I I #
coedge $-1 $463 $319 $596 $597 reversed $193 $-1 #
coedge $-1 $319 $462 $466 $598 forward $193 $-1 #
edge $-1 $467 -53.133527505484146 $599 -36.930995524001787 $319 $600 forward 7 unknown #
coedge $-1 $321 $320 $470 $601 reversed $121 $-1 #
coedge $-1 $327 $322 $463 $598 reversed $328 $-1 #
vertex $-1 $464 $602 #
straight-curve $-1 -31.275935505920447 40.734254829017658 0.35528149433621437 -1 0 0 I I #
coedge $-1 $596 $324 $327 $474 forward $317 $-1 #
coedge $-1 $324 $596 $465 $601 forward $317 $-1 #
vertex $-1 $325 $603 #
straight-curve $-1 -52.48067613421982 52.516373900795315 13.123051065143557 0 1 0 I I #
straight-curve $-1 -52.48067613421982 -9.4227671589023601 64.553343857656046 0 -0.61566146476048833 0.78801076186113728 I I #
edge $-1 $329 52.48067613421982 $604 72.623065889461969 $327 $605 forward 7 unknown #
point $-1 -52.48067613421982 40.734254829017658 13.123051065143564 #
point $-1 -52.48067613421982 40.734254829017665 0.35528149433621081 #
edge $-1 $606 1 $606 0 $332 $-1 forward 7 unknown #
vertex $-1 $333 $607 #
ellipse-curve $-1 -66.868097387964212 33.225161066750864 4.7691886316261574 0 0.78801076186113728 0.61566146476048833 1.5 0 0 1 I I #
point $-1 -65.368097387964212 35.746617542743621 6.739166279739897 #
edge $-1 $608 1 $608 0 $336 $-1 forward 7 unknown #
vertex $-1 $337 $609 #
ellipse-curve $-1 -58.235644635717577 33.225161066750864 4.7691886316261574 0 0.78801076186113728 0.61566146476048833 1.5 0 0 1 I I #
point $-1 -56.735644635717577 35.746617542743621 6.739166279739897 #
plane-surface $-1 0 40.734254829017658 0 0 -1 0 0 0 -1 forward_v I I I I #
coedge $-1 $496 $495 $488 $610 forward $341 $-1 #
coedge $-1 $488 $343 $345 $492 reversed $215 $-1 #
coedge $-1 $343 $487 $486 $610 reversed $215 $-1 #
coedge $-1 $351 $346 $343 $490 forward $352 $-1 #
edge $-1 $493 -76.632613555395423 $611 -63.86484398458807 $489 $612 forward 7 unknown #
coedge $-1 $345 $344 $496 $613 reversed $135 $-1 #
edge $-1 $614 65.265977676552964 $493 81.46850965803533 $487 $615 forward 7 unknown #
vertex $-1 $347 $616 #
straight-curve $-1 -13.120169033554955 40.734254829017658 0.35528149433621437 -1 0 0 I I #
coedge $-1 $486 $348 $351 $500 forward $341 $-1 #
coedge $-1 $348 $486 $491 $613 forward $341 $-1 #
vertex $-1 $349 $617 #
straight-curve $-1 -16.169143189488835 52.516373900795315 13.123051065143557 0 1 0 I I #
straight-curve $-1 -16.169143189488835 -9.4227671589023601 64.553343857656046 0 -0.61566146476048833 0.78801076186113728 I I #
edge $-1 $353 16.169143189488835 $611 36.311532944730985 $351 $618 forward 7 unknown #
point $-1 -16.169143189488835 40.734254829017658 13.123051065143564 #
point $-1 -16.169143189488835 40.734254829017665 0.35528149433621081 #
edge $-1 $619 1 $619 0 $356 $-1 forward 7 unknown #
vertex $-1 $357 $620 #
ellipse-curve $-1 -30.556564443233228 33.225161066750864 4.7691886316261574 0 0.78801076186113728 0.61566146476048833 1.5 0 0 1 I I #
point $-1 -29.056564443233228 35.746617542743621 6.739166279739897 #
edge $-1 $621 1 $621 0 $360 $-1 forward 7 unknown #
vertex $-1 $361 $622 #
ellipse-curve $-1 -21.924111690986592 33.225161066750864 4.7691886316261574 0 0.78801076186113728 0.61566146476048833 1.5 0 0 1 I I #
point $-1 -20.424111690986592 35.746617542743621 6.739166279739897 #
plane-surface $-1 0 40.734254829017658 0 0 -1 0 0 0 -1 forward_v I I I I #
coedge $-1 $522 $521 $514 $623 forward $365 $-1 #
coedge $-1 $514 $367 $369 $518 reversed $237 $-1 #
coedge $-1 $367 $513 $512 $623 reversed $237 $-1 #
coedge $-1 $375 $370 $367 $516 forward $376 $-1 #
edge $-1 $519 -76.632613555395423 $624 -63.86484398458807 $515 $625 forward 7 unknown #
coedge $-1 $369 $368 $522 $626 reversed $149 $-1 #
edge $-1 $627 65.265977676552964 $519 81.46850965803533 $513 $628 forward 7 unknown #
vertex $-1 $371 $629 #
straight-curve $-1 5.0355974388105409 40.734254829017658 0.35528149433621437 -1 0 0 I I #
coedge $-1 $512 $372 $375 $526 forward $365 $-1 #
coedge $-1 $372 $512 $517 $626 forward $365 $-1 #
vertex $-1 $373 $630 #
straight-curve $-1 20.142389755242156 52.516373900795315 13.123051065143557 0 1 0 I I #
straight-curve $-1 20.142389755242156 -9.4227671589023601 64.553343857656046 0 -0.61566146476048833 0.78801076186113728 I I #
edge $-1 $377 -20.142389755242156 $624 -8.8817841970012523e-015 $375 $631 forward 7 unknown #
point $-1 20.142389755242156 40.734254829017658 13.123051065143564 #
point $-1 20.142389755242156 40.734254829017665 0.35528149433621081 #
edge $-1 $632 1 $632 0 $380 $-1 forward 7 unknown #
vertex $-1 $381 $633 #
ellipse-curve $-1 5.754968501497757 33.225161066750864 4.7691886316261574 0 0.78801076186113728 0.61566146476048833 1.5 0 0 1 I I #
point $-1 7.254968501497757 35.746617542743621 6.739166279739897 #
edge $-1 $634 1 $634 0 $384 $-1 forward 7 unknown #
vertex $-1 $385 $635 #
ellipse-curve $-1 14.387421253744392 33.225161066750864 4.7691886316261574 0 0.78801076186113728 0.61566146476048833 1.5 0 0 1 I I #
point $-1 15.887421253744392 35.746617542743621 6.739166279739897 #
plane-surface $-1 0 40.734254829017658 0 0 -1 0 0 0 -1 forward_v I I I I #
coedge $-1 $548 $547 $540 $636 forward $389 $-1 #
coedge $-1 $540 $391 $393 $544 reversed $259 $-1 #
coedge $-1 $391 $539 $538 $636 reversed $259 $-1 #
coedge $-1 $399 $394 $391 $542 forward $400 $-1 #
edge $-1 $545 -76.632613555395423 $637 -63.86484398458807 $541 $638 forward 7 unknown #
coedge $-1 $393 $392 $548 $639 reversed $163 $-1 #
edge $-1 $640 65.265977676552964 $545 81.46850965803533 $539 $641 forward 7 unknown #
vertex $-1 $395 $642 #
straight-curve $-1 23.191363911176033 40.734254829017658 0.35528149433621437 -1 0 0 I I #
coedge $-1 $538 $396 $399 $552 forward $389 $-1 #
coedge $-1 $396 $538 $543 $639 forward $389 $-1 #
vertex $-1 $397 $643 #
straight-curve $-1 56.453922699973141 52.516373900795315 13.123051065143557 0 1 0 I I #
straight-curve $-1 56.453922699973141 -9.4227671589023601 64.553343857656046 0 -0.61566146476048833 0.78801076186113728 I I #
edge $-1 $401 -56.453922699973141 $637 -36.311532944730992 $399 $644 forward 7 unknown #
point $-1 56.453922699973141 40.734254829017658 13.123051065143564 #
point $-1 56.453922699973141 40.734254829017665 0.35528149433621081 #
edge $-1 $645 1 $645 0 $404 $-1 forward 7 unknown #
vertex $-1 $405 $646 #
ellipse-curve $-1 42.066501446228742 33.225161066750864 4.7691886316261574 0 0.78801076186113728 0.61566146476048833 1.5 0 0 1 I I #
point $-1 43.566501446228742 35.746617542743621 6.739166279739897 #
edge $-1 $647 1 $647 0 $408 $-1 forward 7 unknown #
vertex $-1 $409 $648 #
ellipse-curve $-1 50.698954198475377 33.225161066750864 4.7691886316261574 0 0.78801076186113728 0.61566146476048833 1.5 0 0 1 I I #
point $-1 52.198954198475377 35.746617542743621 6.739166279739897 #
plane-surface $-1 72.623065889461969 0 0 -1 0 0 0 0 1 forward_v I I I I #
coedge $-1 $417 $415 $419 $568 reversed $281 $-1 #
edge $-1 $430 -13.123051065143564 $570 13.123051065143564 $429 $649 forward 7 unknown #
vertex $-1 $568 $650 #
straight-curve $-1 -72.623065889461969 -40.734254829017658 0 0 0 -1 I I #
edge $-1 $566 -40.734254829017658 $570 40.734254829017658 $564 $651 forward 7 unknown #
straight-curve $-1 0 -40.734254829017658 -13.123051065143564 -1 0 0 I I #
vertex $-1 $422 $652 #
straight-curve $-1 0 40.734254829017658 -13.123051065143564 1 0 0 I I #
point $-1 72.623065889461969 40.734254829017658 -13.123051065143564 #
point $-1 72.623065889461969 -40.734254829017658 -13.123051065143564 #
straight-curve $-1 -72.623065889461969 0 13.123051065143564 0 -1 0 I I #
point $-1 -72.623065889461969 40.734254829017658 13.123051065143564 #
point $-1 -72.623065889461969 -40.734254829017658 13.123051065143564 #
straight-curve $-1 72.623065889461969 -40.734254829017658 0 0 0 -1 I I #
straight-curve $-1 72.623065889461969 40.734254829017658 0 0 0 -1 I I #
plane-surface $-1 72.623065889461969 0 0 -1 0 0 0 0 1 forward_v I I I I #
coedge $-1 $443 $442 $453 $591 reversed $185 $-1 #
coedge $-1 $653 $446 $443 $582 forward $440 $-1 #
edge $-1 $583 29.741674053650897 $654 40.734254829017658 $443 $655 forward 7 unknown #
vertex $-1 $582 $656 #
straight-curve $-1 -72.623065889461969 -29.741674053650897 5.4308653679378498 0 0 -1 I I #
coedge $-1 $446 $653 $448 $587 forward $440 $-1 #
straight-curve $-1 0 -29.741674053650897 13.123051065143564 -1 0 0 I I #
edge $-1 $594 -40.734254829017658 $449 -29.741674053650897 $448 $657 forward 7 unknown #
point $-1 72.623065889461969 -29.741674053650897 13.123051065143564 #
straight-curve $-1 -72.623065889461969 -17.618982220667139 8.6004104066078355 0 -1 0 I I #
coedge $-1 $453 $452 $653 $658 reversed $300 $-1 #
edge $-1 $654 -13.123051065143564 $454 -8.6004104066078355 $580 $659 forward 7 unknown #
point $-1 -72.623065889461969 -40.734254829017658 8.6004104066078355 #
point $-1 -72.623065889461969 -29.741674053650897 8.6004104066078355 #
vertex $-1 $587 $660 #
straight-curve $-1 72.623065889461969 -40.734254829017658 0 0 0 -1 I I #
coedge $-1 $470 $469 $462 $597 forward $317 $-1 #
edge $-1 $604 -40.734254829017658 $599 -30.75898025646957 $462 $661 forward 7 unknown #
edge $-1 $604 -13.123051065143564 $467 -0.35528149433620887 $466 $662 forward 7 unknown #
vertex $-1 $464 $663 #
straight-curve $-1 -72.623065889461969 8.0219894570995951 42.225072984302464 0 -0.61566146476048833 0.78801076186113728 I I #
edge $-1 $599 -41.347130383541526 $471 -21.204740628299373 $470 $664 forward 7 unknown #
point $-1 -72.623065889461969 40.734254829017658 0.35528149433620887 #
point $-1 -52.48067613421982 30.75898025646957 13.123051065143564 #
vertex $-1 $474 $665 #
straight-curve $-1 0 40.734254829017658 13.123051065143564 -1 0 0 I I #
vertex $-1 $477 $666 #
point $-1 -65.368097387964212 33.225161066750864 4.7691886316261574 #
vertex $-1 $481 $667 #
point $-1 -56.735644635717577 33.225161066750864 4.7691886316261574 #
edge $-1 $611 11.782119071777657 $614 21.757393644325745 $486 $668 forward 7 unknown #
vertex $-1 $490 $669 #
straight-curve $-1 -36.311532944730985 40.734254829017658 76.987895049731634 0 0 1 I I #
edge $-1 $614 -23.19136391117603 $497 -3.0489741559338803 $496 $670 forward 7 unknown #
vertex $-1 $613 $671 #
straight-curve $-1 -36.311532944730985 -9.4227671589023601 64.553343857656046 0 0.61566146476048833 -0.78801076186113728 I I #
point $-1 -36.311532944730985 40.734254829017665 0.35528149433621081 #
point $-1 -16.169143189488835 30.75898025646957 13.123051065143564 #
straight-curve $-1 0 40.734254829017658 13.123051065143564 -1 0 0 I I #
vertex $-1 $503 $672 #
point $-1 -29.056564443233228 33.225161066750864 4.7691886316261574 #
vertex $-1 $507 $673 #
point $-1 -20.424111690986592 33.225161066750864 4.7691886316261574 #
edge $-1 $624 11.782119071777657 $627 21.757393644325745 $512 $674 forward 7 unknown #
vertex $-1 $516 $675 #
straight-curve $-1 8.8817841970012523e-015 40.734254829017658 76.987895049731634 0 0 1 I I #
edge $-1 $627 -5.035597438810532 $523 15.106792316431616 $522 $676 forward 7 unknown #
vertex $-1 $626 $677 #
straight-curve $-1 8.8817841970012523e-015 -9.4227671589023601 64.553343857656046 0 0.61566146476048833 -0.78801076186113728 I I #
point $-1 8.8817841970012523e-015 40.734254829017665 0.35528149433621081 #
point $-1 20.142389755242156 30.75898025646957 13.123051065143564 #
straight-curve $-1 0 40.734254829017658 13.123051065143564 -1 0 0 I I #
vertex $-1 $529 $678 #
point $-1 7.254968501497757 33.225161066750864 4.7691886316261574 #
vertex $-1 $533 $679 #
point $-1 15.887421253744392 33.225161066750864 4.7691886316261574 #
edge $-1 $637 11.782119071777657 $640 21.757393644325745 $538 $680 forward 7 unknown #
vertex $-1 $542 $681 #
straight-curve $-1 36.311532944730992 40.734254829017658 76.987895049731634 0 0 1 I I #
edge $-1 $640 13.120169033554959 $549 33.262558788797108 $548 $682 forward 7 unknown #
vertex $-1 $639 $683 #
straight-curve $-1 36.311532944730992 -9.4227671589023601 64.553343857656046 0 0.61566146476048833 -0.78801076186113728 I I #
point $-1 36.311532944730992 40.734254829017665 0.35528149433621081 #
point $-1 56.453922699973141 30.75898025646957 13.123051065143564 #
straight-curve $-1 0 40.734254829017658 13.123051065143564 -1 0 0 I I #
vertex $-1 $555 $684 #
point $-1 43.566501446228742 33.225161066750864 4.7691886316261574 #
vertex $-1 $559 $685 #
point $-1 52.198954198475377 33.225161066750864 4.7691886316261574 #
straight-curve $-1 -72.623065889461969 40.734254829017658 0 0 0 -1 I I #
point $-1 -72.623065889461969 -40.734254829017658 -13.123051065143564 #
straight-curve $-1 -72.623065889461969 0 -13.123051065143564 0 1 0 I I #
point $-1 -72.623065889461969 40.734254829017658 -13.123051065143564 #
coedge $-1 $585 $581 $590 $658 forward $440 $-1 #
vertex $-1 $582 $686 #
straight-curve $-1 -72.623065889461969 0 13.123051065143564 0 -1 0 I I #
point $-1 -72.623065889461969 -29.741674053650897 13.123051065143564 #
straight-curve $-1 72.623065889461969 0 13.123051065143564 0 1 0 I I #
edge $-1 $654 -72.623065889461969 $594 72.623065889461969 $590 $687 forward 7 unknown #
straight-curve $-1 -72.623065889461969 -40.734254829017658 0 0 0 -1 I I #
point $-1 72.623065889461969 -40.734254829017658 13.123051065143564 #
straight-curve $-1 -72.623065889461969 0 13.123051065143564 0 -1 0 I I #
straight-curve $-1 -72.623065889461969 40.734254829017658 0 0 0 -1 I I #
point $-1 -72.623065889461969 30.75898025646957 13.123051065143564 #
straight-curve $-1 -31.275935505920447 30.758980256469574 13.123051065143564 1 0 0 I I #
point $-1 -72.623065889461969 40.734254829017658 13.123051065143564 #
point $-1 -66.868097387964212 32.043144923959154 3.8456964344854252 #
point $-1 -58.235644635717577 32.043144923959154 3.8456964344854252 #
straight-curve $-1 -36.311532944730985 52.516373900795315 13.123051065143557 0 -1 0 I I #
point $-1 -36.311532944730985 40.734254829017658 13.123051065143564 #
straight-curve $-1 -13.120169033554955 30.758980256469574 13.123051065143564 1 0 0 I I #
point $-1 -36.311532944730985 30.75898025646957 13.123051065143564 #
point $-1 -30.556564443233228 32.043144923959154 3.8456964344854252 #
point $-1 -21.924111690986592 32.043144923959154 3.8456964344854252 #
straight-curve $-1 8.8817841970012523e-015 52.516373900795315 13.123051065143557 0 -1 0 I I #
point $-1 8.8817841970012523e-015 40.734254829017658 13.123051065143564 #
straight-curve $-1 5.0355974388105409 30.758980256469574 13.123051065143564 1 0 0 I I #
point $-1 8.8817841970012523e-015 30.75898025646957 13.123051065143564 #
point $-1 5.754968501497757 32.043144923959154 3.8456964344854252 #
point $-1 14.387421253744392 32.043144923959154 3.8456964344854252 #
straight-curve $-1 36.311532944730992 52.516373900795315 13.123051065143557 0 -1 0 I I #
point $-1 36.311532944730992 40.734254829017658 13.123051065143564 #
straight-curve $-1 23.191363911176033 30.758980256469574 13.123051065143564 1 0 0 I I #
point $-1 36.311532944730992 30.75898025646957 13.123051065143564 #
point $-1 42.066501446228742 32.043144923959154 3.8456964344854252 #
point $-1 50.698954198475377 32.043144923959154 3.8456964344854252 #
point $-1 -72.623065889461969 -40.734254829017658 13.123051065143564 #
straight-curve $-1 0 -40.734254829017658 13.123051065143564 1 0 0 I I #
End-of-ACIS-data 