500 0 9 0           
7 Unknown 11 ACIS 5.0 NT 24 Fri Mar 26 14:46:40 1999 
-1 9.9999999999999995e-007 1e-010 
body $-1 $9 $-1 $10 #
body $-1 $11 $-1 $12 #
body $-1 $13 $-1 $14 #
body $-1 $15 $-1 $16 #
body $-1 $17 $-1 $18 #
body $-1 $19 $-1 $20 #
body $-1 $21 $-1 $22 #
body $-1 $23 $-1 $24 #
body $-1 $25 $-1 $26 #
lump $-1 $-1 $27 $0 #
transform $-1 1 0 0 0 1 0 0 0 1 68.730124820703764 29.686916794713724 8.4990996355946518 1 rotate no_reflect no_shear #
lump $-1 $-1 $28 $1 #
transform $-1 1 0 0 0 1 0 0 0 1 68.730124820703764 29.686916794713724 8.4990996355946518 1 rotate no_reflect no_shear #
lump $-1 $-1 $29 $2 #
transform $-1 1 0 0 0 1 0 0 0 1 68.730124820703764 29.686916794713724 8.4990996355946518 1 rotate no_reflect no_shear #
lump $-1 $-1 $30 $3 #
transform $-1 1 0 0 0 1 0 0 0 1 68.730124820703764 29.686916794713724 8.4990996355946518 1 rotate no_reflect no_shear #
lump $-1 $-1 $31 $4 #
transform $-1 1 0 0 0 1 0 0 0 1 68.730124820703764 29.686916794713724 8.4990996355946518 1 rotate no_reflect no_shear #
lump $-1 $-1 $32 $5 #
transform $-1 1 0 0 0 1 0 0 0 1 68.730124820703764 29.686916794713724 8.4990996355946518 1 rotate no_reflect no_shear #
lump $-1 $-1 $33 $6 #
transform $-1 1 0 0 0 1 0 0 0 1 68.730124820703764 29.686916794713724 8.4990996355946518 1 rotate no_reflect no_shear #
lump $-1 $-1 $34 $7 #
transform $-1 1 0 0 0 1 0 0 0 1 68.730124820703764 29.686916794713724 8.4990996355946518 1 rotate no_reflect no_shear #
lump $-1 $-1 $35 $8 #
transform $-1 1 0 0 0 1 0 0 0 1 68.730124820703764 29.686916794713724 8.4990996355946518 1 rotate no_reflect no_shear #
shell $-1 $-1 $-1 $36 $-1 $9 #
shell $-1 $-1 $-1 $37 $-1 $11 #
shell $-1 $-1 $-1 $38 $-1 $13 #
shell $-1 $-1 $-1 $39 $-1 $15 #
shell $-1 $-1 $-1 $40 $-1 $17 #
shell $-1 $-1 $-1 $41 $-1 $19 #
shell $-1 $-1 $-1 $42 $-1 $21 #
shell $-1 $-1 $-1 $43 $-1 $23 #
shell $-1 $-1 $-1 $44 $-1 $25 #
face $-1 $45 $46 $27 $-1 $47 forward single #
face $-1 $48 $49 $28 $-1 $50 forward single #
face $-1 $51 $52 $29 $-1 $53 reversed single #
face $-1 $54 $55 $30 $-1 $56 reversed single #
face $-1 $57 $58 $31 $-1 $59 forward single #
face $-1 $60 $61 $32 $-1 $62 forward single #
face $-1 $63 $64 $33 $-1 $65 reversed single #
face $-1 $66 $67 $34 $-1 $68 forward single #
face $-1 $69 $70 $35 $-1 $71 forward single #
face $-1 $72 $73 $27 $-1 $74 reversed single #
loop $-1 $-1 $75 $36 #
plane-surface $-1 0 0 8.4990996355946518 0 0 1 1 0 0 forward_v I I I I #
face $-1 $76 $77 $28 $-1 $78 reversed single #
loop $-1 $-1 $79 $37 #
plane-surface $-1 0 -29.686916794713724 0 0 1 0 0 0 1 forward_v I I I I #
face $-1 $80 $81 $29 $-1 $82 reversed single #
loop $-1 $-1 $83 $38 #
plane-surface $-1 -66.389766347178352 22.485095117535806 0 0 1 0 0 0 1 forward_v I I I I #
face $-1 $84 $85 $30 $-1 $86 reversed single #
loop $-1 $-1 $87 $39 #
plane-surface $-1 -177.0502808662514 -19.574339597389002 87.453126370537049 0 1 0 -0.78801076186113728 0 0.61566146476048833 forward_v I I I I #
face $-1 $88 $89 $31 $-1 $90 forward single #
loop $-1 $91 $92 $40 #
cone-surface $-1 -65.62457821347401 -16.08476992841544 4.9673205645038125 0.78801076186113728 0 -0.61566146476048833 0.9234921971407325 0 1.182016142791706 1 I I 0 1 1.5 forward I I I I #
face $-1 $93 $94 $32 $-1 $95 forward single #
loop $-1 $96 $97 $41 #
cone-surface $-1 -65.62457821347401 -10.850415424955095 4.9673205645038125 0.78801076186113728 0 -0.61566146476048833 0.9234921971407325 0 1.182016142791706 1 I I 0 1 1.5 forward I I I I #
face $-1 $98 $99 $33 $-1 $100 reversed single #
loop $-1 $-1 $101 $42 #
plane-surface $-1 68.730127076218338 14.208813442105527 196.58775328971231 0 -1 0 -0.70710678939079041 0 -0.70710677298230451 forward_v I I I I #
face $-1 $102 $103 $34 $-1 $104 forward single #
loop $-1 $105 $106 $43 #
cone-surface $-1 64.163396991135969 9.1298043029190765 3.9323717655857426 -0.70710678939079041 0 -0.70710677298230451 0.70710677298230451 0 -0.70710678939079041 1 I I 0 1 1 forward I I I I #
face $-1 $107 $108 $35 $-1 $109 forward single #
loop $-1 $110 $111 $44 #
cone-surface $-1 64.163396991135969 12.17720978643095 3.9323717655857426 -0.70710678939079041 0 -0.70710677298230451 0.70710677298230451 0 -0.70710678939079041 1 I I 0 1 1 forward I I I I #
face $-1 $112 $113 $27 $-1 $114 reversed single #
loop $-1 $-1 $115 $45 #
plane-surface $-1 0 0 -8.4990996355946518 0 0 1 1 0 0 forward_v I I I I #
coedge $-1 $116 $117 $118 $119 forward $46 $-1 #
face $-1 $120 $121 $28 $-1 $122 reversed single #
loop $-1 $-1 $123 $48 #
plane-surface $-1 0 0 -8.4990996355946518 0 0 1 1 0 0 forward_v I I I I #
coedge $-1 $124 $125 $126 $127 forward $49 $-1 #
face $-1 $128 $129 $29 $-1 $130 reversed single #
loop $-1 $-1 $131 $51 #
plane-surface $-1 -64.049407873652939 26.086005956124765 0 -1 0 0 0 0 1 forward_v I I I I #
coedge $-1 $132 $133 $134 $135 reversed $52 $-1 #
face $-1 $136 $137 $30 $-1 $138 reversed single #
loop $-1 $-1 $139 $54 #
plane-surface $-1 -68.730124820703736 -13.467592676685268 2.8241477299657021 -0.78801076186113728 0 0.61566146476048833 0.61566146476048833 0 0.78801076186113728 forward_v I I I I #
coedge $-1 $140 $141 $142 $143 reversed $55 $-1 #
face $-1 $-1 $144 $31 $-1 $145 forward single #
loop $-1 $146 $147 $57 #
cone-surface $-1 -64.14490265107581 -16.08476992841544 3.8112713476570725 0.78801076186113728 0 -0.61566146476048833 0.46174609857036625 0 0.59100807139585299 1 I I -0.70710678118654757 0.70710678118654757 0.75 forward I I I I #
loop $-1 $-1 $148 $40 #
coedge $-1 $92 $92 $149 $150 reversed $58 $-1 #
face $-1 $-1 $151 $32 $-1 $152 forward single #
loop $-1 $153 $154 $60 #
cone-surface $-1 -64.14490265107581 -10.850415424955095 3.8112713476570725 0.78801076186113728 0 -0.61566146476048833 0.46174609857036625 0 0.59100807139585299 1 I I -0.70710678118654757 0.70710678118654757 0.75 forward I I I I #
loop $-1 $-1 $155 $41 #
coedge $-1 $97 $97 $156 $157 reversed $61 $-1 #
face $-1 $158 $159 $33 $-1 $160 reversed single #
loop $-1 $-1 $161 $63 #
plane-surface $-1 -28.468948716573891 10.65350704467501 99.388679752434655 0.70710678939079041 0 0.70710677298230451 0.70710677298230451 0 -0.70710678939079041 forward_v I I I I #
coedge $-1 $162 $163 $164 $165 reversed $64 $-1 #
face $-1 $-1 $166 $34 $-1 $167 forward single #
loop $-1 $168 $169 $66 #
cone-surface $-1 62.397863531642628 9.1298043029190765 2.1668383470617929 -0.70710678939079041 0 -0.70710677298230451 0.35355338649115226 0 -0.35355339469539521 1 I I -0.70710678118654746 0.70710678118654746 0.5 forward I I I I #
loop $-1 $-1 $170 $43 #
coedge $-1 $106 $106 $171 $172 reversed $67 $-1 #
face $-1 $-1 $173 $35 $-1 $174 forward single #
loop $-1 $175 $176 $69 #
cone-surface $-1 62.397863531642628 12.17720978643095 2.1668383470617929 -0.70710678939079041 0 -0.70710677298230451 0.35355338649115226 0 -0.35355339469539521 1 I I -0.70710678118654746 0.70710678118654746 0.5 forward I I I I #
loop $-1 $-1 $177 $44 #
coedge $-1 $111 $111 $178 $179 reversed $70 $-1 #
face $-1 $180 $181 $27 $-1 $182 reversed single #
loop $-1 $-1 $183 $72 #
plane-surface $-1 0 -29.686916794713724 0 0 1 0 0 0 1 forward_v I I I I #
coedge $-1 $184 $185 $186 $187 forward $73 $-1 #
coedge $-1 $188 $75 $189 $190 forward $46 $-1 #
coedge $-1 $75 $188 $191 $192 forward $46 $-1 #
coedge $-1 $193 $194 $75 $119 reversed $195 $-1 #
edge $-1 $196 -29.686916794713724 $197 29.686916794713724 $118 $198 forward 7 unknown #
face $-1 $199 $200 $28 $-1 $201 forward single #
loop $-1 $-1 $202 $76 #
plane-surface $-1 68.730124820703764 0 0 -1 0 0 0 0 1 forward_v I I I I #
coedge $-1 $203 $204 $205 $206 forward $77 $-1 #
coedge $-1 $205 $79 $202 $207 reversed $49 $-1 #
coedge $-1 $79 $205 $208 $209 reversed $49 $-1 #
coedge $-1 $210 $211 $79 $127 reversed $200 $-1 #
edge $-1 $212 -68.730124820703764 $213 68.730124820703764 $126 $214 forward 7 unknown #
face $-1 $215 $216 $29 $-1 $217 reversed single #
loop $-1 $-1 $218 $80 #
plane-surface $-1 0 29.686916794713724 0 0 -1 0 0 0 -1 forward_v I I I I #
coedge $-1 $219 $220 $221 $222 forward $81 $-1 #
coedge $-1 $221 $83 $223 $224 reversed $52 $-1 #
coedge $-1 $83 $221 $225 $226 reversed $52 $-1 #
coedge $-1 $227 $228 $83 $135 forward $229 $-1 #
edge $-1 $230 -8.4990996355946518 $231 8.4990996355946518 $134 $232 forward 7 unknown #
face $-1 $233 $234 $30 $-1 $235 reversed single #
loop $-1 $-1 $236 $84 #
plane-surface $-1 -177.0502808662514 -7.3608457559815337 87.453126370537049 0 -1 0 0.78801076186113728 0 -0.61566146476048833 forward_v I I I I #
coedge $-1 $237 $238 $239 $240 reversed $85 $-1 #
coedge $-1 $141 $87 $241 $242 reversed $55 $-1 #
coedge $-1 $87 $140 $237 $243 reversed $55 $-1 #
coedge $-1 $239 $244 $87 $143 forward $245 $-1 #
edge $-1 $246 19.795015612421935 $247 24.228773844876827 $142 $248 forward 7 unknown #
loop $-1 $-1 $149 $88 #
plane-surface $-1 -68.730124820703736 -13.467592676685268 2.8241477299657021 -0.78801076186113728 0 0.61566146476048833 0.61566146476048833 0 0.78801076186113728 forward_v I I I I #
loop $-1 $-1 $249 $57 #
coedge $-1 $147 $147 $148 $250 reversed $89 $-1 #
coedge $-1 $148 $148 $147 $250 forward $91 $-1 #
coedge $-1 $149 $149 $92 $150 forward $144 $-1 #
edge $-1 $251 0 $251 6.2831853071796004 $149 $252 forward 7 unknown #
loop $-1 $-1 $156 $93 #
plane-surface $-1 -68.730124820703736 -13.467592676685268 2.8241477299657021 -0.78801076186113728 0 0.61566146476048833 0.61566146476048833 0 0.78801076186113728 forward_v I I I I #
loop $-1 $-1 $253 $60 #
coedge $-1 $154 $154 $155 $254 reversed $94 $-1 #
coedge $-1 $155 $155 $154 $254 forward $96 $-1 #
coedge $-1 $156 $156 $97 $157 forward $151 $-1 #
edge $-1 $255 0 $255 6.2831853071796004 $156 $256 forward 7 unknown #
face $-1 $257 $258 $33 $-1 $259 forward single #
loop $-1 $-1 $260 $98 #
plane-surface $-1 68.730127076218338 7.098200647244493 196.58775328971231 0 1 0 0.70710678939079041 0 0.70710677298230451 forward_v I I I I #
coedge $-1 $261 $262 $263 $264 reversed $99 $-1 #
coedge $-1 $163 $101 $265 $266 reversed $64 $-1 #
coedge $-1 $101 $162 $261 $267 reversed $64 $-1 #
coedge $-1 $263 $268 $101 $165 forward $258 $-1 #
edge $-1 $269 -34.365061282594596 $270 -28.055565753054879 $164 $271 forward 7 unknown #
loop $-1 $-1 $171 $102 #
plane-surface $-1 -28.468948716573891 10.65350704467501 99.388679752434655 0.70710678939079041 0 0.70710677298230451 0.70710677298230451 0 -0.70710678939079041 forward_v I I I I #
loop $-1 $-1 $272 $66 #
coedge $-1 $169 $169 $170 $273 reversed $103 $-1 #
coedge $-1 $170 $170 $169 $273 forward $105 $-1 #
coedge $-1 $171 $171 $106 $172 forward $166 $-1 #
edge $-1 $274 0 $274 6.2831853071796004 $171 $275 forward 7 unknown #
loop $-1 $-1 $178 $107 #
plane-surface $-1 -28.468948716573891 10.65350704467501 99.388679752434655 0.70710678939079041 0 0.70710677298230451 0.70710677298230451 0 -0.70710678939079041 forward_v I I I I #
loop $-1 $-1 $276 $69 #
coedge $-1 $176 $176 $177 $277 reversed $108 $-1 #
coedge $-1 $177 $177 $176 $277 forward $110 $-1 #
coedge $-1 $178 $178 $111 $179 forward $173 $-1 #
edge $-1 $278 0 $278 6.2831853071796004 $178 $279 forward 7 unknown #
face $-1 $280 $281 $27 $-1 $282 reversed single #
loop $-1 $-1 $283 $112 #
plane-surface $-1 -68.730124820703764 0 0 1 0 0 0 0 -1 forward_v I I I I #
coedge $-1 $191 $284 $193 $285 reversed $113 $-1 #
coedge $-1 $286 $115 $284 $287 forward $73 $-1 #
coedge $-1 $115 $286 $288 $289 forward $73 $-1 #
coedge $-1 $194 $193 $115 $187 reversed $195 $-1 #
edge $-1 $290 -29.686916794713724 $291 29.686916794713724 $186 $292 forward 7 unknown #
coedge $-1 $117 $116 $293 $294 forward $46 $-1 #
coedge $-1 $295 $296 $116 $190 reversed $281 $-1 #
edge $-1 $197 -68.730124820703764 $297 68.730124820703764 $189 $298 forward 7 unknown #
coedge $-1 $299 $183 $117 $192 reversed $113 $-1 #
edge $-1 $300 -68.730124820703764 $196 68.730124820703764 $191 $301 forward 7 unknown #
coedge $-1 $186 $118 $183 $285 forward $195 $-1 #
coedge $-1 $118 $186 $295 $302 reversed $195 $-1 #
loop $-1 $-1 $193 $280 #
vertex $-1 $119 $303 #
vertex $-1 $119 $304 #
straight-curve $-1 68.730124820703764 0 8.4990996355946518 0 1 0 I I #
face $-1 $305 $306 $28 $-1 $307 reversed single #
loop $-1 $-1 $211 $120 #
plane-surface $-1 0 -34.743205393376087 -5.4990996355946518 0 0 1 1 0 0 forward_v I I I I #
coedge $-1 $308 $309 $124 $207 forward $121 $-1 #
coedge $-1 $310 $123 $309 $311 forward $77 $-1 #
coedge $-1 $123 $310 $312 $313 forward $77 $-1 #
coedge $-1 $125 $124 $123 $206 reversed $49 $-1 #
edge $-1 $314 -68.730124820703764 $315 68.730124820703764 $123 $316 forward 7 unknown #
edge $-1 $315 -8.4990996355946518 $213 -5.4990996355946518 $202 $317 forward 7 unknown #
coedge $-1 $312 $318 $125 $209 forward $319 $-1 #
edge $-1 $212 5.4990996355946518 $314 8.4990996355946518 $208 $320 forward 7 unknown #
coedge $-1 $321 $126 $318 $322 forward $200 $-1 #
coedge $-1 $126 $321 $308 $323 forward $200 $-1 #
vertex $-1 $209 $324 #
vertex $-1 $323 $325 #
straight-curve $-1 0 -29.686916794713724 -5.4990996355946518 1 0 0 I I #
face $-1 $326 $327 $29 $-1 $328 forward single #
loop $-1 $-1 $329 $128 #
plane-surface $-1 0 0 -8.4990996355946518 0 0 1 1 0 0 forward_v I I I I #
coedge $-1 $330 $331 $332 $333 forward $129 $-1 #
coedge $-1 $332 $131 $329 $334 reversed $81 $-1 #
coedge $-1 $131 $332 $335 $336 reversed $81 $-1 #
coedge $-1 $133 $132 $131 $222 reversed $52 $-1 #
edge $-1 $337 -8.4990996355946518 $338 8.4990996355946518 $131 $339 forward 7 unknown #
coedge $-1 $340 $329 $132 $224 forward $216 $-1 #
edge $-1 $338 30.854524700063763 $230 35.535241647114589 $223 $341 forward 7 unknown #
coedge $-1 $335 $342 $133 $226 forward $327 $-1 #
edge $-1 $231 -35.535241647114589 $337 -30.854524700063763 $225 $343 forward 7 unknown #
coedge $-1 $344 $134 $342 $345 reversed $229 $-1 #
coedge $-1 $134 $344 $340 $346 reversed $229 $-1 #
loop $-1 $-1 $134 $326 #
vertex $-1 $346 $347 #
vertex $-1 $135 $348 #
straight-curve $-1 -68.730124820703764 22.485095117535806 0 0 0 1 I I #
face $-1 $-1 $245 $30 $-1 $349 forward single #
loop $-1 $-1 $350 $136 #
plane-surface $-1 -68.730124820703764 0 0 1 0 0 0 0 -1 forward_v I I I I #
coedge $-1 $351 $352 $353 $354 reversed $137 $-1 #
coedge $-1 $355 $139 $141 $243 forward $85 $-1 #
coedge $-1 $139 $355 $351 $356 forward $85 $-1 #
coedge $-1 $353 $142 $139 $240 forward $245 $-1 #
edge $-1 $247 -12.840543259046369 $357 -0.62704941763889988 $239 $358 forward 7 unknown #
coedge $-1 $359 $360 $140 $242 forward $234 $-1 #
edge $-1 $361 -40.902415455302858 $246 -35.227463549673871 $241 $362 forward 7 unknown #
edge $-1 $247 -7.2016172624670158 $361 4.6193811539156697e-014 $141 $363 forward 7 unknown #
coedge $-1 $142 $353 $359 $364 forward $245 $-1 #
loop $-1 $-1 $353 $233 #
vertex $-1 $242 $365 #
vertex $-1 $143 $366 #
straight-curve $-1 -88.525140433125699 -19.574339597389002 8.4990996355946535 1 0 0 I I #
coedge $-1 $249 $249 $-1 $367 reversed $146 $-1 #
edge $-1 $368 0 $368 6.2831853071796004 $147 $369 forward 7 unknown #
vertex $-1 $150 $370 #
ellipse-curve $-1 -66.513245704476319 -16.08476992841544 5.6616236827801618 -0.78801076186113728 0 0.61566146476048833 0.9234921971407325 0 1.182016142791706 1 I I #
coedge $-1 $253 $253 $-1 $371 reversed $153 $-1 #
edge $-1 $372 0 $372 6.2831853071796004 $154 $373 forward 7 unknown #
vertex $-1 $157 $374 #
ellipse-curve $-1 -66.513245704476319 -10.850415424955095 5.6616236827801618 -0.78801076186113728 0 0.61566146476048833 0.9234921971407325 0 1.182016142791706 1 I I #
face $-1 $-1 $375 $33 $-1 $376 reversed single #
loop $-1 $-1 $164 $158 #
plane-surface $-1 0 0 8.4990996355946518 0 0 1 1 0 0 forward_v I I I I #
coedge $-1 $377 $378 $379 $380 reversed $159 $-1 #
coedge $-1 $381 $161 $163 $267 forward $99 $-1 #
coedge $-1 $161 $381 $377 $382 forward $99 $-1 #
coedge $-1 $379 $164 $161 $264 forward $258 $-1 #
edge $-1 $270 -8.8820599197680217 $383 -1.7714471249069881 $263 $384 forward 7 unknown #
coedge $-1 $385 $386 $162 $266 forward $375 $-1 #
edge $-1 $387 -96.104272685213729 $269 -89.794777009261509 $265 $388 forward 7 unknown #
edge $-1 $270 128.53727538827081 $387 137.46024964140756 $163 $389 forward 7 unknown #
coedge $-1 $164 $379 $385 $390 forward $258 $-1 #
vertex $-1 $266 $391 #
vertex $-1 $165 $392 #
straight-curve $-1 34.365063538109169 14.208813442105527 8.4990996355946464 -1 0 0 I I #
coedge $-1 $272 $272 $-1 $393 reversed $168 $-1 #
edge $-1 $394 0 $394 6.2831853071796004 $169 $395 forward 7 unknown #
vertex $-1 $172 $396 #
ellipse-curve $-1 65.575377055933913 9.1298043029190765 5.3443517976185397 0.70710678939079041 0 0.70710677298230451 0.70710677298230451 0 -0.70710678939079041 1 I I #
coedge $-1 $276 $276 $-1 $397 reversed $175 $-1 #
edge $-1 $398 0 $398 6.2831853071796004 $176 $399 forward 7 unknown #
vertex $-1 $179 $400 #
ellipse-curve $-1 65.575377055933913 12.17720978643095 5.3443517976185397 0.70710678939079041 0 0.70710677298230451 0.70710677298230451 0 -0.70710678939079041 1 I I #
face $-1 $-1 $195 $27 $-1 $401 reversed single #
loop $-1 $-1 $295 $180 #
plane-surface $-1 0 29.686916794713724 0 0 -1 0 0 0 -1 forward_v I I I I #
coedge $-1 $402 $293 $296 $403 forward $181 $-1 #
coedge $-1 $183 $299 $184 $287 reversed $113 $-1 #
edge $-1 $196 -8.4990996355946518 $291 8.4990996355946518 $193 $404 forward 7 unknown #
coedge $-1 $185 $184 $402 $405 forward $73 $-1 #
edge $-1 $291 -68.730124820703764 $406 68.730124820703764 $284 $407 forward 7 unknown #
coedge $-1 $296 $295 $185 $289 reversed $281 $-1 #
edge $-1 $408 -68.730124820703764 $290 68.730124820703764 $288 $409 forward 7 unknown #
vertex $-1 $187 $410 #
vertex $-1 $285 $411 #
straight-curve $-1 68.730124820703764 0 -8.4990996355946518 0 -1 0 I I #
coedge $-1 $283 $412 $188 $294 reversed $181 $-1 #
edge $-1 $297 -29.686916794713724 $300 29.686916794713724 $293 $413 forward 7 unknown #
coedge $-1 $288 $189 $194 $302 forward $281 $-1 #
coedge $-1 $189 $288 $283 $403 reversed $281 $-1 #
vertex $-1 $190 $414 #
straight-curve $-1 0 29.686916794713724 8.4990996355946518 -1 0 0 I I #
coedge $-1 $284 $191 $412 $415 forward $113 $-1 #
vertex $-1 $294 $416 #
straight-curve $-1 0 -29.686916794713724 8.4990996355946518 1 0 0 I I #
edge $-1 $197 -8.4990996355946518 $290 8.4990996355946518 $194 $417 forward 7 unknown #
point $-1 68.730124820703764 -29.686916794713724 8.4990996355946518 #
point $-1 68.730124820703764 29.686916794713724 8.4990996355946518 #
face $-1 $-1 $319 $28 $-1 $418 reversed single #
loop $-1 $-1 $419 $199 #
plane-surface $-1 0 -39.79949399203845 -6.9990996355946518 0 1 0 0 0 1 forward_v I I I I #
coedge $-1 $420 $202 $211 $323 reversed $121 $-1 #
coedge $-1 $202 $420 $203 $311 reversed $121 $-1 #
coedge $-1 $204 $203 $421 $422 forward $77 $-1 #
edge $-1 $315 29.686916794713724 $423 39.79949399203845 $309 $424 forward 7 unknown #
coedge $-1 $425 $208 $204 $313 reversed $319 $-1 #
edge $-1 $426 -39.79949399203845 $314 -29.686916794713724 $312 $427 forward 7 unknown #
vertex $-1 $209 $428 #
vertex $-1 $311 $429 #
straight-curve $-1 0 -29.686916794713724 -8.4990996355946518 1 0 0 I I #
straight-curve $-1 68.730124820703764 -29.686916794713724 0 0 0 1 I I #
coedge $-1 $208 $425 $210 $322 reversed $319 $-1 #
loop $-1 $-1 $208 $305 #
straight-curve $-1 -68.730124820703764 -29.686916794713724 0 0 0 -1 I I #
coedge $-1 $211 $210 $430 $431 forward $200 $-1 #
edge $-1 $212 -5.0562885986623627 $432 5.0562885986623627 $318 $433 forward 7 unknown #
edge $-1 $434 -5.0562885986623627 $213 5.0562885986623627 $308 $435 forward 7 unknown #
point $-1 -68.730124820703764 -29.686916794713724 -5.4990996355946518 #
point $-1 68.730124820703764 -29.686916794713724 -5.4990996355946518 #
face $-1 $-1 $229 $29 $-1 $436 reversed single #
loop $-1 $-1 $335 $215 #
plane-surface $-1 0 0 8.4990996355946518 0 0 1 1 0 0 forward_v I I I I #
coedge $-1 $223 $437 $219 $334 forward $216 $-1 #
coedge $-1 $438 $218 $437 $439 reversed $129 $-1 #
coedge $-1 $218 $438 $440 $441 reversed $129 $-1 #
coedge $-1 $220 $219 $218 $333 reversed $81 $-1 #
edge $-1 $442 -8.4990996355946518 $443 8.4990996355946518 $218 $444 forward 7 unknown #
edge $-1 $443 -16.643913816651342 $338 -9.4420921394734236 $329 $445 forward 7 unknown #
coedge $-1 $440 $225 $220 $336 forward $327 $-1 #
edge $-1 $337 9.4420921394734236 $442 16.643913816651342 $335 $446 forward 7 unknown #
vertex $-1 $226 $447 #
vertex $-1 $224 $448 #
straight-curve $-1 -64.049407873652939 22.485095117535806 0 0 0 -1 I I #
coedge $-1 $437 $223 $228 $346 forward $216 $-1 #
straight-curve $-1 -33.194883173589176 22.485095117535806 -8.4990996355946518 -1 0 0 I I #
coedge $-1 $225 $440 $227 $345 forward $327 $-1 #
straight-curve $-1 -33.194883173589176 22.485095117535806 8.4990996355946518 1 0 0 I I #
coedge $-1 $228 $227 $438 $449 forward $229 $-1 #
edge $-1 $450 -29.686916794713724 $231 -22.485095117535806 $227 $451 forward 7 unknown #
edge $-1 $230 22.485095117535806 $452 29.686916794713724 $228 $453 forward 7 unknown #
point $-1 -68.730124820703764 22.485095117535806 -8.4990996355946518 #
point $-1 -68.730124820703764 22.485095117535806 8.4990996355946518 #
plane-surface $-1 0 0 8.4990996355946518 0 0 1 1 0 0 forward_v I I I I #
coedge $-1 $360 $359 $352 $454 forward $234 $-1 #
coedge $-1 $352 $236 $238 $356 reversed $137 $-1 #
coedge $-1 $236 $351 $350 $454 reversed $137 $-1 #
coedge $-1 $244 $239 $236 $354 forward $245 $-1 #
edge $-1 $357 -24.228773844876827 $455 -19.795015612421935 $353 $456 forward 7 unknown #
coedge $-1 $238 $237 $360 $457 reversed $85 $-1 #
edge $-1 $458 -4.6193811539156697e-014 $357 7.2016172624670158 $351 $459 forward 7 unknown #
vertex $-1 $240 $460 #
straight-curve $-1 -64.296366588248887 -6.7337963383426338 8.49909963559465 0 1 0 I I #
coedge $-1 $350 $241 $244 $364 reversed $234 $-1 #
coedge $-1 $241 $350 $355 $457 forward $234 $-1 #
vertex $-1 $242 $461 #
straight-curve $-1 -68.730124820703764 -19.574339597389002 43.726563185268525 0 0 1 I I #
straight-curve $-1 -68.730124820703736 -19.574339597389002 2.8241477299657021 -0.61566146476048833 0 -0.78801076186113728 I I #
edge $-1 $455 7.3608457559815337 $246 19.574339597389002 $359 $462 forward 7 unknown #
point $-1 -68.730124820703764 -19.574339597389002 8.4990996355946518 #
point $-1 -64.296366588248873 -19.574339597389002 8.4990996355946518 #
edge $-1 $463 1 $463 0 $249 $-1 forward 7 unknown #
vertex $-1 $250 $464 #
ellipse-curve $-1 -64.735910722471658 -16.08476992841544 4.2730174462274384 -0.78801076186113728 0 0.61566146476048833 0.9234921971407325 0 1.182016142791706 1 I I #
point $-1 -65.589753507335615 -16.08476992841544 6.8436398255718931 #
edge $-1 $465 1 $465 0 $253 $-1 forward 7 unknown #
vertex $-1 $254 $466 #
ellipse-curve $-1 -64.735910722471658 -10.850415424955095 4.2730174462274384 -0.78801076186113728 0 0.61566146476048833 0.9234921971407325 0 1.182016142791706 1 I I #
point $-1 -65.589753507335615 -10.850415424955095 6.8436398255718931 #
loop $-1 $-1 $265 $257 #
plane-surface $-1 68.730124820703764 0 0 -1 0 0 0 0 1 forward_v I I I I #
coedge $-1 $378 $260 $262 $382 reversed $159 $-1 #
coedge $-1 $260 $377 $467 $468 reversed $159 $-1 #
coedge $-1 $268 $263 $260 $380 forward $258 $-1 #
edge $-1 $383 28.055565753054879 $469 34.365061282594596 $379 $470 forward 7 unknown #
coedge $-1 $262 $261 $386 $471 reversed $99 $-1 #
edge $-1 $472 -137.46024964140756 $383 -128.53727538827081 $377 $473 forward 7 unknown #
vertex $-1 $264 $474 #
straight-curve $-1 62.42062929116404 5.3267535223375049 8.4990996355946464 0 -1 0 I I #
coedge $-1 $467 $265 $268 $390 reversed $375 $-1 #
coedge $-1 $265 $467 $381 $471 forward $375 $-1 #
vertex $-1 $266 $475 #
straight-curve $-1 68.730124820703764 14.208813442105527 98.293876644856155 0 0 1 I I #
straight-curve $-1 -28.468948716573891 14.208813442105527 99.388679752434655 0.70710677298230451 0 -0.70710678939079041 I I #
edge $-1 $469 7.098200647244493 $269 14.208813442105527 $385 $476 forward 7 unknown #
point $-1 68.730124820703764 14.208813442105527 8.4990996355946518 #
point $-1 62.420629291164047 14.208813442105527 8.4990996355946464 #
edge $-1 $477 1 $477 0 $272 $-1 forward 7 unknown #
vertex $-1 $273 $478 #
ellipse-curve $-1 62.751416926338024 9.1298043029190765 2.5203917335529451 0.70710678939079041 0 0.70710677298230451 0.70710677298230451 0 -0.70710678939079041 1 I I #
point $-1 66.282483828916213 9.1298043029190765 4.6372450082277492 #
edge $-1 $479 1 $479 0 $276 $-1 forward 7 unknown #
vertex $-1 $277 $480 #
ellipse-curve $-1 62.751416926338024 12.17720978643095 2.5203917335529451 0.70710678939079041 0 0.70710677298230451 0.70710677298230451 0 -0.70710678939079041 1 I I #
point $-1 66.282483828916213 12.17720978643095 4.6372450082277492 #
plane-surface $-1 68.730124820703764 0 0 -1 0 0 0 0 1 forward_v I I I I #
coedge $-1 $412 $283 $286 $405 reversed $181 $-1 #
edge $-1 $297 -8.4990996355946518 $408 8.4990996355946518 $296 $481 forward 7 unknown #
straight-curve $-1 68.730124820703764 -29.686916794713724 0 0 0 -1 I I #
edge $-1 $406 -29.686916794713724 $408 29.686916794713724 $402 $482 forward 7 unknown #
vertex $-1 $405 $483 #
straight-curve $-1 0 -29.686916794713724 -8.4990996355946518 -1 0 0 I I #
vertex $-1 $289 $484 #
straight-curve $-1 0 29.686916794713724 -8.4990996355946518 1 0 0 I I #
point $-1 68.730124820703764 29.686916794713724 -8.4990996355946518 #
point $-1 68.730124820703764 -29.686916794713724 -8.4990996355946518 #
coedge $-1 $293 $402 $299 $415 reversed $181 $-1 #
straight-curve $-1 -68.730124820703764 0 8.4990996355946518 0 -1 0 I I #
point $-1 -68.730124820703764 29.686916794713724 8.4990996355946518 #
edge $-1 $300 -8.4990996355946518 $406 8.4990996355946518 $412 $485 forward 7 unknown #
point $-1 -68.730124820703764 -29.686916794713724 8.4990996355946518 #
straight-curve $-1 68.730124820703764 29.686916794713724 0 0 0 -1 I I #
plane-surface $-1 -68.730124820703764 0 0 1 0 0 0 0 -1 forward_v I I I I #
coedge $-1 $421 $430 $425 $486 forward $306 $-1 #
coedge $-1 $309 $308 $487 $488 forward $121 $-1 #
coedge $-1 $487 $419 $310 $422 reversed $306 $-1 #
edge $-1 $423 -68.730124820703764 $426 68.730124820703764 $421 $489 forward 7 unknown #
vertex $-1 $488 $490 #
straight-curve $-1 68.730124820703764 0 -8.4990996355946518 0 -1 0 I I #
coedge $-1 $318 $312 $419 $486 reversed $319 $-1 #
vertex $-1 $313 $491 #
straight-curve $-1 -68.730124820703764 0 -8.4990996355946518 0 1 0 I I #
point $-1 -68.730124820703764 -29.686916794713724 -8.4990996355946518 #
point $-1 68.730124820703764 -29.686916794713724 -8.4990996355946518 #
coedge $-1 $419 $487 $321 $431 reversed $306 $-1 #
edge $-1 $432 -68.730124820703764 $434 68.730124820703764 $430 $492 forward 7 unknown #
vertex $-1 $322 $493 #
straight-curve $-1 -68.730124820703764 -34.743205393376087 -5.4990996355946518 0 -1 0 I I #
vertex $-1 $323 $494 #
straight-curve $-1 68.730124820703764 -34.743205393376087 -5.4990996355946518 0 1 0 I I #
plane-surface $-1 -68.730124820703764 0 0 1 0 0 0 0 -1 forward_v I I I I #
coedge $-1 $329 $340 $330 $439 forward $216 $-1 #
coedge $-1 $331 $330 $344 $449 reversed $129 $-1 #
edge $-1 $452 -68.730124820703764 $443 -64.049407873652939 $330 $495 forward 7 unknown #
coedge $-1 $342 $335 $331 $441 forward $327 $-1 #
edge $-1 $442 64.049407873652939 $450 68.730124820703764 $331 $496 forward 7 unknown #
vertex $-1 $441 $497 #
vertex $-1 $334 $498 #
straight-curve $-1 -64.049407873652939 29.686916794713724 0 0 0 -1 I I #
straight-curve $-1 -64.049407873652939 13.043002978062383 -8.4990996355946518 0 -1 0 I I #
straight-curve $-1 -64.049407873652939 13.043002978062383 8.4990996355946518 0 1 0 I I #
point $-1 -64.049407873652939 22.485095117535806 8.4990996355946518 #
point $-1 -64.049407873652939 22.485095117535806 -8.4990996355946518 #
edge $-1 $450 -8.4990996355946518 $452 8.4990996355946518 $438 $499 forward 7 unknown #
vertex $-1 $441 $500 #
straight-curve $-1 -68.730124820703764 0 8.4990996355946518 0 -1 0 I I #
vertex $-1 $439 $501 #
straight-curve $-1 -68.730124820703764 0 -8.4990996355946518 0 1 0 I I #
edge $-1 $455 35.227463549673871 $458 40.902415455302858 $350 $502 forward 7 unknown #
vertex $-1 $364 $503 #
straight-curve $-1 -88.525140433125699 -7.3608457559815337 8.4990996355946535 -1 0 0 I I #
edge $-1 $458 0.62704941763889988 $361 12.840543259046369 $360 $504 forward 7 unknown #
vertex $-1 $457 $505 #
straight-curve $-1 -68.730124820703736 -7.3608457559815337 2.8241477299657021 0.61566146476048833 0 0.78801076186113728 I I #
point $-1 -64.296366588248873 -7.3608457559815337 8.4990996355946518 #
point $-1 -68.730124820703764 -19.574339597389002 2.8241477299656657 #
straight-curve $-1 -68.730124820703764 0 8.4990996355946518 0 -1 0 I I #
vertex $-1 $367 $506 #
point $-1 -63.812418525330934 -16.08476992841544 5.4550335890191448 #
vertex $-1 $371 $507 #
point $-1 -63.812418525330934 -10.850415424955095 5.4550335890191448 #
coedge $-1 $386 $385 $378 $468 forward $375 $-1 #
edge $-1 $469 89.794777009261509 $472 96.104272685213729 $467 $508 forward 7 unknown #
vertex $-1 $390 $509 #
straight-curve $-1 34.365063538109169 7.098200647244493 8.4990996355946464 1 0 0 I I #
edge $-1 $472 1.7714471249069881 $387 8.8820599197680217 $386 $510 forward 7 unknown #
vertex $-1 $471 $511 #
straight-curve $-1 -28.468948716573891 7.098200647244493 99.388679752434655 -0.70710677298230451 0 0.70710678939079041 I I #
point $-1 62.420629291164047 7.098200647244493 8.4990996355946464 #
point $-1 68.730124820703764 14.208813442105527 2.1896039596424259 #
straight-curve $-1 68.730124820703764 0 8.4990996355946518 0 1 0 I I #
vertex $-1 $393 $512 #
point $-1 63.458523699320324 9.1298043029190765 1.8132849441621548 #
vertex $-1 $397 $513 #
point $-1 63.458523699320324 12.17720978643095 1.8132849441621548 #
straight-curve $-1 -68.730124820703764 29.686916794713724 0 0 0 -1 I I #
straight-curve $-1 -68.730124820703764 0 -8.4990996355946518 0 1 0 I I #
point $-1 -68.730124820703764 -29.686916794713724 -8.4990996355946518 #
point $-1 -68.730124820703764 29.686916794713724 -8.4990996355946518 #
straight-curve $-1 -68.730124820703764 -29.686916794713724 0 0 0 -1 I I #
edge $-1 $432 -1.5 $426 1.5 $425 $514 forward 7 unknown #
coedge $-1 $430 $421 $420 $488 reversed $306 $-1 #
edge $-1 $434 -1.5 $423 1.5 $420 $515 forward 7 unknown #
straight-curve $-1 0 -39.79949399203845 -8.4990996355946518 -1 0 0 I I #
point $-1 68.730124820703764 -39.79949399203845 -8.4990996355946518 #
point $-1 -68.730124820703764 -39.79949399203845 -8.4990996355946518 #
straight-curve $-1 0 -39.79949399203845 -5.4990996355946518 1 0 0 I I #
point $-1 -68.730124820703764 -39.79949399203845 -5.4990996355946518 #
point $-1 68.730124820703764 -39.79949399203845 -5.4990996355946518 #
straight-curve $-1 0 29.686916794713724 -8.4990996355946518 1 0 0 I I #
straight-curve $-1 0 29.686916794713724 8.4990996355946518 -1 0 0 I I #
point $-1 -64.049407873652939 29.686916794713724 8.4990996355946518 #
point $-1 -64.049407873652939 29.686916794713724 -8.4990996355946518 #
straight-curve $-1 -68.730124820703764 29.686916794713724 0 0 0 -1 I I #
point $-1 -68.730124820703764 29.686916794713724 8.4990996355946518 #
point $-1 -68.730124820703764 29.686916794713724 -8.4990996355946518 #
straight-curve $-1 -68.730124820703764 -7.3608457559815337 43.726563185268525 0 0 -1 I I #
point $-1 -68.730124820703764 -7.3608457559815337 8.4990996355946518 #
straight-curve $-1 -68.730124820703764 -6.7337963383426338 2.8241477299656639 0 -1 0 I I #
point $-1 -68.730124820703764 -7.3608457559815337 2.8241477299656657 #
point $-1 -63.553894579679955 -16.08476992841544 3.3495252490867062 #
point $-1 -63.553894579679955 -10.850415424955095 3.3495252490867062 #
straight-curve $-1 68.730124820703764 7.098200647244493 98.293876644856155 0 0 -1 I I #
point $-1 68.730124820703764 7.098200647244493 8.4990996355946518 #
straight-curve $-1 68.730124820703764 5.3267535223375049 2.189603959642433 0 1 0 I I #
point $-1 68.730124820703764 7.098200647244493 2.1896039596424259 #
point $-1 62.044310136947232 9.1298043029190765 1.8132849605706407 #
point $-1 62.044310136947232 12.17720978643095 1.8132849605706407 #
straight-curve $-1 -68.730124820703764 -39.79949399203845 -6.9990996355946518 0 0 -1 I I #
straight-curve $-1 68.730124820703764 -39.79949399203845 -6.9990996355946518 0 0 -1 I I #
End-of-ACIS-data 