500 0 10 0           
7 Unknown 11 ACIS 5.0 NT 24 Thu Mar 25 15:33:26 1999 
-1 9.9999999999999995e-007 1e-010 
body $-1 $10 $-1 $11 #
body $-1 $12 $-1 $13 #
body $-1 $14 $-1 $15 #
body $-1 $16 $-1 $17 #
body $-1 $18 $-1 $19 #
body $-1 $20 $-1 $21 #
body $-1 $22 $-1 $23 #
body $-1 $24 $-1 $25 #
body $-1 $26 $-1 $27 #
body $-1 $28 $-1 $29 #
lump $-1 $-1 $30 $0 #
transform $-1 1 0 0 0 1 0 0 0 1 46.239204077272866 24.88057810504559 10.328397457821929 1 rotate no_reflect no_shear #
lump $-1 $-1 $31 $1 #
transform $-1 1 0 0 0 1 0 0 0 1 46.239204077272866 24.88057810504559 10.328397457821929 1 rotate no_reflect no_shear #
lump $-1 $-1 $32 $2 #
transform $-1 1 0 0 0 1 0 0 0 1 46.239204077272866 24.88057810504559 10.328397457821929 1 rotate no_reflect no_shear #
lump $-1 $-1 $33 $3 #
transform $-1 1 0 0 0 1 0 0 0 1 46.239204077272866 24.88057810504559 10.328397457821929 1 rotate no_reflect no_shear #
lump $-1 $-1 $34 $4 #
transform $-1 1 0 0 0 1 0 0 0 1 46.239204077272866 24.88057810504559 10.328397457821929 1 rotate no_reflect no_shear #
lump $-1 $-1 $35 $5 #
transform $-1 1 0 0 0 1 0 0 0 1 46.239204077272866 24.88057810504559 10.328397457821929 1 rotate no_reflect no_shear #
lump $-1 $-1 $36 $6 #
transform $-1 1 0 0 0 1 0 0 0 1 46.239204077272866 24.88057810504559 10.328397457821929 1 rotate no_reflect no_shear #
lump $-1 $-1 $37 $7 #
transform $-1 1 0 0 0 1 0 0 0 1 46.239204077272866 24.88057810504559 10.328397457821929 1 rotate no_reflect no_shear #
lump $-1 $-1 $38 $8 #
transform $-1 1 0 0 0 1 0 0 0 1 46.239204077272866 24.88057810504559 10.328397457821929 1 rotate no_reflect no_shear #
lump $-1 $-1 $39 $9 #
transform $-1 1 0 0 0 1 0 0 0 1 46.239204077272866 24.88057810504559 10.328397457821929 1 rotate no_reflect no_shear #
shell $-1 $-1 $-1 $40 $-1 $10 #
shell $-1 $-1 $-1 $41 $-1 $12 #
shell $-1 $-1 $-1 $42 $-1 $14 #
shell $-1 $-1 $-1 $43 $-1 $16 #
shell $-1 $-1 $-1 $44 $-1 $18 #
shell $-1 $-1 $-1 $45 $-1 $20 #
shell $-1 $-1 $-1 $46 $-1 $22 #
shell $-1 $-1 $-1 $47 $-1 $24 #
shell $-1 $-1 $-1 $48 $-1 $26 #
shell $-1 $-1 $-1 $49 $-1 $28 #
face $-1 $50 $51 $30 $-1 $52 forward single #
face $-1 $53 $54 $31 $-1 $55 forward single #
face $-1 $56 $57 $32 $-1 $58 reversed single #
face $-1 $59 $60 $33 $-1 $61 forward single #
face $-1 $62 $63 $34 $-1 $64 forward single #
face $-1 $65 $66 $35 $-1 $67 forward single #
face $-1 $68 $69 $36 $-1 $70 reversed single #
face $-1 $71 $72 $37 $-1 $73 forward single #
face $-1 $74 $75 $38 $-1 $76 forward single #
face $-1 $77 $78 $39 $-1 $79 forward single #
face $-1 $80 $81 $30 $-1 $82 reversed single #
loop $-1 $-1 $83 $40 #
plane-surface $-1 0 0 10.328397457821929 0 0 1 1 0 0 forward_v I I I I #
face $-1 $84 $85 $31 $-1 $86 reversed single #
loop $-1 $-1 $87 $41 #
plane-surface $-1 0 -24.88057810504559 0 0 1 0 0 0 1 forward_v I I I I #
face $-1 $88 $89 $32 $-1 $90 reversed single #
loop $-1 $-1 $91 $42 #
plane-surface $-1 -104.43775278344222 -17.833955102137562 77.386038977069092 0 1 0 -0.62932039886446345 0 0.77714595512881146 forward_v I I I I #
face $-1 $92 $93 $33 $-1 $94 forward single #
loop $-1 $95 $96 $43 #
cone-surface $-1 -42.953641131773075 -16.33585934818533 7.5340348228528535 0.62932039886446345 0 -0.77714595512881146 0.19428648878220287 0 0.15733009971611586 1 I I 0 1 0.25 forward I I I I #
face $-1 $97 $98 $34 $-1 $99 forward single #
loop $-1 $100 $101 $44 #
cone-surface $-1 -42.953641131773075 -14.088715717256974 7.5340348228528535 0.62932039886446345 0 -0.77714595512881146 0.19428648878220287 0 0.15733009971611586 1 I I 0 1 0.25 forward I I I I #
face $-1 $102 $103 $35 $-1 $104 forward single #
loop $-1 $105 $106 $45 #
cone-surface $-1 -42.953641131773075 -11.841572086328622 7.5340348228528535 0.62932039886446345 0 -0.77714595512881146 0.19428648878220287 0 0.15733009971611586 1 I I 0 1 0.25 forward I I I I #
face $-1 $107 $108 $36 $-1 $109 reversed single #
loop $-1 $-1 $110 $46 #
plane-surface $-1 32.568531949385722 -10.343476332376387 135.58458768323848 0 -1 0 -0.62932039886446345 0 -0.77714595512881146 forward_v I I I I #
face $-1 $111 $112 $37 $-1 $113 forward single #
loop $-1 $114 $115 $47 #
cone-surface $-1 42.953641131773068 -16.33585934818533 7.5340348228528535 -0.62932039886446345 0 -0.77714595512881146 0.19428648878220287 0 -0.15733009971611586 1 I I 0 1 0.25 forward I I I I #
face $-1 $116 $117 $38 $-1 $118 forward single #
loop $-1 $119 $120 $48 #
cone-surface $-1 42.953641131773068 -14.088715717256974 7.5340348228528535 -0.62932039886446345 0 -0.77714595512881146 0.19428648878220287 0 -0.15733009971611586 1 I I 0 1 0.25 forward I I I I #
face $-1 $121 $122 $39 $-1 $123 forward single #
loop $-1 $124 $125 $49 #
cone-surface $-1 42.953641131773068 -11.841572086328622 7.5340348228528535 -0.62932039886446345 0 -0.77714595512881146 0.19428648878220287 0 -0.15733009971611586 1 I I 0 1 0.25 forward I I I I #
face $-1 $126 $127 $30 $-1 $128 reversed single #
loop $-1 $-1 $129 $50 #
plane-surface $-1 0 0 -10.328397457821929 0 0 1 1 0 0 forward_v I I I I #
coedge $-1 $130 $131 $132 $133 forward $51 $-1 #
face $-1 $134 $135 $31 $-1 $136 forward single #
loop $-1 $-1 $137 $53 #
plane-surface $-1 -46.239204077272866 0 0 1 0 0 0 0 -1 forward_v I I I I #
coedge $-1 $138 $139 $140 $141 forward $54 $-1 #
face $-1 $142 $143 $32 $-1 $144 reversed single #
loop $-1 $-1 $145 $56 #
plane-surface $-1 -46.239204077272852 -14.088715717256974 5.5168181430125856 -0.62932039886446345 0 0.77714595512881146 0.77714595512881146 0 0.62932039886446345 forward_v I I I I #
coedge $-1 $146 $147 $148 $149 reversed $57 $-1 #
face $-1 $-1 $150 $33 $-1 $151 forward single #
loop $-1 $152 $153 $59 #
cone-surface $-1 -42.560315882482783 -16.33585934818533 7.0483186008973462 0.62932039886446345 0 -0.77714595512881146 0.097143244391101433 0 0.078665049858057931 1 I I -0.70710678118654746 0.70710678118654746 0.125 forward I I I I #
loop $-1 $-1 $154 $43 #
coedge $-1 $96 $96 $155 $156 reversed $60 $-1 #
face $-1 $-1 $157 $34 $-1 $158 forward single #
loop $-1 $159 $160 $62 #
cone-surface $-1 -42.560315882482783 -14.088715717256974 7.0483186008973462 0.62932039886446345 0 -0.77714595512881146 0.097143244391101433 0 0.078665049858057931 1 I I -0.70710678118654746 0.70710678118654746 0.125 forward I I I I #
loop $-1 $-1 $161 $44 #
coedge $-1 $101 $101 $162 $163 reversed $63 $-1 #
face $-1 $-1 $164 $35 $-1 $165 forward single #
loop $-1 $166 $167 $65 #
cone-surface $-1 -42.560315882482783 -11.841572086328622 7.0483186008973462 0.62932039886446345 0 -0.77714595512881146 0.097143244391101433 0 0.078665049858057931 1 I I -0.70710678118654746 0.70710678118654746 0.125 forward I I I I #
loop $-1 $-1 $168 $45 #
coedge $-1 $106 $106 $169 $170 reversed $66 $-1 #
face $-1 $171 $172 $36 $-1 $173 reversed single #
loop $-1 $-1 $174 $68 #
plane-surface $-1 -25.630016756783647 -14.088715717256974 63.715366849181976 0.62932039886446345 0 0.77714595512881146 0.77714595512881146 0 -0.62932039886446345 forward_v I I I I #
coedge $-1 $175 $176 $177 $178 reversed $69 $-1 #
face $-1 $-1 $179 $37 $-1 $180 forward single #
loop $-1 $181 $182 $71 #
cone-surface $-1 42.560315882482776 -16.33585934818533 7.0483186008973462 -0.62932039886446345 0 -0.77714595512881146 0.097143244391101433 0 -0.078665049858057931 1 I I -0.70710678118654746 0.70710678118654746 0.125 forward I I I I #
loop $-1 $-1 $183 $47 #
coedge $-1 $115 $115 $184 $185 reversed $72 $-1 #
face $-1 $-1 $186 $38 $-1 $187 forward single #
loop $-1 $188 $189 $74 #
cone-surface $-1 42.560315882482776 -14.088715717256974 7.0483186008973462 -0.62932039886446345 0 -0.77714595512881146 0.097143244391101433 0 -0.078665049858057931 1 I I -0.70710678118654746 0.70710678118654746 0.125 forward I I I I #
loop $-1 $-1 $190 $48 #
coedge $-1 $120 $120 $191 $192 reversed $75 $-1 #
face $-1 $-1 $193 $39 $-1 $194 forward single #
loop $-1 $195 $196 $77 #
cone-surface $-1 42.560315882482776 -11.841572086328622 7.0483186008973462 -0.62932039886446345 0 -0.77714595512881146 0.097143244391101433 0 -0.078665049858057931 1 I I -0.70710678118654746 0.70710678118654746 0.125 forward I I I I #
loop $-1 $-1 $197 $49 #
coedge $-1 $125 $125 $198 $199 reversed $78 $-1 #
face $-1 $200 $201 $30 $-1 $202 reversed single #
loop $-1 $-1 $203 $80 #
plane-surface $-1 0 -24.88057810504559 0 0 1 0 0 0 1 forward_v I I I I #
coedge $-1 $204 $205 $206 $207 forward $81 $-1 #
coedge $-1 $208 $83 $209 $210 forward $51 $-1 #
coedge $-1 $83 $208 $211 $212 forward $51 $-1 #
coedge $-1 $213 $214 $83 $133 reversed $215 $-1 #
edge $-1 $216 -24.88057810504559 $217 24.88057810504559 $132 $218 forward 7 unknown #
face $-1 $219 $220 $31 $-1 $221 reversed single #
loop $-1 $-1 $222 $84 #
plane-surface $-1 0 -28.403889606499604 3.9138191724792222 0 0 1 1 0 0 forward_v I I I I #
coedge $-1 $223 $224 $139 $225 forward $85 $-1 #
coedge $-1 $226 $87 $227 $228 reversed $54 $-1 #
coedge $-1 $87 $226 $137 $225 reversed $54 $-1 #
coedge $-1 $229 $222 $87 $141 reversed $135 $-1 #
edge $-1 $230 -46.239204077272866 $231 46.239204077272866 $140 $232 forward 7 unknown #
face $-1 $233 $234 $32 $-1 $235 forward single #
loop $-1 $-1 $236 $88 #
plane-surface $-1 -104.43775278344222 -10.343476332376387 77.386038977069092 0 -1 0 0.62932039886446345 0 -0.77714595512881146 forward_v I I I I #
coedge $-1 $237 $238 $239 $240 reversed $89 $-1 #
coedge $-1 $147 $91 $241 $242 reversed $57 $-1 #
coedge $-1 $91 $146 $237 $243 reversed $57 $-1 #
coedge $-1 $239 $244 $91 $149 forward $234 $-1 #
edge $-1 $245 5.9796723144482442 $246 11.92147780658339 $148 $247 forward 7 unknown #
loop $-1 $-1 $155 $92 #
plane-surface $-1 -46.239204077272852 -14.088715717256974 5.5168181430125856 -0.62932039886446345 0 0.77714595512881146 0.77714595512881146 0 0.62932039886446345 forward_v I I I I #
loop $-1 $-1 $248 $59 #
coedge $-1 $153 $153 $154 $249 reversed $93 $-1 #
coedge $-1 $154 $154 $153 $249 forward $95 $-1 #
coedge $-1 $155 $155 $96 $156 forward $150 $-1 #
edge $-1 $250 0 $250 6.2831853071796004 $155 $251 forward 7 unknown #
loop $-1 $-1 $162 $97 #
plane-surface $-1 -46.239204077272852 -14.088715717256974 5.5168181430125856 -0.62932039886446345 0 0.77714595512881146 0.77714595512881146 0 0.62932039886446345 forward_v I I I I #
loop $-1 $-1 $252 $62 #
coedge $-1 $160 $160 $161 $253 reversed $98 $-1 #
coedge $-1 $161 $161 $160 $253 forward $100 $-1 #
coedge $-1 $162 $162 $101 $163 forward $157 $-1 #
edge $-1 $254 0 $254 6.2831853071796004 $162 $255 forward 7 unknown #
loop $-1 $-1 $169 $102 #
plane-surface $-1 -46.239204077272852 -14.088715717256974 5.5168181430125856 -0.62932039886446345 0 0.77714595512881146 0.77714595512881146 0 0.62932039886446345 forward_v I I I I #
loop $-1 $-1 $256 $65 #
coedge $-1 $167 $167 $168 $257 reversed $103 $-1 #
coedge $-1 $168 $168 $167 $257 forward $105 $-1 #
coedge $-1 $169 $169 $106 $170 forward $164 $-1 #
edge $-1 $258 0 $258 6.2831853071796004 $169 $259 forward 7 unknown #
face $-1 $260 $261 $36 $-1 $262 reversed single #
loop $-1 $-1 $263 $107 #
plane-surface $-1 32.568531949385722 -17.833955102137562 135.58458768323848 0 1 0 0.62932039886446345 0 0.77714595512881146 forward_v I I I I #
coedge $-1 $264 $265 $266 $267 reversed $108 $-1 #
coedge $-1 $176 $110 $268 $269 reversed $69 $-1 #
coedge $-1 $110 $175 $264 $270 reversed $69 $-1 #
coedge $-1 $266 $271 $110 $178 forward $272 $-1 #
edge $-1 $273 -29.954938102580005 $274 -24.013132610444909 $177 $275 forward 7 unknown #
loop $-1 $-1 $184 $111 #
plane-surface $-1 -25.630016756783647 -14.088715717256974 63.715366849181976 0.62932039886446345 0 0.77714595512881146 0.77714595512881146 0 -0.62932039886446345 forward_v I I I I #
loop $-1 $-1 $276 $71 #
coedge $-1 $182 $182 $183 $277 reversed $112 $-1 #
coedge $-1 $183 $183 $182 $277 forward $114 $-1 #
coedge $-1 $184 $184 $115 $185 forward $179 $-1 #
edge $-1 $278 0 $278 6.2831853071796004 $184 $279 forward 7 unknown #
loop $-1 $-1 $191 $116 #
plane-surface $-1 -25.630016756783647 -14.088715717256974 63.715366849181976 0.62932039886446345 0 0.77714595512881146 0.77714595512881146 0 -0.62932039886446345 forward_v I I I I #
loop $-1 $-1 $280 $74 #
coedge $-1 $189 $189 $190 $281 reversed $117 $-1 #
coedge $-1 $190 $190 $189 $281 forward $119 $-1 #
coedge $-1 $191 $191 $120 $192 forward $186 $-1 #
edge $-1 $282 0 $282 6.2831853071796004 $191 $283 forward 7 unknown #
loop $-1 $-1 $198 $121 #
plane-surface $-1 -25.630016756783647 -14.088715717256974 63.715366849181976 0.62932039886446345 0 0.77714595512881146 0.77714595512881146 0 -0.62932039886446345 forward_v I I I I #
loop $-1 $-1 $284 $77 #
coedge $-1 $196 $196 $197 $285 reversed $122 $-1 #
coedge $-1 $197 $197 $196 $285 forward $124 $-1 #
coedge $-1 $198 $198 $125 $199 forward $193 $-1 #
edge $-1 $286 0 $286 6.2831853071796004 $198 $287 forward 7 unknown #
face $-1 $288 $289 $30 $-1 $290 reversed single #
loop $-1 $-1 $291 $126 #
plane-surface $-1 -46.239204077272866 0 0 1 0 0 0 0 -1 forward_v I I I I #
coedge $-1 $292 $211 $293 $294 forward $127 $-1 #
coedge $-1 $295 $129 $292 $296 forward $81 $-1 #
coedge $-1 $129 $295 $297 $298 forward $81 $-1 #
coedge $-1 $214 $213 $129 $207 reversed $215 $-1 #
edge $-1 $299 -24.88057810504559 $300 24.88057810504559 $206 $301 forward 7 unknown #
coedge $-1 $131 $130 $302 $303 forward $51 $-1 #
coedge $-1 $304 $305 $130 $210 reversed $289 $-1 #
edge $-1 $217 -46.239204077272866 $306 46.239204077272866 $209 $307 forward 7 unknown #
coedge $-1 $203 $308 $131 $212 reversed $127 $-1 #
edge $-1 $309 -46.239204077272866 $216 46.239204077272866 $211 $310 forward 7 unknown #
coedge $-1 $206 $132 $308 $311 forward $215 $-1 #
coedge $-1 $132 $206 $304 $312 reversed $215 $-1 #
loop $-1 $-1 $213 $288 #
vertex $-1 $133 $313 #
vertex $-1 $133 $314 #
straight-curve $-1 46.239204077272866 0 10.328397457821929 0 1 0 I I #
face $-1 $315 $316 $31 $-1 $317 reversed single #
loop $-1 $-1 $318 $134 #
plane-surface $-1 0 -28.403889606499604 0.91381917247922217 0 0 1 1 0 0 forward_v I I I I #
coedge $-1 $140 $319 $320 $321 forward $135 $-1 #
coedge $-1 $322 $137 $323 $324 reversed $85 $-1 #
coedge $-1 $137 $322 $229 $325 reversed $85 $-1 #
edge $-1 $230 -3.9138191724792222 $326 -0.91381917247922217 $137 $327 forward 7 unknown #
coedge $-1 $139 $138 $328 $329 forward $54 $-1 #
coedge $-1 $320 $330 $138 $228 forward $331 $-1 #
edge $-1 $332 0.91381917247922217 $231 3.9138191724792222 $227 $333 forward 7 unknown #
coedge $-1 $319 $140 $224 $325 forward $135 $-1 #
vertex $-1 $225 $334 #
vertex $-1 $321 $335 #
straight-curve $-1 0 -24.88057810504559 3.9138191724792222 1 0 0 I I #
face $-1 $-1 $336 $32 $-1 $337 reversed single #
loop $-1 $-1 $148 $142 #
plane-surface $-1 0 0 10.328397457821929 0 0 1 1 0 0 forward_v I I I I #
coedge $-1 $338 $339 $340 $341 reversed $143 $-1 #
coedge $-1 $342 $145 $147 $243 forward $89 $-1 #
coedge $-1 $145 $342 $338 $343 forward $89 $-1 #
coedge $-1 $340 $148 $145 $240 forward $234 $-1 #
edge $-1 $246 -10.789597243509075 $344 -3.2991184737478996 $239 $345 forward 7 unknown #
coedge $-1 $346 $347 $146 $242 forward $336 $-1 #
edge $-1 $348 -33.176201345521974 $245 -28.364622030712617 $241 $349 forward 7 unknown #
edge $-1 $246 -7.6456751179387918 $348 1.8310242626372826e-014 $147 $350 forward 7 unknown #
coedge $-1 $148 $340 $346 $351 forward $234 $-1 #
vertex $-1 $242 $352 #
vertex $-1 $149 $353 #
straight-curve $-1 -52.218876391721111 -17.833955102137562 10.328397457821929 1 0 0 I I #
coedge $-1 $248 $248 $-1 $354 reversed $152 $-1 #
edge $-1 $355 0 $355 6.2831853071796004 $153 $356 forward 7 unknown #
vertex $-1 $156 $357 #
ellipse-curve $-1 -43.268301331205301 -16.33585934818533 7.9226078004172482 -0.62932039886446345 0 0.77714595512881146 0.19428648878220287 0 0.15733009971611586 1 I I #
coedge $-1 $252 $252 $-1 $358 reversed $159 $-1 #
edge $-1 $359 0 $359 6.2831853071796004 $160 $360 forward 7 unknown #
vertex $-1 $163 $361 #
ellipse-curve $-1 -43.268301331205301 -14.088715717256974 7.9226078004172482 -0.62932039886446345 0 0.77714595512881146 0.19428648878220287 0 0.15733009971611586 1 I I #
coedge $-1 $256 $256 $-1 $362 reversed $166 $-1 #
edge $-1 $363 0 $363 6.2831853071796004 $167 $364 forward 7 unknown #
vertex $-1 $170 $365 #
ellipse-curve $-1 -43.268301331205301 -11.841572086328622 7.9226078004172482 -0.62932039886446345 0 0.77714595512881146 0.19428648878220287 0 0.15733009971611586 1 I I #
face $-1 $-1 $272 $36 $-1 $366 forward single #
loop $-1 $-1 $367 $171 #
plane-surface $-1 46.239204077272866 0 0 -1 0 0 0 0 1 forward_v I I I I #
coedge $-1 $368 $369 $370 $371 reversed $172 $-1 #
coedge $-1 $372 $174 $176 $270 forward $108 $-1 #
coedge $-1 $174 $372 $368 $373 forward $108 $-1 #
coedge $-1 $370 $177 $174 $267 forward $272 $-1 #
edge $-1 $274 3.2991184737478996 $374 10.789597243509075 $266 $375 forward 7 unknown #
coedge $-1 $376 $377 $175 $269 forward $261 $-1 #
edge $-1 $378 -62.275475698606634 $273 -57.463896383797312 $268 $379 forward 7 unknown #
edge $-1 $274 84.832733036606982 $378 92.478408154545718 $176 $380 forward 7 unknown #
coedge $-1 $177 $370 $376 $381 forward $272 $-1 #
loop $-1 $-1 $370 $260 #
vertex $-1 $269 $382 #
vertex $-1 $178 $383 #
straight-curve $-1 16.284265974692861 -10.343476332376387 10.328397457821929 -1 0 0 I I #
coedge $-1 $276 $276 $-1 $384 reversed $181 $-1 #
edge $-1 $385 0 $385 6.2831853071796004 $182 $386 forward 7 unknown #
vertex $-1 $185 $387 #
ellipse-curve $-1 43.268301331205308 -16.33585934818533 7.9226078004172704 0.62932039886446345 0 0.77714595512881146 0.19428648878220287 0 -0.15733009971611586 1 I I #
coedge $-1 $280 $280 $-1 $388 reversed $188 $-1 #
edge $-1 $389 0 $389 6.2831853071796004 $189 $390 forward 7 unknown #
vertex $-1 $192 $391 #
ellipse-curve $-1 43.268301331205308 -14.088715717256974 7.9226078004172704 0.62932039886446345 0 0.77714595512881146 0.19428648878220287 0 -0.15733009971611586 1 I I #
coedge $-1 $284 $284 $-1 $392 reversed $195 $-1 #
edge $-1 $393 0 $393 6.2831853071796004 $196 $394 forward 7 unknown #
vertex $-1 $199 $395 #
ellipse-curve $-1 43.268301331205308 -11.841572086328622 7.9226078004172704 0.62932039886446345 0 0.77714595512881146 0.19428648878220287 0 -0.15733009971611586 1 I I #
face $-1 $-1 $215 $30 $-1 $396 reversed single #
loop $-1 $-1 $304 $200 #
plane-surface $-1 0 24.88057810504559 0 0 -1 0 0 0 -1 forward_v I I I I #
coedge $-1 $397 $302 $305 $398 forward $201 $-1 #
coedge $-1 $308 $203 $204 $296 reversed $127 $-1 #
coedge $-1 $302 $397 $203 $294 reversed $201 $-1 #
edge $-1 $309 -10.328397457821929 $399 10.328397457821929 $293 $400 forward 7 unknown #
coedge $-1 $205 $204 $397 $401 forward $81 $-1 #
edge $-1 $300 -46.239204077272866 $399 46.239204077272866 $292 $402 forward 7 unknown #
coedge $-1 $305 $304 $205 $298 reversed $289 $-1 #
edge $-1 $403 -46.239204077272866 $299 46.239204077272866 $297 $404 forward 7 unknown #
vertex $-1 $207 $405 #
vertex $-1 $311 $406 #
straight-curve $-1 46.239204077272866 0 -10.328397457821929 0 -1 0 I I #
coedge $-1 $291 $293 $208 $303 reversed $201 $-1 #
edge $-1 $306 -24.88057810504559 $309 24.88057810504559 $302 $407 forward 7 unknown #
coedge $-1 $297 $209 $214 $312 forward $289 $-1 #
coedge $-1 $209 $297 $291 $398 reversed $289 $-1 #
vertex $-1 $210 $408 #
straight-curve $-1 0 24.88057810504559 10.328397457821929 -1 0 0 I I #
coedge $-1 $211 $292 $213 $311 reversed $127 $-1 #
vertex $-1 $303 $409 #
straight-curve $-1 0 -24.88057810504559 10.328397457821929 1 0 0 I I #
edge $-1 $216 -10.328397457821929 $300 10.328397457821929 $213 $410 forward 7 unknown #
edge $-1 $217 -10.328397457821929 $299 10.328397457821929 $214 $411 forward 7 unknown #
point $-1 46.239204077272866 -24.88057810504559 10.328397457821929 #
point $-1 46.239204077272866 24.88057810504559 10.328397457821929 #
face $-1 $-1 $331 $31 $-1 $412 reversed single #
loop $-1 $-1 $413 $219 #
plane-surface $-1 0 -31.927201107953618 2.4138191724792222 0 1 0 0 0 1 forward_v I I I I #
coedge $-1 $414 $328 $330 $415 forward $220 $-1 #
coedge $-1 $222 $229 $416 $417 forward $135 $-1 #
coedge $-1 $418 $227 $222 $321 reversed $331 $-1 #
edge $-1 $419 -3.5233115014540139 $231 3.5233115014540139 $320 $420 forward 7 unknown #
coedge $-1 $224 $223 $413 $421 reversed $85 $-1 #
coedge $-1 $328 $414 $223 $324 forward $220 $-1 #
edge $-1 $422 -3.5233115014540139 $326 3.5233115014540139 $223 $423 forward 7 unknown #
edge $-1 $230 -3.5233115014540139 $424 3.5233115014540139 $224 $425 forward 7 unknown #
vertex $-1 $225 $426 #
straight-curve $-1 -46.239204077272866 -24.88057810504559 0 0 0 -1 I I #
coedge $-1 $318 $323 $226 $329 reversed $220 $-1 #
edge $-1 $332 -46.239204077272866 $326 46.239204077272866 $328 $427 forward 7 unknown #
coedge $-1 $227 $418 $318 $415 reversed $331 $-1 #
loop $-1 $-1 $227 $315 #
vertex $-1 $228 $428 #
straight-curve $-1 46.239204077272866 -24.88057810504559 0 0 0 1 I I #
point $-1 -46.239204077272866 -24.88057810504559 3.9138191724792222 #
point $-1 46.239204077272866 -24.88057810504559 3.9138191724792222 #
loop $-1 $-1 $241 $233 #
plane-surface $-1 -46.239204077272866 0 0 1 0 0 0 0 -1 forward_v I I I I #
coedge $-1 $339 $236 $238 $343 reversed $143 $-1 #
coedge $-1 $236 $338 $429 $430 reversed $143 $-1 #
coedge $-1 $244 $239 $236 $341 forward $234 $-1 #
edge $-1 $344 -11.92147780658339 $431 -5.9796723144482442 $340 $432 forward 7 unknown #
coedge $-1 $238 $237 $347 $433 reversed $89 $-1 #
edge $-1 $434 -1.8310242626372826e-014 $344 7.6456751179387918 $338 $435 forward 7 unknown #
vertex $-1 $240 $436 #
straight-curve $-1 -40.297398585137721 -7.0443578586284872 10.328397457821929 0 1 0 I I #
coedge $-1 $429 $241 $244 $351 reversed $336 $-1 #
coedge $-1 $241 $429 $342 $433 forward $336 $-1 #
vertex $-1 $242 $437 #
straight-curve $-1 -46.239204077272866 -17.833955102137562 38.693019488534546 0 0 1 I I #
straight-curve $-1 -46.239204077272852 -17.833955102137562 5.5168181430125856 -0.77714595512881146 0 -0.62932039886446345 I I #
edge $-1 $431 10.343476332376387 $245 17.833955102137562 $346 $438 forward 7 unknown #
point $-1 -46.239204077272866 -17.833955102137562 10.328397457821929 #
point $-1 -40.297398585137721 -17.833955102137562 10.328397457821929 #
edge $-1 $439 1 $439 0 $248 $-1 forward 7 unknown #
vertex $-1 $249 $440 #
ellipse-curve $-1 -42.638980932340843 -16.33585934818533 7.1454618452884473 -0.62932039886446345 0 0.77714595512881146 0.19428648878220287 0 0.15733009971611586 1 I I #
point $-1 -43.074014842423104 -16.33585934818533 8.0799379001333751 #
edge $-1 $441 1 $441 0 $252 $-1 forward 7 unknown #
vertex $-1 $253 $442 #
ellipse-curve $-1 -42.638980932340843 -14.088715717256974 7.1454618452884473 -0.62932039886446345 0 0.77714595512881146 0.19428648878220287 0 0.15733009971611586 1 I I #
point $-1 -43.074014842423104 -14.088715717256974 8.0799379001333751 #
edge $-1 $443 1 $443 0 $256 $-1 forward 7 unknown #
vertex $-1 $257 $444 #
ellipse-curve $-1 -42.638980932340843 -11.841572086328622 7.1454618452884473 -0.62932039886446345 0 0.77714595512881146 0.19428648878220287 0 0.15733009971611586 1 I I #
point $-1 -43.074014842423104 -11.841572086328622 8.0799379001333751 #
plane-surface $-1 0 0 10.328397457821929 0 0 1 1 0 0 forward_v I I I I #
coedge $-1 $377 $376 $369 $445 forward $261 $-1 #
coedge $-1 $369 $263 $265 $373 reversed $172 $-1 #
coedge $-1 $263 $368 $367 $445 reversed $172 $-1 #
coedge $-1 $271 $266 $263 $371 forward $272 $-1 #
edge $-1 $374 24.013132610444909 $446 29.954938102580005 $370 $447 forward 7 unknown #
coedge $-1 $265 $264 $377 $448 reversed $108 $-1 #
edge $-1 $449 -92.478408154545718 $374 -84.832733036606982 $368 $450 forward 7 unknown #
vertex $-1 $267 $451 #
straight-curve $-1 40.297398585137763 -7.0443578586284872 10.328397457821922 0 -1 0 I I #
coedge $-1 $367 $268 $271 $381 reversed $261 $-1 #
coedge $-1 $268 $367 $372 $448 forward $261 $-1 #
vertex $-1 $269 $452 #
straight-curve $-1 46.239204077272866 -10.343476332376387 67.792293841619241 0 0 1 I I #
straight-curve $-1 -25.630016756783647 -10.343476332376387 63.715366849181976 0.77714595512881146 0 -0.62932039886446345 I I #
edge $-1 $446 -17.833955102137562 $273 -10.343476332376387 $376 $453 forward 7 unknown #
point $-1 46.239204077272866 -10.343476332376387 10.328397457821929 #
point $-1 40.297398585137771 -10.343476332376387 10.328397457821922 #
edge $-1 $454 1 $454 0 $276 $-1 forward 7 unknown #
vertex $-1 $277 $455 #
ellipse-curve $-1 42.638980932340836 -16.33585934818533 7.1454618452884473 0.62932039886446345 0 0.77714595512881146 0.19428648878220287 0 -0.15733009971611586 1 I I #
point $-1 43.462587819987498 -16.33585934818533 7.7652777007011435 #
edge $-1 $456 1 $456 0 $280 $-1 forward 7 unknown #
vertex $-1 $281 $457 #
ellipse-curve $-1 42.638980932340836 -14.088715717256974 7.1454618452884473 0.62932039886446345 0 0.77714595512881146 0.19428648878220287 0 -0.15733009971611586 1 I I #
point $-1 43.462587819987498 -14.088715717256974 7.7652777007011435 #
edge $-1 $458 1 $458 0 $284 $-1 forward 7 unknown #
vertex $-1 $285 $459 #
ellipse-curve $-1 42.638980932340836 -11.841572086328622 7.1454618452884473 0.62932039886446345 0 0.77714595512881146 0.19428648878220287 0 -0.15733009971611586 1 I I #
point $-1 43.462587819987498 -11.841572086328622 7.7652777007011435 #
plane-surface $-1 46.239204077272866 0 0 -1 0 0 0 0 1 forward_v I I I I #
coedge $-1 $293 $291 $295 $401 reversed $201 $-1 #
edge $-1 $306 -10.328397457821929 $403 10.328397457821929 $305 $460 forward 7 unknown #
vertex $-1 $401 $461 #
straight-curve $-1 -46.239204077272866 -24.88057810504559 0 0 0 -1 I I #
edge $-1 $399 -24.88057810504559 $403 24.88057810504559 $397 $462 forward 7 unknown #
straight-curve $-1 0 -24.88057810504559 -10.328397457821929 -1 0 0 I I #
vertex $-1 $298 $463 #
straight-curve $-1 0 24.88057810504559 -10.328397457821929 1 0 0 I I #
point $-1 46.239204077272866 24.88057810504559 -10.328397457821929 #
point $-1 46.239204077272866 -24.88057810504559 -10.328397457821929 #
straight-curve $-1 -46.239204077272866 0 10.328397457821929 0 -1 0 I I #
point $-1 -46.239204077272866 24.88057810504559 10.328397457821929 #
point $-1 -46.239204077272866 -24.88057810504559 10.328397457821929 #
straight-curve $-1 46.239204077272866 -24.88057810504559 0 0 0 -1 I I #
straight-curve $-1 46.239204077272866 24.88057810504559 0 0 0 -1 I I #
plane-surface $-1 46.239204077272866 0 0 -1 0 0 0 0 1 forward_v I I I I #
coedge $-1 $464 $416 $322 $421 forward $316 $-1 #
coedge $-1 $323 $318 $464 $465 forward $220 $-1 #
edge $-1 $332 -3.5233115014540139 $466 3.5233115014540139 $330 $467 forward 7 unknown #
coedge $-1 $413 $468 $319 $417 reversed $316 $-1 #
edge $-1 $424 -46.239204077272866 $419 46.239204077272866 $416 $469 forward 7 unknown #
coedge $-1 $330 $320 $468 $470 forward $331 $-1 #
vertex $-1 $321 $471 #
straight-curve $-1 46.239204077272866 -28.403889606499604 3.9138191724792222 0 1 0 I I #
edge $-1 $424 -1.5 $422 1.5 $322 $472 forward 7 unknown #
vertex $-1 $324 $473 #
straight-curve $-1 -46.239204077272866 -28.403889606499604 0.91381917247922217 0 1 0 I I #
vertex $-1 $325 $474 #
straight-curve $-1 -46.239204077272866 -28.403889606499604 3.9138191724792222 0 -1 0 I I #
point $-1 -46.239204077272866 -24.88057810504559 0.91381917247922217 #
straight-curve $-1 0 -24.88057810504559 0.91381917247922217 -1 0 0 I I #
point $-1 46.239204077272866 -24.88057810504559 0.91381917247922217 #
coedge $-1 $347 $346 $339 $430 forward $336 $-1 #
edge $-1 $431 28.364622030712617 $434 33.176201345521974 $429 $475 forward 7 unknown #
vertex $-1 $351 $476 #
straight-curve $-1 -52.218876391721111 -10.343476332376387 10.328397457821929 -1 0 0 I I #
edge $-1 $434 3.2991184737478996 $348 10.789597243509075 $347 $477 forward 7 unknown #
vertex $-1 $433 $478 #
straight-curve $-1 -46.239204077272852 -10.343476332376387 5.5168181430125856 0.77714595512881146 0 0.62932039886446345 I I #
point $-1 -40.297398585137721 -10.343476332376387 10.328397457821929 #
point $-1 -46.239204077272866 -17.833955102137562 5.516818143012574 #
straight-curve $-1 -46.239204077272866 0 10.328397457821929 0 -1 0 I I #
vertex $-1 $354 $479 #
point $-1 -42.444694443558639 -16.33585934818533 7.3027919450045635 #
vertex $-1 $358 $480 #
point $-1 -42.444694443558639 -14.088715717256974 7.3027919450045635 #
vertex $-1 $362 $481 #
point $-1 -42.444694443558639 -11.841572086328622 7.3027919450045635 #
edge $-1 $446 57.463896383797312 $449 62.275475698606634 $367 $482 forward 7 unknown #
vertex $-1 $381 $483 #
straight-curve $-1 16.284265974692861 -17.833955102137562 10.328397457821929 1 0 0 I I #
edge $-1 $449 -10.789597243509075 $378 -3.2991184737478996 $377 $484 forward 7 unknown #
vertex $-1 $448 $485 #
straight-curve $-1 -25.630016756783647 -17.833955102137562 63.715366849181976 -0.77714595512881146 0 0.62932039886446345 I I #
point $-1 40.297398585137771 -17.833955102137562 10.328397457821922 #
point $-1 46.239204077272859 -10.343476332376387 5.5168181430126069 #
straight-curve $-1 46.239204077272866 0 10.328397457821929 0 1 0 I I #
vertex $-1 $384 $486 #
point $-1 42.83326742112304 -16.33585934818533 6.988131745572332 #
vertex $-1 $388 $487 #
point $-1 42.83326742112304 -14.088715717256974 6.988131745572332 #
vertex $-1 $392 $488 #
point $-1 42.83326742112304 -11.841572086328622 6.988131745572332 #
straight-curve $-1 -46.239204077272866 24.88057810504559 0 0 0 -1 I I #
point $-1 -46.239204077272866 -24.88057810504559 -10.328397457821929 #
straight-curve $-1 -46.239204077272866 0 -10.328397457821929 0 1 0 I I #
point $-1 -46.239204077272866 24.88057810504559 -10.328397457821929 #
coedge $-1 $468 $413 $414 $465 reversed $316 $-1 #
edge $-1 $466 -46.239204077272866 $422 46.239204077272866 $464 $489 forward 7 unknown #
vertex $-1 $470 $490 #
straight-curve $-1 46.239204077272866 -28.403889606499604 0.91381917247922217 0 -1 0 I I #
coedge $-1 $416 $464 $418 $470 reversed $316 $-1 #
straight-curve $-1 0 -31.927201107953618 3.9138191724792222 1 0 0 I I #
edge $-1 $419 -1.5 $466 1.5 $418 $491 forward 7 unknown #
point $-1 46.239204077272866 -31.927201107953618 3.9138191724792222 #
straight-curve $-1 -46.239204077272866 -31.927201107953618 2.4138191724792222 0 0 -1 I I #
point $-1 -46.239204077272866 -31.927201107953618 0.91381917247922217 #
point $-1 -46.239204077272866 -31.927201107953618 3.9138191724792222 #
straight-curve $-1 -46.239204077272866 -10.343476332376387 38.693019488534546 0 0 -1 I I #
point $-1 -46.239204077272866 -10.343476332376387 10.328397457821929 #
straight-curve $-1 -46.239204077272866 -7.0443578586284872 5.516818143012574 0 -1 0 I I #
point $-1 -46.239204077272866 -10.343476332376387 5.516818143012574 #
point $-1 -42.481650832624723 -16.33585934818533 6.9511753565062451 #
point $-1 -42.481650832624723 -14.088715717256974 6.9511753565062451 #
point $-1 -42.481650832624723 -11.841572086328622 6.9511753565062451 #
straight-curve $-1 46.239204077272866 -17.833955102137562 67.792293841619241 0 0 -1 I I #
point $-1 46.239204077272866 -17.833955102137562 10.328397457821929 #
straight-curve $-1 46.239204077272866 -7.0443578586284872 5.5168181430126104 0 1 0 I I #
point $-1 46.239204077272859 -17.833955102137562 5.5168181430126069 #
point $-1 42.481650832624716 -16.33585934818533 6.9511753565062451 #
point $-1 42.481650832624716 -14.088715717256974 6.9511753565062451 #
point $-1 42.481650832624716 -11.841572086328622 6.9511753565062451 #
straight-curve $-1 0 -31.927201107953618 0.91381917247922217 -1 0 0 I I #
point $-1 46.239204077272866 -31.927201107953618 0.91381917247922217 #
straight-curve $-1 46.239204077272866 -31.927201107953618 2.4138191724792222 0 0 -1 I I #
End-of-ACIS-data 