500 0 9 0           
7 Unknown 11 ACIS 5.0 NT 24 Thu Mar 25 17:29:34 1999 
-1 9.9999999999999995e-007 1e-010 
body $-1 $9 $-1 $10 #
body $-1 $11 $-1 $12 #
body $-1 $13 $-1 $14 #
body $-1 $15 $-1 $16 #
body $-1 $17 $-1 $18 #
body $-1 $19 $-1 $20 #
body $-1 $21 $-1 $22 #
body $-1 $23 $-1 $24 #
body $-1 $25 $-1 $26 #
lump $-1 $-1 $27 $0 #
transform $-1 1 0 0 0 1 0 0 0 1 47.933591723380232 24.654340895107541 7.1641826309047518 1 rotate no_reflect no_shear #
lump $-1 $-1 $28 $1 #
transform $-1 1 0 0 0 1 0 0 0 1 47.933591723380232 24.654340895107541 7.1641826309047518 1 rotate no_reflect no_shear #
lump $-1 $-1 $29 $2 #
transform $-1 1 0 0 0 1 0 0 0 1 47.933591723380232 24.654340895107541 7.1641826309047518 1 rotate no_reflect no_shear #
lump $-1 $-1 $30 $3 #
transform $-1 1 0 0 0 1 0 0 0 1 47.933591723380232 24.654340895107541 7.1641826309047518 1 rotate no_reflect no_shear #
lump $-1 $-1 $31 $4 #
transform $-1 1 0 0 0 1 0 0 0 1 47.933591723380232 24.654340895107541 7.1641826309047518 1 rotate no_reflect no_shear #
lump $-1 $-1 $32 $5 #
transform $-1 1 0 0 0 1 0 0 0 1 47.933591723380232 24.654340895107541 7.1641826309047518 1 rotate no_reflect no_shear #
lump $-1 $-1 $33 $6 #
transform $-1 1 0 0 0 1 0 0 0 1 47.933591723380232 24.654340895107541 7.1641826309047518 1 rotate no_reflect no_shear #
lump $-1 $-1 $34 $7 #
transform $-1 1 0 0 0 1 0 0 0 1 47.933591723380232 24.654340895107541 7.1641826309047518 1 rotate no_reflect no_shear #
lump $-1 $-1 $35 $8 #
transform $-1 1 0 0 0 1 0 0 0 1 47.933591723380232 24.654340895107541 7.1641826309047518 1 rotate no_reflect no_shear #
shell $-1 $-1 $-1 $36 $-1 $9 #
shell $-1 $-1 $-1 $37 $-1 $11 #
shell $-1 $-1 $-1 $38 $-1 $13 #
shell $-1 $-1 $-1 $39 $-1 $15 #
shell $-1 $-1 $-1 $40 $-1 $17 #
shell $-1 $-1 $-1 $41 $-1 $19 #
shell $-1 $-1 $-1 $42 $-1 $21 #
shell $-1 $-1 $-1 $43 $-1 $23 #
shell $-1 $-1 $-1 $44 $-1 $25 #
face $-1 $45 $46 $27 $-1 $47 forward single #
face $-1 $48 $49 $28 $-1 $50 reversed single #
face $-1 $51 $52 $29 $-1 $53 forward single #
face $-1 $54 $55 $30 $-1 $56 forward single #
face $-1 $57 $58 $31 $-1 $59 forward single #
face $-1 $60 $61 $32 $-1 $62 reversed single #
face $-1 $63 $64 $33 $-1 $65 forward single #
face $-1 $66 $67 $34 $-1 $68 forward single #
face $-1 $69 $70 $35 $-1 $71 forward single #
face $-1 $72 $73 $27 $-1 $74 reversed single #
loop $-1 $-1 $75 $36 #
plane-surface $-1 0 0 7.1641826309047518 0 0 1 1 0 0 forward_v I I I I #
face $-1 $76 $77 $28 $-1 $78 reversed single #
loop $-1 $-1 $79 $37 #
plane-surface $-1 -38.282800033036779 44.820302031989598 107.5245709123605 -1 0 0 0 0.61566148304635926 0.78801074757464917 forward_v I I I I #
face $-1 $80 $81 $29 $-1 $82 forward single #
loop $-1 $83 $84 $38 #
cone-surface $-1 -46.003433385311538 20.762713908151483 3.9515404108709262 0 -0.61566148304635926 -0.78801074757464917 0.5 0 0 1 I I 0 1 0.5 forward I I I I #
face $-1 $85 $86 $30 $-1 $87 forward single #
loop $-1 $88 $89 $39 #
cone-surface $-1 -43.108195878208505 20.762713908151483 3.9515404108709262 0 -0.61566148304635926 -0.78801074757464917 0.5 0 0 1 I I 0 1 0.5 forward I I I I #
face $-1 $90 $91 $31 $-1 $92 forward single #
loop $-1 $93 $94 $40 #
cone-surface $-1 -40.212958371105465 20.762713908151483 3.9515404108709262 0 -0.61566148304635926 -0.78801074757464917 0.5 0 0 1 I I 0 1 0.5 forward I I I I #
face $-1 $95 $96 $32 $-1 $97 reversed single #
loop $-1 $-1 $98 $41 #
plane-surface $-1 9.650791690343457 44.820302031989598 107.5245709123605 -1 0 0 0 0.61566148304635926 0.78801074757464917 forward_v I I I I #
face $-1 $99 $100 $33 $-1 $101 forward single #
loop $-1 $102 $103 $42 #
cone-surface $-1 1.9301583380686935 20.762713908151483 3.9515404108709262 0 -0.61566148304635926 -0.78801074757464917 0.5 0 0 1 I I 0 1 0.5 forward I I I I #
face $-1 $104 $105 $34 $-1 $106 forward single #
loop $-1 $107 $108 $43 #
cone-surface $-1 4.8253958451717267 20.762713908151483 3.9515404108709262 0 -0.61566148304635926 -0.78801074757464917 0.5 0 0 1 I I 0 1 0.5 forward I I I I #
face $-1 $109 $110 $35 $-1 $111 forward single #
loop $-1 $112 $113 $44 #
cone-surface $-1 7.720633352274767 20.762713908151483 3.9515404108709262 0 -0.61566148304635926 -0.78801074757464917 0.5 0 0 1 I I 0 1 0.5 forward I I I I #
face $-1 $114 $115 $27 $-1 $116 reversed single #
loop $-1 $-1 $117 $45 #
plane-surface $-1 0 0 -7.1641826309047518 0 0 1 1 0 0 forward_v I I I I #
coedge $-1 $118 $119 $120 $121 forward $46 $-1 #
face $-1 $122 $123 $28 $-1 $124 reversed single #
loop $-1 $-1 $125 $48 #
plane-surface $-1 -43.108195878208505 -14.201430304320333 31.980200016602751 0 0.61566148304635926 0.78801074757464917 1 0 0 forward_v I I I I #
coedge $-1 $126 $127 $128 $129 reversed $49 $-1 #
face $-1 $-1 $130 $29 $-1 $131 forward single #
loop $-1 $132 $133 $51 #
cone-surface $-1 -46.003433385311538 20.263530572289032 3.3126148901068531 0 -0.61566148304635926 -0.78801074757464917 0.25 0 0 1 I I -0.70710678118654746 0.70710678118654746 0.25 forward I I I I #
loop $-1 $-1 $134 $38 #
coedge $-1 $84 $84 $135 $136 reversed $52 $-1 #
face $-1 $-1 $137 $30 $-1 $138 forward single #
loop $-1 $139 $140 $54 #
cone-surface $-1 -43.108195878208505 20.263530572289032 3.3126148901068531 0 -0.61566148304635926 -0.78801074757464917 0.25 0 0 1 I I -0.70710678118654746 0.70710678118654746 0.25 forward I I I I #
loop $-1 $-1 $141 $39 #
coedge $-1 $89 $89 $142 $143 reversed $55 $-1 #
face $-1 $-1 $144 $31 $-1 $145 forward single #
loop $-1 $146 $147 $57 #
cone-surface $-1 -40.212958371105465 20.263530572289032 3.3126148901068531 0 -0.61566148304635926 -0.78801074757464917 0.25 0 0 1 I I -0.70710678118654746 0.70710678118654746 0.25 forward I I I I #
loop $-1 $-1 $148 $40 #
coedge $-1 $94 $94 $149 $150 reversed $58 $-1 #
face $-1 $151 $152 $32 $-1 $153 reversed single #
loop $-1 $-1 $154 $60 #
plane-surface $-1 4.8253958451717267 -14.201430304320333 31.980200016602751 0 0.61566148304635926 0.78801074757464917 1 0 0 forward_v I I I I #
coedge $-1 $155 $156 $157 $158 reversed $61 $-1 #
face $-1 $-1 $159 $33 $-1 $160 forward single #
loop $-1 $161 $162 $63 #
cone-surface $-1 1.9301583380686935 20.263530572289032 3.3126148901068531 0 -0.61566148304635926 -0.78801074757464917 0.25 0 0 1 I I -0.70710678118654746 0.70710678118654746 0.25 forward I I I I #
loop $-1 $-1 $163 $42 #
coedge $-1 $103 $103 $164 $165 reversed $64 $-1 #
face $-1 $-1 $166 $34 $-1 $167 forward single #
loop $-1 $168 $169 $66 #
cone-surface $-1 4.8253958451717267 20.263530572289032 3.3126148901068531 0 -0.61566148304635926 -0.78801074757464917 0.25 0 0 1 I I -0.70710678118654746 0.70710678118654746 0.25 forward I I I I #
loop $-1 $-1 $170 $43 #
coedge $-1 $108 $108 $171 $172 reversed $67 $-1 #
face $-1 $-1 $173 $35 $-1 $174 forward single #
loop $-1 $175 $176 $69 #
cone-surface $-1 7.720633352274767 20.263530572289032 3.3126148901068531 0 -0.61566148304635926 -0.78801074757464917 0.25 0 0 1 I I -0.70710678118654746 0.70710678118654746 0.25 forward I I I I #
loop $-1 $-1 $177 $44 #
coedge $-1 $113 $113 $178 $179 reversed $70 $-1 #
face $-1 $180 $181 $27 $-1 $182 reversed single #
loop $-1 $-1 $183 $72 #
plane-surface $-1 0 -24.654340895107541 0 0 1 0 0 0 1 forward_v I I I I #
coedge $-1 $184 $185 $186 $187 forward $73 $-1 #
coedge $-1 $188 $75 $189 $190 forward $46 $-1 #
coedge $-1 $75 $188 $191 $192 forward $46 $-1 #
coedge $-1 $193 $194 $75 $121 reversed $195 $-1 #
edge $-1 $196 -24.654340895107541 $197 24.654340895107541 $120 $198 forward 7 unknown #
face $-1 $199 $200 $28 $-1 $201 forward single #
loop $-1 $-1 $128 $76 #
plane-surface $-1 0 24.654340895107541 0 0 -1 0 0 0 -1 forward_v I I I I #
coedge $-1 $202 $203 $204 $205 reversed $77 $-1 #
coedge $-1 $127 $79 $206 $207 reversed $49 $-1 #
coedge $-1 $79 $126 $202 $208 reversed $49 $-1 #
coedge $-1 $204 $209 $79 $129 forward $123 $-1 #
edge $-1 $210 46.598102825275497 $211 52.139541597602332 $128 $212 forward 7 unknown #
loop $-1 $-1 $135 $80 #
plane-surface $-1 -43.108195878208505 -14.201430304320333 31.980200016602751 0 0.61566148304635926 0.78801074757464917 1 0 0 forward_v I I I I #
loop $-1 $-1 $213 $51 #
coedge $-1 $133 $133 $134 $214 reversed $81 $-1 #
coedge $-1 $134 $134 $133 $214 forward $83 $-1 #
coedge $-1 $135 $135 $84 $136 forward $130 $-1 #
edge $-1 $215 -2.4492303584834462e-015 $215 6.2831853071795978 $135 $216 forward 7 unknown #
loop $-1 $-1 $142 $85 #
plane-surface $-1 -43.108195878208505 -14.201430304320333 31.980200016602751 0 0.61566148304635926 0.78801074757464917 1 0 0 forward_v I I I I #
loop $-1 $-1 $217 $54 #
coedge $-1 $140 $140 $141 $218 reversed $86 $-1 #
coedge $-1 $141 $141 $140 $218 forward $88 $-1 #
coedge $-1 $142 $142 $89 $143 forward $137 $-1 #
edge $-1 $219 -2.4492303584834462e-015 $219 6.2831853071795978 $142 $220 forward 7 unknown #
loop $-1 $-1 $149 $90 #
plane-surface $-1 -43.108195878208505 -14.201430304320333 31.980200016602751 0 0.61566148304635926 0.78801074757464917 1 0 0 forward_v I I I I #
loop $-1 $-1 $221 $57 #
coedge $-1 $147 $147 $148 $222 reversed $91 $-1 #
coedge $-1 $148 $148 $147 $222 forward $93 $-1 #
coedge $-1 $149 $149 $94 $150 forward $144 $-1 #
edge $-1 $223 -2.4492303584834462e-015 $223 6.2831853071795978 $149 $224 forward 7 unknown #
face $-1 $225 $226 $32 $-1 $227 forward single #
loop $-1 $-1 $228 $95 #
plane-surface $-1 -2.6645352591003757e-015 44.820302031989598 107.5245709123605 1 0 0 0 -0.61566148304635926 -0.78801074757464917 forward_v I I I I #
coedge $-1 $229 $230 $231 $232 reversed $96 $-1 #
coedge $-1 $156 $98 $233 $234 reversed $61 $-1 #
coedge $-1 $98 $155 $229 $235 reversed $61 $-1 #
coedge $-1 $231 $236 $98 $158 forward $237 $-1 #
edge $-1 $238 46.598102825275497 $239 52.139541597602332 $157 $240 forward 7 unknown #
loop $-1 $-1 $164 $99 #
plane-surface $-1 4.8253958451717267 -14.201430304320333 31.980200016602751 0 0.61566148304635926 0.78801074757464917 1 0 0 forward_v I I I I #
loop $-1 $-1 $241 $63 #
coedge $-1 $162 $162 $163 $242 reversed $100 $-1 #
coedge $-1 $163 $163 $162 $242 forward $102 $-1 #
coedge $-1 $164 $164 $103 $165 forward $159 $-1 #
edge $-1 $243 -2.4492303584834462e-015 $243 6.2831853071795978 $164 $244 forward 7 unknown #
loop $-1 $-1 $171 $104 #
plane-surface $-1 4.8253958451717267 -14.201430304320333 31.980200016602751 0 0.61566148304635926 0.78801074757464917 1 0 0 forward_v I I I I #
loop $-1 $-1 $245 $66 #
coedge $-1 $169 $169 $170 $246 reversed $105 $-1 #
coedge $-1 $170 $170 $169 $246 forward $107 $-1 #
coedge $-1 $171 $171 $108 $172 forward $166 $-1 #
edge $-1 $247 -2.4492303584834462e-015 $247 6.2831853071795978 $171 $248 forward 7 unknown #
loop $-1 $-1 $178 $109 #
plane-surface $-1 4.8253958451717267 -14.201430304320333 31.980200016602751 0 0.61566148304635926 0.78801074757464917 1 0 0 forward_v I I I I #
loop $-1 $-1 $249 $69 #
coedge $-1 $176 $176 $177 $250 reversed $110 $-1 #
coedge $-1 $177 $177 $176 $250 forward $112 $-1 #
coedge $-1 $178 $178 $113 $179 forward $173 $-1 #
edge $-1 $251 -2.4492303584834462e-015 $251 6.2831853071795978 $178 $252 forward 7 unknown #
face $-1 $253 $254 $27 $-1 $255 reversed single #
loop $-1 $-1 $256 $114 #
plane-surface $-1 -47.933591723380232 0 0 1 0 0 0 0 -1 forward_v I I I I #
coedge $-1 $257 $191 $258 $259 forward $115 $-1 #
coedge $-1 $260 $117 $257 $261 forward $73 $-1 #
coedge $-1 $117 $260 $262 $263 forward $73 $-1 #
coedge $-1 $194 $193 $117 $187 reversed $195 $-1 #
edge $-1 $264 -24.654340895107541 $265 24.654340895107541 $186 $266 forward 7 unknown #
coedge $-1 $119 $118 $267 $268 forward $46 $-1 #
coedge $-1 $269 $270 $118 $190 reversed $254 $-1 #
edge $-1 $197 -47.933591723380232 $271 47.933591723380232 $189 $272 forward 7 unknown #
coedge $-1 $183 $273 $119 $192 reversed $115 $-1 #
edge $-1 $274 -47.933591723380232 $196 47.933591723380232 $191 $275 forward 7 unknown #
coedge $-1 $186 $120 $273 $276 forward $195 $-1 #
coedge $-1 $120 $186 $269 $277 reversed $195 $-1 #
loop $-1 $-1 $193 $253 #
vertex $-1 $121 $278 #
vertex $-1 $121 $279 #
straight-curve $-1 47.933591723380232 0 7.1641826309047518 0 1 0 I I #
face $-1 $-1 $280 $28 $-1 $281 reversed single #
loop $-1 $-1 $206 $122 #
plane-surface $-1 0 0 7.1641826309047518 0 0 1 1 0 0 forward_v I I I I #
coedge $-1 $282 $125 $127 $208 forward $77 $-1 #
coedge $-1 $125 $282 $283 $284 reversed $77 $-1 #
coedge $-1 $285 $128 $125 $205 forward $123 $-1 #
edge $-1 $211 16.728702093932526 $286 26.379493784275979 $204 $287 forward 7 unknown #
coedge $-1 $288 $289 $126 $207 forward $200 $-1 #
edge $-1 $290 -4.8485281645976386 $210 2.2441898791127421 $206 $291 forward 7 unknown #
edge $-1 $211 -49.308681790215076 $290 -40.30789332947333 $127 $292 forward 7 unknown #
coedge $-1 $128 $285 $288 $293 reversed $123 $-1 #
vertex $-1 $293 $294 #
vertex $-1 $129 $295 #
straight-curve $-1 -38.282800033036779 24.654340895107541 53.762285456180251 0 0 -1 I I #
coedge $-1 $213 $213 $-1 $296 reversed $132 $-1 #
edge $-1 $297 0 $297 6.2831853071796004 $133 $298 forward 7 unknown #
vertex $-1 $136 $299 #
ellipse-curve $-1 -46.003433385311538 21.107981873252349 4.3934632447413442 0 0.61566148304635926 0.78801074757464917 0.5 0 0 1 I I #
coedge $-1 $217 $217 $-1 $300 reversed $139 $-1 #
edge $-1 $301 0 $301 6.2831853071796004 $140 $302 forward 7 unknown #
vertex $-1 $143 $303 #
ellipse-curve $-1 -43.108195878208505 21.107981873252349 4.3934632447413442 0 0.61566148304635926 0.78801074757464917 0.5 0 0 1 I I #
coedge $-1 $221 $221 $-1 $304 reversed $146 $-1 #
edge $-1 $305 0 $305 6.2831853071796004 $147 $306 forward 7 unknown #
vertex $-1 $150 $307 #
ellipse-curve $-1 -40.212958371105465 21.107981873252349 4.3934632447413442 0 0.61566148304635926 0.78801074757464917 0.5 0 0 1 I I #
face $-1 $-1 $237 $32 $-1 $308 reversed single #
loop $-1 $-1 $309 $151 #
plane-surface $-1 0 0 7.1641826309047518 0 0 1 1 0 0 forward_v I I I I #
coedge $-1 $310 $311 $312 $313 reversed $152 $-1 #
coedge $-1 $314 $154 $156 $235 forward $96 $-1 #
coedge $-1 $154 $314 $310 $315 forward $96 $-1 #
coedge $-1 $312 $157 $154 $232 forward $237 $-1 #
edge $-1 $239 -7.2380937677575936 $316 2.412697922585866 $231 $317 forward 7 unknown #
coedge $-1 $318 $319 $155 $234 forward $226 $-1 #
edge $-1 $320 -4.8485281645976386 $238 2.2441898791127421 $233 $321 forward 7 unknown #
edge $-1 $239 -49.308681790215076 $320 -40.30789332947333 $156 $322 forward 7 unknown #
coedge $-1 $157 $312 $318 $323 reversed $237 $-1 #
loop $-1 $-1 $312 $225 #
vertex $-1 $323 $324 #
vertex $-1 $158 $325 #
straight-curve $-1 9.650791690343457 24.654340895107541 53.762285456180251 0 0 -1 I I #
coedge $-1 $241 $241 $-1 $326 reversed $161 $-1 #
edge $-1 $327 0 $327 6.2831853071796004 $162 $328 forward 7 unknown #
vertex $-1 $165 $329 #
ellipse-curve $-1 1.9301583380686935 21.107981873252349 4.3934632447413442 0 0.61566148304635926 0.78801074757464917 0.5 0 0 1 I I #
coedge $-1 $245 $245 $-1 $330 reversed $168 $-1 #
edge $-1 $331 0 $331 6.2831853071796004 $169 $332 forward 7 unknown #
vertex $-1 $172 $333 #
ellipse-curve $-1 4.8253958451717267 21.107981873252349 4.3934632447413442 0 0.61566148304635926 0.78801074757464917 0.5 0 0 1 I I #
coedge $-1 $249 $249 $-1 $334 reversed $175 $-1 #
edge $-1 $335 0 $335 6.2831853071796004 $176 $336 forward 7 unknown #
vertex $-1 $179 $337 #
ellipse-curve $-1 7.720633352274767 21.107981873252349 4.3934632447413442 0 0.61566148304635926 0.78801074757464917 0.5 0 0 1 I I #
face $-1 $-1 $195 $27 $-1 $338 reversed single #
loop $-1 $-1 $269 $180 #
plane-surface $-1 0 24.654340895107541 0 0 -1 0 0 0 -1 forward_v I I I I #
coedge $-1 $339 $267 $270 $340 forward $181 $-1 #
coedge $-1 $273 $183 $184 $261 reversed $115 $-1 #
coedge $-1 $267 $339 $183 $259 reversed $181 $-1 #
edge $-1 $274 -7.1641826309047518 $341 7.1641826309047518 $258 $342 forward 7 unknown #
coedge $-1 $185 $184 $339 $343 forward $73 $-1 #
edge $-1 $265 -47.933591723380232 $341 47.933591723380232 $257 $344 forward 7 unknown #
coedge $-1 $270 $269 $185 $263 reversed $254 $-1 #
edge $-1 $345 -47.933591723380232 $264 47.933591723380232 $262 $346 forward 7 unknown #
vertex $-1 $187 $347 #
vertex $-1 $276 $348 #
straight-curve $-1 47.933591723380232 0 -7.1641826309047518 0 -1 0 I I #
coedge $-1 $256 $258 $188 $268 reversed $181 $-1 #
edge $-1 $271 -24.654340895107541 $274 24.654340895107541 $267 $349 forward 7 unknown #
coedge $-1 $262 $189 $194 $277 forward $254 $-1 #
coedge $-1 $189 $262 $256 $340 reversed $254 $-1 #
vertex $-1 $190 $350 #
straight-curve $-1 0 24.654340895107541 7.1641826309047518 -1 0 0 I I #
coedge $-1 $191 $257 $193 $276 reversed $115 $-1 #
vertex $-1 $268 $351 #
straight-curve $-1 0 -24.654340895107541 7.1641826309047518 1 0 0 I I #
edge $-1 $196 -7.1641826309047518 $265 7.1641826309047518 $193 $352 forward 7 unknown #
edge $-1 $197 -7.1641826309047518 $264 7.1641826309047518 $194 $353 forward 7 unknown #
point $-1 47.933591723380232 -24.654340895107541 7.1641826309047518 #
point $-1 47.933591723380232 24.654340895107541 7.1641826309047518 #
loop $-1 $-1 $283 $199 #
plane-surface $-1 -47.933591723380232 0 0 1 0 0 0 0 -1 forward_v I I I I #
coedge $-1 $203 $202 $289 $354 reversed $77 $-1 #
coedge $-1 $355 $356 $203 $284 forward $280 $-1 #
edge $-1 $286 -33.868753249676281 $357 -24.867964788934533 $283 $358 forward 7 unknown #
coedge $-1 $209 $204 $356 $359 reversed $123 $-1 #
vertex $-1 $205 $360 #
straight-curve $-1 -21.554097939104253 24.654340895107541 1.6227438585779268 -1 0 0 I I #
coedge $-1 $361 $206 $209 $293 forward $200 $-1 #
coedge $-1 $206 $361 $282 $354 forward $200 $-1 #
vertex $-1 $207 $362 #
straight-curve $-1 -38.282800033036779 22.410151015994799 7.1641826309047545 0 1 0 I I #
straight-curve $-1 -38.282800033036779 -14.201430304320333 31.980200016602751 0 -0.78801074757464917 0.61566148304635926 I I #
edge $-1 $210 38.282800033036779 $363 47.933591723380232 $209 $364 forward 7 unknown #
point $-1 -38.282800033036779 24.654340895107541 7.1641826309047518 #
point $-1 -38.282800033036779 24.654340895107545 1.6227438585779232 #
edge $-1 $365 1 $365 0 $213 $-1 forward 7 unknown #
vertex $-1 $214 $366 #
ellipse-curve $-1 -46.003433385311538 20.41744594305062 3.5096175770005154 0 0.61566148304635926 0.78801074757464917 0.5 0 0 1 I I #
point $-1 -45.503433385311538 21.107981873252342 4.3934632447413371 #
edge $-1 $367 1 $367 0 $217 $-1 forward 7 unknown #
vertex $-1 $218 $368 #
ellipse-curve $-1 -43.108195878208505 20.41744594305062 3.5096175770005154 0 0.61566148304635926 0.78801074757464917 0.5 0 0 1 I I #
point $-1 -42.608195878208505 21.107981873252342 4.3934632447413371 #
edge $-1 $369 1 $369 0 $221 $-1 forward 7 unknown #
vertex $-1 $222 $370 #
ellipse-curve $-1 -40.212958371105465 20.41744594305062 3.5096175770005154 0 0.61566148304635926 0.78801074757464917 0.5 0 0 1 I I #
point $-1 -39.712958371105465 21.107981873252342 4.3934632447413371 #
plane-surface $-1 0 24.654340895107541 0 0 -1 0 0 0 -1 forward_v I I I I #
coedge $-1 $319 $318 $311 $371 forward $226 $-1 #
coedge $-1 $311 $228 $230 $315 reversed $152 $-1 #
coedge $-1 $228 $310 $309 $371 reversed $152 $-1 #
coedge $-1 $236 $231 $228 $313 forward $237 $-1 #
edge $-1 $316 -52.139541597602332 $372 -46.598102825275497 $312 $373 forward 7 unknown #
coedge $-1 $230 $229 $319 $374 reversed $96 $-1 #
edge $-1 $375 40.30789332947333 $316 49.308681790215076 $310 $376 forward 7 unknown #
vertex $-1 $232 $377 #
straight-curve $-1 2.4126979225858634 24.654340895107541 1.6227438585779268 -1 0 0 I I #
coedge $-1 $309 $233 $236 $323 forward $226 $-1 #
coedge $-1 $233 $309 $314 $374 forward $226 $-1 #
vertex $-1 $234 $378 #
straight-curve $-1 9.650791690343457 22.410151015994799 7.1641826309047545 0 1 0 I I #
straight-curve $-1 9.650791690343457 -14.201430304320333 31.980200016602751 0 -0.78801074757464917 0.61566148304635926 I I #
edge $-1 $238 -9.650791690343457 $372 2.6645352591003757e-015 $236 $379 forward 7 unknown #
point $-1 9.650791690343457 24.654340895107541 7.1641826309047518 #
point $-1 9.650791690343457 24.654340895107545 1.6227438585779232 #
edge $-1 $380 1 $380 0 $241 $-1 forward 7 unknown #
vertex $-1 $242 $381 #
ellipse-curve $-1 1.9301583380686935 20.41744594305062 3.5096175770005154 0 0.61566148304635926 0.78801074757464917 0.5 0 0 1 I I #
point $-1 2.4301583380686935 21.107981873252342 4.3934632447413371 #
edge $-1 $382 1 $382 0 $245 $-1 forward 7 unknown #
vertex $-1 $246 $383 #
ellipse-curve $-1 4.8253958451717267 20.41744594305062 3.5096175770005154 0 0.61566148304635926 0.78801074757464917 0.5 0 0 1 I I #
point $-1 5.3253958451717267 21.107981873252342 4.3934632447413371 #
edge $-1 $384 1 $384 0 $249 $-1 forward 7 unknown #
vertex $-1 $250 $385 #
ellipse-curve $-1 7.720633352274767 20.41744594305062 3.5096175770005154 0 0.61566148304635926 0.78801074757464917 0.5 0 0 1 I I #
point $-1 8.220633352274767 21.107981873252342 4.3934632447413371 #
plane-surface $-1 47.933591723380232 0 0 -1 0 0 0 0 1 forward_v I I I I #
coedge $-1 $258 $256 $260 $343 reversed $181 $-1 #
edge $-1 $271 -7.1641826309047518 $345 7.1641826309047518 $270 $386 forward 7 unknown #
vertex $-1 $343 $387 #
straight-curve $-1 -47.933591723380232 -24.654340895107541 0 0 0 -1 I I #
edge $-1 $341 -24.654340895107541 $345 24.654340895107541 $339 $388 forward 7 unknown #
straight-curve $-1 0 -24.654340895107541 -7.1641826309047518 -1 0 0 I I #
vertex $-1 $263 $389 #
straight-curve $-1 0 24.654340895107541 -7.1641826309047518 1 0 0 I I #
point $-1 47.933591723380232 24.654340895107541 -7.1641826309047518 #
point $-1 47.933591723380232 -24.654340895107541 -7.1641826309047518 #
straight-curve $-1 -47.933591723380232 0 7.1641826309047518 0 -1 0 I I #
point $-1 -47.933591723380232 24.654340895107541 7.1641826309047518 #
point $-1 -47.933591723380232 -24.654340895107541 7.1641826309047518 #
straight-curve $-1 47.933591723380232 -24.654340895107541 0 0 0 -1 I I #
straight-curve $-1 47.933591723380232 24.654340895107541 0 0 0 -1 I I #
edge $-1 $357 -26.379493784275979 $290 -16.728702093932526 $289 $390 forward 7 unknown #
coedge $-1 $356 $283 $361 $391 reversed $280 $-1 #
coedge $-1 $283 $355 $285 $359 forward $280 $-1 #
vertex $-1 $284 $392 #
straight-curve $-1 -47.933591723380232 -2.0346006725911936 22.474430713204825 0 -0.78801074757464917 0.61566148304635926 I I #
edge $-1 $363 -7.1641826309047518 $286 -1.622743858577925 $285 $393 forward 7 unknown #
point $-1 -47.933591723380232 24.654340895107541 1.622743858577925 #
coedge $-1 $289 $288 $355 $391 forward $200 $-1 #
point $-1 -38.282800033036779 17.561622851397161 7.1641826309047474 #
vertex $-1 $293 $394 #
straight-curve $-1 0 24.654340895107541 7.1641826309047518 -1 0 0 I I #
vertex $-1 $296 $395 #
point $-1 -45.503433385311538 20.41744594305062 3.5096175770005154 #
vertex $-1 $300 $396 #
point $-1 -42.608195878208505 20.41744594305062 3.5096175770005154 #
vertex $-1 $304 $397 #
point $-1 -39.712958371105465 20.41744594305062 3.5096175770005154 #
edge $-1 $372 -2.2441898791127421 $375 4.8485281645976386 $309 $398 forward 7 unknown #
vertex $-1 $371 $399 #
straight-curve $-1 -2.6645352591003757e-015 24.654340895107541 53.762285456180251 0 0 1 I I #
edge $-1 $375 -2.412697922585866 $320 7.2380937677575936 $319 $400 forward 7 unknown #
vertex $-1 $374 $401 #
straight-curve $-1 -2.6645352591003757e-015 -14.201430304320333 31.980200016602751 0 0.78801074757464917 -0.61566148304635926 I I #
point $-1 -2.6645352591003757e-015 24.654340895107545 1.6227438585779232 #
point $-1 9.650791690343457 17.561622851397161 7.1641826309047474 #
straight-curve $-1 0 24.654340895107541 7.1641826309047518 -1 0 0 I I #
vertex $-1 $326 $402 #
point $-1 2.4301583380686935 20.41744594305062 3.5096175770005154 #
vertex $-1 $330 $403 #
point $-1 5.3253958451717267 20.41744594305062 3.5096175770005154 #
vertex $-1 $334 $404 #
point $-1 8.220633352274767 20.41744594305062 3.5096175770005154 #
straight-curve $-1 -47.933591723380232 24.654340895107541 0 0 0 -1 I I #
point $-1 -47.933591723380232 -24.654340895107541 -7.1641826309047518 #
straight-curve $-1 -47.933591723380232 0 -7.1641826309047518 0 1 0 I I #
point $-1 -47.933591723380232 24.654340895107541 -7.1641826309047518 #
straight-curve $-1 -21.554097939104253 17.561622851397161 7.1641826309047509 1 0 0 I I #
edge $-1 $363 -24.654340895107541 $357 -17.561622851397161 $355 $405 forward 7 unknown #
point $-1 -47.933591723380232 17.561622851397161 7.1641826309047474 #
straight-curve $-1 -47.933591723380232 24.654340895107541 0 0 0 -1 I I #
point $-1 -47.933591723380232 24.654340895107541 7.1641826309047518 #
point $-1 -46.003433385311538 20.109615201527443 3.1156122032131908 #
point $-1 -43.108195878208505 20.109615201527443 3.1156122032131908 #
point $-1 -40.212958371105465 20.109615201527443 3.1156122032131908 #
straight-curve $-1 -2.6645352591003757e-015 22.410151015994799 7.1641826309047545 0 -1 0 I I #
point $-1 -2.6645352591003757e-015 24.654340895107541 7.1641826309047518 #
straight-curve $-1 2.4126979225858634 17.561622851397161 7.1641826309047509 1 0 0 I I #
point $-1 -2.6645352591003757e-015 17.561622851397161 7.1641826309047474 #
point $-1 1.9301583380686935 20.109615201527443 3.1156122032131908 #
point $-1 4.8253958451717267 20.109615201527443 3.1156122032131908 #
point $-1 7.720633352274767 20.109615201527443 3.1156122032131908 #
straight-curve $-1 -47.933591723380232 0 7.1641826309047518 0 -1 0 I I #
End-of-ACIS-data 