500 0 10 0           
7 Unknown 11 ACIS 5.0 NT 24 Thu Mar 25 15:35:54 1999 
-1 9.9999999999999995e-007 1e-010 
body $-1 $10 $-1 $11 #
body $-1 $12 $-1 $13 #
body $-1 $14 $-1 $15 #
body $-1 $16 $-1 $17 #
body $-1 $18 $-1 $19 #
body $-1 $20 $-1 $21 #
body $-1 $22 $-1 $23 #
body $-1 $24 $-1 $25 #
body $-1 $26 $-1 $27 #
body $-1 $28 $-1 $29 #
lump $-1 $-1 $30 $0 #
transform $-1 1 0 0 0 1 0 0 0 1 41.839655751213108 28.484854410340805 13.017996606184685 1 rotate no_reflect no_shear #
lump $-1 $-1 $31 $1 #
transform $-1 1 0 0 0 1 0 0 0 1 41.839655751213108 28.484854410340805 13.017996606184685 1 rotate no_reflect no_shear #
lump $-1 $-1 $32 $2 #
transform $-1 1 0 0 0 1 0 0 0 1 41.839655751213108 28.484854410340805 13.017996606184685 1 rotate no_reflect no_shear #
lump $-1 $-1 $33 $3 #
transform $-1 1 0 0 0 1 0 0 0 1 41.839655751213108 28.484854410340805 13.017996606184685 1 rotate no_reflect no_shear #
lump $-1 $-1 $34 $4 #
transform $-1 1 0 0 0 1 0 0 0 1 41.839655751213108 28.484854410340805 13.017996606184685 1 rotate no_reflect no_shear #
lump $-1 $-1 $35 $5 #
transform $-1 1 0 0 0 1 0 0 0 1 41.839655751213108 28.484854410340805 13.017996606184685 1 rotate no_reflect no_shear #
lump $-1 $-1 $36 $6 #
transform $-1 1 0 0 0 1 0 0 0 1 41.839655751213108 28.484854410340805 13.017996606184685 1 rotate no_reflect no_shear #
lump $-1 $-1 $37 $7 #
transform $-1 1 0 0 0 1 0 0 0 1 41.839655751213108 28.484854410340805 13.017996606184685 1 rotate no_reflect no_shear #
lump $-1 $-1 $38 $8 #
transform $-1 1 0 0 0 1 0 0 0 1 41.839655751213108 28.484854410340805 13.017996606184685 1 rotate no_reflect no_shear #
lump $-1 $-1 $39 $9 #
transform $-1 1 0 0 0 1 0 0 0 1 41.839655751213108 28.484854410340805 13.017996606184685 1 rotate no_reflect no_shear #
shell $-1 $-1 $-1 $40 $-1 $10 #
shell $-1 $-1 $-1 $41 $-1 $12 #
shell $-1 $-1 $-1 $42 $-1 $14 #
shell $-1 $-1 $-1 $43 $-1 $16 #
shell $-1 $-1 $-1 $44 $-1 $18 #
shell $-1 $-1 $-1 $45 $-1 $20 #
shell $-1 $-1 $-1 $46 $-1 $22 #
shell $-1 $-1 $-1 $47 $-1 $24 #
shell $-1 $-1 $-1 $48 $-1 $26 #
shell $-1 $-1 $-1 $49 $-1 $28 #
face $-1 $50 $51 $30 $-1 $52 reversed single #
face $-1 $53 $54 $31 $-1 $55 forward single #
face $-1 $56 $57 $32 $-1 $58 forward single #
face $-1 $59 $60 $33 $-1 $61 reversed single #
face $-1 $62 $63 $34 $-1 $64 forward single #
face $-1 $65 $66 $35 $-1 $67 forward single #
face $-1 $68 $69 $36 $-1 $70 forward single #
face $-1 $71 $72 $37 $-1 $73 reversed single #
face $-1 $74 $75 $38 $-1 $76 forward single #
face $-1 $77 $78 $39 $-1 $79 forward single #
face $-1 $80 $81 $30 $-1 $82 forward single #
loop $-1 $-1 $83 $40 #
plane-surface $-1 41.839655751213108 0 0 -1 0 0 0 0 1 forward_v I I I I #
face $-1 $84 $85 $31 $-1 $86 reversed single #
loop $-1 $-1 $87 $41 #
plane-surface $-1 -36.805854264986962 0 10.148251915096342 0 0 1 1 0 0 forward_v I I I I #
face $-1 $88 $89 $32 $-1 $90 reversed single #
loop $-1 $-1 $91 $42 #
plane-surface $-1 41.839655751213108 0 0 -1 0 0 0 0 1 forward_v I I I I #
face $-1 $92 $93 $33 $-1 $94 reversed single #
loop $-1 $-1 $95 $43 #
plane-surface $-1 -3.4790045636683615 52.550527162536341 100.62733738270228 1 0 0 0 -0.74314483375859142 -0.66913059716165679 forward_v I I I I #
face $-1 $96 $97 $34 $-1 $98 forward single #
loop $-1 $99 $100 $44 #
cone-surface $-1 -0.58821954296400492 22.592327727365642 6.6978604735477205 0 -0.74314483375859142 -0.66913059716165679 1 0 0 1 I I 0 1 1 forward I I I I #
face $-1 $101 $102 $35 $-1 $103 forward single #
loop $-1 $104 $105 $45 #
cone-surface $-1 3.7479579880925229 22.592327727365642 6.6978604735477205 0 -0.74314483375859142 -0.66913059716165679 1 0 0 1 I I 0 1 1 forward I I I I #
face $-1 $106 $107 $36 $-1 $108 forward single #
loop $-1 $109 $110 $46 #
cone-surface $-1 8.0841355191490507 22.592327727365642 6.6978604735477205 0 -0.74314483375859142 -0.66913059716165679 1 0 0 1 I I 0 1 1 forward I I I I #
face $-1 $111 $112 $37 $-1 $113 reversed single #
loop $-1 $-1 $114 $47 #
plane-surface $-1 6.5251050741510035 -91.638433161249907 55.717323573626913 -1 0 0 0 -0.75470958851134928 0.65605901945558964 forward_v I I I I #
face $-1 $115 $116 $38 $-1 $117 forward single #
loop $-1 $118 $119 $48 #
cone-surface $-1 -5.946847437727584 -20.210891204115836 4.3351654476139814 0 0.75470958851134928 -0.65605901945558964 2 0 0 1 I I 0 1 2 forward I I I I #
face $-1 $120 $121 $39 $-1 $122 forward single #
loop $-1 $123 $124 $49 #
cone-surface $-1 1.5363240693995692 -20.210891204115836 4.3351654476139814 0 0.75470958851134928 -0.65605901945558964 2 0 0 1 I I 0 1 2 forward I I I I #
face $-1 $125 $126 $30 $-1 $127 reversed single #
loop $-1 $-1 $128 $50 #
plane-surface $-1 0 0 13.017996606184685 0 0 1 1 0 0 forward_v I I I I #
coedge $-1 $129 $130 $131 $132 reversed $51 $-1 #
face $-1 $133 $134 $31 $-1 $135 reversed single #
loop $-1 $-1 $136 $53 #
plane-surface $-1 -36.805854264986962 0 7.1482519150963419 0 0 1 1 0 0 forward_v I I I I #
coedge $-1 $137 $138 $139 $140 forward $54 $-1 #
face $-1 $141 $142 $32 $-1 $143 forward single #
loop $-1 $-1 $144 $56 #
plane-surface $-1 0 28.484854410340805 0 0 -1 0 0 0 -1 forward_v I I I I #
coedge $-1 $145 $146 $147 $148 forward $57 $-1 #
face $-1 $149 $150 $33 $-1 $151 reversed single #
loop $-1 $-1 $152 $59 #
plane-surface $-1 3.7479579880925229 -9.6353208729675757 44.634949707007529 0 0.74314483375859142 0.66913059716165679 1 0 0 forward_v I I I I #
coedge $-1 $153 $154 $155 $156 reversed $60 $-1 #
face $-1 $-1 $157 $34 $-1 $158 forward single #
loop $-1 $159 $160 $62 #
cone-surface $-1 -0.58821954296400492 21.154300403250001 5.4030548873289028 0 -0.74314483375859142 -0.66913059716165679 0.5 0 0 1 I I -0.70710678118654746 0.70710678118654746 0.5 forward I I I I #
loop $-1 $-1 $161 $44 #
coedge $-1 $100 $100 $162 $163 reversed $63 $-1 #
face $-1 $-1 $164 $35 $-1 $165 forward single #
loop $-1 $166 $167 $65 #
cone-surface $-1 3.7479579880925229 21.154300403250001 5.4030548873289028 0 -0.74314483375859142 -0.66913059716165679 0.5 0 0 1 I I -0.70710678118654746 0.70710678118654746 0.5 forward I I I I #
loop $-1 $-1 $168 $45 #
coedge $-1 $105 $105 $169 $170 reversed $66 $-1 #
face $-1 $-1 $171 $36 $-1 $172 forward single #
loop $-1 $173 $174 $68 #
cone-surface $-1 8.0841355191490507 21.154300403250001 5.4030548873289028 0 -0.74314483375859142 -0.66913059716165679 0.5 0 0 1 I I -0.70710678118654746 0.70710678118654746 0.5 forward I I I I #
loop $-1 $-1 $175 $46 #
coedge $-1 $110 $110 $176 $177 reversed $69 $-1 #
face $-1 $178 $179 $37 $-1 $180 reversed single #
loop $-1 $-1 $181 $71 #
plane-surface $-1 -2.2052616841640074 -28.484854410340802 0.81875652062632298 0 -0.75470958851134928 0.65605901945558964 1 0 0 forward_v I I I I #
coedge $-1 $182 $183 $184 $185 reversed $72 $-1 #
face $-1 $-1 $186 $38 $-1 $187 forward single #
loop $-1 $188 $189 $74 #
cone-surface $-1 -5.946847437727584 -16.484537082991011 1.0958953123668724 0 0.75470958851134928 -0.65605901945558964 1 0 0 1 I I -0.70710678118654746 0.70710678118654746 1 forward I I I I #
loop $-1 $-1 $190 $48 #
coedge $-1 $119 $119 $191 $192 reversed $75 $-1 #
face $-1 $-1 $193 $39 $-1 $194 forward single #
loop $-1 $195 $196 $77 #
cone-surface $-1 1.5363240693995692 -16.484537082991011 1.0958953123668724 0 0.75470958851134928 -0.65605901945558964 1 0 0 1 I I -0.70710678118654746 0.70710678118654746 1 forward I I I I #
loop $-1 $-1 $197 $49 #
coedge $-1 $124 $124 $198 $199 reversed $78 $-1 #
face $-1 $200 $201 $30 $-1 $202 reversed single #
loop $-1 $-1 $203 $80 #
plane-surface $-1 0 0 -13.017996606184685 0 0 1 1 0 0 forward_v I I I I #
coedge $-1 $204 $205 $129 $206 forward $81 $-1 #
coedge $-1 $207 $83 $128 $206 reversed $51 $-1 #
coedge $-1 $83 $207 $203 $208 reversed $51 $-1 #
coedge $-1 $209 $210 $83 $132 forward $211 $-1 #
edge $-1 $212 -13.017996606184685 $213 13.017996606184685 $83 $214 forward 7 unknown #
face $-1 $215 $216 $31 $-1 $217 reversed single #
loop $-1 $-1 $218 $84 #
plane-surface $-1 -31.772052778760816 0 8.6482519150963419 -1 0 0 0 0 1 forward_v I I I I #
coedge $-1 $219 $220 $221 $222 forward $85 $-1 #
coedge $-1 $223 $87 $224 $225 reversed $54 $-1 #
coedge $-1 $87 $223 $226 $227 reversed $54 $-1 #
coedge $-1 $218 $228 $87 $140 reversed $134 $-1 #
edge $-1 $229 -28.484854410340805 $230 28.484854410340805 $139 $231 forward 7 unknown #
face $-1 $232 $233 $32 $-1 $234 reversed single #
loop $-1 $-1 $235 $88 #
plane-surface $-1 49.29746962652208 0 -2.916988536087175 0 0 1 1 0 0 forward_v I I I I #
coedge $-1 $236 $237 $146 $238 forward $89 $-1 #
coedge $-1 $239 $91 $240 $241 reversed $57 $-1 #
coedge $-1 $91 $239 $144 $238 reversed $57 $-1 #
coedge $-1 $242 $243 $91 $148 reversed $233 $-1 #
edge $-1 $244 -28.484854410340805 $245 28.484854410340805 $147 $246 forward 7 unknown #
face $-1 $247 $248 $33 $-1 $249 reversed single #
loop $-1 $-1 $250 $92 #
plane-surface $-1 10.974920539853407 52.550527162536341 100.62733738270228 -1 0 0 0 0.74314483375859142 0.66913059716165679 forward_v I I I I #
coedge $-1 $251 $252 $253 $254 reversed $93 $-1 #
coedge $-1 $154 $95 $255 $256 reversed $60 $-1 #
coedge $-1 $95 $153 $251 $257 reversed $60 $-1 #
coedge $-1 $253 $258 $95 $156 forward $259 $-1 #
edge $-1 $260 -2.2095908290726349 $261 7.4425527224049723 $155 $262 forward 7 unknown #
loop $-1 $-1 $162 $96 #
plane-surface $-1 3.7479579880925229 -9.6353208729675757 44.634949707007529 0 0.74314483375859142 0.66913059716165679 1 0 0 forward_v I I I I #
loop $-1 $-1 $263 $62 #
coedge $-1 $160 $160 $161 $264 reversed $97 $-1 #
coedge $-1 $161 $161 $160 $264 forward $99 $-1 #
coedge $-1 $162 $162 $100 $163 forward $157 $-1 #
edge $-1 $265 5.2590278156781236e-016 $265 6.2831853071796013 $162 $266 forward 7 unknown #
loop $-1 $-1 $169 $101 #
plane-surface $-1 3.7479579880925229 -9.6353208729675757 44.634949707007529 0 0.74314483375859142 0.66913059716165679 1 0 0 forward_v I I I I #
loop $-1 $-1 $267 $65 #
coedge $-1 $167 $167 $168 $268 reversed $102 $-1 #
coedge $-1 $168 $168 $167 $268 forward $104 $-1 #
coedge $-1 $169 $169 $105 $170 forward $164 $-1 #
edge $-1 $269 5.2590278156781236e-016 $269 6.2831853071796013 $169 $270 forward 7 unknown #
loop $-1 $-1 $176 $106 #
plane-surface $-1 3.7479579880925229 -9.6353208729675757 44.634949707007529 0 0.74314483375859142 0.66913059716165679 1 0 0 forward_v I I I I #
loop $-1 $-1 $271 $68 #
coedge $-1 $174 $174 $175 $272 reversed $107 $-1 #
coedge $-1 $175 $175 $174 $272 forward $109 $-1 #
coedge $-1 $176 $176 $110 $177 forward $171 $-1 #
edge $-1 $273 5.2590278156781236e-016 $273 6.2831853071796013 $176 $274 forward 7 unknown #
face $-1 $275 $276 $37 $-1 $277 forward single #
loop $-1 $-1 $278 $111 #
plane-surface $-1 -10.935628442479018 -91.638433161249907 55.717323573626913 1 0 0 0 0.75470958851134928 -0.65605901945558964 forward_v I I I I #
coedge $-1 $279 $280 $281 $282 reversed $112 $-1 #
coedge $-1 $183 $114 $283 $284 reversed $72 $-1 #
coedge $-1 $114 $182 $279 $285 reversed $72 $-1 #
coedge $-1 $281 $286 $114 $185 forward $276 $-1 #
edge $-1 $287 17.334362170284148 $288 27.938999517507135 $184 $289 forward 7 unknown #
loop $-1 $-1 $191 $115 #
plane-surface $-1 -2.2052616841640074 -28.484854410340802 0.81875652062632298 0 -0.75470958851134928 0.65605901945558964 1 0 0 forward_v I I I I #
loop $-1 $-1 $290 $74 #
coedge $-1 $189 $189 $190 $291 reversed $116 $-1 #
coedge $-1 $190 $190 $189 $291 forward $118 $-1 #
coedge $-1 $191 $191 $119 $192 forward $186 $-1 #
edge $-1 $292 -3.35158384828271e-016 $292 6.2831853071796004 $191 $293 forward 7 unknown #
loop $-1 $-1 $198 $120 #
plane-surface $-1 -2.2052616841640074 -28.484854410340802 0.81875652062632298 0 -0.75470958851134928 0.65605901945558964 1 0 0 forward_v I I I I #
loop $-1 $-1 $294 $77 #
coedge $-1 $196 $196 $197 $295 reversed $121 $-1 #
coedge $-1 $197 $197 $196 $295 forward $123 $-1 #
coedge $-1 $198 $198 $124 $199 forward $193 $-1 #
edge $-1 $296 -3.35158384828271e-016 $296 6.2831853071796004 $198 $297 forward 7 unknown #
face $-1 $298 $299 $30 $-1 $300 reversed single #
loop $-1 $-1 $301 $125 #
plane-surface $-1 0 -28.484854410340805 0 0 1 0 0 0 1 forward_v I I I I #
coedge $-1 $302 $303 $130 $208 forward $126 $-1 #
coedge $-1 $304 $128 $210 $305 forward $81 $-1 #
coedge $-1 $128 $304 $306 $307 forward $81 $-1 #
edge $-1 $308 -28.484854410340805 $212 28.484854410340805 $129 $309 forward 7 unknown #
coedge $-1 $130 $129 $310 $311 forward $51 $-1 #
edge $-1 $213 -28.484854410340805 $312 28.484854410340805 $130 $313 forward 7 unknown #
coedge $-1 $314 $131 $303 $315 reversed $211 $-1 #
coedge $-1 $131 $314 $204 $305 reversed $211 $-1 #
loop $-1 $-1 $131 $298 #
vertex $-1 $206 $316 #
vertex $-1 $208 $317 #
straight-curve $-1 41.839655751213108 28.484854410340805 0 0 0 -1 I I #
face $-1 $318 $319 $31 $-1 $320 reversed single #
loop $-1 $-1 $321 $133 #
plane-surface $-1 0 -28.484854410340805 0 0 1 0 0 0 1 forward_v I I I I #
coedge $-1 $221 $139 $322 $323 reversed $134 $-1 #
coedge $-1 $324 $136 $321 $325 reversed $85 $-1 #
coedge $-1 $136 $324 $326 $327 reversed $85 $-1 #
coedge $-1 $228 $218 $136 $222 reversed $134 $-1 #
edge $-1 $328 -28.484854410340805 $329 28.484854410340805 $221 $330 forward 7 unknown #
coedge $-1 $138 $137 $331 $332 reversed $54 $-1 #
coedge $-1 $333 $334 $137 $225 forward $335 $-1 #
edge $-1 $336 -23.436728618719627 $230 -13.369125646267335 $224 $337 forward 7 unknown #
coedge $-1 $338 $322 $138 $227 forward $216 $-1 #
edge $-1 $229 13.369125646267335 $339 23.436728618719627 $226 $340 forward 7 unknown #
coedge $-1 $139 $221 $333 $341 reversed $134 $-1 #
vertex $-1 $227 $342 #
vertex $-1 $225 $343 #
straight-curve $-1 -31.772052778760816 0 10.148251915096342 0 1 0 I I #
face $-1 $344 $345 $32 $-1 $346 reversed single #
loop $-1 $-1 $347 $141 #
plane-surface $-1 49.29746962652208 0 -9.3088260615934146 0 0 1 1 0 0 forward_v I I I I #
coedge $-1 $348 $349 $350 $351 forward $142 $-1 #
coedge $-1 $352 $144 $348 $353 reversed $89 $-1 #
coedge $-1 $144 $352 $242 $354 reversed $89 $-1 #
edge $-1 $244 -9.3088260615934146 $355 -2.916988536087175 $144 $356 forward 7 unknown #
coedge $-1 $146 $145 $357 $358 forward $57 $-1 #
coedge $-1 $359 $360 $145 $241 forward $361 $-1 #
edge $-1 $362 2.916988536087175 $245 9.3088260615934146 $240 $363 forward 7 unknown #
coedge $-1 $347 $147 $237 $354 forward $233 $-1 #
coedge $-1 $147 $347 $359 $364 forward $233 $-1 #
vertex $-1 $238 $365 #
vertex $-1 $241 $366 #
straight-curve $-1 41.839655751213108 0 -9.3088260615934146 0 -1 0 I I #
face $-1 $-1 $259 $33 $-1 $367 forward single #
loop $-1 $-1 $368 $149 #
plane-surface $-1 0 28.484854410340805 0 0 -1 0 0 0 -1 forward_v I I I I #
coedge $-1 $369 $370 $371 $372 reversed $150 $-1 #
coedge $-1 $373 $152 $154 $257 forward $93 $-1 #
coedge $-1 $152 $373 $369 $374 forward $93 $-1 #
coedge $-1 $371 $155 $152 $254 forward $259 $-1 #
edge $-1 $261 -5.352983557714623 $375 9.1009415458071459 $253 $376 forward 7 unknown #
coedge $-1 $377 $378 $153 $256 forward $248 $-1 #
edge $-1 $379 -48.015463775164392 $260 -37.295672085166458 $255 $380 forward 7 unknown #
edge $-1 $261 42.544806428801095 $379 56.969708820681589 $154 $381 forward 7 unknown #
coedge $-1 $155 $371 $377 $382 forward $259 $-1 #
loop $-1 $-1 $371 $247 #
vertex $-1 $256 $383 #
vertex $-1 $156 $384 #
straight-curve $-1 -3.4790045636683615 26.27526358126817 13.017996606184681 0 -1 0 I I #
coedge $-1 $263 $263 $-1 $385 reversed $159 $-1 #
edge $-1 $386 0 $386 6.2831853071796004 $160 $387 forward 7 unknown #
vertex $-1 $163 $388 #
ellipse-curve $-1 -0.58821954296400492 23.658782634601998 7.6581007611857181 0 0.74314483375859142 0.66913059716165679 1 0 0 1 I I #
coedge $-1 $267 $267 $-1 $389 reversed $166 $-1 #
edge $-1 $390 0 $390 6.2831853071796004 $167 $391 forward 7 unknown #
vertex $-1 $170 $392 #
ellipse-curve $-1 3.7479579880925229 23.658782634601998 7.6581007611857181 0 0.74314483375859142 0.66913059716165679 1 0 0 1 I I #
coedge $-1 $271 $271 $-1 $393 reversed $173 $-1 #
edge $-1 $394 0 $394 6.2831853071796004 $174 $395 forward 7 unknown #
vertex $-1 $177 $396 #
ellipse-curve $-1 8.0841355191490507 23.658782634601998 7.6581007611857181 0 0.74314483375859142 0.66913059716165679 1 0 0 1 I I #
face $-1 $-1 $397 $37 $-1 $398 reversed single #
loop $-1 $-1 $184 $178 #
plane-surface $-1 0 0 13.017996606184685 0 0 1 1 0 0 forward_v I I I I #
coedge $-1 $399 $400 $401 $402 reversed $179 $-1 #
coedge $-1 $403 $181 $183 $285 forward $112 $-1 #
coedge $-1 $181 $403 $399 $404 forward $112 $-1 #
coedge $-1 $401 $184 $181 $282 forward $276 $-1 #
edge $-1 $288 -7.6277359162330072 $405 9.8329976003970145 $281 $406 forward 7 unknown #
coedge $-1 $407 $408 $182 $284 forward $397 $-1 #
edge $-1 $409 -27.039905266187137 $287 -14.840665180628772 $283 $410 forward 7 unknown #
edge $-1 $288 -16.164151444824149 $409 5.4310049121818252e-015 $183 $411 forward 7 unknown #
coedge $-1 $184 $401 $407 $412 forward $276 $-1 #
vertex $-1 $185 $413 #
vertex $-1 $185 $414 #
straight-curve $-1 6.5251050741510035 -45.819216580624953 13.017996606184685 0 1 0 I I #
coedge $-1 $290 $290 $-1 $415 reversed $188 $-1 #
edge $-1 $416 0 $416 6.2831853071796004 $189 $417 forward 7 unknown #
vertex $-1 $192 $418 #
ellipse-curve $-1 -5.946847437727584 -23.182535736729314 6.9183765634055021 0 -0.75470958851134928 0.65605901945558964 2 0 0 1 I I #
coedge $-1 $294 $294 $-1 $419 reversed $195 $-1 #
edge $-1 $420 0 $420 6.2831853071796004 $196 $421 forward 7 unknown #
vertex $-1 $199 $422 #
ellipse-curve $-1 1.5363240693995692 -23.182535736729314 6.9183765634055021 0 -0.75470958851134928 0.65605901945558964 2 0 0 1 I I #
face $-1 $-1 $211 $30 $-1 $423 reversed single #
loop $-1 $-1 $424 $200 #
plane-surface $-1 -41.839655751213108 0 0 1 0 0 0 0 -1 forward_v I I I I #
coedge $-1 $425 $306 $426 $427 forward $201 $-1 #
coedge $-1 $428 $203 $425 $429 forward $126 $-1 #
coedge $-1 $203 $428 $209 $315 forward $126 $-1 #
coedge $-1 $205 $204 $430 $431 forward $81 $-1 #
edge $-1 $212 -41.839655751213108 $432 41.839655751213108 $210 $433 forward 7 unknown #
coedge $-1 $301 $310 $205 $307 reversed $201 $-1 #
edge $-1 $434 -41.839655751213108 $308 41.839655751213108 $306 $435 forward 7 unknown #
vertex $-1 $206 $436 #
straight-curve $-1 41.839655751213108 0 13.017996606184685 0 1 0 I I #
coedge $-1 $306 $425 $207 $311 reversed $201 $-1 #
edge $-1 $308 -13.017996606184685 $312 13.017996606184685 $207 $437 forward 7 unknown #
vertex $-1 $311 $438 #
straight-curve $-1 41.839655751213108 0 -13.017996606184685 0 -1 0 I I #
coedge $-1 $210 $209 $424 $439 reversed $211 $-1 #
edge $-1 $440 -41.839655751213108 $213 41.839655751213108 $209 $441 forward 7 unknown #
point $-1 41.839655751213108 28.484854410340805 13.017996606184685 #
point $-1 41.839655751213108 28.484854410340805 -13.017996606184685 #
face $-1 $-1 $335 $31 $-1 $442 reversed single #
loop $-1 $-1 $443 $215 #
plane-surface $-1 -41.839655751213108 0 0 1 0 0 0 0 -1 forward_v I I I I #
coedge $-1 $322 $338 $219 $325 forward $216 $-1 #
coedge $-1 $226 $321 $218 $323 forward $216 $-1 #
edge $-1 $329 2.824125957548171 $229 5.824125957548171 $322 $444 forward 7 unknown #
coedge $-1 $220 $219 $443 $445 reversed $85 $-1 #
edge $-1 $446 -23.436728618719627 $329 -13.369125646267335 $321 $447 forward 7 unknown #
coedge $-1 $334 $333 $220 $327 forward $335 $-1 #
edge $-1 $328 13.369125646267335 $448 23.436728618719627 $326 $449 forward 7 unknown #
vertex $-1 $327 $450 #
vertex $-1 $325 $451 #
straight-curve $-1 -31.772052778760816 0 7.1482519150963419 0 -1 0 I I #
coedge $-1 $452 $453 $223 $332 forward $319 $-1 #
edge $-1 $339 -28.484854410340805 $336 28.484854410340805 $331 $454 forward 7 unknown #
coedge $-1 $326 $224 $228 $341 forward $335 $-1 #
coedge $-1 $224 $326 $452 $455 reversed $335 $-1 #
loop $-1 $-1 $326 $318 #
vertex $-1 $455 $456 #
straight-curve $-1 -18.402927132493481 28.484854410340805 10.148251915096342 1 0 0 I I #
coedge $-1 $321 $226 $453 $457 forward $216 $-1 #
vertex $-1 $457 $458 #
straight-curve $-1 -18.402927132493481 -28.484854410340805 10.148251915096342 -1 0 0 I I #
edge $-1 $230 -5.824125957548171 $328 -2.824125957548171 $333 $459 forward 7 unknown #
point $-1 -31.772052778760816 -28.484854410340805 10.148251915096342 #
point $-1 -31.772052778760816 28.484854410340805 10.148251915096342 #
face $-1 $-1 $361 $32 $-1 $460 reversed single #
loop $-1 $-1 $461 $232 #
plane-surface $-1 56.755283501831052 0 -6.1129072988402946 -1 0 0 0 0 1 forward_v I I I I #
coedge $-1 $243 $242 $462 $463 forward $233 $-1 #
coedge $-1 $357 $235 $236 $353 forward $142 $-1 #
coedge $-1 $235 $357 $360 $464 forward $142 $-1 #
coedge $-1 $461 $465 $235 $351 reversed $345 $-1 #
edge $-1 $466 -28.484854410340805 $467 28.484854410340805 $350 $468 forward 7 unknown #
coedge $-1 $237 $236 $465 $469 forward $89 $-1 #
edge $-1 $467 -7.4578138753089718 $355 7.4578138753089718 $236 $470 forward 7 unknown #
edge $-1 $244 -7.4578138753089718 $471 7.4578138753089718 $237 $472 forward 7 unknown #
vertex $-1 $353 $473 #
straight-curve $-1 41.839655751213108 28.484854410340805 0 0 0 1 I I #
coedge $-1 $349 $348 $239 $358 reversed $142 $-1 #
edge $-1 $362 -28.484854410340805 $355 28.484854410340805 $357 $474 forward 7 unknown #
coedge $-1 $475 $240 $243 $364 reversed $361 $-1 #
coedge $-1 $240 $475 $349 $464 reversed $361 $-1 #
loop $-1 $-1 $240 $344 #
vertex $-1 $241 $476 #
straight-curve $-1 41.839655751213108 -28.484854410340805 0 0 0 -1 I I #
edge $-1 $477 -7.4578138753089718 $245 7.4578138753089718 $359 $478 forward 7 unknown #
point $-1 41.839655751213108 28.484854410340805 -9.3088260615934146 #
point $-1 41.839655751213108 -28.484854410340805 -9.3088260615934146 #
plane-surface $-1 0 0 13.017996606184685 0 0 1 1 0 0 forward_v I I I I #
coedge $-1 $378 $377 $370 $479 forward $248 $-1 #
coedge $-1 $370 $250 $252 $374 reversed $150 $-1 #
coedge $-1 $250 $369 $368 $479 reversed $150 $-1 #
coedge $-1 $258 $253 $250 $372 forward $259 $-1 #
edge $-1 $375 -7.4425527224049723 $480 2.2095908290726349 $371 $481 forward 7 unknown #
coedge $-1 $252 $251 $378 $482 reversed $93 $-1 #
edge $-1 $483 -56.969708820681589 $375 -42.544806428801095 $369 $484 forward 7 unknown #
vertex $-1 $254 $485 #
straight-curve $-1 1.8739789940462614 18.832710858863198 13.017996606184685 1 0 0 I I #
coedge $-1 $368 $255 $258 $382 reversed $248 $-1 #
coedge $-1 $255 $368 $373 $482 forward $248 $-1 #
vertex $-1 $256 $486 #
straight-curve $-1 -3.4790045636683615 28.484854410340805 50.31366869135114 0 0 1 I I #
straight-curve $-1 -3.4790045636683615 -9.6353208729675757 44.634949707007529 0 0.66913059716165679 -0.74314483375859142 I I #
edge $-1 $480 -10.974920539853407 $260 3.4790045636683615 $377 $487 forward 7 unknown #
point $-1 -3.4790045636683615 28.484854410340805 13.017996606184685 #
point $-1 -3.4790045636683615 18.832710858863198 13.017996606184688 #
edge $-1 $488 1 $488 0 $263 $-1 forward 7 unknown #
vertex $-1 $264 $489 #
ellipse-curve $-1 -0.58821954296400492 21.525872820129297 5.7376201859097309 0 0.74314483375859142 0.66913059716165679 1 0 0 1 I I #
point $-1 0.41178045703599508 23.658782634601991 7.658100761185711 #
edge $-1 $490 1 $490 0 $267 $-1 forward 7 unknown #
vertex $-1 $268 $491 #
ellipse-curve $-1 3.7479579880925229 21.525872820129297 5.7376201859097309 0 0.74314483375859142 0.66913059716165679 1 0 0 1 I I #
point $-1 4.7479579880925229 23.658782634601991 7.658100761185711 #
edge $-1 $492 1 $492 0 $271 $-1 forward 7 unknown #
vertex $-1 $272 $493 #
ellipse-curve $-1 8.0841355191490507 21.525872820129297 5.7376201859097309 0 0.74314483375859142 0.66913059716165679 1 0 0 1 I I #
point $-1 9.0841355191490507 23.658782634601991 7.658100761185711 #
loop $-1 $-1 $283 $275 #
plane-surface $-1 0 -28.484854410340805 0 0 1 0 0 0 1 forward_v I I I I #
coedge $-1 $400 $278 $280 $404 reversed $179 $-1 #
coedge $-1 $278 $399 $494 $495 reversed $179 $-1 #
coedge $-1 $286 $281 $278 $402 forward $276 $-1 #
edge $-1 $405 -27.938999517507135 $496 -17.334362170284148 $401 $497 forward 7 unknown #
coedge $-1 $280 $279 $408 $498 reversed $112 $-1 #
edge $-1 $499 -5.4310049121818252e-015 $405 16.164151444824149 $399 $500 forward 7 unknown #
vertex $-1 $282 $501 #
straight-curve $-1 -1.1026308420820037 -17.880217063117819 13.017996606184685 -1 0 0 I I #
coedge $-1 $494 $283 $286 $412 reversed $397 $-1 #
coedge $-1 $283 $494 $403 $498 forward $397 $-1 #
vertex $-1 $284 $502 #
straight-curve $-1 6.5251050741510035 -28.484854410340805 27.858661786813457 0 0 1 I I #
straight-curve $-1 6.5251050741510035 -28.484854410340802 0.81875652062632298 0 -0.65605901945558964 -0.75470958851134928 I I #
edge $-1 $496 -10.935628442479018 $287 6.5251050741510035 $407 $503 forward 7 unknown #
point $-1 6.5251050741510035 -28.484854410340805 13.017996606184685 #
point $-1 6.5251050741510035 -17.880217063117819 13.017996606184685 #
edge $-1 $504 1 $504 0 $290 $-1 forward 7 unknown #
vertex $-1 $291 $505 #
ellipse-curve $-1 -5.946847437727584 -17.239246671502361 1.751954331822462 0 -0.75470958851134928 0.65605901945558964 2 0 0 1 I I #
point $-1 -3.946847437727584 -23.182535736729314 6.9183765634055012 #
edge $-1 $506 1 $506 0 $294 $-1 forward 7 unknown #
vertex $-1 $295 $507 #
ellipse-curve $-1 1.5363240693995692 -17.239246671502361 1.751954331822462 0 -0.75470958851134928 0.65605901945558964 2 0 0 1 I I #
point $-1 3.5363240693995692 -23.182535736729314 6.9183765634055012 #
plane-surface $-1 0 28.484854410340805 0 0 -1 0 0 0 -1 forward_v I I I I #
coedge $-1 $508 $430 $314 $439 forward $299 $-1 #
coedge $-1 $310 $301 $302 $429 reversed $201 $-1 #
coedge $-1 $430 $508 $301 $427 reversed $299 $-1 #
edge $-1 $434 -13.017996606184685 $509 13.017996606184685 $426 $510 forward 7 unknown #
coedge $-1 $303 $302 $508 $511 forward $126 $-1 #
edge $-1 $312 -41.839655751213108 $509 41.839655751213108 $425 $512 forward 7 unknown #
coedge $-1 $424 $426 $304 $431 reversed $299 $-1 #
edge $-1 $432 -28.484854410340805 $434 28.484854410340805 $430 $513 forward 7 unknown #
vertex $-1 $305 $514 #
straight-curve $-1 0 28.484854410340805 13.017996606184685 -1 0 0 I I #
vertex $-1 $431 $515 #
straight-curve $-1 0 -28.484854410340805 13.017996606184685 1 0 0 I I #
point $-1 41.839655751213108 -28.484854410340805 13.017996606184685 #
straight-curve $-1 41.839655751213108 -28.484854410340805 0 0 0 -1 I I #
point $-1 41.839655751213108 -28.484854410340805 -13.017996606184685 #
edge $-1 $432 -13.017996606184685 $440 13.017996606184685 $314 $516 forward 7 unknown #
vertex $-1 $315 $517 #
straight-curve $-1 0 28.484854410340805 -13.017996606184685 1 0 0 I I #
plane-surface $-1 0 28.484854410340805 0 0 -1 0 0 0 -1 forward_v I I I I #
coedge $-1 $453 $452 $324 $445 forward $319 $-1 #
straight-curve $-1 -31.772052778760816 -28.484854410340805 4.324125957548171 0 0 1 I I #
edge $-1 $448 -28.484854410340805 $446 28.484854410340805 $443 $518 forward 7 unknown #
vertex $-1 $325 $519 #
straight-curve $-1 -18.402927132493481 -28.484854410340805 7.1482519150963419 1 0 0 I I #
vertex $-1 $327 $520 #
straight-curve $-1 -18.402927132493481 28.484854410340805 7.1482519150963419 -1 0 0 I I #
point $-1 -31.772052778760816 28.484854410340805 7.1482519150963419 #
point $-1 -31.772052778760816 -28.484854410340805 7.1482519150963419 #
coedge $-1 $443 $331 $334 $455 forward $319 $-1 #
coedge $-1 $331 $443 $338 $457 reversed $319 $-1 #
straight-curve $-1 -41.839655751213108 0 10.148251915096342 0 1 0 I I #
edge $-1 $336 -10.148251915096342 $448 -7.1482519150963419 $334 $521 forward 7 unknown #
point $-1 -41.839655751213108 28.484854410340805 10.148251915096342 #
edge $-1 $339 -10.148251915096342 $446 -7.1482519150963419 $453 $522 forward 7 unknown #
point $-1 -41.839655751213108 -28.484854410340805 10.148251915096342 #
straight-curve $-1 -31.772052778760816 28.484854410340805 4.324125957548171 0 0 -1 I I #
plane-surface $-1 0 -28.484854410340805 0 0 1 0 0 0 1 forward_v I I I I #
coedge $-1 $462 $350 $475 $523 forward $345 $-1 #
coedge $-1 $465 $461 $347 $463 reversed $345 $-1 #
edge $-1 $471 -28.484854410340805 $477 28.484854410340805 $462 $524 forward 7 unknown #
edge $-1 $362 -7.4578138753089718 $466 7.4578138753089718 $360 $525 forward 7 unknown #
coedge $-1 $350 $462 $352 $469 reversed $345 $-1 #
vertex $-1 $351 $526 #
vertex $-1 $351 $527 #
straight-curve $-1 56.755283501831052 0 -2.916988536087175 0 1 0 I I #
edge $-1 $467 -3.1959187627531196 $471 3.19591876275312 $465 $528 forward 7 unknown #
straight-curve $-1 49.29746962652208 28.484854410340805 -2.916988536087175 -1 0 0 I I #
vertex $-1 $463 $529 #
straight-curve $-1 49.29746962652208 28.484854410340805 -9.3088260615934146 1 0 0 I I #
point $-1 41.839655751213108 28.484854410340805 -2.916988536087175 #
straight-curve $-1 41.839655751213108 0 -2.916988536087175 0 1 0 I I #
coedge $-1 $360 $359 $461 $523 reversed $361 $-1 #
point $-1 41.839655751213108 -28.484854410340805 -2.916988536087175 #
vertex $-1 $523 $530 #
straight-curve $-1 49.29746962652208 -28.484854410340805 -9.3088260615934146 -1 0 0 I I #
edge $-1 $480 37.295672085166458 $483 48.015463775164392 $368 $531 forward 7 unknown #
vertex $-1 $382 $532 #
straight-curve $-1 10.974920539853407 26.27526358126817 13.017996606184681 0 1 0 I I #
edge $-1 $483 -9.1009415458071459 $379 5.352983557714623 $378 $533 forward 7 unknown #
vertex $-1 $482 $534 #
straight-curve $-1 10.974920539853407 -9.6353208729675757 44.634949707007529 0 -0.66913059716165679 0.74314483375859142 I I #
point $-1 10.974920539853407 18.832710858863198 13.017996606184688 #
point $-1 -3.4790045636683615 28.484854410340809 2.2982049161867479 #
straight-curve $-1 0 28.484854410340805 13.017996606184685 -1 0 0 I I #
vertex $-1 $385 $535 #
point $-1 0.41178045703599508 21.525872820129297 5.7376201859097309 #
vertex $-1 $389 $536 #
point $-1 4.7479579880925229 21.525872820129297 5.7376201859097309 #
vertex $-1 $393 $537 #
point $-1 9.0841355191490507 21.525872820129297 5.7376201859097309 #
coedge $-1 $408 $407 $400 $495 forward $397 $-1 #
edge $-1 $496 14.840665180628772 $499 27.039905266187137 $494 $538 forward 7 unknown #
vertex $-1 $412 $539 #
straight-curve $-1 -10.935628442479018 -45.819216580624953 13.017996606184685 0 -1 0 I I #
edge $-1 $499 -9.8329976003970145 $409 7.6277359162330072 $408 $540 forward 7 unknown #
vertex $-1 $498 $541 #
straight-curve $-1 -10.935628442479018 -28.484854410340802 0.81875652062632298 0 0.65605901945558964 0.75470958851134928 I I #
point $-1 -10.935628442479018 -17.880217063117819 13.017996606184685 #
point $-1 6.5251050741510035 -28.484854410340805 0.81875652062631887 #
straight-curve $-1 0 -28.484854410340805 13.017996606184685 1 0 0 I I #
vertex $-1 $415 $542 #
point $-1 -3.946847437727584 -17.239246671502361 1.751954331822462 #
vertex $-1 $419 $543 #
point $-1 3.5363240693995692 -17.239246671502361 1.751954331822462 #
coedge $-1 $426 $424 $428 $511 reversed $299 $-1 #
vertex $-1 $511 $544 #
straight-curve $-1 -41.839655751213108 -28.484854410340805 0 0 0 -1 I I #
edge $-1 $509 -28.484854410340805 $440 28.484854410340805 $508 $545 forward 7 unknown #
straight-curve $-1 0 -28.484854410340805 -13.017996606184685 -1 0 0 I I #
straight-curve $-1 -41.839655751213108 0 13.017996606184685 0 -1 0 I I #
point $-1 -41.839655751213108 28.484854410340805 13.017996606184685 #
point $-1 -41.839655751213108 -28.484854410340805 13.017996606184685 #
straight-curve $-1 -41.839655751213108 28.484854410340805 0 0 0 -1 I I #
point $-1 -41.839655751213108 28.484854410340805 -13.017996606184685 #
straight-curve $-1 -41.839655751213108 0 7.1482519150963419 0 -1 0 I I #
point $-1 -41.839655751213108 -28.484854410340805 7.1482519150963419 #
point $-1 -41.839655751213108 28.484854410340805 7.1482519150963419 #
straight-curve $-1 -41.839655751213108 28.484854410340805 0 0 0 -1 I I #
straight-curve $-1 -41.839655751213108 -28.484854410340805 0 0 0 -1 I I #
edge $-1 $466 -3.1959187627531196 $477 3.19591876275312 $461 $546 forward 7 unknown #
straight-curve $-1 56.755283501831052 0 -9.3088260615934146 0 -1 0 I I #
straight-curve $-1 49.29746962652208 -28.484854410340805 -2.916988536087175 1 0 0 I I #
point $-1 56.755283501831052 -28.484854410340805 -2.916988536087175 #
point $-1 56.755283501831052 28.484854410340805 -2.916988536087175 #
straight-curve $-1 56.755283501831052 28.484854410340805 -6.1129072988402946 0 0 -1 I I #
point $-1 56.755283501831052 28.484854410340805 -9.3088260615934146 #
point $-1 56.755283501831052 -28.484854410340805 -9.3088260615934146 #
straight-curve $-1 10.974920539853407 28.484854410340805 50.31366869135114 0 0 -1 I I #
point $-1 10.974920539853407 28.484854410340805 13.017996606184685 #
straight-curve $-1 1.8739789940462614 28.484854410340802 2.2982049161867479 -1 0 0 I I #
point $-1 10.974920539853407 28.484854410340809 2.2982049161867479 #
point $-1 -0.58821954296400492 20.782727986370706 5.0684895887480748 #
point $-1 3.7479579880925229 20.782727986370706 5.0684895887480748 #
point $-1 8.0841355191490507 20.782727986370706 5.0684895887480748 #
straight-curve $-1 -10.935628442479018 -28.484854410340805 27.858661786813457 0 0 -1 I I #
point $-1 -10.935628442479018 -28.484854410340805 13.017996606184685 #
straight-curve $-1 -1.1026308420820037 -28.484854410340805 0.81875652062631654 1 0 0 I I #
point $-1 -10.935628442479018 -28.484854410340805 0.81875652062631887 #
point $-1 -5.946847437727584 -15.729827494479661 0.43983629291128279 #
point $-1 1.5363240693995692 -15.729827494479661 0.43983629291128279 #
point $-1 -41.839655751213108 -28.484854410340805 -13.017996606184685 #
straight-curve $-1 -41.839655751213108 0 -13.017996606184685 0 1 0 I I #
straight-curve $-1 56.755283501831052 -28.484854410340805 -6.1129072988402946 0 0 -1 I I #
End-of-ACIS-data 