500 0 10 0           
7 Unknown 11 ACIS 5.0 NT 24 Fri Mar 26 19:41:59 1999 
-1 9.9999999999999995e-007 1e-010 
body $-1 $10 $-1 $11 #
body $-1 $12 $-1 $13 #
body $-1 $14 $-1 $15 #
body $-1 $16 $-1 $17 #
body $-1 $18 $-1 $19 #
body $-1 $20 $-1 $21 #
body $-1 $22 $-1 $23 #
body $-1 $24 $-1 $25 #
body $-1 $26 $-1 $27 #
body $-1 $28 $-1 $29 #
lump $-1 $-1 $30 $0 #
transform $-1 1 0 0 0 1 0 0 0 1 46.612750633259068 25.64490801007155 9.84386606885821 1 rotate no_reflect no_shear #
lump $-1 $-1 $31 $1 #
transform $-1 1 0 0 0 1 0 0 0 1 46.612750633259068 25.64490801007155 9.84386606885821 1 rotate no_reflect no_shear #
lump $-1 $-1 $32 $2 #
transform $-1 1 0 0 0 1 0 0 0 1 46.612750633259068 25.64490801007155 9.84386606885821 1 rotate no_reflect no_shear #
lump $-1 $-1 $33 $3 #
transform $-1 1 0 0 0 1 0 0 0 1 46.612750633259068 25.64490801007155 9.84386606885821 1 rotate no_reflect no_shear #
lump $-1 $-1 $34 $4 #
transform $-1 1 0 0 0 1 0 0 0 1 46.612750633259068 25.64490801007155 9.84386606885821 1 rotate no_reflect no_shear #
lump $-1 $-1 $35 $5 #
transform $-1 1 0 0 0 1 0 0 0 1 46.612750633259068 25.64490801007155 9.84386606885821 1 rotate no_reflect no_shear #
lump $-1 $-1 $36 $6 #
transform $-1 1 0 0 0 1 0 0 0 1 46.612750633259068 25.64490801007155 9.84386606885821 1 rotate no_reflect no_shear #
lump $-1 $-1 $37 $7 #
transform $-1 1 0 0 0 1 0 0 0 1 46.612750633259068 25.64490801007155 9.84386606885821 1 rotate no_reflect no_shear #
lump $-1 $-1 $38 $8 #
transform $-1 1 0 0 0 1 0 0 0 1 46.612750633259068 25.64490801007155 9.84386606885821 1 rotate no_reflect no_shear #
lump $-1 $-1 $39 $9 #
transform $-1 1 0 0 0 1 0 0 0 1 46.612750633259068 25.64490801007155 9.84386606885821 1 rotate no_reflect no_shear #
shell $-1 $-1 $-1 $40 $-1 $10 #
shell $-1 $-1 $-1 $41 $-1 $12 #
shell $-1 $-1 $-1 $42 $-1 $14 #
shell $-1 $-1 $-1 $43 $-1 $16 #
shell $-1 $-1 $-1 $44 $-1 $18 #
shell $-1 $-1 $-1 $45 $-1 $20 #
shell $-1 $-1 $-1 $46 $-1 $22 #
shell $-1 $-1 $-1 $47 $-1 $24 #
shell $-1 $-1 $-1 $48 $-1 $26 #
shell $-1 $-1 $-1 $49 $-1 $28 #
face $-1 $50 $51 $30 $-1 $52 forward single #
face $-1 $53 $54 $31 $-1 $55 forward single #
face $-1 $56 $57 $32 $-1 $58 reversed single #
face $-1 $59 $60 $33 $-1 $61 forward single #
face $-1 $62 $63 $34 $-1 $64 forward single #
face $-1 $65 $66 $35 $-1 $67 forward single #
face $-1 $68 $69 $36 $-1 $70 reversed single #
face $-1 $71 $72 $37 $-1 $73 forward single #
face $-1 $74 $75 $38 $-1 $76 forward single #
face $-1 $77 $78 $39 $-1 $79 forward single #
face $-1 $80 $81 $30 $-1 $82 reversed single #
loop $-1 $-1 $83 $40 #
plane-surface $-1 0 0 9.84386606885821 0 0 1 1 0 0 forward_v I I I I #
face $-1 $84 $85 $31 $-1 $86 reversed single #
loop $-1 $-1 $87 $41 #
plane-surface $-1 0 -20.903503434094493 -2.8029630117573565 0 0 1 1 0 0 forward_v I I I I #
face $-1 $88 $89 $32 $-1 $90 reversed single #
loop $-1 $-1 $91 $42 #
plane-surface $-1 -102.71725854660423 15.176025585095136 80.430899826181999 0 1 0 -0.6018150307709319 0 0.79863550430605224 forward_v I I I I #
face $-1 $92 $93 $33 $-1 $94 forward single #
loop $-1 $95 $96 $43 #
cone-surface $-1 -43.746558395708725 17.269802070090417 7.5114675862819675 0.6018150307709319 0 -0.79863550430605224 0.39931775215302612 0 0.30090751538546595 1 I I 0 1 0.5 forward I I I I #
face $-1 $97 $98 $34 $-1 $99 forward single #
loop $-1 $100 $101 $44 #
cone-surface $-1 -43.746558395708725 20.410466797583343 7.5114675862819675 0.6018150307709319 0 -0.79863550430605224 0.39931775215302612 0 0.30090751538546595 1 I I 0 1 0.5 forward I I I I #
face $-1 $102 $103 $35 $-1 $104 forward single #
loop $-1 $105 $106 $45 #
cone-surface $-1 -43.746558395708725 23.551131525076269 7.5114675862819675 0.6018150307709319 0 -0.79863550430605224 0.39931775215302612 0 0.30090751538546595 1 I I 0 1 0.5 forward I I I I #
face $-1 $107 $108 $36 $-1 $109 reversed single #
loop $-1 $-1 $110 $46 #
plane-surface $-1 78.507921151667446 -1.5132659919645182 133.24097280826047 0 -1 0 -0.85716730853699208 0 -0.51503806187062418 forward_v I I I I #
face $-1 $111 $112 $37 $-1 $113 forward single #
loop $-1 $114 $115 $47 #
cone-surface $-1 44.553815811824812 -7.5353155629244242 7.1602961518552304 -0.85716730853699208 0 -0.51503806187062418 0.25751903093531209 0 -0.42858365426849604 1 I I 0 1 0.5 forward I I I I #
face $-1 $116 $117 $38 $-1 $118 forward single #
loop $-1 $119 $120 $48 #
cone-surface $-1 44.553815811824812 -5.277046973814457 7.1602961518552304 -0.85716730853699208 0 -0.51503806187062418 0.25751903093531209 0 -0.42858365426849604 1 I I 0 1 0.5 forward I I I I #
face $-1 $121 $122 $39 $-1 $123 forward single #
loop $-1 $124 $125 $49 #
cone-surface $-1 44.553815811824812 -3.0187783847044898 7.1602961518552304 -0.85716730853699208 0 -0.51503806187062418 0.25751903093531209 0 -0.42858365426849604 1 I I 0 1 0.5 forward I I I I #
face $-1 $126 $127 $30 $-1 $128 reversed single #
loop $-1 $-1 $129 $50 #
plane-surface $-1 0 0 -9.84386606885821 0 0 1 1 0 0 forward_v I I I I #
coedge $-1 $130 $131 $132 $133 forward $51 $-1 #
face $-1 $134 $135 $31 $-1 $136 reversed single #
loop $-1 $-1 $137 $53 #
plane-surface $-1 0 -20.903503434094493 -8.5935608228856868 0 0 1 1 0 0 forward_v I I I I #
coedge $-1 $138 $139 $140 $141 reversed $54 $-1 #
face $-1 $142 $143 $32 $-1 $144 forward single #
loop $-1 $-1 $145 $56 #
plane-surface $-1 -46.612750633259061 20.410466797583343 5.9777046080117771 -0.6018150307709319 0 0.79863550430605224 0.79863550430605224 0 0.6018150307709319 forward_v I I I I #
coedge $-1 $146 $147 $148 $149 reversed $57 $-1 #
face $-1 $-1 $150 $33 $-1 $151 forward single #
loop $-1 $152 $153 $59 #
cone-surface $-1 -43.295197122630526 17.269802070090417 6.9124909580524285 0.6018150307709319 0 -0.79863550430605224 0.19965887607651306 0 0.15045375769273298 1 I I -0.70710678118654746 0.70710678118654746 0.25 forward I I I I #
loop $-1 $-1 $154 $43 #
coedge $-1 $96 $96 $155 $156 reversed $60 $-1 #
face $-1 $-1 $157 $34 $-1 $158 forward single #
loop $-1 $159 $160 $62 #
cone-surface $-1 -43.295197122630526 20.410466797583343 6.9124909580524285 0.6018150307709319 0 -0.79863550430605224 0.19965887607651306 0 0.15045375769273298 1 I I -0.70710678118654746 0.70710678118654746 0.25 forward I I I I #
loop $-1 $-1 $161 $44 #
coedge $-1 $101 $101 $162 $163 reversed $63 $-1 #
face $-1 $-1 $164 $35 $-1 $165 forward single #
loop $-1 $166 $167 $65 #
cone-surface $-1 -43.295197122630526 23.551131525076269 6.9124909580524285 0.6018150307709319 0 -0.79863550430605224 0.19965887607651306 0 0.15045375769273298 1 I I -0.70710678118654746 0.70710678118654746 0.25 forward I I I I #
loop $-1 $-1 $168 $45 #
coedge $-1 $106 $106 $169 $170 reversed $66 $-1 #
face $-1 $171 $172 $36 $-1 $173 reversed single #
loop $-1 $-1 $174 $68 #
plane-surface $-1 -1.4019308559658583 -5.2770469738144605 85.226291319035539 0.85716730853699208 0 0.51503806187062418 0.51503806187062418 0 -0.85716730853699208 forward_v I I I I #
coedge $-1 $175 $176 $177 $178 reversed $69 $-1 #
face $-1 $-1 $179 $37 $-1 $180 forward single #
loop $-1 $181 $182 $71 #
cone-surface $-1 43.640765338431038 -7.5353155629244242 6.6116800981125667 -0.85716730853699208 0 -0.51503806187062418 0.12875951546765604 0 -0.21429182713424802 1 I I -0.70710678118654746 0.70710678118654746 0.25 forward I I I I #
loop $-1 $-1 $183 $47 #
coedge $-1 $115 $115 $184 $185 reversed $72 $-1 #
face $-1 $-1 $186 $38 $-1 $187 forward single #
loop $-1 $188 $189 $74 #
cone-surface $-1 43.640765338431038 -5.277046973814457 6.6116800981125667 -0.85716730853699208 0 -0.51503806187062418 0.12875951546765604 0 -0.21429182713424802 1 I I -0.70710678118654746 0.70710678118654746 0.25 forward I I I I #
loop $-1 $-1 $190 $48 #
coedge $-1 $120 $120 $191 $192 reversed $75 $-1 #
face $-1 $-1 $193 $39 $-1 $194 forward single #
loop $-1 $195 $196 $77 #
cone-surface $-1 43.640765338431038 -3.0187783847044898 6.6116800981125667 -0.85716730853699208 0 -0.51503806187062418 0.12875951546765604 0 -0.21429182713424802 1 I I -0.70710678118654746 0.70710678118654746 0.25 forward I I I I #
loop $-1 $-1 $197 $49 #
coedge $-1 $125 $125 $198 $199 reversed $78 $-1 #
face $-1 $200 $201 $30 $-1 $202 reversed single #
loop $-1 $-1 $203 $80 #
plane-surface $-1 0 -25.64490801007155 0 0 1 0 0 0 1 forward_v I I I I #
coedge $-1 $204 $205 $206 $207 forward $81 $-1 #
coedge $-1 $208 $83 $209 $210 forward $51 $-1 #
coedge $-1 $83 $208 $211 $212 forward $51 $-1 #
coedge $-1 $213 $214 $83 $133 reversed $215 $-1 #
edge $-1 $216 -25.64490801007155 $217 25.64490801007155 $132 $218 forward 7 unknown #
face $-1 $219 $220 $31 $-1 $221 reversed single #
loop $-1 $-1 $222 $84 #
plane-surface $-1 0 -16.162098858117435 -5.6982619173215214 0 -1 0 0 0 -1 forward_v I I I I #
coedge $-1 $223 $224 $225 $226 reversed $85 $-1 #
coedge $-1 $227 $87 $228 $229 forward $54 $-1 #
coedge $-1 $87 $227 $230 $231 reversed $54 $-1 #
coedge $-1 $232 $233 $87 $141 forward $234 $-1 #
edge $-1 $235 5.7103471410701889 $236 15.193156293024304 $140 $237 forward 7 unknown #
face $-1 $238 $239 $32 $-1 $240 reversed single #
loop $-1 $-1 $148 $88 #
plane-surface $-1 0 0 9.84386606885821 0 0 1 1 0 0 forward_v I I I I #
coedge $-1 $241 $242 $243 $244 reversed $89 $-1 #
coedge $-1 $147 $91 $245 $246 reversed $57 $-1 #
coedge $-1 $91 $146 $241 $247 reversed $57 $-1 #
coedge $-1 $243 $248 $91 $149 forward $143 $-1 #
edge $-1 $249 4.7458786400430455 $250 9.8764480843728109 $148 $251 forward 7 unknown #
loop $-1 $-1 $155 $92 #
plane-surface $-1 -46.612750633259061 20.410466797583343 5.9777046080117771 -0.6018150307709319 0 0.79863550430605224 0.79863550430605224 0 0.6018150307709319 forward_v I I I I #
loop $-1 $-1 $252 $59 #
coedge $-1 $153 $153 $154 $253 reversed $93 $-1 #
coedge $-1 $154 $154 $153 $253 forward $95 $-1 #
coedge $-1 $155 $155 $96 $156 forward $150 $-1 #
edge $-1 $254 0 $254 6.2831853071796004 $155 $255 forward 7 unknown #
loop $-1 $-1 $162 $97 #
plane-surface $-1 -46.612750633259061 20.410466797583343 5.9777046080117771 -0.6018150307709319 0 0.79863550430605224 0.79863550430605224 0 0.6018150307709319 forward_v I I I I #
loop $-1 $-1 $256 $62 #
coedge $-1 $160 $160 $161 $257 reversed $98 $-1 #
coedge $-1 $161 $161 $160 $257 forward $100 $-1 #
coedge $-1 $162 $162 $101 $163 forward $157 $-1 #
edge $-1 $258 0 $258 6.2831853071796004 $162 $259 forward 7 unknown #
loop $-1 $-1 $169 $102 #
plane-surface $-1 -46.612750633259061 20.410466797583343 5.9777046080117771 -0.6018150307709319 0 0.79863550430605224 0.79863550430605224 0 0.6018150307709319 forward_v I I I I #
loop $-1 $-1 $260 $65 #
coedge $-1 $167 $167 $168 $261 reversed $103 $-1 #
coedge $-1 $168 $168 $167 $261 forward $105 $-1 #
coedge $-1 $169 $169 $106 $170 forward $164 $-1 #
edge $-1 $262 0 $262 6.2831853071796004 $169 $263 forward 7 unknown #
face $-1 $264 $265 $36 $-1 $266 reversed single #
loop $-1 $-1 $267 $107 #
plane-surface $-1 78.507921151667446 -9.0408279556644029 133.24097280826047 0 1 0 0.85716730853699208 0 0.51503806187062418 forward_v I I I I #
coedge $-1 $268 $269 $270 $271 reversed $108 $-1 #
coedge $-1 $176 $110 $272 $273 reversed $69 $-1 #
coedge $-1 $110 $175 $268 $274 reversed $69 $-1 #
coedge $-1 $270 $275 $110 $178 forward $276 $-1 #
edge $-1 $277 -7.3587900574253453 $278 -4.6384377070758802 $177 $279 forward 7 unknown #
loop $-1 $-1 $184 $111 #
plane-surface $-1 -1.4019308559658583 -5.2770469738144605 85.226291319035539 0.85716730853699208 0 0.51503806187062418 0.51503806187062418 0 -0.85716730853699208 forward_v I I I I #
loop $-1 $-1 $280 $71 #
coedge $-1 $182 $182 $183 $281 reversed $112 $-1 #
coedge $-1 $183 $183 $182 $281 forward $114 $-1 #
coedge $-1 $184 $184 $115 $185 forward $179 $-1 #
edge $-1 $282 0 $282 6.2831853071796004 $184 $283 forward 7 unknown #
loop $-1 $-1 $191 $116 #
plane-surface $-1 -1.4019308559658583 -5.2770469738144605 85.226291319035539 0.85716730853699208 0 0.51503806187062418 0.51503806187062418 0 -0.85716730853699208 forward_v I I I I #
loop $-1 $-1 $284 $74 #
coedge $-1 $189 $189 $190 $285 reversed $117 $-1 #
coedge $-1 $190 $190 $189 $285 forward $119 $-1 #
coedge $-1 $191 $191 $120 $192 forward $186 $-1 #
edge $-1 $286 0 $286 6.2831853071796004 $191 $287 forward 7 unknown #
loop $-1 $-1 $198 $121 #
plane-surface $-1 -1.4019308559658583 -5.2770469738144605 85.226291319035539 0.85716730853699208 0 0.51503806187062418 0.51503806187062418 0 -0.85716730853699208 forward_v I I I I #
loop $-1 $-1 $288 $77 #
coedge $-1 $196 $196 $197 $289 reversed $122 $-1 #
coedge $-1 $197 $197 $196 $289 forward $124 $-1 #
coedge $-1 $198 $198 $125 $199 forward $193 $-1 #
edge $-1 $290 0 $290 6.2831853071796004 $198 $291 forward 7 unknown #
face $-1 $292 $293 $30 $-1 $294 reversed single #
loop $-1 $-1 $295 $126 #
plane-surface $-1 -46.612750633259068 0 0 1 0 0 0 0 -1 forward_v I I I I #
coedge $-1 $296 $211 $297 $298 forward $127 $-1 #
coedge $-1 $299 $129 $296 $300 forward $81 $-1 #
coedge $-1 $129 $299 $301 $302 forward $81 $-1 #
coedge $-1 $214 $213 $129 $207 reversed $215 $-1 #
edge $-1 $303 -25.64490801007155 $304 25.64490801007155 $206 $305 forward 7 unknown #
coedge $-1 $131 $130 $306 $307 forward $51 $-1 #
coedge $-1 $308 $309 $130 $210 reversed $293 $-1 #
edge $-1 $217 -46.612750633259068 $310 46.612750633259068 $209 $311 forward 7 unknown #
coedge $-1 $203 $312 $131 $212 reversed $127 $-1 #
edge $-1 $313 -46.612750633259068 $216 46.612750633259068 $211 $314 forward 7 unknown #
coedge $-1 $206 $132 $312 $315 forward $215 $-1 #
coedge $-1 $132 $206 $308 $316 reversed $215 $-1 #
loop $-1 $-1 $213 $292 #
vertex $-1 $133 $317 #
vertex $-1 $133 $318 #
straight-curve $-1 46.612750633259068 0 9.84386606885821 0 1 0 I I #
face $-1 $319 $320 $31 $-1 $321 reversed single #
loop $-1 $-1 $322 $134 #
plane-surface $-1 -46.612750633259068 0 0 1 0 0 0 0 -1 forward_v I I I I #
coedge $-1 $323 $228 $233 $324 reversed $135 $-1 #
coedge $-1 $325 $137 $326 $327 reversed $85 $-1 #
coedge $-1 $137 $325 $323 $328 forward $85 $-1 #
coedge $-1 $233 $232 $137 $226 forward $234 $-1 #
edge $-1 $329 -15.193156293024304 $330 -5.7103471410701889 $225 $331 forward 7 unknown #
coedge $-1 $139 $138 $322 $332 reversed $54 $-1 #
coedge $-1 $222 $333 $138 $229 reversed $135 $-1 #
edge $-1 $235 -46.612750633259068 $334 46.612750633259068 $228 $335 forward 7 unknown #
coedge $-1 $336 $337 $139 $231 forward $320 $-1 #
edge $-1 $236 -46.612750633259068 $338 46.612750633259068 $230 $339 forward 7 unknown #
coedge $-1 $225 $140 $337 $340 forward $234 $-1 #
coedge $-1 $140 $225 $222 $324 forward $234 $-1 #
loop $-1 $-1 $140 $319 #
vertex $-1 $141 $341 #
vertex $-1 $340 $342 #
straight-curve $-1 46.612750633259068 -10.451751717047246 -2.8029630117573565 0 -1 0 I I #
face $-1 $-1 $343 $32 $-1 $344 reversed single #
loop $-1 $-1 $345 $142 #
plane-surface $-1 0 25.64490801007155 0 0 -1 0 0 0 -1 forward_v I I I I #
coedge $-1 $346 $145 $147 $247 forward $89 $-1 #
coedge $-1 $145 $346 $345 $347 reversed $89 $-1 #
coedge $-1 $348 $148 $145 $244 forward $143 $-1 #
edge $-1 $250 4.9707921863034645 $349 15.439674611279878 $243 $350 forward 7 unknown #
coedge $-1 $351 $352 $146 $246 forward $343 $-1 #
edge $-1 $353 -34.23774530507923 $249 -30.371583844232788 $245 $354 forward 7 unknown #
edge $-1 $250 -6.4241689940742059 $353 8.8817612989391469e-015 $147 $355 forward 7 unknown #
coedge $-1 $148 $348 $351 $356 forward $143 $-1 #
vertex $-1 $246 $357 #
vertex $-1 $149 $358 #
straight-curve $-1 -51.358629273302114 15.176025585095136 9.8438660688582118 1 0 0 I I #
coedge $-1 $252 $252 $-1 $359 reversed $152 $-1 #
edge $-1 $360 0 $360 6.2831853071796004 $153 $361 forward 7 unknown #
vertex $-1 $156 $362 #
ellipse-curve $-1 -44.047465911094186 17.269802070090417 7.91078533843499 -0.6018150307709319 0 0.79863550430605224 0.39931775215302612 0 0.30090751538546595 1 I I #
coedge $-1 $256 $256 $-1 $363 reversed $159 $-1 #
edge $-1 $364 0 $364 6.2831853071796004 $160 $365 forward 7 unknown #
vertex $-1 $163 $366 #
ellipse-curve $-1 -44.047465911094186 20.410466797583343 7.91078533843499 -0.6018150307709319 0 0.79863550430605224 0.39931775215302612 0 0.30090751538546595 1 I I #
coedge $-1 $260 $260 $-1 $367 reversed $166 $-1 #
edge $-1 $368 0 $368 6.2831853071796004 $167 $369 forward 7 unknown #
vertex $-1 $170 $370 #
ellipse-curve $-1 -44.047465911094186 23.551131525076269 7.91078533843499 -0.6018150307709319 0 0.79863550430605224 0.39931775215302612 0 0.30090751538546595 1 I I #
face $-1 $-1 $276 $36 $-1 $371 forward single #
loop $-1 $-1 $372 $171 #
plane-surface $-1 46.612750633259068 0 0 -1 0 0 0 0 1 forward_v I I I I #
coedge $-1 $373 $374 $375 $376 reversed $172 $-1 #
coedge $-1 $377 $174 $176 $274 forward $108 $-1 #
coedge $-1 $174 $377 $373 $378 forward $108 $-1 #
coedge $-1 $375 $177 $174 $271 forward $276 $-1 #
edge $-1 $278 -1.1252574949427121 $379 6.4023044687571726 $270 $380 forward 7 unknown #
coedge $-1 $381 $382 $175 $273 forward $265 $-1 #
edge $-1 $383 -61.304047092727984 $277 -56.776620335272021 $272 $384 forward 7 unknown #
edge $-1 $278 87.943654056102076 $383 93.225501266518151 $176 $385 forward 7 unknown #
coedge $-1 $177 $375 $381 $386 forward $276 $-1 #
loop $-1 $-1 $375 $264 #
vertex $-1 $273 $387 #
vertex $-1 $178 $388 #
straight-curve $-1 39.253960575833723 -1.5132659919645182 9.8438660688582118 -1 0 0 I I #
coedge $-1 $280 $280 $-1 $389 reversed $181 $-1 #
edge $-1 $390 0 $390 6.2831853071796004 $182 $391 forward 7 unknown #
vertex $-1 $185 $392 #
ellipse-curve $-1 45.252574458084325 -7.5353155629244242 7.5801526901302294 0.85716730853699208 0 0.51503806187062418 0.25751903093531209 0 -0.42858365426849604 1 I I #
coedge $-1 $284 $284 $-1 $393 reversed $188 $-1 #
edge $-1 $394 0 $394 6.2831853071796004 $189 $395 forward 7 unknown #
vertex $-1 $192 $396 #
ellipse-curve $-1 45.252574458084325 -5.277046973814457 7.5801526901302294 0.85716730853699208 0 0.51503806187062418 0.25751903093531209 0 -0.42858365426849604 1 I I #
coedge $-1 $288 $288 $-1 $397 reversed $195 $-1 #
edge $-1 $398 0 $398 6.2831853071796004 $196 $399 forward 7 unknown #
vertex $-1 $199 $400 #
ellipse-curve $-1 45.252574458084325 -3.0187783847044898 7.5801526901302294 0.85716730853699208 0 0.51503806187062418 0.25751903093531209 0 -0.42858365426849604 1 I I #
face $-1 $-1 $215 $30 $-1 $401 reversed single #
loop $-1 $-1 $308 $200 #
plane-surface $-1 0 25.64490801007155 0 0 -1 0 0 0 -1 forward_v I I I I #
coedge $-1 $402 $306 $309 $403 forward $201 $-1 #
coedge $-1 $312 $203 $204 $300 reversed $127 $-1 #
coedge $-1 $306 $402 $203 $298 reversed $201 $-1 #
edge $-1 $313 -9.84386606885821 $404 9.84386606885821 $297 $405 forward 7 unknown #
coedge $-1 $205 $204 $402 $406 forward $81 $-1 #
edge $-1 $304 -46.612750633259068 $404 46.612750633259068 $296 $407 forward 7 unknown #
coedge $-1 $309 $308 $205 $302 reversed $293 $-1 #
edge $-1 $408 -46.612750633259068 $303 46.612750633259068 $301 $409 forward 7 unknown #
vertex $-1 $207 $410 #
vertex $-1 $315 $411 #
straight-curve $-1 46.612750633259068 0 -9.84386606885821 0 -1 0 I I #
coedge $-1 $295 $297 $208 $307 reversed $201 $-1 #
edge $-1 $310 -25.64490801007155 $313 25.64490801007155 $306 $412 forward 7 unknown #
coedge $-1 $301 $209 $214 $316 forward $293 $-1 #
coedge $-1 $209 $301 $295 $403 reversed $293 $-1 #
vertex $-1 $210 $413 #
straight-curve $-1 0 25.64490801007155 9.84386606885821 -1 0 0 I I #
coedge $-1 $211 $296 $213 $315 reversed $127 $-1 #
vertex $-1 $307 $414 #
straight-curve $-1 0 -25.64490801007155 9.84386606885821 1 0 0 I I #
edge $-1 $216 -9.84386606885821 $304 9.84386606885821 $213 $415 forward 7 unknown #
edge $-1 $217 -9.84386606885821 $303 9.84386606885821 $214 $416 forward 7 unknown #
point $-1 46.612750633259068 -25.64490801007155 9.84386606885821 #
point $-1 46.612750633259068 25.64490801007155 9.84386606885821 #
face $-1 $-1 $234 $31 $-1 $417 reversed single #
loop $-1 $-1 $230 $219 #
plane-surface $-1 0 -25.64490801007155 0 0 1 0 0 0 1 forward_v I I I I #
coedge $-1 $418 $419 $227 $332 forward $220 $-1 #
coedge $-1 $333 $222 $224 $328 reversed $135 $-1 #
edge $-1 $330 -5.7444298642249265 $235 0.0461679469034042 $233 $420 forward 7 unknown #
coedge $-1 $224 $223 $421 $422 reversed $85 $-1 #
coedge $-1 $337 $336 $223 $327 forward $320 $-1 #
edge $-1 $423 -46.612750633259068 $329 46.612750633259068 $326 $424 forward 7 unknown #
edge $-1 $425 -46.612750633259068 $330 46.612750633259068 $323 $426 forward 7 unknown #
vertex $-1 $327 $427 #
vertex $-1 $226 $428 #
straight-curve $-1 46.612750633259068 -10.451751717047246 -8.5935608228856868 0 1 0 I I #
edge $-1 $338 -15.193156293024304 $334 -5.7103471410701889 $322 $429 forward 7 unknown #
coedge $-1 $228 $323 $418 $430 reversed $135 $-1 #
vertex $-1 $332 $431 #
straight-curve $-1 0 -16.162098858117435 -2.8029630117573565 -1 0 0 I I #
coedge $-1 $326 $230 $419 $432 forward $320 $-1 #
coedge $-1 $230 $326 $232 $340 reversed $320 $-1 #
vertex $-1 $432 $433 #
straight-curve $-1 0 -25.64490801007155 -2.8029630117573565 -1 0 0 I I #
edge $-1 $236 2.8029630117573565 $329 8.5935608228856868 $232 $434 forward 7 unknown #
point $-1 46.612750633259068 -16.162098858117435 -2.8029630117573565 #
point $-1 46.612750633259068 -25.64490801007155 -2.8029630117573565 #
loop $-1 $-1 $245 $238 #
plane-surface $-1 -46.612750633259068 0 0 1 0 0 0 0 -1 forward_v I I I I #
coedge $-1 $435 $436 $242 $347 forward $239 $-1 #
coedge $-1 $242 $241 $352 $437 reversed $89 $-1 #
edge $-1 $349 10.390393569163273 $438 16.814562563237487 $345 $439 forward 7 unknown #
coedge $-1 $248 $243 $436 $440 forward $143 $-1 #
vertex $-1 $440 $441 #
straight-curve $-1 -41.482181188929303 10.205233398791671 9.84386606885821 0 1 0 I I #
coedge $-1 $442 $245 $248 $356 reversed $343 $-1 #
coedge $-1 $245 $442 $346 $437 forward $343 $-1 #
vertex $-1 $246 $443 #
straight-curve $-1 -46.612750633259068 15.176025585095136 40.215449913091 0 0 1 I I #
straight-curve $-1 -46.612750633259061 15.176025585095136 5.9777046080117771 -0.79863550430605224 0 -0.6018150307709319 I I #
edge $-1 $444 -25.64490801007155 $249 -15.176025585095136 $351 $445 forward 7 unknown #
point $-1 -46.612750633259068 15.176025585095136 9.84386606885821 #
point $-1 -41.482181188929303 15.176025585095136 9.84386606885821 #
edge $-1 $446 1 $446 0 $252 $-1 forward 7 unknown #
vertex $-1 $253 $447 #
ellipse-curve $-1 -43.445650880323257 17.269802070090417 7.1121498341289415 -0.6018150307709319 0 0.79863550430605224 0.39931775215302612 0 0.30090751538546595 1 I I #
point $-1 -43.648148158941162 17.269802070090417 8.211692853820459 #
edge $-1 $448 1 $448 0 $256 $-1 forward 7 unknown #
vertex $-1 $257 $449 #
ellipse-curve $-1 -43.445650880323257 20.410466797583343 7.1121498341289415 -0.6018150307709319 0 0.79863550430605224 0.39931775215302612 0 0.30090751538546595 1 I I #
point $-1 -43.648148158941162 20.410466797583343 8.211692853820459 #
edge $-1 $450 1 $450 0 $260 $-1 forward 7 unknown #
vertex $-1 $261 $451 #
ellipse-curve $-1 -43.445650880323257 23.551131525076269 7.1121498341289415 -0.6018150307709319 0 0.79863550430605224 0.39931775215302612 0 0.30090751538546595 1 I I #
point $-1 -43.648148158941162 23.551131525076269 8.211692853820459 #
plane-surface $-1 0 0 9.84386606885821 0 0 1 1 0 0 forward_v I I I I #
coedge $-1 $382 $381 $374 $452 forward $265 $-1 #
coedge $-1 $374 $267 $269 $378 reversed $172 $-1 #
coedge $-1 $267 $373 $372 $452 reversed $172 $-1 #
coedge $-1 $275 $270 $267 $376 forward $276 $-1 #
edge $-1 $379 4.6384377070758802 $453 7.3587900574253453 $375 $454 forward 7 unknown #
coedge $-1 $269 $268 $382 $455 reversed $108 $-1 #
edge $-1 $456 -93.225501266518151 $379 -87.943654056102076 $373 $457 forward 7 unknown #
vertex $-1 $271 $458 #
straight-curve $-1 43.892398282909596 -2.6385234869072303 9.8438660688582047 0 -1 0 I I #
coedge $-1 $372 $272 $275 $386 reversed $265 $-1 #
coedge $-1 $272 $372 $377 $455 forward $265 $-1 #
vertex $-1 $273 $459 #
straight-curve $-1 46.612750633259068 -1.5132659919645182 66.620486404130233 0 0 1 I I #
straight-curve $-1 -1.4019308559658583 -1.5132659919645182 85.226291319035539 0.51503806187062418 0 -0.85716730853699208 I I #
edge $-1 $453 -9.0408279556644029 $277 -1.5132659919645182 $381 $460 forward 7 unknown #
point $-1 46.612750633259068 -1.5132659919645182 9.84386606885821 #
point $-1 43.892398282909603 -1.5132659919645182 9.8438660688582047 #
edge $-1 $461 1 $461 0 $280 $-1 forward 7 unknown #
vertex $-1 $281 $462 #
ellipse-curve $-1 43.855057165565285 -7.5353155629244242 6.7404396135802225 0.85716730853699208 0 0.51503806187062418 0.25751903093531209 0 -0.42858365426849604 1 I I #
point $-1 45.510093489019646 -7.5353155629244242 7.1515690358617423 #
edge $-1 $463 1 $463 0 $284 $-1 forward 7 unknown #
vertex $-1 $285 $464 #
ellipse-curve $-1 43.855057165565285 -5.277046973814457 6.7404396135802225 0.85716730853699208 0 0.51503806187062418 0.25751903093531209 0 -0.42858365426849604 1 I I #
point $-1 45.510093489019646 -5.277046973814457 7.1515690358617423 #
edge $-1 $465 1 $465 0 $288 $-1 forward 7 unknown #
vertex $-1 $289 $466 #
ellipse-curve $-1 43.855057165565285 -3.0187783847044898 6.7404396135802225 0.85716730853699208 0 0.51503806187062418 0.25751903093531209 0 -0.42858365426849604 1 I I #
point $-1 45.510093489019646 -3.0187783847044898 7.1515690358617423 #
plane-surface $-1 46.612750633259068 0 0 -1 0 0 0 0 1 forward_v I I I I #
coedge $-1 $297 $295 $299 $406 reversed $201 $-1 #
edge $-1 $310 -9.84386606885821 $408 9.84386606885821 $309 $467 forward 7 unknown #
vertex $-1 $406 $468 #
straight-curve $-1 -46.612750633259068 -25.64490801007155 0 0 0 -1 I I #
edge $-1 $404 -25.64490801007155 $408 25.64490801007155 $402 $469 forward 7 unknown #
straight-curve $-1 0 -25.64490801007155 -9.84386606885821 -1 0 0 I I #
vertex $-1 $302 $470 #
straight-curve $-1 0 25.64490801007155 -9.84386606885821 1 0 0 I I #
point $-1 46.612750633259068 25.64490801007155 -9.84386606885821 #
point $-1 46.612750633259068 -25.64490801007155 -9.84386606885821 #
straight-curve $-1 -46.612750633259068 0 9.84386606885821 0 -1 0 I I #
point $-1 -46.612750633259068 25.64490801007155 9.84386606885821 #
point $-1 -46.612750633259068 -25.64490801007155 9.84386606885821 #
straight-curve $-1 46.612750633259068 -25.64490801007155 0 0 0 -1 I I #
straight-curve $-1 46.612750633259068 25.64490801007155 0 0 0 -1 I I #
plane-surface $-1 46.612750633259068 0 0 -1 0 0 0 0 1 forward_v I I I I #
coedge $-1 $421 $322 $333 $430 forward $220 $-1 #
coedge $-1 $322 $421 $336 $432 reversed $220 $-1 #
straight-curve $-1 46.612750633259068 -16.162098858117435 -2.8491309586607607 0 0 1 I I #
coedge $-1 $419 $418 $325 $422 forward $220 $-1 #
edge $-1 $425 5.7103471410701889 $423 15.193156293024304 $421 $471 forward 7 unknown #
vertex $-1 $327 $472 #
straight-curve $-1 0 -25.64490801007155 -8.5935608228856868 1 0 0 I I #
vertex $-1 $422 $473 #
straight-curve $-1 0 -16.162098858117435 -8.5935608228856868 1 0 0 I I #
point $-1 46.612750633259068 -25.64490801007155 -8.5935608228856868 #
point $-1 46.612750633259068 -16.162098858117435 -8.5935608228856868 #
straight-curve $-1 -46.612750633259068 -10.451751717047246 -2.8029630117573565 0 1 0 I I #
edge $-1 $334 -0.0461679469034042 $425 5.7444298642249265 $418 $474 forward 7 unknown #
point $-1 -46.612750633259068 -16.162098858117435 -2.8029630117573565 #
edge $-1 $338 2.8029630117573565 $423 8.5935608228856868 $419 $475 forward 7 unknown #
point $-1 -46.612750633259068 -25.64490801007155 -2.8029630117573565 #
straight-curve $-1 46.612750633259068 -25.64490801007155 0 0 0 -1 I I #
coedge $-1 $436 $345 $442 $476 reversed $239 $-1 #
coedge $-1 $345 $435 $348 $440 reversed $239 $-1 #
edge $-1 $438 -15.439674611279878 $353 -4.9707921863034645 $352 $477 forward 7 unknown #
vertex $-1 $347 $478 #
straight-curve $-1 -33.18404398088223 25.64490801007155 16.096961094406296 -0.79863550430605224 0 -0.6018150307709319 I I #
edge $-1 $349 41.482181188929303 $444 46.612750633259068 $436 $479 forward 7 unknown #
point $-1 -41.482181188929303 25.64490801007155 9.84386606885821 #
coedge $-1 $352 $351 $435 $476 forward $343 $-1 #
point $-1 -46.612750633259068 15.176025585095136 5.9777046080117717 #
vertex $-1 $440 $480 #
straight-curve $-1 -46.612750633259068 0 9.84386606885821 0 -1 0 I I #
vertex $-1 $359 $481 #
point $-1 -43.046333128170232 17.269802070090417 7.4130573495144079 #
vertex $-1 $363 $482 #
point $-1 -43.046333128170232 20.410466797583343 7.4130573495144079 #
vertex $-1 $367 $483 #
point $-1 -43.046333128170232 23.551131525076269 7.4130573495144079 #
edge $-1 $453 56.776620335272021 $456 61.304047092727984 $372 $484 forward 7 unknown #
vertex $-1 $386 $485 #
straight-curve $-1 39.253960575833723 -9.0408279556644029 9.8438660688582118 1 0 0 I I #
edge $-1 $456 -6.4023044687571726 $383 1.1252574949427121 $382 $486 forward 7 unknown #
vertex $-1 $455 $487 #
straight-curve $-1 -1.4019308559658583 -9.0408279556644029 85.226291319035539 -0.51503806187062418 0 0.85716730853699208 I I #
point $-1 43.892398282909603 -9.0408279556644029 9.8438660688582047 #
point $-1 46.612750633259068 -1.5132659919645182 5.3164393114022488 #
straight-curve $-1 46.612750633259068 0 9.84386606885821 0 1 0 I I #
vertex $-1 $389 $488 #
point $-1 44.112576196500598 -7.5353155629244242 6.3118559593117265 #
vertex $-1 $393 $489 #
point $-1 44.112576196500598 -5.277046973814457 6.3118559593117265 #
vertex $-1 $397 $490 #
point $-1 44.112576196500598 -3.0187783847044898 6.3118559593117265 #
straight-curve $-1 -46.612750633259068 25.64490801007155 0 0 0 -1 I I #
point $-1 -46.612750633259068 -25.64490801007155 -9.84386606885821 #
straight-curve $-1 -46.612750633259068 0 -9.84386606885821 0 1 0 I I #
point $-1 -46.612750633259068 25.64490801007155 -9.84386606885821 #
straight-curve $-1 -46.612750633259068 -10.451751717047246 -8.5935608228856868 0 -1 0 I I #
point $-1 -46.612750633259068 -25.64490801007155 -8.5935608228856868 #
point $-1 -46.612750633259068 -16.162098858117435 -8.5935608228856868 #
straight-curve $-1 -46.612750633259068 -16.162098858117435 -2.8491309586607607 0 0 -1 I I #
straight-curve $-1 -46.612750633259068 -25.64490801007155 0 0 0 -1 I I #
edge $-1 $444 -9.84386606885821 $438 -5.9777046080117717 $435 $491 forward 7 unknown #
straight-curve $-1 -46.612750633259068 10.205233398791671 5.9777046080117762 0 -1 0 I I #
point $-1 -46.612750633259068 25.64490801007155 5.9777046080117717 #
straight-curve $-1 0 25.64490801007155 9.84386606885821 -1 0 0 I I #
point $-1 -46.612750633259068 25.64490801007155 9.84386606885821 #
point $-1 -43.144743364937796 17.269802070090417 6.7128320819759155 #
point $-1 -43.144743364937796 20.410466797583343 6.7128320819759155 #
point $-1 -43.144743364937796 23.551131525076269 6.7128320819759155 #
straight-curve $-1 46.612750633259068 -9.0408279556644029 66.620486404130233 0 0 -1 I I #
point $-1 46.612750633259068 -9.0408279556644029 9.84386606885821 #
straight-curve $-1 46.612750633259068 -2.6385234869072303 5.3164393114022346 0 1 0 I I #
point $-1 46.612750633259068 -9.0408279556644029 5.3164393114022488 #
point $-1 43.426473511296791 -7.5353155629244242 6.482920582644911 #
point $-1 43.426473511296791 -5.277046973814457 6.482920582644911 #
point $-1 43.426473511296791 -3.0187783847044898 6.482920582644911 #
straight-curve $-1 -46.612750633259068 25.64490801007155 0 0 0 -1 I I #
End-of-ACIS-data 