500 0 6 0           
7 Unknown 11 ACIS 5.0 NT 24 Fri Mar 26 14:40:58 1999 
-1 9.9999999999999995e-007 1e-010 
body $-1 $6 $-1 $7 #
body $-1 $8 $-1 $9 #
body $-1 $10 $-1 $11 #
body $-1 $12 $-1 $13 #
body $-1 $14 $-1 $15 #
body $-1 $16 $-1 $17 #
lump $-1 $-1 $18 $0 #
transform $-1 1 0 0 0 1 0 0 0 1 48.159428693502612 22.979015590424389 9.9581110745844352 1 rotate no_reflect no_shear #
lump $-1 $-1 $19 $1 #
transform $-1 1 0 0 0 1 0 0 0 1 48.159428693502612 22.979015590424389 9.9581110745844352 1 rotate no_reflect no_shear #
lump $-1 $-1 $20 $2 #
transform $-1 1 0 0 0 1 0 0 0 1 48.159428693502612 22.979015590424389 9.9581110745844352 1 rotate no_reflect no_shear #
lump $-1 $-1 $21 $3 #
transform $-1 1 0 0 0 1 0 0 0 1 48.159428693502612 22.979015590424389 9.9581110745844352 1 rotate no_reflect no_shear #
lump $-1 $-1 $22 $4 #
transform $-1 1 0 0 0 1 0 0 0 1 48.159428693502612 22.979015590424389 9.9581110745844352 1 rotate no_reflect no_shear #
lump $-1 $-1 $23 $5 #
transform $-1 1 0 0 0 1 0 0 0 1 48.159428693502612 22.979015590424389 9.9581110745844352 1 rotate no_reflect no_shear #
shell $-1 $-1 $-1 $24 $-1 $6 #
shell $-1 $-1 $-1 $25 $-1 $8 #
shell $-1 $-1 $-1 $26 $-1 $10 #
shell $-1 $-1 $-1 $27 $-1 $12 #
shell $-1 $-1 $-1 $28 $-1 $14 #
shell $-1 $-1 $-1 $29 $-1 $16 #
face $-1 $30 $31 $18 $-1 $32 forward single #
face $-1 $33 $34 $19 $-1 $35 forward single #
face $-1 $36 $37 $20 $-1 $38 reversed single #
face $-1 $39 $40 $21 $-1 $41 forward single #
face $-1 $42 $43 $22 $-1 $44 forward single #
face $-1 $45 $46 $23 $-1 $47 forward single #
face $-1 $48 $49 $18 $-1 $50 reversed single #
loop $-1 $-1 $51 $24 #
plane-surface $-1 0 0 9.9581110745844352 0 0 1 1 0 0 forward_v I I I I #
face $-1 $52 $53 $19 $-1 $54 reversed single #
loop $-1 $-1 $55 $25 #
plane-surface $-1 0 -16.897377402235705 -6.2303306228168776 0 0 1 1 0 0 forward_v I I I I #
face $-1 $56 $57 $20 $-1 $58 reversed single #
loop $-1 $-1 $59 $26 #
plane-surface $-1 -120.85219391793268 -10.815739214047017 68.813064941376837 0 1 0 -0.75470958851134928 0 0.65605901945558964 forward_v I I I I #
face $-1 $60 $61 $21 $-1 $62 forward single #
loop $-1 $63 $64 $27 #
cone-surface $-1 -45.586136852343365 -9.5547622467970506 7.1914642901712638 0.75470958851134928 0 -0.65605901945558964 0.32802950972779482 0 0.37735479425567464 1 I I 0 1 0.5 forward I I I I #
face $-1 $65 $66 $22 $-1 $67 forward single #
loop $-1 $68 $69 $28 #
cone-surface $-1 -45.586136852343365 -7.6632967959221006 7.1914642901712638 0.75470958851134928 0 -0.65605901945558964 0.32802950972779482 0 0.37735479425567464 1 I I 0 1 0.5 forward I I I I #
face $-1 $70 $71 $23 $-1 $72 forward single #
loop $-1 $73 $74 $29 #
cone-surface $-1 -45.586136852343365 -5.7718313450471506 7.1914642901712638 0.75470958851134928 0 -0.65605901945558964 0.32802950972779482 0 0.37735479425567464 1 I I 0 1 0.5 forward I I I I #
face $-1 $75 $76 $18 $-1 $77 reversed single #
loop $-1 $-1 $78 $30 #
plane-surface $-1 0 0 -9.9581110745844352 0 0 1 1 0 0 forward_v I I I I #
coedge $-1 $79 $80 $81 $82 forward $31 $-1 #
face $-1 $83 $84 $19 $-1 $85 reversed single #
loop $-1 $-1 $86 $33 #
plane-surface $-1 0 -10.815739214047019 -8.0942208487006564 0 -1 0 0 0 -1 forward_v I I I I #
coedge $-1 $87 $88 $89 $90 reversed $34 $-1 #
face $-1 $91 $92 $20 $-1 $93 reversed single #
loop $-1 $-1 $94 $36 #
plane-surface $-1 -48.159428693502633 -7.6632967959221023 5.6222098089754127 -0.75470958851134928 0 0.65605901945558964 0.65605901945558964 0 0.75470958851134928 forward_v I I I I #
coedge $-1 $95 $96 $97 $98 reversed $37 $-1 #
face $-1 $-1 $99 $21 $-1 $100 forward single #
loop $-1 $101 $102 $39 #
cone-surface $-1 -44.708738299306646 -9.5547622467970506 6.4287533836987034 0.75470958851134928 0 -0.65605901945558964 0.16401475486389741 0 0.18867739712783732 1 I I -0.70710678118654746 0.70710678118654746 0.25 forward I I I I #
loop $-1 $-1 $103 $27 #
coedge $-1 $64 $64 $104 $105 reversed $40 $-1 #
face $-1 $-1 $106 $22 $-1 $107 forward single #
loop $-1 $108 $109 $42 #
cone-surface $-1 -44.708738299306646 -7.6632967959221006 6.4287533836987034 0.75470958851134928 0 -0.65605901945558964 0.16401475486389741 0 0.18867739712783732 1 I I -0.70710678118654746 0.70710678118654746 0.25 forward I I I I #
loop $-1 $-1 $110 $28 #
coedge $-1 $69 $69 $111 $112 reversed $43 $-1 #
face $-1 $-1 $113 $23 $-1 $114 forward single #
loop $-1 $115 $116 $45 #
cone-surface $-1 -44.708738299306646 -5.7718313450471506 6.4287533836987034 0.75470958851134928 0 -0.65605901945558964 0.16401475486389741 0 0.18867739712783732 1 I I -0.70710678118654746 0.70710678118654746 0.25 forward I I I I #
loop $-1 $-1 $117 $29 #
coedge $-1 $74 $74 $118 $119 reversed $46 $-1 #
face $-1 $120 $121 $18 $-1 $122 reversed single #
loop $-1 $-1 $123 $48 #
plane-surface $-1 0 -22.979015590424389 0 0 1 0 0 0 1 forward_v I I I I #
coedge $-1 $124 $125 $126 $127 forward $49 $-1 #
coedge $-1 $128 $51 $129 $130 forward $31 $-1 #
coedge $-1 $51 $128 $131 $132 forward $31 $-1 #
coedge $-1 $133 $134 $51 $82 reversed $135 $-1 #
edge $-1 $136 -22.979015590424389 $137 22.979015590424389 $81 $138 forward 7 unknown #
face $-1 $139 $140 $19 $-1 $141 reversed single #
loop $-1 $-1 $142 $52 #
plane-surface $-1 0 0 -9.9581110745844352 0 0 1 1 0 0 forward_v I I I I #
coedge $-1 $143 $144 $145 $146 reversed $53 $-1 #
coedge $-1 $147 $55 $144 $148 forward $34 $-1 #
coedge $-1 $55 $147 $149 $150 reversed $34 $-1 #
coedge $-1 $151 $145 $55 $90 forward $140 $-1 #
edge $-1 $152 2.3670505129291666 $153 14.530326889306536 $89 $154 forward 7 unknown #
face $-1 $155 $156 $20 $-1 $157 forward single #
loop $-1 $-1 $158 $56 #
plane-surface $-1 -120.85219391793268 -4.5108543777971875 68.813064941376837 0 -1 0 0.75470958851134928 0 -0.65605901945558964 forward_v I I I I #
coedge $-1 $159 $160 $161 $162 reversed $57 $-1 #
coedge $-1 $96 $59 $163 $164 reversed $37 $-1 #
coedge $-1 $59 $95 $159 $165 reversed $37 $-1 #
coedge $-1 $161 $166 $59 $98 forward $156 $-1 #
edge $-1 $167 12.266668265463728 $168 16.035809635964434 $97 $169 forward 7 unknown #
loop $-1 $-1 $104 $60 #
plane-surface $-1 -48.159428693502633 -7.6632967959221023 5.6222098089754127 -0.75470958851134928 0 0.65605901945558964 0.65605901945558964 0 0.75470958851134928 forward_v I I I I #
loop $-1 $-1 $170 $39 #
coedge $-1 $102 $102 $103 $171 reversed $61 $-1 #
coedge $-1 $103 $103 $102 $171 forward $63 $-1 #
coedge $-1 $104 $104 $64 $105 forward $99 $-1 #
edge $-1 $172 0 $172 6.2831853071796004 $104 $173 forward 7 unknown #
loop $-1 $-1 $111 $65 #
plane-surface $-1 -48.159428693502633 -7.6632967959221023 5.6222098089754127 -0.75470958851134928 0 0.65605901945558964 0.65605901945558964 0 0.75470958851134928 forward_v I I I I #
loop $-1 $-1 $174 $42 #
coedge $-1 $109 $109 $110 $175 reversed $66 $-1 #
coedge $-1 $110 $110 $109 $175 forward $68 $-1 #
coedge $-1 $111 $111 $69 $112 forward $106 $-1 #
edge $-1 $176 0 $176 6.2831853071796004 $111 $177 forward 7 unknown #
loop $-1 $-1 $118 $70 #
plane-surface $-1 -48.159428693502633 -7.6632967959221023 5.6222098089754127 -0.75470958851134928 0 0.65605901945558964 0.65605901945558964 0 0.75470958851134928 forward_v I I I I #
loop $-1 $-1 $178 $45 #
coedge $-1 $116 $116 $117 $179 reversed $71 $-1 #
coedge $-1 $117 $117 $116 $179 forward $73 $-1 #
coedge $-1 $118 $118 $74 $119 forward $113 $-1 #
edge $-1 $180 0 $180 6.2831853071796004 $118 $181 forward 7 unknown #
face $-1 $182 $183 $18 $-1 $184 reversed single #
loop $-1 $-1 $185 $75 #
plane-surface $-1 -48.159428693502612 0 0 1 0 0 0 0 -1 forward_v I I I I #
coedge $-1 $186 $131 $187 $188 forward $76 $-1 #
coedge $-1 $189 $78 $186 $190 forward $49 $-1 #
coedge $-1 $78 $189 $191 $192 forward $49 $-1 #
coedge $-1 $134 $133 $78 $127 reversed $135 $-1 #
edge $-1 $193 -22.979015590424389 $194 22.979015590424389 $126 $195 forward 7 unknown #
coedge $-1 $80 $79 $196 $197 forward $31 $-1 #
coedge $-1 $198 $199 $79 $130 reversed $183 $-1 #
edge $-1 $137 -48.159428693502612 $200 48.159428693502612 $129 $201 forward 7 unknown #
coedge $-1 $123 $202 $80 $132 reversed $76 $-1 #
edge $-1 $203 -48.159428693502612 $136 48.159428693502612 $131 $204 forward 7 unknown #
coedge $-1 $126 $81 $202 $205 forward $135 $-1 #
coedge $-1 $81 $126 $198 $206 reversed $135 $-1 #
loop $-1 $-1 $133 $182 #
vertex $-1 $82 $207 #
vertex $-1 $82 $208 #
straight-curve $-1 48.159428693502612 0 9.9581110745844352 0 1 0 I I #
face $-1 $209 $210 $19 $-1 $211 reversed single #
loop $-1 $-1 $145 $83 #
plane-surface $-1 48.159428693502612 0 0 -1 0 0 0 0 1 forward_v I I I I #
coedge $-1 $212 $213 $143 $214 forward $84 $-1 #
coedge $-1 $215 $86 $142 $214 reversed $53 $-1 #
coedge $-1 $86 $215 $87 $148 reversed $53 $-1 #
coedge $-1 $89 $216 $86 $146 forward $140 $-1 #
edge $-1 $217 -5.911000650234107 $152 -2.1832201984665494 $145 $218 forward 7 unknown #
coedge $-1 $88 $87 $219 $220 reversed $34 $-1 #
edge $-1 $152 -48.159428693502612 $221 48.159428693502612 $144 $222 forward 7 unknown #
coedge $-1 $223 $224 $88 $150 forward $210 $-1 #
edge $-1 $153 -48.159428693502612 $225 48.159428693502612 $149 $226 forward 7 unknown #
coedge $-1 $216 $89 $224 $227 forward $140 $-1 #
vertex $-1 $90 $228 #
vertex $-1 $227 $229 #
straight-curve $-1 48.159428693502612 -8.4486887011178524 -6.2303306228168776 0 -1 0 I I #
face $-1 $-1 $230 $20 $-1 $231 reversed single #
loop $-1 $-1 $97 $91 #
plane-surface $-1 0 0 9.9581110745844352 0 0 1 1 0 0 forward_v I I I I #
coedge $-1 $232 $233 $234 $235 reversed $92 $-1 #
coedge $-1 $236 $94 $96 $165 forward $57 $-1 #
coedge $-1 $94 $236 $232 $237 forward $57 $-1 #
coedge $-1 $234 $97 $94 $162 forward $156 $-1 #
edge $-1 $168 -6.984090816085966 $238 -0.67920597983613629 $161 $239 forward 7 unknown #
coedge $-1 $240 $241 $95 $164 forward $230 $-1 #
edge $-1 $242 -28.784322661712981 $167 -24.448421396103981 $163 $243 forward 7 unknown #
edge $-1 $168 -5.7451254517138297 $242 -3.2753608665505091e-014 $96 $244 forward 7 unknown #
coedge $-1 $97 $234 $240 $245 forward $156 $-1 #
vertex $-1 $164 $246 #
vertex $-1 $98 $247 #
straight-curve $-1 -60.42609695896634 -10.815739214047017 9.958111074584437 1 0 0 I I #
coedge $-1 $170 $170 $-1 $248 reversed $101 $-1 #
edge $-1 $249 0 $249 6.2831853071796004 $102 $250 forward 7 unknown #
vertex $-1 $105 $251 #
ellipse-curve $-1 -46.274858008252259 -9.5547622467970506 7.7901604417799364 -0.75470958851134928 0 0.65605901945558964 0.32802950972779482 0 0.37735479425567464 1 I I #
coedge $-1 $174 $174 $-1 $252 reversed $108 $-1 #
edge $-1 $253 0 $253 6.2831853071796004 $109 $254 forward 7 unknown #
vertex $-1 $112 $255 #
ellipse-curve $-1 -46.274858008252259 -7.6632967959221006 7.7901604417799364 -0.75470958851134928 0 0.65605901945558964 0.32802950972779482 0 0.37735479425567464 1 I I #
coedge $-1 $178 $178 $-1 $256 reversed $115 $-1 #
edge $-1 $257 0 $257 6.2831853071796004 $116 $258 forward 7 unknown #
vertex $-1 $119 $259 #
ellipse-curve $-1 -46.274858008252259 -5.7718313450471506 7.7901604417799364 -0.75470958851134928 0 0.65605901945558964 0.32802950972779482 0 0.37735479425567464 1 I I #
face $-1 $-1 $135 $18 $-1 $260 reversed single #
loop $-1 $-1 $198 $120 #
plane-surface $-1 0 22.979015590424389 0 0 -1 0 0 0 -1 forward_v I I I I #
coedge $-1 $261 $196 $199 $262 forward $121 $-1 #
coedge $-1 $202 $123 $124 $190 reversed $76 $-1 #
coedge $-1 $196 $261 $123 $188 reversed $121 $-1 #
edge $-1 $203 -9.9581110745844352 $263 9.9581110745844352 $187 $264 forward 7 unknown #
coedge $-1 $125 $124 $261 $265 forward $49 $-1 #
edge $-1 $194 -48.159428693502612 $263 48.159428693502612 $186 $266 forward 7 unknown #
coedge $-1 $199 $198 $125 $192 reversed $183 $-1 #
edge $-1 $267 -48.159428693502612 $193 48.159428693502612 $191 $268 forward 7 unknown #
vertex $-1 $127 $269 #
vertex $-1 $205 $270 #
straight-curve $-1 48.159428693502612 0 -9.9581110745844352 0 -1 0 I I #
coedge $-1 $185 $187 $128 $197 reversed $121 $-1 #
edge $-1 $200 -22.979015590424389 $203 22.979015590424389 $196 $271 forward 7 unknown #
coedge $-1 $191 $129 $134 $206 forward $183 $-1 #
coedge $-1 $129 $191 $185 $262 reversed $183 $-1 #
vertex $-1 $130 $272 #
straight-curve $-1 0 22.979015590424389 9.9581110745844352 -1 0 0 I I #
coedge $-1 $131 $186 $133 $205 reversed $76 $-1 #
vertex $-1 $197 $273 #
straight-curve $-1 0 -22.979015590424389 9.9581110745844352 1 0 0 I I #
edge $-1 $136 -9.9581110745844352 $194 9.9581110745844352 $133 $274 forward 7 unknown #
edge $-1 $137 -9.9581110745844352 $193 9.9581110745844352 $134 $275 forward 7 unknown #
point $-1 48.159428693502612 -22.979015590424389 9.9581110745844352 #
point $-1 48.159428693502612 22.979015590424389 9.9581110745844352 #
face $-1 $-1 $276 $19 $-1 $277 reversed single #
loop $-1 $-1 $149 $139 #
plane-surface $-1 0 -22.979015590424389 0 0 1 0 0 0 1 forward_v I I I I #
coedge $-1 $278 $142 $216 $279 forward $84 $-1 #
coedge $-1 $142 $278 $280 $281 forward $84 $-1 #
edge $-1 $282 -48.159428693502612 $217 48.159428693502612 $142 $283 forward 7 unknown #
coedge $-1 $144 $143 $284 $285 reversed $53 $-1 #
coedge $-1 $145 $151 $212 $279 reversed $140 $-1 #
vertex $-1 $279 $286 #
straight-curve $-1 48.159428693502612 -10.815739214047019 -4.0471104243503282 0 0 1 I I #
coedge $-1 $284 $287 $147 $220 forward $276 $-1 #
edge $-1 $225 -14.530326889306536 $221 -2.3670505129291666 $219 $288 forward 7 unknown #
vertex $-1 $220 $289 #
straight-curve $-1 0 -10.815739214047019 -6.2303306228168776 -1 0 0 I I #
coedge $-1 $290 $149 $287 $291 forward $210 $-1 #
coedge $-1 $149 $290 $151 $227 reversed $210 $-1 #
vertex $-1 $291 $292 #
straight-curve $-1 0 -22.979015590424389 -6.2303306228168776 -1 0 0 I I #
edge $-1 $153 6.2303306228168776 $293 9.9581110745844352 $151 $294 forward 7 unknown #
point $-1 48.159428693502612 -10.815739214047019 -6.2303306228168776 #
point $-1 48.159428693502612 -22.979015590424389 -6.2303306228168776 #
loop $-1 $-1 $163 $155 #
plane-surface $-1 -48.159428693502612 0 0 1 0 0 0 0 -1 forward_v I I I I #
coedge $-1 $233 $158 $160 $237 reversed $92 $-1 #
coedge $-1 $158 $232 $295 $296 reversed $92 $-1 #
coedge $-1 $166 $161 $158 $235 forward $156 $-1 #
edge $-1 $238 -16.035809635964434 $297 -12.266668265463728 $234 $298 forward 7 unknown #
coedge $-1 $160 $159 $241 $299 reversed $57 $-1 #
edge $-1 $300 3.2753608665505091e-014 $238 5.7451254517138297 $232 $301 forward 7 unknown #
vertex $-1 $162 $302 #
straight-curve $-1 -44.390287323001907 -3.8316483979610512 9.9581110745844335 0 1 0 I I #
coedge $-1 $295 $163 $166 $245 reversed $230 $-1 #
coedge $-1 $163 $295 $236 $299 forward $230 $-1 #
vertex $-1 $164 $303 #
straight-curve $-1 -48.159428693502612 -10.815739214047017 34.406532470688418 0 0 1 I I #
straight-curve $-1 -48.159428693502633 -10.815739214047017 5.6222098089754127 -0.65605901945558964 0 -0.75470958851134928 I I #
edge $-1 $297 4.5108543777971875 $167 10.815739214047017 $240 $304 forward 7 unknown #
point $-1 -48.159428693502612 -10.815739214047017 9.9581110745844352 #
point $-1 -44.390287323001907 -10.815739214047017 9.9581110745844352 #
edge $-1 $305 1 $305 0 $170 $-1 forward 7 unknown #
vertex $-1 $171 $306 #
ellipse-curve $-1 -44.897415696434486 -9.5547622467970506 6.5927681385626009 -0.75470958851134928 0 0.65605901945558964 0.32802950972779482 0 0.37735479425567464 1 I I #
point $-1 -45.946828498524454 -9.5547622467970506 8.1675152360356016 #
edge $-1 $307 1 $307 0 $174 $-1 forward 7 unknown #
vertex $-1 $175 $308 #
ellipse-curve $-1 -44.897415696434486 -7.6632967959221006 6.5927681385626009 -0.75470958851134928 0 0.65605901945558964 0.32802950972779482 0 0.37735479425567464 1 I I #
point $-1 -45.946828498524454 -7.6632967959221006 8.1675152360356016 #
edge $-1 $309 1 $309 0 $178 $-1 forward 7 unknown #
vertex $-1 $179 $310 #
ellipse-curve $-1 -44.897415696434486 -5.7718313450471506 6.5927681385626009 -0.75470958851134928 0 0.65605901945558964 0.32802950972779482 0 0.37735479425567464 1 I I #
point $-1 -45.946828498524454 -5.7718313450471506 8.1675152360356016 #
plane-surface $-1 48.159428693502612 0 0 -1 0 0 0 0 1 forward_v I I I I #
coedge $-1 $187 $185 $189 $265 reversed $121 $-1 #
edge $-1 $200 -9.9581110745844352 $267 9.9581110745844352 $199 $311 forward 7 unknown #
vertex $-1 $265 $312 #
straight-curve $-1 -48.159428693502612 -22.979015590424389 0 0 0 -1 I I #
edge $-1 $263 -22.979015590424389 $267 22.979015590424389 $261 $313 forward 7 unknown #
straight-curve $-1 0 -22.979015590424389 -9.9581110745844352 -1 0 0 I I #
vertex $-1 $192 $314 #
straight-curve $-1 0 22.979015590424389 -9.9581110745844352 1 0 0 I I #
point $-1 48.159428693502612 22.979015590424389 -9.9581110745844352 #
point $-1 48.159428693502612 -22.979015590424389 -9.9581110745844352 #
straight-curve $-1 -48.159428693502612 0 9.9581110745844352 0 -1 0 I I #
point $-1 -48.159428693502612 22.979015590424389 9.9581110745844352 #
point $-1 -48.159428693502612 -22.979015590424389 9.9581110745844352 #
straight-curve $-1 48.159428693502612 -22.979015590424389 0 0 0 -1 I I #
straight-curve $-1 48.159428693502612 22.979015590424389 0 0 0 -1 I I #
loop $-1 $-1 $284 $209 #
plane-surface $-1 -48.159428693502612 0 0 1 0 0 0 0 -1 forward_v I I I I #
coedge $-1 $213 $212 $290 $315 forward $84 $-1 #
edge $-1 $217 10.815739214047019 $293 22.979015590424389 $216 $316 forward 7 unknown #
coedge $-1 $287 $284 $213 $281 reversed $276 $-1 #
edge $-1 $317 -22.979015590424389 $282 -10.815739214047019 $280 $318 forward 7 unknown #
vertex $-1 $285 $319 #
straight-curve $-1 0 -10.815739214047019 -9.9581110745844352 1 0 0 I I #
coedge $-1 $280 $219 $215 $285 forward $276 $-1 #
edge $-1 $221 2.1832201984665494 $282 5.911000650234107 $284 $320 forward 7 unknown #
point $-1 48.159428693502612 -10.815739214047019 -9.9581110745844352 #
coedge $-1 $219 $280 $223 $291 reversed $276 $-1 #
straight-curve $-1 -48.159428693502612 -8.4486887011178524 -6.2303306228168776 0 1 0 I I #
point $-1 -48.159428693502612 -10.815739214047019 -6.2303306228168776 #
coedge $-1 $224 $223 $278 $315 reversed $210 $-1 #
edge $-1 $225 6.2303306228168776 $317 9.9581110745844352 $287 $321 forward 7 unknown #
point $-1 -48.159428693502612 -22.979015590424389 -6.2303306228168776 #
vertex $-1 $227 $322 #
straight-curve $-1 48.159428693502612 -22.979015590424389 0 0 0 -1 I I #
coedge $-1 $241 $240 $233 $296 forward $230 $-1 #
edge $-1 $297 24.448421396103981 $300 28.784322661712981 $295 $323 forward 7 unknown #
vertex $-1 $245 $324 #
straight-curve $-1 -60.42609695896634 -4.5108543777971875 9.958111074584437 -1 0 0 I I #
edge $-1 $300 0.67920597983613629 $242 6.984090816085966 $241 $325 forward 7 unknown #
vertex $-1 $299 $326 #
straight-curve $-1 -48.159428693502633 -4.5108543777971875 5.6222098089754127 0.65605901945558964 0 0.75470958851134928 I I #
point $-1 -44.390287323001907 -4.5108543777971875 9.9581110745844352 #
point $-1 -48.159428693502612 -10.815739214047017 5.6222098089754375 #
straight-curve $-1 -48.159428693502612 0 9.9581110745844352 0 -1 0 I I #
vertex $-1 $248 $327 #
point $-1 -44.569386186706687 -9.5547622467970506 6.9701229328182759 #
vertex $-1 $252 $328 #
point $-1 -44.569386186706687 -7.6632967959221006 6.9701229328182759 #
vertex $-1 $256 $329 #
point $-1 -44.569386186706687 -5.7718313450471506 6.9701229328182759 #
straight-curve $-1 -48.159428693502612 22.979015590424389 0 0 0 -1 I I #
point $-1 -48.159428693502612 -22.979015590424389 -9.9581110745844352 #
straight-curve $-1 -48.159428693502612 0 -9.9581110745844352 0 1 0 I I #
point $-1 -48.159428693502612 22.979015590424389 -9.9581110745844352 #
edge $-1 $293 -48.159428693502612 $317 48.159428693502612 $290 $330 forward 7 unknown #
straight-curve $-1 48.159428693502612 0 -9.9581110745844352 0 -1 0 I I #
vertex $-1 $281 $331 #
straight-curve $-1 -48.159428693502612 0 -9.9581110745844352 0 1 0 I I #
point $-1 -48.159428693502612 -10.815739214047019 -9.9581110745844352 #
straight-curve $-1 -48.159428693502612 -10.815739214047019 -4.0471104243503282 0 0 -1 I I #
straight-curve $-1 -48.159428693502612 -22.979015590424389 0 0 0 -1 I I #
point $-1 48.159428693502612 -22.979015590424389 -9.9581110745844352 #
straight-curve $-1 -48.159428693502612 -4.5108543777971875 34.406532470688418 0 0 -1 I I #
point $-1 -48.159428693502612 -4.5108543777971875 9.9581110745844352 #
straight-curve $-1 -48.159428693502612 -3.8316483979610512 5.6222098089754313 0 -1 0 I I #
point $-1 -48.159428693502612 -4.5108543777971875 5.6222098089754375 #
point $-1 -44.520060902178805 -9.5547622467970506 6.2647386288348059 #
point $-1 -44.520060902178805 -7.6632967959221006 6.2647386288348059 #
point $-1 -44.520060902178805 -5.7718313450471506 6.2647386288348059 #
straight-curve $-1 0 -22.979015590424389 -9.9581110745844352 -1 0 0 I I #
point $-1 -48.159428693502612 -22.979015590424389 -9.9581110745844352 #
End-of-ACIS-data 