500 0 7 0           
7 Unknown 11 ACIS 5.0 NT 24 Fri Mar 26 03:14:53 1999 
-1 9.9999999999999995e-007 1e-010 
body $-1 $7 $-1 $8 #
body $-1 $9 $-1 $10 #
body $-1 $11 $-1 $12 #
body $-1 $13 $-1 $14 #
body $-1 $15 $-1 $16 #
body $-1 $17 $-1 $18 #
body $-1 $19 $-1 $20 #
lump $-1 $-1 $21 $0 #
transform $-1 1 0 0 0 1 0 0 0 1 72.78054139835811 42.187925936399253 14.640048470644508 1 rotate no_reflect no_shear #
lump $-1 $-1 $22 $1 #
transform $-1 1 0 0 0 1 0 0 0 1 72.78054139835811 42.187925936399253 14.640048470644508 1 rotate no_reflect no_shear #
lump $-1 $-1 $23 $2 #
transform $-1 1 0 0 0 1 0 0 0 1 72.78054139835811 42.187925936399253 14.640048470644508 1 rotate no_reflect no_shear #
lump $-1 $-1 $24 $3 #
transform $-1 1 0 0 0 1 0 0 0 1 72.78054139835811 42.187925936399253 14.640048470644508 1 rotate no_reflect no_shear #
lump $-1 $-1 $25 $4 #
transform $-1 1 0 0 0 1 0 0 0 1 72.78054139835811 42.187925936399253 14.640048470644508 1 rotate no_reflect no_shear #
lump $-1 $-1 $26 $5 #
transform $-1 1 0 0 0 1 0 0 0 1 72.78054139835811 42.187925936399253 14.640048470644508 1 rotate no_reflect no_shear #
lump $-1 $-1 $27 $6 #
transform $-1 1 0 0 0 1 0 0 0 1 72.78054139835811 42.187925936399253 14.640048470644508 1 rotate no_reflect no_shear #
shell $-1 $-1 $-1 $28 $-1 $7 #
shell $-1 $-1 $-1 $29 $-1 $9 #
shell $-1 $-1 $-1 $30 $-1 $11 #
shell $-1 $-1 $-1 $31 $-1 $13 #
shell $-1 $-1 $-1 $32 $-1 $15 #
shell $-1 $-1 $-1 $33 $-1 $17 #
shell $-1 $-1 $-1 $34 $-1 $19 #
face $-1 $35 $36 $21 $-1 $37 forward single #
face $-1 $38 $39 $22 $-1 $40 forward single #
face $-1 $41 $42 $23 $-1 $43 reversed single #
face $-1 $44 $45 $24 $-1 $46 forward single #
face $-1 $47 $48 $25 $-1 $49 forward single #
face $-1 $50 $51 $26 $-1 $52 reversed single #
face $-1 $53 $54 $27 $-1 $55 forward single #
face $-1 $56 $57 $21 $-1 $58 reversed single #
loop $-1 $-1 $59 $28 #
plane-surface $-1 0 0 14.640048470644508 0 0 1 1 0 0 forward_v I I I I #
face $-1 $60 $61 $22 $-1 $62 reversed single #
loop $-1 $-1 $63 $29 #
plane-surface $-1 0 -34.046795457649736 -6.642603356927296 0 0 1 1 0 0 forward_v I I I I #
face $-1 $64 $65 $23 $-1 $66 reversed single #
loop $-1 $-1 $67 $30 #
plane-surface $-1 -164.38510008313074 -25.905664978900219 119.32251208804618 0 1 0 -0.62932039886446345 0 0.77714595512881146 forward_v I I I I #
face $-1 $68 $69 $24 $-1 $70 forward single #
loop $-1 $71 $72 $31 #
cone-surface $-1 -66.848443868402327 -20.806386638253784 9.5298281187348053 0.62932039886446345 0 -0.77714595512881146 1.5542919102576229 0 1.2586407977289269 1 I I 0 1 2 forward I I I I #
face $-1 $73 $74 $25 $-1 $75 forward single #
loop $-1 $76 $77 $32 #
cone-surface $-1 -66.848443868402327 -13.157469127284127 9.5298281187348053 0.62932039886446345 0 -0.77714595512881146 1.5542919102576229 0 1.2586407977289269 1 I I 0 1 2 forward I I I I #
face $-1 $78 $79 $26 $-1 $80 reversed single #
loop $-1 $-1 $81 $33 #
plane-surface $-1 51.262893363492708 -9.2726787875638195 215.25208039011966 0 -1 0 -0.62932039886446345 0 -0.77714595512881146 forward_v I I I I #
face $-1 $82 $83 $27 $-1 $84 forward single #
loop $-1 $85 $86 $34 #
cone-surface $-1 69.338465626106611 -16.034345142147878 11.469496695157295 -0.62932039886446345 0 -0.77714595512881146 0.77714595512881146 0 -0.62932039886446345 1 I I 0 1 1 forward I I I I #
face $-1 $87 $88 $21 $-1 $89 reversed single #
loop $-1 $-1 $90 $35 #
plane-surface $-1 0 0 -14.640048470644508 0 0 1 1 0 0 forward_v I I I I #
coedge $-1 $91 $92 $93 $94 forward $36 $-1 #
face $-1 $95 $96 $22 $-1 $97 reversed single #
loop $-1 $-1 $98 $38 #
plane-surface $-1 0 -34.046795457649736 -9.642603356927296 0 0 1 1 0 0 forward_v I I I I #
coedge $-1 $99 $100 $101 $102 reversed $39 $-1 #
face $-1 $103 $104 $23 $-1 $105 reversed single #
loop $-1 $-1 $106 $41 #
plane-surface $-1 -72.780541398358096 -16.981927882768957 6.2003053684081522 -0.62932039886446345 0 0.77714595512881146 0.77714595512881146 0 0.62932039886446345 forward_v I I I I #
coedge $-1 $107 $108 $109 $110 reversed $42 $-1 #
face $-1 $-1 $111 $24 $-1 $112 forward single #
loop $-1 $113 $114 $44 #
cone-surface $-1 -65.498133211858743 -20.806386638253784 7.8623333628144785 0.62932039886446345 0 -0.77714595512881146 0.77714595512881146 0 0.62932039886446345 1 I I -0.70710678118654746 0.70710678118654746 1 forward I I I I #
loop $-1 $-1 $115 $31 #
coedge $-1 $72 $72 $116 $117 reversed $45 $-1 #
face $-1 $-1 $118 $25 $-1 $119 forward single #
loop $-1 $120 $121 $47 #
cone-surface $-1 -65.498133211858743 -13.157469127284127 7.8623333628144785 0.62932039886446345 0 -0.77714595512881146 0.77714595512881146 0 0.62932039886446345 1 I I -0.70710678118654746 0.70710678118654746 1 forward I I I I #
loop $-1 $-1 $122 $32 #
coedge $-1 $77 $77 $123 $124 reversed $48 $-1 #
face $-1 $125 $126 $26 $-1 $127 reversed single #
loop $-1 $-1 $128 $50 #
plane-surface $-1 -40.341665321279933 -16.034345142147874 102.12987367048163 0.62932039886446345 0 0.77714595512881146 0.77714595512881146 0 -0.62932039886446345 forward_v I I I I #
coedge $-1 $129 $130 $131 $132 reversed $51 $-1 #
face $-1 $-1 $133 $27 $-1 $134 forward single #
loop $-1 $135 $136 $53 #
cone-surface $-1 68.12236594240963 -16.034345142147878 9.9677386845734404 -0.62932039886446345 0 -0.77714595512881146 0.38857297756440573 0 -0.31466019943223172 1 I I -0.70710678118654746 0.70710678118654746 0.5 forward I I I I #
loop $-1 $-1 $137 $34 #
coedge $-1 $86 $86 $138 $139 reversed $54 $-1 #
face $-1 $140 $141 $21 $-1 $142 reversed single #
loop $-1 $-1 $143 $56 #
plane-surface $-1 0 -42.187925936399253 0 0 1 0 0 0 1 forward_v I I I I #
coedge $-1 $144 $145 $146 $147 forward $57 $-1 #
coedge $-1 $148 $59 $149 $150 forward $36 $-1 #
coedge $-1 $59 $148 $151 $152 forward $36 $-1 #
coedge $-1 $153 $154 $59 $94 reversed $155 $-1 #
edge $-1 $156 -42.187925936399253 $157 42.187925936399253 $93 $158 forward 7 unknown #
face $-1 $159 $160 $22 $-1 $161 reversed single #
loop $-1 $-1 $162 $60 #
plane-surface $-1 0 -25.905664978900219 -8.142603356927296 0 -1 0 0 0 -1 forward_v I I I I #
coedge $-1 $163 $164 $165 $166 reversed $61 $-1 #
coedge $-1 $167 $63 $168 $169 forward $39 $-1 #
coedge $-1 $63 $167 $170 $171 reversed $39 $-1 #
coedge $-1 $172 $173 $63 $102 forward $174 $-1 #
edge $-1 $175 8.8822672500753512 $176 25.164528207574385 $101 $177 forward 7 unknown #
face $-1 $178 $179 $23 $-1 $180 reversed single #
loop $-1 $-1 $181 $64 #
plane-surface $-1 -164.38510008313074 -8.0581907866376934 119.32251208804618 0 -1 0 0.62932039886446345 0 -0.77714595512881146 forward_v I I I I #
coedge $-1 $182 $183 $184 $185 reversed $65 $-1 #
coedge $-1 $108 $67 $186 $187 reversed $42 $-1 #
coedge $-1 $67 $107 $182 $188 reversed $42 $-1 #
coedge $-1 $184 $189 $67 $110 forward $190 $-1 #
edge $-1 $191 9.4120086432072583 $192 19.834223187760536 $109 $193 forward 7 unknown #
loop $-1 $-1 $116 $68 #
plane-surface $-1 -72.780541398358096 -16.981927882768957 6.2003053684081522 -0.62932039886446345 0 0.77714595512881146 0.77714595512881146 0 0.62932039886446345 forward_v I I I I #
loop $-1 $-1 $194 $44 #
coedge $-1 $114 $114 $115 $195 reversed $69 $-1 #
coedge $-1 $115 $115 $114 $195 forward $71 $-1 #
coedge $-1 $116 $116 $72 $117 forward $111 $-1 #
edge $-1 $196 0 $196 6.2831853071796004 $116 $197 forward 7 unknown #
loop $-1 $-1 $123 $73 #
plane-surface $-1 -72.780541398358096 -16.981927882768957 6.2003053684081522 -0.62932039886446345 0 0.77714595512881146 0.77714595512881146 0 0.62932039886446345 forward_v I I I I #
loop $-1 $-1 $198 $47 #
coedge $-1 $121 $121 $122 $199 reversed $74 $-1 #
coedge $-1 $122 $122 $121 $199 forward $76 $-1 #
coedge $-1 $123 $123 $77 $124 forward $118 $-1 #
edge $-1 $200 0 $200 6.2831853071796004 $123 $201 forward 7 unknown #
face $-1 $202 $203 $26 $-1 $204 forward single #
loop $-1 $-1 $205 $78 #
plane-surface $-1 51.262893363492708 -22.796011496731929 215.25208039011966 0 1 0 0.62932039886446345 0 0.77714595512881146 forward_v I I I I #
coedge $-1 $206 $207 $208 $209 reversed $79 $-1 #
coedge $-1 $130 $81 $210 $211 reversed $51 $-1 #
coedge $-1 $81 $129 $206 $212 reversed $51 $-1 #
coedge $-1 $208 $213 $81 $132 forward $203 $-1 #
edge $-1 $214 -47.149094716611756 $215 -42.067822140638228 $131 $216 forward 7 unknown #
loop $-1 $-1 $138 $82 #
plane-surface $-1 -40.341665321279933 -16.034345142147874 102.12987367048163 0.62932039886446345 0 0.77714595512881146 0.77714595512881146 0 -0.62932039886446345 forward_v I I I I #
loop $-1 $-1 $217 $53 #
coedge $-1 $136 $136 $137 $218 reversed $83 $-1 #
coedge $-1 $137 $137 $136 $218 forward $85 $-1 #
coedge $-1 $138 $138 $86 $139 forward $133 $-1 #
edge $-1 $219 0 $219 6.2831853071796004 $138 $220 forward 7 unknown #
face $-1 $221 $222 $21 $-1 $223 reversed single #
loop $-1 $-1 $224 $87 #
plane-surface $-1 -72.78054139835811 0 0 1 0 0 0 0 -1 forward_v I I I I #
coedge $-1 $225 $151 $226 $227 forward $88 $-1 #
coedge $-1 $228 $90 $225 $229 forward $57 $-1 #
coedge $-1 $90 $228 $230 $231 forward $57 $-1 #
coedge $-1 $154 $153 $90 $147 reversed $155 $-1 #
edge $-1 $232 -42.187925936399253 $233 42.187925936399253 $146 $234 forward 7 unknown #
coedge $-1 $92 $91 $235 $236 forward $36 $-1 #
coedge $-1 $237 $238 $91 $150 reversed $222 $-1 #
edge $-1 $157 -72.78054139835811 $239 72.78054139835811 $149 $240 forward 7 unknown #
coedge $-1 $143 $241 $92 $152 reversed $88 $-1 #
edge $-1 $242 -72.78054139835811 $156 72.78054139835811 $151 $243 forward 7 unknown #
coedge $-1 $146 $93 $241 $244 forward $155 $-1 #
coedge $-1 $93 $146 $237 $245 reversed $155 $-1 #
loop $-1 $-1 $153 $221 #
vertex $-1 $94 $246 #
vertex $-1 $94 $247 #
straight-curve $-1 72.78054139835811 0 14.640048470644508 0 1 0 I I #
face $-1 $248 $249 $22 $-1 $250 reversed single #
loop $-1 $-1 $251 $95 #
plane-surface $-1 -72.78054139835811 0 0 1 0 0 0 0 -1 forward_v I I I I #
coedge $-1 $252 $168 $173 $253 reversed $96 $-1 #
coedge $-1 $254 $98 $255 $256 reversed $61 $-1 #
coedge $-1 $98 $254 $252 $257 forward $61 $-1 #
coedge $-1 $173 $172 $98 $166 forward $174 $-1 #
edge $-1 $258 -25.164528207574385 $259 -8.8822672500753512 $165 $260 forward 7 unknown #
coedge $-1 $100 $99 $251 $261 reversed $39 $-1 #
coedge $-1 $162 $262 $99 $169 reversed $96 $-1 #
edge $-1 $175 -72.78054139835811 $263 72.78054139835811 $168 $264 forward 7 unknown #
coedge $-1 $265 $266 $100 $171 forward $249 $-1 #
edge $-1 $176 -72.78054139835811 $267 72.78054139835811 $170 $268 forward 7 unknown #
coedge $-1 $165 $101 $266 $269 forward $174 $-1 #
coedge $-1 $101 $165 $162 $253 forward $174 $-1 #
loop $-1 $-1 $101 $248 #
vertex $-1 $102 $270 #
vertex $-1 $269 $271 #
straight-curve $-1 72.78054139835811 -17.023397728824868 -6.642603356927296 0 -1 0 I I #
face $-1 $-1 $190 $23 $-1 $272 forward single #
loop $-1 $-1 $273 $103 #
plane-surface $-1 -72.78054139835811 0 0 1 0 0 0 0 -1 forward_v I I I I #
coedge $-1 $274 $275 $276 $277 reversed $104 $-1 #
coedge $-1 $278 $106 $108 $188 forward $65 $-1 #
coedge $-1 $106 $278 $274 $279 forward $65 $-1 #
coedge $-1 $276 $109 $106 $185 forward $190 $-1 #
edge $-1 $192 -17.414701037515741 $280 0.43277315474678524 $184 $281 forward 7 unknown #
coedge $-1 $282 $283 $107 $187 forward $179 $-1 #
edge $-1 $284 -53.460950675614953 $191 -45.021207573378582 $186 $285 forward 7 unknown #
edge $-1 $192 -13.410884372197224 $284 1.8310242626372826e-014 $108 $286 forward 7 unknown #
coedge $-1 $109 $276 $282 $287 forward $190 $-1 #
loop $-1 $-1 $276 $178 #
vertex $-1 $187 $288 #
vertex $-1 $110 $289 #
straight-curve $-1 -82.192550041565369 -25.905664978900219 14.640048470644508 1 0 0 I I #
coedge $-1 $194 $194 $-1 $290 reversed $113 $-1 #
edge $-1 $291 0 $291 6.2831853071796004 $114 $292 forward 7 unknown #
vertex $-1 $117 $293 #
ellipse-curve $-1 -67.569434126081461 -20.806386638253784 10.420176919526332 -0.62932039886446345 0 0.77714595512881146 1.5542919102576229 0 1.2586407977289269 1 I I #
coedge $-1 $198 $198 $-1 $294 reversed $120 $-1 #
edge $-1 $295 0 $295 6.2831853071796004 $121 $296 forward 7 unknown #
vertex $-1 $124 $297 #
ellipse-curve $-1 -67.569434126081461 -13.157469127284127 10.420176919526332 -0.62932039886446345 0 0.77714595512881146 1.5542919102576229 0 1.2586407977289269 1 I I #
face $-1 $-1 $298 $26 $-1 $299 reversed single #
loop $-1 $-1 $131 $125 #
plane-surface $-1 0 0 14.640048470644508 0 0 1 1 0 0 forward_v I I I I #
coedge $-1 $300 $301 $302 $303 reversed $126 $-1 #
coedge $-1 $304 $128 $130 $212 forward $79 $-1 #
coedge $-1 $128 $304 $300 $305 forward $79 $-1 #
coedge $-1 $302 $131 $128 $209 forward $203 $-1 #
edge $-1 $215 1.2555062164898825 $306 14.778838925657992 $208 $307 forward 7 unknown #
coedge $-1 $308 $309 $129 $211 forward $298 $-1 #
edge $-1 $310 -97.100725209350841 $214 -92.985991724415328 $210 $311 forward 7 unknown #
edge $-1 $215 139.02270664943086 $310 145.56108279671622 $130 $312 forward 7 unknown #
coedge $-1 $131 $302 $308 $313 forward $203 $-1 #
vertex $-1 $211 $314 #
vertex $-1 $132 $315 #
straight-curve $-1 25.631446681746354 -9.2726787875638195 14.640048470644501 -1 0 0 I I #
coedge $-1 $217 $217 $-1 $316 reversed $135 $-1 #
edge $-1 $317 0 $317 6.2831853071796004 $136 $318 forward 7 unknown #
vertex $-1 $139 $319 #
ellipse-curve $-1 70.239905110371353 -16.034345142147878 12.582681728176736 0.62932039886446345 0 0.77714595512881146 0.77714595512881146 0 -0.62932039886446345 1 I I #
face $-1 $-1 $155 $21 $-1 $320 reversed single #
loop $-1 $-1 $237 $140 #
plane-surface $-1 0 42.187925936399253 0 0 -1 0 0 0 -1 forward_v I I I I #
coedge $-1 $321 $235 $238 $322 forward $141 $-1 #
coedge $-1 $241 $143 $144 $229 reversed $88 $-1 #
coedge $-1 $235 $321 $143 $227 reversed $141 $-1 #
edge $-1 $242 -14.640048470644508 $323 14.640048470644508 $226 $324 forward 7 unknown #
coedge $-1 $145 $144 $321 $325 forward $57 $-1 #
edge $-1 $233 -72.78054139835811 $323 72.78054139835811 $225 $326 forward 7 unknown #
coedge $-1 $238 $237 $145 $231 reversed $222 $-1 #
edge $-1 $327 -72.78054139835811 $232 72.78054139835811 $230 $328 forward 7 unknown #
vertex $-1 $147 $329 #
vertex $-1 $244 $330 #
straight-curve $-1 72.78054139835811 0 -14.640048470644508 0 -1 0 I I #
coedge $-1 $224 $226 $148 $236 reversed $141 $-1 #
edge $-1 $239 -42.187925936399253 $242 42.187925936399253 $235 $331 forward 7 unknown #
coedge $-1 $230 $149 $154 $245 forward $222 $-1 #
coedge $-1 $149 $230 $224 $322 reversed $222 $-1 #
vertex $-1 $150 $332 #
straight-curve $-1 0 42.187925936399253 14.640048470644508 -1 0 0 I I #
coedge $-1 $151 $225 $153 $244 reversed $88 $-1 #
vertex $-1 $236 $333 #
straight-curve $-1 0 -42.187925936399253 14.640048470644508 1 0 0 I I #
edge $-1 $156 -14.640048470644508 $233 14.640048470644508 $153 $334 forward 7 unknown #
edge $-1 $157 -14.640048470644508 $232 14.640048470644508 $154 $335 forward 7 unknown #
point $-1 72.78054139835811 -42.187925936399253 14.640048470644508 #
point $-1 72.78054139835811 42.187925936399253 14.640048470644508 #
face $-1 $-1 $174 $22 $-1 $336 reversed single #
loop $-1 $-1 $170 $159 #
plane-surface $-1 0 -42.187925936399253 0 0 1 0 0 0 1 forward_v I I I I #
coedge $-1 $337 $338 $167 $261 forward $160 $-1 #
coedge $-1 $262 $162 $164 $257 reversed $96 $-1 #
edge $-1 $259 -5.571301678463648 $175 -2.571301678463648 $173 $339 forward 7 unknown #
coedge $-1 $164 $163 $340 $341 reversed $61 $-1 #
coedge $-1 $266 $265 $163 $256 forward $249 $-1 #
edge $-1 $342 -72.78054139835811 $258 72.78054139835811 $255 $343 forward 7 unknown #
edge $-1 $344 -72.78054139835811 $259 72.78054139835811 $252 $345 forward 7 unknown #
vertex $-1 $256 $346 #
vertex $-1 $166 $347 #
straight-curve $-1 72.78054139835811 -17.023397728824868 -9.642603356927296 0 1 0 I I #
edge $-1 $267 -25.164528207574385 $263 -8.8822672500753512 $251 $348 forward 7 unknown #
coedge $-1 $168 $252 $337 $349 reversed $96 $-1 #
vertex $-1 $261 $350 #
straight-curve $-1 0 -25.905664978900219 -6.642603356927296 -1 0 0 I I #
coedge $-1 $255 $170 $338 $351 forward $249 $-1 #
coedge $-1 $170 $255 $172 $269 reversed $249 $-1 #
vertex $-1 $351 $352 #
straight-curve $-1 0 -42.187925936399253 -6.642603356927296 -1 0 0 I I #
edge $-1 $176 6.642603356927296 $258 9.642603356927296 $172 $353 forward 7 unknown #
point $-1 72.78054139835811 -25.905664978900219 -6.642603356927296 #
point $-1 72.78054139835811 -42.187925936399253 -6.642603356927296 #
plane-surface $-1 0 0 14.640048470644508 0 0 1 1 0 0 forward_v I I I I #
coedge $-1 $283 $282 $275 $354 forward $179 $-1 #
coedge $-1 $275 $181 $183 $279 reversed $104 $-1 #
coedge $-1 $181 $274 $273 $354 reversed $104 $-1 #
coedge $-1 $189 $184 $181 $277 forward $190 $-1 #
edge $-1 $280 -19.834223187760536 $355 -9.4120086432072583 $276 $356 forward 7 unknown #
coedge $-1 $183 $182 $283 $357 reversed $65 $-1 #
edge $-1 $358 -1.8310242626372826e-014 $280 13.410884372197224 $274 $359 forward 7 unknown #
vertex $-1 $185 $360 #
straight-curve $-1 -62.358326853804833 -8.4909639413844786 14.640048470644508 0 1 0 I I #
coedge $-1 $273 $186 $189 $287 reversed $179 $-1 #
coedge $-1 $186 $273 $278 $357 forward $179 $-1 #
vertex $-1 $187 $361 #
straight-curve $-1 -72.78054139835811 -25.905664978900219 59.661256044023091 0 0 1 I I #
straight-curve $-1 -72.780541398358096 -25.905664978900219 6.2003053684081522 -0.77714595512881146 0 -0.62932039886446345 I I #
edge $-1 $355 8.0581907866376934 $191 25.905664978900219 $282 $362 forward 7 unknown #
point $-1 -72.78054139835811 -25.905664978900219 14.640048470644508 #
point $-1 -62.358326853804833 -25.905664978900219 14.640048470644508 #
edge $-1 $363 1 $363 0 $194 $-1 forward 7 unknown #
vertex $-1 $195 $364 #
ellipse-curve $-1 -66.127453610723208 -20.806386638253784 8.6394793179432892 -0.62932039886446345 0 0.77714595512881146 1.5542919102576229 0 1.2586407977289269 1 I I #
point $-1 -66.015142215823843 -20.806386638253784 11.678817717255246 #
edge $-1 $365 1 $365 0 $198 $-1 forward 7 unknown #
vertex $-1 $199 $366 #
ellipse-curve $-1 -66.127453610723208 -13.157469127284127 8.6394793179432892 -0.62932039886446345 0 0.77714595512881146 1.5542919102576229 0 1.2586407977289269 1 I I #
point $-1 -66.015142215823843 -13.157469127284127 11.678817717255246 #
loop $-1 $-1 $210 $202 #
plane-surface $-1 72.78054139835811 0 0 -1 0 0 0 0 1 forward_v I I I I #
coedge $-1 $301 $205 $207 $305 reversed $126 $-1 #
coedge $-1 $205 $300 $367 $368 reversed $126 $-1 #
coedge $-1 $213 $208 $205 $303 forward $203 $-1 #
edge $-1 $306 42.067822140638228 $369 47.149094716611756 $302 $370 forward 7 unknown #
coedge $-1 $207 $206 $309 $371 reversed $79 $-1 #
edge $-1 $372 -145.56108279671622 $306 -139.02270664943086 $300 $373 forward 7 unknown #
vertex $-1 $209 $374 #
straight-curve $-1 67.699268822384596 -8.017172571073937 14.640048470644494 0 -1 0 I I #
coedge $-1 $367 $210 $213 $313 reversed $298 $-1 #
coedge $-1 $210 $367 $304 $371 forward $298 $-1 #
vertex $-1 $211 $375 #
straight-curve $-1 72.78054139835811 -9.2726787875638195 107.62604019505983 0 0 1 I I #
straight-curve $-1 -40.341665321279933 -9.2726787875638195 102.12987367048163 0.77714595512881146 0 -0.62932039886446345 I I #
edge $-1 $369 -22.796011496731929 $214 -9.2726787875638195 $308 $376 forward 7 unknown #
point $-1 72.78054139835811 -9.2726787875638195 14.640048470644508 #
point $-1 67.699268822384582 -9.2726787875638195 14.640048470644501 #
edge $-1 $377 1 $377 0 $217 $-1 forward 7 unknown #
vertex $-1 $218 $378 #
ellipse-curve $-1 68.437026141841855 -16.034345142147878 10.356311662137847 0.62932039886446345 0 0.77714595512881146 0.77714595512881146 0 -0.62932039886446345 1 I I #
point $-1 71.017051065500169 -16.034345142147878 11.953361329312282 #
plane-surface $-1 72.78054139835811 0 0 -1 0 0 0 0 1 forward_v I I I I #
coedge $-1 $226 $224 $228 $325 reversed $141 $-1 #
edge $-1 $239 -14.640048470644508 $327 14.640048470644508 $238 $379 forward 7 unknown #
vertex $-1 $325 $380 #
straight-curve $-1 -72.78054139835811 -42.187925936399253 0 0 0 -1 I I #
edge $-1 $323 -42.187925936399253 $327 42.187925936399253 $321 $381 forward 7 unknown #
straight-curve $-1 0 -42.187925936399253 -14.640048470644508 -1 0 0 I I #
vertex $-1 $231 $382 #
straight-curve $-1 0 42.187925936399253 -14.640048470644508 1 0 0 I I #
point $-1 72.78054139835811 42.187925936399253 -14.640048470644508 #
point $-1 72.78054139835811 -42.187925936399253 -14.640048470644508 #
straight-curve $-1 -72.78054139835811 0 14.640048470644508 0 -1 0 I I #
point $-1 -72.78054139835811 42.187925936399253 14.640048470644508 #
point $-1 -72.78054139835811 -42.187925936399253 14.640048470644508 #
straight-curve $-1 72.78054139835811 -42.187925936399253 0 0 0 -1 I I #
straight-curve $-1 72.78054139835811 42.187925936399253 0 0 0 -1 I I #
plane-surface $-1 72.78054139835811 0 0 -1 0 0 0 0 1 forward_v I I I I #
coedge $-1 $340 $251 $262 $349 forward $160 $-1 #
coedge $-1 $251 $340 $265 $351 reversed $160 $-1 #
straight-curve $-1 72.78054139835811 -25.905664978900219 -4.071301678463648 0 0 1 I I #
coedge $-1 $338 $337 $254 $341 forward $160 $-1 #
edge $-1 $344 8.8822672500753512 $342 25.164528207574385 $340 $383 forward 7 unknown #
vertex $-1 $256 $384 #
straight-curve $-1 0 -42.187925936399253 -9.642603356927296 1 0 0 I I #
vertex $-1 $341 $385 #
straight-curve $-1 0 -25.905664978900219 -9.642603356927296 1 0 0 I I #
point $-1 72.78054139835811 -42.187925936399253 -9.642603356927296 #
point $-1 72.78054139835811 -25.905664978900219 -9.642603356927296 #
straight-curve $-1 -72.78054139835811 -17.023397728824868 -6.642603356927296 0 1 0 I I #
edge $-1 $263 2.571301678463648 $344 5.571301678463648 $337 $386 forward 7 unknown #
point $-1 -72.78054139835811 -25.905664978900219 -6.642603356927296 #
edge $-1 $267 6.642603356927296 $342 9.642603356927296 $338 $387 forward 7 unknown #
point $-1 -72.78054139835811 -42.187925936399253 -6.642603356927296 #
straight-curve $-1 72.78054139835811 -42.187925936399253 0 0 0 -1 I I #
edge $-1 $355 45.021207573378582 $358 53.460950675614953 $273 $388 forward 7 unknown #
vertex $-1 $287 $389 #
straight-curve $-1 -82.192550041565369 -8.0581907866376934 14.640048470644508 -1 0 0 I I #
edge $-1 $358 -0.43277315474678524 $284 17.414701037515741 $283 $390 forward 7 unknown #
vertex $-1 $357 $391 #
straight-curve $-1 -72.780541398358096 -8.0581907866376934 6.2003053684081522 0.77714595512881146 0 0.62932039886446345 I I #
point $-1 -62.358326853804833 -8.0581907866376934 14.640048470644508 #
point $-1 -72.78054139835811 -25.905664978900219 6.2003053684081406 #
straight-curve $-1 -72.78054139835811 0 14.640048470644508 0 -1 0 I I #
vertex $-1 $290 $392 #
point $-1 -64.57316170046559 -20.806386638253784 9.8981201156722172 #
vertex $-1 $294 $393 #
point $-1 -64.57316170046559 -13.157469127284127 9.8981201156722172 #
coedge $-1 $309 $308 $301 $368 forward $298 $-1 #
edge $-1 $369 92.985991724415328 $372 97.100725209350841 $367 $394 forward 7 unknown #
vertex $-1 $313 $395 #
straight-curve $-1 25.631446681746354 -22.796011496731929 14.640048470644501 1 0 0 I I #
edge $-1 $372 -14.778838925657992 $310 -1.2555062164898825 $309 $396 forward 7 unknown #
vertex $-1 $371 $397 #
straight-curve $-1 -40.341665321279933 -22.796011496731929 102.12987367048163 -0.77714595512881146 0 0.62932039886446345 I I #
point $-1 67.699268822384582 -22.796011496731929 14.640048470644501 #
point $-1 72.780541398358096 -9.2726787875638195 10.525314985708988 #
straight-curve $-1 72.78054139835811 0 14.640048470644508 0 1 0 I I #
vertex $-1 $316 $398 #
point $-1 69.214172096970671 -16.034345142147878 9.7269912632733835 #
straight-curve $-1 -72.78054139835811 42.187925936399253 0 0 0 -1 I I #
point $-1 -72.78054139835811 -42.187925936399253 -14.640048470644508 #
straight-curve $-1 -72.78054139835811 0 -14.640048470644508 0 1 0 I I #
point $-1 -72.78054139835811 42.187925936399253 -14.640048470644508 #
straight-curve $-1 -72.78054139835811 -17.023397728824868 -9.642603356927296 0 -1 0 I I #
point $-1 -72.78054139835811 -42.187925936399253 -9.642603356927296 #
point $-1 -72.78054139835811 -25.905664978900219 -9.642603356927296 #
straight-curve $-1 -72.78054139835811 -25.905664978900219 -4.071301678463648 0 0 -1 I I #
straight-curve $-1 -72.78054139835811 -42.187925936399253 0 0 0 -1 I I #
straight-curve $-1 -72.78054139835811 -8.0581907866376934 59.661256044023091 0 0 -1 I I #
point $-1 -72.78054139835811 -8.0581907866376934 14.640048470644508 #
straight-curve $-1 -72.78054139835811 -8.4909639413844786 6.2003053684081486 0 -1 0 I I #
point $-1 -72.78054139835811 -8.0581907866376934 6.2003053684081406 #
point $-1 -64.868812812994278 -20.806386638253784 7.0851874076856669 #
point $-1 -64.868812812994278 -13.157469127284127 7.0851874076856669 #
straight-curve $-1 72.78054139835811 -22.796011496731929 107.62604019505983 0 0 -1 I I #
point $-1 72.78054139835811 -22.796011496731929 14.640048470644508 #
straight-curve $-1 72.78054139835811 -8.017172571073937 10.525314985708981 0 1 0 I I #
point $-1 72.780541398358096 -22.796011496731929 10.525314985708988 #
point $-1 67.807705742977404 -16.034345142147878 9.5791657070090341 #
End-of-ACIS-data 