500 0 4 0           
7 Unknown 11 ACIS 5.0 NT 24 Fri Mar 26 19:03:27 1999 
-1 9.9999999999999995e-007 1e-010 
body $-1 $4 $-1 $5 #
body $-1 $6 $-1 $7 #
body $-1 $8 $-1 $9 #
body $-1 $10 $-1 $11 #
lump $-1 $-1 $12 $0 #
transform $-1 1 0 0 0 1 0 0 0 1 46.688436536759546 32.08303629027985 8.4666043002312961 1 rotate no_reflect no_shear #
lump $-1 $-1 $13 $1 #
transform $-1 1 0 0 0 1 0 0 0 1 46.688436536759546 32.08303629027985 8.4666043002312961 1 rotate no_reflect no_shear #
lump $-1 $-1 $14 $2 #
transform $-1 1 0 0 0 1 0 0 0 1 46.688436536759546 32.08303629027985 8.4666043002312961 1 rotate no_reflect no_shear #
lump $-1 $-1 $15 $3 #
transform $-1 1 0 0 0 1 0 0 0 1 46.688436536759546 32.08303629027985 8.4666043002312961 1 rotate no_reflect no_shear #
shell $-1 $-1 $-1 $16 $-1 $4 #
shell $-1 $-1 $-1 $17 $-1 $6 #
shell $-1 $-1 $-1 $18 $-1 $8 #
shell $-1 $-1 $-1 $19 $-1 $10 #
face $-1 $20 $21 $12 $-1 $22 forward single #
face $-1 $23 $24 $13 $-1 $25 forward single #
face $-1 $26 $27 $14 $-1 $28 reversed single #
face $-1 $29 $30 $15 $-1 $31 forward single #
face $-1 $32 $33 $12 $-1 $34 reversed single #
loop $-1 $-1 $35 $16 #
plane-surface $-1 0 0 8.4666043002312961 0 0 1 1 0 0 forward_v I I I I #
face $-1 $36 $37 $13 $-1 $38 reversed single #
loop $-1 $-1 $39 $17 #
plane-surface $-1 -43.730230781395463 0 6.0145576841560846 0 0 1 1 0 0 forward_v I I I I #
face $-1 $40 $41 $14 $-1 $42 reversed single #
loop $-1 $-1 $43 $18 #
plane-surface $-1 -36.032525878292191 -32.08303629027985 3.2151981589421439 0 -0.57357644374324357 0.81915203911291934 1 0 0 forward_v I I I I #
face $-1 $44 $45 $15 $-1 $46 forward single #
loop $-1 $47 $48 $19 #
cone-surface $-1 -36.032525878292191 -27.671216724267307 4.8955714772436458 0 0.57357644374324357 -0.81915203911291934 1.5 0 0 1 I I 0 1 1.5 forward I I I I #
face $-1 $49 $50 $12 $-1 $51 reversed single #
loop $-1 $-1 $52 $20 #
plane-surface $-1 0 0 -8.4666043002312961 0 0 1 1 0 0 forward_v I I I I #
coedge $-1 $53 $54 $55 $56 forward $21 $-1 #
face $-1 $57 $58 $13 $-1 $59 reversed single #
loop $-1 $-1 $60 $23 #
plane-surface $-1 -43.730230781395463 0 1.6334833547349668 0 0 1 1 0 0 forward_v I I I I #
coedge $-1 $61 $62 $63 $64 forward $24 $-1 #
face $-1 $65 $66 $14 $-1 $67 reversed single #
loop $-1 $-1 $68 $26 #
plane-surface $-1 -31.293026730553009 -85.641811075653166 79.705054143103567 -1 0 0 0 -0.57357644374324357 0.81915203911291934 forward_v I I I I #
coedge $-1 $69 $70 $71 $72 reversed $27 $-1 #
face $-1 $-1 $73 $15 $-1 $74 forward single #
loop $-1 $75 $76 $29 #
cone-surface $-1 -36.032525878292191 -26.579107360061883 3.3358776955658751 0 0.57357644374324357 -0.81915203911291934 0.75 0 0 1 I I -0.70710678118654757 0.70710678118654757 0.75 forward I I I I #
loop $-1 $-1 $77 $19 #
coedge $-1 $48 $48 $78 $79 reversed $30 $-1 #
face $-1 $80 $81 $12 $-1 $82 reversed single #
loop $-1 $-1 $83 $32 #
plane-surface $-1 0 -32.08303629027985 0 0 1 0 0 0 1 forward_v I I I I #
coedge $-1 $84 $85 $86 $87 forward $33 $-1 #
coedge $-1 $88 $35 $89 $90 forward $21 $-1 #
coedge $-1 $35 $88 $91 $92 forward $21 $-1 #
coedge $-1 $93 $94 $35 $56 reversed $95 $-1 #
edge $-1 $96 -32.08303629027985 $97 32.08303629027985 $55 $98 forward 7 unknown #
face $-1 $99 $100 $13 $-1 $101 reversed single #
loop $-1 $-1 $102 $36 #
plane-surface $-1 -40.772025026031379 0 3.8240205194455257 -1 0 0 0 0 1 forward_v I I I I #
coedge $-1 $103 $104 $105 $106 forward $37 $-1 #
coedge $-1 $107 $39 $108 $109 reversed $24 $-1 #
coedge $-1 $39 $107 $110 $111 reversed $24 $-1 #
coedge $-1 $102 $112 $39 $64 reversed $58 $-1 #
edge $-1 $113 -32.08303629027985 $114 32.08303629027985 $63 $115 forward 7 unknown #
face $-1 $116 $117 $14 $-1 $118 forward single #
loop $-1 $-1 $119 $40 #
plane-surface $-1 0 -32.08303629027985 0 0 1 0 0 0 1 forward_v I I I I #
coedge $-1 $120 $121 $122 $123 reversed $41 $-1 #
coedge $-1 $124 $43 $125 $126 reversed $27 $-1 #
coedge $-1 $43 $124 $120 $127 forward $27 $-1 #
coedge $-1 $122 $119 $43 $72 forward $66 $-1 #
edge $-1 $128 -22.755762086885284 $129 -13.276763791406914 $71 $130 forward 7 unknown #
loop $-1 $-1 $78 $44 #
plane-surface $-1 -36.032525878292191 -32.08303629027985 3.2151981589421439 0 -0.57357644374324357 0.81915203911291934 1 0 0 forward_v I I I I #
loop $-1 $-1 $131 $29 #
coedge $-1 $76 $76 $77 $132 reversed $45 $-1 #
coedge $-1 $77 $77 $76 $132 forward $47 $-1 #
coedge $-1 $78 $78 $48 $79 forward $73 $-1 #
edge $-1 $133 -1.1632797024658986e-015 $133 6.2831853071795996 $78 $134 forward 7 unknown #
face $-1 $135 $136 $12 $-1 $137 reversed single #
loop $-1 $-1 $138 $49 #
plane-surface $-1 -46.688436536759546 0 0 1 0 0 0 0 -1 forward_v I I I I #
coedge $-1 $139 $91 $140 $141 forward $50 $-1 #
coedge $-1 $142 $52 $139 $143 forward $33 $-1 #
coedge $-1 $52 $142 $144 $145 forward $33 $-1 #
coedge $-1 $94 $93 $52 $87 reversed $95 $-1 #
edge $-1 $146 -32.08303629027985 $147 32.08303629027985 $86 $148 forward 7 unknown #
coedge $-1 $54 $53 $149 $150 forward $21 $-1 #
coedge $-1 $151 $152 $53 $90 reversed $136 $-1 #
edge $-1 $97 -46.688436536759546 $153 46.688436536759546 $89 $154 forward 7 unknown #
coedge $-1 $83 $155 $54 $92 reversed $50 $-1 #
edge $-1 $156 -46.688436536759546 $96 46.688436536759546 $91 $157 forward 7 unknown #
coedge $-1 $86 $55 $155 $158 forward $95 $-1 #
coedge $-1 $55 $86 $151 $159 reversed $95 $-1 #
loop $-1 $-1 $93 $135 #
vertex $-1 $56 $160 #
vertex $-1 $56 $161 #
straight-curve $-1 46.688436536759546 0 8.4666043002312961 0 1 0 I I #
face $-1 $162 $163 $13 $-1 $164 reversed single #
loop $-1 $-1 $165 $57 #
plane-surface $-1 0 -32.08303629027985 0 0 1 0 0 0 1 forward_v I I I I #
coedge $-1 $105 $63 $166 $167 reversed $58 $-1 #
coedge $-1 $168 $60 $165 $169 reversed $37 $-1 #
coedge $-1 $60 $168 $170 $171 reversed $37 $-1 #
coedge $-1 $112 $102 $60 $106 reversed $58 $-1 #
edge $-1 $172 -32.08303629027985 $173 32.08303629027985 $105 $174 forward 7 unknown #
coedge $-1 $62 $61 $175 $176 reversed $24 $-1 #
coedge $-1 $177 $178 $61 $109 forward $179 $-1 #
edge $-1 $180 -24.823321146061815 $114 -18.906909635333648 $108 $181 forward 7 unknown #
coedge $-1 $182 $166 $62 $111 forward $100 $-1 #
edge $-1 $113 18.906909635333648 $183 24.823321146061815 $110 $184 forward 7 unknown #
coedge $-1 $63 $105 $177 $185 reversed $58 $-1 #
vertex $-1 $111 $186 #
vertex $-1 $109 $187 #
straight-curve $-1 -40.772025026031379 0 6.0145576841560846 0 1 0 I I #
face $-1 $-1 $188 $14 $-1 $189 forward single #
loop $-1 $-1 $125 $65 #
plane-surface $-1 -40.772025026031379 0 3.8240205194455257 -1 0 0 0 0 1 forward_v I I I I #
coedge $-1 $71 $190 $191 $192 forward $66 $-1 #
coedge $-1 $121 $68 $70 $127 reversed $41 $-1 #
coedge $-1 $68 $120 $193 $194 reversed $41 $-1 #
coedge $-1 $190 $71 $68 $123 forward $66 $-1 #
edge $-1 $129 -36.63732891260964 $195 -31.385922771320487 $122 $196 forward 7 unknown #
coedge $-1 $70 $69 $197 $198 reversed $27 $-1 #
coedge $-1 $191 $199 $69 $126 forward $117 $-1 #
edge $-1 $200 4.1594982897229897 $128 13.315045381262713 $125 $201 forward 7 unknown #
edge $-1 $202 -9.1555470915397237 $129 0 $120 $203 forward 7 unknown #
vertex $-1 $126 $204 #
vertex $-1 $72 $205 #
straight-curve $-1 -18.016262939146095 -32.08303629027985 3.2151981589421417 1 0 0 I I #
coedge $-1 $131 $131 $-1 $206 reversed $75 $-1 #
edge $-1 $207 0 $207 6.2831853071796004 $76 $208 forward 7 unknown #
vertex $-1 $79 $209 #
ellipse-curve $-1 -36.032525878292191 -28.33314375566529 5.8409012295867182 0 -0.57357644374324357 0.81915203911291934 1.5 0 0 1 I I #
face $-1 $-1 $95 $12 $-1 $210 reversed single #
loop $-1 $-1 $151 $80 #
plane-surface $-1 0 32.08303629027985 0 0 -1 0 0 0 -1 forward_v I I I I #
coedge $-1 $211 $149 $152 $212 forward $81 $-1 #
coedge $-1 $155 $83 $84 $143 reversed $50 $-1 #
coedge $-1 $149 $211 $83 $141 reversed $81 $-1 #
edge $-1 $156 -8.4666043002312961 $213 8.4666043002312961 $140 $214 forward 7 unknown #
coedge $-1 $85 $84 $211 $215 forward $33 $-1 #
edge $-1 $147 -46.688436536759546 $213 46.688436536759546 $139 $216 forward 7 unknown #
coedge $-1 $152 $151 $85 $145 reversed $136 $-1 #
edge $-1 $217 -46.688436536759546 $146 46.688436536759546 $144 $218 forward 7 unknown #
vertex $-1 $87 $219 #
vertex $-1 $158 $220 #
straight-curve $-1 46.688436536759546 0 -8.4666043002312961 0 -1 0 I I #
coedge $-1 $138 $140 $88 $150 reversed $81 $-1 #
edge $-1 $153 -32.08303629027985 $156 32.08303629027985 $149 $221 forward 7 unknown #
coedge $-1 $144 $89 $94 $159 forward $136 $-1 #
coedge $-1 $89 $144 $138 $212 reversed $136 $-1 #
vertex $-1 $90 $222 #
straight-curve $-1 0 32.08303629027985 8.4666043002312961 -1 0 0 I I #
coedge $-1 $91 $139 $93 $158 reversed $50 $-1 #
vertex $-1 $150 $223 #
straight-curve $-1 0 -32.08303629027985 8.4666043002312961 1 0 0 I I #
edge $-1 $96 -8.4666043002312961 $147 8.4666043002312961 $93 $224 forward 7 unknown #
edge $-1 $97 -8.4666043002312961 $146 8.4666043002312961 $94 $225 forward 7 unknown #
point $-1 46.688436536759546 -32.08303629027985 8.4666043002312961 #
point $-1 46.688436536759546 32.08303629027985 8.4666043002312961 #
face $-1 $-1 $179 $13 $-1 $226 reversed single #
loop $-1 $-1 $227 $99 #
plane-surface $-1 -46.688436536759546 0 0 1 0 0 0 0 -1 forward_v I I I I #
coedge $-1 $166 $182 $103 $169 forward $100 $-1 #
coedge $-1 $110 $165 $102 $167 forward $100 $-1 #
edge $-1 $173 -0.27852690498779609 $113 4.1025474244333218 $166 $228 forward 7 unknown #
coedge $-1 $104 $103 $227 $229 reversed $37 $-1 #
edge $-1 $230 -24.823321146061815 $173 -18.906909635333648 $165 $231 forward 7 unknown #
coedge $-1 $178 $177 $104 $171 forward $179 $-1 #
edge $-1 $172 18.906909635333648 $232 24.823321146061815 $170 $233 forward 7 unknown #
vertex $-1 $171 $234 #
vertex $-1 $169 $235 #
straight-curve $-1 -40.772025026031379 0 1.6334833547349668 0 -1 0 I I #
coedge $-1 $236 $237 $107 $176 forward $163 $-1 #
edge $-1 $183 -32.08303629027985 $180 32.08303629027985 $175 $238 forward 7 unknown #
coedge $-1 $170 $108 $112 $185 forward $179 $-1 #
coedge $-1 $108 $170 $236 $239 reversed $179 $-1 #
loop $-1 $-1 $170 $162 #
vertex $-1 $239 $240 #
straight-curve $-1 -21.865115390697731 32.08303629027985 6.0145576841560846 1 0 0 I I #
coedge $-1 $165 $110 $237 $241 forward $100 $-1 #
vertex $-1 $241 $242 #
straight-curve $-1 -21.865115390697731 -32.08303629027985 6.0145576841560846 -1 0 0 I I #
edge $-1 $114 -4.1025474244333218 $172 0.27852690498779609 $177 $243 forward 7 unknown #
point $-1 -40.772025026031379 -32.08303629027985 6.0145576841560846 #
point $-1 -40.772025026031379 32.08303629027985 6.0145576841560846 #
loop $-1 $-1 $244 $116 #
plane-surface $-1 0 0 8.4666043002312961 0 0 1 1 0 0 forward_v I I I I #
coedge $-1 $119 $122 $245 $246 reversed $66 $-1 #
coedge $-1 $199 $125 $119 $192 reversed $117 $-1 #
edge $-1 $247 31.385922771320487 $128 36.63732891260964 $119 $248 forward 7 unknown #
coedge $-1 $197 $245 $121 $194 forward $188 $-1 #
edge $-1 $195 10.737869247546733 $202 18.237654316775856 $193 $249 forward 7 unknown #
vertex $-1 $123 $250 #
straight-curve $-1 -31.293026730553009 -32.08303629027985 39.852527071551783 0 0 1 I I #
coedge $-1 $244 $193 $124 $198 forward $188 $-1 #
edge $-1 $202 13.276763791406914 $200 22.755762086885277 $197 $251 forward 7 unknown #
coedge $-1 $125 $191 $244 $252 reversed $117 $-1 #
vertex $-1 $252 $253 #
straight-curve $-1 -40.772025026031379 -21.17598971533744 10.852394537006713 0 -0.81915203911291934 -0.57357644374324357 I I #
vertex $-1 $198 $254 #
straight-curve $-1 -31.293026730553009 -32.08303629027985 3.2151981589421439 0 -0.81915203911291934 -0.57357644374324357 I I #
point $-1 -40.772025026031379 -32.08303629027985 3.2151981589421439 #
point $-1 -31.293026730553009 -32.08303629027985 3.2151981589421439 #
edge $-1 $255 1 $255 0 $131 $-1 forward 7 unknown #
vertex $-1 $132 $256 #
ellipse-curve $-1 -36.032525878292191 -27.009289692869316 3.9502417249005646 0 -0.57357644374324357 0.81915203911291934 1.5 0 0 1 I I #
point $-1 -34.532525878292191 -28.333143755665297 5.8409012295867253 #
plane-surface $-1 46.688436536759546 0 0 -1 0 0 0 0 1 forward_v I I I I #
coedge $-1 $140 $138 $142 $215 reversed $81 $-1 #
edge $-1 $153 -8.4666043002312961 $217 8.4666043002312961 $152 $257 forward 7 unknown #
vertex $-1 $215 $258 #
straight-curve $-1 -46.688436536759546 -32.08303629027985 0 0 0 -1 I I #
edge $-1 $213 -32.08303629027985 $217 32.08303629027985 $211 $259 forward 7 unknown #
straight-curve $-1 0 -32.08303629027985 -8.4666043002312961 -1 0 0 I I #
vertex $-1 $145 $260 #
straight-curve $-1 0 32.08303629027985 -8.4666043002312961 1 0 0 I I #
point $-1 46.688436536759546 32.08303629027985 -8.4666043002312961 #
point $-1 46.688436536759546 -32.08303629027985 -8.4666043002312961 #
straight-curve $-1 -46.688436536759546 0 8.4666043002312961 0 -1 0 I I #
point $-1 -46.688436536759546 32.08303629027985 8.4666043002312961 #
point $-1 -46.688436536759546 -32.08303629027985 8.4666043002312961 #
straight-curve $-1 46.688436536759546 -32.08303629027985 0 0 0 -1 I I #
straight-curve $-1 46.688436536759546 32.08303629027985 0 0 0 -1 I I #
plane-surface $-1 0 32.08303629027985 0 0 -1 0 0 0 -1 forward_v I I I I #
coedge $-1 $237 $236 $168 $229 forward $163 $-1 #
straight-curve $-1 -40.772025026031379 -32.08303629027985 1.9120102597227628 0 0 1 I I #
edge $-1 $232 -32.08303629027985 $230 32.08303629027985 $227 $261 forward 7 unknown #
vertex $-1 $169 $262 #
straight-curve $-1 -21.865115390697731 -32.08303629027985 1.6334833547349668 1 0 0 I I #
vertex $-1 $171 $263 #
straight-curve $-1 -21.865115390697731 32.08303629027985 1.6334833547349668 -1 0 0 I I #
point $-1 -40.772025026031379 32.08303629027985 1.6334833547349668 #
point $-1 -40.772025026031379 -32.08303629027985 1.6334833547349668 #
coedge $-1 $227 $175 $178 $239 forward $163 $-1 #
coedge $-1 $175 $227 $182 $241 reversed $163 $-1 #
straight-curve $-1 -46.688436536759546 0 6.0145576841560846 0 1 0 I I #
edge $-1 $180 -6.0145576841560846 $232 -1.6334833547349668 $178 $264 forward 7 unknown #
point $-1 -46.688436536759546 32.08303629027985 6.0145576841560846 #
edge $-1 $183 -6.0145576841560846 $230 -1.6334833547349668 $237 $265 forward 7 unknown #
point $-1 -46.688436536759546 -32.08303629027985 6.0145576841560846 #
straight-curve $-1 -40.772025026031379 32.08303629027985 1.9120102597227628 0 0 -1 I I #
coedge $-1 $245 $197 $199 $252 forward $188 $-1 #
coedge $-1 $193 $244 $190 $246 forward $188 $-1 #
edge $-1 $247 -40.772025026031372 $195 -31.293026730553009 $190 $266 forward 7 unknown #
vertex $-1 $246 $267 #
straight-curve $-1 -40.772025026031372 -32.08303629027985 39.852527071551783 0 0 -1 I I #
straight-curve $-1 -31.293026730553009 -42.820905537826583 8.4666043002312961 0 1 0 I I #
point $-1 -31.293026730553009 -32.08303629027985 8.4666043002312961 #
straight-curve $-1 -18.016262939146095 -24.583251221050727 8.4666043002312961 -1 0 0 I I #
edge $-1 $200 -18.237654316775856 $247 -10.737869247546733 $244 $268 forward 7 unknown #
point $-1 -40.772025026031372 -24.583251221050727 8.4666043002312961 #
point $-1 -31.293026730553009 -24.583251221050727 8.4666043002312961 #
vertex $-1 $206 $269 #
point $-1 -34.532525878292191 -27.009289692869316 3.9502417249005646 #
straight-curve $-1 -46.688436536759546 32.08303629027985 0 0 0 -1 I I #
point $-1 -46.688436536759546 -32.08303629027985 -8.4666043002312961 #
straight-curve $-1 -46.688436536759546 0 -8.4666043002312961 0 1 0 I I #
point $-1 -46.688436536759546 32.08303629027985 -8.4666043002312961 #
straight-curve $-1 -46.688436536759546 0 1.6334833547349668 0 -1 0 I I #
point $-1 -46.688436536759546 -32.08303629027985 1.6334833547349668 #
point $-1 -46.688436536759546 32.08303629027985 1.6334833547349668 #
straight-curve $-1 -46.688436536759546 32.08303629027985 0 0 0 -1 I I #
straight-curve $-1 -46.688436536759546 -32.08303629027985 0 0 0 -1 I I #
straight-curve $-1 0 -32.08303629027985 8.4666043002312961 1 0 0 I I #
point $-1 -40.772025026031372 -32.08303629027985 8.4666043002312961 #
straight-curve $-1 -40.772025026031372 -42.820905537826583 8.4666043002312961 0 -1 0 I I #
point $-1 -36.032525878292191 -26.14892502725445 2.7215136662311856 #
End-of-ACIS-data 