500 0 8 0           
7 Unknown 11 ACIS 5.0 NT 24 Thu Mar 25 17:35:25 1999 
-1 9.9999999999999995e-007 1e-010 
body $-1 $8 $-1 $9 #
body $-1 $10 $-1 $11 #
body $-1 $12 $-1 $13 #
body $-1 $14 $-1 $15 #
body $-1 $16 $-1 $17 #
body $-1 $18 $-1 $19 #
body $-1 $20 $-1 $21 #
body $-1 $22 $-1 $23 #
lump $-1 $-1 $24 $0 #
transform $-1 1 0 0 0 1 0 0 0 1 78.521683400982695 46.825685908390213 15.437457032806668 1 rotate no_reflect no_shear #
lump $-1 $-1 $25 $1 #
transform $-1 1 0 0 0 1 0 0 0 1 78.521683400982695 46.825685908390213 15.437457032806668 1 rotate no_reflect no_shear #
lump $-1 $-1 $26 $2 #
transform $-1 1 0 0 0 1 0 0 0 1 78.521683400982695 46.825685908390213 15.437457032806668 1 rotate no_reflect no_shear #
lump $-1 $-1 $27 $3 #
transform $-1 1 0 0 0 1 0 0 0 1 78.521683400982695 46.825685908390213 15.437457032806668 1 rotate no_reflect no_shear #
lump $-1 $-1 $28 $4 #
transform $-1 1 0 0 0 1 0 0 0 1 78.521683400982695 46.825685908390213 15.437457032806668 1 rotate no_reflect no_shear #
lump $-1 $-1 $29 $5 #
transform $-1 1 0 0 0 1 0 0 0 1 78.521683400982695 46.825685908390213 15.437457032806668 1 rotate no_reflect no_shear #
lump $-1 $-1 $30 $6 #
transform $-1 1 0 0 0 1 0 0 0 1 78.521683400982695 46.825685908390213 15.437457032806668 1 rotate no_reflect no_shear #
lump $-1 $-1 $31 $7 #
transform $-1 1 0 0 0 1 0 0 0 1 78.521683400982695 46.825685908390213 15.437457032806668 1 rotate no_reflect no_shear #
shell $-1 $-1 $-1 $32 $-1 $8 #
shell $-1 $-1 $-1 $33 $-1 $10 #
shell $-1 $-1 $-1 $34 $-1 $12 #
shell $-1 $-1 $-1 $35 $-1 $14 #
shell $-1 $-1 $-1 $36 $-1 $16 #
shell $-1 $-1 $-1 $37 $-1 $18 #
shell $-1 $-1 $-1 $38 $-1 $20 #
shell $-1 $-1 $-1 $39 $-1 $22 #
face $-1 $40 $41 $24 $-1 $42 forward single #
face $-1 $43 $44 $25 $-1 $45 reversed single #
face $-1 $46 $47 $26 $-1 $48 reversed single #
face $-1 $49 $50 $27 $-1 $51 forward single #
face $-1 $52 $53 $28 $-1 $54 forward single #
face $-1 $55 $56 $29 $-1 $57 reversed single #
face $-1 $58 $59 $30 $-1 $60 forward single #
face $-1 $61 $62 $31 $-1 $63 forward single #
face $-1 $64 $65 $24 $-1 $66 reversed single #
loop $-1 $-1 $67 $32 #
plane-surface $-1 0 0 15.437457032806668 0 0 1 1 0 0 forward_v I I I I #
face $-1 $68 $69 $25 $-1 $70 reversed single #
loop $-1 $-1 $71 $33 #
plane-surface $-1 -72.367623390277913 -22.81294221741118 0 0 1 0 0 0 1 forward_v I I I I #
face $-1 $72 $73 $26 $-1 $74 reversed single #
loop $-1 $-1 $75 $34 #
plane-surface $-1 65.623518864663779 -46.825685908390227 3.6814751353859805 0 -0.69465837861970381 0.71933979245794832 1 0 0 forward_v I I I I #
face $-1 $76 $77 $27 $-1 $78 forward single #
loop $-1 $79 $80 $35 #
cone-surface $-1 60.095734063384256 -38.855451015486125 7.6091512146540108 0 0.69465837861970381 -0.71933979245794832 1.5 0 0 1 I I 0 1 1.5 forward I I I I #
face $-1 $81 $82 $28 $-1 $83 forward single #
loop $-1 $84 $85 $36 #
cone-surface $-1 71.151303665943331 -38.855451015486125 7.6091512146540108 0 0.69465837861970381 -0.71933979245794832 1.5 0 0 1 I I 0 1 1.5 forward I I I I #
face $-1 $86 $87 $29 $-1 $88 reversed single #
loop $-1 $-1 $89 $37 #
plane-surface $-1 -66.213563379573131 121.75186312543757 170.20116698491745 1 0 0 0 -0.81915205242281985 -0.57357642473473569 forward_v I I I I #
face $-1 $90 $91 $30 $-1 $92 forward single #
loop $-1 $93 $94 $38 #
cone-surface $-1 -57.1230371438131 40.93547829135629 8.2478557940595785 0 -0.81915205242281985 -0.57357642473473569 2 0 0 1 I I 0 1 2 forward I I I I #
face $-1 $95 $96 $31 $-1 $97 forward single #
loop $-1 $98 $99 $39 #
cone-surface $-1 -43.487247790173051 40.93547829135629 8.2478557940595785 0 -0.81915205242281985 -0.57357642473473569 2 0 0 1 I I 0 1 2 forward I I I I #
face $-1 $100 $101 $24 $-1 $102 reversed single #
loop $-1 $-1 $103 $40 #
plane-surface $-1 0 0 -15.437457032806668 0 0 1 1 0 0 forward_v I I I I #
coedge $-1 $104 $105 $106 $107 forward $41 $-1 #
face $-1 $108 $109 $25 $-1 $110 reversed single #
loop $-1 $-1 $111 $43 #
plane-surface $-1 -72.367623390277913 -15.950771842776877 0 0 -1 0 0 0 -1 forward_v I I I I #
coedge $-1 $112 $113 $114 $115 reversed $44 $-1 #
face $-1 $116 $117 $26 $-1 $118 reversed single #
loop $-1 $-1 $119 $46 #
plane-surface $-1 52.725354328344864 -155.91717646402293 116.64901801760922 1 0 0 0 0.69465837861970381 -0.71933979245794832 forward_v I I I I #
coedge $-1 $120 $121 $122 $123 reversed $47 $-1 #
face $-1 $-1 $124 $27 $-1 $125 forward single #
loop $-1 $126 $127 $49 #
cone-surface $-1 60.095734063384256 -36.451060012002323 5.1193315008682436 0 0.69465837861970381 -0.71933979245794832 0.75 0 0 1 I I -0.70710678118654757 0.70710678118654757 0.75 forward I I I I #
loop $-1 $-1 $128 $35 #
coedge $-1 $80 $80 $129 $130 reversed $50 $-1 #
face $-1 $-1 $131 $28 $-1 $132 forward single #
loop $-1 $133 $134 $52 #
cone-surface $-1 71.151303665943331 -36.451060012002323 5.1193315008682436 0 0.69465837861970381 -0.71933979245794832 0.75 0 0 1 I I -0.70710678118654757 0.70710678118654757 0.75 forward I I I I #
loop $-1 $-1 $135 $36 #
coedge $-1 $85 $85 $136 $137 reversed $53 $-1 #
face $-1 $138 $139 $29 $-1 $140 reversed single #
loop $-1 $-1 $141 $55 #
plane-surface $-1 -50.305142466993075 -6.8905331097821119 80.124794126340461 0 0.81915205242281985 0.57357642473473569 1 0 0 forward_v I I I I #
coedge $-1 $142 $143 $144 $145 reversed $56 $-1 #
face $-1 $-1 $146 $30 $-1 $147 forward single #
loop $-1 $148 $149 $58 #
cone-surface $-1 -57.1230371438131 38.436948284723201 6.4983663017750093 0 -0.81915205242281985 -0.57357642473473569 1 0 0 1 I I -0.70710678118654746 0.70710678118654746 1 forward I I I I #
loop $-1 $-1 $150 $38 #
coedge $-1 $94 $94 $151 $152 reversed $59 $-1 #
face $-1 $-1 $153 $31 $-1 $154 forward single #
loop $-1 $155 $156 $61 #
cone-surface $-1 -43.487247790173051 38.436948284723201 6.4983663017750093 0 -0.81915205242281985 -0.57357642473473569 1 0 0 1 I I -0.70710678118654746 0.70710678118654746 1 forward I I I I #
loop $-1 $-1 $157 $39 #
coedge $-1 $99 $99 $158 $159 reversed $62 $-1 #
face $-1 $160 $161 $24 $-1 $162 reversed single #
loop $-1 $-1 $163 $64 #
plane-surface $-1 0 -46.825685908390213 0 0 1 0 0 0 1 forward_v I I I I #
coedge $-1 $164 $165 $166 $167 forward $65 $-1 #
coedge $-1 $168 $67 $169 $170 forward $41 $-1 #
coedge $-1 $67 $168 $171 $172 forward $41 $-1 #
coedge $-1 $173 $174 $67 $107 reversed $175 $-1 #
edge $-1 $176 -46.825685908390213 $177 46.825685908390213 $106 $178 forward 7 unknown #
face $-1 $179 $180 $25 $-1 $181 reversed single #
loop $-1 $-1 $182 $68 #
plane-surface $-1 -66.213563379573131 -19.381857030094029 0 -1 0 0 0 0 1 forward_v I I I I #
coedge $-1 $183 $184 $185 $186 forward $69 $-1 #
coedge $-1 $187 $71 $188 $189 reversed $44 $-1 #
coedge $-1 $71 $187 $190 $191 reversed $44 $-1 #
coedge $-1 $192 $193 $71 $115 forward $194 $-1 #
edge $-1 $195 -15.437457032806668 $196 15.437457032806668 $114 $197 forward 7 unknown #
face $-1 $198 $199 $26 $-1 $200 forward single #
loop $-1 $-1 $201 $72 #
plane-surface $-1 0 -46.825685908390213 0 0 1 0 0 0 1 forward_v I I I I #
coedge $-1 $202 $203 $204 $205 reversed $73 $-1 #
coedge $-1 $206 $75 $207 $208 reversed $47 $-1 #
coedge $-1 $75 $206 $202 $209 forward $47 $-1 #
coedge $-1 $204 $210 $75 $123 forward $199 $-1 #
edge $-1 $211 -45.709923968650806 $212 -19.913594896012974 $122 $213 forward 7 unknown #
loop $-1 $-1 $129 $76 #
plane-surface $-1 65.623518864663779 -46.825685908390227 3.6814751353859805 0 -0.69465837861970381 0.71933979245794832 1 0 0 forward_v I I I I #
loop $-1 $-1 $214 $49 #
coedge $-1 $127 $127 $128 $215 reversed $77 $-1 #
coedge $-1 $128 $128 $127 $215 forward $79 $-1 #
coedge $-1 $129 $129 $80 $130 forward $124 $-1 #
edge $-1 $216 -3.1736484363471091e-015 $216 6.2831853071795969 $129 $217 forward 7 unknown #
loop $-1 $-1 $136 $81 #
plane-surface $-1 65.623518864663779 -46.825685908390227 3.6814751353859805 0 -0.69465837861970381 0.71933979245794832 1 0 0 forward_v I I I I #
loop $-1 $-1 $218 $52 #
coedge $-1 $134 $134 $135 $219 reversed $82 $-1 #
coedge $-1 $135 $135 $134 $219 forward $84 $-1 #
coedge $-1 $136 $136 $85 $137 forward $131 $-1 #
edge $-1 $220 -3.1736484363471091e-015 $220 6.2831853071795969 $136 $221 forward 7 unknown #
face $-1 $222 $223 $29 $-1 $224 forward single #
loop $-1 $-1 $225 $86 #
plane-surface $-1 -34.39672155441302 121.75186312543757 170.20116698491745 -1 0 0 0 0.81915205242281985 0.57357642473473569 forward_v I I I I #
coedge $-1 $226 $227 $228 $229 reversed $87 $-1 #
coedge $-1 $143 $89 $230 $231 reversed $56 $-1 #
coedge $-1 $89 $142 $226 $232 reversed $56 $-1 #
coedge $-1 $228 $233 $89 $145 forward $223 $-1 #
edge $-1 $234 14.05024565432857 $235 22.471904979975911 $144 $236 forward 7 unknown #
loop $-1 $-1 $151 $90 #
plane-surface $-1 -50.305142466993075 -6.8905331097821119 80.124794126340461 0 0.81915205242281985 0.57357642473473569 1 0 0 forward_v I I I I #
loop $-1 $-1 $237 $58 #
coedge $-1 $149 $149 $150 $238 reversed $91 $-1 #
coedge $-1 $150 $150 $149 $238 forward $93 $-1 #
coedge $-1 $151 $151 $94 $152 forward $146 $-1 #
edge $-1 $239 4.377397429100914e-016 $239 6.2831853071796004 $151 $240 forward 7 unknown #
loop $-1 $-1 $158 $95 #
plane-surface $-1 -50.305142466993075 -6.8905331097821119 80.124794126340461 0 0.81915205242281985 0.57357642473473569 1 0 0 forward_v I I I I #
loop $-1 $-1 $241 $61 #
coedge $-1 $156 $156 $157 $242 reversed $96 $-1 #
coedge $-1 $157 $157 $156 $242 forward $98 $-1 #
coedge $-1 $158 $158 $99 $159 forward $153 $-1 #
edge $-1 $243 4.377397429100914e-016 $243 6.2831853071796004 $158 $244 forward 7 unknown #
face $-1 $245 $246 $24 $-1 $247 reversed single #
loop $-1 $-1 $248 $100 #
plane-surface $-1 -78.521683400982695 0 0 1 0 0 0 0 -1 forward_v I I I I #
coedge $-1 $249 $171 $250 $251 forward $101 $-1 #
coedge $-1 $252 $103 $249 $253 forward $65 $-1 #
coedge $-1 $103 $252 $254 $255 forward $65 $-1 #
coedge $-1 $174 $173 $103 $167 reversed $175 $-1 #
edge $-1 $256 -46.825685908390213 $257 46.825685908390213 $166 $258 forward 7 unknown #
coedge $-1 $105 $104 $259 $260 forward $41 $-1 #
coedge $-1 $261 $262 $104 $170 reversed $246 $-1 #
edge $-1 $177 -78.521683400982695 $263 78.521683400982695 $169 $264 forward 7 unknown #
coedge $-1 $163 $265 $105 $172 reversed $101 $-1 #
edge $-1 $266 -78.521683400982695 $176 78.521683400982695 $171 $267 forward 7 unknown #
coedge $-1 $166 $106 $265 $268 forward $175 $-1 #
coedge $-1 $106 $166 $261 $269 reversed $175 $-1 #
loop $-1 $-1 $173 $245 #
vertex $-1 $107 $270 #
vertex $-1 $107 $271 #
straight-curve $-1 78.521683400982695 0 15.437457032806668 0 1 0 I I #
face $-1 $272 $273 $25 $-1 $274 forward single #
loop $-1 $-1 $275 $108 #
plane-surface $-1 0 0 -15.437457032806668 0 0 1 1 0 0 forward_v I I I I #
coedge $-1 $276 $277 $187 $278 forward $109 $-1 #
coedge $-1 $279 $111 $275 $280 reversed $69 $-1 #
coedge $-1 $111 $279 $281 $282 reversed $69 $-1 #
coedge $-1 $277 $276 $111 $186 reversed $109 $-1 #
edge $-1 $283 -15.437457032806668 $284 15.437457032806668 $185 $285 forward 7 unknown #
coedge $-1 $113 $112 $182 $278 reversed $44 $-1 #
coedge $-1 $286 $287 $112 $189 forward $180 $-1 #
edge $-1 $288 30.029751684434174 $195 42.337871705843739 $188 $289 forward 7 unknown #
coedge $-1 $290 $291 $113 $191 forward $273 $-1 #
edge $-1 $196 -42.337871705843739 $292 -30.029751684434174 $190 $293 forward 7 unknown #
coedge $-1 $294 $114 $291 $295 reversed $194 $-1 #
coedge $-1 $114 $294 $286 $296 reversed $194 $-1 #
loop $-1 $-1 $294 $272 #
vertex $-1 $296 $297 #
vertex $-1 $115 $298 #
straight-curve $-1 -78.521683400982695 -22.81294221741118 0 0 0 1 I I #
face $-1 $-1 $299 $26 $-1 $300 reversed single #
loop $-1 $-1 $204 $116 #
plane-surface $-1 0 0 15.437457032806668 0 0 1 1 0 0 forward_v I I I I #
coedge $-1 $301 $302 $203 $303 forward $117 $-1 #
coedge $-1 $203 $119 $121 $209 reversed $73 $-1 #
coedge $-1 $119 $202 $201 $303 reversed $73 $-1 #
coedge $-1 $304 $122 $119 $205 forward $199 $-1 #
edge $-1 $212 -43.306577670391363 $305 -31.132902323621252 $204 $306 forward 7 unknown #
coedge $-1 $121 $120 $301 $307 reversed $47 $-1 #
coedge $-1 $308 $309 $120 $208 forward $299 $-1 #
edge $-1 $310 -15.563105817283244 $211 1.3602946040576436 $207 $311 forward 7 unknown #
edge $-1 $312 1.9785632286268914e-014 $212 16.923400421340908 $202 $313 forward 7 unknown #
coedge $-1 $122 $304 $308 $314 forward $199 $-1 #
vertex $-1 $208 $315 #
vertex $-1 $123 $316 #
straight-curve $-1 32.81175943233189 -34.652010561620102 15.437457032806668 -1 0 0 I I #
coedge $-1 $214 $214 $-1 $317 reversed $126 $-1 #
edge $-1 $318 0 $318 6.2831853071796004 $127 $319 forward 7 unknown #
vertex $-1 $130 $320 #
ellipse-curve $-1 60.095734063384256 -40.738848235005158 9.5594660840963286 0 -0.69465837861970381 0.71933979245794832 1.5 0 0 1 I I #
coedge $-1 $218 $218 $-1 $321 reversed $133 $-1 #
edge $-1 $322 0 $322 6.2831853071796004 $134 $323 forward 7 unknown #
vertex $-1 $137 $324 #
ellipse-curve $-1 71.151303665943331 -40.738848235005158 9.5594660840963286 0 -0.69465837861970381 0.71933979245794832 1.5 0 0 1 I I #
face $-1 $-1 $325 $29 $-1 $326 reversed single #
loop $-1 $-1 $144 $138 #
plane-surface $-1 0 0 15.437457032806668 0 0 1 1 0 0 forward_v I I I I #
coedge $-1 $327 $328 $329 $330 reversed $139 $-1 #
coedge $-1 $331 $141 $143 $232 forward $87 $-1 #
coedge $-1 $141 $331 $327 $332 forward $87 $-1 #
coedge $-1 $329 $144 $141 $229 forward $223 $-1 #
edge $-1 $235 -41.060992146076593 $333 -9.2441503209164821 $228 $334 forward 7 unknown #
coedge $-1 $335 $336 $142 $231 forward $325 $-1 #
edge $-1 $337 -81.690502802046595 $234 -69.663126459652062 $230 $338 forward 7 unknown #
edge $-1 $235 78.968656554307572 $337 93.651371816780468 $143 $339 forward 7 unknown #
coedge $-1 $144 $329 $335 $340 forward $223 $-1 #
vertex $-1 $231 $341 #
vertex $-1 $145 $342 #
straight-curve $-1 -66.213563379573131 60.875931562718783 15.437457032806662 0 -1 0 I I #
coedge $-1 $237 $237 $-1 $343 reversed $148 $-1 #
edge $-1 $344 0 $344 6.2831853071796004 $149 $345 forward 7 unknown #
vertex $-1 $152 $346 #
ellipse-curve $-1 -57.1230371438131 42.614856245566543 9.4237688616094015 0 0.81915205242281985 0.57357642473473569 2 0 0 1 I I #
coedge $-1 $241 $241 $-1 $347 reversed $155 $-1 #
edge $-1 $348 0 $348 6.2831853071796004 $156 $349 forward 7 unknown #
vertex $-1 $159 $350 #
ellipse-curve $-1 -43.487247790173051 42.614856245566543 9.4237688616094015 0 0.81915205242281985 0.57357642473473569 2 0 0 1 I I #
face $-1 $-1 $175 $24 $-1 $351 reversed single #
loop $-1 $-1 $261 $160 #
plane-surface $-1 0 46.825685908390213 0 0 -1 0 0 0 -1 forward_v I I I I #
coedge $-1 $352 $259 $262 $353 forward $161 $-1 #
coedge $-1 $265 $163 $164 $253 reversed $101 $-1 #
coedge $-1 $259 $352 $163 $251 reversed $161 $-1 #
edge $-1 $266 -15.437457032806668 $354 15.437457032806668 $250 $355 forward 7 unknown #
coedge $-1 $165 $164 $352 $356 forward $65 $-1 #
edge $-1 $257 -78.521683400982695 $354 78.521683400982695 $249 $357 forward 7 unknown #
coedge $-1 $262 $261 $165 $255 reversed $246 $-1 #
edge $-1 $358 -78.521683400982695 $256 78.521683400982695 $254 $359 forward 7 unknown #
vertex $-1 $167 $360 #
vertex $-1 $268 $361 #
straight-curve $-1 78.521683400982695 0 -15.437457032806668 0 -1 0 I I #
coedge $-1 $248 $250 $168 $260 reversed $161 $-1 #
edge $-1 $263 -46.825685908390213 $266 46.825685908390213 $259 $362 forward 7 unknown #
coedge $-1 $254 $169 $174 $269 forward $246 $-1 #
coedge $-1 $169 $254 $248 $353 reversed $246 $-1 #
vertex $-1 $170 $363 #
straight-curve $-1 0 46.825685908390213 15.437457032806668 -1 0 0 I I #
coedge $-1 $171 $249 $173 $268 reversed $101 $-1 #
vertex $-1 $260 $364 #
straight-curve $-1 0 -46.825685908390213 15.437457032806668 1 0 0 I I #
edge $-1 $176 -15.437457032806668 $257 15.437457032806668 $173 $365 forward 7 unknown #
edge $-1 $177 -15.437457032806668 $256 15.437457032806668 $174 $366 forward 7 unknown #
point $-1 78.521683400982695 -46.825685908390213 15.437457032806668 #
point $-1 78.521683400982695 46.825685908390213 15.437457032806668 #
face $-1 $-1 $194 $25 $-1 $367 reversed single #
loop $-1 $-1 $281 $179 #
plane-surface $-1 0 0 15.437457032806668 0 0 1 1 0 0 forward_v I I I I #
coedge $-1 $287 $286 $183 $280 forward $180 $-1 #
coedge $-1 $185 $182 $287 $368 reversed $109 $-1 #
coedge $-1 $182 $185 $290 $369 reversed $109 $-1 #
edge $-1 $292 -15.437457032806668 $288 15.437457032806668 $182 $370 forward 7 unknown #
coedge $-1 $184 $183 $294 $371 reversed $69 $-1 #
edge $-1 $372 -42.337871705843739 $284 -30.029751684434174 $275 $373 forward 7 unknown #
coedge $-1 $291 $290 $184 $282 forward $273 $-1 #
edge $-1 $283 30.029751684434174 $374 42.337871705843739 $281 $375 forward 7 unknown #
vertex $-1 $282 $376 #
vertex $-1 $280 $377 #
straight-curve $-1 -66.213563379573131 -15.950771842776877 0 0 0 -1 I I #
coedge $-1 $275 $188 $193 $296 forward $180 $-1 #
coedge $-1 $188 $275 $276 $368 forward $180 $-1 #
vertex $-1 $189 $378 #
straight-curve $-1 -36.183811695138957 -22.81294221741118 -15.437457032806668 -1 0 0 I I #
coedge $-1 $281 $190 $277 $369 forward $273 $-1 #
coedge $-1 $190 $281 $192 $295 forward $273 $-1 #
vertex $-1 $191 $379 #
straight-curve $-1 -36.183811695138957 -22.81294221741118 15.437457032806668 1 0 0 I I #
coedge $-1 $193 $192 $279 $371 forward $194 $-1 #
edge $-1 $374 15.950771842776877 $196 22.81294221741118 $192 $380 forward 7 unknown #
edge $-1 $195 -22.81294221741118 $372 -15.950771842776877 $193 $381 forward 7 unknown #
point $-1 -78.521683400982695 -22.81294221741118 -15.437457032806668 #
point $-1 -78.521683400982695 -22.81294221741118 15.437457032806668 #
loop $-1 $-1 $207 $198 #
plane-surface $-1 78.521683400982695 0 0 -1 0 0 0 0 1 forward_v I I I I #
coedge $-1 $382 $201 $206 $307 forward $117 $-1 #
coedge $-1 $201 $382 $304 $383 reversed $117 $-1 #
edge $-1 $305 42.887051975997942 $312 54.643033873418617 $201 $384 forward 7 unknown #
coedge $-1 $210 $204 $302 $383 forward $199 $-1 #
vertex $-1 $383 $385 #
straight-curve $-1 52.725354328344864 -77.958588232011465 15.43745703280667 0 -1 0 I I #
edge $-1 $312 19.913594896012974 $310 45.709923968650806 $301 $386 forward 7 unknown #
coedge $-1 $309 $207 $210 $314 reversed $299 $-1 #
coedge $-1 $207 $308 $382 $387 forward $299 $-1 #
vertex $-1 $307 $388 #
straight-curve $-1 78.521683400982695 -35.630524599784593 14.492516988706852 0 0.71933979245794832 0.69465837861970381 I I #
vertex $-1 $307 $389 #
straight-curve $-1 52.725354328344864 -46.825685908390227 3.6814751353859805 0 0.71933979245794832 0.69465837861970381 I I #
edge $-1 $390 -46.825685908390213 $211 -34.652010561620102 $308 $391 forward 7 unknown #
point $-1 78.521683400982695 -34.652010561620102 15.437457032806668 #
point $-1 52.725354328344864 -34.652010561620102 15.437457032806668 #
edge $-1 $392 1 $392 0 $214 $-1 forward 7 unknown #
vertex $-1 $215 $393 #
ellipse-curve $-1 60.095734063384256 -36.972053795967099 5.6588363452117045 0 -0.69465837861970381 0.71933979245794832 1.5 0 0 1 I I #
point $-1 61.595734063384256 -40.73884823500515 9.5594660840963144 #
edge $-1 $394 1 $394 0 $218 $-1 forward 7 unknown #
vertex $-1 $219 $395 #
ellipse-curve $-1 71.151303665943331 -36.972053795967099 5.6588363452117045 0 -0.69465837861970381 0.71933979245794832 1.5 0 0 1 I I #
point $-1 72.651303665943331 -40.73884823500515 9.5594660840963144 #
loop $-1 $-1 $230 $222 #
plane-surface $-1 0 46.825685908390213 0 0 -1 0 0 0 -1 forward_v I I I I #
coedge $-1 $328 $225 $227 $332 reversed $139 $-1 #
coedge $-1 $225 $327 $396 $397 reversed $139 $-1 #
coedge $-1 $233 $228 $225 $330 forward $223 $-1 #
edge $-1 $333 -22.471904979975911 $398 -14.05024565432857 $329 $399 forward 7 unknown #
coedge $-1 $227 $226 $336 $400 reversed $87 $-1 #
edge $-1 $401 -93.651371816780468 $333 -78.968656554307572 $327 $402 forward 7 unknown #
vertex $-1 $229 $403 #
straight-curve $-1 -25.152571233496538 38.404026582742866 15.43745703280667 1 0 0 I I #
coedge $-1 $396 $230 $233 $340 reversed $325 $-1 #
coedge $-1 $230 $396 $331 $400 forward $325 $-1 #
vertex $-1 $231 $404 #
straight-curve $-1 -66.213563379573131 46.825685908390213 85.100583492458725 0 0 1 I I #
straight-curve $-1 -66.213563379573131 -6.8905331097821119 80.124794126340461 0 0.57357642473473569 -0.81915205242281985 I I #
edge $-1 $398 34.39672155441302 $234 66.213563379573131 $335 $405 forward 7 unknown #
point $-1 -66.213563379573131 46.825685908390213 15.437457032806668 #
point $-1 -66.213563379573131 38.404026582742873 15.437457032806662 #
edge $-1 $406 1 $406 0 $237 $-1 forward 7 unknown #
vertex $-1 $238 $407 #
ellipse-curve $-1 -57.1230371438131 39.256100337146023 7.0719427265097448 0 0.81915205242281985 0.57357642473473569 2 0 0 1 I I #
point $-1 -55.1230371438131 42.614856245566557 9.4237688616094104 #
edge $-1 $408 1 $408 0 $241 $-1 forward 7 unknown #
vertex $-1 $242 $409 #
ellipse-curve $-1 -43.487247790173051 39.256100337146023 7.0719427265097448 0 0.81915205242281985 0.57357642473473569 2 0 0 1 I I #
point $-1 -41.487247790173051 42.614856245566557 9.4237688616094104 #
plane-surface $-1 78.521683400982695 0 0 -1 0 0 0 0 1 forward_v I I I I #
coedge $-1 $250 $248 $252 $356 reversed $161 $-1 #
edge $-1 $263 -15.437457032806668 $358 15.437457032806668 $262 $410 forward 7 unknown #
vertex $-1 $356 $411 #
straight-curve $-1 -78.521683400982695 -46.825685908390213 0 0 0 -1 I I #
edge $-1 $354 -46.825685908390213 $358 46.825685908390213 $352 $412 forward 7 unknown #
straight-curve $-1 0 -46.825685908390213 -15.437457032806668 -1 0 0 I I #
vertex $-1 $255 $413 #
straight-curve $-1 0 46.825685908390213 -15.437457032806668 1 0 0 I I #
point $-1 78.521683400982695 46.825685908390213 -15.437457032806668 #
point $-1 78.521683400982695 -46.825685908390213 -15.437457032806668 #
straight-curve $-1 -78.521683400982695 0 15.437457032806668 0 -1 0 I I #
point $-1 -78.521683400982695 46.825685908390213 15.437457032806668 #
point $-1 -78.521683400982695 -46.825685908390213 15.437457032806668 #
straight-curve $-1 78.521683400982695 -46.825685908390213 0 0 0 -1 I I #
straight-curve $-1 78.521683400982695 46.825685908390213 0 0 0 -1 I I #
plane-surface $-1 -78.521683400982695 0 0 1 0 0 0 0 -1 forward_v I I I I #
edge $-1 $284 6.2598433277298628 $288 13.122013702364166 $287 $414 forward 7 unknown #
edge $-1 $292 -13.122013702364166 $283 -6.2598433277298628 $290 $415 forward 7 unknown #
straight-curve $-1 -66.213563379573131 -22.81294221741118 0 0 0 -1 I I #
edge $-1 $374 -15.437457032806668 $372 15.437457032806668 $294 $416 forward 7 unknown #
vertex $-1 $371 $417 #
straight-curve $-1 -36.183811695138957 -15.950771842776877 -15.437457032806668 1 0 0 I I #
vertex $-1 $295 $418 #
straight-curve $-1 -36.183811695138957 -15.950771842776877 15.437457032806668 -1 0 0 I I #
point $-1 -66.213563379573131 -15.950771842776877 15.437457032806668 #
point $-1 -66.213563379573131 -15.950771842776877 -15.437457032806668 #
point $-1 -66.213563379573131 -22.81294221741118 -15.437457032806668 #
point $-1 -66.213563379573131 -22.81294221741118 15.437457032806668 #
straight-curve $-1 -78.521683400982695 0 15.437457032806668 0 -1 0 I I #
straight-curve $-1 -78.521683400982695 0 -15.437457032806668 0 1 0 I I #
coedge $-1 $302 $301 $309 $387 reversed $117 $-1 #
edge $-1 $305 52.725354328344864 $390 78.521683400982695 $302 $419 forward 7 unknown #
straight-curve $-1 52.725354328344864 -46.825685908390213 58.324509008804611 0 0 -1 I I #
point $-1 52.725354328344864 -46.825685908390213 15.437457032806668 #
straight-curve $-1 32.81175943233189 -46.825685908390213 3.6814751353859947 1 0 0 I I #
edge $-1 $390 -15.437457032806668 $310 -3.6814751353859942 $309 $420 forward 7 unknown #
point $-1 78.521683400982695 -46.825685908390213 3.6814751353859942 #
point $-1 52.725354328344864 -46.825685908390213 3.6814751353859942 #
vertex $-1 $314 $421 #
straight-curve $-1 78.521683400982695 0 15.437457032806668 0 1 0 I I #
vertex $-1 $317 $422 #
point $-1 61.595734063384256 -36.972053795967099 5.6588363452117045 #
vertex $-1 $321 $423 #
point $-1 72.651303665943331 -36.972053795967099 5.6588363452117045 #
coedge $-1 $336 $335 $328 $397 forward $325 $-1 #
edge $-1 $398 69.663126459652062 $401 81.690502802046595 $396 $424 forward 7 unknown #
vertex $-1 $340 $425 #
straight-curve $-1 -34.39672155441302 60.875931562718783 15.437457032806662 0 1 0 I I #
edge $-1 $401 9.2441503209164821 $337 41.060992146076593 $336 $426 forward 7 unknown #
vertex $-1 $400 $427 #
straight-curve $-1 -34.39672155441302 -6.8905331097821119 80.124794126340461 0 -0.57357642473473569 0.81915205242281985 I I #
point $-1 -34.39672155441302 38.404026582742873 15.437457032806662 #
point $-1 -66.213563379573131 46.825685908390213 3.4100806904121299 #
straight-curve $-1 0 46.825685908390213 15.437457032806668 -1 0 0 I I #
vertex $-1 $343 $428 #
point $-1 -55.1230371438131 39.256100337146023 7.0719427265097448 #
vertex $-1 $347 $429 #
point $-1 -41.487247790173051 39.256100337146023 7.0719427265097448 #
straight-curve $-1 -78.521683400982695 46.825685908390213 0 0 0 -1 I I #
point $-1 -78.521683400982695 -46.825685908390213 -15.437457032806668 #
straight-curve $-1 -78.521683400982695 0 -15.437457032806668 0 1 0 I I #
point $-1 -78.521683400982695 46.825685908390213 -15.437457032806668 #
straight-curve $-1 -66.213563379573131 -9.6909285150470144 -15.437457032806668 0 -1 0 I I #
straight-curve $-1 -66.213563379573131 -9.6909285150470144 15.437457032806668 0 1 0 I I #
straight-curve $-1 -78.521683400982695 -15.950771842776877 0 0 0 -1 I I #
point $-1 -78.521683400982695 -15.950771842776877 -15.437457032806668 #
point $-1 -78.521683400982695 -15.950771842776877 15.437457032806668 #
straight-curve $-1 0 -46.825685908390213 15.437457032806668 1 0 0 I I #
straight-curve $-1 78.521683400982695 -46.825685908390213 0 0 0 -1 I I #
point $-1 78.521683400982695 -46.825685908390213 15.437457032806668 #
point $-1 60.095734063384256 -35.930066228037546 4.5798266565247827 #
point $-1 71.151303665943331 -35.930066228037546 4.5798266565247827 #
straight-curve $-1 -34.39672155441302 46.825685908390213 85.100583492458725 0 0 -1 I I #
point $-1 -34.39672155441302 46.825685908390213 15.437457032806668 #
straight-curve $-1 -25.152571233496538 46.825685908390213 3.4100806904121157 -1 0 0 I I #
point $-1 -34.39672155441302 46.825685908390213 3.4100806904121299 #
point $-1 -57.1230371438131 37.617796232300378 5.9247898770402738 #
point $-1 -43.487247790173051 37.617796232300378 5.9247898770402738 #
End-of-ACIS-data 