500 0 10 0           
7 Unknown 11 ACIS 5.0 NT 24 Fri Mar 26 19:33:12 1999 
-1 9.9999999999999995e-007 1e-010 
body $-1 $10 $-1 $11 #
body $-1 $12 $-1 $13 #
body $-1 $14 $-1 $15 #
body $-1 $16 $-1 $17 #
body $-1 $18 $-1 $19 #
body $-1 $20 $-1 $21 #
body $-1 $22 $-1 $23 #
body $-1 $24 $-1 $25 #
body $-1 $26 $-1 $27 #
body $-1 $28 $-1 $29 #
lump $-1 $-1 $30 $0 #
transform $-1 1 0 0 0 1 0 0 0 1 64.644306772057263 34.906584120346544 14.305339666740123 1 rotate no_reflect no_shear #
lump $-1 $-1 $31 $1 #
transform $-1 1 0 0 0 1 0 0 0 1 64.644306772057263 34.906584120346544 14.305339666740123 1 rotate no_reflect no_shear #
lump $-1 $-1 $32 $2 #
transform $-1 1 0 0 0 1 0 0 0 1 64.644306772057263 34.906584120346544 14.305339666740123 1 rotate no_reflect no_shear #
lump $-1 $-1 $33 $3 #
transform $-1 1 0 0 0 1 0 0 0 1 64.644306772057263 34.906584120346544 14.305339666740123 1 rotate no_reflect no_shear #
lump $-1 $-1 $34 $4 #
transform $-1 1 0 0 0 1 0 0 0 1 64.644306772057263 34.906584120346544 14.305339666740123 1 rotate no_reflect no_shear #
lump $-1 $-1 $35 $5 #
transform $-1 1 0 0 0 1 0 0 0 1 64.644306772057263 34.906584120346544 14.305339666740123 1 rotate no_reflect no_shear #
lump $-1 $-1 $36 $6 #
transform $-1 1 0 0 0 1 0 0 0 1 64.644306772057263 34.906584120346544 14.305339666740123 1 rotate no_reflect no_shear #
lump $-1 $-1 $37 $7 #
transform $-1 1 0 0 0 1 0 0 0 1 64.644306772057263 34.906584120346544 14.305339666740123 1 rotate no_reflect no_shear #
lump $-1 $-1 $38 $8 #
transform $-1 1 0 0 0 1 0 0 0 1 64.644306772057263 34.906584120346544 14.305339666740123 1 rotate no_reflect no_shear #
lump $-1 $-1 $39 $9 #
transform $-1 1 0 0 0 1 0 0 0 1 64.644306772057263 34.906584120346544 14.305339666740123 1 rotate no_reflect no_shear #
shell $-1 $-1 $-1 $40 $-1 $10 #
shell $-1 $-1 $-1 $41 $-1 $12 #
shell $-1 $-1 $-1 $42 $-1 $14 #
shell $-1 $-1 $-1 $43 $-1 $16 #
shell $-1 $-1 $-1 $44 $-1 $18 #
shell $-1 $-1 $-1 $45 $-1 $20 #
shell $-1 $-1 $-1 $46 $-1 $22 #
shell $-1 $-1 $-1 $47 $-1 $24 #
shell $-1 $-1 $-1 $48 $-1 $26 #
shell $-1 $-1 $-1 $49 $-1 $28 #
face $-1 $50 $51 $30 $-1 $52 forward single #
face $-1 $53 $54 $31 $-1 $55 forward single #
face $-1 $56 $57 $32 $-1 $58 forward single #
face $-1 $59 $60 $33 $-1 $61 reversed single #
face $-1 $62 $63 $34 $-1 $64 forward single #
face $-1 $65 $66 $35 $-1 $67 forward single #
face $-1 $68 $69 $36 $-1 $70 reversed single #
face $-1 $71 $72 $37 $-1 $73 forward single #
face $-1 $74 $75 $38 $-1 $76 forward single #
face $-1 $77 $78 $39 $-1 $79 forward single #
face $-1 $80 $81 $30 $-1 $82 reversed single #
loop $-1 $-1 $83 $40 #
plane-surface $-1 0 0 14.305339666740123 0 0 1 1 0 0 forward_v I I I I #
face $-1 $84 $85 $31 $-1 $86 forward single #
loop $-1 $-1 $87 $41 #
plane-surface $-1 0 -34.906584120346544 0 0 1 0 0 0 1 forward_v I I I I #
face $-1 $88 $89 $32 $-1 $90 reversed single #
loop $-1 $-1 $91 $42 #
plane-surface $-1 0 34.906584120346544 0 0 -1 0 0 0 -1 forward_v I I I I #
face $-1 $92 $93 $33 $-1 $94 reversed single #
loop $-1 $-1 $95 $43 #
plane-surface $-1 80.580014224550354 -15.336992576383789 188.47399324324363 0 -1 0 -0.7660444514056185 0 -0.64278759981090561 forward_v I I I I #
face $-1 $96 $97 $34 $-1 $98 forward single #
loop $-1 $99 $100 $44 #
cone-surface $-1 60.889136446792712 -19.651426518438541 9.974090551777083 -0.7660444514056185 0 -0.64278759981090561 0.3213937999054528 0 -0.38302222570280925 1 I I 0 1 0.5 forward I I I I #
face $-1 $101 $102 $35 $-1 $103 forward single #
loop $-1 $104 $105 $45 #
cone-surface $-1 60.889136446792712 -17.06276615320569 9.974090551777083 -0.7660444514056185 0 -0.64278759981090561 0.3213937999054528 0 -0.38302222570280925 1 I I 0 1 0.5 forward I I I I #
face $-1 $106 $107 $36 $-1 $108 reversed single #
loop $-1 $-1 $109 $46 #
plane-surface $-1 -174.28727036741122 14.814503160100706 72.847728207766991 0 1 0 -0.84804810408105047 0 0.52991925155115449 forward_v I I I I #
face $-1 $110 $111 $37 $-1 $112 forward single #
loop $-1 $113 $114 $47 #
cone-surface $-1 -60.972444234690791 16.127042547132653 8.9723151716538823 0.84804810408105047 0 -0.52991925155115449 0.26495962577557725 0 0.42402405204052523 1 I I 0 1 0.5 forward I I I I #
face $-1 $115 $116 $38 $-1 $117 forward single #
loop $-1 $118 $119 $48 #
cone-surface $-1 -60.972444234690791 18.095851627680574 8.9723151716538823 0.84804810408105047 0 -0.52991925155115449 0.26495962577557725 0 0.42402405204052523 1 I I 0 1 0.5 forward I I I I #
face $-1 $120 $121 $39 $-1 $122 forward single #
loop $-1 $123 $124 $49 #
cone-surface $-1 -60.972444234690791 20.064660708228494 8.9723151716538823 0.84804810408105047 0 -0.52991925155115449 0.26495962577557725 0 0.42402405204052523 1 I I 0 1 0.5 forward I I I I #
face $-1 $125 $126 $30 $-1 $127 reversed single #
loop $-1 $-1 $128 $50 #
plane-surface $-1 0 0 -14.305339666740123 0 0 1 1 0 0 forward_v I I I I #
coedge $-1 $129 $130 $131 $132 forward $51 $-1 #
face $-1 $133 $134 $31 $-1 $135 reversed single #
loop $-1 $-1 $136 $53 #
plane-surface $-1 0 0 14.305339666740123 0 0 1 1 0 0 forward_v I I I I #
coedge $-1 $137 $138 $139 $140 forward $54 $-1 #
face $-1 $141 $142 $32 $-1 $143 reversed single #
loop $-1 $-1 $144 $56 #
plane-surface $-1 64.644306772057263 0 0 -1 0 0 0 0 1 forward_v I I I I #
coedge $-1 $145 $146 $147 $148 forward $57 $-1 #
face $-1 $149 $150 $33 $-1 $151 reversed single #
loop $-1 $-1 $152 $59 #
plane-surface $-1 -18.460810810843881 -18.357096335822114 105.36887566034251 0.7660444514056185 0 0.64278759981090561 0.64278759981090561 0 -0.7660444514056185 forward_v I I I I #
coedge $-1 $153 $154 $155 $156 reversed $60 $-1 #
face $-1 $-1 $157 $34 $-1 $158 forward single #
loop $-1 $159 $160 $62 #
cone-surface $-1 60.289325067432742 -19.651426518438541 9.4707890577572318 -0.7660444514056185 0 -0.64278759981090561 0.1606968999527264 0 -0.19151111285140462 1 I I -0.70710678118654746 0.70710678118654746 0.25 forward I I I I #
loop $-1 $-1 $161 $44 #
coedge $-1 $100 $100 $162 $163 reversed $63 $-1 #
face $-1 $-1 $164 $35 $-1 $165 forward single #
loop $-1 $166 $167 $65 #
cone-surface $-1 60.289325067432742 -17.06276615320569 9.4707890577572318 -0.7660444514056185 0 -0.64278759981090561 0.1606968999527264 0 -0.19151111285140462 1 I I -0.70710678118654746 0.70710678118654746 0.25 forward I I I I #
loop $-1 $-1 $168 $45 #
coedge $-1 $105 $105 $169 $170 reversed $66 $-1 #
face $-1 $171 $172 $36 $-1 $173 reversed single #
loop $-1 $-1 $174 $68 #
plane-surface $-1 -64.644306772057277 18.095851627680574 4.3352028843833637 -0.84804810408105047 0 0.52991925155115449 0.52991925155115449 0 0.84804810408105047 forward_v I I I I #
coedge $-1 $175 $176 $177 $178 reversed $69 $-1 #
face $-1 $-1 $179 $37 $-1 $180 forward single #
loop $-1 $181 $182 $71 #
cone-surface $-1 -60.20358602246624 16.127042547132653 8.4918792548582314 0.84804810408105047 0 -0.52991925155115449 0.13247981288778862 0 0.21201202602026262 1 I I -0.70710678118654746 0.70710678118654746 0.25 forward I I I I #
loop $-1 $-1 $183 $47 #
coedge $-1 $114 $114 $184 $185 reversed $72 $-1 #
face $-1 $-1 $186 $38 $-1 $187 forward single #
loop $-1 $188 $189 $74 #
cone-surface $-1 -60.20358602246624 18.095851627680574 8.4918792548582314 0.84804810408105047 0 -0.52991925155115449 0.13247981288778862 0 0.21201202602026262 1 I I -0.70710678118654746 0.70710678118654746 0.25 forward I I I I #
loop $-1 $-1 $190 $48 #
coedge $-1 $119 $119 $191 $192 reversed $75 $-1 #
face $-1 $-1 $193 $39 $-1 $194 forward single #
loop $-1 $195 $196 $77 #
cone-surface $-1 -60.20358602246624 20.064660708228494 8.4918792548582314 0.84804810408105047 0 -0.52991925155115449 0.13247981288778862 0 0.21201202602026262 1 I I -0.70710678118654746 0.70710678118654746 0.25 forward I I I I #
loop $-1 $-1 $197 $49 #
coedge $-1 $124 $124 $198 $199 reversed $78 $-1 #
face $-1 $200 $201 $30 $-1 $202 reversed single #
loop $-1 $-1 $203 $80 #
plane-surface $-1 0 -34.906584120346544 0 0 1 0 0 0 1 forward_v I I I I #
coedge $-1 $204 $205 $206 $207 forward $81 $-1 #
coedge $-1 $208 $83 $209 $210 forward $51 $-1 #
coedge $-1 $83 $208 $211 $212 forward $51 $-1 #
coedge $-1 $213 $214 $83 $132 reversed $215 $-1 #
edge $-1 $216 -34.906584120346544 $217 34.906584120346544 $131 $218 forward 7 unknown #
face $-1 $219 $220 $31 $-1 $221 reversed single #
loop $-1 $-1 $222 $84 #
plane-surface $-1 -64.644306772057263 0 0 1 0 0 0 0 -1 forward_v I I I I #
coedge $-1 $223 $224 $225 $226 forward $85 $-1 #
coedge $-1 $225 $87 $222 $227 reversed $54 $-1 #
coedge $-1 $87 $225 $228 $229 reversed $54 $-1 #
coedge $-1 $230 $231 $87 $140 reversed $220 $-1 #
edge $-1 $232 -64.644306772057263 $233 64.644306772057263 $139 $234 forward 7 unknown #
face $-1 $235 $236 $32 $-1 $237 reversed single #
loop $-1 $-1 $238 $88 #
plane-surface $-1 0 41.671276132889595 7.4534281724434361 0 0 1 1 0 0 forward_v I I I I #
coedge $-1 $239 $240 $145 $241 forward $89 $-1 #
coedge $-1 $242 $91 $144 $241 reversed $57 $-1 #
coedge $-1 $91 $242 $243 $244 reversed $57 $-1 #
coedge $-1 $245 $238 $91 $148 reversed $142 $-1 #
edge $-1 $246 -64.644306772057263 $247 64.644306772057263 $147 $248 forward 7 unknown #
face $-1 $249 $250 $33 $-1 $251 forward single #
loop $-1 $-1 $252 $92 #
plane-surface $-1 80.580014224550354 -21.377200095260438 188.47399324324363 0 1 0 0.7660444514056185 0 0.64278759981090561 forward_v I I I I #
coedge $-1 $253 $254 $255 $256 reversed $93 $-1 #
coedge $-1 $154 $95 $257 $258 reversed $60 $-1 #
coedge $-1 $95 $153 $253 $259 reversed $60 $-1 #
coedge $-1 $255 $260 $95 $156 forward $250 $-1 #
edge $-1 $261 -24.354299659782086 $262 -17.660559542270121 $155 $263 forward 7 unknown #
loop $-1 $-1 $162 $96 #
plane-surface $-1 -18.460810810843881 -18.357096335822114 105.36887566034251 0.7660444514056185 0 0.64278759981090561 0.64278759981090561 0 -0.7660444514056185 forward_v I I I I #
loop $-1 $-1 $264 $62 #
coedge $-1 $160 $160 $161 $265 reversed $97 $-1 #
coedge $-1 $161 $161 $160 $265 forward $99 $-1 #
coedge $-1 $162 $162 $100 $163 forward $157 $-1 #
edge $-1 $266 0 $266 6.2831853071796004 $162 $267 forward 7 unknown #
loop $-1 $-1 $169 $101 #
plane-surface $-1 -18.460810810843881 -18.357096335822114 105.36887566034251 0.7660444514056185 0 0.64278759981090561 0.64278759981090561 0 -0.7660444514056185 forward_v I I I I #
loop $-1 $-1 $268 $65 #
coedge $-1 $167 $167 $168 $269 reversed $102 $-1 #
coedge $-1 $168 $168 $167 $269 forward $104 $-1 #
coedge $-1 $169 $169 $105 $170 forward $164 $-1 #
edge $-1 $270 0 $270 6.2831853071796004 $169 $271 forward 7 unknown #
face $-1 $272 $273 $36 $-1 $274 reversed single #
loop $-1 $-1 $275 $106 #
plane-surface $-1 -174.28727036741122 21.377200095260442 72.847728207766991 0 -1 0 0.84804810408105047 0 -0.52991925155115449 forward_v I I I I #
coedge $-1 $276 $277 $278 $279 reversed $107 $-1 #
coedge $-1 $176 $109 $280 $281 reversed $69 $-1 #
coedge $-1 $109 $175 $276 $282 reversed $69 $-1 #
coedge $-1 $278 $283 $109 $178 forward $284 $-1 #
edge $-1 $285 22.499328411648349 $286 28.729361113972708 $177 $287 forward 7 unknown #
loop $-1 $-1 $184 $110 #
plane-surface $-1 -64.644306772057277 18.095851627680574 4.3352028843833637 -0.84804810408105047 0 0.52991925155115449 0.52991925155115449 0 0.84804810408105047 forward_v I I I I #
loop $-1 $-1 $288 $71 #
coedge $-1 $182 $182 $183 $289 reversed $111 $-1 #
coedge $-1 $183 $183 $182 $289 forward $113 $-1 #
coedge $-1 $184 $184 $114 $185 forward $179 $-1 #
edge $-1 $290 0 $290 6.2831853071796004 $184 $291 forward 7 unknown #
loop $-1 $-1 $191 $115 #
plane-surface $-1 -64.644306772057277 18.095851627680574 4.3352028843833637 -0.84804810408105047 0 0.52991925155115449 0.52991925155115449 0 0.84804810408105047 forward_v I I I I #
loop $-1 $-1 $292 $74 #
coedge $-1 $189 $189 $190 $293 reversed $116 $-1 #
coedge $-1 $190 $190 $189 $293 forward $118 $-1 #
coedge $-1 $191 $191 $119 $192 forward $186 $-1 #
edge $-1 $294 0 $294 6.2831853071796004 $191 $295 forward 7 unknown #
loop $-1 $-1 $198 $120 #
plane-surface $-1 -64.644306772057277 18.095851627680574 4.3352028843833637 -0.84804810408105047 0 0.52991925155115449 0.52991925155115449 0 0.84804810408105047 forward_v I I I I #
loop $-1 $-1 $296 $77 #
coedge $-1 $196 $196 $197 $297 reversed $121 $-1 #
coedge $-1 $197 $197 $196 $297 forward $123 $-1 #
coedge $-1 $198 $198 $124 $199 forward $193 $-1 #
edge $-1 $298 0 $298 6.2831853071796004 $198 $299 forward 7 unknown #
face $-1 $300 $301 $30 $-1 $302 reversed single #
loop $-1 $-1 $303 $125 #
plane-surface $-1 -64.644306772057263 0 0 1 0 0 0 0 -1 forward_v I I I I #
coedge $-1 $304 $211 $305 $306 forward $126 $-1 #
coedge $-1 $307 $128 $304 $308 forward $81 $-1 #
coedge $-1 $128 $307 $309 $310 forward $81 $-1 #
coedge $-1 $214 $213 $128 $207 reversed $215 $-1 #
edge $-1 $311 -34.906584120346544 $312 34.906584120346544 $206 $313 forward 7 unknown #
coedge $-1 $130 $129 $314 $315 forward $51 $-1 #
coedge $-1 $316 $317 $129 $210 reversed $301 $-1 #
edge $-1 $217 -64.644306772057263 $318 64.644306772057263 $209 $319 forward 7 unknown #
coedge $-1 $203 $320 $130 $212 reversed $126 $-1 #
edge $-1 $321 -64.644306772057263 $216 64.644306772057263 $211 $322 forward 7 unknown #
coedge $-1 $206 $131 $320 $323 forward $215 $-1 #
coedge $-1 $131 $206 $316 $324 reversed $215 $-1 #
loop $-1 $-1 $213 $300 #
vertex $-1 $132 $325 #
vertex $-1 $132 $326 #
straight-curve $-1 64.644306772057263 0 14.305339666740123 0 1 0 I I #
face $-1 $327 $328 $31 $-1 $329 reversed single #
loop $-1 $-1 $230 $133 #
plane-surface $-1 0 -41.671276132889595 7.4534281724434361 0 0 1 1 0 0 forward_v I I I I #
coedge $-1 $330 $331 $137 $227 forward $134 $-1 #
coedge $-1 $332 $136 $331 $333 forward $85 $-1 #
coedge $-1 $136 $332 $334 $335 forward $85 $-1 #
coedge $-1 $138 $137 $136 $226 reversed $54 $-1 #
edge $-1 $336 -64.644306772057263 $337 64.644306772057263 $136 $338 forward 7 unknown #
edge $-1 $337 -14.305339666740123 $233 -7.4534281724434361 $222 $339 forward 7 unknown #
coedge $-1 $334 $340 $138 $229 forward $341 $-1 #
edge $-1 $232 7.4534281724434361 $336 14.305339666740123 $228 $342 forward 7 unknown #
coedge $-1 $343 $139 $340 $344 forward $220 $-1 #
coedge $-1 $139 $343 $330 $345 forward $220 $-1 #
vertex $-1 $229 $346 #
vertex $-1 $227 $347 #
straight-curve $-1 0 -34.906584120346544 7.4534281724434361 -1 0 0 I I #
face $-1 $348 $349 $32 $-1 $350 forward single #
loop $-1 $-1 $351 $141 #
plane-surface $-1 0 48.435968145432646 10.879383919591779 0 -1 0 0 0 -1 forward_v I I I I #
coedge $-1 $147 $352 $239 $353 forward $142 $-1 #
coedge $-1 $354 $144 $238 $353 reversed $89 $-1 #
coedge $-1 $144 $354 $355 $356 reversed $89 $-1 #
edge $-1 $357 -14.305339666740123 $247 -7.4534281724434361 $144 $358 forward 7 unknown #
coedge $-1 $146 $145 $359 $360 reversed $57 $-1 #
coedge $-1 $361 $362 $146 $244 forward $363 $-1 #
edge $-1 $246 7.4534281724434361 $364 14.305339666740123 $243 $365 forward 7 unknown #
coedge $-1 $352 $147 $362 $366 forward $142 $-1 #
vertex $-1 $244 $367 #
vertex $-1 $241 $368 #
straight-curve $-1 0 34.906584120346544 7.4534281724434361 1 0 0 I I #
face $-1 $-1 $369 $33 $-1 $370 reversed single #
loop $-1 $-1 $155 $149 #
plane-surface $-1 0 0 14.305339666740123 0 0 1 1 0 0 forward_v I I I I #
coedge $-1 $371 $372 $373 $374 reversed $150 $-1 #
coedge $-1 $375 $152 $154 $259 forward $93 $-1 #
coedge $-1 $152 $375 $371 $376 forward $93 $-1 #
coedge $-1 $373 $155 $152 $256 forward $250 $-1 #
edge $-1 $262 6.1584444084727323 $377 12.198651927349381 $255 $378 forward 7 unknown #
coedge $-1 $379 $380 $153 $258 forward $369 $-1 #
edge $-1 $381 -87.908945996673566 $261 -79.931656954881689 $257 $382 forward 7 unknown #
edge $-1 $262 118.87500239249759 $381 129.28861354411461 $154 $383 forward 7 unknown #
coedge $-1 $155 $373 $379 $384 forward $250 $-1 #
vertex $-1 $258 $385 #
vertex $-1 $156 $386 #
straight-curve $-1 40.290007112275177 -15.336992576383789 14.305339666740124 -1 0 0 I I #
coedge $-1 $264 $264 $-1 $387 reversed $159 $-1 #
edge $-1 $388 0 $388 6.2831853071796004 $160 $389 forward 7 unknown #
vertex $-1 $163 $390 #
ellipse-curve $-1 61.297436713301266 -19.651426518438541 10.3166951458442 0.7660444514056185 0 0.64278759981090561 0.3213937999054528 0 -0.38302222570280925 1 I I #
coedge $-1 $268 $268 $-1 $391 reversed $166 $-1 #
edge $-1 $392 0 $392 6.2831853071796004 $167 $393 forward 7 unknown #
vertex $-1 $170 $394 #
ellipse-curve $-1 61.297436713301266 -17.06276615320569 10.3166951458442 0.7660444514056185 0 0.64278759981090561 0.3213937999054528 0 -0.38302222570280925 1 I I #
face $-1 $-1 $284 $36 $-1 $395 forward single #
loop $-1 $-1 $396 $171 #
plane-surface $-1 -64.644306772057263 0 0 1 0 0 0 0 -1 forward_v I I I I #
coedge $-1 $397 $398 $399 $400 reversed $172 $-1 #
coedge $-1 $401 $174 $176 $282 forward $107 $-1 #
coedge $-1 $174 $401 $397 $402 forward $107 $-1 #
coedge $-1 $399 $177 $174 $279 forward $284 $-1 #
edge $-1 $286 5.7665773462604193 $403 12.329274281420155 $278 $404 forward 7 unknown #
coedge $-1 $405 $406 $175 $281 forward $273 $-1 #
edge $-1 $407 -32.088661219500111 $285 -22.118524437143371 $280 $408 forward 7 unknown #
edge $-1 $286 -11.756569862461342 $407 -2.7114274142304302e-014 $176 $409 forward 7 unknown #
coedge $-1 $177 $399 $405 $410 forward $284 $-1 #
loop $-1 $-1 $399 $272 #
vertex $-1 $281 $411 #
vertex $-1 $178 $412 #
straight-curve $-1 -87.143635183705612 14.814503160100706 14.305339666740124 1 0 0 I I #
coedge $-1 $288 $288 $-1 $413 reversed $181 $-1 #
edge $-1 $414 0 $414 6.2831853071796004 $182 $415 forward 7 unknown #
vertex $-1 $185 $416 #
ellipse-curve $-1 -61.529290420895087 16.127042547132653 9.3202712755617494 -0.84804810408105047 0 0.52991925155115449 0.26495962577557725 0 0.42402405204052523 1 I I #
coedge $-1 $292 $292 $-1 $417 reversed $188 $-1 #
edge $-1 $418 0 $418 6.2831853071796004 $189 $419 forward 7 unknown #
vertex $-1 $192 $420 #
ellipse-curve $-1 -61.529290420895087 18.095851627680574 9.3202712755617494 -0.84804810408105047 0 0.52991925155115449 0.26495962577557725 0 0.42402405204052523 1 I I #
coedge $-1 $296 $296 $-1 $421 reversed $195 $-1 #
edge $-1 $422 0 $422 6.2831853071796004 $196 $423 forward 7 unknown #
vertex $-1 $199 $424 #
ellipse-curve $-1 -61.529290420895087 20.064660708228494 9.3202712755617494 -0.84804810408105047 0 0.52991925155115449 0.26495962577557725 0 0.42402405204052523 1 I I #
face $-1 $-1 $215 $30 $-1 $425 reversed single #
loop $-1 $-1 $316 $200 #
plane-surface $-1 0 34.906584120346544 0 0 -1 0 0 0 -1 forward_v I I I I #
coedge $-1 $426 $314 $317 $427 forward $201 $-1 #
coedge $-1 $320 $203 $204 $308 reversed $126 $-1 #
coedge $-1 $314 $426 $203 $306 reversed $201 $-1 #
edge $-1 $321 -14.305339666740123 $428 14.305339666740123 $305 $429 forward 7 unknown #
coedge $-1 $205 $204 $426 $430 forward $81 $-1 #
edge $-1 $312 -64.644306772057263 $428 64.644306772057263 $304 $431 forward 7 unknown #
coedge $-1 $317 $316 $205 $310 reversed $301 $-1 #
edge $-1 $432 -64.644306772057263 $311 64.644306772057263 $309 $433 forward 7 unknown #
vertex $-1 $207 $434 #
vertex $-1 $323 $435 #
straight-curve $-1 64.644306772057263 0 -14.305339666740123 0 -1 0 I I #
coedge $-1 $303 $305 $208 $315 reversed $201 $-1 #
edge $-1 $318 -34.906584120346544 $321 34.906584120346544 $314 $436 forward 7 unknown #
coedge $-1 $309 $209 $214 $324 forward $301 $-1 #
coedge $-1 $209 $309 $303 $427 reversed $301 $-1 #
vertex $-1 $210 $437 #
straight-curve $-1 0 34.906584120346544 14.305339666740123 -1 0 0 I I #
coedge $-1 $211 $304 $213 $323 reversed $126 $-1 #
vertex $-1 $315 $438 #
straight-curve $-1 0 -34.906584120346544 14.305339666740123 1 0 0 I I #
edge $-1 $216 -14.305339666740123 $312 14.305339666740123 $213 $439 forward 7 unknown #
edge $-1 $217 -14.305339666740123 $311 14.305339666740123 $214 $440 forward 7 unknown #
point $-1 64.644306772057263 -34.906584120346544 14.305339666740123 #
point $-1 64.644306772057263 34.906584120346544 14.305339666740123 #
face $-1 $-1 $341 $31 $-1 $441 reversed single #
loop $-1 $-1 $442 $219 #
plane-surface $-1 0 -48.435968145432646 10.879383919591779 0 1 0 0 0 1 forward_v I I I I #
coedge $-1 $443 $222 $231 $345 reversed $134 $-1 #
coedge $-1 $222 $443 $223 $333 reversed $134 $-1 #
coedge $-1 $224 $223 $444 $445 forward $85 $-1 #
edge $-1 $337 34.906584120346544 $446 48.435968145432646 $331 $447 forward 7 unknown #
coedge $-1 $448 $228 $224 $335 reversed $341 $-1 #
edge $-1 $449 -48.435968145432646 $336 -34.906584120346544 $334 $450 forward 7 unknown #
vertex $-1 $229 $451 #
vertex $-1 $333 $452 #
straight-curve $-1 0 -34.906584120346544 14.305339666740123 -1 0 0 I I #
straight-curve $-1 -64.644306772057263 -34.906584120346544 0 0 0 -1 I I #
coedge $-1 $228 $448 $230 $344 reversed $341 $-1 #
loop $-1 $-1 $228 $327 #
straight-curve $-1 64.644306772057263 -34.906584120346544 0 0 0 1 I I #
coedge $-1 $231 $230 $453 $454 forward $220 $-1 #
edge $-1 $232 -6.7646920125430512 $455 6.7646920125430512 $340 $456 forward 7 unknown #
edge $-1 $457 -6.7646920125430512 $233 6.7646920125430512 $330 $458 forward 7 unknown #
point $-1 64.644306772057263 -34.906584120346544 7.4534281724434361 #
point $-1 -64.644306772057263 -34.906584120346544 7.4534281724434361 #
face $-1 $-1 $363 $32 $-1 $459 reversed single #
loop $-1 $-1 $359 $235 #
plane-surface $-1 0 0 14.305339666740123 0 0 1 1 0 0 forward_v I I I I #
coedge $-1 $460 $461 $354 $462 forward $236 $-1 #
coedge $-1 $238 $245 $460 $463 forward $142 $-1 #
edge $-1 $464 -6.7646920125430512 $247 6.7646920125430512 $239 $465 forward 7 unknown #
coedge $-1 $240 $239 $351 $462 reversed $89 $-1 #
coedge $-1 $466 $359 $240 $356 forward $349 $-1 #
edge $-1 $357 34.906584120346544 $467 48.435968145432646 $240 $468 forward 7 unknown #
vertex $-1 $356 $469 #
straight-curve $-1 64.644306772057263 34.906584120346544 0 0 0 -1 I I #
coedge $-1 $355 $470 $242 $360 forward $349 $-1 #
edge $-1 $364 -64.644306772057263 $357 64.644306772057263 $359 $471 forward 7 unknown #
coedge $-1 $472 $243 $470 $473 reversed $363 $-1 #
coedge $-1 $243 $472 $245 $366 reversed $363 $-1 #
loop $-1 $-1 $243 $348 #
vertex $-1 $244 $474 #
straight-curve $-1 -64.644306772057263 34.906584120346544 0 0 0 1 I I #
edge $-1 $246 -6.7646920125430512 $475 6.7646920125430512 $362 $476 forward 7 unknown #
point $-1 -64.644306772057263 34.906584120346544 7.4534281724434361 #
point $-1 64.644306772057263 34.906584120346544 7.4534281724434361 #
loop $-1 $-1 $257 $249 #
plane-surface $-1 64.644306772057263 0 0 -1 0 0 0 0 1 forward_v I I I I #
coedge $-1 $372 $252 $254 $376 reversed $150 $-1 #
coedge $-1 $252 $371 $477 $478 reversed $150 $-1 #
coedge $-1 $260 $255 $252 $374 forward $250 $-1 #
edge $-1 $377 17.660559542270121 $479 24.354299659782086 $373 $480 forward 7 unknown #
coedge $-1 $254 $253 $380 $481 reversed $93 $-1 #
edge $-1 $482 -129.28861354411461 $377 -118.87500239249759 $371 $483 forward 7 unknown #
vertex $-1 $256 $484 #
straight-curve $-1 57.950566654545298 -9.1785481679110568 14.305339666740117 0 -1 0 I I #
coedge $-1 $477 $257 $260 $384 reversed $369 $-1 #
coedge $-1 $257 $477 $375 $481 forward $369 $-1 #
vertex $-1 $258 $485 #
straight-curve $-1 64.644306772057263 -15.336992576383789 94.236996621621813 0 0 1 I I #
straight-curve $-1 -18.460810810843881 -15.336992576383789 105.36887566034251 0.64278759981090561 0 -0.7660444514056185 I I #
edge $-1 $479 -21.377200095260438 $261 -15.336992576383789 $379 $486 forward 7 unknown #
point $-1 64.644306772057263 -15.336992576383789 14.305339666740123 #
point $-1 57.950566654545298 -15.336992576383789 14.305339666740124 #
edge $-1 $487 1 $487 0 $264 $-1 forward 7 unknown #
vertex $-1 $265 $488 #
ellipse-curve $-1 60.480836180284143 -19.651426518438541 9.631485957709959 0.7660444514056185 0 0.64278759981090561 0.3213937999054528 0 -0.38302222570280925 1 I I #
point $-1 61.618830513206738 -19.651426518438541 9.9336729201414009 #
edge $-1 $489 1 $489 0 $268 $-1 forward 7 unknown #
vertex $-1 $269 $490 #
ellipse-curve $-1 60.480836180284143 -17.06276615320569 9.631485957709959 0.7660444514056185 0 0.64278759981090561 0.3213937999054528 0 -0.38302222570280925 1 I I #
point $-1 61.618830513206738 -17.06276615320569 9.9336729201414009 #
plane-surface $-1 0 0 14.305339666740123 0 0 1 1 0 0 forward_v I I I I #
coedge $-1 $406 $405 $398 $491 forward $273 $-1 #
coedge $-1 $398 $275 $277 $402 reversed $172 $-1 #
coedge $-1 $275 $397 $396 $491 reversed $172 $-1 #
coedge $-1 $283 $278 $275 $400 forward $284 $-1 #
edge $-1 $403 -28.729361113972708 $492 -22.499328411648349 $399 $493 forward 7 unknown #
coedge $-1 $277 $276 $406 $494 reversed $107 $-1 #
edge $-1 $495 2.7114274142304302e-014 $403 11.756569862461342 $397 $496 forward 7 unknown #
vertex $-1 $279 $497 #
straight-curve $-1 -58.414274069732897 9.0479258138402869 14.305339666740123 0 1 0 I I #
coedge $-1 $396 $280 $283 $410 reversed $273 $-1 #
coedge $-1 $280 $396 $401 $494 forward $273 $-1 #
vertex $-1 $281 $498 #
straight-curve $-1 -64.644306772057263 14.814503160100706 36.423864103883496 0 0 1 I I #
straight-curve $-1 -64.644306772057277 14.814503160100706 4.3352028843833637 -0.52991925155115449 0 -0.84804810408105047 I I #
edge $-1 $492 -21.377200095260442 $285 -14.814503160100706 $405 $499 forward 7 unknown #
point $-1 -64.644306772057263 14.814503160100706 14.305339666740123 #
point $-1 -58.414274069732905 14.814503160100706 14.305339666740123 #
edge $-1 $500 1 $500 0 $288 $-1 forward 7 unknown #
vertex $-1 $289 $501 #
ellipse-curve $-1 -60.415598048486501 16.127042547132653 8.6243590677460205 -0.84804810408105047 0 0.52991925155115449 0.26495962577557725 0 0.42402405204052523 1 I I #
point $-1 -61.264330795119498 16.127042547132653 9.7442953276022681 #
edge $-1 $502 1 $502 0 $292 $-1 forward 7 unknown #
vertex $-1 $293 $503 #
ellipse-curve $-1 -60.415598048486501 18.095851627680574 8.6243590677460205 -0.84804810408105047 0 0.52991925155115449 0.26495962577557725 0 0.42402405204052523 1 I I #
point $-1 -61.264330795119498 18.095851627680574 9.7442953276022681 #
edge $-1 $504 1 $504 0 $296 $-1 forward 7 unknown #
vertex $-1 $297 $505 #
ellipse-curve $-1 -60.415598048486501 20.064660708228494 8.6243590677460205 -0.84804810408105047 0 0.52991925155115449 0.26495962577557725 0 0.42402405204052523 1 I I #
point $-1 -61.264330795119498 20.064660708228494 9.7442953276022681 #
plane-surface $-1 64.644306772057263 0 0 -1 0 0 0 0 1 forward_v I I I I #
coedge $-1 $305 $303 $307 $430 reversed $201 $-1 #
edge $-1 $318 -14.305339666740123 $432 14.305339666740123 $317 $506 forward 7 unknown #
vertex $-1 $430 $507 #
straight-curve $-1 -64.644306772057263 -34.906584120346544 0 0 0 -1 I I #
edge $-1 $428 -34.906584120346544 $432 34.906584120346544 $426 $508 forward 7 unknown #
straight-curve $-1 0 -34.906584120346544 -14.305339666740123 -1 0 0 I I #
vertex $-1 $310 $509 #
straight-curve $-1 0 34.906584120346544 -14.305339666740123 1 0 0 I I #
point $-1 64.644306772057263 34.906584120346544 -14.305339666740123 #
point $-1 64.644306772057263 -34.906584120346544 -14.305339666740123 #
straight-curve $-1 -64.644306772057263 0 14.305339666740123 0 -1 0 I I #
point $-1 -64.644306772057263 34.906584120346544 14.305339666740123 #
point $-1 -64.644306772057263 -34.906584120346544 14.305339666740123 #
straight-curve $-1 64.644306772057263 -34.906584120346544 0 0 0 -1 I I #
straight-curve $-1 64.644306772057263 34.906584120346544 0 0 0 -1 I I #
plane-surface $-1 64.644306772057263 0 0 -1 0 0 0 0 1 forward_v I I I I #
coedge $-1 $453 $444 $443 $510 forward $328 $-1 #
coedge $-1 $331 $330 $442 $510 reversed $134 $-1 #
coedge $-1 $442 $511 $332 $445 reversed $328 $-1 #
edge $-1 $446 -64.644306772057263 $449 64.644306772057263 $444 $512 forward 7 unknown #
vertex $-1 $333 $513 #
straight-curve $-1 -64.644306772057263 0 14.305339666740123 0 -1 0 I I #
coedge $-1 $340 $334 $511 $514 forward $341 $-1 #
vertex $-1 $335 $515 #
straight-curve $-1 64.644306772057263 0 14.305339666740123 0 1 0 I I #
point $-1 64.644306772057263 -34.906584120346544 14.305339666740123 #
point $-1 -64.644306772057263 -34.906584120346544 14.305339666740123 #
coedge $-1 $511 $442 $343 $454 reversed $328 $-1 #
edge $-1 $455 -64.644306772057263 $457 64.644306772057263 $453 $516 forward 7 unknown #
vertex $-1 $514 $517 #
straight-curve $-1 64.644306772057263 -41.671276132889595 7.4534281724434361 0 -1 0 I I #
vertex $-1 $345 $518 #
straight-curve $-1 -64.644306772057263 -41.671276132889595 7.4534281724434361 0 1 0 I I #
plane-surface $-1 -64.644306772057263 0 0 1 0 0 0 0 -1 forward_v I I I I #
coedge $-1 $519 $351 $352 $463 reversed $236 $-1 #
coedge $-1 $351 $519 $466 $520 reversed $236 $-1 #
edge $-1 $467 -3.4259557471483433 $464 3.4259557471483433 $354 $521 forward 7 unknown #
edge $-1 $475 -64.644306772057263 $464 64.644306772057263 $460 $522 forward 7 unknown #
vertex $-1 $353 $523 #
straight-curve $-1 64.644306772057263 41.671276132889595 7.4534281724434361 0 -1 0 I I #
coedge $-1 $470 $355 $461 $520 forward $349 $-1 #
vertex $-1 $356 $524 #
straight-curve $-1 64.644306772057263 0 14.305339666740123 0 1 0 I I #
point $-1 64.644306772057263 34.906584120346544 14.305339666740123 #
coedge $-1 $359 $466 $361 $473 forward $349 $-1 #
straight-curve $-1 0 34.906584120346544 14.305339666740123 1 0 0 I I #
coedge $-1 $362 $361 $519 $525 forward $363 $-1 #
edge $-1 $526 -48.435968145432646 $364 -34.906584120346544 $361 $527 forward 7 unknown #
point $-1 -64.644306772057263 34.906584120346544 14.305339666740123 #
vertex $-1 $463 $528 #
straight-curve $-1 -64.644306772057263 41.671276132889595 7.4534281724434361 0 1 0 I I #
coedge $-1 $380 $379 $372 $478 forward $369 $-1 #
edge $-1 $479 79.931656954881689 $482 87.908945996673566 $477 $529 forward 7 unknown #
vertex $-1 $384 $530 #
straight-curve $-1 40.290007112275177 -21.377200095260438 14.305339666740124 1 0 0 I I #
edge $-1 $482 -12.198651927349381 $381 -6.1584444084727323 $380 $531 forward 7 unknown #
vertex $-1 $481 $532 #
straight-curve $-1 -18.460810810843881 -21.377200095260438 105.36887566034251 -0.64278759981090561 0 0.7660444514056185 I I #
point $-1 57.950566654545298 -21.377200095260438 14.305339666740124 #
point $-1 64.644306772057263 -15.336992576383789 6.3280506249482471 #
straight-curve $-1 64.644306772057263 0 14.305339666740123 0 1 0 I I #
vertex $-1 $387 $533 #
point $-1 60.802229980189601 -19.651426518438541 9.2484637320071492 #
vertex $-1 $391 $534 #
point $-1 60.802229980189601 -17.06276615320569 9.2484637320071492 #
edge $-1 $492 22.118524437143371 $495 32.088661219500111 $396 $535 forward 7 unknown #
vertex $-1 $410 $536 #
straight-curve $-1 -87.143635183705612 21.377200095260442 14.305339666740124 -1 0 0 I I #
edge $-1 $495 -12.329274281420155 $407 -5.7665773462604193 $406 $537 forward 7 unknown #
vertex $-1 $494 $538 #
straight-curve $-1 -64.644306772057277 21.377200095260442 4.3352028843833637 0.52991925155115449 0 0.84804810408105047 I I #
point $-1 -58.414274069732905 21.377200095260442 14.305339666740123 #
point $-1 -64.644306772057263 14.814503160100706 4.3352028843833867 #
straight-curve $-1 -64.644306772057263 0 14.305339666740123 0 -1 0 I I #
vertex $-1 $413 $539 #
point $-1 -60.150638422710927 16.127042547132653 9.0483831197865445 #
vertex $-1 $417 $540 #
point $-1 -60.150638422710927 18.095851627680574 9.0483831197865445 #
vertex $-1 $421 $541 #
point $-1 -60.150638422710927 20.064660708228494 9.0483831197865445 #
straight-curve $-1 -64.644306772057263 34.906584120346544 0 0 0 -1 I I #
point $-1 -64.644306772057263 -34.906584120346544 -14.305339666740123 #
straight-curve $-1 -64.644306772057263 0 -14.305339666740123 0 1 0 I I #
point $-1 -64.644306772057263 34.906584120346544 -14.305339666740123 #
edge $-1 $446 -3.4259557471483433 $457 3.4259557471483433 $443 $542 forward 7 unknown #
coedge $-1 $444 $453 $448 $514 reversed $328 $-1 #
straight-curve $-1 0 -48.435968145432646 14.305339666740123 1 0 0 I I #
point $-1 -64.644306772057263 -48.435968145432646 14.305339666740123 #
edge $-1 $449 -3.4259557471483433 $455 3.4259557471483433 $448 $543 forward 7 unknown #
point $-1 64.644306772057263 -48.435968145432646 14.305339666740123 #
straight-curve $-1 0 -48.435968145432646 7.4534281724434361 -1 0 0 I I #
point $-1 64.644306772057263 -48.435968145432646 7.4534281724434361 #
point $-1 -64.644306772057263 -48.435968145432646 7.4534281724434361 #
coedge $-1 $461 $460 $472 $525 reversed $236 $-1 #
edge $-1 $467 -64.644306772057263 $526 64.644306772057263 $461 $544 forward 7 unknown #
straight-curve $-1 64.644306772057263 48.435968145432646 10.879383919591779 0 0 -1 I I #
straight-curve $-1 0 48.435968145432646 7.4534281724434361 1 0 0 I I #
point $-1 64.644306772057263 48.435968145432646 7.4534281724434361 #
point $-1 64.644306772057263 48.435968145432646 14.305339666740123 #
edge $-1 $526 -3.4259557471483433 $475 3.4259557471483433 $519 $545 forward 7 unknown #
vertex $-1 $520 $546 #
straight-curve $-1 -64.644306772057263 0 14.305339666740123 0 -1 0 I I #
point $-1 -64.644306772057263 48.435968145432646 7.4534281724434361 #
straight-curve $-1 64.644306772057263 -21.377200095260438 94.236996621621813 0 0 -1 I I #
point $-1 64.644306772057263 -21.377200095260438 14.305339666740123 #
straight-curve $-1 64.644306772057263 -9.1785481679110568 6.3280506249482471 0 1 0 I I #
point $-1 64.644306772057263 -21.377200095260438 6.3280506249482471 #
point $-1 60.097813954581341 -19.651426518438541 9.3100921578045046 #
point $-1 60.097813954581341 -17.06276615320569 9.3100921578045046 #
straight-curve $-1 -64.644306772057263 21.377200095260442 36.423864103883496 0 0 -1 I I #
point $-1 -64.644306772057263 21.377200095260442 14.305339666740123 #
straight-curve $-1 -64.644306772057263 9.0479258138402869 4.3352028843833716 0 -1 0 I I #
point $-1 -64.644306772057263 21.377200095260442 4.3352028843833867 #
point $-1 -59.991573996445979 16.127042547132653 8.3593994419704423 #
point $-1 -59.991573996445979 18.095851627680574 8.3593994419704423 #
point $-1 -59.991573996445979 20.064660708228494 8.3593994419704423 #
straight-curve $-1 -64.644306772057263 -48.435968145432646 10.879383919591779 0 0 -1 I I #
straight-curve $-1 64.644306772057263 -48.435968145432646 10.879383919591779 0 0 -1 I I #
straight-curve $-1 0 48.435968145432646 14.305339666740123 -1 0 0 I I #
straight-curve $-1 -64.644306772057263 48.435968145432646 10.879383919591779 0 0 -1 I I #
point $-1 -64.644306772057263 48.435968145432646 14.305339666740123 #
End-of-ACIS-data 