500 0 4 0           
7 Unknown 11 ACIS 5.0 NT 24 Thu Mar 25 21:47:36 1999 
-1 9.9999999999999995e-007 1e-010 
body $-1 $4 $-1 $5 #
body $-1 $6 $-1 $7 #
body $-1 $8 $-1 $9 #
body $-1 $10 $-1 $11 #
lump $-1 $-1 $12 $0 #
transform $-1 1 0 0 0 1 0 0 0 1 73.753471480452902 50.067593745660147 11.653661427027217 1 rotate no_reflect no_shear #
lump $-1 $-1 $13 $1 #
transform $-1 1 0 0 0 1 0 0 0 1 73.753471480452902 50.067593745660147 11.653661427027217 1 rotate no_reflect no_shear #
lump $-1 $-1 $14 $2 #
transform $-1 1 0 0 0 1 0 0 0 1 73.753471480452902 50.067593745660147 11.653661427027217 1 rotate no_reflect no_shear #
lump $-1 $-1 $15 $3 #
transform $-1 1 0 0 0 1 0 0 0 1 73.753471480452902 50.067593745660147 11.653661427027217 1 rotate no_reflect no_shear #
shell $-1 $-1 $-1 $16 $-1 $4 #
shell $-1 $-1 $-1 $17 $-1 $6 #
shell $-1 $-1 $-1 $18 $-1 $8 #
shell $-1 $-1 $-1 $19 $-1 $10 #
face $-1 $20 $21 $12 $-1 $22 forward single #
face $-1 $23 $24 $13 $-1 $25 reversed single #
face $-1 $26 $27 $14 $-1 $28 forward single #
face $-1 $29 $30 $15 $-1 $31 forward single #
face $-1 $32 $33 $12 $-1 $34 reversed single #
loop $-1 $-1 $35 $16 #
plane-surface $-1 0 0 11.653661427027217 0 0 1 1 0 0 forward_v I I I I #
face $-1 $36 $37 $13 $-1 $38 reversed single #
loop $-1 $-1 $39 $17 #
plane-surface $-1 52.969384432405974 -50.067593745660162 3.3363354841039694 0 -0.85716730853699208 0.51503806187062418 1 0 0 forward_v I I I I #
face $-1 $40 $41 $14 $-1 $42 forward single #
loop $-1 $43 $44 $18 #
cone-surface $-1 44.061918554671564 -45.857032955520438 6.4664548557365862 0 0.85716730853699208 -0.51503806187062418 1 0 0 1 I I 0 1 1 forward I I I I #
face $-1 $45 $46 $15 $-1 $47 forward single #
loop $-1 $48 $49 $19 #
cone-surface $-1 61.876850310140355 -45.857032955520438 6.4664548557365862 0 0.85716730853699208 -0.51503806187062418 1 0 0 1 I I 0 1 1 forward I I I I #
face $-1 $50 $51 $12 $-1 $52 reversed single #
loop $-1 $-1 $53 $20 #
plane-surface $-1 0 0 -11.653661427027217 0 0 1 1 0 0 forward_v I I I I #
coedge $-1 $54 $55 $56 $57 forward $21 $-1 #
face $-1 $58 $59 $13 $-1 $60 reversed single #
loop $-1 $-1 $61 $23 #
plane-surface $-1 32.185297384359039 -176.50572303397939 79.308025499149608 1 0 0 0 0.85716730853699208 -0.51503806187062418 forward_v I I I I #
coedge $-1 $62 $63 $64 $65 reversed $24 $-1 #
face $-1 $-1 $66 $14 $-1 $67 forward single #
loop $-1 $68 $69 $26 #
cone-surface $-1 44.061918554671564 -43.716665232369195 5.180392224972266 0 0.85716730853699208 -0.51503806187062418 0.5 0 0 1 I I -0.70710678118654746 0.70710678118654746 0.5 forward I I I I #
loop $-1 $-1 $70 $18 #
coedge $-1 $44 $44 $71 $72 reversed $27 $-1 #
face $-1 $-1 $73 $15 $-1 $74 forward single #
loop $-1 $75 $76 $29 #
cone-surface $-1 61.876850310140355 -43.716665232369195 5.180392224972266 0 0.85716730853699208 -0.51503806187062418 0.5 0 0 1 I I -0.70710678118654746 0.70710678118654746 0.5 forward I I I I #
loop $-1 $-1 $77 $19 #
coedge $-1 $49 $49 $78 $79 reversed $30 $-1 #
face $-1 $80 $81 $12 $-1 $82 reversed single #
loop $-1 $-1 $83 $32 #
plane-surface $-1 0 -50.067593745660147 0 0 1 0 0 0 1 forward_v I I I I #
coedge $-1 $84 $85 $86 $87 forward $33 $-1 #
coedge $-1 $88 $35 $89 $90 forward $21 $-1 #
coedge $-1 $35 $88 $91 $92 forward $21 $-1 #
coedge $-1 $93 $94 $35 $57 reversed $95 $-1 #
edge $-1 $96 -50.067593745660147 $97 50.067593745660147 $56 $98 forward 7 unknown #
face $-1 $99 $100 $13 $-1 $101 forward single #
loop $-1 $-1 $102 $36 #
plane-surface $-1 0 -50.067593745660147 0 0 1 0 0 0 1 forward_v I I I I #
coedge $-1 $103 $104 $105 $106 reversed $37 $-1 #
coedge $-1 $107 $39 $108 $109 reversed $24 $-1 #
coedge $-1 $39 $107 $103 $110 forward $24 $-1 #
coedge $-1 $105 $111 $39 $65 forward $100 $-1 #
edge $-1 $112 -47.268779264249915 $113 -5.7006051681560521 $64 $114 forward 7 unknown #
loop $-1 $-1 $71 $40 #
plane-surface $-1 52.969384432405974 -50.067593745660162 3.3363354841039694 0 -0.85716730853699208 0.51503806187062418 1 0 0 forward_v I I I I #
loop $-1 $-1 $115 $26 #
coedge $-1 $69 $69 $70 $116 reversed $41 $-1 #
coedge $-1 $70 $70 $69 $116 forward $43 $-1 #
coedge $-1 $71 $71 $44 $72 forward $66 $-1 #
edge $-1 $117 -1.4702199255364637e-016 $117 6.2831853071796004 $71 $118 forward 7 unknown #
loop $-1 $-1 $78 $45 #
plane-surface $-1 52.969384432405974 -50.067593745660162 3.3363354841039694 0 -0.85716730853699208 0.51503806187062418 1 0 0 forward_v I I I I #
loop $-1 $-1 $119 $29 #
coedge $-1 $76 $76 $77 $120 reversed $46 $-1 #
coedge $-1 $77 $77 $76 $120 forward $48 $-1 #
coedge $-1 $78 $78 $49 $79 forward $73 $-1 #
edge $-1 $121 -1.4702199255364637e-016 $121 6.2831853071796004 $78 $122 forward 7 unknown #
face $-1 $123 $124 $12 $-1 $125 reversed single #
loop $-1 $-1 $126 $50 #
plane-surface $-1 -73.753471480452902 0 0 1 0 0 0 0 -1 forward_v I I I I #
coedge $-1 $127 $91 $128 $129 forward $51 $-1 #
coedge $-1 $130 $53 $127 $131 forward $33 $-1 #
coedge $-1 $53 $130 $132 $133 forward $33 $-1 #
coedge $-1 $94 $93 $53 $87 reversed $95 $-1 #
edge $-1 $134 -50.067593745660147 $135 50.067593745660147 $86 $136 forward 7 unknown #
coedge $-1 $55 $54 $137 $138 forward $21 $-1 #
coedge $-1 $139 $140 $54 $90 reversed $124 $-1 #
edge $-1 $97 -73.753471480452902 $141 73.753471480452902 $89 $142 forward 7 unknown #
coedge $-1 $83 $143 $55 $92 reversed $51 $-1 #
edge $-1 $144 -73.753471480452902 $96 73.753471480452902 $91 $145 forward 7 unknown #
coedge $-1 $86 $56 $143 $146 forward $95 $-1 #
coedge $-1 $56 $86 $139 $147 reversed $95 $-1 #
loop $-1 $-1 $93 $123 #
vertex $-1 $57 $148 #
vertex $-1 $57 $149 #
straight-curve $-1 73.753471480452902 0 11.653661427027217 0 1 0 I I #
face $-1 $-1 $150 $13 $-1 $151 reversed single #
loop $-1 $-1 $105 $58 #
plane-surface $-1 0 0 11.653661427027217 0 0 1 1 0 0 forward_v I I I I #
coedge $-1 $152 $153 $104 $154 forward $59 $-1 #
coedge $-1 $104 $61 $63 $110 reversed $37 $-1 #
coedge $-1 $61 $103 $102 $154 reversed $37 $-1 #
coedge $-1 $155 $64 $61 $106 forward $100 $-1 #
edge $-1 $113 -43.182821213843475 $156 -38.185267771329549 $105 $157 forward 7 unknown #
coedge $-1 $63 $62 $152 $158 reversed $24 $-1 #
coedge $-1 $159 $160 $62 $109 forward $150 $-1 #
edge $-1 $161 -11.463459369002338 $112 -1.760189237154699 $108 $162 forward 7 unknown #
edge $-1 $163 2.7494044966190042e-014 $113 9.7032701318476686 $103 $164 forward 7 unknown #
coedge $-1 $64 $155 $159 $165 forward $100 $-1 #
vertex $-1 $109 $166 #
vertex $-1 $65 $167 #
straight-curve $-1 26.484692216202987 -45.070040303146229 11.653661427027217 -1 0 0 I I #
coedge $-1 $115 $115 $-1 $168 reversed $68 $-1 #
edge $-1 $169 0 $169 6.2831853071796004 $69 $170 forward 7 unknown #
vertex $-1 $72 $171 #
ellipse-curve $-1 44.061918554671564 -47.568817024403188 7.4949984555655984 0 -0.85716730853699208 0.51503806187062418 1 0 0 1 I I #
coedge $-1 $119 $119 $-1 $172 reversed $75 $-1 #
edge $-1 $173 0 $173 6.2831853071796004 $76 $174 forward 7 unknown #
vertex $-1 $79 $175 #
ellipse-curve $-1 61.876850310140355 -47.568817024403188 7.4949984555655984 0 -0.85716730853699208 0.51503806187062418 1 0 0 1 I I #
face $-1 $-1 $95 $12 $-1 $176 reversed single #
loop $-1 $-1 $139 $80 #
plane-surface $-1 0 50.067593745660147 0 0 -1 0 0 0 -1 forward_v I I I I #
coedge $-1 $177 $137 $140 $178 forward $81 $-1 #
coedge $-1 $143 $83 $84 $131 reversed $51 $-1 #
coedge $-1 $137 $177 $83 $129 reversed $81 $-1 #
edge $-1 $144 -11.653661427027217 $179 11.653661427027217 $128 $180 forward 7 unknown #
coedge $-1 $85 $84 $177 $181 forward $33 $-1 #
edge $-1 $135 -73.753471480452902 $179 73.753471480452902 $127 $182 forward 7 unknown #
coedge $-1 $140 $139 $85 $133 reversed $124 $-1 #
edge $-1 $183 -73.753471480452902 $134 73.753471480452902 $132 $184 forward 7 unknown #
vertex $-1 $87 $185 #
vertex $-1 $146 $186 #
straight-curve $-1 73.753471480452902 0 -11.653661427027217 0 -1 0 I I #
coedge $-1 $126 $128 $88 $138 reversed $81 $-1 #
edge $-1 $141 -50.067593745660147 $144 50.067593745660147 $137 $187 forward 7 unknown #
coedge $-1 $132 $89 $94 $147 forward $124 $-1 #
coedge $-1 $89 $132 $126 $178 reversed $124 $-1 #
vertex $-1 $90 $188 #
straight-curve $-1 0 50.067593745660147 11.653661427027217 -1 0 0 I I #
coedge $-1 $91 $127 $93 $146 reversed $51 $-1 #
vertex $-1 $138 $189 #
straight-curve $-1 0 -50.067593745660147 11.653661427027217 1 0 0 I I #
edge $-1 $96 -11.653661427027217 $135 11.653661427027217 $93 $190 forward 7 unknown #
edge $-1 $97 -11.653661427027217 $134 11.653661427027217 $94 $191 forward 7 unknown #
point $-1 73.753471480452902 -50.067593745660147 11.653661427027217 #
point $-1 73.753471480452902 50.067593745660147 11.653661427027217 #
loop $-1 $-1 $108 $99 #
plane-surface $-1 73.753471480452902 0 0 -1 0 0 0 0 1 forward_v I I I I #
coedge $-1 $192 $102 $107 $158 forward $59 $-1 #
coedge $-1 $102 $192 $155 $193 reversed $59 $-1 #
edge $-1 $156 28.000351322547587 $163 36.317677265470813 $102 $194 forward 7 unknown #
coedge $-1 $111 $105 $153 $193 forward $100 $-1 #
vertex $-1 $193 $195 #
straight-curve $-1 32.185297384359039 -88.252861516989697 11.653661427027217 0 -1 0 I I #
edge $-1 $163 5.7006051681560521 $161 47.268779264249915 $152 $196 forward 7 unknown #
coedge $-1 $160 $108 $111 $165 reversed $150 $-1 #
coedge $-1 $108 $159 $192 $197 forward $150 $-1 #
vertex $-1 $158 $198 #
straight-curve $-1 73.753471480452902 -44.163475849916537 13.162438097954894 0 0.51503806187062429 0.85716730853699219 I I #
vertex $-1 $158 $199 #
straight-curve $-1 32.185297384359039 -50.067593745660162 3.3363354841039694 0 0.51503806187062418 0.85716730853699208 I I #
edge $-1 $200 -50.067593745660147 $112 -45.070040303146222 $159 $201 forward 7 unknown #
point $-1 73.753471480452902 -45.070040303146222 11.653661427027217 #
point $-1 32.185297384359039 -45.070040303146222 11.653661427027217 #
edge $-1 $202 1 $202 0 $115 $-1 forward 7 unknown #
vertex $-1 $116 $203 #
ellipse-curve $-1 44.061918554671564 -44.145248886637688 5.4379112559075784 0 -0.85716730853699208 0.51503806187062418 1 0 0 1 I I #
point $-1 45.061918554671564 -47.568817024403181 7.494998455565594 #
edge $-1 $204 1 $204 0 $119 $-1 forward 7 unknown #
vertex $-1 $120 $205 #
ellipse-curve $-1 61.876850310140355 -44.145248886637688 5.4379112559075784 0 -0.85716730853699208 0.51503806187062418 1 0 0 1 I I #
point $-1 62.876850310140355 -47.568817024403181 7.494998455565594 #
plane-surface $-1 73.753471480452902 0 0 -1 0 0 0 0 1 forward_v I I I I #
coedge $-1 $128 $126 $130 $181 reversed $81 $-1 #
edge $-1 $141 -11.653661427027217 $183 11.653661427027217 $140 $206 forward 7 unknown #
vertex $-1 $181 $207 #
straight-curve $-1 -73.753471480452902 -50.067593745660147 0 0 0 -1 I I #
edge $-1 $179 -50.067593745660147 $183 50.067593745660147 $177 $208 forward 7 unknown #
straight-curve $-1 0 -50.067593745660147 -11.653661427027217 -1 0 0 I I #
vertex $-1 $133 $209 #
straight-curve $-1 0 50.067593745660147 -11.653661427027217 1 0 0 I I #
point $-1 73.753471480452902 50.067593745660147 -11.653661427027217 #
point $-1 73.753471480452902 -50.067593745660147 -11.653661427027217 #
straight-curve $-1 -73.753471480452902 0 11.653661427027217 0 -1 0 I I #
point $-1 -73.753471480452902 50.067593745660147 11.653661427027217 #
point $-1 -73.753471480452902 -50.067593745660147 11.653661427027217 #
straight-curve $-1 73.753471480452902 -50.067593745660147 0 0 0 -1 I I #
straight-curve $-1 73.753471480452902 50.067593745660147 0 0 0 -1 I I #
coedge $-1 $153 $152 $160 $197 reversed $59 $-1 #
edge $-1 $156 32.185297384359039 $200 73.753471480452902 $153 $210 forward 7 unknown #
straight-curve $-1 32.185297384359039 -50.067593745660147 39.654012749574804 0 0 -1 I I #
point $-1 32.185297384359039 -50.067593745660147 11.653661427027217 #
straight-curve $-1 26.484692216202987 -50.067593745660147 3.3363354841039965 1 0 0 I I #
edge $-1 $200 -11.653661427027217 $161 -3.3363354841039929 $160 $211 forward 7 unknown #
point $-1 73.753471480452902 -50.067593745660147 3.3363354841039929 #
point $-1 32.185297384359039 -50.067593745660147 3.3363354841039929 #
vertex $-1 $165 $212 #
straight-curve $-1 73.753471480452902 0 11.653661427027217 0 1 0 I I #
vertex $-1 $168 $213 #
point $-1 45.061918554671564 -44.145248886637688 5.4379112559075784 #
vertex $-1 $172 $214 #
point $-1 62.876850310140355 -44.145248886637688 5.4379112559075784 #
straight-curve $-1 -73.753471480452902 50.067593745660147 0 0 0 -1 I I #
point $-1 -73.753471480452902 -50.067593745660147 -11.653661427027217 #
straight-curve $-1 -73.753471480452902 0 -11.653661427027217 0 1 0 I I #
point $-1 -73.753471480452902 50.067593745660147 -11.653661427027217 #
straight-curve $-1 0 -50.067593745660147 11.653661427027217 1 0 0 I I #
straight-curve $-1 73.753471480452902 -50.067593745660147 0 0 0 -1 I I #
point $-1 73.753471480452902 -50.067593745660147 11.653661427027217 #
point $-1 44.061918554671564 -43.288081578100702 4.9228731940369537 #
point $-1 61.876850310140355 -43.288081578100702 4.9228731940369537 #
End-of-ACIS-data 