500 0 7 0           
7 Unknown 11 ACIS 5.0 NT 24 Fri Mar 26 16:14:05 1999 
-1 9.9999999999999995e-007 1e-010 
body $-1 $7 $-1 $8 #
body $-1 $9 $-1 $10 #
body $-1 $11 $-1 $12 #
body $-1 $13 $-1 $14 #
body $-1 $15 $-1 $16 #
body $-1 $17 $-1 $18 #
body $-1 $19 $-1 $20 #
lump $-1 $-1 $21 $0 #
transform $-1 1 0 0 0 1 0 0 0 1 47.691885128330334 25.335631715715387 6.1469081263699996 1 rotate no_reflect no_shear #
lump $-1 $-1 $22 $1 #
transform $-1 1 0 0 0 1 0 0 0 1 47.691885128330334 25.335631715715387 6.1469081263699996 1 rotate no_reflect no_shear #
lump $-1 $-1 $23 $2 #
transform $-1 1 0 0 0 1 0 0 0 1 47.691885128330334 25.335631715715387 6.1469081263699996 1 rotate no_reflect no_shear #
lump $-1 $-1 $24 $3 #
transform $-1 1 0 0 0 1 0 0 0 1 47.691885128330334 25.335631715715387 6.1469081263699996 1 rotate no_reflect no_shear #
lump $-1 $-1 $25 $4 #
transform $-1 1 0 0 0 1 0 0 0 1 47.691885128330334 25.335631715715387 6.1469081263699996 1 rotate no_reflect no_shear #
lump $-1 $-1 $26 $5 #
transform $-1 1 0 0 0 1 0 0 0 1 47.691885128330334 25.335631715715387 6.1469081263699996 1 rotate no_reflect no_shear #
lump $-1 $-1 $27 $6 #
transform $-1 1 0 0 0 1 0 0 0 1 47.691885128330334 25.335631715715387 6.1469081263699996 1 rotate no_reflect no_shear #
shell $-1 $-1 $-1 $28 $-1 $7 #
shell $-1 $-1 $-1 $29 $-1 $9 #
shell $-1 $-1 $-1 $30 $-1 $11 #
shell $-1 $-1 $-1 $31 $-1 $13 #
shell $-1 $-1 $-1 $32 $-1 $15 #
shell $-1 $-1 $-1 $33 $-1 $17 #
shell $-1 $-1 $-1 $34 $-1 $19 #
face $-1 $35 $36 $21 $-1 $37 forward single #
face $-1 $38 $39 $22 $-1 $40 forward single #
face $-1 $41 $42 $23 $-1 $43 forward single #
face $-1 $44 $45 $24 $-1 $46 reversed single #
face $-1 $47 $48 $25 $-1 $49 forward single #
face $-1 $50 $51 $26 $-1 $52 reversed single #
face $-1 $53 $54 $27 $-1 $55 forward single #
face $-1 $56 $57 $21 $-1 $58 reversed single #
loop $-1 $-1 $59 $28 #
plane-surface $-1 0 0 6.1469081263699996 0 0 1 1 0 0 forward_v I I I I #
face $-1 $60 $61 $22 $-1 $62 reversed single #
loop $-1 $-1 $63 $29 #
plane-surface $-1 -47.691885128330334 0 0 1 0 0 0 0 -1 forward_v I I I I #
face $-1 $64 $65 $23 $-1 $66 reversed single #
loop $-1 $-1 $67 $30 #
plane-surface $-1 45.610475665816587 0 -2.0398868905399201 0 0 1 1 0 0 forward_v I I I I #
face $-1 $68 $69 $24 $-1 $70 reversed single #
loop $-1 $-1 $71 $31 #
plane-surface $-1 31.16949650930971 -84.059745170484291 77.304624395798541 -1 0 0 0 -0.61566148304635926 0.78801074757464917 forward_v I I I I #
face $-1 $72 $73 $25 $-1 $74 forward single #
loop $-1 $75 $76 $32 #
cone-surface $-1 25.393343462314398 -22.299129484053505 3.5386889580719467 0 0.61566148304635926 -0.78801074757464917 1 0 0 1 I I 0 1 1 forward I I I I #
face $-1 $77 $78 $26 $-1 $79 reversed single #
loop $-1 $-1 $80 $33 #
plane-surface $-1 -29.925391894055956 84.194242366188803 91.347997212073977 1 0 0 0 -0.87461971476443456 -0.48480960649040278 forward_v I I I I #
face $-1 $81 $82 $27 $-1 $83 forward single #
loop $-1 $84 $85 $34 #
cone-surface $-1 -19.793115328688451 22.262247504326449 2.5867684077279884 0 -0.87461971476443456 -0.48480960649040278 1 0 0 1 I I 0 1 1 forward I I I I #
face $-1 $86 $87 $21 $-1 $88 reversed single #
loop $-1 $-1 $89 $35 #
plane-surface $-1 0 0 -6.1469081263699996 0 0 1 1 0 0 forward_v I I I I #
coedge $-1 $90 $91 $92 $93 forward $36 $-1 #
face $-1 $94 $95 $22 $-1 $96 forward single #
loop $-1 $-1 $97 $38 #
plane-surface $-1 0 25.335631715715387 0 0 -1 0 0 0 -1 forward_v I I I I #
coedge $-1 $98 $99 $100 $101 forward $39 $-1 #
face $-1 $102 $103 $23 $-1 $104 reversed single #
loop $-1 $-1 $105 $41 #
plane-surface $-1 45.610475665816587 0 -5.0398868905399201 0 0 1 1 0 0 forward_v I I I I #
coedge $-1 $106 $107 $108 $109 reversed $42 $-1 #
face $-1 $110 $111 $24 $-1 $112 reversed single #
loop $-1 $-1 $113 $44 #
plane-surface $-1 25.393343462314398 -25.335631715715373 2.1411882893587801 0 -0.61566148304635926 0.78801074757464917 1 0 0 forward_v I I I I #
coedge $-1 $114 $115 $116 $117 reversed $45 $-1 #
face $-1 $-1 $118 $25 $-1 $119 forward single #
loop $-1 $120 $121 $47 #
cone-surface $-1 25.393343462314398 -21.518340252243057 2.5393243344921759 0 0.61566148304635926 -0.78801074757464917 0.5 0 0 1 I I -0.70710678118654746 0.70710678118654746 0.5 forward I I I I #
loop $-1 $-1 $122 $32 #
coedge $-1 $76 $76 $123 $124 reversed $48 $-1 #
face $-1 $125 $126 $26 $-1 $127 reversed single #
loop $-1 $-1 $128 $50 #
plane-surface $-1 -19.793115328688451 0.76971643115189181 45.105029088371332 0 0.87461971476443456 0.48480960649040278 1 0 0 forward_v I I I I #
coedge $-1 $129 $130 $131 $132 reversed $51 $-1 #
face $-1 $-1 $133 $27 $-1 $134 forward single #
loop $-1 $135 $136 $53 #
cone-surface $-1 -19.793115328688451 20.237091939920418 1.4642063894158648 0 -0.87461971476443456 -0.48480960649040278 0.5 0 0 1 I I -0.70710678118654768 0.70710678118654735 0.5 forward I I I I #
loop $-1 $-1 $137 $34 #
coedge $-1 $85 $85 $138 $139 reversed $54 $-1 #
face $-1 $140 $141 $21 $-1 $142 reversed single #
loop $-1 $-1 $143 $56 #
plane-surface $-1 0 -25.335631715715387 0 0 1 0 0 0 1 forward_v I I I I #
coedge $-1 $144 $145 $146 $147 forward $57 $-1 #
coedge $-1 $148 $59 $149 $150 forward $36 $-1 #
coedge $-1 $59 $148 $151 $152 forward $36 $-1 #
coedge $-1 $153 $154 $59 $93 reversed $155 $-1 #
edge $-1 $156 -25.335631715715387 $157 25.335631715715387 $92 $158 forward 7 unknown #
face $-1 $159 $160 $22 $-1 $161 reversed single #
loop $-1 $-1 $100 $60 #
plane-surface $-1 -50.254800830789115 0 3.6333669047154373 0 0 1 1 0 0 forward_v I I I I #
coedge $-1 $162 $163 $99 $164 forward $61 $-1 #
coedge $-1 $165 $63 $166 $167 reversed $39 $-1 #
coedge $-1 $63 $165 $97 $164 reversed $39 $-1 #
coedge $-1 $168 $169 $63 $101 reversed $95 $-1 #
edge $-1 $170 -25.335631715715387 $171 25.335631715715387 $100 $172 forward 7 unknown #
face $-1 $173 $174 $23 $-1 $175 reversed single #
loop $-1 $-1 $176 $64 #
plane-surface $-1 43.52906620330284 0 -3.5398868905399201 1 0 0 0 0 -1 forward_v I I I I #
coedge $-1 $177 $178 $179 $180 reversed $65 $-1 #
coedge $-1 $181 $67 $182 $183 reversed $42 $-1 #
coedge $-1 $67 $181 $184 $185 reversed $42 $-1 #
coedge $-1 $186 $187 $67 $109 forward $188 $-1 #
edge $-1 $189 -25.335631715715387 $190 25.335631715715387 $108 $191 forward 7 unknown #
face $-1 $192 $193 $24 $-1 $194 forward single #
loop $-1 $-1 $195 $68 #
plane-surface $-1 19.617190415319087 -84.059745170484291 77.304624395798541 1 0 0 0 0.61566148304635926 -0.78801074757464917 forward_v I I I I #
coedge $-1 $196 $197 $198 $199 reversed $69 $-1 #
coedge $-1 $115 $71 $200 $201 reversed $45 $-1 #
coedge $-1 $71 $114 $196 $202 reversed $45 $-1 #
coedge $-1 $198 $203 $71 $117 forward $193 $-1 #
edge $-1 $204 16.694240869526759 $205 21.821328352275998 $116 $206 forward 7 unknown #
loop $-1 $-1 $123 $72 #
plane-surface $-1 25.393343462314398 -25.335631715715373 2.1411882893587801 0 -0.61566148304635926 0.78801074757464917 1 0 0 forward_v I I I I #
loop $-1 $-1 $207 $47 #
coedge $-1 $121 $121 $122 $208 reversed $73 $-1 #
coedge $-1 $122 $122 $121 $208 forward $75 $-1 #
coedge $-1 $123 $123 $76 $124 forward $118 $-1 #
edge $-1 $209 -1.3098069307702156e-016 $209 6.2831853071796004 $123 $210 forward 7 unknown #
face $-1 $211 $212 $26 $-1 $213 reversed single #
loop $-1 $-1 $214 $77 #
plane-surface $-1 -9.660838763320946 84.194242366188803 91.347997212073977 -1 0 0 0 0.87461971476443456 0.48480960649040278 forward_v I I I I #
coedge $-1 $215 $216 $217 $218 reversed $78 $-1 #
coedge $-1 $130 $80 $219 $220 reversed $51 $-1 #
coedge $-1 $80 $129 $215 $221 reversed $51 $-1 #
coedge $-1 $217 $222 $80 $132 forward $223 $-1 #
edge $-1 $224 16.761489467379015 $225 19.732566476109252 $131 $226 forward 7 unknown #
loop $-1 $-1 $138 $81 #
plane-surface $-1 -19.793115328688451 0.76971643115189181 45.105029088371332 0 0.87461971476443456 0.48480960649040278 1 0 0 forward_v I I I I #
loop $-1 $-1 $227 $53 #
coedge $-1 $136 $136 $137 $228 reversed $82 $-1 #
coedge $-1 $137 $137 $136 $228 forward $84 $-1 #
coedge $-1 $138 $138 $85 $139 forward $133 $-1 #
edge $-1 $229 1.1652275341470748e-015 $229 6.2831853071796013 $138 $230 forward 7 unknown #
face $-1 $231 $232 $21 $-1 $233 reversed single #
loop $-1 $-1 $234 $86 #
plane-surface $-1 -47.691885128330334 0 0 1 0 0 0 0 -1 forward_v I I I I #
coedge $-1 $235 $151 $236 $237 forward $87 $-1 #
coedge $-1 $238 $89 $235 $239 forward $57 $-1 #
coedge $-1 $89 $238 $240 $241 forward $57 $-1 #
coedge $-1 $154 $153 $89 $147 reversed $155 $-1 #
edge $-1 $242 -25.335631715715387 $243 25.335631715715387 $146 $244 forward 7 unknown #
coedge $-1 $91 $90 $245 $246 forward $36 $-1 #
coedge $-1 $247 $248 $90 $150 reversed $232 $-1 #
edge $-1 $157 -47.691885128330334 $249 47.691885128330334 $149 $250 forward 7 unknown #
coedge $-1 $143 $251 $91 $152 reversed $87 $-1 #
edge $-1 $252 -47.691885128330334 $156 47.691885128330334 $151 $253 forward 7 unknown #
coedge $-1 $146 $92 $251 $254 forward $155 $-1 #
coedge $-1 $92 $146 $247 $255 reversed $155 $-1 #
loop $-1 $-1 $153 $231 #
vertex $-1 $93 $256 #
vertex $-1 $93 $257 #
straight-curve $-1 47.691885128330334 0 6.1469081263699996 0 1 0 I I #
face $-1 $258 $259 $22 $-1 $260 reversed single #
loop $-1 $-1 $261 $94 #
plane-surface $-1 -50.254800830789115 0 0.3922221413088085 0 0 1 1 0 0 forward_v I I I I #
coedge $-1 $262 $97 $263 $264 reversed $61 $-1 #
coedge $-1 $97 $262 $168 $265 reversed $61 $-1 #
edge $-1 $170 -3.6333669047154373 $266 -0.3922221413088085 $97 $267 forward 7 unknown #
coedge $-1 $99 $98 $261 $268 forward $39 $-1 #
coedge $-1 $269 $270 $98 $167 forward $271 $-1 #
edge $-1 $272 0.3922221413088085 $171 3.6333669047154373 $166 $273 forward 7 unknown #
coedge $-1 $274 $100 $163 $265 forward $95 $-1 #
coedge $-1 $100 $274 $269 $275 forward $95 $-1 #
vertex $-1 $164 $276 #
vertex $-1 $275 $277 #
straight-curve $-1 -47.691885128330334 0 3.6333669047154373 0 -1 0 I I #
face $-1 $278 $279 $23 $-1 $280 reversed single #
loop $-1 $-1 $184 $102 #
plane-surface $-1 0 -25.335631715715387 0 0 1 0 0 0 1 forward_v I I I I #
coedge $-1 $281 $282 $283 $284 reversed $103 $-1 #
coedge $-1 $285 $105 $286 $287 reversed $65 $-1 #
coedge $-1 $105 $285 $288 $289 reversed $65 $-1 #
coedge $-1 $187 $186 $105 $180 forward $188 $-1 #
edge $-1 $290 -25.335631715715387 $291 25.335631715715387 $179 $292 forward 7 unknown #
coedge $-1 $107 $106 $282 $293 forward $42 $-1 #
coedge $-1 $294 $283 $106 $183 forward $279 $-1 #
edge $-1 $295 20.723828370394546 $189 24.886647295422041 $182 $296 forward 7 unknown #
coedge $-1 $297 $298 $107 $185 forward $174 $-1 #
edge $-1 $190 -24.886647295422041 $299 -20.723828370394546 $184 $300 forward 7 unknown #
coedge $-1 $179 $108 $298 $301 forward $188 $-1 #
coedge $-1 $108 $179 $294 $302 reversed $188 $-1 #
loop $-1 $-1 $108 $278 #
vertex $-1 $302 $303 #
vertex $-1 $301 $304 #
straight-curve $-1 47.691885128330334 0 -2.0398868905399201 0 -1 0 I I #
face $-1 $-1 $305 $24 $-1 $306 reversed single #
loop $-1 $-1 $116 $110 #
plane-surface $-1 0 0 6.1469081263699996 0 0 1 1 0 0 forward_v I I I I #
coedge $-1 $307 $308 $309 $310 reversed $111 $-1 #
coedge $-1 $311 $113 $115 $202 forward $69 $-1 #
coedge $-1 $113 $311 $307 $312 forward $69 $-1 #
coedge $-1 $309 $116 $113 $199 forward $193 $-1 #
edge $-1 $205 -18.472824778152511 $313 -6.9205186841618875 $198 $314 forward 7 unknown #
coedge $-1 $315 $316 $114 $201 forward $305 $-1 #
edge $-1 $317 -36.511123908540505 $204 -32.50540407152927 $200 $318 forward 7 unknown #
edge $-1 $205 -6.5063674556843907 $317 1.8033521786330445e-014 $115 $319 forward 7 unknown #
coedge $-1 $116 $309 $315 $320 forward $193 $-1 #
vertex $-1 $201 $321 #
vertex $-1 $117 $322 #
straight-curve $-1 31.16949650930971 -42.029872585242146 6.1469081263700005 0 1 0 I I #
coedge $-1 $207 $207 $-1 $323 reversed $120 $-1 #
edge $-1 $324 0 $324 6.2831853071796004 $121 $325 forward 7 unknown #
vertex $-1 $124 $326 #
ellipse-curve $-1 25.393343462314398 -22.772087974340767 4.1440482078643832 0 -0.61566148304635926 0.78801074757464917 1 0 0 1 I I #
face $-1 $-1 $223 $26 $-1 $327 forward single #
loop $-1 $-1 $328 $125 #
plane-surface $-1 0 25.335631715715387 0 0 -1 0 0 0 -1 forward_v I I I I #
coedge $-1 $329 $330 $331 $332 reversed $126 $-1 #
coedge $-1 $333 $128 $130 $221 forward $78 $-1 #
coedge $-1 $128 $333 $329 $334 forward $78 $-1 #
coedge $-1 $331 $131 $128 $218 forward $223 $-1 #
edge $-1 $225 -20.02883422971173 $335 0.23571890102327941 $217 $336 forward 7 unknown #
coedge $-1 $337 $338 $129 $220 forward $212 $-1 #
edge $-1 $339 -44.887055486817175 $224 -39.527090479666988 $219 $340 forward 7 unknown #
edge $-1 $225 44.542925690274551 $339 50.671263431430795 $130 $341 forward 7 unknown #
coedge $-1 $131 $331 $337 $342 forward $223 $-1 #
loop $-1 $-1 $331 $211 #
vertex $-1 $220 $343 #
vertex $-1 $132 $344 #
straight-curve $-1 -29.925391894055956 42.097121183094401 6.1469081263700005 0 -1 0 I I #
coedge $-1 $227 $227 $-1 $345 reversed $135 $-1 #
edge $-1 $346 0 $346 6.2831853071796004 $136 $347 forward 7 unknown #
vertex $-1 $139 $348 #
ellipse-curve $-1 -19.793115328688451 23.850093211350263 3.4669256227949115 0 0.87461971476443456 0.48480960649040278 1 0 0 1 I I #
face $-1 $-1 $155 $21 $-1 $349 reversed single #
loop $-1 $-1 $247 $140 #
plane-surface $-1 0 25.335631715715387 0 0 -1 0 0 0 -1 forward_v I I I I #
coedge $-1 $350 $245 $248 $351 forward $141 $-1 #
coedge $-1 $251 $143 $144 $239 reversed $87 $-1 #
coedge $-1 $245 $350 $143 $237 reversed $141 $-1 #
edge $-1 $252 -6.1469081263699996 $352 6.1469081263699996 $236 $353 forward 7 unknown #
coedge $-1 $145 $144 $350 $354 forward $57 $-1 #
edge $-1 $243 -47.691885128330334 $352 47.691885128330334 $235 $355 forward 7 unknown #
coedge $-1 $248 $247 $145 $241 reversed $232 $-1 #
edge $-1 $356 -47.691885128330334 $242 47.691885128330334 $240 $357 forward 7 unknown #
vertex $-1 $147 $358 #
vertex $-1 $254 $359 #
straight-curve $-1 47.691885128330334 0 -6.1469081263699996 0 -1 0 I I #
coedge $-1 $234 $236 $148 $246 reversed $141 $-1 #
edge $-1 $249 -25.335631715715387 $252 25.335631715715387 $245 $360 forward 7 unknown #
coedge $-1 $240 $149 $154 $255 forward $232 $-1 #
coedge $-1 $149 $240 $234 $351 reversed $232 $-1 #
vertex $-1 $150 $361 #
straight-curve $-1 0 25.335631715715387 6.1469081263699996 -1 0 0 I I #
coedge $-1 $151 $235 $153 $254 reversed $87 $-1 #
vertex $-1 $246 $362 #
straight-curve $-1 0 -25.335631715715387 6.1469081263699996 1 0 0 I I #
edge $-1 $156 -6.1469081263699996 $243 6.1469081263699996 $153 $363 forward 7 unknown #
edge $-1 $157 -6.1469081263699996 $242 6.1469081263699996 $154 $364 forward 7 unknown #
point $-1 47.691885128330334 -25.335631715715387 6.1469081263699996 #
point $-1 47.691885128330334 25.335631715715387 6.1469081263699996 #
face $-1 $-1 $271 $22 $-1 $365 reversed single #
loop $-1 $-1 $366 $159 #
plane-surface $-1 -52.817716533247896 0 2.0127945230121229 1 0 0 0 0 -1 forward_v I I I I #
coedge $-1 $367 $263 $165 $268 reversed $160 $-1 #
coedge $-1 $163 $162 $366 $368 reversed $61 $-1 #
coedge $-1 $261 $369 $162 $264 forward $160 $-1 #
edge $-1 $370 -2.5629157024587812 $266 2.5629157024587812 $162 $371 forward 7 unknown #
edge $-1 $170 -2.5629157024587812 $372 2.5629157024587812 $163 $373 forward 7 unknown #
vertex $-1 $164 $374 #
straight-curve $-1 -47.691885128330334 25.335631715715387 0 0 0 -1 I I #
edge $-1 $272 -25.335631715715387 $266 25.335631715715387 $261 $375 forward 7 unknown #
coedge $-1 $376 $166 $169 $275 reversed $271 $-1 #
coedge $-1 $166 $376 $367 $377 reversed $271 $-1 #
loop $-1 $-1 $166 $258 #
vertex $-1 $167 $378 #
straight-curve $-1 -47.691885128330334 -25.335631715715387 0 0 0 1 I I #
coedge $-1 $169 $168 $379 $380 forward $95 $-1 #
edge $-1 $381 -2.5629157024587812 $171 2.5629157024587812 $269 $382 forward 7 unknown #
point $-1 -47.691885128330334 25.335631715715387 3.6333669047154373 #
point $-1 -47.691885128330334 -25.335631715715387 3.6333669047154373 #
face $-1 $-1 $188 $23 $-1 $383 reversed single #
loop $-1 $-1 $182 $173 #
plane-surface $-1 0 25.335631715715387 0 0 -1 0 0 0 -1 forward_v I I I I #
coedge $-1 $384 $176 $285 $385 reversed $103 $-1 #
coedge $-1 $176 $384 $181 $293 reversed $103 $-1 #
coedge $-1 $182 $288 $176 $284 forward $279 $-1 #
edge $-1 $386 -3.2699434452699601 $295 -0.26994344526996006 $283 $387 forward 7 unknown #
coedge $-1 $178 $177 $281 $385 forward $65 $-1 #
coedge $-1 $298 $297 $177 $287 forward $174 $-1 #
edge $-1 $388 20.723828370394546 $290 24.886647295422041 $286 $389 forward 7 unknown #
coedge $-1 $283 $294 $178 $289 forward $279 $-1 #
edge $-1 $291 -24.886647295422041 $386 -20.723828370394546 $288 $390 forward 7 unknown #
vertex $-1 $180 $391 #
vertex $-1 $180 $392 #
straight-curve $-1 47.691885128330334 0 -5.0398868905399201 0 1 0 I I #
edge $-1 $295 -25.335631715715387 $299 25.335631715715387 $282 $393 forward 7 unknown #
coedge $-1 $288 $182 $187 $302 forward $279 $-1 #
vertex $-1 $183 $394 #
straight-curve $-1 22.805237832908293 25.335631715715387 -2.0398868905399201 1 0 0 I I #
coedge $-1 $286 $184 $384 $395 forward $174 $-1 #
coedge $-1 $184 $286 $186 $301 reversed $174 $-1 #
vertex $-1 $185 $396 #
straight-curve $-1 22.805237832908293 -25.335631715715387 -2.0398868905399201 -1 0 0 I I #
edge $-1 $190 2.0398868905399201 $290 5.0398868905399201 $186 $397 forward 7 unknown #
edge $-1 $189 2.0398868905399201 $291 5.0398868905399201 $187 $398 forward 7 unknown #
point $-1 47.691885128330334 25.335631715715387 -2.0398868905399201 #
point $-1 47.691885128330334 -25.335631715715387 -2.0398868905399201 #
loop $-1 $-1 $200 $192 #
plane-surface $-1 0 -25.335631715715387 0 0 1 0 0 0 1 forward_v I I I I #
coedge $-1 $308 $195 $197 $312 reversed $111 $-1 #
coedge $-1 $195 $307 $399 $400 reversed $111 $-1 #
coedge $-1 $203 $198 $195 $310 forward $193 $-1 #
edge $-1 $313 -21.821328352275998 $401 -16.694240869526759 $309 $402 forward 7 unknown #
coedge $-1 $197 $196 $316 $403 reversed $69 $-1 #
edge $-1 $404 -1.8033521786330445e-014 $313 6.5063674556843907 $307 $405 forward 7 unknown #
vertex $-1 $199 $406 #
straight-curve $-1 12.696671731157199 -20.208544232966148 6.1469081263699987 -1 0 0 I I #
coedge $-1 $399 $200 $203 $320 reversed $305 $-1 #
coedge $-1 $200 $399 $311 $403 forward $305 $-1 #
vertex $-1 $201 $407 #
straight-curve $-1 31.16949650930971 -25.335631715715387 38.652312197899271 0 0 1 I I #
straight-curve $-1 31.16949650930971 -25.335631715715373 2.1411882893587801 0 -0.78801074757464917 -0.61566148304635926 I I #
edge $-1 $401 19.617190415319087 $204 31.16949650930971 $315 $408 forward 7 unknown #
point $-1 31.16949650930971 -25.335631715715387 6.1469081263699996 #
point $-1 31.16949650930971 -20.208544232966148 6.1469081263699996 #
edge $-1 $409 1 $409 0 $207 $-1 forward 7 unknown #
vertex $-1 $208 $410 #
ellipse-curve $-1 25.393343462314398 -21.826170993766237 2.9333297082795005 0 -0.61566148304635926 0.78801074757464917 1 0 0 1 I I #
point $-1 26.393343462314398 -22.772087974340774 4.1440482078643921 #
plane-surface $-1 0 0 6.1469081263699996 0 0 1 1 0 0 forward_v I I I I #
coedge $-1 $338 $337 $330 $411 forward $212 $-1 #
coedge $-1 $330 $214 $216 $334 reversed $126 $-1 #
coedge $-1 $214 $329 $328 $411 reversed $126 $-1 #
coedge $-1 $222 $217 $214 $332 forward $223 $-1 #
edge $-1 $335 -19.732566476109252 $412 -16.761489467379015 $331 $413 forward 7 unknown #
coedge $-1 $216 $215 $338 $414 reversed $78 $-1 #
edge $-1 $415 -50.671263431430795 $335 -44.542925690274551 $329 $416 forward 7 unknown #
vertex $-1 $218 $417 #
straight-curve $-1 -9.8965576643442255 22.364554706985146 6.1469081263700005 1 0 0 I I #
coedge $-1 $328 $219 $222 $342 reversed $212 $-1 #
coedge $-1 $219 $328 $333 $414 forward $212 $-1 #
vertex $-1 $220 $418 #
straight-curve $-1 -29.925391894055956 25.335631715715387 45.673998606036989 0 0 1 I I #
straight-curve $-1 -29.925391894055956 0.76971643115189181 45.105029088371332 0 0.48480960649040278 -0.87461971476443456 I I #
edge $-1 $412 9.660838763320946 $224 29.925391894055956 $337 $419 forward 7 unknown #
point $-1 -29.925391894055956 25.335631715715387 6.1469081263699996 #
point $-1 -29.925391894055956 22.36455470698515 6.1469081263700005 #
edge $-1 $420 1 $420 0 $227 $-1 forward 7 unknown #
vertex $-1 $228 $421 #
ellipse-curve $-1 -19.793115328688451 20.674401797302636 1.7066111926610661 0 0.87461971476443456 0.48480960649040278 1 0 0 1 I I #
point $-1 -18.793115328688451 23.850093211350263 3.4669256227949101 #
plane-surface $-1 47.691885128330334 0 0 -1 0 0 0 0 1 forward_v I I I I #
coedge $-1 $236 $234 $238 $354 reversed $141 $-1 #
edge $-1 $249 -6.1469081263699996 $356 6.1469081263699996 $248 $422 forward 7 unknown #
vertex $-1 $354 $423 #
straight-curve $-1 -47.691885128330334 -25.335631715715387 0 0 0 -1 I I #
edge $-1 $352 -25.335631715715387 $356 25.335631715715387 $350 $424 forward 7 unknown #
straight-curve $-1 0 -25.335631715715387 -6.1469081263699996 -1 0 0 I I #
vertex $-1 $241 $425 #
straight-curve $-1 0 25.335631715715387 -6.1469081263699996 1 0 0 I I #
point $-1 47.691885128330334 25.335631715715387 -6.1469081263699996 #
point $-1 47.691885128330334 -25.335631715715387 -6.1469081263699996 #
straight-curve $-1 -47.691885128330334 0 6.1469081263699996 0 -1 0 I I #
point $-1 -47.691885128330334 25.335631715715387 6.1469081263699996 #
point $-1 -47.691885128330334 -25.335631715715387 6.1469081263699996 #
straight-curve $-1 47.691885128330334 -25.335631715715387 0 0 0 -1 I I #
straight-curve $-1 47.691885128330334 25.335631715715387 0 0 0 -1 I I #
plane-surface $-1 0 -25.335631715715387 0 0 1 0 0 0 1 forward_v I I I I #
coedge $-1 $426 $379 $262 $368 forward $259 $-1 #
coedge $-1 $369 $261 $270 $377 forward $160 $-1 #
edge $-1 $372 -1.6205723817033144 $370 1.6205723817033144 $262 $427 forward 7 unknown #
coedge $-1 $263 $367 $426 $428 forward $160 $-1 #
vertex $-1 $264 $429 #
straight-curve $-1 -50.254800830789115 25.335631715715387 0.3922221413088085 1 0 0 I I #
vertex $-1 $265 $430 #
straight-curve $-1 -50.254800830789115 25.335631715715387 3.6333669047154373 -1 0 0 I I #
point $-1 -47.691885128330334 25.335631715715387 0.3922221413088085 #
straight-curve $-1 -47.691885128330334 0 0.3922221413088085 0 1 0 I I #
coedge $-1 $270 $269 $431 $432 forward $271 $-1 #
edge $-1 $272 -2.5629157024587812 $433 2.5629157024587812 $270 $434 forward 7 unknown #
point $-1 -47.691885128330334 -25.335631715715387 0.3922221413088085 #
coedge $-1 $366 $431 $274 $380 reversed $259 $-1 #
edge $-1 $372 -25.335631715715387 $381 25.335631715715387 $379 $435 forward 7 unknown #
vertex $-1 $380 $436 #
straight-curve $-1 -50.254800830789115 -25.335631715715387 3.6333669047154373 1 0 0 I I #
plane-surface $-1 47.691885128330334 0 0 -1 0 0 0 0 1 forward_v I I I I #
coedge $-1 $282 $281 $297 $395 reversed $103 $-1 #
edge $-1 $388 -25.335631715715387 $386 25.335631715715387 $281 $437 forward 7 unknown #
vertex $-1 $289 $438 #
straight-curve $-1 43.52906620330284 25.335631715715387 -1.7699434452699601 0 0 1 I I #
vertex $-1 $287 $439 #
straight-curve $-1 22.805237832908293 -25.335631715715387 -5.0398868905399201 1 0 0 I I #
straight-curve $-1 22.805237832908293 25.335631715715387 -5.0398868905399201 -1 0 0 I I #
point $-1 47.691885128330334 -25.335631715715387 -5.0398868905399201 #
point $-1 47.691885128330334 25.335631715715387 -5.0398868905399201 #
straight-curve $-1 43.52906620330284 0 -2.0398868905399201 0 -1 0 I I #
point $-1 43.52906620330284 25.335631715715387 -2.0398868905399201 #
edge $-1 $299 0.26994344526996006 $388 3.2699434452699601 $297 $440 forward 7 unknown #
point $-1 43.52906620330284 -25.335631715715387 -2.0398868905399201 #
straight-curve $-1 47.691885128330334 -25.335631715715387 0 0 0 -1 I I #
straight-curve $-1 47.691885128330334 25.335631715715387 0 0 0 -1 I I #
coedge $-1 $316 $315 $308 $400 forward $305 $-1 #
edge $-1 $401 32.50540407152927 $404 36.511123908540505 $399 $441 forward 7 unknown #
vertex $-1 $320 $442 #
straight-curve $-1 19.617190415319087 -42.029872585242146 6.1469081263700005 0 -1 0 I I #
edge $-1 $404 6.9205186841618875 $317 18.472824778152511 $316 $443 forward 7 unknown #
vertex $-1 $403 $444 #
straight-curve $-1 19.617190415319087 -25.335631715715373 2.1411882893587801 0 0.78801074757464917 0.61566148304635926 I I #
point $-1 19.617190415319087 -20.208544232966148 6.1469081263699996 #
point $-1 31.16949650930971 -25.335631715715387 2.141188289358769 #
straight-curve $-1 0 -25.335631715715387 6.1469081263699996 1 0 0 I I #
vertex $-1 $323 $445 #
point $-1 26.393343462314398 -21.826170993766237 2.9333297082795005 #
edge $-1 $412 39.527090479666988 $415 44.887055486817175 $328 $446 forward 7 unknown #
vertex $-1 $342 $447 #
straight-curve $-1 -9.660838763320946 42.097121183094401 6.1469081263700005 0 1 0 I I #
edge $-1 $415 -0.23571890102327941 $339 20.02883422971173 $338 $448 forward 7 unknown #
vertex $-1 $414 $449 #
straight-curve $-1 -9.660838763320946 0.76971643115189181 45.105029088371332 0 -0.48480960649040278 0.87461971476443456 I I #
point $-1 -9.660838763320946 22.36455470698515 6.1469081263700005 #
point $-1 -29.925391894055956 25.335631715715387 0.78694311921981352 #
straight-curve $-1 0 25.335631715715387 6.1469081263699996 -1 0 0 I I #
vertex $-1 $345 $450 #
point $-1 -18.793115328688451 20.674401797302636 1.7066111926610661 #
straight-curve $-1 -47.691885128330334 25.335631715715387 0 0 0 -1 I I #
point $-1 -47.691885128330334 -25.335631715715387 -6.1469081263699996 #
straight-curve $-1 -47.691885128330334 0 -6.1469081263699996 0 1 0 I I #
point $-1 -47.691885128330334 25.335631715715387 -6.1469081263699996 #
coedge $-1 $431 $366 $369 $428 reversed $259 $-1 #
straight-curve $-1 -52.817716533247896 25.335631715715387 2.0127945230121229 0 0 -1 I I #
edge $-1 $433 -25.335631715715387 $370 25.335631715715387 $426 $451 forward 7 unknown #
point $-1 -52.817716533247896 25.335631715715387 0.3922221413088085 #
point $-1 -52.817716533247896 25.335631715715387 3.6333669047154373 #
coedge $-1 $379 $426 $376 $432 reversed $259 $-1 #
edge $-1 $381 -1.6205723817033144 $433 1.6205723817033144 $431 $452 forward 7 unknown #
vertex $-1 $428 $453 #
straight-curve $-1 -50.254800830789115 -25.335631715715387 0.3922221413088085 -1 0 0 I I #
straight-curve $-1 -52.817716533247896 0 3.6333669047154373 0 -1 0 I I #
point $-1 -52.817716533247896 -25.335631715715387 3.6333669047154373 #
straight-curve $-1 43.52906620330284 0 -5.0398868905399201 0 1 0 I I #
point $-1 43.52906620330284 25.335631715715387 -5.0398868905399201 #
point $-1 43.52906620330284 -25.335631715715387 -5.0398868905399201 #
straight-curve $-1 43.52906620330284 -25.335631715715387 -1.7699434452699601 0 0 -1 I I #
straight-curve $-1 19.617190415319087 -25.335631715715387 38.652312197899271 0 0 -1 I I #
point $-1 19.617190415319087 -25.335631715715387 6.1469081263699996 #
straight-curve $-1 12.696671731157199 -25.335631715715387 2.1411882893587704 1 0 0 I I #
point $-1 19.617190415319087 -25.335631715715387 2.141188289358769 #
point $-1 25.393343462314398 -21.210509510719877 2.1453189607048513 #
straight-curve $-1 -9.660838763320946 25.335631715715387 45.673998606036989 0 0 -1 I I #
point $-1 -9.660838763320946 25.335631715715387 6.1469081263699996 #
straight-curve $-1 -9.8965576643442255 25.335631715715387 0.78694311921982063 -1 0 0 I I #
point $-1 -9.660838763320946 25.335631715715387 0.78694311921981352 #
point $-1 -19.793115328688451 19.799782082538201 1.2218015861706635 #
straight-curve $-1 -52.817716533247896 0 0.3922221413088085 0 1 0 I I #
straight-curve $-1 -52.817716533247896 -25.335631715715387 2.0127945230121229 0 0 -1 I I #
point $-1 -52.817716533247896 -25.335631715715387 0.3922221413088085 #
End-of-ACIS-data 