500 0 5 0           
7 Unknown 11 ACIS 5.0 NT 24 Fri Mar 26 17:38:02 1999 
-1 9.9999999999999995e-007 1e-010 
body $-1 $5 $-1 $6 #
body $-1 $7 $-1 $8 #
body $-1 $9 $-1 $10 #
body $-1 $11 $-1 $12 #
body $-1 $13 $-1 $14 #
lump $-1 $-1 $15 $0 #
transform $-1 1 0 0 0 1 0 0 0 1 72.566911832026122 49.247480345540161 23.953269852565438 1 rotate no_reflect no_shear #
lump $-1 $-1 $16 $1 #
transform $-1 1 0 0 0 1 0 0 0 1 72.566911832026122 49.247480345540161 23.953269852565438 1 rotate no_reflect no_shear #
lump $-1 $-1 $17 $2 #
transform $-1 1 0 0 0 1 0 0 0 1 72.566911832026122 49.247480345540161 23.953269852565438 1 rotate no_reflect no_shear #
lump $-1 $-1 $18 $3 #
transform $-1 1 0 0 0 1 0 0 0 1 72.566911832026122 49.247480345540161 23.953269852565438 1 rotate no_reflect no_shear #
lump $-1 $-1 $19 $4 #
transform $-1 1 0 0 0 1 0 0 0 1 72.566911832026122 49.247480345540161 23.953269852565438 1 rotate no_reflect no_shear #
shell $-1 $-1 $-1 $20 $-1 $5 #
shell $-1 $-1 $-1 $21 $-1 $7 #
shell $-1 $-1 $-1 $22 $-1 $9 #
shell $-1 $-1 $-1 $23 $-1 $11 #
shell $-1 $-1 $-1 $24 $-1 $13 #
face $-1 $25 $26 $15 $-1 $27 forward single #
face $-1 $28 $29 $16 $-1 $30 forward single #
face $-1 $31 $32 $17 $-1 $33 reversed single #
face $-1 $34 $35 $18 $-1 $36 forward single #
face $-1 $37 $38 $19 $-1 $39 forward single #
face $-1 $40 $41 $15 $-1 $42 reversed single #
loop $-1 $-1 $43 $20 #
plane-surface $-1 0 0 23.953269852565438 0 0 1 1 0 0 forward_v I I I I #
face $-1 $44 $45 $16 $-1 $46 forward single #
loop $-1 $-1 $47 $21 #
plane-surface $-1 0 -49.247480345540161 0 0 1 0 0 0 1 forward_v I I I I #
face $-1 $48 $49 $17 $-1 $50 reversed single #
loop $-1 $-1 $51 $22 #
plane-surface $-1 115.24083543457344 -2.0677734676164654 211.75609392115427 0 -1 0 -0.83867057594974714 0 -0.54463902268945019 forward_v I I I I #
face $-1 $52 $53 $18 $-1 $54 forward single #
loop $-1 $55 $56 $23 #
cone-surface $-1 67.597626604074577 -10.310377692430635 16.978357637191731 -0.83867057594974714 0 -0.54463902268945019 0.54463902268945019 0 -0.83867057594974714 1 I I 0 1 1 forward I I I I #
face $-1 $57 $58 $19 $-1 $59 forward single #
loop $-1 $60 $61 $24 #
cone-surface $-1 67.597626604074577 -5.3648151575421323 16.978357637191731 -0.83867057594974714 0 -0.54463902268945019 0.54463902268945019 0 -0.83867057594974714 1 I I 0 1 1 forward I I I I #
face $-1 $62 $63 $15 $-1 $64 reversed single #
loop $-1 $-1 $65 $25 #
plane-surface $-1 0 0 -23.953269852565438 0 0 1 1 0 0 forward_v I I I I #
coedge $-1 $66 $67 $68 $69 forward $26 $-1 #
face $-1 $70 $71 $16 $-1 $72 reversed single #
loop $-1 $-1 $73 $28 #
plane-surface $-1 0 0 23.953269852565438 0 0 1 1 0 0 forward_v I I I I #
coedge $-1 $74 $75 $76 $77 forward $29 $-1 #
face $-1 $78 $79 $17 $-1 $80 reversed single #
loop $-1 $-1 $81 $31 #
plane-surface $-1 -6.4786320475462702 -7.8375964249863799 132.71055004158188 0.83867057594974714 0 0.54463902268945019 0.54463902268945019 0 -0.83867057594974714 forward_v I I I I #
coedge $-1 $82 $83 $84 $85 reversed $32 $-1 #
face $-1 $-1 $86 $18 $-1 $87 forward single #
loop $-1 $88 $89 $34 #
cone-surface $-1 66.417877379023409 -10.310377692430635 16.212219557024955 -0.83867057594974714 0 -0.54463902268945019 0.2723195113447251 0 -0.41933528797487357 1 I I -0.70710678118654746 0.70710678118654746 0.5 forward I I I I #
loop $-1 $-1 $90 $23 #
coedge $-1 $56 $56 $91 $92 reversed $35 $-1 #
face $-1 $-1 $93 $19 $-1 $94 forward single #
loop $-1 $95 $96 $37 #
cone-surface $-1 66.417877379023409 -5.3648151575421323 16.212219557024955 -0.83867057594974714 0 -0.54463902268945019 0.2723195113447251 0 -0.41933528797487357 1 I I -0.70710678118654746 0.70710678118654746 0.5 forward I I I I #
loop $-1 $-1 $97 $24 #
coedge $-1 $61 $61 $98 $99 reversed $38 $-1 #
face $-1 $100 $101 $15 $-1 $102 reversed single #
loop $-1 $-1 $103 $40 #
plane-surface $-1 0 -49.247480345540161 0 0 1 0 0 0 1 forward_v I I I I #
coedge $-1 $104 $105 $106 $107 forward $41 $-1 #
coedge $-1 $108 $43 $109 $110 forward $26 $-1 #
coedge $-1 $43 $108 $111 $112 forward $26 $-1 #
coedge $-1 $113 $114 $43 $69 reversed $115 $-1 #
edge $-1 $116 -49.247480345540161 $117 49.247480345540161 $68 $118 forward 7 unknown #
face $-1 $119 $120 $16 $-1 $121 reversed single #
loop $-1 $-1 $122 $44 #
plane-surface $-1 -72.566911832026122 0 0 1 0 0 0 0 -1 forward_v I I I I #
coedge $-1 $123 $124 $125 $126 forward $45 $-1 #
coedge $-1 $125 $47 $122 $127 reversed $29 $-1 #
coedge $-1 $47 $125 $128 $129 reversed $29 $-1 #
coedge $-1 $130 $131 $47 $77 reversed $120 $-1 #
edge $-1 $132 -72.566911832026122 $133 72.566911832026122 $76 $134 forward 7 unknown #
face $-1 $135 $136 $17 $-1 $137 reversed single #
loop $-1 $-1 $138 $48 #
plane-surface $-1 115.24083543457344 -13.607419382356294 211.75609392115427 0 1 0 0.83867057594974714 0 0.54463902268945019 forward_v I I I I #
coedge $-1 $139 $140 $141 $142 reversed $49 $-1 #
coedge $-1 $83 $51 $143 $144 reversed $32 $-1 #
coedge $-1 $51 $82 $139 $145 reversed $32 $-1 #
coedge $-1 $141 $146 $51 $85 forward $147 $-1 #
edge $-1 $148 -14.946494114739401 $149 -6.5287515329889416 $84 $150 forward 7 unknown #
loop $-1 $-1 $91 $52 #
plane-surface $-1 -6.4786320475462702 -7.8375964249863799 132.71055004158188 0.83867057594974714 0 0.54463902268945019 0.54463902268945019 0 -0.83867057594974714 forward_v I I I I #
loop $-1 $-1 $151 $34 #
coedge $-1 $89 $89 $90 $152 reversed $53 $-1 #
coedge $-1 $90 $90 $89 $152 forward $55 $-1 #
coedge $-1 $91 $91 $56 $92 forward $86 $-1 #
edge $-1 $153 0 $153 6.2831853071796004 $91 $154 forward 7 unknown #
loop $-1 $-1 $98 $57 #
plane-surface $-1 -6.4786320475462702 -7.8375964249863799 132.71055004158188 0.83867057594974714 0 0.54463902268945019 0.54463902268945019 0 -0.83867057594974714 forward_v I I I I #
loop $-1 $-1 $155 $37 #
coedge $-1 $96 $96 $97 $156 reversed $58 $-1 #
coedge $-1 $97 $97 $96 $156 forward $60 $-1 #
coedge $-1 $98 $98 $61 $99 forward $93 $-1 #
edge $-1 $157 0 $157 6.2831853071796004 $98 $158 forward 7 unknown #
face $-1 $159 $160 $15 $-1 $161 reversed single #
loop $-1 $-1 $162 $62 #
plane-surface $-1 -72.566911832026122 0 0 1 0 0 0 0 -1 forward_v I I I I #
coedge $-1 $163 $111 $164 $165 forward $63 $-1 #
coedge $-1 $166 $65 $163 $167 forward $41 $-1 #
coedge $-1 $65 $166 $168 $169 forward $41 $-1 #
coedge $-1 $114 $113 $65 $107 reversed $115 $-1 #
edge $-1 $170 -49.247480345540161 $171 49.247480345540161 $106 $172 forward 7 unknown #
coedge $-1 $67 $66 $173 $174 forward $26 $-1 #
coedge $-1 $175 $176 $66 $110 reversed $160 $-1 #
edge $-1 $117 -72.566911832026122 $177 72.566911832026122 $109 $178 forward 7 unknown #
coedge $-1 $103 $179 $67 $112 reversed $63 $-1 #
edge $-1 $180 -72.566911832026122 $116 72.566911832026122 $111 $181 forward 7 unknown #
coedge $-1 $106 $68 $179 $182 forward $115 $-1 #
coedge $-1 $68 $106 $175 $183 reversed $115 $-1 #
loop $-1 $-1 $113 $159 #
vertex $-1 $69 $184 #
vertex $-1 $69 $185 #
straight-curve $-1 72.566911832026122 0 23.953269852565438 0 1 0 I I #
face $-1 $186 $187 $16 $-1 $188 reversed single #
loop $-1 $-1 $130 $70 #
plane-surface $-1 0 -63.618872062966901 14.993473494188002 0 0 1 1 0 0 forward_v I I I I #
coedge $-1 $189 $190 $74 $127 forward $71 $-1 #
coedge $-1 $191 $73 $190 $192 forward $45 $-1 #
coedge $-1 $73 $191 $193 $194 forward $45 $-1 #
coedge $-1 $75 $74 $73 $126 reversed $29 $-1 #
edge $-1 $195 -72.566911832026122 $196 72.566911832026122 $73 $197 forward 7 unknown #
edge $-1 $196 -23.953269852565438 $133 -14.993473494188002 $122 $198 forward 7 unknown #
coedge $-1 $193 $199 $75 $129 forward $200 $-1 #
edge $-1 $132 14.993473494188002 $195 23.953269852565438 $128 $201 forward 7 unknown #
coedge $-1 $202 $76 $199 $203 forward $120 $-1 #
coedge $-1 $76 $202 $189 $204 forward $120 $-1 #
vertex $-1 $129 $205 #
vertex $-1 $127 $206 #
straight-curve $-1 0 -49.247480345540161 14.993473494188002 -1 0 0 I I #
face $-1 $-1 $147 $17 $-1 $207 forward single #
loop $-1 $-1 $208 $78 #
plane-surface $-1 72.566911832026122 0 0 -1 0 0 0 0 1 forward_v I I I I #
coedge $-1 $209 $210 $211 $212 reversed $79 $-1 #
coedge $-1 $213 $81 $83 $145 forward $49 $-1 #
coedge $-1 $81 $213 $209 $214 forward $49 $-1 #
coedge $-1 $211 $84 $81 $142 forward $147 $-1 #
edge $-1 $149 -1.8510247448767245 $215 9.6886211698631044 $141 $216 forward 7 unknown #
coedge $-1 $217 $218 $82 $144 forward $136 $-1 #
edge $-1 $219 -94.886964401114966 $148 -81.924777108011696 $143 $220 forward 7 unknown #
edge $-1 $149 129.67818748840085 $219 145.13382366405222 $83 $221 forward 7 unknown #
coedge $-1 $84 $211 $217 $222 forward $147 $-1 #
loop $-1 $-1 $211 $135 #
vertex $-1 $144 $223 #
vertex $-1 $85 $224 #
straight-curve $-1 57.62041771728672 -2.0677734676164654 23.953269852565441 -1 0 0 I I #
coedge $-1 $151 $151 $-1 $225 reversed $88 $-1 #
edge $-1 $226 0 $226 6.2831853071796004 $89 $227 forward 7 unknown #
vertex $-1 $92 $228 #
ellipse-curve $-1 68.358040541150899 -10.310377692430635 17.472176206013803 0.83867057594974714 0 0.54463902268945019 0.54463902268945019 0 -0.83867057594974714 1 I I #
coedge $-1 $155 $155 $-1 $229 reversed $95 $-1 #
edge $-1 $230 0 $230 6.2831853071796004 $96 $231 forward 7 unknown #
vertex $-1 $99 $232 #
ellipse-curve $-1 68.358040541150899 -5.3648151575421323 17.472176206013803 0.83867057594974714 0 0.54463902268945019 0.54463902268945019 0 -0.83867057594974714 1 I I #
face $-1 $-1 $115 $15 $-1 $233 reversed single #
loop $-1 $-1 $175 $100 #
plane-surface $-1 0 49.247480345540161 0 0 -1 0 0 0 -1 forward_v I I I I #
coedge $-1 $234 $173 $176 $235 forward $101 $-1 #
coedge $-1 $179 $103 $104 $167 reversed $63 $-1 #
coedge $-1 $173 $234 $103 $165 reversed $101 $-1 #
edge $-1 $180 -23.953269852565438 $236 23.953269852565438 $164 $237 forward 7 unknown #
coedge $-1 $105 $104 $234 $238 forward $41 $-1 #
edge $-1 $171 -72.566911832026122 $236 72.566911832026122 $163 $239 forward 7 unknown #
coedge $-1 $176 $175 $105 $169 reversed $160 $-1 #
edge $-1 $240 -72.566911832026122 $170 72.566911832026122 $168 $241 forward 7 unknown #
vertex $-1 $107 $242 #
vertex $-1 $182 $243 #
straight-curve $-1 72.566911832026122 0 -23.953269852565438 0 -1 0 I I #
coedge $-1 $162 $164 $108 $174 reversed $101 $-1 #
edge $-1 $177 -49.247480345540161 $180 49.247480345540161 $173 $244 forward 7 unknown #
coedge $-1 $168 $109 $114 $183 forward $160 $-1 #
coedge $-1 $109 $168 $162 $235 reversed $160 $-1 #
vertex $-1 $110 $245 #
straight-curve $-1 0 49.247480345540161 23.953269852565438 -1 0 0 I I #
coedge $-1 $111 $163 $113 $182 reversed $63 $-1 #
vertex $-1 $174 $246 #
straight-curve $-1 0 -49.247480345540161 23.953269852565438 1 0 0 I I #
edge $-1 $116 -23.953269852565438 $171 23.953269852565438 $113 $247 forward 7 unknown #
edge $-1 $117 -23.953269852565438 $170 23.953269852565438 $114 $248 forward 7 unknown #
point $-1 72.566911832026122 -49.247480345540161 23.953269852565438 #
point $-1 72.566911832026122 49.247480345540161 23.953269852565438 #
face $-1 $-1 $200 $16 $-1 $249 reversed single #
loop $-1 $-1 $250 $119 #
plane-surface $-1 0 -77.990263780393647 19.473371673376722 0 1 0 0 0 1 forward_v I I I I #
coedge $-1 $251 $122 $131 $204 reversed $71 $-1 #
coedge $-1 $122 $251 $123 $192 reversed $71 $-1 #
coedge $-1 $124 $123 $252 $253 forward $45 $-1 #
edge $-1 $196 49.247480345540161 $254 77.990263780393647 $190 $255 forward 7 unknown #
coedge $-1 $256 $128 $124 $194 reversed $200 $-1 #
edge $-1 $257 -77.990263780393647 $195 -49.247480345540161 $193 $258 forward 7 unknown #
vertex $-1 $129 $259 #
vertex $-1 $192 $260 #
straight-curve $-1 0 -49.247480345540161 23.953269852565438 -1 0 0 I I #
straight-curve $-1 -72.566911832026122 -49.247480345540161 0 0 0 -1 I I #
coedge $-1 $128 $256 $130 $203 reversed $200 $-1 #
loop $-1 $-1 $128 $186 #
straight-curve $-1 72.566911832026122 -49.247480345540161 0 0 0 1 I I #
coedge $-1 $131 $130 $261 $262 forward $120 $-1 #
edge $-1 $132 -14.371391717426739 $263 14.371391717426746 $199 $264 forward 7 unknown #
edge $-1 $265 -14.371391717426746 $133 14.371391717426739 $189 $266 forward 7 unknown #
point $-1 72.566911832026122 -49.247480345540161 14.993473494188002 #
point $-1 -72.566911832026122 -49.247480345540161 14.993473494188002 #
plane-surface $-1 0 0 23.953269852565438 0 0 1 1 0 0 forward_v I I I I #
coedge $-1 $218 $217 $210 $267 forward $136 $-1 #
coedge $-1 $210 $138 $140 $214 reversed $79 $-1 #
coedge $-1 $138 $209 $208 $267 reversed $79 $-1 #
coedge $-1 $146 $141 $138 $212 forward $147 $-1 #
edge $-1 $215 6.5287515329889416 $268 14.946494114739401 $211 $269 forward 7 unknown #
coedge $-1 $140 $139 $218 $270 reversed $49 $-1 #
edge $-1 $271 -145.13382366405222 $215 -129.67818748840085 $209 $272 forward 7 unknown #
vertex $-1 $142 $273 #
straight-curve $-1 64.149169250275648 -3.9187982124931899 23.953269852565441 0 -1 0 I I #
coedge $-1 $208 $143 $146 $222 reversed $136 $-1 #
coedge $-1 $143 $208 $213 $270 forward $136 $-1 #
vertex $-1 $144 $274 #
straight-curve $-1 72.566911832026122 -2.0677734676164654 105.87804696057714 0 0 1 I I #
straight-curve $-1 -6.4786320475462702 -2.0677734676164654 132.71055004158188 0.54463902268945019 0 -0.83867057594974714 I I #
edge $-1 $268 -13.607419382356294 $148 -2.0677734676164654 $217 $275 forward 7 unknown #
point $-1 72.566911832026122 -2.0677734676164654 23.953269852565438 #
point $-1 64.149169250275662 -2.0677734676164654 23.953269852565441 #
edge $-1 $276 1 $276 0 $151 $-1 forward 7 unknown #
vertex $-1 $152 $277 #
ellipse-curve $-1 66.837212666998283 -10.310377692430635 16.484539068369681 0.83867057594974714 0 0.54463902268945019 0.54463902268945019 0 -0.83867057594974714 1 I I #
point $-1 68.902679563840323 -10.310377692430635 16.633505630064036 #
edge $-1 $278 1 $278 0 $155 $-1 forward 7 unknown #
vertex $-1 $156 $279 #
ellipse-curve $-1 66.837212666998283 -5.3648151575421323 16.484539068369681 0.83867057594974714 0 0.54463902268945019 0.54463902268945019 0 -0.83867057594974714 1 I I #
point $-1 68.902679563840323 -5.3648151575421323 16.633505630064036 #
plane-surface $-1 72.566911832026122 0 0 -1 0 0 0 0 1 forward_v I I I I #
coedge $-1 $164 $162 $166 $238 reversed $101 $-1 #
edge $-1 $177 -23.953269852565438 $240 23.953269852565438 $176 $280 forward 7 unknown #
vertex $-1 $238 $281 #
straight-curve $-1 -72.566911832026122 -49.247480345540161 0 0 0 -1 I I #
edge $-1 $236 -49.247480345540161 $240 49.247480345540161 $234 $282 forward 7 unknown #
straight-curve $-1 0 -49.247480345540161 -23.953269852565438 -1 0 0 I I #
vertex $-1 $169 $283 #
straight-curve $-1 0 49.247480345540161 -23.953269852565438 1 0 0 I I #
point $-1 72.566911832026122 49.247480345540161 -23.953269852565438 #
point $-1 72.566911832026122 -49.247480345540161 -23.953269852565438 #
straight-curve $-1 -72.566911832026122 0 23.953269852565438 0 -1 0 I I #
point $-1 -72.566911832026122 49.247480345540161 23.953269852565438 #
point $-1 -72.566911832026122 -49.247480345540161 23.953269852565438 #
straight-curve $-1 72.566911832026122 -49.247480345540161 0 0 0 -1 I I #
straight-curve $-1 72.566911832026122 49.247480345540161 0 0 0 -1 I I #
plane-surface $-1 72.566911832026122 0 0 -1 0 0 0 0 1 forward_v I I I I #
coedge $-1 $261 $252 $251 $284 forward $187 $-1 #
coedge $-1 $190 $189 $250 $284 reversed $71 $-1 #
coedge $-1 $250 $285 $191 $253 reversed $187 $-1 #
edge $-1 $254 -72.566911832026122 $257 72.566911832026122 $252 $286 forward 7 unknown #
vertex $-1 $192 $287 #
straight-curve $-1 -72.566911832026122 0 23.953269852565438 0 -1 0 I I #
coedge $-1 $199 $193 $285 $288 forward $200 $-1 #
vertex $-1 $194 $289 #
straight-curve $-1 72.566911832026122 0 23.953269852565438 0 1 0 I I #
point $-1 72.566911832026122 -49.247480345540161 23.953269852565438 #
point $-1 -72.566911832026122 -49.247480345540161 23.953269852565438 #
coedge $-1 $285 $250 $202 $262 reversed $187 $-1 #
edge $-1 $263 -72.566911832026122 $265 72.566911832026122 $261 $290 forward 7 unknown #
vertex $-1 $288 $291 #
straight-curve $-1 72.566911832026122 -63.618872062966901 14.993473494188002 0 -1 0 I I #
vertex $-1 $204 $292 #
straight-curve $-1 -72.566911832026122 -63.618872062966901 14.993473494188002 0 1 0 I I #
edge $-1 $268 81.924777108011696 $271 94.886964401114966 $208 $293 forward 7 unknown #
vertex $-1 $222 $294 #
straight-curve $-1 57.62041771728672 -13.607419382356294 23.953269852565441 1 0 0 I I #
edge $-1 $271 -9.6886211698631044 $219 1.8510247448767245 $218 $295 forward 7 unknown #
vertex $-1 $270 $296 #
straight-curve $-1 -6.4786320475462702 -13.607419382356294 132.71055004158188 -0.54463902268945019 0 0.83867057594974714 I I #
point $-1 64.149169250275662 -13.607419382356294 23.953269852565441 #
point $-1 72.566911832026122 -2.0677734676164654 10.991082559462171 #
straight-curve $-1 72.566911832026122 0 23.953269852565438 0 1 0 I I #
vertex $-1 $225 $297 #
point $-1 67.381851689687736 -10.310377692430635 15.645868492419932 #
vertex $-1 $229 $298 #
point $-1 67.381851689687736 -5.3648151575421323 15.645868492419932 #
straight-curve $-1 -72.566911832026122 49.247480345540161 0 0 0 -1 I I #
point $-1 -72.566911832026122 -49.247480345540161 -23.953269852565438 #
straight-curve $-1 -72.566911832026122 0 -23.953269852565438 0 1 0 I I #
point $-1 -72.566911832026122 49.247480345540161 -23.953269852565438 #
edge $-1 $254 -4.4798981791887194 $265 4.4798981791887194 $251 $299 forward 7 unknown #
coedge $-1 $252 $261 $256 $288 reversed $187 $-1 #
straight-curve $-1 0 -77.990263780393647 23.953269852565441 1 0 0 I I #
point $-1 -72.566911832026122 -77.990263780393647 23.953269852565441 #
edge $-1 $257 -4.4798981791887194 $263 4.4798981791887194 $256 $300 forward 7 unknown #
point $-1 72.566911832026122 -77.990263780393647 23.953269852565441 #
straight-curve $-1 0 -77.990263780393647 14.993473494188002 -1 0 0 I I #
point $-1 72.566911832026122 -77.990263780393647 14.993473494188002 #
point $-1 -72.566911832026122 -77.990263780393647 14.993473494188002 #
straight-curve $-1 72.566911832026122 -13.607419382356294 105.87804696057714 0 0 -1 I I #
point $-1 72.566911832026122 -13.607419382356294 23.953269852565438 #
straight-curve $-1 72.566911832026122 -3.9187982124931899 10.991082559462193 0 1 0 I I #
point $-1 72.566911832026122 -13.607419382356294 10.991082559462171 #
point $-1 65.998542091048535 -10.310377692430635 15.939900045680231 #
point $-1 65.998542091048535 -5.3648151575421323 15.939900045680231 #
straight-curve $-1 -72.566911832026122 -77.990263780393647 19.473371673376722 0 0 -1 I I #
straight-curve $-1 72.566911832026122 -77.990263780393647 19.473371673376722 0 0 -1 I I #
End-of-ACIS-data 