500 0 9 0           
7 Unknown 11 ACIS 5.0 NT 24 Fri Mar 26 15:53:38 1999 
-1 9.9999999999999995e-007 1e-010 
body $-1 $9 $-1 $10 #
body $-1 $11 $-1 $12 #
body $-1 $13 $-1 $14 #
body $-1 $15 $-1 $16 #
body $-1 $17 $-1 $18 #
body $-1 $19 $-1 $20 #
body $-1 $21 $-1 $22 #
body $-1 $23 $-1 $24 #
body $-1 $25 $-1 $26 #
lump $-1 $-1 $27 $0 #
transform $-1 1 0 0 0 1 0 0 0 1 40.472426526688437 24.381033408478299 11.935374141423901 1 rotate no_reflect no_shear #
lump $-1 $-1 $28 $1 #
transform $-1 1 0 0 0 1 0 0 0 1 40.472426526688437 24.381033408478299 11.935374141423901 1 rotate no_reflect no_shear #
lump $-1 $-1 $29 $2 #
transform $-1 1 0 0 0 1 0 0 0 1 40.472426526688437 24.381033408478299 11.935374141423901 1 rotate no_reflect no_shear #
lump $-1 $-1 $30 $3 #
transform $-1 1 0 0 0 1 0 0 0 1 40.472426526688437 24.381033408478299 11.935374141423901 1 rotate no_reflect no_shear #
lump $-1 $-1 $31 $4 #
transform $-1 1 0 0 0 1 0 0 0 1 40.472426526688437 24.381033408478299 11.935374141423901 1 rotate no_reflect no_shear #
lump $-1 $-1 $32 $5 #
transform $-1 1 0 0 0 1 0 0 0 1 40.472426526688437 24.381033408478299 11.935374141423901 1 rotate no_reflect no_shear #
lump $-1 $-1 $33 $6 #
transform $-1 1 0 0 0 1 0 0 0 1 40.472426526688437 24.381033408478299 11.935374141423901 1 rotate no_reflect no_shear #
lump $-1 $-1 $34 $7 #
transform $-1 1 0 0 0 1 0 0 0 1 40.472426526688437 24.381033408478299 11.935374141423901 1 rotate no_reflect no_shear #
lump $-1 $-1 $35 $8 #
transform $-1 1 0 0 0 1 0 0 0 1 40.472426526688437 24.381033408478299 11.935374141423901 1 rotate no_reflect no_shear #
shell $-1 $-1 $-1 $36 $-1 $9 #
shell $-1 $-1 $-1 $37 $-1 $11 #
shell $-1 $-1 $-1 $38 $-1 $13 #
shell $-1 $-1 $-1 $39 $-1 $15 #
shell $-1 $-1 $-1 $40 $-1 $17 #
shell $-1 $-1 $-1 $41 $-1 $19 #
shell $-1 $-1 $-1 $42 $-1 $21 #
shell $-1 $-1 $-1 $43 $-1 $23 #
shell $-1 $-1 $-1 $44 $-1 $25 #
face $-1 $45 $46 $27 $-1 $47 forward single #
face $-1 $48 $49 $28 $-1 $50 reversed single #
face $-1 $51 $52 $29 $-1 $53 reversed single #
face $-1 $54 $55 $30 $-1 $56 forward single #
face $-1 $57 $58 $31 $-1 $59 reversed single #
face $-1 $60 $61 $32 $-1 $62 forward single #
face $-1 $63 $64 $33 $-1 $65 reversed single #
face $-1 $66 $67 $34 $-1 $68 forward single #
face $-1 $69 $70 $35 $-1 $71 forward single #
face $-1 $72 $73 $27 $-1 $74 reversed single #
loop $-1 $-1 $75 $36 #
plane-surface $-1 0 0 11.935374141423901 0 0 1 1 0 0 forward_v I I I I #
face $-1 $76 $77 $28 $-1 $78 reversed single #
loop $-1 $-1 $79 $37 #
plane-surface $-1 -36.004261296333112 -13.971134326468839 0 0 1 0 0 0 1 forward_v I I I I #
face $-1 $80 $81 $29 $-1 $82 reversed single #
loop $-1 $-1 $83 $38 #
plane-surface $-1 -2.8536645114005736 35.79062895857497 98.708838672555103 1 0 0 0 -0.61566148304635926 -0.78801074757464917 forward_v I I I I #
face $-1 $84 $85 $30 $-1 $86 forward single #
loop $-1 $87 $88 $39 #
cone-surface $-1 0.80725035947737922 19.540068946335985 7.9835906810299315 0 -0.61566148304635926 -0.78801074757464917 1 0 0 1 I I 0 1 1 forward I I I I #
face $-1 $89 $90 $31 $-1 $91 reversed single #
loop $-1 $-1 $92 $40 #
plane-surface $-1 0.80725035947737922 -14.043999317236661 34.923424505643467 0 0.61566148304635926 0.78801074757464917 1 0 0 forward_v I I I I #
face $-1 $93 $94 $32 $-1 $95 forward single #
loop $-1 $96 $97 $41 #
cone-surface $-1 8.1290801012332849 19.540068946335985 7.9835906810299315 0 -0.61566148304635926 -0.78801074757464917 1 0 0 1 I I 0 1 1 forward I I I I #
face $-1 $98 $99 $33 $-1 $100 reversed single #
loop $-1 $-1 $101 $42 #
plane-surface $-1 -6.8813138508606073 -88.166448731807606 49.985426743789361 -1 0 0 0 -0.78801076186113728 0.61566146476048833 forward_v I I I I #
face $-1 $102 $103 $34 $-1 $104 forward single #
loop $-1 $105 $106 $43 #
cone-surface $-1 -19.182967315506353 -19.239969069647486 5.6231419302344694 0 0.78801076186113728 -0.61566146476048833 1 0 0 1 I I 0 1 1 forward I I I I #
face $-1 $107 $108 $35 $-1 $109 forward single #
loop $-1 $110 $111 $44 #
cone-surface $-1 -11.801975236718906 -19.239969069647486 5.6231419302344694 0 0.78801076186113728 -0.61566146476048833 1 0 0 1 I I 0 1 1 forward I I I I #
face $-1 $112 $113 $27 $-1 $114 reversed single #
loop $-1 $-1 $115 $45 #
plane-surface $-1 0 0 -11.935374141423901 0 0 1 1 0 0 forward_v I I I I #
coedge $-1 $116 $117 $118 $119 forward $46 $-1 #
face $-1 $120 $121 $28 $-1 $122 reversed single #
loop $-1 $-1 $123 $48 #
plane-surface $-1 -36.004261296333112 -7.0326850369297489 0 0 -1 0 0 0 -1 forward_v I I I I #
coedge $-1 $124 $125 $126 $127 reversed $49 $-1 #
face $-1 $128 $129 $29 $-1 $130 reversed single #
loop $-1 $-1 $131 $51 #
plane-surface $-1 0.80725035947737922 -14.043999317236661 34.923424505643467 0 0.61566148304635926 0.78801074757464917 1 0 0 forward_v I I I I #
coedge $-1 $132 $133 $134 $135 reversed $52 $-1 #
face $-1 $-1 $136 $30 $-1 $137 forward single #
loop $-1 $138 $139 $54 #
cone-surface $-1 0.80725035947737922 18.892109050576938 7.1542398512054337 0 -0.61566148304635926 -0.78801074757464917 0.5 0 0 1 I I -0.70710678118654746 0.70710678118654746 0.5 forward I I I I #
loop $-1 $-1 $140 $39 #
coedge $-1 $88 $88 $141 $142 reversed $55 $-1 #
face $-1 $143 $144 $31 $-1 $145 reversed single #
loop $-1 $-1 $146 $57 #
plane-surface $-1 11.789994972111238 35.79062895857497 98.708838672555103 -1 0 0 0 0.61566148304635926 0.78801074757464917 forward_v I I I I #
coedge $-1 $147 $148 $149 $150 reversed $58 $-1 #
face $-1 $-1 $151 $32 $-1 $152 forward single #
loop $-1 $153 $154 $60 #
cone-surface $-1 8.1290801012332849 18.892109050576938 7.1542398512054337 0 -0.61566148304635926 -0.78801074757464917 0.5 0 0 1 I I -0.70710678118654746 0.70710678118654746 0.5 forward I I I I #
loop $-1 $-1 $155 $41 #
coedge $-1 $97 $97 $156 $157 reversed $61 $-1 #
face $-1 $158 $159 $33 $-1 $160 reversed single #
loop $-1 $-1 $161 $63 #
plane-surface $-1 -15.492471276112628 -24.381033408478288 0.1507999481248703 0 -0.78801076186113728 0.61566146476048833 1 0 0 forward_v I I I I #
coedge $-1 $162 $163 $164 $165 reversed $64 $-1 #
face $-1 $-1 $166 $34 $-1 $167 forward single #
loop $-1 $168 $169 $66 #
cone-surface $-1 -19.182967315506353 -18.30845843852687 4.8953660833143129 0 0.78801076186113728 -0.61566146476048833 0.5 0 0 1 I I -0.70710678118654746 0.70710678118654746 0.5 forward I I I I #
loop $-1 $-1 $170 $43 #
coedge $-1 $106 $106 $171 $172 reversed $67 $-1 #
face $-1 $-1 $173 $35 $-1 $174 forward single #
loop $-1 $175 $176 $69 #
cone-surface $-1 -11.801975236718906 -18.30845843852687 4.8953660833143129 0 0.78801076186113728 -0.61566146476048833 0.5 0 0 1 I I -0.70710678118654746 0.70710678118654746 0.5 forward I I I I #
loop $-1 $-1 $177 $44 #
coedge $-1 $111 $111 $178 $179 reversed $70 $-1 #
face $-1 $180 $181 $27 $-1 $182 reversed single #
loop $-1 $-1 $183 $72 #
plane-surface $-1 0 -24.381033408478299 0 0 1 0 0 0 1 forward_v I I I I #
coedge $-1 $184 $185 $186 $187 forward $73 $-1 #
coedge $-1 $188 $75 $189 $190 forward $46 $-1 #
coedge $-1 $75 $188 $191 $192 forward $46 $-1 #
coedge $-1 $193 $194 $75 $119 reversed $195 $-1 #
edge $-1 $196 -24.381033408478299 $197 24.381033408478299 $118 $198 forward 7 unknown #
face $-1 $199 $200 $28 $-1 $201 reversed single #
loop $-1 $-1 $202 $76 #
plane-surface $-1 -31.536096065977784 -10.501909681699294 0 -1 0 0 0 0 1 forward_v I I I I #
coedge $-1 $203 $204 $205 $206 forward $77 $-1 #
coedge $-1 $207 $79 $208 $209 reversed $49 $-1 #
coedge $-1 $79 $207 $210 $211 reversed $49 $-1 #
coedge $-1 $212 $213 $79 $127 forward $214 $-1 #
edge $-1 $215 -11.935374141423901 $216 11.935374141423901 $126 $217 forward 7 unknown #
face $-1 $218 $219 $29 $-1 $220 reversed single #
loop $-1 $-1 $221 $80 #
plane-surface $-1 4.4681652303553321 35.79062895857497 98.708838672555103 -1 0 0 0 0.61566148304635926 0.78801074757464917 forward_v I I I I #
coedge $-1 $222 $223 $224 $225 reversed $81 $-1 #
coedge $-1 $133 $83 $226 $227 reversed $52 $-1 #
coedge $-1 $83 $132 $222 $228 reversed $52 $-1 #
coedge $-1 $224 $229 $83 $135 forward $230 $-1 #
edge $-1 $231 -6.4857189291908135 $232 2.5159516866221026 $134 $233 forward 7 unknown #
loop $-1 $-1 $141 $84 #
plane-surface $-1 0.80725035947737922 -14.043999317236661 34.923424505643467 0 0.61566148304635926 0.78801074757464917 1 0 0 forward_v I I I I #
loop $-1 $-1 $234 $54 #
coedge $-1 $139 $139 $140 $235 reversed $85 $-1 #
coedge $-1 $140 $140 $139 $235 forward $87 $-1 #
coedge $-1 $141 $141 $88 $142 forward $136 $-1 #
edge $-1 $236 -1.5749613827085417e-015 $236 6.2831853071795987 $141 $237 forward 7 unknown #
face $-1 $238 $239 $31 $-1 $240 forward single #
loop $-1 $-1 $241 $89 #
plane-surface $-1 0 24.381033408478299 0 0 -1 0 0 0 -1 forward_v I I I I #
coedge $-1 $242 $243 $244 $245 reversed $90 $-1 #
coedge $-1 $246 $92 $247 $248 reversed $58 $-1 #
coedge $-1 $92 $246 $249 $250 reversed $58 $-1 #
coedge $-1 $251 $252 $92 $150 forward $239 $-1 #
edge $-1 $253 -48.76206681695659 $254 -37.338782751963336 $149 $255 forward 7 unknown #
loop $-1 $-1 $156 $93 #
plane-surface $-1 0.80725035947737922 -14.043999317236661 34.923424505643467 0 0.61566148304635926 0.78801074757464917 1 0 0 forward_v I I I I #
loop $-1 $-1 $256 $60 #
coedge $-1 $154 $154 $155 $257 reversed $94 $-1 #
coedge $-1 $155 $155 $154 $257 forward $96 $-1 #
coedge $-1 $156 $156 $97 $157 forward $151 $-1 #
edge $-1 $258 -1.5749613827085417e-015 $258 6.2831853071795987 $156 $259 forward 7 unknown #
face $-1 $260 $261 $33 $-1 $262 forward single #
loop $-1 $-1 $263 $98 #
plane-surface $-1 -24.103628701364649 -88.166448731807606 49.985426743789361 1 0 0 0 0.78801076186113728 -0.61566146476048833 forward_v I I I I #
coedge $-1 $264 $265 $266 $267 reversed $99 $-1 #
coedge $-1 $163 $101 $268 $269 reversed $64 $-1 #
coedge $-1 $101 $162 $264 $270 reversed $64 $-1 #
coedge $-1 $266 $271 $101 $165 forward $261 $-1 #
edge $-1 $272 19.702190957425504 $273 28.90930913470703 $164 $274 forward 7 unknown #
loop $-1 $-1 $171 $102 #
plane-surface $-1 -15.492471276112628 -24.381033408478288 0.1507999481248703 0 -0.78801076186113728 0.61566146476048833 1 0 0 forward_v I I I I #
loop $-1 $-1 $275 $66 #
coedge $-1 $169 $169 $170 $276 reversed $103 $-1 #
coedge $-1 $170 $170 $169 $276 forward $105 $-1 #
coedge $-1 $171 $171 $106 $172 forward $166 $-1 #
edge $-1 $277 -1.4873747541884231e-015 $277 6.2831853071795987 $171 $278 forward 7 unknown #
loop $-1 $-1 $178 $107 #
plane-surface $-1 -15.492471276112628 -24.381033408478288 0.1507999481248703 0 -0.78801076186113728 0.61566146476048833 1 0 0 forward_v I I I I #
loop $-1 $-1 $279 $69 #
coedge $-1 $176 $176 $177 $280 reversed $108 $-1 #
coedge $-1 $177 $177 $176 $280 forward $110 $-1 #
coedge $-1 $178 $178 $111 $179 forward $173 $-1 #
edge $-1 $281 -1.4873747541884231e-015 $281 6.2831853071795987 $178 $282 forward 7 unknown #
face $-1 $283 $284 $27 $-1 $285 reversed single #
loop $-1 $-1 $286 $112 #
plane-surface $-1 -40.472426526688437 0 0 1 0 0 0 0 -1 forward_v I I I I #
coedge $-1 $287 $191 $288 $289 forward $113 $-1 #
coedge $-1 $290 $115 $287 $291 forward $73 $-1 #
coedge $-1 $115 $290 $292 $293 forward $73 $-1 #
coedge $-1 $194 $193 $115 $187 reversed $195 $-1 #
edge $-1 $294 -24.381033408478299 $295 24.381033408478299 $186 $296 forward 7 unknown #
coedge $-1 $117 $116 $297 $298 forward $46 $-1 #
coedge $-1 $299 $300 $116 $190 reversed $284 $-1 #
edge $-1 $197 -40.472426526688437 $301 40.472426526688437 $189 $302 forward 7 unknown #
coedge $-1 $183 $303 $117 $192 reversed $113 $-1 #
edge $-1 $304 -40.472426526688437 $196 40.472426526688437 $191 $305 forward 7 unknown #
coedge $-1 $186 $118 $303 $306 forward $195 $-1 #
coedge $-1 $118 $186 $299 $307 reversed $195 $-1 #
loop $-1 $-1 $193 $283 #
vertex $-1 $119 $308 #
vertex $-1 $119 $309 #
straight-curve $-1 40.472426526688437 0 11.935374141423901 0 1 0 I I #
face $-1 $310 $311 $28 $-1 $312 forward single #
loop $-1 $-1 $313 $120 #
plane-surface $-1 0 0 -11.935374141423901 0 0 1 1 0 0 forward_v I I I I #
coedge $-1 $314 $315 $207 $316 forward $121 $-1 #
coedge $-1 $317 $123 $313 $318 reversed $77 $-1 #
coedge $-1 $123 $317 $319 $320 reversed $77 $-1 #
coedge $-1 $315 $314 $123 $206 reversed $121 $-1 #
edge $-1 $321 -11.935374141423901 $322 11.935374141423901 $205 $323 forward 7 unknown #
coedge $-1 $125 $124 $202 $316 reversed $49 $-1 #
coedge $-1 $324 $325 $124 $209 forward $200 $-1 #
edge $-1 $326 13.533965417811228 $215 22.470295878521881 $208 $327 forward 7 unknown #
coedge $-1 $328 $329 $125 $211 forward $311 $-1 #
edge $-1 $216 -22.470295878521881 $330 -13.533965417811228 $210 $331 forward 7 unknown #
coedge $-1 $332 $126 $329 $333 reversed $214 $-1 #
coedge $-1 $126 $332 $324 $334 reversed $214 $-1 #
loop $-1 $-1 $332 $310 #
vertex $-1 $334 $335 #
vertex $-1 $127 $336 #
straight-curve $-1 -40.472426526688437 -13.971134326468839 0 0 0 1 I I #
face $-1 $-1 $230 $29 $-1 $337 forward single #
loop $-1 $-1 $338 $128 #
plane-surface $-1 0 24.381033408478299 0 0 -1 0 0 0 -1 forward_v I I I I #
coedge $-1 $339 $340 $341 $342 reversed $129 $-1 #
coedge $-1 $343 $131 $133 $228 forward $81 $-1 #
coedge $-1 $131 $343 $339 $344 forward $81 $-1 #
coedge $-1 $341 $134 $131 $225 forward $230 $-1 #
edge $-1 $232 -3.2572896911392633 $345 4.0645400506166425 $224 $346 forward 7 unknown #
coedge $-1 $347 $348 $132 $227 forward $219 $-1 #
edge $-1 $349 -44.451921203567238 $231 -37.419045194853652 $226 $350 forward 7 unknown #
edge $-1 $232 37.338782751963336 $349 48.76206681695659 $133 $351 forward 7 unknown #
coedge $-1 $134 $341 $347 $352 forward $230 $-1 #
loop $-1 $-1 $341 $218 #
vertex $-1 $227 $353 #
vertex $-1 $135 $354 #
straight-curve $-1 -2.8536645114005736 17.895314479287485 11.9353741414239 0 -1 0 I I #
coedge $-1 $234 $234 $-1 $355 reversed $138 $-1 #
edge $-1 $356 0 $356 6.2831853071796004 $139 $357 forward 7 unknown #
vertex $-1 $142 $358 #
ellipse-curve $-1 0.80725035947737922 19.88019810057185 8.4189361370670994 0 0.61566148304635926 0.78801074757464917 1 0 0 1 I I #
face $-1 $-1 $359 $31 $-1 $360 forward single #
loop $-1 $-1 $251 $143 #
plane-surface $-1 4.4681652303553321 35.79062895857497 98.708838672555103 -1 0 0 0 0.61566148304635926 0.78801074757464917 forward_v I I I I #
coedge $-1 $247 $361 $243 $362 forward $144 $-1 #
coedge $-1 $243 $146 $246 $363 reversed $90 $-1 #
coedge $-1 $146 $242 $241 $362 reversed $90 $-1 #
coedge $-1 $364 $249 $146 $245 forward $359 $-1 #
edge $-1 $365 -2.5159516866221026 $366 6.4857189291908135 $244 $367 forward 7 unknown #
coedge $-1 $148 $147 $242 $363 forward $58 $-1 #
coedge $-1 $368 $241 $147 $248 forward $144 $-1 #
edge $-1 $369 -11.386369792372548 $253 -4.0645400506166425 $247 $370 forward 7 unknown #
coedge $-1 $244 $371 $148 $250 forward $359 $-1 #
edge $-1 $254 4.0645400506166425 $365 11.386369792372548 $249 $372 forward 7 unknown #
coedge $-1 $252 $149 $371 $373 reversed $239 $-1 #
coedge $-1 $149 $251 $368 $374 reversed $239 $-1 #
vertex $-1 $248 $375 #
vertex $-1 $250 $376 #
straight-curve $-1 4.4681652303553321 -14.043999317236661 34.923424505643467 0 -0.78801074757464917 0.61566148304635926 I I #
coedge $-1 $256 $256 $-1 $377 reversed $153 $-1 #
edge $-1 $378 0 $378 6.2831853071796004 $154 $379 forward 7 unknown #
vertex $-1 $157 $380 #
ellipse-curve $-1 8.1290801012332849 19.88019810057185 8.4189361370670994 0 0.61566148304635926 0.78801074757464917 1 0 0 1 I I #
face $-1 $-1 $381 $33 $-1 $382 reversed single #
loop $-1 $-1 $164 $158 #
plane-surface $-1 0 0 11.935374141423901 0 0 1 1 0 0 forward_v I I I I #
coedge $-1 $383 $384 $385 $386 reversed $159 $-1 #
coedge $-1 $387 $161 $163 $270 forward $99 $-1 #
coedge $-1 $161 $387 $383 $388 forward $99 $-1 #
coedge $-1 $385 $164 $161 $267 forward $261 $-1 #
edge $-1 $273 -0.86492178719570667 $389 16.357393063308336 $266 $390 forward 7 unknown #
coedge $-1 $391 $392 $162 $269 forward $381 $-1 #
edge $-1 $393 -24.841913423769824 $272 -13.057339230470779 $268 $394 forward 7 unknown #
edge $-1 $273 -14.954839151518721 $393 1.7300807634896994e-014 $163 $395 forward 7 unknown #
coedge $-1 $164 $385 $391 $396 forward $261 $-1 #
vertex $-1 $269 $397 #
vertex $-1 $165 $398 #
straight-curve $-1 -6.8813138508606073 -44.083224365903803 11.935374141423903 0 1 0 I I #
coedge $-1 $275 $275 $-1 $399 reversed $168 $-1 #
edge $-1 $400 0 $400 6.2831853071796004 $169 $401 forward 7 unknown #
vertex $-1 $172 $402 #
ellipse-curve $-1 -19.182967315506353 -19.777474319837534 6.0430870447743805 0 -0.78801076186113728 0.61566146476048833 1 0 0 1 I I #
coedge $-1 $279 $279 $-1 $403 reversed $175 $-1 #
edge $-1 $404 0 $404 6.2831853071796004 $176 $405 forward 7 unknown #
vertex $-1 $179 $406 #
ellipse-curve $-1 -11.801975236718906 -19.777474319837534 6.0430870447743805 0 -0.78801076186113728 0.61566146476048833 1 0 0 1 I I #
face $-1 $-1 $195 $27 $-1 $407 reversed single #
loop $-1 $-1 $299 $180 #
plane-surface $-1 0 24.381033408478299 0 0 -1 0 0 0 -1 forward_v I I I I #
coedge $-1 $408 $297 $300 $409 forward $181 $-1 #
coedge $-1 $303 $183 $184 $291 reversed $113 $-1 #
coedge $-1 $297 $408 $183 $289 reversed $181 $-1 #
edge $-1 $304 -11.935374141423901 $410 11.935374141423901 $288 $411 forward 7 unknown #
coedge $-1 $185 $184 $408 $412 forward $73 $-1 #
edge $-1 $295 -40.472426526688437 $410 40.472426526688437 $287 $413 forward 7 unknown #
coedge $-1 $300 $299 $185 $293 reversed $284 $-1 #
edge $-1 $414 -40.472426526688437 $294 40.472426526688437 $292 $415 forward 7 unknown #
vertex $-1 $187 $416 #
vertex $-1 $306 $417 #
straight-curve $-1 40.472426526688437 0 -11.935374141423901 0 -1 0 I I #
coedge $-1 $286 $288 $188 $298 reversed $181 $-1 #
edge $-1 $301 -24.381033408478299 $304 24.381033408478299 $297 $418 forward 7 unknown #
coedge $-1 $292 $189 $194 $307 forward $284 $-1 #
coedge $-1 $189 $292 $286 $409 reversed $284 $-1 #
vertex $-1 $190 $419 #
straight-curve $-1 0 24.381033408478299 11.935374141423901 -1 0 0 I I #
coedge $-1 $191 $287 $193 $306 reversed $113 $-1 #
vertex $-1 $298 $420 #
straight-curve $-1 0 -24.381033408478299 11.935374141423901 1 0 0 I I #
edge $-1 $196 -11.935374141423901 $295 11.935374141423901 $193 $421 forward 7 unknown #
edge $-1 $197 -11.935374141423901 $294 11.935374141423901 $194 $422 forward 7 unknown #
point $-1 40.472426526688437 -24.381033408478299 11.935374141423901 #
point $-1 40.472426526688437 24.381033408478299 11.935374141423901 #
face $-1 $-1 $214 $28 $-1 $423 reversed single #
loop $-1 $-1 $319 $199 #
plane-surface $-1 0 0 11.935374141423901 0 0 1 1 0 0 forward_v I I I I #
coedge $-1 $325 $324 $203 $318 forward $200 $-1 #
coedge $-1 $205 $202 $325 $424 reversed $121 $-1 #
coedge $-1 $202 $205 $328 $425 reversed $121 $-1 #
edge $-1 $330 -11.935374141423901 $326 11.935374141423901 $202 $426 forward 7 unknown #
coedge $-1 $204 $203 $332 $427 reversed $77 $-1 #
edge $-1 $428 -22.470295878521881 $322 -13.533965417811228 $313 $429 forward 7 unknown #
coedge $-1 $329 $328 $204 $320 forward $311 $-1 #
edge $-1 $321 13.533965417811228 $430 22.470295878521881 $319 $431 forward 7 unknown #
vertex $-1 $320 $432 #
vertex $-1 $318 $433 #
straight-curve $-1 -31.536096065977784 -7.0326850369297489 0 0 0 -1 I I #
coedge $-1 $313 $208 $213 $334 forward $200 $-1 #
coedge $-1 $208 $313 $314 $424 forward $200 $-1 #
vertex $-1 $209 $434 #
straight-curve $-1 -18.002130648166556 -13.971134326468839 -11.935374141423901 -1 0 0 I I #
coedge $-1 $319 $210 $315 $425 forward $311 $-1 #
coedge $-1 $210 $319 $212 $333 forward $311 $-1 #
vertex $-1 $211 $435 #
straight-curve $-1 -18.002130648166556 -13.971134326468839 11.935374141423901 1 0 0 I I #
coedge $-1 $213 $212 $317 $427 forward $214 $-1 #
edge $-1 $430 7.0326850369297489 $216 13.971134326468839 $212 $436 forward 7 unknown #
edge $-1 $215 -13.971134326468839 $428 -7.0326850369297489 $213 $437 forward 7 unknown #
point $-1 -40.472426526688437 -13.971134326468839 -11.935374141423901 #
point $-1 -40.472426526688437 -13.971134326468839 11.935374141423901 #
plane-surface $-1 0 0 11.935374141423901 0 0 1 1 0 0 forward_v I I I I #
coedge $-1 $348 $347 $340 $438 forward $219 $-1 #
coedge $-1 $340 $221 $223 $344 reversed $129 $-1 #
coedge $-1 $221 $339 $338 $438 reversed $129 $-1 #
coedge $-1 $229 $224 $221 $342 forward $230 $-1 #
edge $-1 $345 -2.5159516866221026 $439 6.4857189291908135 $341 $440 forward 7 unknown #
coedge $-1 $223 $222 $348 $441 reversed $81 $-1 #
edge $-1 $442 -48.76206681695659 $345 -37.338782751963336 $339 $443 forward 7 unknown #
vertex $-1 $225 $444 #
straight-curve $-1 0.40362517973868961 15.379362792665386 11.9353741414239 1 0 0 I I #
coedge $-1 $338 $226 $229 $352 reversed $219 $-1 #
coedge $-1 $226 $338 $343 $441 forward $219 $-1 #
vertex $-1 $227 $445 #
straight-curve $-1 -2.8536645114005736 24.381033408478299 49.354419336277552 0 0 1 I I #
straight-curve $-1 -2.8536645114005736 -14.043999317236661 34.923424505643467 0 0.78801074757464917 -0.61566148304635926 I I #
edge $-1 $439 -4.4681652303553321 $231 2.8536645114005736 $347 $446 forward 7 unknown #
point $-1 -2.8536645114005736 24.381033408478299 11.935374141423901 #
point $-1 -2.8536645114005736 15.379362792665383 11.9353741414239 #
edge $-1 $447 1 $447 0 $234 $-1 forward 7 unknown #
vertex $-1 $235 $448 #
ellipse-curve $-1 0.80725035947737922 19.199939792100118 7.5482452249927583 0 0.61566148304635926 0.78801074757464917 1 0 0 1 I I #
point $-1 1.8072503594773792 19.880198100571853 8.4189361370671065 #
loop $-1 $-1 $244 $238 #
plane-surface $-1 0 0 11.935374141423901 0 0 1 1 0 0 forward_v I I I I #
coedge $-1 $241 $368 $364 $449 reversed $144 $-1 #
edge $-1 $366 37.419045194853652 $369 44.451921203567238 $241 $450 forward 7 unknown #
edge $-1 $369 -48.76206681695659 $365 -37.338782751963336 $242 $451 forward 7 unknown #
coedge $-1 $371 $244 $361 $449 forward $359 $-1 #
vertex $-1 $245 $452 #
vertex $-1 $449 $453 #
straight-curve $-1 11.789994972111238 17.895314479287485 11.9353741414239 0 1 0 I I #
coedge $-1 $361 $247 $252 $374 forward $144 $-1 #
vertex $-1 $362 $454 #
straight-curve $-1 0.40362517973868961 24.381033408478302 4.9024981327103099 -1 0 0 I I #
coedge $-1 $249 $364 $251 $373 forward $359 $-1 #
straight-curve $-1 0.40362517973868961 15.379362792665386 11.9353741414239 1 0 0 I I #
edge $-1 $455 -6.4857189291908135 $254 2.5159516866221026 $371 $456 forward 7 unknown #
edge $-1 $253 -44.451921203567238 $455 -37.419045194853652 $368 $457 forward 7 unknown #
point $-1 4.4681652303553321 24.381033408478295 4.9024981327103099 #
point $-1 4.4681652303553321 15.379362792665383 11.9353741414239 #
edge $-1 $458 1 $458 0 $256 $-1 forward 7 unknown #
vertex $-1 $257 $459 #
ellipse-curve $-1 8.1290801012332849 19.199939792100118 7.5482452249927583 0 0.61566148304635926 0.78801074757464917 1 0 0 1 I I #
point $-1 9.1290801012332849 19.880198100571853 8.4189361370671065 #
loop $-1 $-1 $268 $260 #
plane-surface $-1 0 -24.381033408478299 0 0 1 0 0 0 1 forward_v I I I I #
coedge $-1 $384 $263 $265 $388 reversed $159 $-1 #
coedge $-1 $263 $383 $460 $461 reversed $159 $-1 #
coedge $-1 $271 $266 $263 $386 forward $261 $-1 #
edge $-1 $389 -28.90930913470703 $462 -19.702190957425504 $385 $463 forward 7 unknown #
coedge $-1 $265 $264 $392 $464 reversed $99 $-1 #
edge $-1 $465 -1.7300807634896994e-014 $389 14.954839151518721 $383 $466 forward 7 unknown #
vertex $-1 $267 $467 #
straight-curve $-1 -7.746235638056314 -15.173915231196776 11.935374141423901 -1 0 0 I I #
coedge $-1 $460 $268 $271 $396 reversed $381 $-1 #
coedge $-1 $268 $460 $387 $464 forward $381 $-1 #
vertex $-1 $269 $468 #
straight-curve $-1 -6.8813138508606073 -24.381033408478299 24.992713371894681 0 0 1 I I #
straight-curve $-1 -6.8813138508606073 -24.381033408478288 0.1507999481248703 0 -0.61566146476048833 -0.78801076186113728 I I #
edge $-1 $462 -24.103628701364649 $272 -6.8813138508606073 $391 $469 forward 7 unknown #
point $-1 -6.8813138508606073 -24.381033408478299 11.935374141423901 #
point $-1 -6.8813138508606073 -15.173915231196775 11.935374141423901 #
edge $-1 $470 1 $470 0 $275 $-1 forward 7 unknown #
vertex $-1 $276 $471 #
ellipse-curve $-1 -19.182967315506353 -18.702463819457439 5.2031968156945574 0 -0.78801076186113728 0.61566146476048833 1 0 0 1 I I #
point $-1 -18.182967315506353 -19.777474319837538 6.0430870447743814 #
edge $-1 $472 1 $472 0 $279 $-1 forward 7 unknown #
vertex $-1 $280 $473 #
ellipse-curve $-1 -11.801975236718906 -18.702463819457439 5.2031968156945574 0 -0.78801076186113728 0.61566146476048833 1 0 0 1 I I #
point $-1 -10.801975236718906 -19.777474319837538 6.0430870447743814 #
plane-surface $-1 40.472426526688437 0 0 -1 0 0 0 0 1 forward_v I I I I #
coedge $-1 $288 $286 $290 $412 reversed $181 $-1 #
edge $-1 $301 -11.935374141423901 $414 11.935374141423901 $300 $474 forward 7 unknown #
vertex $-1 $412 $475 #
straight-curve $-1 -40.472426526688437 -24.381033408478299 0 0 0 -1 I I #
edge $-1 $410 -24.381033408478299 $414 24.381033408478299 $408 $476 forward 7 unknown #
straight-curve $-1 0 -24.381033408478299 -11.935374141423901 -1 0 0 I I #
vertex $-1 $293 $477 #
straight-curve $-1 0 24.381033408478299 -11.935374141423901 1 0 0 I I #
point $-1 40.472426526688437 24.381033408478299 -11.935374141423901 #
point $-1 40.472426526688437 -24.381033408478299 -11.935374141423901 #
straight-curve $-1 -40.472426526688437 0 11.935374141423901 0 -1 0 I I #
point $-1 -40.472426526688437 24.381033408478299 11.935374141423901 #
point $-1 -40.472426526688437 -24.381033408478299 11.935374141423901 #
straight-curve $-1 40.472426526688437 -24.381033408478299 0 0 0 -1 I I #
straight-curve $-1 40.472426526688437 24.381033408478299 0 0 0 -1 I I #
plane-surface $-1 -40.472426526688437 0 0 1 0 0 0 0 -1 forward_v I I I I #
edge $-1 $322 1.781730196080102 $326 8.720179485619191 $325 $478 forward 7 unknown #
edge $-1 $330 -8.720179485619191 $321 -1.781730196080102 $328 $479 forward 7 unknown #
straight-curve $-1 -31.536096065977784 -13.971134326468839 0 0 0 -1 I I #
edge $-1 $430 -11.935374141423901 $428 11.935374141423901 $332 $480 forward 7 unknown #
vertex $-1 $427 $481 #
straight-curve $-1 -18.002130648166556 -7.0326850369297489 -11.935374141423901 1 0 0 I I #
vertex $-1 $333 $482 #
straight-curve $-1 -18.002130648166556 -7.0326850369297489 11.935374141423901 -1 0 0 I I #
point $-1 -31.536096065977784 -7.0326850369297489 11.935374141423901 #
point $-1 -31.536096065977784 -7.0326850369297489 -11.935374141423901 #
point $-1 -31.536096065977784 -13.971134326468839 -11.935374141423901 #
point $-1 -31.536096065977784 -13.971134326468839 11.935374141423901 #
straight-curve $-1 -40.472426526688437 0 11.935374141423901 0 -1 0 I I #
straight-curve $-1 -40.472426526688437 0 -11.935374141423901 0 1 0 I I #
edge $-1 $439 37.419045194853652 $442 44.451921203567238 $338 $483 forward 7 unknown #
vertex $-1 $352 $484 #
straight-curve $-1 4.4681652303553321 17.895314479287485 11.9353741414239 0 1 0 I I #
edge $-1 $442 -4.0645400506166425 $349 3.2572896911392633 $348 $485 forward 7 unknown #
vertex $-1 $441 $486 #
straight-curve $-1 4.4681652303553321 -14.043999317236661 34.923424505643467 0 -0.78801074757464917 0.61566148304635926 I I #
point $-1 4.4681652303553321 15.379362792665383 11.9353741414239 #
point $-1 -2.8536645114005736 24.381033408478295 4.9024981327103099 #
straight-curve $-1 0 24.381033408478299 11.935374141423901 -1 0 0 I I #
vertex $-1 $355 $487 #
point $-1 1.8072503594773792 19.199939792100118 7.5482452249927583 #
edge $-1 $366 -11.789994972111238 $455 -4.4681652303553321 $361 $488 forward 7 unknown #
straight-curve $-1 11.789994972111238 24.381033408478299 49.354419336277552 0 0 -1 I I #
straight-curve $-1 11.789994972111238 -14.043999317236661 34.923424505643467 0 -0.78801074757464917 0.61566148304635926 I I #
point $-1 11.789994972111238 15.379362792665383 11.9353741414239 #
point $-1 11.789994972111238 24.381033408478299 11.935374141423901 #
point $-1 11.789994972111238 24.381033408478295 4.9024981327103099 #
vertex $-1 $374 $489 #
straight-curve $-1 4.4681652303553321 17.895314479287485 11.9353741414239 0 -1 0 I I #
straight-curve $-1 4.4681652303553321 24.381033408478299 49.354419336277552 0 0 1 I I #
vertex $-1 $377 $490 #
point $-1 9.1290801012332849 19.199939792100118 7.5482452249927583 #
coedge $-1 $392 $391 $384 $461 forward $381 $-1 #
edge $-1 $462 13.057339230470779 $465 24.841913423769824 $460 $491 forward 7 unknown #
vertex $-1 $396 $492 #
straight-curve $-1 -24.103628701364649 -44.083224365903803 11.935374141423903 0 -1 0 I I #
edge $-1 $465 -16.357393063308336 $393 0.86492178719570667 $392 $493 forward 7 unknown #
vertex $-1 $464 $494 #
straight-curve $-1 -24.103628701364649 -24.381033408478288 0.1507999481248703 0 0.61566146476048833 0.78801076186113728 I I #
point $-1 -24.103628701364649 -15.173915231196775 11.935374141423901 #
point $-1 -6.8813138508606073 -24.381033408478299 0.15079994812485667 #
straight-curve $-1 0 -24.381033408478299 11.935374141423901 1 0 0 I I #
vertex $-1 $399 $495 #
point $-1 -18.182967315506353 -18.702463819457439 5.2031968156945574 #
vertex $-1 $403 $496 #
point $-1 -10.801975236718906 -18.702463819457439 5.2031968156945574 #
straight-curve $-1 -40.472426526688437 24.381033408478299 0 0 0 -1 I I #
point $-1 -40.472426526688437 -24.381033408478299 -11.935374141423901 #
straight-curve $-1 -40.472426526688437 0 -11.935374141423901 0 1 0 I I #
point $-1 -40.472426526688437 24.381033408478299 -11.935374141423901 #
straight-curve $-1 -31.536096065977784 -5.2509548408496469 -11.935374141423901 0 -1 0 I I #
straight-curve $-1 -31.536096065977784 -5.2509548408496469 11.935374141423901 0 1 0 I I #
straight-curve $-1 -40.472426526688437 -7.0326850369297489 0 0 0 -1 I I #
point $-1 -40.472426526688437 -7.0326850369297489 -11.935374141423901 #
point $-1 -40.472426526688437 -7.0326850369297489 11.935374141423901 #
straight-curve $-1 4.4681652303553321 24.381033408478299 49.354419336277552 0 0 -1 I I #
point $-1 4.4681652303553321 24.381033408478299 11.935374141423901 #
straight-curve $-1 0.40362517973868961 24.381033408478302 4.9024981327103099 -1 0 0 I I #
point $-1 4.4681652303553321 24.381033408478295 4.9024981327103099 #
point $-1 0.80725035947737922 18.584278309053758 6.7602344774181091 #
straight-curve $-1 0 24.381033408478299 11.935374141423901 -1 0 0 I I #
point $-1 4.4681652303553321 24.381033408478299 11.935374141423901 #
point $-1 8.1290801012332849 18.584278309053758 6.7602344774181091 #
straight-curve $-1 -24.103628701364649 -24.381033408478299 24.992713371894681 0 0 -1 I I #
point $-1 -24.103628701364649 -24.381033408478299 11.935374141423901 #
straight-curve $-1 -7.746235638056314 -24.381033408478299 0.15079994812486014 1 0 0 I I #
point $-1 -24.103628701364649 -24.381033408478299 0.15079994812485667 #
point $-1 -19.182967315506353 -17.914453057596301 4.5875353509340684 #
point $-1 -11.801975236718906 -17.914453057596301 4.5875353509340684 #
End-of-ACIS-data 