500 0 4 0           
7 Unknown 11 ACIS 5.0 NT 24 Thu Mar 25 16:28:46 1999 
-1 9.9999999999999995e-007 1e-010 
body $-1 $4 $-1 $5 #
body $-1 $6 $-1 $7 #
body $-1 $8 $-1 $9 #
body $-1 $10 $-1 $11 #
lump $-1 $-1 $12 $0 #
transform $-1 1 0 0 0 1 0 0 0 1 58.059633167516097 38.322511860928309 17.376061005554309 1 rotate no_reflect no_shear #
lump $-1 $-1 $13 $1 #
transform $-1 1 0 0 0 1 0 0 0 1 58.059633167516097 38.322511860928309 17.376061005554309 1 rotate no_reflect no_shear #
lump $-1 $-1 $14 $2 #
transform $-1 1 0 0 0 1 0 0 0 1 58.059633167516097 38.322511860928309 17.376061005554309 1 rotate no_reflect no_shear #
lump $-1 $-1 $15 $3 #
transform $-1 1 0 0 0 1 0 0 0 1 58.059633167516097 38.322511860928309 17.376061005554309 1 rotate no_reflect no_shear #
shell $-1 $-1 $-1 $16 $-1 $4 #
shell $-1 $-1 $-1 $17 $-1 $6 #
shell $-1 $-1 $-1 $18 $-1 $8 #
shell $-1 $-1 $-1 $19 $-1 $10 #
face $-1 $20 $21 $12 $-1 $22 forward single #
face $-1 $23 $24 $13 $-1 $25 forward single #
face $-1 $26 $27 $14 $-1 $28 reversed single #
face $-1 $29 $30 $15 $-1 $31 forward single #
face $-1 $32 $33 $12 $-1 $34 reversed single #
loop $-1 $-1 $35 $16 #
plane-surface $-1 0 0 17.376061005554309 0 0 1 1 0 0 forward_v I I I I #
face $-1 $36 $37 $13 $-1 $38 reversed single #
loop $-1 $-1 $39 $17 #
plane-surface $-1 -51.484501350341546 0 -13.656702605921847 0 0 1 1 0 0 forward_v I I I I #
face $-1 $40 $41 $14 $-1 $42 reversed single #
loop $-1 $-1 $43 $18 #
plane-surface $-1 83.748903006414196 30.613582362234517 171.32443073588135 0 -1 0 -0.80901700255871778 0 -0.5877852410284794 forward_v I I I I #
face $-1 $44 $45 $15 $-1 $46 forward single #
loop $-1 $47 $48 $19 #
cone-surface $-1 54.058669734852536 20.742497662462775 12.522271692370099 -0.80901700255871778 0 -0.5877852410284794 0.8816778615427191 0 -1.2135255038380768 1 I I 0 1 1.5 forward I I I I #
face $-1 $49 $50 $12 $-1 $51 reversed single #
loop $-1 $-1 $52 $20 #
plane-surface $-1 0 0 -17.376061005554309 0 0 1 1 0 0 forward_v I I I I #
coedge $-1 $53 $54 $55 $56 forward $21 $-1 #
face $-1 $57 $58 $13 $-1 $59 reversed single #
loop $-1 $-1 $60 $23 #
plane-surface $-1 -44.909369533166995 0 -15.516381805738078 -1 0 0 0 0 1 forward_v I I I I #
coedge $-1 $61 $62 $63 $64 forward $24 $-1 #
face $-1 $65 $66 $14 $-1 $67 reversed single #
loop $-1 $-1 $68 $26 #
plane-surface $-1 -10.19355778327099 20.742497662462767 103.07123978509425 0.80901700255871778 0 0.5877852410284794 0.5877852410284794 0 -0.80901700255871778 forward_v I I I I #
coedge $-1 $69 $70 $71 $72 reversed $27 $-1 #
face $-1 $-1 $73 $15 $-1 $74 forward single #
loop $-1 $75 $76 $29 #
cone-surface $-1 52.446944022961631 20.742497662462775 11.35128445348715 -0.80901700255871778 0 -0.5877852410284794 0.44083893077135955 0 -0.60676275191903839 1 I I -0.70710678118654757 0.70710678118654757 0.75 forward I I I I #
loop $-1 $-1 $77 $19 #
coedge $-1 $48 $48 $78 $79 reversed $30 $-1 #
face $-1 $80 $81 $12 $-1 $82 reversed single #
loop $-1 $-1 $83 $32 #
plane-surface $-1 0 -38.322511860928309 0 0 1 0 0 0 1 forward_v I I I I #
coedge $-1 $84 $85 $86 $87 forward $33 $-1 #
coedge $-1 $88 $35 $89 $90 forward $21 $-1 #
coedge $-1 $35 $88 $91 $92 forward $21 $-1 #
coedge $-1 $93 $94 $35 $56 reversed $95 $-1 #
edge $-1 $96 -38.322511860928309 $97 38.322511860928309 $55 $98 forward 7 unknown #
face $-1 $99 $100 $13 $-1 $101 reversed single #
loop $-1 $-1 $102 $36 #
plane-surface $-1 0 0 -17.376061005554309 0 0 1 1 0 0 forward_v I I I I #
coedge $-1 $103 $63 $104 $105 reversed $37 $-1 #
coedge $-1 $106 $39 $107 $108 reversed $24 $-1 #
coedge $-1 $39 $106 $109 $110 reversed $24 $-1 #
coedge $-1 $60 $111 $39 $64 reversed $37 $-1 #
edge $-1 $112 -38.322511860928309 $113 38.322511860928309 $63 $114 forward 7 unknown #
face $-1 $115 $116 $14 $-1 $117 forward single #
loop $-1 $-1 $118 $40 #
plane-surface $-1 83.748903006414196 10.871412962691018 171.32443073588135 0 1 0 0.80901700255871778 0 0.5877852410284794 forward_v I I I I #
coedge $-1 $119 $120 $121 $122 reversed $41 $-1 #
coedge $-1 $70 $43 $123 $124 reversed $27 $-1 #
coedge $-1 $43 $69 $119 $125 reversed $27 $-1 #
coedge $-1 $121 $126 $43 $72 forward $116 $-1 #
edge $-1 $127 -16.185181664308999 $128 -10.193180718925632 $71 $129 forward 7 unknown #
loop $-1 $-1 $78 $44 #
plane-surface $-1 -10.19355778327099 20.742497662462767 103.07123978509425 0.80901700255871778 0 0.5877852410284794 0.5877852410284794 0 -0.80901700255871778 forward_v I I I I #
loop $-1 $-1 $130 $29 #
coedge $-1 $76 $76 $77 $131 reversed $45 $-1 #
coedge $-1 $77 $77 $76 $131 forward $47 $-1 #
coedge $-1 $78 $78 $48 $79 forward $73 $-1 #
edge $-1 $132 0 $132 6.2831853071796004 $78 $133 forward 7 unknown #
face $-1 $134 $135 $12 $-1 $136 reversed single #
loop $-1 $-1 $137 $49 #
plane-surface $-1 -58.059633167516097 0 0 1 0 0 0 0 -1 forward_v I I I I #
coedge $-1 $138 $91 $139 $140 forward $50 $-1 #
coedge $-1 $141 $52 $138 $142 forward $33 $-1 #
coedge $-1 $52 $141 $143 $144 forward $33 $-1 #
coedge $-1 $94 $93 $52 $87 reversed $95 $-1 #
edge $-1 $145 -38.322511860928309 $146 38.322511860928309 $86 $147 forward 7 unknown #
coedge $-1 $54 $53 $148 $149 forward $21 $-1 #
coedge $-1 $150 $151 $53 $90 reversed $135 $-1 #
edge $-1 $97 -58.059633167516097 $152 58.059633167516097 $89 $153 forward 7 unknown #
coedge $-1 $83 $154 $54 $92 reversed $50 $-1 #
edge $-1 $155 -58.059633167516097 $96 58.059633167516097 $91 $156 forward 7 unknown #
coedge $-1 $86 $55 $154 $157 forward $95 $-1 #
coedge $-1 $55 $86 $150 $158 reversed $95 $-1 #
loop $-1 $-1 $93 $134 #
vertex $-1 $56 $159 #
vertex $-1 $56 $160 #
straight-curve $-1 58.059633167516097 0 17.376061005554309 0 1 0 I I #
face $-1 $161 $162 $13 $-1 $163 reversed single #
loop $-1 $-1 $104 $57 #
plane-surface $-1 0 -38.322511860928309 0 0 1 0 0 0 1 forward_v I I I I #
coedge $-1 $164 $165 $103 $166 forward $58 $-1 #
coedge $-1 $111 $60 $102 $166 reversed $37 $-1 #
coedge $-1 $109 $167 $60 $105 forward $100 $-1 #
edge $-1 $168 -9.61787010268527 $112 -5.898511703052808 $104 $169 forward 7 unknown #
coedge $-1 $62 $61 $170 $171 reversed $24 $-1 #
coedge $-1 $172 $173 $61 $108 forward $174 $-1 #
edge $-1 $175 -32.317382492345324 $113 -19.167118857996222 $107 $176 forward 7 unknown #
coedge $-1 $177 $104 $62 $110 forward $100 $-1 #
edge $-1 $112 19.167118857996222 $178 32.317382492345324 $109 $179 forward 7 unknown #
coedge $-1 $63 $103 $172 $180 reversed $37 $-1 #
vertex $-1 $110 $181 #
vertex $-1 $108 $182 #
straight-curve $-1 -44.909369533166995 0 -13.656702605921847 0 1 0 I I #
face $-1 $-1 $183 $14 $-1 $184 reversed single #
loop $-1 $-1 $71 $65 #
plane-surface $-1 0 0 17.376061005554309 0 0 1 1 0 0 forward_v I I I I #
coedge $-1 $185 $186 $187 $188 reversed $66 $-1 #
coedge $-1 $189 $68 $70 $125 forward $41 $-1 #
coedge $-1 $68 $189 $185 $190 forward $41 $-1 #
coedge $-1 $187 $71 $68 $122 forward $116 $-1 #
edge $-1 $128 -20.242333531003133 $191 -0.50016413145963412 $121 $192 forward 7 unknown #
coedge $-1 $193 $194 $69 $124 forward $183 $-1 #
edge $-1 $195 -76.533436372531582 $127 -68.28615436238637 $123 $196 forward 7 unknown #
edge $-1 $128 105.92506524400304 $195 116.11926633503217 $70 $197 forward 7 unknown #
coedge $-1 $71 $187 $193 $198 forward $116 $-1 #
vertex $-1 $124 $199 #
vertex $-1 $72 $200 #
straight-curve $-1 41.874451503207098 30.613582362234517 17.376061005554305 -1 0 0 I I #
coedge $-1 $130 $130 $-1 $201 reversed $75 $-1 #
edge $-1 $202 0 $202 6.2831853071796004 $76 $203 forward 7 unknown #
vertex $-1 $79 $204 #
ellipse-curve $-1 55.063632694824413 20.742497662462775 13.252420000481697 0.80901700255871778 0 0.5877852410284794 0.8816778615427191 0 -1.2135255038380768 1 I I #
face $-1 $-1 $95 $12 $-1 $205 reversed single #
loop $-1 $-1 $150 $80 #
plane-surface $-1 0 38.322511860928309 0 0 -1 0 0 0 -1 forward_v I I I I #
coedge $-1 $206 $148 $151 $207 forward $81 $-1 #
coedge $-1 $154 $83 $84 $142 reversed $50 $-1 #
coedge $-1 $148 $206 $83 $140 reversed $81 $-1 #
edge $-1 $155 -17.376061005554309 $208 17.376061005554309 $139 $209 forward 7 unknown #
coedge $-1 $85 $84 $206 $210 forward $33 $-1 #
edge $-1 $146 -58.059633167516097 $208 58.059633167516097 $138 $211 forward 7 unknown #
coedge $-1 $151 $150 $85 $144 reversed $135 $-1 #
edge $-1 $212 -58.059633167516097 $145 58.059633167516097 $143 $213 forward 7 unknown #
vertex $-1 $87 $214 #
vertex $-1 $157 $215 #
straight-curve $-1 58.059633167516097 0 -17.376061005554309 0 -1 0 I I #
coedge $-1 $137 $139 $88 $149 reversed $81 $-1 #
edge $-1 $152 -38.322511860928309 $155 38.322511860928309 $148 $216 forward 7 unknown #
coedge $-1 $143 $89 $94 $158 forward $135 $-1 #
coedge $-1 $89 $143 $137 $207 reversed $135 $-1 #
vertex $-1 $90 $217 #
straight-curve $-1 0 38.322511860928309 17.376061005554309 -1 0 0 I I #
coedge $-1 $91 $138 $93 $157 reversed $50 $-1 #
vertex $-1 $149 $218 #
straight-curve $-1 0 -38.322511860928309 17.376061005554309 1 0 0 I I #
edge $-1 $96 -17.376061005554309 $146 17.376061005554309 $93 $219 forward 7 unknown #
edge $-1 $97 -17.376061005554309 $145 17.376061005554309 $94 $220 forward 7 unknown #
point $-1 58.059633167516097 -38.322511860928309 17.376061005554309 #
point $-1 58.059633167516097 38.322511860928309 17.376061005554309 #
face $-1 $-1 $174 $13 $-1 $221 reversed single #
loop $-1 $-1 $170 $99 #
plane-surface $-1 -58.059633167516097 0 0 1 0 0 0 0 -1 forward_v I I I I #
coedge $-1 $222 $102 $167 $223 forward $58 $-1 #
coedge $-1 $102 $222 $224 $225 forward $58 $-1 #
edge $-1 $226 -38.322511860928309 $168 38.322511860928309 $102 $227 forward 7 unknown #
coedge $-1 $104 $177 $164 $223 reversed $100 $-1 #
vertex $-1 $223 $228 #
straight-curve $-1 -44.909369533166995 -38.322511860928309 -7.758190902869039 0 0 1 I I #
coedge $-1 $229 $230 $106 $171 forward $162 $-1 #
edge $-1 $178 -38.322511860928309 $175 38.322511860928309 $170 $231 forward 7 unknown #
coedge $-1 $224 $107 $111 $180 forward $174 $-1 #
coedge $-1 $107 $224 $229 $232 reversed $174 $-1 #
loop $-1 $-1 $172 $161 #
vertex $-1 $232 $233 #
straight-curve $-1 -25.742250675170773 38.322511860928309 -13.656702605921847 1 0 0 I I #
coedge $-1 $167 $109 $230 $234 forward $100 $-1 #
vertex $-1 $234 $235 #
straight-curve $-1 -25.742250675170773 -38.322511860928309 -13.656702605921847 -1 0 0 I I #
edge $-1 $113 5.898511703052808 $226 9.61787010268527 $172 $236 forward 7 unknown #
point $-1 -44.909369533166995 -38.322511860928309 -13.656702605921847 #
point $-1 -44.909369533166995 38.322511860928309 -13.656702605921847 #
loop $-1 $-1 $123 $115 #
plane-surface $-1 58.059633167516097 0 0 -1 0 0 0 0 1 forward_v I I I I #
coedge $-1 $186 $118 $120 $190 reversed $66 $-1 #
coedge $-1 $118 $185 $237 $238 reversed $66 $-1 #
coedge $-1 $126 $121 $118 $188 forward $116 $-1 #
edge $-1 $191 10.193180718925632 $239 16.185181664308999 $187 $240 forward 7 unknown #
coedge $-1 $120 $119 $194 $241 reversed $41 $-1 #
edge $-1 $242 -116.11926633503217 $191 -105.92506524400304 $185 $243 forward 7 unknown #
vertex $-1 $122 $244 #
straight-curve $-1 52.06763222213273 10.371248831231384 17.376061005554305 0 -1 0 I I #
coedge $-1 $237 $123 $126 $198 reversed $183 $-1 #
coedge $-1 $123 $237 $189 $241 forward $183 $-1 #
vertex $-1 $124 $245 #
straight-curve $-1 58.059633167516097 30.613582362234517 85.662215367940675 0 0 1 I I #
straight-curve $-1 -10.19355778327099 30.613582362234517 103.07123978509425 0.5877852410284794 0 -0.80901700255871778 I I #
edge $-1 $239 10.871412962691018 $127 30.613582362234517 $193 $246 forward 7 unknown #
point $-1 58.059633167516097 30.613582362234517 17.376061005554309 #
point $-1 52.06763222213273 30.613582362234517 17.376061005554305 #
edge $-1 $247 1 $247 0 $130 $-1 forward 7 unknown #
vertex $-1 $131 $248 #
ellipse-curve $-1 53.053706774880666 20.742497662462775 11.79212338425851 0.80901700255871778 0 0.5877852410284794 0.8816778615427191 0 -1.2135255038380768 1 I I #
point $-1 55.945310556367119 20.742497662462775 12.038894496643612 #
plane-surface $-1 58.059633167516097 0 0 -1 0 0 0 0 1 forward_v I I I I #
coedge $-1 $139 $137 $141 $210 reversed $81 $-1 #
edge $-1 $152 -17.376061005554309 $212 17.376061005554309 $151 $249 forward 7 unknown #
vertex $-1 $210 $250 #
straight-curve $-1 -58.059633167516097 -38.322511860928309 0 0 0 -1 I I #
edge $-1 $208 -38.322511860928309 $212 38.322511860928309 $206 $251 forward 7 unknown #
straight-curve $-1 0 -38.322511860928309 -17.376061005554309 -1 0 0 I I #
vertex $-1 $144 $252 #
straight-curve $-1 0 38.322511860928309 -17.376061005554309 1 0 0 I I #
point $-1 58.059633167516097 38.322511860928309 -17.376061005554309 #
point $-1 58.059633167516097 -38.322511860928309 -17.376061005554309 #
straight-curve $-1 -58.059633167516097 0 17.376061005554309 0 -1 0 I I #
point $-1 -58.059633167516097 38.322511860928309 17.376061005554309 #
point $-1 -58.059633167516097 -38.322511860928309 17.376061005554309 #
straight-curve $-1 58.059633167516097 -38.322511860928309 0 0 0 -1 I I #
straight-curve $-1 58.059633167516097 38.322511860928309 0 0 0 -1 I I #
plane-surface $-1 0 38.322511860928309 0 0 -1 0 0 0 -1 forward_v I I I I #
coedge $-1 $165 $164 $253 $254 forward $58 $-1 #
edge $-1 $168 44.909369533166995 $255 58.059633167516097 $167 $256 forward 7 unknown #
coedge $-1 $173 $172 $165 $225 reversed $174 $-1 #
edge $-1 $257 -58.059633167516097 $226 -44.909369533166995 $224 $258 forward 7 unknown #
vertex $-1 $180 $259 #
straight-curve $-1 -44.909369533166995 0 -17.376061005554309 0 -1 0 I I #
point $-1 -44.909369533166995 -38.322511860928309 -17.376061005554309 #
coedge $-1 $253 $170 $173 $232 forward $162 $-1 #
coedge $-1 $170 $253 $177 $234 reversed $162 $-1 #
straight-curve $-1 -58.059633167516097 0 -13.656702605921847 0 1 0 I I #
edge $-1 $175 13.656702605921847 $257 17.376061005554309 $173 $260 forward 7 unknown #
point $-1 -58.059633167516097 38.322511860928309 -13.656702605921847 #
edge $-1 $178 13.656702605921847 $255 17.376061005554309 $230 $261 forward 7 unknown #
point $-1 -58.059633167516097 -38.322511860928309 -13.656702605921847 #
straight-curve $-1 -44.909369533166995 38.322511860928309 -7.758190902869039 0 0 -1 I I #
coedge $-1 $194 $193 $186 $238 forward $183 $-1 #
edge $-1 $239 68.28615436238637 $242 76.533436372531582 $237 $262 forward 7 unknown #
vertex $-1 $198 $263 #
straight-curve $-1 41.874451503207098 10.871412962691018 17.376061005554305 1 0 0 I I #
edge $-1 $242 0.50016413145963412 $195 20.242333531003133 $194 $264 forward 7 unknown #
vertex $-1 $241 $265 #
straight-curve $-1 -10.19355778327099 10.871412962691018 103.07123978509425 -0.5877852410284794 0 0.80901700255871778 I I #
point $-1 52.06763222213273 10.871412962691018 17.376061005554305 #
point $-1 58.059633167516097 30.613582362234517 9.1287789954090925 #
straight-curve $-1 58.059633167516097 0 17.376061005554309 0 1 0 I I #
vertex $-1 $201 $266 #
point $-1 53.935384636423386 20.742497662462775 10.578597880420432 #
straight-curve $-1 -58.059633167516097 38.322511860928309 0 0 0 -1 I I #
point $-1 -58.059633167516097 -38.322511860928309 -17.376061005554309 #
straight-curve $-1 -58.059633167516097 0 -17.376061005554309 0 1 0 I I #
point $-1 -58.059633167516097 38.322511860928309 -17.376061005554309 #
coedge $-1 $230 $229 $222 $254 reversed $162 $-1 #
edge $-1 $255 -38.322511860928309 $257 38.322511860928309 $253 $267 forward 7 unknown #
vertex $-1 $254 $268 #
straight-curve $-1 0 -38.322511860928309 -17.376061005554309 -1 0 0 I I #
vertex $-1 $225 $269 #
straight-curve $-1 0 38.322511860928309 -17.376061005554309 1 0 0 I I #
point $-1 -44.909369533166995 38.322511860928309 -17.376061005554309 #
straight-curve $-1 -58.059633167516097 38.322511860928309 0 0 0 -1 I I #
straight-curve $-1 -58.059633167516097 -38.322511860928309 0 0 0 -1 I I #
straight-curve $-1 58.059633167516097 10.871412962691018 85.662215367940675 0 0 -1 I I #
point $-1 58.059633167516097 10.871412962691018 17.376061005554309 #
straight-curve $-1 58.059633167516097 10.371248831231384 9.1287789954090854 0 1 0 I I #
point $-1 58.059633167516097 10.871412962691018 9.1287789954090925 #
point $-1 51.840181271042596 20.742497662462775 10.91044552271579 #
straight-curve $-1 -58.059633167516097 0 -17.376061005554309 0 1 0 I I #
point $-1 -58.059633167516097 -38.322511860928309 -17.376061005554309 #
point $-1 -58.059633167516097 38.322511860928309 -17.376061005554309 #
End-of-ACIS-data 