500 0 9 0           
7 Unknown 11 ACIS 5.0 NT 24 Thu Mar 25 22:39:06 1999 
-1 9.9999999999999995e-007 1e-010 
body $-1 $9 $-1 $10 #
body $-1 $11 $-1 $12 #
body $-1 $13 $-1 $14 #
body $-1 $15 $-1 $16 #
body $-1 $17 $-1 $18 #
body $-1 $19 $-1 $20 #
body $-1 $21 $-1 $22 #
body $-1 $23 $-1 $24 #
body $-1 $25 $-1 $26 #
lump $-1 $-1 $27 $0 #
transform $-1 1 0 0 0 1 0 0 0 1 57.743461409344768 25.346360834089353 5.3050450719428577 1 rotate no_reflect no_shear #
lump $-1 $-1 $28 $1 #
transform $-1 1 0 0 0 1 0 0 0 1 57.743461409344768 25.346360834089353 5.3050450719428577 1 rotate no_reflect no_shear #
lump $-1 $-1 $29 $2 #
transform $-1 1 0 0 0 1 0 0 0 1 57.743461409344768 25.346360834089353 5.3050450719428577 1 rotate no_reflect no_shear #
lump $-1 $-1 $30 $3 #
transform $-1 1 0 0 0 1 0 0 0 1 57.743461409344768 25.346360834089353 5.3050450719428577 1 rotate no_reflect no_shear #
lump $-1 $-1 $31 $4 #
transform $-1 1 0 0 0 1 0 0 0 1 57.743461409344768 25.346360834089353 5.3050450719428577 1 rotate no_reflect no_shear #
lump $-1 $-1 $32 $5 #
transform $-1 1 0 0 0 1 0 0 0 1 57.743461409344768 25.346360834089353 5.3050450719428577 1 rotate no_reflect no_shear #
lump $-1 $-1 $33 $6 #
transform $-1 1 0 0 0 1 0 0 0 1 57.743461409344768 25.346360834089353 5.3050450719428577 1 rotate no_reflect no_shear #
lump $-1 $-1 $34 $7 #
transform $-1 1 0 0 0 1 0 0 0 1 57.743461409344768 25.346360834089353 5.3050450719428577 1 rotate no_reflect no_shear #
lump $-1 $-1 $35 $8 #
transform $-1 1 0 0 0 1 0 0 0 1 57.743461409344768 25.346360834089353 5.3050450719428577 1 rotate no_reflect no_shear #
shell $-1 $-1 $-1 $36 $-1 $9 #
shell $-1 $-1 $-1 $37 $-1 $11 #
shell $-1 $-1 $-1 $38 $-1 $13 #
shell $-1 $-1 $-1 $39 $-1 $15 #
shell $-1 $-1 $-1 $40 $-1 $17 #
shell $-1 $-1 $-1 $41 $-1 $19 #
shell $-1 $-1 $-1 $42 $-1 $21 #
shell $-1 $-1 $-1 $43 $-1 $23 #
shell $-1 $-1 $-1 $44 $-1 $25 #
face $-1 $45 $46 $27 $-1 $47 forward single #
face $-1 $48 $49 $28 $-1 $50 reversed single #
face $-1 $51 $52 $29 $-1 $53 reversed single #
face $-1 $54 $55 $30 $-1 $56 forward single #
face $-1 $57 $58 $31 $-1 $59 reversed single #
face $-1 $60 $61 $32 $-1 $62 forward single #
face $-1 $63 $64 $33 $-1 $65 reversed single #
face $-1 $66 $67 $34 $-1 $68 forward single #
face $-1 $69 $70 $35 $-1 $71 forward single #
face $-1 $72 $73 $27 $-1 $74 reversed single #
loop $-1 $-1 $75 $36 #
plane-surface $-1 0 0 5.3050450719428577 0 0 1 1 0 0 forward_v I I I I #
face $-1 $76 $77 $28 $-1 $78 reversed single #
loop $-1 $-1 $79 $37 #
plane-surface $-1 -54.345247089161909 -18.72170153466627 0 0 1 0 0 0 1 forward_v I I I I #
face $-1 $80 $81 $29 $-1 $82 reversed single #
loop $-1 $-1 $83 $38 #
plane-surface $-1 -14.955409330124176 -99.579924815173868 89.331477796401472 -1 0 0 0 -0.64278761758704617 0.76604443648966558 forward_v I I I I #
face $-1 $84 $85 $30 $-1 $86 forward single #
loop $-1 $87 $88 $39 #
cone-surface $-1 -27.019931452258689 -21.94277131929115 2.1821725514616839 0 0.64278761758704617 -0.76604443648966558 1.5 0 0 1 I I 0 1 1.5 forward I I I I #
face $-1 $89 $90 $31 $-1 $91 reversed single #
loop $-1 $-1 $92 $40 #
plane-surface $-1 39.389837759037732 -99.579924815173868 89.331477796401472 -1 0 0 0 -0.64278761758704617 0.76604443648966558 forward_v I I I I #
face $-1 $93 $94 $32 $-1 $95 forward single #
loop $-1 $96 $97 $41 #
cone-surface $-1 27.32531563690322 -21.94277131929115 2.1821725514616839 0 0.64278761758704617 -0.76604443648966558 1.5 0 0 1 I I 0 1 1.5 forward I I I I #
face $-1 $98 $99 $33 $-1 $100 reversed single #
loop $-1 $-1 $101 $42 #
plane-surface $-1 22.716083095439004 87.070678381804782 111.02747862240994 1 0 0 0 -0.79863551827123203 -0.60181501223851219 forward_v I I I I #
face $-1 $102 $103 $34 $-1 $104 forward single #
loop $-1 $105 $106 $43 #
cone-surface $-1 30.783865313540126 22.264567801036595 2.0613171171498799 0 -0.79863551827123203 -0.60181501223851219 1 0 0 1 I I 0 1 1 forward I I I I #
face $-1 $107 $108 $35 $-1 $109 forward single #
loop $-1 $110 $111 $44 #
cone-surface $-1 42.885538640691799 22.264567801036595 2.0613171171498799 0 -0.79863551827123203 -0.60181501223851219 1 0 0 1 I I 0 1 1 forward I I I I #
face $-1 $112 $113 $27 $-1 $114 reversed single #
loop $-1 $-1 $115 $45 #
plane-surface $-1 0 0 -5.3050450719428577 0 0 1 1 0 0 forward_v I I I I #
coedge $-1 $116 $117 $118 $119 forward $46 $-1 #
face $-1 $120 $121 $28 $-1 $122 reversed single #
loop $-1 $-1 $123 $48 #
plane-surface $-1 -54.345247089161909 -15.72170153466627 0 0 -1 0 0 0 -1 forward_v I I I I #
coedge $-1 $124 $125 $126 $127 reversed $49 $-1 #
face $-1 $128 $129 $29 $-1 $130 reversed single #
loop $-1 $-1 $131 $51 #
plane-surface $-1 -27.019931452258689 -25.346360834089339 0.86336308383295091 0 -0.64278761758704617 0.76604443648966558 1 0 0 forward_v I I I I #
coedge $-1 $132 $133 $134 $135 reversed $52 $-1 #
face $-1 $-1 $136 $30 $-1 $137 forward single #
loop $-1 $138 $139 $54 #
cone-surface $-1 -27.019931452258689 -20.70378626911322 0.70560769766820908 0 0.64278761758704617 -0.76604443648966558 0.75 0 0 1 I I -0.70710678118654757 0.70710678118654757 0.75 forward I I I I #
loop $-1 $-1 $140 $39 #
coedge $-1 $88 $88 $141 $142 reversed $55 $-1 #
face $-1 $143 $144 $31 $-1 $145 reversed single #
loop $-1 $-1 $146 $57 #
plane-surface $-1 27.32531563690322 -25.346360834089339 0.86336308383295091 0 -0.64278761758704617 0.76604443648966558 1 0 0 forward_v I I I I #
coedge $-1 $147 $148 $149 $150 reversed $58 $-1 #
face $-1 $-1 $151 $32 $-1 $152 forward single #
loop $-1 $153 $154 $60 #
cone-surface $-1 27.32531563690322 -20.70378626911322 0.70560769766820908 0 0.64278761758704617 -0.76604443648966558 0.75 0 0 1 I I -0.70710678118654757 0.70710678118654757 0.75 forward I I I I #
loop $-1 $-1 $155 $41 #
coedge $-1 $97 $97 $156 $157 reversed $61 $-1 #
face $-1 $158 $159 $33 $-1 $160 reversed single #
loop $-1 $-1 $161 $63 #
plane-surface $-1 36.834701977115948 -5.1612800770491134 41.525714752892185 0 0.79863551827123203 0.60181501223851219 1 0 0 forward_v I I I I #
coedge $-1 $162 $163 $164 $165 reversed $64 $-1 #
face $-1 $-1 $166 $34 $-1 $167 forward single #
loop $-1 $168 $169 $66 #
cone-surface $-1 30.783865313540126 20.390161684672876 0.64885083678559052 0 -0.79863551827123203 -0.60181501223851219 0.5 0 0 1 I I -0.70710678118654746 0.70710678118654746 0.5 forward I I I I #
loop $-1 $-1 $170 $43 #
coedge $-1 $106 $106 $171 $172 reversed $67 $-1 #
face $-1 $-1 $173 $35 $-1 $174 forward single #
loop $-1 $175 $176 $69 #
cone-surface $-1 42.885538640691799 20.390161684672876 0.64885083678559052 0 -0.79863551827123203 -0.60181501223851219 0.5 0 0 1 I I -0.70710678118654746 0.70710678118654746 0.5 forward I I I I #
loop $-1 $-1 $177 $44 #
coedge $-1 $111 $111 $178 $179 reversed $70 $-1 #
face $-1 $180 $181 $27 $-1 $182 reversed single #
loop $-1 $-1 $183 $72 #
plane-surface $-1 0 -25.346360834089353 0 0 1 0 0 0 1 forward_v I I I I #
coedge $-1 $184 $185 $186 $187 forward $73 $-1 #
coedge $-1 $188 $75 $189 $190 forward $46 $-1 #
coedge $-1 $75 $188 $191 $192 forward $46 $-1 #
coedge $-1 $193 $194 $75 $119 reversed $195 $-1 #
edge $-1 $196 -25.346360834089353 $197 25.346360834089353 $118 $198 forward 7 unknown #
face $-1 $199 $200 $28 $-1 $201 reversed single #
loop $-1 $-1 $202 $76 #
plane-surface $-1 -50.947032768979049 -17.22170153466627 0 -1 0 0 0 0 1 forward_v I I I I #
coedge $-1 $203 $204 $205 $206 forward $77 $-1 #
coedge $-1 $207 $79 $208 $209 reversed $49 $-1 #
coedge $-1 $79 $207 $210 $211 reversed $49 $-1 #
coedge $-1 $212 $213 $79 $127 forward $214 $-1 #
edge $-1 $215 -5.3050450719428577 $216 5.3050450719428577 $126 $217 forward 7 unknown #
face $-1 $218 $219 $29 $-1 $220 reversed single #
loop $-1 $-1 $221 $80 #
plane-surface $-1 -39.084453574393201 -99.579924815173868 89.331477796401472 1 0 0 0 0.64278761758704617 -0.76604443648966558 forward_v I I I I #
coedge $-1 $222 $223 $224 $225 reversed $81 $-1 #
coedge $-1 $133 $83 $226 $227 reversed $52 $-1 #
coedge $-1 $83 $132 $222 $228 reversed $52 $-1 #
coedge $-1 $224 $229 $83 $135 forward $230 $-1 #
edge $-1 $231 24.443601573497581 $232 29.736991929118723 $134 $233 forward 7 unknown #
loop $-1 $-1 $141 $84 #
plane-surface $-1 -27.019931452258689 -25.346360834089339 0.86336308383295091 0 -0.64278761758704617 0.76604443648966558 1 0 0 forward_v I I I I #
loop $-1 $-1 $234 $54 #
coedge $-1 $139 $139 $140 $235 reversed $85 $-1 #
coedge $-1 $140 $140 $139 $235 forward $87 $-1 #
coedge $-1 $141 $141 $88 $142 forward $136 $-1 #
edge $-1 $236 7.5724444277240698e-017 $236 6.2831853071796004 $141 $237 forward 7 unknown #
face $-1 $238 $239 $31 $-1 $240 reversed single #
loop $-1 $-1 $241 $89 #
plane-surface $-1 15.260793514768707 -99.579924815173868 89.331477796401472 1 0 0 0 0.64278761758704617 -0.76604443648966558 forward_v I I I I #
coedge $-1 $242 $243 $244 $245 reversed $90 $-1 #
coedge $-1 $148 $92 $246 $247 reversed $58 $-1 #
coedge $-1 $92 $147 $242 $248 reversed $58 $-1 #
coedge $-1 $244 $249 $92 $150 forward $250 $-1 #
edge $-1 $251 24.443601573497581 $252 29.736991929118723 $149 $253 forward 7 unknown #
loop $-1 $-1 $156 $93 #
plane-surface $-1 27.32531563690322 -25.346360834089339 0.86336308383295091 0 -0.64278761758704617 0.76604443648966558 1 0 0 forward_v I I I I #
loop $-1 $-1 $254 $60 #
coedge $-1 $154 $154 $155 $255 reversed $94 $-1 #
coedge $-1 $155 $155 $154 $255 forward $96 $-1 #
coedge $-1 $156 $156 $97 $157 forward $151 $-1 #
edge $-1 $256 7.5724444277240698e-017 $256 6.2831853071796004 $156 $257 forward 7 unknown #
face $-1 $258 $259 $33 $-1 $260 reversed single #
loop $-1 $-1 $261 $98 #
plane-surface $-1 50.953320858792893 87.070678381804782 111.02747862240994 -1 0 0 0 0.79863551827123203 0.60181501223851219 forward_v I I I I #
coedge $-1 $262 $263 $264 $265 reversed $99 $-1 #
coedge $-1 $163 $101 $266 $267 reversed $64 $-1 #
coedge $-1 $101 $162 $262 $268 reversed $64 $-1 #
coedge $-1 $264 $269 $101 $165 forward $270 $-1 #
edge $-1 $271 18.188978356813038 $272 21.402387708462367 $164 $273 forward 7 unknown #
loop $-1 $-1 $171 $102 #
plane-surface $-1 36.834701977115948 -5.1612800770491134 41.525714752892185 0 0.79863551827123203 0.60181501223851219 1 0 0 forward_v I I I I #
loop $-1 $-1 $274 $66 #
coedge $-1 $169 $169 $170 $275 reversed $103 $-1 #
coedge $-1 $170 $170 $169 $275 forward $105 $-1 #
coedge $-1 $171 $171 $106 $172 forward $166 $-1 #
edge $-1 $276 -3.3449755929996001e-016 $276 6.2831853071796004 $171 $277 forward 7 unknown #
loop $-1 $-1 $178 $107 #
plane-surface $-1 36.834701977115948 -5.1612800770491134 41.525714752892185 0 0.79863551827123203 0.60181501223851219 1 0 0 forward_v I I I I #
loop $-1 $-1 $278 $69 #
coedge $-1 $176 $176 $177 $279 reversed $108 $-1 #
coedge $-1 $177 $177 $176 $279 forward $110 $-1 #
coedge $-1 $178 $178 $111 $179 forward $173 $-1 #
edge $-1 $280 -3.3449755929996001e-016 $280 6.2831853071796004 $178 $281 forward 7 unknown #
face $-1 $282 $283 $27 $-1 $284 reversed single #
loop $-1 $-1 $285 $112 #
plane-surface $-1 -57.743461409344768 0 0 1 0 0 0 0 -1 forward_v I I I I #
coedge $-1 $286 $191 $287 $288 forward $113 $-1 #
coedge $-1 $289 $115 $286 $290 forward $73 $-1 #
coedge $-1 $115 $289 $291 $292 forward $73 $-1 #
coedge $-1 $194 $193 $115 $187 reversed $195 $-1 #
edge $-1 $293 -25.346360834089353 $294 25.346360834089353 $186 $295 forward 7 unknown #
coedge $-1 $117 $116 $296 $297 forward $46 $-1 #
coedge $-1 $298 $299 $116 $190 reversed $283 $-1 #
edge $-1 $197 -57.743461409344768 $300 57.743461409344768 $189 $301 forward 7 unknown #
coedge $-1 $183 $302 $117 $192 reversed $113 $-1 #
edge $-1 $303 -57.743461409344768 $196 57.743461409344768 $191 $304 forward 7 unknown #
coedge $-1 $186 $118 $302 $305 forward $195 $-1 #
coedge $-1 $118 $186 $298 $306 reversed $195 $-1 #
loop $-1 $-1 $193 $282 #
vertex $-1 $119 $307 #
vertex $-1 $119 $308 #
straight-curve $-1 57.743461409344768 0 5.3050450719428577 0 1 0 I I #
face $-1 $309 $310 $28 $-1 $311 forward single #
loop $-1 $-1 $312 $120 #
plane-surface $-1 0 0 -5.3050450719428577 0 0 1 1 0 0 forward_v I I I I #
coedge $-1 $313 $314 $207 $315 forward $121 $-1 #
coedge $-1 $316 $123 $312 $317 reversed $77 $-1 #
coedge $-1 $123 $316 $318 $319 reversed $77 $-1 #
coedge $-1 $314 $313 $123 $206 reversed $121 $-1 #
edge $-1 $320 -5.3050450719428577 $321 5.3050450719428577 $205 $322 forward 7 unknown #
coedge $-1 $125 $124 $202 $315 reversed $49 $-1 #
coedge $-1 $323 $324 $124 $209 forward $200 $-1 #
edge $-1 $325 23.774409224398095 $215 30.570837864763813 $208 $326 forward 7 unknown #
coedge $-1 $327 $328 $125 $211 forward $310 $-1 #
edge $-1 $216 -30.570837864763813 $329 -23.774409224398095 $210 $330 forward 7 unknown #
coedge $-1 $331 $126 $328 $332 reversed $214 $-1 #
coedge $-1 $126 $331 $323 $333 reversed $214 $-1 #
loop $-1 $-1 $331 $309 #
vertex $-1 $333 $334 #
vertex $-1 $127 $335 #
straight-curve $-1 -57.743461409344768 -18.72170153466627 0 0 0 1 I I #
face $-1 $-1 $230 $29 $-1 $336 forward single #
loop $-1 $-1 $337 $128 #
plane-surface $-1 0 -25.346360834089353 0 0 1 0 0 0 1 forward_v I I I I #
coedge $-1 $338 $339 $340 $341 reversed $129 $-1 #
coedge $-1 $342 $131 $133 $228 forward $81 $-1 #
coedge $-1 $131 $342 $338 $343 forward $81 $-1 #
coedge $-1 $340 $134 $131 $225 forward $230 $-1 #
edge $-1 $232 1.445443603994832 $344 25.574487848263857 $224 $345 forward 7 unknown #
coedge $-1 $346 $347 $132 $227 forward $219 $-1 #
edge $-1 $348 -43.802375814367799 $231 -39.360693826257879 $226 $349 forward 7 unknown #
edge $-1 $232 -6.9100304153080785 $348 1.8522068651326679e-014 $133 $350 forward 7 unknown #
coedge $-1 $134 $340 $346 $351 forward $230 $-1 #
loop $-1 $-1 $340 $218 #
vertex $-1 $227 $352 #
vertex $-1 $135 $353 #
straight-curve $-1 -14.955409330124176 -49.789962407586934 5.3050450719428568 0 1 0 I I #
coedge $-1 $234 $234 $-1 $354 reversed $138 $-1 #
edge $-1 $355 0 $355 6.2831853071796004 $139 $356 forward 7 unknown #
vertex $-1 $142 $357 #
ellipse-curve $-1 -27.019931452258689 -22.699665656278786 3.0842040778878963 0 -0.64278761758704617 0.76604443648966558 1.5 0 0 1 I I #
face $-1 $-1 $250 $31 $-1 $358 forward single #
loop $-1 $-1 $359 $143 #
plane-surface $-1 0 -25.346360834089353 0 0 1 0 0 0 1 forward_v I I I I #
coedge $-1 $360 $361 $362 $363 reversed $144 $-1 #
coedge $-1 $364 $146 $148 $248 forward $90 $-1 #
coedge $-1 $146 $364 $360 $365 forward $90 $-1 #
coedge $-1 $362 $149 $146 $245 forward $250 $-1 #
edge $-1 $252 -25.727179940586122 $366 -1.5981356963170974 $244 $367 forward 7 unknown #
coedge $-1 $368 $369 $147 $247 forward $239 $-1 #
edge $-1 $370 -43.802375814367799 $251 -39.360693826257879 $246 $371 forward 7 unknown #
edge $-1 $252 -6.9100304153080785 $370 1.8522068651326679e-014 $148 $372 forward 7 unknown #
coedge $-1 $149 $362 $368 $373 forward $250 $-1 #
loop $-1 $-1 $362 $238 #
vertex $-1 $247 $374 #
vertex $-1 $150 $375 #
straight-curve $-1 39.389837759037732 -49.789962407586934 5.3050450719428568 0 1 0 I I #
coedge $-1 $254 $254 $-1 $376 reversed $153 $-1 #
edge $-1 $377 0 $377 6.2831853071796004 $154 $378 forward 7 unknown #
vertex $-1 $157 $379 #
ellipse-curve $-1 27.32531563690322 -22.699665656278786 3.0842040778878963 0 -0.64278761758704617 0.76604443648966558 1.5 0 0 1 I I #
face $-1 $-1 $270 $33 $-1 $380 forward single #
loop $-1 $-1 $381 $158 #
plane-surface $-1 0 25.346360834089353 0 0 -1 0 0 0 -1 forward_v I I I I #
coedge $-1 $382 $383 $384 $385 reversed $159 $-1 #
coedge $-1 $386 $161 $163 $268 forward $99 $-1 #
coedge $-1 $161 $386 $382 $387 forward $99 $-1 #
coedge $-1 $384 $164 $161 $265 forward $270 $-1 #
edge $-1 $272 4.2987321068810296 $388 32.535969870234922 $264 $389 forward 7 unknown #
coedge $-1 $390 $391 $162 $267 forward $259 $-1 #
edge $-1 $392 -54.47303260035801 $271 -50.208694239262115 $266 $393 forward 7 unknown #
edge $-1 $272 45.353191602790808 $392 50.692721668178713 $163 $394 forward 7 unknown #
coedge $-1 $164 $384 $390 $395 forward $270 $-1 #
loop $-1 $-1 $384 $258 #
vertex $-1 $267 $396 #
vertex $-1 $165 $397 #
straight-curve $-1 22.716083095439004 43.535339190902391 5.3050450719428568 0 -1 0 I I #
coedge $-1 $274 $274 $-1 $398 reversed $168 $-1 #
edge $-1 $399 0 $399 6.2831853071796004 $169 $400 forward 7 unknown #
vertex $-1 $172 $401 #
ellipse-curve $-1 30.783865313540126 23.73965615826469 3.1728758913949067 0 0.79863551827123203 0.60181501223851219 1 0 0 1 I I #
coedge $-1 $278 $278 $-1 $402 reversed $175 $-1 #
edge $-1 $403 0 $403 6.2831853071796004 $176 $404 forward 7 unknown #
vertex $-1 $179 $405 #
ellipse-curve $-1 42.885538640691799 23.73965615826469 3.1728758913949067 0 0.79863551827123203 0.60181501223851219 1 0 0 1 I I #
face $-1 $-1 $195 $27 $-1 $406 reversed single #
loop $-1 $-1 $298 $180 #
plane-surface $-1 0 25.346360834089353 0 0 -1 0 0 0 -1 forward_v I I I I #
coedge $-1 $407 $296 $299 $408 forward $181 $-1 #
coedge $-1 $302 $183 $184 $290 reversed $113 $-1 #
coedge $-1 $296 $407 $183 $288 reversed $181 $-1 #
edge $-1 $303 -5.3050450719428577 $409 5.3050450719428577 $287 $410 forward 7 unknown #
coedge $-1 $185 $184 $407 $411 forward $73 $-1 #
edge $-1 $294 -57.743461409344768 $409 57.743461409344768 $286 $412 forward 7 unknown #
coedge $-1 $299 $298 $185 $292 reversed $283 $-1 #
edge $-1 $413 -57.743461409344768 $293 57.743461409344768 $291 $414 forward 7 unknown #
vertex $-1 $187 $415 #
vertex $-1 $305 $416 #
straight-curve $-1 57.743461409344768 0 -5.3050450719428577 0 -1 0 I I #
coedge $-1 $285 $287 $188 $297 reversed $181 $-1 #
edge $-1 $300 -25.346360834089353 $303 25.346360834089353 $296 $417 forward 7 unknown #
coedge $-1 $291 $189 $194 $306 forward $283 $-1 #
coedge $-1 $189 $291 $285 $408 reversed $283 $-1 #
vertex $-1 $190 $418 #
straight-curve $-1 0 25.346360834089353 5.3050450719428577 -1 0 0 I I #
coedge $-1 $191 $286 $193 $305 reversed $113 $-1 #
vertex $-1 $297 $419 #
straight-curve $-1 0 -25.346360834089353 5.3050450719428577 1 0 0 I I #
edge $-1 $196 -5.3050450719428577 $294 5.3050450719428577 $193 $420 forward 7 unknown #
edge $-1 $197 -5.3050450719428577 $293 5.3050450719428577 $194 $421 forward 7 unknown #
point $-1 57.743461409344768 -25.346360834089353 5.3050450719428577 #
point $-1 57.743461409344768 25.346360834089353 5.3050450719428577 #
face $-1 $-1 $214 $28 $-1 $422 reversed single #
loop $-1 $-1 $318 $199 #
plane-surface $-1 0 0 5.3050450719428577 0 0 1 1 0 0 forward_v I I I I #
coedge $-1 $324 $323 $203 $317 forward $200 $-1 #
coedge $-1 $205 $202 $324 $423 reversed $121 $-1 #
coedge $-1 $202 $205 $327 $424 reversed $121 $-1 #
edge $-1 $329 -5.3050450719428577 $325 5.3050450719428577 $202 $425 forward 7 unknown #
coedge $-1 $204 $203 $331 $426 reversed $77 $-1 #
edge $-1 $427 -30.570837864763813 $321 -23.774409224398095 $312 $428 forward 7 unknown #
coedge $-1 $328 $327 $204 $319 forward $310 $-1 #
edge $-1 $320 23.774409224398095 $429 30.570837864763813 $318 $430 forward 7 unknown #
vertex $-1 $319 $431 #
vertex $-1 $317 $432 #
straight-curve $-1 -50.947032768979049 -15.72170153466627 0 0 0 -1 I I #
coedge $-1 $312 $208 $213 $333 forward $200 $-1 #
coedge $-1 $208 $312 $313 $423 forward $200 $-1 #
vertex $-1 $209 $433 #
straight-curve $-1 -27.172623544580954 -18.72170153466627 -5.3050450719428577 -1 0 0 I I #
coedge $-1 $318 $210 $314 $424 forward $310 $-1 #
coedge $-1 $210 $318 $212 $332 forward $310 $-1 #
vertex $-1 $211 $434 #
straight-curve $-1 -27.172623544580954 -18.72170153466627 5.3050450719428577 1 0 0 I I #
coedge $-1 $213 $212 $316 $426 forward $214 $-1 #
edge $-1 $429 15.72170153466627 $216 18.72170153466627 $212 $435 forward 7 unknown #
edge $-1 $215 -18.72170153466627 $427 -15.72170153466627 $213 $436 forward 7 unknown #
point $-1 -57.743461409344768 -18.72170153466627 -5.3050450719428577 #
point $-1 -57.743461409344768 -18.72170153466627 5.3050450719428577 #
plane-surface $-1 0 0 5.3050450719428577 0 0 1 1 0 0 forward_v I I I I #
coedge $-1 $347 $346 $339 $437 forward $219 $-1 #
coedge $-1 $339 $221 $223 $343 reversed $129 $-1 #
coedge $-1 $221 $338 $337 $437 reversed $129 $-1 #
coedge $-1 $229 $224 $221 $341 forward $230 $-1 #
edge $-1 $344 -29.736991929118723 $438 -24.443601573497581 $340 $439 forward 7 unknown #
coedge $-1 $223 $222 $347 $440 reversed $81 $-1 #
edge $-1 $441 -1.8522068651326679e-014 $344 6.9100304153080785 $338 $442 forward 7 unknown #
vertex $-1 $225 $443 #
straight-curve $-1 -13.509965726129344 -20.052970478468211 5.3050450719428586 -1 0 0 I I #
coedge $-1 $337 $226 $229 $351 reversed $219 $-1 #
coedge $-1 $226 $337 $342 $440 forward $219 $-1 #
vertex $-1 $227 $444 #
straight-curve $-1 -14.955409330124176 -25.346360834089353 44.665738898200736 0 0 1 I I #
straight-curve $-1 -14.955409330124176 -25.346360834089339 0.86336308383295091 0 -0.76604443648966558 -0.64278761758704617 I I #
edge $-1 $438 -39.084453574393201 $231 -14.955409330124176 $346 $445 forward 7 unknown #
point $-1 -14.955409330124176 -25.346360834089353 5.3050450719428577 #
point $-1 -14.955409330124176 -20.052970478468211 5.3050450719428577 #
edge $-1 $446 1 $446 0 $234 $-1 forward 7 unknown #
vertex $-1 $235 $447 #
ellipse-curve $-1 -27.019931452258689 -21.185876982303505 1.2801410250354581 0 -0.64278761758704617 0.76604443648966558 1.5 0 0 1 I I #
point $-1 -25.519931452258689 -22.699665656278796 3.0842040778879092 #
plane-surface $-1 0 0 5.3050450719428577 0 0 1 1 0 0 forward_v I I I I #
coedge $-1 $369 $368 $361 $448 forward $239 $-1 #
coedge $-1 $361 $241 $243 $365 reversed $144 $-1 #
coedge $-1 $241 $360 $359 $448 reversed $144 $-1 #
coedge $-1 $249 $244 $241 $363 forward $250 $-1 #
edge $-1 $366 -29.736991929118723 $449 -24.443601573497581 $362 $450 forward 7 unknown #
coedge $-1 $243 $242 $369 $451 reversed $90 $-1 #
edge $-1 $452 -1.8522068651326679e-014 $366 6.9100304153080785 $360 $453 forward 7 unknown #
vertex $-1 $245 $454 #
straight-curve $-1 13.66265781845161 -20.052970478468211 5.3050450719428586 -1 0 0 I I #
coedge $-1 $359 $246 $249 $373 reversed $239 $-1 #
coedge $-1 $246 $359 $364 $451 forward $239 $-1 #
vertex $-1 $247 $455 #
straight-curve $-1 39.389837759037732 -25.346360834089353 44.665738898200736 0 0 1 I I #
straight-curve $-1 39.389837759037732 -25.346360834089339 0.86336308383295091 0 -0.76604443648966558 -0.64278761758704617 I I #
edge $-1 $449 15.260793514768707 $251 39.389837759037732 $368 $456 forward 7 unknown #
point $-1 39.389837759037732 -25.346360834089353 5.3050450719428577 #
point $-1 39.389837759037732 -20.052970478468211 5.3050450719428577 #
edge $-1 $457 1 $457 0 $254 $-1 forward 7 unknown #
vertex $-1 $255 $458 #
ellipse-curve $-1 27.32531563690322 -21.185876982303505 1.2801410250354581 0 -0.64278761758704617 0.76604443648966558 1.5 0 0 1 I I #
point $-1 28.82531563690322 -22.699665656278796 3.0842040778879092 #
plane-surface $-1 0 0 5.3050450719428577 0 0 1 1 0 0 forward_v I I I I #
coedge $-1 $391 $390 $383 $459 forward $259 $-1 #
coedge $-1 $383 $261 $263 $387 reversed $159 $-1 #
coedge $-1 $261 $382 $381 $459 reversed $159 $-1 #
coedge $-1 $269 $264 $261 $385 forward $270 $-1 #
edge $-1 $388 -21.402387708462367 $460 -18.188978356813038 $384 $461 forward 7 unknown #
coedge $-1 $263 $262 $391 $462 reversed $99 $-1 #
edge $-1 $463 -50.692721668178713 $388 -45.353191602790808 $382 $464 forward 7 unknown #
vertex $-1 $265 $465 #
straight-curve $-1 18.417350988557974 22.132951482440028 5.3050450719428568 1 0 0 I I #
coedge $-1 $381 $266 $269 $395 reversed $259 $-1 #
coedge $-1 $266 $381 $386 $462 forward $259 $-1 #
vertex $-1 $267 $466 #
straight-curve $-1 22.716083095439004 25.346360834089353 55.513739311204972 0 0 1 I I #
straight-curve $-1 22.716083095439004 -5.1612800770491134 41.525714752892185 0 0.60181501223851219 -0.79863551827123203 I I #
edge $-1 $460 -50.953320858792893 $271 -22.716083095439004 $390 $467 forward 7 unknown #
point $-1 22.716083095439004 25.346360834089353 5.3050450719428577 #
point $-1 22.716083095439004 22.132951482440024 5.3050450719428568 #
edge $-1 $468 1 $468 0 $274 $-1 forward 7 unknown #
vertex $-1 $275 $469 #
ellipse-curve $-1 30.783865313540126 20.789479443808492 0.94975834290484662 0 0.79863551827123203 0.60181501223851219 1 0 0 1 I I #
point $-1 31.783865313540126 23.739656158264697 3.1728758913949124 #
edge $-1 $470 1 $470 0 $278 $-1 forward 7 unknown #
vertex $-1 $279 $471 #
ellipse-curve $-1 42.885538640691799 20.789479443808492 0.94975834290484662 0 0.79863551827123203 0.60181501223851219 1 0 0 1 I I #
point $-1 43.885538640691799 23.739656158264697 3.1728758913949124 #
plane-surface $-1 57.743461409344768 0 0 -1 0 0 0 0 1 forward_v I I I I #
coedge $-1 $287 $285 $289 $411 reversed $181 $-1 #
edge $-1 $300 -5.3050450719428577 $413 5.3050450719428577 $299 $472 forward 7 unknown #
vertex $-1 $411 $473 #
straight-curve $-1 -57.743461409344768 -25.346360834089353 0 0 0 -1 I I #
edge $-1 $409 -25.346360834089353 $413 25.346360834089353 $407 $474 forward 7 unknown #
straight-curve $-1 0 -25.346360834089353 -5.3050450719428577 -1 0 0 I I #
vertex $-1 $292 $475 #
straight-curve $-1 0 25.346360834089353 -5.3050450719428577 1 0 0 I I #
point $-1 57.743461409344768 25.346360834089353 -5.3050450719428577 #
point $-1 57.743461409344768 -25.346360834089353 -5.3050450719428577 #
straight-curve $-1 -57.743461409344768 0 5.3050450719428577 0 -1 0 I I #
point $-1 -57.743461409344768 25.346360834089353 5.3050450719428577 #
point $-1 -57.743461409344768 -25.346360834089353 5.3050450719428577 #
straight-curve $-1 57.743461409344768 -25.346360834089353 0 0 0 -1 I I #
straight-curve $-1 57.743461409344768 25.346360834089353 0 0 0 -1 I I #
plane-surface $-1 -57.743461409344768 0 0 1 0 0 0 0 -1 forward_v I I I I #
edge $-1 $321 7.1108507673331349 $325 10.110850767333135 $324 $476 forward 7 unknown #
edge $-1 $329 -10.110850767333135 $320 -7.1108507673331349 $327 $477 forward 7 unknown #
straight-curve $-1 -50.947032768979049 -18.72170153466627 0 0 0 -1 I I #
edge $-1 $429 -5.3050450719428577 $427 5.3050450719428577 $331 $478 forward 7 unknown #
vertex $-1 $426 $479 #
straight-curve $-1 -27.172623544580954 -15.72170153466627 -5.3050450719428577 1 0 0 I I #
vertex $-1 $332 $480 #
straight-curve $-1 -27.172623544580954 -15.72170153466627 5.3050450719428577 -1 0 0 I I #
point $-1 -50.947032768979049 -15.72170153466627 5.3050450719428577 #
point $-1 -50.947032768979049 -15.72170153466627 -5.3050450719428577 #
point $-1 -50.947032768979049 -18.72170153466627 -5.3050450719428577 #
point $-1 -50.947032768979049 -18.72170153466627 5.3050450719428577 #
straight-curve $-1 -57.743461409344768 0 5.3050450719428577 0 -1 0 I I #
straight-curve $-1 -57.743461409344768 0 -5.3050450719428577 0 1 0 I I #
edge $-1 $438 39.360693826257879 $441 43.802375814367799 $337 $481 forward 7 unknown #
vertex $-1 $351 $482 #
straight-curve $-1 -39.084453574393201 -49.789962407586934 5.3050450719428568 0 -1 0 I I #
edge $-1 $441 -25.574487848263857 $348 -1.445443603994832 $347 $483 forward 7 unknown #
vertex $-1 $440 $484 #
straight-curve $-1 -39.084453574393201 -25.346360834089339 0.86336308383295091 0 0.76604443648966558 0.64278761758704617 I I #
point $-1 -39.084453574393201 -20.052970478468211 5.3050450719428577 #
point $-1 -14.955409330124176 -25.346360834089353 0.86336308383293903 #
straight-curve $-1 0 -25.346360834089353 5.3050450719428577 1 0 0 I I #
vertex $-1 $354 $485 #
point $-1 -25.519931452258689 -21.185876982303505 1.2801410250354581 #
edge $-1 $449 39.360693826257879 $452 43.802375814367799 $359 $486 forward 7 unknown #
vertex $-1 $373 $487 #
straight-curve $-1 15.260793514768707 -49.789962407586934 5.3050450719428568 0 -1 0 I I #
edge $-1 $452 1.5981356963170974 $370 25.727179940586122 $369 $488 forward 7 unknown #
vertex $-1 $451 $489 #
straight-curve $-1 15.260793514768707 -25.346360834089339 0.86336308383295091 0 0.76604443648966558 0.64278761758704617 I I #
point $-1 15.260793514768707 -20.052970478468211 5.3050450719428577 #
point $-1 39.389837759037732 -25.346360834089353 0.86336308383293903 #
straight-curve $-1 0 -25.346360834089353 5.3050450719428577 1 0 0 I I #
vertex $-1 $376 $490 #
point $-1 28.82531563690322 -21.185876982303505 1.2801410250354581 #
edge $-1 $460 50.208694239262115 $463 54.47303260035801 $381 $491 forward 7 unknown #
vertex $-1 $395 $492 #
straight-curve $-1 50.953320858792893 43.535339190902391 5.3050450719428568 0 1 0 I I #
edge $-1 $463 -32.535969870234922 $392 -4.2987321068810296 $391 $493 forward 7 unknown #
vertex $-1 $462 $494 #
straight-curve $-1 50.953320858792893 -5.1612800770491134 41.525714752892185 0 -0.60181501223851219 0.79863551827123203 I I #
point $-1 50.953320858792893 22.132951482440024 5.3050450719428568 #
point $-1 22.716083095439004 25.346360834089349 1.0407067108469619 #
straight-curve $-1 0 25.346360834089353 5.3050450719428577 -1 0 0 I I #
vertex $-1 $398 $495 #
point $-1 31.783865313540126 20.789479443808492 0.94975834290484662 #
vertex $-1 $402 $496 #
point $-1 43.885538640691799 20.789479443808492 0.94975834290484662 #
straight-curve $-1 -57.743461409344768 25.346360834089353 0 0 0 -1 I I #
point $-1 -57.743461409344768 -25.346360834089353 -5.3050450719428577 #
straight-curve $-1 -57.743461409344768 0 -5.3050450719428577 0 1 0 I I #
point $-1 -57.743461409344768 25.346360834089353 -5.3050450719428577 #
straight-curve $-1 -50.947032768979049 -8.6108507673331349 -5.3050450719428577 0 -1 0 I I #
straight-curve $-1 -50.947032768979049 -8.6108507673331349 5.3050450719428577 0 1 0 I I #
straight-curve $-1 -57.743461409344768 -15.72170153466627 0 0 0 -1 I I #
point $-1 -57.743461409344768 -15.72170153466627 -5.3050450719428577 #
point $-1 -57.743461409344768 -15.72170153466627 5.3050450719428577 #
straight-curve $-1 -39.084453574393201 -25.346360834089353 44.665738898200736 0 0 -1 I I #
point $-1 -39.084453574393201 -25.346360834089353 5.3050450719428577 #
straight-curve $-1 -13.509965726129344 -25.346360834089353 0.86336308383293936 1 0 0 I I #
point $-1 -39.084453574393201 -25.346360834089353 0.86336308383293903 #
point $-1 -27.019931452258689 -20.221695555922935 0.13107437030095992 #
straight-curve $-1 15.260793514768707 -25.346360834089353 44.665738898200736 0 0 -1 I I #
point $-1 15.260793514768707 -25.346360834089353 5.3050450719428577 #
straight-curve $-1 13.66265781845161 -25.346360834089353 0.86336308383293936 1 0 0 I I #
point $-1 15.260793514768707 -25.346360834089353 0.86336308383293903 #
point $-1 27.32531563690322 -20.221695555922935 0.13107437030095992 #
straight-curve $-1 50.953320858792893 25.346360834089353 55.513739311204972 0 0 -1 I I #
point $-1 50.953320858792893 25.346360834089353 5.3050450719428577 #
straight-curve $-1 18.417350988557974 25.346360834089353 1.0407067108469619 -1 0 0 I I #
point $-1 50.953320858792893 25.346360834089349 1.0407067108469619 #
point $-1 30.783865313540126 19.990843925537259 0.34794333066633443 #
point $-1 42.885538640691799 19.990843925537259 0.34794333066633443 #
End-of-ACIS-data 