500 0 10 0           
7 Unknown 11 ACIS 5.0 NT 24 Fri Mar 26 14:28:52 1999 
-1 9.9999999999999995e-007 1e-010 
body $-1 $10 $-1 $11 #
body $-1 $12 $-1 $13 #
body $-1 $14 $-1 $15 #
body $-1 $16 $-1 $17 #
body $-1 $18 $-1 $19 #
body $-1 $20 $-1 $21 #
body $-1 $22 $-1 $23 #
body $-1 $24 $-1 $25 #
body $-1 $26 $-1 $27 #
body $-1 $28 $-1 $29 #
lump $-1 $-1 $30 $0 #
transform $-1 1 0 0 0 1 0 0 0 1 70.657673879207735 37.154848421915737 14.112651248486685 1 rotate no_reflect no_shear #
lump $-1 $-1 $31 $1 #
transform $-1 1 0 0 0 1 0 0 0 1 70.657673879207735 37.154848421915737 14.112651248486685 1 rotate no_reflect no_shear #
lump $-1 $-1 $32 $2 #
transform $-1 1 0 0 0 1 0 0 0 1 70.657673879207735 37.154848421915737 14.112651248486685 1 rotate no_reflect no_shear #
lump $-1 $-1 $33 $3 #
transform $-1 1 0 0 0 1 0 0 0 1 70.657673879207735 37.154848421915737 14.112651248486685 1 rotate no_reflect no_shear #
lump $-1 $-1 $34 $4 #
transform $-1 1 0 0 0 1 0 0 0 1 70.657673879207735 37.154848421915737 14.112651248486685 1 rotate no_reflect no_shear #
lump $-1 $-1 $35 $5 #
transform $-1 1 0 0 0 1 0 0 0 1 70.657673879207735 37.154848421915737 14.112651248486685 1 rotate no_reflect no_shear #
lump $-1 $-1 $36 $6 #
transform $-1 1 0 0 0 1 0 0 0 1 70.657673879207735 37.154848421915737 14.112651248486685 1 rotate no_reflect no_shear #
lump $-1 $-1 $37 $7 #
transform $-1 1 0 0 0 1 0 0 0 1 70.657673879207735 37.154848421915737 14.112651248486685 1 rotate no_reflect no_shear #
lump $-1 $-1 $38 $8 #
transform $-1 1 0 0 0 1 0 0 0 1 70.657673879207735 37.154848421915737 14.112651248486685 1 rotate no_reflect no_shear #
lump $-1 $-1 $39 $9 #
transform $-1 1 0 0 0 1 0 0 0 1 70.657673879207735 37.154848421915737 14.112651248486685 1 rotate no_reflect no_shear #
shell $-1 $-1 $-1 $40 $-1 $10 #
shell $-1 $-1 $-1 $41 $-1 $12 #
shell $-1 $-1 $-1 $42 $-1 $14 #
shell $-1 $-1 $-1 $43 $-1 $16 #
shell $-1 $-1 $-1 $44 $-1 $18 #
shell $-1 $-1 $-1 $45 $-1 $20 #
shell $-1 $-1 $-1 $46 $-1 $22 #
shell $-1 $-1 $-1 $47 $-1 $24 #
shell $-1 $-1 $-1 $48 $-1 $26 #
shell $-1 $-1 $-1 $49 $-1 $28 #
face $-1 $50 $51 $30 $-1 $52 forward single #
face $-1 $53 $54 $31 $-1 $55 forward single #
face $-1 $56 $57 $32 $-1 $58 reversed single #
face $-1 $59 $60 $33 $-1 $61 forward single #
face $-1 $62 $63 $34 $-1 $64 forward single #
face $-1 $65 $66 $35 $-1 $67 forward single #
face $-1 $68 $69 $36 $-1 $70 reversed single #
face $-1 $71 $72 $37 $-1 $73 forward single #
face $-1 $74 $75 $38 $-1 $76 forward single #
face $-1 $77 $78 $39 $-1 $79 forward single #
face $-1 $80 $81 $30 $-1 $82 reversed single #
loop $-1 $-1 $83 $40 #
plane-surface $-1 0 0 14.112651248486685 0 0 1 1 0 0 forward_v I I I I #
face $-1 $84 $85 $31 $-1 $86 reversed single #
loop $-1 $-1 $87 $41 #
plane-surface $-1 0 -32.457308579497081 -5.5191241760996768 0 0 1 1 0 0 forward_v I I I I #
face $-1 $88 $89 $32 $-1 $90 reversed single #
loop $-1 $-1 $91 $42 #
plane-surface $-1 -159.59030489620412 -19.79636193280675 115.5755090619507 0 1 0 -0.62932039886446345 0 0.77714595512881146 forward_v I I I I #
face $-1 $92 $93 $33 $-1 $94 forward single #
loop $-1 $95 $96 $43 #
cone-surface $-1 -64.835190339563169 -17.099018634773458 9.1168071840365297 0.62932039886446345 0 -0.77714595512881146 0.77714595512881146 0 0.62932039886446345 1 I I 0 1 1 forward I I I I #
face $-1 $97 $98 $34 $-1 $99 forward single #
loop $-1 $100 $101 $44 #
cone-surface $-1 -64.835190339563169 -13.053003687723518 9.1168071840365297 0.62932039886446345 0 -0.77714595512881146 0.77714595512881146 0 0.62932039886446345 1 I I 0 1 1 forward I I I I #
face $-1 $102 $103 $35 $-1 $104 forward single #
loop $-1 $105 $106 $45 #
cone-surface $-1 -64.835190339563169 -9.0069887406735774 9.1168071840365297 0.62932039886446345 0 -0.77714595512881146 0.77714595512881146 0 0.62932039886446345 1 I I 0 1 1 forward I I I I #
face $-1 $107 $108 $36 $-1 $109 reversed single #
loop $-1 $-1 $110 $46 #
plane-surface $-1 49.767653988130178 -6.309645442640285 204.50814007894709 0 -1 0 -0.62932039886446345 0 -0.77714595512881146 forward_v I I I I #
face $-1 $111 $112 $37 $-1 $113 forward single #
loop $-1 $114 $115 $47 #
cone-surface $-1 64.835190339563155 -17.099018634773458 9.1168071840365439 -0.62932039886446345 0 -0.77714595512881146 0.77714595512881146 0 -0.62932039886446345 1 I I 0 1 1 forward I I I I #
face $-1 $116 $117 $38 $-1 $118 forward single #
loop $-1 $119 $120 $48 #
cone-surface $-1 64.835190339563155 -13.053003687723518 9.1168071840365439 -0.62932039886446345 0 -0.77714595512881146 0.77714595512881146 0 -0.62932039886446345 1 I I 0 1 1 forward I I I I #
face $-1 $121 $122 $39 $-1 $123 forward single #
loop $-1 $124 $125 $49 #
cone-surface $-1 64.835190339563155 -9.0069887406735774 9.1168071840365439 -0.62932039886446345 0 -0.77714595512881146 0.77714595512881146 0 -0.62932039886446345 1 I I 0 1 1 forward I I I I #
face $-1 $126 $127 $30 $-1 $128 reversed single #
loop $-1 $-1 $129 $50 #
plane-surface $-1 0 0 -14.112651248486685 0 0 1 1 0 0 forward_v I I I I #
coedge $-1 $130 $131 $132 $133 forward $51 $-1 #
face $-1 $134 $135 $31 $-1 $136 reversed single #
loop $-1 $-1 $137 $53 #
plane-surface $-1 0 -32.457308579497081 -9.813087932841599 0 0 1 1 0 0 forward_v I I I I #
coedge $-1 $138 $139 $140 $141 reversed $54 $-1 #
face $-1 $142 $143 $32 $-1 $144 reversed single #
loop $-1 $-1 $145 $56 #
plane-surface $-1 -70.657673879207735 -13.053003687723518 5.7528581538767583 -0.62932039886446345 0 0.77714595512881146 0.77714595512881146 0 0.62932039886446345 forward_v I I I I #
coedge $-1 $146 $147 $148 $149 reversed $57 $-1 #
face $-1 $-1 $150 $33 $-1 $151 forward single #
loop $-1 $152 $153 $59 #
cone-surface $-1 -63.859788855236559 -17.099018634773458 7.9122866893269332 0.62932039886446345 0 -0.77714595512881146 0.38857297756440573 0 0.31466019943223172 1 I I -0.70710678118654746 0.70710678118654746 0.5 forward I I I I #
loop $-1 $-1 $154 $43 #
coedge $-1 $96 $96 $155 $156 reversed $60 $-1 #
face $-1 $-1 $157 $34 $-1 $158 forward single #
loop $-1 $159 $160 $62 #
cone-surface $-1 -63.859788855236559 -13.053003687723518 7.9122866893269332 0.62932039886446345 0 -0.77714595512881146 0.38857297756440573 0 0.31466019943223172 1 I I -0.70710678118654746 0.70710678118654746 0.5 forward I I I I #
loop $-1 $-1 $161 $44 #
coedge $-1 $101 $101 $162 $163 reversed $63 $-1 #
face $-1 $-1 $164 $35 $-1 $165 forward single #
loop $-1 $166 $167 $65 #
cone-surface $-1 -63.859788855236559 -9.0069887406735774 7.9122866893269332 0.62932039886446345 0 -0.77714595512881146 0.38857297756440573 0 0.31466019943223172 1 I I -0.70710678118654746 0.70710678118654746 0.5 forward I I I I #
loop $-1 $-1 $168 $45 #
coedge $-1 $106 $106 $169 $170 reversed $66 $-1 #
face $-1 $171 $172 $36 $-1 $173 reversed single #
loop $-1 $-1 $174 $68 #
plane-surface $-1 -39.164977028866204 -13.053003687723518 94.685489170873154 0.62932039886446345 0 0.77714595512881146 0.77714595512881146 0 -0.62932039886446345 forward_v I I I I #
coedge $-1 $175 $176 $177 $178 reversed $69 $-1 #
face $-1 $-1 $179 $37 $-1 $180 forward single #
loop $-1 $181 $182 $71 #
cone-surface $-1 63.859788855236545 -17.099018634773458 7.9122866893269475 -0.62932039886446345 0 -0.77714595512881146 0.38857297756440573 0 -0.31466019943223172 1 I I -0.70710678118654746 0.70710678118654746 0.5 forward I I I I #
loop $-1 $-1 $183 $47 #
coedge $-1 $115 $115 $184 $185 reversed $72 $-1 #
face $-1 $-1 $186 $38 $-1 $187 forward single #
loop $-1 $188 $189 $74 #
cone-surface $-1 63.859788855236545 -13.053003687723518 7.9122866893269475 -0.62932039886446345 0 -0.77714595512881146 0.38857297756440573 0 -0.31466019943223172 1 I I -0.70710678118654746 0.70710678118654746 0.5 forward I I I I #
loop $-1 $-1 $190 $48 #
coedge $-1 $120 $120 $191 $192 reversed $75 $-1 #
face $-1 $-1 $193 $39 $-1 $194 forward single #
loop $-1 $195 $196 $77 #
cone-surface $-1 63.859788855236545 -9.0069887406735774 7.9122866893269475 -0.62932039886446345 0 -0.77714595512881146 0.38857297756440573 0 -0.31466019943223172 1 I I -0.70710678118654746 0.70710678118654746 0.5 forward I I I I #
loop $-1 $-1 $197 $49 #
coedge $-1 $125 $125 $198 $199 reversed $78 $-1 #
face $-1 $200 $201 $30 $-1 $202 reversed single #
loop $-1 $-1 $203 $80 #
plane-surface $-1 0 -37.154848421915737 0 0 1 0 0 0 1 forward_v I I I I #
coedge $-1 $204 $205 $206 $207 forward $81 $-1 #
coedge $-1 $208 $83 $209 $210 forward $51 $-1 #
coedge $-1 $83 $208 $211 $212 forward $51 $-1 #
coedge $-1 $213 $214 $83 $133 reversed $215 $-1 #
edge $-1 $216 -37.154848421915737 $217 37.154848421915737 $132 $218 forward 7 unknown #
face $-1 $219 $220 $31 $-1 $221 reversed single #
loop $-1 $-1 $222 $84 #
plane-surface $-1 0 -27.759768737078428 -7.6661060544706379 0 -1 0 0 0 -1 forward_v I I I I #
coedge $-1 $223 $224 $225 $226 reversed $85 $-1 #
coedge $-1 $227 $87 $228 $229 forward $54 $-1 #
coedge $-1 $87 $227 $230 $231 reversed $54 $-1 #
coedge $-1 $232 $233 $87 $141 forward $234 $-1 #
edge $-1 $235 11.531114447329887 $236 20.926194132167197 $140 $237 forward 7 unknown #
face $-1 $238 $239 $32 $-1 $240 reversed single #
loop $-1 $-1 $241 $88 #
plane-surface $-1 -159.59030489620412 -6.309645442640285 115.5755090619507 0 -1 0 0.62932039886446345 0 -0.77714595512881146 forward_v I I I I #
coedge $-1 $242 $243 $244 $245 reversed $89 $-1 #
coedge $-1 $147 $91 $246 $247 reversed $57 $-1 #
coedge $-1 $91 $146 $242 $248 reversed $57 $-1 #
coedge $-1 $244 $249 $91 $149 forward $250 $-1 #
edge $-1 $251 9.1374785688943234 $252 19.460963078394684 $148 $253 forward 7 unknown #
loop $-1 $-1 $155 $92 #
plane-surface $-1 -70.657673879207735 -13.053003687723518 5.7528581538767583 -0.62932039886446345 0 0.77714595512881146 0.77714595512881146 0 0.62932039886446345 forward_v I I I I #
loop $-1 $-1 $254 $59 #
coedge $-1 $153 $153 $154 $255 reversed $93 $-1 #
coedge $-1 $154 $154 $153 $255 forward $95 $-1 #
coedge $-1 $155 $155 $96 $156 forward $150 $-1 #
edge $-1 $256 0 $256 6.2831853071796004 $155 $257 forward 7 unknown #
loop $-1 $-1 $162 $97 #
plane-surface $-1 -70.657673879207735 -13.053003687723518 5.7528581538767583 -0.62932039886446345 0 0.77714595512881146 0.77714595512881146 0 0.62932039886446345 forward_v I I I I #
loop $-1 $-1 $258 $62 #
coedge $-1 $160 $160 $161 $259 reversed $98 $-1 #
coedge $-1 $161 $161 $160 $259 forward $100 $-1 #
coedge $-1 $162 $162 $101 $163 forward $157 $-1 #
edge $-1 $260 0 $260 6.2831853071796004 $162 $261 forward 7 unknown #
loop $-1 $-1 $169 $102 #
plane-surface $-1 -70.657673879207735 -13.053003687723518 5.7528581538767583 -0.62932039886446345 0 0.77714595512881146 0.77714595512881146 0 0.62932039886446345 forward_v I I I I #
loop $-1 $-1 $262 $65 #
coedge $-1 $167 $167 $168 $263 reversed $103 $-1 #
coedge $-1 $168 $168 $167 $263 forward $105 $-1 #
coedge $-1 $169 $169 $106 $170 forward $164 $-1 #
edge $-1 $264 0 $264 6.2831853071796004 $169 $265 forward 7 unknown #
face $-1 $266 $267 $36 $-1 $268 forward single #
loop $-1 $-1 $269 $107 #
plane-surface $-1 49.767653988130178 -19.79636193280675 204.50814007894709 0 1 0 0.62932039886446345 0 0.77714595512881146 forward_v I I I I #
coedge $-1 $270 $271 $272 $273 reversed $108 $-1 #
coedge $-1 $176 $110 $274 $275 reversed $69 $-1 #
coedge $-1 $110 $175 $270 $276 reversed $69 $-1 #
coedge $-1 $272 $277 $110 $178 forward $267 $-1 #
edge $-1 $278 -45.773846885142646 $279 -35.4503623756423 $177 $280 forward 7 unknown #
loop $-1 $-1 $184 $111 #
plane-surface $-1 -39.164977028866204 -13.053003687723518 94.685489170873154 0.62932039886446345 0 0.77714595512881146 0.77714595512881146 0 -0.62932039886446345 forward_v I I I I #
loop $-1 $-1 $281 $71 #
coedge $-1 $182 $182 $183 $282 reversed $112 $-1 #
coedge $-1 $183 $183 $182 $282 forward $114 $-1 #
coedge $-1 $184 $184 $115 $185 forward $179 $-1 #
edge $-1 $283 0 $283 6.2831853071796004 $184 $284 forward 7 unknown #
loop $-1 $-1 $191 $116 #
plane-surface $-1 -39.164977028866204 -13.053003687723518 94.685489170873154 0.62932039886446345 0 0.77714595512881146 0.77714595512881146 0 -0.62932039886446345 forward_v I I I I #
loop $-1 $-1 $285 $74 #
coedge $-1 $189 $189 $190 $286 reversed $117 $-1 #
coedge $-1 $190 $190 $189 $286 forward $119 $-1 #
coedge $-1 $191 $191 $120 $192 forward $186 $-1 #
edge $-1 $287 0 $287 6.2831853071796004 $191 $288 forward 7 unknown #
loop $-1 $-1 $198 $121 #
plane-surface $-1 -39.164977028866204 -13.053003687723518 94.685489170873154 0.62932039886446345 0 0.77714595512881146 0.77714595512881146 0 -0.62932039886446345 forward_v I I I I #
loop $-1 $-1 $289 $77 #
coedge $-1 $196 $196 $197 $290 reversed $122 $-1 #
coedge $-1 $197 $197 $196 $290 forward $124 $-1 #
coedge $-1 $198 $198 $125 $199 forward $193 $-1 #
edge $-1 $291 0 $291 6.2831853071796004 $198 $292 forward 7 unknown #
face $-1 $293 $294 $30 $-1 $295 reversed single #
loop $-1 $-1 $296 $126 #
plane-surface $-1 -70.657673879207735 0 0 1 0 0 0 0 -1 forward_v I I I I #
coedge $-1 $297 $211 $298 $299 forward $127 $-1 #
coedge $-1 $300 $129 $297 $301 forward $81 $-1 #
coedge $-1 $129 $300 $302 $303 forward $81 $-1 #
coedge $-1 $214 $213 $129 $207 reversed $215 $-1 #
edge $-1 $304 -37.154848421915737 $305 37.154848421915737 $206 $306 forward 7 unknown #
coedge $-1 $131 $130 $307 $308 forward $51 $-1 #
coedge $-1 $309 $310 $130 $210 reversed $294 $-1 #
edge $-1 $217 -70.657673879207735 $311 70.657673879207735 $209 $312 forward 7 unknown #
coedge $-1 $203 $313 $131 $212 reversed $127 $-1 #
edge $-1 $314 -70.657673879207735 $216 70.657673879207735 $211 $315 forward 7 unknown #
coedge $-1 $206 $132 $313 $316 forward $215 $-1 #
coedge $-1 $132 $206 $309 $317 reversed $215 $-1 #
loop $-1 $-1 $213 $293 #
vertex $-1 $133 $318 #
vertex $-1 $133 $319 #
straight-curve $-1 70.657673879207735 0 14.112651248486685 0 1 0 I I #
face $-1 $320 $321 $31 $-1 $322 reversed single #
loop $-1 $-1 $323 $134 #
plane-surface $-1 -70.657673879207735 0 0 1 0 0 0 0 -1 forward_v I I I I #
coedge $-1 $324 $228 $233 $325 reversed $135 $-1 #
coedge $-1 $326 $137 $327 $328 reversed $85 $-1 #
coedge $-1 $137 $326 $324 $329 forward $85 $-1 #
coedge $-1 $233 $232 $137 $226 forward $234 $-1 #
edge $-1 $330 -20.926194132167197 $331 -11.531114447329887 $225 $332 forward 7 unknown #
coedge $-1 $139 $138 $323 $333 reversed $54 $-1 #
coedge $-1 $222 $334 $138 $229 reversed $135 $-1 #
edge $-1 $235 -70.657673879207735 $335 70.657673879207735 $228 $336 forward 7 unknown #
coedge $-1 $337 $338 $139 $231 forward $321 $-1 #
edge $-1 $236 -70.657673879207735 $339 70.657673879207735 $230 $340 forward 7 unknown #
coedge $-1 $225 $140 $338 $341 forward $234 $-1 #
coedge $-1 $140 $225 $222 $325 forward $234 $-1 #
loop $-1 $-1 $140 $320 #
vertex $-1 $141 $342 #
vertex $-1 $341 $343 #
straight-curve $-1 70.657673879207735 -16.22865428974854 -5.5191241760996768 0 -1 0 I I #
face $-1 $-1 $250 $32 $-1 $344 forward single #
loop $-1 $-1 $345 $142 #
plane-surface $-1 -70.657673879207735 0 0 1 0 0 0 0 -1 forward_v I I I I #
coedge $-1 $346 $347 $348 $349 reversed $143 $-1 #
coedge $-1 $350 $145 $147 $248 forward $89 $-1 #
coedge $-1 $145 $350 $346 $351 forward $89 $-1 #
coedge $-1 $348 $148 $145 $245 forward $250 $-1 #
edge $-1 $252 -13.269860088944991 $352 0.21685640122147376 $244 $353 forward 7 unknown #
coedge $-1 $354 $355 $146 $247 forward $239 $-1 #
edge $-1 $356 -52.03489637709859 $251 -43.675103282488664 $246 $357 forward 7 unknown #
edge $-1 $252 -13.283842554117452 $356 0 $147 $358 forward 7 unknown #
coedge $-1 $148 $348 $354 $359 forward $250 $-1 #
loop $-1 $-1 $348 $238 #
vertex $-1 $247 $360 #
vertex $-1 $149 $361 #
straight-curve $-1 -79.795152448102058 -19.79636193280675 14.112651248486685 1 0 0 I I #
coedge $-1 $254 $254 $-1 $362 reversed $152 $-1 #
edge $-1 $363 0 $363 6.2831853071796004 $153 $364 forward 7 unknown #
vertex $-1 $156 $365 #
ellipse-curve $-1 -65.495931624457555 -17.099018634773458 9.9327547011817252 -0.62932039886446345 0 0.77714595512881146 0.77714595512881146 0 0.62932039886446345 1 I I #
coedge $-1 $258 $258 $-1 $366 reversed $159 $-1 #
edge $-1 $367 0 $367 6.2831853071796004 $160 $368 forward 7 unknown #
vertex $-1 $163 $369 #
ellipse-curve $-1 -65.495931624457555 -13.053003687723518 9.9327547011817252 -0.62932039886446345 0 0.77714595512881146 0.77714595512881146 0 0.62932039886446345 1 I I #
coedge $-1 $262 $262 $-1 $370 reversed $166 $-1 #
edge $-1 $371 0 $371 6.2831853071796004 $167 $372 forward 7 unknown #
vertex $-1 $170 $373 #
ellipse-curve $-1 -65.495931624457555 -9.0069887406735774 9.9327547011817252 -0.62932039886446345 0 0.77714595512881146 0.77714595512881146 0 0.62932039886446345 1 I I #
face $-1 $-1 $374 $36 $-1 $375 reversed single #
loop $-1 $-1 $177 $171 #
plane-surface $-1 0 0 14.112651248486685 0 0 1 1 0 0 forward_v I I I I #
coedge $-1 $376 $377 $378 $379 reversed $172 $-1 #
coedge $-1 $380 $174 $176 $276 forward $108 $-1 #
coedge $-1 $174 $380 $376 $381 forward $108 $-1 #
coedge $-1 $378 $177 $174 $273 forward $267 $-1 #
edge $-1 $279 -0.21685640122147376 $382 13.269860088944991 $272 $383 forward 7 unknown #
coedge $-1 $384 $385 $175 $275 forward $374 $-1 #
edge $-1 $386 -96.501211885596774 $278 -88.141418790986862 $274 $387 forward 7 unknown #
edge $-1 $279 128.03150520429804 $386 141.31534775841547 $176 $388 forward 7 unknown #
coedge $-1 $177 $378 $384 $389 forward $267 $-1 #
vertex $-1 $275 $390 #
vertex $-1 $178 $391 #
straight-curve $-1 24.883826994065089 -6.309645442640285 14.112651248486685 -1 0 0 I I #
coedge $-1 $281 $281 $-1 $392 reversed $181 $-1 #
edge $-1 $393 0 $393 6.2831853071796004 $182 $394 forward 7 unknown #
vertex $-1 $185 $395 #
ellipse-curve $-1 65.49593162445754 -17.099018634773458 9.9327547011817465 0.62932039886446345 0 0.77714595512881146 0.77714595512881146 0 -0.62932039886446345 1 I I #
coedge $-1 $285 $285 $-1 $396 reversed $188 $-1 #
edge $-1 $397 0 $397 6.2831853071796004 $189 $398 forward 7 unknown #
vertex $-1 $192 $399 #
ellipse-curve $-1 65.49593162445754 -13.053003687723518 9.9327547011817465 0.62932039886446345 0 0.77714595512881146 0.77714595512881146 0 -0.62932039886446345 1 I I #
coedge $-1 $289 $289 $-1 $400 reversed $195 $-1 #
edge $-1 $401 0 $401 6.2831853071796004 $196 $402 forward 7 unknown #
vertex $-1 $199 $403 #
ellipse-curve $-1 65.49593162445754 -9.0069887406735774 9.9327547011817465 0.62932039886446345 0 0.77714595512881146 0.77714595512881146 0 -0.62932039886446345 1 I I #
face $-1 $-1 $215 $30 $-1 $404 reversed single #
loop $-1 $-1 $309 $200 #
plane-surface $-1 0 37.154848421915737 0 0 -1 0 0 0 -1 forward_v I I I I #
coedge $-1 $405 $307 $310 $406 forward $201 $-1 #
coedge $-1 $313 $203 $204 $301 reversed $127 $-1 #
coedge $-1 $307 $405 $203 $299 reversed $201 $-1 #
edge $-1 $314 -14.112651248486685 $407 14.112651248486685 $298 $408 forward 7 unknown #
coedge $-1 $205 $204 $405 $409 forward $81 $-1 #
edge $-1 $305 -70.657673879207735 $407 70.657673879207735 $297 $410 forward 7 unknown #
coedge $-1 $310 $309 $205 $303 reversed $294 $-1 #
edge $-1 $411 -70.657673879207735 $304 70.657673879207735 $302 $412 forward 7 unknown #
vertex $-1 $207 $413 #
vertex $-1 $316 $414 #
straight-curve $-1 70.657673879207735 0 -14.112651248486685 0 -1 0 I I #
coedge $-1 $296 $298 $208 $308 reversed $201 $-1 #
edge $-1 $311 -37.154848421915737 $314 37.154848421915737 $307 $415 forward 7 unknown #
coedge $-1 $302 $209 $214 $317 forward $294 $-1 #
coedge $-1 $209 $302 $296 $406 reversed $294 $-1 #
vertex $-1 $210 $416 #
straight-curve $-1 0 37.154848421915737 14.112651248486685 -1 0 0 I I #
coedge $-1 $211 $297 $213 $316 reversed $127 $-1 #
vertex $-1 $308 $417 #
straight-curve $-1 0 -37.154848421915737 14.112651248486685 1 0 0 I I #
edge $-1 $216 -14.112651248486685 $305 14.112651248486685 $213 $418 forward 7 unknown #
edge $-1 $217 -14.112651248486685 $304 14.112651248486685 $214 $419 forward 7 unknown #
point $-1 70.657673879207735 -37.154848421915737 14.112651248486685 #
point $-1 70.657673879207735 37.154848421915737 14.112651248486685 #
face $-1 $-1 $234 $31 $-1 $420 reversed single #
loop $-1 $-1 $230 $219 #
plane-surface $-1 0 -37.154848421915737 0 0 1 0 0 0 1 forward_v I I I I #
coedge $-1 $421 $422 $227 $333 forward $220 $-1 #
coedge $-1 $334 $222 $224 $329 reversed $135 $-1 #
edge $-1 $331 -5.9800349056062796 $235 -1.6860711488643578 $233 $423 forward 7 unknown #
coedge $-1 $224 $223 $424 $425 reversed $85 $-1 #
coedge $-1 $338 $337 $223 $328 forward $321 $-1 #
edge $-1 $426 -70.657673879207735 $330 70.657673879207735 $327 $427 forward 7 unknown #
edge $-1 $428 -70.657673879207735 $331 70.657673879207735 $324 $429 forward 7 unknown #
vertex $-1 $328 $430 #
vertex $-1 $226 $431 #
straight-curve $-1 70.657673879207735 -16.22865428974854 -9.813087932841599 0 1 0 I I #
edge $-1 $339 -20.926194132167197 $335 -11.531114447329887 $323 $432 forward 7 unknown #
coedge $-1 $228 $324 $421 $433 reversed $135 $-1 #
vertex $-1 $333 $434 #
straight-curve $-1 0 -27.759768737078428 -5.5191241760996768 -1 0 0 I I #
coedge $-1 $327 $230 $422 $435 forward $321 $-1 #
coedge $-1 $230 $327 $232 $341 reversed $321 $-1 #
vertex $-1 $435 $436 #
straight-curve $-1 0 -37.154848421915737 -5.5191241760996768 -1 0 0 I I #
edge $-1 $236 5.5191241760996768 $330 9.813087932841599 $232 $437 forward 7 unknown #
point $-1 70.657673879207735 -27.759768737078428 -5.5191241760996768 #
point $-1 70.657673879207735 -37.154848421915737 -5.5191241760996768 #
plane-surface $-1 0 0 14.112651248486685 0 0 1 1 0 0 forward_v I I I I #
coedge $-1 $355 $354 $347 $438 forward $239 $-1 #
coedge $-1 $347 $241 $243 $351 reversed $143 $-1 #
coedge $-1 $241 $346 $345 $438 reversed $143 $-1 #
coedge $-1 $249 $244 $241 $349 forward $250 $-1 #
edge $-1 $352 -19.460963078394684 $439 -9.1374785688943234 $348 $440 forward 7 unknown #
coedge $-1 $243 $242 $355 $441 reversed $89 $-1 #
edge $-1 $442 0 $352 13.283842554117452 $346 $443 forward 7 unknown #
vertex $-1 $245 $444 #
straight-curve $-1 -60.334189369707374 -6.5265018438617588 14.112651248486683 0 1 0 I I #
coedge $-1 $345 $246 $249 $359 reversed $239 $-1 #
coedge $-1 $246 $345 $350 $441 forward $239 $-1 #
vertex $-1 $247 $445 #
straight-curve $-1 -70.657673879207735 -19.79636193280675 57.787754530975349 0 0 1 I I #
straight-curve $-1 -70.657673879207735 -19.79636193280675 5.7528581538767583 -0.77714595512881146 0 -0.62932039886446345 I I #
edge $-1 $439 6.309645442640285 $251 19.79636193280675 $354 $446 forward 7 unknown #
point $-1 -70.657673879207735 -19.79636193280675 14.112651248486685 #
point $-1 -60.334189369707374 -19.79636193280675 14.112651248486685 #
edge $-1 $447 1 $447 0 $254 $-1 forward 7 unknown #
vertex $-1 $255 $448 #
ellipse-curve $-1 -64.174449054668784 -17.099018634773458 8.3008596668913395 -0.62932039886446345 0 0.77714595512881146 0.77714595512881146 0 0.62932039886446345 1 I I #
point $-1 -64.718785669328739 -17.099018634773458 10.562075100046185 #
edge $-1 $449 1 $449 0 $258 $-1 forward 7 unknown #
vertex $-1 $259 $450 #
ellipse-curve $-1 -64.174449054668784 -13.053003687723518 8.3008596668913395 -0.62932039886446345 0 0.77714595512881146 0.77714595512881146 0 0.62932039886446345 1 I I #
point $-1 -64.718785669328739 -13.053003687723518 10.562075100046185 #
edge $-1 $451 1 $451 0 $262 $-1 forward 7 unknown #
vertex $-1 $263 $452 #
ellipse-curve $-1 -64.174449054668784 -9.0069887406735774 8.3008596668913395 -0.62932039886446345 0 0.77714595512881146 0.77714595512881146 0 0.62932039886446345 1 I I #
point $-1 -64.718785669328739 -9.0069887406735774 10.562075100046185 #
loop $-1 $-1 $274 $266 #
plane-surface $-1 70.657673879207735 0 0 -1 0 0 0 0 1 forward_v I I I I #
coedge $-1 $377 $269 $271 $381 reversed $172 $-1 #
coedge $-1 $269 $376 $453 $454 reversed $172 $-1 #
coedge $-1 $277 $272 $269 $379 forward $267 $-1 #
edge $-1 $382 35.4503623756423 $455 45.773846885142646 $378 $456 forward 7 unknown #
coedge $-1 $271 $270 $385 $457 reversed $108 $-1 #
edge $-1 $458 -141.31534775841547 $382 -128.03150520429804 $376 $459 forward 7 unknown #
vertex $-1 $273 $460 #
straight-curve $-1 60.334189369707381 -6.5265018438617588 14.112651248486685 0 -1 0 I I #
coedge $-1 $453 $274 $277 $389 reversed $374 $-1 #
coedge $-1 $274 $453 $380 $457 forward $374 $-1 #
vertex $-1 $275 $461 #
straight-curve $-1 70.657673879207735 -6.309645442640285 102.25407003947355 0 0 1 I I #
straight-curve $-1 -39.164977028866204 -6.309645442640285 94.685489170873154 0.77714595512881146 0 -0.62932039886446345 I I #
edge $-1 $455 -19.79636193280675 $278 -6.309645442640285 $384 $462 forward 7 unknown #
point $-1 70.657673879207735 -6.309645442640285 14.112651248486685 #
point $-1 60.334189369707389 -6.309645442640285 14.112651248486685 #
edge $-1 $463 1 $463 0 $281 $-1 forward 7 unknown #
vertex $-1 $282 $464 #
ellipse-curve $-1 64.17444905466877 -17.099018634773458 8.3008596668913537 0.62932039886446345 0 0.77714595512881146 0.77714595512881146 0 -0.62932039886446345 1 I I #
point $-1 66.273077579586342 -17.099018634773458 9.3034343023172728 #
edge $-1 $465 1 $465 0 $285 $-1 forward 7 unknown #
vertex $-1 $286 $466 #
ellipse-curve $-1 64.17444905466877 -13.053003687723518 8.3008596668913537 0.62932039886446345 0 0.77714595512881146 0.77714595512881146 0 -0.62932039886446345 1 I I #
point $-1 66.273077579586342 -13.053003687723518 9.3034343023172728 #
edge $-1 $467 1 $467 0 $289 $-1 forward 7 unknown #
vertex $-1 $290 $468 #
ellipse-curve $-1 64.17444905466877 -9.0069887406735774 8.3008596668913537 0.62932039886446345 0 0.77714595512881146 0.77714595512881146 0 -0.62932039886446345 1 I I #
point $-1 66.273077579586342 -9.0069887406735774 9.3034343023172728 #
plane-surface $-1 70.657673879207735 0 0 -1 0 0 0 0 1 forward_v I I I I #
coedge $-1 $298 $296 $300 $409 reversed $201 $-1 #
edge $-1 $311 -14.112651248486685 $411 14.112651248486685 $310 $469 forward 7 unknown #
vertex $-1 $409 $470 #
straight-curve $-1 -70.657673879207735 -37.154848421915737 0 0 0 -1 I I #
edge $-1 $407 -37.154848421915737 $411 37.154848421915737 $405 $471 forward 7 unknown #
straight-curve $-1 0 -37.154848421915737 -14.112651248486685 -1 0 0 I I #
vertex $-1 $303 $472 #
straight-curve $-1 0 37.154848421915737 -14.112651248486685 1 0 0 I I #
point $-1 70.657673879207735 37.154848421915737 -14.112651248486685 #
point $-1 70.657673879207735 -37.154848421915737 -14.112651248486685 #
straight-curve $-1 -70.657673879207735 0 14.112651248486685 0 -1 0 I I #
point $-1 -70.657673879207735 37.154848421915737 14.112651248486685 #
point $-1 -70.657673879207735 -37.154848421915737 14.112651248486685 #
straight-curve $-1 70.657673879207735 -37.154848421915737 0 0 0 -1 I I #
straight-curve $-1 70.657673879207735 37.154848421915737 0 0 0 -1 I I #
plane-surface $-1 70.657673879207735 0 0 -1 0 0 0 0 1 forward_v I I I I #
coedge $-1 $424 $323 $334 $433 forward $220 $-1 #
coedge $-1 $323 $424 $337 $435 reversed $220 $-1 #
straight-curve $-1 70.657673879207735 -27.759768737078428 -3.8330530272353189 0 0 1 I I #
coedge $-1 $422 $421 $326 $425 forward $220 $-1 #
edge $-1 $428 11.531114447329887 $426 20.926194132167197 $424 $473 forward 7 unknown #
vertex $-1 $328 $474 #
straight-curve $-1 0 -37.154848421915737 -9.813087932841599 1 0 0 I I #
vertex $-1 $425 $475 #
straight-curve $-1 0 -27.759768737078428 -9.813087932841599 1 0 0 I I #
point $-1 70.657673879207735 -37.154848421915737 -9.813087932841599 #
point $-1 70.657673879207735 -27.759768737078428 -9.813087932841599 #
straight-curve $-1 -70.657673879207735 -16.22865428974854 -5.5191241760996768 0 1 0 I I #
edge $-1 $335 1.6860711488643578 $428 5.9800349056062796 $421 $476 forward 7 unknown #
point $-1 -70.657673879207735 -27.759768737078428 -5.5191241760996768 #
edge $-1 $339 5.5191241760996768 $426 9.813087932841599 $422 $477 forward 7 unknown #
point $-1 -70.657673879207735 -37.154848421915737 -5.5191241760996768 #
straight-curve $-1 70.657673879207735 -37.154848421915737 0 0 0 -1 I I #
edge $-1 $439 43.675103282488664 $442 52.03489637709859 $345 $478 forward 7 unknown #
vertex $-1 $359 $479 #
straight-curve $-1 -79.795152448102058 -6.309645442640285 14.112651248486685 -1 0 0 I I #
edge $-1 $442 -0.21685640122147376 $356 13.269860088944991 $355 $480 forward 7 unknown #
vertex $-1 $441 $481 #
straight-curve $-1 -70.657673879207735 -6.309645442640285 5.7528581538767583 0.77714595512881146 0 0.62932039886446345 I I #
point $-1 -60.334189369707374 -6.309645442640285 14.112651248486685 #
point $-1 -70.657673879207735 -19.79636193280675 5.7528581538767583 #
straight-curve $-1 -70.657673879207735 0 14.112651248486685 0 -1 0 I I #
vertex $-1 $362 $482 #
point $-1 -63.397303099539982 -17.099018634773458 8.9301800657558026 #
vertex $-1 $366 $483 #
point $-1 -63.397303099539982 -13.053003687723518 8.9301800657558026 #
vertex $-1 $370 $484 #
point $-1 -63.397303099539982 -9.0069887406735774 8.9301800657558026 #
coedge $-1 $385 $384 $377 $454 forward $374 $-1 #
edge $-1 $455 88.141418790986862 $458 96.501211885596774 $453 $485 forward 7 unknown #
vertex $-1 $389 $486 #
straight-curve $-1 24.883826994065089 -19.79636193280675 14.112651248486685 1 0 0 I I #
edge $-1 $458 -13.269860088944991 $386 0.21685640122147376 $385 $487 forward 7 unknown #
vertex $-1 $457 $488 #
straight-curve $-1 -39.164977028866204 -19.79636193280675 94.685489170873154 -0.77714595512881146 0 0.62932039886446345 I I #
point $-1 60.334189369707389 -19.79636193280675 14.112651248486685 #
point $-1 70.657673879207735 -6.309645442640285 5.7528581538767725 #
straight-curve $-1 70.657673879207735 0 14.112651248486685 0 1 0 I I #
vertex $-1 $392 $489 #
point $-1 64.951595009797586 -17.099018634773458 7.6715392680268897 #
vertex $-1 $396 $490 #
point $-1 64.951595009797586 -13.053003687723518 7.6715392680268897 #
vertex $-1 $400 $491 #
point $-1 64.951595009797586 -9.0069887406735774 7.6715392680268897 #
straight-curve $-1 -70.657673879207735 37.154848421915737 0 0 0 -1 I I #
point $-1 -70.657673879207735 -37.154848421915737 -14.112651248486685 #
straight-curve $-1 -70.657673879207735 0 -14.112651248486685 0 1 0 I I #
point $-1 -70.657673879207735 37.154848421915737 -14.112651248486685 #
straight-curve $-1 -70.657673879207735 -16.22865428974854 -9.813087932841599 0 -1 0 I I #
point $-1 -70.657673879207735 -37.154848421915737 -9.813087932841599 #
point $-1 -70.657673879207735 -27.759768737078428 -9.813087932841599 #
straight-curve $-1 -70.657673879207735 -27.759768737078428 -3.8330530272353189 0 0 -1 I I #
straight-curve $-1 -70.657673879207735 -37.154848421915737 0 0 0 -1 I I #
straight-curve $-1 -70.657673879207735 -6.309645442640285 57.787754530975349 0 0 -1 I I #
point $-1 -70.657673879207735 -6.309645442640285 14.112651248486685 #
straight-curve $-1 -70.657673879207735 -6.5265018438617588 5.75285815387676 0 -1 0 I I #
point $-1 -70.657673879207735 -6.309645442640285 5.7528581538767583 #
point $-1 -63.545128655804326 -17.099018634773458 7.5237137117625279 #
point $-1 -63.545128655804326 -13.053003687723518 7.5237137117625279 #
point $-1 -63.545128655804326 -9.0069887406735774 7.5237137117625279 #
straight-curve $-1 70.657673879207735 -19.79636193280675 102.25407003947355 0 0 -1 I I #
point $-1 70.657673879207735 -19.79636193280675 14.112651248486685 #
straight-curve $-1 70.657673879207735 -6.5265018438617588 5.7528581538767654 0 1 0 I I #
point $-1 70.657673879207735 -19.79636193280675 5.7528581538767725 #
point $-1 63.545128655804312 -17.099018634773458 7.5237137117625421 #
point $-1 63.545128655804312 -13.053003687723518 7.5237137117625421 #
point $-1 63.545128655804312 -9.0069887406735774 7.5237137117625421 #
End-of-ACIS-data 