500 0 10 0           
7 Unknown 11 ACIS 5.0 NT 24 Thu Mar 25 22:45:55 1999 
-1 9.9999999999999995e-007 1e-010 
body $-1 $10 $-1 $11 #
body $-1 $12 $-1 $13 #
body $-1 $14 $-1 $15 #
body $-1 $16 $-1 $17 #
body $-1 $18 $-1 $19 #
body $-1 $20 $-1 $21 #
body $-1 $22 $-1 $23 #
body $-1 $24 $-1 $25 #
body $-1 $26 $-1 $27 #
body $-1 $28 $-1 $29 #
lump $-1 $-1 $30 $0 #
transform $-1 1 0 0 0 1 0 0 0 1 40.907010101626639 22.494173977236823 5.6140356263449513 1 rotate no_reflect no_shear #
lump $-1 $-1 $31 $1 #
transform $-1 1 0 0 0 1 0 0 0 1 40.907010101626639 22.494173977236823 5.6140356263449513 1 rotate no_reflect no_shear #
lump $-1 $-1 $32 $2 #
transform $-1 1 0 0 0 1 0 0 0 1 40.907010101626639 22.494173977236823 5.6140356263449513 1 rotate no_reflect no_shear #
lump $-1 $-1 $33 $3 #
transform $-1 1 0 0 0 1 0 0 0 1 40.907010101626639 22.494173977236823 5.6140356263449513 1 rotate no_reflect no_shear #
lump $-1 $-1 $34 $4 #
transform $-1 1 0 0 0 1 0 0 0 1 40.907010101626639 22.494173977236823 5.6140356263449513 1 rotate no_reflect no_shear #
lump $-1 $-1 $35 $5 #
transform $-1 1 0 0 0 1 0 0 0 1 40.907010101626639 22.494173977236823 5.6140356263449513 1 rotate no_reflect no_shear #
lump $-1 $-1 $36 $6 #
transform $-1 1 0 0 0 1 0 0 0 1 40.907010101626639 22.494173977236823 5.6140356263449513 1 rotate no_reflect no_shear #
lump $-1 $-1 $37 $7 #
transform $-1 1 0 0 0 1 0 0 0 1 40.907010101626639 22.494173977236823 5.6140356263449513 1 rotate no_reflect no_shear #
lump $-1 $-1 $38 $8 #
transform $-1 1 0 0 0 1 0 0 0 1 40.907010101626639 22.494173977236823 5.6140356263449513 1 rotate no_reflect no_shear #
lump $-1 $-1 $39 $9 #
transform $-1 1 0 0 0 1 0 0 0 1 40.907010101626639 22.494173977236823 5.6140356263449513 1 rotate no_reflect no_shear #
shell $-1 $-1 $-1 $40 $-1 $10 #
shell $-1 $-1 $-1 $41 $-1 $12 #
shell $-1 $-1 $-1 $42 $-1 $14 #
shell $-1 $-1 $-1 $43 $-1 $16 #
shell $-1 $-1 $-1 $44 $-1 $18 #
shell $-1 $-1 $-1 $45 $-1 $20 #
shell $-1 $-1 $-1 $46 $-1 $22 #
shell $-1 $-1 $-1 $47 $-1 $24 #
shell $-1 $-1 $-1 $48 $-1 $26 #
shell $-1 $-1 $-1 $49 $-1 $28 #
face $-1 $50 $51 $30 $-1 $52 forward single #
face $-1 $53 $54 $31 $-1 $55 forward single #
face $-1 $56 $57 $32 $-1 $58 reversed single #
face $-1 $59 $60 $33 $-1 $61 forward single #
face $-1 $62 $63 $34 $-1 $64 forward single #
face $-1 $65 $66 $35 $-1 $67 forward single #
face $-1 $68 $69 $36 $-1 $70 reversed single #
face $-1 $71 $72 $37 $-1 $73 forward single #
face $-1 $74 $75 $38 $-1 $76 forward single #
face $-1 $77 $78 $39 $-1 $79 forward single #
face $-1 $80 $81 $30 $-1 $82 reversed single #
loop $-1 $-1 $83 $40 #
plane-surface $-1 0 0 5.6140356263449513 0 0 1 1 0 0 forward_v I I I I #
face $-1 $84 $85 $31 $-1 $86 reversed single #
loop $-1 $-1 $87 $41 #
plane-surface $-1 0 -19.477279604684369 -2.6140356263449513 0 0 1 1 0 0 forward_v I I I I #
face $-1 $88 $89 $32 $-1 $90 reversed single #
loop $-1 $-1 $91 $42 #
plane-surface $-1 -92.394241928643254 -4.9979780823790669 64.637356244380612 0 1 0 -0.62932039886446345 0 0.77714595512881146 forward_v I I I I #
face $-1 $92 $93 $33 $-1 $94 forward single #
loop $-1 $95 $96 $43 #
cone-surface $-1 -37.564321338919683 -2.6917333867763986 2.68259759039957 0.62932039886446345 0 -0.77714595512881146 0.38857297756440573 0 0.31466019943223172 1 I I 0 1 0.5 forward I I I I #
face $-1 $97 $98 $34 $-1 $99 forward single #
loop $-1 $100 $101 $44 #
cone-surface $-1 -37.564321338919683 0.76763365662760208 2.68259759039957 0.62932039886446345 0 -0.77714595512881146 0.38857297756440573 0 0.31466019943223172 1 I I 0 1 0.5 forward I I I I #
face $-1 $102 $103 $35 $-1 $104 forward single #
loop $-1 $105 $106 $45 #
cone-surface $-1 -37.564321338919683 4.2270007000316028 2.68259759039957 0.62932039886446345 0 -0.77714595512881146 0.38857297756440573 0 0.31466019943223172 1 I I 0 1 0.5 forward I I I I #
face $-1 $107 $108 $36 $-1 $109 reversed single #
loop $-1 $-1 $110 $46 #
plane-surface $-1 28.812807054858112 6.5332453956342711 116.12458807139723 0 -1 0 -0.62932039886446345 0 -0.77714595512881146 forward_v I I I I #
face $-1 $111 $112 $37 $-1 $113 forward single #
loop $-1 $114 $115 $47 #
cone-surface $-1 37.56432133891969 -2.6917333867763986 2.6825975903995718 -0.62932039886446345 0 -0.77714595512881146 0.38857297756440573 0 -0.31466019943223172 1 I I 0 1 0.5 forward I I I I #
face $-1 $116 $117 $38 $-1 $118 forward single #
loop $-1 $119 $120 $48 #
cone-surface $-1 37.56432133891969 0.76763365662760208 2.6825975903995718 -0.62932039886446345 0 -0.77714595512881146 0.38857297756440573 0 -0.31466019943223172 1 I I 0 1 0.5 forward I I I I #
face $-1 $121 $122 $39 $-1 $123 forward single #
loop $-1 $124 $125 $49 #
cone-surface $-1 37.56432133891969 4.2270007000316028 2.6825975903995718 -0.62932039886446345 0 -0.77714595512881146 0.38857297756440573 0 -0.31466019943223172 1 I I 0 1 0.5 forward I I I I #
face $-1 $126 $127 $30 $-1 $128 reversed single #
loop $-1 $-1 $129 $50 #
plane-surface $-1 0 0 -5.6140356263449513 0 0 1 1 0 0 forward_v I I I I #
coedge $-1 $130 $131 $132 $133 forward $51 $-1 #
face $-1 $134 $135 $31 $-1 $136 reversed single #
loop $-1 $-1 $137 $53 #
plane-surface $-1 0 -16.460385232131912 -4.1140356263449513 0 -1 0 0 0 -1 forward_v I I I I #
coedge $-1 $138 $139 $140 $141 reversed $54 $-1 #
face $-1 $142 $143 $32 $-1 $144 reversed single #
loop $-1 $-1 $145 $56 #
plane-surface $-1 -40.907010101626632 0.76763365662760208 1.0559213705954633 -0.62932039886446345 0 0.77714595512881146 0.77714595512881146 0 0.62932039886446345 forward_v I I I I #
coedge $-1 $146 $147 $148 $149 reversed $57 $-1 #
face $-1 $-1 $150 $33 $-1 $151 forward single #
loop $-1 $152 $153 $59 #
cone-surface $-1 -36.878703585424908 -2.6917333867763986 1.8359301935467274 0.62932039886446345 0 -0.77714595512881146 0.19428648878220287 0 0.15733009971611586 1 I I -0.70710678118654746 0.70710678118654746 0.25 forward I I I I #
loop $-1 $-1 $154 $43 #
coedge $-1 $96 $96 $155 $156 reversed $60 $-1 #
face $-1 $-1 $157 $34 $-1 $158 forward single #
loop $-1 $159 $160 $62 #
cone-surface $-1 -36.878703585424908 0.76763365662760208 1.8359301935467274 0.62932039886446345 0 -0.77714595512881146 0.19428648878220287 0 0.15733009971611586 1 I I -0.70710678118654746 0.70710678118654746 0.25 forward I I I I #
loop $-1 $-1 $161 $44 #
coedge $-1 $101 $101 $162 $163 reversed $63 $-1 #
face $-1 $-1 $164 $35 $-1 $165 forward single #
loop $-1 $166 $167 $65 #
cone-surface $-1 -36.878703585424908 4.2270007000316028 1.8359301935467274 0.62932039886446345 0 -0.77714595512881146 0.19428648878220287 0 0.15733009971611586 1 I I -0.70710678118654746 0.70710678118654746 0.25 forward I I I I #
loop $-1 $-1 $168 $45 #
coedge $-1 $106 $106 $169 $170 reversed $66 $-1 #
face $-1 $171 $172 $36 $-1 $173 reversed single #
loop $-1 $-1 $174 $68 #
plane-surface $-1 -22.67442477215851 0.76763365662760208 52.543153197612078 0.62932039886446345 0 0.77714595512881146 0.77714595512881146 0 -0.62932039886446345 forward_v I I I I #
coedge $-1 $175 $176 $177 $178 reversed $69 $-1 #
face $-1 $-1 $179 $37 $-1 $180 forward single #
loop $-1 $181 $182 $71 #
cone-surface $-1 36.878703585424915 -2.6917333867763986 1.8359301935467292 -0.62932039886446345 0 -0.77714595512881146 0.19428648878220287 0 -0.15733009971611586 1 I I -0.70710678118654746 0.70710678118654746 0.25 forward I I I I #
loop $-1 $-1 $183 $47 #
coedge $-1 $115 $115 $184 $185 reversed $72 $-1 #
face $-1 $-1 $186 $38 $-1 $187 forward single #
loop $-1 $188 $189 $74 #
cone-surface $-1 36.878703585424915 0.76763365662760208 1.8359301935467292 -0.62932039886446345 0 -0.77714595512881146 0.19428648878220287 0 -0.15733009971611586 1 I I -0.70710678118654746 0.70710678118654746 0.25 forward I I I I #
loop $-1 $-1 $190 $48 #
coedge $-1 $120 $120 $191 $192 reversed $75 $-1 #
face $-1 $-1 $193 $39 $-1 $194 forward single #
loop $-1 $195 $196 $77 #
cone-surface $-1 36.878703585424915 4.2270007000316028 1.8359301935467292 -0.62932039886446345 0 -0.77714595512881146 0.19428648878220287 0 -0.15733009971611586 1 I I -0.70710678118654746 0.70710678118654746 0.25 forward I I I I #
loop $-1 $-1 $197 $49 #
coedge $-1 $125 $125 $198 $199 reversed $78 $-1 #
face $-1 $200 $201 $30 $-1 $202 reversed single #
loop $-1 $-1 $203 $80 #
plane-surface $-1 0 -22.494173977236823 0 0 1 0 0 0 1 forward_v I I I I #
coedge $-1 $204 $205 $206 $207 forward $81 $-1 #
coedge $-1 $208 $83 $209 $210 forward $51 $-1 #
coedge $-1 $83 $208 $211 $212 forward $51 $-1 #
coedge $-1 $213 $214 $83 $133 reversed $215 $-1 #
edge $-1 $216 -22.494173977236823 $217 22.494173977236823 $132 $218 forward 7 unknown #
face $-1 $219 $220 $31 $-1 $221 reversed single #
loop $-1 $-1 $222 $84 #
plane-surface $-1 0 0 -5.6140356263449513 0 0 1 1 0 0 forward_v I I I I #
coedge $-1 $223 $224 $225 $226 reversed $85 $-1 #
coedge $-1 $227 $87 $224 $228 forward $54 $-1 #
coedge $-1 $87 $227 $229 $230 reversed $54 $-1 #
coedge $-1 $231 $225 $87 $141 forward $220 $-1 #
edge $-1 $232 6.7217454297897277 $233 12.755534174894642 $140 $234 forward 7 unknown #
face $-1 $235 $236 $32 $-1 $237 forward single #
loop $-1 $-1 $238 $88 #
plane-surface $-1 -92.394241928643254 6.5332453956342711 64.637356244380612 0 -1 0 0.62932039886446345 0 -0.77714595512881146 forward_v I I I I #
coedge $-1 $239 $240 $241 $242 reversed $89 $-1 #
coedge $-1 $147 $91 $243 $244 reversed $57 $-1 #
coedge $-1 $91 $146 $239 $245 reversed $57 $-1 #
coedge $-1 $241 $246 $91 $149 forward $236 $-1 #
edge $-1 $247 5.2901108626949878 $248 10.91891308055159 $148 $249 forward 7 unknown #
loop $-1 $-1 $155 $92 #
plane-surface $-1 -40.907010101626632 0.76763365662760208 1.0559213705954633 -0.62932039886446345 0 0.77714595512881146 0.77714595512881146 0 0.62932039886446345 forward_v I I I I #
loop $-1 $-1 $250 $59 #
coedge $-1 $153 $153 $154 $251 reversed $93 $-1 #
coedge $-1 $154 $154 $153 $251 forward $95 $-1 #
coedge $-1 $155 $155 $96 $156 forward $150 $-1 #
edge $-1 $252 0 $252 6.2831853071796004 $155 $253 forward 7 unknown #
loop $-1 $-1 $162 $97 #
plane-surface $-1 -40.907010101626632 0.76763365662760208 1.0559213705954633 -0.62932039886446345 0 0.77714595512881146 0.77714595512881146 0 0.62932039886446345 forward_v I I I I #
loop $-1 $-1 $254 $62 #
coedge $-1 $160 $160 $161 $255 reversed $98 $-1 #
coedge $-1 $161 $161 $160 $255 forward $100 $-1 #
coedge $-1 $162 $162 $101 $163 forward $157 $-1 #
edge $-1 $256 0 $256 6.2831853071796004 $162 $257 forward 7 unknown #
loop $-1 $-1 $169 $102 #
plane-surface $-1 -40.907010101626632 0.76763365662760208 1.0559213705954633 -0.62932039886446345 0 0.77714595512881146 0.77714595512881146 0 0.62932039886446345 forward_v I I I I #
loop $-1 $-1 $258 $65 #
coedge $-1 $167 $167 $168 $259 reversed $103 $-1 #
coedge $-1 $168 $168 $167 $259 forward $105 $-1 #
coedge $-1 $169 $169 $106 $170 forward $164 $-1 #
edge $-1 $260 0 $260 6.2831853071796004 $169 $261 forward 7 unknown #
face $-1 $262 $263 $36 $-1 $264 reversed single #
loop $-1 $-1 $265 $107 #
plane-surface $-1 28.812807054858112 -4.9979780823790669 116.12458807139723 0 1 0 0.62932039886446345 0 0.77714595512881146 forward_v I I I I #
coedge $-1 $266 $267 $268 $269 reversed $108 $-1 #
coedge $-1 $176 $110 $270 $271 reversed $69 $-1 #
coedge $-1 $110 $175 $266 $272 reversed $69 $-1 #
coedge $-1 $268 $273 $110 $178 forward $274 $-1 #
edge $-1 $275 -26.500606574197583 $276 -20.871804356340974 $177 $277 forward 7 unknown #
loop $-1 $-1 $184 $111 #
plane-surface $-1 -22.67442477215851 0.76763365662760208 52.543153197612078 0.62932039886446345 0 0.77714595512881146 0.77714595512881146 0 -0.62932039886446345 forward_v I I I I #
loop $-1 $-1 $278 $71 #
coedge $-1 $182 $182 $183 $279 reversed $112 $-1 #
coedge $-1 $183 $183 $182 $279 forward $114 $-1 #
coedge $-1 $184 $184 $115 $185 forward $179 $-1 #
edge $-1 $280 0 $280 6.2831853071796004 $184 $281 forward 7 unknown #
loop $-1 $-1 $191 $116 #
plane-surface $-1 -22.67442477215851 0.76763365662760208 52.543153197612078 0.62932039886446345 0 0.77714595512881146 0.77714595512881146 0 -0.62932039886446345 forward_v I I I I #
loop $-1 $-1 $282 $74 #
coedge $-1 $189 $189 $190 $283 reversed $117 $-1 #
coedge $-1 $190 $190 $189 $283 forward $119 $-1 #
coedge $-1 $191 $191 $120 $192 forward $186 $-1 #
edge $-1 $284 0 $284 6.2831853071796004 $191 $285 forward 7 unknown #
loop $-1 $-1 $198 $121 #
plane-surface $-1 -22.67442477215851 0.76763365662760208 52.543153197612078 0.62932039886446345 0 0.77714595512881146 0.77714595512881146 0 -0.62932039886446345 forward_v I I I I #
loop $-1 $-1 $286 $77 #
coedge $-1 $196 $196 $197 $287 reversed $122 $-1 #
coedge $-1 $197 $197 $196 $287 forward $124 $-1 #
coedge $-1 $198 $198 $125 $199 forward $193 $-1 #
edge $-1 $288 0 $288 6.2831853071796004 $198 $289 forward 7 unknown #
face $-1 $290 $291 $30 $-1 $292 reversed single #
loop $-1 $-1 $293 $126 #
plane-surface $-1 -40.907010101626639 0 0 1 0 0 0 0 -1 forward_v I I I I #
coedge $-1 $294 $211 $295 $296 forward $127 $-1 #
coedge $-1 $297 $129 $294 $298 forward $81 $-1 #
coedge $-1 $129 $297 $299 $300 forward $81 $-1 #
coedge $-1 $214 $213 $129 $207 reversed $215 $-1 #
edge $-1 $301 -22.494173977236823 $302 22.494173977236823 $206 $303 forward 7 unknown #
coedge $-1 $131 $130 $304 $305 forward $51 $-1 #
coedge $-1 $306 $307 $130 $210 reversed $291 $-1 #
edge $-1 $217 -40.907010101626639 $308 40.907010101626639 $209 $309 forward 7 unknown #
coedge $-1 $203 $310 $131 $212 reversed $127 $-1 #
edge $-1 $311 -40.907010101626639 $216 40.907010101626639 $211 $312 forward 7 unknown #
coedge $-1 $206 $132 $310 $313 forward $215 $-1 #
coedge $-1 $132 $206 $306 $314 reversed $215 $-1 #
loop $-1 $-1 $213 $290 #
vertex $-1 $133 $315 #
vertex $-1 $133 $316 #
straight-curve $-1 40.907010101626639 0 5.6140356263449513 0 1 0 I I #
face $-1 $317 $318 $31 $-1 $319 reversed single #
loop $-1 $-1 $225 $134 #
plane-surface $-1 40.907010101626639 0 0 -1 0 0 0 0 1 forward_v I I I I #
coedge $-1 $320 $321 $223 $322 forward $135 $-1 #
coedge $-1 $323 $137 $222 $322 reversed $85 $-1 #
coedge $-1 $137 $323 $138 $228 reversed $85 $-1 #
coedge $-1 $140 $324 $137 $226 forward $220 $-1 #
edge $-1 $325 -3.5570178131724757 $232 -0.55701781317247567 $225 $326 forward 7 unknown #
coedge $-1 $139 $138 $327 $328 reversed $54 $-1 #
edge $-1 $232 -40.907010101626639 $329 40.907010101626639 $224 $330 forward 7 unknown #
coedge $-1 $331 $332 $139 $230 forward $318 $-1 #
edge $-1 $233 -40.907010101626639 $333 40.907010101626639 $229 $334 forward 7 unknown #
coedge $-1 $324 $140 $332 $335 forward $220 $-1 #
vertex $-1 $141 $336 #
vertex $-1 $335 $337 #
straight-curve $-1 40.907010101626639 -9.7386398023421847 -2.6140356263449513 0 -1 0 I I #
face $-1 $-1 $338 $32 $-1 $339 reversed single #
loop $-1 $-1 $148 $142 #
plane-surface $-1 0 0 5.6140356263449513 0 0 1 1 0 0 forward_v I I I I #
coedge $-1 $340 $341 $342 $343 reversed $143 $-1 #
coedge $-1 $344 $145 $147 $245 forward $89 $-1 #
coedge $-1 $145 $344 $340 $345 forward $89 $-1 #
coedge $-1 $342 $148 $145 $242 forward $236 $-1 #
edge $-1 $248 -5.381794910692868 $346 6.1494285673204701 $241 $347 forward 7 unknown #
coedge $-1 $348 $349 $146 $244 forward $338 $-1 #
edge $-1 $350 -31.26275675159485 $247 -26.704642495845356 $243 $351 forward 7 unknown #
edge $-1 $248 -7.2429151573254007 $350 9.1551213131864128e-015 $147 $352 forward 7 unknown #
coedge $-1 $148 $342 $348 $353 forward $236 $-1 #
vertex $-1 $244 $354 #
vertex $-1 $149 $355 #
straight-curve $-1 -46.197120964321627 -4.9979780823790669 5.6140356263449505 1 0 0 I I #
coedge $-1 $250 $250 $-1 $356 reversed $152 $-1 #
edge $-1 $357 0 $357 6.2831853071796004 $153 $358 forward 7 unknown #
vertex $-1 $156 $359 #
ellipse-curve $-1 -38.092608992698338 -2.6917333867763986 3.3349784984702047 -0.62932039886446345 0 0.77714595512881146 0.38857297756440573 0 0.31466019943223172 1 I I #
coedge $-1 $254 $254 $-1 $360 reversed $159 $-1 #
edge $-1 $361 0 $361 6.2831853071796004 $160 $362 forward 7 unknown #
vertex $-1 $163 $363 #
ellipse-curve $-1 -38.092608992698338 0.76763365662760208 3.3349784984702047 -0.62932039886446345 0 0.77714595512881146 0.38857297756440573 0 0.31466019943223172 1 I I #
coedge $-1 $258 $258 $-1 $364 reversed $166 $-1 #
edge $-1 $365 0 $365 6.2831853071796004 $167 $366 forward 7 unknown #
vertex $-1 $170 $367 #
ellipse-curve $-1 -38.092608992698338 4.2270007000316028 3.3349784984702047 -0.62932039886446345 0 0.77714595512881146 0.38857297756440573 0 0.31466019943223172 1 I I #
face $-1 $-1 $274 $36 $-1 $368 forward single #
loop $-1 $-1 $369 $171 #
plane-surface $-1 40.907010101626639 0 0 -1 0 0 0 0 1 forward_v I I I I #
coedge $-1 $370 $371 $372 $373 reversed $172 $-1 #
coedge $-1 $374 $174 $176 $272 forward $108 $-1 #
coedge $-1 $174 $374 $370 $375 forward $108 $-1 #
coedge $-1 $372 $177 $174 $269 forward $274 $-1 #
edge $-1 $276 -6.1494285673204701 $376 5.381794910692868 $268 $377 forward 7 unknown #
coedge $-1 $378 $379 $175 $271 forward $263 $-1 #
edge $-1 $380 -57.006372665103157 $275 -52.448258409353663 $270 $381 forward 7 unknown #
edge $-1 $276 74.571105045927865 $380 81.814020203253278 $176 $382 forward 7 unknown #
coedge $-1 $177 $372 $378 $383 forward $274 $-1 #
loop $-1 $-1 $372 $262 #
vertex $-1 $271 $384 #
vertex $-1 $178 $385 #
straight-curve $-1 14.406403527429056 6.5332453956342711 5.6140356263449505 -1 0 0 I I #
coedge $-1 $278 $278 $-1 $386 reversed $181 $-1 #
edge $-1 $387 0 $387 6.2831853071796004 $182 $388 forward 7 unknown #
vertex $-1 $185 $389 #
ellipse-curve $-1 38.092608992698338 -2.6917333867763986 3.3349784984701984 0.62932039886446345 0 0.77714595512881146 0.38857297756440573 0 -0.31466019943223172 1 I I #
coedge $-1 $282 $282 $-1 $390 reversed $188 $-1 #
edge $-1 $391 0 $391 6.2831853071796004 $189 $392 forward 7 unknown #
vertex $-1 $192 $393 #
ellipse-curve $-1 38.092608992698338 0.76763365662760208 3.3349784984701984 0.62932039886446345 0 0.77714595512881146 0.38857297756440573 0 -0.31466019943223172 1 I I #
coedge $-1 $286 $286 $-1 $394 reversed $195 $-1 #
edge $-1 $395 0 $395 6.2831853071796004 $196 $396 forward 7 unknown #
vertex $-1 $199 $397 #
ellipse-curve $-1 38.092608992698338 4.2270007000316028 3.3349784984701984 0.62932039886446345 0 0.77714595512881146 0.38857297756440573 0 -0.31466019943223172 1 I I #
face $-1 $-1 $215 $30 $-1 $398 reversed single #
loop $-1 $-1 $306 $200 #
plane-surface $-1 0 22.494173977236823 0 0 -1 0 0 0 -1 forward_v I I I I #
coedge $-1 $399 $304 $307 $400 forward $201 $-1 #
coedge $-1 $310 $203 $204 $298 reversed $127 $-1 #
coedge $-1 $304 $399 $203 $296 reversed $201 $-1 #
edge $-1 $311 -5.6140356263449513 $401 5.6140356263449513 $295 $402 forward 7 unknown #
coedge $-1 $205 $204 $399 $403 forward $81 $-1 #
edge $-1 $302 -40.907010101626639 $401 40.907010101626639 $294 $404 forward 7 unknown #
coedge $-1 $307 $306 $205 $300 reversed $291 $-1 #
edge $-1 $405 -40.907010101626639 $301 40.907010101626639 $299 $406 forward 7 unknown #
vertex $-1 $207 $407 #
vertex $-1 $313 $408 #
straight-curve $-1 40.907010101626639 0 -5.6140356263449513 0 -1 0 I I #
coedge $-1 $293 $295 $208 $305 reversed $201 $-1 #
edge $-1 $308 -22.494173977236823 $311 22.494173977236823 $304 $409 forward 7 unknown #
coedge $-1 $299 $209 $214 $314 forward $291 $-1 #
coedge $-1 $209 $299 $293 $400 reversed $291 $-1 #
vertex $-1 $210 $410 #
straight-curve $-1 0 22.494173977236823 5.6140356263449513 -1 0 0 I I #
coedge $-1 $211 $294 $213 $313 reversed $127 $-1 #
vertex $-1 $305 $411 #
straight-curve $-1 0 -22.494173977236823 5.6140356263449513 1 0 0 I I #
edge $-1 $216 -5.6140356263449513 $302 5.6140356263449513 $213 $412 forward 7 unknown #
edge $-1 $217 -5.6140356263449513 $301 5.6140356263449513 $214 $413 forward 7 unknown #
point $-1 40.907010101626639 -22.494173977236823 5.6140356263449513 #
point $-1 40.907010101626639 22.494173977236823 5.6140356263449513 #
face $-1 $-1 $414 $31 $-1 $415 reversed single #
loop $-1 $-1 $229 $219 #
plane-surface $-1 0 -22.494173977236823 0 0 1 0 0 0 1 forward_v I I I I #
coedge $-1 $416 $222 $324 $417 forward $135 $-1 #
coedge $-1 $222 $416 $418 $419 forward $135 $-1 #
edge $-1 $420 -40.907010101626639 $325 40.907010101626639 $222 $421 forward 7 unknown #
coedge $-1 $224 $223 $422 $423 reversed $85 $-1 #
coedge $-1 $225 $231 $320 $417 reversed $220 $-1 #
vertex $-1 $417 $424 #
straight-curve $-1 40.907010101626639 -16.460385232131912 -2.0570178131724757 0 0 1 I I #
coedge $-1 $422 $425 $227 $328 forward $414 $-1 #
edge $-1 $333 -12.755534174894642 $329 -6.7217454297897277 $327 $426 forward 7 unknown #
vertex $-1 $328 $427 #
straight-curve $-1 0 -16.460385232131912 -2.6140356263449513 -1 0 0 I I #
coedge $-1 $428 $229 $425 $429 forward $318 $-1 #
coedge $-1 $229 $428 $231 $335 reversed $318 $-1 #
vertex $-1 $429 $430 #
straight-curve $-1 0 -22.494173977236823 -2.6140356263449513 -1 0 0 I I #
edge $-1 $233 2.6140356263449513 $431 5.6140356263449513 $231 $432 forward 7 unknown #
point $-1 40.907010101626639 -16.460385232131912 -2.6140356263449513 #
point $-1 40.907010101626639 -22.494173977236827 -2.6140356263449513 #
loop $-1 $-1 $243 $235 #
plane-surface $-1 -40.907010101626639 0 0 1 0 0 0 0 -1 forward_v I I I I #
coedge $-1 $341 $238 $240 $345 reversed $143 $-1 #
coedge $-1 $238 $340 $433 $434 reversed $143 $-1 #
coedge $-1 $246 $241 $238 $343 forward $236 $-1 #
edge $-1 $346 -10.91891308055159 $435 -5.2901108626949878 $342 $436 forward 7 unknown #
coedge $-1 $240 $239 $349 $437 reversed $89 $-1 #
edge $-1 $438 -9.1551213131864128e-015 $346 7.2429151573254007 $340 $439 forward 7 unknown #
vertex $-1 $242 $440 #
straight-curve $-1 -35.278207883770037 0.38381682831380104 5.6140356263449505 0 1 0 I I #
coedge $-1 $433 $243 $246 $353 reversed $338 $-1 #
coedge $-1 $243 $433 $344 $437 forward $338 $-1 #
vertex $-1 $244 $441 #
straight-curve $-1 -40.907010101626639 -4.9979780823790669 32.318678122190306 0 0 1 I I #
straight-curve $-1 -40.907010101626632 -4.9979780823790669 1.0559213705954633 -0.77714595512881146 0 -0.62932039886446345 I I #
edge $-1 $435 -6.5332453956342711 $247 4.9979780823790669 $348 $442 forward 7 unknown #
point $-1 -40.907010101626639 -4.9979780823790669 5.6140356263449513 #
point $-1 -35.278207883770037 -4.9979780823790669 5.6140356263449513 #
edge $-1 $443 1 $443 0 $250 $-1 forward 7 unknown #
vertex $-1 $251 $444 #
ellipse-curve $-1 -37.036033685141021 -2.6917333867763986 2.03021668232893 -0.62932039886446345 0 0.77714595512881146 0.38857297756440573 0 0.31466019943223172 1 I I #
point $-1 -37.704036015133937 -2.6917333867763986 3.649638697902442 #
edge $-1 $445 1 $445 0 $254 $-1 forward 7 unknown #
vertex $-1 $255 $446 #
ellipse-curve $-1 -37.036033685141021 0.76763365662760208 2.03021668232893 -0.62932039886446345 0 0.77714595512881146 0.38857297756440573 0 0.31466019943223172 1 I I #
point $-1 -37.704036015133937 0.76763365662760208 3.649638697902442 #
edge $-1 $447 1 $447 0 $258 $-1 forward 7 unknown #
vertex $-1 $259 $448 #
ellipse-curve $-1 -37.036033685141021 4.2270007000316028 2.03021668232893 -0.62932039886446345 0 0.77714595512881146 0.38857297756440573 0 0.31466019943223172 1 I I #
point $-1 -37.704036015133937 4.2270007000316028 3.649638697902442 #
plane-surface $-1 0 0 5.6140356263449513 0 0 1 1 0 0 forward_v I I I I #
coedge $-1 $379 $378 $371 $449 forward $263 $-1 #
coedge $-1 $371 $265 $267 $375 reversed $172 $-1 #
coedge $-1 $265 $370 $369 $449 reversed $172 $-1 #
coedge $-1 $273 $268 $265 $373 forward $274 $-1 #
edge $-1 $376 20.871804356340974 $450 26.500606574197583 $372 $451 forward 7 unknown #
coedge $-1 $267 $266 $379 $452 reversed $108 $-1 #
edge $-1 $453 -81.814020203253278 $376 -74.571105045927865 $370 $454 forward 7 unknown #
vertex $-1 $269 $455 #
straight-curve $-1 35.278207883770037 0.38381682831380104 5.6140356263449434 0 -1 0 I I #
coedge $-1 $369 $270 $273 $383 reversed $263 $-1 #
coedge $-1 $270 $369 $374 $452 forward $263 $-1 #
vertex $-1 $271 $456 #
straight-curve $-1 40.907010101626639 6.5332453956342711 58.062294035698613 0 0 1 I I #
straight-curve $-1 -22.67442477215851 6.5332453956342711 52.543153197612078 0.77714595512881146 0 -0.62932039886446345 I I #
edge $-1 $450 -4.9979780823790669 $275 6.5332453956342711 $378 $457 forward 7 unknown #
point $-1 40.907010101626639 6.5332453956342711 5.6140356263449513 #
point $-1 35.27820788377003 6.5332453956342711 5.6140356263449505 #
edge $-1 $458 1 $458 0 $278 $-1 forward 7 unknown #
vertex $-1 $279 $459 #
ellipse-curve $-1 37.036033685141028 -2.6917333867763986 2.0302166823289318 0.62932039886446345 0 0.77714595512881146 0.38857297756440573 0 -0.31466019943223172 1 I I #
point $-1 38.48118197026276 -2.6917333867763986 3.0203182990379798 #
edge $-1 $460 1 $460 0 $282 $-1 forward 7 unknown #
vertex $-1 $283 $461 #
ellipse-curve $-1 37.036033685141028 0.76763365662760208 2.0302166823289318 0.62932039886446345 0 0.77714595512881146 0.38857297756440573 0 -0.31466019943223172 1 I I #
point $-1 38.48118197026276 0.76763365662760208 3.0203182990379798 #
edge $-1 $462 1 $462 0 $286 $-1 forward 7 unknown #
vertex $-1 $287 $463 #
ellipse-curve $-1 37.036033685141028 4.2270007000316028 2.0302166823289318 0.62932039886446345 0 0.77714595512881146 0.38857297756440573 0 -0.31466019943223172 1 I I #
point $-1 38.48118197026276 4.2270007000316028 3.0203182990379798 #
plane-surface $-1 40.907010101626639 0 0 -1 0 0 0 0 1 forward_v I I I I #
coedge $-1 $295 $293 $297 $403 reversed $201 $-1 #
edge $-1 $308 -5.6140356263449513 $405 5.6140356263449513 $307 $464 forward 7 unknown #
vertex $-1 $403 $465 #
straight-curve $-1 -40.907010101626639 -22.494173977236823 0 0 0 -1 I I #
edge $-1 $401 -22.494173977236823 $405 22.494173977236823 $399 $466 forward 7 unknown #
straight-curve $-1 0 -22.494173977236823 -5.6140356263449513 -1 0 0 I I #
vertex $-1 $300 $467 #
straight-curve $-1 0 22.494173977236823 -5.6140356263449513 1 0 0 I I #
point $-1 40.907010101626639 22.494173977236823 -5.6140356263449513 #
point $-1 40.907010101626639 -22.494173977236823 -5.6140356263449513 #
straight-curve $-1 -40.907010101626639 0 5.6140356263449513 0 -1 0 I I #
point $-1 -40.907010101626639 22.494173977236823 5.6140356263449513 #
point $-1 -40.907010101626639 -22.494173977236823 5.6140356263449513 #
straight-curve $-1 40.907010101626639 -22.494173977236823 0 0 0 -1 I I #
straight-curve $-1 40.907010101626639 22.494173977236823 0 0 0 -1 I I #
loop $-1 $-1 $422 $317 #
plane-surface $-1 -40.907010101626639 0 0 1 0 0 0 0 -1 forward_v I I I I #
coedge $-1 $321 $320 $428 $468 forward $135 $-1 #
edge $-1 $325 16.460385232131912 $431 22.494173977236823 $324 $469 forward 7 unknown #
coedge $-1 $425 $422 $321 $419 reversed $414 $-1 #
edge $-1 $470 -22.494173977236823 $420 -16.460385232131912 $418 $471 forward 7 unknown #
vertex $-1 $423 $472 #
straight-curve $-1 0 -16.460385232131912 -5.6140356263449513 1 0 0 I I #
coedge $-1 $418 $327 $323 $423 forward $414 $-1 #
edge $-1 $329 0.55701781317247567 $420 3.5570178131724757 $422 $473 forward 7 unknown #
point $-1 40.907010101626639 -16.460385232131912 -5.6140356263449513 #
coedge $-1 $327 $418 $331 $429 reversed $414 $-1 #
straight-curve $-1 -40.907010101626639 -9.7386398023421847 -2.6140356263449513 0 1 0 I I #
point $-1 -40.907010101626639 -16.460385232131912 -2.6140356263449513 #
coedge $-1 $332 $331 $416 $468 reversed $318 $-1 #
edge $-1 $333 2.6140356263449513 $470 5.6140356263449513 $425 $474 forward 7 unknown #
point $-1 -40.907010101626639 -22.494173977236827 -2.6140356263449513 #
vertex $-1 $335 $475 #
straight-curve $-1 40.907010101626639 -22.494173977236823 0 0 0 -1 I I #
coedge $-1 $349 $348 $341 $434 forward $338 $-1 #
edge $-1 $435 26.704642495845356 $438 31.26275675159485 $433 $476 forward 7 unknown #
vertex $-1 $353 $477 #
straight-curve $-1 -46.197120964321627 6.5332453956342711 5.6140356263449505 -1 0 0 I I #
edge $-1 $438 -6.1494285673204701 $350 5.381794910692868 $349 $478 forward 7 unknown #
vertex $-1 $437 $479 #
straight-curve $-1 -40.907010101626632 6.5332453956342711 1.0559213705954633 0.77714595512881146 0 0.62932039886446345 I I #
point $-1 -35.278207883770037 6.5332453956342711 5.6140356263449513 #
point $-1 -40.907010101626639 -4.9979780823790669 1.0559213705954575 #
straight-curve $-1 -40.907010101626639 0 5.6140356263449513 0 -1 0 I I #
vertex $-1 $356 $480 #
point $-1 -36.64746070757662 -2.6917333867763986 2.344876881761162 #
vertex $-1 $360 $481 #
point $-1 -36.64746070757662 0.76763365662760208 2.344876881761162 #
vertex $-1 $364 $482 #
point $-1 -36.64746070757662 4.2270007000316028 2.344876881761162 #
edge $-1 $450 52.448258409353663 $453 57.006372665103157 $369 $483 forward 7 unknown #
vertex $-1 $383 $484 #
straight-curve $-1 14.406403527429056 -4.9979780823790669 5.6140356263449505 1 0 0 I I #
edge $-1 $453 -5.381794910692868 $380 6.1494285673204701 $379 $485 forward 7 unknown #
vertex $-1 $452 $486 #
straight-curve $-1 -22.67442477215851 -4.9979780823790669 52.543153197612078 -0.77714595512881146 0 0.62932039886446345 I I #
point $-1 35.27820788377003 -4.9979780823790669 5.6140356263449505 #
point $-1 40.907010101626639 6.5332453956342711 1.0559213705954562 #
straight-curve $-1 40.907010101626639 0 5.6140356263449513 0 1 0 I I #
vertex $-1 $386 $487 #
point $-1 37.424606662705436 -2.6917333867763986 1.7155564828967003 #
vertex $-1 $390 $488 #
point $-1 37.424606662705436 0.76763365662760208 1.7155564828967003 #
vertex $-1 $394 $489 #
point $-1 37.424606662705436 4.2270007000316028 1.7155564828967003 #
straight-curve $-1 -40.907010101626639 22.494173977236823 0 0 0 -1 I I #
point $-1 -40.907010101626639 -22.494173977236823 -5.6140356263449513 #
straight-curve $-1 -40.907010101626639 0 -5.6140356263449513 0 1 0 I I #
point $-1 -40.907010101626639 22.494173977236823 -5.6140356263449513 #
edge $-1 $431 -40.907010101626639 $470 40.907010101626639 $428 $490 forward 7 unknown #
straight-curve $-1 40.907010101626639 0 -5.6140356263449513 0 -1 0 I I #
vertex $-1 $419 $491 #
straight-curve $-1 -40.907010101626639 0 -5.6140356263449513 0 1 0 I I #
point $-1 -40.907010101626639 -16.460385232131912 -5.6140356263449513 #
straight-curve $-1 -40.907010101626639 -16.460385232131912 -2.0570178131724757 0 0 -1 I I #
straight-curve $-1 -40.907010101626639 -22.494173977236823 0 0 0 -1 I I #
point $-1 40.907010101626639 -22.494173977236823 -5.6140356263449513 #
straight-curve $-1 -40.907010101626639 6.5332453956342711 32.318678122190306 0 0 -1 I I #
point $-1 -40.907010101626639 6.5332453956342711 5.6140356263449513 #
straight-curve $-1 -40.907010101626639 0.38381682831380104 1.05592137059546 0 -1 0 I I #
point $-1 -40.907010101626639 6.5332453956342711 1.0559213705954575 #
point $-1 -36.721373485708796 -2.6917333867763986 1.6416437047645245 #
point $-1 -36.721373485708796 0.76763365662760208 1.6416437047645245 #
point $-1 -36.721373485708796 4.2270007000316028 1.6416437047645245 #
straight-curve $-1 40.907010101626639 -4.9979780823790669 58.062294035698613 0 0 -1 I I #
point $-1 40.907010101626639 -4.9979780823790669 5.6140356263449513 #
straight-curve $-1 40.907010101626632 0.38381682831380104 1.0559213705954491 0 1 0 I I #
point $-1 40.907010101626639 -4.9979780823790669 1.0559213705954562 #
point $-1 36.721373485708803 -2.6917333867763986 1.6416437047645263 #
point $-1 36.721373485708803 0.76763365662760208 1.6416437047645263 #
point $-1 36.721373485708803 4.2270007000316028 1.6416437047645263 #
straight-curve $-1 0 -22.494173977236823 -5.6140356263449513 -1 0 0 I I #
point $-1 -40.907010101626639 -22.494173977236823 -5.6140356263449513 #
End-of-ACIS-data 