500 0 12 0           
7 Unknown 11 ACIS 5.0 NT 24 Thu Mar 25 20:45:07 1999 
-1 9.9999999999999995e-007 1e-010 
body $-1 $12 $-1 $13 #
body $-1 $14 $-1 $15 #
body $-1 $16 $-1 $17 #
body $-1 $18 $-1 $19 #
body $-1 $20 $-1 $21 #
body $-1 $22 $-1 $23 #
body $-1 $24 $-1 $25 #
body $-1 $26 $-1 $27 #
body $-1 $28 $-1 $29 #
body $-1 $30 $-1 $31 #
body $-1 $32 $-1 $33 #
body $-1 $34 $-1 $35 #
lump $-1 $-1 $36 $0 #
transform $-1 1 0 0 0 1 0 0 0 1 71.006805627613147 29.007321352888702 9.333121358660696 1 rotate no_reflect no_shear #
lump $-1 $-1 $37 $1 #
transform $-1 1 0 0 0 1 0 0 0 1 71.006805627613147 29.007321352888702 9.333121358660696 1 rotate no_reflect no_shear #
lump $-1 $-1 $38 $2 #
transform $-1 1 0 0 0 1 0 0 0 1 71.006805627613147 29.007321352888702 9.333121358660696 1 rotate no_reflect no_shear #
lump $-1 $-1 $39 $3 #
transform $-1 1 0 0 0 1 0 0 0 1 71.006805627613147 29.007321352888702 9.333121358660696 1 rotate no_reflect no_shear #
lump $-1 $-1 $40 $4 #
transform $-1 1 0 0 0 1 0 0 0 1 71.006805627613147 29.007321352888702 9.333121358660696 1 rotate no_reflect no_shear #
lump $-1 $-1 $41 $5 #
transform $-1 1 0 0 0 1 0 0 0 1 71.006805627613147 29.007321352888702 9.333121358660696 1 rotate no_reflect no_shear #
lump $-1 $-1 $42 $6 #
transform $-1 1 0 0 0 1 0 0 0 1 71.006805627613147 29.007321352888702 9.333121358660696 1 rotate no_reflect no_shear #
lump $-1 $-1 $43 $7 #
transform $-1 1 0 0 0 1 0 0 0 1 71.006805627613147 29.007321352888702 9.333121358660696 1 rotate no_reflect no_shear #
lump $-1 $-1 $44 $8 #
transform $-1 1 0 0 0 1 0 0 0 1 71.006805627613147 29.007321352888702 9.333121358660696 1 rotate no_reflect no_shear #
lump $-1 $-1 $45 $9 #
transform $-1 1 0 0 0 1 0 0 0 1 71.006805627613147 29.007321352888702 9.333121358660696 1 rotate no_reflect no_shear #
lump $-1 $-1 $46 $10 #
transform $-1 1 0 0 0 1 0 0 0 1 71.006805627613147 29.007321352888702 9.333121358660696 1 rotate no_reflect no_shear #
lump $-1 $-1 $47 $11 #
transform $-1 1 0 0 0 1 0 0 0 1 71.006805627613147 29.007321352888702 9.333121358660696 1 rotate no_reflect no_shear #
shell $-1 $-1 $-1 $48 $-1 $12 #
shell $-1 $-1 $-1 $49 $-1 $14 #
shell $-1 $-1 $-1 $50 $-1 $16 #
shell $-1 $-1 $-1 $51 $-1 $18 #
shell $-1 $-1 $-1 $52 $-1 $20 #
shell $-1 $-1 $-1 $53 $-1 $22 #
shell $-1 $-1 $-1 $54 $-1 $24 #
shell $-1 $-1 $-1 $55 $-1 $26 #
shell $-1 $-1 $-1 $56 $-1 $28 #
shell $-1 $-1 $-1 $57 $-1 $30 #
shell $-1 $-1 $-1 $58 $-1 $32 #
shell $-1 $-1 $-1 $59 $-1 $34 #
face $-1 $60 $61 $36 $-1 $62 forward single #
face $-1 $63 $64 $37 $-1 $65 reversed single #
face $-1 $66 $67 $38 $-1 $68 forward single #
face $-1 $69 $70 $39 $-1 $71 forward single #
face $-1 $72 $73 $40 $-1 $74 forward single #
face $-1 $75 $76 $41 $-1 $77 reversed single #
face $-1 $78 $79 $42 $-1 $80 forward single #
face $-1 $81 $82 $43 $-1 $83 forward single #
face $-1 $84 $85 $44 $-1 $86 forward single #
face $-1 $87 $88 $45 $-1 $89 reversed single #
face $-1 $90 $91 $46 $-1 $92 forward single #
face $-1 $93 $94 $47 $-1 $95 forward single #
face $-1 $96 $97 $36 $-1 $98 reversed single #
loop $-1 $-1 $99 $48 #
plane-surface $-1 0 0 9.333121358660696 0 0 1 1 0 0 forward_v I I I I #
face $-1 $100 $101 $37 $-1 $102 reversed single #
loop $-1 $-1 $103 $49 #
plane-surface $-1 -31.169142370806327 88.403563267959925 146.10763096796907 1 0 0 0 -0.70710678939079041 -0.70710677298230451 forward_v I I I I #
face $-1 $104 $105 $38 $-1 $106 forward single #
loop $-1 $107 $108 $50 #
cone-surface $-1 -24.935313896645063 25.855881959909652 6.1816819305169828 0 -0.70710678939079041 -0.70710677298230451 1 0 0 1 I I 0 1 1 forward I I I I #
face $-1 $109 $110 $39 $-1 $111 forward single #
loop $-1 $112 $113 $51 #
cone-surface $-1 -15.584571185403163 25.855881959909652 6.1816819305169828 0 -0.70710678939079041 -0.70710677298230451 1 0 0 1 I I 0 1 1 forward I I I I #
face $-1 $114 $115 $40 $-1 $116 forward single #
loop $-1 $117 $118 $52 #
cone-surface $-1 -6.2338284741612711 25.855881959909652 6.1816819305169828 0 -0.70710678939079041 -0.70710677298230451 1 0 0 1 I I 0 1 1 forward I I I I #
face $-1 $119 $120 $41 $-1 $121 reversed single #
loop $-1 $-1 $122 $53 #
plane-surface $-1 -15.584571185403163 -12.015225436514953 45.688844593722521 0 0.70710678939079041 0.70710677298230451 1 0 0 forward_v I I I I #
face $-1 $123 $124 $42 $-1 $125 forward single #
loop $-1 $126 $127 $54 #
cone-surface $-1 6.2338284741612711 25.855881959909652 6.1816819305169828 0 -0.70710678939079041 -0.70710677298230451 1 0 0 1 I I 0 1 1 forward I I I I #
face $-1 $128 $129 $43 $-1 $130 forward single #
loop $-1 $131 $132 $55 #
cone-surface $-1 15.584571185403163 25.855881959909652 6.1816819305169828 0 -0.70710678939079041 -0.70710677298230451 1 0 0 1 I I 0 1 1 forward I I I I #
face $-1 $133 $134 $44 $-1 $135 forward single #
loop $-1 $136 $137 $56 #
cone-surface $-1 24.935313896645056 25.855881959909652 6.1816819305169828 0 -0.70710678939079041 -0.70710677298230451 1 0 0 1 I I 0 1 1 forward I I I I #
face $-1 $138 $139 $45 $-1 $140 reversed single #
loop $-1 $-1 $141 $57 #
plane-surface $-1 8.8478424588103337 -110.46298345979685 116.47279814829278 -1 0 0 0 -0.57357644374324357 0.81915203911291934 forward_v I I I I #
face $-1 $142 $143 $46 $-1 $144 forward single #
loop $-1 $145 $146 $58 #
cone-surface $-1 -16.084363309323464 -21.28184074383713 3.0775366641337638 0 0.57357644374324357 -0.81915203911291934 4 0 0 1 I I 0 1 4 forward I I I I #
face $-1 $147 $148 $47 $-1 $149 forward single #
loop $-1 $150 $151 $59 #
cone-surface $-1 -1.125039848443194 -21.28184074383713 3.0775366641337638 0 0.57357644374324357 -0.81915203911291934 4 0 0 1 I I 0 1 4 forward I I I I #
face $-1 $152 $153 $36 $-1 $154 reversed single #
loop $-1 $-1 $155 $60 #
plane-surface $-1 0 0 -9.333121358660696 0 0 1 1 0 0 forward_v I I I I #
coedge $-1 $156 $157 $158 $159 forward $61 $-1 #
face $-1 $160 $161 $37 $-1 $162 reversed single #
loop $-1 $-1 $163 $63 #
plane-surface $-1 -15.584571185403163 -12.015225436514953 45.688844593722521 0 0.70710678939079041 0.70710677298230451 1 0 0 forward_v I I I I #
coedge $-1 $164 $165 $166 $167 reversed $64 $-1 #
face $-1 $-1 $168 $38 $-1 $169 forward single #
loop $-1 $170 $171 $66 #
cone-surface $-1 -24.935313896645063 24.684301371225281 5.010101369019262 0 -0.70710678939079041 -0.70710677298230451 0.5 0 0 1 I I -0.70710678118654746 0.70710678118654746 0.5 forward I I I I #
loop $-1 $-1 $172 $50 #
coedge $-1 $108 $108 $173 $174 reversed $67 $-1 #
face $-1 $-1 $175 $39 $-1 $176 forward single #
loop $-1 $177 $178 $69 #
cone-surface $-1 -15.584571185403163 24.684301371225281 5.010101369019262 0 -0.70710678939079041 -0.70710677298230451 0.5 0 0 1 I I -0.70710678118654746 0.70710678118654746 0.5 forward I I I I #
loop $-1 $-1 $179 $51 #
coedge $-1 $113 $113 $180 $181 reversed $70 $-1 #
face $-1 $-1 $182 $40 $-1 $183 forward single #
loop $-1 $184 $185 $72 #
cone-surface $-1 -6.2338284741612711 24.684301371225281 5.010101369019262 0 -0.70710678939079041 -0.70710677298230451 0.5 0 0 1 I I -0.70710678118654746 0.70710678118654746 0.5 forward I I I I #
loop $-1 $-1 $186 $52 #
coedge $-1 $118 $118 $187 $188 reversed $73 $-1 #
face $-1 $189 $190 $41 $-1 $191 forward single #
loop $-1 $-1 $192 $75 #
plane-surface $-1 31.169142370806327 88.403563267959925 146.10763096796907 -1 0 0 0 0.70710678939079041 0.70710677298230451 forward_v I I I I #
coedge $-1 $193 $194 $195 $196 reversed $76 $-1 #
face $-1 $-1 $197 $42 $-1 $198 forward single #
loop $-1 $199 $200 $78 #
cone-surface $-1 6.2338284741612711 24.684301371225281 5.010101369019262 0 -0.70710678939079041 -0.70710677298230451 0.5 0 0 1 I I -0.70710678118654746 0.70710678118654746 0.5 forward I I I I #
loop $-1 $-1 $201 $54 #
coedge $-1 $127 $127 $202 $203 reversed $79 $-1 #
face $-1 $-1 $204 $43 $-1 $205 forward single #
loop $-1 $206 $207 $81 #
cone-surface $-1 15.584571185403163 24.684301371225281 5.010101369019262 0 -0.70710678939079041 -0.70710677298230451 0.5 0 0 1 I I -0.70710678118654746 0.70710678118654746 0.5 forward I I I I #
loop $-1 $-1 $208 $55 #
coedge $-1 $132 $132 $209 $210 reversed $82 $-1 #
face $-1 $-1 $211 $44 $-1 $212 forward single #
loop $-1 $213 $214 $84 #
cone-surface $-1 24.935313896645056 24.684301371225281 5.010101369019262 0 -0.70710678939079041 -0.70710677298230451 0.5 0 0 1 I I -0.70710678118654746 0.70710678118654746 0.5 forward I I I I #
loop $-1 $-1 $215 $56 #
coedge $-1 $137 $137 $216 $217 reversed $85 $-1 #
face $-1 $218 $219 $45 $-1 $220 reversed single #
loop $-1 $-1 $221 $87 #
plane-surface $-1 -8.6047015788833221 -29.007321352888681 0.14205890678472599 0 -0.57357644374324357 0.81915203911291934 1 0 0 forward_v I I I I #
coedge $-1 $222 $223 $224 $225 reversed $88 $-1 #
face $-1 $-1 $226 $46 $-1 $227 forward single #
loop $-1 $228 $229 $90 #
cone-surface $-1 -16.084363309323464 -18.972305881487934 -0.22082088268103028 0 0.57357644374324357 -0.81915203911291934 2 0 0 1 I I -0.70710678118654746 0.70710678118654746 2 forward I I I I #
loop $-1 $-1 $230 $58 #
coedge $-1 $146 $146 $231 $232 reversed $91 $-1 #
face $-1 $-1 $233 $47 $-1 $234 forward single #
loop $-1 $235 $236 $93 #
cone-surface $-1 -1.125039848443194 -18.972305881487934 -0.22082088268103028 0 0.57357644374324357 -0.81915203911291934 2 0 0 1 I I -0.70710678118654746 0.70710678118654746 2 forward I I I I #
loop $-1 $-1 $237 $59 #
coedge $-1 $151 $151 $238 $239 reversed $94 $-1 #
face $-1 $240 $241 $36 $-1 $242 reversed single #
loop $-1 $-1 $243 $96 #
plane-surface $-1 0 -29.007321352888702 0 0 1 0 0 0 1 forward_v I I I I #
coedge $-1 $244 $245 $246 $247 forward $97 $-1 #
coedge $-1 $248 $99 $249 $250 forward $61 $-1 #
coedge $-1 $99 $248 $251 $252 forward $61 $-1 #
coedge $-1 $253 $254 $99 $159 reversed $255 $-1 #
edge $-1 $256 -29.007321352888702 $257 29.007321352888702 $158 $258 forward 7 unknown #
face $-1 $259 $260 $37 $-1 $261 reversed single #
loop $-1 $-1 $262 $100 #
plane-surface $-1 0 88.403563267959925 146.10763096796907 -1 0 0 0 0.70710678939079041 0.70710677298230451 forward_v I I I I #
coedge $-1 $263 $264 $265 $266 reversed $101 $-1 #
coedge $-1 $165 $103 $267 $268 reversed $64 $-1 #
coedge $-1 $103 $164 $263 $269 reversed $64 $-1 #
coedge $-1 $265 $270 $103 $167 forward $271 $-1 #
edge $-1 $272 15.19446028109126 $273 19.861284679071396 $166 $274 forward 7 unknown #
loop $-1 $-1 $173 $104 #
plane-surface $-1 -15.584571185403163 -12.015225436514953 45.688844593722521 0 0.70710678939079041 0.70710677298230451 1 0 0 forward_v I I I I #
loop $-1 $-1 $275 $66 #
coedge $-1 $171 $171 $172 $276 reversed $105 $-1 #
coedge $-1 $172 $172 $171 $276 forward $107 $-1 #
coedge $-1 $173 $173 $108 $174 forward $168 $-1 #
edge $-1 $277 -6.2803681587638465e-016 $277 6.2831853071795996 $173 $278 forward 7 unknown #
loop $-1 $-1 $180 $109 #
plane-surface $-1 -15.584571185403163 -12.015225436514953 45.688844593722521 0 0.70710678939079041 0.70710677298230451 1 0 0 forward_v I I I I #
loop $-1 $-1 $279 $69 #
coedge $-1 $178 $178 $179 $280 reversed $110 $-1 #
coedge $-1 $179 $179 $178 $280 forward $112 $-1 #
coedge $-1 $180 $180 $113 $181 forward $175 $-1 #
edge $-1 $281 -6.2803681587638465e-016 $281 6.2831853071795996 $180 $282 forward 7 unknown #
loop $-1 $-1 $187 $114 #
plane-surface $-1 -15.584571185403163 -12.015225436514953 45.688844593722521 0 0.70710678939079041 0.70710677298230451 1 0 0 forward_v I I I I #
loop $-1 $-1 $283 $72 #
coedge $-1 $185 $185 $186 $284 reversed $115 $-1 #
coedge $-1 $186 $186 $185 $284 forward $117 $-1 #
coedge $-1 $187 $187 $118 $188 forward $182 $-1 #
edge $-1 $285 -6.2803681587638465e-016 $285 6.2831853071795996 $187 $286 forward 7 unknown #
face $-1 $287 $288 $41 $-1 $289 forward single #
loop $-1 $-1 $290 $119 #
plane-surface $-1 0 0 9.333121358660696 0 0 1 1 0 0 forward_v I I I I #
coedge $-1 $291 $292 $293 $294 reversed $120 $-1 #
coedge $-1 $295 $122 $296 $297 reversed $76 $-1 #
coedge $-1 $122 $295 $290 $298 reversed $76 $-1 #
coedge $-1 $299 $300 $122 $196 forward $288 $-1 #
edge $-1 $301 -58.014642705777426 $302 -51.414756272364734 $195 $303 forward 7 unknown #
loop $-1 $-1 $202 $123 #
plane-surface $-1 -15.584571185403163 -12.015225436514953 45.688844593722521 0 0.70710678939079041 0.70710677298230451 1 0 0 forward_v I I I I #
loop $-1 $-1 $304 $78 #
coedge $-1 $200 $200 $201 $305 reversed $124 $-1 #
coedge $-1 $201 $201 $200 $305 forward $126 $-1 #
coedge $-1 $202 $202 $127 $203 forward $197 $-1 #
edge $-1 $306 -6.2803681587638465e-016 $306 6.2831853071795996 $202 $307 forward 7 unknown #
loop $-1 $-1 $209 $128 #
plane-surface $-1 -15.584571185403163 -12.015225436514953 45.688844593722521 0 0.70710678939079041 0.70710677298230451 1 0 0 forward_v I I I I #
loop $-1 $-1 $308 $81 #
coedge $-1 $207 $207 $208 $309 reversed $129 $-1 #
coedge $-1 $208 $208 $207 $309 forward $131 $-1 #
coedge $-1 $209 $209 $132 $210 forward $204 $-1 #
edge $-1 $310 -6.2803681587638465e-016 $310 6.2831853071795996 $209 $311 forward 7 unknown #
loop $-1 $-1 $216 $133 #
plane-surface $-1 -15.584571185403163 -12.015225436514953 45.688844593722521 0 0.70710678939079041 0.70710677298230451 1 0 0 forward_v I I I I #
loop $-1 $-1 $312 $84 #
coedge $-1 $214 $214 $215 $313 reversed $134 $-1 #
coedge $-1 $215 $215 $214 $313 forward $136 $-1 #
coedge $-1 $216 $216 $137 $217 forward $211 $-1 #
edge $-1 $314 -6.2803681587638465e-016 $314 6.2831853071795996 $216 $315 forward 7 unknown #
face $-1 $316 $317 $45 $-1 $318 reversed single #
loop $-1 $-1 $319 $138 #
plane-surface $-1 -26.057245616576978 -110.46298345979685 116.47279814829278 1 0 0 0 0.57357644374324357 -0.81915203911291934 forward_v I I I I #
coedge $-1 $320 $321 $322 $323 reversed $139 $-1 #
coedge $-1 $223 $141 $324 $325 reversed $88 $-1 #
coedge $-1 $141 $222 $320 $326 reversed $88 $-1 #
coedge $-1 $322 $327 $141 $225 forward $328 $-1 #
edge $-1 $329 26.22417037700972 $330 39.350367645387493 $224 $331 forward 7 unknown #
loop $-1 $-1 $231 $142 #
plane-surface $-1 -8.6047015788833221 -29.007321352888681 0.14205890678472599 0 -0.57357644374324357 0.81915203911291934 1 0 0 forward_v I I I I #
loop $-1 $-1 $332 $90 #
coedge $-1 $229 $229 $230 $333 reversed $143 $-1 #
coedge $-1 $230 $230 $229 $333 forward $145 $-1 #
coedge $-1 $231 $231 $146 $232 forward $226 $-1 #
edge $-1 $334 1.9057107067486959e-017 $334 6.2831853071796004 $231 $335 forward 7 unknown #
loop $-1 $-1 $238 $147 #
plane-surface $-1 -8.6047015788833221 -29.007321352888681 0.14205890678472599 0 -0.57357644374324357 0.81915203911291934 1 0 0 forward_v I I I I #
loop $-1 $-1 $336 $93 #
coedge $-1 $236 $236 $237 $337 reversed $148 $-1 #
coedge $-1 $237 $237 $236 $337 forward $150 $-1 #
coedge $-1 $238 $238 $151 $239 forward $233 $-1 #
edge $-1 $338 1.9057107067486959e-017 $338 6.2831853071796004 $238 $339 forward 7 unknown #
face $-1 $340 $341 $36 $-1 $342 reversed single #
loop $-1 $-1 $343 $152 #
plane-surface $-1 -71.006805627613147 0 0 1 0 0 0 0 -1 forward_v I I I I #
coedge $-1 $344 $251 $345 $346 forward $153 $-1 #
coedge $-1 $347 $155 $344 $348 forward $97 $-1 #
coedge $-1 $155 $347 $349 $350 forward $97 $-1 #
coedge $-1 $254 $253 $155 $247 reversed $255 $-1 #
edge $-1 $351 -29.007321352888702 $352 29.007321352888702 $246 $353 forward 7 unknown #
coedge $-1 $157 $156 $354 $355 forward $61 $-1 #
coedge $-1 $356 $357 $156 $250 reversed $341 $-1 #
edge $-1 $257 -71.006805627613147 $358 71.006805627613147 $249 $359 forward 7 unknown #
coedge $-1 $243 $360 $157 $252 reversed $153 $-1 #
edge $-1 $361 -71.006805627613147 $256 71.006805627613147 $251 $362 forward 7 unknown #
coedge $-1 $246 $158 $360 $363 forward $255 $-1 #
coedge $-1 $158 $246 $356 $364 reversed $255 $-1 #
loop $-1 $-1 $253 $340 #
vertex $-1 $159 $365 #
vertex $-1 $159 $366 #
straight-curve $-1 71.006805627613147 0 9.333121358660696 0 1 0 I I #
face $-1 $-1 $271 $37 $-1 $367 forward single #
loop $-1 $-1 $368 $160 #
plane-surface $-1 0 29.007321352888702 0 0 -1 0 0 0 -1 forward_v I I I I #
coedge $-1 $369 $370 $371 $372 reversed $161 $-1 #
coedge $-1 $373 $163 $165 $269 forward $101 $-1 #
coedge $-1 $163 $373 $369 $374 forward $101 $-1 #
coedge $-1 $371 $166 $163 $266 forward $271 $-1 #
edge $-1 $273 -23.376856778104745 $375 7.7922855927015817 $265 $376 forward 7 unknown #
coedge $-1 $377 $378 $164 $268 forward $260 $-1 #
edge $-1 $379 -68.387518631598113 $272 -63.720694125323838 $267 $380 forward 7 unknown #
edge $-1 $273 51.414756272364734 $379 58.014642705777426 $165 $381 forward 7 unknown #
coedge $-1 $166 $371 $377 $382 forward $271 $-1 #
loop $-1 $-1 $371 $259 #
vertex $-1 $268 $383 #
vertex $-1 $167 $384 #
straight-curve $-1 -31.169142370806327 44.201781633979962 9.3331213586606907 0 -1 0 I I #
coedge $-1 $275 $275 $-1 $385 reversed $170 $-1 #
edge $-1 $386 0 $386 6.2831853071796004 $171 $387 forward 7 unknown #
vertex $-1 $174 $388 #
ellipse-curve $-1 -24.935313896645063 26.673909153898634 6.9997091055235607 0 0.70710678939079041 0.70710677298230451 1 0 0 1 I I #
coedge $-1 $279 $279 $-1 $389 reversed $177 $-1 #
edge $-1 $390 0 $390 6.2831853071796004 $178 $391 forward 7 unknown #
vertex $-1 $181 $392 #
ellipse-curve $-1 -15.584571185403163 26.673909153898634 6.9997091055235607 0 0.70710678939079041 0.70710677298230451 1 0 0 1 I I #
coedge $-1 $283 $283 $-1 $393 reversed $184 $-1 #
edge $-1 $394 0 $394 6.2831853071796004 $185 $395 forward 7 unknown #
vertex $-1 $188 $396 #
ellipse-curve $-1 -6.2338284741612711 26.673909153898634 6.9997091055235607 0 0.70710678939079041 0.70710677298230451 1 0 0 1 I I #
face $-1 $-1 $397 $41 $-1 $398 reversed single #
loop $-1 $-1 $299 $189 #
plane-surface $-1 0 88.403563267959925 146.10763096796907 -1 0 0 0 0.70710678939079041 0.70710677298230451 forward_v I I I I #
coedge $-1 $293 $399 $194 $298 forward $190 $-1 #
coedge $-1 $292 $192 $295 $400 reversed $120 $-1 #
coedge $-1 $192 $291 $401 $402 reversed $120 $-1 #
coedge $-1 $403 $290 $192 $294 forward $190 $-1 #
edge $-1 $404 -19.861284679071396 $405 -15.19446028109126 $293 $406 forward 7 unknown #
coedge $-1 $194 $193 $291 $400 forward $76 $-1 #
coedge $-1 $407 $401 $193 $297 forward $397 $-1 #
edge $-1 $408 -38.961427963507909 $301 -7.7922855927015817 $296 $409 forward 7 unknown #
edge $-1 $302 7.7922855927015817 $404 38.961427963507909 $290 $410 forward 7 unknown #
coedge $-1 $300 $195 $399 $411 reversed $288 $-1 #
coedge $-1 $195 $299 $407 $412 reversed $288 $-1 #
vertex $-1 $297 $413 #
vertex $-1 $298 $414 #
straight-curve $-1 0 -12.015225436514953 45.688844593722521 0 -0.70710677298230451 0.70710678939079041 I I #
coedge $-1 $304 $304 $-1 $415 reversed $199 $-1 #
edge $-1 $416 0 $416 6.2831853071796004 $200 $417 forward 7 unknown #
vertex $-1 $203 $418 #
ellipse-curve $-1 6.2338284741612711 26.673909153898634 6.9997091055235607 0 0.70710678939079041 0.70710677298230451 1 0 0 1 I I #
coedge $-1 $308 $308 $-1 $419 reversed $206 $-1 #
edge $-1 $420 0 $420 6.2831853071796004 $207 $421 forward 7 unknown #
vertex $-1 $210 $422 #
ellipse-curve $-1 15.584571185403163 26.673909153898634 6.9997091055235607 0 0.70710678939079041 0.70710677298230451 1 0 0 1 I I #
coedge $-1 $312 $312 $-1 $423 reversed $213 $-1 #
edge $-1 $424 0 $424 6.2831853071796004 $214 $425 forward 7 unknown #
vertex $-1 $217 $426 #
ellipse-curve $-1 24.935313896645056 26.673909153898634 6.9997091055235607 0 0.70710678939079041 0.70710677298230451 1 0 0 1 I I #
face $-1 $-1 $328 $45 $-1 $427 forward single #
loop $-1 $-1 $428 $218 #
plane-surface $-1 0 -29.007321352888702 0 0 1 0 0 0 1 forward_v I I I I #
coedge $-1 $429 $430 $431 $432 reversed $219 $-1 #
coedge $-1 $433 $221 $223 $326 forward $139 $-1 #
coedge $-1 $221 $433 $429 $434 forward $139 $-1 #
coedge $-1 $431 $224 $221 $323 forward $328 $-1 #
edge $-1 $330 -13.150193248251995 $435 21.754894827135317 $322 $436 forward 7 unknown #
coedge $-1 $437 $438 $222 $325 forward $317 $-1 #
edge $-1 $439 -58.094340167361679 $329 -48.903277715485693 $324 $440 forward 7 unknown #
edge $-1 $330 -16.024128173559141 $439 2.6026205989587357e-014 $223 $441 forward 7 unknown #
coedge $-1 $224 $431 $437 $442 forward $328 $-1 #
loop $-1 $-1 $431 $316 #
vertex $-1 $325 $443 #
vertex $-1 $225 $444 #
straight-curve $-1 8.8478424588103337 -55.231491729898423 9.3331213586606978 0 1 0 I I #
coedge $-1 $332 $332 $-1 $445 reversed $228 $-1 #
edge $-1 $446 0 $446 6.2831853071796004 $229 $447 forward 7 unknown #
vertex $-1 $232 $448 #
ellipse-curve $-1 -16.084363309323464 -22.444222718699823 4.7375901327226986 0 -0.57357644374324357 0.81915203911291934 4 0 0 1 I I #
coedge $-1 $336 $336 $-1 $449 reversed $235 $-1 #
edge $-1 $450 0 $450 6.2831853071796004 $236 $451 forward 7 unknown #
vertex $-1 $239 $452 #
ellipse-curve $-1 -1.125039848443194 -22.444222718699823 4.7375901327226986 0 -0.57357644374324357 0.81915203911291934 4 0 0 1 I I #
face $-1 $-1 $255 $36 $-1 $453 reversed single #
loop $-1 $-1 $356 $240 #
plane-surface $-1 0 29.007321352888702 0 0 -1 0 0 0 -1 forward_v I I I I #
coedge $-1 $454 $354 $357 $455 forward $241 $-1 #
coedge $-1 $360 $243 $244 $348 reversed $153 $-1 #
coedge $-1 $354 $454 $243 $346 reversed $241 $-1 #
edge $-1 $361 -9.333121358660696 $456 9.333121358660696 $345 $457 forward 7 unknown #
coedge $-1 $245 $244 $454 $458 forward $97 $-1 #
edge $-1 $352 -71.006805627613147 $456 71.006805627613147 $344 $459 forward 7 unknown #
coedge $-1 $357 $356 $245 $350 reversed $341 $-1 #
edge $-1 $460 -71.006805627613147 $351 71.006805627613147 $349 $461 forward 7 unknown #
vertex $-1 $247 $462 #
vertex $-1 $363 $463 #
straight-curve $-1 71.006805627613147 0 -9.333121358660696 0 -1 0 I I #
coedge $-1 $343 $345 $248 $355 reversed $241 $-1 #
edge $-1 $358 -29.007321352888702 $361 29.007321352888702 $354 $464 forward 7 unknown #
coedge $-1 $349 $249 $254 $364 forward $341 $-1 #
coedge $-1 $249 $349 $343 $455 reversed $341 $-1 #
vertex $-1 $250 $465 #
straight-curve $-1 0 29.007321352888702 9.333121358660696 -1 0 0 I I #
coedge $-1 $251 $344 $253 $363 reversed $153 $-1 #
vertex $-1 $355 $466 #
straight-curve $-1 0 -29.007321352888702 9.333121358660696 1 0 0 I I #
edge $-1 $256 -9.333121358660696 $352 9.333121358660696 $253 $467 forward 7 unknown #
edge $-1 $257 -9.333121358660696 $351 9.333121358660696 $254 $468 forward 7 unknown #
point $-1 71.006805627613147 -29.007321352888702 9.333121358660696 #
point $-1 71.006805627613147 29.007321352888702 9.333121358660696 #
plane-surface $-1 0 0 9.333121358660696 0 0 1 1 0 0 forward_v I I I I #
coedge $-1 $378 $377 $370 $469 forward $260 $-1 #
coedge $-1 $370 $262 $264 $374 reversed $161 $-1 #
coedge $-1 $262 $369 $368 $469 reversed $161 $-1 #
coedge $-1 $270 $265 $262 $372 forward $271 $-1 #
edge $-1 $375 -19.861284679071396 $470 -15.19446028109126 $371 $471 forward 7 unknown #
coedge $-1 $264 $263 $378 $472 reversed $101 $-1 #
edge $-1 $473 -58.014642705777426 $375 -51.414756272364734 $369 $474 forward 7 unknown #
vertex $-1 $266 $475 #
straight-curve $-1 -7.7922855927015817 24.340496954908566 9.3331213586606943 1 0 0 I I #
coedge $-1 $368 $267 $270 $382 reversed $260 $-1 #
coedge $-1 $267 $368 $373 $472 forward $260 $-1 #
vertex $-1 $268 $476 #
straight-curve $-1 -31.169142370806327 29.007321352888702 73.053815483984536 0 0 1 I I #
straight-curve $-1 -31.169142370806327 -12.015225436514953 45.688844593722521 0 0.70710677298230451 -0.70710678939079041 I I #
edge $-1 $470 0 $272 31.169142370806327 $377 $477 forward 7 unknown #
point $-1 -31.169142370806327 29.007321352888702 9.333121358660696 #
point $-1 -31.169142370806327 24.340496954908566 9.3331213586606978 #
edge $-1 $478 1 $478 0 $275 $-1 forward 7 unknown #
vertex $-1 $276 $479 #
ellipse-curve $-1 -24.935313896645063 25.037854765920677 5.3636547555104146 0 0.70710678939079041 0.70710677298230451 1 0 0 1 I I #
point $-1 -23.935313896645063 26.673909153898624 6.999709105523551 #
edge $-1 $480 1 $480 0 $279 $-1 forward 7 unknown #
vertex $-1 $280 $481 #
ellipse-curve $-1 -15.584571185403163 25.037854765920677 5.3636547555104146 0 0.70710678939079041 0.70710677298230451 1 0 0 1 I I #
point $-1 -14.584571185403163 26.673909153898624 6.999709105523551 #
edge $-1 $482 1 $482 0 $283 $-1 forward 7 unknown #
vertex $-1 $284 $483 #
ellipse-curve $-1 -6.2338284741612711 25.037854765920677 5.3636547555104146 0 0.70710678939079041 0.70710677298230451 1 0 0 1 I I #
point $-1 -5.2338284741612711 26.673909153898624 6.999709105523551 #
loop $-1 $-1 $296 $287 #
plane-surface $-1 0 29.007321352888702 0 0 -1 0 0 0 -1 forward_v I I I I #
coedge $-1 $290 $403 $299 $411 forward $190 $-1 #
edge $-1 $408 -58.014642705777426 $404 -51.414756272364734 $291 $484 forward 7 unknown #
coedge $-1 $296 $485 $292 $402 forward $397 $-1 #
edge $-1 $405 63.720694125323838 $408 68.387518631598113 $401 $486 forward 7 unknown #
coedge $-1 $399 $293 $485 $487 forward $190 $-1 #
vertex $-1 $294 $488 #
vertex $-1 $487 $489 #
straight-curve $-1 31.169142370806327 44.201781633979962 9.3331213586606907 0 1 0 I I #
coedge $-1 $485 $296 $300 $412 forward $397 $-1 #
vertex $-1 $402 $490 #
straight-curve $-1 -7.7922855927015817 29.007321352888702 4.6662968523864237 -1 0 0 I I #
straight-curve $-1 -7.7922855927015817 24.340496954908566 9.3331213586606943 1 0 0 I I #
edge $-1 $491 15.19446028109126 $302 19.861284679071396 $399 $492 forward 7 unknown #
edge $-1 $301 -68.387518631598113 $491 -63.720694125323838 $407 $493 forward 7 unknown #
point $-1 0 29.007321352888702 4.6662968523864237 #
point $-1 0 24.340496954908566 9.3331213586606978 #
edge $-1 $494 1 $494 0 $304 $-1 forward 7 unknown #
vertex $-1 $305 $495 #
ellipse-curve $-1 6.2338284741612711 25.037854765920677 5.3636547555104146 0 0.70710678939079041 0.70710677298230451 1 0 0 1 I I #
point $-1 7.2338284741612711 26.673909153898624 6.999709105523551 #
edge $-1 $496 1 $496 0 $308 $-1 forward 7 unknown #
vertex $-1 $309 $497 #
ellipse-curve $-1 15.584571185403163 25.037854765920677 5.3636547555104146 0 0.70710678939079041 0.70710677298230451 1 0 0 1 I I #
point $-1 16.584571185403163 26.673909153898624 6.999709105523551 #
edge $-1 $498 1 $498 0 $312 $-1 forward 7 unknown #
vertex $-1 $313 $499 #
ellipse-curve $-1 24.935313896645056 25.037854765920677 5.3636547555104146 0 0.70710678939079041 0.70710677298230451 1 0 0 1 I I #
point $-1 25.935313896645056 26.673909153898624 6.999709105523551 #
plane-surface $-1 0 0 9.333121358660696 0 0 1 1 0 0 forward_v I I I I #
coedge $-1 $438 $437 $430 $500 forward $317 $-1 #
coedge $-1 $430 $319 $321 $434 reversed $219 $-1 #
coedge $-1 $319 $429 $428 $500 reversed $219 $-1 #
coedge $-1 $327 $322 $319 $432 forward $328 $-1 #
edge $-1 $435 -39.350367645387493 $501 -26.22417037700972 $431 $502 forward 7 unknown #
coedge $-1 $321 $320 $438 $503 reversed $139 $-1 #
edge $-1 $504 -2.6026205989587357e-014 $435 16.024128173559141 $429 $505 forward 7 unknown #
vertex $-1 $323 $506 #
straight-curve $-1 -4.302350789441661 -15.88112408451093 9.333121358660696 -1 0 0 I I #
coedge $-1 $428 $324 $327 $442 reversed $317 $-1 #
coedge $-1 $324 $428 $433 $503 forward $317 $-1 #
vertex $-1 $325 $507 #
straight-curve $-1 8.8478424588103337 -29.007321352888702 58.236399074146391 0 0 1 I I #
straight-curve $-1 8.8478424588103337 -29.007321352888681 0.14205890678472599 0 -0.81915203911291934 -0.57357644374324357 I I #
edge $-1 $501 -26.057245616576978 $329 8.8478424588103337 $437 $508 forward 7 unknown #
point $-1 8.8478424588103337 -29.007321352888702 9.333121358660696 #
point $-1 8.8478424588103337 -15.881124084510931 9.333121358660696 #
edge $-1 $509 1 $509 0 $332 $-1 forward 7 unknown #
vertex $-1 $333 $510 #
ellipse-curve $-1 -16.084363309323464 -20.119458768974422 1.4174831955448084 0 -0.57357644374324357 0.81915203911291934 4 0 0 1 I I #
point $-1 -12.084363309323464 -22.444222718699837 4.737590132722719 #
edge $-1 $511 1 $511 0 $336 $-1 forward 7 unknown #
vertex $-1 $337 $512 #
ellipse-curve $-1 -1.125039848443194 -20.119458768974422 1.4174831955448084 0 -0.57357644374324357 0.81915203911291934 4 0 0 1 I I #
point $-1 2.874960151556806 -22.444222718699837 4.737590132722719 #
plane-surface $-1 71.006805627613147 0 0 -1 0 0 0 0 1 forward_v I I I I #
coedge $-1 $345 $343 $347 $458 reversed $241 $-1 #
edge $-1 $358 -9.333121358660696 $460 9.333121358660696 $357 $513 forward 7 unknown #
vertex $-1 $458 $514 #
straight-curve $-1 -71.006805627613147 -29.007321352888702 0 0 0 -1 I I #
edge $-1 $456 -29.007321352888702 $460 29.007321352888702 $454 $515 forward 7 unknown #
straight-curve $-1 0 -29.007321352888702 -9.333121358660696 -1 0 0 I I #
vertex $-1 $350 $516 #
straight-curve $-1 0 29.007321352888702 -9.333121358660696 1 0 0 I I #
point $-1 71.006805627613147 29.007321352888702 -9.333121358660696 #
point $-1 71.006805627613147 -29.007321352888702 -9.333121358660696 #
straight-curve $-1 -71.006805627613147 0 9.333121358660696 0 -1 0 I I #
point $-1 -71.006805627613147 29.007321352888702 9.333121358660696 #
point $-1 -71.006805627613147 -29.007321352888702 9.333121358660696 #
straight-curve $-1 71.006805627613147 -29.007321352888702 0 0 0 -1 I I #
straight-curve $-1 71.006805627613147 29.007321352888702 0 0 0 -1 I I #
edge $-1 $470 63.720694125323838 $473 68.387518631598113 $368 $517 forward 7 unknown #
vertex $-1 $382 $518 #
straight-curve $-1 0 44.201781633979962 9.3331213586606907 0 1 0 I I #
edge $-1 $473 -7.7922855927015817 $379 23.376856778104745 $378 $519 forward 7 unknown #
vertex $-1 $472 $520 #
straight-curve $-1 0 -12.015225436514953 45.688844593722521 0 -0.70710677298230451 0.70710678939079041 I I #
point $-1 0 24.340496954908566 9.3331213586606978 #
point $-1 -31.169142370806327 29.007321352888702 4.6662968523864237 #
straight-curve $-1 0 29.007321352888702 9.333121358660696 -1 0 0 I I #
vertex $-1 $385 $521 #
point $-1 -23.935313896645063 25.037854765920677 5.3636547555104146 #
vertex $-1 $389 $522 #
point $-1 -14.584571185403163 25.037854765920677 5.3636547555104146 #
vertex $-1 $393 $523 #
point $-1 -5.2338284741612711 25.037854765920677 5.3636547555104146 #
straight-curve $-1 31.169142370806327 -12.015225436514953 45.688844593722521 0 -0.70710677298230451 0.70710678939079041 I I #
coedge $-1 $401 $407 $403 $487 reversed $397 $-1 #
straight-curve $-1 31.169142370806327 29.007321352888702 73.053815483984536 0 0 -1 I I #
edge $-1 $405 -31.169142370806327 $491 0 $485 $524 forward 7 unknown #
point $-1 31.169142370806327 24.340496954908566 9.3331213586606978 #
point $-1 31.169142370806327 29.007321352888702 9.333121358660696 #
point $-1 31.169142370806327 29.007321352888702 4.6662968523864237 #
vertex $-1 $412 $525 #
straight-curve $-1 0 44.201781633979962 9.3331213586606907 0 -1 0 I I #
straight-curve $-1 0 29.007321352888702 73.053815483984536 0 0 1 I I #
vertex $-1 $415 $526 #
point $-1 7.2338284741612711 25.037854765920677 5.3636547555104146 #
vertex $-1 $419 $527 #
point $-1 16.584571185403163 25.037854765920677 5.3636547555104146 #
vertex $-1 $423 $528 #
point $-1 25.935313896645056 25.037854765920677 5.3636547555104146 #
edge $-1 $501 48.903277715485693 $504 58.094340167361679 $428 $529 forward 7 unknown #
vertex $-1 $442 $530 #
straight-curve $-1 -26.057245616576978 -55.231491729898423 9.3331213586606978 0 -1 0 I I #
edge $-1 $504 -21.754894827135317 $439 13.150193248251995 $438 $531 forward 7 unknown #
vertex $-1 $503 $532 #
straight-curve $-1 -26.057245616576978 -29.007321352888681 0.14205890678472599 0 0.81915203911291934 0.57357644374324357 I I #
point $-1 -26.057245616576978 -15.881124084510931 9.333121358660696 #
point $-1 8.8478424588103337 -29.007321352888702 0.14205890678471106 #
straight-curve $-1 0 -29.007321352888702 9.333121358660696 1 0 0 I I #
vertex $-1 $445 $533 #
point $-1 -12.084363309323464 -20.119458768974422 1.4174831955448084 #
vertex $-1 $449 $534 #
point $-1 2.874960151556806 -20.119458768974422 1.4174831955448084 #
straight-curve $-1 -71.006805627613147 29.007321352888702 0 0 0 -1 I I #
point $-1 -71.006805627613147 -29.007321352888702 -9.333121358660696 #
straight-curve $-1 -71.006805627613147 0 -9.333121358660696 0 1 0 I I #
point $-1 -71.006805627613147 29.007321352888702 -9.333121358660696 #
straight-curve $-1 0 29.007321352888702 73.053815483984536 0 0 -1 I I #
point $-1 0 29.007321352888702 9.333121358660696 #
straight-curve $-1 -7.7922855927015817 29.007321352888702 4.6662968523864237 -1 0 0 I I #
point $-1 0 29.007321352888702 4.6662968523864237 #
point $-1 -24.935313896645063 24.330747976529885 4.6565479825281093 #
point $-1 -15.584571185403163 24.330747976529885 4.6565479825281093 #
point $-1 -6.2338284741612711 24.330747976529885 4.6565479825281093 #
straight-curve $-1 0 29.007321352888702 9.333121358660696 -1 0 0 I I #
point $-1 0 29.007321352888702 9.333121358660696 #
point $-1 6.2338284741612711 24.330747976529885 4.6565479825281093 #
point $-1 15.584571185403163 24.330747976529885 4.6565479825281093 #
point $-1 24.935313896645056 24.330747976529885 4.6565479825281093 #
straight-curve $-1 -26.057245616576978 -29.007321352888702 58.236399074146391 0 0 -1 I I #
point $-1 -26.057245616576978 -29.007321352888702 9.333121358660696 #
straight-curve $-1 -4.302350789441661 -29.007321352888702 0.14205890678471153 1 0 0 I I #
point $-1 -26.057245616576978 -29.007321352888702 0.14205890678471106 #
point $-1 -16.084363309323464 -17.825152994001446 -1.859124960906869 #
point $-1 -1.125039848443194 -17.825152994001446 -1.859124960906869 #
End-of-ACIS-data 