500 0 10 0           
7 Unknown 11 ACIS 5.0 NT 24 Fri Mar 26 19:57:40 1999 
-1 9.9999999999999995e-007 1e-010 
body $-1 $10 $-1 $11 #
body $-1 $12 $-1 $13 #
body $-1 $14 $-1 $15 #
body $-1 $16 $-1 $17 #
body $-1 $18 $-1 $19 #
body $-1 $20 $-1 $21 #
body $-1 $22 $-1 $23 #
body $-1 $24 $-1 $25 #
body $-1 $26 $-1 $27 #
body $-1 $28 $-1 $29 #
lump $-1 $-1 $30 $0 #
transform $-1 1 0 0 0 1 0 0 0 1 46.858119449446093 30.439401628622537 14.689075910894136 1 rotate no_reflect no_shear #
lump $-1 $-1 $31 $1 #
transform $-1 1 0 0 0 1 0 0 0 1 46.858119449446093 30.439401628622537 14.689075910894136 1 rotate no_reflect no_shear #
lump $-1 $-1 $32 $2 #
transform $-1 1 0 0 0 1 0 0 0 1 46.858119449446093 30.439401628622537 14.689075910894136 1 rotate no_reflect no_shear #
lump $-1 $-1 $33 $3 #
transform $-1 1 0 0 0 1 0 0 0 1 46.858119449446093 30.439401628622537 14.689075910894136 1 rotate no_reflect no_shear #
lump $-1 $-1 $34 $4 #
transform $-1 1 0 0 0 1 0 0 0 1 46.858119449446093 30.439401628622537 14.689075910894136 1 rotate no_reflect no_shear #
lump $-1 $-1 $35 $5 #
transform $-1 1 0 0 0 1 0 0 0 1 46.858119449446093 30.439401628622537 14.689075910894136 1 rotate no_reflect no_shear #
lump $-1 $-1 $36 $6 #
transform $-1 1 0 0 0 1 0 0 0 1 46.858119449446093 30.439401628622537 14.689075910894136 1 rotate no_reflect no_shear #
lump $-1 $-1 $37 $7 #
transform $-1 1 0 0 0 1 0 0 0 1 46.858119449446093 30.439401628622537 14.689075910894136 1 rotate no_reflect no_shear #
lump $-1 $-1 $38 $8 #
transform $-1 1 0 0 0 1 0 0 0 1 46.858119449446093 30.439401628622537 14.689075910894136 1 rotate no_reflect no_shear #
lump $-1 $-1 $39 $9 #
transform $-1 1 0 0 0 1 0 0 0 1 46.858119449446093 30.439401628622537 14.689075910894136 1 rotate no_reflect no_shear #
shell $-1 $-1 $-1 $40 $-1 $10 #
shell $-1 $-1 $-1 $41 $-1 $12 #
shell $-1 $-1 $-1 $42 $-1 $14 #
shell $-1 $-1 $-1 $43 $-1 $16 #
shell $-1 $-1 $-1 $44 $-1 $18 #
shell $-1 $-1 $-1 $45 $-1 $20 #
shell $-1 $-1 $-1 $46 $-1 $22 #
shell $-1 $-1 $-1 $47 $-1 $24 #
shell $-1 $-1 $-1 $48 $-1 $26 #
shell $-1 $-1 $-1 $49 $-1 $28 #
face $-1 $50 $51 $30 $-1 $52 forward single #
face $-1 $53 $54 $31 $-1 $55 forward single #
face $-1 $56 $57 $32 $-1 $58 reversed single #
face $-1 $59 $60 $33 $-1 $61 forward single #
face $-1 $62 $63 $34 $-1 $64 forward single #
face $-1 $65 $66 $35 $-1 $67 forward single #
face $-1 $68 $69 $36 $-1 $70 reversed single #
face $-1 $71 $72 $37 $-1 $73 forward single #
face $-1 $74 $75 $38 $-1 $76 forward single #
face $-1 $77 $78 $39 $-1 $79 forward single #
face $-1 $80 $81 $30 $-1 $82 reversed single #
loop $-1 $-1 $83 $40 #
plane-surface $-1 0 0 14.689075910894136 0 0 1 1 0 0 forward_v I I I I #
face $-1 $84 $85 $31 $-1 $86 reversed single #
loop $-1 $-1 $87 $41 #
plane-surface $-1 0 -30.439401628622537 0 0 1 0 0 0 1 forward_v I I I I #
face $-1 $88 $89 $32 $-1 $90 reversed single #
loop $-1 $-1 $91 $42 #
plane-surface $-1 72.146948801417494 -0.17446087672483657 138.40841092733945 0 -1 0 -0.82903758062907751 0 -0.55919289150049634 forward_v I I I I #
face $-1 $92 $93 $33 $-1 $94 forward single #
loop $-1 $95 $96 $43 #
cone-surface $-1 43.425198204658962 -10.280726139388062 10.634759246857202 -0.82903758062907751 0 -0.55919289150049634 0.55919289150049634 0 -0.82903758062907751 1 I I 0 1 1 forward I I I I #
face $-1 $97 $98 $34 $-1 $99 forward single #
loop $-1 $100 $101 $44 #
cone-surface $-1 43.425198204658962 -6.4908766658893526 10.634759246857202 -0.82903758062907751 0 -0.55919289150049634 0.55919289150049634 0 -0.82903758062907751 1 I I 0 1 1 forward I I I I #
face $-1 $102 $103 $35 $-1 $104 forward single #
loop $-1 $105 $106 $45 #
cone-surface $-1 43.425198204658962 -2.7010271923906437 10.634759246857202 -0.82903758062907751 0 -0.55919289150049634 0.55919289150049634 0 -0.82903758062907751 1 I I 0 1 1 forward I I I I #
face $-1 $107 $108 $36 $-1 $109 reversed single #
loop $-1 $-1 $110 $46 #
plane-surface $-1 -124.55240341184032 -12.807292455053869 60.714126964945223 0 1 0 -0.82903758062907751 0 0.55919289150049634 forward_v I I I I #
face $-1 $111 $112 $37 $-1 $113 forward single #
loop $-1 $114 $115 $47 #
cone-surface $-1 -43.425198204658969 -10.280726139388062 10.634759246857202 0.82903758062907751 0 -0.55919289150049634 0.55919289150049634 0 0.82903758062907751 1 I I 0 1 1 forward I I I I #
face $-1 $116 $117 $38 $-1 $118 forward single #
loop $-1 $119 $120 $48 #
cone-surface $-1 -43.425198204658969 -6.4908766658893526 10.634759246857202 0.82903758062907751 0 -0.55919289150049634 0.55919289150049634 0 0.82903758062907751 1 I I 0 1 1 forward I I I I #
face $-1 $121 $122 $39 $-1 $123 forward single #
loop $-1 $124 $125 $49 #
cone-surface $-1 -43.425198204658969 -2.7010271923906437 10.634759246857202 0.82903758062907751 0 -0.55919289150049634 0.55919289150049634 0 0.82903758062907751 1 I I 0 1 1 forward I I I I #
face $-1 $126 $127 $30 $-1 $128 reversed single #
loop $-1 $-1 $129 $50 #
plane-surface $-1 0 0 -14.689075910894136 0 0 1 1 0 0 forward_v I I I I #
coedge $-1 $130 $131 $132 $133 forward $51 $-1 #
face $-1 $134 $135 $31 $-1 $136 reversed single #
loop $-1 $-1 $137 $53 #
plane-surface $-1 0 0 -14.689075910894136 0 0 1 1 0 0 forward_v I I I I #
coedge $-1 $138 $139 $140 $141 forward $54 $-1 #
face $-1 $142 $143 $32 $-1 $144 reversed single #
loop $-1 $-1 $145 $56 #
plane-surface $-1 -5.5473351609767292 -6.4908766658893526 86.002956316916624 0.82903758062907751 0 0.55919289150049634 0.55919289150049634 0 -0.82903758062907751 forward_v I I I I #
coedge $-1 $146 $147 $148 $149 reversed $57 $-1 #
face $-1 $-1 $150 $33 $-1 $151 forward single #
loop $-1 $152 $153 $59 #
cone-surface $-1 41.729576372370389 -10.280726139388062 9.4910479152558871 -0.82903758062907751 0 -0.55919289150049634 0.27959644575024817 0 -0.41451879031453875 1 I I -0.70710678118654746 0.70710678118654746 0.5 forward I I I I #
loop $-1 $-1 $154 $43 #
coedge $-1 $96 $96 $155 $156 reversed $60 $-1 #
face $-1 $-1 $157 $34 $-1 $158 forward single #
loop $-1 $159 $160 $62 #
cone-surface $-1 41.729576372370389 -6.4908766658893526 9.4910479152558871 -0.82903758062907751 0 -0.55919289150049634 0.27959644575024817 0 -0.41451879031453875 1 I I -0.70710678118654746 0.70710678118654746 0.5 forward I I I I #
loop $-1 $-1 $161 $44 #
coedge $-1 $101 $101 $162 $163 reversed $63 $-1 #
face $-1 $-1 $164 $35 $-1 $165 forward single #
loop $-1 $166 $167 $65 #
cone-surface $-1 41.729576372370389 -2.7010271923906437 9.4910479152558871 -0.82903758062907751 0 -0.55919289150049634 0.27959644575024817 0 -0.41451879031453875 1 I I -0.70710678118654746 0.70710678118654746 0.5 forward I I I I #
loop $-1 $-1 $168 $45 #
coedge $-1 $106 $106 $169 $170 reversed $66 $-1 #
face $-1 $171 $172 $36 $-1 $173 reversed single #
loop $-1 $-1 $174 $68 #
plane-surface $-1 -46.858119449446093 -6.4908766658893526 8.3086723545224075 -0.82903758062907751 0 0.55919289150049634 0.55919289150049634 0 0.82903758062907751 forward_v I I I I #
coedge $-1 $175 $176 $177 $178 reversed $69 $-1 #
face $-1 $-1 $179 $37 $-1 $180 forward single #
loop $-1 $181 $182 $71 #
cone-surface $-1 -41.729576372370396 -10.280726139388062 9.4910479152558871 0.82903758062907751 0 -0.55919289150049634 0.27959644575024817 0 0.41451879031453875 1 I I -0.70710678118654746 0.70710678118654746 0.5 forward I I I I #
loop $-1 $-1 $183 $47 #
coedge $-1 $115 $115 $184 $185 reversed $72 $-1 #
face $-1 $-1 $186 $38 $-1 $187 forward single #
loop $-1 $188 $189 $74 #
cone-surface $-1 -41.729576372370396 -6.4908766658893526 9.4910479152558871 0.82903758062907751 0 -0.55919289150049634 0.27959644575024817 0 0.41451879031453875 1 I I -0.70710678118654746 0.70710678118654746 0.5 forward I I I I #
loop $-1 $-1 $190 $48 #
coedge $-1 $120 $120 $191 $192 reversed $75 $-1 #
face $-1 $-1 $193 $39 $-1 $194 forward single #
loop $-1 $195 $196 $77 #
cone-surface $-1 -41.729576372370396 -2.7010271923906437 9.4910479152558871 0.82903758062907751 0 -0.55919289150049634 0.27959644575024817 0 0.41451879031453875 1 I I -0.70710678118654746 0.70710678118654746 0.5 forward I I I I #
loop $-1 $-1 $197 $49 #
coedge $-1 $125 $125 $198 $199 reversed $78 $-1 #
face $-1 $200 $201 $30 $-1 $202 reversed single #
loop $-1 $-1 $203 $80 #
plane-surface $-1 0 -30.439401628622537 0 0 1 0 0 0 1 forward_v I I I I #
coedge $-1 $204 $205 $206 $207 forward $81 $-1 #
coedge $-1 $208 $83 $209 $210 forward $51 $-1 #
coedge $-1 $83 $208 $211 $212 forward $51 $-1 #
coedge $-1 $213 $214 $83 $133 reversed $215 $-1 #
edge $-1 $216 -30.439401628622537 $217 30.439401628622537 $132 $218 forward 7 unknown #
face $-1 $219 $220 $31 $-1 $221 reversed single #
loop $-1 $-1 $222 $84 #
plane-surface $-1 -20.004146824150379 -48.071510802191206 0 0 1 0 0 0 1 forward_v I I I I #
coedge $-1 $223 $224 $139 $225 forward $85 $-1 #
coedge $-1 $226 $87 $227 $228 reversed $54 $-1 #
coedge $-1 $87 $226 $137 $225 reversed $54 $-1 #
coedge $-1 $229 $230 $87 $141 reversed $220 $-1 #
edge $-1 $231 -14.689075910894136 $232 14.689075910894136 $140 $233 forward 7 unknown #
face $-1 $234 $235 $32 $-1 $236 forward single #
loop $-1 $-1 $237 $88 #
plane-surface $-1 72.146948801417494 -12.807292455053869 138.40841092733945 0 1 0 0.82903758062907751 0 0.55919289150049634 forward_v I I I I #
coedge $-1 $238 $239 $240 $241 reversed $89 $-1 #
coedge $-1 $147 $91 $242 $243 reversed $57 $-1 #
coedge $-1 $91 $146 $238 $244 reversed $57 $-1 #
coedge $-1 $240 $245 $91 $149 forward $235 $-1 #
edge $-1 $246 -10.784645048737346 $247 -6.4810086431111387 $148 $248 forward 7 unknown #
loop $-1 $-1 $155 $92 #
plane-surface $-1 -5.5473351609767292 -6.4908766658893526 86.002956316916624 0.82903758062907751 0 0.55919289150049634 0.55919289150049634 0 -0.82903758062907751 forward_v I I I I #
loop $-1 $-1 $249 $59 #
coedge $-1 $153 $153 $154 $250 reversed $93 $-1 #
coedge $-1 $154 $154 $153 $250 forward $95 $-1 #
coedge $-1 $155 $155 $96 $156 forward $150 $-1 #
edge $-1 $251 0 $251 6.2831853071796004 $155 $252 forward 7 unknown #
loop $-1 $-1 $162 $97 #
plane-surface $-1 -5.5473351609767292 -6.4908766658893526 86.002956316916624 0.82903758062907751 0 0.55919289150049634 0.55919289150049634 0 -0.82903758062907751 forward_v I I I I #
loop $-1 $-1 $253 $62 #
coedge $-1 $160 $160 $161 $254 reversed $98 $-1 #
coedge $-1 $161 $161 $160 $254 forward $100 $-1 #
coedge $-1 $162 $162 $101 $163 forward $157 $-1 #
edge $-1 $255 0 $255 6.2831853071796004 $162 $256 forward 7 unknown #
loop $-1 $-1 $169 $102 #
plane-surface $-1 -5.5473351609767292 -6.4908766658893526 86.002956316916624 0.82903758062907751 0 0.55919289150049634 0.55919289150049634 0 -0.82903758062907751 forward_v I I I I #
loop $-1 $-1 $257 $65 #
coedge $-1 $167 $167 $168 $258 reversed $103 $-1 #
coedge $-1 $168 $168 $167 $258 forward $105 $-1 #
coedge $-1 $169 $169 $106 $170 forward $164 $-1 #
edge $-1 $259 0 $259 6.2831853071796004 $169 $260 forward 7 unknown #
face $-1 $261 $262 $36 $-1 $263 reversed single #
loop $-1 $-1 $264 $107 #
plane-surface $-1 -124.55240341184032 -0.17446087672483657 60.714126964945223 0 -1 0 0.82903758062907751 0 -0.55919289150049634 forward_v I I I I #
coedge $-1 $265 $266 $267 $268 reversed $108 $-1 #
coedge $-1 $176 $110 $269 $270 reversed $69 $-1 #
coedge $-1 $110 $175 $265 $271 reversed $69 $-1 #
coedge $-1 $267 $272 $110 $178 forward $273 $-1 #
edge $-1 $274 15.418082256474065 $275 19.721718662100258 $177 $276 forward 7 unknown #
loop $-1 $-1 $184 $111 #
plane-surface $-1 -46.858119449446093 -6.4908766658893526 8.3086723545224075 -0.82903758062907751 0 0.55919289150049634 0.55919289150049634 0 0.82903758062907751 forward_v I I I I #
loop $-1 $-1 $277 $71 #
coedge $-1 $182 $182 $183 $278 reversed $112 $-1 #
coedge $-1 $183 $183 $182 $278 forward $114 $-1 #
coedge $-1 $184 $184 $115 $185 forward $179 $-1 #
edge $-1 $279 0 $279 6.2831853071796004 $184 $280 forward 7 unknown #
loop $-1 $-1 $191 $116 #
plane-surface $-1 -46.858119449446093 -6.4908766658893526 8.3086723545224075 -0.82903758062907751 0 0.55919289150049634 0.55919289150049634 0 0.82903758062907751 forward_v I I I I #
loop $-1 $-1 $281 $74 #
coedge $-1 $189 $189 $190 $282 reversed $117 $-1 #
coedge $-1 $190 $190 $189 $282 forward $119 $-1 #
coedge $-1 $191 $191 $120 $192 forward $186 $-1 #
edge $-1 $283 0 $283 6.2831853071796004 $191 $284 forward 7 unknown #
loop $-1 $-1 $198 $121 #
plane-surface $-1 -46.858119449446093 -6.4908766658893526 8.3086723545224075 -0.82903758062907751 0 0.55919289150049634 0.55919289150049634 0 0.82903758062907751 forward_v I I I I #
loop $-1 $-1 $285 $77 #
coedge $-1 $196 $196 $197 $286 reversed $122 $-1 #
coedge $-1 $197 $197 $196 $286 forward $124 $-1 #
coedge $-1 $198 $198 $125 $199 forward $193 $-1 #
edge $-1 $287 0 $287 6.2831853071796004 $198 $288 forward 7 unknown #
face $-1 $289 $290 $30 $-1 $291 reversed single #
loop $-1 $-1 $292 $126 #
plane-surface $-1 -46.858119449446093 0 0 1 0 0 0 0 -1 forward_v I I I I #
coedge $-1 $293 $211 $294 $295 forward $127 $-1 #
coedge $-1 $296 $129 $293 $297 forward $81 $-1 #
coedge $-1 $129 $296 $298 $299 forward $81 $-1 #
coedge $-1 $214 $213 $129 $207 reversed $215 $-1 #
edge $-1 $300 -30.439401628622537 $301 30.439401628622537 $206 $302 forward 7 unknown #
coedge $-1 $131 $130 $303 $304 forward $51 $-1 #
coedge $-1 $305 $306 $130 $210 reversed $290 $-1 #
edge $-1 $217 -46.858119449446093 $307 46.858119449446093 $209 $308 forward 7 unknown #
coedge $-1 $203 $309 $131 $212 reversed $127 $-1 #
edge $-1 $310 -46.858119449446093 $216 46.858119449446093 $211 $311 forward 7 unknown #
coedge $-1 $206 $132 $309 $312 forward $215 $-1 #
coedge $-1 $132 $206 $305 $313 reversed $215 $-1 #
loop $-1 $-1 $213 $289 #
vertex $-1 $133 $314 #
vertex $-1 $133 $315 #
straight-curve $-1 46.858119449446093 0 14.689075910894136 0 1 0 I I #
face $-1 $316 $317 $31 $-1 $318 reversed single #
loop $-1 $-1 $140 $134 #
plane-surface $-1 -22.528326020642936 -39.255456215406873 0 1 0 0 0 0 -1 forward_v I I I I #
coedge $-1 $319 $320 $321 $322 forward $135 $-1 #
coedge $-1 $323 $137 $324 $325 forward $85 $-1 #
coedge $-1 $137 $323 $229 $326 forward $85 $-1 #
edge $-1 $231 -22.528326020642936 $327 -17.479967627657821 $137 $328 forward 7 unknown #
coedge $-1 $139 $138 $329 $330 forward $54 $-1 #
coedge $-1 $331 $332 $138 $228 forward $333 $-1 #
edge $-1 $334 17.479967627657821 $232 22.528326020642936 $227 $335 forward 7 unknown #
coedge $-1 $321 $140 $224 $326 reversed $220 $-1 #
coedge $-1 $140 $321 $331 $336 reversed $220 $-1 #
vertex $-1 $225 $337 #
vertex $-1 $336 $338 #
straight-curve $-1 -22.528326020642936 -30.439401628622537 0 0 0 1 I I #
face $-1 $-1 $339 $32 $-1 $340 reversed single #
loop $-1 $-1 $148 $142 #
plane-surface $-1 0 0 14.689075910894136 0 0 1 1 0 0 forward_v I I I I #
coedge $-1 $341 $342 $343 $344 reversed $143 $-1 #
coedge $-1 $345 $145 $147 $244 forward $89 $-1 #
coedge $-1 $145 $345 $341 $346 forward $89 $-1 #
coedge $-1 $343 $148 $145 $241 forward $235 $-1 #
edge $-1 $247 -3.0709774562198398 $347 9.5618541221091924 $240 $348 forward 7 unknown #
coedge $-1 $349 $350 $146 $243 forward $339 $-1 #
edge $-1 $351 -60.895533109147337 $246 -54.515129552775591 $242 $352 forward 7 unknown #
edge $-1 $247 86.0200816854517 $351 93.716238898892215 $147 $353 forward 7 unknown #
coedge $-1 $148 $343 $349 $354 forward $235 $-1 #
vertex $-1 $149 $355 #
vertex $-1 $149 $356 #
straight-curve $-1 36.073474400708747 -0.17446087672483657 14.689075910894132 -1 0 0 I I #
coedge $-1 $249 $249 $-1 $357 reversed $152 $-1 #
edge $-1 $358 0 $358 6.2831853071796004 $153 $359 forward 7 unknown #
vertex $-1 $156 $360 #
ellipse-curve $-1 44.706301246632989 -10.280726139388062 11.498874132708268 0.82903758062907751 0 0.55919289150049634 0.55919289150049634 0 -0.82903758062907751 1 I I #
coedge $-1 $253 $253 $-1 $361 reversed $159 $-1 #
edge $-1 $362 0 $362 6.2831853071796004 $160 $363 forward 7 unknown #
vertex $-1 $163 $364 #
ellipse-curve $-1 44.706301246632989 -6.4908766658893526 11.498874132708268 0.82903758062907751 0 0.55919289150049634 0.55919289150049634 0 -0.82903758062907751 1 I I #
coedge $-1 $257 $257 $-1 $365 reversed $166 $-1 #
edge $-1 $366 0 $366 6.2831853071796004 $167 $367 forward 7 unknown #
vertex $-1 $170 $368 #
ellipse-curve $-1 44.706301246632989 -2.7010271923906437 11.498874132708268 0.82903758062907751 0 0.55919289150049634 0.55919289150049634 0 -0.82903758062907751 1 I I #
face $-1 $-1 $273 $36 $-1 $369 forward single #
loop $-1 $-1 $370 $171 #
plane-surface $-1 -46.858119449446093 0 0 1 0 0 0 0 -1 forward_v I I I I #
coedge $-1 $371 $372 $373 $374 reversed $172 $-1 #
coedge $-1 $375 $174 $176 $271 forward $108 $-1 #
coedge $-1 $174 $375 $371 $376 forward $108 $-1 #
coedge $-1 $373 $177 $174 $268 forward $273 $-1 #
edge $-1 $275 -9.5618541221091924 $377 3.0709774562198398 $267 $378 forward 7 unknown #
coedge $-1 $379 $380 $175 $270 forward $262 $-1 #
edge $-1 $381 -22.048391127950204 $274 -15.667987571578475 $269 $382 forward 7 unknown #
edge $-1 $275 -7.6961572134404932 $381 0 $176 $383 forward 7 unknown #
coedge $-1 $177 $373 $379 $384 forward $273 $-1 #
loop $-1 $-1 $373 $261 #
vertex $-1 $270 $385 #
vertex $-1 $178 $386 #
straight-curve $-1 -62.276201705920158 -12.807292455053869 14.689075910894136 1 0 0 I I #
coedge $-1 $277 $277 $-1 $387 reversed $181 $-1 #
edge $-1 $388 0 $388 6.2831853071796004 $182 $389 forward 7 unknown #
vertex $-1 $185 $390 #
ellipse-curve $-1 -44.706301246632997 -10.280726139388062 11.498874132708268 -0.82903758062907751 0 0.55919289150049634 0.55919289150049634 0 0.82903758062907751 1 I I #
coedge $-1 $281 $281 $-1 $391 reversed $188 $-1 #
edge $-1 $392 0 $392 6.2831853071796004 $189 $393 forward 7 unknown #
vertex $-1 $192 $394 #
ellipse-curve $-1 -44.706301246632997 -6.4908766658893526 11.498874132708268 -0.82903758062907751 0 0.55919289150049634 0.55919289150049634 0 0.82903758062907751 1 I I #
coedge $-1 $285 $285 $-1 $395 reversed $195 $-1 #
edge $-1 $396 0 $396 6.2831853071796004 $196 $397 forward 7 unknown #
vertex $-1 $199 $398 #
ellipse-curve $-1 -44.706301246632997 -2.7010271923906437 11.498874132708268 -0.82903758062907751 0 0.55919289150049634 0.55919289150049634 0 0.82903758062907751 1 I I #
face $-1 $-1 $215 $30 $-1 $399 reversed single #
loop $-1 $-1 $305 $200 #
plane-surface $-1 0 30.439401628622537 0 0 -1 0 0 0 -1 forward_v I I I I #
coedge $-1 $400 $303 $306 $401 forward $201 $-1 #
coedge $-1 $309 $203 $204 $297 reversed $127 $-1 #
coedge $-1 $303 $400 $203 $295 reversed $201 $-1 #
edge $-1 $310 -14.689075910894136 $402 14.689075910894136 $294 $403 forward 7 unknown #
coedge $-1 $205 $204 $400 $404 forward $81 $-1 #
edge $-1 $301 -46.858119449446093 $402 46.858119449446093 $293 $405 forward 7 unknown #
coedge $-1 $306 $305 $205 $299 reversed $290 $-1 #
edge $-1 $406 -46.858119449446093 $300 46.858119449446093 $298 $407 forward 7 unknown #
vertex $-1 $207 $408 #
vertex $-1 $312 $409 #
straight-curve $-1 46.858119449446093 0 -14.689075910894136 0 -1 0 I I #
coedge $-1 $292 $294 $208 $304 reversed $201 $-1 #
edge $-1 $307 -30.439401628622537 $310 30.439401628622537 $303 $410 forward 7 unknown #
coedge $-1 $298 $209 $214 $313 forward $290 $-1 #
coedge $-1 $209 $298 $292 $401 reversed $290 $-1 #
vertex $-1 $210 $411 #
straight-curve $-1 0 30.439401628622537 14.689075910894136 -1 0 0 I I #
coedge $-1 $211 $293 $213 $312 reversed $127 $-1 #
vertex $-1 $304 $412 #
straight-curve $-1 0 -30.439401628622537 14.689075910894136 1 0 0 I I #
edge $-1 $216 -14.689075910894136 $301 14.689075910894136 $213 $413 forward 7 unknown #
edge $-1 $217 -14.689075910894136 $300 14.689075910894136 $214 $414 forward 7 unknown #
point $-1 46.858119449446093 -30.439401628622537 14.689075910894136 #
point $-1 46.858119449446093 30.439401628622537 14.689075910894136 #
face $-1 $-1 $333 $31 $-1 $415 forward single #
loop $-1 $-1 $416 $219 #
plane-surface $-1 -17.479967627657821 -39.255456215406873 0 -1 0 0 0 0 1 forward_v I I I I #
coedge $-1 $417 $222 $323 $418 reversed $135 $-1 #
coedge $-1 $222 $417 $419 $420 reversed $135 $-1 #
coedge $-1 $230 $229 $222 $322 reversed $220 $-1 #
edge $-1 $421 -14.689075910894136 $422 14.689075910894136 $321 $423 forward 7 unknown #
coedge $-1 $224 $223 $319 $418 forward $85 $-1 #
coedge $-1 $329 $416 $223 $325 reversed $317 $-1 #
edge $-1 $327 -8.8160545867843325 $424 8.8160545867843325 $324 $425 forward 7 unknown #
edge $-1 $422 -8.8160545867843325 $231 8.8160545867843325 $229 $426 forward 7 unknown #
vertex $-1 $325 $427 #
straight-curve $-1 0 -30.439401628622537 -14.689075910894136 1 0 0 I I #
coedge $-1 $428 $324 $226 $330 reversed $317 $-1 #
edge $-1 $334 -14.689075910894136 $327 14.689075910894136 $329 $429 forward 7 unknown #
coedge $-1 $419 $227 $230 $336 forward $333 $-1 #
coedge $-1 $227 $419 $428 $430 forward $333 $-1 #
loop $-1 $-1 $227 $316 #
vertex $-1 $228 $431 #
straight-curve $-1 0 -30.439401628622537 14.689075910894136 -1 0 0 I I #
edge $-1 $232 -8.8160545867843325 $421 8.8160545867843325 $230 $432 forward 7 unknown #
point $-1 -22.528326020642936 -30.439401628622541 -14.689075910894136 #
point $-1 -22.528326020642936 -30.439401628622541 14.689075910894136 #
loop $-1 $-1 $242 $234 #
plane-surface $-1 46.858119449446093 0 0 -1 0 0 0 0 1 forward_v I I I I #
coedge $-1 $342 $237 $239 $346 reversed $143 $-1 #
coedge $-1 $237 $341 $433 $434 reversed $143 $-1 #
coedge $-1 $245 $240 $237 $344 forward $235 $-1 #
edge $-1 $347 6.4810086431111387 $435 10.784645048737346 $343 $436 forward 7 unknown #
coedge $-1 $239 $238 $350 $437 reversed $89 $-1 #
edge $-1 $438 -93.716238898892215 $347 -86.0200816854517 $341 $439 forward 7 unknown #
vertex $-1 $241 $440 #
straight-curve $-1 42.554483043819893 -3.2454383329446763 14.68907591089414 0 -1 0 I I #
coedge $-1 $433 $242 $245 $354 reversed $339 $-1 #
coedge $-1 $242 $433 $345 $437 forward $339 $-1 #
vertex $-1 $243 $441 #
straight-curve $-1 46.858119449446093 -0.17446087672483657 69.204205463669723 0 0 1 I I #
straight-curve $-1 -5.5473351609767292 -0.17446087672483657 86.002956316916624 0.55919289150049634 0 -0.82903758062907751 I I #
edge $-1 $435 -12.807292455053869 $246 -0.17446087672483657 $349 $442 forward 7 unknown #
point $-1 46.858119449446093 -0.17446087672483657 14.689075910894136 #
point $-1 42.554483043819886 -0.17446087672483657 14.689075910894132 #
edge $-1 $443 1 $443 0 $249 $-1 forward 7 unknown #
vertex $-1 $250 $444 #
ellipse-curve $-1 42.144095162684927 -10.280726139388062 9.770644361006136 0.82903758062907751 0 0.55919289150049634 0.55919289150049634 0 -0.82903758062907751 1 I I #
point $-1 45.265494138133484 -10.280726139388062 10.669836552079191 #
edge $-1 $445 1 $445 0 $253 $-1 forward 7 unknown #
vertex $-1 $254 $446 #
ellipse-curve $-1 42.144095162684927 -6.4908766658893526 9.770644361006136 0.82903758062907751 0 0.55919289150049634 0.55919289150049634 0 -0.82903758062907751 1 I I #
point $-1 45.265494138133484 -6.4908766658893526 10.669836552079191 #
edge $-1 $447 1 $447 0 $257 $-1 forward 7 unknown #
vertex $-1 $258 $448 #
ellipse-curve $-1 42.144095162684927 -2.7010271923906437 9.770644361006136 0.82903758062907751 0 0.55919289150049634 0.55919289150049634 0 -0.82903758062907751 1 I I #
point $-1 45.265494138133484 -2.7010271923906437 10.669836552079191 #
plane-surface $-1 0 0 14.689075910894136 0 0 1 1 0 0 forward_v I I I I #
coedge $-1 $380 $379 $372 $449 forward $262 $-1 #
coedge $-1 $372 $264 $266 $376 reversed $172 $-1 #
coedge $-1 $264 $371 $370 $449 reversed $172 $-1 #
coedge $-1 $272 $267 $264 $374 forward $273 $-1 #
edge $-1 $377 -19.721718662100258 $450 -15.418082256474065 $373 $451 forward 7 unknown #
coedge $-1 $266 $265 $380 $452 reversed $108 $-1 #
edge $-1 $453 0 $377 7.6961572134404932 $371 $454 forward 7 unknown #
vertex $-1 $268 $455 #
straight-curve $-1 -42.5544830438199 -3.2454383329446763 14.689075910894136 0 1 0 I I #
coedge $-1 $370 $269 $272 $384 reversed $262 $-1 #
coedge $-1 $269 $370 $375 $452 forward $262 $-1 #
vertex $-1 $270 $456 #
straight-curve $-1 -46.858119449446093 -12.807292455053869 30.357063482472611 0 0 1 I I #
straight-curve $-1 -46.858119449446093 -12.807292455053869 8.3086723545224075 -0.55919289150049634 0 -0.82903758062907751 I I #
edge $-1 $450 0.17446087672483657 $274 12.807292455053869 $379 $457 forward 7 unknown #
point $-1 -46.858119449446093 -12.807292455053869 14.689075910894136 #
point $-1 -42.5544830438199 -12.807292455053869 14.689075910894136 #
edge $-1 $458 1 $458 0 $277 $-1 forward 7 unknown #
vertex $-1 $278 $459 #
ellipse-curve $-1 -42.144095162684934 -10.280726139388062 9.770644361006136 -0.82903758062907751 0 0.55919289150049634 0.55919289150049634 0 0.82903758062907751 1 I I #
point $-1 -44.147108355132502 -10.280726139388062 12.327911713337347 #
edge $-1 $460 1 $460 0 $281 $-1 forward 7 unknown #
vertex $-1 $282 $461 #
ellipse-curve $-1 -42.144095162684934 -6.4908766658893526 9.770644361006136 -0.82903758062907751 0 0.55919289150049634 0.55919289150049634 0 0.82903758062907751 1 I I #
point $-1 -44.147108355132502 -6.4908766658893526 12.327911713337347 #
edge $-1 $462 1 $462 0 $285 $-1 forward 7 unknown #
vertex $-1 $286 $463 #
ellipse-curve $-1 -42.144095162684934 -2.7010271923906437 9.770644361006136 -0.82903758062907751 0 0.55919289150049634 0.55919289150049634 0 0.82903758062907751 1 I I #
point $-1 -44.147108355132502 -2.7010271923906437 12.327911713337347 #
plane-surface $-1 46.858119449446093 0 0 -1 0 0 0 0 1 forward_v I I I I #
coedge $-1 $294 $292 $296 $404 reversed $201 $-1 #
edge $-1 $307 -14.689075910894136 $406 14.689075910894136 $306 $464 forward 7 unknown #
vertex $-1 $404 $465 #
straight-curve $-1 -46.858119449446093 -30.439401628622537 0 0 0 -1 I I #
edge $-1 $402 -30.439401628622537 $406 30.439401628622537 $400 $466 forward 7 unknown #
straight-curve $-1 0 -30.439401628622537 -14.689075910894136 -1 0 0 I I #
vertex $-1 $299 $467 #
straight-curve $-1 0 30.439401628622537 -14.689075910894136 1 0 0 I I #
point $-1 46.858119449446093 30.439401628622537 -14.689075910894136 #
point $-1 46.858119449446093 -30.439401628622537 -14.689075910894136 #
straight-curve $-1 -46.858119449446093 0 14.689075910894136 0 -1 0 I I #
point $-1 -46.858119449446093 30.439401628622537 14.689075910894136 #
point $-1 -46.858119449446093 -30.439401628622537 14.689075910894136 #
straight-curve $-1 46.858119449446093 -30.439401628622537 0 0 0 -1 I I #
straight-curve $-1 46.858119449446093 30.439401628622537 0 0 0 -1 I I #
plane-surface $-1 0 0 14.689075910894136 0 0 1 1 0 0 forward_v I I I I #
coedge $-1 $324 $428 $417 $468 forward $317 $-1 #
coedge $-1 $320 $319 $416 $468 reversed $135 $-1 #
edge $-1 $424 -2.5241791964925575 $422 2.5241791964925575 $319 $469 forward 7 unknown #
coedge $-1 $332 $331 $320 $420 forward $333 $-1 #
edge $-1 $421 -2.5241791964925575 $470 2.5241791964925575 $320 $471 forward 7 unknown #
vertex $-1 $336 $472 #
vertex $-1 $326 $473 #
straight-curve $-1 -22.528326020642936 -48.071510802191206 0 0 0 -1 I I #
vertex $-1 $468 $474 #
straight-curve $-1 -17.479967627657821 -39.255456215406873 -14.689075910894136 0 -1 0 I I #
straight-curve $-1 -22.528326020642936 -39.255456215406873 -14.689075910894136 0 1 0 I I #
point $-1 -17.479967627657821 -30.439401628622541 -14.689075910894136 #
coedge $-1 $416 $329 $332 $430 reversed $317 $-1 #
straight-curve $-1 -17.479967627657821 -30.439401628622537 0 0 0 -1 I I #
edge $-1 $470 -8.8160545867843325 $334 8.8160545867843325 $428 $475 forward 7 unknown #
point $-1 -17.479967627657821 -30.439401628622541 14.689075910894136 #
straight-curve $-1 -22.528326020642936 -39.255456215406873 14.689075910894136 0 -1 0 I I #
coedge $-1 $350 $349 $342 $434 forward $339 $-1 #
edge $-1 $435 54.515129552775591 $438 60.895533109147337 $433 $476 forward 7 unknown #
vertex $-1 $354 $477 #
straight-curve $-1 36.073474400708747 -12.807292455053869 14.689075910894132 1 0 0 I I #
edge $-1 $438 -9.5618541221091924 $351 3.0709774562198398 $350 $478 forward 7 unknown #
vertex $-1 $437 $479 #
straight-curve $-1 -5.5473351609767292 -12.807292455053869 86.002956316916624 -0.55919289150049634 0 0.82903758062907751 I I #
point $-1 42.554483043819886 -12.807292455053869 14.689075910894132 #
point $-1 46.858119449446093 -0.17446087672483657 8.3086723545223862 #
straight-curve $-1 46.858119449446093 0 14.689075910894136 0 1 0 I I #
vertex $-1 $357 $480 #
point $-1 42.703288054185421 -10.280726139388062 8.9416067803770574 #
vertex $-1 $361 $481 #
point $-1 42.703288054185421 -6.4908766658893526 8.9416067803770574 #
vertex $-1 $365 $482 #
point $-1 42.703288054185421 -2.7010271923906437 8.9416067803770574 #
edge $-1 $450 15.667987571578475 $453 22.048391127950204 $370 $483 forward 7 unknown #
vertex $-1 $384 $484 #
straight-curve $-1 -62.276201705920158 -0.17446087672483657 14.689075910894136 -1 0 0 I I #
edge $-1 $453 -3.0709774562198398 $381 9.5618541221091924 $380 $485 forward 7 unknown #
vertex $-1 $452 $486 #
straight-curve $-1 -46.858119449446093 -0.17446087672483657 8.3086723545224075 0.55919289150049634 0 0.82903758062907751 I I #
point $-1 -42.5544830438199 -0.17446087672483657 14.689075910894136 #
point $-1 -46.858119449446093 -12.807292455053869 8.3086723545224075 #
straight-curve $-1 -46.858119449446093 0 14.689075910894136 0 -1 0 I I #
vertex $-1 $387 $487 #
point $-1 -41.58490227118444 -10.280726139388062 10.599681941635213 #
vertex $-1 $391 $488 #
point $-1 -41.58490227118444 -6.4908766658893526 10.599681941635213 #
vertex $-1 $395 $489 #
point $-1 -41.58490227118444 -2.7010271923906437 10.599681941635213 #
straight-curve $-1 -46.858119449446093 30.439401628622537 0 0 0 -1 I I #
point $-1 -46.858119449446093 -30.439401628622537 -14.689075910894136 #
straight-curve $-1 -46.858119449446093 0 -14.689075910894136 0 1 0 I I #
point $-1 -46.858119449446093 30.439401628622537 -14.689075910894136 #
edge $-1 $470 -14.689075910894136 $424 14.689075910894136 $416 $490 forward 7 unknown #
straight-curve $-1 -20.004146824150379 -48.071510802191206 -14.689075910894136 -1 0 0 I I #
vertex $-1 $430 $491 #
straight-curve $-1 -20.004146824150379 -48.071510802191206 14.689075910894136 1 0 0 I I #
point $-1 -22.528326020642936 -48.071510802191206 14.689075910894136 #
point $-1 -22.528326020642936 -48.071510802191206 -14.689075910894136 #
point $-1 -17.479967627657821 -48.071510802191206 -14.689075910894136 #
straight-curve $-1 -17.479967627657821 -39.255456215406873 14.689075910894136 0 1 0 I I #
straight-curve $-1 46.858119449446093 -12.807292455053869 69.204205463669723 0 0 -1 I I #
point $-1 46.858119449446093 -12.807292455053869 14.689075910894136 #
straight-curve $-1 46.858119449446093 -3.2454383329446763 8.3086723545223862 0 1 0 I I #
point $-1 46.858119449446093 -12.807292455053869 8.3086723545223862 #
point $-1 41.31505758205585 -10.280726139388062 9.2114514695056382 #
point $-1 41.31505758205585 -6.4908766658893526 9.2114514695056382 #
point $-1 41.31505758205585 -2.7010271923906437 9.2114514695056382 #
straight-curve $-1 -46.858119449446093 -0.17446087672483657 30.357063482472611 0 0 -1 I I #
point $-1 -46.858119449446093 -0.17446087672483657 14.689075910894136 #
straight-curve $-1 -46.858119449446093 -3.2454383329446763 8.3086723545224075 0 -1 0 I I #
point $-1 -46.858119449446093 -0.17446087672483657 8.3086723545224075 #
point $-1 -41.315057582055857 -10.280726139388062 9.2114514695056382 #
point $-1 -41.315057582055857 -6.4908766658893526 9.2114514695056382 #
point $-1 -41.315057582055857 -2.7010271923906437 9.2114514695056382 #
straight-curve $-1 -17.479967627657821 -48.071510802191206 0 0 0 -1 I I #
point $-1 -17.479967627657821 -48.071510802191206 14.689075910894136 #
End-of-ACIS-data 