500 0 4 0           
7 Unknown 11 ACIS 5.0 NT 24 Fri Mar 26 18:26:12 1999 
-1 9.9999999999999995e-007 1e-010 
body $-1 $4 $-1 $5 #
body $-1 $6 $-1 $7 #
body $-1 $8 $-1 $9 #
body $-1 $10 $-1 $11 #
lump $-1 $-1 $12 $0 #
transform $-1 1 0 0 0 1 0 0 0 1 64.402600177007358 36.382250773538317 7.5072881910191542 1 rotate no_reflect no_shear #
lump $-1 $-1 $13 $1 #
transform $-1 1 0 0 0 1 0 0 0 1 64.402600177007358 36.382250773538317 7.5072881910191542 1 rotate no_reflect no_shear #
lump $-1 $-1 $14 $2 #
transform $-1 1 0 0 0 1 0 0 0 1 64.402600177007358 36.382250773538317 7.5072881910191542 1 rotate no_reflect no_shear #
lump $-1 $-1 $15 $3 #
transform $-1 1 0 0 0 1 0 0 0 1 64.402600177007358 36.382250773538317 7.5072881910191542 1 rotate no_reflect no_shear #
shell $-1 $-1 $-1 $16 $-1 $4 #
shell $-1 $-1 $-1 $17 $-1 $6 #
shell $-1 $-1 $-1 $18 $-1 $8 #
shell $-1 $-1 $-1 $19 $-1 $10 #
face $-1 $20 $21 $12 $-1 $22 forward single #
face $-1 $23 $24 $13 $-1 $25 forward single #
face $-1 $26 $27 $14 $-1 $28 forward single #
face $-1 $29 $30 $15 $-1 $31 reversed single #
face $-1 $32 $33 $12 $-1 $34 reversed single #
loop $-1 $-1 $35 $16 #
plane-surface $-1 0 0 7.5072881910191542 0 0 1 1 0 0 forward_v I I I I #
face $-1 $36 $37 $13 $-1 $38 reversed single #
loop $-1 $-1 $39 $17 #
plane-surface $-1 0 -39.560152055035637 -4.5072881910191542 0 0 1 1 0 0 forward_v I I I I #
face $-1 $40 $41 $14 $-1 $42 forward single #
loop $-1 $-1 $43 $18 #
plane-surface $-1 32.642548409672472 50.656689710907045 149.40653375343194 1 0 0 0 -0.57357644374324357 -0.81915203911291934 forward_v I I I I #
face $-1 $44 $45 $15 $-1 $46 reversed single #
loop $-1 $47 $48 $19 #
cone-surface $-1 48.522574293339915 31.708490703939191 3.6122719269526482 0 -0.57357644374324357 -0.81915203911291934 1.5 0 0 1 I I 0 1 1.5 forward I I I I #
face $-1 $49 $50 $12 $-1 $51 reversed single #
loop $-1 $-1 $52 $20 #
plane-surface $-1 0 0 -7.5072881910191542 0 0 1 1 0 0 forward_v I I I I #
coedge $-1 $53 $54 $55 $56 forward $21 $-1 #
face $-1 $57 $58 $13 $-1 $59 forward single #
loop $-1 $-1 $60 $23 #
plane-surface $-1 0 -42.738053336532957 -6.0072881910191542 0 1 0 0 0 1 forward_v I I I I #
coedge $-1 $61 $62 $63 $64 forward $24 $-1 #
face $-1 $65 $66 $14 $-1 $67 forward single #
loop $-1 $-1 $68 $26 #
plane-surface $-1 48.522574293339915 -23.222939043784692 43.895491235092663 0 0.57357644374324357 0.81915203911291934 1 0 0 forward_v I I I I #
coedge $-1 $69 $70 $71 $72 reversed $27 $-1 #
face $-1 $73 $74 $15 $-1 $75 forward single #
loop $-1 $76 $77 $29 #
cone-surface $-1 48.522574293339915 30.423273886098571 1.7767921255756702 0 -0.57357644374324357 -0.81915203911291934 0.75 0 0 1 I I -0.70710678118654757 0.70710678118654757 0.75 forward I I I I #
loop $-1 $-1 $78 $19 #
coedge $-1 $48 $48 $79 $80 reversed $30 $-1 #
face $-1 $81 $82 $12 $-1 $83 reversed single #
loop $-1 $-1 $84 $32 #
plane-surface $-1 0 -36.382250773538317 0 0 1 0 0 0 1 forward_v I I I I #
coedge $-1 $85 $86 $87 $88 forward $33 $-1 #
coedge $-1 $89 $35 $90 $91 forward $21 $-1 #
coedge $-1 $35 $89 $92 $93 forward $21 $-1 #
coedge $-1 $94 $95 $35 $56 reversed $96 $-1 #
edge $-1 $97 -36.382250773538317 $98 36.382250773538317 $55 $99 forward 7 unknown #
face $-1 $100 $101 $13 $-1 $102 reversed single #
loop $-1 $-1 $103 $36 #
plane-surface $-1 0 0 7.5072881910191542 0 0 1 1 0 0 forward_v I I I I #
coedge $-1 $104 $105 $106 $107 forward $37 $-1 #
coedge $-1 $108 $39 $109 $110 reversed $24 $-1 #
coedge $-1 $39 $108 $105 $111 forward $24 $-1 #
coedge $-1 $112 $113 $39 $64 reversed $114 $-1 #
edge $-1 $115 -3.17790128149732 $116 3.17790128149732 $63 $117 forward 7 unknown #
face $-1 $118 $119 $14 $-1 $120 reversed single #
loop $-1 $-1 $121 $40 #
plane-surface $-1 0 0 7.5072881910191542 0 0 1 1 0 0 forward_v I I I I #
coedge $-1 $122 $123 $121 $124 reversed $41 $-1 #
coedge $-1 $70 $43 $123 $125 forward $27 $-1 #
coedge $-1 $43 $69 $126 $127 reversed $27 $-1 #
coedge $-1 $128 $121 $43 $72 forward $66 $-1 #
edge $-1 $129 3.4164547489528587 $130 11.053905918084794 $71 $131 forward 7 unknown #
face $-1 $132 $133 $15 $-1 $134 forward single #
loop $-1 $-1 $135 $44 #
plane-surface $-1 32.642548409672472 50.656689710907045 149.40653375343194 1 0 0 0 -0.57357644374324357 -0.81915203911291934 forward_v I I I I #
loop $-1 $-1 $136 $29 #
coedge $-1 $77 $77 $78 $137 forward $45 $-1 #
coedge $-1 $78 $78 $77 $137 reversed $47 $-1 #
coedge $-1 $79 $79 $48 $80 forward $133 $-1 #
edge $-1 $138 5.0818952179965217e-017 $138 6.2831853071796004 $79 $139 forward 7 unknown #
face $-1 $140 $141 $12 $-1 $142 reversed single #
loop $-1 $-1 $143 $49 #
plane-surface $-1 -64.402600177007358 0 0 1 0 0 0 0 -1 forward_v I I I I #
coedge $-1 $144 $92 $145 $146 forward $50 $-1 #
coedge $-1 $147 $52 $144 $148 forward $33 $-1 #
coedge $-1 $52 $147 $149 $150 forward $33 $-1 #
coedge $-1 $95 $94 $52 $88 reversed $96 $-1 #
edge $-1 $151 -36.382250773538317 $152 36.382250773538317 $87 $153 forward 7 unknown #
coedge $-1 $54 $53 $154 $155 forward $21 $-1 #
coedge $-1 $156 $157 $53 $91 reversed $141 $-1 #
edge $-1 $98 -64.402600177007358 $158 64.402600177007358 $90 $159 forward 7 unknown #
coedge $-1 $84 $160 $54 $93 reversed $50 $-1 #
edge $-1 $161 -64.402600177007358 $97 64.402600177007358 $92 $162 forward 7 unknown #
coedge $-1 $87 $55 $160 $163 forward $96 $-1 #
coedge $-1 $55 $87 $156 $164 reversed $96 $-1 #
loop $-1 $-1 $94 $140 #
vertex $-1 $56 $165 #
vertex $-1 $56 $166 #
straight-curve $-1 64.402600177007358 0 7.5072881910191542 0 1 0 I I #
face $-1 $167 $168 $13 $-1 $169 reversed single #
loop $-1 $-1 $170 $57 #
plane-surface $-1 0 0 -7.5072881910191542 0 0 1 1 0 0 forward_v I I I I #
coedge $-1 $171 $172 $173 $174 forward $58 $-1 #
coedge $-1 $175 $60 $176 $177 reversed $37 $-1 #
coedge $-1 $60 $175 $62 $111 reversed $37 $-1 #
coedge $-1 $178 $179 $60 $107 reversed $180 $-1 #
edge $-1 $181 -1.5 $182 1.5 $106 $183 forward 7 unknown #
coedge $-1 $62 $61 $178 $184 forward $24 $-1 #
coedge $-1 $185 $186 $61 $110 forward $168 $-1 #
edge $-1 $187 -64.402600177007358 $116 64.402600177007358 $109 $188 forward 7 unknown #
edge $-1 $181 -64.402600177007358 $115 64.402600177007358 $105 $189 forward 7 unknown #
coedge $-1 $190 $63 $175 $191 forward $114 $-1 #
coedge $-1 $63 $173 $185 $192 forward $114 $-1 #
loop $-1 $-1 $113 $193 #
vertex $-1 $64 $194 #
vertex $-1 $64 $195 #
straight-curve $-1 64.402600177007358 -39.560152055035637 -4.5072881910191542 0 1 0 I I #
face $-1 $196 $197 $14 $-1 $198 forward single #
loop $-1 $-1 $126 $65 #
plane-surface $-1 0 36.382250773538317 0 0 -1 0 0 0 -1 forward_v I I I I #
coedge $-1 $71 $199 $68 $124 forward $66 $-1 #
coedge $-1 $200 $68 $201 $202 reversed $41 $-1 #
coedge $-1 $68 $200 $69 $125 reversed $41 $-1 #
edge $-1 $203 -40.1413130303374 $129 -8.3812612630025143 $121 $204 forward 7 unknown #
edge $-1 $129 63.440895177979733 $205 72.764501547076648 $69 $206 forward 7 unknown #
coedge $-1 $207 $208 $70 $127 forward $119 $-1 #
edge $-1 $130 67.195978685696815 $205 72.543779669745277 $126 $209 forward 7 unknown #
coedge $-1 $210 $71 $208 $211 forward $66 $-1 #
vertex $-1 $124 $212 #
vertex $-1 $211 $213 #
straight-curve $-1 32.642548409672472 25.328344855453523 7.5072881910191569 0 1 0 I I #
face $-1 $214 $215 $15 $-1 $216 forward single #
loop $-1 $217 $79 $73 #
plane-surface $-1 48.522574293339915 -23.222939043784692 43.895491235092663 0 0.57357644374324357 0.81915203911291934 1 0 0 forward_v I I I I #
coedge $-1 $218 $219 $220 $221 reversed $74 $-1 #
coedge $-1 $136 $136 $-1 $222 forward $76 $-1 #
edge $-1 $223 0 $223 6.2831853071796004 $77 $224 forward 7 unknown #
vertex $-1 $80 $225 #
ellipse-curve $-1 48.522574293339915 32.563525188972363 4.8333876989949163 0 -0.57357644374324357 -0.81915203911291934 1.5 0 0 1 I I #
face $-1 $-1 $96 $12 $-1 $226 reversed single #
loop $-1 $-1 $156 $81 #
plane-surface $-1 0 36.382250773538317 0 0 -1 0 0 0 -1 forward_v I I I I #
coedge $-1 $227 $154 $157 $228 forward $82 $-1 #
coedge $-1 $160 $84 $85 $148 reversed $50 $-1 #
coedge $-1 $154 $227 $84 $146 reversed $82 $-1 #
edge $-1 $161 -7.5072881910191542 $229 7.5072881910191542 $145 $230 forward 7 unknown #
coedge $-1 $86 $85 $227 $231 forward $33 $-1 #
edge $-1 $152 -64.402600177007358 $229 64.402600177007358 $144 $232 forward 7 unknown #
coedge $-1 $157 $156 $86 $150 reversed $141 $-1 #
edge $-1 $233 -64.402600177007358 $151 64.402600177007358 $149 $234 forward 7 unknown #
vertex $-1 $88 $235 #
vertex $-1 $163 $236 #
straight-curve $-1 64.402600177007358 0 -7.5072881910191542 0 -1 0 I I #
coedge $-1 $143 $145 $89 $155 reversed $82 $-1 #
edge $-1 $158 -36.382250773538317 $161 36.382250773538317 $154 $237 forward 7 unknown #
coedge $-1 $149 $90 $95 $164 forward $141 $-1 #
coedge $-1 $90 $149 $143 $228 reversed $141 $-1 #
vertex $-1 $91 $238 #
straight-curve $-1 0 36.382250773538317 7.5072881910191542 -1 0 0 I I #
coedge $-1 $92 $144 $94 $163 reversed $50 $-1 #
vertex $-1 $155 $239 #
straight-curve $-1 0 -36.382250773538317 7.5072881910191542 1 0 0 I I #
edge $-1 $97 -7.5072881910191542 $152 7.5072881910191542 $94 $240 forward 7 unknown #
edge $-1 $98 -7.5072881910191542 $151 7.5072881910191542 $95 $241 forward 7 unknown #
point $-1 64.402600177007358 -36.382250773538317 7.5072881910191542 #
point $-1 64.402600177007358 36.382250773538317 7.5072881910191542 #
face $-1 $242 $180 $13 $-1 $243 reversed single #
loop $-1 $-1 $109 $100 #
plane-surface $-1 0 -36.382250773538317 0 0 1 0 0 0 1 forward_v I I I I #
coedge $-1 $176 $244 $190 $245 forward $101 $-1 #
coedge $-1 $246 $103 $247 $248 forward $58 $-1 #
coedge $-1 $103 $246 $249 $250 forward $58 $-1 #
coedge $-1 $113 $251 $103 $174 reversed $114 $-1 #
edge $-1 $252 -36.382250773538317 $253 36.382250773538317 $173 $254 forward 7 unknown #
coedge $-1 $105 $104 $112 $191 reversed $37 $-1 #
coedge $-1 $255 $170 $104 $177 forward $101 $-1 #
edge $-1 $256 -64.402600177007358 $182 64.402600177007358 $104 $257 forward 7 unknown #
coedge $-1 $258 $106 $108 $184 reversed $180 $-1 #
coedge $-1 $106 $259 $255 $260 reversed $180 $-1 #
loop $-1 $-1 $259 $167 #
vertex $-1 $184 $261 #
vertex $-1 $260 $262 #
straight-curve $-1 -64.402600177007358 -42.738053336532957 -6.0072881910191542 0 0 -1 I I #
edge $-1 $187 -3.17790128149732 $181 3.17790128149732 $178 $263 forward 7 unknown #
coedge $-1 $249 $109 $113 $192 reversed $168 $-1 #
coedge $-1 $109 $249 $258 $264 forward $168 $-1 #
vertex $-1 $264 $265 #
straight-curve $-1 0 -36.382250773538317 -4.5072881910191542 1 0 0 I I #
straight-curve $-1 0 -42.738053336532957 -4.5072881910191542 1 0 0 I I #
coedge $-1 $251 $112 $170 $245 reversed $114 $-1 #
edge $-1 $115 -1.5 $256 1.5 $112 $266 forward 7 unknown #
edge $-1 $252 -7.5072881910191542 $116 4.5072881910191542 $113 $267 forward 7 unknown #
face $-1 $-1 $114 $13 $-1 $268 reversed single #
point $-1 64.402600177007358 -42.738053336532957 -4.5072881910191542 #
point $-1 64.402600177007358 -36.382250773538317 -4.5072881910191542 #
face $-1 $269 $270 $14 $-1 $271 reversed single #
loop $-1 $-1 $272 $118 #
plane-surface $-1 0 -39.560152055035637 -4.5072881910191542 0 0 1 1 0 0 forward_v I I I I #
coedge $-1 $121 $273 $274 $275 forward $66 $-1 #
coedge $-1 $123 $122 $207 $276 reversed $41 $-1 #
coedge $-1 $274 $277 $122 $202 forward $278 $-1 #
edge $-1 $279 -50.664232731627436 $203 -41.340626362530521 $201 $280 forward 7 unknown #
vertex $-1 $202 $281 #
straight-curve $-1 24.261287146669957 28.744799604406381 7.5072881910191569 -1 0 0 I I #
vertex $-1 $276 $282 #
straight-curve $-1 32.642548409672472 -23.222939043784692 43.895491235092663 0 0.81915203911291934 -0.57357644374324357 I I #
coedge $-1 $283 $126 $200 $276 forward $119 $-1 #
coedge $-1 $126 $284 $128 $211 reversed $119 $-1 #
straight-curve $-1 32.642548409672472 36.382250773538317 74.703266876715972 0 0 -1 I I #
coedge $-1 $273 $128 $285 $286 forward $66 $-1 #
edge $-1 $130 -32.642548409672472 $287 64.402600177007358 $208 $288 forward 7 unknown #
point $-1 32.642548409672472 28.744799604406381 7.5072881910191569 #
point $-1 32.642548409672472 36.382250773538317 7.5072881910191542 #
face $-1 $289 $290 $15 $-1 $291 reversed single #
loop $-1 $-1 $292 $132 #
plane-surface $-1 0 0 7.5072881910191542 0 0 1 1 0 0 forward_v I I I I #
loop $-1 $-1 $293 $73 #
coedge $-1 $219 $135 $294 $295 forward $74 $-1 #
coedge $-1 $135 $218 $296 $297 reversed $74 $-1 #
coedge $-1 $298 $292 $135 $221 forward $215 $-1 #
edge $-1 $299 3.4164547489528587 $300 11.053905918084794 $220 $301 forward 7 unknown #
edge $-1 $302 1 $302 0 $136 $-1 forward 7 unknown #
vertex $-1 $137 $303 #
ellipse-curve $-1 48.522574293339915 30.853456218906004 2.3911561549103597 0 0.57357644374324357 0.81915203911291934 1.5 0 0 1 I I #
point $-1 50.022574293339915 32.563525188972378 4.8333876989949367 #
plane-surface $-1 64.402600177007358 0 0 -1 0 0 0 0 1 forward_v I I I I #
coedge $-1 $145 $143 $147 $231 reversed $82 $-1 #
edge $-1 $158 -7.5072881910191542 $233 7.5072881910191542 $157 $304 forward 7 unknown #
vertex $-1 $231 $305 #
straight-curve $-1 -64.402600177007358 -36.382250773538317 0 0 0 -1 I I #
edge $-1 $229 -36.382250773538317 $233 36.382250773538317 $227 $306 forward 7 unknown #
straight-curve $-1 0 -36.382250773538317 -7.5072881910191542 -1 0 0 I I #
vertex $-1 $150 $307 #
straight-curve $-1 0 36.382250773538317 -7.5072881910191542 1 0 0 I I #
point $-1 64.402600177007358 36.382250773538317 -7.5072881910191542 #
point $-1 64.402600177007358 -36.382250773538317 -7.5072881910191542 #
straight-curve $-1 -64.402600177007358 0 7.5072881910191542 0 -1 0 I I #
point $-1 -64.402600177007358 36.382250773538317 7.5072881910191542 #
point $-1 -64.402600177007358 -36.382250773538317 7.5072881910191542 #
straight-curve $-1 64.402600177007358 -36.382250773538317 0 0 0 -1 I I #
straight-curve $-1 64.402600177007358 36.382250773538317 0 0 0 -1 I I #
face $-1 $193 $308 $13 $-1 $309 reversed single #
plane-surface $-1 -64.402600177007358 0 0 1 0 0 0 0 -1 forward_v I I I I #
coedge $-1 $170 $255 $310 $311 forward $101 $-1 #
edge $-1 $312 -36.382250773538317 $256 42.738053336532957 $190 $313 forward 7 unknown #
coedge $-1 $172 $171 $314 $315 forward $58 $-1 #
coedge $-1 $316 $317 $171 $248 reversed $308 $-1 #
edge $-1 $253 -64.402600177007358 $318 64.402600177007358 $247 $319 forward 7 unknown #
coedge $-1 $186 $185 $172 $250 reversed $168 $-1 #
edge $-1 $320 -64.402600177007358 $252 64.402600177007358 $249 $321 forward 7 unknown #
coedge $-1 $173 $190 $316 $322 reversed $114 $-1 #
vertex $-1 $174 $323 #
vertex $-1 $174 $324 #
straight-curve $-1 64.402600177007358 0 7.5072881910191542 0 1 0 I I #
coedge $-1 $244 $176 $179 $260 forward $101 $-1 #
vertex $-1 $191 $325 #
straight-curve $-1 0 -42.738053336532957 -7.5072881910191542 -1 0 0 I I #
coedge $-1 $314 $178 $186 $264 reversed $180 $-1 #
coedge $-1 $179 $314 $317 $326 forward $180 $-1 #
edge $-1 $182 -42.738053336532957 $327 36.382250773538317 $179 $328 forward 7 unknown #
point $-1 -64.402600177007358 -42.738053336532957 -4.5072881910191542 #
point $-1 -64.402600177007358 -42.738053336532957 -7.5072881910191542 #
straight-curve $-1 -64.402600177007358 -39.560152055035637 -4.5072881910191542 0 -1 0 I I #
edge $-1 $320 -7.5072881910191542 $187 4.5072881910191542 $258 $329 forward 7 unknown #
point $-1 -64.402600177007358 -36.382250773538317 -4.5072881910191542 #
straight-curve $-1 64.402600177007358 -42.738053336532957 -6.0072881910191542 0 0 -1 I I #
straight-curve $-1 64.402600177007358 -36.382250773538317 0 0 0 -1 I I #
plane-surface $-1 64.402600177007358 0 0 -1 0 0 0 0 1 forward_v I I I I #
face $-1 $330 $331 $14 $-1 $332 reversed single #
loop $-1 $-1 $333 $196 #
plane-surface $-1 0 -42.738053336532957 -6.0072881910191542 0 1 0 0 0 1 forward_v I I I I #
coedge $-1 $334 $335 $336 $337 forward $197 $-1 #
coedge $-1 $199 $210 $338 $339 forward $66 $-1 #
coedge $-1 $340 $201 $199 $275 reversed $278 $-1 #
edge $-1 $341 -36.382250773538317 $203 28.744799604406381 $274 $342 forward 7 unknown #
edge $-1 $205 8.3812612630025143 $279 40.1413130303374 $207 $343 forward 7 unknown #
coedge $-1 $201 $344 $283 $345 reversed $278 $-1 #
loop $-1 $-1 $201 $346 #
vertex $-1 $345 $347 #
straight-curve $-1 64.402600177007358 -5.1194587786658046 31.219297642157599 0 -0.81915203911291934 0.57357644374324357 I I #
point $-1 64.402600177007358 28.744799604406381 7.5072881910191569 #
point $-1 32.642548409672472 36.382250773538317 2.1594872069706952 #
coedge $-1 $348 $207 $277 $345 forward $119 $-1 #
coedge $-1 $208 $348 $349 $350 reversed $119 $-1 #
coedge $-1 $349 $351 $210 $286 reversed $352 $-1 #
edge $-1 $287 -36.382250773538317 $353 36.382250773538317 $285 $354 forward 7 unknown #
vertex $-1 $211 $355 #
straight-curve $-1 0 36.382250773538317 7.5072881910191542 -1 0 0 I I #
face $-1 $356 $357 $15 $-1 $358 forward single #
loop $-1 $-1 $296 $214 #
plane-surface $-1 0 36.382250773538317 0 0 -1 0 0 0 -1 forward_v I I I I #
coedge $-1 $220 $359 $293 $360 forward $215 $-1 #
coedge $-1 $361 $294 $292 $360 reversed $217 $-1 #
coedge $-1 $293 $362 $218 $295 reversed $217 $-1 #
edge $-1 $299 63.440895177979733 $363 72.764501547076648 $218 $364 forward 7 unknown #
coedge $-1 $365 $366 $219 $297 forward $290 $-1 #
edge $-1 $300 67.195978685696815 $363 72.543779669745277 $296 $367 forward 7 unknown #
coedge $-1 $368 $220 $366 $369 forward $215 $-1 #
vertex $-1 $360 $370 #
vertex $-1 $369 $371 #
straight-curve $-1 32.642548409672472 25.328344855453523 7.5072881910191569 0 1 0 I I #
vertex $-1 $222 $372 #
point $-1 50.022574293339915 30.853456218906004 2.3911561549103597 #
straight-curve $-1 -64.402600177007358 36.382250773538317 0 0 0 -1 I I #
point $-1 -64.402600177007358 -36.382250773538317 -7.5072881910191542 #
straight-curve $-1 -64.402600177007358 0 -7.5072881910191542 0 1 0 I I #
point $-1 -64.402600177007358 36.382250773538317 -7.5072881910191542 #
loop $-1 $-1 $316 $242 #
plane-surface $-1 0 36.382250773538317 0 0 -1 0 0 0 -1 forward_v I I I I #
coedge $-1 $317 $316 $244 $311 reversed $308 $-1 #
edge $-1 $327 -64.402600177007358 $312 64.402600177007358 $310 $373 forward 7 unknown #
vertex $-1 $245 $374 #
straight-curve $-1 64.402600177007358 0 -7.5072881910191542 0 -1 0 I I #
coedge $-1 $259 $258 $246 $315 reversed $180 $-1 #
edge $-1 $318 -36.382250773538317 $320 36.382250773538317 $314 $375 forward 7 unknown #
coedge $-1 $310 $247 $251 $322 forward $308 $-1 #
coedge $-1 $247 $310 $259 $326 reversed $308 $-1 #
vertex $-1 $248 $376 #
straight-curve $-1 0 36.382250773538317 7.5072881910191542 -1 0 0 I I #
vertex $-1 $315 $377 #
straight-curve $-1 0 -36.382250773538317 7.5072881910191542 1 0 0 I I #
edge $-1 $253 -7.5072881910191542 $312 7.5072881910191542 $251 $378 forward 7 unknown #
point $-1 64.402600177007358 -36.382250773538317 7.5072881910191542 #
point $-1 64.402600177007358 36.382250773538317 7.5072881910191542 #
point $-1 64.402600177007358 -42.738053336532957 -7.5072881910191542 #
edge $-1 $318 -7.5072881910191542 $327 7.5072881910191542 $317 $379 forward 7 unknown #
vertex $-1 $311 $380 #
straight-curve $-1 -64.402600177007358 0 -7.5072881910191542 0 1 0 I I #
straight-curve $-1 -64.402600177007358 -36.382250773538317 0 0 0 -1 I I #
face $-1 $381 $382 $14 $-1 $383 reversed single #
loop $-1 $-1 $384 $269 #
plane-surface $-1 0 0 -7.5072881910191542 0 0 1 1 0 0 forward_v I I I I #
coedge $-1 $385 $386 $387 $388 forward $270 $-1 #
coedge $-1 $389 $272 $390 $391 reversed $197 $-1 #
coedge $-1 $272 $389 $386 $392 forward $197 $-1 #
coedge $-1 $393 $340 $272 $337 reversed $278 $-1 #
edge $-1 $394 -3.17790128149732 $395 3.17790128149732 $336 $396 forward 7 unknown #
coedge $-1 $397 $398 $273 $339 reversed $382 $-1 #
edge $-1 $353 -64.402600177007358 $341 64.402600177007358 $338 $399 forward 7 unknown #
coedge $-1 $336 $274 $398 $400 forward $278 $-1 #
vertex $-1 $275 $401 #
straight-curve $-1 64.402600177007358 0 7.5072881910191542 0 1 0 I I #
straight-curve $-1 24.261287146669957 36.382250773538324 2.1594872069706952 1 0 0 I I #
coedge $-1 $277 $393 $384 $402 reversed $278 $-1 #
edge $-1 $279 -2.1594872069706952 $403 7.5072881910191542 $277 $404 forward 7 unknown #
face $-1 $-1 $278 $14 $-1 $405 reversed single #
point $-1 64.402600177007358 36.382250773538317 2.1594872069706952 #
coedge $-1 $284 $283 $406 $407 reversed $119 $-1 #
coedge $-1 $408 $285 $284 $350 forward $352 $-1 #
edge $-1 $287 -7.5072881910191542 $409 7.5072881910191542 $284 $410 forward 7 unknown #
coedge $-1 $285 $411 $397 $412 reversed $352 $-1 #
loop $-1 $-1 $349 $381 #
vertex $-1 $286 $413 #
straight-curve $-1 -64.402600177007358 0 7.5072881910191542 0 -1 0 I I #
point $-1 -64.402600177007358 36.382250773538317 7.5072881910191542 #
face $-1 $414 $415 $15 $-1 $416 reversed single #
loop $-1 $-1 $417 $289 #
plane-surface $-1 0 -39.560152055035637 -4.5072881910191542 0 0 1 1 0 0 forward_v I I I I #
coedge $-1 $292 $418 $419 $420 forward $215 $-1 #
edge $-1 $421 -40.1413130303374 $299 -8.3812612630025143 $292 $422 forward 7 unknown #
coedge $-1 $362 $293 $423 $424 reversed $217 $-1 #
coedge $-1 $294 $361 $365 $425 reversed $217 $-1 #
vertex $-1 $425 $426 #
straight-curve $-1 32.642548409672472 -23.222939043784692 43.895491235092663 0 0.81915203911291934 -0.57357644374324357 I I #
coedge $-1 $427 $296 $362 $425 forward $290 $-1 #
coedge $-1 $296 $428 $298 $369 reversed $290 $-1 #
straight-curve $-1 32.642548409672472 36.382250773538317 74.703266876715972 0 0 -1 I I #
coedge $-1 $418 $298 $429 $430 forward $215 $-1 #
edge $-1 $300 -32.642548409672472 $431 64.402600177007358 $366 $432 forward 7 unknown #
point $-1 32.642548409672472 28.744799604406381 7.5072881910191569 #
point $-1 32.642548409672472 36.382250773538317 7.5072881910191542 #
point $-1 48.522574293339915 29.993091553291137 1.1624280962409808 #
straight-curve $-1 0 36.382250773538317 -7.5072881910191542 1 0 0 I I #
point $-1 64.402600177007358 36.382250773538317 -7.5072881910191542 #
straight-curve $-1 -64.402600177007358 0 7.5072881910191542 0 -1 0 I I #
point $-1 -64.402600177007358 36.382250773538317 7.5072881910191542 #
point $-1 -64.402600177007358 -36.382250773538317 7.5072881910191542 #
straight-curve $-1 64.402600177007358 36.382250773538317 0 0 0 -1 I I #
straight-curve $-1 -64.402600177007358 36.382250773538317 0 0 0 -1 I I #
point $-1 -64.402600177007358 36.382250773538317 -7.5072881910191542 #
face $-1 $346 $352 $14 $-1 $433 reversed single #
loop $-1 $-1 $390 $330 #
plane-surface $-1 0 -36.382250773538317 0 0 1 0 0 0 1 forward_v I I I I #
coedge $-1 $434 $406 $344 $402 forward $331 $-1 #
coedge $-1 $435 $333 $434 $436 reversed $270 $-1 #
coedge $-1 $333 $435 $335 $392 reversed $270 $-1 #
coedge $-1 $411 $408 $333 $388 reversed $352 $-1 #
edge $-1 $437 -1.5 $438 1.5 $387 $439 forward 7 unknown #
coedge $-1 $335 $334 $411 $440 forward $197 $-1 #
coedge $-1 $398 $397 $334 $391 forward $382 $-1 #
edge $-1 $441 -64.402600177007358 $395 64.402600177007358 $390 $442 forward 7 unknown #
edge $-1 $437 -64.402600177007358 $394 64.402600177007358 $386 $443 forward 7 unknown #
coedge $-1 $344 $336 $435 $444 forward $278 $-1 #
vertex $-1 $337 $445 #
vertex $-1 $337 $446 #
straight-curve $-1 64.402600177007358 -39.560152055035637 -4.5072881910191542 0 1 0 I I #
coedge $-1 $390 $338 $351 $412 forward $382 $-1 #
coedge $-1 $338 $390 $340 $400 reversed $382 $-1 #
straight-curve $-1 0 -36.382250773538317 7.5072881910191542 1 0 0 I I #
edge $-1 $341 -7.5072881910191542 $395 4.5072881910191542 $340 $447 forward 7 unknown #
point $-1 64.402600177007358 -36.382250773538317 7.5072881910191542 #
edge $-1 $403 -36.382250773538317 $448 42.738053336532957 $344 $449 forward 7 unknown #
vertex $-1 $402 $450 #
straight-curve $-1 64.402600177007358 36.382250773538317 0 0 0 -1 I I #
plane-surface $-1 64.402600177007358 0 0 -1 0 0 0 0 1 forward_v I I I I #
coedge $-1 $384 $451 $348 $407 forward $331 $-1 #
edge $-1 $409 -64.402600177007358 $403 64.402600177007358 $348 $452 forward 7 unknown #
coedge $-1 $387 $349 $451 $453 reversed $352 $-1 #
vertex $-1 $407 $454 #
straight-curve $-1 -64.402600177007358 36.382250773538317 0 0 0 -1 I I #
coedge $-1 $351 $387 $389 $440 reversed $352 $-1 #
edge $-1 $353 -7.5072881910191542 $441 4.5072881910191542 $351 $455 forward 7 unknown #
point $-1 -64.402600177007358 -36.382250773538317 7.5072881910191542 #
face $-1 $456 $457 $15 $-1 $458 reversed single #
loop $-1 $-1 $459 $356 #
plane-surface $-1 0 -42.738053336532957 -6.0072881910191542 0 1 0 0 0 1 forward_v I I I I #
coedge $-1 $460 $461 $462 $463 forward $357 $-1 #
coedge $-1 $359 $368 $464 $465 forward $215 $-1 #
coedge $-1 $466 $423 $359 $420 reversed $467 $-1 #
edge $-1 $468 -36.382250773538317 $421 28.744799604406381 $419 $469 forward 7 unknown #
vertex $-1 $424 $470 #
straight-curve $-1 24.261287146669957 28.744799604406381 7.5072881910191569 -1 0 0 I I #
coedge $-1 $419 $471 $361 $424 forward $467 $-1 #
edge $-1 $472 -50.664232731627436 $421 -41.340626362530521 $423 $473 forward 7 unknown #
edge $-1 $363 8.3812612630025143 $472 40.1413130303374 $365 $474 forward 7 unknown #
point $-1 32.642548409672472 36.382250773538317 2.1594872069706952 #
coedge $-1 $475 $365 $471 $476 forward $290 $-1 #
coedge $-1 $366 $475 $477 $478 reversed $290 $-1 #
coedge $-1 $477 $479 $368 $430 reversed $480 $-1 #
edge $-1 $431 -36.382250773538317 $481 36.382250773538317 $429 $482 forward 7 unknown #
vertex $-1 $369 $483 #
straight-curve $-1 0 36.382250773538317 7.5072881910191542 -1 0 0 I I #
plane-surface $-1 -64.402600177007358 0 0 1 0 0 0 0 -1 forward_v I I I I #
coedge $-1 $451 $384 $385 $436 forward $331 $-1 #
coedge $-1 $386 $385 $393 $444 reversed $270 $-1 #
edge $-1 $448 -64.402600177007358 $438 64.402600177007358 $385 $484 forward 7 unknown #
vertex $-1 $440 $485 #
vertex $-1 $453 $486 #
straight-curve $-1 -64.402600177007358 -42.738053336532957 -6.0072881910191542 0 0 -1 I I #
edge $-1 $441 -3.17790128149732 $437 3.17790128149732 $411 $487 forward 7 unknown #
vertex $-1 $412 $488 #
straight-curve $-1 0 -36.382250773538317 -4.5072881910191542 1 0 0 I I #
straight-curve $-1 0 -42.738053336532957 -4.5072881910191542 1 0 0 I I #
edge $-1 $394 -1.5 $448 1.5 $393 $489 forward 7 unknown #
point $-1 64.402600177007358 -42.738053336532957 -4.5072881910191542 #
point $-1 64.402600177007358 -36.382250773538317 -4.5072881910191542 #
straight-curve $-1 64.402600177007358 -36.382250773538317 0 0 0 -1 I I #
vertex $-1 $444 $490 #
straight-curve $-1 64.402600177007358 0 -7.5072881910191542 0 -1 0 I I #
point $-1 64.402600177007358 36.382250773538317 -7.5072881910191542 #
coedge $-1 $406 $434 $408 $453 forward $331 $-1 #
straight-curve $-1 0 36.382250773538317 -7.5072881910191542 1 0 0 I I #
edge $-1 $438 -42.738053336532957 $409 36.382250773538317 $408 $491 forward 7 unknown #
point $-1 -64.402600177007358 36.382250773538317 -7.5072881910191542 #
straight-curve $-1 -64.402600177007358 -36.382250773538317 0 0 0 -1 I I #
face $-1 $492 $493 $15 $-1 $494 reversed single #
loop $-1 $-1 $495 $414 #
plane-surface $-1 0 0 -7.5072881910191542 0 0 1 1 0 0 forward_v I I I I #
coedge $-1 $496 $497 $498 $499 forward $415 $-1 #
coedge $-1 $500 $417 $501 $502 reversed $357 $-1 #
coedge $-1 $417 $500 $497 $503 forward $357 $-1 #
coedge $-1 $504 $466 $417 $463 reversed $467 $-1 #
edge $-1 $505 -3.17790128149732 $506 3.17790128149732 $462 $507 forward 7 unknown #
coedge $-1 $508 $509 $418 $465 reversed $493 $-1 #
edge $-1 $481 -64.402600177007358 $468 64.402600177007358 $464 $510 forward 7 unknown #
coedge $-1 $462 $419 $509 $511 forward $467 $-1 #
loop $-1 $-1 $423 $512 #
vertex $-1 $420 $513 #
straight-curve $-1 64.402600177007358 0 7.5072881910191542 0 1 0 I I #
point $-1 64.402600177007358 28.744799604406381 7.5072881910191569 #
coedge $-1 $423 $514 $427 $476 reversed $467 $-1 #
vertex $-1 $476 $515 #
straight-curve $-1 64.402600177007358 -5.1194587786658046 31.219297642157599 0 -0.81915203911291934 0.57357644374324357 I I #
straight-curve $-1 24.261287146669957 36.382250773538324 2.1594872069706952 1 0 0 I I #
coedge $-1 $428 $427 $516 $517 reversed $290 $-1 #
edge $-1 $472 -2.1594872069706952 $518 7.5072881910191542 $471 $519 forward 7 unknown #
coedge $-1 $520 $429 $428 $478 forward $480 $-1 #
edge $-1 $431 -7.5072881910191542 $521 7.5072881910191542 $428 $522 forward 7 unknown #
coedge $-1 $429 $523 $508 $524 reversed $480 $-1 #
loop $-1 $-1 $477 $492 #
vertex $-1 $430 $525 #
straight-curve $-1 -64.402600177007358 0 7.5072881910191542 0 -1 0 I I #
point $-1 -64.402600177007358 36.382250773538317 7.5072881910191542 #
straight-curve $-1 0 -42.738053336532957 -7.5072881910191542 -1 0 0 I I #
point $-1 -64.402600177007358 -42.738053336532957 -4.5072881910191542 #
point $-1 -64.402600177007358 -42.738053336532957 -7.5072881910191542 #
straight-curve $-1 -64.402600177007358 -39.560152055035637 -4.5072881910191542 0 -1 0 I I #
point $-1 -64.402600177007358 -36.382250773538317 -4.5072881910191542 #
straight-curve $-1 64.402600177007358 -42.738053336532957 -6.0072881910191542 0 0 -1 I I #
point $-1 64.402600177007358 -42.738053336532957 -7.5072881910191542 #
straight-curve $-1 -64.402600177007358 0 -7.5072881910191542 0 1 0 I I #
face $-1 $512 $480 $15 $-1 $526 reversed single #
loop $-1 $-1 $501 $456 #
plane-surface $-1 0 -36.382250773538317 0 0 1 0 0 0 1 forward_v I I I I #
coedge $-1 $527 $516 $514 $528 forward $457 $-1 #
coedge $-1 $529 $459 $527 $530 reversed $415 $-1 #
coedge $-1 $459 $529 $461 $503 reversed $415 $-1 #
coedge $-1 $523 $520 $459 $499 reversed $480 $-1 #
edge $-1 $531 -1.5 $532 1.5 $498 $533 forward 7 unknown #
coedge $-1 $461 $460 $523 $534 forward $357 $-1 #
coedge $-1 $509 $508 $460 $502 forward $493 $-1 #
edge $-1 $535 -64.402600177007358 $506 64.402600177007358 $501 $536 forward 7 unknown #
edge $-1 $531 -64.402600177007358 $505 64.402600177007358 $497 $537 forward 7 unknown #
coedge $-1 $514 $462 $529 $538 forward $467 $-1 #
vertex $-1 $463 $539 #
vertex $-1 $463 $540 #
straight-curve $-1 64.402600177007358 -39.560152055035637 -4.5072881910191542 0 1 0 I I #
coedge $-1 $501 $464 $479 $524 forward $493 $-1 #
coedge $-1 $464 $501 $466 $511 reversed $493 $-1 #
straight-curve $-1 0 -36.382250773538317 7.5072881910191542 1 0 0 I I #
edge $-1 $468 -7.5072881910191542 $506 4.5072881910191542 $466 $541 forward 7 unknown #
face $-1 $-1 $467 $15 $-1 $542 reversed single #
point $-1 64.402600177007358 -36.382250773538317 7.5072881910191542 #
coedge $-1 $471 $504 $495 $528 reversed $467 $-1 #
point $-1 64.402600177007358 36.382250773538317 2.1594872069706952 #
coedge $-1 $495 $543 $475 $517 forward $457 $-1 #
edge $-1 $521 -64.402600177007358 $518 64.402600177007358 $475 $544 forward 7 unknown #
vertex $-1 $528 $545 #
straight-curve $-1 64.402600177007358 36.382250773538317 0 0 0 -1 I I #
coedge $-1 $498 $477 $543 $546 reversed $480 $-1 #
vertex $-1 $517 $547 #
straight-curve $-1 -64.402600177007358 36.382250773538317 0 0 0 -1 I I #
coedge $-1 $479 $498 $500 $534 reversed $480 $-1 #
edge $-1 $481 -7.5072881910191542 $535 4.5072881910191542 $479 $548 forward 7 unknown #
point $-1 -64.402600177007358 -36.382250773538317 7.5072881910191542 #
plane-surface $-1 -64.402600177007358 0 0 1 0 0 0 0 -1 forward_v I I I I #
coedge $-1 $543 $495 $496 $530 forward $457 $-1 #
edge $-1 $518 -36.382250773538317 $549 42.738053336532957 $514 $550 forward 7 unknown #
coedge $-1 $497 $496 $504 $538 reversed $415 $-1 #
edge $-1 $549 -64.402600177007358 $532 64.402600177007358 $496 $551 forward 7 unknown #
vertex $-1 $534 $552 #
vertex $-1 $546 $553 #
straight-curve $-1 -64.402600177007358 -42.738053336532957 -6.0072881910191542 0 0 -1 I I #
edge $-1 $535 -3.17790128149732 $531 3.17790128149732 $523 $554 forward 7 unknown #
vertex $-1 $524 $555 #
straight-curve $-1 0 -36.382250773538317 -4.5072881910191542 1 0 0 I I #
straight-curve $-1 0 -42.738053336532957 -4.5072881910191542 1 0 0 I I #
edge $-1 $505 -1.5 $549 1.5 $504 $556 forward 7 unknown #
point $-1 64.402600177007358 -42.738053336532957 -4.5072881910191542 #
point $-1 64.402600177007358 -36.382250773538317 -4.5072881910191542 #
straight-curve $-1 64.402600177007358 -36.382250773538317 0 0 0 -1 I I #
plane-surface $-1 64.402600177007358 0 0 -1 0 0 0 0 1 forward_v I I I I #
coedge $-1 $516 $527 $520 $546 forward $457 $-1 #
straight-curve $-1 0 36.382250773538317 -7.5072881910191542 1 0 0 I I #
point $-1 64.402600177007358 36.382250773538317 -7.5072881910191542 #
edge $-1 $532 -42.738053336532957 $521 36.382250773538317 $520 $557 forward 7 unknown #
point $-1 -64.402600177007358 36.382250773538317 -7.5072881910191542 #
straight-curve $-1 -64.402600177007358 -36.382250773538317 0 0 0 -1 I I #
vertex $-1 $538 $558 #
straight-curve $-1 64.402600177007358 0 -7.5072881910191542 0 -1 0 I I #
straight-curve $-1 0 -42.738053336532957 -7.5072881910191542 -1 0 0 I I #
point $-1 -64.402600177007358 -42.738053336532957 -4.5072881910191542 #
point $-1 -64.402600177007358 -42.738053336532957 -7.5072881910191542 #
straight-curve $-1 -64.402600177007358 -39.560152055035637 -4.5072881910191542 0 -1 0 I I #
point $-1 -64.402600177007358 -36.382250773538317 -4.5072881910191542 #
straight-curve $-1 64.402600177007358 -42.738053336532957 -6.0072881910191542 0 0 -1 I I #
straight-curve $-1 -64.402600177007358 0 -7.5072881910191542 0 1 0 I I #
point $-1 64.402600177007358 -42.738053336532957 -7.5072881910191542 #
End-of-ACIS-data 