500 0 8 0           
7 Unknown 11 ACIS 5.0 NT 24 Thu Mar 25 17:40:10 1999 
-1 9.9999999999999995e-007 1e-010 
body $-1 $8 $-1 $9 #
body $-1 $10 $-1 $11 #
body $-1 $12 $-1 $13 #
body $-1 $14 $-1 $15 #
body $-1 $16 $-1 $17 #
body $-1 $18 $-1 $19 #
body $-1 $20 $-1 $21 #
body $-1 $22 $-1 $23 #
lump $-1 $-1 $24 $0 #
transform $-1 1 0 0 0 1 0 0 0 1 62.674031800286869 37.020466264576321 12.847854128265711 1 rotate no_reflect no_shear #
lump $-1 $-1 $25 $1 #
transform $-1 1 0 0 0 1 0 0 0 1 62.674031800286869 37.020466264576321 12.847854128265711 1 rotate no_reflect no_shear #
lump $-1 $-1 $26 $2 #
transform $-1 1 0 0 0 1 0 0 0 1 62.674031800286869 37.020466264576321 12.847854128265711 1 rotate no_reflect no_shear #
lump $-1 $-1 $27 $3 #
transform $-1 1 0 0 0 1 0 0 0 1 62.674031800286869 37.020466264576321 12.847854128265711 1 rotate no_reflect no_shear #
lump $-1 $-1 $28 $4 #
transform $-1 1 0 0 0 1 0 0 0 1 62.674031800286869 37.020466264576321 12.847854128265711 1 rotate no_reflect no_shear #
lump $-1 $-1 $29 $5 #
transform $-1 1 0 0 0 1 0 0 0 1 62.674031800286869 37.020466264576321 12.847854128265711 1 rotate no_reflect no_shear #
lump $-1 $-1 $30 $6 #
transform $-1 1 0 0 0 1 0 0 0 1 62.674031800286869 37.020466264576321 12.847854128265711 1 rotate no_reflect no_shear #
lump $-1 $-1 $31 $7 #
transform $-1 1 0 0 0 1 0 0 0 1 62.674031800286869 37.020466264576321 12.847854128265711 1 rotate no_reflect no_shear #
shell $-1 $-1 $-1 $32 $-1 $8 #
shell $-1 $-1 $-1 $33 $-1 $10 #
shell $-1 $-1 $-1 $34 $-1 $12 #
shell $-1 $-1 $-1 $35 $-1 $14 #
shell $-1 $-1 $-1 $36 $-1 $16 #
shell $-1 $-1 $-1 $37 $-1 $18 #
shell $-1 $-1 $-1 $38 $-1 $20 #
shell $-1 $-1 $-1 $39 $-1 $22 #
face $-1 $40 $41 $24 $-1 $42 forward single #
face $-1 $43 $44 $25 $-1 $45 forward single #
face $-1 $46 $47 $26 $-1 $48 reversed single #
face $-1 $49 $50 $27 $-1 $51 forward single #
face $-1 $52 $53 $28 $-1 $54 forward single #
face $-1 $55 $56 $29 $-1 $57 reversed single #
face $-1 $58 $59 $30 $-1 $60 forward single #
face $-1 $61 $62 $31 $-1 $63 forward single #
face $-1 $64 $65 $24 $-1 $66 reversed single #
loop $-1 $-1 $67 $32 #
plane-surface $-1 0 0 12.847854128265711 0 0 1 1 0 0 forward_v I I I I #
face $-1 $68 $69 $25 $-1 $70 reversed single #
loop $-1 $-1 $71 $33 #
plane-surface $-1 0 -37.020466264576321 0 0 1 0 0 0 1 forward_v I I I I #
face $-1 $72 $73 $26 $-1 $74 reversed single #
loop $-1 $-1 $75 $34 #
plane-surface $-1 -53.547836647644111 78.198443699426349 144.5120718651327 1 0 0 0 -0.73135370988377701 -0.68199835119979291 forward_v I I I I #
face $-1 $76 $77 $27 $-1 $78 forward single #
loop $-1 $79 $80 $35 #
cone-surface $-1 -48.404701803102263 31.167068687304706 6.8695664196481809 0 -0.73135370988377701 -0.68199835119979291 2 0 0 1 I I 0 1 2 forward I I I I #
face $-1 $81 $82 $28 $-1 $83 forward single #
loop $-1 $84 $85 $36 #
cone-surface $-1 -40.689999536289491 31.167068687304706 6.8695664196481809 0 -0.73135370988377701 -0.68199835119979291 2 0 0 1 I I 0 1 2 forward I I I I #
face $-1 $86 $87 $29 $-1 $88 reversed single #
loop $-1 $-1 $89 $37 #
plane-surface $-1 35.546864691747636 78.198443699426349 144.5120718651327 1 0 0 0 -0.73135370988377701 -0.68199835119979291 forward_v I I I I #
face $-1 $90 $91 $30 $-1 $92 forward single #
loop $-1 $93 $94 $38 #
cone-surface $-1 40.689999536289491 31.167068687304706 6.8695664196481809 0 -0.73135370988377701 -0.68199835119979291 2 0 0 1 I I 0 1 2 forward I I I I #
face $-1 $95 $96 $31 $-1 $97 forward single #
loop $-1 $98 $99 $39 #
cone-surface $-1 48.404701803102256 31.167068687304706 6.8695664196481809 0 -0.73135370988377701 -0.68199835119979291 2 0 0 1 I I 0 1 2 forward I I I I #
face $-1 $100 $101 $24 $-1 $102 reversed single #
loop $-1 $-1 $103 $40 #
plane-surface $-1 0 0 -12.847854128265711 0 0 1 1 0 0 forward_v I I I I #
coedge $-1 $104 $105 $106 $107 forward $41 $-1 #
face $-1 $108 $109 $25 $-1 $110 reversed single #
loop $-1 $-1 $111 $43 #
plane-surface $-1 0 0 -12.847854128265711 0 0 1 1 0 0 forward_v I I I I #
coedge $-1 $112 $113 $114 $115 forward $44 $-1 #
face $-1 $116 $117 $26 $-1 $118 reversed single #
loop $-1 $-1 $119 $46 #
plane-surface $-1 -44.547350669695874 -13.475327641600884 59.024899163454634 0 0.73135370988377701 0.68199835119979291 1 0 0 forward_v I I I I #
coedge $-1 $120 $121 $122 $123 reversed $47 $-1 #
face $-1 $-1 $124 $27 $-1 $125 forward single #
loop $-1 $126 $127 $49 #
cone-surface $-1 -48.404701803102263 28.299819312046374 4.1958131864615051 0 -0.73135370988377701 -0.68199835119979291 1 0 0 1 I I -0.70710678118654746 0.70710678118654746 1 forward I I I I #
loop $-1 $-1 $128 $35 #
coedge $-1 $80 $80 $129 $130 reversed $50 $-1 #
face $-1 $-1 $131 $28 $-1 $132 forward single #
loop $-1 $133 $134 $52 #
cone-surface $-1 -40.689999536289491 28.299819312046374 4.1958131864615051 0 -0.73135370988377701 -0.68199835119979291 1 0 0 1 I I -0.70710678118654746 0.70710678118654746 1 forward I I I I #
loop $-1 $-1 $135 $36 #
coedge $-1 $85 $85 $136 $137 reversed $53 $-1 #
face $-1 $138 $139 $29 $-1 $140 reversed single #
loop $-1 $-1 $141 $55 #
plane-surface $-1 44.547350669695874 -13.475327641600884 59.024899163454634 0 0.73135370988377701 0.68199835119979291 1 0 0 forward_v I I I I #
coedge $-1 $142 $143 $144 $145 reversed $56 $-1 #
face $-1 $-1 $146 $30 $-1 $147 forward single #
loop $-1 $148 $149 $58 #
cone-surface $-1 40.689999536289491 28.299819312046374 4.1958131864615051 0 -0.73135370988377701 -0.68199835119979291 1 0 0 1 I I -0.70710678118654746 0.70710678118654746 1 forward I I I I #
loop $-1 $-1 $150 $38 #
coedge $-1 $94 $94 $151 $152 reversed $59 $-1 #
face $-1 $-1 $153 $31 $-1 $154 forward single #
loop $-1 $155 $156 $61 #
cone-surface $-1 48.404701803102256 28.299819312046374 4.1958131864615051 0 -0.73135370988377701 -0.68199835119979291 1 0 0 1 I I -0.70710678118654746 0.70710678118654746 1 forward I I I I #
loop $-1 $-1 $157 $39 #
coedge $-1 $99 $99 $158 $159 reversed $62 $-1 #
face $-1 $160 $161 $24 $-1 $162 reversed single #
loop $-1 $-1 $163 $64 #
plane-surface $-1 0 -37.020466264576321 0 0 1 0 0 0 1 forward_v I I I I #
coedge $-1 $164 $165 $166 $167 forward $65 $-1 #
coedge $-1 $168 $67 $169 $170 forward $41 $-1 #
coedge $-1 $67 $168 $171 $172 forward $41 $-1 #
coedge $-1 $173 $174 $67 $107 reversed $175 $-1 #
edge $-1 $176 -37.020466264576321 $177 37.020466264576321 $106 $178 forward 7 unknown #
face $-1 $179 $180 $25 $-1 $181 reversed single #
loop $-1 $-1 $182 $68 #
plane-surface $-1 -56.522267017094478 -49.638527815236166 0 0 1 0 0 0 1 forward_v I I I I #
coedge $-1 $183 $184 $113 $185 forward $69 $-1 #
coedge $-1 $186 $71 $187 $188 reversed $44 $-1 #
coedge $-1 $71 $186 $111 $185 reversed $44 $-1 #
coedge $-1 $189 $190 $71 $115 reversed $180 $-1 #
edge $-1 $191 -12.847854128265711 $192 12.847854128265711 $114 $193 forward 7 unknown #
face $-1 $194 $195 $26 $-1 $196 forward single #
loop $-1 $-1 $197 $72 #
plane-surface $-1 -35.546864691747636 78.198443699426349 144.5120718651327 -1 0 0 0 0.73135370988377701 0.68199835119979291 forward_v I I I I #
coedge $-1 $198 $199 $200 $201 reversed $73 $-1 #
coedge $-1 $121 $75 $202 $203 reversed $47 $-1 #
coedge $-1 $75 $120 $198 $204 reversed $47 $-1 #
coedge $-1 $200 $205 $75 $123 forward $195 $-1 #
edge $-1 $206 2.0787555851368538 $207 9.5137594089309587 $122 $208 forward 7 unknown #
loop $-1 $-1 $129 $76 #
plane-surface $-1 -44.547350669695874 -13.475327641600884 59.024899163454634 0 0.73135370988377701 0.68199835119979291 1 0 0 forward_v I I I I #
loop $-1 $-1 $209 $49 #
coedge $-1 $127 $127 $128 $210 reversed $77 $-1 #
coedge $-1 $128 $128 $127 $210 forward $79 $-1 #
coedge $-1 $129 $129 $80 $130 forward $124 $-1 #
edge $-1 $211 -4.742271243677014e-016 $211 6.2831853071795996 $129 $212 forward 7 unknown #
loop $-1 $-1 $136 $81 #
plane-surface $-1 -44.547350669695874 -13.475327641600884 59.024899163454634 0 0.73135370988377701 0.68199835119979291 1 0 0 forward_v I I I I #
loop $-1 $-1 $213 $52 #
coedge $-1 $134 $134 $135 $214 reversed $82 $-1 #
coedge $-1 $135 $135 $134 $214 forward $84 $-1 #
coedge $-1 $136 $136 $85 $137 forward $131 $-1 #
edge $-1 $215 -4.742271243677014e-016 $215 6.2831853071795996 $136 $216 forward 7 unknown #
face $-1 $217 $218 $29 $-1 $219 forward single #
loop $-1 $-1 $220 $86 #
plane-surface $-1 53.547836647644111 78.198443699426349 144.5120718651327 -1 0 0 0 0.73135370988377701 0.68199835119979291 forward_v I I I I #
coedge $-1 $221 $222 $223 $224 reversed $87 $-1 #
coedge $-1 $143 $89 $225 $226 reversed $56 $-1 #
coedge $-1 $89 $142 $221 $227 reversed $56 $-1 #
coedge $-1 $223 $228 $89 $145 forward $218 $-1 #
edge $-1 $229 2.0787555851368538 $230 9.5137594089309587 $144 $231 forward 7 unknown #
loop $-1 $-1 $151 $90 #
plane-surface $-1 44.547350669695874 -13.475327641600884 59.024899163454634 0 0.73135370988377701 0.68199835119979291 1 0 0 forward_v I I I I #
loop $-1 $-1 $232 $58 #
coedge $-1 $149 $149 $150 $233 reversed $91 $-1 #
coedge $-1 $150 $150 $149 $233 forward $93 $-1 #
coedge $-1 $151 $151 $94 $152 forward $146 $-1 #
edge $-1 $234 -4.742271243677014e-016 $234 6.2831853071795996 $151 $235 forward 7 unknown #
loop $-1 $-1 $158 $95 #
plane-surface $-1 44.547350669695874 -13.475327641600884 59.024899163454634 0 0.73135370988377701 0.68199835119979291 1 0 0 forward_v I I I I #
loop $-1 $-1 $236 $61 #
coedge $-1 $156 $156 $157 $237 reversed $96 $-1 #
coedge $-1 $157 $157 $156 $237 forward $98 $-1 #
coedge $-1 $158 $158 $99 $159 forward $153 $-1 #
edge $-1 $238 -4.742271243677014e-016 $238 6.2831853071795996 $158 $239 forward 7 unknown #
face $-1 $240 $241 $24 $-1 $242 reversed single #
loop $-1 $-1 $243 $100 #
plane-surface $-1 -62.674031800286869 0 0 1 0 0 0 0 -1 forward_v I I I I #
coedge $-1 $244 $171 $245 $246 forward $101 $-1 #
coedge $-1 $247 $103 $244 $248 forward $65 $-1 #
coedge $-1 $103 $247 $249 $250 forward $65 $-1 #
coedge $-1 $174 $173 $103 $167 reversed $175 $-1 #
edge $-1 $251 -37.020466264576321 $252 37.020466264576321 $166 $253 forward 7 unknown #
coedge $-1 $105 $104 $254 $255 forward $41 $-1 #
coedge $-1 $256 $257 $104 $170 reversed $241 $-1 #
edge $-1 $177 -62.674031800286869 $258 62.674031800286869 $169 $259 forward 7 unknown #
coedge $-1 $163 $260 $105 $172 reversed $101 $-1 #
edge $-1 $261 -62.674031800286869 $176 62.674031800286869 $171 $262 forward 7 unknown #
coedge $-1 $166 $106 $260 $263 forward $175 $-1 #
coedge $-1 $106 $166 $256 $264 reversed $175 $-1 #
loop $-1 $-1 $173 $240 #
vertex $-1 $107 $265 #
vertex $-1 $107 $266 #
straight-curve $-1 62.674031800286869 0 12.847854128265711 0 1 0 I I #
face $-1 $267 $268 $25 $-1 $269 reversed single #
loop $-1 $-1 $114 $108 #
plane-surface $-1 -58.022267017094478 -43.329497039906244 0 1 0 0 0 0 -1 forward_v I I I I #
coedge $-1 $270 $271 $272 $273 forward $109 $-1 #
coedge $-1 $274 $111 $275 $276 forward $69 $-1 #
coedge $-1 $111 $274 $189 $277 forward $69 $-1 #
edge $-1 $191 -58.022267017094478 $278 -55.022267017094478 $111 $279 forward 7 unknown #
coedge $-1 $113 $112 $280 $281 forward $44 $-1 #
coedge $-1 $282 $283 $112 $188 forward $284 $-1 #
edge $-1 $285 55.022267017094478 $192 58.022267017094478 $187 $286 forward 7 unknown #
coedge $-1 $272 $114 $184 $277 reversed $180 $-1 #
coedge $-1 $114 $272 $282 $287 reversed $180 $-1 #
vertex $-1 $185 $288 #
vertex $-1 $287 $289 #
straight-curve $-1 -58.022267017094478 -37.020466264576321 0 0 0 1 I I #
face $-1 $-1 $290 $26 $-1 $291 reversed single #
loop $-1 $-1 $122 $116 #
plane-surface $-1 0 0 12.847854128265711 0 0 1 1 0 0 forward_v I I I I #
coedge $-1 $292 $293 $294 $295 reversed $117 $-1 #
coedge $-1 $296 $119 $121 $204 forward $73 $-1 #
coedge $-1 $119 $296 $292 $297 forward $73 $-1 #
coedge $-1 $294 $122 $119 $201 forward $195 $-1 #
edge $-1 $207 -31.274161312796174 $298 -13.273189356899699 $200 $299 forward 7 unknown #
coedge $-1 $300 $301 $120 $203 forward $290 $-1 #
edge $-1 $302 -67.381247457561912 $206 -59.408181804300639 $202 $303 forward 7 unknown #
edge $-1 $207 63.139141035501339 $302 74.040932529152627 $121 $304 forward 7 unknown #
coedge $-1 $122 $294 $300 $305 forward $195 $-1 #
vertex $-1 $203 $306 #
vertex $-1 $123 $307 #
straight-curve $-1 -53.547836647644111 39.099221849713174 12.847854128265709 0 -1 0 I I #
coedge $-1 $209 $209 $-1 $308 reversed $126 $-1 #
edge $-1 $309 0 $309 6.2831853071796004 $127 $310 forward 7 unknown #
vertex $-1 $130 $311 #
ellipse-curve $-1 -48.404701803102263 33.302964352679268 8.8613213016350691 0 0.73135370988377701 0.68199835119979291 2 0 0 1 I I #
coedge $-1 $213 $213 $-1 $312 reversed $133 $-1 #
edge $-1 $313 0 $313 6.2831853071796004 $134 $314 forward 7 unknown #
vertex $-1 $137 $315 #
ellipse-curve $-1 -40.689999536289491 33.302964352679268 8.8613213016350691 0 0.73135370988377701 0.68199835119979291 2 0 0 1 I I #
face $-1 $-1 $316 $29 $-1 $317 reversed single #
loop $-1 $-1 $144 $138 #
plane-surface $-1 0 0 12.847854128265711 0 0 1 1 0 0 forward_v I I I I #
coedge $-1 $318 $319 $320 $321 reversed $139 $-1 #
coedge $-1 $322 $141 $143 $227 forward $87 $-1 #
coedge $-1 $141 $322 $318 $323 forward $87 $-1 #
coedge $-1 $320 $144 $141 $224 forward $218 $-1 #
edge $-1 $230 13.273189356899699 $324 31.274161312796174 $223 $325 forward 7 unknown #
coedge $-1 $326 $327 $142 $226 forward $316 $-1 #
edge $-1 $328 -67.381247457561912 $229 -59.408181804300639 $225 $329 forward 7 unknown #
edge $-1 $230 63.139141035501339 $328 74.040932529152627 $143 $330 forward 7 unknown #
coedge $-1 $144 $320 $326 $331 forward $218 $-1 #
vertex $-1 $145 $332 #
vertex $-1 $145 $333 #
straight-curve $-1 35.546864691747636 39.099221849713174 12.847854128265709 0 -1 0 I I #
coedge $-1 $232 $232 $-1 $334 reversed $148 $-1 #
edge $-1 $335 0 $335 6.2831853071796004 $149 $336 forward 7 unknown #
vertex $-1 $152 $337 #
ellipse-curve $-1 40.689999536289491 33.302964352679268 8.8613213016350691 0 0.73135370988377701 0.68199835119979291 2 0 0 1 I I #
coedge $-1 $236 $236 $-1 $338 reversed $155 $-1 #
edge $-1 $339 0 $339 6.2831853071796004 $156 $340 forward 7 unknown #
vertex $-1 $159 $341 #
ellipse-curve $-1 48.404701803102256 33.302964352679268 8.8613213016350691 0 0.73135370988377701 0.68199835119979291 2 0 0 1 I I #
face $-1 $-1 $175 $24 $-1 $342 reversed single #
loop $-1 $-1 $256 $160 #
plane-surface $-1 0 37.020466264576321 0 0 -1 0 0 0 -1 forward_v I I I I #
coedge $-1 $343 $254 $257 $344 forward $161 $-1 #
coedge $-1 $260 $163 $164 $248 reversed $101 $-1 #
coedge $-1 $254 $343 $163 $246 reversed $161 $-1 #
edge $-1 $261 -12.847854128265711 $345 12.847854128265711 $245 $346 forward 7 unknown #
coedge $-1 $165 $164 $343 $347 forward $65 $-1 #
edge $-1 $252 -62.674031800286869 $345 62.674031800286869 $244 $348 forward 7 unknown #
coedge $-1 $257 $256 $165 $250 reversed $241 $-1 #
edge $-1 $349 -62.674031800286869 $251 62.674031800286869 $249 $350 forward 7 unknown #
vertex $-1 $167 $351 #
vertex $-1 $263 $352 #
straight-curve $-1 62.674031800286869 0 -12.847854128265711 0 -1 0 I I #
coedge $-1 $243 $245 $168 $255 reversed $161 $-1 #
edge $-1 $258 -37.020466264576321 $261 37.020466264576321 $254 $353 forward 7 unknown #
coedge $-1 $249 $169 $174 $264 forward $241 $-1 #
coedge $-1 $169 $249 $243 $344 reversed $241 $-1 #
vertex $-1 $170 $354 #
straight-curve $-1 0 37.020466264576321 12.847854128265711 -1 0 0 I I #
coedge $-1 $171 $244 $173 $263 reversed $101 $-1 #
vertex $-1 $255 $355 #
straight-curve $-1 0 -37.020466264576321 12.847854128265711 1 0 0 I I #
edge $-1 $176 -12.847854128265711 $252 12.847854128265711 $173 $356 forward 7 unknown #
edge $-1 $177 -12.847854128265711 $251 12.847854128265711 $174 $357 forward 7 unknown #
point $-1 62.674031800286869 -37.020466264576321 12.847854128265711 #
point $-1 62.674031800286869 37.020466264576321 12.847854128265711 #
face $-1 $-1 $284 $25 $-1 $358 forward single #
loop $-1 $-1 $359 $179 #
plane-surface $-1 -55.022267017094478 -43.329497039906244 0 -1 0 0 0 0 1 forward_v I I I I #
coedge $-1 $360 $182 $274 $361 reversed $109 $-1 #
coedge $-1 $182 $360 $362 $363 reversed $109 $-1 #
coedge $-1 $190 $189 $182 $273 reversed $180 $-1 #
edge $-1 $364 -12.847854128265711 $365 12.847854128265711 $272 $366 forward 7 unknown #
coedge $-1 $184 $183 $270 $361 forward $69 $-1 #
coedge $-1 $280 $359 $183 $276 reversed $268 $-1 #
edge $-1 $278 -6.3090307753299228 $367 6.3090307753299228 $275 $368 forward 7 unknown #
edge $-1 $365 -6.3090307753299228 $191 6.3090307753299228 $189 $369 forward 7 unknown #
vertex $-1 $276 $370 #
straight-curve $-1 0 -37.020466264576321 -12.847854128265711 1 0 0 I I #
coedge $-1 $371 $275 $186 $281 reversed $268 $-1 #
edge $-1 $285 -12.847854128265711 $278 12.847854128265711 $280 $372 forward 7 unknown #
coedge $-1 $362 $187 $190 $287 forward $284 $-1 #
coedge $-1 $187 $362 $371 $373 forward $284 $-1 #
loop $-1 $-1 $187 $267 #
vertex $-1 $188 $374 #
straight-curve $-1 0 -37.020466264576321 12.847854128265711 -1 0 0 I I #
edge $-1 $192 -6.3090307753299228 $364 6.3090307753299228 $190 $375 forward 7 unknown #
point $-1 -58.022267017094478 -37.020466264576321 -12.847854128265711 #
point $-1 -58.022267017094478 -37.020466264576321 12.847854128265711 #
loop $-1 $-1 $202 $194 #
plane-surface $-1 0 37.020466264576321 0 0 -1 0 0 0 -1 forward_v I I I I #
coedge $-1 $293 $197 $199 $297 reversed $117 $-1 #
coedge $-1 $197 $292 $376 $377 reversed $117 $-1 #
coedge $-1 $205 $200 $197 $295 forward $195 $-1 #
edge $-1 $298 -9.5137594089309587 $378 -2.0787555851368538 $294 $379 forward 7 unknown #
coedge $-1 $199 $198 $301 $380 reversed $73 $-1 #
edge $-1 $381 -74.040932529152627 $298 -63.139141035501339 $292 $382 forward 7 unknown #
vertex $-1 $201 $383 #
straight-curve $-1 -22.273675334847937 29.585462440782212 12.847854128265705 1 0 0 I I #
coedge $-1 $376 $202 $205 $305 reversed $290 $-1 #
coedge $-1 $202 $376 $296 $380 forward $290 $-1 #
vertex $-1 $203 $384 #
straight-curve $-1 -53.547836647644111 37.020466264576321 72.256035932566348 0 0 1 I I #
straight-curve $-1 -53.547836647644111 -13.475327641600884 59.024899163454634 0 0.68199835119979291 -0.73135370988377701 I I #
edge $-1 $378 35.546864691747636 $206 53.547836647644111 $300 $385 forward 7 unknown #
point $-1 -53.547836647644111 37.020466264576321 12.847854128265711 #
point $-1 -53.547836647644111 29.585462440782216 12.847854128265709 #
edge $-1 $386 1 $386 0 $209 $-1 forward 7 unknown #
vertex $-1 $210 $387 #
ellipse-curve $-1 -48.404701803102263 29.031173021930151 4.877811537661298 0 0.73135370988377701 0.68199835119979291 2 0 0 1 I I #
point $-1 -46.404701803102263 33.302964352679261 8.8613213016350638 #
edge $-1 $388 1 $388 0 $213 $-1 forward 7 unknown #
vertex $-1 $214 $389 #
ellipse-curve $-1 -40.689999536289491 29.031173021930151 4.877811537661298 0 0.73135370988377701 0.68199835119979291 2 0 0 1 I I #
point $-1 -38.689999536289491 33.302964352679261 8.8613213016350638 #
loop $-1 $-1 $225 $217 #
plane-surface $-1 0 37.020466264576321 0 0 -1 0 0 0 -1 forward_v I I I I #
coedge $-1 $319 $220 $222 $323 reversed $139 $-1 #
coedge $-1 $220 $318 $390 $391 reversed $139 $-1 #
coedge $-1 $228 $223 $220 $321 forward $218 $-1 #
edge $-1 $324 -9.5137594089309587 $392 -2.0787555851368538 $320 $393 forward 7 unknown #
coedge $-1 $222 $221 $327 $394 reversed $87 $-1 #
edge $-1 $395 -74.040932529152627 $324 -63.139141035501339 $318 $396 forward 7 unknown #
vertex $-1 $224 $397 #
straight-curve $-1 22.273675334847937 29.585462440782212 12.847854128265705 1 0 0 I I #
coedge $-1 $390 $225 $228 $331 reversed $316 $-1 #
coedge $-1 $225 $390 $322 $394 forward $316 $-1 #
vertex $-1 $226 $398 #
straight-curve $-1 35.546864691747636 37.020466264576321 72.256035932566348 0 0 1 I I #
straight-curve $-1 35.546864691747636 -13.475327641600884 59.024899163454634 0 0.68199835119979291 -0.73135370988377701 I I #
edge $-1 $392 -53.547836647644111 $229 -35.546864691747636 $326 $399 forward 7 unknown #
point $-1 35.546864691747636 37.020466264576321 12.847854128265711 #
point $-1 35.546864691747636 29.585462440782216 12.847854128265709 #
edge $-1 $400 1 $400 0 $232 $-1 forward 7 unknown #
vertex $-1 $233 $401 #
ellipse-curve $-1 40.689999536289491 29.031173021930151 4.877811537661298 0 0.73135370988377701 0.68199835119979291 2 0 0 1 I I #
point $-1 42.689999536289491 33.302964352679261 8.8613213016350638 #
edge $-1 $402 1 $402 0 $236 $-1 forward 7 unknown #
vertex $-1 $237 $403 #
ellipse-curve $-1 48.404701803102256 29.031173021930151 4.877811537661298 0 0.73135370988377701 0.68199835119979291 2 0 0 1 I I #
point $-1 50.404701803102256 33.302964352679261 8.8613213016350638 #
plane-surface $-1 62.674031800286869 0 0 -1 0 0 0 0 1 forward_v I I I I #
coedge $-1 $245 $243 $247 $347 reversed $161 $-1 #
edge $-1 $258 -12.847854128265711 $349 12.847854128265711 $257 $404 forward 7 unknown #
vertex $-1 $347 $405 #
straight-curve $-1 -62.674031800286869 -37.020466264576321 0 0 0 -1 I I #
edge $-1 $345 -37.020466264576321 $349 37.020466264576321 $343 $406 forward 7 unknown #
straight-curve $-1 0 -37.020466264576321 -12.847854128265711 -1 0 0 I I #
vertex $-1 $250 $407 #
straight-curve $-1 0 37.020466264576321 -12.847854128265711 1 0 0 I I #
point $-1 62.674031800286869 37.020466264576321 -12.847854128265711 #
point $-1 62.674031800286869 -37.020466264576321 -12.847854128265711 #
straight-curve $-1 -62.674031800286869 0 12.847854128265711 0 -1 0 I I #
point $-1 -62.674031800286869 37.020466264576321 12.847854128265711 #
point $-1 -62.674031800286869 -37.020466264576321 12.847854128265711 #
straight-curve $-1 62.674031800286869 -37.020466264576321 0 0 0 -1 I I #
straight-curve $-1 62.674031800286869 37.020466264576321 0 0 0 -1 I I #
plane-surface $-1 0 0 12.847854128265711 0 0 1 1 0 0 forward_v I I I I #
coedge $-1 $275 $371 $360 $408 forward $268 $-1 #
coedge $-1 $271 $270 $359 $408 reversed $109 $-1 #
edge $-1 $367 -1.5 $365 1.5 $270 $409 forward 7 unknown #
coedge $-1 $283 $282 $271 $363 forward $284 $-1 #
edge $-1 $364 -1.5 $410 1.5 $271 $411 forward 7 unknown #
vertex $-1 $287 $412 #
vertex $-1 $277 $413 #
straight-curve $-1 -58.022267017094478 -49.638527815236166 0 0 0 -1 I I #
vertex $-1 $408 $414 #
straight-curve $-1 -55.022267017094478 -43.329497039906244 -12.847854128265711 0 -1 0 I I #
straight-curve $-1 -58.022267017094478 -43.329497039906244 -12.847854128265711 0 1 0 I I #
point $-1 -55.022267017094478 -37.020466264576321 -12.847854128265711 #
coedge $-1 $359 $280 $283 $373 reversed $268 $-1 #
straight-curve $-1 -55.022267017094478 -37.020466264576321 0 0 0 -1 I I #
edge $-1 $410 -6.3090307753299228 $285 6.3090307753299228 $371 $415 forward 7 unknown #
point $-1 -55.022267017094478 -37.020466264576321 12.847854128265711 #
straight-curve $-1 -58.022267017094478 -43.329497039906244 12.847854128265711 0 -1 0 I I #
coedge $-1 $301 $300 $293 $377 forward $290 $-1 #
edge $-1 $378 59.408181804300639 $381 67.381247457561912 $376 $416 forward 7 unknown #
vertex $-1 $305 $417 #
straight-curve $-1 -35.546864691747636 39.099221849713174 12.847854128265709 0 1 0 I I #
edge $-1 $381 13.273189356899699 $302 31.274161312796174 $301 $418 forward 7 unknown #
vertex $-1 $380 $419 #
straight-curve $-1 -35.546864691747636 -13.475327641600884 59.024899163454634 0 -0.68199835119979291 0.73135370988377701 I I #
point $-1 -35.546864691747636 29.585462440782216 12.847854128265709 #
point $-1 -53.547836647644111 37.020466264576321 4.8747884750044363 #
straight-curve $-1 0 37.020466264576321 12.847854128265711 -1 0 0 I I #
vertex $-1 $308 $420 #
point $-1 -46.404701803102263 29.031173021930151 4.877811537661298 #
vertex $-1 $312 $421 #
point $-1 -38.689999536289491 29.031173021930151 4.877811537661298 #
coedge $-1 $327 $326 $319 $391 forward $316 $-1 #
edge $-1 $392 59.408181804300639 $395 67.381247457561912 $390 $422 forward 7 unknown #
vertex $-1 $331 $423 #
straight-curve $-1 53.547836647644111 39.099221849713174 12.847854128265709 0 1 0 I I #
edge $-1 $395 -31.274161312796174 $328 -13.273189356899699 $327 $424 forward 7 unknown #
vertex $-1 $394 $425 #
straight-curve $-1 53.547836647644111 -13.475327641600884 59.024899163454634 0 -0.68199835119979291 0.73135370988377701 I I #
point $-1 53.547836647644111 29.585462440782216 12.847854128265709 #
point $-1 35.546864691747636 37.020466264576321 4.8747884750044363 #
straight-curve $-1 0 37.020466264576321 12.847854128265711 -1 0 0 I I #
vertex $-1 $334 $426 #
point $-1 42.689999536289491 29.031173021930151 4.877811537661298 #
vertex $-1 $338 $427 #
point $-1 50.404701803102256 29.031173021930151 4.877811537661298 #
straight-curve $-1 -62.674031800286869 37.020466264576321 0 0 0 -1 I I #
point $-1 -62.674031800286869 -37.020466264576321 -12.847854128265711 #
straight-curve $-1 -62.674031800286869 0 -12.847854128265711 0 1 0 I I #
point $-1 -62.674031800286869 37.020466264576321 -12.847854128265711 #
edge $-1 $410 -12.847854128265711 $367 12.847854128265711 $359 $428 forward 7 unknown #
straight-curve $-1 -56.522267017094478 -49.638527815236166 -12.847854128265711 -1 0 0 I I #
vertex $-1 $373 $429 #
straight-curve $-1 -56.522267017094478 -49.638527815236166 12.847854128265711 1 0 0 I I #
point $-1 -58.022267017094478 -49.638527815236166 12.847854128265711 #
point $-1 -58.022267017094478 -49.638527815236166 -12.847854128265711 #
point $-1 -55.022267017094478 -49.638527815236166 -12.847854128265711 #
straight-curve $-1 -55.022267017094478 -43.329497039906244 12.847854128265711 0 1 0 I I #
straight-curve $-1 -35.546864691747636 37.020466264576321 72.256035932566348 0 0 -1 I I #
point $-1 -35.546864691747636 37.020466264576321 12.847854128265711 #
straight-curve $-1 -22.273675334847937 37.020466264576314 4.8747884750044363 -1 0 0 I I #
point $-1 -35.546864691747636 37.020466264576321 4.8747884750044363 #
point $-1 -48.404701803102263 27.568465602162597 3.5138148352617122 #
point $-1 -40.689999536289491 27.568465602162597 3.5138148352617122 #
straight-curve $-1 53.547836647644111 37.020466264576321 72.256035932566348 0 0 -1 I I #
point $-1 53.547836647644111 37.020466264576321 12.847854128265711 #
straight-curve $-1 22.273675334847937 37.020466264576314 4.8747884750044363 -1 0 0 I I #
point $-1 53.547836647644111 37.020466264576321 4.8747884750044363 #
point $-1 40.689999536289491 27.568465602162597 3.5138148352617122 #
point $-1 48.404701803102256 27.568465602162597 3.5138148352617122 #
straight-curve $-1 -55.022267017094478 -49.638527815236166 0 0 0 -1 I I #
point $-1 -55.022267017094478 -49.638527815236166 12.847854128265711 #
End-of-ACIS-data 