500 0 9 0           
7 Unknown 11 ACIS 5.0 NT 24 Fri Mar 26 19:37:18 1999 
-1 9.9999999999999995e-007 1e-010 
body $-1 $9 $-1 $10 #
body $-1 $11 $-1 $12 #
body $-1 $13 $-1 $14 #
body $-1 $15 $-1 $16 #
body $-1 $17 $-1 $18 #
body $-1 $19 $-1 $20 #
body $-1 $21 $-1 $22 #
body $-1 $23 $-1 $24 #
body $-1 $25 $-1 $26 #
lump $-1 $-1 $27 $0 #
transform $-1 1 0 0 0 1 0 0 0 1 49.764702291940061 22.231838177437858 10.127505689357026 1 rotate no_reflect no_shear #
lump $-1 $-1 $28 $1 #
transform $-1 1 0 0 0 1 0 0 0 1 49.764702291940061 22.231838177437858 10.127505689357026 1 rotate no_reflect no_shear #
lump $-1 $-1 $29 $2 #
transform $-1 1 0 0 0 1 0 0 0 1 49.764702291940061 22.231838177437858 10.127505689357026 1 rotate no_reflect no_shear #
lump $-1 $-1 $30 $3 #
transform $-1 1 0 0 0 1 0 0 0 1 49.764702291940061 22.231838177437858 10.127505689357026 1 rotate no_reflect no_shear #
lump $-1 $-1 $31 $4 #
transform $-1 1 0 0 0 1 0 0 0 1 49.764702291940061 22.231838177437858 10.127505689357026 1 rotate no_reflect no_shear #
lump $-1 $-1 $32 $5 #
transform $-1 1 0 0 0 1 0 0 0 1 49.764702291940061 22.231838177437858 10.127505689357026 1 rotate no_reflect no_shear #
lump $-1 $-1 $33 $6 #
transform $-1 1 0 0 0 1 0 0 0 1 49.764702291940061 22.231838177437858 10.127505689357026 1 rotate no_reflect no_shear #
lump $-1 $-1 $34 $7 #
transform $-1 1 0 0 0 1 0 0 0 1 49.764702291940061 22.231838177437858 10.127505689357026 1 rotate no_reflect no_shear #
lump $-1 $-1 $35 $8 #
transform $-1 1 0 0 0 1 0 0 0 1 49.764702291940061 22.231838177437858 10.127505689357026 1 rotate no_reflect no_shear #
shell $-1 $-1 $-1 $36 $-1 $9 #
shell $-1 $-1 $-1 $37 $-1 $11 #
shell $-1 $-1 $-1 $38 $-1 $13 #
shell $-1 $-1 $-1 $39 $-1 $15 #
shell $-1 $-1 $-1 $40 $-1 $17 #
shell $-1 $-1 $-1 $41 $-1 $19 #
shell $-1 $-1 $-1 $42 $-1 $21 #
shell $-1 $-1 $-1 $43 $-1 $23 #
shell $-1 $-1 $-1 $44 $-1 $25 #
face $-1 $45 $46 $27 $-1 $47 forward single #
face $-1 $48 $49 $28 $-1 $50 forward single #
face $-1 $51 $52 $29 $-1 $53 forward single #
face $-1 $54 $55 $30 $-1 $56 reversed single #
face $-1 $57 $58 $31 $-1 $59 forward single #
face $-1 $60 $61 $32 $-1 $62 forward single #
face $-1 $63 $64 $33 $-1 $65 reversed single #
face $-1 $66 $67 $34 $-1 $68 forward single #
face $-1 $69 $70 $35 $-1 $71 forward single #
face $-1 $72 $73 $27 $-1 $74 reversed single #
loop $-1 $-1 $75 $36 #
plane-surface $-1 0 0 10.127505689357026 0 0 1 1 0 0 forward_v I I I I #
face $-1 $76 $77 $28 $-1 $78 forward single #
loop $-1 $-1 $79 $37 #
plane-surface $-1 0 -22.231838177437858 0 0 1 0 0 0 1 forward_v I I I I #
face $-1 $80 $81 $29 $-1 $82 reversed single #
loop $-1 $-1 $83 $38 #
plane-surface $-1 0 22.231838177437858 0 0 -1 0 0 0 -1 forward_v I I I I #
face $-1 $84 $85 $30 $-1 $86 reversed single #
loop $-1 $-1 $87 $39 #
plane-surface $-1 15.712785249736989 1.2819867158775846 140.65939079346504 0 -1 0 -0.51503808176128008 0 -0.85716729658548041 forward_v I I I I #
face $-1 $88 $89 $31 $-1 $90 forward single #
loop $-1 $91 $92 $40 #
cone-surface $-1 44.478646791209208 -3.0254519700183877 6.6774724562927892 -0.51503808176128008 0 -0.85716729658548041 0.2142918241463701 0 -0.12875952044032002 1 I I 0 1 0.25 forward I I I I #
face $-1 $93 $94 $32 $-1 $95 forward single #
loop $-1 $96 $97 $41 #
cone-surface $-1 44.478646791209208 -0.44098875848080255 6.6774724562927892 -0.51503808176128008 0 -0.85716729658548041 0.2142918241463701 0 -0.12875952044032002 1 I I 0 1 0.25 forward I I I I #
face $-1 $98 $99 $33 $-1 $100 reversed single #
loop $-1 $-1 $101 $42 #
plane-surface $-1 -101.02613590766404 -4.7484274443767784 89.397957177741077 0 1 0 -0.51503808176128008 0 0.85716729658548041 forward_v I I I I #
face $-1 $102 $103 $34 $-1 $104 forward single #
loop $-1 $105 $106 $43 #
cone-surface $-1 -44.478646791209215 -3.0254519700183877 6.6774724562927856 0.51503808176128008 0 -0.85716729658548041 0.2142918241463701 0 0.12875952044032002 1 I I 0 1 0.25 forward I I I I #
face $-1 $107 $108 $35 $-1 $109 forward single #
loop $-1 $110 $111 $44 #
cone-surface $-1 -44.478646791209215 -0.44098875848080255 6.6774724562927856 0.51503808176128008 0 -0.85716729658548041 0.2142918241463701 0 0.12875952044032002 1 I I 0 1 0.25 forward I I I I #
face $-1 $112 $113 $27 $-1 $114 reversed single #
loop $-1 $-1 $115 $45 #
plane-surface $-1 0 0 -10.127505689357026 0 0 1 1 0 0 forward_v I I I I #
coedge $-1 $116 $117 $118 $119 forward $46 $-1 #
face $-1 $120 $121 $28 $-1 $122 reversed single #
loop $-1 $-1 $123 $48 #
plane-surface $-1 0 0 10.127505689357026 0 0 1 1 0 0 forward_v I I I I #
coedge $-1 $124 $125 $126 $127 forward $49 $-1 #
face $-1 $128 $129 $29 $-1 $130 reversed single #
loop $-1 $-1 $131 $51 #
plane-surface $-1 49.764702291940061 0 0 -1 0 0 0 0 1 forward_v I I I I #
coedge $-1 $132 $133 $134 $135 forward $52 $-1 #
face $-1 $136 $137 $30 $-1 $138 reversed single #
loop $-1 $-1 $139 $54 #
plane-surface $-1 -35.548648365986992 -1.7332203642495969 55.346040135537976 0.51503808176128008 0 0.85716729658548041 0.85716729658548041 0 -0.51503808176128008 forward_v I I I I #
coedge $-1 $140 $141 $142 $143 reversed $55 $-1 #
face $-1 $-1 $144 $31 $-1 $145 forward single #
loop $-1 $146 $147 $57 #
cone-surface $-1 44.156747990108407 -3.0254519700183877 6.1417428959268641 -0.51503808176128008 0 -0.85716729658548041 0.10714591207318505 0 -0.064379760220160009 1 I I -0.70710678118654746 0.70710678118654746 0.125 forward I I I I #
loop $-1 $-1 $148 $40 #
coedge $-1 $92 $92 $149 $150 reversed $58 $-1 #
face $-1 $-1 $151 $32 $-1 $152 forward single #
loop $-1 $153 $154 $60 #
cone-surface $-1 44.156747990108407 -0.44098875848080255 6.1417428959268641 -0.51503808176128008 0 -0.85716729658548041 0.10714591207318505 0 -0.064379760220160009 1 I I -0.70710678118654746 0.70710678118654746 0.125 forward I I I I #
loop $-1 $-1 $155 $41 #
coedge $-1 $97 $97 $156 $157 reversed $61 $-1 #
face $-1 $158 $159 $33 $-1 $160 reversed single #
loop $-1 $-1 $161 $63 #
plane-surface $-1 -49.764702291940061 -1.7332203642495969 4.0846065198140167 -0.51503808176128008 0 0.85716729658548041 0.85716729658548041 0 0.51503808176128008 forward_v I I I I #
coedge $-1 $162 $163 $164 $165 reversed $64 $-1 #
face $-1 $-1 $166 $34 $-1 $167 forward single #
loop $-1 $168 $169 $66 #
cone-surface $-1 -44.156747990108414 -3.0254519700183877 6.1417428959268605 0.51503808176128008 0 -0.85716729658548041 0.10714591207318505 0 0.064379760220160009 1 I I -0.70710678118654746 0.70710678118654746 0.125 forward I I I I #
loop $-1 $-1 $170 $43 #
coedge $-1 $106 $106 $171 $172 reversed $67 $-1 #
face $-1 $-1 $173 $35 $-1 $174 forward single #
loop $-1 $175 $176 $69 #
cone-surface $-1 -44.156747990108414 -0.44098875848080255 6.1417428959268605 0.51503808176128008 0 -0.85716729658548041 0.10714591207318505 0 0.064379760220160009 1 I I -0.70710678118654746 0.70710678118654746 0.125 forward I I I I #
loop $-1 $-1 $177 $44 #
coedge $-1 $111 $111 $178 $179 reversed $70 $-1 #
face $-1 $180 $181 $27 $-1 $182 reversed single #
loop $-1 $-1 $183 $72 #
plane-surface $-1 0 -22.231838177437858 0 0 1 0 0 0 1 forward_v I I I I #
coedge $-1 $184 $185 $186 $187 forward $73 $-1 #
coedge $-1 $188 $75 $189 $190 forward $46 $-1 #
coedge $-1 $75 $188 $191 $192 forward $46 $-1 #
coedge $-1 $193 $194 $75 $119 reversed $195 $-1 #
edge $-1 $196 -22.231838177437858 $197 22.231838177437858 $118 $198 forward 7 unknown #
face $-1 $199 $200 $28 $-1 $201 reversed single #
loop $-1 $-1 $202 $76 #
plane-surface $-1 -49.764702291940061 0 0 1 0 0 0 0 -1 forward_v I I I I #
coedge $-1 $203 $204 $205 $206 forward $77 $-1 #
coedge $-1 $205 $79 $202 $207 reversed $49 $-1 #
coedge $-1 $79 $205 $208 $209 reversed $49 $-1 #
coedge $-1 $210 $211 $79 $127 reversed $200 $-1 #
edge $-1 $212 -49.764702291940061 $213 49.764702291940061 $126 $214 forward 7 unknown #
face $-1 $215 $216 $29 $-1 $217 reversed single #
loop $-1 $-1 $218 $80 #
plane-surface $-1 0 27.108228921561292 4.7097058532798961 0 0 1 1 0 0 forward_v I I I I #
coedge $-1 $219 $220 $132 $221 forward $81 $-1 #
coedge $-1 $222 $83 $131 $221 reversed $52 $-1 #
coedge $-1 $83 $222 $223 $224 reversed $52 $-1 #
coedge $-1 $225 $218 $83 $135 reversed $129 $-1 #
edge $-1 $226 -49.764702291940061 $227 49.764702291940061 $134 $228 forward 7 unknown #
face $-1 $229 $230 $30 $-1 $231 forward single #
loop $-1 $-1 $232 $84 #
plane-surface $-1 15.712785249736989 -4.7484274443767784 140.65939079346504 0 1 0 0.51503808176128008 0 0.85716729658548041 forward_v I I I I #
coedge $-1 $233 $234 $235 $236 reversed $85 $-1 #
coedge $-1 $141 $87 $237 $238 reversed $55 $-1 #
coedge $-1 $87 $140 $233 $239 reversed $55 $-1 #
coedge $-1 $235 $240 $87 $143 forward $230 $-1 #
edge $-1 $241 -41.908309667071563 $242 -31.851236747371114 $142 $243 forward 7 unknown #
loop $-1 $-1 $149 $88 #
plane-surface $-1 -35.548648365986992 -1.7332203642495969 55.346040135537976 0.51503808176128008 0 0.85716729658548041 0.85716729658548041 0 -0.51503808176128008 forward_v I I I I #
loop $-1 $-1 $244 $57 #
coedge $-1 $147 $147 $148 $245 reversed $89 $-1 #
coedge $-1 $148 $148 $147 $245 forward $91 $-1 #
coedge $-1 $149 $149 $92 $150 forward $144 $-1 #
edge $-1 $246 0 $246 6.2831853071796004 $149 $247 forward 7 unknown #
loop $-1 $-1 $156 $93 #
plane-surface $-1 -35.548648365986992 -1.7332203642495969 55.346040135537976 0.51503808176128008 0 0.85716729658548041 0.85716729658548041 0 -0.51503808176128008 forward_v I I I I #
loop $-1 $-1 $248 $60 #
coedge $-1 $154 $154 $155 $249 reversed $94 $-1 #
coedge $-1 $155 $155 $154 $249 forward $96 $-1 #
coedge $-1 $156 $156 $97 $157 forward $151 $-1 #
edge $-1 $250 0 $250 6.2831853071796004 $156 $251 forward 7 unknown #
face $-1 $252 $253 $33 $-1 $254 reversed single #
loop $-1 $-1 $255 $98 #
plane-surface $-1 -101.02613590766404 1.2819867158775846 89.397957177741077 0 -1 0 0.51503808176128008 0 -0.85716729658548041 forward_v I I I I #
coedge $-1 $256 $257 $258 $259 reversed $99 $-1 #
coedge $-1 $163 $101 $260 $261 reversed $64 $-1 #
coedge $-1 $101 $162 $256 $262 reversed $64 $-1 #
coedge $-1 $258 $263 $101 $165 forward $264 $-1 #
edge $-1 $265 0.74836566189195963 $266 10.805438581592391 $164 $267 forward 7 unknown #
loop $-1 $-1 $171 $102 #
plane-surface $-1 -49.764702291940061 -1.7332203642495969 4.0846065198140167 -0.51503808176128008 0 0.85716729658548041 0.85716729658548041 0 0.51503808176128008 forward_v I I I I #
loop $-1 $-1 $268 $66 #
coedge $-1 $169 $169 $170 $269 reversed $103 $-1 #
coedge $-1 $170 $170 $169 $269 forward $105 $-1 #
coedge $-1 $171 $171 $106 $172 forward $166 $-1 #
edge $-1 $270 0 $270 6.2831853071796004 $171 $271 forward 7 unknown #
loop $-1 $-1 $178 $107 #
plane-surface $-1 -49.764702291940061 -1.7332203642495969 4.0846065198140167 -0.51503808176128008 0 0.85716729658548041 0.85716729658548041 0 0.51503808176128008 forward_v I I I I #
loop $-1 $-1 $272 $69 #
coedge $-1 $176 $176 $177 $273 reversed $108 $-1 #
coedge $-1 $177 $177 $176 $273 forward $110 $-1 #
coedge $-1 $178 $178 $111 $179 forward $173 $-1 #
edge $-1 $274 0 $274 6.2831853071796004 $178 $275 forward 7 unknown #
face $-1 $276 $277 $27 $-1 $278 reversed single #
loop $-1 $-1 $279 $112 #
plane-surface $-1 -49.764702291940061 0 0 1 0 0 0 0 -1 forward_v I I I I #
coedge $-1 $280 $191 $281 $282 forward $113 $-1 #
coedge $-1 $283 $115 $280 $284 forward $73 $-1 #
coedge $-1 $115 $283 $285 $286 forward $73 $-1 #
coedge $-1 $194 $193 $115 $187 reversed $195 $-1 #
edge $-1 $287 -22.231838177437858 $288 22.231838177437858 $186 $289 forward 7 unknown #
coedge $-1 $117 $116 $290 $291 forward $46 $-1 #
coedge $-1 $292 $293 $116 $190 reversed $277 $-1 #
edge $-1 $197 -49.764702291940061 $294 49.764702291940061 $189 $295 forward 7 unknown #
coedge $-1 $183 $296 $117 $192 reversed $113 $-1 #
edge $-1 $297 -49.764702291940061 $196 49.764702291940061 $191 $298 forward 7 unknown #
coedge $-1 $186 $118 $296 $299 forward $195 $-1 #
coedge $-1 $118 $186 $292 $300 reversed $195 $-1 #
loop $-1 $-1 $193 $276 #
vertex $-1 $119 $301 #
vertex $-1 $119 $302 #
straight-curve $-1 49.764702291940061 0 10.127505689357026 0 1 0 I I #
face $-1 $303 $304 $28 $-1 $305 reversed single #
loop $-1 $-1 $210 $120 #
plane-surface $-1 0 -27.108228921561292 4.7097058532798961 0 0 1 1 0 0 forward_v I I I I #
coedge $-1 $306 $307 $124 $207 forward $121 $-1 #
coedge $-1 $308 $123 $307 $309 forward $77 $-1 #
coedge $-1 $123 $308 $310 $311 forward $77 $-1 #
coedge $-1 $125 $124 $123 $206 reversed $49 $-1 #
edge $-1 $312 -49.764702291940061 $313 49.764702291940061 $123 $314 forward 7 unknown #
edge $-1 $313 -10.127505689357026 $213 -4.7097058532798961 $202 $315 forward 7 unknown #
coedge $-1 $310 $316 $125 $209 forward $317 $-1 #
edge $-1 $212 4.7097058532798961 $312 10.127505689357026 $208 $318 forward 7 unknown #
coedge $-1 $319 $126 $316 $320 forward $200 $-1 #
coedge $-1 $126 $319 $306 $321 forward $200 $-1 #
vertex $-1 $209 $322 #
vertex $-1 $207 $323 #
straight-curve $-1 0 -22.231838177437858 4.7097058532798961 -1 0 0 I I #
face $-1 $324 $325 $29 $-1 $326 forward single #
loop $-1 $-1 $327 $128 #
plane-surface $-1 0 31.984619665684725 7.418605771318461 0 -1 0 0 0 -1 forward_v I I I I #
coedge $-1 $134 $328 $219 $329 forward $129 $-1 #
coedge $-1 $330 $131 $218 $329 reversed $81 $-1 #
coedge $-1 $131 $330 $331 $332 reversed $81 $-1 #
edge $-1 $333 -10.127505689357026 $227 -4.7097058532798961 $131 $334 forward 7 unknown #
coedge $-1 $133 $132 $335 $336 reversed $52 $-1 #
coedge $-1 $337 $338 $133 $224 forward $339 $-1 #
edge $-1 $226 4.7097058532798961 $340 10.127505689357026 $223 $341 forward 7 unknown #
coedge $-1 $328 $134 $338 $342 forward $129 $-1 #
vertex $-1 $224 $343 #
vertex $-1 $221 $344 #
straight-curve $-1 0 22.231838177437858 4.7097058532798961 1 0 0 I I #
face $-1 $-1 $345 $30 $-1 $346 reversed single #
loop $-1 $-1 $142 $136 #
plane-surface $-1 0 0 10.127505689357026 0 0 1 1 0 0 forward_v I I I I #
coedge $-1 $347 $348 $349 $350 reversed $137 $-1 #
coedge $-1 $351 $139 $141 $239 forward $85 $-1 #
coedge $-1 $139 $351 $347 $352 forward $85 $-1 #
coedge $-1 $349 $142 $139 $236 forward $230 $-1 #
edge $-1 $242 -2.1485968980023831 $353 3.88181726225198 $235 $354 forward 7 unknown #
coedge $-1 $355 $356 $140 $238 forward $345 $-1 #
edge $-1 $357 -66.245088876918516 $241 -60.202189707375496 $237 $358 forward 7 unknown #
edge $-1 $242 87.796487381179176 $357 99.529404583880137 $141 $359 forward 7 unknown #
coedge $-1 $142 $349 $355 $360 forward $230 $-1 #
vertex $-1 $238 $361 #
vertex $-1 $143 $362 #
straight-curve $-1 7.8563926248684943 1.2819867158775846 10.127505689357022 -1 0 0 I I #
coedge $-1 $244 $244 $-1 $363 reversed $146 $-1 #
edge $-1 $364 0 $364 6.2831853071796004 $147 $365 forward 7 unknown #
vertex $-1 $150 $366 #
ellipse-curve $-1 44.736165832089839 -3.0254519700183877 7.1060561045855115 0.51503808176128008 0 0.85716729658548041 0.2142918241463701 0 -0.12875952044032002 1 I I #
coedge $-1 $248 $248 $-1 $367 reversed $153 $-1 #
edge $-1 $368 0 $368 6.2831853071796004 $154 $369 forward 7 unknown #
vertex $-1 $157 $370 #
ellipse-curve $-1 44.736165832089839 -0.44098875848080255 7.1060561045855115 0.51503808176128008 0 0.85716729658548041 0.2142918241463701 0 -0.12875952044032002 1 I I #
face $-1 $-1 $264 $33 $-1 $371 forward single #
loop $-1 $-1 $372 $158 #
plane-surface $-1 -49.764702291940061 0 0 1 0 0 0 0 -1 forward_v I I I I #
coedge $-1 $373 $374 $375 $376 reversed $159 $-1 #
coedge $-1 $377 $161 $163 $262 forward $99 $-1 #
coedge $-1 $161 $377 $373 $378 forward $99 $-1 #
coedge $-1 $375 $164 $161 $259 forward $264 $-1 #
edge $-1 $266 -3.88181726225198 $379 2.1485968980023831 $258 $380 forward 7 unknown #
coedge $-1 $381 $382 $162 $261 forward $253 $-1 #
edge $-1 $383 -40.614372069056522 $265 -34.571472899513509 $260 $384 forward 7 unknown #
edge $-1 $266 -11.732917202700925 $383 0 $163 $385 forward 7 unknown #
coedge $-1 $164 $375 $381 $386 forward $264 $-1 #
loop $-1 $-1 $375 $252 #
vertex $-1 $261 $387 #
vertex $-1 $165 $388 #
straight-curve $-1 -50.513067953832021 -4.7484274443767784 10.127505689357022 1 0 0 I I #
coedge $-1 $268 $268 $-1 $389 reversed $168 $-1 #
edge $-1 $390 0 $390 6.2831853071796004 $169 $391 forward 7 unknown #
vertex $-1 $172 $392 #
ellipse-curve $-1 -44.736165832089853 -3.0254519700183877 7.1060561045855186 -0.51503808176128008 0 0.85716729658548041 0.2142918241463701 0 0.12875952044032002 1 I I #
coedge $-1 $272 $272 $-1 $393 reversed $175 $-1 #
edge $-1 $394 0 $394 6.2831853071796004 $176 $395 forward 7 unknown #
vertex $-1 $179 $396 #
ellipse-curve $-1 -44.736165832089853 -0.44098875848080255 7.1060561045855186 -0.51503808176128008 0 0.85716729658548041 0.2142918241463701 0 0.12875952044032002 1 I I #
face $-1 $-1 $195 $27 $-1 $397 reversed single #
loop $-1 $-1 $292 $180 #
plane-surface $-1 0 22.231838177437858 0 0 -1 0 0 0 -1 forward_v I I I I #
coedge $-1 $398 $290 $293 $399 forward $181 $-1 #
coedge $-1 $296 $183 $184 $284 reversed $113 $-1 #
coedge $-1 $290 $398 $183 $282 reversed $181 $-1 #
edge $-1 $297 -10.127505689357026 $400 10.127505689357026 $281 $401 forward 7 unknown #
coedge $-1 $185 $184 $398 $402 forward $73 $-1 #
edge $-1 $288 -49.764702291940061 $400 49.764702291940061 $280 $403 forward 7 unknown #
coedge $-1 $293 $292 $185 $286 reversed $277 $-1 #
edge $-1 $404 -49.764702291940061 $287 49.764702291940061 $285 $405 forward 7 unknown #
vertex $-1 $187 $406 #
vertex $-1 $299 $407 #
straight-curve $-1 49.764702291940061 0 -10.127505689357026 0 -1 0 I I #
coedge $-1 $279 $281 $188 $291 reversed $181 $-1 #
edge $-1 $294 -22.231838177437858 $297 22.231838177437858 $290 $408 forward 7 unknown #
coedge $-1 $285 $189 $194 $300 forward $277 $-1 #
coedge $-1 $189 $285 $279 $399 reversed $277 $-1 #
vertex $-1 $190 $409 #
straight-curve $-1 0 22.231838177437858 10.127505689357026 -1 0 0 I I #
coedge $-1 $191 $280 $193 $299 reversed $113 $-1 #
vertex $-1 $291 $410 #
straight-curve $-1 0 -22.231838177437858 10.127505689357026 1 0 0 I I #
edge $-1 $196 -10.127505689357026 $288 10.127505689357026 $193 $411 forward 7 unknown #
edge $-1 $197 -10.127505689357026 $287 10.127505689357026 $194 $412 forward 7 unknown #
point $-1 49.764702291940061 -22.231838177437858 10.127505689357026 #
point $-1 49.764702291940061 22.231838177437858 10.127505689357026 #
face $-1 $-1 $317 $28 $-1 $413 reversed single #
loop $-1 $-1 $414 $199 #
plane-surface $-1 0 -31.984619665684725 7.418605771318461 0 1 0 0 0 1 forward_v I I I I #
coedge $-1 $415 $202 $211 $321 reversed $121 $-1 #
coedge $-1 $202 $415 $203 $309 reversed $121 $-1 #
coedge $-1 $204 $203 $416 $417 forward $77 $-1 #
edge $-1 $313 22.231838177437858 $418 31.984619665684725 $307 $419 forward 7 unknown #
coedge $-1 $420 $208 $204 $311 reversed $317 $-1 #
edge $-1 $421 -31.984619665684725 $312 -22.231838177437858 $310 $422 forward 7 unknown #
vertex $-1 $209 $423 #
vertex $-1 $309 $424 #
straight-curve $-1 0 -22.231838177437858 10.127505689357026 -1 0 0 I I #
straight-curve $-1 -49.764702291940061 -22.231838177437858 0 0 0 -1 I I #
coedge $-1 $208 $420 $210 $320 reversed $317 $-1 #
loop $-1 $-1 $208 $303 #
straight-curve $-1 49.764702291940061 -22.231838177437858 0 0 0 1 I I #
coedge $-1 $211 $210 $425 $426 forward $200 $-1 #
edge $-1 $212 -4.8763907441234338 $427 4.8763907441234338 $316 $428 forward 7 unknown #
edge $-1 $429 -4.8763907441234338 $213 4.8763907441234338 $306 $430 forward 7 unknown #
point $-1 49.764702291940061 -22.231838177437858 4.7097058532798961 #
point $-1 -49.764702291940061 -22.231838177437858 4.7097058532798961 #
face $-1 $-1 $339 $29 $-1 $431 reversed single #
loop $-1 $-1 $335 $215 #
plane-surface $-1 0 0 10.127505689357026 0 0 1 1 0 0 forward_v I I I I #
coedge $-1 $432 $433 $330 $434 forward $216 $-1 #
coedge $-1 $218 $225 $432 $435 forward $129 $-1 #
edge $-1 $436 -4.8763907441234338 $227 4.8763907441234338 $219 $437 forward 7 unknown #
coedge $-1 $220 $219 $327 $434 reversed $81 $-1 #
coedge $-1 $438 $335 $220 $332 forward $325 $-1 #
edge $-1 $333 22.231838177437858 $439 31.984619665684725 $220 $440 forward 7 unknown #
vertex $-1 $332 $441 #
straight-curve $-1 49.764702291940061 22.231838177437858 0 0 0 -1 I I #
coedge $-1 $331 $442 $222 $336 forward $325 $-1 #
edge $-1 $340 -49.764702291940061 $333 49.764702291940061 $335 $443 forward 7 unknown #
coedge $-1 $444 $223 $442 $445 reversed $339 $-1 #
coedge $-1 $223 $444 $225 $342 reversed $339 $-1 #
loop $-1 $-1 $223 $324 #
vertex $-1 $224 $446 #
straight-curve $-1 -49.764702291940061 22.231838177437858 0 0 0 1 I I #
edge $-1 $226 -4.8763907441234338 $447 4.8763907441234338 $338 $448 forward 7 unknown #
point $-1 -49.764702291940061 22.231838177437858 4.7097058532798961 #
point $-1 49.764702291940061 22.231838177437858 4.7097058532798961 #
loop $-1 $-1 $237 $229 #
plane-surface $-1 49.764702291940061 0 0 -1 0 0 0 0 1 forward_v I I I I #
coedge $-1 $348 $232 $234 $352 reversed $137 $-1 #
coedge $-1 $232 $347 $449 $450 reversed $137 $-1 #
coedge $-1 $240 $235 $232 $350 forward $230 $-1 #
edge $-1 $353 31.851236747371114 $451 41.908309667071563 $349 $452 forward 7 unknown #
coedge $-1 $234 $233 $356 $453 reversed $85 $-1 #
edge $-1 $454 -99.529404583880137 $353 -87.796487381179176 $347 $455 forward 7 unknown #
vertex $-1 $236 $456 #
straight-curve $-1 39.707629372239609 -0.86661018212479846 10.127505689357022 0 -1 0 I I #
coedge $-1 $449 $237 $240 $360 reversed $345 $-1 #
coedge $-1 $237 $449 $351 $453 forward $345 $-1 #
vertex $-1 $238 $457 #
straight-curve $-1 49.764702291940061 1.2819867158775846 70.329695396732518 0 0 1 I I #
straight-curve $-1 -35.548648365986992 1.2819867158775846 55.346040135537976 0.85716729658548041 0 -0.51503808176128008 I I #
edge $-1 $451 -4.7484274443767784 $241 1.2819867158775846 $355 $458 forward 7 unknown #
point $-1 49.764702291940061 1.2819867158775846 10.127505689357026 #
point $-1 39.707629372239609 1.2819867158775846 10.127505689357022 #
edge $-1 $459 1 $459 0 $244 $-1 forward 7 unknown #
vertex $-1 $245 $460 #
ellipse-curve $-1 44.22112775032857 -3.0254519700183877 6.2488888080000491 0.51503808176128008 0 0.85716729658548041 0.2142918241463701 0 -0.12875952044032002 1 I I #
point $-1 44.950457656236217 -3.0254519700183877 6.9772965841452095 #
edge $-1 $461 1 $461 0 $248 $-1 forward 7 unknown #
vertex $-1 $249 $462 #
ellipse-curve $-1 44.22112775032857 -0.44098875848080255 6.2488888080000491 0.51503808176128008 0 0.85716729658548041 0.2142918241463701 0 -0.12875952044032002 1 I I #
point $-1 44.950457656236217 -0.44098875848080255 6.9772965841452095 #
plane-surface $-1 0 0 10.127505689357026 0 0 1 1 0 0 forward_v I I I I #
coedge $-1 $382 $381 $374 $463 forward $253 $-1 #
coedge $-1 $374 $255 $257 $378 reversed $159 $-1 #
coedge $-1 $255 $373 $372 $463 reversed $159 $-1 #
coedge $-1 $263 $258 $255 $376 forward $264 $-1 #
edge $-1 $379 -10.805438581592391 $464 -0.74836566189195963 $375 $465 forward 7 unknown #
coedge $-1 $257 $256 $382 $466 reversed $99 $-1 #
edge $-1 $467 0 $379 11.732917202700925 $373 $468 forward 7 unknown #
vertex $-1 $259 $469 #
straight-curve $-1 -39.70762937223963 -0.86661018212479846 10.127505689357026 0 1 0 I I #
coedge $-1 $372 $260 $263 $386 reversed $253 $-1 #
coedge $-1 $260 $372 $377 $466 forward $253 $-1 #
vertex $-1 $261 $470 #
straight-curve $-1 -49.764702291940061 -4.7484274443767784 44.698978588870538 0 0 1 I I #
straight-curve $-1 -49.764702291940061 -4.7484274443767784 4.0846065198140167 -0.85716729658548041 0 -0.51503808176128008 I I #
edge $-1 $464 -1.2819867158775846 $265 4.7484274443767784 $381 $471 forward 7 unknown #
point $-1 -49.764702291940061 -4.7484274443767784 10.127505689357026 #
point $-1 -39.70762937223963 -4.7484274443767784 10.127505689357026 #
edge $-1 $472 1 $472 0 $268 $-1 forward 7 unknown #
vertex $-1 $269 $473 #
ellipse-curve $-1 -44.221127750328577 -3.0254519700183877 6.2488888080000455 -0.51503808176128008 0 0.85716729658548041 0.2142918241463701 0 0.12875952044032002 1 I I #
point $-1 -44.521874007943481 -3.0254519700183877 7.2348156250258455 #
edge $-1 $474 1 $474 0 $272 $-1 forward 7 unknown #
vertex $-1 $273 $475 #
ellipse-curve $-1 -44.221127750328577 -0.44098875848080255 6.2488888080000455 -0.51503808176128008 0 0.85716729658548041 0.2142918241463701 0 0.12875952044032002 1 I I #
point $-1 -44.521874007943481 -0.44098875848080255 7.2348156250258455 #
plane-surface $-1 49.764702291940061 0 0 -1 0 0 0 0 1 forward_v I I I I #
coedge $-1 $281 $279 $283 $402 reversed $181 $-1 #
edge $-1 $294 -10.127505689357026 $404 10.127505689357026 $293 $476 forward 7 unknown #
vertex $-1 $402 $477 #
straight-curve $-1 -49.764702291940061 -22.231838177437858 0 0 0 -1 I I #
edge $-1 $400 -22.231838177437858 $404 22.231838177437858 $398 $478 forward 7 unknown #
straight-curve $-1 0 -22.231838177437858 -10.127505689357026 -1 0 0 I I #
vertex $-1 $286 $479 #
straight-curve $-1 0 22.231838177437858 -10.127505689357026 1 0 0 I I #
point $-1 49.764702291940061 22.231838177437858 -10.127505689357026 #
point $-1 49.764702291940061 -22.231838177437858 -10.127505689357026 #
straight-curve $-1 -49.764702291940061 0 10.127505689357026 0 -1 0 I I #
point $-1 -49.764702291940061 22.231838177437858 10.127505689357026 #
point $-1 -49.764702291940061 -22.231838177437858 10.127505689357026 #
straight-curve $-1 49.764702291940061 -22.231838177437858 0 0 0 -1 I I #
straight-curve $-1 49.764702291940061 22.231838177437858 0 0 0 -1 I I #
plane-surface $-1 49.764702291940061 0 0 -1 0 0 0 0 1 forward_v I I I I #
coedge $-1 $425 $416 $415 $480 forward $304 $-1 #
coedge $-1 $307 $306 $414 $480 reversed $121 $-1 #
coedge $-1 $414 $481 $308 $417 reversed $304 $-1 #
edge $-1 $418 -49.764702291940061 $421 49.764702291940061 $416 $482 forward 7 unknown #
vertex $-1 $309 $483 #
straight-curve $-1 -49.764702291940061 0 10.127505689357026 0 -1 0 I I #
coedge $-1 $316 $310 $481 $484 forward $317 $-1 #
vertex $-1 $311 $485 #
straight-curve $-1 49.764702291940061 0 10.127505689357026 0 1 0 I I #
point $-1 49.764702291940061 -22.231838177437858 10.127505689357026 #
point $-1 -49.764702291940061 -22.231838177437858 10.127505689357026 #
coedge $-1 $481 $414 $319 $426 reversed $304 $-1 #
edge $-1 $427 -49.764702291940061 $429 49.764702291940061 $425 $486 forward 7 unknown #
vertex $-1 $484 $487 #
straight-curve $-1 49.764702291940061 -27.108228921561292 4.7097058532798961 0 -1 0 I I #
vertex $-1 $321 $488 #
straight-curve $-1 -49.764702291940061 -27.108228921561292 4.7097058532798961 0 1 0 I I #
plane-surface $-1 -49.764702291940061 0 0 1 0 0 0 0 -1 forward_v I I I I #
coedge $-1 $489 $327 $328 $435 reversed $216 $-1 #
coedge $-1 $327 $489 $438 $490 reversed $216 $-1 #
edge $-1 $439 -2.7088999180385649 $436 2.7088999180385649 $330 $491 forward 7 unknown #
edge $-1 $447 -49.764702291940061 $436 49.764702291940061 $432 $492 forward 7 unknown #
vertex $-1 $329 $493 #
straight-curve $-1 49.764702291940061 27.108228921561292 4.7097058532798961 0 -1 0 I I #
coedge $-1 $442 $331 $433 $490 forward $325 $-1 #
vertex $-1 $332 $494 #
straight-curve $-1 49.764702291940061 0 10.127505689357026 0 1 0 I I #
point $-1 49.764702291940061 22.231838177437858 10.127505689357026 #
coedge $-1 $335 $438 $337 $445 forward $325 $-1 #
straight-curve $-1 0 22.231838177437858 10.127505689357026 1 0 0 I I #
coedge $-1 $338 $337 $489 $495 forward $339 $-1 #
edge $-1 $496 -31.984619665684725 $340 -22.231838177437858 $337 $497 forward 7 unknown #
point $-1 -49.764702291940061 22.231838177437858 10.127505689357026 #
vertex $-1 $435 $498 #
straight-curve $-1 -49.764702291940061 27.108228921561292 4.7097058532798961 0 1 0 I I #
coedge $-1 $356 $355 $348 $450 forward $345 $-1 #
edge $-1 $451 60.202189707375496 $454 66.245088876918516 $449 $499 forward 7 unknown #
vertex $-1 $360 $500 #
straight-curve $-1 7.8563926248684943 -4.7484274443767784 10.127505689357022 1 0 0 I I #
edge $-1 $454 -3.88181726225198 $357 2.1485968980023831 $356 $501 forward 7 unknown #
vertex $-1 $453 $502 #
straight-curve $-1 -35.548648365986992 -4.7484274443767784 55.346040135537976 -0.85716729658548041 0 0.51503808176128008 I I #
point $-1 39.707629372239609 -4.7484274443767784 10.127505689357022 #
point $-1 49.764702291940068 1.2819867158775846 4.0846065198139954 #
straight-curve $-1 49.764702291940061 0 10.127505689357026 0 1 0 I I #
vertex $-1 $363 $503 #
point $-1 44.435419574474935 -3.0254519700183877 6.1201292875597293 #
vertex $-1 $367 $504 #
point $-1 44.435419574474935 -0.44098875848080255 6.1201292875597293 #
edge $-1 $464 34.571472899513509 $467 40.614372069056522 $372 $505 forward 7 unknown #
vertex $-1 $386 $506 #
straight-curve $-1 -50.513067953832021 1.2819867158775846 10.127505689357022 -1 0 0 I I #
edge $-1 $467 -2.1485968980023831 $383 3.88181726225198 $382 $507 forward 7 unknown #
vertex $-1 $466 $508 #
straight-curve $-1 -49.764702291940061 1.2819867158775846 4.0846065198140167 0.85716729658548041 0 0.51503808176128008 I I #
point $-1 -39.70762937223963 1.2819867158775846 10.127505689357026 #
point $-1 -49.764702291940061 -4.7484274443767784 4.0846065198140167 #
straight-curve $-1 -49.764702291940061 0 10.127505689357026 0 -1 0 I I #
vertex $-1 $389 $509 #
point $-1 -44.006835926182205 -3.0254519700183877 6.3776483284403653 #
vertex $-1 $393 $510 #
point $-1 -44.006835926182205 -0.44098875848080255 6.3776483284403653 #
straight-curve $-1 -49.764702291940061 22.231838177437858 0 0 0 -1 I I #
point $-1 -49.764702291940061 -22.231838177437858 -10.127505689357026 #
straight-curve $-1 -49.764702291940061 0 -10.127505689357026 0 1 0 I I #
point $-1 -49.764702291940061 22.231838177437858 -10.127505689357026 #
edge $-1 $418 -2.7088999180385649 $429 2.7088999180385649 $415 $511 forward 7 unknown #
coedge $-1 $416 $425 $420 $484 reversed $304 $-1 #
straight-curve $-1 0 -31.984619665684725 10.127505689357026 1 0 0 I I #
point $-1 -49.764702291940061 -31.984619665684725 10.127505689357026 #
edge $-1 $421 -2.7088999180385649 $427 2.7088999180385649 $420 $512 forward 7 unknown #
point $-1 49.764702291940061 -31.984619665684725 10.127505689357026 #
straight-curve $-1 0 -31.984619665684725 4.7097058532798961 -1 0 0 I I #
point $-1 49.764702291940061 -31.984619665684725 4.7097058532798961 #
point $-1 -49.764702291940061 -31.984619665684725 4.7097058532798961 #
coedge $-1 $433 $432 $444 $495 reversed $216 $-1 #
edge $-1 $439 -49.764702291940061 $496 49.764702291940061 $433 $513 forward 7 unknown #
straight-curve $-1 49.764702291940061 31.984619665684725 7.418605771318461 0 0 -1 I I #
straight-curve $-1 0 31.984619665684725 4.7097058532798961 1 0 0 I I #
point $-1 49.764702291940061 31.984619665684725 4.7097058532798961 #
point $-1 49.764702291940061 31.984619665684725 10.127505689357026 #
edge $-1 $496 -2.7088999180385649 $447 2.7088999180385649 $489 $514 forward 7 unknown #
vertex $-1 $490 $515 #
straight-curve $-1 -49.764702291940061 0 10.127505689357026 0 -1 0 I I #
point $-1 -49.764702291940061 31.984619665684725 4.7097058532798961 #
straight-curve $-1 49.764702291940061 -4.7484274443767784 70.329695396732518 0 0 -1 I I #
point $-1 49.764702291940061 -4.7484274443767784 10.127505689357026 #
straight-curve $-1 49.764702291940054 -0.86661018212479846 4.0846065198139954 0 1 0 I I #
point $-1 49.764702291940068 -4.7484274443767784 4.0846065198139954 #
point $-1 44.092368229888244 -3.0254519700183877 6.034596983853679 #
point $-1 44.092368229888244 -0.44098875848080255 6.034596983853679 #
straight-curve $-1 -49.764702291940061 1.2819867158775846 44.698978588870538 0 0 -1 I I #
point $-1 -49.764702291940061 1.2819867158775846 10.127505689357026 #
straight-curve $-1 -49.764702291940061 -0.86661018212479846 4.0846065198140185 0 -1 0 I I #
point $-1 -49.764702291940061 1.2819867158775846 4.0846065198140167 #
point $-1 -44.092368229888251 -3.0254519700183877 6.0345969838536755 #
point $-1 -44.092368229888251 -0.44098875848080255 6.0345969838536755 #
straight-curve $-1 -49.764702291940061 -31.984619665684725 7.418605771318461 0 0 -1 I I #
straight-curve $-1 49.764702291940061 -31.984619665684725 7.418605771318461 0 0 -1 I I #
straight-curve $-1 0 31.984619665684725 10.127505689357026 -1 0 0 I I #
straight-curve $-1 -49.764702291940061 31.984619665684725 7.418605771318461 0 0 -1 I I #
point $-1 -49.764702291940061 31.984619665684725 10.127505689357026 #
End-of-ACIS-data 