500 0 8 0           
7 Unknown 11 ACIS 5.0 NT 24 Thu Mar 25 19:15:34 1999 
-1 9.9999999999999995e-007 1e-010 
body $-1 $8 $-1 $9 #
body $-1 $10 $-1 $11 #
body $-1 $12 $-1 $13 #
body $-1 $14 $-1 $15 #
body $-1 $16 $-1 $17 #
body $-1 $18 $-1 $19 #
body $-1 $20 $-1 $21 #
body $-1 $22 $-1 $23 #
lump $-1 $-1 $24 $0 #
transform $-1 1 0 0 0 1 0 0 0 1 69.215979491561626 42.247159283220419 14.711660703917303 1 rotate no_reflect no_shear #
lump $-1 $-1 $25 $1 #
transform $-1 1 0 0 0 1 0 0 0 1 69.215979491561626 42.247159283220419 14.711660703917303 1 rotate no_reflect no_shear #
lump $-1 $-1 $26 $2 #
transform $-1 1 0 0 0 1 0 0 0 1 69.215979491561626 42.247159283220419 14.711660703917303 1 rotate no_reflect no_shear #
lump $-1 $-1 $27 $3 #
transform $-1 1 0 0 0 1 0 0 0 1 69.215979491561626 42.247159283220419 14.711660703917303 1 rotate no_reflect no_shear #
lump $-1 $-1 $28 $4 #
transform $-1 1 0 0 0 1 0 0 0 1 69.215979491561626 42.247159283220419 14.711660703917303 1 rotate no_reflect no_shear #
lump $-1 $-1 $29 $5 #
transform $-1 1 0 0 0 1 0 0 0 1 69.215979491561626 42.247159283220419 14.711660703917303 1 rotate no_reflect no_shear #
lump $-1 $-1 $30 $6 #
transform $-1 1 0 0 0 1 0 0 0 1 69.215979491561626 42.247159283220419 14.711660703917303 1 rotate no_reflect no_shear #
lump $-1 $-1 $31 $7 #
transform $-1 1 0 0 0 1 0 0 0 1 69.215979491561626 42.247159283220419 14.711660703917303 1 rotate no_reflect no_shear #
shell $-1 $-1 $-1 $32 $-1 $8 #
shell $-1 $-1 $-1 $33 $-1 $10 #
shell $-1 $-1 $-1 $34 $-1 $12 #
shell $-1 $-1 $-1 $35 $-1 $14 #
shell $-1 $-1 $-1 $36 $-1 $16 #
shell $-1 $-1 $-1 $37 $-1 $18 #
shell $-1 $-1 $-1 $38 $-1 $20 #
shell $-1 $-1 $-1 $39 $-1 $22 #
face $-1 $40 $41 $24 $-1 $42 forward single #
face $-1 $43 $44 $25 $-1 $45 forward single #
face $-1 $46 $47 $26 $-1 $48 reversed single #
face $-1 $49 $50 $27 $-1 $51 forward single #
face $-1 $52 $53 $28 $-1 $54 forward single #
face $-1 $55 $56 $29 $-1 $57 forward single #
face $-1 $58 $59 $30 $-1 $60 reversed single #
face $-1 $61 $62 $31 $-1 $63 forward single #
face $-1 $64 $65 $24 $-1 $66 reversed single #
loop $-1 $-1 $67 $32 #
plane-surface $-1 0 0 14.711660703917303 0 0 1 1 0 0 forward_v I I I I #
face $-1 $68 $69 $25 $-1 $70 reversed single #
loop $-1 $-1 $71 $33 #
plane-surface $-1 -69.215979491561626 0 0 1 0 0 0 0 -1 forward_v I I I I #
face $-1 $72 $73 $26 $-1 $74 reversed single #
loop $-1 $-1 $75 $34 #
plane-surface $-1 59.009848021885631 -42.247159283220412 0.050753984800451235 0 -0.73135370988377701 0.68199835119979291 1 0 0 forward_v I I I I #
face $-1 $76 $77 $27 $-1 $78 forward single #
loop $-1 $79 $80 $35 #
cone-surface $-1 52.886169140080014 -33.671576314714535 5.7587945212003291 0 0.73135370988377701 -0.68199835119979291 1.5 0 0 1 I I 0 1 1.5 forward I I I I #
face $-1 $81 $82 $28 $-1 $83 forward single #
loop $-1 $84 $85 $36 #
cone-surface $-1 59.009848021885631 -33.671576314714535 5.7587945212003291 0 0.73135370988377701 -0.68199835119979291 1.5 0 0 1 I I 0 1 1.5 forward I I I I #
face $-1 $86 $87 $29 $-1 $88 forward single #
loop $-1 $89 $90 $37 #
cone-surface $-1 65.133526903691234 -33.671576314714535 5.7587945212003291 0 0.73135370988377701 -0.68199835119979291 1.5 0 0 1 I I 0 1 1.5 forward I I I I #
face $-1 $91 $92 $30 $-1 $93 reversed single #
loop $-1 $-1 $94 $38 #
plane-surface $-1 -57.481491617859959 52.434776670014195 164.58969247836376 1 0 0 0 -0.57357644374324357 -0.81915203911291934 forward_v I I I I #
face $-1 $95 $96 $31 $-1 $97 forward single #
loop $-1 $98 $99 $39 #
cone-surface $-1 -46.45525047618748 29.535899652230007 2.7867692885061146 0 -0.57357644374324357 -0.81915203911291934 5 0 0 1 I I 0 1 5 forward I I I I #
face $-1 $100 $101 $24 $-1 $102 reversed single #
loop $-1 $-1 $103 $40 #
plane-surface $-1 0 0 -14.711660703917303 0 0 1 1 0 0 forward_v I I I I #
coedge $-1 $104 $105 $106 $107 forward $41 $-1 #
face $-1 $108 $109 $25 $-1 $110 forward single #
loop $-1 $-1 $111 $43 #
plane-surface $-1 0 42.247159283220419 0 0 -1 0 0 0 -1 forward_v I I I I #
coedge $-1 $112 $113 $114 $115 forward $44 $-1 #
face $-1 $116 $117 $26 $-1 $118 reversed single #
loop $-1 $-1 $119 $46 #
plane-surface $-1 48.803716552209622 -143.48988605200645 94.461121764647871 1 0 0 0 0.73135370988377701 -0.68199835119979291 forward_v I I I I #
coedge $-1 $120 $121 $122 $123 reversed $47 $-1 #
face $-1 $-1 $124 $27 $-1 $125 forward single #
loop $-1 $126 $127 $49 #
cone-surface $-1 52.886169140080014 -31.383236243733538 3.6248829346419384 0 0.73135370988377701 -0.68199835119979291 0.75 0 0 1 I I -0.70710678118654757 0.70710678118654757 0.75 forward I I I I #
loop $-1 $-1 $128 $35 #
coedge $-1 $80 $80 $129 $130 reversed $50 $-1 #
face $-1 $-1 $131 $28 $-1 $132 forward single #
loop $-1 $133 $134 $52 #
cone-surface $-1 59.009848021885631 -31.383236243733538 3.6248829346419384 0 0.73135370988377701 -0.68199835119979291 0.75 0 0 1 I I -0.70710678118654757 0.70710678118654757 0.75 forward I I I I #
loop $-1 $-1 $135 $36 #
coedge $-1 $85 $85 $136 $137 reversed $53 $-1 #
face $-1 $-1 $138 $29 $-1 $139 forward single #
loop $-1 $140 $141 $55 #
cone-surface $-1 65.133526903691234 -31.383236243733538 3.6248829346419384 0 0.73135370988377701 -0.68199835119979291 0.75 0 0 1 I I -0.70710678118654757 0.70710678118654757 0.75 forward I I I I #
loop $-1 $-1 $142 $37 #
coedge $-1 $90 $90 $143 $144 reversed $56 $-1 #
face $-1 $145 $146 $30 $-1 $147 reversed single #
loop $-1 $-1 $148 $58 #
plane-surface $-1 -46.45525047618748 -26.966534063936201 51.19287099894234 0 0.57357644374324357 0.81915203911291934 1 0 0 forward_v I I I I #
coedge $-1 $149 $150 $151 $152 reversed $59 $-1 #
face $-1 $-1 $153 $31 $-1 $154 forward single #
loop $-1 $155 $156 $61 #
cone-surface $-1 -46.45525047618748 23.947262202610368 -5.1946319922759585 0 -0.57357644374324357 -0.81915203911291934 2.5 0 0 1 I I -0.70710678118654746 0.70710678118654746 2.5 forward I I I I #
loop $-1 $-1 $157 $39 #
coedge $-1 $99 $99 $158 $159 reversed $62 $-1 #
face $-1 $160 $161 $24 $-1 $162 reversed single #
loop $-1 $-1 $163 $64 #
plane-surface $-1 0 -42.247159283220419 0 0 1 0 0 0 1 forward_v I I I I #
coedge $-1 $164 $165 $166 $167 forward $65 $-1 #
coedge $-1 $168 $67 $169 $170 forward $41 $-1 #
coedge $-1 $67 $168 $171 $172 forward $41 $-1 #
coedge $-1 $173 $174 $67 $107 reversed $175 $-1 #
edge $-1 $176 -42.247159283220419 $177 42.247159283220419 $106 $178 forward 7 unknown #
face $-1 $179 $180 $25 $-1 $181 reversed single #
loop $-1 $-1 $114 $68 #
plane-surface $-1 -75.083223428412467 0 10.306851384309592 0 0 1 1 0 0 forward_v I I I I #
coedge $-1 $182 $183 $113 $184 forward $69 $-1 #
coedge $-1 $185 $71 $186 $187 reversed $44 $-1 #
coedge $-1 $71 $185 $111 $184 reversed $44 $-1 #
coedge $-1 $188 $189 $71 $115 reversed $109 $-1 #
edge $-1 $190 -42.247159283220419 $191 42.247159283220419 $114 $192 forward 7 unknown #
face $-1 $193 $194 $26 $-1 $195 forward single #
loop $-1 $-1 $196 $72 #
plane-surface $-1 0 -42.247159283220419 0 0 1 0 0 0 1 forward_v I I I I #
coedge $-1 $197 $198 $199 $200 reversed $73 $-1 #
coedge $-1 $201 $75 $202 $203 reversed $47 $-1 #
coedge $-1 $75 $201 $197 $204 forward $47 $-1 #
coedge $-1 $199 $205 $75 $123 forward $194 $-1 #
edge $-1 $206 -39.711055480618825 $207 -19.298792541266806 $122 $208 forward 7 unknown #
loop $-1 $-1 $129 $76 #
plane-surface $-1 59.009848021885631 -42.247159283220412 0.050753984800451235 0 -0.73135370988377701 0.68199835119979291 1 0 0 forward_v I I I I #
loop $-1 $-1 $209 $49 #
coedge $-1 $127 $127 $128 $210 reversed $77 $-1 #
coedge $-1 $128 $128 $127 $210 forward $79 $-1 #
coedge $-1 $129 $129 $80 $130 forward $124 $-1 #
edge $-1 $211 8.6609677638186254e-016 $211 6.2831853071796013 $129 $212 forward 7 unknown #
loop $-1 $-1 $136 $81 #
plane-surface $-1 59.009848021885631 -42.247159283220412 0.050753984800451235 0 -0.73135370988377701 0.68199835119979291 1 0 0 forward_v I I I I #
loop $-1 $-1 $213 $52 #
coedge $-1 $134 $134 $135 $214 reversed $82 $-1 #
coedge $-1 $135 $135 $134 $214 forward $84 $-1 #
coedge $-1 $136 $136 $85 $137 forward $131 $-1 #
edge $-1 $215 8.6609677638186254e-016 $215 6.2831853071796013 $136 $216 forward 7 unknown #
loop $-1 $-1 $143 $86 #
plane-surface $-1 59.009848021885631 -42.247159283220412 0.050753984800451235 0 -0.73135370988377701 0.68199835119979291 1 0 0 forward_v I I I I #
loop $-1 $-1 $217 $55 #
coedge $-1 $141 $141 $142 $218 reversed $87 $-1 #
coedge $-1 $142 $142 $141 $218 forward $89 $-1 #
coedge $-1 $143 $143 $90 $144 forward $138 $-1 #
edge $-1 $219 8.6609677638186254e-016 $219 6.2831853071796013 $143 $220 forward 7 unknown #
face $-1 $221 $222 $30 $-1 $223 forward single #
loop $-1 $-1 $224 $91 #
plane-surface $-1 -35.429009334515001 52.434776670014195 164.58969247836376 -1 0 0 0 0.57357644374324357 0.81915203911291934 forward_v I I I I #
coedge $-1 $225 $226 $227 $228 reversed $92 $-1 #
coedge $-1 $150 $94 $229 $230 reversed $59 $-1 #
coedge $-1 $94 $149 $225 $231 reversed $59 $-1 #
coedge $-1 $227 $232 $94 $152 forward $222 $-1 #
edge $-1 $233 -16.029770948213322 $234 1.0833556332444267 $151 $235 forward 7 unknown #
loop $-1 $-1 $158 $95 #
plane-surface $-1 -46.45525047618748 -26.966534063936201 51.19287099894234 0 0.57357644374324357 0.81915203911291934 1 0 0 forward_v I I I I #
loop $-1 $-1 $236 $61 #
coedge $-1 $156 $156 $157 $237 reversed $96 $-1 #
coedge $-1 $157 $157 $156 $237 forward $98 $-1 #
coedge $-1 $158 $158 $99 $159 forward $153 $-1 #
edge $-1 $238 4.0755057550487348e-016 $238 6.2831853071796004 $158 $239 forward 7 unknown #
face $-1 $240 $241 $24 $-1 $242 reversed single #
loop $-1 $-1 $243 $100 #
plane-surface $-1 -69.215979491561626 0 0 1 0 0 0 0 -1 forward_v I I I I #
coedge $-1 $244 $171 $245 $246 forward $101 $-1 #
coedge $-1 $247 $103 $244 $248 forward $65 $-1 #
coedge $-1 $103 $247 $249 $250 forward $65 $-1 #
coedge $-1 $174 $173 $103 $167 reversed $175 $-1 #
edge $-1 $251 -42.247159283220419 $252 42.247159283220419 $166 $253 forward 7 unknown #
coedge $-1 $105 $104 $254 $255 forward $41 $-1 #
coedge $-1 $256 $257 $104 $170 reversed $241 $-1 #
edge $-1 $177 -69.215979491561626 $258 69.215979491561626 $169 $259 forward 7 unknown #
coedge $-1 $163 $260 $105 $172 reversed $101 $-1 #
edge $-1 $261 -69.215979491561626 $176 69.215979491561626 $171 $262 forward 7 unknown #
coedge $-1 $166 $106 $260 $263 forward $175 $-1 #
coedge $-1 $106 $166 $256 $264 reversed $175 $-1 #
loop $-1 $-1 $173 $240 #
vertex $-1 $107 $265 #
vertex $-1 $107 $266 #
straight-curve $-1 69.215979491561626 0 14.711660703917303 0 1 0 I I #
face $-1 $267 $268 $25 $-1 $269 reversed single #
loop $-1 $-1 $270 $108 #
plane-surface $-1 -75.083223428412467 0 4.1629472306017412 0 0 1 1 0 0 forward_v I I I I #
coedge $-1 $271 $111 $272 $273 reversed $69 $-1 #
coedge $-1 $111 $271 $188 $274 reversed $69 $-1 #
edge $-1 $190 -10.306851384309592 $275 -4.1629472306017412 $111 $276 forward 7 unknown #
coedge $-1 $113 $112 $270 $277 forward $44 $-1 #
coedge $-1 $278 $279 $112 $187 forward $280 $-1 #
edge $-1 $281 4.1629472306017412 $191 10.306851384309592 $186 $282 forward 7 unknown #
coedge $-1 $283 $114 $183 $274 forward $109 $-1 #
coedge $-1 $114 $283 $278 $284 forward $109 $-1 #
vertex $-1 $184 $285 #
vertex $-1 $284 $286 #
straight-curve $-1 -69.215979491561626 0 10.306851384309592 0 -1 0 I I #
face $-1 $-1 $287 $26 $-1 $288 reversed single #
loop $-1 $-1 $199 $116 #
plane-surface $-1 0 0 14.711660703917303 0 0 1 1 0 0 forward_v I I I I #
coedge $-1 $289 $290 $198 $291 forward $117 $-1 #
coedge $-1 $198 $119 $121 $204 reversed $73 $-1 #
coedge $-1 $119 $197 $196 $291 reversed $73 $-1 #
coedge $-1 $292 $122 $119 $200 forward $194 $-1 #
edge $-1 $207 -43.169300102658262 $293 -29.497783742782808 $199 $294 forward 7 unknown #
coedge $-1 $121 $120 $289 $295 reversed $47 $-1 #
coedge $-1 $296 $297 $120 $203 forward $287 $-1 #
edge $-1 $298 -14.387686929478086 $206 5.6585732056440765 $202 $299 forward 7 unknown #
edge $-1 $300 -1.0418004549879283e-014 $207 20.046260135122154 $197 $301 forward 7 unknown #
coedge $-1 $122 $292 $296 $302 forward $194 $-1 #
vertex $-1 $203 $303 #
vertex $-1 $123 $304 #
straight-curve $-1 29.504924010942815 -28.575642923344965 14.711660703917303 -1 0 0 I I #
coedge $-1 $209 $209 $-1 $305 reversed $126 $-1 #
edge $-1 $306 0 $306 6.2831853071796004 $127 $307 forward 7 unknown #
vertex $-1 $130 $308 #
ellipse-curve $-1 52.886169140080014 -35.411401103282692 7.3812073443588719 0 -0.73135370988377701 0.68199835119979291 1.5 0 0 1 I I #
coedge $-1 $213 $213 $-1 $309 reversed $133 $-1 #
edge $-1 $310 0 $310 6.2831853071796004 $134 $311 forward 7 unknown #
vertex $-1 $137 $312 #
ellipse-curve $-1 59.009848021885631 -35.411401103282692 7.3812073443588719 0 -0.73135370988377701 0.68199835119979291 1.5 0 0 1 I I #
coedge $-1 $217 $217 $-1 $313 reversed $140 $-1 #
edge $-1 $314 0 $314 6.2831853071796004 $141 $315 forward 7 unknown #
vertex $-1 $144 $316 #
ellipse-curve $-1 65.133526903691234 -35.411401103282692 7.3812073443588719 0 -0.73135370988377701 0.68199835119979291 1.5 0 0 1 I I #
face $-1 $-1 $317 $30 $-1 $318 reversed single #
loop $-1 $-1 $151 $145 #
plane-surface $-1 0 0 14.711660703917303 0 0 1 1 0 0 forward_v I I I I #
coedge $-1 $319 $320 $321 $322 reversed $146 $-1 #
coedge $-1 $323 $148 $150 $231 forward $92 $-1 #
coedge $-1 $148 $323 $319 $324 forward $92 $-1 #
coedge $-1 $321 $151 $148 $228 forward $222 $-1 #
edge $-1 $234 -34.253866379766222 $325 -12.201384096421261 $227 $326 forward 7 unknown #
coedge $-1 $327 $328 $149 $230 forward $317 $-1 #
edge $-1 $329 -79.565926000087401 $233 -67.583185535264576 $229 $330 forward 7 unknown #
edge $-1 $234 63.603048369530896 $329 84.494318566440853 $150 $331 forward 7 unknown #
coedge $-1 $151 $321 $327 $332 forward $222 $-1 #
vertex $-1 $152 $333 #
vertex $-1 $152 $334 #
straight-curve $-1 -57.481491617859959 26.217388335007097 14.711660703917303 0 -1 0 I I #
coedge $-1 $236 $236 $-1 $335 reversed $155 $-1 #
edge $-1 $336 0 $336 6.2831853071796004 $156 $337 forward 7 unknown #
vertex $-1 $159 $338 #
ellipse-curve $-1 -46.45525047618748 33.690595992491538 8.7202904715058942 0 0.57357644374324357 0.81915203911291934 5 0 0 1 I I #
face $-1 $-1 $175 $24 $-1 $339 reversed single #
loop $-1 $-1 $256 $160 #
plane-surface $-1 0 42.247159283220419 0 0 -1 0 0 0 -1 forward_v I I I I #
coedge $-1 $340 $254 $257 $341 forward $161 $-1 #
coedge $-1 $260 $163 $164 $248 reversed $101 $-1 #
coedge $-1 $254 $340 $163 $246 reversed $161 $-1 #
edge $-1 $261 -14.711660703917303 $342 14.711660703917303 $245 $343 forward 7 unknown #
coedge $-1 $165 $164 $340 $344 forward $65 $-1 #
edge $-1 $252 -69.215979491561626 $342 69.215979491561626 $244 $345 forward 7 unknown #
coedge $-1 $257 $256 $165 $250 reversed $241 $-1 #
edge $-1 $346 -69.215979491561626 $251 69.215979491561626 $249 $347 forward 7 unknown #
vertex $-1 $167 $348 #
vertex $-1 $263 $349 #
straight-curve $-1 69.215979491561626 0 -14.711660703917303 0 -1 0 I I #
coedge $-1 $243 $245 $168 $255 reversed $161 $-1 #
edge $-1 $258 -42.247159283220419 $261 42.247159283220419 $254 $350 forward 7 unknown #
coedge $-1 $249 $169 $174 $264 forward $241 $-1 #
coedge $-1 $169 $249 $243 $341 reversed $241 $-1 #
vertex $-1 $170 $351 #
straight-curve $-1 0 42.247159283220419 14.711660703917303 -1 0 0 I I #
coedge $-1 $171 $244 $173 $263 reversed $101 $-1 #
vertex $-1 $255 $352 #
straight-curve $-1 0 -42.247159283220419 14.711660703917303 1 0 0 I I #
edge $-1 $176 -14.711660703917303 $252 14.711660703917303 $173 $353 forward 7 unknown #
edge $-1 $177 -14.711660703917303 $251 14.711660703917303 $174 $354 forward 7 unknown #
point $-1 69.215979491561626 -42.247159283220419 14.711660703917303 #
point $-1 69.215979491561626 42.247159283220419 14.711660703917303 #
face $-1 $-1 $280 $25 $-1 $355 reversed single #
loop $-1 $-1 $356 $179 #
plane-surface $-1 -80.950467365263307 0 7.2348993074556667 1 0 0 0 0 -1 forward_v I I I I #
coedge $-1 $357 $272 $185 $277 reversed $180 $-1 #
coedge $-1 $183 $182 $356 $358 reversed $69 $-1 #
coedge $-1 $270 $359 $182 $273 forward $180 $-1 #
edge $-1 $360 -5.8672439368508407 $275 5.8672439368508407 $182 $361 forward 7 unknown #
edge $-1 $190 -5.8672439368508407 $362 5.8672439368508407 $183 $363 forward 7 unknown #
vertex $-1 $184 $364 #
straight-curve $-1 -69.215979491561626 42.247159283220419 0 0 0 -1 I I #
edge $-1 $281 -42.247159283220419 $275 42.247159283220419 $270 $365 forward 7 unknown #
coedge $-1 $366 $186 $189 $284 reversed $280 $-1 #
coedge $-1 $186 $366 $357 $367 reversed $280 $-1 #
loop $-1 $-1 $186 $267 #
vertex $-1 $187 $368 #
straight-curve $-1 -69.215979491561626 -42.247159283220419 0 0 0 1 I I #
coedge $-1 $189 $188 $369 $370 forward $109 $-1 #
edge $-1 $371 -5.8672439368508407 $191 5.8672439368508407 $278 $372 forward 7 unknown #
point $-1 -69.215979491561626 42.247159283220419 10.306851384309592 #
point $-1 -69.215979491561626 -42.247159283220419 10.306851384309592 #
loop $-1 $-1 $202 $193 #
plane-surface $-1 69.215979491561626 0 0 -1 0 0 0 0 1 forward_v I I I I #
coedge $-1 $373 $196 $201 $295 forward $117 $-1 #
coedge $-1 $196 $373 $292 $374 reversed $117 $-1 #
edge $-1 $293 32.518900178406632 $300 47.179806897523491 $196 $375 forward 7 unknown #
coedge $-1 $205 $199 $290 $374 forward $194 $-1 #
vertex $-1 $374 $376 #
straight-curve $-1 48.803716552209622 -71.744943026003227 14.711660703917303 0 -1 0 I I #
edge $-1 $300 19.298792541266806 $298 39.711055480618825 $289 $377 forward 7 unknown #
coedge $-1 $297 $202 $205 $302 reversed $287 $-1 #
coedge $-1 $202 $296 $373 $378 forward $287 $-1 #
vertex $-1 $295 $379 #
straight-curve $-1 69.215979491561626 -32.434780519737551 10.573242197320569 0 0.68199835119979291 0.73135370988377701 I I #
vertex $-1 $295 $380 #
straight-curve $-1 48.803716552209622 -42.247159283220412 0.050753984800451235 0 0.68199835119979291 0.73135370988377701 I I #
edge $-1 $381 -42.247159283220419 $206 -28.575642923344965 $296 $382 forward 7 unknown #
point $-1 69.21597949156164 -28.575642923344965 14.711660703917303 #
point $-1 48.803716552209622 -28.575642923344965 14.711660703917303 #
edge $-1 $383 1 $383 0 $209 $-1 forward 7 unknown #
vertex $-1 $210 $384 #
ellipse-curve $-1 52.886169140080014 -31.931751526146371 4.1363816980417827 0 -0.73135370988377701 0.68199835119979291 1.5 0 0 1 I I #
point $-1 54.386169140080014 -35.411401103282692 7.3812073443588737 #
edge $-1 $385 1 $385 0 $213 $-1 forward 7 unknown #
vertex $-1 $214 $386 #
ellipse-curve $-1 59.009848021885631 -31.931751526146371 4.1363816980417827 0 -0.73135370988377701 0.68199835119979291 1.5 0 0 1 I I #
point $-1 60.509848021885631 -35.411401103282692 7.3812073443588737 #
edge $-1 $387 1 $387 0 $217 $-1 forward 7 unknown #
vertex $-1 $218 $388 #
ellipse-curve $-1 65.133526903691234 -31.931751526146371 4.1363816980417827 0 -0.73135370988377701 0.68199835119979291 1.5 0 0 1 I I #
point $-1 66.633526903691234 -35.411401103282692 7.3812073443588737 #
loop $-1 $-1 $229 $221 #
plane-surface $-1 0 42.247159283220419 0 0 -1 0 0 0 -1 forward_v I I I I #
coedge $-1 $320 $224 $226 $324 reversed $146 $-1 #
coedge $-1 $224 $319 $389 $390 reversed $146 $-1 #
coedge $-1 $232 $227 $224 $322 forward $222 $-1 #
edge $-1 $325 -1.0833556332444267 $391 16.029770948213322 $321 $392 forward 7 unknown #
coedge $-1 $226 $225 $328 $393 reversed $92 $-1 #
edge $-1 $394 -84.494318566440853 $325 -63.603048369530896 $319 $395 forward 7 unknown #
vertex $-1 $228 $396 #
straight-curve $-1 -23.22762523809374 25.134032701762663 14.711660703917303 1 0 0 I I #
coedge $-1 $389 $229 $232 $332 reversed $317 $-1 #
coedge $-1 $229 $389 $323 $393 forward $317 $-1 #
vertex $-1 $230 $397 #
straight-curve $-1 -57.481491617859959 42.247159283220419 82.294846239181879 0 0 1 I I #
straight-curve $-1 -57.481491617859959 -26.966534063936201 51.19287099894234 0 0.81915203911291934 -0.57357644374324357 I I #
edge $-1 $391 35.429009334515001 $233 57.481491617859959 $327 $398 forward 7 unknown #
point $-1 -57.481491617859959 42.247159283220419 14.711660703917303 #
point $-1 -57.481491617859959 25.134032701762671 14.711660703917303 #
edge $-1 $399 1 $399 0 $236 $-1 forward 7 unknown #
vertex $-1 $237 $400 #
ellipse-curve $-1 -46.45525047618748 25.381203311968477 -3.1467518944936601 0 0.57357644374324357 0.81915203911291934 5 0 0 1 I I #
point $-1 -41.45525047618748 33.690595992491538 8.7202904715058907 #
plane-surface $-1 69.215979491561626 0 0 -1 0 0 0 0 1 forward_v I I I I #
coedge $-1 $245 $243 $247 $344 reversed $161 $-1 #
edge $-1 $258 -14.711660703917303 $346 14.711660703917303 $257 $401 forward 7 unknown #
vertex $-1 $344 $402 #
straight-curve $-1 -69.215979491561626 -42.247159283220419 0 0 0 -1 I I #
edge $-1 $342 -42.247159283220419 $346 42.247159283220419 $340 $403 forward 7 unknown #
straight-curve $-1 0 -42.247159283220419 -14.711660703917303 -1 0 0 I I #
vertex $-1 $250 $404 #
straight-curve $-1 0 42.247159283220419 -14.711660703917303 1 0 0 I I #
point $-1 69.215979491561626 42.247159283220419 -14.711660703917303 #
point $-1 69.215979491561626 -42.247159283220419 -14.711660703917303 #
straight-curve $-1 -69.215979491561626 0 14.711660703917303 0 -1 0 I I #
point $-1 -69.215979491561626 42.247159283220419 14.711660703917303 #
point $-1 -69.215979491561626 -42.247159283220419 14.711660703917303 #
straight-curve $-1 69.215979491561626 -42.247159283220419 0 0 0 -1 I I #
straight-curve $-1 69.215979491561626 42.247159283220419 0 0 0 -1 I I #
plane-surface $-1 0 -42.247159283220419 0 0 1 0 0 0 1 forward_v I I I I #
coedge $-1 $405 $369 $271 $358 forward $268 $-1 #
coedge $-1 $359 $270 $279 $367 forward $180 $-1 #
edge $-1 $362 -3.0719520768539255 $360 3.0719520768539255 $271 $406 forward 7 unknown #
coedge $-1 $272 $357 $405 $407 forward $180 $-1 #
vertex $-1 $273 $408 #
straight-curve $-1 -75.083223428412467 42.247159283220419 4.1629472306017412 1 0 0 I I #
vertex $-1 $274 $409 #
straight-curve $-1 -75.083223428412467 42.247159283220419 10.306851384309592 -1 0 0 I I #
point $-1 -69.215979491561626 42.247159283220419 4.1629472306017412 #
straight-curve $-1 -69.215979491561626 0 4.1629472306017412 0 1 0 I I #
coedge $-1 $279 $278 $410 $411 forward $280 $-1 #
edge $-1 $281 -5.8672439368508407 $412 5.8672439368508407 $279 $413 forward 7 unknown #
point $-1 -69.215979491561626 -42.247159283220419 4.1629472306017412 #
coedge $-1 $356 $410 $283 $370 reversed $268 $-1 #
edge $-1 $362 -42.247159283220419 $371 42.247159283220419 $369 $414 forward 7 unknown #
vertex $-1 $370 $415 #
straight-curve $-1 -75.083223428412467 -42.247159283220419 10.306851384309592 1 0 0 I I #
coedge $-1 $290 $289 $297 $378 reversed $117 $-1 #
edge $-1 $293 48.803716552209622 $381 69.215979491561626 $290 $416 forward 7 unknown #
straight-curve $-1 48.803716552209622 -42.247159283220419 47.230560882323935 0 0 -1 I I #
point $-1 48.803716552209622 -42.247159283220419 14.711660703917303 #
straight-curve $-1 29.504924010942815 -42.247159283220419 0.05075398480043989 1 0 0 I I #
edge $-1 $381 -14.711660703917303 $298 -0.050753984800443616 $297 $417 forward 7 unknown #
point $-1 69.21597949156164 -42.247159283220419 0.050753984800443616 #
point $-1 48.803716552209622 -42.247159283220419 0.050753984800443616 #
vertex $-1 $302 $418 #
straight-curve $-1 69.215979491561626 0 14.711660703917303 0 1 0 I I #
vertex $-1 $305 $419 #
point $-1 54.386169140080014 -31.931751526146371 4.1363816980417827 #
vertex $-1 $309 $420 #
point $-1 60.509848021885631 -31.931751526146371 4.1363816980417827 #
vertex $-1 $313 $421 #
point $-1 66.633526903691234 -31.931751526146371 4.1363816980417827 #
coedge $-1 $328 $327 $320 $390 forward $317 $-1 #
edge $-1 $391 67.583185535264576 $394 79.565926000087401 $389 $422 forward 7 unknown #
vertex $-1 $332 $423 #
straight-curve $-1 -35.429009334515001 26.217388335007097 14.711660703917303 0 1 0 I I #
edge $-1 $394 12.201384096421261 $329 34.253866379766222 $328 $424 forward 7 unknown #
vertex $-1 $393 $425 #
straight-curve $-1 -35.429009334515001 -26.966534063936201 51.19287099894234 0 -0.81915203911291934 0.57357644374324357 I I #
point $-1 -35.429009334515001 25.134032701762671 14.711660703917303 #
point $-1 -57.481491617859959 42.247159283220419 2.728920239094478 #
straight-curve $-1 0 42.247159283220419 14.711660703917303 -1 0 0 I I #
vertex $-1 $335 $426 #
point $-1 -41.45525047618748 25.381203311968477 -3.1467518944936601 #
straight-curve $-1 -69.215979491561626 42.247159283220419 0 0 0 -1 I I #
point $-1 -69.215979491561626 -42.247159283220419 -14.711660703917303 #
straight-curve $-1 -69.215979491561626 0 -14.711660703917303 0 1 0 I I #
point $-1 -69.215979491561626 42.247159283220419 -14.711660703917303 #
coedge $-1 $410 $356 $359 $407 reversed $268 $-1 #
straight-curve $-1 -80.950467365263307 42.247159283220419 7.2348993074556667 0 0 -1 I I #
edge $-1 $412 -42.247159283220419 $360 42.247159283220419 $405 $427 forward 7 unknown #
point $-1 -80.950467365263307 42.247159283220419 4.1629472306017412 #
point $-1 -80.950467365263307 42.247159283220419 10.306851384309592 #
coedge $-1 $369 $405 $366 $411 reversed $268 $-1 #
edge $-1 $371 -3.0719520768539255 $412 3.0719520768539255 $410 $428 forward 7 unknown #
vertex $-1 $407 $429 #
straight-curve $-1 -75.083223428412467 -42.247159283220419 4.1629472306017412 -1 0 0 I I #
straight-curve $-1 -80.950467365263307 0 10.306851384309592 0 -1 0 I I #
point $-1 -80.950467365263307 -42.247159283220419 10.306851384309592 #
straight-curve $-1 0 -42.247159283220419 14.711660703917303 1 0 0 I I #
straight-curve $-1 69.215979491561626 -42.247159283220419 0 0 0 -1 I I #
point $-1 69.215979491561626 -42.247159283220419 14.711660703917303 #
point $-1 52.886169140080014 -30.834720961320706 3.1133841712420938 #
point $-1 59.009848021885631 -30.834720961320706 3.1133841712420938 #
point $-1 65.133526903691234 -30.834720961320706 3.1133841712420938 #
straight-curve $-1 -35.429009334515001 42.247159283220419 82.294846239181879 0 0 -1 I I #
point $-1 -35.429009334515001 42.247159283220419 14.711660703917303 #
straight-curve $-1 -23.22762523809374 42.247159283220419 2.7289202390944816 -1 0 0 I I #
point $-1 -35.429009334515001 42.247159283220419 2.728920239094478 #
point $-1 -46.45525047618748 22.513321093252259 -7.2425120900582574 #
straight-curve $-1 -80.950467365263307 0 4.1629472306017412 0 1 0 I I #
straight-curve $-1 -80.950467365263307 -42.247159283220419 7.2348993074556667 0 0 -1 I I #
point $-1 -80.950467365263307 -42.247159283220419 4.1629472306017412 #
End-of-ACIS-data 