500 0 10 0           
7 Unknown 11 ACIS 5.0 NT 24 Fri Mar 26 19:17:39 1999 
-1 9.9999999999999995e-007 1e-010 
body $-1 $10 $-1 $11 #
body $-1 $12 $-1 $13 #
body $-1 $14 $-1 $15 #
body $-1 $16 $-1 $17 #
body $-1 $18 $-1 $19 #
body $-1 $20 $-1 $21 #
body $-1 $22 $-1 $23 #
body $-1 $24 $-1 $25 #
body $-1 $26 $-1 $27 #
body $-1 $28 $-1 $29 #
lump $-1 $-1 $30 $0 #
transform $-1 1 0 0 0 1 0 0 0 1 62.621539963988155 37.974449462765399 9.8937307371327332 1 rotate no_reflect no_shear #
lump $-1 $-1 $31 $1 #
transform $-1 1 0 0 0 1 0 0 0 1 62.621539963988155 37.974449462765399 9.8937307371327332 1 rotate no_reflect no_shear #
lump $-1 $-1 $32 $2 #
transform $-1 1 0 0 0 1 0 0 0 1 62.621539963988155 37.974449462765399 9.8937307371327332 1 rotate no_reflect no_shear #
lump $-1 $-1 $33 $3 #
transform $-1 1 0 0 0 1 0 0 0 1 62.621539963988155 37.974449462765399 9.8937307371327332 1 rotate no_reflect no_shear #
lump $-1 $-1 $34 $4 #
transform $-1 1 0 0 0 1 0 0 0 1 62.621539963988155 37.974449462765399 9.8937307371327332 1 rotate no_reflect no_shear #
lump $-1 $-1 $35 $5 #
transform $-1 1 0 0 0 1 0 0 0 1 62.621539963988155 37.974449462765399 9.8937307371327332 1 rotate no_reflect no_shear #
lump $-1 $-1 $36 $6 #
transform $-1 1 0 0 0 1 0 0 0 1 62.621539963988155 37.974449462765399 9.8937307371327332 1 rotate no_reflect no_shear #
lump $-1 $-1 $37 $7 #
transform $-1 1 0 0 0 1 0 0 0 1 62.621539963988155 37.974449462765399 9.8937307371327332 1 rotate no_reflect no_shear #
lump $-1 $-1 $38 $8 #
transform $-1 1 0 0 0 1 0 0 0 1 62.621539963988155 37.974449462765399 9.8937307371327332 1 rotate no_reflect no_shear #
lump $-1 $-1 $39 $9 #
transform $-1 1 0 0 0 1 0 0 0 1 62.621539963988155 37.974449462765399 9.8937307371327332 1 rotate no_reflect no_shear #
shell $-1 $-1 $-1 $40 $-1 $10 #
shell $-1 $-1 $-1 $41 $-1 $12 #
shell $-1 $-1 $-1 $42 $-1 $14 #
shell $-1 $-1 $-1 $43 $-1 $16 #
shell $-1 $-1 $-1 $44 $-1 $18 #
shell $-1 $-1 $-1 $45 $-1 $20 #
shell $-1 $-1 $-1 $46 $-1 $22 #
shell $-1 $-1 $-1 $47 $-1 $24 #
shell $-1 $-1 $-1 $48 $-1 $26 #
shell $-1 $-1 $-1 $49 $-1 $28 #
face $-1 $50 $51 $30 $-1 $52 forward single #
face $-1 $53 $54 $31 $-1 $55 forward single #
face $-1 $56 $57 $32 $-1 $58 reversed single #
face $-1 $59 $60 $33 $-1 $61 forward single #
face $-1 $62 $63 $34 $-1 $64 forward single #
face $-1 $65 $66 $35 $-1 $67 forward single #
face $-1 $68 $69 $36 $-1 $70 reversed single #
face $-1 $71 $72 $37 $-1 $73 forward single #
face $-1 $74 $75 $38 $-1 $76 forward single #
face $-1 $77 $78 $39 $-1 $79 forward single #
face $-1 $80 $81 $30 $-1 $82 reversed single #
loop $-1 $-1 $83 $40 #
plane-surface $-1 0 0 9.8937307371327332 0 0 1 1 0 0 forward_v I I I I #
face $-1 $84 $85 $31 $-1 $86 forward single #
loop $-1 $-1 $87 $41 #
plane-surface $-1 0 -37.974449462765399 0 0 1 0 0 0 1 forward_v I I I I #
face $-1 $88 $89 $32 $-1 $90 reversed single #
loop $-1 $-1 $91 $42 #
plane-surface $-1 -148.03711609956952 -29.218610988621151 93.330362601579367 0 1 0 -0.68199836817093118 0 0.7313536940579346 forward_v I I I I #
face $-1 $92 $93 $33 $-1 $94 forward single #
loop $-1 $95 $96 $43 #
cone-surface $-1 -57.659599269143101 -26.87715829888446 5.1846240703228235 0.68199836817093118 0 -0.7313536940579346 0.7313536940579346 0 0.68199836817093118 1 I I 0 1 1 forward I I I I #
face $-1 $97 $98 $34 $-1 $99 forward single #
loop $-1 $100 $101 $44 #
cone-surface $-1 -57.659599269143101 -23.36497926427942 5.1846240703228235 0.68199836817093118 0 -0.7313536940579346 0.7313536940579346 0 0.68199836817093118 1 I I 0 1 1 forward I I I I #
face $-1 $102 $103 $35 $-1 $104 forward single #
loop $-1 $105 $106 $45 #
cone-surface $-1 -57.659599269143101 -19.852800229674383 5.1846240703228235 0.68199836817093118 0 -0.7313536940579346 0.7313536940579346 0 0.68199836817093118 1 I I 0 1 1 forward I I I I #
face $-1 $107 $108 $36 $-1 $109 reversed single #
loop $-1 $-1 $110 $46 #
plane-surface $-1 -148.03711609956952 4.3779192370721223 93.330362601579367 0 1 0 -0.68199836817093118 0 0.7313536940579346 forward_v I I I I #
face $-1 $111 $112 $37 $-1 $113 forward single #
loop $-1 $114 $115 $47 #
cone-surface $-1 -57.659599269143101 6.7193719268088117 5.1846240703228235 0.68199836817093118 0 -0.7313536940579346 0.7313536940579346 0 0.68199836817093118 1 I I 0 1 1 forward I I I I #
face $-1 $116 $117 $38 $-1 $118 forward single #
loop $-1 $119 $120 $48 #
cone-surface $-1 -57.659599269143101 10.231550961413852 5.1846240703228235 0.68199836817093118 0 -0.7313536940579346 0.7313536940579346 0 0.68199836817093118 1 I I 0 1 1 forward I I I I #
face $-1 $121 $122 $39 $-1 $123 forward single #
loop $-1 $124 $125 $49 #
cone-surface $-1 -57.659599269143101 13.743729996018892 5.1846240703228235 0.68199836817093118 0 -0.7313536940579346 0.7313536940579346 0 0.68199836817093118 1 I I 0 1 1 forward I I I I #
face $-1 $126 $127 $30 $-1 $128 reversed single #
loop $-1 $-1 $129 $50 #
plane-surface $-1 0 0 -9.8937307371327332 0 0 1 1 0 0 forward_v I I I I #
coedge $-1 $130 $131 $132 $133 forward $51 $-1 #
face $-1 $134 $135 $31 $-1 $136 reversed single #
loop $-1 $-1 $137 $53 #
plane-surface $-1 0 0 9.8937307371327332 0 0 1 1 0 0 forward_v I I I I #
coedge $-1 $138 $139 $140 $141 forward $54 $-1 #
face $-1 $142 $143 $32 $-1 $144 reversed single #
loop $-1 $-1 $145 $56 #
plane-surface $-1 -62.62153996398817 -23.36497926427942 1.7333734410607349 -0.68199836817093118 0 0.7313536940579346 0.7313536940579346 0 0.68199836817093118 forward_v I I I I #
coedge $-1 $146 $147 $148 $149 reversed $57 $-1 #
face $-1 $-1 $150 $33 $-1 $151 forward single #
loop $-1 $152 $153 $59 #
cone-surface $-1 -56.732115206419969 -26.87715829888446 4.1900192045199525 0.68199836817093118 0 -0.7313536940579346 0.3656768470289673 0 0.34099918408546559 1 I I -0.70710678118654746 0.70710678118654746 0.5 forward I I I I #
loop $-1 $-1 $154 $43 #
coedge $-1 $96 $96 $155 $156 reversed $60 $-1 #
face $-1 $-1 $157 $34 $-1 $158 forward single #
loop $-1 $159 $160 $62 #
cone-surface $-1 -56.732115206419969 -23.36497926427942 4.1900192045199525 0.68199836817093118 0 -0.7313536940579346 0.3656768470289673 0 0.34099918408546559 1 I I -0.70710678118654746 0.70710678118654746 0.5 forward I I I I #
loop $-1 $-1 $161 $44 #
coedge $-1 $101 $101 $162 $163 reversed $63 $-1 #
face $-1 $-1 $164 $35 $-1 $165 forward single #
loop $-1 $166 $167 $65 #
cone-surface $-1 -56.732115206419969 -19.852800229674383 4.1900192045199525 0.68199836817093118 0 -0.7313536940579346 0.3656768470289673 0 0.34099918408546559 1 I I -0.70710678118654746 0.70710678118654746 0.5 forward I I I I #
loop $-1 $-1 $168 $45 #
coedge $-1 $106 $106 $169 $170 reversed $66 $-1 #
face $-1 $171 $172 $36 $-1 $173 reversed single #
loop $-1 $-1 $174 $68 #
plane-surface $-1 -62.62153996398817 10.231550961413852 1.7333734410607349 -0.68199836817093118 0 0.7313536940579346 0.7313536940579346 0 0.68199836817093118 forward_v I I I I #
coedge $-1 $175 $176 $177 $178 reversed $69 $-1 #
face $-1 $-1 $179 $37 $-1 $180 forward single #
loop $-1 $181 $182 $71 #
cone-surface $-1 -56.732115206419969 6.7193719268088117 4.1900192045199525 0.68199836817093118 0 -0.7313536940579346 0.3656768470289673 0 0.34099918408546559 1 I I -0.70710678118654746 0.70710678118654746 0.5 forward I I I I #
loop $-1 $-1 $183 $47 #
coedge $-1 $115 $115 $184 $185 reversed $72 $-1 #
face $-1 $-1 $186 $38 $-1 $187 forward single #
loop $-1 $188 $189 $74 #
cone-surface $-1 -56.732115206419969 10.231550961413852 4.1900192045199525 0.68199836817093118 0 -0.7313536940579346 0.3656768470289673 0 0.34099918408546559 1 I I -0.70710678118654746 0.70710678118654746 0.5 forward I I I I #
loop $-1 $-1 $190 $48 #
coedge $-1 $120 $120 $191 $192 reversed $75 $-1 #
face $-1 $-1 $193 $39 $-1 $194 forward single #
loop $-1 $195 $196 $77 #
cone-surface $-1 -56.732115206419969 13.743729996018892 4.1900192045199525 0.68199836817093118 0 -0.7313536940579346 0.3656768470289673 0 0.34099918408546559 1 I I -0.70710678118654746 0.70710678118654746 0.5 forward I I I I #
loop $-1 $-1 $197 $49 #
coedge $-1 $125 $125 $198 $199 reversed $78 $-1 #
face $-1 $200 $201 $30 $-1 $202 reversed single #
loop $-1 $-1 $203 $80 #
plane-surface $-1 0 -37.974449462765399 0 0 1 0 0 0 1 forward_v I I I I #
coedge $-1 $204 $205 $206 $207 forward $81 $-1 #
coedge $-1 $208 $83 $209 $210 forward $51 $-1 #
coedge $-1 $83 $208 $211 $212 forward $51 $-1 #
coedge $-1 $213 $214 $83 $133 reversed $215 $-1 #
edge $-1 $216 -37.974449462765399 $217 37.974449462765399 $132 $218 forward 7 unknown #
face $-1 $219 $220 $31 $-1 $221 reversed single #
loop $-1 $-1 $222 $84 #
plane-surface $-1 -62.621539963988155 0 0 1 0 0 0 0 -1 forward_v I I I I #
coedge $-1 $223 $224 $139 $225 forward $85 $-1 #
coedge $-1 $226 $87 $227 $228 reversed $54 $-1 #
coedge $-1 $87 $226 $137 $225 reversed $54 $-1 #
coedge $-1 $229 $230 $87 $141 reversed $231 $-1 #
edge $-1 $232 -9.8937307371327332 $233 9.8937307371327332 $140 $234 forward 7 unknown #
face $-1 $235 $236 $32 $-1 $237 reversed single #
loop $-1 $-1 $238 $88 #
plane-surface $-1 -148.03711609956952 -17.511347539937688 93.330362601579367 0 -1 0 0.68199836817093118 0 -0.7313536940579346 forward_v I I I I #
coedge $-1 $239 $240 $241 $242 reversed $89 $-1 #
coedge $-1 $147 $91 $243 $244 reversed $57 $-1 #
coedge $-1 $91 $146 $239 $245 reversed $57 $-1 #
coedge $-1 $241 $246 $91 $149 forward $247 $-1 #
edge $-1 $248 11.397018085796603 $249 20.14792971821133 $148 $250 forward 7 unknown #
loop $-1 $-1 $155 $92 #
plane-surface $-1 -62.62153996398817 -23.36497926427942 1.7333734410607349 -0.68199836817093118 0 0.7313536940579346 0.7313536940579346 0 0.68199836817093118 forward_v I I I I #
loop $-1 $-1 $251 $59 #
coedge $-1 $153 $153 $154 $252 reversed $93 $-1 #
coedge $-1 $154 $154 $153 $252 forward $95 $-1 #
coedge $-1 $155 $155 $96 $156 forward $150 $-1 #
edge $-1 $253 0 $253 6.2831853071796004 $155 $254 forward 7 unknown #
loop $-1 $-1 $162 $97 #
plane-surface $-1 -62.62153996398817 -23.36497926427942 1.7333734410607349 -0.68199836817093118 0 0.7313536940579346 0.7313536940579346 0 0.68199836817093118 forward_v I I I I #
loop $-1 $-1 $255 $62 #
coedge $-1 $160 $160 $161 $256 reversed $98 $-1 #
coedge $-1 $161 $161 $160 $256 forward $100 $-1 #
coedge $-1 $162 $162 $101 $163 forward $157 $-1 #
edge $-1 $257 0 $257 6.2831853071796004 $162 $258 forward 7 unknown #
loop $-1 $-1 $169 $102 #
plane-surface $-1 -62.62153996398817 -23.36497926427942 1.7333734410607349 -0.68199836817093118 0 0.7313536940579346 0.7313536940579346 0 0.68199836817093118 forward_v I I I I #
loop $-1 $-1 $259 $65 #
coedge $-1 $167 $167 $168 $260 reversed $103 $-1 #
coedge $-1 $168 $168 $167 $260 forward $105 $-1 #
coedge $-1 $169 $169 $106 $170 forward $164 $-1 #
edge $-1 $261 0 $261 6.2831853071796004 $169 $262 forward 7 unknown #
face $-1 $263 $264 $36 $-1 $265 forward single #
loop $-1 $-1 $266 $107 #
plane-surface $-1 -148.03711609956952 16.085182685755584 93.330362601579367 0 -1 0 0.68199836817093118 0 -0.7313536940579346 forward_v I I I I #
coedge $-1 $267 $268 $269 $270 reversed $108 $-1 #
coedge $-1 $176 $110 $271 $272 reversed $69 $-1 #
coedge $-1 $110 $175 $267 $273 reversed $69 $-1 #
coedge $-1 $269 $274 $110 $178 forward $264 $-1 #
edge $-1 $275 11.397018085796603 $276 20.14792971821133 $177 $277 forward 7 unknown #
loop $-1 $-1 $184 $111 #
plane-surface $-1 -62.62153996398817 10.231550961413852 1.7333734410607349 -0.68199836817093118 0 0.7313536940579346 0.7313536940579346 0 0.68199836817093118 forward_v I I I I #
loop $-1 $-1 $278 $71 #
coedge $-1 $182 $182 $183 $279 reversed $112 $-1 #
coedge $-1 $183 $183 $182 $279 forward $114 $-1 #
coedge $-1 $184 $184 $115 $185 forward $179 $-1 #
edge $-1 $280 0 $280 6.2831853071796004 $184 $281 forward 7 unknown #
loop $-1 $-1 $191 $116 #
plane-surface $-1 -62.62153996398817 10.231550961413852 1.7333734410607349 -0.68199836817093118 0 0.7313536940579346 0.7313536940579346 0 0.68199836817093118 forward_v I I I I #
loop $-1 $-1 $282 $74 #
coedge $-1 $189 $189 $190 $283 reversed $117 $-1 #
coedge $-1 $190 $190 $189 $283 forward $119 $-1 #
coedge $-1 $191 $191 $120 $192 forward $186 $-1 #
edge $-1 $284 0 $284 6.2831853071796004 $191 $285 forward 7 unknown #
loop $-1 $-1 $198 $121 #
plane-surface $-1 -62.62153996398817 10.231550961413852 1.7333734410607349 -0.68199836817093118 0 0.7313536940579346 0.7313536940579346 0 0.68199836817093118 forward_v I I I I #
loop $-1 $-1 $286 $77 #
coedge $-1 $196 $196 $197 $287 reversed $122 $-1 #
coedge $-1 $197 $197 $196 $287 forward $124 $-1 #
coedge $-1 $198 $198 $125 $199 forward $193 $-1 #
edge $-1 $288 0 $288 6.2831853071796004 $198 $289 forward 7 unknown #
face $-1 $290 $291 $30 $-1 $292 reversed single #
loop $-1 $-1 $293 $126 #
plane-surface $-1 -62.621539963988155 0 0 1 0 0 0 0 -1 forward_v I I I I #
coedge $-1 $294 $211 $295 $296 forward $127 $-1 #
coedge $-1 $297 $129 $294 $298 forward $81 $-1 #
coedge $-1 $129 $297 $299 $300 forward $81 $-1 #
coedge $-1 $214 $213 $129 $207 reversed $215 $-1 #
edge $-1 $301 -37.974449462765399 $302 37.974449462765399 $206 $303 forward 7 unknown #
coedge $-1 $131 $130 $304 $305 forward $51 $-1 #
coedge $-1 $306 $307 $130 $210 reversed $291 $-1 #
edge $-1 $217 -62.621539963988155 $308 62.621539963988155 $209 $309 forward 7 unknown #
coedge $-1 $203 $310 $131 $212 reversed $127 $-1 #
edge $-1 $311 -62.621539963988155 $216 62.621539963988155 $211 $312 forward 7 unknown #
coedge $-1 $206 $132 $310 $313 forward $215 $-1 #
coedge $-1 $132 $206 $306 $314 reversed $215 $-1 #
loop $-1 $-1 $213 $290 #
vertex $-1 $133 $315 #
vertex $-1 $133 $316 #
straight-curve $-1 62.621539963988155 0 9.8937307371327332 0 1 0 I I #
face $-1 $317 $231 $31 $-1 $318 reversed single #
loop $-1 $-1 $319 $134 #
plane-surface $-1 -61.121539963988155 -46.730287936909647 0 0 1 0 0 0 1 forward_v I I I I #
coedge $-1 $320 $321 $226 $322 forward $135 $-1 #
coedge $-1 $323 $137 $321 $324 forward $85 $-1 #
coedge $-1 $137 $323 $229 $325 forward $85 $-1 #
edge $-1 $232 59.621539963988155 $326 62.621539963988155 $137 $327 forward 7 unknown #
coedge $-1 $139 $138 $222 $322 reversed $54 $-1 #
coedge $-1 $328 $329 $138 $228 forward $330 $-1 #
edge $-1 $331 -62.621539963988155 $233 -59.621539963988155 $227 $332 forward 7 unknown #
coedge $-1 $333 $140 $224 $325 reversed $231 $-1 #
coedge $-1 $140 $333 $328 $334 reversed $231 $-1 #
loop $-1 $-1 $333 $219 #
vertex $-1 $225 $335 #
vertex $-1 $334 $336 #
straight-curve $-1 -59.621539963988155 -37.974449462765399 0 0 0 -1 I I #
face $-1 $-1 $247 $32 $-1 $337 forward single #
loop $-1 $-1 $338 $142 #
plane-surface $-1 -62.621539963988155 0 0 1 0 0 0 0 -1 forward_v I I I I #
coedge $-1 $339 $340 $341 $342 reversed $143 $-1 #
coedge $-1 $343 $145 $147 $245 forward $89 $-1 #
coedge $-1 $145 $343 $339 $344 forward $89 $-1 #
coedge $-1 $341 $148 $145 $242 forward $247 $-1 #
edge $-1 $249 -17.536121356481441 $345 -5.8288579077979783 $241 $346 forward 7 unknown #
coedge $-1 $347 $348 $146 $244 forward $236 $-1 #
edge $-1 $349 -44.931807859728934 $248 -36.771450563656948 $243 $350 forward 7 unknown #
edge $-1 $249 -11.965361908353927 $349 -1.9479204584885432e-014 $147 $351 forward 7 unknown #
coedge $-1 $148 $341 $347 $352 forward $247 $-1 #
loop $-1 $-1 $341 $235 #
vertex $-1 $244 $353 #
vertex $-1 $149 $354 #
straight-curve $-1 -74.018558049784758 -29.218610988621151 9.893730737132735 1 0 0 I I #
coedge $-1 $251 $251 $-1 $355 reversed $152 $-1 #
edge $-1 $356 0 $356 6.2831853071796004 $153 $357 forward 7 unknown #
vertex $-1 $156 $358 #
ellipse-curve $-1 -58.246084147780785 -26.87715829888446 5.8135520890967447 -0.68199836817093118 0 0.7313536940579346 0.7313536940579346 0 0.68199836817093118 1 I I #
coedge $-1 $255 $255 $-1 $359 reversed $159 $-1 #
edge $-1 $360 0 $360 6.2831853071796004 $160 $361 forward 7 unknown #
vertex $-1 $163 $362 #
ellipse-curve $-1 -58.246084147780785 -23.36497926427942 5.8135520890967447 -0.68199836817093118 0 0.7313536940579346 0.7313536940579346 0 0.68199836817093118 1 I I #
coedge $-1 $259 $259 $-1 $363 reversed $166 $-1 #
edge $-1 $364 0 $364 6.2831853071796004 $167 $365 forward 7 unknown #
vertex $-1 $170 $366 #
ellipse-curve $-1 -58.246084147780785 -19.852800229674383 5.8135520890967447 -0.68199836817093118 0 0.7313536940579346 0.7313536940579346 0 0.68199836817093118 1 I I #
face $-1 $-1 $367 $36 $-1 $368 reversed single #
loop $-1 $-1 $177 $171 #
plane-surface $-1 0 0 9.8937307371327332 0 0 1 1 0 0 forward_v I I I I #
coedge $-1 $369 $370 $371 $372 reversed $172 $-1 #
coedge $-1 $373 $174 $176 $273 forward $108 $-1 #
coedge $-1 $174 $373 $369 $374 forward $108 $-1 #
coedge $-1 $371 $177 $174 $270 forward $264 $-1 #
edge $-1 $276 -0.73785624363480373 $375 10.969407205048658 $269 $376 forward 7 unknown #
coedge $-1 $377 $378 $175 $272 forward $367 $-1 #
edge $-1 $379 -44.931807859728934 $275 -36.771450563656948 $271 $380 forward 7 unknown #
edge $-1 $276 -11.965361908353927 $379 -1.9479204584885432e-014 $176 $381 forward 7 unknown #
coedge $-1 $177 $371 $377 $382 forward $264 $-1 #
vertex $-1 $272 $383 #
vertex $-1 $178 $384 #
straight-curve $-1 -74.018558049784758 4.3779192370721223 9.893730737132735 1 0 0 I I #
coedge $-1 $278 $278 $-1 $385 reversed $181 $-1 #
edge $-1 $386 0 $386 6.2831853071796004 $182 $387 forward 7 unknown #
vertex $-1 $185 $388 #
ellipse-curve $-1 -58.246084147780785 6.7193719268088117 5.8135520890967447 -0.68199836817093118 0 0.7313536940579346 0.7313536940579346 0 0.68199836817093118 1 I I #
coedge $-1 $282 $282 $-1 $389 reversed $188 $-1 #
edge $-1 $390 0 $390 6.2831853071796004 $189 $391 forward 7 unknown #
vertex $-1 $192 $392 #
ellipse-curve $-1 -58.246084147780785 10.231550961413852 5.8135520890967447 -0.68199836817093118 0 0.7313536940579346 0.7313536940579346 0 0.68199836817093118 1 I I #
coedge $-1 $286 $286 $-1 $393 reversed $195 $-1 #
edge $-1 $394 0 $394 6.2831853071796004 $196 $395 forward 7 unknown #
vertex $-1 $199 $396 #
ellipse-curve $-1 -58.246084147780785 13.743729996018892 5.8135520890967447 -0.68199836817093118 0 0.7313536940579346 0.7313536940579346 0 0.68199836817093118 1 I I #
face $-1 $-1 $215 $30 $-1 $397 reversed single #
loop $-1 $-1 $306 $200 #
plane-surface $-1 0 37.974449462765399 0 0 -1 0 0 0 -1 forward_v I I I I #
coedge $-1 $398 $304 $307 $399 forward $201 $-1 #
coedge $-1 $310 $203 $204 $298 reversed $127 $-1 #
coedge $-1 $304 $398 $203 $296 reversed $201 $-1 #
edge $-1 $311 -9.8937307371327332 $400 9.8937307371327332 $295 $401 forward 7 unknown #
coedge $-1 $205 $204 $398 $402 forward $81 $-1 #
edge $-1 $302 -62.621539963988155 $400 62.621539963988155 $294 $403 forward 7 unknown #
coedge $-1 $307 $306 $205 $300 reversed $291 $-1 #
edge $-1 $404 -62.621539963988155 $301 62.621539963988155 $299 $405 forward 7 unknown #
vertex $-1 $207 $406 #
vertex $-1 $313 $407 #
straight-curve $-1 62.621539963988155 0 -9.8937307371327332 0 -1 0 I I #
coedge $-1 $293 $295 $208 $305 reversed $201 $-1 #
edge $-1 $308 -37.974449462765399 $311 37.974449462765399 $304 $408 forward 7 unknown #
coedge $-1 $299 $209 $214 $314 forward $291 $-1 #
coedge $-1 $209 $299 $293 $399 reversed $291 $-1 #
vertex $-1 $210 $409 #
straight-curve $-1 0 37.974449462765399 9.8937307371327332 -1 0 0 I I #
coedge $-1 $211 $294 $213 $313 reversed $127 $-1 #
vertex $-1 $305 $410 #
straight-curve $-1 0 -37.974449462765399 9.8937307371327332 1 0 0 I I #
edge $-1 $216 -9.8937307371327332 $302 9.8937307371327332 $213 $411 forward 7 unknown #
edge $-1 $217 -9.8937307371327332 $301 9.8937307371327332 $214 $412 forward 7 unknown #
point $-1 62.621539963988155 -37.974449462765399 9.8937307371327332 #
point $-1 62.621539963988155 37.974449462765399 9.8937307371327332 #
face $-1 $-1 $330 $31 $-1 $413 reversed single #
plane-surface $-1 -59.621539963988155 -42.352368699837527 0 -1 0 0 0 0 1 forward_v I I I I #
coedge $-1 $414 $415 $416 $417 forward $220 $-1 #
coedge $-1 $416 $222 $329 $418 reversed $135 $-1 #
coedge $-1 $222 $416 $223 $324 reversed $135 $-1 #
edge $-1 $326 -9.8937307371327332 $331 9.8937307371327332 $222 $419 forward 7 unknown #
coedge $-1 $224 $223 $415 $420 forward $85 $-1 #
edge $-1 $326 37.974449462765399 $421 46.730287936909647 $321 $422 forward 7 unknown #
edge $-1 $423 -4.3779192370721205 $232 4.3779192370721205 $229 $424 forward 7 unknown #
vertex $-1 $324 $425 #
straight-curve $-1 0 -37.974449462765399 9.8937307371327332 -1 0 0 I I #
coedge $-1 $426 $227 $230 $334 forward $330 $-1 #
coedge $-1 $227 $426 $320 $418 forward $330 $-1 #
loop $-1 $-1 $227 $317 #
vertex $-1 $322 $427 #
straight-curve $-1 0 -37.974449462765399 -9.8937307371327332 1 0 0 I I #
coedge $-1 $230 $229 $428 $429 forward $231 $-1 #
edge $-1 $233 -4.3779192370721205 $430 4.3779192370721205 $230 $431 forward 7 unknown #
point $-1 -59.621539963988155 -37.974449462765406 9.8937307371327332 #
point $-1 -59.621539963988155 -37.974449462765406 -9.8937307371327332 #
plane-surface $-1 0 0 9.8937307371327332 0 0 1 1 0 0 forward_v I I I I #
coedge $-1 $348 $347 $340 $432 forward $236 $-1 #
coedge $-1 $340 $238 $240 $344 reversed $143 $-1 #
coedge $-1 $238 $339 $338 $432 reversed $143 $-1 #
coedge $-1 $246 $241 $238 $342 forward $247 $-1 #
edge $-1 $345 -20.14792971821133 $433 -11.397018085796603 $341 $434 forward 7 unknown #
coedge $-1 $240 $239 $348 $435 reversed $89 $-1 #
edge $-1 $436 1.9479204584885432e-014 $345 11.965361908353927 $339 $437 forward 7 unknown #
vertex $-1 $242 $438 #
straight-curve $-1 -53.870628331573428 -11.68248963213971 9.8937307371327332 0 1 0 I I #
coedge $-1 $338 $243 $246 $352 reversed $236 $-1 #
coedge $-1 $243 $338 $343 $435 forward $236 $-1 #
vertex $-1 $244 $439 #
straight-curve $-1 -62.621539963988155 -29.218610988621151 46.665181300789683 0 0 1 I I #
straight-curve $-1 -62.62153996398817 -29.218610988621151 1.7333734410607349 -0.7313536940579346 0 -0.68199836817093118 I I #
edge $-1 $433 17.511347539937688 $248 29.218610988621151 $347 $440 forward 7 unknown #
point $-1 -62.621539963988155 -29.218610988621151 9.8937307371327332 #
point $-1 -53.870628331573428 -29.218610988621151 9.8937307371327332 #
edge $-1 $441 1 $441 0 $251 $-1 forward 7 unknown #
vertex $-1 $252 $442 #
ellipse-curve $-1 -57.073114390505438 -26.87715829888446 4.55569605154892 -0.68199836817093118 0 0.7313536940579346 0.7313536940579346 0 0.68199836817093118 1 I I #
point $-1 -57.514730453722841 -26.87715829888446 6.4955504572676581 #
edge $-1 $443 1 $443 0 $255 $-1 forward 7 unknown #
vertex $-1 $256 $444 #
ellipse-curve $-1 -57.073114390505438 -23.36497926427942 4.55569605154892 -0.68199836817093118 0 0.7313536940579346 0.7313536940579346 0 0.68199836817093118 1 I I #
point $-1 -57.514730453722841 -23.36497926427942 6.4955504572676581 #
edge $-1 $445 1 $445 0 $259 $-1 forward 7 unknown #
vertex $-1 $260 $446 #
ellipse-curve $-1 -57.073114390505438 -19.852800229674383 4.55569605154892 -0.68199836817093118 0 0.7313536940579346 0.7313536940579346 0 0.68199836817093118 1 I I #
point $-1 -57.514730453722841 -19.852800229674383 6.4955504572676581 #
loop $-1 $-1 $271 $263 #
plane-surface $-1 -62.621539963988155 0 0 1 0 0 0 0 -1 forward_v I I I I #
coedge $-1 $370 $266 $268 $374 reversed $172 $-1 #
coedge $-1 $266 $369 $447 $448 reversed $172 $-1 #
coedge $-1 $274 $269 $266 $372 forward $264 $-1 #
edge $-1 $375 -20.14792971821133 $449 -11.397018085796603 $371 $450 forward 7 unknown #
coedge $-1 $268 $267 $378 $451 reversed $108 $-1 #
edge $-1 $452 1.9479204584885432e-014 $375 11.965361908353927 $369 $453 forward 7 unknown #
vertex $-1 $270 $454 #
straight-curve $-1 -53.870628331573428 5.115775480706926 9.8937307371327332 0 1 0 I I #
coedge $-1 $447 $271 $274 $382 reversed $367 $-1 #
coedge $-1 $271 $447 $373 $451 forward $367 $-1 #
vertex $-1 $272 $455 #
straight-curve $-1 -62.621539963988155 4.3779192370721223 46.665181300789683 0 0 1 I I #
straight-curve $-1 -62.62153996398817 4.3779192370721223 1.7333734410607349 -0.7313536940579346 0 -0.68199836817093118 I I #
edge $-1 $449 -16.085182685755584 $275 -4.3779192370721223 $377 $456 forward 7 unknown #
point $-1 -62.621539963988155 4.3779192370721223 9.8937307371327332 #
point $-1 -53.870628331573428 4.3779192370721223 9.8937307371327332 #
edge $-1 $457 1 $457 0 $278 $-1 forward 7 unknown #
vertex $-1 $279 $458 #
ellipse-curve $-1 -57.073114390505438 6.7193719268088117 4.55569605154892 -0.68199836817093118 0 0.7313536940579346 0.7313536940579346 0 0.68199836817093118 1 I I #
point $-1 -57.514730453722841 6.7193719268088117 6.4955504572676581 #
edge $-1 $459 1 $459 0 $282 $-1 forward 7 unknown #
vertex $-1 $283 $460 #
ellipse-curve $-1 -57.073114390505438 10.231550961413852 4.55569605154892 -0.68199836817093118 0 0.7313536940579346 0.7313536940579346 0 0.68199836817093118 1 I I #
point $-1 -57.514730453722841 10.231550961413852 6.4955504572676581 #
edge $-1 $461 1 $461 0 $286 $-1 forward 7 unknown #
vertex $-1 $287 $462 #
ellipse-curve $-1 -57.073114390505438 13.743729996018892 4.55569605154892 -0.68199836817093118 0 0.7313536940579346 0.7313536940579346 0 0.68199836817093118 1 I I #
point $-1 -57.514730453722841 13.743729996018892 6.4955504572676581 #
plane-surface $-1 62.621539963988155 0 0 -1 0 0 0 0 1 forward_v I I I I #
coedge $-1 $295 $293 $297 $402 reversed $201 $-1 #
edge $-1 $308 -9.8937307371327332 $404 9.8937307371327332 $307 $463 forward 7 unknown #
vertex $-1 $402 $464 #
straight-curve $-1 -62.621539963988155 -37.974449462765399 0 0 0 -1 I I #
edge $-1 $400 -37.974449462765399 $404 37.974449462765399 $398 $465 forward 7 unknown #
straight-curve $-1 0 -37.974449462765399 -9.8937307371327332 -1 0 0 I I #
vertex $-1 $300 $466 #
straight-curve $-1 0 37.974449462765399 -9.8937307371327332 1 0 0 I I #
point $-1 62.621539963988155 37.974449462765399 -9.8937307371327332 #
point $-1 62.621539963988155 -37.974449462765399 -9.8937307371327332 #
straight-curve $-1 -62.621539963988155 0 9.8937307371327332 0 -1 0 I I #
point $-1 -62.621539963988155 37.974449462765399 9.8937307371327332 #
point $-1 -62.621539963988155 -37.974449462765399 9.8937307371327332 #
straight-curve $-1 62.621539963988155 -37.974449462765399 0 0 0 -1 I I #
straight-curve $-1 62.621539963988155 37.974449462765399 0 0 0 -1 I I #
plane-surface $-1 0 0 -9.8937307371327332 0 0 1 1 0 0 forward_v I I I I #
coedge $-1 $428 $319 $426 $467 reversed $220 $-1 #
coedge $-1 $319 $428 $323 $420 reversed $220 $-1 #
coedge $-1 $321 $320 $319 $417 reversed $135 $-1 #
edge $-1 $421 -9.8937307371327332 $468 9.8937307371327332 $416 $469 forward 7 unknown #
edge $-1 $468 -46.730287936909647 $331 -37.974449462765399 $320 $470 forward 7 unknown #
straight-curve $-1 -62.621539963988155 -37.974449462765399 0 0 0 -1 I I #
edge $-1 $421 -1.5 $423 1.5 $415 $471 forward 7 unknown #
vertex $-1 $324 $472 #
straight-curve $-1 -62.621539963988155 0 9.8937307371327332 0 -1 0 I I #
vertex $-1 $325 $473 #
straight-curve $-1 -59.621539963988155 -42.352368699837527 9.8937307371327332 0 1 0 I I #
point $-1 -62.621539963988155 -37.974449462765399 9.8937307371327332 #
coedge $-1 $329 $328 $414 $467 forward $330 $-1 #
point $-1 -62.621539963988155 -37.974449462765399 -9.8937307371327332 #
coedge $-1 $415 $414 $333 $429 reversed $220 $-1 #
edge $-1 $423 -9.8937307371327332 $430 9.8937307371327332 $333 $474 forward 7 unknown #
vertex $-1 $429 $475 #
straight-curve $-1 -59.621539963988155 -42.352368699837527 -9.8937307371327332 0 -1 0 I I #
edge $-1 $433 36.771450563656948 $436 44.931807859728934 $338 $476 forward 7 unknown #
vertex $-1 $352 $477 #
straight-curve $-1 -74.018558049784758 -17.511347539937688 9.893730737132735 -1 0 0 I I #
edge $-1 $436 5.8288579077979783 $349 17.536121356481441 $348 $478 forward 7 unknown #
vertex $-1 $435 $479 #
straight-curve $-1 -62.62153996398817 -17.511347539937688 1.7333734410607349 0.7313536940579346 0 0.68199836817093118 I I #
point $-1 -53.870628331573428 -17.511347539937688 9.8937307371327332 #
point $-1 -62.621539963988155 -29.218610988621151 1.7333734410607482 #
straight-curve $-1 -62.621539963988155 0 9.8937307371327332 0 -1 0 I I #
vertex $-1 $355 $480 #
point $-1 -56.341760696447501 -26.87715829888446 5.2376944197198512 #
vertex $-1 $359 $481 #
point $-1 -56.341760696447501 -23.36497926427942 5.2376944197198512 #
vertex $-1 $363 $482 #
point $-1 -56.341760696447501 -19.852800229674383 5.2376944197198512 #
coedge $-1 $378 $377 $370 $448 forward $367 $-1 #
edge $-1 $449 36.771450563656948 $452 44.931807859728934 $447 $483 forward 7 unknown #
vertex $-1 $382 $484 #
straight-curve $-1 -74.018558049784758 16.085182685755584 9.893730737132735 -1 0 0 I I #
edge $-1 $452 -10.969407205048658 $379 0.73785624363480373 $378 $485 forward 7 unknown #
vertex $-1 $451 $486 #
straight-curve $-1 -62.62153996398817 16.085182685755584 1.7333734410607349 0.7313536940579346 0 0.68199836817093118 I I #
point $-1 -53.870628331573428 16.085182685755584 9.8937307371327332 #
point $-1 -62.621539963988155 4.3779192370721223 1.7333734410607482 #
straight-curve $-1 -62.621539963988155 0 9.8937307371327332 0 -1 0 I I #
vertex $-1 $385 $487 #
point $-1 -56.341760696447501 6.7193719268088117 5.2376944197198512 #
vertex $-1 $389 $488 #
point $-1 -56.341760696447501 10.231550961413852 5.2376944197198512 #
vertex $-1 $393 $489 #
point $-1 -56.341760696447501 13.743729996018892 5.2376944197198512 #
straight-curve $-1 -62.621539963988155 37.974449462765399 0 0 0 -1 I I #
point $-1 -62.621539963988155 -37.974449462765399 -9.8937307371327332 #
straight-curve $-1 -62.621539963988155 0 -9.8937307371327332 0 1 0 I I #
point $-1 -62.621539963988155 37.974449462765399 -9.8937307371327332 #
edge $-1 $430 -1.5 $468 1.5 $414 $490 forward 7 unknown #
vertex $-1 $418 $491 #
straight-curve $-1 -62.621539963988155 -46.730287936909647 0 0 0 -1 I I #
straight-curve $-1 -62.621539963988155 0 -9.8937307371327332 0 1 0 I I #
straight-curve $-1 -61.121539963988155 -46.730287936909647 9.8937307371327332 1 0 0 I I #
point $-1 -62.621539963988155 -46.730287936909647 9.8937307371327332 #
point $-1 -59.621539963988155 -46.730287936909647 9.8937307371327332 #
straight-curve $-1 -59.621539963988155 -46.730287936909647 0 0 0 -1 I I #
point $-1 -59.621539963988155 -46.730287936909647 -9.8937307371327332 #
straight-curve $-1 -62.621539963988155 -17.511347539937688 46.665181300789683 0 0 -1 I I #
point $-1 -62.621539963988155 -17.511347539937688 9.8937307371327332 #
straight-curve $-1 -62.621539963988155 -11.68248963213971 1.7333734410607446 0 -1 0 I I #
point $-1 -62.621539963988155 -17.511347539937688 1.7333734410607482 #
point $-1 -56.391116022334501 -26.87715829888446 3.8243423574909849 #
point $-1 -56.391116022334501 -23.36497926427942 3.8243423574909849 #
point $-1 -56.391116022334501 -19.852800229674383 3.8243423574909849 #
straight-curve $-1 -62.621539963988155 16.085182685755584 46.665181300789683 0 0 -1 I I #
point $-1 -62.621539963988155 16.085182685755584 9.8937307371327332 #
straight-curve $-1 -62.621539963988155 5.115775480706926 1.7333734410607446 0 -1 0 I I #
point $-1 -62.621539963988155 16.085182685755584 1.7333734410607482 #
point $-1 -56.391116022334501 6.7193719268088117 3.8243423574909849 #
point $-1 -56.391116022334501 10.231550961413852 3.8243423574909849 #
point $-1 -56.391116022334501 13.743729996018892 3.8243423574909849 #
straight-curve $-1 -61.121539963988155 -46.730287936909647 -9.8937307371327332 -1 0 0 I I #
point $-1 -62.621539963988155 -46.730287936909647 -9.8937307371327332 #
End-of-ACIS-data 