500 0 11 0           
7 Unknown 11 ACIS 5.0 NT 24 Fri Mar 26 01:20:33 1999 
-1 9.9999999999999995e-007 1e-010 
body $-1 $11 $-1 $12 #
body $-1 $13 $-1 $14 #
body $-1 $15 $-1 $16 #
body $-1 $17 $-1 $18 #
body $-1 $19 $-1 $20 #
body $-1 $21 $-1 $22 #
body $-1 $23 $-1 $24 #
body $-1 $25 $-1 $26 #
body $-1 $27 $-1 $28 #
body $-1 $29 $-1 $30 #
body $-1 $31 $-1 $32 #
lump $-1 $-1 $33 $0 #
transform $-1 1 0 0 0 1 0 0 0 1 40.845973082674639 23.45237231926987 9.8875436457956347 1 rotate no_reflect no_shear #
lump $-1 $-1 $34 $1 #
transform $-1 1 0 0 0 1 0 0 0 1 40.845973082674639 23.45237231926987 9.8875436457956347 1 rotate no_reflect no_shear #
lump $-1 $-1 $35 $2 #
transform $-1 1 0 0 0 1 0 0 0 1 40.845973082674639 23.45237231926987 9.8875436457956347 1 rotate no_reflect no_shear #
lump $-1 $-1 $36 $3 #
transform $-1 1 0 0 0 1 0 0 0 1 40.845973082674639 23.45237231926987 9.8875436457956347 1 rotate no_reflect no_shear #
lump $-1 $-1 $37 $4 #
transform $-1 1 0 0 0 1 0 0 0 1 40.845973082674639 23.45237231926987 9.8875436457956347 1 rotate no_reflect no_shear #
lump $-1 $-1 $38 $5 #
transform $-1 1 0 0 0 1 0 0 0 1 40.845973082674639 23.45237231926987 9.8875436457956347 1 rotate no_reflect no_shear #
lump $-1 $-1 $39 $6 #
transform $-1 1 0 0 0 1 0 0 0 1 40.845973082674639 23.45237231926987 9.8875436457956347 1 rotate no_reflect no_shear #
lump $-1 $-1 $40 $7 #
transform $-1 1 0 0 0 1 0 0 0 1 40.845973082674639 23.45237231926987 9.8875436457956347 1 rotate no_reflect no_shear #
lump $-1 $-1 $41 $8 #
transform $-1 1 0 0 0 1 0 0 0 1 40.845973082674639 23.45237231926987 9.8875436457956347 1 rotate no_reflect no_shear #
lump $-1 $-1 $42 $9 #
transform $-1 1 0 0 0 1 0 0 0 1 40.845973082674639 23.45237231926987 9.8875436457956347 1 rotate no_reflect no_shear #
lump $-1 $-1 $43 $10 #
transform $-1 1 0 0 0 1 0 0 0 1 40.845973082674639 23.45237231926987 9.8875436457956347 1 rotate no_reflect no_shear #
shell $-1 $-1 $-1 $44 $-1 $11 #
shell $-1 $-1 $-1 $45 $-1 $13 #
shell $-1 $-1 $-1 $46 $-1 $15 #
shell $-1 $-1 $-1 $47 $-1 $17 #
shell $-1 $-1 $-1 $48 $-1 $19 #
shell $-1 $-1 $-1 $49 $-1 $21 #
shell $-1 $-1 $-1 $50 $-1 $23 #
shell $-1 $-1 $-1 $51 $-1 $25 #
shell $-1 $-1 $-1 $52 $-1 $27 #
shell $-1 $-1 $-1 $53 $-1 $29 #
shell $-1 $-1 $-1 $54 $-1 $31 #
face $-1 $55 $56 $33 $-1 $57 forward single #
face $-1 $58 $59 $34 $-1 $60 reversed single #
face $-1 $61 $62 $35 $-1 $63 forward single #
face $-1 $64 $65 $36 $-1 $66 forward single #
face $-1 $67 $68 $37 $-1 $69 reversed single #
face $-1 $70 $71 $38 $-1 $72 forward single #
face $-1 $73 $74 $39 $-1 $75 forward single #
face $-1 $76 $77 $40 $-1 $78 reversed single #
face $-1 $79 $80 $41 $-1 $81 forward single #
face $-1 $82 $83 $42 $-1 $84 forward single #
face $-1 $85 $86 $43 $-1 $87 forward single #
face $-1 $88 $89 $33 $-1 $90 reversed single #
loop $-1 $-1 $91 $44 #
plane-surface $-1 0 0 9.8875436457956347 0 0 1 1 0 0 forward_v I I I I #
face $-1 $92 $93 $34 $-1 $94 reversed single #
loop $-1 $-1 $95 $45 #
plane-surface $-1 -25.244199222957498 -20.414101047290131 49.724336234167623 0.5877852598018023 0 0.80901698891910034 0.80901698891910034 0 -0.5877852598018023 forward_v I I I I #
face $-1 $96 $97 $35 $-1 $98 forward single #
loop $-1 $99 $100 $46 #
cone-surface $-1 34.806172591202127 -21.716217306710021 5.2329151879004225 -0.5877852598018023 0 -0.80901698891910034 0.40450849445955017 0 -0.29389262990090115 1 I I 0 1 0.5 forward I I I I #
face $-1 $101 $102 $36 $-1 $103 forward single #
loop $-1 $104 $105 $47 #
cone-surface $-1 34.806172591202127 -19.111984787870245 5.2329151879004225 -0.5877852598018023 0 -0.80901698891910034 0.40450849445955017 0 -0.29389262990090115 1 I I 0 1 0.5 forward I I I I #
face $-1 $106 $107 $37 $-1 $108 reversed single #
loop $-1 $-1 $109 $48 #
plane-surface $-1 22.773122577557182 17.375829775310393 115.81450853979976 0 1 0 0.5877852598018023 0 0.80901698891910034 forward_v I I I I #
face $-1 $110 $111 $38 $-1 $112 forward single #
loop $-1 $113 $114 $49 #
cone-surface $-1 34.806172591202127 19.111984787870242 5.2329151879004225 -0.5877852598018023 0 -0.80901698891910034 0.40450849445955017 0 -0.29389262990090115 1 I I 0 1 0.5 forward I I I I #
face $-1 $115 $116 $39 $-1 $117 forward single #
loop $-1 $118 $119 $50 #
cone-surface $-1 34.806172591202127 21.716217306710021 5.2329151879004225 -0.5877852598018023 0 -0.80901698891910034 0.40450849445955017 0 -0.29389262990090115 1 I I 0 1 0.5 forward I I I I #
face $-1 $120 $121 $40 $-1 $122 reversed single #
loop $-1 $-1 $123 $51 #
plane-surface $-1 -110.12467314689033 11.420543204942135 47.004536158848396 0 1 0 -0.84804810408105047 0 0.52991925155115449 forward_v I I I I #
face $-1 $124 $125 $41 $-1 $126 forward single #
loop $-1 $127 $128 $52 #
cone-surface $-1 -38.441534765877719 13.82690902780768 6.5037004449883273 0.84804810408105047 0 -0.52991925155115449 0.52991925155115449 0 0.84804810408105047 1 I I 0 1 1 forward I I I I #
face $-1 $129 $130 $42 $-1 $131 forward single #
loop $-1 $132 $133 $53 #
cone-surface $-1 -38.441534765877719 17.436457762106002 6.5037004449883273 0.84804810408105047 0 -0.52991925155115449 0.52991925155115449 0 0.84804810408105047 1 I I 0 1 1 forward I I I I #
face $-1 $134 $135 $43 $-1 $136 forward single #
loop $-1 $137 $138 $54 #
cone-surface $-1 -38.441534765877719 21.046006496404324 6.5037004449883273 0.84804810408105047 0 -0.52991925155115449 0.52991925155115449 0 0.84804810408105047 1 I I 0 1 1 forward I I I I #
face $-1 $139 $140 $33 $-1 $141 reversed single #
loop $-1 $-1 $142 $55 #
plane-surface $-1 0 0 -9.8875436457956347 0 0 1 1 0 0 forward_v I I I I #
coedge $-1 $143 $144 $145 $146 forward $56 $-1 #
face $-1 $147 $148 $34 $-1 $149 forward single #
loop $-1 $-1 $150 $58 #
plane-surface $-1 22.773122577557182 -17.375829775310393 115.81450853979976 0 -1 0 -0.5877852598018023 0 -0.80901698891910034 forward_v I I I I #
coedge $-1 $151 $152 $153 $154 reversed $59 $-1 #
face $-1 $-1 $155 $35 $-1 $156 forward single #
loop $-1 $157 $158 $61 #
cone-surface $-1 34.249191928629081 -21.716217306710021 4.4662970888467761 -0.5877852598018023 0 -0.80901698891910034 0.20225424722977509 0 -0.14694631495045057 1 I I -0.70710678118654746 0.70710678118654746 0.25 forward I I I I #
loop $-1 $-1 $159 $46 #
coedge $-1 $100 $100 $160 $161 reversed $62 $-1 #
face $-1 $-1 $162 $36 $-1 $163 forward single #
loop $-1 $164 $165 $64 #
cone-surface $-1 34.249191928629081 -19.111984787870245 4.4662970888467761 -0.5877852598018023 0 -0.80901698891910034 0.20225424722977509 0 -0.14694631495045057 1 I I -0.70710678118654746 0.70710678118654746 0.25 forward I I I I #
loop $-1 $-1 $166 $47 #
coedge $-1 $105 $105 $167 $168 reversed $65 $-1 #
face $-1 $169 $170 $37 $-1 $171 reversed single #
loop $-1 $-1 $172 $67 #
plane-surface $-1 -25.244199222957498 20.414101047290131 49.724336234167623 0.5877852598018023 0 0.80901698891910034 0.80901698891910034 0 -0.5877852598018023 forward_v I I I I #
coedge $-1 $173 $174 $175 $176 reversed $68 $-1 #
face $-1 $-1 $177 $38 $-1 $178 forward single #
loop $-1 $179 $180 $70 #
cone-surface $-1 34.249191928629081 19.111984787870242 4.4662970888467761 -0.5877852598018023 0 -0.80901698891910034 0.20225424722977509 0 -0.14694631495045057 1 I I -0.70710678118654746 0.70710678118654746 0.25 forward I I I I #
loop $-1 $-1 $181 $49 #
coedge $-1 $114 $114 $182 $183 reversed $71 $-1 #
face $-1 $-1 $184 $39 $-1 $185 forward single #
loop $-1 $186 $187 $73 #
cone-surface $-1 34.249191928629081 21.716217306710021 4.4662970888467761 -0.5877852598018023 0 -0.80901698891910034 0.20225424722977509 0 -0.14694631495045057 1 I I -0.70710678118654746 0.70710678118654746 0.25 forward I I I I #
loop $-1 $-1 $188 $50 #
coedge $-1 $119 $119 $189 $190 reversed $74 $-1 #
face $-1 $191 $192 $40 $-1 $193 reversed single #
loop $-1 $-1 $194 $76 #
plane-surface $-1 -40.845973082674632 17.436457762106002 3.7144011891492994 -0.84804810408105047 0 0.52991925155115449 0.52991925155115449 0 0.84804810408105047 forward_v I I I I #
coedge $-1 $195 $196 $197 $198 reversed $77 $-1 #
face $-1 $-1 $199 $41 $-1 $200 forward single #
loop $-1 $201 $202 $79 #
cone-surface $-1 -37.541776095923872 13.82690902780768 5.9414688467286183 0.84804810408105047 0 -0.52991925155115449 0.26495962577557725 0 0.42402405204052523 1 I I -0.70710678118654746 0.70710678118654746 0.5 forward I I I I #
loop $-1 $-1 $203 $52 #
coedge $-1 $128 $128 $204 $205 reversed $80 $-1 #
face $-1 $-1 $206 $42 $-1 $207 forward single #
loop $-1 $208 $209 $82 #
cone-surface $-1 -37.541776095923872 17.436457762106002 5.9414688467286183 0.84804810408105047 0 -0.52991925155115449 0.26495962577557725 0 0.42402405204052523 1 I I -0.70710678118654746 0.70710678118654746 0.5 forward I I I I #
loop $-1 $-1 $210 $53 #
coedge $-1 $133 $133 $211 $212 reversed $83 $-1 #
face $-1 $-1 $213 $43 $-1 $214 forward single #
loop $-1 $215 $216 $85 #
cone-surface $-1 -37.541776095923872 21.046006496404324 5.9414688467286183 0.84804810408105047 0 -0.52991925155115449 0.26495962577557725 0 0.42402405204052523 1 I I -0.70710678118654746 0.70710678118654746 0.5 forward I I I I #
loop $-1 $-1 $217 $54 #
coedge $-1 $138 $138 $218 $219 reversed $86 $-1 #
face $-1 $220 $221 $33 $-1 $222 reversed single #
loop $-1 $-1 $223 $88 #
plane-surface $-1 0 -23.45237231926987 0 0 1 0 0 0 1 forward_v I I I I #
coedge $-1 $224 $225 $226 $227 forward $89 $-1 #
coedge $-1 $228 $91 $229 $230 forward $56 $-1 #
coedge $-1 $91 $228 $231 $232 forward $56 $-1 #
coedge $-1 $233 $234 $91 $146 reversed $235 $-1 #
edge $-1 $236 -23.45237231926987 $237 23.45237231926987 $145 $238 forward 7 unknown #
face $-1 $239 $240 $34 $-1 $241 reversed single #
loop $-1 $-1 $242 $92 #
plane-surface $-1 0 0 9.8875436457956347 0 0 1 1 0 0 forward_v I I I I #
coedge $-1 $243 $244 $245 $246 reversed $93 $-1 #
coedge $-1 $247 $95 $248 $249 reversed $59 $-1 #
coedge $-1 $95 $247 $243 $250 forward $59 $-1 #
coedge $-1 $245 $251 $95 $154 forward $252 $-1 #
edge $-1 $253 -13.245321795624804 $254 -7.1687792516653275 $153 $255 forward 7 unknown #
loop $-1 $-1 $160 $96 #
plane-surface $-1 -25.244199222957498 -20.414101047290131 49.724336234167623 0.5877852598018023 0 0.80901698891910034 0.80901698891910034 0 -0.5877852598018023 forward_v I I I I #
loop $-1 $-1 $256 $61 #
coedge $-1 $158 $158 $159 $257 reversed $97 $-1 #
coedge $-1 $159 $159 $158 $257 forward $99 $-1 #
coedge $-1 $160 $160 $100 $161 forward $155 $-1 #
edge $-1 $258 0 $258 6.2831853071796004 $160 $259 forward 7 unknown #
loop $-1 $-1 $167 $101 #
plane-surface $-1 -25.244199222957498 -20.414101047290131 49.724336234167623 0.5877852598018023 0 0.80901698891910034 0.80901698891910034 0 -0.5877852598018023 forward_v I I I I #
loop $-1 $-1 $260 $64 #
coedge $-1 $165 $165 $166 $261 reversed $102 $-1 #
coedge $-1 $166 $166 $165 $261 forward $104 $-1 #
coedge $-1 $167 $167 $105 $168 forward $162 $-1 #
edge $-1 $262 0 $262 6.2831853071796004 $167 $263 forward 7 unknown #
face $-1 $264 $265 $37 $-1 $266 forward single #
loop $-1 $-1 $267 $106 #
plane-surface $-1 0 23.45237231926987 0 0 -1 0 0 0 -1 forward_v I I I I #
coedge $-1 $268 $269 $270 $271 reversed $107 $-1 #
coedge $-1 $174 $109 $272 $273 reversed $68 $-1 #
coedge $-1 $109 $173 $268 $274 reversed $68 $-1 #
coedge $-1 $270 $275 $109 $176 forward $276 $-1 #
edge $-1 $277 48.019710624104249 $278 56.200239836246944 $175 $279 forward 7 unknown #
loop $-1 $-1 $182 $110 #
plane-surface $-1 -25.244199222957498 20.414101047290131 49.724336234167623 0.5877852598018023 0 0.80901698891910034 0.80901698891910034 0 -0.5877852598018023 forward_v I I I I #
loop $-1 $-1 $280 $70 #
coedge $-1 $180 $180 $181 $281 reversed $111 $-1 #
coedge $-1 $181 $181 $180 $281 forward $113 $-1 #
coedge $-1 $182 $182 $114 $183 forward $177 $-1 #
edge $-1 $282 0 $282 6.2831853071796004 $182 $283 forward 7 unknown #
loop $-1 $-1 $189 $115 #
plane-surface $-1 -25.244199222957498 20.414101047290131 49.724336234167623 0.5877852598018023 0 0.80901698891910034 0.80901698891910034 0 -0.5877852598018023 forward_v I I I I #
loop $-1 $-1 $284 $73 #
coedge $-1 $187 $187 $188 $285 reversed $116 $-1 #
coedge $-1 $188 $188 $187 $285 forward $118 $-1 #
coedge $-1 $189 $189 $119 $190 forward $184 $-1 #
edge $-1 $286 0 $286 6.2831853071796004 $189 $287 forward 7 unknown #
face $-1 $288 $289 $40 $-1 $290 reversed single #
loop $-1 $-1 $291 $120 #
plane-surface $-1 0 23.45237231926987 0 0 -1 0 0 0 -1 forward_v I I I I #
coedge $-1 $292 $293 $294 $295 reversed $121 $-1 #
coedge $-1 $196 $123 $296 $297 reversed $77 $-1 #
coedge $-1 $123 $195 $292 $298 reversed $77 $-1 #
coedge $-1 $294 $299 $123 $198 forward $300 $-1 #
edge $-1 $301 14.216363490770526 $302 18.073770888537723 $197 $303 forward 7 unknown #
loop $-1 $-1 $204 $124 #
plane-surface $-1 -40.845973082674632 17.436457762106002 3.7144011891492994 -0.84804810408105047 0 0.52991925155115449 0.52991925155115449 0 0.84804810408105047 forward_v I I I I #
loop $-1 $-1 $304 $79 #
coedge $-1 $202 $202 $203 $305 reversed $125 $-1 #
coedge $-1 $203 $203 $202 $305 forward $127 $-1 #
coedge $-1 $204 $204 $128 $205 forward $199 $-1 #
edge $-1 $306 0 $306 6.2831853071796004 $204 $307 forward 7 unknown #
loop $-1 $-1 $211 $129 #
plane-surface $-1 -40.845973082674632 17.436457762106002 3.7144011891492994 -0.84804810408105047 0 0.52991925155115449 0.52991925155115449 0 0.84804810408105047 forward_v I I I I #
loop $-1 $-1 $308 $82 #
coedge $-1 $209 $209 $210 $309 reversed $130 $-1 #
coedge $-1 $210 $210 $209 $309 forward $132 $-1 #
coedge $-1 $211 $211 $133 $212 forward $206 $-1 #
edge $-1 $310 0 $310 6.2831853071796004 $211 $311 forward 7 unknown #
loop $-1 $-1 $218 $134 #
plane-surface $-1 -40.845973082674632 17.436457762106002 3.7144011891492994 -0.84804810408105047 0 0.52991925155115449 0.52991925155115449 0 0.84804810408105047 forward_v I I I I #
loop $-1 $-1 $312 $85 #
coedge $-1 $216 $216 $217 $313 reversed $135 $-1 #
coedge $-1 $217 $217 $216 $313 forward $137 $-1 #
coedge $-1 $218 $218 $138 $219 forward $213 $-1 #
edge $-1 $314 0 $314 6.2831853071796004 $218 $315 forward 7 unknown #
face $-1 $316 $317 $33 $-1 $318 reversed single #
loop $-1 $-1 $319 $139 #
plane-surface $-1 -40.845973082674639 0 0 1 0 0 0 0 -1 forward_v I I I I #
coedge $-1 $320 $231 $321 $322 forward $140 $-1 #
coedge $-1 $323 $142 $320 $324 forward $89 $-1 #
coedge $-1 $142 $323 $325 $326 forward $89 $-1 #
coedge $-1 $234 $233 $142 $227 reversed $235 $-1 #
edge $-1 $327 -23.45237231926987 $328 23.45237231926987 $226 $329 forward 7 unknown #
coedge $-1 $144 $143 $330 $331 forward $56 $-1 #
coedge $-1 $332 $333 $143 $230 reversed $317 $-1 #
edge $-1 $237 -40.845973082674639 $334 40.845973082674639 $229 $335 forward 7 unknown #
coedge $-1 $223 $336 $144 $232 reversed $140 $-1 #
edge $-1 $337 -40.845973082674639 $236 40.845973082674639 $231 $338 forward 7 unknown #
coedge $-1 $226 $145 $336 $339 forward $235 $-1 #
coedge $-1 $145 $226 $332 $340 reversed $235 $-1 #
loop $-1 $-1 $233 $316 #
vertex $-1 $146 $341 #
vertex $-1 $146 $342 #
straight-curve $-1 40.845973082674639 0 9.8875436457956347 0 1 0 I I #
face $-1 $-1 $252 $34 $-1 $343 reversed single #
loop $-1 $-1 $248 $147 #
plane-surface $-1 0 -23.45237231926987 0 0 1 0 0 0 1 forward_v I I I I #
coedge $-1 $344 $345 $244 $346 forward $148 $-1 #
coedge $-1 $244 $150 $152 $250 reversed $93 $-1 #
coedge $-1 $150 $243 $242 $346 reversed $93 $-1 #
coedge $-1 $347 $153 $150 $246 forward $252 $-1 #
edge $-1 $254 -56.200239836246944 $348 -48.019710624104249 $245 $349 forward 7 unknown #
coedge $-1 $152 $151 $344 $350 reversed $59 $-1 #
coedge $-1 $351 $352 $151 $249 forward $240 $-1 #
edge $-1 $353 42.949289801589785 $253 56.866837197897617 $248 $354 forward 7 unknown #
edge $-1 $355 67.774398769041468 $254 81.691946165349293 $243 $356 forward 7 unknown #
coedge $-1 $153 $347 $351 $357 forward $252 $-1 #
loop $-1 $-1 $245 $239 #
vertex $-1 $249 $358 #
vertex $-1 $154 $359 #
straight-curve $-1 40.845973082674639 -10.207050523645066 1.7070144336529331 0 1 0 I I #
coedge $-1 $256 $256 $-1 $360 reversed $157 $-1 #
edge $-1 $361 0 $361 6.2831853071796004 $158 $362 forward 7 unknown #
vertex $-1 $161 $363 #
ellipse-curve $-1 35.216206938824719 -21.716217306710021 5.7972790397242893 0.5877852598018023 0 0.80901698891910034 0.40450849445955017 0 -0.29389262990090115 1 I I #
coedge $-1 $260 $260 $-1 $364 reversed $164 $-1 #
edge $-1 $365 0 $365 6.2831853071796004 $165 $366 forward 7 unknown #
vertex $-1 $168 $367 #
ellipse-curve $-1 35.216206938824719 -19.111984787870245 5.7972790397242893 0.5877852598018023 0 0.80901698891910034 0.40450849445955017 0 -0.29389262990090115 1 I I #
face $-1 $-1 $276 $37 $-1 $368 reversed single #
loop $-1 $-1 $369 $169 #
plane-surface $-1 0 0 9.8875436457956347 0 0 1 1 0 0 forward_v I I I I #
coedge $-1 $370 $371 $269 $372 forward $170 $-1 #
coedge $-1 $373 $172 $174 $274 forward $107 $-1 #
coedge $-1 $172 $373 $267 $372 reversed $107 $-1 #
coedge $-1 $374 $175 $172 $271 forward $276 $-1 #
edge $-1 $278 7.1687792516653275 $375 13.245321795624804 $270 $376 forward 7 unknown #
coedge $-1 $377 $369 $173 $273 forward $265 $-1 #
edge $-1 $378 18.199879506196222 $277 29.459411793896049 $272 $379 forward 7 unknown #
edge $-1 $278 -81.691946165349293 $378 -67.774398769041468 $174 $380 forward 7 unknown #
coedge $-1 $175 $374 $377 $381 reversed $276 $-1 #
loop $-1 $-1 $270 $264 #
vertex $-1 $381 $382 #
vertex $-1 $176 $383 #
straight-curve $-1 40.845973082674639 17.375829775310393 57.90725426989988 0 0 -1 I I #
coedge $-1 $280 $280 $-1 $384 reversed $179 $-1 #
edge $-1 $385 0 $385 6.2831853071796004 $180 $386 forward 7 unknown #
vertex $-1 $183 $387 #
ellipse-curve $-1 35.216206938824719 19.111984787870242 5.7972790397242893 0.5877852598018023 0 0.80901698891910034 0.40450849445955017 0 -0.29389262990090115 1 I I #
coedge $-1 $284 $284 $-1 $388 reversed $186 $-1 #
edge $-1 $389 0 $389 6.2831853071796004 $187 $390 forward 7 unknown #
vertex $-1 $190 $391 #
ellipse-curve $-1 35.216206938824719 21.716217306710021 5.7972790397242893 0.5877852598018023 0 0.80901698891910034 0.40450849445955017 0 -0.29389262990090115 1 I I #
face $-1 $-1 $300 $40 $-1 $392 forward single #
loop $-1 $-1 $393 $191 #
plane-surface $-1 -40.845973082674639 0 0 1 0 0 0 0 -1 forward_v I I I I #
coedge $-1 $394 $395 $293 $396 forward $192 $-1 #
coedge $-1 $397 $194 $196 $298 forward $121 $-1 #
coedge $-1 $194 $397 $291 $396 reversed $121 $-1 #
coedge $-1 $398 $197 $194 $295 forward $300 $-1 #
edge $-1 $302 2.7023143238891336 $399 14.734143438216869 $294 $400 forward 7 unknown #
coedge $-1 $401 $393 $195 $297 forward $289 $-1 #
edge $-1 $402 -19.787866890274909 $301 -13.614724433628563 $296 $403 forward 7 unknown #
edge $-1 $302 -7.2792361977338382 $402 1.3557137071152151e-014 $196 $404 forward 7 unknown #
coedge $-1 $197 $398 $401 $405 forward $300 $-1 #
loop $-1 $-1 $294 $288 #
vertex $-1 $297 $406 #
vertex $-1 $198 $407 #
straight-curve $-1 -55.062336573445165 11.420543204942135 9.8875436457956347 1 0 0 I I #
coedge $-1 $304 $304 $-1 $408 reversed $201 $-1 #
edge $-1 $409 0 $409 6.2831853071796004 $202 $410 forward 7 unknown #
vertex $-1 $205 $411 #
ellipse-curve $-1 -38.917269383791044 13.82690902780768 6.80097241747246 -0.84804810408105047 0 0.52991925155115449 0.52991925155115449 0 0.84804810408105047 1 I I #
coedge $-1 $308 $308 $-1 $412 reversed $208 $-1 #
edge $-1 $413 0 $413 6.2831853071796004 $209 $414 forward 7 unknown #
vertex $-1 $212 $415 #
ellipse-curve $-1 -38.917269383791044 17.436457762106002 6.80097241747246 -0.84804810408105047 0 0.52991925155115449 0.52991925155115449 0 0.84804810408105047 1 I I #
coedge $-1 $312 $312 $-1 $416 reversed $215 $-1 #
edge $-1 $417 0 $417 6.2831853071796004 $216 $418 forward 7 unknown #
vertex $-1 $219 $419 #
ellipse-curve $-1 -38.917269383791044 21.046006496404324 6.80097241747246 -0.84804810408105047 0 0.52991925155115449 0.52991925155115449 0 0.84804810408105047 1 I I #
face $-1 $-1 $235 $33 $-1 $420 reversed single #
loop $-1 $-1 $332 $220 #
plane-surface $-1 0 23.45237231926987 0 0 -1 0 0 0 -1 forward_v I I I I #
coedge $-1 $421 $330 $333 $422 forward $221 $-1 #
coedge $-1 $336 $223 $224 $324 reversed $140 $-1 #
coedge $-1 $330 $421 $223 $322 reversed $221 $-1 #
edge $-1 $337 -9.8875436457956347 $423 9.8875436457956347 $321 $424 forward 7 unknown #
coedge $-1 $225 $224 $421 $425 forward $89 $-1 #
edge $-1 $328 -40.845973082674639 $423 40.845973082674639 $320 $426 forward 7 unknown #
coedge $-1 $333 $332 $225 $326 reversed $317 $-1 #
edge $-1 $427 -40.845973082674639 $327 40.845973082674639 $325 $428 forward 7 unknown #
vertex $-1 $227 $429 #
vertex $-1 $339 $430 #
straight-curve $-1 40.845973082674639 0 -9.8875436457956347 0 -1 0 I I #
coedge $-1 $319 $321 $228 $331 reversed $221 $-1 #
edge $-1 $334 -23.45237231926987 $337 23.45237231926987 $330 $431 forward 7 unknown #
coedge $-1 $325 $229 $234 $340 forward $317 $-1 #
coedge $-1 $229 $325 $319 $422 reversed $317 $-1 #
vertex $-1 $230 $432 #
straight-curve $-1 0 23.45237231926987 9.8875436457956347 -1 0 0 I I #
coedge $-1 $231 $320 $233 $339 reversed $140 $-1 #
vertex $-1 $331 $433 #
straight-curve $-1 0 -23.45237231926987 9.8875436457956347 1 0 0 I I #
edge $-1 $236 -9.8875436457956347 $328 9.8875436457956347 $233 $434 forward 7 unknown #
edge $-1 $237 -9.8875436457956347 $327 9.8875436457956347 $234 $435 forward 7 unknown #
point $-1 40.845973082674639 -23.45237231926987 9.8875436457956347 #
point $-1 40.845973082674639 23.45237231926987 9.8875436457956347 #
plane-surface $-1 40.845973082674639 0 0 -1 0 0 0 0 1 forward_v I I I I #
coedge $-1 $436 $242 $247 $350 forward $148 $-1 #
coedge $-1 $242 $436 $347 $437 forward $148 $-1 #
edge $-1 $348 -29.459411793896049 $355 -18.199879506196222 $242 $438 forward 7 unknown #
coedge $-1 $251 $245 $345 $437 reversed $252 $-1 #
vertex $-1 $246 $439 #
straight-curve $-1 40.845973082674639 -17.375829775310393 57.90725426989988 0 0 1 I I #
edge $-1 $355 7.1687792516653275 $353 13.245321795624804 $344 $440 forward 7 unknown #
coedge $-1 $352 $248 $251 $357 reversed $240 $-1 #
coedge $-1 $248 $351 $436 $441 reversed $240 $-1 #
vertex $-1 $441 $442 #
straight-curve $-1 -5.1602643165211859 -23.45237231926987 35.132503110125981 0.80901698891910034 0 -0.5877852598018023 I I #
vertex $-1 $350 $443 #
straight-curve $-1 -25.244199222957498 -17.375829775310393 49.724336234167623 0.80901698891910034 0 -0.5877852598018023 I I #
edge $-1 $444 -9.8875436457956347 $253 -1.7070144336529356 $251 $445 forward 7 unknown #
point $-1 40.845973082674639 -23.45237231926987 1.7070144336529356 #
point $-1 40.845973082674639 -17.375829775310393 1.7070144336529367 #
edge $-1 $446 1 $446 0 $256 $-1 forward 7 unknown #
vertex $-1 $257 $447 #
ellipse-curve $-1 34.396138243579529 -21.716217306710021 4.6685513360765514 0.5877852598018023 0 0.80901698891910034 0.40450849445955017 0 -0.29389262990090115 1 I I #
point $-1 35.620715433284275 -21.716217306710021 5.503386409823392 #
edge $-1 $448 1 $448 0 $260 $-1 forward 7 unknown #
vertex $-1 $261 $449 #
ellipse-curve $-1 34.396138243579529 -19.111984787870245 4.6685513360765514 0.5877852598018023 0 0.80901698891910034 0.40450849445955017 0 -0.29389262990090115 1 I I #
point $-1 35.620715433284275 -19.111984787870245 5.503386409823392 #
plane-surface $-1 40.845973082674639 0 0 -1 0 0 0 0 1 forward_v I I I I #
coedge $-1 $272 $450 $373 $451 forward $265 $-1 #
coedge $-1 $371 $267 $450 $452 reversed $170 $-1 #
coedge $-1 $267 $370 $374 $453 forward $170 $-1 #
edge $-1 $375 -56.866837197897617 $454 -42.949289801589785 $267 $455 forward 7 unknown #
coedge $-1 $269 $268 $369 $451 reversed $107 $-1 #
coedge $-1 $275 $270 $371 $453 reversed $276 $-1 #
vertex $-1 $372 $456 #
straight-curve $-1 40.845973082674639 10.207050523645066 1.7070144336529331 0 1 0 I I #
coedge $-1 $450 $272 $275 $381 forward $265 $-1 #
vertex $-1 $273 $457 #
straight-curve $-1 11.386561288778591 17.375829775310393 9.8875436457956312 1 0 0 I I #
straight-curve $-1 -25.244199222957498 17.375829775310393 49.724336234167623 -0.80901698891910034 0 0.5877852598018023 I I #
edge $-1 $277 17.375829775310393 $458 23.45237231926987 $275 $459 forward 7 unknown #
point $-1 40.845973082674639 17.375829775310393 9.8875436457956347 #
point $-1 40.845973082674639 17.375829775310393 1.7070144336529367 #
edge $-1 $460 1 $460 0 $280 $-1 forward 7 unknown #
vertex $-1 $281 $461 #
ellipse-curve $-1 34.396138243579529 19.111984787870242 4.6685513360765514 0.5877852598018023 0 0.80901698891910034 0.40450849445955017 0 -0.29389262990090115 1 I I #
point $-1 35.620715433284275 19.111984787870242 5.503386409823392 #
edge $-1 $462 1 $462 0 $284 $-1 forward 7 unknown #
vertex $-1 $285 $463 #
ellipse-curve $-1 34.396138243579529 21.716217306710021 4.6685513360765514 0.5877852598018023 0 0.80901698891910034 0.40450849445955017 0 -0.29389262990090115 1 I I #
point $-1 35.620715433284275 21.716217306710021 5.503386409823392 #
plane-surface $-1 0 0 9.8875436457956347 0 0 1 1 0 0 forward_v I I I I #
coedge $-1 $296 $464 $397 $465 forward $289 $-1 #
coedge $-1 $395 $291 $464 $466 reversed $192 $-1 #
coedge $-1 $291 $394 $398 $467 reversed $192 $-1 #
edge $-1 $399 1.9683021015637019 $468 9.2475382992975543 $291 $469 forward 7 unknown #
coedge $-1 $293 $292 $393 $465 reversed $121 $-1 #
coedge $-1 $299 $294 $395 $467 forward $300 $-1 #
vertex $-1 $467 $470 #
straight-curve $-1 -36.988565684907449 8.7182288810530011 9.8875436457956347 0 1 0 I I #
coedge $-1 $464 $296 $299 $405 reversed $289 $-1 #
vertex $-1 $297 $471 #
straight-curve $-1 -40.845973082674639 11.420543204942135 23.502268079424198 0 0 1 I I #
straight-curve $-1 -40.845973082674632 11.420543204942135 3.7144011891492994 -0.52991925155115449 0 -0.84804810408105047 I I #
edge $-1 $472 -23.45237231926987 $301 -11.420543204942135 $401 $473 forward 7 unknown #
point $-1 -40.845973082674639 11.420543204942135 9.8875436457956347 #
point $-1 -36.988565684907442 11.420543204942135 9.8875436457956347 #
edge $-1 $474 1 $474 0 $304 $-1 forward 7 unknown #
vertex $-1 $305 $475 #
ellipse-curve $-1 -37.965800147964394 13.82690902780768 6.2064284725041956 -0.84804810408105047 0 0.52991925155115449 0.52991925155115449 0 0.84804810408105047 1 I I #
point $-1 -38.387350132239888 13.82690902780768 7.6490205215535099 #
edge $-1 $476 1 $476 0 $308 $-1 forward 7 unknown #
vertex $-1 $309 $477 #
ellipse-curve $-1 -37.965800147964394 17.436457762106002 6.2064284725041956 -0.84804810408105047 0 0.52991925155115449 0.52991925155115449 0 0.84804810408105047 1 I I #
point $-1 -38.387350132239888 17.436457762106002 7.6490205215535099 #
edge $-1 $478 1 $478 0 $312 $-1 forward 7 unknown #
vertex $-1 $313 $479 #
ellipse-curve $-1 -37.965800147964394 21.046006496404324 6.2064284725041956 -0.84804810408105047 0 0.52991925155115449 0.52991925155115449 0 0.84804810408105047 1 I I #
point $-1 -38.387350132239888 21.046006496404324 7.6490205215535099 #
plane-surface $-1 40.845973082674639 0 0 -1 0 0 0 0 1 forward_v I I I I #
coedge $-1 $321 $319 $323 $425 reversed $221 $-1 #
edge $-1 $334 -9.8875436457956347 $427 9.8875436457956347 $333 $480 forward 7 unknown #
vertex $-1 $425 $481 #
straight-curve $-1 -40.845973082674639 -23.45237231926987 0 0 0 -1 I I #
edge $-1 $423 -23.45237231926987 $427 23.45237231926987 $421 $482 forward 7 unknown #
straight-curve $-1 0 -23.45237231926987 -9.8875436457956347 -1 0 0 I I #
vertex $-1 $326 $483 #
straight-curve $-1 0 23.45237231926987 -9.8875436457956347 1 0 0 I I #
point $-1 40.845973082674639 23.45237231926987 -9.8875436457956347 #
point $-1 40.845973082674639 -23.45237231926987 -9.8875436457956347 #
straight-curve $-1 -40.845973082674639 0 9.8875436457956347 0 -1 0 I I #
point $-1 -40.845973082674639 23.45237231926987 9.8875436457956347 #
point $-1 -40.845973082674639 -23.45237231926987 9.8875436457956347 #
straight-curve $-1 40.845973082674639 -23.45237231926987 0 0 0 -1 I I #
straight-curve $-1 40.845973082674639 23.45237231926987 0 0 0 -1 I I #
coedge $-1 $345 $344 $352 $441 forward $148 $-1 #
edge $-1 $444 -23.45237231926987 $348 -17.375829775310393 $347 $484 forward 7 unknown #
straight-curve $-1 11.386561288778591 -17.375829775310393 9.8875436457956312 -1 0 0 I I #
point $-1 40.845973082674639 -17.375829775310393 9.8875436457956347 #
straight-curve $-1 29.586440794974802 -10.207050523645066 9.8875436457956383 0 -1 0 I I #
edge $-1 $353 29.586440794974813 $444 40.845973082674639 $352 $485 forward 7 unknown #
point $-1 29.586440794974813 -23.45237231926987 9.8875436457956312 #
point $-1 29.586440794974813 -17.375829775310393 9.8875436457956312 #
vertex $-1 $437 $486 #
straight-curve $-1 40.845973082674639 -23.45237231926987 0 0 0 -1 I I #
vertex $-1 $360 $487 #
point $-1 34.800646738039084 -21.716217306710021 4.3746587061756497 #
vertex $-1 $364 $488 #
point $-1 34.800646738039084 -19.111984787870245 4.3746587061756497 #
coedge $-1 $369 $377 $370 $452 forward $265 $-1 #
edge $-1 $454 -13.245321795624804 $378 -7.1687792516653275 $369 $489 forward 7 unknown #
edge $-1 $458 -40.845973082674639 $454 -29.586440794974813 $370 $490 forward 7 unknown #
edge $-1 $458 -9.8875436457956347 $375 -1.7070144336529367 $374 $491 forward 7 unknown #
vertex $-1 $372 $492 #
straight-curve $-1 -5.1602643165211859 23.45237231926987 35.132503110125981 -0.80901698891910034 0 0.5877852598018023 I I #
point $-1 40.845973082674639 23.45237231926987 1.7070144336529367 #
point $-1 29.586440794974813 17.375829775310393 9.8875436457956312 #
vertex $-1 $381 $493 #
straight-curve $-1 40.845973082674639 0 9.8875436457956347 0 1 0 I I #
vertex $-1 $384 $494 #
point $-1 34.800646738039084 19.111984787870242 4.3746587061756497 #
vertex $-1 $388 $495 #
point $-1 34.800646738039084 21.716217306710021 4.3746587061756497 #
coedge $-1 $393 $401 $394 $466 forward $289 $-1 #
edge $-1 $468 -14.734143438216869 $402 -2.7023143238891336 $393 $496 forward 7 unknown #
edge $-1 $472 -9.8875436457956347 $468 -3.7144011891492879 $394 $497 forward 7 unknown #
edge $-1 $399 36.988565684907442 $472 40.845973082674639 $395 $498 forward 7 unknown #
vertex $-1 $465 $499 #
straight-curve $-1 -35.945524508420242 23.45237231926987 11.55675851128548 -0.52991925155115449 0 -0.84804810408105047 I I #
point $-1 -36.988565684907442 23.45237231926987 9.8875436457956347 #
point $-1 -40.845973082674639 11.420543204942135 3.7144011891492879 #
vertex $-1 $467 $500 #
straight-curve $-1 -40.845973082674639 0 9.8875436457956347 0 -1 0 I I #
vertex $-1 $408 $501 #
point $-1 -37.435880896413245 13.82690902780768 7.0544765765852464 #
vertex $-1 $412 $502 #
point $-1 -37.435880896413245 17.436457762106002 7.0544765765852464 #
vertex $-1 $416 $503 #
point $-1 -37.435880896413245 21.046006496404324 7.0544765765852464 #
straight-curve $-1 -40.845973082674639 23.45237231926987 0 0 0 -1 I I #
point $-1 -40.845973082674639 -23.45237231926987 -9.8875436457956347 #
straight-curve $-1 -40.845973082674639 0 -9.8875436457956347 0 1 0 I I #
point $-1 -40.845973082674639 23.45237231926987 -9.8875436457956347 #
straight-curve $-1 40.845973082674639 0 9.8875436457956347 0 1 0 I I #
straight-curve $-1 0 -23.45237231926987 9.8875436457956347 1 0 0 I I #
point $-1 40.845973082674639 -23.45237231926987 9.8875436457956347 #
point $-1 34.102245613678633 -21.716217306710021 4.2640428416170009 #
point $-1 34.102245613678633 -19.111984787870245 4.2640428416170009 #
straight-curve $-1 29.586440794974802 10.207050523645066 9.8875436457956383 0 -1 0 I I #
straight-curve $-1 0 23.45237231926987 9.8875436457956347 -1 0 0 I I #
straight-curve $-1 40.845973082674639 23.45237231926987 0 0 0 -1 I I #
point $-1 29.586440794974813 23.45237231926987 9.8875436457956312 #
point $-1 40.845973082674639 23.45237231926987 9.8875436457956347 #
point $-1 34.102245613678633 19.111984787870242 4.2640428416170009 #
point $-1 34.102245613678633 21.716217306710021 4.2640428416170009 #
straight-curve $-1 -40.845973082674639 8.7182288810530011 3.7144011891492825 0 -1 0 I I #
straight-curve $-1 -40.845973082674639 23.45237231926987 0 0 0 -1 I I #
straight-curve $-1 0 23.45237231926987 9.8875436457956347 -1 0 0 I I #
point $-1 -40.845973082674639 23.45237231926987 3.7144011891492879 #
point $-1 -40.845973082674639 23.45237231926987 9.8875436457956347 #
point $-1 -37.11775204388335 13.82690902780768 5.676509220953041 #
point $-1 -37.11775204388335 17.436457762106002 5.676509220953041 #
point $-1 -37.11775204388335 21.046006496404324 5.676509220953041 #
End-of-ACIS-data 