500 0 8 0           
7 Unknown 11 ACIS 5.0 NT 24 Fri Mar 26 20:13:05 1999 
-1 9.9999999999999995e-007 1e-010 
body $-1 $8 $-1 $9 #
body $-1 $10 $-1 $11 #
body $-1 $12 $-1 $13 #
body $-1 $14 $-1 $15 #
body $-1 $16 $-1 $17 #
body $-1 $18 $-1 $19 #
body $-1 $20 $-1 $21 #
body $-1 $22 $-1 $23 #
lump $-1 $-1 $24 $0 #
transform $-1 1 0 0 0 1 0 0 0 1 75.442976165044101 32.527717959132467 12.038839282741266 1 rotate no_reflect no_shear #
lump $-1 $-1 $25 $1 #
transform $-1 1 0 0 0 1 0 0 0 1 75.442976165044101 32.527717959132467 12.038839282741266 1 rotate no_reflect no_shear #
lump $-1 $-1 $26 $2 #
transform $-1 1 0 0 0 1 0 0 0 1 75.442976165044101 32.527717959132467 12.038839282741266 1 rotate no_reflect no_shear #
lump $-1 $-1 $27 $3 #
transform $-1 1 0 0 0 1 0 0 0 1 75.442976165044101 32.527717959132467 12.038839282741266 1 rotate no_reflect no_shear #
lump $-1 $-1 $28 $4 #
transform $-1 1 0 0 0 1 0 0 0 1 75.442976165044101 32.527717959132467 12.038839282741266 1 rotate no_reflect no_shear #
lump $-1 $-1 $29 $5 #
transform $-1 1 0 0 0 1 0 0 0 1 75.442976165044101 32.527717959132467 12.038839282741266 1 rotate no_reflect no_shear #
lump $-1 $-1 $30 $6 #
transform $-1 1 0 0 0 1 0 0 0 1 75.442976165044101 32.527717959132467 12.038839282741266 1 rotate no_reflect no_shear #
lump $-1 $-1 $31 $7 #
transform $-1 1 0 0 0 1 0 0 0 1 75.442976165044101 32.527717959132467 12.038839282741266 1 rotate no_reflect no_shear #
shell $-1 $-1 $-1 $32 $-1 $8 #
shell $-1 $-1 $-1 $33 $-1 $10 #
shell $-1 $-1 $-1 $34 $-1 $12 #
shell $-1 $-1 $-1 $35 $-1 $14 #
shell $-1 $-1 $-1 $36 $-1 $16 #
shell $-1 $-1 $-1 $37 $-1 $18 #
shell $-1 $-1 $-1 $38 $-1 $20 #
shell $-1 $-1 $-1 $39 $-1 $22 #
face $-1 $40 $41 $24 $-1 $42 forward single #
face $-1 $43 $44 $25 $-1 $45 forward single #
face $-1 $46 $47 $26 $-1 $48 reversed single #
face $-1 $49 $50 $27 $-1 $51 forward single #
face $-1 $52 $53 $28 $-1 $54 forward single #
face $-1 $55 $56 $29 $-1 $57 reversed single #
face $-1 $58 $59 $30 $-1 $60 forward single #
face $-1 $61 $62 $31 $-1 $63 forward single #
face $-1 $64 $65 $24 $-1 $66 reversed single #
loop $-1 $-1 $67 $32 #
plane-surface $-1 0 0 12.038839282741266 0 0 1 1 0 0 forward_v I I I I #
face $-1 $68 $69 $25 $-1 $70 forward single #
loop $-1 $-1 $71 $33 #
plane-surface $-1 0 -32.527717959132467 0 0 1 0 0 0 1 forward_v I I I I #
face $-1 $72 $73 $26 $-1 $74 reversed single #
loop $-1 $-1 $75 $34 #
plane-surface $-1 101.44806399149682 19.90355730476028 211.88269328183611 0 1 0 0.78801076186113728 0 0.61566146476048833 forward_v I I I I #
face $-1 $76 $77 $27 $-1 $78 forward single #
loop $-1 $79 $80 $35 #
cone-surface $-1 69.719733834709743 23.510460348866623 5.2394250493282852 -0.78801076186113728 0 -0.61566146476048833 0.9234921971407325 0 -1.182016142791706 1 I I 0 1 1.5 forward I I I I #
face $-1 $81 $82 $28 $-1 $83 forward single #
loop $-1 $84 $85 $36 #
cone-surface $-1 69.719733834709743 28.920814915026128 5.2394250493282852 -0.78801076186113728 0 -0.61566146476048833 0.9234921971407325 0 -1.182016142791706 1 I I 0 1 1.5 forward I I I I #
face $-1 $86 $87 $29 $-1 $88 reversed single #
loop $-1 $-1 $89 $37 #
plane-surface $-1 -194.34273041482015 19.90355730476028 92.982939032060074 0 1 0 -0.78801076186113728 0 0.61566146476048833 forward_v I I I I #
face $-1 $90 $91 $30 $-1 $92 forward single #
loop $-1 $93 $94 $38 #
cone-surface $-1 -69.719733834709743 23.510460348866623 5.2394250493282692 0.78801076186113728 0 -0.61566146476048833 0.9234921971407325 0 1.182016142791706 1 I I 0 1 1.5 forward I I I I #
face $-1 $95 $96 $31 $-1 $97 forward single #
loop $-1 $98 $99 $39 #
cone-surface $-1 -69.719733834709743 28.920814915026128 5.2394250493282692 0.78801076186113728 0 -0.61566146476048833 0.9234921971407325 0 1.182016142791706 1 I I 0 1 1.5 forward I I I I #
face $-1 $100 $101 $24 $-1 $102 reversed single #
loop $-1 $-1 $103 $40 #
plane-surface $-1 0 0 -12.038839282741266 0 0 1 1 0 0 forward_v I I I I #
coedge $-1 $104 $105 $106 $107 forward $41 $-1 #
face $-1 $108 $109 $25 $-1 $110 reversed single #
loop $-1 $-1 $111 $43 #
plane-surface $-1 0 0 12.038839282741266 0 0 1 1 0 0 forward_v I I I I #
coedge $-1 $112 $113 $114 $115 forward $44 $-1 #
face $-1 $116 $117 $26 $-1 $118 reversed single #
loop $-1 $-1 $119 $46 #
plane-surface $-1 -17.451690258279228 26.215637631946372 118.9880268585128 0.78801076186113728 0 0.61566146476048833 0.61566146476048833 0 -0.78801076186113728 forward_v I I I I #
coedge $-1 $120 $121 $122 $123 reversed $47 $-1 #
face $-1 $-1 $124 $27 $-1 $125 forward single #
loop $-1 $126 $127 $49 #
cone-surface $-1 68.073886289469968 23.510460348866623 3.9535480543471788 -0.78801076186113728 0 -0.61566146476048833 0.46174609857036625 0 -0.59100807139585299 1 I I -0.70710678118654757 0.70710678118654757 0.75 forward I I I I #
loop $-1 $-1 $128 $35 #
coedge $-1 $80 $80 $129 $130 reversed $50 $-1 #
face $-1 $-1 $131 $28 $-1 $132 forward single #
loop $-1 $133 $134 $52 #
cone-surface $-1 68.073886289469968 28.920814915026128 3.9535480543471788 -0.78801076186113728 0 -0.61566146476048833 0.46174609857036625 0 -0.59100807139585299 1 I I -0.70710678118654757 0.70710678118654757 0.75 forward I I I I #
loop $-1 $-1 $135 $36 #
coedge $-1 $85 $85 $136 $137 reversed $53 $-1 #
face $-1 $138 $139 $29 $-1 $140 forward single #
loop $-1 $-1 $141 $55 #
plane-surface $-1 -75.442976165044101 26.215637631946372 0.088272608736758684 -0.78801076186113728 0 0.61566146476048833 0.61566146476048833 0 0.78801076186113728 forward_v I I I I #
coedge $-1 $142 $143 $144 $145 reversed $56 $-1 #
face $-1 $-1 $146 $30 $-1 $147 forward single #
loop $-1 $148 $149 $58 #
cone-surface $-1 -68.073886289469968 23.510460348866623 3.9535480543471628 0.78801076186113728 0 -0.61566146476048833 0.46174609857036625 0 0.59100807139585299 1 I I -0.70710678118654757 0.70710678118654757 0.75 forward I I I I #
loop $-1 $-1 $150 $38 #
coedge $-1 $94 $94 $151 $152 reversed $59 $-1 #
face $-1 $-1 $153 $31 $-1 $154 forward single #
loop $-1 $155 $156 $61 #
cone-surface $-1 -68.073886289469968 28.920814915026128 3.9535480543471628 0.78801076186113728 0 -0.61566146476048833 0.46174609857036625 0 0.59100807139585299 1 I I -0.70710678118654757 0.70710678118654757 0.75 forward I I I I #
loop $-1 $-1 $157 $39 #
coedge $-1 $99 $99 $158 $159 reversed $62 $-1 #
face $-1 $160 $161 $24 $-1 $162 reversed single #
loop $-1 $-1 $163 $64 #
plane-surface $-1 0 -32.527717959132467 0 0 1 0 0 0 1 forward_v I I I I #
coedge $-1 $164 $165 $166 $167 forward $65 $-1 #
coedge $-1 $168 $67 $169 $170 forward $41 $-1 #
coedge $-1 $67 $168 $171 $172 forward $41 $-1 #
coedge $-1 $173 $174 $67 $107 reversed $175 $-1 #
edge $-1 $176 -32.527717959132467 $177 32.527717959132467 $106 $178 forward 7 unknown #
face $-1 $179 $180 $25 $-1 $181 reversed single #
loop $-1 $-1 $182 $68 #
plane-surface $-1 -75.442976165044101 0 0 1 0 0 0 0 -1 forward_v I I I I #
coedge $-1 $183 $184 $185 $186 forward $69 $-1 #
coedge $-1 $185 $71 $182 $187 reversed $44 $-1 #
coedge $-1 $71 $185 $188 $189 reversed $44 $-1 #
coedge $-1 $190 $191 $71 $115 reversed $180 $-1 #
edge $-1 $192 -75.442976165044101 $193 75.442976165044101 $114 $194 forward 7 unknown #
face $-1 $195 $196 $26 $-1 $197 forward single #
loop $-1 $-1 $122 $72 #
plane-surface $-1 75.442976165044101 0 0 -1 0 0 0 0 1 forward_v I I I I #
coedge $-1 $198 $199 $200 $201 reversed $73 $-1 #
coedge $-1 $121 $75 $202 $203 reversed $47 $-1 #
coedge $-1 $75 $120 $198 $204 reversed $47 $-1 #
coedge $-1 $200 $205 $75 $123 forward $117 $-1 #
edge $-1 $206 93.902507358176791 $207 105.85307403218133 $122 $208 forward 7 unknown #
loop $-1 $-1 $129 $76 #
plane-surface $-1 -17.451690258279228 26.215637631946372 118.9880268585128 0.78801076186113728 0 0.61566146476048833 0.61566146476048833 0 -0.78801076186113728 forward_v I I I I #
loop $-1 $-1 $209 $49 #
coedge $-1 $127 $127 $128 $210 reversed $77 $-1 #
coedge $-1 $128 $128 $127 $210 forward $79 $-1 #
coedge $-1 $129 $129 $80 $130 forward $124 $-1 #
edge $-1 $211 0 $211 6.2831853071796004 $129 $212 forward 7 unknown #
loop $-1 $-1 $136 $81 #
plane-surface $-1 -17.451690258279228 26.215637631946372 118.9880268585128 0.78801076186113728 0 0.61566146476048833 0.61566146476048833 0 -0.78801076186113728 forward_v I I I I #
loop $-1 $-1 $213 $52 #
coedge $-1 $134 $134 $135 $214 reversed $82 $-1 #
coedge $-1 $135 $135 $134 $214 forward $84 $-1 #
coedge $-1 $136 $136 $85 $137 forward $131 $-1 #
edge $-1 $215 0 $215 6.2831853071796004 $136 $216 forward 7 unknown #
face $-1 $217 $218 $29 $-1 $219 reversed single #
loop $-1 $-1 $144 $86 #
plane-surface $-1 0 0 12.038839282741266 0 0 1 1 0 0 forward_v I I I I #
coedge $-1 $220 $221 $222 $223 reversed $87 $-1 #
coedge $-1 $143 $89 $224 $225 reversed $56 $-1 #
coedge $-1 $89 $142 $220 $226 reversed $56 $-1 #
coedge $-1 $222 $227 $89 $145 forward $139 $-1 #
edge $-1 $228 21.728389042365976 $229 31.065194755346866 $144 $230 forward 7 unknown #
loop $-1 $-1 $151 $90 #
plane-surface $-1 -75.442976165044101 26.215637631946372 0.088272608736758684 -0.78801076186113728 0 0.61566146476048833 0.61566146476048833 0 0.78801076186113728 forward_v I I I I #
loop $-1 $-1 $231 $58 #
coedge $-1 $149 $149 $150 $232 reversed $91 $-1 #
coedge $-1 $150 $150 $149 $232 forward $93 $-1 #
coedge $-1 $151 $151 $94 $152 forward $146 $-1 #
edge $-1 $233 0 $233 6.2831853071796004 $151 $234 forward 7 unknown #
loop $-1 $-1 $158 $95 #
plane-surface $-1 -75.442976165044101 26.215637631946372 0.088272608736758684 -0.78801076186113728 0 0.61566146476048833 0.61566146476048833 0 0.78801076186113728 forward_v I I I I #
loop $-1 $-1 $235 $61 #
coedge $-1 $156 $156 $157 $236 reversed $96 $-1 #
coedge $-1 $157 $157 $156 $236 forward $98 $-1 #
coedge $-1 $158 $158 $99 $159 forward $153 $-1 #
edge $-1 $237 0 $237 6.2831853071796004 $158 $238 forward 7 unknown #
face $-1 $239 $240 $24 $-1 $241 reversed single #
loop $-1 $-1 $242 $100 #
plane-surface $-1 -75.442976165044101 0 0 1 0 0 0 0 -1 forward_v I I I I #
coedge $-1 $243 $171 $244 $245 forward $101 $-1 #
coedge $-1 $246 $103 $243 $247 forward $65 $-1 #
coedge $-1 $103 $246 $248 $249 forward $65 $-1 #
coedge $-1 $174 $173 $103 $167 reversed $175 $-1 #
edge $-1 $250 -32.527717959132467 $251 32.527717959132467 $166 $252 forward 7 unknown #
coedge $-1 $105 $104 $253 $254 forward $41 $-1 #
coedge $-1 $255 $256 $104 $170 reversed $240 $-1 #
edge $-1 $177 -75.442976165044101 $257 75.442976165044101 $169 $258 forward 7 unknown #
coedge $-1 $163 $259 $105 $172 reversed $101 $-1 #
edge $-1 $260 -75.442976165044101 $176 75.442976165044101 $171 $261 forward 7 unknown #
coedge $-1 $166 $106 $259 $262 forward $175 $-1 #
coedge $-1 $106 $166 $255 $263 reversed $175 $-1 #
loop $-1 $-1 $173 $239 #
vertex $-1 $107 $264 #
vertex $-1 $107 $265 #
straight-curve $-1 75.442976165044101 0 12.038839282741266 0 1 0 I I #
face $-1 $266 $267 $25 $-1 $268 reversed single #
loop $-1 $-1 $190 $108 #
plane-surface $-1 0 -37.005518065604413 7.0871423758160947 0 0 1 1 0 0 forward_v I I I I #
coedge $-1 $269 $270 $112 $187 forward $109 $-1 #
coedge $-1 $271 $111 $270 $272 forward $69 $-1 #
coedge $-1 $111 $271 $273 $274 forward $69 $-1 #
coedge $-1 $113 $112 $111 $186 reversed $44 $-1 #
edge $-1 $275 -75.442976165044101 $276 75.442976165044101 $111 $277 forward 7 unknown #
edge $-1 $276 -12.038839282741266 $193 -7.0871423758160947 $182 $278 forward 7 unknown #
coedge $-1 $273 $279 $113 $189 forward $280 $-1 #
edge $-1 $192 7.0871423758160947 $275 12.038839282741266 $188 $281 forward 7 unknown #
coedge $-1 $282 $114 $279 $283 forward $180 $-1 #
coedge $-1 $114 $282 $269 $284 forward $180 $-1 #
vertex $-1 $189 $285 #
vertex $-1 $187 $286 #
straight-curve $-1 0 -32.527717959132467 7.0871423758160947 -1 0 0 I I #
face $-1 $-1 $287 $26 $-1 $288 reversed single #
loop $-1 $-1 $202 $116 #
plane-surface $-1 0 0 12.038839282741266 0 0 1 1 0 0 forward_v I I I I #
coedge $-1 $289 $119 $121 $204 forward $73 $-1 #
coedge $-1 $119 $289 $290 $291 reversed $73 $-1 #
coedge $-1 $292 $122 $119 $201 forward $117 $-1 #
edge $-1 $207 6.7957384887870944 $293 19.419899143159281 $200 $294 forward 7 unknown #
coedge $-1 $295 $296 $120 $203 forward $196 $-1 #
edge $-1 $297 15.382138456314784 $206 24.718944169295689 $202 $298 forward 7 unknown #
edge $-1 $207 -150.88595233008823 $297 -135.7204656991957 $121 $299 forward 7 unknown #
coedge $-1 $122 $292 $295 $300 reversed $117 $-1 #
vertex $-1 $300 $301 #
vertex $-1 $123 $302 #
straight-curve $-1 75.442976165044101 19.90355730476028 105.94134664091806 0 0 -1 I I #
coedge $-1 $209 $209 $-1 $303 reversed $126 $-1 #
edge $-1 $304 0 $304 6.2831853071796004 $127 $305 forward 7 unknown #
vertex $-1 $130 $306 #
ellipse-curve $-1 70.774573308553641 23.510460348866623 6.0635559457390062 0.78801076186113728 0 0.61566146476048833 0.9234921971407325 0 -1.182016142791706 1 I I #
coedge $-1 $213 $213 $-1 $307 reversed $133 $-1 #
edge $-1 $308 0 $308 6.2831853071796004 $134 $309 forward 7 unknown #
vertex $-1 $137 $310 #
ellipse-curve $-1 70.774573308553641 28.920814915026128 6.0635559457390062 0.78801076186113728 0 0.61566146476048833 0.9234921971407325 0 -1.182016142791706 1 I I #
face $-1 $-1 $311 $29 $-1 $312 reversed single #
loop $-1 $-1 $313 $138 #
plane-surface $-1 0 32.527717959132467 0 0 -1 0 0 0 -1 forward_v I I I I #
coedge $-1 $314 $141 $143 $226 forward $87 $-1 #
coedge $-1 $141 $314 $313 $315 reversed $87 $-1 #
coedge $-1 $316 $144 $141 $223 forward $139 $-1 #
edge $-1 $229 6.7957384887870944 $317 19.419899143159274 $222 $318 forward 7 unknown #
coedge $-1 $319 $320 $142 $225 forward $311 $-1 #
edge $-1 $321 -46.403196907293278 $228 -34.452630233288772 $224 $322 forward 7 unknown #
edge $-1 $229 -15.16548663089252 $321 0 $143 $323 forward 7 unknown #
coedge $-1 $144 $316 $319 $324 forward $139 $-1 #
vertex $-1 $225 $325 #
vertex $-1 $145 $326 #
straight-curve $-1 -97.171365207410076 19.90355730476028 12.038839282741264 1 0 0 I I #
coedge $-1 $231 $231 $-1 $327 reversed $148 $-1 #
edge $-1 $328 0 $328 6.2831853071796004 $149 $329 forward 7 unknown #
vertex $-1 $152 $330 #
ellipse-curve $-1 -70.774573308553656 23.510460348866623 6.0635559457390071 -0.78801076186113728 0 0.61566146476048833 0.9234921971407325 0 1.182016142791706 1 I I #
coedge $-1 $235 $235 $-1 $331 reversed $155 $-1 #
edge $-1 $332 0 $332 6.2831853071796004 $156 $333 forward 7 unknown #
vertex $-1 $159 $334 #
ellipse-curve $-1 -70.774573308553656 28.920814915026128 6.0635559457390071 -0.78801076186113728 0 0.61566146476048833 0.9234921971407325 0 1.182016142791706 1 I I #
face $-1 $-1 $175 $24 $-1 $335 reversed single #
loop $-1 $-1 $255 $160 #
plane-surface $-1 0 32.527717959132467 0 0 -1 0 0 0 -1 forward_v I I I I #
coedge $-1 $336 $253 $256 $337 forward $161 $-1 #
coedge $-1 $259 $163 $164 $247 reversed $101 $-1 #
coedge $-1 $253 $336 $163 $245 reversed $161 $-1 #
edge $-1 $260 -12.038839282741266 $338 12.038839282741266 $244 $339 forward 7 unknown #
coedge $-1 $165 $164 $336 $340 forward $65 $-1 #
edge $-1 $251 -75.442976165044101 $338 75.442976165044101 $243 $341 forward 7 unknown #
coedge $-1 $256 $255 $165 $249 reversed $240 $-1 #
edge $-1 $342 -75.442976165044101 $250 75.442976165044101 $248 $343 forward 7 unknown #
vertex $-1 $167 $344 #
vertex $-1 $262 $345 #
straight-curve $-1 75.442976165044101 0 -12.038839282741266 0 -1 0 I I #
coedge $-1 $242 $244 $168 $254 reversed $161 $-1 #
edge $-1 $257 -32.527717959132467 $260 32.527717959132467 $253 $346 forward 7 unknown #
coedge $-1 $248 $169 $174 $263 forward $240 $-1 #
coedge $-1 $169 $248 $242 $337 reversed $240 $-1 #
vertex $-1 $170 $347 #
straight-curve $-1 0 32.527717959132467 12.038839282741266 -1 0 0 I I #
coedge $-1 $171 $243 $173 $262 reversed $101 $-1 #
vertex $-1 $254 $348 #
straight-curve $-1 0 -32.527717959132467 12.038839282741266 1 0 0 I I #
edge $-1 $176 -12.038839282741266 $251 12.038839282741266 $173 $349 forward 7 unknown #
edge $-1 $177 -12.038839282741266 $250 12.038839282741266 $174 $350 forward 7 unknown #
point $-1 75.442976165044101 -32.527717959132467 12.038839282741266 #
point $-1 75.442976165044101 32.527717959132467 12.038839282741266 #
face $-1 $-1 $280 $25 $-1 $351 reversed single #
loop $-1 $-1 $352 $179 #
plane-surface $-1 0 -41.483318172076359 9.5629908292786805 0 1 0 0 0 1 forward_v I I I I #
coedge $-1 $353 $182 $191 $284 reversed $109 $-1 #
coedge $-1 $182 $353 $183 $272 reversed $109 $-1 #
coedge $-1 $184 $183 $354 $355 forward $69 $-1 #
edge $-1 $276 32.527717959132467 $356 41.483318172076359 $270 $357 forward 7 unknown #
coedge $-1 $358 $188 $184 $274 reversed $280 $-1 #
edge $-1 $359 -41.483318172076359 $275 -32.527717959132467 $273 $360 forward 7 unknown #
vertex $-1 $189 $361 #
vertex $-1 $272 $362 #
straight-curve $-1 0 -32.527717959132467 12.038839282741266 -1 0 0 I I #
straight-curve $-1 -75.442976165044101 -32.527717959132467 0 0 0 -1 I I #
coedge $-1 $188 $358 $190 $283 reversed $280 $-1 #
loop $-1 $-1 $188 $266 #
straight-curve $-1 75.442976165044101 -32.527717959132467 0 0 0 1 I I #
coedge $-1 $191 $190 $363 $364 forward $180 $-1 #
edge $-1 $192 -4.4778001064719462 $365 4.4778001064719462 $279 $366 forward 7 unknown #
edge $-1 $367 -4.4778001064719462 $193 4.4778001064719462 $269 $368 forward 7 unknown #
point $-1 75.442976165044101 -32.527717959132467 7.0871423758160947 #
point $-1 -75.442976165044101 -32.527717959132467 7.0871423758160947 #
loop $-1 $-1 $290 $195 #
plane-surface $-1 0 32.527717959132467 0 0 -1 0 0 0 -1 forward_v I I I I #
coedge $-1 $199 $198 $296 $369 reversed $73 $-1 #
coedge $-1 $370 $371 $199 $291 forward $287 $-1 #
edge $-1 $293 -98.631862888043884 $372 -83.466376257151339 $290 $373 forward 7 unknown #
coedge $-1 $205 $200 $371 $374 reversed $117 $-1 #
vertex $-1 $201 $375 #
straight-curve $-1 75.442976165044115 13.107818815973186 0.088272608736730263 0 1 0 I I #
coedge $-1 $376 $202 $205 $300 forward $196 $-1 #
coedge $-1 $202 $376 $289 $369 forward $196 $-1 #
vertex $-1 $203 $377 #
straight-curve $-1 50.724031995748412 19.90355730476028 12.038839282741264 1 0 0 I I #
straight-curve $-1 -17.451690258279228 19.90355730476028 118.9880268585128 -0.61566146476048833 0 0.78801076186113728 I I #
edge $-1 $206 19.90355730476028 $378 32.527717959132467 $205 $379 forward 7 unknown #
point $-1 75.442976165044101 19.90355730476028 12.038839282741266 #
point $-1 75.442976165044115 19.90355730476028 0.088272608736730263 #
edge $-1 $380 1 $380 0 $209 $-1 forward 7 unknown #
vertex $-1 $210 $381 #
ellipse-curve $-1 68.664894360865816 23.510460348866623 4.4152941529175447 0.78801076186113728 0 0.61566146476048833 0.9234921971407325 0 -1.182016142791706 1 I I #
point $-1 71.698065505694387 23.510460348866623 4.8815398029473194 #
edge $-1 $382 1 $382 0 $213 $-1 forward 7 unknown #
vertex $-1 $214 $383 #
ellipse-curve $-1 68.664894360865816 28.920814915026128 4.4152941529175447 0.78801076186113728 0 0.61566146476048833 0.9234921971407325 0 -1.182016142791706 1 I I #
point $-1 71.698065505694387 28.920814915026128 4.8815398029473194 #
loop $-1 $-1 $224 $217 #
plane-surface $-1 -75.442976165044101 0 0 1 0 0 0 0 -1 forward_v I I I I #
coedge $-1 $384 $385 $221 $315 forward $218 $-1 #
coedge $-1 $221 $220 $320 $386 reversed $87 $-1 #
edge $-1 $317 8.023400092107245 $387 23.188886722999765 $313 $388 forward 7 unknown #
coedge $-1 $227 $222 $385 $389 forward $139 $-1 #
vertex $-1 $389 $390 #
straight-curve $-1 -66.106170452063211 13.107818815973186 12.038839282741266 0 1 0 I I #
coedge $-1 $391 $224 $227 $324 reversed $311 $-1 #
coedge $-1 $224 $391 $314 $386 forward $311 $-1 #
vertex $-1 $225 $392 #
straight-curve $-1 -75.442976165044101 19.90355730476028 46.491469516030037 0 0 1 I I #
straight-curve $-1 -75.442976165044101 19.90355730476028 0.088272608736758684 -0.61566146476048833 0 -0.78801076186113728 I I #
edge $-1 $393 -32.527717959132467 $228 -19.90355730476028 $319 $394 forward 7 unknown #
point $-1 -75.442976165044101 19.90355730476028 12.038839282741266 #
point $-1 -66.106170452063211 19.90355730476028 12.038839282741266 #
edge $-1 $395 1 $395 0 $231 $-1 forward 7 unknown #
vertex $-1 $232 $396 #
ellipse-curve $-1 -68.664894360865816 23.510460348866623 4.4152941529175287 -0.78801076186113728 0 0.61566146476048833 0.9234921971407325 0 1.182016142791706 1 I I #
point $-1 -69.851081111412924 23.510460348866623 7.2455720885307153 #
edge $-1 $397 1 $397 0 $235 $-1 forward 7 unknown #
vertex $-1 $236 $398 #
ellipse-curve $-1 -68.664894360865816 28.920814915026128 4.4152941529175287 -0.78801076186113728 0 0.61566146476048833 0.9234921971407325 0 1.182016142791706 1 I I #
point $-1 -69.851081111412924 28.920814915026128 7.2455720885307153 #
plane-surface $-1 75.442976165044101 0 0 -1 0 0 0 0 1 forward_v I I I I #
coedge $-1 $244 $242 $246 $340 reversed $161 $-1 #
edge $-1 $257 -12.038839282741266 $342 12.038839282741266 $256 $399 forward 7 unknown #
vertex $-1 $340 $400 #
straight-curve $-1 -75.442976165044101 -32.527717959132467 0 0 0 -1 I I #
edge $-1 $338 -32.527717959132467 $342 32.527717959132467 $336 $401 forward 7 unknown #
straight-curve $-1 0 -32.527717959132467 -12.038839282741266 -1 0 0 I I #
vertex $-1 $249 $402 #
straight-curve $-1 0 32.527717959132467 -12.038839282741266 1 0 0 I I #
point $-1 75.442976165044101 32.527717959132467 -12.038839282741266 #
point $-1 75.442976165044101 -32.527717959132467 -12.038839282741266 #
straight-curve $-1 -75.442976165044101 0 12.038839282741266 0 -1 0 I I #
point $-1 -75.442976165044101 32.527717959132467 12.038839282741266 #
point $-1 -75.442976165044101 -32.527717959132467 12.038839282741266 #
straight-curve $-1 75.442976165044101 -32.527717959132467 0 0 0 -1 I I #
straight-curve $-1 75.442976165044101 32.527717959132467 0 0 0 -1 I I #
plane-surface $-1 75.442976165044101 0 0 -1 0 0 0 0 1 forward_v I I I I #
coedge $-1 $363 $354 $353 $403 forward $267 $-1 #
coedge $-1 $270 $269 $352 $403 reversed $109 $-1 #
coedge $-1 $352 $404 $271 $355 reversed $267 $-1 #
edge $-1 $356 -75.442976165044101 $359 75.442976165044101 $354 $405 forward 7 unknown #
vertex $-1 $272 $406 #
straight-curve $-1 -75.442976165044101 0 12.038839282741266 0 -1 0 I I #
coedge $-1 $279 $273 $404 $407 forward $280 $-1 #
vertex $-1 $274 $408 #
straight-curve $-1 75.442976165044101 0 12.038839282741266 0 1 0 I I #
point $-1 75.442976165044101 -32.527717959132467 12.038839282741266 #
point $-1 -75.442976165044101 -32.527717959132467 12.038839282741266 #
coedge $-1 $404 $352 $282 $364 reversed $267 $-1 #
edge $-1 $365 -75.442976165044101 $367 75.442976165044101 $363 $409 forward 7 unknown #
vertex $-1 $407 $410 #
straight-curve $-1 75.442976165044101 -37.005518065604413 7.0871423758160947 0 -1 0 I I #
vertex $-1 $284 $411 #
straight-curve $-1 -75.442976165044101 -37.005518065604413 7.0871423758160947 0 1 0 I I #
edge $-1 $372 -19.419899143159274 $297 -6.7957384887870944 $296 $412 forward 7 unknown #
coedge $-1 $371 $290 $376 $413 reversed $287 $-1 #
coedge $-1 $290 $370 $292 $374 forward $287 $-1 #
vertex $-1 $291 $414 #
straight-curve $-1 14.719138987335352 32.527717959132467 77.811242026927431 -0.61566146476048833 0 0.78801076186113728 I I #
edge $-1 $378 -12.038839282741266 $293 -0.088272608736731137 $292 $415 forward 7 unknown #
point $-1 75.442976165044101 32.527717959132467 0.088272608736731137 #
coedge $-1 $296 $295 $370 $413 forward $196 $-1 #
point $-1 66.106170452063196 19.90355730476028 12.038839282741264 #
vertex $-1 $300 $416 #
straight-curve $-1 75.442976165044101 0 12.038839282741266 0 1 0 I I #
vertex $-1 $303 $417 #
point $-1 69.588386558006547 23.510460348866623 3.2332780101258392 #
vertex $-1 $307 $418 #
point $-1 69.588386558006547 28.920814915026128 3.2332780101258392 #
coedge $-1 $385 $313 $391 $419 reversed $218 $-1 #
coedge $-1 $313 $384 $316 $389 reversed $218 $-1 #
edge $-1 $387 -19.419899143159274 $321 -6.7957384887870944 $320 $420 forward 7 unknown #
vertex $-1 $315 $421 #
straight-curve $-1 -61.166472198997027 32.527717959132467 18.361364902039416 -0.61566146476048833 0 -0.78801076186113728 I I #
edge $-1 $317 66.106170452063211 $393 75.442976165044101 $385 $422 forward 7 unknown #
point $-1 -66.106170452063211 32.52771795913246 12.038839282741266 #
coedge $-1 $320 $319 $384 $419 forward $311 $-1 #
point $-1 -75.442976165044101 19.90355730476028 0.088272608736758684 #
vertex $-1 $389 $423 #
straight-curve $-1 -75.442976165044101 0 12.038839282741266 0 -1 0 I I #
vertex $-1 $327 $424 #
point $-1 -67.741402163725084 23.510460348866623 5.5973102957092351 #
vertex $-1 $331 $425 #
point $-1 -67.741402163725084 28.920814915026128 5.5973102957092351 #
straight-curve $-1 -75.442976165044101 32.527717959132467 0 0 0 -1 I I #
point $-1 -75.442976165044101 -32.527717959132467 -12.038839282741266 #
straight-curve $-1 -75.442976165044101 0 -12.038839282741266 0 1 0 I I #
point $-1 -75.442976165044101 32.527717959132467 -12.038839282741266 #
edge $-1 $356 -2.4758484534625858 $367 2.4758484534625858 $353 $426 forward 7 unknown #
coedge $-1 $354 $363 $358 $407 reversed $267 $-1 #
straight-curve $-1 0 -41.483318172076359 12.038839282741266 1 0 0 I I #
point $-1 -75.442976165044101 -41.483318172076359 12.038839282741266 #
edge $-1 $359 -2.4758484534625858 $365 2.4758484534625858 $358 $427 forward 7 unknown #
point $-1 75.442976165044101 -41.483318172076359 12.038839282741266 #
straight-curve $-1 0 -41.483318172076359 7.0871423758160947 -1 0 0 I I #
point $-1 75.442976165044101 -41.483318172076359 7.0871423758160947 #
point $-1 -75.442976165044101 -41.483318172076359 7.0871423758160947 #
straight-curve $-1 66.106170452063196 13.107818815973186 12.038839282741264 0 -1 0 I I #
edge $-1 $378 -75.442976165044101 $372 -66.106170452063196 $370 $428 forward 7 unknown #
point $-1 66.106170452063196 32.52771795913246 12.038839282741264 #
straight-curve $-1 75.442976165044101 32.527717959132467 0 0 0 -1 I I #
point $-1 75.442976165044101 32.527717959132467 12.038839282741266 #
point $-1 67.48287821807412 23.510460348866623 3.4918019557768125 #
point $-1 67.48287821807412 28.920814915026128 3.4918019557768125 #
edge $-1 $393 -12.038839282741266 $387 -0.088272608736758684 $384 $429 forward 7 unknown #
straight-curve $-1 -75.442976165044101 13.107818815973186 0.088272608736753938 0 -1 0 I I #
point $-1 -75.442976165044101 32.52771795913246 0.088272608736758684 #
straight-curve $-1 0 32.527717959132467 12.038839282741266 -1 0 0 I I #
point $-1 -75.442976165044101 32.527717959132467 12.038839282741266 #
point $-1 -67.48287821807412 23.510460348866623 3.4918019557767965 #
point $-1 -67.48287821807412 28.920814915026128 3.4918019557767965 #
straight-curve $-1 -75.442976165044101 -41.483318172076359 9.5629908292786805 0 0 -1 I I #
straight-curve $-1 75.442976165044101 -41.483318172076359 9.5629908292786805 0 0 -1 I I #
straight-curve $-1 0 32.527717959132467 12.038839282741266 -1 0 0 I I #
straight-curve $-1 -75.442976165044101 32.527717959132467 0 0 0 -1 I I #
End-of-ACIS-data 