500 0 7 0           
7 Unknown 11 ACIS 5.0 NT 24 Fri Mar 26 00:25:47 1999 
-1 9.9999999999999995e-007 1e-010 
body $-1 $7 $-1 $8 #
body $-1 $9 $-1 $10 #
body $-1 $11 $-1 $12 #
body $-1 $13 $-1 $14 #
body $-1 $15 $-1 $16 #
body $-1 $17 $-1 $18 #
body $-1 $19 $-1 $20 #
lump $-1 $-1 $21 $0 #
transform $-1 1 0 0 0 1 0 0 0 1 75.916623432111578 52.725991325305316 21.106487716781054 1 rotate no_reflect no_shear #
lump $-1 $-1 $22 $1 #
transform $-1 1 0 0 0 1 0 0 0 1 75.916623432111578 52.725991325305316 21.106487716781054 1 rotate no_reflect no_shear #
lump $-1 $-1 $23 $2 #
transform $-1 1 0 0 0 1 0 0 0 1 75.916623432111578 52.725991325305316 21.106487716781054 1 rotate no_reflect no_shear #
lump $-1 $-1 $24 $3 #
transform $-1 1 0 0 0 1 0 0 0 1 75.916623432111578 52.725991325305316 21.106487716781054 1 rotate no_reflect no_shear #
lump $-1 $-1 $25 $4 #
transform $-1 1 0 0 0 1 0 0 0 1 75.916623432111578 52.725991325305316 21.106487716781054 1 rotate no_reflect no_shear #
lump $-1 $-1 $26 $5 #
transform $-1 1 0 0 0 1 0 0 0 1 75.916623432111578 52.725991325305316 21.106487716781054 1 rotate no_reflect no_shear #
lump $-1 $-1 $27 $6 #
transform $-1 1 0 0 0 1 0 0 0 1 75.916623432111578 52.725991325305316 21.106487716781054 1 rotate no_reflect no_shear #
shell $-1 $-1 $-1 $28 $-1 $7 #
shell $-1 $-1 $-1 $29 $-1 $9 #
shell $-1 $-1 $-1 $30 $-1 $11 #
shell $-1 $-1 $-1 $31 $-1 $13 #
shell $-1 $-1 $-1 $32 $-1 $15 #
shell $-1 $-1 $-1 $33 $-1 $17 #
shell $-1 $-1 $-1 $34 $-1 $19 #
face $-1 $35 $36 $21 $-1 $37 forward single #
face $-1 $38 $39 $22 $-1 $40 forward single #
face $-1 $41 $42 $23 $-1 $43 forward single #
face $-1 $44 $45 $24 $-1 $46 reversed single #
face $-1 $47 $48 $25 $-1 $49 forward single #
face $-1 $50 $51 $26 $-1 $52 forward single #
face $-1 $53 $54 $27 $-1 $55 forward single #
face $-1 $56 $57 $21 $-1 $58 reversed single #
loop $-1 $-1 $59 $28 #
plane-surface $-1 0 0 21.106487716781054 0 0 1 1 0 0 forward_v I I I I #
face $-1 $60 $61 $22 $-1 $62 forward single #
loop $-1 $-1 $63 $29 #
plane-surface $-1 0 -52.725991325305316 0 0 1 0 0 0 1 forward_v I I I I #
face $-1 $64 $65 $23 $-1 $66 reversed single #
loop $-1 $-1 $67 $30 #
plane-surface $-1 0 44.617034239562898 -9.5479368306009746 0 0 1 1 0 0 forward_v I I I I #
face $-1 $68 $69 $24 $-1 $70 reversed single #
loop $-1 $-1 $71 $31 #
plane-surface $-1 60.938192197942101 20.007433756627314 223.24183682680874 0 -1 0 -0.6560590369687036 0 -0.75470957328743171 forward_v I I I I #
face $-1 $72 $73 $25 $-1 $74 forward single #
loop $-1 $75 $76 $32 #
cone-surface $-1 68.405433253184626 13.773445035206066 14.416644092166116 -0.6560590369687036 0 -0.75470957328743171 0.37735478664371586 0 -0.3280295184843518 1 I I 0 1 0.5 forward I I I I #
face $-1 $77 $78 $26 $-1 $79 forward single #
loop $-1 $80 $81 $33 #
cone-surface $-1 68.405433253184626 16.111190805739028 14.416644092166116 -0.6560590369687036 0 -0.75470957328743171 0.37735478664371586 0 -0.3280295184843518 1 I I 0 1 0.5 forward I I I I #
face $-1 $82 $83 $27 $-1 $84 forward single #
loop $-1 $85 $86 $34 #
cone-surface $-1 68.405433253184626 18.44893657627199 14.416644092166116 -0.6560590369687036 0 -0.75470957328743171 0.37735478664371586 0 -0.3280295184843518 1 I I 0 1 0.5 forward I I I I #
face $-1 $87 $88 $21 $-1 $89 reversed single #
loop $-1 $-1 $90 $35 #
plane-surface $-1 0 0 -21.106487716781054 0 0 1 1 0 0 forward_v I I I I #
coedge $-1 $91 $92 $93 $94 forward $36 $-1 #
face $-1 $95 $96 $22 $-1 $97 reversed single #
loop $-1 $-1 $98 $38 #
plane-surface $-1 0 0 21.106487716781054 0 0 1 1 0 0 forward_v I I I I #
coedge $-1 $99 $100 $101 $102 forward $39 $-1 #
face $-1 $103 $104 $23 $-1 $105 reversed single #
loop $-1 $-1 $106 $41 #
plane-surface $-1 0 36.508077153820473 -15.327212273691014 0 1 0 0 0 1 forward_v I I I I #
coedge $-1 $107 $108 $109 $110 reversed $42 $-1 #
face $-1 $111 $112 $24 $-1 $113 reversed single #
loop $-1 $-1 $114 $44 #
plane-surface $-1 -38.673381519631576 16.111190805739042 108.6518318750656 0.6560590369687036 0 0.75470957328743171 0.75470957328743171 0 -0.6560590369687036 forward_v I I I I #
coedge $-1 $115 $116 $117 $118 reversed $45 $-1 #
face $-1 $-1 $119 $25 $-1 $120 forward single #
loop $-1 $121 $122 $47 #
cone-surface $-1 67.670532806479798 13.773445035206066 13.571237853873875 -0.6560590369687036 0 -0.75470957328743171 0.18867739332185793 0 -0.1640147592421759 1 I I -0.70710678118654746 0.70710678118654746 0.25 forward I I I I #
loop $-1 $-1 $123 $32 #
coedge $-1 $76 $76 $124 $125 reversed $48 $-1 #
face $-1 $-1 $126 $26 $-1 $127 forward single #
loop $-1 $128 $129 $50 #
cone-surface $-1 67.670532806479798 16.111190805739028 13.571237853873875 -0.6560590369687036 0 -0.75470957328743171 0.18867739332185793 0 -0.1640147592421759 1 I I -0.70710678118654746 0.70710678118654746 0.25 forward I I I I #
loop $-1 $-1 $130 $33 #
coedge $-1 $81 $81 $131 $132 reversed $51 $-1 #
face $-1 $-1 $133 $27 $-1 $134 forward single #
loop $-1 $135 $136 $53 #
cone-surface $-1 67.670532806479798 18.44893657627199 13.571237853873875 -0.6560590369687036 0 -0.75470957328743171 0.18867739332185793 0 -0.1640147592421759 1 I I -0.70710678118654746 0.70710678118654746 0.25 forward I I I I #
loop $-1 $-1 $137 $34 #
coedge $-1 $86 $86 $138 $139 reversed $54 $-1 #
face $-1 $140 $141 $21 $-1 $142 reversed single #
loop $-1 $-1 $143 $56 #
plane-surface $-1 0 -52.725991325305316 0 0 1 0 0 0 1 forward_v I I I I #
coedge $-1 $144 $145 $146 $147 forward $57 $-1 #
coedge $-1 $148 $59 $149 $150 forward $36 $-1 #
coedge $-1 $59 $148 $151 $152 forward $36 $-1 #
coedge $-1 $153 $154 $59 $94 reversed $155 $-1 #
edge $-1 $156 -52.725991325305316 $157 52.725991325305316 $93 $158 forward 7 unknown #
face $-1 $159 $160 $22 $-1 $161 reversed single #
loop $-1 $-1 $162 $60 #
plane-surface $-1 -75.916623432111578 0 0 1 0 0 0 0 -1 forward_v I I I I #
coedge $-1 $163 $164 $165 $166 forward $61 $-1 #
coedge $-1 $165 $63 $162 $167 reversed $39 $-1 #
coedge $-1 $63 $165 $168 $169 reversed $39 $-1 #
coedge $-1 $170 $171 $63 $102 reversed $160 $-1 #
edge $-1 $172 -75.916623432111578 $173 75.916623432111578 $101 $174 forward 7 unknown #
face $-1 $175 $176 $23 $-1 $177 reversed single #
loop $-1 $-1 $109 $64 #
plane-surface $-1 75.916623432111578 0 0 -1 0 0 0 0 1 forward_v I I I I #
coedge $-1 $178 $179 $180 $181 reversed $65 $-1 #
coedge $-1 $182 $67 $183 $184 reversed $42 $-1 #
coedge $-1 $67 $182 $179 $185 forward $42 $-1 #
coedge $-1 $186 $187 $67 $110 forward $104 $-1 #
edge $-1 $188 -30.417474205523874 $189 -14.199560034039024 $109 $190 forward 7 unknown #
face $-1 $191 $192 $24 $-1 $193 forward single #
loop $-1 $-1 $194 $68 #
plane-surface $-1 60.938192197942101 12.21494785485077 223.24183682680874 0 1 0 0.6560590369687036 0 0.75470957328743171 forward_v I I I I #
coedge $-1 $195 $196 $197 $198 reversed $69 $-1 #
coedge $-1 $116 $71 $199 $200 reversed $45 $-1 #
coedge $-1 $71 $115 $195 $201 reversed $45 $-1 #
coedge $-1 $197 $202 $71 $118 forward $192 $-1 #
edge $-1 $203 -45.447527333140528 $204 -31.566918350211864 $117 $205 forward 7 unknown #
loop $-1 $-1 $124 $72 #
plane-surface $-1 -38.673381519631576 16.111190805739042 108.6518318750656 0.6560590369687036 0 0.75470957328743171 0.75470957328743171 0 -0.6560590369687036 forward_v I I I I #
loop $-1 $-1 $206 $47 #
coedge $-1 $122 $122 $123 $207 reversed $73 $-1 #
coedge $-1 $123 $123 $122 $207 forward $75 $-1 #
coedge $-1 $124 $124 $76 $125 forward $119 $-1 #
edge $-1 $208 0 $208 6.2831853071796004 $124 $209 forward 7 unknown #
loop $-1 $-1 $131 $77 #
plane-surface $-1 -38.673381519631576 16.111190805739042 108.6518318750656 0.6560590369687036 0 0.75470957328743171 0.75470957328743171 0 -0.6560590369687036 forward_v I I I I #
loop $-1 $-1 $210 $50 #
coedge $-1 $129 $129 $130 $211 reversed $78 $-1 #
coedge $-1 $130 $130 $129 $211 forward $80 $-1 #
coedge $-1 $131 $131 $81 $132 forward $126 $-1 #
edge $-1 $212 0 $212 6.2831853071796004 $131 $213 forward 7 unknown #
loop $-1 $-1 $138 $82 #
plane-surface $-1 -38.673381519631576 16.111190805739042 108.6518318750656 0.6560590369687036 0 0.75470957328743171 0.75470957328743171 0 -0.6560590369687036 forward_v I I I I #
loop $-1 $-1 $214 $53 #
coedge $-1 $136 $136 $137 $215 reversed $83 $-1 #
coedge $-1 $137 $137 $136 $215 forward $85 $-1 #
coedge $-1 $138 $138 $86 $139 forward $133 $-1 #
edge $-1 $216 0 $216 6.2831853071796004 $138 $217 forward 7 unknown #
face $-1 $218 $219 $21 $-1 $220 reversed single #
loop $-1 $-1 $221 $87 #
plane-surface $-1 -75.916623432111578 0 0 1 0 0 0 0 -1 forward_v I I I I #
coedge $-1 $222 $151 $223 $224 forward $88 $-1 #
coedge $-1 $225 $90 $222 $226 forward $57 $-1 #
coedge $-1 $90 $225 $227 $228 forward $57 $-1 #
coedge $-1 $154 $153 $90 $147 reversed $155 $-1 #
edge $-1 $229 -52.725991325305316 $230 52.725991325305316 $146 $231 forward 7 unknown #
coedge $-1 $92 $91 $232 $233 forward $36 $-1 #
coedge $-1 $234 $235 $91 $150 reversed $219 $-1 #
edge $-1 $157 -75.916623432111578 $236 75.916623432111578 $149 $237 forward 7 unknown #
coedge $-1 $143 $238 $92 $152 reversed $88 $-1 #
edge $-1 $239 -75.916623432111578 $156 75.916623432111578 $151 $240 forward 7 unknown #
coedge $-1 $146 $93 $238 $241 forward $155 $-1 #
coedge $-1 $93 $146 $234 $242 reversed $155 $-1 #
loop $-1 $-1 $153 $218 #
vertex $-1 $94 $243 #
vertex $-1 $94 $244 #
straight-curve $-1 75.916623432111578 0 21.106487716781054 0 1 0 I I #
face $-1 $245 $246 $22 $-1 $247 reversed single #
loop $-1 $-1 $170 $95 #
plane-surface $-1 0 -66.431378686643484 12.392194991623303 0 0 1 1 0 0 forward_v I I I I #
coedge $-1 $248 $249 $99 $167 forward $96 $-1 #
coedge $-1 $250 $98 $249 $251 forward $61 $-1 #
coedge $-1 $98 $250 $252 $253 forward $61 $-1 #
coedge $-1 $100 $99 $98 $166 reversed $39 $-1 #
edge $-1 $254 -75.916623432111578 $255 75.916623432111578 $98 $256 forward 7 unknown #
edge $-1 $255 -21.106487716781054 $173 -12.392194991623303 $162 $257 forward 7 unknown #
coedge $-1 $252 $258 $100 $169 forward $259 $-1 #
edge $-1 $172 12.392194991623303 $254 21.106487716781054 $168 $260 forward 7 unknown #
coedge $-1 $261 $101 $258 $262 forward $160 $-1 #
coedge $-1 $101 $261 $248 $263 forward $160 $-1 #
vertex $-1 $169 $264 #
vertex $-1 $167 $265 #
straight-curve $-1 0 -52.725991325305316 12.392194991623303 -1 0 0 I I #
face $-1 $266 $267 $23 $-1 $268 reversed single #
loop $-1 $-1 $269 $103 #
plane-surface $-1 0 0 -21.106487716781054 0 0 1 1 0 0 forward_v I I I I #
coedge $-1 $270 $106 $269 $271 reversed $65 $-1 #
coedge $-1 $106 $270 $108 $185 reversed $65 $-1 #
coedge $-1 $272 $273 $106 $181 forward $267 $-1 #
edge $-1 $274 -13.442881579935547 $275 -1.8843306937554676 $180 $276 forward 7 unknown #
coedge $-1 $108 $107 $272 $277 reversed $42 $-1 #
coedge $-1 $278 $279 $107 $184 forward $280 $-1 #
edge $-1 $281 -75.916623432111578 $188 75.916623432111578 $183 $282 forward 7 unknown #
edge $-1 $275 -75.916623432111578 $189 75.916623432111578 $179 $283 forward 7 unknown #
coedge $-1 $284 $109 $270 $285 forward $104 $-1 #
coedge $-1 $109 $284 $278 $286 reversed $104 $-1 #
vertex $-1 $286 $287 #
vertex $-1 $110 $288 #
straight-curve $-1 75.916623432111578 22.308517119781449 -9.5479368306009746 0 -1 0 I I #
face $-1 $-1 $289 $24 $-1 $290 reversed single #
loop $-1 $-1 $117 $111 #
plane-surface $-1 0 0 21.106487716781054 0 0 1 1 0 0 forward_v I I I I #
coedge $-1 $291 $292 $293 $294 reversed $112 $-1 #
coedge $-1 $295 $114 $116 $201 forward $69 $-1 #
coedge $-1 $114 $295 $291 $296 forward $69 $-1 #
coedge $-1 $293 $117 $114 $198 forward $192 $-1 #
edge $-1 $204 -11.951838353757793 $297 -4.159352451981249 $197 $298 forward 7 unknown #
coedge $-1 $299 $300 $115 $200 forward $289 $-1 #
edge $-1 $301 -102.58066025591248 $203 -90.514430696623322 $199 $302 forward 7 unknown #
edge $-1 $204 133.44125943723685 $301 151.83324686422321 $116 $303 forward 7 unknown #
coedge $-1 $117 $293 $299 $304 forward $192 $-1 #
vertex $-1 $200 $305 #
vertex $-1 $118 $306 #
straight-curve $-1 30.46909609897105 20.007433756627314 21.106487716781061 -1 0 0 I I #
coedge $-1 $206 $206 $-1 $307 reversed $121 $-1 #
edge $-1 $308 0 $308 6.2831853071796004 $122 $309 forward 7 unknown #
vertex $-1 $125 $310 #
ellipse-curve $-1 68.976318940647261 13.773445035206066 15.073372937136481 0.6560590369687036 0 0.75470957328743171 0.37735478664371586 0 -0.3280295184843518 1 I I #
coedge $-1 $210 $210 $-1 $311 reversed $128 $-1 #
edge $-1 $312 0 $312 6.2831853071796004 $129 $313 forward 7 unknown #
vertex $-1 $132 $314 #
ellipse-curve $-1 68.976318940647261 16.111190805739028 15.073372937136481 0.6560590369687036 0 0.75470957328743171 0.37735478664371586 0 -0.3280295184843518 1 I I #
coedge $-1 $214 $214 $-1 $315 reversed $135 $-1 #
edge $-1 $316 0 $316 6.2831853071796004 $136 $317 forward 7 unknown #
vertex $-1 $139 $318 #
ellipse-curve $-1 68.976318940647261 18.44893657627199 15.073372937136481 0.6560590369687036 0 0.75470957328743171 0.37735478664371586 0 -0.3280295184843518 1 I I #
face $-1 $-1 $155 $21 $-1 $319 reversed single #
loop $-1 $-1 $234 $140 #
plane-surface $-1 0 52.725991325305316 0 0 -1 0 0 0 -1 forward_v I I I I #
coedge $-1 $320 $232 $235 $321 forward $141 $-1 #
coedge $-1 $238 $143 $144 $226 reversed $88 $-1 #
coedge $-1 $232 $320 $143 $224 reversed $141 $-1 #
edge $-1 $239 -21.106487716781054 $322 21.106487716781054 $223 $323 forward 7 unknown #
coedge $-1 $145 $144 $320 $324 forward $57 $-1 #
edge $-1 $230 -75.916623432111578 $322 75.916623432111578 $222 $325 forward 7 unknown #
coedge $-1 $235 $234 $145 $228 reversed $219 $-1 #
edge $-1 $326 -75.916623432111578 $229 75.916623432111578 $227 $327 forward 7 unknown #
vertex $-1 $147 $328 #
vertex $-1 $241 $329 #
straight-curve $-1 75.916623432111578 0 -21.106487716781054 0 -1 0 I I #
coedge $-1 $221 $223 $148 $233 reversed $141 $-1 #
edge $-1 $236 -52.725991325305316 $239 52.725991325305316 $232 $330 forward 7 unknown #
coedge $-1 $227 $149 $154 $242 forward $219 $-1 #
coedge $-1 $149 $227 $221 $321 reversed $219 $-1 #
vertex $-1 $150 $331 #
straight-curve $-1 0 52.725991325305316 21.106487716781054 -1 0 0 I I #
coedge $-1 $151 $222 $153 $241 reversed $88 $-1 #
vertex $-1 $233 $332 #
straight-curve $-1 0 -52.725991325305316 21.106487716781054 1 0 0 I I #
edge $-1 $156 -21.106487716781054 $230 21.106487716781054 $153 $333 forward 7 unknown #
edge $-1 $157 -21.106487716781054 $229 21.106487716781054 $154 $334 forward 7 unknown #
point $-1 75.916623432111578 -52.725991325305316 21.106487716781054 #
point $-1 75.916623432111578 52.725991325305316 21.106487716781054 #
face $-1 $-1 $259 $22 $-1 $335 reversed single #
loop $-1 $-1 $336 $159 #
plane-surface $-1 0 -80.136766047981652 16.74934135420218 0 1 0 0 0 1 forward_v I I I I #
coedge $-1 $337 $162 $171 $263 reversed $96 $-1 #
coedge $-1 $162 $337 $163 $251 reversed $96 $-1 #
coedge $-1 $164 $163 $338 $339 forward $61 $-1 #
edge $-1 $255 52.725991325305316 $340 80.136766047981652 $249 $341 forward 7 unknown #
coedge $-1 $342 $168 $164 $253 reversed $259 $-1 #
edge $-1 $343 -80.136766047981652 $254 -52.725991325305316 $252 $344 forward 7 unknown #
vertex $-1 $169 $345 #
vertex $-1 $251 $346 #
straight-curve $-1 0 -52.725991325305316 21.106487716781054 -1 0 0 I I #
straight-curve $-1 -75.916623432111578 -52.725991325305316 0 0 0 -1 I I #
coedge $-1 $168 $342 $170 $262 reversed $259 $-1 #
loop $-1 $-1 $168 $245 #
straight-curve $-1 75.916623432111578 -52.725991325305316 0 0 0 1 I I #
coedge $-1 $171 $170 $347 $348 forward $160 $-1 #
edge $-1 $172 -13.705387361338168 $349 13.705387361338168 $258 $350 forward 7 unknown #
edge $-1 $351 -13.705387361338168 $173 13.705387361338168 $248 $352 forward 7 unknown #
point $-1 75.916623432111578 -52.725991325305316 12.392194991623303 #
point $-1 -75.916623432111578 -52.725991325305316 12.392194991623303 #
face $-1 $-1 $280 $23 $-1 $353 reversed single #
loop $-1 $-1 $272 $175 #
plane-surface $-1 -75.916623432111578 0 0 1 0 0 0 0 -1 forward_v I I I I #
coedge $-1 $354 $355 $178 $271 forward $176 $-1 #
coedge $-1 $179 $178 $186 $285 reversed $65 $-1 #
edge $-1 $356 -75.916623432111578 $274 75.916623432111578 $269 $357 forward 7 unknown #
coedge $-1 $358 $180 $182 $277 forward $267 $-1 #
coedge $-1 $180 $358 $354 $359 reversed $267 $-1 #
vertex $-1 $359 $360 #
vertex $-1 $277 $361 #
straight-curve $-1 -75.916623432111578 36.508077153820473 -7.6636061368455071 0 0 1 I I #
edge $-1 $275 14.199560034039024 $281 30.417474205523874 $272 $362 forward 7 unknown #
coedge $-1 $363 $183 $187 $286 forward $280 $-1 #
coedge $-1 $183 $363 $358 $364 reversed $280 $-1 #
loop $-1 $-1 $183 $266 #
vertex $-1 $364 $365 #
straight-curve $-1 0 52.725991325305316 -9.5479368306009746 1 0 0 I I #
straight-curve $-1 0 36.508077153820473 -9.5479368306009746 1 0 0 I I #
coedge $-1 $187 $186 $355 $366 reversed $104 $-1 #
edge $-1 $189 1.8843306937554676 $356 13.442881579935547 $186 $367 forward 7 unknown #
edge $-1 $188 9.5479368306009746 $368 21.106487716781054 $187 $369 forward 7 unknown #
point $-1 75.916623432111578 52.725991325305323 -9.5479368306009746 #
point $-1 75.916623432111578 36.508077153820473 -9.5479368306009746 #
loop $-1 $-1 $199 $191 #
plane-surface $-1 75.916623432111578 0 0 -1 0 0 0 0 1 forward_v I I I I #
coedge $-1 $292 $194 $196 $296 reversed $112 $-1 #
coedge $-1 $194 $291 $370 $371 reversed $112 $-1 #
coedge $-1 $202 $197 $194 $294 forward $192 $-1 #
edge $-1 $297 31.566918350211864 $372 45.447527333140528 $293 $373 forward 7 unknown #
coedge $-1 $196 $195 $300 $374 reversed $69 $-1 #
edge $-1 $375 -151.83324686422321 $297 -133.44125943723685 $291 $376 forward 7 unknown #
vertex $-1 $198 $377 #
straight-curve $-1 62.036014449182908 8.0555954028695211 21.106487716781061 0 -1 0 I I #
coedge $-1 $370 $199 $202 $304 reversed $289 $-1 #
coedge $-1 $199 $370 $295 $374 forward $289 $-1 #
vertex $-1 $200 $378 #
straight-curve $-1 75.916623432111578 20.007433756627314 111.62091841340437 0 0 1 I I #
straight-curve $-1 -38.673381519631576 20.007433756627314 108.6518318750656 0.75470957328743171 0 -0.6560590369687036 I I #
edge $-1 $372 12.21494785485077 $203 20.007433756627314 $299 $379 forward 7 unknown #
point $-1 75.916623432111578 20.007433756627314 21.106487716781054 #
point $-1 62.036014449182915 20.007433756627314 21.106487716781061 #
edge $-1 $380 1 $380 0 $206 $-1 forward 7 unknown #
vertex $-1 $207 $381 #
ellipse-curve $-1 67.834547565721977 13.773445035206066 13.759915247195732 0.6560590369687036 0 0.75470957328743171 0.37735478664371586 0 -0.3280295184843518 1 I I #
point $-1 69.353673727290996 13.773445035206066 14.745343418652148 #
edge $-1 $382 1 $382 0 $210 $-1 forward 7 unknown #
vertex $-1 $211 $383 #
ellipse-curve $-1 67.834547565721977 16.111190805739028 13.759915247195732 0.6560590369687036 0 0.75470957328743171 0.37735478664371586 0 -0.3280295184843518 1 I I #
point $-1 69.353673727290996 16.111190805739028 14.745343418652148 #
edge $-1 $384 1 $384 0 $214 $-1 forward 7 unknown #
vertex $-1 $215 $385 #
ellipse-curve $-1 67.834547565721977 18.44893657627199 13.759915247195732 0.6560590369687036 0 0.75470957328743171 0.37735478664371586 0 -0.3280295184843518 1 I I #
point $-1 69.353673727290996 18.44893657627199 14.745343418652148 #
plane-surface $-1 75.916623432111578 0 0 -1 0 0 0 0 1 forward_v I I I I #
coedge $-1 $223 $221 $225 $324 reversed $141 $-1 #
edge $-1 $236 -21.106487716781054 $326 21.106487716781054 $235 $386 forward 7 unknown #
vertex $-1 $324 $387 #
straight-curve $-1 -75.916623432111578 -52.725991325305316 0 0 0 -1 I I #
edge $-1 $322 -52.725991325305316 $326 52.725991325305316 $320 $388 forward 7 unknown #
straight-curve $-1 0 -52.725991325305316 -21.106487716781054 -1 0 0 I I #
vertex $-1 $228 $389 #
straight-curve $-1 0 52.725991325305316 -21.106487716781054 1 0 0 I I #
point $-1 75.916623432111578 52.725991325305316 -21.106487716781054 #
point $-1 75.916623432111578 -52.725991325305316 -21.106487716781054 #
straight-curve $-1 -75.916623432111578 0 21.106487716781054 0 -1 0 I I #
point $-1 -75.916623432111578 52.725991325305316 21.106487716781054 #
point $-1 -75.916623432111578 -52.725991325305316 21.106487716781054 #
straight-curve $-1 75.916623432111578 -52.725991325305316 0 0 0 -1 I I #
straight-curve $-1 75.916623432111578 52.725991325305316 0 0 0 -1 I I #
plane-surface $-1 75.916623432111578 0 0 -1 0 0 0 0 1 forward_v I I I I #
coedge $-1 $347 $338 $337 $390 forward $246 $-1 #
coedge $-1 $249 $248 $336 $390 reversed $96 $-1 #
coedge $-1 $336 $391 $250 $339 reversed $246 $-1 #
edge $-1 $340 -75.916623432111578 $343 75.916623432111578 $338 $392 forward 7 unknown #
vertex $-1 $251 $393 #
straight-curve $-1 -75.916623432111578 0 21.106487716781054 0 -1 0 I I #
coedge $-1 $258 $252 $391 $394 forward $259 $-1 #
vertex $-1 $253 $395 #
straight-curve $-1 75.916623432111578 0 21.106487716781054 0 1 0 I I #
point $-1 75.916623432111578 -52.725991325305316 21.106487716781054 #
point $-1 -75.916623432111578 -52.725991325305316 21.106487716781054 #
coedge $-1 $391 $336 $261 $348 reversed $246 $-1 #
edge $-1 $349 -75.916623432111578 $351 75.916623432111578 $347 $396 forward 7 unknown #
vertex $-1 $394 $397 #
straight-curve $-1 75.916623432111578 -66.431378686643484 12.392194991623303 0 -1 0 I I #
vertex $-1 $263 $398 #
straight-curve $-1 -75.916623432111578 -66.431378686643484 12.392194991623303 0 1 0 I I #
plane-surface $-1 0 52.725991325305316 0 0 -1 0 0 0 -1 forward_v I I I I #
coedge $-1 $399 $269 $273 $359 forward $176 $-1 #
coedge $-1 $269 $399 $284 $366 forward $176 $-1 #
vertex $-1 $271 $400 #
straight-curve $-1 0 36.508077153820473 -21.106487716781054 -1 0 0 I I #
coedge $-1 $273 $272 $279 $364 forward $267 $-1 #
edge $-1 $274 36.508077153820473 $401 52.725991325305316 $273 $402 forward 7 unknown #
point $-1 -75.916623432111578 36.508077153820473 -21.106487716781054 #
point $-1 -75.916623432111578 36.508077153820473 -9.5479368306009746 #
straight-curve $-1 -75.916623432111578 22.308517119781449 -9.5479368306009746 0 1 0 I I #
coedge $-1 $279 $278 $399 $403 reversed $280 $-1 #
edge $-1 $281 9.5479368306009746 $401 21.106487716781054 $279 $404 forward 7 unknown #
point $-1 -75.916623432111578 52.725991325305323 -9.5479368306009746 #
edge $-1 $368 -52.725991325305316 $356 -36.508077153820473 $284 $405 forward 7 unknown #
straight-curve $-1 75.916623432111578 36.508077153820473 -7.6636061368455071 0 0 -1 I I #
vertex $-1 $366 $406 #
straight-curve $-1 75.916623432111578 52.725991325305316 0 0 0 -1 I I #
coedge $-1 $300 $299 $292 $371 forward $289 $-1 #
edge $-1 $372 90.514430696623322 $375 102.58066025591248 $370 $407 forward 7 unknown #
vertex $-1 $304 $408 #
straight-curve $-1 30.46909609897105 12.21494785485077 21.106487716781061 1 0 0 I I #
edge $-1 $375 4.159352451981249 $301 11.951838353757793 $300 $409 forward 7 unknown #
vertex $-1 $374 $410 #
straight-curve $-1 -38.673381519631576 12.21494785485077 108.6518318750656 -0.75470957328743171 0 0.6560590369687036 I I #
point $-1 62.036014449182915 12.21494785485077 21.106487716781061 #
point $-1 75.916623432111578 20.007433756627314 9.0402581574918912 #
straight-curve $-1 75.916623432111578 0 21.106487716781054 0 1 0 I I #
vertex $-1 $307 $411 #
point $-1 68.211902352365684 13.773445035206066 13.43188572871138 #
vertex $-1 $311 $412 #
point $-1 68.211902352365684 16.111190805739028 13.43188572871138 #
vertex $-1 $315 $413 #
point $-1 68.211902352365684 18.44893657627199 13.43188572871138 #
straight-curve $-1 -75.916623432111578 52.725991325305316 0 0 0 -1 I I #
point $-1 -75.916623432111578 -52.725991325305316 -21.106487716781054 #
straight-curve $-1 -75.916623432111578 0 -21.106487716781054 0 1 0 I I #
point $-1 -75.916623432111578 52.725991325305316 -21.106487716781054 #
edge $-1 $340 -4.3571463625788773 $351 4.3571463625788773 $337 $414 forward 7 unknown #
coedge $-1 $338 $347 $342 $394 reversed $246 $-1 #
straight-curve $-1 0 -80.136766047981652 21.106487716781057 1 0 0 I I #
point $-1 -75.916623432111578 -80.136766047981652 21.106487716781057 #
edge $-1 $343 -4.3571463625788773 $349 4.3571463625788773 $342 $415 forward 7 unknown #
point $-1 75.916623432111578 -80.136766047981652 21.106487716781057 #
straight-curve $-1 0 -80.136766047981652 12.392194991623303 -1 0 0 I I #
point $-1 75.916623432111578 -80.136766047981652 12.392194991623303 #
point $-1 -75.916623432111578 -80.136766047981652 12.392194991623303 #
coedge $-1 $355 $354 $363 $403 forward $176 $-1 #
point $-1 75.916623432111578 36.508077153820473 -21.106487716781054 #
vertex $-1 $403 $416 #
straight-curve $-1 -75.916623432111578 0 -21.106487716781054 0 1 0 I I #
edge $-1 $401 -75.916623432111578 $368 75.916623432111578 $363 $417 forward 7 unknown #
straight-curve $-1 -75.916623432111578 52.725991325305316 0 0 0 -1 I I #
straight-curve $-1 75.916623432111578 0 -21.106487716781054 0 -1 0 I I #
point $-1 75.916623432111578 52.725991325305316 -21.106487716781054 #
straight-curve $-1 75.916623432111578 12.21494785485077 111.62091841340437 0 0 -1 I I #
point $-1 75.916623432111578 12.21494785485077 21.106487716781054 #
straight-curve $-1 75.916623432111578 8.0555954028695211 9.0402581574918983 0 1 0 I I #
point $-1 75.916623432111578 12.21494785485077 9.0402581574918912 #
point $-1 67.50651804723762 13.773445035206066 13.382560460552018 #
point $-1 67.50651804723762 16.111190805739028 13.382560460552018 #
point $-1 67.50651804723762 18.44893657627199 13.382560460552018 #
straight-curve $-1 -75.916623432111578 -80.136766047981652 16.74934135420218 0 0 -1 I I #
straight-curve $-1 75.916623432111578 -80.136766047981652 16.74934135420218 0 0 -1 I I #
point $-1 -75.916623432111578 52.725991325305316 -21.106487716781054 #
straight-curve $-1 0 52.725991325305316 -21.106487716781054 1 0 0 I I #
End-of-ACIS-data 