500 0 10 0           
7 Unknown 11 ACIS 5.0 NT 24 Fri Mar 26 18:21:08 1999 
-1 9.9999999999999995e-007 1e-010 
body $-1 $10 $-1 $11 #
body $-1 $12 $-1 $13 #
body $-1 $14 $-1 $15 #
body $-1 $16 $-1 $17 #
body $-1 $18 $-1 $19 #
body $-1 $20 $-1 $21 #
body $-1 $22 $-1 $23 #
body $-1 $24 $-1 $25 #
body $-1 $26 $-1 $27 #
body $-1 $28 $-1 $29 #
lump $-1 $-1 $30 $0 #
transform $-1 1 0 0 0 1 0 0 0 1 51.06234931485946 22.953201560363414 8.6364336691708274 1 rotate no_reflect no_shear #
lump $-1 $-1 $31 $1 #
transform $-1 1 0 0 0 1 0 0 0 1 51.06234931485946 22.953201560363414 8.6364336691708274 1 rotate no_reflect no_shear #
lump $-1 $-1 $32 $2 #
transform $-1 1 0 0 0 1 0 0 0 1 51.06234931485946 22.953201560363414 8.6364336691708274 1 rotate no_reflect no_shear #
lump $-1 $-1 $33 $3 #
transform $-1 1 0 0 0 1 0 0 0 1 51.06234931485946 22.953201560363414 8.6364336691708274 1 rotate no_reflect no_shear #
lump $-1 $-1 $34 $4 #
transform $-1 1 0 0 0 1 0 0 0 1 51.06234931485946 22.953201560363414 8.6364336691708274 1 rotate no_reflect no_shear #
lump $-1 $-1 $35 $5 #
transform $-1 1 0 0 0 1 0 0 0 1 51.06234931485946 22.953201560363414 8.6364336691708274 1 rotate no_reflect no_shear #
lump $-1 $-1 $36 $6 #
transform $-1 1 0 0 0 1 0 0 0 1 51.06234931485946 22.953201560363414 8.6364336691708274 1 rotate no_reflect no_shear #
lump $-1 $-1 $37 $7 #
transform $-1 1 0 0 0 1 0 0 0 1 51.06234931485946 22.953201560363414 8.6364336691708274 1 rotate no_reflect no_shear #
lump $-1 $-1 $38 $8 #
transform $-1 1 0 0 0 1 0 0 0 1 51.06234931485946 22.953201560363414 8.6364336691708274 1 rotate no_reflect no_shear #
lump $-1 $-1 $39 $9 #
transform $-1 1 0 0 0 1 0 0 0 1 51.06234931485946 22.953201560363414 8.6364336691708274 1 rotate no_reflect no_shear #
shell $-1 $-1 $-1 $40 $-1 $10 #
shell $-1 $-1 $-1 $41 $-1 $12 #
shell $-1 $-1 $-1 $42 $-1 $14 #
shell $-1 $-1 $-1 $43 $-1 $16 #
shell $-1 $-1 $-1 $44 $-1 $18 #
shell $-1 $-1 $-1 $45 $-1 $20 #
shell $-1 $-1 $-1 $46 $-1 $22 #
shell $-1 $-1 $-1 $47 $-1 $24 #
shell $-1 $-1 $-1 $48 $-1 $26 #
shell $-1 $-1 $-1 $49 $-1 $28 #
face $-1 $50 $51 $30 $-1 $52 forward single #
face $-1 $53 $54 $31 $-1 $55 reversed single #
face $-1 $56 $57 $32 $-1 $58 reversed single #
face $-1 $59 $60 $33 $-1 $61 forward single #
face $-1 $62 $63 $34 $-1 $64 forward single #
face $-1 $65 $66 $35 $-1 $67 forward single #
face $-1 $68 $69 $36 $-1 $70 reversed single #
face $-1 $71 $72 $37 $-1 $73 forward single #
face $-1 $74 $75 $38 $-1 $76 forward single #
face $-1 $77 $78 $39 $-1 $79 forward single #
face $-1 $80 $81 $30 $-1 $82 reversed single #
loop $-1 $-1 $83 $40 #
plane-surface $-1 0 0 8.6364336691708274 0 0 1 1 0 0 forward_v I I I I #
face $-1 $84 $85 $31 $-1 $86 reversed single #
loop $-1 $-1 $87 $41 #
plane-surface $-1 -46.825280745237706 -19.831307513369158 0 0 -1 0 0 0 -1 forward_v I I I I #
face $-1 $88 $89 $32 $-1 $90 reversed single #
loop $-1 $-1 $91 $42 #
plane-surface $-1 36.371555189147841 59.028261872523601 107.81161566599093 1 0 0 0 -0.68199836817093118 -0.7313536940579346 forward_v I I I I #
face $-1 $92 $93 $33 $-1 $94 forward single #
loop $-1 $95 $96 $43 #
cone-surface $-1 39.309714014290165 18.117172956963227 3.9620053059179252 0 -0.68199836817093118 -0.7313536940579346 1 0 0 1 I I 0 1 1 forward I I I I #
face $-1 $97 $98 $34 $-1 $99 forward single #
loop $-1 $100 $101 $44 #
cone-surface $-1 43.716952252003651 18.117172956963227 3.9620053059179252 0 -0.68199836817093118 -0.7313536940579346 1 0 0 1 I I 0 1 1 forward I I I I #
face $-1 $102 $103 $35 $-1 $104 forward single #
loop $-1 $105 $106 $45 #
cone-surface $-1 48.124190489717137 18.117172956963227 3.9620053059179252 0 -0.68199836817093118 -0.7313536940579346 1 0 0 1 I I 0 1 1 forward I I I I #
face $-1 $107 $108 $36 $-1 $109 reversed single #
loop $-1 $-1 $110 $46 #
plane-surface $-1 43.716952252003651 -22.953201560363411 1.8142480516600585 0 -0.68199836817093118 0.7313536940579346 1 0 0 forward_v I I I I #
face $-1 $111 $112 $37 $-1 $113 forward single #
loop $-1 $114 $115 $47 #
cone-surface $-1 39.309714014290165 -18.117172956963223 3.9620053059179181 0 0.68199836817093118 -0.7313536940579346 1 0 0 1 I I 0 1 1 forward I I I I #
face $-1 $116 $117 $38 $-1 $118 forward single #
loop $-1 $119 $120 $48 #
cone-surface $-1 43.716952252003651 -18.117172956963223 3.9620053059179181 0 0.68199836817093118 -0.7313536940579346 1 0 0 1 I I 0 1 1 forward I I I I #
face $-1 $121 $122 $39 $-1 $123 forward single #
loop $-1 $124 $125 $49 #
cone-surface $-1 48.124190489717137 -18.117172956963223 3.9620053059179181 0 0.68199836817093118 -0.7313536940579346 1 0 0 1 I I 0 1 1 forward I I I I #
face $-1 $126 $127 $30 $-1 $128 reversed single #
loop $-1 $-1 $129 $50 #
plane-surface $-1 0 0 -8.6364336691708274 0 0 1 1 0 0 forward_v I I I I #
coedge $-1 $130 $131 $132 $133 forward $51 $-1 #
face $-1 $134 $135 $31 $-1 $136 forward single #
loop $-1 $-1 $137 $53 #
plane-surface $-1 -42.588212175615951 -21.392254536866286 0 -1 0 0 0 0 1 forward_v I I I I #
coedge $-1 $138 $139 $140 $141 forward $54 $-1 #
face $-1 $142 $143 $32 $-1 $144 forward single #
loop $-1 $-1 $145 $56 #
plane-surface $-1 43.716952252003651 -10.62061594289284 33.122340068592706 0 0.68199836817093118 0.7313536940579346 1 0 0 forward_v I I I I #
coedge $-1 $146 $147 $148 $149 reversed $57 $-1 #
face $-1 $-1 $150 $33 $-1 $151 forward single #
loop $-1 $152 $153 $59 #
cone-surface $-1 39.309714014290165 16.598094283268491 2.332992904391439 0 -0.68199836817093118 -0.7313536940579346 0.5 0 0 1 I I -0.70710678118654746 0.70710678118654746 0.5 forward I I I I #
loop $-1 $-1 $154 $43 #
coedge $-1 $96 $96 $155 $156 reversed $60 $-1 #
face $-1 $-1 $157 $34 $-1 $158 forward single #
loop $-1 $159 $160 $62 #
cone-surface $-1 43.716952252003651 16.598094283268491 2.332992904391439 0 -0.68199836817093118 -0.7313536940579346 0.5 0 0 1 I I -0.70710678118654746 0.70710678118654746 0.5 forward I I I I #
loop $-1 $-1 $161 $44 #
coedge $-1 $101 $101 $162 $163 reversed $63 $-1 #
face $-1 $-1 $164 $35 $-1 $165 forward single #
loop $-1 $166 $167 $65 #
cone-surface $-1 48.124190489717137 16.598094283268491 2.332992904391439 0 -0.68199836817093118 -0.7313536940579346 0.5 0 0 1 I I -0.70710678118654746 0.70710678118654746 0.5 forward I I I I #
loop $-1 $-1 $168 $45 #
coedge $-1 $106 $106 $169 $170 reversed $66 $-1 #
face $-1 $171 $172 $36 $-1 $173 forward single #
loop $-1 $-1 $174 $68 #
plane-surface $-1 36.371555189147841 -92.602079375779851 76.50352364905828 1 0 0 0 0.68199836817093118 -0.7313536940579346 forward_v I I I I #
coedge $-1 $175 $176 $177 $178 reversed $69 $-1 #
face $-1 $-1 $179 $37 $-1 $180 forward single #
loop $-1 $181 $182 $71 #
cone-surface $-1 39.309714014290165 -16.598094283268487 2.3329929043914319 0 0.68199836817093118 -0.7313536940579346 0.5 0 0 1 I I -0.70710678118654746 0.70710678118654746 0.5 forward I I I I #
loop $-1 $-1 $183 $47 #
coedge $-1 $115 $115 $184 $185 reversed $72 $-1 #
face $-1 $-1 $186 $38 $-1 $187 forward single #
loop $-1 $188 $189 $74 #
cone-surface $-1 43.716952252003651 -16.598094283268487 2.3329929043914319 0 0.68199836817093118 -0.7313536940579346 0.5 0 0 1 I I -0.70710678118654746 0.70710678118654746 0.5 forward I I I I #
loop $-1 $-1 $190 $48 #
coedge $-1 $120 $120 $191 $192 reversed $75 $-1 #
face $-1 $-1 $193 $39 $-1 $194 forward single #
loop $-1 $195 $196 $77 #
cone-surface $-1 48.124190489717137 -16.598094283268487 2.3329929043914319 0 0.68199836817093118 -0.7313536940579346 0.5 0 0 1 I I -0.70710678118654746 0.70710678118654746 0.5 forward I I I I #
loop $-1 $-1 $197 $49 #
coedge $-1 $125 $125 $198 $199 reversed $78 $-1 #
face $-1 $200 $201 $30 $-1 $202 reversed single #
loop $-1 $-1 $203 $80 #
plane-surface $-1 0 -22.953201560363414 0 0 1 0 0 0 1 forward_v I I I I #
coedge $-1 $204 $205 $206 $207 forward $81 $-1 #
coedge $-1 $208 $83 $209 $210 forward $51 $-1 #
coedge $-1 $83 $208 $211 $212 forward $51 $-1 #
coedge $-1 $213 $214 $83 $133 reversed $215 $-1 #
edge $-1 $216 -22.953201560363414 $217 22.953201560363414 $132 $218 forward 7 unknown #
face $-1 $219 $220 $31 $-1 $221 reversed single #
loop $-1 $-1 $222 $84 #
plane-surface $-1 0 0 8.6364336691708274 0 0 1 1 0 0 forward_v I I I I #
coedge $-1 $223 $224 $225 $226 reversed $85 $-1 #
coedge $-1 $227 $87 $228 $229 reversed $54 $-1 #
coedge $-1 $87 $227 $230 $231 reversed $54 $-1 #
coedge $-1 $224 $223 $87 $141 reversed $85 $-1 #
edge $-1 $232 -8.6364336691708274 $233 8.6364336691708274 $140 $234 forward 7 unknown #
face $-1 $235 $236 $32 $-1 $237 reversed single #
loop $-1 $-1 $148 $88 #
plane-surface $-1 0 0 8.6364336691708274 0 0 1 1 0 0 forward_v I I I I #
coedge $-1 $238 $239 $240 $241 reversed $89 $-1 #
coedge $-1 $147 $91 $242 $243 reversed $57 $-1 #
coedge $-1 $91 $146 $238 $244 reversed $57 $-1 #
coedge $-1 $240 $245 $91 $149 forward $143 $-1 #
edge $-1 $246 6.560929375898386 $247 13.876827603480198 $148 $248 forward 7 unknown #
loop $-1 $-1 $155 $92 #
plane-surface $-1 43.716952252003651 -10.62061594289284 33.122340068592706 0 0.68199836817093118 0.7313536940579346 1 0 0 forward_v I I I I #
loop $-1 $-1 $249 $59 #
coedge $-1 $153 $153 $154 $250 reversed $93 $-1 #
coedge $-1 $154 $154 $153 $250 forward $95 $-1 #
coedge $-1 $155 $155 $96 $156 forward $150 $-1 #
edge $-1 $251 7.970020867888131e-017 $251 6.2831853071796004 $155 $252 forward 7 unknown #
loop $-1 $-1 $162 $97 #
plane-surface $-1 43.716952252003651 -10.62061594289284 33.122340068592706 0 0.68199836817093118 0.7313536940579346 1 0 0 forward_v I I I I #
loop $-1 $-1 $253 $62 #
coedge $-1 $160 $160 $161 $254 reversed $98 $-1 #
coedge $-1 $161 $161 $160 $254 forward $100 $-1 #
coedge $-1 $162 $162 $101 $163 forward $157 $-1 #
edge $-1 $255 7.970020867888131e-017 $255 6.2831853071796004 $162 $256 forward 7 unknown #
loop $-1 $-1 $169 $102 #
plane-surface $-1 43.716952252003651 -10.62061594289284 33.122340068592706 0 0.68199836817093118 0.7313536940579346 1 0 0 forward_v I I I I #
loop $-1 $-1 $257 $65 #
coedge $-1 $167 $167 $168 $258 reversed $103 $-1 #
coedge $-1 $168 $168 $167 $258 forward $105 $-1 #
coedge $-1 $169 $169 $106 $170 forward $164 $-1 #
edge $-1 $259 7.970020867888131e-017 $259 6.2831853071796004 $169 $260 forward 7 unknown #
face $-1 $261 $262 $36 $-1 $263 reversed single #
loop $-1 $-1 $177 $107 #
plane-surface $-1 0 0 8.6364336691708274 0 0 1 1 0 0 forward_v I I I I #
coedge $-1 $264 $265 $266 $267 reversed $108 $-1 #
coedge $-1 $268 $110 $269 $270 reversed $69 $-1 #
coedge $-1 $110 $268 $264 $271 forward $69 $-1 #
coedge $-1 $266 $272 $110 $178 forward $172 $-1 #
edge $-1 $273 -29.203873188857635 $274 -14.513079063146016 $177 $275 forward 7 unknown #
loop $-1 $-1 $184 $111 #
plane-surface $-1 43.716952252003651 -22.953201560363411 1.8142480516600585 0 -0.68199836817093118 0.7313536940579346 1 0 0 forward_v I I I I #
loop $-1 $-1 $276 $71 #
coedge $-1 $182 $182 $183 $277 reversed $112 $-1 #
coedge $-1 $183 $183 $182 $277 forward $114 $-1 #
coedge $-1 $184 $184 $115 $185 forward $179 $-1 #
edge $-1 $278 -1.6418633572399524e-015 $278 6.2831853071795987 $184 $279 forward 7 unknown #
loop $-1 $-1 $191 $116 #
plane-surface $-1 43.716952252003651 -22.953201560363411 1.8142480516600585 0 -0.68199836817093118 0.7313536940579346 1 0 0 forward_v I I I I #
loop $-1 $-1 $280 $74 #
coedge $-1 $189 $189 $190 $281 reversed $117 $-1 #
coedge $-1 $190 $190 $189 $281 forward $119 $-1 #
coedge $-1 $191 $191 $120 $192 forward $186 $-1 #
edge $-1 $282 -1.6418633572399524e-015 $282 6.2831853071795987 $191 $283 forward 7 unknown #
loop $-1 $-1 $198 $121 #
plane-surface $-1 43.716952252003651 -22.953201560363411 1.8142480516600585 0 -0.68199836817093118 0.7313536940579346 1 0 0 forward_v I I I I #
loop $-1 $-1 $284 $77 #
coedge $-1 $196 $196 $197 $285 reversed $122 $-1 #
coedge $-1 $197 $197 $196 $285 forward $124 $-1 #
coedge $-1 $198 $198 $125 $199 forward $193 $-1 #
edge $-1 $286 -1.6418633572399524e-015 $286 6.2831853071795987 $198 $287 forward 7 unknown #
face $-1 $288 $289 $30 $-1 $290 reversed single #
loop $-1 $-1 $291 $126 #
plane-surface $-1 -51.06234931485946 0 0 1 0 0 0 0 -1 forward_v I I I I #
coedge $-1 $292 $211 $293 $294 forward $127 $-1 #
coedge $-1 $295 $129 $292 $296 forward $81 $-1 #
coedge $-1 $129 $295 $297 $298 forward $81 $-1 #
coedge $-1 $214 $213 $129 $207 reversed $215 $-1 #
edge $-1 $299 -22.953201560363414 $300 22.953201560363414 $206 $301 forward 7 unknown #
coedge $-1 $131 $130 $302 $303 forward $51 $-1 #
coedge $-1 $304 $305 $130 $210 reversed $289 $-1 #
edge $-1 $217 -51.06234931485946 $306 51.06234931485946 $209 $307 forward 7 unknown #
coedge $-1 $203 $308 $131 $212 reversed $127 $-1 #
edge $-1 $309 -51.06234931485946 $216 51.06234931485946 $211 $310 forward 7 unknown #
coedge $-1 $206 $132 $308 $311 forward $215 $-1 #
coedge $-1 $132 $206 $304 $312 reversed $215 $-1 #
loop $-1 $-1 $213 $288 #
vertex $-1 $133 $313 #
vertex $-1 $133 $314 #
straight-curve $-1 51.06234931485946 0 8.6364336691708274 0 1 0 I I #
face $-1 $315 $316 $31 $-1 $317 reversed single #
loop $-1 $-1 $318 $134 #
plane-surface $-1 -51.06234931485946 0 0 1 0 0 0 0 -1 forward_v I I I I #
coedge $-1 $230 $319 $224 $320 forward $135 $-1 #
coedge $-1 $140 $137 $321 $322 reversed $85 $-1 #
coedge $-1 $137 $140 $222 $320 reversed $85 $-1 #
coedge $-1 $323 $324 $137 $226 forward $325 $-1 #
edge $-1 $326 -8.6364336691708274 $327 8.6364336691708274 $225 $328 forward 7 unknown #
coedge $-1 $139 $138 $318 $329 reversed $54 $-1 #
coedge $-1 $321 $330 $138 $229 forward $316 $-1 #
edge $-1 $331 -27.649708942240608 $233 -19.175571802997098 $228 $332 forward 7 unknown #
coedge $-1 $333 $222 $139 $231 forward $135 $-1 #
edge $-1 $232 19.175571802997098 $334 27.649708942240608 $230 $335 forward 7 unknown #
vertex $-1 $231 $336 #
vertex $-1 $229 $337 #
straight-curve $-1 -42.588212175615951 -19.831307513369158 0 0 0 -1 I I #
face $-1 $-1 $338 $32 $-1 $339 reversed single #
loop $-1 $-1 $340 $142 #
plane-surface $-1 51.06234931485946 0 0 -1 0 0 0 0 1 forward_v I I I I #
coedge $-1 $341 $145 $147 $244 forward $89 $-1 #
coedge $-1 $145 $341 $340 $342 reversed $89 $-1 #
coedge $-1 $343 $148 $145 $241 forward $143 $-1 #
edge $-1 $247 14.513079063146016 $344 29.203873188857635 $240 $345 forward 7 unknown #
coedge $-1 $346 $347 $146 $243 forward $338 $-1 #
edge $-1 $348 -52.091559781335391 $246 -45.269374163824637 $242 $349 forward 7 unknown #
edge $-1 $247 35.903174468131425 $348 45.906403120726814 $147 $350 forward 7 unknown #
coedge $-1 $148 $343 $346 $351 forward $143 $-1 #
vertex $-1 $243 $352 #
vertex $-1 $149 $353 #
straight-curve $-1 36.371555189147841 29.5141309362618 8.6364336691708274 0 -1 0 I I #
coedge $-1 $249 $249 $-1 $354 reversed $152 $-1 #
edge $-1 $355 0 $355 6.2831853071796004 $153 $356 forward 7 unknown #
vertex $-1 $156 $357 #
ellipse-curve $-1 39.309714014290165 19.295252446572508 5.2253408604154545 0 0.68199836817093118 0.7313536940579346 1 0 0 1 I I #
coedge $-1 $253 $253 $-1 $358 reversed $159 $-1 #
edge $-1 $359 0 $359 6.2831853071796004 $160 $360 forward 7 unknown #
vertex $-1 $163 $361 #
ellipse-curve $-1 43.716952252003651 19.295252446572508 5.2253408604154545 0 0.68199836817093118 0.7313536940579346 1 0 0 1 I I #
coedge $-1 $257 $257 $-1 $362 reversed $166 $-1 #
edge $-1 $363 0 $363 6.2831853071796004 $167 $364 forward 7 unknown #
vertex $-1 $170 $365 #
ellipse-curve $-1 48.124190489717137 19.295252446572508 5.2253408604154545 0 0.68199836817093118 0.7313536940579346 1 0 0 1 I I #
face $-1 $-1 $366 $36 $-1 $367 reversed single #
loop $-1 $-1 $368 $171 #
plane-surface $-1 0 -22.953201560363414 0 0 1 0 0 0 1 forward_v I I I I #
coedge $-1 $265 $174 $176 $271 reversed $108 $-1 #
coedge $-1 $174 $264 $369 $370 reversed $108 $-1 #
coedge $-1 $371 $177 $174 $267 forward $172 $-1 #
edge $-1 $274 -30.663736355108341 $372 -23.347838127526511 $266 $373 forward 7 unknown #
coedge $-1 $176 $175 $368 $374 reversed $69 $-1 #
coedge $-1 $375 $376 $175 $270 forward $366 $-1 #
edge $-1 $377 -7.7747972704693442 $273 2.2284313821260673 $269 $378 forward 7 unknown #
edge $-1 $379 -4.869801146221358e-015 $274 10.003228652595407 $264 $380 forward 7 unknown #
coedge $-1 $177 $371 $375 $381 forward $172 $-1 #
vertex $-1 $178 $382 #
vertex $-1 $178 $383 #
straight-curve $-1 21.858476126001825 -15.637303332781585 8.6364336691708274 -1 0 0 I I #
coedge $-1 $276 $276 $-1 $384 reversed $181 $-1 #
edge $-1 $385 0 $385 6.2831853071796004 $182 $386 forward 7 unknown #
vertex $-1 $185 $387 #
ellipse-curve $-1 39.309714014290165 -19.295252446572498 5.2253408604154421 0 -0.68199836817093118 0.7313536940579346 1 0 0 1 I I #
coedge $-1 $280 $280 $-1 $388 reversed $188 $-1 #
edge $-1 $389 0 $389 6.2831853071796004 $189 $390 forward 7 unknown #
vertex $-1 $192 $391 #
ellipse-curve $-1 43.716952252003651 -19.295252446572498 5.2253408604154421 0 -0.68199836817093118 0.7313536940579346 1 0 0 1 I I #
coedge $-1 $284 $284 $-1 $392 reversed $195 $-1 #
edge $-1 $393 0 $393 6.2831853071796004 $196 $394 forward 7 unknown #
vertex $-1 $199 $395 #
ellipse-curve $-1 48.124190489717137 -19.295252446572498 5.2253408604154421 0 -0.68199836817093118 0.7313536940579346 1 0 0 1 I I #
face $-1 $-1 $215 $30 $-1 $396 reversed single #
loop $-1 $-1 $304 $200 #
plane-surface $-1 0 22.953201560363414 0 0 -1 0 0 0 -1 forward_v I I I I #
coedge $-1 $397 $302 $305 $398 forward $201 $-1 #
coedge $-1 $308 $203 $204 $296 reversed $127 $-1 #
coedge $-1 $302 $397 $203 $294 reversed $201 $-1 #
edge $-1 $309 -8.6364336691708274 $399 8.6364336691708274 $293 $400 forward 7 unknown #
coedge $-1 $205 $204 $397 $401 forward $81 $-1 #
edge $-1 $300 -51.06234931485946 $399 51.06234931485946 $292 $402 forward 7 unknown #
coedge $-1 $305 $304 $205 $298 reversed $289 $-1 #
edge $-1 $403 -51.06234931485946 $299 51.06234931485946 $297 $404 forward 7 unknown #
vertex $-1 $207 $405 #
vertex $-1 $311 $406 #
straight-curve $-1 51.06234931485946 0 -8.6364336691708274 0 -1 0 I I #
coedge $-1 $291 $293 $208 $303 reversed $201 $-1 #
edge $-1 $306 -22.953201560363414 $309 22.953201560363414 $302 $407 forward 7 unknown #
coedge $-1 $297 $209 $214 $312 forward $289 $-1 #
coedge $-1 $209 $297 $291 $398 reversed $289 $-1 #
vertex $-1 $210 $408 #
straight-curve $-1 0 22.953201560363414 8.6364336691708274 -1 0 0 I I #
coedge $-1 $211 $292 $213 $311 reversed $127 $-1 #
vertex $-1 $303 $409 #
straight-curve $-1 0 -22.953201560363414 8.6364336691708274 1 0 0 I I #
edge $-1 $216 -8.6364336691708274 $300 8.6364336691708274 $213 $410 forward 7 unknown #
edge $-1 $217 -8.6364336691708274 $299 8.6364336691708274 $214 $411 forward 7 unknown #
point $-1 51.06234931485946 -22.953201560363414 8.6364336691708274 #
point $-1 51.06234931485946 22.953201560363414 8.6364336691708274 #
face $-1 $-1 $325 $31 $-1 $412 reversed single #
loop $-1 $-1 $321 $219 #
plane-surface $-1 0 0 -8.6364336691708274 0 0 1 1 0 0 forward_v I I I I #
coedge $-1 $413 $414 $227 $329 forward $220 $-1 #
coedge $-1 $222 $333 $323 $415 forward $135 $-1 #
edge $-1 $327 -12.257074291930271 $232 -9.1351802449360147 $222 $416 forward 7 unknown #
coedge $-1 $417 $228 $223 $322 forward $316 $-1 #
edge $-1 $233 9.1351802449360147 $326 12.257074291930271 $321 $418 forward 7 unknown #
coedge $-1 $419 $225 $319 $415 reversed $325 $-1 #
coedge $-1 $225 $419 $417 $420 reversed $325 $-1 #
loop $-1 $-1 $225 $315 #
vertex $-1 $420 $421 #
vertex $-1 $226 $422 #
straight-curve $-1 -42.588212175615951 -22.953201560363414 0 0 0 1 I I #
edge $-1 $334 -8.6364336691708274 $331 8.6364336691708274 $318 $423 forward 7 unknown #
coedge $-1 $228 $417 $413 $424 forward $316 $-1 #
vertex $-1 $229 $425 #
straight-curve $-1 -23.412640372618853 -19.831307513369158 -8.6364336691708274 1 0 0 I I #
coedge $-1 $319 $230 $414 $426 forward $135 $-1 #
vertex $-1 $426 $427 #
straight-curve $-1 -23.412640372618853 -19.831307513369158 8.6364336691708274 -1 0 0 I I #
point $-1 -42.588212175615951 -19.831307513369158 8.6364336691708274 #
point $-1 -42.588212175615951 -19.831307513369158 -8.6364336691708274 #
loop $-1 $-1 $242 $235 #
plane-surface $-1 0 22.953201560363414 0 0 -1 0 0 0 -1 forward_v I I I I #
coedge $-1 $428 $429 $239 $342 forward $236 $-1 #
coedge $-1 $239 $238 $347 $430 reversed $89 $-1 #
edge $-1 $344 20.724770178237357 $431 30.727998830832739 $340 $432 forward 7 unknown #
coedge $-1 $245 $240 $429 $433 forward $143 $-1 #
vertex $-1 $433 $434 #
straight-curve $-1 21.858476126001825 15.637303332781606 8.6364336691708274 1 0 0 I I #
coedge $-1 $435 $242 $245 $351 reversed $338 $-1 #
coedge $-1 $242 $435 $341 $430 forward $338 $-1 #
vertex $-1 $243 $436 #
straight-curve $-1 36.371555189147841 22.953201560363414 53.905807832995464 0 0 1 I I #
straight-curve $-1 36.371555189147841 -10.62061594289284 33.122340068592706 0 0.7313536940579346 -0.68199836817093118 I I #
edge $-1 $437 -51.06234931485946 $246 -36.371555189147841 $346 $438 forward 7 unknown #
point $-1 36.371555189147841 22.953201560363414 8.6364336691708274 #
point $-1 36.371555189147841 15.637303332781602 8.636433669170831 #
edge $-1 $439 1 $439 0 $249 $-1 forward 7 unknown #
vertex $-1 $250 $440 #
ellipse-curve $-1 39.309714014290165 16.939093467353956 2.6986697514204065 0 0.68199836817093118 0.7313536940579346 1 0 0 1 I I #
point $-1 40.309714014290165 19.295252446572498 5.225340860415443 #
edge $-1 $441 1 $441 0 $253 $-1 forward 7 unknown #
vertex $-1 $254 $442 #
ellipse-curve $-1 43.716952252003651 16.939093467353956 2.6986697514204065 0 0.68199836817093118 0.7313536940579346 1 0 0 1 I I #
point $-1 44.716952252003651 19.295252446572498 5.225340860415443 #
edge $-1 $443 1 $443 0 $257 $-1 forward 7 unknown #
vertex $-1 $258 $444 #
ellipse-curve $-1 48.124190489717137 16.939093467353956 2.6986697514204065 0 0.68199836817093118 0.7313536940579346 1 0 0 1 I I #
point $-1 49.124190489717137 19.295252446572498 5.225340860415443 #
loop $-1 $-1 $269 $261 #
plane-surface $-1 51.06234931485946 0 0 -1 0 0 0 0 1 forward_v I I I I #
coedge $-1 $445 $369 $268 $374 forward $262 $-1 #
coedge $-1 $368 $446 $265 $370 forward $262 $-1 #
edge $-1 $372 29.615328155358313 $379 36.437513772869082 $369 $447 forward 7 unknown #
coedge $-1 $272 $266 $446 $448 forward $172 $-1 #
vertex $-1 $448 $449 #
straight-curve $-1 36.371555189147841 -46.301039687889926 8.6364336691708274 0 -1 0 I I #
edge $-1 $379 14.513079063146016 $377 29.203873188857635 $368 $450 forward 7 unknown #
coedge $-1 $376 $269 $272 $381 reversed $366 $-1 #
coedge $-1 $269 $375 $445 $451 forward $366 $-1 #
vertex $-1 $374 $452 #
straight-curve $-1 51.06234931485946 -17.267074856054112 7.1166471029799565 0 0.7313536940579346 0.68199836817093118 I I #
vertex $-1 $374 $453 #
straight-curve $-1 36.371555189147841 -22.953201560363411 1.8142480516600585 0 0.7313536940579346 0.68199836817093118 I I #
edge $-1 $454 -22.953201560363414 $273 -15.637303332781585 $375 $455 forward 7 unknown #
point $-1 51.06234931485946 -15.637303332781585 8.6364336691708274 #
point $-1 36.371555189147841 -15.637303332781585 8.6364336691708274 #
edge $-1 $456 1 $456 0 $276 $-1 forward 7 unknown #
vertex $-1 $277 $457 #
ellipse-curve $-1 39.309714014290165 -16.939093467353953 2.6986697514203994 0 -0.68199836817093118 0.7313536940579346 1 0 0 1 I I #
point $-1 40.309714014290165 -19.295252446572494 5.2253408604154359 #
edge $-1 $458 1 $458 0 $280 $-1 forward 7 unknown #
vertex $-1 $281 $459 #
ellipse-curve $-1 43.716952252003651 -16.939093467353953 2.6986697514203994 0 -0.68199836817093118 0.7313536940579346 1 0 0 1 I I #
point $-1 44.716952252003651 -19.295252446572494 5.2253408604154359 #
edge $-1 $460 1 $460 0 $284 $-1 forward 7 unknown #
vertex $-1 $285 $461 #
ellipse-curve $-1 48.124190489717137 -16.939093467353953 2.6986697514203994 0 -0.68199836817093118 0.7313536940579346 1 0 0 1 I I #
point $-1 49.124190489717137 -19.295252446572494 5.2253408604154359 #
plane-surface $-1 51.06234931485946 0 0 -1 0 0 0 0 1 forward_v I I I I #
coedge $-1 $293 $291 $295 $401 reversed $201 $-1 #
edge $-1 $306 -8.6364336691708274 $403 8.6364336691708274 $305 $462 forward 7 unknown #
vertex $-1 $401 $463 #
straight-curve $-1 -51.06234931485946 -22.953201560363414 0 0 0 -1 I I #
edge $-1 $399 -22.953201560363414 $403 22.953201560363414 $397 $464 forward 7 unknown #
straight-curve $-1 0 -22.953201560363414 -8.6364336691708274 -1 0 0 I I #
vertex $-1 $298 $465 #
straight-curve $-1 0 22.953201560363414 -8.6364336691708274 1 0 0 I I #
point $-1 51.06234931485946 22.953201560363414 -8.6364336691708274 #
point $-1 51.06234931485946 -22.953201560363414 -8.6364336691708274 #
straight-curve $-1 -51.06234931485946 0 8.6364336691708274 0 -1 0 I I #
point $-1 -51.06234931485946 22.953201560363414 8.6364336691708274 #
point $-1 -51.06234931485946 -22.953201560363414 8.6364336691708274 #
straight-curve $-1 51.06234931485946 -22.953201560363414 0 0 0 -1 I I #
straight-curve $-1 51.06234931485946 22.953201560363414 0 0 0 -1 I I #
plane-surface $-1 0 -22.953201560363414 0 0 1 0 0 0 1 forward_v I I I I #
coedge $-1 $466 $318 $330 $424 reversed $220 $-1 #
coedge $-1 $318 $466 $333 $426 reversed $220 $-1 #
edge $-1 $467 -51.06234931485946 $327 -42.588212175615951 $323 $468 forward 7 unknown #
straight-curve $-1 -42.588212175615951 -10.696127268433143 8.6364336691708274 0 1 0 I I #
coedge $-1 $330 $321 $324 $420 forward $316 $-1 #
straight-curve $-1 -42.588212175615951 -10.696127268433143 -8.6364336691708274 0 -1 0 I I #
coedge $-1 $324 $323 $466 $469 forward $325 $-1 #
edge $-1 $326 42.588212175615951 $470 51.06234931485946 $324 $471 forward 7 unknown #
point $-1 -42.588212175615951 -22.953201560363414 -8.6364336691708274 #
point $-1 -42.588212175615951 -22.953201560363414 8.6364336691708274 #
straight-curve $-1 -51.06234931485946 -19.831307513369158 0 0 0 -1 I I #
edge $-1 $470 -22.953201560363414 $331 -19.831307513369158 $413 $472 forward 7 unknown #
point $-1 -51.06234931485946 -19.831307513369158 -8.6364336691708274 #
edge $-1 $334 19.831307513369158 $467 22.953201560363414 $414 $473 forward 7 unknown #
point $-1 -51.06234931485946 -19.831307513369158 8.6364336691708274 #
coedge $-1 $429 $340 $435 $474 reversed $236 $-1 #
coedge $-1 $340 $428 $343 $433 reversed $236 $-1 #
edge $-1 $431 -29.203873188857635 $348 -14.513079063146016 $347 $475 forward 7 unknown #
vertex $-1 $342 $476 #
straight-curve $-1 51.06234931485946 0.48016610442599283 22.770693111446285 0 0.7313536940579346 -0.68199836817093118 I I #
edge $-1 $344 15.637303332781602 $437 22.953201560363414 $429 $477 forward 7 unknown #
point $-1 51.06234931485946 15.637303332781602 8.636433669170831 #
coedge $-1 $347 $346 $428 $474 forward $338 $-1 #
point $-1 36.371555189147841 22.953201560363411 1.8142480516600763 #
vertex $-1 $433 $478 #
straight-curve $-1 0 22.953201560363414 8.6364336691708274 -1 0 0 I I #
vertex $-1 $354 $479 #
point $-1 40.309714014290165 16.939093467353956 2.6986697514204065 #
vertex $-1 $358 $480 #
point $-1 44.716952252003651 16.939093467353956 2.6986697514204065 #
vertex $-1 $362 $481 #
point $-1 49.124190489717137 16.939093467353956 2.6986697514204065 #
coedge $-1 $446 $368 $376 $451 reversed $262 $-1 #
coedge $-1 $369 $445 $371 $448 reversed $262 $-1 #
straight-curve $-1 36.371555189147841 -22.953201560363418 38.25176182452914 0 0 -1 I I #
edge $-1 $372 36.371555189147841 $454 51.06234931485946 $446 $482 forward 7 unknown #
point $-1 36.371555189147841 -22.953201560363414 8.6364336691708274 #
straight-curve $-1 21.858476126001825 -22.953201560363414 1.8142480516600528 1 0 0 I I #
edge $-1 $454 -8.6364336691708274 $377 -1.8142480516600552 $376 $483 forward 7 unknown #
point $-1 51.06234931485946 -22.953201560363414 1.8142480516600552 #
point $-1 36.371555189147841 -22.953201560363414 1.8142480516600552 #
vertex $-1 $381 $484 #
straight-curve $-1 51.06234931485946 0 8.6364336691708274 0 1 0 I I #
vertex $-1 $384 $485 #
point $-1 40.309714014290165 -16.939093467353953 2.6986697514203994 #
vertex $-1 $388 $486 #
point $-1 44.716952252003651 -16.939093467353953 2.6986697514203994 #
vertex $-1 $392 $487 #
point $-1 49.124190489717137 -16.939093467353953 2.6986697514203994 #
straight-curve $-1 -51.06234931485946 22.953201560363414 0 0 0 -1 I I #
point $-1 -51.06234931485946 -22.953201560363414 -8.6364336691708274 #
straight-curve $-1 -51.06234931485946 0 -8.6364336691708274 0 1 0 I I #
point $-1 -51.06234931485946 22.953201560363414 -8.6364336691708274 #
coedge $-1 $414 $413 $419 $469 reversed $220 $-1 #
vertex $-1 $426 $488 #
straight-curve $-1 0 -22.953201560363414 8.6364336691708274 1 0 0 I I #
edge $-1 $467 -8.6364336691708274 $470 8.6364336691708274 $466 $489 forward 7 unknown #
vertex $-1 $424 $490 #
straight-curve $-1 0 -22.953201560363414 -8.6364336691708274 -1 0 0 I I #
straight-curve $-1 -51.06234931485946 0 -8.6364336691708274 0 1 0 I I #
straight-curve $-1 -51.06234931485946 0 8.6364336691708274 0 -1 0 I I #
edge $-1 $437 -8.6364336691708274 $431 -1.8142480516600763 $428 $491 forward 7 unknown #
straight-curve $-1 21.858476126001825 22.953201560363411 1.8142480516600799 -1 0 0 I I #
point $-1 51.06234931485946 22.953201560363411 1.8142480516600763 #
straight-curve $-1 51.06234931485946 0 8.6364336691708274 0 1 0 I I #
point $-1 51.06234931485946 22.953201560363414 8.6364336691708274 #
point $-1 39.309714014290165 16.257095099183026 1.9673160573624717 #
point $-1 43.716952252003651 16.257095099183026 1.9673160573624717 #
point $-1 48.124190489717137 16.257095099183026 1.9673160573624717 #
straight-curve $-1 0 -22.953201560363414 8.6364336691708274 1 0 0 I I #
straight-curve $-1 51.06234931485946 -22.953201560363414 0 0 0 -1 I I #
point $-1 51.06234931485946 -22.953201560363414 8.6364336691708274 #
point $-1 39.309714014290165 -16.257095099183022 1.9673160573624646 #
point $-1 43.716952252003651 -16.257095099183022 1.9673160573624646 #
point $-1 48.124190489717137 -16.257095099183022 1.9673160573624646 #
point $-1 -51.06234931485946 -22.953201560363414 8.6364336691708274 #
straight-curve $-1 -51.06234931485946 -22.953201560363414 0 0 0 -1 I I #
point $-1 -51.06234931485946 -22.953201560363414 -8.6364336691708274 #
straight-curve $-1 51.06234931485946 22.953201560363414 0 0 0 -1 I I #
End-of-ACIS-data 