500 0 9 0           
7 Unknown 11 ACIS 5.0 NT 24 Fri Mar 26 19:18:52 1999 
-1 9.9999999999999995e-007 1e-010 
body $-1 $9 $-1 $10 #
body $-1 $11 $-1 $12 #
body $-1 $13 $-1 $14 #
body $-1 $15 $-1 $16 #
body $-1 $17 $-1 $18 #
body $-1 $19 $-1 $20 #
body $-1 $21 $-1 $22 #
body $-1 $23 $-1 $24 #
body $-1 $25 $-1 $26 #
lump $-1 $-1 $27 $0 #
transform $-1 1 0 0 0 1 0 0 0 1 45.052644428846094 28.187910823836773 10.842198982763964 1 rotate no_reflect no_shear #
lump $-1 $-1 $28 $1 #
transform $-1 1 0 0 0 1 0 0 0 1 45.052644428846094 28.187910823836773 10.842198982763964 1 rotate no_reflect no_shear #
lump $-1 $-1 $29 $2 #
transform $-1 1 0 0 0 1 0 0 0 1 45.052644428846094 28.187910823836773 10.842198982763964 1 rotate no_reflect no_shear #
lump $-1 $-1 $30 $3 #
transform $-1 1 0 0 0 1 0 0 0 1 45.052644428846094 28.187910823836773 10.842198982763964 1 rotate no_reflect no_shear #
lump $-1 $-1 $31 $4 #
transform $-1 1 0 0 0 1 0 0 0 1 45.052644428846094 28.187910823836773 10.842198982763964 1 rotate no_reflect no_shear #
lump $-1 $-1 $32 $5 #
transform $-1 1 0 0 0 1 0 0 0 1 45.052644428846094 28.187910823836773 10.842198982763964 1 rotate no_reflect no_shear #
lump $-1 $-1 $33 $6 #
transform $-1 1 0 0 0 1 0 0 0 1 45.052644428846094 28.187910823836773 10.842198982763964 1 rotate no_reflect no_shear #
lump $-1 $-1 $34 $7 #
transform $-1 1 0 0 0 1 0 0 0 1 45.052644428846094 28.187910823836773 10.842198982763964 1 rotate no_reflect no_shear #
lump $-1 $-1 $35 $8 #
transform $-1 1 0 0 0 1 0 0 0 1 45.052644428846094 28.187910823836773 10.842198982763964 1 rotate no_reflect no_shear #
shell $-1 $-1 $-1 $36 $-1 $9 #
shell $-1 $-1 $-1 $37 $-1 $11 #
shell $-1 $-1 $-1 $38 $-1 $13 #
shell $-1 $-1 $-1 $39 $-1 $15 #
shell $-1 $-1 $-1 $40 $-1 $17 #
shell $-1 $-1 $-1 $41 $-1 $19 #
shell $-1 $-1 $-1 $42 $-1 $21 #
shell $-1 $-1 $-1 $43 $-1 $23 #
shell $-1 $-1 $-1 $44 $-1 $25 #
face $-1 $45 $46 $27 $-1 $47 forward single #
face $-1 $48 $49 $28 $-1 $50 forward single #
face $-1 $51 $52 $29 $-1 $53 forward single #
face $-1 $54 $55 $30 $-1 $56 reversed single #
face $-1 $57 $58 $31 $-1 $59 forward single #
face $-1 $60 $61 $32 $-1 $62 forward single #
face $-1 $63 $64 $33 $-1 $65 reversed single #
face $-1 $66 $67 $34 $-1 $68 forward single #
face $-1 $69 $70 $35 $-1 $71 forward single #
face $-1 $72 $73 $27 $-1 $74 reversed single #
loop $-1 $-1 $75 $36 #
plane-surface $-1 0 0 10.842198982763964 0 0 1 1 0 0 forward_v I I I I #
face $-1 $76 $77 $28 $-1 $78 reversed single #
loop $-1 $-1 $79 $37 #
plane-surface $-1 0 -28.187910823836773 0 0 1 0 0 0 1 forward_v I I I I #
face $-1 $80 $81 $29 $-1 $82 reversed single #
loop $-1 $-1 $83 $38 #
plane-surface $-1 0 28.187910823836773 0 0 -1 0 0 0 -1 forward_v I I I I #
face $-1 $84 $85 $30 $-1 $86 reversed single #
loop $-1 $-1 $87 $39 #
plane-surface $-1 51.721718596994478 10.921220440037912 134.77665477790512 0 -1 0 -0.74314483375859142 0 -0.66913059716165679 forward_v I I I I #
face $-1 $88 $89 $31 $-1 $90 forward single #
loop $-1 $91 $92 $40 #
cone-surface $-1 43.099974950811429 4.7890543607569072 8.7699068306676757 -0.74314483375859142 0 -0.66913059716165679 0.3345652985808284 0 -0.37157241687929571 1 I I 0 1 0.5 forward I I I I #
face $-1 $93 $94 $32 $-1 $95 forward single #
loop $-1 $96 $97 $41 #
cone-surface $-1 43.099974950811429 8.4683540083255124 8.7699068306676757 -0.74314483375859142 0 -0.66913059716165679 0.3345652985808284 0 -0.37157241687929571 1 I I 0 1 0.5 forward I I I I #
face $-1 $98 $99 $33 $-1 $100 reversed single #
loop $-1 $-1 $101 $42 #
plane-surface $-1 -112.01392433776563 2.3361879290445007 67.8153748689856 0 1 0 -0.74314483375859142 0 0.66913059716165679 forward_v I I I I #
face $-1 $102 $103 $34 $-1 $104 forward single #
loop $-1 $105 $106 $43 #
cone-surface $-1 -43.099974950811429 4.7890543607569072 8.7699068306676686 0.74314483375859142 0 -0.66913059716165679 0.3345652985808284 0 0.37157241687929571 1 I I 0 1 0.5 forward I I I I #
face $-1 $107 $108 $35 $-1 $109 forward single #
loop $-1 $110 $111 $44 #
cone-surface $-1 -43.099974950811429 8.4683540083255124 8.7699068306676686 0.74314483375859142 0 -0.66913059716165679 0.3345652985808284 0 0.37157241687929571 1 I I 0 1 0.5 forward I I I I #
face $-1 $112 $113 $27 $-1 $114 reversed single #
loop $-1 $-1 $115 $45 #
plane-surface $-1 0 0 -10.842198982763964 0 0 1 1 0 0 forward_v I I I I #
coedge $-1 $116 $117 $118 $119 forward $46 $-1 #
face $-1 $120 $121 $28 $-1 $122 reversed single #
loop $-1 $-1 $123 $48 #
plane-surface $-1 0 0 -10.842198982763964 0 0 1 1 0 0 forward_v I I I I #
coedge $-1 $124 $125 $126 $127 forward $49 $-1 #
face $-1 $128 $129 $29 $-1 $130 reversed single #
loop $-1 $-1 $131 $51 #
plane-surface $-1 0 0 -10.842198982763964 0 0 1 1 0 0 forward_v I I I I #
coedge $-1 $132 $133 $134 $135 forward $52 $-1 #
face $-1 $136 $137 $30 $-1 $138 reversed single #
loop $-1 $-1 $139 $54 #
plane-surface $-1 -15.239561311925044 6.6287041845412062 74.48444903713397 0.74314483375859142 0 0.66913059716165679 0.66913059716165679 0 -0.74314483375859142 forward_v I I I I #
coedge $-1 $140 $141 $142 $143 reversed $55 $-1 #
face $-1 $-1 $144 $31 $-1 $145 forward single #
loop $-1 $146 $147 $57 #
cone-surface $-1 42.455753179238769 4.7890543607569072 8.1898469565557299 -0.74314483375859142 0 -0.66913059716165679 0.1672826492904142 0 -0.18578620843964785 1 I I -0.70710678118654746 0.70710678118654746 0.25 forward I I I I #
loop $-1 $-1 $148 $40 #
coedge $-1 $92 $92 $149 $150 reversed $58 $-1 #
face $-1 $-1 $151 $32 $-1 $152 forward single #
loop $-1 $153 $154 $60 #
cone-surface $-1 42.455753179238769 8.4683540083255124 8.1898469565557299 -0.74314483375859142 0 -0.66913059716165679 0.1672826492904142 0 -0.18578620843964785 1 I I -0.70710678118654746 0.70710678118654746 0.25 forward I I I I #
loop $-1 $-1 $155 $41 #
coedge $-1 $97 $97 $156 $157 reversed $61 $-1 #
face $-1 $158 $159 $33 $-1 $160 reversed single #
loop $-1 $-1 $161 $63 #
plane-surface $-1 -45.052644428846108 6.6287041845412062 7.5231691282144482 -0.74314483375859142 0 0.66913059716165679 0.66913059716165679 0 0.74314483375859142 forward_v I I I I #
coedge $-1 $162 $163 $164 $165 reversed $64 $-1 #
face $-1 $-1 $166 $34 $-1 $167 forward single #
loop $-1 $168 $169 $66 #
cone-surface $-1 -42.455753179238769 4.7890543607569072 8.1898469565557228 0.74314483375859142 0 -0.66913059716165679 0.1672826492904142 0 0.18578620843964785 1 I I -0.70710678118654746 0.70710678118654746 0.25 forward I I I I #
loop $-1 $-1 $170 $43 #
coedge $-1 $106 $106 $171 $172 reversed $67 $-1 #
face $-1 $-1 $173 $35 $-1 $174 forward single #
loop $-1 $175 $176 $69 #
cone-surface $-1 -42.455753179238769 8.4683540083255124 8.1898469565557228 0.74314483375859142 0 -0.66913059716165679 0.1672826492904142 0 0.18578620843964785 1 I I -0.70710678118654746 0.70710678118654746 0.25 forward I I I I #
loop $-1 $-1 $177 $44 #
coedge $-1 $111 $111 $178 $179 reversed $70 $-1 #
face $-1 $180 $181 $27 $-1 $182 reversed single #
loop $-1 $-1 $183 $72 #
plane-surface $-1 0 -28.187910823836773 0 0 1 0 0 0 1 forward_v I I I I #
coedge $-1 $184 $185 $186 $187 forward $73 $-1 #
coedge $-1 $188 $75 $189 $190 forward $46 $-1 #
coedge $-1 $75 $188 $191 $192 forward $46 $-1 #
coedge $-1 $193 $194 $75 $119 reversed $195 $-1 #
edge $-1 $196 -28.187910823836773 $197 28.187910823836773 $118 $198 forward 7 unknown #
face $-1 $199 $200 $28 $-1 $201 reversed single #
loop $-1 $-1 $202 $76 #
plane-surface $-1 -37.039979873194824 -40.921338461951109 0 0 1 0 0 0 1 forward_v I I I I #
coedge $-1 $203 $204 $125 $205 forward $77 $-1 #
coedge $-1 $206 $79 $207 $208 reversed $49 $-1 #
coedge $-1 $79 $206 $123 $205 reversed $49 $-1 #
coedge $-1 $209 $210 $79 $127 reversed $200 $-1 #
edge $-1 $211 -10.842198982763964 $212 10.842198982763964 $126 $213 forward 7 unknown #
face $-1 $214 $215 $29 $-1 $216 reversed single #
loop $-1 $-1 $217 $80 #
plane-surface $-1 -39.648864356962108 34.554624642893941 0 1 0 0 0 0 -1 forward_v I I I I #
coedge $-1 $218 $219 $133 $220 forward $81 $-1 #
coedge $-1 $221 $83 $222 $223 reversed $52 $-1 #
coedge $-1 $83 $221 $131 $220 reversed $52 $-1 #
coedge $-1 $224 $225 $83 $135 reversed $226 $-1 #
edge $-1 $227 -10.842198982763964 $228 10.842198982763964 $134 $229 forward 7 unknown #
face $-1 $230 $231 $30 $-1 $232 forward single #
loop $-1 $-1 $233 $84 #
plane-surface $-1 51.721718596994478 2.3361879290445007 134.77665477790512 0 1 0 0.74314483375859142 0 0.66913059716165679 forward_v I I I I #
coedge $-1 $234 $235 $236 $237 reversed $85 $-1 #
coedge $-1 $141 $87 $238 $239 reversed $55 $-1 #
coedge $-1 $87 $140 $234 $240 reversed $55 $-1 #
coedge $-1 $236 $241 $87 $143 forward $231 $-1 #
edge $-1 $242 -19.191785130348855 $243 -16.203317300545557 $142 $244 forward 7 unknown #
loop $-1 $-1 $149 $88 #
plane-surface $-1 -15.239561311925044 6.6287041845412062 74.48444903713397 0.74314483375859142 0 0.66913059716165679 0.66913059716165679 0 -0.74314483375859142 forward_v I I I I #
loop $-1 $-1 $245 $57 #
coedge $-1 $147 $147 $148 $246 reversed $89 $-1 #
coedge $-1 $148 $148 $147 $246 forward $91 $-1 #
coedge $-1 $149 $149 $92 $150 forward $144 $-1 #
edge $-1 $247 0 $247 6.2831853071796004 $149 $248 forward 7 unknown #
loop $-1 $-1 $156 $93 #
plane-surface $-1 -15.239561311925044 6.6287041845412062 74.48444903713397 0.74314483375859142 0 0.66913059716165679 0.66913059716165679 0 -0.74314483375859142 forward_v I I I I #
loop $-1 $-1 $249 $60 #
coedge $-1 $154 $154 $155 $250 reversed $94 $-1 #
coedge $-1 $155 $155 $154 $250 forward $96 $-1 #
coedge $-1 $156 $156 $97 $157 forward $151 $-1 #
edge $-1 $251 0 $251 6.2831853071796004 $156 $252 forward 7 unknown #
face $-1 $253 $254 $33 $-1 $255 reversed single #
loop $-1 $-1 $256 $98 #
plane-surface $-1 -112.01392433776563 10.921220440037912 67.8153748689856 0 -1 0 0.74314483375859142 0 -0.66913059716165679 forward_v I I I I #
coedge $-1 $257 $258 $259 $260 reversed $99 $-1 #
coedge $-1 $163 $101 $261 $262 reversed $64 $-1 #
coedge $-1 $101 $162 $257 $263 reversed $64 $-1 #
coedge $-1 $259 $264 $101 $165 forward $265 $-1 #
edge $-1 $266 10.954317740036721 $267 13.942785569840026 $164 $268 forward 7 unknown #
loop $-1 $-1 $171 $102 #
plane-surface $-1 -45.052644428846108 6.6287041845412062 7.5231691282144482 -0.74314483375859142 0 0.66913059716165679 0.66913059716165679 0 0.74314483375859142 forward_v I I I I #
loop $-1 $-1 $269 $66 #
coedge $-1 $169 $169 $170 $270 reversed $103 $-1 #
coedge $-1 $170 $170 $169 $270 forward $105 $-1 #
coedge $-1 $171 $171 $106 $172 forward $166 $-1 #
edge $-1 $271 0 $271 6.2831853071796004 $171 $272 forward 7 unknown #
loop $-1 $-1 $178 $107 #
plane-surface $-1 -45.052644428846108 6.6287041845412062 7.5231691282144482 -0.74314483375859142 0 0.66913059716165679 0.66913059716165679 0 0.74314483375859142 forward_v I I I I #
loop $-1 $-1 $273 $69 #
coedge $-1 $176 $176 $177 $274 reversed $108 $-1 #
coedge $-1 $177 $177 $176 $274 forward $110 $-1 #
coedge $-1 $178 $178 $111 $179 forward $173 $-1 #
edge $-1 $275 0 $275 6.2831853071796004 $178 $276 forward 7 unknown #
face $-1 $277 $278 $27 $-1 $279 reversed single #
loop $-1 $-1 $280 $112 #
plane-surface $-1 -45.052644428846094 0 0 1 0 0 0 0 -1 forward_v I I I I #
coedge $-1 $281 $191 $282 $283 forward $113 $-1 #
coedge $-1 $284 $115 $281 $285 forward $73 $-1 #
coedge $-1 $115 $284 $286 $287 forward $73 $-1 #
coedge $-1 $194 $193 $115 $187 reversed $195 $-1 #
edge $-1 $288 -28.187910823836773 $289 28.187910823836773 $186 $290 forward 7 unknown #
coedge $-1 $117 $116 $291 $292 forward $46 $-1 #
coedge $-1 $293 $294 $116 $190 reversed $278 $-1 #
edge $-1 $197 -45.052644428846094 $295 45.052644428846094 $189 $296 forward 7 unknown #
coedge $-1 $183 $297 $117 $192 reversed $113 $-1 #
edge $-1 $298 -45.052644428846094 $196 45.052644428846094 $191 $299 forward 7 unknown #
coedge $-1 $186 $118 $297 $300 forward $195 $-1 #
coedge $-1 $118 $186 $293 $301 reversed $195 $-1 #
loop $-1 $-1 $193 $277 #
vertex $-1 $119 $302 #
vertex $-1 $119 $303 #
straight-curve $-1 45.052644428846094 0 10.842198982763964 0 1 0 I I #
face $-1 $304 $305 $28 $-1 $306 reversed single #
loop $-1 $-1 $126 $120 #
plane-surface $-1 -39.648864356962108 -34.554624642893941 0 1 0 0 0 0 -1 forward_v I I I I #
coedge $-1 $307 $308 $309 $310 forward $121 $-1 #
coedge $-1 $311 $123 $312 $313 forward $77 $-1 #
coedge $-1 $123 $311 $209 $314 forward $77 $-1 #
edge $-1 $211 -39.648864356962108 $315 -34.43109538942754 $123 $316 forward 7 unknown #
coedge $-1 $125 $124 $317 $318 forward $49 $-1 #
coedge $-1 $319 $320 $124 $208 forward $321 $-1 #
edge $-1 $322 34.43109538942754 $212 39.648864356962108 $207 $323 forward 7 unknown #
coedge $-1 $309 $126 $204 $314 reversed $200 $-1 #
coedge $-1 $126 $309 $319 $324 reversed $200 $-1 #
vertex $-1 $205 $325 #
vertex $-1 $324 $326 #
straight-curve $-1 -39.648864356962108 -28.187910823836773 0 0 0 1 I I #
face $-1 $327 $226 $29 $-1 $328 reversed single #
loop $-1 $-1 $329 $128 #
plane-surface $-1 -37.039979873194824 40.921338461951109 0 0 -1 0 0 0 -1 forward_v I I I I #
coedge $-1 $330 $331 $332 $333 forward $129 $-1 #
coedge $-1 $334 $131 $330 $335 forward $81 $-1 #
coedge $-1 $131 $334 $224 $336 forward $81 $-1 #
edge $-1 $227 34.43109538942754 $337 39.648864356962108 $131 $338 forward 7 unknown #
coedge $-1 $133 $132 $339 $340 forward $52 $-1 #
coedge $-1 $341 $342 $132 $223 forward $343 $-1 #
edge $-1 $344 -39.648864356962108 $228 -34.43109538942754 $222 $345 forward 7 unknown #
coedge $-1 $346 $134 $219 $336 reversed $226 $-1 #
coedge $-1 $134 $346 $341 $347 reversed $226 $-1 #
loop $-1 $-1 $134 $214 #
vertex $-1 $220 $348 #
vertex $-1 $347 $349 #
straight-curve $-1 -34.43109538942754 28.187910823836773 0 0 0 1 I I #
face $-1 $-1 $350 $30 $-1 $351 reversed single #
loop $-1 $-1 $142 $136 #
plane-surface $-1 0 0 10.842198982763964 0 0 1 1 0 0 forward_v I I I I #
coedge $-1 $352 $353 $354 $355 reversed $137 $-1 #
coedge $-1 $356 $139 $141 $240 forward $85 $-1 #
coedge $-1 $139 $356 $352 $357 forward $85 $-1 #
coedge $-1 $354 $142 $139 $237 forward $231 $-1 #
edge $-1 $243 -7.6068683477673087 $358 0.97816416322610245 $236 $359 forward 7 unknown #
coedge $-1 $360 $361 $140 $239 forward $350 $-1 #
edge $-1 $362 -59.865158260738085 $242 -56.5461284061886 $238 $363 forward 7 unknown #
edge $-1 $243 85.639093704638498 $362 90.105288857692145 $141 $364 forward 7 unknown #
coedge $-1 $142 $354 $360 $365 forward $231 $-1 #
vertex $-1 $143 $366 #
vertex $-1 $143 $367 #
straight-curve $-1 25.860859298497239 10.921220440037912 10.842198982763961 -1 0 0 I I #
coedge $-1 $245 $245 $-1 $368 reversed $146 $-1 #
edge $-1 $369 0 $369 6.2831853071796004 $147 $370 forward 7 unknown #
vertex $-1 $150 $371 #
ellipse-curve $-1 43.558410513944445 4.7890543607569072 9.1826840554892151 0.74314483375859142 0 0.66913059716165679 0.3345652985808284 0 -0.37157241687929571 1 I I #
coedge $-1 $249 $249 $-1 $372 reversed $153 $-1 #
edge $-1 $373 0 $373 6.2831853071796004 $154 $374 forward 7 unknown #
vertex $-1 $157 $375 #
ellipse-curve $-1 43.558410513944445 8.4683540083255124 9.1826840554892151 0.74314483375859142 0 0.66913059716165679 0.3345652985808284 0 -0.37157241687929571 1 I I #
face $-1 $-1 $265 $33 $-1 $376 forward single #
loop $-1 $-1 $377 $158 #
plane-surface $-1 -45.052644428846094 0 0 1 0 0 0 0 -1 forward_v I I I I #
coedge $-1 $378 $379 $380 $381 reversed $159 $-1 #
coedge $-1 $382 $161 $163 $263 forward $99 $-1 #
coedge $-1 $161 $382 $378 $383 forward $99 $-1 #
coedge $-1 $380 $164 $161 $260 forward $265 $-1 #
edge $-1 $267 -0.97816416322610245 $384 7.6068683477673087 $259 $385 forward 7 unknown #
coedge $-1 $386 $387 $162 $262 forward $254 $-1 #
edge $-1 $388 -26.384518306278338 $266 -23.065488451728836 $261 $389 forward 7 unknown #
edge $-1 $267 -4.4661951530536976 $388 -2.1389731374768986e-014 $163 $390 forward 7 unknown #
coedge $-1 $164 $380 $386 $391 forward $265 $-1 #
loop $-1 $-1 $380 $253 #
vertex $-1 $262 $392 #
vertex $-1 $165 $393 #
straight-curve $-1 -56.006962168882815 2.3361879290445007 10.842198982763964 1 0 0 I I #
coedge $-1 $269 $269 $-1 $394 reversed $168 $-1 #
edge $-1 $395 0 $395 6.2831853071796004 $169 $396 forward 7 unknown #
vertex $-1 $172 $397 #
ellipse-curve $-1 -43.558410513944445 4.7890543607569072 9.1826840554892097 -0.74314483375859142 0 0.66913059716165679 0.3345652985808284 0 0.37157241687929571 1 I I #
coedge $-1 $273 $273 $-1 $398 reversed $175 $-1 #
edge $-1 $399 0 $399 6.2831853071796004 $176 $400 forward 7 unknown #
vertex $-1 $179 $401 #
ellipse-curve $-1 -43.558410513944445 8.4683540083255124 9.1826840554892097 -0.74314483375859142 0 0.66913059716165679 0.3345652985808284 0 0.37157241687929571 1 I I #
face $-1 $-1 $195 $27 $-1 $402 reversed single #
loop $-1 $-1 $293 $180 #
plane-surface $-1 0 28.187910823836773 0 0 -1 0 0 0 -1 forward_v I I I I #
coedge $-1 $403 $291 $294 $404 forward $181 $-1 #
coedge $-1 $297 $183 $184 $285 reversed $113 $-1 #
coedge $-1 $291 $403 $183 $283 reversed $181 $-1 #
edge $-1 $298 -10.842198982763964 $405 10.842198982763964 $282 $406 forward 7 unknown #
coedge $-1 $185 $184 $403 $407 forward $73 $-1 #
edge $-1 $289 -45.052644428846094 $405 45.052644428846094 $281 $408 forward 7 unknown #
coedge $-1 $294 $293 $185 $287 reversed $278 $-1 #
edge $-1 $409 -45.052644428846094 $288 45.052644428846094 $286 $410 forward 7 unknown #
vertex $-1 $187 $411 #
vertex $-1 $300 $412 #
straight-curve $-1 45.052644428846094 0 -10.842198982763964 0 -1 0 I I #
coedge $-1 $280 $282 $188 $292 reversed $181 $-1 #
edge $-1 $295 -28.187910823836773 $298 28.187910823836773 $291 $413 forward 7 unknown #
coedge $-1 $286 $189 $194 $301 forward $278 $-1 #
coedge $-1 $189 $286 $280 $404 reversed $278 $-1 #
vertex $-1 $190 $414 #
straight-curve $-1 0 28.187910823836773 10.842198982763964 -1 0 0 I I #
coedge $-1 $191 $281 $193 $300 reversed $113 $-1 #
vertex $-1 $292 $415 #
straight-curve $-1 0 -28.187910823836773 10.842198982763964 1 0 0 I I #
edge $-1 $196 -10.842198982763964 $289 10.842198982763964 $193 $416 forward 7 unknown #
edge $-1 $197 -10.842198982763964 $288 10.842198982763964 $194 $417 forward 7 unknown #
point $-1 45.052644428846094 -28.187910823836773 10.842198982763964 #
point $-1 45.052644428846094 28.187910823836773 10.842198982763964 #
face $-1 $-1 $321 $28 $-1 $418 forward single #
loop $-1 $-1 $419 $199 #
plane-surface $-1 -34.43109538942754 -34.554624642893941 0 -1 0 0 0 0 1 forward_v I I I I #
coedge $-1 $420 $202 $311 $421 reversed $121 $-1 #
coedge $-1 $202 $420 $422 $423 reversed $121 $-1 #
coedge $-1 $210 $209 $202 $310 reversed $200 $-1 #
edge $-1 $424 -10.842198982763964 $425 10.842198982763964 $309 $426 forward 7 unknown #
coedge $-1 $204 $203 $307 $421 forward $77 $-1 #
coedge $-1 $317 $419 $203 $313 reversed $305 $-1 #
edge $-1 $315 -6.3667138190571642 $427 6.3667138190571677 $312 $428 forward 7 unknown #
edge $-1 $425 -6.3667138190571677 $211 6.3667138190571642 $209 $429 forward 7 unknown #
vertex $-1 $313 $430 #
straight-curve $-1 0 -28.187910823836773 -10.842198982763964 1 0 0 I I #
coedge $-1 $431 $312 $206 $318 reversed $305 $-1 #
edge $-1 $322 -10.842198982763964 $315 10.842198982763964 $317 $432 forward 7 unknown #
coedge $-1 $422 $207 $210 $324 forward $321 $-1 #
coedge $-1 $207 $422 $431 $433 forward $321 $-1 #
loop $-1 $-1 $207 $304 #
vertex $-1 $208 $434 #
straight-curve $-1 0 -28.187910823836773 10.842198982763964 -1 0 0 I I #
edge $-1 $212 -6.3667138190571642 $424 6.3667138190571677 $210 $435 forward 7 unknown #
point $-1 -39.648864356962108 -28.187910823836777 -10.842198982763964 #
point $-1 -39.648864356962108 -28.187910823836777 10.842198982763964 #
face $-1 $-1 $343 $29 $-1 $436 forward single #
plane-surface $-1 -34.43109538942754 34.554624642893941 0 -1 0 0 0 0 1 forward_v I I I I #
coedge $-1 $437 $438 $346 $439 forward $215 $-1 #
coedge $-1 $339 $217 $218 $335 reversed $129 $-1 #
coedge $-1 $217 $339 $342 $440 reversed $129 $-1 #
coedge $-1 $438 $437 $217 $333 reversed $215 $-1 #
edge $-1 $441 -10.842198982763964 $442 10.842198982763964 $332 $443 forward 7 unknown #
coedge $-1 $219 $218 $437 $444 forward $81 $-1 #
edge $-1 $337 -6.3667138190571677 $442 6.3667138190571677 $330 $445 forward 7 unknown #
edge $-1 $446 -6.3667138190571677 $227 6.3667138190571677 $224 $447 forward 7 unknown #
vertex $-1 $335 $448 #
straight-curve $-1 0 28.187910823836773 -10.842198982763964 -1 0 0 I I #
coedge $-1 $331 $330 $221 $340 reversed $129 $-1 #
edge $-1 $344 -10.842198982763964 $337 10.842198982763964 $339 $449 forward 7 unknown #
coedge $-1 $450 $222 $225 $347 forward $343 $-1 #
coedge $-1 $222 $450 $331 $440 forward $343 $-1 #
loop $-1 $-1 $222 $327 #
vertex $-1 $223 $451 #
straight-curve $-1 0 28.187910823836773 10.842198982763964 1 0 0 I I #
coedge $-1 $225 $224 $329 $439 reversed $226 $-1 #
edge $-1 $228 -6.3667138190571677 $452 6.3667138190571677 $225 $453 forward 7 unknown #
point $-1 -34.43109538942754 28.187910823836773 -10.842198982763964 #
point $-1 -34.43109538942754 28.187910823836773 10.842198982763964 #
loop $-1 $-1 $238 $230 #
plane-surface $-1 45.052644428846094 0 0 -1 0 0 0 0 1 forward_v I I I I #
coedge $-1 $353 $233 $235 $357 reversed $137 $-1 #
coedge $-1 $233 $352 $454 $455 reversed $137 $-1 #
coedge $-1 $241 $236 $233 $355 forward $231 $-1 #
edge $-1 $358 16.203317300545557 $456 19.191785130348855 $354 $457 forward 7 unknown #
coedge $-1 $235 $234 $361 $458 reversed $85 $-1 #
edge $-1 $459 -90.105288857692145 $358 -85.639093704638498 $352 $460 forward 7 unknown #
vertex $-1 $237 $461 #
straight-curve $-1 42.064176599042788 3.3143520922706031 10.842198982763961 0 -1 0 I I #
coedge $-1 $454 $238 $241 $365 reversed $350 $-1 #
coedge $-1 $238 $454 $356 $458 forward $350 $-1 #
vertex $-1 $239 $462 #
straight-curve $-1 45.052644428846094 10.921220440037912 67.388327388952561 0 0 1 I I #
straight-curve $-1 -15.239561311925044 10.921220440037912 74.48444903713397 0.66913059716165679 0 -0.74314483375859142 I I #
edge $-1 $456 2.3361879290445007 $242 10.921220440037912 $360 $463 forward 7 unknown #
point $-1 45.052644428846094 10.921220440037912 10.842198982763964 #
point $-1 42.064176599042796 10.921220440037912 10.842198982763961 #
edge $-1 $464 1 $464 0 $245 $-1 forward 7 unknown #
vertex $-1 $246 $465 #
ellipse-curve $-1 42.641539387678414 4.7890543607569072 8.3571296058461435 0.74314483375859142 0 0.66913059716165679 0.3345652985808284 0 -0.37157241687929571 1 I I #
point $-1 43.892975812525265 4.7890543607569072 8.8111116386099138 #
edge $-1 $466 1 $466 0 $249 $-1 forward 7 unknown #
vertex $-1 $250 $467 #
ellipse-curve $-1 42.641539387678414 8.4683540083255124 8.3571296058461435 0.74314483375859142 0 0.66913059716165679 0.3345652985808284 0 -0.37157241687929571 1 I I #
point $-1 43.892975812525265 8.4683540083255124 8.8111116386099138 #
plane-surface $-1 0 0 10.842198982763964 0 0 1 1 0 0 forward_v I I I I #
coedge $-1 $387 $386 $379 $468 forward $254 $-1 #
coedge $-1 $379 $256 $258 $383 reversed $159 $-1 #
coedge $-1 $256 $378 $377 $468 reversed $159 $-1 #
coedge $-1 $264 $259 $256 $381 forward $265 $-1 #
edge $-1 $384 -13.942785569840026 $469 -10.954317740036721 $380 $470 forward 7 unknown #
coedge $-1 $258 $257 $387 $471 reversed $99 $-1 #
edge $-1 $472 2.1389731374768986e-014 $384 4.4661951530536976 $378 $473 forward 7 unknown #
vertex $-1 $260 $474 #
straight-curve $-1 -42.064176599042788 3.3143520922706031 10.842198982763964 0 1 0 I I #
coedge $-1 $377 $261 $264 $391 reversed $254 $-1 #
coedge $-1 $261 $377 $382 $471 forward $254 $-1 #
vertex $-1 $262 $475 #
straight-curve $-1 -45.052644428846094 2.3361879290445007 33.9076874344928 0 0 1 I I #
straight-curve $-1 -45.052644428846108 2.3361879290445007 7.5231691282144482 -0.66913059716165679 0 -0.74314483375859142 I I #
edge $-1 $469 -10.921220440037912 $266 -2.3361879290445007 $386 $476 forward 7 unknown #
point $-1 -45.052644428846094 2.3361879290445007 10.842198982763964 #
point $-1 -42.064176599042788 2.3361879290445007 10.842198982763964 #
edge $-1 $477 1 $477 0 $269 $-1 forward 7 unknown #
vertex $-1 $270 $478 #
ellipse-curve $-1 -42.641539387678414 4.7890543607569072 8.3571296058461364 -0.74314483375859142 0 0.66913059716165679 0.3345652985808284 0 0.37157241687929571 1 I I #
point $-1 -43.223845215363603 4.7890543607569072 9.5542564723684968 #
edge $-1 $479 1 $479 0 $273 $-1 forward 7 unknown #
vertex $-1 $274 $480 #
ellipse-curve $-1 -42.641539387678414 8.4683540083255124 8.3571296058461364 -0.74314483375859142 0 0.66913059716165679 0.3345652985808284 0 0.37157241687929571 1 I I #
point $-1 -43.223845215363603 8.4683540083255124 9.5542564723684968 #
plane-surface $-1 45.052644428846094 0 0 -1 0 0 0 0 1 forward_v I I I I #
coedge $-1 $282 $280 $284 $407 reversed $181 $-1 #
edge $-1 $295 -10.842198982763964 $409 10.842198982763964 $294 $481 forward 7 unknown #
vertex $-1 $407 $482 #
straight-curve $-1 -45.052644428846094 -28.187910823836773 0 0 0 -1 I I #
edge $-1 $405 -28.187910823836773 $409 28.187910823836773 $403 $483 forward 7 unknown #
straight-curve $-1 0 -28.187910823836773 -10.842198982763964 -1 0 0 I I #
vertex $-1 $287 $484 #
straight-curve $-1 0 28.187910823836773 -10.842198982763964 1 0 0 I I #
point $-1 45.052644428846094 28.187910823836773 -10.842198982763964 #
point $-1 45.052644428846094 -28.187910823836773 -10.842198982763964 #
straight-curve $-1 -45.052644428846094 0 10.842198982763964 0 -1 0 I I #
point $-1 -45.052644428846094 28.187910823836773 10.842198982763964 #
point $-1 -45.052644428846094 -28.187910823836773 10.842198982763964 #
straight-curve $-1 45.052644428846094 -28.187910823836773 0 0 0 -1 I I #
straight-curve $-1 45.052644428846094 28.187910823836773 0 0 0 -1 I I #
plane-surface $-1 0 0 10.842198982763964 0 0 1 1 0 0 forward_v I I I I #
coedge $-1 $312 $431 $420 $485 forward $305 $-1 #
coedge $-1 $308 $307 $419 $485 reversed $121 $-1 #
edge $-1 $427 -2.6088844837672838 $425 2.6088844837672838 $307 $486 forward 7 unknown #
coedge $-1 $320 $319 $308 $423 forward $321 $-1 #
edge $-1 $424 -2.6088844837672838 $487 2.6088844837672838 $308 $488 forward 7 unknown #
vertex $-1 $324 $489 #
vertex $-1 $314 $490 #
straight-curve $-1 -39.648864356962108 -40.921338461951109 0 0 0 -1 I I #
vertex $-1 $485 $491 #
straight-curve $-1 -34.43109538942754 -34.554624642893941 -10.842198982763964 0 -1 0 I I #
straight-curve $-1 -39.648864356962108 -34.554624642893941 -10.842198982763964 0 1 0 I I #
point $-1 -34.43109538942754 -28.187910823836777 -10.842198982763964 #
coedge $-1 $419 $317 $320 $433 reversed $305 $-1 #
straight-curve $-1 -34.43109538942754 -28.187910823836773 0 0 0 -1 I I #
edge $-1 $487 -6.3667138190571677 $322 6.3667138190571642 $431 $492 forward 7 unknown #
point $-1 -34.43109538942754 -28.187910823836777 10.842198982763964 #
straight-curve $-1 -39.648864356962108 -34.554624642893941 10.842198982763964 0 -1 0 I I #
plane-surface $-1 0 0 10.842198982763964 0 0 1 1 0 0 forward_v I I I I #
coedge $-1 $332 $329 $334 $444 reversed $215 $-1 #
coedge $-1 $329 $332 $450 $493 reversed $215 $-1 #
edge $-1 $452 -10.842198982763964 $446 10.842198982763964 $346 $494 forward 7 unknown #
edge $-1 $441 -6.3667138190571677 $344 6.3667138190571677 $331 $495 forward 7 unknown #
vertex $-1 $493 $496 #
vertex $-1 $444 $497 #
straight-curve $-1 -39.648864356962108 40.921338461951109 0 0 0 -1 I I #
edge $-1 $442 -2.6088844837672838 $446 2.6088844837672838 $437 $498 forward 7 unknown #
straight-curve $-1 -39.648864356962108 34.554624642893941 -10.842198982763964 0 1 0 I I #
vertex $-1 $336 $499 #
straight-curve $-1 -34.43109538942754 34.554624642893941 -10.842198982763964 0 -1 0 I I #
point $-1 -39.648864356962108 28.187910823836773 -10.842198982763964 #
straight-curve $-1 -39.648864356962108 28.187910823836773 0 0 0 -1 I I #
coedge $-1 $342 $341 $438 $493 forward $343 $-1 #
point $-1 -39.648864356962108 28.187910823836773 10.842198982763964 #
vertex $-1 $347 $500 #
straight-curve $-1 -34.43109538942754 34.554624642893941 10.842198982763964 0 1 0 I I #
coedge $-1 $361 $360 $353 $455 forward $350 $-1 #
edge $-1 $456 56.5461284061886 $459 59.865158260738085 $454 $501 forward 7 unknown #
vertex $-1 $365 $502 #
straight-curve $-1 25.860859298497239 2.3361879290445007 10.842198982763961 1 0 0 I I #
edge $-1 $459 -0.97816416322610245 $362 7.6068683477673087 $361 $503 forward 7 unknown #
vertex $-1 $458 $504 #
straight-curve $-1 -15.239561311925044 2.3361879290445007 74.48444903713397 -0.66913059716165679 0 0.74314483375859142 I I #
point $-1 42.064176599042796 2.3361879290445007 10.842198982763961 #
point $-1 45.052644428846094 10.921220440037912 7.5231691282144766 #
straight-curve $-1 45.052644428846094 0 10.842198982763964 0 1 0 I I #
vertex $-1 $368 $505 #
point $-1 42.976104686259248 4.7890543607569072 7.9855571889668484 #
vertex $-1 $372 $506 #
point $-1 42.976104686259248 8.4683540083255124 7.9855571889668484 #
edge $-1 $469 23.065488451728836 $472 26.384518306278338 $377 $507 forward 7 unknown #
vertex $-1 $391 $508 #
straight-curve $-1 -56.006962168882815 10.921220440037912 10.842198982763964 -1 0 0 I I #
edge $-1 $472 -7.6068683477673087 $388 0.97816416322610245 $387 $509 forward 7 unknown #
vertex $-1 $471 $510 #
straight-curve $-1 -45.052644428846108 10.921220440037912 7.5231691282144482 0.66913059716165679 0 0.74314483375859142 I I #
point $-1 -42.064176599042788 10.921220440037912 10.842198982763964 #
point $-1 -45.052644428846094 2.3361879290445007 7.5231691282144642 #
straight-curve $-1 -45.052644428846094 0 10.842198982763964 0 -1 0 I I #
vertex $-1 $394 $511 #
point $-1 -42.306974089097586 4.7890543607569072 8.7287020227254324 #
vertex $-1 $398 $512 #
point $-1 -42.306974089097586 8.4683540083255124 8.7287020227254324 #
straight-curve $-1 -45.052644428846094 28.187910823836773 0 0 0 -1 I I #
point $-1 -45.052644428846094 -28.187910823836773 -10.842198982763964 #
straight-curve $-1 -45.052644428846094 0 -10.842198982763964 0 1 0 I I #
point $-1 -45.052644428846094 28.187910823836773 -10.842198982763964 #
edge $-1 $487 -10.842198982763964 $427 10.842198982763964 $419 $513 forward 7 unknown #
straight-curve $-1 -37.039979873194824 -40.921338461951109 -10.842198982763964 -1 0 0 I I #
vertex $-1 $433 $514 #
straight-curve $-1 -37.039979873194824 -40.921338461951109 10.842198982763964 1 0 0 I I #
point $-1 -39.648864356962108 -40.921338461951109 10.842198982763964 #
point $-1 -39.648864356962108 -40.921338461951109 -10.842198982763964 #
point $-1 -34.43109538942754 -40.921338461951109 -10.842198982763964 #
straight-curve $-1 -34.43109538942754 -34.554624642893941 10.842198982763964 0 1 0 I I #
edge $-1 $452 -2.6088844837672838 $441 2.6088844837672838 $438 $515 forward 7 unknown #
straight-curve $-1 -34.43109538942754 40.921338461951109 0 0 0 -1 I I #
straight-curve $-1 -39.648864356962108 34.554624642893941 10.842198982763964 0 -1 0 I I #
point $-1 -39.648864356962108 40.921338461951109 10.842198982763964 #
point $-1 -39.648864356962108 40.921338461951109 -10.842198982763964 #
straight-curve $-1 -37.039979873194824 40.921338461951109 -10.842198982763964 1 0 0 I I #
point $-1 -34.43109538942754 40.921338461951109 -10.842198982763964 #
point $-1 -34.43109538942754 40.921338461951109 10.842198982763964 #
straight-curve $-1 45.052644428846094 2.3361879290445007 67.388327388952561 0 0 -1 I I #
point $-1 45.052644428846094 2.3361879290445007 10.842198982763964 #
straight-curve $-1 45.052644428846094 3.3143520922706031 7.5231691282144624 0 1 0 I I #
point $-1 45.052644428846094 2.3361879290445007 7.5231691282144766 #
point $-1 42.269966970799125 4.7890543607569072 8.0225643072653163 #
point $-1 42.269966970799125 8.4683540083255124 8.0225643072653163 #
straight-curve $-1 -45.052644428846094 10.921220440037912 33.9076874344928 0 0 -1 I I #
point $-1 -45.052644428846094 10.921220440037912 10.842198982763964 #
straight-curve $-1 -45.052644428846094 3.3143520922706031 7.5231691282144606 0 -1 0 I I #
point $-1 -45.052644428846094 10.921220440037912 7.5231691282144642 #
point $-1 -42.269966970799125 4.7890543607569072 8.0225643072653092 #
point $-1 -42.269966970799125 8.4683540083255124 8.0225643072653092 #
straight-curve $-1 -34.43109538942754 -40.921338461951109 0 0 0 -1 I I #
point $-1 -34.43109538942754 -40.921338461951109 10.842198982763964 #
straight-curve $-1 -37.039979873194824 40.921338461951109 10.842198982763964 -1 0 0 I I #
End-of-ACIS-data 