500 0 8 0           
7 Unknown 11 ACIS 5.0 NT 24 Fri Mar 26 19:27:56 1999 
-1 9.9999999999999995e-007 1e-010 
body $-1 $8 $-1 $9 #
body $-1 $10 $-1 $11 #
body $-1 $12 $-1 $13 #
body $-1 $14 $-1 $15 #
body $-1 $16 $-1 $17 #
body $-1 $18 $-1 $19 #
body $-1 $20 $-1 $21 #
body $-1 $22 $-1 $23 #
lump $-1 $-1 $24 $0 #
transform $-1 1 0 0 0 1 0 0 0 1 48.406018250068669 32.44475160427055 15.873342477738616 1 rotate no_reflect no_shear #
lump $-1 $-1 $25 $1 #
transform $-1 1 0 0 0 1 0 0 0 1 48.406018250068669 32.44475160427055 15.873342477738616 1 rotate no_reflect no_shear #
lump $-1 $-1 $26 $2 #
transform $-1 1 0 0 0 1 0 0 0 1 48.406018250068669 32.44475160427055 15.873342477738616 1 rotate no_reflect no_shear #
lump $-1 $-1 $27 $3 #
transform $-1 1 0 0 0 1 0 0 0 1 48.406018250068669 32.44475160427055 15.873342477738616 1 rotate no_reflect no_shear #
lump $-1 $-1 $28 $4 #
transform $-1 1 0 0 0 1 0 0 0 1 48.406018250068669 32.44475160427055 15.873342477738616 1 rotate no_reflect no_shear #
lump $-1 $-1 $29 $5 #
transform $-1 1 0 0 0 1 0 0 0 1 48.406018250068669 32.44475160427055 15.873342477738616 1 rotate no_reflect no_shear #
lump $-1 $-1 $30 $6 #
transform $-1 1 0 0 0 1 0 0 0 1 48.406018250068669 32.44475160427055 15.873342477738616 1 rotate no_reflect no_shear #
lump $-1 $-1 $31 $7 #
transform $-1 1 0 0 0 1 0 0 0 1 48.406018250068669 32.44475160427055 15.873342477738616 1 rotate no_reflect no_shear #
shell $-1 $-1 $-1 $32 $-1 $8 #
shell $-1 $-1 $-1 $33 $-1 $10 #
shell $-1 $-1 $-1 $34 $-1 $12 #
shell $-1 $-1 $-1 $35 $-1 $14 #
shell $-1 $-1 $-1 $36 $-1 $16 #
shell $-1 $-1 $-1 $37 $-1 $18 #
shell $-1 $-1 $-1 $38 $-1 $20 #
shell $-1 $-1 $-1 $39 $-1 $22 #
face $-1 $40 $41 $24 $-1 $42 forward single #
face $-1 $43 $44 $25 $-1 $45 forward single #
face $-1 $46 $47 $26 $-1 $48 reversed single #
face $-1 $49 $50 $27 $-1 $51 forward single #
face $-1 $52 $53 $28 $-1 $54 forward single #
face $-1 $55 $56 $29 $-1 $57 reversed single #
face $-1 $58 $59 $30 $-1 $60 forward single #
face $-1 $61 $62 $31 $-1 $63 forward single #
face $-1 $64 $65 $24 $-1 $66 reversed single #
loop $-1 $-1 $67 $32 #
plane-surface $-1 0 0 15.873342477738616 0 0 1 1 0 0 forward_v I I I I #
face $-1 $68 $69 $25 $-1 $70 reversed single #
loop $-1 $-1 $71 $33 #
plane-surface $-1 -48.406018250068669 0 0 1 0 0 0 0 -1 forward_v I I I I #
face $-1 $72 $73 $26 $-1 $74 reversed single #
loop $-1 $-1 $75 $34 #
plane-surface $-1 8.2843406224418032 -90.707690329597284 86.488808831451209 -1 0 0 0 -0.6018150307709319 0.79863550430605224 forward_v I I I I #
face $-1 $76 $77 $27 $-1 $78 forward single #
loop $-1 $79 $80 $35 #
cone-surface $-1 0.85113160130870824 -27.321371973222774 11.624683743212996 0 0.6018150307709319 -0.79863550430605224 1 0 0 1 I I 0 1 1 forward I I I I #
face $-1 $81 $82 $28 $-1 $83 forward single #
loop $-1 $84 $85 $36 #
cone-surface $-1 5.3110570139885667 -27.321371973222774 11.624683743212996 0 0.6018150307709319 -0.79863550430605224 1 0 0 1 I I 0 1 1 forward I I I I #
face $-1 $86 $87 $29 $-1 $88 reversed single #
loop $-1 $-1 $89 $37 #
plane-surface $-1 -2.1221520071445354 38.88462921047487 125.54028720160986 1 0 0 0 -0.6018150307709319 -0.79863550430605224 forward_v I I I I #
face $-1 $90 $91 $30 $-1 $92 forward single #
loop $-1 $93 $94 $38 #
cone-surface $-1 0.85113160130870824 27.321371973222767 11.624683743213 0 -0.6018150307709319 -0.79863550430605224 1 0 0 1 I I 0 1 1 forward I I I I #
face $-1 $95 $96 $31 $-1 $97 forward single #
loop $-1 $98 $99 $39 #
cone-surface $-1 5.3110570139885667 27.321371973222767 11.624683743213 0 -0.6018150307709319 -0.79863550430605224 1 0 0 1 I I 0 1 1 forward I I I I #
face $-1 $100 $101 $24 $-1 $102 reversed single #
loop $-1 $-1 $103 $40 #
plane-surface $-1 0 0 -15.873342477738616 0 0 1 1 0 0 forward_v I I I I #
coedge $-1 $104 $105 $106 $107 forward $41 $-1 #
face $-1 $108 $109 $25 $-1 $110 forward single #
loop $-1 $-1 $111 $43 #
plane-surface $-1 0 32.44475160427055 0 0 -1 0 0 0 -1 forward_v I I I I #
coedge $-1 $112 $113 $114 $115 forward $44 $-1 #
face $-1 $116 $117 $26 $-1 $118 reversed single #
loop $-1 $-1 $119 $46 #
plane-surface $-1 3.0810943076486339 -32.44475160427055 9.1712792382680846 0 -0.6018150307709319 0.79863550430605224 1 0 0 forward_v I I I I #
coedge $-1 $120 $121 $122 $123 reversed $47 $-1 #
face $-1 $-1 $124 $27 $-1 $125 forward single #
loop $-1 $126 $127 $49 #
cone-surface $-1 0.85113160130870824 -26.344053896579112 10.327738876269619 0 0.6018150307709319 -0.79863550430605224 0.5 0 0 1 I I -0.70710678118654746 0.70710678118654746 0.5 forward I I I I #
loop $-1 $-1 $128 $35 #
coedge $-1 $80 $80 $129 $130 reversed $50 $-1 #
face $-1 $-1 $131 $28 $-1 $132 forward single #
loop $-1 $133 $134 $52 #
cone-surface $-1 5.3110570139885667 -26.344053896579112 10.327738876269619 0 0.6018150307709319 -0.79863550430605224 0.5 0 0 1 I I -0.70710678118654746 0.70710678118654746 0.5 forward I I I I #
loop $-1 $-1 $135 $36 #
coedge $-1 $85 $85 $136 $137 reversed $53 $-1 #
face $-1 $138 $139 $29 $-1 $140 reversed single #
loop $-1 $-1 $141 $55 #
plane-surface $-1 3.0810943076486339 -19.378309514851864 48.222757608426733 0 0.6018150307709319 0.79863550430605224 1 0 0 forward_v I I I I #
coedge $-1 $142 $143 $144 $145 reversed $56 $-1 #
face $-1 $-1 $146 $30 $-1 $147 forward single #
loop $-1 $148 $149 $58 #
cone-surface $-1 0.85113160130870824 26.344053896579105 10.327738876269622 0 -0.6018150307709319 -0.79863550430605224 0.5 0 0 1 I I -0.70710678118654746 0.70710678118654746 0.5 forward I I I I #
loop $-1 $-1 $150 $38 #
coedge $-1 $94 $94 $151 $152 reversed $59 $-1 #
face $-1 $-1 $153 $31 $-1 $154 forward single #
loop $-1 $155 $156 $61 #
cone-surface $-1 5.3110570139885667 26.344053896579105 10.327738876269622 0 -0.6018150307709319 -0.79863550430605224 0.5 0 0 1 I I -0.70710678118654746 0.70710678118654746 0.5 forward I I I I #
loop $-1 $-1 $157 $39 #
coedge $-1 $99 $99 $158 $159 reversed $62 $-1 #
face $-1 $160 $161 $24 $-1 $162 reversed single #
loop $-1 $-1 $163 $64 #
plane-surface $-1 0 -32.44475160427055 0 0 1 0 0 0 1 forward_v I I I I #
coedge $-1 $164 $165 $166 $167 forward $65 $-1 #
coedge $-1 $168 $67 $169 $170 forward $41 $-1 #
coedge $-1 $67 $168 $171 $172 forward $41 $-1 #
coedge $-1 $173 $174 $67 $107 reversed $175 $-1 #
edge $-1 $176 -32.44475160427055 $177 32.44475160427055 $106 $178 forward 7 unknown #
face $-1 $179 $180 $25 $-1 $181 reversed single #
loop $-1 $-1 $114 $68 #
plane-surface $-1 -55.513009782886215 0 -6.4157334272956499 0 0 1 1 0 0 forward_v I I I I #
coedge $-1 $182 $183 $113 $184 forward $69 $-1 #
coedge $-1 $185 $71 $186 $187 reversed $44 $-1 #
coedge $-1 $71 $185 $111 $184 reversed $44 $-1 #
coedge $-1 $188 $189 $71 $115 reversed $109 $-1 #
edge $-1 $190 -32.44475160427055 $191 32.44475160427055 $114 $192 forward 7 unknown #
face $-1 $193 $194 $26 $-1 $195 reversed single #
loop $-1 $-1 $196 $72 #
plane-surface $-1 -2.1221520071445354 -90.707690329597284 86.488808831451209 1 0 0 0 0.6018150307709319 -0.79863550430605224 forward_v I I I I #
coedge $-1 $197 $198 $199 $200 reversed $73 $-1 #
coedge $-1 $121 $75 $201 $202 reversed $47 $-1 #
coedge $-1 $75 $120 $197 $203 reversed $47 $-1 #
coedge $-1 $199 $204 $75 $123 forward $205 $-1 #
edge $-1 $206 12.909093560528092 $207 21.803031700107262 $122 $208 forward 7 unknown #
loop $-1 $-1 $129 $76 #
plane-surface $-1 3.0810943076486339 -32.44475160427055 9.1712792382680846 0 -0.6018150307709319 0.79863550430605224 1 0 0 forward_v I I I I #
loop $-1 $-1 $209 $49 #
coedge $-1 $127 $127 $128 $210 reversed $77 $-1 #
coedge $-1 $128 $128 $127 $210 forward $79 $-1 #
coedge $-1 $129 $129 $80 $130 forward $124 $-1 #
edge $-1 $211 0 $211 6.2831853071796004 $129 $212 forward 7 unknown #
loop $-1 $-1 $136 $81 #
plane-surface $-1 3.0810943076486339 -32.44475160427055 9.1712792382680846 0 -0.6018150307709319 0.79863550430605224 1 0 0 forward_v I I I I #
loop $-1 $-1 $213 $52 #
coedge $-1 $134 $134 $135 $214 reversed $82 $-1 #
coedge $-1 $135 $135 $134 $214 forward $84 $-1 #
coedge $-1 $136 $136 $85 $137 forward $131 $-1 #
edge $-1 $215 0 $215 6.2831853071796004 $136 $216 forward 7 unknown #
face $-1 $217 $218 $29 $-1 $219 forward single #
loop $-1 $-1 $220 $86 #
plane-surface $-1 8.2843406224418032 38.88462921047487 125.54028720160986 -1 0 0 0 0.6018150307709319 0.79863550430605224 forward_v I I I I #
coedge $-1 $221 $222 $223 $224 reversed $87 $-1 #
coedge $-1 $143 $89 $225 $226 reversed $56 $-1 #
coedge $-1 $89 $142 $221 $227 reversed $56 $-1 #
coedge $-1 $223 $228 $89 $145 forward $218 $-1 #
edge $-1 $229 -13.002436999033115 $230 -4.1084988594539453 $144 $231 forward 7 unknown #
loop $-1 $-1 $151 $90 #
plane-surface $-1 3.0810943076486339 -19.378309514851864 48.222757608426733 0 0.6018150307709319 0.79863550430605224 1 0 0 forward_v I I I I #
loop $-1 $-1 $232 $58 #
coedge $-1 $149 $149 $150 $233 reversed $91 $-1 #
coedge $-1 $150 $150 $149 $233 forward $93 $-1 #
coedge $-1 $151 $151 $94 $152 forward $146 $-1 #
edge $-1 $234 3.6979145736760323e-016 $234 6.2831853071796004 $151 $235 forward 7 unknown #
loop $-1 $-1 $158 $95 #
plane-surface $-1 3.0810943076486339 -19.378309514851864 48.222757608426733 0 0.6018150307709319 0.79863550430605224 1 0 0 forward_v I I I I #
loop $-1 $-1 $236 $61 #
coedge $-1 $156 $156 $157 $237 reversed $96 $-1 #
coedge $-1 $157 $157 $156 $237 forward $98 $-1 #
coedge $-1 $158 $158 $99 $159 forward $153 $-1 #
edge $-1 $238 3.6979145736760323e-016 $238 6.2831853071796004 $158 $239 forward 7 unknown #
face $-1 $240 $241 $24 $-1 $242 reversed single #
loop $-1 $-1 $243 $100 #
plane-surface $-1 -48.406018250068669 0 0 1 0 0 0 0 -1 forward_v I I I I #
coedge $-1 $244 $171 $243 $245 forward $101 $-1 #
coedge $-1 $246 $103 $244 $247 forward $65 $-1 #
coedge $-1 $103 $246 $248 $249 forward $65 $-1 #
coedge $-1 $174 $173 $103 $167 reversed $175 $-1 #
edge $-1 $250 -32.44475160427055 $251 32.44475160427055 $166 $252 forward 7 unknown #
coedge $-1 $105 $104 $253 $254 forward $41 $-1 #
coedge $-1 $255 $256 $104 $170 reversed $241 $-1 #
edge $-1 $177 -48.406018250068669 $257 48.406018250068669 $169 $258 forward 7 unknown #
coedge $-1 $163 $259 $105 $172 reversed $101 $-1 #
edge $-1 $260 -48.406018250068669 $176 48.406018250068669 $171 $261 forward 7 unknown #
coedge $-1 $166 $106 $259 $262 forward $175 $-1 #
coedge $-1 $106 $166 $255 $263 reversed $175 $-1 #
loop $-1 $-1 $173 $240 #
vertex $-1 $107 $264 #
vertex $-1 $107 $265 #
straight-curve $-1 48.406018250068669 0 15.873342477738616 0 1 0 I I #
face $-1 $266 $267 $25 $-1 $268 reversed single #
loop $-1 $-1 $269 $108 #
plane-surface $-1 -55.513009782886215 0 -15.373342477738618 0 0 1 1 0 0 forward_v I I I I #
coedge $-1 $270 $111 $271 $272 reversed $69 $-1 #
coedge $-1 $111 $270 $188 $273 reversed $69 $-1 #
edge $-1 $190 6.4157334272956499 $274 15.373342477738618 $111 $275 forward 7 unknown #
coedge $-1 $113 $112 $269 $276 forward $44 $-1 #
coedge $-1 $277 $278 $112 $187 forward $279 $-1 #
edge $-1 $280 -15.373342477738618 $191 -6.4157334272956499 $186 $281 forward 7 unknown #
coedge $-1 $282 $114 $183 $273 forward $109 $-1 #
coedge $-1 $114 $282 $277 $283 forward $109 $-1 #
vertex $-1 $184 $284 #
vertex $-1 $283 $285 #
straight-curve $-1 -48.406018250068669 0 -6.4157334272956499 0 -1 0 I I #
face $-1 $-1 $205 $26 $-1 $286 forward single #
loop $-1 $-1 $287 $116 #
plane-surface $-1 0 -32.44475160427055 0 0 1 0 0 0 1 forward_v I I I I #
coedge $-1 $288 $289 $290 $291 reversed $117 $-1 #
coedge $-1 $292 $119 $121 $203 forward $73 $-1 #
coedge $-1 $119 $292 $288 $293 forward $73 $-1 #
coedge $-1 $290 $122 $119 $200 forward $205 $-1 #
edge $-1 $207 -6.7437934686174863 $294 3.6626991609688524 $199 $295 forward 7 unknown #
coedge $-1 $296 $297 $120 $202 forward $194 $-1 #
edge $-1 $298 -34.07312517745752 $206 -27.371061937986987 $201 $299 forward 7 unknown #
edge $-1 $207 -11.136417166060333 $298 0 $121 $300 forward 7 unknown #
coedge $-1 $122 $290 $296 $301 forward $205 $-1 #
loop $-1 $-1 $290 $193 #
vertex $-1 $202 $302 #
vertex $-1 $123 $303 #
straight-curve $-1 8.2843406224418032 -45.353845164798642 15.873342477738618 0 1 0 I I #
coedge $-1 $209 $209 $-1 $304 reversed $126 $-1 #
edge $-1 $305 0 $305 6.2831853071796004 $127 $306 forward 7 unknown #
vertex $-1 $130 $307 #
ellipse-curve $-1 0.85113160130870824 -27.997782534480969 12.522310858003348 0 -0.6018150307709319 0.79863550430605224 1 0 0 1 I I #
coedge $-1 $213 $213 $-1 $308 reversed $133 $-1 #
edge $-1 $309 0 $309 6.2831853071796004 $134 $310 forward 7 unknown #
vertex $-1 $137 $311 #
ellipse-curve $-1 5.3110570139885667 -27.997782534480969 12.522310858003348 0 -0.6018150307709319 0.79863550430605224 1 0 0 1 I I #
face $-1 $-1 $312 $29 $-1 $313 reversed single #
loop $-1 $-1 $144 $138 #
plane-surface $-1 0 0 15.873342477738616 0 0 1 1 0 0 forward_v I I I I #
coedge $-1 $314 $315 $316 $317 reversed $139 $-1 #
coedge $-1 $318 $141 $143 $227 forward $87 $-1 #
coedge $-1 $141 $318 $314 $319 forward $87 $-1 #
coedge $-1 $316 $144 $141 $224 forward $218 $-1 #
edge $-1 $230 -3.6626991609688524 $320 6.7437934686174863 $223 $321 forward 7 unknown #
coedge $-1 $322 $323 $142 $226 forward $312 $-1 #
edge $-1 $324 -53.598864362536844 $229 -46.896801123066311 $225 $325 forward 7 unknown #
edge $-1 $230 53.753086042480774 $324 64.8895032085411 $143 $326 forward 7 unknown #
coedge $-1 $144 $316 $322 $327 forward $218 $-1 #
vertex $-1 $145 $328 #
vertex $-1 $145 $329 #
straight-curve $-1 -2.1221520071445354 19.442314605237435 15.873342477738618 0 -1 0 I I #
coedge $-1 $232 $232 $-1 $330 reversed $148 $-1 #
edge $-1 $331 0 $331 6.2831853071796004 $149 $332 forward 7 unknown #
vertex $-1 $152 $333 #
ellipse-curve $-1 0.85113160130870824 27.997782534480965 12.522310858003356 0 0.6018150307709319 0.79863550430605224 1 0 0 1 I I #
coedge $-1 $236 $236 $-1 $334 reversed $155 $-1 #
edge $-1 $335 0 $335 6.2831853071796004 $156 $336 forward 7 unknown #
vertex $-1 $159 $337 #
ellipse-curve $-1 5.3110570139885667 27.997782534480965 12.522310858003356 0 0.6018150307709319 0.79863550430605224 1 0 0 1 I I #
face $-1 $-1 $175 $24 $-1 $338 reversed single #
loop $-1 $-1 $255 $160 #
plane-surface $-1 0 32.44475160427055 0 0 -1 0 0 0 -1 forward_v I I I I #
coedge $-1 $253 $339 $163 $245 reversed $161 $-1 #
coedge $-1 $259 $163 $164 $247 reversed $101 $-1 #
edge $-1 $260 -15.873342477738616 $340 15.873342477738616 $243 $341 forward 7 unknown #
coedge $-1 $165 $164 $339 $342 forward $65 $-1 #
edge $-1 $251 -48.406018250068669 $340 48.406018250068669 $244 $343 forward 7 unknown #
coedge $-1 $256 $255 $165 $249 reversed $241 $-1 #
edge $-1 $344 -48.406018250068669 $250 48.406018250068669 $248 $345 forward 7 unknown #
vertex $-1 $167 $346 #
vertex $-1 $262 $347 #
straight-curve $-1 48.406018250068669 0 -15.873342477738616 0 -1 0 I I #
coedge $-1 $348 $243 $168 $254 reversed $161 $-1 #
edge $-1 $257 -32.44475160427055 $260 32.44475160427055 $253 $349 forward 7 unknown #
coedge $-1 $248 $169 $174 $263 forward $241 $-1 #
coedge $-1 $169 $248 $348 $350 reversed $241 $-1 #
vertex $-1 $170 $351 #
straight-curve $-1 0 32.44475160427055 15.873342477738616 -1 0 0 I I #
coedge $-1 $171 $244 $173 $262 reversed $101 $-1 #
vertex $-1 $254 $352 #
straight-curve $-1 0 -32.44475160427055 15.873342477738616 1 0 0 I I #
edge $-1 $176 -15.873342477738616 $251 15.873342477738616 $173 $353 forward 7 unknown #
edge $-1 $177 -15.873342477738616 $250 15.873342477738616 $174 $354 forward 7 unknown #
point $-1 48.406018250068669 -32.44475160427055 15.873342477738616 #
point $-1 48.406018250068669 32.44475160427055 15.873342477738616 #
face $-1 $-1 $279 $25 $-1 $355 reversed single #
loop $-1 $-1 $356 $179 #
plane-surface $-1 -62.62000131570376 0 -10.894537952517133 1 0 0 0 0 -1 forward_v I I I I #
coedge $-1 $357 $271 $185 $276 reversed $180 $-1 #
coedge $-1 $183 $182 $356 $358 reversed $69 $-1 #
coedge $-1 $269 $359 $182 $272 forward $180 $-1 #
edge $-1 $360 -7.1069915328175455 $274 7.1069915328175455 $182 $361 forward 7 unknown #
edge $-1 $190 -7.1069915328175455 $362 7.1069915328175455 $183 $363 forward 7 unknown #
vertex $-1 $184 $364 #
straight-curve $-1 -48.406018250068669 32.44475160427055 0 0 0 -1 I I #
edge $-1 $280 -32.44475160427055 $274 32.44475160427055 $269 $365 forward 7 unknown #
coedge $-1 $366 $186 $189 $283 reversed $279 $-1 #
coedge $-1 $186 $366 $357 $367 reversed $279 $-1 #
loop $-1 $-1 $186 $266 #
vertex $-1 $187 $368 #
straight-curve $-1 -48.406018250068669 -32.44475160427055 0 0 0 1 I I #
coedge $-1 $189 $188 $369 $370 forward $109 $-1 #
edge $-1 $371 -7.1069915328175455 $191 7.1069915328175455 $277 $372 forward 7 unknown #
point $-1 -48.406018250068669 32.44475160427055 -6.4157334272956499 #
point $-1 -48.406018250068669 -32.44475160427055 -6.4157334272956499 #
plane-surface $-1 0 0 15.873342477738616 0 0 1 1 0 0 forward_v I I I I #
coedge $-1 $297 $296 $289 $373 forward $194 $-1 #
coedge $-1 $289 $196 $198 $293 reversed $117 $-1 #
coedge $-1 $196 $288 $287 $373 reversed $117 $-1 #
coedge $-1 $204 $199 $196 $291 forward $205 $-1 #
edge $-1 $294 -21.803031700107262 $374 -12.909093560528092 $290 $375 forward 7 unknown #
coedge $-1 $198 $197 $297 $376 reversed $73 $-1 #
edge $-1 $377 0 $294 11.136417166060333 $288 $378 forward 7 unknown #
vertex $-1 $200 $379 #
straight-curve $-1 1.540547153824317 -23.55081346469138 15.873342477738616 -1 0 0 I I #
coedge $-1 $287 $201 $204 $301 reversed $194 $-1 #
coedge $-1 $201 $287 $292 $376 forward $194 $-1 #
vertex $-1 $202 $380 #
straight-curve $-1 8.2843406224418032 -32.44475160427055 43.244404415725604 0 0 1 I I #
straight-curve $-1 8.2843406224418032 -32.44475160427055 9.1712792382680846 0 -0.79863550430605224 -0.6018150307709319 I I #
edge $-1 $374 -2.1221520071445354 $206 8.2843406224418032 $296 $381 forward 7 unknown #
point $-1 8.2843406224418032 -32.44475160427055 15.873342477738616 #
point $-1 8.2843406224418032 -23.55081346469138 15.873342477738616 #
edge $-1 $382 1 $382 0 $209 $-1 forward 7 unknown #
vertex $-1 $210 $383 #
ellipse-curve $-1 0.85113160130870824 -26.644961411964577 10.727056628422645 0 -0.6018150307709319 0.79863550430605224 1 0 0 1 I I #
point $-1 1.8511316013087082 -27.997782534480969 12.522310858003348 #
edge $-1 $384 1 $384 0 $213 $-1 forward 7 unknown #
vertex $-1 $214 $385 #
ellipse-curve $-1 5.3110570139885667 -26.644961411964577 10.727056628422645 0 -0.6018150307709319 0.79863550430605224 1 0 0 1 I I #
point $-1 6.3110570139885667 -27.997782534480969 12.522310858003348 #
loop $-1 $-1 $225 $217 #
plane-surface $-1 0 32.44475160427055 0 0 -1 0 0 0 -1 forward_v I I I I #
coedge $-1 $315 $220 $222 $319 reversed $139 $-1 #
coedge $-1 $220 $314 $386 $387 reversed $139 $-1 #
coedge $-1 $228 $223 $220 $317 forward $218 $-1 #
edge $-1 $320 4.1084988594539453 $388 13.002436999033115 $316 $389 forward 7 unknown #
coedge $-1 $222 $221 $323 $390 reversed $87 $-1 #
edge $-1 $391 -64.8895032085411 $320 -53.753086042480774 $314 $392 forward 7 unknown #
vertex $-1 $224 $393 #
straight-curve $-1 1.540547153824317 23.55081346469138 15.873342477738618 1 0 0 I I #
coedge $-1 $386 $225 $228 $327 reversed $312 $-1 #
coedge $-1 $225 $386 $318 $390 forward $312 $-1 #
vertex $-1 $226 $394 #
straight-curve $-1 -2.1221520071445354 32.44475160427055 62.770143600804928 0 0 1 I I #
straight-curve $-1 -2.1221520071445354 -19.378309514851864 48.222757608426733 0 0.79863550430605224 -0.6018150307709319 I I #
edge $-1 $388 -8.2843406224418032 $229 2.1221520071445354 $322 $395 forward 7 unknown #
point $-1 -2.1221520071445354 32.44475160427055 15.873342477738616 #
point $-1 -2.1221520071445354 23.55081346469138 15.873342477738618 #
edge $-1 $396 1 $396 0 $232 $-1 forward 7 unknown #
vertex $-1 $233 $397 #
ellipse-curve $-1 0.85113160130870824 26.644961411964569 10.727056628422648 0 0.6018150307709319 0.79863550430605224 1 0 0 1 I I #
point $-1 1.8511316013087082 27.997782534480962 12.522310858003351 #
edge $-1 $398 1 $398 0 $236 $-1 forward 7 unknown #
vertex $-1 $237 $399 #
ellipse-curve $-1 5.3110570139885667 26.644961411964569 10.727056628422648 0 0.6018150307709319 0.79863550430605224 1 0 0 1 I I #
point $-1 6.3110570139885667 27.997782534480962 12.522310858003351 #
plane-surface $-1 48.406018250068669 0 0 -1 0 0 0 0 1 forward_v I I I I #
coedge $-1 $243 $348 $246 $342 reversed $161 $-1 #
vertex $-1 $342 $400 #
straight-curve $-1 -48.406018250068669 -32.44475160427055 0 0 0 -1 I I #
edge $-1 $340 -32.44475160427055 $344 32.44475160427055 $339 $401 forward 7 unknown #
straight-curve $-1 0 -32.44475160427055 -15.873342477738616 -1 0 0 I I #
vertex $-1 $249 $402 #
straight-curve $-1 0 32.44475160427055 -15.873342477738616 1 0 0 I I #
point $-1 48.406018250068669 32.44475160427055 -15.873342477738616 #
point $-1 48.406018250068669 -32.44475160427055 -15.873342477738616 #
coedge $-1 $339 $253 $256 $350 forward $161 $-1 #
straight-curve $-1 -48.406018250068669 0 15.873342477738616 0 -1 0 I I #
edge $-1 $257 -15.873342477738616 $344 15.873342477738616 $256 $403 forward 7 unknown #
point $-1 -48.406018250068669 32.44475160427055 15.873342477738616 #
point $-1 -48.406018250068669 -32.44475160427055 15.873342477738616 #
straight-curve $-1 48.406018250068669 -32.44475160427055 0 0 0 -1 I I #
straight-curve $-1 48.406018250068669 32.44475160427055 0 0 0 -1 I I #
plane-surface $-1 0 -32.44475160427055 0 0 1 0 0 0 1 forward_v I I I I #
coedge $-1 $404 $369 $270 $358 forward $267 $-1 #
coedge $-1 $359 $269 $278 $367 forward $180 $-1 #
edge $-1 $362 -4.4788045252214834 $360 4.4788045252214843 $270 $405 forward 7 unknown #
coedge $-1 $271 $357 $404 $406 forward $180 $-1 #
vertex $-1 $272 $407 #
straight-curve $-1 -55.513009782886215 32.44475160427055 -15.373342477738618 1 0 0 I I #
vertex $-1 $273 $408 #
straight-curve $-1 -55.513009782886215 32.44475160427055 -6.4157334272956499 -1 0 0 I I #
point $-1 -48.406018250068669 32.44475160427055 -15.373342477738618 #
straight-curve $-1 -48.406018250068669 0 -15.373342477738618 0 1 0 I I #
coedge $-1 $278 $277 $409 $410 forward $279 $-1 #
edge $-1 $280 -7.1069915328175455 $411 7.1069915328175455 $278 $412 forward 7 unknown #
point $-1 -48.406018250068669 -32.44475160427055 -15.373342477738618 #
coedge $-1 $356 $409 $282 $370 reversed $267 $-1 #
edge $-1 $362 -32.44475160427055 $371 32.44475160427055 $369 $413 forward 7 unknown #
vertex $-1 $370 $414 #
straight-curve $-1 -55.513009782886215 -32.44475160427055 -6.4157334272956499 1 0 0 I I #
edge $-1 $374 27.371061937986987 $377 34.07312517745752 $287 $415 forward 7 unknown #
vertex $-1 $301 $416 #
straight-curve $-1 -2.1221520071445354 -45.353845164798642 15.873342477738618 0 -1 0 I I #
edge $-1 $377 -3.6626991609688524 $298 6.7437934686174863 $297 $417 forward 7 unknown #
vertex $-1 $376 $418 #
straight-curve $-1 -2.1221520071445354 -32.44475160427055 9.1712792382680846 0 0.79863550430605224 0.6018150307709319 I I #
point $-1 -2.1221520071445354 -23.55081346469138 15.873342477738616 #
point $-1 8.2843406224418032 -32.44475160427055 9.1712792382680846 #
straight-curve $-1 0 -32.44475160427055 15.873342477738616 1 0 0 I I #
vertex $-1 $304 $419 #
point $-1 1.8511316013087082 -26.644961411964577 10.727056628422645 #
vertex $-1 $308 $420 #
point $-1 6.3110570139885667 -26.644961411964577 10.727056628422645 #
coedge $-1 $323 $322 $315 $387 forward $312 $-1 #
edge $-1 $388 46.896801123066311 $391 53.598864362536844 $386 $421 forward 7 unknown #
vertex $-1 $327 $422 #
straight-curve $-1 8.2843406224418032 19.442314605237435 15.873342477738618 0 1 0 I I #
edge $-1 $391 -6.7437934686174863 $324 3.6626991609688524 $323 $423 forward 7 unknown #
vertex $-1 $390 $424 #
straight-curve $-1 8.2843406224418032 -19.378309514851864 48.222757608426733 0 -0.79863550430605224 0.6018150307709319 I I #
point $-1 8.2843406224418032 23.55081346469138 15.873342477738618 #
point $-1 -2.1221520071445354 32.44475160427055 9.1712792382680846 #
straight-curve $-1 0 32.44475160427055 15.873342477738616 -1 0 0 I I #
vertex $-1 $330 $425 #
point $-1 1.8511316013087082 26.644961411964569 10.727056628422648 #
vertex $-1 $334 $426 #
point $-1 6.3110570139885667 26.644961411964569 10.727056628422648 #
point $-1 -48.406018250068669 -32.44475160427055 -15.873342477738616 #
straight-curve $-1 -48.406018250068669 0 -15.873342477738616 0 1 0 I I #
point $-1 -48.406018250068669 32.44475160427055 -15.873342477738616 #
straight-curve $-1 -48.406018250068669 32.44475160427055 0 0 0 -1 I I #
coedge $-1 $409 $356 $359 $406 reversed $267 $-1 #
straight-curve $-1 -62.62000131570376 32.44475160427055 -10.894537952517133 0 0 -1 I I #
edge $-1 $411 -32.44475160427055 $360 32.44475160427055 $404 $427 forward 7 unknown #
point $-1 -62.62000131570376 32.44475160427055 -15.373342477738618 #
point $-1 -62.62000131570376 32.44475160427055 -6.4157334272956499 #
coedge $-1 $369 $404 $366 $410 reversed $267 $-1 #
edge $-1 $371 -4.4788045252214834 $411 4.4788045252214843 $409 $428 forward 7 unknown #
vertex $-1 $406 $429 #
straight-curve $-1 -55.513009782886215 -32.44475160427055 -15.373342477738618 -1 0 0 I I #
straight-curve $-1 -62.62000131570376 0 -6.4157334272956499 0 -1 0 I I #
point $-1 -62.62000131570376 -32.44475160427055 -6.4157334272956499 #
straight-curve $-1 -2.1221520071445354 -32.44475160427055 43.244404415725604 0 0 -1 I I #
point $-1 -2.1221520071445354 -32.44475160427055 15.873342477738616 #
straight-curve $-1 1.540547153824317 -32.44475160427055 9.1712792382680846 1 0 0 I I #
point $-1 -2.1221520071445354 -32.44475160427055 9.1712792382680846 #
point $-1 0.85113160130870824 -26.043146381193647 9.9284211241165927 #
point $-1 5.3110570139885667 -26.043146381193647 9.9284211241165927 #
straight-curve $-1 8.2843406224418032 32.44475160427055 62.770143600804928 0 0 -1 I I #
point $-1 8.2843406224418032 32.44475160427055 15.873342477738616 #
straight-curve $-1 1.540547153824317 32.44475160427055 9.1712792382680917 -1 0 0 I I #
point $-1 8.2843406224418032 32.44475160427055 9.1712792382680846 #
point $-1 0.85113160130870824 26.04314638119364 9.9284211241165963 #
point $-1 5.3110570139885667 26.04314638119364 9.9284211241165963 #
straight-curve $-1 -62.62000131570376 0 -15.373342477738618 0 1 0 I I #
straight-curve $-1 -62.62000131570376 -32.44475160427055 -10.894537952517133 0 0 -1 I I #
point $-1 -62.62000131570376 -32.44475160427055 -15.373342477738618 #
End-of-ACIS-data 