500 0 18 0           
7 Unknown 11 ACIS 5.0 NT 24 Thu Mar 25 20:58:41 1999 
-1 9.9999999999999995e-007 1e-010 
body $-1 $18 $-1 $19 #
body $-1 $20 $-1 $21 #
body $-1 $22 $-1 $23 #
body $-1 $24 $-1 $25 #
body $-1 $26 $-1 $27 #
body $-1 $28 $-1 $29 #
body $-1 $30 $-1 $31 #
body $-1 $32 $-1 $33 #
body $-1 $34 $-1 $35 #
body $-1 $36 $-1 $37 #
body $-1 $38 $-1 $39 #
body $-1 $40 $-1 $41 #
body $-1 $42 $-1 $43 #
body $-1 $44 $-1 $45 #
body $-1 $46 $-1 $47 #
body $-1 $48 $-1 $49 #
body $-1 $50 $-1 $51 #
body $-1 $52 $-1 $53 #
lump $-1 $-1 $54 $0 #
transform $-1 1 0 0 0 1 0 0 0 1 46.675008392590108 25.799668935410381 10.282388883978125 1 rotate no_reflect no_shear #
lump $-1 $-1 $55 $1 #
transform $-1 1 0 0 0 1 0 0 0 1 46.675008392590108 25.799668935410381 10.282388883978125 1 rotate no_reflect no_shear #
lump $-1 $-1 $56 $2 #
transform $-1 1 0 0 0 1 0 0 0 1 46.675008392590108 25.799668935410381 10.282388883978125 1 rotate no_reflect no_shear #
lump $-1 $-1 $57 $3 #
transform $-1 1 0 0 0 1 0 0 0 1 46.675008392590108 25.799668935410381 10.282388883978125 1 rotate no_reflect no_shear #
lump $-1 $-1 $58 $4 #
transform $-1 1 0 0 0 1 0 0 0 1 46.675008392590108 25.799668935410381 10.282388883978125 1 rotate no_reflect no_shear #
lump $-1 $-1 $59 $5 #
transform $-1 1 0 0 0 1 0 0 0 1 46.675008392590108 25.799668935410381 10.282388883978125 1 rotate no_reflect no_shear #
lump $-1 $-1 $60 $6 #
transform $-1 1 0 0 0 1 0 0 0 1 46.675008392590108 25.799668935410381 10.282388883978125 1 rotate no_reflect no_shear #
lump $-1 $-1 $61 $7 #
transform $-1 1 0 0 0 1 0 0 0 1 46.675008392590108 25.799668935410381 10.282388883978125 1 rotate no_reflect no_shear #
lump $-1 $-1 $62 $8 #
transform $-1 1 0 0 0 1 0 0 0 1 46.675008392590108 25.799668935410381 10.282388883978125 1 rotate no_reflect no_shear #
lump $-1 $-1 $63 $9 #
transform $-1 1 0 0 0 1 0 0 0 1 46.675008392590108 25.799668935410381 10.282388883978125 1 rotate no_reflect no_shear #
lump $-1 $-1 $64 $10 #
transform $-1 1 0 0 0 1 0 0 0 1 46.675008392590108 25.799668935410381 10.282388883978125 1 rotate no_reflect no_shear #
lump $-1 $-1 $65 $11 #
transform $-1 1 0 0 0 1 0 0 0 1 46.675008392590108 25.799668935410381 10.282388883978125 1 rotate no_reflect no_shear #
lump $-1 $-1 $66 $12 #
transform $-1 1 0 0 0 1 0 0 0 1 46.675008392590108 25.799668935410381 10.282388883978125 1 rotate no_reflect no_shear #
lump $-1 $-1 $67 $13 #
transform $-1 1 0 0 0 1 0 0 0 1 46.675008392590108 25.799668935410381 10.282388883978125 1 rotate no_reflect no_shear #
lump $-1 $-1 $68 $14 #
transform $-1 1 0 0 0 1 0 0 0 1 46.675008392590108 25.799668935410381 10.282388883978125 1 rotate no_reflect no_shear #
lump $-1 $-1 $69 $15 #
transform $-1 1 0 0 0 1 0 0 0 1 46.675008392590108 25.799668935410381 10.282388883978125 1 rotate no_reflect no_shear #
lump $-1 $-1 $70 $16 #
transform $-1 1 0 0 0 1 0 0 0 1 46.675008392590108 25.799668935410381 10.282388883978125 1 rotate no_reflect no_shear #
lump $-1 $-1 $71 $17 #
transform $-1 1 0 0 0 1 0 0 0 1 46.675008392590108 25.799668935410381 10.282388883978125 1 rotate no_reflect no_shear #
shell $-1 $-1 $-1 $72 $-1 $18 #
shell $-1 $-1 $-1 $73 $-1 $20 #
shell $-1 $-1 $-1 $74 $-1 $22 #
shell $-1 $-1 $-1 $75 $-1 $24 #
shell $-1 $-1 $-1 $76 $-1 $26 #
shell $-1 $-1 $-1 $77 $-1 $28 #
shell $-1 $-1 $-1 $78 $-1 $30 #
shell $-1 $-1 $-1 $79 $-1 $32 #
shell $-1 $-1 $-1 $80 $-1 $34 #
shell $-1 $-1 $-1 $81 $-1 $36 #
shell $-1 $-1 $-1 $82 $-1 $38 #
shell $-1 $-1 $-1 $83 $-1 $40 #
shell $-1 $-1 $-1 $84 $-1 $42 #
shell $-1 $-1 $-1 $85 $-1 $44 #
shell $-1 $-1 $-1 $86 $-1 $46 #
shell $-1 $-1 $-1 $87 $-1 $48 #
shell $-1 $-1 $-1 $88 $-1 $50 #
shell $-1 $-1 $-1 $89 $-1 $52 #
face $-1 $90 $91 $54 $-1 $92 forward single #
face $-1 $93 $94 $55 $-1 $95 reversed single #
face $-1 $96 $97 $56 $-1 $98 reversed single #
face $-1 $99 $100 $57 $-1 $101 forward single #
face $-1 $102 $103 $58 $-1 $104 forward single #
face $-1 $105 $106 $59 $-1 $107 forward single #
face $-1 $108 $109 $60 $-1 $110 reversed single #
face $-1 $111 $112 $61 $-1 $113 forward single #
face $-1 $114 $115 $62 $-1 $116 forward single #
face $-1 $117 $118 $63 $-1 $119 forward single #
face $-1 $120 $121 $64 $-1 $122 reversed single #
face $-1 $123 $124 $65 $-1 $125 forward single #
face $-1 $126 $127 $66 $-1 $128 forward single #
face $-1 $129 $130 $67 $-1 $131 forward single #
face $-1 $132 $133 $68 $-1 $134 reversed single #
face $-1 $135 $136 $69 $-1 $137 forward single #
face $-1 $138 $139 $70 $-1 $140 forward single #
face $-1 $141 $142 $71 $-1 $143 forward single #
face $-1 $144 $145 $54 $-1 $146 reversed single #
loop $-1 $-1 $147 $72 #
plane-surface $-1 0 0 10.282388883978125 0 0 1 1 0 0 forward_v I I I I #
face $-1 $148 $149 $55 $-1 $150 reversed single #
loop $-1 $-1 $151 $73 #
plane-surface $-1 0 -19.408044123557715 5.5386261727412922 0 0 1 1 0 0 forward_v I I I I #
face $-1 $152 $153 $56 $-1 $154 reversed single #
loop $-1 $-1 $155 $74 #
plane-surface $-1 -44.413156431555279 65.873743294974204 102.01987084414937 1 0 0 0 -0.77714596973225614 -0.62932038083071107 forward_v I I I I #
face $-1 $156 $157 $57 $-1 $158 forward single #
loop $-1 $159 $160 $75 #
cone-surface $-1 -42.493465627989437 22.301546535441894 6.2258908622696278 0 -0.77714596973225614 -0.62932038083071107 0.5 0 0 1 I I 0 1 0.5 forward I I I I #
face $-1 $161 $162 $58 $-1 $163 forward single #
loop $-1 $164 $165 $76 #
cone-surface $-1 -39.613929422640673 22.301546535441894 6.2258908622696278 0 -0.77714596973225614 -0.62932038083071107 0.5 0 0 1 I I 0 1 0.5 forward I I I I #
face $-1 $166 $167 $59 $-1 $168 forward single #
loop $-1 $169 $170 $77 #
cone-surface $-1 -36.73439321729191 22.301546535441894 6.2258908622696278 0 -0.77714596973225614 -0.62932038083071107 0.5 0 0 1 I I 0 1 0.5 forward I I I I #
face $-1 $171 $172 $60 $-1 $173 reversed single #
loop $-1 $-1 $174 $78 #
plane-surface $-1 -21.075652235260218 65.873743294974204 102.01987084414937 1 0 0 0 -0.77714596973225614 -0.62932038083071107 forward_v I I I I #
face $-1 $175 $176 $61 $-1 $177 forward single #
loop $-1 $178 $179 $79 #
cone-surface $-1 -19.155961431694379 22.301546535441894 6.2258908622696278 0 -0.77714596973225614 -0.62932038083071107 0.5 0 0 1 I I 0 1 0.5 forward I I I I #
face $-1 $180 $181 $62 $-1 $182 forward single #
loop $-1 $183 $184 $80 #
cone-surface $-1 -16.276425226345616 22.301546535441894 6.2258908622696278 0 -0.77714596973225614 -0.62932038083071107 0.5 0 0 1 I I 0 1 0.5 forward I I I I #
face $-1 $185 $186 $63 $-1 $187 forward single #
loop $-1 $188 $189 $81 #
cone-surface $-1 -13.396889020996859 22.301546535441894 6.2258908622696278 0 -0.77714596973225614 -0.62932038083071107 0.5 0 0 1 I I 0 1 0.5 forward I I I I #
face $-1 $190 $191 $64 $-1 $192 reversed single #
loop $-1 $-1 $193 $82 #
plane-surface $-1 2.2618519610348393 65.873743294974204 102.01987084414937 1 0 0 0 -0.77714596973225614 -0.62932038083071107 forward_v I I I I #
face $-1 $194 $195 $65 $-1 $196 forward single #
loop $-1 $197 $198 $83 #
cone-surface $-1 4.1815427646006711 22.301546535441894 6.2258908622696278 0 -0.77714596973225614 -0.62932038083071107 0.5 0 0 1 I I 0 1 0.5 forward I I I I #
face $-1 $199 $200 $66 $-1 $201 forward single #
loop $-1 $202 $203 $84 #
cone-surface $-1 7.0610789699494418 22.301546535441894 6.2258908622696278 0 -0.77714596973225614 -0.62932038083071107 0.5 0 0 1 I I 0 1 0.5 forward I I I I #
face $-1 $204 $205 $67 $-1 $206 forward single #
loop $-1 $207 $208 $85 #
cone-surface $-1 9.9406151752981984 22.301546535441894 6.2258908622696278 0 -0.77714596973225614 -0.62932038083071107 0.5 0 0 1 I I 0 1 0.5 forward I I I I #
face $-1 $209 $210 $68 $-1 $211 reversed single #
loop $-1 $-1 $212 $86 #
plane-surface $-1 25.599356157329897 65.873743294974204 102.01987084414937 1 0 0 0 -0.77714596973225614 -0.62932038083071107 forward_v I I I I #
face $-1 $213 $214 $69 $-1 $215 forward single #
loop $-1 $216 $217 $87 #
cone-surface $-1 27.519046960895729 22.301546535441894 6.2258908622696278 0 -0.77714596973225614 -0.62932038083071107 0.5 0 0 1 I I 0 1 0.5 forward I I I I #
face $-1 $218 $219 $70 $-1 $220 forward single #
loop $-1 $221 $222 $88 #
cone-surface $-1 30.398583166244499 22.301546535441894 6.2258908622696278 0 -0.77714596973225614 -0.62932038083071107 0.5 0 0 1 I I 0 1 0.5 forward I I I I #
face $-1 $223 $224 $71 $-1 $225 forward single #
loop $-1 $226 $227 $89 #
cone-surface $-1 33.278119371593256 22.301546535441894 6.2258908622696278 0 -0.77714596973225614 -0.62932038083071107 0.5 0 0 1 I I 0 1 0.5 forward I I I I #
face $-1 $228 $229 $54 $-1 $230 reversed single #
loop $-1 $-1 $231 $90 #
plane-surface $-1 0 0 -10.282388883978125 0 0 1 1 0 0 forward_v I I I I #
coedge $-1 $232 $233 $234 $235 forward $91 $-1 #
face $-1 $236 $237 $55 $-1 $238 reversed single #
loop $-1 $-1 $239 $93 #
plane-surface $-1 0 -13.01641931170505 7.9105075283597088 0 -1 0 0 0 -1 forward_v I I I I #
coedge $-1 $240 $241 $242 $243 reversed $94 $-1 #
face $-1 $244 $245 $56 $-1 $246 reversed single #
loop $-1 $-1 $247 $96 #
plane-surface $-1 -39.613929422640673 -6.6728460240670557 43.272802730346484 0 0.77714596973225614 0.62932038083071107 1 0 0 forward_v I I I I #
coedge $-1 $248 $249 $250 $251 reversed $97 $-1 #
face $-1 $-1 $252 $57 $-1 $253 forward single #
loop $-1 $254 $255 $99 #
cone-surface $-1 -42.493465627989437 21.487840291276754 5.5669645557499443 0 -0.77714596973225614 -0.62932038083071107 0.25 0 0 1 I I -0.70710678118654746 0.70710678118654746 0.25 forward I I I I #
loop $-1 $-1 $256 $75 #
coedge $-1 $160 $160 $257 $258 reversed $100 $-1 #
face $-1 $-1 $259 $58 $-1 $260 forward single #
loop $-1 $261 $262 $102 #
cone-surface $-1 -39.613929422640673 21.487840291276754 5.5669645557499443 0 -0.77714596973225614 -0.62932038083071107 0.25 0 0 1 I I -0.70710678118654746 0.70710678118654746 0.25 forward I I I I #
loop $-1 $-1 $263 $76 #
coedge $-1 $165 $165 $264 $265 reversed $103 $-1 #
face $-1 $-1 $266 $59 $-1 $267 forward single #
loop $-1 $268 $269 $105 #
cone-surface $-1 -36.73439321729191 21.487840291276754 5.5669645557499443 0 -0.77714596973225614 -0.62932038083071107 0.25 0 0 1 I I -0.70710678118654746 0.70710678118654746 0.25 forward I I I I #
loop $-1 $-1 $270 $77 #
coedge $-1 $170 $170 $271 $272 reversed $106 $-1 #
face $-1 $273 $274 $60 $-1 $275 reversed single #
loop $-1 $-1 $276 $108 #
plane-surface $-1 -16.276425226345616 -6.6728460240670557 43.272802730346484 0 0.77714596973225614 0.62932038083071107 1 0 0 forward_v I I I I #
coedge $-1 $277 $278 $279 $280 reversed $109 $-1 #
face $-1 $-1 $281 $61 $-1 $282 forward single #
loop $-1 $283 $284 $111 #
cone-surface $-1 -19.155961431694379 21.487840291276754 5.5669645557499443 0 -0.77714596973225614 -0.62932038083071107 0.25 0 0 1 I I -0.70710678118654746 0.70710678118654746 0.25 forward I I I I #
loop $-1 $-1 $285 $79 #
coedge $-1 $179 $179 $286 $287 reversed $112 $-1 #
face $-1 $-1 $288 $62 $-1 $289 forward single #
loop $-1 $290 $291 $114 #
cone-surface $-1 -16.276425226345616 21.487840291276754 5.5669645557499443 0 -0.77714596973225614 -0.62932038083071107 0.25 0 0 1 I I -0.70710678118654746 0.70710678118654746 0.25 forward I I I I #
loop $-1 $-1 $292 $80 #
coedge $-1 $184 $184 $293 $294 reversed $115 $-1 #
face $-1 $-1 $295 $63 $-1 $296 forward single #
loop $-1 $297 $298 $117 #
cone-surface $-1 -13.396889020996859 21.487840291276754 5.5669645557499443 0 -0.77714596973225614 -0.62932038083071107 0.25 0 0 1 I I -0.70710678118654746 0.70710678118654746 0.25 forward I I I I #
loop $-1 $-1 $299 $81 #
coedge $-1 $189 $189 $300 $301 reversed $118 $-1 #
face $-1 $302 $303 $64 $-1 $304 reversed single #
loop $-1 $-1 $305 $120 #
plane-surface $-1 7.0610789699494418 -6.6728460240670557 43.272802730346484 0 0.77714596973225614 0.62932038083071107 1 0 0 forward_v I I I I #
coedge $-1 $306 $307 $308 $309 reversed $121 $-1 #
face $-1 $-1 $310 $65 $-1 $311 forward single #
loop $-1 $312 $313 $123 #
cone-surface $-1 4.1815427646006711 21.487840291276754 5.5669645557499443 0 -0.77714596973225614 -0.62932038083071107 0.25 0 0 1 I I -0.70710678118654746 0.70710678118654746 0.25 forward I I I I #
loop $-1 $-1 $314 $83 #
coedge $-1 $198 $198 $315 $316 reversed $124 $-1 #
face $-1 $-1 $317 $66 $-1 $318 forward single #
loop $-1 $319 $320 $126 #
cone-surface $-1 7.0610789699494418 21.487840291276754 5.5669645557499443 0 -0.77714596973225614 -0.62932038083071107 0.25 0 0 1 I I -0.70710678118654746 0.70710678118654746 0.25 forward I I I I #
loop $-1 $-1 $321 $84 #
coedge $-1 $203 $203 $322 $323 reversed $127 $-1 #
face $-1 $-1 $324 $67 $-1 $325 forward single #
loop $-1 $326 $327 $129 #
cone-surface $-1 9.9406151752981984 21.487840291276754 5.5669645557499443 0 -0.77714596973225614 -0.62932038083071107 0.25 0 0 1 I I -0.70710678118654746 0.70710678118654746 0.25 forward I I I I #
loop $-1 $-1 $328 $85 #
coedge $-1 $208 $208 $329 $330 reversed $130 $-1 #
face $-1 $331 $332 $68 $-1 $333 reversed single #
loop $-1 $-1 $334 $132 #
plane-surface $-1 30.398583166244499 -6.6728460240670557 43.272802730346484 0 0.77714596973225614 0.62932038083071107 1 0 0 forward_v I I I I #
coedge $-1 $335 $336 $337 $338 reversed $133 $-1 #
face $-1 $-1 $339 $69 $-1 $340 forward single #
loop $-1 $341 $342 $135 #
cone-surface $-1 27.519046960895729 21.487840291276754 5.5669645557499443 0 -0.77714596973225614 -0.62932038083071107 0.25 0 0 1 I I -0.70710678118654746 0.70710678118654746 0.25 forward I I I I #
loop $-1 $-1 $343 $87 #
coedge $-1 $217 $217 $344 $345 reversed $136 $-1 #
face $-1 $-1 $346 $70 $-1 $347 forward single #
loop $-1 $348 $349 $138 #
cone-surface $-1 30.398583166244499 21.487840291276754 5.5669645557499443 0 -0.77714596973225614 -0.62932038083071107 0.25 0 0 1 I I -0.70710678118654746 0.70710678118654746 0.25 forward I I I I #
loop $-1 $-1 $350 $88 #
coedge $-1 $222 $222 $351 $352 reversed $139 $-1 #
face $-1 $-1 $353 $71 $-1 $354 forward single #
loop $-1 $355 $356 $141 #
cone-surface $-1 33.278119371593256 21.487840291276754 5.5669645557499443 0 -0.77714596973225614 -0.62932038083071107 0.25 0 0 1 I I -0.70710678118654746 0.70710678118654746 0.25 forward I I I I #
loop $-1 $-1 $357 $89 #
coedge $-1 $227 $227 $358 $359 reversed $142 $-1 #
face $-1 $360 $361 $54 $-1 $362 reversed single #
loop $-1 $-1 $363 $144 #
plane-surface $-1 0 -25.799668935410381 0 0 1 0 0 0 1 forward_v I I I I #
coedge $-1 $364 $365 $366 $367 forward $145 $-1 #
coedge $-1 $368 $147 $369 $370 forward $91 $-1 #
coedge $-1 $147 $368 $371 $372 forward $91 $-1 #
coedge $-1 $373 $374 $147 $235 reversed $375 $-1 #
edge $-1 $376 -25.799668935410381 $377 25.799668935410381 $234 $378 forward 7 unknown #
face $-1 $379 $380 $55 $-1 $381 reversed single #
loop $-1 $-1 $382 $148 #
plane-surface $-1 -46.675008392590108 0 0 1 0 0 0 0 -1 forward_v I I I I #
coedge $-1 $383 $384 $385 $386 reversed $149 $-1 #
coedge $-1 $387 $151 $388 $389 reversed $94 $-1 #
coedge $-1 $151 $387 $383 $390 forward $94 $-1 #
coedge $-1 $385 $391 $151 $243 forward $392 $-1 #
edge $-1 $393 -16.095646873631523 $394 -3.3123972499261924 $242 $395 forward 7 unknown #
face $-1 $396 $397 $56 $-1 $398 forward single #
loop $-1 $-1 $399 $152 #
plane-surface $-1 -34.814702413726067 65.873743294974204 102.01987084414937 -1 0 0 0 0.77714596973225614 0.62932038083071107 forward_v I I I I #
coedge $-1 $400 $401 $402 $403 reversed $153 $-1 #
coedge $-1 $249 $155 $404 $405 reversed $97 $-1 #
coedge $-1 $155 $248 $400 $406 reversed $97 $-1 #
coedge $-1 $402 $407 $155 $251 forward $397 $-1 #
edge $-1 $408 7.1372027120767214 $409 12.894608008549529 $250 $410 forward 7 unknown #
loop $-1 $-1 $257 $156 #
plane-surface $-1 -39.613929422640673 -6.6728460240670557 43.272802730346484 0 0.77714596973225614 0.62932038083071107 1 0 0 forward_v I I I I #
loop $-1 $-1 $411 $99 #
coedge $-1 $255 $255 $256 $412 reversed $157 $-1 #
coedge $-1 $256 $256 $255 $412 forward $159 $-1 #
coedge $-1 $257 $257 $160 $258 forward $252 $-1 #
edge $-1 $413 -2.7009868585930961e-015 $413 6.2831853071795978 $257 $414 forward 7 unknown #
loop $-1 $-1 $264 $161 #
plane-surface $-1 -39.613929422640673 -6.6728460240670557 43.272802730346484 0 0.77714596973225614 0.62932038083071107 1 0 0 forward_v I I I I #
loop $-1 $-1 $415 $102 #
coedge $-1 $262 $262 $263 $416 reversed $162 $-1 #
coedge $-1 $263 $263 $262 $416 forward $164 $-1 #
coedge $-1 $264 $264 $165 $265 forward $259 $-1 #
edge $-1 $417 -2.7009868585930961e-015 $417 6.2831853071795978 $264 $418 forward 7 unknown #
loop $-1 $-1 $271 $166 #
plane-surface $-1 -39.613929422640673 -6.6728460240670557 43.272802730346484 0 0.77714596973225614 0.62932038083071107 1 0 0 forward_v I I I I #
loop $-1 $-1 $419 $105 #
coedge $-1 $269 $269 $270 $420 reversed $167 $-1 #
coedge $-1 $270 $270 $269 $420 forward $169 $-1 #
coedge $-1 $271 $271 $170 $272 forward $266 $-1 #
edge $-1 $421 -2.7009868585930961e-015 $421 6.2831853071795978 $271 $422 forward 7 unknown #
face $-1 $423 $424 $60 $-1 $425 forward single #
loop $-1 $-1 $426 $171 #
plane-surface $-1 -11.477198217431013 65.873743294974204 102.01987084414937 -1 0 0 0 0.77714596973225614 0.62932038083071107 forward_v I I I I #
coedge $-1 $427 $428 $429 $430 reversed $172 $-1 #
coedge $-1 $278 $174 $431 $432 reversed $109 $-1 #
coedge $-1 $174 $277 $427 $433 reversed $109 $-1 #
coedge $-1 $429 $434 $174 $280 forward $424 $-1 #
edge $-1 $435 7.1372027120767214 $436 12.894608008549529 $279 $437 forward 7 unknown #
loop $-1 $-1 $286 $175 #
plane-surface $-1 -16.276425226345616 -6.6728460240670557 43.272802730346484 0 0.77714596973225614 0.62932038083071107 1 0 0 forward_v I I I I #
loop $-1 $-1 $438 $111 #
coedge $-1 $284 $284 $285 $439 reversed $176 $-1 #
coedge $-1 $285 $285 $284 $439 forward $178 $-1 #
coedge $-1 $286 $286 $179 $287 forward $281 $-1 #
edge $-1 $440 -2.7009868585930961e-015 $440 6.2831853071795978 $286 $441 forward 7 unknown #
loop $-1 $-1 $293 $180 #
plane-surface $-1 -16.276425226345616 -6.6728460240670557 43.272802730346484 0 0.77714596973225614 0.62932038083071107 1 0 0 forward_v I I I I #
loop $-1 $-1 $442 $114 #
coedge $-1 $291 $291 $292 $443 reversed $181 $-1 #
coedge $-1 $292 $292 $291 $443 forward $183 $-1 #
coedge $-1 $293 $293 $184 $294 forward $288 $-1 #
edge $-1 $444 -2.7009868585930961e-015 $444 6.2831853071795978 $293 $445 forward 7 unknown #
loop $-1 $-1 $300 $185 #
plane-surface $-1 -16.276425226345616 -6.6728460240670557 43.272802730346484 0 0.77714596973225614 0.62932038083071107 1 0 0 forward_v I I I I #
loop $-1 $-1 $446 $117 #
coedge $-1 $298 $298 $299 $447 reversed $186 $-1 #
coedge $-1 $299 $299 $298 $447 forward $188 $-1 #
coedge $-1 $300 $300 $189 $301 forward $295 $-1 #
edge $-1 $448 -2.7009868585930961e-015 $448 6.2831853071795978 $300 $449 forward 7 unknown #
face $-1 $450 $451 $64 $-1 $452 forward single #
loop $-1 $-1 $453 $190 #
plane-surface $-1 11.860305978864044 65.873743294974204 102.01987084414937 -1 0 0 0 0.77714596973225614 0.62932038083071107 forward_v I I I I #
coedge $-1 $454 $455 $456 $457 reversed $191 $-1 #
coedge $-1 $307 $193 $458 $459 reversed $121 $-1 #
coedge $-1 $193 $306 $454 $460 reversed $121 $-1 #
coedge $-1 $456 $461 $193 $309 forward $451 $-1 #
edge $-1 $462 7.1372027120767214 $463 12.894608008549529 $308 $464 forward 7 unknown #
loop $-1 $-1 $315 $194 #
plane-surface $-1 7.0610789699494418 -6.6728460240670557 43.272802730346484 0 0.77714596973225614 0.62932038083071107 1 0 0 forward_v I I I I #
loop $-1 $-1 $465 $123 #
coedge $-1 $313 $313 $314 $466 reversed $195 $-1 #
coedge $-1 $314 $314 $313 $466 forward $197 $-1 #
coedge $-1 $315 $315 $198 $316 forward $310 $-1 #
edge $-1 $467 -2.7009868585930961e-015 $467 6.2831853071795978 $315 $468 forward 7 unknown #
loop $-1 $-1 $322 $199 #
plane-surface $-1 7.0610789699494418 -6.6728460240670557 43.272802730346484 0 0.77714596973225614 0.62932038083071107 1 0 0 forward_v I I I I #
loop $-1 $-1 $469 $126 #
coedge $-1 $320 $320 $321 $470 reversed $200 $-1 #
coedge $-1 $321 $321 $320 $470 forward $202 $-1 #
coedge $-1 $322 $322 $203 $323 forward $317 $-1 #
edge $-1 $471 -2.7009868585930961e-015 $471 6.2831853071795978 $322 $472 forward 7 unknown #
loop $-1 $-1 $329 $204 #
plane-surface $-1 7.0610789699494418 -6.6728460240670557 43.272802730346484 0 0.77714596973225614 0.62932038083071107 1 0 0 forward_v I I I I #
loop $-1 $-1 $473 $129 #
coedge $-1 $327 $327 $328 $474 reversed $205 $-1 #
coedge $-1 $328 $328 $327 $474 forward $207 $-1 #
coedge $-1 $329 $329 $208 $330 forward $324 $-1 #
edge $-1 $475 -2.7009868585930961e-015 $475 6.2831853071795978 $329 $476 forward 7 unknown #
face $-1 $477 $478 $68 $-1 $479 forward single #
loop $-1 $-1 $480 $209 #
plane-surface $-1 35.197810175159105 65.873743294974204 102.01987084414937 -1 0 0 0 0.77714596973225614 0.62932038083071107 forward_v I I I I #
coedge $-1 $481 $482 $483 $484 reversed $210 $-1 #
coedge $-1 $336 $212 $485 $486 reversed $133 $-1 #
coedge $-1 $212 $335 $481 $487 reversed $133 $-1 #
coedge $-1 $483 $488 $212 $338 forward $478 $-1 #
edge $-1 $489 7.1372027120767214 $490 12.894608008549529 $337 $491 forward 7 unknown #
loop $-1 $-1 $344 $213 #
plane-surface $-1 30.398583166244499 -6.6728460240670557 43.272802730346484 0 0.77714596973225614 0.62932038083071107 1 0 0 forward_v I I I I #
loop $-1 $-1 $492 $135 #
coedge $-1 $342 $342 $343 $493 reversed $214 $-1 #
coedge $-1 $343 $343 $342 $493 forward $216 $-1 #
coedge $-1 $344 $344 $217 $345 forward $339 $-1 #
edge $-1 $494 -2.7009868585930961e-015 $494 6.2831853071795978 $344 $495 forward 7 unknown #
loop $-1 $-1 $351 $218 #
plane-surface $-1 30.398583166244499 -6.6728460240670557 43.272802730346484 0 0.77714596973225614 0.62932038083071107 1 0 0 forward_v I I I I #
loop $-1 $-1 $496 $138 #
coedge $-1 $349 $349 $350 $497 reversed $219 $-1 #
coedge $-1 $350 $350 $349 $497 forward $221 $-1 #
coedge $-1 $351 $351 $222 $352 forward $346 $-1 #
edge $-1 $498 -2.7009868585930961e-015 $498 6.2831853071795978 $351 $499 forward 7 unknown #
loop $-1 $-1 $358 $223 #
plane-surface $-1 30.398583166244499 -6.6728460240670557 43.272802730346484 0 0.77714596973225614 0.62932038083071107 1 0 0 forward_v I I I I #
loop $-1 $-1 $500 $141 #
coedge $-1 $356 $356 $357 $501 reversed $224 $-1 #
coedge $-1 $357 $357 $356 $501 forward $226 $-1 #
coedge $-1 $358 $358 $227 $359 forward $353 $-1 #
edge $-1 $502 -2.7009868585930961e-015 $502 6.2831853071795978 $358 $503 forward 7 unknown #
face $-1 $504 $505 $54 $-1 $506 reversed single #
loop $-1 $-1 $507 $228 #
plane-surface $-1 -46.675008392590108 0 0 1 0 0 0 0 -1 forward_v I I I I #
coedge $-1 $508 $371 $509 $510 forward $229 $-1 #
coedge $-1 $511 $231 $508 $512 forward $145 $-1 #
coedge $-1 $231 $511 $513 $514 forward $145 $-1 #
coedge $-1 $374 $373 $231 $367 reversed $375 $-1 #
edge $-1 $515 -25.799668935410381 $516 25.799668935410381 $366 $517 forward 7 unknown #
coedge $-1 $233 $232 $518 $519 forward $91 $-1 #
coedge $-1 $520 $521 $232 $370 reversed $505 $-1 #
edge $-1 $377 -46.675008392590108 $522 46.675008392590108 $369 $523 forward 7 unknown #
coedge $-1 $363 $524 $233 $372 reversed $229 $-1 #
edge $-1 $525 -46.675008392590108 $376 46.675008392590108 $371 $526 forward 7 unknown #
coedge $-1 $366 $234 $524 $527 forward $375 $-1 #
coedge $-1 $234 $366 $520 $528 reversed $375 $-1 #
loop $-1 $-1 $373 $504 #
vertex $-1 $235 $529 #
vertex $-1 $235 $530 #
straight-curve $-1 46.675008392590108 0 10.282388883978125 0 1 0 I I #
face $-1 $531 $532 $55 $-1 $533 forward single #
loop $-1 $-1 $388 $236 #
plane-surface $-1 0 -25.799668935410381 0 0 1 0 0 0 1 forward_v I I I I #
coedge $-1 $534 $535 $536 $537 forward $237 $-1 #
coedge $-1 $536 $239 $241 $390 reversed $149 $-1 #
coedge $-1 $239 $536 $538 $539 reversed $149 $-1 #
coedge $-1 $540 $242 $239 $386 forward $392 $-1 #
edge $-1 $394 1.5833724085614378 $541 6.327135119798271 $385 $542 forward 7 unknown #
coedge $-1 $241 $240 $534 $543 reversed $94 $-1 #
coedge $-1 $544 $545 $240 $389 forward $380 $-1 #
edge $-1 $546 -46.675008392590108 $393 46.675008392590108 $388 $547 forward 7 unknown #
edge $-1 $548 -46.675008392590108 $394 46.675008392590108 $383 $549 forward 7 unknown #
coedge $-1 $242 $540 $544 $550 forward $392 $-1 #
loop $-1 $-1 $385 $531 #
vertex $-1 $389 $551 #
vertex $-1 $243 $552 #
straight-curve $-1 46.675008392590108 -9.7040220617788577 5.5386261727412922 0 1 0 I I #
face $-1 $-1 $553 $56 $-1 $554 reversed single #
loop $-1 $-1 $250 $244 #
plane-surface $-1 0 0 10.282388883978125 0 0 1 1 0 0 forward_v I I I I #
coedge $-1 $555 $556 $557 $558 reversed $245 $-1 #
coedge $-1 $559 $247 $249 $406 forward $153 $-1 #
coedge $-1 $247 $559 $555 $560 forward $153 $-1 #
coedge $-1 $557 $250 $247 $403 forward $397 $-1 #
edge $-1 $409 -24.606191720234943 $561 -15.007737702405731 $402 $562 forward 7 unknown #
coedge $-1 $563 $564 $248 $405 forward $553 $-1 #
edge $-1 $565 -47.837350158889507 $408 -40.727546538096561 $404 $566 forward 7 unknown #
edge $-1 $409 42.45073014756067 $565 51.599337870820733 $249 $567 forward 7 unknown #
coedge $-1 $250 $557 $563 $568 forward $397 $-1 #
vertex $-1 $405 $569 #
vertex $-1 $251 $570 #
straight-curve $-1 -44.413156431555279 32.936871647487102 10.282388883978129 0 -1 0 I I #
coedge $-1 $411 $411 $-1 $571 reversed $254 $-1 #
edge $-1 $572 0 $572 6.2831853071796004 $255 $573 forward 7 unknown #
vertex $-1 $258 $574 #
ellipse-curve $-1 -42.493465627989437 22.920966287173982 6.727487073581643 0 0.77714596973225614 0.62932038083071107 0.5 0 0 1 I I #
coedge $-1 $415 $415 $-1 $575 reversed $261 $-1 #
edge $-1 $576 0 $576 6.2831853071796004 $262 $577 forward 7 unknown #
vertex $-1 $265 $578 #
ellipse-curve $-1 -39.613929422640673 22.920966287173982 6.727487073581643 0 0.77714596973225614 0.62932038083071107 0.5 0 0 1 I I #
coedge $-1 $419 $419 $-1 $579 reversed $268 $-1 #
edge $-1 $580 0 $580 6.2831853071796004 $269 $581 forward 7 unknown #
vertex $-1 $272 $582 #
ellipse-curve $-1 -36.73439321729191 22.920966287173982 6.727487073581643 0 0.77714596973225614 0.62932038083071107 0.5 0 0 1 I I #
face $-1 $-1 $583 $60 $-1 $584 reversed single #
loop $-1 $-1 $279 $273 #
plane-surface $-1 0 0 10.282388883978125 0 0 1 1 0 0 forward_v I I I I #
coedge $-1 $585 $586 $587 $588 reversed $274 $-1 #
coedge $-1 $589 $276 $278 $433 forward $172 $-1 #
coedge $-1 $276 $589 $585 $590 forward $172 $-1 #
coedge $-1 $587 $279 $276 $430 forward $424 $-1 #
edge $-1 $436 -12.93743962208741 $591 -3.3389856042582053 $429 $592 forward 7 unknown #
coedge $-1 $593 $594 $277 $432 forward $583 $-1 #
edge $-1 $595 -47.837350158889507 $435 -40.727546538096561 $431 $596 forward 7 unknown #
edge $-1 $436 42.45073014756067 $595 51.599337870820733 $278 $597 forward 7 unknown #
coedge $-1 $279 $587 $593 $598 forward $424 $-1 #
vertex $-1 $280 $599 #
vertex $-1 $280 $600 #
straight-curve $-1 -21.075652235260218 32.936871647487102 10.282388883978129 0 -1 0 I I #
coedge $-1 $438 $438 $-1 $601 reversed $283 $-1 #
edge $-1 $602 0 $602 6.2831853071796004 $284 $603 forward 7 unknown #
vertex $-1 $287 $604 #
ellipse-curve $-1 -19.155961431694379 22.920966287173982 6.727487073581643 0 0.77714596973225614 0.62932038083071107 0.5 0 0 1 I I #
coedge $-1 $442 $442 $-1 $605 reversed $290 $-1 #
edge $-1 $606 0 $606 6.2831853071796004 $291 $607 forward 7 unknown #
vertex $-1 $294 $608 #
ellipse-curve $-1 -16.276425226345616 22.920966287173982 6.727487073581643 0 0.77714596973225614 0.62932038083071107 0.5 0 0 1 I I #
coedge $-1 $446 $446 $-1 $609 reversed $297 $-1 #
edge $-1 $610 0 $610 6.2831853071796004 $298 $611 forward 7 unknown #
vertex $-1 $301 $612 #
ellipse-curve $-1 -13.396889020996859 22.920966287173982 6.727487073581643 0 0.77714596973225614 0.62932038083071107 0.5 0 0 1 I I #
face $-1 $-1 $613 $64 $-1 $614 reversed single #
loop $-1 $-1 $308 $302 #
plane-surface $-1 0 0 10.282388883978125 0 0 1 1 0 0 forward_v I I I I #
coedge $-1 $615 $616 $617 $618 reversed $303 $-1 #
coedge $-1 $619 $305 $307 $460 forward $191 $-1 #
coedge $-1 $305 $619 $615 $620 forward $191 $-1 #
coedge $-1 $617 $308 $305 $457 forward $451 $-1 #
edge $-1 $463 -1.2686875239398816 $621 8.3297664938893234 $456 $622 forward 7 unknown #
coedge $-1 $623 $624 $306 $459 forward $613 $-1 #
edge $-1 $625 -47.837350158889507 $462 -40.727546538096561 $458 $626 forward 7 unknown #
edge $-1 $463 42.45073014756067 $625 51.599337870820733 $307 $627 forward 7 unknown #
coedge $-1 $308 $617 $623 $628 forward $451 $-1 #
vertex $-1 $309 $629 #
vertex $-1 $309 $630 #
straight-curve $-1 2.2618519610348393 32.936871647487102 10.282388883978129 0 -1 0 I I #
coedge $-1 $465 $465 $-1 $631 reversed $312 $-1 #
edge $-1 $632 0 $632 6.2831853071796004 $313 $633 forward 7 unknown #
vertex $-1 $316 $634 #
ellipse-curve $-1 4.1815427646006711 22.920966287173982 6.727487073581643 0 0.77714596973225614 0.62932038083071107 0.5 0 0 1 I I #
coedge $-1 $469 $469 $-1 $635 reversed $319 $-1 #
edge $-1 $636 0 $636 6.2831853071796004 $320 $637 forward 7 unknown #
vertex $-1 $323 $638 #
ellipse-curve $-1 7.0610789699494418 22.920966287173982 6.727487073581643 0 0.77714596973225614 0.62932038083071107 0.5 0 0 1 I I #
coedge $-1 $473 $473 $-1 $639 reversed $326 $-1 #
edge $-1 $640 0 $640 6.2831853071796004 $327 $641 forward 7 unknown #
vertex $-1 $330 $642 #
ellipse-curve $-1 9.9406151752981984 22.920966287173982 6.727487073581643 0 0.77714596973225614 0.62932038083071107 0.5 0 0 1 I I #
face $-1 $-1 $643 $68 $-1 $644 reversed single #
loop $-1 $-1 $337 $331 #
plane-surface $-1 0 0 10.282388883978125 0 0 1 1 0 0 forward_v I I I I #
coedge $-1 $645 $646 $647 $648 reversed $332 $-1 #
coedge $-1 $649 $334 $336 $487 forward $210 $-1 #
coedge $-1 $334 $649 $645 $650 forward $210 $-1 #
coedge $-1 $647 $337 $334 $484 forward $478 $-1 #
edge $-1 $490 10.400064574207647 $651 19.998518592036856 $483 $652 forward 7 unknown #
coedge $-1 $653 $654 $335 $486 forward $643 $-1 #
edge $-1 $655 -47.837350158889507 $489 -40.727546538096561 $485 $656 forward 7 unknown #
edge $-1 $490 42.45073014756067 $655 51.599337870820733 $336 $657 forward 7 unknown #
coedge $-1 $337 $647 $653 $658 forward $478 $-1 #
vertex $-1 $338 $659 #
vertex $-1 $338 $660 #
straight-curve $-1 25.599356157329897 32.936871647487102 10.282388883978129 0 -1 0 I I #
coedge $-1 $492 $492 $-1 $661 reversed $341 $-1 #
edge $-1 $662 0 $662 6.2831853071796004 $342 $663 forward 7 unknown #
vertex $-1 $345 $664 #
ellipse-curve $-1 27.519046960895729 22.920966287173982 6.727487073581643 0 0.77714596973225614 0.62932038083071107 0.5 0 0 1 I I #
coedge $-1 $496 $496 $-1 $665 reversed $348 $-1 #
edge $-1 $666 0 $666 6.2831853071796004 $349 $667 forward 7 unknown #
vertex $-1 $352 $668 #
ellipse-curve $-1 30.398583166244499 22.920966287173982 6.727487073581643 0 0.77714596973225614 0.62932038083071107 0.5 0 0 1 I I #
coedge $-1 $500 $500 $-1 $669 reversed $355 $-1 #
edge $-1 $670 0 $670 6.2831853071796004 $356 $671 forward 7 unknown #
vertex $-1 $359 $672 #
ellipse-curve $-1 33.278119371593256 22.920966287173982 6.727487073581643 0 0.77714596973225614 0.62932038083071107 0.5 0 0 1 I I #
face $-1 $-1 $375 $54 $-1 $673 reversed single #
loop $-1 $-1 $520 $360 #
plane-surface $-1 0 25.799668935410381 0 0 -1 0 0 0 -1 forward_v I I I I #
coedge $-1 $674 $518 $521 $675 forward $361 $-1 #
coedge $-1 $524 $363 $364 $512 reversed $229 $-1 #
coedge $-1 $518 $674 $363 $510 reversed $361 $-1 #
edge $-1 $525 -10.282388883978125 $676 10.282388883978125 $509 $677 forward 7 unknown #
coedge $-1 $365 $364 $674 $678 forward $145 $-1 #
edge $-1 $516 -46.675008392590108 $676 46.675008392590108 $508 $679 forward 7 unknown #
coedge $-1 $521 $520 $365 $514 reversed $505 $-1 #
edge $-1 $680 -46.675008392590108 $515 46.675008392590108 $513 $681 forward 7 unknown #
vertex $-1 $367 $682 #
vertex $-1 $527 $683 #
straight-curve $-1 46.675008392590108 0 -10.282388883978125 0 -1 0 I I #
coedge $-1 $507 $509 $368 $519 reversed $361 $-1 #
edge $-1 $522 -25.799668935410381 $525 25.799668935410381 $518 $684 forward 7 unknown #
coedge $-1 $513 $369 $374 $528 forward $505 $-1 #
coedge $-1 $369 $513 $507 $675 reversed $505 $-1 #
vertex $-1 $370 $685 #
straight-curve $-1 0 25.799668935410381 10.282388883978125 -1 0 0 I I #
coedge $-1 $371 $508 $373 $527 reversed $229 $-1 #
vertex $-1 $519 $686 #
straight-curve $-1 0 -25.799668935410381 10.282388883978125 1 0 0 I I #
edge $-1 $376 -10.282388883978125 $516 10.282388883978125 $373 $687 forward 7 unknown #
edge $-1 $377 -10.282388883978125 $515 10.282388883978125 $374 $688 forward 7 unknown #
point $-1 46.675008392590108 -25.799668935410381 10.282388883978125 #
point $-1 46.675008392590108 25.799668935410381 10.282388883978125 #
face $-1 $-1 $392 $55 $-1 $689 reversed single #
loop $-1 $-1 $538 $379 #
plane-surface $-1 0 0 10.282388883978125 0 0 1 1 0 0 forward_v I I I I #
coedge $-1 $690 $382 $387 $543 forward $237 $-1 #
coedge $-1 $382 $690 $691 $692 reversed $237 $-1 #
coedge $-1 $384 $383 $382 $537 reversed $149 $-1 #
edge $-1 $693 -6.327135119798271 $548 -1.5833724085614378 $382 $694 forward 7 unknown #
coedge $-1 $691 $695 $384 $539 forward $532 $-1 #
edge $-1 $541 -46.675008392590108 $693 46.675008392590108 $538 $696 forward 7 unknown #
coedge $-1 $391 $385 $695 $697 reversed $392 $-1 #
vertex $-1 $386 $698 #
straight-curve $-1 46.675008392590108 -13.01641931170505 3.9552537641798544 0 0 1 I I #
edge $-1 $548 3.3123972499261924 $546 16.095646873631523 $534 $699 forward 7 unknown #
coedge $-1 $700 $388 $391 $550 reversed $380 $-1 #
coedge $-1 $388 $700 $690 $701 forward $380 $-1 #
vertex $-1 $389 $702 #
straight-curve $-1 0 -25.799668935410381 5.5386261727412922 1 0 0 I I #
vertex $-1 $543 $703 #
straight-curve $-1 0 -13.01641931170505 5.5386261727412922 1 0 0 I I #
edge $-1 $704 -10.282388883978125 $393 -5.5386261727412922 $391 $705 forward 7 unknown #
point $-1 46.675008392590108 -25.799668935410381 5.5386261727412922 #
point $-1 46.675008392590108 -13.01641931170505 5.5386261727412922 #
loop $-1 $-1 $404 $396 #
plane-surface $-1 0 25.799668935410381 0 0 -1 0 0 0 -1 forward_v I I I I #
coedge $-1 $556 $399 $401 $560 reversed $245 $-1 #
coedge $-1 $399 $555 $706 $707 reversed $245 $-1 #
coedge $-1 $407 $402 $399 $558 forward $397 $-1 #
edge $-1 $561 -12.894608008549529 $708 -7.1372027120767214 $557 $709 forward 7 unknown #
coedge $-1 $401 $400 $564 $710 reversed $153 $-1 #
edge $-1 $711 -51.599337870820733 $561 -42.45073014756067 $555 $712 forward 7 unknown #
vertex $-1 $403 $713 #
straight-curve $-1 -19.806964711320337 20.042263638937577 10.282388883978125 1 0 0 I I #
coedge $-1 $706 $404 $407 $568 reversed $553 $-1 #
coedge $-1 $404 $706 $559 $710 forward $553 $-1 #
vertex $-1 $405 $714 #
straight-curve $-1 -44.413156431555279 25.799668935410381 51.009935422074683 0 0 1 I I #
straight-curve $-1 -44.413156431555279 -6.6728460240670557 43.272802730346484 0 0.62932038083071107 -0.77714596973225614 I I #
edge $-1 $708 34.814702413726067 $408 44.413156431555279 $563 $715 forward 7 unknown #
point $-1 -44.413156431555279 25.799668935410381 10.282388883978125 #
point $-1 -44.413156431555279 20.042263638937573 10.282388883978129 #
edge $-1 $716 1 $716 0 $411 $-1 forward 7 unknown #
vertex $-1 $412 $717 #
ellipse-curve $-1 -42.493465627989437 21.682126783709819 5.7242946509576225 0 0.77714596973225614 0.62932038083071107 0.5 0 0 1 I I #
point $-1 -41.993465627989437 22.920966287173968 6.7274870735816332 #
edge $-1 $718 1 $718 0 $415 $-1 forward 7 unknown #
vertex $-1 $416 $719 #
ellipse-curve $-1 -39.613929422640673 21.682126783709819 5.7242946509576225 0 0.77714596973225614 0.62932038083071107 0.5 0 0 1 I I #
point $-1 -39.113929422640673 22.920966287173968 6.7274870735816332 #
edge $-1 $720 1 $720 0 $419 $-1 forward 7 unknown #
vertex $-1 $420 $721 #
ellipse-curve $-1 -36.73439321729191 21.682126783709819 5.7242946509576225 0 0.77714596973225614 0.62932038083071107 0.5 0 0 1 I I #
point $-1 -36.23439321729191 22.920966287173968 6.7274870735816332 #
loop $-1 $-1 $431 $423 #
plane-surface $-1 0 25.799668935410381 0 0 -1 0 0 0 -1 forward_v I I I I #
coedge $-1 $586 $426 $428 $590 reversed $274 $-1 #
coedge $-1 $426 $585 $722 $723 reversed $274 $-1 #
coedge $-1 $434 $429 $426 $588 forward $424 $-1 #
edge $-1 $591 -12.894608008549529 $724 -7.1372027120767214 $587 $725 forward 7 unknown #
coedge $-1 $428 $427 $594 $726 reversed $172 $-1 #
edge $-1 $727 -51.599337870820733 $591 -42.45073014756067 $585 $728 forward 7 unknown #
vertex $-1 $430 $729 #
straight-curve $-1 -8.1382126131728079 20.042263638937577 10.282388883978125 1 0 0 I I #
coedge $-1 $722 $431 $434 $598 reversed $583 $-1 #
coedge $-1 $431 $722 $589 $726 forward $583 $-1 #
vertex $-1 $432 $730 #
straight-curve $-1 -21.075652235260218 25.799668935410381 51.009935422074683 0 0 1 I I #
straight-curve $-1 -21.075652235260218 -6.6728460240670557 43.272802730346484 0 0.62932038083071107 -0.77714596973225614 I I #
edge $-1 $724 11.477198217431013 $435 21.075652235260218 $593 $731 forward 7 unknown #
point $-1 -21.075652235260218 25.799668935410381 10.282388883978125 #
point $-1 -21.075652235260218 20.042263638937573 10.282388883978129 #
edge $-1 $732 1 $732 0 $438 $-1 forward 7 unknown #
vertex $-1 $439 $733 #
ellipse-curve $-1 -19.155961431694379 21.682126783709819 5.7242946509576225 0 0.77714596973225614 0.62932038083071107 0.5 0 0 1 I I #
point $-1 -18.655961431694379 22.920966287173968 6.7274870735816332 #
edge $-1 $734 1 $734 0 $442 $-1 forward 7 unknown #
vertex $-1 $443 $735 #
ellipse-curve $-1 -16.276425226345616 21.682126783709819 5.7242946509576225 0 0.77714596973225614 0.62932038083071107 0.5 0 0 1 I I #
point $-1 -15.776425226345616 22.920966287173968 6.7274870735816332 #
edge $-1 $736 1 $736 0 $446 $-1 forward 7 unknown #
vertex $-1 $447 $737 #
ellipse-curve $-1 -13.396889020996859 21.682126783709819 5.7242946509576225 0 0.77714596973225614 0.62932038083071107 0.5 0 0 1 I I #
point $-1 -12.896889020996859 22.920966287173968 6.7274870735816332 #
loop $-1 $-1 $458 $450 #
plane-surface $-1 0 25.799668935410381 0 0 -1 0 0 0 -1 forward_v I I I I #
coedge $-1 $616 $453 $455 $620 reversed $303 $-1 #
coedge $-1 $453 $615 $738 $739 reversed $303 $-1 #
coedge $-1 $461 $456 $453 $618 forward $451 $-1 #
edge $-1 $621 -12.894608008549529 $740 -7.1372027120767214 $617 $741 forward 7 unknown #
coedge $-1 $455 $454 $624 $742 reversed $191 $-1 #
edge $-1 $743 -51.599337870820733 $621 -42.45073014756067 $615 $744 forward 7 unknown #
vertex $-1 $457 $745 #
straight-curve $-1 3.5305394849747209 20.042263638937577 10.282388883978125 1 0 0 I I #
coedge $-1 $738 $458 $461 $628 reversed $613 $-1 #
coedge $-1 $458 $738 $619 $742 forward $613 $-1 #
vertex $-1 $459 $746 #
straight-curve $-1 2.2618519610348393 25.799668935410381 51.009935422074683 0 0 1 I I #
straight-curve $-1 2.2618519610348393 -6.6728460240670557 43.272802730346484 0 0.62932038083071107 -0.77714596973225614 I I #
edge $-1 $740 -11.860305978864044 $462 -2.2618519610348393 $623 $747 forward 7 unknown #
point $-1 2.2618519610348393 25.799668935410381 10.282388883978125 #
point $-1 2.2618519610348393 20.042263638937573 10.282388883978129 #
edge $-1 $748 1 $748 0 $465 $-1 forward 7 unknown #
vertex $-1 $466 $749 #
ellipse-curve $-1 4.1815427646006711 21.682126783709819 5.7242946509576225 0 0.77714596973225614 0.62932038083071107 0.5 0 0 1 I I #
point $-1 4.6815427646006711 22.920966287173968 6.7274870735816332 #
edge $-1 $750 1 $750 0 $469 $-1 forward 7 unknown #
vertex $-1 $470 $751 #
ellipse-curve $-1 7.0610789699494418 21.682126783709819 5.7242946509576225 0 0.77714596973225614 0.62932038083071107 0.5 0 0 1 I I #
point $-1 7.5610789699494418 22.920966287173968 6.7274870735816332 #
edge $-1 $752 1 $752 0 $473 $-1 forward 7 unknown #
vertex $-1 $474 $753 #
ellipse-curve $-1 9.9406151752981984 21.682126783709819 5.7242946509576225 0 0.77714596973225614 0.62932038083071107 0.5 0 0 1 I I #
point $-1 10.440615175298198 22.920966287173968 6.7274870735816332 #
loop $-1 $-1 $485 $477 #
plane-surface $-1 0 25.799668935410381 0 0 -1 0 0 0 -1 forward_v I I I I #
coedge $-1 $646 $480 $482 $650 reversed $332 $-1 #
coedge $-1 $480 $645 $754 $755 reversed $332 $-1 #
coedge $-1 $488 $483 $480 $648 forward $478 $-1 #
edge $-1 $651 -12.894608008549529 $756 -7.1372027120767214 $647 $757 forward 7 unknown #
coedge $-1 $482 $481 $654 $758 reversed $210 $-1 #
edge $-1 $759 -51.599337870820733 $651 -42.45073014756067 $645 $760 forward 7 unknown #
vertex $-1 $484 $761 #
straight-curve $-1 15.19929158312225 20.042263638937577 10.282388883978125 1 0 0 I I #
coedge $-1 $754 $485 $488 $658 reversed $643 $-1 #
coedge $-1 $485 $754 $649 $758 forward $643 $-1 #
vertex $-1 $486 $762 #
straight-curve $-1 25.599356157329897 25.799668935410381 51.009935422074683 0 0 1 I I #
straight-curve $-1 25.599356157329897 -6.6728460240670557 43.272802730346484 0 0.62932038083071107 -0.77714596973225614 I I #
edge $-1 $756 -35.197810175159105 $489 -25.599356157329897 $653 $763 forward 7 unknown #
point $-1 25.599356157329897 25.799668935410381 10.282388883978125 #
point $-1 25.599356157329897 20.042263638937573 10.282388883978129 #
edge $-1 $764 1 $764 0 $492 $-1 forward 7 unknown #
vertex $-1 $493 $765 #
ellipse-curve $-1 27.519046960895729 21.682126783709819 5.7242946509576225 0 0.77714596973225614 0.62932038083071107 0.5 0 0 1 I I #
point $-1 28.019046960895729 22.920966287173968 6.7274870735816332 #
edge $-1 $766 1 $766 0 $496 $-1 forward 7 unknown #
vertex $-1 $497 $767 #
ellipse-curve $-1 30.398583166244499 21.682126783709819 5.7242946509576225 0 0.77714596973225614 0.62932038083071107 0.5 0 0 1 I I #
point $-1 30.898583166244499 22.920966287173968 6.7274870735816332 #
edge $-1 $768 1 $768 0 $500 $-1 forward 7 unknown #
vertex $-1 $501 $769 #
ellipse-curve $-1 33.278119371593256 21.682126783709819 5.7242946509576225 0 0.77714596973225614 0.62932038083071107 0.5 0 0 1 I I #
point $-1 33.778119371593256 22.920966287173968 6.7274870735816332 #
plane-surface $-1 46.675008392590108 0 0 -1 0 0 0 0 1 forward_v I I I I #
coedge $-1 $509 $507 $511 $678 reversed $361 $-1 #
edge $-1 $522 -10.282388883978125 $680 10.282388883978125 $521 $770 forward 7 unknown #
vertex $-1 $678 $771 #
straight-curve $-1 -46.675008392590108 -25.799668935410381 0 0 0 -1 I I #
edge $-1 $676 -25.799668935410381 $680 25.799668935410381 $674 $772 forward 7 unknown #
straight-curve $-1 0 -25.799668935410381 -10.282388883978125 -1 0 0 I I #
vertex $-1 $514 $773 #
straight-curve $-1 0 25.799668935410381 -10.282388883978125 1 0 0 I I #
point $-1 46.675008392590108 25.799668935410381 -10.282388883978125 #
point $-1 46.675008392590108 -25.799668935410381 -10.282388883978125 #
straight-curve $-1 -46.675008392590108 0 10.282388883978125 0 -1 0 I I #
point $-1 -46.675008392590108 25.799668935410381 10.282388883978125 #
point $-1 -46.675008392590108 -25.799668935410381 10.282388883978125 #
straight-curve $-1 46.675008392590108 -25.799668935410381 0 0 0 -1 I I #
straight-curve $-1 46.675008392590108 25.799668935410381 0 0 0 -1 I I #
plane-surface $-1 46.675008392590108 0 0 -1 0 0 0 0 1 forward_v I I I I #
coedge $-1 $535 $534 $545 $701 reversed $237 $-1 #
coedge $-1 $774 $538 $535 $692 forward $532 $-1 #
edge $-1 $693 13.01641931170505 $775 25.799668935410381 $535 $776 forward 7 unknown #
vertex $-1 $692 $777 #
straight-curve $-1 -46.675008392590108 -13.01641931170505 3.9552537641798544 0 0 -1 I I #
coedge $-1 $538 $774 $540 $697 forward $532 $-1 #
straight-curve $-1 0 -13.01641931170505 10.282388883978125 -1 0 0 I I #
edge $-1 $704 -25.799668935410381 $541 -13.01641931170505 $540 $778 forward 7 unknown #
point $-1 46.675008392590108 -13.01641931170505 10.282388883978125 #
straight-curve $-1 -46.675008392590108 -9.7040220617788577 5.5386261727412922 0 -1 0 I I #
coedge $-1 $545 $544 $774 $779 reversed $380 $-1 #
edge $-1 $775 -10.282388883978125 $546 -5.5386261727412922 $690 $780 forward 7 unknown #
point $-1 -46.675008392590108 -25.799668935410381 5.5386261727412922 #
point $-1 -46.675008392590108 -13.01641931170505 5.5386261727412922 #
vertex $-1 $697 $781 #
straight-curve $-1 46.675008392590108 -25.799668935410381 0 0 0 -1 I I #
coedge $-1 $564 $563 $556 $707 forward $553 $-1 #
edge $-1 $708 40.727546538096561 $711 47.837350158889507 $706 $782 forward 7 unknown #
vertex $-1 $568 $783 #
straight-curve $-1 -34.814702413726067 32.936871647487102 10.282388883978129 0 1 0 I I #
edge $-1 $711 15.007737702405731 $565 24.606191720234943 $564 $784 forward 7 unknown #
vertex $-1 $710 $785 #
straight-curve $-1 -34.814702413726067 -6.6728460240670557 43.272802730346484 0 -0.62932038083071107 0.77714596973225614 I I #
point $-1 -34.814702413726067 20.042263638937573 10.282388883978129 #
point $-1 -44.413156431555279 25.799668935410381 3.1725852631851765 #
straight-curve $-1 0 25.799668935410381 10.282388883978125 -1 0 0 I I #
vertex $-1 $571 $786 #
point $-1 -41.993465627989437 21.682126783709819 5.7242946509576225 #
vertex $-1 $575 $787 #
point $-1 -39.113929422640673 21.682126783709819 5.7242946509576225 #
vertex $-1 $579 $788 #
point $-1 -36.23439321729191 21.682126783709819 5.7242946509576225 #
coedge $-1 $594 $593 $586 $723 forward $583 $-1 #
edge $-1 $724 40.727546538096561 $727 47.837350158889507 $722 $789 forward 7 unknown #
vertex $-1 $598 $790 #
straight-curve $-1 -11.477198217431013 32.936871647487102 10.282388883978129 0 1 0 I I #
edge $-1 $727 3.3389856042582053 $595 12.93743962208741 $594 $791 forward 7 unknown #
vertex $-1 $726 $792 #
straight-curve $-1 -11.477198217431013 -6.6728460240670557 43.272802730346484 0 -0.62932038083071107 0.77714596973225614 I I #
point $-1 -11.477198217431013 20.042263638937573 10.282388883978129 #
point $-1 -21.075652235260218 25.799668935410381 3.1725852631851765 #
straight-curve $-1 0 25.799668935410381 10.282388883978125 -1 0 0 I I #
vertex $-1 $601 $793 #
point $-1 -18.655961431694379 21.682126783709819 5.7242946509576225 #
vertex $-1 $605 $794 #
point $-1 -15.776425226345616 21.682126783709819 5.7242946509576225 #
vertex $-1 $609 $795 #
point $-1 -12.896889020996859 21.682126783709819 5.7242946509576225 #
coedge $-1 $624 $623 $616 $739 forward $613 $-1 #
edge $-1 $740 40.727546538096561 $743 47.837350158889507 $738 $796 forward 7 unknown #
vertex $-1 $628 $797 #
straight-curve $-1 11.860305978864044 32.936871647487102 10.282388883978129 0 1 0 I I #
edge $-1 $743 -8.3297664938893234 $625 1.2686875239398816 $624 $798 forward 7 unknown #
vertex $-1 $742 $799 #
straight-curve $-1 11.860305978864044 -6.6728460240670557 43.272802730346484 0 -0.62932038083071107 0.77714596973225614 I I #
point $-1 11.860305978864044 20.042263638937573 10.282388883978129 #
point $-1 2.2618519610348393 25.799668935410381 3.1725852631851765 #
straight-curve $-1 0 25.799668935410381 10.282388883978125 -1 0 0 I I #
vertex $-1 $631 $800 #
point $-1 4.6815427646006711 21.682126783709819 5.7242946509576225 #
vertex $-1 $635 $801 #
point $-1 7.5610789699494418 21.682126783709819 5.7242946509576225 #
vertex $-1 $639 $802 #
point $-1 10.440615175298198 21.682126783709819 5.7242946509576225 #
coedge $-1 $654 $653 $646 $755 forward $643 $-1 #
edge $-1 $756 40.727546538096561 $759 47.837350158889507 $754 $803 forward 7 unknown #
vertex $-1 $658 $804 #
straight-curve $-1 35.197810175159105 32.936871647487102 10.282388883978129 0 1 0 I I #
edge $-1 $759 -19.998518592036856 $655 -10.400064574207647 $654 $805 forward 7 unknown #
vertex $-1 $758 $806 #
straight-curve $-1 35.197810175159105 -6.6728460240670557 43.272802730346484 0 -0.62932038083071107 0.77714596973225614 I I #
point $-1 35.197810175159105 20.042263638937573 10.282388883978129 #
point $-1 25.599356157329897 25.799668935410381 3.1725852631851765 #
straight-curve $-1 0 25.799668935410381 10.282388883978125 -1 0 0 I I #
vertex $-1 $661 $807 #
point $-1 28.019046960895729 21.682126783709819 5.7242946509576225 #
vertex $-1 $665 $808 #
point $-1 30.898583166244499 21.682126783709819 5.7242946509576225 #
vertex $-1 $669 $809 #
point $-1 33.778119371593256 21.682126783709819 5.7242946509576225 #
straight-curve $-1 -46.675008392590108 25.799668935410381 0 0 0 -1 I I #
point $-1 -46.675008392590108 -25.799668935410381 -10.282388883978125 #
straight-curve $-1 -46.675008392590108 0 -10.282388883978125 0 1 0 I I #
point $-1 -46.675008392590108 25.799668935410381 -10.282388883978125 #
coedge $-1 $695 $691 $700 $779 forward $532 $-1 #
vertex $-1 $692 $810 #
straight-curve $-1 -46.675008392590108 0 10.282388883978125 0 -1 0 I I #
point $-1 -46.675008392590108 -13.01641931170505 10.282388883978125 #
straight-curve $-1 46.675008392590108 0 10.282388883978125 0 1 0 I I #
edge $-1 $775 -46.675008392590108 $704 46.675008392590108 $700 $811 forward 7 unknown #
straight-curve $-1 -46.675008392590108 -25.799668935410381 0 0 0 -1 I I #
point $-1 46.675008392590108 -25.799668935410381 10.282388883978125 #
straight-curve $-1 -34.814702413726067 25.799668935410381 51.009935422074683 0 0 -1 I I #
point $-1 -34.814702413726067 25.799668935410381 10.282388883978125 #
straight-curve $-1 -19.806964711320337 25.799668935410381 3.1725852631851765 -1 0 0 I I #
point $-1 -34.814702413726067 25.799668935410381 3.1725852631851765 #
point $-1 -42.493465627989437 21.293553798843689 5.4096344605422662 #
point $-1 -39.613929422640673 21.293553798843689 5.4096344605422662 #
point $-1 -36.73439321729191 21.293553798843689 5.4096344605422662 #
straight-curve $-1 -11.477198217431013 25.799668935410381 51.009935422074683 0 0 -1 I I #
point $-1 -11.477198217431013 25.799668935410381 10.282388883978125 #
straight-curve $-1 -8.1382126131728079 25.799668935410381 3.1725852631851765 -1 0 0 I I #
point $-1 -11.477198217431013 25.799668935410381 3.1725852631851765 #
point $-1 -19.155961431694379 21.293553798843689 5.4096344605422662 #
point $-1 -16.276425226345616 21.293553798843689 5.4096344605422662 #
point $-1 -13.396889020996859 21.293553798843689 5.4096344605422662 #
straight-curve $-1 11.860305978864044 25.799668935410381 51.009935422074683 0 0 -1 I I #
point $-1 11.860305978864044 25.799668935410381 10.282388883978125 #
straight-curve $-1 3.5305394849747209 25.799668935410381 3.1725852631851765 -1 0 0 I I #
point $-1 11.860305978864044 25.799668935410381 3.1725852631851765 #
point $-1 4.1815427646006711 21.293553798843689 5.4096344605422662 #
point $-1 7.0610789699494418 21.293553798843689 5.4096344605422662 #
point $-1 9.9406151752981984 21.293553798843689 5.4096344605422662 #
straight-curve $-1 35.197810175159105 25.799668935410381 51.009935422074683 0 0 -1 I I #
point $-1 35.197810175159105 25.799668935410381 10.282388883978125 #
straight-curve $-1 15.19929158312225 25.799668935410381 3.1725852631851765 -1 0 0 I I #
point $-1 35.197810175159105 25.799668935410381 3.1725852631851765 #
point $-1 27.519046960895729 21.293553798843689 5.4096344605422662 #
point $-1 30.398583166244499 21.293553798843689 5.4096344605422662 #
point $-1 33.278119371593256 21.293553798843689 5.4096344605422662 #
point $-1 -46.675008392590108 -25.799668935410381 10.282388883978125 #
straight-curve $-1 0 -25.799668935410381 10.282388883978125 1 0 0 I I #
End-of-ACIS-data 