500 0 18 0           
7 Unknown 11 ACIS 5.0 NT 24 Fri Mar 26 02:24:25 1999 
-1 9.9999999999999995e-007 1e-010 
body $-1 $18 $-1 $19 #
body $-1 $20 $-1 $21 #
body $-1 $22 $-1 $23 #
body $-1 $24 $-1 $25 #
body $-1 $26 $-1 $27 #
body $-1 $28 $-1 $29 #
body $-1 $30 $-1 $31 #
body $-1 $32 $-1 $33 #
body $-1 $34 $-1 $35 #
body $-1 $36 $-1 $37 #
body $-1 $38 $-1 $39 #
body $-1 $40 $-1 $41 #
body $-1 $42 $-1 $43 #
body $-1 $44 $-1 $45 #
body $-1 $46 $-1 $47 #
body $-1 $48 $-1 $49 #
body $-1 $50 $-1 $51 #
body $-1 $52 $-1 $53 #
lump $-1 $-1 $54 $0 #
transform $-1 1 0 0 0 1 0 0 0 1 51.149021881771297 26.230908038614608 6.7923218032177877 1 rotate no_reflect no_shear #
lump $-1 $-1 $55 $1 #
transform $-1 1 0 0 0 1 0 0 0 1 51.149021881771297 26.230908038614608 6.7923218032177877 1 rotate no_reflect no_shear #
lump $-1 $-1 $56 $2 #
transform $-1 1 0 0 0 1 0 0 0 1 51.149021881771297 26.230908038614608 6.7923218032177877 1 rotate no_reflect no_shear #
lump $-1 $-1 $57 $3 #
transform $-1 1 0 0 0 1 0 0 0 1 51.149021881771297 26.230908038614608 6.7923218032177877 1 rotate no_reflect no_shear #
lump $-1 $-1 $58 $4 #
transform $-1 1 0 0 0 1 0 0 0 1 51.149021881771297 26.230908038614608 6.7923218032177877 1 rotate no_reflect no_shear #
lump $-1 $-1 $59 $5 #
transform $-1 1 0 0 0 1 0 0 0 1 51.149021881771297 26.230908038614608 6.7923218032177877 1 rotate no_reflect no_shear #
lump $-1 $-1 $60 $6 #
transform $-1 1 0 0 0 1 0 0 0 1 51.149021881771297 26.230908038614608 6.7923218032177877 1 rotate no_reflect no_shear #
lump $-1 $-1 $61 $7 #
transform $-1 1 0 0 0 1 0 0 0 1 51.149021881771297 26.230908038614608 6.7923218032177877 1 rotate no_reflect no_shear #
lump $-1 $-1 $62 $8 #
transform $-1 1 0 0 0 1 0 0 0 1 51.149021881771297 26.230908038614608 6.7923218032177877 1 rotate no_reflect no_shear #
lump $-1 $-1 $63 $9 #
transform $-1 1 0 0 0 1 0 0 0 1 51.149021881771297 26.230908038614608 6.7923218032177877 1 rotate no_reflect no_shear #
lump $-1 $-1 $64 $10 #
transform $-1 1 0 0 0 1 0 0 0 1 51.149021881771297 26.230908038614608 6.7923218032177877 1 rotate no_reflect no_shear #
lump $-1 $-1 $65 $11 #
transform $-1 1 0 0 0 1 0 0 0 1 51.149021881771297 26.230908038614608 6.7923218032177877 1 rotate no_reflect no_shear #
lump $-1 $-1 $66 $12 #
transform $-1 1 0 0 0 1 0 0 0 1 51.149021881771297 26.230908038614608 6.7923218032177877 1 rotate no_reflect no_shear #
lump $-1 $-1 $67 $13 #
transform $-1 1 0 0 0 1 0 0 0 1 51.149021881771297 26.230908038614608 6.7923218032177877 1 rotate no_reflect no_shear #
lump $-1 $-1 $68 $14 #
transform $-1 1 0 0 0 1 0 0 0 1 51.149021881771297 26.230908038614608 6.7923218032177877 1 rotate no_reflect no_shear #
lump $-1 $-1 $69 $15 #
transform $-1 1 0 0 0 1 0 0 0 1 51.149021881771297 26.230908038614608 6.7923218032177877 1 rotate no_reflect no_shear #
lump $-1 $-1 $70 $16 #
transform $-1 1 0 0 0 1 0 0 0 1 51.149021881771297 26.230908038614608 6.7923218032177877 1 rotate no_reflect no_shear #
lump $-1 $-1 $71 $17 #
transform $-1 1 0 0 0 1 0 0 0 1 51.149021881771297 26.230908038614608 6.7923218032177877 1 rotate no_reflect no_shear #
shell $-1 $-1 $-1 $72 $-1 $18 #
shell $-1 $-1 $-1 $73 $-1 $20 #
shell $-1 $-1 $-1 $74 $-1 $22 #
shell $-1 $-1 $-1 $75 $-1 $24 #
shell $-1 $-1 $-1 $76 $-1 $26 #
shell $-1 $-1 $-1 $77 $-1 $28 #
shell $-1 $-1 $-1 $78 $-1 $30 #
shell $-1 $-1 $-1 $79 $-1 $32 #
shell $-1 $-1 $-1 $80 $-1 $34 #
shell $-1 $-1 $-1 $81 $-1 $36 #
shell $-1 $-1 $-1 $82 $-1 $38 #
shell $-1 $-1 $-1 $83 $-1 $40 #
shell $-1 $-1 $-1 $84 $-1 $42 #
shell $-1 $-1 $-1 $85 $-1 $44 #
shell $-1 $-1 $-1 $86 $-1 $46 #
shell $-1 $-1 $-1 $87 $-1 $48 #
shell $-1 $-1 $-1 $88 $-1 $50 #
shell $-1 $-1 $-1 $89 $-1 $52 #
face $-1 $90 $91 $54 $-1 $92 forward single #
face $-1 $93 $94 $55 $-1 $95 reversed single #
face $-1 $96 $97 $56 $-1 $98 reversed single #
face $-1 $99 $100 $57 $-1 $101 forward single #
face $-1 $102 $103 $58 $-1 $104 forward single #
face $-1 $105 $106 $59 $-1 $107 reversed single #
face $-1 $108 $109 $60 $-1 $110 forward single #
face $-1 $111 $112 $61 $-1 $113 forward single #
face $-1 $114 $115 $62 $-1 $116 reversed single #
face $-1 $117 $118 $63 $-1 $119 forward single #
face $-1 $120 $121 $64 $-1 $122 forward single #
face $-1 $123 $124 $65 $-1 $125 reversed single #
face $-1 $126 $127 $66 $-1 $128 forward single #
face $-1 $129 $130 $67 $-1 $131 forward single #
face $-1 $132 $133 $68 $-1 $134 reversed single #
face $-1 $135 $136 $69 $-1 $137 forward single #
face $-1 $138 $139 $70 $-1 $140 reversed single #
face $-1 $141 $142 $71 $-1 $143 forward single #
face $-1 $144 $145 $54 $-1 $146 reversed single #
loop $-1 $-1 $147 $72 #
plane-surface $-1 0 0 6.7923218032177877 0 0 1 1 0 0 forward_v I I I I #
face $-1 $148 $149 $55 $-1 $150 reversed single #
loop $-1 $-1 $151 $73 #
plane-surface $-1 -47.815587399354079 0 3.7923218032177877 0 0 1 1 0 0 forward_v I I I I #
face $-1 $152 $153 $56 $-1 $154 reversed single #
loop $-1 $-1 $155 $74 #
plane-surface $-1 -36.381360341173618 -3.8599528620538024 43.51503868302224 0 0.81915205242281985 0.57357642473473569 1 0 0 forward_v I I I I #
face $-1 $156 $157 $57 $-1 $158 forward single #
loop $-1 $159 $160 $75 #
cone-surface $-1 -39.853128587929291 22.862578088428975 2.840570794395596 0 -0.81915205242281985 -0.57357642473473569 1.5 0 0 1 I I 0 1 1.5 forward I I I I #
face $-1 $161 $162 $58 $-1 $163 forward single #
loop $-1 $164 $165 $76 #
cone-surface $-1 -32.909592094417945 22.862578088428975 2.840570794395596 0 -0.81915205242281985 -0.57357642473473569 1.5 0 0 1 I I 0 1 1.5 forward I I I I #
face $-1 $166 $167 $59 $-1 $168 reversed single #
loop $-1 $-1 $169 $77 #
plane-surface $-1 -20.574359217259826 79.937699645691566 102.19078488227252 1 0 0 0 -0.81915205242281985 -0.57357642473473569 forward_v I I I I #
face $-1 $170 $171 $60 $-1 $172 forward single #
loop $-1 $173 $174 $78 #
cone-surface $-1 -15.945334888252255 22.862578088428975 2.840570794395596 0 -0.81915205242281985 -0.57357642473473569 1.5 0 0 1 I I 0 1 1.5 forward I I I I #
face $-1 $175 $176 $61 $-1 $177 forward single #
loop $-1 $178 $179 $79 #
cone-surface $-1 -9.0017983947409022 22.862578088428975 2.840570794395596 0 -0.81915205242281985 -0.57357642473473569 1.5 0 0 1 I I 0 1 1.5 forward I I I I #
face $-1 $180 $181 $62 $-1 $182 reversed single #
loop $-1 $-1 $183 $80 #
plane-surface $-1 3.333434482417216 79.937699645691566 102.19078488227252 1 0 0 0 -0.81915205242281985 -0.57357642473473569 forward_v I I I I #
face $-1 $184 $185 $63 $-1 $186 forward single #
loop $-1 $187 $188 $81 #
cone-surface $-1 7.9624588114247885 22.862578088428975 2.840570794395596 0 -0.81915205242281985 -0.57357642473473569 1.5 0 0 1 I I 0 1 1.5 forward I I I I #
face $-1 $189 $190 $64 $-1 $191 forward single #
loop $-1 $192 $193 $82 #
cone-surface $-1 14.905995304936134 22.862578088428975 2.840570794395596 0 -0.81915205242281985 -0.57357642473473569 1.5 0 0 1 I I 0 1 1.5 forward I I I I #
face $-1 $194 $195 $65 $-1 $196 reversed single #
loop $-1 $-1 $197 $83 #
plane-surface $-1 27.241228182094261 79.937699645691566 102.19078488227252 1 0 0 0 -0.81915205242281985 -0.57357642473473569 forward_v I I I I #
face $-1 $198 $199 $66 $-1 $200 forward single #
loop $-1 $201 $202 $84 #
cone-surface $-1 31.870252511101832 22.862578088428975 2.840570794395596 0 -0.81915205242281985 -0.57357642473473569 1.5 0 0 1 I I 0 1 1.5 forward I I I I #
face $-1 $203 $204 $67 $-1 $205 forward single #
loop $-1 $206 $207 $85 #
cone-surface $-1 38.813789004613177 22.862578088428975 2.840570794395596 0 -0.81915205242281985 -0.57357642473473569 1.5 0 0 1 I I 0 1 1.5 forward I I I I #
face $-1 $208 $209 $68 $-1 $210 reversed single #
loop $-1 $-1 $211 $86 #
plane-surface $-1 -23.597032149506077 -104.59575685332555 66.653099557014684 -1 0 0 0 -0.7660444514056185 0.64278759981090561 forward_v I I I I #
face $-1 $212 $213 $69 $-1 $214 forward single #
loop $-1 $215 $216 $87 #
cone-surface $-1 -32.021123879550366 -23.068715329872351 3.2667068106803416 0 0.7660444514056185 -0.64278759981090561 1.5 0 0 1 I I 0 1 1.5 forward I I I I #
face $-1 $217 $218 $70 $-1 $219 reversed single #
loop $-1 $-1 $220 $88 #
plane-surface $-1 47.11208457442909 -104.59575685332555 66.653099557014684 -1 0 0 0 -0.7660444514056185 0.64278759981090561 forward_v I I I I #
face $-1 $221 $222 $71 $-1 $223 forward single #
loop $-1 $224 $225 $89 #
cone-surface $-1 38.687992844384802 -23.068715329872351 3.2667068106803416 0 0.7660444514056185 -0.64278759981090561 1.5 0 0 1 I I 0 1 1.5 forward I I I I #
face $-1 $226 $227 $54 $-1 $228 reversed single #
loop $-1 $-1 $229 $90 #
plane-surface $-1 0 0 -6.7923218032177877 0 0 1 1 0 0 forward_v I I I I #
coedge $-1 $230 $231 $232 $233 forward $91 $-1 #
face $-1 $234 $235 $55 $-1 $236 reversed single #
loop $-1 $-1 $237 $93 #
plane-surface $-1 -44.482152916936862 0 5.2923218032177877 -1 0 0 0 0 1 forward_v I I I I #
coedge $-1 $238 $239 $240 $241 forward $94 $-1 #
face $-1 $242 $243 $56 $-1 $244 forward single #
loop $-1 $-1 $245 $96 #
plane-surface $-1 -28.280567765410375 79.937699645691566 102.19078488227252 -1 0 0 0 0.81915205242281985 0.57357642473473569 forward_v I I I I #
coedge $-1 $246 $247 $248 $249 reversed $97 $-1 #
face $-1 $-1 $250 $57 $-1 $251 forward single #
loop $-1 $252 $253 $99 #
cone-surface $-1 -39.853128587929291 21.068553345913067 1.5843811838655251 0 -0.81915205242281985 -0.57357642473473569 0.75 0 0 1 I I -0.70710678118654757 0.70710678118654757 0.75 forward I I I I #
loop $-1 $-1 $254 $75 #
coedge $-1 $160 $160 $255 $256 reversed $100 $-1 #
face $-1 $-1 $257 $58 $-1 $258 forward single #
loop $-1 $259 $260 $102 #
cone-surface $-1 -32.909592094417945 21.068553345913067 1.5843811838655251 0 -0.81915205242281985 -0.57357642473473569 0.75 0 0 1 I I -0.70710678118654757 0.70710678118654757 0.75 forward I I I I #
loop $-1 $-1 $261 $76 #
coedge $-1 $165 $165 $262 $263 reversed $103 $-1 #
face $-1 $264 $265 $59 $-1 $266 reversed single #
loop $-1 $-1 $267 $105 #
plane-surface $-1 -12.473566641496582 -3.8599528620538024 43.51503868302224 0 0.81915205242281985 0.57357642473473569 1 0 0 forward_v I I I I #
coedge $-1 $268 $269 $270 $271 reversed $106 $-1 #
face $-1 $-1 $272 $60 $-1 $273 forward single #
loop $-1 $274 $275 $108 #
cone-surface $-1 -15.945334888252255 21.068553345913067 1.5843811838655251 0 -0.81915205242281985 -0.57357642473473569 0.75 0 0 1 I I -0.70710678118654757 0.70710678118654757 0.75 forward I I I I #
loop $-1 $-1 $276 $78 #
coedge $-1 $174 $174 $277 $278 reversed $109 $-1 #
face $-1 $-1 $279 $61 $-1 $280 forward single #
loop $-1 $281 $282 $111 #
cone-surface $-1 -9.0017983947409022 21.068553345913067 1.5843811838655251 0 -0.81915205242281985 -0.57357642473473569 0.75 0 0 1 I I -0.70710678118654757 0.70710678118654757 0.75 forward I I I I #
loop $-1 $-1 $283 $79 #
coedge $-1 $179 $179 $284 $285 reversed $112 $-1 #
face $-1 $286 $287 $62 $-1 $288 reversed single #
loop $-1 $-1 $289 $114 #
plane-surface $-1 11.434227058180461 -3.8599528620538024 43.51503868302224 0 0.81915205242281985 0.57357642473473569 1 0 0 forward_v I I I I #
coedge $-1 $290 $291 $292 $293 reversed $115 $-1 #
face $-1 $-1 $294 $63 $-1 $295 forward single #
loop $-1 $296 $297 $117 #
cone-surface $-1 7.9624588114247885 21.068553345913067 1.5843811838655251 0 -0.81915205242281985 -0.57357642473473569 0.75 0 0 1 I I -0.70710678118654757 0.70710678118654757 0.75 forward I I I I #
loop $-1 $-1 $298 $81 #
coedge $-1 $188 $188 $299 $300 reversed $118 $-1 #
face $-1 $-1 $301 $64 $-1 $302 forward single #
loop $-1 $303 $304 $120 #
cone-surface $-1 14.905995304936134 21.068553345913067 1.5843811838655251 0 -0.81915205242281985 -0.57357642473473569 0.75 0 0 1 I I -0.70710678118654757 0.70710678118654757 0.75 forward I I I I #
loop $-1 $-1 $305 $82 #
coedge $-1 $193 $193 $306 $307 reversed $121 $-1 #
face $-1 $308 $309 $65 $-1 $310 reversed single #
loop $-1 $-1 $311 $123 #
plane-surface $-1 35.342020757857505 -3.8599528620538024 43.51503868302224 0 0.81915205242281985 0.57357642473473569 1 0 0 forward_v I I I I #
coedge $-1 $312 $313 $314 $315 reversed $124 $-1 #
face $-1 $-1 $316 $66 $-1 $317 forward single #
loop $-1 $318 $319 $126 #
cone-surface $-1 31.870252511101832 21.068553345913067 1.5843811838655251 0 -0.81915205242281985 -0.57357642473473569 0.75 0 0 1 I I -0.70710678118654757 0.70710678118654757 0.75 forward I I I I #
loop $-1 $-1 $320 $84 #
coedge $-1 $202 $202 $321 $322 reversed $127 $-1 #
face $-1 $-1 $323 $67 $-1 $324 forward single #
loop $-1 $325 $326 $129 #
cone-surface $-1 38.813789004613177 21.068553345913067 1.5843811838655251 0 -0.81915205242281985 -0.57357642473473569 0.75 0 0 1 I I -0.70710678118654757 0.70710678118654757 0.75 forward I I I I #
loop $-1 $-1 $327 $85 #
coedge $-1 $207 $207 $328 $329 reversed $130 $-1 #
face $-1 $330 $331 $68 $-1 $332 reversed single #
loop $-1 $-1 $333 $132 #
plane-surface $-1 -32.021123879550366 -26.230908038614615 0.89718554089616021 0 -0.7660444514056185 0.64278759981090561 1 0 0 forward_v I I I I #
coedge $-1 $334 $335 $336 $337 reversed $133 $-1 #
face $-1 $-1 $338 $69 $-1 $339 forward single #
loop $-1 $340 $341 $135 #
cone-surface $-1 -32.021123879550366 -21.805292549548781 2.2065692494455336 0 0.7660444514056185 -0.64278759981090561 0.75 0 0 1 I I -0.70710678118654757 0.70710678118654757 0.75 forward I I I I #
loop $-1 $-1 $342 $87 #
coedge $-1 $216 $216 $343 $344 reversed $136 $-1 #
face $-1 $345 $346 $70 $-1 $347 reversed single #
loop $-1 $-1 $348 $138 #
plane-surface $-1 38.687992844384802 -26.230908038614615 0.89718554089616021 0 -0.7660444514056185 0.64278759981090561 1 0 0 forward_v I I I I #
coedge $-1 $349 $350 $351 $352 reversed $139 $-1 #
face $-1 $-1 $353 $71 $-1 $354 forward single #
loop $-1 $355 $356 $141 #
cone-surface $-1 38.687992844384802 -21.805292549548781 2.2065692494455336 0 0.7660444514056185 -0.64278759981090561 0.75 0 0 1 I I -0.70710678118654757 0.70710678118654757 0.75 forward I I I I #
loop $-1 $-1 $357 $89 #
coedge $-1 $225 $225 $358 $359 reversed $142 $-1 #
face $-1 $360 $361 $54 $-1 $362 reversed single #
loop $-1 $-1 $363 $144 #
plane-surface $-1 0 -26.230908038614608 0 0 1 0 0 0 1 forward_v I I I I #
coedge $-1 $364 $365 $366 $367 forward $145 $-1 #
coedge $-1 $368 $147 $369 $370 forward $91 $-1 #
coedge $-1 $147 $368 $371 $372 forward $91 $-1 #
coedge $-1 $373 $374 $147 $233 reversed $375 $-1 #
edge $-1 $376 -26.230908038614608 $377 26.230908038614608 $232 $378 forward 7 unknown #
face $-1 $379 $380 $55 $-1 $381 reversed single #
loop $-1 $-1 $382 $148 #
plane-surface $-1 0 26.230908038614608 0 0 -1 0 0 0 -1 forward_v I I I I #
coedge $-1 $240 $383 $384 $385 reversed $149 $-1 #
coedge $-1 $386 $151 $387 $388 reversed $94 $-1 #
coedge $-1 $151 $386 $389 $390 reversed $94 $-1 #
coedge $-1 $391 $237 $151 $241 reversed $149 $-1 #
edge $-1 $392 -26.230908038614608 $393 26.230908038614608 $240 $394 forward 7 unknown #
face $-1 $395 $396 $56 $-1 $397 reversed single #
loop $-1 $-1 $248 $152 #
plane-surface $-1 0 0 6.7923218032177877 0 0 1 1 0 0 forward_v I I I I #
coedge $-1 $398 $399 $400 $401 reversed $153 $-1 #
coedge $-1 $402 $155 $403 $404 reversed $97 $-1 #
coedge $-1 $155 $402 $398 $405 forward $97 $-1 #
coedge $-1 $400 $406 $155 $249 forward $243 $-1 #
edge $-1 $407 -26.291472746350053 $408 -10.089887594823566 $248 $409 forward 7 unknown #
loop $-1 $-1 $255 $156 #
plane-surface $-1 -36.381360341173618 -3.8599528620538024 43.51503868302224 0 0.81915205242281985 0.57357642473473569 1 0 0 forward_v I I I I #
loop $-1 $-1 $410 $99 #
coedge $-1 $253 $253 $254 $411 reversed $157 $-1 #
coedge $-1 $254 $254 $253 $411 forward $159 $-1 #
coedge $-1 $255 $255 $160 $256 forward $250 $-1 #
edge $-1 $412 4.8503545027667632e-016 $412 6.2831853071796013 $255 $413 forward 7 unknown #
loop $-1 $-1 $262 $161 #
plane-surface $-1 -36.381360341173618 -3.8599528620538024 43.51503868302224 0 0.81915205242281985 0.57357642473473569 1 0 0 forward_v I I I I #
loop $-1 $-1 $414 $102 #
coedge $-1 $260 $260 $261 $415 reversed $162 $-1 #
coedge $-1 $261 $261 $260 $415 forward $164 $-1 #
coedge $-1 $262 $262 $165 $263 forward $257 $-1 #
edge $-1 $416 4.8503545027667632e-016 $416 6.2831853071796013 $262 $417 forward 7 unknown #
face $-1 $418 $419 $59 $-1 $420 forward single #
loop $-1 $-1 $421 $166 #
plane-surface $-1 -4.3727740657333367 79.937699645691566 102.19078488227252 -1 0 0 0 0.81915205242281985 0.57357642473473569 forward_v I I I I #
coedge $-1 $422 $423 $424 $425 reversed $167 $-1 #
coedge $-1 $269 $169 $426 $427 reversed $106 $-1 #
coedge $-1 $169 $268 $422 $428 reversed $106 $-1 #
coedge $-1 $424 $429 $169 $271 forward $419 $-1 #
edge $-1 $430 13.737941784231175 $431 18.115280278204843 $270 $432 forward 7 unknown #
loop $-1 $-1 $277 $170 #
plane-surface $-1 -12.473566641496582 -3.8599528620538024 43.51503868302224 0 0.81915205242281985 0.57357642473473569 1 0 0 forward_v I I I I #
loop $-1 $-1 $433 $108 #
coedge $-1 $275 $275 $276 $434 reversed $171 $-1 #
coedge $-1 $276 $276 $275 $434 forward $173 $-1 #
coedge $-1 $277 $277 $174 $278 forward $272 $-1 #
edge $-1 $435 4.8503545027667632e-016 $435 6.2831853071796013 $277 $436 forward 7 unknown #
loop $-1 $-1 $284 $175 #
plane-surface $-1 -12.473566641496582 -3.8599528620538024 43.51503868302224 0 0.81915205242281985 0.57357642473473569 1 0 0 forward_v I I I I #
loop $-1 $-1 $437 $111 #
coedge $-1 $282 $282 $283 $438 reversed $176 $-1 #
coedge $-1 $283 $283 $282 $438 forward $178 $-1 #
coedge $-1 $284 $284 $179 $285 forward $279 $-1 #
edge $-1 $439 4.8503545027667632e-016 $439 6.2831853071796013 $284 $440 forward 7 unknown #
face $-1 $441 $442 $62 $-1 $443 forward single #
loop $-1 $-1 $444 $180 #
plane-surface $-1 19.535019633943705 79.937699645691566 102.19078488227252 -1 0 0 0 0.81915205242281985 0.57357642473473569 forward_v I I I I #
coedge $-1 $445 $446 $447 $448 reversed $181 $-1 #
coedge $-1 $291 $183 $449 $450 reversed $115 $-1 #
coedge $-1 $183 $290 $445 $451 reversed $115 $-1 #
coedge $-1 $447 $452 $183 $293 forward $442 $-1 #
edge $-1 $453 13.737941784231175 $454 18.115280278204843 $292 $455 forward 7 unknown #
loop $-1 $-1 $299 $184 #
plane-surface $-1 11.434227058180461 -3.8599528620538024 43.51503868302224 0 0.81915205242281985 0.57357642473473569 1 0 0 forward_v I I I I #
loop $-1 $-1 $456 $117 #
coedge $-1 $297 $297 $298 $457 reversed $185 $-1 #
coedge $-1 $298 $298 $297 $457 forward $187 $-1 #
coedge $-1 $299 $299 $188 $300 forward $294 $-1 #
edge $-1 $458 4.8503545027667632e-016 $458 6.2831853071796013 $299 $459 forward 7 unknown #
loop $-1 $-1 $306 $189 #
plane-surface $-1 11.434227058180461 -3.8599528620538024 43.51503868302224 0 0.81915205242281985 0.57357642473473569 1 0 0 forward_v I I I I #
loop $-1 $-1 $460 $120 #
coedge $-1 $304 $304 $305 $461 reversed $190 $-1 #
coedge $-1 $305 $305 $304 $461 forward $192 $-1 #
coedge $-1 $306 $306 $193 $307 forward $301 $-1 #
edge $-1 $462 4.8503545027667632e-016 $462 6.2831853071796013 $306 $463 forward 7 unknown #
face $-1 $464 $465 $65 $-1 $466 forward single #
loop $-1 $-1 $467 $194 #
plane-surface $-1 43.442813333620748 79.937699645691566 102.19078488227252 -1 0 0 0 0.81915205242281985 0.57357642473473569 forward_v I I I I #
coedge $-1 $468 $469 $470 $471 reversed $195 $-1 #
coedge $-1 $313 $197 $472 $473 reversed $124 $-1 #
coedge $-1 $197 $312 $468 $474 reversed $124 $-1 #
coedge $-1 $470 $475 $197 $315 forward $465 $-1 #
edge $-1 $476 13.737941784231175 $477 18.115280278204843 $314 $478 forward 7 unknown #
loop $-1 $-1 $321 $198 #
plane-surface $-1 35.342020757857505 -3.8599528620538024 43.51503868302224 0 0.81915205242281985 0.57357642473473569 1 0 0 forward_v I I I I #
loop $-1 $-1 $479 $126 #
coedge $-1 $319 $319 $320 $480 reversed $199 $-1 #
coedge $-1 $320 $320 $319 $480 forward $201 $-1 #
coedge $-1 $321 $321 $202 $322 forward $316 $-1 #
edge $-1 $481 4.8503545027667632e-016 $481 6.2831853071796013 $321 $482 forward 7 unknown #
loop $-1 $-1 $328 $203 #
plane-surface $-1 35.342020757857505 -3.8599528620538024 43.51503868302224 0 0.81915205242281985 0.57357642473473569 1 0 0 forward_v I I I I #
loop $-1 $-1 $483 $129 #
coedge $-1 $326 $326 $327 $484 reversed $204 $-1 #
coedge $-1 $327 $327 $326 $484 forward $206 $-1 #
coedge $-1 $328 $328 $207 $329 forward $323 $-1 #
edge $-1 $485 4.8503545027667632e-016 $485 6.2831853071796013 $328 $486 forward 7 unknown #
face $-1 $487 $488 $68 $-1 $489 reversed single #
loop $-1 $-1 $490 $208 #
plane-surface $-1 -40.445215609594655 -104.59575685332555 66.653099557014684 1 0 0 0 0.7660444514056185 -0.64278759981090561 forward_v I I I I #
coedge $-1 $491 $492 $493 $494 reversed $209 $-1 #
coedge $-1 $335 $211 $495 $496 reversed $133 $-1 #
coedge $-1 $211 $334 $491 $497 reversed $133 $-1 #
coedge $-1 $493 $498 $211 $337 forward $499 $-1 #
edge $-1 $500 26.066970388048169 $501 31.013576921993955 $336 $502 forward 7 unknown #
loop $-1 $-1 $343 $212 #
plane-surface $-1 -32.021123879550366 -26.230908038614615 0.89718554089616021 0 -0.7660444514056185 0.64278759981090561 1 0 0 forward_v I I I I #
loop $-1 $-1 $503 $135 #
coedge $-1 $341 $341 $342 $504 reversed $213 $-1 #
coedge $-1 $342 $342 $341 $504 forward $215 $-1 #
coedge $-1 $343 $343 $216 $344 forward $338 $-1 #
edge $-1 $505 -3.5706702013206226e-016 $505 6.2831853071796004 $343 $506 forward 7 unknown #
face $-1 $507 $508 $70 $-1 $509 reversed single #
loop $-1 $-1 $510 $217 #
plane-surface $-1 30.263901114340513 -104.59575685332555 66.653099557014684 1 0 0 0 0.7660444514056185 -0.64278759981090561 forward_v I I I I #
coedge $-1 $511 $512 $513 $514 reversed $218 $-1 #
coedge $-1 $350 $220 $515 $516 reversed $139 $-1 #
coedge $-1 $220 $349 $511 $517 reversed $139 $-1 #
coedge $-1 $513 $518 $220 $352 forward $519 $-1 #
edge $-1 $520 26.066970388048169 $521 31.013576921993955 $351 $522 forward 7 unknown #
loop $-1 $-1 $358 $221 #
plane-surface $-1 38.687992844384802 -26.230908038614615 0.89718554089616021 0 -0.7660444514056185 0.64278759981090561 1 0 0 forward_v I I I I #
loop $-1 $-1 $523 $141 #
coedge $-1 $356 $356 $357 $524 reversed $222 $-1 #
coedge $-1 $357 $357 $356 $524 forward $224 $-1 #
coedge $-1 $358 $358 $225 $359 forward $353 $-1 #
edge $-1 $525 -3.5706702013206226e-016 $525 6.2831853071796004 $358 $526 forward 7 unknown #
face $-1 $527 $528 $54 $-1 $529 reversed single #
loop $-1 $-1 $530 $226 #
plane-surface $-1 -51.149021881771297 0 0 1 0 0 0 0 -1 forward_v I I I I #
coedge $-1 $531 $371 $532 $533 forward $227 $-1 #
coedge $-1 $534 $229 $531 $535 forward $145 $-1 #
coedge $-1 $229 $534 $536 $537 forward $145 $-1 #
coedge $-1 $374 $373 $229 $367 reversed $375 $-1 #
edge $-1 $538 -26.230908038614608 $539 26.230908038614608 $366 $540 forward 7 unknown #
coedge $-1 $231 $230 $541 $542 forward $91 $-1 #
coedge $-1 $543 $544 $230 $370 reversed $528 $-1 #
edge $-1 $377 -51.149021881771297 $545 51.149021881771297 $369 $546 forward 7 unknown #
coedge $-1 $363 $547 $231 $372 reversed $227 $-1 #
edge $-1 $548 -51.149021881771297 $376 51.149021881771297 $371 $549 forward 7 unknown #
coedge $-1 $366 $232 $547 $550 forward $375 $-1 #
coedge $-1 $232 $366 $543 $551 reversed $375 $-1 #
loop $-1 $-1 $373 $527 #
vertex $-1 $233 $552 #
vertex $-1 $233 $553 #
straight-curve $-1 51.149021881771297 0 6.7923218032177877 0 1 0 I I #
face $-1 $554 $555 $55 $-1 $556 forward single #
loop $-1 $-1 $557 $234 #
plane-surface $-1 -51.149021881771297 0 0 1 0 0 0 0 -1 forward_v I I I I #
coedge $-1 $389 $558 $391 $559 forward $235 $-1 #
coedge $-1 $237 $391 $560 $561 reversed $149 $-1 #
coedge $-1 $562 $387 $237 $385 forward $563 $-1 #
edge $-1 $393 1.1461609016088938 $564 4.1461609016088943 $384 $565 forward 7 unknown #
coedge $-1 $239 $238 $557 $566 reversed $94 $-1 #
coedge $-1 $384 $567 $238 $388 forward $563 $-1 #
edge $-1 $568 -27.241228182094257 $393 -20.574359217259822 $387 $569 forward 7 unknown #
coedge $-1 $570 $382 $239 $390 forward $235 $-1 #
edge $-1 $392 20.574359217259822 $571 27.241228182094257 $389 $572 forward 7 unknown #
coedge $-1 $383 $240 $382 $559 reversed $149 $-1 #
vertex $-1 $390 $573 #
vertex $-1 $388 $574 #
straight-curve $-1 -44.482152916936862 0 3.7923218032177877 0 -1 0 I I #
face $-1 $-1 $575 $56 $-1 $576 forward single #
loop $-1 $-1 $577 $242 #
plane-surface $-1 0 26.230908038614608 0 0 -1 0 0 0 -1 forward_v I I I I #
coedge $-1 $399 $245 $247 $405 reversed $153 $-1 #
coedge $-1 $245 $398 $577 $578 reversed $153 $-1 #
coedge $-1 $579 $248 $245 $401 forward $243 $-1 #
edge $-1 $408 -18.115280278204843 $580 -13.737941784231175 $400 $581 forward 7 unknown #
coedge $-1 $247 $246 $582 $583 reversed $97 $-1 #
coedge $-1 $584 $585 $246 $404 forward $575 $-1 #
edge $-1 $586 -35.699718605464419 $407 -28.06806168023763 $403 $587 forward 7 unknown #
edge $-1 $588 -52.46181607722923 $408 -44.830159152002437 $398 $589 forward 7 unknown #
coedge $-1 $248 $579 $584 $590 forward $243 $-1 #
vertex $-1 $404 $591 #
vertex $-1 $249 $592 #
straight-curve $-1 -18.190680170586809 21.853569544640944 6.792321803217785 1 0 0 I I #
coedge $-1 $410 $410 $-1 $593 reversed $252 $-1 #
edge $-1 $594 0 $594 6.2831853071796004 $253 $595 forward 7 unknown #
vertex $-1 $256 $596 #
ellipse-curve $-1 -39.853128587929291 24.042238791627771 3.6665780863746162 0 0.81915205242281985 0.57357642473473569 1.5 0 0 1 I I #
coedge $-1 $414 $414 $-1 $597 reversed $259 $-1 #
edge $-1 $598 0 $598 6.2831853071796004 $260 $599 forward 7 unknown #
vertex $-1 $263 $600 #
ellipse-curve $-1 -32.909592094417945 24.042238791627771 3.6665780863746162 0 0.81915205242281985 0.57357642473473569 1.5 0 0 1 I I #
face $-1 $-1 $601 $59 $-1 $602 reversed single #
loop $-1 $-1 $270 $264 #
plane-surface $-1 0 0 6.7923218032177877 0 0 1 1 0 0 forward_v I I I I #
coedge $-1 $603 $604 $605 $606 reversed $265 $-1 #
coedge $-1 $607 $267 $269 $428 forward $167 $-1 #
coedge $-1 $267 $607 $603 $608 forward $167 $-1 #
coedge $-1 $605 $270 $267 $425 forward $419 $-1 #
edge $-1 $431 -14.337575896511535 $609 1.8640092550149543 $424 $610 forward 7 unknown #
coedge $-1 $611 $612 $268 $427 forward $601 $-1 #
edge $-1 $613 -50.554558071604824 $430 -44.303070637918474 $426 $614 forward 7 unknown #
edge $-1 $431 44.830159152002437 $613 52.46181607722923 $269 $615 forward 7 unknown #
coedge $-1 $270 $605 $611 $616 forward $419 $-1 #
vertex $-1 $271 $617 #
vertex $-1 $271 $618 #
straight-curve $-1 -20.574359217259826 39.968849822845783 6.7923218032177886 0 -1 0 I I #
coedge $-1 $433 $433 $-1 $619 reversed $274 $-1 #
edge $-1 $620 0 $620 6.2831853071796004 $275 $621 forward 7 unknown #
vertex $-1 $278 $622 #
ellipse-curve $-1 -15.945334888252255 24.042238791627771 3.6665780863746162 0 0.81915205242281985 0.57357642473473569 1.5 0 0 1 I I #
coedge $-1 $437 $437 $-1 $623 reversed $281 $-1 #
edge $-1 $624 0 $624 6.2831853071796004 $282 $625 forward 7 unknown #
vertex $-1 $285 $626 #
ellipse-curve $-1 -9.0017983947409022 24.042238791627771 3.6665780863746162 0 0.81915205242281985 0.57357642473473569 1.5 0 0 1 I I #
face $-1 $-1 $627 $62 $-1 $628 reversed single #
loop $-1 $-1 $292 $286 #
plane-surface $-1 0 0 6.7923218032177877 0 0 1 1 0 0 forward_v I I I I #
coedge $-1 $629 $630 $631 $632 reversed $287 $-1 #
coedge $-1 $633 $289 $291 $451 forward $181 $-1 #
coedge $-1 $289 $633 $629 $634 forward $181 $-1 #
coedge $-1 $631 $292 $289 $448 forward $442 $-1 #
edge $-1 $454 -2.3836790466730147 $635 13.817906104853474 $447 $636 forward 7 unknown #
coedge $-1 $637 $638 $290 $450 forward $627 $-1 #
edge $-1 $639 -50.554558071604824 $453 -44.303070637918474 $449 $640 forward 7 unknown #
edge $-1 $454 44.830159152002437 $639 52.46181607722923 $291 $641 forward 7 unknown #
coedge $-1 $292 $631 $637 $642 forward $442 $-1 #
vertex $-1 $293 $643 #
vertex $-1 $293 $644 #
straight-curve $-1 3.333434482417216 39.968849822845783 6.7923218032177886 0 -1 0 I I #
coedge $-1 $456 $456 $-1 $645 reversed $296 $-1 #
edge $-1 $646 0 $646 6.2831853071796004 $297 $647 forward 7 unknown #
vertex $-1 $300 $648 #
ellipse-curve $-1 7.9624588114247885 24.042238791627771 3.6665780863746162 0 0.81915205242281985 0.57357642473473569 1.5 0 0 1 I I #
coedge $-1 $460 $460 $-1 $649 reversed $303 $-1 #
edge $-1 $650 0 $650 6.2831853071796004 $304 $651 forward 7 unknown #
vertex $-1 $307 $652 #
ellipse-curve $-1 14.905995304936134 24.042238791627771 3.6665780863746162 0 0.81915205242281985 0.57357642473473569 1.5 0 0 1 I I #
face $-1 $-1 $653 $65 $-1 $654 reversed single #
loop $-1 $-1 $314 $308 #
plane-surface $-1 0 0 6.7923218032177877 0 0 1 1 0 0 forward_v I I I I #
coedge $-1 $655 $656 $657 $658 reversed $309 $-1 #
coedge $-1 $659 $311 $313 $474 forward $195 $-1 #
coedge $-1 $311 $659 $655 $660 forward $195 $-1 #
coedge $-1 $657 $314 $311 $471 forward $465 $-1 #
edge $-1 $477 9.5702178031655087 $661 25.771802954691996 $470 $662 forward 7 unknown #
coedge $-1 $663 $664 $312 $473 forward $653 $-1 #
edge $-1 $665 -50.554558071604824 $476 -44.303070637918474 $472 $666 forward 7 unknown #
edge $-1 $477 44.830159152002437 $665 52.46181607722923 $313 $667 forward 7 unknown #
coedge $-1 $314 $657 $663 $668 forward $465 $-1 #
vertex $-1 $315 $669 #
vertex $-1 $315 $670 #
straight-curve $-1 27.241228182094261 39.968849822845783 6.7923218032177886 0 -1 0 I I #
coedge $-1 $479 $479 $-1 $671 reversed $318 $-1 #
edge $-1 $672 0 $672 6.2831853071796004 $319 $673 forward 7 unknown #
vertex $-1 $322 $674 #
ellipse-curve $-1 31.870252511101832 24.042238791627771 3.6665780863746162 0 0.81915205242281985 0.57357642473473569 1.5 0 0 1 I I #
coedge $-1 $483 $483 $-1 $675 reversed $325 $-1 #
edge $-1 $676 0 $676 6.2831853071796004 $326 $677 forward 7 unknown #
vertex $-1 $329 $678 #
ellipse-curve $-1 38.813789004613177 24.042238791627771 3.6665780863746162 0 0.81915205242281985 0.57357642473473569 1.5 0 0 1 I I #
face $-1 $-1 $499 $68 $-1 $679 forward single #
loop $-1 $-1 $680 $330 #
plane-surface $-1 0 -26.230908038614608 0 0 1 0 0 0 1 forward_v I I I I #
coedge $-1 $681 $682 $683 $684 reversed $331 $-1 #
coedge $-1 $685 $333 $335 $497 forward $209 $-1 #
coedge $-1 $333 $685 $681 $686 forward $209 $-1 #
coedge $-1 $683 $336 $333 $494 forward $499 $-1 #
edge $-1 $501 7.5864702097308943 $687 24.434653669819472 $493 $688 forward 7 unknown #
coedge $-1 $689 $690 $334 $496 forward $488 $-1 #
edge $-1 $691 -32.429364237611175 $500 -26.534227975289554 $495 $692 forward 7 unknown #
edge $-1 $501 -7.6955537651955011 $691 -1.1030930024383267e-014 $335 $693 forward 7 unknown #
coedge $-1 $336 $683 $689 $694 forward $499 $-1 #
loop $-1 $-1 $683 $487 #
vertex $-1 $496 $695 #
vertex $-1 $337 $696 #
straight-curve $-1 -23.597032149506077 -52.297878426662777 6.7923218032177886 0 1 0 I I #
coedge $-1 $503 $503 $-1 $697 reversed $340 $-1 #
edge $-1 $698 0 $698 6.2831853071796004 $341 $699 forward 7 unknown #
vertex $-1 $344 $700 #
ellipse-curve $-1 -32.021123879550366 -23.757604771641716 3.8447536720569775 0 -0.7660444514056185 0.64278759981090561 1.5 0 0 1 I I #
face $-1 $-1 $519 $70 $-1 $701 forward single #
loop $-1 $-1 $702 $345 #
plane-surface $-1 0 -26.230908038614608 0 0 1 0 0 0 1 forward_v I I I I #
coedge $-1 $703 $704 $705 $706 reversed $346 $-1 #
coedge $-1 $707 $348 $350 $517 forward $218 $-1 #
coedge $-1 $348 $707 $703 $708 forward $218 $-1 #
coedge $-1 $705 $351 $348 $514 forward $519 $-1 #
edge $-1 $521 -27.76808815223669 $709 -10.919904692148112 $513 $710 forward 7 unknown #
coedge $-1 $711 $712 $349 $516 forward $508 $-1 #
edge $-1 $713 -32.429364237611175 $520 -26.534227975289554 $515 $714 forward 7 unknown #
edge $-1 $521 -7.6955537651955011 $713 -1.1030930024383267e-014 $350 $715 forward 7 unknown #
coedge $-1 $351 $705 $711 $716 forward $519 $-1 #
loop $-1 $-1 $705 $507 #
vertex $-1 $516 $717 #
vertex $-1 $352 $718 #
straight-curve $-1 47.11208457442909 -52.297878426662777 6.7923218032177886 0 1 0 I I #
coedge $-1 $523 $523 $-1 $719 reversed $355 $-1 #
edge $-1 $720 0 $720 6.2831853071796004 $356 $721 forward 7 unknown #
vertex $-1 $359 $722 #
ellipse-curve $-1 38.687992844384802 -23.757604771641716 3.8447536720569775 0 -0.7660444514056185 0.64278759981090561 1.5 0 0 1 I I #
face $-1 $-1 $375 $54 $-1 $723 reversed single #
loop $-1 $-1 $543 $360 #
plane-surface $-1 0 26.230908038614608 0 0 -1 0 0 0 -1 forward_v I I I I #
coedge $-1 $724 $541 $544 $725 forward $361 $-1 #
coedge $-1 $547 $363 $364 $535 reversed $227 $-1 #
coedge $-1 $541 $724 $363 $533 reversed $361 $-1 #
edge $-1 $548 -6.7923218032177877 $726 6.7923218032177877 $532 $727 forward 7 unknown #
coedge $-1 $365 $364 $724 $728 forward $145 $-1 #
edge $-1 $539 -51.149021881771297 $726 51.149021881771297 $531 $729 forward 7 unknown #
coedge $-1 $544 $543 $365 $537 reversed $528 $-1 #
edge $-1 $730 -51.149021881771297 $538 51.149021881771297 $536 $731 forward 7 unknown #
vertex $-1 $367 $732 #
vertex $-1 $550 $733 #
straight-curve $-1 51.149021881771297 0 -6.7923218032177877 0 -1 0 I I #
coedge $-1 $530 $532 $368 $542 reversed $361 $-1 #
edge $-1 $545 -26.230908038614608 $548 26.230908038614608 $541 $734 forward 7 unknown #
coedge $-1 $536 $369 $374 $551 forward $528 $-1 #
coedge $-1 $369 $536 $530 $725 reversed $528 $-1 #
vertex $-1 $370 $735 #
straight-curve $-1 0 26.230908038614608 6.7923218032177877 -1 0 0 I I #
coedge $-1 $371 $531 $373 $550 reversed $227 $-1 #
vertex $-1 $542 $736 #
straight-curve $-1 0 -26.230908038614608 6.7923218032177877 1 0 0 I I #
edge $-1 $376 -6.7923218032177877 $539 6.7923218032177877 $373 $737 forward 7 unknown #
edge $-1 $377 -6.7923218032177877 $538 6.7923218032177877 $374 $738 forward 7 unknown #
point $-1 51.149021881771297 -26.230908038614608 6.7923218032177877 #
point $-1 51.149021881771297 26.230908038614608 6.7923218032177877 #
face $-1 $-1 $563 $55 $-1 $739 reversed single #
loop $-1 $-1 $560 $379 #
plane-surface $-1 0 0 6.7923218032177877 0 0 1 1 0 0 forward_v I I I I #
coedge $-1 $740 $741 $386 $566 forward $380 $-1 #
coedge $-1 $382 $570 $742 $743 reversed $235 $-1 #
edge $-1 $744 -4.1461609016088943 $392 -1.1461609016088938 $382 $745 forward 7 unknown #
coedge $-1 $742 $746 $383 $561 forward $555 $-1 #
edge $-1 $564 -26.230908038614608 $744 26.230908038614608 $560 $747 forward 7 unknown #
coedge $-1 $567 $384 $746 $748 reversed $563 $-1 #
loop $-1 $-1 $384 $554 #
vertex $-1 $385 $749 #
straight-curve $-1 -44.482152916936862 -26.230908038614608 2.6461609016088938 0 0 1 I I #
edge $-1 $571 -26.230908038614608 $568 26.230908038614608 $557 $750 forward 7 unknown #
coedge $-1 $387 $562 $740 $751 forward $563 $-1 #
vertex $-1 $566 $752 #
straight-curve $-1 -23.90779369967704 -26.230908038614608 3.7923218032177877 1 0 0 I I #
coedge $-1 $558 $389 $741 $753 reversed $235 $-1 #
vertex $-1 $566 $754 #
straight-curve $-1 -23.90779369967704 26.230908038614608 3.7923218032177877 -1 0 0 I I #
point $-1 -44.482152916936862 26.230908038614608 3.7923218032177877 #
point $-1 -44.482152916936862 -26.230908038614608 3.7923218032177877 #
loop $-1 $-1 $403 $395 #
plane-surface $-1 -44.482152916936862 0 5.2923218032177877 -1 0 0 0 0 1 forward_v I I I I #
coedge $-1 $582 $755 $399 $578 forward $396 $-1 #
edge $-1 $580 44.303070637918474 $588 50.554558071604824 $577 $756 forward 7 unknown #
coedge $-1 $406 $400 $755 $757 forward $243 $-1 #
vertex $-1 $757 $758 #
straight-curve $-1 -28.280567765410375 39.968849822845783 6.7923218032177886 0 1 0 I I #
coedge $-1 $759 $577 $402 $583 forward $396 $-1 #
edge $-1 $588 10.089887594823566 $586 26.291472746350053 $582 $760 forward 7 unknown #
coedge $-1 $585 $403 $406 $590 reversed $575 $-1 #
coedge $-1 $403 $584 $759 $761 reversed $575 $-1 #
vertex $-1 $761 $762 #
straight-curve $-1 -44.482152916936862 5.7543910768562068 29.784332136114745 0 -0.57357642473473569 0.81915205242281985 I I #
vertex $-1 $583 $763 #
straight-curve $-1 -28.280567765410375 -3.8599528620538024 43.51503868302224 0 -0.57357642473473569 0.81915205242281985 I I #
edge $-1 $764 -26.230908038614608 $407 -21.853569544640941 $406 $765 forward 7 unknown #
point $-1 -44.482152916936862 21.853569544640941 6.7923218032177877 #
point $-1 -28.280567765410375 21.853569544640941 6.7923218032177886 #
edge $-1 $766 1 $766 0 $410 $-1 forward 7 unknown #
vertex $-1 $411 $767 #
ellipse-curve $-1 -39.853128587929291 21.68291738523018 2.0145635024165767 0 0.81915205242281985 0.57357642473473569 1.5 0 0 1 I I #
point $-1 -38.353128587929291 24.042238791627771 3.6665780863746154 #
edge $-1 $768 1 $768 0 $414 $-1 forward 7 unknown #
vertex $-1 $415 $769 #
ellipse-curve $-1 -32.909592094417945 21.68291738523018 2.0145635024165767 0 0.81915205242281985 0.57357642473473569 1.5 0 0 1 I I #
point $-1 -31.409592094417945 24.042238791627771 3.6665780863746154 #
loop $-1 $-1 $426 $418 #
plane-surface $-1 0 26.230908038614608 0 0 -1 0 0 0 -1 forward_v I I I I #
coedge $-1 $604 $421 $423 $608 reversed $265 $-1 #
coedge $-1 $421 $603 $770 $771 reversed $265 $-1 #
coedge $-1 $429 $424 $421 $606 forward $419 $-1 #
edge $-1 $609 -18.115280278204843 $772 -13.737941784231175 $605 $773 forward 7 unknown #
coedge $-1 $423 $422 $612 $774 reversed $167 $-1 #
edge $-1 $775 -52.46181607722923 $609 -44.830159152002437 $603 $776 forward 7 unknown #
vertex $-1 $425 $777 #
straight-curve $-1 -6.236783320748291 21.853569544640944 6.792321803217785 1 0 0 I I #
coedge $-1 $770 $426 $429 $616 reversed $601 $-1 #
coedge $-1 $426 $770 $607 $774 forward $601 $-1 #
vertex $-1 $427 $778 #
straight-curve $-1 -20.574359217259826 26.230908038614608 51.095392441136262 0 0 1 I I #
straight-curve $-1 -20.574359217259826 -3.8599528620538024 43.51503868302224 0 0.57357642473473569 -0.81915205242281985 I I #
edge $-1 $772 4.3727740657333367 $430 20.574359217259826 $611 $779 forward 7 unknown #
point $-1 -20.574359217259826 26.230908038614608 6.7923218032177877 #
point $-1 -20.574359217259826 21.853569544640941 6.7923218032177886 #
edge $-1 $780 1 $780 0 $433 $-1 forward 7 unknown #
vertex $-1 $434 $781 #
ellipse-curve $-1 -15.945334888252255 21.68291738523018 2.0145635024165767 0 0.81915205242281985 0.57357642473473569 1.5 0 0 1 I I #
point $-1 -14.445334888252255 24.042238791627771 3.6665780863746154 #
edge $-1 $782 1 $782 0 $437 $-1 forward 7 unknown #
vertex $-1 $438 $783 #
ellipse-curve $-1 -9.0017983947409022 21.68291738523018 2.0145635024165767 0 0.81915205242281985 0.57357642473473569 1.5 0 0 1 I I #
point $-1 -7.5017983947409022 24.042238791627771 3.6665780863746154 #
loop $-1 $-1 $449 $441 #
plane-surface $-1 0 26.230908038614608 0 0 -1 0 0 0 -1 forward_v I I I I #
coedge $-1 $630 $444 $446 $634 reversed $287 $-1 #
coedge $-1 $444 $629 $784 $785 reversed $287 $-1 #
coedge $-1 $452 $447 $444 $632 forward $442 $-1 #
edge $-1 $635 -18.115280278204843 $786 -13.737941784231175 $631 $787 forward 7 unknown #
coedge $-1 $446 $445 $638 $788 reversed $181 $-1 #
edge $-1 $789 -52.46181607722923 $635 -44.830159152002437 $629 $790 forward 7 unknown #
vertex $-1 $448 $791 #
straight-curve $-1 5.7171135290902306 21.853569544640944 6.792321803217785 1 0 0 I I #
coedge $-1 $784 $449 $452 $642 reversed $627 $-1 #
coedge $-1 $449 $784 $633 $788 forward $627 $-1 #
vertex $-1 $450 $792 #
straight-curve $-1 3.333434482417216 26.230908038614608 51.095392441136262 0 0 1 I I #
straight-curve $-1 3.333434482417216 -3.8599528620538024 43.51503868302224 0 0.57357642473473569 -0.81915205242281985 I I #
edge $-1 $786 -19.535019633943705 $453 -3.333434482417216 $637 $793 forward 7 unknown #
point $-1 3.333434482417216 26.230908038614608 6.7923218032177877 #
point $-1 3.333434482417216 21.853569544640941 6.7923218032177886 #
edge $-1 $794 1 $794 0 $456 $-1 forward 7 unknown #
vertex $-1 $457 $795 #
ellipse-curve $-1 7.9624588114247885 21.68291738523018 2.0145635024165767 0 0.81915205242281985 0.57357642473473569 1.5 0 0 1 I I #
point $-1 9.4624588114247885 24.042238791627771 3.6665780863746154 #
edge $-1 $796 1 $796 0 $460 $-1 forward 7 unknown #
vertex $-1 $461 $797 #
ellipse-curve $-1 14.905995304936134 21.68291738523018 2.0145635024165767 0 0.81915205242281985 0.57357642473473569 1.5 0 0 1 I I #
point $-1 16.405995304936134 24.042238791627771 3.6665780863746154 #
loop $-1 $-1 $472 $464 #
plane-surface $-1 0 26.230908038614608 0 0 -1 0 0 0 -1 forward_v I I I I #
coedge $-1 $656 $467 $469 $660 reversed $309 $-1 #
coedge $-1 $467 $655 $798 $799 reversed $309 $-1 #
coedge $-1 $475 $470 $467 $658 forward $465 $-1 #
edge $-1 $661 -18.115280278204843 $800 -13.737941784231175 $657 $801 forward 7 unknown #
coedge $-1 $469 $468 $664 $802 reversed $195 $-1 #
edge $-1 $803 -52.46181607722923 $661 -44.830159152002437 $655 $804 forward 7 unknown #
vertex $-1 $471 $805 #
straight-curve $-1 17.671010378928752 21.853569544640944 6.792321803217785 1 0 0 I I #
coedge $-1 $798 $472 $475 $668 reversed $653 $-1 #
coedge $-1 $472 $798 $659 $802 forward $653 $-1 #
vertex $-1 $473 $806 #
straight-curve $-1 27.241228182094261 26.230908038614608 51.095392441136262 0 0 1 I I #
straight-curve $-1 27.241228182094261 -3.8599528620538024 43.51503868302224 0 0.57357642473473569 -0.81915205242281985 I I #
edge $-1 $800 -43.442813333620748 $476 -27.241228182094261 $663 $807 forward 7 unknown #
point $-1 27.241228182094261 26.230908038614608 6.7923218032177877 #
point $-1 27.241228182094261 21.853569544640941 6.7923218032177886 #
edge $-1 $808 1 $808 0 $479 $-1 forward 7 unknown #
vertex $-1 $480 $809 #
ellipse-curve $-1 31.870252511101832 21.68291738523018 2.0145635024165767 0 0.81915205242281985 0.57357642473473569 1.5 0 0 1 I I #
point $-1 33.370252511101832 24.042238791627771 3.6665780863746154 #
edge $-1 $810 1 $810 0 $483 $-1 forward 7 unknown #
vertex $-1 $484 $811 #
ellipse-curve $-1 38.813789004613177 21.68291738523018 2.0145635024165767 0 0.81915205242281985 0.57357642473473569 1.5 0 0 1 I I #
point $-1 40.313789004613177 24.042238791627771 3.6665780863746154 #
plane-surface $-1 0 0 6.7923218032177877 0 0 1 1 0 0 forward_v I I I I #
coedge $-1 $690 $689 $682 $812 forward $488 $-1 #
coedge $-1 $682 $490 $492 $686 reversed $331 $-1 #
coedge $-1 $490 $681 $680 $812 reversed $331 $-1 #
coedge $-1 $498 $493 $490 $684 forward $499 $-1 #
edge $-1 $687 -31.013576921993955 $813 -26.066970388048169 $683 $814 forward 7 unknown #
coedge $-1 $492 $491 $690 $815 reversed $209 $-1 #
edge $-1 $816 1.1030930024383267e-014 $687 7.6955537651955011 $681 $817 forward 7 unknown #
vertex $-1 $494 $818 #
straight-curve $-1 -16.010561939775183 -21.284301504668825 6.7923218032177877 -1 0 0 I I #
coedge $-1 $680 $495 $498 $694 reversed $488 $-1 #
coedge $-1 $495 $680 $685 $815 forward $488 $-1 #
vertex $-1 $496 $819 #
straight-curve $-1 -23.597032149506077 -26.230908038614608 33.326549778507342 0 0 1 I I #
straight-curve $-1 -23.597032149506077 -26.230908038614615 0.89718554089616021 0 -0.64278759981090561 -0.7660444514056185 I I #
edge $-1 $813 -40.445215609594655 $500 -23.597032149506077 $689 $820 forward 7 unknown #
point $-1 -23.597032149506077 -26.230908038614608 6.7923218032177877 #
point $-1 -23.597032149506077 -21.284301504668822 6.7923218032177877 #
edge $-1 $821 1 $821 0 $503 $-1 forward 7 unknown #
vertex $-1 $504 $822 #
ellipse-curve $-1 -32.021123879550366 -22.379825888102996 2.6886599493037129 0 -0.7660444514056185 0.64278759981090561 1.5 0 0 1 I I #
point $-1 -30.521123879550366 -23.757604771641709 3.8447536720569708 #
plane-surface $-1 0 0 6.7923218032177877 0 0 1 1 0 0 forward_v I I I I #
coedge $-1 $712 $711 $704 $823 forward $508 $-1 #
coedge $-1 $704 $510 $512 $708 reversed $346 $-1 #
coedge $-1 $510 $703 $702 $823 reversed $346 $-1 #
coedge $-1 $518 $513 $510 $706 forward $519 $-1 #
edge $-1 $709 -31.013576921993955 $824 -26.066970388048169 $705 $825 forward 7 unknown #
coedge $-1 $512 $511 $712 $826 reversed $218 $-1 #
edge $-1 $827 1.1030930024383267e-014 $709 7.6955537651955011 $703 $828 forward 7 unknown #
vertex $-1 $514 $829 #
straight-curve $-1 19.343996422192401 -21.284301504668825 6.7923218032177877 -1 0 0 I I #
coedge $-1 $702 $515 $518 $716 reversed $508 $-1 #
coedge $-1 $515 $702 $707 $826 forward $508 $-1 #
vertex $-1 $516 $830 #
straight-curve $-1 47.11208457442909 -26.230908038614608 33.326549778507342 0 0 1 I I #
straight-curve $-1 47.11208457442909 -26.230908038614615 0.89718554089616021 0 -0.64278759981090561 -0.7660444514056185 I I #
edge $-1 $824 30.263901114340513 $520 47.11208457442909 $711 $831 forward 7 unknown #
point $-1 47.11208457442909 -26.230908038614608 6.7923218032177877 #
point $-1 47.11208457442909 -21.284301504668822 6.7923218032177877 #
edge $-1 $832 1 $832 0 $523 $-1 forward 7 unknown #
vertex $-1 $524 $833 #
ellipse-curve $-1 38.687992844384802 -22.379825888102996 2.6886599493037129 0 -0.7660444514056185 0.64278759981090561 1.5 0 0 1 I I #
point $-1 40.187992844384802 -23.757604771641709 3.8447536720569708 #
plane-surface $-1 51.149021881771297 0 0 -1 0 0 0 0 1 forward_v I I I I #
coedge $-1 $532 $530 $534 $728 reversed $361 $-1 #
edge $-1 $545 -6.7923218032177877 $730 6.7923218032177877 $544 $834 forward 7 unknown #
vertex $-1 $728 $835 #
straight-curve $-1 -51.149021881771297 -26.230908038614608 0 0 0 -1 I I #
edge $-1 $726 -26.230908038614608 $730 26.230908038614608 $724 $836 forward 7 unknown #
straight-curve $-1 0 -26.230908038614608 -6.7923218032177877 -1 0 0 I I #
vertex $-1 $537 $837 #
straight-curve $-1 0 26.230908038614608 -6.7923218032177877 1 0 0 I I #
point $-1 51.149021881771297 26.230908038614608 -6.7923218032177877 #
point $-1 51.149021881771297 -26.230908038614608 -6.7923218032177877 #
straight-curve $-1 -51.149021881771297 0 6.7923218032177877 0 -1 0 I I #
point $-1 -51.149021881771297 26.230908038614608 6.7923218032177877 #
point $-1 -51.149021881771297 -26.230908038614608 6.7923218032177877 #
straight-curve $-1 51.149021881771297 -26.230908038614608 0 0 0 -1 I I #
straight-curve $-1 51.149021881771297 26.230908038614608 0 0 0 -1 I I #
plane-surface $-1 0 -26.230908038614608 0 0 1 0 0 0 1 forward_v I I I I #
coedge $-1 $838 $557 $567 $751 reversed $380 $-1 #
coedge $-1 $557 $838 $570 $753 forward $380 $-1 #
coedge $-1 $839 $560 $558 $743 forward $555 $-1 #
edge $-1 $744 44.482152916936862 $840 51.149021881771297 $558 $841 forward 7 unknown #
vertex $-1 $743 $842 #
straight-curve $-1 -44.482152916936862 26.230908038614608 2.6461609016088938 0 0 -1 I I #
coedge $-1 $560 $839 $562 $748 forward $555 $-1 #
straight-curve $-1 -44.482152916936862 0 6.7923218032177877 0 1 0 I I #
edge $-1 $843 -51.149021881771297 $564 -44.482152916936862 $562 $844 forward 7 unknown #
point $-1 -44.482152916936862 -26.230908038614608 6.7923218032177877 #
straight-curve $-1 -51.149021881771297 0 3.7923218032177877 0 -1 0 I I #
edge $-1 $843 -6.7923218032177877 $568 -3.7923218032177877 $740 $845 forward 7 unknown #
point $-1 -51.149021881771297 -26.230908038614608 3.7923218032177877 #
edge $-1 $840 -6.7923218032177877 $571 -3.7923218032177877 $570 $846 forward 7 unknown #
point $-1 -51.149021881771297 26.230908038614608 3.7923218032177877 #
coedge $-1 $577 $759 $579 $757 reversed $396 $-1 #
straight-curve $-1 -28.280567765410375 26.230908038614608 51.095392441136262 0 0 -1 I I #
edge $-1 $580 28.280567765410375 $764 44.482152916936862 $755 $847 forward 7 unknown #
point $-1 -28.280567765410375 26.230908038614608 6.7923218032177877 #
coedge $-1 $755 $582 $585 $761 forward $396 $-1 #
straight-curve $-1 -18.190680170586809 26.230908038614608 0.54083436953143504 -1 0 0 I I #
edge $-1 $586 -50.554558071604824 $764 -44.303070637918474 $759 $848 forward 7 unknown #
point $-1 -44.482152916936862 26.230908038614608 0.5408343695314386 #
point $-1 -28.280567765410375 26.230908038614608 0.5408343695314386 #
vertex $-1 $590 $849 #
straight-curve $-1 -44.482152916936862 0 6.7923218032177877 0 -1 0 I I #
vertex $-1 $593 $850 #
point $-1 -38.353128587929291 21.68291738523018 2.0145635024165767 #
vertex $-1 $597 $851 #
point $-1 -31.409592094417945 21.68291738523018 2.0145635024165767 #
coedge $-1 $612 $611 $604 $771 forward $601 $-1 #
edge $-1 $772 44.303070637918474 $775 50.554558071604824 $770 $852 forward 7 unknown #
vertex $-1 $616 $853 #
straight-curve $-1 -4.3727740657333367 39.968849822845783 6.7923218032177886 0 1 0 I I #
edge $-1 $775 -1.8640092550149543 $613 14.337575896511535 $612 $854 forward 7 unknown #
vertex $-1 $774 $855 #
straight-curve $-1 -4.3727740657333367 -3.8599528620538024 43.51503868302224 0 -0.57357642473473569 0.81915205242281985 I I #
point $-1 -4.3727740657333367 21.853569544640941 6.7923218032177886 #
point $-1 -20.574359217259826 26.230908038614608 0.5408343695314386 #
straight-curve $-1 0 26.230908038614608 6.7923218032177877 -1 0 0 I I #
vertex $-1 $619 $856 #
point $-1 -14.445334888252255 21.68291738523018 2.0145635024165767 #
vertex $-1 $623 $857 #
point $-1 -7.5017983947409022 21.68291738523018 2.0145635024165767 #
coedge $-1 $638 $637 $630 $785 forward $627 $-1 #
edge $-1 $786 44.303070637918474 $789 50.554558071604824 $784 $858 forward 7 unknown #
vertex $-1 $642 $859 #
straight-curve $-1 19.535019633943705 39.968849822845783 6.7923218032177886 0 1 0 I I #
edge $-1 $789 -13.817906104853474 $639 2.3836790466730147 $638 $860 forward 7 unknown #
vertex $-1 $788 $861 #
straight-curve $-1 19.535019633943705 -3.8599528620538024 43.51503868302224 0 -0.57357642473473569 0.81915205242281985 I I #
point $-1 19.535019633943705 21.853569544640941 6.7923218032177886 #
point $-1 3.333434482417216 26.230908038614608 0.5408343695314386 #
straight-curve $-1 0 26.230908038614608 6.7923218032177877 -1 0 0 I I #
vertex $-1 $645 $862 #
point $-1 9.4624588114247885 21.68291738523018 2.0145635024165767 #
vertex $-1 $649 $863 #
point $-1 16.405995304936134 21.68291738523018 2.0145635024165767 #
coedge $-1 $664 $663 $656 $799 forward $653 $-1 #
edge $-1 $800 44.303070637918474 $803 50.554558071604824 $798 $864 forward 7 unknown #
vertex $-1 $668 $865 #
straight-curve $-1 43.442813333620748 39.968849822845783 6.7923218032177886 0 1 0 I I #
edge $-1 $803 -25.771802954691996 $665 -9.5702178031655087 $664 $866 forward 7 unknown #
vertex $-1 $802 $867 #
straight-curve $-1 43.442813333620748 -3.8599528620538024 43.51503868302224 0 -0.57357642473473569 0.81915205242281985 I I #
point $-1 43.442813333620748 21.853569544640941 6.7923218032177886 #
point $-1 27.241228182094261 26.230908038614608 0.5408343695314386 #
straight-curve $-1 0 26.230908038614608 6.7923218032177877 -1 0 0 I I #
vertex $-1 $671 $868 #
point $-1 33.370252511101832 21.68291738523018 2.0145635024165767 #
vertex $-1 $675 $869 #
point $-1 40.313789004613177 21.68291738523018 2.0145635024165767 #
edge $-1 $813 26.534227975289554 $816 32.429364237611175 $680 $870 forward 7 unknown #
vertex $-1 $694 $871 #
straight-curve $-1 -40.445215609594655 -52.297878426662777 6.7923218032177886 0 -1 0 I I #
edge $-1 $816 -24.434653669819472 $691 -7.5864702097308943 $690 $872 forward 7 unknown #
vertex $-1 $815 $873 #
straight-curve $-1 -40.445215609594655 -26.230908038614615 0.89718554089616021 0 0.64278759981090561 0.7660444514056185 I I #
point $-1 -40.445215609594655 -21.284301504668822 6.7923218032177877 #
point $-1 -23.597032149506077 -26.230908038614608 0.89718554089616864 #
straight-curve $-1 0 -26.230908038614608 6.7923218032177877 1 0 0 I I #
vertex $-1 $697 $874 #
point $-1 -30.521123879550366 -22.379825888102996 2.6886599493037129 #
edge $-1 $824 26.534227975289554 $827 32.429364237611175 $702 $875 forward 7 unknown #
vertex $-1 $716 $876 #
straight-curve $-1 30.263901114340513 -52.297878426662777 6.7923218032177886 0 -1 0 I I #
edge $-1 $827 10.919904692148112 $713 27.76808815223669 $712 $877 forward 7 unknown #
vertex $-1 $826 $878 #
straight-curve $-1 30.263901114340513 -26.230908038614615 0.89718554089616021 0 0.64278759981090561 0.7660444514056185 I I #
point $-1 30.263901114340513 -21.284301504668822 6.7923218032177877 #
point $-1 47.11208457442909 -26.230908038614608 0.89718554089616864 #
straight-curve $-1 0 -26.230908038614608 6.7923218032177877 1 0 0 I I #
vertex $-1 $719 $879 #
point $-1 40.187992844384802 -22.379825888102996 2.6886599493037129 #
straight-curve $-1 -51.149021881771297 26.230908038614608 0 0 0 -1 I I #
point $-1 -51.149021881771297 -26.230908038614608 -6.7923218032177877 #
straight-curve $-1 -51.149021881771297 0 -6.7923218032177877 0 1 0 I I #
point $-1 -51.149021881771297 26.230908038614608 -6.7923218032177877 #
coedge $-1 $741 $740 $839 $880 reversed $380 $-1 #
coedge $-1 $746 $742 $838 $880 forward $555 $-1 #
vertex $-1 $743 $881 #
straight-curve $-1 0 26.230908038614608 6.7923218032177877 -1 0 0 I I #
point $-1 -44.482152916936862 26.230908038614608 6.7923218032177877 #
vertex $-1 $880 $882 #
straight-curve $-1 0 -26.230908038614608 6.7923218032177877 1 0 0 I I #
straight-curve $-1 -51.149021881771297 -26.230908038614608 0 0 0 -1 I I #
straight-curve $-1 -51.149021881771297 26.230908038614608 0 0 0 -1 I I #
straight-curve $-1 0 26.230908038614608 6.7923218032177877 -1 0 0 I I #
straight-curve $-1 -44.482152916936862 26.230908038614608 51.095392441136262 0 0 1 I I #
point $-1 -44.482152916936862 26.230908038614608 6.7923218032177877 #
point $-1 -39.853128587929291 20.454189306595953 1.1541988653144732 #
point $-1 -32.909592094417945 20.454189306595953 1.1541988653144732 #
straight-curve $-1 -4.3727740657333367 26.230908038614608 51.095392441136262 0 0 -1 I I #
point $-1 -4.3727740657333367 26.230908038614608 6.7923218032177877 #
straight-curve $-1 -6.236783320748291 26.230908038614608 0.54083436953143504 -1 0 0 I I #
point $-1 -4.3727740657333367 26.230908038614608 0.5408343695314386 #
point $-1 -15.945334888252255 20.454189306595953 1.1541988653144732 #
point $-1 -9.0017983947409022 20.454189306595953 1.1541988653144732 #
straight-curve $-1 19.535019633943705 26.230908038614608 51.095392441136262 0 0 -1 I I #
point $-1 19.535019633943705 26.230908038614608 6.7923218032177877 #
straight-curve $-1 5.7171135290902306 26.230908038614608 0.54083436953143504 -1 0 0 I I #
point $-1 19.535019633943705 26.230908038614608 0.5408343695314386 #
point $-1 7.9624588114247885 20.454189306595953 1.1541988653144732 #
point $-1 14.905995304936134 20.454189306595953 1.1541988653144732 #
straight-curve $-1 43.442813333620748 26.230908038614608 51.095392441136262 0 0 -1 I I #
point $-1 43.442813333620748 26.230908038614608 6.7923218032177877 #
straight-curve $-1 17.671010378928752 26.230908038614608 0.54083436953143504 -1 0 0 I I #
point $-1 43.442813333620748 26.230908038614608 0.5408343695314386 #
point $-1 31.870252511101832 20.454189306595953 1.1541988653144732 #
point $-1 38.813789004613177 20.454189306595953 1.1541988653144732 #
straight-curve $-1 -40.445215609594655 -26.230908038614608 33.326549778507342 0 0 -1 I I #
point $-1 -40.445215609594655 -26.230908038614608 6.7923218032177877 #
straight-curve $-1 -16.010561939775183 -26.230908038614608 0.89718554089616998 1 0 0 I I #
point $-1 -40.445215609594655 -26.230908038614608 0.89718554089616864 #
point $-1 -32.021123879550366 -21.230759210994567 1.7244785495873542 #
straight-curve $-1 30.263901114340513 -26.230908038614608 33.326549778507342 0 0 -1 I I #
point $-1 30.263901114340513 -26.230908038614608 6.7923218032177877 #
straight-curve $-1 19.343996422192401 -26.230908038614608 0.89718554089616998 1 0 0 I I #
point $-1 30.263901114340513 -26.230908038614608 0.89718554089616864 #
point $-1 38.687992844384802 -21.230759210994567 1.7244785495873542 #
edge $-1 $840 -26.230908038614608 $843 26.230908038614608 $838 $883 forward 7 unknown #
point $-1 -51.149021881771297 26.230908038614608 6.7923218032177877 #
point $-1 -51.149021881771297 -26.230908038614608 6.7923218032177877 #
straight-curve $-1 -51.149021881771297 0 6.7923218032177877 0 -1 0 I I #
End-of-ACIS-data 