500 0 6 0           
7 Unknown 11 ACIS 5.0 NT 24 Fri Mar 26 16:49:03 1999 
-1 9.9999999999999995e-007 1e-010 
body $-1 $6 $-1 $7 #
body $-1 $8 $-1 $9 #
body $-1 $10 $-1 $11 #
body $-1 $12 $-1 $13 #
body $-1 $14 $-1 $15 #
body $-1 $16 $-1 $17 #
lump $-1 $-1 $18 $0 #
transform $-1 1 0 0 0 1 0 0 0 1 70.646687215796376 28.889314127342157 14.305531303934314 1 rotate no_reflect no_shear #
lump $-1 $-1 $19 $1 #
transform $-1 1 0 0 0 1 0 0 0 1 70.646687215796376 28.889314127342157 14.305531303934314 1 rotate no_reflect no_shear #
lump $-1 $-1 $20 $2 #
transform $-1 1 0 0 0 1 0 0 0 1 70.646687215796376 28.889314127342157 14.305531303934314 1 rotate no_reflect no_shear #
lump $-1 $-1 $21 $3 #
transform $-1 1 0 0 0 1 0 0 0 1 70.646687215796376 28.889314127342157 14.305531303934314 1 rotate no_reflect no_shear #
lump $-1 $-1 $22 $4 #
transform $-1 1 0 0 0 1 0 0 0 1 70.646687215796376 28.889314127342157 14.305531303934314 1 rotate no_reflect no_shear #
lump $-1 $-1 $23 $5 #
transform $-1 1 0 0 0 1 0 0 0 1 70.646687215796376 28.889314127342157 14.305531303934314 1 rotate no_reflect no_shear #
shell $-1 $-1 $-1 $24 $-1 $6 #
shell $-1 $-1 $-1 $25 $-1 $8 #
shell $-1 $-1 $-1 $26 $-1 $10 #
shell $-1 $-1 $-1 $27 $-1 $12 #
shell $-1 $-1 $-1 $28 $-1 $14 #
shell $-1 $-1 $-1 $29 $-1 $16 #
face $-1 $30 $31 $18 $-1 $32 forward single #
face $-1 $33 $34 $19 $-1 $35 reversed single #
face $-1 $36 $37 $20 $-1 $38 reversed single #
face $-1 $39 $40 $21 $-1 $41 reversed single #
face $-1 $42 $43 $22 $-1 $44 forward single #
face $-1 $45 $46 $23 $-1 $47 forward single #
face $-1 $48 $49 $18 $-1 $50 reversed single #
loop $-1 $-1 $51 $24 #
plane-surface $-1 0 0 14.305531303934314 0 0 1 1 0 0 forward_v I I I I #
face $-1 $52 $53 $19 $-1 $54 reversed single #
loop $-1 $-1 $55 $25 #
plane-surface $-1 -62.544479076510299 -5.2012542993869815 0 0 1 0 0 0 1 forward_v I I I I #
face $-1 $56 $57 $20 $-1 $58 reversed single #
loop $-1 $-1 $59 $26 #
plane-surface $-1 62.544479076510285 -5.2012542993869815 0 0 1 0 0 0 1 forward_v I I I I #
face $-1 $60 $61 $21 $-1 $62 reversed single #
loop $-1 $-1 $63 $27 #
plane-surface $-1 21.205822136773079 -138.69489061672508 90.214725239795229 -1 0 0 0 -0.77714596973225614 0.62932038083071107 forward_v I I I I #
face $-1 $64 $65 $22 $-1 $66 forward single #
loop $-1 $67 $68 $28 #
cone-surface $-1 3.7864506357771006 -19.246264548733564 4.2574663987579049 0 0.77714596973225614 -0.62932038083071107 3 0 0 1 I I 0 1 3 forward I I I I #
face $-1 $69 $70 $23 $-1 $71 forward single #
loop $-1 $72 $73 $29 #
cone-surface $-1 14.238073536374699 -19.246264548733564 4.2574663987579049 0 0.77714596973225614 -0.62932038083071107 3 0 0 1 I I 0 1 3 forward I I I I #
face $-1 $74 $75 $18 $-1 $76 reversed single #
loop $-1 $-1 $77 $30 #
plane-surface $-1 0 0 -14.305531303934314 0 0 1 1 0 0 forward_v I I I I #
coedge $-1 $78 $79 $80 $81 forward $31 $-1 #
face $-1 $82 $83 $19 $-1 $84 reversed single #
loop $-1 $-1 $85 $33 #
plane-surface $-1 -62.544479076510299 -0.27825151947352822 0 0 -1 0 0 0 -1 forward_v I I I I #
coedge $-1 $86 $87 $88 $89 reversed $34 $-1 #
face $-1 $90 $91 $20 $-1 $92 reversed single #
loop $-1 $-1 $93 $36 #
plane-surface $-1 54.442270937224208 -2.7397529094302548 0 1 0 0 0 0 -1 forward_v I I I I #
coedge $-1 $94 $95 $96 $97 forward $37 $-1 #
face $-1 $98 $99 $21 $-1 $100 reversed single #
loop $-1 $-1 $101 $39 #
plane-surface $-1 9.0122620860758929 -28.889314127342161 1.2959250336490271 0 -0.77714596973225614 0.62932038083071107 1 0 0 forward_v I I I I #
coedge $-1 $102 $103 $104 $105 reversed $40 $-1 #
face $-1 $-1 $106 $22 $-1 $107 forward single #
loop $-1 $108 $109 $42 #
cone-surface $-1 3.7864506357771006 -13.704981591816855 -0.22977594252192191 0 0.77714596973225614 -0.62932038083071107 1.5 0 0 1 I I -0.70710678118654757 0.70710678118654757 1.5 forward I I I I #
loop $-1 $-1 $110 $28 #
coedge $-1 $68 $68 $111 $112 reversed $43 $-1 #
face $-1 $-1 $113 $23 $-1 $114 forward single #
loop $-1 $115 $116 $45 #
cone-surface $-1 14.238073536374699 -13.704981591816855 -0.22977594252192191 0 0.77714596973225614 -0.62932038083071107 1.5 0 0 1 I I -0.70710678118654757 0.70710678118654757 1.5 forward I I I I #
loop $-1 $-1 $117 $29 #
coedge $-1 $73 $73 $118 $119 reversed $46 $-1 #
face $-1 $120 $121 $18 $-1 $122 reversed single #
loop $-1 $-1 $123 $48 #
plane-surface $-1 0 -28.889314127342157 0 0 1 0 0 0 1 forward_v I I I I #
coedge $-1 $124 $125 $126 $127 forward $49 $-1 #
coedge $-1 $128 $51 $129 $130 forward $31 $-1 #
coedge $-1 $51 $128 $131 $132 forward $31 $-1 #
coedge $-1 $133 $134 $51 $81 reversed $135 $-1 #
edge $-1 $136 -28.889314127342157 $137 28.889314127342157 $80 $138 forward 7 unknown #
face $-1 $139 $140 $19 $-1 $141 reversed single #
loop $-1 $-1 $142 $52 #
plane-surface $-1 -54.442270937224222 -2.7397529094302548 0 -1 0 0 0 0 1 forward_v I I I I #
coedge $-1 $143 $144 $145 $146 forward $53 $-1 #
coedge $-1 $147 $55 $148 $149 reversed $34 $-1 #
coedge $-1 $55 $147 $150 $151 reversed $34 $-1 #
coedge $-1 $152 $153 $55 $89 forward $154 $-1 #
edge $-1 $155 -14.305531303934314 $156 14.305531303934314 $88 $157 forward 7 unknown #
face $-1 $158 $159 $20 $-1 $160 reversed single #
loop $-1 $-1 $161 $56 #
plane-surface $-1 62.544479076510285 -0.27825151947352822 0 0 -1 0 0 0 -1 forward_v I I I I #
coedge $-1 $162 $163 $164 $165 forward $57 $-1 #
coedge $-1 $166 $59 $167 $168 reversed $37 $-1 #
coedge $-1 $59 $166 $169 $170 reversed $37 $-1 #
coedge $-1 $163 $162 $59 $97 reversed $57 $-1 #
edge $-1 $171 -14.305531303934314 $172 14.305531303934314 $96 $173 forward 7 unknown #
face $-1 $174 $175 $21 $-1 $176 forward single #
loop $-1 $-1 $177 $60 #
plane-surface $-1 -3.1812979646212938 -138.69489061672508 90.214725239795229 1 0 0 0 0.77714596973225614 -0.62932038083071107 forward_v I I I I #
coedge $-1 $178 $179 $180 $181 reversed $61 $-1 #
coedge $-1 $103 $63 $182 $183 reversed $40 $-1 #
coedge $-1 $63 $102 $178 $184 reversed $40 $-1 #
coedge $-1 $180 $185 $63 $105 forward $175 $-1 #
edge $-1 $186 40.458131181020377 $187 50.993102333600909 $104 $188 forward 7 unknown #
loop $-1 $-1 $111 $64 #
plane-surface $-1 9.0122620860758929 -28.889314127342161 1.2959250336490271 0 -0.77714596973225614 0.62932038083071107 1 0 0 forward_v I I I I #
loop $-1 $-1 $189 $42 #
coedge $-1 $109 $109 $110 $190 reversed $65 $-1 #
coedge $-1 $110 $110 $109 $190 forward $67 $-1 #
coedge $-1 $111 $111 $68 $112 forward $106 $-1 #
edge $-1 $191 -1.2003990142046687e-016 $191 6.2831853071796004 $111 $192 forward 7 unknown #
loop $-1 $-1 $118 $69 #
plane-surface $-1 9.0122620860758929 -28.889314127342161 1.2959250336490271 0 -0.77714596973225614 0.62932038083071107 1 0 0 forward_v I I I I #
loop $-1 $-1 $193 $45 #
coedge $-1 $116 $116 $117 $194 reversed $70 $-1 #
coedge $-1 $117 $117 $116 $194 forward $72 $-1 #
coedge $-1 $118 $118 $73 $119 forward $113 $-1 #
edge $-1 $195 -1.2003990142046687e-016 $195 6.2831853071796004 $118 $196 forward 7 unknown #
face $-1 $197 $198 $18 $-1 $199 reversed single #
loop $-1 $-1 $200 $74 #
plane-surface $-1 -70.646687215796376 0 0 1 0 0 0 0 -1 forward_v I I I I #
coedge $-1 $201 $131 $202 $203 forward $75 $-1 #
coedge $-1 $204 $77 $201 $205 forward $49 $-1 #
coedge $-1 $77 $204 $206 $207 forward $49 $-1 #
coedge $-1 $134 $133 $77 $127 reversed $135 $-1 #
edge $-1 $208 -28.889314127342157 $209 28.889314127342157 $126 $210 forward 7 unknown #
coedge $-1 $79 $78 $211 $212 forward $31 $-1 #
coedge $-1 $213 $214 $78 $130 reversed $198 $-1 #
edge $-1 $137 -70.646687215796376 $215 70.646687215796376 $129 $216 forward 7 unknown #
coedge $-1 $123 $217 $79 $132 reversed $75 $-1 #
edge $-1 $218 -70.646687215796376 $136 70.646687215796376 $131 $219 forward 7 unknown #
coedge $-1 $126 $80 $217 $220 forward $135 $-1 #
coedge $-1 $80 $126 $213 $221 reversed $135 $-1 #
loop $-1 $-1 $133 $197 #
vertex $-1 $81 $222 #
vertex $-1 $81 $223 #
straight-curve $-1 70.646687215796376 0 14.305531303934314 0 1 0 I I #
face $-1 $224 $225 $19 $-1 $226 forward single #
loop $-1 $-1 $227 $82 #
plane-surface $-1 0 0 -14.305531303934314 0 0 1 1 0 0 forward_v I I I I #
coedge $-1 $228 $229 $147 $230 forward $83 $-1 #
coedge $-1 $231 $85 $227 $232 reversed $53 $-1 #
coedge $-1 $85 $231 $233 $234 reversed $53 $-1 #
coedge $-1 $229 $228 $85 $146 reversed $83 $-1 #
edge $-1 $235 -14.305531303934314 $236 14.305531303934314 $145 $237 forward 7 unknown #
coedge $-1 $87 $86 $142 $230 reversed $34 $-1 #
coedge $-1 $238 $239 $86 $149 forward $140 $-1 #
edge $-1 $240 23.170031398969073 $155 39.374447677541227 $148 $241 forward 7 unknown #
coedge $-1 $242 $243 $87 $151 forward $225 $-1 #
edge $-1 $156 -39.374447677541227 $244 -23.170031398969073 $150 $245 forward 7 unknown #
coedge $-1 $246 $88 $243 $247 reversed $154 $-1 #
coedge $-1 $88 $246 $238 $248 reversed $154 $-1 #
loop $-1 $-1 $246 $224 #
vertex $-1 $248 $249 #
vertex $-1 $89 $250 #
straight-curve $-1 -70.646687215796376 -5.2012542993869815 0 0 0 1 I I #
face $-1 $251 $252 $20 $-1 $253 forward single #
loop $-1 $-1 $167 $90 #
plane-surface $-1 0 0 -14.305531303934314 0 0 1 1 0 0 forward_v I I I I #
coedge $-1 $254 $255 $256 $257 reversed $91 $-1 #
coedge $-1 $96 $93 $258 $259 reversed $57 $-1 #
coedge $-1 $93 $96 $260 $261 reversed $57 $-1 #
coedge $-1 $255 $254 $93 $165 reversed $91 $-1 #
edge $-1 $262 -14.305531303934314 $263 14.305531303934314 $164 $264 forward 7 unknown #
coedge $-1 $95 $94 $265 $266 reversed $37 $-1 #
coedge $-1 $258 $267 $94 $168 forward $159 $-1 #
edge $-1 $268 -39.37444767754122 $172 -23.170031398969066 $167 $269 forward 7 unknown #
coedge $-1 $270 $260 $95 $170 forward $252 $-1 #
edge $-1 $171 23.170031398969066 $271 39.37444767754122 $169 $272 forward 7 unknown #
vertex $-1 $170 $273 #
vertex $-1 $168 $274 #
straight-curve $-1 54.442270937224208 -5.2012542993869815 0 0 0 -1 I I #
face $-1 $-1 $275 $21 $-1 $276 reversed single #
loop $-1 $-1 $104 $98 #
plane-surface $-1 0 0 14.305531303934314 0 0 1 1 0 0 forward_v I I I I #
coedge $-1 $277 $278 $279 $280 reversed $99 $-1 #
coedge $-1 $281 $101 $103 $184 forward $61 $-1 #
coedge $-1 $101 $281 $277 $282 forward $61 $-1 #
coedge $-1 $279 $104 $101 $181 forward $175 $-1 #
edge $-1 $187 -16.699691093735133 $283 7.6874290076592402 $180 $284 forward 7 unknown #
coedge $-1 $285 $286 $102 $183 forward $275 $-1 #
edge $-1 $287 -43.81143758624858 $186 -30.801831315963298 $182 $288 forward 7 unknown #
edge $-1 $187 -16.740235138538235 $287 -5.6870165216907905e-015 $103 $289 forward 7 unknown #
coedge $-1 $104 $279 $285 $290 forward $175 $-1 #
vertex $-1 $105 $291 #
vertex $-1 $105 $292 #
straight-curve $-1 21.205822136773079 -69.347445308362538 14.305531303934316 0 1 0 I I #
coedge $-1 $189 $189 $-1 $293 reversed $108 $-1 #
edge $-1 $294 0 $294 6.2831853071796004 $109 $295 forward 7 unknown #
vertex $-1 $112 $296 #
ellipse-curve $-1 3.7864506357771006 -23.621828551051891 7.8007281687916707 0 -0.77714596973225614 0.62932038083071107 3 0 0 1 I I #
coedge $-1 $193 $193 $-1 $297 reversed $115 $-1 #
edge $-1 $298 0 $298 6.2831853071796004 $116 $299 forward 7 unknown #
vertex $-1 $119 $300 #
ellipse-curve $-1 14.238073536374699 -23.621828551051891 7.8007281687916707 0 -0.77714596973225614 0.62932038083071107 3 0 0 1 I I #
face $-1 $-1 $135 $18 $-1 $301 reversed single #
loop $-1 $-1 $213 $120 #
plane-surface $-1 0 28.889314127342157 0 0 -1 0 0 0 -1 forward_v I I I I #
coedge $-1 $302 $211 $214 $303 forward $121 $-1 #
coedge $-1 $217 $123 $124 $205 reversed $75 $-1 #
coedge $-1 $211 $302 $123 $203 reversed $121 $-1 #
edge $-1 $218 -14.305531303934314 $304 14.305531303934314 $202 $305 forward 7 unknown #
coedge $-1 $125 $124 $302 $306 forward $49 $-1 #
edge $-1 $209 -70.646687215796376 $304 70.646687215796376 $201 $307 forward 7 unknown #
coedge $-1 $214 $213 $125 $207 reversed $198 $-1 #
edge $-1 $308 -70.646687215796376 $208 70.646687215796376 $206 $309 forward 7 unknown #
vertex $-1 $127 $310 #
vertex $-1 $220 $311 #
straight-curve $-1 70.646687215796376 0 -14.305531303934314 0 -1 0 I I #
coedge $-1 $200 $202 $128 $212 reversed $121 $-1 #
edge $-1 $215 -28.889314127342157 $218 28.889314127342157 $211 $312 forward 7 unknown #
coedge $-1 $206 $129 $134 $221 forward $198 $-1 #
coedge $-1 $129 $206 $200 $303 reversed $198 $-1 #
vertex $-1 $130 $313 #
straight-curve $-1 0 28.889314127342157 14.305531303934314 -1 0 0 I I #
coedge $-1 $131 $201 $133 $220 reversed $75 $-1 #
vertex $-1 $212 $314 #
straight-curve $-1 0 -28.889314127342157 14.305531303934314 1 0 0 I I #
edge $-1 $136 -14.305531303934314 $209 14.305531303934314 $133 $315 forward 7 unknown #
edge $-1 $137 -14.305531303934314 $208 14.305531303934314 $134 $316 forward 7 unknown #
point $-1 70.646687215796376 -28.889314127342157 14.305531303934314 #
point $-1 70.646687215796376 28.889314127342157 14.305531303934314 #
face $-1 $-1 $154 $19 $-1 $317 reversed single #
loop $-1 $-1 $233 $139 #
plane-surface $-1 0 0 14.305531303934314 0 0 1 1 0 0 forward_v I I I I #
coedge $-1 $239 $238 $143 $232 forward $140 $-1 #
coedge $-1 $145 $142 $239 $318 reversed $83 $-1 #
coedge $-1 $142 $145 $242 $319 reversed $83 $-1 #
edge $-1 $244 -14.305531303934314 $240 14.305531303934314 $142 $320 forward 7 unknown #
coedge $-1 $144 $143 $246 $321 reversed $53 $-1 #
edge $-1 $322 -39.374447677541227 $236 -23.170031398969073 $227 $323 forward 7 unknown #
coedge $-1 $243 $242 $144 $234 forward $225 $-1 #
edge $-1 $235 23.170031398969073 $324 39.374447677541227 $233 $325 forward 7 unknown #
vertex $-1 $234 $326 #
vertex $-1 $232 $327 #
straight-curve $-1 -54.442270937224222 -0.27825151947352822 0 0 0 -1 I I #
coedge $-1 $227 $148 $153 $248 forward $140 $-1 #
coedge $-1 $148 $227 $228 $318 forward $140 $-1 #
vertex $-1 $149 $328 #
straight-curve $-1 -31.27223953825515 -5.2012542993869815 -14.305531303934314 -1 0 0 I I #
coedge $-1 $233 $150 $229 $319 forward $225 $-1 #
coedge $-1 $150 $233 $152 $247 forward $225 $-1 #
vertex $-1 $151 $329 #
straight-curve $-1 -31.27223953825515 -5.2012542993869815 14.305531303934314 1 0 0 I I #
coedge $-1 $153 $152 $231 $321 forward $154 $-1 #
edge $-1 $324 0.27825151947352822 $156 5.2012542993869815 $152 $330 forward 7 unknown #
edge $-1 $155 -5.2012542993869815 $322 -0.27825151947352822 $153 $331 forward 7 unknown #
point $-1 -70.646687215796376 -5.2012542993869815 -14.305531303934314 #
point $-1 -70.646687215796376 -5.2012542993869815 14.305531303934314 #
face $-1 $-1 $332 $20 $-1 $333 reversed single #
loop $-1 $-1 $169 $158 #
plane-surface $-1 0 0 14.305531303934314 0 0 1 1 0 0 forward_v I I I I #
coedge $-1 $164 $161 $334 $335 reversed $91 $-1 #
coedge $-1 $161 $164 $336 $337 reversed $91 $-1 #
coedge $-1 $338 $339 $161 $257 forward $332 $-1 #
edge $-1 $340 -14.305531303934314 $341 14.305531303934314 $256 $342 forward 7 unknown #
coedge $-1 $334 $167 $162 $259 forward $159 $-1 #
edge $-1 $172 -3.831377844671854 $263 1.0916249352415992 $258 $343 forward 7 unknown #
coedge $-1 $169 $336 $163 $261 forward $252 $-1 #
edge $-1 $262 -1.0916249352415992 $171 3.831377844671854 $260 $344 forward 7 unknown #
vertex $-1 $261 $345 #
vertex $-1 $259 $346 #
straight-curve $-1 54.442270937224208 -0.27825151947352822 0 0 0 -1 I I #
coedge $-1 $339 $338 $166 $266 forward $332 $-1 #
edge $-1 $271 -14.305531303934314 $268 14.305531303934314 $265 $347 forward 7 unknown #
coedge $-1 $167 $334 $339 $348 forward $159 $-1 #
vertex $-1 $266 $349 #
straight-curve $-1 31.272239538255143 -5.2012542993869815 -14.305531303934314 -1 0 0 I I #
coedge $-1 $336 $169 $338 $350 forward $252 $-1 #
vertex $-1 $350 $351 #
straight-curve $-1 31.272239538255143 -5.2012542993869815 14.305531303934314 1 0 0 I I #
point $-1 54.442270937224208 -5.2012542993869815 14.305531303934314 #
point $-1 54.442270937224208 -5.2012542993869815 -14.305531303934314 #
loop $-1 $-1 $182 $174 #
plane-surface $-1 0 -28.889314127342157 0 0 1 0 0 0 1 forward_v I I I I #
coedge $-1 $278 $177 $179 $282 reversed $99 $-1 #
coedge $-1 $177 $277 $352 $353 reversed $99 $-1 #
coedge $-1 $185 $180 $177 $280 forward $175 $-1 #
edge $-1 $283 -50.993102333600909 $354 -40.458131181020377 $279 $355 forward 7 unknown #
coedge $-1 $179 $178 $286 $356 reversed $61 $-1 #
edge $-1 $357 5.6870165216907905e-015 $283 16.740235138538235 $277 $358 forward 7 unknown #
vertex $-1 $181 $359 #
straight-curve $-1 4.5061310430379464 -18.354342974761625 14.305531303934314 -1 0 0 I I #
coedge $-1 $352 $182 $185 $290 reversed $275 $-1 #
coedge $-1 $182 $352 $281 $356 forward $275 $-1 #
vertex $-1 $183 $360 #
straight-curve $-1 21.205822136773079 -28.889314127342161 45.107362619897614 0 0 1 I I #
straight-curve $-1 21.205822136773079 -28.889314127342161 1.2959250336490271 0 -0.62932038083071107 -0.77714596973225614 I I #
edge $-1 $354 -3.1812979646212938 $186 21.205822136773079 $285 $361 forward 7 unknown #
point $-1 21.205822136773079 -28.889314127342157 14.305531303934314 #
point $-1 21.205822136773079 -18.354342974761629 14.305531303934313 #
edge $-1 $362 1 $362 0 $189 $-1 forward 7 unknown #
vertex $-1 $190 $363 #
ellipse-curve $-1 3.7864506357771006 -14.87070054641524 0.7142046287241447 0 -0.77714596973225614 0.62932038083071107 3 0 0 1 I I #
point $-1 6.7864506357771006 -23.621828551051884 7.8007281687916645 #
edge $-1 $364 1 $364 0 $193 $-1 forward 7 unknown #
vertex $-1 $194 $365 #
ellipse-curve $-1 14.238073536374699 -14.87070054641524 0.7142046287241447 0 -0.77714596973225614 0.62932038083071107 3 0 0 1 I I #
point $-1 17.238073536374699 -23.621828551051884 7.8007281687916645 #
plane-surface $-1 70.646687215796376 0 0 -1 0 0 0 0 1 forward_v I I I I #
coedge $-1 $202 $200 $204 $306 reversed $121 $-1 #
edge $-1 $215 -14.305531303934314 $308 14.305531303934314 $214 $366 forward 7 unknown #
vertex $-1 $306 $367 #
straight-curve $-1 -70.646687215796376 -28.889314127342157 0 0 0 -1 I I #
edge $-1 $304 -28.889314127342157 $308 28.889314127342157 $302 $368 forward 7 unknown #
straight-curve $-1 0 -28.889314127342157 -14.305531303934314 -1 0 0 I I #
vertex $-1 $207 $369 #
straight-curve $-1 0 28.889314127342157 -14.305531303934314 1 0 0 I I #
point $-1 70.646687215796376 28.889314127342157 -14.305531303934314 #
point $-1 70.646687215796376 -28.889314127342157 -14.305531303934314 #
straight-curve $-1 -70.646687215796376 0 14.305531303934314 0 -1 0 I I #
point $-1 -70.646687215796376 28.889314127342157 14.305531303934314 #
point $-1 -70.646687215796376 -28.889314127342157 14.305531303934314 #
straight-curve $-1 70.646687215796376 -28.889314127342157 0 0 0 -1 I I #
straight-curve $-1 70.646687215796376 28.889314127342157 0 0 0 -1 I I #
plane-surface $-1 -70.646687215796376 0 0 1 0 0 0 0 -1 forward_v I I I I #
edge $-1 $236 -1.0916249352415992 $240 3.831377844671854 $239 $370 forward 7 unknown #
edge $-1 $244 -3.831377844671854 $235 1.0916249352415992 $242 $371 forward 7 unknown #
straight-curve $-1 -54.442270937224222 -5.2012542993869815 0 0 0 -1 I I #
edge $-1 $324 -14.305531303934314 $322 14.305531303934314 $246 $372 forward 7 unknown #
vertex $-1 $321 $373 #
straight-curve $-1 -31.27223953825515 -0.27825151947352822 -14.305531303934314 1 0 0 I I #
vertex $-1 $247 $374 #
straight-curve $-1 -31.27223953825515 -0.27825151947352822 14.305531303934314 -1 0 0 I I #
point $-1 -54.442270937224222 -0.27825151947352822 14.305531303934314 #
point $-1 -54.442270937224222 -0.27825151947352822 -14.305531303934314 #
point $-1 -54.442270937224222 -5.2012542993869815 -14.305531303934314 #
point $-1 -54.442270937224222 -5.2012542993869815 14.305531303934314 #
straight-curve $-1 -70.646687215796376 0 14.305531303934314 0 -1 0 I I #
straight-curve $-1 -70.646687215796376 0 -14.305531303934314 0 1 0 I I #
loop $-1 $-1 $265 $251 #
plane-surface $-1 70.646687215796376 0 0 -1 0 0 0 0 1 forward_v I I I I #
coedge $-1 $267 $258 $254 $335 forward $159 $-1 #
edge $-1 $263 23.170031398969066 $340 39.37444767754122 $334 $375 forward 7 unknown #
coedge $-1 $260 $270 $255 $337 forward $252 $-1 #
edge $-1 $341 -39.37444767754122 $262 -23.170031398969066 $336 $376 forward 7 unknown #
coedge $-1 $265 $256 $270 $350 reversed $332 $-1 #
coedge $-1 $256 $265 $267 $348 reversed $332 $-1 #
vertex $-1 $348 $377 #
vertex $-1 $257 $378 #
straight-curve $-1 70.646687215796376 -0.27825151947352822 0 0 0 1 I I #
straight-curve $-1 54.442270937224208 -1.3698764547151274 -14.305531303934314 0 1 0 I I #
straight-curve $-1 54.442270937224208 -1.3698764547151274 14.305531303934314 0 -1 0 I I #
point $-1 54.442270937224208 -0.27825151947352822 14.305531303934314 #
point $-1 54.442270937224208 -0.27825151947352822 -14.305531303934314 #
straight-curve $-1 70.646687215796376 -5.2012542993869815 0 0 0 -1 I I #
edge $-1 $340 0.27825151947352822 $268 5.2012542993869815 $339 $379 forward 7 unknown #
point $-1 70.646687215796362 -5.2012542993869815 -14.305531303934314 #
edge $-1 $271 -5.2012542993869815 $341 -0.27825151947352822 $338 $380 forward 7 unknown #
point $-1 70.646687215796362 -5.2012542993869815 14.305531303934314 #
coedge $-1 $286 $285 $278 $353 forward $275 $-1 #
edge $-1 $354 30.801831315963298 $357 43.81143758624858 $352 $381 forward 7 unknown #
vertex $-1 $290 $382 #
straight-curve $-1 -3.1812979646212938 -69.347445308362538 14.305531303934316 0 -1 0 I I #
edge $-1 $357 -7.6874290076592402 $287 16.699691093735133 $286 $383 forward 7 unknown #
vertex $-1 $356 $384 #
straight-curve $-1 -3.1812979646212938 -28.889314127342161 1.2959250336490271 0 0.62932038083071107 0.77714596973225614 I I #
point $-1 -3.1812979646212938 -18.354342974761629 14.305531303934313 #
point $-1 21.205822136773079 -28.889314127342157 1.2959250336490316 #
straight-curve $-1 0 -28.889314127342157 14.305531303934314 1 0 0 I I #
vertex $-1 $293 $385 #
point $-1 6.7864506357771006 -14.87070054641524 0.7142046287241447 #
vertex $-1 $297 $386 #
point $-1 17.238073536374699 -14.87070054641524 0.7142046287241447 #
straight-curve $-1 -70.646687215796376 28.889314127342157 0 0 0 -1 I I #
point $-1 -70.646687215796376 -28.889314127342157 -14.305531303934314 #
straight-curve $-1 -70.646687215796376 0 -14.305531303934314 0 1 0 I I #
point $-1 -70.646687215796376 28.889314127342157 -14.305531303934314 #
straight-curve $-1 -54.442270937224222 -1.3698764547151274 -14.305531303934314 0 -1 0 I I #
straight-curve $-1 -54.442270937224222 -1.3698764547151274 14.305531303934314 0 1 0 I I #
straight-curve $-1 -70.646687215796376 -0.27825151947352822 0 0 0 -1 I I #
point $-1 -70.646687215796376 -0.27825151947352822 -14.305531303934314 #
point $-1 -70.646687215796376 -0.27825151947352822 14.305531303934314 #
straight-curve $-1 31.272239538255143 -0.27825151947352822 -14.305531303934314 1 0 0 I I #
straight-curve $-1 31.272239538255143 -0.27825151947352822 14.305531303934314 -1 0 0 I I #
point $-1 70.646687215796362 -0.27825151947352822 -14.305531303934314 #
point $-1 70.646687215796362 -0.27825151947352822 14.305531303934314 #
straight-curve $-1 70.646687215796376 0 -14.305531303934314 0 -1 0 I I #
straight-curve $-1 70.646687215796376 0 14.305531303934314 0 1 0 I I #
straight-curve $-1 -3.1812979646212938 -28.889314127342161 45.107362619897614 0 0 -1 I I #
point $-1 -3.1812979646212938 -28.889314127342157 14.305531303934314 #
straight-curve $-1 4.5061310430379464 -28.889314127342157 1.2959250336490338 1 0 0 I I #
point $-1 -3.1812979646212938 -28.889314127342157 1.2959250336490316 #
point $-1 3.7864506357771006 -12.539262637218471 -1.1737565137679886 #
point $-1 14.238073536374699 -12.539262637218471 -1.1737565137679886 #
End-of-ACIS-data 