500 0 10 0           
7 Unknown 11 ACIS 5.0 NT 24 Fri Mar 26 14:44:23 1999 
-1 9.9999999999999995e-007 1e-010 
body $-1 $10 $-1 $11 #
body $-1 $12 $-1 $13 #
body $-1 $14 $-1 $15 #
body $-1 $16 $-1 $17 #
body $-1 $18 $-1 $19 #
body $-1 $20 $-1 $21 #
body $-1 $22 $-1 $23 #
body $-1 $24 $-1 $25 #
body $-1 $26 $-1 $27 #
body $-1 $28 $-1 $29 #
lump $-1 $-1 $30 $0 #
transform $-1 1 0 0 0 1 0 0 0 1 54.436475722525714 28.223834917900472 11.090389992032208 1 rotate no_reflect no_shear #
lump $-1 $-1 $31 $1 #
transform $-1 1 0 0 0 1 0 0 0 1 54.436475722525714 28.223834917900472 11.090389992032208 1 rotate no_reflect no_shear #
lump $-1 $-1 $32 $2 #
transform $-1 1 0 0 0 1 0 0 0 1 54.436475722525714 28.223834917900472 11.090389992032208 1 rotate no_reflect no_shear #
lump $-1 $-1 $33 $3 #
transform $-1 1 0 0 0 1 0 0 0 1 54.436475722525714 28.223834917900472 11.090389992032208 1 rotate no_reflect no_shear #
lump $-1 $-1 $34 $4 #
transform $-1 1 0 0 0 1 0 0 0 1 54.436475722525714 28.223834917900472 11.090389992032208 1 rotate no_reflect no_shear #
lump $-1 $-1 $35 $5 #
transform $-1 1 0 0 0 1 0 0 0 1 54.436475722525714 28.223834917900472 11.090389992032208 1 rotate no_reflect no_shear #
lump $-1 $-1 $36 $6 #
transform $-1 1 0 0 0 1 0 0 0 1 54.436475722525714 28.223834917900472 11.090389992032208 1 rotate no_reflect no_shear #
lump $-1 $-1 $37 $7 #
transform $-1 1 0 0 0 1 0 0 0 1 54.436475722525714 28.223834917900472 11.090389992032208 1 rotate no_reflect no_shear #
lump $-1 $-1 $38 $8 #
transform $-1 1 0 0 0 1 0 0 0 1 54.436475722525714 28.223834917900472 11.090389992032208 1 rotate no_reflect no_shear #
lump $-1 $-1 $39 $9 #
transform $-1 1 0 0 0 1 0 0 0 1 54.436475722525714 28.223834917900472 11.090389992032208 1 rotate no_reflect no_shear #
shell $-1 $-1 $-1 $40 $-1 $10 #
shell $-1 $-1 $-1 $41 $-1 $12 #
shell $-1 $-1 $-1 $42 $-1 $14 #
shell $-1 $-1 $-1 $43 $-1 $16 #
shell $-1 $-1 $-1 $44 $-1 $18 #
shell $-1 $-1 $-1 $45 $-1 $20 #
shell $-1 $-1 $-1 $46 $-1 $22 #
shell $-1 $-1 $-1 $47 $-1 $24 #
shell $-1 $-1 $-1 $48 $-1 $26 #
shell $-1 $-1 $-1 $49 $-1 $28 #
face $-1 $50 $51 $30 $-1 $52 forward single #
face $-1 $53 $54 $31 $-1 $55 reversed single #
face $-1 $56 $57 $32 $-1 $58 reversed single #
face $-1 $59 $60 $33 $-1 $61 forward single #
face $-1 $62 $63 $34 $-1 $64 reversed single #
face $-1 $65 $66 $35 $-1 $67 forward single #
face $-1 $68 $69 $36 $-1 $70 reversed single #
face $-1 $71 $72 $37 $-1 $73 forward single #
face $-1 $74 $75 $38 $-1 $76 reversed single #
face $-1 $77 $78 $39 $-1 $79 forward single #
face $-1 $80 $81 $30 $-1 $82 reversed single #
loop $-1 $-1 $83 $40 #
plane-surface $-1 0 0 11.090389992032208 0 0 1 1 0 0 forward_v I I I I #
face $-1 $84 $85 $31 $-1 $86 reversed single #
loop $-1 $-1 $87 $41 #
plane-surface $-1 -48.656611364130519 -22.859818722590408 0 0 -1 0 0 0 -1 forward_v I I I I #
face $-1 $88 $89 $32 $-1 $90 reversed single #
loop $-1 $-1 $91 $42 #
plane-surface $-1 -19.353974927359822 -115.17364092093781 73.425352082433335 -1 0 0 0 -0.79863551827123203 0.60181501223851219 forward_v I I I I #
face $-1 $92 $93 $33 $-1 $94 forward single #
loop $-1 $95 $96 $43 #
cone-surface $-1 -26.165484738706699 -26.242582488353236 8.9088946469747441 0 0.79863551827123203 -0.60181501223851219 0.5 0 0 1 I I 0 1 0.5 forward I I I I #
face $-1 $97 $98 $34 $-1 $99 reversed single #
loop $-1 $-1 $100 $44 #
plane-surface $-1 44.536723266843978 -115.17364092093781 73.425352082433335 -1 0 0 0 -0.79863551827123203 0.60181501223851219 forward_v I I I I #
face $-1 $101 $102 $35 $-1 $103 forward single #
loop $-1 $104 $105 $45 #
cone-surface $-1 37.725213455497098 -26.242582488353236 8.9088946469747441 0 0.79863551827123203 -0.60181501223851219 0.5 0 0 1 I I 0 1 0.5 forward I I I I #
face $-1 $106 $107 $36 $-1 $108 reversed single #
loop $-1 $-1 $109 $46 #
plane-surface $-1 -32.976994550053575 81.202585807869767 118.50646613695162 1 0 0 0 -0.79863551827123203 -0.60181501223851219 forward_v I I I I #
face $-1 $110 $111 $37 $-1 $112 forward single #
loop $-1 $113 $114 $47 #
cone-surface $-1 -26.165484738706699 26.242582488353236 8.9088946469747547 0 -0.79863551827123203 -0.60181501223851219 0.5 0 0 1 I I 0 1 0.5 forward I I I I #
face $-1 $115 $116 $38 $-1 $117 reversed single #
loop $-1 $-1 $118 $48 #
plane-surface $-1 30.913703644150221 81.202585807869767 118.50646613695162 1 0 0 0 -0.79863551827123203 -0.60181501223851219 forward_v I I I I #
face $-1 $119 $120 $39 $-1 $121 forward single #
loop $-1 $122 $123 $49 #
cone-surface $-1 37.725213455497098 26.242582488353236 8.9088946469747547 0 -0.79863551827123203 -0.60181501223851219 0.5 0 0 1 I I 0 1 0.5 forward I I I I #
face $-1 $124 $125 $30 $-1 $126 reversed single #
loop $-1 $-1 $127 $50 #
plane-surface $-1 0 0 -11.090389992032208 0 0 1 1 0 0 forward_v I I I I #
coedge $-1 $128 $129 $130 $131 forward $51 $-1 #
face $-1 $132 $133 $31 $-1 $134 forward single #
loop $-1 $-1 $135 $53 #
plane-surface $-1 -42.876747005735325 -25.54182682024544 0 -1 0 0 0 0 1 forward_v I I I I #
coedge $-1 $136 $137 $138 $139 forward $54 $-1 #
face $-1 $140 $141 $32 $-1 $142 reversed single #
loop $-1 $-1 $143 $56 #
plane-surface $-1 -26.165484738706699 -28.22383491790049 7.9039754760867709 0 -0.79863551827123203 0.60181501223851219 1 0 0 forward_v I I I I #
coedge $-1 $144 $145 $146 $147 reversed $57 $-1 #
face $-1 $-1 $148 $33 $-1 $149 forward single #
loop $-1 $150 $151 $59 #
cone-surface $-1 -26.165484738706699 -25.262238927002333 8.1701528068303766 0 0.79863551827123203 -0.60181501223851219 0.25 0 0 1 I I -0.70710678118654746 0.70710678118654746 0.25 forward I I I I #
loop $-1 $-1 $152 $43 #
coedge $-1 $96 $96 $153 $154 reversed $60 $-1 #
face $-1 $155 $156 $34 $-1 $157 reversed single #
loop $-1 $-1 $158 $62 #
plane-surface $-1 37.725213455497098 -28.22383491790049 7.9039754760867709 0 -0.79863551827123203 0.60181501223851219 1 0 0 forward_v I I I I #
coedge $-1 $159 $160 $161 $162 reversed $63 $-1 #
face $-1 $-1 $163 $35 $-1 $164 forward single #
loop $-1 $165 $166 $65 #
cone-surface $-1 37.725213455497098 -25.262238927002333 8.1701528068303766 0 0.79863551827123203 -0.60181501223851219 0.25 0 0 1 I I -0.70710678118654746 0.70710678118654746 0.25 forward I I I I #
loop $-1 $-1 $167 $45 #
coedge $-1 $105 $105 $168 $169 reversed $66 $-1 #
face $-1 $170 $171 $36 $-1 $172 reversed single #
loop $-1 $-1 $173 $68 #
plane-surface $-1 -26.165484738706699 -5.7472201951675572 52.985089530605052 0 0.79863551827123203 0.60181501223851219 1 0 0 forward_v I I I I #
coedge $-1 $174 $175 $176 $177 reversed $69 $-1 #
face $-1 $-1 $178 $37 $-1 $179 forward single #
loop $-1 $180 $181 $71 #
cone-surface $-1 -26.165484738706699 25.262238927002333 8.1701528068303872 0 -0.79863551827123203 -0.60181501223851219 0.25 0 0 1 I I -0.70710678118654746 0.70710678118654746 0.25 forward I I I I #
loop $-1 $-1 $182 $47 #
coedge $-1 $114 $114 $183 $184 reversed $72 $-1 #
face $-1 $185 $186 $38 $-1 $187 reversed single #
loop $-1 $-1 $188 $74 #
plane-surface $-1 37.725213455497098 -5.7472201951675572 52.985089530605052 0 0.79863551827123203 0.60181501223851219 1 0 0 forward_v I I I I #
coedge $-1 $189 $190 $191 $192 reversed $75 $-1 #
face $-1 $-1 $193 $39 $-1 $194 forward single #
loop $-1 $195 $196 $77 #
cone-surface $-1 37.725213455497098 25.262238927002333 8.1701528068303872 0 -0.79863551827123203 -0.60181501223851219 0.25 0 0 1 I I -0.70710678118654746 0.70710678118654746 0.25 forward I I I I #
loop $-1 $-1 $197 $49 #
coedge $-1 $123 $123 $198 $199 reversed $78 $-1 #
face $-1 $200 $201 $30 $-1 $202 reversed single #
loop $-1 $-1 $203 $80 #
plane-surface $-1 0 -28.223834917900472 0 0 1 0 0 0 1 forward_v I I I I #
coedge $-1 $204 $205 $206 $207 forward $81 $-1 #
coedge $-1 $208 $83 $209 $210 forward $51 $-1 #
coedge $-1 $83 $208 $211 $212 forward $51 $-1 #
coedge $-1 $213 $214 $83 $131 reversed $215 $-1 #
edge $-1 $216 -28.223834917900472 $217 28.223834917900472 $130 $218 forward 7 unknown #
face $-1 $219 $220 $31 $-1 $221 reversed single #
loop $-1 $-1 $222 $84 #
plane-surface $-1 0 0 11.090389992032208 0 0 1 1 0 0 forward_v I I I I #
coedge $-1 $223 $224 $225 $226 reversed $85 $-1 #
coedge $-1 $227 $87 $228 $229 reversed $54 $-1 #
coedge $-1 $87 $227 $230 $231 reversed $54 $-1 #
coedge $-1 $224 $223 $87 $139 reversed $85 $-1 #
edge $-1 $232 -11.090389992032208 $233 11.090389992032208 $138 $234 forward 7 unknown #
face $-1 $235 $236 $32 $-1 $237 forward single #
loop $-1 $-1 $238 $88 #
plane-surface $-1 -32.976994550053575 -115.17364092093781 73.425352082433335 1 0 0 0 0.79863551827123203 -0.60181501223851219 forward_v I I I I #
coedge $-1 $239 $240 $241 $242 reversed $89 $-1 #
coedge $-1 $145 $91 $243 $244 reversed $57 $-1 #
coedge $-1 $91 $144 $239 $245 reversed $57 $-1 #
coedge $-1 $241 $246 $91 $147 forward $236 $-1 #
edge $-1 $247 29.362985542568435 $248 31.764121038096693 $146 $249 forward 7 unknown #
loop $-1 $-1 $153 $92 #
plane-surface $-1 -26.165484738706699 -28.22383491790049 7.9039754760867709 0 -0.79863551827123203 0.60181501223851219 1 0 0 forward_v I I I I #
loop $-1 $-1 $250 $59 #
coedge $-1 $151 $151 $152 $251 reversed $93 $-1 #
coedge $-1 $152 $152 $151 $251 forward $95 $-1 #
coedge $-1 $153 $153 $96 $154 forward $148 $-1 #
edge $-1 $252 8.0671427869223957e-017 $252 6.2831853071796004 $153 $253 forward 7 unknown #
face $-1 $254 $255 $34 $-1 $256 reversed single #
loop $-1 $-1 $257 $97 #
plane-surface $-1 30.913703644150221 -115.17364092093781 73.425352082433335 1 0 0 0 0.79863551827123203 -0.60181501223851219 forward_v I I I I #
coedge $-1 $258 $259 $260 $261 reversed $98 $-1 #
coedge $-1 $160 $100 $262 $263 reversed $63 $-1 #
coedge $-1 $100 $159 $258 $264 reversed $63 $-1 #
coedge $-1 $260 $265 $100 $162 forward $266 $-1 #
edge $-1 $267 29.362985542568435 $268 31.764121038096693 $161 $269 forward 7 unknown #
loop $-1 $-1 $168 $101 #
plane-surface $-1 37.725213455497098 -28.22383491790049 7.9039754760867709 0 -0.79863551827123203 0.60181501223851219 1 0 0 forward_v I I I I #
loop $-1 $-1 $270 $65 #
coedge $-1 $166 $166 $167 $271 reversed $102 $-1 #
coedge $-1 $167 $167 $166 $271 forward $104 $-1 #
coedge $-1 $168 $168 $105 $169 forward $163 $-1 #
edge $-1 $272 8.0671427869223957e-017 $272 6.2831853071796004 $168 $273 forward 7 unknown #
face $-1 $274 $275 $36 $-1 $276 reversed single #
loop $-1 $-1 $277 $106 #
plane-surface $-1 -19.353974927359822 81.202585807869767 118.50646613695162 -1 0 0 0 0.79863551827123203 0.60181501223851219 forward_v I I I I #
coedge $-1 $278 $279 $280 $281 reversed $107 $-1 #
coedge $-1 $175 $109 $282 $283 reversed $69 $-1 #
coedge $-1 $109 $174 $278 $284 reversed $69 $-1 #
coedge $-1 $280 $285 $109 $177 forward $286 $-1 #
edge $-1 $287 12.377457986034411 $288 14.778593481562673 $176 $289 forward 7 unknown #
loop $-1 $-1 $183 $110 #
plane-surface $-1 -26.165484738706699 -5.7472201951675572 52.985089530605052 0 0.79863551827123203 0.60181501223851219 1 0 0 forward_v I I I I #
loop $-1 $-1 $290 $71 #
coedge $-1 $181 $181 $182 $291 reversed $111 $-1 #
coedge $-1 $182 $182 $181 $291 forward $113 $-1 #
coedge $-1 $183 $183 $114 $184 forward $178 $-1 #
edge $-1 $292 1.3984938081017603e-015 $292 6.2831853071796022 $183 $293 forward 7 unknown #
face $-1 $294 $295 $38 $-1 $296 forward single #
loop $-1 $-1 $297 $115 #
plane-surface $-1 44.536723266843978 81.202585807869767 118.50646613695162 -1 0 0 0 0.79863551827123203 0.60181501223851219 forward_v I I I I #
coedge $-1 $298 $299 $300 $301 reversed $116 $-1 #
coedge $-1 $190 $118 $302 $303 reversed $75 $-1 #
coedge $-1 $118 $189 $298 $304 reversed $75 $-1 #
coedge $-1 $300 $305 $118 $192 forward $295 $-1 #
edge $-1 $306 12.377457986034411 $307 14.778593481562673 $191 $308 forward 7 unknown #
loop $-1 $-1 $198 $119 #
plane-surface $-1 37.725213455497098 -5.7472201951675572 52.985089530605052 0 0.79863551827123203 0.60181501223851219 1 0 0 forward_v I I I I #
loop $-1 $-1 $309 $77 #
coedge $-1 $196 $196 $197 $310 reversed $120 $-1 #
coedge $-1 $197 $197 $196 $310 forward $122 $-1 #
coedge $-1 $198 $198 $123 $199 forward $193 $-1 #
edge $-1 $311 1.3984938081017603e-015 $311 6.2831853071796022 $198 $312 forward 7 unknown #
face $-1 $313 $314 $30 $-1 $315 reversed single #
loop $-1 $-1 $316 $124 #
plane-surface $-1 -54.436475722525714 0 0 1 0 0 0 0 -1 forward_v I I I I #
coedge $-1 $317 $211 $318 $319 forward $125 $-1 #
coedge $-1 $320 $127 $317 $321 forward $81 $-1 #
coedge $-1 $127 $320 $322 $323 forward $81 $-1 #
coedge $-1 $214 $213 $127 $207 reversed $215 $-1 #
edge $-1 $324 -28.223834917900472 $325 28.223834917900472 $206 $326 forward 7 unknown #
coedge $-1 $129 $128 $327 $328 forward $51 $-1 #
coedge $-1 $329 $330 $128 $210 reversed $314 $-1 #
edge $-1 $217 -54.436475722525714 $331 54.436475722525714 $209 $332 forward 7 unknown #
coedge $-1 $203 $333 $129 $212 reversed $125 $-1 #
edge $-1 $334 -54.436475722525714 $216 54.436475722525714 $211 $335 forward 7 unknown #
coedge $-1 $206 $130 $333 $336 forward $215 $-1 #
coedge $-1 $130 $206 $329 $337 reversed $215 $-1 #
loop $-1 $-1 $213 $313 #
vertex $-1 $131 $338 #
vertex $-1 $131 $339 #
straight-curve $-1 54.436475722525714 0 11.090389992032208 0 1 0 I I #
face $-1 $340 $341 $31 $-1 $342 reversed single #
loop $-1 $-1 $343 $132 #
plane-surface $-1 -54.436475722525714 0 0 1 0 0 0 0 -1 forward_v I I I I #
coedge $-1 $230 $344 $224 $345 forward $133 $-1 #
coedge $-1 $138 $135 $346 $347 reversed $85 $-1 #
coedge $-1 $135 $138 $222 $345 reversed $85 $-1 #
coedge $-1 $348 $349 $135 $226 forward $350 $-1 #
edge $-1 $351 -11.090389992032208 $352 11.090389992032208 $225 $353 forward 7 unknown #
coedge $-1 $137 $136 $343 $354 reversed $54 $-1 #
coedge $-1 $346 $355 $136 $229 forward $341 $-1 #
edge $-1 $356 -30.108170040460454 $233 -18.548441323670065 $228 $357 forward 7 unknown #
coedge $-1 $358 $222 $137 $231 forward $133 $-1 #
edge $-1 $232 18.548441323670065 $359 30.108170040460454 $230 $360 forward 7 unknown #
vertex $-1 $231 $361 #
vertex $-1 $229 $362 #
straight-curve $-1 -42.876747005735325 -22.859818722590408 0 0 0 -1 I I #
face $-1 $-1 $363 $32 $-1 $364 reversed single #
loop $-1 $-1 $146 $140 #
plane-surface $-1 0 0 11.090389992032208 0 0 1 1 0 0 forward_v I I I I #
coedge $-1 $365 $366 $367 $368 reversed $141 $-1 #
coedge $-1 $369 $143 $145 $245 forward $89 $-1 #
coedge $-1 $143 $369 $365 $370 forward $89 $-1 #
coedge $-1 $367 $146 $143 $242 forward $236 $-1 #
edge $-1 $248 6.2712325580064725 $371 19.894252180700228 $241 $372 forward 7 unknown #
coedge $-1 $373 $374 $144 $244 forward $363 $-1 #
edge $-1 $375 -28.808700565129872 $247 -25.62228604918446 $243 $376 forward 7 unknown #
edge $-1 $248 -3.9898231959967365 $375 -2.9842314608868666e-014 $145 $377 forward 7 unknown #
coedge $-1 $146 $367 $373 $378 forward $236 $-1 #
vertex $-1 $244 $379 #
vertex $-1 $147 $380 #
straight-curve $-1 -19.353974927359822 -57.586820460468907 11.090389992032208 0 1 0 I I #
coedge $-1 $250 $250 $-1 $381 reversed $150 $-1 #
edge $-1 $382 0 $382 6.2831853071796004 $151 $383 forward 7 unknown #
vertex $-1 $154 $384 #
ellipse-curve $-1 -26.165484738706699 -27.023267170136346 9.4971827340594963 0 -0.79863551827123203 0.60181501223851219 0.5 0 0 1 I I #
face $-1 $-1 $266 $34 $-1 $385 forward single #
loop $-1 $-1 $386 $155 #
plane-surface $-1 0 -28.223834917900472 0 0 1 0 0 0 1 forward_v I I I I #
coedge $-1 $387 $388 $389 $390 reversed $156 $-1 #
coedge $-1 $391 $158 $160 $264 forward $98 $-1 #
coedge $-1 $158 $391 $387 $392 forward $98 $-1 #
coedge $-1 $389 $161 $158 $261 forward $266 $-1 #
edge $-1 $268 -25.674116539095429 $393 -12.051096916401672 $260 $394 forward 7 unknown #
coedge $-1 $395 $396 $159 $263 forward $255 $-1 #
edge $-1 $397 -28.808700565129872 $267 -25.62228604918446 $262 $398 forward 7 unknown #
edge $-1 $268 -3.9898231959967365 $397 -2.9842314608868666e-014 $160 $399 forward 7 unknown #
coedge $-1 $161 $389 $395 $400 forward $266 $-1 #
loop $-1 $-1 $389 $254 #
vertex $-1 $263 $401 #
vertex $-1 $162 $402 #
straight-curve $-1 44.536723266843978 -57.586820460468907 11.090389992032208 0 1 0 I I #
coedge $-1 $270 $270 $-1 $403 reversed $165 $-1 #
edge $-1 $404 0 $404 6.2831853071796004 $166 $405 forward 7 unknown #
vertex $-1 $169 $406 #
ellipse-curve $-1 37.725213455497098 -27.023267170136346 9.4971827340594963 0 -0.79863551827123203 0.60181501223851219 0.5 0 0 1 I I #
face $-1 $-1 $286 $36 $-1 $407 forward single #
loop $-1 $-1 $408 $170 #
plane-surface $-1 0 28.223834917900472 0 0 -1 0 0 0 -1 forward_v I I I I #
coedge $-1 $409 $410 $411 $412 reversed $171 $-1 #
coedge $-1 $413 $173 $175 $284 forward $107 $-1 #
coedge $-1 $173 $413 $409 $414 forward $107 $-1 #
coedge $-1 $411 $176 $173 $281 forward $286 $-1 #
edge $-1 $288 -19.894252180700228 $415 -6.2712325580064725 $280 $416 forward 7 unknown #
coedge $-1 $417 $418 $174 $283 forward $275 $-1 #
edge $-1 $419 -51.349257592389023 $287 -48.1628430764436 $282 $420 forward 7 unknown #
edge $-1 $288 52.457846639804217 $419 56.44766983580093 $175 $421 forward 7 unknown #
coedge $-1 $176 $411 $417 $422 forward $286 $-1 #
loop $-1 $-1 $411 $274 #
vertex $-1 $283 $423 #
vertex $-1 $177 $424 #
straight-curve $-1 -32.976994550053575 40.601292903934883 11.090389992032208 0 -1 0 I I #
coedge $-1 $290 $290 $-1 $425 reversed $180 $-1 #
edge $-1 $426 0 $426 6.2831853071796004 $181 $427 forward 7 unknown #
vertex $-1 $184 $428 #
ellipse-curve $-1 -26.165484738706699 27.023267170136336 9.4971827340594999 0 0.79863551827123203 0.60181501223851219 0.5 0 0 1 I I #
face $-1 $-1 $429 $38 $-1 $430 reversed single #
loop $-1 $-1 $191 $185 #
plane-surface $-1 0 0 11.090389992032208 0 0 1 1 0 0 forward_v I I I I #
coedge $-1 $431 $432 $433 $434 reversed $186 $-1 #
coedge $-1 $435 $188 $190 $304 forward $116 $-1 #
coedge $-1 $188 $435 $431 $436 forward $116 $-1 #
coedge $-1 $433 $191 $188 $301 forward $295 $-1 #
edge $-1 $307 12.051096916401672 $437 25.674116539095429 $300 $438 forward 7 unknown #
coedge $-1 $439 $440 $189 $303 forward $429 $-1 #
edge $-1 $441 -51.349257592389023 $306 -48.1628430764436 $302 $442 forward 7 unknown #
edge $-1 $307 52.457846639804217 $441 56.44766983580093 $190 $443 forward 7 unknown #
coedge $-1 $191 $433 $439 $444 forward $295 $-1 #
vertex $-1 $303 $445 #
vertex $-1 $192 $446 #
straight-curve $-1 30.913703644150221 40.601292903934883 11.090389992032208 0 -1 0 I I #
coedge $-1 $309 $309 $-1 $447 reversed $195 $-1 #
edge $-1 $448 0 $448 6.2831853071796004 $196 $449 forward 7 unknown #
vertex $-1 $199 $450 #
ellipse-curve $-1 37.725213455497098 27.023267170136336 9.4971827340594999 0 0.79863551827123203 0.60181501223851219 0.5 0 0 1 I I #
face $-1 $-1 $215 $30 $-1 $451 reversed single #
loop $-1 $-1 $329 $200 #
plane-surface $-1 0 28.223834917900472 0 0 -1 0 0 0 -1 forward_v I I I I #
coedge $-1 $452 $327 $330 $453 forward $201 $-1 #
coedge $-1 $333 $203 $204 $321 reversed $125 $-1 #
coedge $-1 $327 $452 $203 $319 reversed $201 $-1 #
edge $-1 $334 -11.090389992032208 $454 11.090389992032208 $318 $455 forward 7 unknown #
coedge $-1 $205 $204 $452 $456 forward $81 $-1 #
edge $-1 $325 -54.436475722525714 $454 54.436475722525714 $317 $457 forward 7 unknown #
coedge $-1 $330 $329 $205 $323 reversed $314 $-1 #
edge $-1 $458 -54.436475722525714 $324 54.436475722525714 $322 $459 forward 7 unknown #
vertex $-1 $207 $460 #
vertex $-1 $336 $461 #
straight-curve $-1 54.436475722525714 0 -11.090389992032208 0 -1 0 I I #
coedge $-1 $316 $318 $208 $328 reversed $201 $-1 #
edge $-1 $331 -28.223834917900472 $334 28.223834917900472 $327 $462 forward 7 unknown #
coedge $-1 $322 $209 $214 $337 forward $314 $-1 #
coedge $-1 $209 $322 $316 $453 reversed $314 $-1 #
vertex $-1 $210 $463 #
straight-curve $-1 0 28.223834917900472 11.090389992032208 -1 0 0 I I #
coedge $-1 $211 $317 $213 $336 reversed $125 $-1 #
vertex $-1 $328 $464 #
straight-curve $-1 0 -28.223834917900472 11.090389992032208 1 0 0 I I #
edge $-1 $216 -11.090389992032208 $325 11.090389992032208 $213 $465 forward 7 unknown #
edge $-1 $217 -11.090389992032208 $324 11.090389992032208 $214 $466 forward 7 unknown #
point $-1 54.436475722525714 -28.223834917900472 11.090389992032208 #
point $-1 54.436475722525714 28.223834917900472 11.090389992032208 #
face $-1 $-1 $350 $31 $-1 $467 reversed single #
loop $-1 $-1 $346 $219 #
plane-surface $-1 0 0 -11.090389992032208 0 0 1 1 0 0 forward_v I I I I #
coedge $-1 $468 $469 $227 $354 forward $220 $-1 #
coedge $-1 $222 $358 $348 $470 forward $133 $-1 #
edge $-1 $352 -15.452921507777752 $232 -10.088905312467688 $222 $471 forward 7 unknown #
coedge $-1 $472 $228 $223 $347 forward $341 $-1 #
edge $-1 $233 10.088905312467688 $351 15.452921507777752 $346 $473 forward 7 unknown #
coedge $-1 $474 $225 $344 $470 reversed $350 $-1 #
coedge $-1 $225 $474 $472 $475 reversed $350 $-1 #
loop $-1 $-1 $225 $340 #
vertex $-1 $475 $476 #
vertex $-1 $226 $477 #
straight-curve $-1 -42.876747005735325 -28.223834917900472 0 0 0 1 I I #
edge $-1 $359 -11.090389992032208 $356 11.090389992032208 $343 $478 forward 7 unknown #
coedge $-1 $228 $472 $468 $479 forward $341 $-1 #
vertex $-1 $229 $480 #
straight-curve $-1 -24.32830568206526 -22.859818722590408 -11.090389992032208 1 0 0 I I #
coedge $-1 $344 $230 $469 $481 forward $133 $-1 #
vertex $-1 $481 $482 #
straight-curve $-1 -24.32830568206526 -22.859818722590408 11.090389992032208 -1 0 0 I I #
point $-1 -42.876747005735325 -22.859818722590408 11.090389992032208 #
point $-1 -42.876747005735325 -22.859818722590408 -11.090389992032208 #
loop $-1 $-1 $243 $235 #
plane-surface $-1 0 -28.223834917900472 0 0 1 0 0 0 1 forward_v I I I I #
coedge $-1 $366 $238 $240 $370 reversed $141 $-1 #
coedge $-1 $238 $365 $483 $484 reversed $141 $-1 #
coedge $-1 $246 $241 $238 $368 forward $236 $-1 #
edge $-1 $371 -31.764121038096693 $485 -29.362985542568435 $367 $486 forward 7 unknown #
coedge $-1 $240 $239 $374 $487 reversed $89 $-1 #
edge $-1 $488 2.9842314608868666e-014 $371 3.9898231959967365 $365 $489 forward 7 unknown #
vertex $-1 $242 $490 #
straight-curve $-1 -13.082742369353349 -25.822699422372217 11.090389992032208 -1 0 0 I I #
coedge $-1 $483 $243 $246 $378 reversed $363 $-1 #
coedge $-1 $243 $483 $369 $487 forward $363 $-1 #
vertex $-1 $244 $491 #
straight-curve $-1 -19.353974927359822 -28.223834917900476 36.712676041216667 0 0 1 I I #
straight-curve $-1 -19.353974927359822 -28.22383491790049 7.9039754760867709 0 -0.60181501223851219 -0.79863551827123203 I I #
edge $-1 $485 -32.976994550053575 $247 -19.353974927359822 $373 $492 forward 7 unknown #
point $-1 -19.353974927359822 -28.223834917900472 11.090389992032208 #
point $-1 -19.353974927359822 -25.822699422372214 11.090389992032208 #
edge $-1 $493 1 $493 0 $250 $-1 forward 7 unknown #
vertex $-1 $251 $494 #
ellipse-curve $-1 -26.165484738706699 -25.461897806570139 8.3206065598900043 0 -0.79863551827123203 0.60181501223851219 0.5 0 0 1 I I #
point $-1 -25.665484738706699 -27.023267170136332 9.4971827340594857 #
plane-surface $-1 0 0 11.090389992032208 0 0 1 1 0 0 forward_v I I I I #
coedge $-1 $396 $395 $388 $495 forward $255 $-1 #
coedge $-1 $388 $257 $259 $392 reversed $156 $-1 #
coedge $-1 $257 $387 $386 $495 reversed $156 $-1 #
coedge $-1 $265 $260 $257 $390 forward $266 $-1 #
edge $-1 $393 -31.764121038096693 $496 -29.362985542568435 $389 $497 forward 7 unknown #
coedge $-1 $259 $258 $396 $498 reversed $98 $-1 #
edge $-1 $499 2.9842314608868666e-014 $393 3.9898231959967365 $387 $500 forward 7 unknown #
vertex $-1 $261 $501 #
straight-curve $-1 18.862606727748549 -25.822699422372217 11.090389992032208 -1 0 0 I I #
coedge $-1 $386 $262 $265 $400 reversed $255 $-1 #
coedge $-1 $262 $386 $391 $498 forward $255 $-1 #
vertex $-1 $263 $502 #
straight-curve $-1 44.536723266843978 -28.223834917900476 36.712676041216667 0 0 1 I I #
straight-curve $-1 44.536723266843978 -28.22383491790049 7.9039754760867709 0 -0.60181501223851219 -0.79863551827123203 I I #
edge $-1 $496 30.913703644150221 $267 44.536723266843978 $395 $503 forward 7 unknown #
point $-1 44.536723266843978 -28.223834917900472 11.090389992032208 #
point $-1 44.536723266843978 -25.822699422372214 11.090389992032208 #
edge $-1 $504 1 $504 0 $270 $-1 forward 7 unknown #
vertex $-1 $271 $505 #
ellipse-curve $-1 37.725213455497098 -25.461897806570139 8.3206065598900043 0 -0.79863551827123203 0.60181501223851219 0.5 0 0 1 I I #
point $-1 38.225213455497098 -27.023267170136332 9.4971827340594857 #
plane-surface $-1 0 0 11.090389992032208 0 0 1 1 0 0 forward_v I I I I #
coedge $-1 $418 $417 $410 $506 forward $275 $-1 #
coedge $-1 $410 $277 $279 $414 reversed $171 $-1 #
coedge $-1 $277 $409 $408 $506 reversed $171 $-1 #
coedge $-1 $285 $280 $277 $412 forward $286 $-1 #
edge $-1 $415 -14.778593481562673 $507 -12.377457986034411 $411 $508 forward 7 unknown #
coedge $-1 $279 $278 $418 $509 reversed $107 $-1 #
edge $-1 $510 -56.44766983580093 $415 -52.457846639804217 $409 $511 forward 7 unknown #
vertex $-1 $281 $512 #
straight-curve $-1 -13.082742369353349 25.822699422372214 11.090389992032208 1 0 0 I I #
coedge $-1 $408 $282 $285 $422 reversed $275 $-1 #
coedge $-1 $282 $408 $413 $509 forward $275 $-1 #
vertex $-1 $283 $513 #
straight-curve $-1 -32.976994550053575 28.223834917900472 59.253233068475808 0 0 1 I I #
straight-curve $-1 -32.976994550053575 -5.7472201951675572 52.985089530605052 0 0.60181501223851219 -0.79863551827123203 I I #
edge $-1 $507 19.353974927359822 $287 32.976994550053575 $417 $514 forward 7 unknown #
point $-1 -32.976994550053575 28.223834917900472 11.090389992032208 #
point $-1 -32.976994550053575 25.82269942237221 11.090389992032208 #
edge $-1 $515 1 $515 0 $290 $-1 forward 7 unknown #
vertex $-1 $291 $516 #
ellipse-curve $-1 -26.165484738706699 25.461897806570139 8.320606559890015 0 0.79863551827123203 0.60181501223851219 0.5 0 0 1 I I #
point $-1 -25.665484738706699 27.023267170136332 9.4971827340594963 #
loop $-1 $-1 $302 $294 #
plane-surface $-1 0 28.223834917900472 0 0 -1 0 0 0 -1 forward_v I I I I #
coedge $-1 $432 $297 $299 $436 reversed $186 $-1 #
coedge $-1 $297 $431 $517 $518 reversed $186 $-1 #
coedge $-1 $305 $300 $297 $434 forward $295 $-1 #
edge $-1 $437 -14.778593481562673 $519 -12.377457986034411 $433 $520 forward 7 unknown #
coedge $-1 $299 $298 $440 $521 reversed $116 $-1 #
edge $-1 $522 -56.44766983580093 $437 -52.457846639804217 $431 $523 forward 7 unknown #
vertex $-1 $301 $524 #
straight-curve $-1 18.862606727748549 25.822699422372214 11.090389992032208 1 0 0 I I #
coedge $-1 $517 $302 $305 $444 reversed $429 $-1 #
coedge $-1 $302 $517 $435 $521 forward $429 $-1 #
vertex $-1 $303 $525 #
straight-curve $-1 30.913703644150221 28.223834917900472 59.253233068475808 0 0 1 I I #
straight-curve $-1 30.913703644150221 -5.7472201951675572 52.985089530605052 0 0.60181501223851219 -0.79863551827123203 I I #
edge $-1 $519 -44.536723266843978 $306 -30.913703644150221 $439 $526 forward 7 unknown #
point $-1 30.913703644150221 28.223834917900472 11.090389992032208 #
point $-1 30.913703644150221 25.82269942237221 11.090389992032208 #
edge $-1 $527 1 $527 0 $309 $-1 forward 7 unknown #
vertex $-1 $310 $528 #
ellipse-curve $-1 37.725213455497098 25.461897806570139 8.320606559890015 0 0.79863551827123203 0.60181501223851219 0.5 0 0 1 I I #
point $-1 38.225213455497098 27.023267170136332 9.4971827340594963 #
plane-surface $-1 54.436475722525714 0 0 -1 0 0 0 0 1 forward_v I I I I #
coedge $-1 $318 $316 $320 $456 reversed $201 $-1 #
edge $-1 $331 -11.090389992032208 $458 11.090389992032208 $330 $529 forward 7 unknown #
vertex $-1 $456 $530 #
straight-curve $-1 -54.436475722525714 -28.223834917900472 0 0 0 -1 I I #
edge $-1 $454 -28.223834917900472 $458 28.223834917900472 $452 $531 forward 7 unknown #
straight-curve $-1 0 -28.223834917900472 -11.090389992032208 -1 0 0 I I #
vertex $-1 $323 $532 #
straight-curve $-1 0 28.223834917900472 -11.090389992032208 1 0 0 I I #
point $-1 54.436475722525714 28.223834917900472 -11.090389992032208 #
point $-1 54.436475722525714 -28.223834917900472 -11.090389992032208 #
straight-curve $-1 -54.436475722525714 0 11.090389992032208 0 -1 0 I I #
point $-1 -54.436475722525714 28.223834917900472 11.090389992032208 #
point $-1 -54.436475722525714 -28.223834917900472 11.090389992032208 #
straight-curve $-1 54.436475722525714 -28.223834917900472 0 0 0 -1 I I #
straight-curve $-1 54.436475722525714 28.223834917900472 0 0 0 -1 I I #
plane-surface $-1 0 -28.223834917900472 0 0 1 0 0 0 1 forward_v I I I I #
coedge $-1 $533 $343 $355 $479 reversed $220 $-1 #
coedge $-1 $343 $533 $358 $481 reversed $220 $-1 #
edge $-1 $534 -54.436475722525714 $352 -42.876747005735325 $348 $535 forward 7 unknown #
straight-curve $-1 -42.876747005735325 -12.77091341012272 11.090389992032208 0 1 0 I I #
coedge $-1 $355 $346 $349 $475 forward $341 $-1 #
straight-curve $-1 -42.876747005735325 -12.77091341012272 -11.090389992032208 0 -1 0 I I #
coedge $-1 $349 $348 $533 $536 forward $350 $-1 #
edge $-1 $351 42.876747005735325 $537 54.436475722525714 $349 $538 forward 7 unknown #
point $-1 -42.876747005735325 -28.223834917900472 -11.090389992032208 #
point $-1 -42.876747005735325 -28.223834917900472 11.090389992032208 #
straight-curve $-1 -54.436475722525714 -22.859818722590408 0 0 0 -1 I I #
edge $-1 $537 -28.223834917900472 $356 -22.859818722590408 $468 $539 forward 7 unknown #
point $-1 -54.436475722525714 -22.859818722590408 -11.090389992032208 #
edge $-1 $359 22.859818722590408 $534 28.223834917900472 $469 $540 forward 7 unknown #
point $-1 -54.436475722525714 -22.859818722590408 11.090389992032208 #
coedge $-1 $374 $373 $366 $484 forward $363 $-1 #
edge $-1 $485 25.62228604918446 $488 28.808700565129872 $483 $541 forward 7 unknown #
vertex $-1 $378 $542 #
straight-curve $-1 -32.976994550053575 -57.586820460468907 11.090389992032208 0 -1 0 I I #
edge $-1 $488 -19.894252180700228 $375 -6.2712325580064725 $374 $543 forward 7 unknown #
vertex $-1 $487 $544 #
straight-curve $-1 -32.976994550053575 -28.22383491790049 7.9039754760867709 0 0.60181501223851219 0.79863551827123203 I I #
point $-1 -32.976994550053575 -25.822699422372214 11.090389992032208 #
point $-1 -19.353974927359822 -28.223834917900472 7.9039754760867948 #
straight-curve $-1 0 -28.223834917900472 11.090389992032208 1 0 0 I I #
vertex $-1 $381 $545 #
point $-1 -25.665484738706699 -25.461897806570139 8.3206065598900043 #
edge $-1 $496 25.62228604918446 $499 28.808700565129872 $386 $546 forward 7 unknown #
vertex $-1 $400 $547 #
straight-curve $-1 30.913703644150221 -57.586820460468907 11.090389992032208 0 -1 0 I I #
edge $-1 $499 12.051096916401672 $397 25.674116539095429 $396 $548 forward 7 unknown #
vertex $-1 $498 $549 #
straight-curve $-1 30.913703644150221 -28.22383491790049 7.9039754760867709 0 0.60181501223851219 0.79863551827123203 I I #
point $-1 30.913703644150221 -25.822699422372214 11.090389992032208 #
point $-1 44.536723266843978 -28.223834917900472 7.9039754760867948 #
straight-curve $-1 0 -28.223834917900472 11.090389992032208 1 0 0 I I #
vertex $-1 $403 $550 #
point $-1 38.225213455497098 -25.461897806570139 8.3206065598900043 #
edge $-1 $507 48.1628430764436 $510 51.349257592389023 $408 $551 forward 7 unknown #
vertex $-1 $422 $552 #
straight-curve $-1 -19.353974927359822 40.601292903934883 11.090389992032208 0 1 0 I I #
edge $-1 $510 6.2712325580064725 $419 19.894252180700228 $418 $553 forward 7 unknown #
vertex $-1 $509 $554 #
straight-curve $-1 -19.353974927359822 -5.7472201951675572 52.985089530605052 0 -0.60181501223851219 0.79863551827123203 I I #
point $-1 -19.353974927359822 25.82269942237221 11.090389992032208 #
point $-1 -32.976994550053575 28.223834917900476 7.9039754760867851 #
straight-curve $-1 0 28.223834917900472 11.090389992032208 -1 0 0 I I #
vertex $-1 $425 $555 #
point $-1 -25.665484738706699 25.461897806570139 8.320606559890015 #
coedge $-1 $440 $439 $432 $518 forward $429 $-1 #
edge $-1 $519 48.1628430764436 $522 51.349257592389023 $517 $556 forward 7 unknown #
vertex $-1 $444 $557 #
straight-curve $-1 44.536723266843978 40.601292903934883 11.090389992032208 0 1 0 I I #
edge $-1 $522 -25.674116539095429 $441 -12.051096916401672 $440 $558 forward 7 unknown #
vertex $-1 $521 $559 #
straight-curve $-1 44.536723266843978 -5.7472201951675572 52.985089530605052 0 -0.60181501223851219 0.79863551827123203 I I #
point $-1 44.536723266843978 25.82269942237221 11.090389992032208 #
point $-1 30.913703644150221 28.223834917900476 7.9039754760867851 #
straight-curve $-1 0 28.223834917900472 11.090389992032208 -1 0 0 I I #
vertex $-1 $447 $560 #
point $-1 38.225213455497098 25.461897806570139 8.320606559890015 #
straight-curve $-1 -54.436475722525714 28.223834917900472 0 0 0 -1 I I #
point $-1 -54.436475722525714 -28.223834917900472 -11.090389992032208 #
straight-curve $-1 -54.436475722525714 0 -11.090389992032208 0 1 0 I I #
point $-1 -54.436475722525714 28.223834917900472 -11.090389992032208 #
coedge $-1 $469 $468 $474 $536 reversed $220 $-1 #
vertex $-1 $481 $561 #
straight-curve $-1 0 -28.223834917900472 11.090389992032208 1 0 0 I I #
edge $-1 $534 -11.090389992032208 $537 11.090389992032208 $533 $562 forward 7 unknown #
vertex $-1 $479 $563 #
straight-curve $-1 0 -28.223834917900472 -11.090389992032208 -1 0 0 I I #
straight-curve $-1 -54.436475722525714 0 -11.090389992032208 0 1 0 I I #
straight-curve $-1 -54.436475722525714 0 11.090389992032208 0 -1 0 I I #
straight-curve $-1 -32.976994550053575 -28.223834917900476 36.712676041216667 0 0 -1 I I #
point $-1 -32.976994550053575 -28.223834917900472 11.090389992032208 #
straight-curve $-1 -13.082742369353349 -28.223834917900472 7.9039754760867975 1 0 0 I I #
point $-1 -32.976994550053575 -28.223834917900472 7.9039754760867948 #
point $-1 -26.165484738706699 -25.062580047434526 8.0196990537707489 #
straight-curve $-1 30.913703644150221 -28.223834917900476 36.712676041216667 0 0 -1 I I #
point $-1 30.913703644150221 -28.223834917900472 11.090389992032208 #
straight-curve $-1 18.862606727748549 -28.223834917900472 7.9039754760867975 1 0 0 I I #
point $-1 30.913703644150221 -28.223834917900472 7.9039754760867948 #
point $-1 37.725213455497098 -25.062580047434526 8.0196990537707489 #
straight-curve $-1 -19.353974927359822 28.223834917900472 59.253233068475808 0 0 -1 I I #
point $-1 -19.353974927359822 28.223834917900472 11.090389992032208 #
straight-curve $-1 -13.082742369353349 28.223834917900472 7.9039754760867886 -1 0 0 I I #
point $-1 -19.353974927359822 28.223834917900476 7.9039754760867851 #
point $-1 -26.165484738706699 25.062580047434526 8.0196990537707595 #
straight-curve $-1 44.536723266843978 28.223834917900472 59.253233068475808 0 0 -1 I I #
point $-1 44.536723266843978 28.223834917900472 11.090389992032208 #
straight-curve $-1 18.862606727748549 28.223834917900472 7.9039754760867886 -1 0 0 I I #
point $-1 44.536723266843978 28.223834917900476 7.9039754760867851 #
point $-1 37.725213455497098 25.062580047434526 8.0196990537707595 #
point $-1 -54.436475722525714 -28.223834917900472 11.090389992032208 #
straight-curve $-1 -54.436475722525714 -28.223834917900472 0 0 0 -1 I I #
point $-1 -54.436475722525714 -28.223834917900472 -11.090389992032208 #
End-of-ACIS-data 