500 0 8 0           
7 Unknown 11 ACIS 5.0 NT 24 Fri Mar 26 01:22:03 1999 
-1 9.9999999999999995e-007 1e-010 
body $-1 $8 $-1 $9 #
body $-1 $10 $-1 $11 #
body $-1 $12 $-1 $13 #
body $-1 $14 $-1 $15 #
body $-1 $16 $-1 $17 #
body $-1 $18 $-1 $19 #
body $-1 $20 $-1 $21 #
body $-1 $22 $-1 $23 #
lump $-1 $-1 $24 $0 #
transform $-1 1 0 0 0 1 0 0 0 1 57.80693990905484 32.025365790675473 11.83092289069941 1 rotate no_reflect no_shear #
lump $-1 $-1 $25 $1 #
transform $-1 1 0 0 0 1 0 0 0 1 57.80693990905484 32.025365790675473 11.83092289069941 1 rotate no_reflect no_shear #
lump $-1 $-1 $26 $2 #
transform $-1 1 0 0 0 1 0 0 0 1 57.80693990905484 32.025365790675473 11.83092289069941 1 rotate no_reflect no_shear #
lump $-1 $-1 $27 $3 #
transform $-1 1 0 0 0 1 0 0 0 1 57.80693990905484 32.025365790675473 11.83092289069941 1 rotate no_reflect no_shear #
lump $-1 $-1 $28 $4 #
transform $-1 1 0 0 0 1 0 0 0 1 57.80693990905484 32.025365790675473 11.83092289069941 1 rotate no_reflect no_shear #
lump $-1 $-1 $29 $5 #
transform $-1 1 0 0 0 1 0 0 0 1 57.80693990905484 32.025365790675473 11.83092289069941 1 rotate no_reflect no_shear #
lump $-1 $-1 $30 $6 #
transform $-1 1 0 0 0 1 0 0 0 1 57.80693990905484 32.025365790675473 11.83092289069941 1 rotate no_reflect no_shear #
lump $-1 $-1 $31 $7 #
transform $-1 1 0 0 0 1 0 0 0 1 57.80693990905484 32.025365790675473 11.83092289069941 1 rotate no_reflect no_shear #
shell $-1 $-1 $-1 $32 $-1 $8 #
shell $-1 $-1 $-1 $33 $-1 $10 #
shell $-1 $-1 $-1 $34 $-1 $12 #
shell $-1 $-1 $-1 $35 $-1 $14 #
shell $-1 $-1 $-1 $36 $-1 $16 #
shell $-1 $-1 $-1 $37 $-1 $18 #
shell $-1 $-1 $-1 $38 $-1 $20 #
shell $-1 $-1 $-1 $39 $-1 $22 #
face $-1 $40 $41 $24 $-1 $42 reversed single #
face $-1 $43 $44 $25 $-1 $45 forward single #
face $-1 $46 $47 $26 $-1 $48 forward single #
face $-1 $49 $50 $27 $-1 $51 reversed single #
face $-1 $52 $53 $28 $-1 $54 forward single #
face $-1 $55 $56 $29 $-1 $57 reversed single #
face $-1 $58 $59 $30 $-1 $60 forward single #
face $-1 $61 $62 $31 $-1 $63 forward single #
face $-1 $64 $65 $24 $-1 $66 forward single #
loop $-1 $-1 $67 $32 #
plane-surface $-1 57.80693990905484 0 0 -1 0 0 0 0 1 forward_v I I I I #
face $-1 $68 $69 $25 $-1 $70 reversed single #
loop $-1 $-1 $71 $33 #
plane-surface $-1 -57.80693990905484 0 0 1 0 0 0 0 -1 forward_v I I I I #
face $-1 $72 $73 $26 $-1 $74 reversed single #
loop $-1 $-1 $75 $34 #
plane-surface $-1 57.80693990905484 0 0 -1 0 0 0 0 1 forward_v I I I I #
face $-1 $76 $77 $27 $-1 $78 reversed single #
loop $-1 $-1 $79 $35 #
plane-surface $-1 -24.860140983011171 -104.7835387520764 93.593653318883241 -1 0 0 0 -0.62932039886446345 0.77714595512881146 forward_v I I I I #
face $-1 $80 $81 $28 $-1 $82 forward single #
loop $-1 $83 $84 $36 #
cone-surface $-1 -36.134884820172992 -23.924147834398042 3.9492432888040554 0 0.62932039886446345 -0.77714595512881146 3 0 0 1 I I 0 1 3 forward I I I I #
face $-1 $85 $86 $29 $-1 $87 reversed single #
loop $-1 $-1 $88 $37 #
plane-surface $-1 -41.82396186742681 59.535196143850733 133.28298736913848 1 0 0 0 -0.6560590369687036 -0.75470957328743171 forward_v I I I I #
face $-1 $89 $90 $30 $-1 $91 forward single #
loop $-1 $92 $93 $38 #
cone-surface $-1 -37.189261356644238 26.799027079109415 7.0836267935802653 0 -0.6560590369687036 -0.75470957328743171 2 0 0 1 I I 0 1 2 forward I I I I #
face $-1 $94 $95 $31 $-1 $96 forward single #
loop $-1 $97 $98 $39 #
cone-surface $-1 -30.237210590470383 26.799027079109415 7.0836267935802653 0 -0.6560590369687036 -0.75470957328743171 2 0 0 1 I I 0 1 2 forward I I I I #
face $-1 $99 $100 $24 $-1 $101 reversed single #
loop $-1 $-1 $102 $40 #
plane-surface $-1 0 0 11.83092289069941 0 0 1 1 0 0 forward_v I I I I #
coedge $-1 $103 $104 $105 $106 reversed $41 $-1 #
face $-1 $107 $108 $25 $-1 $109 forward single #
loop $-1 $-1 $110 $43 #
plane-surface $-1 0 32.025365790675473 0 0 -1 0 0 0 -1 forward_v I I I I #
coedge $-1 $111 $112 $113 $114 forward $44 $-1 #
face $-1 $115 $116 $26 $-1 $117 forward single #
loop $-1 $-1 $118 $46 #
plane-surface $-1 0 -32.025365790675473 0 0 1 0 0 0 1 forward_v I I I I #
coedge $-1 $119 $120 $121 $122 forward $47 $-1 #
face $-1 $123 $124 $27 $-1 $125 reversed single #
loop $-1 $-1 $126 $49 #
plane-surface $-1 -36.134884820172992 -32.025365790675465 3.7447942614907817 0 -0.62932039886446345 0.77714595512881146 1 0 0 forward_v I I I I #
coedge $-1 $127 $128 $129 $130 reversed $50 $-1 #
face $-1 $-1 $131 $28 $-1 $132 forward single #
loop $-1 $133 $134 $52 #
cone-surface $-1 -36.134884820172992 -19.871717802963889 -1.0550909311801995 0 0.62932039886446345 -0.77714595512881146 1.5 0 0 1 I I -0.70710678118654757 0.70710678118654757 1.5 forward I I I I #
loop $-1 $-1 $135 $36 #
coedge $-1 $84 $84 $136 $137 reversed $53 $-1 #
face $-1 $138 $139 $29 $-1 $140 reversed single #
loop $-1 $-1 $141 $55 #
plane-surface $-1 -33.71323597355731 -16.314334509833735 46.028085465508511 0 0.6560590369687036 0.75470957328743171 1 0 0 forward_v I I I I #
coedge $-1 $142 $143 $144 $145 reversed $56 $-1 #
face $-1 $-1 $146 $30 $-1 $147 forward single #
loop $-1 $148 $149 $58 #
cone-surface $-1 -37.189261356644238 25.416812179450169 5.4935704749701433 0 -0.6560590369687036 -0.75470957328743171 1 0 0 1 I I -0.70710678118654746 0.70710678118654746 1 forward I I I I #
loop $-1 $-1 $150 $38 #
coedge $-1 $93 $93 $151 $152 reversed $59 $-1 #
face $-1 $-1 $153 $31 $-1 $154 forward single #
loop $-1 $155 $156 $61 #
cone-surface $-1 -30.237210590470383 25.416812179450169 5.4935704749701433 0 -0.6560590369687036 -0.75470957328743171 1 0 0 1 I I -0.70710678118654746 0.70710678118654746 1 forward I I I I #
loop $-1 $-1 $157 $39 #
coedge $-1 $98 $98 $158 $159 reversed $62 $-1 #
face $-1 $160 $161 $24 $-1 $162 reversed single #
loop $-1 $-1 $163 $64 #
plane-surface $-1 0 0 -11.83092289069941 0 0 1 1 0 0 forward_v I I I I #
coedge $-1 $164 $165 $103 $166 forward $65 $-1 #
coedge $-1 $167 $67 $102 $166 reversed $41 $-1 #
coedge $-1 $67 $167 $163 $168 reversed $41 $-1 #
coedge $-1 $169 $170 $67 $106 forward $171 $-1 #
edge $-1 $172 -11.83092289069941 $173 11.83092289069941 $67 $174 forward 7 unknown #
face $-1 $175 $176 $25 $-1 $177 reversed single #
loop $-1 $-1 $113 $68 #
plane-surface $-1 -63.005595534914853 0 8.6697121775075559 0 0 1 1 0 0 forward_v I I I I #
coedge $-1 $178 $179 $112 $180 forward $69 $-1 #
coedge $-1 $181 $71 $182 $183 reversed $44 $-1 #
coedge $-1 $71 $181 $110 $180 reversed $44 $-1 #
coedge $-1 $184 $185 $71 $114 reversed $108 $-1 #
edge $-1 $186 -32.025365790675473 $187 32.025365790675473 $113 $188 forward 7 unknown #
face $-1 $189 $190 $26 $-1 $191 reversed single #
loop $-1 $-1 $192 $72 #
plane-surface $-1 63.005595534914853 0 8.6697121775075559 0 0 1 1 0 0 forward_v I I I I #
coedge $-1 $193 $194 $120 $195 forward $73 $-1 #
coedge $-1 $196 $75 $197 $198 reversed $47 $-1 #
coedge $-1 $75 $196 $118 $195 reversed $47 $-1 #
coedge $-1 $199 $200 $75 $122 reversed $116 $-1 #
edge $-1 $201 -32.025365790675473 $202 32.025365790675473 $121 $203 forward 7 unknown #
face $-1 $204 $205 $27 $-1 $206 forward single #
loop $-1 $-1 $207 $76 #
plane-surface $-1 -47.409628657334814 -104.7835387520764 93.593653318883241 1 0 0 0 0.62932039886446345 -0.77714595512881146 forward_v I I I I #
coedge $-1 $208 $209 $210 $211 reversed $77 $-1 #
coedge $-1 $128 $79 $212 $213 reversed $50 $-1 #
coedge $-1 $79 $127 $208 $214 reversed $50 $-1 #
coedge $-1 $210 $215 $79 $130 forward $205 $-1 #
edge $-1 $216 20.366403585362725 $217 30.35194063164267 $129 $218 forward 7 unknown #
loop $-1 $-1 $136 $80 #
plane-surface $-1 -36.134884820172992 -32.025365790675465 3.7447942614907817 0 -0.62932039886446345 0.77714595512881146 1 0 0 forward_v I I I I #
loop $-1 $-1 $219 $52 #
coedge $-1 $134 $134 $135 $220 reversed $81 $-1 #
coedge $-1 $135 $135 $134 $220 forward $83 $-1 #
coedge $-1 $136 $136 $84 $137 forward $131 $-1 #
edge $-1 $221 0 $221 6.2831853071796004 $136 $222 forward 7 unknown #
face $-1 $223 $224 $29 $-1 $225 reversed single #
loop $-1 $-1 $226 $85 #
plane-surface $-1 -25.602510079687811 59.535196143850733 133.28298736913848 -1 0 0 0 0.6560590369687036 0.75470957328743171 forward_v I I I I #
coedge $-1 $227 $228 $229 $230 reversed $86 $-1 #
coedge $-1 $143 $88 $231 $232 reversed $56 $-1 #
coedge $-1 $88 $142 $227 $233 reversed $56 $-1 #
coedge $-1 $229 $234 $88 $145 forward $235 $-1 #
edge $-1 $236 -2.257767718750106 $237 6.7425979790009585 $144 $238 forward 7 unknown #
loop $-1 $-1 $151 $89 #
plane-surface $-1 -33.71323597355731 -16.314334509833735 46.028085465508511 0 0.6560590369687036 0.75470957328743171 1 0 0 forward_v I I I I #
loop $-1 $-1 $239 $58 #
coedge $-1 $149 $149 $150 $240 reversed $90 $-1 #
coedge $-1 $150 $150 $149 $240 forward $92 $-1 #
coedge $-1 $151 $151 $93 $152 forward $146 $-1 #
edge $-1 $241 1.1825674091625279e-016 $241 6.2831853071796004 $151 $242 forward 7 unknown #
loop $-1 $-1 $158 $94 #
plane-surface $-1 -33.71323597355731 -16.314334509833735 46.028085465508511 0 0.6560590369687036 0.75470957328743171 1 0 0 forward_v I I I I #
loop $-1 $-1 $243 $61 #
coedge $-1 $156 $156 $157 $244 reversed $95 $-1 #
coedge $-1 $157 $157 $156 $244 forward $97 $-1 #
coedge $-1 $158 $158 $98 $159 forward $153 $-1 #
edge $-1 $245 1.1825674091625279e-016 $245 6.2831853071796004 $158 $246 forward 7 unknown #
face $-1 $247 $248 $24 $-1 $249 reversed single #
loop $-1 $-1 $250 $99 #
plane-surface $-1 0 -32.025365790675473 0 0 1 0 0 0 1 forward_v I I I I #
coedge $-1 $251 $252 $104 $168 forward $100 $-1 #
coedge $-1 $253 $102 $170 $254 forward $65 $-1 #
coedge $-1 $102 $253 $255 $256 forward $65 $-1 #
edge $-1 $257 -32.025365790675473 $172 32.025365790675473 $103 $258 forward 7 unknown #
coedge $-1 $104 $103 $259 $260 forward $41 $-1 #
edge $-1 $173 -32.025365790675473 $261 32.025365790675473 $104 $262 forward 7 unknown #
coedge $-1 $263 $105 $252 $264 reversed $171 $-1 #
coedge $-1 $105 $263 $164 $254 reversed $171 $-1 #
loop $-1 $-1 $105 $247 #
vertex $-1 $166 $265 #
vertex $-1 $168 $266 #
straight-curve $-1 57.80693990905484 32.025365790675473 0 0 0 -1 I I #
face $-1 $267 $268 $25 $-1 $269 reversed single #
loop $-1 $-1 $270 $107 #
plane-surface $-1 -63.005595534914853 0 1.9056464024965818 0 0 1 1 0 0 forward_v I I I I #
coedge $-1 $271 $110 $272 $273 reversed $69 $-1 #
coedge $-1 $110 $271 $184 $274 reversed $69 $-1 #
edge $-1 $186 -8.6697121775075559 $275 -1.9056464024965818 $110 $276 forward 7 unknown #
coedge $-1 $112 $111 $270 $277 forward $44 $-1 #
coedge $-1 $278 $279 $111 $183 forward $280 $-1 #
edge $-1 $281 1.9056464024965818 $187 8.6697121775075559 $182 $282 forward 7 unknown #
coedge $-1 $283 $113 $179 $274 forward $108 $-1 #
coedge $-1 $113 $283 $278 $284 forward $108 $-1 #
vertex $-1 $180 $285 #
vertex $-1 $284 $286 #
straight-curve $-1 -57.80693990905484 0 8.6697121775075559 0 -1 0 I I #
face $-1 $287 $288 $26 $-1 $289 reversed single #
loop $-1 $-1 $290 $115 #
plane-surface $-1 63.005595534914853 0 1.9056464024965818 0 0 1 1 0 0 forward_v I I I I #
coedge $-1 $200 $199 $291 $292 forward $116 $-1 #
coedge $-1 $293 $118 $294 $295 reversed $73 $-1 #
coedge $-1 $118 $293 $199 $296 reversed $73 $-1 #
edge $-1 $201 -8.6697121775075559 $297 -1.9056464024965818 $118 $298 forward 7 unknown #
coedge $-1 $120 $119 $299 $300 forward $47 $-1 #
coedge $-1 $301 $302 $119 $198 forward $303 $-1 #
edge $-1 $304 1.9056464024965818 $202 8.6697121775075559 $197 $305 forward 7 unknown #
coedge $-1 $192 $121 $194 $296 forward $116 $-1 #
coedge $-1 $121 $192 $301 $306 forward $116 $-1 #
vertex $-1 $195 $307 #
vertex $-1 $306 $308 #
straight-curve $-1 57.80693990905484 0 8.6697121775075559 0 1 0 I I #
face $-1 $-1 $309 $27 $-1 $310 reversed single #
loop $-1 $-1 $129 $123 #
plane-surface $-1 0 0 11.83092289069941 0 0 1 1 0 0 forward_v I I I I #
coedge $-1 $311 $312 $313 $314 reversed $124 $-1 #
coedge $-1 $315 $126 $128 $214 forward $77 $-1 #
coedge $-1 $126 $315 $311 $316 forward $77 $-1 #
coedge $-1 $313 $129 $126 $211 forward $205 $-1 #
edge $-1 $217 6.7926985729246745 $317 29.342186247248318 $210 $318 forward 7 unknown #
coedge $-1 $319 $320 $127 $213 forward $309 $-1 #
edge $-1 $321 -43.052032397950846 $216 -34.965903768742209 $212 $322 forward 7 unknown #
edge $-1 $217 -12.848985419508285 $321 9.1551213131864128e-015 $128 $323 forward 7 unknown #
coedge $-1 $129 $313 $319 $324 forward $205 $-1 #
vertex $-1 $213 $325 #
vertex $-1 $130 $326 #
straight-curve $-1 -24.860140983011171 -52.391769376038198 11.830922890699412 0 1 0 I I #
coedge $-1 $219 $219 $-1 $327 reversed $133 $-1 #
edge $-1 $328 0 $328 6.2831853071796004 $134 $329 forward 7 unknown #
vertex $-1 $137 $330 #
ellipse-curve $-1 -36.134884820172992 -27.0325972675355 7.7878585760950934 0 -0.62932039886446345 0.77714595512881146 3 0 0 1 I I #
face $-1 $-1 $235 $29 $-1 $331 forward single #
loop $-1 $-1 $332 $138 #
plane-surface $-1 0 32.025365790675473 0 0 -1 0 0 0 -1 forward_v I I I I #
coedge $-1 $333 $334 $335 $336 reversed $139 $-1 #
coedge $-1 $337 $141 $143 $233 forward $86 $-1 #
coedge $-1 $141 $337 $333 $338 forward $86 $-1 #
coedge $-1 $335 $144 $141 $230 forward $235 $-1 #
edge $-1 $237 -24.967343880648155 $339 -8.7458920929091555 $229 $340 forward 7 unknown #
coedge $-1 $341 $342 $142 $232 forward $224 $-1 #
edge $-1 $343 -62.634469497462767 $236 -54.810570793869829 $231 $344 forward 7 unknown #
edge $-1 $237 52.125129977350539 $343 64.050731581350959 $143 $345 forward 7 unknown #
coedge $-1 $144 $335 $341 $346 forward $235 $-1 #
loop $-1 $-1 $335 $223 #
vertex $-1 $232 $347 #
vertex $-1 $145 $348 #
straight-curve $-1 -41.82396186742681 29.767598071925367 11.830922890699412 0 -1 0 I I #
coedge $-1 $239 $239 $-1 $349 reversed $148 $-1 #
edge $-1 $350 0 $350 6.2831853071796004 $149 $351 forward 7 unknown #
vertex $-1 $152 $352 #
ellipse-curve $-1 -37.189261356644238 27.52518294179994 7.9189735389029394 0 0.6560590369687036 0.75470957328743171 2 0 0 1 I I #
coedge $-1 $243 $243 $-1 $353 reversed $155 $-1 #
edge $-1 $354 0 $354 6.2831853071796004 $156 $355 forward 7 unknown #
vertex $-1 $159 $356 #
ellipse-curve $-1 -30.237210590470383 27.52518294179994 7.9189735389029394 0 0.6560590369687036 0.75470957328743171 2 0 0 1 I I #
face $-1 $-1 $171 $24 $-1 $357 reversed single #
loop $-1 $-1 $358 $160 #
plane-surface $-1 -57.80693990905484 0 0 1 0 0 0 0 -1 forward_v I I I I #
coedge $-1 $359 $255 $358 $360 forward $161 $-1 #
coedge $-1 $361 $163 $359 $362 forward $100 $-1 #
coedge $-1 $163 $361 $169 $264 forward $100 $-1 #
coedge $-1 $165 $164 $363 $364 forward $65 $-1 #
edge $-1 $172 -57.80693990905484 $365 57.80693990905484 $170 $366 forward 7 unknown #
coedge $-1 $250 $259 $165 $256 reversed $161 $-1 #
edge $-1 $367 -57.80693990905484 $257 57.80693990905484 $255 $368 forward 7 unknown #
vertex $-1 $166 $369 #
straight-curve $-1 57.80693990905484 0 11.83092289069941 0 1 0 I I #
coedge $-1 $255 $359 $167 $260 reversed $161 $-1 #
edge $-1 $257 -11.83092289069941 $261 11.83092289069941 $167 $370 forward 7 unknown #
vertex $-1 $260 $371 #
straight-curve $-1 57.80693990905484 0 -11.83092289069941 0 -1 0 I I #
coedge $-1 $170 $169 $372 $373 reversed $171 $-1 #
edge $-1 $374 -57.80693990905484 $173 57.80693990905484 $169 $375 forward 7 unknown #
point $-1 57.80693990905484 32.025365790675473 11.83092289069941 #
point $-1 57.80693990905484 32.025365790675473 -11.83092289069941 #
face $-1 $-1 $280 $25 $-1 $376 reversed single #
loop $-1 $-1 $377 $175 #
plane-surface $-1 -68.204251160774859 0 5.2876792900020693 1 0 0 0 0 -1 forward_v I I I I #
coedge $-1 $378 $272 $181 $277 reversed $176 $-1 #
coedge $-1 $179 $178 $377 $379 reversed $69 $-1 #
coedge $-1 $270 $380 $178 $273 forward $176 $-1 #
edge $-1 $381 -5.1986556258600061 $275 5.1986556258600132 $178 $382 forward 7 unknown #
edge $-1 $186 -5.1986556258600132 $383 5.1986556258600061 $179 $384 forward 7 unknown #
vertex $-1 $180 $385 #
straight-curve $-1 -57.80693990905484 32.025365790675473 0 0 0 -1 I I #
edge $-1 $281 -32.025365790675473 $275 32.025365790675473 $270 $386 forward 7 unknown #
coedge $-1 $387 $182 $185 $284 reversed $280 $-1 #
coedge $-1 $182 $387 $378 $388 reversed $280 $-1 #
loop $-1 $-1 $182 $267 #
vertex $-1 $183 $389 #
straight-curve $-1 -57.80693990905484 -32.025365790675473 0 0 0 1 I I #
coedge $-1 $185 $184 $390 $391 forward $108 $-1 #
edge $-1 $392 -5.1986556258600061 $187 5.1986556258600132 $278 $393 forward 7 unknown #
point $-1 -57.80693990905484 32.025365790675473 8.6697121775075559 #
point $-1 -57.80693990905484 -32.025365790675473 8.6697121775075559 #
face $-1 $-1 $303 $26 $-1 $394 reversed single #
loop $-1 $-1 $395 $189 #
plane-surface $-1 68.204251160774874 0 5.2876792900020693 -1 0 0 0 0 1 forward_v I I I I #
coedge $-1 $294 $396 $397 $398 forward $190 $-1 #
coedge $-1 $395 $399 $192 $292 reversed $288 $-1 #
edge $-1 $400 -32.025365790675473 $401 32.025365790675473 $291 $402 forward 7 unknown #
coedge $-1 $194 $193 $395 $403 reversed $73 $-1 #
coedge $-1 $299 $290 $193 $295 forward $190 $-1 #
edge $-1 $404 -5.1986556258600203 $297 5.1986556258600132 $193 $405 forward 7 unknown #
edge $-1 $201 -5.1986556258600132 $400 5.1986556258600203 $194 $406 forward 7 unknown #
vertex $-1 $195 $407 #
straight-curve $-1 57.80693990905484 -32.025365790675473 0 0 0 -1 I I #
coedge $-1 $396 $294 $196 $300 reversed $190 $-1 #
edge $-1 $304 -32.025365790675473 $297 32.025365790675473 $299 $408 forward 7 unknown #
coedge $-1 $409 $197 $200 $306 reversed $303 $-1 #
coedge $-1 $197 $409 $396 $410 reversed $303 $-1 #
loop $-1 $-1 $197 $287 #
vertex $-1 $198 $411 #
straight-curve $-1 57.80693990905484 32.025365790675473 0 0 0 1 I I #
edge $-1 $401 -5.1986556258600203 $202 5.1986556258600132 $301 $412 forward 7 unknown #
point $-1 57.80693990905484 -32.025365790675473 8.6697121775075559 #
point $-1 57.80693990905484 32.025365790675473 8.6697121775075559 #
loop $-1 $-1 $212 $204 #
plane-surface $-1 0 -32.025365790675473 0 0 1 0 0 0 1 forward_v I I I I #
coedge $-1 $312 $207 $209 $316 reversed $124 $-1 #
coedge $-1 $207 $311 $413 $414 reversed $124 $-1 #
coedge $-1 $215 $210 $207 $314 forward $205 $-1 #
edge $-1 $317 -30.35194063164267 $415 -20.366403585362725 $313 $416 forward 7 unknown #
coedge $-1 $209 $208 $320 $417 reversed $77 $-1 #
edge $-1 $418 -9.1551213131864128e-015 $317 12.848985419508285 $311 $419 forward 7 unknown #
vertex $-1 $211 $420 #
straight-curve $-1 -18.067442410086496 -22.039828744395532 11.83092289069941 -1 0 0 I I #
coedge $-1 $413 $212 $215 $324 reversed $309 $-1 #
coedge $-1 $212 $413 $315 $417 forward $309 $-1 #
vertex $-1 $213 $421 #
straight-curve $-1 -24.860140983011171 -32.025365790675473 46.796826659441621 0 0 1 I I #
straight-curve $-1 -24.860140983011171 -32.025365790675465 3.7447942614907817 0 -0.77714595512881146 -0.62932039886446345 I I #
edge $-1 $415 -47.409628657334814 $216 -24.860140983011171 $319 $422 forward 7 unknown #
point $-1 -24.860140983011171 -32.025365790675473 11.83092289069941 #
point $-1 -24.860140983011171 -22.039828744395528 11.83092289069941 #
edge $-1 $423 1 $423 0 $219 $-1 forward 7 unknown #
vertex $-1 $220 $424 #
ellipse-curve $-1 -36.134884820172992 -20.815698401260583 0.11062800151301766 0 -0.62932039886446345 0.77714595512881146 3 0 0 1 I I #
point $-1 -33.134884820172992 -27.0325972675355 7.7878585760950934 #
plane-surface $-1 0 0 11.83092289069941 0 0 1 1 0 0 forward_v I I I I #
coedge $-1 $342 $341 $334 $425 forward $224 $-1 #
coedge $-1 $334 $226 $228 $338 reversed $139 $-1 #
coedge $-1 $226 $333 $332 $425 reversed $139 $-1 #
coedge $-1 $234 $229 $226 $336 forward $235 $-1 #
edge $-1 $339 -6.7425979790009585 $426 2.257767718750106 $335 $427 forward 7 unknown #
coedge $-1 $228 $227 $342 $428 reversed $86 $-1 #
edge $-1 $429 -64.050731581350959 $339 -52.125129977350539 $333 $430 forward 7 unknown #
vertex $-1 $230 $431 #
straight-curve $-1 -16.856617986778655 23.025000092924408 11.830922890699416 1 0 0 I I #
coedge $-1 $332 $231 $234 $346 reversed $224 $-1 #
coedge $-1 $231 $332 $337 $428 forward $224 $-1 #
vertex $-1 $232 $432 #
straight-curve $-1 -41.82396186742681 32.025365790675473 66.641493684569241 0 0 1 I I #
straight-curve $-1 -41.82396186742681 -16.314334509833735 46.028085465508511 0 0.75470957328743171 -0.6560590369687036 I I #
edge $-1 $426 25.602510079687811 $236 41.82396186742681 $341 $433 forward 7 unknown #
point $-1 -41.82396186742681 32.025365790675473 11.83092289069941 #
point $-1 -41.82396186742681 23.025000092924408 11.830922890699412 #
edge $-1 $434 1 $434 0 $239 $-1 forward 7 unknown #
vertex $-1 $240 $435 #
ellipse-curve $-1 -37.189261356644238 26.072871216418871 6.2482800482575751 0 0.6560590369687036 0.75470957328743171 2 0 0 1 I I #
point $-1 -35.189261356644238 27.525182941799955 7.9189735389029554 #
edge $-1 $436 1 $436 0 $243 $-1 forward 7 unknown #
vertex $-1 $244 $437 #
ellipse-curve $-1 -30.237210590470383 26.072871216418871 6.2482800482575751 0 0.6560590369687036 0.75470957328743171 2 0 0 1 I I #
point $-1 -28.237210590470383 27.525182941799955 7.9189735389029554 #
plane-surface $-1 0 32.025365790675473 0 0 -1 0 0 0 -1 forward_v I I I I #
coedge $-1 $363 $438 $250 $360 reversed $248 $-1 #
coedge $-1 $259 $250 $251 $362 reversed $161 $-1 #
edge $-1 $367 -11.83092289069941 $439 11.83092289069941 $358 $440 forward 7 unknown #
coedge $-1 $252 $251 $438 $441 forward $100 $-1 #
edge $-1 $261 -57.80693990905484 $439 57.80693990905484 $359 $442 forward 7 unknown #
coedge $-1 $372 $358 $253 $364 reversed $248 $-1 #
edge $-1 $365 -32.025365790675473 $367 32.025365790675473 $363 $443 forward 7 unknown #
vertex $-1 $254 $444 #
straight-curve $-1 0 32.025365790675473 11.83092289069941 -1 0 0 I I #
vertex $-1 $364 $445 #
straight-curve $-1 0 -32.025365790675473 11.83092289069941 1 0 0 I I #
point $-1 57.80693990905484 -32.025365790675473 11.83092289069941 #
straight-curve $-1 57.80693990905484 -32.025365790675473 0 0 0 -1 I I #
point $-1 57.80693990905484 -32.025365790675473 -11.83092289069941 #
coedge $-1 $438 $363 $263 $373 forward $248 $-1 #
edge $-1 $365 -11.83092289069941 $374 11.83092289069941 $263 $446 forward 7 unknown #
vertex $-1 $264 $447 #
straight-curve $-1 0 32.025365790675473 -11.83092289069941 1 0 0 I I #
plane-surface $-1 0 -32.025365790675473 0 0 1 0 0 0 1 forward_v I I I I #
coedge $-1 $448 $390 $271 $379 forward $268 $-1 #
coedge $-1 $380 $270 $279 $388 forward $176 $-1 #
edge $-1 $383 -3.3820328875054866 $381 3.3820328875054875 $271 $449 forward 7 unknown #
coedge $-1 $272 $378 $448 $450 forward $176 $-1 #
vertex $-1 $273 $451 #
straight-curve $-1 -63.005595534914853 32.025365790675473 1.9056464024965818 1 0 0 I I #
vertex $-1 $274 $452 #
straight-curve $-1 -63.005595534914853 32.025365790675473 8.6697121775075559 -1 0 0 I I #
point $-1 -57.80693990905484 32.025365790675473 1.9056464024965818 #
straight-curve $-1 -57.80693990905484 0 1.9056464024965818 0 1 0 I I #
coedge $-1 $279 $278 $453 $454 forward $280 $-1 #
edge $-1 $281 -5.1986556258600132 $455 5.1986556258600061 $279 $456 forward 7 unknown #
point $-1 -57.80693990905484 -32.025365790675473 1.9056464024965818 #
coedge $-1 $377 $453 $283 $391 reversed $268 $-1 #
edge $-1 $383 -32.025365790675473 $392 32.025365790675473 $390 $457 forward 7 unknown #
vertex $-1 $391 $458 #
straight-curve $-1 -63.005595534914853 -32.025365790675473 8.6697121775075559 1 0 0 I I #
plane-surface $-1 0 32.025365790675473 0 0 -1 0 0 0 -1 forward_v I I I I #
coedge $-1 $397 $291 $293 $403 forward $288 $-1 #
coedge $-1 $290 $299 $302 $410 forward $190 $-1 #
coedge $-1 $399 $395 $290 $398 reversed $288 $-1 #
edge $-1 $459 -32.025365790675473 $404 32.025365790675473 $397 $460 forward 7 unknown #
coedge $-1 $291 $397 $409 $461 reversed $288 $-1 #
vertex $-1 $292 $462 #
vertex $-1 $292 $463 #
straight-curve $-1 68.204251160774874 0 8.6697121775075559 0 1 0 I I #
edge $-1 $400 -3.3820328875054866 $404 3.3820328875054875 $395 $464 forward 7 unknown #
vertex $-1 $403 $465 #
straight-curve $-1 63.005595534914853 -32.025365790675473 1.9056464024965818 -1 0 0 I I #
straight-curve $-1 63.005595534914853 -32.025365790675473 8.6697121775075559 1 0 0 I I #
point $-1 57.80693990905484 -32.025365790675473 1.9056464024965818 #
straight-curve $-1 57.80693990905484 0 1.9056464024965818 0 -1 0 I I #
coedge $-1 $302 $301 $399 $461 forward $303 $-1 #
edge $-1 $304 -5.1986556258600132 $459 5.1986556258600203 $302 $466 forward 7 unknown #
point $-1 57.80693990905484 32.025365790675473 1.9056464024965818 #
straight-curve $-1 63.005595534914853 32.025365790675473 8.6697121775075559 -1 0 0 I I #
coedge $-1 $320 $319 $312 $414 forward $309 $-1 #
edge $-1 $415 34.965903768742209 $418 43.052032397950846 $413 $467 forward 7 unknown #
vertex $-1 $324 $468 #
straight-curve $-1 -47.409628657334814 -52.391769376038198 11.830922890699412 0 -1 0 I I #
edge $-1 $418 -29.342186247248318 $321 -6.7926985729246745 $320 $469 forward 7 unknown #
vertex $-1 $417 $470 #
straight-curve $-1 -47.409628657334814 -32.025365790675465 3.7447942614907817 0 0.77714595512881146 0.62932039886446345 I I #
point $-1 -47.409628657334814 -22.039828744395528 11.83092289069941 #
point $-1 -24.860140983011171 -32.025365790675473 3.7447942614907759 #
straight-curve $-1 0 -32.025365790675473 11.83092289069941 1 0 0 I I #
vertex $-1 $327 $471 #
point $-1 -33.134884820172992 -20.815698401260583 0.11062800151301766 #
edge $-1 $426 54.810570793869829 $429 62.634469497462767 $332 $472 forward 7 unknown #
vertex $-1 $346 $473 #
straight-curve $-1 -25.602510079687811 29.767598071925367 11.830922890699412 0 1 0 I I #
edge $-1 $429 8.7458920929091555 $343 24.967343880648155 $342 $474 forward 7 unknown #
vertex $-1 $428 $475 #
straight-curve $-1 -25.602510079687811 -16.314334509833735 46.028085465508511 0 -0.75470957328743171 0.6560590369687036 I I #
point $-1 -25.602510079687811 23.025000092924408 11.830922890699412 #
point $-1 -41.82396186742681 32.025365790675473 4.0070241871064738 #
straight-curve $-1 0 32.025365790675473 11.83092289069941 -1 0 0 I I #
vertex $-1 $349 $476 #
point $-1 -35.189261356644238 26.072871216418871 6.2482800482575751 #
vertex $-1 $353 $477 #
point $-1 -28.237210590470383 26.072871216418871 6.2482800482575751 #
coedge $-1 $358 $372 $361 $441 reversed $248 $-1 #
vertex $-1 $441 $478 #
straight-curve $-1 -57.80693990905484 -32.025365790675473 0 0 0 -1 I I #
edge $-1 $439 -32.025365790675473 $374 32.025365790675473 $438 $479 forward 7 unknown #
straight-curve $-1 0 -32.025365790675473 -11.83092289069941 -1 0 0 I I #
straight-curve $-1 -57.80693990905484 0 11.83092289069941 0 -1 0 I I #
point $-1 -57.80693990905484 32.025365790675473 11.83092289069941 #
point $-1 -57.80693990905484 -32.025365790675473 11.83092289069941 #
straight-curve $-1 -57.80693990905484 32.025365790675473 0 0 0 -1 I I #
point $-1 -57.80693990905484 32.025365790675473 -11.83092289069941 #
coedge $-1 $453 $377 $380 $450 reversed $268 $-1 #
straight-curve $-1 -68.204251160774859 32.025365790675473 5.2876792900020693 0 0 -1 I I #
edge $-1 $455 -32.025365790675473 $381 32.025365790675473 $448 $480 forward 7 unknown #
point $-1 -68.204251160774859 32.025365790675473 1.9056464024965818 #
point $-1 -68.204251160774859 32.025365790675473 8.6697121775075559 #
coedge $-1 $390 $448 $387 $454 reversed $268 $-1 #
edge $-1 $392 -3.3820328875054866 $455 3.3820328875054875 $453 $481 forward 7 unknown #
vertex $-1 $450 $482 #
straight-curve $-1 -63.005595534914853 -32.025365790675473 1.9056464024965818 -1 0 0 I I #
straight-curve $-1 -68.204251160774859 0 8.6697121775075559 0 -1 0 I I #
point $-1 -68.204251160774859 -32.025365790675473 8.6697121775075559 #
vertex $-1 $398 $483 #
straight-curve $-1 68.204251160774874 0 1.9056464024965818 0 -1 0 I I #
edge $-1 $401 -3.3820328875054866 $459 3.3820328875054875 $399 $484 forward 7 unknown #
point $-1 68.204251160774874 -32.025365790675473 8.6697121775075559 #
point $-1 68.204251160774874 32.025365790675473 8.6697121775075559 #
straight-curve $-1 68.204251160774874 -32.025365790675473 5.2876792900020693 0 0 -1 I I #
point $-1 68.204251160774874 -32.025365790675473 1.9056464024965818 #
straight-curve $-1 63.005595534914853 32.025365790675473 1.9056464024965818 1 0 0 I I #
straight-curve $-1 -47.409628657334814 -32.025365790675473 46.796826659441621 0 0 -1 I I #
point $-1 -47.409628657334814 -32.025365790675473 11.83092289069941 #
straight-curve $-1 -18.067442410086496 -32.025365790675473 3.7447942614907701 1 0 0 I I #
point $-1 -47.409628657334814 -32.025365790675473 3.7447942614907759 #
point $-1 -36.134884820172992 -18.927737204667196 -2.2208098638734164 #
straight-curve $-1 -25.602510079687811 32.025365790675473 66.641493684569241 0 0 -1 I I #
point $-1 -25.602510079687811 32.025365790675473 11.83092289069941 #
straight-curve $-1 -16.856617986778655 32.025365790675473 4.0070241871064702 -1 0 0 I I #
point $-1 -25.602510079687811 32.025365790675473 4.0070241871064738 #
point $-1 -37.189261356644238 24.760753142481466 4.7388609016827115 #
point $-1 -30.237210590470383 24.760753142481466 4.7388609016827115 #
point $-1 -57.80693990905484 -32.025365790675473 -11.83092289069941 #
straight-curve $-1 -57.80693990905484 0 -11.83092289069941 0 1 0 I I #
straight-curve $-1 -68.204251160774859 0 1.9056464024965818 0 1 0 I I #
straight-curve $-1 -68.204251160774859 -32.025365790675473 5.2876792900020693 0 0 -1 I I #
point $-1 -68.204251160774859 -32.025365790675473 1.9056464024965818 #
point $-1 68.204251160774874 32.025365790675473 1.9056464024965818 #
straight-curve $-1 68.204251160774874 32.025365790675473 5.2876792900020693 0 0 -1 I I #
End-of-ACIS-data 