500 0 13 0           
7 Unknown 11 ACIS 5.0 NT 24 Fri Mar 26 03:03:27 1999 
-1 9.9999999999999995e-007 1e-010 
body $-1 $13 $-1 $14 #
body $-1 $15 $-1 $16 #
body $-1 $17 $-1 $18 #
body $-1 $19 $-1 $20 #
body $-1 $21 $-1 $22 #
body $-1 $23 $-1 $24 #
body $-1 $25 $-1 $26 #
body $-1 $27 $-1 $28 #
body $-1 $29 $-1 $30 #
body $-1 $31 $-1 $32 #
body $-1 $33 $-1 $34 #
body $-1 $35 $-1 $36 #
body $-1 $37 $-1 $38 #
lump $-1 $-1 $39 $0 #
transform $-1 1 0 0 0 1 0 0 0 1 63.231910153508103 37.079638270748845 7.7228217213218358 1 rotate no_reflect no_shear #
lump $-1 $-1 $40 $1 #
transform $-1 1 0 0 0 1 0 0 0 1 63.231910153508103 37.079638270748845 7.7228217213218358 1 rotate no_reflect no_shear #
lump $-1 $-1 $41 $2 #
transform $-1 1 0 0 0 1 0 0 0 1 63.231910153508103 37.079638270748845 7.7228217213218358 1 rotate no_reflect no_shear #
lump $-1 $-1 $42 $3 #
transform $-1 1 0 0 0 1 0 0 0 1 63.231910153508103 37.079638270748845 7.7228217213218358 1 rotate no_reflect no_shear #
lump $-1 $-1 $43 $4 #
transform $-1 1 0 0 0 1 0 0 0 1 63.231910153508103 37.079638270748845 7.7228217213218358 1 rotate no_reflect no_shear #
lump $-1 $-1 $44 $5 #
transform $-1 1 0 0 0 1 0 0 0 1 63.231910153508103 37.079638270748845 7.7228217213218358 1 rotate no_reflect no_shear #
lump $-1 $-1 $45 $6 #
transform $-1 1 0 0 0 1 0 0 0 1 63.231910153508103 37.079638270748845 7.7228217213218358 1 rotate no_reflect no_shear #
lump $-1 $-1 $46 $7 #
transform $-1 1 0 0 0 1 0 0 0 1 63.231910153508103 37.079638270748845 7.7228217213218358 1 rotate no_reflect no_shear #
lump $-1 $-1 $47 $8 #
transform $-1 1 0 0 0 1 0 0 0 1 63.231910153508103 37.079638270748845 7.7228217213218358 1 rotate no_reflect no_shear #
lump $-1 $-1 $48 $9 #
transform $-1 1 0 0 0 1 0 0 0 1 63.231910153508103 37.079638270748845 7.7228217213218358 1 rotate no_reflect no_shear #
lump $-1 $-1 $49 $10 #
transform $-1 1 0 0 0 1 0 0 0 1 63.231910153508103 37.079638270748845 7.7228217213218358 1 rotate no_reflect no_shear #
lump $-1 $-1 $50 $11 #
transform $-1 1 0 0 0 1 0 0 0 1 63.231910153508103 37.079638270748845 7.7228217213218358 1 rotate no_reflect no_shear #
lump $-1 $-1 $51 $12 #
transform $-1 1 0 0 0 1 0 0 0 1 63.231910153508103 37.079638270748845 7.7228217213218358 1 rotate no_reflect no_shear #
shell $-1 $-1 $-1 $52 $-1 $13 #
shell $-1 $-1 $-1 $53 $-1 $15 #
shell $-1 $-1 $-1 $54 $-1 $17 #
shell $-1 $-1 $-1 $55 $-1 $19 #
shell $-1 $-1 $-1 $56 $-1 $21 #
shell $-1 $-1 $-1 $57 $-1 $23 #
shell $-1 $-1 $-1 $58 $-1 $25 #
shell $-1 $-1 $-1 $59 $-1 $27 #
shell $-1 $-1 $-1 $60 $-1 $29 #
shell $-1 $-1 $-1 $61 $-1 $31 #
shell $-1 $-1 $-1 $62 $-1 $33 #
shell $-1 $-1 $-1 $63 $-1 $35 #
shell $-1 $-1 $-1 $64 $-1 $37 #
face $-1 $65 $66 $39 $-1 $67 forward single #
face $-1 $68 $69 $40 $-1 $70 forward single #
face $-1 $71 $72 $41 $-1 $73 reversed single #
face $-1 $74 $75 $42 $-1 $76 forward single #
face $-1 $77 $78 $43 $-1 $79 forward single #
face $-1 $80 $81 $44 $-1 $82 forward single #
face $-1 $83 $84 $45 $-1 $85 reversed single #
face $-1 $86 $87 $46 $-1 $88 forward single #
face $-1 $89 $90 $47 $-1 $91 forward single #
face $-1 $92 $93 $48 $-1 $94 forward single #
face $-1 $95 $96 $49 $-1 $97 reversed single #
face $-1 $98 $99 $50 $-1 $100 forward single #
face $-1 $101 $102 $51 $-1 $103 forward single #
face $-1 $104 $105 $39 $-1 $106 reversed single #
loop $-1 $-1 $107 $52 #
plane-surface $-1 0 0 7.7228217213218358 0 0 1 1 0 0 forward_v I I I I #
face $-1 $108 $109 $40 $-1 $110 reversed single #
loop $-1 $-1 $111 $53 #
plane-surface $-1 -63.231910153508103 0 0 1 0 0 0 0 -1 forward_v I I I I #
face $-1 $112 $113 $41 $-1 $114 reversed single #
loop $-1 $-1 $115 $54 #
plane-surface $-1 -40.584201349946255 -107.79731005132706 107.03841087553714 -1 0 0 0 -0.55919291073839883 0.82903756765294845 forward_v I I I I #
face $-1 $116 $117 $42 $-1 $118 forward single #
loop $-1 $119 $120 $55 #
cone-surface $-1 -51.261624932645177 -32.112517904065797 3.6698006182120348 0 0.55919291073839883 -0.82903756765294845 1 0 0 1 I I 0 1 1 forward I I I I #
face $-1 $121 $122 $43 $-1 $123 forward single #
loop $-1 $124 $125 $56 #
cone-surface $-1 -47.257591089133079 -32.112517904065797 3.6698006182120348 0 0.55919291073839883 -0.82903756765294845 1 0 0 1 I I 0 1 1 forward I I I I #
face $-1 $126 $127 $44 $-1 $128 forward single #
loop $-1 $129 $130 $57 #
cone-surface $-1 -43.253557245620982 -32.112517904065797 3.6698006182120348 0 0.55919291073839883 -0.82903756765294845 1 0 0 1 I I 0 1 1 forward I I I I #
face $-1 $131 $132 $45 $-1 $133 reversed single #
loop $-1 $-1 $134 $58 #
plane-surface $-1 17.997244140967751 -107.79731005132706 107.03841087553714 -1 0 0 0 -0.55919291073839883 0.82903756765294845 forward_v I I I I #
face $-1 $135 $136 $46 $-1 $137 forward single #
loop $-1 $138 $139 $59 #
cone-surface $-1 7.3198205582688374 -32.112517904065797 3.6698006182120348 0 0.55919291073839883 -0.82903756765294845 1 0 0 1 I I 0 1 1 forward I I I I #
face $-1 $140 $141 $47 $-1 $142 forward single #
loop $-1 $143 $144 $60 #
cone-surface $-1 11.323854401780928 -32.112517904065797 3.6698006182120348 0 0.55919291073839883 -0.82903756765294845 1 0 0 1 I I 0 1 1 forward I I I I #
face $-1 $145 $146 $48 $-1 $147 forward single #
loop $-1 $148 $149 $61 #
cone-surface $-1 15.327888245293018 -32.112517904065797 3.6698006182120348 0 0.55919291073839883 -0.82903756765294845 1 0 0 1 I I 0 1 1 forward I I I I #
face $-1 $150 $151 $49 $-1 $152 reversed single #
loop $-1 $-1 $153 $62 #
plane-surface $-1 43.554108159419719 109.52088301725529 128.34315627705763 1 0 0 0 -0.86602541151947299 -0.49999998660252726 forward_v I I I I #
face $-1 $154 $155 $50 $-1 $156 forward single #
loop $-1 $157 $158 $63 #
cone-surface $-1 49.176337300587825 33.599991265447272 3.435382613726965 0 -0.86602541151947299 -0.49999998660252726 1.5 0 0 1 I I 0 1 1.5 forward I I I I #
face $-1 $159 $160 $51 $-1 $161 forward single #
loop $-1 $162 $163 $64 #
cone-surface $-1 57.609681012339983 33.599991265447272 3.435382613726965 0 -0.86602541151947299 -0.49999998660252726 1.5 0 0 1 I I 0 1 1.5 forward I I I I #
face $-1 $164 $165 $39 $-1 $166 reversed single #
loop $-1 $-1 $167 $65 #
plane-surface $-1 0 0 -7.7228217213218358 0 0 1 1 0 0 forward_v I I I I #
coedge $-1 $168 $169 $170 $171 forward $66 $-1 #
face $-1 $172 $173 $40 $-1 $174 forward single #
loop $-1 $-1 $175 $68 #
plane-surface $-1 0 37.079638270748845 0 0 -1 0 0 0 -1 forward_v I I I I #
coedge $-1 $176 $177 $178 $179 forward $69 $-1 #
face $-1 $180 $181 $41 $-1 $182 reversed single #
loop $-1 $-1 $183 $71 #
plane-surface $-1 -47.257591089133079 -37.079638270748845 2.1951528921088794 0 -0.55919291073839883 0.82903756765294845 1 0 0 forward_v I I I I #
coedge $-1 $184 $185 $186 $187 reversed $72 $-1 #
face $-1 $-1 $188 $42 $-1 $189 forward single #
loop $-1 $190 $191 $74 #
cone-surface $-1 -51.261624932645177 -30.963354031057989 1.9660951458822389 0 0.55919291073839883 -0.82903756765294845 0.5 0 0 1 I I -0.70710678118654746 0.70710678118654746 0.5 forward I I I I #
loop $-1 $-1 $192 $55 #
coedge $-1 $120 $120 $193 $194 reversed $75 $-1 #
face $-1 $-1 $195 $43 $-1 $196 forward single #
loop $-1 $197 $198 $77 #
cone-surface $-1 -47.257591089133079 -30.963354031057989 1.9660951458822389 0 0.55919291073839883 -0.82903756765294845 0.5 0 0 1 I I -0.70710678118654746 0.70710678118654746 0.5 forward I I I I #
loop $-1 $-1 $199 $56 #
coedge $-1 $125 $125 $200 $201 reversed $78 $-1 #
face $-1 $-1 $202 $44 $-1 $203 forward single #
loop $-1 $204 $205 $80 #
cone-surface $-1 -43.253557245620982 -30.963354031057989 1.9660951458822389 0 0.55919291073839883 -0.82903756765294845 0.5 0 0 1 I I -0.70710678118654746 0.70710678118654746 0.5 forward I I I I #
loop $-1 $-1 $206 $57 #
coedge $-1 $130 $130 $207 $208 reversed $81 $-1 #
face $-1 $209 $210 $45 $-1 $211 reversed single #
loop $-1 $-1 $212 $83 #
plane-surface $-1 11.323854401780928 -37.079638270748845 2.1951528921088794 0 -0.55919291073839883 0.82903756765294845 1 0 0 forward_v I I I I #
coedge $-1 $213 $214 $215 $216 reversed $84 $-1 #
face $-1 $-1 $217 $46 $-1 $218 forward single #
loop $-1 $219 $220 $86 #
cone-surface $-1 7.3198205582688374 -30.963354031057989 1.9660951458822389 0 0.55919291073839883 -0.82903756765294845 0.5 0 0 1 I I -0.70710678118654746 0.70710678118654746 0.5 forward I I I I #
loop $-1 $-1 $221 $59 #
coedge $-1 $139 $139 $222 $223 reversed $87 $-1 #
face $-1 $-1 $224 $47 $-1 $225 forward single #
loop $-1 $226 $227 $89 #
cone-surface $-1 11.323854401780928 -30.963354031057989 1.9660951458822389 0 0.55919291073839883 -0.82903756765294845 0.5 0 0 1 I I -0.70710678118654746 0.70710678118654746 0.5 forward I I I I #
loop $-1 $-1 $228 $60 #
coedge $-1 $144 $144 $229 $230 reversed $90 $-1 #
face $-1 $-1 $231 $48 $-1 $232 forward single #
loop $-1 $233 $234 $92 #
cone-surface $-1 15.327888245293018 -30.963354031057989 1.9660951458822389 0 0.55919291073839883 -0.82903756765294845 0.5 0 0 1 I I -0.70710678118654746 0.70710678118654746 0.5 forward I I I I #
loop $-1 $-1 $235 $61 #
coedge $-1 $149 $149 $236 $237 reversed $93 $-1 #
face $-1 $238 $239 $49 $-1 $240 forward single #
loop $-1 $-1 $241 $95 #
plane-surface $-1 53.393009156463911 9.9354689098163362e-007 65.111247817845111 0 0.86602541151947299 0.49999998660252726 1 0 0 forward_v I I I I #
coedge $-1 $242 $243 $244 $245 reversed $96 $-1 #
face $-1 $-1 $246 $50 $-1 $247 forward single #
loop $-1 $248 $249 $98 #
cone-surface $-1 49.176337300587825 31.444032804377358 2.1906394603370316 0 -0.86602541151947299 -0.49999998660252726 0.75 0 0 1 I I -0.70710678118654757 0.70710678118654757 0.75 forward I I I I #
loop $-1 $-1 $250 $63 #
coedge $-1 $158 $158 $251 $252 reversed $99 $-1 #
face $-1 $-1 $253 $51 $-1 $254 forward single #
loop $-1 $255 $256 $101 #
cone-surface $-1 57.609681012339983 31.444032804377358 2.1906394603370316 0 -0.86602541151947299 -0.49999998660252726 0.75 0 0 1 I I -0.70710678118654757 0.70710678118654757 0.75 forward I I I I #
loop $-1 $-1 $257 $64 #
coedge $-1 $163 $163 $258 $259 reversed $102 $-1 #
face $-1 $260 $261 $39 $-1 $262 reversed single #
loop $-1 $-1 $263 $104 #
plane-surface $-1 0 -37.079638270748845 0 0 1 0 0 0 1 forward_v I I I I #
coedge $-1 $264 $265 $266 $267 forward $105 $-1 #
coedge $-1 $268 $107 $269 $270 forward $66 $-1 #
coedge $-1 $107 $268 $271 $272 forward $66 $-1 #
coedge $-1 $273 $274 $107 $171 reversed $275 $-1 #
edge $-1 $276 -37.079638270748845 $277 37.079638270748845 $170 $278 forward 7 unknown #
face $-1 $279 $280 $40 $-1 $281 reversed single #
loop $-1 $-1 $178 $108 #
plane-surface $-1 -67.8823748161022 0 1.2409795356275333 0 0 1 1 0 0 forward_v I I I I #
coedge $-1 $282 $283 $177 $284 forward $109 $-1 #
coedge $-1 $285 $111 $286 $287 reversed $69 $-1 #
coedge $-1 $111 $285 $175 $284 reversed $69 $-1 #
coedge $-1 $288 $289 $111 $179 reversed $173 $-1 #
edge $-1 $290 -37.079638270748845 $291 37.079638270748845 $178 $292 forward 7 unknown #
face $-1 $293 $294 $41 $-1 $295 reversed single #
loop $-1 $-1 $296 $112 #
plane-surface $-1 -53.930980828319903 -107.79731005132706 107.03841087553714 1 0 0 0 0.55919291073839883 -0.82903756765294845 forward_v I I I I #
coedge $-1 $297 $298 $299 $300 reversed $113 $-1 #
coedge $-1 $185 $115 $301 $302 reversed $72 $-1 #
coedge $-1 $115 $184 $297 $303 reversed $72 $-1 #
coedge $-1 $299 $304 $115 $187 forward $305 $-1 #
edge $-1 $306 16.819016754914685 $307 25.014122653003547 $186 $308 forward 7 unknown #
loop $-1 $-1 $193 $116 #
plane-surface $-1 -47.257591089133079 -37.079638270748845 2.1951528921088794 0 -0.55919291073839883 0.82903756765294845 1 0 0 forward_v I I I I #
loop $-1 $-1 $309 $74 #
coedge $-1 $191 $191 $192 $310 reversed $117 $-1 #
coedge $-1 $192 $192 $191 $310 forward $119 $-1 #
coedge $-1 $193 $193 $120 $194 forward $188 $-1 #
edge $-1 $311 -2.4833153788357213e-015 $311 6.2831853071795978 $193 $312 forward 7 unknown #
loop $-1 $-1 $200 $121 #
plane-surface $-1 -47.257591089133079 -37.079638270748845 2.1951528921088794 0 -0.55919291073839883 0.82903756765294845 1 0 0 forward_v I I I I #
loop $-1 $-1 $313 $77 #
coedge $-1 $198 $198 $199 $314 reversed $122 $-1 #
coedge $-1 $199 $199 $198 $314 forward $124 $-1 #
coedge $-1 $200 $200 $125 $201 forward $195 $-1 #
edge $-1 $315 -2.4833153788357213e-015 $315 6.2831853071795978 $200 $316 forward 7 unknown #
loop $-1 $-1 $207 $126 #
plane-surface $-1 -47.257591089133079 -37.079638270748845 2.1951528921088794 0 -0.55919291073839883 0.82903756765294845 1 0 0 forward_v I I I I #
loop $-1 $-1 $317 $80 #
coedge $-1 $205 $205 $206 $318 reversed $127 $-1 #
coedge $-1 $206 $206 $205 $318 forward $129 $-1 #
coedge $-1 $207 $207 $130 $208 forward $202 $-1 #
edge $-1 $319 -2.4833153788357213e-015 $319 6.2831853071795978 $207 $320 forward 7 unknown #
face $-1 $321 $322 $45 $-1 $323 reversed single #
loop $-1 $-1 $324 $131 #
plane-surface $-1 4.6504646625941017 -107.79731005132706 107.03841087553714 1 0 0 0 0.55919291073839883 -0.82903756765294845 forward_v I I I I #
coedge $-1 $325 $326 $327 $328 reversed $132 $-1 #
coedge $-1 $214 $134 $329 $330 reversed $84 $-1 #
coedge $-1 $134 $213 $325 $331 reversed $84 $-1 #
coedge $-1 $327 $332 $134 $216 forward $333 $-1 #
edge $-1 $334 16.819016754914685 $335 25.014122653003547 $215 $336 forward 7 unknown #
loop $-1 $-1 $222 $135 #
plane-surface $-1 11.323854401780928 -37.079638270748845 2.1951528921088794 0 -0.55919291073839883 0.82903756765294845 1 0 0 forward_v I I I I #
loop $-1 $-1 $337 $86 #
coedge $-1 $220 $220 $221 $338 reversed $136 $-1 #
coedge $-1 $221 $221 $220 $338 forward $138 $-1 #
coedge $-1 $222 $222 $139 $223 forward $217 $-1 #
edge $-1 $339 -2.4833153788357213e-015 $339 6.2831853071795978 $222 $340 forward 7 unknown #
loop $-1 $-1 $229 $140 #
plane-surface $-1 11.323854401780928 -37.079638270748845 2.1951528921088794 0 -0.55919291073839883 0.82903756765294845 1 0 0 forward_v I I I I #
loop $-1 $-1 $341 $89 #
coedge $-1 $227 $227 $228 $342 reversed $141 $-1 #
coedge $-1 $228 $228 $227 $342 forward $143 $-1 #
coedge $-1 $229 $229 $144 $230 forward $224 $-1 #
edge $-1 $343 -2.4833153788357213e-015 $343 6.2831853071795978 $229 $344 forward 7 unknown #
loop $-1 $-1 $236 $145 #
plane-surface $-1 11.323854401780928 -37.079638270748845 2.1951528921088794 0 -0.55919291073839883 0.82903756765294845 1 0 0 forward_v I I I I #
loop $-1 $-1 $345 $92 #
coedge $-1 $234 $234 $235 $346 reversed $146 $-1 #
coedge $-1 $235 $235 $234 $346 forward $148 $-1 #
coedge $-1 $236 $236 $149 $237 forward $231 $-1 #
edge $-1 $347 -2.4833153788357213e-015 $347 6.2831853071795978 $236 $348 forward 7 unknown #
face $-1 $349 $350 $49 $-1 $351 reversed single #
loop $-1 $-1 $244 $150 #
plane-surface $-1 0 0 7.7228217213218358 0 0 1 1 0 0 forward_v I I I I #
coedge $-1 $352 $353 $354 $355 reversed $151 $-1 #
coedge $-1 $243 $153 $356 $357 reversed $96 $-1 #
coedge $-1 $153 $242 $352 $358 reversed $96 $-1 #
coedge $-1 $354 $359 $153 $245 forward $239 $-1 #
edge $-1 $360 17.680803237878798 $361 21.627218443621295 $244 $362 forward 7 unknown #
loop $-1 $-1 $251 $154 #
plane-surface $-1 53.393009156463911 9.9354689098163362e-007 65.111247817845111 0 0.86602541151947299 0.49999998660252726 1 0 0 forward_v I I I I #
loop $-1 $-1 $363 $98 #
coedge $-1 $249 $249 $250 $364 reversed $155 $-1 #
coedge $-1 $250 $250 $249 $364 forward $157 $-1 #
coedge $-1 $251 $251 $158 $252 forward $246 $-1 #
edge $-1 $365 1.7338447118549318e-015 $365 6.2831853071796022 $251 $366 forward 7 unknown #
loop $-1 $-1 $258 $159 #
plane-surface $-1 53.393009156463911 9.9354689098163362e-007 65.111247817845111 0 0.86602541151947299 0.49999998660252726 1 0 0 forward_v I I I I #
loop $-1 $-1 $367 $101 #
coedge $-1 $256 $256 $257 $368 reversed $160 $-1 #
coedge $-1 $257 $257 $256 $368 forward $162 $-1 #
coedge $-1 $258 $258 $163 $259 forward $253 $-1 #
edge $-1 $369 1.7338447118549318e-015 $369 6.2831853071796022 $258 $370 forward 7 unknown #
face $-1 $371 $372 $39 $-1 $373 reversed single #
loop $-1 $-1 $374 $164 #
plane-surface $-1 -63.231910153508103 0 0 1 0 0 0 0 -1 forward_v I I I I #
coedge $-1 $375 $271 $374 $376 forward $165 $-1 #
coedge $-1 $377 $167 $375 $378 forward $105 $-1 #
coedge $-1 $167 $377 $379 $380 forward $105 $-1 #
coedge $-1 $274 $273 $167 $267 reversed $275 $-1 #
edge $-1 $381 -37.079638270748845 $382 37.079638270748845 $266 $383 forward 7 unknown #
coedge $-1 $169 $168 $384 $385 forward $66 $-1 #
coedge $-1 $386 $387 $168 $270 reversed $372 $-1 #
edge $-1 $277 -63.231910153508103 $388 63.231910153508103 $269 $389 forward 7 unknown #
coedge $-1 $263 $390 $169 $272 reversed $165 $-1 #
edge $-1 $391 -63.231910153508103 $276 63.231910153508103 $271 $392 forward 7 unknown #
coedge $-1 $266 $170 $390 $393 forward $275 $-1 #
coedge $-1 $170 $266 $386 $394 reversed $275 $-1 #
loop $-1 $-1 $273 $371 #
vertex $-1 $171 $395 #
vertex $-1 $171 $396 #
straight-curve $-1 63.231910153508103 0 7.7228217213218358 0 1 0 I I #
face $-1 $397 $398 $40 $-1 $399 reversed single #
loop $-1 $-1 $400 $172 #
plane-surface $-1 -67.8823748161022 0 -2.6289868360195592 0 0 1 1 0 0 forward_v I I I I #
coedge $-1 $401 $175 $402 $403 reversed $109 $-1 #
coedge $-1 $175 $401 $288 $404 reversed $109 $-1 #
edge $-1 $290 -1.2409795356275333 $405 2.6289868360195592 $175 $406 forward 7 unknown #
coedge $-1 $177 $176 $400 $407 forward $69 $-1 #
coedge $-1 $408 $409 $176 $287 forward $410 $-1 #
edge $-1 $411 -2.6289868360195592 $291 1.2409795356275333 $286 $412 forward 7 unknown #
coedge $-1 $413 $178 $283 $404 forward $173 $-1 #
coedge $-1 $178 $413 $408 $414 forward $173 $-1 #
vertex $-1 $284 $415 #
vertex $-1 $414 $416 #
straight-curve $-1 -63.231910153508103 0 1.2409795356275333 0 -1 0 I I #
face $-1 $-1 $305 $41 $-1 $417 forward single #
loop $-1 $-1 $418 $180 #
plane-surface $-1 0 -37.079638270748845 0 0 1 0 0 0 1 forward_v I I I I #
coedge $-1 $419 $420 $421 $422 reversed $181 $-1 #
coedge $-1 $423 $183 $185 $303 forward $113 $-1 #
coedge $-1 $183 $423 $419 $424 forward $113 $-1 #
coedge $-1 $421 $186 $183 $300 forward $305 $-1 #
edge $-1 $307 16.955405805379716 $425 30.302185283753364 $299 $426 forward 7 unknown #
coedge $-1 $427 $428 $184 $302 forward $294 $-1 #
edge $-1 $429 -51.32405254565969 $306 -45.796383716446734 $301 $430 forward 7 unknown #
edge $-1 $307 -9.885083882615433 $429 0 $185 $431 forward 7 unknown #
coedge $-1 $186 $421 $427 $432 forward $305 $-1 #
loop $-1 $-1 $421 $293 #
vertex $-1 $302 $433 #
vertex $-1 $187 $434 #
straight-curve $-1 -40.584201349946255 -53.89865502566353 7.7228217213218358 0 1 0 I I #
coedge $-1 $309 $309 $-1 $435 reversed $190 $-1 #
edge $-1 $436 0 $436 6.2831853071796004 $191 $437 forward 7 unknown #
vertex $-1 $194 $438 #
ellipse-curve $-1 -51.261624932645177 -32.98208532170441 4.9589873067153603 0 -0.55919291073839883 0.82903756765294845 1 0 0 1 I I #
coedge $-1 $313 $313 $-1 $439 reversed $197 $-1 #
edge $-1 $440 0 $440 6.2831853071796004 $198 $441 forward 7 unknown #
vertex $-1 $201 $442 #
ellipse-curve $-1 -47.257591089133079 -32.98208532170441 4.9589873067153603 0 -0.55919291073839883 0.82903756765294845 1 0 0 1 I I #
coedge $-1 $317 $317 $-1 $443 reversed $204 $-1 #
edge $-1 $444 0 $444 6.2831853071796004 $205 $445 forward 7 unknown #
vertex $-1 $208 $446 #
ellipse-curve $-1 -43.253557245620982 -32.98208532170441 4.9589873067153603 0 -0.55919291073839883 0.82903756765294845 1 0 0 1 I I #
face $-1 $-1 $333 $45 $-1 $447 forward single #
loop $-1 $-1 $448 $209 #
plane-surface $-1 0 -37.079638270748845 0 0 1 0 0 0 1 forward_v I I I I #
coedge $-1 $449 $450 $451 $452 reversed $210 $-1 #
coedge $-1 $453 $212 $214 $331 forward $132 $-1 #
coedge $-1 $212 $453 $449 $454 forward $132 $-1 #
coedge $-1 $451 $215 $212 $328 forward $333 $-1 #
edge $-1 $335 -12.335316940077288 $455 1.011462538296362 $327 $456 forward 7 unknown #
coedge $-1 $457 $458 $213 $330 forward $322 $-1 #
edge $-1 $459 -51.32405254565969 $334 -45.796383716446734 $329 $460 forward 7 unknown #
edge $-1 $335 -9.885083882615433 $459 0 $214 $461 forward 7 unknown #
coedge $-1 $215 $451 $457 $462 forward $333 $-1 #
loop $-1 $-1 $451 $321 #
vertex $-1 $330 $463 #
vertex $-1 $216 $464 #
straight-curve $-1 17.997244140967751 -53.89865502566353 7.7228217213218358 0 1 0 I I #
coedge $-1 $337 $337 $-1 $465 reversed $219 $-1 #
edge $-1 $466 0 $466 6.2831853071796004 $220 $467 forward 7 unknown #
vertex $-1 $223 $468 #
ellipse-curve $-1 7.3198205582688374 -32.98208532170441 4.9589873067153603 0 -0.55919291073839883 0.82903756765294845 1 0 0 1 I I #
coedge $-1 $341 $341 $-1 $469 reversed $226 $-1 #
edge $-1 $470 0 $470 6.2831853071796004 $227 $471 forward 7 unknown #
vertex $-1 $230 $472 #
ellipse-curve $-1 11.323854401780928 -32.98208532170441 4.9589873067153603 0 -0.55919291073839883 0.82903756765294845 1 0 0 1 I I #
coedge $-1 $345 $345 $-1 $473 reversed $233 $-1 #
edge $-1 $474 0 $474 6.2831853071796004 $234 $475 forward 7 unknown #
vertex $-1 $237 $476 #
ellipse-curve $-1 15.327888245293018 -32.98208532170441 4.9589873067153603 0 -0.55919291073839883 0.82903756765294845 1 0 0 1 I I #
face $-1 $-1 $477 $49 $-1 $478 reversed single #
loop $-1 $-1 $479 $238 #
plane-surface $-1 63.231910153508103 0 0 -1 0 0 0 0 1 forward_v I I I I #
coedge $-1 $480 $241 $243 $358 forward $151 $-1 #
coedge $-1 $241 $480 $479 $481 reversed $151 $-1 #
coedge $-1 $482 $244 $241 $355 forward $239 $-1 #
edge $-1 $361 16.857603581187764 $483 36.535405575276144 $354 $484 forward 7 unknown #
coedge $-1 $485 $486 $242 $357 forward $477 $-1 #
edge $-1 $487 -63.284148305520631 $360 -56.44875641720698 $356 $488 forward 7 unknown #
edge $-1 $361 66.266445918524724 $487 74.159276541497675 $243 $489 forward 7 unknown #
coedge $-1 $244 $482 $485 $490 forward $239 $-1 #
vertex $-1 $357 $491 #
vertex $-1 $245 $492 #
straight-curve $-1 43.554108159419719 54.760441508627643 7.7228217213218358 0 -1 0 I I #
coedge $-1 $363 $363 $-1 $493 reversed $248 $-1 #
edge $-1 $494 0 $494 6.2831853071796004 $249 $495 forward 7 unknown #
vertex $-1 $252 $496 #
ellipse-curve $-1 49.176337300587825 35.106430667877596 4.30512577716501 0 0.86602541151947299 0.49999998660252726 1.5 0 0 1 I I #
coedge $-1 $367 $367 $-1 $497 reversed $255 $-1 #
edge $-1 $498 0 $498 6.2831853071796004 $256 $499 forward 7 unknown #
vertex $-1 $259 $500 #
ellipse-curve $-1 57.609681012339983 35.106430667877596 4.30512577716501 0 0.86602541151947299 0.49999998660252726 1.5 0 0 1 I I #
face $-1 $-1 $275 $39 $-1 $501 reversed single #
loop $-1 $-1 $386 $260 #
plane-surface $-1 0 37.079638270748845 0 0 -1 0 0 0 -1 forward_v I I I I #
coedge $-1 $384 $502 $263 $376 reversed $261 $-1 #
coedge $-1 $390 $263 $264 $378 reversed $165 $-1 #
edge $-1 $391 -7.7228217213218358 $503 7.7228217213218358 $374 $504 forward 7 unknown #
coedge $-1 $265 $264 $502 $505 forward $105 $-1 #
edge $-1 $382 -63.231910153508103 $503 63.231910153508103 $375 $506 forward 7 unknown #
coedge $-1 $387 $386 $265 $380 reversed $372 $-1 #
edge $-1 $507 -63.231910153508103 $381 63.231910153508103 $379 $508 forward 7 unknown #
vertex $-1 $267 $509 #
vertex $-1 $393 $510 #
straight-curve $-1 63.231910153508103 0 -7.7228217213218358 0 -1 0 I I #
coedge $-1 $511 $374 $268 $385 reversed $261 $-1 #
edge $-1 $388 -37.079638270748845 $391 37.079638270748845 $384 $512 forward 7 unknown #
coedge $-1 $379 $269 $274 $394 forward $372 $-1 #
coedge $-1 $269 $379 $511 $513 reversed $372 $-1 #
vertex $-1 $270 $514 #
straight-curve $-1 0 37.079638270748845 7.7228217213218358 -1 0 0 I I #
coedge $-1 $271 $375 $273 $393 reversed $165 $-1 #
vertex $-1 $385 $515 #
straight-curve $-1 0 -37.079638270748845 7.7228217213218358 1 0 0 I I #
edge $-1 $276 -7.7228217213218358 $382 7.7228217213218358 $273 $516 forward 7 unknown #
edge $-1 $277 -7.7228217213218358 $381 7.7228217213218358 $274 $517 forward 7 unknown #
point $-1 63.231910153508103 -37.079638270748845 7.7228217213218358 #
point $-1 63.231910153508103 37.079638270748845 7.7228217213218358 #
face $-1 $-1 $410 $40 $-1 $518 reversed single #
loop $-1 $-1 $519 $279 #
plane-surface $-1 -72.532839478696303 0 -0.69400365019601296 1 0 0 0 0 -1 forward_v I I I I #
coedge $-1 $520 $402 $285 $407 reversed $280 $-1 #
coedge $-1 $283 $282 $519 $521 reversed $109 $-1 #
coedge $-1 $400 $522 $282 $403 forward $280 $-1 #
edge $-1 $523 -4.6504646625941035 $405 4.6504646625940964 $282 $524 forward 7 unknown #
edge $-1 $290 -4.6504646625940964 $525 4.6504646625941035 $283 $526 forward 7 unknown #
vertex $-1 $284 $527 #
straight-curve $-1 -63.231910153508103 37.079638270748845 0 0 0 -1 I I #
edge $-1 $411 -37.079638270748845 $405 37.079638270748845 $400 $528 forward 7 unknown #
coedge $-1 $529 $286 $289 $414 reversed $410 $-1 #
coedge $-1 $286 $529 $520 $530 reversed $410 $-1 #
loop $-1 $-1 $286 $397 #
vertex $-1 $287 $531 #
straight-curve $-1 -63.231910153508103 -37.079638270748845 0 0 0 1 I I #
coedge $-1 $289 $288 $532 $533 forward $173 $-1 #
edge $-1 $534 -4.6504646625941035 $291 4.6504646625940964 $408 $535 forward 7 unknown #
point $-1 -63.231910153508103 37.079638270748845 1.2409795356275333 #
point $-1 -63.231910153508103 -37.079638270748845 1.2409795356275333 #
plane-surface $-1 0 0 7.7228217213218358 0 0 1 1 0 0 forward_v I I I I #
coedge $-1 $428 $427 $420 $536 forward $294 $-1 #
coedge $-1 $420 $296 $298 $424 reversed $181 $-1 #
coedge $-1 $296 $419 $418 $536 reversed $181 $-1 #
coedge $-1 $304 $299 $296 $422 forward $305 $-1 #
edge $-1 $425 -25.014122653003547 $537 -16.819016754914685 $421 $538 forward 7 unknown #
coedge $-1 $298 $297 $428 $539 reversed $113 $-1 #
edge $-1 $540 0 $425 9.885083882615433 $419 $541 forward 7 unknown #
vertex $-1 $300 $542 #
straight-curve $-1 -23.62879554456654 -28.884532372659983 7.7228217213218358 -1 0 0 I I #
coedge $-1 $418 $301 $304 $432 reversed $294 $-1 #
coedge $-1 $301 $418 $423 $539 forward $294 $-1 #
vertex $-1 $302 $543 #
straight-curve $-1 -40.584201349946255 -37.079638270748845 53.519205437768569 0 0 1 I I #
straight-curve $-1 -40.584201349946255 -37.079638270748845 2.1951528921088794 0 -0.82903756765294845 -0.55919291073839883 I I #
edge $-1 $537 -53.930980828319903 $306 -40.584201349946255 $427 $544 forward 7 unknown #
point $-1 -40.584201349946255 -37.079638270748845 7.7228217213218358 #
point $-1 -40.584201349946255 -28.884532372659983 7.7228217213218366 #
edge $-1 $545 1 $545 0 $309 $-1 forward 7 unknown #
vertex $-1 $310 $546 #
ellipse-curve $-1 -51.261624932645177 -31.242950486427187 2.380613929708713 0 -0.55919291073839883 0.82903756765294845 1 0 0 1 I I #
point $-1 -50.261624932645177 -32.98208532170441 4.9589873067153558 #
edge $-1 $547 1 $547 0 $313 $-1 forward 7 unknown #
vertex $-1 $314 $548 #
ellipse-curve $-1 -47.257591089133079 -31.242950486427187 2.380613929708713 0 -0.55919291073839883 0.82903756765294845 1 0 0 1 I I #
point $-1 -46.257591089133079 -32.98208532170441 4.9589873067153558 #
edge $-1 $549 1 $549 0 $317 $-1 forward 7 unknown #
vertex $-1 $318 $550 #
ellipse-curve $-1 -43.253557245620982 -31.242950486427187 2.380613929708713 0 -0.55919291073839883 0.82903756765294845 1 0 0 1 I I #
point $-1 -42.253557245620982 -32.98208532170441 4.9589873067153558 #
plane-surface $-1 0 0 7.7228217213218358 0 0 1 1 0 0 forward_v I I I I #
coedge $-1 $458 $457 $450 $551 forward $322 $-1 #
coedge $-1 $450 $324 $326 $454 reversed $210 $-1 #
coedge $-1 $324 $449 $448 $551 reversed $210 $-1 #
coedge $-1 $332 $327 $324 $452 forward $333 $-1 #
edge $-1 $455 -25.014122653003547 $552 -16.819016754914685 $451 $553 forward 7 unknown #
coedge $-1 $326 $325 $458 $554 reversed $132 $-1 #
edge $-1 $555 0 $455 9.885083882615433 $449 $556 forward 7 unknown #
vertex $-1 $328 $557 #
straight-curve $-1 5.6619272008904638 -28.884532372659983 7.7228217213218358 -1 0 0 I I #
coedge $-1 $448 $329 $332 $462 reversed $322 $-1 #
coedge $-1 $329 $448 $453 $554 forward $322 $-1 #
vertex $-1 $330 $558 #
straight-curve $-1 17.997244140967751 -37.079638270748845 53.519205437768569 0 0 1 I I #
straight-curve $-1 17.997244140967751 -37.079638270748845 2.1951528921088794 0 -0.82903756765294845 -0.55919291073839883 I I #
edge $-1 $552 4.6504646625941017 $334 17.997244140967751 $457 $559 forward 7 unknown #
point $-1 17.997244140967751 -37.079638270748845 7.7228217213218358 #
point $-1 17.997244140967751 -28.884532372659983 7.7228217213218366 #
edge $-1 $560 1 $560 0 $337 $-1 forward 7 unknown #
vertex $-1 $338 $561 #
ellipse-curve $-1 7.3198205582688374 -31.242950486427187 2.380613929708713 0 -0.55919291073839883 0.82903756765294845 1 0 0 1 I I #
point $-1 8.3198205582688374 -32.98208532170441 4.9589873067153558 #
edge $-1 $562 1 $562 0 $341 $-1 forward 7 unknown #
vertex $-1 $342 $563 #
ellipse-curve $-1 11.323854401780928 -31.242950486427187 2.380613929708713 0 -0.55919291073839883 0.82903756765294845 1 0 0 1 I I #
point $-1 12.323854401780928 -32.98208532170441 4.9589873067153558 #
edge $-1 $564 1 $564 0 $345 $-1 forward 7 unknown #
vertex $-1 $346 $565 #
ellipse-curve $-1 15.327888245293018 -31.242950486427187 2.380613929708713 0 -0.55919291073839883 0.82903756765294845 1 0 0 1 I I #
point $-1 16.327888245293018 -32.98208532170441 4.9589873067153558 #
loop $-1 $-1 $356 $349 #
plane-surface $-1 0 37.079638270748845 0 0 -1 0 0 0 -1 forward_v I I I I #
coedge $-1 $566 $567 $353 $481 forward $350 $-1 #
coedge $-1 $353 $352 $486 $568 reversed $151 $-1 #
edge $-1 $483 38.07244857391359 $569 45.965279196886542 $479 $570 forward 7 unknown #
coedge $-1 $359 $354 $567 $571 forward $239 $-1 #
vertex $-1 $571 $572 #
straight-curve $-1 26.696504578231956 33.133223065006348 7.7228217213218358 1 0 0 I I #
coedge $-1 $573 $356 $359 $490 reversed $477 $-1 #
coedge $-1 $356 $573 $480 $568 forward $477 $-1 #
vertex $-1 $357 $574 #
straight-curve $-1 43.554108159419719 37.079638270748845 64.171578138528815 0 0 1 I I #
straight-curve $-1 43.554108159419719 9.9354689098163362e-007 65.111247817845111 0 0.49999998660252726 -0.86602541151947299 I I #
edge $-1 $575 -63.231910153508103 $360 -43.554108159419719 $485 $576 forward 7 unknown #
point $-1 43.554108159419719 37.079638270748845 7.7228217213218358 #
point $-1 43.554108159419719 33.133223065006348 7.7228217213218358 #
edge $-1 $577 1 $577 0 $363 $-1 forward 7 unknown #
vertex $-1 $364 $578 #
ellipse-curve $-1 49.176337300587825 32.093551863016962 2.565639450288927 0 0.86602541151947299 0.49999998660252726 1.5 0 0 1 I I #
point $-1 50.676337300587825 35.106430667877589 4.3051257771650029 #
edge $-1 $579 1 $579 0 $367 $-1 forward 7 unknown #
vertex $-1 $368 $580 #
ellipse-curve $-1 57.609681012339983 32.093551863016962 2.565639450288927 0 0.86602541151947299 0.49999998660252726 1.5 0 0 1 I I #
point $-1 59.109681012339983 35.106430667877589 4.3051257771650029 #
plane-surface $-1 63.231910153508103 0 0 -1 0 0 0 0 1 forward_v I I I I #
coedge $-1 $374 $511 $377 $505 reversed $261 $-1 #
vertex $-1 $505 $581 #
straight-curve $-1 -63.231910153508103 -37.079638270748845 0 0 0 -1 I I #
edge $-1 $503 -37.079638270748845 $507 37.079638270748845 $502 $582 forward 7 unknown #
straight-curve $-1 0 -37.079638270748845 -7.7228217213218358 -1 0 0 I I #
vertex $-1 $380 $583 #
straight-curve $-1 0 37.079638270748845 -7.7228217213218358 1 0 0 I I #
point $-1 63.231910153508103 37.079638270748845 -7.7228217213218358 #
point $-1 63.231910153508103 -37.079638270748845 -7.7228217213218358 #
coedge $-1 $502 $384 $387 $513 forward $261 $-1 #
straight-curve $-1 -63.231910153508103 0 7.7228217213218358 0 -1 0 I I #
edge $-1 $388 -7.7228217213218358 $507 7.7228217213218358 $387 $584 forward 7 unknown #
point $-1 -63.231910153508103 37.079638270748845 7.7228217213218358 #
point $-1 -63.231910153508103 -37.079638270748845 7.7228217213218358 #
straight-curve $-1 63.231910153508103 -37.079638270748845 0 0 0 -1 I I #
straight-curve $-1 63.231910153508103 37.079638270748845 0 0 0 -1 I I #
plane-surface $-1 0 -37.079638270748845 0 0 1 0 0 0 1 forward_v I I I I #
coedge $-1 $585 $532 $401 $521 forward $398 $-1 #
coedge $-1 $522 $400 $409 $530 forward $280 $-1 #
edge $-1 $525 -1.9349831858235462 $523 1.9349831858235462 $401 $586 forward 7 unknown #
coedge $-1 $402 $520 $585 $587 forward $280 $-1 #
vertex $-1 $403 $588 #
straight-curve $-1 -67.8823748161022 37.079638270748845 -2.6289868360195592 1 0 0 I I #
vertex $-1 $404 $589 #
straight-curve $-1 -67.8823748161022 37.079638270748845 1.2409795356275333 -1 0 0 I I #
point $-1 -63.231910153508103 37.079638270748845 -2.6289868360195592 #
straight-curve $-1 -63.231910153508103 0 -2.6289868360195592 0 1 0 I I #
coedge $-1 $409 $408 $590 $591 forward $410 $-1 #
edge $-1 $411 -4.6504646625940964 $592 4.6504646625941035 $409 $593 forward 7 unknown #
point $-1 -63.231910153508103 -37.079638270748845 -2.6289868360195592 #
coedge $-1 $519 $590 $413 $533 reversed $398 $-1 #
edge $-1 $525 -37.079638270748845 $534 37.079638270748845 $532 $594 forward 7 unknown #
vertex $-1 $533 $595 #
straight-curve $-1 -67.8823748161022 -37.079638270748845 1.2409795356275333 1 0 0 I I #
edge $-1 $537 45.796383716446734 $540 51.32405254565969 $418 $596 forward 7 unknown #
vertex $-1 $432 $597 #
straight-curve $-1 -53.930980828319903 -53.89865502566353 7.7228217213218358 0 -1 0 I I #
edge $-1 $540 -30.302185283753364 $429 -16.955405805379716 $428 $598 forward 7 unknown #
vertex $-1 $539 $599 #
straight-curve $-1 -53.930980828319903 -37.079638270748845 2.1951528921088794 0 0.82903756765294845 0.55919291073839883 I I #
point $-1 -53.930980828319903 -28.884532372659983 7.7228217213218366 #
point $-1 -40.584201349946255 -37.079638270748845 2.1951528921088794 #
straight-curve $-1 0 -37.079638270748845 7.7228217213218358 1 0 0 I I #
vertex $-1 $435 $600 #
point $-1 -50.261624932645177 -31.242950486427187 2.380613929708713 #
vertex $-1 $439 $601 #
point $-1 -46.257591089133079 -31.242950486427187 2.380613929708713 #
vertex $-1 $443 $602 #
point $-1 -42.253557245620982 -31.242950486427187 2.380613929708713 #
edge $-1 $552 45.796383716446734 $555 51.32405254565969 $448 $603 forward 7 unknown #
vertex $-1 $462 $604 #
straight-curve $-1 4.6504646625941017 -53.89865502566353 7.7228217213218358 0 -1 0 I I #
edge $-1 $555 -1.011462538296362 $459 12.335316940077288 $458 $605 forward 7 unknown #
vertex $-1 $554 $606 #
straight-curve $-1 4.6504646625941017 -37.079638270748845 2.1951528921088794 0 0.82903756765294845 0.55919291073839883 I I #
point $-1 4.6504646625941017 -28.884532372659983 7.7228217213218366 #
point $-1 17.997244140967751 -37.079638270748845 2.1951528921088794 #
straight-curve $-1 0 -37.079638270748845 7.7228217213218358 1 0 0 I I #
vertex $-1 $465 $607 #
point $-1 8.3198205582688374 -31.242950486427187 2.380613929708713 #
vertex $-1 $469 $608 #
point $-1 12.323854401780928 -31.242950486427187 2.380613929708713 #
vertex $-1 $473 $609 #
point $-1 16.327888245293018 -31.242950486427187 2.380613929708713 #
coedge $-1 $567 $479 $573 $610 reversed $350 $-1 #
coedge $-1 $479 $566 $482 $571 reversed $350 $-1 #
edge $-1 $569 -36.535405575276144 $487 -16.857603581187764 $486 $611 forward 7 unknown #
vertex $-1 $481 $612 #
straight-curve $-1 63.231910153508103 14.096999288124147 40.694529665099324 0 0.49999998660252726 -0.86602541151947299 I I #
edge $-1 $483 33.133223065006348 $575 37.079638270748845 $567 $613 forward 7 unknown #
point $-1 63.231910153508103 33.133223065006348 7.7228217213218358 #
coedge $-1 $486 $485 $566 $610 forward $477 $-1 #
point $-1 43.554108159419719 37.079638270748845 0.88742983300818423 #
vertex $-1 $571 $614 #
straight-curve $-1 0 37.079638270748845 7.7228217213218358 -1 0 0 I I #
vertex $-1 $493 $615 #
point $-1 50.676337300587825 32.093551863016962 2.565639450288927 #
vertex $-1 $497 $616 #
point $-1 59.109681012339983 32.093551863016962 2.565639450288927 #
point $-1 -63.231910153508103 -37.079638270748845 -7.7228217213218358 #
straight-curve $-1 -63.231910153508103 0 -7.7228217213218358 0 1 0 I I #
point $-1 -63.231910153508103 37.079638270748845 -7.7228217213218358 #
straight-curve $-1 -63.231910153508103 37.079638270748845 0 0 0 -1 I I #
coedge $-1 $590 $519 $522 $587 reversed $398 $-1 #
straight-curve $-1 -72.532839478696303 37.079638270748845 -0.69400365019601296 0 0 -1 I I #
edge $-1 $592 -37.079638270748845 $523 37.079638270748845 $585 $617 forward 7 unknown #
point $-1 -72.532839478696303 37.079638270748845 -2.6289868360195592 #
point $-1 -72.532839478696303 37.079638270748845 1.2409795356275333 #
coedge $-1 $532 $585 $529 $591 reversed $398 $-1 #
edge $-1 $534 -1.9349831858235462 $592 1.9349831858235462 $590 $618 forward 7 unknown #
vertex $-1 $587 $619 #
straight-curve $-1 -67.8823748161022 -37.079638270748845 -2.6289868360195592 -1 0 0 I I #
straight-curve $-1 -72.532839478696303 0 1.2409795356275333 0 -1 0 I I #
point $-1 -72.532839478696303 -37.079638270748845 1.2409795356275333 #
straight-curve $-1 -53.930980828319903 -37.079638270748845 53.519205437768569 0 0 -1 I I #
point $-1 -53.930980828319903 -37.079638270748845 7.7228217213218358 #
straight-curve $-1 -23.62879554456654 -37.079638270748845 2.1951528921088777 1 0 0 I I #
point $-1 -53.930980828319903 -37.079638270748845 2.1951528921088794 #
point $-1 -51.261624932645177 -30.683757575688791 1.5515763620557648 #
point $-1 -47.257591089133079 -30.683757575688791 1.5515763620557648 #
point $-1 -43.253557245620982 -30.683757575688791 1.5515763620557648 #
straight-curve $-1 4.6504646625941017 -37.079638270748845 53.519205437768569 0 0 -1 I I #
point $-1 4.6504646625941017 -37.079638270748845 7.7228217213218358 #
straight-curve $-1 5.6619272008904638 -37.079638270748845 2.1951528921088777 1 0 0 I I #
point $-1 4.6504646625941017 -37.079638270748845 2.1951528921088794 #
point $-1 7.3198205582688374 -30.683757575688791 1.5515763620557648 #
point $-1 11.323854401780928 -30.683757575688791 1.5515763620557648 #
point $-1 15.327888245293018 -30.683757575688791 1.5515763620557648 #
edge $-1 $575 -7.7228217213218358 $569 -0.88742983300818423 $566 $620 forward 7 unknown #
straight-curve $-1 26.696504578231956 37.079638270748845 0.88742983300818423 -1 0 0 I I #
point $-1 63.231910153508103 37.079638270748845 0.88742983300818423 #
straight-curve $-1 63.231910153508103 0 7.7228217213218358 0 1 0 I I #
point $-1 63.231910153508103 37.079638270748845 7.7228217213218358 #
point $-1 49.176337300587825 30.794513745737753 1.8156394703851362 #
point $-1 57.609681012339983 30.794513745737753 1.8156394703851362 #
straight-curve $-1 -72.532839478696303 0 -2.6289868360195592 0 1 0 I I #
straight-curve $-1 -72.532839478696303 -37.079638270748845 -0.69400365019601296 0 0 -1 I I #
point $-1 -72.532839478696303 -37.079638270748845 -2.6289868360195592 #
straight-curve $-1 63.231910153508103 37.079638270748845 0 0 0 -1 I I #
End-of-ACIS-data 