500 0 5 0           
7 Unknown 11 ACIS 5.0 NT 24 Fri Mar 26 18:38:46 1999 
-1 9.9999999999999995e-007 1e-010 
body $-1 $5 $-1 $6 #
body $-1 $7 $-1 $8 #
body $-1 $9 $-1 $10 #
body $-1 $11 $-1 $12 #
body $-1 $13 $-1 $14 #
lump $-1 $-1 $15 $0 #
transform $-1 1 0 0 0 1 0 0 0 1 43.471785637989441 27.632252085619076 7.4663665735543123 1 rotate no_reflect no_shear #
lump $-1 $-1 $16 $1 #
transform $-1 1 0 0 0 1 0 0 0 1 43.471785637989441 27.632252085619076 7.4663665735543123 1 rotate no_reflect no_shear #
lump $-1 $-1 $17 $2 #
transform $-1 1 0 0 0 1 0 0 0 1 43.471785637989441 27.632252085619076 7.4663665735543123 1 rotate no_reflect no_shear #
lump $-1 $-1 $18 $3 #
transform $-1 1 0 0 0 1 0 0 0 1 43.471785637989441 27.632252085619076 7.4663665735543123 1 rotate no_reflect no_shear #
lump $-1 $-1 $19 $4 #
transform $-1 1 0 0 0 1 0 0 0 1 43.471785637989441 27.632252085619076 7.4663665735543123 1 rotate no_reflect no_shear #
shell $-1 $-1 $-1 $20 $-1 $5 #
shell $-1 $-1 $-1 $21 $-1 $7 #
shell $-1 $-1 $-1 $22 $-1 $9 #
shell $-1 $-1 $-1 $23 $-1 $11 #
shell $-1 $-1 $-1 $24 $-1 $13 #
face $-1 $25 $26 $15 $-1 $27 forward single #
face $-1 $28 $29 $16 $-1 $30 forward single #
face $-1 $31 $32 $17 $-1 $33 reversed single #
face $-1 $34 $35 $18 $-1 $36 forward single #
face $-1 $37 $38 $19 $-1 $39 forward single #
face $-1 $40 $41 $15 $-1 $42 reversed single #
loop $-1 $-1 $43 $20 #
plane-surface $-1 0 0 7.4663665735543123 0 0 1 1 0 0 forward_v I I I I #
face $-1 $44 $45 $16 $-1 $46 reversed single #
loop $-1 $-1 $47 $21 #
plane-surface $-1 0 -27.632252085619076 0 0 1 0 0 0 1 forward_v I I I I #
face $-1 $48 $49 $17 $-1 $50 reversed single #
loop $-1 $-1 $51 $22 #
plane-surface $-1 11.002864575173643 37.611036872415383 104.54613078740016 1 0 0 0 -0.61566148304635926 -0.78801074757464917 forward_v I I I I #
face $-1 $52 $53 $18 $-1 $54 forward single #
loop $-1 $55 $56 $23 #
cone-surface $-1 13.509255072542636 23.832144840668541 4.3438957087498631 0 -0.61566148304635926 -0.78801074757464917 0.5 0 0 1 I I 0 1 0.5 forward I I I I #
face $-1 $57 $58 $19 $-1 $59 forward single #
loop $-1 $60 $61 $24 #
cone-surface $-1 17.268840818596118 23.832144840668541 4.3438957087498631 0 -0.61566148304635926 -0.78801074757464917 0.5 0 0 1 I I 0 1 0.5 forward I I I I #
face $-1 $62 $63 $15 $-1 $64 reversed single #
loop $-1 $-1 $65 $25 #
plane-surface $-1 0 0 -7.4663665735543123 0 0 1 1 0 0 forward_v I I I I #
coedge $-1 $66 $67 $68 $69 forward $26 $-1 #
face $-1 $70 $71 $16 $-1 $72 forward single #
loop $-1 $-1 $73 $28 #
plane-surface $-1 -43.471785637989441 0 0 1 0 0 0 0 -1 forward_v I I I I #
coedge $-1 $74 $75 $76 $77 forward $29 $-1 #
face $-1 $78 $79 $17 $-1 $80 reversed single #
loop $-1 $-1 $81 $31 #
plane-surface $-1 15.389047945569374 -15.91677116070062 36.033662189406243 0 0.61566148304635926 0.78801074757464917 1 0 0 forward_v I I I I #
coedge $-1 $82 $83 $84 $85 reversed $32 $-1 #
face $-1 $-1 $86 $18 $-1 $87 forward single #
loop $-1 $88 $89 $34 #
cone-surface $-1 13.509255072542636 23.370398728383773 3.7528876480688762 0 -0.61566148304635926 -0.78801074757464917 0.25 0 0 1 I I -0.70710678118654746 0.70710678118654746 0.25 forward I I I I #
loop $-1 $-1 $90 $23 #
coedge $-1 $56 $56 $91 $92 reversed $35 $-1 #
face $-1 $-1 $93 $19 $-1 $94 forward single #
loop $-1 $95 $96 $37 #
cone-surface $-1 17.268840818596118 23.370398728383773 3.7528876480688762 0 -0.61566148304635926 -0.78801074757464917 0.25 0 0 1 I I -0.70710678118654746 0.70710678118654746 0.25 forward I I I I #
loop $-1 $-1 $97 $24 #
coedge $-1 $61 $61 $98 $99 reversed $38 $-1 #
face $-1 $100 $101 $15 $-1 $102 reversed single #
loop $-1 $-1 $103 $40 #
plane-surface $-1 0 -27.632252085619076 0 0 1 0 0 0 1 forward_v I I I I #
coedge $-1 $104 $105 $106 $107 forward $41 $-1 #
coedge $-1 $108 $43 $109 $110 forward $26 $-1 #
coedge $-1 $43 $108 $111 $112 forward $26 $-1 #
coedge $-1 $113 $114 $43 $69 reversed $115 $-1 #
edge $-1 $116 -27.632252085619076 $117 27.632252085619076 $68 $118 forward 7 unknown #
face $-1 $119 $120 $16 $-1 $121 reversed single #
loop $-1 $-1 $122 $44 #
plane-surface $-1 0 -32.043692808429668 5.6772031484087488 0 0 1 1 0 0 forward_v I I I I #
coedge $-1 $123 $124 $75 $125 forward $45 $-1 #
coedge $-1 $126 $47 $127 $128 reversed $29 $-1 #
coedge $-1 $47 $126 $73 $125 reversed $29 $-1 #
coedge $-1 $129 $122 $47 $77 reversed $71 $-1 #
edge $-1 $130 -43.471785637989441 $131 43.471785637989441 $76 $132 forward 7 unknown #
face $-1 $133 $134 $17 $-1 $135 forward single #
loop $-1 $-1 $136 $48 #
plane-surface $-1 19.775231315965105 37.611036872415383 104.54613078740016 -1 0 0 0 0.61566148304635926 0.78801074757464917 forward_v I I I I #
coedge $-1 $137 $138 $139 $140 reversed $49 $-1 #
coedge $-1 $83 $51 $141 $142 reversed $32 $-1 #
coedge $-1 $51 $82 $137 $143 reversed $32 $-1 #
coedge $-1 $139 $144 $51 $85 forward $134 $-1 #
edge $-1 $145 -8.8267336494113842 $146 -1.8421806425566771 $84 $147 forward 7 unknown #
loop $-1 $-1 $91 $52 #
plane-surface $-1 15.389047945569374 -15.91677116070062 36.033662189406243 0 0.61566148304635926 0.78801074757464917 1 0 0 forward_v I I I I #
loop $-1 $-1 $148 $34 #
coedge $-1 $89 $89 $90 $149 reversed $53 $-1 #
coedge $-1 $90 $90 $89 $149 forward $55 $-1 #
coedge $-1 $91 $91 $56 $92 forward $86 $-1 #
edge $-1 $150 2.3182496654064245e-015 $150 6.2831853071796031 $91 $151 forward 7 unknown #
loop $-1 $-1 $98 $57 #
plane-surface $-1 15.389047945569374 -15.91677116070062 36.033662189406243 0 0.61566148304635926 0.78801074757464917 1 0 0 forward_v I I I I #
loop $-1 $-1 $152 $37 #
coedge $-1 $96 $96 $97 $153 reversed $58 $-1 #
coedge $-1 $97 $97 $96 $153 forward $60 $-1 #
coedge $-1 $98 $98 $61 $99 forward $93 $-1 #
edge $-1 $154 2.3182496654064245e-015 $154 6.2831853071796031 $98 $155 forward 7 unknown #
face $-1 $156 $157 $15 $-1 $158 reversed single #
loop $-1 $-1 $159 $62 #
plane-surface $-1 -43.471785637989441 0 0 1 0 0 0 0 -1 forward_v I I I I #
coedge $-1 $160 $111 $161 $162 forward $63 $-1 #
coedge $-1 $163 $65 $160 $164 forward $41 $-1 #
coedge $-1 $65 $163 $165 $166 forward $41 $-1 #
coedge $-1 $114 $113 $65 $107 reversed $115 $-1 #
edge $-1 $167 -27.632252085619076 $168 27.632252085619076 $106 $169 forward 7 unknown #
coedge $-1 $67 $66 $170 $171 forward $26 $-1 #
coedge $-1 $172 $173 $66 $110 reversed $157 $-1 #
edge $-1 $117 -43.471785637989441 $174 43.471785637989441 $109 $175 forward 7 unknown #
coedge $-1 $103 $176 $67 $112 reversed $63 $-1 #
edge $-1 $177 -43.471785637989441 $116 43.471785637989441 $111 $178 forward 7 unknown #
coedge $-1 $106 $68 $176 $179 forward $115 $-1 #
coedge $-1 $68 $106 $172 $180 reversed $115 $-1 #
loop $-1 $-1 $113 $156 #
vertex $-1 $69 $181 #
vertex $-1 $69 $182 #
straight-curve $-1 43.471785637989441 0 7.4663665735543123 0 1 0 I I #
face $-1 $183 $184 $16 $-1 $185 reversed single #
loop $-1 $-1 $186 $70 #
plane-surface $-1 0 -32.043692808429668 2.6772031484087488 0 0 1 1 0 0 forward_v I I I I #
coedge $-1 $76 $187 $188 $189 forward $71 $-1 #
coedge $-1 $190 $73 $191 $192 reversed $45 $-1 #
coedge $-1 $73 $190 $129 $193 reversed $45 $-1 #
edge $-1 $130 -5.6772031484087488 $194 -2.6772031484087488 $73 $195 forward 7 unknown #
coedge $-1 $75 $74 $196 $197 forward $29 $-1 #
coedge $-1 $188 $198 $74 $128 forward $199 $-1 #
edge $-1 $200 2.6772031484087488 $131 5.6772031484087488 $127 $201 forward 7 unknown #
coedge $-1 $187 $76 $124 $193 forward $71 $-1 #
vertex $-1 $125 $202 #
vertex $-1 $189 $203 #
straight-curve $-1 0 -27.632252085619076 5.6772031484087488 1 0 0 I I #
face $-1 $-1 $204 $17 $-1 $205 reversed single #
loop $-1 $-1 $84 $78 #
plane-surface $-1 0 0 7.4663665735543123 0 0 1 1 0 0 forward_v I I I I #
coedge $-1 $206 $207 $208 $209 reversed $79 $-1 #
coedge $-1 $210 $81 $83 $143 forward $49 $-1 #
coedge $-1 $81 $210 $206 $211 forward $49 $-1 #
coedge $-1 $208 $84 $81 $140 forward $134 $-1 #
edge $-1 $146 3.3083406023889559 $212 12.080707343180418 $139 $213 forward 7 unknown #
coedge $-1 $214 $215 $82 $142 forward $204 $-1 #
edge $-1 $216 -50.263629802180027 $145 -44.806698820145769 $141 $217 forward 7 unknown #
edge $-1 $146 46.400979113550974 $216 55.264504171238151 $83 $218 forward 7 unknown #
coedge $-1 $84 $208 $214 $219 forward $134 $-1 #
vertex $-1 $142 $220 #
vertex $-1 $85 $221 #
straight-curve $-1 11.002864575173643 18.805518436207691 7.4663665735543105 0 -1 0 I I #
coedge $-1 $148 $148 $-1 $222 reversed $88 $-1 #
edge $-1 $223 0 $223 6.2831853071796004 $89 $224 forward 7 unknown #
vertex $-1 $92 $225 #
ellipse-curve $-1 13.509255072542636 24.139975582191717 4.737901082537185 0 0.61566148304635926 0.78801074757464917 0.5 0 0 1 I I #
coedge $-1 $152 $152 $-1 $226 reversed $95 $-1 #
edge $-1 $227 0 $227 6.2831853071796004 $96 $228 forward 7 unknown #
vertex $-1 $99 $229 #
ellipse-curve $-1 17.268840818596118 24.139975582191717 4.737901082537185 0 0.61566148304635926 0.78801074757464917 0.5 0 0 1 I I #
face $-1 $-1 $115 $15 $-1 $230 reversed single #
loop $-1 $-1 $172 $100 #
plane-surface $-1 0 27.632252085619076 0 0 -1 0 0 0 -1 forward_v I I I I #
coedge $-1 $231 $170 $173 $232 forward $101 $-1 #
coedge $-1 $176 $103 $104 $164 reversed $63 $-1 #
coedge $-1 $170 $231 $103 $162 reversed $101 $-1 #
edge $-1 $177 -7.4663665735543123 $233 7.4663665735543123 $161 $234 forward 7 unknown #
coedge $-1 $105 $104 $231 $235 forward $41 $-1 #
edge $-1 $168 -43.471785637989441 $233 43.471785637989441 $160 $236 forward 7 unknown #
coedge $-1 $173 $172 $105 $166 reversed $157 $-1 #
edge $-1 $237 -43.471785637989441 $167 43.471785637989441 $165 $238 forward 7 unknown #
vertex $-1 $107 $239 #
vertex $-1 $179 $240 #
straight-curve $-1 43.471785637989441 0 -7.4663665735543123 0 -1 0 I I #
coedge $-1 $159 $161 $108 $171 reversed $101 $-1 #
edge $-1 $174 -27.632252085619076 $177 27.632252085619076 $170 $241 forward 7 unknown #
coedge $-1 $165 $109 $114 $180 forward $157 $-1 #
coedge $-1 $109 $165 $159 $232 reversed $157 $-1 #
vertex $-1 $110 $242 #
straight-curve $-1 0 27.632252085619076 7.4663665735543123 -1 0 0 I I #
coedge $-1 $111 $160 $113 $179 reversed $63 $-1 #
vertex $-1 $171 $243 #
straight-curve $-1 0 -27.632252085619076 7.4663665735543123 1 0 0 I I #
edge $-1 $116 -7.4663665735543123 $168 7.4663665735543123 $113 $244 forward 7 unknown #
edge $-1 $117 -7.4663665735543123 $167 7.4663665735543123 $114 $245 forward 7 unknown #
point $-1 43.471785637989441 -27.632252085619076 7.4663665735543123 #
point $-1 43.471785637989441 27.632252085619076 7.4663665735543123 #
face $-1 $-1 $199 $16 $-1 $246 reversed single #
loop $-1 $-1 $247 $119 #
plane-surface $-1 0 -36.455133531240257 4.1772031484087488 0 1 0 0 0 1 forward_v I I I I #
coedge $-1 $248 $196 $198 $249 forward $120 $-1 #
coedge $-1 $122 $129 $250 $251 forward $71 $-1 #
coedge $-1 $252 $127 $122 $189 reversed $199 $-1 #
edge $-1 $253 -4.411440722810589 $131 4.411440722810589 $188 $254 forward 7 unknown #
coedge $-1 $124 $123 $247 $255 reversed $45 $-1 #
coedge $-1 $196 $248 $123 $192 forward $120 $-1 #
edge $-1 $256 -4.411440722810589 $194 4.411440722810589 $123 $257 forward 7 unknown #
edge $-1 $130 -4.411440722810589 $258 4.411440722810589 $124 $259 forward 7 unknown #
vertex $-1 $125 $260 #
straight-curve $-1 -43.471785637989441 -27.632252085619076 0 0 0 -1 I I #
coedge $-1 $186 $191 $126 $197 reversed $120 $-1 #
edge $-1 $200 -43.471785637989441 $194 43.471785637989441 $196 $261 forward 7 unknown #
coedge $-1 $127 $252 $186 $249 reversed $199 $-1 #
loop $-1 $-1 $127 $183 #
vertex $-1 $128 $262 #
straight-curve $-1 43.471785637989441 -27.632252085619076 0 0 0 1 I I #
point $-1 -43.471785637989441 -27.632252085619079 5.6772031484087488 #
point $-1 43.471785637989441 -27.632252085619079 5.6772031484087488 #
loop $-1 $-1 $141 $133 #
plane-surface $-1 0 27.632252085619076 0 0 -1 0 0 0 -1 forward_v I I I I #
coedge $-1 $207 $136 $138 $211 reversed $79 $-1 #
coedge $-1 $136 $206 $263 $264 reversed $79 $-1 #
coedge $-1 $144 $139 $136 $209 forward $134 $-1 #
edge $-1 $212 1.8421806425566771 $265 8.8267336494113842 $208 $266 forward 7 unknown #
coedge $-1 $138 $137 $215 $267 reversed $49 $-1 #
edge $-1 $268 -55.264504171238151 $212 -46.400979113550974 $206 $269 forward 7 unknown #
vertex $-1 $140 $270 #
straight-curve $-1 7.6945239727846868 20.647699078764362 7.4663665735543141 1 0 0 I I #
coedge $-1 $263 $141 $144 $219 reversed $204 $-1 #
coedge $-1 $141 $263 $210 $267 forward $204 $-1 #
vertex $-1 $142 $271 #
straight-curve $-1 11.002864575173643 27.632252085619076 52.27306539370008 0 0 1 I I #
straight-curve $-1 11.002864575173643 -15.91677116070062 36.033662189406243 0 0.78801074757464917 -0.61566148304635926 I I #
edge $-1 $265 -19.775231315965105 $145 -11.002864575173643 $214 $272 forward 7 unknown #
point $-1 11.002864575173643 27.632252085619076 7.4663665735543123 #
point $-1 11.002864575173643 20.647699078764369 7.4663665735543105 #
edge $-1 $273 1 $273 0 $148 $-1 forward 7 unknown #
vertex $-1 $149 $274 #
ellipse-curve $-1 13.509255072542636 23.524314099145361 3.9498903349625385 0 0.61566148304635926 0.78801074757464917 0.5 0 0 1 I I #
point $-1 14.009255072542636 24.13997558219172 4.7379010825371877 #
edge $-1 $275 1 $275 0 $152 $-1 forward 7 unknown #
vertex $-1 $153 $276 #
ellipse-curve $-1 17.268840818596118 23.524314099145361 3.9498903349625385 0 0.61566148304635926 0.78801074757464917 0.5 0 0 1 I I #
point $-1 17.768840818596118 24.13997558219172 4.7379010825371877 #
plane-surface $-1 43.471785637989441 0 0 -1 0 0 0 0 1 forward_v I I I I #
coedge $-1 $161 $159 $163 $235 reversed $101 $-1 #
edge $-1 $174 -7.4663665735543123 $237 7.4663665735543123 $173 $277 forward 7 unknown #
vertex $-1 $235 $278 #
straight-curve $-1 -43.471785637989441 -27.632252085619076 0 0 0 -1 I I #
edge $-1 $233 -27.632252085619076 $237 27.632252085619076 $231 $279 forward 7 unknown #
straight-curve $-1 0 -27.632252085619076 -7.4663665735543123 -1 0 0 I I #
vertex $-1 $166 $280 #
straight-curve $-1 0 27.632252085619076 -7.4663665735543123 1 0 0 I I #
point $-1 43.471785637989441 27.632252085619076 -7.4663665735543123 #
point $-1 43.471785637989441 -27.632252085619076 -7.4663665735543123 #
straight-curve $-1 -43.471785637989441 0 7.4663665735543123 0 -1 0 I I #
point $-1 -43.471785637989441 27.632252085619076 7.4663665735543123 #
point $-1 -43.471785637989441 -27.632252085619076 7.4663665735543123 #
straight-curve $-1 43.471785637989441 -27.632252085619076 0 0 0 -1 I I #
straight-curve $-1 43.471785637989441 27.632252085619076 0 0 0 -1 I I #
plane-surface $-1 43.471785637989441 0 0 -1 0 0 0 0 1 forward_v I I I I #
coedge $-1 $281 $250 $190 $255 forward $184 $-1 #
coedge $-1 $191 $186 $281 $282 forward $120 $-1 #
edge $-1 $200 -4.411440722810589 $283 4.411440722810589 $198 $284 forward 7 unknown #
coedge $-1 $247 $285 $187 $251 reversed $184 $-1 #
edge $-1 $258 -43.471785637989441 $253 43.471785637989441 $250 $286 forward 7 unknown #
coedge $-1 $198 $188 $285 $287 forward $199 $-1 #
vertex $-1 $189 $288 #
straight-curve $-1 43.471785637989441 -32.043692808429668 5.6772031484087488 0 1 0 I I #
edge $-1 $258 -1.5 $256 1.5 $190 $289 forward 7 unknown #
vertex $-1 $192 $290 #
straight-curve $-1 -43.471785637989441 -32.043692808429668 2.6772031484087488 0 1 0 I I #
vertex $-1 $193 $291 #
straight-curve $-1 -43.471785637989441 -32.043692808429668 5.6772031484087488 0 -1 0 I I #
point $-1 -43.471785637989441 -27.632252085619079 2.6772031484087488 #
straight-curve $-1 0 -27.632252085619076 2.6772031484087488 -1 0 0 I I #
point $-1 43.471785637989441 -27.632252085619079 2.6772031484087488 #
coedge $-1 $215 $214 $207 $264 forward $204 $-1 #
edge $-1 $265 44.806698820145769 $268 50.263629802180027 $263 $292 forward 7 unknown #
vertex $-1 $219 $293 #
straight-curve $-1 19.775231315965105 18.805518436207691 7.4663665735543105 0 1 0 I I #
edge $-1 $268 -12.080707343180418 $216 -3.3083406023889559 $215 $294 forward 7 unknown #
vertex $-1 $267 $295 #
straight-curve $-1 19.775231315965105 -15.91677116070062 36.033662189406243 0 -0.78801074757464917 0.61566148304635926 I I #
point $-1 19.775231315965105 20.647699078764369 7.4663665735543105 #
point $-1 11.002864575173643 27.632252085619072 2.0094355915200524 #
straight-curve $-1 0 27.632252085619076 7.4663665735543123 -1 0 0 I I #
vertex $-1 $222 $296 #
point $-1 14.009255072542636 23.524314099145361 3.9498903349625385 #
vertex $-1 $226 $297 #
point $-1 17.768840818596118 23.524314099145361 3.9498903349625385 #
straight-curve $-1 -43.471785637989441 27.632252085619076 0 0 0 -1 I I #
point $-1 -43.471785637989441 -27.632252085619076 -7.4663665735543123 #
straight-curve $-1 -43.471785637989441 0 -7.4663665735543123 0 1 0 I I #
point $-1 -43.471785637989441 27.632252085619076 -7.4663665735543123 #
coedge $-1 $285 $247 $248 $282 reversed $184 $-1 #
edge $-1 $283 -43.471785637989441 $256 43.471785637989441 $281 $298 forward 7 unknown #
vertex $-1 $287 $299 #
straight-curve $-1 43.471785637989441 -32.043692808429668 2.6772031484087488 0 -1 0 I I #
coedge $-1 $250 $281 $252 $287 reversed $184 $-1 #
straight-curve $-1 0 -36.455133531240257 5.6772031484087488 1 0 0 I I #
edge $-1 $253 -1.5 $283 1.5 $252 $300 forward 7 unknown #
point $-1 43.471785637989441 -36.455133531240257 5.6772031484087488 #
straight-curve $-1 -43.471785637989441 -36.455133531240257 4.1772031484087488 0 0 -1 I I #
point $-1 -43.471785637989441 -36.455133531240257 2.6772031484087488 #
point $-1 -43.471785637989441 -36.455133531240257 5.6772031484087488 #
straight-curve $-1 19.775231315965105 27.632252085619076 52.27306539370008 0 0 -1 I I #
point $-1 19.775231315965105 27.632252085619076 7.4663665735543123 #
straight-curve $-1 7.6945239727846868 27.632252085619076 2.0094355915200559 -1 0 0 I I #
point $-1 19.775231315965105 27.632252085619072 2.0094355915200524 #
point $-1 13.509255072542636 23.216483357622185 3.5558849611752139 #
point $-1 17.268840818596118 23.216483357622185 3.5558849611752139 #
straight-curve $-1 0 -36.455133531240257 2.6772031484087488 -1 0 0 I I #
point $-1 43.471785637989441 -36.455133531240257 2.6772031484087488 #
straight-curve $-1 43.471785637989441 -36.455133531240257 4.1772031484087488 0 0 -1 I I #
End-of-ACIS-data 