500 0 6 0           
7 Unknown 11 ACIS 5.0 NT 24 Thu Mar 25 15:20:38 1999 
-1 9.9999999999999995e-007 1e-010 
body $-1 $6 $-1 $7 #
body $-1 $8 $-1 $9 #
body $-1 $10 $-1 $11 #
body $-1 $12 $-1 $13 #
body $-1 $14 $-1 $15 #
body $-1 $16 $-1 $17 #
lump $-1 $-1 $18 $0 #
transform $-1 1 0 0 0 1 0 0 0 1 72.776879177220991 33.600365720659035 11.590470099203742 1 rotate no_reflect no_shear #
lump $-1 $-1 $19 $1 #
transform $-1 1 0 0 0 1 0 0 0 1 72.776879177220991 33.600365720659035 11.590470099203742 1 rotate no_reflect no_shear #
lump $-1 $-1 $20 $2 #
transform $-1 1 0 0 0 1 0 0 0 1 72.776879177220991 33.600365720659035 11.590470099203742 1 rotate no_reflect no_shear #
lump $-1 $-1 $21 $3 #
transform $-1 1 0 0 0 1 0 0 0 1 72.776879177220991 33.600365720659035 11.590470099203742 1 rotate no_reflect no_shear #
lump $-1 $-1 $22 $4 #
transform $-1 1 0 0 0 1 0 0 0 1 72.776879177220991 33.600365720659035 11.590470099203742 1 rotate no_reflect no_shear #
lump $-1 $-1 $23 $5 #
transform $-1 1 0 0 0 1 0 0 0 1 72.776879177220991 33.600365720659035 11.590470099203742 1 rotate no_reflect no_shear #
shell $-1 $-1 $-1 $24 $-1 $6 #
shell $-1 $-1 $-1 $25 $-1 $8 #
shell $-1 $-1 $-1 $26 $-1 $10 #
shell $-1 $-1 $-1 $27 $-1 $12 #
shell $-1 $-1 $-1 $28 $-1 $14 #
shell $-1 $-1 $-1 $29 $-1 $16 #
face $-1 $30 $31 $18 $-1 $32 forward single #
face $-1 $33 $34 $19 $-1 $35 forward single #
face $-1 $36 $37 $20 $-1 $38 reversed single #
face $-1 $39 $40 $21 $-1 $41 forward single #
face $-1 $42 $43 $22 $-1 $44 forward single #
face $-1 $45 $46 $23 $-1 $47 forward single #
face $-1 $48 $49 $18 $-1 $50 reversed single #
loop $-1 $-1 $51 $24 #
plane-surface $-1 0 0 11.590470099203742 0 0 1 1 0 0 forward_v I I I I #
face $-1 $52 $53 $19 $-1 $54 reversed single #
loop $-1 $-1 $55 $25 #
plane-surface $-1 -72.776879177220991 0 0 1 0 0 0 0 -1 forward_v I I I I #
face $-1 $56 $57 $20 $-1 $58 reversed single #
loop $-1 $-1 $59 $26 #
plane-surface $-1 65.354667617375043 -33.600365720659042 3.9881048356299829 0 -0.61566148304635926 0.78801074757464917 1 0 0 forward_v I I I I #
face $-1 $60 $61 $21 $-1 $62 forward single #
loop $-1 $63 $64 $27 #
cone-surface $-1 60.901340681467445 -27.583059618694282 6.3147764360119503 0 0.61566148304635926 -0.78801074757464917 1 0 0 1 I I 0 1 1 forward I I I I #
face $-1 $65 $66 $22 $-1 $67 forward single #
loop $-1 $68 $69 $28 #
cone-surface $-1 65.354667617375014 -27.583059618694282 6.3147764360119503 0 0.61566148304635926 -0.78801074757464917 1 0 0 1 I I 0 1 1 forward I I I I #
face $-1 $70 $71 $23 $-1 $72 forward single #
loop $-1 $73 $74 $29 #
cone-surface $-1 69.807994553282583 -27.583059618694282 6.3147764360119503 0 0.61566148304635926 -0.78801074757464917 1 0 0 1 I I 0 1 1 forward I I I I #
face $-1 $75 $76 $18 $-1 $77 reversed single #
loop $-1 $-1 $78 $30 #
plane-surface $-1 0 0 -11.590470099203742 0 0 1 1 0 0 forward_v I I I I #
coedge $-1 $79 $80 $81 $82 forward $31 $-1 #
face $-1 $83 $84 $19 $-1 $85 forward single #
loop $-1 $-1 $86 $33 #
plane-surface $-1 0 33.600365720659035 0 0 -1 0 0 0 -1 forward_v I I I I #
coedge $-1 $87 $88 $89 $90 forward $34 $-1 #
face $-1 $91 $92 $20 $-1 $93 reversed single #
loop $-1 $-1 $94 $36 #
plane-surface $-1 57.93245605752908 -123.21220845212619 118.68603076881365 1 0 0 0 0.61566148304635926 -0.78801074757464917 forward_v I I I I #
coedge $-1 $95 $96 $97 $98 reversed $37 $-1 #
face $-1 $-1 $99 $21 $-1 $100 forward single #
loop $-1 $101 $102 $39 #
cone-surface $-1 60.901340681467445 -26.123214578943575 4.4462600308197224 0 0.61566148304635926 -0.78801074757464917 0.5 0 0 1 I I -0.70710678118654746 0.70710678118654746 0.5 forward I I I I #
loop $-1 $-1 $103 $27 #
coedge $-1 $64 $64 $104 $105 reversed $40 $-1 #
face $-1 $-1 $106 $22 $-1 $107 forward single #
loop $-1 $108 $109 $42 #
cone-surface $-1 65.354667617375014 -26.123214578943575 4.4462600308197224 0 0.61566148304635926 -0.78801074757464917 0.5 0 0 1 I I -0.70710678118654746 0.70710678118654746 0.5 forward I I I I #
loop $-1 $-1 $110 $28 #
coedge $-1 $69 $69 $111 $112 reversed $43 $-1 #
face $-1 $-1 $113 $23 $-1 $114 forward single #
loop $-1 $115 $116 $45 #
cone-surface $-1 69.807994553282583 -26.123214578943575 4.4462600308197224 0 0.61566148304635926 -0.78801074757464917 0.5 0 0 1 I I -0.70710678118654746 0.70710678118654746 0.5 forward I I I I #
loop $-1 $-1 $117 $29 #
coedge $-1 $74 $74 $118 $119 reversed $46 $-1 #
face $-1 $120 $121 $18 $-1 $122 reversed single #
loop $-1 $-1 $123 $48 #
plane-surface $-1 0 -33.600365720659035 0 0 1 0 0 0 1 forward_v I I I I #
coedge $-1 $124 $125 $126 $127 forward $49 $-1 #
coedge $-1 $128 $51 $129 $130 forward $31 $-1 #
coedge $-1 $51 $128 $131 $132 forward $31 $-1 #
coedge $-1 $133 $134 $51 $82 reversed $135 $-1 #
edge $-1 $136 -33.600365720659035 $137 33.600365720659035 $81 $138 forward 7 unknown #
face $-1 $139 $140 $19 $-1 $141 reversed single #
loop $-1 $-1 $89 $52 #
plane-surface $-1 -78.175006122422971 0 -0.055089059604895407 0 0 1 1 0 0 forward_v I I I I #
coedge $-1 $142 $143 $88 $144 forward $53 $-1 #
coedge $-1 $145 $55 $146 $147 reversed $34 $-1 #
coedge $-1 $55 $145 $86 $144 reversed $34 $-1 #
coedge $-1 $148 $149 $55 $90 reversed $84 $-1 #
edge $-1 $150 -33.600365720659035 $151 33.600365720659035 $89 $152 forward 7 unknown #
face $-1 $153 $154 $20 $-1 $155 forward single #
loop $-1 $-1 $156 $56 #
plane-surface $-1 0 -33.600365720659035 0 0 1 0 0 0 1 forward_v I I I I #
coedge $-1 $157 $158 $159 $160 reversed $57 $-1 #
coedge $-1 $161 $59 $162 $163 reversed $37 $-1 #
coedge $-1 $59 $161 $157 $164 forward $37 $-1 #
coedge $-1 $159 $165 $59 $98 forward $154 $-1 #
edge $-1 $166 -40.099545368533484 $167 -25.255122248841559 $97 $168 forward 7 unknown #
loop $-1 $-1 $104 $60 #
plane-surface $-1 65.354667617375043 -33.600365720659042 3.9881048356299829 0 -0.61566148304635926 0.78801074757464917 1 0 0 forward_v I I I I #
loop $-1 $-1 $169 $39 #
coedge $-1 $102 $102 $103 $170 reversed $61 $-1 #
coedge $-1 $103 $103 $102 $170 forward $63 $-1 #
coedge $-1 $104 $104 $64 $105 forward $99 $-1 #
edge $-1 $171 -2.0562882792523824e-015 $171 6.2831853071795987 $104 $172 forward 7 unknown #
loop $-1 $-1 $111 $65 #
plane-surface $-1 65.354667617375043 -33.600365720659042 3.9881048356299829 0 -0.61566148304635926 0.78801074757464917 1 0 0 forward_v I I I I #
loop $-1 $-1 $173 $42 #
coedge $-1 $109 $109 $110 $174 reversed $66 $-1 #
coedge $-1 $110 $110 $109 $174 forward $68 $-1 #
coedge $-1 $111 $111 $69 $112 forward $106 $-1 #
edge $-1 $175 -2.0562882792523824e-015 $175 6.2831853071795987 $111 $176 forward 7 unknown #
loop $-1 $-1 $118 $70 #
plane-surface $-1 65.354667617375043 -33.600365720659042 3.9881048356299829 0 -0.61566148304635926 0.78801074757464917 1 0 0 forward_v I I I I #
loop $-1 $-1 $177 $45 #
coedge $-1 $116 $116 $117 $178 reversed $71 $-1 #
coedge $-1 $117 $117 $116 $178 forward $73 $-1 #
coedge $-1 $118 $118 $74 $119 forward $113 $-1 #
edge $-1 $179 -2.0562882792523824e-015 $179 6.2831853071795987 $118 $180 forward 7 unknown #
face $-1 $181 $182 $18 $-1 $183 reversed single #
loop $-1 $-1 $184 $75 #
plane-surface $-1 -72.776879177220991 0 0 1 0 0 0 0 -1 forward_v I I I I #
coedge $-1 $185 $131 $184 $186 forward $76 $-1 #
coedge $-1 $187 $78 $185 $188 forward $49 $-1 #
coedge $-1 $78 $187 $189 $190 forward $49 $-1 #
coedge $-1 $134 $133 $78 $127 reversed $135 $-1 #
edge $-1 $191 -33.600365720659035 $192 33.600365720659035 $126 $193 forward 7 unknown #
coedge $-1 $80 $79 $194 $195 forward $31 $-1 #
coedge $-1 $196 $197 $79 $130 reversed $182 $-1 #
edge $-1 $137 -72.776879177220991 $198 72.776879177220991 $129 $199 forward 7 unknown #
coedge $-1 $123 $200 $80 $132 reversed $76 $-1 #
edge $-1 $201 -72.776879177220991 $136 72.776879177220991 $131 $202 forward 7 unknown #
coedge $-1 $126 $81 $200 $203 forward $135 $-1 #
coedge $-1 $81 $126 $196 $204 reversed $135 $-1 #
loop $-1 $-1 $133 $181 #
vertex $-1 $82 $205 #
vertex $-1 $82 $206 #
straight-curve $-1 72.776879177220991 0 11.590470099203742 0 1 0 I I #
face $-1 $207 $208 $19 $-1 $209 reversed single #
loop $-1 $-1 $210 $83 #
plane-surface $-1 -78.175006122422971 0 -5.8625983275496836 0 0 1 1 0 0 forward_v I I I I #
coedge $-1 $211 $86 $212 $213 reversed $53 $-1 #
coedge $-1 $86 $211 $148 $214 reversed $53 $-1 #
edge $-1 $150 0.055089059604895407 $215 5.8625983275496836 $86 $216 forward 7 unknown #
coedge $-1 $88 $87 $210 $217 forward $34 $-1 #
coedge $-1 $218 $219 $87 $147 forward $220 $-1 #
edge $-1 $221 -5.8625983275496836 $151 -0.055089059604895407 $146 $222 forward 7 unknown #
coedge $-1 $223 $89 $143 $214 forward $84 $-1 #
coedge $-1 $89 $223 $218 $224 forward $84 $-1 #
vertex $-1 $144 $225 #
vertex $-1 $224 $226 #
straight-curve $-1 -72.776879177220991 0 -0.055089059604895407 0 -1 0 I I #
face $-1 $-1 $227 $20 $-1 $228 reversed single #
loop $-1 $-1 $159 $91 #
plane-surface $-1 0 0 11.590470099203742 0 0 1 1 0 0 forward_v I I I I #
coedge $-1 $229 $230 $158 $231 forward $92 $-1 #
coedge $-1 $158 $94 $96 $164 reversed $57 $-1 #
coedge $-1 $94 $157 $156 $231 reversed $57 $-1 #
coedge $-1 $232 $97 $94 $160 forward $154 $-1 #
edge $-1 $167 -37.73632211287849 $233 -28.005738505404061 $159 $234 forward 7 unknown #
coedge $-1 $96 $95 $229 $235 reversed $37 $-1 #
coedge $-1 $236 $237 $95 $163 forward $227 $-1 #
edge $-1 $238 -12.011063386334907 $166 0.33722454936058704 $162 $239 forward 7 unknown #
edge $-1 $240 9.1534652039358102e-015 $167 12.348287935695504 $157 $241 forward 7 unknown #
coedge $-1 $97 $232 $236 $242 forward $154 $-1 #
vertex $-1 $163 $243 #
vertex $-1 $98 $244 #
straight-curve $-1 32.677333808687521 -23.869782113184613 11.590470099203742 -1 0 0 I I #
coedge $-1 $169 $169 $-1 $245 reversed $101 $-1 #
edge $-1 $246 0 $246 6.2831853071796004 $102 $247 forward 7 unknown #
vertex $-1 $105 $248 #
ellipse-curve $-1 60.901340681467445 -28.73507391692182 7.789287467416866 0 -0.61566148304635926 0.78801074757464917 1 0 0 1 I I #
coedge $-1 $173 $173 $-1 $249 reversed $108 $-1 #
edge $-1 $250 0 $250 6.2831853071796004 $109 $251 forward 7 unknown #
vertex $-1 $112 $252 #
ellipse-curve $-1 65.354667617375014 -28.73507391692182 7.789287467416866 0 -0.61566148304635926 0.78801074757464917 1 0 0 1 I I #
coedge $-1 $177 $177 $-1 $253 reversed $115 $-1 #
edge $-1 $254 0 $254 6.2831853071796004 $116 $255 forward 7 unknown #
vertex $-1 $119 $256 #
ellipse-curve $-1 69.807994553282583 -28.73507391692182 7.789287467416866 0 -0.61566148304635926 0.78801074757464917 1 0 0 1 I I #
face $-1 $-1 $135 $18 $-1 $257 reversed single #
loop $-1 $-1 $196 $120 #
plane-surface $-1 0 33.600365720659035 0 0 -1 0 0 0 -1 forward_v I I I I #
coedge $-1 $194 $258 $123 $186 reversed $121 $-1 #
coedge $-1 $200 $123 $124 $188 reversed $76 $-1 #
edge $-1 $201 -11.590470099203742 $259 11.590470099203742 $184 $260 forward 7 unknown #
coedge $-1 $125 $124 $258 $261 forward $49 $-1 #
edge $-1 $192 -72.776879177220991 $259 72.776879177220991 $185 $262 forward 7 unknown #
coedge $-1 $197 $196 $125 $190 reversed $182 $-1 #
edge $-1 $263 -72.776879177220991 $191 72.776879177220991 $189 $264 forward 7 unknown #
vertex $-1 $127 $265 #
vertex $-1 $203 $266 #
straight-curve $-1 72.776879177220991 0 -11.590470099203742 0 -1 0 I I #
coedge $-1 $267 $184 $128 $195 reversed $121 $-1 #
edge $-1 $198 -33.600365720659035 $201 33.600365720659035 $194 $268 forward 7 unknown #
coedge $-1 $189 $129 $134 $204 forward $182 $-1 #
coedge $-1 $129 $189 $267 $269 reversed $182 $-1 #
vertex $-1 $130 $270 #
straight-curve $-1 0 33.600365720659035 11.590470099203742 -1 0 0 I I #
coedge $-1 $131 $185 $133 $203 reversed $76 $-1 #
vertex $-1 $195 $271 #
straight-curve $-1 0 -33.600365720659035 11.590470099203742 1 0 0 I I #
edge $-1 $136 -11.590470099203742 $192 11.590470099203742 $133 $272 forward 7 unknown #
edge $-1 $137 -11.590470099203742 $191 11.590470099203742 $134 $273 forward 7 unknown #
point $-1 72.776879177220991 -33.600365720659035 11.590470099203742 #
point $-1 72.776879177220991 33.600365720659035 11.590470099203742 #
face $-1 $-1 $220 $19 $-1 $274 reversed single #
loop $-1 $-1 $275 $139 #
plane-surface $-1 -83.573133067624951 0 -2.9588436935772897 1 0 0 0 0 -1 forward_v I I I I #
coedge $-1 $276 $212 $145 $217 reversed $140 $-1 #
coedge $-1 $143 $142 $275 $277 reversed $53 $-1 #
coedge $-1 $210 $278 $142 $213 forward $140 $-1 #
edge $-1 $279 -5.3981269452019802 $215 5.3981269452019802 $142 $280 forward 7 unknown #
edge $-1 $150 -5.3981269452019802 $281 5.3981269452019802 $143 $282 forward 7 unknown #
vertex $-1 $144 $283 #
straight-curve $-1 -72.776879177220991 33.600365720659035 0 0 0 -1 I I #
edge $-1 $221 -33.600365720659035 $215 33.600365720659035 $210 $284 forward 7 unknown #
coedge $-1 $285 $146 $149 $224 reversed $220 $-1 #
coedge $-1 $146 $285 $276 $286 reversed $220 $-1 #
loop $-1 $-1 $146 $207 #
vertex $-1 $147 $287 #
straight-curve $-1 -72.776879177220991 -33.600365720659035 0 0 0 1 I I #
coedge $-1 $149 $148 $288 $289 forward $84 $-1 #
edge $-1 $290 -5.3981269452019802 $151 5.3981269452019802 $218 $291 forward 7 unknown #
point $-1 -72.776879177220991 33.600365720659035 -0.055089059604895407 #
point $-1 -72.776879177220991 -33.600365720659035 -0.055089059604895407 #
loop $-1 $-1 $162 $153 #
plane-surface $-1 72.776879177220991 0 0 -1 0 0 0 0 1 forward_v I I I I #
coedge $-1 $292 $156 $161 $235 forward $92 $-1 #
coedge $-1 $156 $292 $232 $293 reversed $92 $-1 #
edge $-1 $233 47.752545285203084 $240 55.354910548776836 $156 $294 forward 7 unknown #
coedge $-1 $165 $159 $230 $293 forward $154 $-1 #
vertex $-1 $293 $295 #
straight-curve $-1 57.93245605752908 -61.606104226063096 11.590470099203742 0 -1 0 I I #
edge $-1 $240 25.255122248841559 $238 40.099545368533484 $229 $296 forward 7 unknown #
coedge $-1 $237 $162 $165 $242 reversed $227 $-1 #
coedge $-1 $162 $236 $292 $297 forward $227 $-1 #
vertex $-1 $235 $298 #
straight-curve $-1 72.776879177220991 -24.135518682426767 11.382853933024764 0 0.78801074757464917 0.61566148304635926 I I #
vertex $-1 $235 $299 #
straight-curve $-1 57.93245605752908 -33.600365720659042 3.9881048356299829 0 0.78801074757464917 0.61566148304635926 I I #
edge $-1 $300 -33.600365720659035 $166 -23.869782113184606 $236 $301 forward 7 unknown #
point $-1 72.776879177221005 -23.869782113184606 11.590470099203742 #
point $-1 57.93245605752908 -23.869782113184606 11.590470099203742 #
edge $-1 $302 1 $302 0 $169 $-1 forward 7 unknown #
vertex $-1 $170 $303 #
ellipse-curve $-1 60.901340681467445 -26.431045320466755 4.840265404607047 0 -0.61566148304635926 0.78801074757464917 1 0 0 1 I I #
point $-1 61.901340681467445 -28.735073916921813 7.7892874674168535 #
edge $-1 $304 1 $304 0 $173 $-1 forward 7 unknown #
vertex $-1 $174 $305 #
ellipse-curve $-1 65.354667617375014 -26.431045320466755 4.840265404607047 0 -0.61566148304635926 0.78801074757464917 1 0 0 1 I I #
point $-1 66.354667617375014 -28.735073916921813 7.7892874674168535 #
edge $-1 $306 1 $306 0 $177 $-1 forward 7 unknown #
vertex $-1 $178 $307 #
ellipse-curve $-1 69.807994553282583 -26.431045320466755 4.840265404607047 0 -0.61566148304635926 0.78801074757464917 1 0 0 1 I I #
point $-1 70.807994553282583 -28.735073916921813 7.7892874674168535 #
plane-surface $-1 72.776879177220991 0 0 -1 0 0 0 0 1 forward_v I I I I #
coedge $-1 $184 $267 $187 $261 reversed $121 $-1 #
vertex $-1 $261 $308 #
straight-curve $-1 -72.776879177220991 -33.600365720659035 0 0 0 -1 I I #
edge $-1 $259 -33.600365720659035 $263 33.600365720659035 $258 $309 forward 7 unknown #
straight-curve $-1 0 -33.600365720659035 -11.590470099203742 -1 0 0 I I #
vertex $-1 $190 $310 #
straight-curve $-1 0 33.600365720659035 -11.590470099203742 1 0 0 I I #
point $-1 72.776879177220991 33.600365720659035 -11.590470099203742 #
point $-1 72.776879177220991 -33.600365720659035 -11.590470099203742 #
coedge $-1 $258 $194 $197 $269 forward $121 $-1 #
straight-curve $-1 -72.776879177220991 0 11.590470099203742 0 -1 0 I I #
edge $-1 $198 -11.590470099203742 $263 11.590470099203742 $197 $311 forward 7 unknown #
point $-1 -72.776879177220991 33.600365720659035 11.590470099203742 #
point $-1 -72.776879177220991 -33.600365720659035 11.590470099203742 #
straight-curve $-1 72.776879177220991 -33.600365720659035 0 0 0 -1 I I #
straight-curve $-1 72.776879177220991 33.600365720659035 0 0 0 -1 I I #
plane-surface $-1 0 -33.600365720659035 0 0 1 0 0 0 1 forward_v I I I I #
coedge $-1 $312 $288 $211 $277 forward $208 $-1 #
coedge $-1 $278 $210 $219 $286 forward $140 $-1 #
edge $-1 $281 -2.9037546339723943 $279 2.9037546339723939 $211 $313 forward 7 unknown #
coedge $-1 $212 $276 $312 $314 forward $140 $-1 #
vertex $-1 $213 $315 #
straight-curve $-1 -78.175006122422971 33.600365720659035 -5.8625983275496836 1 0 0 I I #
vertex $-1 $214 $316 #
straight-curve $-1 -78.175006122422971 33.600365720659035 -0.055089059604895407 -1 0 0 I I #
point $-1 -72.776879177220991 33.600365720659035 -5.8625983275496836 #
straight-curve $-1 -72.776879177220991 0 -5.8625983275496836 0 1 0 I I #
coedge $-1 $219 $218 $317 $318 forward $220 $-1 #
edge $-1 $221 -5.3981269452019802 $319 5.3981269452019802 $219 $320 forward 7 unknown #
point $-1 -72.776879177220991 -33.600365720659035 -5.8625983275496836 #
coedge $-1 $275 $317 $223 $289 reversed $208 $-1 #
edge $-1 $281 -33.600365720659035 $290 33.600365720659035 $288 $321 forward 7 unknown #
vertex $-1 $289 $322 #
straight-curve $-1 -78.175006122422971 -33.600365720659035 -0.055089059604895407 1 0 0 I I #
coedge $-1 $230 $229 $237 $297 reversed $92 $-1 #
edge $-1 $233 57.93245605752908 $300 72.776879177220991 $230 $323 forward 7 unknown #
straight-curve $-1 57.93245605752908 -33.600365720659035 59.343015384406826 0 0 -1 I I #
point $-1 57.93245605752908 -33.600365720659035 11.590470099203742 #
straight-curve $-1 32.677333808687521 -33.600365720659035 3.9881048356299891 1 0 0 I I #
edge $-1 $300 -11.590470099203742 $238 -3.9881048356299886 $237 $324 forward 7 unknown #
point $-1 72.776879177221005 -33.600365720659035 3.9881048356299886 #
point $-1 57.93245605752908 -33.600365720659035 3.9881048356299886 #
vertex $-1 $242 $325 #
straight-curve $-1 72.776879177220991 0 11.590470099203742 0 1 0 I I #
vertex $-1 $245 $326 #
point $-1 61.901340681467445 -26.431045320466755 4.840265404607047 #
vertex $-1 $249 $327 #
point $-1 66.354667617375014 -26.431045320466755 4.840265404607047 #
vertex $-1 $253 $328 #
point $-1 70.807994553282583 -26.431045320466755 4.840265404607047 #
point $-1 -72.776879177220991 -33.600365720659035 -11.590470099203742 #
straight-curve $-1 -72.776879177220991 0 -11.590470099203742 0 1 0 I I #
point $-1 -72.776879177220991 33.600365720659035 -11.590470099203742 #
straight-curve $-1 -72.776879177220991 33.600365720659035 0 0 0 -1 I I #
coedge $-1 $317 $275 $278 $314 reversed $208 $-1 #
straight-curve $-1 -83.573133067624951 33.600365720659035 -2.9588436935772897 0 0 -1 I I #
edge $-1 $319 -33.600365720659035 $279 33.600365720659035 $312 $329 forward 7 unknown #
point $-1 -83.573133067624951 33.600365720659035 -5.8625983275496836 #
point $-1 -83.573133067624951 33.600365720659035 -0.055089059604895407 #
coedge $-1 $288 $312 $285 $318 reversed $208 $-1 #
edge $-1 $290 -2.9037546339723943 $319 2.9037546339723939 $317 $330 forward 7 unknown #
vertex $-1 $314 $331 #
straight-curve $-1 -78.175006122422971 -33.600365720659035 -5.8625983275496836 -1 0 0 I I #
straight-curve $-1 -83.573133067624951 0 -0.055089059604895407 0 -1 0 I I #
point $-1 -83.573133067624951 -33.600365720659035 -0.055089059604895407 #
straight-curve $-1 0 -33.600365720659035 11.590470099203742 1 0 0 I I #
straight-curve $-1 72.776879177220991 -33.600365720659035 0 0 0 -1 I I #
point $-1 72.776879177220991 -33.600365720659035 11.590470099203742 #
point $-1 60.901340681467445 -25.815383837420395 4.0522546570323978 #
point $-1 65.354667617375014 -25.815383837420395 4.0522546570323978 #
point $-1 69.807994553282583 -25.815383837420395 4.0522546570323978 #
straight-curve $-1 -83.573133067624951 0 -5.8625983275496836 0 1 0 I I #
straight-curve $-1 -83.573133067624951 -33.600365720659035 -2.9588436935772897 0 0 -1 I I #
point $-1 -83.573133067624951 -33.600365720659035 -5.8625983275496836 #
End-of-ACIS-data 