500 0 5 0           
7 Unknown 11 ACIS 5.0 NT 24 Fri Mar 26 17:14:47 1999 
-1 9.9999999999999995e-007 1e-010 
body $-1 $5 $-1 $6 #
body $-1 $7 $-1 $8 #
body $-1 $9 $-1 $10 #
body $-1 $11 $-1 $12 #
body $-1 $13 $-1 $14 #
lump $-1 $-1 $15 $0 #
transform $-1 1 0 0 0 1 0 0 0 1 43.844111453596604 26.26686038700441 9.9157057270134903 1 rotate no_reflect no_shear #
lump $-1 $-1 $16 $1 #
transform $-1 1 0 0 0 1 0 0 0 1 43.844111453596604 26.26686038700441 9.9157057270134903 1 rotate no_reflect no_shear #
lump $-1 $-1 $17 $2 #
transform $-1 1 0 0 0 1 0 0 0 1 43.844111453596604 26.26686038700441 9.9157057270134903 1 rotate no_reflect no_shear #
lump $-1 $-1 $18 $3 #
transform $-1 1 0 0 0 1 0 0 0 1 43.844111453596604 26.26686038700441 9.9157057270134903 1 rotate no_reflect no_shear #
lump $-1 $-1 $19 $4 #
transform $-1 1 0 0 0 1 0 0 0 1 43.844111453596604 26.26686038700441 9.9157057270134903 1 rotate no_reflect no_shear #
shell $-1 $-1 $-1 $20 $-1 $5 #
shell $-1 $-1 $-1 $21 $-1 $7 #
shell $-1 $-1 $-1 $22 $-1 $9 #
shell $-1 $-1 $-1 $23 $-1 $11 #
shell $-1 $-1 $-1 $24 $-1 $13 #
face $-1 $25 $26 $15 $-1 $27 forward single #
face $-1 $28 $29 $16 $-1 $30 forward single #
face $-1 $31 $32 $17 $-1 $33 reversed single #
face $-1 $34 $35 $18 $-1 $36 forward single #
face $-1 $37 $38 $19 $-1 $39 forward single #
face $-1 $40 $41 $15 $-1 $42 reversed single #
loop $-1 $-1 $43 $20 #
plane-surface $-1 0 0 9.9157057270134903 0 0 1 1 0 0 forward_v I I I I #
face $-1 $44 $45 $16 $-1 $46 reversed single #
loop $-1 $-1 $47 $21 #
plane-surface $-1 -43.844111453596604 0 0 1 0 0 0 0 -1 forward_v I I I I #
face $-1 $48 $49 $17 $-1 $50 reversed single #
loop $-1 $-1 $51 $22 #
plane-surface $-1 1.332018612117551 -19.391796080756041 77.537654516280227 0.87461971476443456 0 0.48480960649040278 0.48480960649040278 0 -0.87461971476443456 forward_v I I I I #
face $-1 $52 $53 $18 $-1 $54 forward single #
loop $-1 $55 $56 $23 #
cone-surface $-1 39.243446302219411 -22.338252212005344 4.2232747840788862 -0.87461971476443456 0 -0.48480960649040278 0.72721440973560414 0 -1.311929572146652 1 I I 0 1 1.5 forward I I I I #
face $-1 $57 $58 $19 $-1 $59 forward single #
loop $-1 $60 $61 $24 #
cone-surface $-1 39.243446302219411 -16.445339949506739 4.2232747840788862 -0.87461971476443456 0 -0.48480960649040278 0.72721440973560414 0 -1.311929572146652 1 I I 0 1 1.5 forward I I I I #
face $-1 $62 $63 $15 $-1 $64 reversed single #
loop $-1 $-1 $65 $25 #
plane-surface $-1 0 0 -9.9157057270134903 0 0 1 1 0 0 forward_v I I I I #
coedge $-1 $66 $67 $68 $69 forward $26 $-1 #
face $-1 $70 $71 $16 $-1 $72 forward single #
loop $-1 $-1 $73 $28 #
plane-surface $-1 0 26.26686038700441 0 0 -1 0 0 0 -1 forward_v I I I I #
coedge $-1 $74 $75 $76 $77 forward $29 $-1 #
face $-1 $78 $79 $17 $-1 $80 forward single #
loop $-1 $-1 $81 $31 #
plane-surface $-1 78.025867119407025 -12.516731774507672 120.04974735775929 0 -1 0 -0.87461971476443456 0 -0.48480960649040278 forward_v I I I I #
coedge $-1 $82 $83 $84 $85 reversed $32 $-1 #
face $-1 $-1 $86 $18 $-1 $87 forward single #
loop $-1 $88 $89 $34 #
cone-surface $-1 36.501134335293706 -22.338252212005344 2.7031864952878504 -0.87461971476443456 0 -0.48480960649040278 0.36360720486780207 0 -0.65596478607332598 1 I I -0.70710678118654757 0.70710678118654757 0.75 forward I I I I #
loop $-1 $-1 $90 $23 #
coedge $-1 $56 $56 $91 $92 reversed $35 $-1 #
face $-1 $-1 $93 $19 $-1 $94 forward single #
loop $-1 $95 $96 $37 #
cone-surface $-1 36.501134335293706 -16.445339949506739 2.7031864952878504 -0.87461971476443456 0 -0.48480960649040278 0.36360720486780207 0 -0.65596478607332598 1 I I -0.70710678118654757 0.70710678118654757 0.75 forward I I I I #
loop $-1 $-1 $97 $24 #
coedge $-1 $61 $61 $98 $99 reversed $38 $-1 #
face $-1 $100 $101 $15 $-1 $102 reversed single #
loop $-1 $-1 $103 $40 #
plane-surface $-1 0 -26.26686038700441 0 0 1 0 0 0 1 forward_v I I I I #
coedge $-1 $104 $105 $106 $107 forward $41 $-1 #
coedge $-1 $108 $43 $109 $110 forward $26 $-1 #
coedge $-1 $43 $108 $111 $112 forward $26 $-1 #
coedge $-1 $113 $114 $43 $69 reversed $115 $-1 #
edge $-1 $116 -26.26686038700441 $117 26.26686038700441 $68 $118 forward 7 unknown #
face $-1 $119 $120 $16 $-1 $121 reversed single #
loop $-1 $-1 $76 $44 #
plane-surface $-1 -47.806241900089901 0 -6.1728120274029354 0 0 1 1 0 0 forward_v I I I I #
coedge $-1 $122 $123 $75 $124 forward $45 $-1 #
coedge $-1 $125 $47 $126 $127 reversed $29 $-1 #
coedge $-1 $47 $125 $73 $124 reversed $29 $-1 #
coedge $-1 $128 $129 $47 $77 reversed $71 $-1 #
edge $-1 $130 -26.26686038700441 $131 26.26686038700441 $76 $132 forward 7 unknown #
face $-1 $133 $134 $17 $-1 $135 reversed single #
loop $-1 $-1 $136 $48 #
plane-surface $-1 0 0 9.9157057270134903 0 0 1 1 0 0 forward_v I I I I #
coedge $-1 $137 $138 $139 $140 reversed $49 $-1 #
coedge $-1 $141 $51 $142 $143 reversed $32 $-1 #
coedge $-1 $51 $141 $137 $144 forward $32 $-1 #
coedge $-1 $139 $145 $51 $85 forward $146 $-1 #
edge $-1 $147 -16.570962346626388 $148 -2.8208337341296517 $84 $149 forward 7 unknown #
loop $-1 $-1 $91 $52 #
plane-surface $-1 1.332018612117551 -19.391796080756041 77.537654516280227 0.87461971476443456 0 0.48480960649040278 0.48480960649040278 0 -0.87461971476443456 forward_v I I I I #
loop $-1 $-1 $150 $34 #
coedge $-1 $89 $89 $90 $151 reversed $53 $-1 #
coedge $-1 $90 $90 $89 $151 forward $55 $-1 #
coedge $-1 $91 $91 $56 $92 forward $86 $-1 #
edge $-1 $152 0 $152 6.2831853071796004 $91 $153 forward 7 unknown #
loop $-1 $-1 $98 $57 #
plane-surface $-1 1.332018612117551 -19.391796080756041 77.537654516280227 0.87461971476443456 0 0.48480960649040278 0.48480960649040278 0 -0.87461971476443456 forward_v I I I I #
loop $-1 $-1 $154 $37 #
coedge $-1 $96 $96 $97 $155 reversed $58 $-1 #
coedge $-1 $97 $97 $96 $155 forward $60 $-1 #
coedge $-1 $98 $98 $61 $99 forward $93 $-1 #
edge $-1 $156 0 $156 6.2831853071796004 $98 $157 forward 7 unknown #
face $-1 $158 $159 $15 $-1 $160 reversed single #
loop $-1 $-1 $161 $62 #
plane-surface $-1 -43.844111453596604 0 0 1 0 0 0 0 -1 forward_v I I I I #
coedge $-1 $162 $111 $161 $163 forward $63 $-1 #
coedge $-1 $164 $65 $162 $165 forward $41 $-1 #
coedge $-1 $65 $164 $166 $167 forward $41 $-1 #
coedge $-1 $114 $113 $65 $107 reversed $115 $-1 #
edge $-1 $168 -26.26686038700441 $169 26.26686038700441 $106 $170 forward 7 unknown #
coedge $-1 $67 $66 $171 $172 forward $26 $-1 #
coedge $-1 $173 $174 $66 $110 reversed $159 $-1 #
edge $-1 $117 -43.844111453596604 $175 43.844111453596604 $109 $176 forward 7 unknown #
coedge $-1 $103 $177 $67 $112 reversed $63 $-1 #
edge $-1 $178 -43.844111453596604 $116 43.844111453596604 $111 $179 forward 7 unknown #
coedge $-1 $106 $68 $177 $180 forward $115 $-1 #
coedge $-1 $68 $106 $173 $181 reversed $115 $-1 #
loop $-1 $-1 $113 $158 #
vertex $-1 $69 $182 #
vertex $-1 $69 $183 #
straight-curve $-1 43.844111453596604 0 9.9157057270134903 0 1 0 I I #
face $-1 $184 $185 $16 $-1 $186 reversed single #
loop $-1 $-1 $187 $70 #
plane-surface $-1 -51.768372346583199 0 -8.0442588772082129 1 0 0 0 0 -1 forward_v I I I I #
coedge $-1 $188 $73 $189 $190 reversed $45 $-1 #
coedge $-1 $73 $188 $128 $191 reversed $45 $-1 #
edge $-1 $130 6.1728120274029354 $192 9.9157057270134903 $73 $193 forward 7 unknown #
coedge $-1 $75 $74 $194 $195 reversed $29 $-1 #
coedge $-1 $196 $197 $74 $127 forward $198 $-1 #
edge $-1 $199 -9.9157057270134903 $131 -6.1728120274029354 $126 $200 forward 7 unknown #
coedge $-1 $201 $76 $123 $191 forward $71 $-1 #
coedge $-1 $76 $201 $196 $202 forward $71 $-1 #
vertex $-1 $124 $203 #
vertex $-1 $202 $204 #
straight-curve $-1 -43.844111453596604 0 -6.1728120274029354 0 -1 0 I I #
face $-1 $-1 $146 $17 $-1 $205 reversed single #
loop $-1 $-1 $142 $78 #
plane-surface $-1 0 -26.26686038700441 0 0 1 0 0 0 1 forward_v I I I I #
coedge $-1 $206 $207 $138 $208 forward $79 $-1 #
coedge $-1 $138 $81 $83 $144 reversed $49 $-1 #
coedge $-1 $81 $137 $136 $208 reversed $49 $-1 #
coedge $-1 $209 $84 $81 $140 forward $146 $-1 #
edge $-1 $148 -59.18106766988889 $210 -50.109167951866155 $139 $211 forward 7 unknown #
coedge $-1 $83 $82 $206 $212 reversed $32 $-1 #
coedge $-1 $213 $214 $82 $143 forward $134 $-1 #
edge $-1 $215 43.730736623004006 $147 54.103129978516364 $142 $216 forward 7 unknown #
edge $-1 $217 77.315829551680849 $148 87.688222907193207 $137 $218 forward 7 unknown #
coedge $-1 $84 $209 $213 $219 forward $146 $-1 #
loop $-1 $-1 $139 $133 #
vertex $-1 $143 $220 #
vertex $-1 $85 $221 #
straight-curve $-1 43.844111453596604 -9.6958980403780206 0.84380600899075375 0 1 0 I I #
coedge $-1 $150 $150 $-1 $222 reversed $88 $-1 #
edge $-1 $223 0 $223 6.2831853071796004 $89 $224 forward 7 unknown #
vertex $-1 $92 $225 #
ellipse-curve $-1 41.329793483071796 -22.338252212005344 5.3797558680021247 0.87461971476443456 0 0.48480960649040278 0.72721440973560414 0 -1.311929572146652 1 I I #
coedge $-1 $154 $154 $-1 $226 reversed $95 $-1 #
edge $-1 $227 0 $227 6.2831853071796004 $96 $228 forward 7 unknown #
vertex $-1 $99 $229 #
ellipse-curve $-1 41.329793483071796 -16.445339949506739 5.3797558680021247 0.87461971476443456 0 0.48480960649040278 0.72721440973560414 0 -1.311929572146652 1 I I #
face $-1 $-1 $115 $15 $-1 $230 reversed single #
loop $-1 $-1 $173 $100 #
plane-surface $-1 0 26.26686038700441 0 0 -1 0 0 0 -1 forward_v I I I I #
coedge $-1 $171 $231 $103 $163 reversed $101 $-1 #
coedge $-1 $177 $103 $104 $165 reversed $63 $-1 #
edge $-1 $178 -9.9157057270134903 $232 9.9157057270134903 $161 $233 forward 7 unknown #
coedge $-1 $105 $104 $231 $234 forward $41 $-1 #
edge $-1 $169 -43.844111453596604 $232 43.844111453596604 $162 $235 forward 7 unknown #
coedge $-1 $174 $173 $105 $167 reversed $159 $-1 #
edge $-1 $236 -43.844111453596604 $168 43.844111453596604 $166 $237 forward 7 unknown #
vertex $-1 $107 $238 #
vertex $-1 $180 $239 #
straight-curve $-1 43.844111453596604 0 -9.9157057270134903 0 -1 0 I I #
coedge $-1 $240 $161 $108 $172 reversed $101 $-1 #
edge $-1 $175 -26.26686038700441 $178 26.26686038700441 $171 $241 forward 7 unknown #
coedge $-1 $166 $109 $114 $181 forward $159 $-1 #
coedge $-1 $109 $166 $240 $242 reversed $159 $-1 #
vertex $-1 $110 $243 #
straight-curve $-1 0 26.26686038700441 9.9157057270134903 -1 0 0 I I #
coedge $-1 $111 $162 $113 $180 reversed $63 $-1 #
vertex $-1 $172 $244 #
straight-curve $-1 0 -26.26686038700441 9.9157057270134903 1 0 0 I I #
edge $-1 $116 -9.9157057270134903 $169 9.9157057270134903 $113 $245 forward 7 unknown #
edge $-1 $117 -9.9157057270134903 $168 9.9157057270134903 $114 $246 forward 7 unknown #
point $-1 43.844111453596604 -26.26686038700441 9.9157057270134903 #
point $-1 43.844111453596604 26.26686038700441 9.9157057270134903 #
face $-1 $-1 $198 $16 $-1 $247 reversed single #
loop $-1 $-1 $194 $119 #
plane-surface $-1 0 0 -9.9157057270134903 0 0 1 1 0 0 forward_v I I I I #
coedge $-1 $248 $249 $188 $250 forward $120 $-1 #
coedge $-1 $123 $122 $187 $250 reversed $45 $-1 #
coedge $-1 $194 $251 $122 $190 forward $185 $-1 #
edge $-1 $252 -51.768372346583199 $192 -43.844111453596604 $122 $253 forward 7 unknown #
edge $-1 $130 -3.9621304464932976 $254 3.9621304464932976 $123 $255 forward 7 unknown #
vertex $-1 $124 $256 #
straight-curve $-1 -43.844111453596604 26.26686038700441 0 0 0 -1 I I #
coedge $-1 $257 $189 $125 $195 forward $185 $-1 #
edge $-1 $192 -26.26686038700441 $199 26.26686038700441 $194 $258 forward 7 unknown #
coedge $-1 $259 $126 $129 $202 reversed $198 $-1 #
coedge $-1 $126 $259 $257 $260 reversed $198 $-1 #
loop $-1 $-1 $126 $184 #
vertex $-1 $260 $261 #
straight-curve $-1 -43.844111453596604 -26.26686038700441 0 0 0 1 I I #
coedge $-1 $129 $128 $249 $262 forward $71 $-1 #
edge $-1 $263 -3.9621304464932976 $131 3.9621304464932976 $196 $264 forward 7 unknown #
point $-1 -43.844111453596604 26.26686038700441 -6.1728120274029354 #
point $-1 -43.844111453596604 -26.26686038700441 -6.1728120274029354 #
plane-surface $-1 43.844111453596604 0 0 -1 0 0 0 0 1 forward_v I I I I #
coedge $-1 $265 $136 $141 $212 forward $79 $-1 #
coedge $-1 $136 $265 $209 $266 forward $79 $-1 #
edge $-1 $210 -4.8311778938930914 $217 0.19745804715652326 $136 $267 forward 7 unknown #
coedge $-1 $145 $139 $207 $266 reversed $146 $-1 #
vertex $-1 $208 $268 #
straight-curve $-1 43.844111453596604 -12.516731774507672 60.024873678879644 0 0 1 I I #
edge $-1 $217 2.8208337341296517 $215 16.570962346626388 $206 $269 forward 7 unknown #
coedge $-1 $214 $142 $145 $219 reversed $134 $-1 #
coedge $-1 $142 $213 $265 $270 reversed $134 $-1 #
vertex $-1 $270 $271 #
straight-curve $-1 17.614394298812979 -26.26686038700441 48.163470118663867 0.48480960649040278 0 -0.87461971476443456 I I #
vertex $-1 $212 $272 #
straight-curve $-1 1.332018612117551 -12.516731774507672 77.537654516280227 0.48480960649040278 0 -0.87461971476443456 I I #
edge $-1 $273 -9.9157057270134903 $147 -0.84380600899075819 $145 $274 forward 7 unknown #
point $-1 43.844111453596604 -26.26686038700441 0.84380600899075819 #
point $-1 43.844111453596604 -12.516731774507672 0.84380600899075375 #
edge $-1 $275 1 $275 0 $150 $-1 forward 7 unknown #
vertex $-1 $151 $276 #
ellipse-curve $-1 37.157099121367033 -22.338252212005344 3.0667937001556522 0.87461971476443456 0 0.48480960649040278 0.72721440973560414 0 -1.311929572146652 1 I I #
point $-1 42.057007892807391 -22.338252212005344 4.0678262958554683 #
edge $-1 $277 1 $277 0 $154 $-1 forward 7 unknown #
vertex $-1 $155 $278 #
ellipse-curve $-1 37.157099121367033 -16.445339949506739 3.0667937001556522 0.87461971476443456 0 0.48480960649040278 0.72721440973560414 0 -1.311929572146652 1 I I #
point $-1 42.057007892807391 -16.445339949506739 4.0678262958554683 #
plane-surface $-1 43.844111453596604 0 0 -1 0 0 0 0 1 forward_v I I I I #
coedge $-1 $161 $240 $164 $234 reversed $101 $-1 #
vertex $-1 $234 $279 #
straight-curve $-1 -43.844111453596604 -26.26686038700441 0 0 0 -1 I I #
edge $-1 $232 -26.26686038700441 $236 26.26686038700441 $231 $280 forward 7 unknown #
straight-curve $-1 0 -26.26686038700441 -9.9157057270134903 -1 0 0 I I #
vertex $-1 $167 $281 #
straight-curve $-1 0 26.26686038700441 -9.9157057270134903 1 0 0 I I #
point $-1 43.844111453596604 26.26686038700441 -9.9157057270134903 #
point $-1 43.844111453596604 -26.26686038700441 -9.9157057270134903 #
coedge $-1 $231 $171 $174 $242 forward $101 $-1 #
straight-curve $-1 -43.844111453596604 0 9.9157057270134903 0 -1 0 I I #
edge $-1 $175 -9.9157057270134903 $236 9.9157057270134903 $174 $282 forward 7 unknown #
point $-1 -43.844111453596604 26.26686038700441 9.9157057270134903 #
point $-1 -43.844111453596604 -26.26686038700441 9.9157057270134903 #
straight-curve $-1 43.844111453596604 -26.26686038700441 0 0 0 -1 I I #
straight-curve $-1 43.844111453596604 26.26686038700441 0 0 0 -1 I I #
plane-surface $-1 0 -26.26686038700441 0 0 1 0 0 0 1 forward_v I I I I #
coedge $-1 $283 $187 $251 $284 reversed $120 $-1 #
coedge $-1 $187 $283 $201 $262 reversed $120 $-1 #
edge $-1 $254 -1.8714468498052774 $252 1.8714468498052774 $188 $285 forward 7 unknown #
coedge $-1 $189 $257 $248 $284 forward $185 $-1 #
vertex $-1 $190 $286 #
straight-curve $-1 0 26.26686038700441 -9.9157057270134903 1 0 0 I I #
vertex $-1 $191 $287 #
straight-curve $-1 -47.806241900089901 26.26686038700441 -6.1728120274029354 -1 0 0 I I #
point $-1 -43.844111453596604 26.26686038700441 -9.9157057270134903 #
coedge $-1 $251 $194 $197 $260 forward $185 $-1 #
straight-curve $-1 -43.844111453596604 0 -9.9157057270134903 0 -1 0 I I #
coedge $-1 $197 $196 $283 $288 forward $198 $-1 #
edge $-1 $199 -3.9621304464932976 $289 3.9621304464932976 $197 $290 forward 7 unknown #
point $-1 -43.844111453596604 -26.26686038700441 -9.9157057270134903 #
edge $-1 $254 -26.26686038700441 $263 26.26686038700441 $249 $291 forward 7 unknown #
vertex $-1 $262 $292 #
straight-curve $-1 -47.806241900089901 -26.26686038700441 -6.1728120274029354 1 0 0 I I #
coedge $-1 $207 $206 $214 $270 forward $79 $-1 #
edge $-1 $273 -26.26686038700441 $210 -12.516731774507672 $209 $293 forward 7 unknown #
straight-curve $-1 39.012933559703512 -12.516731774507672 9.9157057270134885 -1 0 0 I I #
point $-1 43.844111453596604 -12.516731774507672 9.9157057270134903 #
straight-curve $-1 38.815475512546996 -9.6958980403780206 9.9157057270134956 0 -1 0 I I #
edge $-1 $215 38.815475512546989 $273 43.844111453596604 $214 $294 forward 7 unknown #
point $-1 38.815475512546989 -26.26686038700441 9.9157057270134885 #
point $-1 38.815475512546989 -12.516731774507672 9.9157057270134885 #
vertex $-1 $266 $295 #
straight-curve $-1 43.844111453596604 -26.26686038700441 0 0 0 -1 I I #
vertex $-1 $222 $296 #
point $-1 37.884313531102634 -22.338252212005344 1.7548641280090005 #
vertex $-1 $226 $297 #
point $-1 37.884313531102634 -16.445339949506739 1.7548641280090005 #
point $-1 -43.844111453596604 -26.26686038700441 -9.9157057270134903 #
straight-curve $-1 -43.844111453596604 0 -9.9157057270134903 0 1 0 I I #
point $-1 -43.844111453596604 26.26686038700441 -9.9157057270134903 #
straight-curve $-1 -43.844111453596604 26.26686038700441 0 0 0 -1 I I #
coedge $-1 $249 $248 $259 $288 reversed $120 $-1 #
edge $-1 $289 -26.26686038700441 $252 26.26686038700441 $248 $298 forward 7 unknown #
straight-curve $-1 -51.768372346583199 26.26686038700441 -8.0442588772082129 0 0 -1 I I #
point $-1 -51.768372346583199 26.26686038700441 -9.9157057270134903 #
point $-1 -51.768372346583199 26.26686038700441 -6.1728120274029354 #
edge $-1 $263 -1.8714468498052774 $289 1.8714468498052774 $283 $299 forward 7 unknown #
vertex $-1 $284 $300 #
straight-curve $-1 -47.806241900089901 -26.26686038700441 -9.9157057270134903 -1 0 0 I I #
straight-curve $-1 -51.768372346583199 0 -6.1728120274029354 0 -1 0 I I #
point $-1 -51.768372346583199 -26.26686038700441 -6.1728120274029354 #
straight-curve $-1 43.844111453596604 0 9.9157057270134903 0 1 0 I I #
straight-curve $-1 0 -26.26686038700441 9.9157057270134903 1 0 0 I I #
point $-1 43.844111453596604 -26.26686038700441 9.9157057270134903 #
point $-1 35.84516954922038 -22.338252212005344 2.3395792904200485 #
point $-1 35.84516954922038 -16.445339949506739 2.3395792904200485 #
straight-curve $-1 -51.768372346583199 0 -9.9157057270134903 0 1 0 I I #
straight-curve $-1 -51.768372346583199 -26.26686038700441 -8.0442588772082129 0 0 -1 I I #
point $-1 -51.768372346583199 -26.26686038700441 -9.9157057270134903 #
End-of-ACIS-data 