500 0 8 0           
7 Unknown 11 ACIS 5.0 NT 24 Fri Mar 26 15:18:32 1999 
-1 9.9999999999999995e-007 1e-010 
body $-1 $8 $-1 $9 #
body $-1 $10 $-1 $11 #
body $-1 $12 $-1 $13 #
body $-1 $14 $-1 $15 #
body $-1 $16 $-1 $17 #
body $-1 $18 $-1 $19 #
body $-1 $20 $-1 $21 #
body $-1 $22 $-1 $23 #
lump $-1 $-1 $24 $0 #
transform $-1 1 0 0 0 1 0 0 0 1 59.198583941160315 33.470045048186769 7.7077018318615602 1 rotate no_reflect no_shear #
lump $-1 $-1 $25 $1 #
transform $-1 1 0 0 0 1 0 0 0 1 59.198583941160315 33.470045048186769 7.7077018318615602 1 rotate no_reflect no_shear #
lump $-1 $-1 $26 $2 #
transform $-1 1 0 0 0 1 0 0 0 1 59.198583941160315 33.470045048186769 7.7077018318615602 1 rotate no_reflect no_shear #
lump $-1 $-1 $27 $3 #
transform $-1 1 0 0 0 1 0 0 0 1 59.198583941160315 33.470045048186769 7.7077018318615602 1 rotate no_reflect no_shear #
lump $-1 $-1 $28 $4 #
transform $-1 1 0 0 0 1 0 0 0 1 59.198583941160315 33.470045048186769 7.7077018318615602 1 rotate no_reflect no_shear #
lump $-1 $-1 $29 $5 #
transform $-1 1 0 0 0 1 0 0 0 1 59.198583941160315 33.470045048186769 7.7077018318615602 1 rotate no_reflect no_shear #
lump $-1 $-1 $30 $6 #
transform $-1 1 0 0 0 1 0 0 0 1 59.198583941160315 33.470045048186769 7.7077018318615602 1 rotate no_reflect no_shear #
lump $-1 $-1 $31 $7 #
transform $-1 1 0 0 0 1 0 0 0 1 59.198583941160315 33.470045048186769 7.7077018318615602 1 rotate no_reflect no_shear #
shell $-1 $-1 $-1 $32 $-1 $8 #
shell $-1 $-1 $-1 $33 $-1 $10 #
shell $-1 $-1 $-1 $34 $-1 $12 #
shell $-1 $-1 $-1 $35 $-1 $14 #
shell $-1 $-1 $-1 $36 $-1 $16 #
shell $-1 $-1 $-1 $37 $-1 $18 #
shell $-1 $-1 $-1 $38 $-1 $20 #
shell $-1 $-1 $-1 $39 $-1 $22 #
face $-1 $40 $41 $24 $-1 $42 forward single #
face $-1 $43 $44 $25 $-1 $45 forward single #
face $-1 $46 $47 $26 $-1 $48 reversed single #
face $-1 $49 $50 $27 $-1 $51 forward single #
face $-1 $52 $53 $28 $-1 $54 forward single #
face $-1 $55 $56 $29 $-1 $57 reversed single #
face $-1 $58 $59 $30 $-1 $60 forward single #
face $-1 $61 $62 $31 $-1 $63 forward single #
face $-1 $64 $65 $24 $-1 $66 reversed single #
loop $-1 $-1 $67 $32 #
plane-surface $-1 0 0 7.7077018318615602 0 0 1 1 0 0 forward_v I I I I #
face $-1 $68 $69 $25 $-1 $70 reversed single #
loop $-1 $-1 $71 $33 #
plane-surface $-1 0 -30.920215810689097 -0.068833853256189848 0 0 1 1 0 0 forward_v I I I I #
face $-1 $72 $73 $26 $-1 $74 reversed single #
loop $-1 $-1 $75 $34 #
plane-surface $-1 94.011087115219226 -28.370386573191425 166.01504475573014 0 1 0 0.83867057594974714 0 0.54463902268945019 forward_v I I I I #
face $-1 $76 $77 $27 $-1 $78 forward single #
loop $-1 $79 $80 $35 #
cone-surface $-1 56.614889698264179 -23.261849106159918 4.4475127556702052 -0.83867057594974714 0 -0.54463902268945019 0.81695853403417529 0 -1.2580058639246208 1 I I 0 1 1.5 forward I I I I #
face $-1 $81 $82 $28 $-1 $83 forward single #
loop $-1 $84 $85 $36 #
cone-surface $-1 56.614889698264179 -15.599042905612659 4.4475127556702052 -0.83867057594974714 0 -0.54463902268945019 0.81695853403417529 0 -1.2580058639246208 1 I I 0 1 1.5 forward I I I I #
face $-1 $86 $87 $29 $-1 $88 reversed single #
loop $-1 $-1 $89 $37 #
plane-surface $-1 -152.49682640630877 -10.983389276872465 77.229458090889707 0 1 0 -0.78801076186113728 0 0.61566146476048833 forward_v I I I I #
face $-1 $90 $91 $30 $-1 $92 forward single #
loop $-1 $93 $94 $38 #
cone-surface $-1 -56.891644421957182 -6.0532265229046409 5.248700065698392 0.78801076186113728 0 -0.61566146476048833 0.61566146476048833 0 0.78801076186113728 1 I I 0 1 1 forward I I I I #
face $-1 $95 $96 $31 $-1 $97 forward single #
loop $-1 $98 $99 $39 #
cone-surface $-1 -56.891644421957182 1.3420176080470938 5.248700065698392 0.78801076186113728 0 -0.61566146476048833 0.61566146476048833 0 0.78801076186113728 1 I I 0 1 1 forward I I I I #
face $-1 $100 $101 $24 $-1 $102 reversed single #
loop $-1 $-1 $103 $40 #
plane-surface $-1 0 0 -7.7077018318615602 0 0 1 1 0 0 forward_v I I I I #
coedge $-1 $104 $105 $106 $107 forward $41 $-1 #
face $-1 $108 $109 $25 $-1 $110 reversed single #
loop $-1 $-1 $111 $43 #
plane-surface $-1 0 -30.920215810689097 -3.0688338532561898 0 0 1 1 0 0 forward_v I I I I #
coedge $-1 $112 $113 $114 $115 reversed $44 $-1 #
face $-1 $116 $117 $26 $-1 $118 reversed single #
loop $-1 $-1 $119 $46 #
plane-surface $-1 -5.2851338634655178 -19.430446005886289 101.53132695110428 0.83867057594974714 0 0.54463902268945019 0.54463902268945019 0 -0.83867057594974714 forward_v I I I I #
coedge $-1 $120 $121 $122 $123 reversed $47 $-1 #
face $-1 $-1 $124 $27 $-1 $125 forward single #
loop $-1 $126 $127 $49 #
cone-surface $-1 55.179165119043468 -23.261849106159918 3.5151423421827941 -0.83867057594974714 0 -0.54463902268945019 0.40847926701708764 0 -0.62900293196231039 1 I I -0.70710678118654757 0.70710678118654757 0.75 forward I I I I #
loop $-1 $-1 $128 $35 #
coedge $-1 $80 $80 $129 $130 reversed $50 $-1 #
face $-1 $-1 $131 $28 $-1 $132 forward single #
loop $-1 $133 $134 $52 #
cone-surface $-1 55.179165119043468 -15.599042905612659 3.5151423421827941 -0.83867057594974714 0 -0.54463902268945019 0.40847926701708764 0 -0.62900293196231039 1 I I -0.70710678118654757 0.70710678118654757 0.75 forward I I I I #
loop $-1 $-1 $135 $36 #
coedge $-1 $85 $85 $136 $137 reversed $53 $-1 #
face $-1 $138 $139 $29 $-1 $140 reversed single #
loop $-1 $-1 $141 $55 #
plane-surface $-1 -59.198583941160322 -2.3556044574287753 4.3368842889667434 -0.78801076186113728 0 0.61566146476048833 0.61566146476048833 0 0.78801076186113728 forward_v I I I I #
coedge $-1 $142 $143 $144 $145 reversed $56 $-1 #
face $-1 $-1 $146 $30 $-1 $147 forward single #
loop $-1 $148 $149 $58 #
cone-surface $-1 -55.507485133353413 -6.0532265229046409 4.1672763386023908 0.78801076186113728 0 -0.61566146476048833 0.30783073238024417 0 0.39400538093056864 1 I I -0.70710678118654746 0.70710678118654746 0.5 forward I I I I #
loop $-1 $-1 $150 $38 #
coedge $-1 $94 $94 $151 $152 reversed $59 $-1 #
face $-1 $-1 $153 $31 $-1 $154 forward single #
loop $-1 $155 $156 $61 #
cone-surface $-1 -55.507485133353413 1.3420176080470938 4.1672763386023908 0.78801076186113728 0 -0.61566146476048833 0.30783073238024417 0 0.39400538093056864 1 I I -0.70710678118654746 0.70710678118654746 0.5 forward I I I I #
loop $-1 $-1 $157 $39 #
coedge $-1 $99 $99 $158 $159 reversed $62 $-1 #
face $-1 $160 $161 $24 $-1 $162 reversed single #
loop $-1 $-1 $163 $64 #
plane-surface $-1 0 -33.470045048186769 0 0 1 0 0 0 1 forward_v I I I I #
coedge $-1 $164 $165 $166 $167 forward $65 $-1 #
coedge $-1 $168 $67 $169 $170 forward $41 $-1 #
coedge $-1 $67 $168 $171 $172 forward $41 $-1 #
coedge $-1 $173 $174 $67 $107 reversed $175 $-1 #
edge $-1 $176 -33.470045048186769 $177 33.470045048186769 $106 $178 forward 7 unknown #
face $-1 $179 $180 $25 $-1 $181 reversed single #
loop $-1 $-1 $182 $68 #
plane-surface $-1 0 -28.370386573191425 -1.5688338532561898 0 -1 0 0 0 -1 forward_v I I I I #
coedge $-1 $183 $184 $185 $186 reversed $69 $-1 #
coedge $-1 $187 $71 $188 $189 forward $44 $-1 #
coedge $-1 $71 $187 $190 $191 reversed $44 $-1 #
coedge $-1 $192 $193 $71 $115 forward $194 $-1 #
edge $-1 $195 12.910278667846876 $196 18.009937142842219 $114 $197 forward 7 unknown #
face $-1 $198 $199 $26 $-1 $200 forward single #
loop $-1 $-1 $201 $72 #
plane-surface $-1 94.011087115219226 -10.490505438581152 166.01504475573014 0 -1 0 -0.83867057594974714 0 -0.54463902268945019 forward_v I I I I #
coedge $-1 $202 $203 $204 $205 reversed $73 $-1 #
coedge $-1 $121 $75 $206 $207 reversed $47 $-1 #
coedge $-1 $75 $120 $202 $208 reversed $47 $-1 #
coedge $-1 $204 $209 $75 $123 forward $210 $-1 #
edge $-1 $211 75.299820546003517 $212 80.772416405445469 $122 $213 forward 7 unknown #
loop $-1 $-1 $129 $76 #
plane-surface $-1 -5.2851338634655178 -19.430446005886289 101.53132695110428 0.83867057594974714 0 0.54463902268945019 0.54463902268945019 0 -0.83867057594974714 forward_v I I I I #
loop $-1 $-1 $214 $49 #
coedge $-1 $127 $127 $128 $215 reversed $77 $-1 #
coedge $-1 $128 $128 $127 $215 forward $79 $-1 #
coedge $-1 $129 $129 $80 $130 forward $124 $-1 #
edge $-1 $216 0 $216 6.2831853071796004 $129 $217 forward 7 unknown #
loop $-1 $-1 $136 $81 #
plane-surface $-1 -5.2851338634655178 -19.430446005886289 101.53132695110428 0.83867057594974714 0 0.54463902268945019 0.54463902268945019 0 -0.83867057594974714 forward_v I I I I #
loop $-1 $-1 $218 $52 #
coedge $-1 $134 $134 $135 $219 reversed $82 $-1 #
coedge $-1 $135 $135 $134 $219 forward $84 $-1 #
coedge $-1 $136 $136 $85 $137 forward $131 $-1 #
edge $-1 $220 0 $220 6.2831853071796004 $136 $221 forward 7 unknown #
face $-1 $222 $223 $29 $-1 $224 reversed single #
loop $-1 $-1 $225 $86 #
plane-surface $-1 -152.49682640630877 6.2721803620149146 77.229458090889707 0 -1 0 0.78801076186113728 0 -0.61566146476048833 forward_v I I I I #
coedge $-1 $226 $227 $228 $229 reversed $87 $-1 #
coedge $-1 $143 $89 $230 $231 reversed $56 $-1 #
coedge $-1 $89 $142 $226 $232 reversed $56 $-1 #
coedge $-1 $228 $233 $89 $145 forward $234 $-1 #
edge $-1 $235 17.04982926199407 $236 19.68340048505393 $144 $237 forward 7 unknown #
loop $-1 $-1 $151 $90 #
plane-surface $-1 -59.198583941160322 -2.3556044574287753 4.3368842889667434 -0.78801076186113728 0 0.61566146476048833 0.61566146476048833 0 0.78801076186113728 forward_v I I I I #
loop $-1 $-1 $238 $58 #
coedge $-1 $149 $149 $150 $239 reversed $91 $-1 #
coedge $-1 $150 $150 $149 $239 forward $93 $-1 #
coedge $-1 $151 $151 $94 $152 forward $146 $-1 #
edge $-1 $240 0 $240 6.2831853071796004 $151 $241 forward 7 unknown #
loop $-1 $-1 $158 $95 #
plane-surface $-1 -59.198583941160322 -2.3556044574287753 4.3368842889667434 -0.78801076186113728 0 0.61566146476048833 0.61566146476048833 0 0.78801076186113728 forward_v I I I I #
loop $-1 $-1 $242 $61 #
coedge $-1 $156 $156 $157 $243 reversed $96 $-1 #
coedge $-1 $157 $157 $156 $243 forward $98 $-1 #
coedge $-1 $158 $158 $99 $159 forward $153 $-1 #
edge $-1 $244 0 $244 6.2831853071796004 $158 $245 forward 7 unknown #
face $-1 $246 $247 $24 $-1 $248 reversed single #
loop $-1 $-1 $249 $100 #
plane-surface $-1 -59.198583941160315 0 0 1 0 0 0 0 -1 forward_v I I I I #
coedge $-1 $250 $171 $251 $252 forward $101 $-1 #
coedge $-1 $253 $103 $250 $254 forward $65 $-1 #
coedge $-1 $103 $253 $255 $256 forward $65 $-1 #
coedge $-1 $174 $173 $103 $167 reversed $175 $-1 #
edge $-1 $257 -33.470045048186769 $258 33.470045048186769 $166 $259 forward 7 unknown #
coedge $-1 $105 $104 $260 $261 forward $41 $-1 #
coedge $-1 $262 $263 $104 $170 reversed $247 $-1 #
edge $-1 $177 -59.198583941160315 $264 59.198583941160315 $169 $265 forward 7 unknown #
coedge $-1 $163 $266 $105 $172 reversed $101 $-1 #
edge $-1 $267 -59.198583941160315 $176 59.198583941160315 $171 $268 forward 7 unknown #
coedge $-1 $166 $106 $266 $269 forward $175 $-1 #
coedge $-1 $106 $166 $262 $270 reversed $175 $-1 #
loop $-1 $-1 $173 $246 #
vertex $-1 $107 $271 #
vertex $-1 $107 $272 #
straight-curve $-1 59.198583941160315 0 7.7077018318615602 0 1 0 I I #
face $-1 $273 $274 $25 $-1 $275 reversed single #
loop $-1 $-1 $276 $108 #
plane-surface $-1 -59.198583941160315 0 0 1 0 0 0 0 -1 forward_v I I I I #
coedge $-1 $277 $188 $193 $278 reversed $109 $-1 #
coedge $-1 $279 $111 $280 $281 reversed $69 $-1 #
coedge $-1 $111 $279 $277 $282 forward $69 $-1 #
coedge $-1 $193 $192 $111 $186 forward $194 $-1 #
edge $-1 $283 -18.009937142842219 $284 -12.910278667846876 $185 $285 forward 7 unknown #
coedge $-1 $113 $112 $276 $286 reversed $44 $-1 #
coedge $-1 $182 $287 $112 $189 reversed $109 $-1 #
edge $-1 $195 -59.198583941160315 $288 59.198583941160315 $188 $289 forward 7 unknown #
coedge $-1 $290 $291 $113 $191 forward $274 $-1 #
edge $-1 $196 -59.198583941160315 $292 59.198583941160315 $190 $293 forward 7 unknown #
coedge $-1 $185 $114 $291 $294 forward $194 $-1 #
coedge $-1 $114 $185 $182 $278 forward $194 $-1 #
loop $-1 $-1 $114 $273 #
vertex $-1 $115 $295 #
vertex $-1 $294 $296 #
straight-curve $-1 59.198583941160315 -15.460107905344548 -0.068833853256189848 0 -1 0 I I #
face $-1 $-1 $210 $26 $-1 $297 reversed single #
loop $-1 $-1 $298 $116 #
plane-surface $-1 0 0 7.7077018318615602 0 0 1 1 0 0 forward_v I I I I #
coedge $-1 $299 $300 $301 $302 reversed $117 $-1 #
coedge $-1 $303 $119 $121 $208 forward $73 $-1 #
coedge $-1 $119 $303 $299 $304 forward $73 $-1 #
coedge $-1 $301 $122 $119 $205 forward $210 $-1 #
edge $-1 $212 -18.655163570248281 $305 -0.77528243563800814 $204 $306 forward 7 unknown #
coedge $-1 $307 $308 $120 $207 forward $199 $-1 #
edge $-1 $309 8.6390951922752635 $211 12.193040383550702 $206 $310 forward 7 unknown #
edge $-1 $212 -118.39716788232055 $309 -111.87184552527404 $121 $311 forward 7 unknown #
coedge $-1 $122 $301 $307 $312 reversed $210 $-1 #
loop $-1 $-1 $301 $198 #
vertex $-1 $312 $313 #
vertex $-1 $123 $314 #
straight-curve $-1 59.198583941160315 -28.370386573191425 83.007522377865072 0 0 -1 I I #
coedge $-1 $214 $214 $-1 $315 reversed $126 $-1 #
edge $-1 $316 0 $316 6.2831853071796004 $127 $317 forward 7 unknown #
vertex $-1 $130 $318 #
ellipse-curve $-1 57.421611345522606 -23.261849106159918 4.971403902140545 0.83867057594974714 0 0.54463902268945019 0.81695853403417529 0 -1.2580058639246208 1 I I #
coedge $-1 $218 $218 $-1 $319 reversed $133 $-1 #
edge $-1 $320 0 $320 6.2831853071796004 $134 $321 forward 7 unknown #
vertex $-1 $137 $322 #
ellipse-curve $-1 57.421611345522606 -15.599042905612659 4.971403902140545 0.83867057594974714 0 0.54463902268945019 0.81695853403417529 0 -1.2580058639246208 1 I I #
face $-1 $-1 $234 $29 $-1 $323 forward single #
loop $-1 $-1 $324 $138 #
plane-surface $-1 -59.198583941160315 0 0 1 0 0 0 0 -1 forward_v I I I I #
coedge $-1 $325 $326 $327 $328 reversed $139 $-1 #
coedge $-1 $329 $141 $143 $232 forward $87 $-1 #
coedge $-1 $141 $329 $325 $330 forward $87 $-1 #
coedge $-1 $327 $144 $141 $229 forward $234 $-1 #
edge $-1 $236 -9.8055870481580776 $331 7.4499825907293022 $228 $332 forward 7 unknown #
coedge $-1 $333 $334 $142 $231 forward $223 $-1 #
edge $-1 $335 -34.277844756478103 $235 -30.907027213583294 $230 $336 forward 7 unknown #
edge $-1 $236 -4.2776288168115402 $335 -1.1373479346495045e-014 $143 $337 forward 7 unknown #
coedge $-1 $144 $327 $333 $338 forward $234 $-1 #
loop $-1 $-1 $327 $222 #
vertex $-1 $231 $339 #
vertex $-1 $145 $340 #
straight-curve $-1 -76.248413203154385 -10.983389276872465 7.7077018318615629 1 0 0 I I #
coedge $-1 $238 $238 $-1 $341 reversed $148 $-1 #
edge $-1 $342 0 $342 6.2831853071796004 $149 $343 forward 7 unknown #
vertex $-1 $152 $344 #
ellipse-curve $-1 -57.881798329630385 -6.0532265229046409 6.0222930604141549 -0.78801076186113728 0 0.61566146476048833 0.61566146476048833 0 0.78801076186113728 1 I I #
coedge $-1 $242 $242 $-1 $345 reversed $155 $-1 #
edge $-1 $346 0 $346 6.2831853071796004 $156 $347 forward 7 unknown #
vertex $-1 $159 $348 #
ellipse-curve $-1 -57.881798329630385 1.3420176080470938 6.0222930604141549 -0.78801076186113728 0 0.61566146476048833 0.61566146476048833 0 0.78801076186113728 1 I I #
face $-1 $-1 $175 $24 $-1 $349 reversed single #
loop $-1 $-1 $262 $160 #
plane-surface $-1 0 33.470045048186769 0 0 -1 0 0 0 -1 forward_v I I I I #
coedge $-1 $350 $260 $263 $351 forward $161 $-1 #
coedge $-1 $266 $163 $164 $254 reversed $101 $-1 #
coedge $-1 $260 $350 $163 $252 reversed $161 $-1 #
edge $-1 $267 -7.7077018318615602 $352 7.7077018318615602 $251 $353 forward 7 unknown #
coedge $-1 $165 $164 $350 $354 forward $65 $-1 #
edge $-1 $258 -59.198583941160315 $352 59.198583941160315 $250 $355 forward 7 unknown #
coedge $-1 $263 $262 $165 $256 reversed $247 $-1 #
edge $-1 $356 -59.198583941160315 $257 59.198583941160315 $255 $357 forward 7 unknown #
vertex $-1 $167 $358 #
vertex $-1 $269 $359 #
straight-curve $-1 59.198583941160315 0 -7.7077018318615602 0 -1 0 I I #
coedge $-1 $249 $251 $168 $261 reversed $161 $-1 #
edge $-1 $264 -33.470045048186769 $267 33.470045048186769 $260 $360 forward 7 unknown #
coedge $-1 $255 $169 $174 $270 forward $247 $-1 #
coedge $-1 $169 $255 $249 $351 reversed $247 $-1 #
vertex $-1 $170 $361 #
straight-curve $-1 0 33.470045048186769 7.7077018318615602 -1 0 0 I I #
coedge $-1 $171 $250 $173 $269 reversed $101 $-1 #
vertex $-1 $261 $362 #
straight-curve $-1 0 -33.470045048186769 7.7077018318615602 1 0 0 I I #
edge $-1 $176 -7.7077018318615602 $258 7.7077018318615602 $173 $363 forward 7 unknown #
edge $-1 $177 -7.7077018318615602 $257 7.7077018318615602 $174 $364 forward 7 unknown #
point $-1 59.198583941160315 -33.470045048186769 7.7077018318615602 #
point $-1 59.198583941160315 33.470045048186769 7.7077018318615602 #
face $-1 $-1 $194 $25 $-1 $365 reversed single #
loop $-1 $-1 $190 $179 #
plane-surface $-1 0 -33.470045048186769 0 0 1 0 0 0 1 forward_v I I I I #
coedge $-1 $366 $367 $187 $286 forward $180 $-1 #
coedge $-1 $287 $182 $184 $282 reversed $109 $-1 #
edge $-1 $284 -2.2844169266280949 $195 0.71558307337190508 $193 $368 forward 7 unknown #
coedge $-1 $184 $183 $369 $370 reversed $69 $-1 #
coedge $-1 $291 $290 $183 $281 forward $274 $-1 #
edge $-1 $371 -59.198583941160315 $283 59.198583941160315 $280 $372 forward 7 unknown #
edge $-1 $373 -59.198583941160315 $284 59.198583941160315 $277 $374 forward 7 unknown #
vertex $-1 $281 $375 #
vertex $-1 $186 $376 #
straight-curve $-1 59.198583941160315 -15.460107905344548 -3.0688338532561898 0 1 0 I I #
edge $-1 $292 -18.009937142842219 $288 -12.910278667846876 $276 $377 forward 7 unknown #
coedge $-1 $188 $277 $366 $378 reversed $109 $-1 #
vertex $-1 $286 $379 #
straight-curve $-1 0 -28.370386573191425 -0.068833853256189848 -1 0 0 I I #
coedge $-1 $280 $190 $367 $380 forward $274 $-1 #
coedge $-1 $190 $280 $192 $294 reversed $274 $-1 #
vertex $-1 $380 $381 #
straight-curve $-1 0 -33.470045048186769 -0.068833853256189848 -1 0 0 I I #
edge $-1 $196 0.068833853256189848 $283 3.0688338532561898 $192 $382 forward 7 unknown #
point $-1 59.198583941160315 -28.370386573191425 -0.068833853256189848 #
point $-1 59.198583941160315 -33.470045048186769 -0.068833853256189848 #
plane-surface $-1 59.198583941160315 0 0 -1 0 0 0 0 1 forward_v I I I I #
coedge $-1 $308 $307 $300 $383 forward $199 $-1 #
coedge $-1 $300 $201 $203 $304 reversed $117 $-1 #
coedge $-1 $201 $299 $298 $383 reversed $117 $-1 #
coedge $-1 $209 $204 $201 $302 forward $210 $-1 #
edge $-1 $305 -80.772416405445469 $384 -75.299820546003517 $301 $385 forward 7 unknown #
coedge $-1 $203 $202 $308 $386 reversed $73 $-1 #
edge $-1 $387 111.87184552527404 $305 118.39716788232055 $299 $388 forward 7 unknown #
vertex $-1 $205 $389 #
straight-curve $-1 59.198583941160322 -9.7152230029431443 2.2351059724195821 0 1 0 I I #
coedge $-1 $298 $206 $209 $312 forward $199 $-1 #
coedge $-1 $206 $298 $303 $386 forward $199 $-1 #
vertex $-1 $207 $390 #
straight-curve $-1 47.005543557609613 -28.370386573191425 7.7077018318615558 1 0 0 I I #
straight-curve $-1 -5.2851338634655178 -28.370386573191425 101.53132695110428 -0.54463902268945019 0 0.83867057594974714 I I #
edge $-1 $211 -28.370386573191425 $384 -10.490505438581152 $209 $391 forward 7 unknown #
point $-1 59.198583941160315 -28.370386573191425 7.7077018318615602 #
point $-1 59.198583941160308 -28.370386573191425 2.2351059724196034 #
edge $-1 $392 1 $392 0 $214 $-1 forward 7 unknown #
vertex $-1 $215 $393 #
ellipse-curve $-1 55.808168051005779 -23.261849106159918 3.9236216091998819 0.83867057594974714 0 0.54463902268945019 0.81695853403417529 0 -1.2580058639246208 1 I I #
point $-1 58.238569879556756 -23.261849106159918 3.7133980382159089 #
edge $-1 $394 1 $394 0 $218 $-1 forward 7 unknown #
vertex $-1 $219 $395 #
ellipse-curve $-1 55.808168051005779 -15.599042905612659 3.9236216091998819 0.83867057594974714 0 0.54463902268945019 0.81695853403417529 0 -1.2580058639246208 1 I I #
point $-1 58.238569879556756 -15.599042905612659 3.7133980382159089 #
plane-surface $-1 0 0 7.7077018318615602 0 0 1 1 0 0 forward_v I I I I #
coedge $-1 $334 $333 $326 $396 forward $223 $-1 #
coedge $-1 $326 $225 $227 $330 reversed $139 $-1 #
coedge $-1 $225 $325 $324 $396 reversed $139 $-1 #
coedge $-1 $233 $228 $225 $328 forward $234 $-1 #
edge $-1 $331 -19.68340048505393 $397 -17.04982926199407 $327 $398 forward 7 unknown #
coedge $-1 $227 $226 $334 $399 reversed $87 $-1 #
edge $-1 $400 1.1373479346495045e-014 $331 4.2776288168115402 $325 $401 forward 7 unknown #
vertex $-1 $229 $402 #
straight-curve $-1 -56.565012718100448 -1.1778022287143877 7.7077018318615593 0 1 0 I I #
coedge $-1 $324 $230 $233 $338 reversed $223 $-1 #
coedge $-1 $230 $324 $329 $399 forward $223 $-1 #
vertex $-1 $231 $403 #
straight-curve $-1 -59.198583941160315 -10.983389276872465 38.614729045444854 0 0 1 I I #
straight-curve $-1 -59.198583941160322 -10.983389276872465 4.3368842889667434 -0.61566146476048833 0 -0.78801076186113728 I I #
edge $-1 $397 -6.2721803620149146 $235 10.983389276872465 $333 $404 forward 7 unknown #
point $-1 -59.198583941160315 -10.983389276872465 7.7077018318615602 #
point $-1 -56.565012718100455 -10.983389276872465 7.7077018318615602 #
edge $-1 $405 1 $405 0 $238 $-1 forward 7 unknown #
vertex $-1 $239 $406 #
ellipse-curve $-1 -55.901490514283978 -6.0532265229046409 4.4751070709826353 -0.78801076186113728 0 0.61566146476048833 0.61566146476048833 0 0.78801076186113728 1 I I #
point $-1 -57.266136864869885 -6.0532265229046409 6.8103038222752854 #
edge $-1 $407 1 $407 0 $242 $-1 forward 7 unknown #
vertex $-1 $243 $408 #
ellipse-curve $-1 -55.901490514283978 1.3420176080470938 4.4751070709826353 -0.78801076186113728 0 0.61566146476048833 0.61566146476048833 0 0.78801076186113728 1 I I #
point $-1 -57.266136864869885 1.3420176080470938 6.8103038222752854 #
plane-surface $-1 59.198583941160315 0 0 -1 0 0 0 0 1 forward_v I I I I #
coedge $-1 $251 $249 $253 $354 reversed $161 $-1 #
edge $-1 $264 -7.7077018318615602 $356 7.7077018318615602 $263 $409 forward 7 unknown #
vertex $-1 $354 $410 #
straight-curve $-1 -59.198583941160315 -33.470045048186769 0 0 0 -1 I I #
edge $-1 $352 -33.470045048186769 $356 33.470045048186769 $350 $411 forward 7 unknown #
straight-curve $-1 0 -33.470045048186769 -7.7077018318615602 -1 0 0 I I #
vertex $-1 $256 $412 #
straight-curve $-1 0 33.470045048186769 -7.7077018318615602 1 0 0 I I #
point $-1 59.198583941160315 33.470045048186769 -7.7077018318615602 #
point $-1 59.198583941160315 -33.470045048186769 -7.7077018318615602 #
straight-curve $-1 -59.198583941160315 0 7.7077018318615602 0 -1 0 I I #
point $-1 -59.198583941160315 33.470045048186769 7.7077018318615602 #
point $-1 -59.198583941160315 -33.470045048186769 7.7077018318615602 #
straight-curve $-1 59.198583941160315 -33.470045048186769 0 0 0 -1 I I #
straight-curve $-1 59.198583941160315 33.470045048186769 0 0 0 -1 I I #
plane-surface $-1 59.198583941160315 0 0 -1 0 0 0 0 1 forward_v I I I I #
coedge $-1 $369 $276 $287 $378 forward $180 $-1 #
coedge $-1 $276 $369 $290 $380 reversed $180 $-1 #
straight-curve $-1 59.198583941160315 -28.370386573191425 -0.78441692662809492 0 0 1 I I #
coedge $-1 $367 $366 $279 $370 forward $180 $-1 #
edge $-1 $373 12.910278667846876 $371 18.009937142842219 $369 $413 forward 7 unknown #
vertex $-1 $281 $414 #
straight-curve $-1 0 -33.470045048186769 -3.0688338532561898 1 0 0 I I #
vertex $-1 $370 $415 #
straight-curve $-1 0 -28.370386573191425 -3.0688338532561898 1 0 0 I I #
point $-1 59.198583941160315 -33.470045048186769 -3.0688338532561898 #
point $-1 59.198583941160315 -28.370386573191425 -3.0688338532561898 #
straight-curve $-1 -59.198583941160315 -15.460107905344548 -0.068833853256189848 0 1 0 I I #
edge $-1 $288 -0.71558307337190508 $373 2.2844169266280949 $366 $416 forward 7 unknown #
point $-1 -59.198583941160315 -28.370386573191425 -0.068833853256189848 #
edge $-1 $292 0.068833853256189848 $371 3.0688338532561898 $367 $417 forward 7 unknown #
point $-1 -59.198583941160315 -33.470045048186769 -0.068833853256189848 #
straight-curve $-1 59.198583941160315 -33.470045048186769 0 0 0 -1 I I #
edge $-1 $384 -12.193040383550702 $387 -8.6390951922752635 $298 $418 forward 7 unknown #
vertex $-1 $383 $419 #
straight-curve $-1 59.198583941160315 -10.490505438581152 83.007522377865072 0 0 1 I I #
edge $-1 $387 0.77528243563800814 $309 18.655163570248281 $308 $420 forward 7 unknown #
vertex $-1 $386 $421 #
straight-curve $-1 -5.2851338634655178 -10.490505438581152 101.53132695110428 0.54463902268945019 0 -0.83867057594974714 I I #
point $-1 59.198583941160308 -10.490505438581152 2.2351059724196034 #
point $-1 55.644638749884876 -28.370386573191425 7.7077018318615558 #
straight-curve $-1 59.198583941160315 0 7.7077018318615602 0 1 0 I I #
vertex $-1 $315 $422 #
point $-1 56.625126585039951 -23.261849106159918 2.6656157452752609 #
vertex $-1 $319 $423 #
point $-1 56.625126585039951 -15.599042905612659 2.6656157452752609 #
edge $-1 $397 30.907027213583294 $400 34.277844756478103 $324 $424 forward 7 unknown #
vertex $-1 $338 $425 #
straight-curve $-1 -76.248413203154385 6.2721803620149146 7.7077018318615629 -1 0 0 I I #
edge $-1 $400 -7.4499825907293022 $335 9.8055870481580776 $334 $426 forward 7 unknown #
vertex $-1 $399 $427 #
straight-curve $-1 -59.198583941160322 6.2721803620149146 4.3368842889667434 0.61566146476048833 0 0.78801076186113728 I I #
point $-1 -56.565012718100455 6.2721803620149146 7.7077018318615602 #
point $-1 -59.198583941160315 -10.983389276872465 4.3368842889667523 #
straight-curve $-1 -59.198583941160315 0 7.7077018318615602 0 -1 0 I I #
vertex $-1 $341 $428 #
point $-1 -55.285829049523493 -6.0532265229046409 5.263117832843772 #
vertex $-1 $345 $429 #
point $-1 -55.285829049523493 1.3420176080470938 5.263117832843772 #
straight-curve $-1 -59.198583941160315 33.470045048186769 0 0 0 -1 I I #
point $-1 -59.198583941160315 -33.470045048186769 -7.7077018318615602 #
straight-curve $-1 -59.198583941160315 0 -7.7077018318615602 0 1 0 I I #
point $-1 -59.198583941160315 33.470045048186769 -7.7077018318615602 #
straight-curve $-1 -59.198583941160315 -15.460107905344548 -3.0688338532561898 0 -1 0 I I #
point $-1 -59.198583941160315 -33.470045048186769 -3.0688338532561898 #
point $-1 -59.198583941160315 -28.370386573191425 -3.0688338532561898 #
straight-curve $-1 -59.198583941160315 -28.370386573191425 -0.78441692662809492 0 0 -1 I I #
straight-curve $-1 -59.198583941160315 -33.470045048186769 0 0 0 -1 I I #
straight-curve $-1 47.005543557609613 -10.490505438581152 7.7077018318615558 -1 0 0 I I #
point $-1 59.198583941160315 -10.490505438581152 7.7077018318615602 #
straight-curve $-1 55.644638749884876 -9.7152230029431443 7.70770183186157 0 -1 0 I I #
point $-1 55.644638749884876 -10.490505438581152 7.7077018318615558 #
point $-1 54.550162187081156 -23.261849106159918 3.1066630751657063 #
point $-1 54.550162187081156 -15.599042905612659 3.1066630751657063 #
straight-curve $-1 -59.198583941160315 6.2721803620149146 38.614729045444854 0 0 -1 I I #
point $-1 -59.198583941160315 6.2721803620149146 7.7077018318615602 #
straight-curve $-1 -59.198583941160315 -1.1778022287143877 4.3368842889667585 0 -1 0 I I #
point $-1 -59.198583941160315 6.2721803620149146 4.3368842889667523 #
point $-1 -55.113479752422847 -6.0532265229046409 3.8594456062221467 #
point $-1 -55.113479752422847 1.3420176080470938 3.8594456062221467 #
End-of-ACIS-data 