500 0 10 0           
7 Unknown 11 ACIS 5.0 NT 24 Fri Mar 26 20:19:35 1999 
-1 9.9999999999999995e-007 1e-010 
body $-1 $10 $-1 $11 #
body $-1 $12 $-1 $13 #
body $-1 $14 $-1 $15 #
body $-1 $16 $-1 $17 #
body $-1 $18 $-1 $19 #
body $-1 $20 $-1 $21 #
body $-1 $22 $-1 $23 #
body $-1 $24 $-1 $25 #
body $-1 $26 $-1 $27 #
body $-1 $28 $-1 $29 #
lump $-1 $-1 $30 $0 #
transform $-1 1 0 0 0 1 0 0 0 1 42.215643787957397 19.516827951483243 6.5427564317349161 1 rotate no_reflect no_shear #
lump $-1 $-1 $31 $1 #
transform $-1 1 0 0 0 1 0 0 0 1 42.215643787957397 19.516827951483243 6.5427564317349161 1 rotate no_reflect no_shear #
lump $-1 $-1 $32 $2 #
transform $-1 1 0 0 0 1 0 0 0 1 42.215643787957397 19.516827951483243 6.5427564317349161 1 rotate no_reflect no_shear #
lump $-1 $-1 $33 $3 #
transform $-1 1 0 0 0 1 0 0 0 1 42.215643787957397 19.516827951483243 6.5427564317349161 1 rotate no_reflect no_shear #
lump $-1 $-1 $34 $4 #
transform $-1 1 0 0 0 1 0 0 0 1 42.215643787957397 19.516827951483243 6.5427564317349161 1 rotate no_reflect no_shear #
lump $-1 $-1 $35 $5 #
transform $-1 1 0 0 0 1 0 0 0 1 42.215643787957397 19.516827951483243 6.5427564317349161 1 rotate no_reflect no_shear #
lump $-1 $-1 $36 $6 #
transform $-1 1 0 0 0 1 0 0 0 1 42.215643787957397 19.516827951483243 6.5427564317349161 1 rotate no_reflect no_shear #
lump $-1 $-1 $37 $7 #
transform $-1 1 0 0 0 1 0 0 0 1 42.215643787957397 19.516827951483243 6.5427564317349161 1 rotate no_reflect no_shear #
lump $-1 $-1 $38 $8 #
transform $-1 1 0 0 0 1 0 0 0 1 42.215643787957397 19.516827951483243 6.5427564317349161 1 rotate no_reflect no_shear #
lump $-1 $-1 $39 $9 #
transform $-1 1 0 0 0 1 0 0 0 1 42.215643787957397 19.516827951483243 6.5427564317349161 1 rotate no_reflect no_shear #
shell $-1 $-1 $-1 $40 $-1 $10 #
shell $-1 $-1 $-1 $41 $-1 $12 #
shell $-1 $-1 $-1 $42 $-1 $14 #
shell $-1 $-1 $-1 $43 $-1 $16 #
shell $-1 $-1 $-1 $44 $-1 $18 #
shell $-1 $-1 $-1 $45 $-1 $20 #
shell $-1 $-1 $-1 $46 $-1 $22 #
shell $-1 $-1 $-1 $47 $-1 $24 #
shell $-1 $-1 $-1 $48 $-1 $26 #
shell $-1 $-1 $-1 $49 $-1 $28 #
face $-1 $50 $51 $30 $-1 $52 forward single #
face $-1 $53 $54 $31 $-1 $55 forward single #
face $-1 $56 $57 $32 $-1 $58 reversed single #
face $-1 $59 $60 $33 $-1 $61 reversed single #
face $-1 $62 $63 $34 $-1 $64 forward single #
face $-1 $65 $66 $35 $-1 $67 forward single #
face $-1 $68 $69 $36 $-1 $70 reversed single #
face $-1 $71 $72 $37 $-1 $73 forward single #
face $-1 $74 $75 $38 $-1 $76 forward single #
face $-1 $77 $78 $39 $-1 $79 forward single #
face $-1 $80 $81 $30 $-1 $82 reversed single #
loop $-1 $-1 $83 $40 #
plane-surface $-1 0 0 6.5427564317349161 0 0 1 1 0 0 forward_v I I I I #
face $-1 $84 $85 $31 $-1 $86 reversed single #
loop $-1 $-1 $87 $41 #
plane-surface $-1 -39.045409034809474 0 -2.8169374869943402 0 0 1 1 0 0 forward_v I I I I #
face $-1 $88 $89 $32 $-1 $90 reversed single #
loop $-1 $-1 $91 $42 #
plane-surface $-1 39.187342142106637 -13.326808102985398 0 0 1 0 0 0 1 forward_v I I I I #
face $-1 $92 $93 $33 $-1 $94 reversed single #
loop $-1 $-1 $95 $43 #
plane-surface $-1 -25.426069198470557 -88.67889045799518 50.512667192213961 -1 0 0 0 -0.81915205242281985 0.57357642473473569 forward_v I I I I #
face $-1 $96 $97 $34 $-1 $98 forward single #
loop $-1 $99 $100 $44 #
cone-surface $-1 -32.889715686464122 -16.933196707331977 3.5975653180583409 0 0.81915205242281985 -0.57357642473473569 1 0 0 1 I I 0 1 1 forward I I I I #
face $-1 $101 $102 $35 $-1 $103 forward single #
loop $-1 $104 $105 $45 #
cone-surface $-1 -28.411527793667986 -16.933196707331977 3.5975653180583409 0 0.81915205242281985 -0.57357642473473569 1 0 0 1 I I 0 1 1 forward I I I I #
face $-1 $106 $107 $36 $-1 $108 reversed single #
loop $-1 $-1 $109 $46 #
plane-surface $-1 -35.87517428166155 54.645074383269382 87.543937296536313 1 0 0 0 -0.73135370988377701 -0.68199835119979291 forward_v I I I I #
face $-1 $110 $111 $37 $-1 $112 forward single #
loop $-1 $113 $114 $47 #
cone-surface $-1 -31.955951971966563 16.75959670736713 3.6371962110077298 0 -0.73135370988377701 -0.68199835119979291 0.5 0 0 1 I I 0 1 0.5 forward I I I I #
face $-1 $115 $116 $38 $-1 $117 forward single #
loop $-1 $118 $119 $48 #
cone-surface $-1 -26.077118507424085 16.75959670736713 3.6371962110077298 0 -0.73135370988377701 -0.68199835119979291 0.5 0 0 1 I I 0 1 0.5 forward I I I I #
face $-1 $120 $121 $39 $-1 $122 forward single #
loop $-1 $123 $124 $49 #
cone-surface $-1 -20.198285042881608 16.75959670736713 3.6371962110077298 0 -0.73135370988377701 -0.68199835119979291 0.5 0 0 1 I I 0 1 0.5 forward I I I I #
face $-1 $125 $126 $30 $-1 $127 reversed single #
loop $-1 $-1 $128 $50 #
plane-surface $-1 0 0 -6.5427564317349161 0 0 1 1 0 0 forward_v I I I I #
coedge $-1 $129 $130 $131 $132 forward $51 $-1 #
face $-1 $133 $134 $31 $-1 $135 reversed single #
loop $-1 $-1 $136 $53 #
plane-surface $-1 -35.87517428166155 0 -4.6798469593646281 -1 0 0 0 0 1 forward_v I I I I #
coedge $-1 $137 $138 $139 $140 forward $54 $-1 #
face $-1 $141 $142 $32 $-1 $143 reversed single #
loop $-1 $-1 $144 $56 #
plane-surface $-1 36.159040496255869 -11.510223271020472 0 1 0 0 0 0 -1 forward_v I I I I #
coedge $-1 $145 $146 $147 $148 forward $57 $-1 #
face $-1 $149 $150 $33 $-1 $151 reversed single #
loop $-1 $-1 $152 $59 #
plane-surface $-1 -30.650621740066054 -19.516827951483251 2.0848711286704429 0 -0.81915205242281985 0.57357642473473569 1 0 0 forward_v I I I I #
coedge $-1 $153 $154 $155 $156 reversed $60 $-1 #
face $-1 $-1 $157 $34 $-1 $158 forward single #
loop $-1 $159 $160 $62 #
cone-surface $-1 -32.889715686464122 -15.5007118367036 2.5945286435466342 0 0.81915205242281985 -0.57357642473473569 0.5 0 0 1 I I -0.70710678118654746 0.70710678118654746 0.5 forward I I I I #
loop $-1 $-1 $161 $44 #
coedge $-1 $100 $100 $162 $163 reversed $63 $-1 #
face $-1 $-1 $164 $35 $-1 $165 forward single #
loop $-1 $166 $167 $65 #
cone-surface $-1 -28.411527793667986 -15.5007118367036 2.5945286435466342 0 0.81915205242281985 -0.57357642473473569 0.5 0 0 1 I I -0.70710678118654746 0.70710678118654746 0.5 forward I I I I #
loop $-1 $-1 $168 $45 #
coedge $-1 $105 $105 $169 $170 reversed $66 $-1 #
face $-1 $171 $172 $36 $-1 $173 reversed single #
loop $-1 $-1 $174 $68 #
plane-surface $-1 -26.077118507424085 -7.1040610156399566 29.961938380086863 0 0.73135370988377701 0.68199835119979291 1 0 0 forward_v I I I I #
coedge $-1 $175 $176 $177 $178 reversed $69 $-1 #
face $-1 $-1 $179 $37 $-1 $180 forward single #
loop $-1 $181 $182 $71 #
cone-surface $-1 -31.955951971966563 16.210601548714102 3.1252499557852955 0 -0.73135370988377701 -0.68199835119979291 0.25 0 0 1 I I -0.70710678118654746 0.70710678118654746 0.25 forward I I I I #
loop $-1 $-1 $183 $47 #
coedge $-1 $114 $114 $184 $185 reversed $72 $-1 #
face $-1 $-1 $186 $38 $-1 $187 forward single #
loop $-1 $188 $189 $74 #
cone-surface $-1 -26.077118507424085 16.210601548714102 3.1252499557852955 0 -0.73135370988377701 -0.68199835119979291 0.25 0 0 1 I I -0.70710678118654746 0.70710678118654746 0.25 forward I I I I #
loop $-1 $-1 $190 $48 #
coedge $-1 $119 $119 $191 $192 reversed $75 $-1 #
face $-1 $-1 $193 $39 $-1 $194 forward single #
loop $-1 $195 $196 $77 #
cone-surface $-1 -20.198285042881608 16.210601548714102 3.1252499557852955 0 -0.73135370988377701 -0.68199835119979291 0.25 0 0 1 I I -0.70710678118654746 0.70710678118654746 0.25 forward I I I I #
loop $-1 $-1 $197 $49 #
coedge $-1 $124 $124 $198 $199 reversed $78 $-1 #
face $-1 $200 $201 $30 $-1 $202 reversed single #
loop $-1 $-1 $203 $80 #
plane-surface $-1 0 -19.516827951483243 0 0 1 0 0 0 1 forward_v I I I I #
coedge $-1 $204 $205 $206 $207 forward $81 $-1 #
coedge $-1 $208 $83 $209 $210 forward $51 $-1 #
coedge $-1 $83 $208 $211 $212 forward $51 $-1 #
coedge $-1 $213 $214 $83 $132 reversed $215 $-1 #
edge $-1 $216 -19.516827951483243 $217 19.516827951483243 $131 $218 forward 7 unknown #
face $-1 $219 $220 $31 $-1 $221 reversed single #
loop $-1 $-1 $222 $84 #
plane-surface $-1 0 0 -6.5427564317349161 0 0 1 1 0 0 forward_v I I I I #
coedge $-1 $223 $139 $224 $225 reversed $85 $-1 #
coedge $-1 $226 $87 $227 $228 reversed $54 $-1 #
coedge $-1 $87 $226 $229 $230 reversed $54 $-1 #
coedge $-1 $136 $231 $87 $140 reversed $85 $-1 #
edge $-1 $232 -19.516827951483243 $233 19.516827951483243 $139 $234 forward 7 unknown #
face $-1 $235 $236 $32 $-1 $237 reversed single #
loop $-1 $-1 $238 $88 #
plane-surface $-1 39.187342142106637 -9.6936384390555457 0 0 -1 0 0 0 -1 forward_v I I I I #
coedge $-1 $239 $240 $241 $242 forward $89 $-1 #
coedge $-1 $243 $91 $244 $245 reversed $57 $-1 #
coedge $-1 $91 $243 $246 $247 reversed $57 $-1 #
coedge $-1 $240 $239 $91 $148 reversed $89 $-1 #
edge $-1 $248 -6.5427564317349161 $249 6.5427564317349161 $147 $250 forward 7 unknown #
face $-1 $251 $252 $33 $-1 $253 forward single #
loop $-1 $-1 $254 $92 #
plane-surface $-1 -35.87517428166155 -88.67889045799518 50.512667192213961 1 0 0 0 0.81915205242281985 -0.57357642473473569 forward_v I I I I #
coedge $-1 $255 $256 $257 $258 reversed $93 $-1 #
coedge $-1 $154 $95 $259 $260 reversed $60 $-1 #
coedge $-1 $95 $153 $255 $261 reversed $60 $-1 #
coedge $-1 $257 $262 $95 $156 forward $252 $-1 #
edge $-1 $263 24.822617277514347 $264 27.944062076982945 $155 $265 forward 7 unknown #
loop $-1 $-1 $162 $96 #
plane-surface $-1 -30.650621740066054 -19.516827951483251 2.0848711286704429 0 -0.81915205242281985 0.57357642473473569 1 0 0 forward_v I I I I #
loop $-1 $-1 $266 $62 #
coedge $-1 $160 $160 $161 $267 reversed $97 $-1 #
coedge $-1 $161 $161 $160 $267 forward $99 $-1 #
coedge $-1 $162 $162 $100 $163 forward $157 $-1 #
edge $-1 $268 1.165292918325106e-015 $268 6.2831853071796013 $162 $269 forward 7 unknown #
loop $-1 $-1 $169 $101 #
plane-surface $-1 -30.650621740066054 -19.516827951483251 2.0848711286704429 0 -0.81915205242281985 0.57357642473473569 1 0 0 forward_v I I I I #
loop $-1 $-1 $270 $65 #
coedge $-1 $167 $167 $168 $271 reversed $102 $-1 #
coedge $-1 $168 $168 $167 $271 forward $104 $-1 #
coedge $-1 $169 $169 $105 $170 forward $164 $-1 #
edge $-1 $272 1.165292918325106e-015 $272 6.2831853071796013 $169 $273 forward 7 unknown #
face $-1 $274 $275 $36 $-1 $276 reversed single #
loop $-1 $-1 $277 $106 #
plane-surface $-1 -16.27906273318662 54.645074383269382 87.543937296536313 -1 0 0 0 0.73135370988377701 0.68199835119979291 forward_v I I I I #
coedge $-1 $278 $279 $280 $281 reversed $107 $-1 #
coedge $-1 $176 $109 $282 $283 reversed $69 $-1 #
coedge $-1 $109 $175 $278 $284 reversed $69 $-1 #
coedge $-1 $280 $285 $109 $178 forward $286 $-1 #
edge $-1 $287 7.8057092401514474 $288 12.587858266019481 $177 $289 forward 7 unknown #
loop $-1 $-1 $184 $110 #
plane-surface $-1 -26.077118507424085 -7.1040610156399566 29.961938380086863 0 0.73135370988377701 0.68199835119979291 1 0 0 forward_v I I I I #
loop $-1 $-1 $290 $71 #
coedge $-1 $182 $182 $183 $291 reversed $111 $-1 #
coedge $-1 $183 $183 $182 $291 forward $113 $-1 #
coedge $-1 $184 $184 $114 $185 forward $179 $-1 #
edge $-1 $292 -2.4707241706062079e-016 $292 6.2831853071796004 $184 $293 forward 7 unknown #
loop $-1 $-1 $191 $115 #
plane-surface $-1 -26.077118507424085 -7.1040610156399566 29.961938380086863 0 0.73135370988377701 0.68199835119979291 1 0 0 forward_v I I I I #
loop $-1 $-1 $294 $74 #
coedge $-1 $189 $189 $190 $295 reversed $116 $-1 #
coedge $-1 $190 $190 $189 $295 forward $118 $-1 #
coedge $-1 $191 $191 $119 $192 forward $186 $-1 #
edge $-1 $296 -2.4707241706062079e-016 $296 6.2831853071796004 $191 $297 forward 7 unknown #
loop $-1 $-1 $198 $120 #
plane-surface $-1 -26.077118507424085 -7.1040610156399566 29.961938380086863 0 0.73135370988377701 0.68199835119979291 1 0 0 forward_v I I I I #
loop $-1 $-1 $298 $77 #
coedge $-1 $196 $196 $197 $299 reversed $121 $-1 #
coedge $-1 $197 $197 $196 $299 forward $123 $-1 #
coedge $-1 $198 $198 $124 $199 forward $193 $-1 #
edge $-1 $300 -2.4707241706062079e-016 $300 6.2831853071796004 $198 $301 forward 7 unknown #
face $-1 $302 $303 $30 $-1 $304 reversed single #
loop $-1 $-1 $305 $125 #
plane-surface $-1 -42.215643787957397 0 0 1 0 0 0 0 -1 forward_v I I I I #
coedge $-1 $306 $211 $307 $308 forward $126 $-1 #
coedge $-1 $309 $128 $306 $310 forward $81 $-1 #
coedge $-1 $128 $309 $311 $312 forward $81 $-1 #
coedge $-1 $214 $213 $128 $207 reversed $215 $-1 #
edge $-1 $313 -19.516827951483243 $314 19.516827951483243 $206 $315 forward 7 unknown #
coedge $-1 $130 $129 $316 $317 forward $51 $-1 #
coedge $-1 $318 $319 $129 $210 reversed $303 $-1 #
edge $-1 $217 -42.215643787957397 $320 42.215643787957397 $209 $321 forward 7 unknown #
coedge $-1 $203 $322 $130 $212 reversed $126 $-1 #
edge $-1 $323 -42.215643787957397 $216 42.215643787957397 $211 $324 forward 7 unknown #
coedge $-1 $206 $131 $322 $325 forward $215 $-1 #
coedge $-1 $131 $206 $318 $326 reversed $215 $-1 #
loop $-1 $-1 $213 $302 #
vertex $-1 $132 $327 #
vertex $-1 $132 $328 #
straight-curve $-1 42.215643787957397 0 6.5427564317349161 0 1 0 I I #
face $-1 $329 $330 $31 $-1 $331 reversed single #
loop $-1 $-1 $224 $133 #
plane-surface $-1 0 -19.516827951483243 0 0 1 0 0 0 1 forward_v I I I I #
coedge $-1 $332 $333 $223 $334 forward $134 $-1 #
coedge $-1 $231 $136 $222 $334 reversed $85 $-1 #
coedge $-1 $229 $335 $136 $225 forward $220 $-1 #
edge $-1 $336 -4.202832952052602 $232 -0.47701400731202614 $224 $337 forward 7 unknown #
coedge $-1 $138 $137 $338 $339 reversed $54 $-1 #
coedge $-1 $340 $341 $137 $228 forward $342 $-1 #
edge $-1 $343 -22.69293927055266 $233 -16.352469764256814 $227 $344 forward 7 unknown #
coedge $-1 $345 $224 $138 $230 forward $220 $-1 #
edge $-1 $232 16.352469764256814 $346 22.69293927055266 $229 $347 forward 7 unknown #
coedge $-1 $139 $223 $340 $348 reversed $85 $-1 #
vertex $-1 $230 $349 #
vertex $-1 $228 $350 #
straight-curve $-1 -35.87517428166155 0 -2.8169374869943402 0 1 0 I I #
face $-1 $351 $352 $32 $-1 $353 forward single #
loop $-1 $-1 $244 $141 #
plane-surface $-1 0 0 -6.5427564317349161 0 0 1 1 0 0 forward_v I I I I #
coedge $-1 $354 $355 $356 $357 reversed $142 $-1 #
coedge $-1 $147 $144 $358 $359 reversed $89 $-1 #
coedge $-1 $144 $147 $360 $361 reversed $89 $-1 #
coedge $-1 $355 $354 $144 $242 reversed $142 $-1 #
edge $-1 $362 -6.5427564317349161 $363 6.5427564317349161 $241 $364 forward 7 unknown #
coedge $-1 $146 $145 $365 $366 reversed $57 $-1 #
coedge $-1 $358 $367 $145 $245 forward $236 $-1 #
edge $-1 $368 -22.621972716904086 $249 -16.565369425202551 $244 $369 forward 7 unknown #
coedge $-1 $370 $360 $146 $247 forward $352 $-1 #
edge $-1 $248 16.565369425202551 $371 22.621972716904086 $246 $372 forward 7 unknown #
vertex $-1 $247 $373 #
vertex $-1 $245 $374 #
straight-curve $-1 36.159040496255869 -13.326808102985398 0 0 0 -1 I I #
face $-1 $-1 $375 $33 $-1 $376 reversed single #
loop $-1 $-1 $155 $149 #
plane-surface $-1 0 0 6.5427564317349161 0 0 1 1 0 0 forward_v I I I I #
coedge $-1 $377 $378 $379 $380 reversed $150 $-1 #
coedge $-1 $381 $152 $154 $261 forward $93 $-1 #
coedge $-1 $152 $381 $377 $382 forward $93 $-1 #
coedge $-1 $379 $155 $152 $258 forward $252 $-1 #
edge $-1 $264 10.10075832843753 $383 20.549863411628522 $257 $384 forward 7 unknown #
coedge $-1 $385 $386 $153 $260 forward $375 $-1 #
edge $-1 $387 -23.171462467436527 $263 -18.713577164372065 $259 $388 forward 7 unknown #
edge $-1 $264 -5.4420730435568245 $387 -1.2442367137257826e-014 $154 $389 forward 7 unknown #
coedge $-1 $155 $379 $385 $390 forward $252 $-1 #
vertex $-1 $156 $391 #
vertex $-1 $156 $392 #
straight-curve $-1 -25.426069198470557 -44.33944522899759 6.5427564317349152 0 1 0 I I #
coedge $-1 $266 $266 $-1 $393 reversed $159 $-1 #
edge $-1 $394 0 $394 6.2831853071796004 $160 $395 forward 7 unknown #
vertex $-1 $163 $396 #
ellipse-curve $-1 -32.889715686464122 -17.956105551748948 4.3138137802026826 0 -0.81915205242281985 0.57357642473473569 1 0 0 1 I I #
coedge $-1 $270 $270 $-1 $397 reversed $166 $-1 #
edge $-1 $398 0 $398 6.2831853071796004 $167 $399 forward 7 unknown #
vertex $-1 $170 $400 #
ellipse-curve $-1 -28.411527793667986 -17.956105551748948 4.3138137802026826 0 -0.81915205242281985 0.57357642473473569 1 0 0 1 I I #
face $-1 $-1 $286 $36 $-1 $401 forward single #
loop $-1 $-1 $402 $171 #
plane-surface $-1 0 19.516827951483243 0 0 -1 0 0 0 -1 forward_v I I I I #
coedge $-1 $403 $404 $405 $406 reversed $172 $-1 #
coedge $-1 $407 $174 $176 $284 forward $107 $-1 #
coedge $-1 $174 $407 $403 $408 forward $107 $-1 #
coedge $-1 $405 $177 $174 $281 forward $286 $-1 #
edge $-1 $288 -22.836615027949506 $409 -3.2405034794745777 $280 $410 forward 7 unknown #
coedge $-1 $411 $412 $175 $283 forward $275 $-1 #
edge $-1 $413 -42.357439323142614 $287 -37.229212216533242 $282 $414 forward 7 unknown #
edge $-1 $288 32.021690232587467 $413 39.033655902966473 $176 $415 forward 7 unknown #
coedge $-1 $177 $405 $411 $416 forward $286 $-1 #
loop $-1 $-1 $405 $274 #
vertex $-1 $283 $417 #
vertex $-1 $178 $418 #
straight-curve $-1 -35.87517428166155 27.322537191634691 6.5427564317349152 0 -1 0 I I #
coedge $-1 $290 $290 $-1 $419 reversed $181 $-1 #
edge $-1 $420 0 $420 6.2831853071796004 $182 $421 forward 7 unknown #
vertex $-1 $185 $422 #
ellipse-curve $-1 -31.955951971966563 17.125753438549225 3.9786428784302257 0 0.73135370988377701 0.68199835119979291 0.5 0 0 1 I I #
coedge $-1 $294 $294 $-1 $423 reversed $188 $-1 #
edge $-1 $424 0 $424 6.2831853071796004 $189 $425 forward 7 unknown #
vertex $-1 $192 $426 #
ellipse-curve $-1 -26.077118507424085 17.125753438549225 3.9786428784302257 0 0.73135370988377701 0.68199835119979291 0.5 0 0 1 I I #
coedge $-1 $298 $298 $-1 $427 reversed $195 $-1 #
edge $-1 $428 0 $428 6.2831853071796004 $196 $429 forward 7 unknown #
vertex $-1 $199 $430 #
ellipse-curve $-1 -20.198285042881608 17.125753438549225 3.9786428784302257 0 0.73135370988377701 0.68199835119979291 0.5 0 0 1 I I #
face $-1 $-1 $215 $30 $-1 $431 reversed single #
loop $-1 $-1 $318 $200 #
plane-surface $-1 0 19.516827951483243 0 0 -1 0 0 0 -1 forward_v I I I I #
coedge $-1 $432 $316 $319 $433 forward $201 $-1 #
coedge $-1 $322 $203 $204 $310 reversed $126 $-1 #
coedge $-1 $316 $432 $203 $308 reversed $201 $-1 #
edge $-1 $323 -6.5427564317349161 $434 6.5427564317349161 $307 $435 forward 7 unknown #
coedge $-1 $205 $204 $432 $436 forward $81 $-1 #
edge $-1 $314 -42.215643787957397 $434 42.215643787957397 $306 $437 forward 7 unknown #
coedge $-1 $319 $318 $205 $312 reversed $303 $-1 #
edge $-1 $438 -42.215643787957397 $313 42.215643787957397 $311 $439 forward 7 unknown #
vertex $-1 $207 $440 #
vertex $-1 $325 $441 #
straight-curve $-1 42.215643787957397 0 -6.5427564317349161 0 -1 0 I I #
coedge $-1 $305 $307 $208 $317 reversed $201 $-1 #
edge $-1 $320 -19.516827951483243 $323 19.516827951483243 $316 $442 forward 7 unknown #
coedge $-1 $311 $209 $214 $326 forward $303 $-1 #
coedge $-1 $209 $311 $305 $433 reversed $303 $-1 #
vertex $-1 $210 $443 #
straight-curve $-1 0 19.516827951483243 6.5427564317349161 -1 0 0 I I #
coedge $-1 $211 $306 $213 $325 reversed $126 $-1 #
vertex $-1 $317 $444 #
straight-curve $-1 0 -19.516827951483243 6.5427564317349161 1 0 0 I I #
edge $-1 $216 -6.5427564317349161 $314 6.5427564317349161 $213 $445 forward 7 unknown #
edge $-1 $217 -6.5427564317349161 $313 6.5427564317349161 $214 $446 forward 7 unknown #
point $-1 42.215643787957397 -19.516827951483243 6.5427564317349161 #
point $-1 42.215643787957397 19.516827951483243 6.5427564317349161 #
face $-1 $-1 $342 $31 $-1 $447 reversed single #
loop $-1 $-1 $338 $219 #
plane-surface $-1 -42.215643787957397 0 0 1 0 0 0 0 -1 forward_v I I I I #
coedge $-1 $448 $222 $335 $449 forward $134 $-1 #
coedge $-1 $222 $448 $450 $451 forward $134 $-1 #
edge $-1 $452 -19.516827951483243 $336 19.516827951483243 $222 $453 forward 7 unknown #
coedge $-1 $224 $345 $332 $449 reversed $220 $-1 #
vertex $-1 $449 $454 #
straight-curve $-1 -35.87517428166155 -19.516827951483243 -2.3399234796823141 0 0 1 I I #
coedge $-1 $455 $456 $226 $339 forward $330 $-1 #
edge $-1 $346 -19.516827951483243 $343 19.516827951483243 $338 $457 forward 7 unknown #
coedge $-1 $450 $227 $231 $348 forward $342 $-1 #
coedge $-1 $227 $450 $455 $458 reversed $342 $-1 #
loop $-1 $-1 $340 $329 #
vertex $-1 $458 $459 #
straight-curve $-1 -19.522704517404737 19.516827951483243 -2.8169374869943402 1 0 0 I I #
coedge $-1 $335 $229 $456 $460 forward $220 $-1 #
vertex $-1 $460 $461 #
straight-curve $-1 -19.522704517404737 -19.516827951483243 -2.8169374869943402 -1 0 0 I I #
edge $-1 $233 0.47701400731202614 $452 4.202832952052602 $340 $462 forward 7 unknown #
point $-1 -35.87517428166155 -19.516827951483243 -2.8169374869943402 #
point $-1 -35.87517428166155 19.516827951483243 -2.8169374869943402 #
face $-1 $-1 $463 $32 $-1 $464 reversed single #
loop $-1 $-1 $465 $235 #
plane-surface $-1 0 0 6.5427564317349161 0 0 1 1 0 0 forward_v I I I I #
coedge $-1 $241 $238 $466 $467 reversed $142 $-1 #
coedge $-1 $238 $241 $465 $468 reversed $142 $-1 #
coedge $-1 $469 $470 $238 $357 forward $463 $-1 #
edge $-1 $471 -6.5427564317349161 $472 6.5427564317349161 $356 $473 forward 7 unknown #
coedge $-1 $466 $244 $239 $359 forward $236 $-1 #
edge $-1 $249 -7.5716964674751619 $363 -3.9385268035453098 $358 $474 forward 7 unknown #
coedge $-1 $246 $465 $240 $361 forward $352 $-1 #
edge $-1 $362 3.9385268035453098 $248 7.5716964674751619 $360 $475 forward 7 unknown #
vertex $-1 $361 $476 #
vertex $-1 $359 $477 #
straight-curve $-1 36.159040496255869 -9.6936384390555457 0 0 0 -1 I I #
coedge $-1 $470 $469 $243 $366 forward $463 $-1 #
edge $-1 $371 -6.5427564317349161 $368 6.5427564317349161 $365 $478 forward 7 unknown #
coedge $-1 $244 $466 $470 $479 forward $236 $-1 #
vertex $-1 $366 $480 #
straight-curve $-1 19.593671071053318 -13.326808102985398 -6.5427564317349161 -1 0 0 I I #
coedge $-1 $465 $246 $469 $481 forward $352 $-1 #
vertex $-1 $481 $482 #
straight-curve $-1 19.593671071053318 -13.326808102985398 6.5427564317349161 1 0 0 I I #
point $-1 36.159040496255869 -13.326808102985398 6.5427564317349161 #
point $-1 36.159040496255869 -13.326808102985398 -6.5427564317349161 #
loop $-1 $-1 $259 $251 #
plane-surface $-1 0 -19.516827951483243 0 0 1 0 0 0 1 forward_v I I I I #
coedge $-1 $378 $254 $256 $382 reversed $150 $-1 #
coedge $-1 $254 $377 $483 $484 reversed $150 $-1 #
coedge $-1 $262 $257 $254 $380 forward $252 $-1 #
edge $-1 $383 -27.944062076982945 $485 -24.822617277514347 $379 $486 forward 7 unknown #
coedge $-1 $256 $255 $386 $487 reversed $93 $-1 #
edge $-1 $488 1.2442367137257826e-014 $383 5.4420730435568245 $377 $489 forward 7 unknown #
vertex $-1 $258 $490 #
straight-curve $-1 -15.325310870033027 -16.395383152014649 6.5427564317349161 -1 0 0 I I #
coedge $-1 $483 $259 $262 $390 reversed $375 $-1 #
coedge $-1 $259 $483 $381 $487 forward $375 $-1 #
vertex $-1 $260 $491 #
straight-curve $-1 -25.426069198470557 -19.516827951483243 25.25633359610698 0 0 1 I I #
straight-curve $-1 -25.426069198470557 -19.516827951483251 2.0848711286704429 0 -0.57357642473473569 -0.81915205242281985 I I #
edge $-1 $485 -35.87517428166155 $263 -25.426069198470557 $385 $492 forward 7 unknown #
point $-1 -25.426069198470557 -19.516827951483243 6.5427564317349161 #
point $-1 -25.426069198470557 -16.395383152014645 6.5427564317349161 #
edge $-1 $493 1 $493 0 $266 $-1 forward 7 unknown #
vertex $-1 $267 $494 #
ellipse-curve $-1 -32.889715686464122 -15.910287862915009 2.8813168559140019 0 -0.81915205242281985 0.57357642473473569 1 0 0 1 I I #
point $-1 -31.889715686464122 -17.956105551748941 4.313813780202679 #
edge $-1 $495 1 $495 0 $270 $-1 forward 7 unknown #
vertex $-1 $271 $496 #
ellipse-curve $-1 -28.411527793667986 -15.910287862915009 2.8813168559140019 0 -0.81915205242281985 0.57357642473473569 1 0 0 1 I I #
point $-1 -27.411527793667986 -17.956105551748941 4.313813780202679 #
plane-surface $-1 0 0 6.5427564317349161 0 0 1 1 0 0 forward_v I I I I #
coedge $-1 $412 $411 $404 $497 forward $275 $-1 #
coedge $-1 $404 $277 $279 $408 reversed $172 $-1 #
coedge $-1 $277 $403 $402 $497 reversed $172 $-1 #
coedge $-1 $285 $280 $277 $406 forward $286 $-1 #
edge $-1 $409 -12.587858266019481 $498 -7.8057092401514474 $405 $499 forward 7 unknown #
coedge $-1 $279 $278 $412 $500 reversed $107 $-1 #
edge $-1 $501 -39.033655902966473 $409 -32.021690232587467 $403 $502 forward 7 unknown #
vertex $-1 $281 $503 #
straight-curve $-1 -13.038559253712043 14.734678925615206 6.5427564317349152 1 0 0 I I #
coedge $-1 $402 $282 $285 $416 reversed $275 $-1 #
coedge $-1 $282 $402 $407 $500 forward $275 $-1 #
vertex $-1 $283 $504 #
straight-curve $-1 -35.87517428166155 19.516827951483243 43.771968648268157 0 0 1 I I #
straight-curve $-1 -35.87517428166155 -7.1040610156399566 29.961938380086863 0 0.68199835119979291 -0.73135370988377701 I I #
edge $-1 $498 16.27906273318662 $287 35.87517428166155 $411 $505 forward 7 unknown #
point $-1 -35.87517428166155 19.516827951483243 6.5427564317349161 #
point $-1 -35.87517428166155 14.73467892561521 6.5427564317349116 #
edge $-1 $506 1 $506 0 $290 $-1 forward 7 unknown #
vertex $-1 $291 $507 #
ellipse-curve $-1 -31.955951971966563 16.393439976185046 3.2957495435852437 0 0.73135370988377701 0.68199835119979291 0.5 0 0 1 I I #
point $-1 -31.455951971966563 17.125753438549214 3.9786428784302159 #
edge $-1 $508 1 $508 0 $294 $-1 forward 7 unknown #
vertex $-1 $295 $509 #
ellipse-curve $-1 -26.077118507424085 16.393439976185046 3.2957495435852437 0 0.73135370988377701 0.68199835119979291 0.5 0 0 1 I I #
point $-1 -25.577118507424085 17.125753438549214 3.9786428784302159 #
edge $-1 $510 1 $510 0 $298 $-1 forward 7 unknown #
vertex $-1 $299 $511 #
ellipse-curve $-1 -20.198285042881608 16.393439976185046 3.2957495435852437 0 0.73135370988377701 0.68199835119979291 0.5 0 0 1 I I #
point $-1 -19.698285042881608 17.125753438549214 3.9786428784302159 #
plane-surface $-1 42.215643787957397 0 0 -1 0 0 0 0 1 forward_v I I I I #
coedge $-1 $307 $305 $309 $436 reversed $201 $-1 #
edge $-1 $320 -6.5427564317349161 $438 6.5427564317349161 $319 $512 forward 7 unknown #
vertex $-1 $436 $513 #
straight-curve $-1 -42.215643787957397 -19.516827951483243 0 0 0 -1 I I #
edge $-1 $434 -19.516827951483243 $438 19.516827951483243 $432 $514 forward 7 unknown #
straight-curve $-1 0 -19.516827951483243 -6.5427564317349161 -1 0 0 I I #
vertex $-1 $312 $515 #
straight-curve $-1 0 19.516827951483243 -6.5427564317349161 1 0 0 I I #
point $-1 42.215643787957397 19.516827951483243 -6.5427564317349161 #
point $-1 42.215643787957397 -19.516827951483243 -6.5427564317349161 #
straight-curve $-1 -42.215643787957397 0 6.5427564317349161 0 -1 0 I I #
point $-1 -42.215643787957397 19.516827951483243 6.5427564317349161 #
point $-1 -42.215643787957397 -19.516827951483243 6.5427564317349161 #
straight-curve $-1 42.215643787957397 -19.516827951483243 0 0 0 -1 I I #
straight-curve $-1 42.215643787957397 19.516827951483243 0 0 0 -1 I I #
plane-surface $-1 0 19.516827951483243 0 0 -1 0 0 0 -1 forward_v I I I I #
coedge $-1 $333 $332 $516 $517 forward $134 $-1 #
edge $-1 $336 35.87517428166155 $518 42.215643787957397 $335 $519 forward 7 unknown #
coedge $-1 $341 $340 $333 $451 reversed $342 $-1 #
edge $-1 $520 -42.215643787957397 $452 -35.87517428166155 $450 $521 forward 7 unknown #
vertex $-1 $348 $522 #
straight-curve $-1 -35.87517428166155 0 -6.5427564317349161 0 -1 0 I I #
point $-1 -35.87517428166155 -19.516827951483243 -6.5427564317349161 #
coedge $-1 $516 $338 $341 $458 forward $330 $-1 #
coedge $-1 $338 $516 $345 $460 reversed $330 $-1 #
straight-curve $-1 -42.215643787957397 0 -2.8169374869943402 0 1 0 I I #
edge $-1 $343 2.8169374869943402 $520 6.5427564317349161 $341 $523 forward 7 unknown #
point $-1 -42.215643787957397 19.516827951483243 -2.8169374869943402 #
edge $-1 $346 2.8169374869943402 $518 6.5427564317349161 $456 $524 forward 7 unknown #
point $-1 -42.215643787957397 -19.516827951483243 -2.8169374869943402 #
straight-curve $-1 -35.87517428166155 19.516827951483243 -2.3399234796823141 0 0 -1 I I #
loop $-1 $-1 $365 $351 #
plane-surface $-1 42.215643787957397 0 0 -1 0 0 0 0 1 forward_v I I I I #
coedge $-1 $360 $370 $355 $468 forward $352 $-1 #
coedge $-1 $367 $358 $354 $467 forward $236 $-1 #
edge $-1 $363 16.565369425202551 $471 22.621972716904086 $466 $525 forward 7 unknown #
edge $-1 $472 -22.621972716904086 $362 -16.565369425202551 $465 $526 forward 7 unknown #
coedge $-1 $365 $356 $370 $481 reversed $463 $-1 #
coedge $-1 $356 $365 $367 $479 reversed $463 $-1 #
vertex $-1 $479 $527 #
vertex $-1 $357 $528 #
straight-curve $-1 42.215643787957397 -9.6936384390555457 0 0 0 1 I I #
straight-curve $-1 36.159040496255869 -5.7551116355102359 -6.5427564317349161 0 1 0 I I #
straight-curve $-1 36.159040496255869 -5.7551116355102359 6.5427564317349161 0 -1 0 I I #
point $-1 36.159040496255869 -9.6936384390555457 6.5427564317349161 #
point $-1 36.159040496255869 -9.6936384390555457 -6.5427564317349161 #
straight-curve $-1 42.215643787957397 -13.326808102985398 0 0 0 -1 I I #
edge $-1 $471 9.6936384390555457 $368 13.326808102985398 $470 $529 forward 7 unknown #
point $-1 42.215643787957404 -13.326808102985398 -6.5427564317349161 #
edge $-1 $371 -13.326808102985398 $472 -9.6936384390555457 $469 $530 forward 7 unknown #
point $-1 42.215643787957404 -13.326808102985398 6.5427564317349161 #
coedge $-1 $386 $385 $378 $484 forward $375 $-1 #
edge $-1 $485 18.713577164372065 $488 23.171462467436527 $483 $531 forward 7 unknown #
vertex $-1 $390 $532 #
straight-curve $-1 -35.87517428166155 -44.33944522899759 6.5427564317349152 0 -1 0 I I #
edge $-1 $488 -20.549863411628522 $387 -10.10075832843753 $386 $533 forward 7 unknown #
vertex $-1 $487 $534 #
straight-curve $-1 -35.87517428166155 -19.516827951483251 2.0848711286704429 0 0.57357642473473569 0.81915205242281985 I I #
point $-1 -35.87517428166155 -16.395383152014645 6.5427564317349161 #
point $-1 -25.426069198470557 -19.516827951483243 2.0848711286704531 #
straight-curve $-1 0 -19.516827951483243 6.5427564317349161 1 0 0 I I #
vertex $-1 $393 $535 #
point $-1 -31.889715686464122 -15.910287862915009 2.8813168559140019 #
vertex $-1 $397 $536 #
point $-1 -27.411527793667986 -15.910287862915009 2.8813168559140019 #
edge $-1 $498 37.229212216533242 $501 42.357439323142614 $402 $537 forward 7 unknown #
vertex $-1 $416 $538 #
straight-curve $-1 -16.27906273318662 27.322537191634691 6.5427564317349152 0 1 0 I I #
edge $-1 $501 3.2405034794745777 $413 22.836615027949506 $412 $539 forward 7 unknown #
vertex $-1 $500 $540 #
straight-curve $-1 -16.27906273318662 -7.1040610156399566 29.961938380086863 0 -0.68199835119979291 0.73135370988377701 I I #
point $-1 -16.27906273318662 14.73467892561521 6.5427564317349116 #
point $-1 -35.87517428166155 19.51682795148324 1.4145293251255424 #
straight-curve $-1 0 19.516827951483243 6.5427564317349161 -1 0 0 I I #
vertex $-1 $419 $541 #
point $-1 -31.455951971966563 16.393439976185046 3.2957495435852437 #
vertex $-1 $423 $542 #
point $-1 -25.577118507424085 16.393439976185046 3.2957495435852437 #
vertex $-1 $427 $543 #
point $-1 -19.698285042881608 16.393439976185046 3.2957495435852437 #
straight-curve $-1 -42.215643787957397 19.516827951483243 0 0 0 -1 I I #
point $-1 -42.215643787957397 -19.516827951483243 -6.5427564317349161 #
straight-curve $-1 -42.215643787957397 0 -6.5427564317349161 0 1 0 I I #
point $-1 -42.215643787957397 19.516827951483243 -6.5427564317349161 #
coedge $-1 $456 $455 $448 $517 reversed $330 $-1 #
edge $-1 $518 -19.516827951483243 $520 19.516827951483243 $516 $544 forward 7 unknown #
vertex $-1 $517 $545 #
straight-curve $-1 0 -19.516827951483243 -6.5427564317349161 -1 0 0 I I #
vertex $-1 $451 $546 #
straight-curve $-1 0 19.516827951483243 -6.5427564317349161 1 0 0 I I #
point $-1 -35.87517428166155 19.516827951483243 -6.5427564317349161 #
straight-curve $-1 -42.215643787957397 19.516827951483243 0 0 0 -1 I I #
straight-curve $-1 -42.215643787957397 -19.516827951483243 0 0 0 -1 I I #
straight-curve $-1 19.593671071053318 -9.6936384390555457 -6.5427564317349161 1 0 0 I I #
straight-curve $-1 19.593671071053318 -9.6936384390555457 6.5427564317349161 -1 0 0 I I #
point $-1 42.215643787957404 -9.6936384390555457 -6.5427564317349161 #
point $-1 42.215643787957404 -9.6936384390555457 6.5427564317349161 #
straight-curve $-1 42.215643787957397 0 -6.5427564317349161 0 -1 0 I I #
straight-curve $-1 42.215643787957397 0 6.5427564317349161 0 1 0 I I #
straight-curve $-1 -35.87517428166155 -19.516827951483243 25.25633359610698 0 0 -1 I I #
point $-1 -35.87517428166155 -19.516827951483243 6.5427564317349161 #
straight-curve $-1 -15.325310870033027 -19.516827951483243 2.0848711286704558 1 0 0 I I #
point $-1 -35.87517428166155 -19.516827951483243 2.0848711286704531 #
point $-1 -32.889715686464122 -15.09113581049219 2.3077404311792664 #
point $-1 -28.411527793667986 -15.09113581049219 2.3077404311792664 #
straight-curve $-1 -16.27906273318662 19.516827951483243 43.771968648268157 0 0 -1 I I #
point $-1 -16.27906273318662 19.516827951483243 6.5427564317349161 #
straight-curve $-1 -13.038559253712043 19.51682795148324 1.4145293251255424 -1 0 0 I I #
point $-1 -16.27906273318662 19.51682795148324 1.4145293251255424 #
point $-1 -31.955951971966563 16.027763121243158 2.9547503679853473 #
point $-1 -26.077118507424085 16.027763121243158 2.9547503679853473 #
point $-1 -20.198285042881608 16.027763121243158 2.9547503679853473 #
straight-curve $-1 -42.215643787957397 0 -6.5427564317349161 0 1 0 I I #
point $-1 -42.215643787957397 -19.516827951483243 -6.5427564317349161 #
point $-1 -42.215643787957397 19.516827951483243 -6.5427564317349161 #
End-of-ACIS-data 