500 0 9 0           
7 Unknown 11 ACIS 5.0 NT 24 Fri Mar 26 00:33:37 1999 
-1 9.9999999999999995e-007 1e-010 
body $-1 $9 $-1 $10 #
body $-1 $11 $-1 $12 #
body $-1 $13 $-1 $14 #
body $-1 $15 $-1 $16 #
body $-1 $17 $-1 $18 #
body $-1 $19 $-1 $20 #
body $-1 $21 $-1 $22 #
body $-1 $23 $-1 $24 #
body $-1 $25 $-1 $26 #
lump $-1 $-1 $27 $0 #
transform $-1 1 0 0 0 1 0 0 0 1 54.195989867854856 29.781744229242264 6.0005211158011855 1 rotate no_reflect no_shear #
lump $-1 $-1 $28 $1 #
transform $-1 1 0 0 0 1 0 0 0 1 54.195989867854856 29.781744229242264 6.0005211158011855 1 rotate no_reflect no_shear #
lump $-1 $-1 $29 $2 #
transform $-1 1 0 0 0 1 0 0 0 1 54.195989867854856 29.781744229242264 6.0005211158011855 1 rotate no_reflect no_shear #
lump $-1 $-1 $30 $3 #
transform $-1 1 0 0 0 1 0 0 0 1 54.195989867854856 29.781744229242264 6.0005211158011855 1 rotate no_reflect no_shear #
lump $-1 $-1 $31 $4 #
transform $-1 1 0 0 0 1 0 0 0 1 54.195989867854856 29.781744229242264 6.0005211158011855 1 rotate no_reflect no_shear #
lump $-1 $-1 $32 $5 #
transform $-1 1 0 0 0 1 0 0 0 1 54.195989867854856 29.781744229242264 6.0005211158011855 1 rotate no_reflect no_shear #
lump $-1 $-1 $33 $6 #
transform $-1 1 0 0 0 1 0 0 0 1 54.195989867854856 29.781744229242264 6.0005211158011855 1 rotate no_reflect no_shear #
lump $-1 $-1 $34 $7 #
transform $-1 1 0 0 0 1 0 0 0 1 54.195989867854856 29.781744229242264 6.0005211158011855 1 rotate no_reflect no_shear #
lump $-1 $-1 $35 $8 #
transform $-1 1 0 0 0 1 0 0 0 1 54.195989867854856 29.781744229242264 6.0005211158011855 1 rotate no_reflect no_shear #
shell $-1 $-1 $-1 $36 $-1 $9 #
shell $-1 $-1 $-1 $37 $-1 $11 #
shell $-1 $-1 $-1 $38 $-1 $13 #
shell $-1 $-1 $-1 $39 $-1 $15 #
shell $-1 $-1 $-1 $40 $-1 $17 #
shell $-1 $-1 $-1 $41 $-1 $19 #
shell $-1 $-1 $-1 $42 $-1 $21 #
shell $-1 $-1 $-1 $43 $-1 $23 #
shell $-1 $-1 $-1 $44 $-1 $25 #
face $-1 $45 $46 $27 $-1 $47 forward single #
face $-1 $48 $49 $28 $-1 $50 reversed single #
face $-1 $51 $52 $29 $-1 $53 reversed single #
face $-1 $54 $55 $30 $-1 $56 reversed single #
face $-1 $57 $58 $31 $-1 $59 forward single #
face $-1 $60 $61 $32 $-1 $62 forward single #
face $-1 $63 $64 $33 $-1 $65 reversed single #
face $-1 $66 $67 $34 $-1 $68 forward single #
face $-1 $69 $70 $35 $-1 $71 forward single #
face $-1 $72 $73 $27 $-1 $74 reversed single #
loop $-1 $-1 $75 $36 #
plane-surface $-1 0 0 6.0005211158011855 0 0 1 1 0 0 forward_v I I I I #
face $-1 $76 $77 $28 $-1 $78 reversed single #
loop $-1 $-1 $79 $37 #
plane-surface $-1 0 -26.594082527549318 2.5503725539579456 0 0 1 1 0 0 forward_v I I I I #
face $-1 $80 $81 $29 $-1 $82 reversed single #
loop $-1 $-1 $83 $38 #
plane-surface $-1 0 26.594082527549318 2.5503725539579456 0 0 1 1 0 0 forward_v I I I I #
face $-1 $84 $85 $30 $-1 $86 reversed single #
loop $-1 $-1 $87 $39 #
plane-surface $-1 72.877271386652211 12.543335467534618 154.98552593882053 0 1 0 0.78801076186113728 0 0.61566146476048833 forward_v I I I I #
face $-1 $88 $89 $31 $-1 $90 forward single #
loop $-1 $91 $92 $40 #
cone-surface $-1 52.354164866456692 15.647074141340831 3.9456211831650285 -0.78801076186113728 0 -0.61566146476048833 0.30783073238024417 0 -0.39400538093056864 1 I I 0 1 0.5 forward I I I I #
face $-1 $93 $94 $32 $-1 $95 forward single #
loop $-1 $96 $97 $41 #
cone-surface $-1 52.354164866456692 20.302682152050153 3.9456211831650285 -0.78801076186113728 0 -0.61566146476048833 0.30783073238024417 0 -0.39400538093056864 1 I I 0 1 0.5 forward I I I I #
face $-1 $98 $99 $33 $-1 $100 reversed single #
loop $-1 $-1 $101 $42 #
plane-surface $-1 -54.195989867854848 17.974878146695495 2.8387143952707419 -0.78801076186113728 0 0.61566146476048833 0.61566146476048833 0 0.78801076186113728 forward_v I I I I #
face $-1 $102 $103 $34 $-1 $104 forward single #
loop $-1 $105 $106 $43 #
cone-surface $-1 -52.354164866456685 15.647074141340831 3.9456211831650161 0.78801076186113728 0 -0.61566146476048833 0.30783073238024417 0 0.39400538093056864 1 I I 0 1 0.5 forward I I I I #
face $-1 $107 $108 $35 $-1 $109 forward single #
loop $-1 $110 $111 $44 #
cone-surface $-1 -52.354164866456685 20.302682152050153 3.9456211831650161 0.78801076186113728 0 -0.61566146476048833 0.30783073238024417 0 0.39400538093056864 1 I I 0 1 0.5 forward I I I I #
face $-1 $112 $113 $27 $-1 $114 reversed single #
loop $-1 $-1 $115 $45 #
plane-surface $-1 0 0 -6.0005211158011855 0 0 1 1 0 0 forward_v I I I I #
coedge $-1 $116 $117 $118 $119 forward $46 $-1 #
face $-1 $120 $121 $28 $-1 $122 reversed single #
loop $-1 $-1 $123 $48 #
plane-surface $-1 0 -23.406420825856372 4.275446834879566 0 -1 0 0 0 -1 forward_v I I I I #
coedge $-1 $124 $125 $126 $127 reversed $49 $-1 #
face $-1 $128 $129 $29 $-1 $130 forward single #
loop $-1 $-1 $131 $51 #
plane-surface $-1 0 23.406420825856372 4.275446834879566 0 1 0 0 0 1 forward_v I I I I #
coedge $-1 $132 $133 $134 $135 reversed $52 $-1 #
face $-1 $136 $137 $30 $-1 $138 forward single #
loop $-1 $-1 $139 $54 #
plane-surface $-1 -12.536775144521357 17.974878146695495 88.252760926444324 0.78801076186113728 0 0.61566146476048833 0.61566146476048833 0 -0.78801076186113728 forward_v I I I I #
coedge $-1 $140 $141 $142 $143 reversed $55 $-1 #
face $-1 $-1 $144 $31 $-1 $145 forward single #
loop $-1 $146 $147 $57 #
cone-surface $-1 51.550474212730769 15.647074141340831 3.3177092446039529 -0.78801076186113728 0 -0.61566146476048833 0.15391536619012208 0 -0.19700269046528432 1 I I -0.70710678118654746 0.70710678118654746 0.25 forward I I I I #
loop $-1 $-1 $148 $40 #
coedge $-1 $92 $92 $149 $150 reversed $58 $-1 #
face $-1 $-1 $151 $32 $-1 $152 forward single #
loop $-1 $153 $154 $60 #
cone-surface $-1 51.550474212730769 20.302682152050153 3.3177092446039529 -0.78801076186113728 0 -0.61566146476048833 0.15391536619012208 0 -0.19700269046528432 1 I I -0.70710678118654746 0.70710678118654746 0.25 forward I I I I #
loop $-1 $-1 $155 $41 #
coedge $-1 $97 $97 $156 $157 reversed $61 $-1 #
face $-1 $158 $159 $33 $-1 $160 forward single #
loop $-1 $-1 $161 $63 #
plane-surface $-1 -139.61003639902842 12.543335467534618 69.571479407646947 0 1 0 -0.78801076186113728 0 0.61566146476048833 forward_v I I I I #
coedge $-1 $162 $163 $164 $165 reversed $64 $-1 #
face $-1 $-1 $166 $34 $-1 $167 forward single #
loop $-1 $168 $169 $66 #
cone-surface $-1 -51.550474212730762 15.647074141340831 3.3177092446039405 0.78801076186113728 0 -0.61566146476048833 0.15391536619012208 0 0.19700269046528432 1 I I -0.70710678118654746 0.70710678118654746 0.25 forward I I I I #
loop $-1 $-1 $170 $43 #
coedge $-1 $106 $106 $171 $172 reversed $67 $-1 #
face $-1 $-1 $173 $35 $-1 $174 forward single #
loop $-1 $175 $176 $69 #
cone-surface $-1 -51.550474212730762 20.302682152050153 3.3177092446039405 0.78801076186113728 0 -0.61566146476048833 0.15391536619012208 0 0.19700269046528432 1 I I -0.70710678118654746 0.70710678118654746 0.25 forward I I I I #
loop $-1 $-1 $177 $44 #
coedge $-1 $111 $111 $178 $179 reversed $70 $-1 #
face $-1 $180 $181 $27 $-1 $182 reversed single #
loop $-1 $-1 $183 $72 #
plane-surface $-1 0 -29.781744229242264 0 0 1 0 0 0 1 forward_v I I I I #
coedge $-1 $184 $185 $186 $187 forward $73 $-1 #
coedge $-1 $188 $75 $189 $190 forward $46 $-1 #
coedge $-1 $75 $188 $191 $192 forward $46 $-1 #
coedge $-1 $193 $194 $75 $119 reversed $195 $-1 #
edge $-1 $196 -29.781744229242264 $197 29.781744229242264 $118 $198 forward 7 unknown #
face $-1 $199 $200 $28 $-1 $201 reversed single #
loop $-1 $-1 $202 $76 #
plane-surface $-1 -54.195989867854856 0 0 1 0 0 0 0 -1 forward_v I I I I #
coedge $-1 $203 $204 $205 $206 reversed $77 $-1 #
coedge $-1 $207 $79 $208 $209 reversed $49 $-1 #
coedge $-1 $79 $207 $203 $210 forward $49 $-1 #
coedge $-1 $205 $211 $79 $127 forward $212 $-1 #
edge $-1 $213 -16.484702965467605 $214 -10.109379562081713 $126 $215 forward 7 unknown #
face $-1 $216 $217 $29 $-1 $218 reversed single #
loop $-1 $-1 $219 $80 #
plane-surface $-1 0 0 6.0005211158011855 0 0 1 1 0 0 forward_v I I I I #
coedge $-1 $220 $221 $222 $223 reversed $81 $-1 #
coedge $-1 $224 $83 $220 $225 forward $52 $-1 #
coedge $-1 $83 $224 $226 $227 reversed $52 $-1 #
coedge $-1 $228 $229 $83 $135 forward $217 $-1 #
edge $-1 $230 10.109379562081713 $231 16.484702965467605 $134 $232 forward 7 unknown #
face $-1 $233 $234 $30 $-1 $235 reversed single #
loop $-1 $-1 $236 $84 #
plane-surface $-1 0 0 6.0005211158011855 0 0 1 1 0 0 forward_v I I I I #
coedge $-1 $237 $238 $239 $240 reversed $85 $-1 #
coedge $-1 $141 $87 $241 $242 reversed $55 $-1 #
coedge $-1 $87 $140 $237 $243 reversed $55 $-1 #
coedge $-1 $239 $244 $87 $143 forward $234 $-1 #
edge $-1 $245 71.492241853609073 $246 74.654048574139509 $142 $247 forward 7 unknown #
loop $-1 $-1 $149 $88 #
plane-surface $-1 -12.536775144521357 17.974878146695495 88.252760926444324 0.78801076186113728 0 0.61566146476048833 0.61566146476048833 0 -0.78801076186113728 forward_v I I I I #
loop $-1 $-1 $248 $57 #
coedge $-1 $147 $147 $148 $249 reversed $89 $-1 #
coedge $-1 $148 $148 $147 $249 forward $91 $-1 #
coedge $-1 $149 $149 $92 $150 forward $144 $-1 #
edge $-1 $250 0 $250 6.2831853071796004 $149 $251 forward 7 unknown #
loop $-1 $-1 $156 $93 #
plane-surface $-1 -12.536775144521357 17.974878146695495 88.252760926444324 0.78801076186113728 0 0.61566146476048833 0.61566146476048833 0 -0.78801076186113728 forward_v I I I I #
loop $-1 $-1 $252 $60 #
coedge $-1 $154 $154 $155 $253 reversed $94 $-1 #
coedge $-1 $155 $155 $154 $253 forward $96 $-1 #
coedge $-1 $156 $156 $97 $157 forward $151 $-1 #
edge $-1 $254 0 $254 6.2831853071796004 $156 $255 forward 7 unknown #
face $-1 $256 $257 $33 $-1 $258 forward single #
loop $-1 $-1 $259 $98 #
plane-surface $-1 0 23.406420825856372 4.275446834879566 0 1 0 0 0 1 forward_v I I I I #
coedge $-1 $260 $261 $262 $263 reversed $99 $-1 #
coedge $-1 $264 $101 $259 $265 reversed $64 $-1 #
coedge $-1 $101 $264 $260 $266 forward $64 $-1 #
coedge $-1 $262 $267 $101 $165 forward $268 $-1 #
edge $-1 $269 -14.418981752508625 $270 -3.5558963941868704 $164 $271 forward 7 unknown #
loop $-1 $-1 $171 $102 #
plane-surface $-1 -54.195989867854848 17.974878146695495 2.8387143952707419 -0.78801076186113728 0 0.61566146476048833 0.61566146476048833 0 0.78801076186113728 forward_v I I I I #
loop $-1 $-1 $272 $66 #
coedge $-1 $169 $169 $170 $273 reversed $103 $-1 #
coedge $-1 $170 $170 $169 $273 forward $105 $-1 #
coedge $-1 $171 $171 $106 $172 forward $166 $-1 #
edge $-1 $274 0 $274 6.2831853071796004 $171 $275 forward 7 unknown #
loop $-1 $-1 $178 $107 #
plane-surface $-1 -54.195989867854848 17.974878146695495 2.8387143952707419 -0.78801076186113728 0 0.61566146476048833 0.61566146476048833 0 0.78801076186113728 forward_v I I I I #
loop $-1 $-1 $276 $69 #
coedge $-1 $176 $176 $177 $277 reversed $108 $-1 #
coedge $-1 $177 $177 $176 $277 forward $110 $-1 #
coedge $-1 $178 $178 $111 $179 forward $173 $-1 #
edge $-1 $278 0 $278 6.2831853071796004 $178 $279 forward 7 unknown #
face $-1 $280 $281 $27 $-1 $282 reversed single #
loop $-1 $-1 $283 $112 #
plane-surface $-1 -54.195989867854856 0 0 1 0 0 0 0 -1 forward_v I I I I #
coedge $-1 $284 $191 $285 $286 forward $113 $-1 #
coedge $-1 $287 $115 $284 $288 forward $73 $-1 #
coedge $-1 $115 $287 $289 $290 forward $73 $-1 #
coedge $-1 $194 $193 $115 $187 reversed $195 $-1 #
edge $-1 $291 -29.781744229242264 $292 29.781744229242264 $186 $293 forward 7 unknown #
coedge $-1 $117 $116 $294 $295 forward $46 $-1 #
coedge $-1 $296 $297 $116 $190 reversed $281 $-1 #
edge $-1 $197 -54.195989867854856 $298 54.195989867854856 $189 $299 forward 7 unknown #
coedge $-1 $183 $300 $117 $192 reversed $113 $-1 #
edge $-1 $301 -54.195989867854856 $196 54.195989867854856 $191 $302 forward 7 unknown #
coedge $-1 $186 $118 $300 $303 forward $195 $-1 #
coedge $-1 $118 $186 $296 $304 reversed $195 $-1 #
loop $-1 $-1 $193 $280 #
vertex $-1 $119 $305 #
vertex $-1 $119 $306 #
straight-curve $-1 54.195989867854856 0 6.0005211158011855 0 1 0 I I #
face $-1 $307 $308 $28 $-1 $309 forward single #
loop $-1 $-1 $208 $120 #
plane-surface $-1 0 -29.781744229242264 0 0 1 0 0 0 1 forward_v I I I I #
coedge $-1 $310 $311 $312 $313 forward $121 $-1 #
coedge $-1 $312 $123 $125 $210 reversed $77 $-1 #
coedge $-1 $123 $312 $314 $315 reversed $77 $-1 #
coedge $-1 $316 $126 $123 $206 forward $212 $-1 #
edge $-1 $214 0.4126491365181626 $317 3.8627976983614034 $205 $318 forward 7 unknown #
coedge $-1 $125 $124 $310 $319 reversed $49 $-1 #
coedge $-1 $320 $321 $124 $209 forward $200 $-1 #
edge $-1 $322 -54.195989867854856 $213 54.195989867854856 $208 $323 forward 7 unknown #
edge $-1 $324 -54.195989867854856 $214 54.195989867854856 $203 $325 forward 7 unknown #
coedge $-1 $126 $316 $320 $326 forward $212 $-1 #
loop $-1 $-1 $205 $307 #
vertex $-1 $209 $327 #
vertex $-1 $127 $328 #
straight-curve $-1 54.195989867854856 -13.297041263774659 2.5503725539579456 0 1 0 I I #
face $-1 $329 $330 $29 $-1 $331 reversed single #
loop $-1 $-1 $229 $128 #
plane-surface $-1 54.195989867854856 0 0 -1 0 0 0 0 1 forward_v I I I I #
coedge $-1 $332 $333 $221 $334 forward $129 $-1 #
coedge $-1 $335 $131 $132 $225 reversed $81 $-1 #
coedge $-1 $131 $335 $219 $334 reversed $81 $-1 #
coedge $-1 $336 $337 $131 $223 forward $330 $-1 #
edge $-1 $338 0.4126491365181626 $339 3.8627976983614034 $222 $340 forward 7 unknown #
coedge $-1 $133 $132 $337 $341 reversed $52 $-1 #
edge $-1 $230 -54.195989867854856 $338 54.195989867854856 $220 $342 forward 7 unknown #
coedge $-1 $343 $344 $133 $227 forward $345 $-1 #
edge $-1 $231 -54.195989867854856 $346 54.195989867854856 $226 $347 forward 7 unknown #
coedge $-1 $348 $134 $344 $349 reversed $217 $-1 #
coedge $-1 $134 $348 $335 $350 forward $217 $-1 #
vertex $-1 $135 $351 #
vertex $-1 $227 $352 #
straight-curve $-1 54.195989867854856 13.297041263774659 2.5503725539579456 0 1 0 I I #
face $-1 $-1 $353 $30 $-1 $354 forward single #
loop $-1 $-1 $142 $136 #
plane-surface $-1 54.195989867854856 0 0 -1 0 0 0 0 1 forward_v I I I I #
coedge $-1 $241 $355 $356 $357 forward $137 $-1 #
coedge $-1 $356 $139 $141 $243 forward $85 $-1 #
coedge $-1 $139 $356 $358 $359 reversed $85 $-1 #
coedge $-1 $360 $142 $139 $240 forward $234 $-1 #
edge $-1 $246 3.5558963941868704 $361 14.418981752508625 $239 $362 forward 7 unknown #
coedge $-1 $363 $236 $140 $242 forward $137 $-1 #
edge $-1 $364 15.287080098253696 $245 17.75735417452875 $241 $365 forward 7 unknown #
edge $-1 $246 -108.39197973570973 $364 -104.3795894568475 $141 $366 forward 7 unknown #
coedge $-1 $142 $360 $363 $367 reversed $234 $-1 #
vertex $-1 $367 $368 #
vertex $-1 $143 $369 #
straight-curve $-1 54.195989867854856 12.543335467534618 77.492762969410265 0 0 -1 I I #
coedge $-1 $248 $248 $-1 $370 reversed $146 $-1 #
edge $-1 $371 0 $371 6.2831853071796004 $147 $372 forward 7 unknown #
vertex $-1 $150 $373 #
ellipse-curve $-1 52.960852829717318 15.647074141340831 4.419617755535973 0.78801076186113728 0 0.61566146476048833 0.30783073238024417 0 -0.39400538093056864 1 I I #
coedge $-1 $252 $252 $-1 $374 reversed $153 $-1 #
edge $-1 $375 0 $375 6.2831853071796004 $154 $376 forward 7 unknown #
vertex $-1 $157 $377 #
ellipse-curve $-1 52.960852829717318 20.302682152050153 4.419617755535973 0.78801076186113728 0 0.61566146476048833 0.30783073238024417 0 -0.39400538093056864 1 I I #
face $-1 $-1 $268 $33 $-1 $378 reversed single #
loop $-1 $-1 $379 $158 #
plane-surface $-1 0 0 6.0005211158011855 0 0 1 1 0 0 forward_v I I I I #
coedge $-1 $380 $381 $162 $265 forward $159 $-1 #
coedge $-1 $261 $161 $163 $266 reversed $99 $-1 #
coedge $-1 $161 $260 $382 $383 reversed $99 $-1 #
coedge $-1 $384 $164 $161 $263 forward $268 $-1 #
edge $-1 $270 -31.947025308552739 $385 -28.785218588022289 $262 $386 forward 7 unknown #
coedge $-1 $163 $162 $379 $387 reversed $64 $-1 #
edge $-1 $388 13.236881286395207 $269 17.249271565257445 $259 $389 forward 7 unknown #
edge $-1 $390 -4.0123902788622257 $270 1.1373479346495045e-014 $260 $391 forward 7 unknown #
coedge $-1 $164 $384 $380 $392 forward $268 $-1 #
loop $-1 $-1 $262 $256 #
vertex $-1 $265 $393 #
vertex $-1 $165 $394 #
straight-curve $-1 -54.195989867854856 8.9874390733477476 2.8387143952707299 0 -1 0 I I #
coedge $-1 $272 $272 $-1 $395 reversed $168 $-1 #
edge $-1 $396 0 $396 6.2831853071796004 $169 $397 forward 7 unknown #
vertex $-1 $172 $398 #
ellipse-curve $-1 -52.960852829717318 15.647074141340831 4.4196177555359641 -0.78801076186113728 0 0.61566146476048833 0.30783073238024417 0 0.39400538093056864 1 I I #
coedge $-1 $276 $276 $-1 $399 reversed $175 $-1 #
edge $-1 $400 0 $400 6.2831853071796004 $176 $401 forward 7 unknown #
vertex $-1 $179 $402 #
ellipse-curve $-1 -52.960852829717318 20.302682152050153 4.4196177555359641 -0.78801076186113728 0 0.61566146476048833 0.30783073238024417 0 0.39400538093056864 1 I I #
face $-1 $-1 $195 $27 $-1 $403 reversed single #
loop $-1 $-1 $296 $180 #
plane-surface $-1 0 29.781744229242264 0 0 -1 0 0 0 -1 forward_v I I I I #
coedge $-1 $404 $294 $297 $405 forward $181 $-1 #
coedge $-1 $300 $183 $184 $288 reversed $113 $-1 #
coedge $-1 $294 $404 $183 $286 reversed $181 $-1 #
edge $-1 $301 -6.0005211158011855 $406 6.0005211158011855 $285 $407 forward 7 unknown #
coedge $-1 $185 $184 $404 $408 forward $73 $-1 #
edge $-1 $292 -54.195989867854856 $406 54.195989867854856 $284 $409 forward 7 unknown #
coedge $-1 $297 $296 $185 $290 reversed $281 $-1 #
edge $-1 $410 -54.195989867854856 $291 54.195989867854856 $289 $411 forward 7 unknown #
vertex $-1 $187 $412 #
vertex $-1 $303 $413 #
straight-curve $-1 54.195989867854856 0 -6.0005211158011855 0 -1 0 I I #
coedge $-1 $283 $285 $188 $295 reversed $181 $-1 #
edge $-1 $298 -29.781744229242264 $301 29.781744229242264 $294 $414 forward 7 unknown #
coedge $-1 $289 $189 $194 $304 forward $281 $-1 #
coedge $-1 $189 $289 $283 $405 reversed $281 $-1 #
vertex $-1 $190 $415 #
straight-curve $-1 0 29.781744229242264 6.0005211158011855 -1 0 0 I I #
coedge $-1 $191 $284 $193 $303 reversed $113 $-1 #
vertex $-1 $295 $416 #
straight-curve $-1 0 -29.781744229242264 6.0005211158011855 1 0 0 I I #
edge $-1 $196 -6.0005211158011855 $292 6.0005211158011855 $193 $417 forward 7 unknown #
edge $-1 $197 -6.0005211158011855 $291 6.0005211158011855 $194 $418 forward 7 unknown #
point $-1 54.195989867854856 -29.781744229242264 6.0005211158011855 #
point $-1 54.195989867854856 29.781744229242264 6.0005211158011855 #
face $-1 $-1 $212 $28 $-1 $419 reversed single #
loop $-1 $-1 $314 $199 #
plane-surface $-1 0 0 6.0005211158011855 0 0 1 1 0 0 forward_v I I I I #
coedge $-1 $420 $202 $207 $319 forward $121 $-1 #
coedge $-1 $202 $420 $421 $422 reversed $121 $-1 #
coedge $-1 $204 $203 $202 $313 reversed $77 $-1 #
edge $-1 $423 -3.8627976983614034 $324 -0.4126491365181626 $202 $424 forward 7 unknown #
coedge $-1 $421 $425 $204 $315 forward $308 $-1 #
edge $-1 $317 -54.195989867854856 $423 54.195989867854856 $314 $426 forward 7 unknown #
coedge $-1 $211 $205 $425 $427 reversed $212 $-1 #
vertex $-1 $206 $428 #
straight-curve $-1 54.195989867854856 -23.406420825856372 2.137723417439783 0 0 1 I I #
edge $-1 $324 10.109379562081713 $322 16.484702965467605 $310 $429 forward 7 unknown #
coedge $-1 $430 $208 $211 $326 reversed $200 $-1 #
coedge $-1 $208 $430 $420 $431 forward $200 $-1 #
vertex $-1 $209 $432 #
straight-curve $-1 0 -29.781744229242264 2.5503725539579456 1 0 0 I I #
vertex $-1 $319 $433 #
straight-curve $-1 0 -23.406420825856372 2.5503725539579456 1 0 0 I I #
edge $-1 $434 -6.0005211158011855 $213 -2.5503725539579456 $211 $435 forward 7 unknown #
point $-1 54.195989867854856 -29.781744229242264 2.5503725539579456 #
point $-1 54.195989867854856 -23.406420825856372 2.5503725539579456 #
face $-1 $-1 $345 $29 $-1 $436 reversed single #
loop $-1 $-1 $222 $216 #
plane-surface $-1 -54.195989867854856 0 0 1 0 0 0 0 -1 forward_v I I I I #
coedge $-1 $437 $219 $348 $438 forward $129 $-1 #
coedge $-1 $219 $437 $336 $439 forward $129 $-1 #
edge $-1 $339 -54.195989867854856 $440 54.195989867854856 $219 $441 forward 7 unknown #
coedge $-1 $221 $220 $229 $350 reversed $81 $-1 #
coedge $-1 $442 $222 $333 $439 reversed $330 $-1 #
coedge $-1 $222 $442 $224 $341 forward $330 $-1 #
vertex $-1 $341 $443 #
vertex $-1 $223 $444 #
straight-curve $-1 -54.195989867854856 23.406420825856372 2.137723417439783 0 0 1 I I #
edge $-1 $346 -16.484702965467605 $338 -10.109379562081713 $337 $445 forward 7 unknown #
straight-curve $-1 0 23.406420825856372 2.5503725539579456 -1 0 0 I I #
coedge $-1 $446 $226 $442 $447 reversed $345 $-1 #
coedge $-1 $226 $446 $228 $349 forward $345 $-1 #
loop $-1 $-1 $226 $329 #
vertex $-1 $227 $448 #
straight-curve $-1 0 29.781744229242264 2.5503725539579456 -1 0 0 I I #
coedge $-1 $229 $228 $332 $438 reversed $217 $-1 #
edge $-1 $449 -6.0005211158011855 $231 -2.5503725539579456 $228 $450 forward 7 unknown #
edge $-1 $440 -3.8627976983614034 $230 -0.4126491365181626 $229 $451 forward 7 unknown #
point $-1 54.195989867854856 23.406420825856372 2.5503725539579456 #
point $-1 54.195989867854856 29.781744229242264 2.5503725539579456 #
loop $-1 $-1 $358 $233 #
plane-surface $-1 0 23.406420825856372 4.275446834879566 0 1 0 0 0 1 forward_v I I I I #
coedge $-1 $236 $363 $452 $453 forward $137 $-1 #
coedge $-1 $238 $237 $236 $357 reversed $85 $-1 #
edge $-1 $454 -14.418981752508625 $364 -3.5558963941868704 $236 $455 forward 7 unknown #
coedge $-1 $452 $456 $238 $359 forward $353 $-1 #
edge $-1 $361 -71.445261433112279 $454 -67.432871154250066 $358 $457 forward 7 unknown #
coedge $-1 $244 $239 $456 $458 forward $234 $-1 #
vertex $-1 $458 $459 #
straight-curve $-1 54.195989867854856 8.9874390733477476 2.8387143952707632 0 1 0 I I #
coedge $-1 $355 $241 $244 $367 forward $137 $-1 #
vertex $-1 $242 $460 #
straight-curve $-1 36.438635693326106 12.543335467534618 6.0005211158011917 1 0 0 I I #
straight-curve $-1 -12.536775144521357 12.543335467534618 88.252760926444324 -0.61566146476048833 0 0.78801076186113728 I I #
edge $-1 $245 12.543335467534618 $461 23.406420825856372 $244 $462 forward 7 unknown #
point $-1 54.195989867854856 12.543335467534618 6.0005211158011855 #
point $-1 54.195989867854848 12.543335467534618 2.8387143952707561 #
edge $-1 $463 1 $463 0 $248 $-1 forward 7 unknown #
vertex $-1 $249 $464 #
ellipse-curve $-1 51.747476903196052 15.647074141340831 3.4716246107940751 0.78801076186113728 0 0.61566146476048833 0.30783073238024417 0 -0.39400538093056864 1 I I #
point $-1 53.268683562097578 15.647074141340831 4.0256123746054131 #
edge $-1 $465 1 $465 0 $252 $-1 forward 7 unknown #
vertex $-1 $253 $466 #
ellipse-curve $-1 51.747476903196052 20.302682152050153 3.4716246107940751 0.78801076186113728 0 0.61566146476048833 0.30783073238024417 0 -0.39400538093056864 1 I I #
point $-1 53.268683562097578 20.302682152050153 4.0256123746054131 #
plane-surface $-1 -54.195989867854856 0 0 1 0 0 0 0 -1 forward_v I I I I #
coedge $-1 $467 $382 $264 $387 forward $257 $-1 #
coedge $-1 $381 $259 $267 $392 reversed $159 $-1 #
coedge $-1 $259 $380 $467 $468 reversed $159 $-1 #
coedge $-1 $379 $469 $261 $383 forward $257 $-1 #
edge $-1 $385 15.609028331659353 $390 18.079302407934421 $382 $470 forward 7 unknown #
coedge $-1 $267 $262 $469 $471 reversed $268 $-1 #
vertex $-1 $263 $472 #
straight-curve $-1 -54.195989867854856 12.543335467534618 34.785739703823474 0 0 1 I I #
edge $-1 $390 3.5558963941868704 $388 14.418981752508625 $379 $473 forward 7 unknown #
vertex $-1 $468 $474 #
straight-curve $-1 -43.576278069937018 23.406420825856372 16.431326022958903 -0.61566146476048833 0 -0.78801076186113728 I I #
vertex $-1 $387 $475 #
straight-curve $-1 -54.195989867854848 12.543335467534618 2.8387143952707419 -0.61566146476048833 0 -0.78801076186113728 I I #
edge $-1 $476 -3.8627976983614034 $269 -0.70099097783094999 $267 $477 forward 7 unknown #
point $-1 -54.195989867854856 23.406420825856372 2.838714395270733 #
point $-1 -54.195989867854856 12.543335467534618 2.838714395270733 #
edge $-1 $478 1 $478 0 $272 $-1 forward 7 unknown #
vertex $-1 $273 $479 #
ellipse-curve $-1 -51.747476903196045 15.647074141340831 3.4716246107940627 -0.78801076186113728 0 0.61566146476048833 0.30783073238024417 0 0.39400538093056864 1 I I #
point $-1 -52.653022097337079 15.647074141340831 4.8136231364665383 #
edge $-1 $480 1 $480 0 $276 $-1 forward 7 unknown #
vertex $-1 $277 $481 #
ellipse-curve $-1 -51.747476903196045 20.302682152050153 3.4716246107940627 -0.78801076186113728 0 0.61566146476048833 0.30783073238024417 0 0.39400538093056864 1 I I #
point $-1 -52.653022097337079 20.302682152050153 4.8136231364665383 #
plane-surface $-1 54.195989867854856 0 0 -1 0 0 0 0 1 forward_v I I I I #
coedge $-1 $285 $283 $287 $408 reversed $181 $-1 #
edge $-1 $298 -6.0005211158011855 $410 6.0005211158011855 $297 $482 forward 7 unknown #
vertex $-1 $408 $483 #
straight-curve $-1 -54.195989867854856 -29.781744229242264 0 0 0 -1 I I #
edge $-1 $406 -29.781744229242264 $410 29.781744229242264 $404 $484 forward 7 unknown #
straight-curve $-1 0 -29.781744229242264 -6.0005211158011855 -1 0 0 I I #
vertex $-1 $290 $485 #
straight-curve $-1 0 29.781744229242264 -6.0005211158011855 1 0 0 I I #
point $-1 54.195989867854856 29.781744229242264 -6.0005211158011855 #
point $-1 54.195989867854856 -29.781744229242264 -6.0005211158011855 #
straight-curve $-1 -54.195989867854856 0 6.0005211158011855 0 -1 0 I I #
point $-1 -54.195989867854856 29.781744229242264 6.0005211158011855 #
point $-1 -54.195989867854856 -29.781744229242264 6.0005211158011855 #
straight-curve $-1 54.195989867854856 -29.781744229242264 0 0 0 -1 I I #
straight-curve $-1 54.195989867854856 29.781744229242264 0 0 0 -1 I I #
plane-surface $-1 54.195989867854856 0 0 -1 0 0 0 0 1 forward_v I I I I #
coedge $-1 $311 $310 $321 $431 reversed $121 $-1 #
coedge $-1 $486 $314 $311 $422 forward $308 $-1 #
edge $-1 $423 23.406420825856372 $487 29.781744229242264 $311 $488 forward 7 unknown #
vertex $-1 $422 $489 #
straight-curve $-1 -54.195989867854856 -23.406420825856372 2.137723417439783 0 0 -1 I I #
coedge $-1 $314 $486 $316 $427 forward $308 $-1 #
straight-curve $-1 0 -23.406420825856372 6.0005211158011855 -1 0 0 I I #
edge $-1 $434 -29.781744229242264 $317 -23.406420825856372 $316 $490 forward 7 unknown #
point $-1 54.195989867854856 -23.406420825856372 6.0005211158011864 #
straight-curve $-1 -54.195989867854856 -13.297041263774659 2.5503725539579456 0 -1 0 I I #
coedge $-1 $321 $320 $486 $491 reversed $200 $-1 #
edge $-1 $487 -6.0005211158011855 $322 -2.5503725539579456 $420 $492 forward 7 unknown #
point $-1 -54.195989867854856 -29.781744229242264 2.5503725539579456 #
point $-1 -54.195989867854856 -23.406420825856372 2.5503725539579456 #
vertex $-1 $427 $493 #
straight-curve $-1 54.195989867854856 -29.781744229242264 0 0 0 -1 I I #
plane-surface $-1 0 29.781744229242264 0 0 -1 0 0 0 -1 forward_v I I I I #
coedge $-1 $333 $332 $446 $494 forward $129 $-1 #
edge $-1 $440 23.406420825856372 $449 29.781744229242264 $348 $495 forward 7 unknown #
edge $-1 $496 -29.781744229242264 $339 -23.406420825856372 $336 $497 forward 7 unknown #
vertex $-1 $438 $498 #
straight-curve $-1 0 23.406420825856372 6.0005211158011855 1 0 0 I I #
coedge $-1 $337 $336 $343 $447 forward $330 $-1 #
point $-1 -54.195989867854856 23.406420825856372 2.5503725539579456 #
point $-1 -54.195989867854856 23.406420825856372 6.0005211158011864 #
straight-curve $-1 -54.195989867854856 13.297041263774659 2.5503725539579456 0 -1 0 I I #
coedge $-1 $344 $343 $437 $494 reversed $345 $-1 #
edge $-1 $496 -6.0005211158011855 $346 -2.5503725539579456 $343 $499 forward 7 unknown #
point $-1 -54.195989867854856 29.781744229242264 2.5503725539579456 #
vertex $-1 $438 $500 #
straight-curve $-1 54.195989867854856 29.781744229242264 0 0 0 -1 I I #
straight-curve $-1 54.195989867854856 23.406420825856372 2.137723417439783 0 0 -1 I I #
coedge $-1 $456 $358 $355 $453 reversed $353 $-1 #
edge $-1 $461 -54.195989867854856 $454 -51.725715791579795 $355 $501 forward 7 unknown #
vertex $-1 $359 $502 #
straight-curve $-1 51.725715791579802 8.9874390733477476 6.0005211158011846 0 -1 0 I I #
coedge $-1 $358 $452 $360 $458 reversed $353 $-1 #
straight-curve $-1 10.209895563748923 23.406420825856372 59.138349288545697 -0.61566146476048833 0 0.78801076186113728 I I #
edge $-1 $361 0.70099097783098463 $461 3.8627976983614034 $360 $503 forward 7 unknown #
point $-1 54.195989867854856 23.406420825856372 2.8387143952707676 #
point $-1 51.725715791579802 12.543335467534618 6.0005211158011917 #
vertex $-1 $453 $504 #
straight-curve $-1 54.195989867854856 0 6.0005211158011855 0 1 0 I I #
vertex $-1 $370 $505 #
point $-1 52.055307635576298 15.647074141340831 3.0776192298635063 #
vertex $-1 $374 $506 #
point $-1 52.055307635576298 20.302682152050153 3.0776192298635063 #
coedge $-1 $469 $379 $381 $468 forward $257 $-1 #
edge $-1 $388 51.725715791579788 $476 54.195989867854856 $467 $507 forward 7 unknown #
coedge $-1 $382 $467 $384 $471 forward $257 $-1 #
straight-curve $-1 -69.805018199514208 12.543335467534618 6.0005211158011846 1 0 0 I I #
edge $-1 $476 -23.406420825856372 $385 -12.543335467534618 $384 $508 forward 7 unknown #
point $-1 -54.195989867854856 12.543335467534618 6.0005211158011855 #
straight-curve $-1 -51.725715791579788 8.9874390733477476 6.0005211158011846 0 1 0 I I #
point $-1 -51.725715791579788 23.406420825856372 6.0005211158011855 #
point $-1 -51.725715791579788 12.543335467534618 6.0005211158011855 #
vertex $-1 $471 $509 #
straight-curve $-1 -54.195989867854856 23.406420825856372 2.137723417439783 0 0 -1 I I #
vertex $-1 $395 $510 #
point $-1 -51.439646170815806 15.647074141340831 3.8656299917246311 #
vertex $-1 $399 $511 #
point $-1 -51.439646170815806 20.302682152050153 3.8656299917246311 #
straight-curve $-1 -54.195989867854856 29.781744229242264 0 0 0 -1 I I #
point $-1 -54.195989867854856 -29.781744229242264 -6.0005211158011855 #
straight-curve $-1 -54.195989867854856 0 -6.0005211158011855 0 1 0 I I #
point $-1 -54.195989867854856 29.781744229242264 -6.0005211158011855 #
coedge $-1 $425 $421 $430 $491 forward $308 $-1 #
vertex $-1 $422 $512 #
straight-curve $-1 -54.195989867854856 0 6.0005211158011855 0 -1 0 I I #
point $-1 -54.195989867854856 -23.406420825856372 6.0005211158011864 #
straight-curve $-1 54.195989867854856 0 6.0005211158011855 0 1 0 I I #
edge $-1 $487 -54.195989867854856 $434 54.195989867854856 $430 $513 forward 7 unknown #
straight-curve $-1 -54.195989867854856 -29.781744229242264 0 0 0 -1 I I #
point $-1 54.195989867854856 -29.781744229242264 6.0005211158011855 #
edge $-1 $449 -54.195989867854856 $496 54.195989867854856 $446 $514 forward 7 unknown #
straight-curve $-1 54.195989867854856 0 6.0005211158011855 0 1 0 I I #
vertex $-1 $494 $515 #
straight-curve $-1 -54.195989867854856 0 6.0005211158011855 0 -1 0 I I #
point $-1 54.195989867854856 23.406420825856372 6.0005211158011864 #
straight-curve $-1 -54.195989867854856 29.781744229242264 0 0 0 -1 I I #
point $-1 54.195989867854856 29.781744229242264 6.0005211158011855 #
straight-curve $-1 0 23.406420825856372 6.0005211158011855 -1 0 0 I I #
point $-1 51.725715791579795 23.406420825856372 6.0005211158011855 #
straight-curve $-1 54.195989867854856 23.406420825856372 2.137723417439783 0 0 1 I I #
point $-1 54.195989867854856 23.406420825856372 6.0005211158011864 #
point $-1 51.353471522265487 15.647074141340831 3.1637938784138306 #
point $-1 51.353471522265487 20.302682152050153 3.1637938784138306 #
straight-curve $-1 0 23.406420825856372 6.0005211158011855 -1 0 0 I I #
straight-curve $-1 -54.195989867854856 0 6.0005211158011855 0 -1 0 I I #
point $-1 -54.195989867854856 23.406420825856372 6.0005211158011864 #
point $-1 -51.35347152226548 15.647074141340831 3.1637938784138182 #
point $-1 -51.35347152226548 20.302682152050153 3.1637938784138182 #
point $-1 -54.195989867854856 -29.781744229242264 6.0005211158011855 #
straight-curve $-1 0 -29.781744229242264 6.0005211158011855 1 0 0 I I #
straight-curve $-1 0 29.781744229242264 6.0005211158011855 -1 0 0 I I #
point $-1 -54.195989867854856 29.781744229242264 6.0005211158011855 #
End-of-ACIS-data 