500 0 10 0           
7 Unknown 11 ACIS 5.0 NT 24 Fri Mar 26 19:55:13 1999 
-1 9.9999999999999995e-007 1e-010 
body $-1 $10 $-1 $11 #
body $-1 $12 $-1 $13 #
body $-1 $14 $-1 $15 #
body $-1 $16 $-1 $17 #
body $-1 $18 $-1 $19 #
body $-1 $20 $-1 $21 #
body $-1 $22 $-1 $23 #
body $-1 $24 $-1 $25 #
body $-1 $26 $-1 $27 #
body $-1 $28 $-1 $29 #
lump $-1 $-1 $30 $0 #
transform $-1 1 0 0 0 1 0 0 0 1 44.119998779259618 30.010674422186103 9.2215483693893496 1 rotate no_reflect no_shear #
lump $-1 $-1 $31 $1 #
transform $-1 1 0 0 0 1 0 0 0 1 44.119998779259618 30.010674422186103 9.2215483693893496 1 rotate no_reflect no_shear #
lump $-1 $-1 $32 $2 #
transform $-1 1 0 0 0 1 0 0 0 1 44.119998779259618 30.010674422186103 9.2215483693893496 1 rotate no_reflect no_shear #
lump $-1 $-1 $33 $3 #
transform $-1 1 0 0 0 1 0 0 0 1 44.119998779259618 30.010674422186103 9.2215483693893496 1 rotate no_reflect no_shear #
lump $-1 $-1 $34 $4 #
transform $-1 1 0 0 0 1 0 0 0 1 44.119998779259618 30.010674422186103 9.2215483693893496 1 rotate no_reflect no_shear #
lump $-1 $-1 $35 $5 #
transform $-1 1 0 0 0 1 0 0 0 1 44.119998779259618 30.010674422186103 9.2215483693893496 1 rotate no_reflect no_shear #
lump $-1 $-1 $36 $6 #
transform $-1 1 0 0 0 1 0 0 0 1 44.119998779259618 30.010674422186103 9.2215483693893496 1 rotate no_reflect no_shear #
lump $-1 $-1 $37 $7 #
transform $-1 1 0 0 0 1 0 0 0 1 44.119998779259618 30.010674422186103 9.2215483693893496 1 rotate no_reflect no_shear #
lump $-1 $-1 $38 $8 #
transform $-1 1 0 0 0 1 0 0 0 1 44.119998779259618 30.010674422186103 9.2215483693893496 1 rotate no_reflect no_shear #
lump $-1 $-1 $39 $9 #
transform $-1 1 0 0 0 1 0 0 0 1 44.119998779259618 30.010674422186103 9.2215483693893496 1 rotate no_reflect no_shear #
shell $-1 $-1 $-1 $40 $-1 $10 #
shell $-1 $-1 $-1 $41 $-1 $12 #
shell $-1 $-1 $-1 $42 $-1 $14 #
shell $-1 $-1 $-1 $43 $-1 $16 #
shell $-1 $-1 $-1 $44 $-1 $18 #
shell $-1 $-1 $-1 $45 $-1 $20 #
shell $-1 $-1 $-1 $46 $-1 $22 #
shell $-1 $-1 $-1 $47 $-1 $24 #
shell $-1 $-1 $-1 $48 $-1 $26 #
shell $-1 $-1 $-1 $49 $-1 $28 #
face $-1 $50 $51 $30 $-1 $52 forward single #
face $-1 $53 $54 $31 $-1 $55 reversed single #
face $-1 $56 $57 $32 $-1 $58 reversed single #
face $-1 $59 $60 $33 $-1 $61 forward single #
face $-1 $62 $63 $34 $-1 $64 forward single #
face $-1 $65 $66 $35 $-1 $67 reversed single #
face $-1 $68 $69 $36 $-1 $70 forward single #
face $-1 $71 $72 $37 $-1 $73 forward single #
face $-1 $74 $75 $38 $-1 $76 reversed single #
face $-1 $77 $78 $39 $-1 $79 forward single #
face $-1 $80 $81 $30 $-1 $82 reversed single #
loop $-1 $-1 $83 $40 #
plane-surface $-1 0 0 9.2215483693893496 0 0 1 1 0 0 forward_v I I I I #
face $-1 $84 $85 $31 $-1 $86 reversed single #
loop $-1 $-1 $87 $41 #
plane-surface $-1 -42.23406591730128 -23.271382144555393 0 0 -1 0 0 0 -1 forward_v I I I I #
face $-1 $88 $89 $32 $-1 $90 reversed single #
loop $-1 $-1 $91 $42 #
plane-surface $-1 22.45040884340753 -4.0074103064838358 122.99233207646716 0 -1 0 -0.57357644374324357 0 -0.81915203911291934 forward_v I I I I #
face $-1 $92 $93 $33 $-1 $94 forward single #
loop $-1 $95 $96 $43 #
cone-surface $-1 37.280362081106325 -9.3182627504973432 4.1959992587545152 -0.57357644374324357 0 -0.81915203911291934 0.81915203911291934 0 -0.57357644374324357 1 I I 0 1 1 forward I I I I #
face $-1 $97 $98 $34 $-1 $99 forward single #
loop $-1 $100 $101 $44 #
cone-surface $-1 37.280362081106325 -6.131751284089237 4.1959992587545152 -0.57357644374324357 0 -0.81915203911291934 0.81915203911291934 0 -0.57357644374324357 1 I I 0 1 1 forward I I I I #
face $-1 $102 $103 $35 $-1 $104 reversed single #
loop $-1 $-1 $105 $45 #
plane-surface $-1 22.45040884340753 18.181896005733456 122.99233207646716 0 -1 0 -0.57357644374324357 0 -0.81915203911291934 forward_v I I I I #
face $-1 $106 $107 $36 $-1 $108 forward single #
loop $-1 $109 $110 $46 #
cone-surface $-1 37.280362081106325 12.871043561719954 4.1959992587545152 -0.57357644374324357 0 -0.81915203911291934 0.81915203911291934 0 -0.57357644374324357 1 I I 0 1 1 forward I I I I #
face $-1 $111 $112 $37 $-1 $113 forward single #
loop $-1 $114 $115 $47 #
cone-surface $-1 37.280362081106325 16.057555028128061 4.1959992587545152 -0.57357644374324357 0 -0.81915203911291934 0.81915203911291934 0 -0.57357644374324357 1 I I 0 1 1 forward I I I I #
face $-1 $116 $117 $38 $-1 $118 reversed single #
loop $-1 $-1 $119 $48 #
plane-surface $-1 -113.65406648197326 -9.5159442983778497 55.7741228114633 0 1 0 -0.78801076186113728 0 0.61566146476048833 forward_v I I I I #
face $-1 $120 $121 $39 $-1 $122 forward single #
loop $-1 $123 $124 $49 #
cone-surface $-1 -39.835144431689535 -3.3333419257651755 4.3596246146924749 0.78801076186113728 0 -0.61566146476048833 1.2313229295209767 0 1.5760215237222746 1 I I 0 1 2 forward I I I I #
face $-1 $125 $126 $30 $-1 $127 reversed single #
loop $-1 $-1 $128 $50 #
plane-surface $-1 0 0 -9.2215483693893496 0 0 1 1 0 0 forward_v I I I I #
coedge $-1 $129 $130 $131 $132 forward $51 $-1 #
face $-1 $133 $134 $31 $-1 $135 forward single #
loop $-1 $-1 $136 $53 #
plane-surface $-1 -40.348133055342942 -26.641028283370748 0 -1 0 0 0 0 1 forward_v I I I I #
coedge $-1 $137 $138 $139 $140 forward $54 $-1 #
face $-1 $141 $142 $32 $-1 $143 reversed single #
loop $-1 $-1 $144 $56 #
plane-surface $-1 -28.161975152120426 -7.7250070172932901 50.710358145087113 0.57357644374324357 0 0.81915203911291934 0.81915203911291934 0 -0.57357644374324357 forward_v I I I I #
coedge $-1 $145 $146 $147 $148 reversed $57 $-1 #
face $-1 $-1 $149 $33 $-1 $150 forward single #
loop $-1 $151 $152 $59 #
cone-surface $-1 36.668844204158532 -9.3182627504973432 3.3226612384783145 -0.57357644374324357 0 -0.81915203911291934 0.40957601955645967 0 -0.28678822187162178 1 I I -0.70710678118654746 0.70710678118654746 0.5 forward I I I I #
loop $-1 $-1 $153 $43 #
coedge $-1 $96 $96 $154 $155 reversed $60 $-1 #
face $-1 $-1 $156 $34 $-1 $157 forward single #
loop $-1 $158 $159 $62 #
cone-surface $-1 36.668844204158532 -6.131751284089237 3.3226612384783145 -0.57357644374324357 0 -0.81915203911291934 0.40957601955645967 0 -0.28678822187162178 1 I I -0.70710678118654746 0.70710678118654746 0.5 forward I I I I #
loop $-1 $-1 $160 $44 #
coedge $-1 $101 $101 $161 $162 reversed $63 $-1 #
face $-1 $163 $164 $35 $-1 $165 reversed single #
loop $-1 $-1 $166 $65 #
plane-surface $-1 -28.161975152120426 14.464299294924 50.710358145087113 0.57357644374324357 0 0.81915203911291934 0.81915203911291934 0 -0.57357644374324357 forward_v I I I I #
coedge $-1 $167 $168 $169 $170 reversed $66 $-1 #
face $-1 $-1 $171 $36 $-1 $172 forward single #
loop $-1 $173 $174 $68 #
cone-surface $-1 36.668844204158532 12.871043561719954 3.3226612384783145 -0.57357644374324357 0 -0.81915203911291934 0.40957601955645967 0 -0.28678822187162178 1 I I -0.70710678118654746 0.70710678118654746 0.5 forward I I I I #
loop $-1 $-1 $175 $46 #
coedge $-1 $110 $110 $176 $177 reversed $69 $-1 #
face $-1 $-1 $178 $37 $-1 $179 forward single #
loop $-1 $180 $181 $71 #
cone-surface $-1 36.668844204158532 16.057555028128061 3.3226612384783145 -0.57357644374324357 0 -0.81915203911291934 0.40957601955645967 0 -0.28678822187162178 1 I I -0.70710678118654746 0.70710678118654746 0.5 forward I I I I #
loop $-1 $-1 $182 $47 #
coedge $-1 $115 $115 $183 $184 reversed $72 $-1 #
face $-1 $185 $186 $38 $-1 $187 reversed single #
loop $-1 $-1 $188 $74 #
plane-surface $-1 -44.119998779259618 -3.3333419257651755 1.4481566641234309 -0.78801076186113728 0 0.61566146476048833 0.61566146476048833 0 0.78801076186113728 forward_v I I I I #
coedge $-1 $189 $190 $191 $192 reversed $75 $-1 #
face $-1 $-1 $193 $39 $-1 $194 forward single #
loop $-1 $195 $196 $77 #
cone-surface $-1 -37.79889884260465 -3.3333419257651755 2.7687352478680687 0.78801076186113728 0 -0.61566146476048833 0.61566146476048833 0 0.78801076186113728 1 I I -0.70710678118654746 0.70710678118654746 1 forward I I I I #
loop $-1 $-1 $197 $49 #
coedge $-1 $124 $124 $198 $199 reversed $78 $-1 #
face $-1 $200 $201 $30 $-1 $202 reversed single #
loop $-1 $-1 $203 $80 #
plane-surface $-1 0 -30.010674422186103 0 0 1 0 0 0 1 forward_v I I I I #
coedge $-1 $204 $205 $206 $207 forward $81 $-1 #
coedge $-1 $208 $83 $209 $210 forward $51 $-1 #
coedge $-1 $83 $208 $211 $212 forward $51 $-1 #
coedge $-1 $213 $214 $83 $132 reversed $215 $-1 #
edge $-1 $216 -30.010674422186103 $217 30.010674422186103 $131 $218 forward 7 unknown #
face $-1 $219 $220 $31 $-1 $221 reversed single #
loop $-1 $-1 $222 $84 #
plane-surface $-1 0 0 9.2215483693893496 0 0 1 1 0 0 forward_v I I I I #
coedge $-1 $223 $224 $225 $226 reversed $85 $-1 #
coedge $-1 $227 $87 $228 $229 reversed $54 $-1 #
coedge $-1 $87 $227 $230 $231 reversed $54 $-1 #
coedge $-1 $224 $223 $87 $140 reversed $85 $-1 #
edge $-1 $232 -9.2215483693893496 $233 9.2215483693893496 $139 $234 forward 7 unknown #
face $-1 $235 $236 $32 $-1 $237 reversed single #
loop $-1 $-1 $238 $88 #
plane-surface $-1 22.45040884340753 -11.442603728102744 122.99233207646716 0 1 0 0.57357644374324357 0 0.81915203911291934 forward_v I I I I #
coedge $-1 $239 $240 $241 $242 reversed $89 $-1 #
coedge $-1 $146 $91 $243 $244 reversed $57 $-1 #
coedge $-1 $91 $145 $239 $245 reversed $57 $-1 #
coedge $-1 $241 $246 $91 $148 forward $247 $-1 #
edge $-1 $248 -32.894794357555853 $249 -19.86498027140162 $147 $250 forward 7 unknown #
loop $-1 $-1 $154 $92 #
plane-surface $-1 -28.161975152120426 -7.7250070172932901 50.710358145087113 0.57357644374324357 0 0.81915203911291934 0.81915203911291934 0 -0.57357644374324357 forward_v I I I I #
loop $-1 $-1 $251 $59 #
coedge $-1 $152 $152 $153 $252 reversed $93 $-1 #
coedge $-1 $153 $153 $152 $252 forward $95 $-1 #
coedge $-1 $154 $154 $96 $155 forward $149 $-1 #
edge $-1 $253 0 $253 6.2831853071796004 $154 $254 forward 7 unknown #
loop $-1 $-1 $161 $97 #
plane-surface $-1 -28.161975152120426 -7.7250070172932901 50.710358145087113 0.57357644374324357 0 0.81915203911291934 0.81915203911291934 0 -0.57357644374324357 forward_v I I I I #
loop $-1 $-1 $255 $62 #
coedge $-1 $159 $159 $160 $256 reversed $98 $-1 #
coedge $-1 $160 $160 $159 $256 forward $100 $-1 #
coedge $-1 $161 $161 $101 $162 forward $156 $-1 #
edge $-1 $257 0 $257 6.2831853071796004 $161 $258 forward 7 unknown #
face $-1 $259 $260 $35 $-1 $261 reversed single #
loop $-1 $-1 $262 $102 #
plane-surface $-1 22.45040884340753 10.746702584114546 122.99233207646716 0 1 0 0.57357644374324357 0 0.81915203911291934 forward_v I I I I #
coedge $-1 $263 $264 $265 $266 reversed $103 $-1 #
coedge $-1 $168 $105 $267 $268 reversed $66 $-1 #
coedge $-1 $105 $167 $263 $269 reversed $66 $-1 #
coedge $-1 $265 $270 $105 $170 forward $271 $-1 #
edge $-1 $272 -32.894794357555853 $273 -19.86498027140162 $169 $274 forward 7 unknown #
loop $-1 $-1 $176 $106 #
plane-surface $-1 -28.161975152120426 14.464299294924 50.710358145087113 0.57357644374324357 0 0.81915203911291934 0.81915203911291934 0 -0.57357644374324357 forward_v I I I I #
loop $-1 $-1 $275 $68 #
coedge $-1 $174 $174 $175 $276 reversed $107 $-1 #
coedge $-1 $175 $175 $174 $276 forward $109 $-1 #
coedge $-1 $176 $176 $110 $177 forward $171 $-1 #
edge $-1 $277 0 $277 6.2831853071796004 $176 $278 forward 7 unknown #
loop $-1 $-1 $183 $111 #
plane-surface $-1 -28.161975152120426 14.464299294924 50.710358145087113 0.57357644374324357 0 0.81915203911291934 0.81915203911291934 0 -0.57357644374324357 forward_v I I I I #
loop $-1 $-1 $279 $71 #
coedge $-1 $181 $181 $182 $280 reversed $112 $-1 #
coedge $-1 $182 $182 $181 $280 forward $114 $-1 #
coedge $-1 $183 $183 $115 $184 forward $178 $-1 #
edge $-1 $281 0 $281 6.2831853071796004 $183 $282 forward 7 unknown #
face $-1 $283 $284 $38 $-1 $285 reversed single #
loop $-1 $-1 $286 $116 #
plane-surface $-1 -113.65406648197326 2.8492604468474987 55.7741228114633 0 -1 0 0.78801076186113728 0 -0.61566146476048833 forward_v I I I I #
coedge $-1 $287 $288 $289 $290 reversed $117 $-1 #
coedge $-1 $190 $119 $291 $292 reversed $75 $-1 #
coedge $-1 $119 $189 $287 $293 reversed $75 $-1 #
coedge $-1 $289 $294 $119 $192 forward $295 $-1 #
edge $-1 $296 12.707034461727012 $297 18.780273502419696 $191 $298 forward 7 unknown #
loop $-1 $-1 $198 $120 #
plane-surface $-1 -44.119998779259618 -3.3333419257651755 1.4481566641234309 -0.78801076186113728 0 0.61566146476048833 0.61566146476048833 0 0.78801076186113728 forward_v I I I I #
loop $-1 $-1 $299 $77 #
coedge $-1 $196 $196 $197 $300 reversed $121 $-1 #
coedge $-1 $197 $197 $196 $300 forward $123 $-1 #
coedge $-1 $198 $198 $124 $199 forward $193 $-1 #
edge $-1 $301 0 $301 6.2831853071796004 $198 $302 forward 7 unknown #
face $-1 $303 $304 $30 $-1 $305 reversed single #
loop $-1 $-1 $306 $125 #
plane-surface $-1 -44.119998779259618 0 0 1 0 0 0 0 -1 forward_v I I I I #
coedge $-1 $307 $211 $308 $309 forward $126 $-1 #
coedge $-1 $310 $128 $307 $311 forward $81 $-1 #
coedge $-1 $128 $310 $312 $313 forward $81 $-1 #
coedge $-1 $214 $213 $128 $207 reversed $215 $-1 #
edge $-1 $314 -30.010674422186103 $315 30.010674422186103 $206 $316 forward 7 unknown #
coedge $-1 $130 $129 $317 $318 forward $51 $-1 #
coedge $-1 $319 $320 $129 $210 reversed $304 $-1 #
edge $-1 $217 -44.119998779259618 $321 44.119998779259618 $209 $322 forward 7 unknown #
coedge $-1 $203 $323 $130 $212 reversed $126 $-1 #
edge $-1 $324 -44.119998779259618 $216 44.119998779259618 $211 $325 forward 7 unknown #
coedge $-1 $206 $131 $323 $326 forward $215 $-1 #
coedge $-1 $131 $206 $319 $327 reversed $215 $-1 #
loop $-1 $-1 $213 $303 #
vertex $-1 $132 $328 #
vertex $-1 $132 $329 #
straight-curve $-1 44.119998779259618 0 9.2215483693893496 0 1 0 I I #
face $-1 $330 $331 $31 $-1 $332 reversed single #
loop $-1 $-1 $333 $133 #
plane-surface $-1 -44.119998779259618 0 0 1 0 0 0 0 -1 forward_v I I I I #
coedge $-1 $230 $334 $224 $335 forward $134 $-1 #
coedge $-1 $139 $136 $336 $337 reversed $85 $-1 #
coedge $-1 $136 $139 $222 $335 reversed $85 $-1 #
coedge $-1 $338 $339 $136 $226 forward $340 $-1 #
edge $-1 $341 -9.2215483693893496 $342 9.2215483693893496 $225 $343 forward 7 unknown #
coedge $-1 $138 $137 $333 $344 reversed $54 $-1 #
coedge $-1 $336 $345 $137 $229 forward $331 $-1 #
edge $-1 $346 -23.002965820608978 $233 -19.231100096692302 $228 $347 forward 7 unknown #
coedge $-1 $348 $222 $138 $231 forward $134 $-1 #
edge $-1 $232 19.231100096692302 $349 23.002965820608978 $230 $350 forward 7 unknown #
vertex $-1 $231 $351 #
vertex $-1 $229 $352 #
straight-curve $-1 -40.348133055342942 -23.271382144555393 0 0 0 -1 I I #
face $-1 $-1 $247 $32 $-1 $353 forward single #
loop $-1 $-1 $354 $141 #
plane-surface $-1 44.119998779259618 0 0 -1 0 0 0 0 1 forward_v I I I I #
coedge $-1 $355 $356 $357 $358 reversed $142 $-1 #
coedge $-1 $359 $144 $146 $245 forward $89 $-1 #
coedge $-1 $144 $359 $355 $360 forward $89 $-1 #
coedge $-1 $357 $147 $144 $242 forward $247 $-1 #
edge $-1 $249 0.14490679783719074 $361 7.5801002194560994 $241 $362 forward 7 unknown #
coedge $-1 $363 $364 $145 $244 forward $236 $-1 #
edge $-1 $365 -61.398191888674411 $248 -52.274617668844229 $243 $366 forward 7 unknown #
edge $-1 $249 72.333531525346004 $365 88.239997558519207 $146 $367 forward 7 unknown #
coedge $-1 $147 $357 $363 $368 forward $247 $-1 #
loop $-1 $-1 $357 $235 #
vertex $-1 $244 $369 #
vertex $-1 $148 $370 #
straight-curve $-1 11.225204421703765 -4.0074103064838358 9.2215483693893532 -1 0 0 I I #
coedge $-1 $251 $251 $-1 $371 reversed $151 $-1 #
edge $-1 $372 0 $372 6.2831853071796004 $152 $373 forward 7 unknown #
vertex $-1 $155 $374 #
ellipse-curve $-1 37.605091736182501 -9.3182627504973432 4.6597612594742666 0.57357644374324357 0 0.81915203911291934 0.81915203911291934 0 -0.57357644374324357 1 I I #
coedge $-1 $255 $255 $-1 $375 reversed $158 $-1 #
edge $-1 $376 0 $376 6.2831853071796004 $159 $377 forward 7 unknown #
vertex $-1 $162 $378 #
ellipse-curve $-1 37.605091736182501 -6.131751284089237 4.6597612594742666 0.57357644374324357 0 0.81915203911291934 0.81915203911291934 0 -0.57357644374324357 1 I I #
face $-1 $-1 $271 $35 $-1 $379 forward single #
loop $-1 $-1 $380 $163 #
plane-surface $-1 44.119998779259618 0 0 -1 0 0 0 0 1 forward_v I I I I #
coedge $-1 $381 $382 $383 $384 reversed $164 $-1 #
coedge $-1 $385 $166 $168 $269 forward $103 $-1 #
coedge $-1 $166 $385 $381 $386 forward $103 $-1 #
coedge $-1 $383 $169 $166 $266 forward $271 $-1 #
edge $-1 $273 -10.949746358271456 $387 -3.5145529366525459 $265 $388 forward 7 unknown #
coedge $-1 $389 $390 $167 $268 forward $260 $-1 #
edge $-1 $391 -61.398191888674411 $272 -52.274617668844229 $267 $392 forward 7 unknown #
edge $-1 $273 72.333531525346004 $391 88.239997558519207 $168 $393 forward 7 unknown #
coedge $-1 $169 $383 $389 $394 forward $271 $-1 #
loop $-1 $-1 $383 $259 #
vertex $-1 $268 $395 #
vertex $-1 $170 $396 #
straight-curve $-1 11.225204421703765 18.181896005733456 9.2215483693893532 -1 0 0 I I #
coedge $-1 $275 $275 $-1 $397 reversed $173 $-1 #
edge $-1 $398 0 $398 6.2831853071796004 $174 $399 forward 7 unknown #
vertex $-1 $177 $400 #
ellipse-curve $-1 37.605091736182501 12.871043561719954 4.6597612594742666 0.57357644374324357 0 0.81915203911291934 0.81915203911291934 0 -0.57357644374324357 1 I I #
coedge $-1 $279 $279 $-1 $401 reversed $180 $-1 #
edge $-1 $402 0 $402 6.2831853071796004 $181 $403 forward 7 unknown #
vertex $-1 $184 $404 #
ellipse-curve $-1 37.605091736182501 16.057555028128061 4.6597612594742666 0.57357644374324357 0 0.81915203911291934 0.81915203911291934 0 -0.57357644374324357 1 I I #
face $-1 $-1 $295 $38 $-1 $405 forward single #
loop $-1 $-1 $406 $185 #
plane-surface $-1 -44.119998779259618 0 0 1 0 0 0 0 -1 forward_v I I I I #
coedge $-1 $407 $408 $409 $410 reversed $186 $-1 #
coedge $-1 $411 $188 $190 $293 forward $117 $-1 #
coedge $-1 $188 $411 $407 $412 forward $117 $-1 #
coedge $-1 $409 $191 $188 $290 forward $295 $-1 #
edge $-1 $297 -7.849273335495262 $413 4.5159314097300864 $289 $414 forward 7 unknown #
coedge $-1 $415 $416 $189 $292 forward $284 $-1 #
edge $-1 $417 -26.438904741608219 $296 -18.665513036342301 $291 $418 forward 7 unknown #
edge $-1 $297 -9.8645755635450811 $417 0 $190 $419 forward 7 unknown #
coedge $-1 $191 $409 $415 $420 forward $295 $-1 #
loop $-1 $-1 $409 $283 #
vertex $-1 $292 $421 #
vertex $-1 $192 $422 #
straight-curve $-1 -56.82703324098663 -9.5159442983778497 9.2215483693893496 1 0 0 I I #
coedge $-1 $299 $299 $-1 $423 reversed $195 $-1 #
edge $-1 $424 0 $424 6.2831853071796004 $196 $425 forward 7 unknown #
vertex $-1 $199 $426 #
ellipse-curve $-1 -41.083379258913276 -3.3333419257651755 5.3348525167563885 -0.78801076186113728 0 0.61566146476048833 1.2313229295209767 0 1.5760215237222746 1 I I #
face $-1 $-1 $215 $30 $-1 $427 reversed single #
loop $-1 $-1 $319 $200 #
plane-surface $-1 0 30.010674422186103 0 0 -1 0 0 0 -1 forward_v I I I I #
coedge $-1 $428 $317 $320 $429 forward $201 $-1 #
coedge $-1 $323 $203 $204 $311 reversed $126 $-1 #
coedge $-1 $317 $428 $203 $309 reversed $201 $-1 #
edge $-1 $324 -9.2215483693893496 $430 9.2215483693893496 $308 $431 forward 7 unknown #
coedge $-1 $205 $204 $428 $432 forward $81 $-1 #
edge $-1 $315 -44.119998779259618 $430 44.119998779259618 $307 $433 forward 7 unknown #
coedge $-1 $320 $319 $205 $313 reversed $304 $-1 #
edge $-1 $434 -44.119998779259618 $314 44.119998779259618 $312 $435 forward 7 unknown #
vertex $-1 $207 $436 #
vertex $-1 $326 $437 #
straight-curve $-1 44.119998779259618 0 -9.2215483693893496 0 -1 0 I I #
coedge $-1 $306 $308 $208 $318 reversed $201 $-1 #
edge $-1 $321 -30.010674422186103 $324 30.010674422186103 $317 $438 forward 7 unknown #
coedge $-1 $312 $209 $214 $327 forward $304 $-1 #
coedge $-1 $209 $312 $306 $429 reversed $304 $-1 #
vertex $-1 $210 $439 #
straight-curve $-1 0 30.010674422186103 9.2215483693893496 -1 0 0 I I #
coedge $-1 $211 $307 $213 $326 reversed $126 $-1 #
vertex $-1 $318 $440 #
straight-curve $-1 0 -30.010674422186103 9.2215483693893496 1 0 0 I I #
edge $-1 $216 -9.2215483693893496 $315 9.2215483693893496 $213 $441 forward 7 unknown #
edge $-1 $217 -9.2215483693893496 $314 9.2215483693893496 $214 $442 forward 7 unknown #
point $-1 44.119998779259618 -30.010674422186103 9.2215483693893496 #
point $-1 44.119998779259618 30.010674422186103 9.2215483693893496 #
face $-1 $-1 $340 $31 $-1 $443 reversed single #
loop $-1 $-1 $336 $219 #
plane-surface $-1 0 0 -9.2215483693893496 0 0 1 1 0 0 forward_v I I I I #
coedge $-1 $444 $445 $227 $344 forward $220 $-1 #
coedge $-1 $222 $348 $338 $446 forward $134 $-1 #
edge $-1 $342 -16.690160280500727 $232 -9.9508680028700187 $222 $447 forward 7 unknown #
coedge $-1 $448 $228 $223 $337 forward $331 $-1 #
edge $-1 $233 9.9508680028700187 $341 16.690160280500727 $336 $449 forward 7 unknown #
coedge $-1 $450 $225 $334 $446 reversed $340 $-1 #
coedge $-1 $225 $450 $448 $451 reversed $340 $-1 #
loop $-1 $-1 $225 $330 #
vertex $-1 $451 $452 #
vertex $-1 $226 $453 #
straight-curve $-1 -40.348133055342942 -30.010674422186103 0 0 0 1 I I #
edge $-1 $349 -9.2215483693893496 $346 9.2215483693893496 $333 $454 forward 7 unknown #
coedge $-1 $228 $448 $444 $455 forward $331 $-1 #
vertex $-1 $229 $456 #
straight-curve $-1 -21.11703295865064 -23.271382144555393 -9.2215483693893496 1 0 0 I I #
coedge $-1 $334 $230 $445 $457 forward $134 $-1 #
vertex $-1 $457 $458 #
straight-curve $-1 -21.11703295865064 -23.271382144555393 9.2215483693893496 -1 0 0 I I #
point $-1 -40.348133055342942 -23.271382144555393 9.2215483693893496 #
point $-1 -40.348133055342942 -23.271382144555393 -9.2215483693893496 #
plane-surface $-1 0 0 9.2215483693893496 0 0 1 1 0 0 forward_v I I I I #
coedge $-1 $364 $363 $356 $459 forward $236 $-1 #
coedge $-1 $356 $238 $240 $360 reversed $142 $-1 #
coedge $-1 $238 $355 $354 $459 reversed $142 $-1 #
coedge $-1 $246 $241 $238 $358 forward $247 $-1 #
edge $-1 $361 19.86498027140162 $460 32.894794357555853 $357 $461 forward 7 unknown #
coedge $-1 $240 $239 $364 $462 reversed $89 $-1 #
edge $-1 $463 -88.239997558519207 $361 -72.333531525346004 $355 $464 forward 7 unknown #
vertex $-1 $242 $465 #
straight-curve $-1 31.090184693105392 -3.862503508646645 9.2215483693893567 0 -1 0 I I #
coedge $-1 $354 $243 $246 $368 reversed $236 $-1 #
coedge $-1 $243 $354 $359 $462 forward $236 $-1 #
vertex $-1 $244 $466 #
straight-curve $-1 44.119998779259618 -4.0074103064838358 61.496166038233582 0 0 1 I I #
straight-curve $-1 -28.161975152120426 -4.0074103064838358 50.710358145087113 0.81915203911291934 0 -0.57357644374324357 I I #
edge $-1 $460 -11.442603728102744 $248 -4.0074103064838358 $363 $467 forward 7 unknown #
point $-1 44.119998779259618 -4.0074103064838358 9.2215483693893496 #
point $-1 31.090184693105385 -4.0074103064838358 9.2215483693893532 #
edge $-1 $468 1 $468 0 $251 $-1 forward 7 unknown #
vertex $-1 $252 $469 #
ellipse-curve $-1 36.955632426030157 -9.3182627504973432 3.732237258034774 0.57357644374324357 0 0.81915203911291934 0.81915203911291934 0 -0.57357644374324357 1 I I #
point $-1 38.424243775295416 -9.3182627504973432 4.0861848157310128 #
edge $-1 $470 1 $470 0 $255 $-1 forward 7 unknown #
vertex $-1 $256 $471 #
ellipse-curve $-1 36.955632426030157 -6.131751284089237 3.732237258034774 0.57357644374324357 0 0.81915203911291934 0.81915203911291934 0 -0.57357644374324357 1 I I #
point $-1 38.424243775295416 -6.131751284089237 4.0861848157310128 #
plane-surface $-1 0 0 9.2215483693893496 0 0 1 1 0 0 forward_v I I I I #
coedge $-1 $390 $389 $382 $472 forward $260 $-1 #
coedge $-1 $382 $262 $264 $386 reversed $164 $-1 #
coedge $-1 $262 $381 $380 $472 reversed $164 $-1 #
coedge $-1 $270 $265 $262 $384 forward $271 $-1 #
edge $-1 $387 19.86498027140162 $473 32.894794357555853 $383 $474 forward 7 unknown #
coedge $-1 $264 $263 $390 $475 reversed $103 $-1 #
edge $-1 $476 -88.239997558519207 $387 -72.333531525346004 $381 $477 forward 7 unknown #
vertex $-1 $266 $478 #
straight-curve $-1 31.090184693105392 7.2321496474620002 9.2215483693893567 0 -1 0 I I #
coedge $-1 $380 $267 $270 $394 reversed $260 $-1 #
coedge $-1 $267 $380 $385 $475 forward $260 $-1 #
vertex $-1 $268 $479 #
straight-curve $-1 44.119998779259618 18.181896005733456 61.496166038233582 0 0 1 I I #
straight-curve $-1 -28.161975152120426 18.181896005733456 50.710358145087113 0.81915203911291934 0 -0.57357644374324357 I I #
edge $-1 $473 10.746702584114546 $272 18.181896005733456 $389 $480 forward 7 unknown #
point $-1 44.119998779259618 18.181896005733456 9.2215483693893496 #
point $-1 31.090184693105385 18.181896005733456 9.2215483693893532 #
edge $-1 $481 1 $481 0 $275 $-1 forward 7 unknown #
vertex $-1 $276 $482 #
ellipse-curve $-1 36.955632426030157 12.871043561719954 3.732237258034774 0.57357644374324357 0 0.81915203911291934 0.81915203911291934 0 -0.57357644374324357 1 I I #
point $-1 38.424243775295416 12.871043561719954 4.0861848157310128 #
edge $-1 $483 1 $483 0 $279 $-1 forward 7 unknown #
vertex $-1 $280 $484 #
ellipse-curve $-1 36.955632426030157 16.057555028128061 3.732237258034774 0.57357644374324357 0 0.81915203911291934 0.81915203911291934 0 -0.57357644374324357 1 I I #
point $-1 38.424243775295416 16.057555028128061 4.0861848157310128 #
plane-surface $-1 0 0 9.2215483693893496 0 0 1 1 0 0 forward_v I I I I #
coedge $-1 $416 $415 $408 $485 forward $284 $-1 #
coedge $-1 $408 $286 $288 $412 reversed $186 $-1 #
coedge $-1 $286 $407 $406 $485 reversed $186 $-1 #
coedge $-1 $294 $289 $286 $410 forward $295 $-1 #
edge $-1 $413 -18.780273502419696 $486 -12.707034461727012 $409 $487 forward 7 unknown #
coedge $-1 $288 $287 $416 $488 reversed $117 $-1 #
edge $-1 $489 0 $413 9.8645755635450811 $407 $490 forward 7 unknown #
vertex $-1 $290 $491 #
straight-curve $-1 -38.046759738566934 -1.6666709628825878 9.2215483693893496 0 1 0 I I #
coedge $-1 $406 $291 $294 $420 reversed $284 $-1 #
coedge $-1 $291 $406 $411 $488 forward $284 $-1 #
vertex $-1 $292 $492 #
straight-curve $-1 -44.119998779259618 -9.5159442983778497 27.88706140573165 0 0 1 I I #
straight-curve $-1 -44.119998779259618 -9.5159442983778497 1.4481566641234309 -0.61566146476048833 0 -0.78801076186113728 I I #
edge $-1 $486 -2.8492604468474987 $296 9.5159442983778497 $415 $493 forward 7 unknown #
point $-1 -44.119998779259618 -9.5159442983778497 9.2215483693893496 #
point $-1 -38.046759738566934 -9.5159442983778497 9.2215483693893496 #
edge $-1 $494 1 $494 0 $299 $-1 forward 7 unknown #
vertex $-1 $300 $495 #
ellipse-curve $-1 -38.586909604465788 -3.3333419257651755 3.3843967126285568 -0.78801076186113728 0 0.61566146476048833 1.2313229295209767 0 1.5760215237222746 1 I I #
point $-1 -39.852056329392305 -3.3333419257651755 6.9108740404786673 #
plane-surface $-1 44.119998779259618 0 0 -1 0 0 0 0 1 forward_v I I I I #
coedge $-1 $308 $306 $310 $432 reversed $201 $-1 #
edge $-1 $321 -9.2215483693893496 $434 9.2215483693893496 $320 $496 forward 7 unknown #
vertex $-1 $432 $497 #
straight-curve $-1 -44.119998779259618 -30.010674422186103 0 0 0 -1 I I #
edge $-1 $430 -30.010674422186103 $434 30.010674422186103 $428 $498 forward 7 unknown #
straight-curve $-1 0 -30.010674422186103 -9.2215483693893496 -1 0 0 I I #
vertex $-1 $313 $499 #
straight-curve $-1 0 30.010674422186103 -9.2215483693893496 1 0 0 I I #
point $-1 44.119998779259618 30.010674422186103 -9.2215483693893496 #
point $-1 44.119998779259618 -30.010674422186103 -9.2215483693893496 #
straight-curve $-1 -44.119998779259618 0 9.2215483693893496 0 -1 0 I I #
point $-1 -44.119998779259618 30.010674422186103 9.2215483693893496 #
point $-1 -44.119998779259618 -30.010674422186103 9.2215483693893496 #
straight-curve $-1 44.119998779259618 -30.010674422186103 0 0 0 -1 I I #
straight-curve $-1 44.119998779259618 30.010674422186103 0 0 0 -1 I I #
plane-surface $-1 0 -30.010674422186103 0 0 1 0 0 0 1 forward_v I I I I #
coedge $-1 $500 $333 $345 $455 reversed $220 $-1 #
coedge $-1 $333 $500 $348 $457 reversed $220 $-1 #
edge $-1 $501 -44.119998779259618 $342 -40.348133055342942 $338 $502 forward 7 unknown #
straight-curve $-1 -40.348133055342942 -13.320514141685374 9.2215483693893496 0 1 0 I I #
coedge $-1 $345 $336 $339 $451 forward $331 $-1 #
straight-curve $-1 -40.348133055342942 -13.320514141685374 -9.2215483693893496 0 -1 0 I I #
coedge $-1 $339 $338 $500 $503 forward $340 $-1 #
edge $-1 $341 40.348133055342942 $504 44.119998779259618 $339 $505 forward 7 unknown #
point $-1 -40.348133055342942 -30.010674422186103 -9.2215483693893496 #
point $-1 -40.348133055342942 -30.010674422186103 9.2215483693893496 #
straight-curve $-1 -44.119998779259618 -23.271382144555393 0 0 0 -1 I I #
edge $-1 $504 -30.010674422186103 $346 -23.271382144555393 $444 $506 forward 7 unknown #
point $-1 -44.119998779259618 -23.271382144555393 -9.2215483693893496 #
edge $-1 $349 23.271382144555393 $501 30.010674422186103 $445 $507 forward 7 unknown #
point $-1 -44.119998779259618 -23.271382144555393 9.2215483693893496 #
edge $-1 $460 52.274617668844229 $463 61.398191888674411 $354 $508 forward 7 unknown #
vertex $-1 $368 $509 #
straight-curve $-1 11.225204421703765 -11.442603728102744 9.2215483693893532 1 0 0 I I #
edge $-1 $463 -7.5801002194560994 $365 -0.14490679783719074 $364 $510 forward 7 unknown #
vertex $-1 $462 $511 #
straight-curve $-1 -28.161975152120426 -11.442603728102744 50.710358145087113 -0.81915203911291934 0 0.57357644374324357 I I #
point $-1 31.090184693105385 -11.442603728102744 9.2215483693893532 #
point $-1 44.11999877925961 -4.0074103064838358 0.097974149559171053 #
straight-curve $-1 44.119998779259618 0 9.2215483693893496 0 1 0 I I #
vertex $-1 $371 $512 #
point $-1 37.774784465143071 -9.3182627504973432 3.1586608142915304 #
vertex $-1 $375 $513 #
point $-1 37.774784465143071 -6.131751284089237 3.1586608142915304 #
edge $-1 $473 52.274617668844229 $476 61.398191888674411 $380 $514 forward 7 unknown #
vertex $-1 $394 $515 #
straight-curve $-1 11.225204421703765 10.746702584114546 9.2215483693893532 1 0 0 I I #
edge $-1 $476 3.5145529366525459 $391 10.949746358271456 $390 $516 forward 7 unknown #
vertex $-1 $475 $517 #
straight-curve $-1 -28.161975152120426 10.746702584114546 50.710358145087113 -0.81915203911291934 0 0.57357644374324357 I I #
point $-1 31.090184693105385 10.746702584114546 9.2215483693893532 #
point $-1 44.11999877925961 18.181896005733456 0.097974149559171053 #
straight-curve $-1 44.119998779259618 0 9.2215483693893496 0 1 0 I I #
vertex $-1 $397 $518 #
point $-1 37.774784465143071 12.871043561719954 3.1586608142915304 #
vertex $-1 $401 $519 #
point $-1 37.774784465143071 16.057555028128061 3.1586608142915304 #
edge $-1 $486 18.665513036342301 $489 26.438904741608219 $406 $520 forward 7 unknown #
vertex $-1 $420 $521 #
straight-curve $-1 -56.82703324098663 2.8492604468474987 9.2215483693893496 -1 0 0 I I #
edge $-1 $489 -4.5159314097300864 $417 7.849273335495262 $416 $522 forward 7 unknown #
vertex $-1 $488 $523 #
straight-curve $-1 -44.119998779259618 2.8492604468474987 1.4481566641234309 0.61566146476048833 0 0.78801076186113728 I I #
point $-1 -38.046759738566934 2.8492604468474987 9.2215483693893496 #
point $-1 -44.119998779259618 -9.5159442983778497 1.4481566641234309 #
straight-curve $-1 -44.119998779259618 0 9.2215483693893496 0 -1 0 I I #
vertex $-1 $423 $524 #
point $-1 -37.35558667494481 -3.3333419257651755 4.9604182363508311 #
straight-curve $-1 -44.119998779259618 30.010674422186103 0 0 0 -1 I I #
point $-1 -44.119998779259618 -30.010674422186103 -9.2215483693893496 #
straight-curve $-1 -44.119998779259618 0 -9.2215483693893496 0 1 0 I I #
point $-1 -44.119998779259618 30.010674422186103 -9.2215483693893496 #
coedge $-1 $445 $444 $450 $503 reversed $220 $-1 #
vertex $-1 $457 $525 #
straight-curve $-1 0 -30.010674422186103 9.2215483693893496 1 0 0 I I #
edge $-1 $501 -9.2215483693893496 $504 9.2215483693893496 $500 $526 forward 7 unknown #
vertex $-1 $455 $527 #
straight-curve $-1 0 -30.010674422186103 -9.2215483693893496 -1 0 0 I I #
straight-curve $-1 -44.119998779259618 0 -9.2215483693893496 0 1 0 I I #
straight-curve $-1 -44.119998779259618 0 9.2215483693893496 0 -1 0 I I #
straight-curve $-1 44.119998779259618 -11.442603728102744 61.496166038233582 0 0 -1 I I #
point $-1 44.119998779259618 -11.442603728102744 9.2215483693893496 #
straight-curve $-1 44.119998779259625 -3.862503508646645 0.097974149559163948 0 1 0 I I #
point $-1 44.11999877925961 -11.442603728102744 0.097974149559171053 #
point $-1 36.382055982286907 -9.3182627504973432 2.913085218921855 #
point $-1 36.382055982286907 -6.131751284089237 2.913085218921855 #
straight-curve $-1 44.119998779259618 10.746702584114546 61.496166038233582 0 0 -1 I I #
point $-1 44.119998779259618 10.746702584114546 9.2215483693893496 #
straight-curve $-1 44.119998779259625 7.2321496474620002 0.097974149559163948 0 1 0 I I #
point $-1 44.11999877925961 10.746702584114546 0.097974149559171053 #
point $-1 36.382055982286907 12.871043561719954 2.913085218921855 #
point $-1 36.382055982286907 16.057555028128061 2.913085218921855 #
straight-curve $-1 -44.119998779259618 2.8492604468474987 27.88706140573165 0 0 -1 I I #
point $-1 -44.119998779259618 2.8492604468474987 9.2215483693893496 #
straight-curve $-1 -44.119998779259618 -1.6666709628825878 1.4481566641234309 0 -1 0 I I #
point $-1 -44.119998779259618 2.8492604468474987 1.4481566641234309 #
point $-1 -37.010888080743513 -3.3333419257651755 2.1530737831075806 #
point $-1 -44.119998779259618 -30.010674422186103 9.2215483693893496 #
straight-curve $-1 -44.119998779259618 -30.010674422186103 0 0 0 -1 I I #
point $-1 -44.119998779259618 -30.010674422186103 -9.2215483693893496 #
End-of-ACIS-data 