500 0 8 0           
7 Unknown 11 ACIS 5.0 NT 24 Fri Mar 26 02:05:01 1999 
-1 9.9999999999999995e-007 1e-010 
body $-1 $8 $-1 $9 #
body $-1 $10 $-1 $11 #
body $-1 $12 $-1 $13 #
body $-1 $14 $-1 $15 #
body $-1 $16 $-1 $17 #
body $-1 $18 $-1 $19 #
body $-1 $20 $-1 $21 #
body $-1 $22 $-1 $23 #
lump $-1 $-1 $24 $0 #
transform $-1 1 0 0 0 1 0 0 0 1 51.902218695638908 29.578578174226585 6.084158357319474 1 rotate no_reflect no_shear #
lump $-1 $-1 $25 $1 #
transform $-1 1 0 0 0 1 0 0 0 1 51.902218695638908 29.578578174226585 6.084158357319474 1 rotate no_reflect no_shear #
lump $-1 $-1 $26 $2 #
transform $-1 1 0 0 0 1 0 0 0 1 51.902218695638908 29.578578174226585 6.084158357319474 1 rotate no_reflect no_shear #
lump $-1 $-1 $27 $3 #
transform $-1 1 0 0 0 1 0 0 0 1 51.902218695638908 29.578578174226585 6.084158357319474 1 rotate no_reflect no_shear #
lump $-1 $-1 $28 $4 #
transform $-1 1 0 0 0 1 0 0 0 1 51.902218695638908 29.578578174226585 6.084158357319474 1 rotate no_reflect no_shear #
lump $-1 $-1 $29 $5 #
transform $-1 1 0 0 0 1 0 0 0 1 51.902218695638908 29.578578174226585 6.084158357319474 1 rotate no_reflect no_shear #
lump $-1 $-1 $30 $6 #
transform $-1 1 0 0 0 1 0 0 0 1 51.902218695638908 29.578578174226585 6.084158357319474 1 rotate no_reflect no_shear #
lump $-1 $-1 $31 $7 #
transform $-1 1 0 0 0 1 0 0 0 1 51.902218695638908 29.578578174226585 6.084158357319474 1 rotate no_reflect no_shear #
shell $-1 $-1 $-1 $32 $-1 $8 #
shell $-1 $-1 $-1 $33 $-1 $10 #
shell $-1 $-1 $-1 $34 $-1 $12 #
shell $-1 $-1 $-1 $35 $-1 $14 #
shell $-1 $-1 $-1 $36 $-1 $16 #
shell $-1 $-1 $-1 $37 $-1 $18 #
shell $-1 $-1 $-1 $38 $-1 $20 #
shell $-1 $-1 $-1 $39 $-1 $22 #
face $-1 $40 $41 $24 $-1 $42 forward single #
face $-1 $43 $44 $25 $-1 $45 reversed single #
face $-1 $46 $47 $26 $-1 $48 reversed single #
face $-1 $49 $50 $27 $-1 $51 forward single #
face $-1 $52 $53 $28 $-1 $54 forward single #
face $-1 $55 $56 $29 $-1 $57 reversed single #
face $-1 $58 $59 $30 $-1 $60 forward single #
face $-1 $61 $62 $31 $-1 $63 forward single #
face $-1 $64 $65 $24 $-1 $66 reversed single #
loop $-1 $-1 $67 $32 #
plane-surface $-1 0 0 6.084158357319474 0 0 1 1 0 0 forward_v I I I I #
face $-1 $68 $69 $25 $-1 $70 reversed single #
loop $-1 $-1 $71 $33 #
plane-surface $-1 -47.949296429253828 0 3.084158357319474 0 0 1 1 0 0 forward_v I I I I #
face $-1 $72 $73 $26 $-1 $74 reversed single #
loop $-1 $-1 $75 $34 #
plane-surface $-1 51.902220398912547 -9.8899365300212665 148.89495908627995 0 -1 0 -0.70710678939079041 0 -0.70710677298230451 forward_v I I I I #
face $-1 $76 $77 $27 $-1 $78 forward single #
loop $-1 $79 $80 $35 #
cone-surface $-1 49.55232697167753 -15.959228633835156 3.7342665952796588 -0.70710678939079041 0 -0.70710677298230451 0.35355338649115226 0 -0.35355339469539521 1 I I 0 1 0.5 forward I I I I #
face $-1 $81 $82 $28 $-1 $83 forward single #
loop $-1 $84 $85 $36 #
cone-surface $-1 49.55232697167753 -12.317653371546822 3.7342665952796588 -0.70710678939079041 0 -0.70710677298230451 0.35355338649115226 0 -0.35355339469539521 1 I I 0 1 0.5 forward I I I I #
face $-1 $86 $87 $29 $-1 $88 reversed single #
loop $-1 $-1 $89 $37 #
plane-surface $-1 51.902220398912547 19.688641644205319 148.89495908627995 0 -1 0 -0.70710678939079041 0 -0.70710677298230451 forward_v I I I I #
face $-1 $90 $91 $30 $-1 $92 forward single #
loop $-1 $93 $94 $38 #
cone-surface $-1 49.55232697167753 13.619349540391433 3.7342665952796588 -0.70710678939079041 0 -0.70710677298230451 0.35355338649115226 0 -0.35355339469539521 1 I I 0 1 0.5 forward I I I I #
face $-1 $95 $96 $31 $-1 $97 forward single #
loop $-1 $98 $99 $39 #
cone-surface $-1 49.55232697167753 17.26092480267976 3.7342665952796588 -0.70710678939079041 0 -0.70710677298230451 0.35355338649115226 0 -0.35355339469539521 1 I I 0 1 0.5 forward I I I I #
face $-1 $100 $101 $24 $-1 $102 reversed single #
loop $-1 $-1 $103 $40 #
plane-surface $-1 0 0 -6.084158357319474 0 0 1 1 0 0 forward_v I I I I #
coedge $-1 $104 $105 $106 $107 forward $41 $-1 #
face $-1 $108 $109 $25 $-1 $110 reversed single #
loop $-1 $-1 $111 $43 #
plane-surface $-1 -43.996374162868747 0 4.584158357319474 -1 0 0 0 0 1 forward_v I I I I #
coedge $-1 $112 $113 $114 $115 forward $44 $-1 #
face $-1 $116 $117 $26 $-1 $118 reversed single #
loop $-1 $-1 $119 $46 #
plane-surface $-1 -21.49860204935122 -14.138441002690989 75.494138341289826 0.70710678939079041 0 0.70710677298230451 0.70710677298230451 0 -0.70710678939079041 forward_v I I I I #
coedge $-1 $120 $121 $122 $123 reversed $47 $-1 #
face $-1 $-1 $124 $27 $-1 $125 forward single #
loop $-1 $126 $127 $49 #
cone-surface $-1 49.021079736211206 -15.959228633835156 3.2030193721409788 -0.70710678939079041 0 -0.70710677298230451 0.17677669324557613 0 -0.1767766973476976 1 I I -0.70710678118654746 0.70710678118654746 0.25 forward I I I I #
loop $-1 $-1 $128 $35 #
coedge $-1 $80 $80 $129 $130 reversed $50 $-1 #
face $-1 $-1 $131 $28 $-1 $132 forward single #
loop $-1 $133 $134 $52 #
cone-surface $-1 49.021079736211206 -12.317653371546822 3.2030193721409788 -0.70710678939079041 0 -0.70710677298230451 0.17677669324557613 0 -0.1767766973476976 1 I I -0.70710678118654746 0.70710678118654746 0.25 forward I I I I #
loop $-1 $-1 $135 $36 #
coedge $-1 $85 $85 $136 $137 reversed $53 $-1 #
face $-1 $138 $139 $29 $-1 $140 reversed single #
loop $-1 $-1 $141 $55 #
plane-surface $-1 -21.49860204935122 15.440137171535596 75.494138341289826 0.70710678939079041 0 0.70710677298230451 0.70710677298230451 0 -0.70710678939079041 forward_v I I I I #
coedge $-1 $142 $143 $144 $145 reversed $56 $-1 #
face $-1 $-1 $146 $30 $-1 $147 forward single #
loop $-1 $148 $149 $58 #
cone-surface $-1 49.021079736211206 13.619349540391433 3.2030193721409788 -0.70710678939079041 0 -0.70710677298230451 0.17677669324557613 0 -0.1767766973476976 1 I I -0.70710678118654746 0.70710678118654746 0.25 forward I I I I #
loop $-1 $-1 $150 $38 #
coedge $-1 $94 $94 $151 $152 reversed $59 $-1 #
face $-1 $-1 $153 $31 $-1 $154 forward single #
loop $-1 $155 $156 $61 #
cone-surface $-1 49.021079736211206 17.26092480267976 3.2030193721409788 -0.70710678939079041 0 -0.70710677298230451 0.17677669324557613 0 -0.1767766973476976 1 I I -0.70710678118654746 0.70710678118654746 0.25 forward I I I I #
loop $-1 $-1 $157 $39 #
coedge $-1 $99 $99 $158 $159 reversed $62 $-1 #
face $-1 $160 $161 $24 $-1 $162 reversed single #
loop $-1 $-1 $163 $64 #
plane-surface $-1 0 -29.578578174226585 0 0 1 0 0 0 1 forward_v I I I I #
coedge $-1 $164 $165 $166 $167 forward $65 $-1 #
coedge $-1 $168 $67 $169 $170 forward $41 $-1 #
coedge $-1 $67 $168 $171 $172 forward $41 $-1 #
coedge $-1 $173 $174 $67 $107 reversed $175 $-1 #
edge $-1 $176 -29.578578174226585 $177 29.578578174226585 $106 $178 forward 7 unknown #
face $-1 $179 $180 $25 $-1 $181 reversed single #
loop $-1 $-1 $182 $68 #
plane-surface $-1 0 29.578578174226585 0 0 -1 0 0 0 -1 forward_v I I I I #
coedge $-1 $114 $183 $184 $185 reversed $69 $-1 #
coedge $-1 $186 $71 $187 $188 reversed $44 $-1 #
coedge $-1 $71 $186 $189 $190 reversed $44 $-1 #
coedge $-1 $191 $111 $71 $115 reversed $69 $-1 #
edge $-1 $192 -29.578578174226585 $193 29.578578174226585 $114 $194 forward 7 unknown #
face $-1 $195 $196 $26 $-1 $197 forward single #
loop $-1 $-1 $198 $72 #
plane-surface $-1 51.902220398912547 -18.386945475360712 148.89495908627995 0 1 0 0.70710678939079041 0 0.70710677298230451 forward_v I I I I #
coedge $-1 $199 $200 $201 $202 reversed $73 $-1 #
coedge $-1 $121 $75 $203 $204 reversed $47 $-1 #
coedge $-1 $75 $120 $199 $205 reversed $47 $-1 #
coedge $-1 $201 $206 $75 $123 forward $196 $-1 #
edge $-1 $207 -25.951108496182634 $208 -21.960266124497117 $122 $209 forward 7 unknown #
loop $-1 $-1 $129 $76 #
plane-surface $-1 -21.49860204935122 -14.138441002690989 75.494138341289826 0.70710678939079041 0 0.70710677298230451 0.70710677298230451 0 -0.70710678939079041 forward_v I I I I #
loop $-1 $-1 $210 $49 #
coedge $-1 $127 $127 $128 $211 reversed $77 $-1 #
coedge $-1 $128 $128 $127 $211 forward $79 $-1 #
coedge $-1 $129 $129 $80 $130 forward $124 $-1 #
edge $-1 $212 0 $212 6.2831853071796004 $129 $213 forward 7 unknown #
loop $-1 $-1 $136 $81 #
plane-surface $-1 -21.49860204935122 -14.138441002690989 75.494138341289826 0.70710678939079041 0 0.70710677298230451 0.70710677298230451 0 -0.70710678939079041 forward_v I I I I #
loop $-1 $-1 $214 $52 #
coedge $-1 $134 $134 $135 $215 reversed $82 $-1 #
coedge $-1 $135 $135 $134 $215 forward $84 $-1 #
coedge $-1 $136 $136 $85 $137 forward $131 $-1 #
edge $-1 $216 0 $216 6.2831853071796004 $136 $217 forward 7 unknown #
face $-1 $218 $219 $29 $-1 $220 reversed single #
loop $-1 $-1 $221 $86 #
plane-surface $-1 51.902220398912547 11.191632698865874 148.89495908627995 0 1 0 0.70710678939079041 0 0.70710677298230451 forward_v I I I I #
coedge $-1 $222 $223 $224 $225 reversed $87 $-1 #
coedge $-1 $143 $89 $226 $227 reversed $56 $-1 #
coedge $-1 $89 $142 $222 $228 reversed $56 $-1 #
coedge $-1 $224 $229 $89 $145 forward $230 $-1 #
edge $-1 $231 -25.951108496182634 $232 -21.960266124497117 $144 $233 forward 7 unknown #
loop $-1 $-1 $151 $90 #
plane-surface $-1 -21.49860204935122 15.440137171535596 75.494138341289826 0.70710678939079041 0 0.70710677298230451 0.70710677298230451 0 -0.70710678939079041 forward_v I I I I #
loop $-1 $-1 $234 $58 #
coedge $-1 $149 $149 $150 $235 reversed $91 $-1 #
coedge $-1 $150 $150 $149 $235 forward $93 $-1 #
coedge $-1 $151 $151 $94 $152 forward $146 $-1 #
edge $-1 $236 0 $236 6.2831853071796004 $151 $237 forward 7 unknown #
loop $-1 $-1 $158 $95 #
plane-surface $-1 -21.49860204935122 15.440137171535596 75.494138341289826 0.70710678939079041 0 0.70710677298230451 0.70710677298230451 0 -0.70710678939079041 forward_v I I I I #
loop $-1 $-1 $238 $61 #
coedge $-1 $156 $156 $157 $239 reversed $96 $-1 #
coedge $-1 $157 $157 $156 $239 forward $98 $-1 #
coedge $-1 $158 $158 $99 $159 forward $153 $-1 #
edge $-1 $240 0 $240 6.2831853071796004 $158 $241 forward 7 unknown #
face $-1 $242 $243 $24 $-1 $244 reversed single #
loop $-1 $-1 $245 $100 #
plane-surface $-1 -51.902218695638908 0 0 1 0 0 0 0 -1 forward_v I I I I #
coedge $-1 $246 $171 $247 $248 forward $101 $-1 #
coedge $-1 $249 $103 $246 $250 forward $65 $-1 #
coedge $-1 $103 $249 $251 $252 forward $65 $-1 #
coedge $-1 $174 $173 $103 $167 reversed $175 $-1 #
edge $-1 $253 -29.578578174226585 $254 29.578578174226585 $166 $255 forward 7 unknown #
coedge $-1 $105 $104 $256 $257 forward $41 $-1 #
coedge $-1 $258 $259 $104 $170 reversed $243 $-1 #
edge $-1 $177 -51.902218695638908 $260 51.902218695638908 $169 $261 forward 7 unknown #
coedge $-1 $163 $262 $105 $172 reversed $101 $-1 #
edge $-1 $263 -51.902218695638908 $176 51.902218695638908 $171 $264 forward 7 unknown #
coedge $-1 $166 $106 $262 $265 forward $175 $-1 #
coedge $-1 $106 $166 $258 $266 reversed $175 $-1 #
loop $-1 $-1 $173 $242 #
vertex $-1 $107 $267 #
vertex $-1 $107 $268 #
straight-curve $-1 51.902218695638908 0 6.084158357319474 0 1 0 I I #
face $-1 $269 $270 $25 $-1 $271 forward single #
loop $-1 $-1 $272 $108 #
plane-surface $-1 -51.902218695638908 0 0 1 0 0 0 0 -1 forward_v I I I I #
coedge $-1 $189 $273 $191 $274 forward $109 $-1 #
coedge $-1 $111 $191 $275 $276 reversed $69 $-1 #
coedge $-1 $277 $187 $111 $185 forward $278 $-1 #
edge $-1 $193 0.79207917865973698 $279 3.792079178659737 $184 $280 forward 7 unknown #
coedge $-1 $113 $112 $272 $281 reversed $44 $-1 #
coedge $-1 $184 $282 $112 $188 forward $278 $-1 #
edge $-1 $283 -27.927570481011994 $193 -20.021725948241833 $187 $284 forward 7 unknown #
coedge $-1 $285 $182 $113 $190 forward $109 $-1 #
edge $-1 $192 20.021725948241833 $286 27.927570481011994 $189 $287 forward 7 unknown #
coedge $-1 $183 $114 $182 $274 reversed $69 $-1 #
vertex $-1 $190 $288 #
vertex $-1 $188 $289 #
straight-curve $-1 -43.996374162868747 0 3.084158357319474 0 -1 0 I I #
face $-1 $-1 $290 $26 $-1 $291 reversed single #
loop $-1 $-1 $122 $116 #
plane-surface $-1 0 0 6.084158357319474 0 0 1 1 0 0 forward_v I I I I #
coedge $-1 $292 $293 $294 $295 reversed $117 $-1 #
coedge $-1 $296 $119 $121 $205 forward $73 $-1 #
coedge $-1 $119 $296 $292 $297 forward $73 $-1 #
coedge $-1 $294 $122 $119 $202 forward $196 $-1 #
edge $-1 $208 2.820716028675772 $298 11.317724974015217 $201 $299 forward 7 unknown #
coedge $-1 $300 $301 $120 $204 forward $290 $-1 #
edge $-1 $302 -72.354163650113918 $207 -68.363321185820496 $203 $303 forward 7 unknown #
edge $-1 $208 98.160533918463287 $302 103.80443739127783 $121 $304 forward 7 unknown #
coedge $-1 $122 $294 $300 $305 forward $196 $-1 #
vertex $-1 $204 $306 #
vertex $-1 $123 $307 #
straight-curve $-1 25.951110199456274 -9.8899365300212665 6.0841583573194669 -1 0 0 I I #
coedge $-1 $210 $210 $-1 $308 reversed $126 $-1 #
edge $-1 $309 0 $309 6.2831853071796004 $127 $310 forward 7 unknown #
vertex $-1 $130 $311 #
ellipse-curve $-1 49.906797509796156 -15.959228633835156 4.0887371251727576 0.70710678939079041 0 0.70710677298230451 0.35355338649115226 0 -0.35355339469539521 1 I I #
coedge $-1 $214 $214 $-1 $312 reversed $133 $-1 #
edge $-1 $313 0 $313 6.2831853071796004 $134 $314 forward 7 unknown #
vertex $-1 $137 $315 #
ellipse-curve $-1 49.906797509796156 -12.317653371546822 4.0887371251727576 0.70710678939079041 0 0.70710677298230451 0.35355338649115226 0 -0.35355339469539521 1 I I #
face $-1 $-1 $230 $29 $-1 $316 forward single #
loop $-1 $-1 $317 $138 #
plane-surface $-1 51.902218695638908 0 0 -1 0 0 0 0 1 forward_v I I I I #
coedge $-1 $318 $319 $320 $321 reversed $139 $-1 #
coedge $-1 $322 $141 $143 $228 forward $87 $-1 #
coedge $-1 $141 $322 $318 $323 forward $87 $-1 #
coedge $-1 $320 $144 $141 $225 forward $230 $-1 #
edge $-1 $232 -11.968573058437521 $324 -3.4715641130980757 $224 $325 forward 7 unknown #
coedge $-1 $326 $327 $142 $227 forward $219 $-1 #
edge $-1 $328 -72.354163650113918 $231 -68.363321185820496 $226 $329 forward 7 unknown #
edge $-1 $232 98.160533918463287 $328 103.80443739127783 $143 $330 forward 7 unknown #
coedge $-1 $144 $320 $326 $331 forward $230 $-1 #
loop $-1 $-1 $320 $218 #
vertex $-1 $227 $332 #
vertex $-1 $145 $333 #
straight-curve $-1 25.951110199456274 19.688641644205319 6.0841583573194669 -1 0 0 I I #
coedge $-1 $234 $234 $-1 $334 reversed $148 $-1 #
edge $-1 $335 0 $335 6.2831853071796004 $149 $336 forward 7 unknown #
vertex $-1 $152 $337 #
ellipse-curve $-1 49.906797509796156 13.619349540391433 4.0887371251727576 0.70710678939079041 0 0.70710677298230451 0.35355338649115226 0 -0.35355339469539521 1 I I #
coedge $-1 $238 $238 $-1 $338 reversed $155 $-1 #
edge $-1 $339 0 $339 6.2831853071796004 $156 $340 forward 7 unknown #
vertex $-1 $159 $341 #
ellipse-curve $-1 49.906797509796156 17.26092480267976 4.0887371251727576 0.70710678939079041 0 0.70710677298230451 0.35355338649115226 0 -0.35355339469539521 1 I I #
face $-1 $-1 $175 $24 $-1 $342 reversed single #
loop $-1 $-1 $258 $160 #
plane-surface $-1 0 29.578578174226585 0 0 -1 0 0 0 -1 forward_v I I I I #
coedge $-1 $343 $256 $259 $344 forward $161 $-1 #
coedge $-1 $262 $163 $164 $250 reversed $101 $-1 #
coedge $-1 $256 $343 $163 $248 reversed $161 $-1 #
edge $-1 $263 -6.084158357319474 $345 6.084158357319474 $247 $346 forward 7 unknown #
coedge $-1 $165 $164 $343 $347 forward $65 $-1 #
edge $-1 $254 -51.902218695638908 $345 51.902218695638908 $246 $348 forward 7 unknown #
coedge $-1 $259 $258 $165 $252 reversed $243 $-1 #
edge $-1 $349 -51.902218695638908 $253 51.902218695638908 $251 $350 forward 7 unknown #
vertex $-1 $167 $351 #
vertex $-1 $265 $352 #
straight-curve $-1 51.902218695638908 0 -6.084158357319474 0 -1 0 I I #
coedge $-1 $245 $247 $168 $257 reversed $161 $-1 #
edge $-1 $260 -29.578578174226585 $263 29.578578174226585 $256 $353 forward 7 unknown #
coedge $-1 $251 $169 $174 $266 forward $243 $-1 #
coedge $-1 $169 $251 $245 $344 reversed $243 $-1 #
vertex $-1 $170 $354 #
straight-curve $-1 0 29.578578174226585 6.084158357319474 -1 0 0 I I #
coedge $-1 $171 $246 $173 $265 reversed $101 $-1 #
vertex $-1 $257 $355 #
straight-curve $-1 0 -29.578578174226585 6.084158357319474 1 0 0 I I #
edge $-1 $176 -6.084158357319474 $254 6.084158357319474 $173 $356 forward 7 unknown #
edge $-1 $177 -6.084158357319474 $253 6.084158357319474 $174 $357 forward 7 unknown #
point $-1 51.902218695638908 -29.578578174226585 6.084158357319474 #
point $-1 51.902218695638908 29.578578174226585 6.084158357319474 #
face $-1 $-1 $278 $25 $-1 $358 reversed single #
loop $-1 $-1 $275 $179 #
plane-surface $-1 0 0 6.084158357319474 0 0 1 1 0 0 forward_v I I I I #
coedge $-1 $359 $360 $186 $281 forward $180 $-1 #
coedge $-1 $182 $285 $361 $362 reversed $109 $-1 #
edge $-1 $363 -3.792079178659737 $192 -0.79207917865973698 $182 $364 forward 7 unknown #
coedge $-1 $361 $365 $183 $276 forward $270 $-1 #
edge $-1 $279 -29.578578174226585 $363 29.578578174226585 $275 $366 forward 7 unknown #
coedge $-1 $282 $184 $365 $367 reversed $278 $-1 #
loop $-1 $-1 $184 $269 #
vertex $-1 $185 $368 #
straight-curve $-1 -43.996374162868747 -29.578578174226585 2.292079178659737 0 0 1 I I #
edge $-1 $286 -29.578578174226585 $283 29.578578174226585 $272 $369 forward 7 unknown #
coedge $-1 $187 $277 $359 $370 forward $278 $-1 #
vertex $-1 $281 $371 #
straight-curve $-1 -23.974648214626914 -29.578578174226585 3.084158357319474 1 0 0 I I #
coedge $-1 $273 $189 $360 $372 reversed $109 $-1 #
vertex $-1 $281 $373 #
straight-curve $-1 -23.974648214626914 29.578578174226585 3.084158357319474 -1 0 0 I I #
point $-1 -43.996374162868747 29.578578174226585 3.084158357319474 #
point $-1 -43.996374162868747 -29.578578174226585 3.084158357319474 #
loop $-1 $-1 $203 $195 #
plane-surface $-1 51.902218695638908 0 0 -1 0 0 0 0 1 forward_v I I I I #
coedge $-1 $293 $198 $200 $297 reversed $117 $-1 #
coedge $-1 $198 $292 $374 $375 reversed $117 $-1 #
coedge $-1 $206 $201 $198 $295 forward $196 $-1 #
edge $-1 $298 21.960266124497117 $376 25.951108496182634 $294 $377 forward 7 unknown #
coedge $-1 $200 $199 $301 $378 reversed $73 $-1 #
edge $-1 $379 -103.80443739127783 $298 -98.160533918463287 $292 $380 forward 7 unknown #
vertex $-1 $202 $381 #
straight-curve $-1 47.911376323953405 -7.0692205013454945 6.084158357319474 0 -1 0 I I #
coedge $-1 $374 $203 $206 $305 reversed $290 $-1 #
coedge $-1 $203 $374 $296 $378 forward $290 $-1 #
vertex $-1 $204 $382 #
straight-curve $-1 51.902218695638908 -9.8899365300212665 74.447479543139977 0 0 1 I I #
straight-curve $-1 -21.49860204935122 -9.8899365300212665 75.494138341289826 0.70710677298230451 0 -0.70710678939079041 I I #
edge $-1 $376 -18.386945475360712 $207 -9.8899365300212665 $300 $383 forward 7 unknown #
point $-1 51.902218695638908 -9.8899365300212665 6.084158357319474 #
point $-1 47.911376323953391 -9.8899365300212665 6.0841583573194811 #
edge $-1 $384 1 $384 0 $210 $-1 forward 7 unknown #
vertex $-1 $211 $385 #
ellipse-curve $-1 49.197856433558904 -15.959228633835156 3.3797960653865551 0.70710678939079041 0 0.70710677298230451 0.35355338649115226 0 -0.35355339469539521 1 I I #
point $-1 50.260350896287314 -15.959228633835156 3.7351837304773676 #
edge $-1 $386 1 $386 0 $214 $-1 forward 7 unknown #
vertex $-1 $215 $387 #
ellipse-curve $-1 49.197856433558904 -12.317653371546822 3.3797960653865551 0.70710678939079041 0 0.70710677298230451 0.35355338649115226 0 -0.35355339469539521 1 I I #
point $-1 50.260350896287314 -12.317653371546822 3.7351837304773676 #
plane-surface $-1 0 0 6.084158357319474 0 0 1 1 0 0 forward_v I I I I #
coedge $-1 $327 $326 $319 $388 forward $219 $-1 #
coedge $-1 $319 $221 $223 $323 reversed $139 $-1 #
coedge $-1 $221 $318 $317 $388 reversed $139 $-1 #
coedge $-1 $229 $224 $221 $321 forward $230 $-1 #
edge $-1 $324 21.960266124497117 $389 25.951108496182634 $320 $390 forward 7 unknown #
coedge $-1 $223 $222 $327 $391 reversed $87 $-1 #
edge $-1 $392 -103.80443739127783 $324 -98.160533918463287 $318 $393 forward 7 unknown #
vertex $-1 $225 $394 #
straight-curve $-1 47.911376323953405 7.7200685857677982 6.084158357319474 0 -1 0 I I #
coedge $-1 $317 $226 $229 $331 reversed $219 $-1 #
coedge $-1 $226 $317 $322 $391 forward $219 $-1 #
vertex $-1 $227 $395 #
straight-curve $-1 51.902218695638908 19.688641644205319 74.447479543139977 0 0 1 I I #
straight-curve $-1 -21.49860204935122 19.688641644205319 75.494138341289826 0.70710677298230451 0 -0.70710678939079041 I I #
edge $-1 $389 11.191632698865874 $231 19.688641644205319 $326 $396 forward 7 unknown #
point $-1 51.902218695638908 19.688641644205319 6.084158357319474 #
point $-1 47.911376323953391 19.688641644205319 6.0841583573194811 #
edge $-1 $397 1 $397 0 $234 $-1 forward 7 unknown #
vertex $-1 $235 $398 #
ellipse-curve $-1 49.197856433558904 13.619349540391433 3.3797960653865551 0.70710678939079041 0 0.70710677298230451 0.35355338649115226 0 -0.35355339469539521 1 I I #
point $-1 50.260350896287314 13.619349540391433 3.7351837304773676 #
edge $-1 $399 1 $399 0 $238 $-1 forward 7 unknown #
vertex $-1 $239 $400 #
ellipse-curve $-1 49.197856433558904 17.26092480267976 3.3797960653865551 0.70710678939079041 0 0.70710677298230451 0.35355338649115226 0 -0.35355339469539521 1 I I #
point $-1 50.260350896287314 17.26092480267976 3.7351837304773676 #
plane-surface $-1 51.902218695638908 0 0 -1 0 0 0 0 1 forward_v I I I I #
coedge $-1 $247 $245 $249 $347 reversed $161 $-1 #
edge $-1 $260 -6.084158357319474 $349 6.084158357319474 $259 $401 forward 7 unknown #
vertex $-1 $347 $402 #
straight-curve $-1 -51.902218695638908 -29.578578174226585 0 0 0 -1 I I #
edge $-1 $345 -29.578578174226585 $349 29.578578174226585 $343 $403 forward 7 unknown #
straight-curve $-1 0 -29.578578174226585 -6.084158357319474 -1 0 0 I I #
vertex $-1 $252 $404 #
straight-curve $-1 0 29.578578174226585 -6.084158357319474 1 0 0 I I #
point $-1 51.902218695638908 29.578578174226585 -6.084158357319474 #
point $-1 51.902218695638908 -29.578578174226585 -6.084158357319474 #
straight-curve $-1 -51.902218695638908 0 6.084158357319474 0 -1 0 I I #
point $-1 -51.902218695638908 29.578578174226585 6.084158357319474 #
point $-1 -51.902218695638908 -29.578578174226585 6.084158357319474 #
straight-curve $-1 51.902218695638908 -29.578578174226585 0 0 0 -1 I I #
straight-curve $-1 51.902218695638908 29.578578174226585 0 0 0 -1 I I #
plane-surface $-1 0 -29.578578174226585 0 0 1 0 0 0 1 forward_v I I I I #
coedge $-1 $405 $272 $282 $370 reversed $180 $-1 #
coedge $-1 $272 $405 $285 $372 forward $180 $-1 #
coedge $-1 $406 $275 $273 $362 forward $270 $-1 #
edge $-1 $363 43.996374162868747 $407 51.902218695638908 $273 $408 forward 7 unknown #
vertex $-1 $362 $409 #
straight-curve $-1 -43.996374162868747 29.578578174226585 2.292079178659737 0 0 -1 I I #
coedge $-1 $275 $406 $277 $367 forward $270 $-1 #
straight-curve $-1 -43.996374162868747 0 6.084158357319474 0 1 0 I I #
edge $-1 $410 -51.902218695638908 $279 -43.996374162868747 $277 $411 forward 7 unknown #
point $-1 -43.996374162868747 -29.578578174226585 6.084158357319474 #
straight-curve $-1 -51.902218695638908 0 3.084158357319474 0 -1 0 I I #
edge $-1 $410 -6.084158357319474 $283 -3.084158357319474 $359 $412 forward 7 unknown #
point $-1 -51.902218695638908 -29.578578174226585 3.084158357319474 #
edge $-1 $407 -6.084158357319474 $286 -3.084158357319474 $285 $413 forward 7 unknown #
point $-1 -51.902218695638908 29.578578174226585 3.084158357319474 #
coedge $-1 $301 $300 $293 $375 forward $290 $-1 #
edge $-1 $376 68.363321185820496 $379 72.354163650113918 $374 $414 forward 7 unknown #
vertex $-1 $305 $415 #
straight-curve $-1 25.951110199456274 -18.386945475360712 6.0841583573194669 1 0 0 I I #
edge $-1 $379 -11.317724974015217 $302 -2.820716028675772 $301 $416 forward 7 unknown #
vertex $-1 $378 $417 #
straight-curve $-1 -21.49860204935122 -18.386945475360712 75.494138341289826 -0.70710677298230451 0 0.70710678939079041 I I #
point $-1 47.911376323953391 -18.386945475360712 6.0841583573194811 #
point $-1 51.902218695638908 -9.8899365300212665 2.0933158930260589 #
straight-curve $-1 51.902218695638908 0 6.084158357319474 0 1 0 I I #
vertex $-1 $308 $418 #
point $-1 49.551409820050054 -15.959228633835156 3.0262426706911598 #
vertex $-1 $312 $419 #
point $-1 49.551409820050054 -12.317653371546822 3.0262426706911598 #
edge $-1 $389 68.363321185820496 $392 72.354163650113918 $317 $420 forward 7 unknown #
vertex $-1 $331 $421 #
straight-curve $-1 25.951110199456274 11.191632698865874 6.0841583573194669 1 0 0 I I #
edge $-1 $392 3.4715641130980757 $328 11.968573058437521 $327 $422 forward 7 unknown #
vertex $-1 $391 $423 #
straight-curve $-1 -21.49860204935122 11.191632698865874 75.494138341289826 -0.70710677298230451 0 0.70710678939079041 I I #
point $-1 47.911376323953391 11.191632698865874 6.0841583573194811 #
point $-1 51.902218695638908 19.688641644205319 2.0933158930260589 #
straight-curve $-1 51.902218695638908 0 6.084158357319474 0 1 0 I I #
vertex $-1 $334 $424 #
point $-1 49.551409820050054 13.619349540391433 3.0262426706911598 #
vertex $-1 $338 $425 #
point $-1 49.551409820050054 17.26092480267976 3.0262426706911598 #
straight-curve $-1 -51.902218695638908 29.578578174226585 0 0 0 -1 I I #
point $-1 -51.902218695638908 -29.578578174226585 -6.084158357319474 #
straight-curve $-1 -51.902218695638908 0 -6.084158357319474 0 1 0 I I #
point $-1 -51.902218695638908 29.578578174226585 -6.084158357319474 #
coedge $-1 $360 $359 $406 $426 reversed $180 $-1 #
coedge $-1 $365 $361 $405 $426 forward $270 $-1 #
vertex $-1 $362 $427 #
straight-curve $-1 0 29.578578174226585 6.084158357319474 -1 0 0 I I #
point $-1 -43.996374162868747 29.578578174226585 6.084158357319474 #
vertex $-1 $426 $428 #
straight-curve $-1 0 -29.578578174226585 6.084158357319474 1 0 0 I I #
straight-curve $-1 -51.902218695638908 -29.578578174226585 0 0 0 -1 I I #
straight-curve $-1 -51.902218695638908 29.578578174226585 0 0 0 -1 I I #
straight-curve $-1 51.902218695638908 -18.386945475360712 74.447479543139977 0 0 -1 I I #
point $-1 51.902218695638908 -18.386945475360712 6.084158357319474 #
straight-curve $-1 51.902218695638908 -7.0692205013454945 2.0933158930260518 0 1 0 I I #
point $-1 51.902218695638908 -18.386945475360712 2.0933158930260589 #
point $-1 48.844303038863508 -15.959228633835156 3.0262426788954024 #
point $-1 48.844303038863508 -12.317653371546822 3.0262426788954024 #
straight-curve $-1 51.902218695638908 11.191632698865874 74.447479543139977 0 0 -1 I I #
point $-1 51.902218695638908 11.191632698865874 6.084158357319474 #
straight-curve $-1 51.902218695638908 7.7200685857677982 2.0933158930260518 0 1 0 I I #
point $-1 51.902218695638908 11.191632698865874 2.0933158930260589 #
point $-1 48.844303038863508 13.619349540391433 3.0262426788954024 #
point $-1 48.844303038863508 17.26092480267976 3.0262426788954024 #
edge $-1 $407 -29.578578174226585 $410 29.578578174226585 $405 $429 forward 7 unknown #
point $-1 -51.902218695638908 29.578578174226585 6.084158357319474 #
point $-1 -51.902218695638908 -29.578578174226585 6.084158357319474 #
straight-curve $-1 -51.902218695638908 0 6.084158357319474 0 -1 0 I I #
End-of-ACIS-data 