500 0 17 0           
7 Unknown 11 ACIS 5.0 NT 24 Fri Mar 26 20:15:25 1999 
-1 9.9999999999999995e-007 1e-010 
body $-1 $17 $-1 $18 #
body $-1 $19 $-1 $20 #
body $-1 $21 $-1 $22 #
body $-1 $23 $-1 $24 #
body $-1 $25 $-1 $26 #
body $-1 $27 $-1 $28 #
body $-1 $29 $-1 $30 #
body $-1 $31 $-1 $32 #
body $-1 $33 $-1 $34 #
body $-1 $35 $-1 $36 #
body $-1 $37 $-1 $38 #
body $-1 $39 $-1 $40 #
body $-1 $41 $-1 $42 #
body $-1 $43 $-1 $44 #
body $-1 $45 $-1 $46 #
body $-1 $47 $-1 $48 #
body $-1 $49 $-1 $50 #
lump $-1 $-1 $51 $0 #
transform $-1 1 0 0 0 1 0 0 0 1 49.537644581438641 23.245215057552603 6.0119601894203099 1 rotate no_reflect no_shear #
lump $-1 $-1 $52 $1 #
transform $-1 1 0 0 0 1 0 0 0 1 49.537644581438641 23.245215057552603 6.0119601894203099 1 rotate no_reflect no_shear #
lump $-1 $-1 $53 $2 #
transform $-1 1 0 0 0 1 0 0 0 1 49.537644581438641 23.245215057552603 6.0119601894203099 1 rotate no_reflect no_shear #
lump $-1 $-1 $54 $3 #
transform $-1 1 0 0 0 1 0 0 0 1 49.537644581438641 23.245215057552603 6.0119601894203099 1 rotate no_reflect no_shear #
lump $-1 $-1 $55 $4 #
transform $-1 1 0 0 0 1 0 0 0 1 49.537644581438641 23.245215057552603 6.0119601894203099 1 rotate no_reflect no_shear #
lump $-1 $-1 $56 $5 #
transform $-1 1 0 0 0 1 0 0 0 1 49.537644581438641 23.245215057552603 6.0119601894203099 1 rotate no_reflect no_shear #
lump $-1 $-1 $57 $6 #
transform $-1 1 0 0 0 1 0 0 0 1 49.537644581438641 23.245215057552603 6.0119601894203099 1 rotate no_reflect no_shear #
lump $-1 $-1 $58 $7 #
transform $-1 1 0 0 0 1 0 0 0 1 49.537644581438641 23.245215057552603 6.0119601894203099 1 rotate no_reflect no_shear #
lump $-1 $-1 $59 $8 #
transform $-1 1 0 0 0 1 0 0 0 1 49.537644581438641 23.245215057552603 6.0119601894203099 1 rotate no_reflect no_shear #
lump $-1 $-1 $60 $9 #
transform $-1 1 0 0 0 1 0 0 0 1 49.537644581438641 23.245215057552603 6.0119601894203099 1 rotate no_reflect no_shear #
lump $-1 $-1 $61 $10 #
transform $-1 1 0 0 0 1 0 0 0 1 49.537644581438641 23.245215057552603 6.0119601894203099 1 rotate no_reflect no_shear #
lump $-1 $-1 $62 $11 #
transform $-1 1 0 0 0 1 0 0 0 1 49.537644581438641 23.245215057552603 6.0119601894203099 1 rotate no_reflect no_shear #
lump $-1 $-1 $63 $12 #
transform $-1 1 0 0 0 1 0 0 0 1 49.537644581438641 23.245215057552603 6.0119601894203099 1 rotate no_reflect no_shear #
lump $-1 $-1 $64 $13 #
transform $-1 1 0 0 0 1 0 0 0 1 49.537644581438641 23.245215057552603 6.0119601894203099 1 rotate no_reflect no_shear #
lump $-1 $-1 $65 $14 #
transform $-1 1 0 0 0 1 0 0 0 1 49.537644581438641 23.245215057552603 6.0119601894203099 1 rotate no_reflect no_shear #
lump $-1 $-1 $66 $15 #
transform $-1 1 0 0 0 1 0 0 0 1 49.537644581438641 23.245215057552603 6.0119601894203099 1 rotate no_reflect no_shear #
lump $-1 $-1 $67 $16 #
transform $-1 1 0 0 0 1 0 0 0 1 49.537644581438641 23.245215057552603 6.0119601894203099 1 rotate no_reflect no_shear #
shell $-1 $-1 $-1 $68 $-1 $17 #
shell $-1 $-1 $-1 $69 $-1 $19 #
shell $-1 $-1 $-1 $70 $-1 $21 #
shell $-1 $-1 $-1 $71 $-1 $23 #
shell $-1 $-1 $-1 $72 $-1 $25 #
shell $-1 $-1 $-1 $73 $-1 $27 #
shell $-1 $-1 $-1 $74 $-1 $29 #
shell $-1 $-1 $-1 $75 $-1 $31 #
shell $-1 $-1 $-1 $76 $-1 $33 #
shell $-1 $-1 $-1 $77 $-1 $35 #
shell $-1 $-1 $-1 $78 $-1 $37 #
shell $-1 $-1 $-1 $79 $-1 $39 #
shell $-1 $-1 $-1 $80 $-1 $41 #
shell $-1 $-1 $-1 $81 $-1 $43 #
shell $-1 $-1 $-1 $82 $-1 $45 #
shell $-1 $-1 $-1 $83 $-1 $47 #
shell $-1 $-1 $-1 $84 $-1 $49 #
face $-1 $85 $86 $51 $-1 $87 forward single #
face $-1 $88 $89 $52 $-1 $90 reversed single #
face $-1 $91 $92 $53 $-1 $93 reversed single #
face $-1 $94 $95 $54 $-1 $96 forward single #
face $-1 $97 $98 $55 $-1 $99 forward single #
face $-1 $100 $101 $56 $-1 $102 reversed single #
face $-1 $103 $104 $57 $-1 $105 forward single #
face $-1 $106 $107 $58 $-1 $108 forward single #
face $-1 $109 $110 $59 $-1 $111 reversed single #
face $-1 $112 $113 $60 $-1 $114 forward single #
face $-1 $115 $116 $61 $-1 $117 forward single #
face $-1 $118 $119 $62 $-1 $120 reversed single #
face $-1 $121 $122 $63 $-1 $123 forward single #
face $-1 $124 $125 $64 $-1 $126 forward single #
face $-1 $127 $128 $65 $-1 $129 reversed single #
face $-1 $130 $131 $66 $-1 $132 forward single #
face $-1 $133 $134 $67 $-1 $135 forward single #
face $-1 $136 $137 $51 $-1 $138 reversed single #
loop $-1 $-1 $139 $68 #
plane-surface $-1 0 0 6.0119601894203099 0 0 1 1 0 0 forward_v I I I I #
face $-1 $140 $141 $52 $-1 $142 reversed single #
loop $-1 $-1 $143 $69 #
plane-surface $-1 0 -20.370378149114977 3.0119601894203099 0 0 1 1 0 0 forward_v I I I I #
face $-1 $144 $145 $53 $-1 $146 reversed single #
loop $-1 $-1 $147 $70 #
plane-surface $-1 49.537646207114122 -6.9927962837667828 142.52074069546691 0 -1 0 -0.70710678939079041 0 -0.70710677298230451 forward_v I I I I #
face $-1 $148 $149 $54 $-1 $150 forward single #
loop $-1 $151 $152 $71 #
cone-surface $-1 46.734601006605125 -14.494756967274331 3.2089165959810866 -0.70710678939079041 0 -0.70710677298230451 0.70710677298230451 0 -0.70710678939079041 1 I I 0 1 1 forward I I I I #
face $-1 $153 $154 $55 $-1 $155 forward single #
loop $-1 $156 $157 $72 #
cone-surface $-1 46.734601006605125 -9.9935805571698015 3.2089165959810866 -0.70710678939079041 0 -0.70710677298230451 0.70710677298230451 0 -0.70710678939079041 1 I I 0 1 1 forward I I I I #
face $-1 $158 $159 $56 $-1 $160 reversed single #
loop $-1 $-1 $161 $73 #
plane-surface $-1 -106.36489660231531 -15.440218845478626 81.686819746283902 0 1 0 -0.57357644374324357 0 0.81915203911291934 forward_v I I I I #
face $-1 $162 $163 $57 $-1 $164 forward single #
loop $-1 $165 $166 $74 #
cone-surface $-1 -45.117847439465592 -13.691606353407392 2.5498475968191192 0.57357644374324357 0 -0.81915203911291934 0.40957601955645967 0 0.28678822187162178 1 I I 0 1 0.5 forward I I I I #
face $-1 $167 $168 $58 $-1 $169 forward single #
loop $-1 $170 $171 $75 #
cone-surface $-1 -45.117847439465592 -11.068687615300547 2.5498475968191192 0.57357644374324357 0 -0.81915203911291934 0.40957601955645967 0 0.28678822187162178 1 I I 0 1 0.5 forward I I I I #
face $-1 $172 $173 $59 $-1 $174 reversed single #
loop $-1 $-1 $175 $76 #
plane-surface $-1 -106.36489660231531 -5.2702295836175592 81.686819746283902 0 1 0 -0.57357644374324357 0 0.81915203911291934 forward_v I I I I #
face $-1 $176 $177 $60 $-1 $178 forward single #
loop $-1 $179 $180 $77 #
cone-surface $-1 -45.117847439465592 -3.5216170915463287 2.5498475968191192 0.57357644374324357 0 -0.81915203911291934 0.40957601955645967 0 0.28678822187162178 1 I I 0 1 0.5 forward I I I I #
face $-1 $181 $182 $61 $-1 $183 forward single #
loop $-1 $184 $185 $78 #
cone-surface $-1 -45.117847439465592 -0.89869835343948168 2.5498475968191192 0.57357644374324357 0 -0.81915203911291934 0.40957601955645967 0 0.28678822187162178 1 I I 0 1 0.5 forward I I I I #
face $-1 $186 $187 $62 $-1 $188 reversed single #
loop $-1 $-1 $189 $79 #
plane-surface $-1 -106.36489660231531 4.8997596782435027 81.686819746283902 0 1 0 -0.57357644374324357 0 0.81915203911291934 forward_v I I I I #
face $-1 $190 $191 $63 $-1 $192 forward single #
loop $-1 $193 $194 $80 #
cone-surface $-1 -45.117847439465592 6.6483721703147332 2.5498475968191192 0.57357644374324357 0 -0.81915203911291934 0.40957601955645967 0 0.28678822187162178 1 I I 0 1 0.5 forward I I I I #
face $-1 $195 $196 $64 $-1 $197 forward single #
loop $-1 $198 $199 $81 #
cone-surface $-1 -45.117847439465592 9.2712909084215802 2.5498475968191192 0.57357644374324357 0 -0.81915203911291934 0.40957601955645967 0 0.28678822187162178 1 I I 0 1 0.5 forward I I I I #
face $-1 $200 $201 $65 $-1 $202 reversed single #
loop $-1 $-1 $203 $82 #
plane-surface $-1 -106.36489660231531 15.069748940104564 81.686819746283902 0 1 0 -0.57357644374324357 0 0.81915203911291934 forward_v I I I I #
face $-1 $204 $205 $66 $-1 $206 forward single #
loop $-1 $207 $208 $83 #
cone-surface $-1 -45.117847439465592 16.818361432175795 2.5498475968191192 0.57357644374324357 0 -0.81915203911291934 0.40957601955645967 0 0.28678822187162178 1 I I 0 1 0.5 forward I I I I #
face $-1 $209 $210 $67 $-1 $211 forward single #
loop $-1 $212 $213 $84 #
cone-surface $-1 -45.117847439465592 19.441280170282642 2.5498475968191192 0.57357644374324357 0 -0.81915203911291934 0.40957601955645967 0 0.28678822187162178 1 I I 0 1 0.5 forward I I I I #
face $-1 $214 $215 $51 $-1 $216 reversed single #
loop $-1 $-1 $217 $85 #
plane-surface $-1 0 0 -6.0119601894203099 0 0 1 1 0 0 forward_v I I I I #
coedge $-1 $218 $219 $220 $221 forward $86 $-1 #
face $-1 $222 $223 $52 $-1 $224 reversed single #
loop $-1 $-1 $225 $88 #
plane-surface $-1 0 -17.495541240677351 4.5119601894203099 0 -1 0 0 0 -1 forward_v I I I I #
coedge $-1 $226 $227 $228 $229 reversed $89 $-1 #
face $-1 $230 $231 $53 $-1 $232 forward single #
loop $-1 $-1 $233 $91 #
plane-surface $-1 -20.519163420812205 -12.244168762222067 72.463932693216066 0.70710678939079041 0 0.70710677298230451 0.70710677298230451 0 -0.70710678939079041 forward_v I I I I #
coedge $-1 $234 $235 $236 $237 reversed $92 $-1 #
face $-1 $-1 $238 $54 $-1 $239 forward single #
loop $-1 $240 $241 $94 #
cone-surface $-1 45.38042255731618 -14.494756967274331 1.8547381781159915 -0.70710678939079041 0 -0.70710677298230451 0.35355338649115226 0 -0.35355339469539521 1 I I -0.70710678118654746 0.70710678118654746 0.5 forward I I I I #
loop $-1 $-1 $242 $71 #
coedge $-1 $152 $152 $243 $244 reversed $95 $-1 #
face $-1 $-1 $245 $55 $-1 $246 forward single #
loop $-1 $247 $248 $97 #
cone-surface $-1 45.38042255731618 -9.9935805571698015 1.8547381781159915 -0.70710678939079041 0 -0.70710677298230451 0.35355338649115226 0 -0.35355339469539521 1 I I -0.70710678118654746 0.70710678118654746 0.5 forward I I I I #
loop $-1 $-1 $249 $72 #
coedge $-1 $157 $157 $250 $251 reversed $98 $-1 #
face $-1 $252 $253 $56 $-1 $254 reversed single #
loop $-1 $-1 $255 $100 #
plane-surface $-1 -49.537644581438641 -12.380146984353971 0.52909460281085785 -0.57357644374324357 0 0.81915203911291934 0.81915203911291934 0 0.57357644374324357 forward_v I I I I #
coedge $-1 $256 $257 $258 $259 reversed $101 $-1 #
face $-1 $-1 $260 $57 $-1 $261 forward single #
loop $-1 $262 $263 $103 #
cone-surface $-1 -44.469827890734734 -13.691606353407392 1.6243797877444255 0.57357644374324357 0 -0.81915203911291934 0.20478800977822983 0 0.14339411093581089 1 I I -0.70710678118654746 0.70710678118654746 0.25 forward I I I I #
loop $-1 $-1 $264 $74 #
coedge $-1 $166 $166 $265 $266 reversed $104 $-1 #
face $-1 $-1 $267 $58 $-1 $268 forward single #
loop $-1 $269 $270 $106 #
cone-surface $-1 -44.469827890734734 -11.068687615300547 1.6243797877444255 0.57357644374324357 0 -0.81915203911291934 0.20478800977822983 0 0.14339411093581089 1 I I -0.70710678118654746 0.70710678118654746 0.25 forward I I I I #
loop $-1 $-1 $271 $75 #
coedge $-1 $171 $171 $272 $273 reversed $107 $-1 #
face $-1 $274 $275 $59 $-1 $276 reversed single #
loop $-1 $-1 $277 $109 #
plane-surface $-1 -49.537644581438641 -2.2101577224929052 0.52909460281085785 -0.57357644374324357 0 0.81915203911291934 0.81915203911291934 0 0.57357644374324357 forward_v I I I I #
coedge $-1 $278 $279 $280 $281 reversed $110 $-1 #
face $-1 $-1 $282 $60 $-1 $283 forward single #
loop $-1 $284 $285 $112 #
cone-surface $-1 -44.469827890734734 -3.5216170915463287 1.6243797877444255 0.57357644374324357 0 -0.81915203911291934 0.20478800977822983 0 0.14339411093581089 1 I I -0.70710678118654746 0.70710678118654746 0.25 forward I I I I #
loop $-1 $-1 $286 $77 #
coedge $-1 $180 $180 $287 $288 reversed $113 $-1 #
face $-1 $-1 $289 $61 $-1 $290 forward single #
loop $-1 $291 $292 $115 #
cone-surface $-1 -44.469827890734734 -0.89869835343948168 1.6243797877444255 0.57357644374324357 0 -0.81915203911291934 0.20478800977822983 0 0.14339411093581089 1 I I -0.70710678118654746 0.70710678118654746 0.25 forward I I I I #
loop $-1 $-1 $293 $78 #
coedge $-1 $185 $185 $294 $295 reversed $116 $-1 #
face $-1 $296 $297 $62 $-1 $298 reversed single #
loop $-1 $-1 $299 $118 #
plane-surface $-1 -49.537644581438641 7.9598315393681567 0.52909460281085785 -0.57357644374324357 0 0.81915203911291934 0.81915203911291934 0 0.57357644374324357 forward_v I I I I #
coedge $-1 $300 $301 $302 $303 reversed $119 $-1 #
face $-1 $-1 $304 $63 $-1 $305 forward single #
loop $-1 $306 $307 $121 #
cone-surface $-1 -44.469827890734734 6.6483721703147332 1.6243797877444255 0.57357644374324357 0 -0.81915203911291934 0.20478800977822983 0 0.14339411093581089 1 I I -0.70710678118654746 0.70710678118654746 0.25 forward I I I I #
loop $-1 $-1 $308 $80 #
coedge $-1 $194 $194 $309 $310 reversed $122 $-1 #
face $-1 $-1 $311 $64 $-1 $312 forward single #
loop $-1 $313 $314 $124 #
cone-surface $-1 -44.469827890734734 9.2712909084215802 1.6243797877444255 0.57357644374324357 0 -0.81915203911291934 0.20478800977822983 0 0.14339411093581089 1 I I -0.70710678118654746 0.70710678118654746 0.25 forward I I I I #
loop $-1 $-1 $315 $81 #
coedge $-1 $199 $199 $316 $317 reversed $125 $-1 #
face $-1 $318 $319 $65 $-1 $320 reversed single #
loop $-1 $-1 $321 $127 #
plane-surface $-1 -49.537644581438641 18.129820801229219 0.52909460281085785 -0.57357644374324357 0 0.81915203911291934 0.81915203911291934 0 0.57357644374324357 forward_v I I I I #
coedge $-1 $322 $323 $324 $325 reversed $128 $-1 #
face $-1 $-1 $326 $66 $-1 $327 forward single #
loop $-1 $328 $329 $130 #
cone-surface $-1 -44.469827890734734 16.818361432175795 1.6243797877444255 0.57357644374324357 0 -0.81915203911291934 0.20478800977822983 0 0.14339411093581089 1 I I -0.70710678118654746 0.70710678118654746 0.25 forward I I I I #
loop $-1 $-1 $330 $83 #
coedge $-1 $208 $208 $331 $332 reversed $131 $-1 #
face $-1 $-1 $333 $67 $-1 $334 forward single #
loop $-1 $335 $336 $133 #
cone-surface $-1 -44.469827890734734 19.441280170282642 1.6243797877444255 0.57357644374324357 0 -0.81915203911291934 0.20478800977822983 0 0.14339411093581089 1 I I -0.70710678118654746 0.70710678118654746 0.25 forward I I I I #
loop $-1 $-1 $337 $84 #
coedge $-1 $213 $213 $338 $339 reversed $134 $-1 #
face $-1 $340 $341 $51 $-1 $342 reversed single #
loop $-1 $-1 $343 $136 #
plane-surface $-1 0 -23.245215057552603 0 0 1 0 0 0 1 forward_v I I I I #
coedge $-1 $344 $345 $346 $347 forward $137 $-1 #
coedge $-1 $348 $139 $349 $350 forward $86 $-1 #
coedge $-1 $139 $348 $351 $352 forward $86 $-1 #
coedge $-1 $353 $354 $139 $221 reversed $355 $-1 #
edge $-1 $356 -23.245215057552603 $357 23.245215057552603 $220 $358 forward 7 unknown #
face $-1 $359 $360 $52 $-1 $361 reversed single #
loop $-1 $-1 $362 $140 #
plane-surface $-1 -49.537644581438641 0 0 1 0 0 0 0 -1 forward_v I I I I #
coedge $-1 $363 $364 $227 $365 reversed $141 $-1 #
coedge $-1 $366 $143 $367 $368 reversed $89 $-1 #
coedge $-1 $143 $366 $225 $365 forward $89 $-1 #
coedge $-1 $369 $370 $143 $229 forward $371 $-1 #
edge $-1 $372 -13.060025982995114 $373 -7.3103521661198627 $228 $374 forward 7 unknown #
face $-1 $375 $376 $53 $-1 $377 forward single #
loop $-1 $-1 $378 $144 #
plane-surface $-1 0 -17.495541240677351 4.5119601894203099 0 -1 0 0 0 -1 forward_v I I I I #
coedge $-1 $379 $380 $381 $382 reversed $145 $-1 #
coedge $-1 $235 $147 $383 $384 reversed $92 $-1 #
coedge $-1 $147 $234 $379 $385 reversed $92 $-1 #
coedge $-1 $381 $386 $147 $237 forward $376 $-1 #
edge $-1 $387 -24.768821477881581 $388 -21.163984437401631 $236 $389 forward 7 unknown #
loop $-1 $-1 $243 $148 #
plane-surface $-1 -20.519163420812205 -12.244168762222067 72.463932693216066 0.70710678939079041 0 0.70710677298230451 0.70710677298230451 0 -0.70710678939079041 forward_v I I I I #
loop $-1 $-1 $390 $94 #
coedge $-1 $241 $241 $242 $391 reversed $149 $-1 #
coedge $-1 $242 $242 $241 $391 forward $151 $-1 #
coedge $-1 $243 $243 $152 $244 forward $238 $-1 #
edge $-1 $392 0 $392 6.2831853071796004 $243 $393 forward 7 unknown #
loop $-1 $-1 $250 $153 #
plane-surface $-1 -20.519163420812205 -12.244168762222067 72.463932693216066 0.70710678939079041 0 0.70710677298230451 0.70710677298230451 0 -0.70710678939079041 forward_v I I I I #
loop $-1 $-1 $394 $97 #
coedge $-1 $248 $248 $249 $395 reversed $154 $-1 #
coedge $-1 $249 $249 $248 $395 forward $156 $-1 #
coedge $-1 $250 $250 $157 $251 forward $245 $-1 #
edge $-1 $396 0 $396 6.2831853071796004 $250 $397 forward 7 unknown #
face $-1 $398 $399 $56 $-1 $400 forward single #
loop $-1 $-1 $401 $158 #
plane-surface $-1 -106.36489660231531 -9.3200751232293157 81.686819746283902 0 -1 0 0.57357644374324357 0 -0.81915203911291934 forward_v I I I I #
coedge $-1 $402 $403 $404 $405 reversed $159 $-1 #
coedge $-1 $257 $161 $406 $407 reversed $101 $-1 #
coedge $-1 $161 $256 $402 $408 reversed $101 $-1 #
coedge $-1 $404 $409 $161 $259 forward $399 $-1 #
edge $-1 $410 3.6448037197190146 $411 11.475147128075015 $258 $412 forward 7 unknown #
loop $-1 $-1 $265 $162 #
plane-surface $-1 -49.537644581438641 -12.380146984353971 0.52909460281085785 -0.57357644374324357 0 0.81915203911291934 0.81915203911291934 0 0.57357644374324357 forward_v I I I I #
loop $-1 $-1 $413 $103 #
coedge $-1 $263 $263 $264 $414 reversed $163 $-1 #
coedge $-1 $264 $264 $263 $414 forward $165 $-1 #
coedge $-1 $265 $265 $166 $266 forward $260 $-1 #
edge $-1 $415 0 $415 6.2831853071796004 $265 $416 forward 7 unknown #
loop $-1 $-1 $272 $167 #
plane-surface $-1 -49.537644581438641 -12.380146984353971 0.52909460281085785 -0.57357644374324357 0 0.81915203911291934 0.81915203911291934 0 0.57357644374324357 forward_v I I I I #
loop $-1 $-1 $417 $106 #
coedge $-1 $270 $270 $271 $418 reversed $168 $-1 #
coedge $-1 $271 $271 $270 $418 forward $170 $-1 #
coedge $-1 $272 $272 $171 $273 forward $267 $-1 #
edge $-1 $419 0 $419 6.2831853071796004 $272 $420 forward 7 unknown #
face $-1 $421 $422 $59 $-1 $423 forward single #
loop $-1 $-1 $424 $172 #
plane-surface $-1 -106.36489660231531 0.84991413863174881 81.686819746283902 0 -1 0 0.57357644374324357 0 -0.81915203911291934 forward_v I I I I #
coedge $-1 $425 $426 $427 $428 reversed $173 $-1 #
coedge $-1 $279 $175 $429 $430 reversed $110 $-1 #
coedge $-1 $175 $278 $425 $431 reversed $110 $-1 #
coedge $-1 $427 $432 $175 $281 forward $422 $-1 #
edge $-1 $433 3.6448037197190146 $434 11.475147128075015 $280 $435 forward 7 unknown #
loop $-1 $-1 $287 $176 #
plane-surface $-1 -49.537644581438641 -2.2101577224929052 0.52909460281085785 -0.57357644374324357 0 0.81915203911291934 0.81915203911291934 0 0.57357644374324357 forward_v I I I I #
loop $-1 $-1 $436 $112 #
coedge $-1 $285 $285 $286 $437 reversed $177 $-1 #
coedge $-1 $286 $286 $285 $437 forward $179 $-1 #
coedge $-1 $287 $287 $180 $288 forward $282 $-1 #
edge $-1 $438 0 $438 6.2831853071796004 $287 $439 forward 7 unknown #
loop $-1 $-1 $294 $181 #
plane-surface $-1 -49.537644581438641 -2.2101577224929052 0.52909460281085785 -0.57357644374324357 0 0.81915203911291934 0.81915203911291934 0 0.57357644374324357 forward_v I I I I #
loop $-1 $-1 $440 $115 #
coedge $-1 $292 $292 $293 $441 reversed $182 $-1 #
coedge $-1 $293 $293 $292 $441 forward $184 $-1 #
coedge $-1 $294 $294 $185 $295 forward $289 $-1 #
edge $-1 $442 0 $442 6.2831853071796004 $294 $443 forward 7 unknown #
face $-1 $444 $445 $62 $-1 $446 forward single #
loop $-1 $-1 $447 $186 #
plane-surface $-1 -106.36489660231531 11.019903400492812 81.686819746283902 0 -1 0 0.57357644374324357 0 -0.81915203911291934 forward_v I I I I #
coedge $-1 $448 $449 $450 $451 reversed $187 $-1 #
coedge $-1 $301 $189 $452 $453 reversed $119 $-1 #
coedge $-1 $189 $300 $448 $454 reversed $119 $-1 #
coedge $-1 $450 $455 $189 $303 forward $445 $-1 #
edge $-1 $456 3.6448037197190146 $457 11.475147128075015 $302 $458 forward 7 unknown #
loop $-1 $-1 $309 $190 #
plane-surface $-1 -49.537644581438641 7.9598315393681567 0.52909460281085785 -0.57357644374324357 0 0.81915203911291934 0.81915203911291934 0 0.57357644374324357 forward_v I I I I #
loop $-1 $-1 $459 $121 #
coedge $-1 $307 $307 $308 $460 reversed $191 $-1 #
coedge $-1 $308 $308 $307 $460 forward $193 $-1 #
coedge $-1 $309 $309 $194 $310 forward $304 $-1 #
edge $-1 $461 0 $461 6.2831853071796004 $309 $462 forward 7 unknown #
loop $-1 $-1 $316 $195 #
plane-surface $-1 -49.537644581438641 7.9598315393681567 0.52909460281085785 -0.57357644374324357 0 0.81915203911291934 0.81915203911291934 0 0.57357644374324357 forward_v I I I I #
loop $-1 $-1 $463 $124 #
coedge $-1 $314 $314 $315 $464 reversed $196 $-1 #
coedge $-1 $315 $315 $314 $464 forward $198 $-1 #
coedge $-1 $316 $316 $199 $317 forward $311 $-1 #
edge $-1 $465 0 $465 6.2831853071796004 $316 $466 forward 7 unknown #
face $-1 $467 $468 $65 $-1 $469 forward single #
loop $-1 $-1 $470 $200 #
plane-surface $-1 -106.36489660231531 21.189892662353873 81.686819746283902 0 -1 0 0.57357644374324357 0 -0.81915203911291934 forward_v I I I I #
coedge $-1 $471 $472 $473 $474 reversed $201 $-1 #
coedge $-1 $323 $203 $475 $476 reversed $128 $-1 #
coedge $-1 $203 $322 $471 $477 reversed $128 $-1 #
coedge $-1 $473 $478 $203 $325 forward $468 $-1 #
edge $-1 $479 3.6448037197190146 $480 11.475147128075015 $324 $481 forward 7 unknown #
loop $-1 $-1 $331 $204 #
plane-surface $-1 -49.537644581438641 18.129820801229219 0.52909460281085785 -0.57357644374324357 0 0.81915203911291934 0.81915203911291934 0 0.57357644374324357 forward_v I I I I #
loop $-1 $-1 $482 $130 #
coedge $-1 $329 $329 $330 $483 reversed $205 $-1 #
coedge $-1 $330 $330 $329 $483 forward $207 $-1 #
coedge $-1 $331 $331 $208 $332 forward $326 $-1 #
edge $-1 $484 0 $484 6.2831853071796004 $331 $485 forward 7 unknown #
loop $-1 $-1 $338 $209 #
plane-surface $-1 -49.537644581438641 18.129820801229219 0.52909460281085785 -0.57357644374324357 0 0.81915203911291934 0.81915203911291934 0 0.57357644374324357 forward_v I I I I #
loop $-1 $-1 $486 $133 #
coedge $-1 $336 $336 $337 $487 reversed $210 $-1 #
coedge $-1 $337 $337 $336 $487 forward $212 $-1 #
coedge $-1 $338 $338 $213 $339 forward $333 $-1 #
edge $-1 $488 0 $488 6.2831853071796004 $338 $489 forward 7 unknown #
face $-1 $490 $491 $51 $-1 $492 reversed single #
loop $-1 $-1 $493 $214 #
plane-surface $-1 -49.537644581438641 0 0 1 0 0 0 0 -1 forward_v I I I I #
coedge $-1 $494 $351 $495 $496 forward $215 $-1 #
coedge $-1 $497 $217 $494 $498 forward $137 $-1 #
coedge $-1 $217 $497 $499 $500 forward $137 $-1 #
coedge $-1 $354 $353 $217 $347 reversed $355 $-1 #
edge $-1 $501 -23.245215057552603 $502 23.245215057552603 $346 $503 forward 7 unknown #
coedge $-1 $219 $218 $504 $505 forward $86 $-1 #
coedge $-1 $506 $507 $218 $350 reversed $491 $-1 #
edge $-1 $357 -49.537644581438641 $508 49.537644581438641 $349 $509 forward 7 unknown #
coedge $-1 $343 $510 $219 $352 reversed $215 $-1 #
edge $-1 $511 -49.537644581438641 $356 49.537644581438641 $351 $512 forward 7 unknown #
coedge $-1 $346 $220 $510 $513 forward $355 $-1 #
coedge $-1 $220 $346 $506 $514 reversed $355 $-1 #
loop $-1 $-1 $353 $490 #
vertex $-1 $221 $515 #
vertex $-1 $221 $516 #
straight-curve $-1 49.537644581438641 0 6.0119601894203099 0 1 0 I I #
face $-1 $517 $518 $52 $-1 $519 forward single #
loop $-1 $-1 $367 $222 #
plane-surface $-1 0 -23.245215057552603 0 0 1 0 0 0 1 forward_v I I I I #
coedge $-1 $520 $521 $363 $522 forward $223 $-1 #
coedge $-1 $523 $225 $362 $522 reversed $141 $-1 #
coedge $-1 $225 $523 $369 $524 reversed $141 $-1 #
edge $-1 $525 -49.537644581438641 $373 49.537644581438641 $225 $526 forward 7 unknown #
coedge $-1 $227 $226 $520 $527 reversed $89 $-1 #
coedge $-1 $528 $529 $226 $368 forward $360 $-1 #
edge $-1 $530 -49.537644581438641 $372 49.537644581438641 $367 $531 forward 7 unknown #
coedge $-1 $532 $228 $364 $524 forward $371 $-1 #
coedge $-1 $228 $532 $528 $533 forward $371 $-1 #
loop $-1 $-1 $369 $517 #
vertex $-1 $368 $534 #
vertex $-1 $229 $535 #
straight-curve $-1 49.537644581438641 -10.185189074557488 3.0119601894203099 0 1 0 I I #
face $-1 $-1 $536 $53 $-1 $537 reversed single #
loop $-1 $-1 $381 $230 #
plane-surface $-1 0 0 6.0119601894203099 0 0 1 1 0 0 forward_v I I I I #
coedge $-1 $538 $539 $380 $540 reversed $231 $-1 #
coedge $-1 $541 $233 $235 $385 forward $145 $-1 #
coedge $-1 $233 $541 $378 $540 forward $145 $-1 #
coedge $-1 $542 $236 $233 $382 forward $376 $-1 #
edge $-1 $388 0.87071190265574927 $543 11.373456859566318 $381 $544 forward 7 unknown #
coedge $-1 $545 $546 $234 $384 forward $536 $-1 #
edge $-1 $547 -68.853247282443718 $387 -65.248410158313149 $383 $548 forward 7 unknown #
edge $-1 $388 93.977279670935758 $547 99.075289162877311 $235 $549 forward 7 unknown #
coedge $-1 $236 $542 $545 $550 forward $376 $-1 #
vertex $-1 $384 $551 #
vertex $-1 $237 $552 #
straight-curve $-1 24.768823103557061 -6.9927962837667828 6.0119601894203072 -1 0 0 I I #
coedge $-1 $390 $390 $-1 $553 reversed $240 $-1 #
edge $-1 $554 0 $554 6.2831853071796004 $241 $555 forward 7 unknown #
vertex $-1 $244 $556 #
ellipse-curve $-1 47.735226061198659 -14.494756967274331 4.2095416273550157 0.70710678939079041 0 0.70710677298230451 0.70710677298230451 0 -0.70710678939079041 1 I I #
coedge $-1 $394 $394 $-1 $557 reversed $247 $-1 #
edge $-1 $558 0 $558 6.2831853071796004 $248 $559 forward 7 unknown #
vertex $-1 $251 $560 #
ellipse-curve $-1 47.735226061198659 -9.9935805571698015 4.2095416273550157 0.70710678939079041 0 0.70710677298230451 0.70710677298230451 0 -0.70710678939079041 1 I I #
face $-1 $-1 $561 $56 $-1 $562 reversed single #
loop $-1 $-1 $258 $252 #
plane-surface $-1 0 0 6.0119601894203099 0 0 1 1 0 0 forward_v I I I I #
coedge $-1 $563 $564 $565 $566 reversed $253 $-1 #
coedge $-1 $567 $255 $257 $408 forward $159 $-1 #
coedge $-1 $255 $567 $563 $568 forward $159 $-1 #
coedge $-1 $565 $258 $255 $405 forward $399 $-1 #
edge $-1 $411 -9.2501453533016402 $569 -3.1300016310523304 $404 $570 forward 7 unknown #
coedge $-1 $571 $572 $256 $407 forward $561 $-1 #
edge $-1 $573 -40.314315270331093 $410 -34.831449683721644 $406 $574 forward 7 unknown #
edge $-1 $411 -9.5590843145988877 $573 0 $257 $575 forward 7 unknown #
coedge $-1 $258 $565 $571 $576 forward $399 $-1 #
vertex $-1 $407 $577 #
vertex $-1 $259 $578 #
straight-curve $-1 -53.182448301157656 -15.440218845478626 6.0119601894203072 1 0 0 I I #
coedge $-1 $413 $413 $-1 $579 reversed $262 $-1 #
edge $-1 $580 0 $580 6.2831853071796004 $263 $581 forward 7 unknown #
vertex $-1 $266 $582 #
ellipse-curve $-1 -45.622472877260641 -13.691606353407392 3.2705273961155852 -0.57357644374324357 0 0.81915203911291934 0.40957601955645967 0 0.28678822187162178 1 I I #
coedge $-1 $417 $417 $-1 $583 reversed $269 $-1 #
edge $-1 $584 0 $584 6.2831853071796004 $270 $585 forward 7 unknown #
vertex $-1 $273 $586 #
ellipse-curve $-1 -45.622472877260641 -11.068687615300547 3.2705273961155852 -0.57357644374324357 0 0.81915203911291934 0.40957601955645967 0 0.28678822187162178 1 I I #
face $-1 $-1 $587 $59 $-1 $588 reversed single #
loop $-1 $-1 $280 $274 #
plane-surface $-1 0 0 6.0119601894203099 0 0 1 1 0 0 forward_v I I I I #
coedge $-1 $589 $590 $591 $592 reversed $275 $-1 #
coedge $-1 $593 $277 $279 $431 forward $173 $-1 #
coedge $-1 $277 $593 $589 $594 forward $173 $-1 #
coedge $-1 $591 $280 $277 $428 forward $422 $-1 #
edge $-1 $434 -4.1651507223711066 $595 1.9549929998782014 $427 $596 forward 7 unknown #
coedge $-1 $597 $598 $278 $430 forward $587 $-1 #
edge $-1 $599 -40.314315270331093 $433 -34.831449683721644 $429 $600 forward 7 unknown #
edge $-1 $434 -9.5590843145988877 $599 0 $279 $601 forward 7 unknown #
coedge $-1 $280 $591 $597 $602 forward $422 $-1 #
vertex $-1 $281 $603 #
vertex $-1 $281 $604 #
straight-curve $-1 -53.182448301157656 -5.2702295836175592 6.0119601894203072 1 0 0 I I #
coedge $-1 $436 $436 $-1 $605 reversed $284 $-1 #
edge $-1 $606 0 $606 6.2831853071796004 $285 $607 forward 7 unknown #
vertex $-1 $288 $608 #
ellipse-curve $-1 -45.622472877260641 -3.5216170915463287 3.2705273961155852 -0.57357644374324357 0 0.81915203911291934 0.40957601955645967 0 0.28678822187162178 1 I I #
coedge $-1 $440 $440 $-1 $609 reversed $291 $-1 #
edge $-1 $610 0 $610 6.2831853071796004 $292 $611 forward 7 unknown #
vertex $-1 $295 $612 #
ellipse-curve $-1 -45.622472877260641 -0.89869835343948168 3.2705273961155852 -0.57357644374324357 0 0.81915203911291934 0.40957601955645967 0 0.28678822187162178 1 I I #
face $-1 $-1 $613 $62 $-1 $614 reversed single #
loop $-1 $-1 $302 $296 #
plane-surface $-1 0 0 6.0119601894203099 0 0 1 1 0 0 forward_v I I I I #
coedge $-1 $615 $616 $617 $618 reversed $297 $-1 #
coedge $-1 $619 $299 $301 $454 forward $187 $-1 #
coedge $-1 $299 $619 $615 $620 forward $187 $-1 #
coedge $-1 $617 $302 $299 $451 forward $445 $-1 #
edge $-1 $457 0.91984390855942433 $621 7.0399876308087332 $450 $622 forward 7 unknown #
coedge $-1 $623 $624 $300 $453 forward $613 $-1 #
edge $-1 $625 -40.314315270331093 $456 -34.831449683721644 $452 $626 forward 7 unknown #
edge $-1 $457 -9.5590843145988877 $625 0 $301 $627 forward 7 unknown #
coedge $-1 $302 $617 $623 $628 forward $445 $-1 #
vertex $-1 $303 $629 #
vertex $-1 $303 $630 #
straight-curve $-1 -53.182448301157656 4.8997596782435027 6.0119601894203072 1 0 0 I I #
coedge $-1 $459 $459 $-1 $631 reversed $306 $-1 #
edge $-1 $632 0 $632 6.2831853071796004 $307 $633 forward 7 unknown #
vertex $-1 $310 $634 #
ellipse-curve $-1 -45.622472877260641 6.6483721703147332 3.2705273961155852 -0.57357644374324357 0 0.81915203911291934 0.40957601955645967 0 0.28678822187162178 1 I I #
coedge $-1 $463 $463 $-1 $635 reversed $313 $-1 #
edge $-1 $636 0 $636 6.2831853071796004 $314 $637 forward 7 unknown #
vertex $-1 $317 $638 #
ellipse-curve $-1 -45.622472877260641 9.2712909084215802 3.2705273961155852 -0.57357644374324357 0 0.81915203911291934 0.40957601955645967 0 0.28678822187162178 1 I I #
face $-1 $-1 $639 $65 $-1 $640 reversed single #
loop $-1 $-1 $324 $318 #
plane-surface $-1 0 0 6.0119601894203099 0 0 1 1 0 0 forward_v I I I I #
coedge $-1 $641 $642 $643 $644 reversed $319 $-1 #
coedge $-1 $645 $321 $323 $477 forward $201 $-1 #
coedge $-1 $321 $645 $641 $646 forward $201 $-1 #
coedge $-1 $643 $324 $321 $474 forward $468 $-1 #
edge $-1 $480 6.0048385394899544 $647 12.124982261739264 $473 $648 forward 7 unknown #
coedge $-1 $649 $650 $322 $476 forward $639 $-1 #
edge $-1 $651 -40.314315270331093 $479 -34.831449683721644 $475 $652 forward 7 unknown #
edge $-1 $480 -9.5590843145988877 $651 0 $323 $653 forward 7 unknown #
coedge $-1 $324 $643 $649 $654 forward $468 $-1 #
vertex $-1 $325 $655 #
vertex $-1 $325 $656 #
straight-curve $-1 -53.182448301157656 15.069748940104564 6.0119601894203072 1 0 0 I I #
coedge $-1 $482 $482 $-1 $657 reversed $328 $-1 #
edge $-1 $658 0 $658 6.2831853071796004 $329 $659 forward 7 unknown #
vertex $-1 $332 $660 #
ellipse-curve $-1 -45.622472877260641 16.818361432175795 3.2705273961155852 -0.57357644374324357 0 0.81915203911291934 0.40957601955645967 0 0.28678822187162178 1 I I #
coedge $-1 $486 $486 $-1 $661 reversed $335 $-1 #
edge $-1 $662 0 $662 6.2831853071796004 $336 $663 forward 7 unknown #
vertex $-1 $339 $664 #
ellipse-curve $-1 -45.622472877260641 19.441280170282642 3.2705273961155852 -0.57357644374324357 0 0.81915203911291934 0.40957601955645967 0 0.28678822187162178 1 I I #
face $-1 $-1 $355 $51 $-1 $665 reversed single #
loop $-1 $-1 $506 $340 #
plane-surface $-1 0 23.245215057552603 0 0 -1 0 0 0 -1 forward_v I I I I #
coedge $-1 $666 $504 $507 $667 forward $341 $-1 #
coedge $-1 $510 $343 $344 $498 reversed $215 $-1 #
coedge $-1 $504 $666 $343 $496 reversed $341 $-1 #
edge $-1 $511 -6.0119601894203099 $668 6.0119601894203099 $495 $669 forward 7 unknown #
coedge $-1 $345 $344 $666 $670 forward $137 $-1 #
edge $-1 $502 -49.537644581438641 $668 49.537644581438641 $494 $671 forward 7 unknown #
coedge $-1 $507 $506 $345 $500 reversed $491 $-1 #
edge $-1 $672 -49.537644581438641 $501 49.537644581438641 $499 $673 forward 7 unknown #
vertex $-1 $347 $674 #
vertex $-1 $513 $675 #
straight-curve $-1 49.537644581438641 0 -6.0119601894203099 0 -1 0 I I #
coedge $-1 $493 $495 $348 $505 reversed $341 $-1 #
edge $-1 $508 -23.245215057552603 $511 23.245215057552603 $504 $676 forward 7 unknown #
coedge $-1 $499 $349 $354 $514 forward $491 $-1 #
coedge $-1 $349 $499 $493 $667 reversed $491 $-1 #
vertex $-1 $350 $677 #
straight-curve $-1 0 23.245215057552603 6.0119601894203099 -1 0 0 I I #
coedge $-1 $351 $494 $353 $513 reversed $215 $-1 #
vertex $-1 $505 $678 #
straight-curve $-1 0 -23.245215057552603 6.0119601894203099 1 0 0 I I #
edge $-1 $356 -6.0119601894203099 $502 6.0119601894203099 $353 $679 forward 7 unknown #
edge $-1 $357 -6.0119601894203099 $501 6.0119601894203099 $354 $680 forward 7 unknown #
point $-1 49.537644581438641 -23.245215057552603 6.0119601894203099 #
point $-1 49.537644581438641 23.245215057552603 6.0119601894203099 #
face $-1 $-1 $371 $52 $-1 $681 reversed single #
loop $-1 $-1 $682 $359 #
plane-surface $-1 0 0 6.0119601894203099 0 0 1 1 0 0 forward_v I I I I #
coedge $-1 $683 $362 $366 $527 forward $223 $-1 #
coedge $-1 $362 $683 $684 $685 reversed $223 $-1 #
edge $-1 $686 -3.7559800947101549 $525 -0.75598009471015493 $362 $687 forward 7 unknown #
coedge $-1 $364 $363 $682 $688 reversed $141 $-1 #
edge $-1 $373 0.75598009471015493 $689 3.7559800947101549 $369 $690 forward 7 unknown #
vertex $-1 $527 $691 #
straight-curve $-1 0 -17.495541240677351 3.0119601894203099 1 0 0 I I #
edge $-1 $525 7.3103521661198627 $530 13.060025982995114 $520 $692 forward 7 unknown #
coedge $-1 $693 $367 $370 $533 reversed $360 $-1 #
coedge $-1 $367 $693 $683 $694 forward $360 $-1 #
vertex $-1 $368 $695 #
straight-curve $-1 0 -23.245215057552603 3.0119601894203099 1 0 0 I I #
coedge $-1 $370 $369 $696 $697 reversed $371 $-1 #
edge $-1 $698 -6.0119601894203099 $372 -3.0119601894203099 $370 $699 forward 7 unknown #
point $-1 49.537644581438641 -23.245215057552603 3.0119601894203099 #
point $-1 49.537644581438641 -17.495541240677351 3.0119601894203099 #
loop $-1 $-1 $383 $375 #
plane-surface $-1 49.537644581438641 0 0 -1 0 0 0 0 1 forward_v I I I I #
coedge $-1 $539 $378 $700 $701 reversed $231 $-1 #
coedge $-1 $378 $538 $542 $702 reversed $231 $-1 #
edge $-1 $703 -99.075289162877311 $543 -93.977279670935758 $378 $704 forward 7 unknown #
coedge $-1 $380 $379 $546 $705 reversed $145 $-1 #
coedge $-1 $386 $381 $539 $702 forward $376 $-1 #
vertex $-1 $702 $706 #
straight-curve $-1 45.932807540958692 -6.1220843811110335 6.0119601894203072 0 -1 0 I I #
coedge $-1 $700 $383 $386 $550 reversed $536 $-1 #
coedge $-1 $383 $700 $541 $705 forward $536 $-1 #
vertex $-1 $384 $707 #
straight-curve $-1 49.537644581438641 -6.9927962837667828 71.260370347733456 0 0 1 I I #
straight-curve $-1 -20.519163420812205 -6.9927962837667828 72.463932693216066 0.70710677298230451 0 -0.70710678939079041 I I #
edge $-1 $708 -17.495541240677351 $387 -6.9927962837667828 $545 $709 forward 7 unknown #
point $-1 49.537644581438641 -6.9927962837667828 6.0119601894203099 #
point $-1 45.932807540958692 -6.9927962837667828 6.0119601894203072 #
edge $-1 $710 1 $710 0 $390 $-1 forward 7 unknown #
vertex $-1 $391 $711 #
ellipse-curve $-1 45.733975952011576 -14.494756967274331 2.2082915646071437 0.70710678939079041 0 0.70710677298230451 0.70710677298230451 0 -0.70710678939079041 1 I I #
point $-1 48.442332834180981 -14.494756967274331 3.5024348379642385 #
edge $-1 $712 1 $712 0 $394 $-1 forward 7 unknown #
vertex $-1 $395 $713 #
ellipse-curve $-1 45.733975952011576 -9.9935805571698015 2.2082915646071437 0.70710678939079041 0 0.70710677298230451 0.70710677298230451 0 -0.70710678939079041 1 I I #
point $-1 48.442332834180981 -9.9935805571698015 3.5024348379642385 #
loop $-1 $-1 $406 $398 #
plane-surface $-1 -49.537644581438641 0 0 1 0 0 0 0 -1 forward_v I I I I #
coedge $-1 $564 $401 $403 $568 reversed $253 $-1 #
coedge $-1 $401 $563 $714 $715 reversed $253 $-1 #
coedge $-1 $409 $404 $401 $566 forward $399 $-1 #
edge $-1 $569 -11.475147128075015 $716 -3.6448037197190146 $565 $717 forward 7 unknown #
coedge $-1 $403 $402 $572 $718 reversed $159 $-1 #
edge $-1 $719 0 $569 9.5590843145988877 $563 $720 forward 7 unknown #
vertex $-1 $405 $721 #
straight-curve $-1 -41.707301173082641 -6.1900734921769853 6.0119601894203107 0 1 0 I I #
coedge $-1 $714 $406 $409 $576 reversed $561 $-1 #
coedge $-1 $406 $714 $567 $718 forward $561 $-1 #
vertex $-1 $407 $722 #
straight-curve $-1 -49.537644581438641 -15.440218845478626 40.843409873141951 0 0 1 I I #
straight-curve $-1 -49.537644581438641 -15.440218845478626 0.52909460281085785 -0.81915203911291934 0 -0.57357644374324357 I I #
edge $-1 $716 9.3200751232293157 $410 15.440218845478626 $571 $723 forward 7 unknown #
point $-1 -49.537644581438641 -15.440218845478626 6.0119601894203099 #
point $-1 -41.707301173082641 -15.440218845478626 6.0119601894203099 #
edge $-1 $724 1 $724 0 $413 $-1 forward 7 unknown #
vertex $-1 $414 $725 #
ellipse-curve $-1 -44.613222001670543 -13.691606353407392 1.8291677975226552 -0.57357644374324357 0 0.81915203911291934 0.40957601955645967 0 0.28678822187162178 1 I I #
point $-1 -45.212896857704173 -13.691606353407392 3.557315617987205 #
edge $-1 $726 1 $726 0 $417 $-1 forward 7 unknown #
vertex $-1 $418 $727 #
ellipse-curve $-1 -44.613222001670543 -11.068687615300547 1.8291677975226552 -0.57357644374324357 0 0.81915203911291934 0.40957601955645967 0 0.28678822187162178 1 I I #
point $-1 -45.212896857704173 -11.068687615300547 3.557315617987205 #
loop $-1 $-1 $429 $421 #
plane-surface $-1 -49.537644581438641 0 0 1 0 0 0 0 -1 forward_v I I I I #
coedge $-1 $590 $424 $426 $594 reversed $275 $-1 #
coedge $-1 $424 $589 $728 $729 reversed $275 $-1 #
coedge $-1 $432 $427 $424 $592 forward $422 $-1 #
edge $-1 $595 -11.475147128075015 $730 -3.6448037197190146 $591 $731 forward 7 unknown #
coedge $-1 $426 $425 $598 $732 reversed $173 $-1 #
edge $-1 $733 0 $595 9.5590843145988877 $589 $734 forward 7 unknown #
vertex $-1 $428 $735 #
straight-curve $-1 -41.707301173082641 -1.1050788612464526 6.0119601894203107 0 1 0 I I #
coedge $-1 $728 $429 $432 $602 reversed $587 $-1 #
coedge $-1 $429 $728 $593 $732 forward $587 $-1 #
vertex $-1 $430 $736 #
straight-curve $-1 -49.537644581438641 -5.2702295836175592 40.843409873141951 0 0 1 I I #
straight-curve $-1 -49.537644581438641 -5.2702295836175592 0.52909460281085785 -0.81915203911291934 0 -0.57357644374324357 I I #
edge $-1 $730 -0.84991413863174881 $433 5.2702295836175592 $597 $737 forward 7 unknown #
point $-1 -49.537644581438641 -5.2702295836175592 6.0119601894203099 #
point $-1 -41.707301173082641 -5.2702295836175592 6.0119601894203099 #
edge $-1 $738 1 $738 0 $436 $-1 forward 7 unknown #
vertex $-1 $437 $739 #
ellipse-curve $-1 -44.613222001670543 -3.5216170915463287 1.8291677975226552 -0.57357644374324357 0 0.81915203911291934 0.40957601955645967 0 0.28678822187162178 1 I I #
point $-1 -45.212896857704173 -3.5216170915463287 3.557315617987205 #
edge $-1 $740 1 $740 0 $440 $-1 forward 7 unknown #
vertex $-1 $441 $741 #
ellipse-curve $-1 -44.613222001670543 -0.89869835343948168 1.8291677975226552 -0.57357644374324357 0 0.81915203911291934 0.40957601955645967 0 0.28678822187162178 1 I I #
point $-1 -45.212896857704173 -0.89869835343948168 3.557315617987205 #
loop $-1 $-1 $452 $444 #
plane-surface $-1 -49.537644581438641 0 0 1 0 0 0 0 -1 forward_v I I I I #
coedge $-1 $616 $447 $449 $620 reversed $297 $-1 #
coedge $-1 $447 $615 $742 $743 reversed $297 $-1 #
coedge $-1 $455 $450 $447 $618 forward $445 $-1 #
edge $-1 $621 -11.475147128075015 $744 -3.6448037197190146 $617 $745 forward 7 unknown #
coedge $-1 $449 $448 $624 $746 reversed $187 $-1 #
edge $-1 $747 0 $621 9.5590843145988877 $615 $748 forward 7 unknown #
vertex $-1 $451 $749 #
straight-curve $-1 -41.707301173082641 3.9799157696840783 6.0119601894203107 0 1 0 I I #
coedge $-1 $742 $452 $455 $628 reversed $613 $-1 #
coedge $-1 $452 $742 $619 $746 forward $613 $-1 #
vertex $-1 $453 $750 #
straight-curve $-1 -49.537644581438641 4.8997596782435027 40.843409873141951 0 0 1 I I #
straight-curve $-1 -49.537644581438641 4.8997596782435027 0.52909460281085785 -0.81915203911291934 0 -0.57357644374324357 I I #
edge $-1 $744 -11.019903400492812 $456 -4.8997596782435027 $623 $751 forward 7 unknown #
point $-1 -49.537644581438641 4.8997596782435027 6.0119601894203099 #
point $-1 -41.707301173082641 4.8997596782435027 6.0119601894203099 #
edge $-1 $752 1 $752 0 $459 $-1 forward 7 unknown #
vertex $-1 $460 $753 #
ellipse-curve $-1 -44.613222001670543 6.6483721703147332 1.8291677975226552 -0.57357644374324357 0 0.81915203911291934 0.40957601955645967 0 0.28678822187162178 1 I I #
point $-1 -45.212896857704173 6.6483721703147332 3.557315617987205 #
edge $-1 $754 1 $754 0 $463 $-1 forward 7 unknown #
vertex $-1 $464 $755 #
ellipse-curve $-1 -44.613222001670543 9.2712909084215802 1.8291677975226552 -0.57357644374324357 0 0.81915203911291934 0.40957601955645967 0 0.28678822187162178 1 I I #
point $-1 -45.212896857704173 9.2712909084215802 3.557315617987205 #
loop $-1 $-1 $475 $467 #
plane-surface $-1 -49.537644581438641 0 0 1 0 0 0 0 -1 forward_v I I I I #
coedge $-1 $642 $470 $472 $646 reversed $319 $-1 #
coedge $-1 $470 $641 $756 $757 reversed $319 $-1 #
coedge $-1 $478 $473 $470 $644 forward $468 $-1 #
edge $-1 $647 -11.475147128075015 $758 -3.6448037197190146 $643 $759 forward 7 unknown #
coedge $-1 $472 $471 $650 $760 reversed $201 $-1 #
edge $-1 $761 0 $647 9.5590843145988877 $641 $762 forward 7 unknown #
vertex $-1 $474 $763 #
straight-curve $-1 -41.707301173082641 9.0649104006146093 6.0119601894203107 0 1 0 I I #
coedge $-1 $756 $475 $478 $654 reversed $639 $-1 #
coedge $-1 $475 $756 $645 $760 forward $639 $-1 #
vertex $-1 $476 $764 #
straight-curve $-1 -49.537644581438641 15.069748940104564 40.843409873141951 0 0 1 I I #
straight-curve $-1 -49.537644581438641 15.069748940104564 0.52909460281085785 -0.81915203911291934 0 -0.57357644374324357 I I #
edge $-1 $758 -21.189892662353873 $479 -15.069748940104564 $649 $765 forward 7 unknown #
point $-1 -49.537644581438641 15.069748940104564 6.0119601894203099 #
point $-1 -41.707301173082641 15.069748940104564 6.0119601894203099 #
edge $-1 $766 1 $766 0 $482 $-1 forward 7 unknown #
vertex $-1 $483 $767 #
ellipse-curve $-1 -44.613222001670543 16.818361432175795 1.8291677975226552 -0.57357644374324357 0 0.81915203911291934 0.40957601955645967 0 0.28678822187162178 1 I I #
point $-1 -45.212896857704173 16.818361432175795 3.557315617987205 #
edge $-1 $768 1 $768 0 $486 $-1 forward 7 unknown #
vertex $-1 $487 $769 #
ellipse-curve $-1 -44.613222001670543 19.441280170282642 1.8291677975226552 -0.57357644374324357 0 0.81915203911291934 0.40957601955645967 0 0.28678822187162178 1 I I #
point $-1 -45.212896857704173 19.441280170282642 3.557315617987205 #
plane-surface $-1 49.537644581438641 0 0 -1 0 0 0 0 1 forward_v I I I I #
coedge $-1 $495 $493 $497 $670 reversed $341 $-1 #
edge $-1 $508 -6.0119601894203099 $672 6.0119601894203099 $507 $770 forward 7 unknown #
vertex $-1 $670 $771 #
straight-curve $-1 -49.537644581438641 -23.245215057552603 0 0 0 -1 I I #
edge $-1 $668 -23.245215057552603 $672 23.245215057552603 $666 $772 forward 7 unknown #
straight-curve $-1 0 -23.245215057552603 -6.0119601894203099 -1 0 0 I I #
vertex $-1 $500 $773 #
straight-curve $-1 0 23.245215057552603 -6.0119601894203099 1 0 0 I I #
point $-1 49.537644581438641 23.245215057552603 -6.0119601894203099 #
point $-1 49.537644581438641 -23.245215057552603 -6.0119601894203099 #
straight-curve $-1 -49.537644581438641 0 6.0119601894203099 0 -1 0 I I #
point $-1 -49.537644581438641 23.245215057552603 6.0119601894203099 #
point $-1 -49.537644581438641 -23.245215057552603 6.0119601894203099 #
straight-curve $-1 49.537644581438641 -23.245215057552603 0 0 0 -1 I I #
straight-curve $-1 49.537644581438641 23.245215057552603 0 0 0 -1 I I #
plane-surface $-1 49.537644581438641 0 0 -1 0 0 0 0 1 forward_v I I I I #
coedge $-1 $684 $696 $523 $688 forward $518 $-1 #
coedge $-1 $521 $520 $529 $694 reversed $223 $-1 #
coedge $-1 $774 $682 $521 $685 forward $518 $-1 #
edge $-1 $686 17.495541240677351 $775 23.245215057552603 $521 $776 forward 7 unknown #
vertex $-1 $685 $777 #
straight-curve $-1 -49.537644581438641 -17.495541240677351 2.2559800947101549 0 0 -1 I I #
edge $-1 $689 -49.537644581438641 $686 49.537644581438641 $682 $778 forward 7 unknown #
vertex $-1 $524 $779 #
straight-curve $-1 49.537644581438641 -17.495541240677351 2.2559800947101549 0 0 1 I I #
point $-1 -49.537644581438641 -17.495541240677351 3.0119601894203099 #
straight-curve $-1 -49.537644581438641 -10.185189074557488 3.0119601894203099 0 -1 0 I I #
coedge $-1 $529 $528 $774 $780 reversed $360 $-1 #
edge $-1 $775 -6.0119601894203099 $530 -3.0119601894203099 $683 $781 forward 7 unknown #
point $-1 -49.537644581438641 -23.245215057552603 3.0119601894203099 #
coedge $-1 $682 $774 $532 $697 forward $518 $-1 #
edge $-1 $698 -23.245215057552603 $689 -17.495541240677351 $532 $782 forward 7 unknown #
vertex $-1 $697 $783 #
straight-curve $-1 49.537644581438641 -23.245215057552603 0 0 0 -1 I I #
coedge $-1 $546 $545 $538 $701 forward $536 $-1 #
edge $-1 $708 65.248410158313149 $703 68.853247282443718 $700 $784 forward 7 unknown #
edge $-1 $543 45.932807540958692 $708 49.537644581438641 $542 $785 forward 7 unknown #
vertex $-1 $701 $786 #
straight-curve $-1 -20.519163420812205 -17.495541240677351 72.463932693216066 -0.70710677298230451 0 0.70710678939079041 I I #
edge $-1 $703 -11.373456859566318 $547 -0.87071190265574927 $546 $787 forward 7 unknown #
point $-1 45.932807540958692 -17.495541240677351 6.0119601894203099 #
point $-1 49.537644581438641 -6.9927962837667828 2.4071230652897384 #
vertex $-1 $550 $788 #
straight-curve $-1 49.537644581438641 0 6.0119601894203099 0 1 0 I I #
vertex $-1 $553 $789 #
point $-1 46.441082724993876 -14.494756967274331 1.5011847752163534 #
vertex $-1 $557 $790 #
point $-1 46.441082724993876 -9.9935805571698015 1.5011847752163534 #
coedge $-1 $572 $571 $564 $715 forward $561 $-1 #
edge $-1 $716 34.831449683721644 $719 40.314315270331093 $714 $791 forward 7 unknown #
vertex $-1 $576 $792 #
straight-curve $-1 -53.182448301157656 -9.3200751232293157 6.0119601894203072 -1 0 0 I I #
edge $-1 $719 3.1300016310523304 $573 9.2501453533016402 $572 $793 forward 7 unknown #
vertex $-1 $718 $794 #
straight-curve $-1 -49.537644581438641 -9.3200751232293157 0.52909460281085785 0.81915203911291934 0 0.57357644374324357 I I #
point $-1 -41.707301173082641 -9.3200751232293157 6.0119601894203099 #
point $-1 -49.537644581438641 -15.440218845478626 0.52909460281085785 #
straight-curve $-1 -49.537644581438641 0 6.0119601894203099 0 -1 0 I I #
vertex $-1 $579 $795 #
point $-1 -44.203645982114082 -13.691606353407392 2.115956019394277 #
vertex $-1 $583 $796 #
point $-1 -44.203645982114082 -11.068687615300547 2.115956019394277 #
coedge $-1 $598 $597 $590 $729 forward $587 $-1 #
edge $-1 $730 34.831449683721644 $733 40.314315270331093 $728 $797 forward 7 unknown #
vertex $-1 $602 $798 #
straight-curve $-1 -53.182448301157656 0.84991413863174881 6.0119601894203072 -1 0 0 I I #
edge $-1 $733 -1.9549929998782014 $599 4.1651507223711066 $598 $799 forward 7 unknown #
vertex $-1 $732 $800 #
straight-curve $-1 -49.537644581438641 0.84991413863174881 0.52909460281085785 0.81915203911291934 0 0.57357644374324357 I I #
point $-1 -41.707301173082641 0.84991413863174881 6.0119601894203099 #
point $-1 -49.537644581438641 -5.2702295836175592 0.52909460281085785 #
straight-curve $-1 -49.537644581438641 0 6.0119601894203099 0 -1 0 I I #
vertex $-1 $605 $801 #
point $-1 -44.203645982114082 -3.5216170915463287 2.115956019394277 #
vertex $-1 $609 $802 #
point $-1 -44.203645982114082 -0.89869835343948168 2.115956019394277 #
coedge $-1 $624 $623 $616 $743 forward $613 $-1 #
edge $-1 $744 34.831449683721644 $747 40.314315270331093 $742 $803 forward 7 unknown #
vertex $-1 $628 $804 #
straight-curve $-1 -53.182448301157656 11.019903400492812 6.0119601894203072 -1 0 0 I I #
edge $-1 $747 -7.0399876308087332 $625 -0.91984390855942433 $624 $805 forward 7 unknown #
vertex $-1 $746 $806 #
straight-curve $-1 -49.537644581438641 11.019903400492812 0.52909460281085785 0.81915203911291934 0 0.57357644374324357 I I #
point $-1 -41.707301173082641 11.019903400492812 6.0119601894203099 #
point $-1 -49.537644581438641 4.8997596782435027 0.52909460281085785 #
straight-curve $-1 -49.537644581438641 0 6.0119601894203099 0 -1 0 I I #
vertex $-1 $631 $807 #
point $-1 -44.203645982114082 6.6483721703147332 2.115956019394277 #
vertex $-1 $635 $808 #
point $-1 -44.203645982114082 9.2712909084215802 2.115956019394277 #
coedge $-1 $650 $649 $642 $757 forward $639 $-1 #
edge $-1 $758 34.831449683721644 $761 40.314315270331093 $756 $809 forward 7 unknown #
vertex $-1 $654 $810 #
straight-curve $-1 -53.182448301157656 21.189892662353873 6.0119601894203072 -1 0 0 I I #
edge $-1 $761 -12.124982261739264 $651 -6.0048385394899544 $650 $811 forward 7 unknown #
vertex $-1 $760 $812 #
straight-curve $-1 -49.537644581438641 21.189892662353873 0.52909460281085785 0.81915203911291934 0 0.57357644374324357 I I #
point $-1 -41.707301173082641 21.189892662353873 6.0119601894203099 #
point $-1 -49.537644581438641 15.069748940104564 0.52909460281085785 #
straight-curve $-1 -49.537644581438641 0 6.0119601894203099 0 -1 0 I I #
vertex $-1 $657 $813 #
point $-1 -44.203645982114082 16.818361432175795 2.115956019394277 #
vertex $-1 $661 $814 #
point $-1 -44.203645982114082 19.441280170282642 2.115956019394277 #
straight-curve $-1 -49.537644581438641 23.245215057552603 0 0 0 -1 I I #
point $-1 -49.537644581438641 -23.245215057552603 -6.0119601894203099 #
straight-curve $-1 -49.537644581438641 0 -6.0119601894203099 0 1 0 I I #
point $-1 -49.537644581438641 23.245215057552603 -6.0119601894203099 #
coedge $-1 $696 $684 $693 $780 forward $518 $-1 #
vertex $-1 $685 $815 #
straight-curve $-1 -49.537644581438641 0 6.0119601894203099 0 -1 0 I I #
point $-1 -49.537644581438641 -17.495541240677351 6.0119601894203099 #
straight-curve $-1 0 -17.495541240677351 6.0119601894203099 -1 0 0 I I #
point $-1 49.537644581438641 -17.495541240677351 6.0119601894203099 #
edge $-1 $775 -49.537644581438641 $698 49.537644581438641 $693 $816 forward 7 unknown #
straight-curve $-1 -49.537644581438641 -23.245215057552603 0 0 0 -1 I I #
straight-curve $-1 49.537644581438641 0 6.0119601894203099 0 1 0 I I #
point $-1 49.537644581438641 -23.245215057552603 6.0119601894203099 #
straight-curve $-1 49.537644581438641 -17.495541240677351 71.260370347733456 0 0 -1 I I #
straight-curve $-1 0 -17.495541240677351 6.0119601894203099 1 0 0 I I #
point $-1 49.537644581438641 -17.495541240677351 2.4071230652897384 #
straight-curve $-1 49.537644581438649 -6.1220843811110335 2.4071230652897313 0 1 0 I I #
point $-1 49.537644581438641 -17.495541240677351 6.0119601894203099 #
point $-1 45.026869162620784 -14.494756967274331 1.5011847916248393 #
point $-1 45.026869162620784 -9.9935805571698015 1.5011847916248393 #
straight-curve $-1 -49.537644581438641 -9.3200751232293157 40.843409873141951 0 0 -1 I I #
point $-1 -49.537644581438641 -9.3200751232293157 6.0119601894203099 #
straight-curve $-1 -49.537644581438641 -6.1900734921769853 0.52909460281085985 0 -1 0 I I #
point $-1 -49.537644581438641 -9.3200751232293157 0.52909460281085785 #
point $-1 -44.326433779798926 -13.691606353407392 1.4195917779661957 #
point $-1 -44.326433779798926 -11.068687615300547 1.4195917779661957 #
straight-curve $-1 -49.537644581438641 0.84991413863174881 40.843409873141951 0 0 -1 I I #
point $-1 -49.537644581438641 0.84991413863174881 6.0119601894203099 #
straight-curve $-1 -49.537644581438641 -1.1050788612464526 0.52909460281085985 0 -1 0 I I #
point $-1 -49.537644581438641 0.84991413863174881 0.52909460281085785 #
point $-1 -44.326433779798926 -3.5216170915463287 1.4195917779661957 #
point $-1 -44.326433779798926 -0.89869835343948168 1.4195917779661957 #
straight-curve $-1 -49.537644581438641 11.019903400492812 40.843409873141951 0 0 -1 I I #
point $-1 -49.537644581438641 11.019903400492812 6.0119601894203099 #
straight-curve $-1 -49.537644581438641 3.9799157696840783 0.52909460281085985 0 -1 0 I I #
point $-1 -49.537644581438641 11.019903400492812 0.52909460281085785 #
point $-1 -44.326433779798926 6.6483721703147332 1.4195917779661957 #
point $-1 -44.326433779798926 9.2712909084215802 1.4195917779661957 #
straight-curve $-1 -49.537644581438641 21.189892662353873 40.843409873141951 0 0 -1 I I #
point $-1 -49.537644581438641 21.189892662353873 6.0119601894203099 #
straight-curve $-1 -49.537644581438641 9.0649104006146093 0.52909460281085985 0 -1 0 I I #
point $-1 -49.537644581438641 21.189892662353873 0.52909460281085785 #
point $-1 -44.326433779798926 16.818361432175795 1.4195917779661957 #
point $-1 -44.326433779798926 19.441280170282642 1.4195917779661957 #
point $-1 -49.537644581438641 -23.245215057552603 6.0119601894203099 #
straight-curve $-1 0 -23.245215057552603 6.0119601894203099 1 0 0 I I #
End-of-ACIS-data 