500 0 6 0           
7 Unknown 11 ACIS 5.0 NT 24 Fri Mar 26 17:45:05 1999 
-1 9.9999999999999995e-007 1e-010 
body $-1 $6 $-1 $7 #
body $-1 $8 $-1 $9 #
body $-1 $10 $-1 $11 #
body $-1 $12 $-1 $13 #
body $-1 $14 $-1 $15 #
body $-1 $16 $-1 $17 #
lump $-1 $-1 $18 $0 #
transform $-1 1 0 0 0 1 0 0 0 1 42.95297097689749 28.745338888637786 5.7561736233953926 1 rotate no_reflect no_shear #
lump $-1 $-1 $19 $1 #
transform $-1 1 0 0 0 1 0 0 0 1 42.95297097689749 28.745338888637786 5.7561736233953926 1 rotate no_reflect no_shear #
lump $-1 $-1 $20 $2 #
transform $-1 1 0 0 0 1 0 0 0 1 42.95297097689749 28.745338888637786 5.7561736233953926 1 rotate no_reflect no_shear #
lump $-1 $-1 $21 $3 #
transform $-1 1 0 0 0 1 0 0 0 1 42.95297097689749 28.745338888637786 5.7561736233953926 1 rotate no_reflect no_shear #
lump $-1 $-1 $22 $4 #
transform $-1 1 0 0 0 1 0 0 0 1 42.95297097689749 28.745338888637786 5.7561736233953926 1 rotate no_reflect no_shear #
lump $-1 $-1 $23 $5 #
transform $-1 1 0 0 0 1 0 0 0 1 42.95297097689749 28.745338888637786 5.7561736233953926 1 rotate no_reflect no_shear #
shell $-1 $-1 $-1 $24 $-1 $6 #
shell $-1 $-1 $-1 $25 $-1 $8 #
shell $-1 $-1 $-1 $26 $-1 $10 #
shell $-1 $-1 $-1 $27 $-1 $12 #
shell $-1 $-1 $-1 $28 $-1 $14 #
shell $-1 $-1 $-1 $29 $-1 $16 #
face $-1 $30 $31 $18 $-1 $32 forward single #
face $-1 $33 $34 $19 $-1 $35 forward single #
face $-1 $36 $37 $20 $-1 $38 reversed single #
face $-1 $39 $40 $21 $-1 $41 forward single #
face $-1 $42 $43 $22 $-1 $44 forward single #
face $-1 $45 $46 $23 $-1 $47 forward single #
face $-1 $48 $49 $18 $-1 $50 reversed single #
loop $-1 $-1 $51 $24 #
plane-surface $-1 0 0 5.7561736233953926 0 0 1 1 0 0 forward_v I I I I #
face $-1 $52 $53 $19 $-1 $54 reversed single #
loop $-1 $-1 $55 $25 #
plane-surface $-1 -42.95297097689749 0 0 1 0 0 0 0 -1 forward_v I I I I #
face $-1 $56 $57 $20 $-1 $58 reversed single #
loop $-1 $-1 $59 $26 #
plane-surface $-1 -8.7465145313865662 -25.662101277373502 69.224262601948922 0.79863551827123203 0 0.60181501223851219 0.60181501223851219 0 -0.79863551827123203 forward_v I I I I #
face $-1 $60 $61 $21 $-1 $62 forward single #
loop $-1 $63 $64 $27 #
cone-surface $-1 40.612224942510572 -27.512043844132073 2.8817726455883679 -0.79863551827123203 0 -0.60181501223851219 0.3009075061192561 0 -0.39931775913561601 1 I I 0 1 0.5 forward I I I I #
face $-1 $65 $66 $22 $-1 $67 forward single #
loop $-1 $68 $69 $28 #
cone-surface $-1 40.612224942510572 -25.662101277373502 2.8817726455883679 -0.79863551827123203 0 -0.60181501223851219 0.3009075061192561 0 -0.39931775913561601 1 I I 0 1 0.5 forward I I I I #
face $-1 $70 $71 $23 $-1 $72 forward single #
loop $-1 $73 $74 $29 #
cone-surface $-1 40.612224942510572 -23.812158710614931 2.8817726455883679 -0.79863551827123203 0 -0.60181501223851219 0.3009075061192561 0 -0.39931775913561601 1 I I 0 1 0.5 forward I I I I #
face $-1 $75 $76 $18 $-1 $77 reversed single #
loop $-1 $-1 $78 $30 #
plane-surface $-1 0 0 -5.7561736233953926 0 0 1 1 0 0 forward_v I I I I #
coedge $-1 $79 $80 $81 $82 forward $31 $-1 #
face $-1 $83 $84 $19 $-1 $85 forward single #
loop $-1 $-1 $86 $33 #
plane-surface $-1 0 28.745338888637786 0 0 -1 0 0 0 -1 forward_v I I I I #
coedge $-1 $87 $88 $89 $90 forward $34 $-1 #
face $-1 $91 $92 $20 $-1 $93 forward single #
loop $-1 $-1 $94 $36 #
plane-surface $-1 59.861021943460855 -22.578863666109218 120.92374811023296 0 -1 0 -0.79863551827123203 0 -0.60181501223851219 forward_v I I I I #
coedge $-1 $95 $96 $97 $98 reversed $37 $-1 #
face $-1 $-1 $99 $21 $-1 $100 forward single #
loop $-1 $101 $102 $39 #
cone-surface $-1 40.008245711561131 -27.512043844132073 2.4266416628686667 -0.79863551827123203 0 -0.60181501223851219 0.15045375305962805 0 -0.19965887956780801 1 I I -0.70710678118654746 0.70710678118654746 0.25 forward I I I I #
loop $-1 $-1 $103 $27 #
coedge $-1 $64 $64 $104 $105 reversed $40 $-1 #
face $-1 $-1 $106 $22 $-1 $107 forward single #
loop $-1 $108 $109 $42 #
cone-surface $-1 40.008245711561131 -25.662101277373502 2.4266416628686667 -0.79863551827123203 0 -0.60181501223851219 0.15045375305962805 0 -0.19965887956780801 1 I I -0.70710678118654746 0.70710678118654746 0.25 forward I I I I #
loop $-1 $-1 $110 $28 #
coedge $-1 $69 $69 $111 $112 reversed $43 $-1 #
face $-1 $-1 $113 $23 $-1 $114 forward single #
loop $-1 $115 $116 $45 #
cone-surface $-1 40.008245711561131 -23.812158710614931 2.4266416628686667 -0.79863551827123203 0 -0.60181501223851219 0.15045375305962805 0 -0.19965887956780801 1 I I -0.70710678118654746 0.70710678118654746 0.25 forward I I I I #
loop $-1 $-1 $117 $29 #
coedge $-1 $74 $74 $118 $119 reversed $46 $-1 #
face $-1 $120 $121 $18 $-1 $122 reversed single #
loop $-1 $-1 $123 $48 #
plane-surface $-1 0 -28.745338888637786 0 0 1 0 0 0 1 forward_v I I I I #
coedge $-1 $124 $125 $126 $127 forward $49 $-1 #
coedge $-1 $128 $51 $129 $130 forward $31 $-1 #
coedge $-1 $51 $128 $131 $132 forward $31 $-1 #
coedge $-1 $133 $134 $51 $82 reversed $135 $-1 #
edge $-1 $136 -28.745338888637786 $137 28.745338888637786 $81 $138 forward 7 unknown #
face $-1 $139 $140 $19 $-1 $141 reversed single #
loop $-1 $-1 $89 $52 #
plane-surface $-1 -45.331812888878744 0 3.8845077138115802 0 0 1 1 0 0 forward_v I I I I #
coedge $-1 $142 $143 $88 $144 forward $53 $-1 #
coedge $-1 $145 $55 $146 $147 reversed $34 $-1 #
coedge $-1 $55 $145 $86 $144 reversed $34 $-1 #
coedge $-1 $148 $149 $55 $90 reversed $84 $-1 #
edge $-1 $150 -28.745338888637786 $151 28.745338888637786 $89 $152 forward 7 unknown #
face $-1 $153 $154 $20 $-1 $155 reversed single #
loop $-1 $-1 $156 $56 #
plane-surface $-1 0 0 5.7561736233953926 0 0 1 1 0 0 forward_v I I I I #
coedge $-1 $157 $158 $159 $160 reversed $57 $-1 #
coedge $-1 $161 $59 $162 $163 reversed $37 $-1 #
coedge $-1 $59 $161 $157 $164 forward $37 $-1 #
coedge $-1 $159 $165 $59 $98 forward $166 $-1 #
edge $-1 $167 -15.914288249951035 $168 -9.7478130274224668 $97 $169 forward 7 unknown #
loop $-1 $-1 $104 $60 #
plane-surface $-1 -8.7465145313865662 -25.662101277373502 69.224262601948922 0.79863551827123203 0 0.60181501223851219 0.60181501223851219 0 -0.79863551827123203 forward_v I I I I #
loop $-1 $-1 $170 $39 #
coedge $-1 $102 $102 $103 $171 reversed $61 $-1 #
coedge $-1 $103 $103 $102 $171 forward $63 $-1 #
coedge $-1 $104 $104 $64 $105 forward $99 $-1 #
edge $-1 $172 0 $172 6.2831853071796004 $104 $173 forward 7 unknown #
loop $-1 $-1 $111 $65 #
plane-surface $-1 -8.7465145313865662 -25.662101277373502 69.224262601948922 0.79863551827123203 0 0.60181501223851219 0.60181501223851219 0 -0.79863551827123203 forward_v I I I I #
loop $-1 $-1 $174 $42 #
coedge $-1 $109 $109 $110 $175 reversed $66 $-1 #
coedge $-1 $110 $110 $109 $175 forward $68 $-1 #
coedge $-1 $111 $111 $69 $112 forward $106 $-1 #
edge $-1 $176 0 $176 6.2831853071796004 $111 $177 forward 7 unknown #
loop $-1 $-1 $118 $70 #
plane-surface $-1 -8.7465145313865662 -25.662101277373502 69.224262601948922 0.79863551827123203 0 0.60181501223851219 0.60181501223851219 0 -0.79863551827123203 forward_v I I I I #
loop $-1 $-1 $178 $45 #
coedge $-1 $116 $116 $117 $179 reversed $71 $-1 #
coedge $-1 $117 $117 $116 $179 forward $73 $-1 #
coedge $-1 $118 $118 $74 $119 forward $113 $-1 #
edge $-1 $180 0 $180 6.2831853071796004 $118 $181 forward 7 unknown #
face $-1 $182 $183 $18 $-1 $184 reversed single #
loop $-1 $-1 $185 $75 #
plane-surface $-1 -42.95297097689749 0 0 1 0 0 0 0 -1 forward_v I I I I #
coedge $-1 $186 $131 $185 $187 forward $76 $-1 #
coedge $-1 $188 $78 $186 $189 forward $49 $-1 #
coedge $-1 $78 $188 $190 $191 forward $49 $-1 #
coedge $-1 $134 $133 $78 $127 reversed $135 $-1 #
edge $-1 $192 -28.745338888637786 $193 28.745338888637786 $126 $194 forward 7 unknown #
coedge $-1 $80 $79 $195 $196 forward $31 $-1 #
coedge $-1 $197 $198 $79 $130 reversed $183 $-1 #
edge $-1 $137 -42.95297097689749 $199 42.95297097689749 $129 $200 forward 7 unknown #
coedge $-1 $123 $201 $80 $132 reversed $76 $-1 #
edge $-1 $202 -42.95297097689749 $136 42.95297097689749 $131 $203 forward 7 unknown #
coedge $-1 $126 $81 $201 $204 forward $135 $-1 #
coedge $-1 $81 $126 $197 $205 reversed $135 $-1 #
loop $-1 $-1 $133 $182 #
vertex $-1 $82 $206 #
vertex $-1 $82 $207 #
straight-curve $-1 42.95297097689749 0 5.7561736233953926 0 1 0 I I #
face $-1 $208 $209 $19 $-1 $210 reversed single #
loop $-1 $-1 $211 $83 #
plane-surface $-1 -45.331812888878744 0 0.8664647411666162 0 0 1 1 0 0 forward_v I I I I #
coedge $-1 $212 $86 $213 $214 reversed $53 $-1 #
coedge $-1 $86 $212 $148 $215 reversed $53 $-1 #
edge $-1 $150 -3.8845077138115802 $216 -0.8664647411666162 $86 $217 forward 7 unknown #
coedge $-1 $88 $87 $211 $218 forward $34 $-1 #
coedge $-1 $219 $220 $87 $147 forward $221 $-1 #
edge $-1 $222 0.8664647411666162 $151 3.8845077138115802 $146 $223 forward 7 unknown #
coedge $-1 $224 $89 $143 $215 forward $84 $-1 #
coedge $-1 $89 $224 $219 $225 forward $84 $-1 #
vertex $-1 $144 $226 #
vertex $-1 $225 $227 #
straight-curve $-1 -42.95297097689749 0 3.8845077138115802 0 -1 0 I I #
face $-1 $-1 $166 $20 $-1 $228 reversed single #
loop $-1 $-1 $162 $91 #
plane-surface $-1 0 -28.745338888637786 0 0 1 0 0 0 1 forward_v I I I I #
coedge $-1 $229 $230 $158 $231 forward $92 $-1 #
coedge $-1 $158 $94 $96 $164 reversed $57 $-1 #
coedge $-1 $94 $157 $156 $231 reversed $57 $-1 #
coedge $-1 $232 $97 $94 $160 forward $166 $-1 #
edge $-1 $168 -59.845147928014995 $233 -54.705700431721091 $159 $234 forward 7 unknown #
coedge $-1 $96 $95 $229 $235 reversed $37 $-1 #
coedge $-1 $236 $237 $95 $163 forward $154 $-1 #
edge $-1 $238 49.196287251829887 $167 55.631572658893958 $162 $239 forward 7 unknown #
edge $-1 $240 79.470656546730922 $168 85.905941953794979 $157 $241 forward 7 unknown #
coedge $-1 $97 $232 $236 $242 forward $166 $-1 #
loop $-1 $-1 $159 $153 #
vertex $-1 $163 $243 #
vertex $-1 $98 $244 #
straight-curve $-1 42.95297097689749 -12.831050638686751 0.61672612710147234 0 1 0 I I #
coedge $-1 $170 $170 $-1 $245 reversed $101 $-1 #
edge $-1 $246 0 $246 6.2831853071796004 $102 $247 forward 7 unknown #
vertex $-1 $105 $248 #
ellipse-curve $-1 41.0165452938922 -27.512043844132073 3.1864498752484369 0.79863551827123203 0 0.60181501223851219 0.3009075061192561 0 -0.39931775913561601 1 I I #
coedge $-1 $174 $174 $-1 $249 reversed $108 $-1 #
edge $-1 $250 0 $250 6.2831853071796004 $109 $251 forward 7 unknown #
vertex $-1 $112 $252 #
ellipse-curve $-1 41.0165452938922 -25.662101277373502 3.1864498752484369 0.79863551827123203 0 0.60181501223851219 0.3009075061192561 0 -0.39931775913561601 1 I I #
coedge $-1 $178 $178 $-1 $253 reversed $115 $-1 #
edge $-1 $254 0 $254 6.2831853071796004 $116 $255 forward 7 unknown #
vertex $-1 $119 $256 #
ellipse-curve $-1 41.0165452938922 -23.812158710614931 3.1864498752484369 0.79863551827123203 0 0.60181501223851219 0.3009075061192561 0 -0.39931775913561601 1 I I #
face $-1 $-1 $135 $18 $-1 $257 reversed single #
loop $-1 $-1 $197 $120 #
plane-surface $-1 0 28.745338888637786 0 0 -1 0 0 0 -1 forward_v I I I I #
coedge $-1 $195 $258 $123 $187 reversed $121 $-1 #
coedge $-1 $201 $123 $124 $189 reversed $76 $-1 #
edge $-1 $202 -5.7561736233953926 $259 5.7561736233953926 $185 $260 forward 7 unknown #
coedge $-1 $125 $124 $258 $261 forward $49 $-1 #
edge $-1 $193 -42.95297097689749 $259 42.95297097689749 $186 $262 forward 7 unknown #
coedge $-1 $198 $197 $125 $191 reversed $183 $-1 #
edge $-1 $263 -42.95297097689749 $192 42.95297097689749 $190 $264 forward 7 unknown #
vertex $-1 $127 $265 #
vertex $-1 $204 $266 #
straight-curve $-1 42.95297097689749 0 -5.7561736233953926 0 -1 0 I I #
coedge $-1 $267 $185 $128 $196 reversed $121 $-1 #
edge $-1 $199 -28.745338888637786 $202 28.745338888637786 $195 $268 forward 7 unknown #
coedge $-1 $190 $129 $134 $205 forward $183 $-1 #
coedge $-1 $129 $190 $267 $269 reversed $183 $-1 #
vertex $-1 $130 $270 #
straight-curve $-1 0 28.745338888637786 5.7561736233953926 -1 0 0 I I #
coedge $-1 $131 $186 $133 $204 reversed $76 $-1 #
vertex $-1 $196 $271 #
straight-curve $-1 0 -28.745338888637786 5.7561736233953926 1 0 0 I I #
edge $-1 $136 -5.7561736233953926 $193 5.7561736233953926 $133 $272 forward 7 unknown #
edge $-1 $137 -5.7561736233953926 $192 5.7561736233953926 $134 $273 forward 7 unknown #
point $-1 42.95297097689749 -28.745338888637786 5.7561736233953926 #
point $-1 42.95297097689749 28.745338888637786 5.7561736233953926 #
face $-1 $-1 $221 $19 $-1 $274 reversed single #
loop $-1 $-1 $275 $139 #
plane-surface $-1 -47.710654800859999 0 2.3754862274890982 1 0 0 0 0 -1 forward_v I I I I #
coedge $-1 $276 $213 $145 $218 reversed $140 $-1 #
coedge $-1 $143 $142 $275 $277 reversed $53 $-1 #
coedge $-1 $211 $278 $142 $214 forward $140 $-1 #
edge $-1 $279 -2.3788419119812545 $216 2.3788419119812545 $142 $280 forward 7 unknown #
edge $-1 $150 -2.3788419119812545 $281 2.3788419119812545 $143 $282 forward 7 unknown #
vertex $-1 $144 $283 #
straight-curve $-1 -42.95297097689749 28.745338888637786 0 0 0 -1 I I #
edge $-1 $222 -28.745338888637786 $216 28.745338888637786 $211 $284 forward 7 unknown #
coedge $-1 $285 $146 $149 $225 reversed $221 $-1 #
coedge $-1 $146 $285 $276 $286 reversed $221 $-1 #
loop $-1 $-1 $146 $208 #
vertex $-1 $147 $287 #
straight-curve $-1 -42.95297097689749 -28.745338888637786 0 0 0 1 I I #
coedge $-1 $149 $148 $288 $289 forward $84 $-1 #
edge $-1 $290 -2.3788419119812545 $151 2.3788419119812545 $219 $291 forward 7 unknown #
point $-1 -42.95297097689749 28.745338888637786 3.8845077138115802 #
point $-1 -42.95297097689749 -28.745338888637786 3.8845077138115802 #
plane-surface $-1 42.95297097689749 0 0 -1 0 0 0 0 1 forward_v I I I I #
coedge $-1 $292 $156 $161 $235 forward $92 $-1 #
coedge $-1 $156 $292 $232 $293 forward $92 $-1 #
edge $-1 $233 -13.022460005167062 $240 -9.1496086391564759 $156 $294 forward 7 unknown #
coedge $-1 $165 $159 $230 $293 reversed $166 $-1 #
vertex $-1 $160 $295 #
straight-curve $-1 42.95297097689749 -22.578863666109218 60.461874055116482 0 0 1 I I #
edge $-1 $240 9.7478130274224668 $238 15.914288249951035 $229 $296 forward 7 unknown #
coedge $-1 $237 $162 $165 $242 reversed $154 $-1 #
coedge $-1 $162 $236 $292 $297 reversed $154 $-1 #
vertex $-1 $297 $298 #
straight-curve $-1 9.4730553963375392 -28.745338888637786 45.04607598978096 0.60181501223851219 0 -0.79863551827123203 I I #
vertex $-1 $235 $299 #
straight-curve $-1 -8.7465145313865662 -22.578863666109218 69.224262601948922 0.60181501223851219 0 -0.79863551827123203 I I #
edge $-1 $300 -5.7561736233953926 $167 -0.6167261271014689 $165 $301 forward 7 unknown #
point $-1 42.95297097689749 -28.745338888637786 0.6167261271014689 #
point $-1 42.952970976897483 -22.578863666109218 0.61672612710148655 #
edge $-1 $302 1 $302 0 $170 $-1 forward 7 unknown #
vertex $-1 $171 $303 #
ellipse-curve $-1 40.207904591128937 -27.512043844132073 2.5770954159282948 0.79863551827123203 0 0.60181501223851219 0.3009075061192561 0 -0.39931775913561601 1 I I #
point $-1 41.317452800011459 -27.512043844132073 2.7871321161128249 #
edge $-1 $304 1 $304 0 $174 $-1 forward 7 unknown #
vertex $-1 $175 $305 #
ellipse-curve $-1 40.207904591128937 -25.662101277373502 2.5770954159282948 0.79863551827123203 0 0.60181501223851219 0.3009075061192561 0 -0.39931775913561601 1 I I #
point $-1 41.317452800011459 -25.662101277373502 2.7871321161128249 #
edge $-1 $306 1 $306 0 $178 $-1 forward 7 unknown #
vertex $-1 $179 $307 #
ellipse-curve $-1 40.207904591128937 -23.812158710614931 2.5770954159282948 0.79863551827123203 0 0.60181501223851219 0.3009075061192561 0 -0.39931775913561601 1 I I #
point $-1 41.317452800011459 -23.812158710614931 2.7871321161128249 #
plane-surface $-1 42.95297097689749 0 0 -1 0 0 0 0 1 forward_v I I I I #
coedge $-1 $185 $267 $188 $261 reversed $121 $-1 #
vertex $-1 $261 $308 #
straight-curve $-1 -42.95297097689749 -28.745338888637786 0 0 0 -1 I I #
edge $-1 $259 -28.745338888637786 $263 28.745338888637786 $258 $309 forward 7 unknown #
straight-curve $-1 0 -28.745338888637786 -5.7561736233953926 -1 0 0 I I #
vertex $-1 $191 $310 #
straight-curve $-1 0 28.745338888637786 -5.7561736233953926 1 0 0 I I #
point $-1 42.95297097689749 28.745338888637786 -5.7561736233953926 #
point $-1 42.95297097689749 -28.745338888637786 -5.7561736233953926 #
coedge $-1 $258 $195 $198 $269 forward $121 $-1 #
straight-curve $-1 -42.95297097689749 0 5.7561736233953926 0 -1 0 I I #
edge $-1 $199 -5.7561736233953926 $263 5.7561736233953926 $198 $311 forward 7 unknown #
point $-1 -42.95297097689749 28.745338888637786 5.7561736233953926 #
point $-1 -42.95297097689749 -28.745338888637786 5.7561736233953926 #
straight-curve $-1 42.95297097689749 -28.745338888637786 0 0 0 -1 I I #
straight-curve $-1 42.95297097689749 28.745338888637786 0 0 0 -1 I I #
plane-surface $-1 0 -28.745338888637786 0 0 1 0 0 0 1 forward_v I I I I #
coedge $-1 $312 $288 $212 $277 forward $209 $-1 #
coedge $-1 $278 $211 $220 $286 forward $140 $-1 #
edge $-1 $281 -1.509021486322482 $279 1.509021486322482 $212 $313 forward 7 unknown #
coedge $-1 $213 $276 $312 $314 forward $140 $-1 #
vertex $-1 $214 $315 #
straight-curve $-1 -45.331812888878744 28.745338888637786 0.8664647411666162 1 0 0 I I #
vertex $-1 $215 $316 #
straight-curve $-1 -45.331812888878744 28.745338888637786 3.8845077138115802 -1 0 0 I I #
point $-1 -42.95297097689749 28.745338888637786 0.8664647411666162 #
straight-curve $-1 -42.95297097689749 0 0.8664647411666162 0 1 0 I I #
coedge $-1 $220 $219 $317 $318 forward $221 $-1 #
edge $-1 $222 -2.3788419119812545 $319 2.3788419119812545 $220 $320 forward 7 unknown #
point $-1 -42.95297097689749 -28.745338888637786 0.8664647411666162 #
coedge $-1 $275 $317 $224 $289 reversed $209 $-1 #
edge $-1 $281 -28.745338888637786 $290 28.745338888637786 $288 $321 forward 7 unknown #
vertex $-1 $289 $322 #
straight-curve $-1 -45.331812888878744 -28.745338888637786 3.8845077138115802 1 0 0 I I #
coedge $-1 $230 $229 $237 $297 forward $92 $-1 #
edge $-1 $300 -28.745338888637786 $233 -22.578863666109218 $232 $323 forward 7 unknown #
straight-curve $-1 29.930510971730428 -22.578863666109218 5.7561736233953908 -1 0 0 I I #
point $-1 42.95297097689749 -22.578863666109218 5.7561736233953926 #
straight-curve $-1 39.080119610886904 -12.831050638686751 5.756173623395398 0 -1 0 I I #
edge $-1 $238 39.080119610886904 $300 42.95297097689749 $237 $324 forward 7 unknown #
point $-1 39.080119610886904 -28.745338888637786 5.7561736233953908 #
point $-1 39.080119610886904 -22.578863666109218 5.7561736233953908 #
vertex $-1 $293 $325 #
straight-curve $-1 42.95297097689749 -28.745338888637786 0 0 0 -1 I I #
vertex $-1 $245 $326 #
point $-1 40.508812097248196 -27.512043844132073 2.1777776567926788 #
vertex $-1 $249 $327 #
point $-1 40.508812097248196 -25.662101277373502 2.1777776567926788 #
vertex $-1 $253 $328 #
point $-1 40.508812097248196 -23.812158710614931 2.1777776567926788 #
point $-1 -42.95297097689749 -28.745338888637786 -5.7561736233953926 #
straight-curve $-1 -42.95297097689749 0 -5.7561736233953926 0 1 0 I I #
point $-1 -42.95297097689749 28.745338888637786 -5.7561736233953926 #
straight-curve $-1 -42.95297097689749 28.745338888637786 0 0 0 -1 I I #
coedge $-1 $317 $275 $278 $314 reversed $209 $-1 #
straight-curve $-1 -47.710654800859999 28.745338888637786 2.3754862274890982 0 0 -1 I I #
edge $-1 $319 -28.745338888637786 $279 28.745338888637786 $312 $329 forward 7 unknown #
point $-1 -47.710654800859999 28.745338888637786 0.8664647411666162 #
point $-1 -47.710654800859999 28.745338888637786 3.8845077138115802 #
coedge $-1 $288 $312 $285 $318 reversed $209 $-1 #
edge $-1 $290 -1.509021486322482 $319 1.509021486322482 $317 $330 forward 7 unknown #
vertex $-1 $314 $331 #
straight-curve $-1 -45.331812888878744 -28.745338888637786 0.8664647411666162 -1 0 0 I I #
straight-curve $-1 -47.710654800859999 0 3.8845077138115802 0 -1 0 I I #
point $-1 -47.710654800859999 -28.745338888637786 3.8845077138115802 #
straight-curve $-1 42.95297097689749 0 5.7561736233953926 0 1 0 I I #
straight-curve $-1 0 -28.745338888637786 5.7561736233953926 1 0 0 I I #
point $-1 42.95297097689749 -28.745338888637786 5.7561736233953926 #
point $-1 39.808586831993324 -27.512043844132073 2.2761879098090385 #
point $-1 39.808586831993324 -25.662101277373502 2.2761879098090385 #
point $-1 39.808586831993324 -23.812158710614931 2.2761879098090385 #
straight-curve $-1 -47.710654800859999 0 0.8664647411666162 0 1 0 I I #
straight-curve $-1 -47.710654800859999 -28.745338888637786 2.3754862274890982 0 0 -1 I I #
point $-1 -47.710654800859999 -28.745338888637786 0.8664647411666162 #
End-of-ACIS-data 