500 0 8 0           
7 Unknown 11 ACIS 5.0 NT 24 Fri Mar 26 02:30:39 1999 
-1 9.9999999999999995e-007 1e-010 
body $-1 $8 $-1 $9 #
body $-1 $10 $-1 $11 #
body $-1 $12 $-1 $13 #
body $-1 $14 $-1 $15 #
body $-1 $16 $-1 $17 #
body $-1 $18 $-1 $19 #
body $-1 $20 $-1 $21 #
body $-1 $22 $-1 $23 #
lump $-1 $-1 $24 $0 #
transform $-1 1 0 0 0 1 0 0 0 1 51.894894253364669 29.120658288095992 8.1828809835396541 1 rotate no_reflect no_shear #
lump $-1 $-1 $25 $1 #
transform $-1 1 0 0 0 1 0 0 0 1 51.894894253364669 29.120658288095992 8.1828809835396541 1 rotate no_reflect no_shear #
lump $-1 $-1 $26 $2 #
transform $-1 1 0 0 0 1 0 0 0 1 51.894894253364669 29.120658288095992 8.1828809835396541 1 rotate no_reflect no_shear #
lump $-1 $-1 $27 $3 #
transform $-1 1 0 0 0 1 0 0 0 1 51.894894253364669 29.120658288095992 8.1828809835396541 1 rotate no_reflect no_shear #
lump $-1 $-1 $28 $4 #
transform $-1 1 0 0 0 1 0 0 0 1 51.894894253364669 29.120658288095992 8.1828809835396541 1 rotate no_reflect no_shear #
lump $-1 $-1 $29 $5 #
transform $-1 1 0 0 0 1 0 0 0 1 51.894894253364669 29.120658288095992 8.1828809835396541 1 rotate no_reflect no_shear #
lump $-1 $-1 $30 $6 #
transform $-1 1 0 0 0 1 0 0 0 1 51.894894253364669 29.120658288095992 8.1828809835396541 1 rotate no_reflect no_shear #
lump $-1 $-1 $31 $7 #
transform $-1 1 0 0 0 1 0 0 0 1 51.894894253364669 29.120658288095992 8.1828809835396541 1 rotate no_reflect no_shear #
shell $-1 $-1 $-1 $32 $-1 $8 #
shell $-1 $-1 $-1 $33 $-1 $10 #
shell $-1 $-1 $-1 $34 $-1 $12 #
shell $-1 $-1 $-1 $35 $-1 $14 #
shell $-1 $-1 $-1 $36 $-1 $16 #
shell $-1 $-1 $-1 $37 $-1 $18 #
shell $-1 $-1 $-1 $38 $-1 $20 #
shell $-1 $-1 $-1 $39 $-1 $22 #
face $-1 $40 $41 $24 $-1 $42 reversed single #
face $-1 $43 $44 $25 $-1 $45 forward single #
face $-1 $46 $47 $26 $-1 $48 reversed single #
face $-1 $49 $50 $27 $-1 $51 forward single #
face $-1 $52 $53 $28 $-1 $54 reversed single #
face $-1 $55 $56 $29 $-1 $57 forward single #
face $-1 $58 $59 $30 $-1 $60 forward single #
face $-1 $61 $62 $31 $-1 $63 forward single #
face $-1 $64 $65 $24 $-1 $66 forward single #
loop $-1 $-1 $67 $32 #
plane-surface $-1 -51.894894253364669 0 0 1 0 0 0 0 -1 forward_v I I I I #
face $-1 $68 $69 $25 $-1 $70 reversed single #
loop $-1 $-1 $71 $33 #
plane-surface $-1 -51.894894253364669 0 0 1 0 0 0 0 -1 forward_v I I I I #
face $-1 $72 $73 $26 $-1 $74 reversed single #
loop $-1 $-1 $75 $34 #
plane-surface $-1 42.250065094036955 -29.120658288095989 3.4731803532994547 0 -0.52991927123019833 0.84804809178421925 1 0 0 forward_v I I I I #
face $-1 $76 $77 $27 $-1 $78 forward single #
loop $-1 $79 $80 $35 #
cone-surface $-1 42.250065094036955 -24.433844264329398 4.3584981921016821 0 0.52991927123019833 -0.84804809178421925 1 0 0 1 I I 0 1 1 forward I I I I #
face $-1 $81 $82 $28 $-1 $83 reversed single #
loop $-1 $-1 $84 $36 #
plane-surface $-1 21.389215103755355 55.287850620146557 118.1380628169814 1 0 0 0 -0.66913061440640931 -0.74314481823134659 forward_v I I I I #
face $-1 $85 $86 $29 $-1 $87 forward single #
loop $-1 $88 $89 $37 #
cone-surface $-1 25.262062435516768 24.834666208522389 4.1403103804821439 0 -0.66913061440640931 -0.74314481823134659 1.5 0 0 1 I I 0 1 1.5 forward I I I I #
face $-1 $90 $91 $30 $-1 $92 forward single #
loop $-1 $93 $94 $38 #
cone-surface $-1 31.07133343315887 24.834666208522389 4.1403103804821439 0 -0.66913061440640931 -0.74314481823134659 1.5 0 0 1 I I 0 1 1.5 forward I I I I #
face $-1 $95 $96 $31 $-1 $97 forward single #
loop $-1 $98 $99 $39 #
cone-surface $-1 36.880604430800972 24.834666208522389 4.1403103804821439 0 -0.66913061440640931 -0.74314481823134659 1.5 0 0 1 I I 0 1 1.5 forward I I I I #
face $-1 $100 $101 $24 $-1 $102 reversed single #
loop $-1 $-1 $103 $40 #
plane-surface $-1 0 0 8.1828809835396541 0 0 1 1 0 0 forward_v I I I I #
coedge $-1 $104 $105 $106 $107 reversed $41 $-1 #
face $-1 $108 $109 $25 $-1 $110 reversed single #
loop $-1 $-1 $111 $43 #
plane-surface $-1 0 0 -8.1828809835396541 0 0 1 1 0 0 forward_v I I I I #
coedge $-1 $112 $113 $114 $115 forward $44 $-1 #
face $-1 $116 $117 $26 $-1 $118 reversed single #
loop $-1 $-1 $119 $46 #
plane-surface $-1 32.605235934709242 -84.120867374718415 91.491912443118963 1 0 0 0 0.52991927123019833 -0.84804809178421925 forward_v I I I I #
coedge $-1 $120 $121 $122 $123 reversed $47 $-1 #
face $-1 $-1 $124 $27 $-1 $125 forward single #
loop $-1 $126 $127 $49 #
cone-surface $-1 42.250065094036955 -23.250618805768937 2.4649416698916919 0 0.52991927123019833 -0.84804809178421925 0.5 0 0 1 I I -0.70710678118654779 0.70710678118654713 0.5 forward I I I I #
loop $-1 $-1 $128 $35 #
coedge $-1 $80 $80 $129 $130 reversed $50 $-1 #
face $-1 $131 $132 $28 $-1 $133 reversed single #
loop $-1 $-1 $134 $52 #
plane-surface $-1 31.071333433158856 -14.161074332472523 41.007219302878127 0 0.66913061440640931 0.74314481823134659 1 0 0 forward_v I I I I #
coedge $-1 $135 $136 $137 $138 reversed $53 $-1 #
face $-1 $-1 $139 $29 $-1 $140 forward single #
loop $-1 $141 $142 $55 #
cone-surface $-1 25.262062435516768 23.460132411154643 2.6137359763146435 0 -0.66913061440640931 -0.74314481823134659 0.75 0 0 1 I I -0.70710678118654757 0.70710678118654757 0.75 forward I I I I #
loop $-1 $-1 $143 $37 #
coedge $-1 $89 $89 $144 $145 reversed $56 $-1 #
face $-1 $-1 $146 $30 $-1 $147 forward single #
loop $-1 $148 $149 $58 #
cone-surface $-1 31.07133343315887 23.460132411154643 2.6137359763146435 0 -0.66913061440640931 -0.74314481823134659 0.75 0 0 1 I I -0.70710678118654757 0.70710678118654757 0.75 forward I I I I #
loop $-1 $-1 $150 $38 #
coedge $-1 $94 $94 $151 $152 reversed $59 $-1 #
face $-1 $-1 $153 $31 $-1 $154 forward single #
loop $-1 $155 $156 $61 #
cone-surface $-1 36.880604430800972 23.460132411154643 2.6137359763146435 0 -0.66913061440640931 -0.74314481823134659 0.75 0 0 1 I I -0.70710678118654757 0.70710678118654757 0.75 forward I I I I #
loop $-1 $-1 $157 $39 #
coedge $-1 $99 $99 $158 $159 reversed $62 $-1 #
face $-1 $160 $161 $24 $-1 $162 reversed single #
loop $-1 $-1 $163 $64 #
plane-surface $-1 0 0 -8.1828809835396541 0 0 1 1 0 0 forward_v I I I I #
coedge $-1 $164 $165 $166 $167 forward $65 $-1 #
coedge $-1 $168 $67 $169 $170 reversed $41 $-1 #
coedge $-1 $67 $168 $171 $172 forward $41 $-1 #
coedge $-1 $173 $174 $67 $107 forward $101 $-1 #
edge $-1 $175 -29.120658288095992 $176 29.120658288095992 $67 $177 forward 7 unknown #
face $-1 $178 $179 $25 $-1 $180 reversed single #
loop $-1 $-1 $181 $68 #
plane-surface $-1 -55.685291031396972 -15.871268640533007 0 0 1 0 0 0 1 forward_v I I I I #
coedge $-1 $182 $183 $113 $184 forward $69 $-1 #
coedge $-1 $185 $71 $186 $187 reversed $44 $-1 #
coedge $-1 $71 $185 $111 $184 reversed $44 $-1 #
coedge $-1 $188 $189 $71 $115 reversed $190 $-1 #
edge $-1 $191 -8.1828809835396541 $192 8.1828809835396541 $114 $193 forward 7 unknown #
face $-1 $194 $195 $26 $-1 $196 forward single #
loop $-1 $-1 $197 $72 #
plane-surface $-1 0 -29.120658288095992 0 0 1 0 0 0 1 forward_v I I I I #
coedge $-1 $198 $199 $200 $201 reversed $73 $-1 #
coedge $-1 $202 $75 $203 $204 reversed $47 $-1 #
coedge $-1 $75 $202 $198 $205 forward $47 $-1 #
coedge $-1 $200 $206 $75 $123 forward $195 $-1 #
edge $-1 $207 -30.769861706346191 $208 -11.480203387690764 $122 $209 forward 7 unknown #
loop $-1 $-1 $129 $76 #
plane-surface $-1 42.250065094036955 -29.120658288095989 3.4731803532994547 0 -0.52991927123019833 0.84804809178421925 1 0 0 forward_v I I I I #
loop $-1 $-1 $210 $49 #
coedge $-1 $127 $127 $128 $211 reversed $77 $-1 #
coedge $-1 $128 $128 $127 $211 forward $79 $-1 #
coedge $-1 $129 $129 $80 $130 forward $124 $-1 #
edge $-1 $212 -3.7778978124636169e-016 $212 6.2831853071796004 $129 $213 forward 7 unknown #
face $-1 $214 $215 $28 $-1 $216 forward single #
loop $-1 $-1 $217 $81 #
plane-surface $-1 40.753451762562356 55.287850620146557 118.1380628169814 -1 0 0 0 0.66913061440640931 0.74314481823134659 forward_v I I I I #
coedge $-1 $218 $219 $220 $221 reversed $82 $-1 #
coedge $-1 $136 $84 $222 $223 reversed $53 $-1 #
coedge $-1 $84 $135 $218 $224 reversed $53 $-1 #
coedge $-1 $220 $225 $84 $138 forward $215 $-1 #
edge $-1 $226 -1.4767329780227136 $227 5.3498795079986294 $137 $228 forward 7 unknown #
loop $-1 $-1 $144 $85 #
plane-surface $-1 31.071333433158856 -14.161074332472523 41.007219302878127 0 0.66913061440640931 0.74314481823134659 1 0 0 forward_v I I I I #
loop $-1 $-1 $229 $55 #
coedge $-1 $142 $142 $143 $230 reversed $86 $-1 #
coedge $-1 $143 $143 $142 $230 forward $88 $-1 #
coedge $-1 $144 $144 $89 $145 forward $139 $-1 #
edge $-1 $231 7.0120339827835448e-016 $231 6.2831853071796013 $144 $232 forward 7 unknown #
loop $-1 $-1 $151 $90 #
plane-surface $-1 31.071333433158856 -14.161074332472523 41.007219302878127 0 0.66913061440640931 0.74314481823134659 1 0 0 forward_v I I I I #
loop $-1 $-1 $233 $58 #
coedge $-1 $149 $149 $150 $234 reversed $91 $-1 #
coedge $-1 $150 $150 $149 $234 forward $93 $-1 #
coedge $-1 $151 $151 $94 $152 forward $146 $-1 #
edge $-1 $235 7.0120339827835448e-016 $235 6.2831853071796013 $151 $236 forward 7 unknown #
loop $-1 $-1 $158 $95 #
plane-surface $-1 31.071333433158856 -14.161074332472523 41.007219302878127 0 0.66913061440640931 0.74314481823134659 1 0 0 forward_v I I I I #
loop $-1 $-1 $237 $61 #
coedge $-1 $156 $156 $157 $238 reversed $96 $-1 #
coedge $-1 $157 $157 $156 $238 forward $98 $-1 #
coedge $-1 $158 $158 $99 $159 forward $153 $-1 #
edge $-1 $239 7.0120339827835448e-016 $239 6.2831853071796013 $158 $240 forward 7 unknown #
face $-1 $241 $242 $24 $-1 $243 reversed single #
loop $-1 $-1 $169 $100 #
plane-surface $-1 0 -29.120658288095992 0 0 1 0 0 0 1 forward_v I I I I #
coedge $-1 $174 $173 $244 $245 forward $101 $-1 #
coedge $-1 $246 $103 $247 $248 forward $65 $-1 #
coedge $-1 $103 $246 $249 $250 forward $65 $-1 #
coedge $-1 $251 $252 $103 $167 reversed $253 $-1 #
edge $-1 $254 -29.120658288095992 $255 29.120658288095992 $166 $256 forward 7 unknown #
coedge $-1 $105 $104 $246 $257 reversed $41 $-1 #
coedge $-1 $258 $249 $104 $170 forward $161 $-1 #
edge $-1 $259 -8.1828809835396541 $175 8.1828809835396541 $104 $260 forward 7 unknown #
coedge $-1 $247 $261 $105 $172 reversed $242 $-1 #
edge $-1 $262 -8.1828809835396541 $176 8.1828809835396541 $171 $263 forward 7 unknown #
coedge $-1 $163 $106 $261 $264 forward $101 $-1 #
coedge $-1 $106 $163 $258 $265 forward $101 $-1 #
vertex $-1 $107 $266 #
vertex $-1 $264 $267 #
straight-curve $-1 -51.894894253364669 0 -8.1828809835396541 0 1 0 I I #
face $-1 $268 $190 $25 $-1 $269 reversed single #
loop $-1 $-1 $270 $108 #
plane-surface $-1 -59.475687809429274 -14.313082480774845 0 1 0 0 0 0 -1 forward_v I I I I #
coedge $-1 $271 $272 $273 $274 forward $109 $-1 #
coedge $-1 $275 $111 $271 $276 forward $69 $-1 #
coedge $-1 $111 $275 $188 $277 forward $69 $-1 #
edge $-1 $191 12.754896321016684 $278 15.871268640533007 $111 $279 forward 7 unknown #
coedge $-1 $113 $112 $280 $281 forward $44 $-1 #
coedge $-1 $282 $283 $112 $187 forward $284 $-1 #
edge $-1 $285 -15.871268640533007 $192 -12.754896321016684 $186 $286 forward 7 unknown #
coedge $-1 $287 $114 $183 $277 reversed $190 $-1 #
coedge $-1 $114 $287 $282 $288 reversed $190 $-1 #
loop $-1 $-1 $114 $178 #
vertex $-1 $184 $289 #
vertex $-1 $288 $290 #
straight-curve $-1 -51.894894253364669 -12.754896321016684 0 0 0 1 I I #
face $-1 $-1 $291 $26 $-1 $292 reversed single #
loop $-1 $-1 $200 $116 #
plane-surface $-1 0 0 8.1828809835396541 0 0 1 1 0 0 forward_v I I I I #
coedge $-1 $293 $294 $199 $295 forward $117 $-1 #
coedge $-1 $199 $119 $121 $205 reversed $73 $-1 #
coedge $-1 $119 $198 $197 $295 reversed $73 $-1 #
coedge $-1 $296 $122 $119 $201 forward $195 $-1 #
edge $-1 $208 -20.476871800905705 $297 -12.939775399263215 $200 $298 forward 7 unknown #
coedge $-1 $121 $120 $293 $299 reversed $47 $-1 #
coedge $-1 $300 $301 $120 $204 forward $291 $-1 #
edge $-1 $302 -11.427606745524317 $207 -2.5400253988284041 $203 $303 forward 7 unknown #
edge $-1 $304 -4.1895292081871576e-015 $208 8.8875813466959084 $198 $305 forward 7 unknown #
coedge $-1 $122 $296 $300 $306 forward $195 $-1 #
vertex $-1 $204 $307 #
vertex $-1 $123 $308 #
straight-curve $-1 21.125032547018478 -21.583561886453506 8.1828809835396541 -1 0 0 I I #
coedge $-1 $210 $210 $-1 $309 reversed $126 $-1 #
edge $-1 $310 0 $310 6.2831853071796004 $127 $311 forward 7 unknown #
vertex $-1 $130 $312 #
ellipse-curve $-1 42.250065094036955 -25.352110087274752 5.8280306684195509 0 -0.52991927123019833 0.84804809178421925 1 0 0 1 I I #
face $-1 $-1 $313 $28 $-1 $314 reversed single #
loop $-1 $-1 $137 $131 #
plane-surface $-1 0 0 8.1828809835396541 0 0 1 1 0 0 forward_v I I I I #
coedge $-1 $315 $316 $317 $318 reversed $132 $-1 #
coedge $-1 $319 $134 $136 $224 forward $82 $-1 #
coedge $-1 $134 $319 $315 $320 forward $82 $-1 #
coedge $-1 $317 $137 $134 $221 forward $215 $-1 #
edge $-1 $227 5.8535483871759268 $321 25.217785045982929 $220 $322 forward 7 unknown #
coedge $-1 $323 $324 $135 $223 forward $313 $-1 #
edge $-1 $325 -57.032860050078121 $226 -50.886150424951047 $222 $326 forward 7 unknown #
edge $-1 $227 49.05520329309276 $325 58.241316576192006 $136 $327 forward 7 unknown #
coedge $-1 $137 $317 $323 $328 forward $215 $-1 #
vertex $-1 $223 $329 #
vertex $-1 $138 $330 #
straight-curve $-1 21.389215103755355 27.643925310073278 8.1828809835396541 0 -1 0 I I #
coedge $-1 $229 $229 $-1 $331 reversed $141 $-1 #
edge $-1 $332 0 $332 6.2831853071796004 $142 $333 forward 7 unknown #
vertex $-1 $145 $334 #
ellipse-curve $-1 25.262062435516768 25.707352045085319 5.1095261709761202 0 0.66913061440640931 0.74314481823134659 1.5 0 0 1 I I #
coedge $-1 $233 $233 $-1 $335 reversed $148 $-1 #
edge $-1 $336 0 $336 6.2831853071796004 $149 $337 forward 7 unknown #
vertex $-1 $152 $338 #
ellipse-curve $-1 31.07133343315887 25.707352045085319 5.1095261709761202 0 0.66913061440640931 0.74314481823134659 1.5 0 0 1 I I #
coedge $-1 $237 $237 $-1 $339 reversed $155 $-1 #
edge $-1 $340 0 $340 6.2831853071796004 $156 $341 forward 7 unknown #
vertex $-1 $159 $342 #
ellipse-curve $-1 36.880604430800972 25.707352045085319 5.1095261709761202 0 0.66913061440640931 0.74314481823134659 1.5 0 0 1 I I #
face $-1 $-1 $253 $24 $-1 $343 reversed single #
loop $-1 $-1 $344 $160 #
plane-surface $-1 0 29.120658288095992 0 0 -1 0 0 0 -1 forward_v I I I I #
coedge $-1 $252 $251 $163 $245 reversed $253 $-1 #
edge $-1 $345 -29.120658288095992 $346 29.120658288095992 $244 $347 forward 7 unknown #
coedge $-1 $165 $164 $168 $257 forward $65 $-1 #
coedge $-1 $344 $171 $164 $248 reversed $242 $-1 #
edge $-1 $255 -51.894894253364669 $262 51.894894253364669 $247 $348 forward 7 unknown #
coedge $-1 $169 $349 $165 $250 reversed $161 $-1 #
edge $-1 $259 -51.894894253364669 $254 51.894894253364669 $249 $350 forward 7 unknown #
coedge $-1 $244 $166 $349 $351 forward $253 $-1 #
coedge $-1 $166 $244 $344 $352 reversed $253 $-1 #
loop $-1 $-1 $251 $241 #
vertex $-1 $167 $353 #
vertex $-1 $167 $354 #
straight-curve $-1 51.894894253364669 0 8.1828809835396541 0 1 0 I I #
edge $-1 $262 -29.120658288095992 $259 29.120658288095992 $168 $355 forward 7 unknown #
coedge $-1 $349 $169 $174 $265 reversed $161 $-1 #
vertex $-1 $257 $356 #
straight-curve $-1 -51.894894253364669 -29.120658288095992 0 0 0 -1 I I #
coedge $-1 $171 $344 $173 $264 reversed $242 $-1 #
vertex $-1 $248 $357 #
straight-curve $-1 -51.894894253364669 29.120658288095992 0 0 0 -1 I I #
edge $-1 $176 -51.894894253364669 $345 51.894894253364669 $261 $358 forward 7 unknown #
edge $-1 $346 -51.894894253364669 $175 51.894894253364669 $258 $359 forward 7 unknown #
point $-1 -51.894894253364669 -29.120658288095992 -8.1828809835396541 #
point $-1 -51.894894253364669 29.120658288095992 -8.1828809835396541 #
face $-1 $-1 $284 $25 $-1 $360 forward single #
plane-surface $-1 -55.685291031396972 -12.754896321016684 0 0 -1 0 0 0 -1 forward_v I I I I #
coedge $-1 $361 $362 $287 $363 forward $179 $-1 #
coedge $-1 $280 $181 $182 $276 reversed $109 $-1 #
coedge $-1 $181 $280 $283 $364 reversed $109 $-1 #
coedge $-1 $362 $361 $181 $274 reversed $179 $-1 #
edge $-1 $365 -8.1828809835396541 $366 8.1828809835396541 $273 $367 forward 7 unknown #
coedge $-1 $183 $182 $361 $368 forward $69 $-1 #
edge $-1 $278 -3.7903967780323029 $366 3.7903967780323029 $271 $369 forward 7 unknown #
edge $-1 $370 -3.7903967780323029 $191 3.7903967780323029 $188 $371 forward 7 unknown #
vertex $-1 $276 $372 #
straight-curve $-1 -51.894894253364669 0 -8.1828809835396541 0 -1 0 I I #
coedge $-1 $272 $271 $185 $281 reversed $109 $-1 #
edge $-1 $285 -8.1828809835396541 $278 8.1828809835396541 $280 $373 forward 7 unknown #
coedge $-1 $374 $186 $189 $288 forward $284 $-1 #
coedge $-1 $186 $374 $272 $364 forward $284 $-1 #
loop $-1 $-1 $186 $268 #
vertex $-1 $187 $375 #
straight-curve $-1 -51.894894253364669 0 8.1828809835396541 0 1 0 I I #
coedge $-1 $189 $188 $270 $363 reversed $190 $-1 #
edge $-1 $192 -3.7903967780323029 $376 3.7903967780323029 $189 $377 forward 7 unknown #
point $-1 -51.894894253364669 -12.754896321016684 -8.1828809835396541 #
point $-1 -51.894894253364669 -12.754896321016684 8.1828809835396541 #
loop $-1 $-1 $203 $194 #
plane-surface $-1 51.894894253364669 0 0 -1 0 0 0 0 1 forward_v I I I I #
coedge $-1 $378 $197 $202 $299 forward $117 $-1 #
coedge $-1 $197 $378 $296 $379 reversed $117 $-1 #
edge $-1 $297 37.563075238019827 $304 42.272775868260027 $197 $380 forward 7 unknown #
coedge $-1 $206 $200 $294 $379 forward $195 $-1 #
vertex $-1 $379 $381 #
straight-curve $-1 32.605235934709242 -42.060433687359208 8.1828809835396541 0 -1 0 I I #
edge $-1 $304 11.480203387690764 $302 30.769861706346191 $293 $382 forward 7 unknown #
coedge $-1 $301 $203 $206 $306 reversed $291 $-1 #
coedge $-1 $203 $300 $378 $383 forward $291 $-1 #
vertex $-1 $299 $384 #
straight-curve $-1 51.894894253364669 -19.429498193893625 9.5288893917929975 0 0.84804809178421925 0.52991927123019833 I I #
vertex $-1 $299 $385 #
straight-curve $-1 32.605235934709242 -29.120658288095989 3.4731803532994547 0 0.84804809178421925 0.52991927123019833 I I #
edge $-1 $386 -29.120658288095992 $207 -21.583561886453502 $300 $387 forward 7 unknown #
point $-1 51.894894253364669 -21.583561886453502 8.1828809835396541 #
point $-1 32.605235934709242 -21.583561886453502 8.1828809835396541 #
edge $-1 $388 1 $388 0 $210 $-1 forward 7 unknown #
vertex $-1 $211 $389 #
ellipse-curve $-1 42.250065094036955 -23.515578441384037 2.8889657157838013 0 -0.52991927123019833 0.84804809178421925 1 0 0 1 I I #
point $-1 43.250065094036955 -25.35211008727476 5.8280306684195615 #
loop $-1 $-1 $222 $214 #
plane-surface $-1 0 29.120658288095992 0 0 -1 0 0 0 -1 forward_v I I I I #
coedge $-1 $316 $217 $219 $320 reversed $132 $-1 #
coedge $-1 $217 $315 $390 $391 reversed $132 $-1 #
coedge $-1 $225 $220 $217 $318 forward $215 $-1 #
edge $-1 $321 -5.3498795079986294 $392 1.4767329780227136 $317 $393 forward 7 unknown #
coedge $-1 $219 $218 $324 $394 reversed $82 $-1 #
edge $-1 $395 -58.241316576192006 $321 -49.05520329309276 $315 $396 forward 7 unknown #
vertex $-1 $221 $397 #
straight-curve $-1 15.535666716579428 22.294045802074656 8.1828809835396505 1 0 0 I I #
coedge $-1 $390 $222 $225 $328 reversed $313 $-1 #
coedge $-1 $222 $390 $319 $394 forward $313 $-1 #
vertex $-1 $223 $398 #
straight-curve $-1 21.389215103755355 29.120658288095992 59.069031408490702 0 0 1 I I #
straight-curve $-1 21.389215103755355 -14.161074332472523 41.007219302878127 0 0.74314481823134659 -0.66913061440640931 I I #
edge $-1 $392 -40.753451762562356 $226 -21.389215103755355 $323 $399 forward 7 unknown #
point $-1 21.389215103755355 29.120658288095992 8.1828809835396541 #
point $-1 21.389215103755355 22.294045802074649 8.1828809835396541 #
edge $-1 $400 1 $400 0 $229 $-1 forward 7 unknown #
vertex $-1 $230 $401 #
ellipse-curve $-1 25.262062435516768 23.961980371959449 3.1710945899881535 0 0.66913061440640931 0.74314481823134659 1.5 0 0 1 I I #
point $-1 26.762062435516768 25.707352045085333 5.1095261709761344 #
edge $-1 $402 1 $402 0 $233 $-1 forward 7 unknown #
vertex $-1 $234 $403 #
ellipse-curve $-1 31.07133343315887 23.961980371959449 3.1710945899881535 0 0.66913061440640931 0.74314481823134659 1.5 0 0 1 I I #
point $-1 32.57133343315887 25.707352045085333 5.1095261709761344 #
edge $-1 $404 1 $404 0 $237 $-1 forward 7 unknown #
vertex $-1 $238 $405 #
ellipse-curve $-1 36.880604430800972 23.961980371959449 3.1710945899881535 0 0.66913061440640931 0.74314481823134659 1.5 0 0 1 I I #
point $-1 38.380604430800972 25.707352045085333 5.1095261709761344 #
plane-surface $-1 51.894894253364669 0 0 -1 0 0 0 0 1 forward_v I I I I #
coedge $-1 $261 $247 $252 $352 forward $242 $-1 #
vertex $-1 $245 $406 #
vertex $-1 $351 $407 #
straight-curve $-1 51.894894253364669 0 -8.1828809835396541 0 -1 0 I I #
straight-curve $-1 0 29.120658288095992 8.1828809835396541 -1 0 0 I I #
coedge $-1 $249 $258 $251 $351 reversed $161 $-1 #
straight-curve $-1 0 -29.120658288095992 8.1828809835396541 1 0 0 I I #
edge $-1 $254 -8.1828809835396541 $346 8.1828809835396541 $251 $408 forward 7 unknown #
edge $-1 $255 -8.1828809835396541 $345 8.1828809835396541 $252 $409 forward 7 unknown #
point $-1 51.894894253364669 -29.120658288095992 8.1828809835396541 #
point $-1 51.894894253364669 29.120658288095992 8.1828809835396541 #
straight-curve $-1 -51.894894253364669 0 8.1828809835396541 0 -1 0 I I #
point $-1 -51.894894253364669 -29.120658288095992 8.1828809835396541 #
point $-1 -51.894894253364669 29.120658288095992 8.1828809835396541 #
straight-curve $-1 0 29.120658288095992 -8.1828809835396541 1 0 0 I I #
straight-curve $-1 0 -29.120658288095992 -8.1828809835396541 -1 0 0 I I #
plane-surface $-1 0 0 8.1828809835396541 0 0 1 1 0 0 forward_v I I I I #
coedge $-1 $273 $270 $275 $368 reversed $179 $-1 #
coedge $-1 $270 $273 $374 $410 reversed $179 $-1 #
edge $-1 $376 -8.1828809835396541 $370 8.1828809835396541 $287 $411 forward 7 unknown #
edge $-1 $365 -3.7903967780323029 $285 3.7903967780323029 $272 $412 forward 7 unknown #
vertex $-1 $410 $413 #
vertex $-1 $368 $414 #
straight-curve $-1 -59.475687809429274 -15.871268640533007 0 0 0 -1 I I #
edge $-1 $366 -1.5581861597581614 $370 1.5581861597581614 $361 $415 forward 7 unknown #
straight-curve $-1 -55.685291031396972 -15.871268640533007 -8.1828809835396541 -1 0 0 I I #
vertex $-1 $277 $416 #
straight-curve $-1 -55.685291031396972 -12.754896321016684 -8.1828809835396541 1 0 0 I I #
point $-1 -51.894894253364669 -15.871268640533007 -8.1828809835396541 #
straight-curve $-1 -51.894894253364669 -15.871268640533007 0 0 0 -1 I I #
coedge $-1 $283 $282 $362 $410 forward $284 $-1 #
point $-1 -51.894894253364669 -15.871268640533007 8.1828809835396541 #
vertex $-1 $288 $417 #
straight-curve $-1 -55.685291031396972 -12.754896321016684 8.1828809835396541 -1 0 0 I I #
coedge $-1 $294 $293 $301 $383 reversed $117 $-1 #
edge $-1 $297 32.605235934709242 $386 51.894894253364669 $294 $418 forward 7 unknown #
straight-curve $-1 32.605235934709242 -29.120658288095992 45.745956221559481 0 0 -1 I I #
point $-1 32.605235934709242 -29.120658288095992 8.1828809835396541 #
straight-curve $-1 21.125032547018478 -29.120658288095992 3.4731803532994521 1 0 0 I I #
edge $-1 $386 -8.1828809835396541 $302 -3.4731803532994525 $301 $419 forward 7 unknown #
point $-1 51.894894253364669 -29.120658288095992 3.4731803532994525 #
point $-1 32.605235934709242 -29.120658288095992 3.4731803532994525 #
vertex $-1 $306 $420 #
straight-curve $-1 51.894894253364669 0 8.1828809835396541 0 1 0 I I #
vertex $-1 $309 $421 #
point $-1 43.250065094036955 -23.515578441384037 2.8889657157838013 #
coedge $-1 $324 $323 $316 $391 forward $313 $-1 #
edge $-1 $392 50.886150424951047 $395 57.032860050078121 $390 $422 forward 7 unknown #
vertex $-1 $328 $423 #
straight-curve $-1 40.753451762562356 27.643925310073278 8.1828809835396541 0 1 0 I I #
edge $-1 $395 -25.217785045982929 $325 -5.8535483871759268 $324 $424 forward 7 unknown #
vertex $-1 $394 $425 #
straight-curve $-1 40.753451762562356 -14.161074332472523 41.007219302878127 0 -0.74314481823134659 0.66913061440640931 I I #
point $-1 40.753451762562356 22.294045802074649 8.1828809835396541 #
point $-1 21.389215103755355 29.120658288095996 2.0361713584125809 #
straight-curve $-1 0 29.120658288095992 8.1828809835396541 -1 0 0 I I #
vertex $-1 $331 $426 #
point $-1 26.762062435516768 23.961980371959449 3.1710945899881535 #
vertex $-1 $335 $427 #
point $-1 32.57133343315887 23.961980371959449 3.1710945899881535 #
vertex $-1 $339 $428 #
point $-1 38.380604430800972 23.961980371959449 3.1710945899881535 #
point $-1 51.894894253364669 29.120658288095992 -8.1828809835396541 #
point $-1 51.894894253364669 -29.120658288095992 -8.1828809835396541 #
straight-curve $-1 51.894894253364669 -29.120658288095992 0 0 0 -1 I I #
straight-curve $-1 51.894894253364669 29.120658288095992 0 0 0 -1 I I #
edge $-1 $376 -1.5581861597581614 $365 1.5581861597581614 $362 $429 forward 7 unknown #
straight-curve $-1 -59.475687809429274 -12.754896321016684 0 0 0 -1 I I #
straight-curve $-1 -55.685291031396972 -15.871268640533007 8.1828809835396541 1 0 0 I I #
point $-1 -59.475687809429274 -15.871268640533007 8.1828809835396541 #
point $-1 -59.475687809429274 -15.871268640533007 -8.1828809835396541 #
straight-curve $-1 -59.475687809429274 -14.313082480774845 -8.1828809835396541 0 1 0 I I #
point $-1 -59.475687809429274 -12.754896321016684 -8.1828809835396541 #
point $-1 -59.475687809429274 -12.754896321016684 8.1828809835396541 #
straight-curve $-1 0 -29.120658288095992 8.1828809835396541 1 0 0 I I #
straight-curve $-1 51.894894253364669 -29.120658288095992 0 0 0 -1 I I #
point $-1 51.894894253364669 -29.120658288095992 8.1828809835396541 #
point $-1 42.250065094036955 -22.985659170153838 2.0409176239995825 #
straight-curve $-1 40.753451762562356 29.120658288095992 59.069031408490702 0 0 -1 I I #
point $-1 40.753451762562356 29.120658288095992 8.1828809835396541 #
straight-curve $-1 15.535666716579428 29.120658288095989 2.036171358412588 -1 0 0 I I #
point $-1 40.753451762562356 29.120658288095996 2.0361713584125809 #
point $-1 25.262062435516768 22.958284450349836 2.0563773626411335 #
point $-1 31.07133343315887 22.958284450349836 2.0563773626411335 #
point $-1 36.880604430800972 22.958284450349836 2.0563773626411335 #
straight-curve $-1 -59.475687809429274 -14.313082480774845 8.1828809835396541 0 -1 0 I I #
End-of-ACIS-data 