500 0 6 0           
7 Unknown 11 ACIS 5.0 NT 24 Fri Mar 26 15:36:38 1999 
-1 9.9999999999999995e-007 1e-010 
body $-1 $6 $-1 $7 #
body $-1 $8 $-1 $9 #
body $-1 $10 $-1 $11 #
body $-1 $12 $-1 $13 #
body $-1 $14 $-1 $15 #
body $-1 $16 $-1 $17 #
lump $-1 $-1 $18 $0 #
transform $-1 1 0 0 0 1 0 0 0 1 53.17911313211463 25.469073772197277 11.581911088900501 1 rotate no_reflect no_shear #
lump $-1 $-1 $19 $1 #
transform $-1 1 0 0 0 1 0 0 0 1 53.17911313211463 25.469073772197277 11.581911088900501 1 rotate no_reflect no_shear #
lump $-1 $-1 $20 $2 #
transform $-1 1 0 0 0 1 0 0 0 1 53.17911313211463 25.469073772197277 11.581911088900501 1 rotate no_reflect no_shear #
lump $-1 $-1 $21 $3 #
transform $-1 1 0 0 0 1 0 0 0 1 53.17911313211463 25.469073772197277 11.581911088900501 1 rotate no_reflect no_shear #
lump $-1 $-1 $22 $4 #
transform $-1 1 0 0 0 1 0 0 0 1 53.17911313211463 25.469073772197277 11.581911088900501 1 rotate no_reflect no_shear #
lump $-1 $-1 $23 $5 #
transform $-1 1 0 0 0 1 0 0 0 1 53.17911313211463 25.469073772197277 11.581911088900501 1 rotate no_reflect no_shear #
shell $-1 $-1 $-1 $24 $-1 $6 #
shell $-1 $-1 $-1 $25 $-1 $8 #
shell $-1 $-1 $-1 $26 $-1 $10 #
shell $-1 $-1 $-1 $27 $-1 $12 #
shell $-1 $-1 $-1 $28 $-1 $14 #
shell $-1 $-1 $-1 $29 $-1 $16 #
face $-1 $30 $31 $18 $-1 $32 forward single #
face $-1 $33 $34 $19 $-1 $35 forward single #
face $-1 $36 $37 $20 $-1 $38 reversed single #
face $-1 $39 $40 $21 $-1 $41 reversed single #
face $-1 $42 $43 $22 $-1 $44 forward single #
face $-1 $45 $46 $23 $-1 $47 forward single #
face $-1 $48 $49 $18 $-1 $50 reversed single #
loop $-1 $-1 $51 $24 #
plane-surface $-1 0 0 11.581911088900501 0 0 1 1 0 0 forward_v I I I I #
face $-1 $52 $53 $19 $-1 $54 reversed single #
loop $-1 $-1 $55 $25 #
plane-surface $-1 -46.199681797781345 0 -8.4418194805270055 0 0 1 1 0 0 forward_v I I I I #
face $-1 $56 $57 $20 $-1 $58 reversed single #
loop $-1 $-1 $59 $26 #
plane-surface $-1 48.08661041425821 -12.940784161157168 0 0 1 0 0 0 1 forward_v I I I I #
face $-1 $60 $61 $21 $-1 $62 reversed single #
loop $-1 $-1 $63 $27 #
plane-surface $-1 6.6975009449728766 -93.834824643365195 84.675370785827795 -1 0 0 0 -0.64278761758704617 0.76604443648966558 forward_v I I I I #
face $-1 $64 $65 $22 $-1 $66 forward single #
loop $-1 $67 $68 $28 #
cone-surface $-1 -2.4435410832505156 -19.410365563717715 6.1227332478403094 0 0.64278761758704617 -0.76604443648966558 1 0 0 1 I I 0 1 1 forward I I I I #
face $-1 $69 $70 $23 $-1 $71 forward single #
loop $-1 $72 $73 $29 #
cone-surface $-1 3.041084133683519 -19.410365563717715 6.1227332478403094 0 0.64278761758704617 -0.76604443648966558 1 0 0 1 I I 0 1 1 forward I I I I #
face $-1 $74 $75 $18 $-1 $76 reversed single #
loop $-1 $-1 $77 $30 #
plane-surface $-1 0 0 -11.581911088900501 0 0 1 1 0 0 forward_v I I I I #
coedge $-1 $78 $79 $80 $81 forward $31 $-1 #
face $-1 $82 $83 $19 $-1 $84 reversed single #
loop $-1 $-1 $85 $33 #
plane-surface $-1 -39.22025046344806 0 -10.011865284713753 -1 0 0 0 0 1 forward_v I I I I #
coedge $-1 $86 $87 $88 $89 forward $34 $-1 #
face $-1 $90 $91 $20 $-1 $92 reversed single #
loop $-1 $-1 $93 $36 #
plane-surface $-1 42.994107696401791 -9.7938707233816622 0 1 0 0 0 0 -1 forward_v I I I I #
coedge $-1 $94 $95 $96 $97 forward $37 $-1 #
face $-1 $98 $99 $21 $-1 $100 reversed single #
loop $-1 $-1 $101 $39 #
plane-surface $-1 0.29877152521650174 -25.469073772197262 3.2002432812059425 0 -0.64278761758704617 0.76604443648966558 1 0 0 forward_v I I I I #
coedge $-1 $102 $103 $104 $105 reversed $40 $-1 #
face $-1 $-1 $106 $22 $-1 $107 forward single #
loop $-1 $108 $109 $42 #
cone-surface $-1 -2.4435410832505156 -18.024704802711867 4.471367092382561 0 0.64278761758704617 -0.76604443648966558 0.5 0 0 1 I I -0.70710678118654746 0.70710678118654746 0.5 forward I I I I #
loop $-1 $-1 $110 $28 #
coedge $-1 $68 $68 $111 $112 reversed $43 $-1 #
face $-1 $-1 $113 $23 $-1 $114 forward single #
loop $-1 $115 $116 $45 #
cone-surface $-1 3.041084133683519 -18.024704802711867 4.471367092382561 0 0.64278761758704617 -0.76604443648966558 0.5 0 0 1 I I -0.70710678118654746 0.70710678118654746 0.5 forward I I I I #
loop $-1 $-1 $117 $29 #
coedge $-1 $73 $73 $118 $119 reversed $46 $-1 #
face $-1 $120 $121 $18 $-1 $122 reversed single #
loop $-1 $-1 $123 $48 #
plane-surface $-1 0 -25.469073772197277 0 0 1 0 0 0 1 forward_v I I I I #
coedge $-1 $124 $125 $126 $127 forward $49 $-1 #
coedge $-1 $128 $51 $129 $130 forward $31 $-1 #
coedge $-1 $51 $128 $131 $132 forward $31 $-1 #
coedge $-1 $133 $134 $51 $81 reversed $135 $-1 #
edge $-1 $136 -25.469073772197277 $137 25.469073772197277 $80 $138 forward 7 unknown #
face $-1 $139 $140 $19 $-1 $141 reversed single #
loop $-1 $-1 $142 $52 #
plane-surface $-1 0 0 -11.581911088900501 0 0 1 1 0 0 forward_v I I I I #
coedge $-1 $143 $88 $144 $145 reversed $53 $-1 #
coedge $-1 $146 $55 $147 $148 reversed $34 $-1 #
coedge $-1 $55 $146 $149 $150 reversed $34 $-1 #
coedge $-1 $85 $151 $55 $89 reversed $53 $-1 #
edge $-1 $152 -25.469073772197277 $153 25.469073772197277 $88 $154 forward 7 unknown #
face $-1 $155 $156 $20 $-1 $157 reversed single #
loop $-1 $-1 $158 $56 #
plane-surface $-1 48.08661041425821 -6.6469572856061561 0 0 -1 0 0 0 -1 forward_v I I I I #
coedge $-1 $159 $160 $161 $162 forward $57 $-1 #
coedge $-1 $163 $59 $164 $165 reversed $37 $-1 #
coedge $-1 $59 $163 $166 $167 reversed $37 $-1 #
coedge $-1 $160 $159 $59 $97 reversed $57 $-1 #
edge $-1 $168 -11.581911088900501 $169 11.581911088900501 $96 $170 forward 7 unknown #
face $-1 $171 $172 $21 $-1 $173 forward single #
loop $-1 $-1 $174 $60 #
plane-surface $-1 -6.0999578945398731 -93.834824643365195 84.675370785827795 1 0 0 0 0.64278761758704617 -0.76604443648966558 forward_v I I I I #
coedge $-1 $175 $176 $177 $178 reversed $61 $-1 #
coedge $-1 $103 $63 $179 $180 reversed $40 $-1 #
coedge $-1 $63 $102 $175 $181 reversed $40 $-1 #
coedge $-1 $177 $182 $63 $105 forward $172 $-1 #
edge $-1 $183 21.448338549485321 $184 31.43722106201982 $104 $185 forward 7 unknown #
loop $-1 $-1 $111 $64 #
plane-surface $-1 0.29877152521650174 -25.469073772197262 3.2002432812059425 0 -0.64278761758704617 0.76604443648966558 1 0 0 forward_v I I I I #
loop $-1 $-1 $186 $42 #
coedge $-1 $109 $109 $110 $187 reversed $65 $-1 #
coedge $-1 $110 $110 $109 $187 forward $67 $-1 #
coedge $-1 $111 $111 $68 $112 forward $106 $-1 #
edge $-1 $188 -1.3136885595623172e-015 $188 6.2831853071795996 $111 $189 forward 7 unknown #
loop $-1 $-1 $118 $69 #
plane-surface $-1 0.29877152521650174 -25.469073772197262 3.2002432812059425 0 -0.64278761758704617 0.76604443648966558 1 0 0 forward_v I I I I #
loop $-1 $-1 $190 $45 #
coedge $-1 $116 $116 $117 $191 reversed $70 $-1 #
coedge $-1 $117 $117 $116 $191 forward $72 $-1 #
coedge $-1 $118 $118 $73 $119 forward $113 $-1 #
edge $-1 $192 -1.3136885595623172e-015 $192 6.2831853071795996 $118 $193 forward 7 unknown #
face $-1 $194 $195 $18 $-1 $196 reversed single #
loop $-1 $-1 $197 $74 #
plane-surface $-1 -53.17911313211463 0 0 1 0 0 0 0 -1 forward_v I I I I #
coedge $-1 $198 $131 $199 $200 forward $75 $-1 #
coedge $-1 $201 $77 $198 $202 forward $49 $-1 #
coedge $-1 $77 $201 $203 $204 forward $49 $-1 #
coedge $-1 $134 $133 $77 $127 reversed $135 $-1 #
edge $-1 $205 -25.469073772197277 $206 25.469073772197277 $126 $207 forward 7 unknown #
coedge $-1 $79 $78 $208 $209 forward $31 $-1 #
coedge $-1 $210 $211 $78 $130 reversed $195 $-1 #
edge $-1 $137 -53.17911313211463 $212 53.17911313211463 $129 $213 forward 7 unknown #
coedge $-1 $123 $214 $79 $132 reversed $75 $-1 #
edge $-1 $215 -53.17911313211463 $136 53.17911313211463 $131 $216 forward 7 unknown #
coedge $-1 $126 $80 $214 $217 forward $135 $-1 #
coedge $-1 $80 $126 $210 $218 reversed $135 $-1 #
loop $-1 $-1 $133 $194 #
vertex $-1 $81 $219 #
vertex $-1 $81 $220 #
straight-curve $-1 53.17911313211463 0 11.581911088900501 0 1 0 I I #
face $-1 $221 $222 $19 $-1 $223 reversed single #
loop $-1 $-1 $144 $82 #
plane-surface $-1 0 -25.469073772197277 0 0 1 0 0 0 1 forward_v I I I I #
coedge $-1 $224 $225 $143 $226 forward $83 $-1 #
coedge $-1 $151 $85 $142 $226 reversed $53 $-1 #
coedge $-1 $149 $227 $85 $145 forward $140 $-1 #
edge $-1 $228 -6.5759784465436244 $152 -3.4358868381701289 $144 $229 forward 7 unknown #
coedge $-1 $87 $86 $230 $231 reversed $34 $-1 #
coedge $-1 $232 $233 $86 $148 forward $234 $-1 #
edge $-1 $235 -30.079272233223957 $153 -16.120409564557388 $147 $236 forward 7 unknown #
coedge $-1 $237 $144 $87 $150 forward $140 $-1 #
edge $-1 $152 16.120409564557388 $238 30.079272233223957 $149 $239 forward 7 unknown #
coedge $-1 $88 $143 $232 $240 reversed $53 $-1 #
vertex $-1 $150 $241 #
vertex $-1 $148 $242 #
straight-curve $-1 -39.22025046344806 0 -8.4418194805270055 0 1 0 I I #
face $-1 $243 $244 $20 $-1 $245 forward single #
loop $-1 $-1 $164 $90 #
plane-surface $-1 0 0 -11.581911088900501 0 0 1 1 0 0 forward_v I I I I #
coedge $-1 $246 $247 $248 $249 reversed $91 $-1 #
coedge $-1 $96 $93 $250 $251 reversed $57 $-1 #
coedge $-1 $93 $96 $252 $253 reversed $57 $-1 #
coedge $-1 $247 $246 $93 $162 reversed $91 $-1 #
edge $-1 $254 -11.581911088900501 $255 11.581911088900501 $161 $256 forward 7 unknown #
coedge $-1 $95 $94 $257 $258 reversed $37 $-1 #
coedge $-1 $250 $259 $94 $165 forward $156 $-1 #
edge $-1 $260 -29.135807924985524 $169 -18.950802489272686 $164 $261 forward 7 unknown #
coedge $-1 $262 $252 $95 $167 forward $244 $-1 #
edge $-1 $168 18.950802489272686 $263 29.135807924985524 $166 $264 forward 7 unknown #
vertex $-1 $167 $265 #
vertex $-1 $165 $266 #
straight-curve $-1 42.994107696401791 -12.940784161157168 0 0 0 -1 I I #
face $-1 $-1 $267 $21 $-1 $268 reversed single #
loop $-1 $-1 $104 $98 #
plane-surface $-1 0 0 11.581911088900501 0 0 1 1 0 0 forward_v I I I I #
coedge $-1 $269 $270 $271 $272 reversed $99 $-1 #
coedge $-1 $273 $101 $103 $181 forward $61 $-1 #
coedge $-1 $101 $273 $269 $274 forward $61 $-1 #
coedge $-1 $271 $104 $101 $178 forward $172 $-1 #
edge $-1 $184 -6.5481151823646258 $275 6.249343657148124 $177 $276 forward 7 unknown #
coedge $-1 $277 $278 $102 $180 forward $267 $-1 #
edge $-1 $279 -39.137442111707969 $183 -30.755774304013396 $179 $280 forward 7 unknown #
edge $-1 $184 -13.039560156989978 $279 1.8593432412625586e-014 $103 $281 forward 7 unknown #
coedge $-1 $104 $271 $277 $282 forward $172 $-1 #
vertex $-1 $105 $283 #
vertex $-1 $105 $284 #
straight-curve $-1 6.6975009449728766 -46.917412321682598 11.581911088900505 0 1 0 I I #
coedge $-1 $186 $186 $-1 $285 reversed $108 $-1 #
edge $-1 $286 0 $286 6.2831853071796004 $109 $287 forward 7 unknown #
vertex $-1 $112 $288 #
ellipse-curve $-1 -2.4435410832505156 -20.474632515930029 7.3910771850532138 0 -0.64278761758704617 0.76604443648966558 1 0 0 1 I I #
coedge $-1 $190 $190 $-1 $289 reversed $115 $-1 #
edge $-1 $290 0 $290 6.2831853071796004 $116 $291 forward 7 unknown #
vertex $-1 $119 $292 #
ellipse-curve $-1 3.041084133683519 -20.474632515930029 7.3910771850532138 0 -0.64278761758704617 0.76604443648966558 1 0 0 1 I I #
face $-1 $-1 $135 $18 $-1 $293 reversed single #
loop $-1 $-1 $210 $120 #
plane-surface $-1 0 25.469073772197277 0 0 -1 0 0 0 -1 forward_v I I I I #
coedge $-1 $294 $208 $211 $295 forward $121 $-1 #
coedge $-1 $214 $123 $124 $202 reversed $75 $-1 #
coedge $-1 $208 $294 $123 $200 reversed $121 $-1 #
edge $-1 $215 -11.581911088900501 $296 11.581911088900501 $199 $297 forward 7 unknown #
coedge $-1 $125 $124 $294 $298 forward $49 $-1 #
edge $-1 $206 -53.17911313211463 $296 53.17911313211463 $198 $299 forward 7 unknown #
coedge $-1 $211 $210 $125 $204 reversed $195 $-1 #
edge $-1 $300 -53.17911313211463 $205 53.17911313211463 $203 $301 forward 7 unknown #
vertex $-1 $127 $302 #
vertex $-1 $217 $303 #
straight-curve $-1 53.17911313211463 0 -11.581911088900501 0 -1 0 I I #
coedge $-1 $197 $199 $128 $209 reversed $121 $-1 #
edge $-1 $212 -25.469073772197277 $215 25.469073772197277 $208 $304 forward 7 unknown #
coedge $-1 $203 $129 $134 $218 forward $195 $-1 #
coedge $-1 $129 $203 $197 $295 reversed $195 $-1 #
vertex $-1 $130 $305 #
straight-curve $-1 0 25.469073772197277 11.581911088900501 -1 0 0 I I #
coedge $-1 $131 $198 $133 $217 reversed $75 $-1 #
vertex $-1 $209 $306 #
straight-curve $-1 0 -25.469073772197277 11.581911088900501 1 0 0 I I #
edge $-1 $136 -11.581911088900501 $206 11.581911088900501 $133 $307 forward 7 unknown #
edge $-1 $137 -11.581911088900501 $205 11.581911088900501 $134 $308 forward 7 unknown #
point $-1 53.17911313211463 -25.469073772197277 11.581911088900501 #
point $-1 53.17911313211463 25.469073772197277 11.581911088900501 #
face $-1 $-1 $234 $19 $-1 $309 reversed single #
loop $-1 $-1 $230 $139 #
plane-surface $-1 -53.17911313211463 0 0 1 0 0 0 0 -1 forward_v I I I I #
coedge $-1 $310 $142 $227 $311 forward $83 $-1 #
coedge $-1 $142 $310 $312 $313 forward $83 $-1 #
edge $-1 $314 -25.469073772197277 $228 25.469073772197277 $142 $315 forward 7 unknown #
coedge $-1 $144 $237 $224 $311 reversed $140 $-1 #
vertex $-1 $311 $316 #
straight-curve $-1 -39.22025046344806 -25.469073772197277 -5.0059326423568766 0 0 1 I I #
coedge $-1 $317 $318 $146 $231 forward $222 $-1 #
edge $-1 $238 -25.469073772197277 $235 25.469073772197277 $230 $319 forward 7 unknown #
coedge $-1 $312 $147 $151 $240 forward $234 $-1 #
coedge $-1 $147 $312 $317 $320 reversed $234 $-1 #
loop $-1 $-1 $232 $221 #
vertex $-1 $320 $321 #
straight-curve $-1 -23.099840898890672 25.469073772197277 -8.4418194805270055 1 0 0 I I #
coedge $-1 $227 $149 $318 $322 forward $140 $-1 #
vertex $-1 $322 $323 #
straight-curve $-1 -23.099840898890672 -25.469073772197277 -8.4418194805270055 -1 0 0 I I #
edge $-1 $153 3.4358868381701289 $314 6.5759784465436244 $232 $324 forward 7 unknown #
point $-1 -39.22025046344806 -25.469073772197277 -8.4418194805270055 #
point $-1 -39.22025046344806 25.469073772197277 -8.4418194805270055 #
face $-1 $-1 $325 $20 $-1 $326 reversed single #
loop $-1 $-1 $327 $155 #
plane-surface $-1 0 0 11.581911088900501 0 0 1 1 0 0 forward_v I I I I #
coedge $-1 $161 $158 $328 $329 reversed $91 $-1 #
coedge $-1 $158 $161 $327 $330 reversed $91 $-1 #
coedge $-1 $331 $332 $158 $249 forward $325 $-1 #
edge $-1 $333 -11.581911088900501 $334 11.581911088900501 $248 $335 forward 7 unknown #
coedge $-1 $328 $164 $159 $251 forward $156 $-1 #
edge $-1 $169 -8.0438487994663372 $255 -1.750021923915325 $250 $336 forward 7 unknown #
coedge $-1 $166 $327 $160 $253 forward $244 $-1 #
edge $-1 $254 1.750021923915325 $168 8.0438487994663372 $252 $337 forward 7 unknown #
vertex $-1 $253 $338 #
vertex $-1 $251 $339 #
straight-curve $-1 42.994107696401791 -6.6469572856061561 0 0 0 -1 I I #
coedge $-1 $332 $331 $163 $258 forward $325 $-1 #
edge $-1 $263 -11.581911088900501 $260 11.581911088900501 $257 $340 forward 7 unknown #
coedge $-1 $164 $328 $332 $341 forward $156 $-1 #
vertex $-1 $258 $342 #
straight-curve $-1 24.043305207129105 -12.940784161157168 -11.581911088900501 -1 0 0 I I #
coedge $-1 $327 $166 $331 $343 forward $244 $-1 #
vertex $-1 $343 $344 #
straight-curve $-1 24.043305207129105 -12.940784161157168 11.581911088900501 1 0 0 I I #
point $-1 42.994107696401791 -12.940784161157168 11.581911088900501 #
point $-1 42.994107696401791 -12.940784161157168 -11.581911088900501 #
loop $-1 $-1 $179 $171 #
plane-surface $-1 0 -25.469073772197277 0 0 1 0 0 0 1 forward_v I I I I #
coedge $-1 $270 $174 $176 $274 reversed $99 $-1 #
coedge $-1 $174 $269 $345 $346 reversed $99 $-1 #
coedge $-1 $182 $177 $174 $272 forward $172 $-1 #
edge $-1 $275 -31.43722106201982 $347 -21.448338549485321 $271 $348 forward 7 unknown #
coedge $-1 $176 $175 $278 $349 reversed $61 $-1 #
edge $-1 $350 -1.8593432412625586e-014 $275 13.039560156989978 $269 $351 forward 7 unknown #
vertex $-1 $178 $352 #
straight-curve $-1 0.14938576260825087 -15.480191259662778 11.581911088900501 -1 0 0 I I #
coedge $-1 $345 $179 $182 $282 reversed $267 $-1 #
coedge $-1 $179 $345 $273 $349 forward $267 $-1 #
vertex $-1 $180 $353 #
straight-curve $-1 6.6975009449728766 -25.469073772197277 42.337685392913897 0 0 1 I I #
straight-curve $-1 6.6975009449728766 -25.469073772197262 3.2002432812059425 0 -0.76604443648966558 -0.64278761758704617 I I #
edge $-1 $347 -6.0999578945398731 $183 6.6975009449728766 $277 $354 forward 7 unknown #
point $-1 6.6975009449728766 -25.469073772197277 11.581911088900501 #
point $-1 6.6975009449728766 -15.480191259662778 11.581911088900501 #
edge $-1 $355 1 $355 0 $186 $-1 forward 7 unknown #
vertex $-1 $187 $356 #
ellipse-curve $-1 -2.4435410832505156 -18.34609861150539 4.8543893106273934 0 -0.64278761758704617 0.76604443648966558 1 0 0 1 I I #
point $-1 -1.4435410832505156 -20.47463251593004 7.3910771850532244 #
edge $-1 $357 1 $357 0 $190 $-1 forward 7 unknown #
vertex $-1 $191 $358 #
ellipse-curve $-1 3.041084133683519 -18.34609861150539 4.8543893106273934 0 -0.64278761758704617 0.76604443648966558 1 0 0 1 I I #
point $-1 4.041084133683519 -20.47463251593004 7.3910771850532244 #
plane-surface $-1 53.17911313211463 0 0 -1 0 0 0 0 1 forward_v I I I I #
coedge $-1 $199 $197 $201 $298 reversed $121 $-1 #
edge $-1 $212 -11.581911088900501 $300 11.581911088900501 $211 $359 forward 7 unknown #
vertex $-1 $298 $360 #
straight-curve $-1 -53.17911313211463 -25.469073772197277 0 0 0 -1 I I #
edge $-1 $296 -25.469073772197277 $300 25.469073772197277 $294 $361 forward 7 unknown #
straight-curve $-1 0 -25.469073772197277 -11.581911088900501 -1 0 0 I I #
vertex $-1 $204 $362 #
straight-curve $-1 0 25.469073772197277 -11.581911088900501 1 0 0 I I #
point $-1 53.17911313211463 25.469073772197277 -11.581911088900501 #
point $-1 53.17911313211463 -25.469073772197277 -11.581911088900501 #
straight-curve $-1 -53.17911313211463 0 11.581911088900501 0 -1 0 I I #
point $-1 -53.17911313211463 25.469073772197277 11.581911088900501 #
point $-1 -53.17911313211463 -25.469073772197277 11.581911088900501 #
straight-curve $-1 53.17911313211463 -25.469073772197277 0 0 0 -1 I I #
straight-curve $-1 53.17911313211463 25.469073772197277 0 0 0 -1 I I #
plane-surface $-1 0 25.469073772197277 0 0 -1 0 0 0 -1 forward_v I I I I #
coedge $-1 $225 $224 $363 $364 forward $83 $-1 #
edge $-1 $228 39.22025046344806 $365 53.17911313211463 $227 $366 forward 7 unknown #
coedge $-1 $233 $232 $225 $313 reversed $234 $-1 #
edge $-1 $367 -53.17911313211463 $314 -39.22025046344806 $312 $368 forward 7 unknown #
vertex $-1 $240 $369 #
straight-curve $-1 -39.22025046344806 0 -11.581911088900501 0 -1 0 I I #
point $-1 -39.22025046344806 -25.469073772197277 -11.581911088900501 #
coedge $-1 $363 $230 $233 $320 forward $222 $-1 #
coedge $-1 $230 $363 $237 $322 reversed $222 $-1 #
straight-curve $-1 -53.17911313211463 0 -8.4418194805270055 0 1 0 I I #
edge $-1 $235 8.4418194805270055 $367 11.581911088900501 $233 $370 forward 7 unknown #
point $-1 -53.17911313211463 25.469073772197277 -8.4418194805270055 #
edge $-1 $238 8.4418194805270055 $365 11.581911088900501 $318 $371 forward 7 unknown #
point $-1 -53.17911313211463 -25.469073772197277 -8.4418194805270055 #
straight-curve $-1 -39.22025046344806 25.469073772197277 -5.0059326423568766 0 0 -1 I I #
loop $-1 $-1 $257 $243 #
plane-surface $-1 53.17911313211463 0 0 -1 0 0 0 0 1 forward_v I I I I #
coedge $-1 $252 $262 $247 $330 forward $244 $-1 #
coedge $-1 $259 $250 $246 $329 forward $156 $-1 #
edge $-1 $255 18.950802489272686 $333 29.135807924985524 $328 $372 forward 7 unknown #
edge $-1 $334 -29.135807924985524 $254 -18.950802489272686 $327 $373 forward 7 unknown #
coedge $-1 $257 $248 $262 $343 reversed $325 $-1 #
coedge $-1 $248 $257 $259 $341 reversed $325 $-1 #
vertex $-1 $341 $374 #
vertex $-1 $249 $375 #
straight-curve $-1 53.17911313211463 -6.6469572856061561 0 0 0 1 I I #
straight-curve $-1 42.994107696401791 -4.8969353616908311 -11.581911088900501 0 1 0 I I #
straight-curve $-1 42.994107696401791 -4.8969353616908311 11.581911088900501 0 -1 0 I I #
point $-1 42.994107696401791 -6.6469572856061561 11.581911088900501 #
point $-1 42.994107696401791 -6.6469572856061561 -11.581911088900501 #
straight-curve $-1 53.17911313211463 -12.940784161157168 0 0 0 -1 I I #
edge $-1 $333 6.6469572856061561 $260 12.940784161157168 $332 $376 forward 7 unknown #
point $-1 53.17911313211463 -12.940784161157168 -11.581911088900501 #
edge $-1 $263 -12.940784161157168 $334 -6.6469572856061561 $331 $377 forward 7 unknown #
point $-1 53.17911313211463 -12.940784161157168 11.581911088900501 #
coedge $-1 $278 $277 $270 $346 forward $267 $-1 #
edge $-1 $347 30.755774304013396 $350 39.137442111707969 $345 $378 forward 7 unknown #
vertex $-1 $282 $379 #
straight-curve $-1 -6.0999578945398731 -46.917412321682598 11.581911088900505 0 -1 0 I I #
edge $-1 $350 -6.249343657148124 $279 6.5481151823646258 $278 $380 forward 7 unknown #
vertex $-1 $349 $381 #
straight-curve $-1 -6.0999578945398731 -25.469073772197262 3.2002432812059425 0 0.76604443648966558 0.64278761758704617 I I #
point $-1 -6.0999578945398731 -15.480191259662778 11.581911088900501 #
point $-1 6.6975009449728766 -25.469073772197277 3.2002432812059305 #
straight-curve $-1 0 -25.469073772197277 11.581911088900501 1 0 0 I I #
vertex $-1 $285 $382 #
point $-1 -1.4435410832505156 -18.34609861150539 4.8543893106273934 #
vertex $-1 $289 $383 #
point $-1 4.041084133683519 -18.34609861150539 4.8543893106273934 #
straight-curve $-1 -53.17911313211463 25.469073772197277 0 0 0 -1 I I #
point $-1 -53.17911313211463 -25.469073772197277 -11.581911088900501 #
straight-curve $-1 -53.17911313211463 0 -11.581911088900501 0 1 0 I I #
point $-1 -53.17911313211463 25.469073772197277 -11.581911088900501 #
coedge $-1 $318 $317 $310 $364 reversed $222 $-1 #
edge $-1 $365 -25.469073772197277 $367 25.469073772197277 $363 $384 forward 7 unknown #
vertex $-1 $364 $385 #
straight-curve $-1 0 -25.469073772197277 -11.581911088900501 -1 0 0 I I #
vertex $-1 $313 $386 #
straight-curve $-1 0 25.469073772197277 -11.581911088900501 1 0 0 I I #
point $-1 -39.22025046344806 25.469073772197277 -11.581911088900501 #
straight-curve $-1 -53.17911313211463 25.469073772197277 0 0 0 -1 I I #
straight-curve $-1 -53.17911313211463 -25.469073772197277 0 0 0 -1 I I #
straight-curve $-1 24.043305207129105 -6.6469572856061561 -11.581911088900501 1 0 0 I I #
straight-curve $-1 24.043305207129105 -6.6469572856061561 11.581911088900501 -1 0 0 I I #
point $-1 53.17911313211463 -6.6469572856061561 -11.581911088900501 #
point $-1 53.17911313211463 -6.6469572856061561 11.581911088900501 #
straight-curve $-1 53.17911313211463 0 -11.581911088900501 0 -1 0 I I #
straight-curve $-1 53.17911313211463 0 11.581911088900501 0 1 0 I I #
straight-curve $-1 -6.0999578945398731 -25.469073772197277 42.337685392913897 0 0 -1 I I #
point $-1 -6.0999578945398731 -25.469073772197277 11.581911088900501 #
straight-curve $-1 0.14938576260825087 -25.469073772197277 3.2002432812059305 1 0 0 I I #
point $-1 -6.0999578945398731 -25.469073772197277 3.2002432812059305 #
point $-1 -2.4435410832505156 -17.703310993918343 4.0883448741377286 #
point $-1 3.041084133683519 -17.703310993918343 4.0883448741377286 #
straight-curve $-1 -53.17911313211463 0 -11.581911088900501 0 1 0 I I #
point $-1 -53.17911313211463 -25.469073772197277 -11.581911088900501 #
point $-1 -53.17911313211463 25.469073772197277 -11.581911088900501 #
End-of-ACIS-data 