500 0 6 0           
7 Unknown 11 ACIS 5.0 NT 24 Fri Mar 26 00:44:53 1999 
-1 9.9999999999999995e-007 1e-010 
body $-1 $6 $-1 $7 #
body $-1 $8 $-1 $9 #
body $-1 $10 $-1 $11 #
body $-1 $12 $-1 $13 #
body $-1 $14 $-1 $15 #
body $-1 $16 $-1 $17 #
lump $-1 $-1 $18 $0 #
transform $-1 1 0 0 0 1 0 0 0 1 65.992004150517289 41.972300256320544 11.37416416992779 1 rotate no_reflect no_shear #
lump $-1 $-1 $19 $1 #
transform $-1 1 0 0 0 1 0 0 0 1 65.992004150517289 41.972300256320544 11.37416416992779 1 rotate no_reflect no_shear #
lump $-1 $-1 $20 $2 #
transform $-1 1 0 0 0 1 0 0 0 1 65.992004150517289 41.972300256320544 11.37416416992779 1 rotate no_reflect no_shear #
lump $-1 $-1 $21 $3 #
transform $-1 1 0 0 0 1 0 0 0 1 65.992004150517289 41.972300256320544 11.37416416992779 1 rotate no_reflect no_shear #
lump $-1 $-1 $22 $4 #
transform $-1 1 0 0 0 1 0 0 0 1 65.992004150517289 41.972300256320544 11.37416416992779 1 rotate no_reflect no_shear #
lump $-1 $-1 $23 $5 #
transform $-1 1 0 0 0 1 0 0 0 1 65.992004150517289 41.972300256320544 11.37416416992779 1 rotate no_reflect no_shear #
shell $-1 $-1 $-1 $24 $-1 $6 #
shell $-1 $-1 $-1 $25 $-1 $8 #
shell $-1 $-1 $-1 $26 $-1 $10 #
shell $-1 $-1 $-1 $27 $-1 $12 #
shell $-1 $-1 $-1 $28 $-1 $14 #
shell $-1 $-1 $-1 $29 $-1 $16 #
face $-1 $30 $31 $18 $-1 $32 forward single #
face $-1 $33 $34 $19 $-1 $35 forward single #
face $-1 $36 $37 $20 $-1 $38 reversed single #
face $-1 $39 $40 $21 $-1 $41 forward single #
face $-1 $42 $43 $22 $-1 $44 forward single #
face $-1 $45 $46 $23 $-1 $47 forward single #
face $-1 $48 $49 $18 $-1 $50 reversed single #
loop $-1 $-1 $51 $24 #
plane-surface $-1 0 0 11.37416416992779 0 0 1 1 0 0 forward_v I I I I #
face $-1 $52 $53 $19 $-1 $54 forward single #
loop $-1 $-1 $55 $25 #
plane-surface $-1 -65.992004150517289 0 0 1 0 0 0 0 -1 forward_v I I I I #
face $-1 $56 $57 $20 $-1 $58 reversed single #
loop $-1 $-1 $59 $26 #
plane-surface $-1 43.335661530314241 75.941293039210194 154.00228664640534 1 0 0 0 -0.70710678939079041 -0.70710677298230451 forward_v I I I I #
face $-1 $60 $61 $21 $-1 $62 forward single #
loop $-1 $63 $64 $27 #
cone-surface $-1 47.866930054354853 35.850867445412675 5.252731267707194 0 -0.70710678939079041 -0.70710677298230451 1 0 0 1 I I 0 1 1 forward I I I I #
face $-1 $65 $66 $22 $-1 $67 forward single #
loop $-1 $68 $69 $28 #
cone-surface $-1 54.663832840415765 35.850867445412675 5.252731267707194 0 -0.70710678939079041 -0.70710677298230451 1 0 0 1 I I 0 1 1 forward I I I I #
face $-1 $70 $71 $23 $-1 $72 forward single #
loop $-1 $73 $74 $29 #
cone-surface $-1 61.460735626476676 35.850867445412675 5.252731267707194 0 -0.70710678939079041 -0.70710677298230451 1 0 0 1 I I 0 1 1 forward I I I I #
face $-1 $75 $76 $18 $-1 $77 reversed single #
loop $-1 $-1 $78 $30 #
plane-surface $-1 0 0 -11.37416416992779 0 0 1 1 0 0 forward_v I I I I #
coedge $-1 $79 $80 $81 $82 forward $31 $-1 #
face $-1 $83 $84 $19 $-1 $85 reversed single #
loop $-1 $-1 $86 $33 #
plane-surface $-1 0 0 11.37416416992779 0 0 1 1 0 0 forward_v I I I I #
coedge $-1 $87 $88 $89 $90 forward $34 $-1 #
face $-1 $91 $92 $20 $-1 $93 forward single #
loop $-1 $-1 $94 $36 #
plane-surface $-1 54.663832840415765 -17.385495321461804 60.675500451391088 0 0.70710678939079041 0.70710677298230451 1 0 0 forward_v I I I I #
coedge $-1 $95 $96 $97 $98 reversed $37 $-1 #
face $-1 $-1 $99 $21 $-1 $100 forward single #
loop $-1 $101 $102 $39 #
cone-surface $-1 47.866930054354853 34.404111459990226 3.8059753158568679 0 -0.70710678939079041 -0.70710677298230451 0.5 0 0 1 I I -0.70710678118654746 0.70710678118654746 0.5 forward I I I I #
loop $-1 $-1 $103 $27 #
coedge $-1 $64 $64 $104 $105 reversed $40 $-1 #
face $-1 $-1 $106 $22 $-1 $107 forward single #
loop $-1 $108 $109 $42 #
cone-surface $-1 54.663832840415765 34.404111459990226 3.8059753158568679 0 -0.70710678939079041 -0.70710677298230451 0.5 0 0 1 I I -0.70710678118654746 0.70710678118654746 0.5 forward I I I I #
loop $-1 $-1 $110 $28 #
coedge $-1 $69 $69 $111 $112 reversed $43 $-1 #
face $-1 $-1 $113 $23 $-1 $114 forward single #
loop $-1 $115 $116 $45 #
cone-surface $-1 61.460735626476676 34.404111459990226 3.8059753158568679 0 -0.70710678939079041 -0.70710677298230451 0.5 0 0 1 I I -0.70710678118654746 0.70710678118654746 0.5 forward I I I I #
loop $-1 $-1 $117 $29 #
coedge $-1 $74 $74 $118 $119 reversed $46 $-1 #
face $-1 $120 $121 $18 $-1 $122 reversed single #
loop $-1 $-1 $123 $48 #
plane-surface $-1 0 -41.972300256320544 0 0 1 0 0 0 1 forward_v I I I I #
coedge $-1 $124 $125 $126 $127 forward $49 $-1 #
coedge $-1 $128 $51 $129 $130 forward $31 $-1 #
coedge $-1 $51 $128 $131 $132 forward $31 $-1 #
coedge $-1 $133 $134 $51 $82 reversed $135 $-1 #
edge $-1 $136 -41.972300256320544 $137 41.972300256320544 $81 $138 forward 7 unknown #
face $-1 $139 $140 $19 $-1 $141 reversed single #
loop $-1 $-1 $142 $52 #
plane-surface $-1 -73.821755634728788 -39.060115732146549 0 1 0 0 0 0 -1 forward_v I I I I #
coedge $-1 $143 $144 $87 $145 forward $53 $-1 #
coedge $-1 $146 $55 $86 $145 reversed $34 $-1 #
coedge $-1 $55 $146 $147 $148 reversed $34 $-1 #
coedge $-1 $149 $150 $55 $90 reversed $140 $-1 #
edge $-1 $151 -11.37416416992779 $152 11.37416416992779 $89 $153 forward 7 unknown #
face $-1 $154 $155 $20 $-1 $156 reversed single #
loop $-1 $-1 $97 $56 #
plane-surface $-1 0 0 11.37416416992779 0 0 1 1 0 0 forward_v I I I I #
coedge $-1 $157 $158 $159 $160 reversed $57 $-1 #
coedge $-1 $96 $59 $161 $162 reversed $37 $-1 #
coedge $-1 $59 $95 $157 $163 reversed $37 $-1 #
coedge $-1 $159 $164 $59 $98 forward $92 $-1 #
edge $-1 $165 -4.001653736715447 $166 6.0548067036461859 $97 $167 forward 7 unknown #
loop $-1 $-1 $104 $60 #
plane-surface $-1 54.663832840415765 -17.385495321461804 60.675500451391088 0 0.70710678939079041 0.70710677298230451 1 0 0 forward_v I I I I #
loop $-1 $-1 $168 $39 #
coedge $-1 $102 $102 $103 $169 reversed $61 $-1 #
coedge $-1 $103 $103 $102 $169 forward $63 $-1 #
coedge $-1 $104 $104 $64 $105 forward $99 $-1 #
edge $-1 $170 -6.2803699076034151e-016 $170 6.2831853071795996 $104 $171 forward 7 unknown #
loop $-1 $-1 $111 $65 #
plane-surface $-1 54.663832840415765 -17.385495321461804 60.675500451391088 0 0.70710678939079041 0.70710677298230451 1 0 0 forward_v I I I I #
loop $-1 $-1 $172 $42 #
coedge $-1 $109 $109 $110 $173 reversed $66 $-1 #
coedge $-1 $110 $110 $109 $173 forward $68 $-1 #
coedge $-1 $111 $111 $69 $112 forward $106 $-1 #
edge $-1 $174 -6.2803699076034151e-016 $174 6.2831853071795996 $111 $175 forward 7 unknown #
loop $-1 $-1 $118 $70 #
plane-surface $-1 54.663832840415765 -17.385495321461804 60.675500451391088 0 0.70710678939079041 0.70710677298230451 1 0 0 forward_v I I I I #
loop $-1 $-1 $176 $45 #
coedge $-1 $116 $116 $117 $177 reversed $71 $-1 #
coedge $-1 $117 $117 $116 $177 forward $73 $-1 #
coedge $-1 $118 $118 $74 $119 forward $113 $-1 #
edge $-1 $178 -6.2803699076034151e-016 $178 6.2831853071795996 $118 $179 forward 7 unknown #
face $-1 $180 $181 $18 $-1 $182 reversed single #
loop $-1 $-1 $183 $75 #
plane-surface $-1 -65.992004150517289 0 0 1 0 0 0 0 -1 forward_v I I I I #
coedge $-1 $184 $131 $185 $186 forward $76 $-1 #
coedge $-1 $187 $78 $184 $188 forward $49 $-1 #
coedge $-1 $78 $187 $189 $190 forward $49 $-1 #
coedge $-1 $134 $133 $78 $127 reversed $135 $-1 #
edge $-1 $191 -41.972300256320544 $192 41.972300256320544 $126 $193 forward 7 unknown #
coedge $-1 $80 $79 $183 $194 forward $31 $-1 #
coedge $-1 $195 $196 $79 $130 reversed $181 $-1 #
edge $-1 $137 -65.992004150517289 $197 65.992004150517289 $129 $198 forward 7 unknown #
coedge $-1 $123 $199 $80 $132 reversed $76 $-1 #
edge $-1 $200 -65.992004150517289 $136 65.992004150517289 $131 $201 forward 7 unknown #
coedge $-1 $126 $81 $199 $202 forward $135 $-1 #
coedge $-1 $81 $126 $195 $203 reversed $135 $-1 #
loop $-1 $-1 $133 $180 #
vertex $-1 $82 $204 #
vertex $-1 $82 $205 #
straight-curve $-1 65.992004150517289 0 11.37416416992779 0 1 0 I I #
face $-1 $206 $207 $19 $-1 $208 reversed single #
loop $-1 $-1 $89 $83 #
plane-surface $-1 -69.906879892623039 -36.147931207972555 0 0 -1 0 0 0 -1 forward_v I I I I #
coedge $-1 $209 $210 $211 $212 forward $84 $-1 #
coedge $-1 $213 $86 $150 $214 forward $53 $-1 #
coedge $-1 $86 $213 $215 $216 forward $53 $-1 #
edge $-1 $217 -41.972300256320544 $152 -36.147931207972555 $86 $218 forward 7 unknown #
coedge $-1 $88 $87 $219 $220 reversed $34 $-1 #
coedge $-1 $221 $222 $88 $148 forward $207 $-1 #
edge $-1 $151 36.147931207972555 $223 41.972300256320544 $147 $224 forward 7 unknown #
coedge $-1 $211 $89 $222 $225 reversed $140 $-1 #
coedge $-1 $89 $211 $143 $214 reversed $140 $-1 #
vertex $-1 $148 $226 #
vertex $-1 $214 $227 #
straight-curve $-1 -65.992004150517289 -36.147931207972555 0 0 0 1 I I #
face $-1 $-1 $228 $20 $-1 $229 reversed single #
loop $-1 $-1 $230 $91 #
plane-surface $-1 65.992004150517289 0 0 -1 0 0 0 0 1 forward_v I I I I #
coedge $-1 $231 $94 $96 $163 forward $57 $-1 #
coedge $-1 $94 $231 $230 $232 reversed $57 $-1 #
coedge $-1 $233 $97 $94 $160 forward $92 $-1 #
edge $-1 $166 16.003745110106358 $234 38.660087730309407 $159 $235 forward 7 unknown #
coedge $-1 $236 $237 $95 $162 forward $228 $-1 #
edge $-1 $238 -75.683439826997727 $165 -65.626979153274874 $161 $239 forward 7 unknown #
edge $-1 $166 69.722617603401901 $238 83.944600512641117 $96 $240 forward 7 unknown #
coedge $-1 $97 $233 $236 $241 forward $92 $-1 #
vertex $-1 $162 $242 #
vertex $-1 $98 $243 #
straight-curve $-1 43.335661530314241 37.970646519605097 11.374164169927795 0 -1 0 I I #
coedge $-1 $168 $168 $-1 $244 reversed $101 $-1 #
edge $-1 $245 0 $245 6.2831853071796004 $102 $246 forward 7 unknown #
vertex $-1 $105 $247 #
ellipse-curve $-1 47.866930054354853 36.944070036139728 6.3459338330663675 0 0.70710678939079041 0.70710677298230451 1 0 0 1 I I #
coedge $-1 $172 $172 $-1 $248 reversed $108 $-1 #
edge $-1 $249 0 $249 6.2831853071796004 $109 $250 forward 7 unknown #
vertex $-1 $112 $251 #
ellipse-curve $-1 54.663832840415765 36.944070036139728 6.3459338330663675 0 0.70710678939079041 0.70710677298230451 1 0 0 1 I I #
coedge $-1 $176 $176 $-1 $252 reversed $115 $-1 #
edge $-1 $253 0 $253 6.2831853071796004 $116 $254 forward 7 unknown #
vertex $-1 $119 $255 #
ellipse-curve $-1 61.460735626476676 36.944070036139728 6.3459338330663675 0 0.70710678939079041 0.70710677298230451 1 0 0 1 I I #
face $-1 $-1 $135 $18 $-1 $256 reversed single #
loop $-1 $-1 $195 $120 #
plane-surface $-1 0 41.972300256320544 0 0 -1 0 0 0 -1 forward_v I I I I #
coedge $-1 $257 $185 $128 $194 reversed $121 $-1 #
coedge $-1 $199 $123 $124 $188 reversed $76 $-1 #
coedge $-1 $183 $258 $123 $186 reversed $121 $-1 #
edge $-1 $200 -11.37416416992779 $259 11.37416416992779 $185 $260 forward 7 unknown #
coedge $-1 $125 $124 $258 $261 forward $49 $-1 #
edge $-1 $192 -65.992004150517289 $259 65.992004150517289 $184 $262 forward 7 unknown #
coedge $-1 $196 $195 $125 $190 reversed $181 $-1 #
edge $-1 $263 -65.992004150517289 $191 65.992004150517289 $189 $264 forward 7 unknown #
vertex $-1 $127 $265 #
vertex $-1 $202 $266 #
straight-curve $-1 65.992004150517289 0 -11.37416416992779 0 -1 0 I I #
edge $-1 $197 -41.972300256320544 $200 41.972300256320544 $183 $267 forward 7 unknown #
coedge $-1 $189 $129 $134 $203 forward $181 $-1 #
coedge $-1 $129 $189 $257 $268 reversed $181 $-1 #
vertex $-1 $130 $269 #
straight-curve $-1 0 41.972300256320544 11.37416416992779 -1 0 0 I I #
coedge $-1 $131 $184 $133 $202 reversed $76 $-1 #
vertex $-1 $194 $270 #
straight-curve $-1 0 -41.972300256320544 11.37416416992779 1 0 0 I I #
edge $-1 $136 -11.37416416992779 $192 11.37416416992779 $133 $271 forward 7 unknown #
edge $-1 $137 -11.37416416992779 $191 11.37416416992779 $134 $272 forward 7 unknown #
point $-1 65.992004150517289 -41.972300256320544 11.37416416992779 #
point $-1 65.992004150517289 41.972300256320544 11.37416416992779 #
face $-1 $-1 $273 $19 $-1 $274 reversed single #
loop $-1 $-1 $147 $139 #
plane-surface $-1 0 0 -11.37416416992779 0 0 1 1 0 0 forward_v I I I I #
coedge $-1 $275 $142 $276 $277 reversed $84 $-1 #
coedge $-1 $142 $275 $213 $278 reversed $84 $-1 #
coedge $-1 $150 $149 $142 $212 reversed $140 $-1 #
edge $-1 $279 -11.37416416992779 $280 11.37416416992779 $211 $281 forward 7 unknown #
coedge $-1 $144 $143 $210 $278 forward $53 $-1 #
edge $-1 $152 -3.9148757421057496 $279 3.9148757421057496 $150 $282 forward 7 unknown #
coedge $-1 $283 $219 $144 $216 reversed $273 $-1 #
edge $-1 $284 -73.821755634728788 $217 -65.992004150517289 $215 $285 forward 7 unknown #
vertex $-1 $220 $286 #
straight-curve $-1 -65.992004150517289 0 11.37416416992779 0 1 0 I I #
coedge $-1 $215 $287 $146 $220 forward $273 $-1 #
edge $-1 $223 -11.37416416992779 $217 11.37416416992779 $219 $288 forward 7 unknown #
coedge $-1 $276 $147 $287 $289 forward $207 $-1 #
coedge $-1 $147 $276 $149 $225 forward $207 $-1 #
vertex $-1 $289 $290 #
straight-curve $-1 -65.992004150517289 0 -11.37416416992779 0 -1 0 I I #
edge $-1 $280 -3.9148757421057496 $151 3.9148757421057496 $149 $291 forward 7 unknown #
point $-1 -65.992004150517289 -36.147931207972555 -11.37416416992779 #
point $-1 -65.992004150517289 -36.147931207972555 11.37416416992779 #
loop $-1 $-1 $161 $154 #
plane-surface $-1 0 41.972300256320544 0 0 -1 0 0 0 -1 forward_v I I I I #
coedge $-1 $292 $293 $158 $232 forward $155 $-1 #
coedge $-1 $158 $157 $237 $294 reversed $57 $-1 #
edge $-1 $234 42.12388769724167 $295 56.345870606480887 $230 $296 forward 7 unknown #
coedge $-1 $164 $159 $293 $297 forward $92 $-1 #
vertex $-1 $297 $298 #
straight-curve $-1 27.331916420207882 31.915839815958911 11.374164169927788 1 0 0 I I #
coedge $-1 $299 $161 $164 $241 reversed $228 $-1 #
coedge $-1 $161 $299 $231 $294 forward $228 $-1 #
vertex $-1 $162 $300 #
straight-curve $-1 43.335661530314241 41.972300256320544 77.001143323202669 0 0 1 I I #
straight-curve $-1 43.335661530314241 -17.385495321461804 60.675500451391088 0 0.70710677298230451 -0.70710678939079041 I I #
edge $-1 $301 -65.992004150517289 $165 -43.335661530314241 $236 $302 forward 7 unknown #
point $-1 43.335661530314241 41.972300256320544 11.37416416992779 #
point $-1 43.335661530314241 31.915839815958911 11.374164169927788 #
edge $-1 $303 1 $303 0 $168 $-1 forward 7 unknown #
vertex $-1 $169 $304 #
ellipse-curve $-1 47.866930054354853 34.757664854685622 4.1595287023480205 0 0.70710678939079041 0.70710677298230451 1 0 0 1 I I #
point $-1 48.866930054354853 36.944070036139728 6.3459338330663684 #
edge $-1 $305 1 $305 0 $172 $-1 forward 7 unknown #
vertex $-1 $173 $306 #
ellipse-curve $-1 54.663832840415765 34.757664854685622 4.1595287023480205 0 0.70710678939079041 0.70710677298230451 1 0 0 1 I I #
point $-1 55.663832840415765 36.944070036139728 6.3459338330663684 #
edge $-1 $307 1 $307 0 $176 $-1 forward 7 unknown #
vertex $-1 $177 $308 #
ellipse-curve $-1 61.460735626476676 34.757664854685622 4.1595287023480205 0 0.70710678939079041 0.70710677298230451 1 0 0 1 I I #
point $-1 62.460735626476676 36.944070036139728 6.3459338330663684 #
plane-surface $-1 65.992004150517289 0 0 -1 0 0 0 0 1 forward_v I I I I #
coedge $-1 $258 $183 $196 $268 forward $121 $-1 #
coedge $-1 $185 $257 $187 $261 reversed $121 $-1 #
vertex $-1 $261 $309 #
straight-curve $-1 -65.992004150517289 -41.972300256320544 0 0 0 -1 I I #
edge $-1 $259 -41.972300256320544 $263 41.972300256320544 $258 $310 forward 7 unknown #
straight-curve $-1 0 -41.972300256320544 -11.37416416992779 -1 0 0 I I #
vertex $-1 $190 $311 #
straight-curve $-1 0 41.972300256320544 -11.37416416992779 1 0 0 I I #
point $-1 65.992004150517289 41.972300256320544 -11.37416416992779 #
point $-1 65.992004150517289 -41.972300256320544 -11.37416416992779 #
straight-curve $-1 -65.992004150517289 0 11.37416416992779 0 -1 0 I I #
edge $-1 $197 -11.37416416992779 $263 11.37416416992779 $196 $312 forward 7 unknown #
point $-1 -65.992004150517289 41.972300256320544 11.37416416992779 #
point $-1 -65.992004150517289 -41.972300256320544 11.37416416992779 #
straight-curve $-1 65.992004150517289 -41.972300256320544 0 0 0 -1 I I #
straight-curve $-1 65.992004150517289 41.972300256320544 0 0 0 -1 I I #
loop $-1 $-1 $219 $206 #
plane-surface $-1 0 -41.972300256320544 0 0 1 0 0 0 1 forward_v I I I I #
coedge $-1 $210 $209 $283 $313 reversed $84 $-1 #
coedge $-1 $222 $221 $209 $277 forward $207 $-1 #
edge $-1 $314 -2.9121845241739948 $280 2.9121845241739948 $209 $315 forward 7 unknown #
edge $-1 $279 -2.9121845241739948 $284 2.9121845241739948 $210 $316 forward 7 unknown #
vertex $-1 $214 $317 #
vertex $-1 $225 $318 #
straight-curve $-1 -73.821755634728788 -36.147931207972555 0 0 0 -1 I I #
straight-curve $-1 -69.906879892623039 -36.147931207972555 11.37416416992779 -1 0 0 I I #
coedge $-1 $287 $215 $275 $313 forward $273 $-1 #
vertex $-1 $278 $319 #
straight-curve $-1 0 -41.972300256320544 11.37416416992779 1 0 0 I I #
point $-1 -65.992004150517289 -41.972300256320544 11.37416416992779 #
coedge $-1 $219 $283 $221 $289 reversed $273 $-1 #
straight-curve $-1 -65.992004150517289 -41.972300256320544 0 0 0 1 I I #
edge $-1 $223 -3.9148757421057496 $314 3.9148757421057496 $287 $320 forward 7 unknown #
point $-1 -65.992004150517289 -41.972300256320544 -11.37416416992779 #
straight-curve $-1 -69.906879892623039 -36.147931207972555 -11.37416416992779 1 0 0 I I #
coedge $-1 $293 $230 $299 $321 reversed $155 $-1 #
coedge $-1 $230 $292 $233 $297 reversed $155 $-1 #
edge $-1 $295 -38.660087730309407 $238 -16.003745110106358 $237 $322 forward 7 unknown #
vertex $-1 $232 $323 #
straight-curve $-1 65.992004150517289 2.1297535208933613 41.160251156182554 0 0.70710677298230462 -0.70710678939079052 I I #
edge $-1 $234 31.915839815958911 $301 41.972300256320544 $293 $324 forward 7 unknown #
point $-1 65.992004150517289 31.915839815958911 11.374164169927788 #
coedge $-1 $237 $236 $292 $321 forward $228 $-1 #
point $-1 43.335661530314241 41.972300256320537 1.317703496204949 #
vertex $-1 $297 $325 #
straight-curve $-1 0 41.972300256320544 11.37416416992779 -1 0 0 I I #
vertex $-1 $244 $326 #
point $-1 48.866930054354853 34.757664854685622 4.1595287023480205 #
vertex $-1 $248 $327 #
point $-1 55.663832840415765 34.757664854685622 4.1595287023480205 #
vertex $-1 $252 $328 #
point $-1 62.460735626476676 34.757664854685622 4.1595287023480205 #
point $-1 -65.992004150517289 -41.972300256320544 -11.37416416992779 #
straight-curve $-1 -65.992004150517289 0 -11.37416416992779 0 1 0 I I #
point $-1 -65.992004150517289 41.972300256320544 -11.37416416992779 #
straight-curve $-1 -65.992004150517289 41.972300256320544 0 0 0 -1 I I #
edge $-1 $284 -11.37416416992779 $314 11.37416416992779 $275 $329 forward 7 unknown #
vertex $-1 $277 $330 #
straight-curve $-1 -73.821755634728788 -39.060115732146549 -11.37416416992779 0 1 0 I I #
straight-curve $-1 -73.821755634728788 -39.060115732146549 11.37416416992779 0 -1 0 I I #
point $-1 -73.821755634728788 -36.147931207972555 11.37416416992779 #
point $-1 -73.821755634728788 -36.147931207972555 -11.37416416992779 #
point $-1 -73.821755634728788 -41.972300256320544 11.37416416992779 #
straight-curve $-1 -69.906879892623039 -41.972300256320544 -11.37416416992779 -1 0 0 I I #
edge $-1 $301 -11.37416416992779 $295 -1.317703496204949 $292 $331 forward 7 unknown #
straight-curve $-1 27.331916420207882 41.972300256320544 1.317703496204949 -1 0 0 I I #
point $-1 65.992004150517289 41.972300256320537 1.317703496204949 #
straight-curve $-1 65.992004150517289 0 11.37416416992779 0 1 0 I I #
point $-1 65.992004150517289 41.972300256320544 11.37416416992779 #
point $-1 47.866930054354853 34.05055806529483 3.4524219293657157 #
point $-1 54.663832840415765 34.05055806529483 3.4524219293657157 #
point $-1 61.460735626476676 34.05055806529483 3.4524219293657157 #
straight-curve $-1 -73.821755634728788 -41.972300256320544 0 0 0 -1 I I #
point $-1 -73.821755634728788 -41.972300256320544 -11.37416416992779 #
straight-curve $-1 65.992004150517289 41.972300256320544 0 0 0 -1 I I #
End-of-ACIS-data 