500 0 8 0           
7 Unknown 11 ACIS 5.0 NT 24 Thu Mar 25 20:56:38 1999 
-1 9.9999999999999995e-007 1e-010 
body $-1 $8 $-1 $9 #
body $-1 $10 $-1 $11 #
body $-1 $12 $-1 $13 #
body $-1 $14 $-1 $15 #
body $-1 $16 $-1 $17 #
body $-1 $18 $-1 $19 #
body $-1 $20 $-1 $21 #
body $-1 $22 $-1 $23 #
lump $-1 $-1 $24 $0 #
transform $-1 1 0 0 0 1 0 0 0 1 53.353679006317336 23.637339011777321 10.332994903552304 1 rotate no_reflect no_shear #
lump $-1 $-1 $25 $1 #
transform $-1 1 0 0 0 1 0 0 0 1 53.353679006317336 23.637339011777321 10.332994903552304 1 rotate no_reflect no_shear #
lump $-1 $-1 $26 $2 #
transform $-1 1 0 0 0 1 0 0 0 1 53.353679006317336 23.637339011777321 10.332994903552304 1 rotate no_reflect no_shear #
lump $-1 $-1 $27 $3 #
transform $-1 1 0 0 0 1 0 0 0 1 53.353679006317336 23.637339011777321 10.332994903552304 1 rotate no_reflect no_shear #
lump $-1 $-1 $28 $4 #
transform $-1 1 0 0 0 1 0 0 0 1 53.353679006317336 23.637339011777321 10.332994903552304 1 rotate no_reflect no_shear #
lump $-1 $-1 $29 $5 #
transform $-1 1 0 0 0 1 0 0 0 1 53.353679006317336 23.637339011777321 10.332994903552304 1 rotate no_reflect no_shear #
lump $-1 $-1 $30 $6 #
transform $-1 1 0 0 0 1 0 0 0 1 53.353679006317336 23.637339011777321 10.332994903552304 1 rotate no_reflect no_shear #
lump $-1 $-1 $31 $7 #
transform $-1 1 0 0 0 1 0 0 0 1 53.353679006317336 23.637339011777321 10.332994903552304 1 rotate no_reflect no_shear #
shell $-1 $-1 $-1 $32 $-1 $8 #
shell $-1 $-1 $-1 $33 $-1 $10 #
shell $-1 $-1 $-1 $34 $-1 $12 #
shell $-1 $-1 $-1 $35 $-1 $14 #
shell $-1 $-1 $-1 $36 $-1 $16 #
shell $-1 $-1 $-1 $37 $-1 $18 #
shell $-1 $-1 $-1 $38 $-1 $20 #
shell $-1 $-1 $-1 $39 $-1 $22 #
face $-1 $40 $41 $24 $-1 $42 forward single #
face $-1 $43 $44 $25 $-1 $45 reversed single #
face $-1 $46 $47 $26 $-1 $48 reversed single #
face $-1 $49 $50 $27 $-1 $51 forward single #
face $-1 $52 $53 $28 $-1 $54 forward single #
face $-1 $55 $56 $29 $-1 $57 reversed single #
face $-1 $58 $59 $30 $-1 $60 forward single #
face $-1 $61 $62 $31 $-1 $63 forward single #
face $-1 $64 $65 $24 $-1 $66 reversed single #
loop $-1 $-1 $67 $32 #
plane-surface $-1 0 0 10.332994903552304 0 0 1 1 0 0 forward_v I I I I #
face $-1 $68 $69 $25 $-1 $70 reversed single #
loop $-1 $-1 $71 $33 #
plane-surface $-1 -46.76960893574509 -20.50757835458311 0 0 1 0 0 0 1 forward_v I I I I #
face $-1 $72 $73 $26 $-1 $74 reversed single #
loop $-1 $-1 $75 $34 #
plane-surface $-1 18.253557605205877 -83.307337136066906 90.117113007291337 -1 0 0 0 -0.55919291073839883 0.82903756765294845 forward_v I I I I #
face $-1 $76 $77 $27 $-1 $78 forward single #
loop $-1 $79 $80 $35 #
cone-surface $-1 11.298543670500976 -16.814572318314319 5.4172647950192356 0 0.55919291073839883 -0.82903756765294845 1 0 0 1 I I 0 1 1 forward I I I I #
face $-1 $81 $82 $28 $-1 $83 forward single #
loop $-1 $84 $85 $36 #
cone-surface $-1 15.471552031323924 -16.814572318314319 5.4172647950192356 0 0.55919291073839883 -0.82903756765294845 1 0 0 1 I I 0 1 1 forward I I I I #
face $-1 $86 $87 $29 $-1 $88 reversed single #
loop $-1 $-1 $89 $37 #
plane-surface $-1 2.2869772651928599 52.079994927102668 113.92712409842039 1 0 0 0 -0.61566148304635926 -0.78801074757464917 forward_v I I I I #
face $-1 $90 $91 $30 $-1 $92 forward single #
loop $-1 $93 $94 $38 #
cone-surface $-1 6.4614129647692948 16.554166025425825 4.3297881825285431 0 -0.61566148304635926 -0.78801074757464917 1.5 0 0 1 I I 0 1 1.5 forward I I I I #
face $-1 $95 $96 $31 $-1 $97 forward single #
loop $-1 $98 $99 $39 #
cone-surface $-1 12.723066514133947 16.554166025425825 4.3297881825285431 0 -0.61566148304635926 -0.78801074757464917 1.5 0 0 1 I I 0 1 1.5 forward I I I I #
face $-1 $100 $101 $24 $-1 $102 reversed single #
loop $-1 $-1 $103 $40 #
plane-surface $-1 0 0 -10.332994903552304 0 0 1 1 0 0 forward_v I I I I #
coedge $-1 $104 $105 $106 $107 forward $41 $-1 #
face $-1 $108 $109 $25 $-1 $110 reversed single #
loop $-1 $-1 $111 $43 #
plane-surface $-1 -46.76960893574509 -16.511430461373614 0 0 -1 0 0 0 -1 forward_v I I I I #
coedge $-1 $112 $113 $114 $115 reversed $44 $-1 #
face $-1 $116 $117 $26 $-1 $118 reversed single #
loop $-1 $-1 $119 $46 #
plane-surface $-1 13.385047850912443 -23.637339011777321 1.6527044698243287 0 -0.55919291073839883 0.82903756765294845 1 0 0 forward_v I I I I #
coedge $-1 $120 $121 $122 $123 reversed $47 $-1 #
face $-1 $-1 $124 $27 $-1 $125 forward single #
loop $-1 $126 $127 $49 #
cone-surface $-1 11.298543670500976 -16.146738944007065 4.4271611195236815 0 0.55919291073839883 -0.82903756765294845 0.5 0 0 1 I I -0.70710678118654746 0.70710678118654746 0.5 forward I I I I #
loop $-1 $-1 $128 $35 #
coedge $-1 $80 $80 $129 $130 reversed $50 $-1 #
face $-1 $-1 $131 $28 $-1 $132 forward single #
loop $-1 $133 $134 $52 #
cone-surface $-1 15.471552031323924 -16.146738944007065 4.4271611195236815 0 0.55919291073839883 -0.82903756765294845 0.5 0 0 1 I I -0.70710678118654746 0.70710678118654746 0.5 forward I I I I #
loop $-1 $-1 $135 $36 #
coedge $-1 $85 $85 $136 $137 reversed $53 $-1 #
face $-1 $138 $139 $29 $-1 $140 reversed single #
loop $-1 $-1 $141 $55 #
plane-surface $-1 9.592239739451621 -13.615615358914802 29.840579139168412 0 0.61566148304635926 0.78801074757464917 1 0 0 forward_v I I I I #
coedge $-1 $142 $143 $144 $145 reversed $56 $-1 #
face $-1 $-1 $146 $30 $-1 $147 forward single #
loop $-1 $148 $149 $58 #
cone-surface $-1 6.4614129647692948 15.151439760920361 2.53438047427613 0 -0.61566148304635926 -0.78801074757464917 0.75 0 0 1 I I -0.70710678118654757 0.70710678118654757 0.75 forward I I I I #
loop $-1 $-1 $150 $38 #
coedge $-1 $94 $94 $151 $152 reversed $59 $-1 #
face $-1 $-1 $153 $31 $-1 $154 forward single #
loop $-1 $155 $156 $61 #
cone-surface $-1 12.723066514133947 15.151439760920361 2.53438047427613 0 -0.61566148304635926 -0.78801074757464917 0.75 0 0 1 I I -0.70710678118654757 0.70710678118654757 0.75 forward I I I I #
loop $-1 $-1 $157 $39 #
coedge $-1 $99 $99 $158 $159 reversed $62 $-1 #
face $-1 $160 $161 $24 $-1 $162 reversed single #
loop $-1 $-1 $163 $64 #
plane-surface $-1 0 -23.637339011777321 0 0 1 0 0 0 1 forward_v I I I I #
coedge $-1 $164 $165 $166 $167 forward $65 $-1 #
coedge $-1 $168 $67 $169 $170 forward $41 $-1 #
coedge $-1 $67 $168 $171 $172 forward $41 $-1 #
coedge $-1 $173 $174 $67 $107 reversed $175 $-1 #
edge $-1 $176 -23.637339011777321 $177 23.637339011777321 $106 $178 forward 7 unknown #
face $-1 $179 $180 $25 $-1 $181 reversed single #
loop $-1 $-1 $182 $68 #
plane-surface $-1 -40.185538865172845 -18.509504407978362 0 -1 0 0 0 0 1 forward_v I I I I #
coedge $-1 $183 $184 $185 $186 forward $69 $-1 #
coedge $-1 $187 $71 $188 $189 reversed $44 $-1 #
coedge $-1 $71 $187 $190 $191 reversed $44 $-1 #
coedge $-1 $192 $193 $71 $115 forward $194 $-1 #
edge $-1 $195 -10.332994903552304 $196 10.332994903552304 $114 $197 forward 7 unknown #
face $-1 $198 $199 $26 $-1 $200 reversed single #
loop $-1 $-1 $201 $72 #
plane-surface $-1 8.5165380966190085 -83.307337136066906 90.117113007291337 1 0 0 0 0.55919291073839883 -0.82903756765294845 forward_v I I I I #
coedge $-1 $202 $203 $204 $205 reversed $73 $-1 #
coedge $-1 $121 $75 $206 $207 reversed $47 $-1 #
coedge $-1 $75 $120 $202 $208 reversed $47 $-1 #
coedge $-1 $204 $209 $75 $123 forward $210 $-1 #
edge $-1 $211 18.016329556256132 $212 30.885389105306025 $122 $213 forward 7 unknown #
loop $-1 $-1 $129 $76 #
plane-surface $-1 13.385047850912443 -23.637339011777321 1.6527044698243287 0 -0.55919291073839883 0.82903756765294845 1 0 0 forward_v I I I I #
loop $-1 $-1 $214 $49 #
coedge $-1 $127 $127 $128 $215 reversed $77 $-1 #
coedge $-1 $128 $128 $127 $215 forward $79 $-1 #
coedge $-1 $129 $129 $80 $130 forward $124 $-1 #
edge $-1 $216 2.4486700310729814e-015 $216 6.2831853071796031 $129 $217 forward 7 unknown #
loop $-1 $-1 $136 $81 #
plane-surface $-1 13.385047850912443 -23.637339011777321 1.6527044698243287 0 -0.55919291073839883 0.82903756765294845 1 0 0 forward_v I I I I #
loop $-1 $-1 $218 $52 #
coedge $-1 $134 $134 $135 $219 reversed $82 $-1 #
coedge $-1 $135 $135 $134 $219 forward $84 $-1 #
coedge $-1 $136 $136 $85 $137 forward $131 $-1 #
edge $-1 $220 2.4486700310729814e-015 $220 6.2831853071796031 $136 $221 forward 7 unknown #
face $-1 $222 $223 $29 $-1 $224 reversed single #
loop $-1 $-1 $225 $86 #
plane-surface $-1 16.897502213710382 52.079994927102668 113.92712409842039 -1 0 0 0 0.61566148304635926 0.78801074757464917 forward_v I I I I #
coedge $-1 $226 $227 $228 $229 reversed $87 $-1 #
coedge $-1 $143 $89 $230 $231 reversed $56 $-1 #
coedge $-1 $89 $142 $226 $232 reversed $56 $-1 #
coedge $-1 $228 $233 $89 $145 forward $234 $-1 #
edge $-1 $235 2.4026584517740126 $236 14.687044120035605 $144 $237 forward 7 unknown #
loop $-1 $-1 $151 $90 #
plane-surface $-1 9.592239739451621 -13.615615358914802 29.840579139168412 0 0.61566148304635926 0.78801074757464917 1 0 0 forward_v I I I I #
loop $-1 $-1 $238 $58 #
coedge $-1 $149 $149 $150 $239 reversed $91 $-1 #
coedge $-1 $150 $150 $149 $239 forward $93 $-1 #
coedge $-1 $151 $151 $94 $152 forward $146 $-1 #
edge $-1 $240 3.2088459769589345e-016 $240 6.2831853071796004 $151 $241 forward 7 unknown #
loop $-1 $-1 $158 $95 #
plane-surface $-1 9.592239739451621 -13.615615358914802 29.840579139168412 0 0.61566148304635926 0.78801074757464917 1 0 0 forward_v I I I I #
loop $-1 $-1 $242 $61 #
coedge $-1 $156 $156 $157 $243 reversed $96 $-1 #
coedge $-1 $157 $157 $156 $243 forward $98 $-1 #
coedge $-1 $158 $158 $99 $159 forward $153 $-1 #
edge $-1 $244 3.2088459769589345e-016 $244 6.2831853071796004 $158 $245 forward 7 unknown #
face $-1 $246 $247 $24 $-1 $248 reversed single #
loop $-1 $-1 $249 $100 #
plane-surface $-1 -53.353679006317336 0 0 1 0 0 0 0 -1 forward_v I I I I #
coedge $-1 $250 $171 $251 $252 forward $101 $-1 #
coedge $-1 $253 $103 $250 $254 forward $65 $-1 #
coedge $-1 $103 $253 $255 $256 forward $65 $-1 #
coedge $-1 $174 $173 $103 $167 reversed $175 $-1 #
edge $-1 $257 -23.637339011777321 $258 23.637339011777321 $166 $259 forward 7 unknown #
coedge $-1 $105 $104 $260 $261 forward $41 $-1 #
coedge $-1 $262 $263 $104 $170 reversed $247 $-1 #
edge $-1 $177 -53.353679006317336 $264 53.353679006317336 $169 $265 forward 7 unknown #
coedge $-1 $163 $266 $105 $172 reversed $101 $-1 #
edge $-1 $267 -53.353679006317336 $176 53.353679006317336 $171 $268 forward 7 unknown #
coedge $-1 $166 $106 $266 $269 forward $175 $-1 #
coedge $-1 $106 $166 $262 $270 reversed $175 $-1 #
loop $-1 $-1 $173 $246 #
vertex $-1 $107 $271 #
vertex $-1 $107 $272 #
straight-curve $-1 53.353679006317336 0 10.332994903552304 0 1 0 I I #
face $-1 $273 $274 $25 $-1 $275 forward single #
loop $-1 $-1 $276 $108 #
plane-surface $-1 0 0 -10.332994903552304 0 0 1 1 0 0 forward_v I I I I #
coedge $-1 $277 $278 $187 $279 forward $109 $-1 #
coedge $-1 $280 $111 $276 $281 reversed $69 $-1 #
coedge $-1 $111 $280 $282 $283 reversed $69 $-1 #
coedge $-1 $278 $277 $111 $186 reversed $109 $-1 #
edge $-1 $284 -10.332994903552304 $285 10.332994903552304 $185 $286 forward 7 unknown #
coedge $-1 $113 $112 $182 $279 reversed $44 $-1 #
coedge $-1 $287 $288 $112 $189 forward $180 $-1 #
edge $-1 $289 16.8007343973003 $195 29.968874538444791 $188 $290 forward 7 unknown #
coedge $-1 $291 $292 $113 $191 forward $274 $-1 #
edge $-1 $196 -29.968874538444791 $293 -16.8007343973003 $190 $294 forward 7 unknown #
coedge $-1 $295 $114 $292 $296 reversed $194 $-1 #
coedge $-1 $114 $295 $287 $297 reversed $194 $-1 #
loop $-1 $-1 $295 $273 #
vertex $-1 $297 $298 #
vertex $-1 $115 $299 #
straight-curve $-1 -53.353679006317336 -20.50757835458311 0 0 0 1 I I #
face $-1 $-1 $210 $26 $-1 $300 forward single #
loop $-1 $-1 $301 $116 #
plane-surface $-1 0 -23.637339011777321 0 0 1 0 0 0 1 forward_v I I I I #
coedge $-1 $302 $303 $304 $305 reversed $117 $-1 #
coedge $-1 $306 $119 $121 $208 forward $73 $-1 #
coedge $-1 $119 $306 $302 $307 forward $73 $-1 #
coedge $-1 $304 $122 $119 $205 forward $210 $-1 #
edge $-1 $212 -11.561033679749656 $308 -1.8240141711627871 $204 $309 forward 7 unknown #
coedge $-1 $310 $311 $120 $207 forward $199 $-1 #
edge $-1 $312 -43.40585203382134 $211 -34.725561600093364 $206 $313 forward 7 unknown #
edge $-1 $212 -15.522890700216299 $312 0 $121 $314 forward 7 unknown #
coedge $-1 $122 $304 $310 $315 forward $210 $-1 #
loop $-1 $-1 $304 $198 #
vertex $-1 $207 $316 #
vertex $-1 $123 $317 #
straight-curve $-1 18.253557605205877 -41.653668568033453 10.332994903552304 0 1 0 I I #
coedge $-1 $214 $214 $-1 $318 reversed $126 $-1 #
edge $-1 $319 0 $319 6.2831853071796004 $127 $320 forward 7 unknown #
vertex $-1 $130 $321 #
ellipse-curve $-1 11.298543670500976 -17.202809237252374 5.9928496866883165 0 -0.55919291073839883 0.82903756765294845 1 0 0 1 I I #
coedge $-1 $218 $218 $-1 $322 reversed $133 $-1 #
edge $-1 $323 0 $323 6.2831853071796004 $134 $324 forward 7 unknown #
vertex $-1 $137 $325 #
ellipse-curve $-1 15.471552031323924 -17.202809237252374 5.9928496866883165 0 -0.55919291073839883 0.82903756765294845 1 0 0 1 I I #
face $-1 $-1 $234 $29 $-1 $326 forward single #
loop $-1 $-1 $327 $138 #
plane-surface $-1 0 23.637339011777321 0 0 -1 0 0 0 -1 forward_v I I I I #
coedge $-1 $328 $329 $330 $331 reversed $139 $-1 #
coedge $-1 $332 $141 $143 $232 forward $87 $-1 #
coedge $-1 $141 $332 $328 $333 forward $87 $-1 #
coedge $-1 $330 $144 $141 $229 forward $234 $-1 #
edge $-1 $236 -2.5091426045329506 $334 12.101382343984572 $228 $335 forward 7 unknown #
coedge $-1 $336 $337 $142 $231 forward $223 $-1 #
edge $-1 $338 -56.228181292562553 $235 -46.630567145657892 $230 $339 forward 7 unknown #
edge $-1 $236 31.685568730222464 $338 47.274678023554628 $143 $340 forward 7 unknown #
coedge $-1 $144 $330 $336 $341 forward $234 $-1 #
loop $-1 $-1 $330 $222 #
vertex $-1 $231 $342 #
vertex $-1 $145 $343 #
straight-curve $-1 2.2869772651928599 26.039997463551334 10.332994903552304 0 -1 0 I I #
coedge $-1 $238 $238 $-1 $344 reversed $148 $-1 #
edge $-1 $345 0 $345 6.2831853071796004 $149 $346 forward 7 unknown #
vertex $-1 $152 $347 #
ellipse-curve $-1 6.4614129647692948 17.495146177646522 5.5341878300999738 0 0.61566148304635926 0.78801074757464917 1.5 0 0 1 I I #
coedge $-1 $242 $242 $-1 $348 reversed $155 $-1 #
edge $-1 $349 0 $349 6.2831853071796004 $156 $350 forward 7 unknown #
vertex $-1 $159 $351 #
ellipse-curve $-1 12.723066514133947 17.495146177646522 5.5341878300999738 0 0.61566148304635926 0.78801074757464917 1.5 0 0 1 I I #
face $-1 $-1 $175 $24 $-1 $352 reversed single #
loop $-1 $-1 $262 $160 #
plane-surface $-1 0 23.637339011777321 0 0 -1 0 0 0 -1 forward_v I I I I #
coedge $-1 $353 $260 $263 $354 forward $161 $-1 #
coedge $-1 $266 $163 $164 $254 reversed $101 $-1 #
coedge $-1 $260 $353 $163 $252 reversed $161 $-1 #
edge $-1 $267 -10.332994903552304 $355 10.332994903552304 $251 $356 forward 7 unknown #
coedge $-1 $165 $164 $353 $357 forward $65 $-1 #
edge $-1 $258 -53.353679006317336 $355 53.353679006317336 $250 $358 forward 7 unknown #
coedge $-1 $263 $262 $165 $256 reversed $247 $-1 #
edge $-1 $359 -53.353679006317336 $257 53.353679006317336 $255 $360 forward 7 unknown #
vertex $-1 $167 $361 #
vertex $-1 $269 $362 #
straight-curve $-1 53.353679006317336 0 -10.332994903552304 0 -1 0 I I #
coedge $-1 $249 $251 $168 $261 reversed $161 $-1 #
edge $-1 $264 -23.637339011777321 $267 23.637339011777321 $260 $363 forward 7 unknown #
coedge $-1 $255 $169 $174 $270 forward $247 $-1 #
coedge $-1 $169 $255 $249 $354 reversed $247 $-1 #
vertex $-1 $170 $364 #
straight-curve $-1 0 23.637339011777321 10.332994903552304 -1 0 0 I I #
coedge $-1 $171 $250 $173 $269 reversed $101 $-1 #
vertex $-1 $261 $365 #
straight-curve $-1 0 -23.637339011777321 10.332994903552304 1 0 0 I I #
edge $-1 $176 -10.332994903552304 $258 10.332994903552304 $173 $366 forward 7 unknown #
edge $-1 $177 -10.332994903552304 $257 10.332994903552304 $174 $367 forward 7 unknown #
point $-1 53.353679006317336 -23.637339011777321 10.332994903552304 #
point $-1 53.353679006317336 23.637339011777321 10.332994903552304 #
face $-1 $-1 $194 $25 $-1 $368 reversed single #
loop $-1 $-1 $282 $179 #
plane-surface $-1 0 0 10.332994903552304 0 0 1 1 0 0 forward_v I I I I #
coedge $-1 $288 $287 $183 $281 forward $180 $-1 #
coedge $-1 $185 $182 $288 $369 reversed $109 $-1 #
coedge $-1 $182 $185 $291 $370 reversed $109 $-1 #
edge $-1 $293 -10.332994903552304 $289 10.332994903552304 $182 $371 forward 7 unknown #
coedge $-1 $184 $183 $295 $372 reversed $69 $-1 #
edge $-1 $373 -29.968874538444791 $285 -16.8007343973003 $276 $374 forward 7 unknown #
coedge $-1 $292 $291 $184 $283 forward $274 $-1 #
edge $-1 $284 16.8007343973003 $375 29.968874538444791 $282 $376 forward 7 unknown #
vertex $-1 $283 $377 #
vertex $-1 $281 $378 #
straight-curve $-1 -40.185538865172845 -16.511430461373614 0 0 0 -1 I I #
coedge $-1 $276 $188 $193 $297 forward $180 $-1 #
coedge $-1 $188 $276 $277 $369 forward $180 $-1 #
vertex $-1 $189 $379 #
straight-curve $-1 -23.384804467872545 -20.50757835458311 -10.332994903552304 -1 0 0 I I #
coedge $-1 $282 $190 $278 $370 forward $274 $-1 #
coedge $-1 $190 $282 $192 $296 forward $274 $-1 #
vertex $-1 $191 $380 #
straight-curve $-1 -23.384804467872545 -20.50757835458311 10.332994903552304 1 0 0 I I #
coedge $-1 $193 $192 $280 $372 forward $194 $-1 #
edge $-1 $375 16.511430461373614 $196 20.50757835458311 $192 $381 forward 7 unknown #
edge $-1 $195 -20.50757835458311 $373 -16.511430461373614 $193 $382 forward 7 unknown #
point $-1 -53.353679006317336 -20.50757835458311 -10.332994903552304 #
point $-1 -53.353679006317336 -20.50757835458311 10.332994903552304 #
plane-surface $-1 0 0 10.332994903552304 0 0 1 1 0 0 forward_v I I I I #
coedge $-1 $311 $310 $303 $383 forward $199 $-1 #
coedge $-1 $303 $201 $203 $307 reversed $117 $-1 #
coedge $-1 $201 $302 $301 $383 reversed $117 $-1 #
coedge $-1 $209 $204 $201 $305 forward $210 $-1 #
edge $-1 $308 -30.885389105306025 $384 -18.016329556256132 $304 $385 forward 7 unknown #
coedge $-1 $203 $202 $311 $386 reversed $73 $-1 #
edge $-1 $387 0 $308 15.522890700216299 $302 $388 forward 7 unknown #
vertex $-1 $205 $389 #
straight-curve $-1 6.6925239254562214 -10.768279462727424 10.332994903552304 -1 0 0 I I #
coedge $-1 $301 $206 $209 $315 reversed $199 $-1 #
coedge $-1 $206 $301 $306 $386 forward $199 $-1 #
vertex $-1 $207 $390 #
straight-curve $-1 18.253557605205877 -23.637339011777321 45.058556503645669 0 0 1 I I #
straight-curve $-1 18.253557605205877 -23.637339011777321 1.6527044698243287 0 -0.82903756765294845 -0.55919291073839883 I I #
edge $-1 $384 8.5165380966190085 $211 18.253557605205877 $310 $391 forward 7 unknown #
point $-1 18.253557605205877 -23.637339011777321 10.332994903552304 #
point $-1 18.253557605205877 -10.768279462727426 10.332994903552304 #
edge $-1 $392 1 $392 0 $214 $-1 forward 7 unknown #
vertex $-1 $215 $393 #
ellipse-curve $-1 11.298543670500976 -16.426335399376264 4.8416799033501556 0 -0.55919291073839883 0.82903756765294845 1 0 0 1 I I #
point $-1 12.298543670500976 -17.202809237252371 5.9928496866883156 #
edge $-1 $394 1 $394 0 $218 $-1 forward 7 unknown #
vertex $-1 $219 $395 #
ellipse-curve $-1 15.471552031323924 -16.426335399376264 4.8416799033501556 0 -0.55919291073839883 0.82903756765294845 1 0 0 1 I I #
point $-1 16.471552031323924 -17.202809237252371 5.9928496866883156 #
plane-surface $-1 0 0 10.332994903552304 0 0 1 1 0 0 forward_v I I I I #
coedge $-1 $337 $336 $329 $396 forward $223 $-1 #
coedge $-1 $329 $225 $227 $333 reversed $139 $-1 #
coedge $-1 $225 $328 $327 $396 reversed $139 $-1 #
coedge $-1 $233 $228 $225 $331 forward $234 $-1 #
edge $-1 $334 -14.687044120035605 $397 -2.4026584517740126 $330 $398 forward 7 unknown #
coedge $-1 $227 $226 $337 $399 reversed $87 $-1 #
edge $-1 $400 -47.274678023554628 $334 -31.685568730222464 $328 $401 forward 7 unknown #
vertex $-1 $229 $402 #
straight-curve $-1 4.7961198697258105 11.352953343515731 10.332994903552303 1 0 0 I I #
coedge $-1 $327 $230 $233 $341 reversed $223 $-1 #
coedge $-1 $230 $327 $332 $399 forward $223 $-1 #
vertex $-1 $231 $403 #
straight-curve $-1 2.2869772651928599 23.637339011777321 56.963562049210196 0 0 1 I I #
straight-curve $-1 2.2869772651928599 -13.615615358914802 29.840579139168412 0 0.78801074757464917 -0.61566148304635926 I I #
edge $-1 $397 -16.897502213710382 $235 -2.2869772651928599 $336 $404 forward 7 unknown #
point $-1 2.2869772651928599 23.637339011777321 10.332994903552304 #
point $-1 2.2869772651928599 11.352953343515729 10.332994903552304 #
edge $-1 $405 1 $405 0 $238 $-1 forward 7 unknown #
vertex $-1 $239 $406 #
ellipse-curve $-1 6.4614129647692948 15.613185873205131 3.1253885349571169 0 0.61566148304635926 0.78801074757464917 1.5 0 0 1 I I #
point $-1 7.9614129647692948 17.495146177646518 5.5341878300999685 #
edge $-1 $407 1 $407 0 $242 $-1 forward 7 unknown #
vertex $-1 $243 $408 #
ellipse-curve $-1 12.723066514133947 15.613185873205131 3.1253885349571169 0 0.61566148304635926 0.78801074757464917 1.5 0 0 1 I I #
point $-1 14.223066514133947 17.495146177646518 5.5341878300999685 #
plane-surface $-1 53.353679006317336 0 0 -1 0 0 0 0 1 forward_v I I I I #
coedge $-1 $251 $249 $253 $357 reversed $161 $-1 #
edge $-1 $264 -10.332994903552304 $359 10.332994903552304 $263 $409 forward 7 unknown #
vertex $-1 $357 $410 #
straight-curve $-1 -53.353679006317336 -23.637339011777321 0 0 0 -1 I I #
edge $-1 $355 -23.637339011777321 $359 23.637339011777321 $353 $411 forward 7 unknown #
straight-curve $-1 0 -23.637339011777321 -10.332994903552304 -1 0 0 I I #
vertex $-1 $256 $412 #
straight-curve $-1 0 23.637339011777321 -10.332994903552304 1 0 0 I I #
point $-1 53.353679006317336 23.637339011777321 -10.332994903552304 #
point $-1 53.353679006317336 -23.637339011777321 -10.332994903552304 #
straight-curve $-1 -53.353679006317336 0 10.332994903552304 0 -1 0 I I #
point $-1 -53.353679006317336 23.637339011777321 10.332994903552304 #
point $-1 -53.353679006317336 -23.637339011777321 10.332994903552304 #
straight-curve $-1 53.353679006317336 -23.637339011777321 0 0 0 -1 I I #
straight-curve $-1 53.353679006317336 23.637339011777321 0 0 0 -1 I I #
plane-surface $-1 -53.353679006317336 0 0 1 0 0 0 0 -1 forward_v I I I I #
edge $-1 $285 7.2566782573844328 $289 11.252826150593929 $288 $413 forward 7 unknown #
edge $-1 $293 -11.252826150593929 $284 -7.2566782573844328 $291 $414 forward 7 unknown #
straight-curve $-1 -40.185538865172845 -20.50757835458311 0 0 0 -1 I I #
edge $-1 $375 -10.332994903552304 $373 10.332994903552304 $295 $415 forward 7 unknown #
vertex $-1 $372 $416 #
straight-curve $-1 -23.384804467872545 -16.511430461373614 -10.332994903552304 1 0 0 I I #
vertex $-1 $296 $417 #
straight-curve $-1 -23.384804467872545 -16.511430461373614 10.332994903552304 -1 0 0 I I #
point $-1 -40.185538865172845 -16.511430461373614 10.332994903552304 #
point $-1 -40.185538865172845 -16.511430461373614 -10.332994903552304 #
point $-1 -40.185538865172845 -20.50757835458311 -10.332994903552304 #
point $-1 -40.185538865172845 -20.50757835458311 10.332994903552304 #
straight-curve $-1 -53.353679006317336 0 10.332994903552304 0 -1 0 I I #
straight-curve $-1 -53.353679006317336 0 -10.332994903552304 0 1 0 I I #
edge $-1 $384 34.725561600093364 $387 43.40585203382134 $301 $418 forward 7 unknown #
vertex $-1 $315 $419 #
straight-curve $-1 8.5165380966190085 -41.653668568033453 10.332994903552304 0 -1 0 I I #
edge $-1 $387 1.8240141711627871 $312 11.561033679749656 $311 $420 forward 7 unknown #
vertex $-1 $386 $421 #
straight-curve $-1 8.5165380966190085 -23.637339011777321 1.6527044698243287 0 0.82903756765294845 0.55919291073839883 I I #
point $-1 8.5165380966190085 -10.768279462727426 10.332994903552304 #
point $-1 18.253557605205877 -23.637339011777321 1.6527044698243287 #
straight-curve $-1 0 -23.637339011777321 10.332994903552304 1 0 0 I I #
vertex $-1 $318 $422 #
point $-1 12.298543670500976 -16.426335399376264 4.8416799033501556 #
vertex $-1 $322 $423 #
point $-1 16.471552031323924 -16.426335399376264 4.8416799033501556 #
edge $-1 $397 46.630567145657892 $400 56.228181292562553 $327 $424 forward 7 unknown #
vertex $-1 $341 $425 #
straight-curve $-1 16.897502213710382 26.039997463551334 10.332994903552304 0 1 0 I I #
edge $-1 $400 -12.101382343984572 $338 2.5091426045329506 $337 $426 forward 7 unknown #
vertex $-1 $399 $427 #
straight-curve $-1 16.897502213710382 -13.615615358914802 29.840579139168412 0 -0.78801074757464917 0.61566148304635926 I I #
point $-1 16.897502213710382 11.352953343515729 10.332994903552304 #
point $-1 2.2869772651928599 23.637339011777321 0.7353807566476398 #
straight-curve $-1 0 23.637339011777321 10.332994903552304 -1 0 0 I I #
vertex $-1 $344 $428 #
point $-1 7.9614129647692948 15.613185873205131 3.1253885349571169 #
vertex $-1 $348 $429 #
point $-1 14.223066514133947 15.613185873205131 3.1253885349571169 #
straight-curve $-1 -53.353679006317336 23.637339011777321 0 0 0 -1 I I #
point $-1 -53.353679006317336 -23.637339011777321 -10.332994903552304 #
straight-curve $-1 -53.353679006317336 0 -10.332994903552304 0 1 0 I I #
point $-1 -53.353679006317336 23.637339011777321 -10.332994903552304 #
straight-curve $-1 -40.185538865172845 -9.254752203989181 -10.332994903552304 0 -1 0 I I #
straight-curve $-1 -40.185538865172845 -9.254752203989181 10.332994903552304 0 1 0 I I #
straight-curve $-1 -53.353679006317336 -16.511430461373614 0 0 0 -1 I I #
point $-1 -53.353679006317336 -16.511430461373614 -10.332994903552304 #
point $-1 -53.353679006317336 -16.511430461373614 10.332994903552304 #
straight-curve $-1 8.5165380966190085 -23.637339011777321 45.058556503645669 0 0 -1 I I #
point $-1 8.5165380966190085 -23.637339011777321 10.332994903552304 #
straight-curve $-1 6.6925239254562214 -23.637339011777321 1.6527044698243294 1 0 0 I I #
point $-1 8.5165380966190085 -23.637339011777321 1.6527044698243287 #
point $-1 11.298543670500976 -15.867142488637866 4.0126423356972074 #
point $-1 15.471552031323924 -15.867142488637866 4.0126423356972074 #
straight-curve $-1 16.897502213710382 23.637339011777321 56.963562049210196 0 0 -1 I I #
point $-1 16.897502213710382 23.637339011777321 10.332994903552304 #
straight-curve $-1 4.7961198697258105 23.637339011777321 0.73538075664763802 -1 0 0 I I #
point $-1 16.897502213710382 23.637339011777321 0.7353807566476398 #
point $-1 6.4614129647692948 14.689693648635592 1.9433724135951431 #
point $-1 12.723066514133947 14.689693648635592 1.9433724135951431 #
End-of-ACIS-data 