500 0 8 0           
7 Unknown 11 ACIS 5.0 NT 24 Fri Mar 26 19:19:54 1999 
-1 9.9999999999999995e-007 1e-010 
body $-1 $8 $-1 $9 #
body $-1 $10 $-1 $11 #
body $-1 $12 $-1 $13 #
body $-1 $14 $-1 $15 #
body $-1 $16 $-1 $17 #
body $-1 $18 $-1 $19 #
body $-1 $20 $-1 $21 #
body $-1 $22 $-1 $23 #
lump $-1 $-1 $24 $0 #
transform $-1 1 0 0 0 1 0 0 0 1 67.928098391674553 36.801659629460254 11.322740909709177 1 rotate no_reflect no_shear #
lump $-1 $-1 $25 $1 #
transform $-1 1 0 0 0 1 0 0 0 1 67.928098391674553 36.801659629460254 11.322740909709177 1 rotate no_reflect no_shear #
lump $-1 $-1 $26 $2 #
transform $-1 1 0 0 0 1 0 0 0 1 67.928098391674553 36.801659629460254 11.322740909709177 1 rotate no_reflect no_shear #
lump $-1 $-1 $27 $3 #
transform $-1 1 0 0 0 1 0 0 0 1 67.928098391674553 36.801659629460254 11.322740909709177 1 rotate no_reflect no_shear #
lump $-1 $-1 $28 $4 #
transform $-1 1 0 0 0 1 0 0 0 1 67.928098391674553 36.801659629460254 11.322740909709177 1 rotate no_reflect no_shear #
lump $-1 $-1 $29 $5 #
transform $-1 1 0 0 0 1 0 0 0 1 67.928098391674553 36.801659629460254 11.322740909709177 1 rotate no_reflect no_shear #
lump $-1 $-1 $30 $6 #
transform $-1 1 0 0 0 1 0 0 0 1 67.928098391674553 36.801659629460254 11.322740909709177 1 rotate no_reflect no_shear #
lump $-1 $-1 $31 $7 #
transform $-1 1 0 0 0 1 0 0 0 1 67.928098391674553 36.801659629460254 11.322740909709177 1 rotate no_reflect no_shear #
shell $-1 $-1 $-1 $32 $-1 $8 #
shell $-1 $-1 $-1 $33 $-1 $10 #
shell $-1 $-1 $-1 $34 $-1 $12 #
shell $-1 $-1 $-1 $35 $-1 $14 #
shell $-1 $-1 $-1 $36 $-1 $16 #
shell $-1 $-1 $-1 $37 $-1 $18 #
shell $-1 $-1 $-1 $38 $-1 $20 #
shell $-1 $-1 $-1 $39 $-1 $22 #
face $-1 $40 $41 $24 $-1 $42 forward single #
face $-1 $43 $44 $25 $-1 $45 reversed single #
face $-1 $46 $47 $26 $-1 $48 forward single #
face $-1 $49 $50 $27 $-1 $51 forward single #
face $-1 $52 $53 $28 $-1 $54 forward single #
face $-1 $55 $56 $29 $-1 $57 reversed single #
face $-1 $58 $59 $30 $-1 $60 forward single #
face $-1 $61 $62 $31 $-1 $63 forward single #
face $-1 $64 $65 $24 $-1 $66 reversed single #
loop $-1 $-1 $67 $32 #
plane-surface $-1 0 0 11.322740909709177 0 0 1 1 0 0 forward_v I I I I #
face $-1 $68 $69 $25 $-1 $70 reversed single #
loop $-1 $-1 $71 $33 #
plane-surface $-1 53.659404021727454 -36.801659629460275 0.70077950895377228 0 -0.6560590369687036 0.75470957328743171 1 0 0 forward_v I I I I #
face $-1 $72 $73 $26 $-1 $74 forward single #
loop $-1 $75 $76 $34 #
cone-surface $-1 45.098187399759183 -29.163259777663498 4.2530591110463494 0 0.6560590369687036 -0.75470957328743171 2 0 0 1 I I 0 1 2 forward I I I I #
face $-1 $77 $78 $27 $-1 $79 forward single #
loop $-1 $80 $81 $35 #
cone-surface $-1 53.65940402172744 -29.163259777663498 4.2530591110463494 0 0.6560590369687036 -0.75470957328743171 2 0 0 1 I I 0 1 2 forward I I I I #
face $-1 $82 $83 $28 $-1 $84 forward single #
loop $-1 $85 $86 $36 #
cone-surface $-1 62.220620643695696 -29.163259777663498 4.2530591110463494 0 0.6560590369687036 -0.75470957328743171 2 0 0 1 I I 0 1 2 forward I I I I #
face $-1 $87 $88 $29 $-1 $89 reversed single #
loop $-1 $-1 $90 $37 #
plane-surface $-1 15.58874222919642 78.229508612492964 154.18378546585882 1 0 0 0 -0.69465837861970381 -0.71933979245794832 forward_v I I I I #
face $-1 $91 $92 $30 $-1 $93 forward single #
loop $-1 $94 $95 $38 #
cone-surface $-1 27.064397048281293 32.229498847542793 6.80491395378675 0 -0.69465837861970381 -0.71933979245794832 1.5 0 0 1 I I 0 1 1.5 forward I I I I #
face $-1 $96 $97 $31 $-1 $98 forward single #
loop $-1 $99 $100 $39 #
cone-surface $-1 44.277879276908578 32.229498847542793 6.80491395378675 0 -0.69465837861970381 -0.71933979245794832 1.5 0 0 1 I I 0 1 1.5 forward I I I I #
face $-1 $101 $102 $24 $-1 $103 reversed single #
loop $-1 $-1 $104 $40 #
plane-surface $-1 0 0 -11.322740909709177 0 0 1 1 0 0 forward_v I I I I #
coedge $-1 $105 $106 $107 $108 forward $41 $-1 #
face $-1 $109 $110 $25 $-1 $111 reversed single #
loop $-1 $-1 $112 $43 #
plane-surface $-1 39.390709651780348 -125.93134525737497 103.23275181176852 1 0 0 0 0.6560590369687036 -0.75470957328743171 forward_v I I I I #
coedge $-1 $113 $114 $115 $116 reversed $44 $-1 #
face $-1 $-1 $117 $26 $-1 $118 forward single #
loop $-1 $119 $120 $46 #
cone-surface $-1 45.098187399759183 -26.978385167532181 1.7396484394738003 0 0.6560590369687036 -0.75470957328743171 1 0 0 1 I I -0.70710678118654746 0.70710678118654746 1 forward I I I I #
loop $-1 $-1 $121 $34 #
coedge $-1 $76 $76 $122 $123 reversed $47 $-1 #
face $-1 $-1 $124 $27 $-1 $125 forward single #
loop $-1 $126 $127 $49 #
cone-surface $-1 53.65940402172744 -26.978385167532181 1.7396484394738003 0 0.6560590369687036 -0.75470957328743171 1 0 0 1 I I -0.70710678118654746 0.70710678118654746 1 forward I I I I #
loop $-1 $-1 $128 $35 #
coedge $-1 $81 $81 $129 $130 reversed $50 $-1 #
face $-1 $-1 $131 $28 $-1 $132 forward single #
loop $-1 $133 $134 $52 #
cone-surface $-1 62.220620643695696 -26.978385167532181 1.7396484394738003 0 0.6560590369687036 -0.75470957328743171 1 0 0 1 I I -0.70710678118654746 0.70710678118654746 1 forward I I I I #
loop $-1 $-1 $135 $36 #
coedge $-1 $86 $86 $136 $137 reversed $53 $-1 #
face $-1 $138 $139 $29 $-1 $140 reversed single #
loop $-1 $-1 $141 $55 #
plane-surface $-1 35.671138162594929 -16.144136770467739 56.457017067598287 0 0.69465837861970381 0.71933979245794832 1 0 0 forward_v I I I I #
coedge $-1 $142 $143 $144 $145 reversed $56 $-1 #
face $-1 $-1 $146 $30 $-1 $147 forward single #
loop $-1 $148 $149 $58 #
cone-surface $-1 27.064397048281293 30.240287435931556 4.7450252832913815 0 -0.69465837861970381 -0.71933979245794832 0.75 0 0 1 I I -0.70710678118654757 0.70710678118654757 0.75 forward I I I I #
loop $-1 $-1 $150 $38 #
coedge $-1 $95 $95 $151 $152 reversed $59 $-1 #
face $-1 $-1 $153 $31 $-1 $154 forward single #
loop $-1 $155 $156 $61 #
cone-surface $-1 44.277879276908578 30.240287435931556 4.7450252832913815 0 -0.69465837861970381 -0.71933979245794832 0.75 0 0 1 I I -0.70710678118654757 0.70710678118654757 0.75 forward I I I I #
loop $-1 $-1 $157 $39 #
coedge $-1 $100 $100 $158 $159 reversed $62 $-1 #
face $-1 $160 $161 $24 $-1 $162 reversed single #
loop $-1 $-1 $163 $64 #
plane-surface $-1 0 -36.801659629460254 0 0 1 0 0 0 1 forward_v I I I I #
coedge $-1 $164 $165 $166 $167 forward $65 $-1 #
coedge $-1 $168 $67 $169 $170 forward $41 $-1 #
coedge $-1 $67 $168 $171 $172 forward $41 $-1 #
coedge $-1 $173 $174 $67 $108 reversed $175 $-1 #
edge $-1 $176 -36.801659629460254 $177 36.801659629460254 $107 $178 forward 7 unknown #
face $-1 $179 $180 $25 $-1 $181 forward single #
loop $-1 $-1 $182 $68 #
plane-surface $-1 0 -36.801659629460254 0 0 1 0 0 0 1 forward_v I I I I #
coedge $-1 $183 $184 $185 $186 reversed $69 $-1 #
coedge $-1 $187 $71 $188 $189 reversed $44 $-1 #
coedge $-1 $71 $187 $183 $190 forward $44 $-1 #
coedge $-1 $185 $191 $71 $116 forward $180 $-1 #
edge $-1 $192 -41.098396380810826 $193 -12.561007640916621 $115 $194 forward 7 unknown #
loop $-1 $-1 $122 $72 #
plane-surface $-1 53.659404021727454 -36.801659629460275 0.70077950895377228 0 -0.6560590369687036 0.75470957328743171 1 0 0 forward_v I I I I #
loop $-1 $-1 $195 $46 #
coedge $-1 $120 $120 $121 $196 reversed $73 $-1 #
coedge $-1 $121 $121 $120 $196 forward $75 $-1 #
coedge $-1 $122 $122 $76 $123 forward $117 $-1 #
edge $-1 $197 2.1465564741031111e-018 $197 6.2831853071796004 $122 $198 forward 7 unknown #
loop $-1 $-1 $129 $77 #
plane-surface $-1 53.659404021727454 -36.801659629460275 0.70077950895377228 0 -0.6560590369687036 0.75470957328743171 1 0 0 forward_v I I I I #
loop $-1 $-1 $199 $49 #
coedge $-1 $127 $127 $128 $200 reversed $78 $-1 #
coedge $-1 $128 $128 $127 $200 forward $80 $-1 #
coedge $-1 $129 $129 $81 $130 forward $124 $-1 #
edge $-1 $201 2.1465564741031111e-018 $201 6.2831853071796004 $129 $202 forward 7 unknown #
loop $-1 $-1 $136 $82 #
plane-surface $-1 53.659404021727454 -36.801659629460275 0.70077950895377228 0 -0.6560590369687036 0.75470957328743171 1 0 0 forward_v I I I I #
loop $-1 $-1 $203 $52 #
coedge $-1 $134 $134 $135 $204 reversed $83 $-1 #
coedge $-1 $135 $135 $134 $204 forward $85 $-1 #
coedge $-1 $136 $136 $86 $137 forward $131 $-1 #
edge $-1 $205 2.1465564741031111e-018 $205 6.2831853071796004 $136 $206 forward 7 unknown #
face $-1 $207 $208 $29 $-1 $209 forward single #
loop $-1 $-1 $210 $87 #
plane-surface $-1 55.753534095993437 78.229508612492964 154.18378546585882 -1 0 0 0 0.69465837861970381 0.71933979245794832 forward_v I I I I #
coedge $-1 $211 $212 $213 $214 reversed $88 $-1 #
coedge $-1 $143 $90 $215 $216 reversed $56 $-1 #
coedge $-1 $90 $142 $211 $217 reversed $56 $-1 #
coedge $-1 $213 $218 $90 $145 forward $208 $-1 #
edge $-1 $219 2.3130946767862284 $220 8.5209809853282366 $144 $221 forward 7 unknown #
loop $-1 $-1 $151 $91 #
plane-surface $-1 35.671138162594929 -16.144136770467739 56.457017067598287 0 0.69465837861970381 0.71933979245794832 1 0 0 forward_v I I I I #
loop $-1 $-1 $222 $58 #
coedge $-1 $149 $149 $150 $223 reversed $92 $-1 #
coedge $-1 $150 $150 $149 $223 forward $94 $-1 #
coedge $-1 $151 $151 $95 $152 forward $146 $-1 #
edge $-1 $224 -1.6452815492103992e-015 $224 6.2831853071795987 $151 $225 forward 7 unknown #
loop $-1 $-1 $158 $96 #
plane-surface $-1 35.671138162594929 -16.144136770467739 56.457017067598287 0 0.69465837861970381 0.71933979245794832 1 0 0 forward_v I I I I #
loop $-1 $-1 $226 $61 #
coedge $-1 $156 $156 $157 $227 reversed $97 $-1 #
coedge $-1 $157 $157 $156 $227 forward $99 $-1 #
coedge $-1 $158 $158 $100 $159 forward $153 $-1 #
edge $-1 $228 -1.6452815492103992e-015 $228 6.2831853071795987 $158 $229 forward 7 unknown #
face $-1 $230 $231 $24 $-1 $232 reversed single #
loop $-1 $-1 $233 $101 #
plane-surface $-1 -67.928098391674553 0 0 1 0 0 0 0 -1 forward_v I I I I #
coedge $-1 $234 $171 $235 $236 forward $102 $-1 #
coedge $-1 $237 $104 $234 $238 forward $65 $-1 #
coedge $-1 $104 $237 $239 $240 forward $65 $-1 #
coedge $-1 $174 $173 $104 $167 reversed $175 $-1 #
edge $-1 $241 -36.801659629460254 $242 36.801659629460254 $166 $243 forward 7 unknown #
coedge $-1 $106 $105 $244 $245 forward $41 $-1 #
coedge $-1 $246 $247 $105 $170 reversed $231 $-1 #
edge $-1 $177 -67.928098391674553 $248 67.928098391674553 $169 $249 forward 7 unknown #
coedge $-1 $163 $250 $106 $172 reversed $102 $-1 #
edge $-1 $251 -67.928098391674553 $176 67.928098391674553 $171 $252 forward 7 unknown #
coedge $-1 $166 $107 $250 $253 forward $175 $-1 #
coedge $-1 $107 $166 $246 $254 reversed $175 $-1 #
loop $-1 $-1 $173 $230 #
vertex $-1 $108 $255 #
vertex $-1 $108 $256 #
straight-curve $-1 67.928098391674553 0 11.322740909709177 0 1 0 I I #
face $-1 $-1 $257 $25 $-1 $258 reversed single #
loop $-1 $-1 $185 $109 #
plane-surface $-1 0 0 11.322740909709177 0 0 1 1 0 0 forward_v I I I I #
coedge $-1 $259 $260 $184 $261 forward $110 $-1 #
coedge $-1 $184 $112 $114 $190 reversed $69 $-1 #
coedge $-1 $112 $183 $182 $261 reversed $69 $-1 #
coedge $-1 $262 $115 $112 $186 forward $180 $-1 #
edge $-1 $193 -38.383181556495479 $263 -26.164012999227232 $185 $264 forward 7 unknown #
coedge $-1 $114 $113 $259 $265 reversed $44 $-1 #
coedge $-1 $266 $267 $113 $189 forward $257 $-1 #
edge $-1 $268 -13.6574060527238 $192 2.5331512023576437 $188 $269 forward 7 unknown #
edge $-1 $270 2.8251412014785914e-014 $193 16.190557255081472 $183 $271 forward 7 unknown #
coedge $-1 $115 $262 $266 $272 forward $180 $-1 #
vertex $-1 $189 $273 #
vertex $-1 $116 $274 #
straight-curve $-1 26.829702010863727 -24.582491072192006 11.322740909709177 -1 0 0 I I #
coedge $-1 $195 $195 $-1 $275 reversed $119 $-1 #
edge $-1 $276 0 $276 6.2831853071796004 $120 $277 forward 7 unknown #
vertex $-1 $123 $278 #
ellipse-curve $-1 45.098187399759183 -30.692075350826126 6.011760209331487 0 -0.6560590369687036 0.75470957328743171 2 0 0 1 I I #
coedge $-1 $199 $199 $-1 $279 reversed $126 $-1 #
edge $-1 $280 0 $280 6.2831853071796004 $127 $281 forward 7 unknown #
vertex $-1 $130 $282 #
ellipse-curve $-1 53.65940402172744 -30.692075350826126 6.011760209331487 0 -0.6560590369687036 0.75470957328743171 2 0 0 1 I I #
coedge $-1 $203 $203 $-1 $283 reversed $133 $-1 #
edge $-1 $284 0 $284 6.2831853071796004 $134 $285 forward 7 unknown #
vertex $-1 $137 $286 #
ellipse-curve $-1 62.220620643695696 -30.692075350826126 6.011760209331487 0 -0.6560590369687036 0.75470957328743171 2 0 0 1 I I #
face $-1 $-1 $287 $29 $-1 $288 reversed single #
loop $-1 $-1 $144 $138 #
plane-surface $-1 0 0 11.322740909709177 0 0 1 1 0 0 forward_v I I I I #
coedge $-1 $289 $290 $291 $292 reversed $139 $-1 #
coedge $-1 $293 $141 $143 $217 forward $88 $-1 #
coedge $-1 $141 $293 $289 $294 forward $88 $-1 #
coedge $-1 $291 $144 $141 $214 forward $208 $-1 #
edge $-1 $220 -2.2468268521010444 $295 37.917965014695973 $213 $296 forward 7 unknown #
coedge $-1 $297 $298 $142 $216 forward $287 $-1 #
edge $-1 $299 -71.76403808276126 $219 -65.769151823220227 $215 $300 forward 7 unknown #
edge $-1 $220 64.973341641069055 $299 73.603319258920493 $143 $301 forward 7 unknown #
coedge $-1 $144 $291 $297 $302 forward $208 $-1 #
vertex $-1 $216 $303 #
vertex $-1 $145 $304 #
straight-curve $-1 15.58874222919642 39.114754306246482 11.322740909709182 0 -1 0 I I #
coedge $-1 $222 $222 $-1 $305 reversed $148 $-1 #
edge $-1 $306 0 $306 6.2831853071796004 $149 $307 forward 7 unknown #
vertex $-1 $152 $308 #
ellipse-curve $-1 27.064397048281293 33.697716475189253 8.3252977799386549 0 0.69465837861970381 0.71933979245794832 1.5 0 0 1 I I #
coedge $-1 $226 $226 $-1 $309 reversed $155 $-1 #
edge $-1 $310 0 $310 6.2831853071796004 $156 $311 forward 7 unknown #
vertex $-1 $159 $312 #
ellipse-curve $-1 44.277879276908578 33.697716475189253 8.3252977799386549 0 0.69465837861970381 0.71933979245794832 1.5 0 0 1 I I #
face $-1 $-1 $175 $24 $-1 $313 reversed single #
loop $-1 $-1 $246 $160 #
plane-surface $-1 0 36.801659629460254 0 0 -1 0 0 0 -1 forward_v I I I I #
coedge $-1 $314 $244 $247 $315 forward $161 $-1 #
coedge $-1 $250 $163 $164 $238 reversed $102 $-1 #
coedge $-1 $244 $314 $163 $236 reversed $161 $-1 #
edge $-1 $251 -11.322740909709177 $316 11.322740909709177 $235 $317 forward 7 unknown #
coedge $-1 $165 $164 $314 $318 forward $65 $-1 #
edge $-1 $242 -67.928098391674553 $316 67.928098391674553 $234 $319 forward 7 unknown #
coedge $-1 $247 $246 $165 $240 reversed $231 $-1 #
edge $-1 $320 -67.928098391674553 $241 67.928098391674553 $239 $321 forward 7 unknown #
vertex $-1 $167 $322 #
vertex $-1 $253 $323 #
straight-curve $-1 67.928098391674553 0 -11.322740909709177 0 -1 0 I I #
coedge $-1 $233 $235 $168 $245 reversed $161 $-1 #
edge $-1 $248 -36.801659629460254 $251 36.801659629460254 $244 $324 forward 7 unknown #
coedge $-1 $239 $169 $174 $254 forward $231 $-1 #
coedge $-1 $169 $239 $233 $315 reversed $231 $-1 #
vertex $-1 $170 $325 #
straight-curve $-1 0 36.801659629460254 11.322740909709177 -1 0 0 I I #
coedge $-1 $171 $234 $173 $253 reversed $102 $-1 #
vertex $-1 $245 $326 #
straight-curve $-1 0 -36.801659629460254 11.322740909709177 1 0 0 I I #
edge $-1 $176 -11.322740909709177 $242 11.322740909709177 $173 $327 forward 7 unknown #
edge $-1 $177 -11.322740909709177 $241 11.322740909709177 $174 $328 forward 7 unknown #
point $-1 67.928098391674553 -36.801659629460254 11.322740909709177 #
point $-1 67.928098391674553 36.801659629460254 11.322740909709177 #
loop $-1 $-1 $188 $179 #
plane-surface $-1 67.928098391674553 0 0 -1 0 0 0 0 1 forward_v I I I I #
coedge $-1 $329 $182 $187 $265 forward $110 $-1 #
coedge $-1 $182 $329 $262 $330 reversed $110 $-1 #
edge $-1 $263 40.293634996175086 $270 50.915596396930468 $182 $331 forward 7 unknown #
coedge $-1 $191 $185 $260 $330 forward $180 $-1 #
vertex $-1 $330 $332 #
straight-curve $-1 39.390709651780348 -62.965672628687486 11.322740909709175 0 -1 0 I I #
edge $-1 $270 12.561007640916621 $268 41.098396380810826 $259 $333 forward 7 unknown #
coedge $-1 $267 $188 $191 $272 reversed $257 $-1 #
coedge $-1 $188 $266 $329 $334 forward $257 $-1 #
vertex $-1 $265 $335 #
straight-curve $-1 67.928098391674553 -26.494284535195888 9.6608441713943094 0 0.75470957328743171 0.6560590369687036 I I #
vertex $-1 $265 $336 #
straight-curve $-1 39.390709651780348 -36.801659629460275 0.70077950895377228 0 0.75470957328743171 0.6560590369687036 I I #
edge $-1 $337 -36.801659629460254 $192 -24.582491072192006 $266 $338 forward 7 unknown #
point $-1 67.928098391674553 -24.582491072192006 11.322740909709179 #
point $-1 39.390709651780348 -24.582491072192006 11.322740909709179 #
edge $-1 $339 1 $339 0 $195 $-1 forward 7 unknown #
vertex $-1 $196 $340 #
ellipse-curve $-1 45.098187399759183 -27.634444204500884 2.4943580127612321 0 -0.6560590369687036 0.75470957328743171 2 0 0 1 I I #
point $-1 47.098187399759183 -30.692075350826109 6.0117602093314666 #
edge $-1 $341 1 $341 0 $199 $-1 forward 7 unknown #
vertex $-1 $200 $342 #
ellipse-curve $-1 53.65940402172744 -27.634444204500884 2.4943580127612321 0 -0.6560590369687036 0.75470957328743171 2 0 0 1 I I #
point $-1 55.65940402172744 -30.692075350826109 6.0117602093314666 #
edge $-1 $343 1 $343 0 $203 $-1 forward 7 unknown #
vertex $-1 $204 $344 #
ellipse-curve $-1 62.220620643695696 -27.634444204500884 2.4943580127612321 0 -0.6560590369687036 0.75470957328743171 2 0 0 1 I I #
point $-1 64.220620643695696 -30.692075350826109 6.0117602093314666 #
loop $-1 $-1 $215 $207 #
plane-surface $-1 0 36.801659629460254 0 0 -1 0 0 0 -1 forward_v I I I I #
coedge $-1 $290 $210 $212 $294 reversed $139 $-1 #
coedge $-1 $210 $289 $345 $346 reversed $139 $-1 #
coedge $-1 $218 $213 $210 $292 forward $208 $-1 #
edge $-1 $295 -8.5209809853282366 $347 -2.3130946767862284 $291 $348 forward 7 unknown #
coedge $-1 $212 $211 $298 $349 reversed $88 $-1 #
edge $-1 $350 -73.603319258920493 $295 -64.973341641069055 $289 $351 forward 7 unknown #
vertex $-1 $214 $352 #
straight-curve $-1 17.835569081297464 30.593773320918245 11.322740909709175 1 0 0 I I #
coedge $-1 $345 $215 $218 $302 reversed $287 $-1 #
coedge $-1 $215 $345 $293 $349 forward $287 $-1 #
vertex $-1 $216 $353 #
straight-curve $-1 15.58874222919642 36.801659629460254 77.091892732929409 0 0 1 I I #
straight-curve $-1 15.58874222919642 -16.144136770467739 56.457017067598287 0 0.71933979245794832 -0.69465837861970381 I I #
edge $-1 $347 -55.753534095993437 $219 -15.58874222919642 $297 $354 forward 7 unknown #
point $-1 15.58874222919642 36.801659629460254 11.322740909709177 #
point $-1 15.58874222919642 30.593773320918245 11.322740909709168 #
edge $-1 $355 1 $355 0 $222 $-1 forward 7 unknown #
vertex $-1 $223 $356 #
ellipse-curve $-1 27.064397048281293 30.761281219896333 5.2845301276348424 0 0.69465837861970381 0.71933979245794832 1.5 0 0 1 I I #
point $-1 28.564397048281293 33.697716475189253 8.3252977799386585 #
edge $-1 $357 1 $357 0 $226 $-1 forward 7 unknown #
vertex $-1 $227 $358 #
ellipse-curve $-1 44.277879276908578 30.761281219896333 5.2845301276348424 0 0.69465837861970381 0.71933979245794832 1.5 0 0 1 I I #
point $-1 45.777879276908578 33.697716475189253 8.3252977799386585 #
plane-surface $-1 67.928098391674553 0 0 -1 0 0 0 0 1 forward_v I I I I #
coedge $-1 $235 $233 $237 $318 reversed $161 $-1 #
edge $-1 $248 -11.322740909709177 $320 11.322740909709177 $247 $359 forward 7 unknown #
vertex $-1 $318 $360 #
straight-curve $-1 -67.928098391674553 -36.801659629460254 0 0 0 -1 I I #
edge $-1 $316 -36.801659629460254 $320 36.801659629460254 $314 $361 forward 7 unknown #
straight-curve $-1 0 -36.801659629460254 -11.322740909709177 -1 0 0 I I #
vertex $-1 $240 $362 #
straight-curve $-1 0 36.801659629460254 -11.322740909709177 1 0 0 I I #
point $-1 67.928098391674553 36.801659629460254 -11.322740909709177 #
point $-1 67.928098391674553 -36.801659629460254 -11.322740909709177 #
straight-curve $-1 -67.928098391674553 0 11.322740909709177 0 -1 0 I I #
point $-1 -67.928098391674553 36.801659629460254 11.322740909709177 #
point $-1 -67.928098391674553 -36.801659629460254 11.322740909709177 #
straight-curve $-1 67.928098391674553 -36.801659629460254 0 0 0 -1 I I #
straight-curve $-1 67.928098391674553 36.801659629460254 0 0 0 -1 I I #
coedge $-1 $260 $259 $267 $334 reversed $110 $-1 #
edge $-1 $263 39.390709651780348 $337 67.928098391674553 $260 $363 forward 7 unknown #
straight-curve $-1 39.390709651780348 -36.801659629460254 51.616375905884261 0 0 -1 I I #
point $-1 39.390709651780348 -36.801659629460254 11.322740909709177 #
straight-curve $-1 26.829702010863727 -36.801659629460254 0.70077950895379038 1 0 0 I I #
edge $-1 $337 -11.322740909709177 $268 -0.70077950895379082 $267 $364 forward 7 unknown #
point $-1 67.928098391674553 -36.801659629460254 0.70077950895379082 #
point $-1 39.390709651780348 -36.801659629460254 0.70077950895379082 #
vertex $-1 $272 $365 #
straight-curve $-1 67.928098391674553 0 11.322740909709177 0 1 0 I I #
vertex $-1 $275 $366 #
point $-1 47.098187399759183 -27.634444204500884 2.4943580127612321 #
vertex $-1 $279 $367 #
point $-1 55.65940402172744 -27.634444204500884 2.4943580127612321 #
vertex $-1 $283 $368 #
point $-1 64.220620643695696 -27.634444204500884 2.4943580127612321 #
coedge $-1 $298 $297 $290 $346 forward $287 $-1 #
edge $-1 $347 65.769151823220227 $350 71.76403808276126 $345 $369 forward 7 unknown #
vertex $-1 $302 $370 #
straight-curve $-1 55.753534095993437 39.114754306246482 11.322740909709182 0 1 0 I I #
edge $-1 $350 -37.917965014695973 $299 2.2468268521010444 $298 $371 forward 7 unknown #
vertex $-1 $349 $372 #
straight-curve $-1 55.753534095993437 -16.144136770467739 56.457017067598287 0 -0.71933979245794832 0.69465837861970381 I I #
point $-1 55.753534095993437 30.593773320918245 11.322740909709168 #
point $-1 15.58874222919642 36.801659629460246 5.327854650168149 #
straight-curve $-1 0 36.801659629460254 11.322740909709177 -1 0 0 I I #
vertex $-1 $305 $373 #
point $-1 28.564397048281293 30.761281219896333 5.2845301276348424 #
vertex $-1 $309 $374 #
point $-1 45.777879276908578 30.761281219896333 5.2845301276348424 #
straight-curve $-1 -67.928098391674553 36.801659629460254 0 0 0 -1 I I #
point $-1 -67.928098391674553 -36.801659629460254 -11.322740909709177 #
straight-curve $-1 -67.928098391674553 0 -11.322740909709177 0 1 0 I I #
point $-1 -67.928098391674553 36.801659629460254 -11.322740909709177 #
straight-curve $-1 0 -36.801659629460254 11.322740909709177 1 0 0 I I #
straight-curve $-1 67.928098391674553 -36.801659629460254 0 0 0 -1 I I #
point $-1 67.928098391674553 -36.801659629460254 11.322740909709177 #
point $-1 45.098187399759183 -26.322326130563479 0.98493886618636861 #
point $-1 53.65940402172744 -26.322326130563479 0.98493886618636861 #
point $-1 62.220620643695696 -26.322326130563479 0.98493886618636861 #
straight-curve $-1 55.753534095993437 36.801659629460254 77.091892732929409 0 0 -1 I I #
point $-1 55.753534095993437 36.801659629460254 11.322740909709177 #
straight-curve $-1 17.835569081297464 36.801659629460246 5.327854650168149 -1 0 0 I I #
point $-1 55.753534095993437 36.801659629460246 5.327854650168149 #
point $-1 27.064397048281293 29.71929365196678 4.2055204389479206 #
point $-1 44.277879276908578 29.71929365196678 4.2055204389479206 #
End-of-ACIS-data 