500 0 7 0           
7 Unknown 11 ACIS 5.0 NT 24 Fri Mar 26 00:08:22 1999 
-1 9.9999999999999995e-007 1e-010 
body $-1 $7 $-1 $8 #
body $-1 $9 $-1 $10 #
body $-1 $11 $-1 $12 #
body $-1 $13 $-1 $14 #
body $-1 $15 $-1 $16 #
body $-1 $17 $-1 $18 #
body $-1 $19 $-1 $20 #
lump $-1 $-1 $21 $0 #
transform $-1 1 0 0 0 1 0 0 0 1 72.164067506942956 30.851036312677664 14.714288174021357 1 rotate no_reflect no_shear #
lump $-1 $-1 $22 $1 #
transform $-1 1 0 0 0 1 0 0 0 1 72.164067506942956 30.851036312677664 14.714288174021357 1 rotate no_reflect no_shear #
lump $-1 $-1 $23 $2 #
transform $-1 1 0 0 0 1 0 0 0 1 72.164067506942956 30.851036312677664 14.714288174021357 1 rotate no_reflect no_shear #
lump $-1 $-1 $24 $3 #
transform $-1 1 0 0 0 1 0 0 0 1 72.164067506942956 30.851036312677664 14.714288174021357 1 rotate no_reflect no_shear #
lump $-1 $-1 $25 $4 #
transform $-1 1 0 0 0 1 0 0 0 1 72.164067506942956 30.851036312677664 14.714288174021357 1 rotate no_reflect no_shear #
lump $-1 $-1 $26 $5 #
transform $-1 1 0 0 0 1 0 0 0 1 72.164067506942956 30.851036312677664 14.714288174021357 1 rotate no_reflect no_shear #
lump $-1 $-1 $27 $6 #
transform $-1 1 0 0 0 1 0 0 0 1 72.164067506942956 30.851036312677664 14.714288174021357 1 rotate no_reflect no_shear #
shell $-1 $-1 $-1 $28 $-1 $7 #
shell $-1 $-1 $-1 $29 $-1 $9 #
shell $-1 $-1 $-1 $30 $-1 $11 #
shell $-1 $-1 $-1 $31 $-1 $13 #
shell $-1 $-1 $-1 $32 $-1 $15 #
shell $-1 $-1 $-1 $33 $-1 $17 #
shell $-1 $-1 $-1 $34 $-1 $19 #
face $-1 $35 $36 $21 $-1 $37 forward single #
face $-1 $38 $39 $22 $-1 $40 forward single #
face $-1 $41 $42 $23 $-1 $43 reversed single #
face $-1 $44 $45 $24 $-1 $46 forward single #
face $-1 $47 $48 $25 $-1 $49 forward single #
face $-1 $50 $51 $26 $-1 $52 reversed single #
face $-1 $53 $54 $27 $-1 $55 forward single #
face $-1 $56 $57 $21 $-1 $58 reversed single #
loop $-1 $-1 $59 $28 #
plane-surface $-1 0 0 14.714288174021357 0 0 1 1 0 0 forward_v I I I I #
face $-1 $60 $61 $22 $-1 $62 reversed single #
loop $-1 $-1 $63 $29 #
plane-surface $-1 0 -30.851036312677664 0 0 1 0 0 0 1 forward_v I I I I #
face $-1 $64 $65 $23 $-1 $66 reversed single #
loop $-1 $-1 $67 $30 #
plane-surface $-1 -190.39075552592544 -14.396701721231702 91.851269490327581 0 1 0 -0.81915205242281985 0 0.57357642473473569 forward_v I I I I #
face $-1 $68 $69 $24 $-1 $70 forward single #
loop $-1 $71 $72 $31 #
cone-surface $-1 -68.816850529677353 -11.990596129180815 10.931572229693256 0.81915205242281985 0 -0.57357642473473569 0.57357642473473569 0 0.81915205242281985 1 I I 0 1 1 forward I I I I #
face $-1 $73 $74 $25 $-1 $75 forward single #
loop $-1 $76 $77 $32 #
cone-surface $-1 -68.816850529677353 -8.3814377411044809 10.931572229693256 0.81915205242281985 0 -0.57357642473473569 0.57357642473473569 0 0.81915205242281985 1 I I 0 1 1 forward I I I I #
face $-1 $78 $79 $26 $-1 $80 reversed single #
loop $-1 $-1 $81 $33 #
plane-surface $-1 89.953499025291165 -6.3796257415824211 205.93850904754572 0 -1 0 -0.7660444514056185 0 -0.64278759981090561 forward_v I I I I #
face $-1 $82 $83 $27 $-1 $84 forward single #
loop $-1 $85 $86 $34 #
cone-surface $-1 64.207575465021719 -10.388163731407065 6.2462700985812614 -0.7660444514056185 0 -0.64278759981090561 1.2855751996218112 0 -1.532088902811237 1 I I 0 1 2 forward I I I I #
face $-1 $87 $88 $21 $-1 $89 reversed single #
loop $-1 $-1 $90 $35 #
plane-surface $-1 0 0 -14.714288174021357 0 0 1 1 0 0 forward_v I I I I #
coedge $-1 $91 $92 $93 $94 forward $36 $-1 #
face $-1 $95 $96 $22 $-1 $97 reversed single #
loop $-1 $-1 $98 $38 #
plane-surface $-1 0 0 -14.714288174021357 0 0 1 1 0 0 forward_v I I I I #
coedge $-1 $99 $100 $101 $102 forward $39 $-1 #
face $-1 $103 $104 $23 $-1 $105 reversed single #
loop $-1 $-1 $106 $41 #
plane-surface $-1 -72.164067506942942 -10.186016935142646 9.0680538204306771 -0.81915205242281985 0 0.57357642473473569 0.57357642473473569 0 0.81915205242281985 forward_v I I I I #
coedge $-1 $107 $108 $109 $110 reversed $42 $-1 #
face $-1 $-1 $111 $24 $-1 $112 forward single #
loop $-1 $113 $114 $44 #
cone-surface $-1 -67.036825394978962 -11.990596129180815 9.6851852497931308 0.81915205242281985 0 -0.57357642473473569 0.28678821236736785 0 0.40957602621140993 1 I I -0.70710678118654746 0.70710678118654746 0.5 forward I I I I #
loop $-1 $-1 $115 $31 #
coedge $-1 $72 $72 $116 $117 reversed $45 $-1 #
face $-1 $-1 $118 $25 $-1 $119 forward single #
loop $-1 $120 $121 $47 #
cone-surface $-1 -67.036825394978962 -8.3814377411044809 9.6851852497931308 0.81915205242281985 0 -0.57357642473473569 0.28678821236736785 0 0.40957602621140993 1 I I -0.70710678118654746 0.70710678118654746 0.5 forward I I I I #
loop $-1 $-1 $122 $32 #
coedge $-1 $77 $77 $123 $124 reversed $48 $-1 #
face $-1 $125 $126 $26 $-1 $127 reversed single #
loop $-1 $-1 $128 $50 #
plane-surface $-1 -20.6082679838171 -10.388163731407062 113.16617355678567 0.7660444514056185 0 0.64278759981090561 0.64278759981090561 0 -0.7660444514056185 forward_v I I I I #
coedge $-1 $129 $130 $131 $132 reversed $51 $-1 #
face $-1 $-1 $133 $27 $-1 $134 forward single #
loop $-1 $135 $136 $53 #
cone-surface $-1 60.565737441808949 -10.388163731407065 3.1904052365022348 -0.7660444514056185 0 -0.64278759981090561 0.64278759981090561 0 -0.7660444514056185 1 I I -0.70710678118654746 0.70710678118654746 1 forward I I I I #
loop $-1 $-1 $137 $34 #
coedge $-1 $86 $86 $138 $139 reversed $54 $-1 #
face $-1 $140 $141 $21 $-1 $142 reversed single #
loop $-1 $-1 $143 $56 #
plane-surface $-1 0 -30.851036312677664 0 0 1 0 0 0 1 forward_v I I I I #
coedge $-1 $144 $145 $146 $147 forward $57 $-1 #
coedge $-1 $148 $59 $149 $150 forward $36 $-1 #
coedge $-1 $59 $148 $151 $152 forward $36 $-1 #
coedge $-1 $153 $154 $59 $94 reversed $155 $-1 #
edge $-1 $156 -30.851036312677664 $157 30.851036312677664 $93 $158 forward 7 unknown #
face $-1 $159 $160 $22 $-1 $161 reversed single #
loop $-1 $-1 $162 $60 #
plane-surface $-1 -47.08439474547545 -47.30537090412362 0 0 1 0 0 0 1 forward_v I I I I #
coedge $-1 $163 $164 $100 $165 forward $61 $-1 #
coedge $-1 $166 $63 $167 $168 reversed $39 $-1 #
coedge $-1 $63 $166 $98 $165 reversed $39 $-1 #
coedge $-1 $169 $170 $63 $102 reversed $160 $-1 #
edge $-1 $171 -14.714288174021357 $172 14.714288174021357 $101 $173 forward 7 unknown #
face $-1 $174 $175 $23 $-1 $176 reversed single #
loop $-1 $-1 $177 $64 #
plane-surface $-1 -190.39075552592544 -5.9753321490535907 91.851269490327581 0 -1 0 0.81915205242281985 0 -0.57357642473473569 forward_v I I I I #
coedge $-1 $178 $179 $180 $181 reversed $65 $-1 #
coedge $-1 $108 $67 $182 $183 reversed $42 $-1 #
coedge $-1 $67 $107 $178 $184 reversed $42 $-1 #
coedge $-1 $180 $185 $67 $110 forward $186 $-1 #
edge $-1 $187 23.031310256019765 $188 26.984845993577025 $109 $189 forward 7 unknown #
loop $-1 $-1 $116 $68 #
plane-surface $-1 -72.164067506942942 -10.186016935142646 9.0680538204306771 -0.81915205242281985 0 0.57357642473473569 0.57357642473473569 0 0.81915205242281985 forward_v I I I I #
loop $-1 $-1 $190 $44 #
coedge $-1 $114 $114 $115 $191 reversed $69 $-1 #
coedge $-1 $115 $115 $114 $191 forward $71 $-1 #
coedge $-1 $116 $116 $72 $117 forward $111 $-1 #
edge $-1 $192 0 $192 6.2831853071796004 $116 $193 forward 7 unknown #
loop $-1 $-1 $123 $73 #
plane-surface $-1 -72.164067506942942 -10.186016935142646 9.0680538204306771 -0.81915205242281985 0 0.57357642473473569 0.57357642473473569 0 0.81915205242281985 forward_v I I I I #
loop $-1 $-1 $194 $47 #
coedge $-1 $121 $121 $122 $195 reversed $74 $-1 #
coedge $-1 $122 $122 $121 $195 forward $76 $-1 #
coedge $-1 $123 $123 $77 $124 forward $118 $-1 #
edge $-1 $196 0 $196 6.2831853071796004 $123 $197 forward 7 unknown #
face $-1 $198 $199 $26 $-1 $200 forward single #
loop $-1 $-1 $201 $78 #
plane-surface $-1 89.953499025291165 -14.396701721231702 205.93850904754572 0 1 0 0.7660444514056185 0 0.64278759981090561 forward_v I I I I #
coedge $-1 $202 $203 $204 $205 reversed $79 $-1 #
coedge $-1 $130 $81 $206 $207 reversed $51 $-1 #
coedge $-1 $81 $129 $202 $208 reversed $51 $-1 #
coedge $-1 $204 $209 $81 $132 forward $199 $-1 #
edge $-1 $210 -27.187317994297374 $211 -17.025921054069187 $131 $212 forward 7 unknown #
loop $-1 $-1 $138 $82 #
plane-surface $-1 -20.6082679838171 -10.388163731407062 113.16617355678567 0.7660444514056185 0 0.64278759981090561 0.64278759981090561 0 -0.7660444514056185 forward_v I I I I #
loop $-1 $-1 $213 $53 #
coedge $-1 $136 $136 $137 $214 reversed $83 $-1 #
coedge $-1 $137 $137 $136 $214 forward $85 $-1 #
coedge $-1 $138 $138 $86 $139 forward $133 $-1 #
edge $-1 $215 0 $215 6.2831853071796004 $138 $216 forward 7 unknown #
face $-1 $217 $218 $21 $-1 $219 reversed single #
loop $-1 $-1 $220 $87 #
plane-surface $-1 -72.164067506942956 0 0 1 0 0 0 0 -1 forward_v I I I I #
coedge $-1 $221 $151 $222 $223 forward $88 $-1 #
coedge $-1 $224 $90 $221 $225 forward $57 $-1 #
coedge $-1 $90 $224 $226 $227 forward $57 $-1 #
coedge $-1 $154 $153 $90 $147 reversed $155 $-1 #
edge $-1 $228 -30.851036312677664 $229 30.851036312677664 $146 $230 forward 7 unknown #
coedge $-1 $92 $91 $231 $232 forward $36 $-1 #
coedge $-1 $233 $234 $91 $150 reversed $218 $-1 #
edge $-1 $157 -72.164067506942956 $235 72.164067506942956 $149 $236 forward 7 unknown #
coedge $-1 $143 $237 $92 $152 reversed $88 $-1 #
edge $-1 $238 -72.164067506942956 $156 72.164067506942956 $151 $239 forward 7 unknown #
coedge $-1 $146 $93 $237 $240 forward $155 $-1 #
coedge $-1 $93 $146 $233 $241 reversed $155 $-1 #
loop $-1 $-1 $153 $217 #
vertex $-1 $94 $242 #
vertex $-1 $94 $243 #
straight-curve $-1 72.164067506942956 0 14.714288174021357 0 1 0 I I #
face $-1 $244 $245 $22 $-1 $246 reversed single #
loop $-1 $-1 $101 $95 #
plane-surface $-1 -51.433298332050654 -39.078203608400642 0 1 0 0 0 0 -1 forward_v I I I I #
coedge $-1 $247 $248 $249 $250 forward $96 $-1 #
coedge $-1 $251 $98 $252 $253 forward $61 $-1 #
coedge $-1 $98 $251 $169 $254 forward $61 $-1 #
edge $-1 $171 -51.433298332050654 $255 -42.735491158900246 $98 $256 forward 7 unknown #
coedge $-1 $100 $99 $257 $258 forward $39 $-1 #
coedge $-1 $259 $260 $99 $168 forward $261 $-1 #
edge $-1 $262 42.735491158900246 $172 51.433298332050654 $167 $263 forward 7 unknown #
coedge $-1 $249 $101 $164 $254 reversed $160 $-1 #
coedge $-1 $101 $249 $259 $264 reversed $160 $-1 #
vertex $-1 $165 $265 #
vertex $-1 $264 $266 #
straight-curve $-1 -51.433298332050654 -30.851036312677664 0 0 0 1 I I #
face $-1 $-1 $186 $23 $-1 $267 forward single #
loop $-1 $-1 $268 $103 #
plane-surface $-1 -72.164067506942956 0 0 1 0 0 0 0 -1 forward_v I I I I #
coedge $-1 $269 $270 $271 $272 reversed $104 $-1 #
coedge $-1 $273 $106 $108 $184 forward $65 $-1 #
coedge $-1 $106 $273 $269 $274 forward $65 $-1 #
coedge $-1 $271 $109 $106 $181 forward $186 $-1 #
edge $-1 $188 -9.3036932536603789 $275 -0.88232368148226747 $180 $276 forward 7 unknown #
coedge $-1 $277 $278 $107 $183 forward $175 $-1 #
edge $-1 $279 -36.857580924733135 $187 -31.211346571142435 $182 $280 forward 7 unknown #
edge $-1 $188 -6.8927793526131307 $279 2.4157181099100639e-014 $108 $281 forward 7 unknown #
coedge $-1 $109 $271 $277 $282 forward $186 $-1 #
loop $-1 $-1 $271 $174 #
vertex $-1 $183 $283 #
vertex $-1 $110 $284 #
straight-curve $-1 -95.195377762962721 -14.396701721231702 14.714288174021355 1 0 0 I I #
coedge $-1 $190 $190 $-1 $285 reversed $113 $-1 #
edge $-1 $286 0 $286 6.2831853071796004 $114 $287 forward 7 unknown #
vertex $-1 $117 $288 #
ellipse-curve $-1 -70.187299638164319 -11.990596129180815 11.891170997226009 -0.81915205242281985 0 0.57357642473473569 0.57357642473473569 0 0.81915205242281985 1 I I #
coedge $-1 $194 $194 $-1 $289 reversed $120 $-1 #
edge $-1 $290 0 $290 6.2831853071796004 $121 $291 forward 7 unknown #
vertex $-1 $124 $292 #
ellipse-curve $-1 -70.187299638164319 -8.3814377411044809 11.891170997226009 -0.81915205242281985 0 0.57357642473473569 0.57357642473473569 0 0.81915205242281985 1 I I #
face $-1 $-1 $293 $26 $-1 $294 reversed single #
loop $-1 $-1 $131 $125 #
plane-surface $-1 0 0 14.714288174021357 0 0 1 1 0 0 forward_v I I I I #
coedge $-1 $295 $296 $297 $298 reversed $126 $-1 #
coedge $-1 $299 $128 $130 $208 forward $79 $-1 #
coedge $-1 $128 $299 $295 $300 forward $79 $-1 #
coedge $-1 $297 $131 $128 $205 forward $199 $-1 #
edge $-1 $211 1.1855438758788903 $301 9.2026198555281713 $204 $302 forward 7 unknown #
coedge $-1 $303 $304 $129 $207 forward $293 $-1 #
edge $-1 $305 -100.36484797609546 $210 -88.254966349751498 $206 $306 forward 7 unknown #
edge $-1 $211 128.51980743691115 $305 144.32813501388594 $130 $307 forward 7 unknown #
coedge $-1 $131 $297 $303 $308 forward $199 $-1 #
vertex $-1 $132 $309 #
vertex $-1 $132 $310 #
straight-curve $-1 44.976749512645583 -6.3796257415824211 14.714288174021362 -1 0 0 I I #
coedge $-1 $213 $213 $-1 $311 reversed $135 $-1 #
edge $-1 $312 0 $312 6.2831853071796004 $136 $313 forward 7 unknown #
vertex $-1 $139 $314 #
ellipse-curve $-1 67.083369036828856 -10.388163731407065 8.6593473608493685 0.7660444514056185 0 0.64278759981090561 1.2855751996218112 0 -1.532088902811237 1 I I #
face $-1 $-1 $155 $21 $-1 $315 reversed single #
loop $-1 $-1 $233 $140 #
plane-surface $-1 0 30.851036312677664 0 0 -1 0 0 0 -1 forward_v I I I I #
coedge $-1 $316 $231 $234 $317 forward $141 $-1 #
coedge $-1 $237 $143 $144 $225 reversed $88 $-1 #
coedge $-1 $231 $316 $143 $223 reversed $141 $-1 #
edge $-1 $238 -14.714288174021357 $318 14.714288174021357 $222 $319 forward 7 unknown #
coedge $-1 $145 $144 $316 $320 forward $57 $-1 #
edge $-1 $229 -72.164067506942956 $318 72.164067506942956 $221 $321 forward 7 unknown #
coedge $-1 $234 $233 $145 $227 reversed $218 $-1 #
edge $-1 $322 -72.164067506942956 $228 72.164067506942956 $226 $323 forward 7 unknown #
vertex $-1 $147 $324 #
vertex $-1 $240 $325 #
straight-curve $-1 72.164067506942956 0 -14.714288174021357 0 -1 0 I I #
coedge $-1 $220 $222 $148 $232 reversed $141 $-1 #
edge $-1 $235 -30.851036312677664 $238 30.851036312677664 $231 $326 forward 7 unknown #
coedge $-1 $226 $149 $154 $241 forward $218 $-1 #
coedge $-1 $149 $226 $220 $317 reversed $218 $-1 #
vertex $-1 $150 $327 #
straight-curve $-1 0 30.851036312677664 14.714288174021357 -1 0 0 I I #
coedge $-1 $151 $221 $153 $240 reversed $88 $-1 #
vertex $-1 $232 $328 #
straight-curve $-1 0 -30.851036312677664 14.714288174021357 1 0 0 I I #
edge $-1 $156 -14.714288174021357 $229 14.714288174021357 $153 $329 forward 7 unknown #
edge $-1 $157 -14.714288174021357 $228 14.714288174021357 $154 $330 forward 7 unknown #
point $-1 72.164067506942956 -30.851036312677664 14.714288174021357 #
point $-1 72.164067506942956 30.851036312677664 14.714288174021357 #
face $-1 $-1 $261 $22 $-1 $331 forward single #
loop $-1 $-1 $332 $159 #
plane-surface $-1 -42.735491158900246 -39.078203608400642 0 -1 0 0 0 0 1 forward_v I I I I #
coedge $-1 $333 $162 $251 $334 reversed $96 $-1 #
coedge $-1 $162 $333 $335 $336 reversed $96 $-1 #
coedge $-1 $170 $169 $162 $250 reversed $160 $-1 #
edge $-1 $337 -14.714288174021357 $338 14.714288174021357 $249 $339 forward 7 unknown #
coedge $-1 $164 $163 $247 $334 forward $61 $-1 #
coedge $-1 $257 $332 $163 $253 reversed $245 $-1 #
edge $-1 $255 -8.2271672957229782 $340 8.2271672957229782 $252 $341 forward 7 unknown #
edge $-1 $338 -8.2271672957229782 $171 8.2271672957229782 $169 $342 forward 7 unknown #
vertex $-1 $253 $343 #
straight-curve $-1 0 -30.851036312677664 -14.714288174021357 1 0 0 I I #
coedge $-1 $344 $252 $166 $258 reversed $245 $-1 #
edge $-1 $262 -14.714288174021357 $255 14.714288174021357 $257 $345 forward 7 unknown #
coedge $-1 $335 $167 $170 $264 forward $261 $-1 #
coedge $-1 $167 $335 $344 $346 forward $261 $-1 #
loop $-1 $-1 $167 $244 #
vertex $-1 $168 $347 #
straight-curve $-1 0 -30.851036312677664 14.714288174021357 -1 0 0 I I #
edge $-1 $172 -8.2271672957229782 $337 8.2271672957229782 $170 $348 forward 7 unknown #
point $-1 -51.433298332050654 -30.851036312677664 -14.714288174021357 #
point $-1 -51.433298332050654 -30.851036312677664 14.714288174021357 #
plane-surface $-1 0 0 14.714288174021357 0 0 1 1 0 0 forward_v I I I I #
coedge $-1 $278 $277 $270 $349 forward $175 $-1 #
coedge $-1 $270 $177 $179 $274 reversed $104 $-1 #
coedge $-1 $177 $269 $268 $349 reversed $104 $-1 #
coedge $-1 $185 $180 $177 $272 forward $186 $-1 #
edge $-1 $275 -26.984845993577025 $350 -23.031310256019765 $271 $351 forward 7 unknown #
coedge $-1 $179 $178 $278 $352 reversed $65 $-1 #
edge $-1 $353 -2.4157181099100639e-014 $275 6.8927793526131307 $269 $354 forward 7 unknown #
vertex $-1 $181 $355 #
straight-curve $-1 -68.210531769385696 -5.0930084675713232 14.714288174021357 0 1 0 I I #
coedge $-1 $268 $182 $185 $282 reversed $175 $-1 #
coedge $-1 $182 $268 $273 $352 forward $175 $-1 #
vertex $-1 $183 $356 #
straight-curve $-1 -72.164067506942956 -14.396701721231702 45.925634745163791 0 0 1 I I #
straight-curve $-1 -72.164067506942942 -14.396701721231702 9.0680538204306771 -0.57357642473473569 0 -0.81915205242281985 I I #
edge $-1 $350 5.9753321490535907 $187 14.396701721231702 $277 $357 forward 7 unknown #
point $-1 -72.164067506942956 -14.396701721231702 14.714288174021357 #
point $-1 -68.210531769385696 -14.396701721231702 14.714288174021357 #
edge $-1 $358 1 $358 0 $190 $-1 forward 7 unknown #
vertex $-1 $191 $359 #
ellipse-curve $-1 -67.446401421190373 -11.990596129180815 9.9719734621604985 -0.81915205242281985 0 0.57357642473473569 0.57357642473473569 0 0.81915205242281985 1 I I #
point $-1 -69.613723213429594 -11.990596129180815 12.710323049648832 #
edge $-1 $360 1 $360 0 $194 $-1 forward 7 unknown #
vertex $-1 $195 $361 #
ellipse-curve $-1 -67.446401421190373 -8.3814377411044809 9.9719734621604985 -0.81915205242281985 0 0.57357642473473569 0.57357642473473569 0 0.81915205242281985 1 I I #
point $-1 -69.613723213429594 -8.3814377411044809 12.710323049648832 #
loop $-1 $-1 $206 $198 #
plane-surface $-1 72.164067506942956 0 0 -1 0 0 0 0 1 forward_v I I I I #
coedge $-1 $296 $201 $203 $300 reversed $126 $-1 #
coedge $-1 $201 $295 $362 $363 reversed $126 $-1 #
coedge $-1 $209 $204 $201 $298 forward $199 $-1 #
edge $-1 $301 17.025921054069187 $364 27.187317994297374 $297 $365 forward 7 unknown #
coedge $-1 $203 $202 $304 $366 reversed $79 $-1 #
edge $-1 $367 -144.32813501388594 $301 -128.51980743691115 $295 $368 forward 7 unknown #
vertex $-1 $205 $369 #
straight-curve $-1 62.00267056671477 -5.1940818657035308 14.714288174021362 0 -1 0 I I #
coedge $-1 $362 $206 $209 $308 reversed $293 $-1 #
coedge $-1 $206 $362 $299 $366 forward $293 $-1 #
vertex $-1 $207 $370 #
straight-curve $-1 72.164067506942956 -6.3796257415824211 102.96925452377286 0 0 1 I I #
straight-curve $-1 -20.6082679838171 -6.3796257415824211 113.16617355678567 0.64278759981090561 0 -0.7660444514056185 I I #
edge $-1 $364 -14.396701721231702 $210 -6.3796257415824211 $303 $371 forward 7 unknown #
point $-1 72.164067506942956 -6.3796257415824211 14.714288174021357 #
point $-1 62.00267056671477 -6.3796257415824211 14.714288174021362 #
edge $-1 $372 1 $372 0 $213 $-1 forward 7 unknown #
vertex $-1 $214 $373 #
ellipse-curve $-1 61.331781893214568 -10.388163731407065 3.8331928363131405 0.7660444514056185 0 0.64278759981090561 1.2855751996218112 0 -1.532088902811237 1 I I #
point $-1 68.368944236450687 -10.388163731407065 7.1272584580381437 #
plane-surface $-1 72.164067506942956 0 0 -1 0 0 0 0 1 forward_v I I I I #
coedge $-1 $222 $220 $224 $320 reversed $141 $-1 #
edge $-1 $235 -14.714288174021357 $322 14.714288174021357 $234 $374 forward 7 unknown #
vertex $-1 $320 $375 #
straight-curve $-1 -72.164067506942956 -30.851036312677664 0 0 0 -1 I I #
edge $-1 $318 -30.851036312677664 $322 30.851036312677664 $316 $376 forward 7 unknown #
straight-curve $-1 0 -30.851036312677664 -14.714288174021357 -1 0 0 I I #
vertex $-1 $227 $377 #
straight-curve $-1 0 30.851036312677664 -14.714288174021357 1 0 0 I I #
point $-1 72.164067506942956 30.851036312677664 -14.714288174021357 #
point $-1 72.164067506942956 -30.851036312677664 -14.714288174021357 #
straight-curve $-1 -72.164067506942956 0 14.714288174021357 0 -1 0 I I #
point $-1 -72.164067506942956 30.851036312677664 14.714288174021357 #
point $-1 -72.164067506942956 -30.851036312677664 14.714288174021357 #
straight-curve $-1 72.164067506942956 -30.851036312677664 0 0 0 -1 I I #
straight-curve $-1 72.164067506942956 30.851036312677664 0 0 0 -1 I I #
plane-surface $-1 0 0 14.714288174021357 0 0 1 1 0 0 forward_v I I I I #
coedge $-1 $252 $344 $333 $378 forward $245 $-1 #
coedge $-1 $248 $247 $332 $378 reversed $96 $-1 #
edge $-1 $340 -4.3489035865752044 $338 4.3489035865752044 $247 $379 forward 7 unknown #
coedge $-1 $260 $259 $248 $336 forward $261 $-1 #
edge $-1 $337 -4.3489035865752044 $380 4.3489035865752044 $248 $381 forward 7 unknown #
vertex $-1 $264 $382 #
vertex $-1 $254 $383 #
straight-curve $-1 -51.433298332050654 -47.30537090412362 0 0 0 -1 I I #
vertex $-1 $378 $384 #
straight-curve $-1 -42.735491158900246 -39.078203608400642 -14.714288174021357 0 -1 0 I I #
straight-curve $-1 -51.433298332050654 -39.078203608400642 -14.714288174021357 0 1 0 I I #
point $-1 -42.735491158900246 -30.851036312677664 -14.714288174021357 #
coedge $-1 $332 $257 $260 $346 reversed $245 $-1 #
straight-curve $-1 -42.735491158900246 -30.851036312677664 0 0 0 -1 I I #
edge $-1 $380 -8.2271672957229782 $262 8.2271672957229782 $344 $385 forward 7 unknown #
point $-1 -42.735491158900246 -30.851036312677664 14.714288174021357 #
straight-curve $-1 -51.433298332050654 -39.078203608400642 14.714288174021357 0 -1 0 I I #
edge $-1 $350 31.211346571142435 $353 36.857580924733135 $268 $386 forward 7 unknown #
vertex $-1 $282 $387 #
straight-curve $-1 -95.195377762962721 -5.9753321490535907 14.714288174021355 -1 0 0 I I #
edge $-1 $353 0.88232368148226747 $279 9.3036932536603789 $278 $388 forward 7 unknown #
vertex $-1 $352 $389 #
straight-curve $-1 -72.164067506942942 -5.9753321490535907 9.0680538204306771 0.57357642473473569 0 0.81915205242281985 I I #
point $-1 -68.210531769385696 -5.9753321490535907 14.714288174021357 #
point $-1 -72.164067506942956 -14.396701721231702 9.0680538204306576 #
straight-curve $-1 -72.164067506942956 0 14.714288174021357 0 -1 0 I I #
vertex $-1 $285 $390 #
point $-1 -66.872824996455634 -11.990596129180815 10.791125514583319 #
vertex $-1 $289 $391 #
point $-1 -66.872824996455634 -8.3814377411044809 10.791125514583319 #
coedge $-1 $304 $303 $296 $363 forward $293 $-1 #
edge $-1 $364 88.254966349751498 $367 100.36484797609546 $362 $392 forward 7 unknown #
vertex $-1 $308 $393 #
straight-curve $-1 44.976749512645583 -14.396701721231702 14.714288174021362 1 0 0 I I #
edge $-1 $367 -9.2026198555281713 $305 -1.1855438758788903 $304 $394 forward 7 unknown #
vertex $-1 $366 $395 #
straight-curve $-1 -20.6082679838171 -14.396701721231702 113.16617355678567 -0.64278759981090561 0 0.7660444514056185 I I #
point $-1 62.00267056671477 -14.396701721231702 14.714288174021362 #
point $-1 72.164067506942942 -6.3796257415824211 2.6044065476773994 #
straight-curve $-1 72.164067506942956 0 14.714288174021357 0 1 0 I I #
vertex $-1 $311 $396 #
point $-1 62.617357092836379 -10.388163731407065 2.3011039335019037 #
straight-curve $-1 -72.164067506942956 30.851036312677664 0 0 0 -1 I I #
point $-1 -72.164067506942956 -30.851036312677664 -14.714288174021357 #
straight-curve $-1 -72.164067506942956 0 -14.714288174021357 0 1 0 I I #
point $-1 -72.164067506942956 30.851036312677664 -14.714288174021357 #
edge $-1 $380 -14.714288174021357 $340 14.714288174021357 $332 $397 forward 7 unknown #
straight-curve $-1 -47.08439474547545 -47.30537090412362 -14.714288174021357 -1 0 0 I I #
vertex $-1 $346 $398 #
straight-curve $-1 -47.08439474547545 -47.30537090412362 14.714288174021357 1 0 0 I I #
point $-1 -51.433298332050654 -47.30537090412362 14.714288174021357 #
point $-1 -51.433298332050654 -47.30537090412362 -14.714288174021357 #
point $-1 -42.735491158900246 -47.30537090412362 -14.714288174021357 #
straight-curve $-1 -42.735491158900246 -39.078203608400642 14.714288174021357 0 1 0 I I #
straight-curve $-1 -72.164067506942956 -5.9753321490535907 45.925634745163791 0 0 -1 I I #
point $-1 -72.164067506942956 -5.9753321490535907 14.714288174021357 #
straight-curve $-1 -72.164067506942956 -5.0930084675713232 9.0680538204306753 0 -1 0 I I #
point $-1 -72.164067506942956 -5.9753321490535907 9.0680538204306576 #
point $-1 -66.627249368767551 -11.990596129180815 9.398397037425763 #
point $-1 -66.627249368767551 -8.3814377411044809 9.398397037425763 #
straight-curve $-1 72.164067506942956 -14.396701721231702 102.96925452377286 0 0 -1 I I #
point $-1 72.164067506942956 -14.396701721231702 14.714288174021357 #
straight-curve $-1 72.164067506942956 -5.1940818657035308 2.6044065476773781 0 1 0 I I #
point $-1 72.164067506942942 -14.396701721231702 2.6044065476773994 #
point $-1 59.799692990403329 -10.388163731407065 2.5476176366913292 #
straight-curve $-1 -42.735491158900246 -47.30537090412362 0 0 0 -1 I I #
point $-1 -42.735491158900246 -47.30537090412362 14.714288174021357 #
End-of-ACIS-data 