500 0 9 0           
7 Unknown 11 ACIS 5.0 NT 24 Thu Mar 25 22:04:55 1999 
-1 9.9999999999999995e-007 1e-010 
body $-1 $9 $-1 $10 #
body $-1 $11 $-1 $12 #
body $-1 $13 $-1 $14 #
body $-1 $15 $-1 $16 #
body $-1 $17 $-1 $18 #
body $-1 $19 $-1 $20 #
body $-1 $21 $-1 $22 #
body $-1 $23 $-1 $24 #
body $-1 $25 $-1 $26 #
lump $-1 $-1 $27 $0 #
transform $-1 1 0 0 0 1 0 0 0 1 52.851954710531942 31.098246931668992 10.504425393365445 1 rotate no_reflect no_shear #
lump $-1 $-1 $28 $1 #
transform $-1 1 0 0 0 1 0 0 0 1 52.851954710531942 31.098246931668992 10.504425393365445 1 rotate no_reflect no_shear #
lump $-1 $-1 $29 $2 #
transform $-1 1 0 0 0 1 0 0 0 1 52.851954710531942 31.098246931668992 10.504425393365445 1 rotate no_reflect no_shear #
lump $-1 $-1 $30 $3 #
transform $-1 1 0 0 0 1 0 0 0 1 52.851954710531942 31.098246931668992 10.504425393365445 1 rotate no_reflect no_shear #
lump $-1 $-1 $31 $4 #
transform $-1 1 0 0 0 1 0 0 0 1 52.851954710531942 31.098246931668992 10.504425393365445 1 rotate no_reflect no_shear #
lump $-1 $-1 $32 $5 #
transform $-1 1 0 0 0 1 0 0 0 1 52.851954710531942 31.098246931668992 10.504425393365445 1 rotate no_reflect no_shear #
lump $-1 $-1 $33 $6 #
transform $-1 1 0 0 0 1 0 0 0 1 52.851954710531942 31.098246931668992 10.504425393365445 1 rotate no_reflect no_shear #
lump $-1 $-1 $34 $7 #
transform $-1 1 0 0 0 1 0 0 0 1 52.851954710531942 31.098246931668992 10.504425393365445 1 rotate no_reflect no_shear #
lump $-1 $-1 $35 $8 #
transform $-1 1 0 0 0 1 0 0 0 1 52.851954710531942 31.098246931668992 10.504425393365445 1 rotate no_reflect no_shear #
shell $-1 $-1 $-1 $36 $-1 $9 #
shell $-1 $-1 $-1 $37 $-1 $11 #
shell $-1 $-1 $-1 $38 $-1 $13 #
shell $-1 $-1 $-1 $39 $-1 $15 #
shell $-1 $-1 $-1 $40 $-1 $17 #
shell $-1 $-1 $-1 $41 $-1 $19 #
shell $-1 $-1 $-1 $42 $-1 $21 #
shell $-1 $-1 $-1 $43 $-1 $23 #
shell $-1 $-1 $-1 $44 $-1 $25 #
face $-1 $45 $46 $27 $-1 $47 forward single #
face $-1 $48 $49 $28 $-1 $50 reversed single #
face $-1 $51 $52 $29 $-1 $53 reversed single #
face $-1 $54 $55 $30 $-1 $56 reversed single #
face $-1 $57 $58 $31 $-1 $59 forward single #
face $-1 $60 $61 $32 $-1 $62 forward single #
face $-1 $63 $64 $33 $-1 $65 reversed single #
face $-1 $66 $67 $34 $-1 $68 forward single #
face $-1 $69 $70 $35 $-1 $71 forward single #
face $-1 $72 $73 $27 $-1 $74 reversed single #
loop $-1 $-1 $75 $36 #
plane-surface $-1 0 0 10.504425393365445 0 0 1 1 0 0 forward_v I I I I #
face $-1 $76 $77 $28 $-1 $78 reversed single #
loop $-1 $-1 $79 $37 #
plane-surface $-1 -48.935881713936318 0 6.5053255364338796 0 0 1 1 0 0 forward_v I I I I #
face $-1 $80 $81 $29 $-1 $82 reversed single #
loop $-1 $-1 $83 $38 #
plane-surface $-1 48.935881713936311 0 6.5053255364338796 0 0 1 1 0 0 forward_v I I I I #
face $-1 $84 $85 $30 $-1 $86 reversed single #
loop $-1 $-1 $87 $39 #
plane-surface $-1 19.332399197361902 32.226985172628986 123.72369620460782 1 0 0 0 -0.51503808176128008 -0.85716729658548041 forward_v I I I I #
face $-1 $88 $89 $31 $-1 $90 forward single #
loop $-1 $91 $92 $40 #
cone-surface $-1 26.671659060212988 22.696477027922466 4.8576135947031549 0 -0.51503808176128008 -0.85716729658548041 1.5 0 0 1 I I 0 1 1.5 forward I I I I #
face $-1 $93 $94 $32 $-1 $95 forward single #
loop $-1 $96 $97 $41 #
cone-surface $-1 37.680548854489615 22.696477027922466 4.8576135947031549 0 -0.51503808176128008 -0.85716729658548041 1.5 0 0 1 I I 0 1 1.5 forward I I I I #
face $-1 $98 $99 $33 $-1 $100 reversed single #
loop $-1 $-1 $101 $42 #
plane-surface $-1 32.176103957351302 -31.098246931668982 1.0841990359871971 0 -0.51503808176128008 0.85716729658548041 1 0 0 forward_v I I I I #
face $-1 $102 $103 $34 $-1 $104 forward single #
loop $-1 $105 $106 $43 #
cone-surface $-1 26.671659060212988 -22.696477027922466 4.8576135947031567 0 0.51503808176128008 -0.85716729658548041 1.5 0 0 1 I I 0 1 1.5 forward I I I I #
face $-1 $107 $108 $35 $-1 $109 forward single #
loop $-1 $110 $111 $44 #
cone-surface $-1 37.680548854489615 -22.696477027922466 4.8576135947031567 0 0.51503808176128008 -0.85716729658548041 1.5 0 0 1 I I 0 1 1.5 forward I I I I #
face $-1 $112 $113 $27 $-1 $114 reversed single #
loop $-1 $-1 $115 $45 #
plane-surface $-1 0 0 -10.504425393365445 0 0 1 1 0 0 forward_v I I I I #
coedge $-1 $116 $117 $118 $119 forward $46 $-1 #
face $-1 $120 $121 $28 $-1 $122 reversed single #
loop $-1 $-1 $123 $48 #
plane-surface $-1 -45.019808717340695 0 8.5048754648996621 -1 0 0 0 0 1 forward_v I I I I #
coedge $-1 $124 $125 $126 $127 forward $49 $-1 #
face $-1 $128 $129 $29 $-1 $130 forward single #
loop $-1 $-1 $131 $51 #
plane-surface $-1 45.019808717340688 0 8.5048754648996621 1 0 0 0 0 -1 forward_v I I I I #
coedge $-1 $132 $133 $134 $135 reversed $52 $-1 #
face $-1 $136 $137 $30 $-1 $138 forward single #
loop $-1 $-1 $139 $54 #
plane-surface $-1 32.176103957351302 -22.21455357026386 33.117761927638 0 0.51503808176128008 0.85716729658548041 1 0 0 forward_v I I I I #
coedge $-1 $140 $141 $142 $143 reversed $55 $-1 #
face $-1 $-1 $144 $31 $-1 $145 forward single #
loop $-1 $146 $147 $57 #
cone-surface $-1 26.671659060212988 21.74737314377224 3.2780395022908877 0 -0.51503808176128008 -0.85716729658548041 0.75 0 0 1 I I -0.70710678118654757 0.70710678118654757 0.75 forward I I I I #
loop $-1 $-1 $148 $40 #
coedge $-1 $92 $92 $149 $150 reversed $58 $-1 #
face $-1 $-1 $151 $32 $-1 $152 forward single #
loop $-1 $153 $154 $60 #
cone-surface $-1 37.680548854489615 21.74737314377224 3.2780395022908877 0 -0.51503808176128008 -0.85716729658548041 0.75 0 0 1 I I -0.70710678118654757 0.70710678118654757 0.75 forward I I I I #
loop $-1 $-1 $155 $41 #
coedge $-1 $97 $97 $156 $157 reversed $61 $-1 #
face $-1 $158 $159 $33 $-1 $160 forward single #
loop $-1 $-1 $161 $63 #
plane-surface $-1 19.332399197361902 -85.539785674561827 91.690133312957016 1 0 0 0 0.51503808176128008 -0.85716729658548041 forward_v I I I I #
coedge $-1 $162 $163 $164 $165 reversed $64 $-1 #
face $-1 $-1 $166 $34 $-1 $167 forward single #
loop $-1 $168 $169 $66 #
cone-surface $-1 26.671659060212988 -21.74737314377224 3.2780395022908895 0 0.51503808176128008 -0.85716729658548041 0.75 0 0 1 I I -0.70710678118654757 0.70710678118654757 0.75 forward I I I I #
loop $-1 $-1 $170 $43 #
coedge $-1 $106 $106 $171 $172 reversed $67 $-1 #
face $-1 $-1 $173 $35 $-1 $174 forward single #
loop $-1 $175 $176 $69 #
cone-surface $-1 37.680548854489615 -21.74737314377224 3.2780395022908895 0 0.51503808176128008 -0.85716729658548041 0.75 0 0 1 I I -0.70710678118654757 0.70710678118654757 0.75 forward I I I I #
loop $-1 $-1 $177 $44 #
coedge $-1 $111 $111 $178 $179 reversed $70 $-1 #
face $-1 $180 $181 $27 $-1 $182 reversed single #
loop $-1 $-1 $183 $72 #
plane-surface $-1 0 -31.098246931668992 0 0 1 0 0 0 1 forward_v I I I I #
coedge $-1 $184 $185 $186 $187 forward $73 $-1 #
coedge $-1 $188 $75 $189 $190 forward $46 $-1 #
coedge $-1 $75 $188 $191 $192 forward $46 $-1 #
coedge $-1 $193 $194 $75 $119 reversed $195 $-1 #
edge $-1 $196 -31.098246931668992 $197 31.098246931668992 $118 $198 forward 7 unknown #
face $-1 $199 $200 $28 $-1 $201 reversed single #
loop $-1 $-1 $202 $76 #
plane-surface $-1 0 31.098246931668992 0 0 -1 0 0 0 -1 forward_v I I I I #
coedge $-1 $126 $203 $204 $205 reversed $77 $-1 #
coedge $-1 $206 $79 $207 $208 reversed $49 $-1 #
coedge $-1 $79 $206 $209 $210 reversed $49 $-1 #
coedge $-1 $211 $123 $79 $127 reversed $77 $-1 #
edge $-1 $212 -31.098246931668992 $213 31.098246931668992 $126 $214 forward 7 unknown #
face $-1 $215 $216 $29 $-1 $217 reversed single #
loop $-1 $-1 $218 $80 #
plane-surface $-1 0 0 10.504425393365445 0 0 1 1 0 0 forward_v I I I I #
coedge $-1 $219 $220 $221 $222 reversed $81 $-1 #
coedge $-1 $223 $83 $224 $225 reversed $52 $-1 #
coedge $-1 $83 $223 $226 $227 reversed $52 $-1 #
coedge $-1 $228 $229 $83 $135 forward $230 $-1 #
edge $-1 $231 -31.098246931668992 $232 31.098246931668992 $134 $233 forward 7 unknown #
face $-1 $234 $235 $30 $-1 $236 forward single #
loop $-1 $-1 $142 $84 #
plane-surface $-1 0 0 10.504425393365445 0 0 1 1 0 0 forward_v I I I I #
coedge $-1 $237 $238 $239 $240 reversed $85 $-1 #
coedge $-1 $141 $87 $241 $242 reversed $55 $-1 #
coedge $-1 $87 $140 $237 $243 reversed $55 $-1 #
coedge $-1 $239 $244 $87 $143 forward $137 $-1 #
edge $-1 $245 -14.984754345354499 $246 0.69313481648003972 $142 $247 forward 7 unknown #
loop $-1 $-1 $149 $88 #
plane-surface $-1 32.176103957351302 -22.21455357026386 33.117761927638 0 0.51503808176128008 0.85716729658548041 1 0 0 forward_v I I I I #
loop $-1 $-1 $248 $57 #
coedge $-1 $147 $147 $148 $249 reversed $89 $-1 #
coedge $-1 $148 $148 $147 $249 forward $91 $-1 #
coedge $-1 $149 $149 $92 $150 forward $144 $-1 #
edge $-1 $250 1.3156857155348706e-015 $250 6.2831853071796013 $149 $251 forward 7 unknown #
loop $-1 $-1 $156 $93 #
plane-surface $-1 32.176103957351302 -22.21455357026386 33.117761927638 0 0.51503808176128008 0.85716729658548041 1 0 0 forward_v I I I I #
loop $-1 $-1 $252 $60 #
coedge $-1 $154 $154 $155 $253 reversed $94 $-1 #
coedge $-1 $155 $155 $154 $253 forward $96 $-1 #
coedge $-1 $156 $156 $97 $157 forward $151 $-1 #
edge $-1 $254 1.3156857155348706e-015 $254 6.2831853071796013 $156 $255 forward 7 unknown #
face $-1 $256 $257 $33 $-1 $258 reversed single #
loop $-1 $-1 $164 $98 #
plane-surface $-1 0 0 10.504425393365445 0 0 1 1 0 0 forward_v I I I I #
coedge $-1 $259 $260 $261 $262 reversed $99 $-1 #
coedge $-1 $263 $101 $264 $265 reversed $64 $-1 #
coedge $-1 $101 $263 $259 $266 forward $64 $-1 #
coedge $-1 $261 $267 $101 $165 forward $159 $-1 #
edge $-1 $268 -28.931756738665051 $269 -3.2443472186862508 $164 $270 forward 7 unknown #
loop $-1 $-1 $171 $102 #
plane-surface $-1 32.176103957351302 -31.098246931668982 1.0841990359871971 0 -0.51503808176128008 0.85716729658548041 1 0 0 forward_v I I I I #
loop $-1 $-1 $271 $66 #
coedge $-1 $169 $169 $170 $272 reversed $103 $-1 #
coedge $-1 $170 $170 $169 $272 forward $105 $-1 #
coedge $-1 $171 $171 $106 $172 forward $166 $-1 #
edge $-1 $273 -2.1347466445392157e-015 $273 6.2831853071795987 $171 $274 forward 7 unknown #
loop $-1 $-1 $178 $107 #
plane-surface $-1 32.176103957351302 -31.098246931668982 1.0841990359871971 0 -0.51503808176128008 0.85716729658548041 1 0 0 forward_v I I I I #
loop $-1 $-1 $275 $69 #
coedge $-1 $176 $176 $177 $276 reversed $108 $-1 #
coedge $-1 $177 $177 $176 $276 forward $110 $-1 #
coedge $-1 $178 $178 $111 $179 forward $173 $-1 #
edge $-1 $277 -2.1347466445392157e-015 $277 6.2831853071795987 $178 $278 forward 7 unknown #
face $-1 $279 $280 $27 $-1 $281 reversed single #
loop $-1 $-1 $282 $112 #
plane-surface $-1 -52.851954710531942 0 0 1 0 0 0 0 -1 forward_v I I I I #
coedge $-1 $283 $191 $284 $285 forward $113 $-1 #
coedge $-1 $286 $115 $283 $287 forward $73 $-1 #
coedge $-1 $115 $286 $288 $289 forward $73 $-1 #
coedge $-1 $194 $193 $115 $187 reversed $195 $-1 #
edge $-1 $290 -31.098246931668992 $291 31.098246931668992 $186 $292 forward 7 unknown #
coedge $-1 $117 $116 $293 $294 forward $46 $-1 #
coedge $-1 $295 $296 $116 $190 reversed $280 $-1 #
edge $-1 $197 -52.851954710531942 $297 52.851954710531942 $189 $298 forward 7 unknown #
coedge $-1 $183 $299 $117 $192 reversed $113 $-1 #
edge $-1 $300 -52.851954710531942 $196 52.851954710531942 $191 $301 forward 7 unknown #
coedge $-1 $186 $118 $299 $302 forward $195 $-1 #
coedge $-1 $118 $186 $295 $303 reversed $195 $-1 #
loop $-1 $-1 $193 $279 #
vertex $-1 $119 $304 #
vertex $-1 $119 $305 #
straight-curve $-1 52.851954710531942 0 10.504425393365445 0 1 0 I I #
face $-1 $306 $307 $28 $-1 $308 forward single #
loop $-1 $-1 $309 $120 #
plane-surface $-1 -52.851954710531942 0 0 1 0 0 0 0 -1 forward_v I I I I #
coedge $-1 $209 $310 $211 $311 forward $121 $-1 #
coedge $-1 $123 $211 $312 $313 reversed $77 $-1 #
coedge $-1 $314 $207 $123 $205 forward $315 $-1 #
edge $-1 $213 2.2528878039840485 $316 6.2519876609156135 $204 $317 forward 7 unknown #
coedge $-1 $125 $124 $309 $318 reversed $49 $-1 #
coedge $-1 $204 $319 $124 $208 forward $315 $-1 #
edge $-1 $320 -28.384013853563783 $213 -20.551867860372536 $207 $321 forward 7 unknown #
coedge $-1 $322 $202 $125 $210 forward $121 $-1 #
edge $-1 $212 20.551867860372536 $323 28.384013853563783 $209 $324 forward 7 unknown #
coedge $-1 $203 $126 $202 $311 reversed $77 $-1 #
vertex $-1 $210 $325 #
vertex $-1 $208 $326 #
straight-curve $-1 -45.019808717340695 0 6.5053255364338796 0 -1 0 I I #
face $-1 $327 $328 $29 $-1 $329 reversed single #
loop $-1 $-1 $330 $128 #
plane-surface $-1 0 -31.098246931668992 0 0 1 0 0 0 1 forward_v I I I I #
coedge $-1 $331 $332 $220 $333 forward $129 $-1 #
coedge $-1 $334 $131 $223 $335 reversed $81 $-1 #
coedge $-1 $131 $334 $218 $333 reversed $81 $-1 #
coedge $-1 $336 $226 $131 $222 forward $328 $-1 #
edge $-1 $337 2.2528878039840485 $338 6.2519876609156135 $221 $339 forward 7 unknown #
coedge $-1 $133 $132 $219 $335 forward $52 $-1 #
coedge $-1 $340 $330 $132 $225 forward $216 $-1 #
edge $-1 $341 20.551867860372532 $231 28.384013853563779 $224 $342 forward 7 unknown #
coedge $-1 $221 $343 $133 $227 forward $328 $-1 #
edge $-1 $232 -28.384013853563779 $337 -20.551867860372532 $226 $344 forward 7 unknown #
coedge $-1 $345 $134 $343 $346 reversed $230 $-1 #
coedge $-1 $134 $345 $340 $347 forward $230 $-1 #
loop $-1 $-1 $134 $327 #
vertex $-1 $225 $348 #
vertex $-1 $135 $349 #
straight-curve $-1 52.851954710531942 0 6.5053255364338796 0 1 0 I I #
face $-1 $-1 $350 $30 $-1 $351 reversed single #
loop $-1 $-1 $352 $136 #
plane-surface $-1 45.019808717340688 0 8.5048754648996621 1 0 0 0 0 -1 forward_v I I I I #
coedge $-1 $353 $139 $141 $243 forward $85 $-1 #
coedge $-1 $139 $353 $352 $354 forward $85 $-1 #
coedge $-1 $355 $142 $139 $240 forward $137 $-1 #
edge $-1 $246 3.2443472186862508 $356 28.931756738665037 $239 $357 forward 7 unknown #
coedge $-1 $358 $359 $140 $242 forward $350 $-1 #
edge $-1 $360 -60.777649066316741 $245 -51.357422708938465 $241 $361 forward 7 unknown #
edge $-1 $246 43.906144681460319 $360 62.196493863337999 $141 $362 forward 7 unknown #
coedge $-1 $142 $355 $358 $363 forward $137 $-1 #
vertex $-1 $242 $364 #
vertex $-1 $143 $365 #
straight-curve $-1 19.332399197361902 16.113492586314493 10.504425393365445 0 -1 0 I I #
coedge $-1 $248 $248 $-1 $366 reversed $146 $-1 #
edge $-1 $367 0 $367 6.2831853071796004 $147 $368 forward 7 unknown #
vertex $-1 $150 $369 #
ellipse-curve $-1 26.671659060212988 23.259302350751728 5.794312214676304 0 0.51503808176128008 0.85716729658548041 1.5 0 0 1 I I #
coedge $-1 $252 $252 $-1 $370 reversed $153 $-1 #
edge $-1 $371 0 $371 6.2831853071796004 $154 $372 forward 7 unknown #
vertex $-1 $157 $373 #
ellipse-curve $-1 37.680548854489615 23.259302350751728 5.794312214676304 0 0.51503808176128008 0.85716729658548041 1.5 0 0 1 I I #
face $-1 $-1 $374 $33 $-1 $375 forward single #
loop $-1 $-1 $376 $158 #
plane-surface $-1 0 -31.098246931668992 0 0 1 0 0 0 1 forward_v I I I I #
coedge $-1 $260 $161 $163 $266 reversed $99 $-1 #
coedge $-1 $161 $259 $376 $377 reversed $99 $-1 #
coedge $-1 $378 $164 $161 $262 forward $159 $-1 #
edge $-1 $269 -27.349535067446425 $379 -11.671645905611921 $261 $380 forward 7 unknown #
coedge $-1 $163 $162 $381 $382 reversed $64 $-1 #
coedge $-1 $383 $384 $162 $265 forward $374 $-1 #
edge $-1 $385 -15.239165602142329 $268 3.0511835797353029 $264 $386 forward 7 unknown #
edge $-1 $387 -1.24522913329939e-014 $269 18.29034918187762 $259 $388 forward 7 unknown #
coedge $-1 $164 $378 $383 $389 forward $159 $-1 #
vertex $-1 $265 $390 #
vertex $-1 $165 $391 #
straight-curve $-1 16.088051978675651 -15.420357769834487 10.504425393365445 -1 0 0 I I #
coedge $-1 $271 $271 $-1 $392 reversed $168 $-1 #
edge $-1 $393 0 $393 6.2831853071796004 $169 $394 forward 7 unknown #
vertex $-1 $172 $395 #
ellipse-curve $-1 26.671659060212988 -23.259302350751735 5.79431221467632 0 -0.51503808176128008 0.85716729658548041 1.5 0 0 1 I I #
coedge $-1 $275 $275 $-1 $396 reversed $175 $-1 #
edge $-1 $397 0 $397 6.2831853071796004 $176 $398 forward 7 unknown #
vertex $-1 $179 $399 #
ellipse-curve $-1 37.680548854489615 -23.259302350751735 5.79431221467632 0 -0.51503808176128008 0.85716729658548041 1.5 0 0 1 I I #
face $-1 $-1 $195 $27 $-1 $400 reversed single #
loop $-1 $-1 $295 $180 #
plane-surface $-1 0 31.098246931668992 0 0 -1 0 0 0 -1 forward_v I I I I #
coedge $-1 $401 $293 $296 $402 forward $181 $-1 #
coedge $-1 $299 $183 $184 $287 reversed $113 $-1 #
coedge $-1 $293 $401 $183 $285 reversed $181 $-1 #
edge $-1 $300 -10.504425393365445 $403 10.504425393365445 $284 $404 forward 7 unknown #
coedge $-1 $185 $184 $401 $405 forward $73 $-1 #
edge $-1 $291 -52.851954710531942 $403 52.851954710531942 $283 $406 forward 7 unknown #
coedge $-1 $296 $295 $185 $289 reversed $280 $-1 #
edge $-1 $407 -52.851954710531942 $290 52.851954710531942 $288 $408 forward 7 unknown #
vertex $-1 $187 $409 #
vertex $-1 $302 $410 #
straight-curve $-1 52.851954710531942 0 -10.504425393365445 0 -1 0 I I #
coedge $-1 $282 $284 $188 $294 reversed $181 $-1 #
edge $-1 $297 -31.098246931668992 $300 31.098246931668992 $293 $411 forward 7 unknown #
coedge $-1 $288 $189 $194 $303 forward $280 $-1 #
coedge $-1 $189 $288 $282 $402 reversed $280 $-1 #
vertex $-1 $190 $412 #
straight-curve $-1 0 31.098246931668992 10.504425393365445 -1 0 0 I I #
coedge $-1 $191 $283 $193 $302 reversed $113 $-1 #
vertex $-1 $294 $413 #
straight-curve $-1 0 -31.098246931668992 10.504425393365445 1 0 0 I I #
edge $-1 $196 -10.504425393365445 $291 10.504425393365445 $193 $414 forward 7 unknown #
edge $-1 $197 -10.504425393365445 $290 10.504425393365445 $194 $415 forward 7 unknown #
point $-1 52.851954710531942 -31.098246931668992 10.504425393365445 #
point $-1 52.851954710531942 31.098246931668992 10.504425393365445 #
face $-1 $-1 $315 $28 $-1 $416 reversed single #
loop $-1 $-1 $312 $199 #
plane-surface $-1 0 0 10.504425393365445 0 0 1 1 0 0 forward_v I I I I #
coedge $-1 $417 $418 $206 $318 forward $200 $-1 #
coedge $-1 $202 $322 $419 $420 reversed $121 $-1 #
edge $-1 $421 -6.2519876609156135 $212 -2.2528878039840485 $202 $422 forward 7 unknown #
coedge $-1 $419 $423 $203 $313 forward $307 $-1 #
edge $-1 $316 -31.098246931668992 $421 31.098246931668992 $312 $424 forward 7 unknown #
coedge $-1 $319 $204 $423 $425 reversed $315 $-1 #
loop $-1 $-1 $204 $306 #
vertex $-1 $205 $426 #
straight-curve $-1 -45.019808717340695 -31.098246931668992 4.252437732449831 0 0 1 I I #
edge $-1 $323 -31.098246931668992 $320 31.098246931668992 $309 $427 forward 7 unknown #
coedge $-1 $207 $314 $417 $428 forward $315 $-1 #
vertex $-1 $318 $429 #
straight-curve $-1 -24.467940856968159 -31.098246931668992 6.5053255364338796 1 0 0 I I #
coedge $-1 $310 $209 $418 $430 reversed $121 $-1 #
vertex $-1 $318 $431 #
straight-curve $-1 -24.467940856968159 31.098246931668992 6.5053255364338796 -1 0 0 I I #
point $-1 -45.019808717340695 31.098246931668992 6.5053255364338796 #
point $-1 -45.019808717340695 -31.098246931668992 6.5053255364338796 #
face $-1 $-1 $230 $29 $-1 $432 reversed single #
loop $-1 $-1 $221 $215 #
plane-surface $-1 0 31.098246931668992 0 0 -1 0 0 0 -1 forward_v I I I I #
coedge $-1 $224 $433 $334 $434 forward $216 $-1 #
coedge $-1 $435 $218 $433 $436 forward $129 $-1 #
coedge $-1 $218 $435 $336 $437 forward $129 $-1 #
edge $-1 $338 -31.098246931668992 $438 31.098246931668992 $218 $439 forward 7 unknown #
coedge $-1 $220 $219 $330 $434 reversed $81 $-1 #
edge $-1 $341 -31.098246931668992 $337 31.098246931668992 $219 $440 forward 7 unknown #
coedge $-1 $343 $221 $332 $437 reversed $328 $-1 #
vertex $-1 $227 $441 #
vertex $-1 $222 $442 #
straight-curve $-1 45.019808717340688 31.098246931668992 4.252437732449831 0 0 1 I I #
coedge $-1 $433 $224 $229 $347 reversed $216 $-1 #
vertex $-1 $225 $443 #
straight-curve $-1 24.467940856968156 -31.098246931668992 6.5053255364338796 1 0 0 I I #
coedge $-1 $226 $336 $228 $346 forward $328 $-1 #
straight-curve $-1 24.467940856968156 31.098246931668992 6.5053255364338796 -1 0 0 I I #
coedge $-1 $229 $228 $435 $444 reversed $230 $-1 #
edge $-1 $445 -10.504425393365445 $232 -6.5053255364338796 $228 $446 forward 7 unknown #
edge $-1 $447 -10.504425393365445 $231 -6.5053255364338796 $229 $448 forward 7 unknown #
point $-1 52.851954710531935 -31.098246931668992 6.5053255364338796 #
point $-1 52.851954710531935 31.098246931668992 6.5053255364338796 #
loop $-1 $-1 $241 $234 #
plane-surface $-1 0 31.098246931668992 0 0 -1 0 0 0 -1 forward_v I I I I #
coedge $-1 $449 $450 $238 $354 reversed $235 $-1 #
coedge $-1 $238 $237 $359 $451 reversed $85 $-1 #
edge $-1 $452 -62.196493863337999 $356 -43.906144681460319 $352 $453 forward 7 unknown #
coedge $-1 $244 $239 $450 $454 forward $137 $-1 #
vertex $-1 $454 $455 #
straight-curve $-1 16.088051978675651 15.420357769834457 10.504425393365445 1 0 0 I I #
coedge $-1 $456 $241 $244 $363 reversed $350 $-1 #
coedge $-1 $241 $456 $353 $451 forward $350 $-1 #
vertex $-1 $242 $457 #
straight-curve $-1 19.332399197361902 31.098246931668992 61.86184810230391 0 0 1 I I #
straight-curve $-1 19.332399197361902 -22.21455357026386 33.117761927638 0 0.85716729658548041 -0.51503808176128008 I I #
edge $-1 $458 -45.019808717340688 $245 -19.332399197361902 $358 $459 forward 7 unknown #
point $-1 19.332399197361902 31.098246931668992 10.504425393365445 #
point $-1 19.332399197361902 15.420357769834453 10.504425393365445 #
edge $-1 $460 1 $460 0 $248 $-1 forward 7 unknown #
vertex $-1 $249 $461 #
ellipse-curve $-1 26.671659060212988 22.1336517050932 3.9209149747299978 0 0.51503808176128008 0.85716729658548041 1.5 0 0 1 I I #
point $-1 28.171659060212988 23.259302350751735 5.794312214676312 #
edge $-1 $462 1 $462 0 $252 $-1 forward 7 unknown #
vertex $-1 $253 $463 #
ellipse-curve $-1 37.680548854489615 22.1336517050932 3.9209149747299978 0 0.51503808176128008 0.85716729658548041 1.5 0 0 1 I I #
point $-1 39.180548854489615 23.259302350751735 5.794312214676312 #
loop $-1 $-1 $264 $256 #
plane-surface $-1 45.019808717340688 0 8.5048754648996621 1 0 0 0 0 -1 forward_v I I I I #
coedge $-1 $381 $464 $260 $377 forward $257 $-1 #
edge $-1 $379 35.340641263113064 $387 44.760867620491318 $376 $465 forward 7 unknown #
coedge $-1 $267 $261 $464 $466 forward $159 $-1 #
vertex $-1 $466 $467 #
straight-curve $-1 19.332399197361902 -42.769892837280914 10.504425393365445 0 -1 0 I I #
coedge $-1 $468 $376 $263 $382 forward $257 $-1 #
edge $-1 $387 3.2443472186862508 $385 28.931756738665051 $381 $469 forward 7 unknown #
coedge $-1 $384 $264 $267 $389 reversed $374 $-1 #
coedge $-1 $264 $383 $468 $470 reversed $374 $-1 #
vertex $-1 $470 $471 #
straight-curve $-1 45.019808717340688 -18.035732550262207 8.9329496553570582 0 0.85716729658548041 0.51503808176128008 I I #
vertex $-1 $382 $472 #
straight-curve $-1 19.332399197361902 -31.098246931668982 1.0841990359871971 0 0.85716729658548041 0.51503808176128008 I I #
edge $-1 $473 -31.098246931668992 $268 -15.420357769834489 $267 $474 forward 7 unknown #
point $-1 45.019808717340702 -15.420357769834489 10.504425393365445 #
point $-1 19.332399197361902 -15.420357769834489 10.504425393365445 #
edge $-1 $475 1 $475 0 $271 $-1 forward 7 unknown #
vertex $-1 $272 $476 #
ellipse-curve $-1 26.671659060212988 -22.1336517050932 3.9209149747299996 0 -0.51503808176128008 0.85716729658548041 1.5 0 0 1 I I #
point $-1 28.171659060212988 -23.259302350751735 5.7943122146763137 #
edge $-1 $477 1 $477 0 $275 $-1 forward 7 unknown #
vertex $-1 $276 $478 #
ellipse-curve $-1 37.680548854489615 -22.1336517050932 3.9209149747299996 0 -0.51503808176128008 0.85716729658548041 1.5 0 0 1 I I #
point $-1 39.180548854489615 -23.259302350751735 5.7943122146763137 #
plane-surface $-1 52.851954710531942 0 0 -1 0 0 0 0 1 forward_v I I I I #
coedge $-1 $284 $282 $286 $405 reversed $181 $-1 #
edge $-1 $297 -10.504425393365445 $407 10.504425393365445 $296 $479 forward 7 unknown #
vertex $-1 $405 $480 #
straight-curve $-1 -52.851954710531942 -31.098246931668992 0 0 0 -1 I I #
edge $-1 $403 -31.098246931668992 $407 31.098246931668992 $401 $481 forward 7 unknown #
straight-curve $-1 0 -31.098246931668992 -10.504425393365445 -1 0 0 I I #
vertex $-1 $289 $482 #
straight-curve $-1 0 31.098246931668992 -10.504425393365445 1 0 0 I I #
point $-1 52.851954710531942 31.098246931668992 -10.504425393365445 #
point $-1 52.851954710531942 -31.098246931668992 -10.504425393365445 #
straight-curve $-1 -52.851954710531942 0 10.504425393365445 0 -1 0 I I #
point $-1 -52.851954710531942 31.098246931668992 10.504425393365445 #
point $-1 -52.851954710531942 -31.098246931668992 10.504425393365445 #
straight-curve $-1 52.851954710531942 -31.098246931668992 0 0 0 -1 I I #
straight-curve $-1 52.851954710531942 31.098246931668992 0 0 0 -1 I I #
plane-surface $-1 0 -31.098246931668992 0 0 1 0 0 0 1 forward_v I I I I #
coedge $-1 $483 $309 $319 $428 reversed $200 $-1 #
coedge $-1 $309 $483 $322 $430 forward $200 $-1 #
coedge $-1 $484 $312 $310 $420 forward $307 $-1 #
edge $-1 $421 45.019808717340695 $485 52.851954710531942 $310 $486 forward 7 unknown #
vertex $-1 $420 $487 #
straight-curve $-1 -45.019808717340695 31.098246931668992 4.252437732449831 0 0 -1 I I #
coedge $-1 $312 $484 $314 $425 forward $307 $-1 #
straight-curve $-1 -45.019808717340695 0 10.504425393365445 0 1 0 I I #
edge $-1 $488 -52.851954710531942 $316 -45.019808717340695 $314 $489 forward 7 unknown #
point $-1 -45.019808717340695 -31.098246931668992 10.504425393365445 #
straight-curve $-1 -52.851954710531942 0 6.5053255364338796 0 -1 0 I I #
edge $-1 $488 -10.504425393365445 $320 -6.5053255364338796 $417 $490 forward 7 unknown #
point $-1 -52.851954710531942 -31.098246931668992 6.5053255364338796 #
edge $-1 $485 -10.504425393365445 $323 -6.5053255364338796 $322 $491 forward 7 unknown #
point $-1 -52.851954710531942 31.098246931668992 6.5053255364338796 #
plane-surface $-1 52.851954710531942 0 0 -1 0 0 0 0 1 forward_v I I I I #
coedge $-1 $330 $340 $331 $436 reversed $216 $-1 #
edge $-1 $438 -6.2519876609156135 $341 -2.2528878039840485 $330 $492 forward 7 unknown #
coedge $-1 $332 $331 $345 $444 forward $129 $-1 #
edge $-1 $438 45.019808717340688 $447 52.851954710531942 $433 $493 forward 7 unknown #
edge $-1 $445 -52.851954710531942 $338 -45.019808717340688 $336 $494 forward 7 unknown #
vertex $-1 $436 $495 #
straight-curve $-1 45.019808717340688 0 10.504425393365445 0 -1 0 I I #
straight-curve $-1 45.019808717340688 0 6.5053255364338796 0 1 0 I I #
point $-1 45.019808717340688 31.098246931668992 6.5053255364338796 #
point $-1 45.019808717340688 31.098246931668992 10.504425393365445 #
point $-1 45.019808717340688 -31.098246931668992 6.5053255364338796 #
edge $-1 $447 -31.098246931668992 $445 31.098246931668992 $345 $496 forward 7 unknown #
vertex $-1 $444 $497 #
straight-curve $-1 52.851954710531942 31.098246931668992 0 0 0 -1 I I #
vertex $-1 $444 $498 #
straight-curve $-1 52.851954710531942 -31.098246931668992 0 0 0 -1 I I #
coedge $-1 $450 $352 $456 $499 reversed $235 $-1 #
coedge $-1 $352 $449 $355 $454 reversed $235 $-1 #
edge $-1 $452 -28.931756738665051 $360 -3.2443472186862508 $359 $500 forward 7 unknown #
vertex $-1 $499 $501 #
straight-curve $-1 45.019808717340702 -22.21455357026386 33.117761927638 0 -0.85716729658548041 0.51503808176128008 I I #
edge $-1 $356 15.420357769834455 $458 31.098246931668992 $355 $502 forward 7 unknown #
point $-1 45.019808717340688 15.420357769834455 10.504425393365445 #
coedge $-1 $359 $358 $449 $499 forward $350 $-1 #
point $-1 19.332399197361902 31.098246931668996 1.0841990359871687 #
vertex $-1 $363 $503 #
straight-curve $-1 0 31.098246931668992 10.504425393365445 -1 0 0 I I #
vertex $-1 $366 $504 #
point $-1 28.171659060212988 22.1336517050932 3.9209149747299978 #
vertex $-1 $370 $505 #
point $-1 39.180548854489615 22.1336517050932 3.9209149747299978 #
coedge $-1 $376 $468 $378 $466 reversed $257 $-1 #
straight-curve $-1 19.332399197361902 -31.098246931668992 45.845066656478508 0 0 -1 I I #
edge $-1 $379 19.332399197361902 $473 45.019808717340688 $464 $506 forward 7 unknown #
point $-1 19.332399197361902 -31.098246931668992 10.504425393365445 #
coedge $-1 $464 $381 $384 $470 forward $257 $-1 #
straight-curve $-1 16.088051978675651 -31.098246931668992 1.0841990359871914 1 0 0 I I #
edge $-1 $385 -44.760867620491318 $473 -35.340641263113064 $468 $507 forward 7 unknown #
point $-1 45.019808717340702 -31.098246931668992 1.0841990359871907 #
point $-1 19.332399197361902 -31.098246931668992 1.0841990359871907 #
vertex $-1 $389 $508 #
straight-curve $-1 45.019808717340688 0 10.504425393365445 0 1 0 I I #
vertex $-1 $392 $509 #
point $-1 28.171659060212988 -22.1336517050932 3.9209149747299996 #
vertex $-1 $396 $510 #
point $-1 39.180548854489615 -22.1336517050932 3.9209149747299996 #
straight-curve $-1 -52.851954710531942 31.098246931668992 0 0 0 -1 I I #
point $-1 -52.851954710531942 -31.098246931668992 -10.504425393365445 #
straight-curve $-1 -52.851954710531942 0 -10.504425393365445 0 1 0 I I #
point $-1 -52.851954710531942 31.098246931668992 -10.504425393365445 #
coedge $-1 $418 $417 $484 $511 reversed $200 $-1 #
coedge $-1 $423 $419 $483 $511 forward $307 $-1 #
vertex $-1 $420 $512 #
straight-curve $-1 0 31.098246931668992 10.504425393365445 -1 0 0 I I #
point $-1 -45.019808717340695 31.098246931668992 10.504425393365445 #
vertex $-1 $511 $513 #
straight-curve $-1 0 -31.098246931668992 10.504425393365445 1 0 0 I I #
straight-curve $-1 -52.851954710531942 -31.098246931668992 0 0 0 -1 I I #
straight-curve $-1 -52.851954710531942 31.098246931668992 0 0 0 -1 I I #
straight-curve $-1 45.019808717340688 -31.098246931668992 4.252437732449831 0 0 -1 I I #
straight-curve $-1 0 -31.098246931668992 10.504425393365445 1 0 0 I I #
straight-curve $-1 0 31.098246931668992 10.504425393365445 -1 0 0 I I #
point $-1 45.019808717340688 -31.098246931668992 10.504425393365445 #
straight-curve $-1 52.851954710531942 0 10.504425393365445 0 1 0 I I #
point $-1 52.851954710531942 31.098246931668992 10.504425393365445 #
point $-1 52.851954710531942 -31.098246931668992 10.504425393365445 #
edge $-1 $458 51.357422708938465 $452 60.777649066316741 $456 $514 forward 7 unknown #
straight-curve $-1 16.088051978675651 31.098246931668992 1.0841990359871723 -1 0 0 I I #
point $-1 45.019808717340702 31.098246931668996 1.0841990359871687 #
straight-curve $-1 45.019808717340688 0 10.504425393365445 0 1 0 I I #
point $-1 45.019808717340688 31.098246931668992 10.504425393365445 #
point $-1 26.671659060212988 21.36109458245128 2.6351640298517776 #
point $-1 37.680548854489615 21.36109458245128 2.6351640298517776 #
straight-curve $-1 0 -31.098246931668992 10.504425393365445 1 0 0 I I #
straight-curve $-1 45.019808717340702 -31.098246931668992 45.845066656478508 0 0 1 I I #
point $-1 45.019808717340688 -31.098246931668992 10.504425393365445 #
point $-1 26.671659060212988 -21.36109458245128 2.6351640298517793 #
point $-1 37.680548854489615 -21.36109458245128 2.6351640298517793 #
edge $-1 $485 -31.098246931668992 $488 31.098246931668992 $483 $515 forward 7 unknown #
point $-1 -52.851954710531942 31.098246931668992 10.504425393365445 #
point $-1 -52.851954710531942 -31.098246931668992 10.504425393365445 #
straight-curve $-1 45.019808717340702 31.098246931668992 61.86184810230391 0 0 -1 I I #
straight-curve $-1 -52.851954710531942 0 10.504425393365445 0 -1 0 I I #
End-of-ACIS-data 