500 0 12 0           
7 Unknown 11 ACIS 5.0 NT 24 Thu Mar 25 22:06:39 1999 
-1 9.9999999999999995e-007 1e-010 
body $-1 $12 $-1 $13 #
body $-1 $14 $-1 $15 #
body $-1 $16 $-1 $17 #
body $-1 $18 $-1 $19 #
body $-1 $20 $-1 $21 #
body $-1 $22 $-1 $23 #
body $-1 $24 $-1 $25 #
body $-1 $26 $-1 $27 #
body $-1 $28 $-1 $29 #
body $-1 $30 $-1 $31 #
body $-1 $32 $-1 $33 #
body $-1 $34 $-1 $35 #
lump $-1 $-1 $36 $0 #
transform $-1 1 0 0 0 1 0 0 0 1 71.427961058381911 40.231989260219194 8.8026124028226409 1 rotate no_reflect no_shear #
lump $-1 $-1 $37 $1 #
transform $-1 1 0 0 0 1 0 0 0 1 71.427961058381911 40.231989260219194 8.8026124028226409 1 rotate no_reflect no_shear #
lump $-1 $-1 $38 $2 #
transform $-1 1 0 0 0 1 0 0 0 1 71.427961058381911 40.231989260219194 8.8026124028226409 1 rotate no_reflect no_shear #
lump $-1 $-1 $39 $3 #
transform $-1 1 0 0 0 1 0 0 0 1 71.427961058381911 40.231989260219194 8.8026124028226409 1 rotate no_reflect no_shear #
lump $-1 $-1 $40 $4 #
transform $-1 1 0 0 0 1 0 0 0 1 71.427961058381911 40.231989260219194 8.8026124028226409 1 rotate no_reflect no_shear #
lump $-1 $-1 $41 $5 #
transform $-1 1 0 0 0 1 0 0 0 1 71.427961058381911 40.231989260219194 8.8026124028226409 1 rotate no_reflect no_shear #
lump $-1 $-1 $42 $6 #
transform $-1 1 0 0 0 1 0 0 0 1 71.427961058381911 40.231989260219194 8.8026124028226409 1 rotate no_reflect no_shear #
lump $-1 $-1 $43 $7 #
transform $-1 1 0 0 0 1 0 0 0 1 71.427961058381911 40.231989260219194 8.8026124028226409 1 rotate no_reflect no_shear #
lump $-1 $-1 $44 $8 #
transform $-1 1 0 0 0 1 0 0 0 1 71.427961058381911 40.231989260219194 8.8026124028226409 1 rotate no_reflect no_shear #
lump $-1 $-1 $45 $9 #
transform $-1 1 0 0 0 1 0 0 0 1 71.427961058381911 40.231989260219194 8.8026124028226409 1 rotate no_reflect no_shear #
lump $-1 $-1 $46 $10 #
transform $-1 1 0 0 0 1 0 0 0 1 71.427961058381911 40.231989260219194 8.8026124028226409 1 rotate no_reflect no_shear #
lump $-1 $-1 $47 $11 #
transform $-1 1 0 0 0 1 0 0 0 1 71.427961058381911 40.231989260219194 8.8026124028226409 1 rotate no_reflect no_shear #
shell $-1 $-1 $-1 $48 $-1 $12 #
shell $-1 $-1 $-1 $49 $-1 $14 #
shell $-1 $-1 $-1 $50 $-1 $16 #
shell $-1 $-1 $-1 $51 $-1 $18 #
shell $-1 $-1 $-1 $52 $-1 $20 #
shell $-1 $-1 $-1 $53 $-1 $22 #
shell $-1 $-1 $-1 $54 $-1 $24 #
shell $-1 $-1 $-1 $55 $-1 $26 #
shell $-1 $-1 $-1 $56 $-1 $28 #
shell $-1 $-1 $-1 $57 $-1 $30 #
shell $-1 $-1 $-1 $58 $-1 $32 #
shell $-1 $-1 $-1 $59 $-1 $34 #
face $-1 $60 $61 $36 $-1 $62 forward single #
face $-1 $63 $64 $37 $-1 $65 forward single #
face $-1 $66 $67 $38 $-1 $68 reversed single #
face $-1 $69 $70 $39 $-1 $71 forward single #
face $-1 $72 $73 $40 $-1 $74 forward single #
face $-1 $75 $76 $41 $-1 $77 reversed single #
face $-1 $78 $79 $42 $-1 $80 forward single #
face $-1 $81 $82 $43 $-1 $83 forward single #
face $-1 $84 $85 $44 $-1 $86 reversed single #
face $-1 $87 $88 $45 $-1 $89 forward single #
face $-1 $90 $91 $46 $-1 $92 forward single #
face $-1 $93 $94 $47 $-1 $95 forward single #
face $-1 $96 $97 $36 $-1 $98 reversed single #
loop $-1 $-1 $99 $48 #
plane-surface $-1 0 0 8.8026124028226409 0 0 1 1 0 0 forward_v I I I I #
face $-1 $100 $101 $37 $-1 $102 reversed single #
loop $-1 $-1 $103 $49 #
plane-surface $-1 -66.776032793222271 0 -3.9769851988703997 0 0 1 1 0 0 forward_v I I I I #
face $-1 $104 $105 $38 $-1 $106 reversed single #
loop $-1 $-1 $107 $50 #
plane-surface $-1 -34.310031755680356 -165.17659511439345 69.551710854628098 1 0 0 0 0.87461971476443456 -0.48480960649040278 forward_v I I I I #
face $-1 $108 $109 $39 $-1 $110 forward single #
loop $-1 $111 $112 $51 #
cone-surface $-1 -25.061611332016255 -35.165764088446338 3.0471499707669842 0 0.87461971476443456 -0.48480960649040278 2 0 0 1 I I 0 1 2 forward I I I I #
face $-1 $113 $114 $40 $-1 $115 forward single #
loop $-1 $116 $117 $52 #
cone-surface $-1 -11.188980696520119 -35.165764088446338 3.0471499707669842 0 0.87461971476443456 -0.48480960649040278 2 0 0 1 I I 0 1 2 forward I I I I #
face $-1 $118 $119 $41 $-1 $120 reversed single #
loop $-1 $-1 $121 $53 #
plane-surface $-1 11.244416803175316 -165.17659511439345 69.551710854628098 1 0 0 0 0.87461971476443456 -0.48480960649040278 forward_v I I I I #
face $-1 $122 $123 $42 $-1 $124 forward single #
loop $-1 $125 $126 $54 #
cone-surface $-1 20.492837226839413 -35.165764088446338 3.0471499707669842 0 0.87461971476443456 -0.48480960649040278 2 0 0 1 I I 0 1 2 forward I I I I #
face $-1 $127 $128 $43 $-1 $129 forward single #
loop $-1 $130 $131 $55 #
cone-surface $-1 34.365467862335549 -35.165764088446338 3.0471499707669842 0 0.87461971476443456 -0.48480960649040278 2 0 0 1 I I 0 1 2 forward I I I I #
face $-1 $132 $133 $44 $-1 $134 reversed single #
loop $-1 $-1 $135 $56 #
plane-surface $-1 -62.124104528062631 113.67003249995921 150.79023585449724 1 0 0 0 -0.82903758062907751 -0.55919289150049634 forward_v I I I I #
face $-1 $136 $137 $45 $-1 $138 forward single #
loop $-1 $139 $140 $57 #
cone-surface $-1 -58.747458992745209 37.582100041270444 5.7605465402349401 0 -0.82903758062907751 -0.55919289150049634 1 0 0 1 I I 0 1 1 forward I I I I #
face $-1 $141 $142 $46 $-1 $143 forward single #
loop $-1 $144 $145 $58 #
cone-surface $-1 -53.682490689769082 37.582100041270444 5.7605465402349401 0 -0.82903758062907751 -0.55919289150049634 1 0 0 1 I I 0 1 1 forward I I I I #
face $-1 $146 $147 $47 $-1 $148 forward single #
loop $-1 $149 $150 $59 #
cone-surface $-1 -48.617522386792956 37.582100041270444 5.7605465402349401 0 -0.82903758062907751 -0.55919289150049634 1 0 0 1 I I 0 1 1 forward I I I I #
face $-1 $151 $152 $36 $-1 $153 reversed single #
loop $-1 $-1 $154 $60 #
plane-surface $-1 0 0 -8.8026124028226409 0 0 1 1 0 0 forward_v I I I I #
coedge $-1 $155 $156 $157 $158 forward $61 $-1 #
face $-1 $159 $160 $37 $-1 $161 reversed single #
loop $-1 $-1 $162 $63 #
plane-surface $-1 -62.124104528062631 0 -6.3897988008465205 -1 0 0 0 0 1 forward_v I I I I #
coedge $-1 $163 $164 $165 $166 forward $64 $-1 #
face $-1 $167 $168 $38 $-1 $169 reversed single #
loop $-1 $-1 $170 $66 #
plane-surface $-1 -18.125296014268187 -40.231989260219194 0.29378746837620895 0 -0.87461971476443456 0.48480960649040278 1 0 0 forward_v I I I I #
coedge $-1 $171 $172 $173 $174 reversed $67 $-1 #
face $-1 $-1 $175 $39 $-1 $176 forward single #
loop $-1 $177 $178 $69 #
cone-surface $-1 -25.061611332016255 -31.583178453631806 1.0612903994441485 0 0.87461971476443456 -0.48480960649040278 1 0 0 1 I I -0.70710678118654746 0.70710678118654746 1 forward I I I I #
loop $-1 $-1 $179 $51 #
coedge $-1 $112 $112 $180 $181 reversed $70 $-1 #
face $-1 $-1 $182 $40 $-1 $183 forward single #
loop $-1 $184 $185 $72 #
cone-surface $-1 -11.188980696520119 -31.583178453631806 1.0612903994441485 0 0.87461971476443456 -0.48480960649040278 1 0 0 1 I I -0.70710678118654746 0.70710678118654746 1 forward I I I I #
loop $-1 $-1 $186 $52 #
coedge $-1 $117 $117 $187 $188 reversed $73 $-1 #
face $-1 $189 $190 $41 $-1 $191 reversed single #
loop $-1 $-1 $192 $75 #
plane-surface $-1 27.429152544587481 -40.231989260219194 0.29378746837620895 0 -0.87461971476443456 0.48480960649040278 1 0 0 forward_v I I I I #
coedge $-1 $193 $194 $195 $196 reversed $76 $-1 #
face $-1 $-1 $197 $42 $-1 $198 forward single #
loop $-1 $199 $200 $78 #
cone-surface $-1 20.492837226839413 -31.583178453631806 1.0612903994441485 0 0.87461971476443456 -0.48480960649040278 1 0 0 1 I I -0.70710678118654746 0.70710678118654746 1 forward I I I I #
loop $-1 $-1 $201 $54 #
coedge $-1 $126 $126 $202 $203 reversed $79 $-1 #
face $-1 $-1 $204 $43 $-1 $205 forward single #
loop $-1 $206 $207 $81 #
cone-surface $-1 34.365467862335549 -31.583178453631806 1.0612903994441485 0 0.87461971476443456 -0.48480960649040278 1 0 0 1 I I -0.70710678118654746 0.70710678118654746 1 forward I I I I #
loop $-1 $-1 $208 $55 #
coedge $-1 $131 $131 $209 $210 reversed $82 $-1 #
face $-1 $211 $212 $44 $-1 $213 reversed single #
loop $-1 $-1 $214 $84 #
plane-surface $-1 -53.682490689769082 -4.762895550258591 70.906219698054372 0 0.82903758062907751 0.55919289150049634 1 0 0 forward_v I I I I #
coedge $-1 $215 $216 $217 $218 reversed $85 $-1 #
face $-1 $-1 $219 $45 $-1 $220 forward single #
loop $-1 $221 $222 $87 #
cone-surface $-1 -58.747458992745209 36.070429065940516 4.7409116244682874 0 -0.82903758062907751 -0.55919289150049634 0.5 0 0 1 I I -0.70710678118654746 0.70710678118654746 0.5 forward I I I I #
loop $-1 $-1 $223 $57 #
coedge $-1 $140 $140 $224 $225 reversed $88 $-1 #
face $-1 $-1 $226 $46 $-1 $227 forward single #
loop $-1 $228 $229 $90 #
cone-surface $-1 -53.682490689769082 36.070429065940516 4.7409116244682874 0 -0.82903758062907751 -0.55919289150049634 0.5 0 0 1 I I -0.70710678118654746 0.70710678118654746 0.5 forward I I I I #
loop $-1 $-1 $230 $58 #
coedge $-1 $145 $145 $231 $232 reversed $91 $-1 #
face $-1 $-1 $233 $47 $-1 $234 forward single #
loop $-1 $235 $236 $93 #
cone-surface $-1 -48.617522386792956 36.070429065940516 4.7409116244682874 0 -0.82903758062907751 -0.55919289150049634 0.5 0 0 1 I I -0.70710678118654746 0.70710678118654746 0.5 forward I I I I #
loop $-1 $-1 $237 $59 #
coedge $-1 $150 $150 $238 $239 reversed $94 $-1 #
face $-1 $240 $241 $36 $-1 $242 reversed single #
loop $-1 $-1 $243 $96 #
plane-surface $-1 0 -40.231989260219194 0 0 1 0 0 0 1 forward_v I I I I #
coedge $-1 $244 $245 $246 $247 forward $97 $-1 #
coedge $-1 $248 $99 $249 $250 forward $61 $-1 #
coedge $-1 $99 $248 $251 $252 forward $61 $-1 #
coedge $-1 $253 $254 $99 $158 reversed $255 $-1 #
edge $-1 $256 -40.231989260219194 $257 40.231989260219194 $157 $258 forward 7 unknown #
face $-1 $259 $260 $37 $-1 $261 reversed single #
loop $-1 $-1 $262 $100 #
plane-surface $-1 0 0 -8.8026124028226409 0 0 1 1 0 0 forward_v I I I I #
coedge $-1 $263 $165 $264 $265 reversed $101 $-1 #
coedge $-1 $266 $103 $267 $268 reversed $64 $-1 #
coedge $-1 $103 $266 $269 $270 reversed $64 $-1 #
coedge $-1 $162 $271 $103 $166 reversed $101 $-1 #
edge $-1 $272 -40.231989260219194 $273 40.231989260219194 $165 $274 forward 7 unknown #
face $-1 $275 $276 $38 $-1 $277 forward single #
loop $-1 $-1 $278 $104 #
plane-surface $-1 -1.9405602728560218 -165.17659511439345 69.551710854628098 -1 0 0 0 -0.87461971476443456 0.48480960649040278 forward_v I I I I #
coedge $-1 $279 $280 $281 $282 reversed $105 $-1 #
coedge $-1 $172 $107 $283 $284 reversed $67 $-1 #
coedge $-1 $107 $171 $279 $285 reversed $67 $-1 #
coedge $-1 $281 $286 $107 $174 forward $287 $-1 #
edge $-1 $288 25.97324302449141 $289 34.48206795893784 $173 $290 forward 7 unknown #
loop $-1 $-1 $180 $108 #
plane-surface $-1 -18.125296014268187 -40.231989260219194 0.29378746837620895 0 -0.87461971476443456 0.48480960649040278 1 0 0 forward_v I I I I #
loop $-1 $-1 $291 $69 #
coedge $-1 $178 $178 $179 $292 reversed $109 $-1 #
coedge $-1 $179 $179 $178 $292 forward $111 $-1 #
coedge $-1 $180 $180 $112 $181 forward $175 $-1 #
edge $-1 $293 9.4557136449429248e-016 $293 6.2831853071796013 $180 $294 forward 7 unknown #
loop $-1 $-1 $187 $113 #
plane-surface $-1 -18.125296014268187 -40.231989260219194 0.29378746837620895 0 -0.87461971476443456 0.48480960649040278 1 0 0 forward_v I I I I #
loop $-1 $-1 $295 $72 #
coedge $-1 $185 $185 $186 $296 reversed $114 $-1 #
coedge $-1 $186 $186 $185 $296 forward $116 $-1 #
coedge $-1 $187 $187 $117 $188 forward $182 $-1 #
edge $-1 $297 9.4557136449429248e-016 $297 6.2831853071796013 $187 $298 forward 7 unknown #
face $-1 $299 $300 $41 $-1 $301 reversed single #
loop $-1 $-1 $302 $118 #
plane-surface $-1 43.61388828599965 -165.17659511439345 69.551710854628098 -1 0 0 0 -0.87461971476443456 0.48480960649040278 forward_v I I I I #
coedge $-1 $303 $304 $305 $306 reversed $119 $-1 #
coedge $-1 $194 $121 $307 $308 reversed $76 $-1 #
coedge $-1 $121 $193 $303 $309 reversed $76 $-1 #
coedge $-1 $305 $310 $121 $196 forward $300 $-1 #
edge $-1 $311 25.97324302449141 $312 34.48206795893784 $195 $313 forward 7 unknown #
loop $-1 $-1 $202 $122 #
plane-surface $-1 27.429152544587481 -40.231989260219194 0.29378746837620895 0 -0.87461971476443456 0.48480960649040278 1 0 0 forward_v I I I I #
loop $-1 $-1 $314 $78 #
coedge $-1 $200 $200 $201 $315 reversed $123 $-1 #
coedge $-1 $201 $201 $200 $315 forward $125 $-1 #
coedge $-1 $202 $202 $126 $203 forward $197 $-1 #
edge $-1 $316 9.4557136449429248e-016 $316 6.2831853071796013 $202 $317 forward 7 unknown #
loop $-1 $-1 $209 $127 #
plane-surface $-1 27.429152544587481 -40.231989260219194 0.29378746837620895 0 -0.87461971476443456 0.48480960649040278 1 0 0 forward_v I I I I #
loop $-1 $-1 $318 $81 #
coedge $-1 $207 $207 $208 $319 reversed $128 $-1 #
coedge $-1 $208 $208 $207 $319 forward $130 $-1 #
coedge $-1 $209 $209 $131 $210 forward $204 $-1 #
edge $-1 $320 9.4557136449429248e-016 $320 6.2831853071796013 $209 $321 forward 7 unknown #
face $-1 $322 $323 $44 $-1 $324 reversed single #
loop $-1 $-1 $325 $132 #
plane-surface $-1 -45.240876851475534 113.67003249995921 150.79023585449724 -1 0 0 0 0.82903758062907751 0.55919289150049634 forward_v I I I I #
coedge $-1 $326 $327 $328 $329 reversed $133 $-1 #
coedge $-1 $216 $135 $330 $331 reversed $85 $-1 #
coedge $-1 $135 $215 $326 $332 reversed $85 $-1 #
coedge $-1 $328 $333 $135 $218 forward $334 $-1 #
edge $-1 $335 16.603026989760409 $336 19.708501057627146 $217 $337 forward 7 unknown #
loop $-1 $-1 $224 $136 #
plane-surface $-1 -53.682490689769082 -4.762895550258591 70.906219698054372 0 0.82903758062907751 0.55919289150049634 1 0 0 forward_v I I I I #
loop $-1 $-1 $338 $87 #
coedge $-1 $222 $222 $223 $339 reversed $137 $-1 #
coedge $-1 $223 $223 $222 $339 forward $139 $-1 #
coedge $-1 $224 $224 $140 $225 forward $219 $-1 #
edge $-1 $340 4.2649424977115246e-015 $340 6.2831853071796049 $224 $341 forward 7 unknown #
loop $-1 $-1 $231 $141 #
plane-surface $-1 -53.682490689769082 -4.762895550258591 70.906219698054372 0 0.82903758062907751 0.55919289150049634 1 0 0 forward_v I I I I #
loop $-1 $-1 $342 $90 #
coedge $-1 $229 $229 $230 $343 reversed $142 $-1 #
coedge $-1 $230 $230 $229 $343 forward $144 $-1 #
coedge $-1 $231 $231 $145 $232 forward $226 $-1 #
edge $-1 $344 4.2649424977115246e-015 $344 6.2831853071796049 $231 $345 forward 7 unknown #
loop $-1 $-1 $238 $146 #
plane-surface $-1 -53.682490689769082 -4.762895550258591 70.906219698054372 0 0.82903758062907751 0.55919289150049634 1 0 0 forward_v I I I I #
loop $-1 $-1 $346 $93 #
coedge $-1 $236 $236 $237 $347 reversed $147 $-1 #
coedge $-1 $237 $237 $236 $347 forward $149 $-1 #
coedge $-1 $238 $238 $150 $239 forward $233 $-1 #
edge $-1 $348 4.2649424977115246e-015 $348 6.2831853071796049 $238 $349 forward 7 unknown #
face $-1 $350 $351 $36 $-1 $352 reversed single #
loop $-1 $-1 $353 $151 #
plane-surface $-1 -71.427961058381911 0 0 1 0 0 0 0 -1 forward_v I I I I #
coedge $-1 $354 $251 $355 $356 forward $152 $-1 #
coedge $-1 $357 $154 $354 $358 forward $97 $-1 #
coedge $-1 $154 $357 $359 $360 forward $97 $-1 #
coedge $-1 $254 $253 $154 $247 reversed $255 $-1 #
edge $-1 $361 -40.231989260219194 $362 40.231989260219194 $246 $363 forward 7 unknown #
coedge $-1 $156 $155 $364 $365 forward $61 $-1 #
coedge $-1 $366 $367 $155 $250 reversed $351 $-1 #
edge $-1 $257 -71.427961058381911 $368 71.427961058381911 $249 $369 forward 7 unknown #
coedge $-1 $243 $370 $156 $252 reversed $152 $-1 #
edge $-1 $371 -71.427961058381911 $256 71.427961058381911 $251 $372 forward 7 unknown #
coedge $-1 $246 $157 $370 $373 forward $255 $-1 #
coedge $-1 $157 $246 $366 $374 reversed $255 $-1 #
loop $-1 $-1 $253 $350 #
vertex $-1 $158 $375 #
vertex $-1 $158 $376 #
straight-curve $-1 71.427961058381911 0 8.8026124028226409 0 1 0 I I #
face $-1 $377 $378 $37 $-1 $379 reversed single #
loop $-1 $-1 $264 $159 #
plane-surface $-1 0 -40.231989260219194 0 0 1 0 0 0 1 forward_v I I I I #
coedge $-1 $380 $381 $263 $382 forward $160 $-1 #
coedge $-1 $271 $162 $262 $382 reversed $101 $-1 #
coedge $-1 $269 $383 $162 $265 forward $260 $-1 #
edge $-1 $384 -5.6077130023993806 $272 -0.78208579844713944 $264 $385 forward 7 unknown #
coedge $-1 $164 $163 $386 $387 reversed $64 $-1 #
coedge $-1 $388 $389 $163 $268 forward $390 $-1 #
edge $-1 $391 -38.039944661770775 $273 -28.736088131451496 $267 $392 forward 7 unknown #
coedge $-1 $393 $264 $164 $270 forward $260 $-1 #
edge $-1 $272 28.736088131451496 $394 38.039944661770775 $269 $395 forward 7 unknown #
coedge $-1 $165 $263 $388 $396 reversed $101 $-1 #
vertex $-1 $270 $397 #
vertex $-1 $268 $398 #
straight-curve $-1 -62.124104528062631 0 -3.9769851988703997 0 1 0 I I #
face $-1 $-1 $287 $38 $-1 $399 reversed single #
loop $-1 $-1 $400 $167 #
plane-surface $-1 0 0 8.8026124028226409 0 0 1 1 0 0 forward_v I I I I #
coedge $-1 $401 $402 $403 $404 reversed $168 $-1 #
coedge $-1 $405 $170 $172 $285 forward $105 $-1 #
coedge $-1 $170 $405 $401 $406 forward $105 $-1 #
coedge $-1 $403 $173 $170 $282 forward $287 $-1 #
edge $-1 $289 -25.247383748546262 $407 7.1220877342780717 $281 $408 forward 7 unknown #
coedge $-1 $409 $410 $171 $284 forward $276 $-1 #
edge $-1 $411 -47.072826800423059 $288 -42.356308296977531 $283 $412 forward 7 unknown #
edge $-1 $289 0 $411 9.7285995168061774 $172 $413 forward 7 unknown #
coedge $-1 $173 $403 $409 $414 reversed $287 $-1 #
loop $-1 $-1 $403 $275 #
vertex $-1 $414 $415 #
vertex $-1 $174 $416 #
straight-curve $-1 -34.310031755680356 -40.231989260219194 34.775855427314049 0 0 -1 I I #
coedge $-1 $291 $291 $-1 $417 reversed $177 $-1 #
edge $-1 $418 0 $418 6.2831853071796004 $178 $419 forward 7 unknown #
vertex $-1 $181 $420 #
ellipse-curve $-1 -25.061611332016255 -37.873730008496437 4.5481999355994196 0 -0.87461971476443456 0.48480960649040278 2 0 0 1 I I #
coedge $-1 $295 $295 $-1 $421 reversed $184 $-1 #
edge $-1 $422 0 $422 6.2831853071796004 $185 $423 forward 7 unknown #
vertex $-1 $188 $424 #
ellipse-curve $-1 -11.188980696520119 -37.873730008496437 4.5481999355994196 0 -0.87461971476443456 0.48480960649040278 2 0 0 1 I I #
face $-1 $-1 $425 $41 $-1 $426 forward single #
loop $-1 $-1 $195 $189 #
plane-surface $-1 0 -40.231989260219194 0 0 1 0 0 0 1 forward_v I I I I #
coedge $-1 $427 $428 $429 $430 reversed $190 $-1 #
coedge $-1 $431 $192 $194 $309 forward $119 $-1 #
coedge $-1 $192 $431 $427 $432 forward $119 $-1 #
coedge $-1 $429 $195 $192 $306 forward $300 $-1 #
edge $-1 $312 -2.4701594691184248 $433 29.899312013705909 $305 $434 forward 7 unknown #
coedge $-1 $435 $436 $193 $308 forward $425 $-1 #
edge $-1 $437 -47.072826800423059 $311 -42.356308296977531 $307 $438 forward 7 unknown #
edge $-1 $312 0 $437 9.7285995168061774 $194 $439 forward 7 unknown #
coedge $-1 $195 $429 $435 $440 reversed $300 $-1 #
vertex $-1 $440 $441 #
vertex $-1 $196 $442 #
straight-curve $-1 11.244416803175316 -40.231989260219194 34.775855427314049 0 0 -1 I I #
coedge $-1 $314 $314 $-1 $443 reversed $199 $-1 #
edge $-1 $444 0 $444 6.2831853071796004 $200 $445 forward 7 unknown #
vertex $-1 $203 $446 #
ellipse-curve $-1 20.492837226839413 -37.873730008496437 4.5481999355994196 0 -0.87461971476443456 0.48480960649040278 2 0 0 1 I I #
coedge $-1 $318 $318 $-1 $447 reversed $206 $-1 #
edge $-1 $448 0 $448 6.2831853071796004 $207 $449 forward 7 unknown #
vertex $-1 $210 $450 #
ellipse-curve $-1 34.365467862335549 -37.873730008496437 4.5481999355994196 0 -0.87461971476443456 0.48480960649040278 2 0 0 1 I I #
face $-1 $-1 $334 $44 $-1 $451 forward single #
loop $-1 $-1 $452 $211 #
plane-surface $-1 0 40.231989260219194 0 0 -1 0 0 0 -1 forward_v I I I I #
coedge $-1 $453 $454 $455 $456 reversed $212 $-1 #
coedge $-1 $457 $214 $216 $332 forward $133 $-1 #
coedge $-1 $214 $457 $453 $458 forward $133 $-1 #
coedge $-1 $455 $217 $214 $329 forward $334 $-1 #
edge $-1 $336 -35.28285918317809 $459 -18.399631506590993 $328 $460 forward 7 unknown #
coedge $-1 $461 $462 $215 $331 forward $323 $-1 #
edge $-1 $463 -71.196560309568568 $335 -66.592505524425974 $330 $464 forward 7 unknown #
edge $-1 $336 74.910485056789867 $463 80.463978520438417 $216 $465 forward 7 unknown #
coedge $-1 $217 $455 $461 $466 forward $334 $-1 #
loop $-1 $-1 $455 $322 #
vertex $-1 $331 $467 #
vertex $-1 $218 $468 #
straight-curve $-1 -62.124104528062631 56.835016249979603 8.8026124028226462 0 -1 0 I I #
coedge $-1 $338 $338 $-1 $469 reversed $221 $-1 #
edge $-1 $470 0 $470 6.2831853071796004 $222 $471 forward 7 unknown #
vertex $-1 $225 $472 #
ellipse-curve $-1 -58.747458992745209 38.679252226285826 6.5005850102513394 0 0.82903758062907751 0.55919289150049634 1 0 0 1 I I #
coedge $-1 $342 $342 $-1 $473 reversed $228 $-1 #
edge $-1 $474 0 $474 6.2831853071796004 $229 $475 forward 7 unknown #
vertex $-1 $232 $476 #
ellipse-curve $-1 -53.682490689769082 38.679252226285826 6.5005850102513394 0 0.82903758062907751 0.55919289150049634 1 0 0 1 I I #
coedge $-1 $346 $346 $-1 $477 reversed $235 $-1 #
edge $-1 $478 0 $478 6.2831853071796004 $236 $479 forward 7 unknown #
vertex $-1 $239 $480 #
ellipse-curve $-1 -48.617522386792956 38.679252226285826 6.5005850102513394 0 0.82903758062907751 0.55919289150049634 1 0 0 1 I I #
face $-1 $-1 $255 $36 $-1 $481 reversed single #
loop $-1 $-1 $366 $240 #
plane-surface $-1 0 40.231989260219194 0 0 -1 0 0 0 -1 forward_v I I I I #
coedge $-1 $482 $364 $367 $483 forward $241 $-1 #
coedge $-1 $370 $243 $244 $358 reversed $152 $-1 #
coedge $-1 $364 $482 $243 $356 reversed $241 $-1 #
edge $-1 $371 -8.8026124028226409 $484 8.8026124028226409 $355 $485 forward 7 unknown #
coedge $-1 $245 $244 $482 $486 forward $97 $-1 #
edge $-1 $362 -71.427961058381911 $484 71.427961058381911 $354 $487 forward 7 unknown #
coedge $-1 $367 $366 $245 $360 reversed $351 $-1 #
edge $-1 $488 -71.427961058381911 $361 71.427961058381911 $359 $489 forward 7 unknown #
vertex $-1 $247 $490 #
vertex $-1 $373 $491 #
straight-curve $-1 71.427961058381911 0 -8.8026124028226409 0 -1 0 I I #
coedge $-1 $353 $355 $248 $365 reversed $241 $-1 #
edge $-1 $368 -40.231989260219194 $371 40.231989260219194 $364 $492 forward 7 unknown #
coedge $-1 $359 $249 $254 $374 forward $351 $-1 #
coedge $-1 $249 $359 $353 $483 reversed $351 $-1 #
vertex $-1 $250 $493 #
straight-curve $-1 0 40.231989260219194 8.8026124028226409 -1 0 0 I I #
coedge $-1 $251 $354 $253 $373 reversed $152 $-1 #
vertex $-1 $365 $494 #
straight-curve $-1 0 -40.231989260219194 8.8026124028226409 1 0 0 I I #
edge $-1 $256 -8.8026124028226409 $362 8.8026124028226409 $253 $495 forward 7 unknown #
edge $-1 $257 -8.8026124028226409 $361 8.8026124028226409 $254 $496 forward 7 unknown #
point $-1 71.427961058381911 -40.231989260219194 8.8026124028226409 #
point $-1 71.427961058381911 40.231989260219194 8.8026124028226409 #
face $-1 $-1 $390 $37 $-1 $497 reversed single #
loop $-1 $-1 $386 $259 #
plane-surface $-1 -71.427961058381911 0 0 1 0 0 0 0 -1 forward_v I I I I #
coedge $-1 $498 $262 $383 $499 forward $160 $-1 #
coedge $-1 $262 $498 $500 $501 forward $160 $-1 #
edge $-1 $502 -40.231989260219194 $384 40.231989260219194 $262 $503 forward 7 unknown #
coedge $-1 $264 $393 $380 $499 reversed $260 $-1 #
vertex $-1 $499 $504 #
straight-curve $-1 -62.124104528062631 -40.231989260219194 -3.1948994004232603 0 0 1 I I #
coedge $-1 $505 $506 $266 $387 forward $378 $-1 #
edge $-1 $394 -40.231989260219194 $391 40.231989260219194 $386 $507 forward 7 unknown #
coedge $-1 $500 $267 $271 $396 forward $390 $-1 #
coedge $-1 $267 $500 $505 $508 reversed $390 $-1 #
loop $-1 $-1 $388 $377 #
vertex $-1 $508 $509 #
straight-curve $-1 -33.388016396611135 40.231989260219194 -3.9769851988703997 1 0 0 I I #
coedge $-1 $383 $269 $506 $510 forward $260 $-1 #
vertex $-1 $510 $511 #
straight-curve $-1 -33.388016396611135 -40.231989260219194 -3.9769851988703997 -1 0 0 I I #
edge $-1 $273 0.78208579844713944 $502 5.6077130023993806 $388 $512 forward 7 unknown #
point $-1 -62.124104528062631 -40.231989260219194 -3.9769851988703997 #
point $-1 -62.124104528062631 40.231989260219194 -3.9769851988703997 #
plane-surface $-1 0 -40.231989260219194 0 0 1 0 0 0 1 forward_v I I I I #
coedge $-1 $410 $409 $402 $513 forward $276 $-1 #
coedge $-1 $402 $278 $280 $406 reversed $168 $-1 #
coedge $-1 $278 $401 $400 $513 reversed $168 $-1 #
coedge $-1 $286 $281 $278 $404 forward $287 $-1 #
edge $-1 $407 -34.48206795893784 $514 -25.97324302449141 $403 $515 forward 7 unknown #
coedge $-1 $280 $279 $410 $516 reversed $105 $-1 #
edge $-1 $517 -9.7285995168061774 $407 0 $401 $518 forward 7 unknown #
vertex $-1 $282 $519 #
straight-curve $-1 -9.0626480071340936 -40.231989260219194 0.29378746837620329 1 0 0 I I #
coedge $-1 $400 $283 $286 $414 forward $276 $-1 #
coedge $-1 $283 $400 $405 $516 forward $276 $-1 #
vertex $-1 $284 $520 #
straight-curve $-1 -34.310031755680356 -82.588297557196725 8.8026124028226391 0 -1 0 I I #
straight-curve $-1 -34.310031755680356 -40.231989260219194 0.29378746837620895 0 0.48480960649040278 0.87461971476443456 I I #
edge $-1 $288 -34.310031755680356 $514 -1.9405602728560218 $286 $521 forward 7 unknown #
point $-1 -34.310031755680356 -40.231989260219194 8.8026124028226409 #
point $-1 -34.310031755680356 -40.231989260219194 0.29378746837620895 #
edge $-1 $522 1 $522 0 $291 $-1 forward 7 unknown #
vertex $-1 $292 $523 #
ellipse-curve $-1 -25.061611332016255 -32.457798168396238 1.5461000059345513 0 -0.87461971476443456 0.48480960649040278 2 0 0 1 I I #
point $-1 -23.061611332016255 -37.87373000849643 4.5481999355994178 #
edge $-1 $524 1 $524 0 $295 $-1 forward 7 unknown #
vertex $-1 $296 $525 #
ellipse-curve $-1 -11.188980696520119 -32.457798168396238 1.5461000059345513 0 -0.87461971476443456 0.48480960649040278 2 0 0 1 I I #
point $-1 -9.1889806965201188 -37.87373000849643 4.5481999355994178 #
loop $-1 $-1 $307 $299 #
plane-surface $-1 0 0 8.8026124028226409 0 0 1 1 0 0 forward_v I I I I #
coedge $-1 $428 $302 $304 $432 reversed $190 $-1 #
coedge $-1 $302 $427 $526 $527 reversed $190 $-1 #
coedge $-1 $310 $305 $302 $430 forward $300 $-1 #
edge $-1 $433 -34.48206795893784 $528 -25.97324302449141 $429 $529 forward 7 unknown #
coedge $-1 $304 $303 $436 $530 reversed $119 $-1 #
edge $-1 $531 -9.7285995168061774 $433 0 $427 $532 forward 7 unknown #
vertex $-1 $306 $533 #
straight-curve $-1 13.714576272293741 -40.231989260219194 0.29378746837620329 1 0 0 I I #
coedge $-1 $526 $307 $310 $440 forward $425 $-1 #
coedge $-1 $307 $526 $431 $530 forward $425 $-1 #
vertex $-1 $308 $534 #
straight-curve $-1 11.244416803175316 -82.588297557196725 8.8026124028226391 0 -1 0 I I #
straight-curve $-1 11.244416803175316 -40.231989260219194 0.29378746837620895 0 0.48480960649040278 0.87461971476443456 I I #
edge $-1 $311 11.244416803175316 $528 43.61388828599965 $310 $535 forward 7 unknown #
point $-1 11.244416803175316 -40.231989260219194 8.8026124028226409 #
point $-1 11.244416803175316 -40.231989260219194 0.29378746837620895 #
edge $-1 $536 1 $536 0 $314 $-1 forward 7 unknown #
vertex $-1 $315 $537 #
ellipse-curve $-1 20.492837226839413 -32.457798168396238 1.5461000059345513 0 -0.87461971476443456 0.48480960649040278 2 0 0 1 I I #
point $-1 22.492837226839413 -37.87373000849643 4.5481999355994178 #
edge $-1 $538 1 $538 0 $318 $-1 forward 7 unknown #
vertex $-1 $319 $539 #
ellipse-curve $-1 34.365467862335549 -32.457798168396238 1.5461000059345513 0 -0.87461971476443456 0.48480960649040278 2 0 0 1 I I #
point $-1 36.365467862335549 -37.87373000849643 4.5481999355994178 #
plane-surface $-1 0 0 8.8026124028226409 0 0 1 1 0 0 forward_v I I I I #
coedge $-1 $462 $461 $454 $540 forward $323 $-1 #
coedge $-1 $454 $325 $327 $458 reversed $212 $-1 #
coedge $-1 $325 $453 $452 $540 reversed $212 $-1 #
coedge $-1 $333 $328 $325 $456 forward $334 $-1 #
edge $-1 $459 -19.708501057627146 $541 -16.603026989760409 $455 $542 forward 7 unknown #
coedge $-1 $327 $326 $462 $543 reversed $133 $-1 #
edge $-1 $544 -80.463978520438417 $459 -74.910485056789867 $453 $545 forward 7 unknown #
vertex $-1 $329 $546 #
straight-curve $-1 -26.841245344884541 37.126515192352457 8.8026124028226462 1 0 0 I I #
coedge $-1 $452 $330 $333 $466 reversed $323 $-1 #
coedge $-1 $330 $452 $457 $543 forward $323 $-1 #
vertex $-1 $331 $547 #
straight-curve $-1 -62.124104528062631 40.231989260219194 75.39511792724862 0 0 1 I I #
straight-curve $-1 -62.124104528062631 -4.762895550258591 70.906219698054372 0 0.55919289150049634 -0.82903758062907751 I I #
edge $-1 $541 45.240876851475534 $335 62.124104528062631 $461 $548 forward 7 unknown #
point $-1 -62.124104528062631 40.231989260219194 8.8026124028226409 #
point $-1 -62.124104528062631 37.126515192352457 8.8026124028226391 #
edge $-1 $549 1 $549 0 $338 $-1 forward 7 unknown #
vertex $-1 $339 $550 #
ellipse-curve $-1 -58.747458992745209 36.484947856255054 5.0205080702185354 0 0.82903758062907751 0.55919289150049634 1 0 0 1 I I #
point $-1 -57.747458992745209 38.67925222628584 6.5005850102513438 #
edge $-1 $551 1 $551 0 $342 $-1 forward 7 unknown #
vertex $-1 $343 $552 #
ellipse-curve $-1 -53.682490689769082 36.484947856255054 5.0205080702185354 0 0.82903758062907751 0.55919289150049634 1 0 0 1 I I #
point $-1 -52.682490689769082 38.67925222628584 6.5005850102513438 #
edge $-1 $553 1 $553 0 $346 $-1 forward 7 unknown #
vertex $-1 $347 $554 #
ellipse-curve $-1 -48.617522386792956 36.484947856255054 5.0205080702185354 0 0.82903758062907751 0.55919289150049634 1 0 0 1 I I #
point $-1 -47.617522386792956 38.67925222628584 6.5005850102513438 #
plane-surface $-1 71.427961058381911 0 0 -1 0 0 0 0 1 forward_v I I I I #
coedge $-1 $355 $353 $357 $486 reversed $241 $-1 #
edge $-1 $368 -8.8026124028226409 $488 8.8026124028226409 $367 $555 forward 7 unknown #
vertex $-1 $486 $556 #
straight-curve $-1 -71.427961058381911 -40.231989260219194 0 0 0 -1 I I #
edge $-1 $484 -40.231989260219194 $488 40.231989260219194 $482 $557 forward 7 unknown #
straight-curve $-1 0 -40.231989260219194 -8.8026124028226409 -1 0 0 I I #
vertex $-1 $360 $558 #
straight-curve $-1 0 40.231989260219194 -8.8026124028226409 1 0 0 I I #
point $-1 71.427961058381911 40.231989260219194 -8.8026124028226409 #
point $-1 71.427961058381911 -40.231989260219194 -8.8026124028226409 #
straight-curve $-1 -71.427961058381911 0 8.8026124028226409 0 -1 0 I I #
point $-1 -71.427961058381911 40.231989260219194 8.8026124028226409 #
point $-1 -71.427961058381911 -40.231989260219194 8.8026124028226409 #
straight-curve $-1 71.427961058381911 -40.231989260219194 0 0 0 -1 I I #
straight-curve $-1 71.427961058381911 40.231989260219194 0 0 0 -1 I I #
plane-surface $-1 0 40.231989260219194 0 0 -1 0 0 0 -1 forward_v I I I I #
coedge $-1 $381 $380 $559 $560 forward $160 $-1 #
edge $-1 $384 62.124104528062631 $561 71.427961058381911 $383 $562 forward 7 unknown #
coedge $-1 $389 $388 $381 $501 reversed $390 $-1 #
edge $-1 $563 -71.427961058381911 $502 -62.124104528062631 $500 $564 forward 7 unknown #
vertex $-1 $396 $565 #
straight-curve $-1 -62.124104528062631 0 -8.8026124028226409 0 -1 0 I I #
point $-1 -62.124104528062631 -40.231989260219194 -8.8026124028226409 #
coedge $-1 $559 $386 $389 $508 forward $378 $-1 #
coedge $-1 $386 $559 $393 $510 reversed $378 $-1 #
straight-curve $-1 -71.427961058381911 0 -3.9769851988703997 0 1 0 I I #
edge $-1 $391 3.9769851988703997 $563 8.8026124028226409 $389 $566 forward 7 unknown #
point $-1 -71.427961058381911 40.231989260219194 -3.9769851988703997 #
edge $-1 $394 3.9769851988703997 $561 8.8026124028226409 $506 $567 forward 7 unknown #
point $-1 -71.427961058381911 -40.231989260219194 -3.9769851988703997 #
straight-curve $-1 -62.124104528062631 40.231989260219194 -3.1948994004232603 0 0 -1 I I #
edge $-1 $514 42.356308296977531 $517 47.072826800423059 $400 $568 forward 7 unknown #
vertex $-1 $404 $569 #
straight-curve $-1 -1.9405602728560218 -40.231989260219194 34.775855427314049 0 0 1 I I #
edge $-1 $517 -7.1220877342780717 $411 25.247383748546262 $410 $570 forward 7 unknown #
vertex $-1 $516 $571 #
straight-curve $-1 -1.9405602728560218 -40.231989260219194 0.29378746837620895 0 -0.48480960649040278 -0.87461971476443456 I I #
point $-1 -1.9405602728560218 -40.231989260219194 0.29378746837620895 #
point $-1 -34.310031755680356 -35.515470756773666 8.8026124028226409 #
straight-curve $-1 0 -40.231989260219194 8.8026124028226409 1 0 0 I I #
vertex $-1 $417 $572 #
point $-1 -23.061611332016255 -32.457798168396238 1.5461000059345513 #
vertex $-1 $421 $573 #
point $-1 -9.1889806965201188 -32.457798168396238 1.5461000059345513 #
coedge $-1 $436 $435 $428 $527 forward $425 $-1 #
edge $-1 $528 42.356308296977531 $531 47.072826800423059 $526 $574 forward 7 unknown #
vertex $-1 $527 $575 #
straight-curve $-1 43.61388828599965 -40.231989260219194 34.775855427314049 0 0 1 I I #
edge $-1 $531 -29.899312013705909 $437 2.4701594691184248 $436 $576 forward 7 unknown #
vertex $-1 $530 $577 #
straight-curve $-1 43.61388828599965 -40.231989260219194 0.29378746837620895 0 -0.48480960649040278 -0.87461971476443456 I I #
point $-1 43.61388828599965 -40.231989260219194 0.29378746837620895 #
point $-1 11.244416803175316 -35.515470756773666 8.8026124028226409 #
straight-curve $-1 0 -40.231989260219194 8.8026124028226409 1 0 0 I I #
vertex $-1 $443 $578 #
point $-1 22.492837226839413 -32.457798168396238 1.5461000059345513 #
vertex $-1 $447 $579 #
point $-1 36.365467862335549 -32.457798168396238 1.5461000059345513 #
edge $-1 $541 66.592505524425974 $544 71.196560309568568 $452 $580 forward 7 unknown #
vertex $-1 $466 $581 #
straight-curve $-1 -45.240876851475534 56.835016249979603 8.8026124028226462 0 1 0 I I #
edge $-1 $544 18.399631506590993 $463 35.28285918317809 $462 $582 forward 7 unknown #
vertex $-1 $543 $583 #
straight-curve $-1 -45.240876851475534 -4.762895550258591 70.906219698054372 0 -0.55919289150049634 0.82903758062907751 I I #
point $-1 -45.240876851475534 37.126515192352457 8.8026124028226391 #
point $-1 -62.124104528062631 40.231989260219194 4.1985576176800521 #
straight-curve $-1 0 40.231989260219194 8.8026124028226409 -1 0 0 I I #
vertex $-1 $469 $584 #
point $-1 -57.747458992745209 36.484947856255054 5.0205080702185354 #
vertex $-1 $473 $585 #
point $-1 -52.682490689769082 36.484947856255054 5.0205080702185354 #
vertex $-1 $477 $586 #
point $-1 -47.617522386792956 36.484947856255054 5.0205080702185354 #
straight-curve $-1 -71.427961058381911 40.231989260219194 0 0 0 -1 I I #
point $-1 -71.427961058381911 -40.231989260219194 -8.8026124028226409 #
straight-curve $-1 -71.427961058381911 0 -8.8026124028226409 0 1 0 I I #
point $-1 -71.427961058381911 40.231989260219194 -8.8026124028226409 #
coedge $-1 $506 $505 $498 $560 reversed $378 $-1 #
edge $-1 $561 -40.231989260219194 $563 40.231989260219194 $559 $587 forward 7 unknown #
vertex $-1 $560 $588 #
straight-curve $-1 0 -40.231989260219194 -8.8026124028226409 -1 0 0 I I #
vertex $-1 $501 $589 #
straight-curve $-1 0 40.231989260219194 -8.8026124028226409 1 0 0 I I #
point $-1 -62.124104528062631 40.231989260219194 -8.8026124028226409 #
straight-curve $-1 -71.427961058381911 40.231989260219194 0 0 0 -1 I I #
straight-curve $-1 -71.427961058381911 -40.231989260219194 0 0 0 -1 I I #
straight-curve $-1 -1.9405602728560218 -82.588297557196725 8.8026124028226391 0 1 0 I I #
point $-1 -1.9405602728560218 -40.231989260219194 8.8026124028226409 #
straight-curve $-1 -9.0626480071340936 -35.515470756773666 8.8026124028226409 -1 0 0 I I #
point $-1 -1.9405602728560218 -35.515470756773666 8.8026124028226409 #
point $-1 -25.061611332016255 -30.708558738867371 0.57648079295374566 #
point $-1 -11.188980696520119 -30.708558738867371 0.57648079295374566 #
straight-curve $-1 43.61388828599965 -82.588297557196725 8.8026124028226391 0 1 0 I I #
point $-1 43.61388828599965 -40.231989260219194 8.8026124028226409 #
straight-curve $-1 13.714576272293741 -35.515470756773666 8.8026124028226409 -1 0 0 I I #
point $-1 43.61388828599965 -35.515470756773666 8.8026124028226409 #
point $-1 20.492837226839413 -30.708558738867371 0.57648079295374566 #
point $-1 34.365467862335549 -30.708558738867371 0.57648079295374566 #
straight-curve $-1 -45.240876851475534 40.231989260219194 75.39511792724862 0 0 -1 I I #
point $-1 -45.240876851475534 40.231989260219194 8.8026124028226409 #
straight-curve $-1 -26.841245344884541 40.231989260219194 4.1985576176800521 -1 0 0 I I #
point $-1 -45.240876851475534 40.231989260219194 4.1985576176800521 #
point $-1 -58.747458992745209 35.655910275625978 4.4613151787180394 #
point $-1 -53.682490689769082 35.655910275625978 4.4613151787180394 #
point $-1 -48.617522386792956 35.655910275625978 4.4613151787180394 #
straight-curve $-1 -71.427961058381911 0 -8.8026124028226409 0 1 0 I I #
point $-1 -71.427961058381911 -40.231989260219194 -8.8026124028226409 #
point $-1 -71.427961058381911 40.231989260219194 -8.8026124028226409 #
End-of-ACIS-data 