500 0 5 0           
7 Unknown 11 ACIS 5.0 NT 24 Fri Mar 26 20:14:44 1999 
-1 9.9999999999999995e-007 1e-010 
body $-1 $5 $-1 $6 #
body $-1 $7 $-1 $8 #
body $-1 $9 $-1 $10 #
body $-1 $11 $-1 $12 #
body $-1 $13 $-1 $14 #
lump $-1 $-1 $15 $0 #
transform $-1 1 0 0 0 1 0 0 0 1 51.418805505539112 27.587608518008352 7.2095538346677248 1 rotate no_reflect no_shear #
lump $-1 $-1 $16 $1 #
transform $-1 1 0 0 0 1 0 0 0 1 51.418805505539112 27.587608518008352 7.2095538346677248 1 rotate no_reflect no_shear #
lump $-1 $-1 $17 $2 #
transform $-1 1 0 0 0 1 0 0 0 1 51.418805505539112 27.587608518008352 7.2095538346677248 1 rotate no_reflect no_shear #
lump $-1 $-1 $18 $3 #
transform $-1 1 0 0 0 1 0 0 0 1 51.418805505539112 27.587608518008352 7.2095538346677248 1 rotate no_reflect no_shear #
lump $-1 $-1 $19 $4 #
transform $-1 1 0 0 0 1 0 0 0 1 51.418805505539112 27.587608518008352 7.2095538346677248 1 rotate no_reflect no_shear #
shell $-1 $-1 $-1 $20 $-1 $5 #
shell $-1 $-1 $-1 $21 $-1 $7 #
shell $-1 $-1 $-1 $22 $-1 $9 #
shell $-1 $-1 $-1 $23 $-1 $11 #
shell $-1 $-1 $-1 $24 $-1 $13 #
face $-1 $25 $26 $15 $-1 $27 forward single #
face $-1 $28 $29 $16 $-1 $30 forward single #
face $-1 $31 $32 $17 $-1 $33 reversed single #
face $-1 $34 $35 $18 $-1 $36 forward single #
face $-1 $37 $38 $19 $-1 $39 reversed single #
face $-1 $40 $41 $15 $-1 $42 reversed single #
loop $-1 $-1 $43 $20 #
plane-surface $-1 0 0 7.2095538346677248 0 0 1 1 0 0 forward_v I I I I #
face $-1 $44 $45 $16 $-1 $46 forward single #
loop $-1 $-1 $47 $21 #
plane-surface $-1 89.05998577331259 -8.5521320079297283 141.59248895951649 0 -1 0 -0.86602541151947299 0 -0.49999998660252726 forward_v I I I I #
face $-1 $48 $49 $17 $-1 $50 reversed single #
loop $-1 $51 $52 $22 #
cone-surface $-1 49.226071562373271 -14.77150334633793 3.9116271421290758 -0.86602541151947299 0 -0.49999998660252726 0.24999999330126363 0 -0.43301270575973649 1 I I 0 1 0.5 forward I I I I #
face $-1 $53 $54 $18 $-1 $55 forward single #
loop $-1 $-1 $56 $23 #
plane-surface $-1 89.05998577331259 20.990874684746125 141.59248895951649 0 -1 0 -0.86602541151947299 0 -0.49999998660252726 forward_v I I I I #
face $-1 $57 $58 $19 $-1 $59 reversed single #
loop $-1 $60 $61 $24 #
cone-surface $-1 49.226071562373271 14.771503346337923 3.9116271421290758 -0.86602541151947299 0 -0.49999998660252726 0.24999999330126363 0 -0.43301270575973649 1 I I 0 1 0.5 forward I I I I #
face $-1 $62 $63 $15 $-1 $64 reversed single #
loop $-1 $-1 $65 $25 #
plane-surface $-1 0 0 -7.2095538346677248 0 0 1 1 0 0 forward_v I I I I #
coedge $-1 $66 $67 $68 $69 forward $26 $-1 #
face $-1 $70 $71 $16 $-1 $72 forward single #
loop $-1 $-1 $73 $28 #
plane-surface $-1 1.3777640788248391e-006 -14.77150334633793 90.173684831741468 0.86602541151947299 0 0.49999998660252726 0.49999998660252726 0 -0.86602541151947299 forward_v I I I I #
coedge $-1 $74 $75 $76 $77 reversed $29 $-1 #
face $-1 $78 $79 $17 $-1 $80 forward single #
loop $-1 $81 $82 $31 #
cone-surface $-1 48.576552503733666 -14.77150334633793 3.5366271521771804 -0.86602541151947299 0 -0.49999998660252726 0.12499999665063181 0 -0.21650635287986825 1 I I -0.70710678118654746 0.70710678118654746 0.25 forward I I I I #
loop $-1 $-1 $83 $22 #
coedge $-1 $52 $52 $84 $85 reversed $32 $-1 #
face $-1 $86 $87 $18 $-1 $88 forward single #
loop $-1 $-1 $89 $34 #
plane-surface $-1 1.3777640788248391e-006 14.771503346337923 90.173684831741468 0.86602541151947299 0 0.49999998660252726 0.49999998660252726 0 -0.86602541151947299 forward_v I I I I #
coedge $-1 $90 $91 $92 $93 reversed $35 $-1 #
face $-1 $94 $95 $19 $-1 $96 forward single #
loop $-1 $97 $98 $37 #
cone-surface $-1 48.576552503733666 14.771503346337923 3.5366271521771804 -0.86602541151947299 0 -0.49999998660252726 0.12499999665063181 0 -0.21650635287986825 1 I I -0.70710678118654746 0.70710678118654746 0.25 forward I I I I #
loop $-1 $-1 $99 $24 #
coedge $-1 $61 $61 $100 $101 reversed $38 $-1 #
face $-1 $102 $103 $15 $-1 $104 reversed single #
loop $-1 $-1 $105 $40 #
plane-surface $-1 0 -27.587608518008352 0 0 1 0 0 0 1 forward_v I I I I #
coedge $-1 $106 $107 $108 $109 forward $41 $-1 #
coedge $-1 $110 $43 $111 $112 forward $26 $-1 #
coedge $-1 $43 $110 $113 $114 forward $26 $-1 #
coedge $-1 $115 $116 $43 $69 reversed $117 $-1 #
edge $-1 $118 -27.587608518008352 $119 27.587608518008352 $68 $120 forward 7 unknown #
face $-1 $121 $122 $16 $-1 $123 forward single #
loop $-1 $-1 $124 $44 #
plane-surface $-1 89.05998577331259 -20.990874684746132 141.59248895951649 0 1 0 0.86602541151947299 0 0.49999998660252726 forward_v I I I I #
coedge $-1 $125 $126 $127 $128 reversed $45 $-1 #
coedge $-1 $75 $47 $126 $129 forward $29 $-1 #
coedge $-1 $47 $74 $130 $131 reversed $29 $-1 #
coedge $-1 $132 $127 $47 $77 forward $122 $-1 #
edge $-1 $133 3.3693701440706008 $134 6.8888126188828167 $76 $135 forward 7 unknown #
face $-1 $136 $137 $17 $-1 $138 forward single #
loop $-1 $-1 $139 $48 #
plane-surface $-1 89.05998577331259 -8.5521320079297283 141.59248895951649 0 -1 0 -0.86602541151947299 0 -0.49999998660252726 forward_v I I I I #
loop $-1 $-1 $140 $31 #
coedge $-1 $82 $82 $83 $141 forward $49 $-1 #
coedge $-1 $83 $83 $82 $141 reversed $51 $-1 #
coedge $-1 $84 $84 $52 $85 forward $137 $-1 #
edge $-1 $142 0 $142 6.2831853071796004 $84 $143 forward 7 unknown #
face $-1 $144 $145 $18 $-1 $146 forward single #
loop $-1 $-1 $147 $53 #
plane-surface $-1 89.05998577331259 8.5521320079297212 141.59248895951649 0 1 0 0.86602541151947299 0 0.49999998660252726 forward_v I I I I #
coedge $-1 $148 $149 $150 $151 reversed $54 $-1 #
coedge $-1 $91 $56 $149 $152 forward $35 $-1 #
coedge $-1 $56 $90 $153 $154 reversed $35 $-1 #
coedge $-1 $155 $150 $56 $93 forward $145 $-1 #
edge $-1 $156 3.3693701440706008 $157 6.8888126188828167 $92 $158 forward 7 unknown #
face $-1 $159 $160 $19 $-1 $161 forward single #
loop $-1 $-1 $162 $57 #
plane-surface $-1 89.05998577331259 20.990874684746125 141.59248895951649 0 -1 0 -0.86602541151947299 0 -0.49999998660252726 forward_v I I I I #
loop $-1 $-1 $163 $37 #
coedge $-1 $98 $98 $99 $164 forward $58 $-1 #
coedge $-1 $99 $99 $98 $164 reversed $60 $-1 #
coedge $-1 $100 $100 $61 $101 forward $160 $-1 #
edge $-1 $165 0 $165 6.2831853071796004 $100 $166 forward 7 unknown #
face $-1 $167 $168 $15 $-1 $169 reversed single #
loop $-1 $-1 $170 $62 #
plane-surface $-1 -51.418805505539112 0 0 1 0 0 0 0 -1 forward_v I I I I #
coedge $-1 $171 $113 $172 $173 forward $63 $-1 #
coedge $-1 $174 $65 $171 $175 forward $41 $-1 #
coedge $-1 $65 $174 $176 $177 forward $41 $-1 #
coedge $-1 $116 $115 $65 $109 reversed $117 $-1 #
edge $-1 $178 -27.587608518008352 $179 27.587608518008352 $108 $180 forward 7 unknown #
coedge $-1 $67 $66 $181 $182 forward $26 $-1 #
coedge $-1 $183 $184 $66 $112 reversed $168 $-1 #
edge $-1 $119 -51.418805505539112 $185 51.418805505539112 $111 $186 forward 7 unknown #
coedge $-1 $105 $187 $67 $114 reversed $63 $-1 #
edge $-1 $188 -51.418805505539112 $118 51.418805505539112 $113 $189 forward 7 unknown #
coedge $-1 $108 $68 $187 $190 forward $117 $-1 #
coedge $-1 $68 $108 $183 $191 reversed $117 $-1 #
loop $-1 $-1 $115 $167 #
vertex $-1 $69 $192 #
vertex $-1 $69 $193 #
straight-curve $-1 51.418805505539112 0 7.2095538346677248 0 1 0 I I #
face $-1 $194 $195 $16 $-1 $196 reversed single #
loop $-1 $-1 $197 $70 #
plane-surface $-1 0 0 7.2095538346677248 0 0 1 1 0 0 forward_v I I I I #
coedge $-1 $198 $199 $197 $200 reversed $71 $-1 #
coedge $-1 $201 $73 $199 $202 reversed $45 $-1 #
coedge $-1 $73 $201 $74 $129 reversed $45 $-1 #
coedge $-1 $76 $197 $73 $128 forward $122 $-1 #
edge $-1 $203 -13.605123011577167 $133 -1.1663803347607633 $127 $204 forward 7 unknown #
edge $-1 $133 95.798725872847271 $205 102.83761101107825 $74 $206 forward 7 unknown #
coedge $-1 $207 $208 $75 $131 forward $209 $-1 #
edge $-1 $134 63.58669064509052 $205 69.682544043565301 $130 $210 forward 7 unknown #
coedge $-1 $211 $76 $208 $212 forward $122 $-1 #
vertex $-1 $128 $213 #
vertex $-1 $212 $214 #
straight-curve $-1 44.529992886656295 -8.5521320079297283 7.2095538346677301 1 0 0 I I #
face $-1 $215 $216 $17 $-1 $217 forward single #
loop $-1 $218 $84 $78 #
plane-surface $-1 1.3777640788248391e-006 -14.77150334633793 90.173684831741468 0.86602541151947299 0 0.49999998660252726 0.49999998660252726 0 -0.86602541151947299 forward_v I I I I #
coedge $-1 $219 $220 $221 $222 reversed $79 $-1 #
coedge $-1 $140 $140 $-1 $223 forward $81 $-1 #
edge $-1 $224 0 $224 6.2831853071796004 $82 $225 forward 7 unknown #
vertex $-1 $85 $226 #
ellipse-curve $-1 49.659084268133 -14.77150334633793 4.1616271354303356 -0.86602541151947299 0 -0.49999998660252726 0.24999999330126363 0 -0.43301270575973649 1 I I #
face $-1 $227 $228 $18 $-1 $229 reversed single #
loop $-1 $-1 $230 $86 #
plane-surface $-1 0 0 7.2095538346677248 0 0 1 1 0 0 forward_v I I I I #
coedge $-1 $231 $232 $230 $233 reversed $87 $-1 #
coedge $-1 $234 $89 $232 $235 reversed $54 $-1 #
coedge $-1 $89 $234 $90 $152 reversed $54 $-1 #
coedge $-1 $92 $230 $89 $151 forward $145 $-1 #
edge $-1 $236 1.1663803347607598 $156 13.605123011577163 $150 $237 forward 7 unknown #
edge $-1 $156 95.798725872847271 $238 102.83761101107825 $90 $239 forward 7 unknown #
coedge $-1 $240 $241 $91 $154 forward $242 $-1 #
edge $-1 $157 63.58669064509052 $238 69.682544043565301 $153 $243 forward 7 unknown #
coedge $-1 $244 $92 $241 $245 forward $145 $-1 #
vertex $-1 $151 $246 #
vertex $-1 $245 $247 #
straight-curve $-1 44.529992886656295 20.990874684746125 7.2095538346677301 1 0 0 I I #
face $-1 $248 $249 $19 $-1 $250 forward single #
loop $-1 $251 $100 $94 #
plane-surface $-1 1.3777640788248391e-006 14.771503346337923 90.173684831741468 0.86602541151947299 0 0.49999998660252726 0.49999998660252726 0 -0.86602541151947299 forward_v I I I I #
coedge $-1 $252 $253 $254 $255 reversed $95 $-1 #
coedge $-1 $163 $163 $-1 $256 forward $97 $-1 #
edge $-1 $257 0 $257 6.2831853071796004 $98 $258 forward 7 unknown #
vertex $-1 $101 $259 #
ellipse-curve $-1 49.659084268133 14.771503346337923 4.1616271354303356 -0.86602541151947299 0 -0.49999998660252726 0.24999999330126363 0 -0.43301270575973649 1 I I #
face $-1 $-1 $117 $15 $-1 $260 reversed single #
loop $-1 $-1 $183 $102 #
plane-surface $-1 0 27.587608518008352 0 0 -1 0 0 0 -1 forward_v I I I I #
coedge $-1 $261 $181 $184 $262 forward $103 $-1 #
coedge $-1 $187 $105 $106 $175 reversed $63 $-1 #
coedge $-1 $181 $261 $105 $173 reversed $103 $-1 #
edge $-1 $188 -7.2095538346677248 $263 7.2095538346677248 $172 $264 forward 7 unknown #
coedge $-1 $107 $106 $261 $265 forward $41 $-1 #
edge $-1 $179 -51.418805505539112 $263 51.418805505539112 $171 $266 forward 7 unknown #
coedge $-1 $184 $183 $107 $177 reversed $168 $-1 #
edge $-1 $267 -51.418805505539112 $178 51.418805505539112 $176 $268 forward 7 unknown #
vertex $-1 $109 $269 #
vertex $-1 $190 $270 #
straight-curve $-1 51.418805505539112 0 -7.2095538346677248 0 -1 0 I I #
coedge $-1 $170 $172 $110 $182 reversed $103 $-1 #
edge $-1 $185 -27.587608518008352 $188 27.587608518008352 $181 $271 forward 7 unknown #
coedge $-1 $176 $111 $116 $191 forward $168 $-1 #
coedge $-1 $111 $176 $170 $262 reversed $168 $-1 #
vertex $-1 $112 $272 #
straight-curve $-1 0 27.587608518008352 7.2095538346677248 -1 0 0 I I #
coedge $-1 $113 $171 $115 $190 reversed $63 $-1 #
vertex $-1 $182 $273 #
straight-curve $-1 0 -27.587608518008352 7.2095538346677248 1 0 0 I I #
edge $-1 $118 -7.2095538346677248 $179 7.2095538346677248 $115 $274 forward 7 unknown #
edge $-1 $119 -7.2095538346677248 $178 7.2095538346677248 $116 $275 forward 7 unknown #
point $-1 51.418805505539112 -27.587608518008352 7.2095538346677248 #
point $-1 51.418805505539112 27.587608518008352 7.2095538346677248 #
face $-1 $276 $277 $16 $-1 $278 reversed single #
loop $-1 $-1 $279 $121 #
plane-surface $-1 0 0 -7.2095538346677248 0 0 1 1 0 0 forward_v I I I I #
coedge $-1 $127 $280 $124 $200 forward $122 $-1 #
coedge $-1 $199 $124 $281 $282 reversed $71 $-1 #
coedge $-1 $124 $198 $125 $202 forward $71 $-1 #
edge $-1 $283 -6.8888126188828167 $203 -3.3693701440706008 $197 $284 forward 7 unknown #
coedge $-1 $126 $125 $207 $285 reversed $45 $-1 #
edge $-1 $286 -102.83761101107825 $203 -95.798725872847271 $199 $287 forward 7 unknown #
vertex $-1 $128 $288 #
straight-curve $-1 47.899363030726903 -7.385751673168965 7.209553834667723 0 1 0 I I #
vertex $-1 $285 $289 #
straight-curve $-1 1.3777640788248391e-006 -8.5521320079297283 90.173684831741468 0.49999998660252726 0 -0.86602541151947299 I I #
coedge $-1 $281 $130 $201 $285 forward $209 $-1 #
coedge $-1 $130 $290 $132 $212 reversed $209 $-1 #
loop $-1 $-1 $281 $291 #
straight-curve $-1 51.418805505539112 -8.5521320079297283 70.796244479758244 0 0 -1 I I #
coedge $-1 $292 $132 $293 $294 forward $122 $-1 #
edge $-1 $134 -8.5521320079297283 $295 27.587608518008352 $208 $296 forward 7 unknown #
point $-1 47.899363030726896 -8.5521320079297283 7.2095538346677301 #
point $-1 51.418805505539112 -8.5521320079297283 7.2095538346677248 #
face $-1 $297 $298 $17 $-1 $299 forward single #
loop $-1 $-1 $300 $136 #
plane-surface $-1 89.05998577331259 -20.990874684746132 141.59248895951649 0 1 0 0.86602541151947299 0 0.49999998660252726 forward_v I I I I #
loop $-1 $-1 $301 $78 #
coedge $-1 $220 $139 $302 $303 forward $79 $-1 #
coedge $-1 $139 $219 $304 $305 reversed $79 $-1 #
coedge $-1 $306 $307 $139 $222 forward $298 $-1 #
edge $-1 $308 3.3693701440706008 $309 6.8888126188828167 $221 $310 forward 7 unknown #
edge $-1 $311 1 $311 0 $140 $-1 forward 7 unknown #
vertex $-1 $141 $312 #
ellipse-curve $-1 48.793058856613534 -14.77150334633793 3.661627148827812 0.86602541151947299 0 0.49999998660252726 0.24999999330126363 0 -0.43301270575973649 1 I I #
point $-1 49.909084261434273 -14.77150334633793 3.728614429670603 #
face $-1 $313 $314 $18 $-1 $315 reversed single #
loop $-1 $316 $317 $144 #
cone-surface $-1 49.226071562373271 -14.77150334633793 3.9116271421290758 -0.86602541151947299 0 -0.49999998660252726 0.24999999330126363 0 -0.43301270575973649 1 I I 0 1 0.5 forward I I I I #
coedge $-1 $150 $318 $147 $233 forward $145 $-1 #
coedge $-1 $232 $147 $319 $320 reversed $87 $-1 #
coedge $-1 $147 $231 $148 $235 forward $87 $-1 #
edge $-1 $321 -6.8888126188828167 $236 -3.3693701440706008 $230 $322 forward 7 unknown #
coedge $-1 $149 $148 $240 $323 reversed $54 $-1 #
edge $-1 $324 -102.83761101107825 $236 -95.798725872847271 $232 $325 forward 7 unknown #
vertex $-1 $151 $326 #
straight-curve $-1 47.899363030726903 7.3857516731689614 7.209553834667723 0 1 0 I I #
vertex $-1 $323 $327 #
straight-curve $-1 1.3777640788248391e-006 20.990874684746125 90.173684831741468 0.49999998660252726 0 -0.86602541151947299 I I #
coedge $-1 $319 $153 $234 $323 forward $242 $-1 #
coedge $-1 $153 $328 $155 $245 reversed $242 $-1 #
loop $-1 $-1 $319 $329 #
straight-curve $-1 51.418805505539112 20.990874684746125 70.796244479758244 0 0 -1 I I #
coedge $-1 $330 $155 $331 $332 forward $145 $-1 #
edge $-1 $157 20.990874684746125 $333 27.587608518008352 $241 $334 forward 7 unknown #
point $-1 47.899363030726896 20.990874684746125 7.2095538346677301 #
point $-1 51.418805505539112 20.990874684746125 7.2095538346677248 #
face $-1 $335 $336 $19 $-1 $337 forward single #
loop $-1 $-1 $338 $159 #
plane-surface $-1 89.05998577331259 8.5521320079297212 141.59248895951649 0 1 0 0.86602541151947299 0 0.49999998660252726 forward_v I I I I #
loop $-1 $-1 $339 $94 #
coedge $-1 $253 $162 $340 $341 forward $95 $-1 #
coedge $-1 $162 $252 $342 $343 reversed $95 $-1 #
coedge $-1 $344 $345 $162 $255 forward $336 $-1 #
edge $-1 $346 3.3693701440706008 $347 6.8888126188828167 $254 $348 forward 7 unknown #
edge $-1 $349 1 $349 0 $163 $-1 forward 7 unknown #
vertex $-1 $164 $350 #
ellipse-curve $-1 48.793058856613534 14.771503346337923 3.661627148827812 0.86602541151947299 0 0.49999998660252726 0.24999999330126363 0 -0.43301270575973649 1 I I #
point $-1 49.909084261434273 14.771503346337923 3.728614429670603 #
plane-surface $-1 51.418805505539112 0 0 -1 0 0 0 0 1 forward_v I I I I #
coedge $-1 $172 $170 $174 $265 reversed $103 $-1 #
edge $-1 $185 -7.2095538346677248 $267 7.2095538346677248 $184 $351 forward 7 unknown #
vertex $-1 $265 $352 #
straight-curve $-1 -51.418805505539112 -27.587608518008352 0 0 0 -1 I I #
edge $-1 $263 -27.587608518008352 $267 27.587608518008352 $261 $353 forward 7 unknown #
straight-curve $-1 0 -27.587608518008352 -7.2095538346677248 -1 0 0 I I #
vertex $-1 $177 $354 #
straight-curve $-1 0 27.587608518008352 -7.2095538346677248 1 0 0 I I #
point $-1 51.418805505539112 27.587608518008352 -7.2095538346677248 #
point $-1 51.418805505539112 -27.587608518008352 -7.2095538346677248 #
straight-curve $-1 -51.418805505539112 0 7.2095538346677248 0 -1 0 I I #
point $-1 -51.418805505539112 27.587608518008352 7.2095538346677248 #
point $-1 -51.418805505539112 -27.587608518008352 7.2095538346677248 #
straight-curve $-1 51.418805505539112 -27.587608518008352 0 0 0 -1 I I #
straight-curve $-1 51.418805505539112 27.587608518008352 0 0 0 -1 I I #
face $-1 $355 $356 $16 $-1 $357 reversed single #
loop $-1 $-1 $358 $194 #
plane-surface $-1 0 -27.587608518008352 0 0 1 0 0 0 1 forward_v I I I I #
coedge $-1 $359 $360 $361 $362 forward $195 $-1 #
coedge $-1 $197 $363 $364 $365 forward $122 $-1 #
coedge $-1 $364 $207 $198 $282 forward $209 $-1 #
edge $-1 $286 -69.682544043565301 $283 -63.58669064509052 $281 $366 forward 7 unknown #
vertex $-1 $282 $367 #
straight-curve $-1 44.529992886656295 -20.990874684746132 7.2095538346677301 -1 0 0 I I #
edge $-1 $205 1.1663803347607633 $286 13.605123011577167 $207 $368 forward 7 unknown #
vertex $-1 $285 $369 #
straight-curve $-1 1.3777640788248391e-006 -20.990874684746132 90.173684831741468 -0.49999998660252726 0 0.86602541151947299 I I #
point $-1 47.899363030726896 -20.990874684746132 7.2095538346677301 #
point $-1 51.418805505539112 -8.5521320079297283 1.1137004361929428 #
coedge $-1 $208 $361 $370 $371 reversed $209 $-1 #
face $-1 $-1 $209 $16 $-1 $372 reversed single #
coedge $-1 $363 $211 $373 $374 forward $122 $-1 #
coedge $-1 $370 $375 $211 $294 reversed $376 $-1 #
edge $-1 $295 -51.418805505539112 $377 51.418805505539112 $293 $378 forward 7 unknown #
vertex $-1 $212 $379 #
straight-curve $-1 51.418805505539112 0 7.2095538346677248 0 1 0 I I #
face $-1 $380 $381 $17 $-1 $382 reversed single #
loop $-1 $-1 $383 $215 #
plane-surface $-1 0 0 7.2095538346677248 0 0 1 1 0 0 forward_v I I I I #
coedge $-1 $384 $385 $383 $386 reversed $216 $-1 #
coedge $-1 $387 $302 $307 $388 reversed $218 $-1 #
coedge $-1 $301 $389 $219 $303 reversed $218 $-1 #
edge $-1 $308 95.798725872847271 $390 102.83761101107825 $219 $391 forward 7 unknown #
coedge $-1 $392 $393 $220 $305 forward $394 $-1 #
edge $-1 $309 63.58669064509052 $390 69.682544043565301 $304 $395 forward 7 unknown #
coedge $-1 $396 $221 $393 $397 forward $298 $-1 #
coedge $-1 $221 $383 $301 $388 forward $298 $-1 #
vertex $-1 $388 $398 #
vertex $-1 $397 $399 #
straight-curve $-1 44.529992886656295 -8.5521320079297283 7.2095538346677301 1 0 0 I I #
vertex $-1 $223 $400 #
point $-1 49.0430588499148 -14.77150334633793 3.2286144430680759 #
face $-1 $401 $402 $18 $-1 $403 forward single #
loop $-1 $404 $405 $227 #
cone-surface $-1 48.576552503733666 -14.77150334633793 3.5366271521771804 -0.86602541151947299 0 -0.49999998660252726 0.12499999665063181 0 -0.21650635287986825 1 I I -0.70710678118654746 0.70710678118654746 0.25 forward I I I I #
loop $-1 $-1 $406 $144 #
coedge $-1 $317 $317 $407 $408 reversed $228 $-1 #
coedge $-1 $230 $409 $410 $411 forward $145 $-1 #
coedge $-1 $410 $240 $231 $320 forward $242 $-1 #
edge $-1 $324 -69.682544043565301 $321 -63.58669064509052 $319 $412 forward 7 unknown #
vertex $-1 $320 $413 #
straight-curve $-1 44.529992886656295 8.5521320079297212 7.2095538346677301 -1 0 0 I I #
edge $-1 $238 -13.605123011577163 $324 -1.1663803347607598 $240 $414 forward 7 unknown #
vertex $-1 $323 $415 #
straight-curve $-1 1.3777640788248391e-006 8.5521320079297212 90.173684831741468 -0.49999998660252726 0 0.86602541151947299 I I #
point $-1 47.899363030726896 8.5521320079297212 7.2095538346677301 #
point $-1 51.418805505539112 20.990874684746125 1.1137004361929428 #
coedge $-1 $241 $416 $417 $418 reversed $242 $-1 #
face $-1 $-1 $242 $18 $-1 $419 reversed single #
coedge $-1 $420 $244 $421 $422 forward $145 $-1 #
coedge $-1 $417 $423 $244 $332 reversed $424 $-1 #
edge $-1 $333 -51.418805505539112 $425 51.418805505539112 $331 $426 forward 7 unknown #
vertex $-1 $245 $427 #
straight-curve $-1 51.418805505539112 0 7.2095538346677248 0 1 0 I I #
face $-1 $428 $429 $19 $-1 $430 reversed single #
loop $-1 $-1 $431 $248 #
plane-surface $-1 0 0 7.2095538346677248 0 0 1 1 0 0 forward_v I I I I #
coedge $-1 $432 $433 $431 $434 reversed $249 $-1 #
coedge $-1 $435 $340 $345 $436 reversed $251 $-1 #
coedge $-1 $339 $437 $252 $341 reversed $251 $-1 #
edge $-1 $346 95.798725872847271 $438 102.83761101107825 $252 $439 forward 7 unknown #
coedge $-1 $440 $441 $253 $343 forward $442 $-1 #
edge $-1 $347 63.58669064509052 $438 69.682544043565301 $342 $443 forward 7 unknown #
coedge $-1 $444 $254 $441 $445 forward $336 $-1 #
coedge $-1 $254 $431 $339 $436 forward $336 $-1 #
vertex $-1 $436 $446 #
vertex $-1 $445 $447 #
straight-curve $-1 44.529992886656295 20.990874684746125 7.2095538346677301 1 0 0 I I #
vertex $-1 $256 $448 #
point $-1 49.0430588499148 14.771503346337923 3.2286144430680759 #
straight-curve $-1 -51.418805505539112 27.587608518008352 0 0 0 -1 I I #
point $-1 -51.418805505539112 -27.587608518008352 -7.2095538346677248 #
straight-curve $-1 -51.418805505539112 0 -7.2095538346677248 0 1 0 I I #
point $-1 -51.418805505539112 27.587608518008352 -7.2095538346677248 #
face $-1 $291 $376 $16 $-1 $449 reversed single #
loop $-1 $-1 $450 $276 #
plane-surface $-1 -51.418805505539112 0 0 1 0 0 0 0 -1 forward_v I I I I #
coedge $-1 $451 $452 $453 $454 forward $277 $-1 #
coedge $-1 $455 $279 $451 $456 forward $195 $-1 #
coedge $-1 $279 $455 $457 $458 forward $195 $-1 #
coedge $-1 $290 $459 $279 $362 reversed $209 $-1 #
edge $-1 $460 -27.587608518008352 $461 27.587608518008352 $361 $462 forward 7 unknown #
coedge $-1 $280 $292 $452 $463 forward $122 $-1 #
coedge $-1 $459 $281 $280 $365 reversed $209 $-1 #
edge $-1 $464 -27.587608518008352 $283 -20.990874684746132 $364 $296 forward 7 unknown #
straight-curve $-1 51.418805505539112 -20.990874684746132 70.796244479758244 0 0 1 I I #
point $-1 51.418805505539112 -20.990874684746132 7.2095538346677248 #
straight-curve $-1 51.418805505539112 -7.385751673168965 1.1137004361929357 0 -1 0 I I #
point $-1 51.418805505539112 -20.990874684746132 1.1137004361929428 #
coedge $-1 $457 $293 $290 $371 forward $376 $-1 #
edge $-1 $295 -7.2095538346677248 $460 7.2095538346677248 $290 $465 forward 7 unknown #
plane-surface $-1 51.418805505539112 0 0 -1 0 0 0 0 1 forward_v I I I I #
coedge $-1 $450 $453 $292 $374 reversed $356 $-1 #
edge $-1 $377 -27.587608518008352 $466 27.587608518008352 $373 $467 forward 7 unknown #
coedge $-1 $293 $457 $450 $468 reversed $376 $-1 #
loop $-1 $-1 $370 $355 #
vertex $-1 $294 $469 #
straight-curve $-1 0 27.587608518008352 7.2095538346677248 -1 0 0 I I #
point $-1 51.418805505539112 27.587608518008352 7.2095538346677248 #
face $-1 $470 $471 $17 $-1 $472 reversed single #
loop $-1 $-1 $473 $297 #
plane-surface $-1 0 0 -7.2095538346677248 0 0 1 1 0 0 forward_v I I I I #
coedge $-1 $307 $474 $300 $386 forward $298 $-1 #
coedge $-1 $385 $300 $475 $476 reversed $216 $-1 #
coedge $-1 $300 $384 $387 $477 forward $216 $-1 #
edge $-1 $478 -6.8888126188828167 $479 -3.3693701440706008 $383 $480 forward 7 unknown #
coedge $-1 $389 $301 $385 $477 reversed $218 $-1 #
edge $-1 $479 -13.605123011577167 $308 -1.1663803347607633 $307 $481 forward 7 unknown #
coedge $-1 $302 $387 $392 $482 reversed $218 $-1 #
vertex $-1 $482 $483 #
straight-curve $-1 1.3777640788248391e-006 -8.5521320079297283 90.173684831741468 0.49999998660252726 0 -0.86602541151947299 I I #
coedge $-1 $475 $304 $389 $482 forward $394 $-1 #
coedge $-1 $304 $484 $306 $397 reversed $394 $-1 #
loop $-1 $-1 $475 $485 #
straight-curve $-1 51.418805505539112 -8.5521320079297283 70.796244479758244 0 0 -1 I I #
coedge $-1 $486 $306 $487 $488 forward $298 $-1 #
edge $-1 $309 -8.5521320079297283 $489 27.587608518008352 $393 $490 forward 7 unknown #
point $-1 47.899363030726896 -8.5521320079297283 7.2095538346677301 #
point $-1 51.418805505539112 -8.5521320079297283 7.2095538346677248 #
point $-1 48.360046150853798 -14.77150334633793 3.4116271555265487 #
face $-1 $491 $492 $18 $-1 $493 forward single #
loop $-1 $-1 $494 $313 #
plane-surface $-1 89.05998577331259 -8.5521320079297283 141.59248895951649 0 -1 0 -0.86602541151947299 0 -0.49999998660252726 forward_v I I I I #
loop $-1 $-1 $495 $227 #
coedge $-1 $405 $405 $406 $496 forward $314 $-1 #
coedge $-1 $406 $406 $405 $496 reversed $316 $-1 #
coedge $-1 $407 $407 $317 $408 forward $492 $-1 #
edge $-1 $497 0 $497 6.2831853071796004 $407 $498 forward 7 unknown #
coedge $-1 $318 $499 $494 $500 forward $145 $-1 #
coedge $-1 $501 $319 $318 $411 reversed $242 $-1 #
edge $-1 $502 -8.5521320079297283 $321 8.5521320079297212 $410 $334 forward 7 unknown #
straight-curve $-1 51.418805505539112 8.5521320079297212 70.796244479758244 0 0 1 I I #
point $-1 51.418805505539112 8.5521320079297212 7.2095538346677248 #
straight-curve $-1 51.418805505539112 7.3857516731689614 1.1137004361929357 0 -1 0 I I #
point $-1 51.418805505539112 8.5521320079297212 1.1137004361929428 #
coedge $-1 $328 $503 $504 $505 reversed $242 $-1 #
coedge $-1 $506 $331 $328 $418 forward $424 $-1 #
edge $-1 $333 -7.2095538346677248 $507 7.2095538346677248 $328 $508 forward 7 unknown #
plane-surface $-1 51.418805505539112 0 0 -1 0 0 0 0 1 forward_v I I I I #
coedge $-1 $509 $330 $510 $511 forward $145 $-1 #
coedge $-1 $512 $513 $330 $422 reversed $514 $-1 #
edge $-1 $425 -27.587608518008352 $515 27.587608518008352 $421 $516 forward 7 unknown #
coedge $-1 $331 $506 $512 $517 reversed $424 $-1 #
loop $-1 $-1 $417 $518 #
vertex $-1 $332 $519 #
straight-curve $-1 0 27.587608518008352 7.2095538346677248 -1 0 0 I I #
point $-1 51.418805505539112 27.587608518008352 7.2095538346677248 #
face $-1 $520 $521 $19 $-1 $522 reversed single #
loop $-1 $523 $524 $335 #
cone-surface $-1 49.226071562373271 -14.77150334633793 3.9116271421290758 -0.86602541151947299 0 -0.49999998660252726 0.24999999330126363 0 -0.43301270575973649 1 I I 0 1 0.5 forward I I I I #
coedge $-1 $345 $525 $338 $434 forward $336 $-1 #
coedge $-1 $433 $338 $526 $527 reversed $249 $-1 #
coedge $-1 $338 $432 $435 $528 forward $249 $-1 #
edge $-1 $529 -6.8888126188828167 $530 -3.3693701440706008 $431 $531 forward 7 unknown #
coedge $-1 $437 $339 $433 $528 reversed $251 $-1 #
edge $-1 $530 1.1663803347607598 $346 13.605123011577163 $345 $532 forward 7 unknown #
coedge $-1 $340 $435 $440 $533 reversed $251 $-1 #
vertex $-1 $533 $534 #
straight-curve $-1 1.3777640788248391e-006 20.990874684746125 90.173684831741468 0.49999998660252726 0 -0.86602541151947299 I I #
coedge $-1 $526 $342 $437 $533 forward $442 $-1 #
coedge $-1 $342 $535 $344 $445 reversed $442 $-1 #
loop $-1 $-1 $526 $536 #
straight-curve $-1 51.418805505539112 20.990874684746125 70.796244479758244 0 0 -1 I I #
coedge $-1 $537 $344 $538 $539 forward $336 $-1 #
edge $-1 $347 20.990874684746125 $540 27.587608518008352 $441 $541 forward 7 unknown #
point $-1 47.899363030726896 20.990874684746125 7.2095538346677301 #
point $-1 51.418805505539112 20.990874684746125 7.2095538346677248 #
point $-1 48.360046150853798 14.771503346337923 3.4116271555265487 #
plane-surface $-1 0 27.587608518008352 0 0 -1 0 0 0 -1 forward_v I I I I #
coedge $-1 $542 $373 $375 $468 forward $356 $-1 #
coedge $-1 $543 $358 $359 $456 reversed $277 $-1 #
coedge $-1 $358 $543 $363 $463 reversed $277 $-1 #
coedge $-1 $373 $542 $358 $454 reversed $356 $-1 #
edge $-1 $466 -7.2095538346677248 $544 7.2095538346677248 $453 $545 forward 7 unknown #
coedge $-1 $360 $359 $542 $546 forward $195 $-1 #
edge $-1 $461 -51.418805505539112 $544 51.418805505539112 $451 $547 forward 7 unknown #
coedge $-1 $375 $370 $360 $458 reversed $376 $-1 #
edge $-1 $548 -51.418805505539112 $460 51.418805505539112 $457 $549 forward 7 unknown #
coedge $-1 $361 $364 $543 $550 forward $209 $-1 #
vertex $-1 $362 $551 #
vertex $-1 $550 $552 #
straight-curve $-1 51.418805505539112 0 -7.2095538346677248 0 -1 0 I I #
edge $-1 $466 -51.418805505539112 $464 51.418805505539112 $452 $553 forward 7 unknown #
vertex $-1 $365 $554 #
straight-curve $-1 51.418805505539112 27.587608518008352 0 0 0 -1 I I #
vertex $-1 $374 $555 #
straight-curve $-1 -51.418805505539112 0 7.2095538346677248 0 -1 0 I I #
edge $-1 $377 -7.2095538346677248 $548 7.2095538346677248 $375 $556 forward 7 unknown #
point $-1 -51.418805505539112 27.587608518008352 7.2095538346677248 #
face $-1 $557 $558 $17 $-1 $559 reversed single #
loop $-1 $-1 $560 $380 #
plane-surface $-1 0 -27.587608518008352 0 0 1 0 0 0 1 forward_v I I I I #
coedge $-1 $561 $562 $563 $564 forward $381 $-1 #
coedge $-1 $383 $565 $566 $567 forward $298 $-1 #
coedge $-1 $566 $392 $384 $476 forward $394 $-1 #
edge $-1 $568 -69.682544043565301 $478 -63.58669064509052 $475 $569 forward 7 unknown #
edge $-1 $568 -102.83761101107825 $479 -95.798725872847271 $385 $570 forward 7 unknown #
vertex $-1 $476 $571 #
vertex $-1 $388 $572 #
straight-curve $-1 44.529992886656295 -20.990874684746132 7.2095538346677301 -1 0 0 I I #
straight-curve $-1 47.899363030726903 -7.385751673168965 7.209553834667723 0 1 0 I I #
edge $-1 $390 1.1663803347607633 $568 13.605123011577167 $392 $573 forward 7 unknown #
point $-1 51.418805505539112 -8.5521320079297283 1.1137004361929428 #
coedge $-1 $393 $563 $574 $575 reversed $394 $-1 #
face $-1 $-1 $394 $17 $-1 $576 reversed single #
coedge $-1 $565 $396 $577 $578 forward $298 $-1 #
coedge $-1 $574 $579 $396 $488 reversed $580 $-1 #
edge $-1 $489 -51.418805505539112 $581 51.418805505539112 $487 $582 forward 7 unknown #
vertex $-1 $397 $583 #
straight-curve $-1 51.418805505539112 0 7.2095538346677248 0 1 0 I I #
face $-1 $584 $585 $18 $-1 $586 forward single #
loop $-1 $587 $407 $401 #
plane-surface $-1 1.3777640788248391e-006 -14.77150334633793 90.173684831741468 0.86602541151947299 0 0.49999998660252726 0.49999998660252726 0 -0.86602541151947299 forward_v I I I I #
coedge $-1 $588 $589 $409 $500 reversed $402 $-1 #
coedge $-1 $495 $495 $-1 $590 forward $404 $-1 #
edge $-1 $591 0 $591 6.2831853071796004 $405 $592 forward 7 unknown #
vertex $-1 $408 $593 #
ellipse-curve $-1 49.659084268133 -14.77150334633793 4.1616271354303356 -0.86602541151947299 0 -0.49999998660252726 0.24999999330126363 0 -0.43301270575973649 1 I I #
coedge $-1 $409 $594 $595 $596 forward $145 $-1 #
edge $-1 $597 3.3693701440706008 $502 6.8888126188828167 $409 $598 forward 7 unknown #
coedge $-1 $599 $410 $589 $600 forward $242 $-1 #
vertex $-1 $411 $601 #
coedge $-1 $416 $602 $603 $604 forward $242 $-1 #
coedge $-1 $605 $606 $416 $505 forward $607 $-1 #
edge $-1 $507 -27.587608518008352 $608 27.587608518008352 $416 $609 forward 7 unknown #
coedge $-1 $423 $417 $606 $610 reversed $424 $-1 #
vertex $-1 $505 $611 #
straight-curve $-1 51.418805505539112 27.587608518008352 0 0 0 -1 I I #
coedge $-1 $594 $420 $602 $612 forward $145 $-1 #
coedge $-1 $613 $603 $420 $511 reversed $614 $-1 #
edge $-1 $515 -51.418805505539112 $615 51.418805505539112 $510 $616 forward 7 unknown #
coedge $-1 $617 $421 $423 $517 forward $514 $-1 #
coedge $-1 $421 $617 $613 $618 reversed $514 $-1 #
loop $-1 $-1 $512 $619 #
vertex $-1 $422 $620 #
straight-curve $-1 -51.418805505539112 0 7.2095538346677248 0 -1 0 I I #
edge $-1 $425 -7.2095538346677248 $621 7.2095538346677248 $423 $622 forward 7 unknown #
face $-1 $329 $424 $18 $-1 $623 reversed single #
point $-1 -51.418805505539112 27.587608518008352 7.2095538346677248 #
face $-1 $624 $625 $19 $-1 $626 forward single #
loop $-1 $627 $628 $428 #
cone-surface $-1 48.576552503733666 -14.77150334633793 3.5366271521771804 -0.86602541151947299 0 -0.49999998660252726 0.12499999665063181 0 -0.21650635287986825 1 I I -0.70710678118654746 0.70710678118654746 0.25 forward I I I I #
loop $-1 $-1 $629 $335 #
coedge $-1 $524 $524 $630 $631 reversed $429 $-1 #
coedge $-1 $431 $632 $633 $634 forward $336 $-1 #
coedge $-1 $633 $440 $432 $527 forward $442 $-1 #
edge $-1 $635 -69.682544043565301 $529 -63.58669064509052 $526 $636 forward 7 unknown #
edge $-1 $635 -102.83761101107825 $530 -95.798725872847271 $433 $637 forward 7 unknown #
vertex $-1 $527 $638 #
vertex $-1 $436 $639 #
straight-curve $-1 44.529992886656295 8.5521320079297212 7.2095538346677301 -1 0 0 I I #
straight-curve $-1 47.899363030726903 7.3857516731689614 7.209553834667723 0 1 0 I I #
edge $-1 $438 -13.605123011577163 $635 -1.1663803347607598 $440 $640 forward 7 unknown #
point $-1 51.418805505539112 20.990874684746125 1.1137004361929428 #
coedge $-1 $441 $641 $642 $643 reversed $442 $-1 #
face $-1 $-1 $442 $19 $-1 $644 reversed single #
coedge $-1 $645 $444 $646 $647 forward $336 $-1 #
coedge $-1 $642 $648 $444 $539 reversed $649 $-1 #
edge $-1 $540 -51.418805505539112 $650 51.418805505539112 $538 $651 forward 7 unknown #
vertex $-1 $445 $652 #
straight-curve $-1 51.418805505539112 0 7.2095538346677248 0 1 0 I I #
coedge $-1 $453 $450 $455 $546 reversed $356 $-1 #
coedge $-1 $452 $451 $459 $550 reversed $277 $-1 #
vertex $-1 $546 $653 #
straight-curve $-1 -51.418805505539112 -27.587608518008352 0 0 0 -1 I I #
edge $-1 $544 -27.587608518008352 $548 27.587608518008352 $542 $654 forward 7 unknown #
straight-curve $-1 0 -27.587608518008352 -7.2095538346677248 -1 0 0 I I #
vertex $-1 $458 $655 #
straight-curve $-1 0 27.587608518008352 -7.2095538346677248 1 0 0 I I #
edge $-1 $464 -7.2095538346677248 $461 7.2095538346677248 $459 $656 forward 7 unknown #
point $-1 51.418805505539112 27.587608518008352 -7.2095538346677248 #
point $-1 51.418805505539112 -27.587608518008352 -7.2095538346677248 #
straight-curve $-1 0 -27.587608518008352 7.2095538346677248 1 0 0 I I #
point $-1 51.418805505539112 -27.587608518008352 7.2095538346677248 #
point $-1 -51.418805505539112 -27.587608518008352 7.2095538346677248 #
straight-curve $-1 -51.418805505539112 27.587608518008352 0 0 0 -1 I I #
face $-1 $485 $580 $17 $-1 $657 reversed single #
loop $-1 $-1 $658 $470 #
plane-surface $-1 -51.418805505539112 0 0 1 0 0 0 0 -1 forward_v I I I I #
coedge $-1 $659 $660 $661 $662 forward $471 $-1 #
coedge $-1 $663 $473 $659 $664 forward $381 $-1 #
coedge $-1 $473 $663 $665 $666 forward $381 $-1 #
coedge $-1 $484 $667 $473 $564 reversed $394 $-1 #
edge $-1 $668 -27.587608518008352 $669 27.587608518008352 $563 $670 forward 7 unknown #
coedge $-1 $474 $486 $660 $671 forward $298 $-1 #
coedge $-1 $667 $475 $474 $567 reversed $394 $-1 #
edge $-1 $672 -27.587608518008352 $478 -20.990874684746132 $566 $490 forward 7 unknown #
vertex $-1 $482 $673 #
straight-curve $-1 51.418805505539112 -20.990874684746132 70.796244479758244 0 0 1 I I #
straight-curve $-1 1.3777640788248391e-006 -20.990874684746132 90.173684831741468 -0.49999998660252726 0 0.86602541151947299 I I #
point $-1 51.418805505539112 -20.990874684746132 7.2095538346677248 #
point $-1 47.899363030726896 -20.990874684746132 7.2095538346677301 #
straight-curve $-1 51.418805505539112 -7.385751673168965 1.1137004361929357 0 -1 0 I I #
coedge $-1 $665 $487 $484 $575 forward $580 $-1 #
edge $-1 $489 -7.2095538346677248 $668 7.2095538346677248 $484 $674 forward 7 unknown #
plane-surface $-1 51.418805505539112 0 0 -1 0 0 0 0 1 forward_v I I I I #
coedge $-1 $658 $661 $486 $578 reversed $558 $-1 #
edge $-1 $581 -27.587608518008352 $675 27.587608518008352 $577 $676 forward 7 unknown #
coedge $-1 $487 $665 $658 $677 reversed $580 $-1 #
loop $-1 $-1 $574 $557 #
vertex $-1 $488 $678 #
straight-curve $-1 0 27.587608518008352 7.2095538346677248 -1 0 0 I I #
point $-1 51.418805505539112 27.587608518008352 7.2095538346677248 #
face $-1 $679 $607 $18 $-1 $680 reversed single #
loop $-1 $-1 $681 $491 #
plane-surface $-1 89.05998577331259 -20.990874684746132 141.59248895951649 0 1 0 0.86602541151947299 0 0.49999998660252726 forward_v I I I I #
loop $-1 $-1 $595 $401 #
coedge $-1 $589 $494 $682 $683 forward $402 $-1 #
coedge $-1 $494 $588 $501 $600 reversed $402 $-1 #
edge $-1 $684 1 $684 0 $495 $-1 forward 7 unknown #
vertex $-1 $496 $685 #
ellipse-curve $-1 48.793058856613534 -14.77150334633793 3.661627148827812 0.86602541151947299 0 0.49999998660252726 0.24999999330126363 0 -0.43301270575973649 1 I I #
point $-1 49.909084261434273 -14.77150334633793 3.728614429670603 #
coedge $-1 $499 $509 $681 $686 forward $145 $-1 #
coedge $-1 $687 $682 $499 $596 reversed $587 $-1 #
edge $-1 $688 -13.605123011577167 $597 -1.1663803347607633 $499 $689 forward 7 unknown #
vertex $-1 $596 $690 #
straight-curve $-1 44.529992886656295 -8.5521320079297283 7.2095538346677301 1 0 0 I I #
coedge $-1 $691 $501 $692 $693 forward $242 $-1 #
edge $-1 $502 63.58669064509052 $694 69.682544043565301 $501 $695 forward 7 unknown #
point $-1 51.418805505539112 -8.5521320079297283 7.2095538346677248 #
coedge $-1 $503 $691 $509 $612 reversed $242 $-1 #
coedge $-1 $510 $696 $503 $604 reversed $614 $-1 #
edge $-1 $615 -7.2095538346677248 $608 7.2095538346677248 $503 $697 forward 7 unknown #
coedge $-1 $698 $504 $696 $699 forward $607 $-1 #
coedge $-1 $504 $698 $506 $610 forward $607 $-1 #
loop $-1 $-1 $504 $584 #
vertex $-1 $604 $700 #
straight-curve $-1 51.418805505539112 0 -7.2095538346677248 0 -1 0 I I #
edge $-1 $621 -51.418805505539112 $507 51.418805505539112 $506 $701 forward 7 unknown #
point $-1 51.418805505539112 27.587608518008352 -7.2095538346677248 #
edge $-1 $615 -27.587608518008352 $702 -20.990874684746132 $602 $334 forward 7 unknown #
coedge $-1 $696 $510 $513 $618 forward $614 $-1 #
loop $-1 $-1 $613 $679 #
vertex $-1 $612 $703 #
straight-curve $-1 0 -27.587608518008352 7.2095538346677248 1 0 0 I I #
coedge $-1 $513 $512 $698 $704 reversed $514 $-1 #
edge $-1 $515 -7.2095538346677248 $705 7.2095538346677248 $513 $706 forward 7 unknown #
face $-1 $518 $514 $18 $-1 $707 reversed single #
point $-1 -51.418805505539112 -27.587608518008352 7.2095538346677248 #
vertex $-1 $610 $708 #
straight-curve $-1 -51.418805505539112 27.587608518008352 0 0 0 -1 I I #
plane-surface $-1 0 27.587608518008352 0 0 -1 0 0 0 -1 forward_v I I I I #
face $-1 $709 $710 $19 $-1 $711 forward single #
loop $-1 $-1 $712 $520 #
plane-surface $-1 89.05998577331259 -8.5521320079297283 141.59248895951649 0 -1 0 -0.86602541151947299 0 -0.49999998660252726 forward_v I I I I #
loop $-1 $-1 $713 $428 #
coedge $-1 $628 $628 $629 $714 forward $521 $-1 #
coedge $-1 $629 $629 $628 $714 reversed $523 $-1 #
coedge $-1 $630 $630 $524 $631 forward $710 $-1 #
edge $-1 $715 0 $715 6.2831853071796004 $630 $716 forward 7 unknown #
coedge $-1 $525 $717 $712 $718 forward $336 $-1 #
coedge $-1 $719 $526 $525 $634 reversed $442 $-1 #
edge $-1 $720 -8.5521320079297283 $529 8.5521320079297212 $633 $541 forward 7 unknown #
vertex $-1 $533 $721 #
straight-curve $-1 51.418805505539112 8.5521320079297212 70.796244479758244 0 0 1 I I #
straight-curve $-1 1.3777640788248391e-006 8.5521320079297212 90.173684831741468 -0.49999998660252726 0 0.86602541151947299 I I #
point $-1 51.418805505539112 8.5521320079297212 7.2095538346677248 #
point $-1 47.899363030726896 8.5521320079297212 7.2095538346677301 #
straight-curve $-1 51.418805505539112 7.3857516731689614 1.1137004361929357 0 -1 0 I I #
coedge $-1 $535 $722 $723 $724 reversed $442 $-1 #
coedge $-1 $725 $538 $535 $643 forward $649 $-1 #
edge $-1 $540 -7.2095538346677248 $726 7.2095538346677248 $535 $727 forward 7 unknown #
plane-surface $-1 51.418805505539112 0 0 -1 0 0 0 0 1 forward_v I I I I #
coedge $-1 $728 $537 $729 $730 forward $336 $-1 #
coedge $-1 $731 $732 $537 $647 reversed $733 $-1 #
edge $-1 $650 -27.587608518008352 $734 27.587608518008352 $646 $735 forward 7 unknown #
coedge $-1 $538 $725 $731 $736 reversed $649 $-1 #
loop $-1 $-1 $642 $737 #
vertex $-1 $539 $738 #
straight-curve $-1 0 27.587608518008352 7.2095538346677248 -1 0 0 I I #
point $-1 51.418805505539112 27.587608518008352 7.2095538346677248 #
point $-1 -51.418805505539112 -27.587608518008352 -7.2095538346677248 #
straight-curve $-1 -51.418805505539112 0 -7.2095538346677248 0 1 0 I I #
point $-1 -51.418805505539112 27.587608518008352 -7.2095538346677248 #
straight-curve $-1 51.418805505539112 -27.587608518008352 0 0 0 -1 I I #
plane-surface $-1 0 27.587608518008352 0 0 -1 0 0 0 -1 forward_v I I I I #
coedge $-1 $739 $577 $579 $677 forward $558 $-1 #
coedge $-1 $740 $560 $561 $664 reversed $471 $-1 #
coedge $-1 $560 $740 $565 $671 reversed $471 $-1 #
coedge $-1 $577 $739 $560 $662 reversed $558 $-1 #
edge $-1 $675 -7.2095538346677248 $741 7.2095538346677248 $661 $742 forward 7 unknown #
coedge $-1 $562 $561 $739 $743 forward $381 $-1 #
edge $-1 $669 -51.418805505539112 $741 51.418805505539112 $659 $744 forward 7 unknown #
coedge $-1 $579 $574 $562 $666 reversed $580 $-1 #
edge $-1 $745 -51.418805505539112 $668 51.418805505539112 $665 $746 forward 7 unknown #
coedge $-1 $563 $566 $740 $747 forward $394 $-1 #
vertex $-1 $564 $748 #
vertex $-1 $747 $749 #
straight-curve $-1 51.418805505539112 0 -7.2095538346677248 0 -1 0 I I #
edge $-1 $675 -51.418805505539112 $672 51.418805505539112 $660 $750 forward 7 unknown #
vertex $-1 $567 $751 #
point $-1 51.418805505539112 -20.990874684746132 1.1137004361929428 #
straight-curve $-1 51.418805505539112 27.587608518008352 0 0 0 -1 I I #
vertex $-1 $578 $752 #
straight-curve $-1 -51.418805505539112 0 7.2095538346677248 0 -1 0 I I #
edge $-1 $581 -7.2095538346677248 $745 7.2095538346677248 $579 $753 forward 7 unknown #
point $-1 -51.418805505539112 27.587608518008352 7.2095538346677248 #
face $-1 $619 $614 $18 $-1 $754 reversed single #
plane-surface $-1 0 0 -7.2095538346677248 0 0 1 1 0 0 forward_v I I I I #
coedge $-1 $755 $756 $594 $686 reversed $585 $-1 #
coedge $-1 $595 $692 $588 $683 reversed $587 $-1 #
edge $-1 $597 95.798725872847271 $694 102.83761101107825 $588 $757 forward 7 unknown #
vertex $-1 $590 $758 #
point $-1 49.0430588499148 -14.77150334633793 3.2286144430680759 #
edge $-1 $702 -6.8888126188828167 $688 -3.3693701440706008 $594 $759 forward 7 unknown #
coedge $-1 $692 $595 $756 $760 reversed $587 $-1 #
vertex $-1 $596 $761 #
straight-curve $-1 47.899363030726903 -7.385751673168965 7.209553834667723 0 1 0 I I #
point $-1 47.899363030726896 -8.5521320079297283 7.2095538346677301 #
coedge $-1 $602 $599 $755 $762 forward $242 $-1 #
coedge $-1 $682 $687 $599 $693 reversed $587 $-1 #
edge $-1 $694 1.1663803347607633 $763 13.605123011577167 $599 $764 forward 7 unknown #
vertex $-1 $693 $765 #
straight-curve $-1 51.418805505539112 -8.5521320079297283 70.796244479758244 0 0 -1 I I #
coedge $-1 $603 $613 $605 $699 reversed $614 $-1 #
straight-curve $-1 51.418805505539112 -27.587608518008352 0 0 0 -1 I I #
coedge $-1 $606 $605 $617 $704 forward $607 $-1 #
edge $-1 $608 -51.418805505539112 $705 51.418805505539112 $696 $766 forward 7 unknown #
point $-1 51.418805505539112 -27.587608518008352 -7.2095538346677248 #
straight-curve $-1 0 27.587608518008352 -7.2095538346677248 1 0 0 I I #
vertex $-1 $762 $767 #
point $-1 51.418805505539112 -27.587608518008352 7.2095538346677248 #
edge $-1 $705 -27.587608518008352 $621 27.587608518008352 $617 $768 forward 7 unknown #
vertex $-1 $704 $769 #
straight-curve $-1 -51.418805505539112 -27.587608518008352 0 0 0 -1 I I #
plane-surface $-1 -51.418805505539112 0 0 1 0 0 0 0 -1 forward_v I I I I #
point $-1 -51.418805505539112 27.587608518008352 -7.2095538346677248 #
face $-1 $770 $771 $19 $-1 $772 forward single #
loop $-1 $773 $630 $624 #
plane-surface $-1 1.3777640788248391e-006 -14.77150334633793 90.173684831741468 0.86602541151947299 0 0.49999998660252726 0.49999998660252726 0 -0.86602541151947299 forward_v I I I I #
coedge $-1 $774 $775 $632 $718 reversed $625 $-1 #
coedge $-1 $713 $713 $-1 $776 forward $627 $-1 #
edge $-1 $777 0 $777 6.2831853071796004 $628 $778 forward 7 unknown #
vertex $-1 $631 $779 #
ellipse-curve $-1 49.659084268133 -14.77150334633793 4.1616271354303356 -0.86602541151947299 0 -0.49999998660252726 0.24999999330126363 0 -0.43301270575973649 1 I I #
coedge $-1 $632 $780 $781 $782 forward $336 $-1 #
edge $-1 $783 3.3693701440706008 $720 6.8888126188828167 $632 $784 forward 7 unknown #
coedge $-1 $785 $633 $775 $786 forward $442 $-1 #
vertex $-1 $634 $787 #
point $-1 51.418805505539112 8.5521320079297212 1.1137004361929428 #
coedge $-1 $641 $788 $789 $790 forward $442 $-1 #
coedge $-1 $791 $792 $641 $724 forward $793 $-1 #
edge $-1 $726 -27.587608518008352 $794 27.587608518008352 $641 $795 forward 7 unknown #
coedge $-1 $648 $642 $792 $796 reversed $649 $-1 #
vertex $-1 $724 $797 #
straight-curve $-1 51.418805505539112 27.587608518008352 0 0 0 -1 I I #
coedge $-1 $780 $645 $788 $798 forward $336 $-1 #
coedge $-1 $799 $789 $645 $730 reversed $800 $-1 #
edge $-1 $734 -51.418805505539112 $801 51.418805505539112 $729 $802 forward 7 unknown #
coedge $-1 $803 $646 $648 $736 forward $733 $-1 #
coedge $-1 $646 $803 $799 $804 reversed $733 $-1 #
loop $-1 $-1 $731 $805 #
vertex $-1 $647 $806 #
straight-curve $-1 -51.418805505539112 0 7.2095538346677248 0 -1 0 I I #
edge $-1 $650 -7.2095538346677248 $807 7.2095538346677248 $648 $808 forward 7 unknown #
face $-1 $536 $649 $19 $-1 $809 reversed single #
point $-1 -51.418805505539112 27.587608518008352 7.2095538346677248 #
coedge $-1 $661 $658 $663 $743 reversed $558 $-1 #
coedge $-1 $660 $659 $667 $747 reversed $471 $-1 #
vertex $-1 $743 $810 #
straight-curve $-1 -51.418805505539112 -27.587608518008352 0 0 0 -1 I I #
edge $-1 $741 -27.587608518008352 $745 27.587608518008352 $739 $811 forward 7 unknown #
straight-curve $-1 0 -27.587608518008352 -7.2095538346677248 -1 0 0 I I #
vertex $-1 $666 $812 #
straight-curve $-1 0 27.587608518008352 -7.2095538346677248 1 0 0 I I #
edge $-1 $672 -7.2095538346677248 $669 7.2095538346677248 $667 $813 forward 7 unknown #
point $-1 51.418805505539112 27.587608518008352 -7.2095538346677248 #
point $-1 51.418805505539112 -27.587608518008352 -7.2095538346677248 #
straight-curve $-1 0 -27.587608518008352 7.2095538346677248 1 0 0 I I #
point $-1 51.418805505539112 -27.587608518008352 7.2095538346677248 #
point $-1 -51.418805505539112 -27.587608518008352 7.2095538346677248 #
straight-curve $-1 -51.418805505539112 27.587608518008352 0 0 0 -1 I I #
plane-surface $-1 0 -27.587608518008352 0 0 1 0 0 0 1 forward_v I I I I #
coedge $-1 $756 $681 $691 $762 reversed $585 $-1 #
coedge $-1 $681 $755 $687 $760 forward $585 $-1 #
straight-curve $-1 1.3777640788248391e-006 -8.5521320079297283 90.173684831741468 0.49999998660252726 0 -0.86602541151947299 I I #
point $-1 48.360046150853798 -14.77150334633793 3.4116271555265487 #
straight-curve $-1 44.529992886656295 -20.990874684746132 7.2095538346677301 -1 0 0 I I #
edge $-1 $763 -102.83761101107825 $688 -95.798725872847271 $756 $814 forward 7 unknown #
point $-1 47.899363030726896 -20.990874684746132 7.2095538346677301 #
edge $-1 $763 -69.682544043565301 $702 -63.58669064509052 $691 $815 forward 7 unknown #
vertex $-1 $693 $816 #
straight-curve $-1 51.418805505539112 -7.385751673168965 1.1137004361929357 0 -1 0 I I #
point $-1 51.418805505539112 -8.5521320079297283 1.1137004361929428 #
straight-curve $-1 0 -27.587608518008352 -7.2095538346677248 -1 0 0 I I #
point $-1 51.418805505539112 -20.990874684746132 7.2095538346677248 #
straight-curve $-1 -51.418805505539112 0 -7.2095538346677248 0 1 0 I I #
point $-1 -51.418805505539112 -27.587608518008352 -7.2095538346677248 #
face $-1 $817 $793 $19 $-1 $818 reversed single #
loop $-1 $-1 $819 $709 #
plane-surface $-1 89.05998577331259 -20.990874684746132 141.59248895951649 0 1 0 0.86602541151947299 0 0.49999998660252726 forward_v I I I I #
loop $-1 $-1 $781 $624 #
coedge $-1 $775 $712 $820 $821 forward $625 $-1 #
coedge $-1 $712 $774 $719 $786 reversed $625 $-1 #
edge $-1 $822 1 $822 0 $713 $-1 forward 7 unknown #
vertex $-1 $714 $823 #
ellipse-curve $-1 48.793058856613534 -14.77150334633793 3.661627148827812 0.86602541151947299 0 0.49999998660252726 0.24999999330126363 0 -0.43301270575973649 1 I I #
point $-1 49.909084261434273 -14.77150334633793 3.728614429670603 #
coedge $-1 $717 $728 $819 $824 forward $336 $-1 #
coedge $-1 $825 $820 $717 $782 reversed $773 $-1 #
edge $-1 $826 -13.605123011577167 $783 -1.1663803347607633 $717 $827 forward 7 unknown #
vertex $-1 $782 $828 #
straight-curve $-1 44.529992886656295 -8.5521320079297283 7.2095538346677301 1 0 0 I I #
coedge $-1 $829 $719 $830 $831 forward $442 $-1 #
edge $-1 $720 63.58669064509052 $832 69.682544043565301 $719 $833 forward 7 unknown #
point $-1 51.418805505539112 -8.5521320079297283 7.2095538346677248 #
coedge $-1 $722 $829 $728 $798 reversed $442 $-1 #
coedge $-1 $729 $834 $722 $790 reversed $800 $-1 #
edge $-1 $801 -7.2095538346677248 $794 7.2095538346677248 $722 $835 forward 7 unknown #
coedge $-1 $836 $723 $834 $837 forward $793 $-1 #
coedge $-1 $723 $836 $725 $796 forward $793 $-1 #
loop $-1 $-1 $723 $770 #
vertex $-1 $790 $838 #
straight-curve $-1 51.418805505539112 0 -7.2095538346677248 0 -1 0 I I #
edge $-1 $807 -51.418805505539112 $726 51.418805505539112 $725 $839 forward 7 unknown #
point $-1 51.418805505539112 27.587608518008352 -7.2095538346677248 #
edge $-1 $801 -27.587608518008352 $840 -20.990874684746132 $788 $541 forward 7 unknown #
coedge $-1 $834 $729 $732 $804 forward $800 $-1 #
loop $-1 $-1 $799 $817 #
vertex $-1 $798 $841 #
straight-curve $-1 0 -27.587608518008352 7.2095538346677248 1 0 0 I I #
coedge $-1 $732 $731 $836 $842 reversed $733 $-1 #
edge $-1 $734 -7.2095538346677248 $843 7.2095538346677248 $732 $844 forward 7 unknown #
face $-1 $737 $733 $19 $-1 $845 reversed single #
point $-1 -51.418805505539112 -27.587608518008352 7.2095538346677248 #
vertex $-1 $796 $846 #
straight-curve $-1 -51.418805505539112 27.587608518008352 0 0 0 -1 I I #
plane-surface $-1 0 27.587608518008352 0 0 -1 0 0 0 -1 forward_v I I I I #
point $-1 -51.418805505539112 -27.587608518008352 -7.2095538346677248 #
straight-curve $-1 -51.418805505539112 0 -7.2095538346677248 0 1 0 I I #
point $-1 -51.418805505539112 27.587608518008352 -7.2095538346677248 #
straight-curve $-1 51.418805505539112 -27.587608518008352 0 0 0 -1 I I #
straight-curve $-1 1.3777640788248391e-006 -20.990874684746132 90.173684831741468 -0.49999998660252726 0 0.86602541151947299 I I #
straight-curve $-1 51.418805505539112 -20.990874684746132 70.796244479758244 0 0 1 I I #
point $-1 51.418805505539112 -20.990874684746132 1.1137004361929428 #
face $-1 $805 $800 $19 $-1 $847 reversed single #
plane-surface $-1 0 0 -7.2095538346677248 0 0 1 1 0 0 forward_v I I I I #
coedge $-1 $848 $849 $780 $824 reversed $771 $-1 #
coedge $-1 $781 $830 $774 $821 reversed $773 $-1 #
edge $-1 $783 95.798725872847271 $832 102.83761101107825 $774 $850 forward 7 unknown #
vertex $-1 $776 $851 #
point $-1 49.0430588499148 -14.77150334633793 3.2286144430680759 #
edge $-1 $840 -6.8888126188828167 $826 -3.3693701440706008 $780 $852 forward 7 unknown #
coedge $-1 $830 $781 $849 $853 reversed $773 $-1 #
vertex $-1 $782 $854 #
straight-curve $-1 47.899363030726903 -7.385751673168965 7.209553834667723 0 1 0 I I #
point $-1 47.899363030726896 -8.5521320079297283 7.2095538346677301 #
coedge $-1 $788 $785 $848 $855 forward $442 $-1 #
coedge $-1 $820 $825 $785 $831 reversed $773 $-1 #
edge $-1 $832 1.1663803347607633 $856 13.605123011577167 $785 $857 forward 7 unknown #
vertex $-1 $831 $858 #
straight-curve $-1 51.418805505539112 -8.5521320079297283 70.796244479758244 0 0 -1 I I #
coedge $-1 $789 $799 $791 $837 reversed $800 $-1 #
straight-curve $-1 51.418805505539112 -27.587608518008352 0 0 0 -1 I I #
coedge $-1 $792 $791 $803 $842 forward $793 $-1 #
edge $-1 $794 -51.418805505539112 $843 51.418805505539112 $834 $859 forward 7 unknown #
point $-1 51.418805505539112 -27.587608518008352 -7.2095538346677248 #
straight-curve $-1 0 27.587608518008352 -7.2095538346677248 1 0 0 I I #
vertex $-1 $855 $860 #
point $-1 51.418805505539112 -27.587608518008352 7.2095538346677248 #
edge $-1 $843 -27.587608518008352 $807 27.587608518008352 $803 $861 forward 7 unknown #
vertex $-1 $842 $862 #
straight-curve $-1 -51.418805505539112 -27.587608518008352 0 0 0 -1 I I #
plane-surface $-1 -51.418805505539112 0 0 1 0 0 0 0 -1 forward_v I I I I #
point $-1 -51.418805505539112 27.587608518008352 -7.2095538346677248 #
plane-surface $-1 0 -27.587608518008352 0 0 1 0 0 0 1 forward_v I I I I #
coedge $-1 $849 $819 $829 $855 reversed $771 $-1 #
coedge $-1 $819 $848 $825 $853 forward $771 $-1 #
straight-curve $-1 1.3777640788248391e-006 -8.5521320079297283 90.173684831741468 0.49999998660252726 0 -0.86602541151947299 I I #
point $-1 48.360046150853798 -14.77150334633793 3.4116271555265487 #
straight-curve $-1 44.529992886656295 -20.990874684746132 7.2095538346677301 -1 0 0 I I #
edge $-1 $856 -102.83761101107825 $826 -95.798725872847271 $849 $863 forward 7 unknown #
point $-1 47.899363030726896 -20.990874684746132 7.2095538346677301 #
edge $-1 $856 -69.682544043565301 $840 -63.58669064509052 $829 $864 forward 7 unknown #
vertex $-1 $831 $865 #
straight-curve $-1 51.418805505539112 -7.385751673168965 1.1137004361929357 0 -1 0 I I #
point $-1 51.418805505539112 -8.5521320079297283 1.1137004361929428 #
straight-curve $-1 0 -27.587608518008352 -7.2095538346677248 -1 0 0 I I #
point $-1 51.418805505539112 -20.990874684746132 7.2095538346677248 #
straight-curve $-1 -51.418805505539112 0 -7.2095538346677248 0 1 0 I I #
point $-1 -51.418805505539112 -27.587608518008352 -7.2095538346677248 #
straight-curve $-1 1.3777640788248391e-006 -20.990874684746132 90.173684831741468 -0.49999998660252726 0 0.86602541151947299 I I #
straight-curve $-1 51.418805505539112 -20.990874684746132 70.796244479758244 0 0 1 I I #
point $-1 51.418805505539112 -20.990874684746132 1.1137004361929428 #
End-of-ACIS-data 