500 0 6 0           
7 Unknown 11 ACIS 5.0 NT 24 Thu Mar 25 15:58:01 1999 
-1 9.9999999999999995e-007 1e-010 
body $-1 $6 $-1 $7 #
body $-1 $8 $-1 $9 #
body $-1 $10 $-1 $11 #
body $-1 $12 $-1 $13 #
body $-1 $14 $-1 $15 #
body $-1 $16 $-1 $17 #
lump $-1 $-1 $18 $0 #
transform $-1 1 0 0 0 1 0 0 0 1 60.733054597613453 33.463510877625424 16.283219595511429 1 rotate no_reflect no_shear #
lump $-1 $-1 $19 $1 #
transform $-1 1 0 0 0 1 0 0 0 1 60.733054597613453 33.463510877625424 16.283219595511429 1 rotate no_reflect no_shear #
lump $-1 $-1 $20 $2 #
transform $-1 1 0 0 0 1 0 0 0 1 60.733054597613453 33.463510877625424 16.283219595511429 1 rotate no_reflect no_shear #
lump $-1 $-1 $21 $3 #
transform $-1 1 0 0 0 1 0 0 0 1 60.733054597613453 33.463510877625424 16.283219595511429 1 rotate no_reflect no_shear #
lump $-1 $-1 $22 $4 #
transform $-1 1 0 0 0 1 0 0 0 1 60.733054597613453 33.463510877625424 16.283219595511429 1 rotate no_reflect no_shear #
lump $-1 $-1 $23 $5 #
transform $-1 1 0 0 0 1 0 0 0 1 60.733054597613453 33.463510877625424 16.283219595511429 1 rotate no_reflect no_shear #
shell $-1 $-1 $-1 $24 $-1 $6 #
shell $-1 $-1 $-1 $25 $-1 $8 #
shell $-1 $-1 $-1 $26 $-1 $10 #
shell $-1 $-1 $-1 $27 $-1 $12 #
shell $-1 $-1 $-1 $28 $-1 $14 #
shell $-1 $-1 $-1 $29 $-1 $16 #
face $-1 $30 $31 $18 $-1 $32 reversed single #
face $-1 $33 $34 $19 $-1 $35 forward single #
face $-1 $36 $37 $20 $-1 $38 reversed single #
face $-1 $39 $40 $21 $-1 $41 forward single #
face $-1 $42 $43 $22 $-1 $44 forward single #
face $-1 $45 $46 $23 $-1 $47 forward single #
face $-1 $48 $49 $18 $-1 $50 forward single #
loop $-1 $-1 $51 $24 #
plane-surface $-1 0 -33.463510877625424 0 0 1 0 0 0 1 forward_v I I I I #
face $-1 $52 $53 $19 $-1 $54 reversed single #
loop $-1 $-1 $55 $25 #
plane-surface $-1 0 -33.463510877625424 0 0 1 0 0 0 1 forward_v I I I I #
face $-1 $56 $57 $20 $-1 $58 reversed single #
loop $-1 $-1 $59 $26 #
plane-surface $-1 25.688523316174305 69.697691409174894 141.7791083410516 1 0 0 0 -0.69465837861970381 -0.71933979245794832 forward_v I I I I #
face $-1 $60 $61 $21 $-1 $62 forward single #
loop $-1 $63 $64 $27 #
cone-surface $-1 32.697429572462134 27.170379504244949 10.069196872717106 0 -0.69465837861970381 -0.71933979245794832 1.5 0 0 1 I I 0 1 1.5 forward I I I I #
face $-1 $65 $66 $22 $-1 $67 forward single #
loop $-1 $68 $69 $28 #
cone-surface $-1 43.210788956893872 27.170379504244949 10.069196872717106 0 -0.69465837861970381 -0.71933979245794832 1.5 0 0 1 I I 0 1 1.5 forward I I I I #
face $-1 $70 $71 $23 $-1 $72 forward single #
loop $-1 $73 $74 $29 #
cone-surface $-1 53.724148341325609 27.170379504244949 10.069196872717106 0 -0.69465837861970381 -0.71933979245794832 1.5 0 0 1 I I 0 1 1.5 forward I I I I #
face $-1 $75 $76 $18 $-1 $77 reversed single #
loop $-1 $-1 $78 $30 #
plane-surface $-1 0 0 16.283219595511429 0 0 1 1 0 0 forward_v I I I I #
coedge $-1 $79 $80 $81 $82 reversed $31 $-1 #
face $-1 $83 $84 $19 $-1 $85 reversed single #
loop $-1 $-1 $86 $33 #
plane-surface $-1 0 0 -16.283219595511429 0 0 1 1 0 0 forward_v I I I I #
coedge $-1 $87 $88 $89 $90 forward $34 $-1 #
face $-1 $91 $92 $20 $-1 $93 forward single #
loop $-1 $-1 $94 $36 #
plane-surface $-1 43.210788956893872 -14.679759061625319 54.403702561882582 0 0.69465837861970381 0.71933979245794832 1 0 0 forward_v I I I I #
coedge $-1 $95 $96 $97 $98 reversed $37 $-1 #
face $-1 $-1 $99 $21 $-1 $100 forward single #
loop $-1 $101 $102 $39 #
cone-surface $-1 32.697429572462134 24.690431920622572 7.5011360315678282 0 -0.69465837861970381 -0.71933979245794832 0.75 0 0 1 I I -0.70710678118654757 0.70710678118654757 0.75 forward I I I I #
loop $-1 $-1 $103 $27 #
coedge $-1 $64 $64 $104 $105 reversed $40 $-1 #
face $-1 $-1 $106 $22 $-1 $107 forward single #
loop $-1 $108 $109 $42 #
cone-surface $-1 43.210788956893872 24.690431920622572 7.5011360315678282 0 -0.69465837861970381 -0.71933979245794832 0.75 0 0 1 I I -0.70710678118654757 0.70710678118654757 0.75 forward I I I I #
loop $-1 $-1 $110 $28 #
coedge $-1 $69 $69 $111 $112 reversed $43 $-1 #
face $-1 $-1 $113 $23 $-1 $114 forward single #
loop $-1 $115 $116 $45 #
cone-surface $-1 53.724148341325609 24.690431920622572 7.5011360315678282 0 -0.69465837861970381 -0.71933979245794832 0.75 0 0 1 I I -0.70710678118654757 0.70710678118654757 0.75 forward I I I I #
loop $-1 $-1 $117 $29 #
coedge $-1 $74 $74 $118 $119 reversed $46 $-1 #
face $-1 $120 $121 $18 $-1 $122 reversed single #
loop $-1 $-1 $123 $48 #
plane-surface $-1 0 0 -16.283219595511429 0 0 1 1 0 0 forward_v I I I I #
coedge $-1 $124 $125 $126 $127 forward $49 $-1 #
coedge $-1 $128 $51 $129 $130 reversed $31 $-1 #
coedge $-1 $51 $128 $131 $132 forward $31 $-1 #
coedge $-1 $133 $123 $51 $82 forward $76 $-1 #
edge $-1 $134 -60.733054597613453 $135 60.733054597613453 $51 $136 forward 7 unknown #
face $-1 $137 $138 $19 $-1 $139 reversed single #
loop $-1 $-1 $140 $52 #
plane-surface $-1 -31.5990268592154 -53.351242045098729 0 0 1 0 0 0 1 forward_v I I I I #
coedge $-1 $141 $142 $88 $143 forward $53 $-1 #
coedge $-1 $144 $55 $145 $146 reversed $34 $-1 #
coedge $-1 $55 $144 $86 $143 reversed $34 $-1 #
coedge $-1 $147 $148 $55 $90 reversed $138 $-1 #
edge $-1 $149 -16.283219595511429 $150 16.283219595511429 $89 $151 forward 7 unknown #
face $-1 $152 $153 $20 $-1 $154 reversed single #
loop $-1 $-1 $97 $56 #
plane-surface $-1 0 0 16.283219595511429 0 0 1 1 0 0 forward_v I I I I #
coedge $-1 $155 $156 $157 $158 reversed $57 $-1 #
coedge $-1 $96 $59 $159 $160 reversed $37 $-1 #
coedge $-1 $59 $95 $155 $161 reversed $37 $-1 #
coedge $-1 $157 $162 $59 $98 forward $92 $-1 #
edge $-1 $163 1.3853348269620227 $164 10.053689974407831 $97 $165 forward 7 unknown #
loop $-1 $-1 $104 $60 #
plane-surface $-1 43.210788956893872 -14.679759061625319 54.403702561882582 0 0.69465837861970381 0.71933979245794832 1 0 0 forward_v I I I I #
loop $-1 $-1 $166 $39 #
coedge $-1 $102 $102 $103 $167 reversed $61 $-1 #
coedge $-1 $103 $103 $102 $167 forward $63 $-1 #
coedge $-1 $104 $104 $64 $105 forward $99 $-1 #
edge $-1 $168 -2.2340929996682203e-015 $168 6.2831853071795978 $104 $169 forward 7 unknown #
loop $-1 $-1 $111 $65 #
plane-surface $-1 43.210788956893872 -14.679759061625319 54.403702561882582 0 0.69465837861970381 0.71933979245794832 1 0 0 forward_v I I I I #
loop $-1 $-1 $170 $42 #
coedge $-1 $109 $109 $110 $171 reversed $66 $-1 #
coedge $-1 $110 $110 $109 $171 forward $68 $-1 #
coedge $-1 $111 $111 $69 $112 forward $106 $-1 #
edge $-1 $172 -2.2340929996682203e-015 $172 6.2831853071795978 $111 $173 forward 7 unknown #
loop $-1 $-1 $118 $70 #
plane-surface $-1 43.210788956893872 -14.679759061625319 54.403702561882582 0 0.69465837861970381 0.71933979245794832 1 0 0 forward_v I I I I #
loop $-1 $-1 $174 $45 #
coedge $-1 $116 $116 $117 $175 reversed $71 $-1 #
coedge $-1 $117 $117 $116 $175 forward $73 $-1 #
coedge $-1 $118 $118 $74 $119 forward $113 $-1 #
edge $-1 $176 -2.2340929996682203e-015 $176 6.2831853071795978 $118 $177 forward 7 unknown #
face $-1 $178 $179 $18 $-1 $180 reversed single #
loop $-1 $-1 $181 $75 #
plane-surface $-1 -60.733054597613453 0 0 1 0 0 0 0 -1 forward_v I I I I #
coedge $-1 $81 $182 $183 $184 forward $76 $-1 #
coedge $-1 $185 $78 $186 $187 forward $49 $-1 #
coedge $-1 $78 $185 $128 $188 forward $49 $-1 #
coedge $-1 $129 $189 $78 $127 reversed $190 $-1 #
edge $-1 $191 -33.463510877625424 $192 33.463510877625424 $126 $193 forward 7 unknown #
coedge $-1 $80 $79 $125 $188 reversed $31 $-1 #
coedge $-1 $183 $126 $79 $130 forward $190 $-1 #
edge $-1 $191 -16.283219595511429 $134 16.283219595511429 $129 $194 forward 7 unknown #
coedge $-1 $195 $196 $80 $132 reversed $121 $-1 #
edge $-1 $197 -16.283219595511429 $135 16.283219595511429 $131 $198 forward 7 unknown #
coedge $-1 $182 $81 $196 $199 forward $76 $-1 #
vertex $-1 $130 $200 #
vertex $-1 $199 $201 #
straight-curve $-1 0 -33.463510877625424 -16.283219595511429 -1 0 0 I I #
face $-1 $202 $203 $19 $-1 $204 reversed single #
loop $-1 $-1 $89 $83 #
plane-surface $-1 -35.031438311840205 -43.407376461362077 0 1 0 0 0 0 -1 forward_v I I I I #
coedge $-1 $205 $206 $207 $208 forward $84 $-1 #
coedge $-1 $209 $86 $210 $211 forward $53 $-1 #
coedge $-1 $86 $209 $147 $212 forward $53 $-1 #
edge $-1 $149 -35.031438311840205 $213 -28.166615406590594 $86 $214 forward 7 unknown #
coedge $-1 $88 $87 $215 $216 forward $34 $-1 #
coedge $-1 $217 $218 $87 $146 forward $219 $-1 #
edge $-1 $220 28.166615406590594 $150 35.031438311840205 $145 $221 forward 7 unknown #
coedge $-1 $207 $89 $142 $212 reversed $138 $-1 #
coedge $-1 $89 $207 $217 $222 reversed $138 $-1 #
vertex $-1 $143 $223 #
vertex $-1 $222 $224 #
straight-curve $-1 -35.031438311840205 -33.463510877625424 0 0 0 1 I I #
face $-1 $-1 $225 $20 $-1 $226 reversed single #
loop $-1 $-1 $227 $91 #
plane-surface $-1 60.733054597613453 0 0 -1 0 0 0 0 1 forward_v I I I I #
coedge $-1 $228 $94 $96 $161 forward $57 $-1 #
coedge $-1 $94 $228 $227 $229 reversed $57 $-1 #
coedge $-1 $230 $97 $94 $158 forward $92 $-1 #
edge $-1 $164 4.0831288377273687 $231 39.127660119166507 $157 $232 forward 7 unknown #
coedge $-1 $233 $234 $95 $160 forward $225 $-1 #
edge $-1 $235 -62.977268026991425 $163 -54.606334575014372 $159 $236 forward 7 unknown #
edge $-1 $164 54.876589903251585 $235 66.927021755250848 $96 $237 forward 7 unknown #
coedge $-1 $97 $230 $233 $238 forward $92 $-1 #
vertex $-1 $160 $239 #
vertex $-1 $98 $240 #
straight-curve $-1 25.688523316174305 34.848845704587447 16.283219595511426 0 -1 0 I I #
coedge $-1 $166 $166 $-1 $241 reversed $101 $-1 #
edge $-1 $242 0 $242 6.2831853071796004 $102 $243 forward 7 unknown #
vertex $-1 $105 $244 #
ellipse-curve $-1 32.697429572462134 29.129333303902527 12.097752869522902 0 0.69465837861970381 0.71933979245794832 1.5 0 0 1 I I #
coedge $-1 $170 $170 $-1 $245 reversed $108 $-1 #
edge $-1 $246 0 $246 6.2831853071796004 $109 $247 forward 7 unknown #
vertex $-1 $112 $248 #
ellipse-curve $-1 43.210788956893872 29.129333303902527 12.097752869522902 0 0.69465837861970381 0.71933979245794832 1.5 0 0 1 I I #
coedge $-1 $174 $174 $-1 $249 reversed $115 $-1 #
edge $-1 $250 0 $250 6.2831853071796004 $116 $251 forward 7 unknown #
vertex $-1 $119 $252 #
ellipse-curve $-1 53.724148341325609 29.129333303902527 12.097752869522902 0 0.69465837861970381 0.71933979245794832 1.5 0 0 1 I I #
face $-1 $-1 $190 $18 $-1 $253 reversed single #
loop $-1 $-1 $254 $120 #
plane-surface $-1 0 33.463510877625424 0 0 -1 0 0 0 -1 forward_v I I I I #
coedge $-1 $196 $195 $255 $256 forward $121 $-1 #
coedge $-1 $123 $133 $257 $258 forward $76 $-1 #
coedge $-1 $189 $129 $123 $184 reversed $190 $-1 #
edge $-1 $259 -33.463510877625424 $134 33.463510877625424 $183 $260 forward 7 unknown #
coedge $-1 $125 $124 $195 $261 forward $49 $-1 #
coedge $-1 $254 $255 $124 $187 reversed $179 $-1 #
edge $-1 $192 -60.733054597613453 $262 60.733054597613453 $186 $263 forward 7 unknown #
edge $-1 $197 -60.733054597613453 $191 60.733054597613453 $128 $264 forward 7 unknown #
coedge $-1 $126 $183 $254 $265 reversed $190 $-1 #
loop $-1 $-1 $129 $178 #
vertex $-1 $127 $266 #
vertex $-1 $127 $267 #
straight-curve $-1 60.733054597613453 0 16.283219595511429 0 1 0 I I #
straight-curve $-1 60.733054597613453 -33.463510877625424 0 0 0 -1 I I #
coedge $-1 $181 $131 $185 $261 reversed $121 $-1 #
coedge $-1 $131 $181 $133 $199 reversed $121 $-1 #
vertex $-1 $261 $268 #
straight-curve $-1 -60.733054597613453 -33.463510877625424 0 0 0 -1 I I #
edge $-1 $135 -33.463510877625424 $269 33.463510877625424 $196 $270 forward 7 unknown #
point $-1 60.733054597613453 -33.463510877625424 -16.283219595511429 #
point $-1 -60.733054597613453 -33.463510877625424 -16.283219595511429 #
face $-1 $-1 $219 $19 $-1 $271 forward single #
loop $-1 $-1 $272 $137 #
plane-surface $-1 -28.166615406590594 -43.407376461362077 0 -1 0 0 0 0 1 forward_v I I I I #
coedge $-1 $273 $140 $209 $274 reversed $84 $-1 #
coedge $-1 $140 $273 $275 $276 reversed $84 $-1 #
coedge $-1 $148 $147 $140 $208 reversed $138 $-1 #
edge $-1 $277 -16.283219595511429 $278 16.283219595511429 $207 $279 forward 7 unknown #
coedge $-1 $142 $141 $205 $274 forward $53 $-1 #
coedge $-1 $215 $272 $141 $211 reversed $203 $-1 #
edge $-1 $213 -9.9438655837366525 $280 9.9438655837366525 $210 $281 forward 7 unknown #
edge $-1 $278 -9.9438655837366525 $149 9.9438655837366525 $147 $282 forward 7 unknown #
vertex $-1 $211 $283 #
straight-curve $-1 0 -33.463510877625424 -16.283219595511429 1 0 0 I I #
coedge $-1 $284 $210 $144 $216 reversed $203 $-1 #
edge $-1 $220 -16.283219595511429 $213 16.283219595511429 $215 $285 forward 7 unknown #
coedge $-1 $275 $145 $148 $222 forward $219 $-1 #
coedge $-1 $145 $275 $284 $286 forward $219 $-1 #
loop $-1 $-1 $145 $202 #
vertex $-1 $146 $287 #
straight-curve $-1 0 -33.463510877625424 16.283219595511429 -1 0 0 I I #
edge $-1 $150 -9.9438655837366525 $277 9.9438655837366525 $148 $288 forward 7 unknown #
point $-1 -35.031438311840205 -33.463510877625424 -16.283219595511429 #
point $-1 -35.031438311840205 -33.463510877625424 16.283219595511429 #
loop $-1 $-1 $159 $152 #
plane-surface $-1 0 33.463510877625424 0 0 -1 0 0 0 -1 forward_v I I I I #
coedge $-1 $289 $290 $156 $229 forward $153 $-1 #
coedge $-1 $156 $155 $234 $291 reversed $57 $-1 #
edge $-1 $231 30.700728578617468 $292 42.75116043061675 $227 $293 forward 7 unknown #
coedge $-1 $162 $157 $290 $294 forward $92 $-1 #
vertex $-1 $294 $295 #
straight-curve $-1 21.605394478446936 24.795155730179619 16.283219595511433 1 0 0 I I #
coedge $-1 $296 $159 $162 $238 reversed $225 $-1 #
coedge $-1 $159 $296 $228 $291 forward $225 $-1 #
vertex $-1 $160 $297 #
straight-curve $-1 25.688523316174305 33.463510877625424 70.889554170525798 0 0 1 I I #
straight-curve $-1 25.688523316174305 -14.679759061625319 54.403702561882582 0 0.71933979245794832 -0.69465837861970381 I I #
edge $-1 $298 -60.733054597613453 $163 -25.688523316174305 $233 $299 forward 7 unknown #
point $-1 25.688523316174305 33.463510877625424 16.283219595511429 #
point $-1 25.688523316174305 24.795155730179616 16.283219595511426 #
edge $-1 $300 1 $300 0 $166 $-1 forward 7 unknown #
vertex $-1 $167 $301 #
ellipse-curve $-1 32.697429572462134 25.211425704587349 8.04064087591129 0 0.69465837861970381 0.71933979245794832 1.5 0 0 1 I I #
point $-1 34.197429572462134 29.129333303902541 12.097752869522921 #
edge $-1 $302 1 $302 0 $170 $-1 forward 7 unknown #
vertex $-1 $171 $303 #
ellipse-curve $-1 43.210788956893872 25.211425704587349 8.04064087591129 0 0.69465837861970381 0.71933979245794832 1.5 0 0 1 I I #
point $-1 44.710788956893872 29.129333303902541 12.097752869522921 #
edge $-1 $304 1 $304 0 $174 $-1 forward 7 unknown #
vertex $-1 $175 $305 #
ellipse-curve $-1 53.724148341325609 25.211425704587349 8.04064087591129 0 0.69465837861970381 0.71933979245794832 1.5 0 0 1 I I #
point $-1 55.224148341325609 29.129333303902541 12.097752869522921 #
plane-surface $-1 60.733054597613453 0 0 -1 0 0 0 0 1 forward_v I I I I #
coedge $-1 $257 $186 $189 $265 forward $179 $-1 #
coedge $-1 $186 $257 $181 $256 reversed $179 $-1 #
edge $-1 $262 -16.283219595511429 $269 16.283219595511429 $255 $306 forward 7 unknown #
coedge $-1 $255 $254 $182 $258 reversed $179 $-1 #
edge $-1 $269 -60.733054597613453 $259 60.733054597613453 $257 $307 forward 7 unknown #
vertex $-1 $184 $308 #
straight-curve $-1 60.733054597613453 0 -16.283219595511429 0 -1 0 I I #
edge $-1 $262 -33.463510877625424 $197 33.463510877625424 $195 $309 forward 7 unknown #
vertex $-1 $187 $310 #
straight-curve $-1 0 33.463510877625424 16.283219595511429 -1 0 0 I I #
straight-curve $-1 0 -33.463510877625424 16.283219595511429 1 0 0 I I #
edge $-1 $192 -16.283219595511429 $259 16.283219595511429 $189 $311 forward 7 unknown #
point $-1 60.733054597613453 -33.463510877625424 16.283219595511429 #
point $-1 60.733054597613453 33.463510877625424 16.283219595511429 #
point $-1 -60.733054597613453 -33.463510877625424 16.283219595511429 #
vertex $-1 $258 $312 #
straight-curve $-1 -60.733054597613453 0 -16.283219595511429 0 1 0 I I #
plane-surface $-1 0 0 16.283219595511429 0 0 1 1 0 0 forward_v I I I I #
coedge $-1 $210 $284 $273 $313 forward $203 $-1 #
coedge $-1 $206 $205 $272 $313 reversed $84 $-1 #
edge $-1 $280 -3.4324114526248053 $278 3.4324114526248053 $205 $314 forward 7 unknown #
coedge $-1 $218 $217 $206 $276 forward $219 $-1 #
edge $-1 $277 -3.4324114526248053 $315 3.4324114526248053 $206 $316 forward 7 unknown #
vertex $-1 $222 $317 #
vertex $-1 $212 $318 #
straight-curve $-1 -35.031438311840205 -53.351242045098729 0 0 0 -1 I I #
vertex $-1 $313 $319 #
straight-curve $-1 -28.166615406590594 -43.407376461362077 -16.283219595511429 0 -1 0 I I #
straight-curve $-1 -35.031438311840205 -43.407376461362077 -16.283219595511429 0 1 0 I I #
point $-1 -28.166615406590594 -33.463510877625424 -16.283219595511429 #
coedge $-1 $272 $215 $218 $286 reversed $203 $-1 #
straight-curve $-1 -28.166615406590594 -33.463510877625424 0 0 0 -1 I I #
edge $-1 $315 -9.9438655837366525 $220 9.9438655837366525 $284 $320 forward 7 unknown #
point $-1 -28.166615406590594 -33.463510877625424 16.283219595511429 #
straight-curve $-1 -35.031438311840205 -43.407376461362077 16.283219595511429 0 -1 0 I I #
coedge $-1 $290 $227 $296 $321 reversed $153 $-1 #
coedge $-1 $227 $289 $230 $294 reversed $153 $-1 #
edge $-1 $292 -39.127660119166507 $235 -4.0831288377273687 $234 $322 forward 7 unknown #
vertex $-1 $229 $323 #
straight-curve $-1 60.733054597613453 2.7109000061291244 37.609737932377442 0 0.71933979245794832 -0.69465837861970381 I I #
edge $-1 $231 24.795155730179616 $298 33.463510877625424 $290 $324 forward 7 unknown #
point $-1 60.733054597613439 24.795155730179616 16.283219595511426 #
coedge $-1 $234 $233 $289 $321 forward $225 $-1 #
point $-1 25.688523316174305 33.463510877625431 7.9122861435343737 #
vertex $-1 $294 $325 #
straight-curve $-1 0 33.463510877625424 16.283219595511429 -1 0 0 I I #
vertex $-1 $241 $326 #
point $-1 34.197429572462134 25.211425704587349 8.04064087591129 #
vertex $-1 $245 $327 #
point $-1 44.710788956893872 25.211425704587349 8.04064087591129 #
vertex $-1 $249 $328 #
point $-1 55.224148341325609 25.211425704587349 8.04064087591129 #
straight-curve $-1 -60.733054597613453 33.463510877625424 0 0 0 -1 I I #
straight-curve $-1 0 33.463510877625424 -16.283219595511429 1 0 0 I I #
point $-1 60.733054597613453 33.463510877625424 -16.283219595511429 #
straight-curve $-1 -60.733054597613453 0 16.283219595511429 0 -1 0 I I #
point $-1 -60.733054597613453 33.463510877625424 16.283219595511429 #
straight-curve $-1 60.733054597613453 33.463510877625424 0 0 0 -1 I I #
point $-1 -60.733054597613453 33.463510877625424 -16.283219595511429 #
edge $-1 $315 -16.283219595511429 $280 16.283219595511429 $272 $329 forward 7 unknown #
straight-curve $-1 -31.5990268592154 -53.351242045098729 -16.283219595511429 -1 0 0 I I #
vertex $-1 $286 $330 #
straight-curve $-1 -31.5990268592154 -53.351242045098729 16.283219595511429 1 0 0 I I #
point $-1 -35.031438311840205 -53.351242045098729 16.283219595511429 #
point $-1 -35.031438311840205 -53.351242045098729 -16.283219595511429 #
point $-1 -28.166615406590594 -53.351242045098729 -16.283219595511429 #
straight-curve $-1 -28.166615406590594 -43.407376461362077 16.283219595511429 0 1 0 I I #
edge $-1 $298 -16.283219595511429 $292 -7.9122861435343737 $289 $331 forward 7 unknown #
straight-curve $-1 21.605394478446936 33.463510877625424 7.9122861435343879 -1 0 0 I I #
point $-1 60.733054597613439 33.463510877625431 7.9122861435343737 #
straight-curve $-1 60.733054597613453 0 16.283219595511429 0 1 0 I I #
point $-1 60.733054597613453 33.463510877625424 16.283219595511429 #
point $-1 32.697429572462134 24.169438136657796 6.9616311872243672 #
point $-1 43.210788956893872 24.169438136657796 6.9616311872243672 #
point $-1 53.724148341325609 24.169438136657796 6.9616311872243672 #
straight-curve $-1 -28.166615406590594 -53.351242045098729 0 0 0 -1 I I #
point $-1 -28.166615406590594 -53.351242045098729 16.283219595511429 #
straight-curve $-1 60.733054597613453 33.463510877625424 0 0 0 -1 I I #
End-of-ACIS-data 