500 0 10 0           
7 Unknown 11 ACIS 5.0 NT 24 Fri Mar 26 19:19:41 1999 
-1 9.9999999999999995e-007 1e-010 
body $-1 $10 $-1 $11 #
body $-1 $12 $-1 $13 #
body $-1 $14 $-1 $15 #
body $-1 $16 $-1 $17 #
body $-1 $18 $-1 $19 #
body $-1 $20 $-1 $21 #
body $-1 $22 $-1 $23 #
body $-1 $24 $-1 $25 #
body $-1 $26 $-1 $27 #
body $-1 $28 $-1 $29 #
lump $-1 $-1 $30 $0 #
transform $-1 1 0 0 0 1 0 0 0 1 41.495406964323863 28.816937273353528 8.1529409769775647 1 rotate no_reflect no_shear #
lump $-1 $-1 $31 $1 #
transform $-1 1 0 0 0 1 0 0 0 1 41.495406964323863 28.816937273353528 8.1529409769775647 1 rotate no_reflect no_shear #
lump $-1 $-1 $32 $2 #
transform $-1 1 0 0 0 1 0 0 0 1 41.495406964323863 28.816937273353528 8.1529409769775647 1 rotate no_reflect no_shear #
lump $-1 $-1 $33 $3 #
transform $-1 1 0 0 0 1 0 0 0 1 41.495406964323863 28.816937273353528 8.1529409769775647 1 rotate no_reflect no_shear #
lump $-1 $-1 $34 $4 #
transform $-1 1 0 0 0 1 0 0 0 1 41.495406964323863 28.816937273353528 8.1529409769775647 1 rotate no_reflect no_shear #
lump $-1 $-1 $35 $5 #
transform $-1 1 0 0 0 1 0 0 0 1 41.495406964323863 28.816937273353528 8.1529409769775647 1 rotate no_reflect no_shear #
lump $-1 $-1 $36 $6 #
transform $-1 1 0 0 0 1 0 0 0 1 41.495406964323863 28.816937273353528 8.1529409769775647 1 rotate no_reflect no_shear #
lump $-1 $-1 $37 $7 #
transform $-1 1 0 0 0 1 0 0 0 1 41.495406964323863 28.816937273353528 8.1529409769775647 1 rotate no_reflect no_shear #
lump $-1 $-1 $38 $8 #
transform $-1 1 0 0 0 1 0 0 0 1 41.495406964323863 28.816937273353528 8.1529409769775647 1 rotate no_reflect no_shear #
lump $-1 $-1 $39 $9 #
transform $-1 1 0 0 0 1 0 0 0 1 41.495406964323863 28.816937273353528 8.1529409769775647 1 rotate no_reflect no_shear #
shell $-1 $-1 $-1 $40 $-1 $10 #
shell $-1 $-1 $-1 $41 $-1 $12 #
shell $-1 $-1 $-1 $42 $-1 $14 #
shell $-1 $-1 $-1 $43 $-1 $16 #
shell $-1 $-1 $-1 $44 $-1 $18 #
shell $-1 $-1 $-1 $45 $-1 $20 #
shell $-1 $-1 $-1 $46 $-1 $22 #
shell $-1 $-1 $-1 $47 $-1 $24 #
shell $-1 $-1 $-1 $48 $-1 $26 #
shell $-1 $-1 $-1 $49 $-1 $28 #
face $-1 $50 $51 $30 $-1 $52 forward single #
face $-1 $53 $54 $31 $-1 $55 reversed single #
face $-1 $56 $57 $32 $-1 $58 reversed single #
face $-1 $59 $60 $33 $-1 $61 reversed single #
face $-1 $62 $63 $34 $-1 $64 forward single #
face $-1 $65 $66 $35 $-1 $67 forward single #
face $-1 $68 $69 $36 $-1 $70 forward single #
face $-1 $71 $72 $37 $-1 $73 reversed single #
face $-1 $74 $75 $38 $-1 $76 forward single #
face $-1 $77 $78 $39 $-1 $79 forward single #
face $-1 $80 $81 $30 $-1 $82 reversed single #
loop $-1 $-1 $83 $40 #
plane-surface $-1 0 0 8.1529409769775647 0 0 1 1 0 0 forward_v I I I I #
face $-1 $84 $85 $31 $-1 $86 reversed single #
loop $-1 $-1 $87 $41 #
plane-surface $-1 -39.825829363395577 -18.853156123034296 0 0 -1 0 0 0 -1 forward_v I I I I #
face $-1 $88 $89 $32 $-1 $90 reversed single #
loop $-1 $-1 $91 $42 #
plane-surface $-1 0 18.922948900647206 6.3025241932718714 0 1 0 0 0 1 forward_v I I I I #
face $-1 $92 $93 $33 $-1 $94 reversed single #
loop $-1 $-1 $95 $43 #
plane-surface $-1 -2.4830230383662837 15.349010782729668 73.246896370835557 0.84804810408105047 0 0.52991925155115449 0.52991925155115449 0 -0.84804810408105047 forward_v I I I I #
face $-1 $96 $97 $34 $-1 $98 forward single #
loop $-1 $99 $100 $44 #
cone-surface $-1 39.119981629901268 13.204647911979148 5.0575254775488334 -0.84804810408105047 0 -0.52991925155115449 0.26495962577557725 0 -0.42402405204052523 1 I I 0 1 0.5 forward I I I I #
face $-1 $101 $102 $35 $-1 $103 forward single #
loop $-1 $104 $105 $45 #
cone-surface $-1 39.119981629901268 15.349010782729668 5.0575254775488334 -0.84804810408105047 0 -0.52991925155115449 0.26495962577557725 0 -0.42402405204052523 1 I I 0 1 0.5 forward I I I I #
face $-1 $106 $107 $36 $-1 $108 forward single #
loop $-1 $109 $110 $46 #
cone-surface $-1 39.119981629901268 17.493373653480187 5.0575254775488334 -0.84804810408105047 0 -0.52991925155115449 0.26495962577557725 0 -0.42402405204052523 1 I I 0 1 0.5 forward I I I I #
face $-1 $111 $112 $37 $-1 $113 reversed single #
loop $-1 $-1 $114 $47 #
plane-surface $-1 -110.29791055816791 -0.78707622296003699 49.0256244677132 0 1 0 -0.82903758062907751 0 0.55919289150049634 forward_v I I I I #
face $-1 $115 $116 $38 $-1 $117 forward single #
loop $-1 $118 $119 $48 #
cone-surface $-1 -37.42622105592104 2.4169771218652194 3.899795343903695 0.82903758062907751 0 -0.55919289150049634 0.83878933725074445 0 1.2435563709436162 1 I I 0 1 1.5 forward I I I I #
face $-1 $120 $121 $39 $-1 $122 forward single #
loop $-1 $123 $124 $49 #
cone-surface $-1 -37.42622105592104 7.2230571391031084 3.899795343903695 0.82903758062907751 0 -0.55919289150049634 0.83878933725074445 0 1.2435563709436162 1 I I 0 1 1.5 forward I I I I #
face $-1 $125 $126 $30 $-1 $127 reversed single #
loop $-1 $-1 $128 $50 #
plane-surface $-1 0 0 -8.1529409769775647 0 0 1 1 0 0 forward_v I I I I #
coedge $-1 $129 $130 $131 $132 forward $51 $-1 #
face $-1 $133 $134 $31 $-1 $135 forward single #
loop $-1 $-1 $136 $53 #
plane-surface $-1 -38.156251762467292 -23.835046698193914 0 -1 0 0 0 0 1 forward_v I I I I #
coedge $-1 $137 $138 $139 $140 forward $54 $-1 #
face $-1 $141 $142 $32 $-1 $143 reversed single #
loop $-1 $-1 $144 $56 #
plane-surface $-1 0 23.869943087000369 4.4521074095661781 0 0 1 1 0 0 forward_v I I I I #
coedge $-1 $145 $146 $147 $148 reversed $57 $-1 #
face $-1 $149 $150 $33 $-1 $151 reversed single #
loop $-1 $-1 $152 $59 #
plane-surface $-1 67.897179369966651 11.775072664812132 117.22532637352569 0 1 0 0.84804810408105047 0 0.52991925155115449 forward_v I I I I #
coedge $-1 $153 $154 $155 $156 reversed $60 $-1 #
face $-1 $-1 $157 $34 $-1 $158 forward single #
loop $-1 $159 $160 $62 #
cone-surface $-1 38.184151087482348 13.204647911979148 4.4727536724697821 -0.84804810408105047 0 -0.52991925155115449 0.13247981288778862 0 -0.21201202602026262 1 I I -0.70710678118654746 0.70710678118654746 0.25 forward I I I I #
loop $-1 $-1 $161 $44 #
coedge $-1 $100 $100 $162 $163 reversed $63 $-1 #
face $-1 $-1 $164 $35 $-1 $165 forward single #
loop $-1 $166 $167 $65 #
cone-surface $-1 38.184151087482348 15.349010782729668 4.4727536724697821 -0.84804810408105047 0 -0.52991925155115449 0.13247981288778862 0 -0.21201202602026262 1 I I -0.70710678118654746 0.70710678118654746 0.25 forward I I I I #
loop $-1 $-1 $168 $45 #
coedge $-1 $105 $105 $169 $170 reversed $66 $-1 #
face $-1 $-1 $171 $36 $-1 $172 forward single #
loop $-1 $173 $174 $68 #
cone-surface $-1 38.184151087482348 17.493373653480187 4.4727536724697821 -0.84804810408105047 0 -0.52991925155115449 0.13247981288778862 0 -0.21201202602026262 1 I I -0.70710678118654746 0.70710678118654746 0.25 forward I I I I #
loop $-1 $-1 $175 $46 #
coedge $-1 $110 $110 $176 $177 reversed $69 $-1 #
face $-1 $178 $179 $37 $-1 $180 reversed single #
loop $-1 $-1 $181 $71 #
plane-surface $-1 -41.495406964323863 4.8200171304841639 2.6177512589730156 -0.82903758062907751 0 0.55919289150049634 0.55919289150049634 0 0.82903758062907751 forward_v I I I I #
coedge $-1 $182 $183 $184 $185 reversed $72 $-1 #
face $-1 $-1 $186 $38 $-1 $187 forward single #
loop $-1 $188 $189 $74 #
cone-surface $-1 -34.602023207471682 2.4169771218652194 1.9948499012067309 0.82903758062907751 0 -0.55919289150049634 0.41939466862537222 0 0.62177818547180808 1 I I -0.70710678118654757 0.70710678118654757 0.75 forward I I I I #
loop $-1 $-1 $190 $48 #
coedge $-1 $119 $119 $191 $192 reversed $75 $-1 #
face $-1 $-1 $193 $39 $-1 $194 forward single #
loop $-1 $195 $196 $77 #
cone-surface $-1 -34.602023207471682 7.2230571391031084 1.9948499012067309 0.82903758062907751 0 -0.55919289150049634 0.41939466862537222 0 0.62177818547180808 1 I I -0.70710678118654757 0.70710678118654757 0.75 forward I I I I #
loop $-1 $-1 $197 $49 #
coedge $-1 $124 $124 $198 $199 reversed $78 $-1 #
face $-1 $200 $201 $30 $-1 $202 reversed single #
loop $-1 $-1 $203 $80 #
plane-surface $-1 0 -28.816937273353528 0 0 1 0 0 0 1 forward_v I I I I #
coedge $-1 $204 $205 $206 $207 forward $81 $-1 #
coedge $-1 $208 $83 $209 $210 forward $51 $-1 #
coedge $-1 $83 $208 $211 $212 forward $51 $-1 #
coedge $-1 $213 $214 $83 $132 reversed $215 $-1 #
edge $-1 $216 -28.816937273353528 $217 28.816937273353528 $131 $218 forward 7 unknown #
face $-1 $219 $220 $31 $-1 $221 reversed single #
loop $-1 $-1 $222 $84 #
plane-surface $-1 0 0 8.1529409769775647 0 0 1 1 0 0 forward_v I I I I #
coedge $-1 $223 $224 $225 $226 reversed $85 $-1 #
coedge $-1 $227 $87 $228 $229 reversed $54 $-1 #
coedge $-1 $87 $227 $230 $231 reversed $54 $-1 #
coedge $-1 $224 $223 $87 $140 reversed $85 $-1 #
edge $-1 $232 -8.1529409769775647 $233 8.1529409769775647 $139 $234 forward 7 unknown #
face $-1 $235 $236 $32 $-1 $237 reversed single #
loop $-1 $-1 $238 $88 #
plane-surface $-1 0 28.816937273353528 0 0 -1 0 0 0 -1 forward_v I I I I #
coedge $-1 $239 $240 $241 $242 reversed $89 $-1 #
coedge $-1 $243 $91 $244 $245 reversed $57 $-1 #
coedge $-1 $91 $243 $246 $247 reversed $57 $-1 #
coedge $-1 $248 $249 $91 $148 forward $250 $-1 #
edge $-1 $251 -41.495406964323863 $252 41.495406964323863 $147 $253 forward 7 unknown #
face $-1 $254 $255 $33 $-1 $256 forward single #
loop $-1 $-1 $257 $92 #
plane-surface $-1 41.495406964323863 0 0 -1 0 0 0 0 1 forward_v I I I I #
coedge $-1 $258 $259 $260 $261 reversed $93 $-1 #
coedge $-1 $262 $95 $263 $264 reversed $60 $-1 #
coedge $-1 $95 $262 $258 $265 forward $60 $-1 #
coedge $-1 $260 $266 $95 $156 forward $267 $-1 #
edge $-1 $268 -11.248443509282373 $269 -4.1005672734472984 $155 $270 forward 7 unknown #
loop $-1 $-1 $162 $96 #
plane-surface $-1 -2.4830230383662837 15.349010782729668 73.246896370835557 0.84804810408105047 0 0.52991925155115449 0.52991925155115449 0 -0.84804810408105047 forward_v I I I I #
loop $-1 $-1 $271 $62 #
coedge $-1 $160 $160 $161 $272 reversed $97 $-1 #
coedge $-1 $161 $161 $160 $272 forward $99 $-1 #
coedge $-1 $162 $162 $100 $163 forward $157 $-1 #
edge $-1 $273 0 $273 6.2831853071796004 $162 $274 forward 7 unknown #
loop $-1 $-1 $169 $101 #
plane-surface $-1 -2.4830230383662837 15.349010782729668 73.246896370835557 0.84804810408105047 0 0.52991925155115449 0.52991925155115449 0 -0.84804810408105047 forward_v I I I I #
loop $-1 $-1 $275 $65 #
coedge $-1 $167 $167 $168 $276 reversed $102 $-1 #
coedge $-1 $168 $168 $167 $276 forward $104 $-1 #
coedge $-1 $169 $169 $105 $170 forward $164 $-1 #
edge $-1 $277 0 $277 6.2831853071796004 $169 $278 forward 7 unknown #
loop $-1 $-1 $176 $106 #
plane-surface $-1 -2.4830230383662837 15.349010782729668 73.246896370835557 0.84804810408105047 0 0.52991925155115449 0.52991925155115449 0 -0.84804810408105047 forward_v I I I I #
loop $-1 $-1 $279 $68 #
coedge $-1 $174 $174 $175 $280 reversed $107 $-1 #
coedge $-1 $175 $175 $174 $280 forward $109 $-1 #
coedge $-1 $176 $176 $110 $177 forward $171 $-1 #
edge $-1 $281 0 $281 6.2831853071796004 $176 $282 forward 7 unknown #
face $-1 $283 $284 $37 $-1 $285 forward single #
loop $-1 $-1 $286 $111 #
plane-surface $-1 -110.29791055816791 10.427110483928365 49.0256244677132 0 -1 0 0.82903758062907751 0 -0.55919289150049634 forward_v I I I I #
coedge $-1 $287 $288 $289 $290 reversed $112 $-1 #
coedge $-1 $183 $114 $291 $292 reversed $72 $-1 #
coedge $-1 $114 $182 $287 $293 reversed $72 $-1 #
coedge $-1 $289 $294 $114 $185 forward $284 $-1 #
edge $-1 $295 13.653548314760094 $296 17.38708080561063 $184 $297 forward 7 unknown #
loop $-1 $-1 $191 $115 #
plane-surface $-1 -41.495406964323863 4.8200171304841639 2.6177512589730156 -0.82903758062907751 0 0.55919289150049634 0.55919289150049634 0 0.82903758062907751 forward_v I I I I #
loop $-1 $-1 $298 $74 #
coedge $-1 $189 $189 $190 $299 reversed $116 $-1 #
coedge $-1 $190 $190 $189 $299 forward $118 $-1 #
coedge $-1 $191 $191 $119 $192 forward $186 $-1 #
edge $-1 $300 0 $300 6.2831853071796004 $191 $301 forward 7 unknown #
loop $-1 $-1 $198 $120 #
plane-surface $-1 -41.495406964323863 4.8200171304841639 2.6177512589730156 -0.82903758062907751 0 0.55919289150049634 0.55919289150049634 0 0.82903758062907751 forward_v I I I I #
loop $-1 $-1 $302 $77 #
coedge $-1 $196 $196 $197 $303 reversed $121 $-1 #
coedge $-1 $197 $197 $196 $303 forward $123 $-1 #
coedge $-1 $198 $198 $124 $199 forward $193 $-1 #
edge $-1 $304 0 $304 6.2831853071796004 $198 $305 forward 7 unknown #
face $-1 $306 $307 $30 $-1 $308 reversed single #
loop $-1 $-1 $309 $125 #
plane-surface $-1 -41.495406964323863 0 0 1 0 0 0 0 -1 forward_v I I I I #
coedge $-1 $310 $211 $311 $312 forward $126 $-1 #
coedge $-1 $313 $128 $310 $314 forward $81 $-1 #
coedge $-1 $128 $313 $315 $316 forward $81 $-1 #
coedge $-1 $214 $213 $128 $207 reversed $215 $-1 #
edge $-1 $317 -28.816937273353528 $318 28.816937273353528 $206 $319 forward 7 unknown #
coedge $-1 $130 $129 $320 $321 forward $51 $-1 #
coedge $-1 $322 $323 $129 $210 reversed $307 $-1 #
edge $-1 $217 -41.495406964323863 $324 41.495406964323863 $209 $325 forward 7 unknown #
coedge $-1 $203 $326 $130 $212 reversed $126 $-1 #
edge $-1 $327 -41.495406964323863 $216 41.495406964323863 $211 $328 forward 7 unknown #
coedge $-1 $206 $131 $326 $329 forward $215 $-1 #
coedge $-1 $131 $206 $322 $330 reversed $215 $-1 #
loop $-1 $-1 $213 $306 #
vertex $-1 $132 $331 #
vertex $-1 $132 $332 #
straight-curve $-1 41.495406964323863 0 8.1529409769775647 0 1 0 I I #
face $-1 $333 $334 $31 $-1 $335 reversed single #
loop $-1 $-1 $336 $133 #
plane-surface $-1 -41.495406964323863 0 0 1 0 0 0 0 -1 forward_v I I I I #
coedge $-1 $230 $337 $224 $338 forward $134 $-1 #
coedge $-1 $139 $136 $339 $340 reversed $85 $-1 #
coedge $-1 $136 $139 $222 $338 reversed $85 $-1 #
coedge $-1 $341 $342 $136 $226 forward $343 $-1 #
edge $-1 $344 -8.1529409769775647 $345 8.1529409769775647 $225 $346 forward 7 unknown #
coedge $-1 $138 $137 $336 $347 reversed $54 $-1 #
coedge $-1 $339 $348 $137 $229 forward $334 $-1 #
edge $-1 $349 -21.582492282626074 $233 -18.243337080769503 $228 $350 forward 7 unknown #
coedge $-1 $351 $222 $138 $231 forward $134 $-1 #
edge $-1 $232 18.243337080769503 $352 21.582492282626074 $230 $353 forward 7 unknown #
vertex $-1 $231 $354 #
vertex $-1 $229 $355 #
straight-curve $-1 -38.156251762467292 -18.853156123034296 0 0 0 -1 I I #
face $-1 $356 $250 $32 $-1 $357 forward single #
loop $-1 $-1 $358 $141 #
plane-surface $-1 -41.495406964323863 0 0 1 0 0 0 0 -1 forward_v I I I I #
coedge $-1 $359 $360 $240 $361 forward $142 $-1 #
coedge $-1 $362 $144 $243 $363 forward $89 $-1 #
coedge $-1 $144 $362 $238 $361 reversed $89 $-1 #
coedge $-1 $364 $246 $144 $242 forward $365 $-1 #
edge $-1 $366 6.9879773571470221 $367 16.881965729853349 $241 $368 forward 7 unknown #
coedge $-1 $146 $145 $239 $363 reversed $57 $-1 #
coedge $-1 $369 $358 $145 $245 forward $236 $-1 #
edge $-1 $370 1.3008453129302424 $251 5.001678880341629 $244 $371 forward 7 unknown #
coedge $-1 $241 $372 $146 $247 forward $365 $-1 #
edge $-1 $252 -5.001678880341629 $366 -1.3008453129302424 $246 $373 forward 7 unknown #
coedge $-1 $374 $147 $372 $375 forward $250 $-1 #
coedge $-1 $147 $374 $369 $376 forward $250 $-1 #
loop $-1 $-1 $147 $235 #
vertex $-1 $245 $377 #
vertex $-1 $375 $378 #
straight-curve $-1 0 18.922948900647206 8.1529409769775647 1 0 0 I I #
face $-1 $-1 $267 $33 $-1 $379 forward single #
loop $-1 $-1 $263 $149 #
plane-surface $-1 0 18.922948900647206 6.3025241932718714 0 1 0 0 0 1 forward_v I I I I #
coedge $-1 $380 $381 $259 $382 forward $150 $-1 #
coedge $-1 $259 $152 $154 $265 reversed $93 $-1 #
coedge $-1 $152 $258 $257 $382 reversed $93 $-1 #
coedge $-1 $383 $155 $152 $261 forward $267 $-1 #
edge $-1 $269 4.2436036432926301 $384 7.5468172793405373 $260 $385 forward 7 unknown #
coedge $-1 $154 $153 $380 $386 reversed $60 $-1 #
coedge $-1 $387 $388 $153 $264 forward $255 $-1 #
edge $-1 $389 -53.946889121570536 $268 -47.71346086551285 $263 $390 forward 7 unknown #
edge $-1 $391 -82.990813928647754 $269 -76.757385672590061 $258 $392 forward 7 unknown #
coedge $-1 $155 $383 $387 $393 forward $267 $-1 #
loop $-1 $-1 $260 $254 #
vertex $-1 $264 $394 #
vertex $-1 $156 $395 #
straight-curve $-1 38.192193328275948 7.6745053913648338 8.1529409769775683 0 -1 0 I I #
coedge $-1 $271 $271 $-1 $396 reversed $159 $-1 #
edge $-1 $397 0 $397 6.2831853071796004 $160 $398 forward 7 unknown #
vertex $-1 $163 $399 #
ellipse-curve $-1 39.843800146299905 13.204647911979148 5.5098174697400841 0.84804810408105047 0 0.52991925155115449 0.26495962577557725 0 -0.42402405204052523 1 I I #
coedge $-1 $275 $275 $-1 $400 reversed $166 $-1 #
edge $-1 $401 0 $401 6.2831853071796004 $167 $402 forward 7 unknown #
vertex $-1 $170 $403 #
ellipse-curve $-1 39.843800146299905 15.349010782729668 5.5098174697400841 0.84804810408105047 0 0.52991925155115449 0.26495962577557725 0 -0.42402405204052523 1 I I #
coedge $-1 $279 $279 $-1 $404 reversed $173 $-1 #
edge $-1 $405 0 $405 6.2831853071796004 $174 $406 forward 7 unknown #
vertex $-1 $177 $407 #
ellipse-curve $-1 39.843800146299905 17.493373653480187 5.5098174697400841 0.84804810408105047 0 0.52991925155115449 0.26495962577557725 0 -0.42402405204052523 1 I I #
face $-1 $-1 $408 $37 $-1 $409 reversed single #
loop $-1 $-1 $184 $178 #
plane-surface $-1 0 0 8.1529409769775647 0 0 1 1 0 0 forward_v I I I I #
coedge $-1 $410 $411 $412 $413 reversed $179 $-1 #
coedge $-1 $414 $181 $183 $293 forward $112 $-1 #
coedge $-1 $181 $414 $410 $415 forward $112 $-1 #
coedge $-1 $412 $184 $181 $290 forward $284 $-1 #
edge $-1 $296 -3.1970847882021189 $416 8.0171019186862829 $289 $417 forward 7 unknown #
coedge $-1 $418 $419 $182 $292 forward $408 $-1 #
edge $-1 $420 -21.895060974883584 $295 -16.359871256879035 $291 $421 forward 7 unknown #
edge $-1 $296 -6.6766451212071987 $420 0 $183 $422 forward 7 unknown #
coedge $-1 $184 $412 $418 $423 forward $284 $-1 #
vertex $-1 $185 $424 #
vertex $-1 $185 $425 #
straight-curve $-1 -55.148955279083957 -0.78707622296003699 8.1529409769775647 1 0 0 I I #
coedge $-1 $298 $298 $-1 $426 reversed $188 $-1 #
edge $-1 $427 0 $427 6.2831853071796004 $189 $428 forward 7 unknown #
vertex $-1 $192 $429 #
ellipse-curve $-1 -39.628640718898595 2.4169771218652194 5.3853461179752893 -0.82903758062907751 0 0.55919289150049634 0.83878933725074445 0 1.2435563709436162 1 I I #
coedge $-1 $302 $302 $-1 $430 reversed $195 $-1 #
edge $-1 $431 0 $431 6.2831853071796004 $196 $432 forward 7 unknown #
vertex $-1 $199 $433 #
ellipse-curve $-1 -39.628640718898595 7.2230571391031084 5.3853461179752893 -0.82903758062907751 0 0.55919289150049634 0.83878933725074445 0 1.2435563709436162 1 I I #
face $-1 $-1 $215 $30 $-1 $434 reversed single #
loop $-1 $-1 $322 $200 #
plane-surface $-1 0 28.816937273353528 0 0 -1 0 0 0 -1 forward_v I I I I #
coedge $-1 $435 $320 $323 $436 forward $201 $-1 #
coedge $-1 $326 $203 $204 $314 reversed $126 $-1 #
coedge $-1 $320 $435 $203 $312 reversed $201 $-1 #
edge $-1 $327 -8.1529409769775647 $437 8.1529409769775647 $311 $438 forward 7 unknown #
coedge $-1 $205 $204 $435 $439 forward $81 $-1 #
edge $-1 $318 -41.495406964323863 $437 41.495406964323863 $310 $440 forward 7 unknown #
coedge $-1 $323 $322 $205 $316 reversed $307 $-1 #
edge $-1 $441 -41.495406964323863 $317 41.495406964323863 $315 $442 forward 7 unknown #
vertex $-1 $207 $443 #
vertex $-1 $329 $444 #
straight-curve $-1 41.495406964323863 0 -8.1529409769775647 0 -1 0 I I #
coedge $-1 $309 $311 $208 $321 reversed $201 $-1 #
edge $-1 $324 -28.816937273353528 $327 28.816937273353528 $320 $445 forward 7 unknown #
coedge $-1 $315 $209 $214 $330 forward $307 $-1 #
coedge $-1 $209 $315 $309 $436 reversed $307 $-1 #
vertex $-1 $210 $446 #
straight-curve $-1 0 28.816937273353528 8.1529409769775647 -1 0 0 I I #
coedge $-1 $211 $310 $213 $329 reversed $126 $-1 #
vertex $-1 $321 $447 #
straight-curve $-1 0 -28.816937273353528 8.1529409769775647 1 0 0 I I #
edge $-1 $216 -8.1529409769775647 $318 8.1529409769775647 $213 $448 forward 7 unknown #
edge $-1 $217 -8.1529409769775647 $317 8.1529409769775647 $214 $449 forward 7 unknown #
point $-1 41.495406964323863 -28.816937273353528 8.1529409769775647 #
point $-1 41.495406964323863 28.816937273353528 8.1529409769775647 #
face $-1 $-1 $343 $31 $-1 $450 reversed single #
loop $-1 $-1 $339 $219 #
plane-surface $-1 0 0 -8.1529409769775647 0 0 1 1 0 0 forward_v I I I I #
coedge $-1 $451 $452 $227 $347 forward $220 $-1 #
coedge $-1 $222 $351 $341 $453 forward $134 $-1 #
edge $-1 $345 -16.899413924256574 $232 -6.9356327739373391 $222 $454 forward 7 unknown #
coedge $-1 $455 $228 $223 $340 forward $334 $-1 #
edge $-1 $233 6.9356327739373391 $344 16.899413924256574 $339 $456 forward 7 unknown #
coedge $-1 $457 $225 $337 $453 reversed $343 $-1 #
coedge $-1 $225 $457 $455 $458 reversed $343 $-1 #
loop $-1 $-1 $225 $333 #
vertex $-1 $458 $459 #
vertex $-1 $226 $460 #
straight-curve $-1 -38.156251762467292 -28.816937273353528 0 0 0 1 I I #
edge $-1 $352 -8.1529409769775647 $349 8.1529409769775647 $336 $461 forward 7 unknown #
coedge $-1 $228 $455 $451 $462 forward $334 $-1 #
vertex $-1 $229 $463 #
straight-curve $-1 -19.912914681697789 -18.853156123034296 -8.1529409769775647 1 0 0 I I #
coedge $-1 $337 $230 $452 $464 forward $134 $-1 #
vertex $-1 $464 $465 #
straight-curve $-1 -19.912914681697789 -18.853156123034296 8.1529409769775647 -1 0 0 I I #
point $-1 -38.156251762467292 -18.853156123034296 8.1529409769775647 #
point $-1 -38.156251762467292 -18.853156123034296 -8.1529409769775647 #
face $-1 $-1 $365 $32 $-1 $466 reversed single #
plane-surface $-1 0 0 8.1529409769775647 0 0 1 1 0 0 forward_v I I I I #
coedge $-1 $244 $467 $362 $468 forward $236 $-1 #
coedge $-1 $469 $238 $467 $470 reversed $142 $-1 #
coedge $-1 $238 $469 $364 $471 forward $142 $-1 #
edge $-1 $367 -41.495406964323863 $472 41.495406964323863 $238 $473 forward 7 unknown #
coedge $-1 $240 $239 $358 $468 reversed $89 $-1 #
edge $-1 $366 -41.495406964323863 $370 41.495406964323863 $243 $474 forward 7 unknown #
coedge $-1 $372 $241 $360 $471 reversed $365 $-1 #
loop $-1 $-1 $241 $356 #
vertex $-1 $242 $475 #
vertex $-1 $361 $476 #
straight-curve $-1 41.495406964323863 11.934971543500184 4.4521074095661781 0 1 0 I I #
coedge $-1 $467 $244 $249 $376 reversed $236 $-1 #
vertex $-1 $468 $477 #
straight-curve $-1 -41.495406964323863 18.922948900647206 3.1512620966359357 0 0 1 I I #
coedge $-1 $246 $364 $248 $375 reversed $365 $-1 #
straight-curve $-1 41.495406964323863 18.922948900647206 3.1512620966359357 0 0 -1 I I #
coedge $-1 $249 $248 $469 $478 forward $250 $-1 #
edge $-1 $252 18.922948900647206 $479 28.816937273353528 $372 $480 forward 7 unknown #
edge $-1 $481 -28.816937273353528 $251 -18.922948900647206 $369 $482 forward 7 unknown #
point $-1 -41.495406964323863 18.922948900647206 8.1529409769775647 #
point $-1 41.495406964323863 18.922948900647206 8.1529409769775647 #
plane-surface $-1 0 0 8.1529409769775647 0 0 1 1 0 0 forward_v I I I I #
coedge $-1 $483 $257 $262 $386 forward $150 $-1 #
coedge $-1 $257 $483 $383 $484 reversed $150 $-1 #
edge $-1 $384 50.459722209785284 $391 55.74596922426025 $257 $485 forward 7 unknown #
coedge $-1 $266 $260 $381 $484 forward $267 $-1 #
vertex $-1 $484 $486 #
straight-curve $-1 33.948589684983325 11.775072664812132 8.1529409769775611 1 0 0 I I #
edge $-1 $391 4.1005672734472984 $389 11.248443509282369 $380 $487 forward 7 unknown #
coedge $-1 $388 $263 $266 $393 reversed $255 $-1 #
coedge $-1 $263 $387 $483 $488 reversed $255 $-1 #
vertex $-1 $488 $489 #
straight-curve $-1 12.907911857508084 18.922948900647206 48.616251003121135 -0.52991925155115449 0 0.84804810408105047 I I #
vertex $-1 $386 $490 #
straight-curve $-1 -2.4830230383662837 11.775072664812132 73.246896370835557 -0.52991925155115449 0 0.84804810408105047 I I #
edge $-1 $491 -41.495406964323863 $268 -38.192193328275955 $266 $492 forward 7 unknown #
point $-1 38.192193328275955 18.922948900647206 8.1529409769775647 #
point $-1 38.192193328275955 11.775072664812132 8.1529409769775611 #
edge $-1 $493 1 $493 0 $271 $-1 forward 7 unknown #
vertex $-1 $272 $494 #
ellipse-curve $-1 38.39616311350261 13.204647911979148 4.6052334853575703 0.84804810408105047 0 0.52991925155115449 0.26495962577557725 0 -0.42402405204052523 1 I I #
point $-1 40.108759772075501 13.204647911979148 5.0857934176995716 #
edge $-1 $495 1 $495 0 $275 $-1 forward 7 unknown #
vertex $-1 $276 $496 #
ellipse-curve $-1 38.39616311350261 15.349010782729668 4.6052334853575703 0.84804810408105047 0 0.52991925155115449 0.26495962577557725 0 -0.42402405204052523 1 I I #
point $-1 40.108759772075501 15.349010782729668 5.0857934176995716 #
edge $-1 $497 1 $497 0 $279 $-1 forward 7 unknown #
vertex $-1 $280 $498 #
ellipse-curve $-1 38.39616311350261 17.493373653480187 4.6052334853575703 0.84804810408105047 0 0.52991925155115449 0.26495962577557725 0 -0.42402405204052523 1 I I #
point $-1 40.108759772075501 17.493373653480187 5.0857934176995716 #
loop $-1 $-1 $291 $283 #
plane-surface $-1 -41.495406964323863 0 0 1 0 0 0 0 -1 forward_v I I I I #
coedge $-1 $411 $286 $288 $415 reversed $179 $-1 #
coedge $-1 $286 $410 $499 $500 reversed $179 $-1 #
coedge $-1 $294 $289 $286 $413 forward $284 $-1 #
edge $-1 $416 -17.38708080561063 $501 -13.653548314760094 $412 $502 forward 7 unknown #
coedge $-1 $288 $287 $419 $503 reversed $112 $-1 #
edge $-1 $504 0 $416 6.6766451212071987 $410 $505 forward 7 unknown #
vertex $-1 $290 $506 #
straight-curve $-1 -37.761874473473327 2.410008565242082 8.1529409769775647 0 1 0 I I #
coedge $-1 $499 $291 $294 $423 reversed $408 $-1 #
coedge $-1 $291 $499 $414 $503 forward $408 $-1 #
vertex $-1 $292 $507 #
straight-curve $-1 -41.495406964323863 -0.78707622296003699 24.5128122338566 0 0 1 I I #
straight-curve $-1 -41.495406964323863 -0.78707622296003699 2.6177512589730156 -0.55919289150049634 0 -0.82903758062907751 I I #
edge $-1 $501 -10.427110483928365 $295 0.78707622296003699 $418 $508 forward 7 unknown #
point $-1 -41.495406964323863 -0.78707622296003699 8.1529409769775647 #
point $-1 -37.761874473473327 -0.78707622296003699 8.1529409769775647 #
edge $-1 $509 1 $509 0 $298 $-1 forward 7 unknown #
vertex $-1 $299 $510 #
ellipse-curve $-1 -35.223801392943493 2.4169771218652194 2.4142445698321033 -0.82903758062907751 0 0.55919289150049634 0.83878933725074445 0 1.2435563709436162 1 I I #
point $-1 -38.78985138164785 2.4169771218652194 6.6289024889189019 #
edge $-1 $511 1 $511 0 $302 $-1 forward 7 unknown #
vertex $-1 $303 $512 #
ellipse-curve $-1 -35.223801392943493 7.2230571391031084 2.4142445698321033 -0.82903758062907751 0 0.55919289150049634 0.83878933725074445 0 1.2435563709436162 1 I I #
point $-1 -38.78985138164785 7.2230571391031084 6.6289024889189019 #
plane-surface $-1 41.495406964323863 0 0 -1 0 0 0 0 1 forward_v I I I I #
coedge $-1 $311 $309 $313 $439 reversed $201 $-1 #
edge $-1 $324 -8.1529409769775647 $441 8.1529409769775647 $323 $513 forward 7 unknown #
vertex $-1 $439 $514 #
straight-curve $-1 -41.495406964323863 -28.816937273353528 0 0 0 -1 I I #
edge $-1 $437 -28.816937273353528 $441 28.816937273353528 $435 $515 forward 7 unknown #
straight-curve $-1 0 -28.816937273353528 -8.1529409769775647 -1 0 0 I I #
vertex $-1 $316 $516 #
straight-curve $-1 0 28.816937273353528 -8.1529409769775647 1 0 0 I I #
point $-1 41.495406964323863 28.816937273353528 -8.1529409769775647 #
point $-1 41.495406964323863 -28.816937273353528 -8.1529409769775647 #
straight-curve $-1 -41.495406964323863 0 8.1529409769775647 0 -1 0 I I #
point $-1 -41.495406964323863 28.816937273353528 8.1529409769775647 #
point $-1 -41.495406964323863 -28.816937273353528 8.1529409769775647 #
straight-curve $-1 41.495406964323863 -28.816937273353528 0 0 0 -1 I I #
straight-curve $-1 41.495406964323863 28.816937273353528 0 0 0 -1 I I #
plane-surface $-1 0 -28.816937273353528 0 0 1 0 0 0 1 forward_v I I I I #
coedge $-1 $517 $336 $348 $462 reversed $220 $-1 #
coedge $-1 $336 $517 $351 $464 reversed $220 $-1 #
edge $-1 $518 -41.495406964323863 $345 -38.156251762467292 $341 $519 forward 7 unknown #
straight-curve $-1 -38.156251762467292 -11.917523349096957 8.1529409769775647 0 1 0 I I #
coedge $-1 $348 $339 $342 $458 forward $334 $-1 #
straight-curve $-1 -38.156251762467292 -11.917523349096957 -8.1529409769775647 0 -1 0 I I #
coedge $-1 $342 $341 $517 $520 forward $343 $-1 #
edge $-1 $344 38.156251762467292 $521 41.495406964323863 $342 $522 forward 7 unknown #
point $-1 -38.156251762467292 -28.816937273353531 -8.1529409769775647 #
point $-1 -38.156251762467292 -28.816937273353531 8.1529409769775647 #
straight-curve $-1 -41.495406964323863 -18.853156123034296 0 0 0 -1 I I #
edge $-1 $521 -28.816937273353528 $349 -18.853156123034296 $451 $523 forward 7 unknown #
point $-1 -41.495406964323863 -18.853156123034296 -8.1529409769775647 #
edge $-1 $352 18.853156123034296 $518 28.816937273353528 $452 $524 forward 7 unknown #
point $-1 -41.495406964323863 -18.853156123034296 8.1529409769775647 #
plane-surface $-1 41.495406964323863 0 0 -1 0 0 0 0 1 forward_v I I I I #
coedge $-1 $358 $369 $359 $470 forward $236 $-1 #
edge $-1 $472 -16.881965729853349 $370 -6.9879773571470221 $358 $525 forward 7 unknown #
coedge $-1 $360 $359 $374 $478 reversed $142 $-1 #
edge $-1 $481 -8.1529409769775647 $472 -4.4521074095661781 $359 $526 forward 7 unknown #
edge $-1 $479 -8.1529409769775647 $367 -4.4521074095661781 $364 $527 forward 7 unknown #
vertex $-1 $468 $528 #
straight-curve $-1 0 28.816937273353528 4.4521074095661781 -1 0 0 I I #
straight-curve $-1 0 18.922948900647206 4.4521074095661781 -1 0 0 I I #
point $-1 41.495406964323863 18.922948900647206 4.4521074095661781 #
point $-1 41.495406964323863 28.816937273353531 4.4521074095661781 #
point $-1 -41.495406964323863 18.922948900647206 4.4521074095661781 #
edge $-1 $479 -41.495406964323863 $481 41.495406964323863 $469 $529 forward 7 unknown #
vertex $-1 $375 $530 #
straight-curve $-1 41.495406964323863 0 8.1529409769775647 0 1 0 I I #
vertex $-1 $478 $531 #
straight-curve $-1 -41.495406964323863 0 8.1529409769775647 0 -1 0 I I #
coedge $-1 $381 $380 $388 $488 forward $150 $-1 #
edge $-1 $384 11.775072664812132 $491 18.922948900647206 $381 $532 forward 7 unknown #
straight-curve $-1 41.495406964323863 11.775072664812132 58.612663186762845 0 0 -1 I I #
point $-1 41.495406964323863 11.775072664812132 8.1529409769775647 #
straight-curve $-1 41.495406964323863 7.6745053913648338 2.8666939625025876 0 1 0 I I #
edge $-1 $389 -55.74596922426025 $491 -50.459722209785284 $483 $533 forward 7 unknown #
point $-1 41.495406964323863 18.922948900647203 2.8666939625025947 #
point $-1 41.495406964323863 11.775072664812132 2.8666939625025947 #
vertex $-1 $393 $534 #
straight-curve $-1 0 18.922948900647206 8.1529409769775647 -1 0 0 I I #
vertex $-1 $396 $535 #
point $-1 38.661122739278191 13.204647911979148 4.1812094333170453 #
vertex $-1 $400 $536 #
point $-1 38.661122739278191 15.349010782729668 4.1812094333170453 #
vertex $-1 $404 $537 #
point $-1 38.661122739278191 17.493373653480187 4.1812094333170453 #
coedge $-1 $419 $418 $411 $500 forward $408 $-1 #
edge $-1 $501 16.359871256879035 $504 21.895060974883584 $499 $538 forward 7 unknown #
vertex $-1 $423 $539 #
straight-curve $-1 -55.148955279083957 10.427110483928365 8.1529409769775647 -1 0 0 I I #
edge $-1 $504 -8.0171019186862829 $420 3.1970847882021189 $419 $540 forward 7 unknown #
vertex $-1 $503 $541 #
straight-curve $-1 -41.495406964323863 10.427110483928365 2.6177512589730156 0.55919289150049634 0 0.82903758062907751 I I #
point $-1 -37.761874473473327 10.427110483928365 8.1529409769775647 #
point $-1 -41.495406964323863 -0.78707622296003699 2.6177512589730156 #
straight-curve $-1 -41.495406964323863 0 8.1529409769775647 0 -1 0 I I #
vertex $-1 $426 $542 #
point $-1 -34.385012055692748 2.4169771218652194 3.6578009407757195 #
vertex $-1 $430 $543 #
point $-1 -34.385012055692748 7.2230571391031084 3.6578009407757195 #
straight-curve $-1 -41.495406964323863 28.816937273353528 0 0 0 -1 I I #
point $-1 -41.495406964323863 -28.816937273353528 -8.1529409769775647 #
straight-curve $-1 -41.495406964323863 0 -8.1529409769775647 0 1 0 I I #
point $-1 -41.495406964323863 28.816937273353528 -8.1529409769775647 #
coedge $-1 $452 $451 $457 $520 reversed $220 $-1 #
vertex $-1 $464 $544 #
straight-curve $-1 0 -28.816937273353528 8.1529409769775647 1 0 0 I I #
edge $-1 $518 -8.1529409769775647 $521 8.1529409769775647 $517 $545 forward 7 unknown #
vertex $-1 $462 $546 #
straight-curve $-1 0 -28.816937273353528 -8.1529409769775647 -1 0 0 I I #
straight-curve $-1 -41.495406964323863 0 -8.1529409769775647 0 1 0 I I #
straight-curve $-1 -41.495406964323863 0 8.1529409769775647 0 -1 0 I I #
straight-curve $-1 -41.495406964323863 11.934971543500184 4.4521074095661781 0 -1 0 I I #
straight-curve $-1 -41.495406964323863 28.816937273353528 0 0 0 -1 I I #
straight-curve $-1 41.495406964323863 28.816937273353528 0 0 0 -1 I I #
point $-1 -41.495406964323863 28.816937273353531 4.4521074095661781 #
straight-curve $-1 0 28.816937273353528 8.1529409769775647 -1 0 0 I I #
point $-1 41.495406964323863 28.816937273353528 8.1529409769775647 #
point $-1 -41.495406964323863 28.816937273353528 8.1529409769775647 #
straight-curve $-1 41.495406964323863 0 8.1529409769775647 0 1 0 I I #
straight-curve $-1 41.495406964323863 18.922948900647203 58.612663186762845 0 0 1 I I #
point $-1 41.495406964323863 18.922948900647206 8.1529409769775647 #
point $-1 37.972139061462087 13.204647911979148 4.3402738595819939 #
point $-1 37.972139061462087 15.349010782729668 4.3402738595819939 #
point $-1 37.972139061462087 17.493373653480187 4.3402738595819939 #
straight-curve $-1 -41.495406964323863 10.427110483928365 24.5128122338566 0 0 -1 I I #
point $-1 -41.495406964323863 10.427110483928365 8.1529409769775647 #
straight-curve $-1 -41.495406964323863 2.410008565242082 2.6177512589730143 0 -1 0 I I #
point $-1 -41.495406964323863 10.427110483928365 2.6177512589730156 #
point $-1 -33.98024502199987 2.4169771218652194 1.5754552325813587 #
point $-1 -33.98024502199987 7.2230571391031084 1.5754552325813587 #
point $-1 -41.495406964323863 -28.816937273353528 8.1529409769775647 #
straight-curve $-1 -41.495406964323863 -28.816937273353528 0 0 0 -1 I I #
point $-1 -41.495406964323863 -28.816937273353528 -8.1529409769775647 #
End-of-ACIS-data 