500 0 7 0           
7 Unknown 11 ACIS 5.0 NT 24 Thu Mar 25 19:15:02 1999 
-1 9.9999999999999995e-007 1e-010 
body $-1 $7 $-1 $8 #
body $-1 $9 $-1 $10 #
body $-1 $11 $-1 $12 #
body $-1 $13 $-1 $14 #
body $-1 $15 $-1 $16 #
body $-1 $17 $-1 $18 #
body $-1 $19 $-1 $20 #
lump $-1 $-1 $21 $0 #
transform $-1 1 0 0 0 1 0 0 0 1 44.845118564409312 23.930900148620118 9.1232768201711369 1 rotate no_reflect no_shear #
lump $-1 $-1 $22 $1 #
transform $-1 1 0 0 0 1 0 0 0 1 44.845118564409312 23.930900148620118 9.1232768201711369 1 rotate no_reflect no_shear #
lump $-1 $-1 $23 $2 #
transform $-1 1 0 0 0 1 0 0 0 1 44.845118564409312 23.930900148620118 9.1232768201711369 1 rotate no_reflect no_shear #
lump $-1 $-1 $24 $3 #
transform $-1 1 0 0 0 1 0 0 0 1 44.845118564409312 23.930900148620118 9.1232768201711369 1 rotate no_reflect no_shear #
lump $-1 $-1 $25 $4 #
transform $-1 1 0 0 0 1 0 0 0 1 44.845118564409312 23.930900148620118 9.1232768201711369 1 rotate no_reflect no_shear #
lump $-1 $-1 $26 $5 #
transform $-1 1 0 0 0 1 0 0 0 1 44.845118564409312 23.930900148620118 9.1232768201711369 1 rotate no_reflect no_shear #
lump $-1 $-1 $27 $6 #
transform $-1 1 0 0 0 1 0 0 0 1 44.845118564409312 23.930900148620118 9.1232768201711369 1 rotate no_reflect no_shear #
shell $-1 $-1 $-1 $28 $-1 $7 #
shell $-1 $-1 $-1 $29 $-1 $9 #
shell $-1 $-1 $-1 $30 $-1 $11 #
shell $-1 $-1 $-1 $31 $-1 $13 #
shell $-1 $-1 $-1 $32 $-1 $15 #
shell $-1 $-1 $-1 $33 $-1 $17 #
shell $-1 $-1 $-1 $34 $-1 $19 #
face $-1 $35 $36 $21 $-1 $37 forward single #
face $-1 $38 $39 $22 $-1 $40 reversed single #
face $-1 $41 $42 $23 $-1 $43 reversed single #
face $-1 $44 $45 $24 $-1 $46 reversed single #
face $-1 $47 $48 $25 $-1 $49 forward single #
face $-1 $50 $51 $26 $-1 $52 reversed single #
face $-1 $53 $54 $27 $-1 $55 forward single #
face $-1 $56 $57 $21 $-1 $58 reversed single #
loop $-1 $-1 $59 $28 #
plane-surface $-1 0 0 9.1232768201711369 0 0 1 1 0 0 forward_v I I I I #
face $-1 $60 $61 $22 $-1 $62 reversed single #
loop $-1 $-1 $63 $29 #
plane-surface $-1 0 -20.306909736541115 5.2963841970282122 0 0 1 1 0 0 forward_v I I I I #
face $-1 $64 $65 $23 $-1 $66 reversed single #
loop $-1 $-1 $67 $30 #
plane-surface $-1 0 20.306909736541115 5.2963841970282122 0 0 1 1 0 0 forward_v I I I I #
face $-1 $68 $69 $24 $-1 $70 reversed single #
loop $-1 $-1 $71 $31 #
plane-surface $-1 -109.36287657193034 -12.5682854321714 65.619392094720425 0 1 0 -0.71933980857756763 0 0.69465836192734942 forward_v I I I I #
face $-1 $72 $73 $25 $-1 $74 forward single #
loop $-1 $75 $76 $32 #
cone-surface $-1 -40.293426454908982 -8.8034362395480255 4.5318994057489395 0.71933980857756763 0 -0.69465836192734942 1.0419875428910241 0 1.0790097128663514 1 I I 0 1 1.5 forward I I I I #
face $-1 $77 $78 $26 $-1 $79 reversed single #
loop $-1 $-1 $80 $33 #
plane-surface $-1 -109.36287657193034 4.1146338922907102 65.619392094720425 0 1 0 -0.71933980857756763 0 0.69465836192734942 forward_v I I I I #
face $-1 $81 $82 $27 $-1 $83 forward single #
loop $-1 $84 $85 $34 #
cone-surface $-1 -40.293426454908982 7.8794830849140851 4.5318994057489395 0.71933980857756763 0 -0.69465836192734942 1.0419875428910241 0 1.0790097128663514 1 I I 0 1 1.5 forward I I I I #
face $-1 $86 $87 $21 $-1 $88 reversed single #
loop $-1 $-1 $89 $35 #
plane-surface $-1 0 0 -9.1232768201711369 0 0 1 1 0 0 forward_v I I I I #
coedge $-1 $90 $91 $92 $93 forward $36 $-1 #
face $-1 $94 $95 $22 $-1 $96 reversed single #
loop $-1 $-1 $97 $38 #
plane-surface $-1 0 -16.682919324462112 7.2098305085996746 0 -1 0 0 0 -1 forward_v I I I I #
coedge $-1 $98 $99 $100 $101 reversed $39 $-1 #
face $-1 $102 $103 $23 $-1 $104 forward single #
loop $-1 $-1 $105 $41 #
plane-surface $-1 0 16.682919324462112 7.2098305085996746 0 1 0 0 0 1 forward_v I I I I #
coedge $-1 $106 $107 $108 $109 reversed $42 $-1 #
face $-1 $110 $111 $24 $-1 $112 reversed single #
loop $-1 $-1 $113 $44 #
plane-surface $-1 -44.845118564409304 -8.8034362395480255 3.3153188899397463 -0.71933980857756763 0 0.69465836192734942 0.69465836192734942 0 0.71933980857756763 forward_v I I I I #
coedge $-1 $114 $115 $116 $117 reversed $45 $-1 #
face $-1 $-1 $118 $25 $-1 $119 forward single #
loop $-1 $120 $121 $47 #
cone-surface $-1 -38.006569311301902 -8.8034362395480255 2.3235071849969184 0.71933980857756763 0 -0.69465836192734942 0.52099377144551207 0 0.53950485643317569 1 I I -0.70710678118654757 0.70710678118654757 0.75 forward I I I I #
loop $-1 $-1 $122 $32 #
coedge $-1 $76 $76 $123 $124 reversed $48 $-1 #
face $-1 $125 $126 $26 $-1 $127 reversed single #
loop $-1 $-1 $128 $50 #
plane-surface $-1 -44.845118564409304 7.8794830849140851 3.3153188899397463 -0.71933980857756763 0 0.69465836192734942 0.69465836192734942 0 0.71933980857756763 forward_v I I I I #
coedge $-1 $129 $130 $131 $132 reversed $51 $-1 #
face $-1 $-1 $133 $27 $-1 $134 forward single #
loop $-1 $135 $136 $53 #
cone-surface $-1 -38.006569311301902 7.8794830849140851 2.3235071849969184 0.71933980857756763 0 -0.69465836192734942 0.52099377144551207 0 0.53950485643317569 1 I I -0.70710678118654757 0.70710678118654757 0.75 forward I I I I #
loop $-1 $-1 $137 $34 #
coedge $-1 $85 $85 $138 $139 reversed $54 $-1 #
face $-1 $140 $141 $21 $-1 $142 reversed single #
loop $-1 $-1 $143 $56 #
plane-surface $-1 0 -23.930900148620118 0 0 1 0 0 0 1 forward_v I I I I #
coedge $-1 $144 $145 $146 $147 forward $57 $-1 #
coedge $-1 $148 $59 $149 $150 forward $36 $-1 #
coedge $-1 $59 $148 $151 $152 forward $36 $-1 #
coedge $-1 $153 $154 $59 $93 reversed $155 $-1 #
edge $-1 $156 -23.930900148620118 $157 23.930900148620118 $92 $158 forward 7 unknown #
face $-1 $159 $160 $22 $-1 $161 reversed single #
loop $-1 $-1 $162 $60 #
plane-surface $-1 -44.845118564409312 0 0 1 0 0 0 0 -1 forward_v I I I I #
coedge $-1 $163 $164 $165 $166 reversed $61 $-1 #
coedge $-1 $167 $63 $168 $169 reversed $39 $-1 #
coedge $-1 $63 $167 $163 $170 forward $39 $-1 #
coedge $-1 $165 $171 $63 $101 forward $172 $-1 #
edge $-1 $173 -13.777445280349561 $174 -6.5294644561915547 $100 $175 forward 7 unknown #
face $-1 $176 $177 $23 $-1 $178 reversed single #
loop $-1 $-1 $179 $64 #
plane-surface $-1 0 0 9.1232768201711369 0 0 1 1 0 0 forward_v I I I I #
coedge $-1 $180 $181 $182 $183 reversed $65 $-1 #
coedge $-1 $184 $67 $180 $185 forward $42 $-1 #
coedge $-1 $67 $184 $186 $187 reversed $42 $-1 #
coedge $-1 $188 $189 $67 $109 forward $177 $-1 #
edge $-1 $190 6.5294644561915547 $191 13.777445280349561 $108 $192 forward 7 unknown #
face $-1 $193 $194 $24 $-1 $195 reversed single #
loop $-1 $-1 $196 $68 #
plane-surface $-1 -109.36287657193034 -5.0385870469246505 65.619392094720425 0 -1 0 0.71933980857756763 0 -0.69465836192734942 forward_v I I I I #
coedge $-1 $197 $198 $199 $200 reversed $69 $-1 #
coedge $-1 $115 $71 $201 $202 reversed $45 $-1 #
coedge $-1 $71 $114 $197 $203 reversed $45 $-1 #
coedge $-1 $199 $204 $71 $117 forward $205 $-1 #
edge $-1 $206 9.83631972155586 $207 15.444999366208741 $116 $208 forward 7 unknown #
loop $-1 $-1 $123 $72 #
plane-surface $-1 -44.845118564409304 -8.8034362395480255 3.3153188899397463 -0.71933980857756763 0 0.69465836192734942 0.69465836192734942 0 0.71933980857756763 forward_v I I I I #
loop $-1 $-1 $209 $47 #
coedge $-1 $121 $121 $122 $210 reversed $73 $-1 #
coedge $-1 $122 $122 $121 $210 forward $75 $-1 #
coedge $-1 $123 $123 $76 $124 forward $118 $-1 #
edge $-1 $211 0 $211 6.2831853071796004 $123 $212 forward 7 unknown #
face $-1 $213 $214 $26 $-1 $215 forward single #
loop $-1 $-1 $216 $77 #
plane-surface $-1 -109.36287657193034 11.64433227753746 65.619392094720425 0 -1 0 0.71933980857756763 0 -0.69465836192734942 forward_v I I I I #
coedge $-1 $217 $218 $219 $220 reversed $78 $-1 #
coedge $-1 $130 $80 $221 $222 reversed $51 $-1 #
coedge $-1 $80 $129 $217 $223 reversed $51 $-1 #
coedge $-1 $219 $224 $80 $132 forward $214 $-1 #
edge $-1 $225 9.83631972155586 $226 15.444999366208741 $131 $227 forward 7 unknown #
loop $-1 $-1 $138 $81 #
plane-surface $-1 -44.845118564409304 7.8794830849140851 3.3153188899397463 -0.71933980857756763 0 0.69465836192734942 0.69465836192734942 0 0.71933980857756763 forward_v I I I I #
loop $-1 $-1 $228 $53 #
coedge $-1 $136 $136 $137 $229 reversed $82 $-1 #
coedge $-1 $137 $137 $136 $229 forward $84 $-1 #
coedge $-1 $138 $138 $85 $139 forward $133 $-1 #
edge $-1 $230 0 $230 6.2831853071796004 $138 $231 forward 7 unknown #
face $-1 $232 $233 $21 $-1 $234 reversed single #
loop $-1 $-1 $235 $86 #
plane-surface $-1 -44.845118564409312 0 0 1 0 0 0 0 -1 forward_v I I I I #
coedge $-1 $236 $151 $237 $238 forward $87 $-1 #
coedge $-1 $239 $89 $236 $240 forward $57 $-1 #
coedge $-1 $89 $239 $241 $242 forward $57 $-1 #
coedge $-1 $154 $153 $89 $147 reversed $155 $-1 #
edge $-1 $243 -23.930900148620118 $244 23.930900148620118 $146 $245 forward 7 unknown #
coedge $-1 $91 $90 $246 $247 forward $36 $-1 #
coedge $-1 $248 $249 $90 $150 reversed $233 $-1 #
edge $-1 $157 -44.845118564409312 $250 44.845118564409312 $149 $251 forward 7 unknown #
coedge $-1 $143 $252 $91 $152 reversed $87 $-1 #
edge $-1 $253 -44.845118564409312 $156 44.845118564409312 $151 $254 forward 7 unknown #
coedge $-1 $146 $92 $252 $255 forward $155 $-1 #
coedge $-1 $92 $146 $248 $256 reversed $155 $-1 #
loop $-1 $-1 $153 $232 #
vertex $-1 $93 $257 #
vertex $-1 $93 $258 #
straight-curve $-1 44.845118564409312 0 9.1232768201711369 0 1 0 I I #
face $-1 $259 $260 $22 $-1 $261 forward single #
loop $-1 $-1 $168 $94 #
plane-surface $-1 0 -23.930900148620118 0 0 1 0 0 0 1 forward_v I I I I #
coedge $-1 $262 $263 $264 $265 forward $95 $-1 #
coedge $-1 $264 $97 $99 $170 reversed $61 $-1 #
coedge $-1 $97 $264 $266 $267 reversed $61 $-1 #
coedge $-1 $268 $100 $97 $166 forward $172 $-1 #
edge $-1 $174 1.6914689427283749 $269 5.5183615658712997 $165 $270 forward 7 unknown #
coedge $-1 $99 $98 $262 $271 reversed $39 $-1 #
coedge $-1 $272 $273 $98 $169 forward $160 $-1 #
edge $-1 $274 -44.845118564409312 $173 44.845118564409312 $168 $275 forward 7 unknown #
edge $-1 $276 -44.845118564409312 $174 44.845118564409312 $163 $277 forward 7 unknown #
coedge $-1 $100 $268 $272 $278 forward $172 $-1 #
loop $-1 $-1 $165 $259 #
vertex $-1 $169 $279 #
vertex $-1 $101 $280 #
straight-curve $-1 44.845118564409312 -10.153454868270558 5.2963841970282122 0 1 0 I I #
face $-1 $281 $282 $23 $-1 $283 reversed single #
loop $-1 $-1 $189 $102 #
plane-surface $-1 44.845118564409312 0 0 -1 0 0 0 0 1 forward_v I I I I #
coedge $-1 $284 $285 $181 $286 forward $103 $-1 #
coedge $-1 $287 $105 $106 $185 reversed $65 $-1 #
coedge $-1 $105 $287 $179 $286 reversed $65 $-1 #
coedge $-1 $288 $289 $105 $183 forward $282 $-1 #
edge $-1 $290 1.6914689427283749 $291 5.5183615658712997 $182 $292 forward 7 unknown #
coedge $-1 $107 $106 $289 $293 reversed $42 $-1 #
edge $-1 $190 -44.845118564409312 $290 44.845118564409312 $180 $294 forward 7 unknown #
coedge $-1 $295 $296 $107 $187 forward $297 $-1 #
edge $-1 $191 -44.845118564409312 $298 44.845118564409312 $186 $299 forward 7 unknown #
coedge $-1 $300 $108 $296 $301 reversed $177 $-1 #
coedge $-1 $108 $300 $287 $302 forward $177 $-1 #
vertex $-1 $109 $303 #
vertex $-1 $187 $304 #
straight-curve $-1 44.845118564409312 10.153454868270558 5.2963841970282122 0 1 0 I I #
face $-1 $-1 $205 $24 $-1 $305 forward single #
loop $-1 $-1 $306 $110 #
plane-surface $-1 -44.845118564409312 0 0 1 0 0 0 0 -1 forward_v I I I I #
coedge $-1 $307 $308 $309 $310 reversed $111 $-1 #
coedge $-1 $311 $113 $115 $203 forward $69 $-1 #
coedge $-1 $113 $311 $307 $312 forward $69 $-1 #
coedge $-1 $309 $116 $113 $200 forward $205 $-1 #
edge $-1 $207 -8.1665673123973868 $313 -0.63686892715063781 $199 $314 forward 7 unknown #
coedge $-1 $315 $316 $114 $202 forward $194 $-1 #
edge $-1 $317 -29.494377157420473 $206 -23.686419227189077 $201 $318 forward 7 unknown #
edge $-1 $207 -8.0740115602890477 $317 1.0366512331508311e-014 $115 $319 forward 7 unknown #
coedge $-1 $116 $309 $315 $320 forward $205 $-1 #
loop $-1 $-1 $309 $193 #
vertex $-1 $202 $321 #
vertex $-1 $117 $322 #
straight-curve $-1 -54.681438285965172 -12.5682854321714 9.1232768201711352 1 0 0 I I #
coedge $-1 $209 $209 $-1 $323 reversed $120 $-1 #
edge $-1 $324 0 $324 6.2831853071796004 $121 $325 forward 7 unknown #
vertex $-1 $124 $326 #
ellipse-curve $-1 -42.040778742082871 -8.8034362395480255 6.219297855055439 -0.71933980857756763 0 0.69465836192734942 1.0419875428910241 0 1.0790097128663514 1 I I #
face $-1 $-1 $327 $26 $-1 $328 reversed single #
loop $-1 $-1 $131 $125 #
plane-surface $-1 0 0 9.1232768201711369 0 0 1 1 0 0 forward_v I I I I #
coedge $-1 $329 $330 $331 $332 reversed $126 $-1 #
coedge $-1 $333 $128 $130 $223 forward $78 $-1 #
coedge $-1 $128 $333 $329 $334 forward $78 $-1 #
coedge $-1 $331 $131 $128 $220 forward $214 $-1 #
edge $-1 $226 0.17489234983366764 $335 7.7045907350804175 $219 $336 forward 7 unknown #
coedge $-1 $337 $338 $129 $222 forward $327 $-1 #
edge $-1 $339 -29.494377157420473 $225 -23.686419227189077 $221 $340 forward 7 unknown #
edge $-1 $226 -8.0740115602890477 $339 1.0366512331508311e-014 $130 $341 forward 7 unknown #
coedge $-1 $131 $331 $337 $342 forward $214 $-1 #
vertex $-1 $132 $343 #
vertex $-1 $132 $344 #
straight-curve $-1 -54.681438285965172 4.1146338922907102 9.1232768201711352 1 0 0 I I #
coedge $-1 $228 $228 $-1 $345 reversed $135 $-1 #
edge $-1 $346 0 $346 6.2831853071796004 $136 $347 forward 7 unknown #
vertex $-1 $139 $348 #
ellipse-curve $-1 -42.040778742082871 7.8794830849140851 6.219297855055439 -0.71933980857756763 0 0.69465836192734942 1.0419875428910241 0 1.0790097128663514 1 I I #
face $-1 $-1 $155 $21 $-1 $349 reversed single #
loop $-1 $-1 $248 $140 #
plane-surface $-1 0 23.930900148620118 0 0 -1 0 0 0 -1 forward_v I I I I #
coedge $-1 $350 $246 $249 $351 forward $141 $-1 #
coedge $-1 $252 $143 $144 $240 reversed $87 $-1 #
coedge $-1 $246 $350 $143 $238 reversed $141 $-1 #
edge $-1 $253 -9.1232768201711369 $352 9.1232768201711369 $237 $353 forward 7 unknown #
coedge $-1 $145 $144 $350 $354 forward $57 $-1 #
edge $-1 $244 -44.845118564409312 $352 44.845118564409312 $236 $355 forward 7 unknown #
coedge $-1 $249 $248 $145 $242 reversed $233 $-1 #
edge $-1 $356 -44.845118564409312 $243 44.845118564409312 $241 $357 forward 7 unknown #
vertex $-1 $147 $358 #
vertex $-1 $255 $359 #
straight-curve $-1 44.845118564409312 0 -9.1232768201711369 0 -1 0 I I #
coedge $-1 $235 $237 $148 $247 reversed $141 $-1 #
edge $-1 $250 -23.930900148620118 $253 23.930900148620118 $246 $360 forward 7 unknown #
coedge $-1 $241 $149 $154 $256 forward $233 $-1 #
coedge $-1 $149 $241 $235 $351 reversed $233 $-1 #
vertex $-1 $150 $361 #
straight-curve $-1 0 23.930900148620118 9.1232768201711369 -1 0 0 I I #
coedge $-1 $151 $236 $153 $255 reversed $87 $-1 #
vertex $-1 $247 $362 #
straight-curve $-1 0 -23.930900148620118 9.1232768201711369 1 0 0 I I #
edge $-1 $156 -9.1232768201711369 $244 9.1232768201711369 $153 $363 forward 7 unknown #
edge $-1 $157 -9.1232768201711369 $243 9.1232768201711369 $154 $364 forward 7 unknown #
point $-1 44.845118564409312 -23.930900148620118 9.1232768201711369 #
point $-1 44.845118564409312 23.930900148620118 9.1232768201711369 #
face $-1 $-1 $172 $22 $-1 $365 reversed single #
loop $-1 $-1 $266 $159 #
plane-surface $-1 0 0 9.1232768201711369 0 0 1 1 0 0 forward_v I I I I #
coedge $-1 $366 $162 $167 $271 forward $95 $-1 #
coedge $-1 $162 $366 $367 $368 reversed $95 $-1 #
coedge $-1 $164 $163 $162 $265 reversed $61 $-1 #
edge $-1 $369 -5.5183615658712997 $276 -1.6914689427283749 $162 $370 forward 7 unknown #
coedge $-1 $367 $371 $164 $267 forward $260 $-1 #
edge $-1 $269 -44.845118564409312 $369 44.845118564409312 $266 $372 forward 7 unknown #
coedge $-1 $171 $165 $371 $373 reversed $172 $-1 #
vertex $-1 $166 $374 #
straight-curve $-1 44.845118564409312 -16.682919324462112 3.6049152542998373 0 0 1 I I #
edge $-1 $276 6.5294644561915547 $274 13.777445280349561 $262 $375 forward 7 unknown #
coedge $-1 $376 $168 $171 $278 reversed $160 $-1 #
coedge $-1 $168 $376 $366 $377 forward $160 $-1 #
vertex $-1 $169 $378 #
straight-curve $-1 0 -23.930900148620118 5.2963841970282122 1 0 0 I I #
vertex $-1 $271 $379 #
straight-curve $-1 0 -16.682919324462112 5.2963841970282122 1 0 0 I I #
edge $-1 $380 -9.1232768201711369 $173 -5.2963841970282122 $171 $381 forward 7 unknown #
point $-1 44.845118564409312 -23.930900148620118 5.2963841970282122 #
point $-1 44.845118564409312 -16.682919324462112 5.2963841970282122 #
face $-1 $-1 $297 $23 $-1 $382 reversed single #
loop $-1 $-1 $182 $176 #
plane-surface $-1 -44.845118564409312 0 0 1 0 0 0 0 -1 forward_v I I I I #
coedge $-1 $383 $179 $300 $384 forward $103 $-1 #
coedge $-1 $179 $383 $288 $385 forward $103 $-1 #
edge $-1 $291 -44.845118564409312 $386 44.845118564409312 $179 $387 forward 7 unknown #
coedge $-1 $181 $180 $189 $302 reversed $65 $-1 #
coedge $-1 $388 $182 $285 $385 reversed $282 $-1 #
coedge $-1 $182 $388 $184 $293 forward $282 $-1 #
vertex $-1 $293 $389 #
vertex $-1 $183 $390 #
straight-curve $-1 -44.845118564409312 16.682919324462112 3.6049152542998373 0 0 1 I I #
edge $-1 $298 -13.777445280349561 $290 -6.5294644561915547 $289 $391 forward 7 unknown #
straight-curve $-1 0 16.682919324462112 5.2963841970282122 -1 0 0 I I #
coedge $-1 $392 $186 $388 $393 reversed $297 $-1 #
coedge $-1 $186 $392 $188 $301 forward $297 $-1 #
loop $-1 $-1 $186 $281 #
vertex $-1 $187 $394 #
straight-curve $-1 0 23.930900148620118 5.2963841970282122 -1 0 0 I I #
coedge $-1 $189 $188 $284 $384 reversed $177 $-1 #
edge $-1 $395 -9.1232768201711369 $191 -5.2963841970282122 $188 $396 forward 7 unknown #
edge $-1 $386 -5.5183615658712997 $190 -1.6914689427283749 $189 $397 forward 7 unknown #
point $-1 44.845118564409312 16.682919324462112 5.2963841970282122 #
point $-1 44.845118564409312 23.930900148620118 5.2963841970282122 #
plane-surface $-1 0 0 9.1232768201711369 0 0 1 1 0 0 forward_v I I I I #
coedge $-1 $316 $315 $308 $398 forward $194 $-1 #
coedge $-1 $308 $196 $198 $312 reversed $111 $-1 #
coedge $-1 $196 $307 $306 $398 reversed $111 $-1 #
coedge $-1 $204 $199 $196 $310 forward $205 $-1 #
edge $-1 $313 -15.444999366208741 $399 -9.83631972155586 $309 $400 forward 7 unknown #
coedge $-1 $198 $197 $316 $401 reversed $69 $-1 #
edge $-1 $402 -1.0366512331508311e-014 $313 8.0740115602890477 $307 $403 forward 7 unknown #
vertex $-1 $200 $404 #
straight-curve $-1 -39.236438919756431 -4.4017181197740127 9.1232768201711387 0 1 0 I I #
coedge $-1 $306 $201 $204 $320 reversed $194 $-1 #
coedge $-1 $201 $306 $311 $401 forward $194 $-1 #
vertex $-1 $202 $405 #
straight-curve $-1 -44.845118564409312 -12.5682854321714 32.809696047360212 0 0 1 I I #
straight-curve $-1 -44.845118564409304 -12.5682854321714 3.3153188899397463 -0.69465836192734942 0 -0.71933980857756763 I I #
edge $-1 $399 5.0385870469246505 $206 12.5682854321714 $315 $406 forward 7 unknown #
point $-1 -44.845118564409312 -12.5682854321714 9.1232768201711369 #
point $-1 -39.236438919756431 -12.5682854321714 9.1232768201711369 #
edge $-1 $407 1 $407 0 $209 $-1 forward 7 unknown #
vertex $-1 $210 $408 #
ellipse-curve $-1 -38.546074167735078 -8.8034362395480255 2.8445009564424306 -0.71933980857756763 0 0.69465836192734942 1.0419875428910241 0 1.0790097128663514 1 I I #
point $-1 -40.998791199191857 -8.8034362395480255 7.2983075679218015 #
loop $-1 $-1 $221 $213 #
plane-surface $-1 -44.845118564409312 0 0 1 0 0 0 0 -1 forward_v I I I I #
coedge $-1 $330 $216 $218 $334 reversed $126 $-1 #
coedge $-1 $216 $329 $409 $410 reversed $126 $-1 #
coedge $-1 $224 $219 $216 $332 forward $214 $-1 #
edge $-1 $335 -15.444999366208741 $411 -9.83631972155586 $331 $412 forward 7 unknown #
coedge $-1 $218 $217 $338 $413 reversed $78 $-1 #
edge $-1 $414 -1.0366512331508311e-014 $335 8.0740115602890477 $329 $415 forward 7 unknown #
vertex $-1 $220 $416 #
straight-curve $-1 -39.236438919756431 3.9397415424570426 9.1232768201711387 0 1 0 I I #
coedge $-1 $409 $221 $224 $342 reversed $327 $-1 #
coedge $-1 $221 $409 $333 $413 forward $327 $-1 #
vertex $-1 $222 $417 #
straight-curve $-1 -44.845118564409312 4.1146338922907102 32.809696047360212 0 0 1 I I #
straight-curve $-1 -44.845118564409304 4.1146338922907102 3.3153188899397463 -0.69465836192734942 0 -0.71933980857756763 I I #
edge $-1 $411 -11.64433227753746 $225 -4.1146338922907102 $337 $418 forward 7 unknown #
point $-1 -44.845118564409312 4.1146338922907102 9.1232768201711369 #
point $-1 -39.236438919756431 4.1146338922907102 9.1232768201711369 #
edge $-1 $419 1 $419 0 $228 $-1 forward 7 unknown #
vertex $-1 $229 $420 #
ellipse-curve $-1 -38.546074167735078 7.8794830849140851 2.8445009564424306 -0.71933980857756763 0 0.69465836192734942 1.0419875428910241 0 1.0790097128663514 1 I I #
point $-1 -40.998791199191857 7.8794830849140851 7.2983075679218015 #
plane-surface $-1 44.845118564409312 0 0 -1 0 0 0 0 1 forward_v I I I I #
coedge $-1 $237 $235 $239 $354 reversed $141 $-1 #
edge $-1 $250 -9.1232768201711369 $356 9.1232768201711369 $249 $421 forward 7 unknown #
vertex $-1 $354 $422 #
straight-curve $-1 -44.845118564409312 -23.930900148620118 0 0 0 -1 I I #
edge $-1 $352 -23.930900148620118 $356 23.930900148620118 $350 $423 forward 7 unknown #
straight-curve $-1 0 -23.930900148620118 -9.1232768201711369 -1 0 0 I I #
vertex $-1 $242 $424 #
straight-curve $-1 0 23.930900148620118 -9.1232768201711369 1 0 0 I I #
point $-1 44.845118564409312 23.930900148620118 -9.1232768201711369 #
point $-1 44.845118564409312 -23.930900148620118 -9.1232768201711369 #
straight-curve $-1 -44.845118564409312 0 9.1232768201711369 0 -1 0 I I #
point $-1 -44.845118564409312 23.930900148620118 9.1232768201711369 #
point $-1 -44.845118564409312 -23.930900148620118 9.1232768201711369 #
straight-curve $-1 44.845118564409312 -23.930900148620118 0 0 0 -1 I I #
straight-curve $-1 44.845118564409312 23.930900148620118 0 0 0 -1 I I #
plane-surface $-1 44.845118564409312 0 0 -1 0 0 0 0 1 forward_v I I I I #
coedge $-1 $263 $262 $273 $377 reversed $95 $-1 #
coedge $-1 $425 $266 $263 $368 forward $260 $-1 #
edge $-1 $369 16.682919324462112 $426 23.930900148620118 $263 $427 forward 7 unknown #
vertex $-1 $368 $428 #
straight-curve $-1 -44.845118564409312 -16.682919324462112 3.6049152542998373 0 0 -1 I I #
coedge $-1 $266 $425 $268 $373 forward $260 $-1 #
straight-curve $-1 0 -16.682919324462112 9.1232768201711369 -1 0 0 I I #
edge $-1 $380 -23.930900148620118 $269 -16.682919324462112 $268 $429 forward 7 unknown #
point $-1 44.845118564409312 -16.682919324462112 9.1232768201711369 #
straight-curve $-1 -44.845118564409312 -10.153454868270558 5.2963841970282122 0 -1 0 I I #
coedge $-1 $273 $272 $425 $430 reversed $160 $-1 #
edge $-1 $426 -9.1232768201711369 $274 -5.2963841970282122 $366 $431 forward 7 unknown #
point $-1 -44.845118564409312 -23.930900148620118 5.2963841970282122 #
point $-1 -44.845118564409312 -16.682919324462112 5.2963841970282122 #
vertex $-1 $373 $432 #
straight-curve $-1 44.845118564409312 -23.930900148620118 0 0 0 -1 I I #
plane-surface $-1 0 23.930900148620118 0 0 -1 0 0 0 -1 forward_v I I I I #
coedge $-1 $285 $284 $392 $433 forward $103 $-1 #
edge $-1 $386 16.682919324462112 $395 23.930900148620118 $300 $434 forward 7 unknown #
edge $-1 $435 -23.930900148620118 $291 -16.682919324462112 $288 $436 forward 7 unknown #
vertex $-1 $384 $437 #
straight-curve $-1 0 16.682919324462112 9.1232768201711369 1 0 0 I I #
coedge $-1 $289 $288 $295 $393 forward $282 $-1 #
point $-1 -44.845118564409312 16.682919324462112 5.2963841970282122 #
point $-1 -44.845118564409312 16.682919324462112 9.1232768201711369 #
straight-curve $-1 -44.845118564409312 10.153454868270558 5.2963841970282122 0 -1 0 I I #
coedge $-1 $296 $295 $383 $433 reversed $297 $-1 #
edge $-1 $435 -9.1232768201711369 $298 -5.2963841970282122 $295 $438 forward 7 unknown #
point $-1 -44.845118564409312 23.930900148620118 5.2963841970282122 #
vertex $-1 $384 $439 #
straight-curve $-1 44.845118564409312 23.930900148620118 0 0 0 -1 I I #
straight-curve $-1 44.845118564409312 16.682919324462112 3.6049152542998373 0 0 -1 I I #
edge $-1 $399 23.686419227189077 $402 29.494377157420473 $306 $440 forward 7 unknown #
vertex $-1 $320 $441 #
straight-curve $-1 -54.681438285965172 -5.0385870469246505 9.1232768201711352 -1 0 0 I I #
edge $-1 $402 0.63686892715063781 $317 8.1665673123973868 $316 $442 forward 7 unknown #
vertex $-1 $401 $443 #
straight-curve $-1 -44.845118564409304 -5.0385870469246505 3.3153188899397463 0.69465836192734942 0 0.71933980857756763 I I #
point $-1 -39.236438919756431 -5.0385870469246505 9.1232768201711369 #
point $-1 -44.845118564409312 -12.5682854321714 3.3153188899397388 #
straight-curve $-1 -44.845118564409312 0 9.1232768201711369 0 -1 0 I I #
vertex $-1 $323 $444 #
point $-1 -37.504086624844057 -8.8034362395480255 3.923510669308782 #
coedge $-1 $338 $337 $330 $410 forward $327 $-1 #
edge $-1 $411 23.686419227189077 $414 29.494377157420473 $409 $445 forward 7 unknown #
vertex $-1 $342 $446 #
straight-curve $-1 -54.681438285965172 11.64433227753746 9.1232768201711352 -1 0 0 I I #
edge $-1 $414 -7.7045907350804175 $339 -0.17489234983366764 $338 $447 forward 7 unknown #
vertex $-1 $413 $448 #
straight-curve $-1 -44.845118564409304 11.64433227753746 3.3153188899397463 0.69465836192734942 0 0.71933980857756763 I I #
point $-1 -39.236438919756431 11.64433227753746 9.1232768201711369 #
point $-1 -44.845118564409312 4.1146338922907102 3.3153188899397388 #
straight-curve $-1 -44.845118564409312 0 9.1232768201711369 0 -1 0 I I #
vertex $-1 $345 $449 #
point $-1 -37.504086624844057 7.8794830849140851 3.923510669308782 #
straight-curve $-1 -44.845118564409312 23.930900148620118 0 0 0 -1 I I #
point $-1 -44.845118564409312 -23.930900148620118 -9.1232768201711369 #
straight-curve $-1 -44.845118564409312 0 -9.1232768201711369 0 1 0 I I #
point $-1 -44.845118564409312 23.930900148620118 -9.1232768201711369 #
coedge $-1 $371 $367 $376 $430 forward $260 $-1 #
vertex $-1 $368 $450 #
straight-curve $-1 -44.845118564409312 0 9.1232768201711369 0 -1 0 I I #
point $-1 -44.845118564409312 -16.682919324462112 9.1232768201711369 #
straight-curve $-1 44.845118564409312 0 9.1232768201711369 0 1 0 I I #
edge $-1 $426 -44.845118564409312 $380 44.845118564409312 $376 $451 forward 7 unknown #
straight-curve $-1 -44.845118564409312 -23.930900148620118 0 0 0 -1 I I #
point $-1 44.845118564409312 -23.930900148620118 9.1232768201711369 #
edge $-1 $395 -44.845118564409312 $435 44.845118564409312 $392 $452 forward 7 unknown #
straight-curve $-1 44.845118564409312 0 9.1232768201711369 0 1 0 I I #
vertex $-1 $433 $453 #
straight-curve $-1 -44.845118564409312 0 9.1232768201711369 0 -1 0 I I #
point $-1 44.845118564409312 16.682919324462112 9.1232768201711369 #
straight-curve $-1 -44.845118564409312 23.930900148620118 0 0 0 -1 I I #
point $-1 44.845118564409312 23.930900148620118 9.1232768201711369 #
straight-curve $-1 -44.845118564409312 -5.0385870469246505 32.809696047360212 0 0 -1 I I #
point $-1 -44.845118564409312 -5.0385870469246505 9.1232768201711369 #
straight-curve $-1 -44.845118564409312 -4.4017181197740127 3.3153188899397383 0 -1 0 I I #
point $-1 -44.845118564409312 -5.0385870469246505 3.3153188899397388 #
point $-1 -37.467064454868726 -8.8034362395480255 1.8025134135514063 #
straight-curve $-1 -44.845118564409312 11.64433227753746 32.809696047360212 0 0 -1 I I #
point $-1 -44.845118564409312 11.64433227753746 9.1232768201711369 #
straight-curve $-1 -44.845118564409312 3.9397415424570426 3.3153188899397383 0 -1 0 I I #
point $-1 -44.845118564409312 11.64433227753746 3.3153188899397388 #
point $-1 -37.467064454868726 7.8794830849140851 1.8025134135514063 #
point $-1 -44.845118564409312 -23.930900148620118 9.1232768201711369 #
straight-curve $-1 0 -23.930900148620118 9.1232768201711369 1 0 0 I I #
straight-curve $-1 0 23.930900148620118 9.1232768201711369 -1 0 0 I I #
point $-1 -44.845118564409312 23.930900148620118 9.1232768201711369 #
End-of-ACIS-data 