500 0 14 0           
7 Unknown 11 ACIS 5.0 NT 24 Thu Mar 25 21:24:25 1999 
-1 9.9999999999999995e-007 1e-010 
body $-1 $14 $-1 $15 #
body $-1 $16 $-1 $17 #
body $-1 $18 $-1 $19 #
body $-1 $20 $-1 $21 #
body $-1 $22 $-1 $23 #
body $-1 $24 $-1 $25 #
body $-1 $26 $-1 $27 #
body $-1 $28 $-1 $29 #
body $-1 $30 $-1 $31 #
body $-1 $32 $-1 $33 #
body $-1 $34 $-1 $35 #
body $-1 $36 $-1 $37 #
body $-1 $38 $-1 $39 #
body $-1 $40 $-1 $41 #
lump $-1 $-1 $42 $0 #
transform $-1 1 0 0 0 1 0 0 0 1 69.318521683400988 39.118095893798774 10.198855349001219 1 rotate no_reflect no_shear #
lump $-1 $-1 $43 $1 #
transform $-1 1 0 0 0 1 0 0 0 1 69.318521683400988 39.118095893798774 10.198855349001219 1 rotate no_reflect no_shear #
lump $-1 $-1 $44 $2 #
transform $-1 1 0 0 0 1 0 0 0 1 69.318521683400988 39.118095893798774 10.198855349001219 1 rotate no_reflect no_shear #
lump $-1 $-1 $45 $3 #
transform $-1 1 0 0 0 1 0 0 0 1 69.318521683400988 39.118095893798774 10.198855349001219 1 rotate no_reflect no_shear #
lump $-1 $-1 $46 $4 #
transform $-1 1 0 0 0 1 0 0 0 1 69.318521683400988 39.118095893798774 10.198855349001219 1 rotate no_reflect no_shear #
lump $-1 $-1 $47 $5 #
transform $-1 1 0 0 0 1 0 0 0 1 69.318521683400988 39.118095893798774 10.198855349001219 1 rotate no_reflect no_shear #
lump $-1 $-1 $48 $6 #
transform $-1 1 0 0 0 1 0 0 0 1 69.318521683400988 39.118095893798774 10.198855349001219 1 rotate no_reflect no_shear #
lump $-1 $-1 $49 $7 #
transform $-1 1 0 0 0 1 0 0 0 1 69.318521683400988 39.118095893798774 10.198855349001219 1 rotate no_reflect no_shear #
lump $-1 $-1 $50 $8 #
transform $-1 1 0 0 0 1 0 0 0 1 69.318521683400988 39.118095893798774 10.198855349001219 1 rotate no_reflect no_shear #
lump $-1 $-1 $51 $9 #
transform $-1 1 0 0 0 1 0 0 0 1 69.318521683400988 39.118095893798774 10.198855349001219 1 rotate no_reflect no_shear #
lump $-1 $-1 $52 $10 #
transform $-1 1 0 0 0 1 0 0 0 1 69.318521683400988 39.118095893798774 10.198855349001219 1 rotate no_reflect no_shear #
lump $-1 $-1 $53 $11 #
transform $-1 1 0 0 0 1 0 0 0 1 69.318521683400988 39.118095893798774 10.198855349001219 1 rotate no_reflect no_shear #
lump $-1 $-1 $54 $12 #
transform $-1 1 0 0 0 1 0 0 0 1 69.318521683400988 39.118095893798774 10.198855349001219 1 rotate no_reflect no_shear #
lump $-1 $-1 $55 $13 #
transform $-1 1 0 0 0 1 0 0 0 1 69.318521683400988 39.118095893798774 10.198855349001219 1 rotate no_reflect no_shear #
shell $-1 $-1 $-1 $56 $-1 $14 #
shell $-1 $-1 $-1 $57 $-1 $16 #
shell $-1 $-1 $-1 $58 $-1 $18 #
shell $-1 $-1 $-1 $59 $-1 $20 #
shell $-1 $-1 $-1 $60 $-1 $22 #
shell $-1 $-1 $-1 $61 $-1 $24 #
shell $-1 $-1 $-1 $62 $-1 $26 #
shell $-1 $-1 $-1 $63 $-1 $28 #
shell $-1 $-1 $-1 $64 $-1 $30 #
shell $-1 $-1 $-1 $65 $-1 $32 #
shell $-1 $-1 $-1 $66 $-1 $34 #
shell $-1 $-1 $-1 $67 $-1 $36 #
shell $-1 $-1 $-1 $68 $-1 $38 #
shell $-1 $-1 $-1 $69 $-1 $40 #
face $-1 $70 $71 $42 $-1 $72 forward single #
face $-1 $73 $74 $43 $-1 $75 reversed single #
face $-1 $76 $77 $44 $-1 $78 reversed single #
face $-1 $79 $80 $45 $-1 $81 forward single #
face $-1 $82 $83 $46 $-1 $84 forward single #
face $-1 $85 $86 $47 $-1 $87 forward single #
face $-1 $88 $89 $48 $-1 $90 reversed single #
face $-1 $91 $92 $49 $-1 $93 forward single #
face $-1 $94 $95 $50 $-1 $96 reversed single #
face $-1 $97 $98 $51 $-1 $99 forward single #
face $-1 $100 $101 $52 $-1 $102 reversed single #
face $-1 $103 $104 $53 $-1 $105 forward single #
face $-1 $106 $107 $54 $-1 $108 reversed single #
face $-1 $109 $110 $55 $-1 $111 forward single #
face $-1 $112 $113 $42 $-1 $114 reversed single #
loop $-1 $-1 $115 $56 #
plane-surface $-1 0 0 10.198855349001219 0 0 1 1 0 0 forward_v I I I I #
face $-1 $116 $117 $43 $-1 $118 reversed single #
loop $-1 $-1 $119 $57 #
plane-surface $-1 -66.470330953639177 -29.415136425382766 0 0 -1 0 0 0 -1 forward_v I I I I #
face $-1 $120 $121 $44 $-1 $122 reversed single #
loop $-1 $-1 $123 $58 #
plane-surface $-1 -156.56564111238674 0.0015911199031464207 109.78023773237815 0 1 0 -0.62932039886446345 0 0.77714595512881146 forward_v I I I I #
face $-1 $124 $125 $45 $-1 $126 forward single #
loop $-1 $127 $128 $59 #
cone-surface $-1 -63.965583006072109 2.2792277461106849 5.7303648213613938 0.62932039886446345 0 -0.77714595512881146 0.19428648878220287 0 0.15733009971611586 1 I I 0 1 0.25 forward I I I I #
face $-1 $129 $130 $46 $-1 $131 forward single #
loop $-1 $132 $133 $60 #
cone-surface $-1 -63.965583006072109 5.6956826854219855 5.7303648213613938 0.62932039886446345 0 -0.77714595512881146 0.19428648878220287 0 0.15733009971611586 1 I I 0 1 0.25 forward I I I I #
face $-1 $134 $135 $47 $-1 $136 forward single #
loop $-1 $137 $138 $61 #
cone-surface $-1 -63.965583006072109 9.1121376247332861 5.7303648213613938 0.62932039886446345 0 -0.77714595512881146 0.19428648878220287 0 0.15733009971611586 1 I I 0 1 0.25 forward I I I I #
face $-1 $139 $140 $48 $-1 $141 reversed single #
loop $-1 $-1 $142 $62 #
plane-surface $-1 38.647608859653559 -15.879054307910302 193.7036782128977 0 -1 0 -0.5877852598018023 0 -0.80901698891910034 forward_v I I I I #
face $-1 $143 $144 $49 $-1 $145 forward single #
loop $-1 $146 $147 $63 #
cone-surface $-1 61.234952722153047 -19.845017475842429 3.6091825178642849 -0.5877852598018023 0 -0.80901698891910034 0.80901698891910034 0 -0.5877852598018023 1 I I 0 1 1 forward I I I I #
face $-1 $148 $149 $50 $-1 $150 reversed single #
loop $-1 $-1 $151 $64 #
plane-surface $-1 38.647608859653559 1.2542537718850797 193.7036782128977 0 -1 0 -0.5877852598018023 0 -0.80901698891910034 forward_v I I I I #
face $-1 $152 $153 $51 $-1 $154 forward single #
loop $-1 $155 $156 $65 #
cone-surface $-1 61.234952722153047 -2.7117093960470484 3.6091825178642849 -0.5877852598018023 0 -0.80901698891910034 0.80901698891910034 0 -0.5877852598018023 1 I I 0 1 1 forward I I I I #
face $-1 $157 $158 $52 $-1 $159 reversed single #
loop $-1 $-1 $160 $66 #
plane-surface $-1 38.647608859653559 18.387561851680463 193.7036782128977 0 -1 0 -0.5877852598018023 0 -0.80901698891910034 forward_v I I I I #
face $-1 $161 $162 $53 $-1 $163 forward single #
loop $-1 $164 $165 $67 #
cone-surface $-1 61.234952722153047 14.421598683748336 3.6091825178642849 -0.5877852598018023 0 -0.80901698891910034 0.80901698891910034 0 -0.5877852598018023 1 I I 0 1 1 forward I I I I #
face $-1 $166 $167 $54 $-1 $168 reversed single #
loop $-1 $-1 $169 $68 #
plane-surface $-1 38.647608859653559 35.52086993147585 193.7036782128977 0 -1 0 -0.5877852598018023 0 -0.80901698891910034 forward_v I I I I #
face $-1 $170 $171 $55 $-1 $172 forward single #
loop $-1 $173 $174 $69 #
cone-surface $-1 61.234952722153047 31.55490676354372 3.6091825178642849 -0.5877852598018023 0 -0.80901698891910034 0.80901698891910034 0 -0.5877852598018023 1 I I 0 1 1 forward I I I I #
face $-1 $175 $176 $42 $-1 $177 reversed single #
loop $-1 $-1 $178 $70 #
plane-surface $-1 0 0 -10.198855349001219 0 0 1 1 0 0 forward_v I I I I #
coedge $-1 $179 $180 $181 $182 forward $71 $-1 #
face $-1 $183 $184 $43 $-1 $185 forward single #
loop $-1 $-1 $186 $73 #
plane-surface $-1 -63.622140223877359 -34.266616159590768 0 -1 0 0 0 0 1 forward_v I I I I #
coedge $-1 $187 $188 $189 $190 forward $74 $-1 #
face $-1 $191 $192 $44 $-1 $193 reversed single #
loop $-1 $-1 $194 $76 #
plane-surface $-1 -69.318521683401002 5.6956826854219855 2.0390202488503775 -0.62932039886446345 0 0.77714595512881146 0.77714595512881146 0 0.62932039886446345 forward_v I I I I #
coedge $-1 $195 $196 $197 $198 reversed $77 $-1 #
face $-1 $-1 $199 $45 $-1 $200 forward single #
loop $-1 $201 $202 $79 #
cone-surface $-1 -63.572257756781816 2.2792277461106849 5.2446485994058865 0.62932039886446345 0 -0.77714595512881146 0.097143244391101433 0 0.078665049858057931 1 I I -0.70710678118654746 0.70710678118654746 0.125 forward I I I I #
loop $-1 $-1 $203 $59 #
coedge $-1 $128 $128 $204 $205 reversed $80 $-1 #
face $-1 $-1 $206 $46 $-1 $207 forward single #
loop $-1 $208 $209 $82 #
cone-surface $-1 -63.572257756781816 5.6956826854219855 5.2446485994058865 0.62932039886446345 0 -0.77714595512881146 0.097143244391101433 0 0.078665049858057931 1 I I -0.70710678118654746 0.70710678118654746 0.125 forward I I I I #
loop $-1 $-1 $210 $60 #
coedge $-1 $133 $133 $211 $212 reversed $83 $-1 #
face $-1 $-1 $213 $47 $-1 $214 forward single #
loop $-1 $215 $216 $85 #
cone-surface $-1 -63.572257756781816 9.1121376247332861 5.2446485994058865 0.62932039886446345 0 -0.77714595512881146 0.097143244391101433 0 0.078665049858057931 1 I I -0.70710678118654746 0.70710678118654746 0.125 forward I I I I #
loop $-1 $-1 $217 $61 #
coedge $-1 $138 $138 $218 $219 reversed $86 $-1 #
face $-1 $220 $221 $48 $-1 $222 reversed single #
loop $-1 $-1 $223 $88 #
plane-surface $-1 -42.841201693855865 -19.845017475842429 81.543954835640832 0.5877852598018023 0 0.80901698891910034 0.80901698891910034 0 -0.5877852598018023 forward_v I I I I #
coedge $-1 $224 $225 $226 $227 reversed $89 $-1 #
face $-1 $-1 $228 $49 $-1 $229 forward single #
loop $-1 $230 $231 $91 #
cone-surface $-1 59.838301254204239 -19.845017475842429 1.6868567257027269 -0.5877852598018023 0 -0.80901698891910034 0.40450849445955017 0 -0.29389262990090115 1 I I -0.70710678118654746 0.70710678118654746 0.5 forward I I I I #
loop $-1 $-1 $232 $63 #
coedge $-1 $147 $147 $233 $234 reversed $92 $-1 #
face $-1 $235 $236 $50 $-1 $237 reversed single #
loop $-1 $-1 $238 $94 #
plane-surface $-1 -42.841201693855865 -2.7117093960470484 81.543954835640832 0.5877852598018023 0 0.80901698891910034 0.80901698891910034 0 -0.5877852598018023 forward_v I I I I #
coedge $-1 $239 $240 $241 $242 reversed $95 $-1 #
face $-1 $-1 $243 $51 $-1 $244 forward single #
loop $-1 $245 $246 $97 #
cone-surface $-1 59.838301254204239 -2.7117093960470484 1.6868567257027269 -0.5877852598018023 0 -0.80901698891910034 0.40450849445955017 0 -0.29389262990090115 1 I I -0.70710678118654746 0.70710678118654746 0.5 forward I I I I #
loop $-1 $-1 $247 $65 #
coedge $-1 $156 $156 $248 $249 reversed $98 $-1 #
face $-1 $250 $251 $52 $-1 $252 reversed single #
loop $-1 $-1 $253 $100 #
plane-surface $-1 -42.841201693855865 14.421598683748336 81.543954835640832 0.5877852598018023 0 0.80901698891910034 0.80901698891910034 0 -0.5877852598018023 forward_v I I I I #
coedge $-1 $254 $255 $256 $257 reversed $101 $-1 #
face $-1 $-1 $258 $53 $-1 $259 forward single #
loop $-1 $260 $261 $103 #
cone-surface $-1 59.838301254204239 14.421598683748336 1.6868567257027269 -0.5877852598018023 0 -0.80901698891910034 0.40450849445955017 0 -0.29389262990090115 1 I I -0.70710678118654746 0.70710678118654746 0.5 forward I I I I #
loop $-1 $-1 $262 $67 #
coedge $-1 $165 $165 $263 $264 reversed $104 $-1 #
face $-1 $265 $266 $54 $-1 $267 reversed single #
loop $-1 $-1 $268 $106 #
plane-surface $-1 -42.841201693855865 31.55490676354372 81.543954835640832 0.5877852598018023 0 0.80901698891910034 0.80901698891910034 0 -0.5877852598018023 forward_v I I I I #
coedge $-1 $269 $270 $271 $272 reversed $107 $-1 #
face $-1 $-1 $273 $55 $-1 $274 forward single #
loop $-1 $275 $276 $109 #
cone-surface $-1 59.838301254204239 31.55490676354372 1.6868567257027269 -0.5877852598018023 0 -0.80901698891910034 0.40450849445955017 0 -0.29389262990090115 1 I I -0.70710678118654746 0.70710678118654746 0.5 forward I I I I #
loop $-1 $-1 $277 $69 #
coedge $-1 $174 $174 $278 $279 reversed $110 $-1 #
face $-1 $280 $281 $42 $-1 $282 reversed single #
loop $-1 $-1 $283 $112 #
plane-surface $-1 0 -39.118095893798774 0 0 1 0 0 0 1 forward_v I I I I #
coedge $-1 $284 $285 $286 $287 forward $113 $-1 #
coedge $-1 $288 $115 $289 $290 forward $71 $-1 #
coedge $-1 $115 $288 $291 $292 forward $71 $-1 #
coedge $-1 $293 $294 $115 $182 reversed $295 $-1 #
edge $-1 $296 -39.118095893798774 $297 39.118095893798774 $181 $298 forward 7 unknown #
face $-1 $299 $300 $43 $-1 $301 reversed single #
loop $-1 $-1 $302 $116 #
plane-surface $-1 0 0 10.198855349001219 0 0 1 1 0 0 forward_v I I I I #
coedge $-1 $303 $304 $305 $306 reversed $117 $-1 #
coedge $-1 $307 $119 $308 $309 reversed $74 $-1 #
coedge $-1 $119 $307 $310 $311 reversed $74 $-1 #
coedge $-1 $304 $303 $119 $190 reversed $117 $-1 #
edge $-1 $312 -10.198855349001219 $313 10.198855349001219 $189 $314 forward 7 unknown #
face $-1 $315 $316 $44 $-1 $317 reversed single #
loop $-1 $-1 $318 $120 #
plane-surface $-1 -156.56564111238674 11.389774250940825 109.78023773237815 0 -1 0 0.62932039886446345 0 -0.77714595512881146 forward_v I I I I #
coedge $-1 $319 $320 $321 $322 reversed $121 $-1 #
coedge $-1 $196 $123 $323 $324 reversed $77 $-1 #
coedge $-1 $123 $195 $319 $325 reversed $77 $-1 #
coedge $-1 $321 $326 $123 $198 forward $327 $-1 #
edge $-1 $328 8.9642988727923836 $329 19.040855828585677 $197 $330 forward 7 unknown #
loop $-1 $-1 $204 $124 #
plane-surface $-1 -69.318521683401002 5.6956826854219855 2.0390202488503775 -0.62932039886446345 0 0.77714595512881146 0.77714595512881146 0 0.62932039886446345 forward_v I I I I #
loop $-1 $-1 $331 $79 #
coedge $-1 $202 $202 $203 $332 reversed $125 $-1 #
coedge $-1 $203 $203 $202 $332 forward $127 $-1 #
coedge $-1 $204 $204 $128 $205 forward $199 $-1 #
edge $-1 $333 0 $333 6.2831853071796004 $204 $334 forward 7 unknown #
loop $-1 $-1 $211 $129 #
plane-surface $-1 -69.318521683401002 5.6956826854219855 2.0390202488503775 -0.62932039886446345 0 0.77714595512881146 0.77714595512881146 0 0.62932039886446345 forward_v I I I I #
loop $-1 $-1 $335 $82 #
coedge $-1 $209 $209 $210 $336 reversed $130 $-1 #
coedge $-1 $210 $210 $209 $336 forward $132 $-1 #
coedge $-1 $211 $211 $133 $212 forward $206 $-1 #
edge $-1 $337 0 $337 6.2831853071796004 $211 $338 forward 7 unknown #
loop $-1 $-1 $218 $134 #
plane-surface $-1 -69.318521683401002 5.6956826854219855 2.0390202488503775 -0.62932039886446345 0 0.77714595512881146 0.77714595512881146 0 0.62932039886446345 forward_v I I I I #
loop $-1 $-1 $339 $85 #
coedge $-1 $216 $216 $217 $340 reversed $135 $-1 #
coedge $-1 $217 $217 $216 $340 forward $137 $-1 #
coedge $-1 $218 $218 $138 $219 forward $213 $-1 #
edge $-1 $341 0 $341 6.2831853071796004 $218 $342 forward 7 unknown #
face $-1 $343 $344 $48 $-1 $345 forward single #
loop $-1 $-1 $346 $139 #
plane-surface $-1 38.647608859653559 -23.810980643774556 193.7036782128977 0 1 0 0.5877852598018023 0 0.80901698891910034 forward_v I I I I #
coedge $-1 $347 $348 $349 $350 reversed $140 $-1 #
coedge $-1 $225 $142 $351 $352 reversed $89 $-1 #
coedge $-1 $142 $224 $347 $353 reversed $89 $-1 #
coedge $-1 $349 $354 $142 $227 forward $344 $-1 #
edge $-1 $355 -49.994717253574208 $356 -36.033097007174135 $226 $357 forward 7 unknown #
loop $-1 $-1 $233 $143 #
plane-surface $-1 -42.841201693855865 -19.845017475842429 81.543954835640832 0.5877852598018023 0 0.80901698891910034 0.80901698891910034 0 -0.5877852598018023 forward_v I I I I #
loop $-1 $-1 $358 $91 #
coedge $-1 $231 $231 $232 $359 reversed $144 $-1 #
coedge $-1 $232 $232 $231 $359 forward $146 $-1 #
coedge $-1 $233 $233 $147 $234 forward $228 $-1 #
edge $-1 $360 0 $360 6.2831853071796004 $233 $361 forward 7 unknown #
face $-1 $362 $363 $50 $-1 $364 reversed single #
loop $-1 $-1 $365 $148 #
plane-surface $-1 38.647608859653559 -6.6776725639791765 193.7036782128977 0 1 0 0.5877852598018023 0 0.80901698891910034 forward_v I I I I #
coedge $-1 $366 $367 $368 $369 reversed $149 $-1 #
coedge $-1 $240 $151 $370 $371 reversed $95 $-1 #
coedge $-1 $151 $239 $366 $372 reversed $95 $-1 #
coedge $-1 $368 $373 $151 $242 forward $374 $-1 #
edge $-1 $375 -49.994717253574208 $376 -36.033097007174135 $241 $377 forward 7 unknown #
loop $-1 $-1 $248 $152 #
plane-surface $-1 -42.841201693855865 -2.7117093960470484 81.543954835640832 0.5877852598018023 0 0.80901698891910034 0.80901698891910034 0 -0.5877852598018023 forward_v I I I I #
loop $-1 $-1 $378 $97 #
coedge $-1 $246 $246 $247 $379 reversed $153 $-1 #
coedge $-1 $247 $247 $246 $379 forward $155 $-1 #
coedge $-1 $248 $248 $156 $249 forward $243 $-1 #
edge $-1 $380 0 $380 6.2831853071796004 $248 $381 forward 7 unknown #
face $-1 $382 $383 $52 $-1 $384 reversed single #
loop $-1 $-1 $385 $157 #
plane-surface $-1 38.647608859653559 10.455635515816208 193.7036782128977 0 1 0 0.5877852598018023 0 0.80901698891910034 forward_v I I I I #
coedge $-1 $386 $387 $388 $389 reversed $158 $-1 #
coedge $-1 $255 $160 $390 $391 reversed $101 $-1 #
coedge $-1 $160 $254 $386 $392 reversed $101 $-1 #
coedge $-1 $388 $393 $160 $257 forward $394 $-1 #
edge $-1 $395 -49.994717253574208 $396 -36.033097007174135 $256 $397 forward 7 unknown #
loop $-1 $-1 $263 $161 #
plane-surface $-1 -42.841201693855865 14.421598683748336 81.543954835640832 0.5877852598018023 0 0.80901698891910034 0.80901698891910034 0 -0.5877852598018023 forward_v I I I I #
loop $-1 $-1 $398 $103 #
coedge $-1 $261 $261 $262 $399 reversed $162 $-1 #
coedge $-1 $262 $262 $261 $399 forward $164 $-1 #
coedge $-1 $263 $263 $165 $264 forward $258 $-1 #
edge $-1 $400 0 $400 6.2831853071796004 $263 $401 forward 7 unknown #
face $-1 $402 $403 $54 $-1 $404 reversed single #
loop $-1 $-1 $405 $166 #
plane-surface $-1 38.647608859653559 27.588943595611592 193.7036782128977 0 1 0 0.5877852598018023 0 0.80901698891910034 forward_v I I I I #
coedge $-1 $406 $407 $408 $409 reversed $167 $-1 #
coedge $-1 $270 $169 $410 $411 reversed $107 $-1 #
coedge $-1 $169 $269 $406 $412 reversed $107 $-1 #
coedge $-1 $408 $413 $169 $272 forward $414 $-1 #
edge $-1 $415 -49.994717253574208 $416 -36.033097007174135 $271 $417 forward 7 unknown #
loop $-1 $-1 $278 $170 #
plane-surface $-1 -42.841201693855865 31.55490676354372 81.543954835640832 0.5877852598018023 0 0.80901698891910034 0.80901698891910034 0 -0.5877852598018023 forward_v I I I I #
loop $-1 $-1 $418 $109 #
coedge $-1 $276 $276 $277 $419 reversed $171 $-1 #
coedge $-1 $277 $277 $276 $419 forward $173 $-1 #
coedge $-1 $278 $278 $174 $279 forward $273 $-1 #
edge $-1 $420 0 $420 6.2831853071796004 $278 $421 forward 7 unknown #
face $-1 $422 $423 $42 $-1 $424 reversed single #
loop $-1 $-1 $425 $175 #
plane-surface $-1 -69.318521683400988 0 0 1 0 0 0 0 -1 forward_v I I I I #
coedge $-1 $426 $291 $427 $428 forward $176 $-1 #
coedge $-1 $429 $178 $426 $430 forward $113 $-1 #
coedge $-1 $178 $429 $431 $432 forward $113 $-1 #
coedge $-1 $294 $293 $178 $287 reversed $295 $-1 #
edge $-1 $433 -39.118095893798774 $434 39.118095893798774 $286 $435 forward 7 unknown #
coedge $-1 $180 $179 $436 $437 forward $71 $-1 #
coedge $-1 $438 $439 $179 $290 reversed $423 $-1 #
edge $-1 $297 -69.318521683400988 $440 69.318521683400988 $289 $441 forward 7 unknown #
coedge $-1 $283 $442 $180 $292 reversed $176 $-1 #
edge $-1 $443 -69.318521683400988 $296 69.318521683400988 $291 $444 forward 7 unknown #
coedge $-1 $286 $181 $442 $445 forward $295 $-1 #
coedge $-1 $181 $286 $438 $446 reversed $295 $-1 #
loop $-1 $-1 $293 $422 #
vertex $-1 $182 $447 #
vertex $-1 $182 $448 #
straight-curve $-1 69.318521683400988 0 10.198855349001219 0 1 0 I I #
face $-1 $449 $450 $43 $-1 $451 reversed single #
loop $-1 $-1 $452 $183 #
plane-surface $-1 -69.318521683400988 0 0 1 0 0 0 0 -1 forward_v I I I I #
coedge $-1 $310 $453 $304 $454 forward $184 $-1 #
coedge $-1 $189 $186 $455 $456 reversed $117 $-1 #
coedge $-1 $186 $189 $302 $454 reversed $117 $-1 #
coedge $-1 $457 $458 $186 $306 forward $459 $-1 #
edge $-1 $460 -10.198855349001219 $461 10.198855349001219 $305 $462 forward 7 unknown #
coedge $-1 $188 $187 $452 $463 reversed $74 $-1 #
coedge $-1 $455 $464 $187 $309 forward $450 $-1 #
edge $-1 $465 -36.083356206581399 $313 -30.386974747057771 $308 $466 forward 7 unknown #
coedge $-1 $467 $302 $188 $311 forward $184 $-1 #
edge $-1 $312 30.386974747057771 $468 36.083356206581399 $310 $469 forward 7 unknown #
vertex $-1 $311 $470 #
vertex $-1 $309 $471 #
straight-curve $-1 -63.622140223877359 -29.415136425382766 0 0 0 -1 I I #
face $-1 $-1 $327 $44 $-1 $472 forward single #
loop $-1 $-1 $473 $191 #
plane-surface $-1 -69.318521683400988 0 0 1 0 0 0 0 -1 forward_v I I I I #
coedge $-1 $474 $475 $476 $477 reversed $192 $-1 #
coedge $-1 $478 $194 $196 $325 forward $121 $-1 #
coedge $-1 $194 $478 $474 $479 forward $121 $-1 #
coedge $-1 $476 $197 $194 $322 forward $327 $-1 #
edge $-1 $329 -2.8462502228078463 $480 8.5419329082298319 $321 $481 forward 7 unknown #
coedge $-1 $482 $483 $195 $324 forward $316 $-1 #
edge $-1 $484 -52.851098617338685 $328 -44.691263517187856 $323 $485 forward 7 unknown #
edge $-1 $329 -12.966106159715036 $484 -1.8310242626372826e-014 $196 $486 forward 7 unknown #
coedge $-1 $197 $476 $482 $487 forward $327 $-1 #
loop $-1 $-1 $476 $315 #
vertex $-1 $324 $488 #
vertex $-1 $198 $489 #
straight-curve $-1 -78.282820556193371 0.0015911199031464207 10.198855349001221 1 0 0 I I #
coedge $-1 $331 $331 $-1 $490 reversed $201 $-1 #
edge $-1 $491 0 $491 6.2831853071796004 $202 $492 forward 7 unknown #
vertex $-1 $205 $493 #
ellipse-curve $-1 -64.280243205504348 2.2792277461106849 6.1189377989258027 -0.62932039886446345 0 0.77714595512881146 0.19428648878220287 0 0.15733009971611586 1 I I #
coedge $-1 $335 $335 $-1 $494 reversed $208 $-1 #
edge $-1 $495 0 $495 6.2831853071796004 $209 $496 forward 7 unknown #
vertex $-1 $212 $497 #
ellipse-curve $-1 -64.280243205504348 5.6956826854219855 6.1189377989258027 -0.62932039886446345 0 0.77714595512881146 0.19428648878220287 0 0.15733009971611586 1 I I #
coedge $-1 $339 $339 $-1 $498 reversed $215 $-1 #
edge $-1 $499 0 $499 6.2831853071796004 $216 $500 forward 7 unknown #
vertex $-1 $219 $501 #
ellipse-curve $-1 -64.280243205504348 9.1121376247332861 6.1189377989258027 -0.62932039886446345 0 0.77714595512881146 0.19428648878220287 0 0.15733009971611586 1 I I #
face $-1 $-1 $502 $48 $-1 $503 reversed single #
loop $-1 $-1 $226 $220 #
plane-surface $-1 0 0 10.198855349001219 0 0 1 1 0 0 forward_v I I I I #
coedge $-1 $504 $505 $506 $507 reversed $221 $-1 #
coedge $-1 $508 $223 $225 $353 forward $140 $-1 #
coedge $-1 $223 $508 $504 $509 forward $140 $-1 #
coedge $-1 $506 $226 $223 $350 forward $344 $-1 #
edge $-1 $356 5.9565455699890872 $510 13.888471905853342 $349 $511 forward 7 unknown #
coedge $-1 $512 $513 $224 $352 forward $502 $-1 #
edge $-1 $514 -96.796694824317427 $355 -86.652983757447629 $351 $515 forward 7 unknown #
edge $-1 $356 121.37953154983293 $514 138.63704336680192 $225 $516 forward 7 unknown #
coedge $-1 $226 $506 $512 $517 forward $344 $-1 #
vertex $-1 $227 $518 #
vertex $-1 $227 $519 #
straight-curve $-1 19.323804429826779 -15.879054307910302 10.198855349001221 -1 0 0 I I #
coedge $-1 $358 $358 $-1 $520 reversed $230 $-1 #
edge $-1 $521 0 $521 6.2831853071796004 $231 $522 forward 7 unknown #
vertex $-1 $234 $523 #
ellipse-curve $-1 62.337711560200972 -19.845017475842429 5.1269998155663128 0.5877852598018023 0 0.80901698891910034 0.80901698891910034 0 -0.5877852598018023 1 I I #
face $-1 $-1 $374 $50 $-1 $524 forward single #
loop $-1 $-1 $525 $235 #
plane-surface $-1 69.318521683400988 0 0 -1 0 0 0 0 1 forward_v I I I I #
coedge $-1 $526 $527 $528 $529 reversed $236 $-1 #
coedge $-1 $530 $238 $240 $372 forward $149 $-1 #
coedge $-1 $238 $530 $526 $531 forward $149 $-1 #
coedge $-1 $528 $241 $238 $369 forward $374 $-1 #
edge $-1 $376 -2.6101084699086039 $532 5.3218178659556523 $368 $533 forward 7 unknown #
coedge $-1 $534 $535 $239 $371 forward $363 $-1 #
edge $-1 $536 -96.796694824317427 $375 -86.652983757447629 $370 $537 forward 7 unknown #
edge $-1 $376 121.37953154983293 $536 138.63704336680192 $240 $538 forward 7 unknown #
coedge $-1 $241 $528 $534 $539 forward $374 $-1 #
loop $-1 $-1 $528 $362 #
vertex $-1 $371 $540 #
vertex $-1 $242 $541 #
straight-curve $-1 19.323804429826779 1.2542537718850797 10.198855349001221 -1 0 0 I I #
coedge $-1 $378 $378 $-1 $542 reversed $245 $-1 #
edge $-1 $543 0 $543 6.2831853071796004 $246 $544 forward 7 unknown #
vertex $-1 $249 $545 #
ellipse-curve $-1 62.337711560200972 -2.7117093960470484 5.1269998155663128 0.5877852598018023 0 0.80901698891910034 0.80901698891910034 0 -0.5877852598018023 1 I I #
face $-1 $-1 $394 $52 $-1 $546 forward single #
loop $-1 $-1 $547 $250 #
plane-surface $-1 69.318521683400988 0 0 -1 0 0 0 0 1 forward_v I I I I #
coedge $-1 $548 $549 $550 $551 reversed $251 $-1 #
coedge $-1 $552 $253 $255 $392 forward $158 $-1 #
coedge $-1 $253 $552 $548 $553 forward $158 $-1 #
coedge $-1 $550 $256 $253 $389 forward $394 $-1 #
edge $-1 $396 -11.176762509806295 $554 -3.2448361739420406 $388 $555 forward 7 unknown #
coedge $-1 $556 $557 $254 $391 forward $383 $-1 #
edge $-1 $558 -96.796694824317427 $395 -86.652983757447629 $390 $559 forward 7 unknown #
edge $-1 $396 121.37953154983293 $558 138.63704336680192 $255 $560 forward 7 unknown #
coedge $-1 $256 $550 $556 $561 forward $394 $-1 #
loop $-1 $-1 $550 $382 #
vertex $-1 $391 $562 #
vertex $-1 $257 $563 #
straight-curve $-1 19.323804429826779 18.387561851680463 10.198855349001221 -1 0 0 I I #
coedge $-1 $398 $398 $-1 $564 reversed $260 $-1 #
edge $-1 $565 0 $565 6.2831853071796004 $261 $566 forward 7 unknown #
vertex $-1 $264 $567 #
ellipse-curve $-1 62.337711560200972 14.421598683748336 5.1269998155663128 0.5877852598018023 0 0.80901698891910034 0.80901698891910034 0 -0.5877852598018023 1 I I #
face $-1 $-1 $414 $54 $-1 $568 forward single #
loop $-1 $-1 $569 $265 #
plane-surface $-1 69.318521683400988 0 0 -1 0 0 0 0 1 forward_v I I I I #
coedge $-1 $570 $571 $572 $573 reversed $266 $-1 #
coedge $-1 $574 $268 $270 $412 forward $167 $-1 #
coedge $-1 $268 $574 $570 $575 forward $167 $-1 #
coedge $-1 $572 $271 $268 $409 forward $414 $-1 #
edge $-1 $416 -19.743416549703991 $576 -11.811490213839733 $408 $577 forward 7 unknown #
coedge $-1 $578 $579 $269 $411 forward $403 $-1 #
edge $-1 $580 -96.796694824317427 $415 -86.652983757447629 $410 $581 forward 7 unknown #
edge $-1 $416 121.37953154983293 $580 138.63704336680192 $270 $582 forward 7 unknown #
coedge $-1 $271 $572 $578 $583 forward $414 $-1 #
loop $-1 $-1 $572 $402 #
vertex $-1 $411 $584 #
vertex $-1 $272 $585 #
straight-curve $-1 19.323804429826779 35.52086993147585 10.198855349001221 -1 0 0 I I #
coedge $-1 $418 $418 $-1 $586 reversed $275 $-1 #
edge $-1 $587 0 $587 6.2831853071796004 $276 $588 forward 7 unknown #
vertex $-1 $279 $589 #
ellipse-curve $-1 62.337711560200972 31.55490676354372 5.1269998155663128 0.5877852598018023 0 0.80901698891910034 0.80901698891910034 0 -0.5877852598018023 1 I I #
face $-1 $-1 $295 $42 $-1 $590 reversed single #
loop $-1 $-1 $438 $280 #
plane-surface $-1 0 39.118095893798774 0 0 -1 0 0 0 -1 forward_v I I I I #
coedge $-1 $591 $436 $439 $592 forward $281 $-1 #
coedge $-1 $442 $283 $284 $430 reversed $176 $-1 #
coedge $-1 $436 $591 $283 $428 reversed $281 $-1 #
edge $-1 $443 -10.198855349001219 $593 10.198855349001219 $427 $594 forward 7 unknown #
coedge $-1 $285 $284 $591 $595 forward $113 $-1 #
edge $-1 $434 -69.318521683400988 $593 69.318521683400988 $426 $596 forward 7 unknown #
coedge $-1 $439 $438 $285 $432 reversed $423 $-1 #
edge $-1 $597 -69.318521683400988 $433 69.318521683400988 $431 $598 forward 7 unknown #
vertex $-1 $287 $599 #
vertex $-1 $445 $600 #
straight-curve $-1 69.318521683400988 0 -10.198855349001219 0 -1 0 I I #
coedge $-1 $425 $427 $288 $437 reversed $281 $-1 #
edge $-1 $440 -39.118095893798774 $443 39.118095893798774 $436 $601 forward 7 unknown #
coedge $-1 $431 $289 $294 $446 forward $423 $-1 #
coedge $-1 $289 $431 $425 $592 reversed $423 $-1 #
vertex $-1 $290 $602 #
straight-curve $-1 0 39.118095893798774 10.198855349001219 -1 0 0 I I #
coedge $-1 $291 $426 $293 $445 reversed $176 $-1 #
vertex $-1 $437 $603 #
straight-curve $-1 0 -39.118095893798774 10.198855349001219 1 0 0 I I #
edge $-1 $296 -10.198855349001219 $434 10.198855349001219 $293 $604 forward 7 unknown #
edge $-1 $297 -10.198855349001219 $433 10.198855349001219 $294 $605 forward 7 unknown #
point $-1 69.318521683400988 -39.118095893798774 10.198855349001219 #
point $-1 69.318521683400988 39.118095893798774 10.198855349001219 #
face $-1 $-1 $459 $43 $-1 $606 reversed single #
loop $-1 $-1 $455 $299 #
plane-surface $-1 0 0 -10.198855349001219 0 0 1 1 0 0 forward_v I I I I #
coedge $-1 $607 $608 $307 $463 forward $300 $-1 #
coedge $-1 $302 $467 $457 $609 forward $184 $-1 #
edge $-1 $461 -21.984787814003383 $312 -12.281828345587382 $302 $610 forward 7 unknown #
coedge $-1 $611 $308 $303 $456 forward $450 $-1 #
edge $-1 $313 12.281828345587382 $460 21.984787814003383 $455 $612 forward 7 unknown #
coedge $-1 $613 $305 $453 $609 reversed $459 $-1 #
coedge $-1 $305 $613 $611 $614 reversed $459 $-1 #
loop $-1 $-1 $305 $449 #
vertex $-1 $614 $615 #
vertex $-1 $306 $616 #
straight-curve $-1 -63.622140223877359 -39.118095893798774 0 0 0 1 I I #
edge $-1 $468 -10.198855349001219 $465 10.198855349001219 $452 $617 forward 7 unknown #
coedge $-1 $308 $611 $607 $618 forward $450 $-1 #
vertex $-1 $309 $619 #
straight-curve $-1 -33.235165476819589 -29.415136425382766 -10.198855349001219 1 0 0 I I #
coedge $-1 $453 $310 $608 $620 forward $184 $-1 #
vertex $-1 $620 $621 #
straight-curve $-1 -33.235165476819589 -29.415136425382766 10.198855349001219 -1 0 0 I I #
point $-1 -63.622140223877359 -29.415136425382766 10.198855349001219 #
point $-1 -63.622140223877359 -29.415136425382766 -10.198855349001219 #
plane-surface $-1 0 0 10.198855349001219 0 0 1 1 0 0 forward_v I I I I #
coedge $-1 $483 $482 $475 $622 forward $316 $-1 #
coedge $-1 $475 $318 $320 $479 reversed $192 $-1 #
coedge $-1 $318 $474 $473 $622 reversed $192 $-1 #
coedge $-1 $326 $321 $318 $477 forward $327 $-1 #
edge $-1 $480 -19.040855828585677 $623 -8.9642988727923836 $476 $624 forward 7 unknown #
coedge $-1 $320 $319 $483 $625 reversed $121 $-1 #
edge $-1 $626 1.8310242626372826e-014 $480 12.966106159715036 $474 $627 forward 7 unknown #
vertex $-1 $322 $628 #
straight-curve $-1 -59.241964727607701 2.8478413427109928 10.198855349001217 0 1 0 I I #
coedge $-1 $473 $323 $326 $487 reversed $316 $-1 #
coedge $-1 $323 $473 $478 $625 forward $316 $-1 #
vertex $-1 $324 $629 #
straight-curve $-1 -69.318521683400988 0.0015911199031464207 54.890118866189077 0 0 1 I I #
straight-curve $-1 -69.318521683401002 0.0015911199031464207 2.0390202488503775 -0.77714595512881146 0 -0.62932039886446345 I I #
edge $-1 $623 -11.389774250940825 $328 -0.0015911199031464207 $482 $630 forward 7 unknown #
point $-1 -69.318521683400988 0.0015911199031464207 10.198855349001219 #
point $-1 -59.241964727607694 0.0015911199031464207 10.198855349001219 #
edge $-1 $631 1 $631 0 $331 $-1 forward 7 unknown #
vertex $-1 $332 $632 #
ellipse-curve $-1 -63.650922806639876 2.2792277461106849 5.3417918437969876 -0.62932039886446345 0 0.77714595512881146 0.19428648878220287 0 0.15733009971611586 1 I I #
point $-1 -64.085956716722137 2.2792277461106849 6.2762678986419154 #
edge $-1 $633 1 $633 0 $335 $-1 forward 7 unknown #
vertex $-1 $336 $634 #
ellipse-curve $-1 -63.650922806639876 5.6956826854219855 5.3417918437969876 -0.62932039886446345 0 0.77714595512881146 0.19428648878220287 0 0.15733009971611586 1 I I #
point $-1 -64.085956716722137 5.6956826854219855 6.2762678986419154 #
edge $-1 $635 1 $635 0 $339 $-1 forward 7 unknown #
vertex $-1 $340 $636 #
ellipse-curve $-1 -63.650922806639876 9.1121376247332861 5.3417918437969876 -0.62932039886446345 0 0.77714595512881146 0.19428648878220287 0 0.15733009971611586 1 I I #
point $-1 -64.085956716722137 9.1121376247332861 6.2762678986419154 #
loop $-1 $-1 $351 $343 #
plane-surface $-1 69.318521683400988 0 0 -1 0 0 0 0 1 forward_v I I I I #
coedge $-1 $505 $346 $348 $509 reversed $221 $-1 #
coedge $-1 $346 $504 $637 $638 reversed $221 $-1 #
coedge $-1 $354 $349 $346 $507 forward $344 $-1 #
edge $-1 $510 36.033097007174135 $639 49.994717253574208 $506 $640 forward 7 unknown #
coedge $-1 $348 $347 $513 $641 reversed $140 $-1 #
edge $-1 $642 -138.63704336680192 $510 -121.37953154983293 $504 $643 forward 7 unknown #
vertex $-1 $350 $644 #
straight-curve $-1 55.356901437000914 -9.9225087379212145 10.198855349001221 0 -1 0 I I #
coedge $-1 $637 $351 $354 $517 reversed $502 $-1 #
coedge $-1 $351 $637 $508 $641 forward $502 $-1 #
vertex $-1 $352 $645 #
straight-curve $-1 69.318521683400988 -15.879054307910302 96.85183910644885 0 0 1 I I #
straight-curve $-1 -42.841201693855865 -15.879054307910302 81.543954835640832 0.80901698891910034 0 -0.5877852598018023 I I #
edge $-1 $639 -23.810980643774556 $355 -15.879054307910302 $512 $646 forward 7 unknown #
point $-1 69.318521683400988 -15.879054307910302 10.198855349001219 #
point $-1 55.356901437000914 -15.879054307910302 10.198855349001221 #
edge $-1 $647 1 $647 0 $358 $-1 forward 7 unknown #
vertex $-1 $359 $648 #
ellipse-curve $-1 60.132193884105142 -19.845017475842429 2.091365220162277 0.5877852598018023 0 0.80901698891910034 0.80901698891910034 0 -0.5877852598018023 1 I I #
point $-1 63.146728549120056 -19.845017475842429 4.5392145557644907 #
plane-surface $-1 0 0 10.198855349001219 0 0 1 1 0 0 forward_v I I I I #
coedge $-1 $535 $534 $527 $649 forward $363 $-1 #
coedge $-1 $527 $365 $367 $531 reversed $236 $-1 #
coedge $-1 $365 $526 $525 $649 reversed $236 $-1 #
coedge $-1 $373 $368 $365 $529 forward $374 $-1 #
edge $-1 $532 36.033097007174135 $650 49.994717253574208 $528 $651 forward 7 unknown #
coedge $-1 $367 $366 $535 $652 reversed $149 $-1 #
edge $-1 $653 -138.63704336680192 $532 -121.37953154983293 $526 $654 forward 7 unknown #
vertex $-1 $369 $655 #
straight-curve $-1 55.356901437000914 -1.3558546980235242 10.198855349001221 0 -1 0 I I #
coedge $-1 $525 $370 $373 $539 reversed $363 $-1 #
coedge $-1 $370 $525 $530 $652 forward $363 $-1 #
vertex $-1 $371 $656 #
straight-curve $-1 69.318521683400988 1.2542537718850797 96.85183910644885 0 0 1 I I #
straight-curve $-1 -42.841201693855865 1.2542537718850797 81.543954835640832 0.80901698891910034 0 -0.5877852598018023 I I #
edge $-1 $650 -6.6776725639791765 $375 1.2542537718850797 $534 $657 forward 7 unknown #
point $-1 69.318521683400988 1.2542537718850797 10.198855349001219 #
point $-1 55.356901437000914 1.2542537718850797 10.198855349001221 #
edge $-1 $658 1 $658 0 $378 $-1 forward 7 unknown #
vertex $-1 $379 $659 #
ellipse-curve $-1 60.132193884105142 -2.7117093960470484 2.091365220162277 0.5877852598018023 0 0.80901698891910034 0.80901698891910034 0 -0.5877852598018023 1 I I #
point $-1 63.146728549120056 -2.7117093960470484 4.5392145557644907 #
plane-surface $-1 0 0 10.198855349001219 0 0 1 1 0 0 forward_v I I I I #
coedge $-1 $557 $556 $549 $660 forward $383 $-1 #
coedge $-1 $549 $385 $387 $553 reversed $251 $-1 #
coedge $-1 $385 $548 $547 $660 reversed $251 $-1 #
coedge $-1 $393 $388 $385 $551 forward $394 $-1 #
edge $-1 $554 36.033097007174135 $661 49.994717253574208 $550 $662 forward 7 unknown #
coedge $-1 $387 $386 $557 $663 reversed $158 $-1 #
edge $-1 $664 -138.63704336680192 $554 -121.37953154983293 $548 $665 forward 7 unknown #
vertex $-1 $389 $666 #
straight-curve $-1 55.356901437000914 7.2107993418741678 10.198855349001221 0 -1 0 I I #
coedge $-1 $547 $390 $393 $561 reversed $383 $-1 #
coedge $-1 $390 $547 $552 $663 forward $383 $-1 #
vertex $-1 $391 $667 #
straight-curve $-1 69.318521683400988 18.387561851680463 96.85183910644885 0 0 1 I I #
straight-curve $-1 -42.841201693855865 18.387561851680463 81.543954835640832 0.80901698891910034 0 -0.5877852598018023 I I #
edge $-1 $661 10.455635515816208 $395 18.387561851680463 $556 $668 forward 7 unknown #
point $-1 69.318521683400988 18.387561851680463 10.198855349001219 #
point $-1 55.356901437000914 18.387561851680463 10.198855349001221 #
edge $-1 $669 1 $669 0 $398 $-1 forward 7 unknown #
vertex $-1 $399 $670 #
ellipse-curve $-1 60.132193884105142 14.421598683748336 2.091365220162277 0.5877852598018023 0 0.80901698891910034 0.80901698891910034 0 -0.5877852598018023 1 I I #
point $-1 63.146728549120056 14.421598683748336 4.5392145557644907 #
plane-surface $-1 0 0 10.198855349001219 0 0 1 1 0 0 forward_v I I I I #
coedge $-1 $579 $578 $571 $671 forward $403 $-1 #
coedge $-1 $571 $405 $407 $575 reversed $266 $-1 #
coedge $-1 $405 $570 $569 $671 reversed $266 $-1 #
coedge $-1 $413 $408 $405 $573 forward $414 $-1 #
edge $-1 $576 36.033097007174135 $672 49.994717253574208 $572 $673 forward 7 unknown #
coedge $-1 $407 $406 $579 $674 reversed $167 $-1 #
edge $-1 $675 -138.63704336680192 $576 -121.37953154983293 $570 $676 forward 7 unknown #
vertex $-1 $409 $677 #
straight-curve $-1 55.356901437000914 15.77745338177186 10.198855349001221 0 -1 0 I I #
coedge $-1 $569 $410 $413 $583 reversed $403 $-1 #
coedge $-1 $410 $569 $574 $674 forward $403 $-1 #
vertex $-1 $411 $678 #
straight-curve $-1 69.318521683400988 35.52086993147585 96.85183910644885 0 0 1 I I #
straight-curve $-1 -42.841201693855865 35.52086993147585 81.543954835640832 0.80901698891910034 0 -0.5877852598018023 I I #
edge $-1 $672 27.588943595611592 $415 35.52086993147585 $578 $679 forward 7 unknown #
point $-1 69.318521683400988 35.52086993147585 10.198855349001219 #
point $-1 55.356901437000914 35.52086993147585 10.198855349001221 #
edge $-1 $680 1 $680 0 $418 $-1 forward 7 unknown #
vertex $-1 $419 $681 #
ellipse-curve $-1 60.132193884105142 31.55490676354372 2.091365220162277 0.5877852598018023 0 0.80901698891910034 0.80901698891910034 0 -0.5877852598018023 1 I I #
point $-1 63.146728549120056 31.55490676354372 4.5392145557644907 #
plane-surface $-1 69.318521683400988 0 0 -1 0 0 0 0 1 forward_v I I I I #
coedge $-1 $427 $425 $429 $595 reversed $281 $-1 #
edge $-1 $440 -10.198855349001219 $597 10.198855349001219 $439 $682 forward 7 unknown #
vertex $-1 $595 $683 #
straight-curve $-1 -69.318521683400988 -39.118095893798774 0 0 0 -1 I I #
edge $-1 $593 -39.118095893798774 $597 39.118095893798774 $591 $684 forward 7 unknown #
straight-curve $-1 0 -39.118095893798774 -10.198855349001219 -1 0 0 I I #
vertex $-1 $432 $685 #
straight-curve $-1 0 39.118095893798774 -10.198855349001219 1 0 0 I I #
point $-1 69.318521683400988 39.118095893798774 -10.198855349001219 #
point $-1 69.318521683400988 -39.118095893798774 -10.198855349001219 #
straight-curve $-1 -69.318521683400988 0 10.198855349001219 0 -1 0 I I #
point $-1 -69.318521683400988 39.118095893798774 10.198855349001219 #
point $-1 -69.318521683400988 -39.118095893798774 10.198855349001219 #
straight-curve $-1 69.318521683400988 -39.118095893798774 0 0 0 -1 I I #
straight-curve $-1 69.318521683400988 39.118095893798774 0 0 0 -1 I I #
plane-surface $-1 0 -39.118095893798774 0 0 1 0 0 0 1 forward_v I I I I #
coedge $-1 $686 $452 $464 $618 reversed $300 $-1 #
coedge $-1 $452 $686 $467 $620 reversed $300 $-1 #
edge $-1 $687 -69.318521683400988 $461 -63.622140223877359 $457 $688 forward 7 unknown #
straight-curve $-1 -63.622140223877359 -17.133308079795384 10.198855349001219 0 1 0 I I #
coedge $-1 $464 $455 $458 $614 forward $450 $-1 #
straight-curve $-1 -63.622140223877359 -17.133308079795384 -10.198855349001219 0 -1 0 I I #
coedge $-1 $458 $457 $686 $689 forward $459 $-1 #
edge $-1 $460 63.622140223877359 $690 69.318521683400988 $458 $691 forward 7 unknown #
point $-1 -63.622140223877359 -39.118095893798767 -10.198855349001219 #
point $-1 -63.622140223877359 -39.118095893798767 10.198855349001219 #
straight-curve $-1 -69.318521683400988 -29.415136425382766 0 0 0 -1 I I #
edge $-1 $690 -39.118095893798774 $465 -29.415136425382766 $607 $692 forward 7 unknown #
point $-1 -69.318521683400988 -29.415136425382766 -10.198855349001219 #
edge $-1 $468 29.415136425382766 $687 39.118095893798774 $608 $693 forward 7 unknown #
point $-1 -69.318521683400988 -29.415136425382766 10.198855349001219 #
edge $-1 $623 44.691263517187856 $626 52.851098617338685 $473 $694 forward 7 unknown #
vertex $-1 $487 $695 #
straight-curve $-1 -78.282820556193371 11.389774250940825 10.198855349001221 -1 0 0 I I #
edge $-1 $626 -8.5419329082298319 $484 2.8462502228078463 $483 $696 forward 7 unknown #
vertex $-1 $625 $697 #
straight-curve $-1 -69.318521683401002 11.389774250940825 2.0390202488503775 0.77714595512881146 0 0.62932039886446345 I I #
point $-1 -59.241964727607694 11.389774250940825 10.198855349001219 #
point $-1 -69.318521683400988 0.0015911199031464207 2.039020248850389 #
straight-curve $-1 -69.318521683400988 0 10.198855349001219 0 -1 0 I I #
vertex $-1 $490 $698 #
point $-1 -63.456636317857672 2.2792277461106849 5.4991219435131038 #
vertex $-1 $494 $699 #
point $-1 -63.456636317857672 5.6956826854219855 5.4991219435131038 #
vertex $-1 $498 $700 #
point $-1 -63.456636317857672 9.1121376247332861 5.4991219435131038 #
coedge $-1 $513 $512 $505 $638 forward $502 $-1 #
edge $-1 $639 86.652983757447629 $642 96.796694824317427 $637 $701 forward 7 unknown #
vertex $-1 $517 $702 #
straight-curve $-1 19.323804429826779 -23.810980643774556 10.198855349001221 1 0 0 I I #
edge $-1 $642 -13.888471905853342 $514 -5.9565455699890872 $513 $703 forward 7 unknown #
vertex $-1 $641 $704 #
straight-curve $-1 -42.841201693855865 -23.810980643774556 81.543954835640832 -0.80901698891910034 0 0.5877852598018023 I I #
point $-1 55.356901437000914 -23.810980643774556 10.198855349001221 #
point $-1 69.318521683400974 -15.879054307910302 0.055144282131422528 #
straight-curve $-1 69.318521683400988 0 10.198855349001219 0 1 0 I I #
vertex $-1 $520 $705 #
point $-1 60.941210873024239 -19.845017475842429 1.5035799603604749 #
edge $-1 $650 86.652983757447629 $653 96.796694824317427 $525 $706 forward 7 unknown #
vertex $-1 $539 $707 #
straight-curve $-1 19.323804429826779 -6.6776725639791765 10.198855349001221 1 0 0 I I #
edge $-1 $653 -5.3218178659556523 $536 2.6101084699086039 $535 $708 forward 7 unknown #
vertex $-1 $652 $709 #
straight-curve $-1 -42.841201693855865 -6.6776725639791765 81.543954835640832 -0.80901698891910034 0 0.5877852598018023 I I #
point $-1 55.356901437000914 -6.6776725639791765 10.198855349001221 #
point $-1 69.318521683400974 1.2542537718850797 0.055144282131422528 #
straight-curve $-1 69.318521683400988 0 10.198855349001219 0 1 0 I I #
vertex $-1 $542 $710 #
point $-1 60.941210873024239 -2.7117093960470484 1.5035799603604749 #
edge $-1 $661 86.652983757447629 $664 96.796694824317427 $547 $711 forward 7 unknown #
vertex $-1 $561 $712 #
straight-curve $-1 19.323804429826779 10.455635515816208 10.198855349001221 1 0 0 I I #
edge $-1 $664 3.2448361739420406 $558 11.176762509806295 $557 $713 forward 7 unknown #
vertex $-1 $663 $714 #
straight-curve $-1 -42.841201693855865 10.455635515816208 81.543954835640832 -0.80901698891910034 0 0.5877852598018023 I I #
point $-1 55.356901437000914 10.455635515816208 10.198855349001221 #
point $-1 69.318521683400974 18.387561851680463 0.055144282131422528 #
straight-curve $-1 69.318521683400988 0 10.198855349001219 0 1 0 I I #
vertex $-1 $564 $715 #
point $-1 60.941210873024239 14.421598683748336 1.5035799603604749 #
edge $-1 $672 86.652983757447629 $675 96.796694824317427 $569 $716 forward 7 unknown #
vertex $-1 $583 $717 #
straight-curve $-1 19.323804429826779 27.588943595611592 10.198855349001221 1 0 0 I I #
edge $-1 $675 11.811490213839733 $580 19.743416549703991 $579 $718 forward 7 unknown #
vertex $-1 $674 $719 #
straight-curve $-1 -42.841201693855865 27.588943595611592 81.543954835640832 -0.80901698891910034 0 0.5877852598018023 I I #
point $-1 55.356901437000914 27.588943595611592 10.198855349001221 #
point $-1 69.318521683400974 35.52086993147585 0.055144282131422528 #
straight-curve $-1 69.318521683400988 0 10.198855349001219 0 1 0 I I #
vertex $-1 $586 $720 #
point $-1 60.941210873024239 31.55490676354372 1.5035799603604749 #
straight-curve $-1 -69.318521683400988 39.118095893798774 0 0 0 -1 I I #
point $-1 -69.318521683400988 -39.118095893798774 -10.198855349001219 #
straight-curve $-1 -69.318521683400988 0 -10.198855349001219 0 1 0 I I #
point $-1 -69.318521683400988 39.118095893798774 -10.198855349001219 #
coedge $-1 $608 $607 $613 $689 reversed $300 $-1 #
vertex $-1 $620 $721 #
straight-curve $-1 0 -39.118095893798774 10.198855349001219 1 0 0 I I #
edge $-1 $687 -10.198855349001219 $690 10.198855349001219 $686 $722 forward 7 unknown #
vertex $-1 $618 $723 #
straight-curve $-1 0 -39.118095893798774 -10.198855349001219 -1 0 0 I I #
straight-curve $-1 -69.318521683400988 0 -10.198855349001219 0 1 0 I I #
straight-curve $-1 -69.318521683400988 0 10.198855349001219 0 -1 0 I I #
straight-curve $-1 -69.318521683400988 11.389774250940825 54.890118866189077 0 0 -1 I I #
point $-1 -69.318521683400988 11.389774250940825 10.198855349001219 #
straight-curve $-1 -69.318521683400988 2.8478413427109928 2.0390202488503899 0 -1 0 I I #
point $-1 -69.318521683400988 11.389774250940825 2.039020248850389 #
point $-1 -63.493592706923756 2.2792277461106849 5.1475053550147853 #
point $-1 -63.493592706923756 5.6956826854219855 5.1475053550147853 #
point $-1 -63.493592706923756 9.1121376247332861 5.1475053550147853 #
straight-curve $-1 69.318521683400988 -23.810980643774556 96.85183910644885 0 0 -1 I I #
point $-1 69.318521683400988 -23.810980643774556 10.198855349001219 #
straight-curve $-1 69.318521683400988 -9.9225087379212145 0.055144282131415423 0 1 0 I I #
point $-1 69.318521683400974 -23.810980643774556 0.055144282131422528 #
point $-1 59.544408624303337 -19.845017475842429 1.2823482312431769 #
straight-curve $-1 69.318521683400988 -6.6776725639791765 96.85183910644885 0 0 -1 I I #
point $-1 69.318521683400988 -6.6776725639791765 10.198855349001219 #
straight-curve $-1 69.318521683400988 -1.3558546980235242 0.055144282131415423 0 1 0 I I #
point $-1 69.318521683400974 -6.6776725639791765 0.055144282131422528 #
point $-1 59.544408624303337 -2.7117093960470484 1.2823482312431769 #
straight-curve $-1 69.318521683400988 10.455635515816208 96.85183910644885 0 0 -1 I I #
point $-1 69.318521683400988 10.455635515816208 10.198855349001219 #
straight-curve $-1 69.318521683400988 7.2107993418741678 0.055144282131415423 0 1 0 I I #
point $-1 69.318521683400974 10.455635515816208 0.055144282131422528 #
point $-1 59.544408624303337 14.421598683748336 1.2823482312431769 #
straight-curve $-1 69.318521683400988 27.588943595611592 96.85183910644885 0 0 -1 I I #
point $-1 69.318521683400988 27.588943595611592 10.198855349001219 #
straight-curve $-1 69.318521683400988 15.77745338177186 0.055144282131415423 0 1 0 I I #
point $-1 69.318521683400974 27.588943595611592 0.055144282131422528 #
point $-1 59.544408624303337 31.55490676354372 1.2823482312431769 #
point $-1 -69.318521683400988 -39.118095893798774 10.198855349001219 #
straight-curve $-1 -69.318521683400988 -39.118095893798774 0 0 0 -1 I I #
point $-1 -69.318521683400988 -39.118095893798774 -10.198855349001219 #
End-of-ACIS-data 