500 0 7 0           
7 Unknown 11 ACIS 5.0 NT 24 Thu Mar 25 21:16:31 1999 
-1 9.9999999999999995e-007 1e-010 
body $-1 $7 $-1 $8 #
body $-1 $9 $-1 $10 #
body $-1 $11 $-1 $12 #
body $-1 $13 $-1 $14 #
body $-1 $15 $-1 $16 #
body $-1 $17 $-1 $18 #
body $-1 $19 $-1 $20 #
lump $-1 $-1 $21 $0 #
transform $-1 1 0 0 0 1 0 0 0 1 52.530899990844446 30.653953234502318 13.744649992877941 1 rotate no_reflect no_shear #
lump $-1 $-1 $22 $1 #
transform $-1 1 0 0 0 1 0 0 0 1 52.530899990844446 30.653953234502318 13.744649992877941 1 rotate no_reflect no_shear #
lump $-1 $-1 $23 $2 #
transform $-1 1 0 0 0 1 0 0 0 1 52.530899990844446 30.653953234502318 13.744649992877941 1 rotate no_reflect no_shear #
lump $-1 $-1 $24 $3 #
transform $-1 1 0 0 0 1 0 0 0 1 52.530899990844446 30.653953234502318 13.744649992877941 1 rotate no_reflect no_shear #
lump $-1 $-1 $25 $4 #
transform $-1 1 0 0 0 1 0 0 0 1 52.530899990844446 30.653953234502318 13.744649992877941 1 rotate no_reflect no_shear #
lump $-1 $-1 $26 $5 #
transform $-1 1 0 0 0 1 0 0 0 1 52.530899990844446 30.653953234502318 13.744649992877941 1 rotate no_reflect no_shear #
lump $-1 $-1 $27 $6 #
transform $-1 1 0 0 0 1 0 0 0 1 52.530899990844446 30.653953234502318 13.744649992877941 1 rotate no_reflect no_shear #
shell $-1 $-1 $-1 $28 $-1 $7 #
shell $-1 $-1 $-1 $29 $-1 $9 #
shell $-1 $-1 $-1 $30 $-1 $11 #
shell $-1 $-1 $-1 $31 $-1 $13 #
shell $-1 $-1 $-1 $32 $-1 $15 #
shell $-1 $-1 $-1 $33 $-1 $17 #
shell $-1 $-1 $-1 $34 $-1 $19 #
face $-1 $35 $36 $21 $-1 $37 forward single #
face $-1 $38 $39 $22 $-1 $40 reversed single #
face $-1 $41 $42 $23 $-1 $43 reversed single #
face $-1 $44 $45 $24 $-1 $46 forward single #
face $-1 $47 $48 $25 $-1 $49 forward single #
face $-1 $50 $51 $26 $-1 $52 reversed single #
face $-1 $53 $54 $27 $-1 $55 forward single #
face $-1 $56 $57 $21 $-1 $58 reversed single #
loop $-1 $-1 $59 $28 #
plane-surface $-1 0 0 13.744649992877941 0 0 1 1 0 0 forward_v I I I I #
face $-1 $60 $61 $22 $-1 $62 reversed single #
loop $-1 $-1 $63 $29 #
plane-surface $-1 0 -23.59710504302361 6.2619596836353377 0 0 1 1 0 0 forward_v I I I I #
face $-1 $64 $65 $23 $-1 $66 reversed single #
loop $-1 $-1 $67 $30 #
plane-surface $-1 -24.306435530139566 25.718647027048064 79.678902234143507 0.68199836817093118 0 0.7313536940579346 0.7313536940579346 0 -0.68199836817093118 forward_v I I I I #
face $-1 $68 $69 $24 $-1 $70 forward single #
loop $-1 $71 $72 $31 #
cone-surface $-1 48.941632544210599 23.603515795281957 10.324388651886141 -0.68199836817093118 0 -0.7313536940579346 0.7313536940579346 0 -0.68199836817093118 1 I I 0 1 1 forward I I I I #
face $-1 $73 $74 $25 $-1 $75 forward single #
loop $-1 $76 $77 $32 #
cone-surface $-1 48.941632544210599 27.833778258814171 10.324388651886141 -0.68199836817093118 0 -0.7313536940579346 0.7313536940579346 0 -0.68199836817093118 1 I I 0 1 1 forward I I I I #
face $-1 $78 $79 $26 $-1 $80 reversed single #
loop $-1 $-1 $81 $33 #
plane-surface $-1 -52.530899990844446 -12.16913485431725 3.5381564813120718 -0.6560590369687036 0 0.75470957328743171 0.75470957328743171 0 0.6560590369687036 forward_v I I I I #
face $-1 $82 $83 $27 $-1 $84 forward single #
loop $-1 $85 $86 $34 #
cone-surface $-1 -45.155577121414446 -12.16913485431725 6.9104334027717478 0.6560590369687036 0 -0.75470957328743171 1.1320643599311475 0 0.9840885554530554 1 I I 0 1 1.5 forward I I I I #
face $-1 $87 $88 $21 $-1 $89 reversed single #
loop $-1 $-1 $90 $35 #
plane-surface $-1 0 0 -13.744649992877941 0 0 1 1 0 0 forward_v I I I I #
coedge $-1 $91 $92 $93 $94 forward $36 $-1 #
face $-1 $95 $96 $22 $-1 $97 reversed single #
loop $-1 $-1 $98 $38 #
plane-surface $-1 0 -16.540256851544903 10.003304838256641 0 -1 0 0 0 -1 forward_v I I I I #
coedge $-1 $99 $100 $101 $102 reversed $39 $-1 #
face $-1 $103 $104 $23 $-1 $105 reversed single #
loop $-1 $-1 $106 $41 #
plane-surface $-1 47.345540614473023 20.783340819593811 156.51623775512752 0 1 0 0.68199836817093118 0 0.7313536940579346 forward_v I I I I #
coedge $-1 $107 $108 $109 $110 reversed $42 $-1 #
face $-1 $-1 $111 $24 $-1 $112 forward single #
loop $-1 $113 $114 $44 #
cone-surface $-1 48.077119948600753 23.603515795281957 9.3973124155388899 -0.68199836817093118 0 -0.7313536940579346 0.3656768470289673 0 -0.34099918408546559 1 I I -0.70710678118654746 0.70710678118654746 0.5 forward I I I I #
loop $-1 $-1 $115 $31 #
coedge $-1 $72 $72 $116 $117 reversed $45 $-1 #
face $-1 $-1 $118 $25 $-1 $119 forward single #
loop $-1 $120 $121 $47 #
cone-surface $-1 48.077119948600753 27.833778258814171 9.3973124155388899 -0.68199836817093118 0 -0.7313536940579346 0.3656768470289673 0 -0.34099918408546559 1 I I -0.70710678118654746 0.70710678118654746 0.5 forward I I I I #
loop $-1 $-1 $122 $32 #
coedge $-1 $77 $77 $123 $124 reversed $48 $-1 #
face $-1 $125 $126 $26 $-1 $127 forward single #
loop $-1 $-1 $128 $50 #
plane-surface $-1 -121.45764330902982 -7.7980128570895948 82.829302714302003 0 -1 0 0.6560590369687036 0 -0.75470957328743171 forward_v I I I I #
coedge $-1 $129 $130 $131 $132 reversed $51 $-1 #
face $-1 $-1 $133 $27 $-1 $134 forward single #
loop $-1 $135 $136 $53 #
cone-surface $-1 -43.158823691024907 -12.16913485431725 4.6134313884829101 0.6560590369687036 0 -0.75470957328743171 0.56603217996557376 0 0.4920442777265277 1 I I -0.70710678118654757 0.70710678118654757 0.75 forward I I I I #
loop $-1 $-1 $137 $34 #
coedge $-1 $86 $86 $138 $139 reversed $54 $-1 #
face $-1 $140 $141 $21 $-1 $142 reversed single #
loop $-1 $-1 $143 $56 #
plane-surface $-1 0 -30.653953234502318 0 0 1 0 0 0 1 forward_v I I I I #
coedge $-1 $144 $145 $146 $147 forward $57 $-1 #
coedge $-1 $148 $59 $149 $150 forward $36 $-1 #
coedge $-1 $59 $148 $151 $152 forward $36 $-1 #
coedge $-1 $153 $154 $59 $94 reversed $155 $-1 #
edge $-1 $156 -30.653953234502318 $157 30.653953234502318 $93 $158 forward 7 unknown #
face $-1 $159 $160 $22 $-1 $161 reversed single #
loop $-1 $-1 $162 $60 #
plane-surface $-1 -52.530899990844446 0 0 1 0 0 0 0 -1 forward_v I I I I #
coedge $-1 $163 $164 $165 $166 reversed $61 $-1 #
coedge $-1 $167 $63 $168 $169 reversed $39 $-1 #
coedge $-1 $63 $167 $163 $170 forward $39 $-1 #
coedge $-1 $165 $171 $63 $102 forward $172 $-1 #
edge $-1 $173 -18.855400712990512 $174 -4.7417043300330981 $101 $175 forward 7 unknown #
face $-1 $176 $177 $23 $-1 $178 forward single #
loop $-1 $-1 $179 $64 #
plane-surface $-1 0 30.653953234502318 0 0 -1 0 0 0 -1 forward_v I I I I #
coedge $-1 $180 $181 $182 $183 reversed $65 $-1 #
coedge $-1 $184 $67 $179 $185 reversed $42 $-1 #
coedge $-1 $67 $184 $180 $186 forward $42 $-1 #
coedge $-1 $182 $187 $67 $110 forward $177 $-1 #
edge $-1 $188 -17.794629720978286 $189 -7.9240173060697785 $109 $190 forward 7 unknown #
loop $-1 $-1 $116 $68 #
plane-surface $-1 -24.306435530139566 25.718647027048064 79.678902234143507 0.68199836817093118 0 0.7313536940579346 0.7313536940579346 0 -0.68199836817093118 forward_v I I I I #
loop $-1 $-1 $191 $44 #
coedge $-1 $114 $114 $115 $192 reversed $69 $-1 #
coedge $-1 $115 $115 $114 $192 forward $71 $-1 #
coedge $-1 $116 $116 $72 $117 forward $111 $-1 #
edge $-1 $193 0 $193 6.2831853071796004 $116 $194 forward 7 unknown #
loop $-1 $-1 $123 $73 #
plane-surface $-1 -24.306435530139566 25.718647027048064 79.678902234143507 0.68199836817093118 0 0.7313536940579346 0.7313536940579346 0 -0.68199836817093118 forward_v I I I I #
loop $-1 $-1 $195 $47 #
coedge $-1 $121 $121 $122 $196 reversed $74 $-1 #
coedge $-1 $122 $122 $121 $196 forward $76 $-1 #
coedge $-1 $123 $123 $77 $124 forward $118 $-1 #
edge $-1 $197 0 $197 6.2831853071796004 $123 $198 forward 7 unknown #
face $-1 $199 $200 $26 $-1 $201 forward single #
loop $-1 $-1 $202 $78 #
plane-surface $-1 0 -16.540256851544903 10.003304838256641 0 -1 0 0 0 -1 forward_v I I I I #
coedge $-1 $203 $204 $205 $206 reversed $79 $-1 #
coedge $-1 $207 $81 $202 $208 reversed $51 $-1 #
coedge $-1 $81 $207 $203 $209 forward $51 $-1 #
coedge $-1 $205 $210 $81 $132 forward $200 $-1 #
edge $-1 $211 -10.455689424386279 $212 -1.71344542993097 $131 $213 forward 7 unknown #
loop $-1 $-1 $138 $82 #
plane-surface $-1 -52.530899990844446 -12.16913485431725 3.5381564813120718 -0.6560590369687036 0 0.75470957328743171 0.75470957328743171 0 0.6560590369687036 forward_v I I I I #
loop $-1 $-1 $214 $53 #
coedge $-1 $136 $136 $137 $215 reversed $83 $-1 #
coedge $-1 $137 $137 $136 $215 forward $85 $-1 #
coedge $-1 $138 $138 $86 $139 forward $133 $-1 #
edge $-1 $216 0 $216 6.2831853071796004 $138 $217 forward 7 unknown #
face $-1 $218 $219 $21 $-1 $220 reversed single #
loop $-1 $-1 $221 $87 #
plane-surface $-1 -52.530899990844446 0 0 1 0 0 0 0 -1 forward_v I I I I #
coedge $-1 $222 $151 $223 $224 forward $88 $-1 #
coedge $-1 $225 $90 $222 $226 forward $57 $-1 #
coedge $-1 $90 $225 $227 $228 forward $57 $-1 #
coedge $-1 $154 $153 $90 $147 reversed $155 $-1 #
edge $-1 $229 -30.653953234502318 $230 30.653953234502318 $146 $231 forward 7 unknown #
coedge $-1 $92 $91 $232 $233 forward $36 $-1 #
coedge $-1 $234 $235 $91 $150 reversed $219 $-1 #
edge $-1 $157 -52.530899990844446 $236 52.530899990844446 $149 $237 forward 7 unknown #
coedge $-1 $143 $238 $92 $152 reversed $88 $-1 #
edge $-1 $239 -52.530899990844446 $156 52.530899990844446 $151 $240 forward 7 unknown #
coedge $-1 $146 $93 $238 $241 forward $155 $-1 #
coedge $-1 $93 $146 $234 $242 reversed $155 $-1 #
loop $-1 $-1 $153 $218 #
vertex $-1 $94 $243 #
vertex $-1 $94 $244 #
straight-curve $-1 52.530899990844446 0 13.744649992877941 0 1 0 I I #
face $-1 $245 $246 $22 $-1 $247 forward single #
loop $-1 $-1 $168 $95 #
plane-surface $-1 0 -30.653953234502318 0 0 1 0 0 0 1 forward_v I I I I #
coedge $-1 $248 $249 $250 $251 forward $96 $-1 #
coedge $-1 $250 $98 $100 $170 reversed $61 $-1 #
coedge $-1 $98 $250 $252 $253 reversed $61 $-1 #
coedge $-1 $254 $101 $98 $166 forward $172 $-1 #
edge $-1 $174 1.2603072645070172 $255 8.7429975737496228 $165 $256 forward 7 unknown #
coedge $-1 $100 $99 $248 $257 reversed $39 $-1 #
coedge $-1 $258 $259 $99 $169 forward $160 $-1 #
edge $-1 $260 -52.530899990844446 $173 52.530899990844446 $168 $261 forward 7 unknown #
edge $-1 $262 -52.530899990844446 $174 52.530899990844446 $163 $263 forward 7 unknown #
coedge $-1 $101 $254 $258 $264 forward $172 $-1 #
loop $-1 $-1 $165 $245 #
vertex $-1 $169 $265 #
vertex $-1 $102 $266 #
straight-curve $-1 52.530899990844446 -11.798552521511805 6.2619596836353377 0 1 0 I I #
face $-1 $-1 $267 $23 $-1 $268 reversed single #
loop $-1 $-1 $109 $103 #
plane-surface $-1 0 0 13.744649992877941 0 0 1 1 0 0 forward_v I I I I #
coedge $-1 $269 $270 $107 $185 forward $104 $-1 #
coedge $-1 $181 $106 $108 $186 reversed $65 $-1 #
coedge $-1 $106 $180 $271 $272 reversed $65 $-1 #
coedge $-1 $273 $109 $106 $183 forward $177 $-1 #
edge $-1 $189 22.726621613389021 $274 28.858129683607935 $182 $275 forward 7 unknown #
coedge $-1 $108 $107 $276 $277 reversed $42 $-1 #
edge $-1 $278 -69.003058623846073 $188 -60.619279174810835 $179 $279 forward 7 unknown #
edge $-1 $280 -105.06179998168889 $189 -96.678020532653647 $180 $281 forward 7 unknown #
coedge $-1 $109 $273 $269 $282 forward $177 $-1 #
vertex $-1 $110 $283 #
vertex $-1 $110 $284 #
straight-curve $-1 46.399391920625533 12.859323513524032 13.744649992877939 0 -1 0 I I #
coedge $-1 $191 $191 $-1 $285 reversed $113 $-1 #
edge $-1 $286 0 $286 6.2831853071796004 $114 $287 forward 7 unknown #
vertex $-1 $117 $288 #
ellipse-curve $-1 49.46514595573499 23.603515795281957 10.885788041204433 0.68199836817093118 0 0.7313536940579346 0.7313536940579346 0 -0.68199836817093118 1 I I #
coedge $-1 $195 $195 $-1 $289 reversed $120 $-1 #
edge $-1 $290 0 $290 6.2831853071796004 $121 $291 forward 7 unknown #
vertex $-1 $124 $292 #
ellipse-curve $-1 49.46514595573499 27.833778258814171 10.885788041204433 0.68199836817093118 0 0.7313536940579346 0.7313536940579346 0 -0.68199836817093118 1 I I #
face $-1 $-1 $293 $26 $-1 $294 reversed single #
loop $-1 $-1 $205 $125 #
plane-surface $-1 0 0 13.744649992877941 0 0 1 1 0 0 forward_v I I I I #
coedge $-1 $295 $296 $129 $208 forward $126 $-1 #
coedge $-1 $204 $128 $130 $209 reversed $79 $-1 #
coedge $-1 $128 $203 $297 $298 reversed $79 $-1 #
coedge $-1 $299 $131 $128 $206 forward $200 $-1 #
edge $-1 $212 -19.939149097204428 $300 -8.1979216636704635 $205 $301 forward 7 unknown #
coedge $-1 $130 $129 $302 $303 reversed $51 $-1 #
edge $-1 $304 -21.943546060705906 $211 -6.3862670104475772 $202 $305 forward 7 unknown #
edge $-1 $306 0 $212 15.557279050258332 $203 $307 forward 7 unknown #
coedge $-1 $131 $299 $295 $308 forward $200 $-1 #
vertex $-1 $132 $309 #
vertex $-1 $132 $310 #
straight-curve $-1 -40.789672557310482 -6.0845674271586248 13.744649992877942 0 1 0 I I #
coedge $-1 $214 $214 $-1 $311 reversed $135 $-1 #
edge $-1 $312 0 $312 6.2831853071796004 $136 $313 forward 7 unknown #
vertex $-1 $139 $314 #
ellipse-curve $-1 -46.660286274077457 -12.16913485431725 8.6414032370950107 -0.6560590369687036 0 0.75470957328743171 1.1320643599311475 0 0.9840885554530554 1 I I #
face $-1 $-1 $155 $21 $-1 $315 reversed single #
loop $-1 $-1 $234 $140 #
plane-surface $-1 0 30.653953234502318 0 0 -1 0 0 0 -1 forward_v I I I I #
coedge $-1 $316 $232 $235 $317 forward $141 $-1 #
coedge $-1 $238 $143 $144 $226 reversed $88 $-1 #
coedge $-1 $232 $316 $143 $224 reversed $141 $-1 #
edge $-1 $239 -13.744649992877941 $318 13.744649992877941 $223 $319 forward 7 unknown #
coedge $-1 $145 $144 $316 $320 forward $57 $-1 #
edge $-1 $230 -52.530899990844446 $318 52.530899990844446 $222 $321 forward 7 unknown #
coedge $-1 $235 $234 $145 $228 reversed $219 $-1 #
edge $-1 $322 -52.530899990844446 $229 52.530899990844446 $227 $323 forward 7 unknown #
vertex $-1 $147 $324 #
vertex $-1 $241 $325 #
straight-curve $-1 52.530899990844446 0 -13.744649992877941 0 -1 0 I I #
coedge $-1 $221 $223 $148 $233 reversed $141 $-1 #
edge $-1 $236 -30.653953234502318 $239 30.653953234502318 $232 $326 forward 7 unknown #
coedge $-1 $227 $149 $154 $242 forward $219 $-1 #
coedge $-1 $149 $227 $221 $317 reversed $219 $-1 #
vertex $-1 $150 $327 #
straight-curve $-1 0 30.653953234502318 13.744649992877941 -1 0 0 I I #
coedge $-1 $151 $222 $153 $241 reversed $88 $-1 #
vertex $-1 $233 $328 #
straight-curve $-1 0 -30.653953234502318 13.744649992877941 1 0 0 I I #
edge $-1 $156 -13.744649992877941 $230 13.744649992877941 $153 $329 forward 7 unknown #
edge $-1 $157 -13.744649992877941 $229 13.744649992877941 $154 $330 forward 7 unknown #
point $-1 52.530899990844446 -30.653953234502318 13.744649992877941 #
point $-1 52.530899990844446 30.653953234502318 13.744649992877941 #
face $-1 $-1 $172 $22 $-1 $331 reversed single #
loop $-1 $-1 $252 $159 #
plane-surface $-1 0 0 13.744649992877941 0 0 1 1 0 0 forward_v I I I I #
coedge $-1 $332 $162 $167 $257 forward $96 $-1 #
coedge $-1 $162 $332 $333 $334 reversed $96 $-1 #
coedge $-1 $164 $163 $162 $251 reversed $61 $-1 #
edge $-1 $335 -8.7429975737496228 $262 -1.2603072645070172 $162 $336 forward 7 unknown #
coedge $-1 $333 $337 $164 $253 forward $246 $-1 #
edge $-1 $255 -52.530899990844446 $335 52.530899990844446 $252 $338 forward 7 unknown #
coedge $-1 $171 $165 $337 $339 reversed $172 $-1 #
vertex $-1 $166 $340 #
straight-curve $-1 52.530899990844446 -16.540256851544903 5.0016524191283205 0 0 1 I I #
edge $-1 $262 4.7417043300330981 $260 18.855400712990512 $248 $341 forward 7 unknown #
coedge $-1 $342 $168 $171 $264 reversed $160 $-1 #
coedge $-1 $168 $342 $332 $343 forward $160 $-1 #
vertex $-1 $169 $344 #
straight-curve $-1 0 -30.653953234502318 6.2619596836353377 1 0 0 I I #
vertex $-1 $257 $345 #
straight-curve $-1 0 -16.540256851544903 6.2619596836353377 1 0 0 I I #
edge $-1 $346 -13.744649992877941 $173 -6.2619596836353377 $171 $347 forward 7 unknown #
point $-1 52.530899990844446 -30.653953234502318 6.2619596836353377 #
point $-1 52.530899990844446 -16.540256851544903 6.2619596836353377 #
loop $-1 $-1 $276 $176 #
plane-surface $-1 52.530899990844446 0 0 -1 0 0 0 0 1 forward_v I I I I #
coedge $-1 $270 $179 $187 $282 reversed $104 $-1 #
coedge $-1 $179 $269 $348 $349 forward $104 $-1 #
coedge $-1 $276 $350 $181 $272 forward $267 $-1 #
edge $-1 $274 64.513468884685821 $280 70.231192788032843 $271 $351 forward 7 unknown #
coedge $-1 $187 $182 $350 $352 forward $177 $-1 #
vertex $-1 $352 $353 #
straight-curve $-1 23.672770307236512 20.783340819593811 13.744649992877939 1 0 0 I I #
coedge $-1 $348 $271 $184 $277 forward $267 $-1 #
edge $-1 $280 7.9240173060697785 $278 17.794629720978286 $276 $354 forward 7 unknown #
vertex $-1 $277 $355 #
straight-curve $-1 2.0652581649984043 30.653953234502318 55.086899469797039 -0.7313536940579346 0 0.68199836817093118 I I #
vertex $-1 $277 $356 #
straight-curve $-1 -24.306435530139566 20.783340819593811 79.678902234143507 -0.7313536940579346 0 0.68199836817093118 I I #
edge $-1 $357 -52.530899990844446 $188 -46.399391920625533 $269 $358 forward 7 unknown #
point $-1 46.399391920625533 30.653953234502318 13.744649992877939 #
point $-1 46.399391920625533 20.783340819593811 13.744649992877939 #
edge $-1 $359 1 $359 0 $191 $-1 forward 7 unknown #
vertex $-1 $192 $360 #
ellipse-curve $-1 48.418119132686222 23.603515795281957 9.7629892625678565 0.68199836817093118 0 0.7313536940579346 0.7313536940579346 0 -0.68199836817093118 1 I I #
point $-1 50.196499649792912 23.603515795281957 10.203789673033492 #
edge $-1 $361 1 $361 0 $195 $-1 forward 7 unknown #
vertex $-1 $196 $362 #
ellipse-curve $-1 48.418119132686222 27.833778258814171 9.7629892625678565 0.68199836817093118 0 0.7313536940579346 0.7313536940579346 0 -0.68199836817093118 1 I I #
point $-1 50.196499649792912 27.833778258814171 10.203789673033492 #
loop $-1 $-1 $363 $199 #
plane-surface $-1 -52.530899990844446 0 0 1 0 0 0 0 -1 forward_v I I I I #
coedge $-1 $296 $202 $210 $308 reversed $126 $-1 #
coedge $-1 $202 $295 $363 $364 reversed $126 $-1 #
coedge $-1 $302 $365 $204 $298 forward $293 $-1 #
edge $-1 $300 27.670001364273062 $306 37.876494875838929 $297 $366 forward 7 unknown #
coedge $-1 $210 $205 $365 $367 forward $200 $-1 #
vertex $-1 $367 $368 #
straight-curve $-1 -60.72882165451491 -7.7980128570895948 13.744649992877939 -1 0 0 I I #
coedge $-1 $363 $297 $207 $303 forward $293 $-1 #
edge $-1 $306 1.71344542993097 $304 10.455689424386279 $302 $369 forward 7 unknown #
vertex $-1 $364 $370 #
straight-curve $-1 -35.969895706955988 -16.540256851544903 17.934418177577179 0.75470957328743171 0 0.6560590369687036 I I #
vertex $-1 $303 $371 #
straight-curve $-1 -52.530899990844446 -7.7980128570895948 3.5381564813120718 0.75470957328743171 0 0.6560590369687036 I I #
edge $-1 $372 -52.530899990844446 $211 -40.789672557310482 $210 $373 forward 7 unknown #
point $-1 -40.789672557310482 -16.540256851544903 13.744649992877941 #
point $-1 -40.789672557310482 -7.7980128570895948 13.744649992877941 #
edge $-1 $374 1 $374 0 $214 $-1 forward 7 unknown #
vertex $-1 $215 $375 #
ellipse-curve $-1 -43.650867968751434 -12.16913485431725 5.179463568448484 -0.6560590369687036 0 0.75470957328743171 1.1320643599311475 0 0.9840885554530554 1 I I #
point $-1 -45.528221914146314 -12.16913485431725 9.6254917925480665 #
plane-surface $-1 52.530899990844446 0 0 -1 0 0 0 0 1 forward_v I I I I #
coedge $-1 $223 $221 $225 $320 reversed $141 $-1 #
edge $-1 $236 -13.744649992877941 $322 13.744649992877941 $235 $376 forward 7 unknown #
vertex $-1 $320 $377 #
straight-curve $-1 -52.530899990844446 -30.653953234502318 0 0 0 -1 I I #
edge $-1 $318 -30.653953234502318 $322 30.653953234502318 $316 $378 forward 7 unknown #
straight-curve $-1 0 -30.653953234502318 -13.744649992877941 -1 0 0 I I #
vertex $-1 $228 $379 #
straight-curve $-1 0 30.653953234502318 -13.744649992877941 1 0 0 I I #
point $-1 52.530899990844446 30.653953234502318 -13.744649992877941 #
point $-1 52.530899990844446 -30.653953234502318 -13.744649992877941 #
straight-curve $-1 -52.530899990844446 0 13.744649992877941 0 -1 0 I I #
point $-1 -52.530899990844446 30.653953234502318 13.744649992877941 #
point $-1 -52.530899990844446 -30.653953234502318 13.744649992877941 #
straight-curve $-1 52.530899990844446 -30.653953234502318 0 0 0 -1 I I #
straight-curve $-1 52.530899990844446 30.653953234502318 0 0 0 -1 I I #
plane-surface $-1 52.530899990844446 0 0 -1 0 0 0 0 1 forward_v I I I I #
coedge $-1 $249 $248 $259 $343 reversed $96 $-1 #
coedge $-1 $380 $252 $249 $334 forward $246 $-1 #
edge $-1 $335 16.540256851544903 $381 30.653953234502318 $249 $382 forward 7 unknown #
vertex $-1 $334 $383 #
straight-curve $-1 -52.530899990844446 -16.540256851544903 5.0016524191283205 0 0 -1 I I #
coedge $-1 $252 $380 $254 $339 forward $246 $-1 #
straight-curve $-1 0 -16.540256851544903 13.744649992877941 -1 0 0 I I #
edge $-1 $346 -30.653953234502318 $255 -16.540256851544903 $254 $384 forward 7 unknown #
point $-1 52.530899990844446 -16.540256851544903 13.744649992877944 #
straight-curve $-1 -52.530899990844446 -11.798552521511805 6.2619596836353377 0 -1 0 I I #
coedge $-1 $259 $258 $380 $385 reversed $160 $-1 #
edge $-1 $381 -13.744649992877941 $260 -6.2619596836353377 $332 $386 forward 7 unknown #
point $-1 -52.530899990844446 -30.653953234502318 6.2619596836353377 #
point $-1 -52.530899990844446 -16.540256851544903 6.2619596836353377 #
vertex $-1 $339 $387 #
straight-curve $-1 52.530899990844446 -30.653953234502318 0 0 0 -1 I I #
coedge $-1 $350 $276 $270 $349 reversed $267 $-1 #
edge $-1 $357 -13.744649992877941 $278 -8.0269260895309174 $348 $388 forward 7 unknown #
coedge $-1 $271 $348 $273 $352 reversed $267 $-1 #
straight-curve $-1 52.530899990844446 20.783340819593811 78.25811887756376 0 0 -1 I I #
edge $-1 $274 20.783340819593811 $357 30.653953234502318 $350 $389 forward 7 unknown #
point $-1 52.530899990844446 20.783340819593811 13.744649992877941 #
straight-curve $-1 52.530899990844446 12.859323513524032 8.0269260895309174 0 1 0 I I #
point $-1 52.530899990844446 30.653953234502318 8.0269260895309174 #
point $-1 52.530899990844446 20.783340819593811 8.0269260895309174 #
vertex $-1 $352 $390 #
straight-curve $-1 0 30.653953234502318 13.744649992877941 -1 0 0 I I #
vertex $-1 $285 $391 #
point $-1 49.149472826744152 23.603515795281957 9.0809908943969262 #
vertex $-1 $289 $392 #
point $-1 49.149472826744152 27.833778258814171 9.0809908943969262 #
coedge $-1 $365 $302 $296 $364 forward $293 $-1 #
edge $-1 $304 -37.876494875838929 $372 -27.670001364273055 $363 $393 forward 7 unknown #
coedge $-1 $297 $363 $299 $367 reversed $293 $-1 #
straight-curve $-1 -52.530899990844446 -7.7980128570895948 41.414651357151001 0 0 -1 I I #
edge $-1 $300 7.7980128570895948 $372 16.540256851544903 $365 $394 forward 7 unknown #
point $-1 -52.530899990844446 -7.7980128570895948 13.744649992877941 #
straight-curve $-1 -52.530899990844446 -6.0845674271586248 3.5381564813120727 0 -1 0 I I #
point $-1 -52.530899990844446 -16.540256851544903 3.5381564813120718 #
point $-1 -52.530899990844446 -7.7980128570895948 3.5381564813120718 #
vertex $-1 $364 $395 #
straight-curve $-1 0 -16.540256851544903 13.744649992877941 1 0 0 I I #
vertex $-1 $311 $396 #
point $-1 -42.518803608820285 -12.16913485431725 6.1635521239015389 #
straight-curve $-1 -52.530899990844446 30.653953234502318 0 0 0 -1 I I #
point $-1 -52.530899990844446 -30.653953234502318 -13.744649992877941 #
straight-curve $-1 -52.530899990844446 0 -13.744649992877941 0 1 0 I I #
point $-1 -52.530899990844446 30.653953234502318 -13.744649992877941 #
coedge $-1 $337 $333 $342 $385 forward $246 $-1 #
vertex $-1 $334 $397 #
straight-curve $-1 -52.530899990844446 0 13.744649992877941 0 -1 0 I I #
point $-1 -52.530899990844446 -16.540256851544903 13.744649992877944 #
straight-curve $-1 52.530899990844446 0 13.744649992877941 0 1 0 I I #
edge $-1 $381 -52.530899990844446 $346 52.530899990844446 $342 $398 forward 7 unknown #
straight-curve $-1 -52.530899990844446 -30.653953234502318 0 0 0 -1 I I #
point $-1 52.530899990844446 -30.653953234502318 13.744649992877941 #
straight-curve $-1 52.530899990844446 30.653953234502318 0 0 0 -1 I I #
straight-curve $-1 52.530899990844446 0 13.744649992877941 0 1 0 I I #
point $-1 52.530899990844446 30.653953234502318 13.744649992877941 #
point $-1 47.736120764515285 23.603515795281957 9.0316355685099232 #
point $-1 47.736120764515285 27.833778258814171 9.0316355685099232 #
straight-curve $-1 -52.530899990844446 -16.540256851544903 41.414651357151001 0 0 1 I I #
straight-curve $-1 -52.530899990844446 0 13.744649992877941 0 -1 0 I I #
point $-1 -52.530899990844446 -16.540256851544903 13.744649992877944 #
point $-1 -42.666779413298379 -12.16913485431725 4.0473992085173363 #
point $-1 -52.530899990844446 -30.653953234502318 13.744649992877941 #
straight-curve $-1 0 -30.653953234502318 13.744649992877941 1 0 0 I I #
End-of-ACIS-data 