500 0 5 0           
7 Unknown 11 ACIS 5.0 NT 24 Thu Mar 25 21:28:54 1999 
-1 9.9999999999999995e-007 1e-010 
body $-1 $5 $-1 $6 #
body $-1 $7 $-1 $8 #
body $-1 $9 $-1 $10 #
body $-1 $11 $-1 $12 #
body $-1 $13 $-1 $14 #
lump $-1 $-1 $15 $0 #
transform $-1 1 0 0 0 1 0 0 0 1 63.050019837031158 37.721102599481917 13.612152640684652 1 rotate no_reflect no_shear #
lump $-1 $-1 $16 $1 #
transform $-1 1 0 0 0 1 0 0 0 1 63.050019837031158 37.721102599481917 13.612152640684652 1 rotate no_reflect no_shear #
lump $-1 $-1 $17 $2 #
transform $-1 1 0 0 0 1 0 0 0 1 63.050019837031158 37.721102599481917 13.612152640684652 1 rotate no_reflect no_shear #
lump $-1 $-1 $18 $3 #
transform $-1 1 0 0 0 1 0 0 0 1 63.050019837031158 37.721102599481917 13.612152640684652 1 rotate no_reflect no_shear #
lump $-1 $-1 $19 $4 #
transform $-1 1 0 0 0 1 0 0 0 1 63.050019837031158 37.721102599481917 13.612152640684652 1 rotate no_reflect no_shear #
shell $-1 $-1 $-1 $20 $-1 $5 #
shell $-1 $-1 $-1 $21 $-1 $7 #
shell $-1 $-1 $-1 $22 $-1 $9 #
shell $-1 $-1 $-1 $23 $-1 $11 #
shell $-1 $-1 $-1 $24 $-1 $13 #
face $-1 $25 $26 $15 $-1 $27 forward single #
face $-1 $28 $29 $16 $-1 $30 forward single #
face $-1 $31 $32 $17 $-1 $33 reversed single #
face $-1 $34 $35 $18 $-1 $36 forward single #
face $-1 $37 $38 $19 $-1 $39 forward single #
face $-1 $40 $41 $15 $-1 $42 reversed single #
loop $-1 $-1 $43 $20 #
plane-surface $-1 0 0 13.612152640684652 0 0 1 1 0 0 forward_v I I I I #
face $-1 $44 $45 $16 $-1 $46 reversed single #
loop $-1 $-1 $47 $21 #
plane-surface $-1 -58.30137799445103 0 5.6875563176279638 0 0 1 1 0 0 forward_v I I I I #
face $-1 $48 $49 $17 $-1 $50 reversed single #
loop $-1 $-1 $51 $22 #
plane-surface $-1 87.869093456426157 -25.933128528063264 179.87343071656326 0 -1 0 -0.79863551827123203 0 -0.60181501223851219 forward_v I I I I #
face $-1 $52 $53 $18 $-1 $54 forward single #
loop $-1 $55 $56 $23 #
cone-surface $-1 57.887318109139194 -34.353110007648013 7.4884827880829086 -0.79863551827123203 0 -0.60181501223851219 0.60181501223851219 0 -0.79863551827123203 1 I I 0 1 1 forward I I I I #
face $-1 $57 $58 $19 $-1 $59 forward single #
loop $-1 $60 $61 $24 #
cone-surface $-1 57.887318109139194 -29.301121119897168 7.4884827880829086 -0.79863551827123203 0 -0.60181501223851219 0.60181501223851219 0 -0.79863551827123203 1 I I 0 1 1 forward I I I I #
face $-1 $62 $63 $15 $-1 $64 reversed single #
loop $-1 $-1 $65 $25 #
plane-surface $-1 0 0 -13.612152640684652 0 0 1 1 0 0 forward_v I I I I #
coedge $-1 $66 $67 $68 $69 forward $26 $-1 #
face $-1 $70 $71 $16 $-1 $72 reversed single #
loop $-1 $-1 $73 $28 #
plane-surface $-1 -58.30137799445103 0 0.96262264336363934 0 0 1 1 0 0 forward_v I I I I #
coedge $-1 $74 $75 $76 $77 forward $29 $-1 #
face $-1 $78 $79 $17 $-1 $80 reversed single #
loop $-1 $-1 $81 $31 #
plane-surface $-1 -12.838877082691525 -31.82711556377259 103.98453379684058 0.79863551827123203 0 0.60181501223851219 0.60181501223851219 0 -0.79863551827123203 forward_v I I I I #
coedge $-1 $82 $83 $84 $85 reversed $32 $-1 #
face $-1 $-1 $86 $18 $-1 $87 forward single #
loop $-1 $88 $89 $34 #
cone-surface $-1 56.219511131257065 -34.353110007648013 6.2317001208427918 -0.79863551827123203 0 -0.60181501223851219 0.3009075061192561 0 -0.39931775913561601 1 I I -0.70710678118654746 0.70710678118654746 0.5 forward I I I I #
loop $-1 $-1 $90 $23 #
coedge $-1 $56 $56 $91 $92 reversed $35 $-1 #
face $-1 $-1 $93 $19 $-1 $94 forward single #
loop $-1 $95 $96 $37 #
cone-surface $-1 56.219511131257065 -29.301121119897168 6.2317001208427918 -0.79863551827123203 0 -0.60181501223851219 0.3009075061192561 0 -0.39931775913561601 1 I I -0.70710678118654746 0.70710678118654746 0.5 forward I I I I #
loop $-1 $-1 $97 $24 #
coedge $-1 $61 $61 $98 $99 reversed $38 $-1 #
face $-1 $100 $101 $15 $-1 $102 reversed single #
loop $-1 $-1 $103 $40 #
plane-surface $-1 0 -37.721102599481917 0 0 1 0 0 0 1 forward_v I I I I #
coedge $-1 $104 $105 $106 $107 forward $41 $-1 #
coedge $-1 $108 $43 $109 $110 forward $26 $-1 #
coedge $-1 $43 $108 $111 $112 forward $26 $-1 #
coedge $-1 $113 $114 $43 $69 reversed $115 $-1 #
edge $-1 $116 -37.721102599481917 $117 37.721102599481917 $68 $118 forward 7 unknown #
face $-1 $119 $120 $16 $-1 $121 reversed single #
loop $-1 $-1 $122 $44 #
plane-surface $-1 -53.552736151870903 0 3.3250894804958016 -1 0 0 0 0 1 forward_v I I I I #
coedge $-1 $123 $124 $125 $126 forward $45 $-1 #
coedge $-1 $127 $47 $128 $129 reversed $29 $-1 #
coedge $-1 $47 $127 $130 $131 reversed $29 $-1 #
coedge $-1 $122 $132 $47 $77 reversed $71 $-1 #
edge $-1 $133 -37.721102599481917 $134 37.721102599481917 $76 $135 forward 7 unknown #
face $-1 $136 $137 $17 $-1 $138 forward single #
loop $-1 $-1 $139 $48 #
plane-surface $-1 0 -37.721102599481917 0 0 1 0 0 0 1 forward_v I I I I #
coedge $-1 $140 $141 $142 $143 reversed $49 $-1 #
coedge $-1 $83 $51 $144 $145 reversed $32 $-1 #
coedge $-1 $51 $82 $140 $146 reversed $32 $-1 #
coedge $-1 $142 $147 $51 $85 forward $137 $-1 #
edge $-1 $148 -19.11547310881808 $149 -11.3270480905272 $84 $150 forward 7 unknown #
loop $-1 $-1 $91 $52 #
plane-surface $-1 -12.838877082691525 -31.82711556377259 103.98453379684058 0.79863551827123203 0 0.60181501223851219 0.60181501223851219 0 -0.79863551827123203 forward_v I I I I #
loop $-1 $-1 $151 $34 #
coedge $-1 $89 $89 $90 $152 reversed $53 $-1 #
coedge $-1 $90 $90 $89 $152 forward $55 $-1 #
coedge $-1 $91 $91 $56 $92 forward $86 $-1 #
edge $-1 $153 0 $153 6.2831853071796004 $91 $154 forward 7 unknown #
loop $-1 $-1 $98 $57 #
plane-surface $-1 -12.838877082691525 -31.82711556377259 103.98453379684058 0.79863551827123203 0 0.60181501223851219 0.60181501223851219 0 -0.79863551827123203 forward_v I I I I #
loop $-1 $-1 $155 $37 #
coedge $-1 $96 $96 $97 $156 reversed $58 $-1 #
coedge $-1 $97 $97 $96 $156 forward $60 $-1 #
coedge $-1 $98 $98 $61 $99 forward $93 $-1 #
edge $-1 $157 0 $157 6.2831853071796004 $98 $158 forward 7 unknown #
face $-1 $159 $160 $15 $-1 $161 reversed single #
loop $-1 $-1 $162 $62 #
plane-surface $-1 -63.050019837031158 0 0 1 0 0 0 0 -1 forward_v I I I I #
coedge $-1 $163 $111 $164 $165 forward $63 $-1 #
coedge $-1 $166 $65 $163 $167 forward $41 $-1 #
coedge $-1 $65 $166 $168 $169 forward $41 $-1 #
coedge $-1 $114 $113 $65 $107 reversed $115 $-1 #
edge $-1 $170 -37.721102599481917 $171 37.721102599481917 $106 $172 forward 7 unknown #
coedge $-1 $67 $66 $173 $174 forward $26 $-1 #
coedge $-1 $175 $176 $66 $110 reversed $160 $-1 #
edge $-1 $117 -63.050019837031158 $177 63.050019837031158 $109 $178 forward 7 unknown #
coedge $-1 $103 $179 $67 $112 reversed $63 $-1 #
edge $-1 $180 -63.050019837031158 $116 63.050019837031158 $111 $181 forward 7 unknown #
coedge $-1 $106 $68 $179 $182 forward $115 $-1 #
coedge $-1 $68 $106 $175 $183 reversed $115 $-1 #
loop $-1 $-1 $113 $159 #
vertex $-1 $69 $184 #
vertex $-1 $69 $185 #
straight-curve $-1 63.050019837031158 0 13.612152640684652 0 1 0 I I #
face $-1 $186 $187 $16 $-1 $188 reversed single #
loop $-1 $-1 $189 $70 #
plane-surface $-1 0 -37.721102599481917 0 0 1 0 0 0 1 forward_v I I I I #
coedge $-1 $125 $76 $190 $191 reversed $71 $-1 #
coedge $-1 $192 $73 $189 $193 reversed $45 $-1 #
coedge $-1 $73 $192 $194 $195 reversed $45 $-1 #
coedge $-1 $132 $122 $73 $126 reversed $71 $-1 #
edge $-1 $196 -37.721102599481917 $197 37.721102599481917 $125 $198 forward 7 unknown #
coedge $-1 $75 $74 $199 $200 reversed $29 $-1 #
coedge $-1 $201 $202 $74 $129 forward $203 $-1 #
edge $-1 $204 -33.899330839805643 $134 -24.402047154645388 $128 $205 forward 7 unknown #
coedge $-1 $206 $190 $75 $131 forward $120 $-1 #
edge $-1 $133 24.402047154645388 $207 33.899330839805643 $130 $208 forward 7 unknown #
coedge $-1 $76 $125 $201 $209 reversed $71 $-1 #
vertex $-1 $131 $210 #
vertex $-1 $129 $211 #
straight-curve $-1 -53.552736151870903 0 5.6875563176279638 0 1 0 I I #
face $-1 $-1 $212 $17 $-1 $213 reversed single #
loop $-1 $-1 $142 $78 #
plane-surface $-1 0 0 13.612152640684652 0 0 1 1 0 0 forward_v I I I I #
coedge $-1 $214 $215 $141 $216 forward $79 $-1 #
coedge $-1 $217 $81 $83 $146 forward $49 $-1 #
coedge $-1 $81 $217 $139 $216 reversed $49 $-1 #
coedge $-1 $218 $84 $81 $143 forward $137 $-1 #
edge $-1 $149 10.019570746176969 $219 21.80754481759562 $142 $220 forward 7 unknown #
coedge $-1 $221 $222 $82 $145 forward $212 $-1 #
edge $-1 $223 -86.660152100558733 $148 -76.324562717596976 $144 $224 forward 7 unknown #
edge $-1 $149 113.15847979286056 $223 126.10003967406232 $83 $225 forward 7 unknown #
coedge $-1 $84 $218 $221 $226 forward $137 $-1 #
vertex $-1 $145 $227 #
vertex $-1 $85 $228 #
straight-curve $-1 43.934546728213078 -25.933128528063264 13.612152640684656 -1 0 0 I I #
coedge $-1 $151 $151 $-1 $229 reversed $88 $-1 #
edge $-1 $230 0 $230 6.2831853071796004 $89 $231 forward 7 unknown #
vertex $-1 $92 $232 #
ellipse-curve $-1 59.155807327885718 -34.353110007648013 8.444357949203777 0.79863551827123203 0 0.60181501223851219 0.60181501223851219 0 -0.79863551827123203 1 I I #
coedge $-1 $155 $155 $-1 $233 reversed $95 $-1 #
edge $-1 $234 0 $234 6.2831853071796004 $96 $235 forward 7 unknown #
vertex $-1 $99 $236 #
ellipse-curve $-1 59.155807327885718 -29.301121119897168 8.444357949203777 0.79863551827123203 0 0.60181501223851219 0.60181501223851219 0 -0.79863551827123203 1 I I #
face $-1 $-1 $115 $15 $-1 $237 reversed single #
loop $-1 $-1 $175 $100 #
plane-surface $-1 0 37.721102599481917 0 0 -1 0 0 0 -1 forward_v I I I I #
coedge $-1 $238 $173 $176 $239 forward $101 $-1 #
coedge $-1 $179 $103 $104 $167 reversed $63 $-1 #
coedge $-1 $173 $238 $103 $165 reversed $101 $-1 #
edge $-1 $180 -13.612152640684652 $240 13.612152640684652 $164 $241 forward 7 unknown #
coedge $-1 $105 $104 $238 $242 forward $41 $-1 #
edge $-1 $171 -63.050019837031158 $240 63.050019837031158 $163 $243 forward 7 unknown #
coedge $-1 $176 $175 $105 $169 reversed $160 $-1 #
edge $-1 $244 -63.050019837031158 $170 63.050019837031158 $168 $245 forward 7 unknown #
vertex $-1 $107 $246 #
vertex $-1 $182 $247 #
straight-curve $-1 63.050019837031158 0 -13.612152640684652 0 -1 0 I I #
coedge $-1 $162 $164 $108 $174 reversed $101 $-1 #
edge $-1 $177 -37.721102599481917 $180 37.721102599481917 $173 $248 forward 7 unknown #
coedge $-1 $168 $109 $114 $183 forward $160 $-1 #
coedge $-1 $109 $168 $162 $239 reversed $160 $-1 #
vertex $-1 $110 $249 #
straight-curve $-1 0 37.721102599481917 13.612152640684652 -1 0 0 I I #
coedge $-1 $111 $163 $113 $182 reversed $63 $-1 #
vertex $-1 $174 $250 #
straight-curve $-1 0 -37.721102599481917 13.612152640684652 1 0 0 I I #
edge $-1 $116 -13.612152640684652 $171 13.612152640684652 $113 $251 forward 7 unknown #
edge $-1 $117 -13.612152640684652 $170 13.612152640684652 $114 $252 forward 7 unknown #
point $-1 63.050019837031158 -37.721102599481917 13.612152640684652 #
point $-1 63.050019837031158 37.721102599481917 13.612152640684652 #
face $-1 $-1 $203 $16 $-1 $253 reversed single #
loop $-1 $-1 $254 $119 #
plane-surface $-1 -63.050019837031158 0 0 1 0 0 0 0 -1 forward_v I I I I #
coedge $-1 $190 $206 $123 $193 forward $120 $-1 #
coedge $-1 $130 $189 $122 $191 forward $120 $-1 #
edge $-1 $197 -0.69992209688426144 $133 4.025011577380063 $190 $255 forward 7 unknown #
coedge $-1 $124 $123 $254 $256 reversed $45 $-1 #
edge $-1 $257 -33.899330839805643 $197 -24.402047154645388 $189 $258 forward 7 unknown #
coedge $-1 $202 $201 $124 $195 forward $203 $-1 #
edge $-1 $196 24.402047154645388 $259 33.899330839805643 $194 $260 forward 7 unknown #
vertex $-1 $195 $261 #
vertex $-1 $193 $262 #
straight-curve $-1 -53.552736151870903 0 0.96262264336363934 0 -1 0 I I #
coedge $-1 $263 $264 $127 $200 forward $187 $-1 #
edge $-1 $207 -37.721102599481917 $204 37.721102599481917 $199 $265 forward 7 unknown #
coedge $-1 $194 $128 $132 $209 forward $203 $-1 #
coedge $-1 $128 $194 $263 $266 reversed $203 $-1 #
loop $-1 $-1 $194 $186 #
vertex $-1 $266 $267 #
straight-curve $-1 -29.150688997225515 37.721102599481917 5.6875563176279638 1 0 0 I I #
coedge $-1 $189 $130 $264 $268 forward $120 $-1 #
vertex $-1 $268 $269 #
straight-curve $-1 -29.150688997225515 -37.721102599481917 5.6875563176279638 -1 0 0 I I #
edge $-1 $134 -4.025011577380063 $196 0.69992209688426144 $201 $270 forward 7 unknown #
point $-1 -53.552736151870903 -37.721102599481917 5.6875563176279638 #
point $-1 -53.552736151870903 37.721102599481917 5.6875563176279638 #
loop $-1 $-1 $144 $136 #
plane-surface $-1 63.050019837031158 0 0 -1 0 0 0 0 1 forward_v I I I I #
coedge $-1 $215 $139 $271 $272 reversed $79 $-1 #
coedge $-1 $139 $214 $218 $273 reversed $79 $-1 #
edge $-1 $219 67.772294288020063 $274 80.713854169221818 $139 $275 forward 7 unknown #
coedge $-1 $141 $140 $222 $276 reversed $49 $-1 #
coedge $-1 $147 $142 $215 $273 forward $137 $-1 #
vertex $-1 $273 $277 #
straight-curve $-1 55.261594818740271 -15.913557781886295 13.612152640684663 0 -1 0 I I #
coedge $-1 $271 $144 $147 $226 reversed $212 $-1 #
coedge $-1 $144 $271 $217 $276 forward $212 $-1 #
vertex $-1 $145 $278 #
straight-curve $-1 63.050019837031158 -25.933128528063264 89.936715358281631 0 0 1 I I #
straight-curve $-1 -12.838877082691525 -25.933128528063264 103.98453379684058 0.60181501223851219 0 -0.79863551827123203 I I #
edge $-1 $279 -37.721102599481917 $148 -25.933128528063264 $221 $280 forward 7 unknown #
point $-1 63.050019837031158 -25.933128528063264 13.612152640684652 #
point $-1 55.261594818740278 -25.933128528063264 13.612152640684656 #
edge $-1 $281 1 $281 0 $151 $-1 forward 7 unknown #
vertex $-1 $152 $282 #
ellipse-curve $-1 56.618828890392678 -34.353110007648013 6.5326076269620481 0.79863551827123203 0 0.60181501223851219 0.60181501223851219 0 -0.79863551827123203 1 I I #
point $-1 59.757622340124229 -34.353110007648013 7.6457224309325369 #
edge $-1 $283 1 $283 0 $155 $-1 forward 7 unknown #
vertex $-1 $156 $284 #
ellipse-curve $-1 56.618828890392678 -29.301121119897168 6.5326076269620481 0.79863551827123203 0 0.60181501223851219 0.60181501223851219 0 -0.79863551827123203 1 I I #
point $-1 59.757622340124229 -29.301121119897168 7.6457224309325369 #
plane-surface $-1 63.050019837031158 0 0 -1 0 0 0 0 1 forward_v I I I I #
coedge $-1 $164 $162 $166 $242 reversed $101 $-1 #
edge $-1 $177 -13.612152640684652 $244 13.612152640684652 $176 $285 forward 7 unknown #
vertex $-1 $242 $286 #
straight-curve $-1 -63.050019837031158 -37.721102599481917 0 0 0 -1 I I #
edge $-1 $240 -37.721102599481917 $244 37.721102599481917 $238 $287 forward 7 unknown #
straight-curve $-1 0 -37.721102599481917 -13.612152640684652 -1 0 0 I I #
vertex $-1 $169 $288 #
straight-curve $-1 0 37.721102599481917 -13.612152640684652 1 0 0 I I #
point $-1 63.050019837031158 37.721102599481917 -13.612152640684652 #
point $-1 63.050019837031158 -37.721102599481917 -13.612152640684652 #
straight-curve $-1 -63.050019837031158 0 13.612152640684652 0 -1 0 I I #
point $-1 -63.050019837031158 37.721102599481917 13.612152640684652 #
point $-1 -63.050019837031158 -37.721102599481917 13.612152640684652 #
straight-curve $-1 63.050019837031158 -37.721102599481917 0 0 0 -1 I I #
straight-curve $-1 63.050019837031158 37.721102599481917 0 0 0 -1 I I #
plane-surface $-1 0 37.721102599481917 0 0 -1 0 0 0 -1 forward_v I I I I #
coedge $-1 $264 $263 $192 $256 forward $187 $-1 #
straight-curve $-1 -53.552736151870903 -37.721102599481917 1.6625447402479008 0 0 1 I I #
edge $-1 $259 -37.721102599481917 $257 37.721102599481917 $254 $289 forward 7 unknown #
vertex $-1 $193 $290 #
straight-curve $-1 -29.150688997225515 -37.721102599481917 0.96262264336363934 1 0 0 I I #
vertex $-1 $195 $291 #
straight-curve $-1 -29.150688997225515 37.721102599481917 0.96262264336363934 -1 0 0 I I #
point $-1 -53.552736151870903 37.721102599481917 0.96262264336363934 #
point $-1 -53.552736151870903 -37.721102599481917 0.96262264336363934 #
coedge $-1 $254 $199 $202 $266 forward $187 $-1 #
coedge $-1 $199 $254 $206 $268 reversed $187 $-1 #
straight-curve $-1 -63.050019837031158 0 5.6875563176279638 0 1 0 I I #
edge $-1 $204 -5.6875563176279638 $259 -0.96262264336363934 $202 $292 forward 7 unknown #
point $-1 -63.050019837031158 37.721102599481917 5.6875563176279638 #
edge $-1 $207 -5.6875563176279638 $257 -0.96262264336363934 $264 $293 forward 7 unknown #
point $-1 -63.050019837031158 -37.721102599481917 5.6875563176279638 #
straight-curve $-1 -53.552736151870903 37.721102599481917 1.6625447402479008 0 0 -1 I I #
coedge $-1 $222 $221 $214 $272 forward $212 $-1 #
edge $-1 $279 -13.612152640684652 $274 -3.2765632577229029 $271 $294 forward 7 unknown #
edge $-1 $219 55.261594818740285 $279 63.050019837031158 $215 $295 forward 7 unknown #
vertex $-1 $216 $296 #
straight-curve $-1 14.475210702363437 -37.721102599481917 67.737514013828019 0.60181501223851219 0 -0.79863551827123203 I I #
edge $-1 $274 -21.80754481759562 $223 -10.019570746176969 $222 $297 forward 7 unknown #
point $-1 55.261594818740285 -37.721102599481917 13.612152640684652 #
point $-1 63.050019837031158 -25.933128528063264 3.2765632577228985 #
vertex $-1 $226 $298 #
straight-curve $-1 63.050019837031158 0 13.612152640684652 0 1 0 I I #
vertex $-1 $229 $299 #
point $-1 57.220643902631195 -34.353110007648013 5.733972108690816 #
vertex $-1 $233 $300 #
point $-1 57.220643902631195 -29.301121119897168 5.733972108690816 #
straight-curve $-1 -63.050019837031158 37.721102599481917 0 0 0 -1 I I #
point $-1 -63.050019837031158 -37.721102599481917 -13.612152640684652 #
straight-curve $-1 -63.050019837031158 0 -13.612152640684652 0 1 0 I I #
point $-1 -63.050019837031158 37.721102599481917 -13.612152640684652 #
straight-curve $-1 -63.050019837031158 0 0.96262264336363934 0 -1 0 I I #
point $-1 -63.050019837031158 -37.721102599481917 0.96262264336363934 #
point $-1 -63.050019837031158 37.721102599481917 0.96262264336363934 #
straight-curve $-1 -63.050019837031158 37.721102599481917 0 0 0 -1 I I #
straight-curve $-1 -63.050019837031158 -37.721102599481917 0 0 0 -1 I I #
straight-curve $-1 63.050019837031158 -37.721102599481917 0 0 0 -1 I I #
straight-curve $-1 0 -37.721102599481917 13.612152640684652 1 0 0 I I #
point $-1 63.050019837031158 -37.721102599481917 3.2765632577229029 #
straight-curve $-1 63.050019837031158 -15.913557781886295 3.2765632577229127 0 1 0 I I #
point $-1 63.050019837031158 -37.721102599481917 13.612152640684652 #
point $-1 55.820193372121452 -34.353110007648013 5.9307926147235355 #
point $-1 55.820193372121452 -29.301121119897168 5.9307926147235355 #
End-of-ACIS-data 