500 0 18 0           
7 Unknown 11 ACIS 5.0 NT 24 Fri Mar 26 19:24:17 1999 
-1 9.9999999999999995e-007 1e-010 
body $-1 $18 $-1 $19 #
body $-1 $20 $-1 $21 #
body $-1 $22 $-1 $23 #
body $-1 $24 $-1 $25 #
body $-1 $26 $-1 $27 #
body $-1 $28 $-1 $29 #
body $-1 $30 $-1 $31 #
body $-1 $32 $-1 $33 #
body $-1 $34 $-1 $35 #
body $-1 $36 $-1 $37 #
body $-1 $38 $-1 $39 #
body $-1 $40 $-1 $41 #
body $-1 $42 $-1 $43 #
body $-1 $44 $-1 $45 #
body $-1 $46 $-1 $47 #
body $-1 $48 $-1 $49 #
body $-1 $50 $-1 $51 #
body $-1 $52 $-1 $53 #
lump $-1 $-1 $54 $0 #
transform $-1 1 0 0 0 1 0 0 0 1 70.98727378154851 30.341443082757696 13.057552583001172 1 rotate no_reflect no_shear #
lump $-1 $-1 $55 $1 #
transform $-1 1 0 0 0 1 0 0 0 1 70.98727378154851 30.341443082757696 13.057552583001172 1 rotate no_reflect no_shear #
lump $-1 $-1 $56 $2 #
transform $-1 1 0 0 0 1 0 0 0 1 70.98727378154851 30.341443082757696 13.057552583001172 1 rotate no_reflect no_shear #
lump $-1 $-1 $57 $3 #
transform $-1 1 0 0 0 1 0 0 0 1 70.98727378154851 30.341443082757696 13.057552583001172 1 rotate no_reflect no_shear #
lump $-1 $-1 $58 $4 #
transform $-1 1 0 0 0 1 0 0 0 1 70.98727378154851 30.341443082757696 13.057552583001172 1 rotate no_reflect no_shear #
lump $-1 $-1 $59 $5 #
transform $-1 1 0 0 0 1 0 0 0 1 70.98727378154851 30.341443082757696 13.057552583001172 1 rotate no_reflect no_shear #
lump $-1 $-1 $60 $6 #
transform $-1 1 0 0 0 1 0 0 0 1 70.98727378154851 30.341443082757696 13.057552583001172 1 rotate no_reflect no_shear #
lump $-1 $-1 $61 $7 #
transform $-1 1 0 0 0 1 0 0 0 1 70.98727378154851 30.341443082757696 13.057552583001172 1 rotate no_reflect no_shear #
lump $-1 $-1 $62 $8 #
transform $-1 1 0 0 0 1 0 0 0 1 70.98727378154851 30.341443082757696 13.057552583001172 1 rotate no_reflect no_shear #
lump $-1 $-1 $63 $9 #
transform $-1 1 0 0 0 1 0 0 0 1 70.98727378154851 30.341443082757696 13.057552583001172 1 rotate no_reflect no_shear #
lump $-1 $-1 $64 $10 #
transform $-1 1 0 0 0 1 0 0 0 1 70.98727378154851 30.341443082757696 13.057552583001172 1 rotate no_reflect no_shear #
lump $-1 $-1 $65 $11 #
transform $-1 1 0 0 0 1 0 0 0 1 70.98727378154851 30.341443082757696 13.057552583001172 1 rotate no_reflect no_shear #
lump $-1 $-1 $66 $12 #
transform $-1 1 0 0 0 1 0 0 0 1 70.98727378154851 30.341443082757696 13.057552583001172 1 rotate no_reflect no_shear #
lump $-1 $-1 $67 $13 #
transform $-1 1 0 0 0 1 0 0 0 1 70.98727378154851 30.341443082757696 13.057552583001172 1 rotate no_reflect no_shear #
lump $-1 $-1 $68 $14 #
transform $-1 1 0 0 0 1 0 0 0 1 70.98727378154851 30.341443082757696 13.057552583001172 1 rotate no_reflect no_shear #
lump $-1 $-1 $69 $15 #
transform $-1 1 0 0 0 1 0 0 0 1 70.98727378154851 30.341443082757696 13.057552583001172 1 rotate no_reflect no_shear #
lump $-1 $-1 $70 $16 #
transform $-1 1 0 0 0 1 0 0 0 1 70.98727378154851 30.341443082757696 13.057552583001172 1 rotate no_reflect no_shear #
lump $-1 $-1 $71 $17 #
transform $-1 1 0 0 0 1 0 0 0 1 70.98727378154851 30.341443082757696 13.057552583001172 1 rotate no_reflect no_shear #
shell $-1 $-1 $-1 $72 $-1 $18 #
shell $-1 $-1 $-1 $73 $-1 $20 #
shell $-1 $-1 $-1 $74 $-1 $22 #
shell $-1 $-1 $-1 $75 $-1 $24 #
shell $-1 $-1 $-1 $76 $-1 $26 #
shell $-1 $-1 $-1 $77 $-1 $28 #
shell $-1 $-1 $-1 $78 $-1 $30 #
shell $-1 $-1 $-1 $79 $-1 $32 #
shell $-1 $-1 $-1 $80 $-1 $34 #
shell $-1 $-1 $-1 $81 $-1 $36 #
shell $-1 $-1 $-1 $82 $-1 $38 #
shell $-1 $-1 $-1 $83 $-1 $40 #
shell $-1 $-1 $-1 $84 $-1 $42 #
shell $-1 $-1 $-1 $85 $-1 $44 #
shell $-1 $-1 $-1 $86 $-1 $46 #
shell $-1 $-1 $-1 $87 $-1 $48 #
shell $-1 $-1 $-1 $88 $-1 $50 #
shell $-1 $-1 $-1 $89 $-1 $52 #
face $-1 $90 $91 $54 $-1 $92 forward single #
face $-1 $93 $94 $55 $-1 $95 reversed single #
face $-1 $96 $97 $56 $-1 $98 reversed single #
face $-1 $99 $100 $57 $-1 $101 forward single #
face $-1 $102 $103 $58 $-1 $104 forward single #
face $-1 $105 $106 $59 $-1 $107 forward single #
face $-1 $108 $109 $60 $-1 $110 reversed single #
face $-1 $111 $112 $61 $-1 $113 forward single #
face $-1 $114 $115 $62 $-1 $116 forward single #
face $-1 $117 $118 $63 $-1 $119 forward single #
face $-1 $120 $121 $64 $-1 $122 reversed single #
face $-1 $123 $124 $65 $-1 $125 forward single #
face $-1 $126 $127 $66 $-1 $128 reversed single #
face $-1 $129 $130 $67 $-1 $131 forward single #
face $-1 $132 $133 $68 $-1 $134 reversed single #
face $-1 $135 $136 $69 $-1 $137 forward single #
face $-1 $138 $139 $70 $-1 $140 reversed single #
face $-1 $141 $142 $71 $-1 $143 forward single #
face $-1 $144 $145 $54 $-1 $146 reversed single #
loop $-1 $-1 $147 $72 #
plane-surface $-1 0 0 13.057552583001172 0 0 1 1 0 0 forward_v I I I I #
face $-1 $148 $149 $55 $-1 $150 reversed single #
loop $-1 $-1 $151 $73 #
plane-surface $-1 -53.598918367019138 -21.736345772322888 0 1 0 0 0 0 -1 forward_v I I I I #
face $-1 $152 $153 $56 $-1 $154 reversed single #
loop $-1 $-1 $155 $74 #
plane-surface $-1 77.994478500521524 6.4194253287899166 210.71051234789405 0 -1 0 -0.73135370988377701 0 -0.68199835119979291 forward_v I I I I #
face $-1 $156 $157 $57 $-1 $158 forward single #
loop $-1 $159 $160 $75 #
cone-surface $-1 69.219532714153985 0.65099067987013015 11.21302357999245 -0.73135370988377701 0 -0.68199835119979291 0.34099917559989645 0 -0.36567685494188851 1 I I 0 1 0.5 forward I I I I #
face $-1 $161 $162 $58 $-1 $163 forward single #
loop $-1 $164 $165 $76 #
cone-surface $-1 69.219532714153985 2.8141536732150492 11.21302357999245 -0.73135370988377701 0 -0.68199835119979291 0.34099917559989645 0 -0.36567685494188851 1 I I 0 1 0.5 forward I I I I #
face $-1 $166 $167 $59 $-1 $168 forward single #
loop $-1 $169 $170 $77 #
cone-surface $-1 69.219532714153985 4.9773166665599682 11.21302357999245 -0.73135370988377701 0 -0.68199835119979291 0.34099917559989645 0 -0.36567685494188851 1 I I 0 1 0.5 forward I I I I #
face $-1 $171 $172 $60 $-1 $173 reversed single #
loop $-1 $-1 $174 $78 #
plane-surface $-1 77.994478500521524 18.001312603229433 210.71051234789405 0 -1 0 -0.73135370988377701 0 -0.68199835119979291 forward_v I I I I #
face $-1 $175 $176 $61 $-1 $177 forward single #
loop $-1 $178 $179 $79 #
cone-surface $-1 69.219532714153985 12.232877954309647 11.21302357999245 -0.73135370988377701 0 -0.68199835119979291 0.34099917559989645 0 -0.36567685494188851 1 I I 0 1 0.5 forward I I I I #
face $-1 $180 $181 $62 $-1 $182 forward single #
loop $-1 $183 $184 $80 #
cone-surface $-1 69.219532714153985 14.396040947654566 11.21302357999245 -0.73135370988377701 0 -0.68199835119979291 0.34099917559989645 0 -0.36567685494188851 1 I I 0 1 0.5 forward I I I I #
face $-1 $185 $186 $63 $-1 $187 forward single #
loop $-1 $188 $189 $81 #
cone-surface $-1 69.219532714153985 16.559203940999485 11.21302357999245 -0.73135370988377701 0 -0.68199835119979291 0.34099917559989645 0 -0.36567685494188851 1 I I 0 1 0.5 forward I I I I #
face $-1 $190 $191 $64 $-1 $192 reversed single #
loop $-1 $-1 $193 $82 #
plane-surface $-1 -181.32222122476986 -8.9287180641764206 90.907660055370627 0 1 0 -0.77714596973225614 0 0.62932038083071107 forward_v I I I I #
face $-1 $194 $195 $65 $-1 $196 forward single #
loop $-1 $197 $198 $83 #
cone-surface $-1 -65.009062779518018 -5.5958968199515304 6.2375091146431751 0.77714596973225614 0 -0.62932038083071107 0.9439805712460666 0 1.1657189545983841 1 I I 0 1 1.5 forward I I I I #
face $-1 $199 $200 $66 $-1 $201 reversed single #
loop $-1 $-1 $202 $84 #
plane-surface $-1 -181.32222122476986 0.53861135608113564 90.907660055370627 0 1 0 -0.77714596973225614 0 0.62932038083071107 forward_v I I I I #
face $-1 $203 $204 $67 $-1 $205 forward single #
loop $-1 $206 $207 $85 #
cone-surface $-1 -65.009062779518018 3.8714326003060258 6.2375091146431751 0.77714596973225614 0 -0.62932038083071107 0.9439805712460666 0 1.1657189545983841 1 I I 0 1 1.5 forward I I I I #
face $-1 $208 $209 $68 $-1 $210 reversed single #
loop $-1 $-1 $211 $86 #
plane-surface $-1 -181.32222122476986 10.005940776338692 90.907660055370627 0 1 0 -0.77714596973225614 0 0.62932038083071107 forward_v I I I I #
face $-1 $212 $213 $69 $-1 $214 forward single #
loop $-1 $215 $216 $87 #
cone-surface $-1 -65.009062779518018 13.338762020563582 6.2375091146431751 0.77714596973225614 0 -0.62932038083071107 0.9439805712460666 0 1.1657189545983841 1 I I 0 1 1.5 forward I I I I #
face $-1 $217 $218 $70 $-1 $219 reversed single #
loop $-1 $-1 $220 $88 #
plane-surface $-1 -181.32222122476986 19.473270196596246 90.907660055370627 0 1 0 -0.77714596973225614 0 0.62932038083071107 forward_v I I I I #
face $-1 $221 $222 $71 $-1 $223 forward single #
loop $-1 $224 $225 $89 #
cone-surface $-1 -65.009062779518018 22.806091440821138 6.2375091146431751 0.77714596973225614 0 -0.62932038083071107 0.9439805712460666 0 1.1657189545983841 1 I I 0 1 1.5 forward I I I I #
face $-1 $226 $227 $54 $-1 $228 reversed single #
loop $-1 $-1 $229 $90 #
plane-surface $-1 0 0 -13.057552583001172 0 0 1 1 0 0 forward_v I I I I #
coedge $-1 $230 $231 $232 $233 forward $91 $-1 #
face $-1 $234 $235 $55 $-1 $236 reversed single #
loop $-1 $-1 $237 $93 #
plane-surface $-1 -49.960202024642911 -13.131248461888081 0 0 -1 0 0 0 -1 forward_v I I I I #
coedge $-1 $238 $239 $240 $241 forward $94 $-1 #
face $-1 $242 $243 $56 $-1 $244 reversed single #
loop $-1 $-1 $245 $96 #
plane-surface $-1 -25.83913356882023 2.8141536732150492 113.88410499752531 0.73135370988377701 0 0.68199835119979291 0.68199835119979291 0 -0.73135370988377701 forward_v I I I I #
coedge $-1 $246 $247 $248 $249 reversed $97 $-1 #
face $-1 $-1 $250 $57 $-1 $251 forward single #
loop $-1 $252 $253 $99 #
cone-surface $-1 68.671017431741149 0.65099067987013015 10.701524816592606 -0.73135370988377701 0 -0.68199835119979291 0.17049958779994823 0 -0.18283842747094425 1 I I -0.70710678118654746 0.70710678118654746 0.25 forward I I I I #
loop $-1 $-1 $254 $75 #
coedge $-1 $160 $160 $255 $256 reversed $100 $-1 #
face $-1 $-1 $257 $58 $-1 $258 forward single #
loop $-1 $259 $260 $102 #
cone-surface $-1 68.671017431741149 2.8141536732150492 10.701524816592606 -0.73135370988377701 0 -0.68199835119979291 0.17049958779994823 0 -0.18283842747094425 1 I I -0.70710678118654746 0.70710678118654746 0.25 forward I I I I #
loop $-1 $-1 $261 $76 #
coedge $-1 $165 $165 $262 $263 reversed $103 $-1 #
face $-1 $-1 $264 $59 $-1 $265 forward single #
loop $-1 $266 $267 $105 #
cone-surface $-1 68.671017431741149 4.9773166665599682 10.701524816592606 -0.73135370988377701 0 -0.68199835119979291 0.17049958779994823 0 -0.18283842747094425 1 I I -0.70710678118654746 0.70710678118654746 0.25 forward I I I I #
loop $-1 $-1 $268 $77 #
coedge $-1 $170 $170 $269 $270 reversed $106 $-1 #
face $-1 $271 $272 $60 $-1 $273 reversed single #
loop $-1 $-1 $274 $108 #
plane-surface $-1 -25.83913356882023 14.396040947654566 113.88410499752531 0.73135370988377701 0 0.68199835119979291 0.68199835119979291 0 -0.73135370988377701 forward_v I I I I #
coedge $-1 $275 $276 $277 $278 reversed $109 $-1 #
face $-1 $-1 $279 $61 $-1 $280 forward single #
loop $-1 $281 $282 $111 #
cone-surface $-1 68.671017431741149 12.232877954309647 10.701524816592606 -0.73135370988377701 0 -0.68199835119979291 0.17049958779994823 0 -0.18283842747094425 1 I I -0.70710678118654746 0.70710678118654746 0.25 forward I I I I #
loop $-1 $-1 $283 $79 #
coedge $-1 $179 $179 $284 $285 reversed $112 $-1 #
face $-1 $-1 $286 $62 $-1 $287 forward single #
loop $-1 $288 $289 $114 #
cone-surface $-1 68.671017431741149 14.396040947654566 10.701524816592606 -0.73135370988377701 0 -0.68199835119979291 0.17049958779994823 0 -0.18283842747094425 1 I I -0.70710678118654746 0.70710678118654746 0.25 forward I I I I #
loop $-1 $-1 $290 $80 #
coedge $-1 $184 $184 $291 $292 reversed $115 $-1 #
face $-1 $-1 $293 $63 $-1 $294 forward single #
loop $-1 $295 $296 $117 #
cone-surface $-1 68.671017431741149 16.559203940999485 10.701524816592606 -0.73135370988377701 0 -0.68199835119979291 0.17049958779994823 0 -0.18283842747094425 1 I I -0.70710678118654746 0.70710678118654746 0.25 forward I I I I #
loop $-1 $-1 $297 $81 #
coedge $-1 $189 $189 $298 $299 reversed $118 $-1 #
face $-1 $300 $301 $64 $-1 $302 reversed single #
loop $-1 $-1 $303 $120 #
plane-surface $-1 -70.98727378154851 -5.5958968199515304 1.560183714694503 -0.77714596973225614 0 0.62932038083071107 0.62932038083071107 0 0.77714596973225614 forward_v I I I I #
coedge $-1 $304 $305 $306 $307 reversed $121 $-1 #
face $-1 $-1 $308 $65 $-1 $309 forward single #
loop $-1 $310 $311 $123 #
cone-surface $-1 -63.103185041679801 -5.5958968199515304 4.694159794815473 0.77714596973225614 0 -0.62932038083071107 0.4719902856230333 0 0.58285947729919207 1 I I -0.70710678118654757 0.70710678118654757 0.75 forward I I I I #
loop $-1 $-1 $312 $83 #
coedge $-1 $198 $198 $313 $314 reversed $124 $-1 #
face $-1 $315 $316 $66 $-1 $317 reversed single #
loop $-1 $-1 $318 $126 #
plane-surface $-1 -70.98727378154851 3.8714326003060258 1.560183714694503 -0.77714596973225614 0 0.62932038083071107 0.62932038083071107 0 0.77714596973225614 forward_v I I I I #
coedge $-1 $319 $320 $321 $322 reversed $127 $-1 #
face $-1 $-1 $323 $67 $-1 $324 forward single #
loop $-1 $325 $326 $129 #
cone-surface $-1 -63.103185041679801 3.8714326003060258 4.694159794815473 0.77714596973225614 0 -0.62932038083071107 0.4719902856230333 0 0.58285947729919207 1 I I -0.70710678118654757 0.70710678118654757 0.75 forward I I I I #
loop $-1 $-1 $327 $85 #
coedge $-1 $207 $207 $328 $329 reversed $130 $-1 #
face $-1 $330 $331 $68 $-1 $332 reversed single #
loop $-1 $-1 $333 $132 #
plane-surface $-1 -70.98727378154851 13.338762020563582 1.560183714694503 -0.77714596973225614 0 0.62932038083071107 0.62932038083071107 0 0.77714596973225614 forward_v I I I I #
coedge $-1 $334 $335 $336 $337 reversed $133 $-1 #
face $-1 $-1 $338 $69 $-1 $339 forward single #
loop $-1 $340 $341 $135 #
cone-surface $-1 -63.103185041679801 13.338762020563582 4.694159794815473 0.77714596973225614 0 -0.62932038083071107 0.4719902856230333 0 0.58285947729919207 1 I I -0.70710678118654757 0.70710678118654757 0.75 forward I I I I #
loop $-1 $-1 $342 $87 #
coedge $-1 $216 $216 $343 $344 reversed $136 $-1 #
face $-1 $345 $346 $70 $-1 $347 reversed single #
loop $-1 $-1 $348 $138 #
plane-surface $-1 -70.98727378154851 22.806091440821138 1.560183714694503 -0.77714596973225614 0 0.62932038083071107 0.62932038083071107 0 0.77714596973225614 forward_v I I I I #
coedge $-1 $349 $350 $351 $352 reversed $139 $-1 #
face $-1 $-1 $353 $71 $-1 $354 forward single #
loop $-1 $355 $356 $141 #
cone-surface $-1 -63.103185041679801 22.806091440821138 4.694159794815473 0.77714596973225614 0 -0.62932038083071107 0.4719902856230333 0 0.58285947729919207 1 I I -0.70710678118654757 0.70710678118654757 0.75 forward I I I I #
loop $-1 $-1 $357 $89 #
coedge $-1 $225 $225 $358 $359 reversed $142 $-1 #
face $-1 $360 $361 $54 $-1 $362 reversed single #
loop $-1 $-1 $363 $144 #
plane-surface $-1 0 -30.341443082757696 0 0 1 0 0 0 1 forward_v I I I I #
coedge $-1 $364 $365 $366 $367 forward $145 $-1 #
coedge $-1 $368 $147 $369 $370 forward $91 $-1 #
coedge $-1 $147 $368 $371 $372 forward $91 $-1 #
coedge $-1 $373 $374 $147 $233 reversed $375 $-1 #
edge $-1 $376 -30.341443082757696 $377 30.341443082757696 $232 $378 forward 7 unknown #
face $-1 $379 $380 $55 $-1 $381 forward single #
loop $-1 $-1 $382 $148 #
plane-surface $-1 -46.321485682266683 -21.736345772322888 0 -1 0 0 0 0 1 forward_v I I I I #
coedge $-1 $383 $384 $385 $386 forward $149 $-1 #
coedge $-1 $387 $151 $388 $389 reversed $94 $-1 #
coedge $-1 $151 $387 $390 $391 reversed $94 $-1 #
coedge $-1 $384 $383 $151 $241 reversed $149 $-1 #
edge $-1 $392 -13.057552583001172 $393 13.057552583001172 $240 $394 forward 7 unknown #
face $-1 $395 $396 $56 $-1 $397 reversed single #
loop $-1 $-1 $398 $152 #
plane-surface $-1 77.994478500521524 -0.79111798235981823 210.71051234789405 0 1 0 0.73135370988377701 0 0.68199835119979291 forward_v I I I I #
coedge $-1 $399 $400 $401 $402 reversed $153 $-1 #
coedge $-1 $247 $155 $403 $404 reversed $97 $-1 #
coedge $-1 $155 $246 $399 $405 reversed $97 $-1 #
coedge $-1 $401 $406 $155 $249 forward $407 $-1 #
edge $-1 $408 -31.990034531287748 $409 -29.185906106382475 $248 $410 forward 7 unknown #
loop $-1 $-1 $255 $156 #
plane-surface $-1 -25.83913356882023 2.8141536732150492 113.88410499752531 0.73135370988377701 0 0.68199835119979291 0.68199835119979291 0 -0.73135370988377701 forward_v I I I I #
loop $-1 $-1 $411 $99 #
coedge $-1 $253 $253 $254 $412 reversed $157 $-1 #
coedge $-1 $254 $254 $253 $412 forward $159 $-1 #
coedge $-1 $255 $255 $160 $256 forward $250 $-1 #
edge $-1 $413 0 $413 6.2831853071796004 $255 $414 forward 7 unknown #
loop $-1 $-1 $262 $161 #
plane-surface $-1 -25.83913356882023 2.8141536732150492 113.88410499752531 0.73135370988377701 0 0.68199835119979291 0.68199835119979291 0 -0.73135370988377701 forward_v I I I I #
loop $-1 $-1 $415 $102 #
coedge $-1 $260 $260 $261 $416 reversed $162 $-1 #
coedge $-1 $261 $261 $260 $416 forward $164 $-1 #
coedge $-1 $262 $262 $165 $263 forward $257 $-1 #
edge $-1 $417 0 $417 6.2831853071796004 $262 $418 forward 7 unknown #
loop $-1 $-1 $269 $166 #
plane-surface $-1 -25.83913356882023 2.8141536732150492 113.88410499752531 0.73135370988377701 0 0.68199835119979291 0.68199835119979291 0 -0.73135370988377701 forward_v I I I I #
loop $-1 $-1 $419 $105 #
coedge $-1 $267 $267 $268 $420 reversed $167 $-1 #
coedge $-1 $268 $268 $267 $420 forward $169 $-1 #
coedge $-1 $269 $269 $170 $270 forward $264 $-1 #
edge $-1 $421 0 $421 6.2831853071796004 $269 $422 forward 7 unknown #
face $-1 $423 $424 $60 $-1 $425 reversed single #
loop $-1 $-1 $426 $171 #
plane-surface $-1 77.994478500521524 10.790769292079698 210.71051234789405 0 1 0 0.73135370988377701 0 0.68199835119979291 forward_v I I I I #
coedge $-1 $427 $428 $429 $430 reversed $172 $-1 #
coedge $-1 $276 $174 $431 $432 reversed $109 $-1 #
coedge $-1 $174 $275 $427 $433 reversed $109 $-1 #
coedge $-1 $429 $434 $174 $278 forward $435 $-1 #
edge $-1 $436 -31.990034531287748 $437 -29.185906106382475 $277 $438 forward 7 unknown #
loop $-1 $-1 $284 $175 #
plane-surface $-1 -25.83913356882023 14.396040947654566 113.88410499752531 0.73135370988377701 0 0.68199835119979291 0.68199835119979291 0 -0.73135370988377701 forward_v I I I I #
loop $-1 $-1 $439 $111 #
coedge $-1 $282 $282 $283 $440 reversed $176 $-1 #
coedge $-1 $283 $283 $282 $440 forward $178 $-1 #
coedge $-1 $284 $284 $179 $285 forward $279 $-1 #
edge $-1 $441 0 $441 6.2831853071796004 $284 $442 forward 7 unknown #
loop $-1 $-1 $291 $180 #
plane-surface $-1 -25.83913356882023 14.396040947654566 113.88410499752531 0.73135370988377701 0 0.68199835119979291 0.68199835119979291 0 -0.73135370988377701 forward_v I I I I #
loop $-1 $-1 $443 $114 #
coedge $-1 $289 $289 $290 $444 reversed $181 $-1 #
coedge $-1 $290 $290 $289 $444 forward $183 $-1 #
coedge $-1 $291 $291 $184 $292 forward $286 $-1 #
edge $-1 $445 0 $445 6.2831853071796004 $291 $446 forward 7 unknown #
loop $-1 $-1 $298 $185 #
plane-surface $-1 -25.83913356882023 14.396040947654566 113.88410499752531 0.73135370988377701 0 0.68199835119979291 0.68199835119979291 0 -0.73135370988377701 forward_v I I I I #
loop $-1 $-1 $447 $117 #
coedge $-1 $296 $296 $297 $448 reversed $186 $-1 #
coedge $-1 $297 $297 $296 $448 forward $188 $-1 #
coedge $-1 $298 $298 $189 $299 forward $293 $-1 #
edge $-1 $449 0 $449 6.2831853071796004 $298 $450 forward 7 unknown #
face $-1 $451 $452 $64 $-1 $453 reversed single #
loop $-1 $-1 $454 $190 #
plane-surface $-1 -181.32222122476986 -2.2630755757266403 90.907660055370627 0 -1 0 0.77714596973225614 0 -0.62932038083071107 forward_v I I I I #
coedge $-1 $455 $456 $457 $458 reversed $191 $-1 #
coedge $-1 $305 $193 $459 $460 reversed $121 $-1 #
coedge $-1 $193 $304 $455 $461 reversed $121 $-1 #
coedge $-1 $457 $462 $193 $307 forward $463 $-1 #
edge $-1 $464 19.673836830836422 $465 28.984222313819387 $306 $466 forward 7 unknown #
loop $-1 $-1 $313 $194 #
plane-surface $-1 -70.98727378154851 -5.5958968199515304 1.560183714694503 -0.77714596973225614 0 0.62932038083071107 0.62932038083071107 0 0.77714596973225614 forward_v I I I I #
loop $-1 $-1 $467 $123 #
coedge $-1 $311 $311 $312 $468 reversed $195 $-1 #
coedge $-1 $312 $312 $311 $468 forward $197 $-1 #
coedge $-1 $313 $313 $198 $314 forward $308 $-1 #
edge $-1 $469 0 $469 6.2831853071796004 $313 $470 forward 7 unknown #
face $-1 $471 $472 $66 $-1 $473 forward single #
loop $-1 $-1 $474 $199 #
plane-surface $-1 -181.32222122476986 7.2042538445309159 90.907660055370627 0 -1 0 0.77714596973225614 0 -0.62932038083071107 forward_v I I I I #
coedge $-1 $475 $476 $477 $478 reversed $200 $-1 #
coedge $-1 $320 $202 $479 $480 reversed $127 $-1 #
coedge $-1 $202 $319 $475 $481 reversed $127 $-1 #
coedge $-1 $477 $482 $202 $322 forward $472 $-1 #
edge $-1 $483 19.673836830836422 $484 28.984222313819387 $321 $485 forward 7 unknown #
loop $-1 $-1 $328 $203 #
plane-surface $-1 -70.98727378154851 3.8714326003060258 1.560183714694503 -0.77714596973225614 0 0.62932038083071107 0.62932038083071107 0 0.77714596973225614 forward_v I I I I #
loop $-1 $-1 $486 $129 #
coedge $-1 $326 $326 $327 $487 reversed $204 $-1 #
coedge $-1 $327 $327 $326 $487 forward $206 $-1 #
coedge $-1 $328 $328 $207 $329 forward $323 $-1 #
edge $-1 $488 0 $488 6.2831853071796004 $328 $489 forward 7 unknown #
face $-1 $490 $491 $68 $-1 $492 forward single #
loop $-1 $-1 $493 $208 #
plane-surface $-1 -181.32222122476986 16.671583264788474 90.907660055370627 0 -1 0 0.77714596973225614 0 -0.62932038083071107 forward_v I I I I #
coedge $-1 $494 $495 $496 $497 reversed $209 $-1 #
coedge $-1 $335 $211 $498 $499 reversed $133 $-1 #
coedge $-1 $211 $334 $494 $500 reversed $133 $-1 #
coedge $-1 $496 $501 $211 $337 forward $491 $-1 #
edge $-1 $502 19.673836830836422 $503 28.984222313819387 $336 $504 forward 7 unknown #
loop $-1 $-1 $343 $212 #
plane-surface $-1 -70.98727378154851 13.338762020563582 1.560183714694503 -0.77714596973225614 0 0.62932038083071107 0.62932038083071107 0 0.77714596973225614 forward_v I I I I #
loop $-1 $-1 $505 $135 #
coedge $-1 $341 $341 $342 $506 reversed $213 $-1 #
coedge $-1 $342 $342 $341 $506 forward $215 $-1 #
coedge $-1 $343 $343 $216 $344 forward $338 $-1 #
edge $-1 $507 0 $507 6.2831853071796004 $343 $508 forward 7 unknown #
face $-1 $509 $510 $70 $-1 $511 forward single #
loop $-1 $-1 $512 $217 #
plane-surface $-1 -181.32222122476986 26.13891268504603 90.907660055370627 0 -1 0 0.77714596973225614 0 -0.62932038083071107 forward_v I I I I #
coedge $-1 $513 $514 $515 $516 reversed $218 $-1 #
coedge $-1 $350 $220 $517 $518 reversed $139 $-1 #
coedge $-1 $220 $349 $513 $519 reversed $139 $-1 #
coedge $-1 $515 $520 $220 $352 forward $510 $-1 #
edge $-1 $521 19.673836830836422 $522 28.984222313819387 $351 $523 forward 7 unknown #
loop $-1 $-1 $358 $221 #
plane-surface $-1 -70.98727378154851 22.806091440821138 1.560183714694503 -0.77714596973225614 0 0.62932038083071107 0.62932038083071107 0 0.77714596973225614 forward_v I I I I #
loop $-1 $-1 $524 $141 #
coedge $-1 $356 $356 $357 $525 reversed $222 $-1 #
coedge $-1 $357 $357 $356 $525 forward $224 $-1 #
coedge $-1 $358 $358 $225 $359 forward $353 $-1 #
edge $-1 $526 0 $526 6.2831853071796004 $358 $527 forward 7 unknown #
face $-1 $528 $529 $54 $-1 $530 reversed single #
loop $-1 $-1 $531 $226 #
plane-surface $-1 -70.98727378154851 0 0 1 0 0 0 0 -1 forward_v I I I I #
coedge $-1 $532 $371 $533 $534 forward $227 $-1 #
coedge $-1 $535 $229 $532 $536 forward $145 $-1 #
coedge $-1 $229 $535 $537 $538 forward $145 $-1 #
coedge $-1 $374 $373 $229 $367 reversed $375 $-1 #
edge $-1 $539 -30.341443082757696 $540 30.341443082757696 $366 $541 forward 7 unknown #
coedge $-1 $231 $230 $542 $543 forward $91 $-1 #
coedge $-1 $544 $545 $230 $370 reversed $529 $-1 #
edge $-1 $377 -70.98727378154851 $546 70.98727378154851 $369 $547 forward 7 unknown #
coedge $-1 $363 $548 $231 $372 reversed $227 $-1 #
edge $-1 $549 -70.98727378154851 $376 70.98727378154851 $371 $550 forward 7 unknown #
coedge $-1 $366 $232 $548 $551 forward $375 $-1 #
coedge $-1 $232 $366 $544 $552 reversed $375 $-1 #
loop $-1 $-1 $373 $528 #
vertex $-1 $233 $553 #
vertex $-1 $233 $554 #
straight-curve $-1 70.98727378154851 0 13.057552583001172 0 1 0 I I #
face $-1 $555 $556 $55 $-1 $557 reversed single #
loop $-1 $-1 $558 $234 #
plane-surface $-1 0 0 13.057552583001172 0 0 1 1 0 0 forward_v I I I I #
coedge $-1 $559 $560 $561 $562 reversed $235 $-1 #
coedge $-1 $240 $237 $563 $564 reversed $149 $-1 #
coedge $-1 $237 $240 $565 $566 reversed $149 $-1 #
coedge $-1 $560 $559 $237 $386 reversed $235 $-1 #
edge $-1 $567 -13.057552583001172 $568 13.057552583001172 $385 $569 forward 7 unknown #
coedge $-1 $239 $238 $570 $571 reversed $94 $-1 #
coedge $-1 $563 $572 $238 $389 forward $556 $-1 #
edge $-1 $573 -19.473270196596253 $393 -2.2630755757266368 $388 $574 forward 7 unknown #
coedge $-1 $575 $565 $239 $391 forward $380 $-1 #
edge $-1 $392 2.2630755757266368 $576 19.473270196596253 $390 $577 forward 7 unknown #
vertex $-1 $391 $578 #
vertex $-1 $389 $579 #
straight-curve $-1 -53.598918367019138 -13.131248461888081 0 0 0 -1 I I #
face $-1 $-1 $407 $56 $-1 $580 forward single #
loop $-1 $-1 $581 $242 #
plane-surface $-1 70.98727378154851 0 0 -1 0 0 0 0 1 forward_v I I I I #
coedge $-1 $582 $583 $584 $585 reversed $243 $-1 #
coedge $-1 $586 $245 $247 $405 forward $153 $-1 #
coedge $-1 $245 $586 $582 $587 forward $153 $-1 #
coedge $-1 $584 $248 $245 $402 forward $407 $-1 #
edge $-1 $409 -5.012348492182392 $588 2.1981948189673428 $401 $589 forward 7 unknown #
coedge $-1 $590 $591 $246 $404 forward $396 $-1 #
edge $-1 $592 -95.304763245763468 $408 -92.297703590945858 $403 $593 forward 7 unknown #
edge $-1 $409 137.86291236636646 $592 141.97454756309702 $247 $594 forward 7 unknown #
coedge $-1 $248 $584 $590 $595 forward $407 $-1 #
loop $-1 $-1 $584 $395 #
vertex $-1 $404 $596 #
vertex $-1 $249 $597 #
straight-curve $-1 38.997239250260762 6.4194253287899166 13.057552583001169 -1 0 0 I I #
coedge $-1 $411 $411 $-1 $598 reversed $252 $-1 #
edge $-1 $599 0 $599 6.2831853071796004 $253 $600 forward 7 unknown #
vertex $-1 $256 $601 #
ellipse-curve $-1 69.585209569095866 0.65099067987013015 11.554022755592346 0.73135370988377701 0 0.68199835119979291 0.34099917559989645 0 -0.36567685494188851 1 I I #
coedge $-1 $415 $415 $-1 $602 reversed $259 $-1 #
edge $-1 $603 0 $603 6.2831853071796004 $260 $604 forward 7 unknown #
vertex $-1 $263 $605 #
ellipse-curve $-1 69.585209569095866 2.8141536732150492 11.554022755592346 0.73135370988377701 0 0.68199835119979291 0.34099917559989645 0 -0.36567685494188851 1 I I #
coedge $-1 $419 $419 $-1 $606 reversed $266 $-1 #
edge $-1 $607 0 $607 6.2831853071796004 $267 $608 forward 7 unknown #
vertex $-1 $270 $609 #
ellipse-curve $-1 69.585209569095866 4.9773166665599682 11.554022755592346 0.73135370988377701 0 0.68199835119979291 0.34099917559989645 0 -0.36567685494188851 1 I I #
face $-1 $-1 $435 $60 $-1 $610 forward single #
loop $-1 $-1 $611 $271 #
plane-surface $-1 70.98727378154851 0 0 -1 0 0 0 0 1 forward_v I I I I #
coedge $-1 $612 $613 $614 $615 reversed $272 $-1 #
coedge $-1 $616 $274 $276 $433 forward $172 $-1 #
coedge $-1 $274 $616 $612 $617 forward $172 $-1 #
coedge $-1 $614 $277 $274 $430 forward $435 $-1 #
edge $-1 $437 -10.80329212940215 $618 -3.5927488182524154 $429 $619 forward 7 unknown #
coedge $-1 $620 $621 $275 $432 forward $424 $-1 #
edge $-1 $622 -95.304763245763468 $436 -92.297703590945858 $431 $623 forward 7 unknown #
edge $-1 $437 137.86291236636646 $622 141.97454756309702 $276 $624 forward 7 unknown #
coedge $-1 $277 $614 $620 $625 forward $435 $-1 #
loop $-1 $-1 $614 $423 #
vertex $-1 $432 $626 #
vertex $-1 $278 $627 #
straight-curve $-1 38.997239250260762 18.001312603229433 13.057552583001169 -1 0 0 I I #
coedge $-1 $439 $439 $-1 $628 reversed $281 $-1 #
edge $-1 $629 0 $629 6.2831853071796004 $282 $630 forward 7 unknown #
vertex $-1 $285 $631 #
ellipse-curve $-1 69.585209569095866 12.232877954309647 11.554022755592346 0.73135370988377701 0 0.68199835119979291 0.34099917559989645 0 -0.36567685494188851 1 I I #
coedge $-1 $443 $443 $-1 $632 reversed $288 $-1 #
edge $-1 $633 0 $633 6.2831853071796004 $289 $634 forward 7 unknown #
vertex $-1 $292 $635 #
ellipse-curve $-1 69.585209569095866 14.396040947654566 11.554022755592346 0.73135370988377701 0 0.68199835119979291 0.34099917559989645 0 -0.36567685494188851 1 I I #
coedge $-1 $447 $447 $-1 $636 reversed $295 $-1 #
edge $-1 $637 0 $637 6.2831853071796004 $296 $638 forward 7 unknown #
vertex $-1 $299 $639 #
ellipse-curve $-1 69.585209569095866 16.559203940999485 11.554022755592346 0.73135370988377701 0 0.68199835119979291 0.34099917559989645 0 -0.36567685494188851 1 I I #
face $-1 $-1 $463 $64 $-1 $640 forward single #
loop $-1 $-1 $641 $300 #
plane-surface $-1 -70.98727378154851 0 0 1 0 0 0 0 -1 forward_v I I I I #
coedge $-1 $642 $643 $644 $645 reversed $301 $-1 #
coedge $-1 $646 $303 $305 $461 forward $191 $-1 #
coedge $-1 $303 $646 $642 $647 forward $191 $-1 #
coedge $-1 $644 $306 $303 $458 forward $463 $-1 #
edge $-1 $465 -6.1307696542006553 $648 0.53487283424912491 $457 $649 forward 7 unknown #
coedge $-1 $650 $651 $304 $460 forward $452 $-1 #
edge $-1 $652 -43.893646312990811 $464 -32.396277444684145 $459 $653 forward 7 unknown #
edge $-1 $465 -14.794349216361201 $652 0 $305 $654 forward 7 unknown #
coedge $-1 $306 $644 $650 $655 forward $463 $-1 #
loop $-1 $-1 $644 $451 #
vertex $-1 $460 $656 #
vertex $-1 $307 $657 #
straight-curve $-1 -90.661110612384931 -8.9287180641764206 13.057552583001176 1 0 0 I I #
coedge $-1 $467 $467 $-1 $658 reversed $310 $-1 #
edge $-1 $659 0 $659 6.2831853071796004 $311 $660 forward 7 unknown #
vertex $-1 $314 $661 #
ellipse-curve $-1 -66.332081040057034 -5.5958968199515304 7.3088681488478366 -0.77714596973225614 0 0.62932038083071107 0.9439805712460666 0 1.1657189545983841 1 I I #
face $-1 $-1 $662 $66 $-1 $663 reversed single #
loop $-1 $-1 $321 $315 #
plane-surface $-1 0 0 13.057552583001172 0 0 1 1 0 0 forward_v I I I I #
coedge $-1 $664 $665 $666 $667 reversed $316 $-1 #
coedge $-1 $668 $318 $320 $481 forward $200 $-1 #
coedge $-1 $318 $668 $664 $669 forward $200 $-1 #
coedge $-1 $666 $321 $318 $478 forward $472 $-1 #
edge $-1 $484 -1.3971049440718772 $670 5.268537544377903 $477 $671 forward 7 unknown #
coedge $-1 $672 $673 $319 $480 forward $662 $-1 #
edge $-1 $674 -43.893646312990811 $483 -32.396277444684145 $479 $675 forward 7 unknown #
edge $-1 $484 -14.794349216361201 $674 0 $320 $676 forward 7 unknown #
coedge $-1 $321 $666 $672 $677 forward $472 $-1 #
vertex $-1 $480 $678 #
vertex $-1 $322 $679 #
straight-curve $-1 -90.661110612384931 0.53861135608113564 13.057552583001176 1 0 0 I I #
coedge $-1 $486 $486 $-1 $680 reversed $325 $-1 #
edge $-1 $681 0 $681 6.2831853071796004 $326 $682 forward 7 unknown #
vertex $-1 $329 $683 #
ellipse-curve $-1 -66.332081040057034 3.8714326003060258 7.3088681488478366 -0.77714596973225614 0 0.62932038083071107 0.9439805712460666 0 1.1657189545983841 1 I I #
face $-1 $-1 $684 $68 $-1 $685 reversed single #
loop $-1 $-1 $336 $330 #
plane-surface $-1 0 0 13.057552583001172 0 0 1 1 0 0 forward_v I I I I #
coedge $-1 $686 $687 $688 $689 reversed $331 $-1 #
coedge $-1 $690 $333 $335 $500 forward $209 $-1 #
coedge $-1 $333 $690 $686 $691 forward $209 $-1 #
coedge $-1 $688 $336 $333 $497 forward $491 $-1 #
edge $-1 $503 3.3365597660569009 $692 10.002202254506683 $496 $693 forward 7 unknown #
coedge $-1 $694 $695 $334 $499 forward $684 $-1 #
edge $-1 $696 -43.893646312990811 $502 -32.396277444684145 $498 $697 forward 7 unknown #
edge $-1 $503 -14.794349216361201 $696 0 $335 $698 forward 7 unknown #
coedge $-1 $336 $688 $694 $699 forward $491 $-1 #
vertex $-1 $337 $700 #
vertex $-1 $337 $701 #
straight-curve $-1 -90.661110612384931 10.005940776338692 13.057552583001176 1 0 0 I I #
coedge $-1 $505 $505 $-1 $702 reversed $340 $-1 #
edge $-1 $703 0 $703 6.2831853071796004 $341 $704 forward 7 unknown #
vertex $-1 $344 $705 #
ellipse-curve $-1 -66.332081040057034 13.338762020563582 7.3088681488478366 -0.77714596973225614 0 0.62932038083071107 0.9439805712460666 0 1.1657189545983841 1 I I #
face $-1 $-1 $706 $70 $-1 $707 reversed single #
loop $-1 $-1 $351 $345 #
plane-surface $-1 0 0 13.057552583001172 0 0 1 1 0 0 forward_v I I I I #
coedge $-1 $708 $709 $710 $711 reversed $346 $-1 #
coedge $-1 $712 $348 $350 $519 forward $218 $-1 #
coedge $-1 $348 $712 $708 $713 forward $218 $-1 #
coedge $-1 $710 $351 $348 $516 forward $510 $-1 #
edge $-1 $522 8.0702244761856772 $714 14.735866964635461 $515 $715 forward 7 unknown #
coedge $-1 $716 $717 $349 $518 forward $706 $-1 #
edge $-1 $718 -43.893646312990811 $521 -32.396277444684145 $517 $719 forward 7 unknown #
edge $-1 $522 -14.794349216361201 $718 0 $350 $720 forward 7 unknown #
coedge $-1 $351 $710 $716 $721 forward $510 $-1 #
vertex $-1 $352 $722 #
vertex $-1 $352 $723 #
straight-curve $-1 -90.661110612384931 19.473270196596246 13.057552583001176 1 0 0 I I #
coedge $-1 $524 $524 $-1 $724 reversed $355 $-1 #
edge $-1 $725 0 $725 6.2831853071796004 $356 $726 forward 7 unknown #
vertex $-1 $359 $727 #
ellipse-curve $-1 -66.332081040057034 22.806091440821138 7.3088681488478366 -0.77714596973225614 0 0.62932038083071107 0.9439805712460666 0 1.1657189545983841 1 I I #
face $-1 $-1 $375 $54 $-1 $728 reversed single #
loop $-1 $-1 $544 $360 #
plane-surface $-1 0 30.341443082757696 0 0 -1 0 0 0 -1 forward_v I I I I #
coedge $-1 $729 $542 $545 $730 forward $361 $-1 #
coedge $-1 $548 $363 $364 $536 reversed $227 $-1 #
coedge $-1 $542 $729 $363 $534 reversed $361 $-1 #
edge $-1 $549 -13.057552583001172 $731 13.057552583001172 $533 $732 forward 7 unknown #
coedge $-1 $365 $364 $729 $733 forward $145 $-1 #
edge $-1 $540 -70.98727378154851 $731 70.98727378154851 $532 $734 forward 7 unknown #
coedge $-1 $545 $544 $365 $538 reversed $529 $-1 #
edge $-1 $735 -70.98727378154851 $539 70.98727378154851 $537 $736 forward 7 unknown #
vertex $-1 $367 $737 #
vertex $-1 $551 $738 #
straight-curve $-1 70.98727378154851 0 -13.057552583001172 0 -1 0 I I #
coedge $-1 $531 $533 $368 $543 reversed $361 $-1 #
edge $-1 $546 -30.341443082757696 $549 30.341443082757696 $542 $739 forward 7 unknown #
coedge $-1 $537 $369 $374 $552 forward $529 $-1 #
coedge $-1 $369 $537 $531 $730 reversed $529 $-1 #
vertex $-1 $370 $740 #
straight-curve $-1 0 30.341443082757696 13.057552583001172 -1 0 0 I I #
coedge $-1 $371 $532 $373 $551 reversed $227 $-1 #
vertex $-1 $543 $741 #
straight-curve $-1 0 -30.341443082757696 13.057552583001172 1 0 0 I I #
edge $-1 $376 -13.057552583001172 $540 13.057552583001172 $373 $742 forward 7 unknown #
edge $-1 $377 -13.057552583001172 $539 13.057552583001172 $374 $743 forward 7 unknown #
point $-1 70.98727378154851 -30.341443082757696 13.057552583001172 #
point $-1 70.98727378154851 30.341443082757696 13.057552583001172 #
face $-1 $-1 $744 $55 $-1 $745 reversed single #
loop $-1 $-1 $746 $379 #
plane-surface $-1 0 0 -13.057552583001172 0 0 1 1 0 0 forward_v I I I I #
coedge $-1 $565 $575 $560 $747 forward $380 $-1 #
coedge $-1 $385 $382 $746 $748 reversed $235 $-1 #
coedge $-1 $382 $385 $558 $747 reversed $235 $-1 #
coedge $-1 $749 $750 $382 $562 forward $744 $-1 #
edge $-1 $751 -13.057552583001172 $752 13.057552583001172 $561 $753 forward 7 unknown #
coedge $-1 $746 $388 $383 $564 forward $556 $-1 #
edge $-1 $393 -28.618817354697683 $568 -21.341384669945228 $563 $754 forward 7 unknown #
coedge $-1 $390 $558 $384 $566 forward $380 $-1 #
edge $-1 $567 21.341384669945228 $392 28.618817354697683 $565 $755 forward 7 unknown #
vertex $-1 $566 $756 #
vertex $-1 $564 $757 #
straight-curve $-1 -46.321485682266683 -13.131248461888081 0 0 0 -1 I I #
coedge $-1 $750 $749 $387 $571 forward $744 $-1 #
edge $-1 $576 -13.057552583001172 $573 13.057552583001172 $570 $758 forward 7 unknown #
coedge $-1 $388 $746 $750 $759 forward $556 $-1 #
vertex $-1 $389 $760 #
straight-curve $-1 -53.598918367019138 -10.868172886161444 -13.057552583001172 0 1 0 I I #
coedge $-1 $558 $390 $749 $761 forward $380 $-1 #
vertex $-1 $761 $762 #
straight-curve $-1 -53.598918367019138 -10.868172886161444 13.057552583001172 0 -1 0 I I #
point $-1 -53.598918367019138 -13.131248461888081 13.057552583001172 #
point $-1 -53.598918367019138 -13.131248461888081 -13.057552583001172 #
plane-surface $-1 0 0 13.057552583001172 0 0 1 1 0 0 forward_v I I I I #
coedge $-1 $591 $590 $583 $763 forward $396 $-1 #
coedge $-1 $583 $398 $400 $587 reversed $243 $-1 #
coedge $-1 $398 $582 $581 $763 reversed $243 $-1 #
coedge $-1 $406 $401 $398 $585 forward $407 $-1 #
edge $-1 $588 29.185906106382475 $764 31.990034531287748 $584 $765 forward 7 unknown #
coedge $-1 $400 $399 $591 $766 reversed $153 $-1 #
edge $-1 $767 -141.97454756309702 $588 -137.86291236636646 $582 $768 forward 7 unknown #
vertex $-1 $402 $769 #
straight-curve $-1 68.183145356643237 1.4070768366075246 13.057552583001169 0 -1 0 I I #
coedge $-1 $581 $403 $406 $595 reversed $396 $-1 #
coedge $-1 $403 $581 $586 $766 forward $396 $-1 #
vertex $-1 $404 $770 #
straight-curve $-1 70.98727378154851 6.4194253287899166 105.35525617394703 0 0 1 I I #
straight-curve $-1 -25.83913356882023 6.4194253287899166 113.88410499752531 0.68199835119979291 0 -0.73135370988377701 I I #
edge $-1 $764 -0.79111798235981823 $408 6.4194253287899166 $590 $771 forward 7 unknown #
point $-1 70.98727378154851 6.4194253287899166 13.057552583001172 #
point $-1 68.183145356643237 6.4194253287899166 13.057552583001169 #
edge $-1 $772 1 $772 0 $411 $-1 forward 7 unknown #
vertex $-1 $412 $773 #
ellipse-curve $-1 68.853855859212089 0.65099067987013015 10.872024404392555 0.73135370988377701 0 0.68199835119979291 0.34099917559989645 0 -0.36567685494188851 1 I I #
point $-1 69.926208744695771 0.65099067987013015 11.188345900650459 #
edge $-1 $774 1 $774 0 $415 $-1 forward 7 unknown #
vertex $-1 $416 $775 #
ellipse-curve $-1 68.853855859212089 2.8141536732150492 10.872024404392555 0.73135370988377701 0 0.68199835119979291 0.34099917559989645 0 -0.36567685494188851 1 I I #
point $-1 69.926208744695771 2.8141536732150492 11.188345900650459 #
edge $-1 $776 1 $776 0 $419 $-1 forward 7 unknown #
vertex $-1 $420 $777 #
ellipse-curve $-1 68.853855859212089 4.9773166665599682 10.872024404392555 0.73135370988377701 0 0.68199835119979291 0.34099917559989645 0 -0.36567685494188851 1 I I #
point $-1 69.926208744695771 4.9773166665599682 11.188345900650459 #
plane-surface $-1 0 0 13.057552583001172 0 0 1 1 0 0 forward_v I I I I #
coedge $-1 $621 $620 $613 $778 forward $424 $-1 #
coedge $-1 $613 $426 $428 $617 reversed $272 $-1 #
coedge $-1 $426 $612 $611 $778 reversed $272 $-1 #
coedge $-1 $434 $429 $426 $615 forward $435 $-1 #
edge $-1 $618 29.185906106382475 $779 31.990034531287748 $614 $780 forward 7 unknown #
coedge $-1 $428 $427 $621 $781 reversed $172 $-1 #
edge $-1 $782 -141.97454756309702 $618 -137.86291236636646 $612 $783 forward 7 unknown #
vertex $-1 $430 $784 #
straight-curve $-1 68.183145356643237 7.1980204738272828 13.057552583001169 0 -1 0 I I #
coedge $-1 $611 $431 $434 $625 reversed $424 $-1 #
coedge $-1 $431 $611 $616 $781 forward $424 $-1 #
vertex $-1 $432 $785 #
straight-curve $-1 70.98727378154851 18.001312603229433 105.35525617394703 0 0 1 I I #
straight-curve $-1 -25.83913356882023 18.001312603229433 113.88410499752531 0.68199835119979291 0 -0.73135370988377701 I I #
edge $-1 $779 10.790769292079698 $436 18.001312603229433 $620 $786 forward 7 unknown #
point $-1 70.98727378154851 18.001312603229433 13.057552583001172 #
point $-1 68.183145356643237 18.001312603229433 13.057552583001169 #
edge $-1 $787 1 $787 0 $439 $-1 forward 7 unknown #
vertex $-1 $440 $788 #
ellipse-curve $-1 68.853855859212089 12.232877954309647 10.872024404392555 0.73135370988377701 0 0.68199835119979291 0.34099917559989645 0 -0.36567685494188851 1 I I #
point $-1 69.926208744695771 12.232877954309647 11.188345900650459 #
edge $-1 $789 1 $789 0 $443 $-1 forward 7 unknown #
vertex $-1 $444 $790 #
ellipse-curve $-1 68.853855859212089 14.396040947654566 10.872024404392555 0.73135370988377701 0 0.68199835119979291 0.34099917559989645 0 -0.36567685494188851 1 I I #
point $-1 69.926208744695771 14.396040947654566 11.188345900650459 #
edge $-1 $791 1 $791 0 $447 $-1 forward 7 unknown #
vertex $-1 $448 $792 #
ellipse-curve $-1 68.853855859212089 16.559203940999485 10.872024404392555 0.73135370988377701 0 0.68199835119979291 0.34099917559989645 0 -0.36567685494188851 1 I I #
point $-1 69.926208744695771 16.559203940999485 11.188345900650459 #
plane-surface $-1 0 0 13.057552583001172 0 0 1 1 0 0 forward_v I I I I #
coedge $-1 $651 $650 $643 $793 forward $452 $-1 #
coedge $-1 $643 $454 $456 $647 reversed $301 $-1 #
coedge $-1 $454 $642 $641 $793 reversed $301 $-1 #
coedge $-1 $462 $457 $454 $645 forward $463 $-1 #
edge $-1 $648 -28.984222313819387 $794 -19.673836830836422 $644 $795 forward 7 unknown #
coedge $-1 $456 $455 $651 $796 reversed $191 $-1 #
edge $-1 $797 0 $648 14.794349216361201 $642 $798 forward 7 unknown #
vertex $-1 $458 $799 #
straight-curve $-1 -61.676888298565551 -2.7979484099757652 13.057552583001172 0 1 0 I I #
coedge $-1 $641 $459 $462 $655 reversed $452 $-1 #
coedge $-1 $459 $641 $646 $796 forward $452 $-1 #
vertex $-1 $460 $800 #
straight-curve $-1 -70.98727378154851 -8.9287180641764206 45.453830027685314 0 0 1 I I #
straight-curve $-1 -70.98727378154851 -8.9287180641764206 1.560183714694503 -0.62932038083071107 0 -0.77714596973225614 I I #
edge $-1 $794 2.2630755757266403 $464 8.9287180641764206 $650 $801 forward 7 unknown #
point $-1 -70.98727378154851 -8.9287180641764206 13.057552583001172 #
point $-1 -61.676888298565544 -8.9287180641764206 13.057552583001172 #
edge $-1 $802 1 $802 0 $467 $-1 forward 7 unknown #
vertex $-1 $468 $803 #
ellipse-curve $-1 -63.686044518978996 -5.5958968199515304 5.1661500804385065 -0.77714596973225614 0 0.62932038083071107 0.9439805712460666 0 1.1657189545983841 1 I I #
point $-1 -65.388100468810961 -5.5958968199515304 8.4745871034462272 #
loop $-1 $-1 $479 $471 #
plane-surface $-1 -70.98727378154851 0 0 1 0 0 0 0 -1 forward_v I I I I #
coedge $-1 $665 $474 $476 $669 reversed $316 $-1 #
coedge $-1 $474 $664 $804 $805 reversed $316 $-1 #
coedge $-1 $482 $477 $474 $667 forward $472 $-1 #
edge $-1 $670 -28.984222313819387 $806 -19.673836830836422 $666 $807 forward 7 unknown #
coedge $-1 $476 $475 $673 $808 reversed $200 $-1 #
edge $-1 $809 0 $670 14.794349216361201 $664 $810 forward 7 unknown #
vertex $-1 $478 $811 #
straight-curve $-1 -61.676888298565551 1.9357163001530129 13.057552583001172 0 1 0 I I #
coedge $-1 $804 $479 $482 $677 reversed $662 $-1 #
coedge $-1 $479 $804 $668 $808 forward $662 $-1 #
vertex $-1 $480 $812 #
straight-curve $-1 -70.98727378154851 0.53861135608113564 45.453830027685314 0 0 1 I I #
straight-curve $-1 -70.98727378154851 0.53861135608113564 1.560183714694503 -0.62932038083071107 0 -0.77714596973225614 I I #
edge $-1 $806 -7.2042538445309159 $483 -0.53861135608113564 $672 $813 forward 7 unknown #
point $-1 -70.98727378154851 0.53861135608113564 13.057552583001172 #
point $-1 -61.676888298565544 0.53861135608113564 13.057552583001172 #
edge $-1 $814 1 $814 0 $486 $-1 forward 7 unknown #
vertex $-1 $487 $815 #
ellipse-curve $-1 -63.686044518978996 3.8714326003060258 5.1661500804385065 -0.77714596973225614 0 0.62932038083071107 0.9439805712460666 0 1.1657189545983841 1 I I #
point $-1 -65.388100468810961 3.8714326003060258 8.4745871034462272 #
loop $-1 $-1 $498 $490 #
plane-surface $-1 -70.98727378154851 0 0 1 0 0 0 0 -1 forward_v I I I I #
coedge $-1 $687 $493 $495 $691 reversed $331 $-1 #
coedge $-1 $493 $686 $816 $817 reversed $331 $-1 #
coedge $-1 $501 $496 $493 $689 forward $491 $-1 #
edge $-1 $692 -28.984222313819387 $818 -19.673836830836422 $688 $819 forward 7 unknown #
coedge $-1 $495 $494 $695 $820 reversed $209 $-1 #
edge $-1 $821 0 $692 14.794349216361201 $686 $822 forward 7 unknown #
vertex $-1 $497 $823 #
straight-curve $-1 -61.676888298565551 6.669381010281791 13.057552583001172 0 1 0 I I #
coedge $-1 $816 $498 $501 $699 reversed $684 $-1 #
coedge $-1 $498 $816 $690 $820 forward $684 $-1 #
vertex $-1 $499 $824 #
straight-curve $-1 -70.98727378154851 10.005940776338692 45.453830027685314 0 0 1 I I #
straight-curve $-1 -70.98727378154851 10.005940776338692 1.560183714694503 -0.62932038083071107 0 -0.77714596973225614 I I #
edge $-1 $818 -16.671583264788474 $502 -10.005940776338692 $694 $825 forward 7 unknown #
point $-1 -70.98727378154851 10.005940776338692 13.057552583001172 #
point $-1 -61.676888298565544 10.005940776338692 13.057552583001172 #
edge $-1 $826 1 $826 0 $505 $-1 forward 7 unknown #
vertex $-1 $506 $827 #
ellipse-curve $-1 -63.686044518978996 13.338762020563582 5.1661500804385065 -0.77714596973225614 0 0.62932038083071107 0.9439805712460666 0 1.1657189545983841 1 I I #
point $-1 -65.388100468810961 13.338762020563582 8.4745871034462272 #
loop $-1 $-1 $517 $509 #
plane-surface $-1 -70.98727378154851 0 0 1 0 0 0 0 -1 forward_v I I I I #
coedge $-1 $709 $512 $514 $713 reversed $346 $-1 #
coedge $-1 $512 $708 $828 $829 reversed $346 $-1 #
coedge $-1 $520 $515 $512 $711 forward $510 $-1 #
edge $-1 $714 -28.984222313819387 $830 -19.673836830836422 $710 $831 forward 7 unknown #
coedge $-1 $514 $513 $717 $832 reversed $218 $-1 #
edge $-1 $833 0 $714 14.794349216361201 $708 $834 forward 7 unknown #
vertex $-1 $516 $835 #
straight-curve $-1 -61.676888298565551 11.403045720410569 13.057552583001172 0 1 0 I I #
coedge $-1 $828 $517 $520 $721 reversed $706 $-1 #
coedge $-1 $517 $828 $712 $832 forward $706 $-1 #
vertex $-1 $518 $836 #
straight-curve $-1 -70.98727378154851 19.473270196596246 45.453830027685314 0 0 1 I I #
straight-curve $-1 -70.98727378154851 19.473270196596246 1.560183714694503 -0.62932038083071107 0 -0.77714596973225614 I I #
edge $-1 $830 -26.13891268504603 $521 -19.473270196596246 $716 $837 forward 7 unknown #
point $-1 -70.98727378154851 19.473270196596246 13.057552583001172 #
point $-1 -61.676888298565544 19.473270196596246 13.057552583001172 #
edge $-1 $838 1 $838 0 $524 $-1 forward 7 unknown #
vertex $-1 $525 $839 #
ellipse-curve $-1 -63.686044518978996 22.806091440821138 5.1661500804385065 -0.77714596973225614 0 0.62932038083071107 0.9439805712460666 0 1.1657189545983841 1 I I #
point $-1 -65.388100468810961 22.806091440821138 8.4745871034462272 #
plane-surface $-1 70.98727378154851 0 0 -1 0 0 0 0 1 forward_v I I I I #
coedge $-1 $533 $531 $535 $733 reversed $361 $-1 #
edge $-1 $546 -13.057552583001172 $735 13.057552583001172 $545 $840 forward 7 unknown #
vertex $-1 $733 $841 #
straight-curve $-1 -70.98727378154851 -30.341443082757696 0 0 0 -1 I I #
edge $-1 $731 -30.341443082757696 $735 30.341443082757696 $729 $842 forward 7 unknown #
straight-curve $-1 0 -30.341443082757696 -13.057552583001172 -1 0 0 I I #
vertex $-1 $538 $843 #
straight-curve $-1 0 30.341443082757696 -13.057552583001172 1 0 0 I I #
point $-1 70.98727378154851 30.341443082757696 -13.057552583001172 #
point $-1 70.98727378154851 -30.341443082757696 -13.057552583001172 #
straight-curve $-1 -70.98727378154851 0 13.057552583001172 0 -1 0 I I #
point $-1 -70.98727378154851 30.341443082757696 13.057552583001172 #
point $-1 -70.98727378154851 -30.341443082757696 13.057552583001172 #
straight-curve $-1 70.98727378154851 -30.341443082757696 0 0 0 -1 I I #
straight-curve $-1 70.98727378154851 30.341443082757696 0 0 0 -1 I I #
loop $-1 $-1 $561 $555 #
plane-surface $-1 0 -30.341443082757696 0 0 1 0 0 0 1 forward_v I I I I #
coedge $-1 $572 $563 $559 $748 forward $556 $-1 #
edge $-1 $752 -19.473270196596253 $567 -2.2630755757266368 $558 $844 forward 7 unknown #
edge $-1 $568 2.2630755757266368 $751 19.473270196596253 $746 $845 forward 7 unknown #
coedge $-1 $570 $561 $575 $761 reversed $744 $-1 #
coedge $-1 $561 $570 $572 $759 reversed $744 $-1 #
vertex $-1 $759 $846 #
vertex $-1 $562 $847 #
straight-curve $-1 -46.321485682266683 -30.341443082757696 0 0 0 1 I I #
straight-curve $-1 -24.980101012321455 -13.131248461888081 -13.057552583001172 1 0 0 I I #
straight-curve $-1 -24.980101012321455 -13.131248461888081 13.057552583001172 -1 0 0 I I #
point $-1 -46.321485682266683 -13.131248461888081 13.057552583001172 #
point $-1 -46.321485682266683 -13.131248461888081 -13.057552583001172 #
straight-curve $-1 -53.598918367019138 -30.341443082757696 0 0 0 -1 I I #
edge $-1 $751 46.321485682266683 $573 53.598918367019138 $750 $848 forward 7 unknown #
point $-1 -53.598918367019138 -30.341443082757696 -13.057552583001172 #
edge $-1 $576 -53.598918367019138 $752 -46.321485682266683 $749 $849 forward 7 unknown #
point $-1 -53.598918367019138 -30.341443082757696 13.057552583001172 #
edge $-1 $764 92.297703590945858 $767 95.304763245763468 $581 $850 forward 7 unknown #
vertex $-1 $595 $851 #
straight-curve $-1 38.997239250260762 -0.79111798235981823 13.057552583001169 1 0 0 I I #
edge $-1 $767 -2.1981948189673428 $592 5.012348492182392 $591 $852 forward 7 unknown #
vertex $-1 $766 $853 #
straight-curve $-1 -25.83913356882023 -0.79111798235981823 113.88410499752531 -0.68199835119979291 0 0.73135370988377701 I I #
point $-1 68.183145356643237 -0.79111798235981823 13.057552583001169 #
point $-1 70.98727378154851 6.4194253287899166 10.050492928183559 #
straight-curve $-1 70.98727378154851 0 13.057552583001172 0 1 0 I I #
vertex $-1 $598 $854 #
point $-1 69.194855034811994 0.65099067987013015 10.506347549450666 #
vertex $-1 $602 $855 #
point $-1 69.194855034811994 2.8141536732150492 10.506347549450666 #
vertex $-1 $606 $856 #
point $-1 69.194855034811994 4.9773166665599682 10.506347549450666 #
edge $-1 $779 92.297703590945858 $782 95.304763245763468 $611 $857 forward 7 unknown #
vertex $-1 $625 $858 #
straight-curve $-1 38.997239250260762 10.790769292079698 13.057552583001169 1 0 0 I I #
edge $-1 $782 3.5927488182524154 $622 10.80329212940215 $621 $859 forward 7 unknown #
vertex $-1 $781 $860 #
straight-curve $-1 -25.83913356882023 10.790769292079698 113.88410499752531 -0.68199835119979291 0 0.73135370988377701 I I #
point $-1 68.183145356643237 10.790769292079698 13.057552583001169 #
point $-1 70.98727378154851 18.001312603229433 10.050492928183559 #
straight-curve $-1 70.98727378154851 0 13.057552583001172 0 1 0 I I #
vertex $-1 $628 $861 #
point $-1 69.194855034811994 12.232877954309647 10.506347549450666 #
vertex $-1 $632 $862 #
point $-1 69.194855034811994 14.396040947654566 10.506347549450666 #
vertex $-1 $636 $863 #
point $-1 69.194855034811994 16.559203940999485 10.506347549450666 #
edge $-1 $794 32.396277444684145 $797 43.893646312990811 $641 $864 forward 7 unknown #
vertex $-1 $655 $865 #
straight-curve $-1 -90.661110612384931 -2.2630755757266403 13.057552583001176 -1 0 0 I I #
edge $-1 $797 -0.53487283424912491 $652 6.1307696542006553 $651 $866 forward 7 unknown #
vertex $-1 $796 $867 #
straight-curve $-1 -70.98727378154851 -2.2630755757266403 1.560183714694503 0.62932038083071107 0 0.77714596973225614 I I #
point $-1 -61.676888298565544 -2.2630755757266403 13.057552583001172 #
point $-1 -70.98727378154851 -8.9287180641764206 1.560183714694503 #
straight-curve $-1 -70.98727378154851 0 13.057552583001172 0 -1 0 I I #
vertex $-1 $658 $868 #
point $-1 -62.742063947732923 -5.5958968199515304 6.33186903503689 #
coedge $-1 $673 $672 $665 $805 forward $662 $-1 #
edge $-1 $806 32.396277444684145 $809 43.893646312990811 $804 $869 forward 7 unknown #
vertex $-1 $677 $870 #
straight-curve $-1 -90.661110612384931 7.2042538445309159 13.057552583001176 -1 0 0 I I #
edge $-1 $809 -5.268537544377903 $674 1.3971049440718772 $673 $871 forward 7 unknown #
vertex $-1 $808 $872 #
straight-curve $-1 -70.98727378154851 7.2042538445309159 1.560183714694503 0.62932038083071107 0 0.77714596973225614 I I #
point $-1 -61.676888298565544 7.2042538445309159 13.057552583001172 #
point $-1 -70.98727378154851 0.53861135608113564 1.560183714694503 #
straight-curve $-1 -70.98727378154851 0 13.057552583001172 0 -1 0 I I #
vertex $-1 $680 $873 #
point $-1 -62.742063947732923 3.8714326003060258 6.33186903503689 #
coedge $-1 $695 $694 $687 $817 forward $684 $-1 #
edge $-1 $818 32.396277444684145 $821 43.893646312990811 $816 $874 forward 7 unknown #
vertex $-1 $699 $875 #
straight-curve $-1 -90.661110612384931 16.671583264788474 13.057552583001176 -1 0 0 I I #
edge $-1 $821 -10.002202254506683 $696 -3.3365597660569009 $695 $876 forward 7 unknown #
vertex $-1 $820 $877 #
straight-curve $-1 -70.98727378154851 16.671583264788474 1.560183714694503 0.62932038083071107 0 0.77714596973225614 I I #
point $-1 -61.676888298565544 16.671583264788474 13.057552583001172 #
point $-1 -70.98727378154851 10.005940776338692 1.560183714694503 #
straight-curve $-1 -70.98727378154851 0 13.057552583001172 0 -1 0 I I #
vertex $-1 $702 $878 #
point $-1 -62.742063947732923 13.338762020563582 6.33186903503689 #
coedge $-1 $717 $716 $709 $829 forward $706 $-1 #
edge $-1 $830 32.396277444684145 $833 43.893646312990811 $828 $879 forward 7 unknown #
vertex $-1 $721 $880 #
straight-curve $-1 -90.661110612384931 26.13891268504603 13.057552583001176 -1 0 0 I I #
edge $-1 $833 -14.735866964635461 $718 -8.0702244761856772 $717 $881 forward 7 unknown #
vertex $-1 $832 $882 #
straight-curve $-1 -70.98727378154851 26.13891268504603 1.560183714694503 0.62932038083071107 0 0.77714596973225614 I I #
point $-1 -61.676888298565544 26.13891268504603 13.057552583001172 #
point $-1 -70.98727378154851 19.473270196596246 1.560183714694503 #
straight-curve $-1 -70.98727378154851 0 13.057552583001172 0 -1 0 I I #
vertex $-1 $724 $883 #
point $-1 -62.742063947732923 22.806091440821138 6.33186903503689 #
straight-curve $-1 -70.98727378154851 30.341443082757696 0 0 0 -1 I I #
point $-1 -70.98727378154851 -30.341443082757696 -13.057552583001172 #
straight-curve $-1 -70.98727378154851 0 -13.057552583001172 0 1 0 I I #
point $-1 -70.98727378154851 30.341443082757696 -13.057552583001172 #
straight-curve $-1 -46.321485682266683 -10.868172886161444 13.057552583001172 0 1 0 I I #
straight-curve $-1 -46.321485682266683 -10.868172886161444 -13.057552583001172 0 -1 0 I I #
point $-1 -46.321485682266683 -30.341443082757696 -13.057552583001172 #
point $-1 -46.321485682266683 -30.341443082757696 13.057552583001172 #
straight-curve $-1 0 -30.341443082757696 -13.057552583001172 -1 0 0 I I #
straight-curve $-1 0 -30.341443082757696 13.057552583001172 1 0 0 I I #
straight-curve $-1 70.98727378154851 -0.79111798235981823 105.35525617394703 0 0 -1 I I #
point $-1 70.98727378154851 -0.79111798235981823 13.057552583001172 #
straight-curve $-1 70.98727378154851 1.4070768366075246 10.050492928183566 0 1 0 I I #
point $-1 70.98727378154851 -0.79111798235981823 10.050492928183559 #
point $-1 68.488179004270208 0.65099067987013015 10.531025228792657 #
point $-1 68.488179004270208 2.8141536732150492 10.531025228792657 #
point $-1 68.488179004270208 4.9773166665599682 10.531025228792657 #
straight-curve $-1 70.98727378154851 10.790769292079698 105.35525617394703 0 0 -1 I I #
point $-1 70.98727378154851 10.790769292079698 13.057552583001172 #
straight-curve $-1 70.98727378154851 7.1980204738272828 10.050492928183566 0 1 0 I I #
point $-1 70.98727378154851 10.790769292079698 10.050492928183559 #
point $-1 68.488179004270208 12.232877954309647 10.531025228792657 #
point $-1 68.488179004270208 14.396040947654566 10.531025228792657 #
point $-1 68.488179004270208 16.559203940999485 10.531025228792657 #
straight-curve $-1 -70.98727378154851 -2.2630755757266403 45.453830027685314 0 0 -1 I I #
point $-1 -70.98727378154851 -2.2630755757266403 13.057552583001172 #
straight-curve $-1 -70.98727378154851 -2.7979484099757652 1.5601837146944952 0 -1 0 I I #
point $-1 -70.98727378154851 -2.2630755757266403 1.560183714694503 #
point $-1 -62.520325564380606 -5.5958968199515304 4.2221695091924394 #
straight-curve $-1 -70.98727378154851 7.2042538445309159 45.453830027685314 0 0 -1 I I #
point $-1 -70.98727378154851 7.2042538445309159 13.057552583001172 #
straight-curve $-1 -70.98727378154851 1.9357163001530129 1.5601837146944952 0 -1 0 I I #
point $-1 -70.98727378154851 7.2042538445309159 1.560183714694503 #
point $-1 -62.520325564380606 3.8714326003060258 4.2221695091924394 #
straight-curve $-1 -70.98727378154851 16.671583264788474 45.453830027685314 0 0 -1 I I #
point $-1 -70.98727378154851 16.671583264788474 13.057552583001172 #
straight-curve $-1 -70.98727378154851 6.669381010281791 1.5601837146944952 0 -1 0 I I #
point $-1 -70.98727378154851 16.671583264788474 1.560183714694503 #
point $-1 -62.520325564380606 13.338762020563582 4.2221695091924394 #
straight-curve $-1 -70.98727378154851 26.13891268504603 45.453830027685314 0 0 -1 I I #
point $-1 -70.98727378154851 26.13891268504603 13.057552583001172 #
straight-curve $-1 -70.98727378154851 11.403045720410569 1.5601837146944952 0 -1 0 I I #
point $-1 -70.98727378154851 26.13891268504603 1.560183714694503 #
point $-1 -62.520325564380606 22.806091440821138 4.2221695091924394 #
End-of-ACIS-data 