500 0 10 0           
7 Unknown 11 ACIS 5.0 NT 24 Thu Mar 25 23:26:27 1999 
-1 9.9999999999999995e-007 1e-010 
body $-1 $10 $-1 $11 #
body $-1 $12 $-1 $13 #
body $-1 $14 $-1 $15 #
body $-1 $16 $-1 $17 #
body $-1 $18 $-1 $19 #
body $-1 $20 $-1 $21 #
body $-1 $22 $-1 $23 #
body $-1 $24 $-1 $25 #
body $-1 $26 $-1 $27 #
body $-1 $28 $-1 $29 #
lump $-1 $-1 $30 $0 #
transform $-1 1 0 0 0 1 0 0 0 1 76.478164006469925 43.026115127331458 16.690592570940197 1 rotate no_reflect no_shear #
lump $-1 $-1 $31 $1 #
transform $-1 1 0 0 0 1 0 0 0 1 76.478164006469925 43.026115127331458 16.690592570940197 1 rotate no_reflect no_shear #
lump $-1 $-1 $32 $2 #
transform $-1 1 0 0 0 1 0 0 0 1 76.478164006469925 43.026115127331458 16.690592570940197 1 rotate no_reflect no_shear #
lump $-1 $-1 $33 $3 #
transform $-1 1 0 0 0 1 0 0 0 1 76.478164006469925 43.026115127331458 16.690592570940197 1 rotate no_reflect no_shear #
lump $-1 $-1 $34 $4 #
transform $-1 1 0 0 0 1 0 0 0 1 76.478164006469925 43.026115127331458 16.690592570940197 1 rotate no_reflect no_shear #
lump $-1 $-1 $35 $5 #
transform $-1 1 0 0 0 1 0 0 0 1 76.478164006469925 43.026115127331458 16.690592570940197 1 rotate no_reflect no_shear #
lump $-1 $-1 $36 $6 #
transform $-1 1 0 0 0 1 0 0 0 1 76.478164006469925 43.026115127331458 16.690592570940197 1 rotate no_reflect no_shear #
lump $-1 $-1 $37 $7 #
transform $-1 1 0 0 0 1 0 0 0 1 76.478164006469925 43.026115127331458 16.690592570940197 1 rotate no_reflect no_shear #
lump $-1 $-1 $38 $8 #
transform $-1 1 0 0 0 1 0 0 0 1 76.478164006469925 43.026115127331458 16.690592570940197 1 rotate no_reflect no_shear #
lump $-1 $-1 $39 $9 #
transform $-1 1 0 0 0 1 0 0 0 1 76.478164006469925 43.026115127331458 16.690592570940197 1 rotate no_reflect no_shear #
shell $-1 $-1 $-1 $40 $-1 $10 #
shell $-1 $-1 $-1 $41 $-1 $12 #
shell $-1 $-1 $-1 $42 $-1 $14 #
shell $-1 $-1 $-1 $43 $-1 $16 #
shell $-1 $-1 $-1 $44 $-1 $18 #
shell $-1 $-1 $-1 $45 $-1 $20 #
shell $-1 $-1 $-1 $46 $-1 $22 #
shell $-1 $-1 $-1 $47 $-1 $24 #
shell $-1 $-1 $-1 $48 $-1 $26 #
shell $-1 $-1 $-1 $49 $-1 $28 #
face $-1 $50 $51 $30 $-1 $52 forward single #
face $-1 $53 $54 $31 $-1 $55 forward single #
face $-1 $56 $57 $32 $-1 $58 forward single #
face $-1 $59 $60 $33 $-1 $61 reversed single #
face $-1 $62 $63 $34 $-1 $64 forward single #
face $-1 $65 $66 $35 $-1 $67 forward single #
face $-1 $68 $69 $36 $-1 $70 forward single #
face $-1 $71 $72 $37 $-1 $73 reversed single #
face $-1 $74 $75 $38 $-1 $76 forward single #
face $-1 $77 $78 $39 $-1 $79 forward single #
face $-1 $80 $81 $30 $-1 $82 reversed single #
loop $-1 $-1 $83 $40 #
plane-surface $-1 0 0 16.690592570940197 0 0 1 1 0 0 forward_v I I I I #
face $-1 $84 $85 $31 $-1 $86 reversed single #
loop $-1 $-1 $87 $41 #
plane-surface $-1 0 -43.026115127331458 0 0 1 0 0 0 1 forward_v I I I I #
face $-1 $88 $89 $32 $-1 $90 reversed single #
loop $-1 $-1 $91 $42 #
plane-surface $-1 0 33.226138981579119 -9.2345069990261237 0 0 1 1 0 0 forward_v I I I I #
face $-1 $92 $93 $33 $-1 $94 reversed single #
loop $-1 $-1 $95 $43 #
plane-surface $-1 24.147335601009971 5.4229266057941814 218.86010484037715 0 -1 0 -0.51503808176128008 0 -0.85716729658548041 forward_v I I I I #
face $-1 $96 $97 $34 $-1 $98 forward single #
loop $-1 $99 $100 $44 #
cone-surface $-1 69.798204138257745 -3.1138912476031564 12.403017081602266 -0.51503808176128008 0 -0.85716729658548041 0.4285836482927402 0 -0.25751904088064004 1 I I 0 1 0.5 forward I I I I #
face $-1 $101 $102 $35 $-1 $103 forward single #
loop $-1 $104 $105 $45 #
cone-surface $-1 69.798204138257745 0.087415447420845283 12.403017081602266 -0.51503808176128008 0 -0.85716729658548041 0.4285836482927402 0 -0.25751904088064004 1 I I 0 1 0.5 forward I I I I #
face $-1 $106 $107 $36 $-1 $108 forward single #
loop $-1 $109 $110 $46 #
cone-surface $-1 69.798204138257745 3.288722142444847 12.403017081602266 -0.51503808176128008 0 -0.85716729658548041 0.4285836482927402 0 -0.25751904088064004 1 I I 0 1 0.5 forward I I I I #
face $-1 $111 $112 $37 $-1 $113 reversed single #
loop $-1 $-1 $114 $47 #
plane-surface $-1 -200.22243401788654 -0.17331549682722169 101.88301713451335 0 1 0 -0.80901700255871778 0 0.5877852410284794 forward_v I I I I #
face $-1 $115 $116 $38 $-1 $117 forward single #
loop $-1 $118 $119 $48 #
cone-surface $-1 -73.160459061979452 2.3282309490103188 13.167539224753199 0.80901700255871778 0 -0.5877852410284794 0.5877852410284794 0 0.80901700255871778 1 I I 0 1 1 forward I I I I #
face $-1 $120 $121 $39 $-1 $122 forward single #
loop $-1 $123 $124 $49 #
cone-surface $-1 -73.160459061979452 6.0805506177666331 13.167539224753199 0.80901700255871778 0 -0.5877852410284794 0.5877852410284794 0 0.80901700255871778 1 I I 0 1 1 forward I I I I #
face $-1 $125 $126 $30 $-1 $127 reversed single #
loop $-1 $-1 $128 $50 #
plane-surface $-1 0 0 -16.690592570940197 0 0 1 1 0 0 forward_v I I I I #
coedge $-1 $129 $130 $131 $132 forward $51 $-1 #
face $-1 $133 $134 $31 $-1 $135 reversed single #
loop $-1 $-1 $136 $53 #
plane-surface $-1 0 0 -16.690592570940197 0 0 1 1 0 0 forward_v I I I I #
coedge $-1 $137 $138 $139 $140 forward $54 $-1 #
face $-1 $141 $142 $32 $-1 $143 reversed single #
loop $-1 $-1 $144 $56 #
plane-surface $-1 0 23.42616283582678 -12.96254978498316 0 1 0 0 0 1 forward_v I I I I #
coedge $-1 $145 $146 $147 $148 reversed $57 $-1 #
face $-1 $149 $150 $33 $-1 $151 reversed single #
loop $-1 $-1 $152 $59 #
plane-surface $-1 -54.630998172023723 0.087415447420845283 87.750942661883499 0.51503808176128008 0 0.85716729658548041 0.85716729658548041 0 -0.51503808176128008 forward_v I I I I #
coedge $-1 $153 $154 $155 $156 reversed $60 $-1 #
face $-1 $-1 $157 $34 $-1 $158 forward single #
loop $-1 $159 $160 $62 #
cone-surface $-1 69.411925576936781 -3.1138912476031564 11.760141609163156 -0.51503808176128008 0 -0.85716729658548041 0.2142918241463701 0 -0.12875952044032002 1 I I -0.70710678118654746 0.70710678118654746 0.25 forward I I I I #
loop $-1 $-1 $161 $44 #
coedge $-1 $100 $100 $162 $163 reversed $63 $-1 #
face $-1 $-1 $164 $35 $-1 $165 forward single #
loop $-1 $166 $167 $65 #
cone-surface $-1 69.411925576936781 0.087415447420845283 11.760141609163156 -0.51503808176128008 0 -0.85716729658548041 0.2142918241463701 0 -0.12875952044032002 1 I I -0.70710678118654746 0.70710678118654746 0.25 forward I I I I #
loop $-1 $-1 $168 $45 #
coedge $-1 $105 $105 $169 $170 reversed $66 $-1 #
face $-1 $-1 $171 $36 $-1 $172 forward single #
loop $-1 $173 $174 $68 #
cone-surface $-1 69.411925576936781 3.288722142444847 11.760141609163156 -0.51503808176128008 0 -0.85716729658548041 0.2142918241463701 0 -0.12875952044032002 1 I I -0.70710678118654746 0.70710678118654746 0.25 forward I I I I #
loop $-1 $-1 $175 $46 #
coedge $-1 $110 $110 $176 $177 reversed $69 $-1 #
face $-1 $178 $179 $37 $-1 $180 reversed single #
loop $-1 $-1 $181 $71 #
plane-surface $-1 -76.47816400646991 4.2043907833884759 11.977545006596344 -0.80901700255871778 0 0.5877852410284794 0.5877852410284794 0 0.80901700255871778 forward_v I I I I #
coedge $-1 $182 $183 $184 $185 reversed $72 $-1 #
face $-1 $-1 $186 $38 $-1 $187 forward single #
loop $-1 $188 $189 $74 #
cone-surface $-1 -71.150360312084302 2.3282309490103188 11.707117040223881 0.80901700255871778 0 -0.5877852410284794 0.2938926205142397 0 0.40450850127935889 1 I I -0.70710678118654746 0.70710678118654746 0.5 forward I I I I #
loop $-1 $-1 $190 $48 #
coedge $-1 $119 $119 $191 $192 reversed $75 $-1 #
face $-1 $-1 $193 $39 $-1 $194 forward single #
loop $-1 $195 $196 $77 #
cone-surface $-1 -71.150360312084302 6.0805506177666331 11.707117040223881 0.80901700255871778 0 -0.5877852410284794 0.2938926205142397 0 0.40450850127935889 1 I I -0.70710678118654746 0.70710678118654746 0.5 forward I I I I #
loop $-1 $-1 $197 $49 #
coedge $-1 $124 $124 $198 $199 reversed $78 $-1 #
face $-1 $200 $201 $30 $-1 $202 reversed single #
loop $-1 $-1 $203 $80 #
plane-surface $-1 0 -43.026115127331458 0 0 1 0 0 0 1 forward_v I I I I #
coedge $-1 $204 $205 $206 $207 forward $81 $-1 #
coedge $-1 $208 $83 $209 $210 forward $51 $-1 #
coedge $-1 $83 $208 $211 $212 forward $51 $-1 #
coedge $-1 $213 $214 $83 $132 reversed $215 $-1 #
edge $-1 $216 -43.026115127331458 $217 43.026115127331458 $131 $218 forward 7 unknown #
face $-1 $219 $220 $31 $-1 $221 forward single #
loop $-1 $-1 $222 $84 #
plane-surface $-1 76.478164006469925 0 0 -1 0 0 0 0 1 forward_v I I I I #
coedge $-1 $223 $224 $225 $226 forward $85 $-1 #
coedge $-1 $225 $87 $222 $227 reversed $54 $-1 #
coedge $-1 $87 $225 $228 $229 reversed $54 $-1 #
coedge $-1 $230 $231 $87 $140 reversed $220 $-1 #
edge $-1 $232 -76.478164006469925 $233 76.478164006469925 $139 $234 forward 7 unknown #
face $-1 $235 $236 $32 $-1 $237 reversed single #
loop $-1 $-1 $147 $88 #
plane-surface $-1 76.478164006469925 0 0 -1 0 0 0 0 1 forward_v I I I I #
coedge $-1 $238 $239 $240 $241 reversed $89 $-1 #
coedge $-1 $242 $91 $243 $244 reversed $57 $-1 #
coedge $-1 $91 $242 $239 $245 forward $57 $-1 #
coedge $-1 $246 $247 $91 $148 forward $142 $-1 #
edge $-1 $248 -26.413045636541899 $249 -6.8130933450372204 $147 $250 forward 7 unknown #
face $-1 $251 $252 $33 $-1 $253 forward single #
loop $-1 $-1 $254 $92 #
plane-surface $-1 24.147335601009971 -5.2480957109524908 218.86010484037715 0 1 0 0.51503808176128008 0 0.85716729658548041 forward_v I I I I #
coedge $-1 $255 $256 $257 $258 reversed $93 $-1 #
coedge $-1 $154 $95 $259 $260 reversed $60 $-1 #
coedge $-1 $95 $153 $255 $261 reversed $60 $-1 #
coedge $-1 $257 $262 $95 $156 forward $252 $-1 #
edge $-1 $263 -64.404496205964932 $264 -51.559614551301969 $155 $265 forward 7 unknown #
loop $-1 $-1 $162 $96 #
plane-surface $-1 -54.630998172023723 0.087415447420845283 87.750942661883499 0.51503808176128008 0 0.85716729658548041 0.85716729658548041 0 -0.51503808176128008 forward_v I I I I #
loop $-1 $-1 $266 $62 #
coedge $-1 $160 $160 $161 $267 reversed $97 $-1 #
coedge $-1 $161 $161 $160 $267 forward $99 $-1 #
coedge $-1 $162 $162 $100 $163 forward $157 $-1 #
edge $-1 $268 0 $268 6.2831853071796004 $162 $269 forward 7 unknown #
loop $-1 $-1 $169 $101 #
plane-surface $-1 -54.630998172023723 0.087415447420845283 87.750942661883499 0.51503808176128008 0 0.85716729658548041 0.85716729658548041 0 -0.51503808176128008 forward_v I I I I #
loop $-1 $-1 $270 $65 #
coedge $-1 $167 $167 $168 $271 reversed $102 $-1 #
coedge $-1 $168 $168 $167 $271 forward $104 $-1 #
coedge $-1 $169 $169 $105 $170 forward $164 $-1 #
edge $-1 $272 0 $272 6.2831853071796004 $169 $273 forward 7 unknown #
loop $-1 $-1 $176 $106 #
plane-surface $-1 -54.630998172023723 0.087415447420845283 87.750942661883499 0.51503808176128008 0 0.85716729658548041 0.85716729658548041 0 -0.51503808176128008 forward_v I I I I #
loop $-1 $-1 $274 $68 #
coedge $-1 $174 $174 $175 $275 reversed $107 $-1 #
coedge $-1 $175 $175 $174 $275 forward $109 $-1 #
coedge $-1 $176 $176 $110 $177 forward $171 $-1 #
edge $-1 $276 0 $276 6.2831853071796004 $176 $277 forward 7 unknown #
face $-1 $278 $279 $37 $-1 $280 reversed single #
loop $-1 $-1 $281 $111 #
plane-surface $-1 -200.22243401788654 8.5820970636041736 101.88301713451335 0 -1 0 0.80901700255871778 0 -0.5877852410284794 forward_v I I I I #
coedge $-1 $282 $283 $284 $285 reversed $112 $-1 #
coedge $-1 $183 $114 $286 $287 reversed $72 $-1 #
coedge $-1 $114 $182 $282 $288 reversed $72 $-1 #
coedge $-1 $284 $289 $114 $185 forward $290 $-1 #
edge $-1 $291 23.633053002473346 $292 27.057282394222739 $184 $293 forward 7 unknown #
loop $-1 $-1 $191 $115 #
plane-surface $-1 -76.47816400646991 4.2043907833884759 11.977545006596344 -0.80901700255871778 0 0.5877852410284794 0.5877852410284794 0 0.80901700255871778 forward_v I I I I #
loop $-1 $-1 $294 $74 #
coedge $-1 $189 $189 $190 $295 reversed $116 $-1 #
coedge $-1 $190 $190 $189 $295 forward $118 $-1 #
coedge $-1 $191 $191 $119 $192 forward $186 $-1 #
edge $-1 $296 0 $296 6.2831853071796004 $191 $297 forward 7 unknown #
loop $-1 $-1 $198 $120 #
plane-surface $-1 -76.47816400646991 4.2043907833884759 11.977545006596344 -0.80901700255871778 0 0.5877852410284794 0.5877852410284794 0 0.80901700255871778 forward_v I I I I #
loop $-1 $-1 $298 $77 #
coedge $-1 $196 $196 $197 $299 reversed $121 $-1 #
coedge $-1 $197 $197 $196 $299 forward $123 $-1 #
coedge $-1 $198 $198 $124 $199 forward $193 $-1 #
edge $-1 $300 0 $300 6.2831853071796004 $198 $301 forward 7 unknown #
face $-1 $302 $303 $30 $-1 $304 reversed single #
loop $-1 $-1 $305 $125 #
plane-surface $-1 -76.478164006469925 0 0 1 0 0 0 0 -1 forward_v I I I I #
coedge $-1 $211 $306 $213 $307 reversed $126 $-1 #
coedge $-1 $308 $128 $306 $309 forward $81 $-1 #
coedge $-1 $128 $308 $310 $311 forward $81 $-1 #
coedge $-1 $214 $213 $128 $207 reversed $215 $-1 #
edge $-1 $312 -43.026115127331458 $313 43.026115127331458 $206 $314 forward 7 unknown #
coedge $-1 $130 $129 $315 $316 forward $51 $-1 #
coedge $-1 $317 $318 $129 $210 reversed $303 $-1 #
edge $-1 $217 -76.478164006469925 $319 76.478164006469925 $209 $320 forward 7 unknown #
coedge $-1 $321 $203 $130 $212 reversed $126 $-1 #
edge $-1 $322 -76.478164006469925 $216 76.478164006469925 $211 $323 forward 7 unknown #
coedge $-1 $206 $131 $203 $307 forward $215 $-1 #
coedge $-1 $131 $206 $317 $324 reversed $215 $-1 #
loop $-1 $-1 $213 $302 #
vertex $-1 $132 $325 #
vertex $-1 $132 $326 #
straight-curve $-1 76.478164006469925 0 16.690592570940197 0 1 0 I I #
face $-1 $327 $328 $31 $-1 $329 reversed single #
loop $-1 $-1 $231 $133 #
plane-surface $-1 0 -48.740596680838195 -11.983282100494726 0 0 1 1 0 0 forward_v I I I I #
coedge $-1 $330 $331 $137 $227 forward $134 $-1 #
coedge $-1 $332 $136 $331 $333 forward $85 $-1 #
coedge $-1 $136 $332 $334 $335 forward $85 $-1 #
coedge $-1 $138 $137 $136 $226 reversed $54 $-1 #
edge $-1 $336 -76.478164006469925 $337 76.478164006469925 $136 $338 forward 7 unknown #
edge $-1 $337 -16.690592570940197 $233 -11.983282100494726 $222 $339 forward 7 unknown #
coedge $-1 $334 $340 $138 $229 forward $341 $-1 #
edge $-1 $232 11.983282100494726 $336 16.690592570940197 $228 $342 forward 7 unknown #
coedge $-1 $343 $139 $340 $344 forward $220 $-1 #
coedge $-1 $139 $343 $330 $345 forward $220 $-1 #
vertex $-1 $229 $346 #
vertex $-1 $345 $347 #
straight-curve $-1 0 -43.026115127331458 -11.983282100494726 1 0 0 I I #
face $-1 $348 $349 $32 $-1 $350 reversed single #
loop $-1 $-1 $351 $141 #
plane-surface $-1 0 0 -16.690592570940197 0 0 1 1 0 0 forward_v I I I I #
coedge $-1 $352 $144 $351 $353 reversed $89 $-1 #
coedge $-1 $144 $352 $146 $245 reversed $89 $-1 #
coedge $-1 $354 $355 $144 $241 forward $349 $-1 #
edge $-1 $356 -10.209317678448617 $357 -2.7532321065345435 $240 $358 forward 7 unknown #
coedge $-1 $146 $145 $354 $359 reversed $57 $-1 #
coedge $-1 $360 $361 $145 $244 forward $362 $-1 #
edge $-1 $363 -76.478164006469925 $248 76.478164006469925 $243 $364 forward 7 unknown #
edge $-1 $357 -76.478164006469925 $249 76.478164006469925 $239 $365 forward 7 unknown #
coedge $-1 $366 $147 $352 $367 forward $142 $-1 #
coedge $-1 $147 $366 $360 $368 reversed $142 $-1 #
vertex $-1 $368 $369 #
vertex $-1 $148 $370 #
straight-curve $-1 76.478164006469925 16.61306949078956 -9.2345069990261237 0 -1 0 I I #
face $-1 $-1 $371 $33 $-1 $372 reversed single #
loop $-1 $-1 $155 $149 #
plane-surface $-1 0 0 16.690592570940197 0 0 1 1 0 0 forward_v I I I I #
coedge $-1 $373 $374 $375 $376 reversed $150 $-1 #
coedge $-1 $377 $152 $154 $261 forward $93 $-1 #
coedge $-1 $152 $377 $373 $378 forward $93 $-1 #
coedge $-1 $375 $155 $152 $258 forward $252 $-1 #
edge $-1 $264 -5.3792188820837588 $379 5.2918034346629135 $257 $380 forward 7 unknown #
coedge $-1 $381 $382 $153 $260 forward $371 $-1 #
edge $-1 $383 -100.45744353133877 $263 -92.739459849248377 $259 $384 forward 7 unknown #
edge $-1 $264 137.97106001936328 $383 152.95632801293985 $154 $385 forward 7 unknown #
coedge $-1 $155 $375 $381 $386 forward $252 $-1 #
vertex $-1 $260 $387 #
vertex $-1 $156 $388 #
straight-curve $-1 12.073667800504985 5.4229266057941814 16.690592570940197 -1 0 0 I I #
coedge $-1 $266 $266 $-1 $389 reversed $159 $-1 #
edge $-1 $390 0 $390 6.2831853071796004 $160 $391 forward 7 unknown #
vertex $-1 $163 $392 #
ellipse-curve $-1 70.055723179138397 -3.1138912476031564 12.831600729895019 0.51503808176128008 0 0.85716729658548041 0.4285836482927402 0 -0.25751904088064004 1 I I #
coedge $-1 $270 $270 $-1 $393 reversed $166 $-1 #
edge $-1 $394 0 $394 6.2831853071796004 $167 $395 forward 7 unknown #
vertex $-1 $170 $396 #
ellipse-curve $-1 70.055723179138397 0.087415447420845283 12.831600729895019 0.51503808176128008 0 0.85716729658548041 0.4285836482927402 0 -0.25751904088064004 1 I I #
coedge $-1 $274 $274 $-1 $397 reversed $173 $-1 #
edge $-1 $398 0 $398 6.2831853071796004 $174 $399 forward 7 unknown #
vertex $-1 $177 $400 #
ellipse-curve $-1 70.055723179138397 3.288722142444847 12.831600729895019 0.51503808176128008 0 0.85716729658548041 0.4285836482927402 0 -0.25751904088064004 1 I I #
face $-1 $-1 $290 $37 $-1 $401 forward single #
loop $-1 $-1 $402 $178 #
plane-surface $-1 -76.478164006469925 0 0 1 0 0 0 0 -1 forward_v I I I I #
coedge $-1 $403 $404 $405 $406 reversed $179 $-1 #
coedge $-1 $407 $181 $183 $288 forward $112 $-1 #
coedge $-1 $181 $407 $403 $408 forward $112 $-1 #
coedge $-1 $405 $184 $181 $285 forward $290 $-1 #
edge $-1 $292 -2.2755108885214597 $409 6.4799016719099356 $284 $410 forward 7 unknown #
coedge $-1 $411 $412 $182 $287 forward $279 $-1 #
edge $-1 $413 -38.963963560660353 $291 -34.250915996316479 $286 $414 forward 7 unknown #
edge $-1 $292 -5.8256471117883413 $413 2.4161062406544664e-014 $183 $415 forward 7 unknown #
coedge $-1 $184 $405 $411 $416 forward $290 $-1 #
loop $-1 $-1 $405 $278 #
vertex $-1 $287 $417 #
vertex $-1 $185 $418 #
straight-curve $-1 -100.11121700894327 -0.17331549682722169 16.690592570940197 1 0 0 I I #
coedge $-1 $294 $294 $-1 $419 reversed $188 $-1 #
edge $-1 $420 0 $420 6.2831853071796004 $189 $421 forward 7 unknown #
vertex $-1 $192 $422 #
ellipse-curve $-1 -74.766049310595221 2.3282309490103188 14.334068788768267 -0.80901700255871778 0 0.5877852410284794 0.5877852410284794 0 0.80901700255871778 1 I I #
coedge $-1 $298 $298 $-1 $423 reversed $195 $-1 #
edge $-1 $424 0 $424 6.2831853071796004 $196 $425 forward 7 unknown #
vertex $-1 $199 $426 #
ellipse-curve $-1 -74.766049310595221 6.0805506177666331 14.334068788768267 -0.80901700255871778 0 0.5877852410284794 0.5877852410284794 0 0.80901700255871778 1 I I #
face $-1 $-1 $215 $30 $-1 $427 reversed single #
loop $-1 $-1 $317 $200 #
plane-surface $-1 0 43.026115127331458 0 0 -1 0 0 0 -1 forward_v I I I I #
coedge $-1 $428 $315 $318 $429 forward $201 $-1 #
coedge $-1 $203 $321 $204 $309 reversed $126 $-1 #
edge $-1 $216 -16.690592570940197 $313 16.690592570940197 $213 $430 forward 7 unknown #
coedge $-1 $205 $204 $428 $431 forward $81 $-1 #
edge $-1 $313 -76.478164006469925 $432 76.478164006469925 $306 $433 forward 7 unknown #
coedge $-1 $318 $317 $205 $311 reversed $303 $-1 #
edge $-1 $434 -76.478164006469925 $312 76.478164006469925 $310 $435 forward 7 unknown #
vertex $-1 $207 $436 #
vertex $-1 $307 $437 #
straight-curve $-1 76.478164006469925 0 -16.690592570940197 0 -1 0 I I #
coedge $-1 $305 $438 $208 $316 reversed $201 $-1 #
edge $-1 $319 -43.026115127331458 $322 43.026115127331458 $315 $439 forward 7 unknown #
coedge $-1 $310 $209 $214 $324 forward $303 $-1 #
coedge $-1 $209 $310 $305 $429 reversed $303 $-1 #
vertex $-1 $210 $440 #
straight-curve $-1 0 43.026115127331458 16.690592570940197 -1 0 0 I I #
coedge $-1 $306 $211 $438 $441 forward $126 $-1 #
vertex $-1 $316 $442 #
straight-curve $-1 0 -43.026115127331458 16.690592570940197 1 0 0 I I #
edge $-1 $217 -16.690592570940197 $312 16.690592570940197 $214 $443 forward 7 unknown #
point $-1 76.478164006469925 -43.026115127331458 16.690592570940197 #
point $-1 76.478164006469925 43.026115127331458 16.690592570940197 #
face $-1 $-1 $341 $31 $-1 $444 reversed single #
loop $-1 $-1 $445 $219 #
plane-surface $-1 0 -54.455078234344938 -14.336937335717462 0 1 0 0 0 1 forward_v I I I I #
coedge $-1 $446 $222 $231 $345 reversed $134 $-1 #
coedge $-1 $222 $446 $223 $333 reversed $134 $-1 #
coedge $-1 $224 $223 $447 $448 forward $85 $-1 #
edge $-1 $337 43.026115127331458 $449 54.455078234344938 $331 $450 forward 7 unknown #
coedge $-1 $451 $228 $224 $335 reversed $341 $-1 #
edge $-1 $452 -54.455078234344938 $336 -43.026115127331458 $334 $453 forward 7 unknown #
vertex $-1 $229 $454 #
vertex $-1 $333 $455 #
straight-curve $-1 0 -43.026115127331458 -16.690592570940197 1 0 0 I I #
straight-curve $-1 76.478164006469925 -43.026115127331458 0 0 0 1 I I #
coedge $-1 $228 $451 $230 $344 reversed $341 $-1 #
loop $-1 $-1 $228 $327 #
straight-curve $-1 -76.478164006469925 -43.026115127331458 0 0 0 -1 I I #
coedge $-1 $231 $230 $456 $457 forward $220 $-1 #
edge $-1 $232 -5.7144815535067437 $458 5.7144815535067437 $340 $459 forward 7 unknown #
edge $-1 $460 -5.7144815535067437 $233 5.7144815535067437 $330 $461 forward 7 unknown #
point $-1 -76.478164006469925 -43.026115127331451 -11.983282100494726 #
point $-1 76.478164006469925 -43.026115127331451 -11.983282100494726 #
face $-1 $-1 $362 $32 $-1 $462 reversed single #
loop $-1 $-1 $354 $235 #
plane-surface $-1 -76.478164006469925 0 0 1 0 0 0 0 -1 forward_v I I I I #
coedge $-1 $463 $464 $238 $353 forward $236 $-1 #
coedge $-1 $239 $238 $246 $367 reversed $89 $-1 #
edge $-1 $465 -76.478164006469925 $356 76.478164006469925 $351 $466 forward 7 unknown #
coedge $-1 $467 $240 $242 $359 forward $349 $-1 #
coedge $-1 $240 $467 $463 $468 reversed $349 $-1 #
vertex $-1 $468 $469 #
vertex $-1 $359 $470 #
straight-curve $-1 -76.478164006469925 23.42616283582678 -6.4812748924915802 0 0 1 I I #
edge $-1 $357 6.8130933450372204 $363 26.413045636541899 $354 $471 forward 7 unknown #
coedge $-1 $472 $243 $247 $368 forward $362 $-1 #
coedge $-1 $243 $472 $467 $473 reversed $362 $-1 #
loop $-1 $-1 $243 $348 #
vertex $-1 $473 $474 #
straight-curve $-1 0 43.026115127331458 -9.2345069990261237 1 0 0 I I #
straight-curve $-1 0 23.42616283582678 -9.2345069990261237 1 0 0 I I #
coedge $-1 $247 $246 $464 $475 reversed $142 $-1 #
edge $-1 $249 2.7532321065345435 $465 10.209317678448617 $246 $476 forward 7 unknown #
edge $-1 $248 9.2345069990261237 $477 16.690592570940197 $247 $478 forward 7 unknown #
point $-1 76.478164006469925 43.026115127331458 -9.2345069990261237 #
point $-1 76.478164006469925 23.42616283582678 -9.2345069990261237 #
loop $-1 $-1 $259 $251 #
plane-surface $-1 76.478164006469925 0 0 -1 0 0 0 0 1 forward_v I I I I #
coedge $-1 $374 $254 $256 $378 reversed $150 $-1 #
coedge $-1 $254 $373 $479 $480 reversed $150 $-1 #
coedge $-1 $262 $257 $254 $376 forward $252 $-1 #
edge $-1 $379 51.559614551301969 $481 64.404496205964932 $375 $482 forward 7 unknown #
coedge $-1 $256 $255 $382 $483 reversed $93 $-1 #
edge $-1 $484 -152.95632801293985 $379 -137.97106001936328 $373 $485 forward 7 unknown #
vertex $-1 $258 $486 #
straight-curve $-1 63.633282351806969 0.043707723710422641 16.690592570940197 0 -1 0 I I #
coedge $-1 $479 $259 $262 $386 reversed $371 $-1 #
coedge $-1 $259 $479 $377 $483 forward $371 $-1 #
vertex $-1 $260 $487 #
straight-curve $-1 76.478164006469925 5.4229266057941814 109.43005242018857 0 0 1 I I #
straight-curve $-1 -54.630998172023723 5.4229266057941814 87.750942661883499 0.85716729658548041 0 -0.51503808176128008 I I #
edge $-1 $481 -5.2480957109524908 $263 5.4229266057941814 $381 $488 forward 7 unknown #
point $-1 76.478164006469925 5.4229266057941814 16.690592570940197 #
point $-1 63.633282351806955 5.4229266057941814 16.690592570940197 #
edge $-1 $489 1 $489 0 $266 $-1 forward 7 unknown #
vertex $-1 $267 $490 #
ellipse-curve $-1 69.540685097377107 -3.1138912476031564 11.974433433309526 0.51503808176128008 0 0.85716729658548041 0.4285836482927402 0 -0.25751904088064004 1 I I #
point $-1 70.484306827431126 -3.1138912476031564 12.574081689014367 #
edge $-1 $491 1 $491 0 $270 $-1 forward 7 unknown #
vertex $-1 $271 $492 #
ellipse-curve $-1 69.540685097377107 0.087415447420845283 11.974433433309526 0.51503808176128008 0 0.85716729658548041 0.4285836482927402 0 -0.25751904088064004 1 I I #
point $-1 70.484306827431126 0.087415447420845283 12.574081689014367 #
edge $-1 $493 1 $493 0 $274 $-1 forward 7 unknown #
vertex $-1 $275 $494 #
ellipse-curve $-1 69.540685097377107 3.288722142444847 11.974433433309526 0.51503808176128008 0 0.85716729658548041 0.4285836482927402 0 -0.25751904088064004 1 I I #
point $-1 70.484306827431126 3.288722142444847 12.574081689014367 #
plane-surface $-1 0 0 16.690592570940197 0 0 1 1 0 0 forward_v I I I I #
coedge $-1 $412 $411 $404 $495 forward $279 $-1 #
coedge $-1 $404 $281 $283 $408 reversed $179 $-1 #
coedge $-1 $281 $403 $402 $495 reversed $179 $-1 #
coedge $-1 $289 $284 $281 $406 forward $290 $-1 #
edge $-1 $409 -27.057282394222739 $496 -23.633053002473346 $405 $497 forward 7 unknown #
coedge $-1 $283 $282 $412 $498 reversed $112 $-1 #
edge $-1 $499 -2.4161062406544664e-014 $409 5.8256471117883413 $403 $500 forward 7 unknown #
vertex $-1 $285 $501 #
straight-curve $-1 -73.053934614720532 2.102195391694238 16.690592570940197 0 1 0 I I #
coedge $-1 $402 $286 $289 $416 reversed $279 $-1 #
coedge $-1 $286 $402 $407 $498 forward $279 $-1 #
vertex $-1 $287 $502 #
straight-curve $-1 -76.478164006469925 -0.17331549682722169 50.941508567256676 0 0 1 I I #
straight-curve $-1 -76.47816400646991 -0.17331549682722169 11.977545006596344 -0.5877852410284794 0 -0.80901700255871778 I I #
edge $-1 $496 -8.5820970636041736 $291 0.17331549682722169 $411 $503 forward 7 unknown #
point $-1 -76.478164006469925 -0.17331549682722169 16.690592570940197 #
point $-1 -73.053934614720532 -0.17331549682722169 16.690592570940197 #
edge $-1 $504 1 $504 0 $294 $-1 forward 7 unknown #
vertex $-1 $295 $505 #
ellipse-curve $-1 -71.554868813363655 2.3282309490103188 12.001009660738122 -0.80901700255871778 0 0.5877852410284794 0.5877852410284794 0 0.80901700255871778 1 I I #
point $-1 -74.178264069566751 2.3282309490103188 15.143085791326993 #
edge $-1 $506 1 $506 0 $298 $-1 forward 7 unknown #
vertex $-1 $299 $507 #
ellipse-curve $-1 -71.554868813363655 6.0805506177666331 12.001009660738122 -0.80901700255871778 0 0.5877852410284794 0.5877852410284794 0 0.80901700255871778 1 I I #
point $-1 -74.178264069566751 6.0805506177666331 15.143085791326993 #
plane-surface $-1 76.478164006469925 0 0 -1 0 0 0 0 1 forward_v I I I I #
coedge $-1 $438 $305 $308 $431 reversed $201 $-1 #
edge $-1 $319 -16.690592570940197 $434 16.690592570940197 $318 $508 forward 7 unknown #
straight-curve $-1 76.478164006469925 -43.026115127331458 0 0 0 -1 I I #
edge $-1 $432 -43.026115127331458 $434 43.026115127331458 $428 $509 forward 7 unknown #
vertex $-1 $431 $510 #
straight-curve $-1 0 -43.026115127331458 -16.690592570940197 -1 0 0 I I #
vertex $-1 $311 $511 #
straight-curve $-1 0 43.026115127331458 -16.690592570940197 1 0 0 I I #
point $-1 76.478164006469925 43.026115127331458 -16.690592570940197 #
point $-1 76.478164006469925 -43.026115127331458 -16.690592570940197 #
coedge $-1 $315 $428 $321 $441 reversed $201 $-1 #
straight-curve $-1 -76.478164006469925 0 16.690592570940197 0 -1 0 I I #
point $-1 -76.478164006469925 43.026115127331458 16.690592570940197 #
edge $-1 $322 -16.690592570940197 $432 16.690592570940197 $438 $512 forward 7 unknown #
point $-1 -76.478164006469925 -43.026115127331458 16.690592570940197 #
straight-curve $-1 76.478164006469925 43.026115127331458 0 0 0 -1 I I #
plane-surface $-1 -76.478164006469925 0 0 1 0 0 0 0 -1 forward_v I I I I #
coedge $-1 $447 $456 $451 $513 forward $328 $-1 #
coedge $-1 $331 $330 $514 $515 forward $134 $-1 #
coedge $-1 $514 $445 $332 $448 reversed $328 $-1 #
edge $-1 $449 -76.478164006469925 $452 76.478164006469925 $447 $516 forward 7 unknown #
vertex $-1 $515 $517 #
straight-curve $-1 76.478164006469925 0 -16.690592570940197 0 -1 0 I I #
coedge $-1 $340 $334 $445 $513 reversed $341 $-1 #
vertex $-1 $335 $518 #
straight-curve $-1 -76.478164006469925 0 -16.690592570940197 0 1 0 I I #
point $-1 -76.478164006469925 -43.026115127331458 -16.690592570940197 #
point $-1 76.478164006469925 -43.026115127331458 -16.690592570940197 #
coedge $-1 $445 $514 $343 $457 reversed $328 $-1 #
edge $-1 $458 -76.478164006469925 $460 76.478164006469925 $456 $519 forward 7 unknown #
vertex $-1 $344 $520 #
straight-curve $-1 -76.478164006469925 -48.740596680838195 -11.983282100494726 0 -1 0 I I #
vertex $-1 $345 $521 #
straight-curve $-1 76.478164006469925 -48.740596680838195 -11.983282100494726 0 1 0 I I #
plane-surface $-1 0 43.026115127331458 0 0 -1 0 0 0 -1 forward_v I I I I #
coedge $-1 $522 $351 $355 $468 forward $236 $-1 #
coedge $-1 $351 $522 $366 $475 forward $236 $-1 #
vertex $-1 $353 $523 #
straight-curve $-1 0 23.42616283582678 -16.690592570940197 -1 0 0 I I #
coedge $-1 $355 $354 $361 $473 forward $349 $-1 #
edge $-1 $356 23.42616283582678 $524 43.026115127331458 $355 $525 forward 7 unknown #
point $-1 -76.478164006469925 23.42616283582678 -16.690592570940197 #
point $-1 -76.478164006469925 23.42616283582678 -9.2345069990261237 #
straight-curve $-1 -76.478164006469925 16.61306949078956 -9.2345069990261237 0 1 0 I I #
coedge $-1 $361 $360 $522 $526 reversed $362 $-1 #
edge $-1 $363 9.2345069990261237 $524 16.690592570940197 $361 $527 forward 7 unknown #
point $-1 -76.478164006469925 43.026115127331458 -9.2345069990261237 #
edge $-1 $477 -43.026115127331458 $465 -23.42616283582678 $366 $528 forward 7 unknown #
straight-curve $-1 76.478164006469925 23.42616283582678 -6.4812748924915802 0 0 -1 I I #
vertex $-1 $475 $529 #
straight-curve $-1 76.478164006469925 43.026115127331458 0 0 0 -1 I I #
coedge $-1 $382 $381 $374 $480 forward $371 $-1 #
edge $-1 $481 92.739459849248377 $484 100.45744353133877 $479 $530 forward 7 unknown #
vertex $-1 $386 $531 #
straight-curve $-1 12.073667800504985 -5.2480957109524908 16.690592570940197 1 0 0 I I #
edge $-1 $484 -5.2918034346629135 $383 5.3792188820837588 $382 $532 forward 7 unknown #
vertex $-1 $483 $533 #
straight-curve $-1 -54.630998172023723 -5.2480957109524908 87.750942661883499 -0.85716729658548041 0 0.51503808176128008 I I #
point $-1 63.633282351806955 -5.2480957109524908 16.690592570940197 #
point $-1 76.478164006469925 5.4229266057941814 8.9726088888498055 #
straight-curve $-1 76.478164006469925 0 16.690592570940197 0 1 0 I I #
vertex $-1 $389 $534 #
point $-1 69.969268745669837 -3.1138912476031564 11.716914392428887 #
vertex $-1 $393 $535 #
point $-1 69.969268745669837 0.087415447420845283 11.716914392428887 #
vertex $-1 $397 $536 #
point $-1 69.969268745669837 3.288722142444847 11.716914392428887 #
edge $-1 $496 34.250915996316479 $499 38.963963560660353 $402 $537 forward 7 unknown #
vertex $-1 $416 $538 #
straight-curve $-1 -100.11121700894327 8.5820970636041736 16.690592570940197 -1 0 0 I I #
edge $-1 $499 -6.4799016719099356 $413 2.2755108885214597 $412 $539 forward 7 unknown #
vertex $-1 $498 $540 #
straight-curve $-1 -76.47816400646991 8.5820970636041736 11.977545006596344 0.5877852410284794 0 0.80901700255871778 I I #
point $-1 -73.053934614720532 8.5820970636041736 16.690592570940197 #
point $-1 -76.478164006469925 -0.17331549682722169 11.977545006596324 #
straight-curve $-1 -76.478164006469925 0 16.690592570940197 0 -1 0 I I #
vertex $-1 $419 $541 #
point $-1 -70.967083572335184 2.3282309490103188 12.810026663296838 #
vertex $-1 $423 $542 #
point $-1 -70.967083572335184 6.0805506177666331 12.810026663296838 #
straight-curve $-1 -76.478164006469925 43.026115127331458 0 0 0 -1 I I #
straight-curve $-1 -76.478164006469925 0 -16.690592570940197 0 1 0 I I #
point $-1 -76.478164006469925 -43.026115127331458 -16.690592570940197 #
point $-1 -76.478164006469925 43.026115127331458 -16.690592570940197 #
straight-curve $-1 -76.478164006469925 -43.026115127331458 0 0 0 -1 I I #
edge $-1 $458 -2.3536552352227353 $452 2.3536552352227353 $451 $543 forward 7 unknown #
coedge $-1 $456 $447 $446 $515 reversed $328 $-1 #
edge $-1 $460 -2.3536552352227353 $449 2.3536552352227353 $446 $544 forward 7 unknown #
straight-curve $-1 0 -54.455078234344938 -16.690592570940197 -1 0 0 I I #
point $-1 76.478164006469925 -54.455078234344938 -16.690592570940197 #
point $-1 -76.478164006469925 -54.455078234344938 -16.690592570940197 #
straight-curve $-1 0 -54.455078234344938 -11.983282100494726 1 0 0 I I #
point $-1 -76.478164006469925 -54.455078234344938 -11.983282100494726 #
point $-1 76.478164006469925 -54.455078234344938 -11.983282100494726 #
coedge $-1 $464 $463 $472 $526 forward $236 $-1 #
point $-1 76.478164006469925 23.42616283582678 -16.690592570940197 #
vertex $-1 $526 $545 #
straight-curve $-1 -76.478164006469925 0 -16.690592570940197 0 1 0 I I #
edge $-1 $524 -76.478164006469925 $477 76.478164006469925 $472 $546 forward 7 unknown #
straight-curve $-1 -76.478164006469925 43.026115127331458 0 0 0 -1 I I #
straight-curve $-1 76.478164006469925 0 -16.690592570940197 0 -1 0 I I #
point $-1 76.478164006469925 43.026115127331458 -16.690592570940197 #
straight-curve $-1 76.478164006469925 -5.2480957109524908 109.43005242018857 0 0 -1 I I #
point $-1 76.478164006469925 -5.2480957109524908 16.690592570940197 #
straight-curve $-1 76.47816400646991 0.043707723710422641 8.9726088888498055 0 1 0 I I #
point $-1 76.478164006469925 -5.2480957109524908 8.9726088888498055 #
point $-1 69.283166056496455 -3.1138912476031564 11.545849785016786 #
point $-1 69.283166056496455 0.087415447420845283 11.545849785016786 #
point $-1 69.283166056496455 3.288722142444847 11.545849785016786 #
straight-curve $-1 -76.478164006469925 8.5820970636041736 50.941508567256676 0 0 -1 I I #
point $-1 -76.478164006469925 8.5820970636041736 16.690592570940197 #
straight-curve $-1 -76.478164006469925 2.102195391694238 11.977545006596319 0 -1 0 I I #
point $-1 -76.478164006469925 8.5820970636041736 11.977545006596324 #
point $-1 -70.74585181080495 2.3282309490103188 11.413224419709641 #
point $-1 -70.74585181080495 6.0805506177666331 11.413224419709641 #
straight-curve $-1 -76.478164006469925 -54.455078234344938 -14.336937335717462 0 0 -1 I I #
straight-curve $-1 76.478164006469925 -54.455078234344938 -14.336937335717462 0 0 -1 I I #
point $-1 -76.478164006469925 43.026115127331458 -16.690592570940197 #
straight-curve $-1 0 43.026115127331458 -16.690592570940197 1 0 0 I I #
End-of-ACIS-data 