500 0 3 0           
7 Unknown 11 ACIS 5.0 NT 24 Thu Mar 25 18:49:53 1999 
-1 9.9999999999999995e-007 1e-010 
body $-1 $3 $-1 $4 #
body $-1 $5 $-1 $6 #
body $-1 $7 $-1 $8 #
lump $-1 $-1 $9 $0 #
transform $-1 1 0 0 0 1 0 0 0 1 78.098086489455852 41.477050712814986 9.6947716820086889 1 rotate no_reflect no_shear #
lump $-1 $-1 $10 $1 #
transform $-1 1 0 0 0 1 0 0 0 1 78.098086489455852 41.477050712814986 9.6947716820086889 1 rotate no_reflect no_shear #
lump $-1 $-1 $11 $2 #
transform $-1 1 0 0 0 1 0 0 0 1 78.098086489455852 41.477050712814986 9.6947716820086889 1 rotate no_reflect no_shear #
shell $-1 $-1 $-1 $12 $-1 $3 #
shell $-1 $-1 $-1 $13 $-1 $5 #
shell $-1 $-1 $-1 $14 $-1 $7 #
face $-1 $15 $16 $9 $-1 $17 forward single #
face $-1 $18 $19 $10 $-1 $20 forward single #
face $-1 $21 $22 $11 $-1 $23 forward single #
face $-1 $24 $25 $9 $-1 $26 reversed single #
loop $-1 $-1 $27 $12 #
plane-surface $-1 0 0 9.6947716820086889 0 0 1 1 0 0 forward_v I I I I #
face $-1 $28 $29 $10 $-1 $30 reversed single #
loop $-1 $-1 $31 $13 #
plane-surface $-1 -71.894323181614439 0 7.8771444970650499 0 0 1 1 0 0 forward_v I I I I #
face $-1 $32 $33 $11 $-1 $34 reversed single #
loop $-1 $-1 $35 $14 #
plane-surface $-1 74.67795672804354 0 -4.0387435947169834 0 0 1 1 0 0 forward_v I I I I #
face $-1 $36 $37 $9 $-1 $38 reversed single #
loop $-1 $-1 $39 $15 #
plane-surface $-1 0 0 -9.6947716820086889 0 0 1 1 0 0 forward_v I I I I #
coedge $-1 $40 $41 $42 $43 forward $16 $-1 #
face $-1 $44 $45 $10 $-1 $46 reversed single #
loop $-1 $-1 $47 $18 #
plane-surface $-1 -71.894323181614439 0 2.4618362266770077 0 0 1 1 0 0 forward_v I I I I #
coedge $-1 $48 $49 $50 $51 forward $19 $-1 #
face $-1 $52 $53 $11 $-1 $54 reversed single #
loop $-1 $-1 $55 $21 #
plane-surface $-1 71.257826966631228 0 -6.8667576383628361 1 0 0 0 0 -1 forward_v I I I I #
coedge $-1 $56 $57 $58 $59 reversed $22 $-1 #
face $-1 $60 $61 $9 $-1 $62 reversed single #
loop $-1 $-1 $63 $24 #
plane-surface $-1 0 -41.477050712814986 0 0 1 0 0 0 1 forward_v I I I I #
coedge $-1 $64 $65 $66 $67 forward $25 $-1 #
coedge $-1 $68 $27 $69 $70 forward $16 $-1 #
coedge $-1 $27 $68 $71 $72 forward $16 $-1 #
coedge $-1 $73 $74 $27 $43 reversed $75 $-1 #
edge $-1 $76 -41.477050712814986 $77 41.477050712814986 $42 $78 forward 7 unknown #
face $-1 $79 $80 $10 $-1 $81 reversed single #
loop $-1 $-1 $82 $28 #
plane-surface $-1 -65.690559873773026 0 5.1694903618710288 -1 0 0 0 0 1 forward_v I I I I #
coedge $-1 $83 $84 $85 $86 forward $29 $-1 #
coedge $-1 $87 $31 $88 $89 reversed $19 $-1 #
coedge $-1 $31 $87 $90 $91 reversed $19 $-1 #
coedge $-1 $82 $92 $31 $51 reversed $45 $-1 #
edge $-1 $93 -41.477050712814986 $94 41.477050712814986 $50 $95 forward 7 unknown #
face $-1 $96 $97 $11 $-1 $98 reversed single #
loop $-1 $-1 $99 $32 #
plane-surface $-1 0 -41.477050712814986 0 0 1 0 0 0 1 forward_v I I I I #
coedge $-1 $100 $101 $102 $103 reversed $33 $-1 #
coedge $-1 $104 $35 $105 $106 reversed $22 $-1 #
coedge $-1 $35 $104 $99 $107 reversed $22 $-1 #
coedge $-1 $108 $109 $35 $59 forward $110 $-1 #
edge $-1 $111 -41.477050712814986 $112 41.477050712814986 $58 $113 forward 7 unknown #
face $-1 $114 $115 $9 $-1 $116 reversed single #
loop $-1 $-1 $117 $36 #
plane-surface $-1 -78.098086489455852 0 0 1 0 0 0 0 -1 forward_v I I I I #
coedge $-1 $118 $71 $119 $120 forward $37 $-1 #
coedge $-1 $121 $39 $118 $122 forward $25 $-1 #
coedge $-1 $39 $121 $123 $124 forward $25 $-1 #
coedge $-1 $74 $73 $39 $67 reversed $75 $-1 #
edge $-1 $125 -41.477050712814986 $126 41.477050712814986 $66 $127 forward 7 unknown #
coedge $-1 $41 $40 $128 $129 forward $16 $-1 #
coedge $-1 $130 $131 $40 $70 reversed $115 $-1 #
edge $-1 $77 -78.098086489455852 $132 78.098086489455852 $69 $133 forward 7 unknown #
coedge $-1 $63 $134 $41 $72 reversed $37 $-1 #
edge $-1 $135 -78.098086489455852 $76 78.098086489455852 $71 $136 forward 7 unknown #
coedge $-1 $66 $42 $134 $137 forward $75 $-1 #
coedge $-1 $42 $66 $130 $138 reversed $75 $-1 #
loop $-1 $-1 $73 $114 #
vertex $-1 $43 $139 #
vertex $-1 $43 $140 #
straight-curve $-1 78.098086489455852 0 9.6947716820086889 0 1 0 I I #
face $-1 $141 $142 $10 $-1 $143 reversed single #
loop $-1 $-1 $144 $44 #
plane-surface $-1 0 -41.477050712814986 0 0 1 0 0 0 1 forward_v I I I I #
coedge $-1 $85 $50 $145 $146 reversed $45 $-1 #
coedge $-1 $147 $47 $144 $148 reversed $29 $-1 #
coedge $-1 $47 $147 $149 $150 reversed $29 $-1 #
coedge $-1 $92 $82 $47 $86 reversed $45 $-1 #
edge $-1 $151 -41.477050712814986 $152 41.477050712814986 $85 $153 forward 7 unknown #
coedge $-1 $49 $48 $154 $155 reversed $19 $-1 #
coedge $-1 $156 $157 $48 $89 forward $158 $-1 #
edge $-1 $159 -42.150924898648633 $94 -29.743398282965806 $88 $160 forward 7 unknown #
coedge $-1 $161 $145 $49 $91 forward $80 $-1 #
edge $-1 $93 29.743398282965806 $162 42.150924898648633 $90 $163 forward 7 unknown #
coedge $-1 $50 $85 $156 $164 reversed $45 $-1 #
vertex $-1 $91 $165 #
vertex $-1 $89 $166 #
straight-curve $-1 -65.690559873773026 0 7.8771444970650499 0 1 0 I I #
face $-1 $167 $168 $11 $-1 $169 reversed single #
loop $-1 $-1 $170 $52 #
plane-surface $-1 0 0 -9.6947716820086889 0 0 1 1 0 0 forward_v I I I I #
coedge $-1 $171 $172 $57 $107 forward $53 $-1 #
coedge $-1 $173 $55 $170 $174 reversed $33 $-1 #
coedge $-1 $55 $173 $104 $175 reversed $33 $-1 #
coedge $-1 $105 $176 $55 $103 forward $168 $-1 #
edge $-1 $177 -6.2613928628272708 $178 -0.60536477553556534 $102 $179 forward 7 unknown #
coedge $-1 $57 $56 $101 $175 forward $22 $-1 #
coedge $-1 $180 $102 $56 $106 forward $168 $-1 #
edge $-1 $178 33.918848602609458 $111 40.759108125434082 $105 $181 forward 7 unknown #
edge $-1 $112 -40.759108125434082 $182 -33.918848602609458 $99 $183 forward 7 unknown #
coedge $-1 $184 $58 $172 $185 forward $110 $-1 #
coedge $-1 $58 $184 $180 $186 reversed $110 $-1 #
loop $-1 $-1 $58 $167 #
vertex $-1 $186 $187 #
vertex $-1 $185 $188 #
straight-curve $-1 78.098086489455852 0 -4.0387435947169834 0 -1 0 I I #
face $-1 $-1 $75 $9 $-1 $189 reversed single #
loop $-1 $-1 $130 $60 #
plane-surface $-1 0 41.477050712814986 0 0 -1 0 0 0 -1 forward_v I I I I #
coedge $-1 $190 $128 $131 $191 forward $61 $-1 #
coedge $-1 $134 $63 $64 $122 reversed $37 $-1 #
coedge $-1 $128 $190 $63 $120 reversed $61 $-1 #
edge $-1 $135 -9.6947716820086889 $192 9.6947716820086889 $119 $193 forward 7 unknown #
coedge $-1 $65 $64 $190 $194 forward $25 $-1 #
edge $-1 $126 -78.098086489455852 $192 78.098086489455852 $118 $195 forward 7 unknown #
coedge $-1 $131 $130 $65 $124 reversed $115 $-1 #
edge $-1 $196 -78.098086489455852 $125 78.098086489455852 $123 $197 forward 7 unknown #
vertex $-1 $67 $198 #
vertex $-1 $137 $199 #
straight-curve $-1 78.098086489455852 0 -9.6947716820086889 0 -1 0 I I #
coedge $-1 $117 $119 $68 $129 reversed $61 $-1 #
edge $-1 $132 -41.477050712814986 $135 41.477050712814986 $128 $200 forward 7 unknown #
coedge $-1 $123 $69 $74 $138 forward $115 $-1 #
coedge $-1 $69 $123 $117 $191 reversed $115 $-1 #
vertex $-1 $70 $201 #
straight-curve $-1 0 41.477050712814986 9.6947716820086889 -1 0 0 I I #
coedge $-1 $71 $118 $73 $137 reversed $37 $-1 #
vertex $-1 $129 $202 #
straight-curve $-1 0 -41.477050712814986 9.6947716820086889 1 0 0 I I #
edge $-1 $76 -9.6947716820086889 $126 9.6947716820086889 $73 $203 forward 7 unknown #
edge $-1 $77 -9.6947716820086889 $125 9.6947716820086889 $74 $204 forward 7 unknown #
point $-1 78.098086489455852 -41.477050712814986 9.6947716820086889 #
point $-1 78.098086489455852 41.477050712814986 9.6947716820086889 #
face $-1 $-1 $158 $10 $-1 $205 reversed single #
loop $-1 $-1 $206 $79 #
plane-surface $-1 -78.098086489455852 0 0 1 0 0 0 0 -1 forward_v I I I I #
coedge $-1 $145 $161 $83 $148 forward $80 $-1 #
coedge $-1 $90 $144 $82 $146 forward $80 $-1 #
edge $-1 $152 -0.12290895425850668 $93 5.2923993161295355 $145 $207 forward 7 unknown #
coedge $-1 $84 $83 $206 $208 reversed $29 $-1 #
edge $-1 $209 -42.150924898648633 $152 -29.743398282965806 $144 $210 forward 7 unknown #
coedge $-1 $157 $156 $84 $150 forward $158 $-1 #
edge $-1 $151 29.743398282965806 $211 42.150924898648633 $149 $212 forward 7 unknown #
vertex $-1 $150 $213 #
vertex $-1 $148 $214 #
straight-curve $-1 -65.690559873773026 0 2.4618362266770077 0 -1 0 I I #
coedge $-1 $215 $216 $87 $155 forward $142 $-1 #
edge $-1 $162 -41.477050712814986 $159 41.477050712814986 $154 $217 forward 7 unknown #
coedge $-1 $149 $88 $92 $164 forward $158 $-1 #
coedge $-1 $88 $149 $215 $218 reversed $158 $-1 #
loop $-1 $-1 $149 $141 #
vertex $-1 $218 $219 #
straight-curve $-1 -35.94716159080722 41.477050712814986 7.8771444970650499 1 0 0 I I #
coedge $-1 $144 $90 $216 $220 forward $80 $-1 #
vertex $-1 $220 $221 #
straight-curve $-1 -35.94716159080722 -41.477050712814986 7.8771444970650499 -1 0 0 I I #
edge $-1 $94 -5.2923993161295355 $151 0.12290895425850668 $156 $222 forward 7 unknown #
point $-1 -65.690559873773026 -41.477050712814986 7.8771444970650499 #
point $-1 -65.690559873773026 41.477050712814986 7.8771444970650499 #
face $-1 $-1 $110 $11 $-1 $223 reversed single #
loop $-1 $-1 $105 $96 #
plane-surface $-1 0 41.477050712814986 0 0 -1 0 0 0 -1 forward_v I I I I #
coedge $-1 $224 $225 $100 $174 forward $97 $-1 #
coedge $-1 $226 $99 $173 $227 forward $53 $-1 #
coedge $-1 $99 $226 $108 $185 reversed $53 $-1 #
coedge $-1 $101 $100 $171 $227 reversed $33 $-1 #
edge $-1 $228 -41.477050712814986 $177 41.477050712814986 $170 $229 forward 7 unknown #
edge $-1 $178 -41.477050712814986 $182 41.477050712814986 $101 $230 forward 7 unknown #
coedge $-1 $102 $180 $224 $231 reversed $168 $-1 #
vertex $-1 $231 $232 #
vertex $-1 $106 $233 #
straight-curve $-1 71.257826966631228 41.477050712814986 -3.4333788191814181 0 0 1 I I #
coedge $-1 $176 $105 $109 $186 forward $168 $-1 #
straight-curve $-1 37.33897836402177 41.477050712814986 -4.0387435947169834 1 0 0 I I #
vertex $-1 $107 $234 #
straight-curve $-1 37.33897836402177 -41.477050712814986 -4.0387435947169834 -1 0 0 I I #
coedge $-1 $109 $108 $235 $236 reversed $110 $-1 #
edge $-1 $112 4.0387435947169834 $237 9.6947716820086889 $108 $238 forward 7 unknown #
edge $-1 $111 4.0387435947169834 $239 9.6947716820086889 $109 $240 forward 7 unknown #
point $-1 78.098086489455852 41.477050712814986 -4.0387435947169834 #
point $-1 78.098086489455852 -41.477050712814986 -4.0387435947169834 #
plane-surface $-1 78.098086489455852 0 0 -1 0 0 0 0 1 forward_v I I I I #
coedge $-1 $119 $117 $121 $194 reversed $61 $-1 #
edge $-1 $132 -9.6947716820086889 $196 9.6947716820086889 $131 $241 forward 7 unknown #
vertex $-1 $194 $242 #
straight-curve $-1 -78.098086489455852 -41.477050712814986 0 0 0 -1 I I #
edge $-1 $192 -41.477050712814986 $196 41.477050712814986 $190 $243 forward 7 unknown #
straight-curve $-1 0 -41.477050712814986 -9.6947716820086889 -1 0 0 I I #
vertex $-1 $124 $244 #
straight-curve $-1 0 41.477050712814986 -9.6947716820086889 1 0 0 I I #
point $-1 78.098086489455852 41.477050712814986 -9.6947716820086889 #
point $-1 78.098086489455852 -41.477050712814986 -9.6947716820086889 #
straight-curve $-1 -78.098086489455852 0 9.6947716820086889 0 -1 0 I I #
point $-1 -78.098086489455852 41.477050712814986 9.6947716820086889 #
point $-1 -78.098086489455852 -41.477050712814986 9.6947716820086889 #
straight-curve $-1 78.098086489455852 -41.477050712814986 0 0 0 -1 I I #
straight-curve $-1 78.098086489455852 41.477050712814986 0 0 0 -1 I I #
plane-surface $-1 0 41.477050712814986 0 0 -1 0 0 0 -1 forward_v I I I I #
coedge $-1 $216 $215 $147 $208 forward $142 $-1 #
straight-curve $-1 -65.690559873773026 -41.477050712814986 2.5847451809355144 0 0 1 I I #
edge $-1 $211 -41.477050712814986 $209 41.477050712814986 $206 $245 forward 7 unknown #
vertex $-1 $148 $246 #
straight-curve $-1 -35.94716159080722 -41.477050712814986 2.4618362266770077 1 0 0 I I #
vertex $-1 $150 $247 #
straight-curve $-1 -35.94716159080722 41.477050712814986 2.4618362266770077 -1 0 0 I I #
point $-1 -65.690559873773026 41.477050712814986 2.4618362266770077 #
point $-1 -65.690559873773026 -41.477050712814986 2.4618362266770077 #
coedge $-1 $206 $154 $157 $218 forward $142 $-1 #
coedge $-1 $154 $206 $161 $220 reversed $142 $-1 #
straight-curve $-1 -78.098086489455852 0 7.8771444970650499 0 1 0 I I #
edge $-1 $159 -7.8771444970650499 $211 -2.4618362266770077 $157 $248 forward 7 unknown #
point $-1 -78.098086489455852 41.477050712814986 7.8771444970650499 #
edge $-1 $162 -7.8771444970650499 $209 -2.4618362266770077 $216 $249 forward 7 unknown #
point $-1 -78.098086489455852 -41.477050712814986 7.8771444970650499 #
straight-curve $-1 -65.690559873773026 41.477050712814986 2.5847451809355144 0 0 -1 I I #
plane-surface $-1 78.098086489455852 0 0 -1 0 0 0 0 1 forward_v I I I I #
coedge $-1 $235 $170 $176 $231 forward $97 $-1 #
coedge $-1 $170 $235 $226 $250 forward $97 $-1 #
coedge $-1 $172 $171 $225 $250 reversed $53 $-1 #
edge $-1 $182 0.60536477553556534 $228 6.2613928628272708 $171 $251 forward 7 unknown #
vertex $-1 $174 $252 #
straight-curve $-1 71.257826966631228 0 -9.6947716820086889 0 1 0 I I #
straight-curve $-1 71.257826966631228 0 -4.0387435947169834 0 -1 0 I I #
edge $-1 $177 71.257826966631228 $239 78.098086489455852 $176 $253 forward 7 unknown #
point $-1 71.257826966631228 41.477050712814986 -9.6947716820086889 #
point $-1 71.257826966631228 41.477050712814986 -4.0387435947169834 #
point $-1 71.257826966631228 -41.477050712814986 -4.0387435947169834 #
coedge $-1 $225 $224 $184 $236 forward $97 $-1 #
edge $-1 $239 -41.477050712814986 $237 41.477050712814986 $184 $254 forward 7 unknown #
vertex $-1 $185 $255 #
straight-curve $-1 78.098086489455852 -41.477050712814986 0 0 0 -1 I I #
vertex $-1 $236 $256 #
straight-curve $-1 78.098086489455852 41.477050712814986 0 0 0 -1 I I #
straight-curve $-1 -78.098086489455852 41.477050712814986 0 0 0 -1 I I #
point $-1 -78.098086489455852 -41.477050712814986 -9.6947716820086889 #
straight-curve $-1 -78.098086489455852 0 -9.6947716820086889 0 1 0 I I #
point $-1 -78.098086489455852 41.477050712814986 -9.6947716820086889 #
straight-curve $-1 -78.098086489455852 0 2.4618362266770077 0 -1 0 I I #
point $-1 -78.098086489455852 -41.477050712814986 2.4618362266770077 #
point $-1 -78.098086489455852 41.477050712814986 2.4618362266770077 #
straight-curve $-1 -78.098086489455852 41.477050712814986 0 0 0 -1 I I #
straight-curve $-1 -78.098086489455852 -41.477050712814986 0 0 0 -1 I I #
edge $-1 $237 -78.098086489455852 $228 -71.257826966631228 $226 $257 forward 7 unknown #
straight-curve $-1 71.257826966631228 -41.477050712814986 -3.4333788191814181 0 0 -1 I I #
point $-1 71.257826966631228 -41.477050712814986 -9.6947716820086889 #
straight-curve $-1 0 41.477050712814986 -9.6947716820086889 1 0 0 I I #
straight-curve $-1 78.098086489455852 0 -9.6947716820086889 0 -1 0 I I #
point $-1 78.098086489455852 -41.477050712814986 -9.6947716820086889 #
point $-1 78.098086489455852 41.477050712814986 -9.6947716820086889 #
straight-curve $-1 0 -41.477050712814986 -9.6947716820086889 -1 0 0 I I #
End-of-ACIS-data 