500 0 13 0           
7 Unknown 11 ACIS 5.0 NT 24 Fri Mar 26 18:08:07 1999 
-1 9.9999999999999995e-007 1e-010 
body $-1 $13 $-1 $14 #
body $-1 $15 $-1 $16 #
body $-1 $17 $-1 $18 #
body $-1 $19 $-1 $20 #
body $-1 $21 $-1 $22 #
body $-1 $23 $-1 $24 #
body $-1 $25 $-1 $26 #
body $-1 $27 $-1 $28 #
body $-1 $29 $-1 $30 #
body $-1 $31 $-1 $32 #
body $-1 $33 $-1 $34 #
body $-1 $35 $-1 $36 #
body $-1 $37 $-1 $38 #
lump $-1 $-1 $39 $0 #
transform $-1 1 0 0 0 1 0 0 0 1 50.455641346476639 31.2214587352222 8.6885926624003016 1 rotate no_reflect no_shear #
lump $-1 $-1 $40 $1 #
transform $-1 1 0 0 0 1 0 0 0 1 50.455641346476639 31.2214587352222 8.6885926624003016 1 rotate no_reflect no_shear #
lump $-1 $-1 $41 $2 #
transform $-1 1 0 0 0 1 0 0 0 1 50.455641346476639 31.2214587352222 8.6885926624003016 1 rotate no_reflect no_shear #
lump $-1 $-1 $42 $3 #
transform $-1 1 0 0 0 1 0 0 0 1 50.455641346476639 31.2214587352222 8.6885926624003016 1 rotate no_reflect no_shear #
lump $-1 $-1 $43 $4 #
transform $-1 1 0 0 0 1 0 0 0 1 50.455641346476639 31.2214587352222 8.6885926624003016 1 rotate no_reflect no_shear #
lump $-1 $-1 $44 $5 #
transform $-1 1 0 0 0 1 0 0 0 1 50.455641346476639 31.2214587352222 8.6885926624003016 1 rotate no_reflect no_shear #
lump $-1 $-1 $45 $6 #
transform $-1 1 0 0 0 1 0 0 0 1 50.455641346476639 31.2214587352222 8.6885926624003016 1 rotate no_reflect no_shear #
lump $-1 $-1 $46 $7 #
transform $-1 1 0 0 0 1 0 0 0 1 50.455641346476639 31.2214587352222 8.6885926624003016 1 rotate no_reflect no_shear #
lump $-1 $-1 $47 $8 #
transform $-1 1 0 0 0 1 0 0 0 1 50.455641346476639 31.2214587352222 8.6885926624003016 1 rotate no_reflect no_shear #
lump $-1 $-1 $48 $9 #
transform $-1 1 0 0 0 1 0 0 0 1 50.455641346476639 31.2214587352222 8.6885926624003016 1 rotate no_reflect no_shear #
lump $-1 $-1 $49 $10 #
transform $-1 1 0 0 0 1 0 0 0 1 50.455641346476639 31.2214587352222 8.6885926624003016 1 rotate no_reflect no_shear #
lump $-1 $-1 $50 $11 #
transform $-1 1 0 0 0 1 0 0 0 1 50.455641346476639 31.2214587352222 8.6885926624003016 1 rotate no_reflect no_shear #
lump $-1 $-1 $51 $12 #
transform $-1 1 0 0 0 1 0 0 0 1 50.455641346476639 31.2214587352222 8.6885926624003016 1 rotate no_reflect no_shear #
shell $-1 $-1 $-1 $52 $-1 $13 #
shell $-1 $-1 $-1 $53 $-1 $15 #
shell $-1 $-1 $-1 $54 $-1 $17 #
shell $-1 $-1 $-1 $55 $-1 $19 #
shell $-1 $-1 $-1 $56 $-1 $21 #
shell $-1 $-1 $-1 $57 $-1 $23 #
shell $-1 $-1 $-1 $58 $-1 $25 #
shell $-1 $-1 $-1 $59 $-1 $27 #
shell $-1 $-1 $-1 $60 $-1 $29 #
shell $-1 $-1 $-1 $61 $-1 $31 #
shell $-1 $-1 $-1 $62 $-1 $33 #
shell $-1 $-1 $-1 $63 $-1 $35 #
shell $-1 $-1 $-1 $64 $-1 $37 #
face $-1 $65 $66 $39 $-1 $67 forward single #
face $-1 $68 $69 $40 $-1 $70 reversed single #
face $-1 $71 $72 $41 $-1 $73 reversed single #
face $-1 $74 $75 $42 $-1 $76 reversed single #
face $-1 $77 $78 $43 $-1 $79 forward single #
face $-1 $80 $81 $44 $-1 $82 forward single #
face $-1 $83 $84 $45 $-1 $85 reversed single #
face $-1 $86 $87 $46 $-1 $88 forward single #
face $-1 $89 $90 $47 $-1 $91 forward single #
face $-1 $92 $93 $48 $-1 $94 reversed single #
face $-1 $95 $96 $49 $-1 $97 forward single #
face $-1 $98 $99 $50 $-1 $100 forward single #
face $-1 $101 $102 $51 $-1 $103 forward single #
face $-1 $104 $105 $39 $-1 $106 reversed single #
loop $-1 $-1 $107 $52 #
plane-surface $-1 0 0 8.6885926624003016 0 0 1 1 0 0 forward_v I I I I #
face $-1 $108 $109 $40 $-1 $110 reversed single #
loop $-1 $-1 $111 $53 #
plane-surface $-1 0 -26.972013824086968 5.6885926624003016 0 0 1 1 0 0 forward_v I I I I #
face $-1 $112 $113 $41 $-1 $114 reversed single #
loop $-1 $-1 $115 $54 #
plane-surface $-1 0 26.972013824086972 5.6885926624003016 0 0 1 1 0 0 forward_v I I I I #
face $-1 $116 $117 $42 $-1 $118 reversed single #
loop $-1 $-1 $119 $55 #
plane-surface $-1 84.980342474353606 -4.944562868831845 142.20634019895664 0 -1 0 -0.85716730853699208 0 -0.51503806187062418 forward_v I I I I #
face $-1 $120 $121 $43 $-1 $122 forward single #
loop $-1 $123 $124 $56 #
cone-surface $-1 48.414744200208126 -9.8367171059923457 5.8798153917697409 -0.85716730853699208 0 -0.51503806187062418 0.25751903093531209 0 -0.42858365426849604 1 I I 0 1 0.5 forward I I I I #
face $-1 $125 $126 $44 $-1 $127 forward single #
loop $-1 $128 $129 $57 #
cone-surface $-1 48.414744200208126 -6.9014245636960467 5.8798153917697409 -0.85716730853699208 0 -0.51503806187062418 0.25751903093531209 0 -0.42858365426849604 1 I I 0 1 0.5 forward I I I I #
face $-1 $130 $131 $45 $-1 $132 reversed single #
loop $-1 $-1 $133 $58 #
plane-surface $-1 84.980342474353606 17.778006044119891 142.20634019895664 0 -1 0 -0.85716730853699208 0 -0.51503806187062418 forward_v I I I I #
face $-1 $134 $135 $46 $-1 $136 forward single #
loop $-1 $137 $138 $59 #
cone-surface $-1 48.414744200208126 12.885851806959394 5.8798153917697409 -0.85716730853699208 0 -0.51503806187062418 0.25751903093531209 0 -0.42858365426849604 1 I I 0 1 0.5 forward I I I I #
face $-1 $139 $140 $47 $-1 $141 forward single #
loop $-1 $142 $143 $60 #
cone-surface $-1 48.414744200208126 15.82114434925569 5.8798153917697409 -0.85716730853699208 0 -0.51503806187062418 0.25751903093531209 0 -0.42858365426849604 1 I I 0 1 0.5 forward I I I I #
face $-1 $144 $145 $48 $-1 $146 reversed single #
loop $-1 $-1 $147 $61 #
plane-surface $-1 -121.81069446479725 15.821462985244644 75.733429310529019 0 1 0 -0.70710678939079041 0 0.70710677298230451 forward_v I I I I #
face $-1 $148 $149 $49 $-1 $150 forward single #
loop $-1 $151 $152 $62 #
cone-surface $-1 -47.804057279487729 17.201684170786059 6.0370085569226912 0.70710678939079041 0 -0.70710677298230451 0.35355338649115226 0 0.35355339469539521 1 I I 0 1 0.5 forward I I I I #
face $-1 $153 $154 $50 $-1 $155 forward single #
loop $-1 $156 $157 $63 #
cone-surface $-1 -47.804057279487729 19.27201594909819 6.0370085569226912 0.70710678939079041 0 -0.70710677298230451 0.35355338649115226 0 0.35355339469539521 1 I I 0 1 0.5 forward I I I I #
face $-1 $158 $159 $51 $-1 $160 forward single #
loop $-1 $161 $162 $64 #
cone-surface $-1 -47.804057279487729 21.342347727410321 6.0370085569226912 0.70710678939079041 0 -0.70710677298230451 0.35355338649115226 0 0.35355339469539521 1 I I 0 1 0.5 forward I I I I #
face $-1 $163 $164 $39 $-1 $165 reversed single #
loop $-1 $-1 $166 $65 #
plane-surface $-1 0 0 -8.6885926624003016 0 0 1 1 0 0 forward_v I I I I #
coedge $-1 $167 $168 $169 $170 forward $66 $-1 #
face $-1 $171 $172 $40 $-1 $173 reversed single #
loop $-1 $-1 $174 $68 #
plane-surface $-1 0 -22.722568912951736 7.1885926624003016 0 -1 0 0 0 -1 forward_v I I I I #
coedge $-1 $175 $176 $177 $178 reversed $69 $-1 #
face $-1 $179 $180 $41 $-1 $181 forward single #
loop $-1 $-1 $182 $71 #
plane-surface $-1 0 22.72256891295174 7.1885926624003016 0 1 0 0 0 1 forward_v I I I I #
coedge $-1 $183 $184 $185 $186 reversed $72 $-1 #
face $-1 $187 $188 $42 $-1 $189 reversed single #
loop $-1 $-1 $190 $74 #
plane-surface $-1 -1.5175101125807089 -8.3690708348441945 90.233188739899319 0.85716730853699208 0 0.51503806187062418 0.51503806187062418 0 -0.85716730853699208 forward_v I I I I #
coedge $-1 $191 $192 $193 $194 reversed $75 $-1 #
face $-1 $-1 $195 $43 $-1 $196 forward single #
loop $-1 $197 $198 $77 #
cone-surface $-1 47.64766356175916 -9.8367171059923457 5.4189068603891517 -0.85716730853699208 0 -0.51503806187062418 0.12875951546765604 0 -0.21429182713424802 1 I I -0.70710678118654746 0.70710678118654746 0.25 forward I I I I #
loop $-1 $-1 $199 $56 #
coedge $-1 $124 $124 $200 $201 reversed $78 $-1 #
face $-1 $-1 $202 $44 $-1 $203 forward single #
loop $-1 $204 $205 $80 #
cone-surface $-1 47.64766356175916 -6.9014245636960467 5.4189068603891517 -0.85716730853699208 0 -0.51503806187062418 0.12875951546765604 0 -0.21429182713424802 1 I I -0.70710678118654746 0.70710678118654746 0.25 forward I I I I #
loop $-1 $-1 $206 $57 #
coedge $-1 $129 $129 $207 $208 reversed $81 $-1 #
face $-1 $209 $210 $45 $-1 $211 reversed single #
loop $-1 $-1 $212 $83 #
plane-surface $-1 -1.5175101125807089 14.353498078107542 90.233188739899319 0.85716730853699208 0 0.51503806187062418 0.51503806187062418 0 -0.85716730853699208 forward_v I I I I #
coedge $-1 $213 $214 $215 $216 reversed $84 $-1 #
face $-1 $-1 $217 $46 $-1 $218 forward single #
loop $-1 $219 $220 $86 #
cone-surface $-1 47.64766356175916 12.885851806959394 5.4189068603891517 -0.85716730853699208 0 -0.51503806187062418 0.12875951546765604 0 -0.21429182713424802 1 I I -0.70710678118654746 0.70710678118654746 0.25 forward I I I I #
loop $-1 $-1 $221 $59 #
coedge $-1 $138 $138 $222 $223 reversed $87 $-1 #
face $-1 $-1 $224 $47 $-1 $225 forward single #
loop $-1 $226 $227 $89 #
cone-surface $-1 47.64766356175916 15.82114434925569 5.4189068603891517 -0.85716730853699208 0 -0.51503806187062418 0.12875951546765604 0 -0.21429182713424802 1 I I -0.70710678118654746 0.70710678118654746 0.25 forward I I I I #
loop $-1 $-1 $228 $60 #
coedge $-1 $143 $143 $229 $230 reversed $90 $-1 #
face $-1 $231 $232 $48 $-1 $233 forward single #
loop $-1 $-1 $234 $92 #
plane-surface $-1 -50.455641346476625 19.27201594909819 4.3783778480097482 -0.70710678939079041 0 0.70710677298230451 0.70710677298230451 0 0.70710678939079041 forward_v I I I I #
coedge $-1 $235 $236 $237 $238 reversed $93 $-1 #
face $-1 $-1 $239 $49 $-1 $240 forward single #
loop $-1 $241 $242 $95 #
cone-surface $-1 -47.130803872336898 17.201684170786059 5.3637551653947764 0.70710678939079041 0 -0.70710677298230451 0.17677669324557613 0 0.1767766973476976 1 I I -0.70710678118654746 0.70710678118654746 0.25 forward I I I I #
loop $-1 $-1 $243 $62 #
coedge $-1 $152 $152 $244 $245 reversed $96 $-1 #
face $-1 $-1 $246 $50 $-1 $247 forward single #
loop $-1 $248 $249 $98 #
cone-surface $-1 -47.130803872336898 19.27201594909819 5.3637551653947764 0.70710678939079041 0 -0.70710677298230451 0.17677669324557613 0 0.1767766973476976 1 I I -0.70710678118654746 0.70710678118654746 0.25 forward I I I I #
loop $-1 $-1 $250 $63 #
coedge $-1 $157 $157 $251 $252 reversed $99 $-1 #
face $-1 $-1 $253 $51 $-1 $254 forward single #
loop $-1 $255 $256 $101 #
cone-surface $-1 -47.130803872336898 21.342347727410321 5.3637551653947764 0.70710678939079041 0 -0.70710677298230451 0.17677669324557613 0 0.1767766973476976 1 I I -0.70710678118654746 0.70710678118654746 0.25 forward I I I I #
loop $-1 $-1 $257 $64 #
coedge $-1 $162 $162 $258 $259 reversed $102 $-1 #
face $-1 $260 $261 $39 $-1 $262 reversed single #
loop $-1 $-1 $263 $104 #
plane-surface $-1 0 -31.2214587352222 0 0 1 0 0 0 1 forward_v I I I I #
coedge $-1 $264 $265 $266 $267 forward $105 $-1 #
coedge $-1 $268 $107 $269 $270 forward $66 $-1 #
coedge $-1 $107 $268 $271 $272 forward $66 $-1 #
coedge $-1 $273 $274 $107 $170 reversed $275 $-1 #
edge $-1 $276 -31.2214587352222 $277 31.2214587352222 $169 $278 forward 7 unknown #
face $-1 $279 $280 $40 $-1 $281 reversed single #
loop $-1 $-1 $282 $108 #
plane-surface $-1 -50.455641346476639 0 0 1 0 0 0 0 -1 forward_v I I I I #
coedge $-1 $283 $284 $285 $286 reversed $109 $-1 #
coedge $-1 $287 $111 $288 $289 reversed $69 $-1 #
coedge $-1 $111 $287 $283 $290 forward $69 $-1 #
coedge $-1 $285 $291 $111 $178 forward $292 $-1 #
edge $-1 $293 -17.735451823178714 $294 -9.2365620009082523 $177 $295 forward 7 unknown #
face $-1 $296 $297 $41 $-1 $298 reversed single #
loop $-1 $-1 $299 $112 #
plane-surface $-1 0 0 8.6885926624003016 0 0 1 1 0 0 forward_v I I I I #
coedge $-1 $300 $301 $183 $302 reversed $113 $-1 #
coedge $-1 $303 $115 $182 $302 forward $72 $-1 #
coedge $-1 $115 $303 $304 $305 reversed $72 $-1 #
coedge $-1 $306 $307 $115 $186 forward $297 $-1 #
edge $-1 $308 9.2365620009082541 $309 17.735451823178717 $185 $310 forward 7 unknown #
face $-1 $311 $312 $42 $-1 $313 forward single #
loop $-1 $-1 $314 $116 #
plane-surface $-1 84.980342474353606 -11.793578800856544 142.20634019895664 0 1 0 0.85716730853699208 0 0.51503806187062418 forward_v I I I I #
coedge $-1 $315 $316 $317 $318 reversed $117 $-1 #
coedge $-1 $192 $119 $319 $320 reversed $75 $-1 #
coedge $-1 $119 $191 $315 $321 reversed $75 $-1 #
coedge $-1 $317 $322 $119 $194 forward $312 $-1 #
edge $-1 $323 -7.9654701092998366 $324 -4.9892534393922361 $193 $325 forward 7 unknown #
loop $-1 $-1 $200 $120 #
plane-surface $-1 -1.5175101125807089 -8.3690708348441945 90.233188739899319 0.85716730853699208 0 0.51503806187062418 0.51503806187062418 0 -0.85716730853699208 forward_v I I I I #
loop $-1 $-1 $326 $77 #
coedge $-1 $198 $198 $199 $327 reversed $121 $-1 #
coedge $-1 $199 $199 $198 $327 forward $123 $-1 #
coedge $-1 $200 $200 $124 $201 forward $195 $-1 #
edge $-1 $328 0 $328 6.2831853071796004 $200 $329 forward 7 unknown #
loop $-1 $-1 $207 $125 #
plane-surface $-1 -1.5175101125807089 -8.3690708348441945 90.233188739899319 0.85716730853699208 0 0.51503806187062418 0.51503806187062418 0 -0.85716730853699208 forward_v I I I I #
loop $-1 $-1 $330 $80 #
coedge $-1 $205 $205 $206 $331 reversed $126 $-1 #
coedge $-1 $206 $206 $205 $331 forward $128 $-1 #
coedge $-1 $207 $207 $129 $208 forward $202 $-1 #
edge $-1 $332 0 $332 6.2831853071796004 $207 $333 forward 7 unknown #
face $-1 $334 $335 $45 $-1 $336 reversed single #
loop $-1 $-1 $337 $130 #
plane-surface $-1 84.980342474353606 10.928990112095192 142.20634019895664 0 1 0 0.85716730853699208 0 0.51503806187062418 forward_v I I I I #
coedge $-1 $338 $339 $340 $341 reversed $131 $-1 #
coedge $-1 $214 $133 $342 $343 reversed $84 $-1 #
coedge $-1 $133 $213 $338 $344 reversed $84 $-1 #
coedge $-1 $340 $345 $133 $216 forward $346 $-1 #
edge $-1 $347 -7.9654701092998366 $348 -4.9892534393922361 $215 $349 forward 7 unknown #
loop $-1 $-1 $222 $134 #
plane-surface $-1 -1.5175101125807089 14.353498078107542 90.233188739899319 0.85716730853699208 0 0.51503806187062418 0.51503806187062418 0 -0.85716730853699208 forward_v I I I I #
loop $-1 $-1 $350 $86 #
coedge $-1 $220 $220 $221 $351 reversed $135 $-1 #
coedge $-1 $221 $221 $220 $351 forward $137 $-1 #
coedge $-1 $222 $222 $138 $223 forward $217 $-1 #
edge $-1 $352 0 $352 6.2831853071796004 $222 $353 forward 7 unknown #
loop $-1 $-1 $229 $139 #
plane-surface $-1 -1.5175101125807089 14.353498078107542 90.233188739899319 0.85716730853699208 0 0.51503806187062418 0.51503806187062418 0 -0.85716730853699208 forward_v I I I I #
loop $-1 $-1 $354 $89 #
coedge $-1 $227 $227 $228 $355 reversed $140 $-1 #
coedge $-1 $228 $228 $227 $355 forward $142 $-1 #
coedge $-1 $229 $229 $143 $230 forward $224 $-1 #
edge $-1 $356 0 $356 6.2831853071796004 $229 $357 forward 7 unknown #
face $-1 $358 $359 $48 $-1 $360 forward single #
loop $-1 $-1 $237 $144 #
plane-surface $-1 0 0 8.6885926624003016 0 0 1 1 0 0 forward_v I I I I #
coedge $-1 $361 $362 $363 $364 reversed $145 $-1 #
coedge $-1 $236 $147 $365 $366 reversed $93 $-1 #
coedge $-1 $147 $235 $361 $367 reversed $93 $-1 #
coedge $-1 $363 $368 $147 $238 forward $232 $-1 #
edge $-1 $369 10.449705885921986 $370 14.759920600293576 $237 $371 forward 7 unknown #
loop $-1 $-1 $244 $148 #
plane-surface $-1 -50.455641346476625 19.27201594909819 4.3783778480097482 -0.70710678939079041 0 0.70710677298230451 0.70710677298230451 0 0.70710678939079041 forward_v I I I I #
loop $-1 $-1 $372 $95 #
coedge $-1 $242 $242 $243 $373 reversed $149 $-1 #
coedge $-1 $243 $243 $242 $373 forward $151 $-1 #
coedge $-1 $244 $244 $152 $245 forward $239 $-1 #
edge $-1 $374 0 $374 6.2831853071796004 $244 $375 forward 7 unknown #
loop $-1 $-1 $251 $153 #
plane-surface $-1 -50.455641346476625 19.27201594909819 4.3783778480097482 -0.70710678939079041 0 0.70710677298230451 0.70710677298230451 0 0.70710678939079041 forward_v I I I I #
loop $-1 $-1 $376 $98 #
coedge $-1 $249 $249 $250 $377 reversed $154 $-1 #
coedge $-1 $250 $250 $249 $377 forward $156 $-1 #
coedge $-1 $251 $251 $157 $252 forward $246 $-1 #
edge $-1 $378 0 $378 6.2831853071796004 $251 $379 forward 7 unknown #
loop $-1 $-1 $258 $158 #
plane-surface $-1 -50.455641346476625 19.27201594909819 4.3783778480097482 -0.70710678939079041 0 0.70710677298230451 0.70710677298230451 0 0.70710678939079041 forward_v I I I I #
loop $-1 $-1 $380 $101 #
coedge $-1 $256 $256 $257 $381 reversed $159 $-1 #
coedge $-1 $257 $257 $256 $381 forward $161 $-1 #
coedge $-1 $258 $258 $162 $259 forward $253 $-1 #
edge $-1 $382 0 $382 6.2831853071796004 $258 $383 forward 7 unknown #
face $-1 $384 $385 $39 $-1 $386 reversed single #
loop $-1 $-1 $387 $163 #
plane-surface $-1 -50.455641346476639 0 0 1 0 0 0 0 -1 forward_v I I I I #
coedge $-1 $388 $271 $389 $390 forward $164 $-1 #
coedge $-1 $391 $166 $388 $392 forward $105 $-1 #
coedge $-1 $166 $391 $393 $394 forward $105 $-1 #
coedge $-1 $274 $273 $166 $267 reversed $275 $-1 #
edge $-1 $395 -31.2214587352222 $396 31.2214587352222 $266 $397 forward 7 unknown #
coedge $-1 $168 $167 $398 $399 forward $66 $-1 #
coedge $-1 $400 $401 $167 $270 reversed $385 $-1 #
edge $-1 $277 -50.455641346476639 $402 50.455641346476639 $269 $403 forward 7 unknown #
coedge $-1 $263 $404 $168 $272 reversed $164 $-1 #
edge $-1 $405 -50.455641346476639 $276 50.455641346476639 $271 $406 forward 7 unknown #
coedge $-1 $266 $169 $404 $407 forward $275 $-1 #
coedge $-1 $169 $266 $400 $408 reversed $275 $-1 #
loop $-1 $-1 $273 $384 #
vertex $-1 $170 $409 #
vertex $-1 $170 $410 #
straight-curve $-1 50.455641346476639 0 8.6885926624003016 0 1 0 I I #
face $-1 $411 $412 $40 $-1 $413 forward single #
loop $-1 $-1 $288 $171 #
plane-surface $-1 0 -31.2214587352222 0 0 1 0 0 0 1 forward_v I I I I #
coedge $-1 $414 $415 $416 $417 forward $172 $-1 #
coedge $-1 $416 $174 $176 $290 reversed $109 $-1 #
coedge $-1 $174 $416 $418 $419 reversed $109 $-1 #
coedge $-1 $420 $177 $174 $286 forward $292 $-1 #
edge $-1 $294 2.0942963312001508 $421 5.0942963312001508 $285 $422 forward 7 unknown #
coedge $-1 $176 $175 $414 $423 reversed $69 $-1 #
coedge $-1 $424 $425 $175 $289 forward $280 $-1 #
edge $-1 $426 -50.455641346476639 $293 50.455641346476639 $288 $427 forward 7 unknown #
edge $-1 $428 -50.455641346476639 $294 50.455641346476639 $283 $429 forward 7 unknown #
coedge $-1 $177 $420 $424 $430 forward $292 $-1 #
loop $-1 $-1 $285 $411 #
vertex $-1 $289 $431 #
vertex $-1 $178 $432 #
straight-curve $-1 50.455641346476639 -13.486006912043484 5.6885926624003016 0 1 0 I I #
face $-1 $433 $434 $41 $-1 $435 reversed single #
loop $-1 $-1 $307 $179 #
plane-surface $-1 50.455641346476639 0 0 -1 0 0 0 0 1 forward_v I I I I #
coedge $-1 $436 $437 $438 $439 forward $180 $-1 #
coedge $-1 $438 $182 $307 $440 reversed $113 $-1 #
coedge $-1 $182 $438 $441 $442 reversed $113 $-1 #
edge $-1 $308 -50.455641346476639 $443 50.455641346476639 $182 $444 forward 7 unknown #
coedge $-1 $184 $183 $445 $446 reversed $72 $-1 #
coedge $-1 $447 $448 $184 $305 forward $449 $-1 #
edge $-1 $309 -50.455641346476639 $450 50.455641346476639 $304 $451 forward 7 unknown #
coedge $-1 $452 $185 $448 $453 reversed $297 $-1 #
coedge $-1 $185 $452 $300 $440 forward $297 $-1 #
vertex $-1 $186 $454 #
vertex $-1 $305 $455 #
straight-curve $-1 50.455641346476639 13.486006912043486 5.6885926624003016 0 1 0 I I #
face $-1 $-1 $456 $42 $-1 $457 reversed single #
loop $-1 $-1 $193 $187 #
plane-surface $-1 0 0 8.6885926624003016 0 0 1 1 0 0 forward_v I I I I #
coedge $-1 $458 $459 $460 $461 reversed $188 $-1 #
coedge $-1 $462 $190 $192 $321 forward $117 $-1 #
coedge $-1 $190 $462 $458 $463 forward $117 $-1 #
coedge $-1 $460 $193 $190 $318 forward $312 $-1 #
edge $-1 $324 0.76002745140974781 $464 7.6090433834344466 $317 $465 forward 7 unknown #
coedge $-1 $466 $467 $191 $320 forward $456 $-1 #
edge $-1 $468 -67.367833946513358 $323 -62.414577437078016 $319 $469 forward 7 unknown #
edge $-1 $324 95.132648276891075 $468 100.91128269295335 $192 $470 forward 7 unknown #
coedge $-1 $193 $460 $466 $471 forward $312 $-1 #
vertex $-1 $320 $472 #
vertex $-1 $194 $473 #
straight-curve $-1 42.490171237176803 -4.944562868831845 8.6885926624002963 -1 0 0 I I #
coedge $-1 $326 $326 $-1 $474 reversed $197 $-1 #
edge $-1 $475 0 $475 6.2831853071796004 $198 $476 forward 7 unknown #
vertex $-1 $201 $477 #
ellipse-curve $-1 48.967533011522818 -9.8367171059923457 6.2119644076826575 0.85716730853699208 0 0.51503806187062418 0.25751903093531209 0 -0.42858365426849604 1 I I #
coedge $-1 $330 $330 $-1 $478 reversed $204 $-1 #
edge $-1 $479 0 $479 6.2831853071796004 $205 $480 forward 7 unknown #
vertex $-1 $208 $481 #
ellipse-curve $-1 48.967533011522818 -6.9014245636960467 6.2119644076826575 0.85716730853699208 0 0.51503806187062418 0.25751903093531209 0 -0.42858365426849604 1 I I #
face $-1 $-1 $346 $45 $-1 $482 forward single #
loop $-1 $-1 $483 $209 #
plane-surface $-1 50.455641346476639 0 0 -1 0 0 0 0 1 forward_v I I I I #
coedge $-1 $484 $485 $486 $487 reversed $210 $-1 #
coedge $-1 $488 $212 $214 $344 forward $131 $-1 #
coedge $-1 $212 $488 $484 $489 forward $131 $-1 #
coedge $-1 $486 $215 $212 $341 forward $346 $-1 #
edge $-1 $348 -10.60125700506612 $490 -3.7522410730414215 $340 $491 forward 7 unknown #
coedge $-1 $492 $493 $213 $343 forward $335 $-1 #
edge $-1 $494 -67.367833946513358 $347 -62.414577437078016 $342 $495 forward 7 unknown #
edge $-1 $348 95.132648276891075 $494 100.91128269295335 $214 $496 forward 7 unknown #
coedge $-1 $215 $486 $492 $497 forward $346 $-1 #
loop $-1 $-1 $486 $334 #
vertex $-1 $343 $498 #
vertex $-1 $216 $499 #
straight-curve $-1 42.490171237176803 17.778006044119891 8.6885926624002963 -1 0 0 I I #
coedge $-1 $350 $350 $-1 $500 reversed $219 $-1 #
edge $-1 $501 0 $501 6.2831853071796004 $220 $502 forward 7 unknown #
vertex $-1 $223 $503 #
ellipse-curve $-1 48.967533011522818 12.885851806959394 6.2119644076826575 0.85716730853699208 0 0.51503806187062418 0.25751903093531209 0 -0.42858365426849604 1 I I #
coedge $-1 $354 $354 $-1 $504 reversed $226 $-1 #
edge $-1 $505 0 $505 6.2831853071796004 $227 $506 forward 7 unknown #
vertex $-1 $230 $507 #
ellipse-curve $-1 48.967533011522818 15.82114434925569 6.2119644076826575 0.85716730853699208 0 0.51503806187062418 0.25751903093531209 0 -0.42858365426849604 1 I I #
face $-1 $-1 $508 $48 $-1 $509 reversed single #
loop $-1 $-1 $510 $231 #
plane-surface $-1 0 22.72256891295174 7.1885926624003016 0 1 0 0 0 1 forward_v I I I I #
coedge $-1 $511 $234 $236 $367 forward $145 $-1 #
coedge $-1 $234 $511 $510 $512 forward $145 $-1 #
coedge $-1 $513 $237 $234 $364 forward $232 $-1 #
edge $-1 $370 6.1854550106955486 $514 13.086560938402641 $363 $515 forward 7 unknown #
coedge $-1 $516 $517 $235 $366 forward $508 $-1 #
edge $-1 $518 -33.488336807254775 $369 -29.178121992864206 $365 $519 forward 7 unknown #
edge $-1 $370 -6.0955641765284581 $518 2.0097183471152325e-014 $236 $520 forward 7 unknown #
coedge $-1 $237 $513 $516 $521 forward $232 $-1 #
vertex $-1 $366 $522 #
vertex $-1 $238 $523 #
straight-curve $-1 -60.905347232398626 15.821462985244644 8.6885926624003034 1 0 0 I I #
coedge $-1 $372 $372 $-1 $524 reversed $241 $-1 #
edge $-1 $525 0 $525 6.2831853071796004 $242 $526 forward 7 unknown #
vertex $-1 $245 $527 #
ellipse-curve $-1 -48.300533989290848 17.201684170786059 6.533485255205016 -0.70710678939079041 0 0.70710677298230451 0.35355338649115226 0 0.35355339469539521 1 I I #
coedge $-1 $376 $376 $-1 $528 reversed $248 $-1 #
edge $-1 $529 0 $529 6.2831853071796004 $249 $530 forward 7 unknown #
vertex $-1 $252 $531 #
ellipse-curve $-1 -48.300533989290848 19.27201594909819 6.533485255205016 -0.70710678939079041 0 0.70710677298230451 0.35355338649115226 0 0.35355339469539521 1 I I #
coedge $-1 $380 $380 $-1 $532 reversed $255 $-1 #
edge $-1 $533 0 $533 6.2831853071796004 $256 $534 forward 7 unknown #
vertex $-1 $259 $535 #
ellipse-curve $-1 -48.300533989290848 21.342347727410321 6.533485255205016 -0.70710678939079041 0 0.70710677298230451 0.35355338649115226 0 0.35355339469539521 1 I I #
face $-1 $-1 $275 $39 $-1 $536 reversed single #
loop $-1 $-1 $400 $260 #
plane-surface $-1 0 31.2214587352222 0 0 -1 0 0 0 -1 forward_v I I I I #
coedge $-1 $537 $398 $401 $538 forward $261 $-1 #
coedge $-1 $404 $263 $264 $392 reversed $164 $-1 #
coedge $-1 $398 $537 $263 $390 reversed $261 $-1 #
edge $-1 $405 -8.6885926624003016 $539 8.6885926624003016 $389 $540 forward 7 unknown #
coedge $-1 $265 $264 $537 $541 forward $105 $-1 #
edge $-1 $396 -50.455641346476639 $539 50.455641346476639 $388 $542 forward 7 unknown #
coedge $-1 $401 $400 $265 $394 reversed $385 $-1 #
edge $-1 $543 -50.455641346476639 $395 50.455641346476639 $393 $544 forward 7 unknown #
vertex $-1 $267 $545 #
vertex $-1 $407 $546 #
straight-curve $-1 50.455641346476639 0 -8.6885926624003016 0 -1 0 I I #
coedge $-1 $387 $389 $268 $399 reversed $261 $-1 #
edge $-1 $402 -31.2214587352222 $405 31.2214587352222 $398 $547 forward 7 unknown #
coedge $-1 $393 $269 $274 $408 forward $385 $-1 #
coedge $-1 $269 $393 $387 $538 reversed $385 $-1 #
vertex $-1 $270 $548 #
straight-curve $-1 0 31.2214587352222 8.6885926624003016 -1 0 0 I I #
coedge $-1 $271 $388 $273 $407 reversed $164 $-1 #
vertex $-1 $399 $549 #
straight-curve $-1 0 -31.2214587352222 8.6885926624003016 1 0 0 I I #
edge $-1 $276 -8.6885926624003016 $396 8.6885926624003016 $273 $550 forward 7 unknown #
edge $-1 $277 -8.6885926624003016 $395 8.6885926624003016 $274 $551 forward 7 unknown #
point $-1 50.455641346476639 -31.2214587352222 8.6885926624003016 #
point $-1 50.455641346476639 31.2214587352222 8.6885926624003016 #
face $-1 $-1 $292 $40 $-1 $552 reversed single #
loop $-1 $-1 $418 $279 #
plane-surface $-1 0 0 8.6885926624003016 0 0 1 1 0 0 forward_v I I I I #
coedge $-1 $553 $282 $287 $423 forward $172 $-1 #
coedge $-1 $282 $553 $554 $555 reversed $172 $-1 #
coedge $-1 $284 $283 $282 $417 reversed $109 $-1 #
edge $-1 $556 -5.0942963312001508 $428 -2.0942963312001508 $282 $557 forward 7 unknown #
coedge $-1 $554 $558 $284 $419 forward $412 $-1 #
edge $-1 $421 -50.455641346476639 $556 50.455641346476639 $418 $559 forward 7 unknown #
coedge $-1 $291 $285 $558 $560 reversed $292 $-1 #
vertex $-1 $286 $561 #
straight-curve $-1 50.455641346476639 -22.722568912951736 3.5942963312001508 0 0 1 I I #
edge $-1 $428 9.2365620009082523 $426 17.735451823178714 $414 $562 forward 7 unknown #
coedge $-1 $563 $288 $291 $430 reversed $280 $-1 #
coedge $-1 $288 $563 $553 $564 forward $280 $-1 #
vertex $-1 $289 $565 #
straight-curve $-1 0 -31.2214587352222 5.6885926624003016 1 0 0 I I #
vertex $-1 $423 $566 #
straight-curve $-1 0 -22.722568912951736 5.6885926624003016 1 0 0 I I #
edge $-1 $567 -8.6885926624003016 $293 -5.6885926624003016 $291 $568 forward 7 unknown #
point $-1 50.455641346476639 -31.2214587352222 5.6885926624003016 #
point $-1 50.455641346476639 -22.722568912951736 5.6885926624003016 #
face $-1 $-1 $449 $41 $-1 $569 reversed single #
loop $-1 $-1 $441 $296 #
plane-surface $-1 -50.455641346476639 0 0 1 0 0 0 0 -1 forward_v I I I I #
coedge $-1 $570 $299 $452 $571 forward $180 $-1 #
coedge $-1 $299 $570 $572 $573 forward $180 $-1 #
coedge $-1 $301 $300 $299 $439 reversed $113 $-1 #
edge $-1 $574 -50.455641346476639 $575 50.455641346476639 $299 $576 forward 7 unknown #
edge $-1 $575 -5.0942963312001508 $308 -2.0942963312001508 $307 $577 forward 7 unknown #
coedge $-1 $572 $445 $301 $442 forward $434 $-1 #
edge $-1 $443 2.0942963312001508 $574 5.0942963312001508 $441 $578 forward 7 unknown #
vertex $-1 $446 $579 #
straight-curve $-1 0 22.72256891295174 5.6885926624003016 -1 0 0 I I #
coedge $-1 $441 $580 $303 $446 forward $434 $-1 #
edge $-1 $450 -17.735451823178717 $443 -9.2365620009082541 $445 $581 forward 7 unknown #
coedge $-1 $582 $304 $580 $583 reversed $449 $-1 #
coedge $-1 $304 $582 $306 $453 forward $449 $-1 #
loop $-1 $-1 $304 $433 #
vertex $-1 $305 $584 #
straight-curve $-1 0 31.2214587352222 5.6885926624003016 -1 0 0 I I #
coedge $-1 $307 $306 $436 $571 reversed $297 $-1 #
edge $-1 $585 -8.6885926624003016 $309 -5.6885926624003016 $306 $586 forward 7 unknown #
point $-1 50.455641346476639 22.72256891295174 5.6885926624003016 #
point $-1 50.455641346476639 31.221458735222203 5.6885926624003016 #
loop $-1 $-1 $319 $311 #
plane-surface $-1 50.455641346476639 0 0 -1 0 0 0 0 1 forward_v I I I I #
coedge $-1 $459 $314 $316 $463 reversed $188 $-1 #
coedge $-1 $314 $458 $587 $588 reversed $188 $-1 #
coedge $-1 $322 $317 $314 $461 forward $312 $-1 #
edge $-1 $464 4.9892534393922361 $589 7.9654701092998366 $460 $590 forward 7 unknown #
coedge $-1 $316 $315 $467 $591 reversed $117 $-1 #
edge $-1 $592 -100.91128269295335 $464 -95.132648276891075 $458 $593 forward 7 unknown #
vertex $-1 $318 $594 #
straight-curve $-1 47.479424676569032 -4.1845354174220972 8.6885926624003034 0 -1 0 I I #
coedge $-1 $587 $319 $322 $471 reversed $456 $-1 #
coedge $-1 $319 $587 $462 $591 forward $456 $-1 #
vertex $-1 $320 $595 #
straight-curve $-1 50.455641346476639 -4.944562868831845 71.103170099478319 0 0 1 I I #
straight-curve $-1 -1.5175101125807089 -4.944562868831845 90.233188739899319 0.51503806187062418 0 -0.85716730853699208 I I #
edge $-1 $589 -11.793578800856544 $323 -4.944562868831845 $466 $596 forward 7 unknown #
point $-1 50.455641346476639 -4.944562868831845 8.6885926624003016 #
point $-1 47.479424676569039 -4.944562868831845 8.6885926624002963 #
edge $-1 $597 1 $597 0 $326 $-1 forward 7 unknown #
vertex $-1 $327 $598 #
ellipse-curve $-1 47.861955388893406 -9.8367171059923457 5.5476663758568074 0.85716730853699208 0 0.51503806187062418 0.25751903093531209 0 -0.42858365426849604 1 I I #
point $-1 49.225052042458159 -9.8367171059923457 5.7833807534141783 #
edge $-1 $599 1 $599 0 $330 $-1 forward 7 unknown #
vertex $-1 $331 $600 #
ellipse-curve $-1 47.861955388893406 -6.9014245636960467 5.5476663758568074 0.85716730853699208 0 0.51503806187062418 0.25751903093531209 0 -0.42858365426849604 1 I I #
point $-1 49.225052042458159 -6.9014245636960467 5.7833807534141783 #
plane-surface $-1 0 0 8.6885926624003016 0 0 1 1 0 0 forward_v I I I I #
coedge $-1 $493 $492 $485 $601 forward $335 $-1 #
coedge $-1 $485 $337 $339 $489 reversed $210 $-1 #
coedge $-1 $337 $484 $483 $601 reversed $210 $-1 #
coedge $-1 $345 $340 $337 $487 forward $346 $-1 #
edge $-1 $490 4.9892534393922361 $602 7.9654701092998366 $486 $603 forward 7 unknown #
coedge $-1 $339 $338 $493 $604 reversed $131 $-1 #
edge $-1 $605 -100.91128269295335 $490 -95.132648276891075 $484 $606 forward 7 unknown #
vertex $-1 $341 $607 #
straight-curve $-1 47.479424676569032 7.1767490390537709 8.6885926624003034 0 -1 0 I I #
coedge $-1 $483 $342 $345 $497 reversed $335 $-1 #
coedge $-1 $342 $483 $488 $604 forward $335 $-1 #
vertex $-1 $343 $608 #
straight-curve $-1 50.455641346476639 17.778006044119891 71.103170099478319 0 0 1 I I #
straight-curve $-1 -1.5175101125807089 17.778006044119891 90.233188739899319 0.51503806187062418 0 -0.85716730853699208 I I #
edge $-1 $602 10.928990112095192 $347 17.778006044119891 $492 $609 forward 7 unknown #
point $-1 50.455641346476639 17.778006044119891 8.6885926624003016 #
point $-1 47.479424676569039 17.778006044119891 8.6885926624002963 #
edge $-1 $610 1 $610 0 $350 $-1 forward 7 unknown #
vertex $-1 $351 $611 #
ellipse-curve $-1 47.861955388893406 12.885851806959394 5.5476663758568074 0.85716730853699208 0 0.51503806187062418 0.25751903093531209 0 -0.42858365426849604 1 I I #
point $-1 49.225052042458159 12.885851806959394 5.7833807534141783 #
edge $-1 $612 1 $612 0 $354 $-1 forward 7 unknown #
vertex $-1 $355 $613 #
ellipse-curve $-1 47.861955388893406 15.82114434925569 5.5476663758568074 0.85716730853699208 0 0.51503806187062418 0.25751903093531209 0 -0.42858365426849604 1 I I #
point $-1 49.225052042458159 15.82114434925569 5.7833807534141783 #
loop $-1 $-1 $365 $358 #
plane-surface $-1 -50.455641346476639 0 0 1 0 0 0 0 -1 forward_v I I I I #
coedge $-1 $614 $615 $362 $512 reversed $359 $-1 #
coedge $-1 $362 $361 $517 $616 reversed $145 $-1 #
edge $-1 $617 -2.0097183471152325e-014 $514 6.0955641765284581 $510 $618 forward 7 unknown #
coedge $-1 $368 $363 $615 $619 forward $232 $-1 #
vertex $-1 $619 $620 #
straight-curve $-1 -46.14542663210505 9.636007974549095 8.6885926624002998 0 1 0 I I #
coedge $-1 $621 $365 $368 $521 reversed $508 $-1 #
coedge $-1 $365 $621 $511 $616 forward $508 $-1 #
vertex $-1 $366 $622 #
straight-curve $-1 -50.455641346476639 15.821462985244644 37.866714655264509 0 0 1 I I #
straight-curve $-1 -50.455641346476625 15.821462985244644 4.3783778480097482 -0.70710677298230451 0 -0.70710678939079041 I I #
edge $-1 $623 -22.72256891295174 $369 -15.821462985244644 $516 $624 forward 7 unknown #
point $-1 -50.455641346476639 15.821462985244644 8.6885926624003016 #
point $-1 -46.14542663210505 15.821462985244644 8.6885926624003016 #
edge $-1 $625 1 $625 0 $372 $-1 forward 7 unknown #
vertex $-1 $373 $626 #
ellipse-curve $-1 -47.307580569684596 17.201684170786059 5.5405318586403522 -0.70710678939079041 0 0.70710677298230451 0.35355338649115226 0 0.35355339469539521 1 I I #
point $-1 -47.946980602799705 17.201684170786059 6.8870386499004246 #
edge $-1 $627 1 $627 0 $376 $-1 forward 7 unknown #
vertex $-1 $377 $628 #
ellipse-curve $-1 -47.307580569684596 19.27201594909819 5.5405318586403522 -0.70710678939079041 0 0.70710677298230451 0.35355338649115226 0 0.35355339469539521 1 I I #
point $-1 -47.946980602799705 19.27201594909819 6.8870386499004246 #
edge $-1 $629 1 $629 0 $380 $-1 forward 7 unknown #
vertex $-1 $381 $630 #
ellipse-curve $-1 -47.307580569684596 21.342347727410321 5.5405318586403522 -0.70710678939079041 0 0.70710677298230451 0.35355338649115226 0 0.35355339469539521 1 I I #
point $-1 -47.946980602799705 21.342347727410321 6.8870386499004246 #
plane-surface $-1 50.455641346476639 0 0 -1 0 0 0 0 1 forward_v I I I I #
coedge $-1 $389 $387 $391 $541 reversed $261 $-1 #
edge $-1 $402 -8.6885926624003016 $543 8.6885926624003016 $401 $631 forward 7 unknown #
vertex $-1 $541 $632 #
straight-curve $-1 -50.455641346476639 -31.2214587352222 0 0 0 -1 I I #
edge $-1 $539 -31.2214587352222 $543 31.2214587352222 $537 $633 forward 7 unknown #
straight-curve $-1 0 -31.2214587352222 -8.6885926624003016 -1 0 0 I I #
vertex $-1 $394 $634 #
straight-curve $-1 0 31.2214587352222 -8.6885926624003016 1 0 0 I I #
point $-1 50.455641346476639 31.2214587352222 -8.6885926624003016 #
point $-1 50.455641346476639 -31.2214587352222 -8.6885926624003016 #
straight-curve $-1 -50.455641346476639 0 8.6885926624003016 0 -1 0 I I #
point $-1 -50.455641346476639 31.2214587352222 8.6885926624003016 #
point $-1 -50.455641346476639 -31.2214587352222 8.6885926624003016 #
straight-curve $-1 50.455641346476639 -31.2214587352222 0 0 0 -1 I I #
straight-curve $-1 50.455641346476639 31.2214587352222 0 0 0 -1 I I #
plane-surface $-1 50.455641346476639 0 0 -1 0 0 0 0 1 forward_v I I I I #
coedge $-1 $415 $414 $425 $564 reversed $172 $-1 #
coedge $-1 $635 $418 $415 $555 forward $412 $-1 #
edge $-1 $556 22.722568912951736 $636 31.2214587352222 $415 $637 forward 7 unknown #
vertex $-1 $555 $638 #
straight-curve $-1 -50.455641346476639 -22.722568912951736 3.5942963312001508 0 0 -1 I I #
coedge $-1 $418 $635 $420 $560 forward $412 $-1 #
straight-curve $-1 0 -22.722568912951736 8.6885926624003016 -1 0 0 I I #
edge $-1 $567 -31.2214587352222 $421 -22.722568912951736 $420 $639 forward 7 unknown #
point $-1 50.455641346476639 -22.722568912951736 8.6885926624003016 #
straight-curve $-1 -50.455641346476639 -13.486006912043484 5.6885926624003016 0 -1 0 I I #
coedge $-1 $425 $424 $635 $640 reversed $280 $-1 #
edge $-1 $636 -8.6885926624003016 $426 -5.6885926624003016 $553 $641 forward 7 unknown #
point $-1 -50.455641346476639 -31.2214587352222 5.6885926624003016 #
point $-1 -50.455641346476639 -22.722568912951736 5.6885926624003016 #
vertex $-1 $560 $642 #
straight-curve $-1 50.455641346476639 -31.2214587352222 0 0 0 -1 I I #
plane-surface $-1 0 31.2214587352222 0 0 -1 0 0 0 -1 forward_v I I I I #
coedge $-1 $437 $436 $582 $643 forward $180 $-1 #
edge $-1 $575 22.72256891295174 $585 31.2214587352222 $452 $644 forward 7 unknown #
coedge $-1 $580 $441 $437 $573 reversed $434 $-1 #
edge $-1 $645 -31.2214587352222 $574 -22.72256891295174 $572 $646 forward 7 unknown #
vertex $-1 $442 $647 #
vertex $-1 $571 $648 #
straight-curve $-1 0 22.72256891295174 8.6885926624003016 1 0 0 I I #
straight-curve $-1 50.455641346476639 22.72256891295174 3.5942963312001508 0 0 -1 I I #
straight-curve $-1 -50.455641346476639 22.72256891295174 3.5942963312001508 0 0 1 I I #
point $-1 -50.455641346476639 22.72256891295174 5.6885926624003016 #
coedge $-1 $445 $572 $447 $583 forward $434 $-1 #
straight-curve $-1 -50.455641346476639 13.486006912043486 5.6885926624003016 0 -1 0 I I #
coedge $-1 $448 $447 $570 $643 reversed $449 $-1 #
edge $-1 $645 -8.6885926624003016 $450 -5.6885926624003016 $447 $649 forward 7 unknown #
point $-1 -50.455641346476639 31.221458735222203 5.6885926624003016 #
vertex $-1 $571 $650 #
straight-curve $-1 50.455641346476639 31.2214587352222 0 0 0 -1 I I #
coedge $-1 $467 $466 $459 $588 forward $456 $-1 #
edge $-1 $589 62.414577437078016 $592 67.367833946513358 $587 $651 forward 7 unknown #
vertex $-1 $471 $652 #
straight-curve $-1 42.490171237176803 -11.793578800856544 8.6885926624002963 1 0 0 I I #
edge $-1 $592 -7.6090433834344466 $468 -0.76002745140974781 $467 $653 forward 7 unknown #
vertex $-1 $591 $654 #
straight-curve $-1 -1.5175101125807089 -11.793578800856544 90.233188739899319 -0.51503806187062418 0 0.85716730853699208 I I #
point $-1 47.479424676569039 -11.793578800856544 8.6885926624002963 #
point $-1 50.455641346476639 -4.944562868831845 3.7353361529649618 #
straight-curve $-1 50.455641346476639 0 8.6885926624003016 0 1 0 I I #
vertex $-1 $474 $655 #
point $-1 48.11947441982872 -9.8367171059923457 5.1190827215883115 #
vertex $-1 $478 $656 #
point $-1 48.11947441982872 -6.9014245636960467 5.1190827215883115 #
edge $-1 $602 62.414577437078016 $605 67.367833946513358 $483 $657 forward 7 unknown #
vertex $-1 $497 $658 #
straight-curve $-1 42.490171237176803 10.928990112095192 8.6885926624002963 1 0 0 I I #
edge $-1 $605 3.7522410730414215 $494 10.60125700506612 $493 $659 forward 7 unknown #
vertex $-1 $604 $660 #
straight-curve $-1 -1.5175101125807089 10.928990112095192 90.233188739899319 -0.51503806187062418 0 0.85716730853699208 I I #
point $-1 47.479424676569039 10.928990112095192 8.6885926624002963 #
point $-1 50.455641346476639 17.778006044119891 3.7353361529649618 #
straight-curve $-1 50.455641346476639 0 8.6885926624003016 0 1 0 I I #
vertex $-1 $500 $661 #
point $-1 48.11947441982872 12.885851806959394 5.1190827215883115 #
vertex $-1 $504 $662 #
point $-1 48.11947441982872 15.82114434925569 5.1190827215883115 #
coedge $-1 $615 $510 $621 $663 reversed $359 $-1 #
coedge $-1 $510 $614 $513 $619 reversed $359 $-1 #
edge $-1 $617 -13.086560938402641 $518 -6.1854550106955486 $517 $664 forward 7 unknown #
vertex $-1 $663 $665 #
straight-curve $-1 -50.455641346476625 22.722568912951736 4.3783778480097482 0.70710677298230451 0 0.70710678939079041 I I #
edge $-1 $514 46.14542663210505 $623 50.455641346476639 $513 $666 forward 7 unknown #
point $-1 -46.14542663210505 22.722568912951736 8.6885926624003016 #
coedge $-1 $517 $516 $614 $663 forward $508 $-1 #
point $-1 -50.455641346476639 15.821462985244644 4.378377848009734 #
vertex $-1 $521 $667 #
straight-curve $-1 -50.455641346476639 0 8.6885926624003016 0 -1 0 I I #
vertex $-1 $524 $668 #
point $-1 -46.954027183193446 17.201684170786059 5.8940852533357475 #
vertex $-1 $528 $669 #
point $-1 -46.954027183193446 19.27201594909819 5.8940852533357475 #
vertex $-1 $532 $670 #
point $-1 -46.954027183193446 21.342347727410321 5.8940852533357475 #
straight-curve $-1 -50.455641346476639 31.2214587352222 0 0 0 -1 I I #
point $-1 -50.455641346476639 -31.2214587352222 -8.6885926624003016 #
straight-curve $-1 -50.455641346476639 0 -8.6885926624003016 0 1 0 I I #
point $-1 -50.455641346476639 31.2214587352222 -8.6885926624003016 #
coedge $-1 $558 $554 $563 $640 forward $412 $-1 #
vertex $-1 $555 $671 #
straight-curve $-1 -50.455641346476639 0 8.6885926624003016 0 -1 0 I I #
point $-1 -50.455641346476639 -22.722568912951736 8.6885926624003016 #
straight-curve $-1 50.455641346476639 0 8.6885926624003016 0 1 0 I I #
edge $-1 $636 -50.455641346476639 $567 50.455641346476639 $563 $672 forward 7 unknown #
straight-curve $-1 -50.455641346476639 -31.2214587352222 0 0 0 -1 I I #
point $-1 50.455641346476639 -31.2214587352222 8.6885926624003016 #
edge $-1 $585 -50.455641346476639 $645 50.455641346476639 $582 $673 forward 7 unknown #
straight-curve $-1 50.455641346476639 0 8.6885926624003016 0 1 0 I I #
vertex $-1 $643 $674 #
straight-curve $-1 -50.455641346476639 0 8.6885926624003016 0 -1 0 I I #
point $-1 -50.455641346476639 22.72256891295174 8.6885926624003016 #
point $-1 50.455641346476639 22.72256891295174 8.6885926624003016 #
straight-curve $-1 -50.455641346476639 31.2214587352222 0 0 0 -1 I I #
point $-1 50.455641346476639 31.2214587352222 8.6885926624003016 #
straight-curve $-1 50.455641346476639 -11.793578800856544 71.103170099478319 0 0 -1 I I #
point $-1 50.455641346476639 -11.793578800856544 8.6885926624003016 #
straight-curve $-1 50.455641346476639 -4.1845354174220972 3.7353361529649547 0 1 0 I I #
point $-1 50.455641346476639 -11.793578800856544 3.7353361529649618 #
point $-1 47.433371734624913 -9.8367171059923457 5.290147344921496 #
point $-1 47.433371734624913 -6.9014245636960467 5.290147344921496 #
straight-curve $-1 50.455641346476639 10.928990112095192 71.103170099478319 0 0 -1 I I #
point $-1 50.455641346476639 10.928990112095192 8.6885926624003016 #
straight-curve $-1 50.455641346476639 7.1767490390537709 3.7353361529649547 0 1 0 I I #
point $-1 50.455641346476639 10.928990112095192 3.7353361529649618 #
point $-1 47.433371734624913 12.885851806959394 5.290147344921496 #
point $-1 47.433371734624913 15.82114434925569 5.290147344921496 #
edge $-1 $623 29.178121992864206 $617 33.488336807254775 $621 $675 forward 7 unknown #
straight-curve $-1 -50.455641346476639 9.636007974549095 4.378377848009734 0 -1 0 I I #
point $-1 -50.455641346476639 22.722568912951736 4.378377848009734 #
straight-curve $-1 0 22.72256891295174 8.6885926624003016 -1 0 0 I I #
point $-1 -50.455641346476639 22.72256891295174 8.6885926624003016 #
point $-1 -46.9540271749892 17.201684170786059 5.1869784721492005 #
point $-1 -46.9540271749892 19.27201594909819 5.1869784721492005 #
point $-1 -46.9540271749892 21.342347727410321 5.1869784721492005 #
point $-1 -50.455641346476639 -31.2214587352222 8.6885926624003016 #
straight-curve $-1 0 -31.2214587352222 8.6885926624003016 1 0 0 I I #
straight-curve $-1 0 31.2214587352222 8.6885926624003016 -1 0 0 I I #
point $-1 -50.455641346476639 31.2214587352222 8.6885926624003016 #
straight-curve $-1 -50.455641346476639 22.722568912951736 37.866714655264509 0 0 -1 I I #
End-of-ACIS-data 