500 0 8 0           
7 Unknown 11 ACIS 5.0 NT 24 Fri Mar 26 02:33:51 1999 
-1 9.9999999999999995e-007 1e-010 
body $-1 $8 $-1 $9 #
body $-1 $10 $-1 $11 #
body $-1 $12 $-1 $13 #
body $-1 $14 $-1 $15 #
body $-1 $16 $-1 $17 #
body $-1 $18 $-1 $19 #
body $-1 $20 $-1 $21 #
body $-1 $22 $-1 $23 #
lump $-1 $-1 $24 $0 #
transform $-1 1 0 0 0 1 0 0 0 1 48.104495376445811 29.548583032925666 9.1915598705924086 1 rotate no_reflect no_shear #
lump $-1 $-1 $25 $1 #
transform $-1 1 0 0 0 1 0 0 0 1 48.104495376445811 29.548583032925666 9.1915598705924086 1 rotate no_reflect no_shear #
lump $-1 $-1 $26 $2 #
transform $-1 1 0 0 0 1 0 0 0 1 48.104495376445811 29.548583032925666 9.1915598705924086 1 rotate no_reflect no_shear #
lump $-1 $-1 $27 $3 #
transform $-1 1 0 0 0 1 0 0 0 1 48.104495376445811 29.548583032925666 9.1915598705924086 1 rotate no_reflect no_shear #
lump $-1 $-1 $28 $4 #
transform $-1 1 0 0 0 1 0 0 0 1 48.104495376445811 29.548583032925666 9.1915598705924086 1 rotate no_reflect no_shear #
lump $-1 $-1 $29 $5 #
transform $-1 1 0 0 0 1 0 0 0 1 48.104495376445811 29.548583032925666 9.1915598705924086 1 rotate no_reflect no_shear #
lump $-1 $-1 $30 $6 #
transform $-1 1 0 0 0 1 0 0 0 1 48.104495376445811 29.548583032925666 9.1915598705924086 1 rotate no_reflect no_shear #
lump $-1 $-1 $31 $7 #
transform $-1 1 0 0 0 1 0 0 0 1 48.104495376445811 29.548583032925666 9.1915598705924086 1 rotate no_reflect no_shear #
shell $-1 $-1 $-1 $32 $-1 $8 #
shell $-1 $-1 $-1 $33 $-1 $10 #
shell $-1 $-1 $-1 $34 $-1 $12 #
shell $-1 $-1 $-1 $35 $-1 $14 #
shell $-1 $-1 $-1 $36 $-1 $16 #
shell $-1 $-1 $-1 $37 $-1 $18 #
shell $-1 $-1 $-1 $38 $-1 $20 #
shell $-1 $-1 $-1 $39 $-1 $22 #
face $-1 $40 $41 $24 $-1 $42 forward single #
face $-1 $43 $44 $25 $-1 $45 forward single #
face $-1 $46 $47 $26 $-1 $48 reversed single #
face $-1 $49 $50 $27 $-1 $51 forward single #
face $-1 $52 $53 $28 $-1 $54 forward single #
face $-1 $55 $56 $29 $-1 $57 reversed single #
face $-1 $58 $59 $30 $-1 $60 forward single #
face $-1 $61 $62 $31 $-1 $63 forward single #
face $-1 $64 $65 $24 $-1 $66 reversed single #
loop $-1 $-1 $67 $32 #
plane-surface $-1 0 0 9.1915598705924086 0 0 1 1 0 0 forward_v I I I I #
face $-1 $68 $69 $25 $-1 $70 reversed single #
loop $-1 $-1 $71 $33 #
plane-surface $-1 0 -29.548583032925666 0 0 1 0 0 0 1 forward_v I I I I #
face $-1 $72 $73 $26 $-1 $74 reversed single #
loop $-1 $-1 $75 $34 #
plane-surface $-1 64.686047307469508 -5.4048260175967604 140.45459855085846 0 -1 0 -0.78801076186113728 0 -0.61566146476048833 forward_v I I I I #
face $-1 $76 $77 $27 $-1 $78 forward single #
loop $-1 $79 $80 $35 #
cone-surface $-1 46.214572063381745 -15.785303125015815 6.9781045029411652 -0.78801076186113728 0 -0.61566146476048833 0.30783073238024417 0 -0.39400538093056864 1 I I 0 1 0.5 forward I I I I #
face $-1 $81 $82 $28 $-1 $83 forward single #
loop $-1 $84 $85 $36 #
cone-surface $-1 46.214572063381745 -9.5570168605643815 6.9781045029411652 -0.78801076186113728 0 -0.61566146476048833 0.30783073238024417 0 -0.39400538093056864 1 I I 0 1 0.5 forward I I I I #
face $-1 $86 $87 $29 $-1 $88 reversed single #
loop $-1 $-1 $89 $37 #
plane-surface $-1 -123.91821547752303 -19.937493967983436 64.640878449781212 0 1 0 -0.78801076186113728 0 0.61566146476048833 forward_v I I I I #
face $-1 $90 $91 $30 $-1 $92 forward single #
loop $-1 $93 $94 $38 #
cone-surface $-1 -46.214572063381738 -15.785303125015815 6.9781045029411635 0.78801076186113728 0 -0.61566146476048833 0.30783073238024417 0 0.39400538093056864 1 I I 0 1 0.5 forward I I I I #
face $-1 $95 $96 $31 $-1 $97 forward single #
loop $-1 $98 $99 $39 #
cone-surface $-1 -46.214572063381738 -9.5570168605643815 6.9781045029411635 0.78801076186113728 0 -0.61566146476048833 0.30783073238024417 0 0.39400538093056864 1 I I 0 1 0.5 forward I I I I #
face $-1 $100 $101 $24 $-1 $102 reversed single #
loop $-1 $-1 $103 $40 #
plane-surface $-1 0 0 -9.1915598705924086 0 0 1 1 0 0 forward_v I I I I #
coedge $-1 $104 $105 $106 $107 forward $41 $-1 #
face $-1 $108 $109 $25 $-1 $110 reversed single #
loop $-1 $-1 $111 $43 #
plane-surface $-1 0 0 -9.1915598705924086 0 0 1 1 0 0 forward_v I I I I #
coedge $-1 $112 $113 $114 $115 forward $44 $-1 #
face $-1 $116 $117 $26 $-1 $118 reversed single #
loop $-1 $-1 $119 $46 #
plane-surface $-1 -11.127672793607729 -12.671159992790098 81.222430380804923 0.78801076186113728 0 0.61566146476048833 0.61566146476048833 0 -0.78801076186113728 forward_v I I I I #
coedge $-1 $120 $121 $122 $123 reversed $47 $-1 #
face $-1 $-1 $124 $27 $-1 $125 forward single #
loop $-1 $126 $127 $49 #
cone-surface $-1 45.605389025303666 -15.785303125015815 6.5021585645321576 -0.78801076186113728 0 -0.61566146476048833 0.15391536619012208 0 -0.19700269046528432 1 I I -0.70710678118654746 0.70710678118654746 0.25 forward I I I I #
loop $-1 $-1 $128 $35 #
coedge $-1 $80 $80 $129 $130 reversed $50 $-1 #
face $-1 $-1 $131 $28 $-1 $132 forward single #
loop $-1 $133 $134 $52 #
cone-surface $-1 45.605389025303666 -9.5570168605643815 6.5021585645321576 -0.78801076186113728 0 -0.61566146476048833 0.15391536619012208 0 -0.19700269046528432 1 I I -0.70710678118654746 0.70710678118654746 0.25 forward I I I I #
loop $-1 $-1 $135 $36 #
coedge $-1 $85 $85 $136 $137 reversed $53 $-1 #
face $-1 $138 $139 $29 $-1 $140 reversed single #
loop $-1 $-1 $141 $55 #
plane-surface $-1 -48.104495376445797 -12.671159992790098 5.4087102797276785 -0.78801076186113728 0 0.61566146476048833 0.61566146476048833 0 0.78801076186113728 forward_v I I I I #
coedge $-1 $142 $143 $144 $145 reversed $56 $-1 #
face $-1 $-1 $146 $30 $-1 $147 forward single #
loop $-1 $148 $149 $58 #
cone-surface $-1 -45.605389025303658 -15.785303125015815 6.5021585645321558 0.78801076186113728 0 -0.61566146476048833 0.15391536619012208 0 0.19700269046528432 1 I I -0.70710678118654746 0.70710678118654746 0.25 forward I I I I #
loop $-1 $-1 $150 $38 #
coedge $-1 $94 $94 $151 $152 reversed $59 $-1 #
face $-1 $-1 $153 $31 $-1 $154 forward single #
loop $-1 $155 $156 $61 #
cone-surface $-1 -45.605389025303658 -9.5570168605643815 6.5021585645321558 0.78801076186113728 0 -0.61566146476048833 0.15391536619012208 0 0.19700269046528432 1 I I -0.70710678118654746 0.70710678118654746 0.25 forward I I I I #
loop $-1 $-1 $157 $39 #
coedge $-1 $99 $99 $158 $159 reversed $62 $-1 #
face $-1 $160 $161 $24 $-1 $162 reversed single #
loop $-1 $-1 $163 $64 #
plane-surface $-1 0 -29.548583032925666 0 0 1 0 0 0 1 forward_v I I I I #
coedge $-1 $164 $165 $166 $167 forward $65 $-1 #
coedge $-1 $168 $67 $169 $170 forward $41 $-1 #
coedge $-1 $67 $168 $171 $172 forward $41 $-1 #
coedge $-1 $173 $174 $67 $107 reversed $175 $-1 #
edge $-1 $176 -29.548583032925666 $177 29.548583032925666 $106 $178 forward 7 unknown #
face $-1 $179 $180 $25 $-1 $181 forward single #
loop $-1 $-1 $182 $68 #
plane-surface $-1 48.104495376445811 0 0 -1 0 0 0 0 1 forward_v I I I I #
coedge $-1 $183 $184 $185 $186 forward $69 $-1 #
coedge $-1 $185 $71 $182 $187 reversed $44 $-1 #
coedge $-1 $71 $185 $188 $189 reversed $44 $-1 #
coedge $-1 $190 $191 $71 $115 reversed $180 $-1 #
edge $-1 $192 -48.104495376445811 $193 48.104495376445811 $114 $194 forward 7 unknown #
face $-1 $195 $196 $26 $-1 $197 reversed single #
loop $-1 $-1 $198 $72 #
plane-surface $-1 64.686047307469508 -19.937493967983436 140.45459855085846 0 1 0 0.78801076186113728 0 0.61566146476048833 forward_v I I I I #
coedge $-1 $199 $200 $201 $202 reversed $73 $-1 #
coedge $-1 $121 $75 $203 $204 reversed $47 $-1 #
coedge $-1 $75 $120 $199 $205 reversed $47 $-1 #
coedge $-1 $201 $206 $75 $123 forward $207 $-1 #
edge $-1 $208 -15.761471722711057 $209 -12.805985791808496 $122 $210 forward 7 unknown #
loop $-1 $-1 $129 $76 #
plane-surface $-1 -11.127672793607729 -12.671159992790098 81.222430380804923 0.78801076186113728 0 0.61566146476048833 0.61566146476048833 0 -0.78801076186113728 forward_v I I I I #
loop $-1 $-1 $211 $49 #
coedge $-1 $127 $127 $128 $212 reversed $77 $-1 #
coedge $-1 $128 $128 $127 $212 forward $79 $-1 #
coedge $-1 $129 $129 $80 $130 forward $124 $-1 #
edge $-1 $213 0 $213 6.2831853071796004 $129 $214 forward 7 unknown #
loop $-1 $-1 $136 $81 #
plane-surface $-1 -11.127672793607729 -12.671159992790098 81.222430380804923 0.78801076186113728 0 0.61566146476048833 0.61566146476048833 0 -0.78801076186113728 forward_v I I I I #
loop $-1 $-1 $215 $52 #
coedge $-1 $134 $134 $135 $216 reversed $82 $-1 #
coedge $-1 $135 $135 $134 $216 forward $84 $-1 #
coedge $-1 $136 $136 $85 $137 forward $131 $-1 #
edge $-1 $217 0 $217 6.2831853071796004 $136 $218 forward 7 unknown #
face $-1 $219 $220 $29 $-1 $221 forward single #
loop $-1 $-1 $222 $86 #
plane-surface $-1 -123.91821547752303 -5.4048260175967604 64.640878449781212 0 -1 0 0.78801076186113728 0 -0.61566146476048833 forward_v I I I I #
coedge $-1 $223 $224 $225 $226 reversed $87 $-1 #
coedge $-1 $143 $89 $227 $228 reversed $56 $-1 #
coedge $-1 $89 $142 $223 $229 reversed $56 $-1 #
coedge $-1 $225 $230 $89 $145 forward $220 $-1 #
edge $-1 $231 13.854612362315706 $232 16.810098293218275 $144 $233 forward 7 unknown #
loop $-1 $-1 $151 $90 #
plane-surface $-1 -48.104495376445797 -12.671159992790098 5.4087102797276785 -0.78801076186113728 0 0.61566146476048833 0.61566146476048833 0 0.78801076186113728 forward_v I I I I #
loop $-1 $-1 $234 $58 #
coedge $-1 $149 $149 $150 $235 reversed $91 $-1 #
coedge $-1 $150 $150 $149 $235 forward $93 $-1 #
coedge $-1 $151 $151 $94 $152 forward $146 $-1 #
edge $-1 $236 0 $236 6.2831853071796004 $151 $237 forward 7 unknown #
loop $-1 $-1 $158 $95 #
plane-surface $-1 -48.104495376445797 -12.671159992790098 5.4087102797276785 -0.78801076186113728 0 0.61566146476048833 0.61566146476048833 0 0.78801076186113728 forward_v I I I I #
loop $-1 $-1 $238 $61 #
coedge $-1 $156 $156 $157 $239 reversed $96 $-1 #
coedge $-1 $157 $157 $156 $239 forward $98 $-1 #
coedge $-1 $158 $158 $99 $159 forward $153 $-1 #
edge $-1 $240 0 $240 6.2831853071796004 $158 $241 forward 7 unknown #
face $-1 $242 $243 $24 $-1 $244 reversed single #
loop $-1 $-1 $245 $100 #
plane-surface $-1 -48.104495376445811 0 0 1 0 0 0 0 -1 forward_v I I I I #
coedge $-1 $246 $171 $247 $248 forward $101 $-1 #
coedge $-1 $249 $103 $246 $250 forward $65 $-1 #
coedge $-1 $103 $249 $251 $252 forward $65 $-1 #
coedge $-1 $174 $173 $103 $167 reversed $175 $-1 #
edge $-1 $253 -29.548583032925666 $254 29.548583032925666 $166 $255 forward 7 unknown #
coedge $-1 $105 $104 $256 $257 forward $41 $-1 #
coedge $-1 $258 $259 $104 $170 reversed $243 $-1 #
edge $-1 $177 -48.104495376445811 $260 48.104495376445811 $169 $261 forward 7 unknown #
coedge $-1 $163 $262 $105 $172 reversed $101 $-1 #
edge $-1 $263 -48.104495376445811 $176 48.104495376445811 $171 $264 forward 7 unknown #
coedge $-1 $166 $106 $262 $265 forward $175 $-1 #
coedge $-1 $106 $166 $258 $266 reversed $175 $-1 #
loop $-1 $-1 $173 $242 #
vertex $-1 $107 $267 #
vertex $-1 $107 $268 #
straight-curve $-1 48.104495376445811 0 9.1915598705924086 0 1 0 I I #
face $-1 $269 $270 $25 $-1 $271 reversed single #
loop $-1 $-1 $191 $108 #
plane-surface $-1 0 -34.35412756539678 -6.1915598705924086 0 0 1 1 0 0 forward_v I I I I #
coedge $-1 $272 $273 $112 $187 forward $109 $-1 #
coedge $-1 $274 $111 $273 $275 forward $69 $-1 #
coedge $-1 $111 $274 $276 $277 forward $69 $-1 #
coedge $-1 $113 $112 $111 $186 reversed $44 $-1 #
edge $-1 $278 -48.104495376445811 $279 48.104495376445811 $111 $280 forward 7 unknown #
edge $-1 $279 -9.1915598705924086 $193 -6.1915598705924086 $182 $281 forward 7 unknown #
coedge $-1 $276 $282 $113 $189 forward $283 $-1 #
edge $-1 $192 6.1915598705924086 $278 9.1915598705924086 $188 $284 forward 7 unknown #
coedge $-1 $285 $114 $282 $286 forward $180 $-1 #
coedge $-1 $114 $285 $272 $287 forward $180 $-1 #
vertex $-1 $189 $288 #
vertex $-1 $287 $289 #
straight-curve $-1 0 -29.548583032925666 -6.1915598705924086 1 0 0 I I #
face $-1 $-1 $207 $26 $-1 $290 forward single #
loop $-1 $-1 $291 $116 #
plane-surface $-1 48.104495376445811 0 0 -1 0 0 0 0 1 forward_v I I I I #
coedge $-1 $292 $293 $294 $295 reversed $117 $-1 #
coedge $-1 $296 $119 $121 $205 forward $73 $-1 #
coedge $-1 $119 $296 $292 $297 forward $73 $-1 #
coedge $-1 $294 $122 $119 $202 forward $207 $-1 #
edge $-1 $209 -0.93075397879828881 $298 13.601913971588386 $201 $299 forward 7 unknown #
coedge $-1 $300 $301 $120 $204 forward $196 $-1 #
edge $-1 $302 -64.81858899570156 $208 -61.035739404836825 $203 $303 forward 7 unknown #
edge $-1 $209 91.408485767489736 $302 96.208990752891637 $121 $304 forward 7 unknown #
coedge $-1 $122 $294 $300 $305 forward $207 $-1 #
loop $-1 $-1 $294 $195 #
vertex $-1 $204 $306 #
vertex $-1 $123 $307 #
straight-curve $-1 32.343023653734754 -5.4048260175967604 9.191559870592414 -1 0 0 I I #
coedge $-1 $211 $211 $-1 $308 reversed $126 $-1 #
edge $-1 $309 0 $309 6.2831853071796004 $127 $310 forward 7 unknown #
vertex $-1 $130 $311 #
ellipse-curve $-1 46.626752410994527 -15.785303125015815 7.3001350751600409 0.78801076186113728 0 0.61566146476048833 0.30783073238024417 0 -0.39400538093056864 1 I I #
coedge $-1 $215 $215 $-1 $312 reversed $133 $-1 #
edge $-1 $313 0 $313 6.2831853071796004 $134 $314 forward 7 unknown #
vertex $-1 $137 $315 #
ellipse-curve $-1 46.626752410994527 -9.5570168605643815 7.3001350751600409 0.78801076186113728 0 0.61566146476048833 0.30783073238024417 0 -0.39400538093056864 1 I I #
face $-1 $-1 $316 $29 $-1 $317 reversed single #
loop $-1 $-1 $144 $138 #
plane-surface $-1 0 0 9.1915598705924086 0 0 1 1 0 0 forward_v I I I I #
coedge $-1 $318 $319 $320 $321 reversed $139 $-1 #
coedge $-1 $322 $141 $143 $229 forward $87 $-1 #
coedge $-1 $141 $322 $318 $323 forward $87 $-1 #
coedge $-1 $320 $144 $141 $226 forward $220 $-1 #
edge $-1 $232 -13.601913971588386 $324 0.93075397879828881 $225 $325 forward 7 unknown #
coedge $-1 $326 $327 $142 $228 forward $316 $-1 #
edge $-1 $328 -26.911728945162945 $231 -23.128879354298199 $227 $329 forward 7 unknown #
edge $-1 $232 -4.8005049854018891 $328 2.274695869299009e-014 $143 $330 forward 7 unknown #
coedge $-1 $144 $320 $326 $331 forward $220 $-1 #
vertex $-1 $228 $332 #
vertex $-1 $145 $333 #
straight-curve $-1 -61.959107738761517 -19.937493967983436 9.1915598705924069 1 0 0 I I #
coedge $-1 $234 $234 $-1 $334 reversed $148 $-1 #
edge $-1 $335 0 $335 6.2831853071796004 $149 $336 forward 7 unknown #
vertex $-1 $152 $337 #
ellipse-curve $-1 -46.62675241099452 -15.785303125015815 7.30013507516004 -0.78801076186113728 0 0.61566146476048833 0.30783073238024417 0 0.39400538093056864 1 I I #
coedge $-1 $238 $238 $-1 $338 reversed $155 $-1 #
edge $-1 $339 0 $339 6.2831853071796004 $156 $340 forward 7 unknown #
vertex $-1 $159 $341 #
ellipse-curve $-1 -46.62675241099452 -9.5570168605643815 7.30013507516004 -0.78801076186113728 0 0.61566146476048833 0.30783073238024417 0 0.39400538093056864 1 I I #
face $-1 $-1 $175 $24 $-1 $342 reversed single #
loop $-1 $-1 $258 $160 #
plane-surface $-1 0 29.548583032925666 0 0 -1 0 0 0 -1 forward_v I I I I #
coedge $-1 $343 $256 $259 $344 forward $161 $-1 #
coedge $-1 $262 $163 $164 $250 reversed $101 $-1 #
coedge $-1 $256 $343 $163 $248 reversed $161 $-1 #
edge $-1 $263 -9.1915598705924086 $345 9.1915598705924086 $247 $346 forward 7 unknown #
coedge $-1 $165 $164 $343 $347 forward $65 $-1 #
edge $-1 $254 -48.104495376445811 $345 48.104495376445811 $246 $348 forward 7 unknown #
coedge $-1 $259 $258 $165 $252 reversed $243 $-1 #
edge $-1 $349 -48.104495376445811 $253 48.104495376445811 $251 $350 forward 7 unknown #
vertex $-1 $167 $351 #
vertex $-1 $265 $352 #
straight-curve $-1 48.104495376445811 0 -9.1915598705924086 0 -1 0 I I #
coedge $-1 $245 $247 $168 $257 reversed $161 $-1 #
edge $-1 $260 -29.548583032925666 $263 29.548583032925666 $256 $353 forward 7 unknown #
coedge $-1 $251 $169 $174 $266 forward $243 $-1 #
coedge $-1 $169 $251 $245 $344 reversed $243 $-1 #
vertex $-1 $170 $354 #
straight-curve $-1 0 29.548583032925666 9.1915598705924086 -1 0 0 I I #
coedge $-1 $171 $246 $173 $265 reversed $101 $-1 #
vertex $-1 $257 $355 #
straight-curve $-1 0 -29.548583032925666 9.1915598705924086 1 0 0 I I #
edge $-1 $176 -9.1915598705924086 $254 9.1915598705924086 $173 $356 forward 7 unknown #
edge $-1 $177 -9.1915598705924086 $253 9.1915598705924086 $174 $357 forward 7 unknown #
point $-1 48.104495376445811 -29.548583032925666 9.1915598705924086 #
point $-1 48.104495376445811 29.548583032925666 9.1915598705924086 #
face $-1 $-1 $283 $25 $-1 $358 reversed single #
loop $-1 $-1 $359 $179 #
plane-surface $-1 0 -39.159672097867897 -7.6915598705924086 0 1 0 0 0 1 forward_v I I I I #
coedge $-1 $360 $182 $191 $287 reversed $109 $-1 #
coedge $-1 $182 $360 $183 $275 reversed $109 $-1 #
coedge $-1 $184 $183 $361 $362 forward $69 $-1 #
edge $-1 $279 29.548583032925666 $363 39.159672097867897 $273 $364 forward 7 unknown #
coedge $-1 $365 $188 $184 $277 reversed $283 $-1 #
edge $-1 $366 -39.159672097867897 $278 -29.548583032925666 $276 $367 forward 7 unknown #
vertex $-1 $189 $368 #
vertex $-1 $275 $369 #
straight-curve $-1 0 -29.548583032925666 -9.1915598705924086 1 0 0 I I #
straight-curve $-1 48.104495376445811 -29.548583032925666 0 0 0 1 I I #
coedge $-1 $188 $365 $190 $286 reversed $283 $-1 #
loop $-1 $-1 $188 $269 #
straight-curve $-1 -48.104495376445811 -29.548583032925666 0 0 0 -1 I I #
coedge $-1 $191 $190 $370 $371 forward $180 $-1 #
edge $-1 $192 -4.8055445324711137 $372 4.8055445324711172 $282 $373 forward 7 unknown #
edge $-1 $374 -4.8055445324711172 $193 4.8055445324711137 $272 $375 forward 7 unknown #
point $-1 -48.104495376445811 -29.548583032925666 -6.1915598705924086 #
point $-1 48.104495376445811 -29.548583032925666 -6.1915598705924086 #
plane-surface $-1 0 0 9.1915598705924086 0 0 1 1 0 0 forward_v I I I I #
coedge $-1 $301 $300 $293 $376 forward $196 $-1 #
coedge $-1 $293 $198 $200 $297 reversed $117 $-1 #
coedge $-1 $198 $292 $291 $376 reversed $117 $-1 #
coedge $-1 $206 $201 $198 $295 forward $207 $-1 #
edge $-1 $298 12.805985791808496 $377 15.761471722711057 $294 $378 forward 7 unknown #
coedge $-1 $200 $199 $301 $379 reversed $73 $-1 #
edge $-1 $380 -96.208990752891637 $298 -91.408485767489736 $292 $381 forward 7 unknown #
vertex $-1 $202 $382 #
straight-curve $-1 45.149009445543257 -6.3355799963950492 9.1915598705924069 0 -1 0 I I #
coedge $-1 $291 $203 $206 $305 reversed $196 $-1 #
coedge $-1 $203 $291 $296 $379 forward $196 $-1 #
vertex $-1 $204 $383 #
straight-curve $-1 48.104495376445811 -5.4048260175967604 70.227299275429232 0 0 1 I I #
straight-curve $-1 -11.127672793607729 -5.4048260175967604 81.222430380804923 0.61566146476048833 0 -0.78801076186113728 I I #
edge $-1 $377 -19.937493967983436 $208 -5.4048260175967604 $300 $384 forward 7 unknown #
point $-1 48.104495376445811 -5.4048260175967604 9.1915598705924086 #
point $-1 45.14900944554325 -5.4048260175967604 9.191559870592414 #
edge $-1 $385 1 $385 0 $211 $-1 forward 7 unknown #
vertex $-1 $212 $386 #
ellipse-curve $-1 45.802391715768948 -15.785303125015815 6.6560739307222798 0.78801076186113728 0 0.61566146476048833 0.30783073238024417 0 -0.39400538093056864 1 I I #
point $-1 46.934583143374788 -15.785303125015815 6.9061296942294819 #
edge $-1 $387 1 $387 0 $215 $-1 forward 7 unknown #
vertex $-1 $216 $388 #
ellipse-curve $-1 45.802391715768948 -9.5570168605643815 6.6560739307222798 0.78801076186113728 0 0.61566146476048833 0.30783073238024417 0 -0.39400538093056864 1 I I #
point $-1 46.934583143374788 -9.5570168605643815 6.9061296942294819 #
loop $-1 $-1 $227 $219 #
plane-surface $-1 -48.104495376445811 0 0 1 0 0 0 0 -1 forward_v I I I I #
coedge $-1 $319 $222 $224 $323 reversed $139 $-1 #
coedge $-1 $222 $318 $389 $390 reversed $139 $-1 #
coedge $-1 $230 $225 $222 $321 forward $220 $-1 #
edge $-1 $324 -16.810098293218275 $391 -13.854612362315706 $320 $392 forward 7 unknown #
coedge $-1 $224 $223 $327 $393 reversed $87 $-1 #
edge $-1 $394 -2.274695869299009e-014 $324 4.8005049854018891 $318 $395 forward 7 unknown #
vertex $-1 $226 $396 #
straight-curve $-1 -45.149009445543243 -6.3355799963950492 9.1915598705924086 0 1 0 I I #
coedge $-1 $389 $227 $230 $331 reversed $316 $-1 #
coedge $-1 $227 $389 $322 $393 forward $316 $-1 #
vertex $-1 $228 $397 #
straight-curve $-1 -48.104495376445811 -19.937493967983436 32.320439224890606 0 0 1 I I #
straight-curve $-1 -48.104495376445797 -19.937493967983436 5.4087102797276785 -0.61566146476048833 0 -0.78801076186113728 I I #
edge $-1 $391 5.4048260175967604 $231 19.937493967983436 $326 $398 forward 7 unknown #
point $-1 -48.104495376445811 -19.937493967983436 9.1915598705924086 #
point $-1 -45.149009445543243 -19.937493967983436 9.1915598705924086 #
edge $-1 $399 1 $399 0 $234 $-1 forward 7 unknown #
vertex $-1 $235 $400 #
ellipse-curve $-1 -45.802391715768941 -15.785303125015815 6.656073930722278 -0.78801076186113728 0 0.61566146476048833 0.30783073238024417 0 0.39400538093056864 1 I I #
point $-1 -46.318921678614295 -15.785303125015815 7.6941404560906168 #
edge $-1 $401 1 $401 0 $238 $-1 forward 7 unknown #
vertex $-1 $239 $402 #
ellipse-curve $-1 -45.802391715768941 -9.5570168605643815 6.656073930722278 -0.78801076186113728 0 0.61566146476048833 0.30783073238024417 0 0.39400538093056864 1 I I #
point $-1 -46.318921678614295 -9.5570168605643815 7.6941404560906168 #
plane-surface $-1 48.104495376445811 0 0 -1 0 0 0 0 1 forward_v I I I I #
coedge $-1 $247 $245 $249 $347 reversed $161 $-1 #
edge $-1 $260 -9.1915598705924086 $349 9.1915598705924086 $259 $403 forward 7 unknown #
vertex $-1 $347 $404 #
straight-curve $-1 -48.104495376445811 -29.548583032925666 0 0 0 -1 I I #
edge $-1 $345 -29.548583032925666 $349 29.548583032925666 $343 $405 forward 7 unknown #
straight-curve $-1 0 -29.548583032925666 -9.1915598705924086 -1 0 0 I I #
vertex $-1 $252 $406 #
straight-curve $-1 0 29.548583032925666 -9.1915598705924086 1 0 0 I I #
point $-1 48.104495376445811 29.548583032925666 -9.1915598705924086 #
point $-1 48.104495376445811 -29.548583032925666 -9.1915598705924086 #
straight-curve $-1 -48.104495376445811 0 9.1915598705924086 0 -1 0 I I #
point $-1 -48.104495376445811 29.548583032925666 9.1915598705924086 #
point $-1 -48.104495376445811 -29.548583032925666 9.1915598705924086 #
straight-curve $-1 48.104495376445811 -29.548583032925666 0 0 0 -1 I I #
straight-curve $-1 48.104495376445811 29.548583032925666 0 0 0 -1 I I #
plane-surface $-1 -48.104495376445811 0 0 1 0 0 0 0 -1 forward_v I I I I #
coedge $-1 $361 $370 $365 $407 forward $270 $-1 #
coedge $-1 $273 $272 $408 $409 forward $109 $-1 #
coedge $-1 $408 $359 $274 $362 reversed $270 $-1 #
edge $-1 $363 -48.104495376445811 $366 48.104495376445811 $361 $410 forward 7 unknown #
vertex $-1 $409 $411 #
straight-curve $-1 48.104495376445811 0 -9.1915598705924086 0 -1 0 I I #
coedge $-1 $282 $276 $359 $407 reversed $283 $-1 #
vertex $-1 $277 $412 #
straight-curve $-1 -48.104495376445811 0 -9.1915598705924086 0 1 0 I I #
point $-1 -48.104495376445811 -29.548583032925666 -9.1915598705924086 #
point $-1 48.104495376445811 -29.548583032925666 -9.1915598705924086 #
coedge $-1 $359 $408 $285 $371 reversed $270 $-1 #
edge $-1 $372 -48.104495376445811 $374 48.104495376445811 $370 $413 forward 7 unknown #
vertex $-1 $286 $414 #
straight-curve $-1 -48.104495376445811 -34.35412756539678 -6.1915598705924086 0 -1 0 I I #
vertex $-1 $287 $415 #
straight-curve $-1 48.104495376445811 -34.35412756539678 -6.1915598705924086 0 1 0 I I #
edge $-1 $377 61.035739404836825 $380 64.81858899570156 $291 $416 forward 7 unknown #
vertex $-1 $305 $417 #
straight-curve $-1 32.343023653734754 -19.937493967983436 9.191559870592414 1 0 0 I I #
edge $-1 $380 -13.601913971588386 $302 0.93075397879828881 $301 $418 forward 7 unknown #
vertex $-1 $379 $419 #
straight-curve $-1 -11.127672793607729 -19.937493967983436 81.222430380804923 -0.61566146476048833 0 0.78801076186113728 I I #
point $-1 45.14900944554325 -19.937493967983436 9.191559870592414 #
point $-1 48.104495376445811 -5.4048260175967604 5.4087102797276714 #
straight-curve $-1 48.104495376445811 0 9.1915598705924086 0 1 0 I I #
vertex $-1 $308 $420 #
point $-1 46.110222448149194 -15.785303125015815 6.262068549791711 #
vertex $-1 $312 $421 #
point $-1 46.110222448149194 -9.5570168605643815 6.262068549791711 #
coedge $-1 $327 $326 $319 $390 forward $316 $-1 #
edge $-1 $391 23.128879354298199 $394 26.911728945162945 $389 $422 forward 7 unknown #
vertex $-1 $331 $423 #
straight-curve $-1 -61.959107738761517 -5.4048260175967604 9.1915598705924069 -1 0 0 I I #
edge $-1 $394 -0.93075397879828881 $328 13.601913971588386 $327 $424 forward 7 unknown #
vertex $-1 $393 $425 #
straight-curve $-1 -48.104495376445797 -5.4048260175967604 5.4087102797276785 0.61566146476048833 0 0.78801076186113728 I I #
point $-1 -45.149009445543243 -5.4048260175967604 9.1915598705924086 #
point $-1 -48.104495376445811 -19.937493967983436 5.4087102797276607 #
straight-curve $-1 -48.104495376445811 0 9.1915598705924086 0 -1 0 I I #
vertex $-1 $334 $426 #
point $-1 -45.494560983388702 -15.785303125015815 7.0500793116528468 #
vertex $-1 $338 $427 #
point $-1 -45.494560983388702 -9.5570168605643815 7.0500793116528468 #
straight-curve $-1 -48.104495376445811 29.548583032925666 0 0 0 -1 I I #
point $-1 -48.104495376445811 -29.548583032925666 -9.1915598705924086 #
straight-curve $-1 -48.104495376445811 0 -9.1915598705924086 0 1 0 I I #
point $-1 -48.104495376445811 29.548583032925666 -9.1915598705924086 #
edge $-1 $372 -1.5 $366 1.5 $365 $428 forward 7 unknown #
coedge $-1 $370 $361 $360 $409 reversed $270 $-1 #
edge $-1 $374 -1.5 $363 1.5 $360 $429 forward 7 unknown #
straight-curve $-1 0 -39.159672097867897 -9.1915598705924086 -1 0 0 I I #
point $-1 48.104495376445811 -39.159672097867897 -9.1915598705924086 #
point $-1 -48.104495376445811 -39.159672097867897 -9.1915598705924086 #
straight-curve $-1 0 -39.159672097867897 -6.1915598705924086 1 0 0 I I #
point $-1 -48.104495376445811 -39.159672097867897 -6.1915598705924086 #
point $-1 48.104495376445811 -39.159672097867897 -6.1915598705924086 #
straight-curve $-1 48.104495376445811 -19.937493967983436 70.227299275429232 0 0 -1 I I #
point $-1 48.104495376445811 -19.937493967983436 9.1915598705924086 #
straight-curve $-1 48.104495376445811 -6.3355799963950492 5.4087102797276785 0 1 0 I I #
point $-1 48.104495376445811 -19.937493967983436 5.4087102797276714 #
point $-1 45.408386334838383 -15.785303125015815 6.3482431983420353 #
point $-1 45.408386334838383 -9.5570168605643815 6.3482431983420353 #
straight-curve $-1 -48.104495376445811 -5.4048260175967604 32.320439224890606 0 0 -1 I I #
point $-1 -48.104495376445811 -5.4048260175967604 9.1915598705924086 #
straight-curve $-1 -48.104495376445811 -6.3355799963950492 5.4087102797276598 0 -1 0 I I #
point $-1 -48.104495376445811 -5.4048260175967604 5.4087102797276607 #
point $-1 -45.408386334838376 -15.785303125015815 6.3482431983420335 #
point $-1 -45.408386334838376 -9.5570168605643815 6.3482431983420335 #
straight-curve $-1 -48.104495376445811 -39.159672097867897 -7.6915598705924086 0 0 -1 I I #
straight-curve $-1 48.104495376445811 -39.159672097867897 -7.6915598705924086 0 0 -1 I I #
End-of-ACIS-data 