500 0 6 0           
7 Unknown 11 ACIS 5.0 NT 24 Thu Mar 25 19:16:43 1999 
-1 9.9999999999999995e-007 1e-010 
body $-1 $6 $-1 $7 #
body $-1 $8 $-1 $9 #
body $-1 $10 $-1 $11 #
body $-1 $12 $-1 $13 #
body $-1 $14 $-1 $15 #
body $-1 $16 $-1 $17 #
lump $-1 $-1 $18 $0 #
transform $-1 1 0 0 0 1 0 0 0 1 53.384197515793332 31.334195806199837 12.020829138518479 1 rotate no_reflect no_shear #
lump $-1 $-1 $19 $1 #
transform $-1 1 0 0 0 1 0 0 0 1 53.384197515793332 31.334195806199837 12.020829138518479 1 rotate no_reflect no_shear #
lump $-1 $-1 $20 $2 #
transform $-1 1 0 0 0 1 0 0 0 1 53.384197515793332 31.334195806199837 12.020829138518479 1 rotate no_reflect no_shear #
lump $-1 $-1 $21 $3 #
transform $-1 1 0 0 0 1 0 0 0 1 53.384197515793332 31.334195806199837 12.020829138518479 1 rotate no_reflect no_shear #
lump $-1 $-1 $22 $4 #
transform $-1 1 0 0 0 1 0 0 0 1 53.384197515793332 31.334195806199837 12.020829138518479 1 rotate no_reflect no_shear #
lump $-1 $-1 $23 $5 #
transform $-1 1 0 0 0 1 0 0 0 1 53.384197515793332 31.334195806199837 12.020829138518479 1 rotate no_reflect no_shear #
shell $-1 $-1 $-1 $24 $-1 $6 #
shell $-1 $-1 $-1 $25 $-1 $8 #
shell $-1 $-1 $-1 $26 $-1 $10 #
shell $-1 $-1 $-1 $27 $-1 $12 #
shell $-1 $-1 $-1 $28 $-1 $14 #
shell $-1 $-1 $-1 $29 $-1 $16 #
face $-1 $30 $31 $18 $-1 $32 reversed single #
face $-1 $33 $34 $19 $-1 $35 forward single #
face $-1 $36 $37 $20 $-1 $38 reversed single #
face $-1 $39 $40 $21 $-1 $41 reversed single #
face $-1 $42 $43 $22 $-1 $44 forward single #
face $-1 $45 $46 $23 $-1 $47 forward single #
face $-1 $48 $49 $18 $-1 $50 forward single #
loop $-1 $-1 $51 $24 #
plane-surface $-1 0 -31.334195806199837 0 0 1 0 0 0 1 forward_v I I I I #
face $-1 $52 $53 $19 $-1 $54 reversed single #
loop $-1 $-1 $55 $25 #
plane-surface $-1 0 -31.334195806199837 0 0 1 0 0 0 1 forward_v I I I I #
face $-1 $56 $57 $20 $-1 $58 reversed single #
loop $-1 $-1 $59 $26 #
plane-surface $-1 0 26.370367808782113 7.7779720774930059 0 0 1 1 0 0 forward_v I I I I #
face $-1 $60 $61 $21 $-1 $62 reversed single #
loop $-1 $-1 $63 $27 #
plane-surface $-1 -28.405137491084474 17.098370103566445 70.662509462687723 0.64278761758704617 0 0.76604443648966558 0.76604443648966558 0 -0.64278761758704617 forward_v I I I I #
face $-1 $64 $65 $22 $-1 $66 forward single #
loop $-1 $67 $68 $28 #
cone-surface $-1 46.822571393425378 15.252011657367326 6.299790539570429 -0.64278761758704617 0 -0.76604443648966558 0.76604443648966558 0 -0.64278761758704617 1 I I 0 1 1 forward I I I I #
face $-1 $69 $70 $23 $-1 $71 forward single #
loop $-1 $72 $73 $29 #
cone-surface $-1 46.822571393425378 18.944728549765571 6.299790539570429 -0.64278761758704617 0 -0.76604443648966558 0.76604443648966558 0 -0.64278761758704617 1 I I 0 1 1 forward I I I I #
face $-1 $74 $75 $18 $-1 $76 reversed single #
loop $-1 $-1 $77 $30 #
plane-surface $-1 0 0 12.020829138518479 0 0 1 1 0 0 forward_v I I I I #
coedge $-1 $78 $79 $80 $81 reversed $31 $-1 #
face $-1 $82 $83 $19 $-1 $84 reversed single #
loop $-1 $-1 $85 $33 #
plane-surface $-1 0 0 -12.020829138518479 0 0 1 1 0 0 forward_v I I I I #
coedge $-1 $86 $87 $88 $89 forward $34 $-1 #
face $-1 $90 $91 $20 $-1 $92 reversed single #
loop $-1 $-1 $93 $36 #
plane-surface $-1 0 21.406539811364393 9.8994006080057417 0 1 0 0 0 1 forward_v I I I I #
coedge $-1 $94 $95 $96 $97 reversed $37 $-1 #
face $-1 $98 $99 $21 $-1 $100 forward single #
loop $-1 $-1 $101 $39 #
plane-surface $-1 40.224264784861731 12.790200395768494 152.45184446956554 0 1 0 0.64278761758704617 0 0.76604443648966558 forward_v I I I I #
coedge $-1 $102 $103 $104 $105 reversed $40 $-1 #
face $-1 $-1 $106 $22 $-1 $107 forward single #
loop $-1 $108 $109 $42 #
cone-surface $-1 45.891003096542121 15.252011657367326 5.1895906982660307 -0.64278761758704617 0 -0.76604443648966558 0.38302221824483279 0 -0.32139380879352308 1 I I -0.70710678118654746 0.70710678118654746 0.5 forward I I I I #
loop $-1 $-1 $110 $28 #
coedge $-1 $68 $68 $111 $112 reversed $43 $-1 #
face $-1 $-1 $113 $23 $-1 $114 forward single #
loop $-1 $115 $116 $45 #
cone-surface $-1 45.891003096542121 18.944728549765571 5.1895906982660307 -0.64278761758704617 0 -0.76604443648966558 0.38302221824483279 0 -0.32139380879352308 1 I I -0.70710678118654746 0.70710678118654746 0.5 forward I I I I #
loop $-1 $-1 $117 $29 #
coedge $-1 $73 $73 $118 $119 reversed $46 $-1 #
face $-1 $120 $121 $18 $-1 $122 reversed single #
loop $-1 $-1 $123 $48 #
plane-surface $-1 0 0 -12.020829138518479 0 0 1 1 0 0 forward_v I I I I #
coedge $-1 $124 $125 $126 $127 forward $49 $-1 #
coedge $-1 $128 $51 $129 $130 reversed $31 $-1 #
coedge $-1 $51 $128 $131 $132 forward $31 $-1 #
coedge $-1 $133 $123 $51 $81 forward $75 $-1 #
edge $-1 $134 -53.384197515793332 $135 53.384197515793332 $51 $136 forward 7 unknown #
face $-1 $137 $138 $19 $-1 $139 reversed single #
loop $-1 $-1 $140 $52 #
plane-surface $-1 -30.889688587975833 -41.380735735805878 0 0 1 0 0 0 1 forward_v I I I I #
coedge $-1 $141 $142 $87 $143 forward $53 $-1 #
coedge $-1 $144 $55 $145 $146 reversed $34 $-1 #
coedge $-1 $55 $144 $85 $143 reversed $34 $-1 #
coedge $-1 $147 $148 $55 $89 reversed $138 $-1 #
edge $-1 $149 -12.020829138518479 $150 12.020829138518479 $88 $151 forward 7 unknown #
face $-1 $152 $153 $20 $-1 $154 forward single #
loop $-1 $-1 $155 $56 #
plane-surface $-1 -53.384197515793332 0 0 1 0 0 0 0 -1 forward_v I I I I #
coedge $-1 $156 $157 $158 $159 reversed $57 $-1 #
coedge $-1 $160 $59 $161 $162 forward $37 $-1 #
coedge $-1 $59 $160 $163 $164 reversed $37 $-1 #
coedge $-1 $165 $166 $59 $97 forward $167 $-1 #
edge $-1 $168 8.2213559069733364 $169 18.149011901808777 $96 $170 forward 7 unknown #
face $-1 $171 $172 $21 $-1 $173 forward single #
loop $-1 $-1 $174 $60 #
plane-surface $-1 0 21.406539811364393 9.8994006080057417 0 1 0 0 0 1 forward_v I I I I #
coedge $-1 $175 $176 $177 $178 reversed $61 $-1 #
coedge $-1 $179 $63 $174 $180 reversed $40 $-1 #
coedge $-1 $63 $179 $175 $181 forward $40 $-1 #
coedge $-1 $177 $182 $63 $105 forward $172 $-1 #
edge $-1 $183 -12.85735475958117 $184 -4.2410153439852714 $104 $185 forward 7 unknown #
loop $-1 $-1 $111 $64 #
plane-surface $-1 -28.405137491084474 17.098370103566445 70.662509462687723 0.64278761758704617 0 0.76604443648966558 0.76604443648966558 0 -0.64278761758704617 forward_v I I I I #
loop $-1 $-1 $186 $42 #
coedge $-1 $109 $109 $110 $187 reversed $65 $-1 #
coedge $-1 $110 $110 $109 $187 forward $67 $-1 #
coedge $-1 $111 $111 $68 $112 forward $106 $-1 #
edge $-1 $188 0 $188 6.2831853071796004 $111 $189 forward 7 unknown #
loop $-1 $-1 $118 $69 #
plane-surface $-1 -28.405137491084474 17.098370103566445 70.662509462687723 0.64278761758704617 0 0.76604443648966558 0.76604443648966558 0 -0.64278761758704617 forward_v I I I I #
loop $-1 $-1 $190 $45 #
coedge $-1 $116 $116 $117 $191 reversed $70 $-1 #
coedge $-1 $117 $117 $116 $191 forward $72 $-1 #
coedge $-1 $118 $118 $73 $119 forward $113 $-1 #
edge $-1 $192 0 $192 6.2831853071796004 $118 $193 forward 7 unknown #
face $-1 $194 $195 $18 $-1 $196 reversed single #
loop $-1 $-1 $197 $74 #
plane-surface $-1 -53.384197515793332 0 0 1 0 0 0 0 -1 forward_v I I I I #
coedge $-1 $80 $198 $199 $200 forward $75 $-1 #
coedge $-1 $201 $77 $202 $203 forward $49 $-1 #
coedge $-1 $77 $201 $128 $204 forward $49 $-1 #
coedge $-1 $129 $205 $77 $127 reversed $206 $-1 #
edge $-1 $207 -31.334195806199837 $208 31.334195806199837 $126 $209 forward 7 unknown #
coedge $-1 $79 $78 $125 $204 reversed $31 $-1 #
coedge $-1 $199 $126 $78 $130 forward $206 $-1 #
edge $-1 $207 -12.020829138518479 $134 12.020829138518479 $129 $210 forward 7 unknown #
coedge $-1 $211 $212 $79 $132 reversed $121 $-1 #
edge $-1 $213 -12.020829138518479 $135 12.020829138518479 $131 $214 forward 7 unknown #
coedge $-1 $198 $80 $212 $215 forward $75 $-1 #
vertex $-1 $130 $216 #
vertex $-1 $215 $217 #
straight-curve $-1 0 -31.334195806199837 -12.020829138518479 -1 0 0 I I #
face $-1 $218 $219 $19 $-1 $220 reversed single #
loop $-1 $-1 $88 $82 #
plane-surface $-1 -32.436837937195293 -36.357465771002857 0 1 0 0 0 0 -1 forward_v I I I I #
coedge $-1 $221 $222 $223 $224 forward $83 $-1 #
coedge $-1 $225 $85 $226 $227 forward $53 $-1 #
coedge $-1 $85 $225 $147 $228 forward $53 $-1 #
edge $-1 $149 -32.436837937195293 $229 -29.342539238756373 $85 $230 forward 7 unknown #
coedge $-1 $87 $86 $231 $232 forward $34 $-1 #
coedge $-1 $233 $234 $86 $146 forward $235 $-1 #
edge $-1 $236 29.342539238756373 $150 32.436837937195293 $145 $237 forward 7 unknown #
coedge $-1 $223 $88 $142 $228 reversed $138 $-1 #
coedge $-1 $88 $223 $233 $238 reversed $138 $-1 #
vertex $-1 $143 $239 #
vertex $-1 $238 $240 #
straight-curve $-1 -32.436837937195293 -31.334195806199837 0 0 0 1 I I #
face $-1 $241 $242 $20 $-1 $243 reversed single #
loop $-1 $-1 $158 $90 #
plane-surface $-1 0 0 12.020829138518479 0 0 1 1 0 0 forward_v I I I I #
coedge $-1 $244 $245 $160 $246 forward $91 $-1 #
coedge $-1 $161 $93 $244 $247 reversed $57 $-1 #
coedge $-1 $93 $161 $166 $248 reversed $57 $-1 #
coedge $-1 $249 $250 $93 $159 forward $153 $-1 #
edge $-1 $251 -53.384197515793332 $252 53.384197515793332 $158 $253 forward 7 unknown #
coedge $-1 $95 $94 $155 $246 reversed $37 $-1 #
coedge $-1 $157 $156 $94 $162 reversed $57 $-1 #
edge $-1 $168 -53.384197515793332 $254 53.384197515793332 $161 $255 forward 7 unknown #
coedge $-1 $256 $257 $95 $164 forward $242 $-1 #
edge $-1 $169 -53.384197515793332 $258 53.384197515793332 $163 $259 forward 7 unknown #
coedge $-1 $260 $96 $257 $261 reversed $167 $-1 #
coedge $-1 $96 $260 $157 $248 forward $167 $-1 #
loop $-1 $-1 $96 $241 #
vertex $-1 $97 $262 #
vertex $-1 $97 $263 #
straight-curve $-1 53.384197515793332 13.185183904391057 7.7779720774930059 0 1 0 I I #
face $-1 $-1 $264 $21 $-1 $265 reversed single #
loop $-1 $-1 $104 $98 #
plane-surface $-1 0 0 12.020829138518479 0 0 1 1 0 0 forward_v I I I I #
coedge $-1 $266 $267 $102 $180 forward $99 $-1 #
coedge $-1 $176 $101 $103 $181 reversed $61 $-1 #
coedge $-1 $101 $175 $268 $269 reversed $61 $-1 #
coedge $-1 $270 $104 $101 $178 forward $172 $-1 #
edge $-1 $184 21.369161854806052 $271 33.272065123362466 $177 $272 forward 7 unknown #
coedge $-1 $103 $102 $273 $274 reversed $40 $-1 #
edge $-1 $275 -76.359709271260328 $183 -60.821572445803476 $174 $276 forward 7 unknown #
edge $-1 $277 -106.76839503158666 $184 -91.230258206129804 $175 $278 forward 7 unknown #
coedge $-1 $104 $270 $266 $279 forward $172 $-1 #
vertex $-1 $105 $280 #
vertex $-1 $105 $281 #
straight-curve $-1 41.481294247236917 8.5491850517832226 12.020829138518486 0 -1 0 I I #
coedge $-1 $186 $186 $-1 $282 reversed $108 $-1 #
edge $-1 $283 0 $283 6.2831853071796004 $109 $284 forward 7 unknown #
vertex $-1 $112 $285 #
ellipse-curve $-1 47.432745881515125 15.252011657367326 7.0269681626300127 0.64278761758704617 0 0.76604443648966558 0.76604443648966558 0 -0.64278761758704617 1 I I #
coedge $-1 $190 $190 $-1 $286 reversed $115 $-1 #
edge $-1 $287 0 $287 6.2831853071796004 $116 $288 forward 7 unknown #
vertex $-1 $119 $289 #
ellipse-curve $-1 47.432745881515125 18.944728549765571 7.0269681626300127 0.64278761758704617 0 0.76604443648966558 0.76604443648966558 0 -0.64278761758704617 1 I I #
face $-1 $-1 $206 $18 $-1 $290 reversed single #
loop $-1 $-1 $291 $120 #
plane-surface $-1 0 31.334195806199837 0 0 -1 0 0 0 -1 forward_v I I I I #
coedge $-1 $212 $211 $292 $293 forward $121 $-1 #
coedge $-1 $123 $133 $294 $295 forward $75 $-1 #
coedge $-1 $205 $129 $123 $200 reversed $206 $-1 #
edge $-1 $296 -31.334195806199837 $134 31.334195806199837 $199 $297 forward 7 unknown #
coedge $-1 $125 $124 $211 $298 forward $49 $-1 #
coedge $-1 $291 $292 $124 $203 reversed $195 $-1 #
edge $-1 $208 -53.384197515793332 $299 53.384197515793332 $202 $300 forward 7 unknown #
edge $-1 $213 -53.384197515793332 $207 53.384197515793332 $128 $301 forward 7 unknown #
coedge $-1 $126 $199 $291 $302 reversed $206 $-1 #
loop $-1 $-1 $129 $194 #
vertex $-1 $127 $303 #
vertex $-1 $127 $304 #
straight-curve $-1 53.384197515793332 0 12.020829138518479 0 1 0 I I #
straight-curve $-1 53.384197515793332 -31.334195806199837 0 0 0 -1 I I #
coedge $-1 $197 $131 $201 $298 reversed $121 $-1 #
coedge $-1 $131 $197 $133 $215 reversed $121 $-1 #
vertex $-1 $298 $305 #
straight-curve $-1 -53.384197515793332 -31.334195806199837 0 0 0 -1 I I #
edge $-1 $135 -31.334195806199837 $306 31.334195806199837 $212 $307 forward 7 unknown #
point $-1 53.384197515793332 -31.334195806199837 -12.020829138518479 #
point $-1 -53.384197515793332 -31.334195806199837 -12.020829138518479 #
face $-1 $-1 $235 $19 $-1 $308 forward single #
loop $-1 $-1 $309 $137 #
plane-surface $-1 -29.342539238756373 -36.357465771002857 0 -1 0 0 0 0 1 forward_v I I I I #
coedge $-1 $310 $140 $225 $311 reversed $83 $-1 #
coedge $-1 $140 $310 $312 $313 reversed $83 $-1 #
coedge $-1 $148 $147 $140 $224 reversed $138 $-1 #
edge $-1 $314 -12.020829138518479 $315 12.020829138518479 $223 $316 forward 7 unknown #
coedge $-1 $142 $141 $221 $311 forward $53 $-1 #
coedge $-1 $231 $309 $141 $227 reversed $219 $-1 #
edge $-1 $229 -5.0232699648030206 $317 5.0232699648030206 $226 $318 forward 7 unknown #
edge $-1 $315 -5.0232699648030206 $149 5.0232699648030206 $147 $319 forward 7 unknown #
vertex $-1 $227 $320 #
straight-curve $-1 0 -31.334195806199837 -12.020829138518479 1 0 0 I I #
coedge $-1 $321 $226 $144 $232 reversed $219 $-1 #
edge $-1 $236 -12.020829138518479 $229 12.020829138518479 $231 $322 forward 7 unknown #
coedge $-1 $312 $145 $148 $238 forward $235 $-1 #
coedge $-1 $145 $312 $321 $323 forward $235 $-1 #
loop $-1 $-1 $145 $218 #
vertex $-1 $146 $324 #
straight-curve $-1 0 -31.334195806199837 12.020829138518479 -1 0 0 I I #
edge $-1 $150 -5.0232699648030206 $314 5.0232699648030206 $148 $325 forward 7 unknown #
point $-1 -32.436837937195293 -31.334195806199837 -12.020829138518479 #
point $-1 -32.436837937195293 -31.334195806199837 12.020829138518479 #
face $-1 $-1 $167 $20 $-1 $326 reversed single #
loop $-1 $-1 $163 $152 #
plane-surface $-1 0 31.334195806199837 0 0 -1 0 0 0 -1 forward_v I I I I #
coedge $-1 $327 $155 $156 $247 forward $91 $-1 #
coedge $-1 $155 $327 $256 $328 forward $91 $-1 #
edge $-1 $258 -18.149011901808777 $254 -8.2213559069733364 $155 $329 forward 7 unknown #
edge $-1 $254 2.828271773490135 $251 7.0711288345156067 $244 $330 forward 7 unknown #
edge $-1 $252 -7.0711288345156067 $168 -2.828271773490135 $166 $331 forward 7 unknown #
coedge $-1 $332 $158 $260 $333 forward $153 $-1 #
coedge $-1 $158 $332 $327 $334 forward $153 $-1 #
vertex $-1 $159 $335 #
vertex $-1 $333 $336 #
straight-curve $-1 0 21.406539811364393 12.020829138518479 1 0 0 I I #
vertex $-1 $246 $337 #
straight-curve $-1 0 21.406539811364393 7.7779720774930059 -1 0 0 I I #
coedge $-1 $338 $163 $245 $328 reversed $242 $-1 #
coedge $-1 $163 $338 $165 $261 forward $242 $-1 #
vertex $-1 $246 $339 #
straight-curve $-1 0 31.334195806199837 7.7779720774930059 -1 0 0 I I #
coedge $-1 $166 $165 $249 $333 reversed $167 $-1 #
edge $-1 $340 -12.020829138518479 $169 -7.7779720774930059 $165 $341 forward 7 unknown #
point $-1 53.384197515793332 21.406539811364393 7.7779720774930059 #
point $-1 53.384197515793332 31.334195806199833 7.7779720774930059 #
loop $-1 $-1 $342 $171 #
plane-surface $-1 53.384197515793332 0 0 -1 0 0 0 0 1 forward_v I I I I #
coedge $-1 $267 $174 $182 $279 reversed $99 $-1 #
coedge $-1 $174 $266 $342 $343 reversed $99 $-1 #
coedge $-1 $273 $344 $176 $269 forward $264 $-1 #
edge $-1 $271 64.205093096264292 $277 74.192815048041254 $268 $345 forward 7 unknown #
coedge $-1 $182 $177 $344 $346 forward $172 $-1 #
vertex $-1 $346 $347 #
straight-curve $-1 20.112132392430865 12.790200395768494 12.020829138518479 1 0 0 I I #
coedge $-1 $342 $268 $179 $274 forward $264 $-1 #
edge $-1 $277 4.2410153439852714 $275 12.857354759581174 $273 $348 forward 7 unknown #
vertex $-1 $343 $349 #
straight-curve $-1 -5.1107329434239741 21.406539811364393 51.116182788854431 -0.76604443648966558 0 0.64278761758704617 I I #
vertex $-1 $274 $350 #
straight-curve $-1 -28.405137491084474 12.790200395768494 70.662509462687723 -0.76604443648966558 0 0.64278761758704617 I I #
edge $-1 $351 -53.384197515793332 $183 -41.481294247236917 $182 $352 forward 7 unknown #
point $-1 41.481294247236917 21.406539811364393 12.020829138518479 #
point $-1 41.481294247236917 12.790200395768494 12.020829138518479 #
edge $-1 $353 1 $353 0 $186 $-1 forward 7 unknown #
vertex $-1 $187 $354 #
ellipse-curve $-1 46.212396905335645 15.252011657367326 5.5726129165108631 0.64278761758704617 0 0.76604443648966558 0.76604443648966558 0 -0.64278761758704617 1 I I #
point $-1 48.198790318004775 15.252011657367326 6.3841805450429492 #
edge $-1 $355 1 $355 0 $190 $-1 forward 7 unknown #
vertex $-1 $191 $356 #
ellipse-curve $-1 46.212396905335645 18.944728549765571 5.5726129165108631 0.64278761758704617 0 0.76604443648966558 0.76604443648966558 0 -0.64278761758704617 1 I I #
point $-1 48.198790318004775 18.944728549765571 6.3841805450429492 #
plane-surface $-1 53.384197515793332 0 0 -1 0 0 0 0 1 forward_v I I I I #
coedge $-1 $294 $202 $205 $302 forward $195 $-1 #
coedge $-1 $202 $294 $197 $293 reversed $195 $-1 #
edge $-1 $299 -12.020829138518479 $306 12.020829138518479 $292 $357 forward 7 unknown #
coedge $-1 $292 $291 $198 $295 reversed $195 $-1 #
edge $-1 $306 -53.384197515793332 $296 53.384197515793332 $294 $358 forward 7 unknown #
vertex $-1 $200 $359 #
straight-curve $-1 53.384197515793332 0 -12.020829138518479 0 -1 0 I I #
edge $-1 $299 -31.334195806199837 $213 31.334195806199837 $211 $360 forward 7 unknown #
vertex $-1 $203 $361 #
straight-curve $-1 0 31.334195806199837 12.020829138518479 -1 0 0 I I #
straight-curve $-1 0 -31.334195806199837 12.020829138518479 1 0 0 I I #
edge $-1 $208 -12.020829138518479 $296 12.020829138518479 $205 $362 forward 7 unknown #
point $-1 53.384197515793332 -31.334195806199837 12.020829138518479 #
point $-1 53.384197515793332 31.334195806199837 12.020829138518479 #
point $-1 -53.384197515793332 -31.334195806199837 12.020829138518479 #
vertex $-1 $295 $363 #
straight-curve $-1 -53.384197515793332 0 -12.020829138518479 0 1 0 I I #
plane-surface $-1 0 0 12.020829138518479 0 0 1 1 0 0 forward_v I I I I #
coedge $-1 $226 $321 $310 $364 forward $219 $-1 #
coedge $-1 $222 $221 $309 $364 reversed $83 $-1 #
edge $-1 $317 -1.5471493492194597 $315 1.5471493492194597 $221 $365 forward 7 unknown #
coedge $-1 $234 $233 $222 $313 forward $235 $-1 #
edge $-1 $314 -1.5471493492194597 $366 1.5471493492194597 $222 $367 forward 7 unknown #
vertex $-1 $238 $368 #
vertex $-1 $228 $369 #
straight-curve $-1 -32.436837937195293 -41.380735735805878 0 0 0 -1 I I #
vertex $-1 $364 $370 #
straight-curve $-1 -29.342539238756373 -36.357465771002857 -12.020829138518479 0 -1 0 I I #
straight-curve $-1 -32.436837937195293 -36.357465771002857 -12.020829138518479 0 1 0 I I #
point $-1 -29.342539238756373 -31.334195806199837 -12.020829138518479 #
coedge $-1 $309 $231 $234 $323 reversed $219 $-1 #
straight-curve $-1 -29.342539238756373 -31.334195806199837 0 0 0 -1 I I #
edge $-1 $366 -5.0232699648030206 $236 5.0232699648030206 $321 $371 forward 7 unknown #
point $-1 -29.342539238756373 -31.334195806199837 12.020829138518479 #
straight-curve $-1 -32.436837937195293 -36.357465771002857 12.020829138518479 0 -1 0 I I #
plane-surface $-1 53.384197515793332 0 0 -1 0 0 0 0 1 forward_v I I I I #
coedge $-1 $245 $244 $250 $334 reversed $91 $-1 #
edge $-1 $372 -12.020829138518479 $258 -7.7779720774930059 $256 $373 forward 7 unknown #
straight-curve $-1 -53.384197515793332 13.185183904391057 7.7779720774930059 0 -1 0 I I #
straight-curve $-1 -53.384197515793332 21.406539811364393 4.9497003040028709 0 0 1 I I #
straight-curve $-1 53.384197515793332 21.406539811364393 4.9497003040028709 0 0 -1 I I #
coedge $-1 $250 $249 $338 $374 forward $153 $-1 #
edge $-1 $252 21.406539811364393 $340 31.334195806199837 $260 $375 forward 7 unknown #
edge $-1 $372 -31.334195806199837 $251 -21.406539811364393 $327 $376 forward 7 unknown #
point $-1 -53.384197515793332 21.406539811364393 12.020829138518478 #
point $-1 53.384197515793332 21.406539811364393 12.020829138518478 #
point $-1 -53.384197515793332 21.406539811364393 7.7779720774930059 #
coedge $-1 $257 $256 $332 $374 reversed $242 $-1 #
point $-1 -53.384197515793332 31.334195806199833 7.7779720774930059 #
vertex $-1 $333 $377 #
straight-curve $-1 53.384197515793332 31.334195806199837 0 0 0 -1 I I #
coedge $-1 $344 $273 $267 $343 forward $264 $-1 #
edge $-1 $275 -74.192815048041254 $351 -64.205093096264292 $342 $378 forward 7 unknown #
coedge $-1 $268 $342 $270 $346 reversed $264 $-1 #
straight-curve $-1 53.384197515793332 12.790200395768494 76.225922234782772 0 0 -1 I I #
edge $-1 $271 12.790200395768494 $351 21.406539811364393 $344 $379 forward 7 unknown #
point $-1 53.384197515793332 12.790200395768494 12.020829138518479 #
straight-curve $-1 53.384197515793318 8.5491850517832226 2.0331071867415318 0 1 0 I I #
point $-1 53.384197515793332 21.406539811364397 2.0331071867415176 #
point $-1 53.384197515793332 12.790200395768494 2.0331071867415176 #
vertex $-1 $279 $380 #
straight-curve $-1 0 21.406539811364393 12.020829138518479 -1 0 0 I I #
vertex $-1 $282 $381 #
point $-1 46.97844134182531 15.252011657367326 4.9298252989238174 #
vertex $-1 $286 $382 #
point $-1 46.97844134182531 18.944728549765571 4.9298252989238174 #
straight-curve $-1 -53.384197515793332 31.334195806199837 0 0 0 -1 I I #
straight-curve $-1 0 31.334195806199837 -12.020829138518479 1 0 0 I I #
point $-1 53.384197515793332 31.334195806199837 -12.020829138518479 #
straight-curve $-1 -53.384197515793332 0 12.020829138518479 0 -1 0 I I #
point $-1 -53.384197515793332 31.334195806199837 12.020829138518479 #
straight-curve $-1 53.384197515793332 31.334195806199837 0 0 0 -1 I I #
point $-1 -53.384197515793332 31.334195806199837 -12.020829138518479 #
edge $-1 $366 -12.020829138518479 $317 12.020829138518479 $309 $383 forward 7 unknown #
straight-curve $-1 -30.889688587975833 -41.380735735805878 -12.020829138518479 -1 0 0 I I #
vertex $-1 $323 $384 #
straight-curve $-1 -30.889688587975833 -41.380735735805878 12.020829138518479 1 0 0 I I #
point $-1 -32.436837937195293 -41.380735735805878 12.020829138518479 #
point $-1 -32.436837937195293 -41.380735735805878 -12.020829138518479 #
point $-1 -29.342539238756373 -41.380735735805878 -12.020829138518479 #
straight-curve $-1 -29.342539238756373 -36.357465771002857 12.020829138518479 0 1 0 I I #
vertex $-1 $374 $385 #
straight-curve $-1 -53.384197515793332 31.334195806199837 0 0 0 -1 I I #
edge $-1 $340 -53.384197515793332 $372 53.384197515793332 $338 $386 forward 7 unknown #
straight-curve $-1 53.384197515793332 0 12.020829138518479 0 1 0 I I #
straight-curve $-1 -53.384197515793332 0 12.020829138518479 0 -1 0 I I #
point $-1 53.384197515793332 31.334195806199837 12.020829138518479 #
straight-curve $-1 53.384197515793332 21.406539811364397 76.225922234782772 0 0 1 I I #
straight-curve $-1 53.384197515793332 0 12.020829138518479 0 1 0 I I #
point $-1 53.384197515793332 21.406539811364393 12.020829138518478 #
point $-1 45.569609287748598 15.252011657367326 4.8065684800211983 #
point $-1 45.569609287748598 18.944728549765571 4.8065684800211983 #
straight-curve $-1 -29.342539238756373 -41.380735735805878 0 0 0 -1 I I #
point $-1 -29.342539238756373 -41.380735735805878 12.020829138518479 #
point $-1 -53.384197515793332 31.334195806199837 12.020829138518479 #
straight-curve $-1 0 31.334195806199837 12.020829138518479 -1 0 0 I I #
End-of-ACIS-data 