500 0 13 0           
7 Unknown 11 ACIS 5.0 NT 24 Thu Mar 25 17:43:51 1999 
-1 9.9999999999999995e-007 1e-010 
body $-1 $13 $-1 $14 #
body $-1 $15 $-1 $16 #
body $-1 $17 $-1 $18 #
body $-1 $19 $-1 $20 #
body $-1 $21 $-1 $22 #
body $-1 $23 $-1 $24 #
body $-1 $25 $-1 $26 #
body $-1 $27 $-1 $28 #
body $-1 $29 $-1 $30 #
body $-1 $31 $-1 $32 #
body $-1 $33 $-1 $34 #
body $-1 $35 $-1 $36 #
body $-1 $37 $-1 $38 #
lump $-1 $-1 $39 $0 #
transform $-1 1 0 0 0 1 0 0 0 1 55.475325785088657 38.403038493476501 13.031272450980147 1 rotate no_reflect no_shear #
lump $-1 $-1 $40 $1 #
transform $-1 1 0 0 0 1 0 0 0 1 55.475325785088657 38.403038493476501 13.031272450980147 1 rotate no_reflect no_shear #
lump $-1 $-1 $41 $2 #
transform $-1 1 0 0 0 1 0 0 0 1 55.475325785088657 38.403038493476501 13.031272450980147 1 rotate no_reflect no_shear #
lump $-1 $-1 $42 $3 #
transform $-1 1 0 0 0 1 0 0 0 1 55.475325785088657 38.403038493476501 13.031272450980147 1 rotate no_reflect no_shear #
lump $-1 $-1 $43 $4 #
transform $-1 1 0 0 0 1 0 0 0 1 55.475325785088657 38.403038493476501 13.031272450980147 1 rotate no_reflect no_shear #
lump $-1 $-1 $44 $5 #
transform $-1 1 0 0 0 1 0 0 0 1 55.475325785088657 38.403038493476501 13.031272450980147 1 rotate no_reflect no_shear #
lump $-1 $-1 $45 $6 #
transform $-1 1 0 0 0 1 0 0 0 1 55.475325785088657 38.403038493476501 13.031272450980147 1 rotate no_reflect no_shear #
lump $-1 $-1 $46 $7 #
transform $-1 1 0 0 0 1 0 0 0 1 55.475325785088657 38.403038493476501 13.031272450980147 1 rotate no_reflect no_shear #
lump $-1 $-1 $47 $8 #
transform $-1 1 0 0 0 1 0 0 0 1 55.475325785088657 38.403038493476501 13.031272450980147 1 rotate no_reflect no_shear #
lump $-1 $-1 $48 $9 #
transform $-1 1 0 0 0 1 0 0 0 1 55.475325785088657 38.403038493476501 13.031272450980147 1 rotate no_reflect no_shear #
lump $-1 $-1 $49 $10 #
transform $-1 1 0 0 0 1 0 0 0 1 55.475325785088657 38.403038493476501 13.031272450980147 1 rotate no_reflect no_shear #
lump $-1 $-1 $50 $11 #
transform $-1 1 0 0 0 1 0 0 0 1 55.475325785088657 38.403038493476501 13.031272450980147 1 rotate no_reflect no_shear #
lump $-1 $-1 $51 $12 #
transform $-1 1 0 0 0 1 0 0 0 1 55.475325785088657 38.403038493476501 13.031272450980147 1 rotate no_reflect no_shear #
shell $-1 $-1 $-1 $52 $-1 $13 #
shell $-1 $-1 $-1 $53 $-1 $15 #
shell $-1 $-1 $-1 $54 $-1 $17 #
shell $-1 $-1 $-1 $55 $-1 $19 #
shell $-1 $-1 $-1 $56 $-1 $21 #
shell $-1 $-1 $-1 $57 $-1 $23 #
shell $-1 $-1 $-1 $58 $-1 $25 #
shell $-1 $-1 $-1 $59 $-1 $27 #
shell $-1 $-1 $-1 $60 $-1 $29 #
shell $-1 $-1 $-1 $61 $-1 $31 #
shell $-1 $-1 $-1 $62 $-1 $33 #
shell $-1 $-1 $-1 $63 $-1 $35 #
shell $-1 $-1 $-1 $64 $-1 $37 #
face $-1 $65 $66 $39 $-1 $67 forward single #
face $-1 $68 $69 $40 $-1 $70 forward single #
face $-1 $71 $72 $41 $-1 $73 reversed single #
face $-1 $74 $75 $42 $-1 $76 forward single #
face $-1 $77 $78 $43 $-1 $79 forward single #
face $-1 $80 $81 $44 $-1 $82 forward single #
face $-1 $83 $84 $45 $-1 $85 reversed single #
face $-1 $86 $87 $46 $-1 $88 forward single #
face $-1 $89 $90 $47 $-1 $91 forward single #
face $-1 $92 $93 $48 $-1 $94 forward single #
face $-1 $95 $96 $49 $-1 $97 reversed single #
face $-1 $98 $99 $50 $-1 $100 forward single #
face $-1 $101 $102 $51 $-1 $103 forward single #
face $-1 $104 $105 $39 $-1 $106 reversed single #
loop $-1 $-1 $107 $52 #
plane-surface $-1 0 0 13.031272450980147 0 0 1 1 0 0 forward_v I I I I #
face $-1 $108 $109 $40 $-1 $110 reversed single #
loop $-1 $-1 $111 $53 #
plane-surface $-1 -55.475325785088657 0 0 1 0 0 0 0 -1 forward_v I I I I #
face $-1 $112 $113 $41 $-1 $114 reversed single #
loop $-1 $-1 $115 $54 #
plane-surface $-1 -37.723016756223565 29.711191876101992 139.86324672088543 1 0 0 0 -0.51503808176128008 -0.85716729658548041 forward_v I I I I #
face $-1 $116 $117 $42 $-1 $118 forward single #
loop $-1 $119 $120 $55 #
cone-surface $-1 -33.357923402348824 31.029515136289682 7.6879633155121372 0 -0.51503808176128008 -0.85716729658548041 1 0 0 1 I I 0 1 1 forward I I I I #
face $-1 $121 $122 $43 $-1 $123 forward single #
loop $-1 $124 $125 $56 #
cone-surface $-1 -26.810283371536716 31.029515136289682 7.6879633155121372 0 -0.51503808176128008 -0.85716729658548041 1 0 0 1 I I 0 1 1 forward I I I I #
face $-1 $126 $127 $44 $-1 $128 forward single #
loop $-1 $129 $130 $57 #
cone-surface $-1 -20.262643340724608 31.029515136289682 7.6879633155121372 0 -0.51503808176128008 -0.85716729658548041 1 0 0 1 I I 0 1 1 forward I I I I #
face $-1 $131 $132 $45 $-1 $133 reversed single #
loop $-1 $-1 $134 $58 #
plane-surface $-1 10.77785604523508 29.711191876101992 139.86324672088543 1 0 0 0 -0.51503808176128008 -0.85716729658548041 forward_v I I I I #
face $-1 $135 $136 $46 $-1 $137 forward single #
loop $-1 $138 $139 $59 #
cone-surface $-1 15.142949399109824 31.029515136289682 7.6879633155121372 0 -0.51503808176128008 -0.85716729658548041 1 0 0 1 I I 0 1 1 forward I I I I #
face $-1 $140 $141 $47 $-1 $142 forward single #
loop $-1 $143 $144 $60 #
cone-surface $-1 21.690589429921928 31.029515136289682 7.6879633155121372 0 -0.51503808176128008 -0.85716729658548041 1 0 0 1 I I 0 1 1 forward I I I I #
face $-1 $145 $146 $48 $-1 $147 forward single #
loop $-1 $148 $149 $61 #
cone-surface $-1 28.238229460734047 31.029515136289682 7.6879633155121372 0 -0.51503808176128008 -0.85716729658548041 1 0 0 1 I I 0 1 1 forward I I I I #
face $-1 $150 $151 $49 $-1 $152 reversed single #
loop $-1 $-1 $153 $62 #
plane-surface $-1 -24.524249172934844 -135.44266572271317 56.610710927192606 -1 0 0 0 -0.87461971476443456 0.48480960649040278 forward_v I I I I #
face $-1 $154 $155 $50 $-1 $156 forward single #
loop $-1 $157 $158 $63 #
cone-surface $-1 -36.66865677643041 -34.549156088655891 7.3584109697593867 0 0.87461971476443456 -0.48480960649040278 1.5 0 0 1 I I 0 1 1.5 forward I I I I #
face $-1 $159 $160 $51 $-1 $161 forward single #
loop $-1 $162 $163 $64 #
cone-surface $-1 -29.38201221433307 -34.549156088655891 7.3584109697593867 0 0.87461971476443456 -0.48480960649040278 1.5 0 0 1 I I 0 1 1.5 forward I I I I #
face $-1 $164 $165 $39 $-1 $166 reversed single #
loop $-1 $-1 $167 $65 #
plane-surface $-1 0 0 -13.031272450980147 0 0 1 1 0 0 forward_v I I I I #
coedge $-1 $168 $169 $170 $171 forward $66 $-1 #
face $-1 $172 $173 $40 $-1 $174 reversed single #
loop $-1 $-1 $175 $68 #
plane-surface $-1 0 38.403038493476501 0 0 -1 0 0 0 -1 forward_v I I I I #
coedge $-1 $176 $177 $178 $179 forward $69 $-1 #
face $-1 $180 $181 $41 $-1 $182 reversed single #
loop $-1 $-1 $183 $71 #
plane-surface $-1 -26.810283371536716 -27.432618878766291 44.759976660078948 0 0.51503808176128008 0.85716729658548041 1 0 0 forward_v I I I I #
coedge $-1 $184 $185 $186 $187 reversed $72 $-1 #
face $-1 $-1 $188 $42 $-1 $189 forward single #
loop $-1 $190 $191 $74 #
cone-surface $-1 -33.357923402348824 29.913586193978091 5.8307457066867094 0 -0.51503808176128008 -0.85716729658548041 0.5 0 0 1 I I -0.70710678118654746 0.70710678118654746 0.5 forward I I I I #
loop $-1 $-1 $192 $55 #
coedge $-1 $120 $120 $193 $194 reversed $75 $-1 #
face $-1 $-1 $195 $43 $-1 $196 forward single #
loop $-1 $197 $198 $77 #
cone-surface $-1 -26.810283371536716 29.913586193978091 5.8307457066867094 0 -0.51503808176128008 -0.85716729658548041 0.5 0 0 1 I I -0.70710678118654746 0.70710678118654746 0.5 forward I I I I #
loop $-1 $-1 $199 $56 #
coedge $-1 $125 $125 $200 $201 reversed $78 $-1 #
face $-1 $-1 $202 $44 $-1 $203 forward single #
loop $-1 $204 $205 $80 #
cone-surface $-1 -20.262643340724608 29.913586193978091 5.8307457066867094 0 -0.51503808176128008 -0.85716729658548041 0.5 0 0 1 I I -0.70710678118654746 0.70710678118654746 0.5 forward I I I I #
loop $-1 $-1 $206 $57 #
coedge $-1 $130 $130 $207 $208 reversed $81 $-1 #
face $-1 $209 $210 $45 $-1 $211 reversed single #
loop $-1 $-1 $212 $83 #
plane-surface $-1 21.690589429921928 -27.432618878766291 44.759976660078948 0 0.51503808176128008 0.85716729658548041 1 0 0 forward_v I I I I #
coedge $-1 $213 $214 $215 $216 reversed $84 $-1 #
face $-1 $-1 $217 $46 $-1 $218 forward single #
loop $-1 $219 $220 $86 #
cone-surface $-1 15.142949399109824 29.913586193978091 5.8307457066867094 0 -0.51503808176128008 -0.85716729658548041 0.5 0 0 1 I I -0.70710678118654746 0.70710678118654746 0.5 forward I I I I #
loop $-1 $-1 $221 $59 #
coedge $-1 $139 $139 $222 $223 reversed $87 $-1 #
face $-1 $-1 $224 $47 $-1 $225 forward single #
loop $-1 $226 $227 $89 #
cone-surface $-1 21.690589429921928 29.913586193978091 5.8307457066867094 0 -0.51503808176128008 -0.85716729658548041 0.5 0 0 1 I I -0.70710678118654746 0.70710678118654746 0.5 forward I I I I #
loop $-1 $-1 $228 $60 #
coedge $-1 $144 $144 $229 $230 reversed $90 $-1 #
face $-1 $-1 $231 $48 $-1 $232 forward single #
loop $-1 $233 $234 $92 #
cone-surface $-1 28.238229460734047 29.913586193978091 5.8307457066867094 0 -0.51503808176128008 -0.85716729658548041 0.5 0 0 1 I I -0.70710678118654746 0.70710678118654746 0.5 forward I I I I #
loop $-1 $-1 $235 $61 #
coedge $-1 $149 $149 $236 $237 reversed $93 $-1 #
face $-1 $238 $239 $49 $-1 $240 reversed single #
loop $-1 $-1 $241 $95 #
plane-surface $-1 -33.025334495381742 -38.403038493476529 2.8207691996011519 0 -0.87461971476443456 0.48480960649040278 1 0 0 forward_v I I I I #
coedge $-1 $242 $243 $244 $245 reversed $96 $-1 #
face $-1 $-1 $246 $50 $-1 $247 forward single #
loop $-1 $248 $249 $98 #
cone-surface $-1 -36.66865677643041 -32.869195978859409 6.4271939093603194 0 0.87461971476443456 -0.48480960649040278 0.75 0 0 1 I I -0.70710678118654757 0.70710678118654757 0.75 forward I I I I #
loop $-1 $-1 $250 $63 #
coedge $-1 $158 $158 $251 $252 reversed $99 $-1 #
face $-1 $-1 $253 $51 $-1 $254 forward single #
loop $-1 $255 $256 $101 #
cone-surface $-1 -29.38201221433307 -32.869195978859409 6.4271939093603194 0 0.87461971476443456 -0.48480960649040278 0.75 0 0 1 I I -0.70710678118654757 0.70710678118654757 0.75 forward I I I I #
loop $-1 $-1 $257 $64 #
coedge $-1 $163 $163 $258 $259 reversed $102 $-1 #
face $-1 $260 $261 $39 $-1 $262 reversed single #
loop $-1 $-1 $263 $104 #
plane-surface $-1 0 -38.403038493476501 0 0 1 0 0 0 1 forward_v I I I I #
coedge $-1 $264 $265 $266 $267 forward $105 $-1 #
coedge $-1 $268 $107 $269 $270 forward $66 $-1 #
coedge $-1 $107 $268 $271 $272 forward $66 $-1 #
coedge $-1 $273 $274 $107 $171 reversed $275 $-1 #
edge $-1 $276 -38.403038493476501 $277 38.403038493476501 $170 $278 forward 7 unknown #
face $-1 $279 $280 $40 $-1 $281 reversed single #
loop $-1 $-1 $178 $108 #
plane-surface $-1 -62.449778768718666 0 9.4431885157027935 0 0 1 1 0 0 forward_v I I I I #
coedge $-1 $282 $283 $176 $284 forward $109 $-1 #
coedge $-1 $285 $111 $175 $284 reversed $69 $-1 #
coedge $-1 $111 $285 $286 $287 reversed $69 $-1 #
coedge $-1 $288 $289 $111 $179 reversed $173 $-1 #
edge $-1 $290 -38.403038493476501 $291 38.403038493476501 $178 $292 forward 7 unknown #
face $-1 $293 $294 $41 $-1 $295 forward single #
loop $-1 $-1 $296 $112 #
plane-surface $-1 -15.897549986849867 29.711191876101992 139.86324672088543 -1 0 0 0 0.51503808176128008 0.85716729658548041 forward_v I I I I #
coedge $-1 $297 $298 $299 $300 reversed $113 $-1 #
coedge $-1 $185 $115 $301 $302 reversed $72 $-1 #
coedge $-1 $115 $184 $297 $303 reversed $72 $-1 #
coedge $-1 $299 $304 $115 $187 forward $294 $-1 #
edge $-1 $305 -23.547442555425505 $306 -10.51721564391373 $186 $307 forward 7 unknown #
loop $-1 $-1 $193 $116 #
plane-surface $-1 -26.810283371536716 -27.432618878766291 44.759976660078948 0 0.51503808176128008 0.85716729658548041 1 0 0 forward_v I I I I #
loop $-1 $-1 $308 $74 #
coedge $-1 $191 $191 $192 $309 reversed $117 $-1 #
coedge $-1 $192 $192 $191 $309 forward $119 $-1 #
coedge $-1 $193 $193 $120 $194 forward $188 $-1 #
edge $-1 $310 -2.1434828125947534e-015 $310 6.2831853071795987 $193 $311 forward 7 unknown #
loop $-1 $-1 $200 $121 #
plane-surface $-1 -26.810283371536716 -27.432618878766291 44.759976660078948 0 0.51503808176128008 0.85716729658548041 1 0 0 forward_v I I I I #
loop $-1 $-1 $312 $77 #
coedge $-1 $198 $198 $199 $313 reversed $122 $-1 #
coedge $-1 $199 $199 $198 $313 forward $124 $-1 #
coedge $-1 $200 $200 $125 $201 forward $195 $-1 #
edge $-1 $314 -2.1434828125947534e-015 $314 6.2831853071795987 $200 $315 forward 7 unknown #
loop $-1 $-1 $207 $126 #
plane-surface $-1 -26.810283371536716 -27.432618878766291 44.759976660078948 0 0.51503808176128008 0.85716729658548041 1 0 0 forward_v I I I I #
loop $-1 $-1 $316 $80 #
coedge $-1 $205 $205 $206 $317 reversed $127 $-1 #
coedge $-1 $206 $206 $205 $317 forward $129 $-1 #
coedge $-1 $207 $207 $130 $208 forward $202 $-1 #
edge $-1 $318 -2.1434828125947534e-015 $318 6.2831853071795987 $207 $319 forward 7 unknown #
face $-1 $320 $321 $45 $-1 $322 forward single #
loop $-1 $-1 $323 $131 #
plane-surface $-1 32.603322814608774 29.711191876101992 139.86324672088543 -1 0 0 0 0.51503808176128008 0.85716729658548041 forward_v I I I I #
coedge $-1 $324 $325 $326 $327 reversed $132 $-1 #
coedge $-1 $214 $134 $328 $329 reversed $84 $-1 #
coedge $-1 $134 $213 $324 $330 reversed $84 $-1 #
coedge $-1 $326 $331 $134 $216 forward $321 $-1 #
edge $-1 $332 -23.547442555425505 $333 -10.51721564391373 $215 $334 forward 7 unknown #
loop $-1 $-1 $222 $135 #
plane-surface $-1 21.690589429921928 -27.432618878766291 44.759976660078948 0 0.51503808176128008 0.85716729658548041 1 0 0 forward_v I I I I #
loop $-1 $-1 $335 $86 #
coedge $-1 $220 $220 $221 $336 reversed $136 $-1 #
coedge $-1 $221 $221 $220 $336 forward $138 $-1 #
coedge $-1 $222 $222 $139 $223 forward $217 $-1 #
edge $-1 $337 -2.1434828125947534e-015 $337 6.2831853071795987 $222 $338 forward 7 unknown #
loop $-1 $-1 $229 $140 #
plane-surface $-1 21.690589429921928 -27.432618878766291 44.759976660078948 0 0.51503808176128008 0.85716729658548041 1 0 0 forward_v I I I I #
loop $-1 $-1 $339 $89 #
coedge $-1 $227 $227 $228 $340 reversed $141 $-1 #
coedge $-1 $228 $228 $227 $340 forward $143 $-1 #
coedge $-1 $229 $229 $144 $230 forward $224 $-1 #
edge $-1 $341 -2.1434828125947534e-015 $341 6.2831853071795987 $229 $342 forward 7 unknown #
loop $-1 $-1 $236 $145 #
plane-surface $-1 21.690589429921928 -27.432618878766291 44.759976660078948 0 0.51503808176128008 0.85716729658548041 1 0 0 forward_v I I I I #
loop $-1 $-1 $343 $92 #
coedge $-1 $234 $234 $235 $344 reversed $146 $-1 #
coedge $-1 $235 $235 $234 $344 forward $148 $-1 #
coedge $-1 $236 $236 $149 $237 forward $231 $-1 #
edge $-1 $345 -2.1434828125947534e-015 $345 6.2831853071795987 $236 $346 forward 7 unknown #
face $-1 $347 $348 $49 $-1 $349 reversed single #
loop $-1 $-1 $350 $150 #
plane-surface $-1 -41.526419817828639 -135.44266572271317 56.610710927192606 1 0 0 0 0.87461971476443456 -0.48480960649040278 forward_v I I I I #
coedge $-1 $351 $352 $353 $354 reversed $151 $-1 #
coedge $-1 $243 $153 $355 $356 reversed $96 $-1 #
coedge $-1 $153 $242 $351 $357 reversed $96 $-1 #
coedge $-1 $353 $358 $153 $245 forward $359 $-1 #
edge $-1 $360 29.318294367880085 $361 34.978068530074964 $244 $362 forward 7 unknown #
loop $-1 $-1 $251 $154 #
plane-surface $-1 -33.025334495381742 -38.403038493476529 2.8207691996011519 0 -0.87461971476443456 0.48480960649040278 1 0 0 forward_v I I I I #
loop $-1 $-1 $363 $98 #
coedge $-1 $249 $249 $250 $364 reversed $155 $-1 #
coedge $-1 $250 $250 $249 $364 forward $157 $-1 #
coedge $-1 $251 $251 $158 $252 forward $246 $-1 #
edge $-1 $365 6.7501203358497052e-016 $365 6.2831853071796013 $251 $366 forward 7 unknown #
loop $-1 $-1 $258 $159 #
plane-surface $-1 -33.025334495381742 -38.403038493476529 2.8207691996011519 0 -0.87461971476443456 0.48480960649040278 1 0 0 forward_v I I I I #
loop $-1 $-1 $367 $101 #
coedge $-1 $256 $256 $257 $368 reversed $160 $-1 #
coedge $-1 $257 $257 $256 $368 forward $162 $-1 #
coedge $-1 $258 $258 $163 $259 forward $253 $-1 #
edge $-1 $369 6.7501203358497052e-016 $369 6.2831853071796013 $258 $370 forward 7 unknown #
face $-1 $371 $372 $39 $-1 $373 reversed single #
loop $-1 $-1 $374 $164 #
plane-surface $-1 -55.475325785088657 0 0 1 0 0 0 0 -1 forward_v I I I I #
coedge $-1 $375 $271 $376 $377 forward $165 $-1 #
coedge $-1 $378 $167 $375 $379 forward $105 $-1 #
coedge $-1 $167 $378 $380 $381 forward $105 $-1 #
coedge $-1 $274 $273 $167 $267 reversed $275 $-1 #
edge $-1 $382 -38.403038493476501 $383 38.403038493476501 $266 $384 forward 7 unknown #
coedge $-1 $169 $168 $385 $386 forward $66 $-1 #
coedge $-1 $387 $388 $168 $270 reversed $372 $-1 #
edge $-1 $277 -55.475325785088657 $389 55.475325785088657 $269 $390 forward 7 unknown #
coedge $-1 $263 $391 $169 $272 reversed $165 $-1 #
edge $-1 $392 -55.475325785088657 $276 55.475325785088657 $271 $393 forward 7 unknown #
coedge $-1 $266 $170 $391 $394 forward $275 $-1 #
coedge $-1 $170 $266 $387 $395 reversed $275 $-1 #
loop $-1 $-1 $273 $371 #
vertex $-1 $171 $396 #
vertex $-1 $171 $397 #
straight-curve $-1 55.475325785088657 0 13.031272450980147 0 1 0 I I #
face $-1 $398 $399 $40 $-1 $400 forward single #
loop $-1 $-1 $401 $172 #
plane-surface $-1 -69.424231752348675 0 11.23723048334147 1 0 0 0 0 -1 forward_v I I I I #
coedge $-1 $402 $175 $289 $403 reversed $109 $-1 #
coedge $-1 $175 $402 $404 $405 reversed $109 $-1 #
edge $-1 $406 -13.031272450980147 $291 -9.4431885157027935 $175 $407 forward 7 unknown #
coedge $-1 $177 $176 $408 $409 reversed $69 $-1 #
coedge $-1 $410 $411 $177 $287 forward $412 $-1 #
edge $-1 $290 9.4431885157027935 $413 13.031272450980147 $286 $414 forward 7 unknown #
coedge $-1 $415 $178 $411 $416 forward $173 $-1 #
coedge $-1 $178 $415 $282 $403 forward $173 $-1 #
vertex $-1 $287 $417 #
vertex $-1 $284 $418 #
straight-curve $-1 -55.475325785088657 0 9.4431885157027935 0 1 0 I I #
face $-1 $-1 $419 $41 $-1 $420 reversed single #
loop $-1 $-1 $186 $180 #
plane-surface $-1 0 0 13.031272450980147 0 0 1 1 0 0 forward_v I I I I #
coedge $-1 $421 $422 $423 $424 reversed $181 $-1 #
coedge $-1 $425 $183 $185 $303 forward $113 $-1 #
coedge $-1 $183 $425 $421 $426 forward $113 $-1 #
coedge $-1 $423 $186 $183 $300 forward $294 $-1 #
edge $-1 $306 -24.317875070455209 $427 -2.4924083010815092 $299 $428 forward 7 unknown #
coedge $-1 $429 $430 $184 $302 forward $419 $-1 #
edge $-1 $431 -64.72970125933324 $305 -56.900350909462567 $301 $432 forward 7 unknown #
edge $-1 $306 61.604579025682682 $431 76.806076986953002 $185 $433 forward 7 unknown #
coedge $-1 $186 $423 $429 $434 forward $294 $-1 #
vertex $-1 $302 $435 #
vertex $-1 $187 $436 #
straight-curve $-1 -37.723016756223565 14.855595938050996 13.031272450980147 0 -1 0 I I #
coedge $-1 $308 $308 $-1 $437 reversed $190 $-1 #
edge $-1 $438 0 $438 6.2831853071796004 $191 $439 forward 7 unknown #
vertex $-1 $194 $440 #
ellipse-curve $-1 -33.357923402348824 31.88792503772062 9.1165972760448071 0 0.51503808176128008 0.85716729658548041 1 0 0 1 I I #
coedge $-1 $312 $312 $-1 $441 reversed $197 $-1 #
edge $-1 $442 0 $442 6.2831853071796004 $198 $443 forward 7 unknown #
vertex $-1 $201 $444 #
ellipse-curve $-1 -26.810283371536716 31.88792503772062 9.1165972760448071 0 0.51503808176128008 0.85716729658548041 1 0 0 1 I I #
coedge $-1 $316 $316 $-1 $445 reversed $204 $-1 #
edge $-1 $446 0 $446 6.2831853071796004 $205 $447 forward 7 unknown #
vertex $-1 $208 $448 #
ellipse-curve $-1 -20.262643340724608 31.88792503772062 9.1165972760448071 0 0.51503808176128008 0.85716729658548041 1 0 0 1 I I #
face $-1 $-1 $449 $45 $-1 $450 reversed single #
loop $-1 $-1 $215 $209 #
plane-surface $-1 0 0 13.031272450980147 0 0 1 1 0 0 forward_v I I I I #
coedge $-1 $451 $452 $453 $454 reversed $210 $-1 #
coedge $-1 $455 $212 $214 $330 forward $132 $-1 #
coedge $-1 $212 $455 $451 $456 forward $132 $-1 #
coedge $-1 $453 $215 $212 $327 forward $321 $-1 #
edge $-1 $333 -0.067438669725884637 $457 21.758028099647809 $326 $458 forward 7 unknown #
coedge $-1 $459 $460 $213 $329 forward $449 $-1 #
edge $-1 $461 -64.72970125933324 $332 -56.900350909462567 $328 $462 forward 7 unknown #
edge $-1 $333 61.604579025682682 $461 76.806076986953002 $214 $463 forward 7 unknown #
coedge $-1 $215 $453 $459 $464 forward $321 $-1 #
vertex $-1 $216 $465 #
vertex $-1 $216 $466 #
straight-curve $-1 10.77785604523508 14.855595938050996 13.031272450980147 0 -1 0 I I #
coedge $-1 $335 $335 $-1 $467 reversed $219 $-1 #
edge $-1 $468 0 $468 6.2831853071796004 $220 $469 forward 7 unknown #
vertex $-1 $223 $470 #
ellipse-curve $-1 15.142949399109824 31.88792503772062 9.1165972760448071 0 0.51503808176128008 0.85716729658548041 1 0 0 1 I I #
coedge $-1 $339 $339 $-1 $471 reversed $226 $-1 #
edge $-1 $472 0 $472 6.2831853071796004 $227 $473 forward 7 unknown #
vertex $-1 $230 $474 #
ellipse-curve $-1 21.690589429921928 31.88792503772062 9.1165972760448071 0 0.51503808176128008 0.85716729658548041 1 0 0 1 I I #
coedge $-1 $343 $343 $-1 $475 reversed $233 $-1 #
edge $-1 $476 0 $476 6.2831853071796004 $234 $477 forward 7 unknown #
vertex $-1 $237 $478 #
ellipse-curve $-1 28.238229460734047 31.88792503772062 9.1165972760448071 0 0.51503808176128008 0.85716729658548041 1 0 0 1 I I #
face $-1 $-1 $359 $49 $-1 $479 forward single #
loop $-1 $-1 $480 $238 #
plane-surface $-1 0 -38.403038493476501 0 0 1 0 0 0 1 forward_v I I I I #
coedge $-1 $481 $482 $483 $484 reversed $239 $-1 #
coedge $-1 $485 $241 $243 $357 forward $151 $-1 #
coedge $-1 $241 $485 $481 $486 forward $151 $-1 #
coedge $-1 $483 $244 $241 $354 forward $359 $-1 #
edge $-1 $361 8.0115819252439735 $487 25.013752570137768 $353 $488 forward 7 unknown #
coedge $-1 $489 $490 $242 $356 forward $348 $-1 #
edge $-1 $491 -25.484586263995102 $360 -15.274083012616156 $355 $492 forward 7 unknown #
edge $-1 $361 -11.67422032572069 $491 -5.8446173240376603e-014 $243 $493 forward 7 unknown #
coedge $-1 $244 $483 $489 $494 forward $359 $-1 #
loop $-1 $-1 $483 $347 #
vertex $-1 $356 $495 #
vertex $-1 $245 $496 #
straight-curve $-1 -24.524249172934844 -67.721332861356586 13.031272450980147 0 1 0 I I #
coedge $-1 $363 $363 $-1 $497 reversed $248 $-1 #
edge $-1 $498 0 $498 6.2831853071796004 $249 $499 forward 7 unknown #
vertex $-1 $252 $500 #
ellipse-curve $-1 -36.66865677643041 -35.573151412379069 7.9260208252906619 0 -0.87461971476443456 0.48480960649040278 1.5 0 0 1 I I #
coedge $-1 $367 $367 $-1 $501 reversed $255 $-1 #
edge $-1 $502 0 $502 6.2831853071796004 $256 $503 forward 7 unknown #
vertex $-1 $259 $504 #
ellipse-curve $-1 -29.38201221433307 -35.573151412379069 7.9260208252906619 0 -0.87461971476443456 0.48480960649040278 1.5 0 0 1 I I #
face $-1 $-1 $275 $39 $-1 $505 reversed single #
loop $-1 $-1 $387 $260 #
plane-surface $-1 0 38.403038493476501 0 0 -1 0 0 0 -1 forward_v I I I I #
coedge $-1 $506 $385 $388 $507 forward $261 $-1 #
coedge $-1 $391 $263 $264 $379 reversed $165 $-1 #
coedge $-1 $385 $506 $263 $377 reversed $261 $-1 #
edge $-1 $392 -13.031272450980147 $508 13.031272450980147 $376 $509 forward 7 unknown #
coedge $-1 $265 $264 $506 $510 forward $105 $-1 #
edge $-1 $383 -55.475325785088657 $508 55.475325785088657 $375 $511 forward 7 unknown #
coedge $-1 $388 $387 $265 $381 reversed $372 $-1 #
edge $-1 $512 -55.475325785088657 $382 55.475325785088657 $380 $513 forward 7 unknown #
vertex $-1 $267 $514 #
vertex $-1 $394 $515 #
straight-curve $-1 55.475325785088657 0 -13.031272450980147 0 -1 0 I I #
coedge $-1 $374 $376 $268 $386 reversed $261 $-1 #
edge $-1 $389 -38.403038493476501 $392 38.403038493476501 $385 $516 forward 7 unknown #
coedge $-1 $380 $269 $274 $395 forward $372 $-1 #
coedge $-1 $269 $380 $374 $507 reversed $372 $-1 #
vertex $-1 $270 $517 #
straight-curve $-1 0 38.403038493476501 13.031272450980147 -1 0 0 I I #
coedge $-1 $271 $375 $273 $394 reversed $165 $-1 #
vertex $-1 $386 $518 #
straight-curve $-1 0 -38.403038493476501 13.031272450980147 1 0 0 I I #
edge $-1 $276 -13.031272450980147 $383 13.031272450980147 $273 $519 forward 7 unknown #
edge $-1 $277 -13.031272450980147 $382 13.031272450980147 $274 $520 forward 7 unknown #
point $-1 55.475325785088657 -38.403038493476501 13.031272450980147 #
point $-1 55.475325785088657 38.403038493476501 13.031272450980147 #
face $-1 $-1 $412 $40 $-1 $521 reversed single #
loop $-1 $-1 $408 $279 #
plane-surface $-1 0 0 13.031272450980147 0 0 1 1 0 0 forward_v I I I I #
coedge $-1 $522 $523 $402 $524 forward $280 $-1 #
coedge $-1 $283 $282 $401 $524 reversed $109 $-1 #
edge $-1 $525 -6.9744529836300089 $291 6.9744529836300089 $282 $526 forward 7 unknown #
coedge $-1 $527 $408 $283 $405 forward $399 $-1 #
edge $-1 $406 55.475325785088657 $528 69.424231752348675 $283 $529 forward 7 unknown #
vertex $-1 $405 $530 #
straight-curve $-1 -55.475325785088657 38.403038493476501 0 0 0 -1 I I #
coedge $-1 $404 $531 $285 $409 forward $399 $-1 #
edge $-1 $413 -38.403038493476501 $406 38.403038493476501 $408 $532 forward 7 unknown #
coedge $-1 $533 $286 $531 $534 reversed $412 $-1 #
coedge $-1 $286 $533 $288 $416 reversed $412 $-1 #
loop $-1 $-1 $286 $398 #
vertex $-1 $287 $535 #
straight-curve $-1 -55.475325785088657 -38.403038493476501 0 0 0 1 I I #
coedge $-1 $289 $288 $522 $536 forward $173 $-1 #
edge $-1 $290 -6.9744529836300089 $537 6.9744529836300089 $411 $538 forward 7 unknown #
point $-1 -55.475325785088657 -38.403038493476501 9.4431885157027935 #
point $-1 -55.475325785088657 38.403038493476501 9.4431885157027935 #
loop $-1 $-1 $301 $293 #
plane-surface $-1 0 38.403038493476501 0 0 -1 0 0 0 -1 forward_v I I I I #
coedge $-1 $422 $296 $298 $426 reversed $181 $-1 #
coedge $-1 $296 $421 $539 $540 reversed $181 $-1 #
coedge $-1 $304 $299 $296 $424 forward $294 $-1 #
edge $-1 $427 10.51721564391373 $541 23.547442555425505 $423 $542 forward 7 unknown #
coedge $-1 $298 $297 $430 $543 reversed $113 $-1 #
edge $-1 $544 -76.806076986953002 $427 -61.604579025682682 $421 $545 forward 7 unknown #
vertex $-1 $300 $546 #
straight-curve $-1 -13.405141685768358 25.372811581964733 13.031272450980147 1 0 0 I I #
coedge $-1 $539 $301 $304 $434 reversed $419 $-1 #
coedge $-1 $301 $539 $425 $543 forward $419 $-1 #
vertex $-1 $302 $547 #
straight-curve $-1 -37.723016756223565 38.403038493476501 69.931623360442714 0 0 1 I I #
straight-curve $-1 -37.723016756223565 -27.432618878766291 44.759976660078948 0 0.85716729658548041 -0.51503808176128008 I I #
edge $-1 $541 15.897549986849867 $305 37.723016756223565 $429 $548 forward 7 unknown #
point $-1 -37.723016756223565 38.403038493476501 13.031272450980147 #
point $-1 -37.723016756223565 25.372811581964726 13.031272450980147 #
edge $-1 $549 1 $549 0 $308 $-1 forward 7 unknown #
vertex $-1 $309 $550 #
ellipse-curve $-1 -33.357923402348824 30.171105234858732 6.2593293549794495 0 0.51503808176128008 0.85716729658548041 1 0 0 1 I I #
point $-1 -32.357923402348824 31.887925037720628 9.1165972760448231 #
edge $-1 $551 1 $551 0 $312 $-1 forward 7 unknown #
vertex $-1 $313 $552 #
ellipse-curve $-1 -26.810283371536716 30.171105234858732 6.2593293549794495 0 0.51503808176128008 0.85716729658548041 1 0 0 1 I I #
point $-1 -25.810283371536716 31.887925037720628 9.1165972760448231 #
edge $-1 $553 1 $553 0 $316 $-1 forward 7 unknown #
vertex $-1 $317 $554 #
ellipse-curve $-1 -20.262643340724608 30.171105234858732 6.2593293549794495 0 0.51503808176128008 0.85716729658548041 1 0 0 1 I I #
point $-1 -19.262643340724608 31.887925037720628 9.1165972760448231 #
loop $-1 $-1 $328 $320 #
plane-surface $-1 0 38.403038493476501 0 0 -1 0 0 0 -1 forward_v I I I I #
coedge $-1 $452 $323 $325 $456 reversed $210 $-1 #
coedge $-1 $323 $451 $555 $556 reversed $210 $-1 #
coedge $-1 $331 $326 $323 $454 forward $321 $-1 #
edge $-1 $457 10.51721564391373 $557 23.547442555425505 $453 $558 forward 7 unknown #
coedge $-1 $325 $324 $460 $559 reversed $132 $-1 #
edge $-1 $560 -76.806076986953002 $457 -61.604579025682682 $451 $561 forward 7 unknown #
vertex $-1 $327 $562 #
straight-curve $-1 10.845294714960964 25.372811581964733 13.031272450980147 1 0 0 I I #
coedge $-1 $555 $328 $331 $464 reversed $449 $-1 #
coedge $-1 $328 $555 $455 $559 forward $449 $-1 #
vertex $-1 $329 $563 #
straight-curve $-1 10.77785604523508 38.403038493476501 69.931623360442714 0 0 1 I I #
straight-curve $-1 10.77785604523508 -27.432618878766291 44.759976660078948 0 0.85716729658548041 -0.51503808176128008 I I #
edge $-1 $557 -32.603322814608774 $332 -10.77785604523508 $459 $564 forward 7 unknown #
point $-1 10.77785604523508 38.403038493476501 13.031272450980147 #
point $-1 10.77785604523508 25.372811581964726 13.031272450980147 #
edge $-1 $565 1 $565 0 $335 $-1 forward 7 unknown #
vertex $-1 $336 $566 #
ellipse-curve $-1 15.142949399109824 30.171105234858732 6.2593293549794495 0 0.51503808176128008 0.85716729658548041 1 0 0 1 I I #
point $-1 16.142949399109824 31.887925037720628 9.1165972760448231 #
edge $-1 $567 1 $567 0 $339 $-1 forward 7 unknown #
vertex $-1 $340 $568 #
ellipse-curve $-1 21.690589429921928 30.171105234858732 6.2593293549794495 0 0.51503808176128008 0.85716729658548041 1 0 0 1 I I #
point $-1 22.690589429921928 31.887925037720628 9.1165972760448231 #
edge $-1 $569 1 $569 0 $343 $-1 forward 7 unknown #
vertex $-1 $344 $570 #
ellipse-curve $-1 28.238229460734047 30.171105234858732 6.2593293549794495 0 0.51503808176128008 0.85716729658548041 1 0 0 1 I I #
point $-1 29.238229460734047 31.887925037720628 9.1165972760448231 #
plane-surface $-1 0 0 13.031272450980147 0 0 1 1 0 0 forward_v I I I I #
coedge $-1 $490 $489 $482 $571 forward $348 $-1 #
coedge $-1 $482 $350 $352 $486 reversed $239 $-1 #
coedge $-1 $350 $481 $480 $571 reversed $239 $-1 #
coedge $-1 $358 $353 $350 $484 forward $359 $-1 #
edge $-1 $487 -34.978068530074964 $572 -29.318294367880085 $483 $573 forward 7 unknown #
coedge $-1 $352 $351 $490 $574 reversed $151 $-1 #
edge $-1 $575 5.8446173240376603e-014 $487 11.67422032572069 $481 $576 forward 7 unknown #
vertex $-1 $354 $577 #
straight-curve $-1 -16.512667247690871 -32.743264331281623 13.031272450980147 -1 0 0 I I #
coedge $-1 $480 $355 $358 $494 reversed $348 $-1 #
coedge $-1 $355 $480 $485 $574 forward $348 $-1 #
vertex $-1 $356 $578 #
straight-curve $-1 -24.524249172934844 -38.403038493476501 28.305355463596303 0 0 1 I I #
straight-curve $-1 -24.524249172934844 -38.403038493476529 2.8207691996011519 0 -0.48480960649040278 -0.87461971476443456 I I #
edge $-1 $572 -41.526419817828639 $360 -24.524249172934844 $489 $579 forward 7 unknown #
point $-1 -24.524249172934844 -38.403038493476501 13.031272450980147 #
point $-1 -24.524249172934844 -32.743264331281623 13.031272450980147 #
edge $-1 $580 1 $580 0 $363 $-1 forward 7 unknown #
vertex $-1 $364 $581 #
ellipse-curve $-1 -36.66865677643041 -33.525160764932735 6.7908011142281213 0 -0.87461971476443456 0.48480960649040278 1.5 0 0 1 I I #
point $-1 -35.16865677643041 -35.573151412379048 7.9260208252906512 #
edge $-1 $582 1 $582 0 $367 $-1 forward 7 unknown #
vertex $-1 $368 $583 #
ellipse-curve $-1 -29.38201221433307 -33.525160764932735 6.7908011142281213 0 -0.87461971476443456 0.48480960649040278 1.5 0 0 1 I I #
point $-1 -27.88201221433307 -35.573151412379048 7.9260208252906512 #
plane-surface $-1 55.475325785088657 0 0 -1 0 0 0 0 1 forward_v I I I I #
coedge $-1 $376 $374 $378 $510 reversed $261 $-1 #
edge $-1 $389 -13.031272450980147 $512 13.031272450980147 $388 $584 forward 7 unknown #
vertex $-1 $510 $585 #
straight-curve $-1 -55.475325785088657 -38.403038493476501 0 0 0 -1 I I #
edge $-1 $508 -38.403038493476501 $512 38.403038493476501 $506 $586 forward 7 unknown #
straight-curve $-1 0 -38.403038493476501 -13.031272450980147 -1 0 0 I I #
vertex $-1 $381 $587 #
straight-curve $-1 0 38.403038493476501 -13.031272450980147 1 0 0 I I #
point $-1 55.475325785088657 38.403038493476501 -13.031272450980147 #
point $-1 55.475325785088657 -38.403038493476501 -13.031272450980147 #
straight-curve $-1 -55.475325785088657 0 13.031272450980147 0 -1 0 I I #
point $-1 -55.475325785088657 38.403038493476501 13.031272450980147 #
point $-1 -55.475325785088657 -38.403038493476501 13.031272450980147 #
straight-curve $-1 55.475325785088657 -38.403038493476501 0 0 0 -1 I I #
straight-curve $-1 55.475325785088657 38.403038493476501 0 0 0 -1 I I #
plane-surface $-1 0 -38.403038493476501 0 0 1 0 0 0 1 forward_v I I I I #
coedge $-1 $588 $401 $415 $536 reversed $280 $-1 #
coedge $-1 $401 $588 $527 $589 reversed $280 $-1 #
edge $-1 $528 -1.7940419676386767 $525 1.7940419676386767 $402 $590 forward 7 unknown #
vertex $-1 $403 $591 #
straight-curve $-1 -62.449778768718666 38.403038493476501 9.4431885157027935 1 0 0 I I #
coedge $-1 $531 $404 $523 $589 forward $399 $-1 #
vertex $-1 $405 $592 #
straight-curve $-1 0 38.403038493476501 13.031272450980147 -1 0 0 I I #
point $-1 -55.475325785088657 38.403038493476501 13.031272450980147 #
coedge $-1 $408 $527 $410 $534 forward $399 $-1 #
straight-curve $-1 -55.475325785088657 0 13.031272450980147 0 1 0 I I #
coedge $-1 $411 $410 $588 $593 forward $412 $-1 #
edge $-1 $594 -69.424231752348675 $413 -55.475325785088657 $410 $595 forward 7 unknown #
point $-1 -55.475325785088657 -38.403038493476501 13.031272450980147 #
edge $-1 $537 -38.403038493476501 $525 38.403038493476501 $522 $596 forward 7 unknown #
vertex $-1 $536 $597 #
straight-curve $-1 -62.449778768718666 -38.403038493476501 9.4431885157027935 -1 0 0 I I #
coedge $-1 $430 $429 $422 $540 forward $419 $-1 #
edge $-1 $541 56.900350909462567 $544 64.72970125933324 $539 $598 forward 7 unknown #
vertex $-1 $434 $599 #
straight-curve $-1 -15.897549986849867 14.855595938050996 13.031272450980147 0 1 0 I I #
edge $-1 $544 2.4924083010815092 $431 24.317875070455209 $430 $600 forward 7 unknown #
vertex $-1 $543 $601 #
straight-curve $-1 -15.897549986849867 -27.432618878766291 44.759976660078948 0 -0.85716729658548041 0.51503808176128008 I I #
point $-1 -15.897549986849867 25.372811581964726 13.031272450980147 #
point $-1 -37.723016756223565 38.403038493476501 5.2019221011094672 #
straight-curve $-1 0 38.403038493476501 13.031272450980147 -1 0 0 I I #
vertex $-1 $437 $602 #
point $-1 -32.357923402348824 30.171105234858732 6.2593293549794495 #
vertex $-1 $441 $603 #
point $-1 -25.810283371536716 30.171105234858732 6.2593293549794495 #
vertex $-1 $445 $604 #
point $-1 -19.262643340724608 30.171105234858732 6.2593293549794495 #
coedge $-1 $460 $459 $452 $556 forward $449 $-1 #
edge $-1 $557 56.900350909462567 $560 64.72970125933324 $555 $605 forward 7 unknown #
vertex $-1 $464 $606 #
straight-curve $-1 32.603322814608774 14.855595938050996 13.031272450980147 0 1 0 I I #
edge $-1 $560 -21.758028099647809 $461 0.067438669725884637 $460 $607 forward 7 unknown #
vertex $-1 $559 $608 #
straight-curve $-1 32.603322814608774 -27.432618878766291 44.759976660078948 0 -0.85716729658548041 0.51503808176128008 I I #
point $-1 32.603322814608774 25.372811581964726 13.031272450980147 #
point $-1 10.77785604523508 38.403038493476501 5.2019221011094672 #
straight-curve $-1 0 38.403038493476501 13.031272450980147 -1 0 0 I I #
vertex $-1 $467 $609 #
point $-1 16.142949399109824 30.171105234858732 6.2593293549794495 #
vertex $-1 $471 $610 #
point $-1 22.690589429921928 30.171105234858732 6.2593293549794495 #
vertex $-1 $475 $611 #
point $-1 29.238229460734047 30.171105234858732 6.2593293549794495 #
edge $-1 $572 15.274083012616156 $575 25.484586263995102 $480 $612 forward 7 unknown #
vertex $-1 $494 $613 #
straight-curve $-1 -41.526419817828639 -67.721332861356586 13.031272450980147 0 -1 0 I I #
edge $-1 $575 -25.013752570137768 $491 -8.0115819252439735 $490 $614 forward 7 unknown #
vertex $-1 $574 $615 #
straight-curve $-1 -41.526419817828639 -38.403038493476529 2.8207691996011519 0 0.48480960649040278 0.87461971476443456 I I #
point $-1 -41.526419817828639 -32.743264331281623 13.031272450980147 #
point $-1 -24.524249172934844 -38.403038493476501 2.820769199601203 #
straight-curve $-1 0 -38.403038493476501 13.031272450980147 1 0 0 I I #
vertex $-1 $497 $616 #
point $-1 -35.16865677643041 -33.525160764932735 6.7908011142281213 #
vertex $-1 $501 $617 #
point $-1 -27.88201221433307 -33.525160764932735 6.7908011142281213 #
straight-curve $-1 -55.475325785088657 38.403038493476501 0 0 0 -1 I I #
point $-1 -55.475325785088657 -38.403038493476501 -13.031272450980147 #
straight-curve $-1 -55.475325785088657 0 -13.031272450980147 0 1 0 I I #
point $-1 -55.475325785088657 38.403038493476501 -13.031272450980147 #
coedge $-1 $523 $522 $533 $593 reversed $280 $-1 #
edge $-1 $528 -38.403038493476501 $594 38.403038493476501 $523 $618 forward 7 unknown #
straight-curve $-1 -69.424231752348675 38.403038493476501 11.23723048334147 0 0 -1 I I #
point $-1 -69.424231752348675 38.403038493476501 9.4431885157027935 #
point $-1 -69.424231752348675 38.403038493476501 13.031272450980147 #
edge $-1 $594 -1.7940419676386767 $537 1.7940419676386767 $588 $619 forward 7 unknown #
vertex $-1 $589 $620 #
straight-curve $-1 0 -38.403038493476501 13.031272450980147 1 0 0 I I #
straight-curve $-1 -69.424231752348675 0 9.4431885157027935 0 1 0 I I #
point $-1 -69.424231752348675 -38.403038493476501 9.4431885157027935 #
straight-curve $-1 -15.897549986849867 38.403038493476501 69.931623360442714 0 0 -1 I I #
point $-1 -15.897549986849867 38.403038493476501 13.031272450980147 #
straight-curve $-1 -13.405141685768358 38.403038493476501 5.2019221011094707 -1 0 0 I I #
point $-1 -15.897549986849867 38.403038493476501 5.2019221011094672 #
point $-1 -33.357923402348824 29.65606715309745 5.4021620583939693 #
point $-1 -26.810283371536716 29.65606715309745 5.4021620583939693 #
point $-1 -20.262643340724608 29.65606715309745 5.4021620583939693 #
straight-curve $-1 32.603322814608774 38.403038493476501 69.931623360442714 0 0 -1 I I #
point $-1 32.603322814608774 38.403038493476501 13.031272450980147 #
straight-curve $-1 10.845294714960964 38.403038493476501 5.2019221011094707 -1 0 0 I I #
point $-1 32.603322814608774 38.403038493476501 5.2019221011094672 #
point $-1 15.142949399109824 29.65606715309745 5.4021620583939693 #
point $-1 21.690589429921928 29.65606715309745 5.4021620583939693 #
point $-1 28.238229460734047 29.65606715309745 5.4021620583939693 #
straight-curve $-1 -41.526419817828639 -38.403038493476501 28.305355463596303 0 0 -1 I I #
point $-1 -41.526419817828639 -38.403038493476501 13.031272450980147 #
straight-curve $-1 -16.512667247690871 -38.403038493476501 2.8207691996012088 1 0 0 I I #
point $-1 -41.526419817828639 -38.403038493476501 2.820769199601203 #
point $-1 -36.66865677643041 -32.213231192786083 6.0635867044925176 #
point $-1 -29.38201221433307 -32.213231192786083 6.0635867044925176 #
straight-curve $-1 -69.424231752348675 0 13.031272450980147 0 -1 0 I I #
straight-curve $-1 -69.424231752348675 -38.403038493476501 11.23723048334147 0 0 -1 I I #
point $-1 -69.424231752348675 -38.403038493476501 13.031272450980147 #
End-of-ACIS-data 