500 0 2 0           
7 Unknown 11 ACIS 5.0 NT 24 Fri Mar 26 15:51:54 1999 
-1 9.9999999999999995e-007 1e-010 
body $-1 $2 $-1 $3 #
body $-1 $4 $-1 $5 #
lump $-1 $-1 $6 $0 #
transform $-1 1 0 0 0 1 0 0 0 1 67.04672383800775 27.838294091264974 6.7082243206646659 1 rotate no_reflect no_shear #
lump $-1 $-1 $7 $1 #
transform $-1 1 0 0 0 1 0 0 0 1 67.04672383800775 27.838294091264974 6.7082243206646659 1 rotate no_reflect no_shear #
shell $-1 $-1 $-1 $8 $-1 $2 #
shell $-1 $-1 $-1 $9 $-1 $4 #
face $-1 $10 $11 $6 $-1 $12 forward single #
face $-1 $13 $14 $7 $-1 $15 reversed single #
face $-1 $16 $17 $6 $-1 $18 reversed single #
loop $-1 $-1 $19 $8 #
plane-surface $-1 0 0 6.7082243206646659 0 0 1 1 0 0 forward_v I I I I #
face $-1 $20 $21 $7 $-1 $22 forward single #
loop $-1 $-1 $23 $9 #
plane-surface $-1 -63.762398338231101 0 -3.139826494984888 0 0 1 1 0 0 forward_v I I I I #
face $-1 $24 $25 $6 $-1 $26 reversed single #
loop $-1 $-1 $27 $10 #
plane-surface $-1 0 0 -6.7082243206646659 0 0 1 1 0 0 forward_v I I I I #
coedge $-1 $28 $29 $30 $31 forward $11 $-1 #
face $-1 $32 $33 $7 $-1 $34 reversed single #
loop $-1 $-1 $35 $13 #
plane-surface $-1 -60.478072838454452 0 -4.9240254078247769 -1 0 0 0 0 1 forward_v I I I I #
coedge $-1 $36 $37 $38 $39 reversed $14 $-1 #
face $-1 $40 $41 $6 $-1 $42 reversed single #
loop $-1 $-1 $43 $16 #
plane-surface $-1 0 -27.838294091264974 0 0 1 0 0 0 1 forward_v I I I I #
coedge $-1 $44 $45 $46 $47 forward $17 $-1 #
coedge $-1 $48 $19 $49 $50 forward $11 $-1 #
coedge $-1 $19 $48 $51 $52 forward $11 $-1 #
coedge $-1 $53 $54 $19 $31 reversed $55 $-1 #
edge $-1 $56 -27.838294091264974 $57 27.838294091264974 $30 $58 forward 7 unknown #
face $-1 $59 $60 $7 $-1 $61 reversed single #
loop $-1 $-1 $62 $20 #
plane-surface $-1 -67.04672383800775 0 0 1 0 0 0 0 -1 forward_v I I I I #
coedge $-1 $38 $63 $64 $65 reversed $21 $-1 #
coedge $-1 $66 $23 $67 $68 reversed $14 $-1 #
coedge $-1 $23 $66 $69 $70 reversed $14 $-1 #
coedge $-1 $71 $35 $23 $39 forward $21 $-1 #
edge $-1 $72 -27.838294091264974 $73 27.838294091264974 $38 $74 forward 7 unknown #
face $-1 $75 $76 $6 $-1 $77 reversed single #
loop $-1 $-1 $78 $24 #
plane-surface $-1 -67.04672383800775 0 0 1 0 0 0 0 -1 forward_v I I I I #
coedge $-1 $79 $51 $80 $81 forward $25 $-1 #
coedge $-1 $82 $27 $79 $83 forward $17 $-1 #
coedge $-1 $27 $82 $84 $85 forward $17 $-1 #
coedge $-1 $54 $53 $27 $47 reversed $55 $-1 #
edge $-1 $86 -27.838294091264974 $87 27.838294091264974 $46 $88 forward 7 unknown #
coedge $-1 $29 $28 $89 $90 forward $11 $-1 #
coedge $-1 $91 $92 $28 $50 reversed $76 $-1 #
edge $-1 $57 -67.04672383800775 $93 67.04672383800775 $49 $94 forward 7 unknown #
coedge $-1 $43 $95 $29 $52 reversed $25 $-1 #
edge $-1 $96 -67.04672383800775 $56 67.04672383800775 $51 $97 forward 7 unknown #
coedge $-1 $46 $30 $95 $98 forward $55 $-1 #
coedge $-1 $30 $46 $91 $99 reversed $55 $-1 #
loop $-1 $-1 $53 $75 #
vertex $-1 $31 $100 #
vertex $-1 $31 $101 #
straight-curve $-1 67.04672383800775 0 6.7082243206646659 0 1 0 I I #
face $-1 $102 $103 $7 $-1 $104 forward single #
loop $-1 $-1 $67 $32 #
plane-surface $-1 0 -27.838294091264974 0 0 1 0 0 0 1 forward_v I I I I #
coedge $-1 $105 $106 $66 $107 forward $33 $-1 #
coedge $-1 $35 $71 $108 $109 reversed $21 $-1 #
coedge $-1 $110 $67 $35 $65 forward $60 $-1 #
edge $-1 $72 0.67781379107249951 $111 4.2462116167522774 $64 $112 forward 7 unknown #
coedge $-1 $37 $36 $62 $107 reversed $14 $-1 #
coedge $-1 $64 $113 $36 $68 forward $60 $-1 #
edge $-1 $114 -35.165524668892203 $72 -28.596873669338901 $67 $115 forward 7 unknown #
coedge $-1 $116 $117 $37 $70 forward $118 $-1 #
edge $-1 $73 28.596873669338901 $119 35.165524668892203 $69 $120 forward 7 unknown #
coedge $-1 $63 $38 $117 $121 reversed $21 $-1 #
vertex $-1 $68 $122 #
vertex $-1 $70 $123 #
straight-curve $-1 -60.478072838454452 0 -3.139826494984888 0 1 0 I I #
face $-1 $-1 $55 $6 $-1 $124 reversed single #
loop $-1 $-1 $91 $40 #
plane-surface $-1 0 27.838294091264974 0 0 -1 0 0 0 -1 forward_v I I I I #
coedge $-1 $125 $89 $92 $126 forward $41 $-1 #
coedge $-1 $95 $43 $44 $83 reversed $25 $-1 #
coedge $-1 $89 $125 $43 $81 reversed $41 $-1 #
edge $-1 $96 -6.7082243206646659 $127 6.7082243206646659 $80 $128 forward 7 unknown #
coedge $-1 $45 $44 $125 $129 forward $17 $-1 #
edge $-1 $87 -67.04672383800775 $127 67.04672383800775 $79 $130 forward 7 unknown #
coedge $-1 $92 $91 $45 $85 reversed $76 $-1 #
edge $-1 $131 -67.04672383800775 $86 67.04672383800775 $84 $132 forward 7 unknown #
vertex $-1 $47 $133 #
vertex $-1 $98 $134 #
straight-curve $-1 67.04672383800775 0 -6.7082243206646659 0 -1 0 I I #
coedge $-1 $78 $80 $48 $90 reversed $41 $-1 #
edge $-1 $93 -27.838294091264974 $96 27.838294091264974 $89 $135 forward 7 unknown #
coedge $-1 $84 $49 $54 $99 forward $76 $-1 #
coedge $-1 $49 $84 $78 $126 reversed $76 $-1 #
vertex $-1 $50 $136 #
straight-curve $-1 0 27.838294091264974 6.7082243206646659 -1 0 0 I I #
coedge $-1 $51 $79 $53 $98 reversed $25 $-1 #
vertex $-1 $90 $137 #
straight-curve $-1 0 -27.838294091264974 6.7082243206646659 1 0 0 I I #
edge $-1 $56 -6.7082243206646659 $87 6.7082243206646659 $53 $138 forward 7 unknown #
edge $-1 $57 -6.7082243206646659 $86 6.7082243206646659 $54 $139 forward 7 unknown #
point $-1 67.04672383800775 -27.838294091264974 6.7082243206646659 #
point $-1 67.04672383800775 27.838294091264974 6.7082243206646659 #
face $-1 $140 $141 $7 $-1 $142 reversed single #
loop $-1 $-1 $143 $59 #
plane-surface $-1 0 0 6.7082243206646659 0 0 1 1 0 0 forward_v I I I I #
coedge $-1 $144 $62 $113 $145 reversed $33 $-1 #
coedge $-1 $62 $144 $116 $146 forward $33 $-1 #
edge $-1 $119 -27.838294091264974 $114 27.838294091264974 $62 $147 forward 7 unknown #
coedge $-1 $148 $149 $63 $109 forward $141 $-1 #
edge $-1 $111 -27.838294091264974 $150 27.838294091264974 $108 $151 forward 7 unknown #
coedge $-1 $152 $64 $149 $153 reversed $60 $-1 #
vertex $-1 $65 $154 #
straight-curve $-1 -60.478072838454452 -27.838294091264974 -2.4620127039123885 0 0 -1 I I #
coedge $-1 $67 $155 $105 $145 forward $60 $-1 #
vertex $-1 $68 $156 #
straight-curve $-1 -31.881199169115551 -27.838294091264974 -3.139826494984888 1 0 0 I I #
coedge $-1 $157 $69 $106 $146 reversed $118 $-1 #
coedge $-1 $69 $158 $71 $121 forward $118 $-1 #
loop $-1 $-1 $69 $140 #
vertex $-1 $107 $159 #
straight-curve $-1 -31.881199169115551 27.838294091264974 -3.139826494984888 -1 0 0 I I #
edge $-1 $150 -4.2462116167522774 $73 -0.67781379107249951 $117 $160 forward 7 unknown #
point $-1 -60.478072838454452 -27.838294091264974 -3.139826494984888 #
point $-1 -60.478072838454452 27.838294091264974 -3.139826494984888 #
plane-surface $-1 67.04672383800775 0 0 -1 0 0 0 0 1 forward_v I I I I #
coedge $-1 $80 $78 $82 $129 reversed $41 $-1 #
edge $-1 $93 -6.7082243206646659 $131 6.7082243206646659 $92 $161 forward 7 unknown #
vertex $-1 $129 $162 #
straight-curve $-1 -67.04672383800775 -27.838294091264974 0 0 0 -1 I I #
edge $-1 $127 -27.838294091264974 $131 27.838294091264974 $125 $163 forward 7 unknown #
straight-curve $-1 0 -27.838294091264974 -6.7082243206646659 -1 0 0 I I #
vertex $-1 $85 $164 #
straight-curve $-1 0 27.838294091264974 -6.7082243206646659 1 0 0 I I #
point $-1 67.04672383800775 27.838294091264974 -6.7082243206646659 #
point $-1 67.04672383800775 -27.838294091264974 -6.7082243206646659 #
straight-curve $-1 -67.04672383800775 0 6.7082243206646659 0 -1 0 I I #
point $-1 -67.04672383800775 27.838294091264974 6.7082243206646659 #
point $-1 -67.04672383800775 -27.838294091264974 6.7082243206646659 #
straight-curve $-1 67.04672383800775 -27.838294091264974 0 0 0 -1 I I #
straight-curve $-1 67.04672383800775 27.838294091264974 0 0 0 -1 I I #
face $-1 $165 $118 $7 $-1 $166 reversed single #
loop $-1 $-1 $108 $102 #
plane-surface $-1 0 0 -6.7082243206646659 0 0 1 1 0 0 forward_v I I I I #
coedge $-1 $167 $168 $169 $170 forward $103 $-1 #
coedge $-1 $106 $105 $171 $172 reversed $33 $-1 #
edge $-1 $173 -6.7082243206646659 $114 3.139826494984888 $105 $174 forward 7 unknown #
edge $-1 $175 -6.7082243206646659 $119 3.139826494984888 $116 $176 forward 7 unknown #
straight-curve $-1 -67.04672383800775 0 -3.139826494984888 0 -1 0 I I #
coedge $-1 $177 $108 $158 $178 forward $141 $-1 #
coedge $-1 $108 $177 $110 $153 forward $141 $-1 #
vertex $-1 $178 $179 #
straight-curve $-1 -60.478072838454452 0 -6.7082243206646659 0 1 0 I I #
coedge $-1 $155 $110 $180 $181 reversed $60 $-1 #
edge $-1 $182 -67.04672383800775 $111 60.478072838454452 $110 $183 forward 7 unknown #
point $-1 -60.478072838454452 -27.838294091264974 -6.7082243206646659 #
coedge $-1 $113 $152 $168 $184 reversed $60 $-1 #
point $-1 -67.04672383800775 -27.838294091264974 -3.139826494984888 #
coedge $-1 $185 $116 $167 $186 reversed $118 $-1 #
coedge $-1 $117 $185 $148 $178 reversed $118 $-1 #
point $-1 -67.04672383800775 27.838294091264974 -3.139826494984888 #
straight-curve $-1 -60.478072838454452 27.838294091264974 -2.4620127039123885 0 0 1 I I #
straight-curve $-1 -67.04672383800775 27.838294091264974 0 0 0 -1 I I #
point $-1 -67.04672383800775 -27.838294091264974 -6.7082243206646659 #
straight-curve $-1 -67.04672383800775 0 -6.7082243206646659 0 1 0 I I #
point $-1 -67.04672383800775 27.838294091264974 -6.7082243206646659 #
face $-1 $-1 $187 $7 $-1 $188 reversed single #
plane-surface $-1 0 27.838294091264974 0 0 -1 0 0 0 -1 forward_v I I I I #
coedge $-1 $171 $143 $157 $186 forward $103 $-1 #
coedge $-1 $143 $171 $155 $184 forward $103 $-1 #
coedge $-1 $180 $189 $143 $170 reversed $187 $-1 #
edge $-1 $190 -27.838294091264974 $191 27.838294091264974 $169 $192 forward 7 unknown #
coedge $-1 $168 $167 $144 $172 forward $103 $-1 #
edge $-1 $175 -27.838294091264974 $173 27.838294091264974 $144 $193 forward 7 unknown #
vertex $-1 $172 $194 #
straight-curve $-1 -67.04672383800775 -27.838294091264974 0 0 0 -1 I I #
vertex $-1 $186 $195 #
straight-curve $-1 -67.04672383800775 27.838294091264974 0 0 0 -1 I I #
coedge $-1 $149 $148 $196 $197 forward $141 $-1 #
edge $-1 $150 -60.478072838454452 $198 67.04672383800775 $158 $199 forward 7 unknown #
point $-1 -60.478072838454452 27.838294091264974 -6.7082243206646659 #
coedge $-1 $196 $169 $152 $181 forward $187 $-1 #
edge $-1 $190 -6.7082243206646659 $182 6.7082243206646659 $180 $200 forward 7 unknown #
vertex $-1 $181 $201 #
straight-curve $-1 0 -27.838294091264974 -6.7082243206646659 -1 0 0 I I #
edge $-1 $173 -67.04672383800775 $190 67.04672383800775 $155 $202 forward 7 unknown #
coedge $-1 $158 $157 $189 $203 forward $118 $-1 #
edge $-1 $191 -67.04672383800775 $175 67.04672383800775 $157 $204 forward 7 unknown #
loop $-1 $-1 $180 $165 #
plane-surface $-1 67.04672383800775 0 0 -1 0 0 0 0 1 forward_v I I I I #
coedge $-1 $169 $196 $185 $203 reversed $187 $-1 #
vertex $-1 $170 $205 #
vertex $-1 $170 $206 #
straight-curve $-1 67.04672383800775 0 6.7082243206646659 0 1 0 I I #
straight-curve $-1 -67.04672383800775 0 6.7082243206646659 0 -1 0 I I #
point $-1 -67.04672383800775 -27.838294091264974 6.7082243206646659 #
point $-1 -67.04672383800775 27.838294091264974 6.7082243206646659 #
coedge $-1 $189 $180 $177 $197 reversed $187 $-1 #
edge $-1 $198 -27.838294091264974 $182 27.838294091264974 $196 $207 forward 7 unknown #
vertex $-1 $197 $208 #
straight-curve $-1 0 27.838294091264974 -6.7082243206646659 1 0 0 I I #
straight-curve $-1 67.04672383800775 -27.838294091264974 0 0 0 -1 I I #
point $-1 67.04672383800775 -27.838294091264974 -6.7082243206646659 #
straight-curve $-1 0 -27.838294091264974 6.7082243206646659 1 0 0 I I #
edge $-1 $191 -6.7082243206646659 $198 6.7082243206646659 $189 $209 forward 7 unknown #
straight-curve $-1 0 27.838294091264974 6.7082243206646659 -1 0 0 I I #
point $-1 67.04672383800775 -27.838294091264974 6.7082243206646659 #
point $-1 67.04672383800775 27.838294091264974 6.7082243206646659 #
straight-curve $-1 67.04672383800775 0 -6.7082243206646659 0 -1 0 I I #
point $-1 67.04672383800775 27.838294091264974 -6.7082243206646659 #
straight-curve $-1 67.04672383800775 27.838294091264974 0 0 0 -1 I I #
End-of-ACIS-data 