500 0 11 0           
7 Unknown 11 ACIS 5.0 NT 24 Fri Mar 26 18:59:34 1999 
-1 9.9999999999999995e-007 1e-010 
body $-1 $11 $-1 $12 #
body $-1 $13 $-1 $14 #
body $-1 $15 $-1 $16 #
body $-1 $17 $-1 $18 #
body $-1 $19 $-1 $20 #
body $-1 $21 $-1 $22 #
body $-1 $23 $-1 $24 #
body $-1 $25 $-1 $26 #
body $-1 $27 $-1 $28 #
body $-1 $29 $-1 $30 #
body $-1 $31 $-1 $32 #
lump $-1 $-1 $33 $0 #
transform $-1 1 0 0 0 1 0 0 0 1 77.714774010437338 33.512910191500005 12.0990943627249 1 rotate no_reflect no_shear #
lump $-1 $-1 $34 $1 #
transform $-1 1 0 0 0 1 0 0 0 1 77.714774010437338 33.512910191500005 12.0990943627249 1 rotate no_reflect no_shear #
lump $-1 $-1 $35 $2 #
transform $-1 1 0 0 0 1 0 0 0 1 77.714774010437338 33.512910191500005 12.0990943627249 1 rotate no_reflect no_shear #
lump $-1 $-1 $36 $3 #
transform $-1 1 0 0 0 1 0 0 0 1 77.714774010437338 33.512910191500005 12.0990943627249 1 rotate no_reflect no_shear #
lump $-1 $-1 $37 $4 #
transform $-1 1 0 0 0 1 0 0 0 1 77.714774010437338 33.512910191500005 12.0990943627249 1 rotate no_reflect no_shear #
lump $-1 $-1 $38 $5 #
transform $-1 1 0 0 0 1 0 0 0 1 77.714774010437338 33.512910191500005 12.0990943627249 1 rotate no_reflect no_shear #
lump $-1 $-1 $39 $6 #
transform $-1 1 0 0 0 1 0 0 0 1 77.714774010437338 33.512910191500005 12.0990943627249 1 rotate no_reflect no_shear #
lump $-1 $-1 $40 $7 #
transform $-1 1 0 0 0 1 0 0 0 1 77.714774010437338 33.512910191500005 12.0990943627249 1 rotate no_reflect no_shear #
lump $-1 $-1 $41 $8 #
transform $-1 1 0 0 0 1 0 0 0 1 77.714774010437338 33.512910191500005 12.0990943627249 1 rotate no_reflect no_shear #
lump $-1 $-1 $42 $9 #
transform $-1 1 0 0 0 1 0 0 0 1 77.714774010437338 33.512910191500005 12.0990943627249 1 rotate no_reflect no_shear #
lump $-1 $-1 $43 $10 #
transform $-1 1 0 0 0 1 0 0 0 1 77.714774010437338 33.512910191500005 12.0990943627249 1 rotate no_reflect no_shear #
shell $-1 $-1 $-1 $44 $-1 $11 #
shell $-1 $-1 $-1 $45 $-1 $13 #
shell $-1 $-1 $-1 $46 $-1 $15 #
shell $-1 $-1 $-1 $47 $-1 $17 #
shell $-1 $-1 $-1 $48 $-1 $19 #
shell $-1 $-1 $-1 $49 $-1 $21 #
shell $-1 $-1 $-1 $50 $-1 $23 #
shell $-1 $-1 $-1 $51 $-1 $25 #
shell $-1 $-1 $-1 $52 $-1 $27 #
shell $-1 $-1 $-1 $53 $-1 $29 #
shell $-1 $-1 $-1 $54 $-1 $31 #
face $-1 $55 $56 $33 $-1 $57 forward single #
face $-1 $58 $59 $34 $-1 $60 forward single #
face $-1 $61 $62 $35 $-1 $63 forward single #
face $-1 $64 $65 $36 $-1 $66 reversed single #
face $-1 $67 $68 $37 $-1 $69 forward single #
face $-1 $70 $71 $38 $-1 $72 reversed single #
face $-1 $73 $74 $39 $-1 $75 forward single #
face $-1 $76 $77 $40 $-1 $78 forward single #
face $-1 $79 $80 $41 $-1 $81 reversed single #
face $-1 $82 $83 $42 $-1 $84 forward single #
face $-1 $85 $86 $43 $-1 $87 forward single #
face $-1 $88 $89 $33 $-1 $90 reversed single #
loop $-1 $-1 $91 $44 #
plane-surface $-1 0 0 12.0990943627249 0 0 1 1 0 0 forward_v I I I I #
face $-1 $92 $93 $34 $-1 $94 reversed single #
loop $-1 $-1 $95 $45 #
plane-surface $-1 -77.714774010437338 0 0 1 0 0 0 0 -1 forward_v I I I I #
face $-1 $96 $97 $35 $-1 $98 reversed single #
loop $-1 $-1 $99 $46 #
plane-surface $-1 77.714774010437338 0 0 -1 0 0 0 0 1 forward_v I I I I #
face $-1 $100 $101 $36 $-1 $102 reversed single #
loop $-1 $-1 $103 $47 #
plane-surface $-1 -17.8326178885556 -139.51560830728192 118.39082999769722 -1 0 0 0 -0.68199836817093118 0.7313536940579346 forward_v I I I I #
face $-1 $104 $105 $37 $-1 $106 forward single #
loop $-1 $107 $108 $48 #
cone-surface $-1 -28.704915552985298 -27.559662451327565 6.2685920330440794 0 0.68199836817093118 -0.7313536940579346 2.5 0 0 1 I I 0 1 2.5 forward I I I I #
face $-1 $109 $110 $38 $-1 $111 reversed single #
loop $-1 $-1 $112 $49 #
plane-surface $-1 -40.016900346711118 101.47538777310592 161.22811181631724 1 0 0 0 -0.73135370988377701 -0.68199835119979291 forward_v I I I I #
face $-1 $113 $114 $39 $-1 $115 forward single #
loop $-1 $116 $117 $50 #
cone-surface $-1 -35.788867328312989 29.27934701545837 7.7669462159527445 0 -0.73135370988377701 -0.68199835119979291 2 0 0 1 I I 0 1 2 forward I I I I #
face $-1 $118 $119 $40 $-1 $120 forward single #
loop $-1 $121 $122 $51 #
cone-surface $-1 -29.446817800715792 29.27934701545837 7.7669462159527445 0 -0.73135370988377701 -0.68199835119979291 2 0 0 1 I I 0 1 2 forward I I I I #
face $-1 $123 $124 $41 $-1 $125 reversed single #
loop $-1 $-1 $126 $52 #
plane-surface $-1 26.964237444547642 101.47538777310592 161.22811181631724 1 0 0 0 -0.73135370988377701 -0.68199835119979291 forward_v I I I I #
face $-1 $127 $128 $42 $-1 $129 forward single #
loop $-1 $130 $131 $53 #
cone-surface $-1 31.192270462945771 29.27934701545837 7.7669462159527445 0 -0.73135370988377701 -0.68199835119979291 2 0 0 1 I I 0 1 2 forward I I I I #
face $-1 $132 $133 $43 $-1 $134 forward single #
loop $-1 $135 $136 $54 #
cone-surface $-1 37.534319990542969 29.27934701545837 7.7669462159527445 0 -0.73135370988377701 -0.68199835119979291 2 0 0 1 I I 0 1 2 forward I I I I #
face $-1 $137 $138 $33 $-1 $139 reversed single #
loop $-1 $-1 $140 $55 #
plane-surface $-1 0 0 -12.0990943627249 0 0 1 1 0 0 forward_v I I I I #
coedge $-1 $141 $142 $143 $144 forward $56 $-1 #
face $-1 $145 $146 $34 $-1 $147 reversed single #
loop $-1 $-1 $148 $58 #
plane-surface $-1 0 0 -12.0990943627249 0 0 1 1 0 0 forward_v I I I I #
coedge $-1 $149 $150 $151 $152 forward $59 $-1 #
face $-1 $153 $154 $35 $-1 $155 reversed single #
loop $-1 $-1 $156 $61 #
plane-surface $-1 0 0 -12.0990943627249 0 0 1 1 0 0 forward_v I I I I #
coedge $-1 $157 $158 $159 $160 forward $62 $-1 #
face $-1 $161 $162 $36 $-1 $163 reversed single #
loop $-1 $-1 $164 $64 #
plane-surface $-1 -28.704915552985298 -33.512910191500012 4.7168558868753934 0 -0.68199836817093118 0.7313536940579346 1 0 0 forward_v I I I I #
coedge $-1 $165 $166 $167 $168 reversed $65 $-1 #
face $-1 $-1 $169 $37 $-1 $170 forward single #
loop $-1 $171 $172 $67 #
cone-surface $-1 -28.704915552985298 -24.712157438678709 3.215016823715608 0 0.68199836817093118 -0.7313536940579346 1.25 0 0 1 I I -0.70710678118654746 0.70710678118654746 1.25 forward I I I I #
loop $-1 $-1 $173 $48 #
coedge $-1 $108 $108 $174 $175 reversed $68 $-1 #
face $-1 $176 $177 $38 $-1 $178 reversed single #
loop $-1 $-1 $179 $70 #
plane-surface $-1 -32.61784256451439 -12.198588797519449 55.225416338351678 0 0.73135370988377701 0.68199835119979291 1 0 0 forward_v I I I I #
coedge $-1 $180 $181 $182 $183 reversed $71 $-1 #
face $-1 $-1 $184 $39 $-1 $185 forward single #
loop $-1 $186 $187 $73 #
cone-surface $-1 -35.788867328312989 27.062207186627383 5.6994299277227736 0 -0.73135370988377701 -0.68199835119979291 1 0 0 1 I I -0.70710678118654746 0.70710678118654746 1 forward I I I I #
loop $-1 $-1 $188 $50 #
coedge $-1 $117 $117 $189 $190 reversed $74 $-1 #
face $-1 $-1 $191 $40 $-1 $192 forward single #
loop $-1 $193 $194 $76 #
cone-surface $-1 -29.446817800715792 27.062207186627383 5.6994299277227736 0 -0.73135370988377701 -0.68199835119979291 1 0 0 1 I I -0.70710678118654746 0.70710678118654746 1 forward I I I I #
loop $-1 $-1 $195 $51 #
coedge $-1 $122 $122 $196 $197 reversed $77 $-1 #
face $-1 $198 $199 $41 $-1 $200 reversed single #
loop $-1 $-1 $201 $79 #
plane-surface $-1 34.36329522674437 -12.198588797519449 55.225416338351678 0 0.73135370988377701 0.68199835119979291 1 0 0 forward_v I I I I #
coedge $-1 $202 $203 $204 $205 reversed $80 $-1 #
face $-1 $-1 $206 $42 $-1 $207 forward single #
loop $-1 $208 $209 $82 #
cone-surface $-1 31.192270462945771 27.062207186627383 5.6994299277227736 0 -0.73135370988377701 -0.68199835119979291 1 0 0 1 I I -0.70710678118654746 0.70710678118654746 1 forward I I I I #
loop $-1 $-1 $210 $53 #
coedge $-1 $131 $131 $211 $212 reversed $83 $-1 #
face $-1 $-1 $213 $43 $-1 $214 forward single #
loop $-1 $215 $216 $85 #
cone-surface $-1 37.534319990542969 27.062207186627383 5.6994299277227736 0 -0.73135370988377701 -0.68199835119979291 1 0 0 1 I I -0.70710678118654746 0.70710678118654746 1 forward I I I I #
loop $-1 $-1 $217 $54 #
coedge $-1 $136 $136 $218 $219 reversed $86 $-1 #
face $-1 $220 $221 $33 $-1 $222 reversed single #
loop $-1 $-1 $223 $88 #
plane-surface $-1 0 -33.512910191500005 0 0 1 0 0 0 1 forward_v I I I I #
coedge $-1 $224 $225 $226 $227 forward $89 $-1 #
coedge $-1 $228 $91 $229 $230 forward $56 $-1 #
coedge $-1 $91 $228 $231 $232 forward $56 $-1 #
coedge $-1 $233 $234 $91 $144 reversed $235 $-1 #
edge $-1 $236 -33.512910191500005 $237 33.512910191500005 $143 $238 forward 7 unknown #
face $-1 $239 $240 $34 $-1 $241 reversed single #
loop $-1 $-1 $242 $92 #
plane-surface $-1 -83.081592120026627 -29.599956728932593 0 0 1 0 0 0 1 forward_v I I I I #
coedge $-1 $243 $244 $150 $245 forward $93 $-1 #
coedge $-1 $246 $95 $247 $248 reversed $59 $-1 #
coedge $-1 $95 $246 $148 $245 reversed $59 $-1 #
coedge $-1 $249 $250 $95 $152 reversed $251 $-1 #
edge $-1 $252 -12.0990943627249 $253 12.0990943627249 $151 $254 forward 7 unknown #
face $-1 $255 $256 $35 $-1 $257 reversed single #
loop $-1 $-1 $159 $96 #
plane-surface $-1 83.081592120026642 -29.599956728932593 0 0 1 0 0 0 1 forward_v I I I I #
coedge $-1 $258 $259 $158 $260 forward $97 $-1 #
coedge $-1 $261 $99 $262 $263 reversed $62 $-1 #
coedge $-1 $99 $261 $156 $260 reversed $62 $-1 #
coedge $-1 $264 $265 $99 $160 reversed $154 $-1 #
edge $-1 $266 -12.0990943627249 $267 12.0990943627249 $159 $268 forward 7 unknown #
face $-1 $269 $270 $36 $-1 $271 forward single #
loop $-1 $-1 $272 $100 #
plane-surface $-1 -39.577213217414993 -139.51560830728192 118.39082999769722 1 0 0 0 0.68199836817093118 -0.7313536940579346 forward_v I I I I #
coedge $-1 $273 $274 $275 $276 reversed $101 $-1 #
coedge $-1 $166 $103 $277 $278 reversed $65 $-1 #
coedge $-1 $103 $165 $273 $279 reversed $65 $-1 #
coedge $-1 $275 $280 $103 $168 forward $270 $-1 #
edge $-1 $281 36.244893962140956 $282 44.161375337615411 $167 $283 forward 7 unknown #
loop $-1 $-1 $174 $104 #
plane-surface $-1 -28.704915552985298 -33.512910191500012 4.7168558868753934 0 -0.68199836817093118 0.7313536940579346 1 0 0 forward_v I I I I #
loop $-1 $-1 $284 $67 #
coedge $-1 $172 $172 $173 $285 reversed $105 $-1 #
coedge $-1 $173 $173 $172 $285 forward $107 $-1 #
coedge $-1 $174 $174 $108 $175 forward $169 $-1 #
edge $-1 $286 -6.8862542636753361e-016 $286 6.2831853071795996 $174 $287 forward 7 unknown #
face $-1 $288 $289 $38 $-1 $290 reversed single #
loop $-1 $-1 $291 $109 #
plane-surface $-1 -25.218784782317663 101.47538777310592 161.22811181631724 -1 0 0 0 0.73135370988377701 0.68199835119979291 forward_v I I I I #
coedge $-1 $292 $293 $294 $295 reversed $110 $-1 #
coedge $-1 $181 $112 $296 $297 reversed $71 $-1 #
coedge $-1 $112 $180 $292 $298 reversed $71 $-1 #
coedge $-1 $294 $299 $112 $183 forward $300 $-1 #
edge $-1 $301 17.224783695052956 $302 22.720337809241762 $182 $303 forward 7 unknown #
loop $-1 $-1 $189 $113 #
plane-surface $-1 -32.61784256451439 -12.198588797519449 55.225416338351678 0 0.73135370988377701 0.68199835119979291 1 0 0 forward_v I I I I #
loop $-1 $-1 $304 $73 #
coedge $-1 $187 $187 $188 $305 reversed $114 $-1 #
coedge $-1 $188 $188 $187 $305 forward $116 $-1 #
coedge $-1 $189 $189 $117 $190 forward $184 $-1 #
edge $-1 $306 1.6498360804101847e-015 $306 6.2831853071796022 $189 $307 forward 7 unknown #
loop $-1 $-1 $196 $118 #
plane-surface $-1 -32.61784256451439 -12.198588797519449 55.225416338351678 0 0.73135370988377701 0.68199835119979291 1 0 0 forward_v I I I I #
loop $-1 $-1 $308 $76 #
coedge $-1 $194 $194 $195 $309 reversed $119 $-1 #
coedge $-1 $195 $195 $194 $309 forward $121 $-1 #
coedge $-1 $196 $196 $122 $197 forward $191 $-1 #
edge $-1 $310 1.6498360804101847e-015 $310 6.2831853071796022 $196 $311 forward 7 unknown #
face $-1 $312 $313 $41 $-1 $314 forward single #
loop $-1 $-1 $315 $123 #
plane-surface $-1 41.762353008941098 101.47538777310592 161.22811181631724 -1 0 0 0 0.73135370988377701 0.68199835119979291 forward_v I I I I #
coedge $-1 $316 $317 $318 $319 reversed $124 $-1 #
coedge $-1 $203 $126 $320 $321 reversed $80 $-1 #
coedge $-1 $126 $202 $316 $322 reversed $80 $-1 #
coedge $-1 $318 $323 $126 $205 forward $313 $-1 #
edge $-1 $324 17.224783695052956 $325 22.720337809241762 $204 $326 forward 7 unknown #
loop $-1 $-1 $211 $127 #
plane-surface $-1 34.36329522674437 -12.198588797519449 55.225416338351678 0 0.73135370988377701 0.68199835119979291 1 0 0 forward_v I I I I #
loop $-1 $-1 $327 $82 #
coedge $-1 $209 $209 $210 $328 reversed $128 $-1 #
coedge $-1 $210 $210 $209 $328 forward $130 $-1 #
coedge $-1 $211 $211 $131 $212 forward $206 $-1 #
edge $-1 $329 1.6498360804101847e-015 $329 6.2831853071796022 $211 $330 forward 7 unknown #
loop $-1 $-1 $218 $132 #
plane-surface $-1 34.36329522674437 -12.198588797519449 55.225416338351678 0 0.73135370988377701 0.68199835119979291 1 0 0 forward_v I I I I #
loop $-1 $-1 $331 $85 #
coedge $-1 $216 $216 $217 $332 reversed $133 $-1 #
coedge $-1 $217 $217 $216 $332 forward $135 $-1 #
coedge $-1 $218 $218 $136 $219 forward $213 $-1 #
edge $-1 $333 1.6498360804101847e-015 $333 6.2831853071796022 $218 $334 forward 7 unknown #
face $-1 $335 $336 $33 $-1 $337 reversed single #
loop $-1 $-1 $338 $137 #
plane-surface $-1 -77.714774010437338 0 0 1 0 0 0 0 -1 forward_v I I I I #
coedge $-1 $339 $231 $340 $341 forward $138 $-1 #
coedge $-1 $342 $140 $339 $343 forward $89 $-1 #
coedge $-1 $140 $342 $344 $345 forward $89 $-1 #
coedge $-1 $234 $233 $140 $227 reversed $235 $-1 #
edge $-1 $346 -33.512910191500005 $347 33.512910191500005 $226 $348 forward 7 unknown #
coedge $-1 $142 $141 $349 $350 forward $56 $-1 #
coedge $-1 $351 $352 $141 $230 reversed $336 $-1 #
edge $-1 $237 -77.714774010437338 $353 77.714774010437338 $229 $354 forward 7 unknown #
coedge $-1 $223 $355 $142 $232 reversed $138 $-1 #
edge $-1 $356 -77.714774010437338 $236 77.714774010437338 $231 $357 forward 7 unknown #
coedge $-1 $226 $143 $355 $358 forward $235 $-1 #
coedge $-1 $143 $226 $351 $359 reversed $235 $-1 #
loop $-1 $-1 $233 $335 #
vertex $-1 $144 $360 #
vertex $-1 $144 $361 #
straight-curve $-1 77.714774010437338 0 12.0990943627249 0 1 0 I I #
face $-1 $362 $251 $34 $-1 $363 reversed single #
loop $-1 $-1 $364 $145 #
plane-surface $-1 -88.448410229615916 -26.569736754943463 0 1 0 0 0 0 -1 forward_v I I I I #
coedge $-1 $365 $366 $367 $368 forward $146 $-1 #
coedge $-1 $369 $148 $365 $370 forward $93 $-1 #
coedge $-1 $148 $369 $249 $371 forward $93 $-1 #
edge $-1 $252 23.539516780954333 $372 29.599956728932593 $148 $373 forward 7 unknown #
coedge $-1 $150 $149 $374 $375 forward $59 $-1 #
coedge $-1 $376 $377 $149 $248 forward $378 $-1 #
edge $-1 $379 -29.599956728932593 $253 -23.539516780954333 $247 $380 forward 7 unknown #
coedge $-1 $381 $151 $244 $371 reversed $251 $-1 #
coedge $-1 $151 $381 $376 $382 reversed $251 $-1 #
loop $-1 $-1 $151 $239 #
vertex $-1 $245 $383 #
vertex $-1 $382 $384 #
straight-curve $-1 -77.714774010437338 -23.539516780954333 0 0 0 1 I I #
face $-1 $385 $386 $35 $-1 $387 reversed single #
loop $-1 $-1 $388 $153 #
plane-surface $-1 83.081592120026642 -23.539516780954333 0 0 -1 0 0 0 -1 forward_v I I I I #
coedge $-1 $389 $156 $390 $391 forward $97 $-1 #
coedge $-1 $156 $389 $264 $392 forward $97 $-1 #
edge $-1 $266 -29.599956728932593 $393 -23.539516780954333 $156 $394 forward 7 unknown #
coedge $-1 $158 $157 $395 $396 forward $62 $-1 #
coedge $-1 $397 $398 $157 $263 forward $399 $-1 #
edge $-1 $400 23.539516780954333 $267 29.599956728932593 $262 $401 forward 7 unknown #
coedge $-1 $402 $159 $259 $392 reversed $154 $-1 #
coedge $-1 $159 $402 $397 $403 reversed $154 $-1 #
vertex $-1 $260 $404 #
vertex $-1 $403 $405 #
straight-curve $-1 77.714774010437338 -29.599956728932593 0 0 0 1 I I #
face $-1 $-1 $406 $36 $-1 $407 reversed single #
loop $-1 $-1 $167 $161 #
plane-surface $-1 0 0 12.0990943627249 0 0 1 1 0 0 forward_v I I I I #
coedge $-1 $408 $409 $410 $411 reversed $162 $-1 #
coedge $-1 $412 $164 $166 $279 forward $101 $-1 #
coedge $-1 $164 $412 $408 $413 forward $101 $-1 #
coedge $-1 $410 $167 $164 $276 forward $270 $-1 #
edge $-1 $282 3.4801601120629506 $414 25.224755440922344 $275 $415 forward 7 unknown #
coedge $-1 $416 $417 $165 $278 forward $406 $-1 #
edge $-1 $418 -54.478559111973212 $281 -47.096320636123714 $277 $419 forward 7 unknown #
edge $-1 $282 -10.824422491872115 $418 -9.4367341760026555e-015 $166 $420 forward 7 unknown #
coedge $-1 $167 $410 $416 $421 forward $270 $-1 #
vertex $-1 $168 $422 #
vertex $-1 $168 $423 #
straight-curve $-1 -17.8326178885556 -69.757804153640961 12.099094362724898 0 1 0 I I #
coedge $-1 $284 $284 $-1 $424 reversed $171 $-1 #
edge $-1 $425 0 $425 6.2831853071796004 $172 $426 forward 7 unknown #
vertex $-1 $175 $427 #
ellipse-curve $-1 -28.704915552985298 -29.554669503762774 8.4079751248001511 0 -0.68199836817093118 0.7313536940579346 2.5 0 0 1 I I #
face $-1 $-1 $300 $38 $-1 $428 forward single #
loop $-1 $-1 $429 $176 #
plane-surface $-1 0 33.512910191500005 0 0 -1 0 0 0 -1 forward_v I I I I #
coedge $-1 $430 $431 $432 $433 reversed $177 $-1 #
coedge $-1 $434 $179 $181 $298 forward $110 $-1 #
coedge $-1 $179 $434 $430 $435 forward $110 $-1 #
coedge $-1 $432 $182 $179 $295 forward $300 $-1 #
edge $-1 $302 -23.707979064453923 $436 -8.9098635000604673 $294 $437 forward 7 unknown #
coedge $-1 $438 $439 $180 $297 forward $289 $-1 #
edge $-1 $440 -74.408221964917644 $301 -68.514961545433721 $296 $441 forward 7 unknown #
edge $-1 $302 58.967803667093165 $440 67.025820382999953 $181 $442 forward 7 unknown #
coedge $-1 $182 $432 $438 $443 forward $300 $-1 #
loop $-1 $-1 $432 $288 #
vertex $-1 $297 $444 #
vertex $-1 $183 $445 #
straight-curve $-1 -40.016900346711118 50.737693886552961 12.099094362724898 0 -1 0 I I #
coedge $-1 $304 $304 $-1 $446 reversed $186 $-1 #
edge $-1 $447 0 $447 6.2831853071796004 $187 $448 forward 7 unknown #
vertex $-1 $190 $449 #
ellipse-curve $-1 -35.788867328312989 30.765133134405598 9.1524641529829385 0 0.73135370988377701 0.68199835119979291 2 0 0 1 I I #
coedge $-1 $308 $308 $-1 $450 reversed $193 $-1 #
edge $-1 $451 0 $451 6.2831853071796004 $194 $452 forward 7 unknown #
vertex $-1 $197 $453 #
ellipse-curve $-1 -29.446817800715792 30.765133134405598 9.1524641529829385 0 0.73135370988377701 0.68199835119979291 2 0 0 1 I I #
face $-1 $-1 $454 $41 $-1 $455 reversed single #
loop $-1 $-1 $204 $198 #
plane-surface $-1 0 0 12.0990943627249 0 0 1 1 0 0 forward_v I I I I #
coedge $-1 $456 $457 $458 $459 reversed $199 $-1 #
coedge $-1 $460 $201 $203 $322 forward $124 $-1 #
coedge $-1 $201 $460 $456 $461 forward $124 $-1 #
coedge $-1 $458 $204 $201 $319 forward $313 $-1 #
edge $-1 $325 9.7825898311754571 $462 24.580705395568913 $318 $463 forward 7 unknown #
coedge $-1 $464 $465 $202 $321 forward $454 $-1 #
edge $-1 $466 -74.408221964917644 $324 -68.514961545433721 $320 $467 forward 7 unknown #
edge $-1 $325 58.967803667093165 $466 67.025820382999953 $203 $468 forward 7 unknown #
coedge $-1 $204 $458 $464 $469 forward $313 $-1 #
vertex $-1 $321 $470 #
vertex $-1 $205 $471 #
straight-curve $-1 26.964237444547642 50.737693886552961 12.099094362724898 0 -1 0 I I #
coedge $-1 $327 $327 $-1 $472 reversed $208 $-1 #
edge $-1 $473 0 $473 6.2831853071796004 $209 $474 forward 7 unknown #
vertex $-1 $212 $475 #
ellipse-curve $-1 31.192270462945771 30.765133134405598 9.1524641529829385 0 0.73135370988377701 0.68199835119979291 2 0 0 1 I I #
coedge $-1 $331 $331 $-1 $476 reversed $215 $-1 #
edge $-1 $477 0 $477 6.2831853071796004 $216 $478 forward 7 unknown #
vertex $-1 $219 $479 #
ellipse-curve $-1 37.534319990542969 30.765133134405598 9.1524641529829385 0 0.73135370988377701 0.68199835119979291 2 0 0 1 I I #
face $-1 $-1 $235 $33 $-1 $480 reversed single #
loop $-1 $-1 $351 $220 #
plane-surface $-1 0 33.512910191500005 0 0 -1 0 0 0 -1 forward_v I I I I #
coedge $-1 $481 $349 $352 $482 forward $221 $-1 #
coedge $-1 $355 $223 $224 $343 reversed $138 $-1 #
coedge $-1 $349 $481 $223 $341 reversed $221 $-1 #
edge $-1 $356 -12.0990943627249 $483 12.0990943627249 $340 $484 forward 7 unknown #
coedge $-1 $225 $224 $481 $485 forward $89 $-1 #
edge $-1 $347 -77.714774010437338 $483 77.714774010437338 $339 $486 forward 7 unknown #
coedge $-1 $352 $351 $225 $345 reversed $336 $-1 #
edge $-1 $487 -77.714774010437338 $346 77.714774010437338 $344 $488 forward 7 unknown #
vertex $-1 $227 $489 #
vertex $-1 $358 $490 #
straight-curve $-1 77.714774010437338 0 -12.0990943627249 0 -1 0 I I #
coedge $-1 $338 $340 $228 $350 reversed $221 $-1 #
edge $-1 $353 -33.512910191500005 $356 33.512910191500005 $349 $491 forward 7 unknown #
coedge $-1 $344 $229 $234 $359 forward $336 $-1 #
coedge $-1 $229 $344 $338 $482 reversed $336 $-1 #
vertex $-1 $230 $492 #
straight-curve $-1 0 33.512910191500005 12.0990943627249 -1 0 0 I I #
coedge $-1 $231 $339 $233 $358 reversed $138 $-1 #
vertex $-1 $350 $493 #
straight-curve $-1 0 -33.512910191500005 12.0990943627249 1 0 0 I I #
edge $-1 $236 -12.0990943627249 $347 12.0990943627249 $233 $494 forward 7 unknown #
edge $-1 $237 -12.0990943627249 $346 12.0990943627249 $234 $495 forward 7 unknown #
point $-1 77.714774010437338 -33.512910191500005 12.0990943627249 #
point $-1 77.714774010437338 33.512910191500005 12.0990943627249 #
face $-1 $-1 $378 $34 $-1 $496 forward single #
plane-surface $-1 -83.081592120026627 -23.539516780954333 0 0 -1 0 0 0 -1 forward_v I I I I #
coedge $-1 $497 $498 $381 $499 forward $240 $-1 #
coedge $-1 $374 $242 $243 $370 reversed $146 $-1 #
coedge $-1 $242 $374 $377 $500 reversed $146 $-1 #
coedge $-1 $498 $497 $242 $368 reversed $240 $-1 #
edge $-1 $501 -12.0990943627249 $502 12.0990943627249 $367 $503 forward 7 unknown #
coedge $-1 $244 $243 $497 $504 forward $93 $-1 #
edge $-1 $372 -5.3668181095892891 $502 5.3668181095892891 $365 $505 forward 7 unknown #
edge $-1 $506 -5.3668181095892891 $252 5.3668181095892891 $249 $507 forward 7 unknown #
vertex $-1 $370 $508 #
straight-curve $-1 -77.714774010437338 0 -12.0990943627249 0 -1 0 I I #
coedge $-1 $366 $365 $246 $375 reversed $146 $-1 #
edge $-1 $379 -12.0990943627249 $372 12.0990943627249 $374 $509 forward 7 unknown #
coedge $-1 $510 $247 $250 $382 forward $378 $-1 #
coedge $-1 $247 $510 $366 $500 forward $378 $-1 #
loop $-1 $-1 $247 $362 #
vertex $-1 $248 $511 #
straight-curve $-1 -77.714774010437338 0 12.0990943627249 0 1 0 I I #
coedge $-1 $250 $249 $364 $499 reversed $251 $-1 #
edge $-1 $253 -5.3668181095892891 $512 5.3668181095892891 $250 $513 forward 7 unknown #
point $-1 -77.714774010437338 -23.539516780954333 -12.0990943627249 #
point $-1 -77.714774010437338 -23.539516780954333 12.0990943627249 #
face $-1 $-1 $399 $35 $-1 $514 forward single #
loop $-1 $-1 $515 $255 #
plane-surface $-1 88.448410229615931 -26.569736754943463 0 -1 0 0 0 0 1 forward_v I I I I #
coedge $-1 $390 $516 $517 $518 forward $256 $-1 #
coedge $-1 $259 $258 $519 $520 forward $97 $-1 #
coedge $-1 $395 $388 $258 $391 reversed $256 $-1 #
edge $-1 $393 -5.3668181095892891 $521 5.3668181095892891 $390 $522 forward 7 unknown #
edge $-1 $523 -5.3668181095892891 $266 5.3668181095892891 $264 $524 forward 7 unknown #
vertex $-1 $391 $525 #
straight-curve $-1 77.714774010437338 0 -12.0990943627249 0 1 0 I I #
coedge $-1 $516 $390 $261 $396 reversed $256 $-1 #
edge $-1 $400 -12.0990943627249 $393 12.0990943627249 $395 $526 forward 7 unknown #
coedge $-1 $527 $262 $265 $403 forward $399 $-1 #
coedge $-1 $262 $527 $516 $528 forward $399 $-1 #
loop $-1 $-1 $262 $385 #
vertex $-1 $263 $529 #
straight-curve $-1 77.714774010437338 0 12.0990943627249 0 -1 0 I I #
coedge $-1 $265 $264 $515 $530 reversed $154 $-1 #
edge $-1 $267 -5.3668181095892891 $531 5.3668181095892891 $265 $532 forward 7 unknown #
point $-1 77.714774010437353 -29.599956728932593 -12.0990943627249 #
point $-1 77.714774010437353 -29.599956728932593 12.0990943627249 #
loop $-1 $-1 $277 $269 #
plane-surface $-1 0 -33.512910191500005 0 0 1 0 0 0 1 forward_v I I I I #
coedge $-1 $409 $272 $274 $413 reversed $162 $-1 #
coedge $-1 $272 $408 $533 $534 reversed $162 $-1 #
coedge $-1 $280 $275 $272 $411 forward $270 $-1 #
edge $-1 $414 -44.161375337615411 $535 -36.244893962140956 $410 $536 forward 7 unknown #
coedge $-1 $274 $273 $417 $537 reversed $101 $-1 #
edge $-1 $538 9.4367341760026555e-015 $414 10.824422491872115 $408 $539 forward 7 unknown #
vertex $-1 $276 $540 #
straight-curve $-1 -14.352457776492649 -25.596428816025551 12.0990943627249 -1 0 0 I I #
coedge $-1 $533 $277 $280 $421 reversed $406 $-1 #
coedge $-1 $277 $533 $412 $537 forward $406 $-1 #
vertex $-1 $278 $541 #
straight-curve $-1 -17.8326178885556 -33.512910191500005 59.195414998848612 0 0 1 I I #
straight-curve $-1 -17.8326178885556 -33.512910191500012 4.7168558868753934 0 -0.7313536940579346 -0.68199836817093118 I I #
edge $-1 $535 -39.577213217414993 $281 -17.8326178885556 $416 $542 forward 7 unknown #
point $-1 -17.8326178885556 -33.512910191500005 12.0990943627249 #
point $-1 -17.8326178885556 -25.596428816025547 12.0990943627249 #
edge $-1 $543 1 $543 0 $284 $-1 forward 7 unknown #
vertex $-1 $285 $544 #
ellipse-curve $-1 -28.704915552985298 -25.564655398892373 4.1292089412880264 0 -0.68199836817093118 0.7313536940579346 2.5 0 0 1 I I #
point $-1 -26.204915552985298 -29.55466950376276 8.4079751248001333 #
plane-surface $-1 0 0 12.0990943627249 0 0 1 1 0 0 forward_v I I I I #
coedge $-1 $439 $438 $431 $545 forward $289 $-1 #
coedge $-1 $431 $291 $293 $435 reversed $177 $-1 #
coedge $-1 $291 $430 $429 $545 reversed $177 $-1 #
coedge $-1 $299 $294 $291 $433 forward $300 $-1 #
edge $-1 $436 -22.720337809241762 $546 -17.224783695052956 $432 $547 forward 7 unknown #
coedge $-1 $293 $292 $439 $548 reversed $110 $-1 #
edge $-1 $549 -67.025820382999953 $436 -58.967803667093165 $430 $550 forward 7 unknown #
vertex $-1 $295 $551 #
straight-curve $-1 -16.308921282257195 28.017356077311192 12.099094362724898 1 0 0 I I #
coedge $-1 $429 $296 $299 $443 reversed $289 $-1 #
coedge $-1 $296 $429 $434 $548 forward $289 $-1 #
vertex $-1 $297 $552 #
straight-curve $-1 -40.016900346711118 33.512910191500005 80.614055908158619 0 0 1 I I #
straight-curve $-1 -40.016900346711118 -12.198588797519449 55.225416338351678 0 0.68199835119979291 -0.73135370988377701 I I #
edge $-1 $546 25.218784782317663 $301 40.016900346711118 $438 $553 forward 7 unknown #
point $-1 -40.016900346711118 33.512910191500005 12.0990943627249 #
point $-1 -40.016900346711118 28.017356077311199 12.099094362724898 #
edge $-1 $554 1 $554 0 $304 $-1 forward 7 unknown #
vertex $-1 $305 $555 #
ellipse-curve $-1 -35.788867328312989 27.79356089651116 6.3814282789225665 0 0.73135370988377701 0.68199835119979291 2 0 0 1 I I #
point $-1 -33.788867328312989 30.765133134405584 9.1524641529829207 #
edge $-1 $556 1 $556 0 $308 $-1 forward 7 unknown #
vertex $-1 $309 $557 #
ellipse-curve $-1 -29.446817800715792 27.79356089651116 6.3814282789225665 0 0.73135370988377701 0.68199835119979291 2 0 0 1 I I #
point $-1 -27.446817800715792 30.765133134405584 9.1524641529829207 #
loop $-1 $-1 $320 $312 #
plane-surface $-1 0 33.512910191500005 0 0 -1 0 0 0 -1 forward_v I I I I #
coedge $-1 $457 $315 $317 $461 reversed $199 $-1 #
coedge $-1 $315 $456 $558 $559 reversed $199 $-1 #
coedge $-1 $323 $318 $315 $459 forward $313 $-1 #
edge $-1 $462 -22.720337809241762 $560 -17.224783695052956 $458 $561 forward 7 unknown #
coedge $-1 $317 $316 $465 $562 reversed $124 $-1 #
edge $-1 $563 -67.025820382999953 $462 -58.967803667093165 $456 $564 forward 7 unknown #
vertex $-1 $319 $565 #
straight-curve $-1 17.181647613372185 28.017356077311192 12.099094362724898 1 0 0 I I #
coedge $-1 $558 $320 $323 $469 reversed $454 $-1 #
coedge $-1 $320 $558 $460 $562 forward $454 $-1 #
vertex $-1 $321 $566 #
straight-curve $-1 26.964237444547642 33.512910191500005 80.614055908158619 0 0 1 I I #
straight-curve $-1 26.964237444547642 -12.198588797519449 55.225416338351678 0 0.68199835119979291 -0.73135370988377701 I I #
edge $-1 $560 -41.762353008941098 $324 -26.964237444547642 $464 $567 forward 7 unknown #
point $-1 26.964237444547642 33.512910191500005 12.0990943627249 #
point $-1 26.964237444547642 28.017356077311199 12.099094362724898 #
edge $-1 $568 1 $568 0 $327 $-1 forward 7 unknown #
vertex $-1 $328 $569 #
ellipse-curve $-1 31.192270462945771 27.79356089651116 6.3814282789225665 0 0.73135370988377701 0.68199835119979291 2 0 0 1 I I #
point $-1 33.192270462945771 30.765133134405584 9.1524641529829207 #
edge $-1 $570 1 $570 0 $331 $-1 forward 7 unknown #
vertex $-1 $332 $571 #
ellipse-curve $-1 37.534319990542969 27.79356089651116 6.3814282789225665 0 0.73135370988377701 0.68199835119979291 2 0 0 1 I I #
point $-1 39.534319990542969 30.765133134405584 9.1524641529829207 #
plane-surface $-1 77.714774010437338 0 0 -1 0 0 0 0 1 forward_v I I I I #
coedge $-1 $340 $338 $342 $485 reversed $221 $-1 #
edge $-1 $353 -12.0990943627249 $487 12.0990943627249 $352 $572 forward 7 unknown #
vertex $-1 $485 $573 #
straight-curve $-1 -77.714774010437338 -33.512910191500005 0 0 0 -1 I I #
edge $-1 $483 -33.512910191500005 $487 33.512910191500005 $481 $574 forward 7 unknown #
straight-curve $-1 0 -33.512910191500005 -12.0990943627249 -1 0 0 I I #
vertex $-1 $345 $575 #
straight-curve $-1 0 33.512910191500005 -12.0990943627249 1 0 0 I I #
point $-1 77.714774010437338 33.512910191500005 -12.0990943627249 #
point $-1 77.714774010437338 -33.512910191500005 -12.0990943627249 #
straight-curve $-1 -77.714774010437338 0 12.0990943627249 0 -1 0 I I #
point $-1 -77.714774010437338 33.512910191500005 12.0990943627249 #
point $-1 -77.714774010437338 -33.512910191500005 12.0990943627249 #
straight-curve $-1 77.714774010437338 -33.512910191500005 0 0 0 -1 I I #
straight-curve $-1 77.714774010437338 33.512910191500005 0 0 0 -1 I I #
plane-surface $-1 0 0 12.0990943627249 0 0 1 1 0 0 forward_v I I I I #
coedge $-1 $367 $364 $369 $504 reversed $240 $-1 #
coedge $-1 $364 $367 $510 $576 reversed $240 $-1 #
edge $-1 $512 -12.0990943627249 $506 12.0990943627249 $381 $577 forward 7 unknown #
edge $-1 $501 -5.3668181095892891 $379 5.3668181095892891 $366 $578 forward 7 unknown #
vertex $-1 $576 $579 #
vertex $-1 $504 $580 #
straight-curve $-1 -88.448410229615916 -29.599956728932593 0 0 0 -1 I I #
edge $-1 $502 -3.03021997398913 $506 3.03021997398913 $497 $581 forward 7 unknown #
straight-curve $-1 -83.081592120026627 -29.599956728932593 -12.0990943627249 -1 0 0 I I #
vertex $-1 $371 $582 #
straight-curve $-1 -83.081592120026627 -23.539516780954333 -12.0990943627249 1 0 0 I I #
point $-1 -77.714774010437338 -29.599956728932593 -12.0990943627249 #
straight-curve $-1 -77.714774010437338 -29.599956728932593 0 0 0 -1 I I #
coedge $-1 $377 $376 $498 $576 forward $378 $-1 #
point $-1 -77.714774010437338 -29.599956728932593 12.0990943627249 #
vertex $-1 $382 $583 #
straight-curve $-1 -83.081592120026627 -23.539516780954333 12.0990943627249 -1 0 0 I I #
plane-surface $-1 0 0 12.0990943627249 0 0 1 1 0 0 forward_v I I I I #
coedge $-1 $519 $584 $402 $530 forward $386 $-1 #
coedge $-1 $388 $395 $398 $528 reversed $256 $-1 #
coedge $-1 $584 $519 $388 $518 reversed $386 $-1 #
edge $-1 $585 -12.0990943627249 $521 12.0990943627249 $517 $586 forward 7 unknown #
coedge $-1 $517 $515 $389 $520 reversed $386 $-1 #
edge $-1 $521 -3.03021997398913 $523 3.03021997398913 $519 $587 forward 7 unknown #
vertex $-1 $520 $588 #
straight-curve $-1 83.081592120026642 -23.539516780954333 -12.0990943627249 1 0 0 I I #
vertex $-1 $530 $589 #
straight-curve $-1 83.081592120026642 -29.599956728932593 -12.0990943627249 -1 0 0 I I #
point $-1 77.714774010437353 -23.539516780954333 -12.0990943627249 #
straight-curve $-1 77.714774010437338 -23.539516780954333 0 0 0 -1 I I #
coedge $-1 $398 $397 $584 $590 forward $399 $-1 #
edge $-1 $585 -5.3668181095892891 $400 5.3668181095892891 $516 $591 forward 7 unknown #
point $-1 77.714774010437353 -23.539516780954333 12.0990943627249 #
edge $-1 $531 -12.0990943627249 $523 12.0990943627249 $515 $592 forward 7 unknown #
vertex $-1 $590 $593 #
straight-curve $-1 83.081592120026642 -29.599956728932593 12.0990943627249 1 0 0 I I #
coedge $-1 $417 $416 $409 $534 forward $406 $-1 #
edge $-1 $535 47.096320636123714 $538 54.478559111973212 $533 $594 forward 7 unknown #
vertex $-1 $421 $595 #
straight-curve $-1 -39.577213217414993 -69.757804153640961 12.099094362724898 0 -1 0 I I #
edge $-1 $538 -25.224755440922344 $418 -3.4801601120629506 $417 $596 forward 7 unknown #
vertex $-1 $537 $597 #
straight-curve $-1 -39.577213217414993 -33.512910191500012 4.7168558868753934 0 0.7313536940579346 0.68199836817093118 I I #
point $-1 -39.577213217414993 -25.596428816025547 12.0990943627249 #
point $-1 -17.8326178885556 -33.512910191500005 4.7168558868753996 #
straight-curve $-1 0 -33.512910191500005 12.0990943627249 1 0 0 I I #
vertex $-1 $424 $598 #
point $-1 -26.204915552985298 -25.564655398892373 4.1292089412880264 #
edge $-1 $546 68.514961545433721 $549 74.408221964917644 $429 $599 forward 7 unknown #
vertex $-1 $443 $600 #
straight-curve $-1 -25.218784782317663 50.737693886552961 12.099094362724898 0 1 0 I I #
edge $-1 $549 8.9098635000604673 $440 23.707979064453923 $439 $601 forward 7 unknown #
vertex $-1 $548 $602 #
straight-curve $-1 -25.218784782317663 -12.198588797519449 55.225416338351678 0 -0.68199835119979291 0.73135370988377701 I I #
point $-1 -25.218784782317663 28.017356077311199 12.099094362724898 #
point $-1 -40.016900346711118 33.512910191499998 6.2058339432409753 #
straight-curve $-1 0 33.512910191500005 12.0990943627249 -1 0 0 I I #
vertex $-1 $446 $603 #
point $-1 -33.788867328312989 27.79356089651116 6.3814282789225665 #
vertex $-1 $450 $604 #
point $-1 -27.446817800715792 27.79356089651116 6.3814282789225665 #
coedge $-1 $465 $464 $457 $559 forward $454 $-1 #
edge $-1 $560 68.514961545433721 $563 74.408221964917644 $558 $605 forward 7 unknown #
vertex $-1 $469 $606 #
straight-curve $-1 41.762353008941098 50.737693886552961 12.099094362724898 0 1 0 I I #
edge $-1 $563 -24.580705395568913 $466 -9.7825898311754571 $465 $607 forward 7 unknown #
vertex $-1 $562 $608 #
straight-curve $-1 41.762353008941098 -12.198588797519449 55.225416338351678 0 -0.68199835119979291 0.73135370988377701 I I #
point $-1 41.762353008941098 28.017356077311199 12.099094362724898 #
point $-1 26.964237444547642 33.512910191499998 6.2058339432409753 #
straight-curve $-1 0 33.512910191500005 12.0990943627249 -1 0 0 I I #
vertex $-1 $472 $609 #
point $-1 33.192270462945771 27.79356089651116 6.3814282789225665 #
vertex $-1 $476 $610 #
point $-1 39.534319990542969 27.79356089651116 6.3814282789225665 #
straight-curve $-1 -77.714774010437338 33.512910191500005 0 0 0 -1 I I #
point $-1 -77.714774010437338 -33.512910191500005 -12.0990943627249 #
straight-curve $-1 -77.714774010437338 0 -12.0990943627249 0 1 0 I I #
point $-1 -77.714774010437338 33.512910191500005 -12.0990943627249 #
edge $-1 $512 -3.03021997398913 $501 3.03021997398913 $498 $611 forward 7 unknown #
straight-curve $-1 -88.448410229615916 -23.539516780954333 0 0 0 -1 I I #
straight-curve $-1 -83.081592120026627 -29.599956728932593 12.0990943627249 1 0 0 I I #
point $-1 -88.448410229615916 -29.599956728932593 12.0990943627249 #
point $-1 -88.448410229615916 -29.599956728932593 -12.0990943627249 #
straight-curve $-1 -88.448410229615916 -26.569736754943463 -12.0990943627249 0 1 0 I I #
point $-1 -88.448410229615916 -23.539516780954333 -12.0990943627249 #
point $-1 -88.448410229615916 -23.539516780954333 12.0990943627249 #
coedge $-1 $515 $517 $527 $590 reversed $386 $-1 #
vertex $-1 $590 $612 #
straight-curve $-1 88.448410229615931 -23.539516780954333 0 0 0 -1 I I #
straight-curve $-1 88.448410229615931 -26.569736754943463 -12.0990943627249 0 -1 0 I I #
point $-1 88.448410229615931 -23.539516780954333 -12.0990943627249 #
point $-1 88.448410229615931 -29.599956728932593 -12.0990943627249 #
edge $-1 $531 -3.03021997398913 $585 3.03021997398913 $584 $613 forward 7 unknown #
straight-curve $-1 83.081592120026642 -23.539516780954333 12.0990943627249 -1 0 0 I I #
straight-curve $-1 88.448410229615931 -29.599956728932593 0 0 0 -1 I I #
point $-1 88.448410229615931 -29.599956728932593 12.0990943627249 #
straight-curve $-1 -39.577213217414993 -33.512910191500005 59.195414998848612 0 0 -1 I I #
point $-1 -39.577213217414993 -33.512910191500005 12.0990943627249 #
straight-curve $-1 -14.352457776492649 -33.512910191500005 4.7168558868754022 1 0 0 I I #
point $-1 -39.577213217414993 -33.512910191500005 4.7168558868753996 #
point $-1 -28.704915552985298 -23.859659478465044 2.3008247061431897 #
straight-curve $-1 -25.218784782317663 33.512910191500005 80.614055908158619 0 0 -1 I I #
point $-1 -25.218784782317663 33.512910191500005 12.0990943627249 #
straight-curve $-1 -16.308921282257195 33.512910191500005 6.2058339432409682 -1 0 0 I I #
point $-1 -25.218784782317663 33.512910191499998 6.2058339432409753 #
point $-1 -35.788867328312989 26.330853476743606 5.0174315765229807 #
point $-1 -29.446817800715792 26.330853476743606 5.0174315765229807 #
straight-curve $-1 41.762353008941098 33.512910191500005 80.614055908158619 0 0 -1 I I #
point $-1 41.762353008941098 33.512910191500005 12.0990943627249 #
straight-curve $-1 17.181647613372185 33.512910191500005 6.2058339432409682 -1 0 0 I I #
point $-1 41.762353008941098 33.512910191499998 6.2058339432409753 #
point $-1 31.192270462945771 26.330853476743606 5.0174315765229807 #
point $-1 37.534319990542969 26.330853476743606 5.0174315765229807 #
straight-curve $-1 -88.448410229615916 -26.569736754943463 12.0990943627249 0 -1 0 I I #
point $-1 88.448410229615931 -23.539516780954333 12.0990943627249 #
straight-curve $-1 88.448410229615931 -26.569736754943463 12.0990943627249 0 1 0 I I #
End-of-ACIS-data 