500 0 19 0           
7 Unknown 11 ACIS 5.0 NT 24 Thu Mar 25 19:28:14 1999 
-1 9.9999999999999995e-007 1e-010 
body $-1 $19 $-1 $20 #
body $-1 $21 $-1 $22 #
body $-1 $23 $-1 $24 #
body $-1 $25 $-1 $26 #
body $-1 $27 $-1 $28 #
body $-1 $29 $-1 $30 #
body $-1 $31 $-1 $32 #
body $-1 $33 $-1 $34 #
body $-1 $35 $-1 $36 #
body $-1 $37 $-1 $38 #
body $-1 $39 $-1 $40 #
body $-1 $41 $-1 $42 #
body $-1 $43 $-1 $44 #
body $-1 $45 $-1 $46 #
body $-1 $47 $-1 $48 #
body $-1 $49 $-1 $50 #
body $-1 $51 $-1 $52 #
body $-1 $53 $-1 $54 #
body $-1 $55 $-1 $56 #
lump $-1 $-1 $57 $0 #
transform $-1 1 0 0 0 1 0 0 0 1 47.80907620471816 28.122247889186642 7.5732757835313542 1 rotate no_reflect no_shear #
lump $-1 $-1 $58 $1 #
transform $-1 1 0 0 0 1 0 0 0 1 47.80907620471816 28.122247889186642 7.5732757835313542 1 rotate no_reflect no_shear #
lump $-1 $-1 $59 $2 #
transform $-1 1 0 0 0 1 0 0 0 1 47.80907620471816 28.122247889186642 7.5732757835313542 1 rotate no_reflect no_shear #
lump $-1 $-1 $60 $3 #
transform $-1 1 0 0 0 1 0 0 0 1 47.80907620471816 28.122247889186642 7.5732757835313542 1 rotate no_reflect no_shear #
lump $-1 $-1 $61 $4 #
transform $-1 1 0 0 0 1 0 0 0 1 47.80907620471816 28.122247889186642 7.5732757835313542 1 rotate no_reflect no_shear #
lump $-1 $-1 $62 $5 #
transform $-1 1 0 0 0 1 0 0 0 1 47.80907620471816 28.122247889186642 7.5732757835313542 1 rotate no_reflect no_shear #
lump $-1 $-1 $63 $6 #
transform $-1 1 0 0 0 1 0 0 0 1 47.80907620471816 28.122247889186642 7.5732757835313542 1 rotate no_reflect no_shear #
lump $-1 $-1 $64 $7 #
transform $-1 1 0 0 0 1 0 0 0 1 47.80907620471816 28.122247889186642 7.5732757835313542 1 rotate no_reflect no_shear #
lump $-1 $-1 $65 $8 #
transform $-1 1 0 0 0 1 0 0 0 1 47.80907620471816 28.122247889186642 7.5732757835313542 1 rotate no_reflect no_shear #
lump $-1 $-1 $66 $9 #
transform $-1 1 0 0 0 1 0 0 0 1 47.80907620471816 28.122247889186642 7.5732757835313542 1 rotate no_reflect no_shear #
lump $-1 $-1 $67 $10 #
transform $-1 1 0 0 0 1 0 0 0 1 47.80907620471816 28.122247889186642 7.5732757835313542 1 rotate no_reflect no_shear #
lump $-1 $-1 $68 $11 #
transform $-1 1 0 0 0 1 0 0 0 1 47.80907620471816 28.122247889186642 7.5732757835313542 1 rotate no_reflect no_shear #
lump $-1 $-1 $69 $12 #
transform $-1 1 0 0 0 1 0 0 0 1 47.80907620471816 28.122247889186642 7.5732757835313542 1 rotate no_reflect no_shear #
lump $-1 $-1 $70 $13 #
transform $-1 1 0 0 0 1 0 0 0 1 47.80907620471816 28.122247889186642 7.5732757835313542 1 rotate no_reflect no_shear #
lump $-1 $-1 $71 $14 #
transform $-1 1 0 0 0 1 0 0 0 1 47.80907620471816 28.122247889186642 7.5732757835313542 1 rotate no_reflect no_shear #
lump $-1 $-1 $72 $15 #
transform $-1 1 0 0 0 1 0 0 0 1 47.80907620471816 28.122247889186642 7.5732757835313542 1 rotate no_reflect no_shear #
lump $-1 $-1 $73 $16 #
transform $-1 1 0 0 0 1 0 0 0 1 47.80907620471816 28.122247889186642 7.5732757835313542 1 rotate no_reflect no_shear #
lump $-1 $-1 $74 $17 #
transform $-1 1 0 0 0 1 0 0 0 1 47.80907620471816 28.122247889186642 7.5732757835313542 1 rotate no_reflect no_shear #
lump $-1 $-1 $75 $18 #
transform $-1 1 0 0 0 1 0 0 0 1 47.80907620471816 28.122247889186642 7.5732757835313542 1 rotate no_reflect no_shear #
shell $-1 $-1 $-1 $76 $-1 $19 #
shell $-1 $-1 $-1 $77 $-1 $21 #
shell $-1 $-1 $-1 $78 $-1 $23 #
shell $-1 $-1 $-1 $79 $-1 $25 #
shell $-1 $-1 $-1 $80 $-1 $27 #
shell $-1 $-1 $-1 $81 $-1 $29 #
shell $-1 $-1 $-1 $82 $-1 $31 #
shell $-1 $-1 $-1 $83 $-1 $33 #
shell $-1 $-1 $-1 $84 $-1 $35 #
shell $-1 $-1 $-1 $85 $-1 $37 #
shell $-1 $-1 $-1 $86 $-1 $39 #
shell $-1 $-1 $-1 $87 $-1 $41 #
shell $-1 $-1 $-1 $88 $-1 $43 #
shell $-1 $-1 $-1 $89 $-1 $45 #
shell $-1 $-1 $-1 $90 $-1 $47 #
shell $-1 $-1 $-1 $91 $-1 $49 #
shell $-1 $-1 $-1 $92 $-1 $51 #
shell $-1 $-1 $-1 $93 $-1 $53 #
shell $-1 $-1 $-1 $94 $-1 $55 #
face $-1 $95 $96 $57 $-1 $97 forward single #
face $-1 $98 $99 $58 $-1 $100 forward single #
face $-1 $101 $102 $59 $-1 $103 forward single #
face $-1 $104 $105 $60 $-1 $106 reversed single #
face $-1 $107 $108 $61 $-1 $109 forward single #
face $-1 $110 $111 $62 $-1 $112 forward single #
face $-1 $113 $114 $63 $-1 $115 forward single #
face $-1 $116 $117 $64 $-1 $118 reversed single #
face $-1 $119 $120 $65 $-1 $121 forward single #
face $-1 $122 $123 $66 $-1 $124 forward single #
face $-1 $125 $126 $67 $-1 $127 forward single #
face $-1 $128 $129 $68 $-1 $130 reversed single #
face $-1 $131 $132 $69 $-1 $133 forward single #
face $-1 $134 $135 $70 $-1 $136 forward single #
face $-1 $137 $138 $71 $-1 $139 forward single #
face $-1 $140 $141 $72 $-1 $142 reversed single #
face $-1 $143 $144 $73 $-1 $145 forward single #
face $-1 $146 $147 $74 $-1 $148 forward single #
face $-1 $149 $150 $75 $-1 $151 forward single #
face $-1 $152 $153 $57 $-1 $154 reversed single #
loop $-1 $-1 $155 $76 #
plane-surface $-1 0 0 7.5732757835313542 0 0 1 1 0 0 forward_v I I I I #
face $-1 $156 $157 $58 $-1 $158 reversed single #
loop $-1 $-1 $159 $77 #
plane-surface $-1 0 -28.122247889186642 0 0 1 0 0 0 1 forward_v I I I I #
face $-1 $160 $161 $59 $-1 $162 reversed single #
loop $-1 $-1 $163 $78 #
plane-surface $-1 0 28.122247889186642 0 0 -1 0 0 0 -1 forward_v I I I I #
face $-1 $164 $165 $60 $-1 $166 reversed single #
loop $-1 $-1 $167 $79 #
plane-surface $-1 12.810404370257885 -12.656662771147722 133.64785766675618 0 -1 0 -0.50000000669873634 0 -0.8660253999169214 forward_v I I I I #
face $-1 $168 $169 $61 $-1 $170 forward single #
loop $-1 $171 $172 $80 #
cone-surface $-1 43.62537788773551 -20.009748483875253 4.8691412627162123 -0.50000000669873634 0 -0.8660253999169214 0.4330126999584607 0 -0.25000000334936817 1 I I 0 1 0.5 forward I I I I #
face $-1 $173 $174 $62 $-1 $175 forward single #
loop $-1 $176 $177 $81 #
cone-surface $-1 43.62537788773551 -17.252341341602431 4.8691412627162123 -0.50000000669873634 0 -0.8660253999169214 0.4330126999584607 0 -0.25000000334936817 1 I I 0 1 0.5 forward I I I I #
face $-1 $178 $179 $63 $-1 $180 forward single #
loop $-1 $181 $182 $82 #
cone-surface $-1 43.62537788773551 -14.494934199329606 4.8691412627162123 -0.50000000669873634 0 -0.8660253999169214 0.4330126999584607 0 -0.25000000334936817 1 I I 0 1 0.5 forward I I I I #
face $-1 $183 $184 $64 $-1 $185 reversed single #
loop $-1 $-1 $186 $83 #
plane-surface $-1 12.810404370257885 21.84801991205714 133.64785766675618 0 -1 0 -0.50000000669873634 0 -0.8660253999169214 forward_v I I I I #
face $-1 $187 $188 $65 $-1 $189 forward single #
loop $-1 $190 $191 $84 #
cone-surface $-1 43.62537788773551 14.494934199329609 4.8691412627162123 -0.50000000669873634 0 -0.8660253999169214 0.4330126999584607 0 -0.25000000334936817 1 I I 0 1 0.5 forward I I I I #
face $-1 $192 $193 $66 $-1 $194 forward single #
loop $-1 $195 $196 $85 #
cone-surface $-1 43.62537788773551 17.252341341602435 4.8691412627162123 -0.50000000669873634 0 -0.8660253999169214 0.4330126999584607 0 -0.25000000334936817 1 I I 0 1 0.5 forward I I I I #
face $-1 $197 $198 $67 $-1 $199 forward single #
loop $-1 $200 $201 $86 #
cone-surface $-1 43.62537788773551 20.009748483875253 4.8691412627162123 -0.50000000669873634 0 -0.8660253999169214 0.4330126999584607 0 -0.25000000334936817 1 I I 0 1 0.5 forward I I I I #
face $-1 $202 $203 $68 $-1 $204 reversed single #
loop $-1 $-1 $205 $87 #
plane-surface $-1 -95.618153049957115 -21.848019912057133 85.838780821517233 0 1 0 -0.50000000669873634 0 0.8660253999169214 forward_v I I I I #
face $-1 $206 $207 $69 $-1 $208 forward single #
loop $-1 $209 $210 $88 #
cone-surface $-1 -43.62537788773551 -20.009748483875253 4.8691412627162158 0.50000000669873634 0 -0.8660253999169214 0.4330126999584607 0 0.25000000334936817 1 I I 0 1 0.5 forward I I I I #
face $-1 $211 $212 $70 $-1 $213 forward single #
loop $-1 $214 $215 $89 #
cone-surface $-1 -43.62537788773551 -17.252341341602431 4.8691412627162158 0.50000000669873634 0 -0.8660253999169214 0.4330126999584607 0 0.25000000334936817 1 I I 0 1 0.5 forward I I I I #
face $-1 $216 $217 $71 $-1 $218 forward single #
loop $-1 $219 $220 $90 #
cone-surface $-1 -43.62537788773551 -14.494934199329606 4.8691412627162158 0.50000000669873634 0 -0.8660253999169214 0.4330126999584607 0 0.25000000334936817 1 I I 0 1 0.5 forward I I I I #
face $-1 $221 $222 $72 $-1 $223 reversed single #
loop $-1 $-1 $224 $91 #
plane-surface $-1 -95.618153049957115 12.65666277114773 85.838780821517233 0 1 0 -0.50000000669873634 0 0.8660253999169214 forward_v I I I I #
face $-1 $225 $226 $73 $-1 $227 forward single #
loop $-1 $228 $229 $92 #
cone-surface $-1 -43.62537788773551 14.494934199329609 4.8691412627162158 0.50000000669873634 0 -0.8660253999169214 0.4330126999584607 0 0.25000000334936817 1 I I 0 1 0.5 forward I I I I #
face $-1 $230 $231 $74 $-1 $232 forward single #
loop $-1 $233 $234 $93 #
cone-surface $-1 -43.62537788773551 17.252341341602435 4.8691412627162158 0.50000000669873634 0 -0.8660253999169214 0.4330126999584607 0 0.25000000334936817 1 I I 0 1 0.5 forward I I I I #
face $-1 $235 $236 $75 $-1 $237 forward single #
loop $-1 $238 $239 $94 #
cone-surface $-1 -43.62537788773551 20.009748483875253 4.8691412627162158 0.50000000669873634 0 -0.8660253999169214 0.4330126999584607 0 0.25000000334936817 1 I I 0 1 0.5 forward I I I I #
face $-1 $240 $241 $57 $-1 $242 reversed single #
loop $-1 $-1 $243 $95 #
plane-surface $-1 0 0 -7.5732757835313542 0 0 1 1 0 0 forward_v I I I I #
coedge $-1 $244 $245 $246 $247 forward $96 $-1 #
face $-1 $248 $249 $58 $-1 $250 forward single #
loop $-1 $-1 $251 $98 #
plane-surface $-1 -47.80907620471816 0 0 1 0 0 0 0 -1 forward_v I I I I #
coedge $-1 $252 $253 $254 $255 forward $99 $-1 #
face $-1 $256 $257 $59 $-1 $258 forward single #
loop $-1 $-1 $259 $101 #
plane-surface $-1 47.80907620471816 0 0 -1 0 0 0 0 1 forward_v I I I I #
coedge $-1 $260 $261 $262 $263 forward $102 $-1 #
face $-1 $264 $265 $60 $-1 $266 reversed single #
loop $-1 $-1 $267 $104 #
plane-surface $-1 -34.99867247498107 -17.252341341602428 50.840108987056951 0.50000000669873634 0 0.8660253999169214 0.8660253999169214 0 -0.50000000669873634 forward_v I I I I #
coedge $-1 $268 $269 $270 $271 reversed $105 $-1 #
face $-1 $-1 $272 $61 $-1 $273 forward single #
loop $-1 $274 $275 $107 #
cone-surface $-1 43.250377882711454 -20.009748483875253 4.2196222127785212 -0.50000000669873634 0 -0.8660253999169214 0.21650634997923035 0 -0.12500000167468409 1 I I -0.70710678118654746 0.70710678118654746 0.25 forward I I I I #
loop $-1 $-1 $276 $80 #
coedge $-1 $172 $172 $277 $278 reversed $108 $-1 #
face $-1 $-1 $279 $62 $-1 $280 forward single #
loop $-1 $281 $282 $110 #
cone-surface $-1 43.250377882711454 -17.252341341602431 4.2196222127785212 -0.50000000669873634 0 -0.8660253999169214 0.21650634997923035 0 -0.12500000167468409 1 I I -0.70710678118654746 0.70710678118654746 0.25 forward I I I I #
loop $-1 $-1 $283 $81 #
coedge $-1 $177 $177 $284 $285 reversed $111 $-1 #
face $-1 $-1 $286 $63 $-1 $287 forward single #
loop $-1 $288 $289 $113 #
cone-surface $-1 43.250377882711454 -14.494934199329606 4.2196222127785212 -0.50000000669873634 0 -0.8660253999169214 0.21650634997923035 0 -0.12500000167468409 1 I I -0.70710678118654746 0.70710678118654746 0.25 forward I I I I #
loop $-1 $-1 $290 $82 #
coedge $-1 $182 $182 $291 $292 reversed $114 $-1 #
face $-1 $293 $294 $64 $-1 $295 reversed single #
loop $-1 $-1 $296 $116 #
plane-surface $-1 -34.99867247498107 17.252341341602435 50.840108987056951 0.50000000669873634 0 0.8660253999169214 0.8660253999169214 0 -0.50000000669873634 forward_v I I I I #
coedge $-1 $297 $298 $299 $300 reversed $117 $-1 #
face $-1 $-1 $301 $65 $-1 $302 forward single #
loop $-1 $303 $304 $119 #
cone-surface $-1 43.250377882711454 14.494934199329609 4.2196222127785212 -0.50000000669873634 0 -0.8660253999169214 0.21650634997923035 0 -0.12500000167468409 1 I I -0.70710678118654746 0.70710678118654746 0.25 forward I I I I #
loop $-1 $-1 $305 $84 #
coedge $-1 $191 $191 $306 $307 reversed $120 $-1 #
face $-1 $-1 $308 $66 $-1 $309 forward single #
loop $-1 $310 $311 $122 #
cone-surface $-1 43.250377882711454 17.252341341602435 4.2196222127785212 -0.50000000669873634 0 -0.8660253999169214 0.21650634997923035 0 -0.12500000167468409 1 I I -0.70710678118654746 0.70710678118654746 0.25 forward I I I I #
loop $-1 $-1 $312 $85 #
coedge $-1 $196 $196 $313 $314 reversed $123 $-1 #
face $-1 $-1 $315 $67 $-1 $316 forward single #
loop $-1 $317 $318 $125 #
cone-surface $-1 43.250377882711454 20.009748483875253 4.2196222127785212 -0.50000000669873634 0 -0.8660253999169214 0.21650634997923035 0 -0.12500000167468409 1 I I -0.70710678118654746 0.70710678118654746 0.25 forward I I I I #
loop $-1 $-1 $319 $86 #
coedge $-1 $201 $201 $320 $321 reversed $126 $-1 #
face $-1 $322 $323 $68 $-1 $324 reversed single #
loop $-1 $-1 $325 $128 #
plane-surface $-1 -47.80907620471816 -17.252341341602428 3.0310321418180024 -0.50000000669873634 0 0.8660253999169214 0.8660253999169214 0 0.50000000669873634 forward_v I I I I #
coedge $-1 $326 $327 $328 $329 reversed $129 $-1 #
face $-1 $-1 $330 $69 $-1 $331 forward single #
loop $-1 $332 $333 $131 #
cone-surface $-1 -43.250377882711454 -20.009748483875253 4.2196222127785248 0.50000000669873634 0 -0.8660253999169214 0.21650634997923035 0 0.12500000167468409 1 I I -0.70710678118654746 0.70710678118654746 0.25 forward I I I I #
loop $-1 $-1 $334 $88 #
coedge $-1 $210 $210 $335 $336 reversed $132 $-1 #
face $-1 $-1 $337 $70 $-1 $338 forward single #
loop $-1 $339 $340 $134 #
cone-surface $-1 -43.250377882711454 -17.252341341602431 4.2196222127785248 0.50000000669873634 0 -0.8660253999169214 0.21650634997923035 0 0.12500000167468409 1 I I -0.70710678118654746 0.70710678118654746 0.25 forward I I I I #
loop $-1 $-1 $341 $89 #
coedge $-1 $215 $215 $342 $343 reversed $135 $-1 #
face $-1 $-1 $344 $71 $-1 $345 forward single #
loop $-1 $346 $347 $137 #
cone-surface $-1 -43.250377882711454 -14.494934199329606 4.2196222127785248 0.50000000669873634 0 -0.8660253999169214 0.21650634997923035 0 0.12500000167468409 1 I I -0.70710678118654746 0.70710678118654746 0.25 forward I I I I #
loop $-1 $-1 $348 $90 #
coedge $-1 $220 $220 $349 $350 reversed $138 $-1 #
face $-1 $351 $352 $72 $-1 $353 reversed single #
loop $-1 $-1 $354 $140 #
plane-surface $-1 -47.80907620471816 17.252341341602435 3.0310321418180024 -0.50000000669873634 0 0.8660253999169214 0.8660253999169214 0 0.50000000669873634 forward_v I I I I #
coedge $-1 $355 $356 $357 $358 reversed $141 $-1 #
face $-1 $-1 $359 $73 $-1 $360 forward single #
loop $-1 $361 $362 $143 #
cone-surface $-1 -43.250377882711454 14.494934199329609 4.2196222127785248 0.50000000669873634 0 -0.8660253999169214 0.21650634997923035 0 0.12500000167468409 1 I I -0.70710678118654746 0.70710678118654746 0.25 forward I I I I #
loop $-1 $-1 $363 $92 #
coedge $-1 $229 $229 $364 $365 reversed $144 $-1 #
face $-1 $-1 $366 $74 $-1 $367 forward single #
loop $-1 $368 $369 $146 #
cone-surface $-1 -43.250377882711454 17.252341341602435 4.2196222127785248 0.50000000669873634 0 -0.8660253999169214 0.21650634997923035 0 0.12500000167468409 1 I I -0.70710678118654746 0.70710678118654746 0.25 forward I I I I #
loop $-1 $-1 $370 $93 #
coedge $-1 $234 $234 $371 $372 reversed $147 $-1 #
face $-1 $-1 $373 $75 $-1 $374 forward single #
loop $-1 $375 $376 $149 #
cone-surface $-1 -43.250377882711454 20.009748483875253 4.2196222127785248 0.50000000669873634 0 -0.8660253999169214 0.21650634997923035 0 0.12500000167468409 1 I I -0.70710678118654746 0.70710678118654746 0.25 forward I I I I #
loop $-1 $-1 $377 $94 #
coedge $-1 $239 $239 $378 $379 reversed $150 $-1 #
face $-1 $380 $381 $57 $-1 $382 reversed single #
loop $-1 $-1 $383 $152 #
plane-surface $-1 0 -28.122247889186642 0 0 1 0 0 0 1 forward_v I I I I #
coedge $-1 $384 $385 $386 $387 forward $153 $-1 #
coedge $-1 $388 $155 $389 $390 forward $96 $-1 #
coedge $-1 $155 $388 $391 $392 forward $96 $-1 #
coedge $-1 $393 $394 $155 $247 reversed $395 $-1 #
edge $-1 $396 -28.122247889186642 $397 28.122247889186642 $246 $398 forward 7 unknown #
face $-1 $399 $400 $58 $-1 $401 reversed single #
loop $-1 $-1 $402 $156 #
plane-surface $-1 0 -31.259361877751395 3.1667206023901011 0 0 1 1 0 0 forward_v I I I I #
coedge $-1 $403 $404 $253 $405 forward $157 $-1 #
coedge $-1 $406 $159 $407 $408 reversed $99 $-1 #
coedge $-1 $159 $406 $251 $405 reversed $99 $-1 #
coedge $-1 $409 $402 $159 $255 reversed $249 $-1 #
edge $-1 $410 -47.80907620471816 $411 47.80907620471816 $254 $412 forward 7 unknown #
face $-1 $413 $414 $59 $-1 $415 reversed single #
loop $-1 $-1 $416 $160 #
plane-surface $-1 0 31.259361877751399 3.1667206023901011 0 0 1 1 0 0 forward_v I I I I #
coedge $-1 $417 $418 $261 $419 forward $161 $-1 #
coedge $-1 $420 $163 $421 $422 reversed $102 $-1 #
coedge $-1 $163 $420 $259 $419 reversed $102 $-1 #
coedge $-1 $416 $423 $163 $263 reversed $257 $-1 #
edge $-1 $424 -47.80907620471816 $425 47.80907620471816 $262 $426 forward 7 unknown #
face $-1 $427 $428 $60 $-1 $429 forward single #
loop $-1 $-1 $430 $164 #
plane-surface $-1 12.810404370257885 -21.848019912057133 133.64785766675618 0 1 0 0.50000000669873634 0 0.8660253999169214 forward_v I I I I #
coedge $-1 $431 $432 $433 $434 reversed $165 $-1 #
coedge $-1 $269 $167 $435 $436 reversed $105 $-1 #
coedge $-1 $167 $268 $431 $437 reversed $105 $-1 #
coedge $-1 $433 $438 $167 $271 forward $428 $-1 #
edge $-1 $439 -41.403874019589217 $440 -33.536477392322645 $270 $441 forward 7 unknown #
loop $-1 $-1 $277 $168 #
plane-surface $-1 -34.99867247498107 -17.252341341602428 50.840108987056951 0.50000000669873634 0 0.8660253999169214 0.8660253999169214 0 -0.50000000669873634 forward_v I I I I #
loop $-1 $-1 $442 $107 #
coedge $-1 $275 $275 $276 $443 reversed $169 $-1 #
coedge $-1 $276 $276 $275 $443 forward $171 $-1 #
coedge $-1 $277 $277 $172 $278 forward $272 $-1 #
edge $-1 $444 0 $444 6.2831853071796004 $277 $445 forward 7 unknown #
loop $-1 $-1 $284 $173 #
plane-surface $-1 -34.99867247498107 -17.252341341602428 50.840108987056951 0.50000000669873634 0 0.8660253999169214 0.8660253999169214 0 -0.50000000669873634 forward_v I I I I #
loop $-1 $-1 $446 $110 #
coedge $-1 $282 $282 $283 $447 reversed $174 $-1 #
coedge $-1 $283 $283 $282 $447 forward $176 $-1 #
coedge $-1 $284 $284 $177 $285 forward $279 $-1 #
edge $-1 $448 0 $448 6.2831853071796004 $284 $449 forward 7 unknown #
loop $-1 $-1 $291 $178 #
plane-surface $-1 -34.99867247498107 -17.252341341602428 50.840108987056951 0.50000000669873634 0 0.8660253999169214 0.8660253999169214 0 -0.50000000669873634 forward_v I I I I #
loop $-1 $-1 $450 $113 #
coedge $-1 $289 $289 $290 $451 reversed $179 $-1 #
coedge $-1 $290 $290 $289 $451 forward $181 $-1 #
coedge $-1 $291 $291 $182 $292 forward $286 $-1 #
edge $-1 $452 0 $452 6.2831853071796004 $291 $453 forward 7 unknown #
face $-1 $454 $455 $64 $-1 $456 reversed single #
loop $-1 $-1 $457 $183 #
plane-surface $-1 12.810404370257885 12.65666277114773 133.64785766675618 0 1 0 0.50000000669873634 0 0.8660253999169214 forward_v I I I I #
coedge $-1 $458 $459 $460 $461 reversed $184 $-1 #
coedge $-1 $298 $186 $462 $463 reversed $117 $-1 #
coedge $-1 $186 $297 $458 $464 reversed $117 $-1 #
coedge $-1 $460 $465 $186 $300 forward $466 $-1 #
edge $-1 $467 -41.403874019589217 $468 -33.536477392322645 $299 $469 forward 7 unknown #
loop $-1 $-1 $306 $187 #
plane-surface $-1 -34.99867247498107 17.252341341602435 50.840108987056951 0.50000000669873634 0 0.8660253999169214 0.8660253999169214 0 -0.50000000669873634 forward_v I I I I #
loop $-1 $-1 $470 $119 #
coedge $-1 $304 $304 $305 $471 reversed $188 $-1 #
coedge $-1 $305 $305 $304 $471 forward $190 $-1 #
coedge $-1 $306 $306 $191 $307 forward $301 $-1 #
edge $-1 $472 0 $472 6.2831853071796004 $306 $473 forward 7 unknown #
loop $-1 $-1 $313 $192 #
plane-surface $-1 -34.99867247498107 17.252341341602435 50.840108987056951 0.50000000669873634 0 0.8660253999169214 0.8660253999169214 0 -0.50000000669873634 forward_v I I I I #
loop $-1 $-1 $474 $122 #
coedge $-1 $311 $311 $312 $475 reversed $193 $-1 #
coedge $-1 $312 $312 $311 $475 forward $195 $-1 #
coedge $-1 $313 $313 $196 $314 forward $308 $-1 #
edge $-1 $476 0 $476 6.2831853071796004 $313 $477 forward 7 unknown #
loop $-1 $-1 $320 $197 #
plane-surface $-1 -34.99867247498107 17.252341341602435 50.840108987056951 0.50000000669873634 0 0.8660253999169214 0.8660253999169214 0 -0.50000000669873634 forward_v I I I I #
loop $-1 $-1 $478 $125 #
coedge $-1 $318 $318 $319 $479 reversed $198 $-1 #
coedge $-1 $319 $319 $318 $479 forward $200 $-1 #
coedge $-1 $320 $320 $201 $321 forward $315 $-1 #
edge $-1 $480 0 $480 6.2831853071796004 $320 $481 forward 7 unknown #
face $-1 $482 $483 $68 $-1 $484 reversed single #
loop $-1 $-1 $485 $202 #
plane-surface $-1 -95.618153049957115 -12.656662771147722 85.838780821517233 0 -1 0 0.50000000669873634 0 -0.8660253999169214 forward_v I I I I #
coedge $-1 $486 $487 $488 $489 reversed $203 $-1 #
coedge $-1 $327 $205 $490 $491 reversed $129 $-1 #
coedge $-1 $205 $326 $486 $492 reversed $129 $-1 #
coedge $-1 $488 $493 $205 $329 forward $494 $-1 #
edge $-1 $495 3.2026039775701065e-007 $496 7.8673969475269629 $328 $497 forward 7 unknown #
loop $-1 $-1 $335 $206 #
plane-surface $-1 -47.80907620471816 -17.252341341602428 3.0310321418180024 -0.50000000669873634 0 0.8660253999169214 0.8660253999169214 0 0.50000000669873634 forward_v I I I I #
loop $-1 $-1 $498 $131 #
coedge $-1 $333 $333 $334 $499 reversed $207 $-1 #
coedge $-1 $334 $334 $333 $499 forward $209 $-1 #
coedge $-1 $335 $335 $210 $336 forward $330 $-1 #
edge $-1 $500 0 $500 6.2831853071796004 $335 $501 forward 7 unknown #
loop $-1 $-1 $342 $211 #
plane-surface $-1 -47.80907620471816 -17.252341341602428 3.0310321418180024 -0.50000000669873634 0 0.8660253999169214 0.8660253999169214 0 0.50000000669873634 forward_v I I I I #
loop $-1 $-1 $502 $134 #
coedge $-1 $340 $340 $341 $503 reversed $212 $-1 #
coedge $-1 $341 $341 $340 $503 forward $214 $-1 #
coedge $-1 $342 $342 $215 $343 forward $337 $-1 #
edge $-1 $504 0 $504 6.2831853071796004 $342 $505 forward 7 unknown #
loop $-1 $-1 $349 $216 #
plane-surface $-1 -47.80907620471816 -17.252341341602428 3.0310321418180024 -0.50000000669873634 0 0.8660253999169214 0.8660253999169214 0 0.50000000669873634 forward_v I I I I #
loop $-1 $-1 $506 $137 #
coedge $-1 $347 $347 $348 $507 reversed $217 $-1 #
coedge $-1 $348 $348 $347 $507 forward $219 $-1 #
coedge $-1 $349 $349 $220 $350 forward $344 $-1 #
edge $-1 $508 0 $508 6.2831853071796004 $349 $509 forward 7 unknown #
face $-1 $510 $511 $72 $-1 $512 forward single #
loop $-1 $-1 $513 $221 #
plane-surface $-1 -95.618153049957115 21.84801991205714 85.838780821517233 0 -1 0 0.50000000669873634 0 -0.8660253999169214 forward_v I I I I #
coedge $-1 $514 $515 $516 $517 reversed $222 $-1 #
coedge $-1 $356 $224 $518 $519 reversed $141 $-1 #
coedge $-1 $224 $355 $514 $520 reversed $141 $-1 #
coedge $-1 $516 $521 $224 $358 forward $511 $-1 #
edge $-1 $522 3.2026039775701065e-007 $523 7.8673969475269629 $357 $524 forward 7 unknown #
loop $-1 $-1 $364 $225 #
plane-surface $-1 -47.80907620471816 17.252341341602435 3.0310321418180024 -0.50000000669873634 0 0.8660253999169214 0.8660253999169214 0 0.50000000669873634 forward_v I I I I #
loop $-1 $-1 $525 $143 #
coedge $-1 $362 $362 $363 $526 reversed $226 $-1 #
coedge $-1 $363 $363 $362 $526 forward $228 $-1 #
coedge $-1 $364 $364 $229 $365 forward $359 $-1 #
edge $-1 $527 0 $527 6.2831853071796004 $364 $528 forward 7 unknown #
loop $-1 $-1 $371 $230 #
plane-surface $-1 -47.80907620471816 17.252341341602435 3.0310321418180024 -0.50000000669873634 0 0.8660253999169214 0.8660253999169214 0 0.50000000669873634 forward_v I I I I #
loop $-1 $-1 $529 $146 #
coedge $-1 $369 $369 $370 $530 reversed $231 $-1 #
coedge $-1 $370 $370 $369 $530 forward $233 $-1 #
coedge $-1 $371 $371 $234 $372 forward $366 $-1 #
edge $-1 $531 0 $531 6.2831853071796004 $371 $532 forward 7 unknown #
loop $-1 $-1 $378 $235 #
plane-surface $-1 -47.80907620471816 17.252341341602435 3.0310321418180024 -0.50000000669873634 0 0.8660253999169214 0.8660253999169214 0 0.50000000669873634 forward_v I I I I #
loop $-1 $-1 $533 $149 #
coedge $-1 $376 $376 $377 $534 reversed $236 $-1 #
coedge $-1 $377 $377 $376 $534 forward $238 $-1 #
coedge $-1 $378 $378 $239 $379 forward $373 $-1 #
edge $-1 $535 0 $535 6.2831853071796004 $378 $536 forward 7 unknown #
face $-1 $537 $538 $57 $-1 $539 reversed single #
loop $-1 $-1 $540 $240 #
plane-surface $-1 -47.80907620471816 0 0 1 0 0 0 0 -1 forward_v I I I I #
coedge $-1 $541 $391 $542 $543 forward $241 $-1 #
coedge $-1 $544 $243 $541 $545 forward $153 $-1 #
coedge $-1 $243 $544 $546 $547 forward $153 $-1 #
coedge $-1 $394 $393 $243 $387 reversed $395 $-1 #
edge $-1 $548 -28.122247889186642 $549 28.122247889186642 $386 $550 forward 7 unknown #
coedge $-1 $245 $244 $551 $552 forward $96 $-1 #
coedge $-1 $553 $554 $244 $390 reversed $538 $-1 #
edge $-1 $397 -47.80907620471816 $555 47.80907620471816 $389 $556 forward 7 unknown #
coedge $-1 $383 $557 $245 $392 reversed $241 $-1 #
edge $-1 $558 -47.80907620471816 $396 47.80907620471816 $391 $559 forward 7 unknown #
coedge $-1 $386 $246 $557 $560 forward $395 $-1 #
coedge $-1 $246 $386 $553 $561 reversed $395 $-1 #
loop $-1 $-1 $393 $537 #
vertex $-1 $247 $562 #
vertex $-1 $247 $563 #
straight-curve $-1 47.80907620471816 0 7.5732757835313542 0 1 0 I I #
face $-1 $564 $565 $58 $-1 $566 reversed single #
loop $-1 $-1 $567 $248 #
plane-surface $-1 0 -31.259361877751395 -1.1022060120995016 0 0 1 1 0 0 forward_v I I I I #
coedge $-1 $254 $568 $569 $570 forward $249 $-1 #
coedge $-1 $571 $251 $572 $573 reversed $157 $-1 #
coedge $-1 $251 $571 $409 $574 reversed $157 $-1 #
edge $-1 $410 -3.1667206023901011 $575 1.1022060120995016 $251 $576 forward 7 unknown #
coedge $-1 $253 $252 $577 $578 forward $99 $-1 #
coedge $-1 $569 $579 $252 $408 forward $580 $-1 #
edge $-1 $581 -1.1022060120995016 $411 3.1667206023901011 $407 $582 forward 7 unknown #
coedge $-1 $568 $254 $404 $574 forward $249 $-1 #
vertex $-1 $405 $583 #
vertex $-1 $570 $584 #
straight-curve $-1 0 -28.122247889186642 3.1667206023901011 1 0 0 I I #
face $-1 $585 $586 $59 $-1 $587 reversed single #
loop $-1 $-1 $588 $256 #
plane-surface $-1 0 31.259361877751399 -1.1022060120995016 0 0 1 1 0 0 forward_v I I I I #
coedge $-1 $589 $262 $418 $590 forward $257 $-1 #
coedge $-1 $591 $259 $588 $592 reversed $161 $-1 #
coedge $-1 $259 $591 $416 $590 reversed $161 $-1 #
edge $-1 $424 -3.1667206023901011 $593 1.1022060120995016 $259 $594 forward 7 unknown #
coedge $-1 $261 $260 $595 $596 forward $102 $-1 #
coedge $-1 $597 $598 $260 $422 forward $599 $-1 #
edge $-1 $600 -1.1022060120995016 $425 3.1667206023901011 $421 $601 forward 7 unknown #
coedge $-1 $262 $589 $597 $602 forward $257 $-1 #
vertex $-1 $419 $603 #
vertex $-1 $602 $604 #
straight-curve $-1 0 28.122247889186642 3.1667206023901011 -1 0 0 I I #
face $-1 $-1 $605 $60 $-1 $606 reversed single #
loop $-1 $-1 $270 $264 #
plane-surface $-1 0 0 7.5732757835313542 0 0 1 1 0 0 forward_v I I I I #
coedge $-1 $607 $608 $609 $610 reversed $265 $-1 #
coedge $-1 $611 $267 $269 $437 forward $165 $-1 #
coedge $-1 $267 $611 $607 $612 forward $165 $-1 #
coedge $-1 $609 $270 $267 $434 forward $428 $-1 #
edge $-1 $440 4.0304921003465086 $613 13.221849241255919 $433 $614 forward 7 unknown #
coedge $-1 $615 $616 $268 $436 forward $605 $-1 #
edge $-1 $617 -63.792896691560095 $439 -59.250653049846733 $435 $618 forward 7 unknown #
edge $-1 $440 86.533665247718773 $617 95.61815240943632 $269 $619 forward 7 unknown #
coedge $-1 $270 $609 $615 $620 forward $428 $-1 #
vertex $-1 $436 $621 #
vertex $-1 $271 $622 #
straight-curve $-1 6.4052021851289425 -12.656662771147722 7.5732757835313578 -1 0 0 I I #
coedge $-1 $442 $442 $-1 $623 reversed $274 $-1 #
edge $-1 $624 0 $624 6.2831853071796004 $275 $625 forward 7 unknown #
vertex $-1 $278 $626 #
ellipse-curve $-1 43.875377891084881 -20.009748483875253 5.302153962674673 0.50000000669873634 0 0.8660253999169214 0.4330126999584607 0 -0.25000000334936817 1 I I #
coedge $-1 $446 $446 $-1 $627 reversed $281 $-1 #
edge $-1 $628 0 $628 6.2831853071796004 $282 $629 forward 7 unknown #
vertex $-1 $285 $630 #
ellipse-curve $-1 43.875377891084881 -17.252341341602431 5.302153962674673 0.50000000669873634 0 0.8660253999169214 0.4330126999584607 0 -0.25000000334936817 1 I I #
coedge $-1 $450 $450 $-1 $631 reversed $288 $-1 #
edge $-1 $632 0 $632 6.2831853071796004 $289 $633 forward 7 unknown #
vertex $-1 $292 $634 #
ellipse-curve $-1 43.875377891084881 -14.494934199329606 5.302153962674673 0.50000000669873634 0 0.8660253999169214 0.4330126999584607 0 -0.25000000334936817 1 I I #
face $-1 $-1 $466 $64 $-1 $635 forward single #
loop $-1 $-1 $636 $293 #
plane-surface $-1 47.80907620471816 0 0 -1 0 0 0 0 1 forward_v I I I I #
coedge $-1 $637 $638 $639 $640 reversed $294 $-1 #
coedge $-1 $641 $296 $298 $464 forward $184 $-1 #
coedge $-1 $296 $641 $637 $642 forward $184 $-1 #
coedge $-1 $639 $299 $296 $461 forward $466 $-1 #
edge $-1 $468 -13.221849241255923 $643 -4.0304921003465122 $460 $644 forward 7 unknown #
coedge $-1 $645 $646 $297 $463 forward $455 $-1 #
edge $-1 $647 -63.792896691560095 $467 -59.250653049846733 $462 $648 forward 7 unknown #
edge $-1 $468 86.533665247718773 $647 95.61815240943632 $298 $649 forward 7 unknown #
coedge $-1 $299 $639 $645 $650 forward $466 $-1 #
loop $-1 $-1 $639 $454 #
vertex $-1 $463 $651 #
vertex $-1 $300 $652 #
straight-curve $-1 6.4052021851289425 21.84801991205714 7.5732757835313578 -1 0 0 I I #
coedge $-1 $470 $470 $-1 $653 reversed $303 $-1 #
edge $-1 $654 0 $654 6.2831853071796004 $304 $655 forward 7 unknown #
vertex $-1 $307 $656 #
ellipse-curve $-1 43.875377891084881 14.494934199329609 5.302153962674673 0.50000000669873634 0 0.8660253999169214 0.4330126999584607 0 -0.25000000334936817 1 I I #
coedge $-1 $474 $474 $-1 $657 reversed $310 $-1 #
edge $-1 $658 0 $658 6.2831853071796004 $311 $659 forward 7 unknown #
vertex $-1 $314 $660 #
ellipse-curve $-1 43.875377891084881 17.252341341602435 5.302153962674673 0.50000000669873634 0 0.8660253999169214 0.4330126999584607 0 -0.25000000334936817 1 I I #
coedge $-1 $478 $478 $-1 $661 reversed $317 $-1 #
edge $-1 $662 0 $662 6.2831853071796004 $318 $663 forward 7 unknown #
vertex $-1 $321 $664 #
ellipse-curve $-1 43.875377891084881 20.009748483875253 5.302153962674673 0.50000000669873634 0 0.8660253999169214 0.4330126999584607 0 -0.25000000334936817 1 I I #
face $-1 $-1 $494 $68 $-1 $665 forward single #
loop $-1 $-1 $666 $322 #
plane-surface $-1 -47.80907620471816 0 0 1 0 0 0 0 -1 forward_v I I I I #
coedge $-1 $667 $668 $669 $670 reversed $323 $-1 #
coedge $-1 $671 $325 $327 $492 forward $203 $-1 #
coedge $-1 $325 $671 $667 $672 forward $203 $-1 #
coedge $-1 $669 $328 $325 $489 forward $494 $-1 #
edge $-1 $496 -13.221849241255919 $673 -4.0304921003465086 $488 $674 forward 7 unknown #
coedge $-1 $675 $676 $326 $491 forward $483 $-1 #
edge $-1 $677 -39.888358268940614 $495 -35.346114627227266 $490 $678 forward 7 unknown #
edge $-1 $496 -9.0844871617175347 $677 0 $327 $679 forward 7 unknown #
coedge $-1 $328 $669 $675 $680 forward $494 $-1 #
loop $-1 $-1 $669 $482 #
vertex $-1 $491 $681 #
vertex $-1 $329 $682 #
straight-curve $-1 -47.809076524978558 -21.848019912057133 7.5732757835313507 1 0 0 I I #
coedge $-1 $498 $498 $-1 $683 reversed $332 $-1 #
edge $-1 $684 0 $684 6.2831853071796004 $333 $685 forward 7 unknown #
vertex $-1 $336 $686 #
ellipse-curve $-1 -43.875377891084881 -20.009748483875253 5.3021539626746774 -0.50000000669873634 0 0.8660253999169214 0.4330126999584607 0 0.25000000334936817 1 I I #
coedge $-1 $502 $502 $-1 $687 reversed $339 $-1 #
edge $-1 $688 0 $688 6.2831853071796004 $340 $689 forward 7 unknown #
vertex $-1 $343 $690 #
ellipse-curve $-1 -43.875377891084881 -17.252341341602431 5.3021539626746774 -0.50000000669873634 0 0.8660253999169214 0.4330126999584607 0 0.25000000334936817 1 I I #
coedge $-1 $506 $506 $-1 $691 reversed $346 $-1 #
edge $-1 $692 0 $692 6.2831853071796004 $347 $693 forward 7 unknown #
vertex $-1 $350 $694 #
ellipse-curve $-1 -43.875377891084881 -14.494934199329606 5.3021539626746774 -0.50000000669873634 0 0.8660253999169214 0.4330126999584607 0 0.25000000334936817 1 I I #
face $-1 $-1 $695 $72 $-1 $696 reversed single #
loop $-1 $-1 $357 $351 #
plane-surface $-1 0 0 7.5732757835313542 0 0 1 1 0 0 forward_v I I I I #
coedge $-1 $697 $698 $699 $700 reversed $352 $-1 #
coedge $-1 $701 $354 $356 $520 forward $222 $-1 #
coedge $-1 $354 $701 $697 $702 forward $222 $-1 #
coedge $-1 $699 $357 $354 $517 forward $511 $-1 #
edge $-1 $523 4.0304921003465122 $703 13.221849241255923 $516 $704 forward 7 unknown #
coedge $-1 $705 $706 $355 $519 forward $695 $-1 #
edge $-1 $707 -39.888358268940614 $522 -35.346114627227266 $518 $708 forward 7 unknown #
edge $-1 $523 -9.0844871617175347 $707 0 $356 $709 forward 7 unknown #
coedge $-1 $357 $699 $705 $710 forward $511 $-1 #
vertex $-1 $358 $711 #
vertex $-1 $358 $712 #
straight-curve $-1 -47.809076524978558 12.65666277114773 7.5732757835313507 1 0 0 I I #
coedge $-1 $525 $525 $-1 $713 reversed $361 $-1 #
edge $-1 $714 0 $714 6.2831853071796004 $362 $715 forward 7 unknown #
vertex $-1 $365 $716 #
ellipse-curve $-1 -43.875377891084881 14.494934199329609 5.3021539626746774 -0.50000000669873634 0 0.8660253999169214 0.4330126999584607 0 0.25000000334936817 1 I I #
coedge $-1 $529 $529 $-1 $717 reversed $368 $-1 #
edge $-1 $718 0 $718 6.2831853071796004 $369 $719 forward 7 unknown #
vertex $-1 $372 $720 #
ellipse-curve $-1 -43.875377891084881 17.252341341602435 5.3021539626746774 -0.50000000669873634 0 0.8660253999169214 0.4330126999584607 0 0.25000000334936817 1 I I #
coedge $-1 $533 $533 $-1 $721 reversed $375 $-1 #
edge $-1 $722 0 $722 6.2831853071796004 $376 $723 forward 7 unknown #
vertex $-1 $379 $724 #
ellipse-curve $-1 -43.875377891084881 20.009748483875253 5.3021539626746774 -0.50000000669873634 0 0.8660253999169214 0.4330126999584607 0 0.25000000334936817 1 I I #
face $-1 $-1 $395 $57 $-1 $725 reversed single #
loop $-1 $-1 $554 $380 #
plane-surface $-1 0 28.122247889186642 0 0 -1 0 0 0 -1 forward_v I I I I #
coedge $-1 $726 $551 $554 $727 forward $381 $-1 #
coedge $-1 $557 $383 $384 $545 reversed $241 $-1 #
coedge $-1 $551 $726 $383 $543 reversed $381 $-1 #
edge $-1 $558 -7.5732757835313542 $728 7.5732757835313542 $542 $729 forward 7 unknown #
coedge $-1 $385 $384 $726 $730 forward $153 $-1 #
edge $-1 $549 -47.80907620471816 $728 47.80907620471816 $541 $731 forward 7 unknown #
coedge $-1 $554 $553 $385 $547 reversed $538 $-1 #
edge $-1 $732 -47.80907620471816 $548 47.80907620471816 $546 $733 forward 7 unknown #
vertex $-1 $387 $734 #
vertex $-1 $560 $735 #
straight-curve $-1 47.80907620471816 0 -7.5732757835313542 0 -1 0 I I #
coedge $-1 $540 $542 $388 $552 reversed $381 $-1 #
edge $-1 $555 -28.122247889186642 $558 28.122247889186642 $551 $736 forward 7 unknown #
coedge $-1 $546 $389 $394 $561 forward $538 $-1 #
coedge $-1 $389 $546 $540 $727 reversed $538 $-1 #
vertex $-1 $390 $737 #
straight-curve $-1 0 28.122247889186642 7.5732757835313542 -1 0 0 I I #
coedge $-1 $391 $541 $393 $560 reversed $241 $-1 #
vertex $-1 $552 $738 #
straight-curve $-1 0 -28.122247889186642 7.5732757835313542 1 0 0 I I #
edge $-1 $396 -7.5732757835313542 $549 7.5732757835313542 $393 $739 forward 7 unknown #
edge $-1 $397 -7.5732757835313542 $548 7.5732757835313542 $394 $740 forward 7 unknown #
point $-1 47.80907620471816 -28.122247889186642 7.5732757835313542 #
point $-1 47.80907620471816 28.122247889186642 7.5732757835313542 #
face $-1 $-1 $580 $58 $-1 $741 reversed single #
loop $-1 $-1 $742 $399 #
plane-surface $-1 0 -34.396475866316152 1.0322572951452997 0 1 0 0 0 1 forward_v I I I I #
coedge $-1 $743 $577 $579 $744 forward $400 $-1 #
coedge $-1 $402 $409 $745 $746 forward $249 $-1 #
coedge $-1 $747 $407 $402 $570 reversed $580 $-1 #
edge $-1 $748 -3.1371139885647565 $411 3.137113988564753 $569 $749 forward 7 unknown #
coedge $-1 $404 $403 $742 $750 reversed $157 $-1 #
coedge $-1 $577 $743 $403 $573 forward $400 $-1 #
edge $-1 $751 -3.1371139885647565 $575 3.137113988564753 $403 $752 forward 7 unknown #
edge $-1 $410 -3.137113988564753 $753 3.1371139885647565 $404 $754 forward 7 unknown #
vertex $-1 $405 $755 #
straight-curve $-1 -47.80907620471816 -28.122247889186642 0 0 0 -1 I I #
coedge $-1 $567 $572 $406 $578 reversed $400 $-1 #
edge $-1 $581 -47.80907620471816 $575 47.80907620471816 $577 $756 forward 7 unknown #
coedge $-1 $407 $747 $567 $744 reversed $580 $-1 #
loop $-1 $-1 $407 $564 #
vertex $-1 $408 $757 #
straight-curve $-1 47.80907620471816 -28.122247889186642 0 0 0 1 I I #
point $-1 -47.80907620471816 -28.122247889186642 3.1667206023901011 #
point $-1 47.80907620471816 -28.122247889186642 3.1667206023901011 #
face $-1 $-1 $599 $59 $-1 $758 reversed single #
loop $-1 $-1 $759 $413 #
plane-surface $-1 0 34.396475866316152 1.0322572951452997 0 -1 0 0 0 -1 forward_v I I I I #
coedge $-1 $595 $760 $417 $592 forward $414 $-1 #
coedge $-1 $423 $416 $761 $762 forward $257 $-1 #
edge $-1 $424 -3.137113988564753 $763 3.137113988564753 $418 $764 forward 7 unknown #
coedge $-1 $418 $417 $759 $765 reversed $161 $-1 #
edge $-1 $766 -3.137113988564753 $593 3.137113988564753 $417 $767 forward 7 unknown #
vertex $-1 $419 $768 #
straight-curve $-1 47.80907620471816 28.122247889186642 0 0 0 -1 I I #
coedge $-1 $769 $588 $420 $596 reversed $414 $-1 #
edge $-1 $600 -47.80907620471816 $593 47.80907620471816 $595 $770 forward 7 unknown #
coedge $-1 $771 $421 $423 $602 reversed $599 $-1 #
coedge $-1 $421 $771 $769 $772 reversed $599 $-1 #
loop $-1 $-1 $421 $585 #
vertex $-1 $422 $773 #
straight-curve $-1 -47.80907620471816 28.122247889186642 0 0 0 1 I I #
edge $-1 $774 -3.137113988564753 $425 3.137113988564753 $597 $775 forward 7 unknown #
point $-1 47.80907620471816 28.122247889186646 3.1667206023901011 #
point $-1 -47.80907620471816 28.122247889186646 3.1667206023901011 #
loop $-1 $-1 $435 $427 #
plane-surface $-1 47.80907620471816 0 0 -1 0 0 0 0 1 forward_v I I I I #
coedge $-1 $608 $430 $432 $612 reversed $265 $-1 #
coedge $-1 $430 $607 $776 $777 reversed $265 $-1 #
coedge $-1 $438 $433 $430 $610 forward $428 $-1 #
edge $-1 $613 33.536477392322645 $778 41.403874019589217 $609 $779 forward 7 unknown #
coedge $-1 $432 $431 $616 $780 reversed $165 $-1 #
edge $-1 $781 -95.61815240943632 $613 -86.533665247718773 $607 $782 forward 7 unknown #
vertex $-1 $434 $783 #
straight-curve $-1 39.941679577451588 -8.6261706708012138 7.5732757835313578 0 -1 0 I I #
coedge $-1 $776 $435 $438 $620 reversed $605 $-1 #
coedge $-1 $435 $776 $611 $780 forward $605 $-1 #
vertex $-1 $436 $784 #
straight-curve $-1 47.80907620471816 -12.656662771147722 66.823928833378091 0 0 1 I I #
straight-curve $-1 -34.99867247498107 -12.656662771147722 50.840108987056951 0.8660253999169214 0 -0.50000000669873634 I I #
edge $-1 $778 -21.848019912057133 $439 -12.656662771147722 $615 $785 forward 7 unknown #
point $-1 47.80907620471816 -12.656662771147722 7.5732757835313542 #
point $-1 39.941679577451588 -12.656662771147722 7.5732757835313578 #
edge $-1 $786 1 $786 0 $442 $-1 forward 7 unknown #
vertex $-1 $443 $787 #
ellipse-curve $-1 43.37537788438614 -20.009748483875253 4.4361285627577516 0.50000000669873634 0 0.8660253999169214 0.4330126999584607 0 -0.25000000334936817 1 I I #
point $-1 44.308390591043334 -20.009748483875253 5.0521539593253051 #
edge $-1 $788 1 $788 0 $446 $-1 forward 7 unknown #
vertex $-1 $447 $789 #
ellipse-curve $-1 43.37537788438614 -17.252341341602431 4.4361285627577516 0.50000000669873634 0 0.8660253999169214 0.4330126999584607 0 -0.25000000334936817 1 I I #
point $-1 44.308390591043334 -17.252341341602431 5.0521539593253051 #
edge $-1 $790 1 $790 0 $450 $-1 forward 7 unknown #
vertex $-1 $451 $791 #
ellipse-curve $-1 43.37537788438614 -14.494934199329606 4.4361285627577516 0.50000000669873634 0 0.8660253999169214 0.4330126999584607 0 -0.25000000334936817 1 I I #
point $-1 44.308390591043334 -14.494934199329606 5.0521539593253051 #
plane-surface $-1 0 0 7.5732757835313542 0 0 1 1 0 0 forward_v I I I I #
coedge $-1 $646 $645 $638 $792 forward $455 $-1 #
coedge $-1 $638 $457 $459 $642 reversed $294 $-1 #
coedge $-1 $457 $637 $636 $792 reversed $294 $-1 #
coedge $-1 $465 $460 $457 $640 forward $466 $-1 #
edge $-1 $643 33.536477392322645 $793 41.403874019589217 $639 $794 forward 7 unknown #
coedge $-1 $459 $458 $646 $795 reversed $184 $-1 #
edge $-1 $796 -95.61815240943632 $643 -86.533665247718773 $637 $797 forward 7 unknown #
vertex $-1 $461 $798 #
straight-curve $-1 39.941679577451588 8.6261706708012174 7.5732757835313578 0 -1 0 I I #
coedge $-1 $636 $462 $465 $650 reversed $455 $-1 #
coedge $-1 $462 $636 $641 $795 forward $455 $-1 #
vertex $-1 $463 $799 #
straight-curve $-1 47.80907620471816 21.84801991205714 66.823928833378091 0 0 1 I I #
straight-curve $-1 -34.99867247498107 21.84801991205714 50.840108987056951 0.8660253999169214 0 -0.50000000669873634 I I #
edge $-1 $793 12.65666277114773 $467 21.84801991205714 $645 $800 forward 7 unknown #
point $-1 47.80907620471816 21.84801991205714 7.5732757835313542 #
point $-1 39.941679577451588 21.84801991205714 7.5732757835313578 #
edge $-1 $801 1 $801 0 $470 $-1 forward 7 unknown #
vertex $-1 $471 $802 #
ellipse-curve $-1 43.37537788438614 14.494934199329609 4.4361285627577516 0.50000000669873634 0 0.8660253999169214 0.4330126999584607 0 -0.25000000334936817 1 I I #
point $-1 44.308390591043334 14.494934199329609 5.0521539593253051 #
edge $-1 $803 1 $803 0 $474 $-1 forward 7 unknown #
vertex $-1 $475 $804 #
ellipse-curve $-1 43.37537788438614 17.252341341602435 4.4361285627577516 0.50000000669873634 0 0.8660253999169214 0.4330126999584607 0 -0.25000000334936817 1 I I #
point $-1 44.308390591043334 17.252341341602435 5.0521539593253051 #
edge $-1 $805 1 $805 0 $478 $-1 forward 7 unknown #
vertex $-1 $479 $806 #
ellipse-curve $-1 43.37537788438614 20.009748483875253 4.4361285627577516 0.50000000669873634 0 0.8660253999169214 0.4330126999584607 0 -0.25000000334936817 1 I I #
point $-1 44.308390591043334 20.009748483875253 5.0521539593253051 #
plane-surface $-1 0 0 7.5732757835313542 0 0 1 1 0 0 forward_v I I I I #
coedge $-1 $676 $675 $668 $807 forward $483 $-1 #
coedge $-1 $668 $485 $487 $672 reversed $323 $-1 #
coedge $-1 $485 $667 $666 $807 reversed $323 $-1 #
coedge $-1 $493 $488 $485 $670 forward $494 $-1 #
edge $-1 $673 -7.8673969475269629 $808 -3.2026039775701065e-007 $669 $809 forward 7 unknown #
coedge $-1 $487 $486 $676 $810 reversed $203 $-1 #
edge $-1 $811 0 $673 9.0844871617175347 $667 $812 forward 7 unknown #
vertex $-1 $489 $813 #
straight-curve $-1 -39.941679577451595 -8.6261706708012138 7.5732757835313542 0 1 0 I I #
coedge $-1 $666 $490 $493 $680 reversed $483 $-1 #
coedge $-1 $490 $666 $671 $810 forward $483 $-1 #
vertex $-1 $491 $814 #
straight-curve $-1 -47.80907620471816 -21.848019912057133 42.919390410758616 0 0 1 I I #
straight-curve $-1 -47.80907620471816 -21.848019912057133 3.0310321418180024 -0.8660253999169214 0 -0.50000000669873634 I I #
edge $-1 $808 12.656662771147722 $495 21.848019912057133 $675 $815 forward 7 unknown #
point $-1 -47.80907620471816 -21.848019912057133 7.5732757835313542 #
point $-1 -39.941679577451595 -21.848019912057133 7.5732757835313542 #
edge $-1 $816 1 $816 0 $498 $-1 forward 7 unknown #
vertex $-1 $499 $817 #
ellipse-curve $-1 -43.37537788438614 -20.009748483875253 4.4361285627577551 -0.50000000669873634 0 0.8660253999169214 0.4330126999584607 0 0.25000000334936817 1 I I #
point $-1 -43.442365191126413 -20.009748483875253 5.5521539660240444 #
edge $-1 $818 1 $818 0 $502 $-1 forward 7 unknown #
vertex $-1 $503 $819 #
ellipse-curve $-1 -43.37537788438614 -17.252341341602431 4.4361285627577551 -0.50000000669873634 0 0.8660253999169214 0.4330126999584607 0 0.25000000334936817 1 I I #
point $-1 -43.442365191126413 -17.252341341602431 5.5521539660240444 #
edge $-1 $820 1 $820 0 $506 $-1 forward 7 unknown #
vertex $-1 $507 $821 #
ellipse-curve $-1 -43.37537788438614 -14.494934199329606 4.4361285627577551 -0.50000000669873634 0 0.8660253999169214 0.4330126999584607 0 0.25000000334936817 1 I I #
point $-1 -43.442365191126413 -14.494934199329606 5.5521539660240444 #
loop $-1 $-1 $518 $510 #
plane-surface $-1 -47.80907620471816 0 0 1 0 0 0 0 -1 forward_v I I I I #
coedge $-1 $698 $513 $515 $702 reversed $352 $-1 #
coedge $-1 $513 $697 $822 $823 reversed $352 $-1 #
coedge $-1 $521 $516 $513 $700 forward $511 $-1 #
edge $-1 $703 -7.8673969475269629 $824 -3.2026039775701065e-007 $699 $825 forward 7 unknown #
coedge $-1 $515 $514 $706 $826 reversed $222 $-1 #
edge $-1 $827 0 $703 9.0844871617175347 $697 $828 forward 7 unknown #
vertex $-1 $517 $829 #
straight-curve $-1 -39.941679577451595 8.6261706708012174 7.5732757835313542 0 1 0 I I #
coedge $-1 $822 $518 $521 $710 reversed $695 $-1 #
coedge $-1 $518 $822 $701 $826 forward $695 $-1 #
vertex $-1 $519 $830 #
straight-curve $-1 -47.80907620471816 12.65666277114773 42.919390410758616 0 0 1 I I #
straight-curve $-1 -47.80907620471816 12.65666277114773 3.0310321418180024 -0.8660253999169214 0 -0.50000000669873634 I I #
edge $-1 $824 -21.84801991205714 $522 -12.65666277114773 $705 $831 forward 7 unknown #
point $-1 -47.80907620471816 12.65666277114773 7.5732757835313542 #
point $-1 -39.941679577451595 12.65666277114773 7.5732757835313542 #
edge $-1 $832 1 $832 0 $525 $-1 forward 7 unknown #
vertex $-1 $526 $833 #
ellipse-curve $-1 -43.37537788438614 14.494934199329609 4.4361285627577551 -0.50000000669873634 0 0.8660253999169214 0.4330126999584607 0 0.25000000334936817 1 I I #
point $-1 -43.442365191126413 14.494934199329609 5.5521539660240444 #
edge $-1 $834 1 $834 0 $529 $-1 forward 7 unknown #
vertex $-1 $530 $835 #
ellipse-curve $-1 -43.37537788438614 17.252341341602435 4.4361285627577551 -0.50000000669873634 0 0.8660253999169214 0.4330126999584607 0 0.25000000334936817 1 I I #
point $-1 -43.442365191126413 17.252341341602435 5.5521539660240444 #
edge $-1 $836 1 $836 0 $533 $-1 forward 7 unknown #
vertex $-1 $534 $837 #
ellipse-curve $-1 -43.37537788438614 20.009748483875253 4.4361285627577551 -0.50000000669873634 0 0.8660253999169214 0.4330126999584607 0 0.25000000334936817 1 I I #
point $-1 -43.442365191126413 20.009748483875253 5.5521539660240444 #
plane-surface $-1 47.80907620471816 0 0 -1 0 0 0 0 1 forward_v I I I I #
coedge $-1 $542 $540 $544 $730 reversed $381 $-1 #
edge $-1 $555 -7.5732757835313542 $732 7.5732757835313542 $554 $838 forward 7 unknown #
vertex $-1 $730 $839 #
straight-curve $-1 -47.80907620471816 -28.122247889186642 0 0 0 -1 I I #
edge $-1 $728 -28.122247889186642 $732 28.122247889186642 $726 $840 forward 7 unknown #
straight-curve $-1 0 -28.122247889186642 -7.5732757835313542 -1 0 0 I I #
vertex $-1 $547 $841 #
straight-curve $-1 0 28.122247889186642 -7.5732757835313542 1 0 0 I I #
point $-1 47.80907620471816 28.122247889186642 -7.5732757835313542 #
point $-1 47.80907620471816 -28.122247889186642 -7.5732757835313542 #
straight-curve $-1 -47.80907620471816 0 7.5732757835313542 0 -1 0 I I #
point $-1 -47.80907620471816 28.122247889186642 7.5732757835313542 #
point $-1 -47.80907620471816 -28.122247889186642 7.5732757835313542 #
straight-curve $-1 47.80907620471816 -28.122247889186642 0 0 0 -1 I I #
straight-curve $-1 47.80907620471816 28.122247889186642 0 0 0 -1 I I #
plane-surface $-1 47.80907620471816 0 0 -1 0 0 0 0 1 forward_v I I I I #
coedge $-1 $842 $745 $571 $750 forward $565 $-1 #
coedge $-1 $572 $567 $842 $843 forward $400 $-1 #
edge $-1 $581 -3.137113988564753 $844 3.1371139885647565 $579 $845 forward 7 unknown #
coedge $-1 $742 $846 $568 $746 reversed $565 $-1 #
edge $-1 $753 -47.80907620471816 $748 47.80907620471816 $745 $847 forward 7 unknown #
coedge $-1 $579 $569 $846 $848 forward $580 $-1 #
vertex $-1 $570 $849 #
straight-curve $-1 47.80907620471816 -31.259361877751395 3.1667206023901011 0 1 0 I I #
edge $-1 $753 -2.1344633072448014 $751 2.1344633072448014 $571 $850 forward 7 unknown #
vertex $-1 $573 $851 #
straight-curve $-1 -47.80907620471816 -31.259361877751395 -1.1022060120995016 0 1 0 I I #
vertex $-1 $574 $852 #
straight-curve $-1 -47.80907620471816 -31.259361877751395 3.1667206023901011 0 -1 0 I I #
point $-1 -47.80907620471816 -28.122247889186642 -1.1022060120995016 #
straight-curve $-1 0 -28.122247889186642 -1.1022060120995016 -1 0 0 I I #
point $-1 47.80907620471816 -28.122247889186642 -1.1022060120995016 #
plane-surface $-1 -47.80907620471816 0 0 1 0 0 0 0 -1 forward_v I I I I #
coedge $-1 $853 $761 $591 $765 forward $586 $-1 #
coedge $-1 $588 $769 $853 $854 forward $414 $-1 #
coedge $-1 $759 $855 $589 $762 reversed $586 $-1 #
edge $-1 $763 -47.80907620471816 $774 47.80907620471816 $761 $856 forward 7 unknown #
vertex $-1 $590 $857 #
straight-curve $-1 47.80907620471816 31.259361877751399 3.1667206023901011 0 1 0 I I #
edge $-1 $763 -2.1344633072448014 $766 2.1344633072448014 $591 $858 forward 7 unknown #
vertex $-1 $592 $859 #
straight-curve $-1 47.80907620471816 31.259361877751399 -1.1022060120995016 0 -1 0 I I #
point $-1 47.80907620471816 28.122247889186646 -1.1022060120995016 #
coedge $-1 $760 $595 $598 $772 forward $414 $-1 #
straight-curve $-1 0 28.122247889186642 -1.1022060120995016 1 0 0 I I #
coedge $-1 $598 $597 $855 $860 forward $599 $-1 #
edge $-1 $600 -3.137113988564753 $861 3.137113988564753 $598 $862 forward 7 unknown #
point $-1 -47.80907620471816 28.122247889186646 -1.1022060120995016 #
vertex $-1 $762 $863 #
straight-curve $-1 -47.80907620471816 31.259361877751399 3.1667206023901011 0 -1 0 I I #
coedge $-1 $616 $615 $608 $777 forward $605 $-1 #
edge $-1 $778 59.250653049846733 $781 63.792896691560095 $776 $864 forward 7 unknown #
vertex $-1 $620 $865 #
straight-curve $-1 6.4052021851289425 -21.848019912057133 7.5732757835313578 1 0 0 I I #
edge $-1 $781 -13.221849241255919 $617 -4.0304921003465086 $616 $866 forward 7 unknown #
vertex $-1 $780 $867 #
straight-curve $-1 -34.99867247498107 -21.848019912057133 50.840108987056951 -0.8660253999169214 0 0.50000000669873634 I I #
point $-1 39.941679577451588 -21.848019912057133 7.5732757835313578 #
point $-1 47.80907620471816 -12.656662771147722 3.0310321418179953 #
straight-curve $-1 47.80907620471816 0 7.5732757835313542 0 1 0 I I #
vertex $-1 $623 $868 #
point $-1 43.8083905843446 -20.009748483875253 4.1861285594083837 #
vertex $-1 $627 $869 #
point $-1 43.8083905843446 -17.252341341602431 4.1861285594083837 #
vertex $-1 $631 $870 #
point $-1 43.8083905843446 -14.494934199329606 4.1861285594083837 #
edge $-1 $793 59.250653049846733 $796 63.792896691560095 $636 $871 forward 7 unknown #
vertex $-1 $650 $872 #
straight-curve $-1 6.4052021851289425 12.65666277114773 7.5732757835313578 1 0 0 I I #
edge $-1 $796 4.0304921003465122 $647 13.221849241255923 $646 $873 forward 7 unknown #
vertex $-1 $795 $874 #
straight-curve $-1 -34.99867247498107 12.65666277114773 50.840108987056951 -0.8660253999169214 0 0.50000000669873634 I I #
point $-1 39.941679577451588 12.65666277114773 7.5732757835313578 #
point $-1 47.80907620471816 21.84801991205714 3.0310321418179953 #
straight-curve $-1 47.80907620471816 0 7.5732757835313542 0 1 0 I I #
vertex $-1 $653 $875 #
point $-1 43.8083905843446 14.494934199329609 4.1861285594083837 #
vertex $-1 $657 $876 #
point $-1 43.8083905843446 17.252341341602435 4.1861285594083837 #
vertex $-1 $661 $877 #
point $-1 43.8083905843446 20.009748483875253 4.1861285594083837 #
edge $-1 $808 35.346114627227266 $811 39.888358268940614 $666 $878 forward 7 unknown #
vertex $-1 $680 $879 #
straight-curve $-1 -47.809076524978558 -12.656662771147722 7.5732757835313507 -1 0 0 I I #
edge $-1 $811 4.0304921003465086 $677 13.221849241255919 $676 $880 forward 7 unknown #
vertex $-1 $810 $881 #
straight-curve $-1 -47.80907620471816 -12.656662771147722 3.0310321418180024 0.8660253999169214 0 0.50000000669873634 I I #
point $-1 -39.941679577451595 -12.656662771147722 7.5732757835313542 #
point $-1 -47.80907620471816 -21.848019912057133 3.0310321418180024 #
straight-curve $-1 -47.80907620471816 0 7.5732757835313542 0 -1 0 I I #
vertex $-1 $683 $882 #
point $-1 -42.942365184427679 -20.009748483875253 4.686128566107123 #
vertex $-1 $687 $883 #
point $-1 -42.942365184427679 -17.252341341602431 4.686128566107123 #
vertex $-1 $691 $884 #
point $-1 -42.942365184427679 -14.494934199329606 4.686128566107123 #
coedge $-1 $706 $705 $698 $823 forward $695 $-1 #
edge $-1 $824 35.346114627227266 $827 39.888358268940614 $822 $885 forward 7 unknown #
vertex $-1 $710 $886 #
straight-curve $-1 -47.809076524978558 21.84801991205714 7.5732757835313507 -1 0 0 I I #
edge $-1 $827 -13.221849241255923 $707 -4.0304921003465122 $706 $887 forward 7 unknown #
vertex $-1 $826 $888 #
straight-curve $-1 -47.80907620471816 21.84801991205714 3.0310321418180024 0.8660253999169214 0 0.50000000669873634 I I #
point $-1 -39.941679577451595 21.84801991205714 7.5732757835313542 #
point $-1 -47.80907620471816 12.65666277114773 3.0310321418180024 #
straight-curve $-1 -47.80907620471816 0 7.5732757835313542 0 -1 0 I I #
vertex $-1 $713 $889 #
point $-1 -42.942365184427679 14.494934199329609 4.686128566107123 #
vertex $-1 $717 $890 #
point $-1 -42.942365184427679 17.252341341602435 4.686128566107123 #
vertex $-1 $721 $891 #
point $-1 -42.942365184427679 20.009748483875253 4.686128566107123 #
straight-curve $-1 -47.80907620471816 28.122247889186642 0 0 0 -1 I I #
point $-1 -47.80907620471816 -28.122247889186642 -7.5732757835313542 #
straight-curve $-1 -47.80907620471816 0 -7.5732757835313542 0 1 0 I I #
point $-1 -47.80907620471816 28.122247889186642 -7.5732757835313542 #
coedge $-1 $846 $742 $743 $843 reversed $565 $-1 #
edge $-1 $844 -47.80907620471816 $751 47.80907620471816 $842 $892 forward 7 unknown #
vertex $-1 $848 $893 #
straight-curve $-1 47.80907620471816 -31.259361877751395 -1.1022060120995016 0 -1 0 I I #
coedge $-1 $745 $842 $747 $848 reversed $565 $-1 #
straight-curve $-1 0 -34.396475866316152 3.1667206023901011 1 0 0 I I #
edge $-1 $748 -2.1344633072448014 $844 2.1344633072448014 $747 $894 forward 7 unknown #
point $-1 47.80907620471816 -34.396475866316152 3.1667206023901011 #
straight-curve $-1 -47.80907620471816 -34.396475866316152 1.0322572951452997 0 0 -1 I I #
point $-1 -47.80907620471816 -34.396475866316152 -1.1022060120995016 #
point $-1 -47.80907620471816 -34.396475866316152 3.1667206023901011 #
coedge $-1 $855 $759 $760 $854 reversed $586 $-1 #
edge $-1 $861 -47.80907620471816 $766 47.80907620471816 $853 $895 forward 7 unknown #
coedge $-1 $761 $853 $771 $860 reversed $586 $-1 #
straight-curve $-1 0 34.396475866316152 3.1667206023901011 -1 0 0 I I #
point $-1 47.80907620471816 34.396475866316152 3.1667206023901011 #
straight-curve $-1 47.80907620471816 34.396475866316152 1.0322572951452997 0 0 -1 I I #
point $-1 47.80907620471816 34.396475866316152 -1.1022060120995016 #
edge $-1 $774 -2.1344633072448014 $861 2.1344633072448014 $855 $896 forward 7 unknown #
vertex $-1 $854 $897 #
straight-curve $-1 -47.80907620471816 31.259361877751399 -1.1022060120995016 0 1 0 I I #
point $-1 -47.80907620471816 34.396475866316152 3.1667206023901011 #
straight-curve $-1 47.80907620471816 -21.848019912057133 66.823928833378091 0 0 -1 I I #
point $-1 47.80907620471816 -21.848019912057133 7.5732757835313542 #
straight-curve $-1 47.809076204718167 -8.6261706708012138 3.0310321418179988 0 1 0 I I #
point $-1 47.80907620471816 -21.848019912057133 3.0310321418179953 #
point $-1 43.125377881036769 -20.009748483875253 4.0031158627992909 #
point $-1 43.125377881036769 -17.252341341602431 4.0031158627992909 #
point $-1 43.125377881036769 -14.494934199329606 4.0031158627992909 #
straight-curve $-1 47.80907620471816 12.65666277114773 66.823928833378091 0 0 -1 I I #
point $-1 47.80907620471816 12.65666277114773 7.5732757835313542 #
straight-curve $-1 47.809076204718167 8.6261706708012174 3.0310321418179988 0 1 0 I I #
point $-1 47.80907620471816 12.65666277114773 3.0310321418179953 #
point $-1 43.125377881036769 14.494934199329609 4.0031158627992909 #
point $-1 43.125377881036769 17.252341341602435 4.0031158627992909 #
point $-1 43.125377881036769 20.009748483875253 4.0031158627992909 #
straight-curve $-1 -47.80907620471816 -12.656662771147722 42.919390410758616 0 0 -1 I I #
point $-1 -47.80907620471816 -12.656662771147722 7.5732757835313542 #
straight-curve $-1 -47.80907620471816 -8.6261706708012138 3.0310321418180024 0 -1 0 I I #
point $-1 -47.80907620471816 -12.656662771147722 3.0310321418180024 #
point $-1 -43.125377881036769 -20.009748483875253 4.0031158627992944 #
point $-1 -43.125377881036769 -17.252341341602431 4.0031158627992944 #
point $-1 -43.125377881036769 -14.494934199329606 4.0031158627992944 #
straight-curve $-1 -47.80907620471816 21.84801991205714 42.919390410758616 0 0 -1 I I #
point $-1 -47.80907620471816 21.84801991205714 7.5732757835313542 #
straight-curve $-1 -47.80907620471816 8.6261706708012174 3.0310321418180024 0 -1 0 I I #
point $-1 -47.80907620471816 21.84801991205714 3.0310321418180024 #
point $-1 -43.125377881036769 14.494934199329609 4.0031158627992944 #
point $-1 -43.125377881036769 17.252341341602435 4.0031158627992944 #
point $-1 -43.125377881036769 20.009748483875253 4.0031158627992944 #
straight-curve $-1 0 -34.396475866316152 -1.1022060120995016 -1 0 0 I I #
point $-1 47.80907620471816 -34.396475866316152 -1.1022060120995016 #
straight-curve $-1 47.80907620471816 -34.396475866316152 1.0322572951452997 0 0 -1 I I #
straight-curve $-1 0 34.396475866316152 -1.1022060120995016 1 0 0 I I #
straight-curve $-1 -47.80907620471816 34.396475866316152 1.0322572951452997 0 0 -1 I I #
point $-1 -47.80907620471816 34.396475866316152 -1.1022060120995016 #
End-of-ACIS-data 