500 0 9 0           
7 Unknown 11 ACIS 5.0 NT 24 Fri Mar 26 17:26:57 1999 
-1 9.9999999999999995e-007 1e-010 
body $-1 $9 $-1 $10 #
body $-1 $11 $-1 $12 #
body $-1 $13 $-1 $14 #
body $-1 $15 $-1 $16 #
body $-1 $17 $-1 $18 #
body $-1 $19 $-1 $20 #
body $-1 $21 $-1 $22 #
body $-1 $23 $-1 $24 #
body $-1 $25 $-1 $26 #
lump $-1 $-1 $27 $0 #
transform $-1 1 0 0 0 1 0 0 0 1 51.793572801904354 23.249176475014806 5.7045519559761813 1 rotate no_reflect no_shear #
lump $-1 $-1 $28 $1 #
transform $-1 1 0 0 0 1 0 0 0 1 51.793572801904354 23.249176475014806 5.7045519559761813 1 rotate no_reflect no_shear #
lump $-1 $-1 $29 $2 #
transform $-1 1 0 0 0 1 0 0 0 1 51.793572801904354 23.249176475014806 5.7045519559761813 1 rotate no_reflect no_shear #
lump $-1 $-1 $30 $3 #
transform $-1 1 0 0 0 1 0 0 0 1 51.793572801904354 23.249176475014806 5.7045519559761813 1 rotate no_reflect no_shear #
lump $-1 $-1 $31 $4 #
transform $-1 1 0 0 0 1 0 0 0 1 51.793572801904354 23.249176475014806 5.7045519559761813 1 rotate no_reflect no_shear #
lump $-1 $-1 $32 $5 #
transform $-1 1 0 0 0 1 0 0 0 1 51.793572801904354 23.249176475014806 5.7045519559761813 1 rotate no_reflect no_shear #
lump $-1 $-1 $33 $6 #
transform $-1 1 0 0 0 1 0 0 0 1 51.793572801904354 23.249176475014806 5.7045519559761813 1 rotate no_reflect no_shear #
lump $-1 $-1 $34 $7 #
transform $-1 1 0 0 0 1 0 0 0 1 51.793572801904354 23.249176475014806 5.7045519559761813 1 rotate no_reflect no_shear #
lump $-1 $-1 $35 $8 #
transform $-1 1 0 0 0 1 0 0 0 1 51.793572801904354 23.249176475014806 5.7045519559761813 1 rotate no_reflect no_shear #
shell $-1 $-1 $-1 $36 $-1 $9 #
shell $-1 $-1 $-1 $37 $-1 $11 #
shell $-1 $-1 $-1 $38 $-1 $13 #
shell $-1 $-1 $-1 $39 $-1 $15 #
shell $-1 $-1 $-1 $40 $-1 $17 #
shell $-1 $-1 $-1 $41 $-1 $19 #
shell $-1 $-1 $-1 $42 $-1 $21 #
shell $-1 $-1 $-1 $43 $-1 $23 #
shell $-1 $-1 $-1 $44 $-1 $25 #
face $-1 $45 $46 $27 $-1 $47 forward single #
face $-1 $48 $49 $28 $-1 $50 reversed single #
face $-1 $51 $52 $29 $-1 $53 reversed single #
face $-1 $54 $55 $30 $-1 $56 forward single #
face $-1 $57 $58 $31 $-1 $59 forward single #
face $-1 $60 $61 $32 $-1 $62 forward single #
face $-1 $63 $64 $33 $-1 $65 reversed single #
face $-1 $66 $67 $34 $-1 $68 forward single #
face $-1 $69 $70 $35 $-1 $71 forward single #
face $-1 $72 $73 $27 $-1 $74 reversed single #
loop $-1 $-1 $75 $36 #
plane-surface $-1 0 0 5.7045519559761813 0 0 1 1 0 0 forward_v I I I I #
face $-1 $76 $77 $28 $-1 $78 reversed single #
loop $-1 $-1 $79 $37 #
plane-surface $-1 -50.212290567920896 -19.085001527411677 0 0 -1 0 0 0 -1 forward_v I I I I #
face $-1 $80 $81 $29 $-1 $82 reversed single #
loop $-1 $-1 $83 $38 #
plane-surface $-1 41.574645332362444 20.581678601395179 147.2382321408943 0 -1 0 -0.6560590369687036 0 -0.75470957328743171 forward_v I I I I #
face $-1 $84 $85 $30 $-1 $86 forward single #
loop $-1 $87 $88 $39 #
cone-surface $-1 48.771692469298948 13.4641642747101 2.9725919252769102 -0.6560590369687036 0 -0.75470957328743171 0.37735478664371586 0 -0.3280295184843518 1 I I 0 1 0.5 forward I I I I #
face $-1 $89 $90 $31 $-1 $91 forward single #
loop $-1 $92 $93 $40 #
cone-surface $-1 48.771692469298948 16.133232147217008 2.9725919252769102 -0.6560590369687036 0 -0.75470957328743171 0.37735478664371586 0 -0.3280295184843518 1 I I 0 1 0.5 forward I I I I #
face $-1 $94 $95 $32 $-1 $96 forward single #
loop $-1 $97 $98 $41 #
cone-surface $-1 48.771692469298948 18.802300019723916 2.9725919252769102 -0.6560590369687036 0 -0.75470957328743171 0.37735478664371586 0 -0.3280295184843518 1 I I 0 1 0.5 forward I I I I #
face $-1 $99 $100 $33 $-1 $101 reversed single #
loop $-1 $-1 $102 $42 #
plane-surface $-1 -129.97178483562007 15.489611042925691 69.790406547449322 0 1 0 -0.75470958851134928 0 0.65605901945558964 forward_v I I I I #
face $-1 $103 $104 $34 $-1 $105 forward single #
loop $-1 $106 $107 $43 #
cone-surface $-1 -49.529603366977476 17.706629737808299 3.2632957024332545 0.75470958851134928 0 -0.65605901945558964 0.32802950972779482 0 0.37735479425567464 1 I I 0 1 0.5 forward I I I I #
face $-1 $108 $109 $35 $-1 $110 forward single #
loop $-1 $111 $112 $44 #
cone-surface $-1 -49.529603366977476 21.032157780132202 3.2632957024332545 0.75470958851134928 0 -0.65605901945558964 0.32802950972779482 0 0.37735479425567464 1 I I 0 1 0.5 forward I I I I #
face $-1 $113 $114 $27 $-1 $115 reversed single #
loop $-1 $-1 $116 $45 #
plane-surface $-1 0 0 -5.7045519559761813 0 0 1 1 0 0 forward_v I I I I #
coedge $-1 $117 $118 $119 $120 forward $46 $-1 #
face $-1 $121 $122 $28 $-1 $123 forward single #
loop $-1 $-1 $124 $48 #
plane-surface $-1 -48.631008333937437 -21.167089001213242 0 -1 0 0 0 0 1 forward_v I I I I #
coedge $-1 $125 $126 $127 $128 forward $49 $-1 #
face $-1 $129 $130 $29 $-1 $131 reversed single #
loop $-1 $-1 $132 $51 #
plane-surface $-1 -26.384637654809175 16.133232147217001 69.060021684180768 0.6560590369687036 0 0.75470957328743171 0.75470957328743171 0 -0.6560590369687036 forward_v I I I I #
coedge $-1 $133 $134 $135 $136 reversed $52 $-1 #
face $-1 $-1 $137 $30 $-1 $138 forward single #
loop $-1 $139 $140 $54 #
cone-surface $-1 48.233837983845611 13.4641642747101 2.3538611307393085 -0.6560590369687036 0 -0.75470957328743171 0.18867739332185793 0 -0.1640147592421759 1 I I -0.70710678118654746 0.70710678118654746 0.25 forward I I I I #
loop $-1 $-1 $141 $39 #
coedge $-1 $88 $88 $142 $143 reversed $55 $-1 #
face $-1 $-1 $144 $31 $-1 $145 forward single #
loop $-1 $146 $147 $57 #
cone-surface $-1 48.233837983845611 16.133232147217008 2.3538611307393085 -0.6560590369687036 0 -0.75470957328743171 0.18867739332185793 0 -0.1640147592421759 1 I I -0.70710678118654746 0.70710678118654746 0.25 forward I I I I #
loop $-1 $-1 $148 $40 #
coedge $-1 $93 $93 $149 $150 reversed $58 $-1 #
face $-1 $-1 $151 $32 $-1 $152 forward single #
loop $-1 $153 $154 $60 #
cone-surface $-1 48.233837983845611 18.802300019723916 2.3538611307393085 -0.6560590369687036 0 -0.75470957328743171 0.18867739332185793 0 -0.1640147592421759 1 I I -0.70710678118654746 0.70710678118654746 0.25 forward I I I I #
loop $-1 $-1 $155 $41 #
coedge $-1 $98 $98 $156 $157 reversed $61 $-1 #
face $-1 $158 $159 $33 $-1 $160 reversed single #
loop $-1 $-1 $161 $63 #
plane-surface $-1 -51.793572801904375 19.369393758970247 1.8311253744111866 -0.75470958851134928 0 0.65605901945558964 0.65605901945558964 0 0.75470958851134928 forward_v I I I I #
coedge $-1 $162 $163 $164 $165 reversed $64 $-1 #
face $-1 $-1 $166 $34 $-1 $167 forward single #
loop $-1 $168 $169 $66 #
cone-surface $-1 -48.760515670594543 17.706629737808299 2.5947379848089236 0.75470958851134928 0 -0.65605901945558964 0.16401475486389741 0 0.18867739712783732 1 I I -0.70710678118654746 0.70710678118654746 0.25 forward I I I I #
loop $-1 $-1 $170 $43 #
coedge $-1 $107 $107 $171 $172 reversed $67 $-1 #
face $-1 $-1 $173 $35 $-1 $174 forward single #
loop $-1 $175 $176 $69 #
cone-surface $-1 -48.760515670594543 21.032157780132202 2.5947379848089236 0.75470958851134928 0 -0.65605901945558964 0.16401475486389741 0 0.18867739712783732 1 I I -0.70710678118654746 0.70710678118654746 0.25 forward I I I I #
loop $-1 $-1 $177 $44 #
coedge $-1 $112 $112 $178 $179 reversed $70 $-1 #
face $-1 $180 $181 $27 $-1 $182 reversed single #
loop $-1 $-1 $183 $72 #
plane-surface $-1 0 -23.249176475014806 0 0 1 0 0 0 1 forward_v I I I I #
coedge $-1 $184 $185 $186 $187 forward $73 $-1 #
coedge $-1 $188 $75 $189 $190 forward $46 $-1 #
coedge $-1 $75 $188 $191 $192 forward $46 $-1 #
coedge $-1 $193 $194 $75 $120 reversed $195 $-1 #
edge $-1 $196 -23.249176475014806 $197 23.249176475014806 $119 $198 forward 7 unknown #
face $-1 $199 $200 $28 $-1 $201 reversed single #
loop $-1 $-1 $202 $76 #
plane-surface $-1 0 0 5.7045519559761813 0 0 1 1 0 0 forward_v I I I I #
coedge $-1 $203 $204 $205 $206 reversed $77 $-1 #
coedge $-1 $207 $79 $208 $209 reversed $49 $-1 #
coedge $-1 $79 $207 $210 $211 reversed $49 $-1 #
coedge $-1 $204 $203 $79 $128 reversed $77 $-1 #
edge $-1 $212 -5.7045519559761813 $213 5.7045519559761813 $127 $214 forward 7 unknown #
face $-1 $215 $216 $29 $-1 $217 reversed single #
loop $-1 $-1 $218 $80 #
plane-surface $-1 41.574645332362444 11.684785693038823 147.2382321408943 0 1 0 0.6560590369687036 0 0.75470957328743171 forward_v I I I I #
coedge $-1 $219 $220 $221 $222 reversed $81 $-1 #
coedge $-1 $134 $83 $223 $224 reversed $52 $-1 #
coedge $-1 $83 $133 $219 $225 reversed $52 $-1 #
coedge $-1 $221 $226 $83 $136 forward $227 $-1 #
edge $-1 $228 -31.006250135723132 $229 -25.710168922934681 $135 $230 forward 7 unknown #
loop $-1 $-1 $142 $84 #
plane-surface $-1 -26.384637654809175 16.133232147217001 69.060021684180768 0.6560590369687036 0 0.75470957328743171 0.75470957328743171 0 -0.6560590369687036 forward_v I I I I #
loop $-1 $-1 $231 $54 #
coedge $-1 $140 $140 $141 $232 reversed $85 $-1 #
coedge $-1 $141 $141 $140 $232 forward $87 $-1 #
coedge $-1 $142 $142 $88 $143 forward $137 $-1 #
edge $-1 $233 0 $233 6.2831853071796004 $142 $234 forward 7 unknown #
loop $-1 $-1 $149 $89 #
plane-surface $-1 -26.384637654809175 16.133232147217001 69.060021684180768 0.6560590369687036 0 0.75470957328743171 0.75470957328743171 0 -0.6560590369687036 forward_v I I I I #
loop $-1 $-1 $235 $57 #
coedge $-1 $147 $147 $148 $236 reversed $90 $-1 #
coedge $-1 $148 $148 $147 $236 forward $92 $-1 #
coedge $-1 $149 $149 $93 $150 forward $144 $-1 #
edge $-1 $237 0 $237 6.2831853071796004 $149 $238 forward 7 unknown #
loop $-1 $-1 $156 $94 #
plane-surface $-1 -26.384637654809175 16.133232147217001 69.060021684180768 0.6560590369687036 0 0.75470957328743171 0.75470957328743171 0 -0.6560590369687036 forward_v I I I I #
loop $-1 $-1 $239 $60 #
coedge $-1 $154 $154 $155 $240 reversed $95 $-1 #
coedge $-1 $155 $155 $154 $240 forward $97 $-1 #
coedge $-1 $156 $156 $98 $157 forward $151 $-1 #
edge $-1 $241 0 $241 6.2831853071796004 $156 $242 forward 7 unknown #
face $-1 $243 $244 $33 $-1 $245 reversed single #
loop $-1 $-1 $246 $99 #
plane-surface $-1 0 23.249176475014806 0 0 -1 0 0 0 -1 forward_v I I I I #
coedge $-1 $247 $248 $249 $250 reversed $100 $-1 #
coedge $-1 $163 $102 $251 $252 reversed $64 $-1 #
coedge $-1 $102 $162 $247 $253 reversed $64 $-1 #
coedge $-1 $249 $254 $102 $165 forward $255 $-1 #
edge $-1 $256 13.192319615905681 $257 16.559437887249224 $164 $258 forward 7 unknown #
loop $-1 $-1 $171 $103 #
plane-surface $-1 -51.793572801904375 19.369393758970247 1.8311253744111866 -0.75470958851134928 0 0.65605901945558964 0.65605901945558964 0 0.75470958851134928 forward_v I I I I #
loop $-1 $-1 $259 $66 #
coedge $-1 $169 $169 $170 $260 reversed $104 $-1 #
coedge $-1 $170 $170 $169 $260 forward $106 $-1 #
coedge $-1 $171 $171 $107 $172 forward $166 $-1 #
edge $-1 $261 0 $261 6.2831853071796004 $171 $262 forward 7 unknown #
loop $-1 $-1 $178 $108 #
plane-surface $-1 -51.793572801904375 19.369393758970247 1.8311253744111866 -0.75470958851134928 0 0.65605901945558964 0.65605901945558964 0 0.75470958851134928 forward_v I I I I #
loop $-1 $-1 $263 $69 #
coedge $-1 $176 $176 $177 $264 reversed $109 $-1 #
coedge $-1 $177 $177 $176 $264 forward $111 $-1 #
coedge $-1 $178 $178 $112 $179 forward $173 $-1 #
edge $-1 $265 0 $265 6.2831853071796004 $178 $266 forward 7 unknown #
face $-1 $267 $268 $27 $-1 $269 reversed single #
loop $-1 $-1 $270 $113 #
plane-surface $-1 -51.793572801904354 0 0 1 0 0 0 0 -1 forward_v I I I I #
coedge $-1 $271 $191 $272 $273 forward $114 $-1 #
coedge $-1 $274 $116 $271 $275 forward $73 $-1 #
coedge $-1 $116 $274 $276 $277 forward $73 $-1 #
coedge $-1 $194 $193 $116 $187 reversed $195 $-1 #
edge $-1 $278 -23.249176475014806 $279 23.249176475014806 $186 $280 forward 7 unknown #
coedge $-1 $118 $117 $281 $282 forward $46 $-1 #
coedge $-1 $283 $284 $117 $190 reversed $268 $-1 #
edge $-1 $197 -51.793572801904354 $285 51.793572801904354 $189 $286 forward 7 unknown #
coedge $-1 $183 $287 $118 $192 reversed $114 $-1 #
edge $-1 $288 -51.793572801904354 $196 51.793572801904354 $191 $289 forward 7 unknown #
coedge $-1 $186 $119 $287 $290 forward $195 $-1 #
coedge $-1 $119 $186 $283 $291 reversed $195 $-1 #
loop $-1 $-1 $193 $267 #
vertex $-1 $120 $292 #
vertex $-1 $120 $293 #
straight-curve $-1 51.793572801904354 0 5.7045519559761813 0 1 0 I I #
face $-1 $294 $295 $28 $-1 $296 reversed single #
loop $-1 $-1 $297 $121 #
plane-surface $-1 -51.793572801904354 0 0 1 0 0 0 0 -1 forward_v I I I I #
coedge $-1 $210 $298 $204 $299 forward $122 $-1 #
coedge $-1 $127 $124 $300 $301 reversed $77 $-1 #
coedge $-1 $124 $127 $202 $299 reversed $77 $-1 #
coedge $-1 $302 $303 $124 $206 forward $304 $-1 #
edge $-1 $305 -5.7045519559761813 $306 5.7045519559761813 $205 $307 forward 7 unknown #
coedge $-1 $126 $125 $297 $308 reversed $49 $-1 #
coedge $-1 $300 $309 $125 $209 forward $295 $-1 #
edge $-1 $310 -26.687427517943906 $213 -23.52486304997699 $208 $311 forward 7 unknown #
coedge $-1 $312 $202 $126 $211 forward $122 $-1 #
edge $-1 $212 23.52486304997699 $313 26.687427517943906 $210 $314 forward 7 unknown #
vertex $-1 $211 $315 #
vertex $-1 $209 $316 #
straight-curve $-1 -48.631008333937437 -19.085001527411677 0 0 0 -1 I I #
face $-1 $-1 $227 $29 $-1 $317 forward single #
loop $-1 $-1 $318 $129 #
plane-surface $-1 51.793572801904354 0 0 -1 0 0 0 0 1 forward_v I I I I #
coedge $-1 $319 $320 $321 $322 reversed $130 $-1 #
coedge $-1 $323 $132 $134 $225 forward $81 $-1 #
coedge $-1 $132 $323 $319 $324 forward $81 $-1 #
coedge $-1 $321 $135 $132 $222 forward $227 $-1 #
edge $-1 $229 -12.515062527786679 $325 -3.6181696194303221 $221 $326 forward 7 unknown #
coedge $-1 $327 $328 $133 $224 forward $216 $-1 #
edge $-1 $329 -72.518377373438 $228 -67.914564114470963 $223 $330 forward 7 unknown #
edge $-1 $229 96.569769118547896 $329 103.58714560380872 $134 $331 forward 7 unknown #
coedge $-1 $135 $321 $327 $332 forward $227 $-1 #
loop $-1 $-1 $321 $215 #
vertex $-1 $224 $333 #
vertex $-1 $136 $334 #
straight-curve $-1 20.787322666181222 20.581678601395179 5.7045519559761857 -1 0 0 I I #
coedge $-1 $231 $231 $-1 $335 reversed $139 $-1 #
edge $-1 $336 0 $336 6.2831853071796004 $140 $337 forward 7 unknown #
vertex $-1 $143 $338 #
ellipse-curve $-1 49.145532195510121 13.4641642747101 3.4026453264926686 0.6560590369687036 0 0.75470957328743171 0.37735478664371586 0 -0.3280295184843518 1 I I #
coedge $-1 $235 $235 $-1 $339 reversed $146 $-1 #
edge $-1 $340 0 $340 6.2831853071796004 $147 $341 forward 7 unknown #
vertex $-1 $150 $342 #
ellipse-curve $-1 49.145532195510121 16.133232147217008 3.4026453264926686 0.6560590369687036 0 0.75470957328743171 0.37735478664371586 0 -0.3280295184843518 1 I I #
coedge $-1 $239 $239 $-1 $343 reversed $153 $-1 #
edge $-1 $344 0 $344 6.2831853071796004 $154 $345 forward 7 unknown #
vertex $-1 $157 $346 #
ellipse-curve $-1 49.145532195510121 18.802300019723916 3.4026453264926686 0.6560590369687036 0 0.75470957328743171 0.37735478664371586 0 -0.3280295184843518 1 I I #
face $-1 $-1 $255 $33 $-1 $347 forward single #
loop $-1 $-1 $348 $158 #
plane-surface $-1 -51.793572801904354 0 0 1 0 0 0 0 -1 forward_v I I I I #
coedge $-1 $349 $350 $248 $351 forward $159 $-1 #
coedge $-1 $352 $161 $163 $253 forward $100 $-1 #
coedge $-1 $161 $352 $246 $351 reversed $100 $-1 #
coedge $-1 $353 $164 $161 $250 forward $255 $-1 #
edge $-1 $257 5.8049141634405679 $354 13.564479595529679 $249 $355 forward 7 unknown #
coedge $-1 $356 $348 $162 $252 forward $244 $-1 #
edge $-1 $357 -33.064077899313453 $256 -29.190651317748479 $251 $358 forward 7 unknown #
edge $-1 $257 -5.1323404929904983 $357 -3.2418450280676821e-014 $163 $359 forward 7 unknown #
coedge $-1 $164 $353 $356 $360 forward $255 $-1 #
loop $-1 $-1 $249 $243 #
vertex $-1 $252 $361 #
vertex $-1 $165 $362 #
straight-curve $-1 -64.985892417810035 15.489611042925691 5.7045519559761786 1 0 0 I I #
coedge $-1 $259 $259 $-1 $363 reversed $168 $-1 #
edge $-1 $364 0 $364 6.2831853071796004 $169 $365 forward 7 unknown #
vertex $-1 $172 $366 #
ellipse-curve $-1 -50.110013666232582 17.706629737808299 3.7678386651936968 -0.75470958851134928 0 0.65605901945558964 0.32802950972779482 0 0.37735479425567464 1 I I #
coedge $-1 $263 $263 $-1 $367 reversed $175 $-1 #
edge $-1 $368 0 $368 6.2831853071796004 $176 $369 forward 7 unknown #
vertex $-1 $179 $370 #
ellipse-curve $-1 -50.110013666232582 21.032157780132202 3.7678386651936968 -0.75470958851134928 0 0.65605901945558964 0.32802950972779482 0 0.37735479425567464 1 I I #
face $-1 $-1 $195 $27 $-1 $371 reversed single #
loop $-1 $-1 $283 $180 #
plane-surface $-1 0 23.249176475014806 0 0 -1 0 0 0 -1 forward_v I I I I #
coedge $-1 $372 $281 $284 $373 forward $181 $-1 #
coedge $-1 $287 $183 $184 $275 reversed $114 $-1 #
coedge $-1 $281 $372 $183 $273 reversed $181 $-1 #
edge $-1 $288 -5.7045519559761813 $374 5.7045519559761813 $272 $375 forward 7 unknown #
coedge $-1 $185 $184 $372 $376 forward $73 $-1 #
edge $-1 $279 -51.793572801904354 $374 51.793572801904354 $271 $377 forward 7 unknown #
coedge $-1 $284 $283 $185 $277 reversed $268 $-1 #
edge $-1 $378 -51.793572801904354 $278 51.793572801904354 $276 $379 forward 7 unknown #
vertex $-1 $187 $380 #
vertex $-1 $290 $381 #
straight-curve $-1 51.793572801904354 0 -5.7045519559761813 0 -1 0 I I #
coedge $-1 $270 $272 $188 $282 reversed $181 $-1 #
edge $-1 $285 -23.249176475014806 $288 23.249176475014806 $281 $382 forward 7 unknown #
coedge $-1 $276 $189 $194 $291 forward $268 $-1 #
coedge $-1 $189 $276 $270 $373 reversed $268 $-1 #
vertex $-1 $190 $383 #
straight-curve $-1 0 23.249176475014806 5.7045519559761813 -1 0 0 I I #
coedge $-1 $191 $271 $193 $290 reversed $114 $-1 #
vertex $-1 $282 $384 #
straight-curve $-1 0 -23.249176475014806 5.7045519559761813 1 0 0 I I #
edge $-1 $196 -5.7045519559761813 $279 5.7045519559761813 $193 $385 forward 7 unknown #
edge $-1 $197 -5.7045519559761813 $278 5.7045519559761813 $194 $386 forward 7 unknown #
point $-1 51.793572801904354 -23.249176475014806 5.7045519559761813 #
point $-1 51.793572801904354 23.249176475014806 5.7045519559761813 #
face $-1 $-1 $304 $28 $-1 $387 reversed single #
loop $-1 $-1 $300 $199 #
plane-surface $-1 0 0 -5.7045519559761813 0 0 1 1 0 0 forward_v I I I I #
coedge $-1 $388 $389 $207 $308 forward $200 $-1 #
coedge $-1 $202 $312 $302 $390 forward $122 $-1 #
edge $-1 $306 -12.665631974408186 $212 -8.5014570268050562 $202 $391 forward 7 unknown #
coedge $-1 $392 $208 $203 $301 forward $295 $-1 #
edge $-1 $213 8.5014570268050562 $305 12.665631974408186 $300 $393 forward 7 unknown #
coedge $-1 $394 $205 $298 $390 reversed $304 $-1 #
coedge $-1 $205 $394 $392 $395 reversed $304 $-1 #
loop $-1 $-1 $205 $294 #
vertex $-1 $395 $396 #
vertex $-1 $206 $397 #
straight-curve $-1 -48.631008333937437 -23.249176475014806 0 0 0 1 I I #
edge $-1 $313 -5.7045519559761813 $310 5.7045519559761813 $297 $398 forward 7 unknown #
coedge $-1 $208 $392 $388 $399 forward $295 $-1 #
vertex $-1 $209 $400 #
straight-curve $-1 -25.106145283960448 -19.085001527411677 -5.7045519559761813 1 0 0 I I #
coedge $-1 $298 $210 $389 $401 forward $122 $-1 #
vertex $-1 $401 $402 #
straight-curve $-1 -25.106145283960448 -19.085001527411677 5.7045519559761813 -1 0 0 I I #
point $-1 -48.631008333937437 -19.085001527411677 5.7045519559761813 #
point $-1 -48.631008333937437 -19.085001527411677 -5.7045519559761813 #
plane-surface $-1 0 0 5.7045519559761813 0 0 1 1 0 0 forward_v I I I I #
coedge $-1 $328 $327 $320 $403 forward $216 $-1 #
coedge $-1 $320 $218 $220 $324 reversed $130 $-1 #
coedge $-1 $218 $319 $318 $403 reversed $130 $-1 #
coedge $-1 $226 $221 $218 $322 forward $227 $-1 #
edge $-1 $325 25.710168922934681 $404 31.006250135723132 $321 $405 forward 7 unknown #
coedge $-1 $220 $219 $328 $406 reversed $81 $-1 #
edge $-1 $407 -103.58714560380872 $325 -96.569769118547896 $319 $408 forward 7 unknown #
vertex $-1 $222 $409 #
straight-curve $-1 46.497491589115917 8.0666160736085004 5.7045519559761857 0 -1 0 I I #
coedge $-1 $318 $223 $226 $332 reversed $216 $-1 #
coedge $-1 $223 $318 $323 $406 forward $216 $-1 #
vertex $-1 $224 $410 #
straight-curve $-1 51.793572801904354 20.581678601395179 73.619116070447149 0 0 1 I I #
straight-curve $-1 -26.384637654809175 20.581678601395179 69.060021684180768 0.75470957328743171 0 -0.6560590369687036 I I #
edge $-1 $404 11.684785693038823 $228 20.581678601395179 $327 $411 forward 7 unknown #
point $-1 51.793572801904354 20.581678601395179 5.7045519559761813 #
point $-1 46.497491589115903 20.581678601395179 5.7045519559761857 #
edge $-1 $412 1 $412 0 $231 $-1 forward 7 unknown #
vertex $-1 $232 $413 #
ellipse-curve $-1 48.397852743087789 13.4641642747101 2.5425385240611664 0.6560590369687036 0 0.75470957328743171 0.37735478664371586 0 -0.3280295184843518 1 I I #
point $-1 49.522886982153828 13.4641642747101 3.0746158080083021 #
edge $-1 $414 1 $414 0 $235 $-1 forward 7 unknown #
vertex $-1 $236 $415 #
ellipse-curve $-1 48.397852743087789 16.133232147217008 2.5425385240611664 0.6560590369687036 0 0.75470957328743171 0.37735478664371586 0 -0.3280295184843518 1 I I #
point $-1 49.522886982153828 16.133232147217008 3.0746158080083021 #
edge $-1 $416 1 $416 0 $239 $-1 forward 7 unknown #
vertex $-1 $240 $417 #
ellipse-curve $-1 48.397852743087789 18.802300019723916 2.5425385240611664 0.6560590369687036 0 0.75470957328743171 0.37735478664371586 0 -0.3280295184843518 1 I I #
point $-1 49.522886982153828 18.802300019723916 3.0746158080083021 #
plane-surface $-1 0 0 5.7045519559761813 0 0 1 1 0 0 forward_v I I I I #
coedge $-1 $251 $418 $352 $419 forward $244 $-1 #
coedge $-1 $350 $246 $418 $420 reversed $159 $-1 #
coedge $-1 $246 $349 $353 $421 reversed $159 $-1 #
edge $-1 $354 11.166495861351766 $422 16.298836354342232 $246 $423 forward 7 unknown #
coedge $-1 $248 $247 $348 $419 reversed $100 $-1 #
coedge $-1 $254 $249 $350 $421 forward $255 $-1 #
vertex $-1 $421 $424 #
straight-curve $-1 -48.426454530560804 9.6846968794851236 5.7045519559761786 0 1 0 I I #
coedge $-1 $418 $251 $254 $360 reversed $244 $-1 #
vertex $-1 $252 $425 #
straight-curve $-1 -51.793572801904354 15.489611042925691 34.895203273724661 0 0 1 I I #
straight-curve $-1 -51.793572801904375 15.489611042925691 1.8311253744111866 -0.65605901945558964 0 -0.75470958851134928 I I #
edge $-1 $426 -23.249176475014806 $256 -15.489611042925691 $356 $427 forward 7 unknown #
point $-1 -51.793572801904354 15.489611042925691 5.7045519559761813 #
point $-1 -48.426454530560811 15.489611042925691 5.7045519559761804 #
edge $-1 $428 1 $428 0 $259 $-1 forward 7 unknown #
vertex $-1 $260 $429 #
ellipse-curve $-1 -48.949193067722383 17.706629737808299 2.7587527396728211 -0.75470958851134928 0 0.65605901945558964 0.32802950972779482 0 0.37735479425567464 1 I I #
point $-1 -49.781984156504777 17.706629737808299 4.1451934594493629 #
edge $-1 $430 1 $430 0 $263 $-1 forward 7 unknown #
vertex $-1 $264 $431 #
ellipse-curve $-1 -48.949193067722383 21.032157780132202 2.7587527396728211 -0.75470958851134928 0 0.65605901945558964 0.32802950972779482 0 0.37735479425567464 1 I I #
point $-1 -49.781984156504777 21.032157780132202 4.1451934594493629 #
plane-surface $-1 51.793572801904354 0 0 -1 0 0 0 0 1 forward_v I I I I #
coedge $-1 $272 $270 $274 $376 reversed $181 $-1 #
edge $-1 $285 -5.7045519559761813 $378 5.7045519559761813 $284 $432 forward 7 unknown #
vertex $-1 $376 $433 #
straight-curve $-1 -51.793572801904354 -23.249176475014806 0 0 0 -1 I I #
edge $-1 $374 -23.249176475014806 $378 23.249176475014806 $372 $434 forward 7 unknown #
straight-curve $-1 0 -23.249176475014806 -5.7045519559761813 -1 0 0 I I #
vertex $-1 $277 $435 #
straight-curve $-1 0 23.249176475014806 -5.7045519559761813 1 0 0 I I #
point $-1 51.793572801904354 23.249176475014806 -5.7045519559761813 #
point $-1 51.793572801904354 -23.249176475014806 -5.7045519559761813 #
straight-curve $-1 -51.793572801904354 0 5.7045519559761813 0 -1 0 I I #
point $-1 -51.793572801904354 23.249176475014806 5.7045519559761813 #
point $-1 -51.793572801904354 -23.249176475014806 5.7045519559761813 #
straight-curve $-1 51.793572801904354 -23.249176475014806 0 0 0 -1 I I #
straight-curve $-1 51.793572801904354 23.249176475014806 0 0 0 -1 I I #
plane-surface $-1 0 -23.249176475014806 0 0 1 0 0 0 1 forward_v I I I I #
coedge $-1 $436 $297 $309 $399 reversed $200 $-1 #
coedge $-1 $297 $436 $312 $401 reversed $200 $-1 #
edge $-1 $437 -51.793572801904354 $306 -48.631008333937437 $302 $438 forward 7 unknown #
straight-curve $-1 -48.631008333937437 -10.583544500606621 5.7045519559761813 0 1 0 I I #
coedge $-1 $309 $300 $303 $395 forward $295 $-1 #
straight-curve $-1 -48.631008333937437 -10.583544500606621 -5.7045519559761813 0 -1 0 I I #
coedge $-1 $303 $302 $436 $439 forward $304 $-1 #
edge $-1 $305 48.631008333937437 $440 51.793572801904354 $303 $441 forward 7 unknown #
point $-1 -48.631008333937437 -23.249176475014806 -5.7045519559761813 #
point $-1 -48.631008333937437 -23.249176475014806 5.7045519559761813 #
straight-curve $-1 -51.793572801904354 -19.085001527411677 0 0 0 -1 I I #
edge $-1 $440 -23.249176475014806 $310 -19.085001527411677 $388 $442 forward 7 unknown #
point $-1 -51.793572801904354 -19.085001527411677 -5.7045519559761813 #
edge $-1 $313 19.085001527411677 $437 23.249176475014806 $389 $443 forward 7 unknown #
point $-1 -51.793572801904354 -19.085001527411677 5.7045519559761813 #
edge $-1 $404 67.914564114470963 $407 72.518377373438 $318 $444 forward 7 unknown #
vertex $-1 $332 $445 #
straight-curve $-1 20.787322666181222 11.684785693038823 5.7045519559761857 1 0 0 I I #
edge $-1 $407 3.6181696194303221 $329 12.515062527786679 $328 $446 forward 7 unknown #
vertex $-1 $406 $447 #
straight-curve $-1 -26.384637654809175 11.684785693038823 69.060021684180768 -0.75470957328743171 0 0.6560590369687036 I I #
point $-1 46.497491589115903 11.684785693038823 5.7045519559761857 #
point $-1 51.793572801904354 20.581678601395179 1.1007386970091488 #
straight-curve $-1 51.793572801904354 0 5.7045519559761813 0 1 0 I I #
vertex $-1 $335 $448 #
point $-1 48.775207529731503 13.4641642747101 2.2145090055768146 #
vertex $-1 $339 $449 #
point $-1 48.775207529731503 16.133232147217008 2.2145090055768146 #
vertex $-1 $343 $450 #
point $-1 48.775207529731503 18.802300019723916 2.2145090055768146 #
coedge $-1 $348 $356 $349 $420 forward $244 $-1 #
edge $-1 $422 -13.564479595529679 $357 -5.8049141634405679 $348 $451 forward 7 unknown #
edge $-1 $426 -5.7045519559761813 $422 -1.831125374411211 $349 $452 forward 7 unknown #
edge $-1 $354 48.426454530560811 $426 51.793572801904354 $350 $453 forward 7 unknown #
vertex $-1 $419 $454 #
straight-curve $-1 -41.100574205007469 23.249176475014806 14.132013452610654 -0.65605901945558975 0 -0.75470958851134939 I I #
point $-1 -48.426454530560811 23.249176475014803 5.7045519559761804 #
point $-1 -51.793572801904354 15.489611042925691 1.831125374411211 #
vertex $-1 $421 $455 #
straight-curve $-1 -51.793572801904354 0 5.7045519559761813 0 -1 0 I I #
vertex $-1 $363 $456 #
point $-1 -48.621163557994585 17.706629737808299 3.1361075339284956 #
vertex $-1 $367 $457 #
point $-1 -48.621163557994585 21.032157780132202 3.1361075339284956 #
straight-curve $-1 -51.793572801904354 23.249176475014806 0 0 0 -1 I I #
point $-1 -51.793572801904354 -23.249176475014806 -5.7045519559761813 #
straight-curve $-1 -51.793572801904354 0 -5.7045519559761813 0 1 0 I I #
point $-1 -51.793572801904354 23.249176475014806 -5.7045519559761813 #
coedge $-1 $389 $388 $394 $439 reversed $200 $-1 #
vertex $-1 $401 $458 #
straight-curve $-1 0 -23.249176475014806 5.7045519559761813 1 0 0 I I #
edge $-1 $437 -5.7045519559761813 $440 5.7045519559761813 $436 $459 forward 7 unknown #
vertex $-1 $399 $460 #
straight-curve $-1 0 -23.249176475014806 -5.7045519559761813 -1 0 0 I I #
straight-curve $-1 -51.793572801904354 0 -5.7045519559761813 0 1 0 I I #
straight-curve $-1 -51.793572801904354 0 5.7045519559761813 0 -1 0 I I #
straight-curve $-1 51.793572801904354 11.684785693038823 73.619116070447149 0 0 -1 I I #
point $-1 51.793572801904354 11.684785693038823 5.7045519559761813 #
straight-curve $-1 51.793572801904354 8.0666160736085004 1.1007386970091488 0 1 0 I I #
point $-1 51.793572801904354 11.684785693038823 1.1007386970091488 #
point $-1 48.069823224603432 13.4641642747101 2.1651837374174505 #
point $-1 48.069823224603432 16.133232147217008 2.1651837374174505 #
point $-1 48.069823224603432 18.802300019723916 2.1651837374174505 #
straight-curve $-1 -51.793572801904354 9.6846968794851236 1.8311253744112059 0 -1 0 I I #
straight-curve $-1 -51.793572801904354 23.249176475014806 0 0 0 -1 I I #
straight-curve $-1 0 23.249176475014806 5.7045519559761813 -1 0 0 I I #
point $-1 -51.793572801904354 23.249176475014803 1.831125374411211 #
point $-1 -51.793572801904354 23.249176475014806 5.7045519559761813 #
point $-1 -48.571838273466703 17.706629737808299 2.4307232299450261 #
point $-1 -48.571838273466703 21.032157780132202 2.4307232299450261 #
point $-1 -51.793572801904354 -23.249176475014806 5.7045519559761813 #
straight-curve $-1 -51.793572801904354 -23.249176475014806 0 0 0 -1 I I #
point $-1 -51.793572801904354 -23.249176475014806 -5.7045519559761813 #
End-of-ACIS-data 