500 0 6 0           
7 Unknown 11 ACIS 5.0 NT 24 Fri Mar 26 18:03:29 1999 
-1 9.9999999999999995e-007 1e-010 
body $-1 $6 $-1 $7 #
body $-1 $8 $-1 $9 #
body $-1 $10 $-1 $11 #
body $-1 $12 $-1 $13 #
body $-1 $14 $-1 $15 #
body $-1 $16 $-1 $17 #
lump $-1 $-1 $18 $0 #
transform $-1 1 0 0 0 1 0 0 0 1 60.269173253578295 25.222852252072041 8.586561854958136 1 rotate no_reflect no_shear #
lump $-1 $-1 $19 $1 #
transform $-1 1 0 0 0 1 0 0 0 1 60.269173253578295 25.222852252072041 8.586561854958136 1 rotate no_reflect no_shear #
lump $-1 $-1 $20 $2 #
transform $-1 1 0 0 0 1 0 0 0 1 60.269173253578295 25.222852252072041 8.586561854958136 1 rotate no_reflect no_shear #
lump $-1 $-1 $21 $3 #
transform $-1 1 0 0 0 1 0 0 0 1 60.269173253578295 25.222852252072041 8.586561854958136 1 rotate no_reflect no_shear #
lump $-1 $-1 $22 $4 #
transform $-1 1 0 0 0 1 0 0 0 1 60.269173253578295 25.222852252072041 8.586561854958136 1 rotate no_reflect no_shear #
lump $-1 $-1 $23 $5 #
transform $-1 1 0 0 0 1 0 0 0 1 60.269173253578295 25.222852252072041 8.586561854958136 1 rotate no_reflect no_shear #
shell $-1 $-1 $-1 $24 $-1 $6 #
shell $-1 $-1 $-1 $25 $-1 $8 #
shell $-1 $-1 $-1 $26 $-1 $10 #
shell $-1 $-1 $-1 $27 $-1 $12 #
shell $-1 $-1 $-1 $28 $-1 $14 #
shell $-1 $-1 $-1 $29 $-1 $16 #
face $-1 $30 $31 $18 $-1 $32 forward single #
face $-1 $33 $34 $19 $-1 $35 forward single #
face $-1 $36 $37 $20 $-1 $38 forward single #
face $-1 $39 $40 $21 $-1 $41 reversed single #
face $-1 $42 $43 $22 $-1 $44 forward single #
face $-1 $45 $46 $23 $-1 $47 forward single #
face $-1 $48 $49 $18 $-1 $50 reversed single #
loop $-1 $-1 $51 $24 #
plane-surface $-1 0 0 8.586561854958136 0 0 1 1 0 0 forward_v I I I I #
face $-1 $52 $53 $19 $-1 $54 reversed single #
loop $-1 $-1 $55 $25 #
plane-surface $-1 -60.269173253578295 0 0 1 0 0 0 0 -1 forward_v I I I I #
face $-1 $56 $57 $20 $-1 $58 reversed single #
loop $-1 $-1 $59 $26 #
plane-surface $-1 60.269173253578295 0 0 -1 0 0 0 0 1 forward_v I I I I #
face $-1 $60 $61 $21 $-1 $62 reversed single #
loop $-1 $-1 $63 $27 #
plane-surface $-1 -46.72526997912577 55.262083608015402 129.96797462300066 1 0 0 0 -0.5877852598018023 -0.80901698891910034 forward_v I I I I #
face $-1 $64 $65 $22 $-1 $66 forward single #
loop $-1 $67 $68 $28 #
cone-surface $-1 -38.191704616110414 20.125651785767136 4.1590706818575249 0 -0.5877852598018023 -0.80901698891910034 2 0 0 1 I I 0 1 2 forward I I I I #
face $-1 $69 $70 $23 $-1 $71 forward single #
loop $-1 $72 $73 $29 #
cone-surface $-1 -25.391356571587387 20.125651785767136 4.1590706818575249 0 -0.5877852598018023 -0.80901698891910034 2 0 0 1 I I 0 1 2 forward I I I I #
face $-1 $74 $75 $18 $-1 $76 reversed single #
loop $-1 $-1 $77 $30 #
plane-surface $-1 0 0 -8.586561854958136 0 0 1 1 0 0 forward_v I I I I #
coedge $-1 $78 $79 $80 $81 forward $31 $-1 #
face $-1 $82 $83 $19 $-1 $84 reversed single #
loop $-1 $-1 $85 $33 #
plane-surface $-1 0 0 -8.586561854958136 0 0 1 1 0 0 forward_v I I I I #
coedge $-1 $86 $87 $88 $89 forward $34 $-1 #
face $-1 $90 $91 $20 $-1 $92 reversed single #
loop $-1 $-1 $93 $36 #
plane-surface $-1 0 0 -8.586561854958136 0 0 1 1 0 0 forward_v I I I I #
coedge $-1 $94 $95 $96 $97 forward $37 $-1 #
face $-1 $98 $99 $21 $-1 $100 reversed single #
loop $-1 $-1 $101 $39 #
plane-surface $-1 -31.791530593848901 -15.588579709773299 32.450404482493695 0 0.5877852598018023 0.80901698891910034 1 0 0 forward_v I I I I #
coedge $-1 $102 $103 $104 $105 reversed $40 $-1 #
face $-1 $-1 $106 $22 $-1 $107 forward single #
loop $-1 $108 $109 $42 #
cone-surface $-1 -38.191704616110414 18.423501588393766 1.8162619699966722 0 -0.5877852598018023 -0.80901698891910034 1 0 0 1 I I -0.70710678118654746 0.70710678118654746 1 forward I I I I #
loop $-1 $-1 $110 $28 #
coedge $-1 $68 $68 $111 $112 reversed $43 $-1 #
face $-1 $-1 $113 $23 $-1 $114 forward single #
loop $-1 $115 $116 $45 #
cone-surface $-1 -25.391356571587387 18.423501588393766 1.8162619699966722 0 -0.5877852598018023 -0.80901698891910034 1 0 0 1 I I -0.70710678118654746 0.70710678118654746 1 forward I I I I #
loop $-1 $-1 $117 $29 #
coedge $-1 $73 $73 $118 $119 reversed $46 $-1 #
face $-1 $120 $121 $18 $-1 $122 reversed single #
loop $-1 $-1 $123 $48 #
plane-surface $-1 0 -25.222852252072041 0 0 1 0 0 0 1 forward_v I I I I #
coedge $-1 $124 $125 $126 $127 forward $49 $-1 #
coedge $-1 $128 $51 $129 $130 forward $31 $-1 #
coedge $-1 $51 $128 $131 $132 forward $31 $-1 #
coedge $-1 $133 $134 $51 $81 reversed $135 $-1 #
edge $-1 $136 -25.222852252072041 $137 25.222852252072041 $80 $138 forward 7 unknown #
face $-1 $139 $140 $19 $-1 $141 reversed single #
loop $-1 $-1 $142 $52 #
plane-surface $-1 -63.384564578314105 -12.391305113113603 0 0 1 0 0 0 1 forward_v I I I I #
coedge $-1 $143 $144 $87 $145 forward $53 $-1 #
coedge $-1 $146 $55 $147 $148 reversed $34 $-1 #
coedge $-1 $55 $146 $85 $145 reversed $34 $-1 #
coedge $-1 $149 $150 $55 $89 reversed $151 $-1 #
edge $-1 $152 -8.586561854958136 $153 8.586561854958136 $88 $154 forward 7 unknown #
face $-1 $155 $156 $20 $-1 $157 reversed single #
loop $-1 $-1 $96 $56 #
plane-surface $-1 63.384564578314105 -12.391305113113603 0 0 1 0 0 0 1 forward_v I I I I #
coedge $-1 $158 $159 $95 $160 forward $57 $-1 #
coedge $-1 $161 $59 $162 $163 reversed $37 $-1 #
coedge $-1 $59 $161 $93 $160 reversed $37 $-1 #
coedge $-1 $164 $165 $59 $97 reversed $91 $-1 #
edge $-1 $166 -8.586561854958136 $167 8.586561854958136 $96 $168 forward 7 unknown #
face $-1 $169 $170 $21 $-1 $171 reversed single #
loop $-1 $-1 $172 $60 #
plane-surface $-1 -16.857791208572031 55.262083608015402 129.96797462300066 -1 0 0 0 0.5877852598018023 0.80901698891910034 forward_v I I I I #
coedge $-1 $173 $174 $175 $176 reversed $61 $-1 #
coedge $-1 $103 $63 $177 $178 reversed $40 $-1 #
coedge $-1 $63 $102 $173 $179 reversed $40 $-1 #
coedge $-1 $175 $180 $63 $105 forward $181 $-1 #
edge $-1 $182 2.40818955193566 $183 10.373860609402342 $104 $184 forward 7 unknown #
loop $-1 $-1 $111 $64 #
plane-surface $-1 -31.791530593848901 -15.588579709773299 32.450404482493695 0 0.5877852598018023 0.80901698891910034 1 0 0 forward_v I I I I #
loop $-1 $-1 $185 $42 #
coedge $-1 $109 $109 $110 $186 reversed $65 $-1 #
coedge $-1 $110 $110 $109 $186 forward $67 $-1 #
coedge $-1 $111 $111 $68 $112 forward $106 $-1 #
edge $-1 $187 7.8308727476068846e-016 $187 6.2831853071796013 $111 $188 forward 7 unknown #
loop $-1 $-1 $118 $69 #
plane-surface $-1 -31.791530593848901 -15.588579709773299 32.450404482493695 0 0.5877852598018023 0.80901698891910034 1 0 0 forward_v I I I I #
loop $-1 $-1 $189 $45 #
coedge $-1 $116 $116 $117 $190 reversed $70 $-1 #
coedge $-1 $117 $117 $116 $190 forward $72 $-1 #
coedge $-1 $118 $118 $73 $119 forward $113 $-1 #
edge $-1 $191 7.8308727476068846e-016 $191 6.2831853071796013 $118 $192 forward 7 unknown #
face $-1 $193 $194 $18 $-1 $195 reversed single #
loop $-1 $-1 $196 $74 #
plane-surface $-1 -60.269173253578295 0 0 1 0 0 0 0 -1 forward_v I I I I #
coedge $-1 $197 $131 $198 $199 forward $75 $-1 #
coedge $-1 $200 $77 $197 $201 forward $49 $-1 #
coedge $-1 $77 $200 $202 $203 forward $49 $-1 #
coedge $-1 $134 $133 $77 $127 reversed $135 $-1 #
edge $-1 $204 -25.222852252072041 $205 25.222852252072041 $126 $206 forward 7 unknown #
coedge $-1 $79 $78 $207 $208 forward $31 $-1 #
coedge $-1 $209 $210 $78 $130 reversed $194 $-1 #
edge $-1 $137 -60.269173253578295 $211 60.269173253578295 $129 $212 forward 7 unknown #
coedge $-1 $123 $213 $79 $132 reversed $75 $-1 #
edge $-1 $214 -60.269173253578295 $136 60.269173253578295 $131 $215 forward 7 unknown #
coedge $-1 $126 $80 $213 $216 forward $135 $-1 #
coedge $-1 $80 $126 $209 $217 reversed $135 $-1 #
loop $-1 $-1 $133 $193 #
vertex $-1 $81 $218 #
vertex $-1 $81 $219 #
straight-curve $-1 60.269173253578295 0 8.586561854958136 0 1 0 I I #
face $-1 $220 $151 $19 $-1 $221 reversed single #
loop $-1 $-1 $222 $82 #
plane-surface $-1 -66.499955903049909 -10.220516827634686 0 1 0 0 0 0 -1 forward_v I I I I #
coedge $-1 $223 $224 $225 $226 forward $83 $-1 #
coedge $-1 $227 $85 $223 $228 forward $53 $-1 #
coedge $-1 $85 $227 $149 $229 forward $53 $-1 #
edge $-1 $152 8.0497285421557692 $230 12.391305113113603 $85 $231 forward 7 unknown #
coedge $-1 $87 $86 $232 $233 forward $34 $-1 #
coedge $-1 $234 $235 $86 $148 forward $236 $-1 #
edge $-1 $237 -12.391305113113603 $153 -8.0497285421557692 $147 $238 forward 7 unknown #
coedge $-1 $239 $88 $144 $229 reversed $151 $-1 #
coedge $-1 $88 $239 $234 $240 reversed $151 $-1 #
loop $-1 $-1 $88 $139 #
vertex $-1 $145 $241 #
vertex $-1 $240 $242 #
straight-curve $-1 -60.269173253578295 -8.0497285421557692 0 0 0 1 I I #
face $-1 $243 $244 $20 $-1 $245 reversed single #
loop $-1 $-1 $246 $90 #
plane-surface $-1 63.384564578314105 -8.0497285421557692 0 0 -1 0 0 0 -1 forward_v I I I I #
coedge $-1 $247 $93 $248 $249 forward $57 $-1 #
coedge $-1 $93 $247 $164 $250 forward $57 $-1 #
edge $-1 $166 -12.391305113113603 $251 -8.0497285421557692 $93 $252 forward 7 unknown #
coedge $-1 $95 $94 $253 $254 forward $37 $-1 #
coedge $-1 $255 $256 $94 $163 forward $257 $-1 #
edge $-1 $258 8.0497285421557692 $167 12.391305113113603 $162 $259 forward 7 unknown #
coedge $-1 $260 $96 $159 $250 reversed $91 $-1 #
coedge $-1 $96 $260 $255 $261 reversed $91 $-1 #
vertex $-1 $160 $262 #
vertex $-1 $261 $263 #
straight-curve $-1 60.269173253578295 -12.391305113113603 0 0 0 1 I I #
face $-1 $-1 $181 $21 $-1 $264 forward single #
loop $-1 $-1 $265 $98 #
plane-surface $-1 0 25.222852252072041 0 0 -1 0 0 0 -1 forward_v I I I I #
coedge $-1 $266 $267 $268 $269 reversed $99 $-1 #
coedge $-1 $270 $101 $103 $179 forward $61 $-1 #
coedge $-1 $101 $270 $266 $271 forward $61 $-1 #
coedge $-1 $268 $104 $101 $176 forward $181 $-1 #
edge $-1 $183 -30.829504682201318 $272 -0.96202591164758111 $175 $273 forward 7 unknown #
coedge $-1 $274 $275 $102 $178 forward $170 $-1 #
edge $-1 $276 -62.184824356859906 $182 -56.397425456542194 $177 $277 forward 7 unknown #
edge $-1 $183 40.599593524312439 $276 50.445704504144082 $103 $278 forward 7 unknown #
coedge $-1 $104 $268 $274 $279 forward $181 $-1 #
loop $-1 $-1 $268 $169 #
vertex $-1 $178 $280 #
vertex $-1 $105 $281 #
straight-curve $-1 -46.72526997912577 27.631041804007701 8.5865618549581342 0 -1 0 I I #
coedge $-1 $185 $185 $-1 $282 reversed $108 $-1 #
edge $-1 $283 0 $283 6.2831853071796004 $109 $284 forward 7 unknown #
vertex $-1 $112 $285 #
ellipse-curve $-1 -38.191704616110414 21.240016723338705 5.6928624047992784 0 0.5877852598018023 0.80901698891910034 2 0 0 1 I I #
coedge $-1 $189 $189 $-1 $286 reversed $115 $-1 #
edge $-1 $287 0 $287 6.2831853071796004 $116 $288 forward 7 unknown #
vertex $-1 $119 $289 #
ellipse-curve $-1 -25.391356571587387 21.240016723338705 5.6928624047992784 0 0.5877852598018023 0.80901698891910034 2 0 0 1 I I #
face $-1 $-1 $135 $18 $-1 $290 reversed single #
loop $-1 $-1 $209 $120 #
plane-surface $-1 0 25.222852252072041 0 0 -1 0 0 0 -1 forward_v I I I I #
coedge $-1 $291 $207 $210 $292 forward $121 $-1 #
coedge $-1 $213 $123 $124 $201 reversed $75 $-1 #
coedge $-1 $207 $291 $123 $199 reversed $121 $-1 #
edge $-1 $214 -8.586561854958136 $293 8.586561854958136 $198 $294 forward 7 unknown #
coedge $-1 $125 $124 $291 $295 forward $49 $-1 #
edge $-1 $205 -60.269173253578295 $293 60.269173253578295 $197 $296 forward 7 unknown #
coedge $-1 $210 $209 $125 $203 reversed $194 $-1 #
edge $-1 $297 -60.269173253578295 $204 60.269173253578295 $202 $298 forward 7 unknown #
vertex $-1 $127 $299 #
vertex $-1 $216 $300 #
straight-curve $-1 60.269173253578295 0 -8.586561854958136 0 -1 0 I I #
coedge $-1 $196 $198 $128 $208 reversed $121 $-1 #
edge $-1 $211 -25.222852252072041 $214 25.222852252072041 $207 $301 forward 7 unknown #
coedge $-1 $202 $129 $134 $217 forward $194 $-1 #
coedge $-1 $129 $202 $196 $292 reversed $194 $-1 #
vertex $-1 $130 $302 #
straight-curve $-1 0 25.222852252072041 8.586561854958136 -1 0 0 I I #
coedge $-1 $131 $197 $133 $216 reversed $75 $-1 #
vertex $-1 $208 $303 #
straight-curve $-1 0 -25.222852252072041 8.586561854958136 1 0 0 I I #
edge $-1 $136 -8.586561854958136 $205 8.586561854958136 $133 $304 forward 7 unknown #
edge $-1 $137 -8.586561854958136 $204 8.586561854958136 $134 $305 forward 7 unknown #
point $-1 60.269173253578295 -25.222852252072041 8.586561854958136 #
point $-1 60.269173253578295 25.222852252072041 8.586561854958136 #
face $-1 $-1 $236 $19 $-1 $306 forward single #
plane-surface $-1 -63.384564578314105 -8.0497285421557692 0 0 -1 0 0 0 -1 forward_v I I I I #
coedge $-1 $307 $308 $239 $309 forward $140 $-1 #
coedge $-1 $232 $142 $143 $228 reversed $83 $-1 #
coedge $-1 $142 $232 $235 $310 reversed $83 $-1 #
coedge $-1 $308 $307 $142 $226 reversed $140 $-1 #
edge $-1 $311 -8.586561854958136 $312 8.586561854958136 $225 $313 forward 7 unknown #
coedge $-1 $144 $143 $307 $314 forward $53 $-1 #
edge $-1 $230 -3.1153913247358105 $312 3.1153913247358034 $223 $315 forward 7 unknown #
edge $-1 $316 -3.1153913247358034 $152 3.1153913247358105 $149 $317 forward 7 unknown #
vertex $-1 $228 $318 #
straight-curve $-1 -60.269173253578295 0 -8.586561854958136 0 -1 0 I I #
coedge $-1 $224 $223 $146 $233 reversed $83 $-1 #
edge $-1 $237 -8.586561854958136 $230 8.586561854958136 $232 $319 forward 7 unknown #
coedge $-1 $320 $147 $150 $240 forward $236 $-1 #
coedge $-1 $147 $320 $224 $310 forward $236 $-1 #
loop $-1 $-1 $147 $220 #
vertex $-1 $148 $321 #
straight-curve $-1 -60.269173253578295 0 8.586561854958136 0 1 0 I I #
coedge $-1 $150 $149 $222 $309 reversed $151 $-1 #
edge $-1 $153 -3.1153913247358105 $322 3.1153913247358034 $150 $323 forward 7 unknown #
point $-1 -60.269173253578295 -8.0497285421557692 -8.586561854958136 #
point $-1 -60.269173253578295 -8.0497285421557692 8.586561854958136 #
face $-1 $-1 $257 $20 $-1 $324 forward single #
loop $-1 $-1 $325 $155 #
plane-surface $-1 66.499955903049909 -10.220516827634686 0 -1 0 0 0 0 1 forward_v I I I I #
coedge $-1 $248 $326 $327 $328 forward $156 $-1 #
coedge $-1 $159 $158 $329 $330 forward $57 $-1 #
coedge $-1 $253 $246 $158 $249 reversed $156 $-1 #
edge $-1 $251 -3.1153913247358105 $331 3.1153913247358034 $248 $332 forward 7 unknown #
edge $-1 $333 -3.1153913247358034 $166 3.1153913247358105 $164 $334 forward 7 unknown #
vertex $-1 $249 $335 #
straight-curve $-1 60.269173253578295 0 -8.586561854958136 0 1 0 I I #
coedge $-1 $326 $248 $161 $254 reversed $156 $-1 #
edge $-1 $258 -8.586561854958136 $251 8.586561854958136 $253 $336 forward 7 unknown #
coedge $-1 $337 $162 $165 $261 forward $257 $-1 #
coedge $-1 $162 $337 $326 $338 forward $257 $-1 #
loop $-1 $-1 $162 $243 #
vertex $-1 $163 $339 #
straight-curve $-1 60.269173253578295 0 8.586561854958136 0 -1 0 I I #
coedge $-1 $165 $164 $325 $340 reversed $91 $-1 #
edge $-1 $167 -3.1153913247358105 $341 3.1153913247358034 $165 $342 forward 7 unknown #
point $-1 60.269173253578295 -12.391305113113603 -8.586561854958136 #
point $-1 60.269173253578295 -12.391305113113603 8.586561854958136 #
plane-surface $-1 0 0 8.586561854958136 0 0 1 1 0 0 forward_v I I I I #
coedge $-1 $275 $274 $267 $343 forward $170 $-1 #
coedge $-1 $267 $172 $174 $271 reversed $99 $-1 #
coedge $-1 $172 $266 $265 $343 reversed $99 $-1 #
coedge $-1 $180 $175 $172 $269 forward $181 $-1 #
edge $-1 $272 -10.373860609402342 $344 -2.40818955193566 $268 $345 forward 7 unknown #
coedge $-1 $174 $173 $275 $346 reversed $61 $-1 #
edge $-1 $347 -50.445704504144082 $272 -40.599593524312439 $266 $348 forward 7 unknown #
vertex $-1 $176 $349 #
straight-curve $-1 -15.89576529692445 17.257181194605351 8.5865618549581377 1 0 0 I I #
coedge $-1 $265 $177 $180 $279 reversed $170 $-1 #
coedge $-1 $177 $265 $270 $346 forward $170 $-1 #
vertex $-1 $178 $350 #
straight-curve $-1 -46.72526997912577 25.222852252072041 64.983987311500329 0 0 1 I I #
straight-curve $-1 -46.72526997912577 -15.588579709773299 32.450404482493695 0 0.80901698891910034 -0.5877852598018023 I I #
edge $-1 $344 16.857791208572031 $182 46.72526997912577 $274 $351 forward 7 unknown #
point $-1 -46.72526997912577 25.222852252072041 8.586561854958136 #
point $-1 -46.72526997912577 17.257181194605359 8.5865618549581342 #
edge $-1 $352 1 $352 0 $185 $-1 forward 7 unknown #
vertex $-1 $186 $353 #
ellipse-curve $-1 -38.191704616110414 19.011286848195567 2.6252789589157723 0 0.5877852598018023 0.80901698891910034 2 0 0 1 I I #
point $-1 -36.191704616110414 21.240016723338705 5.6928624047992757 #
edge $-1 $354 1 $354 0 $189 $-1 forward 7 unknown #
vertex $-1 $190 $355 #
ellipse-curve $-1 -25.391356571587387 19.011286848195567 2.6252789589157723 0 0.5877852598018023 0.80901698891910034 2 0 0 1 I I #
point $-1 -23.391356571587387 21.240016723338705 5.6928624047992757 #
plane-surface $-1 60.269173253578295 0 0 -1 0 0 0 0 1 forward_v I I I I #
coedge $-1 $198 $196 $200 $295 reversed $121 $-1 #
edge $-1 $211 -8.586561854958136 $297 8.586561854958136 $210 $356 forward 7 unknown #
vertex $-1 $295 $357 #
straight-curve $-1 -60.269173253578295 -25.222852252072041 0 0 0 -1 I I #
edge $-1 $293 -25.222852252072041 $297 25.222852252072041 $291 $358 forward 7 unknown #
straight-curve $-1 0 -25.222852252072041 -8.586561854958136 -1 0 0 I I #
vertex $-1 $203 $359 #
straight-curve $-1 0 25.222852252072041 -8.586561854958136 1 0 0 I I #
point $-1 60.269173253578295 25.222852252072041 -8.586561854958136 #
point $-1 60.269173253578295 -25.222852252072041 -8.586561854958136 #
straight-curve $-1 -60.269173253578295 0 8.586561854958136 0 -1 0 I I #
point $-1 -60.269173253578295 25.222852252072041 8.586561854958136 #
point $-1 -60.269173253578295 -25.222852252072041 8.586561854958136 #
straight-curve $-1 60.269173253578295 -25.222852252072041 0 0 0 -1 I I #
straight-curve $-1 60.269173253578295 25.222852252072041 0 0 0 -1 I I #
plane-surface $-1 0 0 8.586561854958136 0 0 1 1 0 0 forward_v I I I I #
coedge $-1 $225 $222 $227 $314 reversed $140 $-1 #
coedge $-1 $222 $225 $320 $360 reversed $140 $-1 #
edge $-1 $322 -8.586561854958136 $316 8.586561854958136 $239 $361 forward 7 unknown #
edge $-1 $311 -3.1153913247358034 $237 3.1153913247358105 $224 $362 forward 7 unknown #
vertex $-1 $360 $363 #
vertex $-1 $314 $364 #
straight-curve $-1 -66.499955903049909 -12.391305113113603 0 0 0 -1 I I #
edge $-1 $312 -2.1707882854789169 $316 2.1707882854789169 $307 $365 forward 7 unknown #
straight-curve $-1 -63.384564578314105 -12.391305113113603 -8.586561854958136 -1 0 0 I I #
vertex $-1 $229 $366 #
straight-curve $-1 -63.384564578314105 -8.0497285421557692 -8.586561854958136 1 0 0 I I #
point $-1 -60.269173253578295 -12.391305113113603 -8.586561854958136 #
straight-curve $-1 -60.269173253578295 -12.391305113113603 0 0 0 -1 I I #
coedge $-1 $235 $234 $308 $360 forward $236 $-1 #
point $-1 -60.269173253578295 -12.391305113113603 8.586561854958136 #
vertex $-1 $240 $367 #
straight-curve $-1 -63.384564578314105 -8.0497285421557692 8.586561854958136 -1 0 0 I I #
plane-surface $-1 0 0 8.586561854958136 0 0 1 1 0 0 forward_v I I I I #
coedge $-1 $329 $368 $260 $340 forward $244 $-1 #
coedge $-1 $246 $253 $256 $338 reversed $156 $-1 #
coedge $-1 $368 $329 $246 $328 reversed $244 $-1 #
edge $-1 $369 -8.586561854958136 $331 8.586561854958136 $327 $370 forward 7 unknown #
coedge $-1 $327 $325 $247 $330 reversed $244 $-1 #
edge $-1 $331 -2.1707882854789169 $333 2.1707882854789169 $329 $371 forward 7 unknown #
vertex $-1 $330 $372 #
straight-curve $-1 63.384564578314105 -8.0497285421557692 -8.586561854958136 1 0 0 I I #
vertex $-1 $340 $373 #
straight-curve $-1 63.384564578314105 -12.391305113113603 -8.586561854958136 -1 0 0 I I #
point $-1 60.269173253578295 -8.0497285421557692 -8.586561854958136 #
straight-curve $-1 60.269173253578295 -8.0497285421557692 0 0 0 -1 I I #
coedge $-1 $256 $255 $368 $374 forward $257 $-1 #
edge $-1 $369 -3.1153913247358034 $258 3.1153913247358105 $326 $375 forward 7 unknown #
point $-1 60.269173253578295 -8.0497285421557692 8.586561854958136 #
edge $-1 $341 -8.586561854958136 $333 8.586561854958136 $325 $376 forward 7 unknown #
vertex $-1 $374 $377 #
straight-curve $-1 63.384564578314105 -12.391305113113603 8.586561854958136 1 0 0 I I #
edge $-1 $344 56.397425456542194 $347 62.184824356859906 $265 $378 forward 7 unknown #
vertex $-1 $279 $379 #
straight-curve $-1 -16.857791208572031 27.631041804007701 8.5865618549581342 0 1 0 I I #
edge $-1 $347 0.96202591164758111 $276 30.829504682201318 $275 $380 forward 7 unknown #
vertex $-1 $346 $381 #
straight-curve $-1 -16.857791208572031 -15.588579709773299 32.450404482493695 0 -0.80901698891910034 0.5877852598018023 I I #
point $-1 -16.857791208572031 17.257181194605359 8.5865618549581342 #
point $-1 -46.72526997912577 25.222852252072045 2.7991629546404191 #
straight-curve $-1 0 25.222852252072041 8.586561854958136 -1 0 0 I I #
vertex $-1 $282 $382 #
point $-1 -36.191704616110414 19.011286848195567 2.6252789589157723 #
vertex $-1 $286 $383 #
point $-1 -23.391356571587387 19.011286848195567 2.6252789589157723 #
straight-curve $-1 -60.269173253578295 25.222852252072041 0 0 0 -1 I I #
point $-1 -60.269173253578295 -25.222852252072041 -8.586561854958136 #
straight-curve $-1 -60.269173253578295 0 -8.586561854958136 0 1 0 I I #
point $-1 -60.269173253578295 25.222852252072041 -8.586561854958136 #
edge $-1 $322 -2.1707882854789169 $311 2.1707882854789169 $308 $384 forward 7 unknown #
straight-curve $-1 -66.499955903049909 -8.0497285421557692 0 0 0 -1 I I #
straight-curve $-1 -63.384564578314105 -12.391305113113603 8.586561854958136 1 0 0 I I #
point $-1 -66.499955903049909 -12.391305113113603 8.586561854958136 #
point $-1 -66.499955903049909 -12.391305113113603 -8.586561854958136 #
straight-curve $-1 -66.499955903049909 -10.220516827634686 -8.586561854958136 0 1 0 I I #
point $-1 -66.499955903049909 -8.0497285421557692 -8.586561854958136 #
point $-1 -66.499955903049909 -8.0497285421557692 8.586561854958136 #
coedge $-1 $325 $327 $337 $374 reversed $244 $-1 #
vertex $-1 $374 $385 #
straight-curve $-1 66.499955903049909 -8.0497285421557692 0 0 0 -1 I I #
straight-curve $-1 66.499955903049909 -10.220516827634686 -8.586561854958136 0 -1 0 I I #
point $-1 66.499955903049909 -8.0497285421557692 -8.586561854958136 #
point $-1 66.499955903049909 -12.391305113113603 -8.586561854958136 #
edge $-1 $341 -2.1707882854789169 $369 2.1707882854789169 $368 $386 forward 7 unknown #
straight-curve $-1 63.384564578314105 -8.0497285421557692 8.586561854958136 -1 0 0 I I #
straight-curve $-1 66.499955903049909 -12.391305113113603 0 0 0 -1 I I #
point $-1 66.499955903049909 -12.391305113113603 8.586561854958136 #
straight-curve $-1 -16.857791208572031 25.222852252072041 64.983987311500329 0 0 -1 I I #
point $-1 -16.857791208572031 25.222852252072041 8.586561854958136 #
straight-curve $-1 -15.89576529692445 25.222852252072045 2.7991629546404173 -1 0 0 I I #
point $-1 -16.857791208572031 25.222852252072045 2.7991629546404191 #
point $-1 -38.191704616110414 17.835716328591964 1.0072449810775719 #
point $-1 -25.391356571587387 17.835716328591964 1.0072449810775719 #
straight-curve $-1 -66.499955903049909 -10.220516827634686 8.586561854958136 0 -1 0 I I #
point $-1 66.499955903049909 -8.0497285421557692 8.586561854958136 #
straight-curve $-1 66.499955903049909 -10.220516827634686 8.586561854958136 0 1 0 I I #
End-of-ACIS-data 