500 0 14 0           
7 Unknown 11 ACIS 5.0 NT 24 Thu Mar 25 17:29:23 1999 
-1 9.9999999999999995e-007 1e-010 
body $-1 $14 $-1 $15 #
body $-1 $16 $-1 $17 #
body $-1 $18 $-1 $19 #
body $-1 $20 $-1 $21 #
body $-1 $22 $-1 $23 #
body $-1 $24 $-1 $25 #
body $-1 $26 $-1 $27 #
body $-1 $28 $-1 $29 #
body $-1 $30 $-1 $31 #
body $-1 $32 $-1 $33 #
body $-1 $34 $-1 $35 #
body $-1 $36 $-1 $37 #
body $-1 $38 $-1 $39 #
body $-1 $40 $-1 $41 #
lump $-1 $-1 $42 $0 #
transform $-1 1 0 0 0 1 0 0 0 1 48.092287972655413 19.921159234988004 5.154623510661513 1 rotate no_reflect no_shear #
lump $-1 $-1 $43 $1 #
transform $-1 1 0 0 0 1 0 0 0 1 48.092287972655413 19.921159234988004 5.154623510661513 1 rotate no_reflect no_shear #
lump $-1 $-1 $44 $2 #
transform $-1 1 0 0 0 1 0 0 0 1 48.092287972655413 19.921159234988004 5.154623510661513 1 rotate no_reflect no_shear #
lump $-1 $-1 $45 $3 #
transform $-1 1 0 0 0 1 0 0 0 1 48.092287972655413 19.921159234988004 5.154623510661513 1 rotate no_reflect no_shear #
lump $-1 $-1 $46 $4 #
transform $-1 1 0 0 0 1 0 0 0 1 48.092287972655413 19.921159234988004 5.154623510661513 1 rotate no_reflect no_shear #
lump $-1 $-1 $47 $5 #
transform $-1 1 0 0 0 1 0 0 0 1 48.092287972655413 19.921159234988004 5.154623510661513 1 rotate no_reflect no_shear #
lump $-1 $-1 $48 $6 #
transform $-1 1 0 0 0 1 0 0 0 1 48.092287972655413 19.921159234988004 5.154623510661513 1 rotate no_reflect no_shear #
lump $-1 $-1 $49 $7 #
transform $-1 1 0 0 0 1 0 0 0 1 48.092287972655413 19.921159234988004 5.154623510661513 1 rotate no_reflect no_shear #
lump $-1 $-1 $50 $8 #
transform $-1 1 0 0 0 1 0 0 0 1 48.092287972655413 19.921159234988004 5.154623510661513 1 rotate no_reflect no_shear #
lump $-1 $-1 $51 $9 #
transform $-1 1 0 0 0 1 0 0 0 1 48.092287972655413 19.921159234988004 5.154623510661513 1 rotate no_reflect no_shear #
lump $-1 $-1 $52 $10 #
transform $-1 1 0 0 0 1 0 0 0 1 48.092287972655413 19.921159234988004 5.154623510661513 1 rotate no_reflect no_shear #
lump $-1 $-1 $53 $11 #
transform $-1 1 0 0 0 1 0 0 0 1 48.092287972655413 19.921159234988004 5.154623510661513 1 rotate no_reflect no_shear #
lump $-1 $-1 $54 $12 #
transform $-1 1 0 0 0 1 0 0 0 1 48.092287972655413 19.921159234988004 5.154623510661513 1 rotate no_reflect no_shear #
lump $-1 $-1 $55 $13 #
transform $-1 1 0 0 0 1 0 0 0 1 48.092287972655413 19.921159234988004 5.154623510661513 1 rotate no_reflect no_shear #
shell $-1 $-1 $-1 $56 $-1 $14 #
shell $-1 $-1 $-1 $57 $-1 $16 #
shell $-1 $-1 $-1 $58 $-1 $18 #
shell $-1 $-1 $-1 $59 $-1 $20 #
shell $-1 $-1 $-1 $60 $-1 $22 #
shell $-1 $-1 $-1 $61 $-1 $24 #
shell $-1 $-1 $-1 $62 $-1 $26 #
shell $-1 $-1 $-1 $63 $-1 $28 #
shell $-1 $-1 $-1 $64 $-1 $30 #
shell $-1 $-1 $-1 $65 $-1 $32 #
shell $-1 $-1 $-1 $66 $-1 $34 #
shell $-1 $-1 $-1 $67 $-1 $36 #
shell $-1 $-1 $-1 $68 $-1 $38 #
shell $-1 $-1 $-1 $69 $-1 $40 #
face $-1 $70 $71 $42 $-1 $72 forward single #
face $-1 $73 $74 $43 $-1 $75 reversed single #
face $-1 $76 $77 $44 $-1 $78 reversed single #
face $-1 $79 $80 $45 $-1 $81 forward single #
face $-1 $82 $83 $46 $-1 $84 forward single #
face $-1 $85 $86 $47 $-1 $87 forward single #
face $-1 $88 $89 $48 $-1 $90 reversed single #
face $-1 $91 $92 $49 $-1 $93 forward single #
face $-1 $94 $95 $50 $-1 $96 forward single #
face $-1 $97 $98 $51 $-1 $99 forward single #
face $-1 $100 $101 $52 $-1 $102 reversed single #
face $-1 $103 $104 $53 $-1 $105 forward single #
face $-1 $106 $107 $54 $-1 $108 forward single #
face $-1 $109 $110 $55 $-1 $111 forward single #
face $-1 $112 $113 $42 $-1 $114 reversed single #
loop $-1 $-1 $115 $56 #
plane-surface $-1 0 0 5.154623510661513 0 0 1 1 0 0 forward_v I I I I #
face $-1 $116 $117 $43 $-1 $118 reversed single #
loop $-1 $-1 $119 $57 #
plane-surface $-1 0 -18.152802612832563 2.154623510661513 0 0 1 1 0 0 forward_v I I I I #
face $-1 $120 $121 $44 $-1 $122 reversed single #
loop $-1 $-1 $123 $58 #
plane-surface $-1 80.999844481748653 -8.6386138335430918 133.24592676310684 0 -1 0 -0.85716730853699208 0 -0.51503806187062418 forward_v I I I I #
face $-1 $124 $125 $45 $-1 $126 forward single #
loop $-1 $127 $128 $59 #
cone-surface $-1 46.493922344501691 -14.835279559250315 2.9502602746814981 -0.85716730853699208 0 -0.51503806187062418 0.25751903093531209 0 -0.42858365426849604 1 I I 0 1 0.5 forward I I I I #
face $-1 $129 $130 $46 $-1 $131 forward single #
loop $-1 $132 $133 $60 #
cone-surface $-1 46.493922344501691 -12.511529912110106 2.9502602746814981 -0.85716730853699208 0 -0.51503806187062418 0.25751903093531209 0 -0.42858365426849604 1 I I 0 1 0.5 forward I I I I #
face $-1 $134 $135 $47 $-1 $136 forward single #
loop $-1 $137 $138 $61 #
cone-surface $-1 46.493922344501691 -10.187780264969897 2.9502602746814981 -0.85716730853699208 0 -0.51503806187062418 0.25751903093531209 0 -0.42858365426849604 1 I I 0 1 0.5 forward I I I I #
face $-1 $139 $140 $48 $-1 $141 reversed single #
loop $-1 $-1 $142 $62 #
plane-surface $-1 80.999844481748653 9.514188779289471 133.24592676310684 0 -1 0 -0.85716730853699208 0 -0.51503806187062418 forward_v I I I I #
face $-1 $143 $144 $49 $-1 $145 forward single #
loop $-1 $146 $147 $63 #
cone-surface $-1 46.493922344501691 3.3175230535822493 2.9502602746814981 -0.85716730853699208 0 -0.51503806187062418 0.25751903093531209 0 -0.42858365426849604 1 I I 0 1 0.5 forward I I I I #
face $-1 $148 $149 $50 $-1 $150 forward single #
loop $-1 $151 $152 $64 #
cone-surface $-1 46.493922344501691 5.6412727007224568 2.9502602746814981 -0.85716730853699208 0 -0.51503806187062418 0.25751903093531209 0 -0.42858365426849604 1 I I 0 1 0.5 forward I I I I #
face $-1 $153 $154 $51 $-1 $155 forward single #
loop $-1 $156 $157 $65 #
cone-surface $-1 46.493922344501691 7.9650223478626643 2.9502602746814981 -0.85716730853699208 0 -0.51503806187062418 0.25751903093531209 0 -0.42858365426849604 1 I I 0 1 0.5 forward I I I I #
face $-1 $158 $159 $52 $-1 $160 reversed single #
loop $-1 $-1 $161 $66 #
plane-surface $-1 -48.092287972655406 -12.786029731510165 0.67281434861564549 -0.55919291073839883 0 0.82903756765294845 0.82903756765294845 0 0.55919291073839883 forward_v I I I I #
face $-1 $162 $163 $53 $-1 $164 forward single #
loop $-1 $165 $166 $67 #
cone-surface $-1 -44.316923660802473 -14.945079487010339 2.2419902726848719 0.55919291073839883 0 -0.82903756765294845 0.41451878382647422 0 0.27959645536919941 1 I I 0 1 0.5 forward I I I I #
face $-1 $167 $168 $54 $-1 $169 forward single #
loop $-1 $170 $171 $68 #
cone-surface $-1 -44.316923660802473 -12.786029731510167 2.2419902726848719 0.55919291073839883 0 -0.82903756765294845 0.41451878382647422 0 0.27959645536919941 1 I I 0 1 0.5 forward I I I I #
face $-1 $172 $173 $55 $-1 $174 forward single #
loop $-1 $175 $176 $69 #
cone-surface $-1 -44.316923660802473 -10.626979976009995 2.2419902726848719 0.55919291073839883 0 -0.82903756765294845 0.41451878382647422 0 0.27959645536919941 1 I I 0 1 0.5 forward I I I I #
face $-1 $177 $178 $42 $-1 $179 reversed single #
loop $-1 $-1 $180 $70 #
plane-surface $-1 0 0 -5.154623510661513 0 0 1 1 0 0 forward_v I I I I #
coedge $-1 $181 $182 $183 $184 forward $71 $-1 #
face $-1 $185 $186 $43 $-1 $187 reversed single #
loop $-1 $-1 $188 $73 #
plane-surface $-1 0 -16.384445990677122 3.654623510661513 0 -1 0 0 0 -1 forward_v I I I I #
coedge $-1 $189 $190 $191 $192 reversed $74 $-1 #
face $-1 $193 $194 $44 $-1 $195 forward single #
loop $-1 $-1 $196 $76 #
plane-surface $-1 -1.4464296040653437 -12.511529912110106 83.707209186386081 0.85716730853699208 0 0.51503806187062418 0.51503806187062418 0 -0.85716730853699208 forward_v I I I I #
coedge $-1 $197 $198 $199 $200 reversed $77 $-1 #
face $-1 $-1 $201 $45 $-1 $202 forward single #
loop $-1 $203 $204 $79 #
cone-surface $-1 45.851046863098944 -14.835279559250315 2.56398172827853 -0.85716730853699208 0 -0.51503806187062418 0.12875951546765604 0 -0.21429182713424802 1 I I -0.70710678118654746 0.70710678118654746 0.25 forward I I I I #
loop $-1 $-1 $205 $59 #
coedge $-1 $128 $128 $206 $207 reversed $80 $-1 #
face $-1 $-1 $208 $46 $-1 $209 forward single #
loop $-1 $210 $211 $82 #
cone-surface $-1 45.851046863098944 -12.511529912110106 2.56398172827853 -0.85716730853699208 0 -0.51503806187062418 0.12875951546765604 0 -0.21429182713424802 1 I I -0.70710678118654746 0.70710678118654746 0.25 forward I I I I #
loop $-1 $-1 $212 $60 #
coedge $-1 $133 $133 $213 $214 reversed $83 $-1 #
face $-1 $-1 $215 $47 $-1 $216 forward single #
loop $-1 $217 $218 $85 #
cone-surface $-1 45.851046863098944 -10.187780264969897 2.56398172827853 -0.85716730853699208 0 -0.51503806187062418 0.12875951546765604 0 -0.21429182713424802 1 I I -0.70710678118654746 0.70710678118654746 0.25 forward I I I I #
loop $-1 $-1 $219 $61 #
coedge $-1 $138 $138 $220 $221 reversed $86 $-1 #
face $-1 $222 $223 $48 $-1 $224 reversed single #
loop $-1 $-1 $225 $88 #
plane-surface $-1 -1.4464296040653437 5.6412727007224568 83.707209186386081 0.85716730853699208 0 0.51503806187062418 0.51503806187062418 0 -0.85716730853699208 forward_v I I I I #
coedge $-1 $226 $227 $228 $229 reversed $89 $-1 #
face $-1 $-1 $230 $49 $-1 $231 forward single #
loop $-1 $232 $233 $91 #
cone-surface $-1 45.851046863098944 3.3175230535822493 2.56398172827853 -0.85716730853699208 0 -0.51503806187062418 0.12875951546765604 0 -0.21429182713424802 1 I I -0.70710678118654746 0.70710678118654746 0.25 forward I I I I #
loop $-1 $-1 $234 $63 #
coedge $-1 $147 $147 $235 $236 reversed $92 $-1 #
face $-1 $-1 $237 $50 $-1 $238 forward single #
loop $-1 $239 $240 $94 #
cone-surface $-1 45.851046863098944 5.6412727007224568 2.56398172827853 -0.85716730853699208 0 -0.51503806187062418 0.12875951546765604 0 -0.21429182713424802 1 I I -0.70710678118654746 0.70710678118654746 0.25 forward I I I I #
loop $-1 $-1 $241 $64 #
coedge $-1 $152 $152 $242 $243 reversed $95 $-1 #
face $-1 $-1 $244 $51 $-1 $245 forward single #
loop $-1 $246 $247 $97 #
cone-surface $-1 45.851046863098944 7.9650223478626643 2.56398172827853 -0.85716730853699208 0 -0.51503806187062418 0.12875951546765604 0 -0.21429182713424802 1 I I -0.70710678118654746 0.70710678118654746 0.25 forward I I I I #
loop $-1 $-1 $248 $65 #
coedge $-1 $157 $157 $249 $250 reversed $98 $-1 #
face $-1 $251 $252 $52 $-1 $253 forward single #
loop $-1 $-1 $254 $100 #
plane-surface $-1 -101.87802096365235 -9.1876134723432124 80.413441236046424 0 -1 0 0.55919291073839883 0 -0.82903756765294845 forward_v I I I I #
coedge $-1 $255 $256 $257 $258 reversed $101 $-1 #
face $-1 $-1 $259 $53 $-1 $260 forward single #
loop $-1 $261 $262 $103 #
cone-surface $-1 -43.724038724427757 -14.945079487010339 1.3630022238179329 0.55919291073839883 0 -0.82903756765294845 0.20725939191323711 0 0.13979822768459971 1 I I -0.70710678118654746 0.70710678118654746 0.25 forward I I I I #
loop $-1 $-1 $263 $67 #
coedge $-1 $166 $166 $264 $265 reversed $104 $-1 #
face $-1 $-1 $266 $54 $-1 $267 forward single #
loop $-1 $268 $269 $106 #
cone-surface $-1 -43.724038724427757 -12.786029731510167 1.3630022238179329 0.55919291073839883 0 -0.82903756765294845 0.20725939191323711 0 0.13979822768459971 1 I I -0.70710678118654746 0.70710678118654746 0.25 forward I I I I #
loop $-1 $-1 $270 $68 #
coedge $-1 $171 $171 $271 $272 reversed $107 $-1 #
face $-1 $-1 $273 $55 $-1 $274 forward single #
loop $-1 $275 $276 $109 #
cone-surface $-1 -43.724038724427757 -10.626979976009995 1.3630022238179329 0.55919291073839883 0 -0.82903756765294845 0.20725939191323711 0 0.13979822768459971 1 I I -0.70710678118654746 0.70710678118654746 0.25 forward I I I I #
loop $-1 $-1 $277 $69 #
coedge $-1 $176 $176 $278 $279 reversed $110 $-1 #
face $-1 $280 $281 $42 $-1 $282 reversed single #
loop $-1 $-1 $283 $112 #
plane-surface $-1 0 -19.921159234988004 0 0 1 0 0 0 1 forward_v I I I I #
coedge $-1 $284 $285 $286 $287 forward $113 $-1 #
coedge $-1 $288 $115 $289 $290 forward $71 $-1 #
coedge $-1 $115 $288 $291 $292 forward $71 $-1 #
coedge $-1 $293 $294 $115 $184 reversed $295 $-1 #
edge $-1 $296 -19.921159234988004 $297 19.921159234988004 $183 $298 forward 7 unknown #
face $-1 $299 $300 $43 $-1 $301 reversed single #
loop $-1 $-1 $302 $116 #
plane-surface $-1 -48.092287972655413 0 0 1 0 0 0 0 -1 forward_v I I I I #
coedge $-1 $303 $304 $305 $306 reversed $117 $-1 #
coedge $-1 $307 $119 $308 $309 reversed $74 $-1 #
coedge $-1 $119 $307 $310 $311 forward $74 $-1 #
coedge $-1 $312 $313 $119 $192 forward $314 $-1 #
edge $-1 $315 -10.844757928571722 $316 -7.3080446842608406 $191 $317 forward 7 unknown #
face $-1 $318 $319 $44 $-1 $320 forward single #
loop $-1 $-1 $321 $120 #
plane-surface $-1 0 -16.384445990677122 3.654623510661513 0 -1 0 0 0 -1 forward_v I I I I #
coedge $-1 $322 $323 $324 $325 reversed $121 $-1 #
coedge $-1 $198 $123 $326 $327 reversed $77 $-1 #
coedge $-1 $123 $197 $322 $328 reversed $77 $-1 #
coedge $-1 $324 $329 $123 $200 forward $319 $-1 #
edge $-1 $330 -7.5923657317810864 $331 -5.2528017840106429 $199 $332 forward 7 unknown #
loop $-1 $-1 $206 $124 #
plane-surface $-1 -1.4464296040653437 -12.511529912110106 83.707209186386081 0.85716730853699208 0 0.51503806187062418 0.51503806187062418 0 -0.85716730853699208 forward_v I I I I #
loop $-1 $-1 $333 $79 #
coedge $-1 $204 $204 $205 $334 reversed $125 $-1 #
coedge $-1 $205 $205 $204 $334 forward $127 $-1 #
coedge $-1 $206 $206 $128 $207 forward $201 $-1 #
edge $-1 $335 0 $335 6.2831853071796004 $206 $336 forward 7 unknown #
loop $-1 $-1 $213 $129 #
plane-surface $-1 -1.4464296040653437 -12.511529912110106 83.707209186386081 0.85716730853699208 0 0.51503806187062418 0.51503806187062418 0 -0.85716730853699208 forward_v I I I I #
loop $-1 $-1 $337 $82 #
coedge $-1 $211 $211 $212 $338 reversed $130 $-1 #
coedge $-1 $212 $212 $211 $338 forward $132 $-1 #
coedge $-1 $213 $213 $133 $214 forward $208 $-1 #
edge $-1 $339 0 $339 6.2831853071796004 $213 $340 forward 7 unknown #
loop $-1 $-1 $220 $134 #
plane-surface $-1 -1.4464296040653437 -12.511529912110106 83.707209186386081 0.85716730853699208 0 0.51503806187062418 0.51503806187062418 0 -0.85716730853699208 forward_v I I I I #
loop $-1 $-1 $341 $85 #
coedge $-1 $218 $218 $219 $342 reversed $135 $-1 #
coedge $-1 $219 $219 $218 $342 forward $137 $-1 #
coedge $-1 $220 $220 $138 $221 forward $215 $-1 #
edge $-1 $343 0 $343 6.2831853071796004 $220 $344 forward 7 unknown #
face $-1 $345 $346 $48 $-1 $347 reversed single #
loop $-1 $-1 $348 $139 #
plane-surface $-1 80.999844481748653 1.7683566221554425 133.24592676310684 0 1 0 0.85716730853699208 0 0.51503806187062418 forward_v I I I I #
coedge $-1 $349 $350 $351 $352 reversed $140 $-1 #
coedge $-1 $227 $142 $353 $354 reversed $89 $-1 #
coedge $-1 $142 $226 $349 $355 reversed $89 $-1 #
coedge $-1 $351 $356 $142 $229 forward $357 $-1 #
edge $-1 $358 -7.5923657317810864 $359 -5.2528017840106429 $228 $360 forward 7 unknown #
loop $-1 $-1 $235 $143 #
plane-surface $-1 -1.4464296040653437 5.6412727007224568 83.707209186386081 0.85716730853699208 0 0.51503806187062418 0.51503806187062418 0 -0.85716730853699208 forward_v I I I I #
loop $-1 $-1 $361 $91 #
coedge $-1 $233 $233 $234 $362 reversed $144 $-1 #
coedge $-1 $234 $234 $233 $362 forward $146 $-1 #
coedge $-1 $235 $235 $147 $236 forward $230 $-1 #
edge $-1 $363 0 $363 6.2831853071796004 $235 $364 forward 7 unknown #
loop $-1 $-1 $242 $148 #
plane-surface $-1 -1.4464296040653437 5.6412727007224568 83.707209186386081 0.85716730853699208 0 0.51503806187062418 0.51503806187062418 0 -0.85716730853699208 forward_v I I I I #
loop $-1 $-1 $365 $94 #
coedge $-1 $240 $240 $241 $366 reversed $149 $-1 #
coedge $-1 $241 $241 $240 $366 forward $151 $-1 #
coedge $-1 $242 $242 $152 $243 forward $237 $-1 #
edge $-1 $367 0 $367 6.2831853071796004 $242 $368 forward 7 unknown #
loop $-1 $-1 $249 $153 #
plane-surface $-1 -1.4464296040653437 5.6412727007224568 83.707209186386081 0.85716730853699208 0 0.51503806187062418 0.51503806187062418 0 -0.85716730853699208 forward_v I I I I #
loop $-1 $-1 $369 $97 #
coedge $-1 $247 $247 $248 $370 reversed $154 $-1 #
coedge $-1 $248 $248 $247 $370 forward $156 $-1 #
coedge $-1 $249 $249 $157 $250 forward $244 $-1 #
edge $-1 $371 0 $371 6.2831853071796004 $249 $372 forward 7 unknown #
face $-1 $373 $374 $52 $-1 $375 reversed single #
loop $-1 $-1 $257 $158 #
plane-surface $-1 0 0 5.154623510661513 0 0 1 1 0 0 forward_v I I I I #
coedge $-1 $376 $377 $378 $379 reversed $159 $-1 #
coedge $-1 $380 $161 $381 $382 reversed $101 $-1 #
coedge $-1 $161 $380 $376 $383 forward $101 $-1 #
coedge $-1 $378 $384 $161 $258 forward $252 $-1 #
edge $-1 $385 -9.9914311249220358 $386 -2.7945986065881296 $257 $387 forward 7 unknown #
loop $-1 $-1 $264 $162 #
plane-surface $-1 -48.092287972655406 -12.786029731510165 0.67281434861564549 -0.55919291073839883 0 0.82903756765294845 0.82903756765294845 0 0.55919291073839883 forward_v I I I I #
loop $-1 $-1 $388 $103 #
coedge $-1 $262 $262 $263 $389 reversed $163 $-1 #
coedge $-1 $263 $263 $262 $389 forward $165 $-1 #
coedge $-1 $264 $264 $166 $265 forward $259 $-1 #
edge $-1 $390 0 $390 6.2831853071796004 $264 $391 forward 7 unknown #
loop $-1 $-1 $271 $167 #
plane-surface $-1 -48.092287972655406 -12.786029731510165 0.67281434861564549 -0.55919291073839883 0 0.82903756765294845 0.82903756765294845 0 0.55919291073839883 forward_v I I I I #
loop $-1 $-1 $392 $106 #
coedge $-1 $269 $269 $270 $393 reversed $168 $-1 #
coedge $-1 $270 $270 $269 $393 forward $170 $-1 #
coedge $-1 $271 $271 $171 $272 forward $266 $-1 #
edge $-1 $394 0 $394 6.2831853071796004 $271 $395 forward 7 unknown #
loop $-1 $-1 $278 $172 #
plane-surface $-1 -48.092287972655406 -12.786029731510165 0.67281434861564549 -0.55919291073839883 0 0.82903756765294845 0.82903756765294845 0 0.55919291073839883 forward_v I I I I #
loop $-1 $-1 $396 $109 #
coedge $-1 $276 $276 $277 $397 reversed $173 $-1 #
coedge $-1 $277 $277 $276 $397 forward $175 $-1 #
coedge $-1 $278 $278 $176 $279 forward $273 $-1 #
edge $-1 $398 0 $398 6.2831853071796004 $278 $399 forward 7 unknown #
face $-1 $400 $401 $42 $-1 $402 reversed single #
loop $-1 $-1 $403 $177 #
plane-surface $-1 -48.092287972655413 0 0 1 0 0 0 0 -1 forward_v I I I I #
coedge $-1 $404 $291 $405 $406 forward $178 $-1 #
coedge $-1 $407 $180 $404 $408 forward $113 $-1 #
coedge $-1 $180 $407 $409 $410 forward $113 $-1 #
coedge $-1 $294 $293 $180 $287 reversed $295 $-1 #
edge $-1 $411 -19.921159234988004 $412 19.921159234988004 $286 $413 forward 7 unknown #
coedge $-1 $182 $181 $414 $415 forward $71 $-1 #
coedge $-1 $416 $417 $181 $290 reversed $401 $-1 #
edge $-1 $297 -48.092287972655413 $418 48.092287972655413 $289 $419 forward 7 unknown #
coedge $-1 $283 $420 $182 $292 reversed $178 $-1 #
edge $-1 $421 -48.092287972655413 $296 48.092287972655413 $291 $422 forward 7 unknown #
coedge $-1 $286 $183 $420 $423 forward $295 $-1 #
coedge $-1 $183 $286 $416 $424 reversed $295 $-1 #
loop $-1 $-1 $293 $400 #
vertex $-1 $184 $425 #
vertex $-1 $184 $426 #
straight-curve $-1 48.092287972655413 0 5.154623510661513 0 1 0 I I #
face $-1 $427 $428 $43 $-1 $429 forward single #
loop $-1 $-1 $308 $185 #
plane-surface $-1 0 -19.921159234988004 0 0 1 0 0 0 1 forward_v I I I I #
coedge $-1 $430 $431 $304 $432 forward $186 $-1 #
coedge $-1 $310 $188 $312 $433 reversed $117 $-1 #
coedge $-1 $188 $310 $302 $432 reversed $117 $-1 #
coedge $-1 $434 $435 $188 $306 forward $428 $-1 #
edge $-1 $436 -48.092287972655413 $437 48.092287972655413 $305 $438 forward 7 unknown #
coedge $-1 $190 $189 $430 $439 reversed $74 $-1 #
coedge $-1 $440 $441 $189 $309 forward $300 $-1 #
edge $-1 $442 -48.092287972655413 $315 48.092287972655413 $308 $443 forward 7 unknown #
coedge $-1 $304 $303 $190 $311 reversed $117 $-1 #
edge $-1 $444 -48.092287972655413 $316 48.092287972655413 $310 $445 forward 7 unknown #
coedge $-1 $446 $191 $303 $433 forward $314 $-1 #
coedge $-1 $191 $446 $440 $447 forward $314 $-1 #
loop $-1 $-1 $312 $427 #
vertex $-1 $309 $448 #
vertex $-1 $192 $449 #
straight-curve $-1 48.092287972655413 -9.0764013064162814 2.154623510661513 0 1 0 I I #
face $-1 $-1 $450 $44 $-1 $451 reversed single #
loop $-1 $-1 $324 $193 #
plane-surface $-1 0 0 5.154623510661513 0 0 1 1 0 0 forward_v I I I I #
coedge $-1 $452 $453 $323 $454 reversed $194 $-1 #
coedge $-1 $455 $196 $198 $328 forward $121 $-1 #
coedge $-1 $196 $455 $321 $454 forward $121 $-1 #
coedge $-1 $456 $199 $196 $325 forward $319 $-1 #
edge $-1 $331 2.3828488774880388 $457 10.128681034622069 $324 $458 forward 7 unknown #
coedge $-1 $459 $460 $197 $327 forward $450 $-1 #
edge $-1 $461 -65.362028280981335 $330 -61.468339870891903 $326 $462 forward 7 unknown #
edge $-1 $331 91.642069049270745 $461 96.18457594531084 $198 $463 forward 7 unknown #
coedge $-1 $199 $456 $459 $464 forward $319 $-1 #
vertex $-1 $327 $465 #
vertex $-1 $200 $466 #
straight-curve $-1 40.499922240874326 -8.6386138335430918 5.1546235106615086 -1 0 0 I I #
coedge $-1 $333 $333 $-1 $467 reversed $203 $-1 #
edge $-1 $468 0 $468 6.2831853071796004 $204 $469 forward 7 unknown #
vertex $-1 $207 $470 #
ellipse-curve $-1 46.922505998770184 -14.835279559250315 3.2077793056168065 0.85716730853699208 0 0.51503806187062418 0.25751903093531209 0 -0.42858365426849604 1 I I #
coedge $-1 $337 $337 $-1 $471 reversed $210 $-1 #
edge $-1 $472 0 $472 6.2831853071796004 $211 $473 forward 7 unknown #
vertex $-1 $214 $474 #
ellipse-curve $-1 46.922505998770184 -12.511529912110106 3.2077793056168065 0.85716730853699208 0 0.51503806187062418 0.25751903093531209 0 -0.42858365426849604 1 I I #
coedge $-1 $341 $341 $-1 $475 reversed $217 $-1 #
edge $-1 $476 0 $476 6.2831853071796004 $218 $477 forward 7 unknown #
vertex $-1 $221 $478 #
ellipse-curve $-1 46.922505998770184 -10.187780264969897 3.2077793056168065 0.85716730853699208 0 0.51503806187062418 0.25751903093531209 0 -0.42858365426849604 1 I I #
face $-1 $-1 $357 $48 $-1 $479 forward single #
loop $-1 $-1 $480 $222 #
plane-surface $-1 48.092287972655413 0 0 -1 0 0 0 0 1 forward_v I I I I #
coedge $-1 $481 $482 $483 $484 reversed $223 $-1 #
coedge $-1 $485 $225 $227 $355 forward $140 $-1 #
coedge $-1 $225 $485 $481 $486 forward $140 $-1 #
coedge $-1 $483 $228 $225 $352 forward $357 $-1 #
edge $-1 $359 -6.6935524289282426 $487 1.0522797282057859 $351 $488 forward 7 unknown #
coedge $-1 $489 $490 $226 $354 forward $346 $-1 #
edge $-1 $491 -65.362028280981335 $358 -61.468339870891903 $353 $492 forward 7 unknown #
edge $-1 $359 91.642069049270745 $491 96.18457594531084 $227 $493 forward 7 unknown #
coedge $-1 $228 $483 $489 $494 forward $357 $-1 #
loop $-1 $-1 $483 $345 #
vertex $-1 $354 $495 #
vertex $-1 $229 $496 #
straight-curve $-1 40.499922240874326 9.514188779289471 5.1546235106615086 -1 0 0 I I #
coedge $-1 $361 $361 $-1 $497 reversed $232 $-1 #
edge $-1 $498 0 $498 6.2831853071796004 $233 $499 forward 7 unknown #
vertex $-1 $236 $500 #
ellipse-curve $-1 46.922505998770184 3.3175230535822493 3.2077793056168065 0.85716730853699208 0 0.51503806187062418 0.25751903093531209 0 -0.42858365426849604 1 I I #
coedge $-1 $365 $365 $-1 $501 reversed $239 $-1 #
edge $-1 $502 0 $502 6.2831853071796004 $240 $503 forward 7 unknown #
vertex $-1 $243 $504 #
ellipse-curve $-1 46.922505998770184 5.6412727007224568 3.2077793056168065 0.85716730853699208 0 0.51503806187062418 0.25751903093531209 0 -0.42858365426849604 1 I I #
coedge $-1 $369 $369 $-1 $505 reversed $246 $-1 #
edge $-1 $506 0 $506 6.2831853071796004 $247 $507 forward 7 unknown #
vertex $-1 $250 $508 #
ellipse-curve $-1 46.922505998770184 7.9650223478626643 3.2077793056168065 0.85716730853699208 0 0.51503806187062418 0.25751903093531209 0 -0.42858365426849604 1 I I #
face $-1 $-1 $509 $52 $-1 $510 forward single #
loop $-1 $-1 $511 $251 #
plane-surface $-1 -48.092287972655413 0 0 1 0 0 0 0 -1 forward_v I I I I #
coedge $-1 $377 $254 $256 $383 reversed $159 $-1 #
coedge $-1 $254 $376 $511 $512 reversed $159 $-1 #
coedge $-1 $513 $257 $254 $379 forward $252 $-1 #
edge $-1 $386 -9.4912777154963877 $514 -2.8467225091707604 $378 $515 forward 7 unknown #
coedge $-1 $256 $255 $516 $517 reversed $101 $-1 #
coedge $-1 $518 $519 $255 $382 forward $509 $-1 #
edge $-1 $520 -20.768859994153129 $385 -12.754078197066741 $381 $521 forward 7 unknown #
edge $-1 $522 -8.5602302459286524e-015 $386 8.0147817970863802 $376 $523 forward 7 unknown #
coedge $-1 $257 $513 $518 $524 forward $252 $-1 #
vertex $-1 $382 $525 #
vertex $-1 $258 $526 #
straight-curve $-1 -41.447732766329786 -6.3930148657550827 5.1546235106615139 0 1 0 I I #
coedge $-1 $388 $388 $-1 $527 reversed $261 $-1 #
edge $-1 $528 0 $528 6.2831853071796004 $262 $529 forward 7 unknown #
vertex $-1 $265 $530 #
ellipse-curve $-1 -44.770010369492596 -14.945079487010339 2.9137189296385797 -0.55919291073839883 0 0.82903756765294845 0.41451878382647422 0 0.27959645536919941 1 I I #
coedge $-1 $392 $392 $-1 $531 reversed $268 $-1 #
edge $-1 $532 0 $532 6.2831853071796004 $269 $533 forward 7 unknown #
vertex $-1 $272 $534 #
ellipse-curve $-1 -44.770010369492596 -12.786029731510167 2.9137189296385797 -0.55919291073839883 0 0.82903756765294845 0.41451878382647422 0 0.27959645536919941 1 I I #
coedge $-1 $396 $396 $-1 $535 reversed $275 $-1 #
edge $-1 $536 0 $536 6.2831853071796004 $276 $537 forward 7 unknown #
vertex $-1 $279 $538 #
ellipse-curve $-1 -44.770010369492596 -10.626979976009995 2.9137189296385797 -0.55919291073839883 0 0.82903756765294845 0.41451878382647422 0 0.27959645536919941 1 I I #
face $-1 $-1 $295 $42 $-1 $539 reversed single #
loop $-1 $-1 $416 $280 #
plane-surface $-1 0 19.921159234988004 0 0 -1 0 0 0 -1 forward_v I I I I #
coedge $-1 $540 $414 $417 $541 forward $281 $-1 #
coedge $-1 $420 $283 $284 $408 reversed $178 $-1 #
coedge $-1 $414 $540 $283 $406 reversed $281 $-1 #
edge $-1 $421 -5.154623510661513 $542 5.154623510661513 $405 $543 forward 7 unknown #
coedge $-1 $285 $284 $540 $544 forward $113 $-1 #
edge $-1 $412 -48.092287972655413 $542 48.092287972655413 $404 $545 forward 7 unknown #
coedge $-1 $417 $416 $285 $410 reversed $401 $-1 #
edge $-1 $546 -48.092287972655413 $411 48.092287972655413 $409 $547 forward 7 unknown #
vertex $-1 $287 $548 #
vertex $-1 $423 $549 #
straight-curve $-1 48.092287972655413 0 -5.154623510661513 0 -1 0 I I #
coedge $-1 $403 $405 $288 $415 reversed $281 $-1 #
edge $-1 $418 -19.921159234988004 $421 19.921159234988004 $414 $550 forward 7 unknown #
coedge $-1 $409 $289 $294 $424 forward $401 $-1 #
coedge $-1 $289 $409 $403 $541 reversed $401 $-1 #
vertex $-1 $290 $551 #
straight-curve $-1 0 19.921159234988004 5.154623510661513 -1 0 0 I I #
coedge $-1 $291 $404 $293 $423 reversed $178 $-1 #
vertex $-1 $415 $552 #
straight-curve $-1 0 -19.921159234988004 5.154623510661513 1 0 0 I I #
edge $-1 $296 -5.154623510661513 $412 5.154623510661513 $293 $553 forward 7 unknown #
edge $-1 $297 -5.154623510661513 $411 5.154623510661513 $294 $554 forward 7 unknown #
point $-1 48.092287972655413 -19.921159234988004 5.154623510661513 #
point $-1 48.092287972655413 19.921159234988004 5.154623510661513 #
face $-1 $-1 $314 $43 $-1 $555 reversed single #
loop $-1 $-1 $305 $299 #
plane-surface $-1 0 0 5.154623510661513 0 0 1 1 0 0 forward_v I I I I #
coedge $-1 $556 $302 $307 $439 forward $186 $-1 #
coedge $-1 $302 $556 $434 $557 reversed $186 $-1 #
edge $-1 $437 -3.3273117553307565 $444 -0.32731175533075652 $302 $558 forward 7 unknown #
edge $-1 $316 0.32731175533075652 $436 3.3273117553307565 $312 $559 forward 7 unknown #
coedge $-1 $560 $305 $431 $557 forward $428 $-1 #
coedge $-1 $305 $560 $446 $561 forward $428 $-1 #
vertex $-1 $433 $562 #
vertex $-1 $557 $563 #
straight-curve $-1 0 -16.384445990677122 5.154623510661513 -1 0 0 I I #
edge $-1 $444 7.3080446842608406 $442 10.844757928571722 $430 $564 forward 7 unknown #
coedge $-1 $565 $308 $313 $447 reversed $300 $-1 #
coedge $-1 $308 $565 $556 $566 forward $300 $-1 #
vertex $-1 $309 $567 #
straight-curve $-1 0 -19.921159234988004 2.154623510661513 1 0 0 I I #
vertex $-1 $439 $568 #
straight-curve $-1 0 -16.384445990677122 2.154623510661513 1 0 0 I I #
coedge $-1 $313 $312 $435 $561 reversed $314 $-1 #
edge $-1 $569 -5.154623510661513 $315 -2.154623510661513 $313 $570 forward 7 unknown #
point $-1 48.092287972655413 -19.921159234988004 2.154623510661513 #
point $-1 48.092287972655413 -16.384445990677122 2.154623510661513 #
loop $-1 $-1 $326 $318 #
plane-surface $-1 48.092287972655413 0 0 -1 0 0 0 0 1 forward_v I I I I #
coedge $-1 $453 $321 $571 $572 reversed $194 $-1 #
coedge $-1 $321 $452 $456 $573 reversed $194 $-1 #
edge $-1 $574 -96.18457594531084 $457 -91.642069049270745 $321 $575 forward 7 unknown #
coedge $-1 $323 $322 $460 $576 reversed $121 $-1 #
coedge $-1 $329 $324 $453 $573 forward $319 $-1 #
vertex $-1 $573 $577 #
straight-curve $-1 45.752724024884955 -6.255764956055053 5.1546235106615086 0 -1 0 I I #
coedge $-1 $571 $326 $329 $464 reversed $450 $-1 #
coedge $-1 $326 $571 $455 $576 forward $450 $-1 #
vertex $-1 $327 $578 #
straight-curve $-1 48.092287972655413 -8.6386138335430918 66.622963381553419 0 0 1 I I #
straight-curve $-1 -1.4464296040653437 -8.6386138335430918 83.707209186386081 0.51503806187062418 0 -0.85716730853699208 I I #
edge $-1 $579 -16.384445990677122 $330 -8.6386138335430918 $459 $580 forward 7 unknown #
point $-1 48.092287972655413 -8.6386138335430918 5.154623510661513 #
point $-1 45.752724024884969 -8.6386138335430918 5.1546235106615086 #
edge $-1 $581 1 $581 0 $333 $-1 forward 7 unknown #
vertex $-1 $334 $582 #
ellipse-curve $-1 46.06533869023319 -14.835279559250315 2.6927412437461862 0.85716730853699208 0 0.51503806187062418 0.25751903093531209 0 -0.42858365426849604 1 I I #
point $-1 47.180025029705497 -14.835279559250315 2.779195651348314 #
edge $-1 $583 1 $583 0 $337 $-1 forward 7 unknown #
vertex $-1 $338 $584 #
ellipse-curve $-1 46.06533869023319 -12.511529912110106 2.6927412437461862 0.85716730853699208 0 0.51503806187062418 0.25751903093531209 0 -0.42858365426849604 1 I I #
point $-1 47.180025029705497 -12.511529912110106 2.779195651348314 #
edge $-1 $585 1 $585 0 $341 $-1 forward 7 unknown #
vertex $-1 $342 $586 #
ellipse-curve $-1 46.06533869023319 -10.187780264969897 2.6927412437461862 0.85716730853699208 0 0.51503806187062418 0.25751903093531209 0 -0.42858365426849604 1 I I #
point $-1 47.180025029705497 -10.187780264969897 2.779195651348314 #
plane-surface $-1 0 0 5.154623510661513 0 0 1 1 0 0 forward_v I I I I #
coedge $-1 $490 $489 $482 $587 forward $346 $-1 #
coedge $-1 $482 $348 $350 $486 reversed $223 $-1 #
coedge $-1 $348 $481 $480 $587 reversed $223 $-1 #
coedge $-1 $356 $351 $348 $484 forward $357 $-1 #
edge $-1 $487 5.2528017840106429 $588 7.5923657317810864 $483 $589 forward 7 unknown #
coedge $-1 $350 $349 $490 $590 reversed $140 $-1 #
edge $-1 $591 -96.18457594531084 $487 -91.642069049270745 $481 $592 forward 7 unknown #
vertex $-1 $352 $593 #
straight-curve $-1 45.752724024884955 2.8206363503612284 5.1546235106615086 0 -1 0 I I #
coedge $-1 $480 $353 $356 $494 reversed $346 $-1 #
coedge $-1 $353 $480 $485 $590 forward $346 $-1 #
vertex $-1 $354 $594 #
straight-curve $-1 48.092287972655413 9.514188779289471 66.622963381553419 0 0 1 I I #
straight-curve $-1 -1.4464296040653437 9.514188779289471 83.707209186386081 0.51503806187062418 0 -0.85716730853699208 I I #
edge $-1 $588 1.7683566221554425 $358 9.514188779289471 $489 $595 forward 7 unknown #
point $-1 48.092287972655413 9.514188779289471 5.154623510661513 #
point $-1 45.752724024884969 9.514188779289471 5.1546235106615086 #
edge $-1 $596 1 $596 0 $361 $-1 forward 7 unknown #
vertex $-1 $362 $597 #
ellipse-curve $-1 46.06533869023319 3.3175230535822493 2.6927412437461862 0.85716730853699208 0 0.51503806187062418 0.25751903093531209 0 -0.42858365426849604 1 I I #
point $-1 47.180025029705497 3.3175230535822493 2.779195651348314 #
edge $-1 $598 1 $598 0 $365 $-1 forward 7 unknown #
vertex $-1 $366 $599 #
ellipse-curve $-1 46.06533869023319 5.6412727007224568 2.6927412437461862 0.85716730853699208 0 0.51503806187062418 0.25751903093531209 0 -0.42858365426849604 1 I I #
point $-1 47.180025029705497 5.6412727007224568 2.779195651348314 #
edge $-1 $600 1 $600 0 $369 $-1 forward 7 unknown #
vertex $-1 $370 $601 #
ellipse-curve $-1 46.06533869023319 7.9650223478626643 2.6927412437461862 0.85716730853699208 0 0.51503806187062418 0.25751903093531209 0 -0.42858365426849604 1 I I #
point $-1 47.180025029705497 7.9650223478626643 2.779195651348314 #
loop $-1 $-1 $381 $373 #
plane-surface $-1 0 -16.384445990677122 3.654623510661513 0 -1 0 0 0 -1 forward_v I I I I #
coedge $-1 $516 $602 $377 $512 forward $374 $-1 #
edge $-1 $514 35.052097107361696 $522 39.533906269407574 $511 $603 forward 7 unknown #
coedge $-1 $384 $378 $602 $604 forward $252 $-1 #
vertex $-1 $604 $605 #
straight-curve $-1 -50.939010481826173 -9.1876134723432124 5.1546235106615157 -1 0 0 I I #
coedge $-1 $606 $511 $380 $517 forward $374 $-1 #
edge $-1 $522 2.7945986065881296 $520 9.9914311249220358 $516 $607 forward 7 unknown #
coedge $-1 $519 $381 $384 $524 reversed $509 $-1 #
coedge $-1 $381 $518 $606 $608 reversed $509 $-1 #
vertex $-1 $608 $609 #
straight-curve $-1 -30.874122800178071 -16.384445990677122 12.286613621464413 0.82903756765294845 0 0.55919291073839883 I I #
vertex $-1 $517 $610 #
straight-curve $-1 -48.092287972655406 -9.1876134723432124 0.67281434861564549 0.82903756765294845 0 0.55919291073839883 I I #
edge $-1 $611 -48.092287972655413 $385 -41.447732766329786 $384 $612 forward 7 unknown #
point $-1 -41.447732766329786 -16.384445990677118 5.154623510661513 #
point $-1 -41.447732766329786 -9.1876134723432124 5.154623510661513 #
edge $-1 $613 1 $613 0 $388 $-1 forward 7 unknown #
vertex $-1 $389 $614 #
ellipse-curve $-1 -43.863836952112358 -14.945079487010339 1.57026161573117 -0.55919291073839883 0 0.82903756765294845 0.41451878382647422 0 0.27959645536919941 1 I I #
point $-1 -44.355491585666122 -14.945079487010339 3.1933153850077733 #
edge $-1 $615 1 $615 0 $392 $-1 forward 7 unknown #
vertex $-1 $393 $616 #
ellipse-curve $-1 -43.863836952112358 -12.786029731510167 1.57026161573117 -0.55919291073839883 0 0.82903756765294845 0.41451878382647422 0 0.27959645536919941 1 I I #
point $-1 -44.355491585666122 -12.786029731510167 3.1933153850077733 #
edge $-1 $617 1 $617 0 $396 $-1 forward 7 unknown #
vertex $-1 $397 $618 #
ellipse-curve $-1 -43.863836952112358 -10.626979976009995 1.57026161573117 -0.55919291073839883 0 0.82903756765294845 0.41451878382647422 0 0.27959645536919941 1 I I #
point $-1 -44.355491585666122 -10.626979976009995 3.1933153850077733 #
plane-surface $-1 48.092287972655413 0 0 -1 0 0 0 0 1 forward_v I I I I #
coedge $-1 $405 $403 $407 $544 reversed $281 $-1 #
edge $-1 $418 -5.154623510661513 $546 5.154623510661513 $417 $619 forward 7 unknown #
vertex $-1 $544 $620 #
straight-curve $-1 -48.092287972655413 -19.921159234988004 0 0 0 -1 I I #
edge $-1 $542 -19.921159234988004 $546 19.921159234988004 $540 $621 forward 7 unknown #
straight-curve $-1 0 -19.921159234988004 -5.154623510661513 -1 0 0 I I #
vertex $-1 $410 $622 #
straight-curve $-1 0 19.921159234988004 -5.154623510661513 1 0 0 I I #
point $-1 48.092287972655413 19.921159234988004 -5.154623510661513 #
point $-1 48.092287972655413 -19.921159234988004 -5.154623510661513 #
straight-curve $-1 -48.092287972655413 0 5.154623510661513 0 -1 0 I I #
point $-1 -48.092287972655413 19.921159234988004 5.154623510661513 #
point $-1 -48.092287972655413 -19.921159234988004 5.154623510661513 #
straight-curve $-1 48.092287972655413 -19.921159234988004 0 0 0 -1 I I #
straight-curve $-1 48.092287972655413 19.921159234988004 0 0 0 -1 I I #
plane-surface $-1 48.092287972655413 0 0 -1 0 0 0 0 1 forward_v I I I I #
coedge $-1 $431 $430 $441 $566 reversed $186 $-1 #
edge $-1 $437 16.384445990677122 $623 19.921159234988004 $431 $624 forward 7 unknown #
straight-curve $-1 -48.092287972655413 -16.384445990677122 1.8273117553307565 0 0 -1 I I #
straight-curve $-1 48.092287972655413 -16.384445990677122 1.8273117553307565 0 0 1 I I #
coedge $-1 $435 $434 $565 $625 forward $428 $-1 #
edge $-1 $569 -19.921159234988004 $436 -16.384445990677122 $446 $626 forward 7 unknown #
point $-1 48.092287972655413 -16.384445990677122 5.154623510661513 #
point $-1 -48.092287972655413 -16.384445990677122 5.154623510661513 #
straight-curve $-1 -48.092287972655413 -9.0764013064162814 2.154623510661513 0 -1 0 I I #
coedge $-1 $441 $440 $560 $625 reversed $300 $-1 #
edge $-1 $623 -5.154623510661513 $442 -2.154623510661513 $556 $627 forward 7 unknown #
point $-1 -48.092287972655413 -19.921159234988004 2.154623510661513 #
point $-1 -48.092287972655413 -16.384445990677122 2.154623510661513 #
vertex $-1 $561 $628 #
straight-curve $-1 48.092287972655413 -19.921159234988004 0 0 0 -1 I I #
coedge $-1 $460 $459 $452 $572 forward $450 $-1 #
edge $-1 $579 61.468339870891903 $574 65.362028280981335 $571 $629 forward 7 unknown #
edge $-1 $457 45.752724024884969 $579 48.092287972655413 $456 $630 forward 7 unknown #
vertex $-1 $572 $631 #
straight-curve $-1 -1.4464296040653437 -16.384445990677122 83.707209186386081 -0.51503806187062418 0 0.85716730853699208 I I #
edge $-1 $574 -10.128681034622069 $461 -2.3828488774880388 $460 $632 forward 7 unknown #
point $-1 45.752724024884969 -16.384445990677122 5.154623510661513 #
point $-1 48.092287972655413 -8.6386138335430918 1.2609351005720839 #
vertex $-1 $464 $633 #
straight-curve $-1 48.092287972655413 0 5.154623510661513 0 1 0 I I #
vertex $-1 $467 $634 #
point $-1 46.322857721168504 -14.835279559250315 2.2641575894776897 #
vertex $-1 $471 $635 #
point $-1 46.322857721168504 -12.511529912110106 2.2641575894776897 #
vertex $-1 $475 $636 #
point $-1 46.322857721168504 -10.187780264969897 2.2641575894776897 #
edge $-1 $588 61.468339870891903 $591 65.362028280981335 $480 $637 forward 7 unknown #
vertex $-1 $494 $638 #
straight-curve $-1 40.499922240874326 1.7683566221554425 5.1546235106615086 1 0 0 I I #
edge $-1 $591 -1.0522797282057859 $491 6.6935524289282426 $490 $639 forward 7 unknown #
vertex $-1 $590 $640 #
straight-curve $-1 -1.4464296040653437 1.7683566221554425 83.707209186386081 -0.51503806187062418 0 0.85716730853699208 I I #
point $-1 45.752724024884969 1.7683566221554425 5.1546235106615086 #
point $-1 48.092287972655413 9.514188779289471 1.2609351005720839 #
straight-curve $-1 48.092287972655413 0 5.154623510661513 0 1 0 I I #
vertex $-1 $497 $641 #
point $-1 46.322857721168504 3.3175230535822493 2.2641575894776897 #
vertex $-1 $501 $642 #
point $-1 46.322857721168504 5.6412727007224568 2.2641575894776897 #
vertex $-1 $505 $643 #
point $-1 46.322857721168504 7.9650223478626643 2.2641575894776897 #
coedge $-1 $511 $606 $513 $604 reversed $374 $-1 #
straight-curve $-1 -48.092287972655413 -9.1876134723432124 40.206720618023212 0 0 -1 I I #
edge $-1 $514 9.1876134723432124 $611 16.384445990677122 $602 $644 forward 7 unknown #
point $-1 -48.092287972655413 -9.1876134723432124 5.154623510661513 #
coedge $-1 $602 $516 $519 $608 forward $374 $-1 #
straight-curve $-1 -48.092287972655413 -6.3930148657550827 0.67281434861564449 0 -1 0 I I #
edge $-1 $520 -39.533906269407574 $611 -35.052097107361696 $606 $645 forward 7 unknown #
point $-1 -48.092287972655413 -16.384445990677118 0.67281434861564071 #
point $-1 -48.092287972655413 -9.1876134723432124 0.67281434861564071 #
vertex $-1 $608 $646 #
straight-curve $-1 0 -16.384445990677122 5.154623510661513 1 0 0 I I #
vertex $-1 $527 $647 #
point $-1 -43.449318168285885 -14.945079487010339 1.8498580711003694 #
vertex $-1 $531 $648 #
point $-1 -43.449318168285885 -12.786029731510167 1.8498580711003694 #
vertex $-1 $535 $649 #
point $-1 -43.449318168285885 -10.626979976009995 1.8498580711003694 #
straight-curve $-1 -48.092287972655413 19.921159234988004 0 0 0 -1 I I #
point $-1 -48.092287972655413 -19.921159234988004 -5.154623510661513 #
straight-curve $-1 -48.092287972655413 0 -5.154623510661513 0 1 0 I I #
point $-1 -48.092287972655413 19.921159234988004 -5.154623510661513 #
vertex $-1 $557 $650 #
straight-curve $-1 -48.092287972655413 0 5.154623510661513 0 -1 0 I I #
edge $-1 $623 -48.092287972655413 $569 48.092287972655413 $565 $651 forward 7 unknown #
straight-curve $-1 48.092287972655413 0 5.154623510661513 0 1 0 I I #
straight-curve $-1 -48.092287972655413 -19.921159234988004 0 0 0 -1 I I #
point $-1 48.092287972655413 -19.921159234988004 5.154623510661513 #
straight-curve $-1 48.092287972655413 -16.384445990677122 66.622963381553419 0 0 -1 I I #
straight-curve $-1 0 -16.384445990677122 5.154623510661513 1 0 0 I I #
point $-1 48.092287972655413 -16.384445990677122 1.2609351005720839 #
straight-curve $-1 48.092287972655413 -6.255764956055053 1.2609351005720697 0 1 0 I I #
point $-1 48.092287972655413 -16.384445990677122 5.154623510661513 #
point $-1 45.636755035964697 -14.835279559250315 2.4352222128108738 #
point $-1 45.636755035964697 -12.511529912110106 2.4352222128108738 #
point $-1 45.636755035964697 -10.187780264969897 2.4352222128108738 #
straight-curve $-1 48.092287972655413 1.7683566221554425 66.622963381553419 0 0 -1 I I #
point $-1 48.092287972655413 1.7683566221554425 5.154623510661513 #
straight-curve $-1 48.092287972655413 2.8206363503612284 1.2609351005720697 0 1 0 I I #
point $-1 48.092287972655413 1.7683566221554425 1.2609351005720839 #
point $-1 45.636755035964697 3.3175230535822493 2.4352222128108738 #
point $-1 45.636755035964697 5.6412727007224568 2.4352222128108738 #
point $-1 45.636755035964697 7.9650223478626643 2.4352222128108738 #
straight-curve $-1 -48.092287972655413 0 5.154623510661513 0 -1 0 I I #
straight-curve $-1 -48.092287972655413 -16.384445990677118 40.206720618023212 0 0 1 I I #
point $-1 -48.092287972655413 -16.384445990677122 5.154623510661513 #
point $-1 -43.584240496743156 -14.945079487010339 1.1557428319046958 #
point $-1 -43.584240496743156 -12.786029731510167 1.1557428319046958 #
point $-1 -43.584240496743156 -10.626979976009995 1.1557428319046958 #
point $-1 -48.092287972655413 -19.921159234988004 5.154623510661513 #
straight-curve $-1 0 -19.921159234988004 5.154623510661513 1 0 0 I I #
End-of-ACIS-data 