500 0 8 0           
7 Unknown 11 ACIS 5.0 NT 24 Thu Mar 25 21:07:07 1999 
-1 9.9999999999999995e-007 1e-010 
body $-1 $8 $-1 $9 #
body $-1 $10 $-1 $11 #
body $-1 $12 $-1 $13 #
body $-1 $14 $-1 $15 #
body $-1 $16 $-1 $17 #
body $-1 $18 $-1 $19 #
body $-1 $20 $-1 $21 #
body $-1 $22 $-1 $23 #
lump $-1 $-1 $24 $0 #
transform $-1 1 0 0 0 1 0 0 0 1 59.435407574694054 24.07182074596415 10.887012992550137 1 rotate no_reflect no_shear #
lump $-1 $-1 $25 $1 #
transform $-1 1 0 0 0 1 0 0 0 1 59.435407574694054 24.07182074596415 10.887012992550137 1 rotate no_reflect no_shear #
lump $-1 $-1 $26 $2 #
transform $-1 1 0 0 0 1 0 0 0 1 59.435407574694054 24.07182074596415 10.887012992550137 1 rotate no_reflect no_shear #
lump $-1 $-1 $27 $3 #
transform $-1 1 0 0 0 1 0 0 0 1 59.435407574694054 24.07182074596415 10.887012992550137 1 rotate no_reflect no_shear #
lump $-1 $-1 $28 $4 #
transform $-1 1 0 0 0 1 0 0 0 1 59.435407574694054 24.07182074596415 10.887012992550137 1 rotate no_reflect no_shear #
lump $-1 $-1 $29 $5 #
transform $-1 1 0 0 0 1 0 0 0 1 59.435407574694054 24.07182074596415 10.887012992550137 1 rotate no_reflect no_shear #
lump $-1 $-1 $30 $6 #
transform $-1 1 0 0 0 1 0 0 0 1 59.435407574694054 24.07182074596415 10.887012992550137 1 rotate no_reflect no_shear #
lump $-1 $-1 $31 $7 #
transform $-1 1 0 0 0 1 0 0 0 1 59.435407574694054 24.07182074596415 10.887012992550137 1 rotate no_reflect no_shear #
shell $-1 $-1 $-1 $32 $-1 $8 #
shell $-1 $-1 $-1 $33 $-1 $10 #
shell $-1 $-1 $-1 $34 $-1 $12 #
shell $-1 $-1 $-1 $35 $-1 $14 #
shell $-1 $-1 $-1 $36 $-1 $16 #
shell $-1 $-1 $-1 $37 $-1 $18 #
shell $-1 $-1 $-1 $38 $-1 $20 #
shell $-1 $-1 $-1 $39 $-1 $22 #
face $-1 $40 $41 $24 $-1 $42 forward single #
face $-1 $43 $44 $25 $-1 $45 reversed single #
face $-1 $46 $47 $26 $-1 $48 reversed single #
face $-1 $49 $50 $27 $-1 $51 reversed single #
face $-1 $52 $53 $28 $-1 $54 forward single #
face $-1 $55 $56 $29 $-1 $57 reversed single #
face $-1 $58 $59 $30 $-1 $60 forward single #
face $-1 $61 $62 $31 $-1 $63 forward single #
face $-1 $64 $65 $24 $-1 $66 reversed single #
loop $-1 $-1 $67 $32 #
plane-surface $-1 0 0 10.887012992550137 0 0 1 1 0 0 forward_v I I I I #
face $-1 $68 $69 $25 $-1 $70 reversed single #
loop $-1 $-1 $71 $33 #
plane-surface $-1 0 -19.449108044861237 4.6740361941587061 0 0 1 1 0 0 forward_v I I I I #
face $-1 $72 $73 $26 $-1 $74 reversed single #
loop $-1 $-1 $75 $34 #
plane-surface $-1 0 19.449108044861237 4.6740361941587061 0 0 1 1 0 0 forward_v I I I I #
face $-1 $76 $77 $27 $-1 $78 reversed single #
loop $-1 $-1 $79 $35 #
plane-surface $-1 65.302319293449685 -0.90679857231435435 170.78326611828973 0 -1 0 -0.73135370988377701 0 -0.68199835119979291 forward_v I I I I #
face $-1 $80 $81 $28 $-1 $82 forward single #
loop $-1 $83 $84 $36 #
cone-surface $-1 54.90252879896012 -3.9366256867011167 6.1311959540287759 -0.73135370988377701 0 -0.68199835119979291 1.0229975267996894 0 -1.0970305648256655 1 I I 0 1 1.5 forward I I I I #
face $-1 $85 $86 $29 $-1 $87 reversed single #
loop $-1 $-1 $88 $37 #
plane-surface $-1 -59.435407574694025 -10.920446456117713 5.0075203191324391 -0.82903758062907751 0 0.55919289150049634 0.55919289150049634 0 0.82903758062907751 forward_v I I I I #
face $-1 $89 $90 $30 $-1 $91 forward single #
loop $-1 $92 $93 $38 #
cone-surface $-1 -56.357838356617719 -12.594424550820833 7.2088920948468109 0.82903758062907751 0 -0.55919289150049634 0.55919289150049634 0 0.82903758062907751 1 I I 0 1 1 forward I I I I #
face $-1 $94 $95 $31 $-1 $96 forward single #
loop $-1 $97 $98 $39 #
cone-surface $-1 -56.357838356617719 -9.2464683614145926 7.2088920948468109 0.82903758062907751 0 -0.55919289150049634 0.55919289150049634 0 0.82903758062907751 1 I I 0 1 1 forward I I I I #
face $-1 $99 $100 $24 $-1 $101 reversed single #
loop $-1 $-1 $102 $40 #
plane-surface $-1 0 0 -10.887012992550137 0 0 1 1 0 0 forward_v I I I I #
coedge $-1 $103 $104 $105 $106 forward $41 $-1 #
face $-1 $107 $108 $25 $-1 $109 reversed single #
loop $-1 $-1 $110 $43 #
plane-surface $-1 0 -14.826395343758325 7.7805245933544214 0 -1 0 0 0 -1 forward_v I I I I #
coedge $-1 $111 $112 $113 $114 reversed $44 $-1 #
face $-1 $115 $116 $26 $-1 $117 forward single #
loop $-1 $-1 $118 $46 #
plane-surface $-1 0 14.826395343758325 7.7805245933544214 0 1 0 0 0 1 forward_v I I I I #
coedge $-1 $119 $120 $121 $122 reversed $47 $-1 #
face $-1 $123 $124 $27 $-1 $125 reversed single #
loop $-1 $-1 $126 $49 #
plane-surface $-1 -21.63429236296399 -3.9366256867011167 89.713566180631673 0.73135370988377701 0 0.68199835119979291 0.68199835119979291 0 -0.73135370988377701 forward_v I I I I #
coedge $-1 $127 $128 $129 $130 reversed $50 $-1 #
face $-1 $-1 $131 $28 $-1 $132 forward single #
loop $-1 $133 $134 $52 #
cone-surface $-1 53.602510584531558 -3.9366256867011167 4.9189093862736577 -0.73135370988377701 0 -0.68199835119979291 0.51149876339984468 0 -0.54851528241283276 1 I I -0.70710678118654757 0.70710678118654757 0.75 forward I I I I #
loop $-1 $-1 $135 $36 #
coedge $-1 $84 $84 $136 $137 reversed $53 $-1 #
face $-1 $138 $139 $29 $-1 $140 reversed single #
loop $-1 $-1 $141 $55 #
plane-surface $-1 -157.98378057354904 -7.0144975684770996 71.479235157539776 0 -1 0 0.82903758062907751 0 -0.55919289150049634 forward_v I I I I #
coedge $-1 $142 $143 $144 $145 reversed $56 $-1 #
face $-1 $-1 $146 $30 $-1 $147 forward single #
loop $-1 $148 $149 $58 #
cone-surface $-1 -54.848634227935676 -12.594424550820833 6.1909210881020798 0.82903758062907751 0 -0.55919289150049634 0.27959644575024817 0 0.41451879031453875 1 I I -0.70710678118654746 0.70710678118654746 0.5 forward I I I I #
loop $-1 $-1 $150 $38 #
coedge $-1 $93 $93 $151 $152 reversed $59 $-1 #
face $-1 $-1 $153 $31 $-1 $154 forward single #
loop $-1 $155 $156 $61 #
cone-surface $-1 -54.848634227935676 -9.2464683614145926 6.1909210881020798 0.82903758062907751 0 -0.55919289150049634 0.27959644575024817 0 0.41451879031453875 1 I I -0.70710678118654746 0.70710678118654746 0.5 forward I I I I #
loop $-1 $-1 $157 $39 #
coedge $-1 $98 $98 $158 $159 reversed $62 $-1 #
face $-1 $160 $161 $24 $-1 $162 reversed single #
loop $-1 $-1 $163 $64 #
plane-surface $-1 0 -24.07182074596415 0 0 1 0 0 0 1 forward_v I I I I #
coedge $-1 $164 $165 $166 $167 forward $65 $-1 #
coedge $-1 $168 $67 $169 $170 forward $41 $-1 #
coedge $-1 $67 $168 $171 $172 forward $41 $-1 #
coedge $-1 $173 $174 $67 $106 reversed $175 $-1 #
edge $-1 $176 -24.07182074596415 $177 24.07182074596415 $105 $178 forward 7 unknown #
face $-1 $179 $180 $25 $-1 $181 reversed single #
loop $-1 $-1 $182 $68 #
plane-surface $-1 -59.435407574694054 0 0 1 0 0 0 0 -1 forward_v I I I I #
coedge $-1 $183 $184 $185 $186 reversed $69 $-1 #
coedge $-1 $187 $71 $188 $189 reversed $44 $-1 #
coedge $-1 $71 $187 $190 $191 forward $44 $-1 #
coedge $-1 $192 $193 $71 $114 forward $194 $-1 #
edge $-1 $195 -14.347266723533531 $196 -5.1018413213277061 $113 $197 forward 7 unknown #
face $-1 $198 $199 $26 $-1 $200 reversed single #
loop $-1 $-1 $201 $72 #
plane-surface $-1 0 0 10.887012992550137 0 0 1 1 0 0 forward_v I I I I #
coedge $-1 $202 $203 $204 $205 reversed $73 $-1 #
coedge $-1 $206 $75 $202 $207 forward $47 $-1 #
coedge $-1 $75 $206 $208 $209 reversed $47 $-1 #
coedge $-1 $210 $211 $75 $122 forward $199 $-1 #
edge $-1 $212 5.1018413213277061 $213 14.347266723533531 $121 $214 forward 7 unknown #
face $-1 $215 $216 $27 $-1 $217 forward single #
loop $-1 $-1 $218 $76 #
plane-surface $-1 65.302319293449685 -6.966452801087879 170.78326611828973 0 1 0 0.73135370988377701 0 0.68199835119979291 forward_v I I I I #
coedge $-1 $219 $220 $221 $222 reversed $77 $-1 #
coedge $-1 $128 $79 $223 $224 reversed $50 $-1 #
coedge $-1 $79 $127 $219 $225 reversed $50 $-1 #
coedge $-1 $221 $226 $79 $130 forward $216 $-1 #
edge $-1 $227 -26.784247927969211 $228 -19.22149624053278 $129 $229 forward 7 unknown #
loop $-1 $-1 $136 $80 #
plane-surface $-1 -21.63429236296399 -3.9366256867011167 89.713566180631673 0.73135370988377701 0 0.68199835119979291 0.68199835119979291 0 -0.73135370988377701 forward_v I I I I #
loop $-1 $-1 $230 $52 #
coedge $-1 $134 $134 $135 $231 reversed $81 $-1 #
coedge $-1 $135 $135 $134 $231 forward $83 $-1 #
coedge $-1 $136 $136 $84 $137 forward $131 $-1 #
edge $-1 $232 0 $232 6.2831853071796004 $136 $233 forward 7 unknown #
face $-1 $234 $235 $29 $-1 $236 forward single #
loop $-1 $-1 $237 $85 #
plane-surface $-1 -59.435407574694054 0 0 1 0 0 0 0 -1 forward_v I I I I #
coedge $-1 $238 $239 $240 $241 reversed $86 $-1 #
coedge $-1 $242 $88 $243 $244 reversed $56 $-1 #
coedge $-1 $88 $242 $238 $245 forward $56 $-1 #
coedge $-1 $240 $246 $88 $145 forward $235 $-1 #
edge $-1 $247 -9.3661721156994684 $248 -1.5542743404182433 $144 $249 forward 7 unknown #
loop $-1 $-1 $151 $89 #
plane-surface $-1 -59.435407574694025 -10.920446456117713 5.0075203191324391 -0.82903758062907751 0 0.55919289150049634 0.55919289150049634 0 0.82903758062907751 forward_v I I I I #
loop $-1 $-1 $250 $58 #
coedge $-1 $149 $149 $150 $251 reversed $90 $-1 #
coedge $-1 $150 $150 $149 $251 forward $92 $-1 #
coedge $-1 $151 $151 $93 $152 forward $146 $-1 #
edge $-1 $252 0 $252 6.2831853071796004 $151 $253 forward 7 unknown #
loop $-1 $-1 $158 $94 #
plane-surface $-1 -59.435407574694025 -10.920446456117713 5.0075203191324391 -0.82903758062907751 0 0.55919289150049634 0.55919289150049634 0 0.82903758062907751 forward_v I I I I #
loop $-1 $-1 $254 $61 #
coedge $-1 $156 $156 $157 $255 reversed $95 $-1 #
coedge $-1 $157 $157 $156 $255 forward $97 $-1 #
coedge $-1 $158 $158 $98 $159 forward $153 $-1 #
edge $-1 $256 0 $256 6.2831853071796004 $158 $257 forward 7 unknown #
face $-1 $258 $259 $24 $-1 $260 reversed single #
loop $-1 $-1 $261 $99 #
plane-surface $-1 -59.435407574694054 0 0 1 0 0 0 0 -1 forward_v I I I I #
coedge $-1 $262 $171 $263 $264 forward $100 $-1 #
coedge $-1 $265 $102 $262 $266 forward $65 $-1 #
coedge $-1 $102 $265 $267 $268 forward $65 $-1 #
coedge $-1 $174 $173 $102 $167 reversed $175 $-1 #
edge $-1 $269 -24.07182074596415 $270 24.07182074596415 $166 $271 forward 7 unknown #
coedge $-1 $104 $103 $272 $273 forward $41 $-1 #
coedge $-1 $274 $275 $103 $170 reversed $259 $-1 #
edge $-1 $177 -59.435407574694054 $276 59.435407574694054 $169 $277 forward 7 unknown #
coedge $-1 $163 $278 $104 $172 reversed $100 $-1 #
edge $-1 $279 -59.435407574694054 $176 59.435407574694054 $171 $280 forward 7 unknown #
coedge $-1 $166 $105 $278 $281 forward $175 $-1 #
coedge $-1 $105 $166 $274 $282 reversed $175 $-1 #
loop $-1 $-1 $173 $258 #
vertex $-1 $106 $283 #
vertex $-1 $106 $284 #
straight-curve $-1 59.435407574694054 0 10.887012992550137 0 1 0 I I #
face $-1 $285 $286 $25 $-1 $287 forward single #
loop $-1 $-1 $188 $107 #
plane-surface $-1 0 -24.07182074596415 0 0 1 0 0 0 1 forward_v I I I I #
coedge $-1 $288 $289 $184 $290 forward $108 $-1 #
coedge $-1 $190 $110 $192 $291 reversed $69 $-1 #
coedge $-1 $110 $190 $182 $290 reversed $69 $-1 #
coedge $-1 $292 $293 $110 $186 forward $286 $-1 #
edge $-1 $294 -59.435407574694054 $295 59.435407574694054 $185 $296 forward 7 unknown #
coedge $-1 $112 $111 $288 $297 reversed $44 $-1 #
coedge $-1 $298 $299 $111 $189 forward $180 $-1 #
edge $-1 $300 -59.435407574694054 $195 59.435407574694054 $188 $301 forward 7 unknown #
coedge $-1 $184 $183 $112 $191 reversed $69 $-1 #
edge $-1 $302 -59.435407574694054 $196 59.435407574694054 $190 $303 forward 7 unknown #
coedge $-1 $304 $113 $183 $291 forward $194 $-1 #
coedge $-1 $113 $304 $298 $305 forward $194 $-1 #
loop $-1 $-1 $192 $285 #
vertex $-1 $189 $306 #
vertex $-1 $114 $307 #
straight-curve $-1 59.435407574694054 -9.7245540224306186 4.6740361941587061 0 1 0 I I #
face $-1 $308 $309 $26 $-1 $310 reversed single #
loop $-1 $-1 $211 $115 #
plane-surface $-1 59.435407574694054 0 0 -1 0 0 0 0 1 forward_v I I I I #
coedge $-1 $311 $312 $203 $313 forward $116 $-1 #
coedge $-1 $314 $118 $119 $207 reversed $73 $-1 #
coedge $-1 $118 $314 $201 $313 reversed $73 $-1 #
coedge $-1 $315 $316 $118 $205 forward $309 $-1 #
edge $-1 $317 0.7837738974814954 $318 6.996750695872926 $204 $319 forward 7 unknown #
coedge $-1 $120 $119 $316 $320 reversed $47 $-1 #
edge $-1 $212 -59.435407574694054 $317 59.435407574694054 $202 $321 forward 7 unknown #
coedge $-1 $322 $323 $120 $209 forward $324 $-1 #
edge $-1 $213 -59.435407574694054 $325 59.435407574694054 $208 $326 forward 7 unknown #
coedge $-1 $327 $121 $323 $328 reversed $199 $-1 #
coedge $-1 $121 $327 $314 $329 forward $199 $-1 #
vertex $-1 $122 $330 #
vertex $-1 $209 $331 #
straight-curve $-1 59.435407574694054 9.7245540224306186 4.6740361941587061 0 1 0 I I #
face $-1 $-1 $332 $27 $-1 $333 reversed single #
loop $-1 $-1 $129 $123 #
plane-surface $-1 0 0 10.887012992550137 0 0 1 1 0 0 forward_v I I I I #
coedge $-1 $334 $335 $336 $337 reversed $124 $-1 #
coedge $-1 $338 $126 $128 $225 forward $77 $-1 #
coedge $-1 $126 $338 $334 $339 forward $77 $-1 #
coedge $-1 $336 $129 $126 $222 forward $216 $-1 #
edge $-1 $228 -1.061514271036204 $340 4.9981399577373207 $221 $341 forward 7 unknown #
coedge $-1 $342 $343 $127 $224 forward $332 $-1 #
edge $-1 $344 -82.614678534926853 $227 -74.504620066594725 $223 $345 forward 7 unknown #
edge $-1 $228 107.78170961983395 $344 118.87081514938808 $128 $346 forward 7 unknown #
coedge $-1 $129 $336 $342 $347 forward $216 $-1 #
vertex $-1 $224 $348 #
vertex $-1 $130 $349 #
straight-curve $-1 32.651159646724842 -0.90679857231435435 10.88701299255014 -1 0 0 I I #
coedge $-1 $230 $230 $-1 $350 reversed $133 $-1 #
edge $-1 $351 0 $351 6.2831853071796004 $134 $352 forward 7 unknown #
vertex $-1 $137 $353 #
ellipse-curve $-1 55.654031730975859 -3.9366256867011167 6.8319837583840579 0.73135370988377701 0 0.68199835119979291 1.0229975267996894 0 -1.0970305648256655 1 I I #
face $-1 $-1 $354 $29 $-1 $355 forward single #
loop $-1 $-1 $240 $138 #
plane-surface $-1 0 0 10.887012992550137 0 0 1 1 0 0 forward_v I I I I #
coedge $-1 $356 $357 $239 $358 forward $139 $-1 #
coedge $-1 $239 $141 $143 $245 reversed $86 $-1 #
coedge $-1 $141 $238 $237 $358 reversed $86 $-1 #
coedge $-1 $359 $144 $141 $241 forward $235 $-1 #
edge $-1 $248 -23.522250471498168 $360 -19.556482712080467 $240 $361 forward 7 unknown #
coedge $-1 $143 $142 $356 $362 reversed $56 $-1 #
coedge $-1 $363 $364 $142 $244 forward $354 $-1 #
edge $-1 $365 -17.767391086889425 $247 -10.675441565184565 $243 $366 forward 7 unknown #
edge $-1 $367 -5.0500882424826555e-014 $248 7.0919495217048087 $238 $368 forward 7 unknown #
coedge $-1 $144 $359 $363 $369 forward $235 $-1 #
vertex $-1 $244 $370 #
vertex $-1 $145 $371 #
straight-curve $-1 -55.469639815276352 -5.4602232280588563 10.887012992550137 0 1 0 I I #
coedge $-1 $250 $250 $-1 $372 reversed $148 $-1 #
edge $-1 $373 0 $373 6.2831853071796004 $149 $374 forward 7 unknown #
vertex $-1 $152 $375 #
ellipse-curve $-1 -57.452523694985196 -12.594424550820833 7.9472666558412763 -0.82903758062907751 0 0.55919289150049634 0.55919289150049634 0 0.82903758062907751 1 I I #
coedge $-1 $254 $254 $-1 $376 reversed $155 $-1 #
edge $-1 $377 0 $377 6.2831853071796004 $156 $378 forward 7 unknown #
vertex $-1 $159 $379 #
ellipse-curve $-1 -57.452523694985196 -9.2464683614145926 7.9472666558412763 -0.82903758062907751 0 0.55919289150049634 0.55919289150049634 0 0.82903758062907751 1 I I #
face $-1 $-1 $175 $24 $-1 $380 reversed single #
loop $-1 $-1 $274 $160 #
plane-surface $-1 0 24.07182074596415 0 0 -1 0 0 0 -1 forward_v I I I I #
coedge $-1 $381 $272 $275 $382 forward $161 $-1 #
coedge $-1 $278 $163 $164 $266 reversed $100 $-1 #
coedge $-1 $272 $381 $163 $264 reversed $161 $-1 #
edge $-1 $279 -10.887012992550137 $383 10.887012992550137 $263 $384 forward 7 unknown #
coedge $-1 $165 $164 $381 $385 forward $65 $-1 #
edge $-1 $270 -59.435407574694054 $383 59.435407574694054 $262 $386 forward 7 unknown #
coedge $-1 $275 $274 $165 $268 reversed $259 $-1 #
edge $-1 $387 -59.435407574694054 $269 59.435407574694054 $267 $388 forward 7 unknown #
vertex $-1 $167 $389 #
vertex $-1 $281 $390 #
straight-curve $-1 59.435407574694054 0 -10.887012992550137 0 -1 0 I I #
coedge $-1 $261 $263 $168 $273 reversed $161 $-1 #
edge $-1 $276 -24.07182074596415 $279 24.07182074596415 $272 $391 forward 7 unknown #
coedge $-1 $267 $169 $174 $282 forward $259 $-1 #
coedge $-1 $169 $267 $261 $382 reversed $259 $-1 #
vertex $-1 $170 $392 #
straight-curve $-1 0 24.07182074596415 10.887012992550137 -1 0 0 I I #
coedge $-1 $171 $262 $173 $281 reversed $100 $-1 #
vertex $-1 $273 $393 #
straight-curve $-1 0 -24.07182074596415 10.887012992550137 1 0 0 I I #
edge $-1 $176 -10.887012992550137 $270 10.887012992550137 $173 $394 forward 7 unknown #
edge $-1 $177 -10.887012992550137 $269 10.887012992550137 $174 $395 forward 7 unknown #
point $-1 59.435407574694054 -24.07182074596415 10.887012992550137 #
point $-1 59.435407574694054 24.07182074596415 10.887012992550137 #
face $-1 $-1 $194 $25 $-1 $396 reversed single #
loop $-1 $-1 $185 $179 #
plane-surface $-1 0 0 10.887012992550137 0 0 1 1 0 0 forward_v I I I I #
coedge $-1 $397 $182 $187 $297 forward $108 $-1 #
coedge $-1 $182 $397 $292 $398 reversed $108 $-1 #
edge $-1 $295 -6.996750695872926 $302 -0.7837738974814954 $182 $399 forward 7 unknown #
edge $-1 $196 0.7837738974814954 $294 6.996750695872926 $192 $400 forward 7 unknown #
coedge $-1 $401 $185 $289 $398 forward $286 $-1 #
coedge $-1 $185 $401 $304 $402 forward $286 $-1 #
vertex $-1 $291 $403 #
vertex $-1 $398 $404 #
straight-curve $-1 0 -14.826395343758325 10.887012992550137 -1 0 0 I I #
edge $-1 $302 5.1018413213277061 $300 14.347266723533531 $288 $405 forward 7 unknown #
coedge $-1 $406 $188 $193 $305 reversed $180 $-1 #
coedge $-1 $188 $406 $397 $407 forward $180 $-1 #
vertex $-1 $189 $408 #
straight-curve $-1 0 -24.07182074596415 4.6740361941587061 1 0 0 I I #
vertex $-1 $297 $409 #
straight-curve $-1 0 -14.826395343758325 4.6740361941587061 1 0 0 I I #
coedge $-1 $193 $192 $293 $402 reversed $194 $-1 #
edge $-1 $410 -10.887012992550137 $195 -4.6740361941587061 $193 $411 forward 7 unknown #
point $-1 59.435407574694054 -24.07182074596415 4.6740361941587061 #
point $-1 59.435407574694054 -14.826395343758325 4.6740361941587061 #
face $-1 $-1 $324 $26 $-1 $412 reversed single #
loop $-1 $-1 $204 $198 #
plane-surface $-1 -59.435407574694054 0 0 1 0 0 0 0 -1 forward_v I I I I #
coedge $-1 $413 $201 $327 $414 forward $116 $-1 #
coedge $-1 $201 $413 $315 $415 forward $116 $-1 #
edge $-1 $318 -59.435407574694054 $416 59.435407574694054 $201 $417 forward 7 unknown #
coedge $-1 $203 $202 $211 $329 reversed $73 $-1 #
coedge $-1 $418 $204 $312 $415 reversed $309 $-1 #
coedge $-1 $204 $418 $206 $320 forward $309 $-1 #
vertex $-1 $320 $419 #
vertex $-1 $205 $420 #
straight-curve $-1 -59.435407574694054 14.826395343758325 3.8902622966772107 0 0 1 I I #
edge $-1 $325 -14.347266723533531 $317 -5.1018413213277061 $316 $421 forward 7 unknown #
straight-curve $-1 0 14.826395343758325 4.6740361941587061 -1 0 0 I I #
coedge $-1 $422 $208 $418 $423 reversed $324 $-1 #
coedge $-1 $208 $422 $210 $328 forward $324 $-1 #
loop $-1 $-1 $208 $308 #
vertex $-1 $209 $424 #
straight-curve $-1 0 24.07182074596415 4.6740361941587061 -1 0 0 I I #
coedge $-1 $211 $210 $311 $414 reversed $199 $-1 #
edge $-1 $425 -10.887012992550137 $213 -4.6740361941587061 $210 $426 forward 7 unknown #
edge $-1 $416 -6.996750695872926 $212 -0.7837738974814954 $211 $427 forward 7 unknown #
point $-1 59.435407574694054 14.826395343758325 4.6740361941587061 #
point $-1 59.435407574694054 24.07182074596415 4.6740361941587061 #
loop $-1 $-1 $223 $215 #
plane-surface $-1 59.435407574694054 0 0 -1 0 0 0 0 1 forward_v I I I I #
coedge $-1 $335 $218 $220 $339 reversed $124 $-1 #
coedge $-1 $218 $334 $428 $429 reversed $124 $-1 #
coedge $-1 $226 $221 $218 $337 forward $216 $-1 #
edge $-1 $340 19.22149624053278 $430 26.784247927969211 $336 $431 forward 7 unknown #
coedge $-1 $220 $219 $343 $432 reversed $77 $-1 #
edge $-1 $433 -118.87081514938808 $340 -107.78170961983395 $334 $434 forward 7 unknown #
vertex $-1 $222 $435 #
straight-curve $-1 51.872655887257622 -1.9683128433505583 10.88701299255014 0 -1 0 I I #
coedge $-1 $428 $223 $226 $347 reversed $332 $-1 #
coedge $-1 $223 $428 $338 $432 forward $332 $-1 #
vertex $-1 $224 $436 #
straight-curve $-1 59.435407574694054 -0.90679857231435435 85.391633059144866 0 0 1 I I #
straight-curve $-1 -21.63429236296399 -0.90679857231435435 89.713566180631673 0.68199835119979291 0 -0.73135370988377701 I I #
edge $-1 $430 -6.966452801087879 $227 -0.90679857231435435 $342 $437 forward 7 unknown #
point $-1 59.435407574694054 -0.90679857231435435 10.887012992550137 #
point $-1 51.872655887257622 -0.90679857231435435 10.88701299255014 #
edge $-1 $438 1 $438 0 $230 $-1 forward 7 unknown #
vertex $-1 $231 $439 #
ellipse-curve $-1 54.151025866944394 -3.9366256867011167 5.4304081496735019 0.73135370988377701 0 0.68199835119979291 1.0229975267996894 0 -1.0970305648256655 1 I I #
point $-1 56.67702925777553 -3.9366256867011167 5.7349531935583835 #
loop $-1 $-1 $243 $234 #
plane-surface $-1 0 -14.826395343758325 7.7805245933544214 0 -1 0 0 0 -1 forward_v I I I I #
coedge $-1 $440 $237 $242 $362 forward $139 $-1 #
coedge $-1 $237 $440 $359 $441 reversed $139 $-1 #
edge $-1 $360 24.852604586219751 $367 30.732097259637492 $237 $442 forward 7 unknown #
coedge $-1 $246 $240 $357 $441 forward $235 $-1 #
vertex $-1 $441 $443 #
straight-curve $-1 -78.99189028677452 -7.0144975684770996 10.887012992550137 -1 0 0 I I #
edge $-1 $367 1.5542743404182433 $365 9.3661721156994684 $356 $444 forward 7 unknown #
coedge $-1 $364 $243 $246 $369 reversed $354 $-1 #
coedge $-1 $243 $363 $440 $445 reversed $354 $-1 #
vertex $-1 $445 $446 #
straight-curve $-1 -49.500008778396207 -14.826395343758325 19.737355239897838 0.55919289150049634 0 0.82903758062907751 I I #
vertex $-1 $362 $447 #
straight-curve $-1 -59.435407574694025 -7.0144975684770996 5.0075203191324391 0.55919289150049634 0 0.82903758062907751 I I #
edge $-1 $448 -59.435407574694054 $247 -55.469639815276352 $246 $449 forward 7 unknown #
point $-1 -55.469639815276352 -14.826395343758325 10.887012992550137 #
point $-1 -55.469639815276352 -7.0144975684770996 10.887012992550137 #
edge $-1 $450 1 $450 0 $250 $-1 forward 7 unknown #
vertex $-1 $251 $451 #
ellipse-curve $-1 -55.263153018250215 -12.594424550820833 6.4705175338523278 -0.82903758062907751 0 0.55919289150049634 0.55919289150049634 0 0.82903758062907751 1 I I #
point $-1 -56.893330803484723 -12.594424550820833 8.7763042364703701 #
edge $-1 $452 1 $452 0 $254 $-1 forward 7 unknown #
vertex $-1 $255 $453 #
ellipse-curve $-1 -55.263153018250215 -9.2464683614145926 6.4705175338523278 -0.82903758062907751 0 0.55919289150049634 0.55919289150049634 0 0.82903758062907751 1 I I #
point $-1 -56.893330803484723 -9.2464683614145926 8.7763042364703701 #
plane-surface $-1 59.435407574694054 0 0 -1 0 0 0 0 1 forward_v I I I I #
coedge $-1 $263 $261 $265 $385 reversed $161 $-1 #
edge $-1 $276 -10.887012992550137 $387 10.887012992550137 $275 $454 forward 7 unknown #
vertex $-1 $385 $455 #
straight-curve $-1 -59.435407574694054 -24.07182074596415 0 0 0 -1 I I #
edge $-1 $383 -24.07182074596415 $387 24.07182074596415 $381 $456 forward 7 unknown #
straight-curve $-1 0 -24.07182074596415 -10.887012992550137 -1 0 0 I I #
vertex $-1 $268 $457 #
straight-curve $-1 0 24.07182074596415 -10.887012992550137 1 0 0 I I #
point $-1 59.435407574694054 24.07182074596415 -10.887012992550137 #
point $-1 59.435407574694054 -24.07182074596415 -10.887012992550137 #
straight-curve $-1 -59.435407574694054 0 10.887012992550137 0 -1 0 I I #
point $-1 -59.435407574694054 24.07182074596415 10.887012992550137 #
point $-1 -59.435407574694054 -24.07182074596415 10.887012992550137 #
straight-curve $-1 59.435407574694054 -24.07182074596415 0 0 0 -1 I I #
straight-curve $-1 59.435407574694054 24.07182074596415 0 0 0 -1 I I #
plane-surface $-1 59.435407574694054 0 0 -1 0 0 0 0 1 forward_v I I I I #
coedge $-1 $289 $288 $299 $407 reversed $108 $-1 #
edge $-1 $295 14.826395343758325 $458 24.07182074596415 $289 $459 forward 7 unknown #
straight-curve $-1 -59.435407574694054 -14.826395343758325 3.8902622966772107 0 0 -1 I I #
straight-curve $-1 59.435407574694054 -14.826395343758325 3.8902622966772107 0 0 1 I I #
coedge $-1 $293 $292 $406 $460 forward $286 $-1 #
edge $-1 $410 -24.07182074596415 $294 -14.826395343758325 $304 $461 forward 7 unknown #
point $-1 59.435407574694054 -14.826395343758325 10.887012992550137 #
point $-1 -59.435407574694054 -14.826395343758325 10.887012992550137 #
straight-curve $-1 -59.435407574694054 -9.7245540224306186 4.6740361941587061 0 -1 0 I I #
coedge $-1 $299 $298 $401 $460 reversed $180 $-1 #
edge $-1 $458 -10.887012992550137 $300 -4.6740361941587061 $397 $462 forward 7 unknown #
point $-1 -59.435407574694054 -24.07182074596415 4.6740361941587061 #
point $-1 -59.435407574694054 -14.826395343758325 4.6740361941587061 #
vertex $-1 $402 $463 #
straight-curve $-1 59.435407574694054 -24.07182074596415 0 0 0 -1 I I #
plane-surface $-1 0 24.07182074596415 0 0 -1 0 0 0 -1 forward_v I I I I #
coedge $-1 $312 $311 $422 $464 forward $116 $-1 #
edge $-1 $416 14.826395343758325 $425 24.07182074596415 $327 $465 forward 7 unknown #
edge $-1 $466 -24.07182074596415 $318 -14.826395343758325 $315 $467 forward 7 unknown #
vertex $-1 $414 $468 #
straight-curve $-1 0 14.826395343758325 10.887012992550137 1 0 0 I I #
coedge $-1 $316 $315 $322 $423 forward $309 $-1 #
point $-1 -59.435407574694054 14.826395343758325 4.6740361941587061 #
point $-1 -59.435407574694054 14.826395343758325 10.887012992550137 #
straight-curve $-1 -59.435407574694054 9.7245540224306186 4.6740361941587061 0 -1 0 I I #
coedge $-1 $323 $322 $413 $464 reversed $324 $-1 #
edge $-1 $466 -10.887012992550137 $325 -4.6740361941587061 $322 $469 forward 7 unknown #
point $-1 -59.435407574694054 24.07182074596415 4.6740361941587061 #
vertex $-1 $414 $470 #
straight-curve $-1 59.435407574694054 24.07182074596415 0 0 0 -1 I I #
straight-curve $-1 59.435407574694054 14.826395343758325 3.8902622966772107 0 0 -1 I I #
coedge $-1 $343 $342 $335 $429 forward $332 $-1 #
edge $-1 $430 74.504620066594725 $433 82.614678534926853 $428 $471 forward 7 unknown #
vertex $-1 $347 $472 #
straight-curve $-1 32.651159646724842 -6.966452801087879 10.88701299255014 1 0 0 I I #
edge $-1 $433 -4.9981399577373207 $344 1.061514271036204 $343 $473 forward 7 unknown #
vertex $-1 $432 $474 #
straight-curve $-1 -21.63429236296399 -6.966452801087879 89.713566180631673 -0.68199835119979291 0 0.73135370988377701 I I #
point $-1 51.872655887257622 -6.966452801087879 10.88701299255014 #
point $-1 59.435407574694054 -0.90679857231435435 2.7769545242180129 #
straight-curve $-1 59.435407574694054 0 10.887012992550137 0 1 0 I I #
vertex $-1 $350 $475 #
point $-1 55.174023393744079 -3.9366256867011167 4.3333775848478364 #
coedge $-1 $357 $356 $364 $445 forward $139 $-1 #
edge $-1 $360 7.0144975684770996 $448 14.826395343758325 $357 $476 forward 7 unknown #
straight-curve $-1 -59.435407574694054 -7.0144975684770996 35.739617578769888 0 0 -1 I I #
point $-1 -59.435407574694054 -7.0144975684770996 10.887012992550137 #
straight-curve $-1 -59.435407574694054 -5.4602232280588563 5.0075203191323983 0 -1 0 I I #
edge $-1 $365 1.1172580224551867 $448 6.996750695872926 $440 $477 forward 7 unknown #
point $-1 -59.435407574694054 -14.826395343758325 5.0075203191323974 #
point $-1 -59.435407574694054 -7.0144975684770996 5.0075203191323974 #
vertex $-1 $445 $478 #
straight-curve $-1 0 -14.826395343758325 10.887012992550137 1 0 0 I I #
vertex $-1 $372 $479 #
point $-1 -54.70396012674972 -12.594424550820833 7.2995551144814055 #
vertex $-1 $376 $480 #
point $-1 -54.70396012674972 -9.2464683614145926 7.2995551144814055 #
straight-curve $-1 -59.435407574694054 24.07182074596415 0 0 0 -1 I I #
point $-1 -59.435407574694054 -24.07182074596415 -10.887012992550137 #
straight-curve $-1 -59.435407574694054 0 -10.887012992550137 0 1 0 I I #
point $-1 -59.435407574694054 24.07182074596415 -10.887012992550137 #
vertex $-1 $398 $481 #
straight-curve $-1 -59.435407574694054 0 10.887012992550137 0 -1 0 I I #
edge $-1 $458 -59.435407574694054 $410 59.435407574694054 $406 $482 forward 7 unknown #
straight-curve $-1 59.435407574694054 0 10.887012992550137 0 1 0 I I #
straight-curve $-1 -59.435407574694054 -24.07182074596415 0 0 0 -1 I I #
point $-1 59.435407574694054 -24.07182074596415 10.887012992550137 #
edge $-1 $425 -59.435407574694054 $466 59.435407574694054 $422 $483 forward 7 unknown #
straight-curve $-1 59.435407574694054 0 10.887012992550137 0 1 0 I I #
vertex $-1 $464 $484 #
straight-curve $-1 -59.435407574694054 0 10.887012992550137 0 -1 0 I I #
point $-1 59.435407574694054 14.826395343758325 10.887012992550137 #
straight-curve $-1 -59.435407574694054 24.07182074596415 0 0 0 -1 I I #
point $-1 59.435407574694054 24.07182074596415 10.887012992550137 #
straight-curve $-1 59.435407574694054 -6.966452801087879 85.391633059144866 0 0 -1 I I #
point $-1 59.435407574694054 -6.966452801087879 10.887012992550137 #
straight-curve $-1 59.435407574694054 -1.9683128433505583 2.7769545242180129 0 1 0 I I #
point $-1 59.435407574694054 -6.966452801087879 2.7769545242180129 #
point $-1 53.053995302118722 -3.9366256867011167 4.4074106228738135 #
straight-curve $-1 -59.435407574694054 0 10.887012992550137 0 -1 0 I I #
straight-curve $-1 -59.435407574694054 -14.826395343758325 3.8902622966772107 0 0 1 I I #
point $-1 -59.435407574694054 -14.826395343758325 10.887012992550137 #
point $-1 -54.434115437621138 -12.594424550820833 5.9113246423518317 #
point $-1 -54.434115437621138 -9.2464683614145926 5.9113246423518317 #
point $-1 -59.435407574694054 -24.07182074596415 10.887012992550137 #
straight-curve $-1 0 -24.07182074596415 10.887012992550137 1 0 0 I I #
straight-curve $-1 0 24.07182074596415 10.887012992550137 -1 0 0 I I #
point $-1 -59.435407574694054 24.07182074596415 10.887012992550137 #
End-of-ACIS-data 