500 0 9 0           
7 Unknown 11 ACIS 5.0 NT 24 Thu Mar 25 21:25:10 1999 
-1 9.9999999999999995e-007 1e-010 
body $-1 $9 $-1 $10 #
body $-1 $11 $-1 $12 #
body $-1 $13 $-1 $14 #
body $-1 $15 $-1 $16 #
body $-1 $17 $-1 $18 #
body $-1 $19 $-1 $20 #
body $-1 $21 $-1 $22 #
body $-1 $23 $-1 $24 #
body $-1 $25 $-1 $26 #
lump $-1 $-1 $27 $0 #
transform $-1 1 0 0 0 1 0 0 0 1 41.624805444502087 21.8949754081791 7.2227292148225199 1 rotate no_reflect no_shear #
lump $-1 $-1 $28 $1 #
transform $-1 1 0 0 0 1 0 0 0 1 41.624805444502087 21.8949754081791 7.2227292148225199 1 rotate no_reflect no_shear #
lump $-1 $-1 $29 $2 #
transform $-1 1 0 0 0 1 0 0 0 1 41.624805444502087 21.8949754081791 7.2227292148225199 1 rotate no_reflect no_shear #
lump $-1 $-1 $30 $3 #
transform $-1 1 0 0 0 1 0 0 0 1 41.624805444502087 21.8949754081791 7.2227292148225199 1 rotate no_reflect no_shear #
lump $-1 $-1 $31 $4 #
transform $-1 1 0 0 0 1 0 0 0 1 41.624805444502087 21.8949754081791 7.2227292148225199 1 rotate no_reflect no_shear #
lump $-1 $-1 $32 $5 #
transform $-1 1 0 0 0 1 0 0 0 1 41.624805444502087 21.8949754081791 7.2227292148225199 1 rotate no_reflect no_shear #
lump $-1 $-1 $33 $6 #
transform $-1 1 0 0 0 1 0 0 0 1 41.624805444502087 21.8949754081791 7.2227292148225199 1 rotate no_reflect no_shear #
lump $-1 $-1 $34 $7 #
transform $-1 1 0 0 0 1 0 0 0 1 41.624805444502087 21.8949754081791 7.2227292148225199 1 rotate no_reflect no_shear #
lump $-1 $-1 $35 $8 #
transform $-1 1 0 0 0 1 0 0 0 1 41.624805444502087 21.8949754081791 7.2227292148225199 1 rotate no_reflect no_shear #
shell $-1 $-1 $-1 $36 $-1 $9 #
shell $-1 $-1 $-1 $37 $-1 $11 #
shell $-1 $-1 $-1 $38 $-1 $13 #
shell $-1 $-1 $-1 $39 $-1 $15 #
shell $-1 $-1 $-1 $40 $-1 $17 #
shell $-1 $-1 $-1 $41 $-1 $19 #
shell $-1 $-1 $-1 $42 $-1 $21 #
shell $-1 $-1 $-1 $43 $-1 $23 #
shell $-1 $-1 $-1 $44 $-1 $25 #
face $-1 $45 $46 $27 $-1 $47 forward single #
face $-1 $48 $49 $28 $-1 $50 reversed single #
face $-1 $51 $52 $29 $-1 $53 reversed single #
face $-1 $54 $55 $30 $-1 $56 reversed single #
face $-1 $57 $58 $31 $-1 $59 forward single #
face $-1 $60 $61 $32 $-1 $62 forward single #
face $-1 $63 $64 $33 $-1 $65 reversed single #
face $-1 $66 $67 $34 $-1 $68 forward single #
face $-1 $69 $70 $35 $-1 $71 forward single #
face $-1 $72 $73 $27 $-1 $74 reversed single #
loop $-1 $-1 $75 $36 #
plane-surface $-1 0 0 7.2227292148225199 0 0 1 1 0 0 forward_v I I I I #
face $-1 $76 $77 $28 $-1 $78 reversed single #
loop $-1 $-1 $79 $37 #
plane-surface $-1 0 -19.152207526912818 4.2227292148225199 0 0 1 1 0 0 forward_v I I I I #
face $-1 $80 $81 $29 $-1 $82 reversed single #
loop $-1 $-1 $83 $38 #
plane-surface $-1 0 18.711179529667881 3.5412908863689889 0 0 1 1 0 0 forward_v I I I I #
face $-1 $84 $85 $30 $-1 $86 reversed single #
loop $-1 $-1 $87 $39 #
plane-surface $-1 -95.136624492893702 3.3178501112619543 64.83789452391926 0 1 0 -0.64278761758704617 0 0.76604443648966558 forward_v I I I I #
face $-1 $88 $89 $31 $-1 $90 forward single #
loop $-1 $91 $92 $40 #
cone-surface $-1 -36.861566963612113 5.4349721914525411 2.8400988218254342 0.64278761758704617 0 -0.76604443648966558 0.76604443648966558 0 0.64278761758704617 1 I I 0 1 1 forward I I I I #
face $-1 $93 $94 $32 $-1 $95 forward single #
loop $-1 $96 $97 $41 #
cone-surface $-1 -36.861566963612113 8.610655311738423 2.8400988218254342 0.64278761758704617 0 -0.76604443648966558 0.76604443648966558 0 0.64278761758704617 1 I I 0 1 1 forward I I I I #
face $-1 $98 $99 $33 $-1 $100 reversed single #
loop $-1 $-1 $101 $42 #
plane-surface $-1 -20.241711507437252 12.374653368641184 57.047703287479173 0.66913061440640931 0 0.74314481823134659 0.74314481823134659 0 -0.66913061440640931 forward_v I I I I #
face $-1 $102 $103 $34 $-1 $104 forward single #
loop $-1 $105 $106 $43 #
cone-surface $-1 37.95249453713906 11.023483247563121 3.8305746259820901 -0.66913061440640931 0 -0.74314481823134659 0.3715724091156733 0 -0.33456530720320465 1 I I 0 1 0.5 forward I I I I #
face $-1 $107 $108 $35 $-1 $109 forward single #
loop $-1 $110 $111 $44 #
cone-surface $-1 37.95249453713906 13.725823489719247 3.8305746259820901 -0.66913061440640931 0 -0.74314481823134659 0.3715724091156733 0 -0.33456530720320465 1 I I 0 1 0.5 forward I I I I #
face $-1 $112 $113 $27 $-1 $114 reversed single #
loop $-1 $-1 $115 $45 #
plane-surface $-1 0 0 -7.2227292148225199 0 0 1 1 0 0 forward_v I I I I #
coedge $-1 $116 $117 $118 $119 forward $46 $-1 #
face $-1 $120 $121 $28 $-1 $122 reversed single #
loop $-1 $-1 $123 $48 #
plane-surface $-1 0 -16.409439645646536 5.7227292148225199 0 -1 0 0 0 -1 forward_v I I I I #
coedge $-1 $124 $125 $126 $127 reversed $49 $-1 #
face $-1 $128 $129 $29 $-1 $130 forward single #
loop $-1 $-1 $131 $51 #
plane-surface $-1 0 15.527383651156661 5.3820100505957544 0 1 0 0 0 1 forward_v I I I I #
coedge $-1 $132 $133 $134 $135 reversed $52 $-1 #
face $-1 $136 $137 $30 $-1 $138 reversed single #
loop $-1 $-1 $139 $54 #
plane-surface $-1 -41.624805444502094 7.022813751595482 1.0649932624681284 -0.64278761758704617 0 0.76604443648966558 0.76604443648966558 0 0.64278761758704617 forward_v I I I I #
coedge $-1 $140 $141 $142 $143 reversed $55 $-1 #
face $-1 $-1 $144 $31 $-1 $145 forward single #
loop $-1 $146 $147 $57 #
cone-surface $-1 -35.446186568808713 5.4349721914525411 1.1533141867607082 0.64278761758704617 0 -0.76604443648966558 0.38302221824483279 0 0.32139380879352308 1 I I -0.70710678118654746 0.70710678118654746 0.5 forward I I I I #
loop $-1 $-1 $148 $40 #
coedge $-1 $92 $92 $149 $150 reversed $58 $-1 #
face $-1 $-1 $151 $32 $-1 $152 forward single #
loop $-1 $153 $154 $60 #
cone-surface $-1 -35.446186568808713 8.610655311738423 1.1533141867607082 0.64278761758704617 0 -0.76604443648966558 0.38302221824483279 0 0.32139380879352308 1 I I -0.70710678118654746 0.70710678118654746 0.5 forward I I I I #
loop $-1 $-1 $155 $41 #
coedge $-1 $97 $97 $156 $157 reversed $61 $-1 #
face $-1 $158 $159 $33 $-1 $160 forward single #
loop $-1 $-1 $161 $63 #
plane-surface $-1 35.463151775816613 9.2219230861257042 118.91422023941851 0 1 0 0.66913061440640931 0 0.74314481823134659 forward_v I I I I #
coedge $-1 $162 $163 $164 $165 reversed $64 $-1 #
face $-1 $-1 $166 $34 $-1 $167 forward single #
loop $-1 $168 $169 $66 #
cone-surface $-1 37.378040176617404 11.023483247563121 3.1925784378824336 -0.66913061440640931 0 -0.74314481823134659 0.18578620455783665 0 -0.16728265360160233 1 I I -0.70710678118654746 0.70710678118654746 0.25 forward I I I I #
loop $-1 $-1 $170 $43 #
coedge $-1 $106 $106 $171 $172 reversed $67 $-1 #
face $-1 $-1 $173 $35 $-1 $174 forward single #
loop $-1 $175 $176 $69 #
cone-surface $-1 37.378040176617404 13.725823489719247 3.1925784378824336 -0.66913061440640931 0 -0.74314481823134659 0.18578620455783665 0 -0.16728265360160233 1 I I -0.70710678118654746 0.70710678118654746 0.25 forward I I I I #
loop $-1 $-1 $177 $44 #
coedge $-1 $111 $111 $178 $179 reversed $70 $-1 #
face $-1 $180 $181 $27 $-1 $182 reversed single #
loop $-1 $-1 $183 $72 #
plane-surface $-1 0 -21.8949754081791 0 0 1 0 0 0 1 forward_v I I I I #
coedge $-1 $184 $185 $186 $187 forward $73 $-1 #
coedge $-1 $188 $75 $189 $190 forward $46 $-1 #
coedge $-1 $75 $188 $191 $192 forward $46 $-1 #
coedge $-1 $193 $194 $75 $119 reversed $195 $-1 #
edge $-1 $196 -21.8949754081791 $197 21.8949754081791 $118 $198 forward 7 unknown #
face $-1 $199 $200 $28 $-1 $201 reversed single #
loop $-1 $-1 $202 $76 #
plane-surface $-1 -41.624805444502087 0 0 1 0 0 0 0 -1 forward_v I I I I #
coedge $-1 $203 $204 $205 $206 reversed $77 $-1 #
coedge $-1 $207 $79 $208 $209 reversed $49 $-1 #
coedge $-1 $79 $207 $203 $210 forward $49 $-1 #
coedge $-1 $205 $211 $79 $127 forward $212 $-1 #
edge $-1 $213 -12.318871644722691 $214 -6.8333358821901271 $126 $215 forward 7 unknown #
face $-1 $216 $217 $29 $-1 $218 reversed single #
loop $-1 $-1 $219 $80 #
plane-surface $-1 0 0 7.2227292148225199 0 0 1 1 0 0 forward_v I I I I #
coedge $-1 $220 $221 $219 $222 reversed $81 $-1 #
coedge $-1 $223 $83 $224 $225 forward $52 $-1 #
coedge $-1 $83 $223 $226 $227 reversed $52 $-1 #
coedge $-1 $228 $229 $83 $135 forward $217 $-1 #
edge $-1 $230 6.1717938863227211 $231 12.53938564334516 $134 $232 forward 7 unknown #
face $-1 $233 $234 $30 $-1 $235 reversed single #
loop $-1 $-1 $236 $84 #
plane-surface $-1 -95.136624492893702 10.72777739192901 64.83789452391926 0 -1 0 0.64278761758704617 0 -0.76604443648966558 forward_v I I I I #
coedge $-1 $237 $238 $239 $240 reversed $85 $-1 #
coedge $-1 $141 $87 $241 $242 reversed $55 $-1 #
coedge $-1 $87 $140 $237 $243 reversed $55 $-1 #
coedge $-1 $239 $244 $87 $143 forward $245 $-1 #
edge $-1 $246 5.9435068019447641 $247 13.282010591704967 $142 $248 forward 7 unknown #
loop $-1 $-1 $149 $88 #
plane-surface $-1 -41.624805444502094 7.022813751595482 1.0649932624681284 -0.64278761758704617 0 0.76604443648966558 0.76604443648966558 0 0.64278761758704617 forward_v I I I I #
loop $-1 $-1 $249 $57 #
coedge $-1 $147 $147 $148 $250 reversed $89 $-1 #
coedge $-1 $148 $148 $147 $250 forward $91 $-1 #
coedge $-1 $149 $149 $92 $150 forward $144 $-1 #
edge $-1 $251 0 $251 6.2831853071796004 $149 $252 forward 7 unknown #
loop $-1 $-1 $156 $93 #
plane-surface $-1 -41.624805444502094 7.022813751595482 1.0649932624681284 -0.64278761758704617 0 0.76604443648966558 0.76604443648966558 0 0.64278761758704617 forward_v I I I I #
loop $-1 $-1 $253 $60 #
coedge $-1 $154 $154 $155 $254 reversed $94 $-1 #
coedge $-1 $155 $155 $154 $254 forward $96 $-1 #
coedge $-1 $156 $156 $97 $157 forward $151 $-1 #
edge $-1 $255 0 $255 6.2831853071796004 $156 $256 forward 7 unknown #
face $-1 $257 $258 $33 $-1 $259 reversed single #
loop $-1 $-1 $164 $98 #
plane-surface $-1 0 0 7.2227292148225199 0 0 1 1 0 0 forward_v I I I I #
coedge $-1 $260 $261 $262 $263 reversed $99 $-1 #
coedge $-1 $264 $101 $265 $266 reversed $64 $-1 #
coedge $-1 $101 $264 $260 $267 forward $64 $-1 #
coedge $-1 $262 $268 $101 $165 forward $159 $-1 #
edge $-1 $269 -9.3400569668360713 $270 -3.0345964018051124 $164 $271 forward 7 unknown #
loop $-1 $-1 $171 $102 #
plane-surface $-1 -20.241711507437252 12.374653368641184 57.047703287479173 0.66913061440640931 0 0.74314481823134659 0.74314481823134659 0 -0.66913061440640931 forward_v I I I I #
loop $-1 $-1 $272 $66 #
coedge $-1 $169 $169 $170 $273 reversed $103 $-1 #
coedge $-1 $170 $170 $169 $273 forward $105 $-1 #
coedge $-1 $171 $171 $106 $172 forward $166 $-1 #
edge $-1 $274 0 $274 6.2831853071796004 $171 $275 forward 7 unknown #
loop $-1 $-1 $178 $107 #
plane-surface $-1 -20.241711507437252 12.374653368641184 57.047703287479173 0.66913061440640931 0 0.74314481823134659 0.74314481823134659 0 -0.66913061440640931 forward_v I I I I #
loop $-1 $-1 $276 $69 #
coedge $-1 $176 $176 $177 $277 reversed $108 $-1 #
coedge $-1 $177 $177 $176 $277 forward $110 $-1 #
coedge $-1 $178 $178 $111 $179 forward $173 $-1 #
edge $-1 $278 0 $278 6.2831853071796004 $178 $279 forward 7 unknown #
face $-1 $280 $281 $27 $-1 $282 reversed single #
loop $-1 $-1 $283 $112 #
plane-surface $-1 -41.624805444502087 0 0 1 0 0 0 0 -1 forward_v I I I I #
coedge $-1 $284 $191 $285 $286 forward $113 $-1 #
coedge $-1 $287 $115 $284 $288 forward $73 $-1 #
coedge $-1 $115 $287 $289 $290 forward $73 $-1 #
coedge $-1 $194 $193 $115 $187 reversed $195 $-1 #
edge $-1 $291 -21.8949754081791 $292 21.8949754081791 $186 $293 forward 7 unknown #
coedge $-1 $117 $116 $294 $295 forward $46 $-1 #
coedge $-1 $296 $297 $116 $190 reversed $281 $-1 #
edge $-1 $197 -41.624805444502087 $298 41.624805444502087 $189 $299 forward 7 unknown #
coedge $-1 $183 $300 $117 $192 reversed $113 $-1 #
edge $-1 $301 -41.624805444502087 $196 41.624805444502087 $191 $302 forward 7 unknown #
coedge $-1 $186 $118 $300 $303 forward $195 $-1 #
coedge $-1 $118 $186 $296 $304 reversed $195 $-1 #
loop $-1 $-1 $193 $280 #
vertex $-1 $119 $305 #
vertex $-1 $119 $306 #
straight-curve $-1 41.624805444502087 0 7.2227292148225199 0 1 0 I I #
face $-1 $307 $308 $28 $-1 $309 forward single #
loop $-1 $-1 $208 $120 #
plane-surface $-1 0 -21.8949754081791 0 0 1 0 0 0 1 forward_v I I I I #
coedge $-1 $310 $311 $312 $313 forward $121 $-1 #
coedge $-1 $312 $123 $125 $210 reversed $77 $-1 #
coedge $-1 $123 $312 $314 $315 reversed $77 $-1 #
coedge $-1 $316 $126 $123 $206 forward $212 $-1 #
edge $-1 $214 1.36136460741126 $317 4.36136460741126 $205 $318 forward 7 unknown #
coedge $-1 $125 $124 $310 $319 reversed $49 $-1 #
coedge $-1 $320 $321 $124 $209 forward $200 $-1 #
edge $-1 $322 -41.624805444502087 $213 41.624805444502087 $208 $323 forward 7 unknown #
edge $-1 $324 -41.624805444502087 $214 41.624805444502087 $203 $325 forward 7 unknown #
coedge $-1 $126 $316 $320 $326 forward $212 $-1 #
loop $-1 $-1 $205 $307 #
vertex $-1 $209 $327 #
vertex $-1 $127 $328 #
straight-curve $-1 41.624805444502087 -9.576103763456409 4.2227292148225199 0 1 0 I I #
face $-1 $329 $330 $29 $-1 $331 reversed single #
loop $-1 $-1 $229 $128 #
plane-surface $-1 41.624805444502087 0 0 -1 0 0 0 0 1 forward_v I I I I #
coedge $-1 $332 $333 $131 $222 forward $129 $-1 #
coedge $-1 $224 $131 $334 $335 reversed $81 $-1 #
coedge $-1 $131 $224 $229 $336 reversed $81 $-1 #
edge $-1 $337 -41.624805444502087 $338 41.624805444502087 $219 $339 forward 7 unknown #
coedge $-1 $133 $132 $340 $341 reversed $52 $-1 #
coedge $-1 $221 $220 $132 $225 reversed $81 $-1 #
edge $-1 $230 -41.624805444502087 $342 41.624805444502087 $224 $343 forward 7 unknown #
coedge $-1 $344 $345 $133 $227 forward $346 $-1 #
edge $-1 $231 -41.624805444502087 $347 41.624805444502087 $226 $348 forward 7 unknown #
coedge $-1 $349 $134 $345 $350 reversed $217 $-1 #
coedge $-1 $134 $349 $221 $336 forward $217 $-1 #
vertex $-1 $135 $351 #
vertex $-1 $227 $352 #
straight-curve $-1 41.624805444502087 9.3555897648339403 3.5412908863689889 0 1 0 I I #
face $-1 $-1 $245 $30 $-1 $353 forward single #
loop $-1 $-1 $354 $136 #
plane-surface $-1 -41.624805444502087 0 0 1 0 0 0 0 -1 forward_v I I I I #
coedge $-1 $355 $356 $357 $358 reversed $137 $-1 #
coedge $-1 $359 $139 $141 $243 forward $85 $-1 #
coedge $-1 $139 $359 $355 $360 forward $85 $-1 #
coedge $-1 $357 $142 $139 $240 forward $245 $-1 #
edge $-1 $247 -0.19355676453578674 $361 7.2163705161312688 $239 $362 forward 7 unknown #
coedge $-1 $363 $364 $140 $242 forward $234 $-1 #
edge $-1 $365 -31.353953999491495 $246 -25.196218047137108 $241 $366 forward 7 unknown #
edge $-1 $247 -9.5797364228481161 $365 -9.2967162063127932e-015 $141 $367 forward 7 unknown #
coedge $-1 $142 $357 $363 $368 forward $245 $-1 #
loop $-1 $-1 $357 $233 #
vertex $-1 $242 $369 #
vertex $-1 $143 $370 #
straight-curve $-1 -47.568312246446851 3.3178501112619543 7.2227292148225217 1 0 0 I I #
coedge $-1 $249 $249 $-1 $371 reversed $146 $-1 #
edge $-1 $372 0 $372 6.2831853071796004 $147 $373 forward 7 unknown #
vertex $-1 $150 $374 #
ellipse-curve $-1 -37.955553549621989 5.4349721914525411 4.143861238645326 -0.64278761758704617 0 0.76604443648966558 0.76604443648966558 0 0.64278761758704617 1 I I #
coedge $-1 $253 $253 $-1 $375 reversed $153 $-1 #
edge $-1 $376 0 $376 6.2831853071796004 $154 $377 forward 7 unknown #
vertex $-1 $157 $378 #
ellipse-curve $-1 -37.955553549621989 8.610655311738423 4.143861238645326 -0.64278761758704617 0 0.76604443648966558 0.76604443648966558 0 0.64278761758704617 1 I I #
face $-1 $-1 $379 $33 $-1 $380 forward single #
loop $-1 $-1 $381 $158 #
plane-surface $-1 41.624805444502087 0 0 -1 0 0 0 0 1 forward_v I I I I #
coedge $-1 $261 $161 $163 $267 reversed $99 $-1 #
coedge $-1 $161 $260 $381 $382 reversed $99 $-1 #
coedge $-1 $383 $164 $161 $263 forward $159 $-1 #
edge $-1 $270 17.362951155707833 $384 23.893229556593781 $262 $385 forward 7 unknown #
coedge $-1 $163 $162 $386 $387 reversed $64 $-1 #
coedge $-1 $388 $389 $162 $266 forward $379 $-1 #
edge $-1 $390 -58.442800849896834 $269 -49.655444414541826 $265 $391 forward 7 unknown #
edge $-1 $392 -83.249610889004174 $270 -74.462254453649166 $260 $393 forward 7 unknown #
coedge $-1 $164 $383 $388 $394 forward $159 $-1 #
vertex $-1 $266 $395 #
vertex $-1 $165 $396 #
straight-curve $-1 35.094527043616125 6.1873266843205919 7.2227292148225217 0 -1 0 I I #
coedge $-1 $272 $272 $-1 $397 reversed $168 $-1 #
edge $-1 $398 0 $398 6.2831853071796004 $169 $399 forward 7 unknown #
vertex $-1 $172 $400 #
ellipse-curve $-1 38.359666244059113 11.023483247563121 4.2827846095239082 0.66913061440640931 0 0.74314481823134659 0.3715724091156733 0 -0.33456530720320465 1 I I #
coedge $-1 $276 $276 $-1 $401 reversed $175 $-1 #
edge $-1 $402 0 $402 6.2831853071796004 $176 $403 forward 7 unknown #
vertex $-1 $179 $404 #
ellipse-curve $-1 38.359666244059113 13.725823489719247 4.2827846095239082 0.66913061440640931 0 0.74314481823134659 0.3715724091156733 0 -0.33456530720320465 1 I I #
face $-1 $-1 $195 $27 $-1 $405 reversed single #
loop $-1 $-1 $296 $180 #
plane-surface $-1 0 21.8949754081791 0 0 -1 0 0 0 -1 forward_v I I I I #
coedge $-1 $406 $294 $297 $407 forward $181 $-1 #
coedge $-1 $300 $183 $184 $288 reversed $113 $-1 #
coedge $-1 $294 $406 $183 $286 reversed $181 $-1 #
edge $-1 $301 -7.2227292148225199 $408 7.2227292148225199 $285 $409 forward 7 unknown #
coedge $-1 $185 $184 $406 $410 forward $73 $-1 #
edge $-1 $292 -41.624805444502087 $408 41.624805444502087 $284 $411 forward 7 unknown #
coedge $-1 $297 $296 $185 $290 reversed $281 $-1 #
edge $-1 $412 -41.624805444502087 $291 41.624805444502087 $289 $413 forward 7 unknown #
vertex $-1 $187 $414 #
vertex $-1 $303 $415 #
straight-curve $-1 41.624805444502087 0 -7.2227292148225199 0 -1 0 I I #
coedge $-1 $283 $285 $188 $295 reversed $181 $-1 #
edge $-1 $298 -21.8949754081791 $301 21.8949754081791 $294 $416 forward 7 unknown #
coedge $-1 $289 $189 $194 $304 forward $281 $-1 #
coedge $-1 $189 $289 $283 $407 reversed $281 $-1 #
vertex $-1 $190 $417 #
straight-curve $-1 0 21.8949754081791 7.2227292148225199 -1 0 0 I I #
coedge $-1 $191 $284 $193 $303 reversed $113 $-1 #
vertex $-1 $295 $418 #
straight-curve $-1 0 -21.8949754081791 7.2227292148225199 1 0 0 I I #
edge $-1 $196 -7.2227292148225199 $292 7.2227292148225199 $193 $419 forward 7 unknown #
edge $-1 $197 -7.2227292148225199 $291 7.2227292148225199 $194 $420 forward 7 unknown #
point $-1 41.624805444502087 -21.8949754081791 7.2227292148225199 #
point $-1 41.624805444502087 21.8949754081791 7.2227292148225199 #
face $-1 $-1 $212 $28 $-1 $421 reversed single #
loop $-1 $-1 $314 $199 #
plane-surface $-1 0 0 7.2227292148225199 0 0 1 1 0 0 forward_v I I I I #
coedge $-1 $422 $202 $207 $319 forward $121 $-1 #
coedge $-1 $202 $422 $423 $424 reversed $121 $-1 #
coedge $-1 $204 $203 $202 $313 reversed $77 $-1 #
edge $-1 $425 -4.36136460741126 $324 -1.36136460741126 $202 $426 forward 7 unknown #
coedge $-1 $423 $427 $204 $315 forward $308 $-1 #
edge $-1 $317 -41.624805444502087 $425 41.624805444502087 $314 $428 forward 7 unknown #
coedge $-1 $211 $205 $427 $429 reversed $212 $-1 #
vertex $-1 $206 $430 #
straight-curve $-1 41.624805444502087 -16.409439645646536 2.86136460741126 0 0 1 I I #
edge $-1 $324 6.8333358821901271 $322 12.318871644722691 $310 $431 forward 7 unknown #
coedge $-1 $432 $208 $211 $326 reversed $200 $-1 #
coedge $-1 $208 $432 $422 $433 forward $200 $-1 #
vertex $-1 $209 $434 #
straight-curve $-1 0 -21.8949754081791 4.2227292148225199 1 0 0 I I #
vertex $-1 $319 $435 #
straight-curve $-1 0 -16.409439645646536 4.2227292148225199 1 0 0 I I #
edge $-1 $436 -7.2227292148225199 $213 -4.2227292148225199 $211 $437 forward 7 unknown #
point $-1 41.624805444502087 -21.8949754081791 4.2227292148225199 #
point $-1 41.624805444502087 -16.409439645646536 4.2227292148225199 #
face $-1 $-1 $346 $29 $-1 $438 reversed single #
loop $-1 $-1 $334 $216 #
plane-surface $-1 -41.624805444502087 0 0 1 0 0 0 0 -1 forward_v I I I I #
coedge $-1 $439 $219 $349 $440 forward $129 $-1 #
coedge $-1 $219 $439 $441 $442 forward $129 $-1 #
coedge $-1 $441 $340 $220 $335 forward $330 $-1 #
edge $-1 $342 0.8502858610711117 $337 4.5317241895246427 $334 $443 forward 7 unknown #
edge $-1 $338 -4.5317241895246427 $230 -0.8502858610711117 $229 $444 forward 7 unknown #
vertex $-1 $335 $445 #
vertex $-1 $440 $446 #
straight-curve $-1 0 15.527383651156661 7.2227292148225199 1 0 0 I I #
coedge $-1 $334 $447 $223 $341 forward $330 $-1 #
edge $-1 $347 -12.53938564334516 $342 -6.1717938863227211 $340 $448 forward 7 unknown #
vertex $-1 $341 $449 #
straight-curve $-1 0 15.527383651156661 3.5412908863689889 -1 0 0 I I #
coedge $-1 $450 $226 $447 $451 reversed $346 $-1 #
coedge $-1 $226 $450 $228 $350 forward $346 $-1 #
loop $-1 $-1 $226 $329 #
vertex $-1 $227 $452 #
straight-curve $-1 0 21.8949754081791 3.5412908863689889 -1 0 0 I I #
coedge $-1 $229 $228 $332 $440 reversed $217 $-1 #
edge $-1 $453 -7.2227292148225199 $231 -3.5412908863689889 $228 $454 forward 7 unknown #
point $-1 41.624805444502087 15.527383651156661 3.5412908863689889 #
point $-1 41.624805444502087 21.8949754081791 3.5412908863689889 #
plane-surface $-1 0 0 7.2227292148225199 0 0 1 1 0 0 forward_v I I I I #
coedge $-1 $364 $363 $356 $455 forward $234 $-1 #
coedge $-1 $356 $236 $238 $360 reversed $137 $-1 #
coedge $-1 $236 $355 $354 $455 reversed $137 $-1 #
coedge $-1 $244 $239 $236 $358 forward $245 $-1 #
edge $-1 $361 -13.282010591704967 $456 -5.9435068019447641 $357 $457 forward 7 unknown #
coedge $-1 $238 $237 $364 $458 reversed $85 $-1 #
edge $-1 $459 9.2967162063127932e-015 $361 9.5797364228481161 $355 $460 forward 7 unknown #
vertex $-1 $240 $461 #
straight-curve $-1 -34.286301654741884 3.511406875797741 7.2227292148225199 0 1 0 I I #
coedge $-1 $354 $241 $244 $368 reversed $234 $-1 #
coedge $-1 $241 $354 $359 $458 forward $234 $-1 #
vertex $-1 $242 $462 #
straight-curve $-1 -41.624805444502087 3.3178501112619543 32.41894726195963 0 0 1 I I #
straight-curve $-1 -41.624805444502094 3.3178501112619543 1.0649932624681284 -0.76604443648966558 0 -0.64278761758704617 I I #
edge $-1 $456 -10.72777739192901 $246 -3.3178501112619543 $363 $463 forward 7 unknown #
point $-1 -41.624805444502087 3.3178501112619543 7.2227292148225199 #
point $-1 -34.286301654741884 3.3178501112619543 7.2227292148225199 #
edge $-1 $464 1 $464 0 $249 $-1 forward 7 unknown #
vertex $-1 $250 $465 #
ellipse-curve $-1 -35.767580377602236 5.4349721914525411 1.536336405005541 -0.64278761758704617 0 0.76604443648966558 0.76604443648966558 0 0.64278761758704617 1 I I #
point $-1 -37.189509113132324 5.4349721914525411 4.7866488562323735 #
edge $-1 $466 1 $466 0 $253 $-1 forward 7 unknown #
vertex $-1 $254 $467 #
ellipse-curve $-1 -35.767580377602236 8.610655311738423 1.536336405005541 -0.64278761758704617 0 0.76604443648966558 0.76604443648966558 0 0.64278761758704617 1 I I #
point $-1 -37.189509113132324 8.610655311738423 4.7866488562323735 #
loop $-1 $-1 $265 $257 #
plane-surface $-1 0 15.527383651156661 5.3820100505957544 0 1 0 0 0 1 forward_v I I I I #
coedge $-1 $386 $468 $261 $382 forward $258 $-1 #
edge $-1 $384 52.234380904886734 $392 58.114270115483947 $381 $469 forward 7 unknown #
coedge $-1 $268 $262 $468 $470 forward $159 $-1 #
vertex $-1 $470 $471 #
straight-curve $-1 17.731575887908306 9.2219230861257042 7.2227292148225217 1 0 0 I I #
coedge $-1 $472 $381 $264 $387 forward $258 $-1 #
edge $-1 $392 3.0345964018051124 $390 9.3400569668360713 $386 $473 forward 7 unknown #
coedge $-1 $389 $265 $268 $394 reversed $379 $-1 #
coedge $-1 $265 $388 $472 $474 reversed $379 $-1 #
vertex $-1 $474 $475 #
straight-curve $-1 -1.8066591700252843 15.527383651156661 40.448707244548196 -0.74314481823134659 0 0.66913061440640931 I I #
vertex $-1 $387 $476 #
straight-curve $-1 -20.241711507437252 9.2219230861257042 57.047703287479173 -0.74314481823134659 0 0.66913061440640931 I I #
edge $-1 $477 -41.624805444502087 $269 -35.094527043616139 $268 $478 forward 7 unknown #
point $-1 35.094527043616139 15.527383651156663 7.2227292148225217 #
point $-1 35.094527043616139 9.2219230861257042 7.2227292148225217 #
edge $-1 $479 1 $479 0 $272 $-1 forward 7 unknown #
vertex $-1 $273 $480 #
ellipse-curve $-1 37.545322830219007 11.023483247563121 3.3783646424402702 0.66913061440640931 0 0.74314481823134659 0.3715724091156733 0 -0.33456530720320465 1 I I #
point $-1 38.731238653174785 11.023483247563121 3.9482193023207053 #
edge $-1 $481 1 $481 0 $276 $-1 forward 7 unknown #
vertex $-1 $277 $482 #
ellipse-curve $-1 37.545322830219007 13.725823489719247 3.3783646424402702 0.66913061440640931 0 0.74314481823134659 0.3715724091156733 0 -0.33456530720320465 1 I I #
point $-1 38.731238653174785 13.725823489719247 3.9482193023207053 #
plane-surface $-1 41.624805444502087 0 0 -1 0 0 0 0 1 forward_v I I I I #
coedge $-1 $285 $283 $287 $410 reversed $181 $-1 #
edge $-1 $298 -7.2227292148225199 $412 7.2227292148225199 $297 $483 forward 7 unknown #
vertex $-1 $410 $484 #
straight-curve $-1 -41.624805444502087 -21.8949754081791 0 0 0 -1 I I #
edge $-1 $408 -21.8949754081791 $412 21.8949754081791 $406 $485 forward 7 unknown #
straight-curve $-1 0 -21.8949754081791 -7.2227292148225199 -1 0 0 I I #
vertex $-1 $290 $486 #
straight-curve $-1 0 21.8949754081791 -7.2227292148225199 1 0 0 I I #
point $-1 41.624805444502087 21.8949754081791 -7.2227292148225199 #
point $-1 41.624805444502087 -21.8949754081791 -7.2227292148225199 #
straight-curve $-1 -41.624805444502087 0 7.2227292148225199 0 -1 0 I I #
point $-1 -41.624805444502087 21.8949754081791 7.2227292148225199 #
point $-1 -41.624805444502087 -21.8949754081791 7.2227292148225199 #
straight-curve $-1 41.624805444502087 -21.8949754081791 0 0 0 -1 I I #
straight-curve $-1 41.624805444502087 21.8949754081791 0 0 0 -1 I I #
plane-surface $-1 41.624805444502087 0 0 -1 0 0 0 0 1 forward_v I I I I #
coedge $-1 $311 $310 $321 $433 reversed $121 $-1 #
coedge $-1 $487 $314 $311 $424 forward $308 $-1 #
edge $-1 $425 16.409439645646536 $488 21.8949754081791 $311 $489 forward 7 unknown #
vertex $-1 $424 $490 #
straight-curve $-1 -41.624805444502087 -16.409439645646536 2.86136460741126 0 0 -1 I I #
coedge $-1 $314 $487 $316 $429 forward $308 $-1 #
straight-curve $-1 0 -16.409439645646536 7.2227292148225199 -1 0 0 I I #
edge $-1 $436 -21.8949754081791 $317 -16.409439645646536 $316 $491 forward 7 unknown #
point $-1 41.624805444502087 -16.409439645646536 7.2227292148225199 #
straight-curve $-1 -41.624805444502087 -9.576103763456409 4.2227292148225199 0 -1 0 I I #
coedge $-1 $321 $320 $487 $492 reversed $200 $-1 #
edge $-1 $488 -7.2227292148225199 $322 -4.2227292148225199 $422 $493 forward 7 unknown #
point $-1 -41.624805444502087 -21.8949754081791 4.2227292148225199 #
point $-1 -41.624805444502087 -16.409439645646536 4.2227292148225199 #
vertex $-1 $429 $494 #
straight-curve $-1 41.624805444502087 -21.8949754081791 0 0 0 -1 I I #
plane-surface $-1 0 21.8949754081791 0 0 -1 0 0 0 -1 forward_v I I I I #
coedge $-1 $333 $332 $450 $495 forward $129 $-1 #
edge $-1 $338 15.527383651156661 $453 21.8949754081791 $349 $496 forward 7 unknown #
coedge $-1 $447 $334 $333 $442 reversed $330 $-1 #
edge $-1 $497 -21.8949754081791 $337 -15.527383651156661 $441 $498 forward 7 unknown #
straight-curve $-1 -41.624805444502087 15.527383651156661 2.6910050252978772 0 0 1 I I #
straight-curve $-1 41.624805444502087 15.527383651156661 2.6910050252978772 0 0 -1 I I #
point $-1 -41.624805444502087 15.527383651156661 7.2227292148225199 #
point $-1 41.624805444502087 15.527383651156661 7.2227292148225199 #
coedge $-1 $340 $441 $344 $451 forward $330 $-1 #
straight-curve $-1 -41.624805444502087 9.3555897648339403 3.5412908863689889 0 -1 0 I I #
point $-1 -41.624805444502087 15.527383651156661 3.5412908863689889 #
coedge $-1 $345 $344 $439 $495 reversed $346 $-1 #
edge $-1 $497 -7.2227292148225199 $347 -3.5412908863689889 $344 $499 forward 7 unknown #
point $-1 -41.624805444502087 21.8949754081791 3.5412908863689889 #
vertex $-1 $440 $500 #
straight-curve $-1 41.624805444502087 21.8949754081791 0 0 0 -1 I I #
edge $-1 $456 25.196218047137108 $459 31.353953999491495 $354 $501 forward 7 unknown #
vertex $-1 $368 $502 #
straight-curve $-1 -47.568312246446851 10.72777739192901 7.2227292148225217 -1 0 0 I I #
edge $-1 $459 -7.2163705161312688 $365 0.19355676453578674 $364 $503 forward 7 unknown #
vertex $-1 $458 $504 #
straight-curve $-1 -41.624805444502094 10.72777739192901 1.0649932624681284 0.76604443648966558 0 0.64278761758704617 I I #
point $-1 -34.286301654741884 10.72777739192901 7.2227292148225199 #
point $-1 -41.624805444502087 3.3178501112619543 1.0649932624681344 #
straight-curve $-1 -41.624805444502087 0 7.2227292148225199 0 -1 0 I I #
vertex $-1 $371 $505 #
point $-1 -35.001535941112571 5.4349721914525411 2.1791240225925872 #
vertex $-1 $375 $506 #
point $-1 -35.001535941112571 8.610655311738423 2.1791240225925872 #
coedge $-1 $381 $472 $383 $470 reversed $258 $-1 #
straight-curve $-1 41.624805444502087 9.2219230861257042 59.457110119709256 0 0 -1 I I #
edge $-1 $384 9.2219230861257042 $477 15.527383651156661 $468 $507 forward 7 unknown #
point $-1 41.624805444502087 9.2219230861257042 7.2227292148225199 #
coedge $-1 $468 $386 $389 $474 forward $258 $-1 #
straight-curve $-1 41.62480544450208 6.1873266843205919 1.3428400042253159 0 1 0 I I #
edge $-1 $390 -58.114270115483947 $477 -52.234380904886734 $472 $508 forward 7 unknown #
point $-1 41.624805444502087 15.527383651156663 1.3428400042253088 #
point $-1 41.624805444502087 9.2219230861257042 1.3428400042253088 #
vertex $-1 $394 $509 #
straight-curve $-1 0 15.527383651156661 7.2227292148225199 -1 0 0 I I #
vertex $-1 $397 $510 #
point $-1 37.916895239334679 11.023483247563121 3.0437993352370656 #
vertex $-1 $401 $511 #
point $-1 37.916895239334679 13.725823489719247 3.0437993352370656 #
straight-curve $-1 -41.624805444502087 21.8949754081791 0 0 0 -1 I I #
point $-1 -41.624805444502087 -21.8949754081791 -7.2227292148225199 #
straight-curve $-1 -41.624805444502087 0 -7.2227292148225199 0 1 0 I I #
point $-1 -41.624805444502087 21.8949754081791 -7.2227292148225199 #
coedge $-1 $427 $423 $432 $492 forward $308 $-1 #
vertex $-1 $424 $512 #
straight-curve $-1 -41.624805444502087 0 7.2227292148225199 0 -1 0 I I #
point $-1 -41.624805444502087 -16.409439645646536 7.2227292148225199 #
straight-curve $-1 41.624805444502087 0 7.2227292148225199 0 1 0 I I #
edge $-1 $488 -41.624805444502087 $436 41.624805444502087 $432 $513 forward 7 unknown #
straight-curve $-1 -41.624805444502087 -21.8949754081791 0 0 0 -1 I I #
point $-1 41.624805444502087 -21.8949754081791 7.2227292148225199 #
edge $-1 $453 -41.624805444502087 $497 41.624805444502087 $450 $514 forward 7 unknown #
straight-curve $-1 41.624805444502087 0 7.2227292148225199 0 1 0 I I #
vertex $-1 $495 $515 #
straight-curve $-1 -41.624805444502087 0 7.2227292148225199 0 -1 0 I I #
straight-curve $-1 -41.624805444502087 21.8949754081791 0 0 0 -1 I I #
point $-1 41.624805444502087 21.8949754081791 7.2227292148225199 #
straight-curve $-1 -41.624805444502087 10.72777739192901 32.41894726195963 0 0 -1 I I #
point $-1 -41.624805444502087 10.72777739192901 7.2227292148225199 #
straight-curve $-1 -41.624805444502087 3.511406875797741 1.0649932624681295 0 -1 0 I I #
point $-1 -41.624805444502087 10.72777739192901 1.0649932624681344 #
point $-1 -35.12479276001519 5.4349721914525411 0.77029196851587534 #
point $-1 -35.12479276001519 8.610655311738423 0.77029196851587534 #
straight-curve $-1 41.624805444502087 0 7.2227292148225199 0 1 0 I I #
straight-curve $-1 41.624805444502087 15.527383651156663 59.457110119709256 0 0 1 I I #
point $-1 41.624805444502087 15.527383651156661 7.2227292148225199 #
point $-1 37.210757523015801 11.023483247563121 3.0067922333245969 #
point $-1 37.210757523015801 13.725823489719247 3.0067922333245969 #
point $-1 -41.624805444502087 -21.8949754081791 7.2227292148225199 #
straight-curve $-1 0 -21.8949754081791 7.2227292148225199 1 0 0 I I #
straight-curve $-1 0 21.8949754081791 7.2227292148225199 -1 0 0 I I #
point $-1 -41.624805444502087 21.8949754081791 7.2227292148225199 #
End-of-ACIS-data 