500 0 9 0           
7 Unknown 11 ACIS 5.0 NT 24 Fri Mar 26 02:29:35 1999 
-1 9.9999999999999995e-007 1e-010 
body $-1 $9 $-1 $10 #
body $-1 $11 $-1 $12 #
body $-1 $13 $-1 $14 #
body $-1 $15 $-1 $16 #
body $-1 $17 $-1 $18 #
body $-1 $19 $-1 $20 #
body $-1 $21 $-1 $22 #
body $-1 $23 $-1 $24 #
body $-1 $25 $-1 $26 #
lump $-1 $-1 $27 $0 #
transform $-1 1 0 0 0 1 0 0 0 1 49.094515823847161 26.062779709946636 10.222126521205791 1 rotate no_reflect no_shear #
lump $-1 $-1 $28 $1 #
transform $-1 1 0 0 0 1 0 0 0 1 49.094515823847161 26.062779709946636 10.222126521205791 1 rotate no_reflect no_shear #
lump $-1 $-1 $29 $2 #
transform $-1 1 0 0 0 1 0 0 0 1 49.094515823847161 26.062779709946636 10.222126521205791 1 rotate no_reflect no_shear #
lump $-1 $-1 $30 $3 #
transform $-1 1 0 0 0 1 0 0 0 1 49.094515823847161 26.062779709946636 10.222126521205791 1 rotate no_reflect no_shear #
lump $-1 $-1 $31 $4 #
transform $-1 1 0 0 0 1 0 0 0 1 49.094515823847161 26.062779709946636 10.222126521205791 1 rotate no_reflect no_shear #
lump $-1 $-1 $32 $5 #
transform $-1 1 0 0 0 1 0 0 0 1 49.094515823847161 26.062779709946636 10.222126521205791 1 rotate no_reflect no_shear #
lump $-1 $-1 $33 $6 #
transform $-1 1 0 0 0 1 0 0 0 1 49.094515823847161 26.062779709946636 10.222126521205791 1 rotate no_reflect no_shear #
lump $-1 $-1 $34 $7 #
transform $-1 1 0 0 0 1 0 0 0 1 49.094515823847161 26.062779709946636 10.222126521205791 1 rotate no_reflect no_shear #
lump $-1 $-1 $35 $8 #
transform $-1 1 0 0 0 1 0 0 0 1 49.094515823847161 26.062779709946636 10.222126521205791 1 rotate no_reflect no_shear #
shell $-1 $-1 $-1 $36 $-1 $9 #
shell $-1 $-1 $-1 $37 $-1 $11 #
shell $-1 $-1 $-1 $38 $-1 $13 #
shell $-1 $-1 $-1 $39 $-1 $15 #
shell $-1 $-1 $-1 $40 $-1 $17 #
shell $-1 $-1 $-1 $41 $-1 $19 #
shell $-1 $-1 $-1 $42 $-1 $21 #
shell $-1 $-1 $-1 $43 $-1 $23 #
shell $-1 $-1 $-1 $44 $-1 $25 #
face $-1 $45 $46 $27 $-1 $47 forward single #
face $-1 $48 $49 $28 $-1 $50 reversed single #
face $-1 $51 $52 $29 $-1 $53 reversed single #
face $-1 $54 $55 $30 $-1 $56 reversed single #
face $-1 $57 $58 $31 $-1 $59 forward single #
face $-1 $60 $61 $32 $-1 $62 forward single #
face $-1 $63 $64 $33 $-1 $65 reversed single #
face $-1 $66 $67 $34 $-1 $68 forward single #
face $-1 $69 $70 $35 $-1 $71 forward single #
face $-1 $72 $73 $27 $-1 $74 reversed single #
loop $-1 $-1 $75 $36 #
plane-surface $-1 0 0 10.222126521205791 0 0 1 1 0 0 forward_v I I I I #
face $-1 $76 $77 $28 $-1 $78 reversed single #
loop $-1 $-1 $79 $37 #
plane-surface $-1 0 -21.955354761028129 5.4274260190230983 0 0 1 1 0 0 forward_v I I I I #
face $-1 $80 $81 $29 $-1 $82 reversed single #
loop $-1 $-1 $83 $38 #
plane-surface $-1 0 21.955354761028129 5.4274260190230983 0 0 1 1 0 0 forward_v I I I I #
face $-1 $84 $85 $30 $-1 $86 reversed single #
loop $-1 $-1 $87 $39 #
plane-surface $-1 70.817048258214896 -6.629294473952652 141.22645436133433 0 -1 0 -0.80901700255871778 0 -0.5877852410284794 forward_v I I I I #
face $-1 $88 $89 $31 $-1 $90 forward single #
loop $-1 $91 $92 $40 #
cone-surface $-1 46.173873110965886 -11.609129975413985 6.6492032168492861 -0.80901700255871778 0 -0.5877852410284794 0.2938926205142397 0 -0.40450850127935889 1 I I 0 1 0.5 forward I I I I #
face $-1 $93 $94 $32 $-1 $95 forward single #
loop $-1 $96 $97 $41 #
cone-surface $-1 46.173873110965886 -8.6212286745371856 6.6492032168492861 -0.80901700255871778 0 -0.5877852410284794 0.2938926205142397 0 -0.40450850127935889 1 I I 0 1 0.5 forward I I I I #
face $-1 $98 $99 $33 $-1 $100 reversed single #
loop $-1 $-1 $101 $42 #
plane-surface $-1 70.817048258214896 11.218635338156972 141.22645436133433 0 -1 0 -0.80901700255871778 0 -0.5877852410284794 forward_v I I I I #
face $-1 $102 $103 $34 $-1 $104 forward single #
loop $-1 $105 $106 $43 #
cone-surface $-1 46.173873110965886 6.2387998366956374 6.6492032168492861 -0.80901700255871778 0 -0.5877852410284794 0.2938926205142397 0 -0.40450850127935889 1 I I 0 1 0.5 forward I I I I #
face $-1 $107 $108 $35 $-1 $109 forward single #
loop $-1 $110 $111 $44 #
cone-surface $-1 46.173873110965886 9.2267011375724373 6.6492032168492861 -0.80901700255871778 0 -0.5877852410284794 0.2938926205142397 0 -0.40450850127935889 1 I I 0 1 0.5 forward I I I I #
face $-1 $112 $113 $27 $-1 $114 reversed single #
loop $-1 $-1 $115 $45 #
plane-surface $-1 0 0 -10.222126521205791 0 0 1 1 0 0 forward_v I I I I #
coedge $-1 $116 $117 $118 $119 forward $46 $-1 #
face $-1 $120 $121 $28 $-1 $122 reversed single #
loop $-1 $-1 $123 $48 #
plane-surface $-1 0 -17.847929812109623 7.8247762701144445 0 -1 0 0 0 -1 forward_v I I I I #
coedge $-1 $124 $125 $126 $127 reversed $49 $-1 #
face $-1 $128 $129 $29 $-1 $130 forward single #
loop $-1 $-1 $131 $51 #
plane-surface $-1 0 17.847929812109623 7.8247762701144445 0 1 0 0 0 1 forward_v I I I I #
coedge $-1 $132 $133 $134 $135 reversed $52 $-1 #
face $-1 $136 $137 $30 $-1 $138 reversed single #
loop $-1 $-1 $139 $54 #
plane-surface $-1 -8.6195478095458355 -10.115179324975585 83.512390727941337 0.80901700255871778 0 0.5877852410284794 0.5877852410284794 0 -0.80901700255871778 forward_v I I I I #
coedge $-1 $140 $141 $142 $143 reversed $55 $-1 #
face $-1 $-1 $144 $31 $-1 $145 forward single #
loop $-1 $146 $147 $57 #
cone-surface $-1 45.283761826205435 -11.609129975413985 6.0024995327482635 -0.80901700255871778 0 -0.5877852410284794 0.14694631025711985 0 -0.20225425063967944 1 I I -0.70710678118654746 0.70710678118654746 0.25 forward I I I I #
loop $-1 $-1 $148 $40 #
coedge $-1 $92 $92 $149 $150 reversed $58 $-1 #
face $-1 $-1 $151 $32 $-1 $152 forward single #
loop $-1 $153 $154 $60 #
cone-surface $-1 45.283761826205435 -8.6212286745371856 6.0024995327482635 -0.80901700255871778 0 -0.5877852410284794 0.14694631025711985 0 -0.20225425063967944 1 I I -0.70710678118654746 0.70710678118654746 0.25 forward I I I I #
loop $-1 $-1 $155 $41 #
coedge $-1 $97 $97 $156 $157 reversed $61 $-1 #
face $-1 $158 $159 $33 $-1 $160 reversed single #
loop $-1 $-1 $161 $63 #
plane-surface $-1 -8.6195478095458355 7.7327504871340373 83.512390727941337 0.80901700255871778 0 0.5877852410284794 0.5877852410284794 0 -0.80901700255871778 forward_v I I I I #
coedge $-1 $162 $163 $164 $165 reversed $64 $-1 #
face $-1 $-1 $166 $34 $-1 $167 forward single #
loop $-1 $168 $169 $66 #
cone-surface $-1 45.283761826205435 6.2387998366956374 6.0024995327482635 -0.80901700255871778 0 -0.5877852410284794 0.14694631025711985 0 -0.20225425063967944 1 I I -0.70710678118654746 0.70710678118654746 0.25 forward I I I I #
loop $-1 $-1 $170 $43 #
coedge $-1 $106 $106 $171 $172 reversed $67 $-1 #
face $-1 $-1 $173 $35 $-1 $174 forward single #
loop $-1 $175 $176 $69 #
cone-surface $-1 45.283761826205435 9.2267011375724373 6.0024995327482635 -0.80901700255871778 0 -0.5877852410284794 0.14694631025711985 0 -0.20225425063967944 1 I I -0.70710678118654746 0.70710678118654746 0.25 forward I I I I #
loop $-1 $-1 $177 $44 #
coedge $-1 $111 $111 $178 $179 reversed $70 $-1 #
face $-1 $180 $181 $27 $-1 $182 reversed single #
loop $-1 $-1 $183 $72 #
plane-surface $-1 0 -26.062779709946636 0 0 1 0 0 0 1 forward_v I I I I #
coedge $-1 $184 $185 $186 $187 forward $73 $-1 #
coedge $-1 $188 $75 $189 $190 forward $46 $-1 #
coedge $-1 $75 $188 $191 $192 forward $46 $-1 #
coedge $-1 $193 $194 $75 $119 reversed $195 $-1 #
edge $-1 $196 -26.062779709946636 $197 26.062779709946636 $118 $198 forward 7 unknown #
face $-1 $199 $200 $28 $-1 $201 reversed single #
loop $-1 $-1 $202 $76 #
plane-surface $-1 -49.094515823847161 0 0 1 0 0 0 0 -1 forward_v I I I I #
coedge $-1 $203 $204 $205 $206 reversed $77 $-1 #
coedge $-1 $207 $79 $208 $209 reversed $49 $-1 #
coedge $-1 $79 $207 $203 $210 forward $49 $-1 #
coedge $-1 $205 $211 $79 $127 forward $212 $-1 #
edge $-1 $213 -15.085102329432571 $214 -6.8702524315955582 $126 $215 forward 7 unknown #
face $-1 $216 $217 $29 $-1 $218 reversed single #
loop $-1 $-1 $219 $80 #
plane-surface $-1 0 0 10.222126521205791 0 0 1 1 0 0 forward_v I I I I #
coedge $-1 $220 $221 $222 $223 reversed $81 $-1 #
coedge $-1 $224 $83 $220 $225 forward $52 $-1 #
coedge $-1 $83 $224 $226 $227 reversed $52 $-1 #
coedge $-1 $228 $229 $83 $135 forward $217 $-1 #
edge $-1 $230 6.8702524315955582 $231 15.085102329432571 $134 $232 forward 7 unknown #
face $-1 $233 $234 $30 $-1 $235 forward single #
loop $-1 $-1 $236 $84 #
plane-surface $-1 70.817048258214896 -13.60106417599852 141.22645436133433 0 1 0 0.80901700255871778 0 0.5877852410284794 forward_v I I I I #
coedge $-1 $237 $238 $239 $240 reversed $85 $-1 #
coedge $-1 $141 $87 $241 $242 reversed $55 $-1 #
coedge $-1 $87 $140 $237 $243 reversed $55 $-1 #
coedge $-1 $239 $244 $87 $143 forward $234 $-1 #
edge $-1 $245 -13.685991694739712 $246 -9.2204203372187052 $142 $247 forward 7 unknown #
loop $-1 $-1 $149 $88 #
plane-surface $-1 -8.6195478095458355 -10.115179324975585 83.512390727941337 0.80901700255871778 0 0.5877852410284794 0.5877852410284794 0 -0.80901700255871778 forward_v I I I I #
loop $-1 $-1 $248 $57 #
coedge $-1 $147 $147 $148 $249 reversed $89 $-1 #
coedge $-1 $148 $148 $147 $249 forward $91 $-1 #
coedge $-1 $149 $149 $92 $150 forward $144 $-1 #
edge $-1 $250 0 $250 6.2831853071796004 $149 $251 forward 7 unknown #
loop $-1 $-1 $156 $93 #
plane-surface $-1 -8.6195478095458355 -10.115179324975585 83.512390727941337 0.80901700255871778 0 0.5877852410284794 0.5877852410284794 0 -0.80901700255871778 forward_v I I I I #
loop $-1 $-1 $252 $60 #
coedge $-1 $154 $154 $155 $253 reversed $94 $-1 #
coedge $-1 $155 $155 $154 $253 forward $96 $-1 #
coedge $-1 $156 $156 $97 $157 forward $151 $-1 #
edge $-1 $254 0 $254 6.2831853071796004 $156 $255 forward 7 unknown #
face $-1 $256 $257 $33 $-1 $258 reversed single #
loop $-1 $-1 $259 $98 #
plane-surface $-1 70.817048258214896 4.2468656361111039 141.22645436133433 0 1 0 0.80901700255871778 0 0.5877852410284794 forward_v I I I I #
coedge $-1 $260 $261 $262 $263 reversed $99 $-1 #
coedge $-1 $163 $101 $264 $265 reversed $64 $-1 #
coedge $-1 $101 $162 $260 $266 reversed $64 $-1 #
coedge $-1 $262 $267 $101 $165 forward $268 $-1 #
edge $-1 $269 -13.685991694739712 $270 -9.2204203372187052 $164 $271 forward 7 unknown #
loop $-1 $-1 $171 $102 #
plane-surface $-1 -8.6195478095458355 7.7327504871340373 83.512390727941337 0.80901700255871778 0 0.5877852410284794 0.5877852410284794 0 -0.80901700255871778 forward_v I I I I #
loop $-1 $-1 $272 $66 #
coedge $-1 $169 $169 $170 $273 reversed $103 $-1 #
coedge $-1 $170 $170 $169 $273 forward $105 $-1 #
coedge $-1 $171 $171 $106 $172 forward $166 $-1 #
edge $-1 $274 0 $274 6.2831853071796004 $171 $275 forward 7 unknown #
loop $-1 $-1 $178 $107 #
plane-surface $-1 -8.6195478095458355 7.7327504871340373 83.512390727941337 0.80901700255871778 0 0.5877852410284794 0.5877852410284794 0 -0.80901700255871778 forward_v I I I I #
loop $-1 $-1 $276 $69 #
coedge $-1 $176 $176 $177 $277 reversed $108 $-1 #
coedge $-1 $177 $177 $176 $277 forward $110 $-1 #
coedge $-1 $178 $178 $111 $179 forward $173 $-1 #
edge $-1 $278 0 $278 6.2831853071796004 $178 $279 forward 7 unknown #
face $-1 $280 $281 $27 $-1 $282 reversed single #
loop $-1 $-1 $283 $112 #
plane-surface $-1 -49.094515823847161 0 0 1 0 0 0 0 -1 forward_v I I I I #
coedge $-1 $284 $191 $285 $286 forward $113 $-1 #
coedge $-1 $287 $115 $284 $288 forward $73 $-1 #
coedge $-1 $115 $287 $289 $290 forward $73 $-1 #
coedge $-1 $194 $193 $115 $187 reversed $195 $-1 #
edge $-1 $291 -26.062779709946636 $292 26.062779709946636 $186 $293 forward 7 unknown #
coedge $-1 $117 $116 $294 $295 forward $46 $-1 #
coedge $-1 $296 $297 $116 $190 reversed $281 $-1 #
edge $-1 $197 -49.094515823847161 $298 49.094515823847161 $189 $299 forward 7 unknown #
coedge $-1 $183 $300 $117 $192 reversed $113 $-1 #
edge $-1 $301 -49.094515823847161 $196 49.094515823847161 $191 $302 forward 7 unknown #
coedge $-1 $186 $118 $300 $303 forward $195 $-1 #
coedge $-1 $118 $186 $296 $304 reversed $195 $-1 #
loop $-1 $-1 $193 $280 #
vertex $-1 $119 $305 #
vertex $-1 $119 $306 #
straight-curve $-1 49.094515823847161 0 10.222126521205791 0 1 0 I I #
face $-1 $307 $308 $28 $-1 $309 forward single #
loop $-1 $-1 $208 $120 #
plane-surface $-1 0 -26.062779709946636 0 0 1 0 0 0 1 forward_v I I I I #
coedge $-1 $310 $311 $312 $313 forward $121 $-1 #
coedge $-1 $312 $123 $125 $210 reversed $77 $-1 #
coedge $-1 $123 $312 $314 $315 reversed $77 $-1 #
coedge $-1 $316 $126 $123 $206 forward $212 $-1 #
edge $-1 $214 1.515037883965876 $317 6.3097383861485685 $205 $318 forward 7 unknown #
coedge $-1 $125 $124 $310 $319 reversed $49 $-1 #
coedge $-1 $320 $321 $124 $209 forward $200 $-1 #
edge $-1 $322 -49.094515823847161 $213 49.094515823847161 $208 $323 forward 7 unknown #
edge $-1 $324 -49.094515823847161 $214 49.094515823847161 $203 $325 forward 7 unknown #
coedge $-1 $126 $316 $320 $326 forward $212 $-1 #
loop $-1 $-1 $205 $307 #
vertex $-1 $209 $327 #
vertex $-1 $127 $328 #
straight-curve $-1 49.094515823847161 -10.977677380514065 5.4274260190230983 0 1 0 I I #
face $-1 $329 $330 $29 $-1 $331 reversed single #
loop $-1 $-1 $229 $128 #
plane-surface $-1 49.094515823847161 0 0 -1 0 0 0 0 1 forward_v I I I I #
coedge $-1 $332 $333 $221 $334 forward $129 $-1 #
coedge $-1 $335 $131 $132 $225 reversed $81 $-1 #
coedge $-1 $131 $335 $219 $334 reversed $81 $-1 #
coedge $-1 $336 $337 $131 $223 forward $330 $-1 #
edge $-1 $338 1.515037883965876 $339 6.3097383861485685 $222 $340 forward 7 unknown #
coedge $-1 $133 $132 $337 $341 reversed $52 $-1 #
edge $-1 $230 -49.094515823847161 $338 49.094515823847161 $220 $342 forward 7 unknown #
coedge $-1 $343 $344 $133 $227 forward $345 $-1 #
edge $-1 $231 -49.094515823847161 $346 49.094515823847161 $226 $347 forward 7 unknown #
coedge $-1 $348 $134 $344 $349 reversed $217 $-1 #
coedge $-1 $134 $348 $335 $350 forward $217 $-1 #
vertex $-1 $135 $351 #
vertex $-1 $227 $352 #
straight-curve $-1 49.094515823847161 10.977677380514065 5.4274260190230983 0 1 0 I I #
face $-1 $-1 $353 $30 $-1 $354 reversed single #
loop $-1 $-1 $142 $136 #
plane-surface $-1 0 0 10.222126521205791 0 0 1 1 0 0 forward_v I I I I #
coedge $-1 $355 $356 $357 $358 reversed $137 $-1 #
coedge $-1 $359 $139 $141 $243 forward $85 $-1 #
coedge $-1 $139 $359 $355 $360 forward $85 $-1 #
coedge $-1 $357 $142 $139 $240 forward $234 $-1 #
edge $-1 $246 1.5717048114648593 $361 8.5434745135107271 $239 $362 forward 7 unknown #
coedge $-1 $363 $364 $140 $242 forward $353 $-1 #
edge $-1 $365 -66.537432520486561 $245 -60.391100659461372 $241 $366 forward 7 unknown #
edge $-1 $246 90.591747732046215 $365 98.189031647694307 $141 $367 forward 7 unknown #
coedge $-1 $142 $357 $363 $368 forward $234 $-1 #
vertex $-1 $242 $369 #
vertex $-1 $143 $370 #
straight-curve $-1 35.408524129107448 -6.629294473952652 10.222126521205794 -1 0 0 I I #
coedge $-1 $248 $248 $-1 $371 reversed $146 $-1 #
edge $-1 $372 0 $372 6.2831853071796004 $147 $373 forward 7 unknown #
vertex $-1 $150 $374 #
ellipse-curve $-1 46.861730145086661 -11.609129975413985 7.1489605906931919 0.80901700255871778 0 0.5877852410284794 0.2938926205142397 0 -0.40450850127935889 1 I I #
coedge $-1 $252 $252 $-1 $375 reversed $153 $-1 #
edge $-1 $376 0 $376 6.2831853071796004 $154 $377 forward 7 unknown #
vertex $-1 $157 $378 #
ellipse-curve $-1 46.861730145086661 -8.6212286745371856 7.1489605906931919 0.80901700255871778 0 0.5877852410284794 0.2938926205142397 0 -0.40450850127935889 1 I I #
face $-1 $-1 $268 $33 $-1 $379 forward single #
loop $-1 $-1 $380 $158 #
plane-surface $-1 49.094515823847161 0 0 -1 0 0 0 0 1 forward_v I I I I #
coedge $-1 $381 $382 $383 $384 reversed $159 $-1 #
coedge $-1 $385 $161 $163 $266 forward $99 $-1 #
coedge $-1 $161 $385 $381 $386 forward $99 $-1 #
coedge $-1 $383 $164 $161 $263 forward $268 $-1 #
edge $-1 $270 -7.352260094589953 $387 -0.38049039254408523 $262 $388 forward 7 unknown #
coedge $-1 $389 $390 $162 $265 forward $257 $-1 #
edge $-1 $391 -66.537432520486561 $269 -60.391100659461372 $264 $392 forward 7 unknown #
edge $-1 $270 90.591747732046215 $391 98.189031647694307 $163 $393 forward 7 unknown #
coedge $-1 $164 $383 $389 $394 forward $268 $-1 #
loop $-1 $-1 $383 $256 #
vertex $-1 $265 $395 #
vertex $-1 $165 $396 #
straight-curve $-1 35.408524129107448 11.218635338156972 10.222126521205794 -1 0 0 I I #
coedge $-1 $272 $272 $-1 $397 reversed $168 $-1 #
edge $-1 $398 0 $398 6.2831853071796004 $169 $399 forward 7 unknown #
vertex $-1 $172 $400 #
ellipse-curve $-1 46.861730145086661 6.2387998366956374 7.1489605906931919 0.80901700255871778 0 0.5877852410284794 0.2938926205142397 0 -0.40450850127935889 1 I I #
coedge $-1 $276 $276 $-1 $401 reversed $175 $-1 #
edge $-1 $402 0 $402 6.2831853071796004 $176 $403 forward 7 unknown #
vertex $-1 $179 $404 #
ellipse-curve $-1 46.861730145086661 9.2267011375724373 7.1489605906931919 0.80901700255871778 0 0.5877852410284794 0.2938926205142397 0 -0.40450850127935889 1 I I #
face $-1 $-1 $195 $27 $-1 $405 reversed single #
loop $-1 $-1 $296 $180 #
plane-surface $-1 0 26.062779709946636 0 0 -1 0 0 0 -1 forward_v I I I I #
coedge $-1 $406 $294 $297 $407 forward $181 $-1 #
coedge $-1 $300 $183 $184 $288 reversed $113 $-1 #
coedge $-1 $294 $406 $183 $286 reversed $181 $-1 #
edge $-1 $301 -10.222126521205791 $408 10.222126521205791 $285 $409 forward 7 unknown #
coedge $-1 $185 $184 $406 $410 forward $73 $-1 #
edge $-1 $292 -49.094515823847161 $408 49.094515823847161 $284 $411 forward 7 unknown #
coedge $-1 $297 $296 $185 $290 reversed $281 $-1 #
edge $-1 $412 -49.094515823847161 $291 49.094515823847161 $289 $413 forward 7 unknown #
vertex $-1 $187 $414 #
vertex $-1 $303 $415 #
straight-curve $-1 49.094515823847161 0 -10.222126521205791 0 -1 0 I I #
coedge $-1 $283 $285 $188 $295 reversed $181 $-1 #
edge $-1 $298 -26.062779709946636 $301 26.062779709946636 $294 $416 forward 7 unknown #
coedge $-1 $289 $189 $194 $304 forward $281 $-1 #
coedge $-1 $189 $289 $283 $407 reversed $281 $-1 #
vertex $-1 $190 $417 #
straight-curve $-1 0 26.062779709946636 10.222126521205791 -1 0 0 I I #
coedge $-1 $191 $284 $193 $303 reversed $113 $-1 #
vertex $-1 $295 $418 #
straight-curve $-1 0 -26.062779709946636 10.222126521205791 1 0 0 I I #
edge $-1 $196 -10.222126521205791 $292 10.222126521205791 $193 $419 forward 7 unknown #
edge $-1 $197 -10.222126521205791 $291 10.222126521205791 $194 $420 forward 7 unknown #
point $-1 49.094515823847161 -26.062779709946636 10.222126521205791 #
point $-1 49.094515823847161 26.062779709946636 10.222126521205791 #
face $-1 $-1 $212 $28 $-1 $421 reversed single #
loop $-1 $-1 $314 $199 #
plane-surface $-1 0 0 10.222126521205791 0 0 1 1 0 0 forward_v I I I I #
coedge $-1 $422 $202 $207 $319 forward $121 $-1 #
coedge $-1 $202 $422 $423 $424 reversed $121 $-1 #
coedge $-1 $204 $203 $202 $313 reversed $77 $-1 #
edge $-1 $425 -6.3097383861485685 $324 -1.515037883965876 $202 $426 forward 7 unknown #
coedge $-1 $423 $427 $204 $315 forward $308 $-1 #
edge $-1 $317 -49.094515823847161 $425 49.094515823847161 $314 $428 forward 7 unknown #
coedge $-1 $211 $205 $427 $429 reversed $212 $-1 #
vertex $-1 $206 $430 #
straight-curve $-1 49.094515823847161 -17.847929812109623 3.9123881350572223 0 0 1 I I #
edge $-1 $324 6.8702524315955582 $322 15.085102329432571 $310 $431 forward 7 unknown #
coedge $-1 $432 $208 $211 $326 reversed $200 $-1 #
coedge $-1 $208 $432 $422 $433 forward $200 $-1 #
vertex $-1 $209 $434 #
straight-curve $-1 0 -26.062779709946636 5.4274260190230983 1 0 0 I I #
vertex $-1 $319 $435 #
straight-curve $-1 0 -17.847929812109623 5.4274260190230983 1 0 0 I I #
edge $-1 $436 -10.222126521205791 $213 -5.4274260190230983 $211 $437 forward 7 unknown #
point $-1 49.094515823847161 -26.062779709946636 5.4274260190230983 #
point $-1 49.094515823847161 -17.847929812109623 5.4274260190230983 #
face $-1 $-1 $345 $29 $-1 $438 reversed single #
loop $-1 $-1 $222 $216 #
plane-surface $-1 -49.094515823847161 0 0 1 0 0 0 0 -1 forward_v I I I I #
coedge $-1 $439 $219 $348 $440 forward $129 $-1 #
coedge $-1 $219 $439 $336 $441 forward $129 $-1 #
edge $-1 $339 -49.094515823847161 $442 49.094515823847161 $219 $443 forward 7 unknown #
coedge $-1 $221 $220 $229 $350 reversed $81 $-1 #
coedge $-1 $444 $222 $333 $441 reversed $330 $-1 #
coedge $-1 $222 $444 $224 $341 forward $330 $-1 #
vertex $-1 $341 $445 #
vertex $-1 $223 $446 #
straight-curve $-1 -49.094515823847161 17.847929812109623 3.9123881350572223 0 0 1 I I #
edge $-1 $346 -15.085102329432571 $338 -6.8702524315955582 $337 $447 forward 7 unknown #
straight-curve $-1 0 17.847929812109623 5.4274260190230983 -1 0 0 I I #
coedge $-1 $448 $226 $444 $449 reversed $345 $-1 #
coedge $-1 $226 $448 $228 $349 forward $345 $-1 #
loop $-1 $-1 $226 $329 #
vertex $-1 $227 $450 #
straight-curve $-1 0 26.062779709946636 5.4274260190230983 -1 0 0 I I #
coedge $-1 $229 $228 $332 $440 reversed $217 $-1 #
edge $-1 $451 -10.222126521205791 $231 -5.4274260190230983 $228 $452 forward 7 unknown #
edge $-1 $442 -6.3097383861485685 $230 -1.515037883965876 $229 $453 forward 7 unknown #
point $-1 49.094515823847161 17.847929812109623 5.4274260190230983 #
point $-1 49.094515823847161 26.062779709946636 5.4274260190230983 #
loop $-1 $-1 $241 $233 #
plane-surface $-1 49.094515823847161 0 0 -1 0 0 0 0 1 forward_v I I I I #
coedge $-1 $356 $236 $238 $360 reversed $137 $-1 #
coedge $-1 $236 $355 $454 $455 reversed $137 $-1 #
coedge $-1 $244 $239 $236 $358 forward $234 $-1 #
edge $-1 $361 9.2204203372187052 $456 13.685991694739712 $357 $457 forward 7 unknown #
coedge $-1 $238 $237 $364 $458 reversed $85 $-1 #
edge $-1 $459 -98.189031647694307 $361 -90.591747732046215 $355 $460 forward 7 unknown #
vertex $-1 $240 $461 #
straight-curve $-1 44.628944466326146 -5.0575896624877927 10.222126521205794 0 -1 0 I I #
coedge $-1 $454 $241 $244 $368 reversed $353 $-1 #
coedge $-1 $241 $454 $359 $458 forward $353 $-1 #
vertex $-1 $242 $462 #
straight-curve $-1 49.094515823847161 -6.629294473952652 70.613227180667167 0 0 1 I I #
straight-curve $-1 -8.6195478095458355 -6.629294473952652 83.512390727941337 0.5877852410284794 0 -0.80901700255871778 I I #
edge $-1 $456 -13.60106417599852 $245 -6.629294473952652 $363 $463 forward 7 unknown #
point $-1 49.094515823847161 -6.629294473952652 10.222126521205791 #
point $-1 44.628944466326153 -6.629294473952652 10.222126521205794 #
edge $-1 $464 1 $464 0 $248 $-1 forward 7 unknown #
vertex $-1 $249 $465 #
ellipse-curve $-1 45.486016076845111 -11.609129975413985 6.1494458430053838 0.80901700255871778 0 0.5877852410284794 0.2938926205142397 0 -0.40450850127935889 1 I I #
point $-1 47.155622765600889 -11.609129975413985 6.74445208941383 #
edge $-1 $466 1 $466 0 $252 $-1 forward 7 unknown #
vertex $-1 $253 $467 #
ellipse-curve $-1 45.486016076845111 -8.6212286745371856 6.1494458430053838 0.80901700255871778 0 0.5877852410284794 0.2938926205142397 0 -0.40450850127935889 1 I I #
point $-1 47.155622765600889 -8.6212286745371856 6.74445208941383 #
plane-surface $-1 0 0 10.222126521205791 0 0 1 1 0 0 forward_v I I I I #
coedge $-1 $390 $389 $382 $468 forward $257 $-1 #
coedge $-1 $382 $259 $261 $386 reversed $159 $-1 #
coedge $-1 $259 $381 $380 $468 reversed $159 $-1 #
coedge $-1 $267 $262 $259 $384 forward $268 $-1 #
edge $-1 $387 9.2204203372187052 $469 13.685991694739712 $383 $470 forward 7 unknown #
coedge $-1 $261 $260 $390 $471 reversed $99 $-1 #
edge $-1 $472 -98.189031647694307 $387 -90.591747732046215 $381 $473 forward 7 unknown #
vertex $-1 $263 $474 #
straight-curve $-1 44.628944466326146 3.8663752435670187 10.222126521205794 0 -1 0 I I #
coedge $-1 $380 $264 $267 $394 reversed $257 $-1 #
coedge $-1 $264 $380 $385 $471 forward $257 $-1 #
vertex $-1 $265 $475 #
straight-curve $-1 49.094515823847161 11.218635338156972 70.613227180667167 0 0 1 I I #
straight-curve $-1 -8.6195478095458355 11.218635338156972 83.512390727941337 0.5877852410284794 0 -0.80901700255871778 I I #
edge $-1 $469 4.2468656361111039 $269 11.218635338156972 $389 $476 forward 7 unknown #
point $-1 49.094515823847161 11.218635338156972 10.222126521205791 #
point $-1 44.628944466326153 11.218635338156972 10.222126521205794 #
edge $-1 $477 1 $477 0 $272 $-1 forward 7 unknown #
vertex $-1 $273 $478 #
ellipse-curve $-1 45.486016076845111 6.2387998366956374 6.1494458430053838 0.80901700255871778 0 0.5877852410284794 0.2938926205142397 0 -0.40450850127935889 1 I I #
point $-1 47.155622765600889 6.2387998366956374 6.74445208941383 #
edge $-1 $479 1 $479 0 $276 $-1 forward 7 unknown #
vertex $-1 $277 $480 #
ellipse-curve $-1 45.486016076845111 9.2267011375724373 6.1494458430053838 0.80901700255871778 0 0.5877852410284794 0.2938926205142397 0 -0.40450850127935889 1 I I #
point $-1 47.155622765600889 9.2267011375724373 6.74445208941383 #
plane-surface $-1 49.094515823847161 0 0 -1 0 0 0 0 1 forward_v I I I I #
coedge $-1 $285 $283 $287 $410 reversed $181 $-1 #
edge $-1 $298 -10.222126521205791 $412 10.222126521205791 $297 $481 forward 7 unknown #
vertex $-1 $410 $482 #
straight-curve $-1 -49.094515823847161 -26.062779709946636 0 0 0 -1 I I #
edge $-1 $408 -26.062779709946636 $412 26.062779709946636 $406 $483 forward 7 unknown #
straight-curve $-1 0 -26.062779709946636 -10.222126521205791 -1 0 0 I I #
vertex $-1 $290 $484 #
straight-curve $-1 0 26.062779709946636 -10.222126521205791 1 0 0 I I #
point $-1 49.094515823847161 26.062779709946636 -10.222126521205791 #
point $-1 49.094515823847161 -26.062779709946636 -10.222126521205791 #
straight-curve $-1 -49.094515823847161 0 10.222126521205791 0 -1 0 I I #
point $-1 -49.094515823847161 26.062779709946636 10.222126521205791 #
point $-1 -49.094515823847161 -26.062779709946636 10.222126521205791 #
straight-curve $-1 49.094515823847161 -26.062779709946636 0 0 0 -1 I I #
straight-curve $-1 49.094515823847161 26.062779709946636 0 0 0 -1 I I #
plane-surface $-1 49.094515823847161 0 0 -1 0 0 0 0 1 forward_v I I I I #
coedge $-1 $311 $310 $321 $433 reversed $121 $-1 #
coedge $-1 $485 $314 $311 $424 forward $308 $-1 #
edge $-1 $425 17.847929812109623 $486 26.062779709946636 $311 $487 forward 7 unknown #
vertex $-1 $424 $488 #
straight-curve $-1 -49.094515823847161 -17.847929812109623 3.9123881350572223 0 0 -1 I I #
coedge $-1 $314 $485 $316 $429 forward $308 $-1 #
straight-curve $-1 0 -17.847929812109623 10.222126521205791 -1 0 0 I I #
edge $-1 $436 -26.062779709946636 $317 -17.847929812109623 $316 $489 forward 7 unknown #
point $-1 49.094515823847161 -17.847929812109623 10.222126521205791 #
straight-curve $-1 -49.094515823847161 -10.977677380514065 5.4274260190230983 0 -1 0 I I #
coedge $-1 $321 $320 $485 $490 reversed $200 $-1 #
edge $-1 $486 -10.222126521205791 $322 -5.4274260190230983 $422 $491 forward 7 unknown #
point $-1 -49.094515823847161 -26.062779709946636 5.4274260190230983 #
point $-1 -49.094515823847161 -17.847929812109623 5.4274260190230983 #
vertex $-1 $429 $492 #
straight-curve $-1 49.094515823847161 -26.062779709946636 0 0 0 -1 I I #
plane-surface $-1 0 26.062779709946636 0 0 -1 0 0 0 -1 forward_v I I I I #
coedge $-1 $333 $332 $448 $493 forward $129 $-1 #
edge $-1 $442 17.847929812109623 $451 26.062779709946636 $348 $494 forward 7 unknown #
edge $-1 $495 -26.062779709946636 $339 -17.847929812109623 $336 $496 forward 7 unknown #
vertex $-1 $440 $497 #
straight-curve $-1 0 17.847929812109623 10.222126521205791 1 0 0 I I #
coedge $-1 $337 $336 $343 $449 forward $330 $-1 #
point $-1 -49.094515823847161 17.847929812109623 5.4274260190230983 #
point $-1 -49.094515823847161 17.847929812109623 10.222126521205791 #
straight-curve $-1 -49.094515823847161 10.977677380514065 5.4274260190230983 0 -1 0 I I #
coedge $-1 $344 $343 $439 $493 reversed $345 $-1 #
edge $-1 $495 -10.222126521205791 $346 -5.4274260190230983 $343 $498 forward 7 unknown #
point $-1 -49.094515823847161 26.062779709946636 5.4274260190230983 #
vertex $-1 $440 $499 #
straight-curve $-1 49.094515823847161 26.062779709946636 0 0 0 -1 I I #
straight-curve $-1 49.094515823847161 17.847929812109623 3.9123881350572223 0 0 -1 I I #
coedge $-1 $364 $363 $356 $455 forward $353 $-1 #
edge $-1 $456 60.391100659461372 $459 66.537432520486561 $454 $500 forward 7 unknown #
vertex $-1 $368 $501 #
straight-curve $-1 35.408524129107448 -13.60106417599852 10.222126521205794 1 0 0 I I #
edge $-1 $459 -8.5434745135107271 $365 -1.5717048114648593 $364 $502 forward 7 unknown #
vertex $-1 $458 $503 #
straight-curve $-1 -8.6195478095458355 -13.60106417599852 83.512390727941337 -0.5877852410284794 0 0.80901700255871778 I I #
point $-1 44.628944466326153 -13.60106417599852 10.222126521205794 #
point $-1 49.094515823847161 -6.629294473952652 4.0757946601806054 #
straight-curve $-1 49.094515823847161 0 10.222126521205791 0 1 0 I I #
vertex $-1 $371 $504 #
point $-1 45.779908697359353 -11.609129975413985 5.7449373417260245 #
vertex $-1 $375 $505 #
point $-1 45.779908697359353 -8.6212286745371856 5.7449373417260245 #
edge $-1 $469 60.391100659461372 $472 66.537432520486561 $380 $506 forward 7 unknown #
vertex $-1 $394 $507 #
straight-curve $-1 35.408524129107448 4.2468656361111039 10.222126521205794 1 0 0 I I #
edge $-1 $472 0.38049039254408523 $391 7.352260094589953 $390 $508 forward 7 unknown #
vertex $-1 $471 $509 #
straight-curve $-1 -8.6195478095458355 4.2468656361111039 83.512390727941337 -0.5877852410284794 0 0.80901700255871778 I I #
point $-1 44.628944466326153 4.2468656361111039 10.222126521205794 #
point $-1 49.094515823847161 11.218635338156972 4.0757946601806054 #
straight-curve $-1 49.094515823847161 0 10.222126521205791 0 1 0 I I #
vertex $-1 $397 $510 #
point $-1 45.779908697359353 6.2387998366956374 5.7449373417260245 #
vertex $-1 $401 $511 #
point $-1 45.779908697359353 9.2267011375724373 5.7449373417260245 #
straight-curve $-1 -49.094515823847161 26.062779709946636 0 0 0 -1 I I #
point $-1 -49.094515823847161 -26.062779709946636 -10.222126521205791 #
straight-curve $-1 -49.094515823847161 0 -10.222126521205791 0 1 0 I I #
point $-1 -49.094515823847161 26.062779709946636 -10.222126521205791 #
coedge $-1 $427 $423 $432 $490 forward $308 $-1 #
vertex $-1 $424 $512 #
straight-curve $-1 -49.094515823847161 0 10.222126521205791 0 -1 0 I I #
point $-1 -49.094515823847161 -17.847929812109623 10.222126521205791 #
straight-curve $-1 49.094515823847161 0 10.222126521205791 0 1 0 I I #
edge $-1 $486 -49.094515823847161 $436 49.094515823847161 $432 $513 forward 7 unknown #
straight-curve $-1 -49.094515823847161 -26.062779709946636 0 0 0 -1 I I #
point $-1 49.094515823847161 -26.062779709946636 10.222126521205791 #
edge $-1 $451 -49.094515823847161 $495 49.094515823847161 $448 $514 forward 7 unknown #
straight-curve $-1 49.094515823847161 0 10.222126521205791 0 1 0 I I #
vertex $-1 $493 $515 #
straight-curve $-1 -49.094515823847161 0 10.222126521205791 0 -1 0 I I #
point $-1 49.094515823847161 17.847929812109623 10.222126521205791 #
straight-curve $-1 -49.094515823847161 26.062779709946636 0 0 0 -1 I I #
point $-1 49.094515823847161 26.062779709946636 10.222126521205791 #
straight-curve $-1 49.094515823847161 -13.60106417599852 70.613227180667167 0 0 -1 I I #
point $-1 49.094515823847161 -13.60106417599852 10.222126521205791 #
straight-curve $-1 49.094515823847161 -5.0575896624877927 4.0757946601805983 0 1 0 I I #
point $-1 49.094515823847161 -13.60106417599852 4.0757946601806054 #
point $-1 45.081507575565759 -11.609129975413985 5.8555532224911433 #
point $-1 45.081507575565759 -8.6212286745371856 5.8555532224911433 #
straight-curve $-1 49.094515823847161 4.2468656361111039 70.613227180667167 0 0 -1 I I #
point $-1 49.094515823847161 4.2468656361111039 10.222126521205791 #
straight-curve $-1 49.094515823847161 3.8663752435670187 4.0757946601805983 0 1 0 I I #
point $-1 49.094515823847161 4.2468656361111039 4.0757946601806054 #
point $-1 45.081507575565759 6.2387998366956374 5.8555532224911433 #
point $-1 45.081507575565759 9.2267011375724373 5.8555532224911433 #
point $-1 -49.094515823847161 -26.062779709946636 10.222126521205791 #
straight-curve $-1 0 -26.062779709946636 10.222126521205791 1 0 0 I I #
straight-curve $-1 0 26.062779709946636 10.222126521205791 -1 0 0 I I #
point $-1 -49.094515823847161 26.062779709946636 10.222126521205791 #
End-of-ACIS-data 