500 0 7 0           
7 Unknown 11 ACIS 5.0 NT 24 Fri Mar 26 18:11:52 1999 
-1 9.9999999999999995e-007 1e-010 
body $-1 $7 $-1 $8 #
body $-1 $9 $-1 $10 #
body $-1 $11 $-1 $12 #
body $-1 $13 $-1 $14 #
body $-1 $15 $-1 $16 #
body $-1 $17 $-1 $18 #
body $-1 $19 $-1 $20 #
lump $-1 $-1 $21 $0 #
transform $-1 1 0 0 0 1 0 0 0 1 63.356425672170168 41.231078727864123 9.54290529997402 1 rotate no_reflect no_shear #
lump $-1 $-1 $22 $1 #
transform $-1 1 0 0 0 1 0 0 0 1 63.356425672170168 41.231078727864123 9.54290529997402 1 rotate no_reflect no_shear #
lump $-1 $-1 $23 $2 #
transform $-1 1 0 0 0 1 0 0 0 1 63.356425672170168 41.231078727864123 9.54290529997402 1 rotate no_reflect no_shear #
lump $-1 $-1 $24 $3 #
transform $-1 1 0 0 0 1 0 0 0 1 63.356425672170168 41.231078727864123 9.54290529997402 1 rotate no_reflect no_shear #
lump $-1 $-1 $25 $4 #
transform $-1 1 0 0 0 1 0 0 0 1 63.356425672170168 41.231078727864123 9.54290529997402 1 rotate no_reflect no_shear #
lump $-1 $-1 $26 $5 #
transform $-1 1 0 0 0 1 0 0 0 1 63.356425672170168 41.231078727864123 9.54290529997402 1 rotate no_reflect no_shear #
lump $-1 $-1 $27 $6 #
transform $-1 1 0 0 0 1 0 0 0 1 63.356425672170168 41.231078727864123 9.54290529997402 1 rotate no_reflect no_shear #
shell $-1 $-1 $-1 $28 $-1 $7 #
shell $-1 $-1 $-1 $29 $-1 $9 #
shell $-1 $-1 $-1 $30 $-1 $11 #
shell $-1 $-1 $-1 $31 $-1 $13 #
shell $-1 $-1 $-1 $32 $-1 $15 #
shell $-1 $-1 $-1 $33 $-1 $17 #
shell $-1 $-1 $-1 $34 $-1 $19 #
face $-1 $35 $36 $21 $-1 $37 forward single #
face $-1 $38 $39 $22 $-1 $40 forward single #
face $-1 $41 $42 $23 $-1 $43 reversed single #
face $-1 $44 $45 $24 $-1 $46 forward single #
face $-1 $47 $48 $25 $-1 $49 reversed single #
face $-1 $50 $51 $26 $-1 $52 forward single #
face $-1 $53 $54 $27 $-1 $55 forward single #
face $-1 $56 $57 $21 $-1 $58 reversed single #
loop $-1 $-1 $59 $28 #
plane-surface $-1 0 0 9.54290529997402 0 0 1 1 0 0 forward_v I I I I #
face $-1 $60 $61 $22 $-1 $62 reversed single #
loop $-1 $-1 $63 $29 #
plane-surface $-1 0 -41.231078727864123 0 0 1 0 0 0 1 forward_v I I I I #
face $-1 $64 $65 $23 $-1 $66 reversed single #
loop $-1 $-1 $67 $30 #
plane-surface $-1 72.734980631442397 16.510222646773915 184.37914401659486 0 -1 0 -0.74314483375859142 0 -0.66913059716165679 forward_v I I I I #
face $-1 $68 $69 $24 $-1 $70 forward single #
loop $-1 $71 $72 $31 #
cone-surface $-1 60.466128486222189 12.414695796467164 6.5508327614800335 -0.74314483375859142 0 -0.66913059716165679 0.66913059716165679 0 -0.74314483375859142 1 I I 0 1 1 forward I I I I #
face $-1 $73 $74 $25 $-1 $75 reversed single #
loop $-1 $-1 $76 $32 #
plane-surface $-1 -141.36864765185959 1.4683921632422035 105.73824582320863 0 1 0 -0.61566148304635926 0 0.78801074757464917 forward_v I I I I #
face $-1 $77 $78 $26 $-1 $79 forward single #
loop $-1 $80 $81 $33 #
cone-surface $-1 -60.59504832056043 4.2132352061679157 7.1751451211283994 0.61566148304635926 0 -0.78801074757464917 0.78801074757464917 0 0.61566148304635926 1 I I 0 1 1 forward I I I I #
face $-1 $82 $83 $27 $-1 $84 forward single #
loop $-1 $85 $86 $34 #
cone-surface $-1 -60.59504832056043 8.3304997705564929 7.1751451211283994 0.61566148304635926 0 -0.78801074757464917 0.78801074757464917 0 0.61566148304635926 1 I I 0 1 1 forward I I I I #
face $-1 $87 $88 $21 $-1 $89 reversed single #
loop $-1 $-1 $90 $35 #
plane-surface $-1 0 0 -9.54290529997402 0 0 1 1 0 0 forward_v I I I I #
coedge $-1 $91 $92 $93 $94 forward $36 $-1 #
face $-1 $95 $96 $22 $-1 $97 reversed single #
loop $-1 $-1 $98 $38 #
plane-surface $-1 0 0 -9.54290529997402 0 0 1 1 0 0 forward_v I I I I #
coedge $-1 $99 $100 $101 $102 forward $39 $-1 #
face $-1 $103 $104 $23 $-1 $105 reversed single #
loop $-1 $-1 $106 $41 #
plane-surface $-1 -21.431020215924519 12.414695796467164 99.591698128500155 0.74314483375859142 0 0.66913059716165679 0.66913059716165679 0 -0.74314483375859142 forward_v I I I I #
coedge $-1 $107 $108 $109 $110 reversed $42 $-1 #
face $-1 $-1 $111 $24 $-1 $112 forward single #
loop $-1 $113 $114 $44 #
cone-surface $-1 59.057834212952137 12.414695796467164 5.2827989338255925 -0.74314483375859142 0 -0.66913059716165679 0.3345652985808284 0 -0.37157241687929571 1 I I -0.70710678118654746 0.70710678118654746 0.5 forward I I I I #
loop $-1 $-1 $115 $31 #
coedge $-1 $72 $72 $116 $117 reversed $45 $-1 #
face $-1 $118 $119 $25 $-1 $120 reversed single #
loop $-1 $-1 $121 $47 #
plane-surface $-1 -63.356425672170161 6.2718674883622114 5.8871571080396166 -0.61566148304635926 0 0.78801074757464917 0.78801074757464917 0 0.61566148304635926 forward_v I I I I #
coedge $-1 $122 $123 $124 $125 reversed $48 $-1 #
face $-1 $-1 $126 $26 $-1 $127 forward single #
loop $-1 $128 $129 $50 #
cone-surface $-1 -59.865412334014842 4.2132352061679157 6.2412536644626577 0.61566148304635926 0 -0.78801074757464917 0.39400537378732459 0 0.30783074152317963 1 I I -0.70710678118654746 0.70710678118654746 0.5 forward I I I I #
loop $-1 $-1 $130 $33 #
coedge $-1 $81 $81 $131 $132 reversed $51 $-1 #
face $-1 $-1 $133 $27 $-1 $134 forward single #
loop $-1 $135 $136 $53 #
cone-surface $-1 -59.865412334014842 8.3304997705564929 6.2412536644626577 0.61566148304635926 0 -0.78801074757464917 0.39400537378732459 0 0.30783074152317963 1 I I -0.70710678118654746 0.70710678118654746 0.5 forward I I I I #
loop $-1 $-1 $137 $34 #
coedge $-1 $86 $86 $138 $139 reversed $54 $-1 #
face $-1 $140 $141 $21 $-1 $142 reversed single #
loop $-1 $-1 $143 $56 #
plane-surface $-1 0 -41.231078727864123 0 0 1 0 0 0 1 forward_v I I I I #
coedge $-1 $144 $145 $146 $147 forward $57 $-1 #
coedge $-1 $148 $59 $149 $150 forward $36 $-1 #
coedge $-1 $59 $148 $151 $152 forward $36 $-1 #
coedge $-1 $153 $154 $59 $94 reversed $155 $-1 #
edge $-1 $156 -41.231078727864123 $157 41.231078727864123 $93 $158 forward 7 unknown #
face $-1 $159 $160 $22 $-1 $161 forward single #
loop $-1 $-1 $162 $60 #
plane-surface $-1 63.356425672170168 0 0 -1 0 0 0 0 1 forward_v I I I I #
coedge $-1 $163 $164 $165 $166 forward $61 $-1 #
coedge $-1 $165 $63 $162 $167 reversed $39 $-1 #
coedge $-1 $63 $165 $168 $169 reversed $39 $-1 #
coedge $-1 $170 $171 $63 $102 reversed $160 $-1 #
edge $-1 $172 -63.356425672170168 $173 63.356425672170168 $101 $174 forward 7 unknown #
face $-1 $175 $176 $23 $-1 $177 reversed single #
loop $-1 $-1 $178 $64 #
plane-surface $-1 72.734980631442397 8.3191689461604135 184.37914401659486 0 1 0 0.74314483375859142 0 0.66913059716165679 forward_v I I I I #
coedge $-1 $179 $180 $181 $182 reversed $65 $-1 #
coedge $-1 $108 $67 $183 $184 reversed $42 $-1 #
coedge $-1 $67 $107 $179 $185 reversed $42 $-1 #
coedge $-1 $181 $186 $67 $110 forward $187 $-1 #
edge $-1 $188 -26.98893535644897 $189 -23.281784697334487 $109 $190 forward 7 unknown #
loop $-1 $-1 $116 $68 #
plane-surface $-1 -21.431020215924519 12.414695796467164 99.591698128500155 0.74314483375859142 0 0.66913059716165679 0.66913059716165679 0 -0.74314483375859142 forward_v I I I I #
loop $-1 $-1 $191 $44 #
coedge $-1 $114 $114 $115 $192 reversed $69 $-1 #
coedge $-1 $115 $115 $114 $192 forward $71 $-1 #
coedge $-1 $116 $116 $72 $117 forward $111 $-1 #
edge $-1 $193 0 $193 6.2831853071796004 $116 $194 forward 7 unknown #
face $-1 $195 $196 $25 $-1 $197 forward single #
loop $-1 $-1 $198 $73 #
plane-surface $-1 -141.36864765185959 11.075342813482219 105.73824582320863 0 -1 0 0.61566148304635926 0 -0.78801074757464917 forward_v I I I I #
coedge $-1 $199 $200 $201 $202 reversed $74 $-1 #
coedge $-1 $123 $76 $203 $204 reversed $48 $-1 #
coedge $-1 $76 $122 $199 $205 reversed $48 $-1 #
coedge $-1 $201 $206 $76 $125 forward $196 $-1 #
edge $-1 $207 7.3278981537596266 $208 12.007042366934293 $124 $209 forward 7 unknown #
loop $-1 $-1 $131 $77 #
plane-surface $-1 -63.356425672170161 6.2718674883622114 5.8871571080396166 -0.61566148304635926 0 0.78801074757464917 0.78801074757464917 0 0.61566148304635926 forward_v I I I I #
loop $-1 $-1 $210 $50 #
coedge $-1 $129 $129 $130 $211 reversed $78 $-1 #
coedge $-1 $130 $130 $129 $211 forward $80 $-1 #
coedge $-1 $131 $131 $81 $132 forward $126 $-1 #
edge $-1 $212 0 $212 6.2831853071796004 $131 $213 forward 7 unknown #
loop $-1 $-1 $138 $82 #
plane-surface $-1 -63.356425672170161 6.2718674883622114 5.8871571080396166 -0.61566148304635926 0 0.78801074757464917 0.78801074757464917 0 0.61566148304635926 forward_v I I I I #
loop $-1 $-1 $214 $53 #
coedge $-1 $136 $136 $137 $215 reversed $83 $-1 #
coedge $-1 $137 $137 $136 $215 forward $85 $-1 #
coedge $-1 $138 $138 $86 $139 forward $133 $-1 #
edge $-1 $216 0 $216 6.2831853071796004 $138 $217 forward 7 unknown #
face $-1 $218 $219 $21 $-1 $220 reversed single #
loop $-1 $-1 $221 $87 #
plane-surface $-1 -63.356425672170168 0 0 1 0 0 0 0 -1 forward_v I I I I #
coedge $-1 $151 $222 $153 $223 reversed $88 $-1 #
coedge $-1 $224 $90 $222 $225 forward $57 $-1 #
coedge $-1 $90 $224 $226 $227 forward $57 $-1 #
coedge $-1 $154 $153 $90 $147 reversed $155 $-1 #
edge $-1 $228 -41.231078727864123 $229 41.231078727864123 $146 $230 forward 7 unknown #
coedge $-1 $92 $91 $231 $232 forward $36 $-1 #
coedge $-1 $233 $234 $91 $150 reversed $219 $-1 #
edge $-1 $157 -63.356425672170168 $235 63.356425672170168 $149 $236 forward 7 unknown #
coedge $-1 $237 $143 $92 $152 reversed $88 $-1 #
edge $-1 $238 -63.356425672170168 $156 63.356425672170168 $151 $239 forward 7 unknown #
coedge $-1 $146 $93 $143 $223 forward $155 $-1 #
coedge $-1 $93 $146 $233 $240 reversed $155 $-1 #
loop $-1 $-1 $153 $218 #
vertex $-1 $94 $241 #
vertex $-1 $94 $242 #
straight-curve $-1 63.356425672170168 0 9.54290529997402 0 1 0 I I #
face $-1 $243 $244 $22 $-1 $245 reversed single #
loop $-1 $-1 $171 $95 #
plane-surface $-1 0 -44.718344123144554 -5.1859677753708731 0 0 1 1 0 0 forward_v I I I I #
coedge $-1 $246 $247 $99 $167 forward $96 $-1 #
coedge $-1 $248 $98 $247 $249 forward $61 $-1 #
coedge $-1 $98 $248 $250 $251 forward $61 $-1 #
coedge $-1 $100 $99 $98 $166 reversed $39 $-1 #
edge $-1 $252 -63.356425672170168 $253 63.356425672170168 $98 $254 forward 7 unknown #
edge $-1 $253 -9.54290529997402 $173 -5.1859677753708731 $162 $255 forward 7 unknown #
coedge $-1 $250 $256 $100 $169 forward $257 $-1 #
edge $-1 $172 5.1859677753708731 $252 9.54290529997402 $168 $258 forward 7 unknown #
coedge $-1 $259 $101 $256 $260 forward $160 $-1 #
coedge $-1 $101 $259 $246 $261 forward $160 $-1 #
vertex $-1 $169 $262 #
vertex $-1 $261 $263 #
straight-curve $-1 0 -41.231078727864123 -5.1859677753708731 1 0 0 I I #
face $-1 $-1 $187 $23 $-1 $264 forward single #
loop $-1 $-1 $265 $103 #
plane-surface $-1 63.356425672170168 0 0 -1 0 0 0 0 1 forward_v I I I I #
coedge $-1 $266 $267 $268 $269 reversed $104 $-1 #
coedge $-1 $270 $106 $108 $185 forward $65 $-1 #
coedge $-1 $106 $270 $266 $271 forward $65 $-1 #
coedge $-1 $268 $109 $106 $182 forward $187 $-1 #
edge $-1 $189 -10.302874748540333 $272 -2.1118210479268313 $181 $273 forward 7 unknown #
coedge $-1 $274 $275 $107 $184 forward $176 $-1 #
edge $-1 $276 -86.763874727164165 $188 -82.646666708323409 $183 $277 forward 7 unknown #
edge $-1 $189 121.17260154132785 $276 126.71285134434029 $108 $278 forward 7 unknown #
coedge $-1 $109 $268 $274 $279 forward $187 $-1 #
loop $-1 $-1 $268 $175 #
vertex $-1 $184 $280 #
vertex $-1 $110 $281 #
straight-curve $-1 36.367490315721199 16.510222646773915 9.5429052999740236 -1 0 0 I I #
coedge $-1 $191 $191 $-1 $282 reversed $113 $-1 #
edge $-1 $283 0 $283 6.2831853071796004 $114 $284 forward 7 unknown #
vertex $-1 $117 $285 #
ellipse-curve $-1 61.50285034261293 12.414695796467164 7.4843012905536339 0.74314483375859142 0 0.66913059716165679 0.66913059716165679 0 -0.74314483375859142 1 I I #
face $-1 $-1 $286 $25 $-1 $287 reversed single #
loop $-1 $-1 $124 $118 #
plane-surface $-1 0 0 9.54290529997402 0 0 1 1 0 0 forward_v I I I I #
coedge $-1 $288 $289 $290 $291 reversed $119 $-1 #
coedge $-1 $292 $121 $123 $205 forward $74 $-1 #
coedge $-1 $121 $292 $288 $293 forward $74 $-1 #
coedge $-1 $290 $124 $121 $202 forward $196 $-1 #
edge $-1 $208 -1.6675415809389023 $294 7.9394090693011137 $201 $295 forward 7 unknown #
coedge $-1 $296 $297 $122 $204 forward $286 $-1 #
edge $-1 $298 -46.981965803564705 $207 -43.326217611630298 $203 $299 forward 7 unknown #
edge $-1 $208 -5.9379192829237377 $298 8.8800565823946346e-015 $123 $300 forward 7 unknown #
coedge $-1 $124 $290 $296 $301 forward $196 $-1 #
vertex $-1 $204 $302 #
vertex $-1 $125 $303 #
straight-curve $-1 -70.684323825929795 1.4683921632422035 9.5429052999740165 1 0 0 I I #
coedge $-1 $210 $210 $-1 $304 reversed $128 $-1 #
edge $-1 $305 0 $305 6.2831853071796004 $129 $306 forward 7 unknown #
vertex $-1 $132 $307 #
ellipse-curve $-1 -61.016853565582835 4.2132352061679157 7.7150312040068139 -0.61566148304635926 0 0.78801074757464917 0.78801074757464917 0 0.61566148304635926 1 I I #
coedge $-1 $214 $214 $-1 $308 reversed $135 $-1 #
edge $-1 $309 0 $309 6.2831853071796004 $136 $310 forward 7 unknown #
vertex $-1 $139 $311 #
ellipse-curve $-1 -61.016853565582835 8.3304997705564929 7.7150312040068139 -0.61566148304635926 0 0.78801074757464917 0.78801074757464917 0 0.61566148304635926 1 I I #
face $-1 $-1 $155 $21 $-1 $312 reversed single #
loop $-1 $-1 $233 $140 #
plane-surface $-1 0 41.231078727864123 0 0 -1 0 0 0 -1 forward_v I I I I #
coedge $-1 $313 $231 $234 $314 forward $141 $-1 #
coedge $-1 $143 $237 $144 $225 reversed $88 $-1 #
edge $-1 $156 -9.54290529997402 $229 9.54290529997402 $153 $315 forward 7 unknown #
coedge $-1 $145 $144 $313 $316 forward $57 $-1 #
edge $-1 $229 -63.356425672170168 $317 63.356425672170168 $222 $318 forward 7 unknown #
coedge $-1 $234 $233 $145 $227 reversed $219 $-1 #
edge $-1 $319 -63.356425672170168 $228 63.356425672170168 $226 $320 forward 7 unknown #
vertex $-1 $147 $321 #
vertex $-1 $223 $322 #
straight-curve $-1 63.356425672170168 0 -9.54290529997402 0 -1 0 I I #
coedge $-1 $221 $323 $148 $232 reversed $141 $-1 #
edge $-1 $235 -41.231078727864123 $238 41.231078727864123 $231 $324 forward 7 unknown #
coedge $-1 $226 $149 $154 $240 forward $219 $-1 #
coedge $-1 $149 $226 $221 $314 reversed $219 $-1 #
vertex $-1 $150 $325 #
straight-curve $-1 0 41.231078727864123 9.54290529997402 -1 0 0 I I #
coedge $-1 $222 $151 $323 $326 forward $88 $-1 #
vertex $-1 $232 $327 #
straight-curve $-1 0 -41.231078727864123 9.54290529997402 1 0 0 I I #
edge $-1 $157 -9.54290529997402 $228 9.54290529997402 $154 $328 forward 7 unknown #
point $-1 63.356425672170168 -41.231078727864123 9.54290529997402 #
point $-1 63.356425672170168 41.231078727864123 9.54290529997402 #
face $-1 $-1 $257 $22 $-1 $329 reversed single #
loop $-1 $-1 $330 $159 #
plane-surface $-1 0 -48.205609518424986 -7.3644365376724465 0 1 0 0 0 1 forward_v I I I I #
coedge $-1 $331 $162 $171 $261 reversed $96 $-1 #
coedge $-1 $162 $331 $163 $249 reversed $96 $-1 #
coedge $-1 $164 $163 $332 $333 forward $61 $-1 #
edge $-1 $253 41.231078727864123 $334 48.205609518424986 $247 $335 forward 7 unknown #
coedge $-1 $336 $168 $164 $251 reversed $257 $-1 #
edge $-1 $337 -48.205609518424986 $252 -41.231078727864123 $250 $338 forward 7 unknown #
vertex $-1 $169 $339 #
vertex $-1 $249 $340 #
straight-curve $-1 0 -41.231078727864123 -9.54290529997402 1 0 0 I I #
straight-curve $-1 63.356425672170168 -41.231078727864123 0 0 0 1 I I #
coedge $-1 $168 $336 $170 $260 reversed $257 $-1 #
loop $-1 $-1 $168 $243 #
straight-curve $-1 -63.356425672170168 -41.231078727864123 0 0 0 -1 I I #
coedge $-1 $171 $170 $341 $342 forward $160 $-1 #
edge $-1 $172 -3.4872653952804313 $343 3.4872653952804313 $256 $344 forward 7 unknown #
edge $-1 $345 -3.4872653952804313 $173 3.4872653952804313 $246 $346 forward 7 unknown #
point $-1 -63.356425672170168 -41.231078727864123 -5.1859677753708731 #
point $-1 63.356425672170168 -41.231078727864123 -5.1859677753708731 #
plane-surface $-1 0 0 9.54290529997402 0 0 1 1 0 0 forward_v I I I I #
coedge $-1 $275 $274 $267 $347 forward $176 $-1 #
coedge $-1 $267 $178 $180 $271 reversed $104 $-1 #
coedge $-1 $178 $266 $265 $347 reversed $104 $-1 #
coedge $-1 $186 $181 $178 $269 forward $187 $-1 #
edge $-1 $272 23.281784697334487 $348 26.98893535644897 $268 $349 forward 7 unknown #
coedge $-1 $180 $179 $275 $350 reversed $65 $-1 #
edge $-1 $351 -126.71285134434029 $272 -121.17260154132785 $266 $352 forward 7 unknown #
vertex $-1 $182 $353 #
straight-curve $-1 59.649275013055679 6.2073478982335821 9.5429052999740307 0 -1 0 I I #
coedge $-1 $265 $183 $186 $279 reversed $176 $-1 #
coedge $-1 $183 $265 $270 $350 forward $176 $-1 #
vertex $-1 $184 $354 #
straight-curve $-1 63.356425672170168 16.510222646773915 92.189572008297432 0 0 1 I I #
straight-curve $-1 -21.431020215924519 16.510222646773915 99.591698128500155 0.66913059716165679 0 -0.74314483375859142 I I #
edge $-1 $348 8.3191689461604135 $188 16.510222646773915 $274 $355 forward 7 unknown #
point $-1 63.356425672170168 16.510222646773915 9.54290529997402 #
point $-1 59.649275013055686 16.510222646773915 9.5429052999740236 #
edge $-1 $356 1 $356 0 $191 $-1 forward 7 unknown #
vertex $-1 $192 $357 #
ellipse-curve $-1 59.429406629831433 12.414695796467164 5.6173642324064206 0.74314483375859142 0 0.66913059716165679 0.66913059716165679 0 -0.74314483375859142 1 I I #
point $-1 62.171980939774599 12.414695796467164 6.7411564567950553 #
loop $-1 $-1 $203 $195 #
plane-surface $-1 -63.356425672170168 0 0 1 0 0 0 0 -1 forward_v I I I I #
coedge $-1 $289 $198 $200 $293 reversed $119 $-1 #
coedge $-1 $198 $288 $358 $359 reversed $119 $-1 #
coedge $-1 $206 $201 $198 $291 forward $196 $-1 #
edge $-1 $294 -12.007042366934293 $360 -7.3278981537596266 $290 $361 forward 7 unknown #
coedge $-1 $200 $199 $297 $362 reversed $74 $-1 #
edge $-1 $363 -8.8800565823946346e-015 $294 5.9379192829237377 $288 $364 forward 7 unknown #
vertex $-1 $202 $365 #
straight-curve $-1 -58.677281458995495 3.1359337441811057 9.5429052999740183 0 1 0 I I #
coedge $-1 $358 $203 $206 $301 reversed $286 $-1 #
coedge $-1 $203 $358 $292 $362 forward $286 $-1 #
vertex $-1 $204 $366 #
straight-curve $-1 -63.356425672170168 1.4683921632422035 52.869122911604315 0 0 1 I I #
straight-curve $-1 -63.356425672170161 1.4683921632422035 5.8871571080396166 -0.78801074757464917 0 -0.61566148304635926 I I #
edge $-1 $360 -11.075342813482219 $207 -1.4683921632422035 $296 $367 forward 7 unknown #
point $-1 -63.356425672170168 1.4683921632422035 9.54290529997402 #
point $-1 -58.677281458995502 1.4683921632422035 9.54290529997402 #
edge $-1 $368 1 $368 0 $210 $-1 forward 7 unknown #
vertex $-1 $211 $369 #
ellipse-curve $-1 -60.173243075538018 4.2132352061679157 6.6352590382499823 -0.61566148304635926 0 0.78801074757464917 0.78801074757464917 0 0.61566148304635926 1 I I #
point $-1 -60.228842818008189 4.2132352061679157 8.3306926870531761 #
edge $-1 $370 1 $370 0 $214 $-1 forward 7 unknown #
vertex $-1 $215 $371 #
ellipse-curve $-1 -60.173243075538018 8.3304997705564929 6.6352590382499823 -0.61566148304635926 0 0.78801074757464917 0.78801074757464917 0 0.61566148304635926 1 I I #
point $-1 -60.228842818008189 8.3304997705564929 8.3306926870531761 #
plane-surface $-1 63.356425672170168 0 0 -1 0 0 0 0 1 forward_v I I I I #
coedge $-1 $323 $221 $224 $316 reversed $141 $-1 #
edge $-1 $235 -9.54290529997402 $319 9.54290529997402 $234 $372 forward 7 unknown #
straight-curve $-1 63.356425672170168 -41.231078727864123 0 0 0 -1 I I #
edge $-1 $317 -41.231078727864123 $319 41.231078727864123 $313 $373 forward 7 unknown #
vertex $-1 $316 $374 #
straight-curve $-1 0 -41.231078727864123 -9.54290529997402 -1 0 0 I I #
vertex $-1 $227 $375 #
straight-curve $-1 0 41.231078727864123 -9.54290529997402 1 0 0 I I #
point $-1 63.356425672170168 41.231078727864123 -9.54290529997402 #
point $-1 63.356425672170168 -41.231078727864123 -9.54290529997402 #
coedge $-1 $231 $313 $237 $326 reversed $141 $-1 #
straight-curve $-1 -63.356425672170168 0 9.54290529997402 0 -1 0 I I #
point $-1 -63.356425672170168 41.231078727864123 9.54290529997402 #
edge $-1 $238 -9.54290529997402 $317 9.54290529997402 $323 $376 forward 7 unknown #
point $-1 -63.356425672170168 -41.231078727864123 9.54290529997402 #
straight-curve $-1 63.356425672170168 41.231078727864123 0 0 0 -1 I I #
plane-surface $-1 -63.356425672170168 0 0 1 0 0 0 0 -1 forward_v I I I I #
coedge $-1 $332 $341 $336 $377 forward $244 $-1 #
coedge $-1 $247 $246 $378 $379 forward $96 $-1 #
coedge $-1 $378 $330 $248 $333 reversed $244 $-1 #
edge $-1 $334 -63.356425672170168 $337 63.356425672170168 $332 $380 forward 7 unknown #
vertex $-1 $379 $381 #
straight-curve $-1 63.356425672170168 0 -9.54290529997402 0 -1 0 I I #
coedge $-1 $256 $250 $330 $377 reversed $257 $-1 #
vertex $-1 $251 $382 #
straight-curve $-1 -63.356425672170168 0 -9.54290529997402 0 1 0 I I #
point $-1 -63.356425672170168 -41.231078727864123 -9.54290529997402 #
point $-1 63.356425672170168 -41.231078727864123 -9.54290529997402 #
coedge $-1 $330 $378 $259 $342 reversed $244 $-1 #
edge $-1 $343 -63.356425672170168 $345 63.356425672170168 $341 $383 forward 7 unknown #
vertex $-1 $260 $384 #
straight-curve $-1 -63.356425672170168 -44.718344123144554 -5.1859677753708731 0 -1 0 I I #
vertex $-1 $261 $385 #
straight-curve $-1 63.356425672170168 -44.718344123144554 -5.1859677753708731 0 1 0 I I #
edge $-1 $348 82.646666708323409 $351 86.763874727164165 $265 $386 forward 7 unknown #
vertex $-1 $279 $387 #
straight-curve $-1 36.367490315721199 8.3191689461604135 9.5429052999740236 1 0 0 I I #
edge $-1 $351 2.1118210479268313 $276 10.302874748540333 $275 $388 forward 7 unknown #
vertex $-1 $350 $389 #
straight-curve $-1 -21.431020215924519 8.3191689461604135 99.591698128500155 -0.66913059716165679 0 0.74314483375859142 I I #
point $-1 59.649275013055686 8.3191689461604135 9.5429052999740236 #
point $-1 63.356425672170161 16.510222646773915 5.4256972811332673 #
straight-curve $-1 63.356425672170168 0 9.54290529997402 0 1 0 I I #
vertex $-1 $282 $390 #
point $-1 60.098537226993088 12.414695796467164 4.8742193986478295 #
coedge $-1 $297 $296 $289 $359 forward $286 $-1 #
edge $-1 $360 43.326217611630298 $363 46.981965803564705 $358 $391 forward 7 unknown #
vertex $-1 $301 $392 #
straight-curve $-1 -70.684323825929795 11.075342813482219 9.5429052999740165 -1 0 0 I I #
edge $-1 $363 -7.9394090693011137 $298 1.6675415809389023 $297 $393 forward 7 unknown #
vertex $-1 $362 $394 #
straight-curve $-1 -63.356425672170161 11.075342813482219 5.8871571080396166 0.78801074757464917 0 0.61566148304635926 I I #
point $-1 -58.677281458995502 11.075342813482219 9.54290529997402 #
point $-1 -63.356425672170168 1.4683921632422035 5.8871571080396112 #
straight-curve $-1 -63.356425672170168 0 9.54290529997402 0 -1 0 I I #
vertex $-1 $304 $395 #
point $-1 -59.385232327963372 4.2132352061679157 7.2509205212963419 #
vertex $-1 $308 $396 #
point $-1 -59.385232327963372 8.3304997705564929 7.2509205212963419 #
straight-curve $-1 -63.356425672170168 41.231078727864123 0 0 0 -1 I I #
straight-curve $-1 -63.356425672170168 0 -9.54290529997402 0 1 0 I I #
point $-1 -63.356425672170168 -41.231078727864123 -9.54290529997402 #
point $-1 -63.356425672170168 41.231078727864123 -9.54290529997402 #
straight-curve $-1 -63.356425672170168 -41.231078727864123 0 0 0 -1 I I #
edge $-1 $343 -2.1784687623015735 $337 2.1784687623015735 $336 $397 forward 7 unknown #
coedge $-1 $341 $332 $331 $379 reversed $244 $-1 #
edge $-1 $345 -2.1784687623015735 $334 2.1784687623015735 $331 $398 forward 7 unknown #
straight-curve $-1 0 -48.205609518424986 -9.54290529997402 -1 0 0 I I #
point $-1 63.356425672170168 -48.205609518424986 -9.54290529997402 #
point $-1 -63.356425672170168 -48.205609518424986 -9.54290529997402 #
straight-curve $-1 0 -48.205609518424986 -5.1859677753708731 1 0 0 I I #
point $-1 -63.356425672170168 -48.205609518424986 -5.1859677753708731 #
point $-1 63.356425672170168 -48.205609518424986 -5.1859677753708731 #
straight-curve $-1 63.356425672170168 8.3191689461604135 92.189572008297432 0 0 -1 I I #
point $-1 63.356425672170168 8.3191689461604135 9.54290529997402 #
straight-curve $-1 63.356425672170168 6.2073478982335821 5.4256972811332531 0 1 0 I I #
point $-1 63.356425672170161 8.3191689461604135 5.4256972811332673 #
point $-1 58.686261796072841 12.414695796467164 4.9482336352447645 #
straight-curve $-1 -63.356425672170168 11.075342813482219 52.869122911604315 0 0 -1 I I #
point $-1 -63.356425672170168 11.075342813482219 9.54290529997402 #
straight-curve $-1 -63.356425672170168 3.1359337441811057 5.8871571080396059 0 -1 0 I I #
point $-1 -63.356425672170168 11.075342813482219 5.8871571080396112 #
point $-1 -59.557581592491665 4.2132352061679157 5.8472482906753331 #
point $-1 -59.557581592491665 8.3304997705564929 5.8472482906753331 #
straight-curve $-1 -63.356425672170168 -48.205609518424986 -7.3644365376724465 0 0 -1 I I #
straight-curve $-1 63.356425672170168 -48.205609518424986 -7.3644365376724465 0 0 -1 I I #
End-of-ACIS-data 