500 0 13 0           
7 Unknown 11 ACIS 5.0 NT 24 Fri Mar 26 20:41:59 1999 
-1 9.9999999999999995e-007 1e-010 
body $-1 $13 $-1 $14 #
body $-1 $15 $-1 $16 #
body $-1 $17 $-1 $18 #
body $-1 $19 $-1 $20 #
body $-1 $21 $-1 $22 #
body $-1 $23 $-1 $24 #
body $-1 $25 $-1 $26 #
body $-1 $27 $-1 $28 #
body $-1 $29 $-1 $30 #
body $-1 $31 $-1 $32 #
body $-1 $33 $-1 $34 #
body $-1 $35 $-1 $36 #
body $-1 $37 $-1 $38 #
lump $-1 $-1 $39 $0 #
transform $-1 1 0 0 0 1 0 0 0 1 40.00122074037904 19.011658408710563 9.0398645793351253 1 rotate no_reflect no_shear #
lump $-1 $-1 $40 $1 #
transform $-1 1 0 0 0 1 0 0 0 1 40.00122074037904 19.011658408710563 9.0398645793351253 1 rotate no_reflect no_shear #
lump $-1 $-1 $41 $2 #
transform $-1 1 0 0 0 1 0 0 0 1 40.00122074037904 19.011658408710563 9.0398645793351253 1 rotate no_reflect no_shear #
lump $-1 $-1 $42 $3 #
transform $-1 1 0 0 0 1 0 0 0 1 40.00122074037904 19.011658408710563 9.0398645793351253 1 rotate no_reflect no_shear #
lump $-1 $-1 $43 $4 #
transform $-1 1 0 0 0 1 0 0 0 1 40.00122074037904 19.011658408710563 9.0398645793351253 1 rotate no_reflect no_shear #
lump $-1 $-1 $44 $5 #
transform $-1 1 0 0 0 1 0 0 0 1 40.00122074037904 19.011658408710563 9.0398645793351253 1 rotate no_reflect no_shear #
lump $-1 $-1 $45 $6 #
transform $-1 1 0 0 0 1 0 0 0 1 40.00122074037904 19.011658408710563 9.0398645793351253 1 rotate no_reflect no_shear #
lump $-1 $-1 $46 $7 #
transform $-1 1 0 0 0 1 0 0 0 1 40.00122074037904 19.011658408710563 9.0398645793351253 1 rotate no_reflect no_shear #
lump $-1 $-1 $47 $8 #
transform $-1 1 0 0 0 1 0 0 0 1 40.00122074037904 19.011658408710563 9.0398645793351253 1 rotate no_reflect no_shear #
lump $-1 $-1 $48 $9 #
transform $-1 1 0 0 0 1 0 0 0 1 40.00122074037904 19.011658408710563 9.0398645793351253 1 rotate no_reflect no_shear #
lump $-1 $-1 $49 $10 #
transform $-1 1 0 0 0 1 0 0 0 1 40.00122074037904 19.011658408710563 9.0398645793351253 1 rotate no_reflect no_shear #
lump $-1 $-1 $50 $11 #
transform $-1 1 0 0 0 1 0 0 0 1 40.00122074037904 19.011658408710563 9.0398645793351253 1 rotate no_reflect no_shear #
lump $-1 $-1 $51 $12 #
transform $-1 1 0 0 0 1 0 0 0 1 40.00122074037904 19.011658408710563 9.0398645793351253 1 rotate no_reflect no_shear #
shell $-1 $-1 $-1 $52 $-1 $13 #
shell $-1 $-1 $-1 $53 $-1 $15 #
shell $-1 $-1 $-1 $54 $-1 $17 #
shell $-1 $-1 $-1 $55 $-1 $19 #
shell $-1 $-1 $-1 $56 $-1 $21 #
shell $-1 $-1 $-1 $57 $-1 $23 #
shell $-1 $-1 $-1 $58 $-1 $25 #
shell $-1 $-1 $-1 $59 $-1 $27 #
shell $-1 $-1 $-1 $60 $-1 $29 #
shell $-1 $-1 $-1 $61 $-1 $31 #
shell $-1 $-1 $-1 $62 $-1 $33 #
shell $-1 $-1 $-1 $63 $-1 $35 #
shell $-1 $-1 $-1 $64 $-1 $37 #
face $-1 $65 $66 $39 $-1 $67 forward single #
face $-1 $68 $69 $40 $-1 $70 reversed single #
face $-1 $71 $72 $41 $-1 $73 reversed single #
face $-1 $74 $75 $42 $-1 $76 forward single #
face $-1 $77 $78 $43 $-1 $79 forward single #
face $-1 $80 $81 $44 $-1 $82 reversed single #
face $-1 $83 $84 $45 $-1 $85 forward single #
face $-1 $86 $87 $46 $-1 $88 forward single #
face $-1 $89 $90 $47 $-1 $91 forward single #
face $-1 $92 $93 $48 $-1 $94 reversed single #
face $-1 $95 $96 $49 $-1 $97 forward single #
face $-1 $98 $99 $50 $-1 $100 forward single #
face $-1 $101 $102 $51 $-1 $103 forward single #
face $-1 $104 $105 $39 $-1 $106 reversed single #
loop $-1 $-1 $107 $52 #
plane-surface $-1 0 0 9.0398645793351253 0 0 1 1 0 0 forward_v I I I I #
face $-1 $108 $109 $40 $-1 $110 reversed single #
loop $-1 $-1 $111 $53 #
plane-surface $-1 -31.160185178113736 -14.514410752864141 0 -1 0 0 0 0 1 forward_v I I I I #
face $-1 $112 $113 $41 $-1 $114 reversed single #
loop $-1 $-1 $115 $54 #
plane-surface $-1 -12.389618831053433 -67.158330190202662 67.309119129656494 -1 0 0 0 -0.6018150307709319 0.79863550430605224 forward_v I I I I #
face $-1 $116 $117 $42 $-1 $118 forward single #
loop $-1 $119 $120 $55 #
cone-surface $-1 -25.797166221810791 -13.463006702906938 3.8164451780042334 0 0.6018150307709319 -0.79863550430605224 2 0 0 1 I I 0 1 2 forward I I I I #
face $-1 $121 $122 $43 $-1 $123 forward single #
loop $-1 $124 $125 $56 #
cone-surface $-1 -17.752637787356377 -13.463006702906938 3.8164451780042334 0 0.6018150307709319 -0.79863550430605224 2 0 0 1 I I 0 1 2 forward I I I I #
face $-1 $126 $127 $44 $-1 $128 reversed single #
loop $-1 $-1 $129 $57 #
plane-surface $-1 -20.816515058150962 68.003680449622891 75.702225937754264 1 0 0 0 -0.85716730853699208 -0.51503806187062418 forward_v I I I I #
face $-1 $130 $131 $45 $-1 $132 forward single #
loop $-1 $133 $134 $58 #
cone-surface $-1 -18.291237456052382 15.799492486868266 4.8305158767431067 0 -0.85716730853699208 -0.51503806187062418 1 0 0 1 I I 0 1 1 forward I I I I #
face $-1 $135 $136 $46 $-1 $137 forward single #
loop $-1 $138 $139 $59 #
cone-surface $-1 -14.503321052904511 15.799492486868266 4.8305158767431067 0 -0.85716730853699208 -0.51503806187062418 1 0 0 1 I I 0 1 1 forward I I I I #
face $-1 $140 $141 $47 $-1 $142 forward single #
loop $-1 $143 $144 $60 #
cone-surface $-1 -10.715404649756639 15.799492486868266 4.8305158767431067 0 -0.85716730853699208 -0.51503806187062418 1 0 0 1 I I 0 1 1 forward I I I I #
face $-1 $145 $146 $48 $-1 $147 reversed single #
loop $-1 $-1 $148 $61 #
plane-surface $-1 17.031162609923364 68.003680449622891 75.702225937754264 1 0 0 0 -0.85716730853699208 -0.51503806187062418 forward_v I I I I #
face $-1 $149 $150 $49 $-1 $151 forward single #
loop $-1 $152 $153 $62 #
cone-surface $-1 19.55644021202194 15.799492486868266 4.8305158767431067 0 -0.85716730853699208 -0.51503806187062418 1 0 0 1 I I 0 1 1 forward I I I I #
face $-1 $154 $155 $50 $-1 $156 forward single #
loop $-1 $157 $158 $63 #
cone-surface $-1 23.344356615169815 15.799492486868266 4.8305158767431067 0 -0.85716730853699208 -0.51503806187062418 1 0 0 1 I I 0 1 1 forward I I I I #
face $-1 $159 $160 $51 $-1 $161 forward single #
loop $-1 $162 $163 $64 #
cone-surface $-1 27.13227301831769 15.799492486868266 4.8305158767431067 0 -0.85716730853699208 -0.51503806187062418 1 0 0 1 I I 0 1 1 forward I I I I #
face $-1 $164 $165 $39 $-1 $166 reversed single #
loop $-1 $-1 $167 $65 #
plane-surface $-1 0 0 -9.0398645793351253 0 0 1 1 0 0 forward_v I I I I #
coedge $-1 $168 $169 $170 $171 forward $66 $-1 #
face $-1 $172 $173 $40 $-1 $174 reversed single #
loop $-1 $-1 $175 $68 #
plane-surface $-1 -35.580702959246388 -16.648781074163807 0 0 1 0 0 0 1 forward_v I I I I #
coedge $-1 $176 $177 $178 $179 forward $69 $-1 #
face $-1 $180 $181 $41 $-1 $182 reversed single #
loop $-1 $-1 $183 $71 #
plane-surface $-1 -21.774902004583584 -19.011658408710559 3.4163289319558316 0 -0.6018150307709319 0.79863550430605224 1 0 0 forward_v I I I I #
coedge $-1 $184 $185 $186 $187 reversed $72 $-1 #
face $-1 $-1 $188 $42 $-1 $189 forward single #
loop $-1 $190 $191 $74 #
cone-surface $-1 -25.797166221810791 -11.043881822296491 0.60615809605692839 0 0.6018150307709319 -0.79863550430605224 1 0 0 1 I I -0.70710678118654768 0.70710678118654735 1 forward I I I I #
loop $-1 $-1 $192 $55 #
coedge $-1 $120 $120 $193 $194 reversed $75 $-1 #
face $-1 $-1 $195 $43 $-1 $196 forward single #
loop $-1 $197 $198 $77 #
cone-surface $-1 -17.752637787356377 -11.043881822296491 0.60615809605692839 0 0.6018150307709319 -0.79863550430605224 1 0 0 1 I I -0.70710678118654768 0.70710678118654735 1 forward I I I I #
loop $-1 $-1 $199 $56 #
coedge $-1 $125 $125 $200 $201 reversed $78 $-1 #
face $-1 $202 $203 $44 $-1 $204 reversed single #
loop $-1 $-1 $205 $80 #
plane-surface $-1 -14.503321052904511 -0.57179699082672641 34.497923532586597 0 0.85716730853699208 0.51503806187062418 1 0 0 forward_v I I I I #
coedge $-1 $206 $207 $208 $209 reversed $81 $-1 #
face $-1 $-1 $210 $45 $-1 $211 forward single #
loop $-1 $212 $213 $83 #
cone-surface $-1 -18.291237456052382 14.302098343127124 3.9307907356091487 0 -0.85716730853699208 -0.51503806187062418 0.5 0 0 1 I I -0.70710678118654746 0.70710678118654746 0.5 forward I I I I #
loop $-1 $-1 $214 $58 #
coedge $-1 $134 $134 $215 $216 reversed $84 $-1 #
face $-1 $-1 $217 $46 $-1 $218 forward single #
loop $-1 $219 $220 $86 #
cone-surface $-1 -14.503321052904511 14.302098343127124 3.9307907356091487 0 -0.85716730853699208 -0.51503806187062418 0.5 0 0 1 I I -0.70710678118654746 0.70710678118654746 0.5 forward I I I I #
loop $-1 $-1 $221 $59 #
coedge $-1 $139 $139 $222 $223 reversed $87 $-1 #
face $-1 $-1 $224 $47 $-1 $225 forward single #
loop $-1 $226 $227 $89 #
cone-surface $-1 -10.715404649756639 14.302098343127124 3.9307907356091487 0 -0.85716730853699208 -0.51503806187062418 0.5 0 0 1 I I -0.70710678118654746 0.70710678118654746 0.5 forward I I I I #
loop $-1 $-1 $228 $60 #
coedge $-1 $144 $144 $229 $230 reversed $90 $-1 #
face $-1 $231 $232 $48 $-1 $233 reversed single #
loop $-1 $-1 $234 $92 #
plane-surface $-1 23.344356615169815 -0.57179699082672641 34.497923532586597 0 0.85716730853699208 0.51503806187062418 1 0 0 forward_v I I I I #
coedge $-1 $235 $236 $237 $238 reversed $93 $-1 #
face $-1 $-1 $239 $49 $-1 $240 forward single #
loop $-1 $241 $242 $95 #
cone-surface $-1 19.55644021202194 14.302098343127124 3.9307907356091487 0 -0.85716730853699208 -0.51503806187062418 0.5 0 0 1 I I -0.70710678118654746 0.70710678118654746 0.5 forward I I I I #
loop $-1 $-1 $243 $62 #
coedge $-1 $153 $153 $244 $245 reversed $96 $-1 #
face $-1 $-1 $246 $50 $-1 $247 forward single #
loop $-1 $248 $249 $98 #
cone-surface $-1 23.344356615169815 14.302098343127124 3.9307907356091487 0 -0.85716730853699208 -0.51503806187062418 0.5 0 0 1 I I -0.70710678118654746 0.70710678118654746 0.5 forward I I I I #
loop $-1 $-1 $250 $63 #
coedge $-1 $158 $158 $251 $252 reversed $99 $-1 #
face $-1 $-1 $253 $51 $-1 $254 forward single #
loop $-1 $255 $256 $101 #
cone-surface $-1 27.13227301831769 14.302098343127124 3.9307907356091487 0 -0.85716730853699208 -0.51503806187062418 0.5 0 0 1 I I -0.70710678118654746 0.70710678118654746 0.5 forward I I I I #
loop $-1 $-1 $257 $64 #
coedge $-1 $163 $163 $258 $259 reversed $102 $-1 #
face $-1 $260 $261 $39 $-1 $262 reversed single #
loop $-1 $-1 $263 $104 #
plane-surface $-1 0 -19.011658408710563 0 0 1 0 0 0 1 forward_v I I I I #
coedge $-1 $264 $265 $266 $267 forward $105 $-1 #
coedge $-1 $268 $107 $269 $270 forward $66 $-1 #
coedge $-1 $107 $268 $271 $272 forward $66 $-1 #
coedge $-1 $273 $274 $107 $171 reversed $275 $-1 #
edge $-1 $276 -19.011658408710563 $277 19.011658408710563 $170 $278 forward 7 unknown #
face $-1 $279 $280 $40 $-1 $281 reversed single #
loop $-1 $-1 $282 $108 #
plane-surface $-1 -35.580702959246388 -12.380040431564474 0 0 -1 0 0 0 -1 forward_v I I I I #
coedge $-1 $283 $284 $285 $286 reversed $109 $-1 #
coedge $-1 $287 $111 $288 $289 reversed $69 $-1 #
coedge $-1 $111 $287 $290 $291 reversed $69 $-1 #
coedge $-1 $284 $283 $111 $179 reversed $109 $-1 #
edge $-1 $292 -9.0398645793351253 $293 9.0398645793351253 $111 $294 forward 7 unknown #
face $-1 $295 $296 $41 $-1 $297 forward single #
loop $-1 $-1 $298 $112 #
plane-surface $-1 0 -19.011658408710563 0 0 1 0 0 0 1 forward_v I I I I #
coedge $-1 $299 $300 $301 $302 reversed $113 $-1 #
coedge $-1 $185 $115 $303 $304 reversed $72 $-1 #
coedge $-1 $115 $184 $299 $305 reversed $72 $-1 #
coedge $-1 $301 $306 $115 $187 forward $296 $-1 #
edge $-1 $307 14.567506686390768 $308 22.030190398319007 $186 $309 forward 7 unknown #
loop $-1 $-1 $193 $116 #
plane-surface $-1 -21.774902004583584 -19.011658408710559 3.4163289319558316 0 -0.6018150307709319 0.79863550430605224 1 0 0 forward_v I I I I #
loop $-1 $-1 $310 $74 #
coedge $-1 $191 $191 $192 $311 reversed $117 $-1 #
coedge $-1 $192 $192 $191 $311 forward $119 $-1 #
coedge $-1 $193 $193 $120 $194 forward $188 $-1 #
edge $-1 $312 3.6979145736760323e-016 $312 6.2831853071796004 $193 $313 forward 7 unknown #
loop $-1 $-1 $200 $121 #
plane-surface $-1 -21.774902004583584 -19.011658408710559 3.4163289319558316 0 -0.6018150307709319 0.79863550430605224 1 0 0 forward_v I I I I #
loop $-1 $-1 $314 $77 #
coedge $-1 $198 $198 $199 $315 reversed $122 $-1 #
coedge $-1 $199 $199 $198 $315 forward $124 $-1 #
coedge $-1 $200 $200 $125 $201 forward $195 $-1 #
edge $-1 $316 3.6979145736760323e-016 $316 6.2831853071796004 $200 $317 forward 7 unknown #
face $-1 $318 $319 $44 $-1 $320 forward single #
loop $-1 $-1 $321 $126 #
plane-surface $-1 -8.1901270476580574 68.003680449622891 75.702225937754264 -1 0 0 0 0.85716730853699208 0.51503806187062418 forward_v I I I I #
coedge $-1 $322 $323 $324 $325 reversed $127 $-1 #
coedge $-1 $207 $129 $326 $327 reversed $81 $-1 #
coedge $-1 $129 $206 $322 $328 reversed $81 $-1 #
coedge $-1 $324 $329 $129 $209 forward $319 $-1 #
edge $-1 $330 14.990181816100883 $331 19.276892680840188 $208 $332 forward 7 unknown #
loop $-1 $-1 $215 $130 #
plane-surface $-1 -14.503321052904511 -0.57179699082672641 34.497923532586597 0 0.85716730853699208 0.51503806187062418 1 0 0 forward_v I I I I #
loop $-1 $-1 $333 $83 #
coedge $-1 $213 $213 $214 $334 reversed $131 $-1 #
coedge $-1 $214 $214 $213 $334 forward $133 $-1 #
coedge $-1 $215 $215 $134 $216 forward $210 $-1 #
edge $-1 $335 3.0714775648067455e-016 $335 6.2831853071796004 $215 $336 forward 7 unknown #
loop $-1 $-1 $222 $135 #
plane-surface $-1 -14.503321052904511 -0.57179699082672641 34.497923532586597 0 0.85716730853699208 0.51503806187062418 1 0 0 forward_v I I I I #
loop $-1 $-1 $337 $86 #
coedge $-1 $220 $220 $221 $338 reversed $136 $-1 #
coedge $-1 $221 $221 $220 $338 forward $138 $-1 #
coedge $-1 $222 $222 $139 $223 forward $217 $-1 #
edge $-1 $339 3.0714775648067455e-016 $339 6.2831853071796004 $222 $340 forward 7 unknown #
loop $-1 $-1 $229 $140 #
plane-surface $-1 -14.503321052904511 -0.57179699082672641 34.497923532586597 0 0.85716730853699208 0.51503806187062418 1 0 0 forward_v I I I I #
loop $-1 $-1 $341 $89 #
coedge $-1 $227 $227 $228 $342 reversed $141 $-1 #
coedge $-1 $228 $228 $227 $342 forward $143 $-1 #
coedge $-1 $229 $229 $144 $230 forward $224 $-1 #
edge $-1 $343 3.0714775648067455e-016 $343 6.2831853071796004 $229 $344 forward 7 unknown #
face $-1 $345 $346 $48 $-1 $347 forward single #
loop $-1 $-1 $348 $145 #
plane-surface $-1 29.657550620416266 68.003680449622891 75.702225937754264 -1 0 0 0 0.85716730853699208 0.51503806187062418 forward_v I I I I #
coedge $-1 $349 $350 $351 $352 reversed $146 $-1 #
coedge $-1 $236 $148 $353 $354 reversed $93 $-1 #
coedge $-1 $148 $235 $349 $355 reversed $93 $-1 #
coedge $-1 $351 $356 $148 $238 forward $346 $-1 #
edge $-1 $357 14.990181816100883 $358 19.276892680840188 $237 $359 forward 7 unknown #
loop $-1 $-1 $244 $149 #
plane-surface $-1 23.344356615169815 -0.57179699082672641 34.497923532586597 0 0.85716730853699208 0.51503806187062418 1 0 0 forward_v I I I I #
loop $-1 $-1 $360 $95 #
coedge $-1 $242 $242 $243 $361 reversed $150 $-1 #
coedge $-1 $243 $243 $242 $361 forward $152 $-1 #
coedge $-1 $244 $244 $153 $245 forward $239 $-1 #
edge $-1 $362 3.0714775648067455e-016 $362 6.2831853071796004 $244 $363 forward 7 unknown #
loop $-1 $-1 $251 $154 #
plane-surface $-1 23.344356615169815 -0.57179699082672641 34.497923532586597 0 0.85716730853699208 0.51503806187062418 1 0 0 forward_v I I I I #
loop $-1 $-1 $364 $98 #
coedge $-1 $249 $249 $250 $365 reversed $155 $-1 #
coedge $-1 $250 $250 $249 $365 forward $157 $-1 #
coedge $-1 $251 $251 $158 $252 forward $246 $-1 #
edge $-1 $366 3.0714775648067455e-016 $366 6.2831853071796004 $251 $367 forward 7 unknown #
loop $-1 $-1 $258 $159 #
plane-surface $-1 23.344356615169815 -0.57179699082672641 34.497923532586597 0 0.85716730853699208 0.51503806187062418 1 0 0 forward_v I I I I #
loop $-1 $-1 $368 $101 #
coedge $-1 $256 $256 $257 $369 reversed $160 $-1 #
coedge $-1 $257 $257 $256 $369 forward $162 $-1 #
coedge $-1 $258 $258 $163 $259 forward $253 $-1 #
edge $-1 $370 3.0714775648067455e-016 $370 6.2831853071796004 $258 $371 forward 7 unknown #
face $-1 $372 $373 $39 $-1 $374 reversed single #
loop $-1 $-1 $375 $164 #
plane-surface $-1 -40.00122074037904 0 0 1 0 0 0 0 -1 forward_v I I I I #
coedge $-1 $376 $271 $377 $378 forward $165 $-1 #
coedge $-1 $379 $167 $376 $380 forward $105 $-1 #
coedge $-1 $167 $379 $381 $382 forward $105 $-1 #
coedge $-1 $274 $273 $167 $267 reversed $275 $-1 #
edge $-1 $383 -19.011658408710563 $384 19.011658408710563 $266 $385 forward 7 unknown #
coedge $-1 $169 $168 $386 $387 forward $66 $-1 #
coedge $-1 $388 $389 $168 $270 reversed $373 $-1 #
edge $-1 $277 -40.00122074037904 $390 40.00122074037904 $269 $391 forward 7 unknown #
coedge $-1 $263 $392 $169 $272 reversed $165 $-1 #
edge $-1 $393 -40.00122074037904 $276 40.00122074037904 $271 $394 forward 7 unknown #
coedge $-1 $266 $170 $392 $395 forward $275 $-1 #
coedge $-1 $170 $266 $388 $396 reversed $275 $-1 #
loop $-1 $-1 $273 $372 #
vertex $-1 $171 $397 #
vertex $-1 $171 $398 #
straight-curve $-1 40.00122074037904 0 9.0398645793351253 0 1 0 I I #
face $-1 $399 $400 $40 $-1 $401 forward single #
loop $-1 $-1 $402 $172 #
plane-surface $-1 0 0 -9.0398645793351253 0 0 1 1 0 0 forward_v I I I I #
coedge $-1 $403 $404 $287 $405 forward $173 $-1 #
coedge $-1 $178 $175 $406 $407 reversed $109 $-1 #
coedge $-1 $175 $178 $408 $409 reversed $109 $-1 #
coedge $-1 $410 $411 $175 $286 forward $412 $-1 #
edge $-1 $413 -9.0398645793351253 $414 9.0398645793351253 $285 $415 forward 7 unknown #
coedge $-1 $177 $176 $282 $405 reversed $69 $-1 #
coedge $-1 $406 $402 $176 $289 forward $280 $-1 #
edge $-1 $416 5.1228350551324038 $293 9.3915756977317368 $288 $417 forward 7 unknown #
coedge $-1 $418 $408 $177 $291 forward $400 $-1 #
edge $-1 $292 -9.3915756977317368 $419 -5.1228350551324038 $290 $420 forward 7 unknown #
vertex $-1 $409 $421 #
vertex $-1 $407 $422 #
straight-curve $-1 -31.160185178113736 -16.648781074163807 0 0 0 -1 I I #
face $-1 $-1 $423 $41 $-1 $424 forward single #
loop $-1 $-1 $425 $180 #
plane-surface $-1 0 0 9.0398645793351253 0 0 1 1 0 0 forward_v I I I I #
coedge $-1 $426 $427 $428 $429 forward $181 $-1 #
coedge $-1 $430 $183 $185 $305 forward $113 $-1 #
coedge $-1 $183 $430 $431 $432 reversed $113 $-1 #
coedge $-1 $425 $186 $183 $302 forward $296 $-1 #
edge $-1 $308 1.5021678287616407 $433 20.272734175821945 $301 $434 forward 7 unknown #
coedge $-1 $427 $426 $184 $304 forward $181 $-1 #
edge $-1 $435 -30.238230632872419 $307 -24.614694985493124 $303 $436 forward 7 unknown #
edge $-1 $308 -9.3442924484213705 $435 4.4408806494695735e-015 $185 $437 forward 7 unknown #
coedge $-1 $186 $425 $427 $438 forward $296 $-1 #
vertex $-1 $187 $439 #
vertex $-1 $187 $440 #
straight-curve $-1 -12.389618831053433 -33.579165095101331 9.0398645793351236 0 1 0 I I #
coedge $-1 $310 $310 $-1 $441 reversed $190 $-1 #
edge $-1 $442 0 $442 6.2831853071796004 $191 $443 forward 7 unknown #
vertex $-1 $194 $444 #
ellipse-curve $-1 -25.797166221810791 -15.280316552746445 6.2280967556454758 0 -0.6018150307709319 0.79863550430605224 2 0 0 1 I I #
coedge $-1 $314 $314 $-1 $445 reversed $197 $-1 #
edge $-1 $446 0 $446 6.2831853071796004 $198 $447 forward 7 unknown #
vertex $-1 $201 $448 #
ellipse-curve $-1 -17.752637787356377 -15.280316552746445 6.2280967556454758 0 -0.6018150307709319 0.79863550430605224 2 0 0 1 I I #
face $-1 $-1 $449 $44 $-1 $450 reversed single #
loop $-1 $-1 $208 $202 #
plane-surface $-1 0 0 9.0398645793351253 0 0 1 1 0 0 forward_v I I I I #
coedge $-1 $451 $452 $453 $454 reversed $203 $-1 #
coedge $-1 $455 $205 $207 $328 forward $127 $-1 #
coedge $-1 $205 $455 $451 $456 forward $127 $-1 #
coedge $-1 $453 $208 $205 $325 forward $319 $-1 #
edge $-1 $331 -13.564854531698707 $457 -0.9384665212058021 $324 $458 forward 7 unknown #
coedge $-1 $459 $460 $206 $327 forward $449 $-1 #
edge $-1 $461 -35.945533574328756 $330 -28.811248389542008 $326 $462 forward 7 unknown #
edge $-1 $331 29.700221531667065 $461 38.02331681742114 $207 $463 forward 7 unknown #
coedge $-1 $208 $453 $459 $464 forward $319 $-1 #
vertex $-1 $327 $465 #
vertex $-1 $209 $466 #
straight-curve $-1 -20.816515058150962 34.001840224811446 9.0398645793351236 0 -1 0 I I #
coedge $-1 $333 $333 $-1 $467 reversed $212 $-1 #
edge $-1 $468 0 $468 6.2831853071796004 $213 $469 forward 7 unknown #
vertex $-1 $216 $470 #
ellipse-curve $-1 -18.291237456052382 16.868302976340907 5.4727219869417505 0 0.85716730853699208 0.51503806187062418 1 0 0 1 I I #
coedge $-1 $337 $337 $-1 $471 reversed $219 $-1 #
edge $-1 $472 0 $472 6.2831853071796004 $220 $473 forward 7 unknown #
vertex $-1 $223 $474 #
ellipse-curve $-1 -14.503321052904511 16.868302976340907 5.4727219869417505 0 0.85716730853699208 0.51503806187062418 1 0 0 1 I I #
coedge $-1 $341 $341 $-1 $475 reversed $226 $-1 #
edge $-1 $476 0 $476 6.2831853071796004 $227 $477 forward 7 unknown #
vertex $-1 $230 $478 #
ellipse-curve $-1 -10.715404649756639 16.868302976340907 5.4727219869417505 0 0.85716730853699208 0.51503806187062418 1 0 0 1 I I #
face $-1 $-1 $479 $48 $-1 $480 reversed single #
loop $-1 $-1 $237 $231 #
plane-surface $-1 0 0 9.0398645793351253 0 0 1 1 0 0 forward_v I I I I #
coedge $-1 $481 $482 $483 $484 reversed $232 $-1 #
coedge $-1 $485 $234 $236 $355 forward $146 $-1 #
coedge $-1 $234 $485 $481 $486 forward $146 $-1 #
coedge $-1 $483 $237 $234 $352 forward $346 $-1 #
edge $-1 $358 5.358984302338456 $487 17.985372312831359 $351 $488 forward 7 unknown #
coedge $-1 $489 $490 $235 $354 forward $479 $-1 #
edge $-1 $491 -35.945533574328756 $357 -28.811248389542008 $353 $492 forward 7 unknown #
edge $-1 $358 29.700221531667065 $491 38.02331681742114 $236 $493 forward 7 unknown #
coedge $-1 $237 $483 $489 $494 forward $346 $-1 #
vertex $-1 $238 $495 #
vertex $-1 $238 $496 #
straight-curve $-1 17.031162609923364 34.001840224811446 9.0398645793351236 0 -1 0 I I #
coedge $-1 $360 $360 $-1 $497 reversed $241 $-1 #
edge $-1 $498 0 $498 6.2831853071796004 $242 $499 forward 7 unknown #
vertex $-1 $245 $500 #
ellipse-curve $-1 19.55644021202194 16.868302976340907 5.4727219869417505 0 0.85716730853699208 0.51503806187062418 1 0 0 1 I I #
coedge $-1 $364 $364 $-1 $501 reversed $248 $-1 #
edge $-1 $502 0 $502 6.2831853071796004 $249 $503 forward 7 unknown #
vertex $-1 $252 $504 #
ellipse-curve $-1 23.344356615169815 16.868302976340907 5.4727219869417505 0 0.85716730853699208 0.51503806187062418 1 0 0 1 I I #
coedge $-1 $368 $368 $-1 $505 reversed $255 $-1 #
edge $-1 $506 0 $506 6.2831853071796004 $256 $507 forward 7 unknown #
vertex $-1 $259 $508 #
ellipse-curve $-1 27.13227301831769 16.868302976340907 5.4727219869417505 0 0.85716730853699208 0.51503806187062418 1 0 0 1 I I #
face $-1 $-1 $275 $39 $-1 $509 reversed single #
loop $-1 $-1 $388 $260 #
plane-surface $-1 0 19.011658408710563 0 0 -1 0 0 0 -1 forward_v I I I I #
coedge $-1 $510 $386 $389 $511 forward $261 $-1 #
coedge $-1 $392 $263 $264 $380 reversed $165 $-1 #
coedge $-1 $386 $510 $263 $378 reversed $261 $-1 #
edge $-1 $393 -9.0398645793351253 $512 9.0398645793351253 $377 $513 forward 7 unknown #
coedge $-1 $265 $264 $510 $514 forward $105 $-1 #
edge $-1 $384 -40.00122074037904 $512 40.00122074037904 $376 $515 forward 7 unknown #
coedge $-1 $389 $388 $265 $382 reversed $373 $-1 #
edge $-1 $516 -40.00122074037904 $383 40.00122074037904 $381 $517 forward 7 unknown #
vertex $-1 $267 $518 #
vertex $-1 $395 $519 #
straight-curve $-1 40.00122074037904 0 -9.0398645793351253 0 -1 0 I I #
coedge $-1 $375 $377 $268 $387 reversed $261 $-1 #
edge $-1 $390 -19.011658408710563 $393 19.011658408710563 $386 $520 forward 7 unknown #
coedge $-1 $381 $269 $274 $396 forward $373 $-1 #
coedge $-1 $269 $381 $375 $511 reversed $373 $-1 #
vertex $-1 $270 $521 #
straight-curve $-1 0 19.011658408710563 9.0398645793351253 -1 0 0 I I #
coedge $-1 $271 $376 $273 $395 reversed $165 $-1 #
vertex $-1 $387 $522 #
straight-curve $-1 0 -19.011658408710563 9.0398645793351253 1 0 0 I I #
edge $-1 $276 -9.0398645793351253 $384 9.0398645793351253 $273 $523 forward 7 unknown #
edge $-1 $277 -9.0398645793351253 $383 9.0398645793351253 $274 $524 forward 7 unknown #
point $-1 40.00122074037904 -19.011658408710563 9.0398645793351253 #
point $-1 40.00122074037904 19.011658408710563 9.0398645793351253 #
face $-1 $-1 $412 $40 $-1 $525 reversed single #
loop $-1 $-1 $418 $279 #
plane-surface $-1 0 0 9.0398645793351253 0 0 1 1 0 0 forward_v I I I I #
coedge $-1 $288 $526 $403 $527 forward $280 $-1 #
coedge $-1 $528 $282 $402 $527 reversed $173 $-1 #
coedge $-1 $282 $528 $418 $529 reversed $173 $-1 #
edge $-1 $419 -9.0398645793351253 $416 9.0398645793351253 $287 $530 forward 7 unknown #
coedge $-1 $526 $288 $283 $407 forward $280 $-1 #
edge $-1 $293 13.369833698490542 $413 22.210869260755846 $406 $531 forward 7 unknown #
coedge $-1 $290 $532 $284 $409 forward $400 $-1 #
edge $-1 $414 -22.210869260755846 $292 -13.369833698490542 $408 $533 forward 7 unknown #
coedge $-1 $534 $285 $532 $535 reversed $412 $-1 #
coedge $-1 $285 $534 $526 $536 reversed $412 $-1 #
loop $-1 $-1 $534 $399 #
vertex $-1 $536 $537 #
vertex $-1 $286 $538 #
straight-curve $-1 -40.00122074037904 -16.648781074163807 0 0 0 1 I I #
vertex $-1 $527 $539 #
straight-curve $-1 -31.160185178113736 -7.2572053764320703 -9.0398645793351253 0 -1 0 I I #
coedge $-1 $532 $290 $404 $529 forward $400 $-1 #
vertex $-1 $529 $540 #
straight-curve $-1 -31.160185178113736 -7.2572053764320703 9.0398645793351253 0 1 0 I I #
point $-1 -31.160185178113736 -16.648781074163807 9.0398645793351253 #
point $-1 -31.160185178113736 -16.648781074163807 -9.0398645793351253 #
loop $-1 $-1 $431 $295 #
plane-surface $-1 -31.160185178113736 -14.514410752864141 0 -1 0 0 0 0 1 forward_v I I I I #
coedge $-1 $306 $301 $541 $542 forward $296 $-1 #
coedge $-1 $303 $298 $430 $543 forward $181 $-1 #
coedge $-1 $298 $303 $306 $438 reversed $181 $-1 #
coedge $-1 $541 $431 $298 $429 reversed $423 $-1 #
edge $-1 $544 24.614694985493124 $545 30.238230632872419 $298 $546 forward 7 unknown #
coedge $-1 $300 $299 $426 $543 reversed $113 $-1 #
coedge $-1 $428 $541 $300 $432 forward $423 $-1 #
edge $-1 $433 -8.5764606742676222 $545 0.76783177415375325 $431 $547 forward 7 unknown #
vertex $-1 $542 $548 #
straight-curve $-1 -10.887451002291792 -11.548974696782325 9.0398645793351253 -1 0 0 I I #
vertex $-1 $304 $549 #
straight-curve $-1 -12.389618831053433 -19.011658408710563 33.654559564828247 0 0 1 I I #
straight-curve $-1 -12.389618831053433 -19.011658408710559 3.4163289319558316 0 -0.79863550430605224 -0.6018150307709319 I I #
edge $-1 $544 -31.160185178113736 $307 -12.389618831053433 $427 $550 forward 7 unknown #
point $-1 -12.389618831053433 -19.011658408710563 9.0398645793351253 #
point $-1 -12.389618831053433 -11.548974696782324 9.0398645793351253 #
edge $-1 $551 1 $551 0 $310 $-1 forward 7 unknown #
vertex $-1 $311 $552 #
ellipse-curve $-1 -25.797166221810791 -11.645696853067422 1.4047936003629804 0 -0.6018150307709319 0.79863550430605224 2 0 0 1 I I #
point $-1 -23.797166221810791 -15.280316552746452 6.2280967556454865 #
edge $-1 $553 1 $553 0 $314 $-1 forward 7 unknown #
vertex $-1 $315 $554 #
ellipse-curve $-1 -17.752637787356377 -11.645696853067422 1.4047936003629804 0 -0.6018150307709319 0.79863550430605224 2 0 0 1 I I #
point $-1 -15.752637787356377 -15.280316552746452 6.2280967556454865 #
loop $-1 $-1 $326 $318 #
plane-surface $-1 0 19.011658408710563 0 0 -1 0 0 0 -1 forward_v I I I I #
coedge $-1 $452 $321 $323 $456 reversed $203 $-1 #
coedge $-1 $321 $451 $555 $556 reversed $203 $-1 #
coedge $-1 $329 $324 $321 $454 forward $319 $-1 #
edge $-1 $457 -19.276892680840188 $557 -14.990181816100883 $453 $558 forward 7 unknown #
coedge $-1 $323 $322 $460 $559 reversed $127 $-1 #
edge $-1 $560 -38.02331681742114 $457 -29.700221531667065 $451 $561 forward 7 unknown #
vertex $-1 $325 $562 #
straight-curve $-1 -7.2516605264522553 14.724947543971254 9.0398645793351253 1 0 0 I I #
coedge $-1 $555 $326 $329 $464 reversed $449 $-1 #
coedge $-1 $326 $555 $455 $559 forward $449 $-1 #
vertex $-1 $327 $563 #
straight-curve $-1 -20.816515058150962 19.011658408710563 37.851112968877132 0 0 1 I I #
straight-curve $-1 -20.816515058150962 -0.57179699082672641 34.497923532586597 0 0.51503806187062418 -0.85716730853699208 I I #
edge $-1 $557 8.1901270476580574 $330 20.816515058150962 $459 $564 forward 7 unknown #
point $-1 -20.816515058150962 19.011658408710563 9.0398645793351253 #
point $-1 -20.816515058150962 14.724947543971258 9.0398645793351236 #
edge $-1 $565 1 $565 0 $333 $-1 forward 7 unknown #
vertex $-1 $334 $566 #
ellipse-curve $-1 -18.291237456052382 14.730681997395621 4.1883097665444611 0 0.85716730853699208 0.51503806187062418 1 0 0 1 I I #
point $-1 -17.291237456052382 16.86830297634091 5.4727219869417523 #
edge $-1 $567 1 $567 0 $337 $-1 forward 7 unknown #
vertex $-1 $338 $568 #
ellipse-curve $-1 -14.503321052904511 14.730681997395621 4.1883097665444611 0 0.85716730853699208 0.51503806187062418 1 0 0 1 I I #
point $-1 -13.503321052904511 16.86830297634091 5.4727219869417523 #
edge $-1 $569 1 $569 0 $341 $-1 forward 7 unknown #
vertex $-1 $342 $570 #
ellipse-curve $-1 -10.715404649756639 14.730681997395621 4.1883097665444611 0 0.85716730853699208 0.51503806187062418 1 0 0 1 I I #
point $-1 -9.7154046497566391 16.86830297634091 5.4727219869417523 #
loop $-1 $-1 $353 $345 #
plane-surface $-1 0 19.011658408710563 0 0 -1 0 0 0 -1 forward_v I I I I #
coedge $-1 $482 $348 $350 $486 reversed $232 $-1 #
coedge $-1 $348 $481 $571 $572 reversed $232 $-1 #
coedge $-1 $356 $351 $348 $484 forward $346 $-1 #
edge $-1 $487 -19.276892680840188 $573 -14.990181816100883 $483 $574 forward 7 unknown #
coedge $-1 $350 $349 $490 $575 reversed $146 $-1 #
edge $-1 $576 -38.02331681742114 $487 -29.700221531667065 $481 $577 forward 7 unknown #
vertex $-1 $352 $578 #
straight-curve $-1 11.672178307584907 14.724947543971254 9.0398645793351253 1 0 0 I I #
coedge $-1 $571 $353 $356 $494 reversed $479 $-1 #
coedge $-1 $353 $571 $485 $575 forward $479 $-1 #
vertex $-1 $354 $579 #
straight-curve $-1 17.031162609923364 19.011658408710563 37.851112968877132 0 0 1 I I #
straight-curve $-1 17.031162609923364 -0.57179699082672641 34.497923532586597 0 0.51503806187062418 -0.85716730853699208 I I #
edge $-1 $573 -29.657550620416266 $357 -17.031162609923364 $489 $580 forward 7 unknown #
point $-1 17.031162609923364 19.011658408710563 9.0398645793351253 #
point $-1 17.031162609923364 14.724947543971258 9.0398645793351236 #
edge $-1 $581 1 $581 0 $360 $-1 forward 7 unknown #
vertex $-1 $361 $582 #
ellipse-curve $-1 19.55644021202194 14.730681997395621 4.1883097665444611 0 0.85716730853699208 0.51503806187062418 1 0 0 1 I I #
point $-1 20.55644021202194 16.86830297634091 5.4727219869417523 #
edge $-1 $583 1 $583 0 $364 $-1 forward 7 unknown #
vertex $-1 $365 $584 #
ellipse-curve $-1 23.344356615169815 14.730681997395621 4.1883097665444611 0 0.85716730853699208 0.51503806187062418 1 0 0 1 I I #
point $-1 24.344356615169815 16.86830297634091 5.4727219869417523 #
edge $-1 $585 1 $585 0 $368 $-1 forward 7 unknown #
vertex $-1 $369 $586 #
ellipse-curve $-1 27.13227301831769 14.730681997395621 4.1883097665444611 0 0.85716730853699208 0.51503806187062418 1 0 0 1 I I #
point $-1 28.13227301831769 16.86830297634091 5.4727219869417523 #
plane-surface $-1 40.00122074037904 0 0 -1 0 0 0 0 1 forward_v I I I I #
coedge $-1 $377 $375 $379 $514 reversed $261 $-1 #
edge $-1 $390 -9.0398645793351253 $516 9.0398645793351253 $389 $587 forward 7 unknown #
vertex $-1 $514 $588 #
straight-curve $-1 -40.00122074037904 -19.011658408710563 0 0 0 -1 I I #
edge $-1 $512 -19.011658408710563 $516 19.011658408710563 $510 $589 forward 7 unknown #
straight-curve $-1 0 -19.011658408710563 -9.0398645793351253 -1 0 0 I I #
vertex $-1 $382 $590 #
straight-curve $-1 0 19.011658408710563 -9.0398645793351253 1 0 0 I I #
point $-1 40.00122074037904 19.011658408710563 -9.0398645793351253 #
point $-1 40.00122074037904 -19.011658408710563 -9.0398645793351253 #
straight-curve $-1 -40.00122074037904 0 9.0398645793351253 0 -1 0 I I #
point $-1 -40.00122074037904 19.011658408710563 9.0398645793351253 #
point $-1 -40.00122074037904 -19.011658408710563 9.0398645793351253 #
straight-curve $-1 40.00122074037904 -19.011658408710563 0 0 0 -1 I I #
straight-curve $-1 40.00122074037904 19.011658408710563 0 0 0 -1 I I #
plane-surface $-1 -40.00122074037904 0 0 1 0 0 0 0 -1 forward_v I I I I #
coedge $-1 $402 $406 $411 $536 forward $280 $-1 #
edge $-1 $591 -22.210869260755846 $416 -13.369833698490542 $402 $592 forward 7 unknown #
coedge $-1 $404 $403 $534 $593 reversed $173 $-1 #
edge $-1 $419 13.369833698490542 $594 22.210869260755846 $418 $595 forward 7 unknown #
straight-curve $-1 -31.160185178113736 -12.380040431564474 0 0 0 -1 I I #
straight-curve $-1 -17.790351479623194 -16.648781074163807 -9.0398645793351253 -1 0 0 I I #
coedge $-1 $408 $418 $410 $535 forward $400 $-1 #
straight-curve $-1 -17.790351479623194 -16.648781074163807 9.0398645793351253 1 0 0 I I #
coedge $-1 $411 $410 $528 $593 forward $412 $-1 #
edge $-1 $594 12.380040431564474 $414 16.648781074163807 $410 $596 forward 7 unknown #
edge $-1 $413 -16.648781074163807 $591 -12.380040431564474 $411 $597 forward 7 unknown #
point $-1 -40.00122074037904 -16.648781074163807 -9.0398645793351253 #
point $-1 -40.00122074037904 -16.648781074163807 9.0398645793351253 #
point $-1 -31.160185178113736 -12.380040431564474 -9.0398645793351253 #
point $-1 -31.160185178113736 -12.380040431564474 9.0398645793351253 #
coedge $-1 $431 $428 $425 $542 reversed $423 $-1 #
edge $-1 $433 -22.030190398319007 $544 -14.567506686390768 $425 $598 forward 7 unknown #
edge $-1 $545 -20.272734175821945 $435 -1.5021678287616407 $426 $599 forward 7 unknown #
vertex $-1 $438 $600 #
vertex $-1 $429 $601 #
straight-curve $-1 -31.160185178113736 -19.011658408710563 33.654559564828247 0 0 -1 I I #
straight-curve $-1 -31.160185178113736 -18.398440692537068 3.878421634745068 0 -0.79863550430605224 -0.6018150307709319 I I #
point $-1 -31.160185178113736 -11.548974696782324 9.0398645793351253 #
point $-1 -12.389618831053433 -19.011658408710563 3.416328931955829 #
straight-curve $-1 0 -19.011658408710563 9.0398645793351253 1 0 0 I I #
vertex $-1 $441 $602 #
point $-1 -23.797166221810791 -11.645696853067422 1.4047936003629804 #
vertex $-1 $445 $603 #
point $-1 -15.752637787356377 -11.645696853067422 1.4047936003629804 #
coedge $-1 $460 $459 $452 $556 forward $449 $-1 #
edge $-1 $557 28.811248389542008 $560 35.945533574328756 $555 $604 forward 7 unknown #
vertex $-1 $464 $605 #
straight-curve $-1 -8.1901270476580574 34.001840224811446 9.0398645793351236 0 1 0 I I #
edge $-1 $560 0.9384665212058021 $461 13.564854531698707 $460 $606 forward 7 unknown #
vertex $-1 $559 $607 #
straight-curve $-1 -8.1901270476580574 -0.57179699082672641 34.497923532586597 0 -0.51503806187062418 0.85716730853699208 I I #
point $-1 -8.1901270476580574 14.724947543971258 9.0398645793351236 #
point $-1 -20.816515058150962 19.011658408710563 1.9055793945483757 #
straight-curve $-1 0 19.011658408710563 9.0398645793351253 -1 0 0 I I #
vertex $-1 $467 $608 #
point $-1 -17.291237456052382 14.730681997395621 4.1883097665444611 #
vertex $-1 $471 $609 #
point $-1 -13.503321052904511 14.730681997395621 4.1883097665444611 #
vertex $-1 $475 $610 #
point $-1 -9.7154046497566391 14.730681997395621 4.1883097665444611 #
coedge $-1 $490 $489 $482 $572 forward $479 $-1 #
edge $-1 $573 28.811248389542008 $576 35.945533574328756 $571 $611 forward 7 unknown #
vertex $-1 $494 $612 #
straight-curve $-1 29.657550620416266 34.001840224811446 9.0398645793351236 0 1 0 I I #
edge $-1 $576 -17.985372312831359 $491 -5.358984302338456 $490 $613 forward 7 unknown #
vertex $-1 $575 $614 #
straight-curve $-1 29.657550620416266 -0.57179699082672641 34.497923532586597 0 -0.51503806187062418 0.85716730853699208 I I #
point $-1 29.657550620416266 14.724947543971258 9.0398645793351236 #
point $-1 17.031162609923364 19.011658408710563 1.9055793945483757 #
straight-curve $-1 0 19.011658408710563 9.0398645793351253 -1 0 0 I I #
vertex $-1 $497 $615 #
point $-1 20.55644021202194 14.730681997395621 4.1883097665444611 #
vertex $-1 $501 $616 #
point $-1 24.344356615169815 14.730681997395621 4.1883097665444611 #
vertex $-1 $505 $617 #
point $-1 28.13227301831769 14.730681997395621 4.1883097665444611 #
straight-curve $-1 -40.00122074037904 19.011658408710563 0 0 0 -1 I I #
point $-1 -40.00122074037904 -19.011658408710563 -9.0398645793351253 #
straight-curve $-1 -40.00122074037904 0 -9.0398645793351253 0 1 0 I I #
point $-1 -40.00122074037904 19.011658408710563 -9.0398645793351253 #
vertex $-1 $593 $618 #
straight-curve $-1 -17.790351479623194 -12.380040431564474 -9.0398645793351253 1 0 0 I I #
edge $-1 $594 -9.0398645793351253 $591 9.0398645793351253 $534 $619 forward 7 unknown #
vertex $-1 $535 $620 #
straight-curve $-1 -17.790351479623194 -12.380040431564474 9.0398645793351253 -1 0 0 I I #
straight-curve $-1 -40.00122074037904 0 9.0398645793351253 0 -1 0 I I #
straight-curve $-1 -40.00122074037904 0 -9.0398645793351253 0 1 0 I I #
straight-curve $-1 -31.160185178113736 -33.579165095101331 9.0398645793351236 0 -1 0 I I #
straight-curve $-1 -10.887451002291792 -19.011658408710563 3.4163289319558281 1 0 0 I I #
point $-1 -31.160185178113736 -19.011658408710563 9.0398645793351253 #
point $-1 -31.160185178113736 -19.011658408710563 3.416328931955829 #
point $-1 -25.797166221810791 -10.44206679152556 -0.19247740824912352 #
point $-1 -17.752637787356377 -10.44206679152556 -0.19247740824912352 #
straight-curve $-1 -8.1901270476580574 19.011658408710563 37.851112968877132 0 0 -1 I I #
point $-1 -8.1901270476580574 19.011658408710563 9.0398645793351253 #
straight-curve $-1 -7.2516605264522553 19.011658408710563 1.905579394548381 -1 0 0 I I #
point $-1 -8.1901270476580574 19.011658408710563 1.9055793945483757 #
point $-1 -18.291237456052382 13.873514688858627 3.6732717046738368 #
point $-1 -14.503321052904511 13.873514688858627 3.6732717046738368 #
point $-1 -10.715404649756639 13.873514688858627 3.6732717046738368 #
straight-curve $-1 29.657550620416266 19.011658408710563 37.851112968877132 0 0 -1 I I #
point $-1 29.657550620416266 19.011658408710563 9.0398645793351253 #
straight-curve $-1 11.672178307584907 19.011658408710563 1.905579394548381 -1 0 0 I I #
point $-1 29.657550620416266 19.011658408710563 1.9055793945483757 #
point $-1 19.55644021202194 13.873514688858627 3.6732717046738368 #
point $-1 23.344356615169815 13.873514688858627 3.6732717046738368 #
point $-1 27.13227301831769 13.873514688858627 3.6732717046738368 #
point $-1 -40.00122074037904 -12.380040431564474 -9.0398645793351253 #
straight-curve $-1 -40.00122074037904 -12.380040431564474 0 0 0 -1 I I #
point $-1 -40.00122074037904 -12.380040431564474 9.0398645793351253 #
End-of-ACIS-data 