500 0 9 0           
7 Unknown 11 ACIS 5.0 NT 24 Fri Mar 26 18:13:17 1999 
-1 9.9999999999999995e-007 1e-010 
body $-1 $9 $-1 $10 #
body $-1 $11 $-1 $12 #
body $-1 $13 $-1 $14 #
body $-1 $15 $-1 $16 #
body $-1 $17 $-1 $18 #
body $-1 $19 $-1 $20 #
body $-1 $21 $-1 $22 #
body $-1 $23 $-1 $24 #
body $-1 $25 $-1 $26 #
lump $-1 $-1 $27 $0 #
transform $-1 1 0 0 0 1 0 0 0 1 47.164525284585103 24.964797709153846 10.286560252399358 1 rotate no_reflect no_shear #
lump $-1 $-1 $28 $1 #
transform $-1 1 0 0 0 1 0 0 0 1 47.164525284585103 24.964797709153846 10.286560252399358 1 rotate no_reflect no_shear #
lump $-1 $-1 $29 $2 #
transform $-1 1 0 0 0 1 0 0 0 1 47.164525284585103 24.964797709153846 10.286560252399358 1 rotate no_reflect no_shear #
lump $-1 $-1 $30 $3 #
transform $-1 1 0 0 0 1 0 0 0 1 47.164525284585103 24.964797709153846 10.286560252399358 1 rotate no_reflect no_shear #
lump $-1 $-1 $31 $4 #
transform $-1 1 0 0 0 1 0 0 0 1 47.164525284585103 24.964797709153846 10.286560252399358 1 rotate no_reflect no_shear #
lump $-1 $-1 $32 $5 #
transform $-1 1 0 0 0 1 0 0 0 1 47.164525284585103 24.964797709153846 10.286560252399358 1 rotate no_reflect no_shear #
lump $-1 $-1 $33 $6 #
transform $-1 1 0 0 0 1 0 0 0 1 47.164525284585103 24.964797709153846 10.286560252399358 1 rotate no_reflect no_shear #
lump $-1 $-1 $34 $7 #
transform $-1 1 0 0 0 1 0 0 0 1 47.164525284585103 24.964797709153846 10.286560252399358 1 rotate no_reflect no_shear #
lump $-1 $-1 $35 $8 #
transform $-1 1 0 0 0 1 0 0 0 1 47.164525284585103 24.964797709153846 10.286560252399358 1 rotate no_reflect no_shear #
shell $-1 $-1 $-1 $36 $-1 $9 #
shell $-1 $-1 $-1 $37 $-1 $11 #
shell $-1 $-1 $-1 $38 $-1 $13 #
shell $-1 $-1 $-1 $39 $-1 $15 #
shell $-1 $-1 $-1 $40 $-1 $17 #
shell $-1 $-1 $-1 $41 $-1 $19 #
shell $-1 $-1 $-1 $42 $-1 $21 #
shell $-1 $-1 $-1 $43 $-1 $23 #
shell $-1 $-1 $-1 $44 $-1 $25 #
face $-1 $45 $46 $27 $-1 $47 forward single #
face $-1 $48 $49 $28 $-1 $50 reversed single #
face $-1 $51 $52 $29 $-1 $53 reversed single #
face $-1 $54 $55 $30 $-1 $56 forward single #
face $-1 $57 $58 $31 $-1 $59 forward single #
face $-1 $60 $61 $32 $-1 $62 reversed single #
face $-1 $63 $64 $33 $-1 $65 forward single #
face $-1 $66 $67 $34 $-1 $68 forward single #
face $-1 $69 $70 $35 $-1 $71 forward single #
face $-1 $72 $73 $27 $-1 $74 reversed single #
loop $-1 $-1 $75 $36 #
plane-surface $-1 0 0 10.286560252399358 0 0 1 1 0 0 forward_v I I I I #
face $-1 $76 $77 $28 $-1 $78 reversed single #
loop $-1 $-1 $79 $37 #
plane-surface $-1 -41.520661022466101 -21.964797709153846 0 0 -1 0 0 0 -1 forward_v I I I I #
face $-1 $80 $81 $29 $-1 $82 reversed single #
loop $-1 $-1 $83 $38 #
plane-surface $-1 -16.05361589112777 76.882190826885889 95.270708078932728 1 0 0 0 -0.83867057594974714 -0.54463902268945019 forward_v I I I I #
face $-1 $84 $85 $30 $-1 $86 forward single #
loop $-1 $87 $88 $39 #
cone-surface $-1 -10.436381966508748 21.823890404751726 5.8569530055601344 0 -0.83867057594974714 -0.54463902268945019 0.5 0 0 1 I I 0 1 0.5 forward I I I I #
face $-1 $89 $90 $31 $-1 $91 forward single #
loop $-1 $92 $93 $40 #
cone-surface $-1 -2.0105310795802112 21.823890404751726 5.8569530055601344 0 -0.83867057594974714 -0.54463902268945019 0.5 0 0 1 I I 0 1 0.5 forward I I I I #
face $-1 $94 $95 $32 $-1 $96 reversed single #
loop $-1 $-1 $97 $41 #
plane-surface $-1 -8.8851476803603404 -105.82057610237929 52.228221696585138 -1 0 0 0 -0.85716730853699208 0.51503806187062418 forward_v I I I I #
face $-1 $98 $99 $33 $-1 $100 forward single #
loop $-1 $101 $102 $42 #
cone-surface $-1 -20.619350008298913 -21.581697733522152 6.1319757971879874 0 0.85716730853699208 -0.51503806187062418 1 0 0 1 I I 0 1 1 forward I I I I #
face $-1 $103 $104 $34 $-1 $105 forward single #
loop $-1 $106 $107 $43 #
cone-surface $-1 -16.219024135321948 -21.581697733522152 6.1319757971879874 0 0.85716730853699208 -0.51503806187062418 1 0 0 1 I I 0 1 1 forward I I I I #
face $-1 $108 $109 $35 $-1 $110 forward single #
loop $-1 $111 $112 $44 #
cone-surface $-1 -11.818698262344981 -21.581697733522152 6.1319757971879874 0 0.85716730853699208 -0.51503806187062418 1 0 0 1 I I 0 1 1 forward I I I I #
face $-1 $113 $114 $27 $-1 $115 reversed single #
loop $-1 $-1 $116 $45 #
plane-surface $-1 0 0 -10.286560252399358 0 0 1 1 0 0 forward_v I I I I #
coedge $-1 $117 $118 $119 $120 forward $46 $-1 #
face $-1 $121 $122 $28 $-1 $123 forward single #
loop $-1 $-1 $124 $48 #
plane-surface $-1 -35.876796760347098 -23.464797709153846 0 -1 0 0 0 0 1 forward_v I I I I #
coedge $-1 $125 $126 $127 $128 forward $49 $-1 #
face $-1 $129 $130 $29 $-1 $131 reversed single #
loop $-1 $-1 $132 $51 #
plane-surface $-1 -6.2234565230444758 -2.2288083427529131 43.895426165716138 0 0.83867057594974714 0.54463902268945019 1 0 0 forward_v I I I I #
coedge $-1 $133 $134 $135 $136 reversed $52 $-1 #
face $-1 $-1 $137 $30 $-1 $138 forward single #
loop $-1 $139 $140 $54 #
cone-surface $-1 -10.436381966508748 21.157192472004173 5.4239943195951454 0 -0.83867057594974714 -0.54463902268945019 0.25 0 0 1 I I -0.70710678118654746 0.70710678118654746 0.25 forward I I I I #
loop $-1 $-1 $141 $39 #
coedge $-1 $88 $88 $142 $143 reversed $55 $-1 #
face $-1 $-1 $144 $31 $-1 $145 forward single #
loop $-1 $146 $147 $57 #
cone-surface $-1 -2.0105310795802112 21.157192472004173 5.4239943195951454 0 -0.83867057594974714 -0.54463902268945019 0.25 0 0 1 I I -0.70710678118654746 0.70710678118654746 0.25 forward I I I I #
loop $-1 $-1 $148 $40 #
coedge $-1 $93 $93 $149 $150 reversed $58 $-1 #
face $-1 $151 $152 $32 $-1 $153 reversed single #
loop $-1 $-1 $154 $60 #
plane-surface $-1 -16.219024135321948 -24.964797709153842 3.6451703133436126 0 -0.85716730853699208 0.51503806187062418 1 0 0 forward_v I I I I #
coedge $-1 $155 $156 $157 $158 reversed $61 $-1 #
face $-1 $-1 $159 $33 $-1 $160 forward single #
loop $-1 $161 $162 $63 #
cone-surface $-1 -20.619350008298913 -19.765288869861315 5.0405672805691744 0 0.85716730853699208 -0.51503806187062418 0.5 0 0 1 I I -0.70710678118654746 0.70710678118654746 0.5 forward I I I I #
loop $-1 $-1 $163 $42 #
coedge $-1 $102 $102 $164 $165 reversed $64 $-1 #
face $-1 $-1 $166 $34 $-1 $167 forward single #
loop $-1 $168 $169 $66 #
cone-surface $-1 -16.219024135321948 -19.765288869861315 5.0405672805691744 0 0.85716730853699208 -0.51503806187062418 0.5 0 0 1 I I -0.70710678118654746 0.70710678118654746 0.5 forward I I I I #
loop $-1 $-1 $170 $43 #
coedge $-1 $107 $107 $171 $172 reversed $67 $-1 #
face $-1 $-1 $173 $35 $-1 $174 forward single #
loop $-1 $175 $176 $69 #
cone-surface $-1 -11.818698262344981 -19.765288869861315 5.0405672805691744 0 0.85716730853699208 -0.51503806187062418 0.5 0 0 1 I I -0.70710678118654746 0.70710678118654746 0.5 forward I I I I #
loop $-1 $-1 $177 $44 #
coedge $-1 $112 $112 $178 $179 reversed $70 $-1 #
face $-1 $180 $181 $27 $-1 $182 reversed single #
loop $-1 $-1 $183 $72 #
plane-surface $-1 0 -24.964797709153846 0 0 1 0 0 0 1 forward_v I I I I #
coedge $-1 $184 $185 $186 $187 forward $73 $-1 #
coedge $-1 $188 $75 $189 $190 forward $46 $-1 #
coedge $-1 $75 $188 $191 $192 forward $46 $-1 #
coedge $-1 $193 $194 $75 $120 reversed $195 $-1 #
edge $-1 $196 -24.964797709153846 $197 24.964797709153846 $119 $198 forward 7 unknown #
face $-1 $199 $200 $28 $-1 $201 reversed single #
loop $-1 $-1 $202 $76 #
plane-surface $-1 0 0 10.286560252399358 0 0 1 1 0 0 forward_v I I I I #
coedge $-1 $203 $204 $205 $206 reversed $77 $-1 #
coedge $-1 $207 $79 $208 $209 reversed $49 $-1 #
coedge $-1 $79 $207 $210 $211 reversed $49 $-1 #
coedge $-1 $204 $203 $79 $128 reversed $77 $-1 #
edge $-1 $212 -10.286560252399358 $213 10.286560252399358 $127 $214 forward 7 unknown #
face $-1 $215 $216 $29 $-1 $217 reversed single #
loop $-1 $-1 $218 $80 #
plane-surface $-1 3.6067028450388179 76.882190826885889 95.270708078932728 -1 0 0 0 0.83867057594974714 0.54463902268945019 forward_v I I I I #
coedge $-1 $219 $220 $221 $222 reversed $81 $-1 #
coedge $-1 $134 $83 $223 $224 reversed $52 $-1 #
coedge $-1 $83 $133 $219 $225 reversed $52 $-1 #
coedge $-1 $221 $226 $83 $136 forward $227 $-1 #
edge $-1 $228 13.476297704289099 $229 18.844051735573117 $135 $230 forward 7 unknown #
loop $-1 $-1 $142 $84 #
plane-surface $-1 -6.2234565230444758 -2.2288083427529131 43.895426165716138 0 0.83867057594974714 0.54463902268945019 1 0 0 forward_v I I I I #
loop $-1 $-1 $231 $54 #
coedge $-1 $140 $140 $141 $232 reversed $85 $-1 #
coedge $-1 $141 $141 $140 $232 forward $87 $-1 #
coedge $-1 $142 $142 $88 $143 forward $137 $-1 #
edge $-1 $233 -2.0892198425336296e-015 $233 6.2831853071795987 $142 $234 forward 7 unknown #
loop $-1 $-1 $149 $89 #
plane-surface $-1 -6.2234565230444758 -2.2288083427529131 43.895426165716138 0 0.83867057594974714 0.54463902268945019 1 0 0 forward_v I I I I #
loop $-1 $-1 $235 $57 #
coedge $-1 $147 $147 $148 $236 reversed $90 $-1 #
coedge $-1 $148 $148 $147 $236 forward $92 $-1 #
coedge $-1 $149 $149 $93 $150 forward $144 $-1 #
edge $-1 $237 -2.0892198425336296e-015 $237 6.2831853071795987 $149 $238 forward 7 unknown #
face $-1 $239 $240 $32 $-1 $241 forward single #
loop $-1 $-1 $242 $94 #
plane-surface $-1 -23.552900590283556 -105.82057610237929 52.228221696585138 1 0 0 0 0.85716730853699208 -0.51503806187062418 forward_v I I I I #
coedge $-1 $243 $244 $245 $246 reversed $95 $-1 #
coedge $-1 $156 $97 $247 $248 reversed $61 $-1 #
coedge $-1 $97 $155 $243 $249 reversed $61 $-1 #
coedge $-1 $245 $250 $97 $158 forward $240 $-1 #
edge $-1 $251 27.9454903420358 $252 31.93603987451452 $157 $253 forward 7 unknown #
loop $-1 $-1 $164 $98 #
plane-surface $-1 -16.219024135321948 -24.964797709153842 3.6451703133436126 0 -0.85716730853699208 0.51503806187062418 1 0 0 forward_v I I I I #
loop $-1 $-1 $254 $63 #
coedge $-1 $162 $162 $163 $255 reversed $99 $-1 #
coedge $-1 $163 $163 $162 $255 forward $101 $-1 #
coedge $-1 $164 $164 $102 $165 forward $159 $-1 #
edge $-1 $256 1.4702199255364637e-016 $256 6.2831853071796004 $164 $257 forward 7 unknown #
loop $-1 $-1 $171 $103 #
plane-surface $-1 -16.219024135321948 -24.964797709153842 3.6451703133436126 0 -0.85716730853699208 0.51503806187062418 1 0 0 forward_v I I I I #
loop $-1 $-1 $258 $66 #
coedge $-1 $169 $169 $170 $259 reversed $104 $-1 #
coedge $-1 $170 $170 $169 $259 forward $106 $-1 #
coedge $-1 $171 $171 $107 $172 forward $166 $-1 #
edge $-1 $260 1.4702199255364637e-016 $260 6.2831853071796004 $171 $261 forward 7 unknown #
loop $-1 $-1 $178 $108 #
plane-surface $-1 -16.219024135321948 -24.964797709153842 3.6451703133436126 0 -0.85716730853699208 0.51503806187062418 1 0 0 forward_v I I I I #
loop $-1 $-1 $262 $69 #
coedge $-1 $176 $176 $177 $263 reversed $109 $-1 #
coedge $-1 $177 $177 $176 $263 forward $111 $-1 #
coedge $-1 $178 $178 $112 $179 forward $173 $-1 #
edge $-1 $264 1.4702199255364637e-016 $264 6.2831853071796004 $178 $265 forward 7 unknown #
face $-1 $266 $267 $27 $-1 $268 reversed single #
loop $-1 $-1 $269 $113 #
plane-surface $-1 -47.164525284585103 0 0 1 0 0 0 0 -1 forward_v I I I I #
coedge $-1 $270 $191 $271 $272 forward $114 $-1 #
coedge $-1 $273 $116 $270 $274 forward $73 $-1 #
coedge $-1 $116 $273 $275 $276 forward $73 $-1 #
coedge $-1 $194 $193 $116 $187 reversed $195 $-1 #
edge $-1 $277 -24.964797709153846 $278 24.964797709153846 $186 $279 forward 7 unknown #
coedge $-1 $118 $117 $280 $281 forward $46 $-1 #
coedge $-1 $282 $283 $117 $190 reversed $267 $-1 #
edge $-1 $197 -47.164525284585103 $284 47.164525284585103 $189 $285 forward 7 unknown #
coedge $-1 $183 $286 $118 $192 reversed $114 $-1 #
edge $-1 $287 -47.164525284585103 $196 47.164525284585103 $191 $288 forward 7 unknown #
coedge $-1 $186 $119 $286 $289 forward $195 $-1 #
coedge $-1 $119 $186 $282 $290 reversed $195 $-1 #
loop $-1 $-1 $193 $266 #
vertex $-1 $120 $291 #
vertex $-1 $120 $292 #
straight-curve $-1 47.164525284585103 0 10.286560252399358 0 1 0 I I #
face $-1 $293 $294 $28 $-1 $295 reversed single #
loop $-1 $-1 $296 $121 #
plane-surface $-1 -47.164525284585103 0 0 1 0 0 0 0 -1 forward_v I I I I #
coedge $-1 $210 $297 $204 $298 forward $122 $-1 #
coedge $-1 $127 $124 $299 $300 reversed $77 $-1 #
coedge $-1 $124 $127 $202 $298 reversed $77 $-1 #
coedge $-1 $301 $302 $124 $206 forward $303 $-1 #
edge $-1 $304 -10.286560252399358 $305 10.286560252399358 $205 $306 forward 7 unknown #
coedge $-1 $126 $125 $296 $307 reversed $49 $-1 #
coedge $-1 $299 $308 $125 $209 forward $294 $-1 #
edge $-1 $309 -26.404194773352053 $213 -15.116466249114048 $208 $310 forward 7 unknown #
coedge $-1 $311 $202 $126 $211 forward $122 $-1 #
edge $-1 $212 15.116466249114048 $312 26.404194773352053 $210 $313 forward 7 unknown #
vertex $-1 $211 $314 #
vertex $-1 $209 $315 #
straight-curve $-1 -35.876796760347098 -21.964797709153846 0 0 0 -1 I I #
face $-1 $-1 $227 $29 $-1 $316 forward single #
loop $-1 $-1 $317 $129 #
plane-surface $-1 0 24.964797709153846 0 0 -1 0 0 0 -1 forward_v I I I I #
coedge $-1 $318 $319 $320 $321 reversed $130 $-1 #
coedge $-1 $322 $132 $134 $225 forward $81 $-1 #
coedge $-1 $132 $322 $318 $323 forward $81 $-1 #
coedge $-1 $320 $135 $132 $222 forward $227 $-1 #
edge $-1 $229 -12.941887629605532 $324 6.7184311065610558 $221 $325 forward 7 unknown #
coedge $-1 $326 $327 $133 $224 forward $216 $-1 #
edge $-1 $328 -45.614410420160205 $228 -37.348793787067009 $223 $329 forward 7 unknown #
edge $-1 $229 40.073977646415742 $328 49.929595418307706 $134 $330 forward 7 unknown #
coedge $-1 $135 $320 $326 $331 forward $227 $-1 #
loop $-1 $-1 $320 $215 #
vertex $-1 $224 $332 #
vertex $-1 $136 $333 #
straight-curve $-1 -16.05361589112777 38.441095413442945 10.286560252399362 0 -1 0 I I #
coedge $-1 $231 $231 $-1 $334 reversed $139 $-1 #
edge $-1 $335 0 $335 6.2831853071796004 $140 $336 forward 7 unknown #
vertex $-1 $143 $337 #
ellipse-curve $-1 -10.436381966508748 22.280920693511835 6.1537519358527586 0 0.83867057594974714 0.54463902268945019 0.5 0 0 1 I I #
coedge $-1 $235 $235 $-1 $338 reversed $146 $-1 #
edge $-1 $339 0 $339 6.2831853071796004 $147 $340 forward 7 unknown #
vertex $-1 $150 $341 #
ellipse-curve $-1 -2.0105310795802112 22.280920693511835 6.1537519358527586 0 0.83867057594974714 0.54463902268945019 0.5 0 0 1 I I #
face $-1 $-1 $342 $32 $-1 $343 reversed single #
loop $-1 $-1 $157 $151 #
plane-surface $-1 0 0 10.286560252399358 0 0 1 1 0 0 forward_v I I I I #
coedge $-1 $344 $345 $346 $347 reversed $152 $-1 #
coedge $-1 $348 $154 $156 $249 forward $95 $-1 #
coedge $-1 $154 $348 $344 $349 forward $95 $-1 #
coedge $-1 $346 $157 $154 $246 forward $240 $-1 #
edge $-1 $252 0.77563561269936621 $350 15.443388522622582 $245 $351 forward 7 unknown #
coedge $-1 $352 $353 $155 $248 forward $342 $-1 #
edge $-1 $354 -22.468940534948963 $251 -15.827550595893211 $247 $355 forward 7 unknown #
edge $-1 $252 -7.7480672360116367 $354 6.7783465533581367e-015 $156 $356 forward 7 unknown #
coedge $-1 $157 $346 $352 $357 forward $240 $-1 #
vertex $-1 $158 $358 #
vertex $-1 $158 $359 #
straight-curve $-1 -8.8851476803603404 -52.910288051189646 10.286560252399358 0 1 0 I I #
coedge $-1 $254 $254 $-1 $360 reversed $161 $-1 #
edge $-1 $361 0 $361 6.2831853071796004 $162 $362 forward 7 unknown #
vertex $-1 $165 $363 #
ellipse-curve $-1 -20.619350008298913 -22.969522942914484 6.9658652828714844 0 -0.85716730853699208 0.51503806187062418 1 0 0 1 I I #
coedge $-1 $258 $258 $-1 $364 reversed $168 $-1 #
edge $-1 $365 0 $365 6.2831853071796004 $169 $366 forward 7 unknown #
vertex $-1 $172 $367 #
ellipse-curve $-1 -16.219024135321948 -22.969522942914484 6.9658652828714844 0 -0.85716730853699208 0.51503806187062418 1 0 0 1 I I #
coedge $-1 $262 $262 $-1 $368 reversed $175 $-1 #
edge $-1 $369 0 $369 6.2831853071796004 $176 $370 forward 7 unknown #
vertex $-1 $179 $371 #
ellipse-curve $-1 -11.818698262344981 -22.969522942914484 6.9658652828714844 0 -0.85716730853699208 0.51503806187062418 1 0 0 1 I I #
face $-1 $-1 $195 $27 $-1 $372 reversed single #
loop $-1 $-1 $282 $180 #
plane-surface $-1 0 24.964797709153846 0 0 -1 0 0 0 -1 forward_v I I I I #
coedge $-1 $373 $280 $283 $374 forward $181 $-1 #
coedge $-1 $286 $183 $184 $274 reversed $114 $-1 #
coedge $-1 $280 $373 $183 $272 reversed $181 $-1 #
edge $-1 $287 -10.286560252399358 $375 10.286560252399358 $271 $376 forward 7 unknown #
coedge $-1 $185 $184 $373 $377 forward $73 $-1 #
edge $-1 $278 -47.164525284585103 $375 47.164525284585103 $270 $378 forward 7 unknown #
coedge $-1 $283 $282 $185 $276 reversed $267 $-1 #
edge $-1 $379 -47.164525284585103 $277 47.164525284585103 $275 $380 forward 7 unknown #
vertex $-1 $187 $381 #
vertex $-1 $289 $382 #
straight-curve $-1 47.164525284585103 0 -10.286560252399358 0 -1 0 I I #
coedge $-1 $269 $271 $188 $281 reversed $181 $-1 #
edge $-1 $284 -24.964797709153846 $287 24.964797709153846 $280 $383 forward 7 unknown #
coedge $-1 $275 $189 $194 $290 forward $267 $-1 #
coedge $-1 $189 $275 $269 $374 reversed $267 $-1 #
vertex $-1 $190 $384 #
straight-curve $-1 0 24.964797709153846 10.286560252399358 -1 0 0 I I #
coedge $-1 $191 $270 $193 $289 reversed $114 $-1 #
vertex $-1 $281 $385 #
straight-curve $-1 0 -24.964797709153846 10.286560252399358 1 0 0 I I #
edge $-1 $196 -10.286560252399358 $278 10.286560252399358 $193 $386 forward 7 unknown #
edge $-1 $197 -10.286560252399358 $277 10.286560252399358 $194 $387 forward 7 unknown #
point $-1 47.164525284585103 -24.964797709153846 10.286560252399358 #
point $-1 47.164525284585103 24.964797709153846 10.286560252399358 #
face $-1 $-1 $303 $28 $-1 $388 reversed single #
loop $-1 $-1 $299 $199 #
plane-surface $-1 0 0 -10.286560252399358 0 0 1 1 0 0 forward_v I I I I #
coedge $-1 $389 $390 $207 $307 forward $200 $-1 #
coedge $-1 $202 $311 $301 $391 forward $122 $-1 #
edge $-1 $305 -13.232398854576923 $212 -10.232398854576923 $202 $392 forward 7 unknown #
coedge $-1 $393 $208 $203 $300 forward $294 $-1 #
edge $-1 $213 10.232398854576923 $304 13.232398854576923 $299 $394 forward 7 unknown #
coedge $-1 $395 $205 $297 $391 reversed $303 $-1 #
coedge $-1 $205 $395 $393 $396 reversed $303 $-1 #
loop $-1 $-1 $205 $293 #
vertex $-1 $396 $397 #
vertex $-1 $206 $398 #
straight-curve $-1 -35.876796760347098 -24.964797709153846 0 0 0 1 I I #
edge $-1 $312 -10.286560252399358 $309 10.286560252399358 $296 $399 forward 7 unknown #
coedge $-1 $208 $393 $389 $400 forward $294 $-1 #
vertex $-1 $209 $401 #
straight-curve $-1 -20.76033051123305 -21.964797709153846 -10.286560252399358 1 0 0 I I #
coedge $-1 $297 $210 $390 $402 forward $122 $-1 #
vertex $-1 $402 $403 #
straight-curve $-1 -20.76033051123305 -21.964797709153846 10.286560252399358 -1 0 0 I I #
point $-1 -35.876796760347098 -21.964797709153846 10.286560252399358 #
point $-1 -35.876796760347098 -21.964797709153846 -10.286560252399358 #
plane-surface $-1 0 0 10.286560252399358 0 0 1 1 0 0 forward_v I I I I #
coedge $-1 $327 $326 $319 $404 forward $216 $-1 #
coedge $-1 $319 $218 $220 $323 reversed $130 $-1 #
coedge $-1 $218 $318 $317 $404 reversed $130 $-1 #
coedge $-1 $226 $221 $218 $321 forward $227 $-1 #
edge $-1 $324 -18.844051735573117 $405 -13.476297704289099 $320 $406 forward 7 unknown #
coedge $-1 $220 $219 $327 $407 reversed $81 $-1 #
edge $-1 $408 -49.929595418307706 $324 -40.073977646415742 $318 $409 forward 7 unknown #
vertex $-1 $222 $410 #
straight-curve $-1 -3.1117282615222379 19.597043677869827 10.286560252399358 1 0 0 I I #
coedge $-1 $317 $223 $226 $331 reversed $216 $-1 #
coedge $-1 $223 $317 $322 $407 forward $216 $-1 #
vertex $-1 $224 $411 #
straight-curve $-1 -16.05361589112777 24.964797709153846 47.635354039466364 0 0 1 I I #
straight-curve $-1 -16.05361589112777 -2.2288083427529131 43.895426165716138 0 0.54463902268945019 -0.83867057594974714 I I #
edge $-1 $405 -3.6067028450388179 $228 16.05361589112777 $326 $412 forward 7 unknown #
point $-1 -16.05361589112777 24.964797709153846 10.286560252399358 #
point $-1 -16.05361589112777 19.597043677869827 10.286560252399362 #
edge $-1 $413 1 $413 0 $231 $-1 forward 7 unknown #
vertex $-1 $232 $414 #
ellipse-curve $-1 -10.436381966508748 21.36686011599161 5.5601540752675076 0 0.83867057594974714 0.54463902268945019 0.5 0 0 1 I I #
point $-1 -9.9363819665087476 22.280920693511838 6.1537519358527621 #
edge $-1 $415 1 $415 0 $235 $-1 forward 7 unknown #
vertex $-1 $236 $416 #
ellipse-curve $-1 -2.0105310795802112 21.36686011599161 5.5601540752675076 0 0.83867057594974714 0.54463902268945019 0.5 0 0 1 I I #
point $-1 -1.5105310795802112 22.280920693511838 6.1537519358527621 #
loop $-1 $-1 $247 $239 #
plane-surface $-1 0 -24.964797709153846 0 0 1 0 0 0 1 forward_v I I I I #
coedge $-1 $345 $242 $244 $349 reversed $152 $-1 #
coedge $-1 $242 $344 $417 $418 reversed $152 $-1 #
coedge $-1 $250 $245 $242 $347 forward $240 $-1 #
edge $-1 $350 -31.93603987451452 $419 -27.9454903420358 $346 $420 forward 7 unknown #
coedge $-1 $244 $243 $353 $421 reversed $95 $-1 #
edge $-1 $422 -6.7783465533581367e-015 $350 7.7480672360116367 $344 $423 forward 7 unknown #
vertex $-1 $246 $424 #
straight-curve $-1 -8.1095120676609742 -20.974248176675122 10.286560252399358 -1 0 0 I I #
coedge $-1 $417 $247 $250 $357 reversed $342 $-1 #
coedge $-1 $247 $417 $348 $421 forward $342 $-1 #
vertex $-1 $248 $425 #
straight-curve $-1 -8.8851476803603404 -24.964797709153842 26.114110848292569 0 0 1 I I #
straight-curve $-1 -8.8851476803603404 -24.964797709153842 3.6451703133436126 0 -0.51503806187062418 -0.85716730853699208 I I #
edge $-1 $419 -23.552900590283556 $251 -8.8851476803603404 $352 $426 forward 7 unknown #
point $-1 -8.8851476803603404 -24.964797709153846 10.286560252399358 #
point $-1 -8.8851476803603404 -20.974248176675125 10.286560252399358 #
edge $-1 $427 1 $427 0 $254 $-1 forward 7 unknown #
vertex $-1 $255 $428 #
ellipse-curve $-1 -20.619350008298913 -20.193872524129812 5.2980863115044867 0 -0.85716730853699208 0.51503806187062418 1 0 0 1 I I #
point $-1 -19.619350008298913 -22.969522942914491 6.9658652828714889 #
edge $-1 $429 1 $429 0 $258 $-1 forward 7 unknown #
vertex $-1 $259 $430 #
ellipse-curve $-1 -16.219024135321948 -20.193872524129812 5.2980863115044867 0 -0.85716730853699208 0.51503806187062418 1 0 0 1 I I #
point $-1 -15.219024135321948 -22.969522942914491 6.9658652828714889 #
edge $-1 $431 1 $431 0 $262 $-1 forward 7 unknown #
vertex $-1 $263 $432 #
ellipse-curve $-1 -11.818698262344981 -20.193872524129812 5.2980863115044867 0 -0.85716730853699208 0.51503806187062418 1 0 0 1 I I #
point $-1 -10.818698262344981 -22.969522942914491 6.9658652828714889 #
plane-surface $-1 47.164525284585103 0 0 -1 0 0 0 0 1 forward_v I I I I #
coedge $-1 $271 $269 $273 $377 reversed $181 $-1 #
edge $-1 $284 -10.286560252399358 $379 10.286560252399358 $283 $433 forward 7 unknown #
vertex $-1 $377 $434 #
straight-curve $-1 -47.164525284585103 -24.964797709153846 0 0 0 -1 I I #
edge $-1 $375 -24.964797709153846 $379 24.964797709153846 $373 $435 forward 7 unknown #
straight-curve $-1 0 -24.964797709153846 -10.286560252399358 -1 0 0 I I #
vertex $-1 $276 $436 #
straight-curve $-1 0 24.964797709153846 -10.286560252399358 1 0 0 I I #
point $-1 47.164525284585103 24.964797709153846 -10.286560252399358 #
point $-1 47.164525284585103 -24.964797709153846 -10.286560252399358 #
straight-curve $-1 -47.164525284585103 0 10.286560252399358 0 -1 0 I I #
point $-1 -47.164525284585103 24.964797709153846 10.286560252399358 #
point $-1 -47.164525284585103 -24.964797709153846 10.286560252399358 #
straight-curve $-1 47.164525284585103 -24.964797709153846 0 0 0 -1 I I #
straight-curve $-1 47.164525284585103 24.964797709153846 0 0 0 -1 I I #
plane-surface $-1 0 -24.964797709153846 0 0 1 0 0 0 1 forward_v I I I I #
coedge $-1 $437 $296 $308 $400 reversed $200 $-1 #
coedge $-1 $296 $437 $311 $402 reversed $200 $-1 #
edge $-1 $438 -47.164525284585103 $305 -35.876796760347098 $301 $439 forward 7 unknown #
straight-curve $-1 -35.876796760347098 -11.732398854576923 10.286560252399358 0 1 0 I I #
coedge $-1 $308 $299 $302 $396 forward $294 $-1 #
straight-curve $-1 -35.876796760347098 -11.732398854576923 -10.286560252399358 0 -1 0 I I #
coedge $-1 $302 $301 $437 $440 forward $303 $-1 #
edge $-1 $304 35.876796760347098 $441 47.164525284585103 $302 $442 forward 7 unknown #
point $-1 -35.876796760347098 -24.964797709153846 -10.286560252399358 #
point $-1 -35.876796760347098 -24.964797709153846 10.286560252399358 #
straight-curve $-1 -47.164525284585103 -21.964797709153846 0 0 0 -1 I I #
edge $-1 $441 -24.964797709153846 $309 -21.964797709153846 $389 $443 forward 7 unknown #
point $-1 -47.164525284585103 -21.964797709153846 -10.286560252399358 #
edge $-1 $312 21.964797709153846 $438 24.964797709153846 $390 $444 forward 7 unknown #
point $-1 -47.164525284585103 -21.964797709153846 10.286560252399358 #
edge $-1 $405 37.348793787067009 $408 45.614410420160205 $317 $445 forward 7 unknown #
vertex $-1 $331 $446 #
straight-curve $-1 3.6067028450388179 38.441095413442945 10.286560252399362 0 1 0 I I #
edge $-1 $408 -6.7184311065610558 $328 12.941887629605532 $327 $447 forward 7 unknown #
vertex $-1 $407 $448 #
straight-curve $-1 3.6067028450388179 -2.2288083427529131 43.895426165716138 0 -0.54463902268945019 0.83867057594974714 I I #
point $-1 3.6067028450388179 19.597043677869827 10.286560252399362 #
point $-1 -16.05361589112777 24.964797709153846 2.0209436193061592 #
straight-curve $-1 0 24.964797709153846 10.286560252399358 -1 0 0 I I #
vertex $-1 $334 $449 #
point $-1 -9.9363819665087476 21.36686011599161 5.5601540752675076 #
vertex $-1 $338 $450 #
point $-1 -1.5105310795802112 21.36686011599161 5.5601540752675076 #
coedge $-1 $353 $352 $345 $418 forward $342 $-1 #
edge $-1 $419 15.827550595893211 $422 22.468940534948963 $417 $451 forward 7 unknown #
vertex $-1 $357 $452 #
straight-curve $-1 -23.552900590283556 -52.910288051189646 10.286560252399358 0 -1 0 I I #
edge $-1 $422 -15.443388522622582 $354 -0.77563561269936621 $353 $453 forward 7 unknown #
vertex $-1 $421 $454 #
straight-curve $-1 -23.552900590283556 -24.964797709153842 3.6451703133436126 0 0.51503806187062418 0.85716730853699208 I I #
point $-1 -23.552900590283556 -20.974248176675125 10.286560252399358 #
point $-1 -8.8851476803603404 -24.964797709153846 3.6451703133436069 #
straight-curve $-1 0 -24.964797709153846 10.286560252399358 1 0 0 I I #
vertex $-1 $360 $455 #
point $-1 -19.619350008298913 -20.193872524129812 5.2980863115044867 #
vertex $-1 $364 $456 #
point $-1 -15.219024135321948 -20.193872524129812 5.2980863115044867 #
vertex $-1 $368 $457 #
point $-1 -10.818698262344981 -20.193872524129812 5.2980863115044867 #
straight-curve $-1 -47.164525284585103 24.964797709153846 0 0 0 -1 I I #
point $-1 -47.164525284585103 -24.964797709153846 -10.286560252399358 #
straight-curve $-1 -47.164525284585103 0 -10.286560252399358 0 1 0 I I #
point $-1 -47.164525284585103 24.964797709153846 -10.286560252399358 #
coedge $-1 $390 $389 $395 $440 reversed $200 $-1 #
vertex $-1 $402 $458 #
straight-curve $-1 0 -24.964797709153846 10.286560252399358 1 0 0 I I #
edge $-1 $438 -10.286560252399358 $441 10.286560252399358 $437 $459 forward 7 unknown #
vertex $-1 $400 $460 #
straight-curve $-1 0 -24.964797709153846 -10.286560252399358 -1 0 0 I I #
straight-curve $-1 -47.164525284585103 0 -10.286560252399358 0 1 0 I I #
straight-curve $-1 -47.164525284585103 0 10.286560252399358 0 -1 0 I I #
straight-curve $-1 3.6067028450388179 24.964797709153846 47.635354039466364 0 0 -1 I I #
point $-1 3.6067028450388179 24.964797709153846 10.286560252399358 #
straight-curve $-1 -3.1117282615222379 24.964797709153846 2.0209436193061592 -1 0 0 I I #
point $-1 3.6067028450388179 24.964797709153846 2.0209436193061592 #
point $-1 -10.436381966508748 20.947524828016736 5.2878345639227833 #
point $-1 -2.0105310795802112 20.947524828016736 5.2878345639227833 #
straight-curve $-1 -23.552900590283556 -24.964797709153842 26.114110848292569 0 0 -1 I I #
point $-1 -23.552900590283556 -24.964797709153846 10.286560252399358 #
straight-curve $-1 -8.1095120676609742 -24.964797709153846 3.6451703133436038 1 0 0 I I #
point $-1 -23.552900590283556 -24.964797709153846 3.6451703133436069 #
point $-1 -20.619350008298913 -19.336705215592819 4.783048249633862 #
point $-1 -16.219024135321948 -19.336705215592819 4.783048249633862 #
point $-1 -11.818698262344981 -19.336705215592819 4.783048249633862 #
point $-1 -47.164525284585103 -24.964797709153846 10.286560252399358 #
straight-curve $-1 -47.164525284585103 -24.964797709153846 0 0 0 -1 I I #
point $-1 -47.164525284585103 -24.964797709153846 -10.286560252399358 #
End-of-ACIS-data 