500 0 7 0           
7 Unknown 11 ACIS 5.0 NT 24 Thu Mar 25 18:25:50 1999 
-1 9.9999999999999995e-007 1e-010 
body $-1 $7 $-1 $8 #
body $-1 $9 $-1 $10 #
body $-1 $11 $-1 $12 #
body $-1 $13 $-1 $14 #
body $-1 $15 $-1 $16 #
body $-1 $17 $-1 $18 #
body $-1 $19 $-1 $20 #
lump $-1 $-1 $21 $0 #
transform $-1 1 0 0 0 1 0 0 0 1 52.206183050019838 32.308500678829837 10.833952235748729 1 rotate no_reflect no_shear #
lump $-1 $-1 $22 $1 #
transform $-1 1 0 0 0 1 0 0 0 1 52.206183050019838 32.308500678829837 10.833952235748729 1 rotate no_reflect no_shear #
lump $-1 $-1 $23 $2 #
transform $-1 1 0 0 0 1 0 0 0 1 52.206183050019838 32.308500678829837 10.833952235748729 1 rotate no_reflect no_shear #
lump $-1 $-1 $24 $3 #
transform $-1 1 0 0 0 1 0 0 0 1 52.206183050019838 32.308500678829837 10.833952235748729 1 rotate no_reflect no_shear #
lump $-1 $-1 $25 $4 #
transform $-1 1 0 0 0 1 0 0 0 1 52.206183050019838 32.308500678829837 10.833952235748729 1 rotate no_reflect no_shear #
lump $-1 $-1 $26 $5 #
transform $-1 1 0 0 0 1 0 0 0 1 52.206183050019838 32.308500678829837 10.833952235748729 1 rotate no_reflect no_shear #
lump $-1 $-1 $27 $6 #
transform $-1 1 0 0 0 1 0 0 0 1 52.206183050019838 32.308500678829837 10.833952235748729 1 rotate no_reflect no_shear #
shell $-1 $-1 $-1 $28 $-1 $7 #
shell $-1 $-1 $-1 $29 $-1 $9 #
shell $-1 $-1 $-1 $30 $-1 $11 #
shell $-1 $-1 $-1 $31 $-1 $13 #
shell $-1 $-1 $-1 $32 $-1 $15 #
shell $-1 $-1 $-1 $33 $-1 $17 #
shell $-1 $-1 $-1 $34 $-1 $19 #
face $-1 $35 $36 $21 $-1 $37 forward single #
face $-1 $38 $39 $22 $-1 $40 forward single #
face $-1 $41 $42 $23 $-1 $43 reversed single #
face $-1 $44 $45 $24 $-1 $46 forward single #
face $-1 $47 $48 $25 $-1 $49 forward single #
face $-1 $50 $51 $26 $-1 $52 reversed single #
face $-1 $53 $54 $27 $-1 $55 forward single #
face $-1 $56 $57 $21 $-1 $58 reversed single #
loop $-1 $-1 $59 $28 #
plane-surface $-1 0 0 10.833952235748729 0 0 1 1 0 0 forward_v I I I I #
face $-1 $60 $61 $22 $-1 $62 forward single #
loop $-1 $-1 $63 $29 #
plane-surface $-1 0 -32.308500678829837 0 0 1 0 0 0 1 forward_v I I I I #
face $-1 $64 $65 $23 $-1 $66 reversed single #
loop $-1 $-1 $67 $30 #
plane-surface $-1 -140.75289216377502 22.553064054392461 55.947667945551103 0 1 0 -0.84804810408105047 0 0.52991925155115449 forward_v I I I I #
face $-1 $68 $69 $24 $-1 $70 forward single #
loop $-1 $71 $72 $31 #
cone-surface $-1 -47.327638407111003 25.34033166137457 4.6718534763832675 0.84804810408105047 0 -0.52991925155115449 0.52991925155115449 0 0.84804810408105047 1 I I 0 1 1 forward I I I I #
face $-1 $73 $74 $25 $-1 $75 forward single #
loop $-1 $76 $77 $32 #
cone-surface $-1 -47.327638407111003 29.521233071847732 4.6718534763832675 0.84804810408105047 0 -0.52991925155115449 0.52991925155115449 0 0.84804810408105047 1 I I 0 1 1 forward I I I I #
face $-1 $78 $79 $26 $-1 $80 reversed single #
loop $-1 $-1 $81 $33 #
plane-surface $-1 39.336646950433256 13.611174097075246 150.52264345478753 0 -1 0 -0.64278761758704617 0 -0.76604443648966558 forward_v I I I I #
face $-1 $82 $83 $27 $-1 $84 forward single #
loop $-1 $85 $86 $34 #
cone-surface $-1 46.417684901899058 9.0517895898711842 5.492781070386954 -0.64278761758704617 0 -0.76604443648966558 1.1490666547344983 0 -0.96418142638056925 1 I I 0 1 1.5 forward I I I I #
face $-1 $87 $88 $21 $-1 $89 reversed single #
loop $-1 $-1 $90 $35 #
plane-surface $-1 0 0 -10.833952235748729 0 0 1 1 0 0 forward_v I I I I #
coedge $-1 $91 $92 $93 $94 forward $36 $-1 #
face $-1 $95 $96 $22 $-1 $97 reversed single #
loop $-1 $-1 $98 $38 #
plane-surface $-1 0 0 10.833952235748729 0 0 1 1 0 0 forward_v I I I I #
coedge $-1 $99 $100 $101 $102 forward $39 $-1 #
face $-1 $103 $104 $23 $-1 $105 forward single #
loop $-1 $-1 $106 $41 #
plane-surface $-1 -52.206183050019817 27.430782366611147 0.61754504913294284 -0.84804810408105047 0 0.52991925155115449 0.52991925155115449 0 0.84804810408105047 forward_v I I I I #
coedge $-1 $107 $108 $109 $110 reversed $42 $-1 #
face $-1 $-1 $111 $24 $-1 $112 forward single #
loop $-1 $113 $114 $44 #
cone-surface $-1 -45.217029474715311 25.34033166137457 3.3529986845501227 0.84804810408105047 0 -0.52991925155115449 0.26495962577557725 0 0.42402405204052523 1 I I -0.70710678118654746 0.70710678118654746 0.5 forward I I I I #
loop $-1 $-1 $115 $31 #
coedge $-1 $72 $72 $116 $117 reversed $45 $-1 #
face $-1 $-1 $118 $25 $-1 $119 forward single #
loop $-1 $120 $121 $47 #
cone-surface $-1 -45.217029474715311 29.521233071847732 3.3529986845501227 0.84804810408105047 0 -0.52991925155115449 0.26495962577557725 0 0.42402405204052523 1 I I -0.70710678118654746 0.70710678118654746 0.5 forward I I I I #
loop $-1 $-1 $122 $32 #
coedge $-1 $77 $77 $123 $124 reversed $48 $-1 #
face $-1 $125 $126 $26 $-1 $127 reversed single #
loop $-1 $-1 $128 $50 #
plane-surface $-1 -27.778329101637716 9.0517895898711842 70.538131303129973 0.64278761758704617 0 0.76604443648966558 0.76604443648966558 0 -0.64278761758704617 forward_v I I I I #
coedge $-1 $129 $130 $131 $132 reversed $51 $-1 #
face $-1 $-1 $133 $27 $-1 $134 forward single #
loop $-1 $135 $136 $53 #
cone-surface $-1 44.563017913341845 9.0517895898711842 3.2824750700027856 -0.64278761758704617 0 -0.76604443648966558 0.57453332736724916 0 -0.48209071319028463 1 I I -0.70710678118654757 0.70710678118654757 0.75 forward I I I I #
loop $-1 $-1 $137 $34 #
coedge $-1 $86 $86 $138 $139 reversed $54 $-1 #
face $-1 $140 $141 $21 $-1 $142 reversed single #
loop $-1 $-1 $143 $56 #
plane-surface $-1 0 -32.308500678829837 0 0 1 0 0 0 1 forward_v I I I I #
coedge $-1 $144 $145 $146 $147 forward $57 $-1 #
coedge $-1 $148 $59 $149 $150 forward $36 $-1 #
coedge $-1 $59 $148 $151 $152 forward $36 $-1 #
coedge $-1 $153 $154 $59 $94 reversed $155 $-1 #
edge $-1 $156 -32.308500678829837 $157 32.308500678829837 $93 $158 forward 7 unknown #
face $-1 $159 $160 $22 $-1 $161 reversed single #
loop $-1 $-1 $162 $60 #
plane-surface $-1 -52.206183050019838 0 0 1 0 0 0 0 -1 forward_v I I I I #
coedge $-1 $163 $164 $165 $166 forward $61 $-1 #
coedge $-1 $165 $63 $162 $167 reversed $39 $-1 #
coedge $-1 $63 $165 $168 $169 reversed $39 $-1 #
coedge $-1 $170 $171 $63 $102 reversed $160 $-1 #
edge $-1 $172 -52.206183050019838 $173 52.206183050019838 $101 $174 forward 7 unknown #
face $-1 $175 $176 $23 $-1 $177 reversed single #
loop $-1 $-1 $109 $64 #
plane-surface $-1 0 0 10.833952235748729 0 0 1 1 0 0 forward_v I I I I #
coedge $-1 $178 $179 $180 $181 reversed $65 $-1 #
coedge $-1 $108 $67 $182 $183 reversed $42 $-1 #
coedge $-1 $67 $107 $178 $184 reversed $42 $-1 #
coedge $-1 $180 $185 $67 $110 forward $104 $-1 #
edge $-1 $186 18.17026303186767 $187 24.554182556975022 $109 $188 forward 7 unknown #
loop $-1 $-1 $116 $68 #
plane-surface $-1 -52.206183050019817 27.430782366611147 0.61754504913294284 -0.84804810408105047 0 0.52991925155115449 0.52991925155115449 0 0.84804810408105047 forward_v I I I I #
loop $-1 $-1 $189 $44 #
coedge $-1 $114 $114 $115 $190 reversed $69 $-1 #
coedge $-1 $115 $115 $114 $190 forward $71 $-1 #
coedge $-1 $116 $116 $72 $117 forward $111 $-1 #
edge $-1 $191 0 $191 6.2831853071796004 $116 $192 forward 7 unknown #
loop $-1 $-1 $123 $73 #
plane-surface $-1 -52.206183050019817 27.430782366611147 0.61754504913294284 -0.84804810408105047 0 0.52991925155115449 0.52991925155115449 0 0.84804810408105047 forward_v I I I I #
loop $-1 $-1 $193 $47 #
coedge $-1 $121 $121 $122 $194 reversed $74 $-1 #
coedge $-1 $122 $122 $121 $194 forward $76 $-1 #
coedge $-1 $123 $123 $77 $124 forward $118 $-1 #
edge $-1 $195 0 $195 6.2831853071796004 $123 $196 forward 7 unknown #
face $-1 $197 $198 $26 $-1 $199 reversed single #
loop $-1 $-1 $200 $78 #
plane-surface $-1 39.336646950433256 4.4924050826671227 150.52264345478753 0 1 0 0.64278761758704617 0 0.76604443648966558 forward_v I I I I #
coedge $-1 $201 $202 $203 $204 reversed $79 $-1 #
coedge $-1 $130 $81 $205 $206 reversed $51 $-1 #
coedge $-1 $81 $129 $201 $207 reversed $51 $-1 #
coedge $-1 $203 $208 $81 $132 forward $209 $-1 #
edge $-1 $210 -32.537859574803207 $211 -23.706015829295513 $131 $212 forward 7 unknown #
loop $-1 $-1 $138 $82 #
plane-surface $-1 -27.778329101637716 9.0517895898711842 70.538131303129973 0.64278761758704617 0 0.76604443648966558 0.76604443648966558 0 -0.64278761758704617 forward_v I I I I #
loop $-1 $-1 $213 $53 #
coedge $-1 $136 $136 $137 $214 reversed $83 $-1 #
coedge $-1 $137 $137 $136 $214 forward $85 $-1 #
coedge $-1 $138 $138 $86 $139 forward $133 $-1 #
edge $-1 $215 0 $215 6.2831853071796004 $138 $216 forward 7 unknown #
face $-1 $217 $218 $21 $-1 $219 reversed single #
loop $-1 $-1 $220 $87 #
plane-surface $-1 -52.206183050019838 0 0 1 0 0 0 0 -1 forward_v I I I I #
coedge $-1 $221 $151 $222 $223 forward $88 $-1 #
coedge $-1 $224 $90 $221 $225 forward $57 $-1 #
coedge $-1 $90 $224 $226 $227 forward $57 $-1 #
coedge $-1 $154 $153 $90 $147 reversed $155 $-1 #
edge $-1 $228 -32.308500678829837 $229 32.308500678829837 $146 $230 forward 7 unknown #
coedge $-1 $92 $91 $231 $232 forward $36 $-1 #
coedge $-1 $233 $234 $91 $150 reversed $218 $-1 #
edge $-1 $157 -52.206183050019838 $235 52.206183050019838 $149 $236 forward 7 unknown #
coedge $-1 $143 $237 $92 $152 reversed $88 $-1 #
edge $-1 $238 -52.206183050019838 $156 52.206183050019838 $151 $239 forward 7 unknown #
coedge $-1 $146 $93 $237 $240 forward $155 $-1 #
coedge $-1 $93 $146 $233 $241 reversed $155 $-1 #
loop $-1 $-1 $153 $217 #
vertex $-1 $94 $242 #
vertex $-1 $94 $243 #
straight-curve $-1 52.206183050019838 0 10.833952235748729 0 1 0 I I #
face $-1 $244 $245 $22 $-1 $246 reversed single #
loop $-1 $-1 $170 $95 #
plane-surface $-1 0 -39.218649144913542 7.4599433553226469 0 0 1 1 0 0 forward_v I I I I #
coedge $-1 $247 $248 $99 $167 forward $96 $-1 #
coedge $-1 $249 $98 $248 $250 forward $61 $-1 #
coedge $-1 $98 $249 $251 $252 forward $61 $-1 #
coedge $-1 $100 $99 $98 $166 reversed $39 $-1 #
edge $-1 $253 -52.206183050019838 $254 52.206183050019838 $98 $255 forward 7 unknown #
edge $-1 $254 -10.833952235748729 $173 -7.4599433553226469 $162 $256 forward 7 unknown #
coedge $-1 $251 $257 $100 $169 forward $258 $-1 #
edge $-1 $172 7.4599433553226469 $253 10.833952235748729 $168 $259 forward 7 unknown #
coedge $-1 $260 $101 $257 $261 forward $160 $-1 #
coedge $-1 $101 $260 $247 $262 forward $160 $-1 #
vertex $-1 $169 $263 #
vertex $-1 $167 $264 #
straight-curve $-1 0 -32.308500678829837 7.4599433553226469 -1 0 0 I I #
face $-1 $-1 $265 $23 $-1 $266 reversed single #
loop $-1 $-1 $267 $103 #
plane-surface $-1 0 32.308500678829837 0 0 -1 0 0 0 -1 forward_v I I I I #
coedge $-1 $268 $106 $108 $184 forward $65 $-1 #
coedge $-1 $106 $268 $267 $269 reversed $65 $-1 #
coedge $-1 $270 $109 $106 $181 forward $104 $-1 #
edge $-1 $187 8.8376728710868875 $271 18.593109495524256 $180 $272 forward 7 unknown #
coedge $-1 $273 $274 $107 $183 forward $265 $-1 #
edge $-1 $275 -27.356288923642644 $186 -17.139881737026823 $182 $276 forward 7 unknown #
edge $-1 $187 -12.046966601837216 $275 4.0200649947886212e-014 $108 $277 forward 7 unknown #
coedge $-1 $109 $270 $273 $278 forward $104 $-1 #
vertex $-1 $183 $279 #
vertex $-1 $110 $280 #
straight-curve $-1 -70.376446081887508 22.553064054392461 10.833952235748729 1 0 0 I I #
coedge $-1 $189 $189 $-1 $281 reversed $113 $-1 #
edge $-1 $282 0 $282 6.2831853071796004 $114 $283 forward 7 unknown #
vertex $-1 $117 $284 #
ellipse-curve $-1 -49.014223287466159 25.34033166137457 5.7257486424408262 -0.84804810408105047 0 0.52991925155115449 0.52991925155115449 0 0.84804810408105047 1 I I #
coedge $-1 $193 $193 $-1 $285 reversed $120 $-1 #
edge $-1 $286 0 $286 6.2831853071796004 $121 $287 forward 7 unknown #
vertex $-1 $124 $288 #
ellipse-curve $-1 -49.014223287466159 29.521233071847732 5.7257486424408262 -0.84804810408105047 0 0.52991925155115449 0.52991925155115449 0 0.84804810408105047 1 I I #
face $-1 $-1 $209 $26 $-1 $289 forward single #
loop $-1 $-1 $290 $125 #
plane-surface $-1 52.206183050019838 0 0 -1 0 0 0 0 1 forward_v I I I I #
coedge $-1 $291 $292 $293 $294 reversed $126 $-1 #
coedge $-1 $295 $128 $130 $207 forward $79 $-1 #
coedge $-1 $128 $295 $291 $296 forward $79 $-1 #
coedge $-1 $293 $131 $128 $204 forward $209 $-1 #
edge $-1 $211 -9.0852793021396536 $297 0.033489712268469418 $203 $298 forward 7 unknown #
coedge $-1 $299 $300 $129 $206 forward $198 $-1 #
edge $-1 $301 -71.838166476334763 $210 -64.427369491645038 $205 $302 forward 7 unknown #
edge $-1 $211 92.88321279663748 $301 104.41236610003969 $130 $303 forward 7 unknown #
coedge $-1 $131 $293 $299 $304 forward $209 $-1 #
loop $-1 $-1 $293 $197 #
vertex $-1 $206 $305 #
vertex $-1 $132 $306 #
straight-curve $-1 19.668323475216628 13.611174097075246 10.833952235748725 -1 0 0 I I #
coedge $-1 $213 $213 $-1 $307 reversed $135 $-1 #
edge $-1 $308 0 $308 6.2831853071796004 $136 $309 forward 7 unknown #
vertex $-1 $139 $310 #
ellipse-curve $-1 47.790261177265982 9.0517895898711842 7.128553743403871 0.64278761758704617 0 0.76604443648966558 1.1490666547344983 0 -0.96418142638056925 1 I I #
face $-1 $-1 $155 $21 $-1 $311 reversed single #
loop $-1 $-1 $233 $140 #
plane-surface $-1 0 32.308500678829837 0 0 -1 0 0 0 -1 forward_v I I I I #
coedge $-1 $312 $231 $234 $313 forward $141 $-1 #
coedge $-1 $237 $143 $144 $225 reversed $88 $-1 #
coedge $-1 $231 $312 $143 $223 reversed $141 $-1 #
edge $-1 $238 -10.833952235748729 $314 10.833952235748729 $222 $315 forward 7 unknown #
coedge $-1 $145 $144 $312 $316 forward $57 $-1 #
edge $-1 $229 -52.206183050019838 $314 52.206183050019838 $221 $317 forward 7 unknown #
coedge $-1 $234 $233 $145 $227 reversed $218 $-1 #
edge $-1 $318 -52.206183050019838 $228 52.206183050019838 $226 $319 forward 7 unknown #
vertex $-1 $147 $320 #
vertex $-1 $240 $321 #
straight-curve $-1 52.206183050019838 0 -10.833952235748729 0 -1 0 I I #
coedge $-1 $220 $222 $148 $232 reversed $141 $-1 #
edge $-1 $235 -32.308500678829837 $238 32.308500678829837 $231 $322 forward 7 unknown #
coedge $-1 $226 $149 $154 $241 forward $218 $-1 #
coedge $-1 $149 $226 $220 $313 reversed $218 $-1 #
vertex $-1 $150 $323 #
straight-curve $-1 0 32.308500678829837 10.833952235748729 -1 0 0 I I #
coedge $-1 $151 $221 $153 $240 reversed $88 $-1 #
vertex $-1 $232 $324 #
straight-curve $-1 0 -32.308500678829837 10.833952235748729 1 0 0 I I #
edge $-1 $156 -10.833952235748729 $229 10.833952235748729 $153 $325 forward 7 unknown #
edge $-1 $157 -10.833952235748729 $228 10.833952235748729 $154 $326 forward 7 unknown #
point $-1 52.206183050019838 -32.308500678829837 10.833952235748729 #
point $-1 52.206183050019838 32.308500678829837 10.833952235748729 #
face $-1 $-1 $258 $22 $-1 $327 reversed single #
loop $-1 $-1 $328 $159 #
plane-surface $-1 0 -46.128797610997246 9.1469477955356879 0 1 0 0 0 1 forward_v I I I I #
coedge $-1 $329 $162 $171 $262 reversed $96 $-1 #
coedge $-1 $162 $329 $163 $250 reversed $96 $-1 #
coedge $-1 $164 $163 $330 $331 forward $61 $-1 #
edge $-1 $254 32.308500678829837 $332 46.128797610997246 $248 $333 forward 7 unknown #
coedge $-1 $334 $168 $164 $252 reversed $258 $-1 #
edge $-1 $335 -46.128797610997246 $253 -32.308500678829837 $251 $336 forward 7 unknown #
vertex $-1 $169 $337 #
vertex $-1 $250 $338 #
straight-curve $-1 0 -32.308500678829837 10.833952235748729 -1 0 0 I I #
straight-curve $-1 -52.206183050019838 -32.308500678829837 0 0 0 -1 I I #
coedge $-1 $168 $334 $170 $261 reversed $258 $-1 #
loop $-1 $-1 $168 $244 #
straight-curve $-1 52.206183050019838 -32.308500678829837 0 0 0 1 I I #
coedge $-1 $171 $170 $339 $340 forward $160 $-1 #
edge $-1 $172 -6.9101484660837045 $341 6.9101484660837045 $257 $342 forward 7 unknown #
edge $-1 $343 -6.9101484660837045 $173 6.9101484660837045 $247 $344 forward 7 unknown #
point $-1 52.206183050019838 -32.308500678829837 7.4599433553226469 #
point $-1 -52.206183050019838 -32.308500678829837 7.4599433553226469 #
loop $-1 $-1 $182 $175 #
plane-surface $-1 -52.206183050019838 0 0 1 0 0 0 0 -1 forward_v I I I I #
coedge $-1 $345 $346 $179 $269 forward $176 $-1 #
coedge $-1 $179 $178 $274 $347 reversed $65 $-1 #
edge $-1 $271 1.523710168216404 $348 13.570676770053659 $267 $349 forward 7 unknown #
coedge $-1 $185 $180 $346 $350 forward $104 $-1 #
vertex $-1 $350 $351 #
straight-curve $-1 -45.822263524912479 13.715391183305574 10.833952235748729 0 1 0 I I #
coedge $-1 $352 $182 $185 $278 reversed $265 $-1 #
coedge $-1 $182 $352 $268 $347 forward $265 $-1 #
vertex $-1 $183 $353 #
straight-curve $-1 -52.206183050019838 22.553064054392461 27.973833972775552 0 0 1 I I #
straight-curve $-1 -52.206183050019817 22.553064054392461 0.61754504913294284 -0.52991925155115449 0 -0.84804810408105047 I I #
edge $-1 $354 -32.308500678829837 $186 -22.553064054392461 $273 $355 forward 7 unknown #
point $-1 -52.206183050019838 22.553064054392461 10.833952235748729 #
point $-1 -45.822263524912486 22.553064054392461 10.833952235748729 #
edge $-1 $356 1 $356 0 $189 $-1 forward 7 unknown #
vertex $-1 $190 $357 #
ellipse-curve $-1 -45.641053526755833 25.34033166137457 3.6179583103257 -0.84804810408105047 0 0.52991925155115449 0.52991925155115449 0 0.84804810408105047 1 I I #
point $-1 -48.484304035915017 25.34033166137457 6.5737967465218841 #
edge $-1 $358 1 $358 0 $193 $-1 forward 7 unknown #
vertex $-1 $194 $359 #
ellipse-curve $-1 -45.641053526755833 29.521233071847732 3.6179583103257 -0.84804810408105047 0 0.52991925155115449 0.52991925155115449 0 0.84804810408105047 1 I I #
point $-1 -48.484304035915017 29.521233071847732 6.5737967465218841 #
plane-surface $-1 0 0 10.833952235748729 0 0 1 1 0 0 forward_v I I I I #
coedge $-1 $300 $299 $292 $360 forward $198 $-1 #
coedge $-1 $292 $200 $202 $296 reversed $126 $-1 #
coedge $-1 $200 $291 $290 $360 reversed $126 $-1 #
coedge $-1 $208 $203 $200 $294 forward $209 $-1 #
edge $-1 $297 23.706015829295513 $361 32.537859574803207 $293 $362 forward 7 unknown #
coedge $-1 $202 $201 $300 $363 reversed $79 $-1 #
edge $-1 $364 -104.41236610003969 $297 -92.88321279663748 $291 $365 forward 7 unknown #
vertex $-1 $204 $366 #
straight-curve $-1 43.374339304512134 4.5258947949355921 10.833952235748733 0 -1 0 I I #
coedge $-1 $290 $205 $208 $304 reversed $198 $-1 #
coedge $-1 $205 $290 $295 $363 forward $198 $-1 #
vertex $-1 $206 $367 #
straight-curve $-1 52.206183050019838 13.611174097075246 75.261321727393764 0 0 1 I I #
straight-curve $-1 -27.778329101637716 13.611174097075246 70.538131303129973 0.76604443648966558 0 -0.64278761758704617 I I #
edge $-1 $361 4.4924050826671227 $210 13.611174097075246 $299 $368 forward 7 unknown #
point $-1 52.206183050019838 13.611174097075246 10.833952235748729 #
point $-1 43.374339304512141 13.611174097075246 10.833952235748725 #
edge $-1 $369 1 $369 0 $213 $-1 forward 7 unknown #
vertex $-1 $214 $370 #
ellipse-curve $-1 45.045108626532127 9.0517895898711842 3.8570083973700346 0.64278761758704617 0 0.76604443648966558 1.1490666547344983 0 -0.96418142638056925 1 I I #
point $-1 48.93932783200048 9.0517895898711842 6.1643723170233047 #
plane-surface $-1 52.206183050019838 0 0 -1 0 0 0 0 1 forward_v I I I I #
coedge $-1 $222 $220 $224 $316 reversed $141 $-1 #
edge $-1 $235 -10.833952235748729 $318 10.833952235748729 $234 $371 forward 7 unknown #
vertex $-1 $316 $372 #
straight-curve $-1 -52.206183050019838 -32.308500678829837 0 0 0 -1 I I #
edge $-1 $314 -32.308500678829837 $318 32.308500678829837 $312 $373 forward 7 unknown #
straight-curve $-1 0 -32.308500678829837 -10.833952235748729 -1 0 0 I I #
vertex $-1 $227 $374 #
straight-curve $-1 0 32.308500678829837 -10.833952235748729 1 0 0 I I #
point $-1 52.206183050019838 32.308500678829837 -10.833952235748729 #
point $-1 52.206183050019838 -32.308500678829837 -10.833952235748729 #
straight-curve $-1 -52.206183050019838 0 10.833952235748729 0 -1 0 I I #
point $-1 -52.206183050019838 32.308500678829837 10.833952235748729 #
point $-1 -52.206183050019838 -32.308500678829837 10.833952235748729 #
straight-curve $-1 52.206183050019838 -32.308500678829837 0 0 0 -1 I I #
straight-curve $-1 52.206183050019838 32.308500678829837 0 0 0 -1 I I #
plane-surface $-1 52.206183050019838 0 0 -1 0 0 0 0 1 forward_v I I I I #
coedge $-1 $339 $330 $329 $375 forward $245 $-1 #
coedge $-1 $248 $247 $328 $375 reversed $96 $-1 #
coedge $-1 $328 $376 $249 $331 reversed $245 $-1 #
edge $-1 $332 -52.206183050019838 $335 52.206183050019838 $330 $377 forward 7 unknown #
vertex $-1 $250 $378 #
straight-curve $-1 -52.206183050019838 0 10.833952235748729 0 -1 0 I I #
coedge $-1 $257 $251 $376 $379 forward $258 $-1 #
vertex $-1 $252 $380 #
straight-curve $-1 52.206183050019838 0 10.833952235748729 0 1 0 I I #
point $-1 52.206183050019838 -32.308500678829837 10.833952235748729 #
point $-1 -52.206183050019838 -32.308500678829837 10.833952235748729 #
coedge $-1 $376 $328 $260 $340 reversed $245 $-1 #
edge $-1 $341 -52.206183050019838 $343 52.206183050019838 $339 $381 forward 7 unknown #
vertex $-1 $379 $382 #
straight-curve $-1 52.206183050019838 -39.218649144913542 7.4599433553226469 0 -1 0 I I #
vertex $-1 $262 $383 #
straight-curve $-1 -52.206183050019838 -39.218649144913542 7.4599433553226469 0 1 0 I I #
coedge $-1 $346 $267 $352 $384 reversed $176 $-1 #
coedge $-1 $267 $345 $270 $350 reversed $176 $-1 #
edge $-1 $348 -18.593109495524256 $275 -8.8376728710868875 $274 $385 forward 7 unknown #
vertex $-1 $269 $386 #
straight-curve $-1 -45.014820172990362 32.308500678829837 12.126131755073667 -0.52991925155115449 0 -0.84804810408105047 I I #
edge $-1 $271 45.822263524912486 $354 52.206183050019838 $346 $387 forward 7 unknown #
point $-1 -45.822263524912486 32.30850067882983 10.833952235748729 #
coedge $-1 $274 $273 $345 $384 forward $265 $-1 #
point $-1 -52.206183050019838 22.553064054392461 0.61754504913290875 #
vertex $-1 $350 $388 #
straight-curve $-1 -52.206183050019838 0 10.833952235748729 0 -1 0 I I #
vertex $-1 $281 $389 #
point $-1 -45.111134275204684 25.34033166137457 4.4660064144067508 #
vertex $-1 $285 $390 #
point $-1 -45.111134275204684 29.521233071847732 4.4660064144067508 #
edge $-1 $361 64.427369491645038 $364 71.838166476334763 $290 $391 forward 7 unknown #
vertex $-1 $304 $392 #
straight-curve $-1 19.668323475216628 4.4924050826671227 10.833952235748725 1 0 0 I I #
edge $-1 $364 -0.033489712268469418 $301 9.0852793021396536 $300 $393 forward 7 unknown #
vertex $-1 $363 $394 #
straight-curve $-1 -27.778329101637716 4.4924050826671227 70.538131303129973 -0.76604443648966558 0 0.64278761758704617 I I #
point $-1 43.374339304512141 4.4924050826671227 10.833952235748725 #
point $-1 52.206183050019838 13.611174097075246 3.4231552510590006 #
straight-curve $-1 52.206183050019838 0 10.833952235748729 0 1 0 I I #
vertex $-1 $307 $395 #
point $-1 46.194175281266631 9.0517895898711842 2.8928269709894656 #
straight-curve $-1 -52.206183050019838 32.308500678829837 0 0 0 -1 I I #
point $-1 -52.206183050019838 -32.308500678829837 -10.833952235748729 #
straight-curve $-1 -52.206183050019838 0 -10.833952235748729 0 1 0 I I #
point $-1 -52.206183050019838 32.308500678829837 -10.833952235748729 #
edge $-1 $332 -1.6870044402130411 $343 1.6870044402130411 $329 $396 forward 7 unknown #
coedge $-1 $330 $339 $334 $379 reversed $245 $-1 #
straight-curve $-1 0 -46.128797610997246 10.833952235748729 1 0 0 I I #
point $-1 -52.206183050019838 -46.128797610997246 10.833952235748729 #
edge $-1 $335 -1.6870044402130411 $341 1.6870044402130411 $334 $397 forward 7 unknown #
point $-1 52.206183050019838 -46.128797610997246 10.833952235748729 #
straight-curve $-1 0 -46.128797610997246 7.4599433553226469 -1 0 0 I I #
point $-1 52.206183050019838 -46.128797610997246 7.4599433553226469 #
point $-1 -52.206183050019838 -46.128797610997246 7.4599433553226469 #
edge $-1 $354 -10.833952235748729 $348 -0.61754504913290875 $345 $398 forward 7 unknown #
straight-curve $-1 -52.206183050019838 13.715391183305574 0.61754504913291086 0 -1 0 I I #
point $-1 -52.206183050019838 32.30850067882983 0.61754504913290875 #
straight-curve $-1 0 32.308500678829837 10.833952235748729 -1 0 0 I I #
point $-1 -52.206183050019838 32.308500678829837 10.833952235748729 #
point $-1 -44.793005422674788 25.34033166137457 3.0880390587745454 #
point $-1 -44.793005422674788 29.521233071847732 3.0880390587745454 #
straight-curve $-1 52.206183050019838 4.4924050826671227 75.261321727393764 0 0 -1 I I #
point $-1 52.206183050019838 4.4924050826671227 10.833952235748729 #
straight-curve $-1 52.206183050019831 4.5258947949355921 3.4231552510590149 0 1 0 I I #
point $-1 52.206183050019838 4.4924050826671227 3.4231552510590006 #
point $-1 44.080927200151564 9.0517895898711842 2.7079417426355366 #
straight-curve $-1 -52.206183050019838 -46.128797610997246 9.1469477955356879 0 0 -1 I I #
straight-curve $-1 52.206183050019838 -46.128797610997246 9.1469477955356879 0 0 -1 I I #
straight-curve $-1 -52.206183050019838 32.308500678829837 0 0 0 -1 I I #
End-of-ACIS-data 