500 0 14 0           
7 Unknown 11 ACIS 5.0 NT 24 Thu Mar 25 19:27:43 1999 
-1 9.9999999999999995e-007 1e-010 
body $-1 $14 $-1 $15 #
body $-1 $16 $-1 $17 #
body $-1 $18 $-1 $19 #
body $-1 $20 $-1 $21 #
body $-1 $22 $-1 $23 #
body $-1 $24 $-1 $25 #
body $-1 $26 $-1 $27 #
body $-1 $28 $-1 $29 #
body $-1 $30 $-1 $31 #
body $-1 $32 $-1 $33 #
body $-1 $34 $-1 $35 #
body $-1 $36 $-1 $37 #
body $-1 $38 $-1 $39 #
body $-1 $40 $-1 $41 #
lump $-1 $-1 $42 $0 #
transform $-1 1 0 0 0 1 0 0 0 1 49.369182409131142 30.274803231684295 10.659794528791506 1 rotate no_reflect no_shear #
lump $-1 $-1 $43 $1 #
transform $-1 1 0 0 0 1 0 0 0 1 49.369182409131142 30.274803231684295 10.659794528791506 1 rotate no_reflect no_shear #
lump $-1 $-1 $44 $2 #
transform $-1 1 0 0 0 1 0 0 0 1 49.369182409131142 30.274803231684295 10.659794528791506 1 rotate no_reflect no_shear #
lump $-1 $-1 $45 $3 #
transform $-1 1 0 0 0 1 0 0 0 1 49.369182409131142 30.274803231684295 10.659794528791506 1 rotate no_reflect no_shear #
lump $-1 $-1 $46 $4 #
transform $-1 1 0 0 0 1 0 0 0 1 49.369182409131142 30.274803231684295 10.659794528791506 1 rotate no_reflect no_shear #
lump $-1 $-1 $47 $5 #
transform $-1 1 0 0 0 1 0 0 0 1 49.369182409131142 30.274803231684295 10.659794528791506 1 rotate no_reflect no_shear #
lump $-1 $-1 $48 $6 #
transform $-1 1 0 0 0 1 0 0 0 1 49.369182409131142 30.274803231684295 10.659794528791506 1 rotate no_reflect no_shear #
lump $-1 $-1 $49 $7 #
transform $-1 1 0 0 0 1 0 0 0 1 49.369182409131142 30.274803231684295 10.659794528791506 1 rotate no_reflect no_shear #
lump $-1 $-1 $50 $8 #
transform $-1 1 0 0 0 1 0 0 0 1 49.369182409131142 30.274803231684295 10.659794528791506 1 rotate no_reflect no_shear #
lump $-1 $-1 $51 $9 #
transform $-1 1 0 0 0 1 0 0 0 1 49.369182409131142 30.274803231684295 10.659794528791506 1 rotate no_reflect no_shear #
lump $-1 $-1 $52 $10 #
transform $-1 1 0 0 0 1 0 0 0 1 49.369182409131142 30.274803231684295 10.659794528791506 1 rotate no_reflect no_shear #
lump $-1 $-1 $53 $11 #
transform $-1 1 0 0 0 1 0 0 0 1 49.369182409131142 30.274803231684295 10.659794528791506 1 rotate no_reflect no_shear #
lump $-1 $-1 $54 $12 #
transform $-1 1 0 0 0 1 0 0 0 1 49.369182409131142 30.274803231684295 10.659794528791506 1 rotate no_reflect no_shear #
lump $-1 $-1 $55 $13 #
transform $-1 1 0 0 0 1 0 0 0 1 49.369182409131142 30.274803231684295 10.659794528791506 1 rotate no_reflect no_shear #
shell $-1 $-1 $-1 $56 $-1 $14 #
shell $-1 $-1 $-1 $57 $-1 $16 #
shell $-1 $-1 $-1 $58 $-1 $18 #
shell $-1 $-1 $-1 $59 $-1 $20 #
shell $-1 $-1 $-1 $60 $-1 $22 #
shell $-1 $-1 $-1 $61 $-1 $24 #
shell $-1 $-1 $-1 $62 $-1 $26 #
shell $-1 $-1 $-1 $63 $-1 $28 #
shell $-1 $-1 $-1 $64 $-1 $30 #
shell $-1 $-1 $-1 $65 $-1 $32 #
shell $-1 $-1 $-1 $66 $-1 $34 #
shell $-1 $-1 $-1 $67 $-1 $36 #
shell $-1 $-1 $-1 $68 $-1 $38 #
shell $-1 $-1 $-1 $69 $-1 $40 #
face $-1 $70 $71 $42 $-1 $72 forward single #
face $-1 $73 $74 $43 $-1 $75 forward single #
face $-1 $76 $77 $44 $-1 $78 forward single #
face $-1 $79 $80 $45 $-1 $81 reversed single #
face $-1 $82 $83 $46 $-1 $84 forward single #
face $-1 $85 $86 $47 $-1 $87 forward single #
face $-1 $88 $89 $48 $-1 $90 forward single #
face $-1 $91 $92 $49 $-1 $93 reversed single #
face $-1 $94 $95 $50 $-1 $96 forward single #
face $-1 $97 $98 $51 $-1 $99 forward single #
face $-1 $100 $101 $52 $-1 $102 forward single #
face $-1 $103 $104 $53 $-1 $105 reversed single #
face $-1 $106 $107 $54 $-1 $108 forward single #
face $-1 $109 $110 $55 $-1 $111 forward single #
face $-1 $112 $113 $42 $-1 $114 reversed single #
loop $-1 $-1 $115 $56 #
plane-surface $-1 0 0 10.659794528791506 0 0 1 1 0 0 forward_v I I I I #
face $-1 $116 $117 $43 $-1 $118 reversed single #
loop $-1 $-1 $119 $57 #
plane-surface $-1 -49.369182409131142 0 0 1 0 0 0 0 -1 forward_v I I I I #
face $-1 $120 $121 $44 $-1 $122 reversed single #
loop $-1 $-1 $123 $58 #
plane-surface $-1 49.369182409131142 0 0 -1 0 0 0 0 1 forward_v I I I I #
face $-1 $124 $125 $45 $-1 $126 reversed single #
loop $-1 $-1 $127 $59 #
plane-surface $-1 -35.945609969297138 87.278292822685074 103.55897109933107 1 0 0 0 -0.87461971476443456 -0.48480960649040278 forward_v I I I I #
face $-1 $128 $129 $46 $-1 $130 forward single #
loop $-1 $131 $132 $60 #
cone-surface $-1 -33.586826725302188 27.000640224846791 6.0988653805698485 0 -0.87461971476443456 -0.48480960649040278 1 0 0 1 I I 0 1 1 forward I I I I #
face $-1 $133 $134 $47 $-1 $135 forward single #
loop $-1 $136 $137 $61 #
cone-surface $-1 -30.04865185930975 27.000640224846791 6.0988653805698485 0 -0.87461971476443456 -0.48480960649040278 1 0 0 1 I I 0 1 1 forward I I I I #
face $-1 $138 $139 $48 $-1 $140 forward single #
loop $-1 $141 $142 $62 #
cone-surface $-1 -26.510476993317315 27.000640224846791 6.0988653805698485 0 -0.87461971476443456 -0.48480960649040278 1 0 0 1 I I 0 1 1 forward I I I I #
face $-1 $143 $144 $49 $-1 $145 reversed single #
loop $-1 $-1 $146 $63 #
plane-surface $-1 -8.8817841970012523e-016 87.278292822685074 103.55897109933107 1 0 0 0 -0.87461971476443456 -0.48480960649040278 forward_v I I I I #
face $-1 $147 $148 $50 $-1 $149 forward single #
loop $-1 $150 $151 $64 #
cone-surface $-1 2.3587832439949494 27.000640224846791 6.0988653805698485 0 -0.87461971476443456 -0.48480960649040278 1 0 0 1 I I 0 1 1 forward I I I I #
face $-1 $152 $153 $51 $-1 $154 forward single #
loop $-1 $155 $156 $65 #
cone-surface $-1 5.8969581099873878 27.000640224846791 6.0988653805698485 0 -0.87461971476443456 -0.48480960649040278 1 0 0 1 I I 0 1 1 forward I I I I #
face $-1 $157 $158 $52 $-1 $159 forward single #
loop $-1 $160 $161 $66 #
cone-surface $-1 9.4351329759798261 27.000640224846791 6.0988653805698485 0 -0.87461971476443456 -0.48480960649040278 1 0 0 1 I I 0 1 1 forward I I I I #
face $-1 $162 $163 $53 $-1 $164 reversed single #
loop $-1 $-1 $165 $67 #
plane-surface $-1 35.945609969297124 -98.864235643899178 76.762339221768997 -1 0 0 0 -0.69465837861970381 0.71933979245794832 forward_v I I I I #
face $-1 $166 $167 $54 $-1 $168 forward single #
loop $-1 $169 $170 $68 #
cone-surface $-1 27.03838783454944 -26.794304436110586 7.2336878107234002 0 0.69465837861970381 -0.71933979245794832 1 0 0 1 I I 0 1 1 forward I I I I #
face $-1 $171 $172 $55 $-1 $173 forward single #
loop $-1 $174 $175 $69 #
cone-surface $-1 32.382721115398056 -26.794304436110586 7.2336878107234002 0 0.69465837861970381 -0.71933979245794832 1 0 0 1 I I 0 1 1 forward I I I I #
face $-1 $176 $177 $42 $-1 $178 reversed single #
loop $-1 $-1 $179 $70 #
plane-surface $-1 0 0 -10.659794528791506 0 0 1 1 0 0 forward_v I I I I #
coedge $-1 $180 $181 $182 $183 forward $71 $-1 #
face $-1 $184 $185 $43 $-1 $186 forward single #
loop $-1 $-1 $187 $73 #
plane-surface $-1 0 30.274803231684295 0 0 -1 0 0 0 -1 forward_v I I I I #
coedge $-1 $188 $189 $190 $191 forward $74 $-1 #
face $-1 $192 $193 $44 $-1 $194 forward single #
loop $-1 $-1 $195 $76 #
plane-surface $-1 0 -30.274803231684295 0 0 1 0 0 0 1 forward_v I I I I #
coedge $-1 $196 $197 $198 $199 forward $77 $-1 #
face $-1 $200 $201 $45 $-1 $202 reversed single #
loop $-1 $-1 $203 $79 #
plane-surface $-1 -30.04865185930975 0.91977234902984151 55.689663306283506 0 0.87461971476443456 0.48480960649040278 1 0 0 forward_v I I I I #
coedge $-1 $204 $205 $206 $207 reversed $80 $-1 #
face $-1 $-1 $208 $46 $-1 $209 forward single #
loop $-1 $210 $211 $82 #
cone-surface $-1 -33.586826725302188 25.486451340324045 5.2595368074021014 0 -0.87461971476443456 -0.48480960649040278 0.5 0 0 1 I I -0.70710678118654746 0.70710678118654746 0.5 forward I I I I #
loop $-1 $-1 $212 $60 #
coedge $-1 $132 $132 $213 $214 reversed $83 $-1 #
face $-1 $-1 $215 $47 $-1 $216 forward single #
loop $-1 $217 $218 $85 #
cone-surface $-1 -30.04865185930975 25.486451340324045 5.2595368074021014 0 -0.87461971476443456 -0.48480960649040278 0.5 0 0 1 I I -0.70710678118654746 0.70710678118654746 0.5 forward I I I I #
loop $-1 $-1 $219 $61 #
coedge $-1 $137 $137 $220 $221 reversed $86 $-1 #
face $-1 $-1 $222 $48 $-1 $223 forward single #
loop $-1 $224 $225 $88 #
cone-surface $-1 -26.510476993317315 25.486451340324045 5.2595368074021014 0 -0.87461971476443456 -0.48480960649040278 0.5 0 0 1 I I -0.70710678118654746 0.70710678118654746 0.5 forward I I I I #
loop $-1 $-1 $226 $62 #
coedge $-1 $142 $142 $227 $228 reversed $89 $-1 #
face $-1 $229 $230 $49 $-1 $231 reversed single #
loop $-1 $-1 $232 $91 #
plane-surface $-1 5.8969581099873878 0.91977234902984151 55.689663306283506 0 0.87461971476443456 0.48480960649040278 1 0 0 forward_v I I I I #
coedge $-1 $233 $234 $235 $236 reversed $92 $-1 #
face $-1 $-1 $237 $50 $-1 $238 forward single #
loop $-1 $239 $240 $94 #
cone-surface $-1 2.3587832439949494 25.486451340324045 5.2595368074021014 0 -0.87461971476443456 -0.48480960649040278 0.5 0 0 1 I I -0.70710678118654746 0.70710678118654746 0.5 forward I I I I #
loop $-1 $-1 $241 $64 #
coedge $-1 $151 $151 $242 $243 reversed $95 $-1 #
face $-1 $-1 $244 $51 $-1 $245 forward single #
loop $-1 $246 $247 $97 #
cone-surface $-1 5.8969581099873878 25.486451340324045 5.2595368074021014 0 -0.87461971476443456 -0.48480960649040278 0.5 0 0 1 I I -0.70710678118654746 0.70710678118654746 0.5 forward I I I I #
loop $-1 $-1 $248 $65 #
coedge $-1 $156 $156 $249 $250 reversed $98 $-1 #
face $-1 $-1 $251 $52 $-1 $252 forward single #
loop $-1 $253 $254 $100 #
cone-surface $-1 9.4351329759798261 25.486451340324045 5.2595368074021014 0 -0.87461971476443456 -0.48480960649040278 0.5 0 0 1 I I -0.70710678118654746 0.70710678118654746 0.5 forward I I I I #
loop $-1 $-1 $255 $66 #
coedge $-1 $161 $161 $256 $257 reversed $101 $-1 #
face $-1 $258 $259 $53 $-1 $260 reversed single #
loop $-1 $-1 $261 $103 #
plane-surface $-1 29.710554474973748 -30.274803231684288 5.7359043657630195 0 -0.69465837861970381 0.71933979245794832 1 0 0 forward_v I I I I #
coedge $-1 $262 $263 $264 $265 reversed $104 $-1 #
face $-1 $-1 $266 $54 $-1 $267 forward single #
loop $-1 $268 $269 $106 #
cone-surface $-1 27.03838783454944 -25.515895156142488 5.9098562779405572 0 0.69465837861970381 -0.71933979245794832 0.5 0 0 1 I I -0.70710678118654746 0.70710678118654746 0.5 forward I I I I #
loop $-1 $-1 $270 $68 #
coedge $-1 $170 $170 $271 $272 reversed $107 $-1 #
face $-1 $-1 $273 $55 $-1 $274 forward single #
loop $-1 $275 $276 $109 #
cone-surface $-1 32.382721115398056 -25.515895156142488 5.9098562779405572 0 0.69465837861970381 -0.71933979245794832 0.5 0 0 1 I I -0.70710678118654746 0.70710678118654746 0.5 forward I I I I #
loop $-1 $-1 $277 $69 #
coedge $-1 $175 $175 $278 $279 reversed $110 $-1 #
face $-1 $280 $281 $42 $-1 $282 reversed single #
loop $-1 $-1 $283 $112 #
plane-surface $-1 0 -30.274803231684295 0 0 1 0 0 0 1 forward_v I I I I #
coedge $-1 $284 $285 $286 $287 forward $113 $-1 #
coedge $-1 $288 $115 $289 $290 forward $71 $-1 #
coedge $-1 $115 $288 $291 $292 forward $71 $-1 #
coedge $-1 $293 $294 $115 $183 reversed $295 $-1 #
edge $-1 $296 -30.274803231684295 $297 30.274803231684295 $182 $298 forward 7 unknown #
face $-1 $299 $300 $43 $-1 $301 reversed single #
loop $-1 $-1 $190 $116 #
plane-surface $-1 -56.080968629048144 0 1.3957237305176546 0 0 1 1 0 0 forward_v I I I I #
coedge $-1 $302 $303 $189 $304 forward $117 $-1 #
coedge $-1 $305 $119 $306 $307 reversed $74 $-1 #
coedge $-1 $119 $305 $187 $304 reversed $74 $-1 #
coedge $-1 $308 $309 $119 $191 reversed $185 $-1 #
edge $-1 $310 -30.274803231684295 $311 30.274803231684295 $190 $312 forward 7 unknown #
face $-1 $313 $314 $44 $-1 $315 reversed single #
loop $-1 $-1 $316 $120 #
plane-surface $-1 56.080968629048144 0 1.3957237305176546 0 0 1 1 0 0 forward_v I I I I #
coedge $-1 $317 $318 $197 $319 forward $121 $-1 #
coedge $-1 $320 $123 $321 $322 reversed $77 $-1 #
coedge $-1 $123 $320 $195 $319 reversed $77 $-1 #
coedge $-1 $323 $324 $123 $199 reversed $193 $-1 #
edge $-1 $325 -30.274803231684295 $326 30.274803231684295 $198 $327 forward 7 unknown #
face $-1 $328 $329 $45 $-1 $330 reversed single #
loop $-1 $-1 $331 $124 #
plane-surface $-1 -24.151693749322362 87.278292822685074 103.55897109933107 -1 0 0 0 0.87461971476443456 0.48480960649040278 forward_v I I I I #
coedge $-1 $332 $333 $334 $335 reversed $125 $-1 #
coedge $-1 $205 $127 $336 $337 reversed $80 $-1 #
coedge $-1 $127 $204 $332 $338 reversed $80 $-1 #
coedge $-1 $334 $339 $127 $207 forward $340 $-1 #
edge $-1 $341 13.364343179658242 $342 17.758911139052163 $206 $343 forward 7 unknown #
loop $-1 $-1 $213 $128 #
plane-surface $-1 -30.04865185930975 0.91977234902984151 55.689663306283506 0 0.87461971476443456 0.48480960649040278 1 0 0 forward_v I I I I #
loop $-1 $-1 $344 $82 #
coedge $-1 $211 $211 $212 $345 reversed $129 $-1 #
coedge $-1 $212 $212 $211 $345 forward $131 $-1 #
coedge $-1 $213 $213 $132 $214 forward $208 $-1 #
edge $-1 $346 5.4111866181864343e-016 $346 6.2831853071796013 $213 $347 forward 7 unknown #
loop $-1 $-1 $220 $133 #
plane-surface $-1 -30.04865185930975 0.91977234902984151 55.689663306283506 0 0.87461971476443456 0.48480960649040278 1 0 0 forward_v I I I I #
loop $-1 $-1 $348 $85 #
coedge $-1 $218 $218 $219 $349 reversed $134 $-1 #
coedge $-1 $219 $219 $218 $349 forward $136 $-1 #
coedge $-1 $220 $220 $137 $221 forward $215 $-1 #
edge $-1 $350 5.4111866181864343e-016 $350 6.2831853071796013 $220 $351 forward 7 unknown #
loop $-1 $-1 $227 $138 #
plane-surface $-1 -30.04865185930975 0.91977234902984151 55.689663306283506 0 0.87461971476443456 0.48480960649040278 1 0 0 forward_v I I I I #
loop $-1 $-1 $352 $88 #
coedge $-1 $225 $225 $226 $353 reversed $139 $-1 #
coedge $-1 $226 $226 $225 $353 forward $141 $-1 #
coedge $-1 $227 $227 $142 $228 forward $222 $-1 #
edge $-1 $354 5.4111866181864343e-016 $354 6.2831853071796013 $227 $355 forward 7 unknown #
face $-1 $356 $357 $49 $-1 $358 forward single #
loop $-1 $-1 $359 $143 #
plane-surface $-1 11.793916219974776 87.278292822685074 103.55897109933107 -1 0 0 0 0.87461971476443456 0.48480960649040278 forward_v I I I I #
coedge $-1 $360 $361 $362 $363 reversed $144 $-1 #
coedge $-1 $234 $146 $364 $365 reversed $92 $-1 #
coedge $-1 $146 $233 $360 $366 reversed $92 $-1 #
coedge $-1 $362 $367 $146 $236 forward $357 $-1 #
edge $-1 $368 13.364343179658242 $369 17.758911139052163 $235 $370 forward 7 unknown #
loop $-1 $-1 $242 $147 #
plane-surface $-1 5.8969581099873878 0.91977234902984151 55.689663306283506 0 0.87461971476443456 0.48480960649040278 1 0 0 forward_v I I I I #
loop $-1 $-1 $371 $94 #
coedge $-1 $240 $240 $241 $372 reversed $148 $-1 #
coedge $-1 $241 $241 $240 $372 forward $150 $-1 #
coedge $-1 $242 $242 $151 $243 forward $237 $-1 #
edge $-1 $373 5.4111866181864343e-016 $373 6.2831853071796013 $242 $374 forward 7 unknown #
loop $-1 $-1 $249 $152 #
plane-surface $-1 5.8969581099873878 0.91977234902984151 55.689663306283506 0 0.87461971476443456 0.48480960649040278 1 0 0 forward_v I I I I #
loop $-1 $-1 $375 $97 #
coedge $-1 $247 $247 $248 $376 reversed $153 $-1 #
coedge $-1 $248 $248 $247 $376 forward $155 $-1 #
coedge $-1 $249 $249 $156 $250 forward $244 $-1 #
edge $-1 $377 5.4111866181864343e-016 $377 6.2831853071796013 $249 $378 forward 7 unknown #
loop $-1 $-1 $256 $157 #
plane-surface $-1 5.8969581099873878 0.91977234902984151 55.689663306283506 0 0.87461971476443456 0.48480960649040278 1 0 0 forward_v I I I I #
loop $-1 $-1 $379 $100 #
coedge $-1 $254 $254 $255 $380 reversed $158 $-1 #
coedge $-1 $255 $255 $254 $380 forward $160 $-1 #
coedge $-1 $256 $256 $161 $257 forward $251 $-1 #
edge $-1 $381 5.4111866181864343e-016 $381 6.2831853071796013 $256 $382 forward 7 unknown #
face $-1 $383 $384 $53 $-1 $385 forward single #
loop $-1 $-1 $386 $162 #
plane-surface $-1 23.475498980650372 -98.864235643899178 76.762339221768997 1 0 0 0 0.69465837861970381 -0.71933979245794832 forward_v I I I I #
coedge $-1 $387 $388 $389 $390 reversed $163 $-1 #
coedge $-1 $263 $165 $391 $392 reversed $104 $-1 #
coedge $-1 $165 $262 $387 $393 reversed $104 $-1 #
coedge $-1 $389 $394 $165 $265 forward $384 $-1 #
edge $-1 $395 19.157314590265294 $396 24.256152000096233 $264 $397 forward 7 unknown #
loop $-1 $-1 $271 $166 #
plane-surface $-1 29.710554474973748 -30.274803231684288 5.7359043657630195 0 -0.69465837861970381 0.71933979245794832 1 0 0 forward_v I I I I #
loop $-1 $-1 $398 $106 #
coedge $-1 $269 $269 $270 $399 reversed $167 $-1 #
coedge $-1 $270 $270 $269 $399 forward $169 $-1 #
coedge $-1 $271 $271 $170 $272 forward $266 $-1 #
edge $-1 $400 1.0585891687972651e-015 $400 6.2831853071796013 $271 $401 forward 7 unknown #
loop $-1 $-1 $278 $171 #
plane-surface $-1 29.710554474973748 -30.274803231684288 5.7359043657630195 0 -0.69465837861970381 0.71933979245794832 1 0 0 forward_v I I I I #
loop $-1 $-1 $402 $109 #
coedge $-1 $276 $276 $277 $403 reversed $172 $-1 #
coedge $-1 $277 $277 $276 $403 forward $174 $-1 #
coedge $-1 $278 $278 $175 $279 forward $273 $-1 #
edge $-1 $404 1.0585891687972651e-015 $404 6.2831853071796013 $278 $405 forward 7 unknown #
face $-1 $406 $407 $42 $-1 $408 reversed single #
loop $-1 $-1 $409 $176 #
plane-surface $-1 -49.369182409131142 0 0 1 0 0 0 0 -1 forward_v I I I I #
coedge $-1 $410 $291 $411 $412 forward $177 $-1 #
coedge $-1 $413 $179 $410 $414 forward $113 $-1 #
coedge $-1 $179 $413 $415 $416 forward $113 $-1 #
coedge $-1 $294 $293 $179 $287 reversed $295 $-1 #
edge $-1 $417 -30.274803231684295 $418 30.274803231684295 $286 $419 forward 7 unknown #
coedge $-1 $181 $180 $420 $421 forward $71 $-1 #
coedge $-1 $422 $423 $180 $290 reversed $407 $-1 #
edge $-1 $297 -49.369182409131142 $424 49.369182409131142 $289 $425 forward 7 unknown #
coedge $-1 $283 $426 $181 $292 reversed $177 $-1 #
edge $-1 $427 -49.369182409131142 $296 49.369182409131142 $291 $428 forward 7 unknown #
coedge $-1 $286 $182 $426 $429 forward $295 $-1 #
coedge $-1 $182 $286 $422 $430 reversed $295 $-1 #
loop $-1 $-1 $293 $406 #
vertex $-1 $183 $431 #
vertex $-1 $183 $432 #
straight-curve $-1 49.369182409131142 0 10.659794528791506 0 1 0 I I #
face $-1 $433 $434 $43 $-1 $435 reversed single #
loop $-1 $-1 $436 $184 #
plane-surface $-1 -56.080968629048144 0 -2.5906952335896909 0 0 1 1 0 0 forward_v I I I I #
coedge $-1 $437 $187 $438 $439 reversed $117 $-1 #
coedge $-1 $187 $437 $308 $440 reversed $117 $-1 #
edge $-1 $310 -1.3957237305176546 $441 2.5906952335896909 $187 $442 forward 7 unknown #
coedge $-1 $189 $188 $436 $443 forward $74 $-1 #
coedge $-1 $444 $445 $188 $307 forward $446 $-1 #
edge $-1 $447 -2.5906952335896909 $311 1.3957237305176546 $306 $448 forward 7 unknown #
coedge $-1 $449 $190 $303 $440 forward $185 $-1 #
coedge $-1 $190 $449 $444 $450 forward $185 $-1 #
vertex $-1 $304 $451 #
vertex $-1 $450 $452 #
straight-curve $-1 -49.369182409131142 0 1.3957237305176546 0 -1 0 I I #
face $-1 $453 $454 $44 $-1 $455 reversed single #
loop $-1 $-1 $456 $192 #
plane-surface $-1 56.080968629048144 0 -2.5906952335896909 0 0 1 1 0 0 forward_v I I I I #
coedge $-1 $324 $323 $457 $458 forward $193 $-1 #
coedge $-1 $459 $195 $460 $461 reversed $121 $-1 #
coedge $-1 $195 $459 $323 $462 reversed $121 $-1 #
edge $-1 $325 -1.3957237305176546 $463 2.5906952335896909 $195 $464 forward 7 unknown #
coedge $-1 $197 $196 $465 $466 forward $77 $-1 #
coedge $-1 $467 $468 $196 $322 forward $469 $-1 #
edge $-1 $470 -2.5906952335896909 $326 1.3957237305176546 $321 $471 forward 7 unknown #
coedge $-1 $316 $198 $318 $462 forward $193 $-1 #
coedge $-1 $198 $316 $467 $472 forward $193 $-1 #
vertex $-1 $319 $473 #
vertex $-1 $472 $474 #
straight-curve $-1 49.369182409131142 0 1.3957237305176546 0 1 0 I I #
face $-1 $-1 $340 $45 $-1 $475 forward single #
loop $-1 $-1 $476 $200 #
plane-surface $-1 0 30.274803231684295 0 0 -1 0 0 0 -1 forward_v I I I I #
coedge $-1 $477 $478 $479 $480 reversed $201 $-1 #
coedge $-1 $481 $203 $205 $338 forward $125 $-1 #
coedge $-1 $203 $481 $477 $482 forward $125 $-1 #
coedge $-1 $479 $206 $203 $335 forward $340 $-1 #
edge $-1 $342 -20.921284039642263 $483 -9.1273678196674872 $334 $484 forward 7 unknown #
coedge $-1 $485 $486 $204 $337 forward $329 $-1 #
edge $-1 $487 -49.047701777472192 $341 -41.119691020874029 $336 $488 forward 7 unknown #
edge $-1 $342 51.485083193694201 $487 60.549606463368548 $205 $489 forward 7 unknown #
coedge $-1 $206 $479 $485 $490 forward $340 $-1 #
loop $-1 $-1 $479 $328 #
vertex $-1 $337 $491 #
vertex $-1 $207 $492 #
straight-curve $-1 -35.945609969297138 43.639146411342537 10.659794528791508 0 -1 0 I I #
coedge $-1 $344 $344 $-1 $493 reversed $210 $-1 #
edge $-1 $494 0 $494 6.2831853071796004 $211 $495 forward 7 unknown #
vertex $-1 $214 $496 #
ellipse-curve $-1 -33.586826725302188 28.077519251987344 6.6957891504924065 0 0.87461971476443456 0.48480960649040278 1 0 0 1 I I #
coedge $-1 $348 $348 $-1 $497 reversed $217 $-1 #
edge $-1 $498 0 $498 6.2831853071796004 $218 $499 forward 7 unknown #
vertex $-1 $221 $500 #
ellipse-curve $-1 -30.04865185930975 28.077519251987344 6.6957891504924065 0 0.87461971476443456 0.48480960649040278 1 0 0 1 I I #
coedge $-1 $352 $352 $-1 $501 reversed $224 $-1 #
edge $-1 $502 0 $502 6.2831853071796004 $225 $503 forward 7 unknown #
vertex $-1 $228 $504 #
ellipse-curve $-1 -26.510476993317315 28.077519251987344 6.6957891504924065 0 0.87461971476443456 0.48480960649040278 1 0 0 1 I I #
face $-1 $-1 $505 $49 $-1 $506 reversed single #
loop $-1 $-1 $235 $229 #
plane-surface $-1 0 0 10.659794528791506 0 0 1 1 0 0 forward_v I I I I #
coedge $-1 $507 $508 $509 $510 reversed $230 $-1 #
coedge $-1 $511 $232 $234 $366 forward $144 $-1 #
coedge $-1 $232 $511 $507 $512 forward $144 $-1 #
coedge $-1 $509 $235 $232 $363 forward $357 $-1 #
edge $-1 $369 -2.9484790549936948 $513 8.8454371649810817 $362 $514 forward 7 unknown #
coedge $-1 $515 $516 $233 $365 forward $505 $-1 #
edge $-1 $517 -49.047701777472192 $368 -41.119691020874029 $364 $518 forward 7 unknown #
edge $-1 $369 51.485083193694201 $517 60.549606463368548 $234 $519 forward 7 unknown #
coedge $-1 $235 $509 $515 $520 forward $357 $-1 #
vertex $-1 $236 $521 #
vertex $-1 $236 $522 #
straight-curve $-1 -8.8817841970012523e-016 43.639146411342537 10.659794528791508 0 -1 0 I I #
coedge $-1 $371 $371 $-1 $523 reversed $239 $-1 #
edge $-1 $524 0 $524 6.2831853071796004 $240 $525 forward 7 unknown #
vertex $-1 $243 $526 #
ellipse-curve $-1 2.3587832439949494 28.077519251987344 6.6957891504924065 0 0.87461971476443456 0.48480960649040278 1 0 0 1 I I #
coedge $-1 $375 $375 $-1 $527 reversed $246 $-1 #
edge $-1 $528 0 $528 6.2831853071796004 $247 $529 forward 7 unknown #
vertex $-1 $250 $530 #
ellipse-curve $-1 5.8969581099873878 28.077519251987344 6.6957891504924065 0 0.87461971476443456 0.48480960649040278 1 0 0 1 I I #
coedge $-1 $379 $379 $-1 $531 reversed $253 $-1 #
edge $-1 $532 0 $532 6.2831853071796004 $254 $533 forward 7 unknown #
vertex $-1 $257 $534 #
ellipse-curve $-1 9.4351329759798261 28.077519251987344 6.6957891504924065 0 0.87461971476443456 0.48480960649040278 1 0 0 1 I I #
face $-1 $-1 $535 $53 $-1 $536 reversed single #
loop $-1 $-1 $264 $258 #
plane-surface $-1 0 0 10.659794528791506 0 0 1 1 0 0 forward_v I I I I #
coedge $-1 $537 $538 $539 $540 reversed $259 $-1 #
coedge $-1 $541 $261 $263 $393 forward $163 $-1 #
coedge $-1 $261 $541 $537 $542 forward $163 $-1 #
coedge $-1 $539 $264 $261 $390 forward $384 $-1 #
edge $-1 $396 -21.09033273181025 $543 -8.6202217431634978 $389 $544 forward 7 unknown #
coedge $-1 $545 $546 $262 $392 forward $535 $-1 #
edge $-1 $547 -32.645265245121486 $395 -27.72137508209299 $391 $548 forward 7 unknown #
edge $-1 $396 -7.0882182013154829 $547 1.0047061288372931e-014 $263 $549 forward 7 unknown #
coedge $-1 $264 $539 $545 $550 forward $384 $-1 #
vertex $-1 $392 $551 #
vertex $-1 $265 $552 #
straight-curve $-1 35.945609969297124 -49.432117821949589 10.659794528791508 0 1 0 I I #
coedge $-1 $398 $398 $-1 $553 reversed $268 $-1 #
edge $-1 $554 0 $554 6.2831853071796004 $269 $555 forward 7 unknown #
vertex $-1 $272 $556 #
ellipse-curve $-1 27.03838783454944 -27.725384526768824 8.1978494472772603 0 -0.69465837861970381 0.71933979245794832 1 0 0 1 I I #
coedge $-1 $402 $402 $-1 $557 reversed $275 $-1 #
edge $-1 $558 0 $558 6.2831853071796004 $276 $559 forward 7 unknown #
vertex $-1 $279 $560 #
ellipse-curve $-1 32.382721115398056 -27.725384526768824 8.1978494472772603 0 -0.69465837861970381 0.71933979245794832 1 0 0 1 I I #
face $-1 $-1 $295 $42 $-1 $561 reversed single #
loop $-1 $-1 $422 $280 #
plane-surface $-1 0 30.274803231684295 0 0 -1 0 0 0 -1 forward_v I I I I #
coedge $-1 $562 $420 $423 $563 forward $281 $-1 #
coedge $-1 $426 $283 $284 $414 reversed $177 $-1 #
coedge $-1 $420 $562 $283 $412 reversed $281 $-1 #
edge $-1 $427 -10.659794528791506 $564 10.659794528791506 $411 $565 forward 7 unknown #
coedge $-1 $285 $284 $562 $566 forward $113 $-1 #
edge $-1 $418 -49.369182409131142 $564 49.369182409131142 $410 $567 forward 7 unknown #
coedge $-1 $423 $422 $285 $416 reversed $407 $-1 #
edge $-1 $568 -49.369182409131142 $417 49.369182409131142 $415 $569 forward 7 unknown #
vertex $-1 $287 $570 #
vertex $-1 $429 $571 #
straight-curve $-1 49.369182409131142 0 -10.659794528791506 0 -1 0 I I #
coedge $-1 $409 $411 $288 $421 reversed $281 $-1 #
edge $-1 $424 -30.274803231684295 $427 30.274803231684295 $420 $572 forward 7 unknown #
coedge $-1 $415 $289 $294 $430 forward $407 $-1 #
coedge $-1 $289 $415 $409 $563 reversed $407 $-1 #
vertex $-1 $290 $573 #
straight-curve $-1 0 30.274803231684295 10.659794528791506 -1 0 0 I I #
coedge $-1 $291 $410 $293 $429 reversed $177 $-1 #
vertex $-1 $421 $574 #
straight-curve $-1 0 -30.274803231684295 10.659794528791506 1 0 0 I I #
edge $-1 $296 -10.659794528791506 $418 10.659794528791506 $293 $575 forward 7 unknown #
edge $-1 $297 -10.659794528791506 $417 10.659794528791506 $294 $576 forward 7 unknown #
point $-1 49.369182409131142 -30.274803231684295 10.659794528791506 #
point $-1 49.369182409131142 30.274803231684295 10.659794528791506 #
face $-1 $-1 $446 $43 $-1 $577 reversed single #
loop $-1 $-1 $578 $299 #
plane-surface $-1 -62.792754848965146 0 -0.59748575153601813 1 0 0 0 0 -1 forward_v I I I I #
coedge $-1 $579 $438 $305 $443 reversed $300 $-1 #
coedge $-1 $303 $302 $578 $580 reversed $117 $-1 #
coedge $-1 $436 $581 $302 $439 forward $300 $-1 #
edge $-1 $582 -6.711786219917002 $441 6.711786219917002 $302 $583 forward 7 unknown #
edge $-1 $310 -6.711786219917002 $584 6.711786219917002 $303 $585 forward 7 unknown #
vertex $-1 $304 $586 #
straight-curve $-1 -49.369182409131142 30.274803231684295 0 0 0 -1 I I #
edge $-1 $447 -30.274803231684295 $441 30.274803231684295 $436 $587 forward 7 unknown #
coedge $-1 $588 $306 $309 $450 reversed $446 $-1 #
coedge $-1 $306 $588 $579 $589 reversed $446 $-1 #
loop $-1 $-1 $306 $433 #
vertex $-1 $307 $590 #
straight-curve $-1 -49.369182409131142 -30.274803231684295 0 0 0 1 I I #
coedge $-1 $309 $308 $591 $592 forward $185 $-1 #
edge $-1 $593 -6.711786219917002 $311 6.711786219917002 $444 $594 forward 7 unknown #
point $-1 -49.369182409131142 30.274803231684295 1.3957237305176546 #
point $-1 -49.369182409131142 -30.274803231684295 1.3957237305176546 #
face $-1 $-1 $469 $44 $-1 $595 reversed single #
loop $-1 $-1 $596 $313 #
plane-surface $-1 62.792754848965146 0 -0.59748575153601813 -1 0 0 0 0 1 forward_v I I I I #
coedge $-1 $460 $597 $598 $599 forward $314 $-1 #
coedge $-1 $596 $600 $316 $458 reversed $454 $-1 #
edge $-1 $601 -30.274803231684295 $602 30.274803231684295 $457 $603 forward 7 unknown #
coedge $-1 $318 $317 $596 $604 reversed $121 $-1 #
coedge $-1 $465 $456 $317 $461 forward $314 $-1 #
edge $-1 $605 -6.711786219917002 $463 6.711786219917002 $317 $606 forward 7 unknown #
edge $-1 $325 -6.711786219917002 $601 6.711786219917002 $318 $607 forward 7 unknown #
vertex $-1 $319 $608 #
straight-curve $-1 49.369182409131142 -30.274803231684295 0 0 0 -1 I I #
coedge $-1 $597 $460 $320 $466 reversed $314 $-1 #
edge $-1 $470 -30.274803231684295 $463 30.274803231684295 $465 $609 forward 7 unknown #
coedge $-1 $610 $321 $324 $472 reversed $469 $-1 #
coedge $-1 $321 $610 $597 $611 reversed $469 $-1 #
loop $-1 $-1 $321 $453 #
vertex $-1 $322 $612 #
straight-curve $-1 49.369182409131142 30.274803231684295 0 0 0 1 I I #
edge $-1 $602 -6.711786219917002 $326 6.711786219917002 $467 $613 forward 7 unknown #
point $-1 49.369182409131142 -30.274803231684295 1.3957237305176546 #
point $-1 49.369182409131142 30.274803231684295 1.3957237305176546 #
plane-surface $-1 0 0 10.659794528791506 0 0 1 1 0 0 forward_v I I I I #
coedge $-1 $486 $485 $478 $614 forward $329 $-1 #
coedge $-1 $478 $331 $333 $482 reversed $201 $-1 #
coedge $-1 $331 $477 $476 $614 reversed $201 $-1 #
coedge $-1 $339 $334 $331 $480 forward $340 $-1 #
edge $-1 $483 -17.758911139052163 $615 -13.364343179658242 $479 $616 forward 7 unknown #
coedge $-1 $333 $332 $486 $617 reversed $125 $-1 #
edge $-1 $618 -60.549606463368548 $483 -51.485083193694201 $477 $619 forward 7 unknown #
vertex $-1 $335 $620 #
straight-curve $-1 -15.024325929654875 25.880235272290378 10.659794528791512 1 0 0 I I #
coedge $-1 $476 $336 $339 $490 reversed $329 $-1 #
coedge $-1 $336 $476 $481 $617 forward $329 $-1 #
vertex $-1 $337 $621 #
straight-curve $-1 -35.945609969297138 30.274803231684295 51.779485549665537 0 0 1 I I #
straight-curve $-1 -35.945609969297138 0.91977234902984151 55.689663306283506 0 0.48480960649040278 -0.87461971476443456 I I #
edge $-1 $615 24.151693749322362 $341 35.945609969297138 $485 $622 forward 7 unknown #
point $-1 -35.945609969297138 30.274803231684295 10.659794528791506 #
point $-1 -35.945609969297138 25.880235272290374 10.659794528791508 #
edge $-1 $623 1 $623 0 $344 $-1 forward 7 unknown #
vertex $-1 $345 $624 #
ellipse-curve $-1 -33.586826725302188 25.923761197706263 5.5019416106473029 0 0.87461971476443456 0.48480960649040278 1 0 0 1 I I #
point $-1 -32.586826725302188 28.077519251987322 6.6957891504923941 #
edge $-1 $625 1 $625 0 $348 $-1 forward 7 unknown #
vertex $-1 $349 $626 #
ellipse-curve $-1 -30.04865185930975 25.923761197706263 5.5019416106473029 0 0.87461971476443456 0.48480960649040278 1 0 0 1 I I #
point $-1 -29.04865185930975 28.077519251987322 6.6957891504923941 #
edge $-1 $627 1 $627 0 $352 $-1 forward 7 unknown #
vertex $-1 $353 $628 #
ellipse-curve $-1 -26.510476993317315 25.923761197706263 5.5019416106473029 0 0.87461971476443456 0.48480960649040278 1 0 0 1 I I #
point $-1 -25.510476993317315 28.077519251987322 6.6957891504923941 #
loop $-1 $-1 $364 $356 #
plane-surface $-1 0 30.274803231684295 0 0 -1 0 0 0 -1 forward_v I I I I #
coedge $-1 $508 $359 $361 $512 reversed $230 $-1 #
coedge $-1 $359 $507 $629 $630 reversed $230 $-1 #
coedge $-1 $367 $362 $359 $510 forward $357 $-1 #
edge $-1 $513 -17.758911139052163 $631 -13.364343179658242 $509 $632 forward 7 unknown #
coedge $-1 $361 $360 $516 $633 reversed $144 $-1 #
edge $-1 $634 -60.549606463368548 $513 -51.485083193694201 $507 $635 forward 7 unknown #
vertex $-1 $363 $636 #
straight-curve $-1 2.9484790549936939 25.880235272290378 10.659794528791512 1 0 0 I I #
coedge $-1 $629 $364 $367 $520 reversed $505 $-1 #
coedge $-1 $364 $629 $511 $633 forward $505 $-1 #
vertex $-1 $365 $637 #
straight-curve $-1 -8.8817841970012523e-016 30.274803231684295 51.779485549665537 0 0 1 I I #
straight-curve $-1 -8.8817841970012523e-016 0.91977234902984151 55.689663306283506 0 0.48480960649040278 -0.87461971476443456 I I #
edge $-1 $631 -11.793916219974776 $368 8.8817841970012523e-016 $515 $638 forward 7 unknown #
point $-1 -8.8817841970012523e-016 30.274803231684295 10.659794528791506 #
point $-1 -8.8817841970012523e-016 25.880235272290374 10.659794528791508 #
edge $-1 $639 1 $639 0 $371 $-1 forward 7 unknown #
vertex $-1 $372 $640 #
ellipse-curve $-1 2.3587832439949494 25.923761197706263 5.5019416106473029 0 0.87461971476443456 0.48480960649040278 1 0 0 1 I I #
point $-1 3.3587832439949494 28.077519251987322 6.6957891504923941 #
edge $-1 $641 1 $641 0 $375 $-1 forward 7 unknown #
vertex $-1 $376 $642 #
ellipse-curve $-1 5.8969581099873878 25.923761197706263 5.5019416106473029 0 0.87461971476443456 0.48480960649040278 1 0 0 1 I I #
point $-1 6.8969581099873878 28.077519251987322 6.6957891504923941 #
edge $-1 $643 1 $643 0 $379 $-1 forward 7 unknown #
vertex $-1 $380 $644 #
ellipse-curve $-1 9.4351329759798261 25.923761197706263 5.5019416106473029 0 0.87461971476443456 0.48480960649040278 1 0 0 1 I I #
point $-1 10.435132975979826 28.077519251987322 6.6957891504923941 #
loop $-1 $-1 $391 $383 #
plane-surface $-1 0 -30.274803231684295 0 0 1 0 0 0 1 forward_v I I I I #
coedge $-1 $538 $386 $388 $542 reversed $259 $-1 #
coedge $-1 $386 $537 $645 $646 reversed $259 $-1 #
coedge $-1 $394 $389 $386 $540 forward $384 $-1 #
edge $-1 $543 -24.256152000096233 $647 -19.157314590265294 $539 $648 forward 7 unknown #
coedge $-1 $388 $387 $546 $649 reversed $163 $-1 #
edge $-1 $650 -1.0047061288372931e-014 $543 7.0882182013154829 $537 $651 forward 7 unknown #
vertex $-1 $390 $652 #
straight-curve $-1 14.855277237486874 -25.175965821853353 10.659794528791506 -1 0 0 I I #
coedge $-1 $645 $391 $394 $550 reversed $535 $-1 #
coedge $-1 $391 $645 $541 $649 forward $535 $-1 #
vertex $-1 $392 $653 #
straight-curve $-1 35.945609969297124 -30.274803231684295 38.381169610884498 0 0 1 I I #
straight-curve $-1 35.945609969297124 -30.274803231684288 5.7359043657630195 0 -0.71933979245794832 -0.69465837861970381 I I #
edge $-1 $647 23.475498980650372 $395 35.945609969297124 $545 $654 forward 7 unknown #
point $-1 35.945609969297124 -30.274803231684295 10.659794528791506 #
point $-1 35.945609969297124 -25.175965821853357 10.659794528791506 #
edge $-1 $655 1 $655 0 $398 $-1 forward 7 unknown #
vertex $-1 $399 $656 #
ellipse-curve $-1 27.03838783454944 -25.863224345452341 6.2695261741695312 0 -0.69465837861970381 0.71933979245794832 1 0 0 1 I I #
point $-1 28.03838783454944 -27.725384526768831 8.1978494472772692 #
edge $-1 $657 1 $657 0 $402 $-1 forward 7 unknown #
vertex $-1 $403 $658 #
ellipse-curve $-1 32.382721115398056 -25.863224345452341 6.2695261741695312 0 -0.69465837861970381 0.71933979245794832 1 0 0 1 I I #
point $-1 33.382721115398056 -27.725384526768831 8.1978494472772692 #
plane-surface $-1 49.369182409131142 0 0 -1 0 0 0 0 1 forward_v I I I I #
coedge $-1 $411 $409 $413 $566 reversed $281 $-1 #
edge $-1 $424 -10.659794528791506 $568 10.659794528791506 $423 $659 forward 7 unknown #
vertex $-1 $566 $660 #
straight-curve $-1 -49.369182409131142 -30.274803231684295 0 0 0 -1 I I #
edge $-1 $564 -30.274803231684295 $568 30.274803231684295 $562 $661 forward 7 unknown #
straight-curve $-1 0 -30.274803231684295 -10.659794528791506 -1 0 0 I I #
vertex $-1 $416 $662 #
straight-curve $-1 0 30.274803231684295 -10.659794528791506 1 0 0 I I #
point $-1 49.369182409131142 30.274803231684295 -10.659794528791506 #
point $-1 49.369182409131142 -30.274803231684295 -10.659794528791506 #
straight-curve $-1 -49.369182409131142 0 10.659794528791506 0 -1 0 I I #
point $-1 -49.369182409131142 30.274803231684295 10.659794528791506 #
point $-1 -49.369182409131142 -30.274803231684295 10.659794528791506 #
straight-curve $-1 49.369182409131142 -30.274803231684295 0 0 0 -1 I I #
straight-curve $-1 49.369182409131142 30.274803231684295 0 0 0 -1 I I #
plane-surface $-1 0 -30.274803231684295 0 0 1 0 0 0 1 forward_v I I I I #
coedge $-1 $663 $591 $437 $580 forward $434 $-1 #
coedge $-1 $581 $436 $445 $589 forward $300 $-1 #
edge $-1 $584 -1.9932094820536728 $582 1.9932094820536728 $437 $664 forward 7 unknown #
coedge $-1 $438 $579 $663 $665 forward $300 $-1 #
vertex $-1 $439 $666 #
straight-curve $-1 -56.080968629048144 30.274803231684295 -2.5906952335896909 1 0 0 I I #
vertex $-1 $440 $667 #
straight-curve $-1 -56.080968629048144 30.274803231684295 1.3957237305176546 -1 0 0 I I #
point $-1 -49.369182409131142 30.274803231684295 -2.5906952335896909 #
straight-curve $-1 -49.369182409131142 0 -2.5906952335896909 0 1 0 I I #
coedge $-1 $445 $444 $668 $669 forward $446 $-1 #
edge $-1 $447 -6.711786219917002 $670 6.711786219917002 $445 $671 forward 7 unknown #
point $-1 -49.369182409131142 -30.274803231684295 -2.5906952335896909 #
coedge $-1 $578 $668 $449 $592 reversed $434 $-1 #
edge $-1 $584 -30.274803231684295 $593 30.274803231684295 $591 $672 forward 7 unknown #
vertex $-1 $592 $673 #
straight-curve $-1 -56.080968629048144 -30.274803231684295 1.3957237305176546 1 0 0 I I #
plane-surface $-1 0 30.274803231684295 0 0 -1 0 0 0 -1 forward_v I I I I #
coedge $-1 $598 $457 $459 $604 forward $454 $-1 #
coedge $-1 $456 $465 $468 $611 forward $314 $-1 #
coedge $-1 $600 $596 $456 $599 reversed $454 $-1 #
edge $-1 $674 -30.274803231684295 $605 30.274803231684295 $598 $675 forward 7 unknown #
coedge $-1 $457 $598 $610 $676 reversed $454 $-1 #
vertex $-1 $458 $677 #
vertex $-1 $458 $678 #
straight-curve $-1 62.792754848965146 0 1.3957237305176546 0 1 0 I I #
edge $-1 $601 -1.9932094820536728 $605 1.9932094820536728 $596 $679 forward 7 unknown #
vertex $-1 $604 $680 #
straight-curve $-1 56.080968629048144 -30.274803231684295 -2.5906952335896909 -1 0 0 I I #
straight-curve $-1 56.080968629048144 -30.274803231684295 1.3957237305176546 1 0 0 I I #
point $-1 49.369182409131142 -30.274803231684295 -2.5906952335896909 #
straight-curve $-1 49.369182409131142 0 -2.5906952335896909 0 -1 0 I I #
coedge $-1 $468 $467 $600 $676 forward $469 $-1 #
edge $-1 $470 -6.711786219917002 $674 6.711786219917002 $468 $681 forward 7 unknown #
point $-1 49.369182409131142 30.274803231684295 -2.5906952335896909 #
straight-curve $-1 56.080968629048144 30.274803231684295 1.3957237305176546 -1 0 0 I I #
edge $-1 $615 41.119691020874029 $618 49.047701777472192 $476 $682 forward 7 unknown #
vertex $-1 $490 $683 #
straight-curve $-1 -24.151693749322362 43.639146411342537 10.659794528791508 0 1 0 I I #
edge $-1 $618 9.1273678196674872 $487 20.921284039642263 $486 $684 forward 7 unknown #
vertex $-1 $617 $685 #
straight-curve $-1 -24.151693749322362 0.91977234902984151 55.689663306283506 0 -0.48480960649040278 0.87461971476443456 I I #
point $-1 -24.151693749322362 25.880235272290374 10.659794528791508 #
point $-1 -35.945609969297138 30.274803231684295 2.7317837721933458 #
straight-curve $-1 0 30.274803231684295 10.659794528791506 -1 0 0 I I #
vertex $-1 $493 $686 #
point $-1 -32.586826725302188 25.923761197706263 5.5019416106473029 #
vertex $-1 $497 $687 #
point $-1 -29.04865185930975 25.923761197706263 5.5019416106473029 #
vertex $-1 $501 $688 #
point $-1 -25.510476993317315 25.923761197706263 5.5019416106473029 #
coedge $-1 $516 $515 $508 $630 forward $505 $-1 #
edge $-1 $631 41.119691020874029 $634 49.047701777472192 $629 $689 forward 7 unknown #
vertex $-1 $520 $690 #
straight-curve $-1 11.793916219974776 43.639146411342537 10.659794528791508 0 1 0 I I #
edge $-1 $634 -8.8454371649810817 $517 2.9484790549936948 $516 $691 forward 7 unknown #
vertex $-1 $633 $692 #
straight-curve $-1 11.793916219974776 0.91977234902984151 55.689663306283506 0 -0.48480960649040278 0.87461971476443456 I I #
point $-1 11.793916219974776 25.880235272290374 10.659794528791508 #
point $-1 -8.8817841970012523e-016 30.274803231684295 2.7317837721933458 #
straight-curve $-1 0 30.274803231684295 10.659794528791506 -1 0 0 I I #
vertex $-1 $523 $693 #
point $-1 3.3587832439949494 25.923761197706263 5.5019416106473029 #
vertex $-1 $527 $694 #
point $-1 6.8969581099873878 25.923761197706263 5.5019416106473029 #
vertex $-1 $531 $695 #
point $-1 10.435132975979826 25.923761197706263 5.5019416106473029 #
coedge $-1 $546 $545 $538 $646 forward $535 $-1 #
edge $-1 $647 27.72137508209299 $650 32.645265245121486 $645 $696 forward 7 unknown #
vertex $-1 $550 $697 #
straight-curve $-1 23.475498980650372 -49.432117821949589 10.659794528791508 0 -1 0 I I #
edge $-1 $650 8.6202217431634978 $547 21.09033273181025 $546 $698 forward 7 unknown #
vertex $-1 $649 $699 #
straight-curve $-1 23.475498980650372 -30.274803231684288 5.7359043657630195 0 0.71933979245794832 0.69465837861970381 I I #
point $-1 23.475498980650372 -25.175965821853357 10.659794528791506 #
point $-1 35.945609969297124 -30.274803231684295 5.7359043657630124 #
straight-curve $-1 0 -30.274803231684295 10.659794528791506 1 0 0 I I #
vertex $-1 $553 $700 #
point $-1 28.03838783454944 -25.863224345452341 6.2695261741695312 #
vertex $-1 $557 $701 #
point $-1 33.382721115398056 -25.863224345452341 6.2695261741695312 #
straight-curve $-1 -49.369182409131142 30.274803231684295 0 0 0 -1 I I #
point $-1 -49.369182409131142 -30.274803231684295 -10.659794528791506 #
straight-curve $-1 -49.369182409131142 0 -10.659794528791506 0 1 0 I I #
point $-1 -49.369182409131142 30.274803231684295 -10.659794528791506 #
coedge $-1 $668 $578 $581 $665 reversed $434 $-1 #
straight-curve $-1 -62.792754848965146 30.274803231684295 -0.59748575153601813 0 0 -1 I I #
edge $-1 $670 -30.274803231684295 $582 30.274803231684295 $663 $702 forward 7 unknown #
point $-1 -62.792754848965146 30.274803231684295 -2.5906952335896909 #
point $-1 -62.792754848965146 30.274803231684295 1.3957237305176546 #
coedge $-1 $591 $663 $588 $669 reversed $434 $-1 #
edge $-1 $593 -1.9932094820536728 $670 1.9932094820536728 $668 $703 forward 7 unknown #
vertex $-1 $665 $704 #
straight-curve $-1 -56.080968629048144 -30.274803231684295 -2.5906952335896909 -1 0 0 I I #
straight-curve $-1 -62.792754848965146 0 1.3957237305176546 0 -1 0 I I #
point $-1 -62.792754848965146 -30.274803231684295 1.3957237305176546 #
vertex $-1 $599 $705 #
straight-curve $-1 62.792754848965146 0 -2.5906952335896909 0 -1 0 I I #
edge $-1 $602 -1.9932094820536728 $674 1.9932094820536728 $600 $706 forward 7 unknown #
point $-1 62.792754848965146 -30.274803231684295 1.3957237305176546 #
point $-1 62.792754848965146 30.274803231684295 1.3957237305176546 #
straight-curve $-1 62.792754848965146 -30.274803231684295 -0.59748575153601813 0 0 -1 I I #
point $-1 62.792754848965146 -30.274803231684295 -2.5906952335896909 #
straight-curve $-1 56.080968629048144 30.274803231684295 -2.5906952335896909 1 0 0 I I #
straight-curve $-1 -24.151693749322362 30.274803231684295 51.779485549665537 0 0 -1 I I #
point $-1 -24.151693749322362 30.274803231684295 10.659794528791506 #
straight-curve $-1 -15.024325929654875 30.274803231684295 2.7317837721933529 -1 0 0 I I #
point $-1 -24.151693749322362 30.274803231684295 2.7317837721933458 #
point $-1 -33.586826725302188 25.049141482941828 5.0171320041568999 #
point $-1 -30.04865185930975 25.049141482941828 5.0171320041568999 #
point $-1 -26.510476993317315 25.049141482941828 5.0171320041568999 #
straight-curve $-1 11.793916219974776 30.274803231684295 51.779485549665537 0 0 -1 I I #
point $-1 11.793916219974776 30.274803231684295 10.659794528791506 #
straight-curve $-1 2.9484790549936939 30.274803231684295 2.7317837721933529 -1 0 0 I I #
point $-1 11.793916219974776 30.274803231684295 2.7317837721933458 #
point $-1 2.3587832439949494 25.049141482941828 5.0171320041568999 #
point $-1 5.8969581099873878 25.049141482941828 5.0171320041568999 #
point $-1 9.4351329759798261 25.049141482941828 5.0171320041568999 #
straight-curve $-1 23.475498980650372 -30.274803231684295 38.381169610884498 0 0 -1 I I #
point $-1 23.475498980650372 -30.274803231684295 10.659794528791506 #
straight-curve $-1 14.855277237486874 -30.274803231684295 5.7359043657630107 1 0 0 I I #
point $-1 23.475498980650372 -30.274803231684295 5.7359043657630124 #
point $-1 27.03838783454944 -25.168565966832634 5.5501863817115833 #
point $-1 32.382721115398056 -25.168565966832634 5.5501863817115833 #
straight-curve $-1 -62.792754848965146 0 -2.5906952335896909 0 1 0 I I #
straight-curve $-1 -62.792754848965146 -30.274803231684295 -0.59748575153601813 0 0 -1 I I #
point $-1 -62.792754848965146 -30.274803231684295 -2.5906952335896909 #
point $-1 62.792754848965146 30.274803231684295 -2.5906952335896909 #
straight-curve $-1 62.792754848965146 30.274803231684295 -0.59748575153601813 0 0 -1 I I #
End-of-ACIS-data 