500 0 9 0           
7 Unknown 11 ACIS 5.0 NT 24 Thu Mar 25 15:28:34 1999 
-1 9.9999999999999995e-007 1e-010 
body $-1 $9 $-1 $10 #
body $-1 $11 $-1 $12 #
body $-1 $13 $-1 $14 #
body $-1 $15 $-1 $16 #
body $-1 $17 $-1 $18 #
body $-1 $19 $-1 $20 #
body $-1 $21 $-1 $22 #
body $-1 $23 $-1 $24 #
body $-1 $25 $-1 $26 #
lump $-1 $-1 $27 $0 #
transform $-1 1 0 0 0 1 0 0 0 1 59.425641651661735 36.049476361305764 16.299221693788905 1 rotate no_reflect no_shear #
lump $-1 $-1 $28 $1 #
transform $-1 1 0 0 0 1 0 0 0 1 59.425641651661735 36.049476361305764 16.299221693788905 1 rotate no_reflect no_shear #
lump $-1 $-1 $29 $2 #
transform $-1 1 0 0 0 1 0 0 0 1 59.425641651661735 36.049476361305764 16.299221693788905 1 rotate no_reflect no_shear #
lump $-1 $-1 $30 $3 #
transform $-1 1 0 0 0 1 0 0 0 1 59.425641651661735 36.049476361305764 16.299221693788905 1 rotate no_reflect no_shear #
lump $-1 $-1 $31 $4 #
transform $-1 1 0 0 0 1 0 0 0 1 59.425641651661735 36.049476361305764 16.299221693788905 1 rotate no_reflect no_shear #
lump $-1 $-1 $32 $5 #
transform $-1 1 0 0 0 1 0 0 0 1 59.425641651661735 36.049476361305764 16.299221693788905 1 rotate no_reflect no_shear #
lump $-1 $-1 $33 $6 #
transform $-1 1 0 0 0 1 0 0 0 1 59.425641651661735 36.049476361305764 16.299221693788905 1 rotate no_reflect no_shear #
lump $-1 $-1 $34 $7 #
transform $-1 1 0 0 0 1 0 0 0 1 59.425641651661735 36.049476361305764 16.299221693788905 1 rotate no_reflect no_shear #
lump $-1 $-1 $35 $8 #
transform $-1 1 0 0 0 1 0 0 0 1 59.425641651661735 36.049476361305764 16.299221693788905 1 rotate no_reflect no_shear #
shell $-1 $-1 $-1 $36 $-1 $9 #
shell $-1 $-1 $-1 $37 $-1 $11 #
shell $-1 $-1 $-1 $38 $-1 $13 #
shell $-1 $-1 $-1 $39 $-1 $15 #
shell $-1 $-1 $-1 $40 $-1 $17 #
shell $-1 $-1 $-1 $41 $-1 $19 #
shell $-1 $-1 $-1 $42 $-1 $21 #
shell $-1 $-1 $-1 $43 $-1 $23 #
shell $-1 $-1 $-1 $44 $-1 $25 #
face $-1 $45 $46 $27 $-1 $47 forward single #
face $-1 $48 $49 $28 $-1 $50 reversed single #
face $-1 $51 $52 $29 $-1 $53 reversed single #
face $-1 $54 $55 $30 $-1 $56 forward single #
face $-1 $57 $58 $31 $-1 $59 reversed single #
face $-1 $60 $61 $32 $-1 $62 forward single #
face $-1 $63 $64 $33 $-1 $65 reversed single #
face $-1 $66 $67 $34 $-1 $68 forward single #
face $-1 $69 $70 $35 $-1 $71 forward single #
face $-1 $72 $73 $27 $-1 $74 reversed single #
loop $-1 $-1 $75 $36 #
plane-surface $-1 0 0 16.299221693788905 0 0 1 1 0 0 forward_v I I I I #
face $-1 $76 $77 $28 $-1 $78 reversed single #
loop $-1 $-1 $79 $37 #
plane-surface $-1 0 -29.584216250266667 10.182748113932124 0 0 1 1 0 0 forward_v I I I I #
face $-1 $80 $81 $29 $-1 $82 reversed single #
loop $-1 $-1 $83 $38 #
plane-surface $-1 71.150388382541919 -13.378278647468065 177.8456635354062 0 -1 0 -0.75470958851134928 0 -0.65605901945558964 forward_v I I I I #
face $-1 $84 $85 $30 $-1 $86 forward single #
loop $-1 $87 $88 $39 #
cone-surface $-1 56.146911660556185 -18.248617393347818 12.700745570927609 -0.75470958851134928 0 -0.65605901945558964 0.32802950972779482 0 -0.37735479425567464 1 I I 0 1 0.5 forward I I I I #
face $-1 $89 $90 $31 $-1 $91 reversed single #
loop $-1 $-1 $92 $40 #
plane-surface $-1 -18.547814733355139 31.179137615426015 99.872207150389315 0.75470958851134928 0 0.65605901945558964 0.65605901945558964 0 -0.75470958851134928 forward_v I I I I #
face $-1 $93 $94 $32 $-1 $95 forward single #
loop $-1 $96 $97 $41 #
cone-surface $-1 56.146911660556185 31.179137615426015 12.700745570927609 -0.75470958851134928 0 -0.65605901945558964 0.32802950972779482 0 -0.37735479425567464 1 I I 0 1 0.5 forward I I I I #
face $-1 $98 $99 $33 $-1 $100 reversed single #
loop $-1 $-1 $101 $42 #
plane-surface $-1 -140.48202291954937 8.2649066923317562 93.76289890946191 0 1 0 -0.68199836817093118 0 0.7313536940579346 forward_v I I I I #
face $-1 $102 $103 $34 $-1 $104 forward single #
loop $-1 $105 $106 $43 #
cone-surface $-1 -53.194091075471611 11.955535926019273 10.325980450860921 0.68199836817093118 0 -0.7313536940579346 0.7313536940579346 0 0.68199836817093118 1 I I 0 1 1 forward I I I I #
face $-1 $107 $108 $35 $-1 $109 forward single #
loop $-1 $110 $111 $44 #
cone-surface $-1 -53.194091075471611 17.491479776550548 10.325980450860921 0.68199836817093118 0 -0.7313536940579346 0.7313536940579346 0 0.68199836817093118 1 I I 0 1 1 forward I I I I #
face $-1 $112 $113 $27 $-1 $114 reversed single #
loop $-1 $-1 $115 $45 #
plane-surface $-1 0 0 -16.299221693788905 0 0 1 1 0 0 forward_v I I I I #
coedge $-1 $116 $117 $118 $119 forward $46 $-1 #
face $-1 $120 $121 $28 $-1 $122 reversed single #
loop $-1 $-1 $123 $48 #
plane-surface $-1 0 -23.118956139227571 13.240984903860515 0 -1 0 0 0 -1 forward_v I I I I #
coedge $-1 $124 $125 $126 $127 reversed $49 $-1 #
face $-1 $128 $129 $29 $-1 $130 forward single #
loop $-1 $-1 $131 $51 #
plane-surface $-1 -18.547814733355139 -18.248617393347818 99.872207150389315 0.75470958851134928 0 0.65605901945558964 0.65605901945558964 0 -0.75470958851134928 forward_v I I I I #
coedge $-1 $132 $133 $134 $135 reversed $52 $-1 #
face $-1 $-1 $136 $30 $-1 $137 forward single #
loop $-1 $138 $139 $54 #
cone-surface $-1 55.341789443123844 -18.248617393347818 12.000863522850739 -0.75470958851134928 0 -0.65605901945558964 0.16401475486389741 0 -0.18867739712783732 1 I I -0.70710678118654746 0.70710678118654746 0.25 forward I I I I #
loop $-1 $-1 $140 $39 #
coedge $-1 $88 $88 $141 $142 reversed $55 $-1 #
face $-1 $143 $144 $31 $-1 $145 reversed single #
loop $-1 $-1 $146 $57 #
plane-surface $-1 71.150388382541919 26.308798869546262 177.8456635354062 0 1 0 0.75470958851134928 0 0.65605901945558964 forward_v I I I I #
coedge $-1 $147 $148 $149 $150 reversed $58 $-1 #
face $-1 $-1 $151 $32 $-1 $152 forward single #
loop $-1 $153 $154 $60 #
cone-surface $-1 55.341789443123844 31.179137615426015 12.000863522850739 -0.75470958851134928 0 -0.65605901945558964 0.16401475486389741 0 -0.18867739712783732 1 I I -0.70710678118654746 0.70710678118654746 0.25 forward I I I I #
loop $-1 $-1 $155 $41 #
coedge $-1 $97 $97 $156 $157 reversed $61 $-1 #
face $-1 $158 $159 $33 $-1 $160 reversed single #
loop $-1 $-1 $161 $63 #
plane-surface $-1 -59.425641651661721 14.723507851284914 6.8405738220501604 -0.68199836817093118 0 0.7313536940579346 0.7313536940579346 0 0.68199836817093118 forward_v I I I I #
coedge $-1 $162 $163 $164 $165 reversed $64 $-1 #
face $-1 $-1 $166 $34 $-1 $167 forward single #
loop $-1 $168 $169 $66 #
cone-surface $-1 -51.693120210862503 11.955535926019273 8.7163862967733365 0.68199836817093118 0 -0.7313536940579346 0.3656768470289673 0 0.34099918408546559 1 I I -0.70710678118654746 0.70710678118654746 0.5 forward I I I I #
loop $-1 $-1 $170 $43 #
coedge $-1 $106 $106 $171 $172 reversed $67 $-1 #
face $-1 $-1 $173 $35 $-1 $174 forward single #
loop $-1 $175 $176 $69 #
cone-surface $-1 -51.693120210862503 17.491479776550548 8.7163862967733365 0.68199836817093118 0 -0.7313536940579346 0.3656768470289673 0 0.34099918408546559 1 I I -0.70710678118654746 0.70710678118654746 0.5 forward I I I I #
loop $-1 $-1 $177 $44 #
coedge $-1 $111 $111 $178 $179 reversed $70 $-1 #
face $-1 $180 $181 $27 $-1 $182 reversed single #
loop $-1 $-1 $183 $72 #
plane-surface $-1 0 -36.049476361305764 0 0 1 0 0 0 1 forward_v I I I I #
coedge $-1 $184 $185 $186 $187 forward $73 $-1 #
coedge $-1 $188 $75 $189 $190 forward $46 $-1 #
coedge $-1 $75 $188 $191 $192 forward $46 $-1 #
coedge $-1 $193 $194 $75 $119 reversed $195 $-1 #
edge $-1 $196 -36.049476361305764 $197 36.049476361305764 $118 $198 forward 7 unknown #
face $-1 $199 $200 $28 $-1 $201 reversed single #
loop $-1 $-1 $202 $76 #
plane-surface $-1 -59.425641651661735 0 0 1 0 0 0 0 -1 forward_v I I I I #
coedge $-1 $203 $204 $205 $206 reversed $77 $-1 #
coedge $-1 $207 $79 $208 $209 reversed $49 $-1 #
coedge $-1 $79 $207 $203 $210 forward $49 $-1 #
coedge $-1 $205 $211 $79 $127 forward $212 $-1 #
edge $-1 $213 -21.257368236172432 $214 -8.3268480140942369 $126 $215 forward 7 unknown #
face $-1 $216 $217 $29 $-1 $218 forward single #
loop $-1 $-1 $219 $80 #
plane-surface $-1 0 -23.118956139227571 13.240984903860515 0 -1 0 0 0 -1 forward_v I I I I #
coedge $-1 $220 $221 $222 $223 reversed $81 $-1 #
coedge $-1 $133 $83 $224 $225 reversed $52 $-1 #
coedge $-1 $83 $132 $220 $226 reversed $52 $-1 #
coedge $-1 $222 $227 $83 $135 forward $217 $-1 #
edge $-1 $228 -23.850447460390775 $229 -18.525877118788735 $134 $230 forward 7 unknown #
loop $-1 $-1 $141 $84 #
plane-surface $-1 -18.547814733355139 -18.248617393347818 99.872207150389315 0.75470958851134928 0 0.65605901945558964 0.65605901945558964 0 -0.75470958851134928 forward_v I I I I #
loop $-1 $-1 $231 $54 #
coedge $-1 $139 $139 $140 $232 reversed $85 $-1 #
coedge $-1 $140 $140 $139 $232 forward $87 $-1 #
coedge $-1 $141 $141 $88 $142 forward $136 $-1 #
edge $-1 $233 0 $233 6.2831853071796004 $141 $234 forward 7 unknown #
face $-1 $235 $236 $31 $-1 $237 forward single #
loop $-1 $-1 $238 $89 #
plane-surface $-1 0 36.049476361305764 0 0 -1 0 0 0 -1 forward_v I I I I #
coedge $-1 $239 $240 $241 $242 reversed $90 $-1 #
coedge $-1 $243 $92 $238 $244 reversed $58 $-1 #
coedge $-1 $92 $243 $239 $245 forward $58 $-1 #
coedge $-1 $241 $246 $92 $150 forward $236 $-1 #
edge $-1 $247 -20.459907553592764 $248 -10.719230061833255 $149 $249 forward 7 unknown #
loop $-1 $-1 $156 $93 #
plane-surface $-1 -18.547814733355139 31.179137615426015 99.872207150389315 0.75470958851134928 0 0.65605901945558964 0.65605901945558964 0 -0.75470958851134928 forward_v I I I I #
loop $-1 $-1 $250 $60 #
coedge $-1 $154 $154 $155 $251 reversed $94 $-1 #
coedge $-1 $155 $155 $154 $251 forward $96 $-1 #
coedge $-1 $156 $156 $97 $157 forward $151 $-1 #
edge $-1 $252 0 $252 6.2831853071796004 $156 $253 forward 7 unknown #
face $-1 $254 $255 $33 $-1 $256 reversed single #
loop $-1 $-1 $257 $98 #
plane-surface $-1 -140.48202291954937 21.182109010238072 93.76289890946191 0 -1 0 0.68199836817093118 0 -0.7313536940579346 forward_v I I I I #
coedge $-1 $258 $259 $260 $261 reversed $99 $-1 #
coedge $-1 $163 $101 $262 $263 reversed $64 $-1 #
coedge $-1 $101 $162 $258 $264 reversed $64 $-1 #
coedge $-1 $260 $265 $101 $165 forward $266 $-1 #
edge $-1 $267 10.815369808112948 $268 20.958527599445929 $164 $269 forward 7 unknown #
loop $-1 $-1 $171 $102 #
plane-surface $-1 -59.425641651661721 14.723507851284914 6.8405738220501604 -0.68199836817093118 0 0.7313536940579346 0.7313536940579346 0 0.68199836817093118 forward_v I I I I #
loop $-1 $-1 $270 $66 #
coedge $-1 $169 $169 $170 $271 reversed $103 $-1 #
coedge $-1 $170 $170 $169 $271 forward $105 $-1 #
coedge $-1 $171 $171 $106 $172 forward $166 $-1 #
edge $-1 $272 0 $272 6.2831853071796004 $171 $273 forward 7 unknown #
loop $-1 $-1 $178 $107 #
plane-surface $-1 -59.425641651661721 14.723507851284914 6.8405738220501604 -0.68199836817093118 0 0.7313536940579346 0.7313536940579346 0 0.68199836817093118 forward_v I I I I #
loop $-1 $-1 $274 $69 #
coedge $-1 $176 $176 $177 $275 reversed $108 $-1 #
coedge $-1 $177 $177 $176 $275 forward $110 $-1 #
coedge $-1 $178 $178 $111 $179 forward $173 $-1 #
edge $-1 $276 0 $276 6.2831853071796004 $178 $277 forward 7 unknown #
face $-1 $278 $279 $27 $-1 $280 reversed single #
loop $-1 $-1 $281 $112 #
plane-surface $-1 -59.425641651661735 0 0 1 0 0 0 0 -1 forward_v I I I I #
coedge $-1 $282 $191 $283 $284 forward $113 $-1 #
coedge $-1 $285 $115 $282 $286 forward $73 $-1 #
coedge $-1 $115 $285 $287 $288 forward $73 $-1 #
coedge $-1 $194 $193 $115 $187 reversed $195 $-1 #
edge $-1 $289 -36.049476361305764 $290 36.049476361305764 $186 $291 forward 7 unknown #
coedge $-1 $117 $116 $292 $293 forward $46 $-1 #
coedge $-1 $294 $295 $116 $190 reversed $279 $-1 #
edge $-1 $197 -59.425641651661735 $296 59.425641651661735 $189 $297 forward 7 unknown #
coedge $-1 $183 $298 $117 $192 reversed $113 $-1 #
edge $-1 $299 -59.425641651661735 $196 59.425641651661735 $191 $300 forward 7 unknown #
coedge $-1 $186 $118 $298 $301 forward $195 $-1 #
coedge $-1 $118 $186 $294 $302 reversed $195 $-1 #
loop $-1 $-1 $193 $278 #
vertex $-1 $119 $303 #
vertex $-1 $119 $304 #
straight-curve $-1 59.425641651661735 0 16.299221693788905 0 1 0 I I #
face $-1 $305 $306 $28 $-1 $307 forward single #
loop $-1 $-1 $208 $120 #
plane-surface $-1 0 -36.049476361305764 0 0 1 0 0 0 1 forward_v I I I I #
coedge $-1 $308 $309 $310 $311 forward $121 $-1 #
coedge $-1 $310 $123 $125 $210 reversed $77 $-1 #
coedge $-1 $123 $310 $312 $313 reversed $77 $-1 #
coedge $-1 $314 $126 $123 $206 forward $212 $-1 #
edge $-1 $214 3.5622556620018671 $315 9.6787292418586475 $205 $316 forward 7 unknown #
coedge $-1 $125 $124 $308 $317 reversed $49 $-1 #
coedge $-1 $318 $319 $124 $209 forward $200 $-1 #
edge $-1 $320 -59.425641651661735 $213 59.425641651661735 $208 $321 forward 7 unknown #
edge $-1 $322 -59.425641651661735 $214 59.425641651661735 $203 $323 forward 7 unknown #
coedge $-1 $126 $314 $318 $324 forward $212 $-1 #
loop $-1 $-1 $205 $305 #
vertex $-1 $209 $325 #
vertex $-1 $127 $326 #
straight-curve $-1 59.425641651661735 -14.792108125133334 10.182748113932124 0 1 0 I I #
face $-1 $-1 $327 $29 $-1 $328 reversed single #
loop $-1 $-1 $222 $128 #
plane-surface $-1 0 0 16.299221693788905 0 0 1 1 0 0 forward_v I I I I #
coedge $-1 $329 $330 $221 $331 reversed $129 $-1 #
coedge $-1 $332 $131 $133 $226 forward $81 $-1 #
coedge $-1 $131 $332 $219 $331 forward $81 $-1 #
coedge $-1 $333 $134 $131 $223 forward $217 $-1 #
edge $-1 $229 4.253969950794156 $334 13.994647442553662 $222 $335 forward 7 unknown #
coedge $-1 $336 $337 $132 $225 forward $327 $-1 #
edge $-1 $338 -78.748827733210817 $228 -72.623610073914193 $224 $339 forward 7 unknown #
edge $-1 $229 110.73529040679951 $338 118.85128330332347 $133 $340 forward 7 unknown #
coedge $-1 $134 $333 $336 $341 forward $217 $-1 #
vertex $-1 $225 $342 #
vertex $-1 $135 $343 #
straight-curve $-1 35.57519419127096 -13.378278647468065 16.299221693788908 -1 0 0 I I #
coedge $-1 $231 $231 $-1 $344 reversed $138 $-1 #
edge $-1 $345 0 $345 6.2831853071796004 $139 $346 forward 7 unknown #
vertex $-1 $142 $347 #
ellipse-curve $-1 56.763356480860715 -18.248617393347818 13.236612864140596 0.75470958851134928 0 0.65605901945558964 0.32802950972779482 0 -0.37735479425567464 1 I I #
face $-1 $-1 $348 $31 $-1 $349 reversed single #
loop $-1 $-1 $149 $143 #
plane-surface $-1 0 0 16.299221693788905 0 0 1 1 0 0 forward_v I I I I #
coedge $-1 $350 $351 $147 $244 forward $144 $-1 #
coedge $-1 $240 $146 $148 $245 reversed $90 $-1 #
coedge $-1 $146 $239 $352 $353 reversed $90 $-1 #
coedge $-1 $354 $149 $146 $242 forward $236 $-1 #
edge $-1 $248 18.525877118788735 $355 23.850447460390775 $241 $356 forward 7 unknown #
coedge $-1 $148 $147 $357 $358 reversed $58 $-1 #
edge $-1 $359 -75.079796548723706 $247 -66.963803652199758 $238 $360 forward 7 unknown #
edge $-1 $361 -118.85128330332347 $248 -110.73529040679951 $239 $362 forward 7 unknown #
coedge $-1 $149 $354 $350 $363 forward $236 $-1 #
vertex $-1 $244 $364 #
vertex $-1 $150 $365 #
straight-curve $-1 54.101071310059694 15.589568807713007 16.299221693788901 0 -1 0 I I #
coedge $-1 $250 $250 $-1 $366 reversed $153 $-1 #
edge $-1 $367 0 $367 6.2831853071796004 $154 $368 forward 7 unknown #
vertex $-1 $157 $369 #
ellipse-curve $-1 56.763356480860715 31.179137615426015 13.236612864140596 0.75470958851134928 0 0.65605901945558964 0.32802950972779482 0 -0.37735479425567464 1 I I #
face $-1 $-1 $266 $33 $-1 $370 forward single #
loop $-1 $-1 $371 $158 #
plane-surface $-1 -59.425641651661735 0 0 1 0 0 0 0 -1 forward_v I I I I #
coedge $-1 $372 $373 $374 $375 reversed $159 $-1 #
coedge $-1 $376 $161 $163 $264 forward $99 $-1 #
coedge $-1 $161 $376 $372 $377 forward $99 $-1 #
coedge $-1 $374 $164 $161 $261 forward $266 $-1 #
edge $-1 $268 0.90315276668929911 $378 13.820355084595615 $260 $379 forward 7 unknown #
coedge $-1 $380 $381 $162 $263 forward $255 $-1 #
edge $-1 $382 -40.040875632680809 $267 -30.58222776094205 $262 $383 forward 7 unknown #
edge $-1 $268 -13.869018333733163 $382 1.9479204584885432e-014 $163 $384 forward 7 unknown #
coedge $-1 $164 $374 $380 $385 forward $266 $-1 #
loop $-1 $-1 $374 $254 #
vertex $-1 $263 $386 #
vertex $-1 $165 $387 #
straight-curve $-1 -70.241011459774683 8.2649066923317562 16.299221693788901 1 0 0 I I #
coedge $-1 $270 $270 $-1 $388 reversed $168 $-1 #
edge $-1 $389 0 $389 6.2831853071796004 $169 $390 forward 7 unknown #
vertex $-1 $172 $391 #
ellipse-curve $-1 -54.354062755995244 11.955535926019273 11.569897757919527 -0.68199836817093118 0 0.7313536940579346 0.7313536940579346 0 0.68199836817093118 1 I I #
coedge $-1 $274 $274 $-1 $392 reversed $175 $-1 #
edge $-1 $393 0 $393 6.2831853071796004 $176 $394 forward 7 unknown #
vertex $-1 $179 $395 #
ellipse-curve $-1 -54.354062755995244 17.491479776550548 11.569897757919527 -0.68199836817093118 0 0.7313536940579346 0.7313536940579346 0 0.68199836817093118 1 I I #
face $-1 $-1 $195 $27 $-1 $396 reversed single #
loop $-1 $-1 $294 $180 #
plane-surface $-1 0 36.049476361305764 0 0 -1 0 0 0 -1 forward_v I I I I #
coedge $-1 $397 $292 $295 $398 forward $181 $-1 #
coedge $-1 $298 $183 $184 $286 reversed $113 $-1 #
coedge $-1 $292 $397 $183 $284 reversed $181 $-1 #
edge $-1 $299 -16.299221693788905 $399 16.299221693788905 $283 $400 forward 7 unknown #
coedge $-1 $185 $184 $397 $401 forward $73 $-1 #
edge $-1 $290 -59.425641651661735 $399 59.425641651661735 $282 $402 forward 7 unknown #
coedge $-1 $295 $294 $185 $288 reversed $279 $-1 #
edge $-1 $403 -59.425641651661735 $289 59.425641651661735 $287 $404 forward 7 unknown #
vertex $-1 $187 $405 #
vertex $-1 $301 $406 #
straight-curve $-1 59.425641651661735 0 -16.299221693788905 0 -1 0 I I #
coedge $-1 $281 $283 $188 $293 reversed $181 $-1 #
edge $-1 $296 -36.049476361305764 $299 36.049476361305764 $292 $407 forward 7 unknown #
coedge $-1 $287 $189 $194 $302 forward $279 $-1 #
coedge $-1 $189 $287 $281 $398 reversed $279 $-1 #
vertex $-1 $190 $408 #
straight-curve $-1 0 36.049476361305764 16.299221693788905 -1 0 0 I I #
coedge $-1 $191 $282 $193 $301 reversed $113 $-1 #
vertex $-1 $293 $409 #
straight-curve $-1 0 -36.049476361305764 16.299221693788905 1 0 0 I I #
edge $-1 $196 -16.299221693788905 $290 16.299221693788905 $193 $410 forward 7 unknown #
edge $-1 $197 -16.299221693788905 $289 16.299221693788905 $194 $411 forward 7 unknown #
point $-1 59.425641651661735 -36.049476361305764 16.299221693788905 #
point $-1 59.425641651661735 36.049476361305764 16.299221693788905 #
face $-1 $-1 $212 $28 $-1 $412 reversed single #
loop $-1 $-1 $312 $199 #
plane-surface $-1 0 0 16.299221693788905 0 0 1 1 0 0 forward_v I I I I #
coedge $-1 $413 $202 $207 $317 forward $121 $-1 #
coedge $-1 $202 $413 $414 $415 reversed $121 $-1 #
coedge $-1 $204 $203 $202 $311 reversed $77 $-1 #
edge $-1 $416 -9.6787292418586475 $322 -3.5622556620018671 $202 $417 forward 7 unknown #
coedge $-1 $414 $418 $204 $313 forward $306 $-1 #
edge $-1 $315 -59.425641651661735 $416 59.425641651661735 $312 $419 forward 7 unknown #
coedge $-1 $211 $205 $418 $420 reversed $212 $-1 #
vertex $-1 $206 $421 #
straight-curve $-1 59.425641651661735 -23.118956139227571 6.6204924519302573 0 0 1 I I #
edge $-1 $322 8.3268480140942369 $320 21.257368236172432 $308 $422 forward 7 unknown #
coedge $-1 $423 $208 $211 $324 reversed $200 $-1 #
coedge $-1 $208 $423 $413 $424 forward $200 $-1 #
vertex $-1 $209 $425 #
straight-curve $-1 0 -36.049476361305764 10.182748113932124 1 0 0 I I #
vertex $-1 $317 $426 #
straight-curve $-1 0 -23.118956139227571 10.182748113932124 1 0 0 I I #
edge $-1 $427 -16.299221693788905 $213 -10.182748113932124 $211 $428 forward 7 unknown #
point $-1 59.425641651661735 -36.049476361305764 10.182748113932124 #
point $-1 59.425641651661735 -23.118956139227571 10.182748113932124 #
loop $-1 $-1 $224 $216 #
plane-surface $-1 59.425641651661735 0 0 -1 0 0 0 0 1 forward_v I I I I #
coedge $-1 $330 $219 $429 $430 reversed $129 $-1 #
coedge $-1 $219 $329 $333 $431 reversed $129 $-1 #
edge $-1 $432 -118.85128330332347 $334 -110.73529040679951 $219 $433 forward 7 unknown #
coedge $-1 $221 $220 $337 $434 reversed $81 $-1 #
coedge $-1 $227 $222 $330 $431 forward $217 $-1 #
vertex $-1 $431 $435 #
straight-curve $-1 54.101071310059694 -9.1243086966739089 16.299221693788901 0 -1 0 I I #
coedge $-1 $429 $224 $227 $341 reversed $327 $-1 #
coedge $-1 $224 $429 $332 $434 forward $327 $-1 #
vertex $-1 $225 $436 #
straight-curve $-1 59.425641651661735 -13.378278647468065 88.922831767703101 0 0 1 I I #
straight-curve $-1 -18.547814733355139 -13.378278647468065 99.872207150389315 0.65605901945558964 0 -0.75470958851134928 I I #
edge $-1 $437 -23.118956139227571 $228 -13.378278647468065 $336 $438 forward 7 unknown #
point $-1 59.425641651661735 -13.378278647468065 16.299221693788905 #
point $-1 54.101071310059694 -13.378278647468065 16.299221693788908 #
edge $-1 $439 1 $439 0 $231 $-1 forward 7 unknown #
vertex $-1 $232 $440 #
ellipse-curve $-1 55.530466840251684 -18.248617393347818 12.164878277714637 0.75470958851134928 0 0.65605901945558964 0.32802950972779482 0 -0.37735479425567464 1 I I #
point $-1 57.091385990588492 -18.248617393347818 12.859258069884904 #
loop $-1 $-1 $357 $235 #
plane-surface $-1 59.425641651661735 0 0 -1 0 0 0 0 1 forward_v I I I I #
coedge $-1 $351 $238 $246 $363 reversed $144 $-1 #
coedge $-1 $238 $350 $441 $442 forward $144 $-1 #
coedge $-1 $357 $443 $240 $353 forward $348 $-1 #
edge $-1 $355 72.623610073914193 $361 78.748827733210817 $352 $444 forward 7 unknown #
coedge $-1 $246 $241 $443 $445 forward $236 $-1 #
vertex $-1 $445 $446 #
straight-curve $-1 35.57519419127096 26.308798869546262 16.299221693788908 1 0 0 I I #
coedge $-1 $441 $352 $243 $358 forward $348 $-1 #
edge $-1 $361 10.719230061833255 $359 20.459907553592764 $357 $447 forward 7 unknown #
vertex $-1 $244 $448 #
straight-curve $-1 10.168863946980892 36.049476361305764 66.837446393295366 -0.65605901945558975 0 0.75470958851134939 I I #
vertex $-1 $358 $449 #
straight-curve $-1 -18.547814733355139 26.308798869546262 99.872207150389315 -0.65605901945558964 0 0.75470958851134928 I I #
edge $-1 $450 -59.425641651661735 $247 -54.101071310059694 $350 $451 forward 7 unknown #
point $-1 54.101071310059694 36.049476361305771 16.299221693788908 #
point $-1 54.101071310059694 26.308798869546262 16.299221693788908 #
edge $-1 $452 1 $452 0 $250 $-1 forward 7 unknown #
vertex $-1 $251 $453 #
ellipse-curve $-1 55.530466840251684 31.179137615426015 12.164878277714637 0.75470958851134928 0 0.65605901945558964 0.32802950972779482 0 -0.37735479425567464 1 I I #
point $-1 57.091385990588492 31.179137615426015 12.859258069884904 #
plane-surface $-1 0 0 16.299221693788905 0 0 1 1 0 0 forward_v I I I I #
coedge $-1 $381 $380 $373 $454 forward $255 $-1 #
coedge $-1 $373 $257 $259 $377 reversed $159 $-1 #
coedge $-1 $257 $372 $371 $454 reversed $159 $-1 #
coedge $-1 $265 $260 $257 $375 forward $266 $-1 #
edge $-1 $378 -20.958527599445929 $455 -10.815369808112948 $374 $456 forward 7 unknown #
coedge $-1 $259 $258 $381 $457 reversed $99 $-1 #
edge $-1 $458 -1.9479204584885432e-014 $378 13.869018333733163 $372 $459 forward 7 unknown #
vertex $-1 $261 $460 #
straight-curve $-1 -49.282483860328753 7.3617539256424571 16.299221693788905 0 1 0 I I #
coedge $-1 $371 $262 $265 $385 reversed $255 $-1 #
coedge $-1 $262 $371 $376 $457 forward $255 $-1 #
vertex $-1 $263 $461 #
straight-curve $-1 -59.425641651661735 8.2649066923317562 46.881449454730955 0 0 1 I I #
straight-curve $-1 -59.425641651661721 8.2649066923317562 6.8405738220501604 -0.7313536940579346 0 -0.68199836817093118 I I #
edge $-1 $455 -21.182109010238072 $267 -8.2649066923317562 $380 $462 forward 7 unknown #
point $-1 -59.425641651661735 8.2649066923317562 16.299221693788905 #
point $-1 -49.282483860328753 8.2649066923317562 16.299221693788905 #
edge $-1 $463 1 $463 0 $270 $-1 forward 7 unknown #
vertex $-1 $271 $464 #
ellipse-curve $-1 -52.034119394947972 11.955535926019273 9.0820631438023032 -0.68199836817093118 0 0.7313536940579346 0.7313536940579346 0 0.68199836817093118 1 I I #
point $-1 -53.622709061937321 11.955535926019273 12.251896126090472 #
edge $-1 $465 1 $465 0 $274 $-1 forward 7 unknown #
vertex $-1 $275 $466 #
ellipse-curve $-1 -52.034119394947972 17.491479776550548 9.0820631438023032 -0.68199836817093118 0 0.7313536940579346 0.7313536940579346 0 0.68199836817093118 1 I I #
point $-1 -53.622709061937321 17.491479776550548 12.251896126090472 #
plane-surface $-1 59.425641651661735 0 0 -1 0 0 0 0 1 forward_v I I I I #
coedge $-1 $283 $281 $285 $401 reversed $181 $-1 #
edge $-1 $296 -16.299221693788905 $403 16.299221693788905 $295 $467 forward 7 unknown #
vertex $-1 $401 $468 #
straight-curve $-1 -59.425641651661735 -36.049476361305764 0 0 0 -1 I I #
edge $-1 $399 -36.049476361305764 $403 36.049476361305764 $397 $469 forward 7 unknown #
straight-curve $-1 0 -36.049476361305764 -16.299221693788905 -1 0 0 I I #
vertex $-1 $288 $470 #
straight-curve $-1 0 36.049476361305764 -16.299221693788905 1 0 0 I I #
point $-1 59.425641651661735 36.049476361305764 -16.299221693788905 #
point $-1 59.425641651661735 -36.049476361305764 -16.299221693788905 #
straight-curve $-1 -59.425641651661735 0 16.299221693788905 0 -1 0 I I #
point $-1 -59.425641651661735 36.049476361305764 16.299221693788905 #
point $-1 -59.425641651661735 -36.049476361305764 16.299221693788905 #
straight-curve $-1 59.425641651661735 -36.049476361305764 0 0 0 -1 I I #
straight-curve $-1 59.425641651661735 36.049476361305764 0 0 0 -1 I I #
plane-surface $-1 59.425641651661735 0 0 -1 0 0 0 0 1 forward_v I I I I #
coedge $-1 $309 $308 $319 $424 reversed $121 $-1 #
coedge $-1 $471 $312 $309 $415 forward $306 $-1 #
edge $-1 $416 23.118956139227571 $472 36.049476361305764 $309 $473 forward 7 unknown #
vertex $-1 $415 $474 #
straight-curve $-1 -59.425641651661735 -23.118956139227571 6.6204924519302573 0 0 -1 I I #
coedge $-1 $312 $471 $314 $420 forward $306 $-1 #
straight-curve $-1 0 -23.118956139227571 16.299221693788905 -1 0 0 I I #
edge $-1 $427 -36.049476361305764 $315 -23.118956139227571 $314 $475 forward 7 unknown #
point $-1 59.425641651661735 -23.118956139227571 16.299221693788905 #
straight-curve $-1 -59.425641651661735 -14.792108125133334 10.182748113932124 0 -1 0 I I #
coedge $-1 $319 $318 $471 $476 reversed $200 $-1 #
edge $-1 $472 -16.299221693788905 $320 -10.182748113932124 $413 $477 forward 7 unknown #
point $-1 -59.425641651661735 -36.049476361305764 10.182748113932124 #
point $-1 -59.425641651661735 -23.118956139227571 10.182748113932124 #
vertex $-1 $420 $478 #
straight-curve $-1 59.425641651661735 -36.049476361305764 0 0 0 -1 I I #
coedge $-1 $337 $336 $329 $430 forward $327 $-1 #
edge $-1 $437 72.623610073914193 $432 78.748827733210817 $429 $479 forward 7 unknown #
edge $-1 $334 54.101071310059694 $437 59.425641651661735 $333 $480 forward 7 unknown #
vertex $-1 $430 $481 #
straight-curve $-1 -18.547814733355139 -23.118956139227571 99.872207150389315 -0.65605901945558964 0 0.75470958851134928 I I #
edge $-1 $432 -13.994647442553662 $338 -4.253969950794156 $337 $482 forward 7 unknown #
point $-1 54.101071310059694 -23.118956139227571 16.299221693788905 #
point $-1 59.425641651661735 -13.378278647468065 10.174004034492285 #
vertex $-1 $341 $483 #
straight-curve $-1 59.425641651661735 0 16.299221693788905 0 1 0 I I #
vertex $-1 $344 $484 #
point $-1 55.858496349979475 -18.248617393347818 11.787523483458962 #
coedge $-1 $443 $357 $351 $442 reversed $348 $-1 #
edge $-1 $450 -16.299221693788905 $359 -10.174004034492285 $441 $485 forward 7 unknown #
coedge $-1 $352 $441 $354 $445 reversed $348 $-1 #
straight-curve $-1 59.425641651661735 26.308798869546262 88.922831767703101 0 0 -1 I I #
edge $-1 $355 26.308798869546262 $450 36.049476361305764 $443 $486 forward 7 unknown #
point $-1 59.425641651661735 26.308798869546262 16.299221693788905 #
straight-curve $-1 59.425641651661735 15.589568807713007 10.17400403449227 0 1 0 I I #
point $-1 59.425641651661735 36.049476361305771 10.174004034492285 #
point $-1 59.425641651661735 26.308798869546262 10.174004034492285 #
vertex $-1 $445 $487 #
straight-curve $-1 0 36.049476361305764 16.299221693788905 -1 0 0 I I #
vertex $-1 $366 $488 #
point $-1 55.858496349979475 31.179137615426015 11.787523483458962 #
edge $-1 $455 30.58222776094205 $458 40.040875632680809 $371 $489 forward 7 unknown #
vertex $-1 $385 $490 #
straight-curve $-1 -70.241011459774683 21.182109010238072 16.299221693788901 -1 0 0 I I #
edge $-1 $458 -13.820355084595615 $382 -0.90315276668929911 $381 $491 forward 7 unknown #
vertex $-1 $457 $492 #
straight-curve $-1 -59.425641651661721 21.182109010238072 6.8405738220501604 0.7313536940579346 0 0.68199836817093118 I I #
point $-1 -49.282483860328753 21.182109010238072 16.299221693788905 #
point $-1 -59.425641651661735 8.2649066923317562 6.8405738220501471 #
straight-curve $-1 -59.425641651661735 0 16.299221693788905 0 -1 0 I I #
vertex $-1 $388 $493 #
point $-1 -51.302765700890035 11.955535926019273 9.7640615119732352 #
vertex $-1 $392 $494 #
point $-1 -51.302765700890035 17.491479776550548 9.7640615119732352 #
straight-curve $-1 -59.425641651661735 36.049476361305764 0 0 0 -1 I I #
point $-1 -59.425641651661735 -36.049476361305764 -16.299221693788905 #
straight-curve $-1 -59.425641651661735 0 -16.299221693788905 0 1 0 I I #
point $-1 -59.425641651661735 36.049476361305764 -16.299221693788905 #
coedge $-1 $418 $414 $423 $476 forward $306 $-1 #
vertex $-1 $415 $495 #
straight-curve $-1 -59.425641651661735 0 16.299221693788905 0 -1 0 I I #
point $-1 -59.425641651661735 -23.118956139227571 16.299221693788905 #
straight-curve $-1 59.425641651661735 0 16.299221693788905 0 1 0 I I #
edge $-1 $472 -59.425641651661735 $427 59.425641651661735 $423 $496 forward 7 unknown #
straight-curve $-1 -59.425641651661735 -36.049476361305764 0 0 0 -1 I I #
point $-1 59.425641651661735 -36.049476361305764 16.299221693788905 #
straight-curve $-1 59.425641651661735 -23.118956139227571 88.922831767703101 0 0 -1 I I #
straight-curve $-1 0 -23.118956139227571 16.299221693788905 1 0 0 I I #
point $-1 59.425641651661735 -23.118956139227571 10.174004034492285 #
straight-curve $-1 59.425641651661735 -9.1243086966739089 10.17400403449227 0 1 0 I I #
point $-1 59.425641651661735 -23.118956139227571 16.299221693788905 #
point $-1 55.153112045996004 -18.248617393347818 11.836848767986842 #
straight-curve $-1 59.425641651661735 36.049476361305764 0 0 0 -1 I I #
straight-curve $-1 59.425641651661735 0 16.299221693788905 0 1 0 I I #
point $-1 59.425641651661735 36.049476361305764 16.299221693788905 #
point $-1 55.153112045996004 31.179137615426015 11.836848767986842 #
straight-curve $-1 -59.425641651661735 21.182109010238072 46.881449454730955 0 0 -1 I I #
point $-1 -59.425641651661735 21.182109010238072 16.299221693788905 #
straight-curve $-1 -59.425641651661735 7.3617539256424571 6.8405738220501453 0 -1 0 I I #
point $-1 -59.425641651661735 21.182109010238072 6.8405738220501471 #
point $-1 -51.352121026777034 11.955535926019273 8.3507094497443699 #
point $-1 -51.352121026777034 17.491479776550548 8.3507094497443699 #
point $-1 -59.425641651661735 -36.049476361305764 16.299221693788905 #
straight-curve $-1 0 -36.049476361305764 16.299221693788905 1 0 0 I I #
End-of-ACIS-data 