500 0 5 0           
7 Unknown 11 ACIS 5.0 NT 24 Thu Mar 25 22:39:36 1999 
-1 9.9999999999999995e-007 1e-010 
body $-1 $5 $-1 $6 #
body $-1 $7 $-1 $8 #
body $-1 $9 $-1 $10 #
body $-1 $11 $-1 $12 #
body $-1 $13 $-1 $14 #
lump $-1 $-1 $15 $0 #
transform $-1 1 0 0 0 1 0 0 0 1 53.439130832850125 28.140227267326757 5.9240730525451433 1 rotate no_reflect no_shear #
lump $-1 $-1 $16 $1 #
transform $-1 1 0 0 0 1 0 0 0 1 53.439130832850125 28.140227267326757 5.9240730525451433 1 rotate no_reflect no_shear #
lump $-1 $-1 $17 $2 #
transform $-1 1 0 0 0 1 0 0 0 1 53.439130832850125 28.140227267326757 5.9240730525451433 1 rotate no_reflect no_shear #
lump $-1 $-1 $18 $3 #
transform $-1 1 0 0 0 1 0 0 0 1 53.439130832850125 28.140227267326757 5.9240730525451433 1 rotate no_reflect no_shear #
lump $-1 $-1 $19 $4 #
transform $-1 1 0 0 0 1 0 0 0 1 53.439130832850125 28.140227267326757 5.9240730525451433 1 rotate no_reflect no_shear #
shell $-1 $-1 $-1 $20 $-1 $5 #
shell $-1 $-1 $-1 $21 $-1 $7 #
shell $-1 $-1 $-1 $22 $-1 $9 #
shell $-1 $-1 $-1 $23 $-1 $11 #
shell $-1 $-1 $-1 $24 $-1 $13 #
face $-1 $25 $26 $15 $-1 $27 forward single #
face $-1 $28 $29 $16 $-1 $30 forward single #
face $-1 $31 $32 $17 $-1 $33 reversed single #
face $-1 $34 $35 $18 $-1 $36 forward single #
face $-1 $37 $38 $19 $-1 $39 forward single #
face $-1 $40 $41 $15 $-1 $42 reversed single #
loop $-1 $-1 $43 $20 #
plane-surface $-1 0 0 5.9240730525451433 0 0 1 1 0 0 forward_v I I I I #
face $-1 $44 $45 $16 $-1 $46 reversed single #
loop $-1 $-1 $47 $21 #
plane-surface $-1 -53.439130832850125 0 0 1 0 0 0 0 -1 forward_v I I I I #
face $-1 $48 $49 $17 $-1 $50 reversed single #
loop $-1 $-1 $51 $22 #
plane-surface $-1 44.261543272416887 -28.140227267326736 0.90139658509349374 0 -0.86602541151947299 0.49999998660252726 1 0 0 forward_v I I I I #
face $-1 $52 $53 $18 $-1 $54 forward single #
loop $-1 $55 $56 $23 #
cone-surface $-1 40.328291460802632 -25.462178562665496 2.7036754182805769 0 0.86602541151947299 -0.49999998660252726 1 0 0 1 I I 0 1 1 forward I I I I #
face $-1 $57 $58 $19 $-1 $59 forward single #
loop $-1 $60 $61 $24 #
cone-surface $-1 48.194795084031128 -25.462178562665496 2.7036754182805769 0 0.86602541151947299 -0.49999998660252726 1 0 0 1 I I 0 1 1 forward I I I I #
face $-1 $62 $63 $15 $-1 $64 reversed single #
loop $-1 $-1 $65 $25 #
plane-surface $-1 0 0 -5.9240730525451433 0 0 1 1 0 0 forward_v I I I I #
coedge $-1 $66 $67 $68 $69 forward $26 $-1 #
face $-1 $70 $71 $16 $-1 $72 forward single #
loop $-1 $-1 $73 $28 #
plane-surface $-1 0 28.140227267326757 0 0 -1 0 0 0 -1 forward_v I I I I #
coedge $-1 $74 $75 $76 $77 forward $29 $-1 #
face $-1 $78 $79 $17 $-1 $80 reversed single #
loop $-1 $-1 $81 $31 #
plane-surface $-1 35.083955711983641 -120.69951780885071 54.340525986045023 1 0 0 0 0.86602541151947299 -0.49999998660252726 forward_v I I I I #
coedge $-1 $82 $83 $84 $85 reversed $32 $-1 #
face $-1 $-1 $86 $18 $-1 $87 forward single #
loop $-1 $88 $89 $34 #
cone-surface $-1 40.328291460802632 -23.801038905711536 1.744616024440572 0 0.86602541151947299 -0.49999998660252726 0.5 0 0 1 I I -0.70710678118654746 0.70710678118654746 0.5 forward I I I I #
loop $-1 $-1 $90 $23 #
coedge $-1 $56 $56 $91 $92 reversed $35 $-1 #
face $-1 $-1 $93 $19 $-1 $94 forward single #
loop $-1 $95 $96 $37 #
cone-surface $-1 48.194795084031128 -23.801038905711536 1.744616024440572 0 0.86602541151947299 -0.49999998660252726 0.5 0 0 1 I I -0.70710678118654746 0.70710678118654746 0.5 forward I I I I #
loop $-1 $-1 $97 $24 #
coedge $-1 $61 $61 $98 $99 reversed $38 $-1 #
face $-1 $100 $101 $15 $-1 $102 reversed single #
loop $-1 $-1 $103 $40 #
plane-surface $-1 0 -28.140227267326757 0 0 1 0 0 0 1 forward_v I I I I #
coedge $-1 $104 $105 $106 $107 forward $41 $-1 #
coedge $-1 $108 $43 $109 $110 forward $26 $-1 #
coedge $-1 $43 $108 $111 $112 forward $26 $-1 #
coedge $-1 $113 $114 $43 $69 reversed $115 $-1 #
edge $-1 $116 -28.140227267326757 $117 28.140227267326757 $68 $118 forward 7 unknown #
face $-1 $119 $120 $16 $-1 $121 reversed single #
loop $-1 $-1 $76 $44 #
plane-surface $-1 -56.093492334835418 0 -2.9240730525451433 0 0 1 1 0 0 forward_v I I I I #
coedge $-1 $122 $123 $75 $124 forward $45 $-1 #
coedge $-1 $125 $47 $126 $127 reversed $29 $-1 #
coedge $-1 $47 $125 $73 $124 reversed $29 $-1 #
coedge $-1 $128 $129 $47 $77 reversed $71 $-1 #
edge $-1 $130 -28.140227267326757 $131 28.140227267326757 $76 $132 forward 7 unknown #
face $-1 $133 $134 $17 $-1 $135 forward single #
loop $-1 $-1 $136 $48 #
plane-surface $-1 0 -28.140227267326757 0 0 1 0 0 0 1 forward_v I I I I #
coedge $-1 $137 $138 $139 $140 reversed $49 $-1 #
coedge $-1 $141 $51 $142 $143 reversed $32 $-1 #
coedge $-1 $51 $141 $137 $144 forward $32 $-1 #
coedge $-1 $139 $145 $51 $85 forward $134 $-1 #
edge $-1 $146 -31.308359196641689 $147 -12.953184075775198 $84 $148 forward 7 unknown #
loop $-1 $-1 $91 $52 #
plane-surface $-1 44.261543272416887 -28.140227267326736 0.90139658509349374 0 -0.86602541151947299 0.49999998660252726 1 0 0 forward_v I I I I #
loop $-1 $-1 $149 $34 #
coedge $-1 $89 $89 $90 $150 reversed $53 $-1 #
coedge $-1 $90 $90 $89 $150 forward $55 $-1 #
coedge $-1 $91 $91 $56 $92 forward $86 $-1 #
edge $-1 $151 5.8642364702369861e-016 $151 6.2831853071796013 $91 $152 forward 7 unknown #
loop $-1 $-1 $98 $57 #
plane-surface $-1 44.261543272416887 -28.140227267326736 0.90139658509349374 0 -0.86602541151947299 0.49999998660252726 1 0 0 forward_v I I I I #
loop $-1 $-1 $153 $37 #
coedge $-1 $96 $96 $97 $154 reversed $58 $-1 #
coedge $-1 $97 $97 $96 $154 forward $60 $-1 #
coedge $-1 $98 $98 $61 $99 forward $93 $-1 #
edge $-1 $155 5.8642364702369861e-016 $155 6.2831853071796013 $98 $156 forward 7 unknown #
face $-1 $157 $158 $15 $-1 $159 reversed single #
loop $-1 $-1 $160 $62 #
plane-surface $-1 -53.439130832850125 0 0 1 0 0 0 0 -1 forward_v I I I I #
coedge $-1 $161 $111 $162 $163 forward $63 $-1 #
coedge $-1 $164 $65 $161 $165 forward $41 $-1 #
coedge $-1 $65 $164 $166 $167 forward $41 $-1 #
coedge $-1 $114 $113 $65 $107 reversed $115 $-1 #
edge $-1 $168 -28.140227267326757 $169 28.140227267326757 $106 $170 forward 7 unknown #
coedge $-1 $67 $66 $171 $172 forward $26 $-1 #
coedge $-1 $173 $174 $66 $110 reversed $158 $-1 #
edge $-1 $117 -53.439130832850125 $175 53.439130832850125 $109 $176 forward 7 unknown #
coedge $-1 $103 $177 $67 $112 reversed $63 $-1 #
edge $-1 $178 -53.439130832850125 $116 53.439130832850125 $111 $179 forward 7 unknown #
coedge $-1 $106 $68 $177 $180 forward $115 $-1 #
coedge $-1 $68 $106 $173 $181 reversed $115 $-1 #
loop $-1 $-1 $113 $157 #
vertex $-1 $69 $182 #
vertex $-1 $69 $183 #
straight-curve $-1 53.439130832850125 0 5.9240730525451433 0 1 0 I I #
face $-1 $184 $185 $16 $-1 $186 reversed single #
loop $-1 $-1 $187 $70 #
plane-surface $-1 -58.74785383682071 0 -4.4240730525451433 1 0 0 0 0 -1 forward_v I I I I #
coedge $-1 $188 $73 $189 $190 reversed $45 $-1 #
coedge $-1 $73 $188 $128 $191 reversed $45 $-1 #
edge $-1 $130 2.9240730525451433 $192 5.9240730525451433 $73 $193 forward 7 unknown #
coedge $-1 $75 $74 $194 $195 reversed $29 $-1 #
coedge $-1 $196 $197 $74 $127 forward $198 $-1 #
edge $-1 $199 -5.9240730525451433 $131 -2.9240730525451433 $126 $200 forward 7 unknown #
coedge $-1 $201 $76 $123 $191 forward $71 $-1 #
coedge $-1 $76 $201 $196 $202 forward $71 $-1 #
vertex $-1 $124 $203 #
vertex $-1 $202 $204 #
straight-curve $-1 -53.439130832850125 0 -2.9240730525451433 0 -1 0 I I #
face $-1 $-1 $205 $17 $-1 $206 reversed single #
loop $-1 $-1 $139 $78 #
plane-surface $-1 0 0 5.9240730525451433 0 0 1 1 0 0 forward_v I I I I #
coedge $-1 $207 $208 $138 $209 forward $79 $-1 #
coedge $-1 $138 $81 $83 $144 reversed $49 $-1 #
coedge $-1 $81 $137 $136 $209 reversed $49 $-1 #
coedge $-1 $210 $84 $81 $140 forward $134 $-1 #
edge $-1 $147 -35.109375144032697 $211 -32.2095316370986 $139 $212 forward 7 unknown #
coedge $-1 $83 $82 $207 $213 reversed $32 $-1 #
coedge $-1 $214 $215 $82 $143 forward $205 $-1 #
edge $-1 $216 -6.6447404540538439 $146 -0.84505328478335018 $142 $217 forward 7 unknown #
edge $-1 $218 -4.2675469765071053e-014 $147 5.7996871692704515 $137 $219 forward 7 unknown #
coedge $-1 $84 $210 $214 $220 forward $134 $-1 #
vertex $-1 $143 $221 #
vertex $-1 $85 $222 #
straight-curve $-1 22.130771636208443 -25.24038376039266 5.9240730525451433 -1 0 0 I I #
coedge $-1 $149 $149 $-1 $223 reversed $88 $-1 #
edge $-1 $224 0 $224 6.2831853071796004 $89 $225 forward 7 unknown #
vertex $-1 $92 $226 #
ellipse-curve $-1 40.328291460802632 -26.690305513859705 3.4127348188193092 0 -0.86602541151947299 0.49999998660252726 1 0 0 1 I I #
coedge $-1 $153 $153 $-1 $227 reversed $95 $-1 #
edge $-1 $228 0 $228 6.2831853071796004 $96 $229 forward 7 unknown #
vertex $-1 $99 $230 #
ellipse-curve $-1 48.194795084031128 -26.690305513859705 3.4127348188193092 0 -0.86602541151947299 0.49999998660252726 1 0 0 1 I I #
face $-1 $-1 $115 $15 $-1 $231 reversed single #
loop $-1 $-1 $173 $100 #
plane-surface $-1 0 28.140227267326757 0 0 -1 0 0 0 -1 forward_v I I I I #
coedge $-1 $232 $171 $174 $233 forward $101 $-1 #
coedge $-1 $177 $103 $104 $165 reversed $63 $-1 #
coedge $-1 $171 $232 $103 $163 reversed $101 $-1 #
edge $-1 $178 -5.9240730525451433 $234 5.9240730525451433 $162 $235 forward 7 unknown #
coedge $-1 $105 $104 $232 $236 forward $41 $-1 #
edge $-1 $169 -53.439130832850125 $234 53.439130832850125 $161 $237 forward 7 unknown #
coedge $-1 $174 $173 $105 $167 reversed $158 $-1 #
edge $-1 $238 -53.439130832850125 $168 53.439130832850125 $166 $239 forward 7 unknown #
vertex $-1 $107 $240 #
vertex $-1 $180 $241 #
straight-curve $-1 53.439130832850125 0 -5.9240730525451433 0 -1 0 I I #
coedge $-1 $160 $162 $108 $172 reversed $101 $-1 #
edge $-1 $175 -28.140227267326757 $178 28.140227267326757 $171 $242 forward 7 unknown #
coedge $-1 $166 $109 $114 $181 forward $158 $-1 #
coedge $-1 $109 $166 $160 $233 reversed $158 $-1 #
vertex $-1 $110 $243 #
straight-curve $-1 0 28.140227267326757 5.9240730525451433 -1 0 0 I I #
coedge $-1 $111 $161 $113 $180 reversed $63 $-1 #
vertex $-1 $172 $244 #
straight-curve $-1 0 -28.140227267326757 5.9240730525451433 1 0 0 I I #
edge $-1 $116 -5.9240730525451433 $169 5.9240730525451433 $113 $245 forward 7 unknown #
edge $-1 $117 -5.9240730525451433 $168 5.9240730525451433 $114 $246 forward 7 unknown #
point $-1 53.439130832850125 -28.140227267326757 5.9240730525451433 #
point $-1 53.439130832850125 28.140227267326757 5.9240730525451433 #
face $-1 $-1 $198 $16 $-1 $247 reversed single #
loop $-1 $-1 $194 $119 #
plane-surface $-1 0 0 -5.9240730525451433 0 0 1 1 0 0 forward_v I I I I #
coedge $-1 $248 $249 $188 $250 forward $120 $-1 #
coedge $-1 $123 $122 $187 $250 reversed $45 $-1 #
coedge $-1 $194 $251 $122 $190 forward $185 $-1 #
edge $-1 $252 -58.74785383682071 $192 -53.439130832850125 $122 $253 forward 7 unknown #
edge $-1 $130 -2.6543615019852922 $254 2.6543615019852922 $123 $255 forward 7 unknown #
vertex $-1 $124 $256 #
straight-curve $-1 -53.439130832850125 28.140227267326757 0 0 0 -1 I I #
coedge $-1 $257 $189 $125 $195 forward $185 $-1 #
edge $-1 $192 -28.140227267326757 $199 28.140227267326757 $194 $258 forward 7 unknown #
coedge $-1 $259 $126 $129 $202 reversed $198 $-1 #
coedge $-1 $126 $259 $257 $260 reversed $198 $-1 #
loop $-1 $-1 $126 $184 #
vertex $-1 $260 $261 #
straight-curve $-1 -53.439130832850125 -28.140227267326757 0 0 0 1 I I #
coedge $-1 $129 $128 $249 $262 forward $71 $-1 #
edge $-1 $263 -2.6543615019852922 $131 2.6543615019852922 $196 $264 forward 7 unknown #
point $-1 -53.439130832850125 28.140227267326757 -2.9240730525451433 #
point $-1 -53.439130832850125 -28.140227267326757 -2.9240730525451433 #
loop $-1 $-1 $142 $133 #
plane-surface $-1 53.439130832850125 0 0 -1 0 0 0 0 1 forward_v I I I I #
coedge $-1 $265 $136 $141 $213 forward $79 $-1 #
coedge $-1 $136 $265 $210 $266 reversed $79 $-1 #
edge $-1 $211 21.246189940477368 $218 26.268866407929053 $136 $267 forward 7 unknown #
coedge $-1 $145 $139 $208 $266 forward $134 $-1 #
vertex $-1 $266 $268 #
straight-curve $-1 35.083955711983641 -60.349758904425357 5.9240730525451433 0 -1 0 I I #
edge $-1 $218 12.953184075775198 $216 31.308359196641689 $207 $269 forward 7 unknown #
coedge $-1 $215 $142 $145 $220 reversed $205 $-1 #
coedge $-1 $142 $214 $265 $270 forward $205 $-1 #
vertex $-1 $213 $271 #
straight-curve $-1 53.439130832850125 -24.817857129322562 6.6559106712555254 0 0.49999998660252726 0.86602541151947299 I I #
vertex $-1 $213 $272 #
straight-curve $-1 35.083955711983641 -28.140227267326736 0.90139658509349374 0 0.49999998660252726 0.86602541151947299 I I #
edge $-1 $273 -28.140227267326757 $146 -25.24038376039266 $214 $274 forward 7 unknown #
point $-1 53.439130832850132 -25.24038376039266 5.9240730525451433 #
point $-1 35.083955711983641 -25.24038376039266 5.9240730525451433 #
edge $-1 $275 1 $275 0 $149 $-1 forward 7 unknown #
vertex $-1 $150 $276 #
ellipse-curve $-1 40.328291460802632 -24.234051611471273 1.9946160177418355 0 -0.86602541151947299 0.49999998660252726 1 0 0 1 I I #
point $-1 41.328291460802632 -26.69030551385972 3.4127348188193181 #
edge $-1 $277 1 $277 0 $153 $-1 forward 7 unknown #
vertex $-1 $154 $278 #
ellipse-curve $-1 48.194795084031128 -24.234051611471273 1.9946160177418355 0 -0.86602541151947299 0.49999998660252726 1 0 0 1 I I #
point $-1 49.194795084031128 -26.69030551385972 3.4127348188193181 #
plane-surface $-1 53.439130832850125 0 0 -1 0 0 0 0 1 forward_v I I I I #
coedge $-1 $162 $160 $164 $236 reversed $101 $-1 #
edge $-1 $175 -5.9240730525451433 $238 5.9240730525451433 $174 $279 forward 7 unknown #
vertex $-1 $236 $280 #
straight-curve $-1 -53.439130832850125 -28.140227267326757 0 0 0 -1 I I #
edge $-1 $234 -28.140227267326757 $238 28.140227267326757 $232 $281 forward 7 unknown #
straight-curve $-1 0 -28.140227267326757 -5.9240730525451433 -1 0 0 I I #
vertex $-1 $167 $282 #
straight-curve $-1 0 28.140227267326757 -5.9240730525451433 1 0 0 I I #
point $-1 53.439130832850125 28.140227267326757 -5.9240730525451433 #
point $-1 53.439130832850125 -28.140227267326757 -5.9240730525451433 #
straight-curve $-1 -53.439130832850125 0 5.9240730525451433 0 -1 0 I I #
point $-1 -53.439130832850125 28.140227267326757 5.9240730525451433 #
point $-1 -53.439130832850125 -28.140227267326757 5.9240730525451433 #
straight-curve $-1 53.439130832850125 -28.140227267326757 0 0 0 -1 I I #
straight-curve $-1 53.439130832850125 28.140227267326757 0 0 0 -1 I I #
plane-surface $-1 0 -28.140227267326757 0 0 1 0 0 0 1 forward_v I I I I #
coedge $-1 $283 $187 $251 $284 reversed $120 $-1 #
coedge $-1 $187 $283 $201 $262 reversed $120 $-1 #
edge $-1 $254 -1.5 $252 1.5 $188 $285 forward 7 unknown #
coedge $-1 $189 $257 $248 $284 forward $185 $-1 #
vertex $-1 $190 $286 #
straight-curve $-1 0 28.140227267326757 -5.9240730525451433 1 0 0 I I #
vertex $-1 $191 $287 #
straight-curve $-1 -56.093492334835418 28.140227267326757 -2.9240730525451433 -1 0 0 I I #
point $-1 -53.439130832850125 28.140227267326757 -5.9240730525451433 #
coedge $-1 $251 $194 $197 $260 forward $185 $-1 #
straight-curve $-1 -53.439130832850125 0 -5.9240730525451433 0 -1 0 I I #
coedge $-1 $197 $196 $283 $288 forward $198 $-1 #
edge $-1 $199 -2.6543615019852922 $289 2.6543615019852922 $197 $290 forward 7 unknown #
point $-1 -53.439130832850125 -28.140227267326757 -5.9240730525451433 #
edge $-1 $254 -28.140227267326757 $263 28.140227267326757 $249 $291 forward 7 unknown #
vertex $-1 $262 $292 #
straight-curve $-1 -56.093492334835418 -28.140227267326757 -2.9240730525451433 1 0 0 I I #
coedge $-1 $208 $207 $215 $270 reversed $79 $-1 #
edge $-1 $211 35.083955711983641 $273 53.439130832850125 $208 $293 forward 7 unknown #
straight-curve $-1 35.083955711983641 -28.140227267326757 27.170262993022511 0 0 -1 I I #
point $-1 35.083955711983641 -28.140227267326757 5.9240730525451433 #
straight-curve $-1 22.130771636208443 -28.140227267326757 0.90139658509345888 1 0 0 I I #
edge $-1 $273 -5.9240730525451433 $216 -0.90139658509345677 $215 $294 forward 7 unknown #
point $-1 53.439130832850132 -28.140227267326757 0.90139658509345677 #
point $-1 35.083955711983641 -28.140227267326757 0.90139658509345677 #
vertex $-1 $220 $295 #
straight-curve $-1 53.439130832850125 0 5.9240730525451433 0 1 0 I I #
vertex $-1 $223 $296 #
point $-1 41.328291460802632 -24.234051611471273 1.9946160177418355 #
vertex $-1 $227 $297 #
point $-1 49.194795084031128 -24.234051611471273 1.9946160177418355 #
straight-curve $-1 -53.439130832850125 28.140227267326757 0 0 0 -1 I I #
point $-1 -53.439130832850125 -28.140227267326757 -5.9240730525451433 #
straight-curve $-1 -53.439130832850125 0 -5.9240730525451433 0 1 0 I I #
point $-1 -53.439130832850125 28.140227267326757 -5.9240730525451433 #
coedge $-1 $249 $248 $259 $288 reversed $120 $-1 #
edge $-1 $289 -28.140227267326757 $252 28.140227267326757 $248 $298 forward 7 unknown #
straight-curve $-1 -58.74785383682071 28.140227267326757 -4.4240730525451433 0 0 -1 I I #
point $-1 -58.74785383682071 28.140227267326757 -5.9240730525451433 #
point $-1 -58.74785383682071 28.140227267326757 -2.9240730525451433 #
edge $-1 $263 -1.5 $289 1.5 $283 $299 forward 7 unknown #
vertex $-1 $284 $300 #
straight-curve $-1 -56.093492334835418 -28.140227267326757 -5.9240730525451433 -1 0 0 I I #
straight-curve $-1 -58.74785383682071 0 -2.9240730525451433 0 -1 0 I I #
point $-1 -58.74785383682071 -28.140227267326757 -2.9240730525451433 #
straight-curve $-1 0 -28.140227267326757 5.9240730525451433 1 0 0 I I #
straight-curve $-1 53.439130832850125 -28.140227267326757 0 0 0 -1 I I #
point $-1 53.439130832850125 -28.140227267326757 5.9240730525451433 #
point $-1 40.328291460802632 -23.3680261999518 1.4946160311393084 #
point $-1 48.194795084031128 -23.3680261999518 1.4946160311393084 #
straight-curve $-1 -58.74785383682071 0 -5.9240730525451433 0 1 0 I I #
straight-curve $-1 -58.74785383682071 -28.140227267326757 -4.4240730525451433 0 0 -1 I I #
point $-1 -58.74785383682071 -28.140227267326757 -5.9240730525451433 #
End-of-ACIS-data 