500 0 17 0           
7 Unknown 11 ACIS 5.0 NT 24 Fri Mar 26 18:04:24 1999 
-1 9.9999999999999995e-007 1e-010 
body $-1 $17 $-1 $18 #
body $-1 $19 $-1 $20 #
body $-1 $21 $-1 $22 #
body $-1 $23 $-1 $24 #
body $-1 $25 $-1 $26 #
body $-1 $27 $-1 $28 #
body $-1 $29 $-1 $30 #
body $-1 $31 $-1 $32 #
body $-1 $33 $-1 $34 #
body $-1 $35 $-1 $36 #
body $-1 $37 $-1 $38 #
body $-1 $39 $-1 $40 #
body $-1 $41 $-1 $42 #
body $-1 $43 $-1 $44 #
body $-1 $45 $-1 $46 #
body $-1 $47 $-1 $48 #
body $-1 $49 $-1 $50 #
lump $-1 $-1 $51 $0 #
transform $-1 1 0 0 0 1 0 0 0 1 79.487289040803248 42.241767945012334 18.711451791066668 1 rotate no_reflect no_shear #
lump $-1 $-1 $52 $1 #
transform $-1 1 0 0 0 1 0 0 0 1 79.487289040803248 42.241767945012334 18.711451791066668 1 rotate no_reflect no_shear #
lump $-1 $-1 $53 $2 #
transform $-1 1 0 0 0 1 0 0 0 1 79.487289040803248 42.241767945012334 18.711451791066668 1 rotate no_reflect no_shear #
lump $-1 $-1 $54 $3 #
transform $-1 1 0 0 0 1 0 0 0 1 79.487289040803248 42.241767945012334 18.711451791066668 1 rotate no_reflect no_shear #
lump $-1 $-1 $55 $4 #
transform $-1 1 0 0 0 1 0 0 0 1 79.487289040803248 42.241767945012334 18.711451791066668 1 rotate no_reflect no_shear #
lump $-1 $-1 $56 $5 #
transform $-1 1 0 0 0 1 0 0 0 1 79.487289040803248 42.241767945012334 18.711451791066668 1 rotate no_reflect no_shear #
lump $-1 $-1 $57 $6 #
transform $-1 1 0 0 0 1 0 0 0 1 79.487289040803248 42.241767945012334 18.711451791066668 1 rotate no_reflect no_shear #
lump $-1 $-1 $58 $7 #
transform $-1 1 0 0 0 1 0 0 0 1 79.487289040803248 42.241767945012334 18.711451791066668 1 rotate no_reflect no_shear #
lump $-1 $-1 $59 $8 #
transform $-1 1 0 0 0 1 0 0 0 1 79.487289040803248 42.241767945012334 18.711451791066668 1 rotate no_reflect no_shear #
lump $-1 $-1 $60 $9 #
transform $-1 1 0 0 0 1 0 0 0 1 79.487289040803248 42.241767945012334 18.711451791066668 1 rotate no_reflect no_shear #
lump $-1 $-1 $61 $10 #
transform $-1 1 0 0 0 1 0 0 0 1 79.487289040803248 42.241767945012334 18.711451791066668 1 rotate no_reflect no_shear #
lump $-1 $-1 $62 $11 #
transform $-1 1 0 0 0 1 0 0 0 1 79.487289040803248 42.241767945012334 18.711451791066668 1 rotate no_reflect no_shear #
lump $-1 $-1 $63 $12 #
transform $-1 1 0 0 0 1 0 0 0 1 79.487289040803248 42.241767945012334 18.711451791066668 1 rotate no_reflect no_shear #
lump $-1 $-1 $64 $13 #
transform $-1 1 0 0 0 1 0 0 0 1 79.487289040803248 42.241767945012334 18.711451791066668 1 rotate no_reflect no_shear #
lump $-1 $-1 $65 $14 #
transform $-1 1 0 0 0 1 0 0 0 1 79.487289040803248 42.241767945012334 18.711451791066668 1 rotate no_reflect no_shear #
lump $-1 $-1 $66 $15 #
transform $-1 1 0 0 0 1 0 0 0 1 79.487289040803248 42.241767945012334 18.711451791066668 1 rotate no_reflect no_shear #
lump $-1 $-1 $67 $16 #
transform $-1 1 0 0 0 1 0 0 0 1 79.487289040803248 42.241767945012334 18.711451791066668 1 rotate no_reflect no_shear #
shell $-1 $-1 $-1 $68 $-1 $17 #
shell $-1 $-1 $-1 $69 $-1 $19 #
shell $-1 $-1 $-1 $70 $-1 $21 #
shell $-1 $-1 $-1 $71 $-1 $23 #
shell $-1 $-1 $-1 $72 $-1 $25 #
shell $-1 $-1 $-1 $73 $-1 $27 #
shell $-1 $-1 $-1 $74 $-1 $29 #
shell $-1 $-1 $-1 $75 $-1 $31 #
shell $-1 $-1 $-1 $76 $-1 $33 #
shell $-1 $-1 $-1 $77 $-1 $35 #
shell $-1 $-1 $-1 $78 $-1 $37 #
shell $-1 $-1 $-1 $79 $-1 $39 #
shell $-1 $-1 $-1 $80 $-1 $41 #
shell $-1 $-1 $-1 $81 $-1 $43 #
shell $-1 $-1 $-1 $82 $-1 $45 #
shell $-1 $-1 $-1 $83 $-1 $47 #
shell $-1 $-1 $-1 $84 $-1 $49 #
face $-1 $85 $86 $51 $-1 $87 forward single #
face $-1 $88 $89 $52 $-1 $90 forward single #
face $-1 $91 $92 $53 $-1 $93 forward single #
face $-1 $94 $95 $54 $-1 $96 reversed single #
face $-1 $97 $98 $55 $-1 $99 forward single #
face $-1 $100 $101 $56 $-1 $102 forward single #
face $-1 $103 $104 $57 $-1 $105 reversed single #
face $-1 $106 $107 $58 $-1 $108 forward single #
face $-1 $109 $110 $59 $-1 $111 forward single #
face $-1 $112 $113 $60 $-1 $114 reversed single #
face $-1 $115 $116 $61 $-1 $117 forward single #
face $-1 $118 $119 $62 $-1 $120 forward single #
face $-1 $121 $122 $63 $-1 $123 forward single #
face $-1 $124 $125 $64 $-1 $126 reversed single #
face $-1 $127 $128 $65 $-1 $129 forward single #
face $-1 $130 $131 $66 $-1 $132 forward single #
face $-1 $133 $134 $67 $-1 $135 forward single #
face $-1 $136 $137 $51 $-1 $138 reversed single #
loop $-1 $-1 $139 $68 #
plane-surface $-1 0 0 18.711451791066668 0 0 1 1 0 0 forward_v I I I I #
face $-1 $140 $141 $52 $-1 $142 forward single #
loop $-1 $-1 $143 $69 #
plane-surface $-1 0 -42.241767945012334 0 0 1 0 0 0 1 forward_v I I I I #
face $-1 $144 $145 $53 $-1 $146 reversed single #
loop $-1 $-1 $147 $70 #
plane-surface $-1 0 42.241767945012334 0 0 -1 0 0 0 -1 forward_v I I I I #
face $-1 $148 $149 $54 $-1 $150 reversed single #
loop $-1 $-1 $151 $71 #
plane-surface $-1 -218.52958917733423 -20.50684558088863 77.728824575434331 0 1 0 -0.87461971476443456 0 0.48480960649040278 forward_v I I I I #
face $-1 $152 $153 $55 $-1 $154 forward single #
loop $-1 $155 $156 $72 #
cone-surface $-1 -73.461269245375618 -17.971551227302758 9.1174403807678885 0.87461971476443456 0 -0.48480960649040278 0.48480960649040278 0 0.87461971476443456 1 I I 0 1 1 forward I I I I #
face $-1 $157 $158 $56 $-1 $159 forward single #
loop $-1 $160 $161 $73 #
cone-surface $-1 -73.461269245375618 -14.168609696923951 9.1174403807678885 0.87461971476443456 0 -0.48480960649040278 0.48480960649040278 0 0.87461971476443456 1 I I 0 1 1 forward I I I I #
face $-1 $162 $163 $57 $-1 $164 reversed single #
loop $-1 $-1 $165 $74 #
plane-surface $-1 -218.52958917733423 2.4524706379112082 77.728824575434331 0 1 0 -0.87461971476443456 0 0.48480960649040278 forward_v I I I I #
face $-1 $166 $167 $58 $-1 $168 forward single #
loop $-1 $169 $170 $75 #
cone-surface $-1 -73.461269245375618 4.9877649914970803 9.1174403807678885 0.87461971476443456 0 -0.48480960649040278 0.48480960649040278 0 0.87461971476443456 1 I I 0 1 1 forward I I I I #
face $-1 $171 $172 $59 $-1 $173 forward single #
loop $-1 $174 $175 $76 #
cone-surface $-1 -73.461269245375618 8.7907065218758831 9.1174403807678885 0.87461971476443456 0 -0.48480960649040278 0.48480960649040278 0 0.87461971476443456 1 I I 0 1 1 forward I I I I #
face $-1 $176 $177 $60 $-1 $178 reversed single #
loop $-1 $-1 $179 $77 #
plane-surface $-1 130.06168914732905 -9.2383990411150965 220.70259406109381 0 -1 0 -0.84804810408105047 0 -0.52991925155115449 forward_v I I I I #
face $-1 $180 $181 $61 $-1 $182 forward single #
loop $-1 $183 $184 $78 #
cone-surface $-1 73.729806319966102 -18.079770229658507 9.911173814376248 -0.84804810408105047 0 -0.52991925155115449 0.26495962577557725 0 -0.42402405204052523 1 I I 0 1 0.5 forward I I I I #
face $-1 $185 $186 $62 $-1 $187 forward single #
loop $-1 $188 $189 $79 #
cone-surface $-1 73.729806319966102 -14.764256033954727 9.911173814376248 -0.84804810408105047 0 -0.52991925155115449 0.26495962577557725 0 -0.42402405204052523 1 I I 0 1 0.5 forward I I I I #
face $-1 $190 $191 $63 $-1 $192 forward single #
loop $-1 $193 $194 $80 #
cone-surface $-1 73.729806319966102 -11.448741838250946 9.911173814376248 -0.84804810408105047 0 -0.52991925155115449 0.26495962577557725 0 -0.42402405204052523 1 I I 0 1 0.5 forward I I I I #
face $-1 $195 $196 $64 $-1 $197 reversed single #
loop $-1 $-1 $198 $81 #
plane-surface $-1 130.06168914732905 20.290113026794359 220.70259406109381 0 -1 0 -0.84804810408105047 0 -0.52991925155115449 forward_v I I I I #
face $-1 $199 $200 $65 $-1 $201 forward single #
loop $-1 $202 $203 $82 #
cone-surface $-1 73.729806319966102 11.448741838250946 9.911173814376248 -0.84804810408105047 0 -0.52991925155115449 0.26495962577557725 0 -0.42402405204052523 1 I I 0 1 0.5 forward I I I I #
face $-1 $204 $205 $66 $-1 $206 forward single #
loop $-1 $207 $208 $83 #
cone-surface $-1 73.729806319966102 14.76425603395473 9.911173814376248 -0.84804810408105047 0 -0.52991925155115449 0.26495962577557725 0 -0.42402405204052523 1 I I 0 1 0.5 forward I I I I #
face $-1 $209 $210 $67 $-1 $211 forward single #
loop $-1 $212 $213 $84 #
cone-surface $-1 73.729806319966102 18.079770229658507 9.911173814376248 -0.84804810408105047 0 -0.52991925155115449 0.26495962577557725 0 -0.42402405204052523 1 I I 0 1 0.5 forward I I I I #
face $-1 $214 $215 $51 $-1 $216 reversed single #
loop $-1 $-1 $217 $85 #
plane-surface $-1 0 0 -18.711451791066668 0 0 1 1 0 0 forward_v I I I I #
coedge $-1 $218 $219 $220 $221 forward $86 $-1 #
face $-1 $222 $223 $52 $-1 $224 reversed single #
loop $-1 $-1 $225 $88 #
plane-surface $-1 0 0 18.711451791066668 0 0 1 1 0 0 forward_v I I I I #
coedge $-1 $226 $227 $228 $229 forward $89 $-1 #
face $-1 $230 $231 $53 $-1 $232 reversed single #
loop $-1 $-1 $233 $91 #
plane-surface $-1 79.487289040803248 0 0 -1 0 0 0 0 1 forward_v I I I I #
coedge $-1 $234 $235 $236 $237 forward $92 $-1 #
face $-1 $238 $239 $54 $-1 $240 reversed single #
loop $-1 $-1 $241 $94 #
plane-surface $-1 -79.487289040803233 -16.070080462113356 0.6564219337128776 -0.87461971476443456 0 0.48480960649040278 0.48480960649040278 0 0.87461971476443456 forward_v I I I I #
coedge $-1 $242 $243 $244 $245 reversed $95 $-1 #
face $-1 $-1 $246 $55 $-1 $247 forward single #
loop $-1 $248 $249 $97 #
cone-surface $-1 -72.001972644046731 -17.971551227302758 8.3085390959007945 0.87461971476443456 0 -0.48480960649040278 0.24240480324520139 0 0.43730985738221728 1 I I -0.70710678118654746 0.70710678118654746 0.5 forward I I I I #
loop $-1 $-1 $250 $72 #
coedge $-1 $156 $156 $251 $252 reversed $98 $-1 #
face $-1 $-1 $253 $56 $-1 $254 forward single #
loop $-1 $255 $256 $100 #
cone-surface $-1 -72.001972644046731 -14.168609696923951 8.3085390959007945 0.87461971476443456 0 -0.48480960649040278 0.24240480324520139 0 0.43730985738221728 1 I I -0.70710678118654746 0.70710678118654746 0.5 forward I I I I #
loop $-1 $-1 $257 $73 #
coedge $-1 $161 $161 $258 $259 reversed $101 $-1 #
face $-1 $260 $261 $57 $-1 $262 reversed single #
loop $-1 $-1 $263 $103 #
plane-surface $-1 -79.487289040803233 6.8892357566864817 0.6564219337128776 -0.87461971476443456 0 0.48480960649040278 0.48480960649040278 0 0.87461971476443456 forward_v I I I I #
coedge $-1 $264 $265 $266 $267 reversed $104 $-1 #
face $-1 $-1 $268 $58 $-1 $269 forward single #
loop $-1 $270 $271 $106 #
cone-surface $-1 -72.001972644046731 4.9877649914970803 8.3085390959007945 0.87461971476443456 0 -0.48480960649040278 0.24240480324520139 0 0.43730985738221728 1 I I -0.70710678118654746 0.70710678118654746 0.5 forward I I I I #
loop $-1 $-1 $272 $75 #
coedge $-1 $170 $170 $273 $274 reversed $107 $-1 #
face $-1 $-1 $275 $59 $-1 $276 forward single #
loop $-1 $277 $278 $109 #
cone-surface $-1 -72.001972644046731 8.7907065218758831 8.3085390959007945 0.87461971476443456 0 -0.48480960649040278 0.24240480324520139 0 0.43730985738221728 1 I I -0.70710678118654746 0.70710678118654746 0.5 forward I I I I #
loop $-1 $-1 $279 $76 #
coedge $-1 $175 $175 $280 $281 reversed $110 $-1 #
face $-1 $282 $283 $60 $-1 $284 reversed single #
loop $-1 $-1 $285 $112 #
plane-surface $-1 -4.7564003918622575 -14.76425603395473 136.45890462842834 0.84804810408105047 0 0.52991925155115449 0.52991925155115449 0 -0.84804810408105047 forward_v I I I I #
coedge $-1 $286 $287 $288 $289 reversed $113 $-1 #
face $-1 $-1 $290 $61 $-1 $291 forward single #
loop $-1 $292 $293 $115 #
cone-surface $-1 73.093770241905318 -18.079770229658507 9.5137343757128825 -0.84804810408105047 0 -0.52991925155115449 0.13247981288778862 0 -0.21201202602026262 1 I I -0.70710678118654746 0.70710678118654746 0.25 forward I I I I #
loop $-1 $-1 $294 $78 #
coedge $-1 $184 $184 $295 $296 reversed $116 $-1 #
face $-1 $-1 $297 $62 $-1 $298 forward single #
loop $-1 $299 $300 $118 #
cone-surface $-1 73.093770241905318 -14.764256033954727 9.5137343757128825 -0.84804810408105047 0 -0.52991925155115449 0.13247981288778862 0 -0.21201202602026262 1 I I -0.70710678118654746 0.70710678118654746 0.25 forward I I I I #
loop $-1 $-1 $301 $79 #
coedge $-1 $189 $189 $302 $303 reversed $119 $-1 #
face $-1 $-1 $304 $63 $-1 $305 forward single #
loop $-1 $306 $307 $121 #
cone-surface $-1 73.093770241905318 -11.448741838250946 9.5137343757128825 -0.84804810408105047 0 -0.52991925155115449 0.13247981288778862 0 -0.21201202602026262 1 I I -0.70710678118654746 0.70710678118654746 0.25 forward I I I I #
loop $-1 $-1 $308 $80 #
coedge $-1 $194 $194 $309 $310 reversed $122 $-1 #
face $-1 $311 $312 $64 $-1 $313 reversed single #
loop $-1 $-1 $314 $124 #
plane-surface $-1 -4.7564003918622575 14.764256033954723 136.45890462842834 0.84804810408105047 0 0.52991925155115449 0.52991925155115449 0 -0.84804810408105047 forward_v I I I I #
coedge $-1 $315 $316 $317 $318 reversed $125 $-1 #
face $-1 $-1 $319 $65 $-1 $320 forward single #
loop $-1 $321 $322 $127 #
cone-surface $-1 73.093770241905318 11.448741838250946 9.5137343757128825 -0.84804810408105047 0 -0.52991925155115449 0.13247981288778862 0 -0.21201202602026262 1 I I -0.70710678118654746 0.70710678118654746 0.25 forward I I I I #
loop $-1 $-1 $323 $82 #
coedge $-1 $203 $203 $324 $325 reversed $128 $-1 #
face $-1 $-1 $326 $66 $-1 $327 forward single #
loop $-1 $328 $329 $130 #
cone-surface $-1 73.093770241905318 14.76425603395473 9.5137343757128825 -0.84804810408105047 0 -0.52991925155115449 0.13247981288778862 0 -0.21201202602026262 1 I I -0.70710678118654746 0.70710678118654746 0.25 forward I I I I #
loop $-1 $-1 $330 $83 #
coedge $-1 $208 $208 $331 $332 reversed $131 $-1 #
face $-1 $-1 $333 $67 $-1 $334 forward single #
loop $-1 $335 $336 $133 #
cone-surface $-1 73.093770241905318 18.079770229658507 9.5137343757128825 -0.84804810408105047 0 -0.52991925155115449 0.13247981288778862 0 -0.21201202602026262 1 I I -0.70710678118654746 0.70710678118654746 0.25 forward I I I I #
loop $-1 $-1 $337 $84 #
coedge $-1 $213 $213 $338 $339 reversed $134 $-1 #
face $-1 $340 $341 $51 $-1 $342 reversed single #
loop $-1 $-1 $343 $136 #
plane-surface $-1 0 -42.241767945012334 0 0 1 0 0 0 1 forward_v I I I I #
coedge $-1 $344 $345 $346 $347 forward $137 $-1 #
coedge $-1 $348 $139 $349 $350 forward $86 $-1 #
coedge $-1 $139 $348 $351 $352 forward $86 $-1 #
coedge $-1 $353 $354 $139 $221 reversed $355 $-1 #
edge $-1 $356 -42.241767945012334 $357 42.241767945012334 $220 $358 forward 7 unknown #
face $-1 $359 $360 $52 $-1 $361 reversed single #
loop $-1 $-1 $362 $140 #
plane-surface $-1 -79.487289040803248 0 0 1 0 0 0 0 -1 forward_v I I I I #
coedge $-1 $363 $364 $365 $366 forward $141 $-1 #
coedge $-1 $365 $143 $362 $367 reversed $89 $-1 #
coedge $-1 $143 $365 $368 $369 reversed $89 $-1 #
coedge $-1 $370 $371 $143 $229 reversed $360 $-1 #
edge $-1 $372 -79.487289040803248 $373 79.487289040803248 $228 $374 forward 7 unknown #
face $-1 $375 $376 $53 $-1 $377 reversed single #
loop $-1 $-1 $378 $144 #
plane-surface $-1 0 51.882993808118577 11.335027114839836 0 0 1 1 0 0 forward_v I I I I #
coedge $-1 $379 $380 $234 $381 forward $145 $-1 #
coedge $-1 $382 $147 $233 $381 reversed $92 $-1 #
coedge $-1 $147 $382 $383 $384 reversed $92 $-1 #
coedge $-1 $385 $378 $147 $237 reversed $231 $-1 #
edge $-1 $386 -79.487289040803248 $387 79.487289040803248 $236 $388 forward 7 unknown #
face $-1 $389 $390 $54 $-1 $391 reversed single #
loop $-1 $-1 $392 $148 #
plane-surface $-1 -218.52958917733423 -11.633315343338083 77.728824575434331 0 -1 0 0.87461971476443456 0 -0.48480960649040278 forward_v I I I I #
coedge $-1 $393 $394 $395 $396 reversed $149 $-1 #
coedge $-1 $243 $151 $397 $398 reversed $95 $-1 #
coedge $-1 $151 $242 $393 $399 reversed $95 $-1 #
coedge $-1 $395 $400 $151 $245 forward $401 $-1 #
edge $-1 $402 29.777505547863868 $403 39.785571650825801 $244 $404 forward 7 unknown #
loop $-1 $-1 $251 $152 #
plane-surface $-1 -79.487289040803233 -16.070080462113356 0.6564219337128776 -0.87461971476443456 0 0.48480960649040278 0.48480960649040278 0 0.87461971476443456 forward_v I I I I #
loop $-1 $-1 $405 $97 #
coedge $-1 $249 $249 $250 $406 reversed $153 $-1 #
coedge $-1 $250 $250 $249 $406 forward $155 $-1 #
coedge $-1 $251 $251 $156 $252 forward $246 $-1 #
edge $-1 $407 0 $407 6.2831853071796004 $251 $408 forward 7 unknown #
loop $-1 $-1 $258 $157 #
plane-surface $-1 -79.487289040803233 -16.070080462113356 0.6564219337128776 -0.87461971476443456 0 0.48480960649040278 0.48480960649040278 0 0.87461971476443456 forward_v I I I I #
loop $-1 $-1 $409 $100 #
coedge $-1 $256 $256 $257 $410 reversed $158 $-1 #
coedge $-1 $257 $257 $256 $410 forward $160 $-1 #
coedge $-1 $258 $258 $161 $259 forward $253 $-1 #
edge $-1 $411 0 $411 6.2831853071796004 $258 $412 forward 7 unknown #
face $-1 $413 $414 $57 $-1 $415 forward single #
loop $-1 $-1 $416 $162 #
plane-surface $-1 -218.52958917733423 11.326000875461755 77.728824575434331 0 -1 0 0.87461971476443456 0 -0.48480960649040278 forward_v I I I I #
coedge $-1 $417 $418 $419 $420 reversed $163 $-1 #
coedge $-1 $265 $165 $421 $422 reversed $104 $-1 #
coedge $-1 $165 $264 $417 $423 reversed $104 $-1 #
coedge $-1 $419 $424 $165 $267 forward $414 $-1 #
edge $-1 $425 29.777505547863868 $426 39.785571650825801 $266 $427 forward 7 unknown #
loop $-1 $-1 $273 $166 #
plane-surface $-1 -79.487289040803233 6.8892357566864817 0.6564219337128776 -0.87461971476443456 0 0.48480960649040278 0.48480960649040278 0 0.87461971476443456 forward_v I I I I #
loop $-1 $-1 $428 $106 #
coedge $-1 $271 $271 $272 $429 reversed $167 $-1 #
coedge $-1 $272 $272 $271 $429 forward $169 $-1 #
coedge $-1 $273 $273 $170 $274 forward $268 $-1 #
edge $-1 $430 0 $430 6.2831853071796004 $273 $431 forward 7 unknown #
loop $-1 $-1 $280 $171 #
plane-surface $-1 -79.487289040803233 6.8892357566864817 0.6564219337128776 -0.87461971476443456 0 0.48480960649040278 0.48480960649040278 0 0.87461971476443456 forward_v I I I I #
loop $-1 $-1 $432 $109 #
coedge $-1 $278 $278 $279 $433 reversed $172 $-1 #
coedge $-1 $279 $279 $278 $433 forward $174 $-1 #
coedge $-1 $280 $280 $175 $281 forward $275 $-1 #
edge $-1 $434 0 $434 6.2831853071796004 $280 $435 forward 7 unknown #
face $-1 $436 $437 $60 $-1 $438 forward single #
loop $-1 $-1 $439 $176 #
plane-surface $-1 130.06168914732905 -20.290113026794366 220.70259406109381 0 1 0 0.84804810408105047 0 0.52991925155115449 forward_v I I I I #
coedge $-1 $440 $441 $442 $443 reversed $177 $-1 #
coedge $-1 $287 $179 $444 $445 reversed $113 $-1 #
coedge $-1 $179 $286 $440 $446 reversed $113 $-1 #
coedge $-1 $442 $447 $179 $289 forward $437 $-1 #
edge $-1 $448 -14.456444467138724 $449 -3.7895271295454762 $288 $450 forward 7 unknown #
loop $-1 $-1 $295 $180 #
plane-surface $-1 -4.7564003918622575 -14.76425603395473 136.45890462842834 0.84804810408105047 0 0.52991925155115449 0.52991925155115449 0 -0.84804810408105047 forward_v I I I I #
loop $-1 $-1 $451 $115 #
coedge $-1 $293 $293 $294 $452 reversed $181 $-1 #
coedge $-1 $294 $294 $293 $452 forward $183 $-1 #
coedge $-1 $295 $295 $184 $296 forward $290 $-1 #
edge $-1 $453 0 $453 6.2831853071796004 $295 $454 forward 7 unknown #
loop $-1 $-1 $302 $185 #
plane-surface $-1 -4.7564003918622575 -14.76425603395473 136.45890462842834 0.84804810408105047 0 0.52991925155115449 0.52991925155115449 0 -0.84804810408105047 forward_v I I I I #
loop $-1 $-1 $455 $118 #
coedge $-1 $300 $300 $301 $456 reversed $186 $-1 #
coedge $-1 $301 $301 $300 $456 forward $188 $-1 #
coedge $-1 $302 $302 $189 $303 forward $297 $-1 #
edge $-1 $457 0 $457 6.2831853071796004 $302 $458 forward 7 unknown #
loop $-1 $-1 $309 $190 #
plane-surface $-1 -4.7564003918622575 -14.76425603395473 136.45890462842834 0.84804810408105047 0 0.52991925155115449 0.52991925155115449 0 -0.84804810408105047 forward_v I I I I #
loop $-1 $-1 $459 $121 #
coedge $-1 $307 $307 $308 $460 reversed $191 $-1 #
coedge $-1 $308 $308 $307 $460 forward $193 $-1 #
coedge $-1 $309 $309 $194 $310 forward $304 $-1 #
edge $-1 $461 0 $461 6.2831853071796004 $309 $462 forward 7 unknown #
face $-1 $463 $464 $64 $-1 $465 reversed single #
loop $-1 $-1 $466 $195 #
plane-surface $-1 130.06168914732905 9.2383990411150894 220.70259406109381 0 1 0 0.84804810408105047 0 0.52991925155115449 forward_v I I I I #
coedge $-1 $467 $468 $469 $470 reversed $196 $-1 #
coedge $-1 $316 $198 $471 $472 reversed $125 $-1 #
coedge $-1 $198 $315 $467 $473 reversed $125 $-1 #
coedge $-1 $469 $474 $198 $318 forward $475 $-1 #
edge $-1 $476 -14.456444467138724 $477 -3.7895271295454762 $317 $478 forward 7 unknown #
loop $-1 $-1 $324 $199 #
plane-surface $-1 -4.7564003918622575 14.764256033954723 136.45890462842834 0.84804810408105047 0 0.52991925155115449 0.52991925155115449 0 -0.84804810408105047 forward_v I I I I #
loop $-1 $-1 $479 $127 #
coedge $-1 $322 $322 $323 $480 reversed $200 $-1 #
coedge $-1 $323 $323 $322 $480 forward $202 $-1 #
coedge $-1 $324 $324 $203 $325 forward $319 $-1 #
edge $-1 $481 0 $481 6.2831853071796004 $324 $482 forward 7 unknown #
loop $-1 $-1 $331 $204 #
plane-surface $-1 -4.7564003918622575 14.764256033954723 136.45890462842834 0.84804810408105047 0 0.52991925155115449 0.52991925155115449 0 -0.84804810408105047 forward_v I I I I #
loop $-1 $-1 $483 $130 #
coedge $-1 $329 $329 $330 $484 reversed $205 $-1 #
coedge $-1 $330 $330 $329 $484 forward $207 $-1 #
coedge $-1 $331 $331 $208 $332 forward $326 $-1 #
edge $-1 $485 0 $485 6.2831853071796004 $331 $486 forward 7 unknown #
loop $-1 $-1 $338 $209 #
plane-surface $-1 -4.7564003918622575 14.764256033954723 136.45890462842834 0.84804810408105047 0 0.52991925155115449 0.52991925155115449 0 -0.84804810408105047 forward_v I I I I #
loop $-1 $-1 $487 $133 #
coedge $-1 $336 $336 $337 $488 reversed $210 $-1 #
coedge $-1 $337 $337 $336 $488 forward $212 $-1 #
coedge $-1 $338 $338 $213 $339 forward $333 $-1 #
edge $-1 $489 0 $489 6.2831853071796004 $338 $490 forward 7 unknown #
face $-1 $491 $492 $51 $-1 $493 reversed single #
loop $-1 $-1 $494 $214 #
plane-surface $-1 -79.487289040803248 0 0 1 0 0 0 0 -1 forward_v I I I I #
coedge $-1 $495 $351 $496 $497 forward $215 $-1 #
coedge $-1 $498 $217 $495 $499 forward $137 $-1 #
coedge $-1 $217 $498 $500 $501 forward $137 $-1 #
coedge $-1 $354 $353 $217 $347 reversed $355 $-1 #
edge $-1 $502 -42.241767945012334 $503 42.241767945012334 $346 $504 forward 7 unknown #
coedge $-1 $219 $218 $505 $506 forward $86 $-1 #
coedge $-1 $507 $508 $218 $350 reversed $492 $-1 #
edge $-1 $357 -79.487289040803248 $509 79.487289040803248 $349 $510 forward 7 unknown #
coedge $-1 $343 $511 $219 $352 reversed $215 $-1 #
edge $-1 $512 -79.487289040803248 $356 79.487289040803248 $351 $513 forward 7 unknown #
coedge $-1 $346 $220 $511 $514 forward $355 $-1 #
coedge $-1 $220 $346 $507 $515 reversed $355 $-1 #
loop $-1 $-1 $353 $491 #
vertex $-1 $221 $516 #
vertex $-1 $221 $517 #
straight-curve $-1 79.487289040803248 0 18.711451791066668 0 1 0 I I #
face $-1 $518 $519 $52 $-1 $520 reversed single #
loop $-1 $-1 $370 $222 #
plane-surface $-1 0 -51.882993808118584 11.335027114839836 0 0 1 1 0 0 forward_v I I I I #
coedge $-1 $521 $522 $226 $367 forward $223 $-1 #
coedge $-1 $523 $225 $522 $524 forward $141 $-1 #
coedge $-1 $225 $523 $525 $526 forward $141 $-1 #
coedge $-1 $227 $226 $225 $366 reversed $89 $-1 #
edge $-1 $527 -79.487289040803248 $528 79.487289040803248 $225 $529 forward 7 unknown #
edge $-1 $528 -18.711451791066668 $373 -11.335027114839836 $362 $530 forward 7 unknown #
coedge $-1 $525 $531 $227 $369 forward $532 $-1 #
edge $-1 $372 11.335027114839836 $527 18.711451791066668 $368 $533 forward 7 unknown #
coedge $-1 $534 $228 $531 $535 forward $360 $-1 #
coedge $-1 $228 $534 $521 $536 forward $360 $-1 #
vertex $-1 $369 $537 #
vertex $-1 $367 $538 #
straight-curve $-1 0 -42.241767945012334 11.335027114839836 -1 0 0 I I #
face $-1 $539 $540 $53 $-1 $541 forward single #
loop $-1 $-1 $542 $230 #
plane-surface $-1 0 61.524219671224827 15.023239452953252 0 -1 0 0 0 -1 forward_v I I I I #
coedge $-1 $236 $543 $379 $544 forward $231 $-1 #
coedge $-1 $545 $233 $378 $544 reversed $145 $-1 #
coedge $-1 $233 $545 $546 $547 reversed $145 $-1 #
edge $-1 $548 -18.711451791066668 $387 -11.335027114839836 $233 $549 forward 7 unknown #
coedge $-1 $235 $234 $550 $551 reversed $92 $-1 #
coedge $-1 $552 $553 $235 $384 forward $554 $-1 #
edge $-1 $386 11.335027114839836 $555 18.711451791066668 $383 $556 forward 7 unknown #
coedge $-1 $543 $236 $553 $557 forward $231 $-1 #
vertex $-1 $384 $558 #
vertex $-1 $381 $559 #
straight-curve $-1 0 42.241767945012334 11.335027114839836 1 0 0 I I #
face $-1 $-1 $401 $54 $-1 $560 forward single #
loop $-1 $-1 $561 $238 #
plane-surface $-1 -79.487289040803248 0 0 1 0 0 0 0 -1 forward_v I I I I #
coedge $-1 $562 $563 $564 $565 reversed $239 $-1 #
coedge $-1 $566 $241 $243 $399 forward $149 $-1 #
coedge $-1 $241 $566 $562 $567 forward $149 $-1 #
coedge $-1 $564 $244 $241 $396 forward $401 $-1 #
edge $-1 $403 -12.471805349831952 $568 -3.5982751122814047 $395 $569 forward 7 unknown #
coedge $-1 $570 $571 $242 $398 forward $390 $-1 #
edge $-1 $572 -38.207990354004316 $402 -20.152960496650497 $397 $573 forward 7 unknown #
edge $-1 $403 -20.64329165300903 $572 2.9320188914700558e-014 $243 $574 forward 7 unknown #
coedge $-1 $244 $564 $570 $575 forward $401 $-1 #
loop $-1 $-1 $564 $389 #
vertex $-1 $398 $576 #
vertex $-1 $245 $577 #
straight-curve $-1 -109.26479458866712 -20.50684558088863 18.711451791066668 1 0 0 I I #
coedge $-1 $405 $405 $-1 $578 reversed $248 $-1 #
edge $-1 $579 0 $579 6.2831853071796004 $249 $580 forward 7 unknown #
vertex $-1 $252 $581 #
ellipse-curve $-1 -74.483255989322274 -17.971551227302758 9.6839368623897695 -0.87461971476443456 0 0.48480960649040278 0.48480960649040278 0 0.87461971476443456 1 I I #
coedge $-1 $409 $409 $-1 $582 reversed $255 $-1 #
edge $-1 $583 0 $583 6.2831853071796004 $256 $584 forward 7 unknown #
vertex $-1 $259 $585 #
ellipse-curve $-1 -74.483255989322274 -14.168609696923951 9.6839368623897695 -0.87461971476443456 0 0.48480960649040278 0.48480960649040278 0 0.87461971476443456 1 I I #
face $-1 $-1 $586 $57 $-1 $587 reversed single #
loop $-1 $-1 $266 $260 #
plane-surface $-1 0 0 18.711451791066668 0 0 1 1 0 0 forward_v I I I I #
coedge $-1 $588 $589 $590 $591 reversed $261 $-1 #
coedge $-1 $592 $263 $265 $423 forward $163 $-1 #
coedge $-1 $263 $592 $588 $593 forward $163 $-1 #
coedge $-1 $590 $266 $263 $420 forward $414 $-1 #
edge $-1 $426 -0.99214724043203262 $594 7.8813829971185143 $419 $595 forward 7 unknown #
coedge $-1 $596 $597 $264 $422 forward $586 $-1 #
edge $-1 $598 -38.207990354004316 $425 -20.152960496650497 $421 $599 forward 7 unknown #
edge $-1 $426 -20.64329165300903 $598 2.9320188914700558e-014 $265 $600 forward 7 unknown #
coedge $-1 $266 $590 $596 $601 forward $414 $-1 #
vertex $-1 $267 $602 #
vertex $-1 $267 $603 #
straight-curve $-1 -109.26479458866712 2.4524706379112082 18.711451791066668 1 0 0 I I #
coedge $-1 $428 $428 $-1 $604 reversed $270 $-1 #
edge $-1 $605 0 $605 6.2831853071796004 $271 $606 forward 7 unknown #
vertex $-1 $274 $607 #
ellipse-curve $-1 -74.483255989322274 4.9877649914970803 9.6839368623897695 -0.87461971476443456 0 0.48480960649040278 0.48480960649040278 0 0.87461971476443456 1 I I #
coedge $-1 $432 $432 $-1 $608 reversed $277 $-1 #
edge $-1 $609 0 $609 6.2831853071796004 $278 $610 forward 7 unknown #
vertex $-1 $281 $611 #
ellipse-curve $-1 -74.483255989322274 8.7907065218758831 9.6839368623897695 -0.87461971476443456 0 0.48480960649040278 0.48480960649040278 0 0.87461971476443456 1 I I #
face $-1 $-1 $612 $60 $-1 $613 reversed single #
loop $-1 $-1 $288 $282 #
plane-surface $-1 0 0 18.711451791066668 0 0 1 1 0 0 forward_v I I I I #
coedge $-1 $614 $615 $616 $617 reversed $283 $-1 #
coedge $-1 $618 $285 $287 $446 forward $177 $-1 #
coedge $-1 $285 $618 $614 $619 forward $177 $-1 #
coedge $-1 $616 $288 $285 $443 forward $437 $-1 #
edge $-1 $449 1.8562710241377314 $620 12.907985009817001 $442 $621 forward 7 unknown #
coedge $-1 $622 $623 $286 $445 forward $612 $-1 #
edge $-1 $624 -108.71048194130989 $448 -91.639845239480238 $444 $625 forward 7 unknown #
edge $-1 $449 138.84525213926804 $624 158.97457808160652 $287 $626 forward 7 unknown #
coedge $-1 $288 $616 $622 $627 forward $437 $-1 #
vertex $-1 $445 $628 #
vertex $-1 $289 $629 #
straight-curve $-1 65.030844573664524 -9.2383990411150965 18.711451791066665 -1 0 0 I I #
coedge $-1 $451 $451 $-1 $630 reversed $292 $-1 #
edge $-1 $631 0 $631 6.2831853071796004 $293 $632 forward 7 unknown #
vertex $-1 $296 $633 #
ellipse-curve $-1 74.153830372006638 -18.079770229658507 10.176133440151833 0.84804810408105047 0 0.52991925155115449 0.26495962577557725 0 -0.42402405204052523 1 I I #
coedge $-1 $455 $455 $-1 $634 reversed $299 $-1 #
edge $-1 $635 0 $635 6.2831853071796004 $300 $636 forward 7 unknown #
vertex $-1 $303 $637 #
ellipse-curve $-1 74.153830372006638 -14.764256033954727 10.176133440151833 0.84804810408105047 0 0.52991925155115449 0.26495962577557725 0 -0.42402405204052523 1 I I #
coedge $-1 $459 $459 $-1 $638 reversed $306 $-1 #
edge $-1 $639 0 $639 6.2831853071796004 $307 $640 forward 7 unknown #
vertex $-1 $310 $641 #
ellipse-curve $-1 74.153830372006638 -11.448741838250946 10.176133440151833 0.84804810408105047 0 0.52991925155115449 0.26495962577557725 0 -0.42402405204052523 1 I I #
face $-1 $-1 $475 $64 $-1 $642 forward single #
loop $-1 $-1 $643 $311 #
plane-surface $-1 79.487289040803248 0 0 -1 0 0 0 0 1 forward_v I I I I #
coedge $-1 $644 $645 $646 $647 reversed $312 $-1 #
coedge $-1 $648 $314 $316 $473 forward $196 $-1 #
coedge $-1 $314 $648 $644 $649 forward $196 $-1 #
coedge $-1 $646 $317 $314 $470 forward $475 $-1 #
edge $-1 $477 -12.907985009816997 $650 -1.8562710241377278 $469 $651 forward 7 unknown #
coedge $-1 $652 $653 $315 $472 forward $464 $-1 #
edge $-1 $654 -108.71048194130989 $476 -91.639845239480238 $471 $655 forward 7 unknown #
edge $-1 $477 138.84525213926804 $654 158.97457808160652 $316 $656 forward 7 unknown #
coedge $-1 $317 $646 $652 $657 forward $475 $-1 #
loop $-1 $-1 $646 $463 #
vertex $-1 $472 $658 #
vertex $-1 $318 $659 #
straight-curve $-1 65.030844573664524 20.290113026794359 18.711451791066665 -1 0 0 I I #
coedge $-1 $479 $479 $-1 $660 reversed $321 $-1 #
edge $-1 $661 0 $661 6.2831853071796004 $322 $662 forward 7 unknown #
vertex $-1 $325 $663 #
ellipse-curve $-1 74.153830372006638 11.448741838250946 10.176133440151833 0.84804810408105047 0 0.52991925155115449 0.26495962577557725 0 -0.42402405204052523 1 I I #
coedge $-1 $483 $483 $-1 $664 reversed $328 $-1 #
edge $-1 $665 0 $665 6.2831853071796004 $329 $666 forward 7 unknown #
vertex $-1 $332 $667 #
ellipse-curve $-1 74.153830372006638 14.76425603395473 10.176133440151833 0.84804810408105047 0 0.52991925155115449 0.26495962577557725 0 -0.42402405204052523 1 I I #
coedge $-1 $487 $487 $-1 $668 reversed $335 $-1 #
edge $-1 $669 0 $669 6.2831853071796004 $336 $670 forward 7 unknown #
vertex $-1 $339 $671 #
ellipse-curve $-1 74.153830372006638 18.079770229658507 10.176133440151833 0.84804810408105047 0 0.52991925155115449 0.26495962577557725 0 -0.42402405204052523 1 I I #
face $-1 $-1 $355 $51 $-1 $672 reversed single #
loop $-1 $-1 $507 $340 #
plane-surface $-1 0 42.241767945012334 0 0 -1 0 0 0 -1 forward_v I I I I #
coedge $-1 $673 $505 $508 $674 forward $341 $-1 #
coedge $-1 $511 $343 $344 $499 reversed $215 $-1 #
coedge $-1 $505 $673 $343 $497 reversed $341 $-1 #
edge $-1 $512 -18.711451791066668 $675 18.711451791066668 $496 $676 forward 7 unknown #
coedge $-1 $345 $344 $673 $677 forward $137 $-1 #
edge $-1 $503 -79.487289040803248 $675 79.487289040803248 $495 $678 forward 7 unknown #
coedge $-1 $508 $507 $345 $501 reversed $492 $-1 #
edge $-1 $679 -79.487289040803248 $502 79.487289040803248 $500 $680 forward 7 unknown #
vertex $-1 $347 $681 #
vertex $-1 $514 $682 #
straight-curve $-1 79.487289040803248 0 -18.711451791066668 0 -1 0 I I #
coedge $-1 $494 $496 $348 $506 reversed $341 $-1 #
edge $-1 $509 -42.241767945012334 $512 42.241767945012334 $505 $683 forward 7 unknown #
coedge $-1 $500 $349 $354 $515 forward $492 $-1 #
coedge $-1 $349 $500 $494 $674 reversed $492 $-1 #
vertex $-1 $350 $684 #
straight-curve $-1 0 42.241767945012334 18.711451791066668 -1 0 0 I I #
coedge $-1 $351 $495 $353 $514 reversed $215 $-1 #
vertex $-1 $506 $685 #
straight-curve $-1 0 -42.241767945012334 18.711451791066668 1 0 0 I I #
edge $-1 $356 -18.711451791066668 $503 18.711451791066668 $353 $686 forward 7 unknown #
edge $-1 $357 -18.711451791066668 $502 18.711451791066668 $354 $687 forward 7 unknown #
point $-1 79.487289040803248 -42.241767945012334 18.711451791066668 #
point $-1 79.487289040803248 42.241767945012334 18.711451791066668 #
face $-1 $-1 $532 $52 $-1 $688 reversed single #
loop $-1 $-1 $689 $359 #
plane-surface $-1 0 -61.524219671224834 15.023239452953252 0 1 0 0 0 1 forward_v I I I I #
coedge $-1 $690 $362 $371 $536 reversed $223 $-1 #
coedge $-1 $362 $690 $363 $524 reversed $223 $-1 #
coedge $-1 $364 $363 $691 $692 forward $141 $-1 #
edge $-1 $528 42.241767945012334 $693 61.524219671224834 $522 $694 forward 7 unknown #
coedge $-1 $695 $368 $364 $526 reversed $532 $-1 #
edge $-1 $696 -61.524219671224834 $527 -42.241767945012334 $525 $697 forward 7 unknown #
vertex $-1 $369 $698 #
vertex $-1 $524 $699 #
straight-curve $-1 0 -42.241767945012334 18.711451791066668 -1 0 0 I I #
straight-curve $-1 -79.487289040803248 -42.241767945012334 0 0 0 -1 I I #
coedge $-1 $368 $695 $370 $535 reversed $532 $-1 #
loop $-1 $-1 $368 $518 #
straight-curve $-1 79.487289040803248 -42.241767945012334 0 0 0 1 I I #
coedge $-1 $371 $370 $700 $701 forward $360 $-1 #
edge $-1 $372 -9.64122586310625 $702 9.64122586310625 $531 $703 forward 7 unknown #
edge $-1 $704 -9.64122586310625 $373 9.64122586310625 $521 $705 forward 7 unknown #
point $-1 79.487289040803248 -42.241767945012334 11.335027114839836 #
point $-1 -79.487289040803248 -42.241767945012334 11.335027114839836 #
face $-1 $-1 $554 $53 $-1 $706 reversed single #
loop $-1 $-1 $550 $375 #
plane-surface $-1 0 0 18.711451791066668 0 0 1 1 0 0 forward_v I I I I #
coedge $-1 $707 $708 $545 $709 forward $376 $-1 #
coedge $-1 $378 $385 $707 $710 forward $231 $-1 #
edge $-1 $711 -9.64122586310625 $387 9.64122586310625 $379 $712 forward 7 unknown #
coedge $-1 $380 $379 $542 $709 reversed $145 $-1 #
coedge $-1 $713 $550 $380 $547 forward $540 $-1 #
edge $-1 $548 42.241767945012334 $714 61.524219671224827 $380 $715 forward 7 unknown #
vertex $-1 $547 $716 #
straight-curve $-1 79.487289040803248 42.241767945012334 0 0 0 -1 I I #
coedge $-1 $546 $717 $382 $551 forward $540 $-1 #
edge $-1 $555 -79.487289040803248 $548 79.487289040803248 $550 $718 forward 7 unknown #
coedge $-1 $719 $383 $717 $720 reversed $554 $-1 #
coedge $-1 $383 $719 $385 $557 reversed $554 $-1 #
loop $-1 $-1 $383 $539 #
vertex $-1 $384 $721 #
straight-curve $-1 -79.487289040803248 42.241767945012334 0 0 0 1 I I #
edge $-1 $386 -9.64122586310625 $722 9.64122586310625 $553 $723 forward 7 unknown #
point $-1 -79.487289040803248 42.241767945012327 11.335027114839836 #
point $-1 79.487289040803248 42.241767945012327 11.335027114839836 #
plane-surface $-1 0 0 18.711451791066668 0 0 1 1 0 0 forward_v I I I I #
coedge $-1 $571 $570 $563 $724 forward $390 $-1 #
coedge $-1 $563 $392 $394 $567 reversed $239 $-1 #
coedge $-1 $392 $562 $561 $724 reversed $239 $-1 #
coedge $-1 $400 $395 $392 $565 forward $401 $-1 #
edge $-1 $568 -39.785571650825801 $725 -29.777505547863868 $564 $726 forward 7 unknown #
coedge $-1 $394 $393 $571 $727 reversed $149 $-1 #
edge $-1 $728 -2.9320188914700558e-014 $568 20.64329165300903 $562 $729 forward 7 unknown #
vertex $-1 $396 $730 #
straight-curve $-1 -69.479222937841314 -8.0350402310566782 18.711451791066668 0 1 0 I I #
coedge $-1 $561 $397 $400 $575 reversed $390 $-1 #
coedge $-1 $397 $561 $566 $727 forward $390 $-1 #
vertex $-1 $398 $731 #
straight-curve $-1 -79.487289040803248 -20.50684558088863 38.864412287717165 0 0 1 I I #
straight-curve $-1 -79.487289040803233 -20.50684558088863 0.6564219337128776 -0.48480960649040278 0 -0.87461971476443456 I I #
edge $-1 $725 11.633315343338083 $402 20.50684558088863 $570 $732 forward 7 unknown #
point $-1 -79.487289040803248 -20.50684558088863 18.711451791066668 #
point $-1 -69.479222937841314 -20.50684558088863 18.711451791066668 #
edge $-1 $733 1 $733 0 $405 $-1 forward 7 unknown #
vertex $-1 $406 $734 #
ellipse-curve $-1 -72.439282501428949 -17.971551227302758 8.5509438991459952 -0.87461971476443456 0 0.48480960649040278 0.48480960649040278 0 0.87461971476443456 1 I I #
point $-1 -73.998446382831901 -17.971551227302758 10.558556577154217 #
edge $-1 $735 1 $735 0 $409 $-1 forward 7 unknown #
vertex $-1 $410 $736 #
ellipse-curve $-1 -72.439282501428949 -14.168609696923951 8.5509438991459952 -0.87461971476443456 0 0.48480960649040278 0.48480960649040278 0 0.87461971476443456 1 I I #
point $-1 -73.998446382831901 -14.168609696923951 10.558556577154217 #
loop $-1 $-1 $421 $413 #
plane-surface $-1 -79.487289040803248 0 0 1 0 0 0 0 -1 forward_v I I I I #
coedge $-1 $589 $416 $418 $593 reversed $261 $-1 #
coedge $-1 $416 $588 $737 $738 reversed $261 $-1 #
coedge $-1 $424 $419 $416 $591 forward $414 $-1 #
edge $-1 $594 -39.785571650825801 $739 -29.777505547863868 $590 $740 forward 7 unknown #
coedge $-1 $418 $417 $597 $741 reversed $163 $-1 #
edge $-1 $742 -2.9320188914700558e-014 $594 20.64329165300903 $588 $743 forward 7 unknown #
vertex $-1 $420 $744 #
straight-curve $-1 -69.479222937841314 3.4446178783432408 18.711451791066668 0 1 0 I I #
coedge $-1 $737 $421 $424 $601 reversed $586 $-1 #
coedge $-1 $421 $737 $592 $741 forward $586 $-1 #
vertex $-1 $422 $745 #
straight-curve $-1 -79.487289040803248 2.4524706379112082 38.864412287717165 0 0 1 I I #
straight-curve $-1 -79.487289040803233 2.4524706379112082 0.6564219337128776 -0.48480960649040278 0 -0.87461971476443456 I I #
edge $-1 $739 -11.326000875461755 $425 -2.4524706379112082 $596 $746 forward 7 unknown #
point $-1 -79.487289040803248 2.4524706379112082 18.711451791066668 #
point $-1 -69.479222937841314 2.4524706379112082 18.711451791066668 #
edge $-1 $747 1 $747 0 $428 $-1 forward 7 unknown #
vertex $-1 $429 $748 #
ellipse-curve $-1 -72.439282501428949 4.9877649914970803 8.5509438991459952 -0.87461971476443456 0 0.48480960649040278 0.48480960649040278 0 0.87461971476443456 1 I I #
point $-1 -73.998446382831901 4.9877649914970803 10.558556577154217 #
edge $-1 $749 1 $749 0 $432 $-1 forward 7 unknown #
vertex $-1 $433 $750 #
ellipse-curve $-1 -72.439282501428949 8.7907065218758831 8.5509438991459952 -0.87461971476443456 0 0.48480960649040278 0.48480960649040278 0 0.87461971476443456 1 I I #
point $-1 -73.998446382831901 8.7907065218758831 10.558556577154217 #
loop $-1 $-1 $444 $436 #
plane-surface $-1 79.487289040803248 0 0 -1 0 0 0 0 1 forward_v I I I I #
coedge $-1 $615 $439 $441 $619 reversed $283 $-1 #
coedge $-1 $439 $614 $751 $752 reversed $283 $-1 #
coedge $-1 $447 $442 $439 $617 forward $437 $-1 #
edge $-1 $620 3.7895271295454762 $753 14.456444467138724 $616 $754 forward 7 unknown #
coedge $-1 $441 $440 $623 $755 reversed $177 $-1 #
edge $-1 $756 -158.97457808160652 $620 -138.84525213926804 $614 $757 forward 7 unknown #
vertex $-1 $443 $758 #
straight-curve $-1 68.82037170321 -7.3821280169773651 18.711451791066665 0 -1 0 I I #
coedge $-1 $751 $444 $447 $627 reversed $612 $-1 #
coedge $-1 $444 $751 $618 $755 forward $612 $-1 #
vertex $-1 $445 $759 #
straight-curve $-1 79.487289040803248 -9.2383990411150965 110.3512970305469 0 0 1 I I #
straight-curve $-1 -4.7564003918622575 -9.2383990411150965 136.45890462842834 0.52991925155115449 0 -0.84804810408105047 I I #
edge $-1 $753 -20.290113026794366 $448 -9.2383990411150965 $622 $760 forward 7 unknown #
point $-1 79.487289040803248 -9.2383990411150965 18.711451791066668 #
point $-1 68.82037170321 -9.2383990411150965 18.711451791066665 #
edge $-1 $761 1 $761 0 $451 $-1 forward 7 unknown #
vertex $-1 $452 $762 #
ellipse-curve $-1 73.305782267925579 -18.079770229658507 9.6462141886006716 0.84804810408105047 0 0.52991925155115449 0.26495962577557725 0 -0.42402405204052523 1 I I #
point $-1 74.418789997782213 -18.079770229658507 9.7521093881113003 #
edge $-1 $763 1 $763 0 $455 $-1 forward 7 unknown #
vertex $-1 $456 $764 #
ellipse-curve $-1 73.305782267925579 -14.764256033954727 9.6462141886006716 0.84804810408105047 0 0.52991925155115449 0.26495962577557725 0 -0.42402405204052523 1 I I #
point $-1 74.418789997782213 -14.764256033954727 9.7521093881113003 #
edge $-1 $765 1 $765 0 $459 $-1 forward 7 unknown #
vertex $-1 $460 $766 #
ellipse-curve $-1 73.305782267925579 -11.448741838250946 9.6462141886006716 0.84804810408105047 0 0.52991925155115449 0.26495962577557725 0 -0.42402405204052523 1 I I #
point $-1 74.418789997782213 -11.448741838250946 9.7521093881113003 #
plane-surface $-1 0 0 18.711451791066668 0 0 1 1 0 0 forward_v I I I I #
coedge $-1 $653 $652 $645 $767 forward $464 $-1 #
coedge $-1 $645 $466 $468 $649 reversed $312 $-1 #
coedge $-1 $466 $644 $643 $767 reversed $312 $-1 #
coedge $-1 $474 $469 $466 $647 forward $475 $-1 #
edge $-1 $650 3.7895271295454762 $768 14.456444467138724 $646 $769 forward 7 unknown #
coedge $-1 $468 $467 $653 $770 reversed $196 $-1 #
edge $-1 $771 -158.97457808160652 $650 -138.84525213926804 $644 $772 forward 7 unknown #
vertex $-1 $470 $773 #
straight-curve $-1 68.82037170321 7.3821280169773615 18.711451791066665 0 -1 0 I I #
coedge $-1 $643 $471 $474 $657 reversed $464 $-1 #
coedge $-1 $471 $643 $648 $770 forward $464 $-1 #
vertex $-1 $472 $774 #
straight-curve $-1 79.487289040803248 20.290113026794359 110.3512970305469 0 0 1 I I #
straight-curve $-1 -4.7564003918622575 20.290113026794359 136.45890462842834 0.52991925155115449 0 -0.84804810408105047 I I #
edge $-1 $768 9.2383990411150894 $476 20.290113026794359 $652 $775 forward 7 unknown #
point $-1 79.487289040803248 20.290113026794359 18.711451791066668 #
point $-1 68.82037170321 20.290113026794359 18.711451791066665 #
edge $-1 $776 1 $776 0 $479 $-1 forward 7 unknown #
vertex $-1 $480 $777 #
ellipse-curve $-1 73.305782267925579 11.448741838250946 9.6462141886006716 0.84804810408105047 0 0.52991925155115449 0.26495962577557725 0 -0.42402405204052523 1 I I #
point $-1 74.418789997782213 11.448741838250946 9.7521093881113003 #
edge $-1 $778 1 $778 0 $483 $-1 forward 7 unknown #
vertex $-1 $484 $779 #
ellipse-curve $-1 73.305782267925579 14.76425603395473 9.6462141886006716 0.84804810408105047 0 0.52991925155115449 0.26495962577557725 0 -0.42402405204052523 1 I I #
point $-1 74.418789997782213 14.76425603395473 9.7521093881113003 #
edge $-1 $780 1 $780 0 $487 $-1 forward 7 unknown #
vertex $-1 $488 $781 #
ellipse-curve $-1 73.305782267925579 18.079770229658507 9.6462141886006716 0.84804810408105047 0 0.52991925155115449 0.26495962577557725 0 -0.42402405204052523 1 I I #
point $-1 74.418789997782213 18.079770229658507 9.7521093881113003 #
plane-surface $-1 79.487289040803248 0 0 -1 0 0 0 0 1 forward_v I I I I #
coedge $-1 $496 $494 $498 $677 reversed $341 $-1 #
edge $-1 $509 -18.711451791066668 $679 18.711451791066668 $508 $782 forward 7 unknown #
vertex $-1 $677 $783 #
straight-curve $-1 -79.487289040803248 -42.241767945012334 0 0 0 -1 I I #
edge $-1 $675 -42.241767945012334 $679 42.241767945012334 $673 $784 forward 7 unknown #
straight-curve $-1 0 -42.241767945012334 -18.711451791066668 -1 0 0 I I #
vertex $-1 $501 $785 #
straight-curve $-1 0 42.241767945012334 -18.711451791066668 1 0 0 I I #
point $-1 79.487289040803248 42.241767945012334 -18.711451791066668 #
point $-1 79.487289040803248 -42.241767945012334 -18.711451791066668 #
straight-curve $-1 -79.487289040803248 0 18.711451791066668 0 -1 0 I I #
point $-1 -79.487289040803248 42.241767945012334 18.711451791066668 #
point $-1 -79.487289040803248 -42.241767945012334 18.711451791066668 #
straight-curve $-1 79.487289040803248 -42.241767945012334 0 0 0 -1 I I #
straight-curve $-1 79.487289040803248 42.241767945012334 0 0 0 -1 I I #
plane-surface $-1 79.487289040803248 0 0 -1 0 0 0 0 1 forward_v I I I I #
coedge $-1 $700 $691 $690 $786 forward $519 $-1 #
coedge $-1 $522 $521 $689 $786 reversed $223 $-1 #
coedge $-1 $689 $787 $523 $692 reversed $519 $-1 #
edge $-1 $693 -79.487289040803248 $696 79.487289040803248 $691 $788 forward 7 unknown #
vertex $-1 $524 $789 #
straight-curve $-1 -79.487289040803248 0 18.711451791066668 0 -1 0 I I #
coedge $-1 $531 $525 $787 $790 forward $532 $-1 #
vertex $-1 $526 $791 #
straight-curve $-1 79.487289040803248 0 18.711451791066668 0 1 0 I I #
point $-1 79.487289040803248 -42.241767945012334 18.711451791066668 #
point $-1 -79.487289040803248 -42.241767945012334 18.711451791066668 #
coedge $-1 $787 $689 $534 $701 reversed $519 $-1 #
edge $-1 $702 -79.487289040803248 $704 79.487289040803248 $700 $792 forward 7 unknown #
vertex $-1 $790 $793 #
straight-curve $-1 79.487289040803248 -51.882993808118584 11.335027114839836 0 -1 0 I I #
vertex $-1 $536 $794 #
straight-curve $-1 -79.487289040803248 -51.882993808118584 11.335027114839836 0 1 0 I I #
plane-surface $-1 -79.487289040803248 0 0 1 0 0 0 0 -1 forward_v I I I I #
coedge $-1 $795 $542 $543 $710 reversed $376 $-1 #
coedge $-1 $542 $795 $713 $796 reversed $376 $-1 #
edge $-1 $714 -3.6882123381134164 $711 3.6882123381134164 $545 $797 forward 7 unknown #
edge $-1 $722 -79.487289040803248 $711 79.487289040803248 $707 $798 forward 7 unknown #
vertex $-1 $544 $799 #
straight-curve $-1 79.487289040803248 51.882993808118577 11.335027114839836 0 -1 0 I I #
coedge $-1 $717 $546 $708 $796 forward $540 $-1 #
vertex $-1 $547 $800 #
straight-curve $-1 79.487289040803248 0 18.711451791066668 0 1 0 I I #
point $-1 79.487289040803248 42.241767945012334 18.711451791066668 #
coedge $-1 $550 $713 $552 $720 forward $540 $-1 #
straight-curve $-1 0 42.241767945012334 18.711451791066668 1 0 0 I I #
coedge $-1 $553 $552 $795 $801 forward $554 $-1 #
edge $-1 $802 -61.524219671224827 $555 -42.241767945012334 $552 $803 forward 7 unknown #
point $-1 -79.487289040803248 42.241767945012334 18.711451791066668 #
vertex $-1 $710 $804 #
straight-curve $-1 -79.487289040803248 51.882993808118577 11.335027114839836 0 1 0 I I #
edge $-1 $725 20.152960496650497 $728 38.207990354004316 $561 $805 forward 7 unknown #
vertex $-1 $575 $806 #
straight-curve $-1 -109.26479458866712 -11.633315343338083 18.711451791066668 -1 0 0 I I #
edge $-1 $728 3.5982751122814047 $572 12.471805349831952 $571 $807 forward 7 unknown #
vertex $-1 $727 $808 #
straight-curve $-1 -79.487289040803233 -11.633315343338083 0.6564219337128776 0.48480960649040278 0 0.87461971476443456 I I #
point $-1 -69.479222937841314 -11.633315343338083 18.711451791066668 #
point $-1 -79.487289040803248 -20.50684558088863 0.65642193371285196 #
straight-curve $-1 -79.487289040803248 0 18.711451791066668 0 -1 0 I I #
vertex $-1 $578 $809 #
point $-1 -71.954472894938547 -17.971551227302758 9.4255636139104304 #
vertex $-1 $582 $810 #
point $-1 -71.954472894938547 -14.168609696923951 9.4255636139104304 #
coedge $-1 $597 $596 $589 $738 forward $586 $-1 #
edge $-1 $739 20.152960496650497 $742 38.207990354004316 $737 $811 forward 7 unknown #
vertex $-1 $601 $812 #
straight-curve $-1 -109.26479458866712 11.326000875461755 18.711451791066668 -1 0 0 I I #
edge $-1 $742 -7.8813829971185143 $598 0.99214724043203262 $597 $813 forward 7 unknown #
vertex $-1 $741 $814 #
straight-curve $-1 -79.487289040803233 11.326000875461755 0.6564219337128776 0.48480960649040278 0 0.87461971476443456 I I #
point $-1 -69.479222937841314 11.326000875461755 18.711451791066668 #
point $-1 -79.487289040803248 2.4524706379112082 0.65642193371285196 #
straight-curve $-1 -79.487289040803248 0 18.711451791066668 0 -1 0 I I #
vertex $-1 $604 $815 #
point $-1 -71.954472894938547 4.9877649914970803 9.4255636139104304 #
vertex $-1 $608 $816 #
point $-1 -71.954472894938547 8.7907065218758831 9.4255636139104304 #
coedge $-1 $623 $622 $615 $752 forward $612 $-1 #
edge $-1 $753 91.639845239480238 $756 108.71048194130989 $751 $817 forward 7 unknown #
vertex $-1 $627 $818 #
straight-curve $-1 65.030844573664524 -20.290113026794366 18.711451791066665 1 0 0 I I #
edge $-1 $756 -12.907985009817001 $624 -1.8562710241377314 $623 $819 forward 7 unknown #
vertex $-1 $755 $820 #
straight-curve $-1 -4.7564003918622575 -20.290113026794366 136.45890462842834 -0.52991925155115449 0 0.84804810408105047 I I #
point $-1 68.82037170321 -20.290113026794366 18.711451791066665 #
point $-1 79.487289040803248 -9.2383990411150965 1.6408150892370088 #
straight-curve $-1 79.487289040803248 0 18.711451791066668 0 1 0 I I #
vertex $-1 $630 $821 #
point $-1 73.570741893701154 -18.079770229658507 9.2221901365601457 #
vertex $-1 $634 $822 #
point $-1 73.570741893701154 -14.764256033954727 9.2221901365601457 #
vertex $-1 $638 $823 #
point $-1 73.570741893701154 -11.448741838250946 9.2221901365601457 #
edge $-1 $768 91.639845239480238 $771 108.71048194130989 $643 $824 forward 7 unknown #
vertex $-1 $657 $825 #
straight-curve $-1 65.030844573664524 9.2383990411150894 18.711451791066665 1 0 0 I I #
edge $-1 $771 1.8562710241377278 $654 12.907985009816997 $653 $826 forward 7 unknown #
vertex $-1 $770 $827 #
straight-curve $-1 -4.7564003918622575 9.2383990411150894 136.45890462842834 -0.52991925155115449 0 0.84804810408105047 I I #
point $-1 68.82037170321 9.2383990411150894 18.711451791066665 #
point $-1 79.487289040803248 20.290113026794359 1.6408150892370088 #
straight-curve $-1 79.487289040803248 0 18.711451791066668 0 1 0 I I #
vertex $-1 $660 $828 #
point $-1 73.570741893701154 11.448741838250946 9.2221901365601457 #
vertex $-1 $664 $829 #
point $-1 73.570741893701154 14.76425603395473 9.2221901365601457 #
vertex $-1 $668 $830 #
point $-1 73.570741893701154 18.079770229658507 9.2221901365601457 #
straight-curve $-1 -79.487289040803248 42.241767945012334 0 0 0 -1 I I #
point $-1 -79.487289040803248 -42.241767945012334 -18.711451791066668 #
straight-curve $-1 -79.487289040803248 0 -18.711451791066668 0 1 0 I I #
point $-1 -79.487289040803248 42.241767945012334 -18.711451791066668 #
edge $-1 $693 -3.6882123381134164 $704 3.6882123381134164 $690 $831 forward 7 unknown #
coedge $-1 $691 $700 $695 $790 reversed $519 $-1 #
straight-curve $-1 0 -61.524219671224834 18.711451791066668 1 0 0 I I #
point $-1 -79.487289040803248 -61.524219671224834 18.711451791066668 #
edge $-1 $696 -3.6882123381134164 $702 3.6882123381134164 $695 $832 forward 7 unknown #
point $-1 79.487289040803248 -61.524219671224834 18.711451791066668 #
straight-curve $-1 0 -61.524219671224834 11.335027114839836 -1 0 0 I I #
point $-1 79.487289040803248 -61.524219671224834 11.335027114839836 #
point $-1 -79.487289040803248 -61.524219671224834 11.335027114839836 #
coedge $-1 $708 $707 $719 $801 reversed $376 $-1 #
edge $-1 $714 -79.487289040803248 $802 79.487289040803248 $708 $833 forward 7 unknown #
straight-curve $-1 79.487289040803248 61.524219671224827 15.023239452953252 0 0 -1 I I #
straight-curve $-1 0 61.524219671224827 11.335027114839836 1 0 0 I I #
point $-1 79.487289040803248 61.524219671224827 11.335027114839836 #
point $-1 79.487289040803248 61.524219671224827 18.711451791066668 #
edge $-1 $802 -3.6882123381134164 $722 3.6882123381134164 $795 $834 forward 7 unknown #
vertex $-1 $796 $835 #
straight-curve $-1 -79.487289040803248 0 18.711451791066668 0 -1 0 I I #
point $-1 -79.487289040803248 61.524219671224827 11.335027114839836 #
straight-curve $-1 -79.487289040803248 -11.633315343338083 38.864412287717165 0 0 -1 I I #
point $-1 -79.487289040803248 -11.633315343338083 18.711451791066668 #
straight-curve $-1 -79.487289040803248 -8.0350402310566782 0.65642193371284763 0 -1 0 I I #
point $-1 -79.487289040803248 -11.633315343338083 0.65642193371285196 #
point $-1 -71.564662786664513 -17.971551227302758 8.0661342926555939 #
point $-1 -71.564662786664513 -14.168609696923951 8.0661342926555939 #
straight-curve $-1 -79.487289040803248 11.326000875461755 38.864412287717165 0 0 -1 I I #
point $-1 -79.487289040803248 11.326000875461755 18.711451791066668 #
straight-curve $-1 -79.487289040803248 3.4446178783432408 0.65642193371284763 0 -1 0 I I #
point $-1 -79.487289040803248 11.326000875461755 0.65642193371285196 #
point $-1 -71.564662786664513 4.9877649914970803 8.0661342926555939 #
point $-1 -71.564662786664513 8.7907065218758831 8.0661342926555939 #
straight-curve $-1 79.487289040803248 -20.290113026794366 110.3512970305469 0 0 -1 I I #
point $-1 79.487289040803248 -20.290113026794366 18.711451791066668 #
straight-curve $-1 79.487289040803233 -7.3821280169773651 1.6408150892369946 0 1 0 I I #
point $-1 79.487289040803248 -20.290113026794366 1.6408150892370088 #
point $-1 72.881758215885057 -18.079770229658507 9.3812545628250934 #
point $-1 72.881758215885057 -14.764256033954727 9.3812545628250934 #
point $-1 72.881758215885057 -11.448741838250946 9.3812545628250934 #
straight-curve $-1 79.487289040803248 9.2383990411150894 110.3512970305469 0 0 -1 I I #
point $-1 79.487289040803248 9.2383990411150894 18.711451791066668 #
straight-curve $-1 79.487289040803233 7.3821280169773615 1.6408150892369946 0 1 0 I I #
point $-1 79.487289040803248 9.2383990411150894 1.6408150892370088 #
point $-1 72.881758215885057 11.448741838250946 9.3812545628250934 #
point $-1 72.881758215885057 14.76425603395473 9.3812545628250934 #
point $-1 72.881758215885057 18.079770229658507 9.3812545628250934 #
straight-curve $-1 -79.487289040803248 -61.524219671224834 15.023239452953252 0 0 -1 I I #
straight-curve $-1 79.487289040803248 -61.524219671224834 15.023239452953252 0 0 -1 I I #
straight-curve $-1 0 61.524219671224827 18.711451791066668 -1 0 0 I I #
straight-curve $-1 -79.487289040803248 61.524219671224827 15.023239452953252 0 0 -1 I I #
point $-1 -79.487289040803248 61.524219671224827 18.711451791066668 #
End-of-ACIS-data 