500 0 12 0           
7 Unknown 11 ACIS 5.0 NT 24 Thu Mar 25 17:22:26 1999 
-1 9.9999999999999995e-007 1e-010 
body $-1 $12 $-1 $13 #
body $-1 $14 $-1 $15 #
body $-1 $16 $-1 $17 #
body $-1 $18 $-1 $19 #
body $-1 $20 $-1 $21 #
body $-1 $22 $-1 $23 #
body $-1 $24 $-1 $25 #
body $-1 $26 $-1 $27 #
body $-1 $28 $-1 $29 #
body $-1 $30 $-1 $31 #
body $-1 $32 $-1 $33 #
body $-1 $34 $-1 $35 #
lump $-1 $-1 $36 $0 #
transform $-1 1 0 0 0 1 0 0 0 1 78.737754448072764 43.577900042458701 14.590557071926334 1 rotate no_reflect no_shear #
lump $-1 $-1 $37 $1 #
transform $-1 1 0 0 0 1 0 0 0 1 78.737754448072764 43.577900042458701 14.590557071926334 1 rotate no_reflect no_shear #
lump $-1 $-1 $38 $2 #
transform $-1 1 0 0 0 1 0 0 0 1 78.737754448072764 43.577900042458701 14.590557071926334 1 rotate no_reflect no_shear #
lump $-1 $-1 $39 $3 #
transform $-1 1 0 0 0 1 0 0 0 1 78.737754448072764 43.577900042458701 14.590557071926334 1 rotate no_reflect no_shear #
lump $-1 $-1 $40 $4 #
transform $-1 1 0 0 0 1 0 0 0 1 78.737754448072764 43.577900042458701 14.590557071926334 1 rotate no_reflect no_shear #
lump $-1 $-1 $41 $5 #
transform $-1 1 0 0 0 1 0 0 0 1 78.737754448072764 43.577900042458701 14.590557071926334 1 rotate no_reflect no_shear #
lump $-1 $-1 $42 $6 #
transform $-1 1 0 0 0 1 0 0 0 1 78.737754448072764 43.577900042458701 14.590557071926334 1 rotate no_reflect no_shear #
lump $-1 $-1 $43 $7 #
transform $-1 1 0 0 0 1 0 0 0 1 78.737754448072764 43.577900042458701 14.590557071926334 1 rotate no_reflect no_shear #
lump $-1 $-1 $44 $8 #
transform $-1 1 0 0 0 1 0 0 0 1 78.737754448072764 43.577900042458701 14.590557071926334 1 rotate no_reflect no_shear #
lump $-1 $-1 $45 $9 #
transform $-1 1 0 0 0 1 0 0 0 1 78.737754448072764 43.577900042458701 14.590557071926334 1 rotate no_reflect no_shear #
lump $-1 $-1 $46 $10 #
transform $-1 1 0 0 0 1 0 0 0 1 78.737754448072764 43.577900042458701 14.590557071926334 1 rotate no_reflect no_shear #
lump $-1 $-1 $47 $11 #
transform $-1 1 0 0 0 1 0 0 0 1 78.737754448072764 43.577900042458701 14.590557071926334 1 rotate no_reflect no_shear #
shell $-1 $-1 $-1 $48 $-1 $12 #
shell $-1 $-1 $-1 $49 $-1 $14 #
shell $-1 $-1 $-1 $50 $-1 $16 #
shell $-1 $-1 $-1 $51 $-1 $18 #
shell $-1 $-1 $-1 $52 $-1 $20 #
shell $-1 $-1 $-1 $53 $-1 $22 #
shell $-1 $-1 $-1 $54 $-1 $24 #
shell $-1 $-1 $-1 $55 $-1 $26 #
shell $-1 $-1 $-1 $56 $-1 $28 #
shell $-1 $-1 $-1 $57 $-1 $30 #
shell $-1 $-1 $-1 $58 $-1 $32 #
shell $-1 $-1 $-1 $59 $-1 $34 #
face $-1 $60 $61 $36 $-1 $62 forward single #
face $-1 $63 $64 $37 $-1 $65 forward single #
face $-1 $66 $67 $38 $-1 $68 reversed single #
face $-1 $69 $70 $39 $-1 $71 forward single #
face $-1 $72 $73 $40 $-1 $74 forward single #
face $-1 $75 $76 $41 $-1 $77 reversed single #
face $-1 $78 $79 $42 $-1 $80 forward single #
face $-1 $81 $82 $43 $-1 $83 forward single #
face $-1 $84 $85 $44 $-1 $86 reversed single #
face $-1 $87 $88 $45 $-1 $89 forward single #
face $-1 $90 $91 $46 $-1 $92 forward single #
face $-1 $93 $94 $47 $-1 $95 forward single #
face $-1 $96 $97 $36 $-1 $98 reversed single #
loop $-1 $-1 $99 $48 #
plane-surface $-1 0 0 14.590557071926334 0 0 1 1 0 0 forward_v I I I I #
face $-1 $100 $101 $37 $-1 $102 reversed single #
loop $-1 $-1 $103 $49 #
plane-surface $-1 0 -38.426957389552705 -7.438881998461909 0 0 1 1 0 0 forward_v I I I I #
face $-1 $104 $105 $38 $-1 $106 reversed single #
loop $-1 $-1 $107 $50 #
plane-surface $-1 125.04052292926212 5.1509426529060036 225.30596487304032 0 -1 0 -0.83867057594974714 0 -0.54463902268945019 forward_v I I I I #
face $-1 $108 $109 $39 $-1 $110 forward single #
loop $-1 $111 $112 $51 #
cone-surface $-1 75.880996160991216 -7.9349199298343507 10.676145001275209 -0.83867057594974714 0 -0.54463902268945019 0.54463902268945019 0 -0.83867057594974714 1 I I 0 1 1 forward I I I I #
face $-1 $113 $114 $40 $-1 $115 forward single #
loop $-1 $116 $117 $52 #
cone-surface $-1 75.880996160991216 -0.083402380190136682 10.676145001275209 -0.83867057594974714 0 -0.54463902268945019 0.54463902268945019 0 -0.83867057594974714 1 I I 0 1 1 forward I I I I #
face $-1 $118 $119 $41 $-1 $120 reversed single #
loop $-1 $-1 $121 $53 #
plane-surface $-1 125.04052292926212 23.471150268742498 225.30596487304032 0 -1 0 -0.83867057594974714 0 -0.54463902268945019 forward_v I I I I #
face $-1 $122 $123 $42 $-1 $124 forward single #
loop $-1 $125 $126 $54 #
cone-surface $-1 75.880996160991216 10.385287686002144 10.676145001275209 -0.83867057594974714 0 -0.54463902268945019 0.54463902268945019 0 -0.83867057594974714 1 I I 0 1 1 forward I I I I #
face $-1 $127 $128 $43 $-1 $129 forward single #
loop $-1 $130 $131 $55 #
cone-surface $-1 75.880996160991216 18.236805235646358 10.676145001275209 -0.83867057594974714 0 -0.54463902268945019 0.54463902268945019 0 -0.83867057594974714 1 I I 0 1 1 forward I I I I #
face $-1 $132 $133 $44 $-1 $134 reversed single #
loop $-1 $-1 $135 $56 #
plane-surface $-1 -204.50328911037198 -4.7347322544314352 103.02108907557181 0 1 0 -0.79863551827123203 0 0.60181501223851219 forward_v I I I I #
face $-1 $136 $137 $45 $-1 $138 forward single #
loop $-1 $139 $140 $57 #
cone-surface $-1 -75.026459463148328 -1.7080948231971718 10.42383203011274 0.79863551827123203 0 -0.60181501223851219 0.60181501223851219 0 0.79863551827123203 1 I I 0 1 1 forward I I I I #
face $-1 $141 $142 $46 $-1 $143 forward single #
loop $-1 $144 $145 $58 #
cone-surface $-1 -75.026459463148328 2.8318613236542305 10.42383203011274 0.79863551827123203 0 -0.60181501223851219 0.60181501223851219 0 0.79863551827123203 1 I I 0 1 1 forward I I I I #
face $-1 $146 $147 $47 $-1 $148 forward single #
loop $-1 $149 $150 $59 #
cone-surface $-1 -75.026459463148328 7.3718174705056256 10.42383203011274 0.79863551827123203 0 -0.60181501223851219 0.60181501223851219 0 0.79863551827123203 1 I I 0 1 1 forward I I I I #
face $-1 $151 $152 $36 $-1 $153 reversed single #
loop $-1 $-1 $154 $60 #
plane-surface $-1 0 0 -14.590557071926334 0 0 1 1 0 0 forward_v I I I I #
coedge $-1 $155 $156 $157 $158 forward $61 $-1 #
face $-1 $159 $160 $37 $-1 $161 reversed single #
loop $-1 $-1 $162 $63 #
plane-surface $-1 0 -33.276014736646708 -11.014719535194121 0 -1 0 0 0 -1 forward_v I I I I #
coedge $-1 $163 $164 $165 $166 reversed $64 $-1 #
face $-1 $167 $168 $38 $-1 $169 reversed single #
loop $-1 $-1 $170 $66 #
plane-surface $-1 -7.0295528146477864 -4.0091611550122437 139.5386576103198 0.83867057594974714 0 0.54463902268945019 0.54463902268945019 0 -0.83867057594974714 forward_v I I I I #
coedge $-1 $171 $172 $173 $174 reversed $67 $-1 #
face $-1 $-1 $175 $39 $-1 $176 forward single #
loop $-1 $177 $178 $69 #
cone-surface $-1 74.917434900042934 -7.9349199298343507 10.050401022037612 -0.83867057594974714 0 -0.54463902268945019 0.2723195113447251 0 -0.41933528797487357 1 I I -0.70710678118654746 0.70710678118654746 0.5 forward I I I I #
loop $-1 $-1 $179 $51 #
coedge $-1 $112 $112 $180 $181 reversed $70 $-1 #
face $-1 $-1 $182 $40 $-1 $183 forward single #
loop $-1 $184 $185 $72 #
cone-surface $-1 74.917434900042934 -0.083402380190136682 10.050401022037612 -0.83867057594974714 0 -0.54463902268945019 0.2723195113447251 0 -0.41933528797487357 1 I I -0.70710678118654746 0.70710678118654746 0.5 forward I I I I #
loop $-1 $-1 $186 $52 #
coedge $-1 $117 $117 $187 $188 reversed $73 $-1 #
face $-1 $189 $190 $41 $-1 $191 forward single #
loop $-1 $-1 $192 $75 #
plane-surface $-1 -7.0295528146477864 -4.0091611550122437 139.5386576103198 0.83867057594974714 0 0.54463902268945019 0.54463902268945019 0 -0.83867057594974714 forward_v I I I I #
coedge $-1 $193 $194 $195 $196 reversed $76 $-1 #
face $-1 $-1 $197 $42 $-1 $198 forward single #
loop $-1 $199 $200 $78 #
cone-surface $-1 74.917434900042934 10.385287686002144 10.050401022037612 -0.83867057594974714 0 -0.54463902268945019 0.2723195113447251 0 -0.41933528797487357 1 I I -0.70710678118654746 0.70710678118654746 0.5 forward I I I I #
loop $-1 $-1 $201 $54 #
coedge $-1 $126 $126 $202 $203 reversed $79 $-1 #
face $-1 $-1 $204 $43 $-1 $205 forward single #
loop $-1 $206 $207 $81 #
cone-surface $-1 74.917434900042934 18.236805235646358 10.050401022037612 -0.83867057594974714 0 -0.54463902268945019 0.2723195113447251 0 -0.41933528797487357 1 I I -0.70710678118654746 0.70710678118654746 0.5 forward I I I I #
loop $-1 $-1 $208 $55 #
coedge $-1 $131 $131 $209 $210 reversed $82 $-1 #
face $-1 $211 $212 $44 $-1 $213 reversed single #
loop $-1 $-1 $214 $84 #
plane-surface $-1 -78.737754448072792 2.8318613236542305 8.2499637619720545 -0.79863551827123203 0 0.60181501223851219 0.60181501223851219 0 0.79863551827123203 forward_v I I I I #
coedge $-1 $215 $216 $217 $218 reversed $85 $-1 #
face $-1 $-1 $219 $45 $-1 $220 forward single #
loop $-1 $221 $222 $87 #
cone-surface $-1 -73.304836535550237 -1.7080948231971718 9.1264961371570372 0.79863551827123203 0 -0.60181501223851219 0.3009075061192561 0 0.39931775913561601 1 I I -0.70710678118654746 0.70710678118654746 0.5 forward I I I I #
loop $-1 $-1 $223 $57 #
coedge $-1 $140 $140 $224 $225 reversed $88 $-1 #
face $-1 $-1 $226 $46 $-1 $227 forward single #
loop $-1 $228 $229 $90 #
cone-surface $-1 -73.304836535550237 2.8318613236542305 9.1264961371570372 0.79863551827123203 0 -0.60181501223851219 0.3009075061192561 0 0.39931775913561601 1 I I -0.70710678118654746 0.70710678118654746 0.5 forward I I I I #
loop $-1 $-1 $230 $58 #
coedge $-1 $145 $145 $231 $232 reversed $91 $-1 #
face $-1 $-1 $233 $47 $-1 $234 forward single #
loop $-1 $235 $236 $93 #
cone-surface $-1 -73.304836535550237 7.3718174705056256 9.1264961371570372 0.79863551827123203 0 -0.60181501223851219 0.3009075061192561 0 0.39931775913561601 1 I I -0.70710678118654746 0.70710678118654746 0.5 forward I I I I #
loop $-1 $-1 $237 $59 #
coedge $-1 $150 $150 $238 $239 reversed $94 $-1 #
face $-1 $240 $241 $36 $-1 $242 reversed single #
loop $-1 $-1 $243 $96 #
plane-surface $-1 0 -43.577900042458701 0 0 1 0 0 0 1 forward_v I I I I #
coedge $-1 $244 $245 $246 $247 forward $97 $-1 #
coedge $-1 $248 $99 $249 $250 forward $61 $-1 #
coedge $-1 $99 $248 $251 $252 forward $61 $-1 #
coedge $-1 $253 $254 $99 $158 reversed $255 $-1 #
edge $-1 $256 -43.577900042458701 $257 43.577900042458701 $157 $258 forward 7 unknown #
face $-1 $259 $260 $37 $-1 $261 reversed single #
loop $-1 $-1 $262 $100 #
plane-surface $-1 0 0 -14.590557071926334 0 0 1 1 0 0 forward_v I I I I #
coedge $-1 $263 $264 $265 $266 reversed $101 $-1 #
coedge $-1 $267 $103 $264 $268 forward $64 $-1 #
coedge $-1 $103 $267 $269 $270 reversed $64 $-1 #
coedge $-1 $271 $265 $103 $166 forward $260 $-1 #
edge $-1 $272 14.062536041870356 $273 24.364421347682349 $165 $274 forward 7 unknown #
face $-1 $275 $276 $38 $-1 $277 reversed single #
loop $-1 $-1 $278 $104 #
plane-surface $-1 125.04052292926212 -13.169264962930491 225.30596487304032 0 1 0 0.83867057594974714 0 0.54463902268945019 forward_v I I I I #
coedge $-1 $279 $280 $281 $282 reversed $105 $-1 #
coedge $-1 $172 $107 $283 $284 reversed $67 $-1 #
coedge $-1 $107 $171 $279 $285 reversed $67 $-1 #
coedge $-1 $281 $286 $107 $174 forward $287 $-1 #
edge $-1 $288 -16.217492983441701 $289 -11.592428355225366 $173 $290 forward 7 unknown #
loop $-1 $-1 $180 $108 #
plane-surface $-1 -7.0295528146477864 -4.0091611550122437 139.5386576103198 0.83867057594974714 0 0.54463902268945019 0.54463902268945019 0 -0.83867057594974714 forward_v I I I I #
loop $-1 $-1 $291 $69 #
coedge $-1 $178 $178 $179 $292 reversed $109 $-1 #
coedge $-1 $179 $179 $178 $292 forward $111 $-1 #
coedge $-1 $180 $180 $112 $181 forward $175 $-1 #
edge $-1 $293 0 $293 6.2831853071796004 $180 $294 forward 7 unknown #
loop $-1 $-1 $187 $113 #
plane-surface $-1 -7.0295528146477864 -4.0091611550122437 139.5386576103198 0.83867057594974714 0 0.54463902268945019 0.54463902268945019 0 -0.83867057594974714 forward_v I I I I #
loop $-1 $-1 $295 $72 #
coedge $-1 $185 $185 $186 $296 reversed $114 $-1 #
coedge $-1 $186 $186 $185 $296 forward $116 $-1 #
coedge $-1 $187 $187 $117 $188 forward $182 $-1 #
edge $-1 $297 0 $297 6.2831853071796004 $187 $298 forward 7 unknown #
face $-1 $299 $300 $41 $-1 $301 forward single #
loop $-1 $-1 $302 $118 #
plane-surface $-1 0 0 14.590557071926334 0 0 1 1 0 0 forward_v I I I I #
coedge $-1 $303 $304 $305 $306 reversed $119 $-1 #
coedge $-1 $194 $121 $307 $308 reversed $76 $-1 #
coedge $-1 $121 $193 $302 $309 reversed $76 $-1 #
coedge $-1 $310 $311 $121 $196 forward $312 $-1 #
edge $-1 $313 -105.1844005701103 $314 -98.062425364593821 $195 $315 forward 7 unknown #
loop $-1 $-1 $202 $122 #
plane-surface $-1 -7.0295528146477864 -4.0091611550122437 139.5386576103198 0.83867057594974714 0 0.54463902268945019 0.54463902268945019 0 -0.83867057594974714 forward_v I I I I #
loop $-1 $-1 $316 $78 #
coedge $-1 $200 $200 $201 $317 reversed $123 $-1 #
coedge $-1 $201 $201 $200 $317 forward $125 $-1 #
coedge $-1 $202 $202 $126 $203 forward $197 $-1 #
edge $-1 $318 0 $318 6.2831853071796004 $202 $319 forward 7 unknown #
loop $-1 $-1 $209 $127 #
plane-surface $-1 -7.0295528146477864 -4.0091611550122437 139.5386576103198 0.83867057594974714 0 0.54463902268945019 0.54463902268945019 0 -0.83867057594974714 forward_v I I I I #
loop $-1 $-1 $320 $81 #
coedge $-1 $207 $207 $208 $321 reversed $128 $-1 #
coedge $-1 $208 $208 $207 $321 forward $130 $-1 #
coedge $-1 $209 $209 $131 $210 forward $204 $-1 #
edge $-1 $322 0 $322 6.2831853071796004 $209 $323 forward 7 unknown #
face $-1 $324 $325 $44 $-1 $326 reversed single #
loop $-1 $-1 $327 $132 #
plane-surface $-1 -204.50328911037198 10.398454901739896 103.02108907557181 0 -1 0 0.79863551827123203 0 -0.60181501223851219 forward_v I I I I #
coedge $-1 $328 $329 $330 $331 reversed $133 $-1 #
coedge $-1 $216 $135 $332 $333 reversed $85 $-1 #
coedge $-1 $135 $215 $328 $334 reversed $85 $-1 #
coedge $-1 $330 $335 $135 $218 forward $336 $-1 #
edge $-1 $337 23.513890107113227 $338 28.291869740037086 $217 $339 forward 7 unknown #
loop $-1 $-1 $224 $136 #
plane-surface $-1 -78.737754448072792 2.8318613236542305 8.2499637619720545 -0.79863551827123203 0 0.60181501223851219 0.60181501223851219 0 0.79863551827123203 forward_v I I I I #
loop $-1 $-1 $340 $87 #
coedge $-1 $222 $222 $223 $341 reversed $137 $-1 #
coedge $-1 $223 $223 $222 $341 forward $139 $-1 #
coedge $-1 $224 $224 $140 $225 forward $219 $-1 #
edge $-1 $342 0 $342 6.2831853071796004 $224 $343 forward 7 unknown #
loop $-1 $-1 $231 $141 #
plane-surface $-1 -78.737754448072792 2.8318613236542305 8.2499637619720545 -0.79863551827123203 0 0.60181501223851219 0.60181501223851219 0 0.79863551827123203 forward_v I I I I #
loop $-1 $-1 $344 $90 #
coedge $-1 $229 $229 $230 $345 reversed $142 $-1 #
coedge $-1 $230 $230 $229 $345 forward $144 $-1 #
coedge $-1 $231 $231 $145 $232 forward $226 $-1 #
edge $-1 $346 0 $346 6.2831853071796004 $231 $347 forward 7 unknown #
loop $-1 $-1 $238 $146 #
plane-surface $-1 -78.737754448072792 2.8318613236542305 8.2499637619720545 -0.79863551827123203 0 0.60181501223851219 0.60181501223851219 0 0.79863551827123203 forward_v I I I I #
loop $-1 $-1 $348 $93 #
coedge $-1 $236 $236 $237 $349 reversed $147 $-1 #
coedge $-1 $237 $237 $236 $349 forward $149 $-1 #
coedge $-1 $238 $238 $150 $239 forward $233 $-1 #
edge $-1 $350 0 $350 6.2831853071796004 $238 $351 forward 7 unknown #
face $-1 $352 $353 $36 $-1 $354 reversed single #
loop $-1 $-1 $355 $151 #
plane-surface $-1 -78.737754448072764 0 0 1 0 0 0 0 -1 forward_v I I I I #
coedge $-1 $356 $251 $357 $358 forward $152 $-1 #
coedge $-1 $359 $154 $356 $360 forward $97 $-1 #
coedge $-1 $154 $359 $361 $362 forward $97 $-1 #
coedge $-1 $254 $253 $154 $247 reversed $255 $-1 #
edge $-1 $363 -43.577900042458701 $364 43.577900042458701 $246 $365 forward 7 unknown #
coedge $-1 $156 $155 $366 $367 forward $61 $-1 #
coedge $-1 $368 $369 $155 $250 reversed $353 $-1 #
edge $-1 $257 -78.737754448072764 $370 78.737754448072764 $249 $371 forward 7 unknown #
coedge $-1 $243 $372 $156 $252 reversed $152 $-1 #
edge $-1 $373 -78.737754448072764 $256 78.737754448072764 $251 $374 forward 7 unknown #
coedge $-1 $246 $157 $372 $375 forward $255 $-1 #
coedge $-1 $157 $246 $368 $376 reversed $255 $-1 #
loop $-1 $-1 $253 $352 #
vertex $-1 $158 $377 #
vertex $-1 $158 $378 #
straight-curve $-1 78.737754448072764 0 14.590557071926334 0 1 0 I I #
face $-1 $379 $380 $37 $-1 $381 reversed single #
loop $-1 $-1 $265 $159 #
plane-surface $-1 78.737754448072764 0 0 -1 0 0 0 0 1 forward_v I I I I #
coedge $-1 $382 $383 $263 $384 forward $160 $-1 #
coedge $-1 $385 $162 $262 $384 reversed $101 $-1 #
coedge $-1 $162 $385 $163 $268 reversed $101 $-1 #
coedge $-1 $165 $386 $162 $266 forward $260 $-1 #
edge $-1 $387 -9.0831973043292731 $272 -1.9315222308648483 $265 $388 forward 7 unknown #
coedge $-1 $164 $163 $389 $390 reversed $64 $-1 #
edge $-1 $272 -78.737754448072764 $391 78.737754448072764 $264 $392 forward 7 unknown #
coedge $-1 $393 $394 $164 $270 forward $380 $-1 #
edge $-1 $273 -78.737754448072764 $395 78.737754448072764 $269 $396 forward 7 unknown #
coedge $-1 $386 $165 $394 $397 forward $260 $-1 #
vertex $-1 $166 $398 #
vertex $-1 $397 $399 #
straight-curve $-1 78.737754448072764 -19.213478694776352 -7.438881998461909 0 -1 0 I I #
face $-1 $-1 $287 $38 $-1 $400 forward single #
loop $-1 $-1 $401 $167 #
plane-surface $-1 78.737754448072764 0 0 -1 0 0 0 0 1 forward_v I I I I #
coedge $-1 $402 $403 $404 $405 reversed $168 $-1 #
coedge $-1 $406 $170 $172 $285 forward $105 $-1 #
coedge $-1 $170 $406 $402 $407 forward $105 $-1 #
coedge $-1 $404 $173 $170 $282 forward $287 $-1 #
edge $-1 $289 -7.1555232304121255 $408 11.164684385424369 $281 $409 forward 7 unknown #
coedge $-1 $410 $411 $171 $284 forward $276 $-1 #
edge $-1 $412 -105.1844005701103 $288 -98.062425364593821 $283 $413 forward 7 unknown #
edge $-1 $289 148.98352716964797 $412 157.47550889614558 $172 $414 forward 7 unknown #
coedge $-1 $173 $404 $410 $415 forward $287 $-1 #
loop $-1 $-1 $404 $275 #
vertex $-1 $284 $416 #
vertex $-1 $174 $417 #
straight-curve $-1 62.520261464631062 5.1509426529060036 14.590557071926327 -1 0 0 I I #
coedge $-1 $291 $291 $-1 $418 reversed $177 $-1 #
edge $-1 $419 0 $419 6.2831853071796004 $178 $420 forward 7 unknown #
vertex $-1 $181 $421 #
ellipse-curve $-1 76.42522213396461 -7.9349199298343507 11.029569469168072 0.83867057594974714 0 0.54463902268945019 0.54463902268945019 0 -0.83867057594974714 1 I I #
coedge $-1 $295 $295 $-1 $422 reversed $184 $-1 #
edge $-1 $423 0 $423 6.2831853071796004 $185 $424 forward 7 unknown #
vertex $-1 $188 $425 #
ellipse-curve $-1 76.42522213396461 -0.083402380190136682 11.029569469168072 0.83867057594974714 0 0.54463902268945019 0.54463902268945019 0 -0.83867057594974714 1 I I #
face $-1 $-1 $312 $41 $-1 $426 reversed single #
loop $-1 $-1 $427 $189 #
plane-surface $-1 125.04052292926212 5.1509426529060036 225.30596487304032 0 -1 0 -0.83867057594974714 0 -0.54463902268945019 forward_v I I I I #
coedge $-1 $428 $429 $194 $309 forward $190 $-1 #
coedge $-1 $307 $192 $428 $430 reversed $119 $-1 #
coedge $-1 $192 $307 $311 $431 reversed $119 $-1 #
coedge $-1 $432 $427 $192 $306 forward $300 $-1 #
edge $-1 $433 148.98352716964797 $434 157.47550889614558 $305 $435 forward 7 unknown #
coedge $-1 $304 $303 $193 $308 forward $119 $-1 #
edge $-1 $436 148.98352716964797 $313 157.47550889614558 $193 $437 forward 7 unknown #
edge $-1 $314 -16.217492983441701 $436 -11.592428355225366 $302 $438 forward 7 unknown #
coedge $-1 $439 $195 $429 $440 reversed $312 $-1 #
coedge $-1 $195 $439 $304 $431 forward $312 $-1 #
loop $-1 $-1 $195 $299 #
vertex $-1 $196 $441 #
vertex $-1 $196 $442 #
straight-curve $-1 78.737754448072764 23.471150268742498 112.65298243652016 0 0 1 I I #
coedge $-1 $316 $316 $-1 $443 reversed $199 $-1 #
edge $-1 $444 0 $444 6.2831853071796004 $200 $445 forward 7 unknown #
vertex $-1 $203 $446 #
ellipse-curve $-1 76.42522213396461 10.385287686002144 11.029569469168072 0.83867057594974714 0 0.54463902268945019 0.54463902268945019 0 -0.83867057594974714 1 I I #
coedge $-1 $320 $320 $-1 $447 reversed $206 $-1 #
edge $-1 $448 0 $448 6.2831853071796004 $207 $449 forward 7 unknown #
vertex $-1 $210 $450 #
ellipse-curve $-1 76.42522213396461 18.236805235646358 11.029569469168072 0.83867057594974714 0 0.54463902268945019 0.54463902268945019 0 -0.83867057594974714 1 I I #
face $-1 $-1 $336 $44 $-1 $451 forward single #
loop $-1 $-1 $452 $211 #
plane-surface $-1 -78.737754448072764 0 0 1 0 0 0 0 -1 forward_v I I I I #
coedge $-1 $453 $454 $455 $456 reversed $212 $-1 #
coedge $-1 $457 $214 $216 $334 forward $133 $-1 #
coedge $-1 $214 $457 $453 $458 forward $133 $-1 #
coedge $-1 $455 $217 $214 $331 forward $336 $-1 #
edge $-1 $338 -6.1506629162585504 $459 8.9825242399127809 $330 $460 forward 7 unknown #
coedge $-1 $461 $462 $215 $333 forward $325 $-1 #
edge $-1 $463 -43.260580775813814 $337 -36.91998746585957 $332 $464 forward 7 unknown #
edge $-1 $338 -7.9392828955058938 $463 -4.6896506375148425e-014 $216 $465 forward 7 unknown #
coedge $-1 $217 $455 $461 $466 forward $336 $-1 #
loop $-1 $-1 $455 $324 #
vertex $-1 $333 $467 #
vertex $-1 $218 $468 #
straight-curve $-1 -102.25164455518599 -4.7347322544314352 14.590557071926334 1 0 0 I I #
coedge $-1 $340 $340 $-1 $469 reversed $221 $-1 #
edge $-1 $470 0 $470 6.2831853071796004 $222 $471 forward 7 unknown #
vertex $-1 $225 $472 #
ellipse-curve $-1 -76.348764631610834 -1.7080948231971718 11.42026041694921 -0.79863551827123203 0 0.60181501223851219 0.60181501223851219 0 0.79863551827123203 1 I I #
coedge $-1 $344 $344 $-1 $473 reversed $228 $-1 #
edge $-1 $474 0 $474 6.2831853071796004 $229 $475 forward 7 unknown #
vertex $-1 $232 $476 #
ellipse-curve $-1 -76.348764631610834 2.8318613236542305 11.42026041694921 -0.79863551827123203 0 0.60181501223851219 0.60181501223851219 0 0.79863551827123203 1 I I #
coedge $-1 $348 $348 $-1 $477 reversed $235 $-1 #
edge $-1 $478 0 $478 6.2831853071796004 $236 $479 forward 7 unknown #
vertex $-1 $239 $480 #
ellipse-curve $-1 -76.348764631610834 7.3718174705056256 11.42026041694921 -0.79863551827123203 0 0.60181501223851219 0.60181501223851219 0 0.79863551827123203 1 I I #
face $-1 $-1 $255 $36 $-1 $481 reversed single #
loop $-1 $-1 $368 $240 #
plane-surface $-1 0 43.577900042458701 0 0 -1 0 0 0 -1 forward_v I I I I #
coedge $-1 $482 $366 $369 $483 forward $241 $-1 #
coedge $-1 $372 $243 $244 $360 reversed $152 $-1 #
coedge $-1 $366 $482 $243 $358 reversed $241 $-1 #
edge $-1 $373 -14.590557071926334 $484 14.590557071926334 $357 $485 forward 7 unknown #
coedge $-1 $245 $244 $482 $486 forward $97 $-1 #
edge $-1 $364 -78.737754448072764 $484 78.737754448072764 $356 $487 forward 7 unknown #
coedge $-1 $369 $368 $245 $362 reversed $353 $-1 #
edge $-1 $488 -78.737754448072764 $363 78.737754448072764 $361 $489 forward 7 unknown #
vertex $-1 $247 $490 #
vertex $-1 $375 $491 #
straight-curve $-1 78.737754448072764 0 -14.590557071926334 0 -1 0 I I #
coedge $-1 $355 $357 $248 $367 reversed $241 $-1 #
edge $-1 $370 -43.577900042458701 $373 43.577900042458701 $366 $492 forward 7 unknown #
coedge $-1 $361 $249 $254 $376 forward $353 $-1 #
coedge $-1 $249 $361 $355 $483 reversed $353 $-1 #
vertex $-1 $250 $493 #
straight-curve $-1 0 43.577900042458701 14.590557071926334 -1 0 0 I I #
coedge $-1 $251 $356 $253 $375 reversed $152 $-1 #
vertex $-1 $367 $494 #
straight-curve $-1 0 -43.577900042458701 14.590557071926334 1 0 0 I I #
edge $-1 $256 -14.590557071926334 $364 14.590557071926334 $253 $495 forward 7 unknown #
edge $-1 $257 -14.590557071926334 $363 14.590557071926334 $254 $496 forward 7 unknown #
point $-1 78.737754448072764 -43.577900042458701 14.590557071926334 #
point $-1 78.737754448072764 43.577900042458701 14.590557071926334 #
face $-1 $-1 $497 $37 $-1 $498 reversed single #
loop $-1 $-1 $269 $259 #
plane-surface $-1 0 -43.577900042458701 0 0 1 0 0 0 1 forward_v I I I I #
coedge $-1 $499 $262 $386 $500 forward $160 $-1 #
coedge $-1 $262 $499 $501 $502 forward $160 $-1 #
edge $-1 $503 -78.737754448072764 $387 78.737754448072764 $262 $504 forward 7 unknown #
coedge $-1 $264 $263 $505 $506 reversed $101 $-1 #
coedge $-1 $265 $271 $382 $500 reversed $260 $-1 #
vertex $-1 $500 $507 #
straight-curve $-1 78.737754448072764 -33.276014736646708 -5.5073597675970607 0 0 1 I I #
coedge $-1 $505 $508 $267 $390 forward $497 $-1 #
edge $-1 $395 -24.364421347682349 $391 -14.062536041870356 $389 $509 forward 7 unknown #
vertex $-1 $390 $510 #
straight-curve $-1 0 -33.276014736646708 -7.438881998461909 -1 0 0 I I #
coedge $-1 $511 $269 $508 $512 forward $380 $-1 #
coedge $-1 $269 $511 $271 $397 reversed $380 $-1 #
vertex $-1 $512 $513 #
straight-curve $-1 0 -43.577900042458701 -7.438881998461909 -1 0 0 I I #
edge $-1 $273 7.438881998461909 $514 14.590557071926334 $271 $515 forward 7 unknown #
point $-1 78.737754448072764 -33.276014736646708 -7.438881998461909 #
point $-1 78.737754448072764 -43.577900042458701 -7.438881998461909 #
plane-surface $-1 0 0 14.590557071926334 0 0 1 1 0 0 forward_v I I I I #
coedge $-1 $411 $410 $403 $516 forward $276 $-1 #
coedge $-1 $403 $278 $280 $407 reversed $168 $-1 #
coedge $-1 $278 $402 $401 $516 reversed $168 $-1 #
coedge $-1 $286 $281 $278 $405 forward $287 $-1 #
edge $-1 $408 11.592428355225366 $517 16.217492983441701 $404 $518 forward 7 unknown #
coedge $-1 $280 $279 $411 $519 reversed $105 $-1 #
edge $-1 $520 -157.47550889614558 $408 -148.98352716964797 $402 $521 forward 7 unknown #
vertex $-1 $282 $522 #
straight-curve $-1 74.112689819856428 -2.0045805775061218 14.590557071926327 0 -1 0 I I #
coedge $-1 $401 $283 $286 $415 reversed $276 $-1 #
coedge $-1 $283 $401 $406 $519 forward $276 $-1 #
vertex $-1 $284 $523 #
straight-curve $-1 78.737754448072764 5.1509426529060036 112.65298243652016 0 0 1 I I #
straight-curve $-1 -7.0295528146477864 5.1509426529060036 139.5386576103198 0.54463902268945019 0 -0.83867057594974714 I I #
edge $-1 $517 -13.169264962930491 $288 5.1509426529060036 $410 $524 forward 7 unknown #
point $-1 78.737754448072764 5.1509426529060036 14.590557071926334 #
point $-1 74.112689819856428 5.1509426529060036 14.590557071926341 #
edge $-1 $525 1 $525 0 $291 $-1 forward 7 unknown #
vertex $-1 $292 $526 #
ellipse-curve $-1 75.336770188017809 -7.9349199298343507 10.322720533382336 0.83867057594974714 0 0.54463902268945019 0.54463902268945019 0 -0.83867057594974714 1 I I #
point $-1 76.969861156654062 -7.9349199298343507 10.190898893218336 #
edge $-1 $527 1 $527 0 $295 $-1 forward 7 unknown #
vertex $-1 $296 $528 #
ellipse-curve $-1 75.336770188017809 -0.083402380190136682 10.322720533382336 0.83867057594974714 0 0.54463902268945019 0.54463902268945019 0 -0.83867057594974714 1 I I #
point $-1 76.969861156654062 -0.083402380190136682 10.190898893218336 #
plane-surface $-1 78.737754448072764 0 0 -1 0 0 0 0 1 forward_v I I I I #
coedge $-1 $305 $432 $529 $530 reversed $300 $-1 #
coedge $-1 $529 $302 $303 $430 forward $190 $-1 #
coedge $-1 $302 $529 $310 $440 forward $190 $-1 #
edge $-1 $436 -25.47573084624862 $433 -7.1555232304121255 $428 $531 forward 7 unknown #
edge $-1 $434 7.1555232304121255 $313 25.47573084624862 $311 $532 forward 7 unknown #
coedge $-1 $427 $305 $439 $533 reversed $300 $-1 #
vertex $-1 $430 $534 #
vertex $-1 $431 $535 #
straight-curve $-1 -7.0295528146477864 5.1509426529060036 139.5386576103198 0.54463902268945019 0 -0.83867057594974714 I I #
vertex $-1 $309 $536 #
straight-curve $-1 -7.0295528146477864 23.471150268742498 139.5386576103198 0.54463902268945019 0 -0.83867057594974714 I I #
straight-curve $-1 62.520261464631062 23.471150268742498 14.590557071926327 -1 0 0 I I #
coedge $-1 $311 $310 $432 $533 forward $312 $-1 #
edge $-1 $537 5.1509426529060036 $314 23.471150268742498 $310 $538 forward 7 unknown #
point $-1 78.737754448072764 23.471150268742498 7.4685818664098633 #
point $-1 78.737754448072764 23.471150268742498 14.590557071926334 #
edge $-1 $539 1 $539 0 $316 $-1 forward 7 unknown #
vertex $-1 $317 $540 #
ellipse-curve $-1 75.336770188017809 10.385287686002144 10.322720533382336 0.83867057594974714 0 0.54463902268945019 0.54463902268945019 0 -0.83867057594974714 1 I I #
point $-1 76.969861156654062 10.385287686002144 10.190898893218336 #
edge $-1 $541 1 $541 0 $320 $-1 forward 7 unknown #
vertex $-1 $321 $542 #
ellipse-curve $-1 75.336770188017809 18.236805235646358 10.322720533382336 0.83867057594974714 0 0.54463902268945019 0.54463902268945019 0 -0.83867057594974714 1 I I #
point $-1 76.969861156654062 18.236805235646358 10.190898893218336 #
plane-surface $-1 0 0 14.590557071926334 0 0 1 1 0 0 forward_v I I I I #
coedge $-1 $462 $461 $454 $543 forward $325 $-1 #
coedge $-1 $454 $327 $329 $458 reversed $212 $-1 #
coedge $-1 $327 $453 $452 $543 reversed $212 $-1 #
coedge $-1 $335 $330 $327 $456 forward $336 $-1 #
edge $-1 $459 -28.291869740037086 $544 -23.513890107113227 $455 $545 forward 7 unknown #
coedge $-1 $329 $328 $462 $546 reversed $133 $-1 #
edge $-1 $547 4.6896506375148425e-014 $459 7.9392828955058938 $453 $548 forward 7 unknown #
vertex $-1 $331 $549 #
straight-curve $-1 -73.959774815148904 1.4159306618271152 14.590557071926337 0 1 0 I I #
coedge $-1 $452 $332 $335 $466 reversed $325 $-1 #
coedge $-1 $332 $452 $457 $546 forward $325 $-1 #
vertex $-1 $333 $550 #
straight-curve $-1 -78.737754448072764 -4.7347322544314352 51.510544537785904 0 0 1 I I #
straight-curve $-1 -78.737754448072792 -4.7347322544314352 8.2499637619720545 -0.60181501223851219 0 -0.79863551827123203 I I #
edge $-1 $544 -10.398454901739896 $337 4.7347322544314352 $461 $551 forward 7 unknown #
point $-1 -78.737754448072764 -4.7347322544314352 14.590557071926334 #
point $-1 -73.959774815148904 -4.7347322544314352 14.590557071926334 #
edge $-1 $552 1 $552 0 $340 $-1 forward 7 unknown #
vertex $-1 $341 $553 #
ellipse-curve $-1 -73.70415429468585 -1.7080948231971718 9.4274036432762927 -0.79863551827123203 0 0.60181501223851219 0.60181501223851219 0 0.79863551827123203 1 I I #
point $-1 -75.746949619372302 -1.7080948231971718 12.21889593522042 #
edge $-1 $554 1 $554 0 $344 $-1 forward 7 unknown #
vertex $-1 $345 $555 #
ellipse-curve $-1 -73.70415429468585 2.8318613236542305 9.4274036432762927 -0.79863551827123203 0 0.60181501223851219 0.60181501223851219 0 0.79863551827123203 1 I I #
point $-1 -75.746949619372302 2.8318613236542305 12.21889593522042 #
edge $-1 $556 1 $556 0 $348 $-1 forward 7 unknown #
vertex $-1 $349 $557 #
ellipse-curve $-1 -73.70415429468585 7.3718174705056256 9.4274036432762927 -0.79863551827123203 0 0.60181501223851219 0.60181501223851219 0 0.79863551827123203 1 I I #
point $-1 -75.746949619372302 7.3718174705056256 12.21889593522042 #
plane-surface $-1 78.737754448072764 0 0 -1 0 0 0 0 1 forward_v I I I I #
coedge $-1 $357 $355 $359 $486 reversed $241 $-1 #
edge $-1 $370 -14.590557071926334 $488 14.590557071926334 $369 $558 forward 7 unknown #
vertex $-1 $486 $559 #
straight-curve $-1 -78.737754448072764 -43.577900042458701 0 0 0 -1 I I #
edge $-1 $484 -43.577900042458701 $488 43.577900042458701 $482 $560 forward 7 unknown #
straight-curve $-1 0 -43.577900042458701 -14.590557071926334 -1 0 0 I I #
vertex $-1 $362 $561 #
straight-curve $-1 0 43.577900042458701 -14.590557071926334 1 0 0 I I #
point $-1 78.737754448072764 43.577900042458701 -14.590557071926334 #
point $-1 78.737754448072764 -43.577900042458701 -14.590557071926334 #
straight-curve $-1 -78.737754448072764 0 14.590557071926334 0 -1 0 I I #
point $-1 -78.737754448072764 43.577900042458701 14.590557071926334 #
point $-1 -78.737754448072764 -43.577900042458701 14.590557071926334 #
straight-curve $-1 78.737754448072764 -43.577900042458701 0 0 0 -1 I I #
straight-curve $-1 78.737754448072764 43.577900042458701 0 0 0 -1 I I #
loop $-1 $-1 $505 $379 #
plane-surface $-1 -78.737754448072764 0 0 1 0 0 0 0 -1 forward_v I I I I #
coedge $-1 $383 $382 $511 $562 forward $160 $-1 #
edge $-1 $387 33.276014736646708 $514 43.577900042458701 $386 $563 forward 7 unknown #
coedge $-1 $508 $505 $383 $502 reversed $497 $-1 #
edge $-1 $564 -43.577900042458701 $503 -33.276014736646708 $501 $565 forward 7 unknown #
vertex $-1 $506 $566 #
straight-curve $-1 0 -33.276014736646708 -14.590557071926334 1 0 0 I I #
coedge $-1 $501 $389 $385 $506 forward $497 $-1 #
edge $-1 $391 1.9315222308648483 $503 9.0831973043292731 $505 $567 forward 7 unknown #
point $-1 78.737754448072764 -33.276014736646708 -14.590557071926334 #
coedge $-1 $389 $501 $393 $512 reversed $497 $-1 #
straight-curve $-1 -78.737754448072764 -19.213478694776352 -7.438881998461909 0 1 0 I I #
point $-1 -78.737754448072764 -33.276014736646708 -7.438881998461909 #
coedge $-1 $394 $393 $499 $562 reversed $380 $-1 #
edge $-1 $395 7.438881998461909 $564 14.590557071926334 $508 $568 forward 7 unknown #
point $-1 -78.737754448072764 -43.577900042458701 -7.438881998461909 #
vertex $-1 $397 $569 #
straight-curve $-1 78.737754448072764 -43.577900042458701 0 0 0 -1 I I #
edge $-1 $517 98.062425364593821 $520 105.1844005701103 $401 $570 forward 7 unknown #
vertex $-1 $415 $571 #
straight-curve $-1 62.520261464631062 -13.169264962930491 14.590557071926327 1 0 0 I I #
edge $-1 $520 -11.164684385424369 $412 7.1555232304121255 $411 $572 forward 7 unknown #
vertex $-1 $519 $573 #
straight-curve $-1 -7.0295528146477864 -13.169264962930491 139.5386576103198 -0.54463902268945019 0 0.83867057594974714 I I #
point $-1 74.112689819856428 -13.169264962930491 14.590557071926341 #
point $-1 78.737754448072764 5.1509426529060036 7.4685818664098633 #
straight-curve $-1 78.737754448072764 0 14.590557071926334 0 1 0 I I #
vertex $-1 $418 $574 #
point $-1 75.881409210707261 -7.9349199298343507 9.4840499574325889 #
vertex $-1 $422 $575 #
point $-1 75.881409210707261 -0.083402380190136682 9.4840499574325889 #
coedge $-1 $429 $428 $427 $530 forward $190 $-1 #
edge $-1 $433 11.592428355225366 $537 16.217492983441701 $529 $576 forward 7 unknown #
straight-curve $-1 74.112689819856428 -2.0045805775061218 14.590557071926327 0 -1 0 I I #
straight-curve $-1 78.737754448072764 -2.0045805775061218 7.4685818664098704 0 1 0 I I #
edge $-1 $537 98.062425364593821 $434 105.1844005701103 $439 $577 forward 7 unknown #
point $-1 74.112689819856428 5.1509426529060036 14.590557071926341 #
point $-1 78.737754448072764 5.1509426529060036 7.4685818664098633 #
point $-1 74.112689819856428 23.471150268742498 14.590557071926341 #
vertex $-1 $440 $578 #
straight-curve $-1 78.737754448072764 0 14.590557071926334 0 1 0 I I #
vertex $-1 $443 $579 #
point $-1 75.881409210707261 10.385287686002144 9.4840499574325889 #
vertex $-1 $447 $580 #
point $-1 75.881409210707261 18.236805235646358 9.4840499574325889 #
edge $-1 $544 36.91998746585957 $547 43.260580775813814 $452 $581 forward 7 unknown #
vertex $-1 $466 $582 #
straight-curve $-1 -102.25164455518599 10.398454901739896 14.590557071926334 -1 0 0 I I #
edge $-1 $547 -8.9825242399127809 $463 6.1506629162585504 $462 $583 forward 7 unknown #
vertex $-1 $546 $584 #
straight-curve $-1 -78.737754448072792 10.398454901739896 8.2499637619720545 0.60181501223851219 0 0.79863551827123203 I I #
point $-1 -73.959774815148904 10.398454901739896 14.590557071926334 #
point $-1 -78.737754448072764 -4.7347322544314352 8.2499637619720918 #
straight-curve $-1 -78.737754448072764 0 14.590557071926334 0 -1 0 I I #
vertex $-1 $469 $585 #
point $-1 -73.102339282447346 -1.7080948231971718 10.226039161547526 #
vertex $-1 $473 $586 #
point $-1 -73.102339282447346 2.8318613236542305 10.226039161547526 #
vertex $-1 $477 $587 #
point $-1 -73.102339282447346 7.3718174705056256 10.226039161547526 #
straight-curve $-1 -78.737754448072764 43.577900042458701 0 0 0 -1 I I #
point $-1 -78.737754448072764 -43.577900042458701 -14.590557071926334 #
straight-curve $-1 -78.737754448072764 0 -14.590557071926334 0 1 0 I I #
point $-1 -78.737754448072764 43.577900042458701 -14.590557071926334 #
edge $-1 $514 -78.737754448072764 $564 78.737754448072764 $511 $588 forward 7 unknown #
straight-curve $-1 78.737754448072764 0 -14.590557071926334 0 -1 0 I I #
vertex $-1 $502 $589 #
straight-curve $-1 -78.737754448072764 0 -14.590557071926334 0 1 0 I I #
point $-1 -78.737754448072764 -33.276014736646708 -14.590557071926334 #
straight-curve $-1 -78.737754448072764 -33.276014736646708 -5.5073597675970607 0 0 -1 I I #
straight-curve $-1 -78.737754448072764 -43.577900042458701 0 0 0 -1 I I #
point $-1 78.737754448072764 -43.577900042458701 -14.590557071926334 #
straight-curve $-1 78.737754448072764 -13.169264962930491 112.65298243652016 0 0 -1 I I #
point $-1 78.737754448072764 -13.169264962930491 14.590557071926334 #
straight-curve $-1 78.737754448072764 -2.0045805775061218 7.4685818664098704 0 1 0 I I #
point $-1 78.737754448072764 -13.169264962930491 7.4685818664098633 #
point $-1 74.49809961206806 -7.9349199298343507 9.7780815106928873 #
point $-1 74.49809961206806 -0.083402380190136682 9.7780815106928873 #
straight-curve $-1 62.520261464631062 5.1509426529060036 14.590557071926327 1 0 0 I I #
straight-curve $-1 78.737754448072764 5.1509426529060036 112.65298243652016 0 0 -1 I I #
point $-1 78.737754448072764 5.1509426529060036 14.590557071926334 #
point $-1 74.49809961206806 10.385287686002144 9.7780815106928873 #
point $-1 74.49809961206806 18.236805235646358 9.7780815106928873 #
straight-curve $-1 -78.737754448072764 10.398454901739896 51.510544537785904 0 0 -1 I I #
point $-1 -78.737754448072764 10.398454901739896 14.590557071926334 #
straight-curve $-1 -78.737754448072764 1.4159306618271152 8.2499637619720936 0 -1 0 I I #
point $-1 -78.737754448072764 10.398454901739896 8.2499637619720918 #
point $-1 -72.905518776414624 -1.7080948231971718 8.8255886310377818 #
point $-1 -72.905518776414624 2.8318613236542305 8.8255886310377818 #
point $-1 -72.905518776414624 7.3718174705056256 8.8255886310377818 #
straight-curve $-1 0 -43.577900042458701 -14.590557071926334 -1 0 0 I I #
point $-1 -78.737754448072764 -43.577900042458701 -14.590557071926334 #
End-of-ACIS-data 