500 0 8 0           
7 Unknown 11 ACIS 5.0 NT 24 Fri Mar 26 01:33:49 1999 
-1 9.9999999999999995e-007 1e-010 
body $-1 $8 $-1 $9 #
body $-1 $10 $-1 $11 #
body $-1 $12 $-1 $13 #
body $-1 $14 $-1 $15 #
body $-1 $16 $-1 $17 #
body $-1 $18 $-1 $19 #
body $-1 $20 $-1 $21 #
body $-1 $22 $-1 $23 #
lump $-1 $-1 $24 $0 #
transform $-1 1 0 0 0 1 0 0 0 1 74.461500900296031 51.292695930998619 16.280856144900181 1 rotate no_reflect no_shear #
lump $-1 $-1 $25 $1 #
transform $-1 1 0 0 0 1 0 0 0 1 74.461500900296031 51.292695930998619 16.280856144900181 1 rotate no_reflect no_shear #
lump $-1 $-1 $26 $2 #
transform $-1 1 0 0 0 1 0 0 0 1 74.461500900296031 51.292695930998619 16.280856144900181 1 rotate no_reflect no_shear #
lump $-1 $-1 $27 $3 #
transform $-1 1 0 0 0 1 0 0 0 1 74.461500900296031 51.292695930998619 16.280856144900181 1 rotate no_reflect no_shear #
lump $-1 $-1 $28 $4 #
transform $-1 1 0 0 0 1 0 0 0 1 74.461500900296031 51.292695930998619 16.280856144900181 1 rotate no_reflect no_shear #
lump $-1 $-1 $29 $5 #
transform $-1 1 0 0 0 1 0 0 0 1 74.461500900296031 51.292695930998619 16.280856144900181 1 rotate no_reflect no_shear #
lump $-1 $-1 $30 $6 #
transform $-1 1 0 0 0 1 0 0 0 1 74.461500900296031 51.292695930998619 16.280856144900181 1 rotate no_reflect no_shear #
lump $-1 $-1 $31 $7 #
transform $-1 1 0 0 0 1 0 0 0 1 74.461500900296031 51.292695930998619 16.280856144900181 1 rotate no_reflect no_shear #
shell $-1 $-1 $-1 $32 $-1 $8 #
shell $-1 $-1 $-1 $33 $-1 $10 #
shell $-1 $-1 $-1 $34 $-1 $12 #
shell $-1 $-1 $-1 $35 $-1 $14 #
shell $-1 $-1 $-1 $36 $-1 $16 #
shell $-1 $-1 $-1 $37 $-1 $18 #
shell $-1 $-1 $-1 $38 $-1 $20 #
shell $-1 $-1 $-1 $39 $-1 $22 #
face $-1 $40 $41 $24 $-1 $42 forward single #
face $-1 $43 $44 $25 $-1 $45 reversed single #
face $-1 $46 $47 $26 $-1 $48 reversed single #
face $-1 $49 $50 $27 $-1 $51 forward single #
face $-1 $52 $53 $28 $-1 $54 forward single #
face $-1 $55 $56 $29 $-1 $57 reversed single #
face $-1 $58 $59 $30 $-1 $60 forward single #
face $-1 $61 $62 $31 $-1 $63 forward single #
face $-1 $64 $65 $24 $-1 $66 reversed single #
loop $-1 $-1 $67 $32 #
plane-surface $-1 0 0 16.280856144900181 0 0 1 1 0 0 forward_v I I I I #
face $-1 $68 $69 $25 $-1 $70 reversed single #
loop $-1 $-1 $71 $33 #
plane-surface $-1 0 -41.665744752809495 10.746845720672477 0 0 1 1 0 0 forward_v I I I I #
face $-1 $72 $73 $26 $-1 $74 reversed single #
loop $-1 $-1 $75 $34 #
plane-surface $-1 118.24956243591008 -1.1292190074776443 206.39450136986233 0 -1 0 -0.83867057594974714 0 -0.54463902268945019 forward_v I I I I #
face $-1 $76 $77 $27 $-1 $78 forward single #
loop $-1 $79 $80 $35 #
cone-surface $-1 67.422199707477816 -11.279850309189044 7.1142675562164186 -0.83867057594974714 0 -0.54463902268945019 0.81695853403417529 0 -1.2580058639246208 1 I I 0 1 1.5 forward I I I I #
face $-1 $81 $82 $28 $-1 $83 forward single #
loop $-1 $84 $85 $36 #
cone-surface $-1 67.422199707477816 -5.1894715281622013 7.1142675562164186 -0.83867057594974714 0 -0.54463902268945019 0.81695853403417529 0 -1.2580058639246208 1 I I 0 1 1.5 forward I I I I #
face $-1 $86 $87 $29 $-1 $88 reversed single #
loop $-1 $-1 $89 $37 #
plane-surface $-1 -199.35884059256378 -15.340102829873601 81.497161677594548 0 1 0 -0.83867057594974714 0 0.54463902268945019 forward_v I I I I #
face $-1 $90 $91 $30 $-1 $92 forward single #
loop $-1 $93 $94 $38 #
cone-surface $-1 -67.422199707477802 -11.279850309189044 7.1142675562164186 0.83867057594974714 0 -0.54463902268945019 0.81695853403417529 0 1.2580058639246208 1 I I 0 1 1.5 forward I I I I #
face $-1 $95 $96 $31 $-1 $97 forward single #
loop $-1 $98 $99 $39 #
cone-surface $-1 -67.422199707477802 -5.1894715281622013 7.1142675562164186 0.83867057594974714 0 -0.54463902268945019 0.81695853403417529 0 1.2580058639246208 1 I I 0 1 1.5 forward I I I I #
face $-1 $100 $101 $24 $-1 $102 reversed single #
loop $-1 $-1 $103 $40 #
plane-surface $-1 0 0 -16.280856144900181 0 0 1 1 0 0 forward_v I I I I #
coedge $-1 $104 $105 $106 $107 forward $41 $-1 #
face $-1 $108 $109 $25 $-1 $110 reversed single #
loop $-1 $-1 $111 $43 #
plane-surface $-1 0 -32.038793574620371 13.51385093278633 0 -1 0 0 0 -1 forward_v I I I I #
coedge $-1 $112 $113 $114 $115 reversed $44 $-1 #
face $-1 $116 $117 $26 $-1 $118 reversed single #
loop $-1 $-1 $119 $46 #
plane-surface $-1 -6.6477772563576991 -8.2346609186756226 125.28522321320864 0.83867057594974714 0 0.54463902268945019 0.54463902268945019 0 -0.83867057594974714 forward_v I I I I #
coedge $-1 $120 $121 $122 $123 reversed $47 $-1 #
face $-1 $-1 $124 $27 $-1 $125 forward single #
loop $-1 $126 $127 $49 #
cone-surface $-1 64.914403966898689 -11.279850309189044 5.4856860124952256 -0.83867057594974714 0 -0.54463902268945019 0.40847926701708764 0 -0.62900293196231039 1 I I -0.70710678118654757 0.70710678118654757 0.75 forward I I I I #
loop $-1 $-1 $128 $35 #
coedge $-1 $80 $80 $129 $130 reversed $50 $-1 #
face $-1 $-1 $131 $28 $-1 $132 forward single #
loop $-1 $133 $134 $52 #
cone-surface $-1 64.914403966898689 -5.1894715281622013 5.4856860124952256 -0.83867057594974714 0 -0.54463902268945019 0.40847926701708764 0 -0.62900293196231039 1 I I -0.70710678118654757 0.70710678118654757 0.75 forward I I I I #
loop $-1 $-1 $135 $36 #
coedge $-1 $85 $85 $136 $137 reversed $53 $-1 #
face $-1 $138 $139 $29 $-1 $140 reversed single #
loop $-1 $-1 $141 $55 #
plane-surface $-1 -74.461500900296002 -8.2346609186756226 0.38788352094086065 -0.83867057594974714 0 0.54463902268945019 0.54463902268945019 0 0.83867057594974714 forward_v I I I I #
coedge $-1 $142 $143 $144 $145 reversed $56 $-1 #
face $-1 $-1 $146 $30 $-1 $147 forward single #
loop $-1 $148 $149 $58 #
cone-surface $-1 -64.914403966898675 -11.279850309189044 5.4856860124952256 0.83867057594974714 0 -0.54463902268945019 0.40847926701708764 0 0.62900293196231039 1 I I -0.70710678118654757 0.70710678118654757 0.75 forward I I I I #
loop $-1 $-1 $150 $38 #
coedge $-1 $94 $94 $151 $152 reversed $59 $-1 #
face $-1 $-1 $153 $31 $-1 $154 forward single #
loop $-1 $155 $156 $61 #
cone-surface $-1 -64.914403966898675 -5.1894715281622013 5.4856860124952256 0.83867057594974714 0 -0.54463902268945019 0.40847926701708764 0 0.62900293196231039 1 I I -0.70710678118654757 0.70710678118654757 0.75 forward I I I I #
loop $-1 $-1 $157 $39 #
coedge $-1 $99 $99 $158 $159 reversed $62 $-1 #
face $-1 $160 $161 $24 $-1 $162 reversed single #
loop $-1 $-1 $163 $64 #
plane-surface $-1 0 -51.292695930998619 0 0 1 0 0 0 1 forward_v I I I I #
coedge $-1 $164 $165 $166 $167 forward $65 $-1 #
coedge $-1 $168 $67 $169 $170 forward $41 $-1 #
coedge $-1 $67 $168 $171 $172 forward $41 $-1 #
coedge $-1 $173 $174 $67 $107 reversed $175 $-1 #
edge $-1 $176 -51.292695930998619 $177 51.292695930998619 $106 $178 forward 7 unknown #
face $-1 $179 $180 $25 $-1 $181 reversed single #
loop $-1 $-1 $182 $68 #
plane-surface $-1 -74.461500900296031 0 0 1 0 0 0 0 -1 forward_v I I I I #
coedge $-1 $183 $184 $185 $186 reversed $69 $-1 #
coedge $-1 $187 $71 $188 $189 reversed $44 $-1 #
coedge $-1 $71 $187 $183 $190 forward $44 $-1 #
coedge $-1 $185 $191 $71 $115 forward $192 $-1 #
edge $-1 $193 -30.459823554593871 $194 -11.205921198215623 $114 $195 forward 7 unknown #
face $-1 $196 $197 $26 $-1 $198 reversed single #
loop $-1 $-1 $199 $72 #
plane-surface $-1 118.24956243591008 -15.340102829873601 206.39450136986233 0 1 0 0.83867057594974714 0 0.54463902268945019 forward_v I I I I #
coedge $-1 $200 $201 $202 $203 reversed $73 $-1 #
coedge $-1 $121 $75 $204 $205 reversed $47 $-1 #
coedge $-1 $75 $120 $200 $206 reversed $47 $-1 #
coedge $-1 $202 $207 $75 $123 forward $208 $-1 #
edge $-1 $209 -15.336719682340991 $210 -5.0157029139381351 $122 $211 forward 7 unknown #
loop $-1 $-1 $129 $76 #
plane-surface $-1 -6.6477772563576991 -8.2346609186756226 125.28522321320864 0.83867057594974714 0 0.54463902268945019 0.54463902268945019 0 -0.83867057594974714 forward_v I I I I #
loop $-1 $-1 $212 $49 #
coedge $-1 $127 $127 $128 $213 reversed $77 $-1 #
coedge $-1 $128 $128 $127 $213 forward $79 $-1 #
coedge $-1 $129 $129 $80 $130 forward $124 $-1 #
edge $-1 $214 0 $214 6.2831853071796004 $129 $215 forward 7 unknown #
loop $-1 $-1 $136 $81 #
plane-surface $-1 -6.6477772563576991 -8.2346609186756226 125.28522321320864 0.83867057594974714 0 0.54463902268945019 0.54463902268945019 0 -0.83867057594974714 forward_v I I I I #
loop $-1 $-1 $216 $52 #
coedge $-1 $134 $134 $135 $217 reversed $82 $-1 #
coedge $-1 $135 $135 $134 $217 forward $84 $-1 #
coedge $-1 $136 $136 $85 $137 forward $131 $-1 #
edge $-1 $218 0 $218 6.2831853071796004 $136 $219 forward 7 unknown #
face $-1 $220 $221 $29 $-1 $222 forward single #
loop $-1 $-1 $223 $86 #
plane-surface $-1 -199.35884059256378 -1.1292190074776443 81.497161677594548 0 -1 0 0.83867057594974714 0 -0.54463902268945019 forward_v I I I I #
coedge $-1 $224 $225 $226 $227 reversed $87 $-1 #
coedge $-1 $143 $89 $228 $229 reversed $56 $-1 #
coedge $-1 $89 $142 $224 $230 reversed $56 $-1 #
coedge $-1 $226 $231 $89 $145 forward $221 $-1 #
edge $-1 $232 25.217919395985859 $233 35.538936164388716 $144 $234 forward 7 unknown #
loop $-1 $-1 $151 $90 #
plane-surface $-1 -74.461500900296002 -8.2346609186756226 0.38788352094086065 -0.83867057594974714 0 0.54463902268945019 0.54463902268945019 0 0.83867057594974714 forward_v I I I I #
loop $-1 $-1 $235 $58 #
coedge $-1 $149 $149 $150 $236 reversed $91 $-1 #
coedge $-1 $150 $150 $149 $236 forward $93 $-1 #
coedge $-1 $151 $151 $94 $152 forward $146 $-1 #
edge $-1 $237 0 $237 6.2831853071796004 $151 $238 forward 7 unknown #
loop $-1 $-1 $158 $95 #
plane-surface $-1 -74.461500900296002 -8.2346609186756226 0.38788352094086065 -0.83867057594974714 0 0.54463902268945019 0.54463902268945019 0 0.83867057594974714 forward_v I I I I #
loop $-1 $-1 $239 $61 #
coedge $-1 $156 $156 $157 $240 reversed $96 $-1 #
coedge $-1 $157 $157 $156 $240 forward $98 $-1 #
coedge $-1 $158 $158 $99 $159 forward $153 $-1 #
edge $-1 $241 0 $241 6.2831853071796004 $158 $242 forward 7 unknown #
face $-1 $243 $244 $24 $-1 $245 reversed single #
loop $-1 $-1 $246 $100 #
plane-surface $-1 -74.461500900296031 0 0 1 0 0 0 0 -1 forward_v I I I I #
coedge $-1 $247 $171 $248 $249 forward $101 $-1 #
coedge $-1 $250 $103 $247 $251 forward $65 $-1 #
coedge $-1 $103 $250 $252 $253 forward $65 $-1 #
coedge $-1 $174 $173 $103 $167 reversed $175 $-1 #
edge $-1 $254 -51.292695930998619 $255 51.292695930998619 $166 $256 forward 7 unknown #
coedge $-1 $105 $104 $257 $258 forward $41 $-1 #
coedge $-1 $259 $260 $104 $170 reversed $244 $-1 #
edge $-1 $177 -74.461500900296031 $261 74.461500900296031 $169 $262 forward 7 unknown #
coedge $-1 $163 $263 $105 $172 reversed $101 $-1 #
edge $-1 $264 -74.461500900296031 $176 74.461500900296031 $171 $265 forward 7 unknown #
coedge $-1 $166 $106 $263 $266 forward $175 $-1 #
coedge $-1 $106 $166 $259 $267 reversed $175 $-1 #
loop $-1 $-1 $173 $243 #
vertex $-1 $107 $268 #
vertex $-1 $107 $269 #
straight-curve $-1 74.461500900296031 0 16.280856144900181 0 1 0 I I #
face $-1 $270 $271 $25 $-1 $272 forward single #
loop $-1 $-1 $188 $108 #
plane-surface $-1 0 -51.292695930998619 0 0 1 0 0 0 1 forward_v I I I I #
coedge $-1 $273 $274 $275 $276 forward $109 $-1 #
coedge $-1 $275 $111 $113 $190 reversed $69 $-1 #
coedge $-1 $111 $275 $277 $278 reversed $69 $-1 #
coedge $-1 $279 $114 $111 $186 forward $192 $-1 #
edge $-1 $194 3.989920254279312 $280 9.5239306785070195 $185 $281 forward 7 unknown #
coedge $-1 $113 $112 $273 $282 reversed $44 $-1 #
coedge $-1 $283 $284 $112 $189 forward $180 $-1 #
edge $-1 $285 -74.461500900296031 $193 74.461500900296031 $188 $286 forward 7 unknown #
edge $-1 $287 -74.461500900296031 $194 74.461500900296031 $183 $288 forward 7 unknown #
coedge $-1 $114 $279 $283 $289 forward $192 $-1 #
loop $-1 $-1 $185 $270 #
vertex $-1 $189 $290 #
vertex $-1 $115 $291 #
straight-curve $-1 74.461500900296031 -20.832872376404747 10.746845720672477 0 1 0 I I #
face $-1 $-1 $208 $26 $-1 $292 forward single #
loop $-1 $-1 $293 $116 #
plane-surface $-1 74.461500900296031 0 0 -1 0 0 0 0 1 forward_v I I I I #
coedge $-1 $294 $295 $296 $297 reversed $117 $-1 #
coedge $-1 $298 $119 $121 $206 forward $73 $-1 #
coedge $-1 $119 $298 $294 $299 forward $73 $-1 #
coedge $-1 $296 $122 $119 $203 forward $208 $-1 #
edge $-1 $210 -2.988111451860167 $300 11.22277237053579 $202 $301 forward 7 unknown #
coedge $-1 $302 $303 $120 $205 forward $197 $-1 #
edge $-1 $304 -102.80936716399034 $209 -86.916394540030979 $204 $305 forward 7 unknown #
edge $-1 $210 129.97280481059821 $304 148.92300180059212 $121 $306 forward 7 unknown #
coedge $-1 $122 $296 $302 $307 forward $208 $-1 #
loop $-1 $-1 $296 $196 #
vertex $-1 $205 $308 #
vertex $-1 $123 $309 #
straight-curve $-1 59.124781217955039 -1.1292190074776443 16.280856144900184 -1 0 0 I I #
coedge $-1 $212 $212 $-1 $310 reversed $126 $-1 #
edge $-1 $311 0 $311 6.2831853071796004 $127 $312 forward 7 unknown #
vertex $-1 $130 $313 #
ellipse-curve $-1 69.300992516094595 -11.279850309189044 8.3343698329205012 0.83867057594974714 0 0.54463902268945019 0.81695853403417529 0 -1.2580058639246208 1 I I #
coedge $-1 $216 $216 $-1 $314 reversed $133 $-1 #
edge $-1 $315 0 $315 6.2831853071796004 $134 $316 forward 7 unknown #
vertex $-1 $137 $317 #
ellipse-curve $-1 69.300992516094595 -5.1894715281622013 8.3343698329205012 0.83867057594974714 0 0.54463902268945019 0.81695853403417529 0 -1.2580058639246208 1 I I #
face $-1 $-1 $318 $29 $-1 $319 reversed single #
loop $-1 $-1 $144 $138 #
plane-surface $-1 0 0 16.280856144900181 0 0 1 1 0 0 forward_v I I I I #
coedge $-1 $320 $321 $322 $323 reversed $139 $-1 #
coedge $-1 $324 $141 $143 $230 forward $87 $-1 #
coedge $-1 $141 $324 $320 $325 forward $87 $-1 #
coedge $-1 $322 $144 $141 $227 forward $221 $-1 #
edge $-1 $233 -11.22277237053579 $326 2.988111451860167 $226 $327 forward 7 unknown #
coedge $-1 $328 $329 $142 $229 forward $318 $-1 #
edge $-1 $330 -40.360697317856456 $232 -24.467724693897093 $228 $331 forward 7 unknown #
edge $-1 $233 -18.95019698999387 $330 5.2165360557043749e-014 $143 $332 forward 7 unknown #
coedge $-1 $144 $322 $328 $333 forward $221 $-1 #
vertex $-1 $229 $334 #
vertex $-1 $145 $335 #
straight-curve $-1 -99.67942029628189 -15.340102829873601 16.280856144900177 1 0 0 I I #
coedge $-1 $235 $235 $-1 $336 reversed $148 $-1 #
edge $-1 $337 0 $337 6.2831853071796004 $149 $338 forward 7 unknown #
vertex $-1 $152 $339 #
ellipse-curve $-1 -69.300992516094595 -11.279850309189044 8.3343698329205118 -0.83867057594974714 0 0.54463902268945019 0.81695853403417529 0 1.2580058639246208 1 I I #
coedge $-1 $239 $239 $-1 $340 reversed $155 $-1 #
edge $-1 $341 0 $341 6.2831853071796004 $156 $342 forward 7 unknown #
vertex $-1 $159 $343 #
ellipse-curve $-1 -69.300992516094595 -5.1894715281622013 8.3343698329205118 -0.83867057594974714 0 0.54463902268945019 0.81695853403417529 0 1.2580058639246208 1 I I #
face $-1 $-1 $175 $24 $-1 $344 reversed single #
loop $-1 $-1 $259 $160 #
plane-surface $-1 0 51.292695930998619 0 0 -1 0 0 0 -1 forward_v I I I I #
coedge $-1 $345 $257 $260 $346 forward $161 $-1 #
coedge $-1 $263 $163 $164 $251 reversed $101 $-1 #
coedge $-1 $257 $345 $163 $249 reversed $161 $-1 #
edge $-1 $264 -16.280856144900181 $347 16.280856144900181 $248 $348 forward 7 unknown #
coedge $-1 $165 $164 $345 $349 forward $65 $-1 #
edge $-1 $255 -74.461500900296031 $347 74.461500900296031 $247 $350 forward 7 unknown #
coedge $-1 $260 $259 $165 $253 reversed $244 $-1 #
edge $-1 $351 -74.461500900296031 $254 74.461500900296031 $252 $352 forward 7 unknown #
vertex $-1 $167 $353 #
vertex $-1 $266 $354 #
straight-curve $-1 74.461500900296031 0 -16.280856144900181 0 -1 0 I I #
coedge $-1 $246 $248 $168 $258 reversed $161 $-1 #
edge $-1 $261 -51.292695930998619 $264 51.292695930998619 $257 $355 forward 7 unknown #
coedge $-1 $252 $169 $174 $267 forward $244 $-1 #
coedge $-1 $169 $252 $246 $346 reversed $244 $-1 #
vertex $-1 $170 $356 #
straight-curve $-1 0 51.292695930998619 16.280856144900181 -1 0 0 I I #
coedge $-1 $171 $247 $173 $266 reversed $101 $-1 #
vertex $-1 $258 $357 #
straight-curve $-1 0 -51.292695930998619 16.280856144900181 1 0 0 I I #
edge $-1 $176 -16.280856144900181 $255 16.280856144900181 $173 $358 forward 7 unknown #
edge $-1 $177 -16.280856144900181 $254 16.280856144900181 $174 $359 forward 7 unknown #
point $-1 74.461500900296031 -51.292695930998619 16.280856144900181 #
point $-1 74.461500900296031 51.292695930998619 16.280856144900181 #
face $-1 $-1 $192 $25 $-1 $360 reversed single #
loop $-1 $-1 $277 $179 #
plane-surface $-1 0 0 16.280856144900181 0 0 1 1 0 0 forward_v I I I I #
coedge $-1 $361 $182 $187 $282 forward $109 $-1 #
coedge $-1 $182 $361 $362 $363 reversed $109 $-1 #
coedge $-1 $184 $183 $182 $276 reversed $69 $-1 #
edge $-1 $364 -9.5239306785070195 $287 -3.989920254279312 $182 $365 forward 7 unknown #
coedge $-1 $362 $366 $184 $278 forward $271 $-1 #
edge $-1 $280 -74.461500900296031 $364 74.461500900296031 $277 $367 forward 7 unknown #
coedge $-1 $191 $185 $366 $368 reversed $192 $-1 #
vertex $-1 $186 $369 #
straight-curve $-1 74.461500900296031 -32.038793574620371 6.7569254663931648 0 0 1 I I #
edge $-1 $287 11.205921198215623 $285 30.459823554593871 $273 $370 forward 7 unknown #
coedge $-1 $371 $188 $191 $289 reversed $180 $-1 #
coedge $-1 $188 $371 $361 $372 forward $180 $-1 #
vertex $-1 $189 $373 #
straight-curve $-1 0 -51.292695930998619 10.746845720672477 1 0 0 I I #
vertex $-1 $282 $374 #
straight-curve $-1 0 -32.038793574620371 10.746845720672477 1 0 0 I I #
edge $-1 $375 -16.280856144900181 $193 -10.746845720672477 $191 $376 forward 7 unknown #
point $-1 74.461500900296031 -51.292695930998619 10.746845720672477 #
point $-1 74.461500900296031 -32.038793574620371 10.746845720672477 #
plane-surface $-1 0 0 16.280856144900181 0 0 1 1 0 0 forward_v I I I I #
coedge $-1 $303 $302 $295 $377 forward $197 $-1 #
coedge $-1 $295 $199 $201 $299 reversed $117 $-1 #
coedge $-1 $199 $294 $293 $377 reversed $117 $-1 #
coedge $-1 $207 $202 $199 $297 forward $208 $-1 #
edge $-1 $300 5.0157029139381351 $378 15.336719682340991 $296 $379 forward 7 unknown #
coedge $-1 $201 $200 $303 $380 reversed $73 $-1 #
edge $-1 $381 -148.92300180059212 $300 -129.97280481059821 $294 $382 forward 7 unknown #
vertex $-1 $203 $383 #
straight-curve $-1 64.140484131893174 -4.1173304593378113 16.280856144900184 0 -1 0 I I #
coedge $-1 $293 $204 $207 $307 reversed $197 $-1 #
coedge $-1 $204 $293 $298 $380 forward $197 $-1 #
vertex $-1 $205 $384 #
straight-curve $-1 74.461500900296031 -1.1292190074776443 103.19725068493116 0 0 1 I I #
straight-curve $-1 -6.6477772563576991 -1.1292190074776443 125.28522321320864 0.54463902268945019 0 -0.83867057594974714 I I #
edge $-1 $378 -15.340102829873601 $209 -1.1292190074776443 $302 $385 forward 7 unknown #
point $-1 74.461500900296031 -1.1292190074776443 16.280856144900181 #
point $-1 64.140484131893174 -1.1292190074776443 16.28085614490017 #
edge $-1 $386 1 $386 0 $212 $-1 forward 7 unknown #
vertex $-1 $213 $387 #
ellipse-curve $-1 65.543406898860994 -11.279850309189044 5.8941652795123129 0.83867057594974714 0 0.54463902268945019 0.81695853403417529 0 -1.2580058639246208 1 I I #
point $-1 70.117951050128809 -11.279850309189044 7.0763639689959037 #
edge $-1 $388 1 $388 0 $216 $-1 forward 7 unknown #
vertex $-1 $217 $389 #
ellipse-curve $-1 65.543406898860994 -5.1894715281622013 5.8941652795123129 0.83867057594974714 0 0.54463902268945019 0.81695853403417529 0 -1.2580058639246208 1 I I #
point $-1 70.117951050128809 -5.1894715281622013 7.0763639689959037 #
loop $-1 $-1 $228 $220 #
plane-surface $-1 -74.461500900296031 0 0 1 0 0 0 0 -1 forward_v I I I I #
coedge $-1 $321 $223 $225 $325 reversed $139 $-1 #
coedge $-1 $223 $320 $390 $391 reversed $139 $-1 #
coedge $-1 $231 $226 $223 $323 forward $221 $-1 #
edge $-1 $326 -35.538936164388716 $392 -25.217919395985859 $322 $393 forward 7 unknown #
coedge $-1 $225 $224 $329 $394 reversed $87 $-1 #
edge $-1 $395 -5.2165360557043749e-014 $326 18.95019698999387 $320 $396 forward 7 unknown #
vertex $-1 $227 $397 #
straight-curve $-1 -64.140484131893174 -4.1173304593378113 16.280856144900181 0 1 0 I I #
coedge $-1 $390 $228 $231 $333 reversed $318 $-1 #
coedge $-1 $228 $390 $324 $394 forward $318 $-1 #
vertex $-1 $229 $398 #
straight-curve $-1 -74.461500900296031 -15.340102829873601 40.748580838797274 0 0 1 I I #
straight-curve $-1 -74.461500900296002 -15.340102829873601 0.38788352094086065 -0.54463902268945019 0 -0.83867057594974714 I I #
edge $-1 $392 1.1292190074776443 $232 15.340102829873601 $328 $399 forward 7 unknown #
point $-1 -74.461500900296031 -15.340102829873601 16.280856144900181 #
point $-1 -64.140484131893174 -15.340102829873601 16.280856144900181 #
edge $-1 $400 1 $400 0 $235 $-1 forward 7 unknown #
vertex $-1 $236 $401 #
ellipse-curve $-1 -65.543406898860979 -11.279850309189044 5.8941652795123129 -0.83867057594974714 0 0.54463902268945019 0.81695853403417529 0 1.2580058639246208 1 I I #
point $-1 -68.484033982060438 -11.279850309189044 9.5923756968451457 #
edge $-1 $402 1 $402 0 $239 $-1 forward 7 unknown #
vertex $-1 $240 $403 #
ellipse-curve $-1 -65.543406898860979 -5.1894715281622013 5.8941652795123129 -0.83867057594974714 0 0.54463902268945019 0.81695853403417529 0 1.2580058639246208 1 I I #
point $-1 -68.484033982060438 -5.1894715281622013 9.5923756968451457 #
plane-surface $-1 74.461500900296031 0 0 -1 0 0 0 0 1 forward_v I I I I #
coedge $-1 $248 $246 $250 $349 reversed $161 $-1 #
edge $-1 $261 -16.280856144900181 $351 16.280856144900181 $260 $404 forward 7 unknown #
vertex $-1 $349 $405 #
straight-curve $-1 -74.461500900296031 -51.292695930998619 0 0 0 -1 I I #
edge $-1 $347 -51.292695930998619 $351 51.292695930998619 $345 $406 forward 7 unknown #
straight-curve $-1 0 -51.292695930998619 -16.280856144900181 -1 0 0 I I #
vertex $-1 $253 $407 #
straight-curve $-1 0 51.292695930998619 -16.280856144900181 1 0 0 I I #
point $-1 74.461500900296031 51.292695930998619 -16.280856144900181 #
point $-1 74.461500900296031 -51.292695930998619 -16.280856144900181 #
straight-curve $-1 -74.461500900296031 0 16.280856144900181 0 -1 0 I I #
point $-1 -74.461500900296031 51.292695930998619 16.280856144900181 #
point $-1 -74.461500900296031 -51.292695930998619 16.280856144900181 #
straight-curve $-1 74.461500900296031 -51.292695930998619 0 0 0 -1 I I #
straight-curve $-1 74.461500900296031 51.292695930998619 0 0 0 -1 I I #
plane-surface $-1 74.461500900296031 0 0 -1 0 0 0 0 1 forward_v I I I I #
coedge $-1 $274 $273 $284 $372 reversed $109 $-1 #
coedge $-1 $408 $277 $274 $363 forward $271 $-1 #
edge $-1 $364 32.038793574620371 $409 51.292695930998619 $274 $410 forward 7 unknown #
vertex $-1 $363 $411 #
straight-curve $-1 -74.461500900296031 -32.038793574620371 6.7569254663931648 0 0 -1 I I #
coedge $-1 $277 $408 $279 $368 forward $271 $-1 #
straight-curve $-1 0 -32.038793574620371 16.280856144900181 -1 0 0 I I #
edge $-1 $375 -51.292695930998619 $280 -32.038793574620371 $279 $412 forward 7 unknown #
point $-1 74.461500900296031 -32.038793574620371 16.280856144900184 #
straight-curve $-1 -74.461500900296031 -20.832872376404747 10.746845720672477 0 -1 0 I I #
coedge $-1 $284 $283 $408 $413 reversed $180 $-1 #
edge $-1 $409 -16.280856144900181 $285 -10.746845720672477 $361 $414 forward 7 unknown #
point $-1 -74.461500900296031 -51.292695930998619 10.746845720672477 #
point $-1 -74.461500900296031 -32.038793574620371 10.746845720672477 #
vertex $-1 $368 $415 #
straight-curve $-1 74.461500900296031 -51.292695930998619 0 0 0 -1 I I #
edge $-1 $378 86.916394540030979 $381 102.80936716399034 $293 $416 forward 7 unknown #
vertex $-1 $307 $417 #
straight-curve $-1 59.124781217955039 -15.340102829873601 16.280856144900184 1 0 0 I I #
edge $-1 $381 -11.22277237053579 $304 2.988111451860167 $303 $418 forward 7 unknown #
vertex $-1 $380 $419 #
straight-curve $-1 -6.6477772563576991 -15.340102829873601 125.28522321320864 -0.54463902268945019 0 0.83867057594974714 I I #
point $-1 64.140484131893174 -15.340102829873601 16.28085614490017 #
point $-1 74.461500900296016 -1.1292190074776443 0.38788352094081802 #
straight-curve $-1 74.461500900296031 0 16.280856144900181 0 1 0 I I #
vertex $-1 $310 $420 #
point $-1 66.360365432895179 -11.279850309189044 4.6361594155876924 #
vertex $-1 $314 $421 #
point $-1 66.360365432895179 -5.1894715281622013 4.6361594155876924 #
coedge $-1 $329 $328 $321 $391 forward $318 $-1 #
edge $-1 $392 24.467724693897093 $395 40.360697317856456 $390 $422 forward 7 unknown #
vertex $-1 $333 $423 #
straight-curve $-1 -99.67942029628189 -1.1292190074776443 16.280856144900177 -1 0 0 I I #
edge $-1 $395 -2.988111451860167 $330 11.22277237053579 $329 $424 forward 7 unknown #
vertex $-1 $394 $425 #
straight-curve $-1 -74.461500900296002 -1.1292190074776443 0.38788352094086065 0.54463902268945019 0 0.83867057594974714 I I #
point $-1 -64.140484131893174 -1.1292190074776443 16.280856144900181 #
point $-1 -74.461500900296031 -15.340102829873601 0.38788352094081691 #
straight-curve $-1 -74.461500900296031 0 16.280856144900181 0 -1 0 I I #
vertex $-1 $336 $426 #
point $-1 -64.726448364826808 -11.279850309189044 7.1521711434369344 #
vertex $-1 $340 $427 #
point $-1 -64.726448364826808 -5.1894715281622013 7.1521711434369344 #
straight-curve $-1 -74.461500900296031 51.292695930998619 0 0 0 -1 I I #
point $-1 -74.461500900296031 -51.292695930998619 -16.280856144900181 #
straight-curve $-1 -74.461500900296031 0 -16.280856144900181 0 1 0 I I #
point $-1 -74.461500900296031 51.292695930998619 -16.280856144900181 #
coedge $-1 $366 $362 $371 $413 forward $271 $-1 #
vertex $-1 $363 $428 #
straight-curve $-1 -74.461500900296031 0 16.280856144900181 0 -1 0 I I #
point $-1 -74.461500900296031 -32.038793574620371 16.280856144900184 #
straight-curve $-1 74.461500900296031 0 16.280856144900181 0 1 0 I I #
edge $-1 $409 -74.461500900296031 $375 74.461500900296031 $371 $429 forward 7 unknown #
straight-curve $-1 -74.461500900296031 -51.292695930998619 0 0 0 -1 I I #
point $-1 74.461500900296031 -51.292695930998619 16.280856144900181 #
straight-curve $-1 74.461500900296031 -15.340102829873601 103.19725068493116 0 0 -1 I I #
point $-1 74.461500900296031 -15.340102829873601 16.280856144900181 #
straight-curve $-1 74.461500900296031 -4.1173304593378113 0.38788352094080381 0 1 0 I I #
point $-1 74.461500900296016 -15.340102829873601 0.38788352094081802 #
point $-1 64.285401034936385 -11.279850309189044 5.0772067454781382 #
point $-1 64.285401034936385 -5.1894715281622013 5.0772067454781382 #
straight-curve $-1 -74.461500900296031 -1.1292190074776443 40.748580838797274 0 0 -1 I I #
point $-1 -74.461500900296031 -1.1292190074776443 16.280856144900181 #
straight-curve $-1 -74.461500900296031 -4.1173304593378113 0.38788352094081646 0 -1 0 I I #
point $-1 -74.461500900296031 -1.1292190074776443 0.38788352094081691 #
point $-1 -64.28540103493637 -11.279850309189044 5.0772067454781382 #
point $-1 -64.28540103493637 -5.1894715281622013 5.0772067454781382 #
point $-1 -74.461500900296031 -51.292695930998619 16.280856144900181 #
straight-curve $-1 0 -51.292695930998619 16.280856144900181 1 0 0 I I #
End-of-ACIS-data 