500 0 17 0           
7 Unknown 11 ACIS 5.0 NT 24 Fri Mar 26 18:26:35 1999 
-1 9.9999999999999995e-007 1e-010 
body $-1 $17 $-1 $18 #
body $-1 $19 $-1 $20 #
body $-1 $21 $-1 $22 #
body $-1 $23 $-1 $24 #
body $-1 $25 $-1 $26 #
body $-1 $27 $-1 $28 #
body $-1 $29 $-1 $30 #
body $-1 $31 $-1 $32 #
body $-1 $33 $-1 $34 #
body $-1 $35 $-1 $36 #
body $-1 $37 $-1 $38 #
body $-1 $39 $-1 $40 #
body $-1 $41 $-1 $42 #
body $-1 $43 $-1 $44 #
body $-1 $45 $-1 $46 #
body $-1 $47 $-1 $48 #
body $-1 $49 $-1 $50 #
lump $-1 $-1 $51 $0 #
transform $-1 1 0 0 0 1 0 0 0 1 41.427045503097631 18.804442313618051 7.7652757161106365 1 rotate no_reflect no_shear #
lump $-1 $-1 $52 $1 #
transform $-1 1 0 0 0 1 0 0 0 1 41.427045503097631 18.804442313618051 7.7652757161106365 1 rotate no_reflect no_shear #
lump $-1 $-1 $53 $2 #
transform $-1 1 0 0 0 1 0 0 0 1 41.427045503097631 18.804442313618051 7.7652757161106365 1 rotate no_reflect no_shear #
lump $-1 $-1 $54 $3 #
transform $-1 1 0 0 0 1 0 0 0 1 41.427045503097631 18.804442313618051 7.7652757161106365 1 rotate no_reflect no_shear #
lump $-1 $-1 $55 $4 #
transform $-1 1 0 0 0 1 0 0 0 1 41.427045503097631 18.804442313618051 7.7652757161106365 1 rotate no_reflect no_shear #
lump $-1 $-1 $56 $5 #
transform $-1 1 0 0 0 1 0 0 0 1 41.427045503097631 18.804442313618051 7.7652757161106365 1 rotate no_reflect no_shear #
lump $-1 $-1 $57 $6 #
transform $-1 1 0 0 0 1 0 0 0 1 41.427045503097631 18.804442313618051 7.7652757161106365 1 rotate no_reflect no_shear #
lump $-1 $-1 $58 $7 #
transform $-1 1 0 0 0 1 0 0 0 1 41.427045503097631 18.804442313618051 7.7652757161106365 1 rotate no_reflect no_shear #
lump $-1 $-1 $59 $8 #
transform $-1 1 0 0 0 1 0 0 0 1 41.427045503097631 18.804442313618051 7.7652757161106365 1 rotate no_reflect no_shear #
lump $-1 $-1 $60 $9 #
transform $-1 1 0 0 0 1 0 0 0 1 41.427045503097631 18.804442313618051 7.7652757161106365 1 rotate no_reflect no_shear #
lump $-1 $-1 $61 $10 #
transform $-1 1 0 0 0 1 0 0 0 1 41.427045503097631 18.804442313618051 7.7652757161106365 1 rotate no_reflect no_shear #
lump $-1 $-1 $62 $11 #
transform $-1 1 0 0 0 1 0 0 0 1 41.427045503097631 18.804442313618051 7.7652757161106365 1 rotate no_reflect no_shear #
lump $-1 $-1 $63 $12 #
transform $-1 1 0 0 0 1 0 0 0 1 41.427045503097631 18.804442313618051 7.7652757161106365 1 rotate no_reflect no_shear #
lump $-1 $-1 $64 $13 #
transform $-1 1 0 0 0 1 0 0 0 1 41.427045503097631 18.804442313618051 7.7652757161106365 1 rotate no_reflect no_shear #
lump $-1 $-1 $65 $14 #
transform $-1 1 0 0 0 1 0 0 0 1 41.427045503097631 18.804442313618051 7.7652757161106365 1 rotate no_reflect no_shear #
lump $-1 $-1 $66 $15 #
transform $-1 1 0 0 0 1 0 0 0 1 41.427045503097631 18.804442313618051 7.7652757161106365 1 rotate no_reflect no_shear #
lump $-1 $-1 $67 $16 #
transform $-1 1 0 0 0 1 0 0 0 1 41.427045503097631 18.804442313618051 7.7652757161106365 1 rotate no_reflect no_shear #
shell $-1 $-1 $-1 $68 $-1 $17 #
shell $-1 $-1 $-1 $69 $-1 $19 #
shell $-1 $-1 $-1 $70 $-1 $21 #
shell $-1 $-1 $-1 $71 $-1 $23 #
shell $-1 $-1 $-1 $72 $-1 $25 #
shell $-1 $-1 $-1 $73 $-1 $27 #
shell $-1 $-1 $-1 $74 $-1 $29 #
shell $-1 $-1 $-1 $75 $-1 $31 #
shell $-1 $-1 $-1 $76 $-1 $33 #
shell $-1 $-1 $-1 $77 $-1 $35 #
shell $-1 $-1 $-1 $78 $-1 $37 #
shell $-1 $-1 $-1 $79 $-1 $39 #
shell $-1 $-1 $-1 $80 $-1 $41 #
shell $-1 $-1 $-1 $81 $-1 $43 #
shell $-1 $-1 $-1 $82 $-1 $45 #
shell $-1 $-1 $-1 $83 $-1 $47 #
shell $-1 $-1 $-1 $84 $-1 $49 #
face $-1 $85 $86 $51 $-1 $87 forward single #
face $-1 $88 $89 $52 $-1 $90 forward single #
face $-1 $91 $92 $53 $-1 $93 reversed single #
face $-1 $94 $95 $54 $-1 $96 forward single #
face $-1 $97 $98 $55 $-1 $99 forward single #
face $-1 $100 $101 $56 $-1 $102 reversed single #
face $-1 $103 $104 $57 $-1 $105 forward single #
face $-1 $106 $107 $58 $-1 $108 forward single #
face $-1 $109 $110 $59 $-1 $111 reversed single #
face $-1 $112 $113 $60 $-1 $114 forward single #
face $-1 $115 $116 $61 $-1 $117 forward single #
face $-1 $118 $119 $62 $-1 $120 reversed single #
face $-1 $121 $122 $63 $-1 $123 forward single #
face $-1 $124 $125 $64 $-1 $126 forward single #
face $-1 $127 $128 $65 $-1 $129 reversed single #
face $-1 $130 $131 $66 $-1 $132 forward single #
face $-1 $133 $134 $67 $-1 $135 forward single #
face $-1 $136 $137 $51 $-1 $138 reversed single #
loop $-1 $-1 $139 $68 #
plane-surface $-1 0 0 7.7652757161106365 0 0 1 1 0 0 forward_v I I I I #
face $-1 $140 $141 $52 $-1 $142 forward single #
loop $-1 $-1 $143 $69 #
plane-surface $-1 -41.427045503097631 0 0 1 0 0 0 0 -1 forward_v I I I I #
face $-1 $144 $145 $53 $-1 $146 reversed single #
loop $-1 $-1 $147 $70 #
plane-surface $-1 -26.751170423019708 56.661571272022641 87.407634322909104 1 0 0 0 -0.75470958851134928 -0.65605901945558964 forward_v I I I I #
face $-1 $148 $149 $54 $-1 $150 forward single #
loop $-1 $151 $152 $71 #
cone-surface $-1 -23.466107432264725 16.33449371905369 5.2396251990509768 0 -0.75470958851134928 -0.65605901945558964 1 0 0 1 I I 0 1 1 forward I I I I #
face $-1 $153 $154 $55 $-1 $155 forward single #
loop $-1 $156 $157 $72 #
cone-surface $-1 -18.538512946132254 16.33449371905369 5.2396251990509768 0 -0.75470958851134928 -0.65605901945558964 1 0 0 1 I I 0 1 1 forward I I I I #
face $-1 $158 $159 $56 $-1 $160 reversed single #
loop $-1 $-1 $161 $73 #
plane-surface $-1 -7.8576719368614061 56.661571272022641 87.407634322909104 1 0 0 0 -0.75470958851134928 -0.65605901945558964 forward_v I I I I #
face $-1 $162 $163 $57 $-1 $164 forward single #
loop $-1 $165 $166 $74 #
cone-surface $-1 -4.5726089461064277 16.33449371905369 5.2396251990509768 0 -0.75470958851134928 -0.65605901945558964 1 0 0 1 I I 0 1 1 forward I I I I #
face $-1 $167 $168 $58 $-1 $169 forward single #
loop $-1 $170 $171 $75 #
cone-surface $-1 0.35498554002604976 16.33449371905369 5.2396251990509768 0 -0.75470958851134928 -0.65605901945558964 1 0 0 1 I I 0 1 1 forward I I I I #
face $-1 $172 $173 $59 $-1 $174 reversed single #
loop $-1 $-1 $175 $76 #
plane-surface $-1 11.035826549296894 56.661571272022641 87.407634322909104 1 0 0 0 -0.75470958851134928 -0.65605901945558964 forward_v I I I I #
face $-1 $176 $177 $60 $-1 $178 forward single #
loop $-1 $179 $180 $77 #
cone-surface $-1 14.320889540051873 16.33449371905369 5.2396251990509768 0 -0.75470958851134928 -0.65605901945558964 1 0 0 1 I I 0 1 1 forward I I I I #
face $-1 $181 $182 $61 $-1 $183 forward single #
loop $-1 $184 $185 $78 #
cone-surface $-1 19.24848402618435 16.33449371905369 5.2396251990509768 0 -0.75470958851134928 -0.65605901945558964 1 0 0 1 I I 0 1 1 forward I I I I #
face $-1 $186 $187 $62 $-1 $188 reversed single #
loop $-1 $-1 $189 $79 #
plane-surface $-1 29.929325035455193 56.661571272022641 87.407634322909104 1 0 0 0 -0.75470958851134928 -0.65605901945558964 forward_v I I I I #
face $-1 $190 $191 $63 $-1 $192 forward single #
loop $-1 $193 $194 $80 #
cone-surface $-1 33.214388026210173 16.33449371905369 5.2396251990509768 0 -0.75470958851134928 -0.65605901945558964 1 0 0 1 I I 0 1 1 forward I I I I #
face $-1 $195 $196 $64 $-1 $197 forward single #
loop $-1 $198 $199 $81 #
cone-surface $-1 38.141982512342651 16.33449371905369 5.2396251990509768 0 -0.75470958851134928 -0.65605901945558964 1 0 0 1 I I 0 1 1 forward I I I I #
face $-1 $200 $201 $65 $-1 $202 reversed single #
loop $-1 $-1 $203 $82 #
plane-surface $-1 8.8241613795183156 -75.310797176129029 65.349577770560188 -1 0 0 0 -0.68199836817093118 0.7313536940579346 forward_v I I I I #
face $-1 $204 $205 $66 $-1 $206 forward single #
loop $-1 $207 $208 $83 #
cone-surface $-1 -0.45269637592431877 -16.29667583353212 5.3018379855082509 0 0.68199836817093118 -0.7313536940579346 1 0 0 1 I I 0 1 1 forward I I I I #
face $-1 $209 $210 $67 $-1 $211 forward single #
loop $-1 $212 $213 $84 #
cone-surface $-1 5.1134182773412604 -16.29667583353212 5.3018379855082509 0 0.68199836817093118 -0.7313536940579346 1 0 0 1 I I 0 1 1 forward I I I I #
face $-1 $214 $215 $51 $-1 $216 reversed single #
loop $-1 $-1 $217 $85 #
plane-surface $-1 0 0 -7.7652757161106365 0 0 1 1 0 0 forward_v I I I I #
coedge $-1 $218 $219 $220 $221 forward $86 $-1 #
face $-1 $222 $223 $52 $-1 $224 reversed single #
loop $-1 $-1 $225 $88 #
plane-surface $-1 0 0 7.7652757161106365 0 0 1 1 0 0 forward_v I I I I #
coedge $-1 $226 $227 $228 $229 forward $89 $-1 #
face $-1 $230 $231 $53 $-1 $232 reversed single #
loop $-1 $-1 $233 $91 #
plane-surface $-1 -21.002310189198489 -5.869205657744871 33.050460619500448 0 0.75470958851134928 0.65605901945558964 1 0 0 forward_v I I I I #
coedge $-1 $234 $235 $236 $237 reversed $92 $-1 #
face $-1 $-1 $238 $54 $-1 $239 forward single #
loop $-1 $240 $241 $94 #
cone-surface $-1 -23.466107432264725 14.833976646464098 3.9352456412646966 0 -0.75470958851134928 -0.65605901945558964 0.5 0 0 1 I I -0.70710678118654746 0.70710678118654746 0.5 forward I I I I #
loop $-1 $-1 $242 $71 #
coedge $-1 $152 $152 $243 $244 reversed $95 $-1 #
face $-1 $-1 $245 $55 $-1 $246 forward single #
loop $-1 $247 $248 $97 #
cone-surface $-1 -18.538512946132254 14.833976646464098 3.9352456412646966 0 -0.75470958851134928 -0.65605901945558964 0.5 0 0 1 I I -0.70710678118654746 0.70710678118654746 0.5 forward I I I I #
loop $-1 $-1 $249 $72 #
coedge $-1 $157 $157 $250 $251 reversed $98 $-1 #
face $-1 $252 $253 $56 $-1 $254 reversed single #
loop $-1 $-1 $255 $100 #
plane-surface $-1 -2.1088117030401889 -5.869205657744871 33.050460619500448 0 0.75470958851134928 0.65605901945558964 1 0 0 forward_v I I I I #
coedge $-1 $256 $257 $258 $259 reversed $101 $-1 #
face $-1 $-1 $260 $57 $-1 $261 forward single #
loop $-1 $262 $263 $103 #
cone-surface $-1 -4.5726089461064277 14.833976646464098 3.9352456412646966 0 -0.75470958851134928 -0.65605901945558964 0.5 0 0 1 I I -0.70710678118654746 0.70710678118654746 0.5 forward I I I I #
loop $-1 $-1 $264 $74 #
coedge $-1 $166 $166 $265 $266 reversed $104 $-1 #
face $-1 $-1 $267 $58 $-1 $268 forward single #
loop $-1 $269 $270 $106 #
cone-surface $-1 0.35498554002604976 14.833976646464098 3.9352456412646966 0 -0.75470958851134928 -0.65605901945558964 0.5 0 0 1 I I -0.70710678118654746 0.70710678118654746 0.5 forward I I I I #
loop $-1 $-1 $271 $75 #
coedge $-1 $171 $171 $272 $273 reversed $107 $-1 #
face $-1 $274 $275 $59 $-1 $276 reversed single #
loop $-1 $-1 $277 $109 #
plane-surface $-1 16.784686783118111 -5.869205657744871 33.050460619500448 0 0.75470958851134928 0.65605901945558964 1 0 0 forward_v I I I I #
coedge $-1 $278 $279 $280 $281 reversed $110 $-1 #
face $-1 $-1 $282 $60 $-1 $283 forward single #
loop $-1 $284 $285 $112 #
cone-surface $-1 14.320889540051873 14.833976646464098 3.9352456412646966 0 -0.75470958851134928 -0.65605901945558964 0.5 0 0 1 I I -0.70710678118654746 0.70710678118654746 0.5 forward I I I I #
loop $-1 $-1 $286 $77 #
coedge $-1 $180 $180 $287 $288 reversed $113 $-1 #
face $-1 $-1 $289 $61 $-1 $290 forward single #
loop $-1 $291 $292 $115 #
cone-surface $-1 19.24848402618435 14.833976646464098 3.9352456412646966 0 -0.75470958851134928 -0.65605901945558964 0.5 0 0 1 I I -0.70710678118654746 0.70710678118654746 0.5 forward I I I I #
loop $-1 $-1 $293 $78 #
coedge $-1 $185 $185 $294 $295 reversed $116 $-1 #
face $-1 $296 $297 $62 $-1 $298 forward single #
loop $-1 $-1 $299 $118 #
plane-surface $-1 35.678185269276412 -5.869205657744871 33.050460619500448 0 0.75470958851134928 0.65605901945558964 1 0 0 forward_v I I I I #
coedge $-1 $300 $301 $302 $303 reversed $119 $-1 #
face $-1 $-1 $304 $63 $-1 $305 forward single #
loop $-1 $306 $307 $121 #
cone-surface $-1 33.214388026210173 14.833976646464098 3.9352456412646966 0 -0.75470958851134928 -0.65605901945558964 0.5 0 0 1 I I -0.70710678118654746 0.70710678118654746 0.5 forward I I I I #
loop $-1 $-1 $308 $80 #
coedge $-1 $194 $194 $309 $310 reversed $122 $-1 #
face $-1 $-1 $311 $64 $-1 $312 forward single #
loop $-1 $313 $314 $124 #
cone-surface $-1 38.141982512342651 14.833976646464098 3.9352456412646966 0 -0.75470958851134928 -0.65605901945558964 0.5 0 0 1 I I -0.70710678118654746 0.70710678118654746 0.5 forward I I I I #
loop $-1 $-1 $315 $81 #
coedge $-1 $199 $199 $316 $317 reversed $125 $-1 #
face $-1 $318 $319 $65 $-1 $320 reversed single #
loop $-1 $-1 $321 $127 #
plane-surface $-1 2.3303609507084744 -18.804442313618033 4.7539322453669897 0 -0.68199836817093118 0.7313536940579346 1 0 0 forward_v I I I I #
coedge $-1 $322 $323 $324 $325 reversed $128 $-1 #
face $-1 $-1 $326 $66 $-1 $327 forward single #
loop $-1 $328 $329 $130 #
cone-surface $-1 -0.45269637592431877 -15.062545390052057 3.978395143248715 0 0.68199836817093118 -0.7313536940579346 0.5 0 0 1 I I -0.70710678118654746 0.70710678118654746 0.5 forward I I I I #
loop $-1 $-1 $330 $83 #
coedge $-1 $208 $208 $331 $332 reversed $131 $-1 #
face $-1 $-1 $333 $67 $-1 $334 forward single #
loop $-1 $335 $336 $133 #
cone-surface $-1 5.1134182773412604 -15.062545390052057 3.978395143248715 0 0.68199836817093118 -0.7313536940579346 0.5 0 0 1 I I -0.70710678118654746 0.70710678118654746 0.5 forward I I I I #
loop $-1 $-1 $337 $84 #
coedge $-1 $213 $213 $338 $339 reversed $134 $-1 #
face $-1 $340 $341 $51 $-1 $342 reversed single #
loop $-1 $-1 $343 $136 #
plane-surface $-1 0 -18.804442313618051 0 0 1 0 0 0 1 forward_v I I I I #
coedge $-1 $344 $345 $346 $347 forward $137 $-1 #
coedge $-1 $348 $139 $349 $350 forward $86 $-1 #
coedge $-1 $139 $348 $351 $352 forward $86 $-1 #
coedge $-1 $353 $354 $139 $221 reversed $355 $-1 #
edge $-1 $356 -18.804442313618051 $357 18.804442313618051 $220 $358 forward 7 unknown #
face $-1 $359 $360 $52 $-1 $361 reversed single #
loop $-1 $-1 $362 $140 #
plane-surface $-1 -48.707142564659691 -17.304442313618051 0 1 0 0 0 0 -1 forward_v I I I I #
coedge $-1 $363 $364 $226 $365 forward $141 $-1 #
coedge $-1 $366 $143 $225 $365 reversed $89 $-1 #
coedge $-1 $143 $366 $367 $368 reversed $89 $-1 #
coedge $-1 $369 $370 $143 $229 reversed $360 $-1 #
edge $-1 $371 -7.7652757161106365 $372 7.7652757161106365 $228 $373 forward 7 unknown #
face $-1 $374 $375 $53 $-1 $376 forward single #
loop $-1 $-1 $377 $144 #
plane-surface $-1 -15.253449955377272 56.661571272022641 87.407634322909104 -1 0 0 0 0.75470958851134928 0.65605901945558964 forward_v I I I I #
coedge $-1 $378 $379 $380 $381 reversed $145 $-1 #
coedge $-1 $235 $147 $382 $383 reversed $92 $-1 #
coedge $-1 $147 $234 $378 $384 reversed $92 $-1 #
coedge $-1 $380 $385 $147 $237 forward $375 $-1 #
edge $-1 $386 9.5263433223932701 $387 12.219915954854173 $236 $388 forward 7 unknown #
loop $-1 $-1 $243 $148 #
plane-surface $-1 -21.002310189198489 -5.869205657744871 33.050460619500448 0 0.75470958851134928 0.65605901945558964 1 0 0 forward_v I I I I #
loop $-1 $-1 $389 $94 #
coedge $-1 $241 $241 $242 $390 reversed $149 $-1 #
coedge $-1 $242 $242 $241 $390 forward $151 $-1 #
coedge $-1 $243 $243 $152 $244 forward $238 $-1 #
edge $-1 $391 -7.0095445221170148e-016 $391 6.2831853071795996 $243 $392 forward 7 unknown #
loop $-1 $-1 $250 $153 #
plane-surface $-1 -21.002310189198489 -5.869205657744871 33.050460619500448 0 0.75470958851134928 0.65605901945558964 1 0 0 forward_v I I I I #
loop $-1 $-1 $393 $97 #
coedge $-1 $248 $248 $249 $394 reversed $154 $-1 #
coedge $-1 $249 $249 $248 $394 forward $156 $-1 #
coedge $-1 $250 $250 $157 $251 forward $245 $-1 #
edge $-1 $395 -7.0095445221170148e-016 $395 6.2831853071795996 $250 $396 forward 7 unknown #
face $-1 $397 $398 $56 $-1 $399 forward single #
loop $-1 $-1 $400 $158 #
plane-surface $-1 3.6400485307810282 56.661571272022641 87.407634322909104 -1 0 0 0 0.75470958851134928 0.65605901945558964 forward_v I I I I #
coedge $-1 $401 $402 $403 $404 reversed $159 $-1 #
coedge $-1 $257 $161 $405 $406 reversed $101 $-1 #
coedge $-1 $161 $256 $401 $407 reversed $101 $-1 #
coedge $-1 $403 $408 $161 $259 forward $398 $-1 #
edge $-1 $409 9.5263433223932701 $410 12.219915954854173 $258 $411 forward 7 unknown #
loop $-1 $-1 $265 $162 #
plane-surface $-1 -2.1088117030401889 -5.869205657744871 33.050460619500448 0 0.75470958851134928 0.65605901945558964 1 0 0 forward_v I I I I #
loop $-1 $-1 $412 $103 #
coedge $-1 $263 $263 $264 $413 reversed $163 $-1 #
coedge $-1 $264 $264 $263 $413 forward $165 $-1 #
coedge $-1 $265 $265 $166 $266 forward $260 $-1 #
edge $-1 $414 -7.0095445221170148e-016 $414 6.2831853071795996 $265 $415 forward 7 unknown #
loop $-1 $-1 $272 $167 #
plane-surface $-1 -2.1088117030401889 -5.869205657744871 33.050460619500448 0 0.75470958851134928 0.65605901945558964 1 0 0 forward_v I I I I #
loop $-1 $-1 $416 $106 #
coedge $-1 $270 $270 $271 $417 reversed $168 $-1 #
coedge $-1 $271 $271 $270 $417 forward $170 $-1 #
coedge $-1 $272 $272 $171 $273 forward $267 $-1 #
edge $-1 $418 -7.0095445221170148e-016 $418 6.2831853071795996 $272 $419 forward 7 unknown #
face $-1 $420 $421 $59 $-1 $422 forward single #
loop $-1 $-1 $423 $172 #
plane-surface $-1 22.53354701693933 56.661571272022641 87.407634322909104 -1 0 0 0 0.75470958851134928 0.65605901945558964 forward_v I I I I #
coedge $-1 $424 $425 $426 $427 reversed $173 $-1 #
coedge $-1 $279 $175 $428 $429 reversed $110 $-1 #
coedge $-1 $175 $278 $424 $430 reversed $110 $-1 #
coedge $-1 $426 $431 $175 $281 forward $421 $-1 #
edge $-1 $432 9.5263433223932701 $433 12.219915954854173 $280 $434 forward 7 unknown #
loop $-1 $-1 $287 $176 #
plane-surface $-1 16.784686783118111 -5.869205657744871 33.050460619500448 0 0.75470958851134928 0.65605901945558964 1 0 0 forward_v I I I I #
loop $-1 $-1 $435 $112 #
coedge $-1 $285 $285 $286 $436 reversed $177 $-1 #
coedge $-1 $286 $286 $285 $436 forward $179 $-1 #
coedge $-1 $287 $287 $180 $288 forward $282 $-1 #
edge $-1 $437 -7.0095445221170148e-016 $437 6.2831853071795996 $287 $438 forward 7 unknown #
loop $-1 $-1 $294 $181 #
plane-surface $-1 16.784686783118111 -5.869205657744871 33.050460619500448 0 0.75470958851134928 0.65605901945558964 1 0 0 forward_v I I I I #
loop $-1 $-1 $439 $115 #
coedge $-1 $292 $292 $293 $440 reversed $182 $-1 #
coedge $-1 $293 $293 $292 $440 forward $184 $-1 #
coedge $-1 $294 $294 $185 $295 forward $289 $-1 #
edge $-1 $441 -7.0095445221170148e-016 $441 6.2831853071795996 $294 $442 forward 7 unknown #
face $-1 $443 $444 $62 $-1 $445 reversed single #
loop $-1 $-1 $302 $186 #
plane-surface $-1 0 0 7.7652757161106365 0 0 1 1 0 0 forward_v I I I I #
coedge $-1 $446 $447 $448 $449 reversed $187 $-1 #
coedge $-1 $301 $189 $450 $451 reversed $119 $-1 #
coedge $-1 $189 $300 $446 $452 reversed $119 $-1 #
coedge $-1 $448 $453 $189 $303 forward $297 $-1 #
edge $-1 $454 9.5263433223932701 $455 12.219915954854173 $302 $456 forward 7 unknown #
loop $-1 $-1 $309 $190 #
plane-surface $-1 35.678185269276412 -5.869205657744871 33.050460619500448 0 0.75470958851134928 0.65605901945558964 1 0 0 forward_v I I I I #
loop $-1 $-1 $457 $121 #
coedge $-1 $307 $307 $308 $458 reversed $191 $-1 #
coedge $-1 $308 $308 $307 $458 forward $193 $-1 #
coedge $-1 $309 $309 $194 $310 forward $304 $-1 #
edge $-1 $459 -7.0095445221170148e-016 $459 6.2831853071795996 $309 $460 forward 7 unknown #
loop $-1 $-1 $316 $195 #
plane-surface $-1 35.678185269276412 -5.869205657744871 33.050460619500448 0 0.75470958851134928 0.65605901945558964 1 0 0 forward_v I I I I #
loop $-1 $-1 $461 $124 #
coedge $-1 $314 $314 $315 $462 reversed $196 $-1 #
coedge $-1 $315 $315 $314 $462 forward $198 $-1 #
coedge $-1 $316 $316 $199 $317 forward $311 $-1 #
edge $-1 $463 -7.0095445221170148e-016 $463 6.2831853071795996 $316 $464 forward 7 unknown #
face $-1 $465 $466 $65 $-1 $467 reversed single #
loop $-1 $-1 $468 $200 #
plane-surface $-1 -4.1634394781013668 -75.310797176129029 65.349577770560188 1 0 0 0 0.68199836817093118 -0.7313536940579346 forward_v I I I I #
coedge $-1 $469 $470 $471 $472 reversed $201 $-1 #
coedge $-1 $323 $203 $473 $474 reversed $128 $-1 #
coedge $-1 $203 $322 $469 $475 reversed $128 $-1 #
coedge $-1 $471 $476 $203 $325 forward $477 $-1 #
edge $-1 $478 18.850956274446464 $479 22.080226715829156 $324 $480 forward 7 unknown #
loop $-1 $-1 $331 $204 #
plane-surface $-1 2.3303609507084744 -18.804442313618033 4.7539322453669897 0 -0.68199836817093118 0.7313536940579346 1 0 0 forward_v I I I I #
loop $-1 $-1 $481 $130 #
coedge $-1 $329 $329 $330 $482 reversed $205 $-1 #
coedge $-1 $330 $330 $329 $482 forward $207 $-1 #
coedge $-1 $331 $331 $208 $332 forward $326 $-1 #
edge $-1 $483 -9.5645132721531765e-017 $483 6.2831853071796004 $331 $484 forward 7 unknown #
loop $-1 $-1 $338 $209 #
plane-surface $-1 2.3303609507084744 -18.804442313618033 4.7539322453669897 0 -0.68199836817093118 0.7313536940579346 1 0 0 forward_v I I I I #
loop $-1 $-1 $485 $133 #
coedge $-1 $336 $336 $337 $486 reversed $210 $-1 #
coedge $-1 $337 $337 $336 $486 forward $212 $-1 #
coedge $-1 $338 $338 $213 $339 forward $333 $-1 #
edge $-1 $487 -9.5645132721531765e-017 $487 6.2831853071796004 $338 $488 forward 7 unknown #
face $-1 $489 $490 $51 $-1 $491 reversed single #
loop $-1 $-1 $492 $214 #
plane-surface $-1 -41.427045503097631 0 0 1 0 0 0 0 -1 forward_v I I I I #
coedge $-1 $493 $351 $494 $495 forward $215 $-1 #
coedge $-1 $496 $217 $493 $497 forward $137 $-1 #
coedge $-1 $217 $496 $498 $499 forward $137 $-1 #
coedge $-1 $354 $353 $217 $347 reversed $355 $-1 #
edge $-1 $500 -18.804442313618051 $501 18.804442313618051 $346 $502 forward 7 unknown #
coedge $-1 $219 $218 $492 $503 forward $86 $-1 #
coedge $-1 $504 $505 $218 $350 reversed $490 $-1 #
edge $-1 $357 -41.427045503097631 $506 41.427045503097631 $349 $507 forward 7 unknown #
coedge $-1 $343 $508 $219 $352 reversed $215 $-1 #
edge $-1 $509 -41.427045503097631 $356 41.427045503097631 $351 $510 forward 7 unknown #
coedge $-1 $346 $220 $508 $511 forward $355 $-1 #
coedge $-1 $220 $346 $504 $512 reversed $355 $-1 #
loop $-1 $-1 $353 $489 #
vertex $-1 $221 $513 #
vertex $-1 $221 $514 #
straight-curve $-1 41.427045503097631 0 7.7652757161106365 0 1 0 I I #
face $-1 $515 $516 $52 $-1 $517 reversed single #
loop $-1 $-1 $228 $222 #
plane-surface $-1 -45.067094033878661 -15.804442313618051 0 0 -1 0 0 0 -1 forward_v I I I I #
coedge $-1 $518 $519 $520 $521 forward $223 $-1 #
coedge $-1 $522 $225 $370 $523 forward $141 $-1 #
coedge $-1 $225 $522 $524 $525 forward $141 $-1 #
edge $-1 $526 -18.804442313618051 $372 -15.804442313618051 $225 $527 forward 7 unknown #
coedge $-1 $227 $226 $528 $529 reversed $89 $-1 #
coedge $-1 $530 $531 $227 $368 forward $516 $-1 #
edge $-1 $371 15.804442313618051 $532 18.804442313618051 $367 $533 forward 7 unknown #
coedge $-1 $520 $228 $531 $534 reversed $360 $-1 #
coedge $-1 $228 $520 $363 $523 reversed $360 $-1 #
vertex $-1 $368 $535 #
vertex $-1 $523 $536 #
straight-curve $-1 -41.427045503097631 -15.804442313618051 0 0 0 1 I I #
face $-1 $-1 $537 $53 $-1 $538 reversed single #
loop $-1 $-1 $236 $230 #
plane-surface $-1 0 0 7.7652757161106365 0 0 1 1 0 0 forward_v I I I I #
coedge $-1 $539 $540 $541 $542 reversed $231 $-1 #
coedge $-1 $543 $233 $235 $384 forward $145 $-1 #
coedge $-1 $233 $543 $539 $544 forward $145 $-1 #
coedge $-1 $541 $236 $233 $381 forward $375 $-1 #
edge $-1 $387 -16.250015328420464 $545 -4.7522948607780275 $380 $546 forward 7 unknown #
coedge $-1 $547 $548 $234 $383 forward $537 $-1 #
edge $-1 $549 -39.037142383346279 $386 -35.938541445343915 $382 $550 forward 7 unknown #
edge $-1 $387 33.503198168270764 $549 37.608884627236115 $235 $551 forward 7 unknown #
coedge $-1 $236 $541 $547 $552 forward $375 $-1 #
vertex $-1 $383 $553 #
vertex $-1 $237 $554 #
straight-curve $-1 -26.751170423019708 28.330785636011321 7.7652757161106365 0 -1 0 I I #
coedge $-1 $389 $389 $-1 $555 reversed $240 $-1 #
edge $-1 $556 0 $556 6.2831853071796004 $241 $557 forward 7 unknown #
vertex $-1 $244 $558 #
ellipse-curve $-1 -23.466107432264725 17.457655997387597 6.2159752471094549 0 0.75470958851134928 0.65605901945558964 1 0 0 1 I I #
coedge $-1 $393 $393 $-1 $559 reversed $247 $-1 #
edge $-1 $560 0 $560 6.2831853071796004 $248 $561 forward 7 unknown #
vertex $-1 $251 $562 #
ellipse-curve $-1 -18.538512946132254 17.457655997387597 6.2159752471094549 0 0.75470958851134928 0.65605901945558964 1 0 0 1 I I #
face $-1 $-1 $563 $56 $-1 $564 reversed single #
loop $-1 $-1 $258 $252 #
plane-surface $-1 0 0 7.7652757161106365 0 0 1 1 0 0 forward_v I I I I #
coedge $-1 $565 $566 $567 $568 reversed $253 $-1 #
coedge $-1 $569 $255 $257 $407 forward $159 $-1 #
coedge $-1 $255 $569 $565 $570 forward $159 $-1 #
coedge $-1 $567 $258 $255 $404 forward $398 $-1 #
edge $-1 $410 -6.8032660853413116 $571 4.6944543823011227 $403 $572 forward 7 unknown #
coedge $-1 $573 $574 $256 $406 forward $563 $-1 #
edge $-1 $575 -39.037142383346279 $409 -35.938541445343915 $405 $576 forward 7 unknown #
edge $-1 $410 33.503198168270764 $575 37.608884627236115 $257 $577 forward 7 unknown #
coedge $-1 $258 $567 $573 $578 forward $398 $-1 #
vertex $-1 $259 $579 #
vertex $-1 $259 $580 #
straight-curve $-1 -7.8576719368614061 28.330785636011321 7.7652757161106365 0 -1 0 I I #
coedge $-1 $412 $412 $-1 $581 reversed $262 $-1 #
edge $-1 $582 0 $582 6.2831853071796004 $263 $583 forward 7 unknown #
vertex $-1 $266 $584 #
ellipse-curve $-1 -4.5726089461064277 17.457655997387597 6.2159752471094549 0 0.75470958851134928 0.65605901945558964 1 0 0 1 I I #
coedge $-1 $416 $416 $-1 $585 reversed $269 $-1 #
edge $-1 $586 0 $586 6.2831853071796004 $270 $587 forward 7 unknown #
vertex $-1 $273 $588 #
ellipse-curve $-1 0.35498554002604976 17.457655997387597 6.2159752471094549 0 0.75470958851134928 0.65605901945558964 1 0 0 1 I I #
face $-1 $-1 $589 $59 $-1 $590 reversed single #
loop $-1 $-1 $280 $274 #
plane-surface $-1 0 0 7.7652757161106365 0 0 1 1 0 0 forward_v I I I I #
coedge $-1 $591 $592 $593 $594 reversed $275 $-1 #
coedge $-1 $595 $277 $279 $430 forward $173 $-1 #
coedge $-1 $277 $595 $591 $596 forward $173 $-1 #
coedge $-1 $593 $280 $277 $427 forward $421 $-1 #
edge $-1 $433 2.6434831577378386 $597 14.141203625380275 $426 $598 forward 7 unknown #
coedge $-1 $599 $600 $278 $429 forward $589 $-1 #
edge $-1 $601 -39.037142383346279 $432 -35.938541445343915 $428 $602 forward 7 unknown #
edge $-1 $433 33.503198168270764 $601 37.608884627236115 $279 $603 forward 7 unknown #
coedge $-1 $280 $593 $599 $604 forward $421 $-1 #
vertex $-1 $281 $605 #
vertex $-1 $281 $606 #
straight-curve $-1 11.035826549296894 28.330785636011321 7.7652757161106365 0 -1 0 I I #
coedge $-1 $435 $435 $-1 $607 reversed $284 $-1 #
edge $-1 $608 0 $608 6.2831853071796004 $285 $609 forward 7 unknown #
vertex $-1 $288 $610 #
ellipse-curve $-1 14.320889540051873 17.457655997387597 6.2159752471094549 0 0.75470958851134928 0.65605901945558964 1 0 0 1 I I #
coedge $-1 $439 $439 $-1 $611 reversed $291 $-1 #
edge $-1 $612 0 $612 6.2831853071796004 $292 $613 forward 7 unknown #
vertex $-1 $295 $614 #
ellipse-curve $-1 19.24848402618435 17.457655997387597 6.2159752471094549 0 0.75470958851134928 0.65605901945558964 1 0 0 1 I I #
face $-1 $-1 $615 $62 $-1 $616 reversed single #
loop $-1 $-1 $617 $296 #
plane-surface $-1 41.427045503097631 0 0 -1 0 0 0 0 1 forward_v I I I I #
coedge $-1 $618 $299 $301 $452 forward $187 $-1 #
coedge $-1 $299 $618 $617 $619 reversed $187 $-1 #
coedge $-1 $620 $302 $299 $449 forward $297 $-1 #
edge $-1 $455 12.090232400816987 $621 23.587952868459425 $448 $622 forward 7 unknown #
coedge $-1 $623 $624 $300 $451 forward $615 $-1 #
edge $-1 $625 -39.037142383346279 $454 -35.938541445343915 $450 $626 forward 7 unknown #
edge $-1 $455 33.503198168270764 $625 37.608884627236115 $301 $627 forward 7 unknown #
coedge $-1 $302 $620 $623 $628 forward $297 $-1 #
vertex $-1 $451 $629 #
vertex $-1 $303 $630 #
straight-curve $-1 29.929325035455193 28.330785636011321 7.7652757161106365 0 -1 0 I I #
coedge $-1 $457 $457 $-1 $631 reversed $306 $-1 #
edge $-1 $632 0 $632 6.2831853071796004 $307 $633 forward 7 unknown #
vertex $-1 $310 $634 #
ellipse-curve $-1 33.214388026210173 17.457655997387597 6.2159752471094549 0 0.75470958851134928 0.65605901945558964 1 0 0 1 I I #
coedge $-1 $461 $461 $-1 $635 reversed $313 $-1 #
edge $-1 $636 0 $636 6.2831853071796004 $314 $637 forward 7 unknown #
vertex $-1 $317 $638 #
ellipse-curve $-1 38.141982512342651 17.457655997387597 6.2159752471094549 0 0.75470958851134928 0.65605901945558964 1 0 0 1 I I #
face $-1 $-1 $477 $65 $-1 $639 forward single #
loop $-1 $-1 $640 $318 #
plane-surface $-1 0 -18.804442313618051 0 0 1 0 0 0 1 forward_v I I I I #
coedge $-1 $641 $642 $643 $644 reversed $319 $-1 #
coedge $-1 $645 $321 $323 $475 forward $201 $-1 #
coedge $-1 $321 $645 $641 $646 forward $201 $-1 #
coedge $-1 $643 $324 $321 $472 forward $477 $-1 #
edge $-1 $479 -7.6589809041640784 $647 5.328619953455604 $471 $648 forward 7 unknown #
coedge $-1 $649 $650 $322 $474 forward $466 $-1 #
edge $-1 $651 -27.920856639913122 $478 -24.909513169169458 $473 $652 forward 7 unknown #
edge $-1 $479 -4.4154701994666716 $651 2.4500439789326819e-014 $323 $653 forward 7 unknown #
coedge $-1 $324 $643 $649 $654 forward $477 $-1 #
loop $-1 $-1 $643 $465 #
vertex $-1 $474 $655 #
vertex $-1 $325 $656 #
straight-curve $-1 8.8241613795183156 -37.655398588064514 7.7652757161106365 0 1 0 I I #
coedge $-1 $481 $481 $-1 $657 reversed $328 $-1 #
edge $-1 $658 0 $658 6.2831853071796004 $329 $659 forward 7 unknown #
vertex $-1 $332 $660 #
ellipse-curve $-1 -0.45269637592431877 -17.189807092926706 6.2596039807388033 0 -0.68199836817093118 0.7313536940579346 1 0 0 1 I I #
coedge $-1 $485 $485 $-1 $661 reversed $335 $-1 #
edge $-1 $662 0 $662 6.2831853071796004 $336 $663 forward 7 unknown #
vertex $-1 $339 $664 #
ellipse-curve $-1 5.1134182773412604 -17.189807092926706 6.2596039807388033 0 -0.68199836817093118 0.7313536940579346 1 0 0 1 I I #
face $-1 $-1 $355 $51 $-1 $665 reversed single #
loop $-1 $-1 $504 $340 #
plane-surface $-1 0 18.804442313618051 0 0 -1 0 0 0 -1 forward_v I I I I #
coedge $-1 $666 $494 $348 $503 reversed $341 $-1 #
coedge $-1 $508 $343 $344 $497 reversed $215 $-1 #
coedge $-1 $492 $667 $343 $495 reversed $341 $-1 #
edge $-1 $509 -7.7652757161106365 $668 7.7652757161106365 $494 $669 forward 7 unknown #
coedge $-1 $345 $344 $667 $670 forward $137 $-1 #
edge $-1 $501 -41.427045503097631 $668 41.427045503097631 $493 $671 forward 7 unknown #
coedge $-1 $505 $504 $345 $499 reversed $490 $-1 #
edge $-1 $672 -41.427045503097631 $500 41.427045503097631 $498 $673 forward 7 unknown #
vertex $-1 $347 $674 #
vertex $-1 $511 $675 #
straight-curve $-1 41.427045503097631 0 -7.7652757161106365 0 -1 0 I I #
edge $-1 $506 -18.804442313618051 $509 18.804442313618051 $492 $676 forward 7 unknown #
coedge $-1 $498 $349 $354 $512 forward $490 $-1 #
coedge $-1 $349 $498 $666 $677 reversed $490 $-1 #
vertex $-1 $350 $678 #
straight-curve $-1 0 18.804442313618051 7.7652757161106365 -1 0 0 I I #
coedge $-1 $351 $493 $353 $511 reversed $215 $-1 #
vertex $-1 $503 $679 #
straight-curve $-1 0 -18.804442313618051 7.7652757161106365 1 0 0 I I #
edge $-1 $356 -7.7652757161106365 $501 7.7652757161106365 $353 $680 forward 7 unknown #
edge $-1 $357 -7.7652757161106365 $500 7.7652757161106365 $354 $681 forward 7 unknown #
point $-1 41.427045503097631 -18.804442313618051 7.7652757161106365 #
point $-1 41.427045503097631 18.804442313618051 7.7652757161106365 #
face $-1 $-1 $682 $52 $-1 $683 reversed single #
loop $-1 $-1 $367 $359 #
plane-surface $-1 0 0 -7.7652757161106365 0 0 1 1 0 0 forward_v I I I I #
coedge $-1 $684 $362 $685 $686 reversed $223 $-1 #
coedge $-1 $362 $684 $522 $687 reversed $223 $-1 #
coedge $-1 $370 $369 $362 $521 reversed $360 $-1 #
edge $-1 $688 -7.7652757161106365 $689 7.7652757161106365 $520 $690 forward 7 unknown #
coedge $-1 $364 $363 $519 $687 forward $141 $-1 #
edge $-1 $372 -3.64004853078103 $688 3.64004853078103 $370 $691 forward 7 unknown #
coedge $-1 $692 $528 $364 $525 reversed $682 $-1 #
edge $-1 $693 -48.707142564659691 $526 -41.427045503097631 $524 $694 forward 7 unknown #
vertex $-1 $529 $695 #
straight-curve $-1 -41.427045503097631 0 7.7652757161106365 0 1 0 I I #
coedge $-1 $524 $696 $366 $529 forward $682 $-1 #
edge $-1 $532 -7.7652757161106365 $526 7.7652757161106365 $528 $697 forward 7 unknown #
coedge $-1 $685 $367 $696 $698 forward $516 $-1 #
coedge $-1 $367 $685 $369 $534 forward $516 $-1 #
vertex $-1 $698 $699 #
straight-curve $-1 -41.427045503097631 0 -7.7652757161106365 0 -1 0 I I #
edge $-1 $689 -3.64004853078103 $371 3.64004853078103 $369 $700 forward 7 unknown #
point $-1 -41.427045503097631 -15.804442313618051 -7.7652757161106365 #
point $-1 -41.427045503097631 -15.804442313618051 7.7652757161106365 #
loop $-1 $-1 $382 $374 #
plane-surface $-1 0 18.804442313618051 0 0 -1 0 0 0 -1 forward_v I I I I #
coedge $-1 $540 $377 $379 $544 reversed $231 $-1 #
coedge $-1 $377 $539 $701 $702 reversed $231 $-1 #
coedge $-1 $385 $380 $377 $542 forward $375 $-1 #
edge $-1 $545 -12.219915954854173 $703 -9.5263433223932701 $541 $704 forward 7 unknown #
coedge $-1 $379 $378 $548 $705 reversed $145 $-1 #
edge $-1 $706 -37.608884627236115 $545 -33.503198168270764 $539 $707 forward 7 unknown #
vertex $-1 $381 $708 #
straight-curve $-1 -10.501155094599245 16.110869681157148 7.7652757161106365 1 0 0 I I #
coedge $-1 $701 $382 $385 $552 reversed $537 $-1 #
coedge $-1 $382 $701 $543 $705 forward $537 $-1 #
vertex $-1 $383 $709 #
straight-curve $-1 -26.751170423019708 18.804442313618051 43.703817161454552 0 0 1 I I #
straight-curve $-1 -26.751170423019708 -5.869205657744871 33.050460619500448 0 0.65605901945558964 -0.75470958851134928 I I #
edge $-1 $703 15.253449955377272 $386 26.751170423019708 $547 $710 forward 7 unknown #
point $-1 -26.751170423019708 18.804442313618051 7.7652757161106365 #
point $-1 -26.751170423019708 16.110869681157148 7.7652757161106365 #
edge $-1 $711 1 $711 0 $389 $-1 forward 7 unknown #
vertex $-1 $390 $712 #
ellipse-curve $-1 -23.466107432264725 15.211331440719773 4.2632751509924915 0 0.75470958851134928 0.65605901945558964 1 0 0 1 I I #
point $-1 -22.466107432264725 17.457655997387604 6.215975247109462 #
edge $-1 $713 1 $713 0 $393 $-1 forward 7 unknown #
vertex $-1 $394 $714 #
ellipse-curve $-1 -18.538512946132254 15.211331440719773 4.2632751509924915 0 0.75470958851134928 0.65605901945558964 1 0 0 1 I I #
point $-1 -17.538512946132254 17.457655997387604 6.215975247109462 #
loop $-1 $-1 $405 $397 #
plane-surface $-1 0 18.804442313618051 0 0 -1 0 0 0 -1 forward_v I I I I #
coedge $-1 $566 $400 $402 $570 reversed $253 $-1 #
coedge $-1 $400 $565 $715 $716 reversed $253 $-1 #
coedge $-1 $408 $403 $400 $568 forward $398 $-1 #
edge $-1 $571 -12.219915954854173 $717 -9.5263433223932701 $567 $718 forward 7 unknown #
coedge $-1 $402 $401 $574 $719 reversed $159 $-1 #
edge $-1 $720 -37.608884627236115 $571 -33.503198168270764 $565 $721 forward 7 unknown #
vertex $-1 $404 $722 #
straight-curve $-1 -1.0544058515200945 16.110869681157148 7.7652757161106365 1 0 0 I I #
coedge $-1 $715 $405 $408 $578 reversed $563 $-1 #
coedge $-1 $405 $715 $569 $719 forward $563 $-1 #
vertex $-1 $406 $723 #
straight-curve $-1 -7.8576719368614061 18.804442313618051 43.703817161454552 0 0 1 I I #
straight-curve $-1 -7.8576719368614061 -5.869205657744871 33.050460619500448 0 0.65605901945558964 -0.75470958851134928 I I #
edge $-1 $717 -3.6400485307810282 $409 7.8576719368614061 $573 $724 forward 7 unknown #
point $-1 -7.8576719368614061 18.804442313618051 7.7652757161106365 #
point $-1 -7.8576719368614061 16.110869681157148 7.7652757161106365 #
edge $-1 $725 1 $725 0 $412 $-1 forward 7 unknown #
vertex $-1 $413 $726 #
ellipse-curve $-1 -4.5726089461064277 15.211331440719773 4.2632751509924915 0 0.75470958851134928 0.65605901945558964 1 0 0 1 I I #
point $-1 -3.5726089461064277 17.457655997387604 6.215975247109462 #
edge $-1 $727 1 $727 0 $416 $-1 forward 7 unknown #
vertex $-1 $417 $728 #
ellipse-curve $-1 0.35498554002604976 15.211331440719773 4.2632751509924915 0 0.75470958851134928 0.65605901945558964 1 0 0 1 I I #
point $-1 1.3549855400260498 17.457655997387604 6.215975247109462 #
loop $-1 $-1 $428 $420 #
plane-surface $-1 0 18.804442313618051 0 0 -1 0 0 0 -1 forward_v I I I I #
coedge $-1 $592 $423 $425 $596 reversed $275 $-1 #
coedge $-1 $423 $591 $729 $730 reversed $275 $-1 #
coedge $-1 $431 $426 $423 $594 forward $421 $-1 #
edge $-1 $597 -12.219915954854173 $731 -9.5263433223932701 $593 $732 forward 7 unknown #
coedge $-1 $425 $424 $600 $733 reversed $173 $-1 #
edge $-1 $734 -37.608884627236115 $597 -33.503198168270764 $591 $735 forward 7 unknown #
vertex $-1 $427 $736 #
straight-curve $-1 8.3923433915590557 16.110869681157148 7.7652757161106365 1 0 0 I I #
coedge $-1 $729 $428 $431 $604 reversed $589 $-1 #
coedge $-1 $428 $729 $595 $733 forward $589 $-1 #
vertex $-1 $429 $737 #
straight-curve $-1 11.035826549296894 18.804442313618051 43.703817161454552 0 0 1 I I #
straight-curve $-1 11.035826549296894 -5.869205657744871 33.050460619500448 0 0.65605901945558964 -0.75470958851134928 I I #
edge $-1 $731 -22.53354701693933 $432 -11.035826549296894 $599 $738 forward 7 unknown #
point $-1 11.035826549296894 18.804442313618051 7.7652757161106365 #
point $-1 11.035826549296894 16.110869681157148 7.7652757161106365 #
edge $-1 $739 1 $739 0 $435 $-1 forward 7 unknown #
vertex $-1 $436 $740 #
ellipse-curve $-1 14.320889540051873 15.211331440719773 4.2632751509924915 0 0.75470958851134928 0.65605901945558964 1 0 0 1 I I #
point $-1 15.320889540051873 17.457655997387604 6.215975247109462 #
edge $-1 $741 1 $741 0 $439 $-1 forward 7 unknown #
vertex $-1 $440 $742 #
ellipse-curve $-1 19.24848402618435 15.211331440719773 4.2632751509924915 0 0.75470958851134928 0.65605901945558964 1 0 0 1 I I #
point $-1 20.24848402618435 17.457655997387604 6.215975247109462 #
loop $-1 $-1 $450 $443 #
plane-surface $-1 0 18.804442313618051 0 0 -1 0 0 0 -1 forward_v I I I I #
coedge $-1 $743 $744 $447 $619 forward $444 $-1 #
coedge $-1 $447 $446 $624 $745 reversed $187 $-1 #
edge $-1 $621 19.106175746742238 $746 23.211862205707586 $617 $747 forward 7 unknown #
coedge $-1 $453 $448 $744 $748 forward $297 $-1 #
vertex $-1 $748 $749 #
straight-curve $-1 17.839092634638206 16.110869681157148 7.7652757161106365 1 0 0 I I #
coedge $-1 $750 $450 $453 $628 reversed $615 $-1 #
coedge $-1 $450 $750 $618 $745 forward $615 $-1 #
vertex $-1 $451 $751 #
straight-curve $-1 29.929325035455193 18.804442313618051 43.703817161454552 0 0 1 I I #
straight-curve $-1 29.929325035455193 -5.869205657744871 33.050460619500448 0 0.65605901945558964 -0.75470958851134928 I I #
edge $-1 $752 -41.427045503097631 $454 -29.929325035455193 $623 $753 forward 7 unknown #
point $-1 29.929325035455193 18.804442313618051 7.7652757161106365 #
point $-1 29.929325035455193 16.110869681157148 7.7652757161106365 #
edge $-1 $754 1 $754 0 $457 $-1 forward 7 unknown #
vertex $-1 $458 $755 #
ellipse-curve $-1 33.214388026210173 15.211331440719773 4.2632751509924915 0 0.75470958851134928 0.65605901945558964 1 0 0 1 I I #
point $-1 34.214388026210173 17.457655997387604 6.215975247109462 #
edge $-1 $756 1 $756 0 $461 $-1 forward 7 unknown #
vertex $-1 $462 $757 #
ellipse-curve $-1 38.141982512342651 15.211331440719773 4.2632751509924915 0 0.75470958851134928 0.65605901945558964 1 0 0 1 I I #
point $-1 39.141982512342651 17.457655997387604 6.215975247109462 #
plane-surface $-1 0 0 7.7652757161106365 0 0 1 1 0 0 forward_v I I I I #
coedge $-1 $650 $649 $642 $758 forward $466 $-1 #
coedge $-1 $642 $468 $470 $646 reversed $319 $-1 #
coedge $-1 $468 $641 $640 $758 reversed $319 $-1 #
coedge $-1 $476 $471 $468 $644 forward $477 $-1 #
edge $-1 $647 -22.080226715829156 $759 -18.850956274446464 $643 $760 forward 7 unknown #
coedge $-1 $470 $469 $650 $761 reversed $201 $-1 #
edge $-1 $762 -2.4500439789326819e-014 $647 4.4154701994666716 $641 $763 forward 7 unknown #
vertex $-1 $472 $764 #
straight-curve $-1 1.1651804753542372 -15.575171872235357 7.7652757161106365 -1 0 0 I I #
coedge $-1 $640 $473 $476 $654 reversed $466 $-1 #
coedge $-1 $473 $640 $645 $761 forward $466 $-1 #
vertex $-1 $474 $765 #
straight-curve $-1 8.8241613795183156 -18.804442313618051 32.674788885280094 0 0 1 I I #
straight-curve $-1 8.8241613795183156 -18.804442313618033 4.7539322453669897 0 -0.7313536940579346 -0.68199836817093118 I I #
edge $-1 $759 -4.1634394781013668 $478 8.8241613795183156 $649 $766 forward 7 unknown #
point $-1 8.8241613795183156 -18.804442313618051 7.7652757161106365 #
point $-1 8.8241613795183156 -15.575171872235357 7.7652757161106365 #
edge $-1 $767 1 $767 0 $481 $-1 forward 7 unknown #
vertex $-1 $482 $768 #
ellipse-curve $-1 -0.45269637592431877 -15.403544574137522 4.3440719902776825 0 -0.68199836817093118 0.7313536940579346 1 0 0 1 I I #
point $-1 0.54730362407568123 -17.189807092926721 6.2596039807388184 #
edge $-1 $769 1 $769 0 $485 $-1 forward 7 unknown #
vertex $-1 $486 $770 #
ellipse-curve $-1 5.1134182773412604 -15.403544574137522 4.3440719902776825 0 -0.68199836817093118 0.7313536940579346 1 0 0 1 I I #
point $-1 6.1134182773412604 -17.189807092926721 6.2596039807388184 #
plane-surface $-1 41.427045503097631 0 0 -1 0 0 0 0 1 forward_v I I I I #
coedge $-1 $667 $492 $505 $677 forward $341 $-1 #
coedge $-1 $494 $666 $496 $670 reversed $341 $-1 #
vertex $-1 $670 $771 #
straight-curve $-1 -41.427045503097631 -18.804442313618051 0 0 0 -1 I I #
edge $-1 $668 -18.804442313618051 $672 18.804442313618051 $667 $772 forward 7 unknown #
straight-curve $-1 0 -18.804442313618051 -7.7652757161106365 -1 0 0 I I #
vertex $-1 $499 $773 #
straight-curve $-1 0 18.804442313618051 -7.7652757161106365 1 0 0 I I #
point $-1 41.427045503097631 18.804442313618051 -7.7652757161106365 #
point $-1 41.427045503097631 -18.804442313618051 -7.7652757161106365 #
straight-curve $-1 -41.427045503097631 0 7.7652757161106365 0 -1 0 I I #
edge $-1 $506 -7.7652757161106365 $672 7.7652757161106365 $505 $774 forward 7 unknown #
point $-1 -41.427045503097631 18.804442313618051 7.7652757161106365 #
point $-1 -41.427045503097631 -18.804442313618051 7.7652757161106365 #
straight-curve $-1 41.427045503097631 -18.804442313618051 0 0 0 -1 I I #
straight-curve $-1 41.427045503097631 18.804442313618051 0 0 0 -1 I I #
loop $-1 $-1 $528 $515 #
plane-surface $-1 0 -18.804442313618051 0 0 1 0 0 0 1 forward_v I I I I #
coedge $-1 $519 $518 $692 $775 reversed $223 $-1 #
coedge $-1 $531 $530 $518 $686 forward $516 $-1 #
edge $-1 $776 -1.5 $689 1.5 $518 $777 forward 7 unknown #
edge $-1 $688 -1.5 $693 1.5 $519 $778 forward 7 unknown #
vertex $-1 $523 $779 #
vertex $-1 $534 $780 #
straight-curve $-1 -48.707142564659691 -15.804442313618051 0 0 0 -1 I I #
straight-curve $-1 -45.067094033878661 -15.804442313618051 7.7652757161106365 -1 0 0 I I #
coedge $-1 $696 $524 $684 $775 forward $682 $-1 #
vertex $-1 $687 $781 #
straight-curve $-1 0 -18.804442313618051 7.7652757161106365 1 0 0 I I #
point $-1 -41.427045503097631 -18.804442313618051 7.7652757161106365 #
coedge $-1 $528 $692 $530 $698 reversed $682 $-1 #
straight-curve $-1 -41.427045503097631 -18.804442313618051 0 0 0 1 I I #
edge $-1 $532 -3.64004853078103 $776 3.64004853078103 $696 $782 forward 7 unknown #
point $-1 -41.427045503097631 -18.804442313618051 -7.7652757161106365 #
straight-curve $-1 -45.067094033878661 -15.804442313618051 -7.7652757161106365 1 0 0 I I #
coedge $-1 $548 $547 $540 $702 forward $537 $-1 #
edge $-1 $703 35.938541445343915 $706 39.037142383346279 $701 $783 forward 7 unknown #
vertex $-1 $552 $784 #
straight-curve $-1 -15.253449955377272 28.330785636011321 7.7652757161106365 0 1 0 I I #
edge $-1 $706 4.7522948607780275 $549 16.250015328420464 $548 $785 forward 7 unknown #
vertex $-1 $705 $786 #
straight-curve $-1 -15.253449955377272 -5.869205657744871 33.050460619500448 0 -0.65605901945558964 0.75470958851134928 I I #
point $-1 -15.253449955377272 16.110869681157148 7.7652757161106365 #
point $-1 -26.751170423019708 18.804442313618047 4.6666747781082769 #
straight-curve $-1 0 18.804442313618051 7.7652757161106365 -1 0 0 I I #
vertex $-1 $555 $787 #
point $-1 -22.466107432264725 15.211331440719773 4.2632751509924915 #
vertex $-1 $559 $788 #
point $-1 -17.538512946132254 15.211331440719773 4.2632751509924915 #
coedge $-1 $574 $573 $566 $716 forward $563 $-1 #
edge $-1 $717 35.938541445343915 $720 39.037142383346279 $715 $789 forward 7 unknown #
vertex $-1 $578 $790 #
straight-curve $-1 3.6400485307810282 28.330785636011321 7.7652757161106365 0 1 0 I I #
edge $-1 $720 -4.6944543823011227 $575 6.8032660853413116 $574 $791 forward 7 unknown #
vertex $-1 $719 $792 #
straight-curve $-1 3.6400485307810282 -5.869205657744871 33.050460619500448 0 -0.65605901945558964 0.75470958851134928 I I #
point $-1 3.6400485307810282 16.110869681157148 7.7652757161106365 #
point $-1 -7.8576719368614061 18.804442313618047 4.6666747781082769 #
straight-curve $-1 0 18.804442313618051 7.7652757161106365 -1 0 0 I I #
vertex $-1 $581 $793 #
point $-1 -3.5726089461064277 15.211331440719773 4.2632751509924915 #
vertex $-1 $585 $794 #
point $-1 1.3549855400260498 15.211331440719773 4.2632751509924915 #
coedge $-1 $600 $599 $592 $730 forward $589 $-1 #
edge $-1 $731 35.938541445343915 $734 39.037142383346279 $729 $795 forward 7 unknown #
vertex $-1 $604 $796 #
straight-curve $-1 22.53354701693933 28.330785636011321 7.7652757161106365 0 1 0 I I #
edge $-1 $734 -14.141203625380275 $601 -2.6434831577378386 $600 $797 forward 7 unknown #
vertex $-1 $733 $798 #
straight-curve $-1 22.53354701693933 -5.869205657744871 33.050460619500448 0 -0.65605901945558964 0.75470958851134928 I I #
point $-1 22.53354701693933 16.110869681157148 7.7652757161106365 #
point $-1 11.035826549296894 18.804442313618047 4.6666747781082769 #
straight-curve $-1 0 18.804442313618051 7.7652757161106365 -1 0 0 I I #
vertex $-1 $607 $799 #
point $-1 15.320889540051873 15.211331440719773 4.2632751509924915 #
vertex $-1 $611 $800 #
point $-1 20.24848402618435 15.211331440719773 4.2632751509924915 #
coedge $-1 $744 $617 $750 $801 reversed $444 $-1 #
coedge $-1 $617 $743 $620 $748 reversed $444 $-1 #
edge $-1 $746 -23.587952868459425 $625 -12.090232400816987 $624 $802 forward 7 unknown #
vertex $-1 $619 $803 #
straight-curve $-1 41.427045503097631 3.5760907552032677 22.184889751959989 0 0.65605901945558975 -0.75470958851134939 I I #
edge $-1 $621 16.110869681157148 $752 18.804442313618051 $744 $804 forward 7 unknown #
point $-1 41.427045503097631 16.110869681157148 7.7652757161106365 #
coedge $-1 $624 $623 $743 $801 forward $615 $-1 #
point $-1 29.929325035455193 18.804442313618047 4.6666747781082769 #
vertex $-1 $748 $805 #
straight-curve $-1 0 18.804442313618051 7.7652757161106365 -1 0 0 I I #
vertex $-1 $631 $806 #
point $-1 34.214388026210173 15.211331440719773 4.2632751509924915 #
vertex $-1 $635 $807 #
point $-1 39.141982512342651 15.211331440719773 4.2632751509924915 #
edge $-1 $759 24.909513169169458 $762 27.920856639913122 $640 $808 forward 7 unknown #
vertex $-1 $654 $809 #
straight-curve $-1 -4.1634394781013668 -37.655398588064514 7.7652757161106365 0 -1 0 I I #
edge $-1 $762 -5.328619953455604 $651 7.6589809041640784 $650 $810 forward 7 unknown #
vertex $-1 $761 $811 #
straight-curve $-1 -4.1634394781013668 -18.804442313618033 4.7539322453669897 0 0.7313536940579346 0.68199836817093118 I I #
point $-1 -4.1634394781013668 -15.575171872235357 7.7652757161106365 #
point $-1 8.8241613795183156 -18.804442313618051 4.7539322453669728 #
straight-curve $-1 0 -18.804442313618051 7.7652757161106365 1 0 0 I I #
vertex $-1 $657 $812 #
point $-1 0.54730362407568123 -15.403544574137522 4.3440719902776825 #
vertex $-1 $661 $813 #
point $-1 6.1134182773412604 -15.403544574137522 4.3440719902776825 #
point $-1 -41.427045503097631 -18.804442313618051 -7.7652757161106365 #
straight-curve $-1 -41.427045503097631 0 -7.7652757161106365 0 1 0 I I #
point $-1 -41.427045503097631 18.804442313618051 -7.7652757161106365 #
straight-curve $-1 -41.427045503097631 18.804442313618051 0 0 0 -1 I I #
edge $-1 $693 -7.7652757161106365 $776 7.7652757161106365 $684 $814 forward 7 unknown #
vertex $-1 $686 $815 #
straight-curve $-1 -48.707142564659691 -17.304442313618051 -7.7652757161106365 0 1 0 I I #
straight-curve $-1 -48.707142564659691 -17.304442313618051 7.7652757161106365 0 -1 0 I I #
point $-1 -48.707142564659691 -15.804442313618051 7.7652757161106365 #
point $-1 -48.707142564659691 -15.804442313618051 -7.7652757161106365 #
point $-1 -48.707142564659691 -18.804442313618051 7.7652757161106365 #
straight-curve $-1 -45.067094033878661 -18.804442313618051 -7.7652757161106365 -1 0 0 I I #
straight-curve $-1 -15.253449955377272 18.804442313618051 43.703817161454552 0 0 -1 I I #
point $-1 -15.253449955377272 18.804442313618051 7.7652757161106365 #
straight-curve $-1 -10.501155094599245 18.804442313618054 4.6666747781082734 -1 0 0 I I #
point $-1 -15.253449955377272 18.804442313618047 4.6666747781082769 #
point $-1 -23.466107432264725 14.456621852208423 3.6072161315369016 #
point $-1 -18.538512946132254 14.456621852208423 3.6072161315369016 #
straight-curve $-1 3.6400485307810282 18.804442313618051 43.703817161454552 0 0 -1 I I #
point $-1 3.6400485307810282 18.804442313618051 7.7652757161106365 #
straight-curve $-1 -1.0544058515200945 18.804442313618054 4.6666747781082734 -1 0 0 I I #
point $-1 3.6400485307810282 18.804442313618047 4.6666747781082769 #
point $-1 -4.5726089461064277 14.456621852208423 3.6072161315369016 #
point $-1 0.35498554002604976 14.456621852208423 3.6072161315369016 #
straight-curve $-1 22.53354701693933 18.804442313618051 43.703817161454552 0 0 -1 I I #
point $-1 22.53354701693933 18.804442313618051 7.7652757161106365 #
straight-curve $-1 8.3923433915590557 18.804442313618054 4.6666747781082734 -1 0 0 I I #
point $-1 22.53354701693933 18.804442313618047 4.6666747781082769 #
point $-1 14.320889540051873 14.456621852208423 3.6072161315369016 #
point $-1 19.24848402618435 14.456621852208423 3.6072161315369016 #
edge $-1 $752 -7.7652757161106365 $746 -4.6666747781082769 $743 $816 forward 7 unknown #
straight-curve $-1 17.839092634638206 18.804442313618054 4.6666747781082734 -1 0 0 I I #
point $-1 41.427045503097631 18.804442313618047 4.6666747781082769 #
straight-curve $-1 41.427045503097631 0 7.7652757161106365 0 1 0 I I #
point $-1 41.427045503097631 18.804442313618051 7.7652757161106365 #
point $-1 33.214388026210173 14.456621852208423 3.6072161315369016 #
point $-1 38.141982512342651 14.456621852208423 3.6072161315369016 #
straight-curve $-1 -4.1634394781013668 -18.804442313618051 32.674788885280094 0 0 -1 I I #
point $-1 -4.1634394781013668 -18.804442313618051 7.7652757161106365 #
straight-curve $-1 1.1651804753542372 -18.804442313618051 4.7539322453669701 1 0 0 I I #
point $-1 -4.1634394781013668 -18.804442313618051 4.7539322453669728 #
point $-1 -0.45269637592431877 -14.721546205966591 3.6127182962197475 #
point $-1 5.1134182773412604 -14.721546205966591 3.6127182962197475 #
straight-curve $-1 -48.707142564659691 -18.804442313618051 0 0 0 -1 I I #
point $-1 -48.707142564659691 -18.804442313618051 -7.7652757161106365 #
straight-curve $-1 41.427045503097631 18.804442313618051 0 0 0 -1 I I #
End-of-ACIS-data 