500 0 9 0           
7 Unknown 11 ACIS 5.0 NT 24 Fri Mar 26 03:01:16 1999 
-1 9.9999999999999995e-007 1e-010 
body $-1 $9 $-1 $10 #
body $-1 $11 $-1 $12 #
body $-1 $13 $-1 $14 #
body $-1 $15 $-1 $16 #
body $-1 $17 $-1 $18 #
body $-1 $19 $-1 $20 #
body $-1 $21 $-1 $22 #
body $-1 $23 $-1 $24 #
body $-1 $25 $-1 $26 #
lump $-1 $-1 $27 $0 #
transform $-1 1 0 0 0 1 0 0 0 1 69.167149876400032 28.852962477967136 12.812962502308652 1 rotate no_reflect no_shear #
lump $-1 $-1 $28 $1 #
transform $-1 1 0 0 0 1 0 0 0 1 69.167149876400032 28.852962477967136 12.812962502308652 1 rotate no_reflect no_shear #
lump $-1 $-1 $29 $2 #
transform $-1 1 0 0 0 1 0 0 0 1 69.167149876400032 28.852962477967136 12.812962502308652 1 rotate no_reflect no_shear #
lump $-1 $-1 $30 $3 #
transform $-1 1 0 0 0 1 0 0 0 1 69.167149876400032 28.852962477967136 12.812962502308652 1 rotate no_reflect no_shear #
lump $-1 $-1 $31 $4 #
transform $-1 1 0 0 0 1 0 0 0 1 69.167149876400032 28.852962477967136 12.812962502308652 1 rotate no_reflect no_shear #
lump $-1 $-1 $32 $5 #
transform $-1 1 0 0 0 1 0 0 0 1 69.167149876400032 28.852962477967136 12.812962502308652 1 rotate no_reflect no_shear #
lump $-1 $-1 $33 $6 #
transform $-1 1 0 0 0 1 0 0 0 1 69.167149876400032 28.852962477967136 12.812962502308652 1 rotate no_reflect no_shear #
lump $-1 $-1 $34 $7 #
transform $-1 1 0 0 0 1 0 0 0 1 69.167149876400032 28.852962477967136 12.812962502308652 1 rotate no_reflect no_shear #
lump $-1 $-1 $35 $8 #
transform $-1 1 0 0 0 1 0 0 0 1 69.167149876400032 28.852962477967136 12.812962502308652 1 rotate no_reflect no_shear #
shell $-1 $-1 $-1 $36 $-1 $9 #
shell $-1 $-1 $-1 $37 $-1 $11 #
shell $-1 $-1 $-1 $38 $-1 $13 #
shell $-1 $-1 $-1 $39 $-1 $15 #
shell $-1 $-1 $-1 $40 $-1 $17 #
shell $-1 $-1 $-1 $41 $-1 $19 #
shell $-1 $-1 $-1 $42 $-1 $21 #
shell $-1 $-1 $-1 $43 $-1 $23 #
shell $-1 $-1 $-1 $44 $-1 $25 #
face $-1 $45 $46 $27 $-1 $47 reversed single #
face $-1 $48 $49 $28 $-1 $50 forward single #
face $-1 $51 $52 $29 $-1 $53 reversed single #
face $-1 $54 $55 $30 $-1 $56 forward single #
face $-1 $57 $58 $31 $-1 $59 forward single #
face $-1 $60 $61 $32 $-1 $62 reversed single #
face $-1 $63 $64 $33 $-1 $65 forward single #
face $-1 $66 $67 $34 $-1 $68 forward single #
face $-1 $69 $70 $35 $-1 $71 forward single #
face $-1 $72 $73 $27 $-1 $74 forward single #
loop $-1 $-1 $75 $36 #
plane-surface $-1 0 -28.852962477967136 0 0 1 0 0 0 1 forward_v I I I I #
face $-1 $76 $77 $28 $-1 $78 forward single #
loop $-1 $-1 $79 $37 #
plane-surface $-1 0 -28.852962477967136 0 0 1 0 0 0 1 forward_v I I I I #
face $-1 $80 $81 $29 $-1 $82 reversed single #
loop $-1 $-1 $83 $38 #
plane-surface $-1 109.84179890189137 9.9201428365816202 200.13144463421668 0 -1 0 -0.83867057594974714 0 -0.54463902268945019 forward_v I I I I #
face $-1 $84 $85 $30 $-1 $86 forward single #
loop $-1 $87 $88 $39 #
cone-surface $-1 67.165993028803172 0.054065715360266609 10.345093740622712 -0.83867057594974714 0 -0.54463902268945019 0.2723195113447251 0 -0.41933528797487357 1 I I 0 1 0.5 forward I I I I #
face $-1 $89 $90 $31 $-1 $91 forward single #
loop $-1 $92 $93 $40 #
cone-surface $-1 67.165993028803172 5.9737119880930756 10.345093740622712 -0.83867057594974714 0 -0.54463902268945019 0.2723195113447251 0 -0.41933528797487357 1 I I 0 1 0.5 forward I I I I #
face $-1 $94 $95 $32 $-1 $96 reversed single #
loop $-1 $-1 $97 $41 #
plane-surface $-1 -159.92261735196203 -8.3692976017325016 110.14858480457684 0 1 0 -0.6560590369687036 0 0.75470957328743171 forward_v I I I I #
face $-1 $98 $99 $33 $-1 $100 forward single #
loop $-1 $101 $102 $42 #
cone-surface $-1 -64.774524881593194 -6.189714944778931 8.9023086980733162 0.6560590369687036 0 -0.75470957328743171 0.37735478664371586 0 0.3280295184843518 1 I I 0 1 0.5 forward I I I I #
face $-1 $103 $104 $34 $-1 $105 forward single #
loop $-1 $106 $107 $43 #
cone-surface $-1 -64.774524881593194 -2.9203409593485752 8.9023086980733162 0.6560590369687036 0 -0.75470957328743171 0.37735478664371586 0 0.3280295184843518 1 I I 0 1 0.5 forward I I I I #
face $-1 $108 $109 $35 $-1 $110 forward single #
loop $-1 $111 $112 $44 #
cone-surface $-1 -64.774524881593194 0.34903302608178066 8.9023086980733162 0.6560590369687036 0 -0.75470957328743171 0.37735478664371586 0 0.3280295184843518 1 I I 0 1 0.5 forward I I I I #
face $-1 $113 $114 $27 $-1 $115 reversed single #
loop $-1 $-1 $116 $45 #
plane-surface $-1 0 0 12.812962502308652 0 0 1 1 0 0 forward_v I I I I #
coedge $-1 $117 $118 $119 $120 reversed $46 $-1 #
face $-1 $121 $122 $28 $-1 $123 reversed single #
loop $-1 $-1 $124 $48 #
plane-surface $-1 0 0 12.812962502308652 0 0 1 1 0 0 forward_v I I I I #
coedge $-1 $125 $126 $127 $128 forward $49 $-1 #
face $-1 $129 $130 $29 $-1 $131 reversed single #
loop $-1 $-1 $132 $51 #
plane-surface $-1 -6.17510794539443 3.0138888517266729 124.7891868124222 0.83867057594974714 0 0.54463902268945019 0.54463902268945019 0 -0.83867057594974714 forward_v I I I I #
coedge $-1 $133 $134 $135 $136 reversed $52 $-1 #
face $-1 $-1 $137 $30 $-1 $138 forward single #
loop $-1 $139 $140 $54 #
cone-surface $-1 66.267193455674857 0.054065715360266609 9.7614064918505203 -0.83867057594974714 0 -0.54463902268945019 0.13615975567236255 0 -0.20966764398743679 1 I I -0.70710678118654746 0.70710678118654746 0.25 forward I I I I #
loop $-1 $-1 $141 $39 #
coedge $-1 $88 $88 $142 $143 reversed $55 $-1 #
face $-1 $-1 $144 $31 $-1 $145 forward single #
loop $-1 $146 $147 $57 #
cone-surface $-1 66.267193455674857 5.9737119880930756 9.7614064918505203 -0.83867057594974714 0 -0.54463902268945019 0.13615975567236255 0 -0.20966764398743679 1 I I -0.70710678118654746 0.70710678118654746 0.25 forward I I I I #
loop $-1 $-1 $148 $40 #
coedge $-1 $93 $93 $149 $150 reversed $58 $-1 #
face $-1 $151 $152 $32 $-1 $153 reversed single #
loop $-1 $-1 $154 $60 #
plane-surface $-1 -69.167149876400046 -2.9203409593485752 5.7463644671254315 -0.6560590369687036 0 0.75470957328743171 0.75470957328743171 0 0.6560590369687036 forward_v I I I I #
coedge $-1 $155 $156 $157 $158 reversed $61 $-1 #
face $-1 $-1 $159 $33 $-1 $160 forward single #
loop $-1 $161 $162 $63 #
cone-surface $-1 -64.282480603866674 -6.189714944778931 8.3362765181077432 0.6560590369687036 0 -0.75470957328743171 0.18867739332185793 0 0.1640147592421759 1 I I -0.70710678118654746 0.70710678118654746 0.25 forward I I I I #
loop $-1 $-1 $163 $42 #
coedge $-1 $102 $102 $164 $165 reversed $64 $-1 #
face $-1 $-1 $166 $34 $-1 $167 forward single #
loop $-1 $168 $169 $66 #
cone-surface $-1 -64.282480603866674 -2.9203409593485752 8.3362765181077432 0.6560590369687036 0 -0.75470957328743171 0.18867739332185793 0 0.1640147592421759 1 I I -0.70710678118654746 0.70710678118654746 0.25 forward I I I I #
loop $-1 $-1 $170 $43 #
coedge $-1 $107 $107 $171 $172 reversed $67 $-1 #
face $-1 $-1 $173 $35 $-1 $174 forward single #
loop $-1 $175 $176 $69 #
cone-surface $-1 -64.282480603866674 0.34903302608178066 8.3362765181077432 0.6560590369687036 0 -0.75470957328743171 0.18867739332185793 0 0.1640147592421759 1 I I -0.70710678118654746 0.70710678118654746 0.25 forward I I I I #
loop $-1 $-1 $177 $44 #
coedge $-1 $112 $112 $178 $179 reversed $70 $-1 #
face $-1 $180 $181 $27 $-1 $182 reversed single #
loop $-1 $-1 $183 $72 #
plane-surface $-1 0 0 -12.812962502308652 0 0 1 1 0 0 forward_v I I I I #
coedge $-1 $184 $185 $186 $187 forward $73 $-1 #
coedge $-1 $188 $75 $189 $190 reversed $46 $-1 #
coedge $-1 $75 $188 $191 $192 forward $46 $-1 #
coedge $-1 $193 $183 $75 $120 forward $114 $-1 #
edge $-1 $194 -69.167149876400032 $195 69.167149876400032 $75 $196 forward 7 unknown #
face $-1 $197 $198 $28 $-1 $199 reversed single #
loop $-1 $-1 $200 $76 #
plane-surface $-1 -69.167149876400032 0 0 1 0 0 0 0 -1 forward_v I I I I #
coedge $-1 $201 $202 $126 $203 forward $77 $-1 #
coedge $-1 $204 $79 $205 $206 reversed $49 $-1 #
coedge $-1 $79 $204 $124 $203 reversed $49 $-1 #
coedge $-1 $207 $208 $79 $128 reversed $209 $-1 #
edge $-1 $210 -12.812962502308652 $211 12.812962502308652 $127 $212 forward 7 unknown #
face $-1 $213 $214 $29 $-1 $215 forward single #
loop $-1 $-1 $216 $80 #
plane-surface $-1 109.84179890189137 -3.8923651331282745 200.13144463421668 0 1 0 0.83867057594974714 0 0.54463902268945019 forward_v I I I I #
coedge $-1 $217 $218 $219 $220 reversed $81 $-1 #
coedge $-1 $134 $83 $221 $222 reversed $52 $-1 #
coedge $-1 $83 $133 $217 $223 reversed $52 $-1 #
coedge $-1 $219 $224 $83 $136 forward $214 $-1 #
edge $-1 $225 -14.246250425454349 $226 -11.62220058854237 $135 $227 forward 7 unknown #
loop $-1 $-1 $142 $84 #
plane-surface $-1 -6.17510794539443 3.0138888517266729 124.7891868124222 0.83867057594974714 0 0.54463902268945019 0.54463902268945019 0 -0.83867057594974714 forward_v I I I I #
loop $-1 $-1 $228 $54 #
coedge $-1 $140 $140 $141 $229 reversed $85 $-1 #
coedge $-1 $141 $141 $140 $229 forward $87 $-1 #
coedge $-1 $142 $142 $88 $143 forward $137 $-1 #
edge $-1 $230 0 $230 6.2831853071796004 $142 $231 forward 7 unknown #
loop $-1 $-1 $149 $89 #
plane-surface $-1 -6.17510794539443 3.0138888517266729 124.7891868124222 0.83867057594974714 0 0.54463902268945019 0.54463902268945019 0 -0.83867057594974714 forward_v I I I I #
loop $-1 $-1 $232 $57 #
coedge $-1 $147 $147 $148 $233 reversed $90 $-1 #
coedge $-1 $148 $148 $147 $233 forward $92 $-1 #
coedge $-1 $149 $149 $93 $150 forward $144 $-1 #
edge $-1 $234 0 $234 6.2831853071796004 $149 $235 forward 7 unknown #
face $-1 $236 $237 $32 $-1 $238 reversed single #
loop $-1 $-1 $239 $94 #
plane-surface $-1 -159.92261735196203 2.5286156830353512 110.14858480457684 0 -1 0 0.6560590369687036 0 -0.75470957328743171 forward_v I I I I #
coedge $-1 $240 $241 $242 $243 reversed $95 $-1 #
coedge $-1 $156 $97 $244 $245 reversed $61 $-1 #
coedge $-1 $97 $155 $240 $246 reversed $61 $-1 #
coedge $-1 $242 $247 $97 $158 forward $248 $-1 #
edge $-1 $249 10.794158799580984 $250 18.923349752225903 $157 $251 forward 7 unknown #
loop $-1 $-1 $164 $98 #
plane-surface $-1 -69.167149876400046 -2.9203409593485752 5.7463644671254315 -0.6560590369687036 0 0.75470957328743171 0.75470957328743171 0 0.6560590369687036 forward_v I I I I #
loop $-1 $-1 $252 $63 #
coedge $-1 $162 $162 $163 $253 reversed $99 $-1 #
coedge $-1 $163 $163 $162 $253 forward $101 $-1 #
coedge $-1 $164 $164 $102 $165 forward $159 $-1 #
edge $-1 $254 0 $254 6.2831853071796004 $164 $255 forward 7 unknown #
loop $-1 $-1 $171 $103 #
plane-surface $-1 -69.167149876400046 -2.9203409593485752 5.7463644671254315 -0.6560590369687036 0 0.75470957328743171 0.75470957328743171 0 0.6560590369687036 forward_v I I I I #
loop $-1 $-1 $256 $66 #
coedge $-1 $169 $169 $170 $257 reversed $104 $-1 #
coedge $-1 $170 $170 $169 $257 forward $106 $-1 #
coedge $-1 $171 $171 $107 $172 forward $166 $-1 #
edge $-1 $258 0 $258 6.2831853071796004 $171 $259 forward 7 unknown #
loop $-1 $-1 $178 $108 #
plane-surface $-1 -69.167149876400046 -2.9203409593485752 5.7463644671254315 -0.6560590369687036 0 0.75470957328743171 0.75470957328743171 0 0.6560590369687036 forward_v I I I I #
loop $-1 $-1 $260 $69 #
coedge $-1 $176 $176 $177 $261 reversed $109 $-1 #
coedge $-1 $177 $177 $176 $261 forward $111 $-1 #
coedge $-1 $178 $178 $112 $179 forward $173 $-1 #
edge $-1 $262 0 $262 6.2831853071796004 $178 $263 forward 7 unknown #
face $-1 $264 $265 $27 $-1 $266 reversed single #
loop $-1 $-1 $267 $113 #
plane-surface $-1 -69.167149876400032 0 0 1 0 0 0 0 -1 forward_v I I I I #
coedge $-1 $119 $268 $269 $270 forward $114 $-1 #
coedge $-1 $271 $116 $272 $273 forward $73 $-1 #
coedge $-1 $116 $271 $188 $274 forward $73 $-1 #
coedge $-1 $189 $275 $116 $187 reversed $276 $-1 #
edge $-1 $277 -28.852962477967136 $278 28.852962477967136 $186 $279 forward 7 unknown #
coedge $-1 $118 $117 $185 $274 reversed $46 $-1 #
coedge $-1 $269 $186 $117 $190 forward $276 $-1 #
edge $-1 $277 -12.812962502308652 $194 12.812962502308652 $189 $280 forward 7 unknown #
coedge $-1 $281 $282 $118 $192 reversed $181 $-1 #
edge $-1 $283 -12.812962502308652 $195 12.812962502308652 $191 $284 forward 7 unknown #
coedge $-1 $268 $119 $282 $285 forward $114 $-1 #
vertex $-1 $190 $286 #
vertex $-1 $285 $287 #
straight-curve $-1 0 -28.852962477967136 -12.812962502308652 -1 0 0 I I #
face $-1 $288 $209 $28 $-1 $289 reversed single #
loop $-1 $-1 $290 $121 #
plane-surface $-1 -67.287339254818917 -39.74890370432535 0 0 1 0 0 0 1 forward_v I I I I #
coedge $-1 $291 $292 $204 $293 forward $122 $-1 #
coedge $-1 $294 $124 $292 $295 forward $77 $-1 #
coedge $-1 $124 $294 $207 $296 forward $77 $-1 #
edge $-1 $210 65.407528633237803 $297 69.167149876400032 $124 $298 forward 7 unknown #
coedge $-1 $126 $125 $200 $293 reversed $49 $-1 #
coedge $-1 $299 $300 $125 $206 forward $301 $-1 #
edge $-1 $302 -69.167149876400032 $211 -65.407528633237803 $205 $303 forward 7 unknown #
coedge $-1 $304 $127 $202 $296 reversed $209 $-1 #
coedge $-1 $127 $304 $299 $305 reversed $209 $-1 #
loop $-1 $-1 $304 $197 #
vertex $-1 $203 $306 #
vertex $-1 $305 $307 #
straight-curve $-1 -65.407528633237803 -28.852962477967136 0 0 0 -1 I I #
face $-1 $-1 $308 $29 $-1 $309 reversed single #
loop $-1 $-1 $135 $129 #
plane-surface $-1 0 0 12.812962502308652 0 0 1 1 0 0 forward_v I I I I #
coedge $-1 $310 $311 $312 $313 reversed $130 $-1 #
coedge $-1 $314 $132 $134 $223 forward $81 $-1 #
coedge $-1 $132 $314 $310 $315 forward $81 $-1 #
coedge $-1 $312 $135 $132 $220 forward $214 $-1 #
edge $-1 $226 -8.4131984107182838 $316 5.3993095589916109 $219 $317 forward 7 unknown #
coedge $-1 $318 $319 $133 $222 forward $308 $-1 #
edge $-1 $320 -91.293442351971905 $225 -87.252759814799688 $221 $321 forward 7 unknown #
edge $-1 $226 133.51633826345557 $320 138.33429975280004 $134 $322 forward 7 unknown #
coedge $-1 $135 $312 $318 $323 forward $214 $-1 #
vertex $-1 $222 $324 #
vertex $-1 $136 $325 #
straight-curve $-1 54.920899450945683 9.9201428365816202 12.81296250230865 -1 0 0 I I #
coedge $-1 $228 $228 $-1 $326 reversed $139 $-1 #
edge $-1 $327 0 $327 6.2831853071796004 $140 $328 forward 7 unknown #
vertex $-1 $143 $329 #
ellipse-curve $-1 67.855124957944042 0.054065715360266609 10.792621233722544 0.83867057594974714 0 0.54463902268945019 0.2723195113447251 0 -0.41933528797487357 1 I I #
coedge $-1 $232 $232 $-1 $330 reversed $146 $-1 #
edge $-1 $331 0 $331 6.2831853071796004 $147 $332 forward 7 unknown #
vertex $-1 $150 $333 #
ellipse-curve $-1 67.855124957944042 5.9737119880930756 10.792621233722544 0.83867057594974714 0 0.54463902268945019 0.2723195113447251 0 -0.41933528797487357 1 I I #
face $-1 $-1 $248 $32 $-1 $334 forward single #
loop $-1 $-1 $335 $151 #
plane-surface $-1 -69.167149876400032 0 0 1 0 0 0 0 -1 forward_v I I I I #
coedge $-1 $336 $337 $338 $339 reversed $152 $-1 #
coedge $-1 $340 $154 $156 $246 forward $95 $-1 #
coedge $-1 $154 $340 $336 $341 forward $95 $-1 #
coedge $-1 $338 $157 $154 $243 forward $248 $-1 #
edge $-1 $250 -6.909127122058214 $342 3.9887861627096388 $242 $343 forward 7 unknown #
coedge $-1 $344 $345 $155 $245 forward $237 $-1 #
edge $-1 $346 -49.327927935162975 $249 -42.261329899979771 $244 $347 forward 7 unknown #
edge $-1 $250 -10.771283736649945 $346 -1.888283279974768e-014 $156 $348 forward 7 unknown #
coedge $-1 $157 $338 $344 $349 forward $248 $-1 #
loop $-1 $-1 $338 $236 #
vertex $-1 $245 $350 #
vertex $-1 $158 $351 #
straight-curve $-1 -79.961308675981016 -8.3692976017325016 12.81296250230865 1 0 0 I I #
coedge $-1 $252 $252 $-1 $352 reversed $161 $-1 #
edge $-1 $353 0 $353 6.2831853071796004 $162 $354 forward 7 unknown #
vertex $-1 $165 $355 #
ellipse-curve $-1 -65.102554400077565 -6.189714944778931 9.2796634847170552 -0.6560590369687036 0 0.75470957328743171 0.37735478664371586 0 0.3280295184843518 1 I I #
coedge $-1 $256 $256 $-1 $356 reversed $168 $-1 #
edge $-1 $357 0 $357 6.2831853071796004 $169 $358 forward 7 unknown #
vertex $-1 $172 $359 #
ellipse-curve $-1 -65.102554400077565 -2.9203409593485752 9.2796634847170552 -0.6560590369687036 0 0.75470957328743171 0.37735478664371586 0 0.3280295184843518 1 I I #
coedge $-1 $260 $260 $-1 $360 reversed $175 $-1 #
edge $-1 $361 0 $361 6.2831853071796004 $176 $362 forward 7 unknown #
vertex $-1 $179 $363 #
ellipse-curve $-1 -65.102554400077565 0.34903302608178066 9.2796634847170552 -0.6560590369687036 0 0.75470957328743171 0.37735478664371586 0 0.3280295184843518 1 I I #
face $-1 $-1 $276 $27 $-1 $364 reversed single #
loop $-1 $-1 $365 $180 #
plane-surface $-1 0 28.852962477967136 0 0 -1 0 0 0 -1 forward_v I I I I #
coedge $-1 $282 $281 $366 $367 forward $181 $-1 #
coedge $-1 $183 $193 $368 $369 forward $114 $-1 #
coedge $-1 $275 $189 $183 $270 reversed $276 $-1 #
edge $-1 $370 -28.852962477967136 $194 28.852962477967136 $269 $371 forward 7 unknown #
coedge $-1 $185 $184 $281 $372 forward $73 $-1 #
coedge $-1 $365 $366 $184 $273 reversed $265 $-1 #
edge $-1 $278 -69.167149876400032 $373 69.167149876400032 $272 $374 forward 7 unknown #
edge $-1 $283 -69.167149876400032 $277 69.167149876400032 $188 $375 forward 7 unknown #
coedge $-1 $186 $269 $365 $376 reversed $276 $-1 #
loop $-1 $-1 $189 $264 #
vertex $-1 $187 $377 #
vertex $-1 $187 $378 #
straight-curve $-1 69.167149876400032 0 12.812962502308652 0 1 0 I I #
straight-curve $-1 69.167149876400032 -28.852962477967136 0 0 0 -1 I I #
coedge $-1 $267 $191 $271 $372 reversed $181 $-1 #
coedge $-1 $191 $267 $193 $285 reversed $181 $-1 #
vertex $-1 $372 $379 #
straight-curve $-1 -69.167149876400032 -28.852962477967136 0 0 0 -1 I I #
edge $-1 $195 -28.852962477967136 $380 28.852962477967136 $282 $381 forward 7 unknown #
point $-1 69.167149876400032 -28.852962477967136 -12.812962502308652 #
point $-1 -69.167149876400032 -28.852962477967136 -12.812962502308652 #
face $-1 $-1 $301 $28 $-1 $382 reversed single #
plane-surface $-1 -65.407528633237803 -34.300933091146241 0 -1 0 0 0 0 1 forward_v I I I I #
coedge $-1 $383 $384 $385 $386 forward $198 $-1 #
coedge $-1 $385 $200 $300 $387 reversed $122 $-1 #
coedge $-1 $200 $385 $201 $295 reversed $122 $-1 #
edge $-1 $297 -12.812962502308652 $302 12.812962502308652 $200 $388 forward 7 unknown #
coedge $-1 $202 $201 $384 $389 forward $77 $-1 #
edge $-1 $297 28.852962477967136 $390 39.74890370432535 $292 $391 forward 7 unknown #
edge $-1 $392 -5.447970613179109 $210 5.4479706131791055 $207 $393 forward 7 unknown #
vertex $-1 $295 $394 #
straight-curve $-1 0 -28.852962477967136 12.812962502308652 -1 0 0 I I #
coedge $-1 $395 $205 $208 $305 forward $301 $-1 #
coedge $-1 $205 $395 $291 $387 forward $301 $-1 #
loop $-1 $-1 $205 $288 #
vertex $-1 $293 $396 #
straight-curve $-1 0 -28.852962477967136 -12.812962502308652 1 0 0 I I #
coedge $-1 $208 $207 $397 $398 forward $209 $-1 #
edge $-1 $211 -5.4479706131791055 $399 5.447970613179109 $208 $400 forward 7 unknown #
point $-1 -65.407528633237803 -28.852962477967136 12.812962502308652 #
point $-1 -65.407528633237803 -28.852962477967136 -12.812962502308652 #
loop $-1 $-1 $221 $213 #
plane-surface $-1 69.167149876400032 0 0 -1 0 0 0 0 1 forward_v I I I I #
coedge $-1 $311 $216 $218 $315 reversed $130 $-1 #
coedge $-1 $216 $310 $401 $402 reversed $130 $-1 #
coedge $-1 $224 $219 $216 $313 forward $214 $-1 #
edge $-1 $316 11.62220058854237 $403 14.246250425454349 $312 $404 forward 7 unknown #
coedge $-1 $218 $217 $319 $405 reversed $81 $-1 #
edge $-1 $406 -138.33429975280004 $316 -133.51633826345557 $310 $407 forward 7 unknown #
vertex $-1 $220 $408 #
straight-curve $-1 66.543100039488067 1.5069444258633364 12.81296250230865 0 -1 0 I I #
coedge $-1 $401 $221 $224 $323 reversed $308 $-1 #
coedge $-1 $221 $401 $314 $405 forward $308 $-1 #
vertex $-1 $222 $409 #
straight-curve $-1 69.167149876400032 9.9201428365816202 100.06572231710834 0 0 1 I I #
straight-curve $-1 -6.17510794539443 9.9201428365816202 124.7891868124222 0.54463902268945019 0 -0.83867057594974714 I I #
edge $-1 $403 -3.8923651331282745 $225 9.9201428365816202 $318 $410 forward 7 unknown #
point $-1 69.167149876400032 9.9201428365816202 12.812962502308652 #
point $-1 66.543100039488053 9.9201428365816202 12.812962502308665 #
edge $-1 $411 1 $411 0 $228 $-1 forward 7 unknown #
vertex $-1 $229 $412 #
ellipse-curve $-1 66.476861099662287 0.054065715360266609 9.8975662475228834 0.83867057594974714 0 0.54463902268945019 0.2723195113447251 0 -0.41933528797487357 1 I I #
point $-1 68.127444469288761 0.054065715360266609 10.373285945747668 #
edge $-1 $413 1 $413 0 $232 $-1 forward 7 unknown #
vertex $-1 $233 $414 #
ellipse-curve $-1 66.476861099662287 5.9737119880930756 9.8975662475228834 0.83867057594974714 0 0.54463902268945019 0.2723195113447251 0 -0.41933528797487357 1 I I #
point $-1 68.127444469288761 5.9737119880930756 10.373285945747668 #
plane-surface $-1 0 0 12.812962502308652 0 0 1 1 0 0 forward_v I I I I #
coedge $-1 $345 $344 $337 $415 forward $237 $-1 #
coedge $-1 $337 $239 $241 $341 reversed $152 $-1 #
coedge $-1 $239 $336 $335 $415 reversed $152 $-1 #
coedge $-1 $247 $242 $239 $339 forward $248 $-1 #
edge $-1 $342 -18.923349752225903 $416 -10.794158799580984 $338 $417 forward 7 unknown #
coedge $-1 $241 $240 $345 $418 reversed $95 $-1 #
edge $-1 $419 1.888283279974768e-014 $342 10.771283736649945 $336 $420 forward 7 unknown #
vertex $-1 $243 $421 #
straight-curve $-1 -61.037958923755113 -1.4601704796742876 12.812962502308654 0 1 0 I I #
coedge $-1 $335 $244 $247 $349 reversed $237 $-1 #
coedge $-1 $244 $335 $340 $418 forward $237 $-1 #
vertex $-1 $245 $422 #
straight-curve $-1 -69.167149876400032 -8.3692976017325016 55.074292402288421 0 0 1 I I #
straight-curve $-1 -69.167149876400046 -8.3692976017325016 5.7463644671254315 -0.75470957328743171 0 -0.6560590369687036 I I #
edge $-1 $416 -2.5286156830353512 $249 8.3692976017325016 $344 $423 forward 7 unknown #
point $-1 -69.167149876400032 -8.3692976017325016 12.812962502308652 #
point $-1 -61.037958923755113 -8.3692976017325016 12.812962502308652 #
edge $-1 $424 1 $424 0 $252 $-1 forward 7 unknown #
vertex $-1 $253 $425 #
ellipse-curve $-1 -64.446495363108852 -6.189714944778931 8.5249539114296002 -0.6560590369687036 0 0.75470957328743171 0.37735478664371586 0 0.3280295184843518 1 I I #
point $-1 -64.725199613433844 -6.189714944778931 9.6076930032013852 #
edge $-1 $426 1 $426 0 $256 $-1 forward 7 unknown #
vertex $-1 $257 $427 #
ellipse-curve $-1 -64.446495363108852 -2.9203409593485752 8.5249539114296002 -0.6560590369687036 0 0.75470957328743171 0.37735478664371586 0 0.3280295184843518 1 I I #
point $-1 -64.725199613433844 -2.9203409593485752 9.6076930032013852 #
edge $-1 $428 1 $428 0 $260 $-1 forward 7 unknown #
vertex $-1 $261 $429 #
ellipse-curve $-1 -64.446495363108852 0.34903302608178066 8.5249539114296002 -0.6560590369687036 0 0.75470957328743171 0.37735478664371586 0 0.3280295184843518 1 I I #
point $-1 -64.725199613433844 0.34903302608178066 9.6076930032013852 #
plane-surface $-1 69.167149876400032 0 0 -1 0 0 0 0 1 forward_v I I I I #
coedge $-1 $368 $272 $275 $376 forward $265 $-1 #
coedge $-1 $272 $368 $267 $367 reversed $265 $-1 #
edge $-1 $373 -12.812962502308652 $380 12.812962502308652 $366 $430 forward 7 unknown #
coedge $-1 $366 $365 $268 $369 reversed $265 $-1 #
edge $-1 $380 -69.167149876400032 $370 69.167149876400032 $368 $431 forward 7 unknown #
vertex $-1 $270 $432 #
straight-curve $-1 69.167149876400032 0 -12.812962502308652 0 -1 0 I I #
edge $-1 $373 -28.852962477967136 $283 28.852962477967136 $281 $433 forward 7 unknown #
vertex $-1 $273 $434 #
straight-curve $-1 0 28.852962477967136 12.812962502308652 -1 0 0 I I #
straight-curve $-1 0 -28.852962477967136 12.812962502308652 1 0 0 I I #
edge $-1 $278 -12.812962502308652 $370 12.812962502308652 $275 $435 forward 7 unknown #
point $-1 69.167149876400032 -28.852962477967136 12.812962502308652 #
point $-1 69.167149876400032 28.852962477967136 12.812962502308652 #
point $-1 -69.167149876400032 -28.852962477967136 12.812962502308652 #
vertex $-1 $369 $436 #
straight-curve $-1 -69.167149876400032 0 -12.812962502308652 0 1 0 I I #
plane-surface $-1 0 0 -12.812962502308652 0 0 1 1 0 0 forward_v I I I I #
coedge $-1 $397 $290 $395 $437 reversed $198 $-1 #
coedge $-1 $290 $397 $294 $389 reversed $198 $-1 #
coedge $-1 $292 $291 $290 $386 reversed $122 $-1 #
edge $-1 $390 -12.812962502308652 $438 12.812962502308652 $385 $439 forward 7 unknown #
edge $-1 $438 -39.74890370432535 $302 -28.852962477967136 $291 $440 forward 7 unknown #
straight-curve $-1 -69.167149876400032 -28.852962477967136 0 0 0 -1 I I #
edge $-1 $390 -1.8798106215811146 $392 1.8798106215811146 $384 $441 forward 7 unknown #
vertex $-1 $295 $442 #
straight-curve $-1 -69.167149876400032 0 12.812962502308652 0 -1 0 I I #
vertex $-1 $296 $443 #
straight-curve $-1 -65.407528633237803 -34.300933091146241 12.812962502308652 0 1 0 I I #
point $-1 -69.167149876400032 -28.852962477967136 12.812962502308652 #
coedge $-1 $300 $299 $383 $437 forward $301 $-1 #
point $-1 -69.167149876400032 -28.852962477967136 -12.812962502308652 #
coedge $-1 $384 $383 $304 $398 reversed $198 $-1 #
edge $-1 $392 -12.812962502308652 $399 12.812962502308652 $304 $444 forward 7 unknown #
vertex $-1 $398 $445 #
straight-curve $-1 -65.407528633237803 -34.300933091146241 -12.812962502308652 0 -1 0 I I #
coedge $-1 $319 $318 $311 $402 forward $308 $-1 #
edge $-1 $403 87.252759814799688 $406 91.293442351971905 $401 $446 forward 7 unknown #
vertex $-1 $323 $447 #
straight-curve $-1 54.920899450945683 -3.8923651331282745 12.81296250230865 1 0 0 I I #
edge $-1 $406 -5.3993095589916109 $320 8.4131984107182838 $319 $448 forward 7 unknown #
vertex $-1 $405 $449 #
straight-curve $-1 -6.17510794539443 -3.8923651331282745 124.7891868124222 -0.54463902268945019 0 0.83867057594974714 I I #
point $-1 66.543100039488053 -3.8923651331282745 12.812962502308665 #
point $-1 69.167149876400032 9.9201428365816202 8.772279965136434 #
straight-curve $-1 69.167149876400032 0 12.812962502308652 0 1 0 I I #
vertex $-1 $326 $450 #
point $-1 66.74918061100702 0.054065715360266609 9.478230959548009 #
vertex $-1 $330 $451 #
point $-1 66.74918061100702 5.9737119880930756 9.478230959548009 #
edge $-1 $416 42.261329899979771 $419 49.327927935162975 $335 $452 forward 7 unknown #
vertex $-1 $349 $453 #
straight-curve $-1 -79.961308675981016 2.5286156830353512 12.81296250230865 -1 0 0 I I #
edge $-1 $419 -3.9887861627096388 $346 6.909127122058214 $345 $454 forward 7 unknown #
vertex $-1 $418 $455 #
straight-curve $-1 -69.167149876400046 2.5286156830353512 5.7463644671254315 0.75470957328743171 0 0.6560590369687036 I I #
point $-1 -61.037958923755113 2.5286156830353512 12.812962502308652 #
point $-1 -69.167149876400032 -8.3692976017325016 5.7463644671254439 #
straight-curve $-1 -69.167149876400032 0 12.812962502308652 0 -1 0 I I #
vertex $-1 $352 $456 #
point $-1 -64.069140576465131 -6.189714944778931 8.8529834299139534 #
vertex $-1 $356 $457 #
point $-1 -64.069140576465131 -2.9203409593485752 8.8529834299139534 #
vertex $-1 $360 $458 #
point $-1 -64.069140576465131 0.34903302608178066 8.8529834299139534 #
straight-curve $-1 -69.167149876400032 28.852962477967136 0 0 0 -1 I I #
straight-curve $-1 0 28.852962477967136 -12.812962502308652 1 0 0 I I #
point $-1 69.167149876400032 28.852962477967136 -12.812962502308652 #
straight-curve $-1 -69.167149876400032 0 12.812962502308652 0 -1 0 I I #
point $-1 -69.167149876400032 28.852962477967136 12.812962502308652 #
straight-curve $-1 69.167149876400032 28.852962477967136 0 0 0 -1 I I #
point $-1 -69.167149876400032 28.852962477967136 -12.812962502308652 #
edge $-1 $399 -1.8798106215811146 $438 1.8798106215811146 $383 $459 forward 7 unknown #
vertex $-1 $387 $460 #
straight-curve $-1 -69.167149876400032 -39.74890370432535 0 0 0 -1 I I #
straight-curve $-1 -69.167149876400032 0 -12.812962502308652 0 1 0 I I #
straight-curve $-1 -67.287339254818917 -39.74890370432535 12.812962502308652 1 0 0 I I #
point $-1 -69.167149876400032 -39.74890370432535 12.812962502308652 #
point $-1 -65.407528633237803 -39.74890370432535 12.812962502308652 #
straight-curve $-1 -65.407528633237803 -39.74890370432535 0 0 0 -1 I I #
point $-1 -65.407528633237803 -39.74890370432535 -12.812962502308652 #
straight-curve $-1 69.167149876400032 -3.8923651331282745 100.06572231710834 0 0 -1 I I #
point $-1 69.167149876400032 -3.8923651331282745 12.812962502308652 #
straight-curve $-1 69.167149876400032 1.5069444258633364 8.772279965136434 0 1 0 I I #
point $-1 69.167149876400032 -3.8923651331282745 8.772279965136434 #
point $-1 66.057525811687427 0.054065715360266609 9.6252467361781573 #
point $-1 66.057525811687427 5.9737119880930756 9.6252467361781573 #
straight-curve $-1 -69.167149876400032 2.5286156830353512 55.074292402288421 0 0 -1 I I #
point $-1 -69.167149876400032 2.5286156830353512 12.812962502308652 #
straight-curve $-1 -69.167149876400032 -1.4601704796742876 5.7463644671254421 0 -1 0 I I #
point $-1 -69.167149876400032 2.5286156830353512 5.7463644671254439 #
point $-1 -64.118465844624495 -6.189714944778931 8.1475991247858861 #
point $-1 -64.118465844624495 -2.9203409593485752 8.1475991247858861 #
point $-1 -64.118465844624495 0.34903302608178066 8.1475991247858861 #
straight-curve $-1 -67.287339254818917 -39.74890370432535 -12.812962502308652 -1 0 0 I I #
point $-1 -69.167149876400032 -39.74890370432535 -12.812962502308652 #
End-of-ACIS-data 