500 0 6 0           
7 Unknown 11 ACIS 5.0 NT 24 Thu Mar 25 16:34:10 1999 
-1 9.9999999999999995e-007 1e-010 
body $-1 $6 $-1 $7 #
body $-1 $8 $-1 $9 #
body $-1 $10 $-1 $11 #
body $-1 $12 $-1 $13 #
body $-1 $14 $-1 $15 #
body $-1 $16 $-1 $17 #
lump $-1 $-1 $18 $0 #
transform $-1 1 0 0 0 1 0 0 0 1 62.802209540086061 34.500678526207068 16.599641325263757 1 rotate no_reflect no_shear #
lump $-1 $-1 $19 $1 #
transform $-1 1 0 0 0 1 0 0 0 1 62.802209540086061 34.500678526207068 16.599641325263757 1 rotate no_reflect no_shear #
lump $-1 $-1 $20 $2 #
transform $-1 1 0 0 0 1 0 0 0 1 62.802209540086061 34.500678526207068 16.599641325263757 1 rotate no_reflect no_shear #
lump $-1 $-1 $21 $3 #
transform $-1 1 0 0 0 1 0 0 0 1 62.802209540086061 34.500678526207068 16.599641325263757 1 rotate no_reflect no_shear #
lump $-1 $-1 $22 $4 #
transform $-1 1 0 0 0 1 0 0 0 1 62.802209540086061 34.500678526207068 16.599641325263757 1 rotate no_reflect no_shear #
lump $-1 $-1 $23 $5 #
transform $-1 1 0 0 0 1 0 0 0 1 62.802209540086061 34.500678526207068 16.599641325263757 1 rotate no_reflect no_shear #
shell $-1 $-1 $-1 $24 $-1 $6 #
shell $-1 $-1 $-1 $25 $-1 $8 #
shell $-1 $-1 $-1 $26 $-1 $10 #
shell $-1 $-1 $-1 $27 $-1 $12 #
shell $-1 $-1 $-1 $28 $-1 $14 #
shell $-1 $-1 $-1 $29 $-1 $16 #
face $-1 $30 $31 $18 $-1 $32 forward single #
face $-1 $33 $34 $19 $-1 $35 forward single #
face $-1 $36 $37 $20 $-1 $38 forward single #
face $-1 $39 $40 $21 $-1 $41 reversed single #
face $-1 $42 $43 $22 $-1 $44 forward single #
face $-1 $45 $46 $23 $-1 $47 forward single #
face $-1 $48 $49 $18 $-1 $50 reversed single #
loop $-1 $-1 $51 $24 #
plane-surface $-1 0 0 16.599641325263757 0 0 1 1 0 0 forward_v I I I I #
face $-1 $52 $53 $19 $-1 $54 reversed single #
loop $-1 $-1 $55 $25 #
plane-surface $-1 -62.802209540086061 0 0 1 0 0 0 0 -1 forward_v I I I I #
face $-1 $56 $57 $20 $-1 $58 reversed single #
loop $-1 $-1 $59 $26 #
plane-surface $-1 62.802209540086061 0 0 -1 0 0 0 0 1 forward_v I I I I #
face $-1 $60 $61 $21 $-1 $62 reversed single #
loop $-1 $-1 $63 $27 #
plane-surface $-1 20.397995805328261 -106.54441454064819 106.99843480018603 -1 0 0 0 -0.57357644374324357 0.81915203911291934 forward_v I I I I #
face $-1 $64 $65 $22 $-1 $66 forward single #
loop $-1 $67 $68 $28 #
cone-surface $-1 3.3534058795180854 -23.721912436889351 7.6984795050417496 0 0.57357644374324357 -0.81915203911291934 2 0 0 1 I I 0 1 2 forward I I I I #
face $-1 $69 $70 $23 $-1 $71 forward single #
loop $-1 $72 $73 $29 #
cone-surface $-1 13.580159835004189 -23.721912436889351 7.6984795050417496 0 0.57357644374324357 -0.81915203911291934 2 0 0 1 I I 0 1 2 forward I I I I #
face $-1 $74 $75 $18 $-1 $76 reversed single #
loop $-1 $-1 $77 $30 #
plane-surface $-1 0 0 -16.599641325263757 0 0 1 1 0 0 forward_v I I I I #
coedge $-1 $78 $79 $80 $81 forward $31 $-1 #
face $-1 $82 $83 $19 $-1 $84 reversed single #
loop $-1 $-1 $85 $33 #
plane-surface $-1 0 0 -16.599641325263757 0 0 1 1 0 0 forward_v I I I I #
coedge $-1 $86 $87 $88 $89 forward $34 $-1 #
face $-1 $90 $91 $20 $-1 $92 reversed single #
loop $-1 $-1 $93 $36 #
plane-surface $-1 0 0 -16.599641325263757 0 0 1 1 0 0 forward_v I I I I #
coedge $-1 $94 $95 $96 $97 forward $37 $-1 #
face $-1 $98 $99 $21 $-1 $100 reversed single #
loop $-1 $-1 $101 $39 #
plane-surface $-1 8.4667828572611441 -34.500678526207068 4.109318789069377 0 -0.57357644374324357 0.81915203911291934 1 0 0 forward_v I I I I #
coedge $-1 $102 $103 $104 $105 reversed $40 $-1 #
face $-1 $-1 $106 $22 $-1 $107 forward single #
loop $-1 $108 $109 $42 #
cone-surface $-1 3.3534058795180854 -21.28858434933943 4.2233269138040122 0 0.57357644374324357 -0.81915203911291934 1 0 0 1 I I -0.70710678118654746 0.70710678118654746 1 forward I I I I #
loop $-1 $-1 $110 $28 #
coedge $-1 $68 $68 $111 $112 reversed $43 $-1 #
face $-1 $-1 $113 $23 $-1 $114 forward single #
loop $-1 $115 $116 $45 #
cone-surface $-1 13.580159835004189 -21.28858434933943 4.2233269138040122 0 0.57357644374324357 -0.81915203911291934 1 0 0 1 I I -0.70710678118654746 0.70710678118654746 1 forward I I I I #
loop $-1 $-1 $117 $29 #
coedge $-1 $73 $73 $118 $119 reversed $46 $-1 #
face $-1 $120 $121 $18 $-1 $122 reversed single #
loop $-1 $-1 $123 $48 #
plane-surface $-1 0 -34.500678526207068 0 0 1 0 0 0 1 forward_v I I I I #
coedge $-1 $124 $125 $126 $127 forward $49 $-1 #
coedge $-1 $128 $51 $129 $130 forward $31 $-1 #
coedge $-1 $51 $128 $131 $132 forward $31 $-1 #
coedge $-1 $133 $134 $51 $81 reversed $135 $-1 #
edge $-1 $136 -34.500678526207068 $137 34.500678526207068 $80 $138 forward 7 unknown #
face $-1 $139 $140 $19 $-1 $141 reversed single #
loop $-1 $-1 $142 $52 #
plane-surface $-1 -72.569680243630899 -6.4274413090061895 0 0 1 0 0 0 1 forward_v I I I I #
coedge $-1 $143 $144 $87 $145 forward $53 $-1 #
coedge $-1 $146 $55 $147 $148 reversed $34 $-1 #
coedge $-1 $55 $146 $85 $145 reversed $34 $-1 #
coedge $-1 $149 $150 $55 $89 reversed $151 $-1 #
edge $-1 $152 -16.599641325263757 $153 16.599641325263757 $88 $154 forward 7 unknown #
face $-1 $155 $156 $20 $-1 $157 reversed single #
loop $-1 $-1 $96 $56 #
plane-surface $-1 72.569680243630899 -6.4274413090061895 0 0 1 0 0 0 1 forward_v I I I I #
coedge $-1 $158 $159 $95 $160 forward $57 $-1 #
coedge $-1 $161 $59 $162 $163 reversed $37 $-1 #
coedge $-1 $59 $161 $93 $160 reversed $37 $-1 #
coedge $-1 $164 $165 $59 $97 reversed $91 $-1 #
edge $-1 $166 -16.599641325263757 $167 16.599641325263757 $96 $168 forward 7 unknown #
face $-1 $169 $170 $21 $-1 $171 forward single #
loop $-1 $-1 $172 $60 #
plane-surface $-1 -3.4644300908059726 -106.54441454064819 106.99843480018603 1 0 0 0 0.57357644374324357 -0.81915203911291934 forward_v I I I I #
coedge $-1 $173 $174 $175 $176 reversed $61 $-1 #
coedge $-1 $103 $63 $177 $178 reversed $40 $-1 #
coedge $-1 $63 $102 $173 $179 reversed $40 $-1 #
coedge $-1 $175 $180 $63 $105 forward $170 $-1 #
edge $-1 $181 18.771528744117028 $182 36.609557635139097 $104 $183 forward 7 unknown #
loop $-1 $-1 $111 $64 #
plane-surface $-1 8.4667828572611441 -34.500678526207068 4.109318789069377 0 -0.57357644374324357 0.81915203911291934 1 0 0 forward_v I I I I #
loop $-1 $-1 $184 $42 #
coedge $-1 $109 $109 $110 $185 reversed $65 $-1 #
coedge $-1 $110 $110 $109 $185 forward $67 $-1 #
coedge $-1 $111 $111 $68 $112 forward $106 $-1 #
edge $-1 $186 -5.0943821938109186e-016 $186 6.2831853071795996 $111 $187 forward 7 unknown #
loop $-1 $-1 $118 $69 #
plane-surface $-1 8.4667828572611441 -34.500678526207068 4.109318789069377 0 -0.57357644374324357 0.81915203911291934 1 0 0 forward_v I I I I #
loop $-1 $-1 $188 $45 #
coedge $-1 $116 $116 $117 $189 reversed $70 $-1 #
coedge $-1 $117 $117 $116 $189 forward $72 $-1 #
coedge $-1 $118 $118 $73 $119 forward $113 $-1 #
edge $-1 $190 -5.0943821938109186e-016 $190 6.2831853071795996 $118 $191 forward 7 unknown #
face $-1 $192 $193 $18 $-1 $194 reversed single #
loop $-1 $-1 $195 $74 #
plane-surface $-1 -62.802209540086061 0 0 1 0 0 0 0 -1 forward_v I I I I #
coedge $-1 $196 $131 $197 $198 forward $75 $-1 #
coedge $-1 $199 $77 $196 $200 forward $49 $-1 #
coedge $-1 $77 $199 $201 $202 forward $49 $-1 #
coedge $-1 $134 $133 $77 $127 reversed $135 $-1 #
edge $-1 $203 -34.500678526207068 $204 34.500678526207068 $126 $205 forward 7 unknown #
coedge $-1 $79 $78 $206 $207 forward $31 $-1 #
coedge $-1 $208 $209 $78 $130 reversed $193 $-1 #
edge $-1 $137 -62.802209540086061 $210 62.802209540086061 $129 $211 forward 7 unknown #
coedge $-1 $123 $212 $79 $132 reversed $75 $-1 #
edge $-1 $213 -62.802209540086061 $136 62.802209540086061 $131 $214 forward 7 unknown #
coedge $-1 $126 $80 $212 $215 forward $135 $-1 #
coedge $-1 $80 $126 $208 $216 reversed $135 $-1 #
loop $-1 $-1 $133 $192 #
vertex $-1 $81 $217 #
vertex $-1 $81 $218 #
straight-curve $-1 62.802209540086061 0 16.599641325263757 0 1 0 I I #
face $-1 $219 $151 $19 $-1 $220 reversed single #
loop $-1 $-1 $221 $82 #
plane-surface $-1 -82.337150947175743 -3.8644185923428722 0 1 0 0 0 0 -1 forward_v I I I I #
coedge $-1 $222 $223 $224 $225 forward $83 $-1 #
coedge $-1 $226 $85 $222 $227 forward $53 $-1 #
coedge $-1 $85 $226 $149 $228 forward $53 $-1 #
edge $-1 $152 1.3013958756795549 $229 6.4274413090061895 $85 $230 forward 7 unknown #
coedge $-1 $87 $86 $231 $232 forward $34 $-1 #
coedge $-1 $233 $234 $86 $148 forward $235 $-1 #
edge $-1 $236 -6.4274413090061895 $153 -1.3013958756795549 $147 $237 forward 7 unknown #
coedge $-1 $238 $88 $144 $228 reversed $151 $-1 #
coedge $-1 $88 $238 $233 $239 reversed $151 $-1 #
loop $-1 $-1 $88 $139 #
vertex $-1 $145 $240 #
vertex $-1 $239 $241 #
straight-curve $-1 -62.802209540086061 -1.3013958756795549 0 0 0 1 I I #
face $-1 $242 $243 $20 $-1 $244 reversed single #
loop $-1 $-1 $245 $90 #
plane-surface $-1 72.569680243630899 -1.3013958756795549 0 0 -1 0 0 0 -1 forward_v I I I I #
coedge $-1 $246 $93 $247 $248 forward $57 $-1 #
coedge $-1 $93 $246 $164 $249 forward $57 $-1 #
edge $-1 $166 -6.4274413090061895 $250 -1.3013958756795549 $93 $251 forward 7 unknown #
coedge $-1 $95 $94 $252 $253 forward $37 $-1 #
coedge $-1 $254 $255 $94 $163 forward $256 $-1 #
edge $-1 $257 1.3013958756795549 $167 6.4274413090061895 $162 $258 forward 7 unknown #
coedge $-1 $259 $96 $159 $249 reversed $91 $-1 #
coedge $-1 $96 $259 $254 $260 reversed $91 $-1 #
vertex $-1 $160 $261 #
vertex $-1 $260 $262 #
straight-curve $-1 62.802209540086061 -6.4274413090061895 0 0 0 1 I I #
face $-1 $-1 $263 $21 $-1 $264 reversed single #
loop $-1 $-1 $104 $98 #
plane-surface $-1 0 0 16.599641325263757 0 0 1 1 0 0 forward_v I I I I #
coedge $-1 $265 $266 $267 $268 reversed $99 $-1 #
coedge $-1 $269 $101 $103 $179 forward $61 $-1 #
coedge $-1 $101 $269 $265 $270 forward $61 $-1 #
coedge $-1 $267 $104 $101 $176 forward $170 $-1 #
edge $-1 $182 -16.164604376697689 $271 7.6978215194365447 $175 $272 forward 7 unknown #
coedge $-1 $273 $274 $102 $178 forward $263 $-1 #
edge $-1 $275 -49.389898611023639 $181 -36.899576074829255 $177 $276 forward 7 unknown #
edge $-1 $182 -21.776212521352363 $275 0 $103 $277 forward 7 unknown #
coedge $-1 $104 $267 $273 $278 forward $170 $-1 #
vertex $-1 $105 $279 #
vertex $-1 $105 $280 #
straight-curve $-1 20.397995805328261 -53.272207270324095 16.599641325263754 0 1 0 I I #
coedge $-1 $184 $184 $-1 $281 reversed $108 $-1 #
edge $-1 $282 0 $282 6.2831853071796004 $109 $283 forward 7 unknown #
vertex $-1 $112 $284 #
ellipse-curve $-1 3.3534058795180854 -25.581664080696029 10.354480057166567 0 -0.57357644374324357 0.81915203911291934 2 0 0 1 I I #
coedge $-1 $188 $188 $-1 $285 reversed $115 $-1 #
edge $-1 $286 0 $286 6.2831853071796004 $116 $287 forward 7 unknown #
vertex $-1 $119 $288 #
ellipse-curve $-1 13.580159835004189 -25.581664080696029 10.354480057166567 0 -0.57357644374324357 0.81915203911291934 2 0 0 1 I I #
face $-1 $-1 $135 $18 $-1 $289 reversed single #
loop $-1 $-1 $208 $120 #
plane-surface $-1 0 34.500678526207068 0 0 -1 0 0 0 -1 forward_v I I I I #
coedge $-1 $290 $206 $209 $291 forward $121 $-1 #
coedge $-1 $212 $123 $124 $200 reversed $75 $-1 #
coedge $-1 $206 $290 $123 $198 reversed $121 $-1 #
edge $-1 $213 -16.599641325263757 $292 16.599641325263757 $197 $293 forward 7 unknown #
coedge $-1 $125 $124 $290 $294 forward $49 $-1 #
edge $-1 $204 -62.802209540086061 $292 62.802209540086061 $196 $295 forward 7 unknown #
coedge $-1 $209 $208 $125 $202 reversed $193 $-1 #
edge $-1 $296 -62.802209540086061 $203 62.802209540086061 $201 $297 forward 7 unknown #
vertex $-1 $127 $298 #
vertex $-1 $215 $299 #
straight-curve $-1 62.802209540086061 0 -16.599641325263757 0 -1 0 I I #
coedge $-1 $195 $197 $128 $207 reversed $121 $-1 #
edge $-1 $210 -34.500678526207068 $213 34.500678526207068 $206 $300 forward 7 unknown #
coedge $-1 $201 $129 $134 $216 forward $193 $-1 #
coedge $-1 $129 $201 $195 $291 reversed $193 $-1 #
vertex $-1 $130 $301 #
straight-curve $-1 0 34.500678526207068 16.599641325263757 -1 0 0 I I #
coedge $-1 $131 $196 $133 $215 reversed $75 $-1 #
vertex $-1 $207 $302 #
straight-curve $-1 0 -34.500678526207068 16.599641325263757 1 0 0 I I #
edge $-1 $136 -16.599641325263757 $204 16.599641325263757 $133 $303 forward 7 unknown #
edge $-1 $137 -16.599641325263757 $203 16.599641325263757 $134 $304 forward 7 unknown #
point $-1 62.802209540086061 -34.500678526207068 16.599641325263757 #
point $-1 62.802209540086061 34.500678526207068 16.599641325263757 #
face $-1 $-1 $235 $19 $-1 $305 forward single #
plane-surface $-1 -72.569680243630899 -1.3013958756795549 0 0 -1 0 0 0 -1 forward_v I I I I #
coedge $-1 $306 $307 $238 $308 forward $140 $-1 #
coedge $-1 $231 $142 $143 $227 reversed $83 $-1 #
coedge $-1 $142 $231 $234 $309 reversed $83 $-1 #
coedge $-1 $307 $306 $142 $225 reversed $140 $-1 #
edge $-1 $310 -16.599641325263757 $311 16.599641325263757 $224 $312 forward 7 unknown #
coedge $-1 $144 $143 $306 $313 forward $53 $-1 #
edge $-1 $229 -9.7674707035448449 $311 9.7674707035448449 $222 $314 forward 7 unknown #
edge $-1 $315 -9.7674707035448449 $152 9.7674707035448449 $149 $316 forward 7 unknown #
vertex $-1 $227 $317 #
straight-curve $-1 -62.802209540086061 0 -16.599641325263757 0 -1 0 I I #
coedge $-1 $223 $222 $146 $232 reversed $83 $-1 #
edge $-1 $236 -16.599641325263757 $229 16.599641325263757 $231 $318 forward 7 unknown #
coedge $-1 $319 $147 $150 $239 forward $235 $-1 #
coedge $-1 $147 $319 $223 $309 forward $235 $-1 #
loop $-1 $-1 $147 $219 #
vertex $-1 $148 $320 #
straight-curve $-1 -62.802209540086061 0 16.599641325263757 0 1 0 I I #
coedge $-1 $150 $149 $221 $308 reversed $151 $-1 #
edge $-1 $153 -9.7674707035448449 $321 9.7674707035448449 $150 $322 forward 7 unknown #
point $-1 -62.802209540086054 -1.3013958756795549 -16.599641325263757 #
point $-1 -62.802209540086054 -1.3013958756795549 16.599641325263757 #
face $-1 $-1 $256 $20 $-1 $323 forward single #
loop $-1 $-1 $324 $155 #
plane-surface $-1 82.337150947175729 -3.8644185923428722 0 -1 0 0 0 0 1 forward_v I I I I #
coedge $-1 $247 $325 $326 $327 forward $156 $-1 #
coedge $-1 $159 $158 $328 $329 forward $57 $-1 #
coedge $-1 $252 $245 $158 $248 reversed $156 $-1 #
edge $-1 $250 -9.7674707035448378 $330 9.7674707035448307 $247 $331 forward 7 unknown #
edge $-1 $332 -9.7674707035448307 $166 9.7674707035448378 $164 $333 forward 7 unknown #
vertex $-1 $248 $334 #
straight-curve $-1 62.802209540086061 0 -16.599641325263757 0 1 0 I I #
coedge $-1 $325 $247 $161 $253 reversed $156 $-1 #
edge $-1 $257 -16.599641325263757 $250 16.599641325263757 $252 $335 forward 7 unknown #
coedge $-1 $336 $162 $165 $260 forward $256 $-1 #
coedge $-1 $162 $336 $325 $337 forward $256 $-1 #
loop $-1 $-1 $162 $242 #
vertex $-1 $163 $338 #
straight-curve $-1 62.802209540086061 0 16.599641325263757 0 -1 0 I I #
coedge $-1 $165 $164 $324 $339 reversed $91 $-1 #
edge $-1 $167 -9.7674707035448378 $340 9.7674707035448307 $165 $341 forward 7 unknown #
point $-1 62.802209540086061 -6.4274413090061895 -16.599641325263757 #
point $-1 62.802209540086061 -6.4274413090061895 16.599641325263757 #
loop $-1 $-1 $177 $169 #
plane-surface $-1 0 -34.500678526207068 0 0 1 0 0 0 1 forward_v I I I I #
coedge $-1 $266 $172 $174 $270 reversed $99 $-1 #
coedge $-1 $172 $265 $342 $343 reversed $99 $-1 #
coedge $-1 $180 $175 $172 $268 forward $170 $-1 #
edge $-1 $271 -36.609557635139097 $344 -18.771528744117028 $267 $345 forward 7 unknown #
coedge $-1 $174 $173 $274 $346 reversed $61 $-1 #
edge $-1 $347 0 $271 21.776212521352363 $265 $348 forward 7 unknown #
vertex $-1 $176 $349 #
straight-curve $-1 4.2333914286305721 -16.662649635184994 16.599641325263757 -1 0 0 I I #
coedge $-1 $342 $177 $180 $278 reversed $263 $-1 #
coedge $-1 $177 $342 $269 $346 forward $263 $-1 #
vertex $-1 $178 $350 #
straight-curve $-1 20.397995805328261 -34.500678526207068 53.499217400093016 0 0 1 I I #
straight-curve $-1 20.397995805328261 -34.500678526207068 4.109318789069377 0 -0.81915203911291934 -0.57357644374324357 I I #
edge $-1 $344 -3.4644300908059726 $181 20.397995805328261 $273 $351 forward 7 unknown #
point $-1 20.397995805328261 -34.500678526207068 16.599641325263757 #
point $-1 20.397995805328261 -16.662649635184994 16.599641325263757 #
edge $-1 $352 1 $352 0 $184 $-1 forward 7 unknown #
vertex $-1 $185 $353 #
ellipse-curve $-1 3.3534058795180854 -21.862160793082673 5.0424789529169312 0 -0.57357644374324357 0.81915203911291934 2 0 0 1 I I #
point $-1 5.3534058795180854 -25.581664080696029 10.354480057166565 #
edge $-1 $354 1 $354 0 $188 $-1 forward 7 unknown #
vertex $-1 $189 $355 #
ellipse-curve $-1 13.580159835004189 -21.862160793082673 5.0424789529169312 0 -0.57357644374324357 0.81915203911291934 2 0 0 1 I I #
point $-1 15.580159835004189 -25.581664080696029 10.354480057166565 #
plane-surface $-1 62.802209540086061 0 0 -1 0 0 0 0 1 forward_v I I I I #
coedge $-1 $197 $195 $199 $294 reversed $121 $-1 #
edge $-1 $210 -16.599641325263757 $296 16.599641325263757 $209 $356 forward 7 unknown #
vertex $-1 $294 $357 #
straight-curve $-1 -62.802209540086061 -34.500678526207068 0 0 0 -1 I I #
edge $-1 $292 -34.500678526207068 $296 34.500678526207068 $290 $358 forward 7 unknown #
straight-curve $-1 0 -34.500678526207068 -16.599641325263757 -1 0 0 I I #
vertex $-1 $202 $359 #
straight-curve $-1 0 34.500678526207068 -16.599641325263757 1 0 0 I I #
point $-1 62.802209540086061 34.500678526207068 -16.599641325263757 #
point $-1 62.802209540086061 -34.500678526207068 -16.599641325263757 #
straight-curve $-1 -62.802209540086061 0 16.599641325263757 0 -1 0 I I #
point $-1 -62.802209540086061 34.500678526207068 16.599641325263757 #
point $-1 -62.802209540086061 -34.500678526207068 16.599641325263757 #
straight-curve $-1 62.802209540086061 -34.500678526207068 0 0 0 -1 I I #
straight-curve $-1 62.802209540086061 34.500678526207068 0 0 0 -1 I I #
plane-surface $-1 0 0 16.599641325263757 0 0 1 1 0 0 forward_v I I I I #
coedge $-1 $224 $221 $226 $313 reversed $140 $-1 #
coedge $-1 $221 $224 $319 $360 reversed $140 $-1 #
edge $-1 $321 -16.599641325263757 $315 16.599641325263757 $238 $361 forward 7 unknown #
edge $-1 $310 -9.7674707035448449 $236 9.7674707035448449 $223 $362 forward 7 unknown #
vertex $-1 $360 $363 #
vertex $-1 $313 $364 #
straight-curve $-1 -82.337150947175743 -6.4274413090061895 0 0 0 -1 I I #
edge $-1 $311 -2.5630227166633173 $315 2.5630227166633173 $306 $365 forward 7 unknown #
straight-curve $-1 -72.569680243630899 -6.4274413090061895 -16.599641325263757 -1 0 0 I I #
vertex $-1 $228 $366 #
straight-curve $-1 -72.569680243630899 -1.3013958756795549 -16.599641325263757 1 0 0 I I #
point $-1 -62.802209540086054 -6.4274413090061895 -16.599641325263757 #
straight-curve $-1 -62.802209540086061 -6.4274413090061895 0 0 0 -1 I I #
coedge $-1 $234 $233 $307 $360 forward $235 $-1 #
point $-1 -62.802209540086054 -6.4274413090061895 16.599641325263757 #
vertex $-1 $239 $367 #
straight-curve $-1 -72.569680243630899 -1.3013958756795549 16.599641325263757 -1 0 0 I I #
plane-surface $-1 0 0 16.599641325263757 0 0 1 1 0 0 forward_v I I I I #
coedge $-1 $328 $368 $259 $339 forward $243 $-1 #
coedge $-1 $245 $252 $255 $337 reversed $156 $-1 #
coedge $-1 $368 $328 $245 $327 reversed $243 $-1 #
edge $-1 $369 -16.599641325263757 $330 16.599641325263757 $326 $370 forward 7 unknown #
coedge $-1 $326 $324 $246 $329 reversed $243 $-1 #
edge $-1 $330 -2.5630227166633173 $332 2.5630227166633173 $328 $371 forward 7 unknown #
vertex $-1 $329 $372 #
straight-curve $-1 72.569680243630899 -1.3013958756795549 -16.599641325263757 1 0 0 I I #
vertex $-1 $339 $373 #
straight-curve $-1 72.569680243630899 -6.4274413090061895 -16.599641325263757 -1 0 0 I I #
point $-1 62.802209540086061 -1.3013958756795549 -16.599641325263757 #
straight-curve $-1 62.802209540086061 -1.3013958756795549 0 0 0 -1 I I #
coedge $-1 $255 $254 $368 $374 forward $256 $-1 #
edge $-1 $369 -9.7674707035448307 $257 9.7674707035448378 $325 $375 forward 7 unknown #
point $-1 62.802209540086061 -1.3013958756795549 16.599641325263757 #
edge $-1 $340 -16.599641325263757 $332 16.599641325263757 $324 $376 forward 7 unknown #
vertex $-1 $374 $377 #
straight-curve $-1 72.569680243630899 -6.4274413090061895 16.599641325263757 1 0 0 I I #
coedge $-1 $274 $273 $266 $343 forward $263 $-1 #
edge $-1 $344 36.899576074829255 $347 49.389898611023639 $342 $378 forward 7 unknown #
vertex $-1 $278 $379 #
straight-curve $-1 -3.4644300908059726 -53.272207270324095 16.599641325263754 0 -1 0 I I #
edge $-1 $347 -7.6978215194365447 $275 16.164604376697689 $274 $380 forward 7 unknown #
vertex $-1 $346 $381 #
straight-curve $-1 -3.4644300908059726 -34.500678526207068 4.109318789069377 0 0.81915203911291934 0.57357644374324357 I I #
point $-1 -3.4644300908059726 -16.662649635184994 16.599641325263757 #
point $-1 20.397995805328261 -34.500678526207068 4.109318789069377 #
straight-curve $-1 0 -34.500678526207068 16.599641325263757 1 0 0 I I #
vertex $-1 $281 $382 #
point $-1 5.3534058795180854 -21.862160793082673 5.0424789529169312 #
vertex $-1 $285 $383 #
point $-1 15.580159835004189 -21.862160793082673 5.0424789529169312 #
straight-curve $-1 -62.802209540086061 34.500678526207068 0 0 0 -1 I I #
point $-1 -62.802209540086061 -34.500678526207068 -16.599641325263757 #
straight-curve $-1 -62.802209540086061 0 -16.599641325263757 0 1 0 I I #
point $-1 -62.802209540086061 34.500678526207068 -16.599641325263757 #
edge $-1 $321 -2.5630227166633173 $310 2.5630227166633173 $307 $384 forward 7 unknown #
straight-curve $-1 -82.337150947175743 -1.3013958756795549 0 0 0 -1 I I #
straight-curve $-1 -72.569680243630899 -6.4274413090061895 16.599641325263757 1 0 0 I I #
point $-1 -82.337150947175743 -6.4274413090061895 16.599641325263757 #
point $-1 -82.337150947175743 -6.4274413090061895 -16.599641325263757 #
straight-curve $-1 -82.337150947175743 -3.8644185923428722 -16.599641325263757 0 1 0 I I #
point $-1 -82.337150947175743 -1.3013958756795549 -16.599641325263757 #
point $-1 -82.337150947175743 -1.3013958756795549 16.599641325263757 #
coedge $-1 $324 $326 $336 $374 reversed $243 $-1 #
vertex $-1 $374 $385 #
straight-curve $-1 82.337150947175729 -1.3013958756795549 0 0 0 -1 I I #
straight-curve $-1 82.337150947175729 -3.8644185923428722 -16.599641325263757 0 -1 0 I I #
point $-1 82.337150947175729 -1.3013958756795549 -16.599641325263757 #
point $-1 82.337150947175729 -6.4274413090061895 -16.599641325263757 #
edge $-1 $340 -2.5630227166633173 $369 2.5630227166633173 $368 $386 forward 7 unknown #
straight-curve $-1 72.569680243630899 -1.3013958756795549 16.599641325263757 -1 0 0 I I #
straight-curve $-1 82.337150947175729 -6.4274413090061895 0 0 0 -1 I I #
point $-1 82.337150947175729 -6.4274413090061895 16.599641325263757 #
straight-curve $-1 -3.4644300908059726 -34.500678526207068 53.499217400093016 0 0 -1 I I #
point $-1 -3.4644300908059726 -34.500678526207068 16.599641325263757 #
straight-curve $-1 4.2333914286305721 -34.500678526207068 4.1093187890693761 1 0 0 I I #
point $-1 -3.4644300908059726 -34.500678526207068 4.109318789069377 #
point $-1 3.3534058795180854 -20.715007905596188 3.4041748746910927 #
point $-1 13.580159835004189 -20.715007905596188 3.4041748746910927 #
straight-curve $-1 -82.337150947175743 -3.8644185923428722 16.599641325263757 0 -1 0 I I #
point $-1 82.337150947175729 -1.3013958756795549 16.599641325263757 #
straight-curve $-1 82.337150947175729 -3.8644185923428722 16.599641325263757 0 1 0 I I #
End-of-ACIS-data 