500 0 13 0           
7 Unknown 11 ACIS 5.0 NT 24 Fri Mar 26 03:20:03 1999 
-1 9.9999999999999995e-007 1e-010 
body $-1 $13 $-1 $14 #
body $-1 $15 $-1 $16 #
body $-1 $17 $-1 $18 #
body $-1 $19 $-1 $20 #
body $-1 $21 $-1 $22 #
body $-1 $23 $-1 $24 #
body $-1 $25 $-1 $26 #
body $-1 $27 $-1 $28 #
body $-1 $29 $-1 $30 #
body $-1 $31 $-1 $32 #
body $-1 $33 $-1 $34 #
body $-1 $35 $-1 $36 #
body $-1 $37 $-1 $38 #
lump $-1 $-1 $39 $0 #
transform $-1 1 0 0 0 1 0 0 0 1 40.059816278572953 21.44735102369388 8.8977019667924999 1 rotate no_reflect no_shear #
lump $-1 $-1 $40 $1 #
transform $-1 1 0 0 0 1 0 0 0 1 40.059816278572953 21.44735102369388 8.8977019667924999 1 rotate no_reflect no_shear #
lump $-1 $-1 $41 $2 #
transform $-1 1 0 0 0 1 0 0 0 1 40.059816278572953 21.44735102369388 8.8977019667924999 1 rotate no_reflect no_shear #
lump $-1 $-1 $42 $3 #
transform $-1 1 0 0 0 1 0 0 0 1 40.059816278572953 21.44735102369388 8.8977019667924999 1 rotate no_reflect no_shear #
lump $-1 $-1 $43 $4 #
transform $-1 1 0 0 0 1 0 0 0 1 40.059816278572953 21.44735102369388 8.8977019667924999 1 rotate no_reflect no_shear #
lump $-1 $-1 $44 $5 #
transform $-1 1 0 0 0 1 0 0 0 1 40.059816278572953 21.44735102369388 8.8977019667924999 1 rotate no_reflect no_shear #
lump $-1 $-1 $45 $6 #
transform $-1 1 0 0 0 1 0 0 0 1 40.059816278572953 21.44735102369388 8.8977019667924999 1 rotate no_reflect no_shear #
lump $-1 $-1 $46 $7 #
transform $-1 1 0 0 0 1 0 0 0 1 40.059816278572953 21.44735102369388 8.8977019667924999 1 rotate no_reflect no_shear #
lump $-1 $-1 $47 $8 #
transform $-1 1 0 0 0 1 0 0 0 1 40.059816278572953 21.44735102369388 8.8977019667924999 1 rotate no_reflect no_shear #
lump $-1 $-1 $48 $9 #
transform $-1 1 0 0 0 1 0 0 0 1 40.059816278572953 21.44735102369388 8.8977019667924999 1 rotate no_reflect no_shear #
lump $-1 $-1 $49 $10 #
transform $-1 1 0 0 0 1 0 0 0 1 40.059816278572953 21.44735102369388 8.8977019667924999 1 rotate no_reflect no_shear #
lump $-1 $-1 $50 $11 #
transform $-1 1 0 0 0 1 0 0 0 1 40.059816278572953 21.44735102369388 8.8977019667924999 1 rotate no_reflect no_shear #
lump $-1 $-1 $51 $12 #
transform $-1 1 0 0 0 1 0 0 0 1 40.059816278572953 21.44735102369388 8.8977019667924999 1 rotate no_reflect no_shear #
shell $-1 $-1 $-1 $52 $-1 $13 #
shell $-1 $-1 $-1 $53 $-1 $15 #
shell $-1 $-1 $-1 $54 $-1 $17 #
shell $-1 $-1 $-1 $55 $-1 $19 #
shell $-1 $-1 $-1 $56 $-1 $21 #
shell $-1 $-1 $-1 $57 $-1 $23 #
shell $-1 $-1 $-1 $58 $-1 $25 #
shell $-1 $-1 $-1 $59 $-1 $27 #
shell $-1 $-1 $-1 $60 $-1 $29 #
shell $-1 $-1 $-1 $61 $-1 $31 #
shell $-1 $-1 $-1 $62 $-1 $33 #
shell $-1 $-1 $-1 $63 $-1 $35 #
shell $-1 $-1 $-1 $64 $-1 $37 #
face $-1 $65 $66 $39 $-1 $67 forward single #
face $-1 $68 $69 $40 $-1 $70 reversed single #
face $-1 $71 $72 $41 $-1 $73 reversed single #
face $-1 $74 $75 $42 $-1 $76 reversed single #
face $-1 $77 $78 $43 $-1 $79 forward single #
face $-1 $80 $81 $44 $-1 $82 reversed single #
face $-1 $83 $84 $45 $-1 $85 forward single #
face $-1 $86 $87 $46 $-1 $88 forward single #
face $-1 $89 $90 $47 $-1 $91 forward single #
face $-1 $92 $93 $48 $-1 $94 reversed single #
face $-1 $95 $96 $49 $-1 $97 forward single #
face $-1 $98 $99 $50 $-1 $100 forward single #
face $-1 $101 $102 $51 $-1 $103 forward single #
face $-1 $104 $105 $39 $-1 $106 reversed single #
loop $-1 $-1 $107 $52 #
plane-surface $-1 0 0 8.8977019667924999 0 0 1 1 0 0 forward_v I I I I #
face $-1 $108 $109 $40 $-1 $110 reversed single #
loop $-1 $-1 $111 $53 #
plane-surface $-1 -36.345135004139301 0 5.8483103976318676 0 0 1 1 0 0 forward_v I I I I #
face $-1 $112 $113 $41 $-1 $114 reversed single #
loop $-1 $-1 $115 $54 #
plane-surface $-1 36.345135004139308 0 5.8483103976318676 0 0 1 1 0 0 forward_v I I I I #
face $-1 $116 $117 $42 $-1 $118 reversed single #
loop $-1 $-1 $119 $55 #
plane-surface $-1 28.382928039428435 -21.447351023693891 1.2046668679995918 0 -0.7660444514056185 0.64278759981090561 1 0 0 forward_v I I I I #
face $-1 $120 $121 $43 $-1 $122 forward single #
loop $-1 $123 $124 $56 #
cone-surface $-1 28.382928039428435 -16.863293680692347 3.9129911336462744 0 0.7660444514056185 -0.64278759981090561 2 0 0 1 I I 0 1 2 forward I I I I #
face $-1 $125 $126 $44 $-1 $127 reversed single #
loop $-1 $-1 $128 $57 #
plane-surface $-1 -26.127131601893993 52.285684445133583 88.272084753420941 1 0 0 0 -0.74314483375859142 -0.66913059716165679 forward_v I I I I #
face $-1 $129 $130 $45 $-1 $131 forward single #
loop $-1 $132 $133 $58 #
cone-surface $-1 -24.14148080936236 18.323652739750948 5.5065911617929739 0 -0.74314483375859142 -0.66913059716165679 0.5 0 0 1 I I 0 1 0.5 forward I I I I #
face $-1 $134 $135 $46 $-1 $136 forward single #
loop $-1 $137 $138 $59 #
cone-surface $-1 -21.163004620564916 18.323652739750948 5.5065911617929739 0 -0.74314483375859142 -0.66913059716165679 0.5 0 0 1 I I 0 1 0.5 forward I I I I #
face $-1 $139 $140 $47 $-1 $141 forward single #
loop $-1 $142 $143 $60 #
cone-surface $-1 -18.184528431767472 18.323652739750948 5.5065911617929739 0 -0.74314483375859142 -0.66913059716165679 0.5 0 0 1 I I 0 1 0.5 forward I I I I #
face $-1 $144 $145 $48 $-1 $146 reversed single #
loop $-1 $-1 $147 $61 #
plane-surface $-1 6.5033221278116589 52.285684445133583 88.272084753420941 1 0 0 0 -0.74314483375859142 -0.66913059716165679 forward_v I I I I #
face $-1 $148 $149 $49 $-1 $150 forward single #
loop $-1 $151 $152 $62 #
cone-surface $-1 8.4889729203432864 18.323652739750948 5.5065911617929739 0 -0.74314483375859142 -0.66913059716165679 0.5 0 0 1 I I 0 1 0.5 forward I I I I #
face $-1 $153 $154 $50 $-1 $155 forward single #
loop $-1 $156 $157 $63 #
cone-surface $-1 11.46744910914073 18.323652739750948 5.5065911617929739 0 -0.74314483375859142 -0.66913059716165679 0.5 0 0 1 I I 0 1 0.5 forward I I I I #
face $-1 $158 $159 $51 $-1 $160 forward single #
loop $-1 $161 $162 $64 #
cone-surface $-1 14.445925297938174 18.323652739750948 5.5065911617929739 0 -0.74314483375859142 -0.66913059716165679 0.5 0 0 1 I I 0 1 0.5 forward I I I I #
face $-1 $163 $164 $39 $-1 $165 reversed single #
loop $-1 $-1 $166 $65 #
plane-surface $-1 0 0 -8.8977019667924999 0 0 1 1 0 0 forward_v I I I I #
coedge $-1 $167 $168 $169 $170 forward $66 $-1 #
face $-1 $171 $172 $40 $-1 $173 reversed single #
loop $-1 $-1 $174 $68 #
plane-surface $-1 -32.63045372970565 0 7.3730061822121833 -1 0 0 0 0 1 forward_v I I I I #
coedge $-1 $175 $176 $177 $178 forward $69 $-1 #
face $-1 $179 $180 $41 $-1 $181 forward single #
loop $-1 $-1 $182 $71 #
plane-surface $-1 32.630453729705657 0 7.3730061822121833 1 0 0 0 0 -1 forward_v I I I I #
coedge $-1 $183 $184 $185 $186 reversed $72 $-1 #
face $-1 $187 $188 $42 $-1 $189 forward single #
loop $-1 $-1 $190 $74 #
plane-surface $-1 24.135402349151221 -82.822550992752454 52.704573177139096 1 0 0 0 0.7660444514056185 -0.64278759981090561 forward_v I I I I #
coedge $-1 $191 $192 $193 $194 reversed $75 $-1 #
face $-1 $-1 $195 $43 $-1 $196 forward single #
loop $-1 $197 $198 $77 #
cone-surface $-1 28.382928039428435 -14.740803258797962 2.1320102500856031 0 0.7660444514056185 -0.64278759981090561 1 0 0 1 I I -0.70710678118654746 0.70710678118654746 1 forward I I I I #
loop $-1 $-1 $199 $56 #
coedge $-1 $124 $124 $200 $201 reversed $78 $-1 #
face $-1 $202 $203 $44 $-1 $204 reversed single #
loop $-1 $-1 $205 $80 #
plane-surface $-1 -21.163004620564919 -7.2548065723460411 34.661587176085384 0 0.74314483375859142 0.66913059716165679 1 0 0 forward_v I I I I #
coedge $-1 $206 $207 $208 $209 reversed $81 $-1 #
face $-1 $-1 $210 $45 $-1 $211 forward single #
loop $-1 $212 $213 $83 #
cone-surface $-1 -24.14148080936236 17.766294114432004 5.0047432139217314 0 -0.74314483375859142 -0.66913059716165679 0.25 0 0 1 I I -0.70710678118654746 0.70710678118654746 0.25 forward I I I I #
loop $-1 $-1 $214 $58 #
coedge $-1 $133 $133 $215 $216 reversed $84 $-1 #
face $-1 $-1 $217 $46 $-1 $218 forward single #
loop $-1 $219 $220 $86 #
cone-surface $-1 -21.163004620564916 17.766294114432004 5.0047432139217314 0 -0.74314483375859142 -0.66913059716165679 0.25 0 0 1 I I -0.70710678118654746 0.70710678118654746 0.25 forward I I I I #
loop $-1 $-1 $221 $59 #
coedge $-1 $138 $138 $222 $223 reversed $87 $-1 #
face $-1 $-1 $224 $47 $-1 $225 forward single #
loop $-1 $226 $227 $89 #
cone-surface $-1 -18.184528431767472 17.766294114432004 5.0047432139217314 0 -0.74314483375859142 -0.66913059716165679 0.25 0 0 1 I I -0.70710678118654746 0.70710678118654746 0.25 forward I I I I #
loop $-1 $-1 $228 $60 #
coedge $-1 $143 $143 $229 $230 reversed $90 $-1 #
face $-1 $231 $232 $48 $-1 $233 reversed single #
loop $-1 $-1 $234 $92 #
plane-surface $-1 11.46744910914073 -7.2548065723460411 34.661587176085384 0 0.74314483375859142 0.66913059716165679 1 0 0 forward_v I I I I #
coedge $-1 $235 $236 $237 $238 reversed $93 $-1 #
face $-1 $-1 $239 $49 $-1 $240 forward single #
loop $-1 $241 $242 $95 #
cone-surface $-1 8.4889729203432864 17.766294114432004 5.0047432139217314 0 -0.74314483375859142 -0.66913059716165679 0.25 0 0 1 I I -0.70710678118654746 0.70710678118654746 0.25 forward I I I I #
loop $-1 $-1 $243 $62 #
coedge $-1 $152 $152 $244 $245 reversed $96 $-1 #
face $-1 $-1 $246 $50 $-1 $247 forward single #
loop $-1 $248 $249 $98 #
cone-surface $-1 11.46744910914073 17.766294114432004 5.0047432139217314 0 -0.74314483375859142 -0.66913059716165679 0.25 0 0 1 I I -0.70710678118654746 0.70710678118654746 0.25 forward I I I I #
loop $-1 $-1 $250 $63 #
coedge $-1 $157 $157 $251 $252 reversed $99 $-1 #
face $-1 $-1 $253 $51 $-1 $254 forward single #
loop $-1 $255 $256 $101 #
cone-surface $-1 14.445925297938174 17.766294114432004 5.0047432139217314 0 -0.74314483375859142 -0.66913059716165679 0.25 0 0 1 I I -0.70710678118654746 0.70710678118654746 0.25 forward I I I I #
loop $-1 $-1 $257 $64 #
coedge $-1 $162 $162 $258 $259 reversed $102 $-1 #
face $-1 $260 $261 $39 $-1 $262 reversed single #
loop $-1 $-1 $263 $104 #
plane-surface $-1 0 -21.44735102369388 0 0 1 0 0 0 1 forward_v I I I I #
coedge $-1 $264 $265 $266 $267 forward $105 $-1 #
coedge $-1 $268 $107 $269 $270 forward $66 $-1 #
coedge $-1 $107 $268 $271 $272 forward $66 $-1 #
coedge $-1 $273 $274 $107 $170 reversed $275 $-1 #
edge $-1 $276 -21.44735102369388 $277 21.44735102369388 $169 $278 forward 7 unknown #
face $-1 $279 $280 $40 $-1 $281 reversed single #
loop $-1 $-1 $282 $108 #
plane-surface $-1 0 21.44735102369388 0 0 -1 0 0 0 -1 forward_v I I I I #
coedge $-1 $177 $283 $284 $285 reversed $109 $-1 #
coedge $-1 $286 $111 $287 $288 reversed $69 $-1 #
coedge $-1 $111 $286 $289 $290 reversed $69 $-1 #
coedge $-1 $291 $174 $111 $178 reversed $109 $-1 #
edge $-1 $292 -21.44735102369388 $293 21.44735102369388 $177 $294 forward 7 unknown #
face $-1 $295 $296 $41 $-1 $297 reversed single #
loop $-1 $-1 $298 $112 #
plane-surface $-1 0 0 8.8977019667924999 0 0 1 1 0 0 forward_v I I I I #
coedge $-1 $299 $300 $298 $301 reversed $113 $-1 #
coedge $-1 $302 $115 $303 $304 reversed $72 $-1 #
coedge $-1 $115 $302 $305 $306 reversed $72 $-1 #
coedge $-1 $307 $308 $115 $186 forward $309 $-1 #
edge $-1 $310 -21.44735102369388 $311 21.44735102369388 $185 $312 forward 7 unknown #
face $-1 $313 $314 $42 $-1 $315 reversed single #
loop $-1 $-1 $193 $116 #
plane-surface $-1 0 0 8.8977019667924999 0 0 1 1 0 0 forward_v I I I I #
coedge $-1 $316 $317 $318 $319 reversed $117 $-1 #
coedge $-1 $320 $119 $321 $322 reversed $75 $-1 #
coedge $-1 $119 $320 $316 $323 forward $75 $-1 #
coedge $-1 $318 $324 $119 $194 forward $188 $-1 #
edge $-1 $325 -18.438989709991439 $326 -9.9439383294370032 $193 $327 forward 7 unknown #
loop $-1 $-1 $200 $120 #
plane-surface $-1 28.382928039428435 -21.447351023693891 1.2046668679995918 0 -0.7660444514056185 0.64278759981090561 1 0 0 forward_v I I I I #
loop $-1 $-1 $328 $77 #
coedge $-1 $198 $198 $199 $329 reversed $121 $-1 #
coedge $-1 $199 $199 $198 $329 forward $123 $-1 #
coedge $-1 $200 $200 $124 $201 forward $195 $-1 #
edge $-1 $330 -3.1665237886488363e-016 $330 6.2831853071796004 $200 $331 forward 7 unknown #
face $-1 $332 $333 $44 $-1 $334 reversed single #
loop $-1 $-1 $335 $125 #
plane-surface $-1 -16.198877639235846 52.285684445133583 88.272084753420941 -1 0 0 0 0.74314483375859142 0.66913059716165679 forward_v I I I I #
coedge $-1 $336 $337 $338 $339 reversed $126 $-1 #
coedge $-1 $207 $128 $340 $341 reversed $81 $-1 #
coedge $-1 $128 $206 $336 $342 reversed $81 $-1 #
coedge $-1 $338 $343 $128 $209 forward $344 $-1 #
edge $-1 $345 4.6954911988729116 $346 10.199742933000188 $208 $347 forward 7 unknown #
loop $-1 $-1 $215 $129 #
plane-surface $-1 -21.163004620564919 -7.2548065723460411 34.661587176085384 0 0.74314483375859142 0.66913059716165679 1 0 0 forward_v I I I I #
loop $-1 $-1 $348 $83 #
coedge $-1 $213 $213 $214 $349 reversed $130 $-1 #
coedge $-1 $214 $214 $213 $349 forward $132 $-1 #
coedge $-1 $215 $215 $133 $216 forward $210 $-1 #
edge $-1 $350 -2.3718959712476597e-015 $350 6.2831853071795978 $215 $351 forward 7 unknown #
loop $-1 $-1 $222 $134 #
plane-surface $-1 -21.163004620564919 -7.2548065723460411 34.661587176085384 0 0.74314483375859142 0.66913059716165679 1 0 0 forward_v I I I I #
loop $-1 $-1 $352 $86 #
coedge $-1 $220 $220 $221 $353 reversed $135 $-1 #
coedge $-1 $221 $221 $220 $353 forward $137 $-1 #
coedge $-1 $222 $222 $138 $223 forward $217 $-1 #
edge $-1 $354 -2.3718959712476597e-015 $354 6.2831853071795978 $222 $355 forward 7 unknown #
loop $-1 $-1 $229 $139 #
plane-surface $-1 -21.163004620564919 -7.2548065723460411 34.661587176085384 0 0.74314483375859142 0.66913059716165679 1 0 0 forward_v I I I I #
loop $-1 $-1 $356 $89 #
coedge $-1 $227 $227 $228 $357 reversed $140 $-1 #
coedge $-1 $228 $228 $227 $357 forward $142 $-1 #
coedge $-1 $229 $229 $143 $230 forward $224 $-1 #
edge $-1 $358 -2.3718959712476597e-015 $358 6.2831853071795978 $229 $359 forward 7 unknown #
face $-1 $360 $361 $48 $-1 $362 forward single #
loop $-1 $-1 $363 $144 #
plane-surface $-1 16.431576090469804 52.285684445133583 88.272084753420941 -1 0 0 0 0.74314483375859142 0.66913059716165679 forward_v I I I I #
coedge $-1 $364 $365 $366 $367 reversed $145 $-1 #
coedge $-1 $236 $147 $368 $369 reversed $93 $-1 #
coedge $-1 $147 $235 $364 $370 reversed $93 $-1 #
coedge $-1 $366 $371 $147 $238 forward $361 $-1 #
edge $-1 $372 4.6954911988729116 $373 10.199742933000188 $237 $374 forward 7 unknown #
loop $-1 $-1 $244 $148 #
plane-surface $-1 11.46744910914073 -7.2548065723460411 34.661587176085384 0 0.74314483375859142 0.66913059716165679 1 0 0 forward_v I I I I #
loop $-1 $-1 $375 $95 #
coedge $-1 $242 $242 $243 $376 reversed $149 $-1 #
coedge $-1 $243 $243 $242 $376 forward $151 $-1 #
coedge $-1 $244 $244 $152 $245 forward $239 $-1 #
edge $-1 $377 -2.3718959712476597e-015 $377 6.2831853071795978 $244 $378 forward 7 unknown #
loop $-1 $-1 $251 $153 #
plane-surface $-1 11.46744910914073 -7.2548065723460411 34.661587176085384 0 0.74314483375859142 0.66913059716165679 1 0 0 forward_v I I I I #
loop $-1 $-1 $379 $98 #
coedge $-1 $249 $249 $250 $380 reversed $154 $-1 #
coedge $-1 $250 $250 $249 $380 forward $156 $-1 #
coedge $-1 $251 $251 $157 $252 forward $246 $-1 #
edge $-1 $381 -2.3718959712476597e-015 $381 6.2831853071795978 $251 $382 forward 7 unknown #
loop $-1 $-1 $258 $158 #
plane-surface $-1 11.46744910914073 -7.2548065723460411 34.661587176085384 0 0.74314483375859142 0.66913059716165679 1 0 0 forward_v I I I I #
loop $-1 $-1 $383 $101 #
coedge $-1 $256 $256 $257 $384 reversed $159 $-1 #
coedge $-1 $257 $257 $256 $384 forward $161 $-1 #
coedge $-1 $258 $258 $162 $259 forward $253 $-1 #
edge $-1 $385 -2.3718959712476597e-015 $385 6.2831853071795978 $258 $386 forward 7 unknown #
face $-1 $387 $388 $39 $-1 $389 reversed single #
loop $-1 $-1 $390 $163 #
plane-surface $-1 -40.059816278572953 0 0 1 0 0 0 0 -1 forward_v I I I I #
coedge $-1 $391 $271 $392 $393 forward $164 $-1 #
coedge $-1 $394 $166 $391 $395 forward $105 $-1 #
coedge $-1 $166 $394 $396 $397 forward $105 $-1 #
coedge $-1 $274 $273 $166 $267 reversed $275 $-1 #
edge $-1 $398 -21.44735102369388 $399 21.44735102369388 $266 $400 forward 7 unknown #
coedge $-1 $168 $167 $401 $402 forward $66 $-1 #
coedge $-1 $403 $404 $167 $270 reversed $388 $-1 #
edge $-1 $277 -40.059816278572953 $405 40.059816278572953 $269 $406 forward 7 unknown #
coedge $-1 $263 $407 $168 $272 reversed $164 $-1 #
edge $-1 $408 -40.059816278572953 $276 40.059816278572953 $271 $409 forward 7 unknown #
coedge $-1 $266 $169 $407 $410 forward $275 $-1 #
coedge $-1 $169 $266 $403 $411 reversed $275 $-1 #
loop $-1 $-1 $273 $387 #
vertex $-1 $170 $412 #
vertex $-1 $170 $413 #
straight-curve $-1 40.059816278572953 0 8.8977019667924999 0 1 0 I I #
face $-1 $414 $415 $40 $-1 $416 forward single #
loop $-1 $-1 $417 $171 #
plane-surface $-1 -40.059816278572953 0 0 1 0 0 0 0 -1 forward_v I I I I #
coedge $-1 $289 $418 $291 $419 forward $172 $-1 #
coedge $-1 $174 $291 $420 $421 reversed $109 $-1 #
coedge $-1 $422 $287 $174 $285 forward $423 $-1 #
edge $-1 $293 2.1618073065257759 $424 5.2111988756864083 $284 $425 forward 7 unknown #
coedge $-1 $176 $175 $417 $426 reversed $69 $-1 #
coedge $-1 $284 $427 $175 $288 forward $423 $-1 #
edge $-1 $428 -21.887248776503302 $293 -14.457886227635999 $287 $429 forward 7 unknown #
coedge $-1 $430 $282 $176 $290 forward $172 $-1 #
edge $-1 $292 14.457886227635999 $431 21.887248776503302 $289 $432 forward 7 unknown #
coedge $-1 $283 $177 $282 $419 reversed $109 $-1 #
vertex $-1 $290 $433 #
vertex $-1 $288 $434 #
straight-curve $-1 -32.63045372970565 0 5.8483103976318676 0 -1 0 I I #
face $-1 $435 $436 $41 $-1 $437 reversed single #
loop $-1 $-1 $438 $179 #
plane-surface $-1 0 -21.44735102369388 0 0 1 0 0 0 1 forward_v I I I I #
coedge $-1 $439 $440 $182 $301 forward $180 $-1 #
coedge $-1 $441 $182 $442 $443 reversed $113 $-1 #
coedge $-1 $182 $441 $438 $444 reversed $113 $-1 #
edge $-1 $445 -21.44735102369388 $446 21.44735102369388 $298 $447 forward 7 unknown #
coedge $-1 $184 $183 $441 $448 forward $72 $-1 #
coedge $-1 $449 $438 $183 $304 forward $296 $-1 #
edge $-1 $450 14.457886227636003 $310 21.887248776503306 $303 $451 forward 7 unknown #
coedge $-1 $442 $452 $184 $306 forward $436 $-1 #
edge $-1 $311 -21.887248776503306 $453 -14.457886227636003 $305 $454 forward 7 unknown #
coedge $-1 $455 $185 $452 $456 reversed $309 $-1 #
coedge $-1 $185 $455 $449 $457 forward $309 $-1 #
loop $-1 $-1 $185 $435 #
vertex $-1 $304 $458 #
vertex $-1 $186 $459 #
straight-curve $-1 40.059816278572953 0 5.8483103976318676 0 1 0 I I #
face $-1 $-1 $460 $42 $-1 $461 forward single #
loop $-1 $-1 $462 $187 #
plane-surface $-1 0 -21.44735102369388 0 0 1 0 0 0 1 forward_v I I I I #
coedge $-1 $317 $190 $192 $323 reversed $117 $-1 #
coedge $-1 $190 $316 $462 $463 reversed $117 $-1 #
coedge $-1 $464 $193 $190 $319 forward $188 $-1 #
edge $-1 $326 -26.419147217707859 $465 -19.963924472682347 $318 $466 forward 7 unknown #
coedge $-1 $192 $191 $467 $468 reversed $75 $-1 #
coedge $-1 $469 $470 $191 $322 forward $460 $-1 #
edge $-1 $471 -9.2556566964309148 $325 0.78688728998777036 $321 $472 forward 7 unknown #
edge $-1 $473 1.6546395036574903e-014 $326 10.042543986418707 $316 $474 forward 7 unknown #
coedge $-1 $193 $464 $469 $475 forward $188 $-1 #
vertex $-1 $322 $476 #
vertex $-1 $194 $477 #
straight-curve $-1 14.191464019714218 -14.992128278668369 8.8977019667924999 -1 0 0 I I #
coedge $-1 $328 $328 $-1 $478 reversed $197 $-1 #
edge $-1 $479 0 $479 6.2831853071796004 $198 $480 forward 7 unknown #
vertex $-1 $201 $481 #
ellipse-curve $-1 28.382928039428435 -18.219739651181126 5.0511844173960503 0 -0.7660444514056185 0.64278759981090561 2 0 0 1 I I #
face $-1 $-1 $344 $44 $-1 $482 forward single #
loop $-1 $-1 $483 $202 #
plane-surface $-1 0 21.44735102369388 0 0 -1 0 0 0 -1 forward_v I I I I #
coedge $-1 $484 $485 $486 $487 reversed $203 $-1 #
coedge $-1 $488 $205 $207 $342 forward $126 $-1 #
coedge $-1 $205 $488 $484 $489 forward $126 $-1 #
coedge $-1 $486 $208 $205 $339 forward $344 $-1 #
edge $-1 $346 -15.545629291611533 $490 -5.6173753289533863 $338 $491 forward 7 unknown #
coedge $-1 $492 $493 $206 $341 forward $333 $-1 #
edge $-1 $494 -41.351431422755383 $345 -35.238340409917967 $340 $495 forward 7 unknown #
edge $-1 $346 34.668726793116896 $494 42.89470204738776 $207 $496 forward 7 unknown #
coedge $-1 $208 $486 $492 $497 forward $344 $-1 #
loop $-1 $-1 $486 $332 #
vertex $-1 $341 $498 #
vertex $-1 $209 $499 #
straight-curve $-1 -26.127131601893993 26.142842222566792 8.8977019667924964 0 -1 0 I I #
coedge $-1 $348 $348 $-1 $500 reversed $212 $-1 #
edge $-1 $501 0 $501 6.2831853071796004 $213 $502 forward 7 unknown #
vertex $-1 $216 $503 #
ellipse-curve $-1 -24.14148080936236 18.695225156630237 5.8411564603737949 0 0.74314483375859142 0.66913059716165679 0.5 0 0 1 I I #
coedge $-1 $352 $352 $-1 $504 reversed $219 $-1 #
edge $-1 $505 0 $505 6.2831853071796004 $220 $506 forward 7 unknown #
vertex $-1 $223 $507 #
ellipse-curve $-1 -21.163004620564916 18.695225156630237 5.8411564603737949 0 0.74314483375859142 0.66913059716165679 0.5 0 0 1 I I #
coedge $-1 $356 $356 $-1 $508 reversed $226 $-1 #
edge $-1 $509 0 $509 6.2831853071796004 $227 $510 forward 7 unknown #
vertex $-1 $230 $511 #
ellipse-curve $-1 -18.184528431767472 18.695225156630237 5.8411564603737949 0 0.74314483375859142 0.66913059716165679 0.5 0 0 1 I I #
face $-1 $-1 $512 $48 $-1 $513 reversed single #
loop $-1 $-1 $237 $231 #
plane-surface $-1 0 0 8.8977019667924999 0 0 1 1 0 0 forward_v I I I I #
coedge $-1 $514 $515 $516 $517 reversed $232 $-1 #
coedge $-1 $518 $234 $236 $370 forward $145 $-1 #
coedge $-1 $234 $518 $514 $519 forward $145 $-1 #
coedge $-1 $516 $237 $234 $367 forward $361 $-1 #
edge $-1 $373 0.76959757324129363 $520 10.697851535899439 $366 $521 forward 7 unknown #
coedge $-1 $522 $523 $235 $369 forward $512 $-1 #
edge $-1 $524 -41.351431422755383 $372 -35.238340409917967 $368 $525 forward 7 unknown #
edge $-1 $373 34.668726793116896 $524 42.89470204738776 $236 $526 forward 7 unknown #
coedge $-1 $237 $516 $522 $527 forward $361 $-1 #
vertex $-1 $238 $528 #
vertex $-1 $238 $529 #
straight-curve $-1 6.5033221278116589 26.142842222566792 8.8977019667924964 0 -1 0 I I #
coedge $-1 $375 $375 $-1 $530 reversed $241 $-1 #
edge $-1 $531 0 $531 6.2831853071796004 $242 $532 forward 7 unknown #
vertex $-1 $245 $533 #
ellipse-curve $-1 8.4889729203432864 18.695225156630237 5.8411564603737949 0 0.74314483375859142 0.66913059716165679 0.5 0 0 1 I I #
coedge $-1 $379 $379 $-1 $534 reversed $248 $-1 #
edge $-1 $535 0 $535 6.2831853071796004 $249 $536 forward 7 unknown #
vertex $-1 $252 $537 #
ellipse-curve $-1 11.46744910914073 18.695225156630237 5.8411564603737949 0 0.74314483375859142 0.66913059716165679 0.5 0 0 1 I I #
coedge $-1 $383 $383 $-1 $538 reversed $255 $-1 #
edge $-1 $539 0 $539 6.2831853071796004 $256 $540 forward 7 unknown #
vertex $-1 $259 $541 #
ellipse-curve $-1 14.445925297938174 18.695225156630237 5.8411564603737949 0 0.74314483375859142 0.66913059716165679 0.5 0 0 1 I I #
face $-1 $-1 $275 $39 $-1 $542 reversed single #
loop $-1 $-1 $403 $260 #
plane-surface $-1 0 21.44735102369388 0 0 -1 0 0 0 -1 forward_v I I I I #
coedge $-1 $543 $401 $404 $544 forward $261 $-1 #
coedge $-1 $407 $263 $264 $395 reversed $164 $-1 #
coedge $-1 $401 $543 $263 $393 reversed $261 $-1 #
edge $-1 $408 -8.8977019667924999 $545 8.8977019667924999 $392 $546 forward 7 unknown #
coedge $-1 $265 $264 $543 $547 forward $105 $-1 #
edge $-1 $399 -40.059816278572953 $545 40.059816278572953 $391 $548 forward 7 unknown #
coedge $-1 $404 $403 $265 $397 reversed $388 $-1 #
edge $-1 $549 -40.059816278572953 $398 40.059816278572953 $396 $550 forward 7 unknown #
vertex $-1 $267 $551 #
vertex $-1 $410 $552 #
straight-curve $-1 40.059816278572953 0 -8.8977019667924999 0 -1 0 I I #
coedge $-1 $390 $392 $268 $402 reversed $261 $-1 #
edge $-1 $405 -21.44735102369388 $408 21.44735102369388 $401 $553 forward 7 unknown #
coedge $-1 $396 $269 $274 $411 forward $388 $-1 #
coedge $-1 $269 $396 $390 $544 reversed $388 $-1 #
vertex $-1 $270 $554 #
straight-curve $-1 0 21.44735102369388 8.8977019667924999 -1 0 0 I I #
coedge $-1 $271 $391 $273 $410 reversed $164 $-1 #
vertex $-1 $402 $555 #
straight-curve $-1 0 -21.44735102369388 8.8977019667924999 1 0 0 I I #
edge $-1 $276 -8.8977019667924999 $399 8.8977019667924999 $273 $556 forward 7 unknown #
edge $-1 $277 -8.8977019667924999 $398 8.8977019667924999 $274 $557 forward 7 unknown #
point $-1 40.059816278572953 -21.44735102369388 8.8977019667924999 #
point $-1 40.059816278572953 21.44735102369388 8.8977019667924999 #
face $-1 $-1 $423 $40 $-1 $558 reversed single #
loop $-1 $-1 $420 $279 #
plane-surface $-1 0 0 8.8977019667924999 0 0 1 1 0 0 forward_v I I I I #
coedge $-1 $559 $560 $286 $426 forward $280 $-1 #
coedge $-1 $282 $430 $561 $562 reversed $172 $-1 #
edge $-1 $563 -5.2111988756864083 $292 -2.1618073065257759 $282 $564 forward 7 unknown #
coedge $-1 $561 $565 $283 $421 forward $415 $-1 #
edge $-1 $424 -21.44735102369388 $563 21.44735102369388 $420 $566 forward 7 unknown #
coedge $-1 $427 $284 $565 $567 reversed $423 $-1 #
loop $-1 $-1 $284 $414 #
vertex $-1 $285 $568 #
straight-curve $-1 -32.63045372970565 -21.44735102369388 3.6865030911060916 0 0 1 I I #
edge $-1 $431 -21.44735102369388 $428 21.44735102369388 $417 $569 forward 7 unknown #
coedge $-1 $287 $422 $559 $570 forward $423 $-1 #
vertex $-1 $426 $571 #
straight-curve $-1 -18.172567502069651 -21.44735102369388 5.8483103976318676 1 0 0 I I #
coedge $-1 $418 $289 $560 $572 reversed $172 $-1 #
vertex $-1 $426 $573 #
straight-curve $-1 -18.172567502069651 21.44735102369388 5.8483103976318676 -1 0 0 I I #
point $-1 -32.63045372970565 21.44735102369388 5.8483103976318676 #
point $-1 -32.63045372970565 -21.44735102369388 5.8483103976318676 #
face $-1 $-1 $309 $41 $-1 $574 reversed single #
loop $-1 $-1 $442 $295 #
plane-surface $-1 0 21.44735102369388 0 0 -1 0 0 0 -1 forward_v I I I I #
coedge $-1 $303 $575 $300 $444 forward $296 $-1 #
coedge $-1 $576 $298 $575 $577 forward $180 $-1 #
coedge $-1 $298 $576 $578 $579 forward $180 $-1 #
coedge $-1 $300 $299 $302 $448 reversed $113 $-1 #
coedge $-1 $578 $305 $299 $443 forward $436 $-1 #
edge $-1 $453 2.1618073065257759 $445 5.2111988756864083 $442 $580 forward 7 unknown #
edge $-1 $446 -5.2111988756864083 $450 -2.1618073065257759 $438 $581 forward 7 unknown #
vertex $-1 $443 $582 #
vertex $-1 $577 $583 #
straight-curve $-1 32.630453729705657 0 8.8977019667924999 0 -1 0 I I #
edge $-1 $450 -21.44735102369388 $453 21.44735102369388 $441 $584 forward 7 unknown #
coedge $-1 $575 $303 $308 $457 reversed $296 $-1 #
vertex $-1 $304 $585 #
straight-curve $-1 18.172567502069654 -21.44735102369388 5.8483103976318676 1 0 0 I I #
coedge $-1 $305 $578 $307 $456 forward $436 $-1 #
vertex $-1 $306 $586 #
straight-curve $-1 18.172567502069654 21.44735102369388 5.8483103976318676 -1 0 0 I I #
coedge $-1 $308 $307 $576 $587 reversed $309 $-1 #
edge $-1 $588 -8.8977019667924999 $311 -5.8483103976318676 $307 $589 forward 7 unknown #
edge $-1 $590 -8.8977019667924999 $310 -5.8483103976318676 $308 $591 forward 7 unknown #
point $-1 40.05981627857296 -21.44735102369388 5.8483103976318676 #
point $-1 40.05981627857296 21.44735102369388 5.8483103976318676 #
loop $-1 $-1 $321 $313 #
plane-surface $-1 32.630453729705657 0 7.3730061822121833 1 0 0 0 0 -1 forward_v I I I I #
coedge $-1 $467 $592 $317 $463 forward $314 $-1 #
edge $-1 $465 17.454584621777048 $473 25.147619720569942 $462 $593 forward 7 unknown #
coedge $-1 $324 $318 $592 $594 forward $188 $-1 #
vertex $-1 $594 $595 #
straight-curve $-1 24.135402349151221 -41.411275496376227 8.8977019667924999 0 -1 0 I I #
coedge $-1 $596 $462 $320 $468 forward $314 $-1 #
edge $-1 $473 9.9439383294370032 $471 18.438989709991432 $467 $597 forward 7 unknown #
coedge $-1 $470 $321 $324 $475 reversed $460 $-1 #
coedge $-1 $321 $469 $596 $598 reversed $460 $-1 #
vertex $-1 $598 $599 #
straight-curve $-1 32.630453729705657 -15.497929671121318 8.2949113244157644 0 0.64278759981090572 0.76604445140561861 I I #
vertex $-1 $468 $600 #
straight-curve $-1 24.135402349151221 -21.447351023693891 1.2046668679995918 0 0.64278759981090561 0.7660444514056185 I I #
edge $-1 $601 -21.44735102369388 $325 -14.992128278668371 $324 $602 forward 7 unknown #
point $-1 32.630453729705657 -14.992128278668371 8.8977019667924999 #
point $-1 24.135402349151221 -14.992128278668368 8.8977019667924999 #
edge $-1 $603 1 $603 0 $328 $-1 forward 7 unknown #
vertex $-1 $329 $604 #
ellipse-curve $-1 28.382928039428435 -15.50684771020358 2.7747978498965087 0 -0.7660444514056185 0.64278759981090561 2 0 0 1 I I #
point $-1 30.382928039428435 -18.219739651181115 5.0511844173960405 #
plane-surface $-1 0 0 8.8977019667924999 0 0 1 1 0 0 forward_v I I I I #
coedge $-1 $493 $492 $485 $605 forward $333 $-1 #
coedge $-1 $485 $335 $337 $489 reversed $203 $-1 #
coedge $-1 $335 $484 $483 $605 reversed $203 $-1 #
coedge $-1 $343 $338 $335 $487 forward $344 $-1 #
edge $-1 $490 -10.199742933000188 $606 -4.6954911988729116 $486 $607 forward 7 unknown #
coedge $-1 $337 $336 $493 $608 reversed $126 $-1 #
edge $-1 $609 -42.89470204738776 $490 -34.668726793116896 $484 $610 forward 7 unknown #
vertex $-1 $339 $611 #
straight-curve $-1 -10.58150231028246 15.9430992895666 8.8977019667925035 1 0 0 I I #
coedge $-1 $483 $340 $343 $497 reversed $333 $-1 #
coedge $-1 $340 $483 $488 $608 forward $333 $-1 #
vertex $-1 $341 $612 #
straight-curve $-1 -26.127131601893993 21.44735102369388 44.136042376710471 0 0 1 I I #
straight-curve $-1 -26.127131601893993 -7.2548065723460411 34.661587176085384 0 0.66913059716165679 -0.74314483375859142 I I #
edge $-1 $606 16.198877639235846 $345 26.127131601893993 $492 $613 forward 7 unknown #
point $-1 -26.127131601893993 21.44735102369388 8.8977019667924999 #
point $-1 -26.127131601893993 15.943099289566604 8.8977019667924999 #
edge $-1 $614 1 $614 0 $348 $-1 forward 7 unknown #
vertex $-1 $349 $615 #
ellipse-curve $-1 -24.14148080936236 17.952080322871652 5.1720258632121459 0 0.74314483375859142 0.66913059716165679 0.5 0 0 1 I I #
point $-1 -23.64148080936236 18.695225156630244 5.8411564603738029 #
edge $-1 $616 1 $616 0 $352 $-1 forward 7 unknown #
vertex $-1 $353 $617 #
ellipse-curve $-1 -21.163004620564916 17.952080322871652 5.1720258632121459 0 0.74314483375859142 0.66913059716165679 0.5 0 0 1 I I #
point $-1 -20.663004620564916 18.695225156630244 5.8411564603738029 #
edge $-1 $618 1 $618 0 $356 $-1 forward 7 unknown #
vertex $-1 $357 $619 #
ellipse-curve $-1 -18.184528431767472 17.952080322871652 5.1720258632121459 0 0.74314483375859142 0.66913059716165679 0.5 0 0 1 I I #
point $-1 -17.684528431767472 18.695225156630244 5.8411564603738029 #
loop $-1 $-1 $368 $360 #
plane-surface $-1 0 21.44735102369388 0 0 -1 0 0 0 -1 forward_v I I I I #
coedge $-1 $515 $363 $365 $519 reversed $232 $-1 #
coedge $-1 $363 $514 $620 $621 reversed $232 $-1 #
coedge $-1 $371 $366 $363 $517 forward $361 $-1 #
edge $-1 $520 -10.199742933000188 $622 -4.6954911988729116 $516 $623 forward 7 unknown #
coedge $-1 $365 $364 $523 $624 reversed $145 $-1 #
edge $-1 $625 -42.89470204738776 $520 -34.668726793116896 $514 $626 forward 7 unknown #
vertex $-1 $367 $627 #
straight-curve $-1 5.7337245545703652 15.9430992895666 8.8977019667925035 1 0 0 I I #
coedge $-1 $620 $368 $371 $527 reversed $512 $-1 #
coedge $-1 $368 $620 $518 $624 forward $512 $-1 #
vertex $-1 $369 $628 #
straight-curve $-1 6.5033221278116589 21.44735102369388 44.136042376710471 0 0 1 I I #
straight-curve $-1 6.5033221278116589 -7.2548065723460411 34.661587176085384 0 0.66913059716165679 -0.74314483375859142 I I #
edge $-1 $622 -16.431576090469804 $372 -6.5033221278116589 $522 $629 forward 7 unknown #
point $-1 6.5033221278116589 21.44735102369388 8.8977019667924999 #
point $-1 6.5033221278116589 15.943099289566604 8.8977019667924999 #
edge $-1 $630 1 $630 0 $375 $-1 forward 7 unknown #
vertex $-1 $376 $631 #
ellipse-curve $-1 8.4889729203432864 17.952080322871652 5.1720258632121459 0 0.74314483375859142 0.66913059716165679 0.5 0 0 1 I I #
point $-1 8.9889729203432864 18.695225156630244 5.8411564603738029 #
edge $-1 $632 1 $632 0 $379 $-1 forward 7 unknown #
vertex $-1 $380 $633 #
ellipse-curve $-1 11.46744910914073 17.952080322871652 5.1720258632121459 0 0.74314483375859142 0.66913059716165679 0.5 0 0 1 I I #
point $-1 11.96744910914073 18.695225156630244 5.8411564603738029 #
edge $-1 $634 1 $634 0 $383 $-1 forward 7 unknown #
vertex $-1 $384 $635 #
ellipse-curve $-1 14.445925297938174 17.952080322871652 5.1720258632121459 0 0.74314483375859142 0.66913059716165679 0.5 0 0 1 I I #
point $-1 14.945925297938174 18.695225156630244 5.8411564603738029 #
plane-surface $-1 40.059816278572953 0 0 -1 0 0 0 0 1 forward_v I I I I #
coedge $-1 $392 $390 $394 $547 reversed $261 $-1 #
edge $-1 $405 -8.8977019667924999 $549 8.8977019667924999 $404 $636 forward 7 unknown #
vertex $-1 $547 $637 #
straight-curve $-1 -40.059816278572953 -21.44735102369388 0 0 0 -1 I I #
edge $-1 $545 -21.44735102369388 $549 21.44735102369388 $543 $638 forward 7 unknown #
straight-curve $-1 0 -21.44735102369388 -8.8977019667924999 -1 0 0 I I #
vertex $-1 $397 $639 #
straight-curve $-1 0 21.44735102369388 -8.8977019667924999 1 0 0 I I #
point $-1 40.059816278572953 21.44735102369388 -8.8977019667924999 #
point $-1 40.059816278572953 -21.44735102369388 -8.8977019667924999 #
straight-curve $-1 -40.059816278572953 0 8.8977019667924999 0 -1 0 I I #
point $-1 -40.059816278572953 21.44735102369388 8.8977019667924999 #
point $-1 -40.059816278572953 -21.44735102369388 8.8977019667924999 #
straight-curve $-1 40.059816278572953 -21.44735102369388 0 0 0 -1 I I #
straight-curve $-1 40.059816278572953 21.44735102369388 0 0 0 -1 I I #
plane-surface $-1 0 -21.44735102369388 0 0 1 0 0 0 1 forward_v I I I I #
coedge $-1 $640 $417 $427 $570 reversed $280 $-1 #
coedge $-1 $417 $640 $430 $572 forward $280 $-1 #
coedge $-1 $641 $420 $418 $562 forward $415 $-1 #
edge $-1 $563 32.63045372970565 $642 40.059816278572953 $418 $643 forward 7 unknown #
vertex $-1 $562 $644 #
straight-curve $-1 -32.63045372970565 21.44735102369388 3.6865030911060916 0 0 -1 I I #
coedge $-1 $420 $641 $422 $567 forward $415 $-1 #
straight-curve $-1 -32.63045372970565 0 8.8977019667924999 0 1 0 I I #
edge $-1 $645 -40.059816278572953 $424 -32.63045372970565 $422 $646 forward 7 unknown #
point $-1 -32.63045372970565 -21.44735102369388 8.8977019667924999 #
straight-curve $-1 -40.059816278572953 0 5.8483103976318676 0 -1 0 I I #
edge $-1 $645 -8.8977019667924999 $428 -5.8483103976318676 $559 $647 forward 7 unknown #
point $-1 -40.059816278572953 -21.44735102369388 5.8483103976318676 #
edge $-1 $642 -8.8977019667924999 $431 -5.8483103976318676 $430 $648 forward 7 unknown #
point $-1 -40.059816278572953 21.44735102369388 5.8483103976318676 #
plane-surface $-1 40.059816278572953 0 0 -1 0 0 0 0 1 forward_v I I I I #
coedge $-1 $438 $449 $439 $577 reversed $296 $-1 #
coedge $-1 $440 $439 $455 $587 forward $180 $-1 #
edge $-1 $446 32.630453729705657 $590 40.059816278572953 $575 $649 forward 7 unknown #
coedge $-1 $452 $442 $440 $579 reversed $436 $-1 #
edge $-1 $588 -40.059816278572953 $445 -32.630453729705657 $578 $650 forward 7 unknown #
straight-curve $-1 32.630453729705657 21.44735102369388 3.6865030911060916 0 0 1 I I #
straight-curve $-1 32.630453729705657 -21.44735102369388 3.6865030911060916 0 0 -1 I I #
point $-1 32.630453729705657 21.44735102369388 8.8977019667924999 #
point $-1 32.630453729705657 -21.44735102369388 8.8977019667924999 #
straight-curve $-1 32.630453729705657 0 5.8483103976318676 0 1 0 I I #
point $-1 32.630453729705657 -21.44735102369388 5.8483103976318676 #
point $-1 32.630453729705657 21.44735102369388 5.8483103976318676 #
edge $-1 $590 -21.44735102369388 $588 21.44735102369388 $455 $651 forward 7 unknown #
vertex $-1 $587 $652 #
straight-curve $-1 40.059816278572953 21.44735102369388 0 0 0 -1 I I #
vertex $-1 $587 $653 #
straight-curve $-1 40.059816278572953 -21.44735102369388 0 0 0 -1 I I #
coedge $-1 $462 $596 $464 $594 reversed $314 $-1 #
straight-curve $-1 24.135402349151221 -21.44735102369388 26.352286588569548 0 0 -1 I I #
edge $-1 $465 24.135402349151221 $601 32.630453729705657 $592 $654 forward 7 unknown #
point $-1 24.135402349151221 -21.44735102369388 8.8977019667924999 #
coedge $-1 $592 $467 $470 $598 forward $314 $-1 #
straight-curve $-1 14.191464019714218 -21.44735102369388 1.2046668679996011 1 0 0 I I #
edge $-1 $471 -25.147619720569942 $601 -17.454584621777048 $596 $655 forward 7 unknown #
point $-1 32.63045372970565 -21.44735102369388 1.2046668679996044 #
point $-1 24.135402349151221 -21.44735102369388 1.2046668679996044 #
vertex $-1 $475 $656 #
straight-curve $-1 32.630453729705657 0 8.8977019667924999 0 1 0 I I #
vertex $-1 $478 $657 #
point $-1 30.382928039428435 -15.50684771020358 2.7747978498965087 #
edge $-1 $606 35.238340409917967 $609 41.351431422755383 $483 $658 forward 7 unknown #
vertex $-1 $497 $659 #
straight-curve $-1 -16.198877639235846 26.142842222566792 8.8977019667924964 0 1 0 I I #
edge $-1 $609 5.6173753289533863 $494 15.545629291611533 $493 $660 forward 7 unknown #
vertex $-1 $608 $661 #
straight-curve $-1 -16.198877639235846 -7.2548065723460411 34.661587176085384 0 -0.66913059716165679 0.74314483375859142 I I #
point $-1 -16.198877639235846 15.943099289566604 8.8977019667924999 #
point $-1 -26.127131601893993 21.447351023693876 2.7846109539550916 #
straight-curve $-1 0 21.44735102369388 8.8977019667924999 -1 0 0 I I #
vertex $-1 $500 $662 #
point $-1 -23.64148080936236 17.952080322871652 5.1720258632121459 #
vertex $-1 $504 $663 #
point $-1 -20.663004620564916 17.952080322871652 5.1720258632121459 #
vertex $-1 $508 $664 #
point $-1 -17.684528431767472 17.952080322871652 5.1720258632121459 #
coedge $-1 $523 $522 $515 $621 forward $512 $-1 #
edge $-1 $622 35.238340409917967 $625 41.351431422755383 $620 $665 forward 7 unknown #
vertex $-1 $527 $666 #
straight-curve $-1 16.431576090469804 26.142842222566792 8.8977019667924964 0 1 0 I I #
edge $-1 $625 -10.697851535899439 $524 -0.76959757324129363 $523 $667 forward 7 unknown #
vertex $-1 $624 $668 #
straight-curve $-1 16.431576090469804 -7.2548065723460411 34.661587176085384 0 -0.66913059716165679 0.74314483375859142 I I #
point $-1 16.431576090469804 15.943099289566604 8.8977019667924999 #
point $-1 6.5033221278116589 21.447351023693876 2.7846109539550916 #
straight-curve $-1 0 21.44735102369388 8.8977019667924999 -1 0 0 I I #
vertex $-1 $530 $669 #
point $-1 8.9889729203432864 17.952080322871652 5.1720258632121459 #
vertex $-1 $534 $670 #
point $-1 11.96744910914073 17.952080322871652 5.1720258632121459 #
vertex $-1 $538 $671 #
point $-1 14.945925297938174 17.952080322871652 5.1720258632121459 #
straight-curve $-1 -40.059816278572953 21.44735102369388 0 0 0 -1 I I #
point $-1 -40.059816278572953 -21.44735102369388 -8.8977019667924999 #
straight-curve $-1 -40.059816278572953 0 -8.8977019667924999 0 1 0 I I #
point $-1 -40.059816278572953 21.44735102369388 -8.8977019667924999 #
coedge $-1 $560 $559 $641 $672 reversed $280 $-1 #
coedge $-1 $565 $561 $640 $672 forward $415 $-1 #
vertex $-1 $562 $673 #
straight-curve $-1 0 21.44735102369388 8.8977019667924999 -1 0 0 I I #
point $-1 -32.63045372970565 21.44735102369388 8.8977019667924999 #
vertex $-1 $672 $674 #
straight-curve $-1 0 -21.44735102369388 8.8977019667924999 1 0 0 I I #
straight-curve $-1 -40.059816278572953 -21.44735102369388 0 0 0 -1 I I #
straight-curve $-1 -40.059816278572953 21.44735102369388 0 0 0 -1 I I #
straight-curve $-1 0 -21.44735102369388 8.8977019667924999 1 0 0 I I #
straight-curve $-1 0 21.44735102369388 8.8977019667924999 -1 0 0 I I #
straight-curve $-1 40.059816278572953 0 8.8977019667924999 0 1 0 I I #
point $-1 40.059816278572953 21.44735102369388 8.8977019667924999 #
point $-1 40.059816278572953 -21.44735102369388 8.8977019667924999 #
straight-curve $-1 0 -21.44735102369388 8.8977019667924999 1 0 0 I I #
straight-curve $-1 32.63045372970565 -21.44735102369388 26.352286588569548 0 0 1 I I #
point $-1 32.630453729705657 -21.44735102369388 8.8977019667924999 #
point $-1 28.382928039428435 -13.974758807392345 1.4892226502746975 #
straight-curve $-1 -16.198877639235846 21.44735102369388 44.136042376710471 0 0 -1 I I #
point $-1 -16.198877639235846 21.44735102369388 8.8977019667924999 #
straight-curve $-1 -10.58150231028246 21.44735102369388 2.7846109539550916 -1 0 0 I I #
point $-1 -16.198877639235846 21.447351023693876 2.7846109539550916 #
point $-1 -24.14148080936236 17.580507905992356 4.8374605646313169 #
point $-1 -21.163004620564916 17.580507905992356 4.8374605646313169 #
point $-1 -18.184528431767472 17.580507905992356 4.8374605646313169 #
straight-curve $-1 16.431576090469804 21.44735102369388 44.136042376710471 0 0 -1 I I #
point $-1 16.431576090469804 21.44735102369388 8.8977019667924999 #
straight-curve $-1 5.7337245545703652 21.44735102369388 2.7846109539550916 -1 0 0 I I #
point $-1 16.431576090469804 21.447351023693876 2.7846109539550916 #
point $-1 8.4889729203432864 17.580507905992356 4.8374605646313169 #
point $-1 11.46744910914073 17.580507905992356 4.8374605646313169 #
point $-1 14.445925297938174 17.580507905992356 4.8374605646313169 #
edge $-1 $642 -21.44735102369388 $645 21.44735102369388 $640 $675 forward 7 unknown #
point $-1 -40.059816278572953 21.44735102369388 8.8977019667924999 #
point $-1 -40.059816278572953 -21.44735102369388 8.8977019667924999 #
straight-curve $-1 -40.059816278572953 0 8.8977019667924999 0 -1 0 I I #
End-of-ACIS-data 