500 0 7 0           
7 Unknown 11 ACIS 5.0 NT 24 Fri Mar 26 00:12:58 1999 
-1 9.9999999999999995e-007 1e-010 
body $-1 $7 $-1 $8 #
body $-1 $9 $-1 $10 #
body $-1 $11 $-1 $12 #
body $-1 $13 $-1 $14 #
body $-1 $15 $-1 $16 #
body $-1 $17 $-1 $18 #
body $-1 $19 $-1 $20 #
lump $-1 $-1 $21 $0 #
transform $-1 1 0 0 0 1 0 0 0 1 72.526627399517807 45.297767114981895 17.524527859935024 1 rotate no_reflect no_shear #
lump $-1 $-1 $22 $1 #
transform $-1 1 0 0 0 1 0 0 0 1 72.526627399517807 45.297767114981895 17.524527859935024 1 rotate no_reflect no_shear #
lump $-1 $-1 $23 $2 #
transform $-1 1 0 0 0 1 0 0 0 1 72.526627399517807 45.297767114981895 17.524527859935024 1 rotate no_reflect no_shear #
lump $-1 $-1 $24 $3 #
transform $-1 1 0 0 0 1 0 0 0 1 72.526627399517807 45.297767114981895 17.524527859935024 1 rotate no_reflect no_shear #
lump $-1 $-1 $25 $4 #
transform $-1 1 0 0 0 1 0 0 0 1 72.526627399517807 45.297767114981895 17.524527859935024 1 rotate no_reflect no_shear #
lump $-1 $-1 $26 $5 #
transform $-1 1 0 0 0 1 0 0 0 1 72.526627399517807 45.297767114981895 17.524527859935024 1 rotate no_reflect no_shear #
lump $-1 $-1 $27 $6 #
transform $-1 1 0 0 0 1 0 0 0 1 72.526627399517807 45.297767114981895 17.524527859935024 1 rotate no_reflect no_shear #
shell $-1 $-1 $-1 $28 $-1 $7 #
shell $-1 $-1 $-1 $29 $-1 $9 #
shell $-1 $-1 $-1 $30 $-1 $11 #
shell $-1 $-1 $-1 $31 $-1 $13 #
shell $-1 $-1 $-1 $32 $-1 $15 #
shell $-1 $-1 $-1 $33 $-1 $17 #
shell $-1 $-1 $-1 $34 $-1 $19 #
face $-1 $35 $36 $21 $-1 $37 forward single #
face $-1 $38 $39 $22 $-1 $40 forward single #
face $-1 $41 $42 $23 $-1 $43 forward single #
face $-1 $44 $45 $24 $-1 $46 reversed single #
face $-1 $47 $48 $25 $-1 $49 forward single #
face $-1 $50 $51 $26 $-1 $52 reversed single #
face $-1 $53 $54 $27 $-1 $55 forward single #
face $-1 $56 $57 $21 $-1 $58 reversed single #
loop $-1 $-1 $59 $28 #
plane-surface $-1 0 0 17.524527859935024 0 0 1 1 0 0 forward_v I I I I #
face $-1 $60 $61 $22 $-1 $62 forward single #
loop $-1 $-1 $63 $29 #
plane-surface $-1 0 -45.297767114981895 0 0 1 0 0 0 1 forward_v I I I I #
face $-1 $64 $65 $23 $-1 $66 reversed single #
loop $-1 $-1 $67 $30 #
plane-surface $-1 0 45.297767114981895 0 0 -1 0 0 0 -1 forward_v I I I I #
face $-1 $68 $69 $24 $-1 $70 reversed single #
loop $-1 $-1 $71 $31 #
plane-surface $-1 -188.37130872287469 -19.082001139814572 87.811632298531563 0 1 0 -0.79863551827123203 0 0.60181501223851219 forward_v I I I I #
face $-1 $72 $73 $25 $-1 $74 forward single #
loop $-1 $75 $76 $32 #
cone-surface $-1 -63.050458916040057 -11.597944418775981 6.7086391934315488 0.79863551827123203 0 -0.60181501223851219 1.2036300244770244 0 1.5972710365424641 1 I I 0 1 2 forward I I I I #
face $-1 $77 $78 $26 $-1 $79 reversed single #
loop $-1 $-1 $80 $33 #
plane-surface $-1 29.876398241682338 28.013962848593934 207.08935338530088 0 -1 0 -0.54463904215088732 0 -0.83867056331134215 forward_v I I I I #
face $-1 $81 $82 $27 $-1 $83 forward single #
loop $-1 $84 $85 $34 #
cone-surface $-1 62.027846004321908 20.202029683483516 8.9601707334053575 -0.54463904215088732 0 -0.83867056331134215 2.5160116899340266 0 -1.633917126452662 1 I I 0 1 3 forward I I I I #
face $-1 $86 $87 $21 $-1 $88 reversed single #
loop $-1 $-1 $89 $35 #
plane-surface $-1 0 0 -17.524527859935024 0 0 1 1 0 0 forward_v I I I I #
coedge $-1 $90 $91 $92 $93 forward $36 $-1 #
face $-1 $94 $95 $22 $-1 $96 reversed single #
loop $-1 $-1 $97 $38 #
plane-surface $-1 0 0 17.524527859935024 0 0 1 1 0 0 forward_v I I I I #
coedge $-1 $98 $99 $100 $101 forward $39 $-1 #
face $-1 $102 $103 $23 $-1 $104 reversed single #
loop $-1 $-1 $105 $41 #
plane-surface $-1 72.526627399517807 0 0 -1 0 0 0 0 1 forward_v I I I I #
coedge $-1 $106 $107 $108 $109 forward $42 $-1 #
face $-1 $110 $111 $24 $-1 $112 reversed single #
loop $-1 $-1 $113 $44 #
plane-surface $-1 -72.526627399517807 -11.597944418775981 0.51640598641391477 -0.79863551827123203 0 0.60181501223851219 0.60181501223851219 0 0.79863551827123203 forward_v I I I I #
coedge $-1 $114 $115 $116 $117 reversed $45 $-1 #
face $-1 $-1 $118 $25 $-1 $119 forward single #
loop $-1 $120 $121 $47 #
cone-surface $-1 -59.183924293308955 -11.597944418775981 3.7949964514501247 0.79863551827123203 0 -0.60181501223851219 0.60181501223851219 0 0.79863551827123203 1 I I -0.70710678118654746 0.70710678118654746 1 forward I I I I #
loop $-1 $-1 $122 $32 #
coedge $-1 $76 $76 $123 $124 reversed $48 $-1 #
face $-1 $125 $126 $26 $-1 $127 reversed single #
loop $-1 $-1 $128 $50 #
plane-surface $-1 -49.125267512933021 20.202029683483516 85.437458472850039 0.54463904215088732 0 0.83867056331134215 0.83867056331134215 0 -0.54463904215088732 forward_v I I I I #
coedge $-1 $129 $130 $131 $132 reversed $51 $-1 #
face $-1 $-1 $133 $27 $-1 $134 forward single #
loop $-1 $135 $136 $53 #
cone-surface $-1 59.249683255727788 20.202029683483516 4.6821753327588418 -0.54463904215088732 0 -0.83867056331134215 1.2580058449670133 0 -0.81695856322633098 1 I I -0.70710678118654757 0.70710678118654757 1.5 forward I I I I #
loop $-1 $-1 $137 $34 #
coedge $-1 $85 $85 $138 $139 reversed $54 $-1 #
face $-1 $140 $141 $21 $-1 $142 reversed single #
loop $-1 $-1 $143 $56 #
plane-surface $-1 0 -45.297767114981895 0 0 1 0 0 0 1 forward_v I I I I #
coedge $-1 $144 $145 $146 $147 forward $57 $-1 #
coedge $-1 $148 $59 $149 $150 forward $36 $-1 #
coedge $-1 $59 $148 $151 $152 forward $36 $-1 #
coedge $-1 $153 $154 $59 $93 reversed $155 $-1 #
edge $-1 $156 -45.297767114981895 $157 45.297767114981895 $92 $158 forward 7 unknown #
face $-1 $159 $160 $22 $-1 $161 reversed single #
loop $-1 $-1 $162 $60 #
plane-surface $-1 -72.526627399517807 0 0 1 0 0 0 0 -1 forward_v I I I I #
coedge $-1 $163 $164 $165 $166 forward $61 $-1 #
coedge $-1 $165 $63 $162 $167 reversed $39 $-1 #
coedge $-1 $63 $165 $168 $169 reversed $39 $-1 #
coedge $-1 $170 $171 $63 $101 reversed $160 $-1 #
edge $-1 $172 -72.526627399517807 $173 72.526627399517807 $100 $174 forward 7 unknown #
face $-1 $175 $176 $23 $-1 $177 reversed single #
loop $-1 $-1 $178 $64 #
plane-surface $-1 0 53.939669248175875 10.819886417089554 0 0 1 1 0 0 forward_v I I I I #
coedge $-1 $179 $180 $106 $181 forward $65 $-1 #
coedge $-1 $182 $67 $105 $181 reversed $42 $-1 #
coedge $-1 $67 $182 $183 $184 reversed $42 $-1 #
coedge $-1 $185 $178 $67 $109 reversed $103 $-1 #
edge $-1 $186 -72.526627399517807 $187 72.526627399517807 $108 $188 forward 7 unknown #
face $-1 $189 $190 $24 $-1 $191 reversed single #
loop $-1 $-1 $192 $68 #
plane-surface $-1 -188.37130872287469 -4.1138876977373897 87.811632298531563 0 -1 0 0.79863551827123203 0 -0.60181501223851219 forward_v I I I I #
coedge $-1 $193 $194 $195 $196 reversed $69 $-1 #
coedge $-1 $115 $71 $197 $198 reversed $45 $-1 #
coedge $-1 $71 $114 $193 $199 reversed $45 $-1 #
coedge $-1 $195 $200 $71 $117 forward $201 $-1 #
edge $-1 $202 21.659026961919537 $203 34.475565719955284 $116 $204 forward 7 unknown #
loop $-1 $-1 $123 $72 #
plane-surface $-1 -72.526627399517807 -11.597944418775981 0.51640598641391477 -0.79863551827123203 0 0.60181501223851219 0.60181501223851219 0 0.79863551827123203 forward_v I I I I #
loop $-1 $-1 $205 $47 #
coedge $-1 $121 $121 $122 $206 reversed $73 $-1 #
coedge $-1 $122 $122 $121 $206 forward $75 $-1 #
coedge $-1 $123 $123 $76 $124 forward $118 $-1 #
edge $-1 $207 0 $207 6.2831853071796004 $123 $208 forward 7 unknown #
face $-1 $209 $210 $26 $-1 $211 forward single #
loop $-1 $-1 $212 $77 #
plane-surface $-1 29.876398241682338 12.390096518373099 207.08935338530088 0 1 0 0.54463904215088732 0 0.83867056331134215 forward_v I I I I #
coedge $-1 $213 $214 $215 $216 reversed $78 $-1 #
coedge $-1 $130 $80 $217 $218 reversed $51 $-1 #
coedge $-1 $80 $129 $213 $219 reversed $51 $-1 #
coedge $-1 $215 $220 $80 $132 forward $210 $-1 #
edge $-1 $221 -57.588428278676638 $222 -40.513273859020352 $131 $223 forward 7 unknown #
loop $-1 $-1 $138 $81 #
plane-surface $-1 -49.125267512933021 20.202029683483516 85.437458472850039 0.54463904215088732 0 0.83867056331134215 0.83867056331134215 0 -0.54463904215088732 forward_v I I I I #
loop $-1 $-1 $224 $53 #
coedge $-1 $136 $136 $137 $225 reversed $82 $-1 #
coedge $-1 $137 $137 $136 $225 forward $84 $-1 #
coedge $-1 $138 $138 $85 $139 forward $133 $-1 #
edge $-1 $226 0 $226 6.2831853071796004 $138 $227 forward 7 unknown #
face $-1 $228 $229 $21 $-1 $230 reversed single #
loop $-1 $-1 $231 $86 #
plane-surface $-1 -72.526627399517807 0 0 1 0 0 0 0 -1 forward_v I I I I #
coedge $-1 $232 $151 $233 $234 forward $87 $-1 #
coedge $-1 $235 $89 $232 $236 forward $57 $-1 #
coedge $-1 $89 $235 $237 $238 forward $57 $-1 #
coedge $-1 $154 $153 $89 $147 reversed $155 $-1 #
edge $-1 $239 -45.297767114981895 $240 45.297767114981895 $146 $241 forward 7 unknown #
coedge $-1 $91 $90 $242 $243 forward $36 $-1 #
coedge $-1 $244 $245 $90 $150 reversed $229 $-1 #
edge $-1 $157 -72.526627399517807 $246 72.526627399517807 $149 $247 forward 7 unknown #
coedge $-1 $143 $248 $91 $152 reversed $87 $-1 #
edge $-1 $249 -72.526627399517807 $156 72.526627399517807 $151 $250 forward 7 unknown #
coedge $-1 $146 $92 $248 $251 forward $155 $-1 #
coedge $-1 $92 $146 $244 $252 reversed $155 $-1 #
loop $-1 $-1 $153 $228 #
vertex $-1 $93 $253 #
vertex $-1 $93 $254 #
straight-curve $-1 72.526627399517807 0 17.524527859935024 0 1 0 I I #
face $-1 $255 $256 $22 $-1 $257 reversed single #
loop $-1 $-1 $170 $94 #
plane-surface $-1 0 -53.939669248175875 10.819886417089554 0 0 1 1 0 0 forward_v I I I I #
coedge $-1 $258 $259 $98 $167 forward $95 $-1 #
coedge $-1 $260 $97 $259 $261 forward $61 $-1 #
coedge $-1 $97 $260 $262 $263 forward $61 $-1 #
coedge $-1 $99 $98 $97 $166 reversed $39 $-1 #
edge $-1 $264 -72.526627399517807 $265 72.526627399517807 $97 $266 forward 7 unknown #
edge $-1 $265 -17.524527859935024 $173 -10.819886417089554 $162 $267 forward 7 unknown #
coedge $-1 $262 $268 $99 $169 forward $269 $-1 #
edge $-1 $172 10.819886417089554 $264 17.524527859935024 $168 $270 forward 7 unknown #
coedge $-1 $271 $100 $268 $272 forward $160 $-1 #
coedge $-1 $100 $271 $258 $273 forward $160 $-1 #
vertex $-1 $169 $274 #
vertex $-1 $167 $275 #
straight-curve $-1 0 -45.297767114981895 10.819886417089554 -1 0 0 I I #
face $-1 $276 $277 $23 $-1 $278 forward single #
loop $-1 $-1 $279 $102 #
plane-surface $-1 0 62.581571381369855 14.172207138512288 0 -1 0 0 0 -1 forward_v I I I I #
coedge $-1 $108 $280 $179 $281 forward $103 $-1 #
coedge $-1 $282 $105 $178 $281 reversed $65 $-1 #
coedge $-1 $105 $282 $283 $284 reversed $65 $-1 #
edge $-1 $285 -17.524527859935024 $187 -10.819886417089554 $105 $286 forward 7 unknown #
coedge $-1 $107 $106 $287 $288 reversed $42 $-1 #
coedge $-1 $289 $290 $107 $184 forward $291 $-1 #
edge $-1 $186 10.819886417089554 $292 17.524527859935024 $183 $293 forward 7 unknown #
coedge $-1 $280 $108 $290 $294 forward $103 $-1 #
vertex $-1 $184 $295 #
vertex $-1 $181 $296 #
straight-curve $-1 0 45.297767114981895 10.819886417089554 1 0 0 I I #
face $-1 $-1 $201 $24 $-1 $297 forward single #
loop $-1 $-1 $298 $110 #
plane-surface $-1 -72.526627399517807 0 0 1 0 0 0 0 -1 forward_v I I I I #
coedge $-1 $299 $300 $301 $302 reversed $111 $-1 #
coedge $-1 $303 $113 $115 $199 forward $69 $-1 #
coedge $-1 $113 $303 $299 $304 forward $69 $-1 #
coedge $-1 $301 $116 $113 $196 forward $201 $-1 #
edge $-1 $203 -13.283028930426582 $305 1.6850845116506008 $195 $306 forward 7 unknown #
coedge $-1 $307 $308 $114 $198 forward $190 $-1 #
edge $-1 $309 -43.389410162851867 $202 -26.381288289330758 $197 $310 forward 7 unknown #
edge $-1 $203 -21.296475656802457 $309 0 $115 $311 forward 7 unknown #
coedge $-1 $116 $301 $307 $312 forward $201 $-1 #
loop $-1 $-1 $301 $189 #
vertex $-1 $198 $313 #
vertex $-1 $117 $314 #
straight-curve $-1 -94.185654361437344 -19.082001139814572 17.52452785993502 1 0 0 I I #
coedge $-1 $205 $205 $-1 $315 reversed $120 $-1 #
edge $-1 $316 0 $316 6.2831853071796004 $121 $317 forward 7 unknown #
vertex $-1 $124 $318 #
ellipse-curve $-1 -66.118358020499926 -11.597944418775981 9.0204669231744674 -0.79863551827123203 0 0.60181501223851219 1.2036300244770244 0 1.5972710365424641 1 I I #
face $-1 $-1 $319 $26 $-1 $320 reversed single #
loop $-1 $-1 $131 $125 #
plane-surface $-1 0 0 17.524527859935024 0 0 1 1 0 0 forward_v I I I I #
coedge $-1 $321 $322 $323 $324 reversed $126 $-1 #
coedge $-1 $325 $128 $130 $219 forward $78 $-1 #
coedge $-1 $128 $325 $321 $326 forward $78 $-1 #
coedge $-1 $323 $131 $128 $216 forward $210 $-1 #
edge $-1 $222 -17.912948006852176 $327 -2.2890816766313407 $215 $328 forward 7 unknown #
coedge $-1 $329 $330 $129 $218 forward $319 $-1 #
edge $-1 $331 -97.108883974415747 $221 -86.020148832715421 $217 $332 forward 7 unknown #
edge $-1 $222 124.69346733703375 $331 145.05325479903559 $130 $333 forward 7 unknown #
coedge $-1 $131 $323 $329 $334 forward $210 $-1 #
vertex $-1 $218 $335 #
vertex $-1 $132 $336 #
straight-curve $-1 14.938199120841169 28.013962848593934 17.52452785993502 -1 0 0 I I #
coedge $-1 $224 $224 $-1 $337 reversed $135 $-1 #
edge $-1 $338 0 $338 6.2831853071796004 $136 $339 forward 7 unknown #
vertex $-1 $139 $340 #
ellipse-curve $-1 63.989050189689692 20.202029683483516 11.980160289084845 0.54463904215088732 0 0.83867056331134215 2.5160116899340266 0 -1.633917126452662 1 I I #
face $-1 $-1 $155 $21 $-1 $341 reversed single #
loop $-1 $-1 $244 $140 #
plane-surface $-1 0 45.297767114981895 0 0 -1 0 0 0 -1 forward_v I I I I #
coedge $-1 $342 $242 $245 $343 forward $141 $-1 #
coedge $-1 $248 $143 $144 $236 reversed $87 $-1 #
coedge $-1 $242 $342 $143 $234 reversed $141 $-1 #
edge $-1 $249 -17.524527859935024 $344 17.524527859935024 $233 $345 forward 7 unknown #
coedge $-1 $145 $144 $342 $346 forward $57 $-1 #
edge $-1 $240 -72.526627399517807 $344 72.526627399517807 $232 $347 forward 7 unknown #
coedge $-1 $245 $244 $145 $238 reversed $229 $-1 #
edge $-1 $348 -72.526627399517807 $239 72.526627399517807 $237 $349 forward 7 unknown #
vertex $-1 $147 $350 #
vertex $-1 $251 $351 #
straight-curve $-1 72.526627399517807 0 -17.524527859935024 0 -1 0 I I #
coedge $-1 $231 $233 $148 $243 reversed $141 $-1 #
edge $-1 $246 -45.297767114981895 $249 45.297767114981895 $242 $352 forward 7 unknown #
coedge $-1 $237 $149 $154 $252 forward $229 $-1 #
coedge $-1 $149 $237 $231 $343 reversed $229 $-1 #
vertex $-1 $150 $353 #
straight-curve $-1 0 45.297767114981895 17.524527859935024 -1 0 0 I I #
coedge $-1 $151 $232 $153 $251 reversed $87 $-1 #
vertex $-1 $243 $354 #
straight-curve $-1 0 -45.297767114981895 17.524527859935024 1 0 0 I I #
edge $-1 $156 -17.524527859935024 $240 17.524527859935024 $153 $355 forward 7 unknown #
edge $-1 $157 -17.524527859935024 $239 17.524527859935024 $154 $356 forward 7 unknown #
point $-1 72.526627399517807 -45.297767114981895 17.524527859935024 #
point $-1 72.526627399517807 45.297767114981895 17.524527859935024 #
face $-1 $-1 $269 $22 $-1 $357 reversed single #
loop $-1 $-1 $358 $159 #
plane-surface $-1 0 -62.581571381369855 14.172207138512288 0 1 0 0 0 1 forward_v I I I I #
coedge $-1 $359 $162 $171 $273 reversed $95 $-1 #
coedge $-1 $162 $359 $163 $261 reversed $95 $-1 #
coedge $-1 $164 $163 $360 $361 forward $61 $-1 #
edge $-1 $265 45.297767114981895 $362 62.581571381369855 $259 $363 forward 7 unknown #
coedge $-1 $364 $168 $164 $263 reversed $269 $-1 #
edge $-1 $365 -62.581571381369855 $264 -45.297767114981895 $262 $366 forward 7 unknown #
vertex $-1 $169 $367 #
vertex $-1 $261 $368 #
straight-curve $-1 0 -45.297767114981895 17.524527859935024 -1 0 0 I I #
straight-curve $-1 -72.526627399517807 -45.297767114981895 0 0 0 -1 I I #
coedge $-1 $168 $364 $170 $272 reversed $269 $-1 #
loop $-1 $-1 $168 $255 #
straight-curve $-1 72.526627399517807 -45.297767114981895 0 0 0 1 I I #
coedge $-1 $171 $170 $369 $370 forward $160 $-1 #
edge $-1 $172 -8.6419021331939803 $371 8.6419021331939803 $268 $372 forward 7 unknown #
edge $-1 $373 -8.6419021331939803 $173 8.6419021331939803 $258 $374 forward 7 unknown #
point $-1 72.526627399517807 -45.297767114981895 10.819886417089554 #
point $-1 -72.526627399517807 -45.297767114981895 10.819886417089554 #
face $-1 $-1 $291 $23 $-1 $375 reversed single #
loop $-1 $-1 $287 $175 #
plane-surface $-1 0 0 17.524527859935024 0 0 1 1 0 0 forward_v I I I I #
coedge $-1 $376 $377 $282 $378 forward $176 $-1 #
coedge $-1 $178 $185 $376 $379 forward $103 $-1 #
edge $-1 $380 -8.6419021331939803 $187 8.6419021331939803 $179 $381 forward 7 unknown #
coedge $-1 $180 $179 $279 $378 reversed $65 $-1 #
coedge $-1 $382 $287 $180 $284 forward $277 $-1 #
edge $-1 $285 45.297767114981895 $383 62.581571381369855 $180 $384 forward 7 unknown #
vertex $-1 $284 $385 #
straight-curve $-1 72.526627399517807 45.297767114981895 0 0 0 -1 I I #
coedge $-1 $283 $386 $182 $288 forward $277 $-1 #
edge $-1 $292 -72.526627399517807 $285 72.526627399517807 $287 $387 forward 7 unknown #
coedge $-1 $388 $183 $386 $389 reversed $291 $-1 #
coedge $-1 $183 $388 $185 $294 reversed $291 $-1 #
loop $-1 $-1 $183 $276 #
vertex $-1 $184 $390 #
straight-curve $-1 -72.526627399517807 45.297767114981895 0 0 0 1 I I #
edge $-1 $186 -8.6419021331939803 $391 8.6419021331939803 $290 $392 forward 7 unknown #
point $-1 -72.526627399517807 45.297767114981895 10.819886417089554 #
point $-1 72.526627399517807 45.297767114981895 10.819886417089554 #
plane-surface $-1 0 0 17.524527859935024 0 0 1 1 0 0 forward_v I I I I #
coedge $-1 $308 $307 $300 $393 forward $190 $-1 #
coedge $-1 $300 $192 $194 $304 reversed $111 $-1 #
coedge $-1 $192 $299 $298 $393 reversed $111 $-1 #
coedge $-1 $200 $195 $192 $302 forward $201 $-1 #
edge $-1 $305 -34.475565719955284 $394 -21.659026961919537 $301 $395 forward 7 unknown #
coedge $-1 $194 $193 $308 $396 reversed $69 $-1 #
edge $-1 $397 0 $305 21.296475656802457 $299 $398 forward 7 unknown #
vertex $-1 $196 $399 #
straight-curve $-1 -59.710088641482059 -5.7989722093879905 17.524527859935024 0 1 0 I I #
coedge $-1 $298 $197 $200 $312 reversed $190 $-1 #
coedge $-1 $197 $298 $303 $396 forward $190 $-1 #
vertex $-1 $198 $400 #
straight-curve $-1 -72.526627399517807 -19.082001139814572 43.905816149265782 0 0 1 I I #
straight-curve $-1 -72.526627399517807 -19.082001139814572 0.51640598641391477 -0.60181501223851219 0 -0.79863551827123203 I I #
edge $-1 $394 4.1138876977373897 $202 19.082001139814572 $307 $401 forward 7 unknown #
point $-1 -72.526627399517807 -19.082001139814572 17.524527859935024 #
point $-1 -59.710088641482059 -19.082001139814572 17.524527859935024 #
edge $-1 $402 1 $402 0 $205 $-1 forward 7 unknown #
vertex $-1 $206 $403 #
ellipse-curve $-1 -59.982559811580188 -11.597944418775981 4.3968114636886373 -0.79863551827123203 0 0.60181501223851219 1.2036300244770244 0 1.5972710365424641 1 I I #
point $-1 -64.914727996022904 -11.597944418775981 10.617737959716925 #
loop $-1 $-1 $217 $209 #
plane-surface $-1 72.526627399517807 0 0 -1 0 0 0 0 1 forward_v I I I I #
coedge $-1 $322 $212 $214 $326 reversed $126 $-1 #
coedge $-1 $212 $321 $404 $405 reversed $126 $-1 #
coedge $-1 $220 $215 $212 $324 forward $210 $-1 #
edge $-1 $327 40.513273859020352 $406 57.588428278676638 $323 $407 forward 7 unknown #
coedge $-1 $214 $213 $330 $408 reversed $78 $-1 #
edge $-1 $409 -145.05325479903559 $327 -124.69346733703375 $321 $410 forward 7 unknown #
vertex $-1 $216 $411 #
straight-curve $-1 55.451472979861535 10.101014841741758 17.524527859935013 0 -1 0 I I #
coedge $-1 $404 $217 $220 $334 reversed $319 $-1 #
coedge $-1 $217 $404 $325 $408 forward $319 $-1 #
vertex $-1 $218 $412 #
straight-curve $-1 72.526627399517807 28.013962848593934 103.54467669265044 0 0 1 I I #
straight-curve $-1 -49.125267512933021 28.013962848593934 85.437458472850039 0.83867056331134215 0 -0.54463904215088732 I I #
edge $-1 $406 12.390096518373099 $221 28.013962848593934 $329 $413 forward 7 unknown #
point $-1 72.526627399517807 28.013962848593934 17.524527859935024 #
point $-1 55.451472979861521 28.013962848593934 17.52452785993502 #
edge $-1 $414 1 $414 0 $224 $-1 forward 7 unknown #
vertex $-1 $225 $415 #
ellipse-curve $-1 60.066641818954118 20.202029683483516 5.9401811777258553 0.54463904215088732 0 0.83867056331134215 2.5160116899340266 0 -1.633917126452662 1 I I #
point $-1 66.505061879623725 20.202029683483516 10.346243162632197 #
plane-surface $-1 72.526627399517807 0 0 -1 0 0 0 0 1 forward_v I I I I #
coedge $-1 $233 $231 $235 $346 reversed $141 $-1 #
edge $-1 $246 -17.524527859935024 $348 17.524527859935024 $245 $416 forward 7 unknown #
vertex $-1 $346 $417 #
straight-curve $-1 -72.526627399517807 -45.297767114981895 0 0 0 -1 I I #
edge $-1 $344 -45.297767114981895 $348 45.297767114981895 $342 $418 forward 7 unknown #
straight-curve $-1 0 -45.297767114981895 -17.524527859935024 -1 0 0 I I #
vertex $-1 $238 $419 #
straight-curve $-1 0 45.297767114981895 -17.524527859935024 1 0 0 I I #
point $-1 72.526627399517807 45.297767114981895 -17.524527859935024 #
point $-1 72.526627399517807 -45.297767114981895 -17.524527859935024 #
straight-curve $-1 -72.526627399517807 0 17.524527859935024 0 -1 0 I I #
point $-1 -72.526627399517807 45.297767114981895 17.524527859935024 #
point $-1 -72.526627399517807 -45.297767114981895 17.524527859935024 #
straight-curve $-1 72.526627399517807 -45.297767114981895 0 0 0 -1 I I #
straight-curve $-1 72.526627399517807 45.297767114981895 0 0 0 -1 I I #
plane-surface $-1 72.526627399517807 0 0 -1 0 0 0 0 1 forward_v I I I I #
coedge $-1 $369 $360 $359 $420 forward $256 $-1 #
coedge $-1 $259 $258 $358 $420 reversed $95 $-1 #
coedge $-1 $358 $421 $260 $361 reversed $256 $-1 #
edge $-1 $362 -72.526627399517807 $365 72.526627399517807 $360 $422 forward 7 unknown #
vertex $-1 $261 $423 #
straight-curve $-1 -72.526627399517807 0 17.524527859935024 0 -1 0 I I #
coedge $-1 $268 $262 $421 $424 forward $269 $-1 #
vertex $-1 $263 $425 #
straight-curve $-1 72.526627399517807 0 17.524527859935024 0 1 0 I I #
point $-1 72.526627399517807 -45.297767114981895 17.524527859935024 #
point $-1 -72.526627399517807 -45.297767114981895 17.524527859935024 #
coedge $-1 $421 $358 $271 $370 reversed $256 $-1 #
edge $-1 $371 -72.526627399517807 $373 72.526627399517807 $369 $426 forward 7 unknown #
vertex $-1 $424 $427 #
straight-curve $-1 72.526627399517807 -53.939669248175875 10.819886417089554 0 -1 0 I I #
vertex $-1 $273 $428 #
straight-curve $-1 -72.526627399517807 -53.939669248175875 10.819886417089554 0 1 0 I I #
plane-surface $-1 -72.526627399517807 0 0 1 0 0 0 0 -1 forward_v I I I I #
coedge $-1 $429 $279 $280 $379 reversed $176 $-1 #
coedge $-1 $279 $429 $382 $430 reversed $176 $-1 #
edge $-1 $383 -3.352320721422732 $380 3.3523207214227337 $282 $431 forward 7 unknown #
edge $-1 $391 -72.526627399517807 $380 72.526627399517807 $376 $432 forward 7 unknown #
vertex $-1 $281 $433 #
straight-curve $-1 72.526627399517807 53.939669248175875 10.819886417089554 0 -1 0 I I #
coedge $-1 $386 $283 $377 $430 forward $277 $-1 #
vertex $-1 $284 $434 #
straight-curve $-1 72.526627399517807 0 17.524527859935024 0 1 0 I I #
point $-1 72.526627399517807 45.297767114981895 17.524527859935024 #
coedge $-1 $287 $382 $289 $389 forward $277 $-1 #
straight-curve $-1 0 45.297767114981895 17.524527859935024 1 0 0 I I #
coedge $-1 $290 $289 $429 $435 forward $291 $-1 #
edge $-1 $436 -62.581571381369855 $292 -45.297767114981895 $289 $437 forward 7 unknown #
point $-1 -72.526627399517807 45.297767114981895 17.524527859935024 #
vertex $-1 $379 $438 #
straight-curve $-1 -72.526627399517807 53.939669248175875 10.819886417089554 0 1 0 I I #
edge $-1 $394 26.381288289330758 $397 43.389410162851867 $298 $439 forward 7 unknown #
vertex $-1 $312 $440 #
straight-curve $-1 -94.185654361437344 -4.1138876977373897 17.52452785993502 -1 0 0 I I #
edge $-1 $397 -1.6850845116506008 $309 13.283028930426582 $308 $441 forward 7 unknown #
vertex $-1 $396 $442 #
straight-curve $-1 -72.526627399517807 -4.1138876977373897 0.51640598641391477 0.60181501223851219 0 0.79863551827123203 I I #
point $-1 -59.710088641482059 -4.1138876977373897 17.524527859935024 #
point $-1 -72.526627399517807 -19.082001139814572 0.51640598641391477 #
straight-curve $-1 -72.526627399517807 0 17.524527859935024 0 -1 0 I I #
vertex $-1 $315 $443 #
point $-1 -58.778929787103159 -11.597944418775981 5.9940825002311007 #
coedge $-1 $330 $329 $322 $405 forward $319 $-1 #
edge $-1 $406 86.020148832715421 $409 97.108883974415747 $404 $444 forward 7 unknown #
vertex $-1 $334 $445 #
straight-curve $-1 14.938199120841169 12.390096518373099 17.52452785993502 1 0 0 I I #
edge $-1 $409 2.2890816766313407 $331 17.912948006852176 $330 $446 forward 7 unknown #
vertex $-1 $408 $447 #
straight-curve $-1 -49.125267512933021 12.390096518373099 85.437458472850039 -0.83867056331134215 0 0.54463904215088732 I I #
point $-1 55.451472979861521 12.390096518373099 17.52452785993502 #
point $-1 72.526627399517793 28.013962848593934 6.4357927182346941 #
straight-curve $-1 72.526627399517807 0 17.524527859935024 0 1 0 I I #
vertex $-1 $337 $448 #
point $-1 62.582653508888143 20.202029683483516 4.3062640512731933 #
straight-curve $-1 -72.526627399517807 45.297767114981895 0 0 0 -1 I I #
point $-1 -72.526627399517807 -45.297767114981895 -17.524527859935024 #
straight-curve $-1 -72.526627399517807 0 -17.524527859935024 0 1 0 I I #
point $-1 -72.526627399517807 45.297767114981895 -17.524527859935024 #
edge $-1 $362 -3.352320721422732 $373 3.3523207214227337 $359 $449 forward 7 unknown #
coedge $-1 $360 $369 $364 $424 reversed $256 $-1 #
straight-curve $-1 0 -62.581571381369855 17.52452785993502 1 0 0 I I #
point $-1 -72.526627399517807 -62.581571381369855 17.52452785993502 #
edge $-1 $365 -3.352320721422732 $371 3.3523207214227337 $364 $450 forward 7 unknown #
point $-1 72.526627399517807 -62.581571381369855 17.52452785993502 #
straight-curve $-1 0 -62.581571381369855 10.819886417089554 -1 0 0 I I #
point $-1 72.526627399517807 -62.581571381369855 10.819886417089554 #
point $-1 -72.526627399517807 -62.581571381369855 10.819886417089554 #
coedge $-1 $377 $376 $388 $435 reversed $176 $-1 #
edge $-1 $383 -72.526627399517807 $436 72.526627399517807 $377 $451 forward 7 unknown #
straight-curve $-1 72.526627399517807 62.581571381369855 14.172207138512288 0 0 -1 I I #
straight-curve $-1 0 62.581571381369855 10.819886417089554 1 0 0 I I #
point $-1 72.526627399517807 62.581571381369855 10.819886417089554 #
point $-1 72.526627399517807 62.581571381369855 17.52452785993502 #
edge $-1 $436 -3.352320721422732 $391 3.3523207214227337 $429 $452 forward 7 unknown #
vertex $-1 $430 $453 #
straight-curve $-1 -72.526627399517807 0 17.524527859935024 0 -1 0 I I #
point $-1 -72.526627399517807 62.581571381369855 10.819886417089554 #
straight-curve $-1 -72.526627399517807 -4.1138876977373897 43.905816149265782 0 0 -1 I I #
point $-1 -72.526627399517807 -4.1138876977373897 17.524527859935024 #
straight-curve $-1 -72.526627399517807 -5.7989722093879905 0.5164059864139241 0 -1 0 I I #
point $-1 -72.526627399517807 -4.1138876977373897 0.51640598641391477 #
point $-1 -58.385288775037722 -11.597944418775981 3.1931814392116125 #
straight-curve $-1 72.526627399517807 12.390096518373099 103.54467669265044 0 0 -1 I I #
point $-1 72.526627399517807 12.390096518373099 17.524527859935024 #
straight-curve $-1 72.526627399517807 10.101014841741758 6.4357927182347012 0 1 0 I I #
point $-1 72.526627399517793 12.390096518373099 6.4357927182346941 #
point $-1 58.432724692501459 20.202029683483516 3.4241694877918283 #
straight-curve $-1 -72.526627399517807 -62.581571381369855 14.172207138512288 0 0 -1 I I #
straight-curve $-1 72.526627399517807 -62.581571381369855 14.172207138512288 0 0 -1 I I #
straight-curve $-1 0 62.581571381369855 17.52452785993502 -1 0 0 I I #
straight-curve $-1 -72.526627399517807 62.581571381369855 14.172207138512288 0 0 -1 I I #
point $-1 -72.526627399517807 62.581571381369855 17.52452785993502 #
End-of-ACIS-data 