500 0 12 0           
7 Unknown 11 ACIS 5.0 NT 24 Thu Mar 25 17:52:15 1999 
-1 9.9999999999999995e-007 1e-010 
body $-1 $12 $-1 $13 #
body $-1 $14 $-1 $15 #
body $-1 $16 $-1 $17 #
body $-1 $18 $-1 $19 #
body $-1 $20 $-1 $21 #
body $-1 $22 $-1 $23 #
body $-1 $24 $-1 $25 #
body $-1 $26 $-1 $27 #
body $-1 $28 $-1 $29 #
body $-1 $30 $-1 $31 #
body $-1 $32 $-1 $33 #
body $-1 $34 $-1 $35 #
lump $-1 $-1 $36 $0 #
transform $-1 1 0 0 0 1 0 0 0 1 63.7092196417127 39.04175330074743 13.789184574405652 1 rotate no_reflect no_shear #
lump $-1 $-1 $37 $1 #
transform $-1 1 0 0 0 1 0 0 0 1 63.7092196417127 39.04175330074743 13.789184574405652 1 rotate no_reflect no_shear #
lump $-1 $-1 $38 $2 #
transform $-1 1 0 0 0 1 0 0 0 1 63.7092196417127 39.04175330074743 13.789184574405652 1 rotate no_reflect no_shear #
lump $-1 $-1 $39 $3 #
transform $-1 1 0 0 0 1 0 0 0 1 63.7092196417127 39.04175330074743 13.789184574405652 1 rotate no_reflect no_shear #
lump $-1 $-1 $40 $4 #
transform $-1 1 0 0 0 1 0 0 0 1 63.7092196417127 39.04175330074743 13.789184574405652 1 rotate no_reflect no_shear #
lump $-1 $-1 $41 $5 #
transform $-1 1 0 0 0 1 0 0 0 1 63.7092196417127 39.04175330074743 13.789184574405652 1 rotate no_reflect no_shear #
lump $-1 $-1 $42 $6 #
transform $-1 1 0 0 0 1 0 0 0 1 63.7092196417127 39.04175330074743 13.789184574405652 1 rotate no_reflect no_shear #
lump $-1 $-1 $43 $7 #
transform $-1 1 0 0 0 1 0 0 0 1 63.7092196417127 39.04175330074743 13.789184574405652 1 rotate no_reflect no_shear #
lump $-1 $-1 $44 $8 #
transform $-1 1 0 0 0 1 0 0 0 1 63.7092196417127 39.04175330074743 13.789184574405652 1 rotate no_reflect no_shear #
lump $-1 $-1 $45 $9 #
transform $-1 1 0 0 0 1 0 0 0 1 63.7092196417127 39.04175330074743 13.789184574405652 1 rotate no_reflect no_shear #
lump $-1 $-1 $46 $10 #
transform $-1 1 0 0 0 1 0 0 0 1 63.7092196417127 39.04175330074743 13.789184574405652 1 rotate no_reflect no_shear #
lump $-1 $-1 $47 $11 #
transform $-1 1 0 0 0 1 0 0 0 1 63.7092196417127 39.04175330074743 13.789184574405652 1 rotate no_reflect no_shear #
shell $-1 $-1 $-1 $48 $-1 $12 #
shell $-1 $-1 $-1 $49 $-1 $14 #
shell $-1 $-1 $-1 $50 $-1 $16 #
shell $-1 $-1 $-1 $51 $-1 $18 #
shell $-1 $-1 $-1 $52 $-1 $20 #
shell $-1 $-1 $-1 $53 $-1 $22 #
shell $-1 $-1 $-1 $54 $-1 $24 #
shell $-1 $-1 $-1 $55 $-1 $26 #
shell $-1 $-1 $-1 $56 $-1 $28 #
shell $-1 $-1 $-1 $57 $-1 $30 #
shell $-1 $-1 $-1 $58 $-1 $32 #
shell $-1 $-1 $-1 $59 $-1 $34 #
face $-1 $60 $61 $36 $-1 $62 forward single #
face $-1 $63 $64 $37 $-1 $65 reversed single #
face $-1 $66 $67 $38 $-1 $68 reversed single #
face $-1 $69 $70 $39 $-1 $71 forward single #
face $-1 $72 $73 $40 $-1 $74 forward single #
face $-1 $75 $76 $41 $-1 $77 forward single #
face $-1 $78 $79 $42 $-1 $80 reversed single #
face $-1 $81 $82 $43 $-1 $83 forward single #
face $-1 $84 $85 $44 $-1 $86 forward single #
face $-1 $87 $88 $45 $-1 $89 reversed single #
face $-1 $90 $91 $46 $-1 $92 forward single #
face $-1 $93 $94 $47 $-1 $95 forward single #
face $-1 $96 $97 $36 $-1 $98 reversed single #
loop $-1 $-1 $99 $48 #
plane-surface $-1 0 0 13.789184574405652 0 0 1 1 0 0 forward_v I I I I #
face $-1 $100 $101 $37 $-1 $102 reversed single #
loop $-1 $-1 $103 $49 #
plane-surface $-1 -55.992082105657879 -35.329012048480273 0 0 1 0 0 0 1 forward_v I I I I #
face $-1 $104 $105 $38 $-1 $106 reversed single #
loop $-1 $-1 $107 $50 #
plane-surface $-1 50.040148542560772 -102.75097379600265 113.45986328618487 -1 0 0 0 -0.50000000669873634 0.8660253999169214 forward_v I I I I #
face $-1 $108 $109 $39 $-1 $110 forward single #
loop $-1 $111 $112 $51 #
cone-surface $-1 27.141476817495096 -28.972904809974938 7.0263532794699994 0 0.50000000669873634 -0.8660253999169214 2.5 0 0 1 I I 0 1 2.5 forward I I I I #
face $-1 $113 $114 $40 $-1 $115 forward single #
loop $-1 $116 $117 $52 #
cone-surface $-1 35.728478714394718 -28.972904809974938 7.0263532794699994 0 0.50000000669873634 -0.8660253999169214 2.5 0 0 1 I I 0 1 2.5 forward I I I I #
face $-1 $118 $119 $41 $-1 $120 forward single #
loop $-1 $121 $122 $53 #
cone-surface $-1 44.31548061129434 -28.972904809974938 7.0263532794699994 0 0.50000000669873634 -0.8660253999169214 2.5 0 0 1 I I 0 1 2.5 forward I I I I #
face $-1 $123 $124 $42 $-1 $125 reversed single #
loop $-1 $-1 $126 $54 #
plane-surface $-1 -30.43473774540584 101.01268609682343 136.89311454940579 1 0 0 0 -0.82903758062907751 -0.55919289150049634 forward_v I I I I #
face $-1 $127 $128 $43 $-1 $129 forward single #
loop $-1 $130 $131 $55 #
cone-surface $-1 -25.075664039360433 31.853381626953045 5.4300523346413403 0 -0.82903758062907751 -0.55919289150049634 2 0 0 1 I I 0 1 2 forward I I I I #
face $-1 $132 $133 $44 $-1 $134 forward single #
loop $-1 $135 $136 $56 #
cone-surface $-1 -17.037053480292322 31.853381626953045 5.4300523346413403 0 -0.82903758062907751 -0.55919289150049634 2 0 0 1 I I 0 1 2 forward I I I I #
face $-1 $137 $138 $45 $-1 $139 reversed single #
loop $-1 $-1 $140 $57 #
plane-surface $-1 27.112254846356556 101.01268609682343 136.89311454940579 1 0 0 0 -0.82903758062907751 -0.55919289150049634 forward_v I I I I #
face $-1 $141 $142 $46 $-1 $143 forward single #
loop $-1 $144 $145 $58 #
cone-surface $-1 32.471328552401964 31.853381626953045 5.4300523346413403 0 -0.82903758062907751 -0.55919289150049634 2 0 0 1 I I 0 1 2 forward I I I I #
face $-1 $146 $147 $47 $-1 $148 forward single #
loop $-1 $149 $150 $59 #
cone-surface $-1 40.509939111470082 31.853381626953045 5.4300523346413403 0 -0.82903758062907751 -0.55919289150049634 2 0 0 1 I I 0 1 2 forward I I I I #
face $-1 $151 $152 $36 $-1 $153 reversed single #
loop $-1 $-1 $154 $60 #
plane-surface $-1 0 0 -13.789184574405652 0 0 1 1 0 0 forward_v I I I I #
coedge $-1 $155 $156 $157 $158 forward $61 $-1 #
face $-1 $159 $160 $37 $-1 $161 reversed single #
loop $-1 $-1 $162 $63 #
plane-surface $-1 -55.992082105657879 -31.025062760590735 0 0 -1 0 0 0 -1 forward_v I I I I #
coedge $-1 $163 $164 $165 $166 reversed $64 $-1 #
face $-1 $167 $168 $38 $-1 $169 reversed single #
loop $-1 $-1 $170 $66 #
plane-surface $-1 35.728478714394733 -39.041753300747416 3.1122584489664007 0 -0.50000000669873634 0.8660253999169214 1 0 0 forward_v I I I I #
coedge $-1 $171 $172 $173 $174 reversed $67 $-1 #
face $-1 $-1 $175 $39 $-1 $176 forward single #
loop $-1 $177 $178 $69 #
cone-surface $-1 27.141476817495096 -27.525545404616391 4.519453297357817 0 0.50000000669873634 -0.8660253999169214 1.25 0 0 1 I I -0.70710678118654746 0.70710678118654746 1.25 forward I I I I #
loop $-1 $-1 $179 $51 #
coedge $-1 $112 $112 $180 $181 reversed $70 $-1 #
face $-1 $-1 $182 $40 $-1 $183 forward single #
loop $-1 $184 $185 $72 #
cone-surface $-1 35.728478714394718 -27.525545404616391 4.519453297357817 0 0.50000000669873634 -0.8660253999169214 1.25 0 0 1 I I -0.70710678118654746 0.70710678118654746 1.25 forward I I I I #
loop $-1 $-1 $186 $52 #
coedge $-1 $117 $117 $187 $188 reversed $73 $-1 #
face $-1 $-1 $189 $41 $-1 $190 forward single #
loop $-1 $191 $192 $75 #
cone-surface $-1 44.31548061129434 -27.525545404616391 4.519453297357817 0 0.50000000669873634 -0.8660253999169214 1.25 0 0 1 I I -0.70710678118654746 0.70710678118654746 1.25 forward I I I I #
loop $-1 $-1 $193 $53 #
coedge $-1 $122 $122 $194 $195 reversed $76 $-1 #
face $-1 $196 $197 $42 $-1 $198 reversed single #
loop $-1 $-1 $199 $78 #
plane-surface $-1 -21.056358759826381 -4.6219885342405576 65.641629056026716 0 0.82903758062907751 0.55919289150049634 1 0 0 forward_v I I I I #
coedge $-1 $200 $201 $202 $203 reversed $79 $-1 #
face $-1 $-1 $204 $43 $-1 $205 forward single #
loop $-1 $206 $207 $81 #
cone-surface $-1 -25.075664039360433 28.180386123700245 2.9525856625349505 0 -0.82903758062907751 -0.55919289150049634 1 0 0 1 I I -0.70710678118654735 0.70710678118654768 1 forward I I I I #
loop $-1 $-1 $208 $55 #
coedge $-1 $131 $131 $209 $210 reversed $82 $-1 #
face $-1 $-1 $211 $44 $-1 $212 forward single #
loop $-1 $213 $214 $84 #
cone-surface $-1 -17.037053480292322 28.180386123700245 2.9525856625349505 0 -0.82903758062907751 -0.55919289150049634 1 0 0 1 I I -0.70710678118654735 0.70710678118654768 1 forward I I I I #
loop $-1 $-1 $215 $56 #
coedge $-1 $136 $136 $216 $217 reversed $85 $-1 #
face $-1 $218 $219 $45 $-1 $220 reversed single #
loop $-1 $-1 $221 $87 #
plane-surface $-1 36.490633831936016 -4.6219885342405576 65.641629056026716 0 0.82903758062907751 0.55919289150049634 1 0 0 forward_v I I I I #
coedge $-1 $222 $223 $224 $225 reversed $88 $-1 #
face $-1 $-1 $226 $46 $-1 $227 forward single #
loop $-1 $228 $229 $90 #
cone-surface $-1 32.471328552401964 28.180386123700245 2.9525856625349505 0 -0.82903758062907751 -0.55919289150049634 1 0 0 1 I I -0.70710678118654735 0.70710678118654768 1 forward I I I I #
loop $-1 $-1 $230 $58 #
coedge $-1 $145 $145 $231 $232 reversed $91 $-1 #
face $-1 $-1 $233 $47 $-1 $234 forward single #
loop $-1 $235 $236 $93 #
cone-surface $-1 40.509939111470082 28.180386123700245 2.9525856625349505 0 -0.82903758062907751 -0.55919289150049634 1 0 0 1 I I -0.70710678118654735 0.70710678118654768 1 forward I I I I #
loop $-1 $-1 $237 $59 #
coedge $-1 $150 $150 $238 $239 reversed $94 $-1 #
face $-1 $240 $241 $36 $-1 $242 reversed single #
loop $-1 $-1 $243 $96 #
plane-surface $-1 0 -39.04175330074743 0 0 1 0 0 0 1 forward_v I I I I #
coedge $-1 $244 $245 $246 $247 forward $97 $-1 #
coedge $-1 $248 $99 $249 $250 forward $61 $-1 #
coedge $-1 $99 $248 $251 $252 forward $61 $-1 #
coedge $-1 $253 $254 $99 $158 reversed $255 $-1 #
edge $-1 $256 -39.04175330074743 $257 39.04175330074743 $157 $258 forward 7 unknown #
face $-1 $259 $260 $37 $-1 $261 reversed single #
loop $-1 $-1 $262 $100 #
plane-surface $-1 -48.274944569603058 -33.177037404535504 0 -1 0 0 0 0 1 forward_v I I I I #
coedge $-1 $263 $264 $265 $266 forward $101 $-1 #
coedge $-1 $267 $103 $268 $269 reversed $64 $-1 #
coedge $-1 $103 $267 $270 $271 reversed $64 $-1 #
coedge $-1 $272 $273 $103 $166 forward $274 $-1 #
edge $-1 $275 -13.789184574405652 $276 13.789184574405652 $165 $277 forward 7 unknown #
face $-1 $278 $279 $38 $-1 $280 reversed single #
loop $-1 $-1 $281 $104 #
plane-surface $-1 21.416808886228694 -102.75097379600265 113.45986328618487 1 0 0 0 0.50000000669873634 -0.8660253999169214 forward_v I I I I #
coedge $-1 $282 $283 $284 $285 reversed $105 $-1 #
coedge $-1 $172 $107 $286 $287 reversed $67 $-1 #
coedge $-1 $107 $171 $282 $288 reversed $67 $-1 #
coedge $-1 $284 $289 $107 $174 forward $290 $-1 #
edge $-1 $291 12.333733597253897 $292 30.82671178482865 $173 $293 forward 7 unknown #
loop $-1 $-1 $180 $108 #
plane-surface $-1 35.728478714394733 -39.041753300747416 3.1122584489664007 0 -0.50000000669873634 0.8660253999169214 1 0 0 forward_v I I I I #
loop $-1 $-1 $294 $69 #
coedge $-1 $178 $178 $179 $295 reversed $109 $-1 #
coedge $-1 $179 $179 $178 $295 forward $111 $-1 #
coedge $-1 $180 $180 $112 $181 forward $175 $-1 #
edge $-1 $296 9.0093212204932262e-016 $296 6.2831853071796013 $180 $297 forward 7 unknown #
loop $-1 $-1 $187 $113 #
plane-surface $-1 35.728478714394733 -39.041753300747416 3.1122584489664007 0 -0.50000000669873634 0.8660253999169214 1 0 0 forward_v I I I I #
loop $-1 $-1 $298 $72 #
coedge $-1 $185 $185 $186 $299 reversed $114 $-1 #
coedge $-1 $186 $186 $185 $299 forward $116 $-1 #
coedge $-1 $187 $187 $117 $188 forward $182 $-1 #
edge $-1 $300 9.0093212204932262e-016 $300 6.2831853071796013 $187 $301 forward 7 unknown #
loop $-1 $-1 $194 $118 #
plane-surface $-1 35.728478714394733 -39.041753300747416 3.1122584489664007 0 -0.50000000669873634 0.8660253999169214 1 0 0 forward_v I I I I #
loop $-1 $-1 $302 $75 #
coedge $-1 $192 $192 $193 $303 reversed $119 $-1 #
coedge $-1 $193 $193 $192 $303 forward $121 $-1 #
coedge $-1 $194 $194 $122 $195 forward $189 $-1 #
edge $-1 $304 9.0093212204932262e-016 $304 6.2831853071796013 $194 $305 forward 7 unknown #
face $-1 $306 $307 $42 $-1 $308 reversed single #
loop $-1 $-1 $309 $123 #
plane-surface $-1 -11.677979774246921 101.01268609682343 136.89311454940579 -1 0 0 0 0.82903758062907751 0.55919289150049634 forward_v I I I I #
coedge $-1 $310 $311 $312 $313 reversed $124 $-1 #
coedge $-1 $201 $126 $314 $315 reversed $79 $-1 #
coedge $-1 $126 $200 $310 $316 reversed $79 $-1 #
coedge $-1 $312 $317 $126 $203 forward $318 $-1 #
edge $-1 $319 11.464589747664284 $320 20.15341725000561 $202 $321 forward 7 unknown #
loop $-1 $-1 $209 $127 #
plane-surface $-1 -21.056358759826381 -4.6219885342405576 65.641629056026716 0 0.82903758062907751 0.55919289150049634 1 0 0 forward_v I I I I #
loop $-1 $-1 $322 $81 #
coedge $-1 $207 $207 $208 $323 reversed $128 $-1 #
coedge $-1 $208 $208 $207 $323 forward $130 $-1 #
coedge $-1 $209 $209 $131 $210 forward $204 $-1 #
edge $-1 $324 1.3268475623363539e-015 $324 6.2831853071796013 $209 $325 forward 7 unknown #
loop $-1 $-1 $216 $132 #
plane-surface $-1 -21.056358759826381 -4.6219885342405576 65.641629056026716 0 0.82903758062907751 0.55919289150049634 1 0 0 forward_v I I I I #
loop $-1 $-1 $326 $84 #
coedge $-1 $214 $214 $215 $327 reversed $133 $-1 #
coedge $-1 $215 $215 $214 $327 forward $135 $-1 #
coedge $-1 $216 $216 $136 $217 forward $211 $-1 #
edge $-1 $328 1.3268475623363539e-015 $328 6.2831853071796013 $216 $329 forward 7 unknown #
face $-1 $330 $331 $45 $-1 $332 forward single #
loop $-1 $-1 $333 $137 #
plane-surface $-1 45.869012817515475 101.01268609682343 136.89311454940579 -1 0 0 0 0.82903758062907751 0.55919289150049634 forward_v I I I I #
coedge $-1 $334 $335 $336 $337 reversed $138 $-1 #
coedge $-1 $223 $140 $338 $339 reversed $88 $-1 #
coedge $-1 $140 $222 $334 $340 reversed $88 $-1 #
coedge $-1 $336 $341 $140 $225 forward $331 $-1 #
edge $-1 $342 11.464589747664284 $343 20.15341725000561 $224 $344 forward 7 unknown #
loop $-1 $-1 $231 $141 #
plane-surface $-1 36.490633831936016 -4.6219885342405576 65.641629056026716 0 0.82903758062907751 0.55919289150049634 1 0 0 forward_v I I I I #
loop $-1 $-1 $345 $90 #
coedge $-1 $229 $229 $230 $346 reversed $142 $-1 #
coedge $-1 $230 $230 $229 $346 forward $144 $-1 #
coedge $-1 $231 $231 $145 $232 forward $226 $-1 #
edge $-1 $347 1.3268475623363539e-015 $347 6.2831853071796013 $231 $348 forward 7 unknown #
loop $-1 $-1 $238 $146 #
plane-surface $-1 36.490633831936016 -4.6219885342405576 65.641629056026716 0 0.82903758062907751 0.55919289150049634 1 0 0 forward_v I I I I #
loop $-1 $-1 $349 $93 #
coedge $-1 $236 $236 $237 $350 reversed $147 $-1 #
coedge $-1 $237 $237 $236 $350 forward $149 $-1 #
coedge $-1 $238 $238 $150 $239 forward $233 $-1 #
edge $-1 $351 1.3268475623363539e-015 $351 6.2831853071796013 $238 $352 forward 7 unknown #
face $-1 $353 $354 $36 $-1 $355 reversed single #
loop $-1 $-1 $356 $151 #
plane-surface $-1 -63.7092196417127 0 0 1 0 0 0 0 -1 forward_v I I I I #
coedge $-1 $357 $251 $358 $359 forward $152 $-1 #
coedge $-1 $360 $154 $357 $361 forward $97 $-1 #
coedge $-1 $154 $360 $362 $363 forward $97 $-1 #
coedge $-1 $254 $253 $154 $247 reversed $255 $-1 #
edge $-1 $364 -39.04175330074743 $365 39.04175330074743 $246 $366 forward 7 unknown #
coedge $-1 $156 $155 $367 $368 forward $61 $-1 #
coedge $-1 $369 $370 $155 $250 reversed $354 $-1 #
edge $-1 $257 -63.7092196417127 $371 63.7092196417127 $249 $372 forward 7 unknown #
coedge $-1 $243 $373 $156 $252 reversed $152 $-1 #
edge $-1 $374 -63.7092196417127 $256 63.7092196417127 $251 $375 forward 7 unknown #
coedge $-1 $246 $157 $373 $376 forward $255 $-1 #
coedge $-1 $157 $246 $369 $377 reversed $255 $-1 #
loop $-1 $-1 $253 $353 #
vertex $-1 $158 $378 #
vertex $-1 $158 $379 #
straight-curve $-1 63.7092196417127 0 13.789184574405652 0 1 0 I I #
face $-1 $380 $381 $37 $-1 $382 forward single #
loop $-1 $-1 $383 $159 #
plane-surface $-1 0 0 -13.789184574405652 0 0 1 1 0 0 forward_v I I I I #
coedge $-1 $384 $385 $267 $386 forward $160 $-1 #
coedge $-1 $387 $162 $383 $388 reversed $101 $-1 #
coedge $-1 $162 $387 $389 $390 reversed $101 $-1 #
coedge $-1 $385 $384 $162 $266 reversed $160 $-1 #
edge $-1 $391 -13.789184574405652 $392 13.789184574405652 $265 $393 forward 7 unknown #
coedge $-1 $164 $163 $262 $386 reversed $64 $-1 #
coedge $-1 $394 $395 $163 $269 forward $260 $-1 #
edge $-1 $396 20.278903516774118 $275 35.713178588883764 $268 $397 forward 7 unknown #
coedge $-1 $398 $399 $164 $271 forward $381 $-1 #
edge $-1 $276 -35.713178588883764 $400 -20.278903516774118 $270 $401 forward 7 unknown #
coedge $-1 $402 $165 $399 $403 reversed $274 $-1 #
coedge $-1 $165 $402 $394 $404 reversed $274 $-1 #
loop $-1 $-1 $402 $380 #
vertex $-1 $404 $405 #
vertex $-1 $166 $406 #
straight-curve $-1 -63.7092196417127 -35.329012048480273 0 0 0 1 I I #
face $-1 $-1 $290 $38 $-1 $407 forward single #
loop $-1 $-1 $408 $167 #
plane-surface $-1 0 -39.04175330074743 0 0 1 0 0 0 1 forward_v I I I I #
coedge $-1 $409 $410 $411 $412 reversed $168 $-1 #
coedge $-1 $413 $170 $172 $288 forward $105 $-1 #
coedge $-1 $170 $413 $409 $414 forward $105 $-1 #
coedge $-1 $411 $173 $170 $285 forward $290 $-1 #
edge $-1 $292 -32.175909185363409 $415 -3.5525695290313273 $284 $416 forward 7 unknown #
coedge $-1 $417 $418 $171 $287 forward $279 $-1 #
edge $-1 $419 -53.617673194126041 $291 -42.940747068686782 $286 $420 forward 7 unknown #
edge $-1 $292 -21.353851964790856 $419 1.6303764080091705e-014 $172 $421 forward 7 unknown #
coedge $-1 $173 $411 $417 $422 forward $290 $-1 #
loop $-1 $-1 $411 $278 #
vertex $-1 $287 $423 #
vertex $-1 $174 $424 #
straight-curve $-1 50.040148542560772 -51.375486898001327 13.789184574405652 0 1 0 I I #
coedge $-1 $294 $294 $-1 $425 reversed $177 $-1 #
edge $-1 $426 0 $426 6.2831853071796004 $178 $427 forward 7 unknown #
vertex $-1 $181 $428 #
ellipse-curve $-1 27.141476817495096 -29.795264206960059 8.4507215116860195 0 -0.50000000669873634 0.8660253999169214 2.5 0 0 1 I I #
coedge $-1 $298 $298 $-1 $429 reversed $184 $-1 #
edge $-1 $430 0 $430 6.2831853071796004 $185 $431 forward 7 unknown #
vertex $-1 $188 $432 #
ellipse-curve $-1 35.728478714394718 -29.795264206960059 8.4507215116860195 0 -0.50000000669873634 0.8660253999169214 2.5 0 0 1 I I #
coedge $-1 $302 $302 $-1 $433 reversed $191 $-1 #
edge $-1 $434 0 $434 6.2831853071796004 $192 $435 forward 7 unknown #
vertex $-1 $195 $436 #
ellipse-curve $-1 44.31548061129434 -29.795264206960059 8.4507215116860195 0 -0.50000000669873634 0.8660253999169214 2.5 0 0 1 I I #
face $-1 $-1 $318 $42 $-1 $437 forward single #
loop $-1 $-1 $438 $196 #
plane-surface $-1 0 39.04175330074743 0 0 -1 0 0 0 -1 forward_v I I I I #
coedge $-1 $439 $440 $441 $442 reversed $197 $-1 #
coedge $-1 $443 $199 $201 $316 forward $124 $-1 #
coedge $-1 $199 $443 $439 $444 forward $124 $-1 #
coedge $-1 $441 $202 $199 $313 forward $318 $-1 #
edge $-1 $320 -19.90655836549265 $445 -1.1498003943337309 $312 $446 forward 7 unknown #
coedge $-1 $447 $448 $200 $315 forward $307 $-1 #
edge $-1 $449 -67.539089618614057 $319 -54.657372700297245 $314 $450 forward 7 unknown #
edge $-1 $320 62.545348598401524 $449 78.083506601494832 $201 $451 forward 7 unknown #
coedge $-1 $202 $441 $447 $452 forward $318 $-1 #
loop $-1 $-1 $441 $306 #
vertex $-1 $315 $453 #
vertex $-1 $203 $454 #
straight-curve $-1 -30.43473774540584 50.506343048411715 13.789184574405652 0 -1 0 I I #
coedge $-1 $322 $322 $-1 $455 reversed $206 $-1 #
edge $-1 $456 0 $456 6.2831853071796004 $207 $457 forward 7 unknown #
vertex $-1 $210 $458 #
ellipse-curve $-1 -25.075664039360433 34.697339549576775 7.3483261152472403 0 0.82903758062907751 0.55919289150049634 2 0 0 1 I I #
coedge $-1 $326 $326 $-1 $459 reversed $213 $-1 #
edge $-1 $460 0 $460 6.2831853071796004 $214 $461 forward 7 unknown #
vertex $-1 $217 $462 #
ellipse-curve $-1 -17.037053480292322 34.697339549576775 7.3483261152472403 0 0.82903758062907751 0.55919289150049634 2 0 0 1 I I #
face $-1 $-1 $463 $45 $-1 $464 reversed single #
loop $-1 $-1 $224 $218 #
plane-surface $-1 0 0 13.789184574405652 0 0 1 1 0 0 forward_v I I I I #
coedge $-1 $465 $466 $467 $468 reversed $219 $-1 #
coedge $-1 $469 $221 $223 $340 forward $138 $-1 #
coedge $-1 $221 $469 $465 $470 forward $138 $-1 #
coedge $-1 $467 $224 $221 $337 forward $331 $-1 #
edge $-1 $343 8.8669379303885485 $471 27.623695901547467 $336 $472 forward 7 unknown #
coedge $-1 $473 $474 $222 $339 forward $463 $-1 #
edge $-1 $475 -67.539089618614057 $342 -54.657372700297245 $338 $476 forward 7 unknown #
edge $-1 $343 62.545348598401524 $475 78.083506601494832 $223 $477 forward 7 unknown #
coedge $-1 $224 $467 $473 $478 forward $331 $-1 #
vertex $-1 $339 $479 #
vertex $-1 $225 $480 #
straight-curve $-1 27.112254846356556 50.506343048411715 13.789184574405652 0 -1 0 I I #
coedge $-1 $345 $345 $-1 $481 reversed $228 $-1 #
edge $-1 $482 0 $482 6.2831853071796004 $229 $483 forward 7 unknown #
vertex $-1 $232 $484 #
ellipse-curve $-1 32.471328552401964 34.697339549576775 7.3483261152472403 0 0.82903758062907751 0.55919289150049634 2 0 0 1 I I #
coedge $-1 $349 $349 $-1 $485 reversed $235 $-1 #
edge $-1 $486 0 $486 6.2831853071796004 $236 $487 forward 7 unknown #
vertex $-1 $239 $488 #
ellipse-curve $-1 40.509939111470082 34.697339549576775 7.3483261152472403 0 0.82903758062907751 0.55919289150049634 2 0 0 1 I I #
face $-1 $-1 $255 $36 $-1 $489 reversed single #
loop $-1 $-1 $369 $240 #
plane-surface $-1 0 39.04175330074743 0 0 -1 0 0 0 -1 forward_v I I I I #
coedge $-1 $490 $367 $370 $491 forward $241 $-1 #
coedge $-1 $373 $243 $244 $361 reversed $152 $-1 #
coedge $-1 $367 $490 $243 $359 reversed $241 $-1 #
edge $-1 $374 -13.789184574405652 $492 13.789184574405652 $358 $493 forward 7 unknown #
coedge $-1 $245 $244 $490 $494 forward $97 $-1 #
edge $-1 $365 -63.7092196417127 $492 63.7092196417127 $357 $495 forward 7 unknown #
coedge $-1 $370 $369 $245 $363 reversed $354 $-1 #
edge $-1 $496 -63.7092196417127 $364 63.7092196417127 $362 $497 forward 7 unknown #
vertex $-1 $247 $498 #
vertex $-1 $376 $499 #
straight-curve $-1 63.7092196417127 0 -13.789184574405652 0 -1 0 I I #
coedge $-1 $356 $358 $248 $368 reversed $241 $-1 #
edge $-1 $371 -39.04175330074743 $374 39.04175330074743 $367 $500 forward 7 unknown #
coedge $-1 $362 $249 $254 $377 forward $354 $-1 #
coedge $-1 $249 $362 $356 $491 reversed $354 $-1 #
vertex $-1 $250 $501 #
straight-curve $-1 0 39.04175330074743 13.789184574405652 -1 0 0 I I #
coedge $-1 $251 $357 $253 $376 reversed $152 $-1 #
vertex $-1 $368 $502 #
straight-curve $-1 0 -39.04175330074743 13.789184574405652 1 0 0 I I #
edge $-1 $256 -13.789184574405652 $365 13.789184574405652 $253 $503 forward 7 unknown #
edge $-1 $257 -13.789184574405652 $364 13.789184574405652 $254 $504 forward 7 unknown #
point $-1 63.7092196417127 -39.04175330074743 13.789184574405652 #
point $-1 63.7092196417127 39.04175330074743 13.789184574405652 #
face $-1 $-1 $274 $37 $-1 $505 reversed single #
loop $-1 $-1 $389 $259 #
plane-surface $-1 0 0 13.789184574405652 0 0 1 1 0 0 forward_v I I I I #
coedge $-1 $395 $394 $263 $388 forward $260 $-1 #
coedge $-1 $265 $262 $395 $506 reversed $160 $-1 #
coedge $-1 $262 $265 $398 $507 reversed $160 $-1 #
edge $-1 $400 -13.789184574405652 $396 13.789184574405652 $262 $508 forward 7 unknown #
coedge $-1 $264 $263 $402 $509 reversed $101 $-1 #
edge $-1 $510 -35.713178588883764 $392 -20.278903516774118 $383 $511 forward 7 unknown #
coedge $-1 $399 $398 $264 $390 forward $381 $-1 #
edge $-1 $391 20.278903516774118 $512 35.713178588883764 $389 $513 forward 7 unknown #
vertex $-1 $390 $514 #
vertex $-1 $388 $515 #
straight-curve $-1 -48.274944569603058 -31.025062760590735 0 0 0 -1 I I #
coedge $-1 $383 $268 $273 $404 forward $260 $-1 #
coedge $-1 $268 $383 $384 $506 forward $260 $-1 #
vertex $-1 $269 $516 #
straight-curve $-1 -27.996041052828939 -35.329012048480273 -13.789184574405652 -1 0 0 I I #
coedge $-1 $389 $270 $385 $507 forward $381 $-1 #
coedge $-1 $270 $389 $272 $403 forward $381 $-1 #
vertex $-1 $271 $517 #
straight-curve $-1 -27.996041052828939 -35.329012048480273 13.789184574405652 1 0 0 I I #
coedge $-1 $273 $272 $387 $509 forward $274 $-1 #
edge $-1 $512 31.025062760590735 $276 35.329012048480273 $272 $518 forward 7 unknown #
edge $-1 $275 -35.329012048480273 $510 -31.025062760590735 $273 $519 forward 7 unknown #
point $-1 -63.7092196417127 -35.329012048480273 -13.789184574405652 #
point $-1 -63.7092196417127 -35.329012048480273 13.789184574405652 #
plane-surface $-1 0 0 13.789184574405652 0 0 1 1 0 0 forward_v I I I I #
coedge $-1 $418 $417 $410 $520 forward $279 $-1 #
coedge $-1 $410 $281 $283 $414 reversed $168 $-1 #
coedge $-1 $281 $409 $408 $520 reversed $168 $-1 #
coedge $-1 $289 $284 $281 $412 forward $290 $-1 #
edge $-1 $415 -30.82671178482865 $521 -12.333733597253897 $411 $522 forward 7 unknown #
coedge $-1 $283 $282 $418 $523 reversed $105 $-1 #
edge $-1 $524 -1.6303764080091705e-014 $415 21.353851964790856 $409 $525 forward 7 unknown #
vertex $-1 $285 $526 #
straight-curve $-1 17.864239357197366 -20.548775113172681 13.789184574405652 -1 0 0 I I #
coedge $-1 $408 $286 $289 $422 reversed $279 $-1 #
coedge $-1 $286 $408 $413 $523 forward $279 $-1 #
vertex $-1 $287 $527 #
straight-curve $-1 50.040148542560772 -39.04175330074743 56.729931643092435 0 0 1 I I #
straight-curve $-1 50.040148542560772 -39.041753300747416 3.1122584489664007 0 -0.8660253999169214 -0.50000000669873634 I I #
edge $-1 $521 21.416808886228694 $291 50.040148542560772 $417 $528 forward 7 unknown #
point $-1 50.040148542560772 -39.04175330074743 13.789184574405652 #
point $-1 50.040148542560772 -20.548775113172677 13.789184574405652 #
edge $-1 $529 1 $529 0 $294 $-1 forward 7 unknown #
vertex $-1 $295 $530 #
ellipse-curve $-1 27.141476817495096 -28.150545412989811 5.6019850472539687 0 -0.50000000669873634 0.8660253999169214 2.5 0 0 1 I I #
point $-1 29.641476817495096 -29.795264206960063 8.4507215116860301 #
edge $-1 $531 1 $531 0 $298 $-1 forward 7 unknown #
vertex $-1 $299 $532 #
ellipse-curve $-1 35.728478714394718 -28.150545412989811 5.6019850472539687 0 -0.50000000669873634 0.8660253999169214 2.5 0 0 1 I I #
point $-1 38.228478714394718 -29.795264206960063 8.4507215116860301 #
edge $-1 $533 1 $533 0 $302 $-1 forward 7 unknown #
vertex $-1 $303 $534 #
ellipse-curve $-1 44.31548061129434 -28.150545412989811 5.6019850472539687 0 -0.50000000669873634 0.8660253999169214 2.5 0 0 1 I I #
point $-1 46.81548061129434 -29.795264206960063 8.4507215116860301 #
plane-surface $-1 0 0 13.789184574405652 0 0 1 1 0 0 forward_v I I I I #
coedge $-1 $448 $447 $440 $535 forward $307 $-1 #
coedge $-1 $440 $309 $311 $444 reversed $197 $-1 #
coedge $-1 $309 $439 $438 $535 reversed $197 $-1 #
coedge $-1 $317 $312 $309 $442 forward $318 $-1 #
edge $-1 $445 -20.15341725000561 $536 -11.464589747664284 $441 $537 forward 7 unknown #
coedge $-1 $311 $310 $448 $538 reversed $124 $-1 #
edge $-1 $539 -78.083506601494832 $445 -62.545348598401524 $439 $540 forward 7 unknown #
vertex $-1 $313 $541 #
straight-curve $-1 -10.52817937991319 30.352925798406105 13.789184574405652 1 0 0 I I #
coedge $-1 $438 $314 $317 $452 reversed $307 $-1 #
coedge $-1 $314 $438 $443 $538 forward $307 $-1 #
vertex $-1 $315 $542 #
straight-curve $-1 -30.43473774540584 39.04175330074743 68.446557274702897 0 0 1 I I #
straight-curve $-1 -30.43473774540584 -4.6219885342405576 65.641629056026716 0 0.55919289150049634 -0.82903758062907751 I I #
edge $-1 $536 11.677979774246921 $319 30.43473774540584 $447 $543 forward 7 unknown #
point $-1 -30.43473774540584 39.04175330074743 13.789184574405652 #
point $-1 -30.43473774540584 30.352925798406105 13.789184574405652 #
edge $-1 $544 1 $544 0 $322 $-1 forward 7 unknown #
vertex $-1 $323 $545 #
ellipse-curve $-1 -25.075664039360433 29.009423704329322 3.5117785540354469 0 0.82903758062907751 0.55919289150049634 2 0 0 1 I I #
point $-1 -23.075664039360433 34.697339549576768 7.3483261152472323 #
edge $-1 $546 1 $546 0 $326 $-1 forward 7 unknown #
vertex $-1 $327 $547 #
ellipse-curve $-1 -17.037053480292322 29.009423704329322 3.5117785540354469 0 0.82903758062907751 0.55919289150049634 2 0 0 1 I I #
point $-1 -15.037053480292322 34.697339549576768 7.3483261152472323 #
loop $-1 $-1 $338 $330 #
plane-surface $-1 0 39.04175330074743 0 0 -1 0 0 0 -1 forward_v I I I I #
coedge $-1 $466 $333 $335 $470 reversed $219 $-1 #
coedge $-1 $333 $465 $548 $549 reversed $219 $-1 #
coedge $-1 $341 $336 $333 $468 forward $331 $-1 #
edge $-1 $471 -20.15341725000561 $550 -11.464589747664284 $467 $551 forward 7 unknown #
coedge $-1 $335 $334 $474 $552 reversed $138 $-1 #
edge $-1 $553 -78.083506601494832 $471 -62.545348598401524 $465 $554 forward 7 unknown #
vertex $-1 $337 $555 #
straight-curve $-1 18.245316915968008 30.352925798406105 13.789184574405652 1 0 0 I I #
coedge $-1 $548 $338 $341 $478 reversed $463 $-1 #
coedge $-1 $338 $548 $469 $552 forward $463 $-1 #
vertex $-1 $339 $556 #
straight-curve $-1 27.112254846356556 39.04175330074743 68.446557274702897 0 0 1 I I #
straight-curve $-1 27.112254846356556 -4.6219885342405576 65.641629056026716 0 0.55919289150049634 -0.82903758062907751 I I #
edge $-1 $550 -45.869012817515475 $342 -27.112254846356556 $473 $557 forward 7 unknown #
point $-1 27.112254846356556 39.04175330074743 13.789184574405652 #
point $-1 27.112254846356556 30.352925798406105 13.789184574405652 #
edge $-1 $558 1 $558 0 $345 $-1 forward 7 unknown #
vertex $-1 $346 $559 #
ellipse-curve $-1 32.471328552401964 29.009423704329322 3.5117785540354469 0 0.82903758062907751 0.55919289150049634 2 0 0 1 I I #
point $-1 34.471328552401964 34.697339549576768 7.3483261152472323 #
edge $-1 $560 1 $560 0 $349 $-1 forward 7 unknown #
vertex $-1 $350 $561 #
ellipse-curve $-1 40.509939111470082 29.009423704329322 3.5117785540354469 0 0.82903758062907751 0.55919289150049634 2 0 0 1 I I #
point $-1 42.509939111470082 34.697339549576768 7.3483261152472323 #
plane-surface $-1 63.7092196417127 0 0 -1 0 0 0 0 1 forward_v I I I I #
coedge $-1 $358 $356 $360 $494 reversed $241 $-1 #
edge $-1 $371 -13.789184574405652 $496 13.789184574405652 $370 $562 forward 7 unknown #
vertex $-1 $494 $563 #
straight-curve $-1 -63.7092196417127 -39.04175330074743 0 0 0 -1 I I #
edge $-1 $492 -39.04175330074743 $496 39.04175330074743 $490 $564 forward 7 unknown #
straight-curve $-1 0 -39.04175330074743 -13.789184574405652 -1 0 0 I I #
vertex $-1 $363 $565 #
straight-curve $-1 0 39.04175330074743 -13.789184574405652 1 0 0 I I #
point $-1 63.7092196417127 39.04175330074743 -13.789184574405652 #
point $-1 63.7092196417127 -39.04175330074743 -13.789184574405652 #
straight-curve $-1 -63.7092196417127 0 13.789184574405652 0 -1 0 I I #
point $-1 -63.7092196417127 39.04175330074743 13.789184574405652 #
point $-1 -63.7092196417127 -39.04175330074743 13.789184574405652 #
straight-curve $-1 63.7092196417127 -39.04175330074743 0 0 0 -1 I I #
straight-curve $-1 63.7092196417127 39.04175330074743 0 0 0 -1 I I #
plane-surface $-1 -63.7092196417127 0 0 1 0 0 0 0 -1 forward_v I I I I #
edge $-1 $392 14.436544058322983 $396 18.740493346212521 $395 $566 forward 7 unknown #
edge $-1 $400 -18.740493346212521 $391 -14.436544058322983 $398 $567 forward 7 unknown #
straight-curve $-1 -48.274944569603058 -35.329012048480273 0 0 0 -1 I I #
edge $-1 $512 -13.789184574405652 $510 13.789184574405652 $402 $568 forward 7 unknown #
vertex $-1 $509 $569 #
straight-curve $-1 -27.996041052828939 -31.025062760590735 -13.789184574405652 1 0 0 I I #
vertex $-1 $403 $570 #
straight-curve $-1 -27.996041052828939 -31.025062760590735 13.789184574405652 -1 0 0 I I #
point $-1 -48.274944569603058 -31.025062760590735 13.789184574405652 #
point $-1 -48.274944569603058 -31.025062760590735 -13.789184574405652 #
point $-1 -48.274944569603058 -35.329012048480273 -13.789184574405652 #
point $-1 -48.274944569603058 -35.329012048480273 13.789184574405652 #
straight-curve $-1 -63.7092196417127 0 13.789184574405652 0 -1 0 I I #
straight-curve $-1 -63.7092196417127 0 -13.789184574405652 0 1 0 I I #
edge $-1 $521 42.940747068686782 $524 53.617673194126041 $408 $571 forward 7 unknown #
vertex $-1 $422 $572 #
straight-curve $-1 21.416808886228694 -51.375486898001327 13.789184574405652 0 -1 0 I I #
edge $-1 $524 3.5525695290313273 $419 32.175909185363409 $418 $573 forward 7 unknown #
vertex $-1 $523 $574 #
straight-curve $-1 21.416808886228694 -39.041753300747416 3.1122584489664007 0 0.8660253999169214 0.50000000669873634 I I #
point $-1 21.416808886228694 -20.548775113172677 13.789184574405652 #
point $-1 50.040148542560772 -39.04175330074743 3.1122584489663927 #
straight-curve $-1 0 -39.04175330074743 13.789184574405652 1 0 0 I I #
vertex $-1 $425 $575 #
point $-1 29.641476817495096 -28.150545412989811 5.6019850472539687 #
vertex $-1 $429 $576 #
point $-1 38.228478714394718 -28.150545412989811 5.6019850472539687 #
vertex $-1 $433 $577 #
point $-1 46.81548061129434 -28.150545412989811 5.6019850472539687 #
edge $-1 $536 54.657372700297245 $539 67.539089618614057 $438 $578 forward 7 unknown #
vertex $-1 $452 $579 #
straight-curve $-1 -11.677979774246921 50.506343048411715 13.789184574405652 0 1 0 I I #
edge $-1 $539 1.1498003943337309 $449 19.90655836549265 $448 $580 forward 7 unknown #
vertex $-1 $538 $581 #
straight-curve $-1 -11.677979774246921 -4.6219885342405576 65.641629056026716 0 -0.55919289150049634 0.82903758062907751 I I #
point $-1 -11.677979774246921 30.352925798406105 13.789184574405652 #
point $-1 -30.43473774540584 39.04175330074743 0.90746765608884061 #
straight-curve $-1 0 39.04175330074743 13.789184574405652 -1 0 0 I I #
vertex $-1 $455 $582 #
point $-1 -23.075664039360433 29.009423704329322 3.5117785540354469 #
vertex $-1 $459 $583 #
point $-1 -15.037053480292322 29.009423704329322 3.5117785540354469 #
coedge $-1 $474 $473 $466 $549 forward $463 $-1 #
edge $-1 $550 54.657372700297245 $553 67.539089618614057 $548 $584 forward 7 unknown #
vertex $-1 $478 $585 #
straight-curve $-1 45.869012817515475 50.506343048411715 13.789184574405652 0 1 0 I I #
edge $-1 $553 -27.623695901547467 $475 -8.8669379303885485 $474 $586 forward 7 unknown #
vertex $-1 $552 $587 #
straight-curve $-1 45.869012817515475 -4.6219885342405576 65.641629056026716 0 -0.55919289150049634 0.82903758062907751 I I #
point $-1 45.869012817515475 30.352925798406105 13.789184574405652 #
point $-1 27.112254846356556 39.04175330074743 0.90746765608884061 #
straight-curve $-1 0 39.04175330074743 13.789184574405652 -1 0 0 I I #
vertex $-1 $481 $588 #
point $-1 34.471328552401964 29.009423704329322 3.5117785540354469 #
vertex $-1 $485 $589 #
point $-1 42.509939111470082 29.009423704329322 3.5117785540354469 #
straight-curve $-1 -63.7092196417127 39.04175330074743 0 0 0 -1 I I #
point $-1 -63.7092196417127 -39.04175330074743 -13.789184574405652 #
straight-curve $-1 -63.7092196417127 0 -13.789184574405652 0 1 0 I I #
point $-1 -63.7092196417127 39.04175330074743 -13.789184574405652 #
straight-curve $-1 -48.274944569603058 -16.588518702267752 -13.789184574405652 0 -1 0 I I #
straight-curve $-1 -48.274944569603058 -16.588518702267752 13.789184574405652 0 1 0 I I #
straight-curve $-1 -63.7092196417127 -31.025062760590735 0 0 0 -1 I I #
point $-1 -63.7092196417127 -31.025062760590735 -13.789184574405652 #
point $-1 -63.7092196417127 -31.025062760590735 13.789184574405652 #
straight-curve $-1 21.416808886228694 -39.04175330074743 56.729931643092435 0 0 -1 I I #
point $-1 21.416808886228694 -39.04175330074743 13.789184574405652 #
straight-curve $-1 17.864239357197366 -39.04175330074743 3.1122584489663914 1 0 0 I I #
point $-1 21.416808886228694 -39.04175330074743 3.1122584489663927 #
point $-1 27.141476817495096 -26.900545396242972 3.4369215474616652 #
point $-1 35.728478714394718 -26.900545396242972 3.4369215474616652 #
point $-1 44.31548061129434 -26.900545396242972 3.4369215474616652 #
straight-curve $-1 -11.677979774246921 39.04175330074743 68.446557274702897 0 0 -1 I I #
point $-1 -11.677979774246921 39.04175330074743 13.789184574405652 #
straight-curve $-1 -10.52817937991319 39.04175330074743 0.90746765608884061 -1 0 0 I I #
point $-1 -11.677979774246921 39.04175330074743 0.90746765608884061 #
point $-1 -25.075664039360433 27.351348543071168 2.393392771034454 #
point $-1 -17.037053480292322 27.351348543071168 2.393392771034454 #
straight-curve $-1 45.869012817515475 39.04175330074743 68.446557274702897 0 0 -1 I I #
point $-1 45.869012817515475 39.04175330074743 13.789184574405652 #
straight-curve $-1 18.245316915968008 39.04175330074743 0.90746765608884061 -1 0 0 I I #
point $-1 45.869012817515475 39.04175330074743 0.90746765608884061 #
point $-1 32.471328552401964 27.351348543071168 2.393392771034454 #
point $-1 40.509939111470082 27.351348543071168 2.393392771034454 #
End-of-ACIS-data 