500 0 6 0           
7 Unknown 11 ACIS 5.0 NT 24 Fri Mar 26 01:51:01 1999 
-1 9.9999999999999995e-007 1e-010 
body $-1 $6 $-1 $7 #
body $-1 $8 $-1 $9 #
body $-1 $10 $-1 $11 #
body $-1 $12 $-1 $13 #
body $-1 $14 $-1 $15 #
body $-1 $16 $-1 $17 #
lump $-1 $-1 $18 $0 #
transform $-1 1 0 0 0 1 0 0 0 1 70.226752525406653 34.054841972951493 6.9104296933607525 1 rotate no_reflect no_shear #
lump $-1 $-1 $19 $1 #
transform $-1 1 0 0 0 1 0 0 0 1 70.226752525406653 34.054841972951493 6.9104296933607525 1 rotate no_reflect no_shear #
lump $-1 $-1 $20 $2 #
transform $-1 1 0 0 0 1 0 0 0 1 70.226752525406653 34.054841972951493 6.9104296933607525 1 rotate no_reflect no_shear #
lump $-1 $-1 $21 $3 #
transform $-1 1 0 0 0 1 0 0 0 1 70.226752525406653 34.054841972951493 6.9104296933607525 1 rotate no_reflect no_shear #
lump $-1 $-1 $22 $4 #
transform $-1 1 0 0 0 1 0 0 0 1 70.226752525406653 34.054841972951493 6.9104296933607525 1 rotate no_reflect no_shear #
lump $-1 $-1 $23 $5 #
transform $-1 1 0 0 0 1 0 0 0 1 70.226752525406653 34.054841972951493 6.9104296933607525 1 rotate no_reflect no_shear #
shell $-1 $-1 $-1 $24 $-1 $6 #
shell $-1 $-1 $-1 $25 $-1 $8 #
shell $-1 $-1 $-1 $26 $-1 $10 #
shell $-1 $-1 $-1 $27 $-1 $12 #
shell $-1 $-1 $-1 $28 $-1 $14 #
shell $-1 $-1 $-1 $29 $-1 $16 #
face $-1 $30 $31 $18 $-1 $32 forward single #
face $-1 $33 $34 $19 $-1 $35 reversed single #
face $-1 $36 $37 $20 $-1 $38 reversed single #
face $-1 $39 $40 $21 $-1 $41 forward single #
face $-1 $42 $43 $22 $-1 $44 reversed single #
face $-1 $45 $46 $23 $-1 $47 forward single #
face $-1 $48 $49 $18 $-1 $50 reversed single #
loop $-1 $-1 $51 $24 #
plane-surface $-1 0 0 6.9104296933607525 0 0 1 1 0 0 forward_v I I I I #
face $-1 $52 $53 $19 $-1 $54 reversed single #
loop $-1 $-1 $55 $25 #
plane-surface $-1 -68.726752525406653 -28.794660936006231 0 0 -1 0 0 0 -1 forward_v I I I I #
face $-1 $56 $57 $20 $-1 $58 reversed single #
loop $-1 $-1 $59 $26 #
plane-surface $-1 -59.803427076752143 97.868409930131662 144.94840752983401 1 0 0 0 -0.7660444514056185 -0.64278759981090561 forward_v I I I I #
face $-1 $60 $61 $21 $-1 $62 forward single #
loop $-1 $63 $64 $27 #
cone-surface $-1 -44.703828713543814 31.07779072700038 3.7585937488220833 0 -0.7660444514056185 -0.64278759981090561 1 0 0 1 I I 0 1 1 forward I I I I #
face $-1 $65 $66 $22 $-1 $67 reversed single #
loop $-1 $-1 $68 $28 #
plane-surface $-1 10.423325448654506 97.868409930131662 144.94840752983401 1 0 0 0 -0.7660444514056185 -0.64278759981090561 forward_v I I I I #
face $-1 $69 $70 $23 $-1 $71 forward single #
loop $-1 $72 $73 $29 #
cone-surface $-1 25.522923811862839 31.07779072700038 3.7585937488220833 0 -0.7660444514056185 -0.64278759981090561 1 0 0 1 I I 0 1 1 forward I I I I #
face $-1 $74 $75 $18 $-1 $76 reversed single #
loop $-1 $-1 $77 $30 #
plane-surface $-1 0 0 -6.9104296933607525 0 0 1 1 0 0 forward_v I I I I #
coedge $-1 $78 $79 $80 $81 forward $31 $-1 #
face $-1 $82 $83 $19 $-1 $84 forward single #
loop $-1 $-1 $85 $33 #
plane-surface $-1 -67.226752525406653 -31.424751454478862 0 -1 0 0 0 0 1 forward_v I I I I #
coedge $-1 $86 $87 $88 $89 forward $34 $-1 #
face $-1 $90 $91 $20 $-1 $92 reversed single #
loop $-1 $-1 $93 $36 #
plane-surface $-1 -44.703828713543814 -9.7252182945148888 54.666636133192824 0 0.7660444514056185 0.64278759981090561 1 0 0 forward_v I I I I #
coedge $-1 $94 $95 $96 $97 reversed $37 $-1 #
face $-1 $-1 $98 $21 $-1 $99 forward single #
loop $-1 $100 $101 $39 #
cone-surface $-1 -44.703828713543814 29.571640308604394 2.4947835213365739 0 -0.7660444514056185 -0.64278759981090561 0.5 0 0 1 I I -0.70710678118654746 0.70710678118654746 0.5 forward I I I I #
loop $-1 $-1 $102 $27 #
coedge $-1 $64 $64 $103 $104 reversed $40 $-1 #
face $-1 $105 $106 $22 $-1 $107 reversed single #
loop $-1 $-1 $108 $42 #
plane-surface $-1 25.522923811862839 -9.7252182945148888 54.666636133192824 0 0.7660444514056185 0.64278759981090561 1 0 0 forward_v I I I I #
coedge $-1 $109 $110 $111 $112 reversed $43 $-1 #
face $-1 $-1 $113 $23 $-1 $114 forward single #
loop $-1 $115 $116 $45 #
cone-surface $-1 25.522923811862839 29.571640308604394 2.4947835213365739 0 -0.7660444514056185 -0.64278759981090561 0.5 0 0 1 I I -0.70710678118654746 0.70710678118654746 0.5 forward I I I I #
loop $-1 $-1 $117 $29 #
coedge $-1 $73 $73 $118 $119 reversed $46 $-1 #
face $-1 $120 $121 $18 $-1 $122 reversed single #
loop $-1 $-1 $123 $48 #
plane-surface $-1 0 -34.054841972951493 0 0 1 0 0 0 1 forward_v I I I I #
coedge $-1 $124 $125 $126 $127 forward $49 $-1 #
coedge $-1 $128 $51 $129 $130 forward $31 $-1 #
coedge $-1 $51 $128 $131 $132 forward $31 $-1 #
coedge $-1 $133 $134 $51 $81 reversed $135 $-1 #
edge $-1 $136 -34.054841972951493 $137 34.054841972951493 $80 $138 forward 7 unknown #
face $-1 $139 $140 $19 $-1 $141 reversed single #
loop $-1 $-1 $142 $52 #
plane-surface $-1 0 0 6.9104296933607525 0 0 1 1 0 0 forward_v I I I I #
coedge $-1 $143 $144 $145 $146 reversed $53 $-1 #
coedge $-1 $147 $55 $148 $149 reversed $34 $-1 #
coedge $-1 $55 $147 $150 $151 reversed $34 $-1 #
coedge $-1 $144 $143 $55 $89 reversed $53 $-1 #
edge $-1 $152 -6.9104296933607525 $153 6.9104296933607525 $88 $154 forward 7 unknown #
face $-1 $155 $156 $20 $-1 $157 reversed single #
loop $-1 $-1 $158 $56 #
plane-surface $-1 -29.604230350335481 97.868409930131662 144.94840752983401 -1 0 0 0 0.7660444514056185 0.64278759981090561 forward_v I I I I #
coedge $-1 $159 $160 $161 $162 reversed $57 $-1 #
coedge $-1 $95 $59 $163 $164 reversed $37 $-1 #
coedge $-1 $59 $94 $159 $165 reversed $37 $-1 #
coedge $-1 $161 $166 $59 $97 forward $167 $-1 #
edge $-1 $168 14.879362992114338 $169 18.58720909863024 $96 $170 forward 7 unknown #
loop $-1 $-1 $103 $60 #
plane-surface $-1 -44.703828713543814 -9.7252182945148888 54.666636133192824 0 0.7660444514056185 0.64278759981090561 1 0 0 forward_v I I I I #
loop $-1 $-1 $171 $39 #
coedge $-1 $101 $101 $102 $172 reversed $61 $-1 #
coedge $-1 $102 $102 $101 $172 forward $63 $-1 #
coedge $-1 $103 $103 $64 $104 forward $98 $-1 #
edge $-1 $173 2.1353112358879215e-015 $173 6.2831853071796022 $103 $174 forward 7 unknown #
face $-1 $175 $176 $22 $-1 $177 forward single #
loop $-1 $-1 $178 $65 #
plane-surface $-1 40.622522175071168 97.868409930131662 144.94840752983401 -1 0 0 0 0.7660444514056185 0.64278759981090561 forward_v I I I I #
coedge $-1 $179 $180 $181 $182 reversed $66 $-1 #
coedge $-1 $110 $68 $183 $184 reversed $43 $-1 #
coedge $-1 $68 $109 $179 $185 reversed $43 $-1 #
coedge $-1 $181 $186 $68 $112 forward $176 $-1 #
edge $-1 $187 14.879362992114338 $188 18.58720909863024 $111 $189 forward 7 unknown #
loop $-1 $-1 $118 $69 #
plane-surface $-1 25.522923811862839 -9.7252182945148888 54.666636133192824 0 0.7660444514056185 0.64278759981090561 1 0 0 forward_v I I I I #
loop $-1 $-1 $190 $45 #
coedge $-1 $116 $116 $117 $191 reversed $70 $-1 #
coedge $-1 $117 $117 $116 $191 forward $72 $-1 #
coedge $-1 $118 $118 $73 $119 forward $113 $-1 #
edge $-1 $192 2.1353112358879215e-015 $192 6.2831853071796022 $118 $193 forward 7 unknown #
face $-1 $194 $195 $18 $-1 $196 reversed single #
loop $-1 $-1 $197 $74 #
plane-surface $-1 -70.226752525406653 0 0 1 0 0 0 0 -1 forward_v I I I I #
coedge $-1 $198 $131 $199 $200 forward $75 $-1 #
coedge $-1 $201 $77 $198 $202 forward $49 $-1 #
coedge $-1 $77 $201 $203 $204 forward $49 $-1 #
coedge $-1 $134 $133 $77 $127 reversed $135 $-1 #
edge $-1 $205 -34.054841972951493 $206 34.054841972951493 $126 $207 forward 7 unknown #
coedge $-1 $79 $78 $208 $209 forward $31 $-1 #
coedge $-1 $210 $211 $78 $130 reversed $195 $-1 #
edge $-1 $137 -70.226752525406653 $212 70.226752525406653 $129 $213 forward 7 unknown #
coedge $-1 $123 $214 $79 $132 reversed $75 $-1 #
edge $-1 $215 -70.226752525406653 $136 70.226752525406653 $131 $216 forward 7 unknown #
coedge $-1 $126 $80 $214 $217 forward $135 $-1 #
coedge $-1 $80 $126 $210 $218 reversed $135 $-1 #
loop $-1 $-1 $133 $194 #
vertex $-1 $81 $219 #
vertex $-1 $81 $220 #
straight-curve $-1 70.226752525406653 0 6.9104296933607525 0 1 0 I I #
face $-1 $221 $222 $19 $-1 $223 reversed single #
loop $-1 $-1 $224 $82 #
plane-surface $-1 -70.226752525406653 0 0 1 0 0 0 0 -1 forward_v I I I I #
coedge $-1 $150 $225 $144 $226 forward $83 $-1 #
coedge $-1 $88 $85 $227 $228 reversed $53 $-1 #
coedge $-1 $85 $88 $142 $226 reversed $53 $-1 #
coedge $-1 $229 $230 $85 $146 forward $231 $-1 #
edge $-1 $232 -6.9104296933607525 $233 6.9104296933607525 $145 $234 forward 7 unknown #
coedge $-1 $87 $86 $224 $235 reversed $34 $-1 #
coedge $-1 $227 $236 $86 $149 forward $222 $-1 #
edge $-1 $237 -35.863376262703326 $153 -32.863376262703326 $148 $238 forward 7 unknown #
coedge $-1 $239 $142 $87 $151 forward $83 $-1 #
edge $-1 $152 32.863376262703326 $240 35.863376262703326 $150 $241 forward 7 unknown #
vertex $-1 $151 $242 #
vertex $-1 $149 $243 #
straight-curve $-1 -67.226752525406653 -28.794660936006231 0 0 0 -1 I I #
face $-1 $-1 $167 $20 $-1 $244 forward single #
loop $-1 $-1 $245 $90 #
plane-surface $-1 0 34.054841972951493 0 0 -1 0 0 0 -1 forward_v I I I I #
coedge $-1 $246 $247 $248 $249 reversed $91 $-1 #
coedge $-1 $250 $93 $95 $165 forward $57 $-1 #
coedge $-1 $93 $250 $246 $251 forward $57 $-1 #
coedge $-1 $248 $96 $93 $162 forward $167 $-1 #
edge $-1 $169 -37.451512719980236 $252 -7.2523159935635739 $161 $253 forward 7 unknown #
coedge $-1 $254 $255 $94 $164 forward $156 $-1 #
edge $-1 $256 -69.982613105473547 $168 -65.563774071556253 $163 $257 forward 7 unknown #
edge $-1 $169 62.34129932304058 $256 68.109683945903058 $95 $258 forward 7 unknown #
coedge $-1 $96 $248 $254 $259 forward $167 $-1 #
loop $-1 $-1 $248 $155 #
vertex $-1 $164 $260 #
vertex $-1 $97 $261 #
straight-curve $-1 -59.803427076752143 48.934204965065831 6.9104296933607543 0 -1 0 I I #
coedge $-1 $171 $171 $-1 $262 reversed $100 $-1 #
edge $-1 $263 0 $263 6.2831853071796004 $101 $264 forward 7 unknown #
vertex $-1 $104 $265 #
ellipse-curve $-1 -44.703828713543814 32.200918919693535 4.701010176402125 0 0.7660444514056185 0.64278759981090561 1 0 0 1 I I #
face $-1 $-1 $266 $22 $-1 $267 reversed single #
loop $-1 $-1 $111 $105 #
plane-surface $-1 0 0 6.9104296933607525 0 0 1 1 0 0 forward_v I I I I #
coedge $-1 $268 $269 $270 $271 reversed $106 $-1 #
coedge $-1 $272 $108 $110 $185 forward $66 $-1 #
coedge $-1 $108 $272 $268 $273 forward $66 $-1 #
coedge $-1 $270 $111 $108 $182 forward $176 $-1 #
edge $-1 $188 -2.3381364572769137 $274 27.861060269139749 $181 $275 forward 7 unknown #
coedge $-1 $276 $277 $109 $184 forward $266 $-1 #
edge $-1 $278 -69.982613105473547 $187 -65.563774071556253 $183 $279 forward 7 unknown #
edge $-1 $188 62.34129932304058 $278 68.109683945903058 $110 $280 forward 7 unknown #
coedge $-1 $111 $270 $276 $281 forward $176 $-1 #
vertex $-1 $184 $282 #
vertex $-1 $112 $283 #
straight-curve $-1 10.423325448654506 48.934204965065831 6.9104296933607543 0 -1 0 I I #
coedge $-1 $190 $190 $-1 $284 reversed $115 $-1 #
edge $-1 $285 0 $285 6.2831853071796004 $116 $286 forward 7 unknown #
vertex $-1 $119 $287 #
ellipse-curve $-1 25.522923811862839 32.200918919693535 4.701010176402125 0 0.7660444514056185 0.64278759981090561 1 0 0 1 I I #
face $-1 $-1 $135 $18 $-1 $288 reversed single #
loop $-1 $-1 $210 $120 #
plane-surface $-1 0 34.054841972951493 0 0 -1 0 0 0 -1 forward_v I I I I #
coedge $-1 $289 $208 $211 $290 forward $121 $-1 #
coedge $-1 $214 $123 $124 $202 reversed $75 $-1 #
coedge $-1 $208 $289 $123 $200 reversed $121 $-1 #
edge $-1 $215 -6.9104296933607525 $291 6.9104296933607525 $199 $292 forward 7 unknown #
coedge $-1 $125 $124 $289 $293 forward $49 $-1 #
edge $-1 $206 -70.226752525406653 $291 70.226752525406653 $198 $294 forward 7 unknown #
coedge $-1 $211 $210 $125 $204 reversed $195 $-1 #
edge $-1 $295 -70.226752525406653 $205 70.226752525406653 $203 $296 forward 7 unknown #
vertex $-1 $127 $297 #
vertex $-1 $217 $298 #
straight-curve $-1 70.226752525406653 0 -6.9104296933607525 0 -1 0 I I #
coedge $-1 $197 $199 $128 $209 reversed $121 $-1 #
edge $-1 $212 -34.054841972951493 $215 34.054841972951493 $208 $299 forward 7 unknown #
coedge $-1 $203 $129 $134 $218 forward $195 $-1 #
coedge $-1 $129 $203 $197 $290 reversed $195 $-1 #
vertex $-1 $130 $300 #
straight-curve $-1 0 34.054841972951493 6.9104296933607525 -1 0 0 I I #
coedge $-1 $131 $198 $133 $217 reversed $75 $-1 #
vertex $-1 $209 $301 #
straight-curve $-1 0 -34.054841972951493 6.9104296933607525 1 0 0 I I #
edge $-1 $136 -6.9104296933607525 $206 6.9104296933607525 $133 $302 forward 7 unknown #
edge $-1 $137 -6.9104296933607525 $205 6.9104296933607525 $134 $303 forward 7 unknown #
point $-1 70.226752525406653 -34.054841972951493 6.9104296933607525 #
point $-1 70.226752525406653 34.054841972951493 6.9104296933607525 #
face $-1 $-1 $231 $19 $-1 $304 reversed single #
loop $-1 $-1 $227 $139 #
plane-surface $-1 0 0 -6.9104296933607525 0 0 1 1 0 0 forward_v I I I I #
coedge $-1 $305 $306 $147 $235 forward $140 $-1 #
coedge $-1 $142 $239 $229 $307 forward $83 $-1 #
edge $-1 $233 -18.34246624571206 $152 -13.0822852087668 $142 $308 forward 7 unknown #
coedge $-1 $309 $148 $143 $228 forward $222 $-1 #
edge $-1 $153 13.0822852087668 $232 18.34246624571206 $227 $310 forward 7 unknown #
coedge $-1 $311 $145 $225 $307 reversed $231 $-1 #
coedge $-1 $145 $311 $309 $312 reversed $231 $-1 #
loop $-1 $-1 $145 $221 #
vertex $-1 $312 $313 #
vertex $-1 $146 $314 #
straight-curve $-1 -67.226752525406653 -34.054841972951493 0 0 0 1 I I #
edge $-1 $240 -6.9104296933607525 $237 6.9104296933607525 $224 $315 forward 7 unknown #
coedge $-1 $148 $309 $305 $316 forward $222 $-1 #
vertex $-1 $149 $317 #
straight-curve $-1 -34.363376262703326 -28.794660936006231 -6.9104296933607525 1 0 0 I I #
coedge $-1 $225 $150 $306 $318 forward $83 $-1 #
vertex $-1 $318 $319 #
straight-curve $-1 -34.363376262703326 -28.794660936006231 6.9104296933607525 -1 0 0 I I #
point $-1 -67.226752525406653 -28.794660936006231 6.9104296933607525 #
point $-1 -67.226752525406653 -28.794660936006231 -6.9104296933607525 #
plane-surface $-1 0 0 6.9104296933607525 0 0 1 1 0 0 forward_v I I I I #
coedge $-1 $255 $254 $247 $320 forward $156 $-1 #
coedge $-1 $247 $158 $160 $251 reversed $91 $-1 #
coedge $-1 $158 $246 $245 $320 reversed $91 $-1 #
coedge $-1 $166 $161 $158 $249 forward $167 $-1 #
edge $-1 $252 -18.58720909863024 $321 -14.879362992114338 $248 $322 forward 7 unknown #
coedge $-1 $160 $159 $255 $323 reversed $57 $-1 #
edge $-1 $324 -68.109683945903058 $252 -62.34129932304058 $246 $325 forward 7 unknown #
vertex $-1 $162 $326 #
straight-curve $-1 -22.351914356771907 30.346995866435595 6.9104296933607507 1 0 0 I I #
coedge $-1 $245 $163 $166 $259 reversed $156 $-1 #
coedge $-1 $163 $245 $250 $323 forward $156 $-1 #
vertex $-1 $164 $327 #
straight-curve $-1 -59.803427076752143 34.054841972951493 72.474203764917007 0 0 1 I I #
straight-curve $-1 -59.803427076752143 -9.7252182945148888 54.666636133192824 0 0.64278759981090561 -0.7660444514056185 I I #
edge $-1 $321 29.604230350335481 $168 59.803427076752143 $254 $328 forward 7 unknown #
point $-1 -59.803427076752143 34.054841972951493 6.9104296933607525 #
point $-1 -59.803427076752143 30.346995866435591 6.9104296933607543 #
edge $-1 $329 1 $329 0 $171 $-1 forward 7 unknown #
vertex $-1 $172 $330 #
ellipse-curve $-1 -44.703828713543814 29.954662534307204 2.8161773212420265 0 0.7660444514056185 0.64278759981090561 1 0 0 1 I I #
point $-1 -43.703828713543814 32.200918919693557 4.7010101764021401 #
loop $-1 $-1 $183 $175 #
plane-surface $-1 0 34.054841972951493 0 0 -1 0 0 0 -1 forward_v I I I I #
coedge $-1 $269 $178 $180 $273 reversed $106 $-1 #
coedge $-1 $178 $268 $331 $332 reversed $106 $-1 #
coedge $-1 $186 $181 $178 $271 forward $176 $-1 #
edge $-1 $274 -18.58720909863024 $333 -14.879362992114338 $270 $334 forward 7 unknown #
coedge $-1 $180 $179 $277 $335 reversed $66 $-1 #
edge $-1 $336 -68.109683945903058 $274 -62.34129932304058 $268 $337 forward 7 unknown #
vertex $-1 $182 $338 #
straight-curve $-1 12.761461905931419 30.346995866435595 6.9104296933607507 1 0 0 I I #
coedge $-1 $331 $183 $186 $281 reversed $266 $-1 #
coedge $-1 $183 $331 $272 $335 forward $266 $-1 #
vertex $-1 $184 $339 #
straight-curve $-1 10.423325448654506 34.054841972951493 72.474203764917007 0 0 1 I I #
straight-curve $-1 10.423325448654506 -9.7252182945148888 54.666636133192824 0 0.64278759981090561 -0.7660444514056185 I I #
edge $-1 $333 -40.622522175071168 $187 -10.423325448654506 $276 $340 forward 7 unknown #
point $-1 10.423325448654506 34.054841972951493 6.9104296933607525 #
point $-1 10.423325448654506 30.346995866435591 6.9104296933607543 #
edge $-1 $341 1 $341 0 $190 $-1 forward 7 unknown #
vertex $-1 $191 $342 #
ellipse-curve $-1 25.522923811862839 29.954662534307204 2.8161773212420265 0 0.7660444514056185 0.64278759981090561 1 0 0 1 I I #
point $-1 26.522923811862839 32.200918919693557 4.7010101764021401 #
plane-surface $-1 70.226752525406653 0 0 -1 0 0 0 0 1 forward_v I I I I #
coedge $-1 $199 $197 $201 $293 reversed $121 $-1 #
edge $-1 $212 -6.9104296933607525 $295 6.9104296933607525 $211 $343 forward 7 unknown #
vertex $-1 $293 $344 #
straight-curve $-1 -70.226752525406653 -34.054841972951493 0 0 0 -1 I I #
edge $-1 $291 -34.054841972951493 $295 34.054841972951493 $289 $345 forward 7 unknown #
straight-curve $-1 0 -34.054841972951493 -6.9104296933607525 -1 0 0 I I #
vertex $-1 $204 $346 #
straight-curve $-1 0 34.054841972951493 -6.9104296933607525 1 0 0 I I #
point $-1 70.226752525406653 34.054841972951493 -6.9104296933607525 #
point $-1 70.226752525406653 -34.054841972951493 -6.9104296933607525 #
straight-curve $-1 -70.226752525406653 0 6.9104296933607525 0 -1 0 I I #
point $-1 -70.226752525406653 34.054841972951493 6.9104296933607525 #
point $-1 -70.226752525406653 -34.054841972951493 6.9104296933607525 #
straight-curve $-1 70.226752525406653 -34.054841972951493 0 0 0 -1 I I #
straight-curve $-1 70.226752525406653 34.054841972951493 0 0 0 -1 I I #
plane-surface $-1 0 -34.054841972951493 0 0 1 0 0 0 1 forward_v I I I I #
coedge $-1 $347 $224 $236 $316 reversed $140 $-1 #
coedge $-1 $224 $347 $239 $318 reversed $140 $-1 #
edge $-1 $348 -70.226752525406653 $233 -67.226752525406653 $229 $349 forward 7 unknown #
straight-curve $-1 -67.226752525406653 -15.712375727239431 6.9104296933607525 0 1 0 I I #
coedge $-1 $236 $227 $230 $312 forward $222 $-1 #
straight-curve $-1 -67.226752525406653 -15.712375727239431 -6.9104296933607525 0 -1 0 I I #
coedge $-1 $230 $229 $347 $350 forward $231 $-1 #
edge $-1 $232 67.226752525406653 $351 70.226752525406653 $230 $352 forward 7 unknown #
point $-1 -67.226752525406653 -34.054841972951493 -6.9104296933607525 #
point $-1 -67.226752525406653 -34.054841972951493 6.9104296933607525 #
straight-curve $-1 -70.226752525406653 -28.794660936006231 0 0 0 -1 I I #
edge $-1 $351 -34.054841972951493 $237 -28.794660936006231 $305 $353 forward 7 unknown #
point $-1 -70.226752525406653 -28.794660936006231 -6.9104296933607525 #
edge $-1 $240 28.794660936006231 $348 34.054841972951493 $306 $354 forward 7 unknown #
point $-1 -70.226752525406653 -28.794660936006231 6.9104296933607525 #
edge $-1 $321 65.563774071556253 $324 69.982613105473547 $245 $355 forward 7 unknown #
vertex $-1 $259 $356 #
straight-curve $-1 -29.604230350335481 48.934204965065831 6.9104296933607543 0 1 0 I I #
edge $-1 $324 7.2523159935635739 $256 37.451512719980236 $255 $357 forward 7 unknown #
vertex $-1 $323 $358 #
straight-curve $-1 -29.604230350335481 -9.7252182945148888 54.666636133192824 0 -0.64278759981090561 0.7660444514056185 I I #
point $-1 -29.604230350335481 30.346995866435591 6.9104296933607543 #
point $-1 -59.803427076752143 34.0548419729515 2.4915906594434674 #
straight-curve $-1 0 34.054841972951493 6.9104296933607525 -1 0 0 I I #
vertex $-1 $262 $359 #
point $-1 -43.703828713543814 29.954662534307204 2.8161773212420265 #
coedge $-1 $277 $276 $269 $332 forward $266 $-1 #
edge $-1 $333 65.563774071556253 $336 69.982613105473547 $331 $360 forward 7 unknown #
vertex $-1 $281 $361 #
straight-curve $-1 40.622522175071168 48.934204965065831 6.9104296933607543 0 1 0 I I #
edge $-1 $336 -27.861060269139749 $278 2.3381364572769137 $277 $362 forward 7 unknown #
vertex $-1 $335 $363 #
straight-curve $-1 40.622522175071168 -9.7252182945148888 54.666636133192824 0 -0.64278759981090561 0.7660444514056185 I I #
point $-1 40.622522175071168 30.346995866435591 6.9104296933607543 #
point $-1 10.423325448654506 34.0548419729515 2.4915906594434674 #
straight-curve $-1 0 34.054841972951493 6.9104296933607525 -1 0 0 I I #
vertex $-1 $284 $364 #
point $-1 26.522923811862839 29.954662534307204 2.8161773212420265 #
straight-curve $-1 -70.226752525406653 34.054841972951493 0 0 0 -1 I I #
point $-1 -70.226752525406653 -34.054841972951493 -6.9104296933607525 #
straight-curve $-1 -70.226752525406653 0 -6.9104296933607525 0 1 0 I I #
point $-1 -70.226752525406653 34.054841972951493 -6.9104296933607525 #
coedge $-1 $306 $305 $311 $350 reversed $140 $-1 #
vertex $-1 $318 $365 #
straight-curve $-1 0 -34.054841972951493 6.9104296933607525 1 0 0 I I #
edge $-1 $348 -6.9104296933607525 $351 6.9104296933607525 $347 $366 forward 7 unknown #
vertex $-1 $316 $367 #
straight-curve $-1 0 -34.054841972951493 -6.9104296933607525 -1 0 0 I I #
straight-curve $-1 -70.226752525406653 0 -6.9104296933607525 0 1 0 I I #
straight-curve $-1 -70.226752525406653 0 6.9104296933607525 0 -1 0 I I #
straight-curve $-1 -29.604230350335481 34.054841972951493 72.474203764917007 0 0 -1 I I #
point $-1 -29.604230350335481 34.054841972951493 6.9104296933607525 #
straight-curve $-1 -22.351914356771907 34.054841972951493 2.4915906594434709 -1 0 0 I I #
point $-1 -29.604230350335481 34.0548419729515 2.4915906594434674 #
point $-1 -44.703828713543814 29.188618082901584 2.1733897214311213 #
straight-curve $-1 40.622522175071168 34.054841972951493 72.474203764917007 0 0 -1 I I #
point $-1 40.622522175071168 34.054841972951493 6.9104296933607525 #
straight-curve $-1 12.761461905931419 34.054841972951493 2.4915906594434709 -1 0 0 I I #
point $-1 40.622522175071168 34.0548419729515 2.4915906594434674 #
point $-1 25.522923811862839 29.188618082901584 2.1733897214311213 #
point $-1 -70.226752525406653 -34.054841972951493 6.9104296933607525 #
straight-curve $-1 -70.226752525406653 -34.054841972951493 0 0 0 -1 I I #
point $-1 -70.226752525406653 -34.054841972951493 -6.9104296933607525 #
End-of-ACIS-data 