500 0 8 0           
7 Unknown 11 ACIS 5.0 NT 24 Thu Mar 25 15:18:34 1999 
-1 9.9999999999999995e-007 1e-010 
body $-1 $8 $-1 $9 #
body $-1 $10 $-1 $11 #
body $-1 $12 $-1 $13 #
body $-1 $14 $-1 $15 #
body $-1 $16 $-1 $17 #
body $-1 $18 $-1 $19 #
body $-1 $20 $-1 $21 #
body $-1 $22 $-1 $23 #
lump $-1 $-1 $24 $0 #
transform $-1 1 0 0 0 1 0 0 0 1 58.347727896969516 28.63520652824997 8.7737321995199817 1 rotate no_reflect no_shear #
lump $-1 $-1 $25 $1 #
transform $-1 1 0 0 0 1 0 0 0 1 58.347727896969516 28.63520652824997 8.7737321995199817 1 rotate no_reflect no_shear #
lump $-1 $-1 $26 $2 #
transform $-1 1 0 0 0 1 0 0 0 1 58.347727896969516 28.63520652824997 8.7737321995199817 1 rotate no_reflect no_shear #
lump $-1 $-1 $27 $3 #
transform $-1 1 0 0 0 1 0 0 0 1 58.347727896969516 28.63520652824997 8.7737321995199817 1 rotate no_reflect no_shear #
lump $-1 $-1 $28 $4 #
transform $-1 1 0 0 0 1 0 0 0 1 58.347727896969516 28.63520652824997 8.7737321995199817 1 rotate no_reflect no_shear #
lump $-1 $-1 $29 $5 #
transform $-1 1 0 0 0 1 0 0 0 1 58.347727896969516 28.63520652824997 8.7737321995199817 1 rotate no_reflect no_shear #
lump $-1 $-1 $30 $6 #
transform $-1 1 0 0 0 1 0 0 0 1 58.347727896969516 28.63520652824997 8.7737321995199817 1 rotate no_reflect no_shear #
lump $-1 $-1 $31 $7 #
transform $-1 1 0 0 0 1 0 0 0 1 58.347727896969516 28.63520652824997 8.7737321995199817 1 rotate no_reflect no_shear #
shell $-1 $-1 $-1 $32 $-1 $8 #
shell $-1 $-1 $-1 $33 $-1 $10 #
shell $-1 $-1 $-1 $34 $-1 $12 #
shell $-1 $-1 $-1 $35 $-1 $14 #
shell $-1 $-1 $-1 $36 $-1 $16 #
shell $-1 $-1 $-1 $37 $-1 $18 #
shell $-1 $-1 $-1 $38 $-1 $20 #
shell $-1 $-1 $-1 $39 $-1 $22 #
face $-1 $40 $41 $24 $-1 $42 forward single #
face $-1 $43 $44 $25 $-1 $45 forward single #
face $-1 $46 $47 $26 $-1 $48 reversed single #
face $-1 $49 $50 $27 $-1 $51 forward single #
face $-1 $52 $53 $28 $-1 $54 forward single #
face $-1 $55 $56 $29 $-1 $57 reversed single #
face $-1 $58 $59 $30 $-1 $60 forward single #
face $-1 $61 $62 $31 $-1 $63 forward single #
face $-1 $64 $65 $24 $-1 $66 reversed single #
loop $-1 $-1 $67 $32 #
plane-surface $-1 0 0 8.7737321995199817 0 0 1 1 0 0 forward_v I I I I #
face $-1 $68 $69 $25 $-1 $70 reversed single #
loop $-1 $-1 $71 $33 #
plane-surface $-1 0 -28.63520652824997 0 0 1 0 0 0 1 forward_v I I I I #
face $-1 $72 $73 $26 $-1 $74 reversed single #
loop $-1 $-1 $75 $34 #
plane-surface $-1 38.23535191709054 17.524279882481146 168.72007184813961 0 1 0 0.61566148304635926 0 0.78801074757464917 forward_v I I I I #
face $-1 $76 $77 $27 $-1 $78 forward single #
loop $-1 $79 $80 $35 #
cone-surface $-1 54.76614214820119 20.698830352700814 5.420004673388811 -0.61566148304635926 0 -0.78801074757464917 0.78801074757464917 0 -0.61566148304635926 1 I I 0 1 1 forward I I I I #
face $-1 $81 $82 $28 $-1 $83 forward single #
loop $-1 $84 $85 $36 #
cone-surface $-1 54.76614214820119 25.460656058030306 5.420004673388811 -0.61566148304635926 0 -0.78801074757464917 0.78801074757464917 0 -0.61566148304635926 1 I I 0 1 1 forward I I I I #
face $-1 $86 $87 $29 $-1 $88 reversed single #
loop $-1 $-1 $89 $37 #
plane-surface $-1 -146.41890732035759 18.496004880697047 78.979996426975632 0 1 0 -0.75470958851134928 0 0.65605901945558964 forward_v I I I I #
face $-1 $90 $91 $30 $-1 $92 forward single #
loop $-1 $93 $94 $38 #
cone-surface $-1 -54.168055408527557 21.392919637140739 4.3642697882557258 0.75470958851134928 0 -0.65605901945558964 0.65605901945558964 0 0.75470958851134928 1 I I 0 1 1 forward I I I I #
face $-1 $95 $96 $31 $-1 $97 forward single #
loop $-1 $98 $99 $39 #
cone-surface $-1 -54.168055408527557 25.738291771806278 4.3642697882557258 0.75470958851134928 0 -0.65605901945558964 0.65605901945558964 0 0.75470958851134928 1 I I 0 1 1 forward I I I I #
face $-1 $100 $101 $24 $-1 $102 reversed single #
loop $-1 $-1 $103 $40 #
plane-surface $-1 0 0 -8.7737321995199817 0 0 1 1 0 0 forward_v I I I I #
coedge $-1 $104 $105 $106 $107 forward $41 $-1 #
face $-1 $108 $109 $25 $-1 $110 reversed single #
loop $-1 $-1 $111 $43 #
plane-surface $-1 0 0 -8.7737321995199817 0 0 1 1 0 0 forward_v I I I I #
coedge $-1 $112 $113 $114 $115 forward $44 $-1 #
face $-1 $116 $117 $26 $-1 $118 forward single #
loop $-1 $-1 $119 $46 #
plane-surface $-1 -33.609545461776818 23.079743205365556 76.76279848939329 0.61566148304635926 0 0.78801074757464917 0.78801074757464917 0 -0.61566148304635926 forward_v I I I I #
coedge $-1 $120 $121 $122 $123 reversed $47 $-1 #
face $-1 $-1 $124 $27 $-1 $125 forward single #
loop $-1 $126 $127 $49 #
cone-surface $-1 53.344344976829305 20.698830352700814 3.6001873179673485 -0.61566148304635926 0 -0.78801074757464917 0.39400537378732459 0 -0.30783074152317963 1 I I -0.70710678118654746 0.70710678118654746 0.5 forward I I I I #
loop $-1 $-1 $128 $35 #
coedge $-1 $80 $80 $129 $130 reversed $50 $-1 #
face $-1 $-1 $131 $28 $-1 $132 forward single #
loop $-1 $133 $134 $52 #
cone-surface $-1 53.344344976829305 25.460656058030306 3.6001873179673485 -0.61566148304635926 0 -0.78801074757464917 0.39400537378732459 0 -0.30783074152317963 1 I I -0.70710678118654746 0.70710678118654746 0.5 forward I I I I #
loop $-1 $-1 $135 $36 #
coedge $-1 $85 $85 $136 $137 reversed $53 $-1 #
face $-1 $138 $139 $29 $-1 $140 reversed single #
loop $-1 $-1 $141 $55 #
plane-surface $-1 -58.347727896969516 23.565605704473509 2.4208901238808807 -0.75470958851134928 0 0.65605901945558964 0.65605901945558964 0 0.75470958851134928 forward_v I I I I #
coedge $-1 $142 $143 $144 $145 reversed $56 $-1 #
face $-1 $-1 $146 $30 $-1 $147 forward single #
loop $-1 $148 $149 $58 #
cone-surface $-1 -52.372248737271327 21.392919637140739 2.8031989050832227 0.75470958851134928 0 -0.65605901945558964 0.32802950972779482 0 0.37735479425567464 1 I I -0.70710678118654746 0.70710678118654746 0.5 forward I I I I #
loop $-1 $-1 $150 $38 #
coedge $-1 $94 $94 $151 $152 reversed $59 $-1 #
face $-1 $-1 $153 $31 $-1 $154 forward single #
loop $-1 $155 $156 $61 #
cone-surface $-1 -52.372248737271327 25.738291771806278 2.8031989050832227 0.75470958851134928 0 -0.65605901945558964 0.32802950972779482 0 0.37735479425567464 1 I I -0.70710678118654746 0.70710678118654746 0.5 forward I I I I #
loop $-1 $-1 $157 $39 #
coedge $-1 $99 $99 $158 $159 reversed $62 $-1 #
face $-1 $160 $161 $24 $-1 $162 reversed single #
loop $-1 $-1 $163 $64 #
plane-surface $-1 0 -28.63520652824997 0 0 1 0 0 0 1 forward_v I I I I #
coedge $-1 $164 $165 $166 $167 forward $65 $-1 #
coedge $-1 $168 $67 $169 $170 forward $41 $-1 #
coedge $-1 $67 $168 $171 $172 forward $41 $-1 #
coedge $-1 $173 $174 $67 $107 reversed $175 $-1 #
edge $-1 $176 -28.63520652824997 $177 28.63520652824997 $106 $178 forward 7 unknown #
face $-1 $179 $180 $25 $-1 $181 forward single #
loop $-1 $-1 $182 $68 #
plane-surface $-1 58.347727896969516 0 0 -1 0 0 0 0 1 forward_v I I I I #
coedge $-1 $183 $184 $185 $186 forward $69 $-1 #
coedge $-1 $185 $71 $182 $187 reversed $44 $-1 #
coedge $-1 $71 $185 $188 $189 reversed $44 $-1 #
coedge $-1 $190 $191 $71 $115 reversed $180 $-1 #
edge $-1 $192 -58.347727896969516 $193 58.347727896969516 $114 $194 forward 7 unknown #
face $-1 $195 $196 $26 $-1 $197 reversed single #
loop $-1 $-1 $198 $72 #
plane-surface $-1 0 0 8.7737321995199817 0 0 1 1 0 0 forward_v I I I I #
coedge $-1 $199 $200 $201 $202 reversed $73 $-1 #
coedge $-1 $121 $75 $203 $204 reversed $47 $-1 #
coedge $-1 $75 $120 $199 $205 reversed $47 $-1 #
coedge $-1 $201 $206 $75 $123 forward $207 $-1 #
edge $-1 $208 75.586303724549822 $209 79.442134813543888 $122 $210 forward 7 unknown #
loop $-1 $-1 $129 $76 #
plane-surface $-1 -33.609545461776818 23.079743205365556 76.76279848939329 0.61566148304635926 0 0.78801074757464917 0.78801074757464917 0 -0.61566148304635926 forward_v I I I I #
loop $-1 $-1 $211 $49 #
coedge $-1 $127 $127 $128 $212 reversed $77 $-1 #
coedge $-1 $128 $128 $127 $212 forward $79 $-1 #
coedge $-1 $129 $129 $80 $130 forward $124 $-1 #
edge $-1 $213 0 $213 6.2831853071796004 $129 $214 forward 7 unknown #
loop $-1 $-1 $136 $81 #
plane-surface $-1 -33.609545461776818 23.079743205365556 76.76279848939329 0.61566148304635926 0 0.78801074757464917 0.78801074757464917 0 -0.61566148304635926 forward_v I I I I #
loop $-1 $-1 $215 $52 #
coedge $-1 $134 $134 $135 $216 reversed $82 $-1 #
coedge $-1 $135 $135 $134 $216 forward $84 $-1 #
coedge $-1 $136 $136 $85 $137 forward $131 $-1 #
edge $-1 $217 0 $217 6.2831853071796004 $136 $218 forward 7 unknown #
face $-1 $219 $220 $29 $-1 $221 reversed single #
loop $-1 $-1 $222 $86 #
plane-surface $-1 0 28.63520652824997 0 0 -1 0 0 0 -1 forward_v I I I I #
coedge $-1 $223 $224 $225 $226 reversed $87 $-1 #
coedge $-1 $143 $89 $227 $228 reversed $56 $-1 #
coedge $-1 $89 $142 $223 $229 reversed $56 $-1 #
coedge $-1 $225 $230 $89 $145 forward $231 $-1 #
edge $-1 $232 14.861725763209279 $233 20.384166986092097 $144 $234 forward 7 unknown #
loop $-1 $-1 $151 $90 #
plane-surface $-1 -58.347727896969516 23.565605704473509 2.4208901238808807 -0.75470958851134928 0 0.65605901945558964 0.65605901945558964 0 0.75470958851134928 forward_v I I I I #
loop $-1 $-1 $235 $58 #
coedge $-1 $149 $149 $150 $236 reversed $91 $-1 #
coedge $-1 $150 $150 $149 $236 forward $93 $-1 #
coedge $-1 $151 $151 $94 $152 forward $146 $-1 #
edge $-1 $237 0 $237 6.2831853071796004 $151 $238 forward 7 unknown #
loop $-1 $-1 $158 $95 #
plane-surface $-1 -58.347727896969516 23.565605704473509 2.4208901238808807 -0.75470958851134928 0 0.65605901945558964 0.65605901945558964 0 0.75470958851134928 forward_v I I I I #
loop $-1 $-1 $239 $61 #
coedge $-1 $156 $156 $157 $240 reversed $96 $-1 #
coedge $-1 $157 $157 $156 $240 forward $98 $-1 #
coedge $-1 $158 $158 $99 $159 forward $153 $-1 #
edge $-1 $241 0 $241 6.2831853071796004 $158 $242 forward 7 unknown #
face $-1 $243 $244 $24 $-1 $245 reversed single #
loop $-1 $-1 $246 $100 #
plane-surface $-1 -58.347727896969516 0 0 1 0 0 0 0 -1 forward_v I I I I #
coedge $-1 $171 $247 $173 $248 reversed $101 $-1 #
coedge $-1 $249 $103 $247 $250 forward $65 $-1 #
coedge $-1 $103 $249 $251 $252 forward $65 $-1 #
coedge $-1 $174 $173 $103 $167 reversed $175 $-1 #
edge $-1 $253 -28.63520652824997 $254 28.63520652824997 $166 $255 forward 7 unknown #
coedge $-1 $105 $104 $256 $257 forward $41 $-1 #
coedge $-1 $258 $259 $104 $170 reversed $244 $-1 #
edge $-1 $177 -58.347727896969516 $260 58.347727896969516 $169 $261 forward 7 unknown #
coedge $-1 $262 $163 $105 $172 reversed $101 $-1 #
edge $-1 $263 -58.347727896969516 $176 58.347727896969516 $171 $264 forward 7 unknown #
coedge $-1 $166 $106 $163 $248 forward $175 $-1 #
coedge $-1 $106 $166 $258 $265 reversed $175 $-1 #
loop $-1 $-1 $173 $243 #
vertex $-1 $107 $266 #
vertex $-1 $107 $267 #
straight-curve $-1 58.347727896969516 0 8.7737321995199817 0 1 0 I I #
face $-1 $268 $269 $25 $-1 $270 reversed single #
loop $-1 $-1 $191 $108 #
plane-surface $-1 0 -31.994787928626057 -4.5600808389753436 0 0 1 1 0 0 forward_v I I I I #
coedge $-1 $271 $272 $112 $187 forward $109 $-1 #
coedge $-1 $273 $111 $272 $274 forward $69 $-1 #
coedge $-1 $111 $273 $275 $276 forward $69 $-1 #
coedge $-1 $113 $112 $111 $186 reversed $44 $-1 #
edge $-1 $277 -58.347727896969516 $278 58.347727896969516 $111 $279 forward 7 unknown #
edge $-1 $278 -8.7737321995199817 $193 -4.5600808389753436 $182 $280 forward 7 unknown #
coedge $-1 $275 $281 $113 $189 forward $282 $-1 #
edge $-1 $192 4.5600808389753436 $277 8.7737321995199817 $188 $283 forward 7 unknown #
coedge $-1 $284 $114 $281 $285 forward $180 $-1 #
coedge $-1 $114 $284 $271 $286 forward $180 $-1 #
vertex $-1 $189 $287 #
vertex $-1 $286 $288 #
straight-curve $-1 0 -28.63520652824997 -4.5600808389753436 1 0 0 I I #
face $-1 $-1 $207 $26 $-1 $289 reversed single #
loop $-1 $-1 $290 $116 #
plane-surface $-1 0 28.63520652824997 0 0 -1 0 0 0 -1 forward_v I I I I #
coedge $-1 $203 $291 $292 $293 forward $117 $-1 #
coedge $-1 $292 $119 $121 $205 forward $73 $-1 #
coedge $-1 $119 $292 $290 $294 reversed $73 $-1 #
coedge $-1 $295 $122 $119 $202 forward $207 $-1 #
edge $-1 $209 5.9844082797983678 $296 17.095334925567194 $201 $297 forward 7 unknown #
coedge $-1 $298 $198 $120 $204 forward $117 $-1 #
edge $-1 $299 34.294813300585027 $208 39.230051938424246 $203 $300 forward 7 unknown #
edge $-1 $209 -116.69545579393906 $299 -110.43254801884973 $121 $301 forward 7 unknown #
coedge $-1 $122 $295 $298 $302 reversed $207 $-1 #
loop $-1 $-1 $201 $195 #
vertex $-1 $302 $303 #
vertex $-1 $123 $304 #
straight-curve $-1 58.347727896969516 17.524279882481146 84.360035924069805 0 0 -1 I I #
coedge $-1 $211 $211 $-1 $305 reversed $126 $-1 #
edge $-1 $306 0 $306 6.2831853071796004 $127 $307 forward 7 unknown #
vertex $-1 $130 $308 #
ellipse-curve $-1 55.880108578049899 20.698830352700814 6.8458166550229533 0.61566148304635926 0 0.78801074757464917 0.78801074757464917 0 -0.61566148304635926 1 I I #
coedge $-1 $215 $215 $-1 $309 reversed $133 $-1 #
edge $-1 $310 0 $310 6.2831853071796004 $134 $311 forward 7 unknown #
vertex $-1 $137 $312 #
ellipse-curve $-1 55.880108578049899 25.460656058030306 6.8458166550229533 0.61566148304635926 0 0.78801074757464917 0.78801074757464917 0 -0.61566148304635926 1 I I #
face $-1 $-1 $231 $29 $-1 $313 forward single #
loop $-1 $-1 $314 $138 #
plane-surface $-1 -58.347727896969516 0 0 1 0 0 0 0 -1 forward_v I I I I #
coedge $-1 $315 $316 $224 $317 forward $139 $-1 #
coedge $-1 $318 $141 $143 $229 forward $87 $-1 #
coedge $-1 $141 $318 $222 $317 reversed $87 $-1 #
coedge $-1 $319 $144 $141 $226 forward $231 $-1 #
edge $-1 $233 6.7132020284602927 $320 16.852403676013218 $225 $321 forward 7 unknown #
coedge $-1 $322 $314 $142 $228 forward $220 $-1 #
edge $-1 $323 -37.069108089606935 $232 -30.716266013967832 $227 $324 forward 7 unknown #
edge $-1 $233 -8.4175982024688061 $323 0 $143 $325 forward 7 unknown #
coedge $-1 $144 $319 $322 $326 forward $231 $-1 #
loop $-1 $-1 $225 $219 #
vertex $-1 $228 $327 #
vertex $-1 $145 $328 #
straight-curve $-1 -73.209453660178795 18.496004880697047 8.7737321995199835 1 0 0 I I #
coedge $-1 $235 $235 $-1 $329 reversed $148 $-1 #
edge $-1 $330 0 $330 6.2831853071796004 $149 $331 forward 7 unknown #
vertex $-1 $152 $332 #
ellipse-curve $-1 -55.586507285528107 21.392919637140739 5.5973111617004312 -0.75470958851134928 0 0.65605901945558964 0.65605901945558964 0 0.75470958851134928 1 I I #
coedge $-1 $239 $239 $-1 $333 reversed $155 $-1 #
edge $-1 $334 0 $334 6.2831853071796004 $156 $335 forward 7 unknown #
vertex $-1 $159 $336 #
ellipse-curve $-1 -55.586507285528107 25.738291771806278 5.5973111617004312 -0.75470958851134928 0 0.65605901945558964 0.65605901945558964 0 0.75470958851134928 1 I I #
face $-1 $-1 $175 $24 $-1 $337 reversed single #
loop $-1 $-1 $258 $160 #
plane-surface $-1 0 28.63520652824997 0 0 -1 0 0 0 -1 forward_v I I I I #
coedge $-1 $338 $256 $259 $339 forward $161 $-1 #
coedge $-1 $163 $262 $164 $250 reversed $101 $-1 #
edge $-1 $176 -8.7737321995199817 $254 8.7737321995199817 $173 $340 forward 7 unknown #
coedge $-1 $165 $164 $338 $341 forward $65 $-1 #
edge $-1 $254 -58.347727896969516 $342 58.347727896969516 $247 $343 forward 7 unknown #
coedge $-1 $259 $258 $165 $252 reversed $244 $-1 #
edge $-1 $344 -58.347727896969516 $253 58.347727896969516 $251 $345 forward 7 unknown #
vertex $-1 $167 $346 #
vertex $-1 $248 $347 #
straight-curve $-1 58.347727896969516 0 -8.7737321995199817 0 -1 0 I I #
coedge $-1 $246 $348 $168 $257 reversed $161 $-1 #
edge $-1 $260 -28.63520652824997 $263 28.63520652824997 $256 $349 forward 7 unknown #
coedge $-1 $251 $169 $174 $265 forward $244 $-1 #
coedge $-1 $169 $251 $246 $339 reversed $244 $-1 #
vertex $-1 $170 $350 #
straight-curve $-1 0 28.63520652824997 8.7737321995199817 -1 0 0 I I #
coedge $-1 $247 $171 $348 $351 forward $101 $-1 #
vertex $-1 $257 $352 #
straight-curve $-1 0 -28.63520652824997 8.7737321995199817 1 0 0 I I #
edge $-1 $177 -8.7737321995199817 $253 8.7737321995199817 $174 $353 forward 7 unknown #
point $-1 58.347727896969516 -28.63520652824997 8.7737321995199817 #
point $-1 58.347727896969516 28.63520652824997 8.7737321995199817 #
face $-1 $-1 $282 $25 $-1 $354 reversed single #
loop $-1 $-1 $355 $179 #
plane-surface $-1 0 -35.354369329002147 -6.6669065192476626 0 1 0 0 0 1 forward_v I I I I #
coedge $-1 $356 $182 $191 $286 reversed $109 $-1 #
coedge $-1 $182 $356 $183 $274 reversed $109 $-1 #
coedge $-1 $184 $183 $357 $358 forward $69 $-1 #
edge $-1 $278 28.63520652824997 $359 35.354369329002147 $272 $360 forward 7 unknown #
coedge $-1 $361 $188 $184 $276 reversed $282 $-1 #
edge $-1 $362 -35.354369329002147 $277 -28.63520652824997 $275 $363 forward 7 unknown #
vertex $-1 $189 $364 #
vertex $-1 $274 $365 #
straight-curve $-1 0 -28.63520652824997 -8.7737321995199817 1 0 0 I I #
straight-curve $-1 58.347727896969516 -28.63520652824997 0 0 0 1 I I #
coedge $-1 $188 $361 $190 $285 reversed $282 $-1 #
loop $-1 $-1 $188 $268 #
straight-curve $-1 -58.347727896969516 -28.63520652824997 0 0 0 -1 I I #
coedge $-1 $191 $190 $366 $367 forward $180 $-1 #
edge $-1 $192 -3.3595814003760864 $368 3.35958140037609 $281 $369 forward 7 unknown #
edge $-1 $370 -3.35958140037609 $193 3.3595814003760864 $271 $371 forward 7 unknown #
point $-1 -58.347727896969516 -28.63520652824997 -4.5600808389753436 #
point $-1 58.347727896969516 -28.63520652824997 -4.5600808389753436 #
plane-surface $-1 58.347727896969516 0 0 -1 0 0 0 0 1 forward_v I I I I #
coedge $-1 $372 $373 $200 $294 forward $196 $-1 #
coedge $-1 $198 $298 $372 $374 forward $117 $-1 #
coedge $-1 $200 $199 $198 $293 reversed $73 $-1 #
edge $-1 $375 -17.095334925567187 $299 -5.9844082797983678 $198 $376 forward 7 unknown #
edge $-1 $296 -79.823165091065235 $375 -73.560257315975917 $290 $377 forward 7 unknown #
coedge $-1 $206 $201 $373 $378 reversed $207 $-1 #
vertex $-1 $202 $379 #
straight-curve $-1 58.347727896969516 11.539871602682778 4.9179011105259107 0 1 0 I I #
coedge $-1 $291 $203 $206 $302 forward $117 $-1 #
vertex $-1 $204 $380 #
straight-curve $-1 19.11767595854527 17.524279882481146 8.7737321995199835 1 0 0 I I #
straight-curve $-1 -33.609545461776818 17.524279882481146 76.76279848939329 -0.78801074757464917 0 0.61566148304635926 I I #
edge $-1 $208 17.524279882481146 $381 28.63520652824997 $206 $382 forward 7 unknown #
point $-1 58.347727896969516 17.524279882481146 8.7737321995199817 #
point $-1 58.347727896969516 17.524279882481146 4.9179011105259178 #
edge $-1 $383 1 $383 0 $211 $-1 forward 7 unknown #
vertex $-1 $212 $384 #
ellipse-curve $-1 53.652175718352481 20.698830352700814 3.9941926917546731 0.61566148304635926 0 0.78801074757464917 0.78801074757464917 0 -0.61566148304635926 1 I I #
point $-1 56.668119325624545 20.698830352700814 6.2301551719765902 #
edge $-1 $385 1 $385 0 $215 $-1 forward 7 unknown #
vertex $-1 $216 $386 #
ellipse-curve $-1 53.652175718352481 25.460656058030306 3.9941926917546731 0.61566148304635926 0 0.78801074757464917 0.78801074757464917 0 -0.61566148304635926 1 I I #
point $-1 56.668119325624545 25.460656058030306 6.2301551719765902 #
plane-surface $-1 0 0 8.7737321995199817 0 0 1 1 0 0 forward_v I I I I #
coedge $-1 $227 $387 $318 $388 forward $220 $-1 #
coedge $-1 $316 $222 $387 $389 reversed $139 $-1 #
coedge $-1 $222 $315 $319 $390 reversed $139 $-1 #
edge $-1 $320 9.808643878692223 $391 18.226242081161026 $222 $392 forward 7 unknown #
coedge $-1 $224 $223 $314 $388 reversed $87 $-1 #
coedge $-1 $230 $225 $316 $390 forward $231 $-1 #
vertex $-1 $390 $393 #
straight-curve $-1 -52.825286674086698 11.782802852236754 8.77373219951998 0 1 0 I I #
coedge $-1 $387 $227 $230 $326 reversed $220 $-1 #
vertex $-1 $228 $394 #
straight-curve $-1 -58.347727896969516 18.496004880697047 39.489998213487816 0 0 1 I I #
straight-curve $-1 -58.347727896969516 18.496004880697047 2.4208901238808807 -0.65605901945558964 0 -0.75470958851134928 I I #
edge $-1 $395 -28.63520652824997 $232 -18.496004880697047 $322 $396 forward 7 unknown #
point $-1 -58.347727896969516 18.496004880697047 8.7737321995199817 #
point $-1 -52.825286674086698 18.496004880697047 8.7737321995199835 #
edge $-1 $397 1 $397 0 $235 $-1 forward 7 unknown #
vertex $-1 $236 $398 #
ellipse-curve $-1 -52.749603531527001 21.392919637140739 3.1312284148110177 -0.75470958851134928 0 0.65605901945558964 0.65605901945558964 0 0.75470958851134928 1 I I #
point $-1 -54.930448266072524 21.392919637140739 6.3520207502117838 #
edge $-1 $399 1 $399 0 $239 $-1 forward 7 unknown #
vertex $-1 $240 $400 #
ellipse-curve $-1 -52.749603531527001 25.738291771806278 3.1312284148110177 -0.75470958851134928 0 0.65605901945558964 0.65605901945558964 0 0.75470958851134928 1 I I #
point $-1 -54.930448266072524 25.738291771806278 6.3520207502117838 #
plane-surface $-1 58.347727896969516 0 0 -1 0 0 0 0 1 forward_v I I I I #
coedge $-1 $348 $246 $249 $341 reversed $161 $-1 #
edge $-1 $260 -8.7737321995199817 $344 8.7737321995199817 $259 $401 forward 7 unknown #
straight-curve $-1 58.347727896969516 -28.63520652824997 0 0 0 -1 I I #
edge $-1 $342 -28.63520652824997 $344 28.63520652824997 $338 $402 forward 7 unknown #
vertex $-1 $341 $403 #
straight-curve $-1 0 -28.63520652824997 -8.7737321995199817 -1 0 0 I I #
vertex $-1 $252 $404 #
straight-curve $-1 0 28.63520652824997 -8.7737321995199817 1 0 0 I I #
point $-1 58.347727896969516 28.63520652824997 -8.7737321995199817 #
point $-1 58.347727896969516 -28.63520652824997 -8.7737321995199817 #
coedge $-1 $256 $338 $262 $351 reversed $161 $-1 #
straight-curve $-1 -58.347727896969516 0 8.7737321995199817 0 -1 0 I I #
point $-1 -58.347727896969516 28.63520652824997 8.7737321995199817 #
edge $-1 $263 -8.7737321995199817 $342 8.7737321995199817 $348 $405 forward 7 unknown #
point $-1 -58.347727896969516 -28.63520652824997 8.7737321995199817 #
straight-curve $-1 58.347727896969516 28.63520652824997 0 0 0 -1 I I #
plane-surface $-1 -58.347727896969516 0 0 1 0 0 0 0 -1 forward_v I I I I #
coedge $-1 $357 $366 $361 $406 forward $269 $-1 #
coedge $-1 $272 $271 $407 $408 forward $109 $-1 #
coedge $-1 $407 $355 $273 $358 reversed $269 $-1 #
edge $-1 $359 -58.347727896969516 $362 58.347727896969516 $357 $409 forward 7 unknown #
vertex $-1 $408 $410 #
straight-curve $-1 58.347727896969516 0 -8.7737321995199817 0 -1 0 I I #
coedge $-1 $281 $275 $355 $406 reversed $282 $-1 #
vertex $-1 $276 $411 #
straight-curve $-1 -58.347727896969516 0 -8.7737321995199817 0 1 0 I I #
point $-1 -58.347727896969516 -28.63520652824997 -8.7737321995199817 #
point $-1 58.347727896969516 -28.63520652824997 -8.7737321995199817 #
coedge $-1 $355 $407 $284 $367 reversed $269 $-1 #
edge $-1 $368 -58.347727896969516 $370 58.347727896969516 $366 $412 forward 7 unknown #
vertex $-1 $285 $413 #
straight-curve $-1 -58.347727896969516 -31.994787928626057 -4.5600808389753436 0 -1 0 I I #
vertex $-1 $286 $414 #
straight-curve $-1 58.347727896969516 -31.994787928626057 -4.5600808389753436 0 1 0 I I #
coedge $-1 $373 $290 $291 $374 reversed $196 $-1 #
coedge $-1 $290 $372 $295 $378 forward $196 $-1 #
edge $-1 $381 -58.347727896969516 $375 -53.412489259130297 $372 $415 forward 7 unknown #
vertex $-1 $293 $416 #
straight-curve $-1 53.412489259130311 11.539871602682778 8.7737321995199764 0 -1 0 I I #
straight-curve $-1 -4.5537841002154469 28.63520652824997 54.061949311945519 -0.78801074757464917 0 0.61566148304635926 I I #
edge $-1 $381 -8.7737321995199817 $296 -4.9179011105259161 $295 $417 forward 7 unknown #
point $-1 58.347727896969516 28.63520652824997 4.9179011105259161 #
point $-1 53.412489259130297 17.524279882481146 8.7737321995199835 #
vertex $-1 $302 $418 #
straight-curve $-1 58.347727896969516 0 8.7737321995199817 0 1 0 I I #
vertex $-1 $305 $419 #
point $-1 54.440186465927134 20.698830352700814 3.3785312087083139 #
vertex $-1 $309 $420 #
point $-1 54.440186465927134 25.460656058030306 3.3785312087083139 #
coedge $-1 $314 $322 $315 $389 forward $220 $-1 #
edge $-1 $391 -16.852403676013218 $323 -6.7132020284602927 $314 $421 forward 7 unknown #
edge $-1 $395 -8.7737321995199817 $391 -2.4208901238808807 $315 $422 forward 7 unknown #
edge $-1 $320 52.825286674086698 $395 58.347727896969516 $316 $423 forward 7 unknown #
vertex $-1 $388 $424 #
straight-curve $-1 -46.390237388842806 28.63520652824997 16.176409785062155 -0.65605901945558975 0 -0.75470958851134939 I I #
point $-1 -52.825286674086698 28.63520652824997 8.7737321995199835 #
point $-1 -58.347727896969516 18.496004880697047 2.4208901238808807 #
vertex $-1 $390 $425 #
straight-curve $-1 -58.347727896969516 0 8.7737321995199817 0 -1 0 I I #
vertex $-1 $329 $426 #
point $-1 -52.093544512071411 21.392919637140739 3.8859380033223667 #
vertex $-1 $333 $427 #
point $-1 -52.093544512071411 25.738291771806278 3.8859380033223667 #
straight-curve $-1 -58.347727896969516 28.63520652824997 0 0 0 -1 I I #
straight-curve $-1 -58.347727896969516 0 -8.7737321995199817 0 1 0 I I #
point $-1 -58.347727896969516 -28.63520652824997 -8.7737321995199817 #
point $-1 -58.347727896969516 28.63520652824997 -8.7737321995199817 #
straight-curve $-1 -58.347727896969516 -28.63520652824997 0 0 0 -1 I I #
edge $-1 $368 -2.1068256802723191 $362 2.1068256802723191 $361 $428 forward 7 unknown #
coedge $-1 $366 $357 $356 $408 reversed $269 $-1 #
edge $-1 $370 -2.1068256802723191 $359 2.1068256802723191 $356 $429 forward 7 unknown #
straight-curve $-1 0 -35.354369329002147 -8.7737321995199817 -1 0 0 I I #
point $-1 58.347727896969516 -35.354369329002147 -8.7737321995199817 #
point $-1 -58.347727896969516 -35.354369329002147 -8.7737321995199817 #
straight-curve $-1 0 -35.354369329002147 -4.5600808389753436 1 0 0 I I #
point $-1 -58.347727896969516 -35.354369329002147 -4.5600808389753436 #
point $-1 58.347727896969516 -35.354369329002147 -4.5600808389753436 #
straight-curve $-1 0 28.63520652824997 8.7737321995199817 -1 0 0 I I #
point $-1 53.412489259130297 28.635206528249967 8.7737321995199835 #
straight-curve $-1 58.347727896969516 28.63520652824997 0 0 0 -1 I I #
point $-1 58.347727896969516 28.63520652824997 8.7737321995199817 #
point $-1 53.036514235306129 20.698830352700814 3.2061819441800239 #
point $-1 53.036514235306129 25.460656058030306 3.2061819441800239 #
straight-curve $-1 -58.347727896969516 11.782802852236754 2.4208901238808793 0 -1 0 I I #
straight-curve $-1 -58.347727896969516 28.63520652824997 0 0 0 -1 I I #
straight-curve $-1 0 28.63520652824997 8.7737321995199817 -1 0 0 I I #
point $-1 -58.347727896969516 28.63520652824997 2.4208901238808807 #
point $-1 -58.347727896969516 28.63520652824997 8.7737321995199817 #
point $-1 -51.994893943015654 21.392919637140739 2.4751693953554277 #
point $-1 -51.994893943015654 25.738291771806278 2.4751693953554277 #
straight-curve $-1 -58.347727896969516 -35.354369329002147 -6.6669065192476626 0 0 -1 I I #
straight-curve $-1 58.347727896969516 -35.354369329002147 -6.6669065192476626 0 0 -1 I I #
End-of-ACIS-data 