500 0 16 0           
7 Unknown 11 ACIS 5.0 NT 24 Thu Mar 25 22:04:39 1999 
-1 9.9999999999999995e-007 1e-010 
body $-1 $16 $-1 $17 #
body $-1 $18 $-1 $19 #
body $-1 $20 $-1 $21 #
body $-1 $22 $-1 $23 #
body $-1 $24 $-1 $25 #
body $-1 $26 $-1 $27 #
body $-1 $28 $-1 $29 #
body $-1 $30 $-1 $31 #
body $-1 $32 $-1 $33 #
body $-1 $34 $-1 $35 #
body $-1 $36 $-1 $37 #
body $-1 $38 $-1 $39 #
body $-1 $40 $-1 $41 #
body $-1 $42 $-1 $43 #
body $-1 $44 $-1 $45 #
body $-1 $46 $-1 $47 #
lump $-1 $-1 $48 $0 #
transform $-1 1 0 0 0 1 0 0 0 1 43.697622608111821 19.050547150529468 5.7241757568667548 1 rotate no_reflect no_shear #
lump $-1 $-1 $49 $1 #
transform $-1 1 0 0 0 1 0 0 0 1 43.697622608111821 19.050547150529468 5.7241757568667548 1 rotate no_reflect no_shear #
lump $-1 $-1 $50 $2 #
transform $-1 1 0 0 0 1 0 0 0 1 43.697622608111821 19.050547150529468 5.7241757568667548 1 rotate no_reflect no_shear #
lump $-1 $-1 $51 $3 #
transform $-1 1 0 0 0 1 0 0 0 1 43.697622608111821 19.050547150529468 5.7241757568667548 1 rotate no_reflect no_shear #
lump $-1 $-1 $52 $4 #
transform $-1 1 0 0 0 1 0 0 0 1 43.697622608111821 19.050547150529468 5.7241757568667548 1 rotate no_reflect no_shear #
lump $-1 $-1 $53 $5 #
transform $-1 1 0 0 0 1 0 0 0 1 43.697622608111821 19.050547150529468 5.7241757568667548 1 rotate no_reflect no_shear #
lump $-1 $-1 $54 $6 #
transform $-1 1 0 0 0 1 0 0 0 1 43.697622608111821 19.050547150529468 5.7241757568667548 1 rotate no_reflect no_shear #
lump $-1 $-1 $55 $7 #
transform $-1 1 0 0 0 1 0 0 0 1 43.697622608111821 19.050547150529468 5.7241757568667548 1 rotate no_reflect no_shear #
lump $-1 $-1 $56 $8 #
transform $-1 1 0 0 0 1 0 0 0 1 43.697622608111821 19.050547150529468 5.7241757568667548 1 rotate no_reflect no_shear #
lump $-1 $-1 $57 $9 #
transform $-1 1 0 0 0 1 0 0 0 1 43.697622608111821 19.050547150529468 5.7241757568667548 1 rotate no_reflect no_shear #
lump $-1 $-1 $58 $10 #
transform $-1 1 0 0 0 1 0 0 0 1 43.697622608111821 19.050547150529468 5.7241757568667548 1 rotate no_reflect no_shear #
lump $-1 $-1 $59 $11 #
transform $-1 1 0 0 0 1 0 0 0 1 43.697622608111821 19.050547150529468 5.7241757568667548 1 rotate no_reflect no_shear #
lump $-1 $-1 $60 $12 #
transform $-1 1 0 0 0 1 0 0 0 1 43.697622608111821 19.050547150529468 5.7241757568667548 1 rotate no_reflect no_shear #
lump $-1 $-1 $61 $13 #
transform $-1 1 0 0 0 1 0 0 0 1 43.697622608111821 19.050547150529468 5.7241757568667548 1 rotate no_reflect no_shear #
lump $-1 $-1 $62 $14 #
transform $-1 1 0 0 0 1 0 0 0 1 43.697622608111821 19.050547150529468 5.7241757568667548 1 rotate no_reflect no_shear #
lump $-1 $-1 $63 $15 #
transform $-1 1 0 0 0 1 0 0 0 1 43.697622608111821 19.050547150529468 5.7241757568667548 1 rotate no_reflect no_shear #
shell $-1 $-1 $-1 $64 $-1 $16 #
shell $-1 $-1 $-1 $65 $-1 $18 #
shell $-1 $-1 $-1 $66 $-1 $20 #
shell $-1 $-1 $-1 $67 $-1 $22 #
shell $-1 $-1 $-1 $68 $-1 $24 #
shell $-1 $-1 $-1 $69 $-1 $26 #
shell $-1 $-1 $-1 $70 $-1 $28 #
shell $-1 $-1 $-1 $71 $-1 $30 #
shell $-1 $-1 $-1 $72 $-1 $32 #
shell $-1 $-1 $-1 $73 $-1 $34 #
shell $-1 $-1 $-1 $74 $-1 $36 #
shell $-1 $-1 $-1 $75 $-1 $38 #
shell $-1 $-1 $-1 $76 $-1 $40 #
shell $-1 $-1 $-1 $77 $-1 $42 #
shell $-1 $-1 $-1 $78 $-1 $44 #
shell $-1 $-1 $-1 $79 $-1 $46 #
face $-1 $80 $81 $48 $-1 $82 forward single #
face $-1 $83 $84 $49 $-1 $85 forward single #
face $-1 $86 $87 $50 $-1 $88 reversed single #
face $-1 $89 $90 $51 $-1 $91 forward single #
face $-1 $92 $93 $52 $-1 $94 reversed single #
face $-1 $95 $96 $53 $-1 $97 forward single #
face $-1 $98 $99 $54 $-1 $100 forward single #
face $-1 $101 $102 $55 $-1 $103 forward single #
face $-1 $104 $105 $56 $-1 $106 reversed single #
face $-1 $107 $108 $57 $-1 $109 forward single #
face $-1 $110 $111 $58 $-1 $112 forward single #
face $-1 $113 $114 $59 $-1 $115 forward single #
face $-1 $116 $117 $60 $-1 $118 reversed single #
face $-1 $119 $120 $61 $-1 $121 forward single #
face $-1 $122 $123 $62 $-1 $124 forward single #
face $-1 $125 $126 $63 $-1 $127 forward single #
face $-1 $128 $129 $48 $-1 $130 reversed single #
loop $-1 $-1 $131 $64 #
plane-surface $-1 0 0 5.7241757568667548 0 0 1 1 0 0 forward_v I I I I #
face $-1 $132 $133 $49 $-1 $134 reversed single #
loop $-1 $-1 $135 $65 #
plane-surface $-1 0 -15.328625777779617 -1.2086445761750353 0 0 1 1 0 0 forward_v I I I I #
face $-1 $136 $137 $50 $-1 $138 reversed single #
loop $-1 $-1 $139 $66 #
plane-surface $-1 -96.29339479714659 -4.4677775924438237 72.268964596265505 0 1 0 -0.6018150307709319 0 0.79863550430605224 forward_v I I I I #
face $-1 $140 $141 $51 $-1 $142 forward single #
loop $-1 $143 $144 $67 #
cone-surface $-1 -40.689328905122544 -0.34466323320802772 2.969558826008897 0.6018150307709319 0 -0.79863550430605224 0.79863550430605224 0 0.6018150307709319 1 I I 0 1 1 forward I I I I #
face $-1 $145 $146 $52 $-1 $147 reversed single #
loop $-1 $-1 $148 $68 #
plane-surface $-1 65.159764809039984 -3.4827140569593009 122.96898728695446 0 -1 0 -0.81915205242281985 0 -0.57357642473473569 forward_v I I I I #
face $-1 $149 $150 $53 $-1 $151 forward single #
loop $-1 $152 $153 $69 #
cone-surface $-1 41.331043581298317 -8.3686707206582405 2.9271052017545105 -0.81915205242281985 0 -0.57357642473473569 0.28678821236736785 0 -0.40957602621140993 1 I I 0 1 0.5 forward I I I I #
face $-1 $154 $155 $54 $-1 $156 forward single #
loop $-1 $157 $158 $70 #
cone-surface $-1 41.331043581298317 -6.5364369717711384 2.9271052017545105 -0.81915205242281985 0 -0.57357642473473569 0.28678821236736785 0 -0.40957602621140993 1 I I 0 1 0.5 forward I I I I #
face $-1 $159 $160 $55 $-1 $161 forward single #
loop $-1 $162 $163 $71 #
cone-surface $-1 41.331043581298317 -4.7042032228840363 2.9271052017545105 -0.81915205242281985 0 -0.57357642473473569 0.28678821236736785 0 -0.40957602621140993 1 I I 0 1 0.5 forward I I I I #
face $-1 $164 $165 $56 $-1 $166 reversed single #
loop $-1 $-1 $167 $72 #
plane-surface $-1 65.159764809039984 6.775644287561688 122.96898728695446 0 -1 0 -0.81915205242281985 0 -0.57357642473473569 forward_v I I I I #
face $-1 $168 $169 $57 $-1 $170 forward single #
loop $-1 $171 $172 $73 #
cone-surface $-1 41.331043581298317 1.8896876238627485 2.9271052017545105 -0.81915205242281985 0 -0.57357642473473569 0.28678821236736785 0 -0.40957602621140993 1 I I 0 1 0.5 forward I I I I #
face $-1 $173 $174 $58 $-1 $175 forward single #
loop $-1 $176 $177 $74 #
cone-surface $-1 41.331043581298317 3.7219213727498506 2.9271052017545105 -0.81915205242281985 0 -0.57357642473473569 0.28678821236736785 0 -0.40957602621140993 1 I I 0 1 0.5 forward I I I I #
face $-1 $178 $179 $59 $-1 $180 forward single #
loop $-1 $181 $182 $75 #
cone-surface $-1 41.331043581298317 5.5541551216369527 2.9271052017545105 -0.81915205242281985 0 -0.57357642473473569 0.28678821236736785 0 -0.40957602621140993 1 I I 0 1 0.5 forward I I I I #
face $-1 $183 $184 $60 $-1 $185 reversed single #
loop $-1 $-1 $186 $76 #
plane-surface $-1 65.159764809039984 17.034002632082675 122.96898728695446 0 -1 0 -0.81915205242281985 0 -0.57357642473473569 forward_v I I I I #
face $-1 $187 $188 $61 $-1 $189 forward single #
loop $-1 $190 $191 $77 #
cone-surface $-1 41.331043581298317 12.148045968383737 2.9271052017545105 -0.81915205242281985 0 -0.57357642473473569 0.28678821236736785 0 -0.40957602621140993 1 I I 0 1 0.5 forward I I I I #
face $-1 $192 $193 $62 $-1 $194 forward single #
loop $-1 $195 $196 $78 #
cone-surface $-1 41.331043581298317 13.98027971727084 2.9271052017545105 -0.81915205242281985 0 -0.57357642473473569 0.28678821236736785 0 -0.40957602621140993 1 I I 0 1 0.5 forward I I I I #
face $-1 $197 $198 $63 $-1 $199 forward single #
loop $-1 $200 $201 $79 #
cone-surface $-1 41.331043581298317 15.812513466157938 2.9271052017545105 -0.81915205242281985 0 -0.57357642473473569 0.28678821236736785 0 -0.40957602621140993 1 I I 0 1 0.5 forward I I I I #
face $-1 $202 $203 $48 $-1 $204 reversed single #
loop $-1 $-1 $205 $80 #
plane-surface $-1 0 0 -5.7241757568667548 0 0 1 1 0 0 forward_v I I I I #
coedge $-1 $206 $207 $208 $209 forward $81 $-1 #
face $-1 $210 $211 $49 $-1 $212 reversed single #
loop $-1 $-1 $213 $83 #
plane-surface $-1 0 -15.328625777779617 -4.2086445761750353 0 0 1 1 0 0 forward_v I I I I #
coedge $-1 $214 $215 $216 $217 reversed $84 $-1 #
face $-1 $218 $219 $50 $-1 $220 reversed single #
loop $-1 $-1 $221 $86 #
plane-surface $-1 -43.697622608111821 -0.34466323320802772 2.4720188590556376 -0.6018150307709319 0 0.79863550430605224 0.79863550430605224 0 0.6018150307709319 forward_v I I I I #
coedge $-1 $222 $223 $224 $225 reversed $87 $-1 #
face $-1 $-1 $226 $51 $-1 $227 forward single #
loop $-1 $228 $229 $89 #
cone-surface $-1 -39.538006629085473 -0.34466323320802772 1.4417025919035718 0.6018150307709319 0 -0.79863550430605224 0.39931775215302612 0 0.30090751538546595 1 I I -0.70710678118654746 0.70710678118654746 0.5 forward I I I I #
loop $-1 $-1 $230 $67 #
coedge $-1 $144 $144 $231 $232 reversed $90 $-1 #
face $-1 $233 $234 $52 $-1 $235 reversed single #
loop $-1 $-1 $236 $92 #
plane-surface $-1 -6.4302296818252387 -6.5364369717711384 72.841134997017392 0.81915205242281985 0 0.57357642473473569 0.57357642473473569 0 -0.81915205242281985 forward_v I I I I #
coedge $-1 $237 $238 $239 $240 reversed $93 $-1 #
face $-1 $-1 $241 $53 $-1 $242 forward single #
loop $-1 $243 $244 $95 #
cone-surface $-1 40.325702994727358 -8.3686707206582405 2.2231581658158763 -0.81915205242281985 0 -0.57357642473473569 0.14339410618368392 0 -0.20478801310570496 1 I I -0.70710678118654746 0.70710678118654746 0.25 forward I I I I #
loop $-1 $-1 $245 $69 #
coedge $-1 $153 $153 $246 $247 reversed $96 $-1 #
face $-1 $-1 $248 $54 $-1 $249 forward single #
loop $-1 $250 $251 $98 #
cone-surface $-1 40.325702994727358 -6.5364369717711384 2.2231581658158763 -0.81915205242281985 0 -0.57357642473473569 0.14339410618368392 0 -0.20478801310570496 1 I I -0.70710678118654746 0.70710678118654746 0.25 forward I I I I #
loop $-1 $-1 $252 $70 #
coedge $-1 $158 $158 $253 $254 reversed $99 $-1 #
face $-1 $-1 $255 $55 $-1 $256 forward single #
loop $-1 $257 $258 $101 #
cone-surface $-1 40.325702994727358 -4.7042032228840363 2.2231581658158763 -0.81915205242281985 0 -0.57357642473473569 0.14339410618368392 0 -0.20478801310570496 1 I I -0.70710678118654746 0.70710678118654746 0.25 forward I I I I #
loop $-1 $-1 $259 $71 #
coedge $-1 $163 $163 $260 $261 reversed $102 $-1 #
face $-1 $262 $263 $56 $-1 $264 reversed single #
loop $-1 $-1 $265 $104 #
plane-surface $-1 -6.4302296818252387 3.7219213727498506 72.841134997017392 0.81915205242281985 0 0.57357642473473569 0.57357642473473569 0 -0.81915205242281985 forward_v I I I I #
coedge $-1 $266 $267 $268 $269 reversed $105 $-1 #
face $-1 $-1 $270 $57 $-1 $271 forward single #
loop $-1 $272 $273 $107 #
cone-surface $-1 40.325702994727358 1.8896876238627485 2.2231581658158763 -0.81915205242281985 0 -0.57357642473473569 0.14339410618368392 0 -0.20478801310570496 1 I I -0.70710678118654746 0.70710678118654746 0.25 forward I I I I #
loop $-1 $-1 $274 $73 #
coedge $-1 $172 $172 $275 $276 reversed $108 $-1 #
face $-1 $-1 $277 $58 $-1 $278 forward single #
loop $-1 $279 $280 $110 #
cone-surface $-1 40.325702994727358 3.7219213727498506 2.2231581658158763 -0.81915205242281985 0 -0.57357642473473569 0.14339410618368392 0 -0.20478801310570496 1 I I -0.70710678118654746 0.70710678118654746 0.25 forward I I I I #
loop $-1 $-1 $281 $74 #
coedge $-1 $177 $177 $282 $283 reversed $111 $-1 #
face $-1 $-1 $284 $59 $-1 $285 forward single #
loop $-1 $286 $287 $113 #
cone-surface $-1 40.325702994727358 5.5541551216369527 2.2231581658158763 -0.81915205242281985 0 -0.57357642473473569 0.14339410618368392 0 -0.20478801310570496 1 I I -0.70710678118654746 0.70710678118654746 0.25 forward I I I I #
loop $-1 $-1 $288 $75 #
coedge $-1 $182 $182 $289 $290 reversed $114 $-1 #
face $-1 $291 $292 $60 $-1 $293 reversed single #
loop $-1 $-1 $294 $116 #
plane-surface $-1 -6.4302296818252387 13.98027971727084 72.841134997017392 0.81915205242281985 0 0.57357642473473569 0.57357642473473569 0 -0.81915205242281985 forward_v I I I I #
coedge $-1 $295 $296 $297 $298 reversed $117 $-1 #
face $-1 $-1 $299 $61 $-1 $300 forward single #
loop $-1 $301 $302 $119 #
cone-surface $-1 40.325702994727358 12.148045968383737 2.2231581658158763 -0.81915205242281985 0 -0.57357642473473569 0.14339410618368392 0 -0.20478801310570496 1 I I -0.70710678118654746 0.70710678118654746 0.25 forward I I I I #
loop $-1 $-1 $303 $77 #
coedge $-1 $191 $191 $304 $305 reversed $120 $-1 #
face $-1 $-1 $306 $62 $-1 $307 forward single #
loop $-1 $308 $309 $122 #
cone-surface $-1 40.325702994727358 13.98027971727084 2.2231581658158763 -0.81915205242281985 0 -0.57357642473473569 0.14339410618368392 0 -0.20478801310570496 1 I I -0.70710678118654746 0.70710678118654746 0.25 forward I I I I #
loop $-1 $-1 $310 $78 #
coedge $-1 $196 $196 $311 $312 reversed $123 $-1 #
face $-1 $-1 $313 $63 $-1 $314 forward single #
loop $-1 $315 $316 $125 #
cone-surface $-1 40.325702994727358 15.812513466157938 2.2231581658158763 -0.81915205242281985 0 -0.57357642473473569 0.14339410618368392 0 -0.20478801310570496 1 I I -0.70710678118654746 0.70710678118654746 0.25 forward I I I I #
loop $-1 $-1 $317 $79 #
coedge $-1 $201 $201 $318 $319 reversed $126 $-1 #
face $-1 $320 $321 $48 $-1 $322 reversed single #
loop $-1 $-1 $323 $128 #
plane-surface $-1 0 -19.050547150529468 0 0 1 0 0 0 1 forward_v I I I I #
coedge $-1 $324 $325 $326 $327 forward $129 $-1 #
coedge $-1 $328 $131 $329 $330 forward $81 $-1 #
coedge $-1 $131 $328 $331 $332 forward $81 $-1 #
coedge $-1 $333 $334 $131 $209 reversed $335 $-1 #
edge $-1 $336 -19.050547150529468 $337 19.050547150529468 $208 $338 forward 7 unknown #
face $-1 $339 $340 $49 $-1 $341 reversed single #
loop $-1 $-1 $342 $132 #
plane-surface $-1 0 -11.606704405029767 -2.7086445761750353 0 -1 0 0 0 -1 forward_v I I I I #
coedge $-1 $343 $344 $345 $346 reversed $133 $-1 #
coedge $-1 $347 $135 $348 $349 forward $84 $-1 #
coedge $-1 $135 $347 $350 $351 reversed $84 $-1 #
coedge $-1 $352 $353 $135 $217 forward $354 $-1 #
edge $-1 $355 3.9423915161399581 $356 11.386234261639659 $216 $357 forward 7 unknown #
face $-1 $358 $359 $50 $-1 $360 reversed single #
loop $-1 $-1 $361 $136 #
plane-surface $-1 -96.29339479714659 3.7784511260277682 72.268964596265505 0 -1 0 0.6018150307709319 0 -0.79863550430605224 forward_v I I I I #
coedge $-1 $362 $363 $364 $365 reversed $137 $-1 #
coedge $-1 $223 $139 $366 $367 reversed $87 $-1 #
coedge $-1 $139 $222 $362 $368 reversed $87 $-1 #
coedge $-1 $364 $369 $139 $225 forward $370 $-1 #
edge $-1 $371 4.4490747904614736 $372 8.7648326751368231 $224 $373 forward 7 unknown #
loop $-1 $-1 $231 $140 #
plane-surface $-1 -43.697622608111821 -0.34466323320802772 2.4720188590556376 -0.6018150307709319 0 0.79863550430605224 0.79863550430605224 0 0.6018150307709319 forward_v I I I I #
loop $-1 $-1 $374 $89 #
coedge $-1 $229 $229 $230 $375 reversed $141 $-1 #
coedge $-1 $230 $230 $229 $375 forward $143 $-1 #
coedge $-1 $231 $231 $144 $232 forward $226 $-1 #
edge $-1 $376 0 $376 6.2831853071796004 $231 $377 forward 7 unknown #
face $-1 $378 $379 $52 $-1 $380 forward single #
loop $-1 $-1 $381 $145 #
plane-surface $-1 65.159764809039984 -9.5901598865829758 122.96898728695446 0 1 0 0.81915205242281985 0 0.57357642473473569 forward_v I I I I #
coedge $-1 $382 $383 $384 $385 reversed $146 $-1 #
coedge $-1 $238 $148 $386 $387 reversed $93 $-1 #
coedge $-1 $148 $237 $382 $388 reversed $93 $-1 #
coedge $-1 $384 $389 $148 $240 forward $379 $-1 #
edge $-1 $390 -11.117740203591829 $391 -7.9856872968953141 $239 $392 forward 7 unknown #
loop $-1 $-1 $246 $149 #
plane-surface $-1 -6.4302296818252387 -6.5364369717711384 72.841134997017392 0.81915205242281985 0 0.57357642473473569 0.57357642473473569 0 -0.81915205242281985 forward_v I I I I #
loop $-1 $-1 $393 $95 #
coedge $-1 $244 $244 $245 $394 reversed $150 $-1 #
coedge $-1 $245 $245 $244 $394 forward $152 $-1 #
coedge $-1 $246 $246 $153 $247 forward $241 $-1 #
edge $-1 $395 0 $395 6.2831853071796004 $246 $396 forward 7 unknown #
loop $-1 $-1 $253 $154 #
plane-surface $-1 -6.4302296818252387 -6.5364369717711384 72.841134997017392 0.81915205242281985 0 0.57357642473473569 0.57357642473473569 0 -0.81915205242281985 forward_v I I I I #
loop $-1 $-1 $397 $98 #
coedge $-1 $251 $251 $252 $398 reversed $155 $-1 #
coedge $-1 $252 $252 $251 $398 forward $157 $-1 #
coedge $-1 $253 $253 $158 $254 forward $248 $-1 #
edge $-1 $399 0 $399 6.2831853071796004 $253 $400 forward 7 unknown #
loop $-1 $-1 $260 $159 #
plane-surface $-1 -6.4302296818252387 -6.5364369717711384 72.841134997017392 0.81915205242281985 0 0.57357642473473569 0.57357642473473569 0 -0.81915205242281985 forward_v I I I I #
loop $-1 $-1 $401 $101 #
coedge $-1 $258 $258 $259 $402 reversed $160 $-1 #
coedge $-1 $259 $259 $258 $402 forward $162 $-1 #
coedge $-1 $260 $260 $163 $261 forward $255 $-1 #
edge $-1 $403 0 $403 6.2831853071796004 $260 $404 forward 7 unknown #
face $-1 $405 $406 $56 $-1 $407 reversed single #
loop $-1 $-1 $408 $164 #
plane-surface $-1 65.159764809039984 0.66819845793801314 122.96898728695446 0 1 0 0.81915205242281985 0 0.57357642473473569 forward_v I I I I #
coedge $-1 $409 $410 $411 $412 reversed $165 $-1 #
coedge $-1 $267 $167 $413 $414 reversed $105 $-1 #
coedge $-1 $167 $266 $409 $415 reversed $105 $-1 #
coedge $-1 $411 $416 $167 $269 forward $417 $-1 #
edge $-1 $418 -11.117740203591829 $419 -7.9856872968953141 $268 $420 forward 7 unknown #
loop $-1 $-1 $275 $168 #
plane-surface $-1 -6.4302296818252387 3.7219213727498506 72.841134997017392 0.81915205242281985 0 0.57357642473473569 0.57357642473473569 0 -0.81915205242281985 forward_v I I I I #
loop $-1 $-1 $421 $107 #
coedge $-1 $273 $273 $274 $422 reversed $169 $-1 #
coedge $-1 $274 $274 $273 $422 forward $171 $-1 #
coedge $-1 $275 $275 $172 $276 forward $270 $-1 #
edge $-1 $423 0 $423 6.2831853071796004 $275 $424 forward 7 unknown #
loop $-1 $-1 $282 $173 #
plane-surface $-1 -6.4302296818252387 3.7219213727498506 72.841134997017392 0.81915205242281985 0 0.57357642473473569 0.57357642473473569 0 -0.81915205242281985 forward_v I I I I #
loop $-1 $-1 $425 $110 #
coedge $-1 $280 $280 $281 $426 reversed $174 $-1 #
coedge $-1 $281 $281 $280 $426 forward $176 $-1 #
coedge $-1 $282 $282 $177 $283 forward $277 $-1 #
edge $-1 $427 0 $427 6.2831853071796004 $282 $428 forward 7 unknown #
loop $-1 $-1 $289 $178 #
plane-surface $-1 -6.4302296818252387 3.7219213727498506 72.841134997017392 0.81915205242281985 0 0.57357642473473569 0.57357642473473569 0 -0.81915205242281985 forward_v I I I I #
loop $-1 $-1 $429 $113 #
coedge $-1 $287 $287 $288 $430 reversed $179 $-1 #
coedge $-1 $288 $288 $287 $430 forward $181 $-1 #
coedge $-1 $289 $289 $182 $290 forward $284 $-1 #
edge $-1 $431 0 $431 6.2831853071796004 $289 $432 forward 7 unknown #
face $-1 $433 $434 $60 $-1 $435 reversed single #
loop $-1 $-1 $436 $183 #
plane-surface $-1 65.159764809039984 10.926556802459002 122.96898728695446 0 1 0 0.81915205242281985 0 0.57357642473473569 forward_v I I I I #
coedge $-1 $437 $438 $439 $440 reversed $184 $-1 #
coedge $-1 $296 $186 $441 $442 reversed $117 $-1 #
coedge $-1 $186 $295 $437 $443 reversed $117 $-1 #
coedge $-1 $439 $444 $186 $298 forward $445 $-1 #
edge $-1 $446 -11.117740203591829 $447 -7.9856872968953141 $297 $448 forward 7 unknown #
loop $-1 $-1 $304 $187 #
plane-surface $-1 -6.4302296818252387 13.98027971727084 72.841134997017392 0.81915205242281985 0 0.57357642473473569 0.57357642473473569 0 -0.81915205242281985 forward_v I I I I #
loop $-1 $-1 $449 $119 #
coedge $-1 $302 $302 $303 $450 reversed $188 $-1 #
coedge $-1 $303 $303 $302 $450 forward $190 $-1 #
coedge $-1 $304 $304 $191 $305 forward $299 $-1 #
edge $-1 $451 0 $451 6.2831853071796004 $304 $452 forward 7 unknown #
loop $-1 $-1 $311 $192 #
plane-surface $-1 -6.4302296818252387 13.98027971727084 72.841134997017392 0.81915205242281985 0 0.57357642473473569 0.57357642473473569 0 -0.81915205242281985 forward_v I I I I #
loop $-1 $-1 $453 $122 #
coedge $-1 $309 $309 $310 $454 reversed $193 $-1 #
coedge $-1 $310 $310 $309 $454 forward $195 $-1 #
coedge $-1 $311 $311 $196 $312 forward $306 $-1 #
edge $-1 $455 0 $455 6.2831853071796004 $311 $456 forward 7 unknown #
loop $-1 $-1 $318 $197 #
plane-surface $-1 -6.4302296818252387 13.98027971727084 72.841134997017392 0.81915205242281985 0 0.57357642473473569 0.57357642473473569 0 -0.81915205242281985 forward_v I I I I #
loop $-1 $-1 $457 $125 #
coedge $-1 $316 $316 $317 $458 reversed $198 $-1 #
coedge $-1 $317 $317 $316 $458 forward $200 $-1 #
coedge $-1 $318 $318 $201 $319 forward $313 $-1 #
edge $-1 $459 0 $459 6.2831853071796004 $318 $460 forward 7 unknown #
face $-1 $461 $462 $48 $-1 $463 reversed single #
loop $-1 $-1 $464 $202 #
plane-surface $-1 -43.697622608111821 0 0 1 0 0 0 0 -1 forward_v I I I I #
coedge $-1 $465 $331 $466 $467 forward $203 $-1 #
coedge $-1 $468 $205 $465 $469 forward $129 $-1 #
coedge $-1 $205 $468 $470 $471 forward $129 $-1 #
coedge $-1 $334 $333 $205 $327 reversed $335 $-1 #
edge $-1 $472 -19.050547150529468 $473 19.050547150529468 $326 $474 forward 7 unknown #
coedge $-1 $207 $206 $475 $476 forward $81 $-1 #
coedge $-1 $477 $478 $206 $330 reversed $462 $-1 #
edge $-1 $337 -43.697622608111821 $479 43.697622608111821 $329 $480 forward 7 unknown #
coedge $-1 $323 $481 $207 $332 reversed $203 $-1 #
edge $-1 $482 -43.697622608111821 $336 43.697622608111821 $331 $483 forward 7 unknown #
coedge $-1 $326 $208 $481 $484 forward $335 $-1 #
coedge $-1 $208 $326 $477 $485 reversed $335 $-1 #
loop $-1 $-1 $333 $461 #
vertex $-1 $209 $486 #
vertex $-1 $209 $487 #
straight-curve $-1 43.697622608111821 0 5.7241757568667548 0 1 0 I I #
face $-1 $488 $489 $49 $-1 $490 reversed single #
loop $-1 $-1 $491 $210 #
plane-surface $-1 -43.697622608111821 0 0 1 0 0 0 0 -1 forward_v I I I I #
coedge $-1 $492 $348 $353 $493 reversed $211 $-1 #
coedge $-1 $494 $213 $495 $496 reversed $133 $-1 #
coedge $-1 $213 $494 $492 $497 forward $133 $-1 #
coedge $-1 $353 $352 $213 $346 forward $354 $-1 #
edge $-1 $498 -11.386234261639659 $499 -3.9423915161399581 $345 $500 forward 7 unknown #
coedge $-1 $215 $214 $491 $501 reversed $84 $-1 #
coedge $-1 $342 $502 $214 $349 reversed $211 $-1 #
edge $-1 $355 -43.697622608111821 $503 43.697622608111821 $348 $504 forward 7 unknown #
coedge $-1 $505 $506 $215 $351 forward $489 $-1 #
edge $-1 $356 -43.697622608111821 $507 43.697622608111821 $350 $508 forward 7 unknown #
coedge $-1 $345 $216 $506 $509 forward $354 $-1 #
coedge $-1 $216 $345 $342 $493 forward $354 $-1 #
loop $-1 $-1 $216 $488 #
vertex $-1 $217 $510 #
vertex $-1 $509 $511 #
straight-curve $-1 43.697622608111821 -7.6643128888898087 -1.2086445761750353 0 -1 0 I I #
face $-1 $-1 $370 $50 $-1 $512 forward single #
loop $-1 $-1 $513 $218 #
plane-surface $-1 -43.697622608111821 0 0 1 0 0 0 0 -1 forward_v I I I I #
coedge $-1 $514 $515 $516 $517 reversed $219 $-1 #
coedge $-1 $518 $221 $223 $368 forward $137 $-1 #
coedge $-1 $221 $518 $514 $519 forward $137 $-1 #
coedge $-1 $516 $224 $221 $365 forward $370 $-1 #
edge $-1 $372 -4.2954459758398098 $520 3.9507827426317821 $364 $521 forward 7 unknown #
coedge $-1 $522 $523 $222 $367 forward $359 $-1 #
edge $-1 $524 -33.662463439077115 $371 -30.410306541265996 $366 $525 forward 7 unknown #
edge $-1 $372 -5.403914378218615 $524 0 $223 $526 forward 7 unknown #
coedge $-1 $224 $516 $522 $527 forward $370 $-1 #
loop $-1 $-1 $516 $358 #
vertex $-1 $367 $528 #
vertex $-1 $225 $529 #
straight-curve $-1 -48.146697398573295 -4.4677775924438237 5.7241757568667566 1 0 0 I I #
coedge $-1 $374 $374 $-1 $530 reversed $228 $-1 #
edge $-1 $531 0 $531 6.2831853071796004 $229 $532 forward 7 unknown #
vertex $-1 $232 $533 #
ellipse-curve $-1 -41.539743665774147 -0.34466323320802772 4.0980973079611962 -0.6018150307709319 0 0.79863550430605224 0.79863550430605224 0 0.6018150307709319 1 I I #
face $-1 $-1 $534 $52 $-1 $535 reversed single #
loop $-1 $-1 $239 $233 #
plane-surface $-1 0 0 5.7241757568667548 0 0 1 1 0 0 forward_v I I I I #
coedge $-1 $536 $537 $538 $539 reversed $234 $-1 #
coedge $-1 $540 $236 $238 $388 forward $146 $-1 #
coedge $-1 $236 $540 $536 $541 forward $146 $-1 #
coedge $-1 $538 $239 $236 $385 forward $379 $-1 #
edge $-1 $391 0.21449557107373174 $542 6.3219414006974066 $384 $543 forward 7 unknown #
coedge $-1 $544 $545 $237 $387 forward $534 $-1 #
edge $-1 $546 -60.233353137325047 $390 -55.760317886610473 $386 $547 forward 7 unknown #
edge $-1 $391 81.93467750173815 $546 87.395245216223628 $238 $548 forward 7 unknown #
coedge $-1 $239 $538 $544 $549 forward $379 $-1 #
vertex $-1 $387 $550 #
vertex $-1 $240 $551 #
straight-curve $-1 32.579882404519992 -3.4827140569593009 5.7241757568667566 -1 0 0 I I #
coedge $-1 $393 $393 $-1 $552 reversed $243 $-1 #
edge $-1 $553 0 $553 6.2831853071796004 $244 $554 forward 7 unknown #
vertex $-1 $247 $555 #
ellipse-curve $-1 42.131596154763564 -8.3686707206582405 3.4876581315094564 0.81915205242281985 0 0.57357642473473569 0.28678821236736785 0 -0.40957602621140993 1 I I #
coedge $-1 $397 $397 $-1 $556 reversed $250 $-1 #
edge $-1 $557 0 $557 6.2831853071796004 $251 $558 forward 7 unknown #
vertex $-1 $254 $559 #
ellipse-curve $-1 42.131596154763564 -6.5364369717711384 3.4876581315094564 0.81915205242281985 0 0.57357642473473569 0.28678821236736785 0 -0.40957602621140993 1 I I #
coedge $-1 $401 $401 $-1 $560 reversed $257 $-1 #
edge $-1 $561 0 $561 6.2831853071796004 $258 $562 forward 7 unknown #
vertex $-1 $261 $563 #
ellipse-curve $-1 42.131596154763564 -4.7042032228840363 3.4876581315094564 0.81915205242281985 0 0.57357642473473569 0.28678821236736785 0 -0.40957602621140993 1 I I #
face $-1 $-1 $417 $56 $-1 $564 forward single #
loop $-1 $-1 $565 $262 #
plane-surface $-1 43.697622608111821 0 0 -1 0 0 0 0 1 forward_v I I I I #
coedge $-1 $566 $567 $568 $569 reversed $263 $-1 #
coedge $-1 $570 $265 $267 $415 forward $165 $-1 #
coedge $-1 $265 $570 $566 $571 forward $165 $-1 #
coedge $-1 $568 $268 $265 $412 forward $417 $-1 #
edge $-1 $419 -4.9146836011867627 $572 1.1927622284369122 $411 $573 forward 7 unknown #
coedge $-1 $574 $575 $266 $414 forward $406 $-1 #
edge $-1 $576 -60.233353137325047 $418 -55.760317886610473 $413 $577 forward 7 unknown #
edge $-1 $419 81.93467750173815 $576 87.395245216223628 $267 $578 forward 7 unknown #
coedge $-1 $268 $568 $574 $579 forward $417 $-1 #
loop $-1 $-1 $568 $405 #
vertex $-1 $414 $580 #
vertex $-1 $269 $581 #
straight-curve $-1 32.579882404519992 6.775644287561688 5.7241757568667566 -1 0 0 I I #
coedge $-1 $421 $421 $-1 $582 reversed $272 $-1 #
edge $-1 $583 0 $583 6.2831853071796004 $273 $584 forward 7 unknown #
vertex $-1 $276 $585 #
ellipse-curve $-1 42.131596154763564 1.8896876238627485 3.4876581315094564 0.81915205242281985 0 0.57357642473473569 0.28678821236736785 0 -0.40957602621140993 1 I I #
coedge $-1 $425 $425 $-1 $586 reversed $279 $-1 #
edge $-1 $587 0 $587 6.2831853071796004 $280 $588 forward 7 unknown #
vertex $-1 $283 $589 #
ellipse-curve $-1 42.131596154763564 3.7219213727498506 3.4876581315094564 0.81915205242281985 0 0.57357642473473569 0.28678821236736785 0 -0.40957602621140993 1 I I #
coedge $-1 $429 $429 $-1 $590 reversed $286 $-1 #
edge $-1 $591 0 $591 6.2831853071796004 $287 $592 forward 7 unknown #
vertex $-1 $290 $593 #
ellipse-curve $-1 42.131596154763564 5.5541551216369527 3.4876581315094564 0.81915205242281985 0 0.57357642473473569 0.28678821236736785 0 -0.40957602621140993 1 I I #
face $-1 $-1 $445 $60 $-1 $594 forward single #
loop $-1 $-1 $595 $291 #
plane-surface $-1 43.697622608111821 0 0 -1 0 0 0 0 1 forward_v I I I I #
coedge $-1 $596 $597 $598 $599 reversed $292 $-1 #
coedge $-1 $600 $294 $296 $443 forward $184 $-1 #
coedge $-1 $294 $600 $596 $601 forward $184 $-1 #
coedge $-1 $598 $297 $294 $440 forward $445 $-1 #
edge $-1 $447 -10.043862773447255 $602 -3.9364169438235823 $439 $603 forward 7 unknown #
coedge $-1 $604 $605 $295 $442 forward $434 $-1 #
edge $-1 $606 -60.233353137325047 $446 -55.760317886610473 $441 $607 forward 7 unknown #
edge $-1 $447 81.93467750173815 $606 87.395245216223628 $296 $608 forward 7 unknown #
coedge $-1 $297 $598 $604 $609 forward $445 $-1 #
loop $-1 $-1 $598 $433 #
vertex $-1 $442 $610 #
vertex $-1 $298 $611 #
straight-curve $-1 32.579882404519992 17.034002632082675 5.7241757568667566 -1 0 0 I I #
coedge $-1 $449 $449 $-1 $612 reversed $301 $-1 #
edge $-1 $613 0 $613 6.2831853071796004 $302 $614 forward 7 unknown #
vertex $-1 $305 $615 #
ellipse-curve $-1 42.131596154763564 12.148045968383737 3.4876581315094564 0.81915205242281985 0 0.57357642473473569 0.28678821236736785 0 -0.40957602621140993 1 I I #
coedge $-1 $453 $453 $-1 $616 reversed $308 $-1 #
edge $-1 $617 0 $617 6.2831853071796004 $309 $618 forward 7 unknown #
vertex $-1 $312 $619 #
ellipse-curve $-1 42.131596154763564 13.98027971727084 3.4876581315094564 0.81915205242281985 0 0.57357642473473569 0.28678821236736785 0 -0.40957602621140993 1 I I #
coedge $-1 $457 $457 $-1 $620 reversed $315 $-1 #
edge $-1 $621 0 $621 6.2831853071796004 $316 $622 forward 7 unknown #
vertex $-1 $319 $623 #
ellipse-curve $-1 42.131596154763564 15.812513466157938 3.4876581315094564 0.81915205242281985 0 0.57357642473473569 0.28678821236736785 0 -0.40957602621140993 1 I I #
face $-1 $-1 $335 $48 $-1 $624 reversed single #
loop $-1 $-1 $477 $320 #
plane-surface $-1 0 19.050547150529468 0 0 -1 0 0 0 -1 forward_v I I I I #
coedge $-1 $625 $475 $478 $626 forward $321 $-1 #
coedge $-1 $481 $323 $324 $469 reversed $203 $-1 #
coedge $-1 $475 $625 $323 $467 reversed $321 $-1 #
edge $-1 $482 -5.7241757568667548 $627 5.7241757568667548 $466 $628 forward 7 unknown #
coedge $-1 $325 $324 $625 $629 forward $129 $-1 #
edge $-1 $473 -43.697622608111821 $627 43.697622608111821 $465 $630 forward 7 unknown #
coedge $-1 $478 $477 $325 $471 reversed $462 $-1 #
edge $-1 $631 -43.697622608111821 $472 43.697622608111821 $470 $632 forward 7 unknown #
vertex $-1 $327 $633 #
vertex $-1 $484 $634 #
straight-curve $-1 43.697622608111821 0 -5.7241757568667548 0 -1 0 I I #
coedge $-1 $464 $466 $328 $476 reversed $321 $-1 #
edge $-1 $479 -19.050547150529468 $482 19.050547150529468 $475 $635 forward 7 unknown #
coedge $-1 $470 $329 $334 $485 forward $462 $-1 #
coedge $-1 $329 $470 $464 $626 reversed $462 $-1 #
vertex $-1 $330 $636 #
straight-curve $-1 0 19.050547150529468 5.7241757568667548 -1 0 0 I I #
coedge $-1 $331 $465 $333 $484 reversed $203 $-1 #
vertex $-1 $476 $637 #
straight-curve $-1 0 -19.050547150529468 5.7241757568667548 1 0 0 I I #
edge $-1 $336 -5.7241757568667548 $473 5.7241757568667548 $333 $638 forward 7 unknown #
edge $-1 $337 -5.7241757568667548 $472 5.7241757568667548 $334 $639 forward 7 unknown #
point $-1 43.697622608111821 -19.050547150529468 5.7241757568667548 #
point $-1 43.697622608111821 19.050547150529468 5.7241757568667548 #
face $-1 $-1 $354 $49 $-1 $640 reversed single #
loop $-1 $-1 $350 $339 #
plane-surface $-1 0 -19.050547150529468 0 0 1 0 0 0 1 forward_v I I I I #
coedge $-1 $641 $642 $347 $501 forward $340 $-1 #
coedge $-1 $502 $342 $344 $497 reversed $211 $-1 #
edge $-1 $499 -2.8543222880875176 $355 0.14567771191248235 $353 $643 forward 7 unknown #
coedge $-1 $344 $343 $644 $645 reversed $133 $-1 #
coedge $-1 $506 $505 $343 $496 forward $489 $-1 #
edge $-1 $646 -43.697622608111821 $498 43.697622608111821 $495 $647 forward 7 unknown #
edge $-1 $648 -43.697622608111821 $499 43.697622608111821 $492 $649 forward 7 unknown #
vertex $-1 $496 $650 #
vertex $-1 $346 $651 #
straight-curve $-1 43.697622608111821 -7.6643128888898087 -4.2086445761750353 0 1 0 I I #
edge $-1 $507 -11.386234261639659 $503 -3.9423915161399581 $491 $652 forward 7 unknown #
coedge $-1 $348 $492 $641 $653 reversed $211 $-1 #
vertex $-1 $501 $654 #
straight-curve $-1 0 -11.606704405029767 -1.2086445761750353 -1 0 0 I I #
coedge $-1 $495 $350 $642 $655 forward $489 $-1 #
coedge $-1 $350 $495 $352 $509 reversed $489 $-1 #
vertex $-1 $655 $656 #
straight-curve $-1 0 -19.050547150529468 -1.2086445761750353 -1 0 0 I I #
edge $-1 $356 1.2086445761750353 $498 4.2086445761750353 $352 $657 forward 7 unknown #
point $-1 43.697622608111821 -11.606704405029767 -1.2086445761750353 #
point $-1 43.697622608111821 -19.050547150529468 -1.2086445761750353 #
plane-surface $-1 0 0 5.7241757568667548 0 0 1 1 0 0 forward_v I I I I #
coedge $-1 $523 $522 $515 $658 forward $359 $-1 #
coedge $-1 $515 $361 $363 $519 reversed $219 $-1 #
coedge $-1 $361 $514 $513 $658 reversed $219 $-1 #
coedge $-1 $369 $364 $361 $517 forward $370 $-1 #
edge $-1 $520 -8.7648326751368231 $659 -4.4490747904614736 $516 $660 forward 7 unknown #
coedge $-1 $363 $362 $523 $661 reversed $137 $-1 #
edge $-1 $662 0 $520 5.403914378218615 $514 $663 forward 7 unknown #
vertex $-1 $365 $664 #
straight-curve $-1 -39.381864723436472 -0.17233161660401386 5.7241757568667548 0 1 0 I I #
coedge $-1 $513 $366 $369 $527 reversed $359 $-1 #
coedge $-1 $366 $513 $518 $661 forward $359 $-1 #
vertex $-1 $367 $665 #
straight-curve $-1 -43.697622608111821 -4.4677775924438237 36.134482298132752 0 0 1 I I #
straight-curve $-1 -43.697622608111821 -4.4677775924438237 2.4720188590556376 -0.79863550430605224 0 -0.6018150307709319 I I #
edge $-1 $659 -3.7784511260277682 $371 4.4677775924438237 $522 $666 forward 7 unknown #
point $-1 -43.697622608111821 -4.4677775924438237 5.7241757568667548 #
point $-1 -39.381864723436472 -4.4677775924438237 5.7241757568667548 #
edge $-1 $667 1 $667 0 $374 $-1 forward 7 unknown #
vertex $-1 $375 $668 #
ellipse-curve $-1 -39.838914144470941 -0.34466323320802772 1.8410203440565978 -0.6018150307709319 0 0.79863550430605224 0.79863550430605224 0 0.6018150307709319 1 I I #
point $-1 -40.741108161468091 -0.34466323320802772 4.699912338732128 #
loop $-1 $-1 $386 $378 #
plane-surface $-1 43.697622608111821 0 0 -1 0 0 0 0 1 forward_v I I I I #
coedge $-1 $537 $381 $383 $541 reversed $234 $-1 #
coedge $-1 $381 $536 $669 $670 reversed $234 $-1 #
coedge $-1 $389 $384 $381 $539 forward $379 $-1 #
edge $-1 $542 7.9856872968953141 $671 11.117740203591829 $538 $672 forward 7 unknown #
coedge $-1 $383 $382 $545 $673 reversed $146 $-1 #
edge $-1 $674 -87.395245216223628 $542 -81.93467750173815 $536 $675 forward 7 unknown #
vertex $-1 $385 $676 #
straight-curve $-1 40.565569701415306 -3.2682184858855692 5.7241757568667566 0 -1 0 I I #
coedge $-1 $669 $386 $389 $549 reversed $534 $-1 #
coedge $-1 $386 $669 $540 $673 forward $534 $-1 #
vertex $-1 $387 $677 #
straight-curve $-1 43.697622608111821 -3.4827140569593009 61.484493643477229 0 0 1 I I #
straight-curve $-1 -6.4302296818252387 -3.4827140569593009 72.841134997017392 0.57357642473473569 0 -0.81915205242281985 I I #
edge $-1 $671 -9.5901598865829758 $390 -3.4827140569593009 $544 $678 forward 7 unknown #
point $-1 43.697622608111821 -3.4827140569593009 5.7241757568667548 #
point $-1 40.565569701415306 -3.4827140569593009 5.7241757568667566 #
edge $-1 $679 1 $679 0 $393 $-1 forward 7 unknown #
vertex $-1 $394 $680 #
ellipse-curve $-1 40.530491007833064 -8.3686707206582405 2.3665522719995602 0.81915205242281985 0 0.57357642473473569 0.28678821236736785 0 -0.40957602621140993 1 I I #
point $-1 42.41838436713094 -8.3686707206582405 3.0780821052980505 #
edge $-1 $681 1 $681 0 $397 $-1 forward 7 unknown #
vertex $-1 $398 $682 #
ellipse-curve $-1 40.530491007833064 -6.5364369717711384 2.3665522719995602 0.81915205242281985 0 0.57357642473473569 0.28678821236736785 0 -0.40957602621140993 1 I I #
point $-1 42.41838436713094 -6.5364369717711384 3.0780821052980505 #
edge $-1 $683 1 $683 0 $401 $-1 forward 7 unknown #
vertex $-1 $402 $684 #
ellipse-curve $-1 40.530491007833064 -4.7042032228840363 2.3665522719995602 0.81915205242281985 0 0.57357642473473569 0.28678821236736785 0 -0.40957602621140993 1 I I #
point $-1 42.41838436713094 -4.7042032228840363 3.0780821052980505 #
plane-surface $-1 0 0 5.7241757568667548 0 0 1 1 0 0 forward_v I I I I #
coedge $-1 $575 $574 $567 $685 forward $406 $-1 #
coedge $-1 $567 $408 $410 $571 reversed $263 $-1 #
coedge $-1 $408 $566 $565 $685 reversed $263 $-1 #
coedge $-1 $416 $411 $408 $569 forward $417 $-1 #
edge $-1 $572 7.9856872968953141 $686 11.117740203591829 $568 $687 forward 7 unknown #
coedge $-1 $410 $409 $575 $688 reversed $165 $-1 #
edge $-1 $689 -87.395245216223628 $572 -81.93467750173815 $566 $690 forward 7 unknown #
vertex $-1 $412 $691 #
straight-curve $-1 40.565569701415306 1.8609606863749253 5.7241757568667566 0 -1 0 I I #
coedge $-1 $565 $413 $416 $579 reversed $406 $-1 #
coedge $-1 $413 $565 $570 $688 forward $406 $-1 #
vertex $-1 $414 $692 #
straight-curve $-1 43.697622608111821 6.775644287561688 61.484493643477229 0 0 1 I I #
straight-curve $-1 -6.4302296818252387 6.775644287561688 72.841134997017392 0.57357642473473569 0 -0.81915205242281985 I I #
edge $-1 $686 0.66819845793801314 $418 6.775644287561688 $574 $693 forward 7 unknown #
point $-1 43.697622608111821 6.775644287561688 5.7241757568667548 #
point $-1 40.565569701415306 6.775644287561688 5.7241757568667566 #
edge $-1 $694 1 $694 0 $421 $-1 forward 7 unknown #
vertex $-1 $422 $695 #
ellipse-curve $-1 40.530491007833064 1.8896876238627485 2.3665522719995602 0.81915205242281985 0 0.57357642473473569 0.28678821236736785 0 -0.40957602621140993 1 I I #
point $-1 42.41838436713094 1.8896876238627485 3.0780821052980505 #
edge $-1 $696 1 $696 0 $425 $-1 forward 7 unknown #
vertex $-1 $426 $697 #
ellipse-curve $-1 40.530491007833064 3.7219213727498506 2.3665522719995602 0.81915205242281985 0 0.57357642473473569 0.28678821236736785 0 -0.40957602621140993 1 I I #
point $-1 42.41838436713094 3.7219213727498506 3.0780821052980505 #
edge $-1 $698 1 $698 0 $429 $-1 forward 7 unknown #
vertex $-1 $430 $699 #
ellipse-curve $-1 40.530491007833064 5.5541551216369527 2.3665522719995602 0.81915205242281985 0 0.57357642473473569 0.28678821236736785 0 -0.40957602621140993 1 I I #
point $-1 42.41838436713094 5.5541551216369527 3.0780821052980505 #
plane-surface $-1 0 0 5.7241757568667548 0 0 1 1 0 0 forward_v I I I I #
coedge $-1 $605 $604 $597 $700 forward $434 $-1 #
coedge $-1 $597 $436 $438 $601 reversed $292 $-1 #
coedge $-1 $436 $596 $595 $700 reversed $292 $-1 #
coedge $-1 $444 $439 $436 $599 forward $445 $-1 #
edge $-1 $602 7.9856872968953141 $701 11.117740203591829 $598 $702 forward 7 unknown #
coedge $-1 $438 $437 $605 $703 reversed $184 $-1 #
edge $-1 $704 -87.395245216223628 $602 -81.93467750173815 $596 $705 forward 7 unknown #
vertex $-1 $440 $706 #
straight-curve $-1 40.565569701415306 6.9901398586354198 5.7241757568667566 0 -1 0 I I #
coedge $-1 $595 $441 $444 $609 reversed $434 $-1 #
coedge $-1 $441 $595 $600 $703 forward $434 $-1 #
vertex $-1 $442 $707 #
straight-curve $-1 43.697622608111821 17.034002632082675 61.484493643477229 0 0 1 I I #
straight-curve $-1 -6.4302296818252387 17.034002632082675 72.841134997017392 0.57357642473473569 0 -0.81915205242281985 I I #
edge $-1 $701 10.926556802459002 $446 17.034002632082675 $604 $708 forward 7 unknown #
point $-1 43.697622608111821 17.034002632082675 5.7241757568667548 #
point $-1 40.565569701415306 17.034002632082675 5.7241757568667566 #
edge $-1 $709 1 $709 0 $449 $-1 forward 7 unknown #
vertex $-1 $450 $710 #
ellipse-curve $-1 40.530491007833064 12.148045968383737 2.3665522719995602 0.81915205242281985 0 0.57357642473473569 0.28678821236736785 0 -0.40957602621140993 1 I I #
point $-1 42.41838436713094 12.148045968383737 3.0780821052980505 #
edge $-1 $711 1 $711 0 $453 $-1 forward 7 unknown #
vertex $-1 $454 $712 #
ellipse-curve $-1 40.530491007833064 13.98027971727084 2.3665522719995602 0.81915205242281985 0 0.57357642473473569 0.28678821236736785 0 -0.40957602621140993 1 I I #
point $-1 42.41838436713094 13.98027971727084 3.0780821052980505 #
edge $-1 $713 1 $713 0 $457 $-1 forward 7 unknown #
vertex $-1 $458 $714 #
ellipse-curve $-1 40.530491007833064 15.812513466157938 2.3665522719995602 0.81915205242281985 0 0.57357642473473569 0.28678821236736785 0 -0.40957602621140993 1 I I #
point $-1 42.41838436713094 15.812513466157938 3.0780821052980505 #
plane-surface $-1 43.697622608111821 0 0 -1 0 0 0 0 1 forward_v I I I I #
coedge $-1 $466 $464 $468 $629 reversed $321 $-1 #
edge $-1 $479 -5.7241757568667548 $631 5.7241757568667548 $478 $715 forward 7 unknown #
vertex $-1 $629 $716 #
straight-curve $-1 -43.697622608111821 -19.050547150529468 0 0 0 -1 I I #
edge $-1 $627 -19.050547150529468 $631 19.050547150529468 $625 $717 forward 7 unknown #
straight-curve $-1 0 -19.050547150529468 -5.7241757568667548 -1 0 0 I I #
vertex $-1 $471 $718 #
straight-curve $-1 0 19.050547150529468 -5.7241757568667548 1 0 0 I I #
point $-1 43.697622608111821 19.050547150529468 -5.7241757568667548 #
point $-1 43.697622608111821 -19.050547150529468 -5.7241757568667548 #
straight-curve $-1 -43.697622608111821 0 5.7241757568667548 0 -1 0 I I #
point $-1 -43.697622608111821 19.050547150529468 5.7241757568667548 #
point $-1 -43.697622608111821 -19.050547150529468 5.7241757568667548 #
straight-curve $-1 43.697622608111821 -19.050547150529468 0 0 0 -1 I I #
straight-curve $-1 43.697622608111821 19.050547150529468 0 0 0 -1 I I #
plane-surface $-1 43.697622608111821 0 0 -1 0 0 0 0 1 forward_v I I I I #
coedge $-1 $644 $491 $502 $653 forward $340 $-1 #
coedge $-1 $491 $644 $505 $655 reversed $340 $-1 #
straight-curve $-1 43.697622608111821 -11.606704405029767 -1.3543222880875176 0 0 1 I I #
coedge $-1 $642 $641 $494 $645 forward $340 $-1 #
edge $-1 $648 3.9423915161399581 $646 11.386234261639659 $644 $719 forward 7 unknown #
vertex $-1 $496 $720 #
straight-curve $-1 0 -19.050547150529468 -4.2086445761750353 1 0 0 I I #
vertex $-1 $645 $721 #
straight-curve $-1 0 -11.606704405029767 -4.2086445761750353 1 0 0 I I #
point $-1 43.697622608111821 -19.050547150529468 -4.2086445761750353 #
point $-1 43.697622608111821 -11.606704405029767 -4.2086445761750353 #
straight-curve $-1 -43.697622608111821 -7.6643128888898087 -1.2086445761750353 0 1 0 I I #
edge $-1 $503 -0.14567771191248235 $648 2.8543222880875176 $641 $722 forward 7 unknown #
point $-1 -43.697622608111821 -11.606704405029767 -1.2086445761750353 #
edge $-1 $507 1.2086445761750353 $646 4.2086445761750353 $642 $723 forward 7 unknown #
point $-1 -43.697622608111821 -19.050547150529468 -1.2086445761750353 #
straight-curve $-1 43.697622608111821 -19.050547150529468 0 0 0 -1 I I #
edge $-1 $659 30.410306541265996 $662 33.662463439077115 $513 $724 forward 7 unknown #
vertex $-1 $527 $725 #
straight-curve $-1 -48.146697398573295 3.7784511260277682 5.7241757568667566 -1 0 0 I I #
edge $-1 $662 -3.9507827426317821 $524 4.2954459758398098 $523 $726 forward 7 unknown #
vertex $-1 $661 $727 #
straight-curve $-1 -43.697622608111821 3.7784511260277682 2.4720188590556376 0.79863550430605224 0 0.6018150307709319 I I #
point $-1 -39.381864723436472 3.7784511260277682 5.7241757568667548 #
point $-1 -43.697622608111821 -4.4677775924438237 2.4720188590556376 #
straight-curve $-1 -43.697622608111821 0 5.7241757568667548 0 -1 0 I I #
vertex $-1 $530 $728 #
point $-1 -39.040278640164885 -0.34466323320802772 2.4428353748275295 #
coedge $-1 $545 $544 $537 $670 forward $534 $-1 #
edge $-1 $671 55.760317886610473 $674 60.233353137325047 $669 $729 forward 7 unknown #
vertex $-1 $549 $730 #
straight-curve $-1 32.579882404519992 -9.5901598865829758 5.7241757568667566 1 0 0 I I #
edge $-1 $674 -6.3219414006974066 $546 -0.21449557107373174 $545 $731 forward 7 unknown #
vertex $-1 $673 $732 #
straight-curve $-1 -6.4302296818252387 -9.5901598865829758 72.841134997017392 -0.57357642473473569 0 0.81915205242281985 I I #
point $-1 40.565569701415306 -9.5901598865829758 5.7241757568667566 #
point $-1 43.697622608111821 -3.4827140569593009 1.2511405061521828 #
straight-curve $-1 43.697622608111821 0 5.7241757568667548 0 1 0 I I #
vertex $-1 $552 $733 #
point $-1 40.817279220200433 -8.3686707206582405 1.9569762457881503 #
vertex $-1 $556 $734 #
point $-1 40.817279220200433 -6.5364369717711384 1.9569762457881503 #
vertex $-1 $560 $735 #
point $-1 40.817279220200433 -4.7042032228840363 1.9569762457881503 #
edge $-1 $686 55.760317886610473 $689 60.233353137325047 $565 $736 forward 7 unknown #
vertex $-1 $579 $737 #
straight-curve $-1 32.579882404519992 0.66819845793801314 5.7241757568667566 1 0 0 I I #
edge $-1 $689 -1.1927622284369122 $576 4.9146836011867627 $575 $738 forward 7 unknown #
vertex $-1 $688 $739 #
straight-curve $-1 -6.4302296818252387 0.66819845793801314 72.841134997017392 -0.57357642473473569 0 0.81915205242281985 I I #
point $-1 40.565569701415306 0.66819845793801314 5.7241757568667566 #
point $-1 43.697622608111821 6.775644287561688 1.2511405061521828 #
straight-curve $-1 43.697622608111821 0 5.7241757568667548 0 1 0 I I #
vertex $-1 $582 $740 #
point $-1 40.817279220200433 1.8896876238627485 1.9569762457881503 #
vertex $-1 $586 $741 #
point $-1 40.817279220200433 3.7219213727498506 1.9569762457881503 #
vertex $-1 $590 $742 #
point $-1 40.817279220200433 5.5541551216369527 1.9569762457881503 #
edge $-1 $701 55.760317886610473 $704 60.233353137325047 $595 $743 forward 7 unknown #
vertex $-1 $609 $744 #
straight-curve $-1 32.579882404519992 10.926556802459002 5.7241757568667566 1 0 0 I I #
edge $-1 $704 3.9364169438235823 $606 10.043862773447255 $605 $745 forward 7 unknown #
vertex $-1 $703 $746 #
straight-curve $-1 -6.4302296818252387 10.926556802459002 72.841134997017392 -0.57357642473473569 0 0.81915205242281985 I I #
point $-1 40.565569701415306 10.926556802459002 5.7241757568667566 #
point $-1 43.697622608111821 17.034002632082675 1.2511405061521828 #
straight-curve $-1 43.697622608111821 0 5.7241757568667548 0 1 0 I I #
vertex $-1 $612 $747 #
point $-1 40.817279220200433 12.148045968383737 1.9569762457881503 #
vertex $-1 $616 $748 #
point $-1 40.817279220200433 13.98027971727084 1.9569762457881503 #
vertex $-1 $620 $749 #
point $-1 40.817279220200433 15.812513466157938 1.9569762457881503 #
straight-curve $-1 -43.697622608111821 19.050547150529468 0 0 0 -1 I I #
point $-1 -43.697622608111821 -19.050547150529468 -5.7241757568667548 #
straight-curve $-1 -43.697622608111821 0 -5.7241757568667548 0 1 0 I I #
point $-1 -43.697622608111821 19.050547150529468 -5.7241757568667548 #
straight-curve $-1 -43.697622608111821 -7.6643128888898087 -4.2086445761750353 0 -1 0 I I #
point $-1 -43.697622608111821 -19.050547150529468 -4.2086445761750353 #
point $-1 -43.697622608111821 -11.606704405029767 -4.2086445761750353 #
straight-curve $-1 -43.697622608111821 -11.606704405029767 -1.3543222880875176 0 0 -1 I I #
straight-curve $-1 -43.697622608111821 -19.050547150529468 0 0 0 -1 I I #
straight-curve $-1 -43.697622608111821 3.7784511260277682 36.134482298132752 0 0 -1 I I #
point $-1 -43.697622608111821 3.7784511260277682 5.7241757568667548 #
straight-curve $-1 -43.697622608111821 -0.17233161660401386 2.4720188590556353 0 -1 0 I I #
point $-1 -43.697622608111821 3.7784511260277682 2.4720188590556376 #
point $-1 -39.237099113700005 -0.34466323320802772 1.0423848397505457 #
straight-curve $-1 43.697622608111821 -9.5901598865829758 61.484493643477229 0 0 -1 I I #
point $-1 43.697622608111821 -9.5901598865829758 5.7241757568667548 #
straight-curve $-1 43.697622608111828 -3.2682184858855692 1.2511405061521756 0 1 0 I I #
point $-1 43.697622608111821 -9.5901598865829758 1.2511405061521828 #
point $-1 40.120914981621652 -8.3686707206582405 2.0797640596321925 #
point $-1 40.120914981621652 -6.5364369717711384 2.0797640596321925 #
point $-1 40.120914981621652 -4.7042032228840363 2.0797640596321925 #
straight-curve $-1 43.697622608111821 0.66819845793801314 61.484493643477229 0 0 -1 I I #
point $-1 43.697622608111821 0.66819845793801314 5.7241757568667548 #
straight-curve $-1 43.697622608111828 1.8609606863749253 1.2511405061521756 0 1 0 I I #
point $-1 43.697622608111821 0.66819845793801314 1.2511405061521828 #
point $-1 40.120914981621652 1.8896876238627485 2.0797640596321925 #
point $-1 40.120914981621652 3.7219213727498506 2.0797640596321925 #
point $-1 40.120914981621652 5.5541551216369527 2.0797640596321925 #
straight-curve $-1 43.697622608111821 10.926556802459002 61.484493643477229 0 0 -1 I I #
point $-1 43.697622608111821 10.926556802459002 5.7241757568667548 #
straight-curve $-1 43.697622608111828 6.9901398586354198 1.2511405061521756 0 1 0 I I #
point $-1 43.697622608111821 10.926556802459002 1.2511405061521828 #
point $-1 40.120914981621652 12.148045968383737 2.0797640596321925 #
point $-1 40.120914981621652 13.98027971727084 2.0797640596321925 #
point $-1 40.120914981621652 15.812513466157938 2.0797640596321925 #
End-of-ACIS-data 