500 0 11 0           
7 Unknown 11 ACIS 5.0 NT 24 Fri Mar 26 20:19:56 1999 
-1 9.9999999999999995e-007 1e-010 
body $-1 $11 $-1 $12 #
body $-1 $13 $-1 $14 #
body $-1 $15 $-1 $16 #
body $-1 $17 $-1 $18 #
body $-1 $19 $-1 $20 #
body $-1 $21 $-1 $22 #
body $-1 $23 $-1 $24 #
body $-1 $25 $-1 $26 #
body $-1 $27 $-1 $28 #
body $-1 $29 $-1 $30 #
body $-1 $31 $-1 $32 #
lump $-1 $-1 $33 $0 #
transform $-1 1 0 0 0 1 0 0 0 1 48.186284981841489 27.892369373167746 6.830042547059116 1 rotate no_reflect no_shear #
lump $-1 $-1 $34 $1 #
transform $-1 1 0 0 0 1 0 0 0 1 -3.2317771955381298 27.892369373167746 1.9846456527394625 1 rotate no_reflect no_shear #
lump $-1 $-1 $35 $2 #
transform $-1 1 0 0 0 1 0 0 0 1 99.604347159221106 27.892369373167746 1.9846456527394625 1 rotate no_reflect no_shear #
lump $-1 $-1 $36 $3 #
transform $-1 1 0 0 0 0.68199835119979291 0.73135370988377701 0 -0.73135370988377701 0.68199835119979291 39.611905407112218 -70.482436573973402 74.615294872473143 1 rotate no_reflect no_shear #
lump $-1 $-1 $37 $4 #
transform $-1 1 0 0 0 -0.68199835119979291 -0.73135370988377701 0 0.73135370988377701 -0.68199835119979291 39.611905407112218 5.5257727282802875 8.1961302342248494 1 rotate no_reflect no_shear #
lump $-1 $-1 $38 $5 #
transform $-1 1 0 0 0 0.68199835119979291 0.73135370988377701 0 -0.73135370988377701 0.68199835119979291 56.760664556570759 -70.482436573973402 74.615294872473143 1 rotate no_reflect no_shear #
lump $-1 $-1 $39 $6 #
transform $-1 1 0 0 0 -0.68199835119979291 -0.73135370988377701 0 0.73135370988377701 -0.68199835119979291 56.760664556570759 5.5257727282802875 8.1961302342248494 1 rotate no_reflect no_shear #
lump $-1 $-1 $40 $7 #
transform $-1 1 0 0 0 0.68199835119979291 -0.73135370988377701 0 0.73135370988377701 0.68199835119979291 39.611905407112218 88.222075473196895 115.41367050950289 1 rotate no_reflect no_shear #
lump $-1 $-1 $41 $8 #
transform $-1 1 0 0 0 -0.68199835119979291 0.73135370988377701 0 -0.73135370988377701 -0.68199835119979291 39.611905407112218 50.258966018055212 8.196130234224853 1 rotate no_reflect no_shear #
lump $-1 $-1 $42 $9 #
transform $-1 1 0 0 0 0.68199835119979291 -0.73135370988377701 0 0.73135370988377701 0.68199835119979291 56.760664556570759 88.222075473196895 115.41367050950289 1 rotate no_reflect no_shear #
lump $-1 $-1 $43 $10 #
transform $-1 1 0 0 0 -0.68199835119979291 0.73135370988377701 0 -0.73135370988377701 -0.68199835119979291 56.760664556570759 50.258966018055212 8.196130234224853 1 rotate no_reflect no_shear #
shell $-1 $-1 $-1 $44 $-1 $11 #
shell $-1 $-1 $-1 $45 $-1 $13 #
shell $-1 $-1 $-1 $46 $-1 $15 #
shell $-1 $-1 $-1 $47 $-1 $17 #
shell $-1 $-1 $-1 $48 $-1 $19 #
shell $-1 $-1 $-1 $49 $-1 $21 #
shell $-1 $-1 $-1 $50 $-1 $23 #
shell $-1 $-1 $-1 $51 $-1 $25 #
shell $-1 $-1 $-1 $52 $-1 $27 #
shell $-1 $-1 $-1 $53 $-1 $29 #
shell $-1 $-1 $-1 $54 $-1 $31 #
face $-1 $55 $56 $33 $-1 $57 forward single #
face $-1 $58 $59 $34 $-1 $60 forward single #
face $-1 $61 $62 $35 $-1 $63 forward single #
face $-1 $64 $65 $36 $-1 $66 forward single #
face $-1 $67 $68 $37 $-1 $69 forward single #
face $-1 $70 $71 $38 $-1 $72 forward single #
face $-1 $73 $74 $39 $-1 $75 forward single #
face $-1 $76 $77 $40 $-1 $78 forward single #
face $-1 $79 $80 $41 $-1 $81 forward single #
face $-1 $82 $83 $42 $-1 $84 forward single #
face $-1 $85 $86 $43 $-1 $87 forward single #
face $-1 $88 $89 $33 $-1 $90 reversed single #
loop $-1 $-1 $91 $44 #
plane-surface $-1 0 0 6.830042547059116 0 0 1 1 0 0 forward_v I I I I #
face $-1 $92 $93 $34 $-1 $94 reversed single #
loop $-1 $-1 $95 $45 #
plane-surface $-1 0 0 1.9846456527394625 0 0 1 1 0 0 forward_v I I I I #
face $-1 $96 $97 $35 $-1 $98 reversed single #
loop $-1 $-1 $99 $46 #
plane-surface $-1 0 0 1.9846456527394625 0 0 1 1 0 0 forward_v I I I I #
face $-1 $100 $101 $36 $-1 $102 reversed single #
loop $-1 $-1 $103 $47 #
plane-surface $-1 0 0 96.372569963682963 0 0 1 1 0 0 forward_v I I I I #
face $-1 $104 $105 $37 $-1 $106 forward single #
loop $-1 $107 $108 $48 #
cone-surface $-1 0 0 -2.6320383312479025 0 0 1 1.5 0 0 1 I I 0 1 1.5 forward I I I I #
face $-1 $109 $110 $38 $-1 $111 reversed single #
loop $-1 $-1 $112 $49 #
plane-surface $-1 0 0 96.372569963682963 0 0 1 1 0 0 forward_v I I I I #
face $-1 $113 $114 $39 $-1 $115 forward single #
loop $-1 $116 $117 $50 #
cone-surface $-1 0 0 -2.6320383312479025 0 0 1 1.5 0 0 1 I I 0 1 1.5 forward I I I I #
face $-1 $118 $119 $40 $-1 $120 reversed single #
loop $-1 $-1 $121 $51 #
plane-surface $-1 0 0 96.372569963682963 0 0 1 1 0 0 forward_v I I I I #
face $-1 $122 $123 $41 $-1 $124 forward single #
loop $-1 $125 $126 $52 #
cone-surface $-1 0 0 -2.6320383312479025 0 0 1 1.5 0 0 1 I I 0 1 1.5 forward I I I I #
face $-1 $127 $128 $42 $-1 $129 reversed single #
loop $-1 $-1 $130 $53 #
plane-surface $-1 0 0 96.372569963682963 0 0 1 1 0 0 forward_v I I I I #
face $-1 $131 $132 $43 $-1 $133 forward single #
loop $-1 $134 $135 $54 #
cone-surface $-1 0 0 -2.6320383312479025 0 0 1 1.5 0 0 1 I I 0 1 1.5 forward I I I I #
face $-1 $136 $137 $33 $-1 $138 reversed single #
loop $-1 $-1 $139 $55 #
plane-surface $-1 0 0 -6.830042547059116 0 0 1 1 0 0 forward_v I I I I #
coedge $-1 $140 $141 $142 $143 forward $56 $-1 #
face $-1 $144 $145 $34 $-1 $146 reversed single #
loop $-1 $-1 $147 $58 #
plane-surface $-1 0 0 -1.9846456527394625 0 0 1 1 0 0 forward_v I I I I #
coedge $-1 $148 $149 $150 $151 forward $59 $-1 #
face $-1 $152 $153 $35 $-1 $154 reversed single #
loop $-1 $-1 $155 $61 #
plane-surface $-1 0 0 -1.9846456527394625 0 0 1 1 0 0 forward_v I I I I #
coedge $-1 $156 $157 $158 $159 forward $62 $-1 #
face $-1 $160 $161 $36 $-1 $162 reversed single #
loop $-1 $-1 $163 $64 #
plane-surface $-1 0 0 -96.372569963682963 0 0 1 1 0 0 forward_v I I I I #
coedge $-1 $164 $165 $166 $167 forward $65 $-1 #
face $-1 $-1 $168 $37 $-1 $169 forward single #
loop $-1 $-1 $170 $67 #
plane-surface $-1 0 0 -4.5140766624958051 0 0 -1 -1 0 0 forward_v I I I I #
loop $-1 $-1 $171 $48 #
coedge $-1 $108 $108 $170 $172 reversed $68 $-1 #
face $-1 $173 $174 $38 $-1 $175 reversed single #
loop $-1 $-1 $176 $70 #
plane-surface $-1 0 0 -96.372569963682963 0 0 1 1 0 0 forward_v I I I I #
coedge $-1 $177 $178 $179 $180 forward $71 $-1 #
face $-1 $-1 $181 $39 $-1 $182 forward single #
loop $-1 $-1 $183 $73 #
plane-surface $-1 0 0 -4.5140766624958051 0 0 -1 -1 0 0 forward_v I I I I #
loop $-1 $-1 $184 $50 #
coedge $-1 $117 $117 $183 $185 reversed $74 $-1 #
face $-1 $186 $187 $40 $-1 $188 reversed single #
loop $-1 $-1 $189 $76 #
plane-surface $-1 0 0 -96.372569963682963 0 0 1 1 0 0 forward_v I I I I #
coedge $-1 $190 $191 $192 $193 forward $77 $-1 #
face $-1 $-1 $194 $41 $-1 $195 forward single #
loop $-1 $-1 $196 $79 #
plane-surface $-1 0 0 -4.5140766624958051 0 0 -1 -1 0 0 forward_v I I I I #
loop $-1 $-1 $197 $52 #
coedge $-1 $126 $126 $196 $198 reversed $80 $-1 #
face $-1 $199 $200 $42 $-1 $201 reversed single #
loop $-1 $-1 $202 $82 #
plane-surface $-1 0 0 -96.372569963682963 0 0 1 1 0 0 forward_v I I I I #
coedge $-1 $203 $204 $205 $206 forward $83 $-1 #
face $-1 $-1 $207 $43 $-1 $208 forward single #
loop $-1 $-1 $209 $85 #
plane-surface $-1 0 0 -4.5140766624958051 0 0 -1 -1 0 0 forward_v I I I I #
loop $-1 $-1 $210 $54 #
coedge $-1 $135 $135 $209 $211 reversed $86 $-1 #
face $-1 $212 $213 $33 $-1 $214 reversed single #
loop $-1 $-1 $215 $88 #
plane-surface $-1 0 -27.892369373167746 0 0 1 0 0 0 1 forward_v I I I I #
coedge $-1 $216 $217 $218 $219 forward $89 $-1 #
coedge $-1 $220 $91 $221 $222 forward $56 $-1 #
coedge $-1 $91 $220 $223 $224 forward $56 $-1 #
coedge $-1 $225 $226 $91 $143 reversed $227 $-1 #
edge $-1 $228 -27.892369373167746 $229 27.892369373167746 $142 $230 forward 7 unknown #
face $-1 $231 $232 $34 $-1 $233 reversed single #
loop $-1 $-1 $234 $92 #
plane-surface $-1 0 -27.892369373167746 0 0 1 0 0 0 1 forward_v I I I I #
coedge $-1 $235 $236 $237 $238 forward $93 $-1 #
coedge $-1 $239 $95 $240 $241 forward $59 $-1 #
coedge $-1 $95 $239 $242 $243 forward $59 $-1 #
coedge $-1 $244 $245 $95 $151 reversed $246 $-1 #
edge $-1 $247 -27.892369373167746 $248 27.892369373167746 $150 $249 forward 7 unknown #
face $-1 $250 $251 $35 $-1 $252 reversed single #
loop $-1 $-1 $253 $96 #
plane-surface $-1 0 -27.892369373167746 0 0 1 0 0 0 1 forward_v I I I I #
coedge $-1 $254 $255 $256 $257 forward $97 $-1 #
coedge $-1 $258 $99 $259 $260 forward $62 $-1 #
coedge $-1 $99 $258 $261 $262 forward $62 $-1 #
coedge $-1 $263 $264 $99 $159 reversed $265 $-1 #
edge $-1 $266 -27.892369373167746 $267 27.892369373167746 $158 $268 forward 7 unknown #
face $-1 $269 $270 $36 $-1 $271 reversed single #
loop $-1 $-1 $272 $100 #
plane-surface $-1 0 -192.74513992736595 0 0 1 0 0 0 1 forward_v I I I I #
coedge $-1 $273 $274 $275 $276 forward $101 $-1 #
coedge $-1 $277 $103 $278 $279 forward $65 $-1 #
coedge $-1 $103 $277 $280 $281 forward $65 $-1 #
coedge $-1 $282 $283 $103 $167 reversed $284 $-1 #
edge $-1 $285 -192.74513992736595 $286 192.74513992736595 $166 $287 forward 7 unknown #
loop $-1 $288 $289 $104 #
cone-surface $-1 0 0 0 0 0 1 0.75 0 0 1 I I -0.70710678118654757 0.70710678118654757 0.75 forward I I I I #
coedge $-1 $170 $170 $108 $172 forward $105 $-1 #
coedge $-1 $171 $171 $289 $290 forward $107 $-1 #
edge $-1 $291 0 $291 6.2831853071796004 $170 $292 forward 7 unknown #
face $-1 $293 $294 $38 $-1 $295 reversed single #
loop $-1 $-1 $296 $109 #
plane-surface $-1 0 -192.74513992736595 0 0 1 0 0 0 1 forward_v I I I I #
coedge $-1 $297 $298 $299 $300 forward $110 $-1 #
coedge $-1 $301 $112 $302 $303 forward $71 $-1 #
coedge $-1 $112 $301 $304 $305 forward $71 $-1 #
coedge $-1 $306 $307 $112 $180 reversed $308 $-1 #
edge $-1 $309 -192.74513992736595 $310 192.74513992736595 $179 $311 forward 7 unknown #
loop $-1 $312 $313 $113 #
cone-surface $-1 0 0 0 0 0 1 0.75 0 0 1 I I -0.70710678118654757 0.70710678118654757 0.75 forward I I I I #
coedge $-1 $183 $183 $117 $185 forward $114 $-1 #
coedge $-1 $184 $184 $313 $314 forward $116 $-1 #
edge $-1 $315 0 $315 6.2831853071796004 $183 $316 forward 7 unknown #
face $-1 $317 $318 $40 $-1 $319 reversed single #
loop $-1 $-1 $320 $118 #
plane-surface $-1 0 -192.74513992736595 0 0 1 0 0 0 1 forward_v I I I I #
coedge $-1 $321 $322 $323 $324 forward $119 $-1 #
coedge $-1 $325 $121 $326 $327 forward $77 $-1 #
coedge $-1 $121 $325 $328 $329 forward $77 $-1 #
coedge $-1 $330 $331 $121 $193 reversed $332 $-1 #
edge $-1 $333 -192.74513992736595 $334 192.74513992736595 $192 $335 forward 7 unknown #
loop $-1 $336 $337 $122 #
cone-surface $-1 0 0 0 0 0 1 0.75 0 0 1 I I -0.70710678118654757 0.70710678118654757 0.75 forward I I I I #
coedge $-1 $196 $196 $126 $198 forward $123 $-1 #
coedge $-1 $197 $197 $337 $338 forward $125 $-1 #
edge $-1 $339 0 $339 6.2831853071796004 $196 $340 forward 7 unknown #
face $-1 $341 $342 $42 $-1 $343 reversed single #
loop $-1 $-1 $344 $127 #
plane-surface $-1 0 -192.74513992736595 0 0 1 0 0 0 1 forward_v I I I I #
coedge $-1 $345 $346 $347 $348 forward $128 $-1 #
coedge $-1 $349 $130 $350 $351 forward $83 $-1 #
coedge $-1 $130 $349 $352 $353 forward $83 $-1 #
coedge $-1 $354 $355 $130 $206 reversed $356 $-1 #
edge $-1 $357 -192.74513992736595 $358 192.74513992736595 $205 $359 forward 7 unknown #
loop $-1 $360 $361 $131 #
cone-surface $-1 0 0 0 0 0 1 0.75 0 0 1 I I -0.70710678118654757 0.70710678118654757 0.75 forward I I I I #
coedge $-1 $209 $209 $135 $211 forward $132 $-1 #
coedge $-1 $210 $210 $361 $362 forward $134 $-1 #
edge $-1 $363 0 $363 6.2831853071796004 $209 $364 forward 7 unknown #
face $-1 $365 $366 $33 $-1 $367 reversed single #
loop $-1 $-1 $368 $136 #
plane-surface $-1 -48.186284981841489 0 0 1 0 0 0 0 -1 forward_v I I I I #
coedge $-1 $369 $223 $370 $371 forward $137 $-1 #
coedge $-1 $372 $139 $369 $373 forward $89 $-1 #
coedge $-1 $139 $372 $374 $375 forward $89 $-1 #
coedge $-1 $226 $225 $139 $219 reversed $227 $-1 #
edge $-1 $376 -27.892369373167746 $377 27.892369373167746 $218 $378 forward 7 unknown #
coedge $-1 $141 $140 $379 $380 forward $56 $-1 #
coedge $-1 $381 $382 $140 $222 reversed $366 $-1 #
edge $-1 $229 -48.186284981841489 $383 48.186284981841489 $221 $384 forward 7 unknown #
coedge $-1 $215 $385 $141 $224 reversed $137 $-1 #
edge $-1 $386 -48.186284981841489 $228 48.186284981841489 $223 $387 forward 7 unknown #
coedge $-1 $218 $142 $385 $388 forward $227 $-1 #
coedge $-1 $142 $218 $381 $389 reversed $227 $-1 #
loop $-1 $-1 $225 $365 #
vertex $-1 $143 $390 #
vertex $-1 $143 $391 #
straight-curve $-1 48.186284981841489 0 6.830042547059116 0 1 0 I I #
face $-1 $392 $393 $34 $-1 $394 reversed single #
loop $-1 $-1 $395 $144 #
plane-surface $-1 -3.2317771955381298 0 0 1 0 0 0 0 -1 forward_v I I I I #
coedge $-1 $396 $242 $397 $398 forward $145 $-1 #
coedge $-1 $399 $147 $396 $400 forward $93 $-1 #
coedge $-1 $147 $399 $401 $402 forward $93 $-1 #
coedge $-1 $245 $244 $147 $238 reversed $246 $-1 #
edge $-1 $403 -27.892369373167746 $404 27.892369373167746 $237 $405 forward 7 unknown #
coedge $-1 $149 $148 $406 $407 forward $59 $-1 #
coedge $-1 $408 $409 $148 $241 reversed $393 $-1 #
edge $-1 $248 -3.2317771955381298 $410 3.2317771955381298 $240 $411 forward 7 unknown #
coedge $-1 $234 $412 $149 $243 reversed $145 $-1 #
edge $-1 $413 -3.2317771955381298 $247 3.2317771955381298 $242 $414 forward 7 unknown #
coedge $-1 $237 $150 $412 $415 forward $246 $-1 #
coedge $-1 $150 $237 $408 $416 reversed $246 $-1 #
loop $-1 $-1 $244 $392 #
vertex $-1 $151 $417 #
vertex $-1 $151 $418 #
straight-curve $-1 3.2317771955381298 0 1.9846456527394625 0 1 0 I I #
face $-1 $419 $420 $35 $-1 $421 reversed single #
loop $-1 $-1 $422 $152 #
plane-surface $-1 -3.2317771955381289 0 0 1 0 0 0 0 -1 forward_v I I I I #
coedge $-1 $423 $261 $424 $425 forward $153 $-1 #
coedge $-1 $426 $155 $423 $427 forward $97 $-1 #
coedge $-1 $155 $426 $428 $429 forward $97 $-1 #
coedge $-1 $264 $263 $155 $257 reversed $265 $-1 #
edge $-1 $430 -27.892369373167746 $431 27.892369373167746 $256 $432 forward 7 unknown #
coedge $-1 $157 $156 $433 $434 forward $62 $-1 #
coedge $-1 $435 $436 $156 $260 reversed $420 $-1 #
edge $-1 $267 -3.2317771955381289 $437 3.2317771955381289 $259 $438 forward 7 unknown #
coedge $-1 $253 $439 $157 $262 reversed $153 $-1 #
edge $-1 $440 -3.2317771955381289 $266 3.2317771955381289 $261 $441 forward 7 unknown #
coedge $-1 $256 $158 $439 $442 forward $265 $-1 #
coedge $-1 $158 $256 $435 $443 reversed $265 $-1 #
loop $-1 $-1 $263 $419 #
vertex $-1 $159 $444 #
vertex $-1 $159 $445 #
straight-curve $-1 3.2317771955381289 0 1.9846456527394625 0 1 0 I I #
face $-1 $446 $447 $36 $-1 $448 reversed single #
loop $-1 $-1 $449 $160 #
plane-surface $-1 -8.5743795747292708 0 0 1 0 0 0 0 -1 forward_v I I I I #
coedge $-1 $450 $280 $451 $452 forward $161 $-1 #
coedge $-1 $453 $163 $450 $454 forward $101 $-1 #
coedge $-1 $163 $453 $455 $456 forward $101 $-1 #
coedge $-1 $283 $282 $163 $276 reversed $284 $-1 #
edge $-1 $457 -192.74513992736595 $458 192.74513992736595 $275 $459 forward 7 unknown #
coedge $-1 $165 $164 $460 $461 forward $65 $-1 #
coedge $-1 $462 $463 $164 $279 reversed $447 $-1 #
edge $-1 $286 -8.5743795747292708 $464 8.5743795747292708 $278 $465 forward 7 unknown #
coedge $-1 $272 $466 $165 $281 reversed $161 $-1 #
edge $-1 $467 -8.5743795747292708 $285 8.5743795747292708 $280 $468 forward 7 unknown #
coedge $-1 $275 $166 $466 $469 forward $284 $-1 #
coedge $-1 $166 $275 $462 $470 reversed $284 $-1 #
loop $-1 $-1 $282 $446 #
vertex $-1 $167 $471 #
vertex $-1 $167 $472 #
straight-curve $-1 8.5743795747292708 0 96.372569963682963 0 1 0 I I #
loop $-1 $-1 $473 $104 #
coedge $-1 $289 $289 $171 $290 reversed $168 $-1 #
edge $-1 $474 0 $474 6.2831853071796004 $289 $475 forward 7 unknown #
vertex $-1 $172 $476 #
ellipse-curve $-1 0 0 -4.5140766624958051 0 0 -1 1.5 0 0 1 I I #
face $-1 $477 $478 $38 $-1 $479 reversed single #
loop $-1 $-1 $480 $173 #
plane-surface $-1 -8.5743795747292708 0 0 1 0 0 0 0 -1 forward_v I I I I #
coedge $-1 $481 $304 $482 $483 forward $174 $-1 #
coedge $-1 $484 $176 $481 $485 forward $110 $-1 #
coedge $-1 $176 $484 $486 $487 forward $110 $-1 #
coedge $-1 $307 $306 $176 $300 reversed $308 $-1 #
edge $-1 $488 -192.74513992736595 $489 192.74513992736595 $299 $490 forward 7 unknown #
coedge $-1 $178 $177 $491 $492 forward $71 $-1 #
coedge $-1 $493 $494 $177 $303 reversed $478 $-1 #
edge $-1 $310 -8.5743795747292708 $495 8.5743795747292708 $302 $496 forward 7 unknown #
coedge $-1 $296 $497 $178 $305 reversed $174 $-1 #
edge $-1 $498 -8.5743795747292708 $309 8.5743795747292708 $304 $499 forward 7 unknown #
coedge $-1 $299 $179 $497 $500 forward $308 $-1 #
coedge $-1 $179 $299 $493 $501 reversed $308 $-1 #
loop $-1 $-1 $306 $477 #
vertex $-1 $180 $502 #
vertex $-1 $180 $503 #
straight-curve $-1 8.5743795747292708 0 96.372569963682963 0 1 0 I I #
loop $-1 $-1 $504 $113 #
coedge $-1 $313 $313 $184 $314 reversed $181 $-1 #
edge $-1 $505 0 $505 6.2831853071796004 $313 $506 forward 7 unknown #
vertex $-1 $185 $507 #
ellipse-curve $-1 0 0 -4.5140766624958051 0 0 -1 1.5 0 0 1 I I #
face $-1 $508 $509 $40 $-1 $510 reversed single #
loop $-1 $-1 $511 $186 #
plane-surface $-1 -8.5743795747292708 0 0 1 0 0 0 0 -1 forward_v I I I I #
coedge $-1 $512 $328 $513 $514 forward $187 $-1 #
coedge $-1 $515 $189 $512 $516 forward $119 $-1 #
coedge $-1 $189 $515 $517 $518 forward $119 $-1 #
coedge $-1 $331 $330 $189 $324 reversed $332 $-1 #
edge $-1 $519 -192.74513992736595 $520 192.74513992736595 $323 $521 forward 7 unknown #
coedge $-1 $191 $190 $522 $523 forward $77 $-1 #
coedge $-1 $524 $525 $190 $327 reversed $509 $-1 #
edge $-1 $334 -8.5743795747292708 $526 8.5743795747292708 $326 $527 forward 7 unknown #
coedge $-1 $320 $528 $191 $329 reversed $187 $-1 #
edge $-1 $529 -8.5743795747292708 $333 8.5743795747292708 $328 $530 forward 7 unknown #
coedge $-1 $323 $192 $528 $531 forward $332 $-1 #
coedge $-1 $192 $323 $524 $532 reversed $332 $-1 #
loop $-1 $-1 $330 $508 #
vertex $-1 $193 $533 #
vertex $-1 $193 $534 #
straight-curve $-1 8.5743795747292708 0 96.372569963682963 0 1 0 I I #
loop $-1 $-1 $535 $122 #
coedge $-1 $337 $337 $197 $338 reversed $194 $-1 #
edge $-1 $536 0 $536 6.2831853071796004 $337 $537 forward 7 unknown #
vertex $-1 $198 $538 #
ellipse-curve $-1 0 0 -4.5140766624958051 0 0 -1 1.5 0 0 1 I I #
face $-1 $539 $540 $42 $-1 $541 reversed single #
loop $-1 $-1 $542 $199 #
plane-surface $-1 -8.5743795747292708 0 0 1 0 0 0 0 -1 forward_v I I I I #
coedge $-1 $543 $352 $544 $545 forward $200 $-1 #
coedge $-1 $546 $202 $543 $547 forward $128 $-1 #
coedge $-1 $202 $546 $548 $549 forward $128 $-1 #
coedge $-1 $355 $354 $202 $348 reversed $356 $-1 #
edge $-1 $550 -192.74513992736595 $551 192.74513992736595 $347 $552 forward 7 unknown #
coedge $-1 $204 $203 $553 $554 forward $83 $-1 #
coedge $-1 $555 $556 $203 $351 reversed $540 $-1 #
edge $-1 $358 -8.5743795747292708 $557 8.5743795747292708 $350 $558 forward 7 unknown #
coedge $-1 $344 $559 $204 $353 reversed $200 $-1 #
edge $-1 $560 -8.5743795747292708 $357 8.5743795747292708 $352 $561 forward 7 unknown #
coedge $-1 $347 $205 $559 $562 forward $356 $-1 #
coedge $-1 $205 $347 $555 $563 reversed $356 $-1 #
loop $-1 $-1 $354 $539 #
vertex $-1 $206 $564 #
vertex $-1 $206 $565 #
straight-curve $-1 8.5743795747292708 0 96.372569963682963 0 1 0 I I #
loop $-1 $-1 $566 $131 #
coedge $-1 $361 $361 $210 $362 reversed $207 $-1 #
edge $-1 $567 0 $567 6.2831853071796004 $361 $568 forward 7 unknown #
vertex $-1 $211 $569 #
ellipse-curve $-1 0 0 -4.5140766624958051 0 0 -1 1.5 0 0 1 I I #
face $-1 $-1 $227 $33 $-1 $570 reversed single #
loop $-1 $-1 $381 $212 #
plane-surface $-1 0 27.892369373167746 0 0 -1 0 0 0 -1 forward_v I I I I #
coedge $-1 $571 $379 $382 $572 forward $213 $-1 #
coedge $-1 $385 $215 $216 $373 reversed $137 $-1 #
coedge $-1 $379 $571 $215 $371 reversed $213 $-1 #
edge $-1 $386 -6.830042547059116 $573 6.830042547059116 $370 $574 forward 7 unknown #
coedge $-1 $217 $216 $571 $575 forward $89 $-1 #
edge $-1 $377 -48.186284981841489 $573 48.186284981841489 $369 $576 forward 7 unknown #
coedge $-1 $382 $381 $217 $375 reversed $366 $-1 #
edge $-1 $577 -48.186284981841489 $376 48.186284981841489 $374 $578 forward 7 unknown #
vertex $-1 $219 $579 #
vertex $-1 $388 $580 #
straight-curve $-1 48.186284981841489 0 -6.830042547059116 0 -1 0 I I #
coedge $-1 $368 $370 $220 $380 reversed $213 $-1 #
edge $-1 $383 -27.892369373167746 $386 27.892369373167746 $379 $581 forward 7 unknown #
coedge $-1 $374 $221 $226 $389 forward $366 $-1 #
coedge $-1 $221 $374 $368 $572 reversed $366 $-1 #
vertex $-1 $222 $582 #
straight-curve $-1 0 27.892369373167746 6.830042547059116 -1 0 0 I I #
coedge $-1 $223 $369 $225 $388 reversed $137 $-1 #
vertex $-1 $380 $583 #
straight-curve $-1 0 -27.892369373167746 6.830042547059116 1 0 0 I I #
edge $-1 $228 -6.830042547059116 $377 6.830042547059116 $225 $584 forward 7 unknown #
edge $-1 $229 -6.830042547059116 $376 6.830042547059116 $226 $585 forward 7 unknown #
point $-1 48.186284981841489 -27.892369373167746 6.830042547059116 #
point $-1 48.186284981841489 27.892369373167746 6.830042547059116 #
face $-1 $-1 $246 $34 $-1 $586 reversed single #
loop $-1 $-1 $408 $231 #
plane-surface $-1 0 27.892369373167746 0 0 -1 0 0 0 -1 forward_v I I I I #
coedge $-1 $587 $406 $409 $588 forward $232 $-1 #
coedge $-1 $412 $234 $235 $400 reversed $145 $-1 #
coedge $-1 $406 $587 $234 $398 reversed $232 $-1 #
edge $-1 $413 -1.9846456527394625 $589 1.9846456527394625 $397 $590 forward 7 unknown #
coedge $-1 $236 $235 $587 $591 forward $93 $-1 #
edge $-1 $404 -3.2317771955381298 $589 3.2317771955381298 $396 $592 forward 7 unknown #
coedge $-1 $409 $408 $236 $402 reversed $393 $-1 #
edge $-1 $593 -3.2317771955381298 $403 3.2317771955381298 $401 $594 forward 7 unknown #
vertex $-1 $238 $595 #
vertex $-1 $415 $596 #
straight-curve $-1 3.2317771955381298 0 -1.9846456527394625 0 -1 0 I I #
coedge $-1 $395 $397 $239 $407 reversed $232 $-1 #
edge $-1 $410 -27.892369373167746 $413 27.892369373167746 $406 $597 forward 7 unknown #
coedge $-1 $401 $240 $245 $416 forward $393 $-1 #
coedge $-1 $240 $401 $395 $588 reversed $393 $-1 #
vertex $-1 $241 $598 #
straight-curve $-1 0 27.892369373167746 1.9846456527394625 -1 0 0 I I #
coedge $-1 $242 $396 $244 $415 reversed $145 $-1 #
vertex $-1 $407 $599 #
straight-curve $-1 0 -27.892369373167746 1.9846456527394625 1 0 0 I I #
edge $-1 $247 -1.9846456527394625 $404 1.9846456527394625 $244 $600 forward 7 unknown #
edge $-1 $248 -1.9846456527394625 $403 1.9846456527394625 $245 $601 forward 7 unknown #
point $-1 3.2317771955381298 -27.892369373167746 1.9846456527394625 #
point $-1 3.2317771955381298 27.892369373167746 1.9846456527394625 #
face $-1 $-1 $265 $35 $-1 $602 reversed single #
loop $-1 $-1 $435 $250 #
plane-surface $-1 0 27.892369373167746 0 0 -1 0 0 0 -1 forward_v I I I I #
coedge $-1 $603 $433 $436 $604 forward $251 $-1 #
coedge $-1 $439 $253 $254 $427 reversed $153 $-1 #
coedge $-1 $433 $603 $253 $425 reversed $251 $-1 #
edge $-1 $440 -1.9846456527394625 $605 1.9846456527394625 $424 $606 forward 7 unknown #
coedge $-1 $255 $254 $603 $607 forward $97 $-1 #
edge $-1 $431 -3.2317771955381289 $605 3.2317771955381289 $423 $608 forward 7 unknown #
coedge $-1 $436 $435 $255 $429 reversed $420 $-1 #
edge $-1 $609 -3.2317771955381289 $430 3.2317771955381289 $428 $610 forward 7 unknown #
vertex $-1 $257 $611 #
vertex $-1 $442 $612 #
straight-curve $-1 3.2317771955381289 0 -1.9846456527394625 0 -1 0 I I #
coedge $-1 $422 $424 $258 $434 reversed $251 $-1 #
edge $-1 $437 -27.892369373167746 $440 27.892369373167746 $433 $613 forward 7 unknown #
coedge $-1 $428 $259 $264 $443 forward $420 $-1 #
coedge $-1 $259 $428 $422 $604 reversed $420 $-1 #
vertex $-1 $260 $614 #
straight-curve $-1 0 27.892369373167746 1.9846456527394625 -1 0 0 I I #
coedge $-1 $261 $423 $263 $442 reversed $153 $-1 #
vertex $-1 $434 $615 #
straight-curve $-1 0 -27.892369373167746 1.9846456527394625 1 0 0 I I #
edge $-1 $266 -1.9846456527394625 $431 1.9846456527394625 $263 $616 forward 7 unknown #
edge $-1 $267 -1.9846456527394625 $430 1.9846456527394625 $264 $617 forward 7 unknown #
point $-1 3.2317771955381289 -27.892369373167746 1.9846456527394625 #
point $-1 3.2317771955381289 27.892369373167746 1.9846456527394625 #
face $-1 $-1 $284 $36 $-1 $618 reversed single #
loop $-1 $-1 $462 $269 #
plane-surface $-1 0 192.74513992736595 0 0 -1 0 0 0 -1 forward_v I I I I #
coedge $-1 $619 $460 $463 $620 forward $270 $-1 #
coedge $-1 $466 $272 $273 $454 reversed $161 $-1 #
coedge $-1 $460 $619 $272 $452 reversed $270 $-1 #
edge $-1 $467 -96.372569963682963 $621 96.372569963682963 $451 $622 forward 7 unknown #
coedge $-1 $274 $273 $619 $623 forward $101 $-1 #
edge $-1 $458 -8.5743795747292708 $621 8.5743795747292708 $450 $624 forward 7 unknown #
coedge $-1 $463 $462 $274 $456 reversed $447 $-1 #
edge $-1 $625 -8.5743795747292708 $457 8.5743795747292708 $455 $626 forward 7 unknown #
vertex $-1 $276 $627 #
vertex $-1 $469 $628 #
straight-curve $-1 8.5743795747292708 0 -96.372569963682963 0 -1 0 I I #
coedge $-1 $449 $451 $277 $461 reversed $270 $-1 #
edge $-1 $464 -192.74513992736595 $467 192.74513992736595 $460 $629 forward 7 unknown #
coedge $-1 $455 $278 $283 $470 forward $447 $-1 #
coedge $-1 $278 $455 $449 $620 reversed $447 $-1 #
vertex $-1 $279 $630 #
straight-curve $-1 0 192.74513992736595 96.372569963682963 -1 0 0 I I #
coedge $-1 $280 $450 $282 $469 reversed $161 $-1 #
vertex $-1 $461 $631 #
straight-curve $-1 0 -192.74513992736595 96.372569963682963 1 0 0 I I #
edge $-1 $285 -96.372569963682963 $458 96.372569963682963 $282 $632 forward 7 unknown #
edge $-1 $286 -96.372569963682963 $457 96.372569963682963 $283 $633 forward 7 unknown #
point $-1 8.5743795747292708 -192.74513992736595 96.372569963682963 #
point $-1 8.5743795747292708 192.74513992736595 96.372569963682963 #
coedge $-1 $473 $473 $-1 $634 reversed $288 $-1 #
vertex $-1 $290 $635 #
ellipse-curve $-1 0 0 -0.75 0 0 -1 1.5 0 0 1 I I #
point $-1 1.5 0 -4.5140766624958051 #
face $-1 $-1 $308 $38 $-1 $636 reversed single #
loop $-1 $-1 $493 $293 #
plane-surface $-1 0 192.74513992736595 0 0 -1 0 0 0 -1 forward_v I I I I #
coedge $-1 $637 $491 $494 $638 forward $294 $-1 #
coedge $-1 $497 $296 $297 $485 reversed $174 $-1 #
coedge $-1 $491 $637 $296 $483 reversed $294 $-1 #
edge $-1 $498 -96.372569963682963 $639 96.372569963682963 $482 $640 forward 7 unknown #
coedge $-1 $298 $297 $637 $641 forward $110 $-1 #
edge $-1 $489 -8.5743795747292708 $639 8.5743795747292708 $481 $642 forward 7 unknown #
coedge $-1 $494 $493 $298 $487 reversed $478 $-1 #
edge $-1 $643 -8.5743795747292708 $488 8.5743795747292708 $486 $644 forward 7 unknown #
vertex $-1 $300 $645 #
vertex $-1 $500 $646 #
straight-curve $-1 8.5743795747292708 0 -96.372569963682963 0 -1 0 I I #
coedge $-1 $480 $482 $301 $492 reversed $294 $-1 #
edge $-1 $495 -192.74513992736595 $498 192.74513992736595 $491 $647 forward 7 unknown #
coedge $-1 $486 $302 $307 $501 forward $478 $-1 #
coedge $-1 $302 $486 $480 $638 reversed $478 $-1 #
vertex $-1 $303 $648 #
straight-curve $-1 0 192.74513992736595 96.372569963682963 -1 0 0 I I #
coedge $-1 $304 $481 $306 $500 reversed $174 $-1 #
vertex $-1 $492 $649 #
straight-curve $-1 0 -192.74513992736595 96.372569963682963 1 0 0 I I #
edge $-1 $309 -96.372569963682963 $489 96.372569963682963 $306 $650 forward 7 unknown #
edge $-1 $310 -96.372569963682963 $488 96.372569963682963 $307 $651 forward 7 unknown #
point $-1 8.5743795747292708 -192.74513992736595 96.372569963682963 #
point $-1 8.5743795747292708 192.74513992736595 96.372569963682963 #
coedge $-1 $504 $504 $-1 $652 reversed $312 $-1 #
vertex $-1 $314 $653 #
ellipse-curve $-1 0 0 -0.75 0 0 -1 1.5 0 0 1 I I #
point $-1 1.5 0 -4.5140766624958051 #
face $-1 $-1 $332 $40 $-1 $654 reversed single #
loop $-1 $-1 $524 $317 #
plane-surface $-1 0 192.74513992736595 0 0 -1 0 0 0 -1 forward_v I I I I #
coedge $-1 $655 $522 $525 $656 forward $318 $-1 #
coedge $-1 $528 $320 $321 $516 reversed $187 $-1 #
coedge $-1 $522 $655 $320 $514 reversed $318 $-1 #
edge $-1 $529 -96.372569963682963 $657 96.372569963682963 $513 $658 forward 7 unknown #
coedge $-1 $322 $321 $655 $659 forward $119 $-1 #
edge $-1 $520 -8.5743795747292708 $657 8.5743795747292708 $512 $660 forward 7 unknown #
coedge $-1 $525 $524 $322 $518 reversed $509 $-1 #
edge $-1 $661 -8.5743795747292708 $519 8.5743795747292708 $517 $662 forward 7 unknown #
vertex $-1 $324 $663 #
vertex $-1 $531 $664 #
straight-curve $-1 8.5743795747292708 0 -96.372569963682963 0 -1 0 I I #
coedge $-1 $511 $513 $325 $523 reversed $318 $-1 #
edge $-1 $526 -192.74513992736595 $529 192.74513992736595 $522 $665 forward 7 unknown #
coedge $-1 $517 $326 $331 $532 forward $509 $-1 #
coedge $-1 $326 $517 $511 $656 reversed $509 $-1 #
vertex $-1 $327 $666 #
straight-curve $-1 0 192.74513992736595 96.372569963682963 -1 0 0 I I #
coedge $-1 $328 $512 $330 $531 reversed $187 $-1 #
vertex $-1 $523 $667 #
straight-curve $-1 0 -192.74513992736595 96.372569963682963 1 0 0 I I #
edge $-1 $333 -96.372569963682963 $520 96.372569963682963 $330 $668 forward 7 unknown #
edge $-1 $334 -96.372569963682963 $519 96.372569963682963 $331 $669 forward 7 unknown #
point $-1 8.5743795747292708 -192.74513992736595 96.372569963682963 #
point $-1 8.5743795747292708 192.74513992736595 96.372569963682963 #
coedge $-1 $535 $535 $-1 $670 reversed $336 $-1 #
vertex $-1 $338 $671 #
ellipse-curve $-1 0 0 -0.75 0 0 -1 1.5 0 0 1 I I #
point $-1 1.5 0 -4.5140766624958051 #
face $-1 $-1 $356 $42 $-1 $672 reversed single #
loop $-1 $-1 $555 $341 #
plane-surface $-1 0 192.74513992736595 0 0 -1 0 0 0 -1 forward_v I I I I #
coedge $-1 $673 $553 $556 $674 forward $342 $-1 #
coedge $-1 $559 $344 $345 $547 reversed $200 $-1 #
coedge $-1 $553 $673 $344 $545 reversed $342 $-1 #
edge $-1 $560 -96.372569963682963 $675 96.372569963682963 $544 $676 forward 7 unknown #
coedge $-1 $346 $345 $673 $677 forward $128 $-1 #
edge $-1 $551 -8.5743795747292708 $675 8.5743795747292708 $543 $678 forward 7 unknown #
coedge $-1 $556 $555 $346 $549 reversed $540 $-1 #
edge $-1 $679 -8.5743795747292708 $550 8.5743795747292708 $548 $680 forward 7 unknown #
vertex $-1 $348 $681 #
vertex $-1 $562 $682 #
straight-curve $-1 8.5743795747292708 0 -96.372569963682963 0 -1 0 I I #
coedge $-1 $542 $544 $349 $554 reversed $342 $-1 #
edge $-1 $557 -192.74513992736595 $560 192.74513992736595 $553 $683 forward 7 unknown #
coedge $-1 $548 $350 $355 $563 forward $540 $-1 #
coedge $-1 $350 $548 $542 $674 reversed $540 $-1 #
vertex $-1 $351 $684 #
straight-curve $-1 0 192.74513992736595 96.372569963682963 -1 0 0 I I #
coedge $-1 $352 $543 $354 $562 reversed $200 $-1 #
vertex $-1 $554 $685 #
straight-curve $-1 0 -192.74513992736595 96.372569963682963 1 0 0 I I #
edge $-1 $357 -96.372569963682963 $551 96.372569963682963 $354 $686 forward 7 unknown #
edge $-1 $358 -96.372569963682963 $550 96.372569963682963 $355 $687 forward 7 unknown #
point $-1 8.5743795747292708 -192.74513992736595 96.372569963682963 #
point $-1 8.5743795747292708 192.74513992736595 96.372569963682963 #
coedge $-1 $566 $566 $-1 $688 reversed $360 $-1 #
vertex $-1 $362 $689 #
ellipse-curve $-1 0 0 -0.75 0 0 -1 1.5 0 0 1 I I #
point $-1 1.5 0 -4.5140766624958051 #
plane-surface $-1 48.186284981841489 0 0 -1 0 0 0 0 1 forward_v I I I I #
coedge $-1 $370 $368 $372 $575 reversed $213 $-1 #
edge $-1 $383 -6.830042547059116 $577 6.830042547059116 $382 $690 forward 7 unknown #
vertex $-1 $575 $691 #
straight-curve $-1 -48.186284981841489 -27.892369373167746 0 0 0 -1 I I #
edge $-1 $573 -27.892369373167746 $577 27.892369373167746 $571 $692 forward 7 unknown #
straight-curve $-1 0 -27.892369373167746 -6.830042547059116 -1 0 0 I I #
vertex $-1 $375 $693 #
straight-curve $-1 0 27.892369373167746 -6.830042547059116 1 0 0 I I #
point $-1 48.186284981841489 27.892369373167746 -6.830042547059116 #
point $-1 48.186284981841489 -27.892369373167746 -6.830042547059116 #
straight-curve $-1 -48.186284981841489 0 6.830042547059116 0 -1 0 I I #
point $-1 -48.186284981841489 27.892369373167746 6.830042547059116 #
point $-1 -48.186284981841489 -27.892369373167746 6.830042547059116 #
straight-curve $-1 48.186284981841489 -27.892369373167746 0 0 0 -1 I I #
straight-curve $-1 48.186284981841489 27.892369373167746 0 0 0 -1 I I #
plane-surface $-1 3.2317771955381298 0 0 -1 0 0 0 0 1 forward_v I I I I #
coedge $-1 $397 $395 $399 $591 reversed $232 $-1 #
edge $-1 $410 -1.9846456527394625 $593 1.9846456527394625 $409 $694 forward 7 unknown #
vertex $-1 $591 $695 #
straight-curve $-1 -3.2317771955381298 -27.892369373167746 0 0 0 -1 I I #
edge $-1 $589 -27.892369373167746 $593 27.892369373167746 $587 $696 forward 7 unknown #
straight-curve $-1 0 -27.892369373167746 -1.9846456527394625 -1 0 0 I I #
vertex $-1 $402 $697 #
straight-curve $-1 0 27.892369373167746 -1.9846456527394625 1 0 0 I I #
point $-1 3.2317771955381298 27.892369373167746 -1.9846456527394625 #
point $-1 3.2317771955381298 -27.892369373167746 -1.9846456527394625 #
straight-curve $-1 -3.2317771955381298 0 1.9846456527394625 0 -1 0 I I #
point $-1 -3.2317771955381298 27.892369373167746 1.9846456527394625 #
point $-1 -3.2317771955381298 -27.892369373167746 1.9846456527394625 #
straight-curve $-1 3.2317771955381298 -27.892369373167746 0 0 0 -1 I I #
straight-curve $-1 3.2317771955381298 27.892369373167746 0 0 0 -1 I I #
plane-surface $-1 3.2317771955381289 0 0 -1 0 0 0 0 1 forward_v I I I I #
coedge $-1 $424 $422 $426 $607 reversed $251 $-1 #
edge $-1 $437 -1.9846456527394625 $609 1.9846456527394625 $436 $698 forward 7 unknown #
vertex $-1 $607 $699 #
straight-curve $-1 -3.2317771955381289 -27.892369373167746 0 0 0 -1 I I #
edge $-1 $605 -27.892369373167746 $609 27.892369373167746 $603 $700 forward 7 unknown #
straight-curve $-1 0 -27.892369373167746 -1.9846456527394625 -1 0 0 I I #
vertex $-1 $429 $701 #
straight-curve $-1 0 27.892369373167746 -1.9846456527394625 1 0 0 I I #
point $-1 3.2317771955381289 27.892369373167746 -1.9846456527394625 #
point $-1 3.2317771955381289 -27.892369373167746 -1.9846456527394625 #
straight-curve $-1 -3.2317771955381289 0 1.9846456527394625 0 -1 0 I I #
point $-1 -3.2317771955381289 27.892369373167746 1.9846456527394625 #
point $-1 -3.2317771955381289 -27.892369373167746 1.9846456527394625 #
straight-curve $-1 3.2317771955381289 -27.892369373167746 0 0 0 -1 I I #
straight-curve $-1 3.2317771955381289 27.892369373167746 0 0 0 -1 I I #
plane-surface $-1 8.5743795747292708 0 0 -1 0 0 0 0 1 forward_v I I I I #
coedge $-1 $451 $449 $453 $623 reversed $270 $-1 #
edge $-1 $464 -96.372569963682963 $625 96.372569963682963 $463 $702 forward 7 unknown #
vertex $-1 $623 $703 #
straight-curve $-1 -8.5743795747292708 -192.74513992736595 0 0 0 -1 I I #
edge $-1 $621 -192.74513992736595 $625 192.74513992736595 $619 $704 forward 7 unknown #
straight-curve $-1 0 -192.74513992736595 -96.372569963682963 -1 0 0 I I #
vertex $-1 $456 $705 #
straight-curve $-1 0 192.74513992736595 -96.372569963682963 1 0 0 I I #
point $-1 8.5743795747292708 192.74513992736595 -96.372569963682963 #
point $-1 8.5743795747292708 -192.74513992736595 -96.372569963682963 #
straight-curve $-1 -8.5743795747292708 0 96.372569963682963 0 -1 0 I I #
point $-1 -8.5743795747292708 192.74513992736595 96.372569963682963 #
point $-1 -8.5743795747292708 -192.74513992736595 96.372569963682963 #
straight-curve $-1 8.5743795747292708 -192.74513992736595 0 0 0 -1 I I #
straight-curve $-1 8.5743795747292708 192.74513992736595 0 0 0 -1 I I #
edge $-1 $706 1 $706 0 $473 $-1 forward 7 unknown #
point $-1 1.5 0 -0.75 #
plane-surface $-1 8.5743795747292708 0 0 -1 0 0 0 0 1 forward_v I I I I #
coedge $-1 $482 $480 $484 $641 reversed $294 $-1 #
edge $-1 $495 -96.372569963682963 $643 96.372569963682963 $494 $707 forward 7 unknown #
vertex $-1 $641 $708 #
straight-curve $-1 -8.5743795747292708 -192.74513992736595 0 0 0 -1 I I #
edge $-1 $639 -192.74513992736595 $643 192.74513992736595 $637 $709 forward 7 unknown #
straight-curve $-1 0 -192.74513992736595 -96.372569963682963 -1 0 0 I I #
vertex $-1 $487 $710 #
straight-curve $-1 0 192.74513992736595 -96.372569963682963 1 0 0 I I #
point $-1 8.5743795747292708 192.74513992736595 -96.372569963682963 #
point $-1 8.5743795747292708 -192.74513992736595 -96.372569963682963 #
straight-curve $-1 -8.5743795747292708 0 96.372569963682963 0 -1 0 I I #
point $-1 -8.5743795747292708 192.74513992736595 96.372569963682963 #
point $-1 -8.5743795747292708 -192.74513992736595 96.372569963682963 #
straight-curve $-1 8.5743795747292708 -192.74513992736595 0 0 0 -1 I I #
straight-curve $-1 8.5743795747292708 192.74513992736595 0 0 0 -1 I I #
edge $-1 $711 1 $711 0 $504 $-1 forward 7 unknown #
point $-1 1.5 0 -0.75 #
plane-surface $-1 8.5743795747292708 0 0 -1 0 0 0 0 1 forward_v I I I I #
coedge $-1 $513 $511 $515 $659 reversed $318 $-1 #
edge $-1 $526 -96.372569963682963 $661 96.372569963682963 $525 $712 forward 7 unknown #
vertex $-1 $659 $713 #
straight-curve $-1 -8.5743795747292708 -192.74513992736595 0 0 0 -1 I I #
edge $-1 $657 -192.74513992736595 $661 192.74513992736595 $655 $714 forward 7 unknown #
straight-curve $-1 0 -192.74513992736595 -96.372569963682963 -1 0 0 I I #
vertex $-1 $518 $715 #
straight-curve $-1 0 192.74513992736595 -96.372569963682963 1 0 0 I I #
point $-1 8.5743795747292708 192.74513992736595 -96.372569963682963 #
point $-1 8.5743795747292708 -192.74513992736595 -96.372569963682963 #
straight-curve $-1 -8.5743795747292708 0 96.372569963682963 0 -1 0 I I #
point $-1 -8.5743795747292708 192.74513992736595 96.372569963682963 #
point $-1 -8.5743795747292708 -192.74513992736595 96.372569963682963 #
straight-curve $-1 8.5743795747292708 -192.74513992736595 0 0 0 -1 I I #
straight-curve $-1 8.5743795747292708 192.74513992736595 0 0 0 -1 I I #
edge $-1 $716 1 $716 0 $535 $-1 forward 7 unknown #
point $-1 1.5 0 -0.75 #
plane-surface $-1 8.5743795747292708 0 0 -1 0 0 0 0 1 forward_v I I I I #
coedge $-1 $544 $542 $546 $677 reversed $342 $-1 #
edge $-1 $557 -96.372569963682963 $679 96.372569963682963 $556 $717 forward 7 unknown #
vertex $-1 $677 $718 #
straight-curve $-1 -8.5743795747292708 -192.74513992736595 0 0 0 -1 I I #
edge $-1 $675 -192.74513992736595 $679 192.74513992736595 $673 $719 forward 7 unknown #
straight-curve $-1 0 -192.74513992736595 -96.372569963682963 -1 0 0 I I #
vertex $-1 $549 $720 #
straight-curve $-1 0 192.74513992736595 -96.372569963682963 1 0 0 I I #
point $-1 8.5743795747292708 192.74513992736595 -96.372569963682963 #
point $-1 8.5743795747292708 -192.74513992736595 -96.372569963682963 #
straight-curve $-1 -8.5743795747292708 0 96.372569963682963 0 -1 0 I I #
point $-1 -8.5743795747292708 192.74513992736595 96.372569963682963 #
point $-1 -8.5743795747292708 -192.74513992736595 96.372569963682963 #
straight-curve $-1 8.5743795747292708 -192.74513992736595 0 0 0 -1 I I #
straight-curve $-1 8.5743795747292708 192.74513992736595 0 0 0 -1 I I #
edge $-1 $721 1 $721 0 $566 $-1 forward 7 unknown #
point $-1 1.5 0 -0.75 #
straight-curve $-1 -48.186284981841489 27.892369373167746 0 0 0 -1 I I #
point $-1 -48.186284981841489 -27.892369373167746 -6.830042547059116 #
straight-curve $-1 -48.186284981841489 0 -6.830042547059116 0 1 0 I I #
point $-1 -48.186284981841489 27.892369373167746 -6.830042547059116 #
straight-curve $-1 -3.2317771955381298 27.892369373167746 0 0 0 -1 I I #
point $-1 -3.2317771955381298 -27.892369373167746 -1.9846456527394625 #
straight-curve $-1 -3.2317771955381298 0 -1.9846456527394625 0 1 0 I I #
point $-1 -3.2317771955381298 27.892369373167746 -1.9846456527394625 #
straight-curve $-1 -3.2317771955381289 27.892369373167746 0 0 0 -1 I I #
point $-1 -3.2317771955381289 -27.892369373167746 -1.9846456527394625 #
straight-curve $-1 -3.2317771955381289 0 -1.9846456527394625 0 1 0 I I #
point $-1 -3.2317771955381289 27.892369373167746 -1.9846456527394625 #
straight-curve $-1 -8.5743795747292708 192.74513992736595 0 0 0 -1 I I #
point $-1 -8.5743795747292708 -192.74513992736595 -96.372569963682963 #
straight-curve $-1 -8.5743795747292708 0 -96.372569963682963 0 1 0 I I #
point $-1 -8.5743795747292708 192.74513992736595 -96.372569963682963 #
vertex $-1 $634 $722 #
straight-curve $-1 -8.5743795747292708 192.74513992736595 0 0 0 -1 I I #
point $-1 -8.5743795747292708 -192.74513992736595 -96.372569963682963 #
straight-curve $-1 -8.5743795747292708 0 -96.372569963682963 0 1 0 I I #
point $-1 -8.5743795747292708 192.74513992736595 -96.372569963682963 #
vertex $-1 $652 $723 #
straight-curve $-1 -8.5743795747292708 192.74513992736595 0 0 0 -1 I I #
point $-1 -8.5743795747292708 -192.74513992736595 -96.372569963682963 #
straight-curve $-1 -8.5743795747292708 0 -96.372569963682963 0 1 0 I I #
point $-1 -8.5743795747292708 192.74513992736595 -96.372569963682963 #
vertex $-1 $670 $724 #
straight-curve $-1 -8.5743795747292708 192.74513992736595 0 0 0 -1 I I #
point $-1 -8.5743795747292708 -192.74513992736595 -96.372569963682963 #
straight-curve $-1 -8.5743795747292708 0 -96.372569963682963 0 1 0 I I #
point $-1 -8.5743795747292708 192.74513992736595 -96.372569963682963 #
vertex $-1 $688 $725 #
point $-1 0 0 0.75 #
point $-1 0 0 0.75 #
point $-1 0 0 0.75 #
point $-1 0 0 0.75 #
End-of-ACIS-data 