500 0 16 0           
7 Unknown 11 ACIS 5.0 NT 24 Fri Mar 26 18:23:51 1999 
-1 9.9999999999999995e-007 1e-010 
body $-1 $16 $-1 $17 #
body $-1 $18 $-1 $19 #
body $-1 $20 $-1 $21 #
body $-1 $22 $-1 $23 #
body $-1 $24 $-1 $25 #
body $-1 $26 $-1 $27 #
body $-1 $28 $-1 $29 #
body $-1 $30 $-1 $31 #
body $-1 $32 $-1 $33 #
body $-1 $34 $-1 $35 #
body $-1 $36 $-1 $37 #
body $-1 $38 $-1 $39 #
body $-1 $40 $-1 $41 #
body $-1 $42 $-1 $43 #
body $-1 $44 $-1 $45 #
body $-1 $46 $-1 $47 #
lump $-1 $-1 $48 $0 #
transform $-1 1 0 0 0 1 0 0 0 1 60.626850184636979 36.808696480396982 10.839620222111961 1 rotate no_reflect no_shear #
lump $-1 $-1 $49 $1 #
transform $-1 1 0 0 0 1 0 0 0 1 60.626850184636979 36.808696480396982 10.839620222111961 1 rotate no_reflect no_shear #
lump $-1 $-1 $50 $2 #
transform $-1 1 0 0 0 1 0 0 0 1 60.626850184636979 36.808696480396982 10.839620222111961 1 rotate no_reflect no_shear #
lump $-1 $-1 $51 $3 #
transform $-1 1 0 0 0 1 0 0 0 1 60.626850184636979 36.808696480396982 10.839620222111961 1 rotate no_reflect no_shear #
lump $-1 $-1 $52 $4 #
transform $-1 1 0 0 0 1 0 0 0 1 60.626850184636979 36.808696480396982 10.839620222111961 1 rotate no_reflect no_shear #
lump $-1 $-1 $53 $5 #
transform $-1 1 0 0 0 1 0 0 0 1 60.626850184636979 36.808696480396982 10.839620222111961 1 rotate no_reflect no_shear #
lump $-1 $-1 $54 $6 #
transform $-1 1 0 0 0 1 0 0 0 1 60.626850184636979 36.808696480396982 10.839620222111961 1 rotate no_reflect no_shear #
lump $-1 $-1 $55 $7 #
transform $-1 1 0 0 0 1 0 0 0 1 60.626850184636979 36.808696480396982 10.839620222111961 1 rotate no_reflect no_shear #
lump $-1 $-1 $56 $8 #
transform $-1 1 0 0 0 1 0 0 0 1 60.626850184636979 36.808696480396982 10.839620222111961 1 rotate no_reflect no_shear #
lump $-1 $-1 $57 $9 #
transform $-1 1 0 0 0 1 0 0 0 1 60.626850184636979 36.808696480396982 10.839620222111961 1 rotate no_reflect no_shear #
lump $-1 $-1 $58 $10 #
transform $-1 1 0 0 0 1 0 0 0 1 60.626850184636979 36.808696480396982 10.839620222111961 1 rotate no_reflect no_shear #
lump $-1 $-1 $59 $11 #
transform $-1 1 0 0 0 1 0 0 0 1 60.626850184636979 36.808696480396982 10.839620222111961 1 rotate no_reflect no_shear #
lump $-1 $-1 $60 $12 #
transform $-1 1 0 0 0 1 0 0 0 1 60.626850184636979 36.808696480396982 10.839620222111961 1 rotate no_reflect no_shear #
lump $-1 $-1 $61 $13 #
transform $-1 1 0 0 0 1 0 0 0 1 60.626850184636979 36.808696480396982 10.839620222111961 1 rotate no_reflect no_shear #
lump $-1 $-1 $62 $14 #
transform $-1 1 0 0 0 1 0 0 0 1 60.626850184636979 36.808696480396982 10.839620222111961 1 rotate no_reflect no_shear #
lump $-1 $-1 $63 $15 #
transform $-1 1 0 0 0 1 0 0 0 1 60.626850184636979 36.808696480396982 10.839620222111961 1 rotate no_reflect no_shear #
shell $-1 $-1 $-1 $64 $-1 $16 #
shell $-1 $-1 $-1 $65 $-1 $18 #
shell $-1 $-1 $-1 $66 $-1 $20 #
shell $-1 $-1 $-1 $67 $-1 $22 #
shell $-1 $-1 $-1 $68 $-1 $24 #
shell $-1 $-1 $-1 $69 $-1 $26 #
shell $-1 $-1 $-1 $70 $-1 $28 #
shell $-1 $-1 $-1 $71 $-1 $30 #
shell $-1 $-1 $-1 $72 $-1 $32 #
shell $-1 $-1 $-1 $73 $-1 $34 #
shell $-1 $-1 $-1 $74 $-1 $36 #
shell $-1 $-1 $-1 $75 $-1 $38 #
shell $-1 $-1 $-1 $76 $-1 $40 #
shell $-1 $-1 $-1 $77 $-1 $42 #
shell $-1 $-1 $-1 $78 $-1 $44 #
shell $-1 $-1 $-1 $79 $-1 $46 #
face $-1 $80 $81 $48 $-1 $82 forward single #
face $-1 $83 $84 $49 $-1 $85 reversed single #
face $-1 $86 $87 $50 $-1 $88 forward single #
face $-1 $89 $90 $51 $-1 $91 forward single #
face $-1 $92 $93 $52 $-1 $94 reversed single #
face $-1 $95 $96 $53 $-1 $97 forward single #
face $-1 $98 $99 $54 $-1 $100 forward single #
face $-1 $101 $102 $55 $-1 $103 reversed single #
face $-1 $104 $105 $56 $-1 $106 forward single #
face $-1 $107 $108 $57 $-1 $109 forward single #
face $-1 $110 $111 $58 $-1 $112 reversed single #
face $-1 $113 $114 $59 $-1 $115 forward single #
face $-1 $116 $117 $60 $-1 $118 forward single #
face $-1 $119 $120 $61 $-1 $121 reversed single #
face $-1 $122 $123 $62 $-1 $124 forward single #
face $-1 $125 $126 $63 $-1 $127 forward single #
face $-1 $128 $129 $48 $-1 $130 reversed single #
loop $-1 $-1 $131 $64 #
plane-surface $-1 0 0 10.839620222111961 0 0 1 1 0 0 forward_v I I I I #
face $-1 $132 $133 $49 $-1 $134 reversed single #
loop $-1 $-1 $135 $65 #
plane-surface $-1 -56.171939463547211 55.904664393971338 142.83078732389154 1 0 0 0 -0.62932039886446345 -0.77714595512881146 forward_v I I I I #
face $-1 $136 $137 $50 $-1 $138 forward single #
loop $-1 $139 $140 $66 #
cone-surface $-1 -52.351191588206923 30.834678214702901 5.7117131033287682 0 -0.62932039886446345 -0.77714595512881146 1.5 0 0 1 I I 0 1 1.5 forward I I I I #
face $-1 $141 $142 $51 $-1 $143 forward single #
loop $-1 $144 $145 $67 #
cone-surface $-1 -46.620069775196484 30.834678214702901 5.7117131033287682 0 -0.62932039886446345 -0.77714595512881146 1.5 0 0 1 I I 0 1 1.5 forward I I I I #
face $-1 $146 $147 $52 $-1 $148 reversed single #
loop $-1 $-1 $149 $68 #
plane-surface $-1 -25.858514371228722 55.904664393971338 142.83078732389154 1 0 0 0 -0.62932039886446345 -0.77714595512881146 forward_v I I I I #
face $-1 $150 $151 $53 $-1 $152 forward single #
loop $-1 $153 $154 $69 #
cone-surface $-1 -22.037766495888434 30.834678214702901 5.7117131033287682 0 -0.62932039886446345 -0.77714595512881146 1.5 0 0 1 I I 0 1 1.5 forward I I I I #
face $-1 $155 $156 $54 $-1 $157 forward single #
loop $-1 $158 $159 $70 #
cone-surface $-1 -16.306644682877995 30.834678214702901 5.7117131033287682 0 -0.62932039886446345 -0.77714595512881146 1.5 0 0 1 I I 0 1 1.5 forward I I I I #
face $-1 $160 $161 $55 $-1 $162 reversed single #
loop $-1 $-1 $163 $71 #
plane-surface $-1 4.4549107210897585 55.904664393971338 142.83078732389154 1 0 0 0 -0.62932039886446345 -0.77714595512881146 forward_v I I I I #
face $-1 $164 $165 $56 $-1 $166 forward single #
loop $-1 $167 $168 $72 #
cone-surface $-1 8.2756585964300626 30.834678214702901 5.7117131033287682 0 -0.62932039886446345 -0.77714595512881146 1.5 0 0 1 I I 0 1 1.5 forward I I I I #
face $-1 $169 $170 $57 $-1 $171 forward single #
loop $-1 $172 $173 $73 #
cone-surface $-1 14.006780409440495 30.834678214702901 5.7117131033287682 0 -0.62932039886446345 -0.77714595512881146 1.5 0 0 1 I I 0 1 1.5 forward I I I I #
face $-1 $174 $175 $58 $-1 $176 reversed single #
loop $-1 $-1 $177 $74 #
plane-surface $-1 34.768335813408243 55.904664393971338 142.83078732389154 1 0 0 0 -0.62932039886446345 -0.77714595512881146 forward_v I I I I #
face $-1 $178 $179 $59 $-1 $180 forward single #
loop $-1 $181 $182 $75 #
cone-surface $-1 38.589083688748545 30.834678214702901 5.7117131033287682 0 -0.62932039886446345 -0.77714595512881146 1.5 0 0 1 I I 0 1 1.5 forward I I I I #
face $-1 $183 $184 $60 $-1 $185 forward single #
loop $-1 $186 $187 $76 #
cone-surface $-1 44.320205501758991 30.834678214702901 5.7117131033287682 0 -0.62932039886446345 -0.77714595512881146 1.5 0 0 1 I I 0 1 1.5 forward I I I I #
face $-1 $188 $189 $61 $-1 $190 reversed single #
loop $-1 $-1 $191 $77 #
plane-surface $-1 -7.9188007393143245 -137.33257087686297 70.401543571571992 -1 0 0 0 -0.82903758062907751 0.55919289150049634 forward_v I I I I #
face $-1 $192 $193 $62 $-1 $194 forward single #
loop $-1 $195 $196 $78 #
cone-surface $-1 -23.95695493039166 -33.336703429223157 6.2515512365091608 0 0.82903758062907751 -0.55919289150049634 1 0 0 1 I I 0 1 1 forward I I I I #
face $-1 $197 $198 $63 $-1 $199 forward single #
loop $-1 $200 $201 $79 #
cone-surface $-1 -14.334062415745258 -33.336703429223157 6.2515512365091608 0 0.82903758062907751 -0.55919289150049634 1 0 0 1 I I 0 1 1 forward I I I I #
face $-1 $202 $203 $48 $-1 $204 reversed single #
loop $-1 $-1 $205 $80 #
plane-surface $-1 0 0 -10.839620222111961 0 0 1 1 0 0 forward_v I I I I #
coedge $-1 $206 $207 $208 $209 forward $81 $-1 #
face $-1 $210 $211 $49 $-1 $212 reversed single #
loop $-1 $-1 $213 $83 #
plane-surface $-1 -49.4856306817017 -20.402762686212291 48.598964537509417 0 0.62932039886446345 0.77714595512881146 1 0 0 forward_v I I I I #
coedge $-1 $214 $215 $216 $217 reversed $84 $-1 #
face $-1 $-1 $218 $50 $-1 $219 forward single #
loop $-1 $220 $221 $86 #
cone-surface $-1 -52.351191588206923 29.679946248663065 4.2857379112246434 0 -0.62932039886446345 -0.77714595512881146 0.75 0 0 1 I I -0.70710678118654757 0.70710678118654757 0.75 forward I I I I #
loop $-1 $-1 $222 $66 #
coedge $-1 $140 $140 $223 $224 reversed $87 $-1 #
face $-1 $-1 $225 $51 $-1 $226 forward single #
loop $-1 $227 $228 $89 #
cone-surface $-1 -46.620069775196484 29.679946248663065 4.2857379112246434 0 -0.62932039886446345 -0.77714595512881146 0.75 0 0 1 I I -0.70710678118654757 0.70710678118654757 0.75 forward I I I I #
loop $-1 $-1 $229 $67 #
coedge $-1 $145 $145 $230 $231 reversed $90 $-1 #
face $-1 $232 $233 $52 $-1 $234 reversed single #
loop $-1 $-1 $235 $92 #
plane-surface $-1 -19.172205589383211 -20.402762686212291 48.598964537509417 0 0.62932039886446345 0.77714595512881146 1 0 0 forward_v I I I I #
coedge $-1 $236 $237 $238 $239 reversed $93 $-1 #
face $-1 $-1 $240 $53 $-1 $241 forward single #
loop $-1 $242 $243 $95 #
cone-surface $-1 -22.037766495888434 29.679946248663065 4.2857379112246434 0 -0.62932039886446345 -0.77714595512881146 0.75 0 0 1 I I -0.70710678118654757 0.70710678118654757 0.75 forward I I I I #
loop $-1 $-1 $244 $69 #
coedge $-1 $154 $154 $245 $246 reversed $96 $-1 #
face $-1 $-1 $247 $54 $-1 $248 forward single #
loop $-1 $249 $250 $98 #
cone-surface $-1 -16.306644682877995 29.679946248663065 4.2857379112246434 0 -0.62932039886446345 -0.77714595512881146 0.75 0 0 1 I I -0.70710678118654757 0.70710678118654757 0.75 forward I I I I #
loop $-1 $-1 $251 $70 #
coedge $-1 $159 $159 $252 $253 reversed $99 $-1 #
face $-1 $254 $255 $55 $-1 $256 reversed single #
loop $-1 $-1 $257 $101 #
plane-surface $-1 11.141219502935272 -20.402762686212291 48.598964537509417 0 0.62932039886446345 0.77714595512881146 1 0 0 forward_v I I I I #
coedge $-1 $258 $259 $260 $261 reversed $102 $-1 #
face $-1 $-1 $262 $56 $-1 $263 forward single #
loop $-1 $264 $265 $104 #
cone-surface $-1 8.2756585964300626 29.679946248663065 4.2857379112246434 0 -0.62932039886446345 -0.77714595512881146 0.75 0 0 1 I I -0.70710678118654757 0.70710678118654757 0.75 forward I I I I #
loop $-1 $-1 $266 $72 #
coedge $-1 $168 $168 $267 $268 reversed $105 $-1 #
face $-1 $-1 $269 $57 $-1 $270 forward single #
loop $-1 $271 $272 $107 #
cone-surface $-1 14.006780409440495 29.679946248663065 4.2857379112246434 0 -0.62932039886446345 -0.77714595512881146 0.75 0 0 1 I I -0.70710678118654757 0.70710678118654757 0.75 forward I I I I #
loop $-1 $-1 $273 $73 #
coedge $-1 $173 $173 $274 $275 reversed $108 $-1 #
face $-1 $276 $277 $58 $-1 $278 reversed single #
loop $-1 $-1 $279 $110 #
plane-surface $-1 41.454644595253754 -20.402762686212291 48.598964537509417 0 0.62932039886446345 0.77714595512881146 1 0 0 forward_v I I I I #
coedge $-1 $280 $281 $282 $283 reversed $111 $-1 #
face $-1 $-1 $284 $59 $-1 $285 forward single #
loop $-1 $286 $287 $113 #
cone-surface $-1 38.589083688748545 29.679946248663065 4.2857379112246434 0 -0.62932039886446345 -0.77714595512881146 0.75 0 0 1 I I -0.70710678118654757 0.70710678118654757 0.75 forward I I I I #
loop $-1 $-1 $288 $75 #
coedge $-1 $182 $182 $289 $290 reversed $114 $-1 #
face $-1 $-1 $291 $60 $-1 $292 forward single #
loop $-1 $293 $294 $116 #
cone-surface $-1 44.320205501758991 29.679946248663065 4.2857379112246434 0 -0.62932039886446345 -0.77714595512881146 0.75 0 0 1 I I -0.70710678118654757 0.70710678118654757 0.75 forward I I I I #
loop $-1 $-1 $295 $76 #
coedge $-1 $187 $187 $296 $297 reversed $117 $-1 #
face $-1 $298 $299 $61 $-1 $300 reversed single #
loop $-1 $-1 $301 $119 #
plane-surface $-1 -19.145508673068463 -36.808696480397003 2.5973362569428815 0 -0.82903758062907751 0.55919289150049634 1 0 0 forward_v I I I I #
coedge $-1 $302 $303 $304 $305 reversed $120 $-1 #
face $-1 $-1 $306 $62 $-1 $307 forward single #
loop $-1 $308 $309 $122 #
cone-surface $-1 -23.95695493039166 -32.229936867528821 5.5050277877406515 0 0.82903758062907751 -0.55919289150049634 0.5 0 0 1 I I -0.70710678118654746 0.70710678118654746 0.5 forward I I I I #
loop $-1 $-1 $310 $78 #
coedge $-1 $196 $196 $311 $312 reversed $123 $-1 #
face $-1 $-1 $313 $63 $-1 $314 forward single #
loop $-1 $315 $316 $125 #
cone-surface $-1 -14.334062415745258 -32.229936867528821 5.5050277877406515 0 0.82903758062907751 -0.55919289150049634 0.5 0 0 1 I I -0.70710678118654746 0.70710678118654746 0.5 forward I I I I #
loop $-1 $-1 $317 $79 #
coedge $-1 $201 $201 $318 $319 reversed $126 $-1 #
face $-1 $320 $321 $48 $-1 $322 reversed single #
loop $-1 $-1 $323 $128 #
plane-surface $-1 0 -36.808696480396982 0 0 1 0 0 0 1 forward_v I I I I #
coedge $-1 $324 $325 $326 $327 forward $129 $-1 #
coedge $-1 $328 $131 $329 $330 forward $81 $-1 #
coedge $-1 $131 $328 $331 $332 forward $81 $-1 #
coedge $-1 $333 $334 $131 $209 reversed $335 $-1 #
edge $-1 $336 -36.808696480396982 $337 36.808696480396982 $208 $338 forward 7 unknown #
face $-1 $339 $340 $49 $-1 $341 reversed single #
loop $-1 $-1 $342 $132 #
plane-surface $-1 -42.799321899856189 55.904664393971338 142.83078732389154 -1 0 0 0 0.62932039886446345 0.77714595512881146 forward_v I I I I #
coedge $-1 $343 $344 $345 $346 reversed $133 $-1 #
coedge $-1 $215 $135 $347 $348 reversed $84 $-1 #
coedge $-1 $135 $214 $343 $349 reversed $84 $-1 #
coedge $-1 $345 $350 $135 $217 forward $351 $-1 #
edge $-1 $352 -8.8563642834113132 $353 1.7261889141938731 $216 $354 forward 7 unknown #
loop $-1 $-1 $223 $136 #
plane-surface $-1 -49.4856306817017 -20.402762686212291 48.598964537509417 0 0.62932039886446345 0.77714595512881146 1 0 0 forward_v I I I I #
loop $-1 $-1 $355 $86 #
coedge $-1 $221 $221 $222 $356 reversed $137 $-1 #
coedge $-1 $222 $222 $221 $356 forward $139 $-1 #
coedge $-1 $223 $223 $140 $224 forward $218 $-1 #
edge $-1 $357 -3.5012125054442799e-016 $357 6.2831853071796004 $223 $358 forward 7 unknown #
loop $-1 $-1 $230 $141 #
plane-surface $-1 -49.4856306817017 -20.402762686212291 48.598964537509417 0 0.62932039886446345 0.77714595512881146 1 0 0 forward_v I I I I #
loop $-1 $-1 $359 $89 #
coedge $-1 $228 $228 $229 $360 reversed $142 $-1 #
coedge $-1 $229 $229 $228 $360 forward $144 $-1 #
coedge $-1 $230 $230 $145 $231 forward $225 $-1 #
edge $-1 $361 -3.5012125054442799e-016 $361 6.2831853071796004 $230 $362 forward 7 unknown #
face $-1 $363 $364 $52 $-1 $365 forward single #
loop $-1 $-1 $366 $146 #
plane-surface $-1 -12.485896807537697 55.904664393971338 142.83078732389154 -1 0 0 0 0.62932039886446345 0.77714595512881146 forward_v I I I I #
coedge $-1 $367 $368 $369 $370 reversed $147 $-1 #
coedge $-1 $237 $149 $371 $372 reversed $93 $-1 #
coedge $-1 $149 $236 $367 $373 reversed $93 $-1 #
coedge $-1 $369 $374 $149 $239 forward $364 $-1 #
edge $-1 $375 -8.8563642834113132 $376 1.7261889141938731 $238 $377 forward 7 unknown #
loop $-1 $-1 $245 $150 #
plane-surface $-1 -19.172205589383211 -20.402762686212291 48.598964537509417 0 0.62932039886446345 0.77714595512881146 1 0 0 forward_v I I I I #
loop $-1 $-1 $378 $95 #
coedge $-1 $243 $243 $244 $379 reversed $151 $-1 #
coedge $-1 $244 $244 $243 $379 forward $153 $-1 #
coedge $-1 $245 $245 $154 $246 forward $240 $-1 #
edge $-1 $380 -3.5012125054442799e-016 $380 6.2831853071796004 $245 $381 forward 7 unknown #
loop $-1 $-1 $252 $155 #
plane-surface $-1 -19.172205589383211 -20.402762686212291 48.598964537509417 0 0.62932039886446345 0.77714595512881146 1 0 0 forward_v I I I I #
loop $-1 $-1 $382 $98 #
coedge $-1 $250 $250 $251 $383 reversed $156 $-1 #
coedge $-1 $251 $251 $250 $383 forward $158 $-1 #
coedge $-1 $252 $252 $159 $253 forward $247 $-1 #
edge $-1 $384 -3.5012125054442799e-016 $384 6.2831853071796004 $252 $385 forward 7 unknown #
face $-1 $386 $387 $55 $-1 $388 forward single #
loop $-1 $-1 $389 $160 #
plane-surface $-1 17.827528284780783 55.904664393971338 142.83078732389154 -1 0 0 0 0.62932039886446345 0.77714595512881146 forward_v I I I I #
coedge $-1 $390 $391 $392 $393 reversed $161 $-1 #
coedge $-1 $259 $163 $394 $395 reversed $102 $-1 #
coedge $-1 $163 $258 $390 $396 reversed $102 $-1 #
coedge $-1 $392 $397 $163 $261 forward $387 $-1 #
edge $-1 $398 -8.8563642834113132 $399 1.7261889141938731 $260 $400 forward 7 unknown #
loop $-1 $-1 $267 $164 #
plane-surface $-1 11.141219502935272 -20.402762686212291 48.598964537509417 0 0.62932039886446345 0.77714595512881146 1 0 0 forward_v I I I I #
loop $-1 $-1 $401 $104 #
coedge $-1 $265 $265 $266 $402 reversed $165 $-1 #
coedge $-1 $266 $266 $265 $402 forward $167 $-1 #
coedge $-1 $267 $267 $168 $268 forward $262 $-1 #
edge $-1 $403 -3.5012125054442799e-016 $403 6.2831853071796004 $267 $404 forward 7 unknown #
loop $-1 $-1 $274 $169 #
plane-surface $-1 11.141219502935272 -20.402762686212291 48.598964537509417 0 0.62932039886446345 0.77714595512881146 1 0 0 forward_v I I I I #
loop $-1 $-1 $405 $107 #
coedge $-1 $272 $272 $273 $406 reversed $170 $-1 #
coedge $-1 $273 $273 $272 $406 forward $172 $-1 #
coedge $-1 $274 $274 $173 $275 forward $269 $-1 #
edge $-1 $407 -3.5012125054442799e-016 $407 6.2831853071796004 $274 $408 forward 7 unknown #
face $-1 $409 $410 $58 $-1 $411 forward single #
loop $-1 $-1 $412 $174 #
plane-surface $-1 48.140953377099265 55.904664393971338 142.83078732389154 -1 0 0 0 0.62932039886446345 0.77714595512881146 forward_v I I I I #
coedge $-1 $413 $414 $415 $416 reversed $175 $-1 #
coedge $-1 $281 $177 $417 $418 reversed $111 $-1 #
coedge $-1 $177 $280 $413 $419 reversed $111 $-1 #
coedge $-1 $415 $420 $177 $283 forward $410 $-1 #
edge $-1 $421 -8.8563642834113132 $422 1.7261889141938731 $282 $423 forward 7 unknown #
loop $-1 $-1 $289 $178 #
plane-surface $-1 41.454644595253754 -20.402762686212291 48.598964537509417 0 0.62932039886446345 0.77714595512881146 1 0 0 forward_v I I I I #
loop $-1 $-1 $424 $113 #
coedge $-1 $287 $287 $288 $425 reversed $179 $-1 #
coedge $-1 $288 $288 $287 $425 forward $181 $-1 #
coedge $-1 $289 $289 $182 $290 forward $284 $-1 #
edge $-1 $426 -3.5012125054442799e-016 $426 6.2831853071796004 $289 $427 forward 7 unknown #
loop $-1 $-1 $296 $183 #
plane-surface $-1 41.454644595253754 -20.402762686212291 48.598964537509417 0 0.62932039886446345 0.77714595512881146 1 0 0 forward_v I I I I #
loop $-1 $-1 $428 $116 #
coedge $-1 $294 $294 $295 $429 reversed $184 $-1 #
coedge $-1 $295 $295 $294 $429 forward $186 $-1 #
coedge $-1 $296 $296 $187 $297 forward $291 $-1 #
edge $-1 $430 -3.5012125054442799e-016 $430 6.2831853071796004 $296 $431 forward 7 unknown #
face $-1 $432 $433 $61 $-1 $434 reversed single #
loop $-1 $-1 $435 $188 #
plane-surface $-1 -30.372216606822601 -137.33257087686297 70.401543571571992 1 0 0 0 0.82903758062907751 -0.55919289150049634 forward_v I I I I #
coedge $-1 $436 $437 $438 $439 reversed $189 $-1 #
coedge $-1 $303 $191 $440 $441 reversed $120 $-1 #
coedge $-1 $191 $302 $436 $442 reversed $120 $-1 #
coedge $-1 $438 $443 $191 $305 forward $444 $-1 #
edge $-1 $445 31.857588958034505 $446 37.417079517622533 $304 $447 forward 7 unknown #
loop $-1 $-1 $311 $192 #
plane-surface $-1 -19.145508673068463 -36.808696480397003 2.5973362569428815 0 -0.82903758062907751 0.55919289150049634 1 0 0 forward_v I I I I #
loop $-1 $-1 $448 $122 #
coedge $-1 $309 $309 $310 $449 reversed $193 $-1 #
coedge $-1 $310 $310 $309 $449 forward $195 $-1 #
coedge $-1 $311 $311 $196 $312 forward $306 $-1 #
edge $-1 $450 -4.8626949893781552e-015 $450 6.283185307179596 $311 $451 forward 7 unknown #
loop $-1 $-1 $318 $197 #
plane-surface $-1 -19.145508673068463 -36.808696480397003 2.5973362569428815 0 -0.82903758062907751 0.55919289150049634 1 0 0 forward_v I I I I #
loop $-1 $-1 $452 $125 #
coedge $-1 $316 $316 $317 $453 reversed $198 $-1 #
coedge $-1 $317 $317 $316 $453 forward $200 $-1 #
coedge $-1 $318 $318 $201 $319 forward $313 $-1 #
edge $-1 $454 -4.8626949893781552e-015 $454 6.283185307179596 $318 $455 forward 7 unknown #
face $-1 $456 $457 $48 $-1 $458 reversed single #
loop $-1 $-1 $459 $202 #
plane-surface $-1 -60.626850184636979 0 0 1 0 0 0 0 -1 forward_v I I I I #
coedge $-1 $460 $331 $461 $462 forward $203 $-1 #
coedge $-1 $463 $205 $460 $464 forward $129 $-1 #
coedge $-1 $205 $463 $465 $466 forward $129 $-1 #
coedge $-1 $334 $333 $205 $327 reversed $335 $-1 #
edge $-1 $467 -36.808696480396982 $468 36.808696480396982 $326 $469 forward 7 unknown #
coedge $-1 $207 $206 $470 $471 forward $81 $-1 #
coedge $-1 $472 $473 $206 $330 reversed $457 $-1 #
edge $-1 $337 -60.626850184636979 $474 60.626850184636979 $329 $475 forward 7 unknown #
coedge $-1 $323 $476 $207 $332 reversed $203 $-1 #
edge $-1 $477 -60.626850184636979 $336 60.626850184636979 $331 $478 forward 7 unknown #
coedge $-1 $326 $208 $476 $479 forward $335 $-1 #
coedge $-1 $208 $326 $472 $480 reversed $335 $-1 #
loop $-1 $-1 $333 $456 #
vertex $-1 $209 $481 #
vertex $-1 $209 $482 #
straight-curve $-1 60.626850184636979 0 10.839620222111961 0 1 0 I I #
face $-1 $-1 $351 $49 $-1 $483 forward single #
loop $-1 $-1 $484 $210 #
plane-surface $-1 0 36.808696480396982 0 0 -1 0 0 0 -1 forward_v I I I I #
coedge $-1 $485 $486 $487 $488 reversed $211 $-1 #
coedge $-1 $489 $213 $215 $349 forward $133 $-1 #
coedge $-1 $213 $489 $485 $490 forward $133 $-1 #
coedge $-1 $487 $216 $213 $346 forward $351 $-1 #
edge $-1 $353 -31.429124122696361 $491 -18.056506559005339 $345 $492 forward 7 unknown #
coedge $-1 $493 $494 $214 $348 forward $340 $-1 #
edge $-1 $495 -69.145356225885166 $352 -60.57577343983381 $347 $496 forward 7 unknown #
edge $-1 $353 60.000191291319751 $495 73.617392960793978 $215 $497 forward 7 unknown #
coedge $-1 $216 $487 $493 $498 forward $351 $-1 #
loop $-1 $-1 $487 $339 #
vertex $-1 $348 $499 #
vertex $-1 $217 $500 #
straight-curve $-1 -56.171939463547211 27.952332196985669 10.839620222111961 0 -1 0 I I #
coedge $-1 $355 $355 $-1 $501 reversed $220 $-1 #
edge $-1 $502 0 $502 6.2831853071796004 $221 $503 forward 7 unknown #
vertex $-1 $224 $504 #
ellipse-curve $-1 -52.351191588206923 31.517419881594392 6.5548288290862891 0 0.62932039886446345 0.77714595512881146 1.5 0 0 1 I I #
coedge $-1 $359 $359 $-1 $505 reversed $227 $-1 #
edge $-1 $506 0 $506 6.2831853071796004 $228 $507 forward 7 unknown #
vertex $-1 $231 $508 #
ellipse-curve $-1 -46.620069775196484 31.517419881594392 6.5548288290862891 0 0.62932039886446345 0.77714595512881146 1.5 0 0 1 I I #
face $-1 $-1 $509 $52 $-1 $510 reversed single #
loop $-1 $-1 $238 $232 #
plane-surface $-1 0 0 10.839620222111961 0 0 1 1 0 0 forward_v I I I I #
coedge $-1 $511 $512 $513 $514 reversed $233 $-1 #
coedge $-1 $515 $235 $237 $373 forward $147 $-1 #
coedge $-1 $235 $515 $511 $516 forward $147 $-1 #
coedge $-1 $513 $238 $235 $370 forward $364 $-1 #
edge $-1 $376 -16.272411576537117 $517 -2.8997940128460922 $369 $518 forward 7 unknown #
coedge $-1 $519 $520 $236 $372 forward $509 $-1 #
edge $-1 $521 -69.145356225885166 $375 -60.57577343983381 $371 $522 forward 7 unknown #
edge $-1 $376 60.000191291319751 $521 73.617392960793978 $237 $523 forward 7 unknown #
coedge $-1 $238 $513 $519 $524 forward $364 $-1 #
vertex $-1 $239 $525 #
vertex $-1 $239 $526 #
straight-curve $-1 -25.858514371228722 27.952332196985669 10.839620222111961 0 -1 0 I I #
coedge $-1 $378 $378 $-1 $527 reversed $242 $-1 #
edge $-1 $528 0 $528 6.2831853071796004 $243 $529 forward 7 unknown #
vertex $-1 $246 $530 #
ellipse-curve $-1 -22.037766495888434 31.517419881594392 6.5548288290862891 0 0.62932039886446345 0.77714595512881146 1.5 0 0 1 I I #
coedge $-1 $382 $382 $-1 $531 reversed $249 $-1 #
edge $-1 $532 0 $532 6.2831853071796004 $250 $533 forward 7 unknown #
vertex $-1 $253 $534 #
ellipse-curve $-1 -16.306644682877995 31.517419881594392 6.5548288290862891 0 0.62932039886446345 0.77714595512881146 1.5 0 0 1 I I #
face $-1 $-1 $535 $55 $-1 $536 reversed single #
loop $-1 $-1 $260 $254 #
plane-surface $-1 0 0 10.839620222111961 0 0 1 1 0 0 forward_v I I I I #
coedge $-1 $537 $538 $539 $540 reversed $255 $-1 #
coedge $-1 $541 $257 $259 $396 forward $161 $-1 #
coedge $-1 $257 $541 $537 $542 forward $161 $-1 #
coedge $-1 $539 $260 $257 $393 forward $387 $-1 #
edge $-1 $399 -1.1156990303778773 $543 12.256918533313147 $392 $544 forward 7 unknown #
coedge $-1 $545 $546 $258 $395 forward $535 $-1 #
edge $-1 $547 -69.145356225885166 $398 -60.57577343983381 $394 $548 forward 7 unknown #
edge $-1 $399 60.000191291319751 $547 73.617392960793978 $259 $549 forward 7 unknown #
coedge $-1 $260 $539 $545 $550 forward $387 $-1 #
vertex $-1 $261 $551 #
vertex $-1 $261 $552 #
straight-curve $-1 4.4549107210897585 27.952332196985669 10.839620222111961 0 -1 0 I I #
coedge $-1 $401 $401 $-1 $553 reversed $264 $-1 #
edge $-1 $554 0 $554 6.2831853071796004 $265 $555 forward 7 unknown #
vertex $-1 $268 $556 #
ellipse-curve $-1 8.2756585964300626 31.517419881594392 6.5548288290862891 0 0.62932039886446345 0.77714595512881146 1.5 0 0 1 I I #
coedge $-1 $405 $405 $-1 $557 reversed $271 $-1 #
edge $-1 $558 0 $558 6.2831853071796004 $272 $559 forward 7 unknown #
vertex $-1 $275 $560 #
ellipse-curve $-1 14.006780409440495 31.517419881594392 6.5548288290862891 0 0.62932039886446345 0.77714595512881146 1.5 0 0 1 I I #
face $-1 $-1 $561 $58 $-1 $562 reversed single #
loop $-1 $-1 $282 $276 #
plane-surface $-1 0 0 10.839620222111961 0 0 1 1 0 0 forward_v I I I I #
coedge $-1 $563 $564 $565 $566 reversed $277 $-1 #
coedge $-1 $567 $279 $281 $419 forward $175 $-1 #
coedge $-1 $279 $567 $563 $568 forward $175 $-1 #
coedge $-1 $565 $282 $279 $416 forward $410 $-1 #
edge $-1 $422 14.041013515781366 $569 27.413631079472388 $415 $570 forward 7 unknown #
coedge $-1 $571 $572 $280 $418 forward $561 $-1 #
edge $-1 $573 -69.145356225885166 $421 -60.57577343983381 $417 $574 forward 7 unknown #
edge $-1 $422 60.000191291319751 $573 73.617392960793978 $281 $575 forward 7 unknown #
coedge $-1 $282 $565 $571 $576 forward $410 $-1 #
vertex $-1 $283 $577 #
vertex $-1 $283 $578 #
straight-curve $-1 34.768335813408243 27.952332196985669 10.839620222111961 0 -1 0 I I #
coedge $-1 $424 $424 $-1 $579 reversed $286 $-1 #
edge $-1 $580 0 $580 6.2831853071796004 $287 $581 forward 7 unknown #
vertex $-1 $290 $582 #
ellipse-curve $-1 38.589083688748545 31.517419881594392 6.5548288290862891 0 0.62932039886446345 0.77714595512881146 1.5 0 0 1 I I #
coedge $-1 $428 $428 $-1 $583 reversed $293 $-1 #
edge $-1 $584 0 $584 6.2831853071796004 $294 $585 forward 7 unknown #
vertex $-1 $297 $586 #
ellipse-curve $-1 44.320205501758991 31.517419881594392 6.5548288290862891 0 0.62932039886446345 0.77714595512881146 1.5 0 0 1 I I #
face $-1 $-1 $444 $61 $-1 $587 forward single #
loop $-1 $-1 $588 $298 #
plane-surface $-1 0 -36.808696480396982 0 0 1 0 0 0 1 forward_v I I I I #
coedge $-1 $589 $590 $591 $592 reversed $299 $-1 #
coedge $-1 $593 $301 $303 $442 forward $189 $-1 #
coedge $-1 $301 $593 $589 $594 forward $189 $-1 #
coedge $-1 $591 $304 $301 $439 forward $444 $-1 #
edge $-1 $446 -1.6539535972199069 $595 20.79946227028837 $438 $596 forward 7 unknown #
coedge $-1 $597 $598 $302 $441 forward $433 $-1 #
edge $-1 $599 -32.603435528843086 $445 -24.361151563674035 $440 $600 forward 7 unknown #
edge $-1 $446 -9.9419907586273659 $599 -3.8059745140678707e-014 $303 $601 forward 7 unknown #
coedge $-1 $304 $591 $597 $602 forward $444 $-1 #
loop $-1 $-1 $591 $432 #
vertex $-1 $441 $603 #
vertex $-1 $305 $604 #
straight-curve $-1 -7.9188007393143245 -68.666285438431487 10.839620222111961 0 1 0 I I #
coedge $-1 $448 $448 $-1 $605 reversed $308 $-1 #
edge $-1 $606 0 $606 6.2831853071796004 $309 $607 forward 7 unknown #
vertex $-1 $312 $608 #
ellipse-curve $-1 -23.95695493039166 -34.028951200602968 6.7184782395274318 0 -0.82903758062907751 0.55919289150049634 1 0 0 1 I I #
coedge $-1 $452 $452 $-1 $609 reversed $315 $-1 #
edge $-1 $610 0 $610 6.2831853071796004 $316 $611 forward 7 unknown #
vertex $-1 $319 $612 #
ellipse-curve $-1 -14.334062415745258 -34.028951200602968 6.7184782395274318 0 -0.82903758062907751 0.55919289150049634 1 0 0 1 I I #
face $-1 $-1 $335 $48 $-1 $613 reversed single #
loop $-1 $-1 $472 $320 #
plane-surface $-1 0 36.808696480396982 0 0 -1 0 0 0 -1 forward_v I I I I #
coedge $-1 $614 $470 $473 $615 forward $321 $-1 #
coedge $-1 $476 $323 $324 $464 reversed $203 $-1 #
coedge $-1 $470 $614 $323 $462 reversed $321 $-1 #
edge $-1 $477 -10.839620222111961 $616 10.839620222111961 $461 $617 forward 7 unknown #
coedge $-1 $325 $324 $614 $618 forward $129 $-1 #
edge $-1 $468 -60.626850184636979 $616 60.626850184636979 $460 $619 forward 7 unknown #
coedge $-1 $473 $472 $325 $466 reversed $457 $-1 #
edge $-1 $620 -60.626850184636979 $467 60.626850184636979 $465 $621 forward 7 unknown #
vertex $-1 $327 $622 #
vertex $-1 $479 $623 #
straight-curve $-1 60.626850184636979 0 -10.839620222111961 0 -1 0 I I #
coedge $-1 $459 $461 $328 $471 reversed $321 $-1 #
edge $-1 $474 -36.808696480396982 $477 36.808696480396982 $470 $624 forward 7 unknown #
coedge $-1 $465 $329 $334 $480 forward $457 $-1 #
coedge $-1 $329 $465 $459 $615 reversed $457 $-1 #
vertex $-1 $330 $625 #
straight-curve $-1 0 36.808696480396982 10.839620222111961 -1 0 0 I I #
coedge $-1 $331 $460 $333 $479 reversed $203 $-1 #
vertex $-1 $471 $626 #
straight-curve $-1 0 -36.808696480396982 10.839620222111961 1 0 0 I I #
edge $-1 $336 -10.839620222111961 $468 10.839620222111961 $333 $627 forward 7 unknown #
edge $-1 $337 -10.839620222111961 $467 10.839620222111961 $334 $628 forward 7 unknown #
point $-1 60.626850184636979 -36.808696480396982 10.839620222111961 #
point $-1 60.626850184636979 36.808696480396982 10.839620222111961 #
plane-surface $-1 0 0 10.839620222111961 0 0 1 1 0 0 forward_v I I I I #
coedge $-1 $494 $493 $486 $629 forward $340 $-1 #
coedge $-1 $486 $342 $344 $490 reversed $211 $-1 #
coedge $-1 $342 $485 $484 $629 reversed $211 $-1 #
coedge $-1 $350 $345 $342 $488 forward $351 $-1 #
edge $-1 $491 -1.7261889141938731 $630 8.8563642834113132 $487 $631 forward 7 unknown #
coedge $-1 $344 $343 $494 $632 reversed $133 $-1 #
edge $-1 $633 -73.617392960793978 $491 -60.000191291319751 $485 $634 forward 7 unknown #
vertex $-1 $346 $635 #
straight-curve $-1 -24.74281534085085 26.226143282791803 10.839620222111961 1 0 0 I I #
coedge $-1 $484 $347 $350 $498 reversed $340 $-1 #
coedge $-1 $347 $484 $489 $632 forward $340 $-1 #
vertex $-1 $348 $636 #
straight-curve $-1 -56.171939463547211 36.808696480396982 71.415393661945771 0 0 1 I I #
straight-curve $-1 -56.171939463547211 -20.402762686212291 48.598964537509417 0 0.77714595512881146 -0.62932039886446345 I I #
edge $-1 $630 42.799321899856189 $352 56.171939463547211 $493 $637 forward 7 unknown #
point $-1 -56.171939463547211 36.808696480396982 10.839620222111961 #
point $-1 -56.171939463547211 26.226143282791796 10.839620222111961 #
edge $-1 $638 1 $638 0 $355 $-1 forward 7 unknown #
vertex $-1 $356 $639 #
ellipse-curve $-1 -52.351191588206923 30.151936547811413 4.8685973775712519 0 0.62932039886446345 0.77714595512881146 1.5 0 0 1 I I #
point $-1 -50.851191588206923 31.517419881594389 6.5548288290862855 #
edge $-1 $640 1 $640 0 $359 $-1 forward 7 unknown #
vertex $-1 $360 $641 #
ellipse-curve $-1 -46.620069775196484 30.151936547811413 4.8685973775712519 0 0.62932039886446345 0.77714595512881146 1.5 0 0 1 I I #
point $-1 -45.120069775196484 31.517419881594389 6.5548288290862855 #
loop $-1 $-1 $371 $363 #
plane-surface $-1 0 36.808696480396982 0 0 -1 0 0 0 -1 forward_v I I I I #
coedge $-1 $512 $366 $368 $516 reversed $233 $-1 #
coedge $-1 $366 $511 $642 $643 reversed $233 $-1 #
coedge $-1 $374 $369 $366 $514 forward $364 $-1 #
edge $-1 $517 -1.7261889141938731 $644 8.8563642834113132 $513 $645 forward 7 unknown #
coedge $-1 $368 $367 $520 $646 reversed $147 $-1 #
edge $-1 $647 -73.617392960793978 $517 -60.000191291319751 $511 $648 forward 7 unknown #
vertex $-1 $370 $649 #
straight-curve $-1 -9.5861027946916053 26.226143282791803 10.839620222111961 1 0 0 I I #
coedge $-1 $642 $371 $374 $524 reversed $509 $-1 #
coedge $-1 $371 $642 $515 $646 forward $509 $-1 #
vertex $-1 $372 $650 #
straight-curve $-1 -25.858514371228722 36.808696480396982 71.415393661945771 0 0 1 I I #
straight-curve $-1 -25.858514371228722 -20.402762686212291 48.598964537509417 0 0.77714595512881146 -0.62932039886446345 I I #
edge $-1 $644 12.485896807537697 $375 25.858514371228722 $519 $651 forward 7 unknown #
point $-1 -25.858514371228722 36.808696480396982 10.839620222111961 #
point $-1 -25.858514371228722 26.226143282791796 10.839620222111961 #
edge $-1 $652 1 $652 0 $378 $-1 forward 7 unknown #
vertex $-1 $379 $653 #
ellipse-curve $-1 -22.037766495888434 30.151936547811413 4.8685973775712519 0 0.62932039886446345 0.77714595512881146 1.5 0 0 1 I I #
point $-1 -20.537766495888434 31.517419881594389 6.5548288290862855 #
edge $-1 $654 1 $654 0 $382 $-1 forward 7 unknown #
vertex $-1 $383 $655 #
ellipse-curve $-1 -16.306644682877995 30.151936547811413 4.8685973775712519 0 0.62932039886446345 0.77714595512881146 1.5 0 0 1 I I #
point $-1 -14.806644682877995 31.517419881594389 6.5548288290862855 #
loop $-1 $-1 $394 $386 #
plane-surface $-1 0 36.808696480396982 0 0 -1 0 0 0 -1 forward_v I I I I #
coedge $-1 $538 $389 $391 $542 reversed $255 $-1 #
coedge $-1 $389 $537 $656 $657 reversed $255 $-1 #
coedge $-1 $397 $392 $389 $540 forward $387 $-1 #
edge $-1 $543 -1.7261889141938731 $658 8.8563642834113132 $539 $659 forward 7 unknown #
coedge $-1 $391 $390 $546 $660 reversed $161 $-1 #
edge $-1 $661 -73.617392960793978 $543 -60.000191291319751 $537 $662 forward 7 unknown #
vertex $-1 $393 $663 #
straight-curve $-1 5.5706097514676358 26.226143282791803 10.839620222111961 1 0 0 I I #
coedge $-1 $656 $394 $397 $550 reversed $535 $-1 #
coedge $-1 $394 $656 $541 $660 forward $535 $-1 #
vertex $-1 $395 $664 #
straight-curve $-1 4.4549107210897585 36.808696480396982 71.415393661945771 0 0 1 I I #
straight-curve $-1 4.4549107210897585 -20.402762686212291 48.598964537509417 0 0.77714595512881146 -0.62932039886446345 I I #
edge $-1 $658 -17.827528284780783 $398 -4.4549107210897585 $545 $665 forward 7 unknown #
point $-1 4.4549107210897585 36.808696480396982 10.839620222111961 #
point $-1 4.4549107210897585 26.226143282791796 10.839620222111961 #
edge $-1 $666 1 $666 0 $401 $-1 forward 7 unknown #
vertex $-1 $402 $667 #
ellipse-curve $-1 8.2756585964300626 30.151936547811413 4.8685973775712519 0 0.62932039886446345 0.77714595512881146 1.5 0 0 1 I I #
point $-1 9.7756585964300626 31.517419881594389 6.5548288290862855 #
edge $-1 $668 1 $668 0 $405 $-1 forward 7 unknown #
vertex $-1 $406 $669 #
ellipse-curve $-1 14.006780409440495 30.151936547811413 4.8685973775712519 0 0.62932039886446345 0.77714595512881146 1.5 0 0 1 I I #
point $-1 15.506780409440495 31.517419881594389 6.5548288290862855 #
loop $-1 $-1 $417 $409 #
plane-surface $-1 0 36.808696480396982 0 0 -1 0 0 0 -1 forward_v I I I I #
coedge $-1 $564 $412 $414 $568 reversed $277 $-1 #
coedge $-1 $412 $563 $670 $671 reversed $277 $-1 #
coedge $-1 $420 $415 $412 $566 forward $410 $-1 #
edge $-1 $569 -1.7261889141938731 $672 8.8563642834113132 $565 $673 forward 7 unknown #
coedge $-1 $414 $413 $572 $674 reversed $175 $-1 #
edge $-1 $675 -73.617392960793978 $569 -60.000191291319751 $563 $676 forward 7 unknown #
vertex $-1 $416 $677 #
straight-curve $-1 20.727322297626877 26.226143282791803 10.839620222111961 1 0 0 I I #
coedge $-1 $670 $417 $420 $576 reversed $561 $-1 #
coedge $-1 $417 $670 $567 $674 forward $561 $-1 #
vertex $-1 $418 $678 #
straight-curve $-1 34.768335813408243 36.808696480396982 71.415393661945771 0 0 1 I I #
straight-curve $-1 34.768335813408243 -20.402762686212291 48.598964537509417 0 0.77714595512881146 -0.62932039886446345 I I #
edge $-1 $672 -48.140953377099265 $421 -34.768335813408243 $571 $679 forward 7 unknown #
point $-1 34.768335813408243 36.808696480396982 10.839620222111961 #
point $-1 34.768335813408243 26.226143282791796 10.839620222111961 #
edge $-1 $680 1 $680 0 $424 $-1 forward 7 unknown #
vertex $-1 $425 $681 #
ellipse-curve $-1 38.589083688748545 30.151936547811413 4.8685973775712519 0 0.62932039886446345 0.77714595512881146 1.5 0 0 1 I I #
point $-1 40.089083688748545 31.517419881594389 6.5548288290862855 #
edge $-1 $682 1 $682 0 $428 $-1 forward 7 unknown #
vertex $-1 $429 $683 #
ellipse-curve $-1 44.320205501758991 30.151936547811413 4.8685973775712519 0 0.62932039886446345 0.77714595512881146 1.5 0 0 1 I I #
point $-1 45.820205501758991 31.517419881594389 6.5548288290862855 #
plane-surface $-1 0 0 10.839620222111961 0 0 1 1 0 0 forward_v I I I I #
coedge $-1 $598 $597 $590 $684 forward $433 $-1 #
coedge $-1 $590 $435 $437 $594 reversed $299 $-1 #
coedge $-1 $435 $589 $588 $684 reversed $299 $-1 #
coedge $-1 $443 $438 $435 $592 forward $444 $-1 #
edge $-1 $595 -37.417079517622533 $685 -31.857588958034505 $591 $686 forward 7 unknown #
coedge $-1 $437 $436 $598 $687 reversed $189 $-1 #
edge $-1 $688 3.8059745140678707e-014 $595 9.9419907586273659 $589 $689 forward 7 unknown #
vertex $-1 $439 $690 #
straight-curve $-1 -9.5727543365342314 -31.249205920808954 10.839620222111961 -1 0 0 I I #
coedge $-1 $588 $440 $443 $602 reversed $433 $-1 #
coedge $-1 $440 $588 $593 $687 forward $433 $-1 #
vertex $-1 $441 $691 #
straight-curve $-1 -7.9188007393143245 -36.808696480396982 35.200771785785996 0 0 1 I I #
straight-curve $-1 -7.9188007393143245 -36.808696480397003 2.5973362569428815 0 -0.55919289150049634 -0.82903758062907751 I I #
edge $-1 $685 -30.372216606822601 $445 -7.9188007393143245 $597 $692 forward 7 unknown #
point $-1 -7.9188007393143245 -36.808696480396982 10.839620222111961 #
point $-1 -7.9188007393143245 -31.249205920808954 10.839620222111961 #
edge $-1 $693 1 $693 0 $448 $-1 forward 7 unknown #
vertex $-1 $449 $694 #
ellipse-curve $-1 -23.95695493039166 -32.644455657843359 5.7846242334908995 0 -0.82903758062907751 0.55919289150049634 1 0 0 1 I I #
point $-1 -22.95695493039166 -34.028951200602961 6.7184782395274212 #
edge $-1 $695 1 $695 0 $452 $-1 forward 7 unknown #
vertex $-1 $453 $696 #
ellipse-curve $-1 -14.334062415745258 -32.644455657843359 5.7846242334908995 0 -0.82903758062907751 0.55919289150049634 1 0 0 1 I I #
point $-1 -13.334062415745258 -34.028951200602961 6.7184782395274212 #
plane-surface $-1 60.626850184636979 0 0 -1 0 0 0 0 1 forward_v I I I I #
coedge $-1 $461 $459 $463 $618 reversed $321 $-1 #
edge $-1 $474 -10.839620222111961 $620 10.839620222111961 $473 $697 forward 7 unknown #
vertex $-1 $618 $698 #
straight-curve $-1 -60.626850184636979 -36.808696480396982 0 0 0 -1 I I #
edge $-1 $616 -36.808696480396982 $620 36.808696480396982 $614 $699 forward 7 unknown #
straight-curve $-1 0 -36.808696480396982 -10.839620222111961 -1 0 0 I I #
vertex $-1 $466 $700 #
straight-curve $-1 0 36.808696480396982 -10.839620222111961 1 0 0 I I #
point $-1 60.626850184636979 36.808696480396982 -10.839620222111961 #
point $-1 60.626850184636979 -36.808696480396982 -10.839620222111961 #
straight-curve $-1 -60.626850184636979 0 10.839620222111961 0 -1 0 I I #
point $-1 -60.626850184636979 36.808696480396982 10.839620222111961 #
point $-1 -60.626850184636979 -36.808696480396982 10.839620222111961 #
straight-curve $-1 60.626850184636979 -36.808696480396982 0 0 0 -1 I I #
straight-curve $-1 60.626850184636979 36.808696480396982 0 0 0 -1 I I #
edge $-1 $630 60.57577343983381 $633 69.145356225885166 $484 $701 forward 7 unknown #
vertex $-1 $498 $702 #
straight-curve $-1 -42.799321899856189 27.952332196985669 10.839620222111961 0 1 0 I I #
edge $-1 $633 18.056506559005339 $495 31.429124122696361 $494 $703 forward 7 unknown #
vertex $-1 $632 $704 #
straight-curve $-1 -42.799321899856189 -20.402762686212291 48.598964537509417 0 -0.77714595512881146 0.62932039886446345 I I #
point $-1 -42.799321899856189 26.226143282791796 10.839620222111961 #
point $-1 -56.171939463547211 36.808696480396989 2.2700374360606048 #
straight-curve $-1 0 36.808696480396982 10.839620222111961 -1 0 0 I I #
vertex $-1 $501 $705 #
point $-1 -50.851191588206923 30.151936547811413 4.8685973775712519 #
vertex $-1 $505 $706 #
point $-1 -45.120069775196484 30.151936547811413 4.8685973775712519 #
coedge $-1 $520 $519 $512 $643 forward $509 $-1 #
edge $-1 $644 60.57577343983381 $647 69.145356225885166 $642 $707 forward 7 unknown #
vertex $-1 $524 $708 #
straight-curve $-1 -12.485896807537697 27.952332196985669 10.839620222111961 0 1 0 I I #
edge $-1 $647 2.8997940128460922 $521 16.272411576537117 $520 $709 forward 7 unknown #
vertex $-1 $646 $710 #
straight-curve $-1 -12.485896807537697 -20.402762686212291 48.598964537509417 0 -0.77714595512881146 0.62932039886446345 I I #
point $-1 -12.485896807537697 26.226143282791796 10.839620222111961 #
point $-1 -25.858514371228722 36.808696480396989 2.2700374360606048 #
straight-curve $-1 0 36.808696480396982 10.839620222111961 -1 0 0 I I #
vertex $-1 $527 $711 #
point $-1 -20.537766495888434 30.151936547811413 4.8685973775712519 #
vertex $-1 $531 $712 #
point $-1 -14.806644682877995 30.151936547811413 4.8685973775712519 #
coedge $-1 $546 $545 $538 $657 forward $535 $-1 #
edge $-1 $658 60.57577343983381 $661 69.145356225885166 $656 $713 forward 7 unknown #
vertex $-1 $550 $714 #
straight-curve $-1 17.827528284780783 27.952332196985669 10.839620222111961 0 1 0 I I #
edge $-1 $661 -12.256918533313147 $547 1.1156990303778773 $546 $715 forward 7 unknown #
vertex $-1 $660 $716 #
straight-curve $-1 17.827528284780783 -20.402762686212291 48.598964537509417 0 -0.77714595512881146 0.62932039886446345 I I #
point $-1 17.827528284780783 26.226143282791796 10.839620222111961 #
point $-1 4.4549107210897585 36.808696480396989 2.2700374360606048 #
straight-curve $-1 0 36.808696480396982 10.839620222111961 -1 0 0 I I #
vertex $-1 $553 $717 #
point $-1 9.7756585964300626 30.151936547811413 4.8685973775712519 #
vertex $-1 $557 $718 #
point $-1 15.506780409440495 30.151936547811413 4.8685973775712519 #
coedge $-1 $572 $571 $564 $671 forward $561 $-1 #
edge $-1 $672 60.57577343983381 $675 69.145356225885166 $670 $719 forward 7 unknown #
vertex $-1 $576 $720 #
straight-curve $-1 48.140953377099265 27.952332196985669 10.839620222111961 0 1 0 I I #
edge $-1 $675 -27.413631079472388 $573 -14.041013515781366 $572 $721 forward 7 unknown #
vertex $-1 $674 $722 #
straight-curve $-1 48.140953377099265 -20.402762686212291 48.598964537509417 0 -0.77714595512881146 0.62932039886446345 I I #
point $-1 48.140953377099265 26.226143282791796 10.839620222111961 #
point $-1 34.768335813408243 36.808696480396989 2.2700374360606048 #
straight-curve $-1 0 36.808696480396982 10.839620222111961 -1 0 0 I I #
vertex $-1 $579 $723 #
point $-1 40.089083688748545 30.151936547811413 4.8685973775712519 #
vertex $-1 $583 $724 #
point $-1 45.820205501758991 30.151936547811413 4.8685973775712519 #
edge $-1 $685 24.361151563674035 $688 32.603435528843086 $588 $725 forward 7 unknown #
vertex $-1 $602 $726 #
straight-curve $-1 -30.372216606822601 -68.666285438431487 10.839620222111961 0 -1 0 I I #
edge $-1 $688 -20.79946227028837 $599 1.6539535972199069 $598 $727 forward 7 unknown #
vertex $-1 $687 $728 #
straight-curve $-1 -30.372216606822601 -36.808696480397003 2.5973362569428815 0 0.55919289150049634 0.82903758062907751 I I #
point $-1 -30.372216606822601 -31.249205920808954 10.839620222111961 #
point $-1 -7.9188007393143245 -36.808696480396982 2.597336256942913 #
straight-curve $-1 0 -36.808696480396982 10.839620222111961 1 0 0 I I #
vertex $-1 $605 $729 #
point $-1 -22.95695493039166 -32.644455657843359 5.7846242334908995 #
vertex $-1 $609 $730 #
point $-1 -13.334062415745258 -32.644455657843359 5.7846242334908995 #
straight-curve $-1 -60.626850184636979 36.808696480396982 0 0 0 -1 I I #
point $-1 -60.626850184636979 -36.808696480396982 -10.839620222111961 #
straight-curve $-1 -60.626850184636979 0 -10.839620222111961 0 1 0 I I #
point $-1 -60.626850184636979 36.808696480396982 -10.839620222111961 #
straight-curve $-1 -42.799321899856189 36.808696480396982 71.415393661945771 0 0 -1 I I #
point $-1 -42.799321899856189 36.808696480396982 10.839620222111961 #
straight-curve $-1 -24.74281534085085 36.808696480396982 2.2700374360606084 -1 0 0 I I #
point $-1 -42.799321899856189 36.808696480396989 2.2700374360606048 #
point $-1 -52.351191588206923 29.207955949514716 3.702878444878035 #
point $-1 -46.620069775196484 29.207955949514716 3.702878444878035 #
straight-curve $-1 -12.485896807537697 36.808696480396982 71.415393661945771 0 0 -1 I I #
point $-1 -12.485896807537697 36.808696480396982 10.839620222111961 #
straight-curve $-1 -9.5861027946916053 36.808696480396982 2.2700374360606084 -1 0 0 I I #
point $-1 -12.485896807537697 36.808696480396989 2.2700374360606048 #
point $-1 -22.037766495888434 29.207955949514716 3.702878444878035 #
point $-1 -16.306644682877995 29.207955949514716 3.702878444878035 #
straight-curve $-1 17.827528284780783 36.808696480396982 71.415393661945771 0 0 -1 I I #
point $-1 17.827528284780783 36.808696480396982 10.839620222111961 #
straight-curve $-1 5.5706097514676358 36.808696480396982 2.2700374360606084 -1 0 0 I I #
point $-1 17.827528284780783 36.808696480396989 2.2700374360606048 #
point $-1 8.2756585964300626 29.207955949514716 3.702878444878035 #
point $-1 14.006780409440495 29.207955949514716 3.702878444878035 #
straight-curve $-1 48.140953377099265 36.808696480396982 71.415393661945771 0 0 -1 I I #
point $-1 48.140953377099265 36.808696480396982 10.839620222111961 #
straight-curve $-1 20.727322297626877 36.808696480396982 2.2700374360606084 -1 0 0 I I #
point $-1 48.140953377099265 36.808696480396989 2.2700374360606048 #
point $-1 38.589083688748545 29.207955949514716 3.702878444878035 #
point $-1 44.320205501758991 29.207955949514716 3.702878444878035 #
straight-curve $-1 -30.372216606822601 -36.808696480396982 35.200771785785996 0 0 -1 I I #
point $-1 -30.372216606822601 -36.808696480396982 10.839620222111961 #
straight-curve $-1 -9.5727543365342314 -36.808696480396982 2.5973362569429046 1 0 0 I I #
point $-1 -30.372216606822601 -36.808696480396982 2.597336256942913 #
point $-1 -23.95695493039166 -31.815418077214282 5.2254313419904035 #
point $-1 -14.334062415745258 -31.815418077214282 5.2254313419904035 #
End-of-ACIS-data 