500 0 11 0           
7 Unknown 11 ACIS 5.0 NT 24 Fri Mar 26 03:16:39 1999 
-1 9.9999999999999995e-007 1e-010 
body $-1 $11 $-1 $12 #
body $-1 $13 $-1 $14 #
body $-1 $15 $-1 $16 #
body $-1 $17 $-1 $18 #
body $-1 $19 $-1 $20 #
body $-1 $21 $-1 $22 #
body $-1 $23 $-1 $24 #
body $-1 $25 $-1 $26 #
body $-1 $27 $-1 $28 #
body $-1 $29 $-1 $30 #
body $-1 $31 $-1 $32 #
lump $-1 $-1 $33 $0 #
transform $-1 1 0 0 0 1 0 0 0 1 45.741142002624592 27.911770565327252 10.688196966197307 1 rotate no_reflect no_shear #
lump $-1 $-1 $34 $1 #
transform $-1 1 0 0 0 1 0 0 0 1 45.741142002624592 27.911770565327252 10.688196966197307 1 rotate no_reflect no_shear #
lump $-1 $-1 $35 $2 #
transform $-1 1 0 0 0 1 0 0 0 1 45.741142002624592 27.911770565327252 10.688196966197307 1 rotate no_reflect no_shear #
lump $-1 $-1 $36 $3 #
transform $-1 1 0 0 0 1 0 0 0 1 45.741142002624592 27.911770565327252 10.688196966197307 1 rotate no_reflect no_shear #
lump $-1 $-1 $37 $4 #
transform $-1 1 0 0 0 1 0 0 0 1 45.741142002624592 27.911770565327252 10.688196966197307 1 rotate no_reflect no_shear #
lump $-1 $-1 $38 $5 #
transform $-1 1 0 0 0 1 0 0 0 1 45.741142002624592 27.911770565327252 10.688196966197307 1 rotate no_reflect no_shear #
lump $-1 $-1 $39 $6 #
transform $-1 1 0 0 0 1 0 0 0 1 45.741142002624592 27.911770565327252 10.688196966197307 1 rotate no_reflect no_shear #
lump $-1 $-1 $40 $7 #
transform $-1 1 0 0 0 1 0 0 0 1 45.741142002624592 27.911770565327252 10.688196966197307 1 rotate no_reflect no_shear #
lump $-1 $-1 $41 $8 #
transform $-1 1 0 0 0 1 0 0 0 1 45.741142002624592 27.911770565327252 10.688196966197307 1 rotate no_reflect no_shear #
lump $-1 $-1 $42 $9 #
transform $-1 1 0 0 0 1 0 0 0 1 45.741142002624592 27.911770565327252 10.688196966197307 1 rotate no_reflect no_shear #
lump $-1 $-1 $43 $10 #
transform $-1 1 0 0 0 1 0 0 0 1 45.741142002624592 27.911770565327252 10.688196966197307 1 rotate no_reflect no_shear #
shell $-1 $-1 $-1 $44 $-1 $11 #
shell $-1 $-1 $-1 $45 $-1 $13 #
shell $-1 $-1 $-1 $46 $-1 $15 #
shell $-1 $-1 $-1 $47 $-1 $17 #
shell $-1 $-1 $-1 $48 $-1 $19 #
shell $-1 $-1 $-1 $49 $-1 $21 #
shell $-1 $-1 $-1 $50 $-1 $23 #
shell $-1 $-1 $-1 $51 $-1 $25 #
shell $-1 $-1 $-1 $52 $-1 $27 #
shell $-1 $-1 $-1 $53 $-1 $29 #
shell $-1 $-1 $-1 $54 $-1 $31 #
face $-1 $55 $56 $33 $-1 $57 forward single #
face $-1 $58 $59 $34 $-1 $60 forward single #
face $-1 $61 $62 $35 $-1 $63 reversed single #
face $-1 $64 $65 $36 $-1 $66 reversed single #
face $-1 $67 $68 $37 $-1 $69 forward single #
face $-1 $70 $71 $38 $-1 $72 reversed single #
face $-1 $73 $74 $39 $-1 $75 forward single #
face $-1 $76 $77 $40 $-1 $78 reversed single #
face $-1 $79 $80 $41 $-1 $81 forward single #
face $-1 $82 $83 $42 $-1 $84 reversed single #
face $-1 $85 $86 $43 $-1 $87 forward single #
face $-1 $88 $89 $33 $-1 $90 reversed single #
loop $-1 $-1 $91 $44 #
plane-surface $-1 0 0 10.688196966197307 0 0 1 1 0 0 forward_v I I I I #
face $-1 $92 $93 $34 $-1 $94 reversed single #
loop $-1 $-1 $95 $45 #
plane-surface $-1 0 -27.911770565327252 0 0 1 0 0 0 1 forward_v I I I I #
face $-1 $96 $97 $35 $-1 $98 reversed single #
loop $-1 $-1 $99 $46 #
plane-surface $-1 0 21.847866851073874 4.5413175891044473 0 0 1 1 0 0 forward_v I I I I #
face $-1 $100 $101 $36 $-1 $102 reversed single #
loop $-1 $-1 $103 $47 #
plane-surface $-1 70.427150490793622 -8.741528094502975 133.92249384222217 0 -1 0 -0.82903758062907751 0 -0.55919289150049634 forward_v I I I I #
face $-1 $104 $105 $37 $-1 $106 forward single #
loop $-1 $107 $108 $48 #
cone-surface $-1 43.131305112949939 -12.677359689984582 7.9020239451828029 -0.82903758062907751 0 -0.55919289150049634 0.55919289150049634 0 -0.82903758062907751 1 I I 0 1 1 forward I I I I #
face $-1 $109 $110 $38 $-1 $111 reversed single #
loop $-1 $-1 $112 $49 #
plane-surface $-1 70.427150490793622 13.492004220842855 133.92249384222217 0 -1 0 -0.82903758062907751 0 -0.55919289150049634 forward_v I I I I #
face $-1 $113 $114 $39 $-1 $115 forward single #
loop $-1 $116 $117 $50 #
cone-surface $-1 43.131305112949939 9.5561726253612491 7.9020239451828029 -0.82903758062907751 0 -0.55919289150049634 0.55919289150049634 0 -0.82903758062907751 1 I I 0 1 1 forward I I I I #
face $-1 $118 $119 $40 $-1 $120 reversed single #
loop $-1 $-1 $121 $51 #
plane-surface $-1 -121.58339340475851 -16.613191285466186 58.080242440088199 0 1 0 -0.82903758062907751 0 0.55919289150049634 forward_v I I I I #
face $-1 $122 $123 $41 $-1 $124 forward single #
loop $-1 $125 $126 $52 #
cone-surface $-1 -43.131305112949939 -12.677359689984582 7.9020239451827923 0.82903758062907751 0 -0.55919289150049634 0.55919289150049634 0 0.82903758062907751 1 I I 0 1 1 forward I I I I #
face $-1 $127 $128 $42 $-1 $129 reversed single #
loop $-1 $-1 $130 $53 #
plane-surface $-1 -121.58339340475851 5.6203410298796426 58.080242440088199 0 1 0 -0.82903758062907751 0 0.55919289150049634 forward_v I I I I #
face $-1 $131 $132 $43 $-1 $133 forward single #
loop $-1 $134 $135 $54 #
cone-surface $-1 -43.131305112949939 9.5561726253612491 7.9020239451827923 0.82903758062907751 0 -0.55919289150049634 0.55919289150049634 0 0.82903758062907751 1 I I 0 1 1 forward I I I I #
face $-1 $136 $137 $33 $-1 $138 reversed single #
loop $-1 $-1 $139 $55 #
plane-surface $-1 0 0 -10.688196966197307 0 0 1 1 0 0 forward_v I I I I #
coedge $-1 $140 $141 $142 $143 forward $56 $-1 #
face $-1 $144 $145 $34 $-1 $146 forward single #
loop $-1 $-1 $147 $58 #
plane-surface $-1 -45.741142002624592 0 0 1 0 0 0 0 -1 forward_v I I I I #
coedge $-1 $148 $149 $150 $151 forward $59 $-1 #
face $-1 $152 $153 $35 $-1 $154 reversed single #
loop $-1 $-1 $155 $61 #
plane-surface $-1 0 15.783963136820496 7.6147572776508774 0 1 0 0 0 1 forward_v I I I I #
coedge $-1 $156 $157 $158 $159 reversed $62 $-1 #
face $-1 $160 $161 $36 $-1 $162 reversed single #
loop $-1 $-1 $163 $64 #
plane-surface $-1 -5.4151009113403177 -12.677359689984581 82.766250928257278 0.82903758062907751 0 0.55919289150049634 0.55919289150049634 0 -0.82903758062907751 forward_v I I I I #
coedge $-1 $164 $165 $166 $167 reversed $65 $-1 #
face $-1 $-1 $168 $37 $-1 $169 forward single #
loop $-1 $170 $171 $67 #
cone-surface $-1 41.376441009625175 -12.677359689984582 6.7183531984550378 -0.82903758062907751 0 -0.55919289150049634 0.27959644575024817 0 -0.41451879031453875 1 I I -0.70710678118654746 0.70710678118654746 0.5 forward I I I I #
loop $-1 $-1 $172 $48 #
coedge $-1 $108 $108 $173 $174 reversed $68 $-1 #
face $-1 $175 $176 $38 $-1 $177 reversed single #
loop $-1 $-1 $178 $70 #
plane-surface $-1 -5.4151009113403177 9.5561726253612491 82.766250928257278 0.82903758062907751 0 0.55919289150049634 0.55919289150049634 0 -0.82903758062907751 forward_v I I I I #
coedge $-1 $179 $180 $181 $182 reversed $71 $-1 #
face $-1 $-1 $183 $39 $-1 $184 forward single #
loop $-1 $185 $186 $73 #
cone-surface $-1 41.376441009625175 9.5561726253612491 6.7183531984550378 -0.82903758062907751 0 -0.55919289150049634 0.27959644575024817 0 -0.41451879031453875 1 I I -0.70710678118654746 0.70710678118654746 0.5 forward I I I I #
loop $-1 $-1 $187 $50 #
coedge $-1 $117 $117 $188 $189 reversed $74 $-1 #
face $-1 $190 $191 $40 $-1 $192 reversed single #
loop $-1 $-1 $193 $76 #
plane-surface $-1 -45.741142002624571 -12.677359689984581 6.9239995261233034 -0.82903758062907751 0 0.55919289150049634 0.55919289150049634 0 0.82903758062907751 forward_v I I I I #
coedge $-1 $194 $195 $196 $197 reversed $77 $-1 #
face $-1 $-1 $198 $41 $-1 $199 forward single #
loop $-1 $200 $201 $79 #
cone-surface $-1 -41.376441009625175 -12.677359689984582 6.7183531984550271 0.82903758062907751 0 -0.55919289150049634 0.27959644575024817 0 0.41451879031453875 1 I I -0.70710678118654746 0.70710678118654746 0.5 forward I I I I #
loop $-1 $-1 $202 $52 #
coedge $-1 $126 $126 $203 $204 reversed $80 $-1 #
face $-1 $205 $206 $42 $-1 $207 reversed single #
loop $-1 $-1 $208 $82 #
plane-surface $-1 -45.741142002624571 9.5561726253612491 6.9239995261233034 -0.82903758062907751 0 0.55919289150049634 0.55919289150049634 0 0.82903758062907751 forward_v I I I I #
coedge $-1 $209 $210 $211 $212 reversed $83 $-1 #
face $-1 $-1 $213 $43 $-1 $214 forward single #
loop $-1 $215 $216 $85 #
cone-surface $-1 -41.376441009625175 9.5561726253612491 6.7183531984550271 0.82903758062907751 0 -0.55919289150049634 0.27959644575024817 0 0.41451879031453875 1 I I -0.70710678118654746 0.70710678118654746 0.5 forward I I I I #
loop $-1 $-1 $217 $54 #
coedge $-1 $135 $135 $218 $219 reversed $86 $-1 #
face $-1 $220 $221 $33 $-1 $222 reversed single #
loop $-1 $-1 $223 $88 #
plane-surface $-1 0 -27.911770565327252 0 0 1 0 0 0 1 forward_v I I I I #
coedge $-1 $224 $225 $226 $227 forward $89 $-1 #
coedge $-1 $228 $91 $229 $230 forward $56 $-1 #
coedge $-1 $91 $228 $231 $232 forward $56 $-1 #
coedge $-1 $233 $234 $91 $143 reversed $235 $-1 #
edge $-1 $236 -27.911770565327252 $237 27.911770565327252 $142 $238 forward 7 unknown #
face $-1 $239 $240 $34 $-1 $241 reversed single #
loop $-1 $-1 $242 $92 #
plane-surface $-1 0 -32.415080747268966 -1.5005587217080216 0 0 1 1 0 0 forward_v I I I I #
coedge $-1 $243 $244 $149 $245 forward $93 $-1 #
coedge $-1 $246 $95 $247 $248 reversed $59 $-1 #
coedge $-1 $95 $246 $147 $245 reversed $59 $-1 #
coedge $-1 $249 $242 $95 $151 reversed $145 $-1 #
edge $-1 $250 -45.741142002624592 $251 45.741142002624592 $150 $252 forward 7 unknown #
face $-1 $253 $254 $35 $-1 $255 reversed single #
loop $-1 $-1 $256 $96 #
plane-surface $-1 45.741142002624592 0 0 -1 0 0 0 0 1 forward_v I I I I #
coedge $-1 $257 $258 $259 $260 reversed $97 $-1 #
coedge $-1 $261 $99 $257 $262 forward $62 $-1 #
coedge $-1 $99 $261 $263 $264 reversed $62 $-1 #
coedge $-1 $265 $256 $99 $159 forward $153 $-1 #
edge $-1 $266 4.8600297112835591 $267 16.987837139790315 $158 $268 forward 7 unknown #
face $-1 $269 $270 $36 $-1 $271 forward single #
loop $-1 $-1 $272 $100 #
plane-surface $-1 70.427150490793622 -16.613191285466186 133.92249384222217 0 1 0 0.82903758062907751 0 0.55919289150049634 forward_v I I I I #
coedge $-1 $273 $274 $275 $276 reversed $101 $-1 #
coedge $-1 $165 $103 $277 $278 reversed $65 $-1 #
coedge $-1 $103 $164 $273 $279 reversed $65 $-1 #
coedge $-1 $275 $280 $103 $167 forward $270 $-1 #
edge $-1 $281 -10.527566757227781 $282 -7.988583603898924 $166 $283 forward 7 unknown #
loop $-1 $-1 $173 $104 #
plane-surface $-1 -5.4151009113403177 -12.677359689984581 82.766250928257278 0.82903758062907751 0 0.55919289150049634 0.55919289150049634 0 -0.82903758062907751 forward_v I I I I #
loop $-1 $-1 $284 $67 #
coedge $-1 $171 $171 $172 $285 reversed $105 $-1 #
coedge $-1 $172 $172 $171 $285 forward $107 $-1 #
coedge $-1 $173 $173 $108 $174 forward $168 $-1 #
edge $-1 $286 0 $286 6.2831853071796004 $173 $287 forward 7 unknown #
face $-1 $288 $289 $38 $-1 $290 reversed single #
loop $-1 $-1 $291 $109 #
plane-surface $-1 70.427150490793622 5.6203410298796426 133.92249384222217 0 1 0 0.82903758062907751 0 0.55919289150049634 forward_v I I I I #
coedge $-1 $292 $293 $294 $295 reversed $110 $-1 #
coedge $-1 $180 $112 $296 $297 reversed $71 $-1 #
coedge $-1 $112 $179 $292 $298 reversed $71 $-1 #
coedge $-1 $294 $299 $112 $182 forward $300 $-1 #
edge $-1 $301 -10.527566757227781 $302 -7.988583603898924 $181 $303 forward 7 unknown #
loop $-1 $-1 $188 $113 #
plane-surface $-1 -5.4151009113403177 9.5561726253612491 82.766250928257278 0.82903758062907751 0 0.55919289150049634 0.55919289150049634 0 -0.82903758062907751 forward_v I I I I #
loop $-1 $-1 $304 $73 #
coedge $-1 $186 $186 $187 $305 reversed $114 $-1 #
coedge $-1 $187 $187 $186 $305 forward $116 $-1 #
coedge $-1 $188 $188 $117 $189 forward $183 $-1 #
edge $-1 $306 0 $306 6.2831853071796004 $188 $307 forward 7 unknown #
face $-1 $308 $309 $40 $-1 $310 reversed single #
loop $-1 $-1 $311 $118 #
plane-surface $-1 -121.58339340475851 -8.741528094502975 58.080242440088199 0 -1 0 0.82903758062907751 0 -0.55919289150049634 forward_v I I I I #
coedge $-1 $312 $313 $314 $315 reversed $119 $-1 #
coedge $-1 $195 $121 $316 $317 reversed $77 $-1 #
coedge $-1 $121 $194 $312 $318 reversed $77 $-1 #
coedge $-1 $314 $319 $121 $197 forward $320 $-1 #
edge $-1 $321 15.050554699754663 $322 17.589537853083549 $196 $323 forward 7 unknown #
loop $-1 $-1 $203 $122 #
plane-surface $-1 -45.741142002624571 -12.677359689984581 6.9239995261233034 -0.82903758062907751 0 0.55919289150049634 0.55919289150049634 0 0.82903758062907751 forward_v I I I I #
loop $-1 $-1 $324 $79 #
coedge $-1 $201 $201 $202 $325 reversed $123 $-1 #
coedge $-1 $202 $202 $201 $325 forward $125 $-1 #
coedge $-1 $203 $203 $126 $204 forward $198 $-1 #
edge $-1 $326 0 $326 6.2831853071796004 $203 $327 forward 7 unknown #
face $-1 $328 $329 $42 $-1 $330 forward single #
loop $-1 $-1 $331 $127 #
plane-surface $-1 -121.58339340475851 13.492004220842855 58.080242440088199 0 -1 0 0.82903758062907751 0 -0.55919289150049634 forward_v I I I I #
coedge $-1 $332 $333 $334 $335 reversed $128 $-1 #
coedge $-1 $210 $130 $336 $337 reversed $83 $-1 #
coedge $-1 $130 $209 $332 $338 reversed $83 $-1 #
coedge $-1 $334 $339 $130 $212 forward $329 $-1 #
edge $-1 $340 15.050554699754663 $341 17.589537853083549 $211 $342 forward 7 unknown #
loop $-1 $-1 $218 $131 #
plane-surface $-1 -45.741142002624571 9.5561726253612491 6.9239995261233034 -0.82903758062907751 0 0.55919289150049634 0.55919289150049634 0 0.82903758062907751 forward_v I I I I #
loop $-1 $-1 $343 $85 #
coedge $-1 $216 $216 $217 $344 reversed $132 $-1 #
coedge $-1 $217 $217 $216 $344 forward $134 $-1 #
coedge $-1 $218 $218 $135 $219 forward $213 $-1 #
edge $-1 $345 0 $345 6.2831853071796004 $218 $346 forward 7 unknown #
face $-1 $347 $348 $33 $-1 $349 reversed single #
loop $-1 $-1 $350 $136 #
plane-surface $-1 -45.741142002624592 0 0 1 0 0 0 0 -1 forward_v I I I I #
coedge $-1 $351 $231 $352 $353 forward $137 $-1 #
coedge $-1 $354 $139 $351 $355 forward $89 $-1 #
coedge $-1 $139 $354 $356 $357 forward $89 $-1 #
coedge $-1 $234 $233 $139 $227 reversed $235 $-1 #
edge $-1 $358 -27.911770565327252 $359 27.911770565327252 $226 $360 forward 7 unknown #
coedge $-1 $141 $140 $361 $362 forward $56 $-1 #
coedge $-1 $363 $364 $140 $230 reversed $348 $-1 #
edge $-1 $237 -45.741142002624592 $365 45.741142002624592 $229 $366 forward 7 unknown #
coedge $-1 $223 $367 $141 $232 reversed $137 $-1 #
edge $-1 $368 -45.741142002624592 $236 45.741142002624592 $231 $369 forward 7 unknown #
coedge $-1 $226 $142 $367 $370 forward $235 $-1 #
coedge $-1 $142 $226 $363 $371 reversed $235 $-1 #
loop $-1 $-1 $233 $347 #
vertex $-1 $143 $372 #
vertex $-1 $143 $373 #
straight-curve $-1 45.741142002624592 0 10.688196966197307 0 1 0 I I #
face $-1 $374 $375 $34 $-1 $376 reversed single #
loop $-1 $-1 $377 $144 #
plane-surface $-1 0 -32.415080747268966 -5.9851848641519538 0 0 1 1 0 0 forward_v I I I I #
coedge $-1 $150 $378 $379 $380 forward $145 $-1 #
coedge $-1 $381 $147 $382 $383 reversed $93 $-1 #
coedge $-1 $147 $381 $249 $384 reversed $93 $-1 #
edge $-1 $250 1.5005587217080216 $385 5.9851848641519538 $147 $386 forward 7 unknown #
coedge $-1 $149 $148 $387 $388 forward $59 $-1 #
coedge $-1 $379 $389 $148 $248 forward $390 $-1 #
edge $-1 $391 -5.9851848641519538 $251 -1.5005587217080216 $247 $392 forward 7 unknown #
coedge $-1 $378 $150 $244 $384 forward $145 $-1 #
vertex $-1 $245 $393 #
vertex $-1 $380 $394 #
straight-curve $-1 0 -27.911770565327252 -1.5005587217080216 1 0 0 I I #
face $-1 $395 $396 $35 $-1 $397 forward single #
loop $-1 $-1 $263 $152 #
plane-surface $-1 0 27.911770565327252 0 0 -1 0 0 0 -1 forward_v I I I I #
coedge $-1 $158 $398 $399 $400 forward $153 $-1 #
coedge $-1 $399 $155 $156 $262 reversed $97 $-1 #
coedge $-1 $155 $399 $401 $402 reversed $97 $-1 #
coedge $-1 $403 $404 $155 $260 forward $405 $-1 #
edge $-1 $406 0.73393895027900857 $407 6.8808183273718679 $259 $408 forward 7 unknown #
coedge $-1 $157 $156 $404 $409 reversed $62 $-1 #
edge $-1 $266 -45.741142002624592 $406 45.741142002624592 $257 $410 forward 7 unknown #
coedge $-1 $411 $412 $157 $264 forward $254 $-1 #
edge $-1 $267 -45.741142002624592 $413 45.741142002624592 $263 $414 forward 7 unknown #
coedge $-1 $398 $158 $412 $415 reversed $153 $-1 #
vertex $-1 $159 $416 #
vertex $-1 $264 $417 #
straight-curve $-1 45.741142002624592 10.923933425536937 4.5413175891044473 0 1 0 I I #
face $-1 $-1 $418 $36 $-1 $419 reversed single #
loop $-1 $-1 $166 $160 #
plane-surface $-1 0 0 10.688196966197307 0 0 1 1 0 0 forward_v I I I I #
coedge $-1 $420 $421 $422 $423 reversed $161 $-1 #
coedge $-1 $424 $163 $165 $279 forward $101 $-1 #
coedge $-1 $163 $424 $420 $425 forward $101 $-1 #
coedge $-1 $422 $166 $163 $276 forward $270 $-1 #
edge $-1 $282 2.4028482495106847 $426 10.274511440473896 $275 $427 forward 7 unknown #
coedge $-1 $428 $429 $164 $278 forward $418 $-1 #
edge $-1 $430 -60.037247394987759 $281 -56.273049954913773 $277 $431 forward 7 unknown #
edge $-1 $282 86.941841535539098 $430 91.482284005249198 $165 $432 forward 7 unknown #
coedge $-1 $166 $422 $428 $433 forward $270 $-1 #
vertex $-1 $278 $434 #
vertex $-1 $167 $435 #
straight-curve $-1 35.213575245396811 -8.741528094502975 10.68819696619731 -1 0 0 I I #
coedge $-1 $284 $284 $-1 $436 reversed $170 $-1 #
edge $-1 $437 0 $437 6.2831853071796004 $171 $438 forward 7 unknown #
vertex $-1 $174 $439 #
ellipse-curve $-1 44.471650425960156 -12.677359689984582 8.8060982461603174 0.82903758062907751 0 0.55919289150049634 0.55919289150049634 0 -0.82903758062907751 1 I I #
face $-1 $-1 $300 $38 $-1 $440 forward single #
loop $-1 $-1 $441 $175 #
plane-surface $-1 45.741142002624592 0 0 -1 0 0 0 0 1 forward_v I I I I #
coedge $-1 $442 $443 $444 $445 reversed $176 $-1 #
coedge $-1 $446 $178 $180 $298 forward $110 $-1 #
coedge $-1 $178 $446 $442 $447 forward $110 $-1 #
coedge $-1 $444 $181 $178 $295 forward $300 $-1 #
edge $-1 $302 -8.7139179081622302 $448 -0.84225471719901801 $294 $449 forward 7 unknown #
coedge $-1 $450 $451 $179 $297 forward $289 $-1 #
edge $-1 $452 -60.037247394987759 $301 -56.273049954913773 $296 $453 forward 7 unknown #
edge $-1 $302 86.941841535539098 $452 91.482284005249198 $180 $454 forward 7 unknown #
coedge $-1 $181 $444 $450 $455 forward $300 $-1 #
loop $-1 $-1 $444 $288 #
vertex $-1 $297 $456 #
vertex $-1 $182 $457 #
straight-curve $-1 35.213575245396811 13.492004220842855 10.68819696619731 -1 0 0 I I #
coedge $-1 $304 $304 $-1 $458 reversed $185 $-1 #
edge $-1 $459 0 $459 6.2831853071796004 $186 $460 forward 7 unknown #
vertex $-1 $189 $461 #
ellipse-curve $-1 44.471650425960156 9.5561726253612491 8.8060982461603174 0.82903758062907751 0 0.55919289150049634 0.55919289150049634 0 -0.82903758062907751 1 I I #
face $-1 $-1 $320 $40 $-1 $462 forward single #
loop $-1 $-1 $463 $190 #
plane-surface $-1 -45.741142002624592 0 0 1 0 0 0 0 -1 forward_v I I I I #
coedge $-1 $464 $465 $466 $467 reversed $191 $-1 #
coedge $-1 $468 $193 $195 $318 forward $119 $-1 #
coedge $-1 $193 $468 $464 $469 forward $119 $-1 #
coedge $-1 $466 $196 $193 $315 forward $320 $-1 #
edge $-1 $322 -10.274511440473896 $470 -2.4028482495106847 $314 $471 forward 7 unknown #
coedge $-1 $472 $473 $194 $317 forward $309 $-1 #
edge $-1 $474 -22.116121693920828 $321 -18.351924253846793 $316 $475 forward 7 unknown #
edge $-1 $322 -4.5404424697101344 $474 3.8427911784796275e-014 $195 $476 forward 7 unknown #
coedge $-1 $196 $466 $472 $477 forward $320 $-1 #
loop $-1 $-1 $466 $308 #
vertex $-1 $317 $478 #
vertex $-1 $197 $479 #
straight-curve $-1 -60.791696702379255 -16.613191285466186 10.688196966197307 1 0 0 I I #
coedge $-1 $324 $324 $-1 $480 reversed $200 $-1 #
edge $-1 $481 0 $481 6.2831853071796004 $201 $482 forward 7 unknown #
vertex $-1 $204 $483 #
ellipse-curve $-1 -44.471650425960142 -12.677359689984582 8.8060982461602961 -0.82903758062907751 0 0.55919289150049634 0.55919289150049634 0 0.82903758062907751 1 I I #
face $-1 $-1 $484 $42 $-1 $485 reversed single #
loop $-1 $-1 $211 $205 #
plane-surface $-1 0 0 10.688196966197307 0 0 1 1 0 0 forward_v I I I I #
coedge $-1 $486 $487 $488 $489 reversed $206 $-1 #
coedge $-1 $490 $208 $210 $338 forward $128 $-1 #
coedge $-1 $208 $490 $486 $491 forward $128 $-1 #
coedge $-1 $488 $211 $208 $335 forward $329 $-1 #
edge $-1 $341 0.84225471719901801 $492 8.7139179081622302 $334 $493 forward 7 unknown #
coedge $-1 $494 $495 $209 $337 forward $484 $-1 #
edge $-1 $496 -22.116121693920828 $340 -18.351924253846793 $336 $497 forward 7 unknown #
edge $-1 $341 -4.5404424697101344 $496 3.8427911784796275e-014 $210 $498 forward 7 unknown #
coedge $-1 $211 $488 $494 $499 forward $329 $-1 #
vertex $-1 $212 $500 #
vertex $-1 $212 $501 #
straight-curve $-1 -60.791696702379255 5.6203410298796426 10.688196966197307 1 0 0 I I #
coedge $-1 $343 $343 $-1 $502 reversed $215 $-1 #
edge $-1 $503 0 $503 6.2831853071796004 $216 $504 forward 7 unknown #
vertex $-1 $219 $505 #
ellipse-curve $-1 -44.471650425960142 9.5561726253612491 8.8060982461602961 -0.82903758062907751 0 0.55919289150049634 0.55919289150049634 0 0.82903758062907751 1 I I #
face $-1 $-1 $235 $33 $-1 $506 reversed single #
loop $-1 $-1 $363 $220 #
plane-surface $-1 0 27.911770565327252 0 0 -1 0 0 0 -1 forward_v I I I I #
coedge $-1 $507 $361 $364 $508 forward $221 $-1 #
coedge $-1 $367 $223 $224 $355 reversed $137 $-1 #
coedge $-1 $361 $507 $223 $353 reversed $221 $-1 #
edge $-1 $368 -10.688196966197307 $509 10.688196966197307 $352 $510 forward 7 unknown #
coedge $-1 $225 $224 $507 $511 forward $89 $-1 #
edge $-1 $359 -45.741142002624592 $509 45.741142002624592 $351 $512 forward 7 unknown #
coedge $-1 $364 $363 $225 $357 reversed $348 $-1 #
edge $-1 $513 -45.741142002624592 $358 45.741142002624592 $356 $514 forward 7 unknown #
vertex $-1 $227 $515 #
vertex $-1 $370 $516 #
straight-curve $-1 45.741142002624592 0 -10.688196966197307 0 -1 0 I I #
coedge $-1 $350 $352 $228 $362 reversed $221 $-1 #
edge $-1 $365 -27.911770565327252 $368 27.911770565327252 $361 $517 forward 7 unknown #
coedge $-1 $356 $229 $234 $371 forward $348 $-1 #
coedge $-1 $229 $356 $350 $508 reversed $348 $-1 #
vertex $-1 $230 $518 #
straight-curve $-1 0 27.911770565327252 10.688196966197307 -1 0 0 I I #
coedge $-1 $231 $351 $233 $370 reversed $137 $-1 #
vertex $-1 $362 $519 #
straight-curve $-1 0 -27.911770565327252 10.688196966197307 1 0 0 I I #
edge $-1 $236 -10.688196966197307 $359 10.688196966197307 $233 $520 forward 7 unknown #
edge $-1 $237 -10.688196966197307 $358 10.688196966197307 $234 $521 forward 7 unknown #
point $-1 45.741142002624592 -27.911770565327252 10.688196966197307 #
point $-1 45.741142002624592 27.911770565327252 10.688196966197307 #
face $-1 $-1 $390 $34 $-1 $522 reversed single #
loop $-1 $-1 $523 $239 #
plane-surface $-1 0 -36.91839092921068 -3.7428717929299875 0 1 0 0 0 1 forward_v I I I I #
coedge $-1 $524 $387 $389 $525 forward $240 $-1 #
coedge $-1 $242 $249 $526 $527 forward $145 $-1 #
coedge $-1 $528 $247 $242 $380 reversed $390 $-1 #
edge $-1 $529 -4.5033101819417141 $251 4.5033101819417141 $379 $530 forward 7 unknown #
coedge $-1 $244 $243 $523 $531 reversed $93 $-1 #
coedge $-1 $387 $524 $243 $383 forward $240 $-1 #
edge $-1 $532 -4.5033101819417141 $385 4.5033101819417141 $243 $533 forward 7 unknown #
edge $-1 $250 -4.5033101819417141 $534 4.5033101819417141 $244 $535 forward 7 unknown #
vertex $-1 $245 $536 #
straight-curve $-1 -45.741142002624592 -27.911770565327252 0 0 0 -1 I I #
coedge $-1 $377 $382 $246 $388 reversed $240 $-1 #
edge $-1 $391 -45.741142002624592 $385 45.741142002624592 $387 $537 forward 7 unknown #
coedge $-1 $247 $528 $377 $525 reversed $390 $-1 #
loop $-1 $-1 $247 $374 #
vertex $-1 $248 $538 #
straight-curve $-1 45.741142002624592 -27.911770565327252 0 0 0 1 I I #
point $-1 -45.741142002624592 -27.911770565327252 -1.5005587217080216 #
point $-1 45.741142002624592 -27.911770565327252 -1.5005587217080216 #
face $-1 $-1 $405 $35 $-1 $539 reversed single #
loop $-1 $-1 $401 $253 #
plane-surface $-1 0 0 10.688196966197307 0 0 1 1 0 0 forward_v I I I I #
coedge $-1 $256 $265 $540 $541 reversed $153 $-1 #
coedge $-1 $258 $257 $256 $400 reversed $97 $-1 #
edge $-1 $542 -6.8808183273718679 $266 -0.73393895027900857 $256 $543 forward 7 unknown #
coedge $-1 $540 $544 $258 $402 forward $396 $-1 #
edge $-1 $407 -45.741142002624592 $542 45.741142002624592 $401 $545 forward 7 unknown #
coedge $-1 $546 $259 $544 $547 reversed $405 $-1 #
coedge $-1 $259 $546 $261 $409 forward $405 $-1 #
loop $-1 $-1 $259 $395 #
vertex $-1 $409 $548 #
vertex $-1 $260 $549 #
straight-curve $-1 -45.741142002624592 15.783963136820496 3.8073786388254387 0 0 1 I I #
edge $-1 $413 -16.987837139790315 $406 -4.8600297112835591 $404 $550 forward 7 unknown #
straight-curve $-1 0 15.783963136820496 4.5413175891044473 -1 0 0 I I #
coedge $-1 $551 $263 $546 $552 reversed $254 $-1 #
coedge $-1 $263 $551 $265 $415 forward $254 $-1 #
vertex $-1 $264 $553 #
straight-curve $-1 0 27.911770565327252 4.5413175891044473 -1 0 0 I I #
edge $-1 $554 -10.688196966197307 $267 -4.5413175891044473 $265 $555 forward 7 unknown #
point $-1 45.741142002624592 15.783963136820496 4.5413175891044473 #
point $-1 45.741142002624592 27.911770565327252 4.5413175891044473 #
loop $-1 $-1 $277 $269 #
plane-surface $-1 45.741142002624592 0 0 -1 0 0 0 0 1 forward_v I I I I #
coedge $-1 $421 $272 $274 $425 reversed $161 $-1 #
coedge $-1 $272 $420 $556 $557 reversed $161 $-1 #
coedge $-1 $280 $275 $272 $423 forward $270 $-1 #
edge $-1 $426 7.988583603898924 $558 10.527566757227781 $422 $559 forward 7 unknown #
coedge $-1 $274 $273 $429 $560 reversed $101 $-1 #
edge $-1 $561 -91.482284005249198 $426 -86.941841535539098 $420 $562 forward 7 unknown #
vertex $-1 $276 $563 #
straight-curve $-1 43.202158849295742 -6.3386798449922903 10.68819696619731 0 -1 0 I I #
coedge $-1 $556 $277 $280 $433 reversed $418 $-1 #
coedge $-1 $277 $556 $424 $560 forward $418 $-1 #
vertex $-1 $278 $564 #
straight-curve $-1 45.741142002624592 -8.741528094502975 66.961246921111083 0 0 1 I I #
straight-curve $-1 -5.4151009113403177 -8.741528094502975 82.766250928257278 0.55919289150049634 0 -0.82903758062907751 I I #
edge $-1 $558 -16.613191285466186 $281 -8.741528094502975 $428 $565 forward 7 unknown #
point $-1 45.741142002624592 -8.741528094502975 10.688196966197307 #
point $-1 43.202158849295735 -8.741528094502975 10.68819696619731 #
edge $-1 $566 1 $566 0 $284 $-1 forward 7 unknown #
vertex $-1 $285 $567 #
ellipse-curve $-1 41.790959799939714 -12.677359689984582 6.9979496442052858 0.82903758062907751 0 0.55919289150049634 0.55919289150049634 0 -0.82903758062907751 1 I I #
point $-1 45.030843317460658 -12.677359689984582 7.9770606655312424 #
plane-surface $-1 0 0 10.688196966197307 0 0 1 1 0 0 forward_v I I I I #
coedge $-1 $451 $450 $443 $568 forward $289 $-1 #
coedge $-1 $443 $291 $293 $447 reversed $176 $-1 #
coedge $-1 $291 $442 $441 $568 reversed $176 $-1 #
coedge $-1 $299 $294 $291 $445 forward $300 $-1 #
edge $-1 $448 7.988583603898924 $569 10.527566757227781 $444 $570 forward 7 unknown #
coedge $-1 $293 $292 $451 $571 reversed $110 $-1 #
edge $-1 $572 -91.482284005249198 $448 -86.941841535539098 $442 $573 forward 7 unknown #
vertex $-1 $295 $574 #
straight-curve $-1 43.202158849295742 4.7780863126806246 10.68819696619731 0 -1 0 I I #
coedge $-1 $441 $296 $299 $455 reversed $289 $-1 #
coedge $-1 $296 $441 $446 $571 forward $289 $-1 #
vertex $-1 $297 $575 #
straight-curve $-1 45.741142002624592 13.492004220842855 66.961246921111083 0 0 1 I I #
straight-curve $-1 -5.4151009113403177 13.492004220842855 82.766250928257278 0.55919289150049634 0 -0.82903758062907751 I I #
edge $-1 $569 5.6203410298796426 $301 13.492004220842855 $450 $576 forward 7 unknown #
point $-1 45.741142002624592 13.492004220842855 10.688196966197307 #
point $-1 43.202158849295735 13.492004220842855 10.68819696619731 #
edge $-1 $577 1 $577 0 $304 $-1 forward 7 unknown #
vertex $-1 $305 $578 #
ellipse-curve $-1 41.790959799939714 9.5561726253612491 6.9979496442052858 0.82903758062907751 0 0.55919289150049634 0.55919289150049634 0 -0.82903758062907751 1 I I #
point $-1 45.030843317460658 9.5561726253612491 7.9770606655312424 #
plane-surface $-1 0 0 10.688196966197307 0 0 1 1 0 0 forward_v I I I I #
coedge $-1 $473 $472 $465 $579 forward $309 $-1 #
coedge $-1 $465 $311 $313 $469 reversed $191 $-1 #
coedge $-1 $311 $464 $463 $579 reversed $191 $-1 #
coedge $-1 $319 $314 $311 $467 forward $320 $-1 #
edge $-1 $470 -17.589537853083549 $580 -15.050554699754663 $466 $581 forward 7 unknown #
coedge $-1 $313 $312 $473 $582 reversed $119 $-1 #
edge $-1 $583 -3.8427911784796275e-014 $470 4.5404424697101344 $464 $584 forward 7 unknown #
vertex $-1 $315 $585 #
straight-curve $-1 -43.202158849295706 -6.3386798449922903 10.688196966197307 0 1 0 I I #
coedge $-1 $463 $316 $319 $477 reversed $309 $-1 #
coedge $-1 $316 $463 $468 $582 forward $309 $-1 #
vertex $-1 $317 $586 #
straight-curve $-1 -45.741142002624592 -16.613191285466186 29.040121220044099 0 0 1 I I #
straight-curve $-1 -45.741142002624571 -16.613191285466186 6.9239995261233034 -0.55919289150049634 0 -0.82903758062907751 I I #
edge $-1 $580 8.741528094502975 $321 16.613191285466186 $472 $587 forward 7 unknown #
point $-1 -45.741142002624592 -16.613191285466186 10.688196966197307 #
point $-1 -43.202158849295706 -16.613191285466186 10.688196966197307 #
edge $-1 $588 1 $588 0 $324 $-1 forward 7 unknown #
vertex $-1 $325 $589 #
ellipse-curve $-1 -41.790959799939714 -12.677359689984582 6.9979496442052751 -0.82903758062907751 0 0.55919289150049634 0.55919289150049634 0 0.82903758062907751 1 I I #
point $-1 -43.912457534459662 -12.677359689984582 9.6351358267893872 #
loop $-1 $-1 $336 $328 #
plane-surface $-1 -45.741142002624592 0 0 1 0 0 0 0 -1 forward_v I I I I #
coedge $-1 $487 $331 $333 $491 reversed $206 $-1 #
coedge $-1 $331 $486 $590 $591 reversed $206 $-1 #
coedge $-1 $339 $334 $331 $489 forward $329 $-1 #
edge $-1 $492 -17.589537853083549 $592 -15.050554699754663 $488 $593 forward 7 unknown #
coedge $-1 $333 $332 $495 $594 reversed $128 $-1 #
edge $-1 $595 -3.8427911784796275e-014 $492 4.5404424697101344 $486 $596 forward 7 unknown #
vertex $-1 $335 $597 #
straight-curve $-1 -43.202158849295706 4.7780863126806246 10.688196966197307 0 1 0 I I #
coedge $-1 $590 $336 $339 $499 reversed $484 $-1 #
coedge $-1 $336 $590 $490 $594 forward $484 $-1 #
vertex $-1 $337 $598 #
straight-curve $-1 -45.741142002624592 5.6203410298796426 29.040121220044099 0 0 1 I I #
straight-curve $-1 -45.741142002624571 5.6203410298796426 6.9239995261233034 -0.55919289150049634 0 -0.82903758062907751 I I #
edge $-1 $592 -13.492004220842855 $340 -5.6203410298796426 $494 $599 forward 7 unknown #
point $-1 -45.741142002624592 5.6203410298796426 10.688196966197307 #
point $-1 -43.202158849295706 5.6203410298796426 10.688196966197307 #
edge $-1 $600 1 $600 0 $343 $-1 forward 7 unknown #
vertex $-1 $344 $601 #
ellipse-curve $-1 -41.790959799939714 9.5561726253612491 6.9979496442052751 -0.82903758062907751 0 0.55919289150049634 0.55919289150049634 0 0.82903758062907751 1 I I #
point $-1 -43.912457534459662 9.5561726253612491 9.6351358267893872 #
plane-surface $-1 45.741142002624592 0 0 -1 0 0 0 0 1 forward_v I I I I #
coedge $-1 $352 $350 $354 $511 reversed $221 $-1 #
edge $-1 $365 -10.688196966197307 $513 10.688196966197307 $364 $602 forward 7 unknown #
vertex $-1 $511 $603 #
straight-curve $-1 -45.741142002624592 -27.911770565327252 0 0 0 -1 I I #
edge $-1 $509 -27.911770565327252 $513 27.911770565327252 $507 $604 forward 7 unknown #
straight-curve $-1 0 -27.911770565327252 -10.688196966197307 -1 0 0 I I #
vertex $-1 $357 $605 #
straight-curve $-1 0 27.911770565327252 -10.688196966197307 1 0 0 I I #
point $-1 45.741142002624592 27.911770565327252 -10.688196966197307 #
point $-1 45.741142002624592 -27.911770565327252 -10.688196966197307 #
straight-curve $-1 -45.741142002624592 0 10.688196966197307 0 -1 0 I I #
point $-1 -45.741142002624592 27.911770565327252 10.688196966197307 #
point $-1 -45.741142002624592 -27.911770565327252 10.688196966197307 #
straight-curve $-1 45.741142002624592 -27.911770565327252 0 0 0 -1 I I #
straight-curve $-1 45.741142002624592 27.911770565327252 0 0 0 -1 I I #
plane-surface $-1 45.741142002624592 0 0 -1 0 0 0 0 1 forward_v I I I I #
coedge $-1 $606 $526 $381 $531 forward $375 $-1 #
coedge $-1 $382 $377 $606 $607 forward $240 $-1 #
edge $-1 $391 -4.5033101819417141 $608 4.5033101819417141 $389 $609 forward 7 unknown #
coedge $-1 $523 $610 $378 $527 reversed $375 $-1 #
edge $-1 $534 -45.741142002624592 $529 45.741142002624592 $526 $611 forward 7 unknown #
coedge $-1 $389 $379 $610 $612 forward $390 $-1 #
vertex $-1 $380 $613 #
straight-curve $-1 45.741142002624592 -32.415080747268966 -1.5005587217080216 0 1 0 I I #
edge $-1 $534 -2.2423130712219659 $532 2.2423130712219663 $381 $614 forward 7 unknown #
vertex $-1 $383 $615 #
straight-curve $-1 -45.741142002624592 -32.415080747268966 -5.9851848641519538 0 1 0 I I #
vertex $-1 $384 $616 #
straight-curve $-1 -45.741142002624592 -32.415080747268966 -1.5005587217080216 0 -1 0 I I #
point $-1 -45.741142002624592 -27.911770565327252 -5.9851848641519538 #
straight-curve $-1 0 -27.911770565327252 -5.9851848641519538 -1 0 0 I I #
point $-1 45.741142002624592 -27.911770565327252 -5.9851848641519538 #
plane-surface $-1 -45.741142002624592 0 0 1 0 0 0 0 -1 forward_v I I I I #
coedge $-1 $617 $401 $398 $541 forward $396 $-1 #
edge $-1 $542 15.783963136820496 $554 27.911770565327252 $398 $618 forward 7 unknown #
vertex $-1 $541 $619 #
straight-curve $-1 45.741142002624592 15.783963136820496 3.8073786388254387 0 0 -1 I I #
coedge $-1 $401 $617 $403 $547 forward $396 $-1 #
straight-curve $-1 0 15.783963136820496 10.688196966197307 1 0 0 I I #
coedge $-1 $404 $403 $411 $552 forward $405 $-1 #
edge $-1 $620 -27.911770565327252 $407 -15.783963136820496 $403 $621 forward 7 unknown #
point $-1 -45.741142002624592 15.783963136820496 4.5413175891044473 #
point $-1 -45.741142002624592 15.783963136820496 10.688196966197307 #
straight-curve $-1 -45.741142002624592 10.923933425536937 4.5413175891044473 0 -1 0 I I #
coedge $-1 $412 $411 $617 $622 reversed $254 $-1 #
edge $-1 $620 -10.688196966197307 $413 -4.5413175891044473 $411 $623 forward 7 unknown #
point $-1 -45.741142002624592 27.911770565327252 4.5413175891044473 #
vertex $-1 $541 $624 #
straight-curve $-1 45.741142002624592 27.911770565327252 0 0 0 -1 I I #
coedge $-1 $429 $428 $421 $557 forward $418 $-1 #
edge $-1 $558 56.273049954913773 $561 60.037247394987759 $556 $625 forward 7 unknown #
vertex $-1 $433 $626 #
straight-curve $-1 35.213575245396811 -16.613191285466186 10.68819696619731 1 0 0 I I #
edge $-1 $561 -10.274511440473896 $430 -2.4028482495106847 $429 $627 forward 7 unknown #
vertex $-1 $560 $628 #
straight-curve $-1 -5.4151009113403177 -16.613191285466186 82.766250928257278 -0.55919289150049634 0 0.82903758062907751 I I #
point $-1 43.202158849295735 -16.613191285466186 10.68819696619731 #
point $-1 45.741142002624592 -8.741528094502975 6.9239995261233247 #
straight-curve $-1 45.741142002624592 0 10.688196966197307 0 1 0 I I #
vertex $-1 $436 $629 #
point $-1 42.350152691440208 -12.677359689984582 6.168912063576208 #
edge $-1 $569 56.273049954913773 $572 60.037247394987759 $441 $630 forward 7 unknown #
vertex $-1 $455 $631 #
straight-curve $-1 35.213575245396811 5.6203410298796426 10.68819696619731 1 0 0 I I #
edge $-1 $572 0.84225471719901801 $452 8.7139179081622302 $451 $632 forward 7 unknown #
vertex $-1 $571 $633 #
straight-curve $-1 -5.4151009113403177 5.6203410298796426 82.766250928257278 -0.55919289150049634 0 0.82903758062907751 I I #
point $-1 43.202158849295735 5.6203410298796426 10.68819696619731 #
point $-1 45.741142002624592 13.492004220842855 6.9239995261233247 #
straight-curve $-1 45.741142002624592 0 10.688196966197307 0 1 0 I I #
vertex $-1 $458 $634 #
point $-1 42.350152691440208 9.5561726253612491 6.168912063576208 #
edge $-1 $580 18.351924253846793 $583 22.116121693920828 $463 $635 forward 7 unknown #
vertex $-1 $477 $636 #
straight-curve $-1 -60.791696702379255 -8.741528094502975 10.688196966197307 -1 0 0 I I #
edge $-1 $583 2.4028482495106847 $474 10.274511440473896 $473 $637 forward 7 unknown #
vertex $-1 $582 $638 #
straight-curve $-1 -45.741142002624571 -8.741528094502975 6.9239995261233034 0.55919289150049634 0 0.82903758062907751 I I #
point $-1 -43.202158849295706 -8.741528094502975 10.688196966197307 #
point $-1 -45.741142002624592 -16.613191285466186 6.9239995261232714 #
straight-curve $-1 -45.741142002624592 0 10.688196966197307 0 -1 0 I I #
vertex $-1 $480 $639 #
point $-1 -41.231766908439219 -12.677359689984582 7.8269872248343528 #
coedge $-1 $495 $494 $487 $591 forward $484 $-1 #
edge $-1 $592 18.351924253846793 $595 22.116121693920828 $590 $640 forward 7 unknown #
vertex $-1 $499 $641 #
straight-curve $-1 -60.791696702379255 13.492004220842855 10.688196966197307 -1 0 0 I I #
edge $-1 $595 -8.7139179081622302 $496 -0.84225471719901801 $495 $642 forward 7 unknown #
vertex $-1 $594 $643 #
straight-curve $-1 -45.741142002624571 13.492004220842855 6.9239995261233034 0.55919289150049634 0 0.82903758062907751 I I #
point $-1 -43.202158849295706 13.492004220842855 10.688196966197307 #
point $-1 -45.741142002624592 5.6203410298796426 6.9239995261232714 #
straight-curve $-1 -45.741142002624592 0 10.688196966197307 0 -1 0 I I #
vertex $-1 $502 $644 #
point $-1 -41.231766908439219 9.5561726253612491 7.8269872248343528 #
straight-curve $-1 -45.741142002624592 27.911770565327252 0 0 0 -1 I I #
point $-1 -45.741142002624592 -27.911770565327252 -10.688196966197307 #
straight-curve $-1 -45.741142002624592 0 -10.688196966197307 0 1 0 I I #
point $-1 -45.741142002624592 27.911770565327252 -10.688196966197307 #
coedge $-1 $610 $523 $524 $607 reversed $375 $-1 #
edge $-1 $608 -45.741142002624592 $532 45.741142002624592 $606 $645 forward 7 unknown #
vertex $-1 $612 $646 #
straight-curve $-1 45.741142002624592 -32.415080747268966 -5.9851848641519538 0 -1 0 I I #
coedge $-1 $526 $606 $528 $612 reversed $375 $-1 #
straight-curve $-1 0 -36.91839092921068 -1.5005587217080216 1 0 0 I I #
edge $-1 $529 -2.2423130712219659 $608 2.2423130712219663 $528 $647 forward 7 unknown #
point $-1 45.741142002624592 -36.91839092921068 -1.5005587217080216 #
straight-curve $-1 -45.741142002624592 -36.91839092921068 -3.7428717929299875 0 0 -1 I I #
point $-1 -45.741142002624592 -36.91839092921068 -5.9851848641519538 #
point $-1 -45.741142002624592 -36.91839092921068 -1.5005587217080216 #
coedge $-1 $544 $540 $551 $622 forward $396 $-1 #
straight-curve $-1 45.741142002624592 0 10.688196966197307 0 1 0 I I #
point $-1 45.741142002624592 15.783963136820496 10.688196966197307 #
vertex $-1 $622 $648 #
straight-curve $-1 -45.741142002624592 0 10.688196966197307 0 -1 0 I I #
edge $-1 $554 -45.741142002624592 $620 45.741142002624592 $551 $649 forward 7 unknown #
straight-curve $-1 -45.741142002624592 27.911770565327252 0 0 0 -1 I I #
point $-1 45.741142002624592 27.911770565327252 10.688196966197307 #
straight-curve $-1 45.741142002624592 -16.613191285466186 66.961246921111083 0 0 -1 I I #
point $-1 45.741142002624592 -16.613191285466186 10.688196966197307 #
straight-curve $-1 45.741142002624592 -6.3386798449922903 6.9239995261233176 0 1 0 I I #
point $-1 45.741142002624592 -16.613191285466186 6.9239995261233247 #
point $-1 40.961922219310637 -12.677359689984582 6.4387567527047898 #
straight-curve $-1 45.741142002624592 5.6203410298796426 66.961246921111083 0 0 -1 I I #
point $-1 45.741142002624592 5.6203410298796426 10.688196966197307 #
straight-curve $-1 45.741142002624592 4.7780863126806246 6.9239995261233176 0 1 0 I I #
point $-1 45.741142002624592 5.6203410298796426 6.9239995261233247 #
point $-1 40.961922219310637 9.5561726253612491 6.4387567527047898 #
straight-curve $-1 -45.741142002624592 -8.741528094502975 29.040121220044099 0 0 -1 I I #
point $-1 -45.741142002624592 -8.741528094502975 10.688196966197307 #
straight-curve $-1 -45.741142002624592 -6.3386798449922903 6.923999526123275 0 -1 0 I I #
point $-1 -45.741142002624592 -8.741528094502975 6.9239995261232714 #
point $-1 -40.961922219310637 -12.677359689984582 6.4387567527047791 #
straight-curve $-1 -45.741142002624592 13.492004220842855 29.040121220044099 0 0 -1 I I #
point $-1 -45.741142002624592 13.492004220842855 10.688196966197307 #
straight-curve $-1 -45.741142002624592 4.7780863126806246 6.923999526123275 0 -1 0 I I #
point $-1 -45.741142002624592 13.492004220842855 6.9239995261232714 #
point $-1 -40.961922219310637 9.5561726253612491 6.4387567527047791 #
straight-curve $-1 0 -36.91839092921068 -5.9851848641519538 -1 0 0 I I #
point $-1 45.741142002624592 -36.91839092921068 -5.9851848641519538 #
straight-curve $-1 45.741142002624592 -36.91839092921068 -3.7428717929299875 0 0 -1 I I #
point $-1 -45.741142002624592 27.911770565327252 10.688196966197307 #
straight-curve $-1 0 27.911770565327252 10.688196966197307 -1 0 0 I I #
End-of-ACIS-data 