500 0 6 0           
7 Unknown 11 ACIS 5.0 NT 24 Fri Mar 26 18:56:00 1999 
-1 9.9999999999999995e-007 1e-010 
body $-1 $6 $-1 $7 #
body $-1 $8 $-1 $9 #
body $-1 $10 $-1 $11 #
body $-1 $12 $-1 $13 #
body $-1 $14 $-1 $15 #
body $-1 $16 $-1 $17 #
lump $-1 $-1 $18 $0 #
transform $-1 1 0 0 0 1 0 0 0 1 45.328531754509108 22.186868608402321 6.8731420997744515 1 rotate no_reflect no_shear #
lump $-1 $-1 $19 $1 #
transform $-1 1 0 0 0 1 0 0 0 1 45.328531754509108 22.186868608402321 6.8731420997744515 1 rotate no_reflect no_shear #
lump $-1 $-1 $20 $2 #
transform $-1 1 0 0 0 1 0 0 0 1 45.328531754509108 22.186868608402321 6.8731420997744515 1 rotate no_reflect no_shear #
lump $-1 $-1 $21 $3 #
transform $-1 1 0 0 0 1 0 0 0 1 45.328531754509108 22.186868608402321 6.8731420997744515 1 rotate no_reflect no_shear #
lump $-1 $-1 $22 $4 #
transform $-1 1 0 0 0 1 0 0 0 1 45.328531754509108 22.186868608402321 6.8731420997744515 1 rotate no_reflect no_shear #
lump $-1 $-1 $23 $5 #
transform $-1 1 0 0 0 1 0 0 0 1 45.328531754509108 22.186868608402321 6.8731420997744515 1 rotate no_reflect no_shear #
shell $-1 $-1 $-1 $24 $-1 $6 #
shell $-1 $-1 $-1 $25 $-1 $8 #
shell $-1 $-1 $-1 $26 $-1 $10 #
shell $-1 $-1 $-1 $27 $-1 $12 #
shell $-1 $-1 $-1 $28 $-1 $14 #
shell $-1 $-1 $-1 $29 $-1 $16 #
face $-1 $30 $31 $18 $-1 $32 forward single #
face $-1 $33 $34 $19 $-1 $35 forward single #
face $-1 $36 $37 $20 $-1 $38 reversed single #
face $-1 $39 $40 $21 $-1 $41 forward single #
face $-1 $42 $43 $22 $-1 $44 reversed single #
face $-1 $45 $46 $23 $-1 $47 forward single #
face $-1 $48 $49 $18 $-1 $50 reversed single #
loop $-1 $-1 $51 $24 #
plane-surface $-1 0 0 6.8731420997744515 0 0 1 1 0 0 forward_v I I I I #
face $-1 $52 $53 $19 $-1 $54 reversed single #
loop $-1 $-1 $55 $25 #
plane-surface $-1 -42.314686107425786 0 -3.8731420997744515 0 0 1 1 0 0 forward_v I I I I #
face $-1 $56 $57 $20 $-1 $58 reversed single #
loop $-1 $-1 $59 $26 #
plane-surface $-1 14.789228265358663 49.872172336244731 100.2364179861034 1 0 0 0 -0.66913061440640931 -0.74314481823134659 forward_v I I I I #
face $-1 $60 $61 $21 $-1 $62 forward single #
loop $-1 $63 $64 $27 #
cone-surface $-1 23.958421837200923 19.16256770702779 3.9462025953296318 0 -0.66913061440640931 -0.74314481823134659 1 0 0 1 I I 0 1 1 forward I I I I #
face $-1 $65 $66 $22 $-1 $67 reversed single #
loop $-1 $-1 $68 $28 #
plane-surface $-1 33.127615409043187 -82.848285214472554 70.544591938714376 -1 0 0 0 -0.66913061440640931 0.74314481823134659 forward_v I I I I #
face $-1 $69 $70 $23 $-1 $71 forward single #
loop $-1 $72 $73 $29 #
cone-surface $-1 23.958421837200923 -19.162567707027787 3.9462025953296354 0 0.66913061440640931 -0.74314481823134659 1 0 0 1 I I 0 1 1 forward I I I I #
face $-1 $74 $75 $18 $-1 $76 reversed single #
loop $-1 $-1 $77 $30 #
plane-surface $-1 0 0 -6.8731420997744515 0 0 1 1 0 0 forward_v I I I I #
coedge $-1 $78 $79 $80 $81 forward $31 $-1 #
face $-1 $82 $83 $19 $-1 $84 reversed single #
loop $-1 $-1 $85 $33 #
plane-surface $-1 -39.300840460342464 0 -5.3731420997744515 -1 0 0 0 0 1 forward_v I I I I #
coedge $-1 $86 $87 $88 $89 forward $34 $-1 #
face $-1 $90 $91 $20 $-1 $92 reversed single #
loop $-1 $-1 $93 $36 #
plane-surface $-1 23.958421837200923 -10.789244269825495 32.865091003306418 0 0.66913061440640931 0.74314481823134659 1 0 0 forward_v I I I I #
coedge $-1 $94 $95 $96 $97 reversed $37 $-1 #
face $-1 $-1 $98 $21 $-1 $99 forward single #
loop $-1 $100 $101 $39 #
cone-surface $-1 23.958421837200923 17.858266383356053 2.4976292536976743 0 -0.66913061440640931 -0.74314481823134659 0.5 0 0 1 I I -0.70710678118654746 0.70710678118654746 0.5 forward I I I I #
loop $-1 $-1 $102 $27 #
coedge $-1 $64 $64 $103 $104 reversed $40 $-1 #
face $-1 $105 $106 $22 $-1 $107 reversed single #
loop $-1 $-1 $108 $42 #
plane-surface $-1 23.958421837200923 -22.186868608402328 3.1732649559173893 0 -0.66913061440640931 0.74314481823134659 1 0 0 forward_v I I I I #
coedge $-1 $109 $110 $111 $112 reversed $43 $-1 #
face $-1 $-1 $113 $23 $-1 $114 forward single #
loop $-1 $115 $116 $45 #
cone-surface $-1 23.958421837200923 -17.85826638335605 2.4976292536976779 0 0.66913061440640931 -0.74314481823134659 0.5 0 0 1 I I -0.70710678118654746 0.70710678118654746 0.5 forward I I I I #
loop $-1 $-1 $117 $29 #
coedge $-1 $73 $73 $118 $119 reversed $46 $-1 #
face $-1 $120 $121 $18 $-1 $122 reversed single #
loop $-1 $-1 $123 $48 #
plane-surface $-1 0 -22.186868608402321 0 0 1 0 0 0 1 forward_v I I I I #
coedge $-1 $124 $125 $126 $127 forward $49 $-1 #
coedge $-1 $128 $51 $129 $130 forward $31 $-1 #
coedge $-1 $51 $128 $131 $132 forward $31 $-1 #
coedge $-1 $133 $134 $51 $81 reversed $135 $-1 #
edge $-1 $136 -22.186868608402321 $137 22.186868608402321 $80 $138 forward 7 unknown #
face $-1 $139 $140 $19 $-1 $141 reversed single #
loop $-1 $-1 $142 $52 #
plane-surface $-1 0 0 -6.8731420997744515 0 0 1 1 0 0 forward_v I I I I #
coedge $-1 $143 $88 $144 $145 reversed $53 $-1 #
coedge $-1 $146 $55 $147 $148 reversed $34 $-1 #
coedge $-1 $55 $146 $149 $150 reversed $34 $-1 #
coedge $-1 $85 $151 $55 $89 reversed $53 $-1 #
edge $-1 $152 -22.186868608402321 $153 22.186868608402321 $88 $154 forward 7 unknown #
face $-1 $155 $156 $20 $-1 $157 reversed single #
loop $-1 $-1 $158 $56 #
plane-surface $-1 33.127615409043187 49.872172336244731 100.2364179861034 -1 0 0 0 0.66913061440640931 0.74314481823134659 forward_v I I I I #
coedge $-1 $159 $160 $161 $162 reversed $57 $-1 #
coedge $-1 $95 $59 $163 $164 reversed $37 $-1 #
coedge $-1 $59 $94 $159 $165 reversed $37 $-1 #
coedge $-1 $161 $166 $59 $97 forward $167 $-1 #
edge $-1 $168 2.7492175597200443 $169 6.8583473295320481 $96 $170 forward 7 unknown #
loop $-1 $-1 $103 $60 #
plane-surface $-1 23.958421837200923 -10.789244269825495 32.865091003306418 0 0.66913061440640931 0.74314481823134659 1 0 0 forward_v I I I I #
loop $-1 $-1 $171 $39 #
coedge $-1 $101 $101 $102 $172 reversed $61 $-1 #
coedge $-1 $102 $102 $101 $172 forward $63 $-1 #
coedge $-1 $103 $103 $64 $104 forward $98 $-1 #
edge $-1 $173 -5.9430737167645847e-016 $173 6.2831853071795996 $103 $174 forward 7 unknown #
face $-1 $175 $176 $22 $-1 $177 forward single #
loop $-1 $-1 $178 $65 #
plane-surface $-1 14.789228265358663 -82.848285214472554 70.544591938714376 1 0 0 0 0.66913061440640931 -0.74314481823134659 forward_v I I I I #
coedge $-1 $179 $180 $181 $182 reversed $66 $-1 #
coedge $-1 $110 $68 $183 $184 reversed $43 $-1 #
coedge $-1 $68 $109 $179 $185 reversed $43 $-1 #
coedge $-1 $181 $186 $68 $112 forward $176 $-1 #
edge $-1 $187 19.237273998833956 $188 23.346403768645949 $111 $189 forward 7 unknown #
loop $-1 $-1 $118 $69 #
plane-surface $-1 23.958421837200923 -22.186868608402328 3.1732649559173893 0 -0.66913061440640931 0.74314481823134659 1 0 0 forward_v I I I I #
loop $-1 $-1 $190 $45 #
coedge $-1 $116 $116 $117 $191 reversed $70 $-1 #
coedge $-1 $117 $117 $116 $191 forward $72 $-1 #
coedge $-1 $118 $118 $73 $119 forward $113 $-1 #
edge $-1 $192 5.2590254870876581e-016 $192 6.2831853071796013 $118 $193 forward 7 unknown #
face $-1 $194 $195 $18 $-1 $196 reversed single #
loop $-1 $-1 $197 $74 #
plane-surface $-1 -45.328531754509108 0 0 1 0 0 0 0 -1 forward_v I I I I #
coedge $-1 $198 $131 $199 $200 forward $75 $-1 #
coedge $-1 $201 $77 $198 $202 forward $49 $-1 #
coedge $-1 $77 $201 $203 $204 forward $49 $-1 #
coedge $-1 $134 $133 $77 $127 reversed $135 $-1 #
edge $-1 $205 -22.186868608402321 $206 22.186868608402321 $126 $207 forward 7 unknown #
coedge $-1 $79 $78 $208 $209 forward $31 $-1 #
coedge $-1 $210 $211 $78 $130 reversed $195 $-1 #
edge $-1 $137 -45.328531754509108 $212 45.328531754509108 $129 $213 forward 7 unknown #
coedge $-1 $123 $214 $79 $132 reversed $75 $-1 #
edge $-1 $215 -45.328531754509108 $136 45.328531754509108 $131 $216 forward 7 unknown #
coedge $-1 $126 $80 $214 $217 forward $135 $-1 #
coedge $-1 $80 $126 $210 $218 reversed $135 $-1 #
loop $-1 $-1 $133 $194 #
vertex $-1 $81 $219 #
vertex $-1 $81 $220 #
straight-curve $-1 45.328531754509108 0 6.8731420997744515 0 1 0 I I #
face $-1 $221 $222 $19 $-1 $223 reversed single #
loop $-1 $-1 $144 $82 #
plane-surface $-1 0 -22.186868608402321 0 0 1 0 0 0 1 forward_v I I I I #
coedge $-1 $224 $225 $143 $226 forward $83 $-1 #
coedge $-1 $151 $85 $142 $226 reversed $53 $-1 #
coedge $-1 $149 $227 $85 $145 forward $140 $-1 #
edge $-1 $228 -4.1865710498872257 $152 -1.1865710498872257 $144 $229 forward 7 unknown #
coedge $-1 $87 $86 $230 $231 reversed $34 $-1 #
coedge $-1 $232 $233 $86 $148 forward $234 $-1 #
edge $-1 $235 -24.171188700796215 $153 -18.143497406629571 $147 $236 forward 7 unknown #
coedge $-1 $237 $144 $87 $150 forward $140 $-1 #
edge $-1 $152 18.143497406629571 $238 24.171188700796215 $149 $239 forward 7 unknown #
coedge $-1 $88 $143 $232 $240 reversed $53 $-1 #
vertex $-1 $150 $241 #
vertex $-1 $148 $242 #
straight-curve $-1 -39.300840460342464 0 -3.8731420997744515 0 1 0 I I #
face $-1 $-1 $167 $20 $-1 $243 forward single #
loop $-1 $-1 $244 $90 #
plane-surface $-1 0 22.186868608402321 0 0 -1 0 0 0 -1 forward_v I I I I #
coedge $-1 $245 $246 $247 $248 reversed $91 $-1 #
coedge $-1 $249 $93 $95 $165 forward $57 $-1 #
coedge $-1 $93 $249 $245 $250 forward $57 $-1 #
coedge $-1 $247 $96 $93 $162 forward $167 $-1 #
edge $-1 $169 2.810017346758201 $251 21.148404490442726 $161 $252 forward 7 unknown #
coedge $-1 $253 $254 $94 $164 forward $156 $-1 #
edge $-1 $255 -46.94494403713432 $168 -43.245066893277254 $163 $256 forward 7 unknown #
edge $-1 $169 38.844357654431363 $255 44.373737216804628 $95 $257 forward 7 unknown #
coedge $-1 $96 $247 $253 $258 forward $167 $-1 #
loop $-1 $-1 $247 $155 #
vertex $-1 $164 $259 #
vertex $-1 $97 $260 #
straight-curve $-1 14.789228265358663 24.936086168122365 6.873142099774455 0 -1 0 I I #
coedge $-1 $171 $171 $-1 $261 reversed $100 $-1 #
edge $-1 $262 0 $262 6.2831853071796004 $101 $263 forward 7 unknown #
vertex $-1 $104 $264 #
ellipse-curve $-1 23.958421837200923 20.132303723496321 5.0232035278459142 0 0.66913061440640931 0.74314481823134659 1 0 0 1 I I #
face $-1 $-1 $265 $22 $-1 $266 reversed single #
loop $-1 $-1 $111 $105 #
plane-surface $-1 0 0 6.8731420997744515 0 0 1 1 0 0 forward_v I I I I #
coedge $-1 $267 $268 $269 $270 reversed $106 $-1 #
coedge $-1 $271 $108 $110 $185 forward $66 $-1 #
coedge $-1 $108 $271 $267 $272 forward $66 $-1 #
coedge $-1 $269 $111 $108 $182 forward $176 $-1 #
edge $-1 $188 -21.148404490442726 $273 -2.810017346758201 $181 $274 forward 7 unknown #
coedge $-1 $275 $276 $109 $184 forward $265 $-1 #
edge $-1 $277 -32.099031013439792 $187 -28.399153869582737 $183 $278 forward 7 unknown #
edge $-1 $188 -5.5293795623732604 $277 -9.4405131238556439e-015 $110 $279 forward 7 unknown #
coedge $-1 $111 $269 $275 $280 forward $176 $-1 #
vertex $-1 $112 $281 #
vertex $-1 $112 $282 #
straight-curve $-1 33.127615409043187 -41.424142607236277 6.8731420997744515 0 1 0 I I #
coedge $-1 $190 $190 $-1 $283 reversed $115 $-1 #
edge $-1 $284 0 $284 6.2831853071796004 $116 $285 forward 7 unknown #
vertex $-1 $119 $286 #
ellipse-curve $-1 23.958421837200923 -20.132303723496324 5.0232035278459257 0 -0.66913061440640931 0.74314481823134659 1 0 0 1 I I #
face $-1 $-1 $135 $18 $-1 $287 reversed single #
loop $-1 $-1 $210 $120 #
plane-surface $-1 0 22.186868608402321 0 0 -1 0 0 0 -1 forward_v I I I I #
coedge $-1 $288 $208 $211 $289 forward $121 $-1 #
coedge $-1 $214 $123 $124 $202 reversed $75 $-1 #
coedge $-1 $208 $288 $123 $200 reversed $121 $-1 #
edge $-1 $215 -6.8731420997744515 $290 6.8731420997744515 $199 $291 forward 7 unknown #
coedge $-1 $125 $124 $288 $292 forward $49 $-1 #
edge $-1 $206 -45.328531754509108 $290 45.328531754509108 $198 $293 forward 7 unknown #
coedge $-1 $211 $210 $125 $204 reversed $195 $-1 #
edge $-1 $294 -45.328531754509108 $205 45.328531754509108 $203 $295 forward 7 unknown #
vertex $-1 $127 $296 #
vertex $-1 $217 $297 #
straight-curve $-1 45.328531754509108 0 -6.8731420997744515 0 -1 0 I I #
coedge $-1 $197 $199 $128 $209 reversed $121 $-1 #
edge $-1 $212 -22.186868608402321 $215 22.186868608402321 $208 $298 forward 7 unknown #
coedge $-1 $203 $129 $134 $218 forward $195 $-1 #
coedge $-1 $129 $203 $197 $289 reversed $195 $-1 #
vertex $-1 $130 $299 #
straight-curve $-1 0 22.186868608402321 6.8731420997744515 -1 0 0 I I #
coedge $-1 $131 $198 $133 $217 reversed $75 $-1 #
vertex $-1 $209 $300 #
straight-curve $-1 0 -22.186868608402321 6.8731420997744515 1 0 0 I I #
edge $-1 $136 -6.8731420997744515 $206 6.8731420997744515 $133 $301 forward 7 unknown #
edge $-1 $137 -6.8731420997744515 $205 6.8731420997744515 $134 $302 forward 7 unknown #
point $-1 45.328531754509108 -22.186868608402321 6.8731420997744515 #
point $-1 45.328531754509108 22.186868608402321 6.8731420997744515 #
face $-1 $-1 $234 $19 $-1 $303 reversed single #
loop $-1 $-1 $230 $139 #
plane-surface $-1 -45.328531754509108 0 0 1 0 0 0 0 -1 forward_v I I I I #
coedge $-1 $304 $142 $227 $305 forward $83 $-1 #
coedge $-1 $142 $304 $306 $307 forward $83 $-1 #
edge $-1 $308 -22.186868608402321 $228 22.186868608402321 $142 $309 forward 7 unknown #
coedge $-1 $144 $237 $224 $305 reversed $140 $-1 #
vertex $-1 $305 $310 #
straight-curve $-1 -39.300840460342464 -22.186868608402321 -2.6865710498872257 0 0 1 I I #
coedge $-1 $311 $312 $146 $231 forward $222 $-1 #
edge $-1 $238 -22.186868608402321 $235 22.186868608402321 $230 $313 forward 7 unknown #
coedge $-1 $306 $147 $151 $240 forward $234 $-1 #
coedge $-1 $147 $306 $311 $314 reversed $234 $-1 #
loop $-1 $-1 $232 $221 #
vertex $-1 $314 $315 #
straight-curve $-1 -21.157343053712893 22.186868608402321 -3.8731420997744515 1 0 0 I I #
coedge $-1 $227 $149 $312 $316 forward $140 $-1 #
vertex $-1 $316 $317 #
straight-curve $-1 -21.157343053712893 -22.186868608402321 -3.8731420997744515 -1 0 0 I I #
edge $-1 $153 1.1865710498872257 $308 4.1865710498872257 $232 $318 forward 7 unknown #
point $-1 -39.300840460342464 -22.186868608402321 -3.8731420997744515 #
point $-1 -39.300840460342464 22.186868608402321 -3.8731420997744515 #
plane-surface $-1 0 0 6.8731420997744515 0 0 1 1 0 0 forward_v I I I I #
coedge $-1 $254 $253 $246 $319 forward $156 $-1 #
coedge $-1 $246 $158 $160 $250 reversed $91 $-1 #
coedge $-1 $158 $245 $244 $319 reversed $91 $-1 #
coedge $-1 $166 $161 $158 $248 forward $167 $-1 #
edge $-1 $251 -6.8583473295320481 $320 -2.7492175597200443 $247 $321 forward 7 unknown #
coedge $-1 $160 $159 $254 $322 reversed $57 $-1 #
edge $-1 $323 -44.373737216804628 $251 -38.844357654431363 $245 $324 forward 7 unknown #
vertex $-1 $162 $325 #
straight-curve $-1 11.979210918600462 18.077738838590321 6.8731420997744479 1 0 0 I I #
coedge $-1 $244 $163 $166 $258 reversed $156 $-1 #
coedge $-1 $163 $244 $249 $322 forward $156 $-1 #
vertex $-1 $164 $326 #
straight-curve $-1 14.789228265358663 22.186868608402321 50.118208993051702 0 0 1 I I #
straight-curve $-1 14.789228265358663 -10.789244269825495 32.865091003306418 0 0.74314481823134659 -0.66913061440640931 I I #
edge $-1 $320 -33.127615409043187 $168 -14.789228265358663 $253 $327 forward 7 unknown #
point $-1 14.789228265358663 22.186868608402321 6.8731420997744515 #
point $-1 14.789228265358663 18.077738838590317 6.8731420997744515 #
edge $-1 $328 1 $328 0 $171 $-1 forward 7 unknown #
vertex $-1 $172 $329 #
ellipse-curve $-1 23.958421837200923 18.19283169055926 2.8692016628133477 0 0.66913061440640931 0.74314481823134659 1 0 0 1 I I #
point $-1 24.958421837200923 20.132303723496321 5.0232035278459151 #
loop $-1 $-1 $183 $175 #
plane-surface $-1 0 -22.186868608402321 0 0 1 0 0 0 1 forward_v I I I I #
coedge $-1 $268 $178 $180 $272 reversed $106 $-1 #
coedge $-1 $178 $267 $330 $331 reversed $106 $-1 #
coedge $-1 $186 $181 $178 $270 forward $176 $-1 #
edge $-1 $273 -23.346403768645949 $332 -19.237273998833956 $269 $333 forward 7 unknown #
coedge $-1 $180 $179 $276 $334 reversed $66 $-1 #
edge $-1 $335 9.4405131238556439e-015 $273 5.5293795623732604 $267 $336 forward 7 unknown #
vertex $-1 $182 $337 #
straight-curve $-1 11.979210918600462 -18.077738838590328 6.8731420997744515 -1 0 0 I I #
coedge $-1 $330 $183 $186 $280 reversed $265 $-1 #
coedge $-1 $183 $330 $271 $334 forward $265 $-1 #
vertex $-1 $184 $338 #
straight-curve $-1 33.127615409043187 -22.186868608402321 35.272295969357188 0 0 1 I I #
straight-curve $-1 33.127615409043187 -22.186868608402328 3.1732649559173893 0 -0.74314481823134659 -0.66913061440640931 I I #
edge $-1 $332 14.789228265358663 $187 33.127615409043187 $275 $339 forward 7 unknown #
point $-1 33.127615409043187 -22.186868608402321 6.8731420997744515 #
point $-1 33.127615409043187 -18.077738838590328 6.8731420997744515 #
edge $-1 $340 1 $340 0 $190 $-1 forward 7 unknown #
vertex $-1 $191 $341 #
ellipse-curve $-1 23.958421837200923 -18.192831690559252 2.8692016628133512 0 -0.66913061440640931 0.74314481823134659 1 0 0 1 I I #
point $-1 24.958421837200923 -20.132303723496317 5.0232035278459186 #
plane-surface $-1 45.328531754509108 0 0 -1 0 0 0 0 1 forward_v I I I I #
coedge $-1 $199 $197 $201 $292 reversed $121 $-1 #
edge $-1 $212 -6.8731420997744515 $294 6.8731420997744515 $211 $342 forward 7 unknown #
vertex $-1 $292 $343 #
straight-curve $-1 -45.328531754509108 -22.186868608402321 0 0 0 -1 I I #
edge $-1 $290 -22.186868608402321 $294 22.186868608402321 $288 $344 forward 7 unknown #
straight-curve $-1 0 -22.186868608402321 -6.8731420997744515 -1 0 0 I I #
vertex $-1 $204 $345 #
straight-curve $-1 0 22.186868608402321 -6.8731420997744515 1 0 0 I I #
point $-1 45.328531754509108 22.186868608402321 -6.8731420997744515 #
point $-1 45.328531754509108 -22.186868608402321 -6.8731420997744515 #
straight-curve $-1 -45.328531754509108 0 6.8731420997744515 0 -1 0 I I #
point $-1 -45.328531754509108 22.186868608402321 6.8731420997744515 #
point $-1 -45.328531754509108 -22.186868608402321 6.8731420997744515 #
straight-curve $-1 45.328531754509108 -22.186868608402321 0 0 0 -1 I I #
straight-curve $-1 45.328531754509108 22.186868608402321 0 0 0 -1 I I #
plane-surface $-1 0 22.186868608402321 0 0 -1 0 0 0 -1 forward_v I I I I #
coedge $-1 $225 $224 $346 $347 forward $83 $-1 #
edge $-1 $228 39.300840460342464 $348 45.328531754509108 $227 $349 forward 7 unknown #
coedge $-1 $233 $232 $225 $307 reversed $234 $-1 #
edge $-1 $350 -45.328531754509108 $308 -39.300840460342464 $306 $351 forward 7 unknown #
vertex $-1 $240 $352 #
straight-curve $-1 -39.300840460342464 0 -6.8731420997744515 0 -1 0 I I #
point $-1 -39.300840460342464 -22.186868608402321 -6.8731420997744515 #
coedge $-1 $346 $230 $233 $314 forward $222 $-1 #
coedge $-1 $230 $346 $237 $316 reversed $222 $-1 #
straight-curve $-1 -45.328531754509108 0 -3.8731420997744515 0 1 0 I I #
edge $-1 $235 3.8731420997744515 $350 6.8731420997744515 $233 $353 forward 7 unknown #
point $-1 -45.328531754509108 22.186868608402321 -3.8731420997744515 #
edge $-1 $238 3.8731420997744515 $348 6.8731420997744515 $312 $354 forward 7 unknown #
point $-1 -45.328531754509108 -22.186868608402321 -3.8731420997744515 #
straight-curve $-1 -39.300840460342464 22.186868608402321 -2.6865710498872257 0 0 -1 I I #
edge $-1 $320 43.245066893277254 $323 46.94494403713432 $244 $355 forward 7 unknown #
vertex $-1 $258 $356 #
straight-curve $-1 33.127615409043187 24.936086168122365 6.873142099774455 0 1 0 I I #
edge $-1 $323 -21.148404490442726 $255 -2.810017346758201 $254 $357 forward 7 unknown #
vertex $-1 $322 $358 #
straight-curve $-1 33.127615409043187 -10.789244269825495 32.865091003306418 0 -0.74314481823134659 0.66913061440640931 I I #
point $-1 33.127615409043187 18.077738838590317 6.8731420997744515 #
point $-1 14.789228265358663 22.186868608402321 3.1732649559173858 #
straight-curve $-1 0 22.186868608402321 6.8731420997744515 -1 0 0 I I #
vertex $-1 $261 $359 #
point $-1 24.958421837200923 18.19283169055926 2.8692016628133477 #
coedge $-1 $276 $275 $268 $331 forward $265 $-1 #
edge $-1 $332 28.399153869582737 $335 32.099031013439792 $330 $360 forward 7 unknown #
vertex $-1 $280 $361 #
straight-curve $-1 14.789228265358663 -41.424142607236277 6.8731420997744515 0 -1 0 I I #
edge $-1 $335 2.810017346758201 $277 21.148404490442726 $276 $362 forward 7 unknown #
vertex $-1 $334 $363 #
straight-curve $-1 14.789228265358663 -22.186868608402328 3.1732649559173893 0 0.74314481823134659 0.66913061440640931 I I #
point $-1 14.789228265358663 -18.077738838590328 6.8731420997744515 #
point $-1 33.127615409043187 -22.186868608402321 3.1732649559173955 #
straight-curve $-1 0 -22.186868608402321 6.8731420997744515 1 0 0 I I #
vertex $-1 $283 $364 #
point $-1 24.958421837200923 -18.192831690559252 2.8692016628133512 #
straight-curve $-1 -45.328531754509108 22.186868608402321 0 0 0 -1 I I #
point $-1 -45.328531754509108 -22.186868608402321 -6.8731420997744515 #
straight-curve $-1 -45.328531754509108 0 -6.8731420997744515 0 1 0 I I #
point $-1 -45.328531754509108 22.186868608402321 -6.8731420997744515 #
coedge $-1 $312 $311 $304 $347 reversed $222 $-1 #
edge $-1 $348 -22.186868608402321 $350 22.186868608402321 $346 $365 forward 7 unknown #
vertex $-1 $347 $366 #
straight-curve $-1 0 -22.186868608402321 -6.8731420997744515 -1 0 0 I I #
vertex $-1 $307 $367 #
straight-curve $-1 0 22.186868608402321 -6.8731420997744515 1 0 0 I I #
point $-1 -39.300840460342464 22.186868608402321 -6.8731420997744515 #
straight-curve $-1 -45.328531754509108 22.186868608402321 0 0 0 -1 I I #
straight-curve $-1 -45.328531754509108 -22.186868608402321 0 0 0 -1 I I #
straight-curve $-1 33.127615409043187 22.186868608402321 50.118208993051702 0 0 -1 I I #
point $-1 33.127615409043187 22.186868608402321 6.8731420997744515 #
straight-curve $-1 11.979210918600462 22.186868608402321 3.1732649559173876 -1 0 0 I I #
point $-1 33.127615409043187 22.186868608402321 3.1732649559173858 #
point $-1 23.958421837200923 17.523701076152847 2.1260568445820009 #
straight-curve $-1 14.789228265358663 -22.186868608402321 35.272295969357188 0 0 -1 I I #
point $-1 14.789228265358663 -22.186868608402321 6.8731420997744515 #
straight-curve $-1 11.979210918600462 -22.186868608402321 3.1732649559173964 1 0 0 I I #
point $-1 14.789228265358663 -22.186868608402321 3.1732649559173955 #
point $-1 23.958421837200923 -17.523701076152847 2.1260568445820045 #
straight-curve $-1 -45.328531754509108 0 -6.8731420997744515 0 1 0 I I #
point $-1 -45.328531754509108 -22.186868608402321 -6.8731420997744515 #
point $-1 -45.328531754509108 22.186868608402321 -6.8731420997744515 #
End-of-ACIS-data 