500 0 5 0           
7 Unknown 11 ACIS 5.0 NT 24 Thu Mar 25 15:13:57 1999 
-1 9.9999999999999995e-007 1e-010 
body $-1 $5 $-1 $6 #
body $-1 $7 $-1 $8 #
body $-1 $9 $-1 $10 #
body $-1 $11 $-1 $12 #
body $-1 $13 $-1 $14 #
lump $-1 $-1 $15 $0 #
transform $-1 1 0 0 0 1 0 0 0 1 68.001342814416944 46.619738307362397 16.271024238735858 1 rotate no_reflect no_shear #
lump $-1 $-1 $16 $1 #
transform $-1 1 0 0 0 1 0 0 0 1 68.001342814416944 46.619738307362397 16.271024238735858 1 rotate no_reflect no_shear #
lump $-1 $-1 $17 $2 #
transform $-1 1 0 0 0 1 0 0 0 1 68.001342814416944 46.619738307362397 16.271024238735858 1 rotate no_reflect no_shear #
lump $-1 $-1 $18 $3 #
transform $-1 1 0 0 0 1 0 0 0 1 68.001342814416944 46.619738307362397 16.271024238735858 1 rotate no_reflect no_shear #
lump $-1 $-1 $19 $4 #
transform $-1 1 0 0 0 1 0 0 0 1 68.001342814416944 46.619738307362397 16.271024238735858 1 rotate no_reflect no_shear #
shell $-1 $-1 $-1 $20 $-1 $5 #
shell $-1 $-1 $-1 $21 $-1 $7 #
shell $-1 $-1 $-1 $22 $-1 $9 #
shell $-1 $-1 $-1 $23 $-1 $11 #
shell $-1 $-1 $-1 $24 $-1 $13 #
face $-1 $25 $26 $15 $-1 $27 forward single #
face $-1 $28 $29 $16 $-1 $30 forward single #
face $-1 $31 $32 $17 $-1 $33 forward single #
face $-1 $34 $35 $18 $-1 $36 reversed single #
face $-1 $37 $38 $19 $-1 $39 reversed single #
face $-1 $40 $41 $15 $-1 $42 reversed single #
loop $-1 $-1 $43 $20 #
plane-surface $-1 0 0 16.271024238735858 0 0 1 1 0 0 forward_v I I I I #
face $-1 $44 $45 $16 $-1 $46 reversed single #
loop $-1 $-1 $47 $21 #
plane-surface $-1 -73.453861506134217 0 -3.7681567062333343 0 0 1 1 0 0 forward_v I I I I #
face $-1 $48 $49 $17 $-1 $50 forward single #
loop $-1 $-1 $51 $22 #
plane-surface $-1 -57.096305430982383 68.332865002270196 164.4298928386871 1 0 0 0 -0.66913061440640931 -0.74314481823134659 forward_v I I I I #
face $-1 $52 $53 $18 $-1 $54 reversed single #
loop $-1 $55 $56 $23 #
cone-surface $-1 -48.613713087811796 37.056532098559778 7.4360023736791128 0 -0.66913061440640931 -0.74314481823134659 1.5 0 0 1 I I 0 1 1.5 forward I I I I #
face $-1 $57 $58 $19 $-1 $59 reversed single #
loop $-1 $60 $61 $24 #
cone-surface $-1 -35.889824573055904 37.056532098559778 7.4360023736791128 0 -0.66913061440640931 -0.74314481823134659 1.5 0 0 1 I I 0 1 1.5 forward I I I I #
face $-1 $62 $63 $15 $-1 $64 reversed single #
loop $-1 $-1 $65 $25 #
plane-surface $-1 0 0 -16.271024238735858 0 0 1 1 0 0 forward_v I I I I #
coedge $-1 $66 $67 $68 $69 forward $26 $-1 #
face $-1 $70 $71 $16 $-1 $72 reversed single #
loop $-1 $-1 $73 $28 #
plane-surface $-1 -73.453861506134217 0 -7.6541939231741303 0 0 1 1 0 0 forward_v I I I I #
coedge $-1 $74 $75 $76 $77 reversed $29 $-1 #
face $-1 $78 $79 $17 $-1 $80 forward single #
loop $-1 $-1 $81 $31 #
plane-surface $-1 -42.251768830433846 -22.670695593473155 63.360201748072356 0 0.66913061440640931 0.74314481823134659 1 0 0 forward_v I I I I #
coedge $-1 $82 $83 $84 $85 reversed $32 $-1 #
face $-1 $86 $87 $18 $-1 $88 forward single #
loop $-1 $89 $90 $34 #
cone-surface $-1 -48.613713087811796 35.487780521384124 5.6937272773520071 0 -0.66913061440640931 -0.74314481823134659 0.75 0 0 1 I I -0.70710678118654757 0.70710678118654757 0.75 forward I I I I #
loop $-1 $-1 $91 $23 #
coedge $-1 $56 $56 $92 $93 reversed $35 $-1 #
face $-1 $94 $95 $19 $-1 $96 reversed single #
loop $-1 $97 $98 $37 #
cone-surface $-1 -35.889824573055904 35.487780521384124 5.6937272773520071 0 -0.66913061440640931 -0.74314481823134659 0.75 0 0 1 I I -0.70710678118654757 0.70710678118654757 0.75 forward I I I I #
loop $-1 $-1 $99 $24 #
coedge $-1 $61 $61 $100 $101 reversed $38 $-1 #
face $-1 $102 $103 $15 $-1 $104 reversed single #
loop $-1 $-1 $105 $40 #
plane-surface $-1 0 -46.619738307362397 0 0 1 0 0 0 1 forward_v I I I I #
coedge $-1 $106 $107 $108 $109 forward $41 $-1 #
coedge $-1 $110 $43 $111 $112 forward $26 $-1 #
coedge $-1 $43 $110 $113 $114 forward $26 $-1 #
coedge $-1 $115 $116 $43 $69 reversed $117 $-1 #
edge $-1 $118 -46.619738307362397 $119 46.619738307362397 $68 $120 forward 7 unknown #
face $-1 $121 $122 $16 $-1 $123 reversed single #
loop $-1 $-1 $124 $44 #
plane-surface $-1 -78.90638019785149 0 -5.7111753147037323 1 0 0 0 0 -1 forward_v I I I I #
coedge $-1 $125 $126 $127 $128 reversed $45 $-1 #
coedge $-1 $129 $47 $130 $131 forward $29 $-1 #
coedge $-1 $47 $129 $132 $133 forward $29 $-1 #
coedge $-1 $134 $135 $47 $77 forward $136 $-1 #
edge $-1 $137 -46.619738307362397 $138 46.619738307362397 $76 $139 forward 7 unknown #
face $-1 $140 $141 $17 $-1 $142 forward single #
loop $-1 $-1 $143 $48 #
plane-surface $-1 -27.407232229885306 68.332865002270196 164.4298928386871 -1 0 0 0 0.66913061440640931 0.74314481823134659 forward_v I I I I #
coedge $-1 $144 $145 $146 $147 reversed $49 $-1 #
coedge $-1 $83 $51 $145 $148 forward $32 $-1 #
coedge $-1 $51 $82 $149 $150 reversed $32 $-1 #
coedge $-1 $151 $146 $51 $85 forward $141 $-1 #
edge $-1 $152 -4.5392993786362723 $153 12.453305806227299 $84 $154 forward 7 unknown #
face $-1 $155 $156 $18 $-1 $157 forward single #
loop $-1 $-1 $158 $52 #
plane-surface $-1 -57.096305430982383 68.332865002270196 164.4298928386871 1 0 0 0 -0.66913061440640931 -0.74314481823134659 forward_v I I I I #
loop $-1 $-1 $159 $34 #
coedge $-1 $90 $90 $91 $160 forward $53 $-1 #
coedge $-1 $91 $91 $90 $160 reversed $55 $-1 #
coedge $-1 $92 $92 $56 $93 forward $156 $-1 #
edge $-1 $161 -1.051805097417532e-015 $161 6.2831853071795996 $92 $162 forward 7 unknown #
face $-1 $163 $164 $19 $-1 $165 reversed single #
loop $-1 $166 $167 $57 #
cone-surface $-1 -48.613713087811796 37.056532098559778 7.4360023736791128 0 -0.66913061440640931 -0.74314481823134659 1.5 0 0 1 I I 0 1 1.5 forward I I I I #
loop $-1 $-1 $168 $37 #
coedge $-1 $98 $98 $99 $169 forward $58 $-1 #
coedge $-1 $99 $99 $98 $169 reversed $60 $-1 #
coedge $-1 $100 $100 $61 $101 forward $170 $-1 #
edge $-1 $171 -1.051805097417532e-015 $171 6.2831853071795996 $100 $172 forward 7 unknown #
face $-1 $173 $174 $15 $-1 $175 reversed single #
loop $-1 $-1 $176 $62 #
plane-surface $-1 -68.001342814416944 0 0 1 0 0 0 0 -1 forward_v I I I I #
coedge $-1 $177 $113 $178 $179 forward $63 $-1 #
coedge $-1 $180 $65 $177 $181 forward $41 $-1 #
coedge $-1 $65 $180 $182 $183 forward $41 $-1 #
coedge $-1 $116 $115 $65 $109 reversed $117 $-1 #
edge $-1 $184 -46.619738307362397 $185 46.619738307362397 $108 $186 forward 7 unknown #
coedge $-1 $67 $66 $187 $188 forward $26 $-1 #
coedge $-1 $189 $190 $66 $112 reversed $174 $-1 #
edge $-1 $119 -68.001342814416944 $191 68.001342814416944 $111 $192 forward 7 unknown #
coedge $-1 $105 $193 $67 $114 reversed $63 $-1 #
edge $-1 $194 -68.001342814416944 $118 68.001342814416944 $113 $195 forward 7 unknown #
coedge $-1 $108 $68 $193 $196 forward $117 $-1 #
coedge $-1 $68 $108 $189 $197 reversed $117 $-1 #
loop $-1 $-1 $115 $173 #
vertex $-1 $69 $198 #
vertex $-1 $69 $199 #
straight-curve $-1 68.001342814416944 0 16.271024238735858 0 1 0 I I #
face $-1 $200 $136 $16 $-1 $123 reversed single #
loop $-1 $-1 $127 $70 #
plane-surface $-1 -68.001342814416944 0 0 1 0 0 0 0 -1 forward_v I I I I #
coedge $-1 $201 $202 $203 $204 forward $71 $-1 #
coedge $-1 $205 $73 $206 $207 forward $45 $-1 #
coedge $-1 $73 $205 $208 $209 forward $45 $-1 #
coedge $-1 $210 $211 $73 $128 forward $122 $-1 #
edge $-1 $212 -46.619738307362397 $213 46.619738307362397 $127 $214 forward 7 unknown #
coedge $-1 $75 $74 $202 $215 forward $29 $-1 #
coedge $-1 $216 $203 $74 $131 reversed $217 $-1 #
edge $-1 $137 -5.4525186917172732 $218 5.4525186917172732 $130 $219 forward 7 unknown #
coedge $-1 $220 $221 $75 $133 reversed $222 $-1 #
edge $-1 $223 -5.4525186917172732 $138 5.4525186917172732 $132 $224 forward 7 unknown #
coedge $-1 $225 $76 $221 $226 reversed $136 $-1 #
coedge $-1 $76 $225 $216 $227 forward $136 $-1 #
loop $-1 $-1 $76 $121 #
vertex $-1 $227 $228 #
vertex $-1 $133 $229 #
straight-curve $-1 -68.001342814416944 0 -3.7681567062333343 0 -1 0 I I #
face $-1 $230 $231 $17 $-1 $232 forward single #
loop $-1 $-1 $233 $78 #
plane-surface $-1 0 0 16.271024238735858 0 0 1 1 0 0 forward_v I I I I #
coedge $-1 $234 $235 $233 $236 reversed $79 $-1 #
coedge $-1 $237 $81 $235 $238 reversed $49 $-1 #
coedge $-1 $81 $237 $82 $148 reversed $49 $-1 #
coedge $-1 $84 $233 $81 $147 forward $141 $-1 #
edge $-1 $239 6.2813478146683828 $152 35.97042101576546 $146 $240 forward 7 unknown #
edge $-1 $152 70.373670693739896 $241 93.239476614724794 $82 $242 forward 7 unknown #
coedge $-1 $243 $244 $83 $150 forward $245 $-1 #
edge $-1 $153 65.943922180607686 $241 81.244132945414023 $149 $246 forward 7 unknown #
coedge $-1 $247 $84 $244 $248 forward $141 $-1 #
vertex $-1 $147 $249 #
vertex $-1 $248 $250 #
straight-curve $-1 -57.096305430982383 34.166432501135098 16.271024238735862 0 1 0 I I #
face $-1 $251 $252 $18 $-1 $253 forward single #
loop $-1 $254 $92 $86 #
plane-surface $-1 -42.251768830433846 -22.670695593473155 63.360201748072356 0 0.66913061440640931 0.74314481823134659 1 0 0 forward_v I I I I #
coedge $-1 $255 $256 $257 $258 reversed $87 $-1 #
coedge $-1 $159 $159 $-1 $259 forward $89 $-1 #
edge $-1 $260 0 $260 6.2831853071796004 $90 $261 forward 7 unknown #
vertex $-1 $93 $262 #
ellipse-curve $-1 -48.613713087811796 38.123435714930608 8.6209188563326862 0 -0.66913061440640931 -0.74314481823134659 1.5 0 0 1 I I #
face $-1 $263 $264 $19 $-1 $265 forward single #
loop $-1 $266 $267 $94 #
cone-surface $-1 -48.613713087811796 35.487780521384124 5.6937272773520071 0 -0.66913061440640931 -0.74314481823134659 0.75 0 0 1 I I -0.70710678118654757 0.70710678118654757 0.75 forward I I I I #
loop $-1 $-1 $268 $57 #
coedge $-1 $167 $167 $269 $270 reversed $95 $-1 #
coedge $-1 $168 $168 $-1 $271 forward $97 $-1 #
edge $-1 $272 0 $272 6.2831853071796004 $98 $273 forward 7 unknown #
loop $-1 $274 $100 $263 #
vertex $-1 $101 $275 #
ellipse-curve $-1 -35.889824573055904 38.123435714930608 8.6209188563326862 0 -0.66913061440640931 -0.74314481823134659 1.5 0 0 1 I I #
face $-1 $-1 $117 $15 $-1 $276 reversed single #
loop $-1 $-1 $189 $102 #
plane-surface $-1 0 46.619738307362397 0 0 -1 0 0 0 -1 forward_v I I I I #
coedge $-1 $277 $187 $190 $278 forward $103 $-1 #
coedge $-1 $193 $105 $106 $181 reversed $63 $-1 #
coedge $-1 $187 $277 $105 $179 reversed $103 $-1 #
edge $-1 $194 -16.271024238735858 $279 16.271024238735858 $178 $280 forward 7 unknown #
coedge $-1 $107 $106 $277 $281 forward $41 $-1 #
edge $-1 $185 -68.001342814416944 $279 68.001342814416944 $177 $282 forward 7 unknown #
coedge $-1 $190 $189 $107 $183 reversed $174 $-1 #
edge $-1 $283 -68.001342814416944 $184 68.001342814416944 $182 $284 forward 7 unknown #
vertex $-1 $109 $285 #
vertex $-1 $196 $286 #
straight-curve $-1 68.001342814416944 0 -16.271024238735858 0 -1 0 I I #
coedge $-1 $176 $178 $110 $188 reversed $103 $-1 #
edge $-1 $191 -46.619738307362397 $194 46.619738307362397 $187 $287 forward 7 unknown #
coedge $-1 $182 $111 $116 $197 forward $174 $-1 #
coedge $-1 $111 $182 $176 $278 reversed $174 $-1 #
vertex $-1 $112 $288 #
straight-curve $-1 0 46.619738307362397 16.271024238735858 -1 0 0 I I #
coedge $-1 $113 $177 $115 $196 reversed $63 $-1 #
vertex $-1 $188 $289 #
straight-curve $-1 0 -46.619738307362397 16.271024238735858 1 0 0 I I #
edge $-1 $118 -16.271024238735858 $185 16.271024238735858 $115 $290 forward 7 unknown #
edge $-1 $119 -16.271024238735858 $184 16.271024238735858 $116 $291 forward 7 unknown #
point $-1 68.001342814416944 -46.619738307362397 16.271024238735858 #
point $-1 68.001342814416944 46.619738307362397 16.271024238735858 #
face $-1 $292 $293 $16 $-1 $294 forward single #
coedge $-1 $295 $124 $205 $296 reversed $71 $-1 #
coedge $-1 $124 $295 $129 $215 reversed $71 $-1 #
coedge $-1 $130 $208 $124 $204 reversed $217 $-1 #
edge $-1 $218 -1.943018608470398 $297 1.943018608470398 $203 $298 forward 7 unknown #
coedge $-1 $126 $125 $201 $296 forward $45 $-1 #
coedge $-1 $299 $220 $125 $207 reversed $222 $-1 #
edge $-1 $212 -5.4525186917172732 $300 5.4525186917172732 $206 $301 forward 7 unknown #
coedge $-1 $203 $302 $126 $209 reversed $217 $-1 #
edge $-1 $297 -5.4525186917172732 $213 5.4525186917172732 $208 $303 forward 7 unknown #
coedge $-1 $304 $127 $302 $305 forward $122 $-1 #
coedge $-1 $127 $304 $299 $306 reversed $122 $-1 #
vertex $-1 $306 $307 #
vertex $-1 $305 $308 #
straight-curve $-1 -68.001342814416944 0 -7.6541939231741303 0 1 0 I I #
edge $-1 $218 -46.619738307362397 $223 46.619738307362397 $202 $309 forward 7 unknown #
coedge $-1 $310 $130 $135 $227 reversed $217 $-1 #
loop $-1 $-1 $311 $312 #
vertex $-1 $131 $313 #
straight-curve $-1 -73.453861506134217 46.619738307362397 -3.7681567062333343 -1 0 0 I I #
coedge $-1 $206 $132 $295 $314 forward $222 $-1 #
coedge $-1 $132 $315 $134 $226 forward $222 $-1 #
loop $-1 $-1 $221 $316 #
vertex $-1 $215 $317 #
straight-curve $-1 -73.453861506134217 -46.619738307362397 -3.7681567062333343 1 0 0 I I #
coedge $-1 $135 $134 $318 $319 reversed $136 $-1 #
edge $-1 $320 -16.271024238735858 $138 3.7681567062333343 $134 $321 forward 7 unknown #
edge $-1 $322 -16.271024238735858 $137 3.7681567062333343 $216 $323 forward 7 unknown #
point $-1 -68.001342814416944 46.619738307362397 -3.7681567062333343 #
point $-1 -68.001342814416944 -46.619738307362397 -3.7681567062333343 #
face $-1 $324 $325 $17 $-1 $326 reversed single #
loop $-1 $-1 $327 $140 #
plane-surface $-1 -73.453861506134217 0 -3.7681567062333343 0 0 1 1 0 0 forward_v I I I I #
coedge $-1 $146 $328 $143 $236 forward $141 $-1 #
coedge $-1 $235 $143 $329 $330 reversed $79 $-1 #
coedge $-1 $143 $234 $144 $238 forward $79 $-1 #
edge $-1 $331 -12.453305806227299 $239 4.5392993786362723 $233 $332 forward 7 unknown #
coedge $-1 $145 $144 $243 $333 reversed $49 $-1 #
edge $-1 $334 -93.239476614724794 $239 -70.373670693739896 $235 $335 forward 7 unknown #
vertex $-1 $147 $336 #
straight-curve $-1 -21.125884415216923 29.627133122498837 16.271024238735855 -1 0 0 I I #
vertex $-1 $333 $337 #
straight-curve $-1 -57.096305430982383 -22.670695593473155 63.360201748072356 0 0.74314481823134659 -0.66913061440640931 I I #
coedge $-1 $329 $149 $237 $333 forward $245 $-1 #
coedge $-1 $149 $338 $151 $248 reversed $245 $-1 #
loop $-1 $-1 $329 $339 #
straight-curve $-1 -57.096305430982383 46.619738307362397 82.214946419343548 0 0 -1 I I #
coedge $-1 $340 $151 $341 $342 forward $141 $-1 #
edge $-1 $153 57.096305430982383 $343 68.001342814416944 $244 $344 forward 7 unknown #
point $-1 -57.096305430982383 29.627133122498826 16.271024238735862 #
point $-1 -57.096305430982383 46.619738307362397 16.271024238735858 #
face $-1 $345 $346 $18 $-1 $347 forward single #
loop $-1 $-1 $348 $155 #
plane-surface $-1 -27.407232229885306 68.332865002270196 164.4298928386871 -1 0 0 0 0.66913061440640931 0.74314481823134659 forward_v I I I I #
loop $-1 $-1 $349 $86 #
coedge $-1 $256 $158 $350 $351 forward $87 $-1 #
coedge $-1 $158 $255 $352 $353 reversed $87 $-1 #
coedge $-1 $354 $355 $158 $258 forward $346 $-1 #
edge $-1 $356 -4.5392993786362723 $357 12.453305806227299 $257 $358 forward 7 unknown #
edge $-1 $359 1 $359 0 $159 $-1 forward 7 unknown #
vertex $-1 $160 $360 #
ellipse-curve $-1 -48.613713087811796 35.989628482188934 6.2510858910255171 0 0.66913061440640931 0.74314481823134659 1.5 0 0 1 I I #
point $-1 -47.113713087811796 38.123435714930629 8.6209188563327075 #
face $-1 $361 $170 $19 $-1 $362 forward single #
loop $-1 $-1 $363 $163 #
plane-surface $-1 -57.096305430982383 68.332865002270196 164.4298928386871 1 0 0 0 -0.66913061440640931 -0.74314481823134659 forward_v I I I I #
loop $-1 $-1 $364 $94 #
coedge $-1 $267 $267 $268 $365 forward $164 $-1 #
coedge $-1 $268 $268 $267 $365 reversed $166 $-1 #
coedge $-1 $269 $269 $167 $270 forward $274 $-1 #
edge $-1 $366 -1.051805097417532e-015 $366 6.2831853071795996 $269 $367 forward 7 unknown #
edge $-1 $368 1 $368 0 $168 $-1 forward 7 unknown #
vertex $-1 $169 $369 #
ellipse-curve $-1 -35.889824573055904 35.989628482188934 6.2510858910255171 0 0.66913061440640931 0.74314481823134659 1.5 0 0 1 I I #
loop $-1 $370 $269 $263 #
point $-1 -34.389824573055904 38.123435714930629 8.6209188563327075 #
plane-surface $-1 68.001342814416944 0 0 -1 0 0 0 0 1 forward_v I I I I #
coedge $-1 $178 $176 $180 $281 reversed $103 $-1 #
edge $-1 $191 -16.271024238735858 $283 16.271024238735858 $190 $371 forward 7 unknown #
vertex $-1 $281 $372 #
straight-curve $-1 -68.001342814416944 -46.619738307362397 0 0 0 -1 I I #
edge $-1 $279 -46.619738307362397 $283 46.619738307362397 $277 $373 forward 7 unknown #
straight-curve $-1 0 -46.619738307362397 -16.271024238735858 -1 0 0 I I #
vertex $-1 $183 $374 #
straight-curve $-1 0 46.619738307362397 -16.271024238735858 1 0 0 I I #
point $-1 68.001342814416944 46.619738307362397 -16.271024238735858 #
point $-1 68.001342814416944 -46.619738307362397 -16.271024238735858 #
straight-curve $-1 -68.001342814416944 0 16.271024238735858 0 -1 0 I I #
point $-1 -68.001342814416944 46.619738307362397 16.271024238735858 #
point $-1 -68.001342814416944 -46.619738307362397 16.271024238735858 #
straight-curve $-1 68.001342814416944 -46.619738307362397 0 0 0 -1 I I #
straight-curve $-1 68.001342814416944 46.619738307362397 0 0 0 -1 I I #
face $-1 $316 $375 $16 $-1 $376 reversed single #
loop $-1 $-1 $377 $200 #
plane-surface $-1 0 0 16.271024238735858 0 0 1 1 0 0 forward_v I I I I #
coedge $-1 $202 $201 $220 $314 reversed $71 $-1 #
edge $-1 $300 -46.619738307362397 $297 46.619738307362397 $201 $378 forward 7 unknown #
vertex $-1 $209 $379 #
straight-curve $-1 -78.90638019785149 46.619738307362397 -5.7111753147037323 0 0 -1 I I #
coedge $-1 $380 $206 $211 $306 forward $222 $-1 #
vertex $-1 $296 $381 #
straight-curve $-1 -73.453861506134217 -46.619738307362397 -7.6541939231741303 -1 0 0 I I #
coedge $-1 $208 $382 $210 $305 reversed $217 $-1 #
straight-curve $-1 -73.453861506134217 46.619738307362397 -7.6541939231741303 1 0 0 I I #
coedge $-1 $211 $210 $383 $384 reversed $122 $-1 #
edge $-1 $213 7.6541939231741303 $385 16.271024238735858 $302 $323 forward 7 unknown #
edge $-1 $212 7.6541939231741303 $386 16.271024238735858 $211 $321 forward 7 unknown #
point $-1 -68.001342814416944 -46.619738307362397 -7.6541939231741303 #
point $-1 -68.001342814416944 46.619738307362397 -7.6541939231741303 #
straight-curve $-1 -78.90638019785149 0 -3.7681567062333343 0 -1 0 I I #
coedge $-1 $311 $216 $387 $388 reversed $217 $-1 #
coedge $-1 $382 $310 $389 $390 forward $217 $-1 #
face $-1 $391 $217 $16 $-1 $392 reversed single #
point $-1 -78.90638019785149 46.619738307362397 -3.7681567062333343 #
edge $-1 $223 -1.943018608470398 $300 1.943018608470398 $295 $393 forward 7 unknown #
coedge $-1 $221 $394 $395 $396 reversed $222 $-1 #
face $-1 $312 $222 $16 $-1 $397 reversed single #
point $-1 -78.90638019785149 -46.619738307362397 -3.7681567062333343 #
coedge $-1 $395 $387 $225 $319 forward $293 $-1 #
edge $-1 $322 -46.619738307362397 $320 46.619738307362397 $225 $398 forward 7 unknown #
vertex $-1 $319 $399 #
straight-curve $-1 -68.001342814416944 -46.619738307362397 0 0 0 -1 I I #
vertex $-1 $388 $400 #
straight-curve $-1 -68.001342814416944 46.619738307362397 0 0 0 -1 I I #
face $-1 $401 $402 $17 $-1 $403 reversed single #
loop $-1 $-1 $404 $230 #
plane-surface $-1 -73.453861506134217 0 -7.6541939231741303 0 0 1 1 0 0 forward_v I I I I #
coedge $-1 $405 $406 $407 $408 reversed $231 $-1 #
coedge $-1 $233 $409 $410 $411 forward $141 $-1 #
coedge $-1 $410 $243 $234 $330 forward $245 $-1 #
edge $-1 $334 -81.244132945414023 $331 -65.943922180607686 $329 $412 forward 7 unknown #
vertex $-1 $330 $413 #
straight-curve $-1 -27.407232229885306 34.166432501135098 16.271024238735862 0 -1 0 I I #
edge $-1 $241 -35.97042101576546 $334 -6.2813478146683828 $243 $414 forward 7 unknown #
vertex $-1 $333 $415 #
straight-curve $-1 -27.407232229885306 -22.670695593473155 63.360201748072356 0 -0.74314481823134659 0.66913061440640931 I I #
point $-1 -27.407232229885306 29.627133122498826 16.271024238735862 #
point $-1 -57.096305430982383 46.619738307362397 0.97081347392952466 #
coedge $-1 $244 $416 $417 $418 reversed $245 $-1 #
face $-1 $419 $245 $17 $-1 $420 reversed single #
coedge $-1 $409 $247 $421 $422 forward $141 $-1 #
coedge $-1 $417 $423 $247 $342 reversed $424 $-1 #
edge $-1 $343 -46.619738307362397 $425 46.619738307362397 $341 $426 forward 7 unknown #
vertex $-1 $248 $427 #
straight-curve $-1 0 46.619738307362397 16.271024238735858 -1 0 0 I I #
face $-1 $428 $429 $18 $-1 $430 forward single #
loop $-1 $-1 $431 $251 #
plane-surface $-1 0 0 16.271024238735858 0 0 1 1 0 0 forward_v I I I I #
coedge $-1 $432 $433 $431 $434 reversed $252 $-1 #
coedge $-1 $435 $350 $355 $436 reversed $254 $-1 #
coedge $-1 $349 $437 $255 $351 reversed $254 $-1 #
edge $-1 $356 70.373670693739896 $438 93.239476614724794 $255 $439 forward 7 unknown #
coedge $-1 $440 $441 $256 $353 forward $442 $-1 #
edge $-1 $357 65.943922180607686 $438 81.244132945414023 $352 $443 forward 7 unknown #
coedge $-1 $444 $257 $441 $445 forward $346 $-1 #
coedge $-1 $257 $431 $349 $436 forward $346 $-1 #
vertex $-1 $436 $446 #
vertex $-1 $445 $447 #
straight-curve $-1 -57.096305430982383 34.166432501135098 16.271024238735862 0 1 0 I I #
vertex $-1 $259 $448 #
point $-1 -47.113713087811796 35.989628482188934 6.2510858910255171 #
face $-1 $449 $450 $19 $-1 $451 forward single #
plane-surface $-1 -42.251768830433846 -22.670695593473155 63.360201748072356 0 0.66913061440640931 0.74314481823134659 1 0 0 forward_v I I I I #
coedge $-1 $452 $453 $454 $455 reversed $264 $-1 #
coedge $-1 $364 $364 $-1 $456 forward $266 $-1 #
edge $-1 $457 0 $457 6.2831853071796004 $267 $458 forward 7 unknown #
vertex $-1 $270 $459 #
ellipse-curve $-1 -48.613713087811796 38.123435714930608 8.6209188563326862 0 -0.66913061440640931 -0.74314481823134659 1.5 0 0 1 I I #
vertex $-1 $271 $460 #
point $-1 -34.389824573055904 35.989628482188934 6.2510858910255171 #
loop $-1 $-1 $461 $263 #
straight-curve $-1 -68.001342814416944 46.619738307362397 0 0 0 -1 I I #
point $-1 -68.001342814416944 -46.619738307362397 -16.271024238735858 #
straight-curve $-1 -68.001342814416944 0 -16.271024238735858 0 1 0 I I #
point $-1 -68.001342814416944 46.619738307362397 -16.271024238735858 #
loop $-1 $-1 $462 $292 #
plane-surface $-1 0 0 -16.271024238735858 0 0 1 1 0 0 forward_v I I I I #
coedge $-1 $387 $395 $463 $464 forward $293 $-1 #
straight-curve $-1 -78.90638019785149 0 -7.6541939231741303 0 1 0 I I #
point $-1 -78.90638019785149 46.619738307362397 -7.6541939231741303 #
coedge $-1 $394 $299 $465 $466 reversed $222 $-1 #
point $-1 -78.90638019785149 -46.619738307362397 -7.6541939231741303 #
coedge $-1 $302 $311 $467 $468 reversed $217 $-1 #
coedge $-1 $467 $465 $304 $384 forward $375 $-1 #
edge $-1 $386 -46.619738307362397 $385 46.619738307362397 $304 $469 forward 7 unknown #
vertex $-1 $468 $470 #
vertex $-1 $384 $471 #
coedge $-1 $318 $377 $310 $388 forward $293 $-1 #
edge $-1 $472 -68.001342814416944 $322 68.001342814416944 $310 $473 forward 7 unknown #
coedge $-1 $463 $474 $311 $390 reversed $475 $-1 #
edge $-1 $472 -16.271024238735858 $476 16.271024238735858 $389 $477 forward 7 unknown #
face $-1 $-1 $475 $16 $-1 $478 reversed single #
plane-surface $-1 0 46.619738307362397 0 0 -1 0 0 0 -1 forward_v I I I I #
straight-curve $-1 -78.90638019785149 -46.619738307362397 -5.7111753147037323 0 0 -1 I I #
coedge $-1 $315 $380 $479 $480 reversed $222 $-1 #
coedge $-1 $377 $318 $315 $396 forward $293 $-1 #
edge $-1 $320 -68.001342814416944 $481 68.001342814416944 $315 $482 forward 7 unknown #
plane-surface $-1 0 -46.619738307362397 0 0 1 0 0 0 1 forward_v I I I I #
straight-curve $-1 -68.001342814416944 0 16.271024238735858 0 -1 0 I I #
point $-1 -68.001342814416944 -46.619738307362397 16.271024238735858 #
point $-1 -68.001342814416944 46.619738307362397 16.271024238735858 #
face $-1 $483 $484 $17 $-1 $485 reversed single #
loop $-1 $-1 $486 $324 #
plane-surface $-1 -78.90638019785149 0 -5.7111753147037323 1 0 0 0 0 -1 forward_v I I I I #
coedge $-1 $487 $488 $489 $490 reversed $325 $-1 #
coedge $-1 $491 $327 $416 $492 forward $231 $-1 #
coedge $-1 $327 $491 $493 $494 forward $231 $-1 #
coedge $-1 $423 $417 $327 $408 forward $424 $-1 #
edge $-1 $495 -46.619738307362397 $496 46.619738307362397 $407 $497 forward 7 unknown #
coedge $-1 $328 $340 $498 $499 forward $141 $-1 #
coedge $-1 $500 $329 $328 $411 reversed $245 $-1 #
edge $-1 $501 -68.001342814416944 $331 27.407232229885306 $410 $344 forward 7 unknown #
straight-curve $-1 -27.407232229885306 46.619738307362397 82.214946419343548 0 0 1 I I #
point $-1 -27.407232229885306 46.619738307362397 16.271024238735858 #
straight-curve $-1 -21.125884415216923 46.619738307362383 0.97081347392952821 1 0 0 I I #
point $-1 -27.407232229885306 46.619738307362397 0.97081347392952466 #
coedge $-1 $338 $502 $405 $492 reversed $245 $-1 #
coedge $-1 $407 $341 $338 $418 forward $424 $-1 #
edge $-1 $343 -16.271024238735858 $495 3.7681567062333343 $338 $503 forward 7 unknown #
face $-1 $-1 $504 $17 $-1 $505 reversed single #
plane-surface $-1 0 46.619738307362397 0 0 -1 0 0 0 -1 forward_v I I I I #
coedge $-1 $506 $507 $340 $422 reversed $508 $-1 #
edge $-1 $425 -68.001342814416944 $509 68.001342814416944 $421 $510 forward 7 unknown #
coedge $-1 $341 $407 $506 $511 reversed $424 $-1 #
loop $-1 $-1 $407 $483 #
vertex $-1 $342 $512 #
straight-curve $-1 -68.001342814416944 0 16.271024238735858 0 -1 0 I I #
point $-1 -68.001342814416944 46.619738307362397 16.271024238735858 #
face $-1 $513 $514 $18 $-1 $515 reversed single #
loop $-1 $-1 $516 $345 #
plane-surface $-1 -73.453861506134217 0 -3.7681567062333343 0 0 1 1 0 0 forward_v I I I I #
coedge $-1 $355 $517 $348 $434 forward $346 $-1 #
coedge $-1 $433 $348 $518 $519 reversed $252 $-1 #
coedge $-1 $348 $432 $435 $520 forward $252 $-1 #
edge $-1 $521 -12.453305806227299 $522 4.5392993786362723 $431 $523 forward 7 unknown #
coedge $-1 $437 $349 $433 $520 reversed $254 $-1 #
edge $-1 $522 6.2813478146683828 $356 35.97042101576546 $355 $524 forward 7 unknown #
coedge $-1 $350 $435 $440 $525 reversed $254 $-1 #
vertex $-1 $525 $526 #
straight-curve $-1 -57.096305430982383 -22.670695593473155 63.360201748072356 0 0.74314481823134659 -0.66913061440640931 I I #
coedge $-1 $518 $352 $437 $525 forward $442 $-1 #
coedge $-1 $352 $527 $354 $445 reversed $442 $-1 #
loop $-1 $-1 $518 $528 #
straight-curve $-1 -57.096305430982383 46.619738307362397 82.214946419343548 0 0 -1 I I #
coedge $-1 $529 $354 $530 $531 forward $346 $-1 #
edge $-1 $357 57.096305430982383 $532 68.001342814416944 $441 $533 forward 7 unknown #
point $-1 -57.096305430982383 29.627133122498826 16.271024238735862 #
point $-1 -57.096305430982383 46.619738307362397 16.271024238735858 #
point $-1 -48.613713087811796 34.985932560579315 5.1363686636784971 #
face $-1 $534 $535 $19 $-1 $536 forward single #
loop $-1 $-1 $537 $361 #
plane-surface $-1 -27.407232229885306 68.332865002270196 164.4298928386871 -1 0 0 0 0.66913061440640931 0.74314481823134659 forward_v I I I I #
coedge $-1 $453 $363 $538 $539 forward $264 $-1 #
coedge $-1 $363 $452 $540 $541 reversed $264 $-1 #
coedge $-1 $542 $543 $363 $455 forward $535 $-1 #
edge $-1 $544 -4.5392993786362723 $545 12.453305806227299 $454 $546 forward 7 unknown #
edge $-1 $547 1 $547 0 $364 $-1 forward 7 unknown #
vertex $-1 $365 $548 #
ellipse-curve $-1 -48.613713087811796 35.989628482188934 6.2510858910255171 0 0.66913061440640931 0.74314481823134659 1.5 0 0 1 I I #
point $-1 -47.113713087811796 38.123435714930629 8.6209188563327075 #
point $-1 -35.889824573055904 34.985932560579315 5.1363686636784971 #
coedge $-1 $549 $538 $543 $550 reversed $370 $-1 #
coedge $-1 $465 $467 $474 $551 forward $375 $-1 #
coedge $-1 $479 $389 $377 $464 reversed $475 $-1 #
edge $-1 $481 -46.619738307362397 $472 46.619738307362397 $463 $552 forward 7 unknown #
coedge $-1 $383 $462 $380 $466 forward $375 $-1 #
edge $-1 $553 -68.001342814416944 $386 68.001342814416944 $380 $554 forward 7 unknown #
coedge $-1 $462 $383 $382 $468 forward $375 $-1 #
edge $-1 $385 -68.001342814416944 $476 68.001342814416944 $382 $555 forward 7 unknown #
straight-curve $-1 -68.001342814416944 0 -16.271024238735858 0 1 0 I I #
point $-1 -68.001342814416944 46.619738307362397 -16.271024238735858 #
point $-1 -68.001342814416944 -46.619738307362397 -16.271024238735858 #
vertex $-1 $464 $556 #
straight-curve $-1 0 46.619738307362397 16.271024238735858 -1 0 0 I I #
coedge $-1 $389 $479 $462 $551 reversed $475 $-1 #
loop $-1 $-1 $479 $391 #
vertex $-1 $551 $557 #
straight-curve $-1 68.001342814416944 46.619738307362397 0 0 0 -1 I I #
plane-surface $-1 68.001342814416944 0 0 -1 0 0 0 0 1 forward_v I I I I #
coedge $-1 $474 $463 $394 $480 forward $475 $-1 #
edge $-1 $481 -16.271024238735858 $553 16.271024238735858 $479 $558 forward 7 unknown #
vertex $-1 $464 $559 #
straight-curve $-1 0 -46.619738307362397 16.271024238735858 1 0 0 I I #
face $-1 $560 $424 $17 $-1 $485 reversed single #
loop $-1 $-1 $489 $401 #
plane-surface $-1 -68.001342814416944 0 0 1 0 0 0 0 -1 forward_v I I I I #
coedge $-1 $561 $562 $502 $563 forward $402 $-1 #
coedge $-1 $564 $404 $565 $566 forward $325 $-1 #
coedge $-1 $404 $564 $567 $568 forward $325 $-1 #
coedge $-1 $569 $570 $404 $490 forward $484 $-1 #
edge $-1 $571 -46.619738307362397 $572 46.619738307362397 $489 $573 forward 7 unknown #
coedge $-1 $406 $405 $562 $574 forward $231 $-1 #
edge $-1 $495 -5.4525186917172732 $575 5.4525186917172732 $416 $576 forward 7 unknown #
coedge $-1 $577 $506 $406 $494 reversed $508 $-1 #
edge $-1 $578 -5.4525186917172732 $496 5.4525186917172732 $493 $579 forward 7 unknown #
vertex $-1 $418 $580 #
vertex $-1 $494 $581 #
straight-curve $-1 -68.001342814416944 0 -3.7681567062333343 0 -1 0 I I #
coedge $-1 $582 $583 $409 $499 reversed $504 $-1 #
edge $-1 $509 -46.619738307362397 $501 46.619738307362397 $498 $584 forward 7 unknown #
coedge $-1 $585 $410 $583 $586 forward $245 $-1 #
vertex $-1 $499 $587 #
coedge $-1 $416 $567 $486 $563 reversed $245 $-1 #
straight-curve $-1 -68.001342814416944 46.619738307362397 0 0 0 -1 I I #
loop $-1 $-1 $582 $419 #
plane-surface $-1 68.001342814416944 0 0 -1 0 0 0 0 1 forward_v I I I I #
coedge $-1 $493 $421 $423 $511 forward $508 $-1 #
coedge $-1 $421 $588 $582 $589 reversed $508 $-1 #
loop $-1 $-1 $506 $590 #
vertex $-1 $499 $591 #
straight-curve $-1 0 -46.619738307362397 16.271024238735858 1 0 0 I I #
edge $-1 $425 -16.271024238735858 $496 3.7681567062333343 $423 $592 forward 7 unknown #
point $-1 -68.001342814416944 -46.619738307362397 16.271024238735858 #
face $-1 $593 $594 $18 $-1 $595 reversed single #
loop $-1 $-1 $596 $428 #
plane-surface $-1 -73.453861506134217 0 -7.6541939231741303 0 0 1 1 0 0 forward_v I I I I #
coedge $-1 $597 $598 $599 $600 reversed $429 $-1 #
coedge $-1 $431 $601 $602 $603 forward $346 $-1 #
coedge $-1 $602 $440 $432 $519 forward $442 $-1 #
edge $-1 $604 -81.244132945414023 $521 -65.943922180607686 $518 $605 forward 7 unknown #
edge $-1 $604 -93.239476614724794 $522 -70.373670693739896 $433 $606 forward 7 unknown #
vertex $-1 $519 $607 #
vertex $-1 $436 $608 #
straight-curve $-1 -27.407232229885306 34.166432501135098 16.271024238735862 0 -1 0 I I #
straight-curve $-1 -21.125884415216923 29.627133122498837 16.271024238735855 -1 0 0 I I #
edge $-1 $438 -35.97042101576546 $604 -6.2813478146683828 $440 $609 forward 7 unknown #
point $-1 -57.096305430982383 46.619738307362397 0.97081347392952466 #
coedge $-1 $441 $610 $611 $612 reversed $442 $-1 #
face $-1 $613 $442 $18 $-1 $614 reversed single #
coedge $-1 $601 $444 $615 $616 forward $346 $-1 #
coedge $-1 $611 $617 $444 $531 reversed $618 $-1 #
edge $-1 $532 -46.619738307362397 $619 46.619738307362397 $530 $620 forward 7 unknown #
vertex $-1 $445 $621 #
straight-curve $-1 0 46.619738307362397 16.271024238735858 -1 0 0 I I #
face $-1 $622 $623 $19 $-1 $624 forward single #
loop $-1 $-1 $625 $449 #
plane-surface $-1 0 0 16.271024238735858 0 0 1 1 0 0 forward_v I I I I #
coedge $-1 $626 $627 $625 $628 reversed $450 $-1 #
coedge $-1 $461 $629 $452 $539 reversed $370 $-1 #
edge $-1 $544 70.373670693739896 $630 93.239476614724794 $452 $631 forward 7 unknown #
coedge $-1 $632 $633 $453 $541 forward $634 $-1 #
edge $-1 $545 65.943922180607686 $630 81.244132945414023 $540 $635 forward 7 unknown #
coedge $-1 $636 $454 $633 $637 forward $535 $-1 #
coedge $-1 $454 $625 $461 $550 forward $535 $-1 #
vertex $-1 $550 $638 #
vertex $-1 $637 $639 #
straight-curve $-1 -57.096305430982383 34.166432501135098 16.271024238735862 0 1 0 I I #
vertex $-1 $456 $640 #
point $-1 -47.113713087811796 35.989628482188934 6.2510858910255171 #
coedge $-1 $629 $461 $627 $641 reversed $370 $-1 #
edge $-1 $642 6.2813478146683828 $544 35.97042101576546 $543 $643 forward 7 unknown #
edge $-1 $476 -46.619738307362397 $553 46.619738307362397 $474 $644 forward 7 unknown #
straight-curve $-1 68.001342814416944 0 16.271024238735858 0 1 0 I I #
vertex $-1 $480 $645 #
straight-curve $-1 0 -46.619738307362397 -16.271024238735858 -1 0 0 I I #
straight-curve $-1 0 46.619738307362397 -16.271024238735858 1 0 0 I I #
point $-1 68.001342814416944 46.619738307362397 16.271024238735858 #
point $-1 68.001342814416944 46.619738307362397 -16.271024238735858 #
straight-curve $-1 68.001342814416944 -46.619738307362397 0 0 0 -1 I I #
point $-1 68.001342814416944 -46.619738307362397 16.271024238735858 #
face $-1 $590 $646 $17 $-1 $647 reversed single #
coedge $-1 $648 $486 $564 $649 reversed $402 $-1 #
coedge $-1 $486 $648 $491 $574 reversed $402 $-1 #
edge $-1 $575 -1.943018608470398 $650 1.943018608470398 $502 $651 forward 7 unknown #
coedge $-1 $488 $487 $561 $649 forward $325 $-1 #
coedge $-1 $652 $577 $487 $566 reversed $508 $-1 #
edge $-1 $571 -5.4525186917172732 $653 5.4525186917172732 $565 $654 forward 7 unknown #
coedge $-1 $502 $655 $488 $568 reversed $245 $-1 #
edge $-1 $650 -5.4525186917172732 $572 5.4525186917172732 $567 $656 forward 7 unknown #
coedge $-1 $657 $489 $655 $658 forward $484 $-1 #
coedge $-1 $489 $657 $652 $659 reversed $484 $-1 #
vertex $-1 $659 $660 #
vertex $-1 $658 $661 #
straight-curve $-1 -68.001342814416944 0 -7.6541939231741303 0 1 0 I I #
edge $-1 $575 -46.619738307362397 $578 46.619738307362397 $562 $662 forward 7 unknown #
vertex $-1 $492 $663 #
straight-curve $-1 -73.453861506134217 46.619738307362397 -3.7681567062333343 -1 0 0 I I #
coedge $-1 $565 $493 $648 $664 forward $508 $-1 #
vertex $-1 $574 $665 #
straight-curve $-1 -73.453861506134217 -46.619738307362397 -3.7681567062333343 1 0 0 I I #
point $-1 -68.001342814416944 46.619738307362397 -3.7681567062333343 #
point $-1 -68.001342814416944 -46.619738307362397 -3.7681567062333343 #
coedge $-1 $666 $498 $507 $589 forward $504 $-1 #
coedge $-1 $498 $666 $500 $586 reversed $504 $-1 #
straight-curve $-1 68.001342814416944 0 16.271024238735858 0 1 0 I I #
coedge $-1 $655 $500 $667 $668 reversed $245 $-1 #
edge $-1 $501 -16.271024238735858 $669 16.271024238735858 $583 $670 forward 7 unknown #
point $-1 68.001342814416944 46.619738307362397 16.271024238735858 #
coedge $-1 $507 $652 $671 $672 reversed $508 $-1 #
edge $-1 $509 -16.271024238735858 $673 16.271024238735858 $582 $674 forward 7 unknown #
face $-1 $339 $508 $17 $-1 $675 reversed single #
point $-1 68.001342814416944 -46.619738307362397 16.271024238735858 #
straight-curve $-1 -68.001342814416944 -46.619738307362397 0 0 0 -1 I I #
face $-1 $676 $677 $18 $-1 $678 reversed single #
loop $-1 $-1 $679 $513 #
plane-surface $-1 -78.90638019785149 0 -5.7111753147037323 1 0 0 0 0 -1 forward_v I I I I #
coedge $-1 $680 $681 $682 $683 reversed $514 $-1 #
coedge $-1 $684 $516 $610 $685 forward $429 $-1 #
coedge $-1 $516 $684 $686 $687 forward $429 $-1 #
coedge $-1 $617 $611 $516 $600 forward $618 $-1 #
edge $-1 $688 -46.619738307362397 $689 46.619738307362397 $599 $690 forward 7 unknown #
coedge $-1 $517 $529 $691 $692 forward $346 $-1 #
coedge $-1 $693 $518 $517 $603 reversed $442 $-1 #
edge $-1 $694 -68.001342814416944 $521 27.407232229885306 $602 $533 forward 7 unknown #
vertex $-1 $525 $695 #
straight-curve $-1 -27.407232229885306 46.619738307362397 82.214946419343548 0 0 1 I I #
straight-curve $-1 -27.407232229885306 -22.670695593473155 63.360201748072356 0 -0.74314481823134659 0.66913061440640931 I I #
point $-1 -27.407232229885306 46.619738307362397 16.271024238735858 #
point $-1 -27.407232229885306 29.627133122498826 16.271024238735862 #
straight-curve $-1 -21.125884415216923 46.619738307362383 0.97081347392952821 1 0 0 I I #
coedge $-1 $527 $696 $597 $685 reversed $442 $-1 #
coedge $-1 $599 $530 $527 $612 forward $618 $-1 #
edge $-1 $532 -16.271024238735858 $688 3.7681567062333343 $527 $697 forward 7 unknown #
face $-1 $-1 $698 $18 $-1 $699 reversed single #
plane-surface $-1 0 46.619738307362397 0 0 -1 0 0 0 -1 forward_v I I I I #
coedge $-1 $700 $701 $529 $616 reversed $702 $-1 #
edge $-1 $619 -68.001342814416944 $703 68.001342814416944 $615 $704 forward 7 unknown #
coedge $-1 $530 $599 $700 $705 reversed $618 $-1 #
loop $-1 $-1 $599 $676 #
vertex $-1 $531 $706 #
straight-curve $-1 -68.001342814416944 0 16.271024238735858 0 -1 0 I I #
point $-1 -68.001342814416944 46.619738307362397 16.271024238735858 #
face $-1 $707 $708 $19 $-1 $709 reversed single #
loop $-1 $-1 $710 $534 #
plane-surface $-1 -73.453861506134217 0 -3.7681567062333343 0 0 1 1 0 0 forward_v I I I I #
coedge $-1 $543 $711 $537 $628 forward $535 $-1 #
coedge $-1 $627 $537 $712 $713 reversed $450 $-1 #
coedge $-1 $537 $626 $549 $641 forward $450 $-1 #
edge $-1 $714 -12.453305806227299 $642 4.5392993786362723 $625 $715 forward 7 unknown #
coedge $-1 $538 $549 $632 $716 reversed $370 $-1 #
vertex $-1 $716 $717 #
straight-curve $-1 -57.096305430982383 -22.670695593473155 63.360201748072356 0 0.74314481823134659 -0.66913061440640931 I I #
coedge $-1 $712 $540 $629 $716 forward $634 $-1 #
coedge $-1 $540 $718 $542 $637 reversed $634 $-1 #
loop $-1 $-1 $712 $719 #
straight-curve $-1 -57.096305430982383 46.619738307362397 82.214946419343548 0 0 -1 I I #
coedge $-1 $720 $542 $721 $722 forward $535 $-1 #
edge $-1 $545 57.096305430982383 $723 68.001342814416944 $633 $724 forward 7 unknown #
point $-1 -57.096305430982383 29.627133122498826 16.271024238735862 #
point $-1 -57.096305430982383 46.619738307362397 16.271024238735858 #
point $-1 -48.613713087811796 34.985932560579315 5.1363686636784971 #
edge $-1 $725 -93.239476614724794 $642 -70.373670693739896 $627 $726 forward 7 unknown #
vertex $-1 $550 $727 #
straight-curve $-1 -21.125884415216923 29.627133122498837 16.271024238735855 -1 0 0 I I #
straight-curve $-1 68.001342814416944 0 -16.271024238735858 0 -1 0 I I #
point $-1 68.001342814416944 -46.619738307362397 -16.271024238735858 #
loop $-1 $-1 $728 $560 #
plane-surface $-1 0 0 -16.271024238735858 0 0 1 1 0 0 forward_v I I I I #
coedge $-1 $562 $561 $577 $664 reversed $402 $-1 #
edge $-1 $653 -46.619738307362397 $650 46.619738307362397 $561 $729 forward 7 unknown #
vertex $-1 $568 $730 #
straight-curve $-1 -78.90638019785149 46.619738307362397 -5.7111753147037323 0 0 -1 I I #
coedge $-1 $588 $565 $570 $659 forward $508 $-1 #
vertex $-1 $649 $731 #
straight-curve $-1 -73.453861506134217 -46.619738307362397 -7.6541939231741303 -1 0 0 I I #
coedge $-1 $567 $585 $569 $658 reversed $245 $-1 #
straight-curve $-1 -73.453861506134217 46.619738307362397 -7.6541939231741303 1 0 0 I I #
coedge $-1 $570 $569 $732 $733 reversed $484 $-1 #
edge $-1 $572 7.6541939231741303 $734 16.271024238735858 $655 $503 forward 7 unknown #
edge $-1 $571 7.6541939231741303 $735 16.271024238735858 $570 $592 forward 7 unknown #
point $-1 -68.001342814416944 -46.619738307362397 -7.6541939231741303 #
point $-1 -68.001342814416944 46.619738307362397 -7.6541939231741303 #
straight-curve $-1 -78.90638019785149 0 -3.7681567062333343 0 -1 0 I I #
point $-1 -78.90638019785149 46.619738307362397 -3.7681567062333343 #
edge $-1 $578 -1.943018608470398 $653 1.943018608470398 $648 $736 forward 7 unknown #
point $-1 -78.90638019785149 -46.619738307362397 -3.7681567062333343 #
coedge $-1 $583 $582 $728 $737 reversed $504 $-1 #
coedge $-1 $728 $732 $585 $668 forward $646 $-1 #
edge $-1 $734 -68.001342814416944 $669 68.001342814416944 $585 $738 forward 7 unknown #
vertex $-1 $737 $739 #
straight-curve $-1 68.001342814416944 46.619738307362397 0 0 0 -1 I I #
coedge $-1 $732 $728 $588 $672 forward $646 $-1 #
edge $-1 $673 -68.001342814416944 $735 68.001342814416944 $588 $740 forward 7 unknown #
vertex $-1 $589 $741 #
straight-curve $-1 68.001342814416944 -46.619738307362397 0 0 0 -1 I I #
plane-surface $-1 0 -46.619738307362397 0 0 1 0 0 0 1 forward_v I I I I #
face $-1 $742 $618 $18 $-1 $678 reversed single #
loop $-1 $-1 $682 $593 #
plane-surface $-1 -68.001342814416944 0 0 1 0 0 0 0 -1 forward_v I I I I #
coedge $-1 $743 $744 $696 $745 forward $594 $-1 #
coedge $-1 $746 $596 $747 $748 forward $514 $-1 #
coedge $-1 $596 $746 $749 $750 forward $514 $-1 #
coedge $-1 $751 $752 $596 $683 forward $677 $-1 #
edge $-1 $753 -46.619738307362397 $754 46.619738307362397 $682 $755 forward 7 unknown #
coedge $-1 $598 $597 $744 $756 forward $429 $-1 #
edge $-1 $688 -5.4525186917172732 $757 5.4525186917172732 $610 $758 forward 7 unknown #
coedge $-1 $759 $700 $598 $687 reversed $702 $-1 #
edge $-1 $760 -5.4525186917172732 $689 5.4525186917172732 $686 $761 forward 7 unknown #
vertex $-1 $612 $762 #
vertex $-1 $687 $763 #
straight-curve $-1 -68.001342814416944 0 -3.7681567062333343 0 -1 0 I I #
coedge $-1 $764 $765 $601 $692 reversed $698 $-1 #
edge $-1 $703 -46.619738307362397 $694 46.619738307362397 $691 $766 forward 7 unknown #
coedge $-1 $767 $602 $765 $768 forward $442 $-1 #
vertex $-1 $692 $769 #
point $-1 -27.407232229885306 46.619738307362397 0.97081347392952466 #
coedge $-1 $610 $749 $679 $745 reversed $442 $-1 #
straight-curve $-1 -68.001342814416944 46.619738307362397 0 0 0 -1 I I #
loop $-1 $-1 $764 $613 #
plane-surface $-1 68.001342814416944 0 0 -1 0 0 0 0 1 forward_v I I I I #
coedge $-1 $686 $615 $617 $705 forward $702 $-1 #
coedge $-1 $615 $770 $764 $771 reversed $702 $-1 #
loop $-1 $-1 $700 $772 #
vertex $-1 $692 $773 #
straight-curve $-1 0 -46.619738307362397 16.271024238735858 1 0 0 I I #
edge $-1 $619 -16.271024238735858 $689 3.7681567062333343 $617 $774 forward 7 unknown #
point $-1 -68.001342814416944 -46.619738307362397 16.271024238735858 #
face $-1 $775 $776 $19 $-1 $777 reversed single #
loop $-1 $-1 $778 $622 #
plane-surface $-1 -73.453861506134217 0 -7.6541939231741303 0 0 1 1 0 0 forward_v I I I I #
coedge $-1 $779 $780 $781 $782 reversed $623 $-1 #
coedge $-1 $625 $783 $784 $785 forward $535 $-1 #
coedge $-1 $784 $632 $626 $713 forward $634 $-1 #
edge $-1 $725 -81.244132945414023 $714 -65.943922180607686 $712 $786 forward 7 unknown #
vertex $-1 $713 $787 #
straight-curve $-1 -27.407232229885306 34.166432501135098 16.271024238735862 0 -1 0 I I #
edge $-1 $630 -35.97042101576546 $725 -6.2813478146683828 $632 $788 forward 7 unknown #
point $-1 -57.096305430982383 46.619738307362397 0.97081347392952466 #
coedge $-1 $633 $789 $790 $791 reversed $634 $-1 #
face $-1 $792 $634 $19 $-1 $793 reversed single #
coedge $-1 $783 $636 $794 $795 forward $535 $-1 #
coedge $-1 $790 $796 $636 $722 reversed $797 $-1 #
edge $-1 $723 -46.619738307362397 $798 46.619738307362397 $721 $799 forward 7 unknown #
vertex $-1 $637 $800 #
straight-curve $-1 0 46.619738307362397 16.271024238735858 -1 0 0 I I #
vertex $-1 $716 $801 #
straight-curve $-1 -27.407232229885306 -22.670695593473155 63.360201748072356 0 -0.74314481823134659 0.66913061440640931 I I #
point $-1 -27.407232229885306 29.627133122498826 16.271024238735862 #
coedge $-1 $671 $667 $666 $737 forward $646 $-1 #
straight-curve $-1 -78.90638019785149 0 -7.6541939231741303 0 1 0 I I #
point $-1 -78.90638019785149 46.619738307362397 -7.6541939231741303 #
point $-1 -78.90638019785149 -46.619738307362397 -7.6541939231741303 #
coedge $-1 $667 $671 $657 $733 forward $646 $-1 #
edge $-1 $735 -46.619738307362397 $734 46.619738307362397 $657 $802 forward 7 unknown #
vertex $-1 $668 $803 #
vertex $-1 $733 $804 #
straight-curve $-1 -78.90638019785149 -46.619738307362397 -5.7111753147037323 0 0 -1 I I #
edge $-1 $669 -46.619738307362397 $673 46.619738307362397 $666 $805 forward 7 unknown #
straight-curve $-1 0 46.619738307362397 -16.271024238735858 1 0 0 I I #
point $-1 68.001342814416944 46.619738307362397 -16.271024238735858 #
straight-curve $-1 0 -46.619738307362397 -16.271024238735858 -1 0 0 I I #
point $-1 68.001342814416944 -46.619738307362397 -16.271024238735858 #
face $-1 $772 $806 $18 $-1 $807 reversed single #
coedge $-1 $808 $679 $746 $809 reversed $594 $-1 #
coedge $-1 $679 $808 $684 $756 reversed $594 $-1 #
edge $-1 $757 -1.943018608470398 $810 1.943018608470398 $696 $811 forward 7 unknown #
coedge $-1 $681 $680 $743 $809 forward $514 $-1 #
coedge $-1 $812 $759 $680 $748 reversed $702 $-1 #
edge $-1 $753 -5.4525186917172732 $813 5.4525186917172732 $747 $814 forward 7 unknown #
coedge $-1 $696 $815 $681 $750 reversed $442 $-1 #
edge $-1 $810 -5.4525186917172732 $754 5.4525186917172732 $749 $816 forward 7 unknown #
coedge $-1 $817 $682 $815 $818 forward $677 $-1 #
coedge $-1 $682 $817 $812 $819 reversed $677 $-1 #
vertex $-1 $819 $820 #
vertex $-1 $818 $821 #
straight-curve $-1 -68.001342814416944 0 -7.6541939231741303 0 1 0 I I #
edge $-1 $757 -46.619738307362397 $760 46.619738307362397 $744 $822 forward 7 unknown #
vertex $-1 $685 $823 #
straight-curve $-1 -73.453861506134217 46.619738307362397 -3.7681567062333343 -1 0 0 I I #
coedge $-1 $747 $686 $808 $824 forward $702 $-1 #
vertex $-1 $756 $825 #
straight-curve $-1 -73.453861506134217 -46.619738307362397 -3.7681567062333343 1 0 0 I I #
point $-1 -68.001342814416944 46.619738307362397 -3.7681567062333343 #
point $-1 -68.001342814416944 -46.619738307362397 -3.7681567062333343 #
coedge $-1 $826 $691 $701 $771 forward $698 $-1 #
coedge $-1 $691 $826 $693 $768 reversed $698 $-1 #
straight-curve $-1 68.001342814416944 0 16.271024238735858 0 1 0 I I #
coedge $-1 $815 $693 $827 $828 reversed $442 $-1 #
edge $-1 $694 -16.271024238735858 $829 16.271024238735858 $765 $830 forward 7 unknown #
point $-1 68.001342814416944 46.619738307362397 16.271024238735858 #
coedge $-1 $701 $812 $831 $832 reversed $702 $-1 #
edge $-1 $703 -16.271024238735858 $833 16.271024238735858 $764 $834 forward 7 unknown #
face $-1 $528 $702 $18 $-1 $835 reversed single #
point $-1 68.001342814416944 -46.619738307362397 16.271024238735858 #
straight-curve $-1 -68.001342814416944 -46.619738307362397 0 0 0 -1 I I #
face $-1 $836 $837 $19 $-1 $838 reversed single #
loop $-1 $-1 $839 $707 #
plane-surface $-1 -78.90638019785149 0 -5.7111753147037323 1 0 0 0 0 -1 forward_v I I I I #
coedge $-1 $840 $841 $842 $843 reversed $708 $-1 #
coedge $-1 $844 $710 $789 $845 forward $623 $-1 #
coedge $-1 $710 $844 $846 $847 forward $623 $-1 #
coedge $-1 $796 $790 $710 $782 forward $797 $-1 #
edge $-1 $848 -46.619738307362397 $849 46.619738307362397 $781 $850 forward 7 unknown #
coedge $-1 $711 $720 $851 $852 forward $535 $-1 #
coedge $-1 $853 $712 $711 $785 reversed $634 $-1 #
edge $-1 $854 -68.001342814416944 $714 27.407232229885306 $784 $724 forward 7 unknown #
straight-curve $-1 -27.407232229885306 46.619738307362397 82.214946419343548 0 0 1 I I #
point $-1 -27.407232229885306 46.619738307362397 16.271024238735858 #
straight-curve $-1 -21.125884415216923 46.619738307362383 0.97081347392952821 1 0 0 I I #
coedge $-1 $718 $855 $779 $845 reversed $634 $-1 #
coedge $-1 $781 $721 $718 $791 forward $797 $-1 #
edge $-1 $723 -16.271024238735858 $848 3.7681567062333343 $718 $856 forward 7 unknown #
face $-1 $-1 $857 $19 $-1 $858 reversed single #
plane-surface $-1 0 46.619738307362397 0 0 -1 0 0 0 -1 forward_v I I I I #
coedge $-1 $859 $860 $720 $795 reversed $861 $-1 #
edge $-1 $798 -68.001342814416944 $862 68.001342814416944 $794 $863 forward 7 unknown #
coedge $-1 $721 $781 $859 $864 reversed $797 $-1 #
loop $-1 $-1 $781 $836 #
vertex $-1 $722 $865 #
straight-curve $-1 -68.001342814416944 0 16.271024238735858 0 -1 0 I I #
point $-1 -68.001342814416944 46.619738307362397 16.271024238735858 #
point $-1 -27.407232229885306 46.619738307362397 0.97081347392952466 #
straight-curve $-1 -68.001342814416944 0 -16.271024238735858 0 1 0 I I #
point $-1 -68.001342814416944 46.619738307362397 -16.271024238735858 #
point $-1 -68.001342814416944 -46.619738307362397 -16.271024238735858 #
straight-curve $-1 68.001342814416944 0 -16.271024238735858 0 -1 0 I I #
loop $-1 $-1 $866 $742 #
plane-surface $-1 0 0 -16.271024238735858 0 0 1 1 0 0 forward_v I I I I #
coedge $-1 $744 $743 $759 $824 reversed $594 $-1 #
edge $-1 $813 -46.619738307362397 $810 46.619738307362397 $743 $867 forward 7 unknown #
vertex $-1 $750 $868 #
straight-curve $-1 -78.90638019785149 46.619738307362397 -5.7111753147037323 0 0 -1 I I #
coedge $-1 $770 $747 $752 $819 forward $702 $-1 #
vertex $-1 $809 $869 #
straight-curve $-1 -73.453861506134217 -46.619738307362397 -7.6541939231741303 -1 0 0 I I #
coedge $-1 $749 $767 $751 $818 reversed $442 $-1 #
straight-curve $-1 -73.453861506134217 46.619738307362397 -7.6541939231741303 1 0 0 I I #
coedge $-1 $752 $751 $870 $871 reversed $677 $-1 #
edge $-1 $754 7.6541939231741303 $872 16.271024238735858 $815 $697 forward 7 unknown #
edge $-1 $753 7.6541939231741303 $873 16.271024238735858 $752 $774 forward 7 unknown #
point $-1 -68.001342814416944 -46.619738307362397 -7.6541939231741303 #
point $-1 -68.001342814416944 46.619738307362397 -7.6541939231741303 #
straight-curve $-1 -78.90638019785149 0 -3.7681567062333343 0 -1 0 I I #
point $-1 -78.90638019785149 46.619738307362397 -3.7681567062333343 #
edge $-1 $760 -1.943018608470398 $813 1.943018608470398 $808 $874 forward 7 unknown #
point $-1 -78.90638019785149 -46.619738307362397 -3.7681567062333343 #
coedge $-1 $765 $764 $866 $875 reversed $698 $-1 #
coedge $-1 $866 $870 $767 $828 forward $806 $-1 #
edge $-1 $872 -68.001342814416944 $829 68.001342814416944 $767 $876 forward 7 unknown #
vertex $-1 $875 $877 #
straight-curve $-1 68.001342814416944 46.619738307362397 0 0 0 -1 I I #
coedge $-1 $870 $866 $770 $832 forward $806 $-1 #
edge $-1 $833 -68.001342814416944 $873 68.001342814416944 $770 $878 forward 7 unknown #
vertex $-1 $771 $879 #
straight-curve $-1 68.001342814416944 -46.619738307362397 0 0 0 -1 I I #
plane-surface $-1 0 -46.619738307362397 0 0 1 0 0 0 1 forward_v I I I I #
face $-1 $880 $797 $19 $-1 $838 reversed single #
loop $-1 $-1 $842 $775 #
plane-surface $-1 -68.001342814416944 0 0 1 0 0 0 0 -1 forward_v I I I I #
coedge $-1 $881 $882 $855 $883 forward $776 $-1 #
coedge $-1 $884 $778 $885 $886 forward $708 $-1 #
coedge $-1 $778 $884 $887 $888 forward $708 $-1 #
coedge $-1 $889 $890 $778 $843 forward $837 $-1 #
edge $-1 $891 -46.619738307362397 $892 46.619738307362397 $842 $893 forward 7 unknown #
coedge $-1 $780 $779 $882 $894 forward $623 $-1 #
edge $-1 $848 -5.4525186917172732 $895 5.4525186917172732 $789 $896 forward 7 unknown #
coedge $-1 $897 $859 $780 $847 reversed $861 $-1 #
edge $-1 $898 -5.4525186917172732 $849 5.4525186917172732 $846 $899 forward 7 unknown #
vertex $-1 $791 $900 #
vertex $-1 $847 $901 #
straight-curve $-1 -68.001342814416944 0 -3.7681567062333343 0 -1 0 I I #
coedge $-1 $902 $903 $783 $852 reversed $857 $-1 #
edge $-1 $862 -46.619738307362397 $854 46.619738307362397 $851 $904 forward 7 unknown #
coedge $-1 $905 $784 $903 $906 forward $634 $-1 #
vertex $-1 $852 $907 #
coedge $-1 $789 $887 $839 $883 reversed $634 $-1 #
straight-curve $-1 -68.001342814416944 46.619738307362397 0 0 0 -1 I I #
loop $-1 $-1 $902 $792 #
plane-surface $-1 68.001342814416944 0 0 -1 0 0 0 0 1 forward_v I I I I #
coedge $-1 $846 $794 $796 $864 forward $861 $-1 #
coedge $-1 $794 $908 $902 $909 reversed $861 $-1 #
loop $-1 $-1 $859 $910 #
vertex $-1 $852 $911 #
straight-curve $-1 0 -46.619738307362397 16.271024238735858 1 0 0 I I #
edge $-1 $798 -16.271024238735858 $849 3.7681567062333343 $796 $912 forward 7 unknown #
point $-1 -68.001342814416944 -46.619738307362397 16.271024238735858 #
coedge $-1 $831 $827 $826 $875 forward $806 $-1 #
straight-curve $-1 -78.90638019785149 0 -7.6541939231741303 0 1 0 I I #
point $-1 -78.90638019785149 46.619738307362397 -7.6541939231741303 #
point $-1 -78.90638019785149 -46.619738307362397 -7.6541939231741303 #
coedge $-1 $827 $831 $817 $871 forward $806 $-1 #
edge $-1 $873 -46.619738307362397 $872 46.619738307362397 $817 $913 forward 7 unknown #
vertex $-1 $828 $914 #
vertex $-1 $871 $915 #
straight-curve $-1 -78.90638019785149 -46.619738307362397 -5.7111753147037323 0 0 -1 I I #
edge $-1 $829 -46.619738307362397 $833 46.619738307362397 $826 $916 forward 7 unknown #
straight-curve $-1 0 46.619738307362397 -16.271024238735858 1 0 0 I I #
point $-1 68.001342814416944 46.619738307362397 -16.271024238735858 #
straight-curve $-1 0 -46.619738307362397 -16.271024238735858 -1 0 0 I I #
point $-1 68.001342814416944 -46.619738307362397 -16.271024238735858 #
face $-1 $910 $917 $19 $-1 $918 reversed single #
coedge $-1 $919 $839 $884 $920 reversed $776 $-1 #
coedge $-1 $839 $919 $844 $894 reversed $776 $-1 #
edge $-1 $895 -1.943018608470398 $921 1.943018608470398 $855 $922 forward 7 unknown #
coedge $-1 $841 $840 $881 $920 forward $708 $-1 #
coedge $-1 $923 $897 $840 $886 reversed $861 $-1 #
edge $-1 $891 -5.4525186917172732 $924 5.4525186917172732 $885 $925 forward 7 unknown #
coedge $-1 $855 $926 $841 $888 reversed $634 $-1 #
edge $-1 $921 -5.4525186917172732 $892 5.4525186917172732 $887 $927 forward 7 unknown #
coedge $-1 $928 $842 $926 $929 forward $837 $-1 #
coedge $-1 $842 $928 $923 $930 reversed $837 $-1 #
vertex $-1 $930 $931 #
vertex $-1 $929 $932 #
straight-curve $-1 -68.001342814416944 0 -7.6541939231741303 0 1 0 I I #
edge $-1 $895 -46.619738307362397 $898 46.619738307362397 $882 $933 forward 7 unknown #
vertex $-1 $845 $934 #
straight-curve $-1 -73.453861506134217 46.619738307362397 -3.7681567062333343 -1 0 0 I I #
coedge $-1 $885 $846 $919 $935 forward $861 $-1 #
vertex $-1 $894 $936 #
straight-curve $-1 -73.453861506134217 -46.619738307362397 -3.7681567062333343 1 0 0 I I #
point $-1 -68.001342814416944 46.619738307362397 -3.7681567062333343 #
point $-1 -68.001342814416944 -46.619738307362397 -3.7681567062333343 #
coedge $-1 $937 $851 $860 $909 forward $857 $-1 #
coedge $-1 $851 $937 $853 $906 reversed $857 $-1 #
straight-curve $-1 68.001342814416944 0 16.271024238735858 0 1 0 I I #
coedge $-1 $926 $853 $938 $939 reversed $634 $-1 #
edge $-1 $854 -16.271024238735858 $940 16.271024238735858 $903 $941 forward 7 unknown #
point $-1 68.001342814416944 46.619738307362397 16.271024238735858 #
coedge $-1 $860 $923 $942 $943 reversed $861 $-1 #
edge $-1 $862 -16.271024238735858 $944 16.271024238735858 $902 $945 forward 7 unknown #
face $-1 $719 $861 $19 $-1 $946 reversed single #
point $-1 68.001342814416944 -46.619738307362397 16.271024238735858 #
straight-curve $-1 -68.001342814416944 -46.619738307362397 0 0 0 -1 I I #
straight-curve $-1 -68.001342814416944 0 -16.271024238735858 0 1 0 I I #
point $-1 -68.001342814416944 46.619738307362397 -16.271024238735858 #
point $-1 -68.001342814416944 -46.619738307362397 -16.271024238735858 #
straight-curve $-1 68.001342814416944 0 -16.271024238735858 0 -1 0 I I #
loop $-1 $-1 $947 $880 #
plane-surface $-1 0 0 -16.271024238735858 0 0 1 1 0 0 forward_v I I I I #
coedge $-1 $882 $881 $897 $935 reversed $776 $-1 #
edge $-1 $924 -46.619738307362397 $921 46.619738307362397 $881 $948 forward 7 unknown #
vertex $-1 $888 $949 #
straight-curve $-1 -78.90638019785149 46.619738307362397 -5.7111753147037323 0 0 -1 I I #
coedge $-1 $908 $885 $890 $930 forward $861 $-1 #
vertex $-1 $920 $950 #
straight-curve $-1 -73.453861506134217 -46.619738307362397 -7.6541939231741303 -1 0 0 I I #
coedge $-1 $887 $905 $889 $929 reversed $634 $-1 #
straight-curve $-1 -73.453861506134217 46.619738307362397 -7.6541939231741303 1 0 0 I I #
coedge $-1 $890 $889 $951 $952 reversed $837 $-1 #
edge $-1 $892 7.6541939231741303 $953 16.271024238735858 $926 $856 forward 7 unknown #
edge $-1 $891 7.6541939231741303 $954 16.271024238735858 $890 $912 forward 7 unknown #
point $-1 -68.001342814416944 -46.619738307362397 -7.6541939231741303 #
point $-1 -68.001342814416944 46.619738307362397 -7.6541939231741303 #
straight-curve $-1 -78.90638019785149 0 -3.7681567062333343 0 -1 0 I I #
point $-1 -78.90638019785149 46.619738307362397 -3.7681567062333343 #
edge $-1 $898 -1.943018608470398 $924 1.943018608470398 $919 $955 forward 7 unknown #
point $-1 -78.90638019785149 -46.619738307362397 -3.7681567062333343 #
coedge $-1 $903 $902 $947 $956 reversed $857 $-1 #
coedge $-1 $947 $951 $905 $939 forward $917 $-1 #
edge $-1 $953 -68.001342814416944 $940 68.001342814416944 $905 $957 forward 7 unknown #
vertex $-1 $956 $958 #
straight-curve $-1 68.001342814416944 46.619738307362397 0 0 0 -1 I I #
coedge $-1 $951 $947 $908 $943 forward $917 $-1 #
edge $-1 $944 -68.001342814416944 $954 68.001342814416944 $908 $959 forward 7 unknown #
vertex $-1 $909 $960 #
straight-curve $-1 68.001342814416944 -46.619738307362397 0 0 0 -1 I I #
plane-surface $-1 0 -46.619738307362397 0 0 1 0 0 0 1 forward_v I I I I #
coedge $-1 $942 $938 $937 $956 forward $917 $-1 #
straight-curve $-1 -78.90638019785149 0 -7.6541939231741303 0 1 0 I I #
point $-1 -78.90638019785149 46.619738307362397 -7.6541939231741303 #
point $-1 -78.90638019785149 -46.619738307362397 -7.6541939231741303 #
coedge $-1 $938 $942 $928 $952 forward $917 $-1 #
edge $-1 $954 -46.619738307362397 $953 46.619738307362397 $928 $961 forward 7 unknown #
vertex $-1 $939 $962 #
vertex $-1 $952 $963 #
straight-curve $-1 -78.90638019785149 -46.619738307362397 -5.7111753147037323 0 0 -1 I I #
edge $-1 $940 -46.619738307362397 $944 46.619738307362397 $937 $964 forward 7 unknown #
straight-curve $-1 0 46.619738307362397 -16.271024238735858 1 0 0 I I #
point $-1 68.001342814416944 46.619738307362397 -16.271024238735858 #
straight-curve $-1 0 -46.619738307362397 -16.271024238735858 -1 0 0 I I #
point $-1 68.001342814416944 -46.619738307362397 -16.271024238735858 #
straight-curve $-1 -68.001342814416944 0 -16.271024238735858 0 1 0 I I #
point $-1 -68.001342814416944 46.619738307362397 -16.271024238735858 #
point $-1 -68.001342814416944 -46.619738307362397 -16.271024238735858 #
straight-curve $-1 68.001342814416944 0 -16.271024238735858 0 -1 0 I I #
End-of-ACIS-data 