500 0 6 0           
7 Unknown 11 ACIS 5.0 NT 24 Thu Mar 25 22:12:55 1999 
-1 9.9999999999999995e-007 1e-010 
body $-1 $6 $-1 $7 #
body $-1 $8 $-1 $9 #
body $-1 $10 $-1 $11 #
body $-1 $12 $-1 $13 #
body $-1 $14 $-1 $15 #
body $-1 $16 $-1 $17 #
lump $-1 $-1 $18 $0 #
transform $-1 1 0 0 0 1 0 0 0 1 67.486190374462112 37.47051934384293 8.7085480212134598 1 rotate no_reflect no_shear #
lump $-1 $-1 $19 $1 #
transform $-1 1 0 0 0 1 0 0 0 1 67.486190374462112 37.47051934384293 8.7085480212134598 1 rotate no_reflect no_shear #
lump $-1 $-1 $20 $2 #
transform $-1 1 0 0 0 1 0 0 0 1 67.486190374462112 37.47051934384293 8.7085480212134598 1 rotate no_reflect no_shear #
lump $-1 $-1 $21 $3 #
transform $-1 1 0 0 0 1 0 0 0 1 67.486190374462112 37.47051934384293 8.7085480212134598 1 rotate no_reflect no_shear #
lump $-1 $-1 $22 $4 #
transform $-1 1 0 0 0 1 0 0 0 1 67.486190374462112 37.47051934384293 8.7085480212134598 1 rotate no_reflect no_shear #
lump $-1 $-1 $23 $5 #
transform $-1 1 0 0 0 1 0 0 0 1 67.486190374462112 37.47051934384293 8.7085480212134598 1 rotate no_reflect no_shear #
shell $-1 $-1 $-1 $24 $-1 $6 #
shell $-1 $-1 $-1 $25 $-1 $8 #
shell $-1 $-1 $-1 $26 $-1 $10 #
shell $-1 $-1 $-1 $27 $-1 $12 #
shell $-1 $-1 $-1 $28 $-1 $14 #
shell $-1 $-1 $-1 $29 $-1 $16 #
face $-1 $30 $31 $18 $-1 $32 forward single #
face $-1 $33 $34 $19 $-1 $35 reversed single #
face $-1 $36 $37 $20 $-1 $38 reversed single #
face $-1 $39 $40 $21 $-1 $41 forward single #
face $-1 $42 $43 $22 $-1 $44 reversed single #
face $-1 $45 $46 $23 $-1 $47 forward single #
face $-1 $48 $49 $18 $-1 $50 reversed single #
loop $-1 $-1 $51 $24 #
plane-surface $-1 0 0 8.7085480212134598 0 0 1 1 0 0 forward_v I I I I #
face $-1 $52 $53 $19 $-1 $54 reversed single #
loop $-1 $-1 $55 $25 #
plane-surface $-1 -64.415647820872053 0 5.2185908238575101 0 0 1 1 0 0 forward_v I I I I #
face $-1 $56 $57 $20 $-1 $58 reversed single #
loop $-1 $-1 $59 $26 #
plane-surface $-1 -9.0637059817112977 69.461650145655057 155.93052915122533 1 0 0 0 -0.6560590369687036 -0.75470957328743171 forward_v I I I I #
face $-1 $60 $61 $21 $-1 $62 forward single #
loop $-1 $63 $64 $27 #
cone-surface $-1 5.8578337275927339 34.493956881150154 5.9001733346696366 0 -0.6560590369687036 -0.75470957328743171 1 0 0 1 I I 0 1 1 forward I I I I #
face $-1 $65 $66 $22 $-1 $67 reversed single #
loop $-1 $-1 $68 $28 #
plane-surface $-1 20.779373436896766 -126.02036947535535 106.76478348034777 -1 0 0 0 -0.6560590369687036 0.75470957328743171 forward_v I I I I #
face $-1 $69 $70 $23 $-1 $71 forward single #
loop $-1 $72 $73 $29 #
cone-surface $-1 5.8578337275927339 -34.493956881150162 5.9001733346696348 0 0.6560590369687036 -0.75470957328743171 1 0 0 1 I I 0 1 1 forward I I I I #
face $-1 $74 $75 $18 $-1 $76 reversed single #
loop $-1 $-1 $77 $30 #
plane-surface $-1 0 0 -8.7085480212134598 0 0 1 1 0 0 forward_v I I I I #
coedge $-1 $78 $79 $80 $81 forward $31 $-1 #
face $-1 $82 $83 $19 $-1 $84 reversed single #
loop $-1 $-1 $85 $33 #
plane-surface $-1 -61.345105267281994 0 6.9635694225354854 -1 0 0 0 0 1 forward_v I I I I #
coedge $-1 $86 $87 $88 $89 forward $34 $-1 #
face $-1 $90 $91 $20 $-1 $92 reversed single #
loop $-1 $-1 $93 $36 #
plane-surface $-1 5.8578337275927339 -19.088199985857358 54.065581270615965 0 0.6560590369687036 0.75470957328743171 1 0 0 forward_v I I I I #
coedge $-1 $94 $95 $96 $97 reversed $37 $-1 #
face $-1 $-1 $98 $21 $-1 $99 forward single #
loop $-1 $100 $101 $39 #
cone-surface $-1 5.8578337275927339 33.380076074128461 4.6188000722196207 0 -0.6560590369687036 -0.75470957328743171 0.5 0 0 1 I I -0.70710678118654746 0.70710678118654746 0.5 forward I I I I #
loop $-1 $-1 $102 $27 #
coedge $-1 $64 $64 $103 $104 reversed $40 $-1 #
face $-1 $105 $106 $22 $-1 $107 reversed single #
loop $-1 $-1 $108 $42 #
plane-surface $-1 5.8578337275927339 -37.470519343842938 4.8998355997384095 0 -0.6560590369687036 0.75470957328743171 1 0 0 forward_v I I I I #
coedge $-1 $109 $110 $111 $112 reversed $43 $-1 #
face $-1 $-1 $113 $23 $-1 $114 forward single #
loop $-1 $115 $116 $45 #
cone-surface $-1 5.8578337275927339 -33.380076074128468 4.618800072219619 0 0.6560590369687036 -0.75470957328743171 0.5 0 0 1 I I -0.70710678118654746 0.70710678118654746 0.5 forward I I I I #
loop $-1 $-1 $117 $29 #
coedge $-1 $73 $73 $118 $119 reversed $46 $-1 #
face $-1 $120 $121 $18 $-1 $122 reversed single #
loop $-1 $-1 $123 $48 #
plane-surface $-1 0 -37.47051934384293 0 0 1 0 0 0 1 forward_v I I I I #
coedge $-1 $124 $125 $126 $127 forward $49 $-1 #
coedge $-1 $128 $51 $129 $130 forward $31 $-1 #
coedge $-1 $51 $128 $131 $132 forward $31 $-1 #
coedge $-1 $133 $134 $51 $81 reversed $135 $-1 #
edge $-1 $136 -37.47051934384293 $137 37.47051934384293 $80 $138 forward 7 unknown #
face $-1 $139 $140 $19 $-1 $141 reversed single #
loop $-1 $-1 $142 $52 #
plane-surface $-1 0 37.47051934384293 0 0 -1 0 0 0 -1 forward_v I I I I #
coedge $-1 $88 $143 $144 $145 reversed $53 $-1 #
coedge $-1 $146 $55 $147 $148 reversed $34 $-1 #
coedge $-1 $55 $146 $149 $150 reversed $34 $-1 #
coedge $-1 $151 $85 $55 $89 reversed $53 $-1 #
edge $-1 $152 -37.47051934384293 $153 37.47051934384293 $88 $154 forward 7 unknown #
face $-1 $155 $156 $20 $-1 $157 forward single #
loop $-1 $-1 $158 $56 #
plane-surface $-1 20.779373436896766 69.461650145655057 155.93052915122533 -1 0 0 0 0.6560590369687036 0.75470957328743171 forward_v I I I I #
coedge $-1 $159 $160 $161 $162 reversed $57 $-1 #
coedge $-1 $95 $59 $163 $164 reversed $37 $-1 #
coedge $-1 $59 $94 $159 $165 reversed $37 $-1 #
coedge $-1 $161 $166 $59 $97 forward $156 $-1 #
edge $-1 $167 -2.7396942710154022 $168 1.6417280772954186 $96 $169 forward 7 unknown #
loop $-1 $-1 $103 $60 #
plane-surface $-1 5.8578337275927339 -19.088199985857358 54.065581270615965 0 0.6560590369687036 0.75470957328743171 1 0 0 forward_v I I I I #
loop $-1 $-1 $170 $39 #
coedge $-1 $101 $101 $102 $171 reversed $61 $-1 #
coedge $-1 $102 $102 $101 $171 forward $63 $-1 #
coedge $-1 $103 $103 $64 $104 forward $98 $-1 #
edge $-1 $172 3.4618399685234269e-016 $172 6.2831853071796004 $103 $173 forward 7 unknown #
face $-1 $174 $175 $22 $-1 $176 reversed single #
loop $-1 $-1 $177 $65 #
plane-surface $-1 -9.0637059817112977 -126.02036947535535 106.76478348034777 1 0 0 0 0.6560590369687036 -0.75470957328743171 forward_v I I I I #
coedge $-1 $178 $179 $180 $181 reversed $66 $-1 #
coedge $-1 $110 $68 $182 $183 reversed $43 $-1 #
coedge $-1 $68 $109 $178 $184 reversed $43 $-1 #
coedge $-1 $180 $185 $68 $112 forward $186 $-1 #
edge $-1 $187 25.539665393834746 $188 29.921087742145595 $111 $189 forward 7 unknown #
loop $-1 $-1 $118 $69 #
plane-surface $-1 5.8578337275927339 -37.470519343842938 4.8998355997384095 0 -0.6560590369687036 0.75470957328743171 1 0 0 forward_v I I I I #
loop $-1 $-1 $190 $45 #
coedge $-1 $116 $116 $117 $191 reversed $70 $-1 #
coedge $-1 $117 $117 $116 $191 forward $72 $-1 #
coedge $-1 $118 $118 $73 $119 forward $113 $-1 #
edge $-1 $192 -1.1653949573696984e-015 $192 6.2831853071795996 $118 $193 forward 7 unknown #
face $-1 $194 $195 $18 $-1 $196 reversed single #
loop $-1 $-1 $197 $74 #
plane-surface $-1 -67.486190374462112 0 0 1 0 0 0 0 -1 forward_v I I I I #
coedge $-1 $198 $131 $199 $200 forward $75 $-1 #
coedge $-1 $201 $77 $198 $202 forward $49 $-1 #
coedge $-1 $77 $201 $203 $204 forward $49 $-1 #
coedge $-1 $134 $133 $77 $127 reversed $135 $-1 #
edge $-1 $205 -37.47051934384293 $206 37.47051934384293 $126 $207 forward 7 unknown #
coedge $-1 $79 $78 $208 $209 forward $31 $-1 #
coedge $-1 $210 $211 $78 $130 reversed $195 $-1 #
edge $-1 $137 -67.486190374462112 $212 67.486190374462112 $129 $213 forward 7 unknown #
coedge $-1 $123 $214 $79 $132 reversed $75 $-1 #
edge $-1 $215 -67.486190374462112 $136 67.486190374462112 $131 $216 forward 7 unknown #
coedge $-1 $126 $80 $214 $217 forward $135 $-1 #
coedge $-1 $80 $126 $210 $218 reversed $135 $-1 #
loop $-1 $-1 $133 $194 #
vertex $-1 $81 $219 #
vertex $-1 $81 $220 #
straight-curve $-1 67.486190374462112 0 8.7085480212134598 0 1 0 I I #
face $-1 $221 $222 $19 $-1 $223 forward single #
loop $-1 $-1 $224 $82 #
plane-surface $-1 -67.486190374462112 0 0 1 0 0 0 0 -1 forward_v I I I I #
coedge $-1 $149 $225 $151 $226 forward $83 $-1 #
coedge $-1 $85 $151 $227 $228 reversed $53 $-1 #
coedge $-1 $229 $147 $85 $145 forward $230 $-1 #
edge $-1 $153 1.7368061125897674 $231 5.2267633099457171 $144 $232 forward 7 unknown #
coedge $-1 $87 $86 $224 $233 reversed $34 $-1 #
coedge $-1 $144 $234 $86 $148 forward $230 $-1 #
edge $-1 $235 -35.278366464026085 $153 -29.137281356845968 $147 $236 forward 7 unknown #
coedge $-1 $237 $142 $87 $150 forward $83 $-1 #
edge $-1 $152 29.137281356845968 $238 35.278366464026085 $149 $239 forward 7 unknown #
coedge $-1 $143 $88 $142 $226 reversed $53 $-1 #
vertex $-1 $150 $240 #
vertex $-1 $148 $241 #
straight-curve $-1 -61.345105267281994 0 5.2185908238575101 0 -1 0 I I #
face $-1 $-1 $242 $20 $-1 $243 reversed single #
loop $-1 $-1 $96 $90 #
plane-surface $-1 0 0 8.7085480212134598 0 0 1 1 0 0 forward_v I I I I #
coedge $-1 $244 $245 $246 $247 reversed $91 $-1 #
coedge $-1 $248 $93 $95 $165 forward $57 $-1 #
coedge $-1 $93 $248 $244 $249 forward $57 $-1 #
coedge $-1 $246 $96 $93 $162 forward $156 $-1 #
edge $-1 $168 -11.992622845507665 $250 17.850456573100399 $161 $251 forward 7 unknown #
coedge $-1 $252 $253 $94 $164 forward $242 $-1 #
edge $-1 $254 -73.065428975874227 $167 -69.256716554399205 $163 $255 forward 7 unknown #
edge $-1 $168 69.13559709347652 $254 74.941038687685847 $95 $256 forward 7 unknown #
coedge $-1 $96 $246 $252 $257 forward $156 $-1 #
vertex $-1 $164 $258 #
vertex $-1 $97 $259 #
straight-curve $-1 -9.0637059817112977 34.730825072827528 8.7085480212134598 0 -1 0 I I #
coedge $-1 $170 $170 $-1 $260 reversed $100 $-1 #
edge $-1 $261 0 $261 6.2831853071796004 $101 $262 forward 7 unknown #
vertex $-1 $104 $263 #
ellipse-curve $-1 5.8578337275927339 35.279808169687513 6.8041918104759542 0 0.6560590369687036 0.75470957328743171 1 0 0 1 I I #
face $-1 $-1 $186 $22 $-1 $264 forward single #
loop $-1 $-1 $265 $105 #
plane-surface $-1 0 -37.47051934384293 0 0 1 0 0 0 1 forward_v I I I I #
coedge $-1 $266 $267 $268 $269 reversed $106 $-1 #
coedge $-1 $270 $108 $110 $184 forward $66 $-1 #
coedge $-1 $108 $270 $266 $271 forward $66 $-1 #
coedge $-1 $268 $111 $108 $181 forward $186 $-1 #
edge $-1 $188 -17.850456573100399 $272 11.992622845507665 $180 $273 forward 7 unknown #
coedge $-1 $274 $275 $109 $183 forward $175 $-1 #
edge $-1 $276 -48.48255614043547 $187 -44.673843718960427 $182 $277 forward 7 unknown #
edge $-1 $188 -5.8054415942093645 $276 -9.44141639987384e-015 $110 $278 forward 7 unknown #
coedge $-1 $111 $268 $274 $279 forward $186 $-1 #
loop $-1 $-1 $268 $174 #
vertex $-1 $183 $280 #
vertex $-1 $112 $281 #
straight-curve $-1 20.779373436896766 -63.010184737677676 8.7085480212134598 0 1 0 I I #
coedge $-1 $190 $190 $-1 $282 reversed $115 $-1 #
edge $-1 $283 0 $283 6.2831853071796004 $116 $284 forward 7 unknown #
vertex $-1 $119 $285 #
ellipse-curve $-1 5.8578337275927339 -35.279808169687506 6.8041918104759374 0 -0.6560590369687036 0.75470957328743171 1 0 0 1 I I #
face $-1 $-1 $135 $18 $-1 $286 reversed single #
loop $-1 $-1 $210 $120 #
plane-surface $-1 0 37.47051934384293 0 0 -1 0 0 0 -1 forward_v I I I I #
coedge $-1 $287 $208 $211 $288 forward $121 $-1 #
coedge $-1 $214 $123 $124 $202 reversed $75 $-1 #
coedge $-1 $208 $287 $123 $200 reversed $121 $-1 #
edge $-1 $215 -8.7085480212134598 $289 8.7085480212134598 $199 $290 forward 7 unknown #
coedge $-1 $125 $124 $287 $291 forward $49 $-1 #
edge $-1 $206 -67.486190374462112 $289 67.486190374462112 $198 $292 forward 7 unknown #
coedge $-1 $211 $210 $125 $204 reversed $195 $-1 #
edge $-1 $293 -67.486190374462112 $205 67.486190374462112 $203 $294 forward 7 unknown #
vertex $-1 $127 $295 #
vertex $-1 $217 $296 #
straight-curve $-1 67.486190374462112 0 -8.7085480212134598 0 -1 0 I I #
coedge $-1 $197 $199 $128 $209 reversed $121 $-1 #
edge $-1 $212 -37.47051934384293 $215 37.47051934384293 $208 $297 forward 7 unknown #
coedge $-1 $203 $129 $134 $218 forward $195 $-1 #
coedge $-1 $129 $203 $197 $288 reversed $195 $-1 #
vertex $-1 $130 $298 #
straight-curve $-1 0 37.47051934384293 8.7085480212134598 -1 0 0 I I #
coedge $-1 $131 $198 $133 $217 reversed $75 $-1 #
vertex $-1 $209 $299 #
straight-curve $-1 0 -37.47051934384293 8.7085480212134598 1 0 0 I I #
edge $-1 $136 -8.7085480212134598 $206 8.7085480212134598 $133 $300 forward 7 unknown #
edge $-1 $137 -8.7085480212134598 $205 8.7085480212134598 $134 $301 forward 7 unknown #
point $-1 67.486190374462112 -37.47051934384293 8.7085480212134598 #
point $-1 67.486190374462112 37.47051934384293 8.7085480212134598 #
face $-1 $-1 $230 $19 $-1 $302 reversed single #
loop $-1 $-1 $227 $139 #
plane-surface $-1 0 0 8.7085480212134598 0 0 1 1 0 0 forward_v I I I I #
coedge $-1 $303 $304 $146 $233 forward $140 $-1 #
coedge $-1 $142 $237 $305 $306 reversed $83 $-1 #
edge $-1 $307 -5.2267633099457171 $152 -1.7368061125897674 $142 $308 forward 7 unknown #
coedge $-1 $305 $309 $143 $228 forward $222 $-1 #
edge $-1 $231 -37.47051934384293 $307 37.47051934384293 $227 $310 forward 7 unknown #
coedge $-1 $234 $144 $309 $311 reversed $230 $-1 #
loop $-1 $-1 $144 $221 #
vertex $-1 $145 $312 #
straight-curve $-1 -61.345105267281994 -37.47051934384293 3.4817847112677427 0 0 1 I I #
edge $-1 $238 -37.47051934384293 $235 37.47051934384293 $224 $313 forward 7 unknown #
coedge $-1 $147 $229 $303 $314 forward $230 $-1 #
vertex $-1 $233 $315 #
straight-curve $-1 -32.207823910436026 -37.47051934384293 5.2185908238575101 1 0 0 I I #
coedge $-1 $225 $149 $304 $316 reversed $83 $-1 #
vertex $-1 $233 $317 #
straight-curve $-1 -32.207823910436026 37.47051934384293 5.2185908238575101 -1 0 0 I I #
point $-1 -61.345105267281994 37.47051934384293 5.2185908238575101 #
point $-1 -61.345105267281994 -37.47051934384293 5.2185908238575101 #
loop $-1 $-1 $163 $155 #
plane-surface $-1 0 37.47051934384293 0 0 -1 0 0 0 -1 forward_v I I I I #
coedge $-1 $245 $158 $160 $249 reversed $91 $-1 #
coedge $-1 $158 $244 $318 $319 reversed $91 $-1 #
coedge $-1 $166 $161 $158 $247 forward $156 $-1 #
edge $-1 $250 -1.6417280772954186 $320 2.7396942710154022 $246 $321 forward 7 unknown #
coedge $-1 $160 $159 $253 $322 reversed $57 $-1 #
edge $-1 $323 -74.941038687685847 $250 -69.13559709347652 $244 $324 forward 7 unknown #
vertex $-1 $162 $325 #
straight-curve $-1 2.928916863796367 33.089096995532095 8.7085480212134669 1 0 0 I I #
coedge $-1 $318 $163 $166 $257 reversed $242 $-1 #
coedge $-1 $163 $318 $248 $322 forward $242 $-1 #
vertex $-1 $164 $326 #
straight-curve $-1 -9.0637059817112977 37.47051934384293 77.965264575612665 0 0 1 I I #
straight-curve $-1 -9.0637059817112977 -19.088199985857358 54.065581270615965 0 0.75470957328743171 -0.6560590369687036 I I #
edge $-1 $320 -20.779373436896766 $167 9.0637059817112977 $252 $327 forward 7 unknown #
point $-1 -9.0637059817112977 37.47051934384293 8.7085480212134598 #
point $-1 -9.0637059817112977 33.08909699553211 8.7085480212134527 #
edge $-1 $328 1 $328 0 $170 $-1 forward 7 unknown #
vertex $-1 $171 $329 #
ellipse-curve $-1 5.8578337275927339 33.70810559261281 4.9961548588633367 0 0.6560590369687036 0.75470957328743171 1 0 0 1 I I #
point $-1 6.8578337275927339 35.279808169687499 6.8041918104759374 #
plane-surface $-1 0 0 8.7085480212134598 0 0 1 1 0 0 forward_v I I I I #
coedge $-1 $275 $274 $267 $330 forward $175 $-1 #
coedge $-1 $267 $177 $179 $271 reversed $106 $-1 #
coedge $-1 $177 $266 $265 $330 reversed $106 $-1 #
coedge $-1 $185 $180 $177 $269 forward $186 $-1 #
edge $-1 $272 -29.921087742145595 $331 -25.539665393834746 $268 $332 forward 7 unknown #
coedge $-1 $179 $178 $275 $333 reversed $66 $-1 #
edge $-1 $334 9.44141639987384e-015 $272 5.8054415942093645 $266 $335 forward 7 unknown #
vertex $-1 $181 $336 #
straight-curve $-1 2.928916863796367 -33.089096995532081 8.7085480212134598 -1 0 0 I I #
coedge $-1 $265 $182 $185 $279 reversed $175 $-1 #
coedge $-1 $182 $265 $270 $333 forward $175 $-1 #
vertex $-1 $183 $337 #
straight-curve $-1 20.779373436896766 -37.47051934384293 53.382391740173887 0 0 1 I I #
straight-curve $-1 20.779373436896766 -37.470519343842938 4.8998355997384095 0 -0.75470957328743171 -0.6560590369687036 I I #
edge $-1 $331 -9.0637059817112977 $187 20.779373436896766 $274 $338 forward 7 unknown #
point $-1 20.779373436896766 -37.47051934384293 8.7085480212134598 #
point $-1 20.779373436896766 -33.089096995532081 8.7085480212134598 #
edge $-1 $339 1 $339 0 $190 $-1 forward 7 unknown #
vertex $-1 $191 $340 #
ellipse-curve $-1 5.8578337275927339 -33.708105592612817 4.9961548588633349 0 -0.6560590369687036 0.75470957328743171 1 0 0 1 I I #
point $-1 6.8578337275927339 -35.279808169687506 6.8041918104759356 #
plane-surface $-1 67.486190374462112 0 0 -1 0 0 0 0 1 forward_v I I I I #
coedge $-1 $199 $197 $201 $291 reversed $121 $-1 #
edge $-1 $212 -8.7085480212134598 $293 8.7085480212134598 $211 $341 forward 7 unknown #
vertex $-1 $291 $342 #
straight-curve $-1 -67.486190374462112 -37.47051934384293 0 0 0 -1 I I #
edge $-1 $289 -37.47051934384293 $293 37.47051934384293 $287 $343 forward 7 unknown #
straight-curve $-1 0 -37.47051934384293 -8.7085480212134598 -1 0 0 I I #
vertex $-1 $204 $344 #
straight-curve $-1 0 37.47051934384293 -8.7085480212134598 1 0 0 I I #
point $-1 67.486190374462112 37.47051934384293 -8.7085480212134598 #
point $-1 67.486190374462112 -37.47051934384293 -8.7085480212134598 #
straight-curve $-1 -67.486190374462112 0 8.7085480212134598 0 -1 0 I I #
point $-1 -67.486190374462112 37.47051934384293 8.7085480212134598 #
point $-1 -67.486190374462112 -37.47051934384293 8.7085480212134598 #
straight-curve $-1 67.486190374462112 -37.47051934384293 0 0 0 -1 I I #
straight-curve $-1 67.486190374462112 37.47051934384293 0 0 0 -1 I I #
plane-surface $-1 0 -37.47051934384293 0 0 1 0 0 0 1 forward_v I I I I #
coedge $-1 $345 $224 $234 $314 reversed $140 $-1 #
coedge $-1 $224 $345 $237 $316 forward $140 $-1 #
coedge $-1 $346 $227 $225 $306 forward $222 $-1 #
edge $-1 $307 61.345105267281994 $347 67.486190374462112 $225 $348 forward 7 unknown #
vertex $-1 $306 $349 #
straight-curve $-1 -61.345105267281994 37.47051934384293 3.4817847112677427 0 0 -1 I I #
coedge $-1 $227 $346 $229 $311 forward $222 $-1 #
straight-curve $-1 -61.345105267281994 0 8.7085480212134598 0 1 0 I I #
edge $-1 $350 -67.486190374462112 $231 -61.345105267281994 $229 $351 forward 7 unknown #
point $-1 -61.345105267281994 -37.47051934384293 8.7085480212134598 #
straight-curve $-1 -67.486190374462112 0 5.2185908238575101 0 -1 0 I I #
edge $-1 $350 -8.7085480212134598 $235 -5.2185908238575101 $303 $352 forward 7 unknown #
point $-1 -67.486190374462112 -37.47051934384293 5.2185908238575101 #
edge $-1 $347 -8.7085480212134598 $238 -5.2185908238575101 $237 $353 forward 7 unknown #
point $-1 -67.486190374462112 37.47051934384293 5.2185908238575101 #
coedge $-1 $253 $252 $245 $319 forward $242 $-1 #
edge $-1 $320 69.256716554399205 $323 73.065428975874227 $318 $354 forward 7 unknown #
vertex $-1 $257 $355 #
straight-curve $-1 20.779373436896766 34.730825072827528 8.7085480212134598 0 1 0 I I #
edge $-1 $323 -17.850456573100399 $254 11.992622845507665 $253 $356 forward 7 unknown #
vertex $-1 $322 $357 #
straight-curve $-1 20.779373436896766 -19.088199985857358 54.065581270615965 0 -0.75470957328743171 0.6560590369687036 I I #
point $-1 20.779373436896766 33.08909699553211 8.7085480212134527 #
point $-1 -9.0637059817112977 37.47051934384293 4.899835599738438 #
straight-curve $-1 0 37.47051934384293 8.7085480212134598 -1 0 0 I I #
vertex $-1 $260 $358 #
point $-1 6.8578337275927339 33.70810559261281 4.9961548588633367 #
edge $-1 $331 44.673843718960427 $334 48.48255614043547 $265 $359 forward 7 unknown #
vertex $-1 $279 $360 #
straight-curve $-1 -9.0637059817112977 -63.010184737677676 8.7085480212134598 0 -1 0 I I #
edge $-1 $334 -11.992622845507665 $276 17.850456573100399 $275 $361 forward 7 unknown #
vertex $-1 $333 $362 #
straight-curve $-1 -9.0637059817112977 -37.470519343842938 4.8998355997384095 0 0.75470957328743171 0.6560590369687036 I I #
point $-1 -9.0637059817112977 -33.089096995532081 8.7085480212134598 #
point $-1 20.779373436896766 -37.47051934384293 4.8998355997384158 #
straight-curve $-1 0 -37.47051934384293 8.7085480212134598 1 0 0 I I #
vertex $-1 $282 $363 #
point $-1 6.8578337275927339 -33.708105592612817 4.9961548588633349 #
straight-curve $-1 -67.486190374462112 37.47051934384293 0 0 0 -1 I I #
point $-1 -67.486190374462112 -37.47051934384293 -8.7085480212134598 #
straight-curve $-1 -67.486190374462112 0 -8.7085480212134598 0 1 0 I I #
point $-1 -67.486190374462112 37.47051934384293 -8.7085480212134598 #
coedge $-1 $304 $303 $346 $364 reversed $140 $-1 #
coedge $-1 $309 $305 $345 $364 forward $222 $-1 #
vertex $-1 $306 $365 #
straight-curve $-1 0 37.47051934384293 8.7085480212134598 -1 0 0 I I #
point $-1 -61.345105267281994 37.47051934384293 8.7085480212134598 #
vertex $-1 $364 $366 #
straight-curve $-1 0 -37.47051934384293 8.7085480212134598 1 0 0 I I #
straight-curve $-1 -67.486190374462112 -37.47051934384293 0 0 0 -1 I I #
straight-curve $-1 -67.486190374462112 37.47051934384293 0 0 0 -1 I I #
straight-curve $-1 20.779373436896766 37.47051934384293 77.965264575612665 0 0 -1 I I #
point $-1 20.779373436896766 37.47051934384293 8.7085480212134598 #
straight-curve $-1 2.928916863796367 37.47051934384293 4.8998355997384415 -1 0 0 I I #
point $-1 20.779373436896766 37.47051934384293 4.899835599738438 #
point $-1 5.8578337275927339 33.052046555644111 4.2414452855759048 #
straight-curve $-1 -9.0637059817112977 -37.47051934384293 53.382391740173887 0 0 -1 I I #
point $-1 -9.0637059817112977 -37.47051934384293 8.7085480212134598 #
straight-curve $-1 2.928916863796367 -37.47051934384293 4.8998355997384184 1 0 0 I I #
point $-1 -9.0637059817112977 -37.47051934384293 4.8998355997384158 #
point $-1 5.8578337275927339 -33.052046555644118 4.2414452855759031 #
edge $-1 $347 -37.47051934384293 $350 37.47051934384293 $345 $367 forward 7 unknown #
point $-1 -67.486190374462112 37.47051934384293 8.7085480212134598 #
point $-1 -67.486190374462112 -37.47051934384293 8.7085480212134598 #
straight-curve $-1 -67.486190374462112 0 8.7085480212134598 0 -1 0 I I #
End-of-ACIS-data 