500 0 5 0           
7 Unknown 11 ACIS 5.0 NT 24 Thu Mar 25 15:14:16 1999 
-1 9.9999999999999995e-007 1e-010 
body $-1 $5 $-1 $6 #
body $-1 $7 $-1 $8 #
body $-1 $9 $-1 $10 #
body $-1 $11 $-1 $12 #
body $-1 $13 $-1 $14 #
lump $-1 $-1 $15 $0 #
transform $-1 1 0 0 0 1 0 0 0 1 63.25510422070986 37.725655346012772 7.8138516709591812 1 rotate no_reflect no_shear #
lump $-1 $-1 $16 $1 #
transform $-1 1 0 0 0 1 0 0 0 1 63.25510422070986 37.725655346012772 7.8138516709591812 1 rotate no_reflect no_shear #
lump $-1 $-1 $17 $2 #
transform $-1 1 0 0 0 1 0 0 0 1 63.25510422070986 37.725655346012772 7.8138516709591812 1 rotate no_reflect no_shear #
lump $-1 $-1 $18 $3 #
transform $-1 1 0 0 0 1 0 0 0 1 63.25510422070986 37.725655346012772 7.8138516709591812 1 rotate no_reflect no_shear #
lump $-1 $-1 $19 $4 #
transform $-1 1 0 0 0 1 0 0 0 1 63.25510422070986 37.725655346012772 7.8138516709591812 1 rotate no_reflect no_shear #
shell $-1 $-1 $-1 $20 $-1 $5 #
shell $-1 $-1 $-1 $21 $-1 $7 #
shell $-1 $-1 $-1 $22 $-1 $9 #
shell $-1 $-1 $-1 $23 $-1 $11 #
shell $-1 $-1 $-1 $24 $-1 $13 #
face $-1 $25 $26 $15 $-1 $27 forward single #
face $-1 $28 $29 $16 $-1 $30 reversed single #
face $-1 $31 $32 $17 $-1 $33 forward single #
face $-1 $34 $35 $18 $-1 $36 reversed single #
face $-1 $37 $38 $19 $-1 $39 reversed single #
face $-1 $40 $41 $15 $-1 $42 reversed single #
loop $-1 $-1 $43 $20 #
plane-surface $-1 0 0 7.8138516709591812 0 0 1 1 0 0 forward_v I I I I #
face $-1 $44 $45 $16 $-1 $46 forward single #
loop $-1 $-1 $47 $21 #
plane-surface $-1 0 -33.342942324785902 0.56796165250314168 0 0 1 1 0 0 forward_v I I I I #
face $-1 $48 $49 $17 $-1 $50 forward single #
loop $-1 $-1 $51 $22 #
plane-surface $-1 -132.15750296855379 21.81461940195878 109.2676544847717 0 1 0 -0.54463904215088732 0 0.83867056331134215 forward_v I I I I #
face $-1 $52 $53 $18 $-1 $54 reversed single #
loop $-1 $55 $56 $23 #
cone-surface $-1 -59.405228072250821 26.3606296716885 5.0712239071093741 0.54463904215088732 0 -0.83867056331134215 0.41933528165567108 0 0.27231952107544366 1 I I 0 1 0.5 forward I I I I #
face $-1 $57 $58 $19 $-1 $59 reversed single #
loop $-1 $60 $61 $24 #
cone-surface $-1 -59.405228072250821 33.179645076283066 5.0712239071093741 0.54463904215088732 0 -0.83867056331134215 0.41933528165567108 0 0.27231952107544366 1 I I 0 1 0.5 forward I I I I #
face $-1 $62 $63 $15 $-1 $64 reversed single #
loop $-1 $-1 $65 $25 #
plane-surface $-1 0 0 -7.8138516709591812 0 0 1 1 0 0 forward_v I I I I #
coedge $-1 $66 $67 $68 $69 forward $26 $-1 #
face $-1 $70 $71 $16 $-1 $72 forward single #
loop $-1 $-1 $73 $28 #
plane-surface $-1 0 -33.342942324785902 -2.4320383474968583 0 0 1 1 0 0 forward_v I I I I #
coedge $-1 $74 $75 $76 $77 reversed $29 $-1 #
face $-1 $78 $79 $17 $-1 $80 forward single #
loop $-1 $-1 $81 $31 #
plane-surface $-1 -63.255104220709853 29.770137373985776 3.1672667065709135 -0.54463904215088732 0 0.83867056331134215 0.83867056331134215 0 0.54463904215088732 forward_v I I I I #
coedge $-1 $82 $83 $84 $85 reversed $32 $-1 #
face $-1 $86 $87 $18 $-1 $88 forward single #
loop $-1 $89 $90 $34 #
cone-surface $-1 -58.996748790637653 26.3606296716885 4.4422209846258678 0.54463904215088732 0 -0.83867056331134215 0.20966764082783554 0 0.13615976053772183 1 I I -0.70710678118654746 0.70710678118654746 0.25 forward I I I I #
loop $-1 $-1 $91 $23 #
coedge $-1 $56 $56 $92 $93 reversed $35 $-1 #
face $-1 $94 $95 $19 $-1 $96 reversed single #
loop $-1 $97 $98 $37 #
cone-surface $-1 -58.996748790637653 33.179645076283066 4.4422209846258678 0.54463904215088732 0 -0.83867056331134215 0.20966764082783554 0 0.13615976053772183 1 I I -0.70710678118654746 0.70710678118654746 0.25 forward I I I I #
loop $-1 $-1 $99 $24 #
coedge $-1 $61 $61 $100 $101 reversed $38 $-1 #
face $-1 $102 $103 $15 $-1 $104 reversed single #
loop $-1 $-1 $105 $40 #
plane-surface $-1 0 -37.725655346012772 0 0 1 0 0 0 1 forward_v I I I I #
coedge $-1 $106 $107 $108 $109 forward $41 $-1 #
coedge $-1 $110 $43 $111 $112 forward $26 $-1 #
coedge $-1 $43 $110 $113 $114 forward $26 $-1 #
coedge $-1 $115 $116 $43 $69 reversed $117 $-1 #
edge $-1 $118 -37.725655346012772 $119 37.725655346012772 $68 $120 forward 7 unknown #
face $-1 $121 $122 $16 $-1 $123 reversed single #
loop $-1 $-1 $124 $44 #
plane-surface $-1 0 -28.960229303559032 -0.93203834749685832 0 -1 0 0 0 -1 forward_v I I I I #
coedge $-1 $125 $126 $127 $128 reversed $45 $-1 #
coedge $-1 $129 $47 $130 $131 reversed $29 $-1 #
coedge $-1 $47 $129 $132 $133 reversed $29 $-1 #
coedge $-1 $134 $135 $47 $77 forward $122 $-1 #
edge $-1 $136 -21.054184183619821 $137 -12.288758141166081 $76 $138 forward 7 unknown #
face $-1 $139 $140 $17 $-1 $141 reversed single #
loop $-1 $-1 $142 $48 #
plane-surface $-1 0 0 7.8138516709591812 0 0 1 1 0 0 forward_v I I I I #
coedge $-1 $143 $144 $142 $145 reversed $49 $-1 #
coedge $-1 $83 $51 $144 $146 forward $32 $-1 #
coedge $-1 $51 $82 $147 $148 reversed $32 $-1 #
coedge $-1 $149 $142 $51 $85 forward $79 $-1 #
edge $-1 $150 -9.9787605183342336 $151 -2.8236472635670324 $84 $152 forward 7 unknown #
face $-1 $153 $154 $18 $-1 $155 forward single #
loop $-1 $-1 $156 $52 #
plane-surface $-1 -132.15750296855379 21.81461940195878 109.2676544847717 0 1 0 -0.54463904215088732 0 0.83867056331134215 forward_v I I I I #
loop $-1 $-1 $157 $34 #
coedge $-1 $90 $90 $91 $158 forward $53 $-1 #
coedge $-1 $91 $91 $90 $158 reversed $55 $-1 #
coedge $-1 $92 $92 $56 $93 forward $154 $-1 #
edge $-1 $159 0 $159 6.2831853071796004 $92 $160 forward 7 unknown #
face $-1 $161 $162 $19 $-1 $163 reversed single #
loop $-1 $164 $165 $57 #
cone-surface $-1 -59.405228072250821 26.3606296716885 5.0712239071093741 0.54463904215088732 0 -0.83867056331134215 0.41933528165567108 0 0.27231952107544366 1 I I 0 1 0.5 forward I I I I #
loop $-1 $-1 $166 $37 #
coedge $-1 $98 $98 $99 $167 forward $58 $-1 #
coedge $-1 $99 $99 $98 $167 reversed $60 $-1 #
coedge $-1 $100 $100 $61 $101 forward $168 $-1 #
edge $-1 $169 0 $169 6.2831853071796004 $100 $170 forward 7 unknown #
face $-1 $171 $172 $15 $-1 $173 reversed single #
loop $-1 $-1 $174 $62 #
plane-surface $-1 -63.25510422070986 0 0 1 0 0 0 0 -1 forward_v I I I I #
coedge $-1 $175 $113 $176 $177 forward $63 $-1 #
coedge $-1 $178 $65 $175 $179 forward $41 $-1 #
coedge $-1 $65 $178 $180 $181 forward $41 $-1 #
coedge $-1 $116 $115 $65 $109 reversed $117 $-1 #
edge $-1 $182 -37.725655346012772 $183 37.725655346012772 $108 $184 forward 7 unknown #
coedge $-1 $67 $66 $185 $186 forward $26 $-1 #
coedge $-1 $187 $188 $66 $112 reversed $172 $-1 #
edge $-1 $119 -63.25510422070986 $189 63.25510422070986 $111 $190 forward 7 unknown #
coedge $-1 $105 $191 $67 $114 reversed $63 $-1 #
edge $-1 $192 -63.25510422070986 $118 63.25510422070986 $113 $193 forward 7 unknown #
coedge $-1 $108 $68 $191 $194 forward $117 $-1 #
coedge $-1 $68 $108 $187 $195 reversed $117 $-1 #
loop $-1 $-1 $115 $171 #
vertex $-1 $69 $196 #
vertex $-1 $69 $197 #
straight-curve $-1 63.25510422070986 0 7.8138516709591812 0 1 0 I I #
face $-1 $198 $199 $16 $-1 $200 reversed single #
loop $-1 $-1 $76 $70 #
plane-surface $-1 63.25510422070986 0 0 -1 0 0 0 0 1 forward_v I I I I #
coedge $-1 $132 $201 $134 $202 reversed $71 $-1 #
coedge $-1 $203 $73 $201 $204 reversed $45 $-1 #
coedge $-1 $73 $203 $205 $206 reversed $45 $-1 #
coedge $-1 $207 $134 $73 $128 forward $122 $-1 #
edge $-1 $208 12.288758141166081 $209 21.054184183619821 $127 $210 forward 7 unknown #
coedge $-1 $75 $74 $211 $212 reversed $29 $-1 #
coedge $-1 $213 $214 $74 $131 forward $215 $-1 #
edge $-1 $216 -63.25510422070986 $136 63.25510422070986 $130 $217 forward 7 unknown #
coedge $-1 $218 $124 $75 $133 forward $71 $-1 #
edge $-1 $137 -63.25510422070986 $219 63.25510422070986 $132 $220 forward 7 unknown #
coedge $-1 $127 $76 $124 $202 forward $122 $-1 #
coedge $-1 $76 $221 $213 $222 forward $122 $-1 #
vertex $-1 $131 $223 #
vertex $-1 $77 $224 #
straight-curve $-1 63.25510422070986 -16.671471162392951 0.56796165250314168 0 1 0 I I #
face $-1 $225 $226 $17 $-1 $227 reversed single #
loop $-1 $-1 $147 $78 #
plane-surface $-1 -63.25510422070986 0 0 1 0 0 0 0 -1 forward_v I I I I #
coedge $-1 $84 $228 $81 $145 forward $79 $-1 #
coedge $-1 $229 $81 $230 $231 reversed $49 $-1 #
coedge $-1 $81 $229 $82 $146 reversed $49 $-1 #
edge $-1 $232 -22.840586659019884 $150 -6.9295507149658917 $142 $233 forward 7 unknown #
edge $-1 $150 -8.5314944482091946 $234 8.3777959833898778e-015 $82 $235 forward 7 unknown #
coedge $-1 $236 $237 $83 $148 forward $140 $-1 #
edge $-1 $151 46.819975571426667 $234 51.466560535814942 $147 $238 forward 7 unknown #
coedge $-1 $239 $84 $237 $240 forward $79 $-1 #
vertex $-1 $145 $241 #
vertex $-1 $240 $242 #
straight-curve $-1 -66.078751484276893 21.81461940195878 7.8138516709591812 -1 0 0 I I #
face $-1 $243 $244 $18 $-1 $245 forward single #
loop $-1 $246 $92 $86 #
plane-surface $-1 -63.255104220709853 29.770137373985776 3.1672667065709135 -0.54463904215088732 0 0.83867056331134215 0.83867056331134215 0 0.54463904215088732 forward_v I I I I #
coedge $-1 $247 $248 $249 $250 reversed $87 $-1 #
coedge $-1 $157 $157 $-1 $251 forward $89 $-1 #
edge $-1 $252 0 $252 6.2831853071796004 $90 $253 forward 7 unknown #
vertex $-1 $93 $254 #
ellipse-curve $-1 -59.677547593326267 26.3606296716885 5.4905591887650429 0.54463904215088732 0 -0.83867056331134215 0.41933528165567108 0 0.27231952107544366 1 I I #
face $-1 $255 $256 $19 $-1 $257 forward single #
loop $-1 $258 $259 $94 #
cone-surface $-1 -58.996748790637653 26.3606296716885 4.4422209846258678 0.54463904215088732 0 -0.83867056331134215 0.20966764082783554 0 0.13615976053772183 1 I I -0.70710678118654746 0.70710678118654746 0.25 forward I I I I #
loop $-1 $-1 $260 $57 #
coedge $-1 $165 $165 $261 $262 reversed $95 $-1 #
coedge $-1 $166 $166 $-1 $263 forward $97 $-1 #
edge $-1 $264 0 $264 6.2831853071796004 $98 $265 forward 7 unknown #
loop $-1 $266 $100 $255 #
vertex $-1 $101 $267 #
ellipse-curve $-1 -59.677547593326267 33.179645076283066 5.4905591887650429 0.54463904215088732 0 -0.83867056331134215 0.41933528165567108 0 0.27231952107544366 1 I I #
face $-1 $-1 $117 $15 $-1 $268 reversed single #
loop $-1 $-1 $187 $102 #
plane-surface $-1 0 37.725655346012772 0 0 -1 0 0 0 -1 forward_v I I I I #
coedge $-1 $269 $185 $188 $270 forward $103 $-1 #
coedge $-1 $191 $105 $106 $179 reversed $63 $-1 #
coedge $-1 $185 $269 $105 $177 reversed $103 $-1 #
edge $-1 $192 -7.8138516709591812 $271 7.8138516709591812 $176 $272 forward 7 unknown #
coedge $-1 $107 $106 $269 $273 forward $41 $-1 #
edge $-1 $183 -63.25510422070986 $271 63.25510422070986 $175 $274 forward 7 unknown #
coedge $-1 $188 $187 $107 $181 reversed $172 $-1 #
edge $-1 $275 -63.25510422070986 $182 63.25510422070986 $180 $276 forward 7 unknown #
vertex $-1 $109 $277 #
vertex $-1 $194 $278 #
straight-curve $-1 63.25510422070986 0 -7.8138516709591812 0 -1 0 I I #
coedge $-1 $174 $176 $110 $186 reversed $103 $-1 #
edge $-1 $189 -37.725655346012772 $192 37.725655346012772 $185 $279 forward 7 unknown #
coedge $-1 $180 $111 $116 $195 forward $172 $-1 #
coedge $-1 $111 $180 $174 $270 reversed $172 $-1 #
vertex $-1 $112 $280 #
straight-curve $-1 0 37.725655346012772 7.8138516709591812 -1 0 0 I I #
coedge $-1 $113 $175 $115 $194 reversed $63 $-1 #
vertex $-1 $186 $281 #
straight-curve $-1 0 -37.725655346012772 7.8138516709591812 1 0 0 I I #
edge $-1 $118 -7.8138516709591812 $183 7.8138516709591812 $115 $282 forward 7 unknown #
edge $-1 $119 -7.8138516709591812 $182 7.8138516709591812 $116 $283 forward 7 unknown #
point $-1 63.25510422070986 -37.725655346012772 7.8138516709591812 #
point $-1 63.25510422070986 37.725655346012772 7.8138516709591812 #
face $-1 $284 $285 $16 $-1 $286 forward single #
loop $-1 $-1 $205 $121 #
plane-surface $-1 0 -37.725655346012772 0 0 1 0 0 0 1 forward_v I I I I #
coedge $-1 $124 $218 $125 $204 forward $71 $-1 #
edge $-1 $137 -1.0339808262515708 $208 1.9660191737484292 $134 $287 forward 7 unknown #
coedge $-1 $126 $125 $288 $289 reversed $45 $-1 #
edge $-1 $290 -63.25510422070986 $208 63.25510422070986 $201 $291 forward 7 unknown #
coedge $-1 $292 $293 $126 $206 forward $199 $-1 #
edge $-1 $209 -63.25510422070986 $294 63.25510422070986 $205 $295 forward 7 unknown #
coedge $-1 $296 $127 $293 $297 forward $122 $-1 #
vertex $-1 $128 $298 #
vertex $-1 $297 $299 #
straight-curve $-1 63.25510422070986 -16.671471162392951 -2.4320383474968583 0 -1 0 I I #
coedge $-1 $300 $301 $129 $212 forward $302 $-1 #
edge $-1 $219 12.288758141166081 $216 21.054184183619821 $211 $303 forward 7 unknown #
coedge $-1 $304 $130 $135 $222 reversed $215 $-1 #
coedge $-1 $130 $304 $300 $305 forward $215 $-1 #
loop $-1 $-1 $130 $306 #
vertex $-1 $212 $307 #
straight-curve $-1 0 -37.725655346012772 0.56796165250314168 1 0 0 I I #
coedge $-1 $201 $132 $301 $308 reversed $71 $-1 #
vertex $-1 $212 $309 #
straight-curve $-1 0 -28.960229303559032 0.56796165250314168 -1 0 0 I I #
coedge $-1 $135 $310 $311 $312 reversed $122 $-1 #
edge $-1 $313 -7.8138516709591812 $136 -0.56796165250314168 $135 $314 forward 7 unknown #
point $-1 63.25510422070986 -37.725655346012772 0.56796165250314168 #
point $-1 63.25510422070986 -28.960229303559032 0.56796165250314168 #
face $-1 $315 $316 $17 $-1 $317 forward single #
loop $-1 $-1 $318 $139 #
plane-surface $-1 0 -33.342942324785902 0.56796165250314168 0 0 1 1 0 0 forward_v I I I I #
coedge $-1 $142 $319 $320 $321 forward $79 $-1 #
coedge $-1 $144 $143 $236 $322 reversed $49 $-1 #
coedge $-1 $320 $323 $143 $231 forward $324 $-1 #
edge $-1 $325 -25.662588391898613 $232 -17.131093943689407 $230 $326 forward 7 unknown #
vertex $-1 $231 $327 #
straight-curve $-1 -56.099990965942659 14.885068686992888 7.8138516709591812 0 -1 0 I I #
vertex $-1 $322 $328 #
straight-curve $-1 -63.255104220709853 21.81461940195878 3.1672667065709135 -0.83867056331134215 0 -0.54463904215088732 I I #
coedge $-1 $329 $147 $229 $322 forward $140 $-1 #
coedge $-1 $147 $330 $149 $240 reversed $140 $-1 #
straight-curve $-1 -63.25510422070986 21.81461940195878 54.633827242385848 0 0 -1 I I #
coedge $-1 $319 $149 $331 $332 forward $79 $-1 #
edge $-1 $151 -21.81461940195878 $333 37.725655346012772 $237 $334 forward 7 unknown #
point $-1 -56.099990965942659 21.81461940195878 7.8138516709591812 #
point $-1 -63.25510422070986 21.81461940195878 7.8138516709591812 #
face $-1 $335 $336 $18 $-1 $337 reversed single #
loop $-1 $-1 $338 $153 #
plane-surface $-1 0 0 7.8138516709591812 0 0 1 1 0 0 forward_v I I I I #
loop $-1 $-1 $339 $86 #
coedge $-1 $248 $156 $340 $341 forward $87 $-1 #
coedge $-1 $156 $247 $342 $343 reversed $87 $-1 #
coedge $-1 $344 $338 $156 $250 forward $244 $-1 #
edge $-1 $345 -9.9787605183342336 $346 -2.8236472635670324 $249 $347 forward 7 unknown #
edge $-1 $348 1 $348 0 $157 $-1 forward 7 unknown #
vertex $-1 $158 $349 #
ellipse-curve $-1 -59.132908551175376 26.3606296716885 4.6518886254537035 -0.54463904215088732 0 0.83867056331134215 0.41933528165567108 0 0.27231952107544366 1 I I #
point $-1 -59.25821231167059 26.3606296716885 5.7628787098404892 #
face $-1 $350 $168 $19 $-1 $351 forward single #
loop $-1 $-1 $352 $161 #
plane-surface $-1 -132.15750296855379 21.81461940195878 109.2676544847717 0 1 0 -0.54463904215088732 0 0.83867056331134215 forward_v I I I I #
loop $-1 $-1 $353 $94 #
coedge $-1 $259 $259 $260 $354 forward $162 $-1 #
coedge $-1 $260 $260 $259 $354 reversed $164 $-1 #
coedge $-1 $261 $261 $165 $262 forward $266 $-1 #
edge $-1 $355 0 $355 6.2831853071796004 $261 $356 forward 7 unknown #
edge $-1 $357 1 $357 0 $166 $-1 forward 7 unknown #
vertex $-1 $167 $358 #
ellipse-curve $-1 -59.132908551175376 33.179645076283066 4.6518886254537035 -0.54463904215088732 0 0.83867056331134215 0.41933528165567108 0 0.27231952107544366 1 I I #
loop $-1 $359 $261 $255 #
point $-1 -59.25821231167059 33.179645076283066 5.7628787098404892 #
plane-surface $-1 63.25510422070986 0 0 -1 0 0 0 0 1 forward_v I I I I #
coedge $-1 $176 $174 $178 $273 reversed $103 $-1 #
edge $-1 $189 -7.8138516709591812 $275 7.8138516709591812 $188 $360 forward 7 unknown #
vertex $-1 $273 $361 #
straight-curve $-1 -63.25510422070986 -37.725655346012772 0 0 0 -1 I I #
edge $-1 $271 -37.725655346012772 $275 37.725655346012772 $269 $362 forward 7 unknown #
straight-curve $-1 0 -37.725655346012772 -7.8138516709591812 -1 0 0 I I #
vertex $-1 $181 $363 #
straight-curve $-1 0 37.725655346012772 -7.8138516709591812 1 0 0 I I #
point $-1 63.25510422070986 37.725655346012772 -7.8138516709591812 #
point $-1 63.25510422070986 -37.725655346012772 -7.8138516709591812 #
straight-curve $-1 -63.25510422070986 0 7.8138516709591812 0 -1 0 I I #
point $-1 -63.25510422070986 37.725655346012772 7.8138516709591812 #
point $-1 -63.25510422070986 -37.725655346012772 7.8138516709591812 #
straight-curve $-1 63.25510422070986 -37.725655346012772 0 0 0 -1 I I #
straight-curve $-1 63.25510422070986 37.725655346012772 0 0 0 -1 I I #
face $-1 $306 $364 $16 $-1 $365 reversed single #
loop $-1 $-1 $311 $198 #
plane-surface $-1 0 0 7.8138516709591812 0 0 1 1 0 0 forward_v I I I I #
straight-curve $-1 63.25510422070986 -28.960229303559032 -0.46601917374842916 0 0 -1 I I #
coedge $-1 $301 $366 $203 $289 forward $302 $-1 #
edge $-1 $294 -21.054184183619821 $290 -12.288758141166081 $288 $367 forward 7 unknown #
vertex $-1 $289 $368 #
straight-curve $-1 0 -28.960229303559032 -2.4320383474968583 1 0 0 I I #
coedge $-1 $369 $205 $366 $370 forward $199 $-1 #
coedge $-1 $205 $369 $207 $297 reversed $199 $-1 #
vertex $-1 $370 $371 #
straight-curve $-1 0 -37.725655346012772 -2.4320383474968583 -1 0 0 I I #
coedge $-1 $310 $207 $372 $373 reversed $122 $-1 #
edge $-1 $209 2.4320383474968583 $374 7.8138516709591812 $207 $314 forward 7 unknown #
point $-1 63.25510422070986 -28.960229303559032 -2.4320383474968583 #
point $-1 63.25510422070986 -37.725655346012772 -2.4320383474968583 #
coedge $-1 $375 $211 $214 $305 reversed $302 $-1 #
coedge $-1 $211 $288 $218 $308 forward $302 $-1 #
loop $-1 $-1 $211 $376 #
straight-curve $-1 -63.25510422070986 -16.671471162392951 0.56796165250314168 0 -1 0 I I #
coedge $-1 $214 $213 $377 $378 reversed $215 $-1 #
edge $-1 $379 -7.8138516709591812 $216 -0.56796165250314168 $300 $380 forward 7 unknown #
face $-1 $376 $215 $16 $-1 $200 reversed single #
point $-1 -63.25510422070986 -37.725655346012772 0.56796165250314168 #
edge $-1 $290 -1.9660191737484292 $219 1.0339808262515708 $301 $381 forward 7 unknown #
point $-1 -63.25510422070986 -28.960229303559032 0.56796165250314168 #
coedge $-1 $221 $296 $382 $383 reversed $122 $-1 #
coedge $-1 $384 $377 $221 $312 forward $285 $-1 #
edge $-1 $313 -37.725655346012772 $385 37.725655346012772 $221 $386 forward 7 unknown #
vertex $-1 $312 $387 #
straight-curve $-1 63.25510422070986 -37.725655346012772 0 0 0 -1 I I #
face $-1 $388 $389 $17 $-1 $390 forward single #
loop $-1 $-1 $391 $225 #
plane-surface $-1 0 -33.342942324785902 -2.4320383474968583 0 0 1 1 0 0 forward_v I I I I #
coedge $-1 $392 $393 $394 $395 reversed $226 $-1 #
coedge $-1 $228 $239 $396 $397 forward $79 $-1 #
coedge $-1 $398 $230 $228 $321 reversed $324 $-1 #
edge $-1 $399 -63.25510422070986 $232 56.099990965942659 $320 $400 forward 7 unknown #
edge $-1 $234 6.9295507149658917 $325 22.840586659019884 $236 $401 forward 7 unknown #
coedge $-1 $230 $402 $329 $403 reversed $324 $-1 #
loop $-1 $-1 $230 $404 #
vertex $-1 $403 $405 #
straight-curve $-1 -41.732646758049142 37.725655346012772 17.144114267447051 0.83867056331134215 0 0.54463904215088732 I I #
point $-1 -56.099990965942659 37.725655346012772 7.8138516709591812 #
point $-1 -63.25510422070986 21.81461940195878 3.167266706570909 #
coedge $-1 $406 $236 $323 $403 forward $140 $-1 #
coedge $-1 $237 $407 $408 $409 reversed $140 $-1 #
coedge $-1 $408 $410 $239 $332 reversed $411 $-1 #
edge $-1 $333 -63.25510422070986 $412 63.25510422070986 $331 $413 forward 7 unknown #
vertex $-1 $240 $414 #
straight-curve $-1 -63.25510422070986 0 7.8138516709591812 0 -1 0 I I #
face $-1 $415 $416 $18 $-1 $417 reversed single #
loop $-1 $-1 $342 $243 #
plane-surface $-1 -63.25510422070986 0 0 1 0 0 0 0 -1 forward_v I I I I #
coedge $-1 $249 $418 $339 $419 forward $244 $-1 #
coedge $-1 $420 $340 $338 $419 reversed $246 $-1 #
coedge $-1 $339 $421 $247 $341 reversed $246 $-1 #
edge $-1 $345 -8.5314944482091946 $422 8.3777959833898778e-015 $247 $423 forward 7 unknown #
coedge $-1 $424 $425 $248 $343 forward $336 $-1 #
edge $-1 $346 46.819975571426667 $422 51.466560535814942 $342 $426 forward 7 unknown #
coedge $-1 $427 $249 $425 $428 forward $244 $-1 #
vertex $-1 $419 $429 #
vertex $-1 $428 $430 #
straight-curve $-1 -66.078751484276893 21.81461940195878 7.8138516709591812 -1 0 0 I I #
vertex $-1 $251 $431 #
point $-1 -58.713573269519706 26.3606296716885 4.9242081465291472 #
face $-1 $432 $433 $19 $-1 $434 forward single #
plane-surface $-1 -63.255104220709853 29.770137373985776 3.1672667065709135 -0.54463904215088732 0 0.83867056331134215 0.83867056331134215 0 0.54463904215088732 forward_v I I I I #
coedge $-1 $435 $436 $437 $438 reversed $256 $-1 #
coedge $-1 $353 $353 $-1 $439 forward $258 $-1 #
edge $-1 $440 0 $440 6.2831853071796004 $259 $441 forward 7 unknown #
vertex $-1 $262 $442 #
ellipse-curve $-1 -59.677547593326267 26.3606296716885 5.4905591887650429 0.54463904215088732 0 -0.83867056331134215 0.41933528165567108 0 0.27231952107544366 1 I I #
vertex $-1 $263 $443 #
point $-1 -58.713573269519706 33.179645076283066 4.9242081465291472 #
loop $-1 $-1 $444 $255 #
straight-curve $-1 -63.25510422070986 37.725655346012772 0 0 0 -1 I I #
point $-1 -63.25510422070986 -37.725655346012772 -7.8138516709591812 #
straight-curve $-1 -63.25510422070986 0 -7.8138516709591812 0 1 0 I I #
point $-1 -63.25510422070986 37.725655346012772 -7.8138516709591812 #
loop $-1 $-1 $372 $284 #
plane-surface $-1 0 0 -7.8138516709591812 0 0 1 1 0 0 forward_v I I I I #
coedge $-1 $288 $445 $292 $370 reversed $302 $-1 #
straight-curve $-1 -63.25510422070986 -16.671471162392951 -2.4320383474968583 0 1 0 I I #
point $-1 -63.25510422070986 -28.960229303559032 -2.4320383474968583 #
coedge $-1 $293 $292 $446 $447 reversed $199 $-1 #
edge $-1 $294 2.4320383474968583 $448 7.8138516709591812 $366 $380 forward 7 unknown #
point $-1 -63.25510422070986 -37.725655346012772 -2.4320383474968583 #
coedge $-1 $446 $449 $296 $373 forward $364 $-1 #
edge $-1 $450 -37.725655346012772 $374 37.725655346012772 $296 $451 forward 7 unknown #
vertex $-1 $297 $452 #
coedge $-1 $453 $300 $454 $455 reversed $302 $-1 #
face $-1 $456 $302 $16 $-1 $457 reversed single #
coedge $-1 $311 $454 $304 $378 forward $285 $-1 #
edge $-1 $379 -63.25510422070986 $313 63.25510422070986 $304 $458 forward 7 unknown #
vertex $-1 $455 $459 #
straight-curve $-1 -63.25510422070986 -37.725655346012772 0 0 0 -1 I I #
straight-curve $-1 -63.25510422070986 -28.960229303559032 -0.46601917374842916 0 0 1 I I #
coedge $-1 $460 $461 $310 $383 forward $462 $-1 #
edge $-1 $385 -7.8138516709591812 $450 7.8138516709591812 $310 $463 forward 7 unknown #
coedge $-1 $454 $311 $461 $464 forward $285 $-1 #
vertex $-1 $312 $465 #
straight-curve $-1 63.25510422070986 0 7.8138516709591812 0 1 0 I I #
point $-1 63.25510422070986 -37.725655346012772 7.8138516709591812 #
face $-1 $466 $467 $17 $-1 $468 reversed single #
loop $-1 $-1 $469 $315 #
plane-surface $-1 0 -28.960229303559032 -0.93203834749685832 0 -1 0 0 0 -1 forward_v I I I I #
coedge $-1 $470 $471 $472 $473 reversed $316 $-1 #
coedge $-1 $474 $318 $475 $476 reversed $226 $-1 #
coedge $-1 $318 $474 $477 $478 reversed $226 $-1 #
coedge $-1 $479 $480 $318 $395 forward $467 $-1 #
edge $-1 $481 -21.054184183619821 $482 -12.288758141166081 $394 $483 forward 7 unknown #
coedge $-1 $480 $484 $319 $397 reversed $467 $-1 #
edge $-1 $412 -37.725655346012772 $399 37.725655346012772 $396 $485 forward 7 unknown #
coedge $-1 $402 $320 $484 $486 forward $324 $-1 #
vertex $-1 $397 $487 #
straight-curve $-1 0 37.725655346012772 7.8138516709591812 -1 0 0 I I #
straight-curve $-1 -63.25510422070986 14.885068686992888 3.167266706570905 0 1 0 I I #
coedge $-1 $323 $398 $488 $489 reversed $324 $-1 #
edge $-1 $325 -3.167266706570909 $490 7.8138516709591812 $323 $491 forward 7 unknown #
face $-1 $-1 $324 $17 $-1 $492 reversed single #
point $-1 -63.25510422070986 37.725655346012772 3.167266706570909 #
coedge $-1 $493 $329 $494 $495 reversed $140 $-1 #
coedge $-1 $330 $496 $474 $497 forward $140 $-1 #
coedge $-1 $475 $331 $330 $409 forward $411 $-1 #
edge $-1 $333 -7.8138516709591812 $498 -0.56796165250314168 $330 $499 forward 7 unknown #
coedge $-1 $331 $475 $480 $500 reversed $411 $-1 #
loop $-1 $-1 $475 $501 #
vertex $-1 $397 $502 #
straight-curve $-1 0 -37.725655346012772 7.8138516709591812 1 0 0 I I #
point $-1 -63.25510422070986 -37.725655346012772 7.8138516709591812 #
face $-1 $503 $504 $18 $-1 $505 forward single #
loop $-1 $-1 $506 $335 #
plane-surface $-1 0 -33.342942324785902 0.56796165250314168 0 0 1 1 0 0 forward_v I I I I #
coedge $-1 $338 $507 $508 $509 forward $244 $-1 #
edge $-1 $510 -22.840586659019884 $345 -6.9295507149658917 $338 $511 forward 7 unknown #
coedge $-1 $421 $339 $512 $513 reversed $246 $-1 #
coedge $-1 $340 $420 $424 $514 reversed $246 $-1 #
vertex $-1 $514 $515 #
straight-curve $-1 -63.255104220709853 21.81461940195878 3.1672667065709135 -0.83867056331134215 0 -0.54463904215088732 I I #
coedge $-1 $516 $342 $421 $514 forward $336 $-1 #
coedge $-1 $342 $517 $344 $428 reversed $336 $-1 #
straight-curve $-1 -63.25510422070986 21.81461940195878 54.633827242385848 0 0 -1 I I #
coedge $-1 $507 $344 $518 $519 forward $244 $-1 #
edge $-1 $346 -21.81461940195878 $520 37.725655346012772 $425 $521 forward 7 unknown #
point $-1 -56.099990965942659 21.81461940195878 7.8138516709591812 #
point $-1 -63.25510422070986 21.81461940195878 7.8138516709591812 #
point $-1 -58.860589030099931 26.3606296716885 4.2325533437980321 #
face $-1 $522 $523 $19 $-1 $524 reversed single #
loop $-1 $-1 $525 $350 #
plane-surface $-1 0 0 7.8138516709591812 0 0 1 1 0 0 forward_v I I I I #
coedge $-1 $436 $352 $526 $527 forward $256 $-1 #
coedge $-1 $352 $435 $528 $529 reversed $256 $-1 #
coedge $-1 $530 $525 $352 $438 forward $433 $-1 #
edge $-1 $531 -9.9787605183342336 $532 -2.8236472635670324 $437 $533 forward 7 unknown #
edge $-1 $534 1 $534 0 $353 $-1 forward 7 unknown #
vertex $-1 $354 $535 #
ellipse-curve $-1 -59.132908551175376 26.3606296716885 4.6518886254537035 -0.54463904215088732 0 0.83867056331134215 0.41933528165567108 0 0.27231952107544366 1 I I #
point $-1 -59.25821231167059 26.3606296716885 5.7628787098404892 #
point $-1 -58.860589030099931 33.179645076283066 4.2325533437980321 #
coedge $-1 $536 $526 $525 $537 reversed $359 $-1 #
coedge $-1 $366 $453 $538 $539 reversed $302 $-1 #
coedge $-1 $538 $372 $369 $447 forward $364 $-1 #
edge $-1 $374 -63.25510422070986 $448 63.25510422070986 $369 $540 forward 7 unknown #
vertex $-1 $539 $541 #
coedge $-1 $372 $538 $460 $542 forward $364 $-1 #
vertex $-1 $373 $543 #
straight-curve $-1 63.25510422070986 0 -7.8138516709591812 0 -1 0 I I #
point $-1 63.25510422070986 -37.725655346012772 -7.8138516709591812 #
coedge $-1 $445 $375 $544 $545 forward $302 $-1 #
coedge $-1 $377 $384 $375 $455 forward $285 $-1 #
edge $-1 $546 -37.725655346012772 $379 37.725655346012772 $375 $547 forward 7 unknown #
face $-1 $-1 $462 $16 $-1 $548 reversed single #
plane-surface $-1 -63.25510422070986 0 0 1 0 0 0 0 -1 forward_v I I I I #
straight-curve $-1 0 -37.725655346012772 7.8138516709591812 1 0 0 I I #
point $-1 -63.25510422070986 -37.725655346012772 7.8138516709591812 #
coedge $-1 $544 $382 $449 $542 reversed $462 $-1 #
coedge $-1 $382 $544 $384 $464 reversed $462 $-1 #
loop $-1 $-1 $382 $456 #
straight-curve $-1 63.25510422070986 37.725655346012772 0 0 0 -1 I I #
edge $-1 $385 -63.25510422070986 $546 63.25510422070986 $461 $549 forward 7 unknown #
point $-1 63.25510422070986 37.725655346012772 7.8138516709591812 #
face $-1 $550 $551 $17 $-1 $552 reversed single #
loop $-1 $-1 $394 $388 #
plane-surface $-1 63.25510422070986 0 0 -1 0 0 0 0 1 forward_v I I I I #
coedge $-1 $477 $553 $479 $554 reversed $389 $-1 #
coedge $-1 $555 $391 $553 $556 reversed $316 $-1 #
coedge $-1 $391 $555 $557 $558 reversed $316 $-1 #
coedge $-1 $559 $479 $391 $473 forward $467 $-1 #
edge $-1 $560 12.288758141166081 $561 21.054184183619821 $472 $562 forward 7 unknown #
coedge $-1 $393 $392 $407 $497 reversed $226 $-1 #
coedge $-1 $410 $408 $392 $476 forward $411 $-1 #
edge $-1 $498 -63.25510422070986 $481 63.25510422070986 $475 $563 forward 7 unknown #
coedge $-1 $564 $469 $393 $478 forward $389 $-1 #
edge $-1 $482 -63.25510422070986 $565 63.25510422070986 $477 $566 forward 7 unknown #
coedge $-1 $472 $394 $469 $554 forward $467 $-1 #
coedge $-1 $394 $396 $410 $500 forward $467 $-1 #
vertex $-1 $476 $567 #
vertex $-1 $395 $568 #
straight-curve $-1 63.25510422070986 -16.671471162392951 0.56796165250314168 0 1 0 I I #
coedge $-1 $396 $569 $398 $486 reversed $467 $-1 #
straight-curve $-1 63.25510422070986 0 7.8138516709591812 0 1 0 I I #
edge $-1 $399 -7.8138516709591812 $570 7.8138516709591812 $484 $571 forward 7 unknown #
point $-1 63.25510422070986 37.725655346012772 7.8138516709591812 #
coedge $-1 $572 $494 $402 $489 forward $573 $-1 #
edge $-1 $490 -63.25510422070986 $570 63.25510422070986 $402 $574 forward 7 unknown #
vertex $-1 $489 $575 #
straight-curve $-1 -63.25510422070986 37.725655346012772 0 0 0 -1 I I #
plane-surface $-1 0 37.725655346012772 0 0 -1 0 0 0 -1 forward_v I I I I #
coedge $-1 $576 $406 $577 $578 reversed $140 $-1 #
coedge $-1 $488 $579 $406 $495 forward $573 $-1 #
edge $-1 $580 -37.725655346012772 $490 37.725655346012772 $406 $581 forward 7 unknown #
coedge $-1 $407 $576 $564 $582 forward $140 $-1 #
edge $-1 $565 12.288758141166081 $498 21.054184183619821 $407 $583 forward 7 unknown #
vertex $-1 $497 $584 #
straight-curve $-1 -63.25510422070986 -37.725655346012772 0 0 0 -1 I I #
edge $-1 $412 -7.8138516709591812 $481 -0.56796165250314168 $480 $585 forward 7 unknown #
face $-1 $404 $411 $17 $-1 $552 reversed single #
point $-1 63.25510422070986 -37.725655346012772 7.8138516709591812 #
face $-1 $586 $587 $18 $-1 $588 forward single #
loop $-1 $-1 $589 $415 #
plane-surface $-1 0 -33.342942324785902 -2.4320383474968583 0 0 1 1 0 0 forward_v I I I I #
coedge $-1 $590 $591 $592 $593 reversed $416 $-1 #
coedge $-1 $418 $427 $594 $595 forward $244 $-1 #
coedge $-1 $596 $512 $418 $509 reversed $597 $-1 #
edge $-1 $598 -63.25510422070986 $510 56.099990965942659 $508 $599 forward 7 unknown #
vertex $-1 $513 $600 #
straight-curve $-1 -56.099990965942659 14.885068686992888 7.8138516709591812 0 -1 0 I I #
coedge $-1 $508 $601 $420 $513 forward $597 $-1 #
edge $-1 $602 -25.662588391898613 $510 -17.131093943689407 $512 $603 forward 7 unknown #
edge $-1 $422 6.9295507149658917 $602 22.840586659019884 $424 $604 forward 7 unknown #
point $-1 -63.25510422070986 21.81461940195878 3.167266706570909 #
coedge $-1 $605 $424 $601 $606 forward $336 $-1 #
coedge $-1 $425 $607 $608 $609 reversed $336 $-1 #
coedge $-1 $608 $610 $427 $519 reversed $611 $-1 #
edge $-1 $520 -63.25510422070986 $612 63.25510422070986 $518 $613 forward 7 unknown #
vertex $-1 $428 $614 #
straight-curve $-1 -63.25510422070986 0 7.8138516709591812 0 -1 0 I I #
face $-1 $615 $616 $19 $-1 $617 reversed single #
loop $-1 $-1 $528 $432 #
plane-surface $-1 -63.25510422070986 0 0 1 0 0 0 0 -1 forward_v I I I I #
coedge $-1 $437 $618 $444 $537 forward $433 $-1 #
coedge $-1 $444 $619 $435 $527 reversed $359 $-1 #
edge $-1 $531 -8.5314944482091946 $620 8.3777959833898778e-015 $435 $621 forward 7 unknown #
coedge $-1 $622 $623 $436 $529 forward $523 $-1 #
edge $-1 $532 46.819975571426667 $620 51.466560535814942 $528 $624 forward 7 unknown #
coedge $-1 $625 $437 $623 $626 forward $433 $-1 #
vertex $-1 $537 $627 #
vertex $-1 $626 $628 #
straight-curve $-1 -66.078751484276893 21.81461940195878 7.8138516709591812 -1 0 0 I I #
vertex $-1 $439 $629 #
point $-1 -58.713573269519706 26.3606296716885 4.9242081465291472 #
coedge $-1 $619 $444 $630 $631 reversed $359 $-1 #
edge $-1 $632 -22.840586659019884 $531 -6.9295507149658917 $525 $633 forward 7 unknown #
coedge $-1 $449 $446 $445 $539 forward $364 $-1 #
edge $-1 $448 -37.725655346012772 $634 37.725655346012772 $445 $635 forward 7 unknown #
straight-curve $-1 0 -37.725655346012772 -7.8138516709591812 -1 0 0 I I #
point $-1 -63.25510422070986 -37.725655346012772 -7.8138516709591812 #
edge $-1 $634 -63.25510422070986 $450 63.25510422070986 $460 $636 forward 7 unknown #
point $-1 63.25510422070986 37.725655346012772 -7.8138516709591812 #
coedge $-1 $461 $460 $453 $545 reversed $462 $-1 #
edge $-1 $546 -7.8138516709591812 $634 7.8138516709591812 $544 $637 forward 7 unknown #
vertex $-1 $464 $638 #
straight-curve $-1 -63.25510422070986 0 7.8138516709591812 0 -1 0 I I #
plane-surface $-1 0 37.725655346012772 0 0 -1 0 0 0 -1 forward_v I I I I #
straight-curve $-1 0 37.725655346012772 7.8138516709591812 -1 0 0 I I #
face $-1 $501 $573 $17 $-1 $639 reversed single #
loop $-1 $-1 $557 $466 #
plane-surface $-1 0 -37.725655346012772 0 0 1 0 0 0 1 forward_v I I I I #
coedge $-1 $469 $564 $470 $556 forward $389 $-1 #
edge $-1 $482 -1.0339808262515708 $560 1.9660191737484292 $479 $640 forward 7 unknown #
coedge $-1 $471 $470 $576 $641 reversed $316 $-1 #
edge $-1 $642 -63.25510422070986 $560 63.25510422070986 $553 $643 forward 7 unknown #
coedge $-1 $577 $644 $471 $558 forward $551 $-1 #
edge $-1 $561 -63.25510422070986 $645 63.25510422070986 $557 $646 forward 7 unknown #
coedge $-1 $569 $472 $644 $647 forward $467 $-1 #
vertex $-1 $473 $648 #
vertex $-1 $647 $649 #
straight-curve $-1 63.25510422070986 -16.671471162392951 -2.4320383474968583 0 -1 0 I I #
straight-curve $-1 0 -37.725655346012772 0.56796165250314168 1 0 0 I I #
coedge $-1 $553 $477 $496 $582 reversed $389 $-1 #
vertex $-1 $497 $650 #
straight-curve $-1 0 -28.960229303559032 0.56796165250314168 -1 0 0 I I #
point $-1 63.25510422070986 -37.725655346012772 0.56796165250314168 #
point $-1 63.25510422070986 -28.960229303559032 0.56796165250314168 #
coedge $-1 $484 $559 $572 $651 reversed $467 $-1 #
vertex $-1 $651 $652 #
straight-curve $-1 63.25510422070986 37.725655346012772 0 0 0 -1 I I #
coedge $-1 $579 $488 $569 $651 forward $573 $-1 #
loop $-1 $-1 $572 $550 #
straight-curve $-1 0 37.725655346012772 -7.8138516709591812 1 0 0 I I #
point $-1 -63.25510422070986 37.725655346012772 -7.8138516709591812 #
coedge $-1 $496 $493 $555 $641 forward $140 $-1 #
coedge $-1 $653 $557 $493 $578 forward $551 $-1 #
edge $-1 $645 2.4320383474968583 $580 7.8138516709591812 $493 $499 forward 7 unknown #
coedge $-1 $494 $572 $653 $654 forward $573 $-1 #
vertex $-1 $495 $655 #
straight-curve $-1 -63.25510422070986 0 -7.8138516709591812 0 1 0 I I #
edge $-1 $642 -1.9660191737484292 $565 1.0339808262515708 $496 $656 forward 7 unknown #
straight-curve $-1 -63.25510422070986 -16.671471162392951 0.56796165250314168 0 -1 0 I I #
point $-1 -63.25510422070986 -37.725655346012772 0.56796165250314168 #
straight-curve $-1 63.25510422070986 -37.725655346012772 0 0 0 -1 I I #
face $-1 $657 $658 $18 $-1 $659 reversed single #
loop $-1 $-1 $660 $503 #
plane-surface $-1 0 -28.960229303559032 -0.93203834749685832 0 -1 0 0 0 -1 forward_v I I I I #
coedge $-1 $661 $662 $663 $664 reversed $504 $-1 #
coedge $-1 $665 $506 $666 $667 reversed $416 $-1 #
coedge $-1 $506 $665 $668 $669 reversed $416 $-1 #
coedge $-1 $670 $671 $506 $593 forward $658 $-1 #
edge $-1 $672 -21.054184183619821 $673 -12.288758141166081 $592 $674 forward 7 unknown #
coedge $-1 $671 $675 $507 $595 reversed $658 $-1 #
edge $-1 $612 -37.725655346012772 $598 37.725655346012772 $594 $676 forward 7 unknown #
coedge $-1 $677 $508 $675 $678 forward $597 $-1 #
loop $-1 $-1 $512 $679 #
vertex $-1 $595 $680 #
straight-curve $-1 0 37.725655346012772 7.8138516709591812 -1 0 0 I I #
point $-1 -56.099990965942659 37.725655346012772 7.8138516709591812 #
coedge $-1 $512 $677 $516 $606 reversed $597 $-1 #
vertex $-1 $606 $681 #
straight-curve $-1 -41.732646758049142 37.725655346012772 17.144114267447051 0.83867056331134215 0 0.54463904215088732 I I #
straight-curve $-1 -63.25510422070986 14.885068686992888 3.167266706570905 0 1 0 I I #
coedge $-1 $682 $516 $683 $684 reversed $336 $-1 #
edge $-1 $602 -3.167266706570909 $685 7.8138516709591812 $601 $686 forward 7 unknown #
coedge $-1 $517 $687 $665 $688 forward $336 $-1 #
coedge $-1 $666 $518 $517 $609 forward $611 $-1 #
edge $-1 $520 -7.8138516709591812 $689 -0.56796165250314168 $517 $690 forward 7 unknown #
coedge $-1 $518 $666 $671 $691 reversed $611 $-1 #
loop $-1 $-1 $666 $692 #
vertex $-1 $595 $693 #
straight-curve $-1 0 -37.725655346012772 7.8138516709591812 1 0 0 I I #
point $-1 -63.25510422070986 -37.725655346012772 7.8138516709591812 #
face $-1 $694 $695 $19 $-1 $696 forward single #
loop $-1 $-1 $697 $522 #
plane-surface $-1 0 -33.342942324785902 0.56796165250314168 0 0 1 1 0 0 forward_v I I I I #
coedge $-1 $525 $698 $699 $700 forward $433 $-1 #
coedge $-1 $526 $536 $622 $701 reversed $359 $-1 #
vertex $-1 $701 $702 #
straight-curve $-1 -63.255104220709853 21.81461940195878 3.1672667065709135 -0.83867056331134215 0 -0.54463904215088732 I I #
coedge $-1 $703 $528 $619 $701 forward $523 $-1 #
coedge $-1 $528 $704 $530 $626 reversed $523 $-1 #
straight-curve $-1 -63.25510422070986 21.81461940195878 54.633827242385848 0 0 -1 I I #
coedge $-1 $698 $530 $705 $706 forward $433 $-1 #
edge $-1 $532 -21.81461940195878 $707 37.725655346012772 $623 $708 forward 7 unknown #
point $-1 -56.099990965942659 21.81461940195878 7.8138516709591812 #
point $-1 -63.25510422070986 21.81461940195878 7.8138516709591812 #
point $-1 -58.860589030099931 26.3606296716885 4.2325533437980321 #
coedge $-1 $699 $709 $536 $631 forward $710 $-1 #
edge $-1 $711 -25.662588391898613 $632 -17.131093943689407 $630 $712 forward 7 unknown #
vertex $-1 $631 $713 #
straight-curve $-1 -56.099990965942659 14.885068686992888 7.8138516709591812 0 -1 0 I I #
vertex $-1 $542 $714 #
straight-curve $-1 -63.25510422070986 0 -7.8138516709591812 0 1 0 I I #
straight-curve $-1 0 37.725655346012772 -7.8138516709591812 1 0 0 I I #
straight-curve $-1 -63.25510422070986 37.725655346012772 0 0 0 -1 I I #
point $-1 -63.25510422070986 37.725655346012772 7.8138516709591812 #
plane-surface $-1 0 0 -7.8138516709591812 0 0 1 1 0 0 forward_v I I I I #
straight-curve $-1 63.25510422070986 -28.960229303559032 -0.46601917374842916 0 0 -1 I I #
edge $-1 $645 -21.054184183619821 $642 -12.288758141166081 $576 $715 forward 7 unknown #
vertex $-1 $641 $716 #
straight-curve $-1 0 -28.960229303559032 -2.4320383474968583 1 0 0 I I #
coedge $-1 $557 $653 $559 $647 reversed $551 $-1 #
vertex $-1 $578 $717 #
straight-curve $-1 0 -37.725655346012772 -2.4320383474968583 -1 0 0 I I #
edge $-1 $561 2.4320383474968583 $718 7.8138516709591812 $559 $585 forward 7 unknown #
point $-1 63.25510422070986 -28.960229303559032 -2.4320383474968583 #
point $-1 63.25510422070986 -37.725655346012772 -2.4320383474968583 #
point $-1 -63.25510422070986 -28.960229303559032 0.56796165250314168 #
edge $-1 $570 -37.725655346012772 $718 37.725655346012772 $569 $719 forward 7 unknown #
point $-1 63.25510422070986 37.725655346012772 -7.8138516709591812 #
coedge $-1 $644 $577 $579 $654 reversed $551 $-1 #
edge $-1 $718 -63.25510422070986 $580 63.25510422070986 $653 $720 forward 7 unknown #
point $-1 -63.25510422070986 -37.725655346012772 -7.8138516709591812 #
straight-curve $-1 -63.25510422070986 -28.960229303559032 -0.46601917374842916 0 0 1 I I #
face $-1 $721 $722 $18 $-1 $723 reversed single #
loop $-1 $-1 $592 $586 #
plane-surface $-1 63.25510422070986 0 0 -1 0 0 0 0 1 forward_v I I I I #
coedge $-1 $668 $724 $670 $725 reversed $587 $-1 #
coedge $-1 $726 $589 $724 $727 reversed $504 $-1 #
coedge $-1 $589 $726 $728 $729 reversed $504 $-1 #
coedge $-1 $730 $670 $589 $664 forward $658 $-1 #
edge $-1 $731 12.288758141166081 $732 21.054184183619821 $663 $733 forward 7 unknown #
coedge $-1 $591 $590 $607 $688 reversed $416 $-1 #
coedge $-1 $610 $608 $590 $667 forward $611 $-1 #
edge $-1 $689 -63.25510422070986 $672 63.25510422070986 $666 $734 forward 7 unknown #
coedge $-1 $735 $660 $591 $669 forward $587 $-1 #
edge $-1 $673 -63.25510422070986 $736 63.25510422070986 $668 $737 forward 7 unknown #
coedge $-1 $663 $592 $660 $725 forward $658 $-1 #
coedge $-1 $592 $594 $610 $691 forward $658 $-1 #
vertex $-1 $667 $738 #
vertex $-1 $593 $739 #
straight-curve $-1 63.25510422070986 -16.671471162392951 0.56796165250314168 0 1 0 I I #
coedge $-1 $594 $740 $596 $678 reversed $658 $-1 #
straight-curve $-1 63.25510422070986 0 7.8138516709591812 0 1 0 I I #
coedge $-1 $601 $596 $741 $742 reversed $597 $-1 #
edge $-1 $598 -7.8138516709591812 $743 7.8138516709591812 $675 $744 forward 7 unknown #
face $-1 $-1 $597 $18 $-1 $745 reversed single #
point $-1 63.25510422070986 37.725655346012772 7.8138516709591812 #
point $-1 -63.25510422070986 37.725655346012772 3.167266706570909 #
coedge $-1 $746 $605 $747 $748 reversed $336 $-1 #
coedge $-1 $741 $749 $605 $684 forward $750 $-1 #
edge $-1 $751 -37.725655346012772 $685 37.725655346012772 $605 $752 forward 7 unknown #
vertex $-1 $742 $753 #
straight-curve $-1 -63.25510422070986 37.725655346012772 0 0 0 -1 I I #
coedge $-1 $607 $746 $735 $754 forward $336 $-1 #
edge $-1 $736 12.288758141166081 $689 21.054184183619821 $607 $755 forward 7 unknown #
vertex $-1 $688 $756 #
straight-curve $-1 -63.25510422070986 -37.725655346012772 0 0 0 -1 I I #
edge $-1 $612 -7.8138516709591812 $672 -0.56796165250314168 $671 $757 forward 7 unknown #
face $-1 $679 $611 $18 $-1 $723 reversed single #
point $-1 63.25510422070986 -37.725655346012772 7.8138516709591812 #
face $-1 $758 $759 $19 $-1 $760 forward single #
loop $-1 $-1 $761 $615 #
plane-surface $-1 0 -33.342942324785902 -2.4320383474968583 0 0 1 1 0 0 forward_v I I I I #
coedge $-1 $762 $763 $764 $765 reversed $616 $-1 #
coedge $-1 $618 $625 $766 $767 forward $433 $-1 #
coedge $-1 $768 $630 $618 $700 reversed $710 $-1 #
edge $-1 $769 -63.25510422070986 $632 56.099990965942659 $699 $770 forward 7 unknown #
edge $-1 $620 6.9295507149658917 $711 22.840586659019884 $622 $771 forward 7 unknown #
point $-1 -63.25510422070986 21.81461940195878 3.167266706570909 #
coedge $-1 $772 $622 $709 $773 forward $523 $-1 #
coedge $-1 $623 $774 $775 $776 reversed $523 $-1 #
coedge $-1 $775 $777 $625 $706 reversed $778 $-1 #
edge $-1 $707 -63.25510422070986 $779 63.25510422070986 $705 $780 forward 7 unknown #
vertex $-1 $626 $781 #
straight-curve $-1 -63.25510422070986 0 7.8138516709591812 0 -1 0 I I #
coedge $-1 $630 $782 $703 $773 reversed $710 $-1 #
loop $-1 $-1 $630 $783 #
vertex $-1 $773 $784 #
straight-curve $-1 -41.732646758049142 37.725655346012772 17.144114267447051 0.83867056331134215 0 0.54463904215088732 I I #
point $-1 -56.099990965942659 37.725655346012772 7.8138516709591812 #
point $-1 -63.25510422070986 37.725655346012772 -7.8138516709591812 #
straight-curve $-1 -63.25510422070986 -16.671471162392951 -2.4320383474968583 0 1 0 I I #
point $-1 -63.25510422070986 -28.960229303559032 -2.4320383474968583 #
point $-1 -63.25510422070986 -37.725655346012772 -2.4320383474968583 #
vertex $-1 $647 $785 #
straight-curve $-1 63.25510422070986 0 -7.8138516709591812 0 -1 0 I I #
straight-curve $-1 0 -37.725655346012772 -7.8138516709591812 -1 0 0 I I #
face $-1 $692 $750 $18 $-1 $786 reversed single #
loop $-1 $-1 $728 $657 #
plane-surface $-1 0 -37.725655346012772 0 0 1 0 0 0 1 forward_v I I I I #
coedge $-1 $660 $735 $661 $727 forward $587 $-1 #
edge $-1 $673 -1.0339808262515708 $731 1.9660191737484292 $670 $787 forward 7 unknown #
coedge $-1 $662 $661 $746 $788 reversed $504 $-1 #
edge $-1 $789 -63.25510422070986 $731 63.25510422070986 $724 $790 forward 7 unknown #
coedge $-1 $747 $791 $662 $729 forward $722 $-1 #
edge $-1 $732 -63.25510422070986 $792 63.25510422070986 $728 $793 forward 7 unknown #
coedge $-1 $740 $663 $791 $794 forward $658 $-1 #
vertex $-1 $664 $795 #
vertex $-1 $794 $796 #
straight-curve $-1 63.25510422070986 -16.671471162392951 -2.4320383474968583 0 -1 0 I I #
straight-curve $-1 0 -37.725655346012772 0.56796165250314168 1 0 0 I I #
coedge $-1 $724 $668 $687 $754 reversed $587 $-1 #
vertex $-1 $688 $797 #
straight-curve $-1 0 -28.960229303559032 0.56796165250314168 -1 0 0 I I #
point $-1 63.25510422070986 -37.725655346012772 0.56796165250314168 #
point $-1 63.25510422070986 -28.960229303559032 0.56796165250314168 #
coedge $-1 $675 $730 $798 $799 reversed $658 $-1 #
coedge $-1 $798 $683 $677 $742 forward $750 $-1 #
edge $-1 $685 -63.25510422070986 $743 63.25510422070986 $677 $800 forward 7 unknown #
vertex $-1 $799 $801 #
straight-curve $-1 63.25510422070986 37.725655346012772 0 0 0 -1 I I #
plane-surface $-1 0 37.725655346012772 0 0 -1 0 0 0 -1 forward_v I I I I #
coedge $-1 $687 $682 $726 $788 forward $336 $-1 #
coedge $-1 $802 $728 $682 $748 forward $722 $-1 #
edge $-1 $792 2.4320383474968583 $751 7.8138516709591812 $682 $690 forward 7 unknown #
coedge $-1 $683 $798 $802 $803 forward $750 $-1 #
loop $-1 $-1 $798 $721 #
vertex $-1 $684 $804 #
straight-curve $-1 -63.25510422070986 0 -7.8138516709591812 0 1 0 I I #
point $-1 -63.25510422070986 37.725655346012772 -7.8138516709591812 #
edge $-1 $789 -1.9660191737484292 $736 1.0339808262515708 $687 $805 forward 7 unknown #
straight-curve $-1 -63.25510422070986 -16.671471162392951 0.56796165250314168 0 -1 0 I I #
point $-1 -63.25510422070986 -37.725655346012772 0.56796165250314168 #
straight-curve $-1 63.25510422070986 -37.725655346012772 0 0 0 -1 I I #
face $-1 $806 $807 $19 $-1 $808 reversed single #
loop $-1 $-1 $809 $694 #
plane-surface $-1 0 -28.960229303559032 -0.93203834749685832 0 -1 0 0 0 -1 forward_v I I I I #
coedge $-1 $810 $811 $812 $813 reversed $695 $-1 #
coedge $-1 $814 $697 $815 $816 reversed $616 $-1 #
coedge $-1 $697 $814 $817 $818 reversed $616 $-1 #
coedge $-1 $819 $820 $697 $765 forward $807 $-1 #
edge $-1 $821 -21.054184183619821 $822 -12.288758141166081 $764 $823 forward 7 unknown #
coedge $-1 $820 $824 $698 $767 reversed $807 $-1 #
edge $-1 $779 -37.725655346012772 $769 37.725655346012772 $766 $825 forward 7 unknown #
coedge $-1 $782 $699 $824 $826 forward $710 $-1 #
vertex $-1 $767 $827 #
straight-curve $-1 0 37.725655346012772 7.8138516709591812 -1 0 0 I I #
straight-curve $-1 -63.25510422070986 14.885068686992888 3.167266706570905 0 1 0 I I #
coedge $-1 $828 $703 $829 $830 reversed $523 $-1 #
edge $-1 $711 -3.167266706570909 $831 7.8138516709591812 $709 $832 forward 7 unknown #
coedge $-1 $704 $833 $814 $834 forward $523 $-1 #
coedge $-1 $815 $705 $704 $776 forward $778 $-1 #
edge $-1 $707 -7.8138516709591812 $835 -0.56796165250314168 $704 $836 forward 7 unknown #
coedge $-1 $705 $815 $820 $837 reversed $778 $-1 #
loop $-1 $-1 $815 $838 #
vertex $-1 $767 $839 #
straight-curve $-1 0 -37.725655346012772 7.8138516709591812 1 0 0 I I #
point $-1 -63.25510422070986 -37.725655346012772 7.8138516709591812 #
coedge $-1 $709 $768 $840 $841 reversed $710 $-1 #
face $-1 $-1 $710 $19 $-1 $842 reversed single #
point $-1 -63.25510422070986 37.725655346012772 3.167266706570909 #
point $-1 63.25510422070986 -37.725655346012772 -7.8138516709591812 #
plane-surface $-1 0 0 -7.8138516709591812 0 0 1 1 0 0 forward_v I I I I #
straight-curve $-1 63.25510422070986 -28.960229303559032 -0.46601917374842916 0 0 -1 I I #
edge $-1 $792 -21.054184183619821 $789 -12.288758141166081 $746 $843 forward 7 unknown #
vertex $-1 $788 $844 #
straight-curve $-1 0 -28.960229303559032 -2.4320383474968583 1 0 0 I I #
coedge $-1 $728 $802 $730 $794 reversed $722 $-1 #
vertex $-1 $748 $845 #
straight-curve $-1 0 -37.725655346012772 -2.4320383474968583 -1 0 0 I I #
edge $-1 $732 2.4320383474968583 $846 7.8138516709591812 $730 $757 forward 7 unknown #
point $-1 63.25510422070986 -28.960229303559032 -2.4320383474968583 #
point $-1 63.25510422070986 -37.725655346012772 -2.4320383474968583 #
point $-1 -63.25510422070986 -28.960229303559032 0.56796165250314168 #
coedge $-1 $749 $741 $740 $799 forward $750 $-1 #
edge $-1 $743 -37.725655346012772 $846 37.725655346012772 $740 $847 forward 7 unknown #
straight-curve $-1 0 37.725655346012772 -7.8138516709591812 1 0 0 I I #
point $-1 63.25510422070986 37.725655346012772 -7.8138516709591812 #
coedge $-1 $791 $747 $749 $803 reversed $722 $-1 #
edge $-1 $846 -63.25510422070986 $751 63.25510422070986 $802 $848 forward 7 unknown #
point $-1 -63.25510422070986 -37.725655346012772 -7.8138516709591812 #
straight-curve $-1 -63.25510422070986 -28.960229303559032 -0.46601917374842916 0 0 1 I I #
face $-1 $849 $850 $19 $-1 $851 reversed single #
loop $-1 $-1 $764 $758 #
plane-surface $-1 63.25510422070986 0 0 -1 0 0 0 0 1 forward_v I I I I #
coedge $-1 $817 $852 $819 $853 reversed $759 $-1 #
coedge $-1 $854 $761 $852 $855 reversed $695 $-1 #
coedge $-1 $761 $854 $856 $857 reversed $695 $-1 #
coedge $-1 $858 $819 $761 $813 forward $807 $-1 #
edge $-1 $859 12.288758141166081 $860 21.054184183619821 $812 $861 forward 7 unknown #
coedge $-1 $763 $762 $774 $834 reversed $616 $-1 #
coedge $-1 $777 $775 $762 $816 forward $778 $-1 #
edge $-1 $835 -63.25510422070986 $821 63.25510422070986 $815 $862 forward 7 unknown #
coedge $-1 $863 $809 $763 $818 forward $759 $-1 #
edge $-1 $822 -63.25510422070986 $864 63.25510422070986 $817 $865 forward 7 unknown #
coedge $-1 $812 $764 $809 $853 forward $807 $-1 #
coedge $-1 $764 $766 $777 $837 forward $807 $-1 #
vertex $-1 $816 $866 #
vertex $-1 $765 $867 #
straight-curve $-1 63.25510422070986 -16.671471162392951 0.56796165250314168 0 1 0 I I #
coedge $-1 $766 $868 $768 $826 reversed $807 $-1 #
straight-curve $-1 63.25510422070986 0 7.8138516709591812 0 1 0 I I #
edge $-1 $769 -7.8138516709591812 $869 7.8138516709591812 $824 $870 forward 7 unknown #
point $-1 63.25510422070986 37.725655346012772 7.8138516709591812 #
coedge $-1 $871 $772 $872 $873 reversed $523 $-1 #
coedge $-1 $840 $874 $772 $830 forward $875 $-1 #
edge $-1 $876 -37.725655346012772 $831 37.725655346012772 $772 $877 forward 7 unknown #
vertex $-1 $841 $878 #
straight-curve $-1 -63.25510422070986 37.725655346012772 0 0 0 -1 I I #
coedge $-1 $774 $871 $863 $879 forward $523 $-1 #
edge $-1 $864 12.288758141166081 $835 21.054184183619821 $774 $880 forward 7 unknown #
vertex $-1 $834 $881 #
straight-curve $-1 -63.25510422070986 -37.725655346012772 0 0 0 -1 I I #
edge $-1 $779 -7.8138516709591812 $821 -0.56796165250314168 $820 $882 forward 7 unknown #
face $-1 $783 $778 $19 $-1 $851 reversed single #
point $-1 63.25510422070986 -37.725655346012772 7.8138516709591812 #
coedge $-1 $883 $829 $782 $841 forward $875 $-1 #
edge $-1 $831 -63.25510422070986 $869 63.25510422070986 $782 $884 forward 7 unknown #
plane-surface $-1 0 37.725655346012772 0 0 -1 0 0 0 -1 forward_v I I I I #
straight-curve $-1 -63.25510422070986 -16.671471162392951 -2.4320383474968583 0 1 0 I I #
point $-1 -63.25510422070986 -28.960229303559032 -2.4320383474968583 #
point $-1 -63.25510422070986 -37.725655346012772 -2.4320383474968583 #
vertex $-1 $794 $885 #
straight-curve $-1 63.25510422070986 0 -7.8138516709591812 0 -1 0 I I #
straight-curve $-1 0 -37.725655346012772 -7.8138516709591812 -1 0 0 I I #
face $-1 $838 $875 $19 $-1 $886 reversed single #
loop $-1 $-1 $856 $806 #
plane-surface $-1 0 -37.725655346012772 0 0 1 0 0 0 1 forward_v I I I I #
coedge $-1 $809 $863 $810 $855 forward $759 $-1 #
edge $-1 $822 -1.0339808262515708 $859 1.9660191737484292 $819 $887 forward 7 unknown #
coedge $-1 $811 $810 $871 $888 reversed $695 $-1 #
edge $-1 $889 -63.25510422070986 $859 63.25510422070986 $852 $890 forward 7 unknown #
coedge $-1 $872 $891 $811 $857 forward $850 $-1 #
edge $-1 $860 -63.25510422070986 $892 63.25510422070986 $856 $893 forward 7 unknown #
coedge $-1 $868 $812 $891 $894 forward $807 $-1 #
vertex $-1 $813 $895 #
vertex $-1 $894 $896 #
straight-curve $-1 63.25510422070986 -16.671471162392951 -2.4320383474968583 0 -1 0 I I #
straight-curve $-1 0 -37.725655346012772 0.56796165250314168 1 0 0 I I #
coedge $-1 $852 $817 $833 $879 reversed $759 $-1 #
vertex $-1 $834 $897 #
straight-curve $-1 0 -28.960229303559032 0.56796165250314168 -1 0 0 I I #
point $-1 63.25510422070986 -37.725655346012772 0.56796165250314168 #
point $-1 63.25510422070986 -28.960229303559032 0.56796165250314168 #
coedge $-1 $824 $858 $883 $898 reversed $807 $-1 #
vertex $-1 $898 $899 #
straight-curve $-1 63.25510422070986 37.725655346012772 0 0 0 -1 I I #
coedge $-1 $833 $828 $854 $888 forward $523 $-1 #
coedge $-1 $900 $856 $828 $873 forward $850 $-1 #
edge $-1 $892 2.4320383474968583 $876 7.8138516709591812 $828 $836 forward 7 unknown #
coedge $-1 $829 $883 $900 $901 forward $875 $-1 #
loop $-1 $-1 $883 $849 #
vertex $-1 $830 $902 #
straight-curve $-1 -63.25510422070986 0 -7.8138516709591812 0 1 0 I I #
point $-1 -63.25510422070986 37.725655346012772 -7.8138516709591812 #
edge $-1 $889 -1.9660191737484292 $864 1.0339808262515708 $833 $903 forward 7 unknown #
straight-curve $-1 -63.25510422070986 -16.671471162392951 0.56796165250314168 0 -1 0 I I #
point $-1 -63.25510422070986 -37.725655346012772 0.56796165250314168 #
straight-curve $-1 63.25510422070986 -37.725655346012772 0 0 0 -1 I I #
coedge $-1 $874 $840 $868 $898 forward $875 $-1 #
straight-curve $-1 0 37.725655346012772 -7.8138516709591812 1 0 0 I I #
point $-1 63.25510422070986 -37.725655346012772 -7.8138516709591812 #
plane-surface $-1 0 0 -7.8138516709591812 0 0 1 1 0 0 forward_v I I I I #
straight-curve $-1 63.25510422070986 -28.960229303559032 -0.46601917374842916 0 0 -1 I I #
edge $-1 $892 -21.054184183619821 $889 -12.288758141166081 $871 $904 forward 7 unknown #
vertex $-1 $888 $905 #
straight-curve $-1 0 -28.960229303559032 -2.4320383474968583 1 0 0 I I #
coedge $-1 $856 $900 $858 $894 reversed $850 $-1 #
vertex $-1 $873 $906 #
straight-curve $-1 0 -37.725655346012772 -2.4320383474968583 -1 0 0 I I #
edge $-1 $860 2.4320383474968583 $907 7.8138516709591812 $858 $882 forward 7 unknown #
point $-1 63.25510422070986 -28.960229303559032 -2.4320383474968583 #
point $-1 63.25510422070986 -37.725655346012772 -2.4320383474968583 #
point $-1 -63.25510422070986 -28.960229303559032 0.56796165250314168 #
edge $-1 $869 -37.725655346012772 $907 37.725655346012772 $868 $908 forward 7 unknown #
point $-1 63.25510422070986 37.725655346012772 -7.8138516709591812 #
coedge $-1 $891 $872 $874 $901 reversed $850 $-1 #
edge $-1 $907 -63.25510422070986 $876 63.25510422070986 $900 $909 forward 7 unknown #
point $-1 -63.25510422070986 -37.725655346012772 -7.8138516709591812 #
straight-curve $-1 -63.25510422070986 -28.960229303559032 -0.46601917374842916 0 0 1 I I #
straight-curve $-1 -63.25510422070986 -16.671471162392951 -2.4320383474968583 0 1 0 I I #
point $-1 -63.25510422070986 -28.960229303559032 -2.4320383474968583 #
point $-1 -63.25510422070986 -37.725655346012772 -2.4320383474968583 #
vertex $-1 $894 $910 #
straight-curve $-1 63.25510422070986 0 -7.8138516709591812 0 -1 0 I I #
straight-curve $-1 0 -37.725655346012772 -7.8138516709591812 -1 0 0 I I #
point $-1 63.25510422070986 -37.725655346012772 -7.8138516709591812 #
End-of-ACIS-data 