500 0 5 0           
7 Unknown 11 ACIS 5.0 NT 24 Fri Mar 26 17:26:52 1999 
-1 9.9999999999999995e-007 1e-010 
body $-1 $5 $-1 $6 #
body $-1 $7 $-1 $8 #
body $-1 $9 $-1 $10 #
body $-1 $11 $-1 $12 #
body $-1 $13 $-1 $14 #
lump $-1 $-1 $15 $0 #
transform $-1 1 0 0 0 1 0 0 0 1 73.9341410565508 48.229916028256447 12.493678098069507 1 rotate no_reflect no_shear #
lump $-1 $-1 $16 $1 #
transform $-1 1 0 0 0 1 0 0 0 1 73.9341410565508 48.229916028256447 12.493678098069507 1 rotate no_reflect no_shear #
lump $-1 $-1 $17 $2 #
transform $-1 1 0 0 0 1 0 0 0 1 73.9341410565508 48.229916028256447 12.493678098069507 1 rotate no_reflect no_shear #
lump $-1 $-1 $18 $3 #
transform $-1 1 0 0 0 1 0 0 0 1 73.9341410565508 48.229916028256447 12.493678098069507 1 rotate no_reflect no_shear #
lump $-1 $-1 $19 $4 #
transform $-1 1 0 0 0 1 0 0 0 1 73.9341410565508 48.229916028256447 12.493678098069507 1 rotate no_reflect no_shear #
shell $-1 $-1 $-1 $20 $-1 $5 #
shell $-1 $-1 $-1 $21 $-1 $7 #
shell $-1 $-1 $-1 $22 $-1 $9 #
shell $-1 $-1 $-1 $23 $-1 $11 #
shell $-1 $-1 $-1 $24 $-1 $13 #
face $-1 $25 $26 $15 $-1 $27 forward single #
face $-1 $28 $29 $16 $-1 $30 reversed single #
face $-1 $31 $32 $17 $-1 $33 forward single #
face $-1 $34 $35 $18 $-1 $36 forward single #
face $-1 $37 $38 $19 $-1 $39 reversed single #
face $-1 $40 $41 $15 $-1 $42 reversed single #
loop $-1 $-1 $43 $20 #
plane-surface $-1 0 0 12.493678098069507 0 0 1 1 0 0 forward_v I I I I #
face $-1 $44 $45 $16 $-1 $46 forward single #
loop $-1 $-1 $47 $21 #
plane-surface $-1 0 -40.080722224098054 -8.9544826013227574 0 0 1 1 0 0 forward_v I I I I #
face $-1 $48 $49 $17 $-1 $50 forward single #
loop $-1 $-1 $51 $22 #
plane-surface $-1 -51.388822889975245 35.131011174041191 0 0 1 0 0 0 1 forward_v I I I I #
face $-1 $52 $53 $18 $-1 $54 forward single #
loop $-1 $-1 $55 $23 #
plane-surface $-1 26.892978870560555 35.131011174041184 205.44709934590594 0 -1 0 -0.52991927123019833 0 -0.84804809178421925 forward_v I I I I #
face $-1 $56 $57 $19 $-1 $58 reversed single #
loop $-1 $59 $60 $24 #
cone-surface $-1 62.359406040663025 27.944101755686027 2.4033248711336803 -0.52991927123019833 0 -0.84804809178421925 2.5441442753526577 0 -1.589757813690595 1 I I 0 1 3 forward I I I I #
face $-1 $61 $62 $15 $-1 $63 reversed single #
loop $-1 $-1 $64 $25 #
plane-surface $-1 0 0 -12.493678098069507 0 0 1 1 0 0 forward_v I I I I #
coedge $-1 $65 $66 $67 $68 forward $26 $-1 #
face $-1 $69 $70 $16 $-1 $71 reversed single #
loop $-1 $-1 $72 $28 #
plane-surface $-1 0 -31.93152841993966 -10.724080349696132 0 -1 0 0 0 -1 forward_v I I I I #
coedge $-1 $73 $74 $75 $76 reversed $29 $-1 #
face $-1 $77 $78 $17 $-1 $79 forward single #
loop $-1 $-1 $80 $31 #
plane-surface $-1 -53.830860919538701 41.680463601148823 0 1 0 0 0 0 -1 forward_v I I I I #
coedge $-1 $81 $82 $83 $84 reversed $32 $-1 #
face $-1 $85 $86 $18 $-1 $87 forward single #
loop $-1 $-1 $88 $34 #
plane-surface $-1 -51.465273424875619 27.944101755686027 80.047684864479535 0.52991927123019833 0 0.84804809178421925 0.84804809178421925 0 -0.52991927123019833 forward_v I I I I #
coedge $-1 $89 $90 $91 $92 reversed $35 $-1 #
face $-1 $93 $94 $19 $-1 $95 forward single #
loop $-1 $96 $97 $37 #
cone-surface $-1 58.634995549377322 27.944101755686027 -3.5569777289654052 -0.52991927123019833 0 -0.84804809178421925 1.2720721376763289 0 -0.79487890684529749 1 I I -0.70710678118654757 0.70710678118654757 1.5 forward I I I I #
loop $-1 $-1 $98 $24 #
coedge $-1 $60 $60 $99 $100 reversed $38 $-1 #
face $-1 $101 $102 $15 $-1 $103 reversed single #
loop $-1 $-1 $104 $40 #
plane-surface $-1 0 -48.229916028256447 0 0 1 0 0 0 1 forward_v I I I I #
coedge $-1 $105 $106 $107 $108 forward $41 $-1 #
coedge $-1 $109 $43 $110 $111 forward $26 $-1 #
coedge $-1 $43 $109 $112 $113 forward $26 $-1 #
coedge $-1 $114 $115 $43 $68 reversed $116 $-1 #
edge $-1 $117 -48.229916028256447 $118 48.229916028256447 $67 $119 forward 7 unknown #
face $-1 $120 $121 $16 $-1 $122 reversed single #
loop $-1 $-1 $123 $44 #
plane-surface $-1 0 -48.229916028256447 0 0 1 0 0 0 1 forward_v I I I I #
coedge $-1 $124 $125 $126 $127 reversed $45 $-1 #
coedge $-1 $128 $47 $123 $129 reversed $29 $-1 #
coedge $-1 $47 $128 $124 $130 reversed $29 $-1 #
coedge $-1 $126 $131 $47 $76 forward $132 $-1 #
edge $-1 $133 -28.18955491620742 $134 -11.891167307890633 $75 $135 forward 7 unknown #
face $-1 $136 $137 $17 $-1 $138 reversed single #
loop $-1 $-1 $139 $48 #
plane-surface $-1 -48.946784860411789 41.680463601148823 0 -1 0 0 0 0 1 forward_v I I I I #
coedge $-1 $140 $141 $142 $143 reversed $49 $-1 #
coedge $-1 $144 $51 $145 $146 reversed $32 $-1 #
coedge $-1 $51 $144 $147 $148 reversed $32 $-1 #
coedge $-1 $141 $140 $51 $84 forward $49 $-1 #
edge $-1 $149 -12.493678098069507 $150 12.493678098069507 $83 $151 forward 7 unknown #
face $-1 $152 $153 $18 $-1 $154 forward single #
loop $-1 $-1 $155 $52 #
plane-surface $-1 26.892978870560555 20.757192337330871 205.44709934590594 0 1 0 0.52991927123019833 0 0.84804809178421925 forward_v I I I I #
coedge $-1 $156 $157 $158 $159 reversed $53 $-1 #
coedge $-1 $90 $55 $157 $160 forward $35 $-1 #
coedge $-1 $55 $89 $161 $162 reversed $35 $-1 #
coedge $-1 $163 $158 $55 $92 forward $153 $-1 #
edge $-1 $164 43.197244758375767 $165 60.487651621270523 $91 $166 forward 7 unknown #
face $-1 $167 $168 $19 $-1 $169 forward single #
loop $-1 $-1 $170 $56 #
plane-surface $-1 26.892978870560555 35.131011174041184 205.44709934590594 0 -1 0 -0.52991927123019833 0 -0.84804809178421925 forward_v I I I I #
loop $-1 $-1 $171 $37 #
coedge $-1 $97 $97 $98 $172 forward $57 $-1 #
coedge $-1 $98 $98 $97 $172 reversed $59 $-1 #
coedge $-1 $99 $99 $60 $100 forward $168 $-1 #
edge $-1 $173 0 $173 6.2831853071796004 $99 $174 forward 7 unknown #
face $-1 $175 $176 $15 $-1 $177 reversed single #
loop $-1 $-1 $178 $61 #
plane-surface $-1 -73.9341410565508 0 0 1 0 0 0 0 -1 forward_v I I I I #
coedge $-1 $179 $112 $180 $181 forward $62 $-1 #
coedge $-1 $182 $64 $179 $183 forward $41 $-1 #
coedge $-1 $64 $182 $184 $185 forward $41 $-1 #
coedge $-1 $115 $114 $64 $108 reversed $116 $-1 #
edge $-1 $186 -48.229916028256447 $187 48.229916028256447 $107 $188 forward 7 unknown #
coedge $-1 $66 $65 $189 $190 forward $26 $-1 #
coedge $-1 $191 $192 $65 $111 reversed $176 $-1 #
edge $-1 $118 -73.9341410565508 $193 73.9341410565508 $110 $194 forward 7 unknown #
coedge $-1 $104 $195 $66 $113 reversed $62 $-1 #
edge $-1 $196 -73.9341410565508 $117 73.9341410565508 $112 $197 forward 7 unknown #
coedge $-1 $107 $67 $195 $198 forward $116 $-1 #
coedge $-1 $67 $107 $191 $199 reversed $116 $-1 #
loop $-1 $-1 $114 $175 #
vertex $-1 $68 $200 #
vertex $-1 $68 $201 #
straight-curve $-1 73.9341410565508 0 12.493678098069507 0 1 0 I I #
face $-1 $202 $203 $16 $-1 $204 forward single #
loop $-1 $-1 $205 $69 #
plane-surface $-1 0 0 -12.493678098069507 0 0 1 1 0 0 forward_v I I I I #
coedge $-1 $206 $207 $73 $129 forward $70 $-1 #
coedge $-1 $208 $72 $74 $130 forward $45 $-1 #
coedge $-1 $72 $208 $205 $209 reversed $45 $-1 #
coedge $-1 $210 $75 $72 $127 forward $132 $-1 #
edge $-1 $134 3.5924424264746913 $211 7.1316379232214411 $126 $212 forward 7 unknown #
coedge $-1 $74 $73 $213 $214 reversed $29 $-1 #
edge $-1 $215 -73.9341410565508 $133 73.9341410565508 $123 $216 forward 7 unknown #
edge $-1 $134 -73.9341410565508 $217 73.9341410565508 $124 $218 forward 7 unknown #
coedge $-1 $75 $219 $206 $220 forward $132 $-1 #
loop $-1 $-1 $126 $221 #
vertex $-1 $129 $222 #
vertex $-1 $76 $223 #
straight-curve $-1 73.9341410565508 -20.040361112049027 -8.9544826013227574 0 1 0 I I #
face $-1 $224 $225 $17 $-1 $226 reversed single #
loop $-1 $-1 $227 $77 #
plane-surface $-1 0 0 -12.493678098069507 0 0 1 1 0 0 forward_v I I I I #
coedge $-1 $228 $229 $144 $230 reversed $78 $-1 #
coedge $-1 $83 $80 $231 $232 reversed $49 $-1 #
coedge $-1 $80 $83 $227 $233 reversed $49 $-1 #
coedge $-1 $234 $235 $80 $143 forward $236 $-1 #
edge $-1 $237 -12.493678098069507 $238 12.493678098069507 $142 $239 forward 7 unknown #
coedge $-1 $82 $81 $139 $230 forward $32 $-1 #
coedge $-1 $231 $240 $81 $146 forward $241 $-1 #
edge $-1 $242 23.252373415424167 $149 28.136449474551078 $145 $243 forward 7 unknown #
coedge $-1 $244 $227 $82 $148 forward $137 $-1 #
edge $-1 $150 -28.136449474551078 $245 -23.252373415424167 $147 $246 forward 7 unknown #
vertex $-1 $146 $247 #
vertex $-1 $148 $248 #
straight-curve $-1 -53.830860919538701 35.131011174041191 0 0 0 -1 I I #
face $-1 $249 $250 $18 $-1 $251 forward single #
loop $-1 $-1 $252 $85 #
plane-surface $-1 0 0 12.493678098069507 0 0 1 1 0 0 forward_v I I I I #
coedge $-1 $253 $254 $252 $255 reversed $86 $-1 #
coedge $-1 $256 $88 $254 $257 reversed $53 $-1 #
coedge $-1 $88 $256 $89 $160 reversed $53 $-1 #
coedge $-1 $91 $252 $88 $159 forward $153 $-1 #
edge $-1 $258 6.785141459487857 $164 21.15896029619817 $158 $259 forward 7 unknown #
edge $-1 $164 127.47980764991729 $260 147.8682821131016 $89 $261 forward 7 unknown #
coedge $-1 $262 $263 $90 $162 forward $264 $-1 #
edge $-1 $165 90.229871574883461 $260 101.03411710390961 $161 $265 forward 7 unknown #
coedge $-1 $266 $91 $263 $267 forward $153 $-1 #
vertex $-1 $159 $268 #
vertex $-1 $267 $269 #
straight-curve $-1 13.446489435280277 35.131011174041184 12.493678098069509 1 0 0 I I #
face $-1 $270 $271 $19 $-1 $272 forward single #
loop $-1 $273 $99 $93 #
plane-surface $-1 -51.465273424875619 27.944101755686027 80.047684864479535 0.52991927123019833 0 0.84804809178421925 0.84804809178421925 0 -0.52991927123019833 forward_v I I I I #
coedge $-1 $274 $275 $276 $277 reversed $94 $-1 #
coedge $-1 $171 $171 $-1 $278 forward $96 $-1 #
edge $-1 $279 0 $279 6.2831853071796004 $97 $280 forward 7 unknown #
vertex $-1 $100 $281 #
ellipse-curve $-1 65.288937625103429 27.944101755686027 7.0915553335564372 -0.52991927123019833 0 -0.84804809178421925 2.5441442753526577 0 -1.589757813690595 1 I I #
face $-1 $-1 $116 $15 $-1 $282 reversed single #
loop $-1 $-1 $191 $101 #
plane-surface $-1 0 48.229916028256447 0 0 -1 0 0 0 -1 forward_v I I I I #
coedge $-1 $283 $189 $192 $284 forward $102 $-1 #
coedge $-1 $195 $104 $105 $183 reversed $62 $-1 #
coedge $-1 $189 $283 $104 $181 reversed $102 $-1 #
edge $-1 $196 -12.493678098069507 $285 12.493678098069507 $180 $286 forward 7 unknown #
coedge $-1 $106 $105 $283 $287 forward $41 $-1 #
edge $-1 $187 -73.9341410565508 $285 73.9341410565508 $179 $288 forward 7 unknown #
coedge $-1 $192 $191 $106 $185 reversed $176 $-1 #
edge $-1 $289 -73.9341410565508 $186 73.9341410565508 $184 $290 forward 7 unknown #
vertex $-1 $108 $291 #
vertex $-1 $198 $292 #
straight-curve $-1 73.9341410565508 0 -12.493678098069507 0 -1 0 I I #
coedge $-1 $178 $180 $109 $190 reversed $102 $-1 #
edge $-1 $193 -48.229916028256447 $196 48.229916028256447 $189 $293 forward 7 unknown #
coedge $-1 $184 $110 $115 $199 forward $176 $-1 #
coedge $-1 $110 $184 $178 $284 reversed $176 $-1 #
vertex $-1 $111 $294 #
straight-curve $-1 0 48.229916028256447 12.493678098069507 -1 0 0 I I #
coedge $-1 $112 $179 $114 $198 reversed $62 $-1 #
vertex $-1 $190 $295 #
straight-curve $-1 0 -48.229916028256447 12.493678098069507 1 0 0 I I #
edge $-1 $117 -12.493678098069507 $187 12.493678098069507 $114 $296 forward 7 unknown #
edge $-1 $118 -12.493678098069507 $186 12.493678098069507 $115 $297 forward 7 unknown #
point $-1 73.9341410565508 -48.229916028256447 12.493678098069507 #
point $-1 73.9341410565508 48.229916028256447 12.493678098069507 #
face $-1 $298 $299 $16 $-1 $300 reversed single #
loop $-1 $-1 $301 $120 #
plane-surface $-1 0 0 12.493678098069507 0 0 1 1 0 0 forward_v I I I I #
coedge $-1 $302 $303 $125 $209 forward $121 $-1 #
coedge $-1 $304 $123 $131 $220 reversed $70 $-1 #
coedge $-1 $123 $304 $305 $306 forward $70 $-1 #
coedge $-1 $125 $124 $307 $308 reversed $45 $-1 #
edge $-1 $211 -73.9341410565508 $309 73.9341410565508 $205 $310 forward 7 unknown #
coedge $-1 $311 $126 $303 $312 reversed $132 $-1 #
vertex $-1 $209 $313 #
straight-curve $-1 73.9341410565508 -31.93152841993966 -5.3620401748480662 0 0 -1 I I #
coedge $-1 $305 $307 $128 $214 forward $299 $-1 #
edge $-1 $217 11.891167307890633 $215 28.18955491620742 $213 $314 forward 7 unknown #
vertex $-1 $129 $315 #
straight-curve $-1 0 -48.229916028256447 -8.9544826013227574 1 0 0 I I #
vertex $-1 $214 $316 #
straight-curve $-1 0 -31.93152841993966 -8.9544826013227574 -1 0 0 I I #
coedge $-1 $131 $311 $301 $317 reversed $132 $-1 #
edge $-1 $318 -12.493678098069507 $133 8.9544826013227574 $131 $319 forward 7 unknown #
face $-1 $-1 $132 $16 $-1 $320 reversed single #
point $-1 73.9341410565508 -48.229916028256447 -8.9544826013227574 #
point $-1 73.9341410565508 -31.93152841993966 -8.9544826013227574 #
face $-1 $321 $322 $17 $-1 $323 reversed single #
loop $-1 $-1 $324 $136 #
plane-surface $-1 0 48.229916028256447 0 0 -1 0 0 0 -1 forward_v I I I I #
coedge $-1 $147 $325 $141 $233 forward $137 $-1 #
coedge $-1 $326 $139 $240 $327 reversed $78 $-1 #
coedge $-1 $139 $326 $244 $328 reversed $78 $-1 #
edge $-1 $242 -12.493678098069507 $245 12.493678098069507 $139 $329 forward 7 unknown #
coedge $-1 $330 $145 $140 $232 forward $241 $-1 #
edge $-1 $149 14.29077937346678 $237 27.389684227682043 $231 $331 forward 7 unknown #
edge $-1 $238 -27.389684227682043 $150 -14.29077937346678 $227 $332 forward 7 unknown #
coedge $-1 $333 $142 $325 $334 reversed $236 $-1 #
coedge $-1 $142 $333 $330 $335 reversed $236 $-1 #
loop $-1 $-1 $142 $336 #
vertex $-1 $335 $337 #
vertex $-1 $143 $338 #
straight-curve $-1 -53.830860919538701 48.229916028256447 0 0 0 -1 I I #
coedge $-1 $145 $339 $228 $327 forward $241 $-1 #
loop $-1 $-1 $231 $340 #
vertex $-1 $146 $341 #
straight-curve $-1 -25.694411444987622 35.131011174041191 12.493678098069507 -1 0 0 I I #
coedge $-1 $342 $147 $229 $328 forward $137 $-1 #
vertex $-1 $148 $343 #
straight-curve $-1 -25.694411444987622 35.131011174041191 -12.493678098069507 1 0 0 I I #
point $-1 -53.830860919538701 35.131011174041191 12.493678098069507 #
point $-1 -53.830860919538701 35.131011174041191 -12.493678098069507 #
face $-1 $344 $345 $18 $-1 $346 forward single #
loop $-1 $-1 $347 $152 #
plane-surface $-1 -51.388822889975245 35.131011174041191 0 0 1 0 0 0 1 forward_v I I I I #
coedge $-1 $158 $348 $155 $255 forward $153 $-1 #
coedge $-1 $254 $155 $349 $350 reversed $86 $-1 #
coedge $-1 $155 $253 $156 $257 forward $86 $-1 #
edge $-1 $351 -60.487651621270523 $258 -43.197244758375767 $252 $352 forward 7 unknown #
coedge $-1 $157 $156 $262 $353 reversed $53 $-1 #
edge $-1 $354 -147.8682821131016 $258 -127.47980764991729 $254 $355 forward 7 unknown #
vertex $-1 $159 $356 #
straight-curve $-1 56.643734193656044 13.972050877843014 12.493678098069502 0 1 0 I I #
vertex $-1 $353 $357 #
straight-curve $-1 -51.465273424875619 35.131011174041184 80.047684864479535 0.84804809178421925 0 -0.52991927123019833 I I #
coedge $-1 $349 $161 $256 $353 forward $264 $-1 #
coedge $-1 $161 $358 $163 $267 reversed $264 $-1 #
loop $-1 $-1 $349 $359 #
straight-curve $-1 73.9341410565508 35.131011174041184 102.72354967295297 0 0 -1 I I #
coedge $-1 $360 $163 $361 $362 forward $153 $-1 #
edge $-1 $165 35.131011174041184 $363 48.229916028256447 $263 $364 forward 7 unknown #
point $-1 56.643734193656044 35.131011174041184 12.493678098069509 #
point $-1 73.9341410565508 35.131011174041184 12.493678098069507 #
face $-1 $365 $366 $19 $-1 $367 forward single #
loop $-1 $-1 $368 $167 #
plane-surface $-1 26.892978870560555 20.757192337330871 205.44709934590594 0 1 0 0.52991927123019833 0 0.84804809178421925 forward_v I I I I #
loop $-1 $-1 $369 $93 #
coedge $-1 $275 $170 $370 $371 forward $94 $-1 #
coedge $-1 $170 $274 $372 $373 reversed $94 $-1 #
coedge $-1 $374 $375 $170 $277 forward $366 $-1 #
edge $-1 $376 43.197244758375767 $377 60.487651621270523 $276 $378 forward 7 unknown #
edge $-1 $379 1 $379 0 $171 $-1 forward 7 unknown #
vertex $-1 $172 $380 #
ellipse-curve $-1 59.42987445622262 27.944101755686027 -2.2849055912890766 0.52991927123019833 0 0.84804809178421925 2.5441442753526577 0 -1.589757813690595 1 I I #
point $-1 67.833081900456079 27.944101755686027 5.5017975198658426 #
plane-surface $-1 73.9341410565508 0 0 -1 0 0 0 0 1 forward_v I I I I #
coedge $-1 $180 $178 $182 $287 reversed $102 $-1 #
edge $-1 $193 -12.493678098069507 $289 12.493678098069507 $192 $381 forward 7 unknown #
vertex $-1 $287 $382 #
straight-curve $-1 -73.9341410565508 -48.229916028256447 0 0 0 -1 I I #
edge $-1 $285 -48.229916028256447 $289 48.229916028256447 $283 $383 forward 7 unknown #
straight-curve $-1 0 -48.229916028256447 -12.493678098069507 -1 0 0 I I #
vertex $-1 $185 $384 #
straight-curve $-1 0 48.229916028256447 -12.493678098069507 1 0 0 I I #
point $-1 73.9341410565508 48.229916028256447 -12.493678098069507 #
point $-1 73.9341410565508 -48.229916028256447 -12.493678098069507 #
straight-curve $-1 -73.9341410565508 0 12.493678098069507 0 -1 0 I I #
point $-1 -73.9341410565508 48.229916028256447 12.493678098069507 #
point $-1 -73.9341410565508 -48.229916028256447 12.493678098069507 #
straight-curve $-1 73.9341410565508 -48.229916028256447 0 0 0 -1 I I #
straight-curve $-1 73.9341410565508 48.229916028256447 0 0 0 -1 I I #
face $-1 $221 $385 $16 $-1 $386 reversed single #
loop $-1 $-1 $213 $202 #
plane-surface $-1 -73.9341410565508 0 0 1 0 0 0 0 -1 forward_v I I I I #
coedge $-1 $387 $388 $219 $317 forward $203 $-1 #
coedge $-1 $389 $205 $390 $391 forward $121 $-1 #
coedge $-1 $205 $389 $210 $312 forward $121 $-1 #
coedge $-1 $207 $206 $388 $392 reversed $70 $-1 #
coedge $-1 $393 $213 $207 $306 reversed $299 $-1 #
edge $-1 $394 -12.493678098069507 $215 8.9544826013227574 $305 $395 forward 7 unknown #
coedge $-1 $213 $390 $208 $308 forward $299 $-1 #
edge $-1 $309 -7.1316379232214411 $217 -3.5924424264746913 $307 $396 forward 7 unknown #
vertex $-1 $391 $397 #
straight-curve $-1 0 -31.93152841993966 -12.493678098069507 -1 0 0 I I #
coedge $-1 $219 $210 $398 $399 reversed $132 $-1 #
edge $-1 $400 -48.229916028256447 $211 31.93152841993966 $210 $401 forward 7 unknown #
point $-1 73.9341410565508 -31.93152841993966 -12.493678098069507 #
straight-curve $-1 -73.9341410565508 -20.040361112049027 -8.9544826013227574 0 -1 0 I I #
point $-1 -73.9341410565508 -48.229916028256447 -8.9544826013227574 #
point $-1 -73.9341410565508 -31.93152841993966 -8.9544826013227574 #
edge $-1 $318 -48.229916028256447 $402 48.229916028256447 $219 $403 forward 7 unknown #
vertex $-1 $317 $404 #
straight-curve $-1 73.9341410565508 -48.229916028256447 0 0 0 -1 I I #
plane-surface $-1 73.9341410565508 0 0 -1 0 0 0 0 1 forward_v I I I I #
face $-1 $405 $406 $17 $-1 $407 forward single #
loop $-1 $-1 $408 $224 #
plane-surface $-1 0 -40.080722224098054 -8.9544826013227574 0 0 1 1 0 0 forward_v I I I I #
coedge $-1 $409 $410 $326 $411 forward $225 $-1 #
coedge $-1 $227 $412 $234 $334 forward $137 $-1 #
coedge $-1 $229 $228 $324 $411 reversed $78 $-1 #
edge $-1 $413 -27.389684227682043 $242 -14.29077937346678 $240 $414 forward 7 unknown #
edge $-1 $245 14.29077937346678 $415 27.389684227682043 $244 $416 forward 7 unknown #
straight-curve $-1 -48.946784860411789 35.131011174041191 0 0 0 -1 I I #
coedge $-1 $417 $231 $235 $335 forward $241 $-1 #
straight-curve $-1 -53.830860919538701 20.840231800574411 12.493678098069507 0 1 0 I I #
straight-curve $-1 -53.830860919538701 20.840231800574411 -12.493678098069507 0 -1 0 I I #
coedge $-1 $235 $234 $418 $419 reversed $236 $-1 #
edge $-1 $420 -73.9341410565508 $238 -53.830860919538701 $234 $421 forward 7 unknown #
edge $-1 $237 53.830860919538701 $422 73.9341410565508 $235 $423 forward 7 unknown #
face $-1 $424 $236 $17 $-1 $226 reversed single #
point $-1 -53.830860919538701 48.229916028256454 12.493678098069507 #
point $-1 -53.830860919538701 48.229916028256454 -12.493678098069507 #
coedge $-1 $240 $425 $409 $426 forward $241 $-1 #
face $-1 $427 $241 $17 $-1 $428 forward single #
point $-1 -48.946784860411789 35.131011174041191 12.493678098069507 #
coedge $-1 $429 $244 $410 $430 forward $137 $-1 #
point $-1 -48.946784860411789 35.131011174041191 -12.493678098069507 #
face $-1 $431 $432 $18 $-1 $433 forward single #
loop $-1 $-1 $434 $249 #
plane-surface $-1 -53.830860919538701 41.680463601148823 0 1 0 0 0 0 -1 forward_v I I I I #
coedge $-1 $435 $436 $437 $438 reversed $250 $-1 #
coedge $-1 $252 $439 $440 $441 forward $153 $-1 #
coedge $-1 $440 $262 $253 $350 forward $264 $-1 #
edge $-1 $354 -101.03411710390961 $351 -90.229871574883461 $349 $442 forward 7 unknown #
vertex $-1 $350 $443 #
straight-curve $-1 13.446489435280277 20.757192337330871 12.493678098069509 -1 0 0 I I #
edge $-1 $260 -21.15896029619817 $354 -6.785141459487857 $262 $444 forward 7 unknown #
vertex $-1 $353 $445 #
straight-curve $-1 -51.465273424875619 20.757192337330871 80.047684864479535 -0.84804809178421925 0 0.52991927123019833 I I #
point $-1 56.643734193656044 20.757192337330871 12.493678098069509 #
point $-1 73.934141056550786 35.131011174041184 1.6894325690433618 #
coedge $-1 $263 $446 $447 $448 reversed $264 $-1 #
face $-1 $-1 $264 $18 $-1 $449 reversed single #
coedge $-1 $450 $266 $451 $452 forward $153 $-1 #
coedge $-1 $447 $453 $266 $362 reversed $454 $-1 #
edge $-1 $363 -73.9341410565508 $455 48.946784860411789 $361 $456 forward 7 unknown #
vertex $-1 $267 $457 #
straight-curve $-1 73.9341410565508 0 12.493678098069507 0 1 0 I I #
face $-1 $458 $459 $19 $-1 $460 forward single #
loop $-1 $-1 $461 $270 #
plane-surface $-1 0 0 12.493678098069507 0 0 1 1 0 0 forward_v I I I I #
coedge $-1 $462 $463 $461 $464 reversed $271 $-1 #
coedge $-1 $465 $370 $375 $466 reversed $273 $-1 #
coedge $-1 $369 $467 $274 $371 reversed $273 $-1 #
edge $-1 $376 127.47980764991729 $468 147.8682821131016 $274 $469 forward 7 unknown #
coedge $-1 $470 $471 $275 $373 forward $472 $-1 #
edge $-1 $377 90.229871574883461 $468 101.03411710390961 $372 $473 forward 7 unknown #
coedge $-1 $474 $276 $471 $475 forward $366 $-1 #
coedge $-1 $276 $461 $369 $466 forward $366 $-1 #
vertex $-1 $466 $476 #
vertex $-1 $475 $477 #
straight-curve $-1 13.446489435280277 35.131011174041184 12.493678098069509 1 0 0 I I #
vertex $-1 $278 $478 #
point $-1 61.974018731575278 27.944101755686027 -3.8746634049796711 #
straight-curve $-1 -73.9341410565508 48.229916028256447 0 0 0 -1 I I #
point $-1 -73.9341410565508 -48.229916028256447 -12.493678098069507 #
straight-curve $-1 -73.9341410565508 0 -12.493678098069507 0 1 0 I I #
point $-1 -73.9341410565508 48.229916028256447 -12.493678098069507 #
loop $-1 $-1 $398 $298 #
plane-surface $-1 0 48.229916028256447 0 0 -1 0 0 0 -1 forward_v I I I I #
coedge $-1 $479 $301 $480 $481 forward $203 $-1 #
coedge $-1 $301 $479 $304 $392 forward $203 $-1 #
coedge $-1 $303 $302 $482 $483 forward $121 $-1 #
coedge $-1 $307 $484 $302 $391 reversed $299 $-1 #
edge $-1 $309 -31.93152841993966 $485 48.229916028256447 $390 $486 forward 7 unknown #
edge $-1 $394 -73.9341410565508 $318 73.9341410565508 $304 $487 forward 7 unknown #
coedge $-1 $484 $305 $479 $488 reversed $299 $-1 #
vertex $-1 $488 $489 #
straight-curve $-1 -73.9341410565508 -48.229916028256447 0 0 0 -1 I I #
straight-curve $-1 -73.9341410565508 -31.93152841993966 -5.3620401748480662 0 0 1 I I #
point $-1 -73.9341410565508 -31.93152841993966 -12.493678098069507 #
coedge $-1 $482 $480 $311 $399 forward $385 $-1 #
edge $-1 $402 -12.493678098069507 $400 12.493678098069507 $311 $490 forward 7 unknown #
vertex $-1 $312 $491 #
straight-curve $-1 73.9341410565508 0 -12.493678098069507 0 -1 0 I I #
vertex $-1 $317 $492 #
straight-curve $-1 73.9341410565508 0 12.493678098069507 0 1 0 I I #
point $-1 73.9341410565508 -48.229916028256447 12.493678098069507 #
face $-1 $340 $493 $17 $-1 $494 reversed single #
loop $-1 $-1 $495 $321 #
plane-surface $-1 0 -31.93152841993966 -10.724080349696132 0 -1 0 0 0 -1 forward_v I I I I #
coedge $-1 $496 $497 $498 $499 reversed $322 $-1 #
coedge $-1 $500 $324 $339 $426 reversed $225 $-1 #
coedge $-1 $324 $500 $342 $430 reversed $225 $-1 #
edge $-1 $415 -12.493678098069507 $413 12.493678098069507 $324 $501 forward 7 unknown #
coedge $-1 $325 $502 $503 $504 forward $137 $-1 #
vertex $-1 $327 $505 #
straight-curve $-1 -48.946784860411789 20.840231800574411 12.493678098069507 0 -1 0 I I #
vertex $-1 $430 $506 #
straight-curve $-1 -48.946784860411789 20.840231800574411 -12.493678098069507 0 1 0 I I #
coedge $-1 $507 $330 $508 $509 forward $241 $-1 #
coedge $-1 $503 $508 $333 $419 forward $510 $-1 #
edge $-1 $422 -12.493678098069507 $420 12.493678098069507 $333 $511 forward 7 unknown #
vertex $-1 $334 $512 #
straight-curve $-1 0 48.229916028256447 -12.493678098069507 1 0 0 I I #
vertex $-1 $335 $513 #
straight-curve $-1 0 48.229916028256447 12.493678098069507 -1 0 0 I I #
face $-1 $-1 $514 $17 $-1 $515 reversed single #
coedge $-1 $339 $507 $516 $517 forward $241 $-1 #
edge $-1 $518 -73.9341410565508 $413 48.946784860411789 $409 $423 forward 7 unknown #
face $-1 $336 $510 $17 $-1 $519 reversed single #
plane-surface $-1 0 0 12.493678098069507 0 0 1 1 0 0 forward_v I I I I #
coedge $-1 $502 $342 $520 $521 forward $137 $-1 #
edge $-1 $415 -48.946784860411789 $522 73.9341410565508 $410 $421 forward 7 unknown #
face $-1 $523 $524 $18 $-1 $525 reversed single #
loop $-1 $-1 $526 $344 #
plane-surface $-1 -48.946784860411789 41.680463601148823 0 -1 0 0 0 0 1 forward_v I I I I #
coedge $-1 $527 $528 $529 $530 reversed $345 $-1 #
coedge $-1 $531 $347 $450 $532 reversed $250 $-1 #
coedge $-1 $347 $531 $533 $534 reversed $250 $-1 #
coedge $-1 $528 $527 $347 $438 forward $345 $-1 #
edge $-1 $535 -12.493678098069507 $536 12.493678098069507 $437 $537 forward 7 unknown #
coedge $-1 $348 $538 $539 $540 forward $153 $-1 #
coedge $-1 $541 $349 $348 $441 reversed $264 $-1 #
edge $-1 $542 -48.229916028256447 $351 20.757192337330871 $440 $364 forward 7 unknown #
straight-curve $-1 73.9341410565508 20.757192337330871 102.72354967295297 0 0 1 I I #
point $-1 73.9341410565508 20.757192337330871 12.493678098069507 #
straight-curve $-1 73.934141056550814 13.972050877843014 1.6894325690433618 0 -1 0 I I #
point $-1 73.934141056550786 20.757192337330871 1.6894325690433618 #
coedge $-1 $358 $543 $544 $545 reversed $264 $-1 #
coedge $-1 $546 $361 $358 $448 forward $454 $-1 #
edge $-1 $363 -12.493678098069507 $547 12.493678098069507 $358 $548 forward 7 unknown #
plane-surface $-1 73.9341410565508 0 0 -1 0 0 0 0 1 forward_v I I I I #
coedge $-1 $549 $360 $435 $532 forward $153 $-1 #
coedge $-1 $550 $526 $360 $452 reversed $432 $-1 #
edge $-1 $455 -27.389684227682043 $551 -14.29077937346678 $360 $552 forward 7 unknown #
coedge $-1 $361 $546 $550 $553 forward $454 $-1 #
loop $-1 $-1 $453 $523 #
vertex $-1 $452 $554 #
straight-curve $-1 0 48.229916028256447 12.493678098069507 -1 0 0 I I #
point $-1 73.9341410565508 48.229916028256447 12.493678098069507 #
face $-1 $555 $556 $19 $-1 $557 forward single #
loop $-1 $-1 $558 $365 #
plane-surface $-1 -51.388822889975245 35.131011174041191 0 0 1 0 0 0 1 forward_v I I I I #
coedge $-1 $375 $559 $368 $464 forward $366 $-1 #
coedge $-1 $463 $368 $560 $561 reversed $271 $-1 #
coedge $-1 $368 $462 $465 $562 forward $271 $-1 #
edge $-1 $563 -60.487651621270523 $564 -43.197244758375767 $461 $565 forward 7 unknown #
coedge $-1 $467 $369 $463 $562 reversed $273 $-1 #
edge $-1 $564 6.785141459487857 $376 21.15896029619817 $375 $566 forward 7 unknown #
coedge $-1 $370 $465 $470 $567 reversed $273 $-1 #
vertex $-1 $567 $568 #
straight-curve $-1 -51.465273424875619 35.131011174041184 80.047684864479535 0.84804809178421925 0 -0.52991927123019833 I I #
coedge $-1 $560 $372 $467 $567 forward $472 $-1 #
coedge $-1 $372 $569 $374 $475 reversed $472 $-1 #
loop $-1 $-1 $560 $570 #
straight-curve $-1 73.9341410565508 35.131011174041184 102.72354967295297 0 0 -1 I I #
coedge $-1 $571 $374 $572 $573 forward $366 $-1 #
edge $-1 $377 35.131011174041184 $574 48.229916028256447 $471 $575 forward 7 unknown #
point $-1 56.643734193656044 35.131011174041184 12.493678098069509 #
point $-1 73.9341410565508 35.131011174041184 12.493678098069507 #
point $-1 57.840116642532024 27.944101755686027 -4.8290498666417339 #
coedge $-1 $388 $387 $393 $488 forward $203 $-1 #
coedge $-1 $398 $576 $387 $481 reversed $385 $-1 #
edge $-1 $402 -73.9341410565508 $577 73.9341410565508 $480 $578 forward 7 unknown #
coedge $-1 $576 $398 $389 $483 reversed $385 $-1 #
edge $-1 $485 -73.9341410565508 $400 73.9341410565508 $482 $579 forward 7 unknown #
coedge $-1 $390 $393 $576 $580 forward $299 $-1 #
vertex $-1 $483 $581 #
straight-curve $-1 -73.9341410565508 0 -12.493678098069507 0 1 0 I I #
straight-curve $-1 0 -48.229916028256447 12.493678098069507 1 0 0 I I #
edge $-1 $577 -48.229916028256447 $394 48.229916028256447 $393 $582 forward 7 unknown #
point $-1 -73.9341410565508 -48.229916028256447 12.493678098069507 #
straight-curve $-1 73.9341410565508 48.229916028256447 0 0 0 -1 I I #
point $-1 73.9341410565508 48.229916028256447 -12.493678098069507 #
point $-1 73.9341410565508 48.229916028256447 12.493678098069507 #
loop $-1 $-1 $583 $405 #
plane-surface $-1 0 -48.229916028256447 0 0 1 0 0 0 1 forward_v I I I I #
coedge $-1 $584 $585 $586 $587 reversed $406 $-1 #
coedge $-1 $588 $408 $583 $589 reversed $322 $-1 #
coedge $-1 $408 $588 $584 $590 reversed $322 $-1 #
coedge $-1 $586 $591 $408 $499 forward $514 $-1 #
edge $-1 $592 -28.18955491620742 $593 -11.891167307890633 $498 $594 forward 7 unknown #
coedge $-1 $410 $409 $595 $596 forward $225 $-1 #
straight-curve $-1 -48.946784860411789 48.229916028256447 0 0 0 1 I I #
coedge $-1 $412 $429 $585 $597 forward $137 $-1 #
coedge $-1 $598 $418 $412 $504 reversed $510 $-1 #
edge $-1 $599 -31.93152841993966 $420 48.229916028256447 $503 $600 forward 7 unknown #
point $-1 -48.946784860411789 48.229916028256454 12.493678098069507 #
point $-1 -48.946784860411789 48.229916028256454 -12.493678098069507 #
coedge $-1 $425 $417 $601 $602 forward $241 $-1 #
coedge $-1 $418 $603 $417 $509 reversed $510 $-1 #
edge $-1 $422 -48.229916028256447 $604 48.229916028256447 $508 $605 forward 7 unknown #
loop $-1 $-1 $606 $427 #
straight-curve $-1 -73.9341410565508 48.229916028256447 0 0 0 -1 I I #
point $-1 -73.9341410565508 48.229916028256447 -12.493678098069507 #
point $-1 -73.9341410565508 48.229916028256447 12.493678098069507 #
loop $-1 $-1 $586 $424 #
plane-surface $-1 73.9341410565508 0 0 -1 0 0 0 0 1 forward_v I I I I #
coedge $-1 $591 $595 $425 $517 reversed $514 $-1 #
edge $-1 $607 -48.229916028256447 $518 48.229916028256447 $516 $608 forward 7 unknown #
vertex $-1 $517 $609 #
plane-surface $-1 -73.9341410565508 0 0 1 0 0 0 0 -1 forward_v I I I I #
coedge $-1 $595 $586 $429 $521 reversed $514 $-1 #
edge $-1 $522 -48.229916028256447 $610 31.93152841993966 $520 $611 forward 7 unknown #
vertex $-1 $521 $612 #
face $-1 $613 $454 $18 $-1 $614 reversed single #
loop $-1 $-1 $615 $431 #
plane-surface $-1 0 0 -12.493678098069507 0 0 1 1 0 0 forward_v I I I I #
coedge $-1 $451 $616 $531 $617 reversed $432 $-1 #
coedge $-1 $437 $434 $549 $618 reversed $345 $-1 #
coedge $-1 $434 $437 $615 $619 reversed $345 $-1 #
coedge $-1 $620 $621 $434 $530 forward $622 $-1 #
edge $-1 $623 -12.493678098069507 $624 12.493678098069507 $529 $625 forward 7 unknown #
coedge $-1 $436 $435 $526 $617 forward $250 $-1 #
edge $-1 $551 23.252373415424167 $535 28.136449474551078 $450 $626 forward 7 unknown #
coedge $-1 $627 $615 $436 $534 forward $524 $-1 #
edge $-1 $536 -28.136449474551078 $628 -23.252373415424167 $533 $629 forward 7 unknown #
vertex $-1 $532 $630 #
vertex $-1 $534 $631 #
straight-curve $-1 -53.830860919538701 35.131011174041191 0 0 0 -1 I I #
coedge $-1 $439 $632 $633 $634 forward $153 $-1 #
coedge $-1 $635 $636 $439 $540 reversed $637 $-1 #
edge $-1 $638 -73.9341410565508 $542 73.9341410565508 $539 $639 forward 7 unknown #
coedge $-1 $640 $440 $636 $641 forward $264 $-1 #
vertex $-1 $441 $642 #
coedge $-1 $446 $640 $643 $644 forward $264 $-1 #
coedge $-1 $645 $646 $446 $545 forward $524 $-1 #
edge $-1 $547 -48.229916028256447 $647 31.93152841993966 $446 $648 forward 7 unknown #
coedge $-1 $453 $447 $646 $649 reversed $454 $-1 #
vertex $-1 $545 $650 #
straight-curve $-1 73.9341410565508 48.229916028256447 0 0 0 -1 I I #
coedge $-1 $632 $450 $527 $618 forward $153 $-1 #
coedge $-1 $616 $451 $453 $553 reversed $432 $-1 #
vertex $-1 $532 $651 #
straight-curve $-1 -48.946784860411789 20.840231800574411 12.493678098069507 0 -1 0 I I #
edge $-1 $652 -12.493678098069507 $455 12.493678098069507 $453 $653 forward 7 unknown #
point $-1 -48.946784860411789 48.229916028256454 12.493678098069507 #
face $-1 $654 $655 $19 $-1 $656 forward single #
loop $-1 $-1 $657 $458 #
plane-surface $-1 -53.830860919538701 41.680463601148823 0 1 0 0 0 0 -1 forward_v I I I I #
coedge $-1 $658 $659 $660 $661 reversed $459 $-1 #
coedge $-1 $461 $662 $663 $664 forward $366 $-1 #
coedge $-1 $663 $470 $462 $561 forward $472 $-1 #
edge $-1 $665 -101.03411710390961 $563 -90.229871574883461 $560 $666 forward 7 unknown #
edge $-1 $665 -147.8682821131016 $564 -127.47980764991729 $463 $667 forward 7 unknown #
vertex $-1 $561 $668 #
vertex $-1 $466 $669 #
straight-curve $-1 13.446489435280277 20.757192337330871 12.493678098069509 -1 0 0 I I #
straight-curve $-1 56.643734193656044 13.972050877843014 12.493678098069502 0 1 0 I I #
edge $-1 $468 -21.15896029619817 $665 -6.785141459487857 $470 $670 forward 7 unknown #
point $-1 73.934141056550786 35.131011174041184 1.6894325690433618 #
coedge $-1 $471 $671 $672 $673 reversed $472 $-1 #
face $-1 $-1 $472 $19 $-1 $674 reversed single #
coedge $-1 $675 $474 $676 $677 forward $366 $-1 #
coedge $-1 $672 $678 $474 $573 reversed $679 $-1 #
edge $-1 $574 -73.9341410565508 $680 48.946784860411789 $572 $681 forward 7 unknown #
vertex $-1 $475 $682 #
straight-curve $-1 73.9341410565508 0 12.493678098069507 0 1 0 I I #
coedge $-1 $480 $482 $484 $580 reversed $385 $-1 #
vertex $-1 $481 $683 #
straight-curve $-1 0 48.229916028256447 12.493678098069507 -1 0 0 I I #
straight-curve $-1 0 48.229916028256447 -12.493678098069507 1 0 0 I I #
edge $-1 $577 -12.493678098069507 $485 12.493678098069507 $576 $684 forward 7 unknown #
point $-1 -73.9341410565508 48.229916028256447 -12.493678098069507 #
straight-curve $-1 -73.9341410565508 0 12.493678098069507 0 -1 0 I I #
coedge $-1 $685 $686 $496 $589 forward $493 $-1 #
coedge $-1 $687 $495 $497 $590 forward $406 $-1 #
coedge $-1 $495 $687 $502 $597 reversed $406 $-1 #
coedge $-1 $520 $498 $495 $587 forward $514 $-1 #
edge $-1 $593 3.5924424264746913 $610 7.1316379232214411 $586 $688 forward 7 unknown #
coedge $-1 $497 $496 $606 $689 reversed $322 $-1 #
edge $-1 $690 -73.9341410565508 $592 73.9341410565508 $583 $691 forward 7 unknown #
edge $-1 $593 -73.9341410565508 $692 73.9341410565508 $584 $693 forward 7 unknown #
coedge $-1 $498 $516 $685 $694 forward $514 $-1 #
vertex $-1 $589 $695 #
vertex $-1 $499 $696 #
straight-curve $-1 73.9341410565508 -20.040361112049027 -8.9544826013227574 0 1 0 I I #
coedge $-1 $516 $520 $500 $596 reversed $514 $-1 #
edge $-1 $518 -12.493678098069507 $522 12.493678098069507 $595 $697 forward 7 unknown #
edge $-1 $610 -73.9341410565508 $599 73.9341410565508 $502 $698 forward 7 unknown #
coedge $-1 $606 $503 $687 $699 forward $510 $-1 #
vertex $-1 $504 $700 #
straight-curve $-1 -73.9341410565508 0 -12.493678098069507 0 1 0 I I #
coedge $-1 $686 $685 $507 $602 reversed $493 $-1 #
edge $-1 $604 -73.9341410565508 $607 73.9341410565508 $601 $701 forward 7 unknown #
coedge $-1 $508 $606 $686 $702 reversed $510 $-1 #
vertex $-1 $509 $703 #
straight-curve $-1 -73.9341410565508 0 12.493678098069507 0 -1 0 I I #
coedge $-1 $603 $598 $588 $689 forward $510 $-1 #
vertex $-1 $517 $704 #
straight-curve $-1 73.9341410565508 0 12.493678098069507 0 1 0 I I #
point $-1 73.9341410565508 48.229916028256447 12.493678098069507 #
vertex $-1 $597 $705 #
straight-curve $-1 73.9341410565508 0 -12.493678098069507 0 -1 0 I I #
point $-1 73.9341410565508 48.229916028256447 -12.493678098069507 #
face $-1 $706 $707 $18 $-1 $708 reversed single #
plane-surface $-1 0 48.229916028256447 0 0 -1 0 0 0 -1 forward_v I I I I #
coedge $-1 $533 $709 $528 $619 forward $524 $-1 #
coedge $-1 $526 $550 $627 $710 reversed $432 $-1 #
edge $-1 $551 -12.493678098069507 $628 12.493678098069507 $526 $711 forward 7 unknown #
edge $-1 $535 14.29077937346678 $623 27.389684227682043 $549 $712 forward 7 unknown #
edge $-1 $624 -27.389684227682043 $536 -14.29077937346678 $615 $713 forward 7 unknown #
coedge $-1 $714 $529 $709 $715 reversed $622 $-1 #
coedge $-1 $529 $714 $632 $716 reversed $622 $-1 #
loop $-1 $-1 $529 $717 #
vertex $-1 $716 $718 #
vertex $-1 $530 $719 #
straight-curve $-1 -53.830860919538701 48.229916028256447 0 0 0 -1 I I #
straight-curve $-1 -25.694411444987622 35.131011174041191 12.493678098069507 -1 0 0 I I #
coedge $-1 $646 $533 $616 $710 forward $524 $-1 #
vertex $-1 $534 $720 #
straight-curve $-1 -25.694411444987622 35.131011174041191 -12.493678098069507 1 0 0 I I #
point $-1 -53.830860919538701 35.131011174041191 12.493678098069507 #
point $-1 -53.830860919538701 35.131011174041191 -12.493678098069507 #
coedge $-1 $538 $549 $621 $716 forward $153 $-1 #
coedge $-1 $721 $722 $538 $634 reversed $723 $-1 #
edge $-1 $724 -48.229916028256447 $638 48.229916028256447 $633 $725 forward 7 unknown #
coedge $-1 $726 $539 $722 $727 forward $637 $-1 #
coedge $-1 $539 $726 $541 $641 reversed $637 $-1 #
loop $-1 $-1 $726 $728 #
vertex $-1 $634 $729 #
straight-curve $-1 0 -48.229916028256447 12.493678098069507 1 0 0 I I #
coedge $-1 $543 $541 $730 $731 forward $264 $-1 #
edge $-1 $542 -12.493678098069507 $732 8.9544826013227574 $541 $733 forward 7 unknown #
point $-1 73.9341410565508 -48.229916028256447 12.493678098069507 #
coedge $-1 $734 $735 $543 $644 reversed $736 $-1 #
edge $-1 $737 3.5924424264746913 $647 7.1316379232214411 $543 $738 forward 7 unknown #
coedge $-1 $739 $544 $735 $740 forward $524 $-1 #
coedge $-1 $544 $627 $546 $649 forward $524 $-1 #
vertex $-1 $740 $741 #
straight-curve $-1 73.9341410565508 0 -12.493678098069507 0 -1 0 I I #
edge $-1 $652 -48.946784860411789 $547 73.9341410565508 $546 $742 forward 7 unknown #
point $-1 73.9341410565508 48.229916028256447 -12.493678098069507 #
point $-1 -48.946784860411789 35.131011174041191 12.493678098069507 #
vertex $-1 $649 $743 #
straight-curve $-1 -48.946784860411789 48.229916028256447 0 0 0 1 I I #
face $-1 $744 $745 $19 $-1 $746 reversed single #
loop $-1 $-1 $747 $555 #
plane-surface $-1 -48.946784860411789 41.680463601148823 0 -1 0 0 0 0 1 forward_v I I I I #
coedge $-1 $748 $749 $750 $751 reversed $556 $-1 #
coedge $-1 $752 $558 $675 $753 reversed $459 $-1 #
coedge $-1 $558 $752 $754 $755 reversed $459 $-1 #
coedge $-1 $749 $748 $558 $661 forward $556 $-1 #
edge $-1 $756 -12.493678098069507 $757 12.493678098069507 $660 $758 forward 7 unknown #
coedge $-1 $559 $759 $760 $761 forward $366 $-1 #
coedge $-1 $762 $560 $559 $664 reversed $472 $-1 #
edge $-1 $763 -48.229916028256447 $563 20.757192337330871 $663 $575 forward 7 unknown #
vertex $-1 $567 $764 #
straight-curve $-1 73.9341410565508 20.757192337330871 102.72354967295297 0 0 1 I I #
straight-curve $-1 -51.465273424875619 20.757192337330871 80.047684864479535 -0.84804809178421925 0 0.52991927123019833 I I #
point $-1 73.9341410565508 20.757192337330871 12.493678098069507 #
point $-1 56.643734193656044 20.757192337330871 12.493678098069509 #
straight-curve $-1 73.934141056550814 13.972050877843014 1.6894325690433618 0 -1 0 I I #
coedge $-1 $569 $765 $766 $767 reversed $472 $-1 #
coedge $-1 $768 $572 $569 $673 forward $679 $-1 #
edge $-1 $574 -12.493678098069507 $769 12.493678098069507 $569 $770 forward 7 unknown #
plane-surface $-1 73.9341410565508 0 0 -1 0 0 0 0 1 forward_v I I I I #
coedge $-1 $771 $571 $658 $753 forward $366 $-1 #
coedge $-1 $772 $747 $571 $677 reversed $655 $-1 #
edge $-1 $680 -27.389684227682043 $773 -14.29077937346678 $571 $774 forward 7 unknown #
coedge $-1 $572 $768 $772 $775 forward $679 $-1 #
loop $-1 $-1 $678 $744 #
vertex $-1 $677 $776 #
straight-curve $-1 0 48.229916028256447 12.493678098069507 -1 0 0 I I #
point $-1 73.9341410565508 48.229916028256447 12.493678098069507 #
point $-1 -73.9341410565508 48.229916028256447 12.493678098069507 #
straight-curve $-1 -73.9341410565508 48.229916028256447 0 0 0 -1 I I #
coedge $-1 $601 $583 $591 $694 reversed $493 $-1 #
coedge $-1 $583 $601 $603 $702 forward $493 $-1 #
coedge $-1 $585 $584 $598 $699 reversed $406 $-1 #
straight-curve $-1 73.9341410565508 -31.93152841993966 -5.3620401748480662 0 0 -1 I I #
edge $-1 $692 11.891167307890633 $690 28.18955491620742 $606 $777 forward 7 unknown #
vertex $-1 $589 $778 #
straight-curve $-1 0 -48.229916028256447 -8.9544826013227574 1 0 0 I I #
vertex $-1 $689 $779 #
straight-curve $-1 0 -31.93152841993966 -8.9544826013227574 -1 0 0 I I #
edge $-1 $607 -12.493678098069507 $592 8.9544826013227574 $591 $780 forward 7 unknown #
point $-1 73.9341410565508 -48.229916028256447 -8.9544826013227574 #
point $-1 73.9341410565508 -31.93152841993966 -8.9544826013227574 #
straight-curve $-1 73.9341410565508 48.229916028256447 0 0 0 -1 I I #
straight-curve $-1 0 -31.93152841993966 -12.493678098069507 -1 0 0 I I #
edge $-1 $599 -7.1316379232214411 $692 -3.5924424264746913 $598 $781 forward 7 unknown #
point $-1 -73.9341410565508 -31.93152841993966 -12.493678098069507 #
straight-curve $-1 0 -48.229916028256447 12.493678098069507 1 0 0 I I #
edge $-1 $604 -12.493678098069507 $690 8.9544826013227574 $603 $782 forward 7 unknown #
point $-1 -73.9341410565508 -48.229916028256447 12.493678098069507 #
point $-1 73.9341410565508 -48.229916028256447 12.493678098069507 #
point $-1 73.9341410565508 -31.93152841993966 -12.493678098069507 #
face $-1 $728 $736 $18 $-1 $783 forward single #
loop $-1 $-1 $730 $613 #
plane-surface $-1 0 -40.080722224098054 -8.9544826013227574 0 0 1 1 0 0 forward_v I I I I #
coedge $-1 $615 $739 $620 $715 forward $524 $-1 #
edge $-1 $628 14.29077937346678 $652 27.389684227682043 $627 $784 forward 7 unknown #
straight-curve $-1 -48.946784860411789 35.131011174041191 0 0 0 -1 I I #
straight-curve $-1 -53.830860919538701 20.840231800574411 12.493678098069507 0 1 0 I I #
straight-curve $-1 -53.830860919538701 20.840231800574411 -12.493678098069507 0 -1 0 I I #
coedge $-1 $621 $620 $721 $785 reversed $622 $-1 #
edge $-1 $786 -73.9341410565508 $624 -53.830860919538701 $620 $742 forward 7 unknown #
edge $-1 $623 53.830860919538701 $724 73.9341410565508 $621 $456 forward 7 unknown #
face $-1 $359 $622 $18 $-1 $614 reversed single #
point $-1 -53.830860919538701 48.229916028256454 12.493678098069507 #
point $-1 -53.830860919538701 48.229916028256454 -12.493678098069507 #
point $-1 -48.946784860411789 35.131011174041191 -12.493678098069507 #
coedge $-1 $787 $633 $714 $785 forward $723 $-1 #
coedge $-1 $633 $788 $635 $727 reversed $723 $-1 #
loop $-1 $-1 $788 $789 #
vertex $-1 $716 $790 #
straight-curve $-1 -73.9341410565508 0 12.493678098069507 0 -1 0 I I #
coedge $-1 $636 $635 $791 $792 forward $637 $-1 #
edge $-1 $638 -12.493678098069507 $793 8.9544826013227574 $722 $794 forward 7 unknown #
face $-1 $789 $637 $18 $-1 $795 reversed single #
point $-1 -73.9341410565508 -48.229916028256447 12.493678098069507 #
coedge $-1 $791 $796 $640 $731 reversed $707 $-1 #
edge $-1 $732 -28.18955491620742 $737 -11.891167307890633 $640 $797 forward 7 unknown #
vertex $-1 $792 $798 #
straight-curve $-1 73.9341410565508 -48.229916028256447 0 0 0 -1 I I #
coedge $-1 $799 $643 $796 $800 forward $736 $-1 #
coedge $-1 $643 $799 $645 $740 reversed $736 $-1 #
loop $-1 $-1 $643 $706 #
vertex $-1 $731 $801 #
straight-curve $-1 73.9341410565508 -31.93152841993966 -5.3620401748480662 0 0 -1 I I #
coedge $-1 $709 $645 $787 $802 forward $524 $-1 #
edge $-1 $647 -73.9341410565508 $803 73.9341410565508 $645 $804 forward 7 unknown #
point $-1 73.9341410565508 -31.93152841993966 -12.493678098069507 #
straight-curve $-1 0 48.229916028256447 -12.493678098069507 1 0 0 I I #
point $-1 -48.946784860411789 48.229916028256454 -12.493678098069507 #
face $-1 $805 $679 $19 $-1 $806 reversed single #
loop $-1 $-1 $807 $654 #
plane-surface $-1 0 0 -12.493678098069507 0 0 1 1 0 0 forward_v I I I I #
coedge $-1 $676 $808 $752 $809 reversed $655 $-1 #
coedge $-1 $660 $657 $771 $810 reversed $556 $-1 #
coedge $-1 $657 $660 $807 $811 reversed $556 $-1 #
coedge $-1 $812 $813 $657 $751 forward $814 $-1 #
edge $-1 $815 -12.493678098069507 $816 12.493678098069507 $750 $817 forward 7 unknown #
coedge $-1 $659 $658 $747 $809 forward $459 $-1 #
edge $-1 $773 23.252373415424167 $756 28.136449474551078 $675 $818 forward 7 unknown #
coedge $-1 $819 $807 $659 $755 forward $745 $-1 #
edge $-1 $757 -28.136449474551078 $820 -23.252373415424167 $754 $821 forward 7 unknown #
vertex $-1 $753 $822 #
vertex $-1 $755 $823 #
straight-curve $-1 -53.830860919538701 35.131011174041191 0 0 0 -1 I I #
coedge $-1 $662 $824 $825 $826 forward $366 $-1 #
coedge $-1 $827 $828 $662 $761 reversed $829 $-1 #
edge $-1 $830 -73.9341410565508 $763 73.9341410565508 $760 $831 forward 7 unknown #
coedge $-1 $832 $663 $828 $833 forward $472 $-1 #
vertex $-1 $664 $834 #
point $-1 73.934141056550786 20.757192337330871 1.6894325690433618 #
coedge $-1 $671 $832 $835 $836 forward $472 $-1 #
coedge $-1 $837 $838 $671 $767 forward $745 $-1 #
edge $-1 $769 -48.229916028256447 $839 31.93152841993966 $671 $840 forward 7 unknown #
coedge $-1 $678 $672 $838 $841 reversed $679 $-1 #
vertex $-1 $767 $842 #
straight-curve $-1 73.9341410565508 48.229916028256447 0 0 0 -1 I I #
coedge $-1 $824 $675 $748 $810 forward $366 $-1 #
coedge $-1 $808 $676 $678 $775 reversed $655 $-1 #
vertex $-1 $753 $843 #
straight-curve $-1 -48.946784860411789 20.840231800574411 12.493678098069507 0 -1 0 I I #
edge $-1 $844 -12.493678098069507 $680 12.493678098069507 $678 $845 forward 7 unknown #
point $-1 -48.946784860411789 48.229916028256454 12.493678098069507 #
straight-curve $-1 -73.9341410565508 -20.040361112049027 -8.9544826013227574 0 -1 0 I I #
point $-1 -73.9341410565508 -48.229916028256447 -8.9544826013227574 #
point $-1 -73.9341410565508 -31.93152841993966 -8.9544826013227574 #
straight-curve $-1 73.9341410565508 -48.229916028256447 0 0 0 -1 I I #
straight-curve $-1 -73.9341410565508 -31.93152841993966 -5.3620401748480662 0 0 1 I I #
straight-curve $-1 -73.9341410565508 -48.229916028256447 0 0 0 -1 I I #
plane-surface $-1 0 -31.93152841993966 -10.724080349696132 0 -1 0 0 0 -1 forward_v I I I I #
straight-curve $-1 -48.946784860411789 20.840231800574411 -12.493678098069507 0 1 0 I I #
edge $-1 $724 -12.493678098069507 $786 12.493678098069507 $714 $846 forward 7 unknown #
vertex $-1 $715 $847 #
coedge $-1 $848 $721 $739 $802 reversed $723 $-1 #
coedge $-1 $722 $848 $849 $850 forward $723 $-1 #
face $-1 $717 $723 $18 $-1 $851 reversed single #
point $-1 -73.9341410565508 48.229916028256447 12.493678098069507 #
coedge $-1 $849 $730 $726 $792 reversed $707 $-1 #
edge $-1 $793 -73.9341410565508 $732 73.9341410565508 $726 $852 forward 7 unknown #
vertex $-1 $792 $853 #
straight-curve $-1 -73.9341410565508 -48.229916028256447 0 0 0 -1 I I #
plane-surface $-1 0 -48.229916028256447 0 0 1 0 0 0 1 forward_v I I I I #
coedge $-1 $730 $849 $734 $800 reversed $707 $-1 #
straight-curve $-1 73.9341410565508 -20.040361112049027 -8.9544826013227574 0 1 0 I I #
point $-1 73.9341410565508 -48.229916028256447 -8.9544826013227574 #
coedge $-1 $735 $734 $848 $854 reversed $736 $-1 #
edge $-1 $737 -73.9341410565508 $855 73.9341410565508 $734 $856 forward 7 unknown #
point $-1 73.9341410565508 -31.93152841993966 -8.9544826013227574 #
edge $-1 $803 -31.93152841993966 $786 48.229916028256447 $787 $857 forward 7 unknown #
vertex $-1 $802 $858 #
straight-curve $-1 0 -31.93152841993966 -12.493678098069507 -1 0 0 I I #
face $-1 $859 $860 $19 $-1 $861 reversed single #
plane-surface $-1 0 48.229916028256447 0 0 -1 0 0 0 -1 forward_v I I I I #
coedge $-1 $754 $862 $749 $811 forward $745 $-1 #
coedge $-1 $747 $772 $819 $863 reversed $655 $-1 #
edge $-1 $773 -12.493678098069507 $820 12.493678098069507 $747 $864 forward 7 unknown #
edge $-1 $756 14.29077937346678 $815 27.389684227682043 $771 $865 forward 7 unknown #
edge $-1 $816 -27.389684227682043 $757 -14.29077937346678 $807 $866 forward 7 unknown #
coedge $-1 $867 $750 $862 $868 reversed $814 $-1 #
coedge $-1 $750 $867 $824 $869 reversed $814 $-1 #
loop $-1 $-1 $750 $870 #
vertex $-1 $869 $871 #
vertex $-1 $751 $872 #
straight-curve $-1 -53.830860919538701 48.229916028256447 0 0 0 -1 I I #
straight-curve $-1 -25.694411444987622 35.131011174041191 12.493678098069507 -1 0 0 I I #
coedge $-1 $838 $754 $808 $863 forward $745 $-1 #
vertex $-1 $755 $873 #
straight-curve $-1 -25.694411444987622 35.131011174041191 -12.493678098069507 1 0 0 I I #
point $-1 -53.830860919538701 35.131011174041191 12.493678098069507 #
point $-1 -53.830860919538701 35.131011174041191 -12.493678098069507 #
coedge $-1 $759 $771 $813 $869 forward $366 $-1 #
coedge $-1 $874 $875 $759 $826 reversed $876 $-1 #
edge $-1 $877 -48.229916028256447 $830 48.229916028256447 $825 $878 forward 7 unknown #
coedge $-1 $879 $760 $875 $880 forward $829 $-1 #
coedge $-1 $760 $879 $762 $833 reversed $829 $-1 #
loop $-1 $-1 $879 $881 #
vertex $-1 $826 $882 #
straight-curve $-1 0 -48.229916028256447 12.493678098069507 1 0 0 I I #
coedge $-1 $765 $762 $883 $884 forward $472 $-1 #
edge $-1 $763 -12.493678098069507 $885 8.9544826013227574 $762 $886 forward 7 unknown #
point $-1 73.9341410565508 -48.229916028256447 12.493678098069507 #
coedge $-1 $887 $888 $765 $836 reversed $889 $-1 #
edge $-1 $890 3.5924424264746913 $839 7.1316379232214411 $765 $891 forward 7 unknown #
coedge $-1 $892 $766 $888 $893 forward $745 $-1 #
coedge $-1 $766 $819 $768 $841 forward $745 $-1 #
vertex $-1 $893 $894 #
straight-curve $-1 73.9341410565508 0 -12.493678098069507 0 -1 0 I I #
edge $-1 $844 -48.946784860411789 $769 73.9341410565508 $768 $895 forward 7 unknown #
point $-1 73.9341410565508 48.229916028256447 -12.493678098069507 #
point $-1 -48.946784860411789 35.131011174041191 12.493678098069507 #
vertex $-1 $841 $896 #
straight-curve $-1 -48.946784860411789 48.229916028256447 0 0 0 1 I I #
straight-curve $-1 -73.9341410565508 48.229916028256447 0 0 0 -1 I I #
point $-1 -73.9341410565508 48.229916028256447 -12.493678098069507 #
coedge $-1 $788 $787 $799 $854 forward $723 $-1 #
coedge $-1 $796 $791 $788 $850 reversed $707 $-1 #
edge $-1 $855 11.891167307890633 $793 28.18955491620742 $788 $897 forward 7 unknown #
plane-surface $-1 -73.9341410565508 0 0 1 0 0 0 0 -1 forward_v I I I I #
straight-curve $-1 0 -48.229916028256447 -8.9544826013227574 1 0 0 I I #
point $-1 -73.9341410565508 -48.229916028256447 -8.9544826013227574 #
edge $-1 $803 -7.1316379232214411 $855 -3.5924424264746913 $848 $898 forward 7 unknown #
vertex $-1 $850 $899 #
straight-curve $-1 0 -31.93152841993966 -8.9544826013227574 -1 0 0 I I #
straight-curve $-1 -73.9341410565508 0 -12.493678098069507 0 1 0 I I #
point $-1 -73.9341410565508 -31.93152841993966 -12.493678098069507 #
face $-1 $881 $889 $19 $-1 $900 forward single #
loop $-1 $-1 $883 $805 #
plane-surface $-1 0 -40.080722224098054 -8.9544826013227574 0 0 1 1 0 0 forward_v I I I I #
coedge $-1 $807 $892 $812 $868 forward $745 $-1 #
edge $-1 $820 14.29077937346678 $844 27.389684227682043 $819 $901 forward 7 unknown #
straight-curve $-1 -48.946784860411789 35.131011174041191 0 0 0 -1 I I #
straight-curve $-1 -53.830860919538701 20.840231800574411 12.493678098069507 0 1 0 I I #
straight-curve $-1 -53.830860919538701 20.840231800574411 -12.493678098069507 0 -1 0 I I #
coedge $-1 $813 $812 $874 $902 reversed $814 $-1 #
edge $-1 $903 -73.9341410565508 $816 -53.830860919538701 $812 $895 forward 7 unknown #
edge $-1 $815 53.830860919538701 $877 73.9341410565508 $813 $681 forward 7 unknown #
face $-1 $570 $814 $19 $-1 $806 reversed single #
point $-1 -53.830860919538701 48.229916028256454 12.493678098069507 #
point $-1 -53.830860919538701 48.229916028256454 -12.493678098069507 #
point $-1 -48.946784860411789 35.131011174041191 -12.493678098069507 #
coedge $-1 $904 $825 $867 $902 forward $876 $-1 #
coedge $-1 $825 $905 $827 $880 reversed $876 $-1 #
loop $-1 $-1 $905 $906 #
vertex $-1 $869 $907 #
straight-curve $-1 -73.9341410565508 0 12.493678098069507 0 -1 0 I I #
coedge $-1 $828 $827 $908 $909 forward $829 $-1 #
edge $-1 $830 -12.493678098069507 $910 8.9544826013227574 $875 $911 forward 7 unknown #
face $-1 $906 $829 $19 $-1 $912 reversed single #
point $-1 -73.9341410565508 -48.229916028256447 12.493678098069507 #
coedge $-1 $908 $913 $832 $884 reversed $860 $-1 #
edge $-1 $885 -28.18955491620742 $890 -11.891167307890633 $832 $914 forward 7 unknown #
vertex $-1 $909 $915 #
straight-curve $-1 73.9341410565508 -48.229916028256447 0 0 0 -1 I I #
coedge $-1 $916 $835 $913 $917 forward $889 $-1 #
coedge $-1 $835 $916 $837 $893 reversed $889 $-1 #
loop $-1 $-1 $835 $859 #
vertex $-1 $884 $918 #
straight-curve $-1 73.9341410565508 -31.93152841993966 -5.3620401748480662 0 0 -1 I I #
coedge $-1 $862 $837 $904 $919 forward $745 $-1 #
edge $-1 $839 -73.9341410565508 $920 73.9341410565508 $837 $921 forward 7 unknown #
point $-1 73.9341410565508 -31.93152841993966 -12.493678098069507 #
straight-curve $-1 0 48.229916028256447 -12.493678098069507 1 0 0 I I #
point $-1 -48.946784860411789 48.229916028256454 -12.493678098069507 #
straight-curve $-1 -73.9341410565508 -20.040361112049027 -8.9544826013227574 0 -1 0 I I #
straight-curve $-1 -73.9341410565508 -31.93152841993966 -5.3620401748480662 0 0 1 I I #
point $-1 -73.9341410565508 -31.93152841993966 -8.9544826013227574 #
plane-surface $-1 0 -31.93152841993966 -10.724080349696132 0 -1 0 0 0 -1 forward_v I I I I #
straight-curve $-1 -48.946784860411789 20.840231800574411 -12.493678098069507 0 1 0 I I #
edge $-1 $877 -12.493678098069507 $903 12.493678098069507 $867 $922 forward 7 unknown #
vertex $-1 $868 $923 #
coedge $-1 $924 $874 $892 $919 reversed $876 $-1 #
coedge $-1 $875 $924 $925 $926 forward $876 $-1 #
face $-1 $870 $876 $19 $-1 $927 reversed single #
point $-1 -73.9341410565508 48.229916028256447 12.493678098069507 #
coedge $-1 $925 $883 $879 $909 reversed $860 $-1 #
edge $-1 $910 -73.9341410565508 $885 73.9341410565508 $879 $928 forward 7 unknown #
vertex $-1 $909 $929 #
straight-curve $-1 -73.9341410565508 -48.229916028256447 0 0 0 -1 I I #
plane-surface $-1 0 -48.229916028256447 0 0 1 0 0 0 1 forward_v I I I I #
coedge $-1 $883 $925 $887 $917 reversed $860 $-1 #
straight-curve $-1 73.9341410565508 -20.040361112049027 -8.9544826013227574 0 1 0 I I #
point $-1 73.9341410565508 -48.229916028256447 -8.9544826013227574 #
coedge $-1 $888 $887 $924 $930 reversed $889 $-1 #
edge $-1 $890 -73.9341410565508 $931 73.9341410565508 $887 $932 forward 7 unknown #
point $-1 73.9341410565508 -31.93152841993966 -8.9544826013227574 #
edge $-1 $920 -31.93152841993966 $903 48.229916028256447 $904 $933 forward 7 unknown #
vertex $-1 $919 $934 #
straight-curve $-1 0 -31.93152841993966 -12.493678098069507 -1 0 0 I I #
straight-curve $-1 -73.9341410565508 48.229916028256447 0 0 0 -1 I I #
point $-1 -73.9341410565508 48.229916028256447 -12.493678098069507 #
coedge $-1 $905 $904 $916 $930 forward $876 $-1 #
coedge $-1 $913 $908 $905 $926 reversed $860 $-1 #
edge $-1 $931 11.891167307890633 $910 28.18955491620742 $905 $935 forward 7 unknown #
plane-surface $-1 -73.9341410565508 0 0 1 0 0 0 0 -1 forward_v I I I I #
straight-curve $-1 0 -48.229916028256447 -8.9544826013227574 1 0 0 I I #
point $-1 -73.9341410565508 -48.229916028256447 -8.9544826013227574 #
edge $-1 $920 -7.1316379232214411 $931 -3.5924424264746913 $924 $936 forward 7 unknown #
vertex $-1 $926 $937 #
straight-curve $-1 0 -31.93152841993966 -8.9544826013227574 -1 0 0 I I #
straight-curve $-1 -73.9341410565508 0 -12.493678098069507 0 1 0 I I #
point $-1 -73.9341410565508 -31.93152841993966 -12.493678098069507 #
straight-curve $-1 -73.9341410565508 -20.040361112049027 -8.9544826013227574 0 -1 0 I I #
straight-curve $-1 -73.9341410565508 -31.93152841993966 -5.3620401748480662 0 0 1 I I #
point $-1 -73.9341410565508 -31.93152841993966 -8.9544826013227574 #
End-of-ACIS-data 