500 0 4 0           
7 Unknown 11 ACIS 5.0 NT 24 Thu Mar 25 17:38:31 1999 
-1 9.9999999999999995e-007 1e-010 
body $-1 $4 $-1 $5 #
body $-1 $6 $-1 $7 #
body $-1 $8 $-1 $9 #
body $-1 $10 $-1 $11 #
lump $-1 $-1 $12 $0 #
transform $-1 1 0 0 0 1 0 0 0 1 46.168401135288555 25.823560456777493 12.138184630855472 1 rotate no_reflect no_shear #
lump $-1 $-1 $13 $1 #
transform $-1 1 0 0 0 1 0 0 0 1 46.168401135288555 25.823560456777493 12.138184630855472 1 rotate no_reflect no_shear #
lump $-1 $-1 $14 $2 #
transform $-1 1 0 0 0 1 0 0 0 1 46.168401135288555 25.823560456777493 12.138184630855472 1 rotate no_reflect no_shear #
lump $-1 $-1 $15 $3 #
transform $-1 1 0 0 0 1 0 0 0 1 46.168401135288555 25.823560456777493 12.138184630855472 1 rotate no_reflect no_shear #
shell $-1 $-1 $-1 $16 $-1 $4 #
shell $-1 $-1 $-1 $17 $-1 $6 #
shell $-1 $-1 $-1 $18 $-1 $8 #
shell $-1 $-1 $-1 $19 $-1 $10 #
face $-1 $20 $21 $12 $-1 $22 forward single #
face $-1 $23 $24 $13 $-1 $25 forward single #
face $-1 $26 $27 $14 $-1 $28 forward single #
face $-1 $29 $30 $15 $-1 $31 reversed single #
face $-1 $32 $33 $12 $-1 $34 reversed single #
loop $-1 $-1 $35 $16 #
plane-surface $-1 0 0 12.138184630855472 0 0 1 1 0 0 forward_v I I I I #
face $-1 $36 $37 $13 $-1 $38 reversed single #
loop $-1 $-1 $39 $17 #
plane-surface $-1 -53.761525194650588 0 -7.6307532837280814 0 0 1 1 0 0 forward_v I I I I #
face $-1 $40 $41 $14 $-1 $42 forward single #
loop $-1 $-1 $43 $18 #
plane-surface $-1 -15.669061826116575 -103.26371959840031 55.67853914920375 -1 0 0 0 -0.83867057594974714 0.54463902268945019 forward_v I I I I #
face $-1 $44 $45 $15 $-1 $46 reversed single #
loop $-1 $47 $48 $19 #
cone-surface $-1 -23.325607421340532 -22.206672263684638 7.8377266904082168 0 0.83867057594974714 -0.54463902268945019 1 0 0 1 I I 0 1 1 forward I I I I #
face $-1 $49 $50 $12 $-1 $51 reversed single #
loop $-1 $-1 $52 $20 #
plane-surface $-1 0 0 -12.138184630855472 0 0 1 1 0 0 forward_v I I I I #
coedge $-1 $53 $54 $55 $56 forward $21 $-1 #
face $-1 $57 $58 $13 $-1 $59 forward single #
loop $-1 $-1 $60 $23 #
plane-surface $-1 -61.354649254012621 0 -9.8844689572917765 1 0 0 0 0 -1 forward_v I I I I #
coedge $-1 $61 $62 $63 $64 reversed $24 $-1 #
face $-1 $65 $66 $14 $-1 $67 forward single #
loop $-1 $-1 $68 $26 #
plane-surface $-1 -23.325607421340532 -25.823560456777486 5.3883134022876291 0 -0.83867057594974714 0.54463902268945019 1 0 0 forward_v I I I I #
coedge $-1 $69 $70 $71 $72 reversed $27 $-1 #
face $-1 $73 $74 $15 $-1 $75 forward single #
loop $-1 $76 $77 $29 #
cone-surface $-1 -23.325607421340532 -20.362157526567827 6.639884852900158 0 0.83867057594974714 -0.54463902268945019 0.5 0 0 1 I I -0.70710678118654746 0.70710678118654746 0.5 forward I I I I #
loop $-1 $-1 $78 $19 #
coedge $-1 $48 $48 $79 $80 reversed $30 $-1 #
face $-1 $81 $82 $12 $-1 $83 reversed single #
loop $-1 $-1 $84 $32 #
plane-surface $-1 0 -25.823560456777493 0 0 1 0 0 0 1 forward_v I I I I #
coedge $-1 $85 $86 $87 $88 forward $33 $-1 #
coedge $-1 $89 $35 $90 $91 forward $21 $-1 #
coedge $-1 $35 $89 $92 $93 forward $21 $-1 #
coedge $-1 $94 $95 $35 $56 reversed $96 $-1 #
edge $-1 $97 -25.823560456777493 $98 25.823560456777493 $55 $99 forward 7 unknown #
face $-1 $100 $101 $13 $-1 $102 reversed single #
loop $-1 $-1 $103 $36 #
plane-surface $-1 0 0 12.138184630855472 0 0 1 1 0 0 forward_v I I I I #
coedge $-1 $104 $105 $106 $107 forward $37 $-1 #
coedge $-1 $108 $39 $109 $110 forward $24 $-1 #
coedge $-1 $39 $108 $111 $112 forward $24 $-1 #
coedge $-1 $113 $114 $39 $64 forward $115 $-1 #
edge $-1 $116 -25.823560456777493 $117 25.823560456777493 $63 $118 forward 7 unknown #
face $-1 $119 $120 $14 $-1 $121 forward single #
loop $-1 $-1 $122 $40 #
plane-surface $-1 -30.982153016564489 -103.26371959840031 55.67853914920375 1 0 0 0 0.83867057594974714 -0.54463902268945019 forward_v I I I I #
coedge $-1 $123 $124 $125 $126 reversed $41 $-1 #
coedge $-1 $70 $43 $124 $127 forward $27 $-1 #
coedge $-1 $43 $69 $128 $129 reversed $27 $-1 #
coedge $-1 $130 $125 $43 $72 forward $120 $-1 #
edge $-1 $131 -30.191716830324509 $132 -25.808299342422664 $71 $133 forward 7 unknown #
face $-1 $134 $135 $15 $-1 $136 forward single #
loop $-1 $-1 $137 $44 #
plane-surface $-1 -15.669061826116575 -103.26371959840031 55.67853914920375 -1 0 0 0 -0.83867057594974714 0.54463902268945019 forward_v I I I I #
loop $-1 $-1 $138 $29 #
coedge $-1 $77 $77 $78 $139 forward $45 $-1 #
coedge $-1 $78 $78 $77 $139 reversed $47 $-1 #
coedge $-1 $79 $79 $48 $80 forward $135 $-1 #
edge $-1 $140 -1.0446099212668148e-015 $140 6.2831853071795996 $79 $141 forward 7 unknown #
face $-1 $142 $143 $12 $-1 $144 reversed single #
loop $-1 $-1 $145 $49 #
plane-surface $-1 -46.168401135288555 0 0 1 0 0 0 0 -1 forward_v I I I I #
coedge $-1 $146 $92 $147 $148 forward $50 $-1 #
coedge $-1 $149 $52 $146 $150 forward $33 $-1 #
coedge $-1 $52 $149 $151 $152 forward $33 $-1 #
coedge $-1 $95 $94 $52 $88 reversed $96 $-1 #
edge $-1 $153 -25.823560456777493 $154 25.823560456777493 $87 $155 forward 7 unknown #
coedge $-1 $54 $53 $156 $157 forward $21 $-1 #
coedge $-1 $158 $159 $53 $91 reversed $143 $-1 #
edge $-1 $98 -46.168401135288555 $160 46.168401135288555 $90 $161 forward 7 unknown #
coedge $-1 $84 $162 $54 $93 reversed $50 $-1 #
edge $-1 $163 -46.168401135288555 $97 46.168401135288555 $92 $164 forward 7 unknown #
coedge $-1 $87 $55 $162 $165 forward $96 $-1 #
coedge $-1 $55 $87 $158 $166 reversed $96 $-1 #
loop $-1 $-1 $94 $142 #
vertex $-1 $56 $167 #
vertex $-1 $56 $168 #
straight-curve $-1 46.168401135288555 0 12.138184630855472 0 1 0 I I #
face $-1 $169 $170 $13 $-1 $171 reversed single #
loop $-1 $-1 $172 $57 #
plane-surface $-1 0 0 -12.138184630855472 0 0 1 1 0 0 forward_v I I I I #
coedge $-1 $173 $174 $175 $176 forward $58 $-1 #
coedge $-1 $177 $60 $178 $179 reversed $37 $-1 #
coedge $-1 $60 $177 $108 $180 reversed $37 $-1 #
coedge $-1 $109 $181 $60 $107 reversed $182 $-1 #
edge $-1 $183 -2.2537156735636952 $184 2.2537156735636952 $106 $185 forward 7 unknown #
coedge $-1 $62 $61 $105 $180 forward $24 $-1 #
coedge $-1 $186 $106 $61 $110 reversed $182 $-1 #
edge $-1 $116 -7.5931240593620331 $183 7.5931240593620331 $109 $187 forward 7 unknown #
coedge $-1 $188 $189 $62 $112 reversed $170 $-1 #
edge $-1 $190 -7.5931240593620331 $117 7.5931240593620331 $111 $191 forward 7 unknown #
coedge $-1 $192 $63 $189 $193 reversed $115 $-1 #
coedge $-1 $63 $192 $186 $194 forward $115 $-1 #
loop $-1 $-1 $63 $169 #
vertex $-1 $194 $195 #
vertex $-1 $112 $196 #
straight-curve $-1 -46.168401135288555 0 -7.6307532837280814 0 -1 0 I I #
face $-1 $197 $198 $14 $-1 $199 forward single #
loop $-1 $-1 $200 $65 #
plane-surface $-1 0 0 12.138184630855472 0 0 1 1 0 0 forward_v I I I I #
coedge $-1 $201 $202 $200 $203 reversed $66 $-1 #
coedge $-1 $204 $68 $202 $205 reversed $41 $-1 #
coedge $-1 $68 $204 $69 $127 reversed $41 $-1 #
coedge $-1 $71 $200 $68 $126 forward $120 $-1 #
edge $-1 $206 -19.319349305894221 $131 -4.0062581154463093 $125 $207 forward 7 unknown #
edge $-1 $131 -8.0482986075003211 $208 1.2808562293387176e-014 $69 $209 forward 7 unknown #
coedge $-1 $210 $211 $70 $129 forward $212 $-1 #
edge $-1 $132 15.701084943746404 $208 22.450956172314257 $128 $213 forward 7 unknown #
coedge $-1 $214 $71 $211 $215 forward $120 $-1 #
vertex $-1 $126 $216 #
vertex $-1 $215 $217 #
straight-curve $-1 -15.669061826116575 -51.631859799200157 12.13818463085547 0 -1 0 I I #
face $-1 $218 $219 $15 $-1 $220 forward single #
loop $-1 $221 $79 $73 #
plane-surface $-1 -23.325607421340532 -25.823560456777486 5.3883134022876291 0 -0.83867057594974714 0.54463902268945019 1 0 0 forward_v I I I I #
coedge $-1 $222 $223 $224 $225 reversed $74 $-1 #
coedge $-1 $138 $138 $-1 $226 forward $76 $-1 #
edge $-1 $227 0 $227 6.2831853071796004 $77 $228 forward 7 unknown #
vertex $-1 $80 $229 #
ellipse-curve $-1 -23.325607421340532 -23.63185171282657 8.7632490165715478 0 0.83867057594974714 -0.54463902268945019 1 0 0 1 I I #
face $-1 $-1 $96 $12 $-1 $230 reversed single #
loop $-1 $-1 $158 $81 #
plane-surface $-1 0 25.823560456777493 0 0 -1 0 0 0 -1 forward_v I I I I #
coedge $-1 $231 $156 $159 $232 forward $82 $-1 #
coedge $-1 $162 $84 $85 $150 reversed $50 $-1 #
coedge $-1 $156 $231 $84 $148 reversed $82 $-1 #
edge $-1 $163 -12.138184630855472 $233 12.138184630855472 $147 $234 forward 7 unknown #
coedge $-1 $86 $85 $231 $235 forward $33 $-1 #
edge $-1 $154 -46.168401135288555 $233 46.168401135288555 $146 $236 forward 7 unknown #
coedge $-1 $159 $158 $86 $152 reversed $143 $-1 #
edge $-1 $237 -46.168401135288555 $153 46.168401135288555 $151 $238 forward 7 unknown #
vertex $-1 $88 $239 #
vertex $-1 $165 $240 #
straight-curve $-1 46.168401135288555 0 -12.138184630855472 0 -1 0 I I #
coedge $-1 $145 $147 $89 $157 reversed $82 $-1 #
edge $-1 $160 -25.823560456777493 $163 25.823560456777493 $156 $241 forward 7 unknown #
coedge $-1 $151 $90 $95 $166 forward $143 $-1 #
coedge $-1 $90 $151 $145 $232 reversed $143 $-1 #
vertex $-1 $91 $242 #
straight-curve $-1 0 25.823560456777493 12.138184630855472 -1 0 0 I I #
coedge $-1 $92 $146 $94 $165 reversed $50 $-1 #
vertex $-1 $157 $243 #
straight-curve $-1 0 -25.823560456777493 12.138184630855472 1 0 0 I I #
edge $-1 $97 -12.138184630855472 $154 12.138184630855472 $94 $244 forward 7 unknown #
edge $-1 $98 -12.138184630855472 $153 12.138184630855472 $95 $245 forward 7 unknown #
point $-1 46.168401135288555 -25.823560456777493 12.138184630855472 #
point $-1 46.168401135288555 25.823560456777493 12.138184630855472 #
face $-1 $246 $115 $13 $-1 $247 reversed single #
loop $-1 $-1 $189 $100 #
plane-surface $-1 0 -25.823560456777493 0 0 1 0 0 0 1 forward_v I I I I #
coedge $-1 $248 $249 $250 $251 forward $101 $-1 #
coedge $-1 $252 $103 $253 $254 forward $58 $-1 #
coedge $-1 $103 $252 $255 $256 forward $58 $-1 #
coedge $-1 $257 $258 $103 $176 reversed $259 $-1 #
edge $-1 $260 -25.823560456777493 $261 25.823560456777493 $175 $262 forward 7 unknown #
coedge $-1 $105 $104 $188 $263 reversed $37 $-1 #
coedge $-1 $249 $248 $104 $179 forward $101 $-1 #
edge $-1 $264 -25.823560456777493 $184 25.823560456777493 $104 $265 forward 7 unknown #
edge $-1 $183 -25.823560456777493 $190 25.823560456777493 $105 $266 forward 7 unknown #
coedge $-1 $106 $267 $249 $268 reversed $182 $-1 #
loop $-1 $-1 $267 $246 #
vertex $-1 $110 $269 #
vertex $-1 $268 $270 #
straight-curve $-1 -61.354649254012621 25.823560456777493 -9.8844689572917765 0 0 -1 I I #
coedge $-1 $253 $109 $114 $194 reversed $182 $-1 #
straight-curve $-1 -53.761525194650588 25.823560456777493 -7.6307532837280814 -1 0 0 I I #
coedge $-1 $271 $111 $177 $263 forward $170 $-1 #
coedge $-1 $111 $255 $113 $193 forward $170 $-1 #
vertex $-1 $180 $272 #
straight-curve $-1 -53.761525194650588 -25.823560456777493 -7.6307532837280814 1 0 0 I I #
coedge $-1 $114 $113 $252 $273 reversed $115 $-1 #
edge $-1 $274 -12.138184630855472 $117 7.6307532837280814 $113 $275 forward 7 unknown #
edge $-1 $276 -12.138184630855472 $116 7.6307532837280814 $186 $277 forward 7 unknown #
point $-1 -46.168401135288555 25.823560456777493 -7.6307532837280814 #
point $-1 -46.168401135288555 -25.823560456777493 -7.6307532837280814 #
face $-1 $278 $279 $14 $-1 $280 reversed single #
loop $-1 $-1 $281 $119 #
plane-surface $-1 -53.761525194650588 0 -7.6307532837280814 0 0 1 1 0 0 forward_v I I I I #
coedge $-1 $125 $282 $122 $203 forward $120 $-1 #
coedge $-1 $202 $122 $283 $284 reversed $66 $-1 #
coedge $-1 $122 $201 $123 $205 forward $66 $-1 #
edge $-1 $285 25.808299342422664 $206 30.191716830324509 $200 $286 forward 7 unknown #
coedge $-1 $124 $123 $210 $287 reversed $41 $-1 #
edge $-1 $288 -1.2808562293387176e-014 $206 8.0482986075003211 $202 $289 forward 7 unknown #
vertex $-1 $126 $290 #
straight-curve $-1 -11.662803710670266 -21.440142968875648 12.138184630855472 1 0 0 I I #
vertex $-1 $287 $291 #
straight-curve $-1 -15.669061826116575 -25.823560456777486 5.3883134022876291 0 -0.54463902268945019 -0.83867057594974714 I I #
coedge $-1 $283 $128 $204 $287 forward $212 $-1 #
coedge $-1 $128 $292 $130 $215 reversed $212 $-1 #
loop $-1 $-1 $283 $293 #
straight-curve $-1 -15.669061826116575 -25.823560456777493 27.839269574601875 0 0 -1 I I #
coedge $-1 $294 $130 $295 $296 forward $120 $-1 #
edge $-1 $132 -15.669061826116575 $297 46.168401135288555 $211 $298 forward 7 unknown #
point $-1 -15.669061826116575 -21.440142968875648 12.138184630855472 #
point $-1 -15.669061826116575 -25.823560456777493 12.138184630855472 #
face $-1 $299 $300 $15 $-1 $301 forward single #
loop $-1 $-1 $302 $134 #
plane-surface $-1 -30.982153016564489 -103.26371959840031 55.67853914920375 1 0 0 0 0.83867057594974714 -0.54463902268945019 forward_v I I I I #
loop $-1 $-1 $303 $73 #
coedge $-1 $223 $137 $304 $305 forward $74 $-1 #
coedge $-1 $137 $222 $306 $307 reversed $74 $-1 #
coedge $-1 $308 $309 $137 $225 forward $300 $-1 #
edge $-1 $310 -30.191716830324509 $311 -25.808299342422664 $224 $312 forward 7 unknown #
edge $-1 $313 1 $313 0 $138 $-1 forward 7 unknown #
vertex $-1 $139 $314 #
ellipse-curve $-1 -23.325607421340532 -20.781492814542702 6.9122043642448832 0 -0.83867057594974714 0.54463902268945019 1 0 0 1 I I #
point $-1 -22.325607421340532 -23.631851712826574 8.7632490165715513 #
plane-surface $-1 46.168401135288555 0 0 -1 0 0 0 0 1 forward_v I I I I #
coedge $-1 $147 $145 $149 $235 reversed $82 $-1 #
edge $-1 $160 -12.138184630855472 $237 12.138184630855472 $159 $315 forward 7 unknown #
vertex $-1 $235 $316 #
straight-curve $-1 -46.168401135288555 -25.823560456777493 0 0 0 -1 I I #
edge $-1 $233 -25.823560456777493 $237 25.823560456777493 $231 $317 forward 7 unknown #
straight-curve $-1 0 -25.823560456777493 -12.138184630855472 -1 0 0 I I #
vertex $-1 $152 $318 #
straight-curve $-1 0 25.823560456777493 -12.138184630855472 1 0 0 I I #
point $-1 46.168401135288555 25.823560456777493 -12.138184630855472 #
point $-1 46.168401135288555 -25.823560456777493 -12.138184630855472 #
straight-curve $-1 -46.168401135288555 0 12.138184630855472 0 -1 0 I I #
point $-1 -46.168401135288555 25.823560456777493 12.138184630855472 #
point $-1 -46.168401135288555 -25.823560456777493 12.138184630855472 #
straight-curve $-1 46.168401135288555 -25.823560456777493 0 0 0 -1 I I #
straight-curve $-1 46.168401135288555 25.823560456777493 0 0 0 -1 I I #
face $-1 $319 $182 $13 $-1 $320 reversed single #
plane-surface $-1 -46.168401135288555 0 0 1 0 0 0 0 -1 forward_v I I I I #
coedge $-1 $178 $172 $271 $321 forward $101 $-1 #
coedge $-1 $172 $178 $181 $268 forward $101 $-1 #
coedge $-1 $258 $257 $172 $251 reversed $259 $-1 #
edge $-1 $322 -25.823560456777493 $323 25.823560456777493 $250 $324 forward 7 unknown #
coedge $-1 $174 $173 $192 $273 forward $58 $-1 #
coedge $-1 $267 $186 $173 $254 reversed $182 $-1 #
edge $-1 $261 -46.168401135288555 $276 46.168401135288555 $253 $325 forward 7 unknown #
coedge $-1 $189 $326 $174 $256 reversed $170 $-1 #
edge $-1 $274 -46.168401135288555 $260 46.168401135288555 $255 $327 forward 7 unknown #
coedge $-1 $250 $175 $326 $328 forward $259 $-1 #
coedge $-1 $175 $250 $267 $329 reversed $259 $-1 #
loop $-1 $-1 $257 $319 #
vertex $-1 $176 $330 #
vertex $-1 $176 $331 #
straight-curve $-1 46.168401135288555 0 12.138184630855472 0 1 0 I I #
edge $-1 $190 -2.2537156735636952 $264 2.2537156735636952 $177 $332 forward 7 unknown #
vertex $-1 $179 $333 #
straight-curve $-1 -61.354649254012621 0 -12.138184630855472 0 1 0 I I #
straight-curve $-1 -61.354649254012621 0 -7.6307532837280814 0 -1 0 I I #
coedge $-1 $181 $253 $258 $329 forward $182 $-1 #
edge $-1 $184 -61.354649254012621 $322 46.168401135288555 $181 $334 forward 7 unknown #
point $-1 -61.354649254012621 25.823560456777493 -7.6307532837280814 #
point $-1 -61.354649254012621 25.823560456777493 -12.138184630855472 #
coedge $-1 $326 $188 $248 $321 reversed $170 $-1 #
point $-1 -61.354649254012621 -25.823560456777493 -7.6307532837280814 #
edge $-1 $276 -25.823560456777493 $274 25.823560456777493 $192 $335 forward 7 unknown #
vertex $-1 $273 $336 #
straight-curve $-1 -46.168401135288555 -25.823560456777493 0 0 0 -1 I I #
vertex $-1 $254 $337 #
straight-curve $-1 -46.168401135288555 25.823560456777493 0 0 0 -1 I I #
face $-1 $293 $338 $14 $-1 $339 reversed single #
loop $-1 $-1 $340 $197 #
plane-surface $-1 -61.354649254012621 0 -9.8844689572917765 1 0 0 0 0 -1 forward_v I I I I #
coedge $-1 $341 $342 $343 $344 reversed $198 $-1 #
coedge $-1 $200 $345 $346 $347 forward $120 $-1 #
coedge $-1 $346 $210 $201 $284 forward $212 $-1 #
edge $-1 $288 -22.450956172314257 $285 -15.701084943746404 $283 $348 forward 7 unknown #
vertex $-1 $284 $349 #
straight-curve $-1 -30.982153016564489 -51.631859799200157 12.13818463085547 0 1 0 I I #
edge $-1 $208 4.0062581154463093 $288 19.319349305894221 $210 $350 forward 7 unknown #
vertex $-1 $287 $351 #
straight-curve $-1 -30.982153016564489 -25.823560456777486 5.3883134022876291 0 0.54463902268945019 0.83867057594974714 I I #
point $-1 -30.982153016564489 -21.440142968875648 12.138184630855472 #
point $-1 -15.669061826116575 -25.823560456777493 5.3883134022876185 #
coedge $-1 $211 $352 $353 $354 reversed $212 $-1 #
face $-1 $355 $212 $14 $-1 $356 reversed single #
coedge $-1 $345 $214 $357 $358 forward $120 $-1 #
coedge $-1 $353 $359 $214 $296 reversed $360 $-1 #
edge $-1 $297 -25.823560456777493 $361 25.823560456777493 $295 $362 forward 7 unknown #
vertex $-1 $296 $363 #
straight-curve $-1 0 -25.823560456777493 12.138184630855472 1 0 0 I I #
face $-1 $364 $365 $15 $-1 $366 forward single #
loop $-1 $-1 $367 $218 #
plane-surface $-1 0 0 12.138184630855472 0 0 1 1 0 0 forward_v I I I I #
coedge $-1 $368 $369 $367 $370 reversed $219 $-1 #
coedge $-1 $371 $304 $309 $372 reversed $221 $-1 #
coedge $-1 $303 $373 $222 $305 reversed $221 $-1 #
edge $-1 $310 -8.0482986075003211 $374 1.2808562293387176e-014 $222 $375 forward 7 unknown #
coedge $-1 $376 $377 $223 $307 forward $378 $-1 #
edge $-1 $311 15.701084943746404 $374 22.450956172314257 $306 $379 forward 7 unknown #
coedge $-1 $380 $224 $377 $381 forward $300 $-1 #
coedge $-1 $224 $367 $303 $372 forward $300 $-1 #
vertex $-1 $372 $382 #
vertex $-1 $381 $383 #
straight-curve $-1 -15.669061826116575 -51.631859799200157 12.13818463085547 0 -1 0 I I #
vertex $-1 $226 $384 #
point $-1 -22.325607421340532 -20.781492814542702 6.9122043642448832 #
straight-curve $-1 -46.168401135288555 25.823560456777493 0 0 0 -1 I I #
point $-1 -46.168401135288555 -25.823560456777493 -12.138184630855472 #
straight-curve $-1 -46.168401135288555 0 -12.138184630855472 0 1 0 I I #
point $-1 -46.168401135288555 25.823560456777493 -12.138184630855472 #
face $-1 $-1 $259 $13 $-1 $385 reversed single #
plane-surface $-1 0 25.823560456777493 0 0 -1 0 0 0 -1 forward_v I I I I #
edge $-1 $323 -99.92992632993915 $264 7.5931240593620331 $271 $386 forward 7 unknown #
vertex $-1 $251 $387 #
vertex $-1 $328 $388 #
straight-curve $-1 46.168401135288555 0 -12.138184630855472 0 -1 0 I I #
straight-curve $-1 0 25.823560456777493 12.138184630855472 -1 0 0 I I #
coedge $-1 $255 $271 $257 $328 reversed $170 $-1 #
straight-curve $-1 0 -25.823560456777493 12.138184630855472 1 0 0 I I #
edge $-1 $260 -12.138184630855472 $323 12.138184630855472 $257 $389 forward 7 unknown #
edge $-1 $261 -12.138184630855472 $322 12.138184630855472 $258 $390 forward 7 unknown #
point $-1 46.168401135288555 -25.823560456777493 12.138184630855472 #
point $-1 46.168401135288555 25.823560456777493 12.138184630855472 #
straight-curve $-1 -61.354649254012621 -25.823560456777493 -9.8844689572917765 0 0 -1 I I #
point $-1 -61.354649254012621 -25.823560456777493 -12.138184630855472 #
straight-curve $-1 0 25.823560456777493 -12.138184630855472 1 0 0 I I #
straight-curve $-1 -46.168401135288555 0 12.138184630855472 0 -1 0 I I #
point $-1 -46.168401135288555 -25.823560456777493 12.138184630855472 #
point $-1 -46.168401135288555 25.823560456777493 12.138184630855472 #
loop $-1 $-1 $391 $278 #
plane-surface $-1 0 0 -12.138184630855472 0 0 1 1 0 0 forward_v I I I I #
coedge $-1 $392 $393 $394 $395 forward $279 $-1 #
coedge $-1 $396 $281 $397 $398 forward $198 $-1 #
coedge $-1 $281 $396 $399 $400 forward $198 $-1 #
coedge $-1 $401 $402 $281 $344 forward $403 $-1 #
edge $-1 $404 -25.823560456777493 $405 25.823560456777493 $343 $406 forward 7 unknown #
coedge $-1 $282 $294 $407 $408 forward $120 $-1 #
coedge $-1 $409 $283 $282 $347 reversed $212 $-1 #
edge $-1 $410 -46.168401135288555 $285 -30.982153016564489 $346 $298 forward 7 unknown #
straight-curve $-1 -30.982153016564489 -25.823560456777493 27.839269574601875 0 0 1 I I #
point $-1 -30.982153016564489 -25.823560456777493 12.138184630855472 #
straight-curve $-1 -11.662803710670266 -25.823560456777493 5.3883134022876185 -1 0 0 I I #
point $-1 -30.982153016564489 -25.823560456777493 5.3883134022876185 #
coedge $-1 $292 $411 $412 $413 reversed $212 $-1 #
coedge $-1 $414 $295 $292 $354 forward $360 $-1 #
edge $-1 $297 -12.138184630855472 $415 12.138184630855472 $353 $416 forward 7 unknown #
face $-1 $417 $403 $14 $-1 $418 reversed single #
plane-surface $-1 0 -25.823560456777493 0 0 1 0 0 0 1 forward_v I I I I #
coedge $-1 $419 $420 $294 $358 reversed $421 $-1 #
edge $-1 $361 -46.168401135288555 $422 46.168401135288555 $357 $423 forward 7 unknown #
coedge $-1 $295 $414 $419 $424 reversed $360 $-1 #
loop $-1 $-1 $353 $425 #
vertex $-1 $296 $426 #
straight-curve $-1 46.168401135288555 0 12.138184630855472 0 1 0 I I #
point $-1 46.168401135288555 -25.823560456777493 12.138184630855472 #
face $-1 $427 $428 $15 $-1 $429 reversed single #
loop $-1 $-1 $430 $299 #
plane-surface $-1 -53.761525194650588 0 -7.6307532837280814 0 0 1 1 0 0 forward_v I I I I #
coedge $-1 $309 $431 $302 $370 forward $300 $-1 #
coedge $-1 $369 $302 $432 $433 reversed $219 $-1 #
coedge $-1 $302 $368 $371 $434 forward $219 $-1 #
edge $-1 $435 25.808299342422664 $436 30.191716830324509 $367 $437 forward 7 unknown #
coedge $-1 $373 $303 $369 $434 reversed $221 $-1 #
edge $-1 $436 -19.319349305894221 $310 -4.0062581154463093 $309 $438 forward 7 unknown #
coedge $-1 $304 $371 $376 $439 reversed $221 $-1 #
vertex $-1 $439 $440 #
straight-curve $-1 -15.669061826116575 -25.823560456777486 5.3883134022876291 0 -0.54463902268945019 -0.83867057594974714 I I #
coedge $-1 $432 $306 $373 $439 forward $378 $-1 #
coedge $-1 $306 $441 $308 $381 reversed $378 $-1 #
loop $-1 $-1 $432 $442 #
straight-curve $-1 -15.669061826116575 -25.823560456777493 27.839269574601875 0 0 -1 I I #
coedge $-1 $443 $308 $444 $445 forward $300 $-1 #
edge $-1 $311 -15.669061826116575 $446 46.168401135288555 $377 $447 forward 7 unknown #
point $-1 -15.669061826116575 -21.440142968875648 12.138184630855472 #
point $-1 -15.669061826116575 -25.823560456777493 12.138184630855472 #
point $-1 -23.325607421340532 -19.942822238592953 6.3675653415554327 #
plane-surface $-1 46.168401135288555 0 0 -1 0 0 0 0 1 forward_v I I I I #
straight-curve $-1 -53.761525194650588 -25.823560456777493 -12.138184630855472 -1 0 0 I I #
point $-1 46.168401135288555 25.823560456777493 -12.138184630855472 #
point $-1 46.168401135288555 -25.823560456777493 -12.138184630855472 #
straight-curve $-1 46.168401135288555 -25.823560456777493 0 0 0 -1 I I #
straight-curve $-1 46.168401135288555 25.823560456777493 0 0 0 -1 I I #
coedge $-1 $412 $448 $414 $449 forward $338 $-1 #
coedge $-1 $450 $340 $451 $452 reversed $279 $-1 #
coedge $-1 $340 $450 $396 $453 reversed $279 $-1 #
coedge $-1 $397 $454 $340 $395 reversed $421 $-1 #
edge $-1 $455 -2.2537156735636952 $456 2.2537156735636952 $394 $457 forward 7 unknown #
coedge $-1 $342 $341 $393 $453 forward $198 $-1 #
coedge $-1 $420 $394 $341 $398 reversed $421 $-1 #
edge $-1 $404 -7.5931240593620331 $455 7.5931240593620331 $397 $458 forward 7 unknown #
coedge $-1 $411 $409 $342 $400 reversed $212 $-1 #
edge $-1 $459 -7.5931240593620331 $405 7.5931240593620331 $399 $460 forward 7 unknown #
coedge $-1 $407 $343 $409 $461 reversed $403 $-1 #
coedge $-1 $343 $407 $420 $462 forward $403 $-1 #
loop $-1 $-1 $343 $355 #
vertex $-1 $462 $463 #
vertex $-1 $400 $464 #
straight-curve $-1 -46.168401135288555 0 -7.6307532837280814 0 -1 0 I I #
coedge $-1 $402 $401 $345 $408 reversed $403 $-1 #
edge $-1 $422 -25.823560456777493 $410 25.823560456777493 $407 $465 forward 7 unknown #
coedge $-1 $399 $346 $401 $461 forward $212 $-1 #
vertex $-1 $408 $466 #
coedge $-1 $352 $399 $450 $467 forward $212 $-1 #
coedge $-1 $451 $391 $352 $413 forward $338 $-1 #
edge $-1 $415 -99.92992632993915 $468 7.5931240593620331 $352 $469 forward 7 unknown #
coedge $-1 $359 $353 $391 $449 reversed $360 $-1 #
vertex $-1 $354 $470 #
straight-curve $-1 46.168401135288555 -25.823560456777493 0 0 0 -1 I I #
face $-1 $425 $421 $14 $-1 $471 reversed single #
plane-surface $-1 -46.168401135288555 0 0 1 0 0 0 0 -1 forward_v I I I I #
coedge $-1 $454 $357 $359 $424 forward $421 $-1 #
coedge $-1 $357 $397 $402 $462 reversed $421 $-1 #
loop $-1 $-1 $419 $417 #
vertex $-1 $358 $472 #
straight-curve $-1 0 25.823560456777493 12.138184630855472 -1 0 0 I I #
edge $-1 $361 -12.138184630855472 $473 12.138184630855472 $359 $474 forward 7 unknown #
face $-1 $-1 $360 $14 $-1 $475 reversed single #
point $-1 46.168401135288555 25.823560456777493 12.138184630855472 #
face $-1 $442 $476 $15 $-1 $477 reversed single #
loop $-1 $-1 $478 $364 #
plane-surface $-1 -61.354649254012621 0 -9.8844689572917765 1 0 0 0 0 -1 forward_v I I I I #
coedge $-1 $479 $480 $481 $482 reversed $365 $-1 #
coedge $-1 $367 $483 $484 $485 forward $300 $-1 #
coedge $-1 $484 $376 $368 $433 forward $378 $-1 #
edge $-1 $486 -22.450956172314257 $435 -15.701084943746404 $432 $487 forward 7 unknown #
edge $-1 $486 -1.2808562293387176e-014 $436 8.0482986075003211 $369 $488 forward 7 unknown #
vertex $-1 $433 $489 #
vertex $-1 $372 $490 #
straight-curve $-1 -30.982153016564489 -51.631859799200157 12.13818463085547 0 1 0 I I #
straight-curve $-1 -11.662803710670266 -21.440142968875648 12.138184630855472 1 0 0 I I #
edge $-1 $374 4.0062581154463093 $486 19.319349305894221 $376 $491 forward 7 unknown #
point $-1 -15.669061826116575 -25.823560456777493 5.3883134022876185 #
coedge $-1 $377 $492 $493 $494 reversed $378 $-1 #
face $-1 $495 $378 $15 $-1 $496 reversed single #
coedge $-1 $483 $380 $497 $498 forward $300 $-1 #
coedge $-1 $493 $499 $380 $445 reversed $500 $-1 #
edge $-1 $446 -25.823560456777493 $501 25.823560456777493 $444 $502 forward 7 unknown #
vertex $-1 $445 $503 #
straight-curve $-1 0 -25.823560456777493 12.138184630855472 1 0 0 I I #
coedge $-1 $391 $451 $454 $504 forward $338 $-1 #
edge $-1 $473 -25.823560456777493 $415 25.823560456777493 $414 $505 forward 7 unknown #
coedge $-1 $393 $392 $411 $467 reversed $279 $-1 #
coedge $-1 $448 $412 $392 $452 forward $338 $-1 #
edge $-1 $468 -25.823560456777493 $456 25.823560456777493 $392 $506 forward 7 unknown #
edge $-1 $455 -25.823560456777493 $459 25.823560456777493 $393 $507 forward 7 unknown #
coedge $-1 $394 $419 $448 $504 reversed $421 $-1 #
vertex $-1 $398 $508 #
vertex $-1 $504 $509 #
straight-curve $-1 -61.354649254012621 25.823560456777493 -9.8844689572917765 0 0 -1 I I #
straight-curve $-1 -53.761525194650588 25.823560456777493 -7.6307532837280814 -1 0 0 I I #
vertex $-1 $453 $510 #
straight-curve $-1 -53.761525194650588 -25.823560456777493 -7.6307532837280814 1 0 0 I I #
edge $-1 $410 -12.138184630855472 $405 7.6307532837280814 $401 $511 forward 7 unknown #
edge $-1 $422 -12.138184630855472 $404 7.6307532837280814 $420 $512 forward 7 unknown #
point $-1 -46.168401135288555 25.823560456777493 -7.6307532837280814 #
point $-1 -46.168401135288555 -25.823560456777493 -7.6307532837280814 #
straight-curve $-1 -46.168401135288555 0 12.138184630855472 0 -1 0 I I #
point $-1 -46.168401135288555 -25.823560456777493 12.138184630855472 #
edge $-1 $459 -2.2537156735636952 $468 2.2537156735636952 $450 $513 forward 7 unknown #
vertex $-1 $452 $514 #
straight-curve $-1 -53.761525194650588 -25.823560456777493 -12.138184630855472 -1 0 0 I I #
point $-1 46.168401135288555 -25.823560456777493 -12.138184630855472 #
plane-surface $-1 0 25.823560456777493 0 0 -1 0 0 0 -1 forward_v I I I I #
point $-1 -46.168401135288555 25.823560456777493 12.138184630855472 #
vertex $-1 $449 $515 #
straight-curve $-1 46.168401135288555 25.823560456777493 0 0 0 -1 I I #
plane-surface $-1 46.168401135288555 0 0 -1 0 0 0 0 1 forward_v I I I I #
loop $-1 $-1 $516 $427 #
plane-surface $-1 0 0 -12.138184630855472 0 0 1 1 0 0 forward_v I I I I #
coedge $-1 $517 $518 $519 $520 forward $428 $-1 #
coedge $-1 $521 $430 $522 $523 forward $365 $-1 #
coedge $-1 $430 $521 $524 $525 forward $365 $-1 #
coedge $-1 $526 $527 $430 $482 forward $528 $-1 #
edge $-1 $529 -25.823560456777493 $530 25.823560456777493 $481 $531 forward 7 unknown #
coedge $-1 $431 $443 $532 $533 forward $300 $-1 #
coedge $-1 $534 $432 $431 $485 reversed $378 $-1 #
edge $-1 $535 -46.168401135288555 $435 -30.982153016564489 $484 $447 forward 7 unknown #
vertex $-1 $439 $536 #
straight-curve $-1 -30.982153016564489 -25.823560456777493 27.839269574601875 0 0 1 I I #
straight-curve $-1 -30.982153016564489 -25.823560456777486 5.3883134022876291 0 0.54463902268945019 0.83867057594974714 I I #
point $-1 -30.982153016564489 -25.823560456777493 12.138184630855472 #
point $-1 -30.982153016564489 -21.440142968875648 12.138184630855472 #
straight-curve $-1 -11.662803710670266 -25.823560456777493 5.3883134022876185 -1 0 0 I I #
coedge $-1 $441 $537 $538 $539 reversed $378 $-1 #
coedge $-1 $540 $444 $441 $494 forward $500 $-1 #
edge $-1 $446 -12.138184630855472 $541 12.138184630855472 $493 $542 forward 7 unknown #
face $-1 $543 $528 $15 $-1 $544 reversed single #
plane-surface $-1 0 -25.823560456777493 0 0 1 0 0 0 1 forward_v I I I I #
coedge $-1 $545 $546 $443 $498 reversed $547 $-1 #
edge $-1 $501 -46.168401135288555 $548 46.168401135288555 $497 $549 forward 7 unknown #
coedge $-1 $444 $540 $545 $550 reversed $500 $-1 #
loop $-1 $-1 $493 $551 #
vertex $-1 $445 $552 #
straight-curve $-1 46.168401135288555 0 12.138184630855472 0 1 0 I I #
point $-1 46.168401135288555 -25.823560456777493 12.138184630855472 #
edge $-1 $456 -61.354649254012621 $473 46.168401135288555 $454 $553 forward 7 unknown #
straight-curve $-1 46.168401135288555 0 -12.138184630855472 0 -1 0 I I #
straight-curve $-1 -61.354649254012621 0 -12.138184630855472 0 1 0 I I #
straight-curve $-1 -61.354649254012621 0 -7.6307532837280814 0 -1 0 I I #
point $-1 -61.354649254012621 25.823560456777493 -7.6307532837280814 #
point $-1 -61.354649254012621 25.823560456777493 -12.138184630855472 #
point $-1 -61.354649254012621 -25.823560456777493 -7.6307532837280814 #
straight-curve $-1 -46.168401135288555 -25.823560456777493 0 0 0 -1 I I #
straight-curve $-1 -46.168401135288555 25.823560456777493 0 0 0 -1 I I #
straight-curve $-1 -61.354649254012621 -25.823560456777493 -9.8844689572917765 0 0 -1 I I #
point $-1 -61.354649254012621 -25.823560456777493 -12.138184630855472 #
point $-1 46.168401135288555 25.823560456777493 -12.138184630855472 #
coedge $-1 $538 $554 $540 $555 forward $476 $-1 #
coedge $-1 $556 $478 $557 $558 reversed $428 $-1 #
coedge $-1 $478 $556 $521 $559 reversed $428 $-1 #
coedge $-1 $522 $560 $478 $520 reversed $547 $-1 #
edge $-1 $561 -2.2537156735636952 $562 2.2537156735636952 $519 $563 forward 7 unknown #
coedge $-1 $480 $479 $518 $559 forward $365 $-1 #
coedge $-1 $546 $519 $479 $523 reversed $547 $-1 #
edge $-1 $529 -7.5931240593620331 $561 7.5931240593620331 $522 $564 forward 7 unknown #
coedge $-1 $537 $534 $480 $525 reversed $378 $-1 #
edge $-1 $565 -7.5931240593620331 $530 7.5931240593620331 $524 $566 forward 7 unknown #
coedge $-1 $532 $481 $534 $567 reversed $528 $-1 #
coedge $-1 $481 $532 $546 $568 forward $528 $-1 #
loop $-1 $-1 $481 $495 #
vertex $-1 $568 $569 #
vertex $-1 $525 $570 #
straight-curve $-1 -46.168401135288555 0 -7.6307532837280814 0 -1 0 I I #
coedge $-1 $527 $526 $483 $533 reversed $528 $-1 #
edge $-1 $548 -25.823560456777493 $535 25.823560456777493 $532 $571 forward 7 unknown #
coedge $-1 $524 $484 $526 $567 forward $378 $-1 #
vertex $-1 $533 $572 #
point $-1 -30.982153016564489 -25.823560456777493 5.3883134022876185 #
coedge $-1 $492 $524 $556 $573 forward $378 $-1 #
coedge $-1 $557 $516 $492 $539 forward $476 $-1 #
edge $-1 $541 -99.92992632993915 $574 7.5931240593620331 $492 $575 forward 7 unknown #
coedge $-1 $499 $493 $516 $555 reversed $500 $-1 #
vertex $-1 $494 $576 #
straight-curve $-1 46.168401135288555 -25.823560456777493 0 0 0 -1 I I #
face $-1 $551 $547 $15 $-1 $577 reversed single #
plane-surface $-1 -46.168401135288555 0 0 1 0 0 0 0 -1 forward_v I I I I #
coedge $-1 $560 $497 $499 $550 forward $547 $-1 #
coedge $-1 $497 $522 $527 $568 reversed $547 $-1 #
loop $-1 $-1 $545 $543 #
vertex $-1 $498 $578 #
straight-curve $-1 0 25.823560456777493 12.138184630855472 -1 0 0 I I #
edge $-1 $501 -12.138184630855472 $579 12.138184630855472 $499 $580 forward 7 unknown #
face $-1 $-1 $500 $15 $-1 $581 reversed single #
point $-1 46.168401135288555 25.823560456777493 12.138184630855472 #
straight-curve $-1 0 25.823560456777493 -12.138184630855472 1 0 0 I I #
coedge $-1 $516 $557 $560 $582 forward $476 $-1 #
edge $-1 $579 -25.823560456777493 $541 25.823560456777493 $540 $583 forward 7 unknown #
coedge $-1 $518 $517 $537 $573 reversed $428 $-1 #
coedge $-1 $554 $538 $517 $558 forward $476 $-1 #
edge $-1 $574 -25.823560456777493 $562 25.823560456777493 $517 $584 forward 7 unknown #
edge $-1 $561 -25.823560456777493 $565 25.823560456777493 $518 $585 forward 7 unknown #
coedge $-1 $519 $545 $554 $582 reversed $547 $-1 #
vertex $-1 $523 $586 #
vertex $-1 $582 $587 #
straight-curve $-1 -61.354649254012621 25.823560456777493 -9.8844689572917765 0 0 -1 I I #
straight-curve $-1 -53.761525194650588 25.823560456777493 -7.6307532837280814 -1 0 0 I I #
vertex $-1 $559 $588 #
straight-curve $-1 -53.761525194650588 -25.823560456777493 -7.6307532837280814 1 0 0 I I #
edge $-1 $535 -12.138184630855472 $530 7.6307532837280814 $526 $589 forward 7 unknown #
edge $-1 $548 -12.138184630855472 $529 7.6307532837280814 $546 $590 forward 7 unknown #
point $-1 -46.168401135288555 25.823560456777493 -7.6307532837280814 #
point $-1 -46.168401135288555 -25.823560456777493 -7.6307532837280814 #
straight-curve $-1 -46.168401135288555 0 12.138184630855472 0 -1 0 I I #
point $-1 -46.168401135288555 -25.823560456777493 12.138184630855472 #
edge $-1 $565 -2.2537156735636952 $574 2.2537156735636952 $556 $591 forward 7 unknown #
vertex $-1 $558 $592 #
straight-curve $-1 -53.761525194650588 -25.823560456777493 -12.138184630855472 -1 0 0 I I #
point $-1 46.168401135288555 -25.823560456777493 -12.138184630855472 #
plane-surface $-1 0 25.823560456777493 0 0 -1 0 0 0 -1 forward_v I I I I #
point $-1 -46.168401135288555 25.823560456777493 12.138184630855472 #
vertex $-1 $555 $593 #
straight-curve $-1 46.168401135288555 25.823560456777493 0 0 0 -1 I I #
plane-surface $-1 46.168401135288555 0 0 -1 0 0 0 0 1 forward_v I I I I #
edge $-1 $562 -61.354649254012621 $579 46.168401135288555 $560 $594 forward 7 unknown #
straight-curve $-1 46.168401135288555 0 -12.138184630855472 0 -1 0 I I #
straight-curve $-1 -61.354649254012621 0 -12.138184630855472 0 1 0 I I #
straight-curve $-1 -61.354649254012621 0 -7.6307532837280814 0 -1 0 I I #
point $-1 -61.354649254012621 25.823560456777493 -7.6307532837280814 #
point $-1 -61.354649254012621 25.823560456777493 -12.138184630855472 #
point $-1 -61.354649254012621 -25.823560456777493 -7.6307532837280814 #
straight-curve $-1 -46.168401135288555 -25.823560456777493 0 0 0 -1 I I #
straight-curve $-1 -46.168401135288555 25.823560456777493 0 0 0 -1 I I #
straight-curve $-1 -61.354649254012621 -25.823560456777493 -9.8844689572917765 0 0 -1 I I #
point $-1 -61.354649254012621 -25.823560456777493 -12.138184630855472 #
point $-1 46.168401135288555 25.823560456777493 -12.138184630855472 #
straight-curve $-1 0 25.823560456777493 -12.138184630855472 1 0 0 I I #
End-of-ACIS-data 