500 0 5 0           
7 Unknown 11 ACIS 5.0 NT 24 Fri Mar 26 02:37:42 1999 
-1 9.9999999999999995e-007 1e-010 
body $-1 $5 $-1 $6 #
body $-1 $7 $-1 $8 #
body $-1 $9 $-1 $10 #
body $-1 $11 $-1 $12 #
body $-1 $13 $-1 $14 #
lump $-1 $-1 $15 $0 #
transform $-1 1 0 0 0 1 0 0 0 1 61.262855922116763 40.976394180201552 15.587837025568236 1 rotate no_reflect no_shear #
lump $-1 $-1 $16 $1 #
transform $-1 1 0 0 0 1 0 0 0 1 61.262855922116763 40.976394180201552 15.587837025568236 1 rotate no_reflect no_shear #
lump $-1 $-1 $17 $2 #
transform $-1 1 0 0 0 1 0 0 0 1 61.262855922116763 40.976394180201552 15.587837025568236 1 rotate no_reflect no_shear #
lump $-1 $-1 $18 $3 #
transform $-1 1 0 0 0 1 0 0 0 1 61.262855922116763 40.976394180201552 15.587837025568236 1 rotate no_reflect no_shear #
lump $-1 $-1 $19 $4 #
transform $-1 1 0 0 0 1 0 0 0 1 61.262855922116763 40.976394180201552 15.587837025568236 1 rotate no_reflect no_shear #
shell $-1 $-1 $-1 $20 $-1 $5 #
shell $-1 $-1 $-1 $21 $-1 $7 #
shell $-1 $-1 $-1 $22 $-1 $9 #
shell $-1 $-1 $-1 $23 $-1 $11 #
shell $-1 $-1 $-1 $24 $-1 $13 #
face $-1 $25 $26 $15 $-1 $27 forward single #
face $-1 $28 $29 $16 $-1 $30 forward single #
face $-1 $31 $32 $17 $-1 $33 reversed single #
face $-1 $34 $35 $18 $-1 $36 forward single #
face $-1 $37 $38 $19 $-1 $39 forward single #
face $-1 $40 $41 $15 $-1 $42 reversed single #
loop $-1 $-1 $43 $20 #
plane-surface $-1 0 0 15.587837025568236 0 0 1 1 0 0 forward_v I I I I #
face $-1 $44 $45 $16 $-1 $46 reversed single #
loop $-1 $-1 $47 $21 #
plane-surface $-1 0 -40.976394180201552 0 0 1 0 0 0 1 forward_v I I I I #
face $-1 $48 $49 $17 $-1 $50 reversed single #
loop $-1 $-1 $51 $22 #
plane-surface $-1 -136.69721738744843 2.586683451518617 103.19335501259653 0 1 0 -0.61566148304635926 0 0.78801074757464917 forward_v I I I I #
face $-1 $52 $53 $18 $-1 $54 forward single #
loop $-1 $55 $56 $23 #
cone-surface $-1 -54.652823924070276 6.6680911870865742 9.9822956923470674 0.61566148304635926 0 -0.78801074757464917 1.5760214951492983 0 1.2313229660927185 1 I I 0 1 2 forward I I I I #
face $-1 $57 $58 $19 $-1 $59 forward single #
loop $-1 $60 $61 $24 #
cone-surface $-1 -54.652823924070276 12.790202790438506 9.9822956923470674 0.61566148304635926 0 -0.78801074757464917 1.5760214951492983 0 1.2313229660927185 1 I I 0 1 2 forward I I I I #
face $-1 $62 $63 $15 $-1 $64 reversed single #
loop $-1 $-1 $65 $25 #
plane-surface $-1 0 0 -15.587837025568236 0 0 1 1 0 0 forward_v I I I I #
coedge $-1 $66 $67 $68 $69 forward $26 $-1 #
face $-1 $70 $71 $16 $-1 $72 reversed single #
loop $-1 $-1 $73 $28 #
plane-surface $-1 0 0 -15.587837025568236 0 0 1 1 0 0 forward_v I I I I #
coedge $-1 $74 $75 $76 $77 forward $29 $-1 #
face $-1 $78 $79 $17 $-1 $80 reversed single #
loop $-1 $-1 $81 $31 #
plane-surface $-1 -61.262855922116756 9.7291469887625368 6.6417772251060256 -0.61566148304635926 0 0.78801074757464917 0.78801074757464917 0 0.61566148304635926 forward_v I I I I #
coedge $-1 $82 $83 $84 $85 reversed $32 $-1 #
face $-1 $-1 $86 $18 $-1 $87 forward single #
loop $-1 $88 $89 $34 #
cone-surface $-1 -53.152347518705142 6.6680911870865742 8.0617735117823539 0.61566148304635926 0 -0.78801074757464917 0.78801074757464917 0 0.61566148304635926 1 I I -0.70710678118654746 0.70710678118654746 1 forward I I I I #
loop $-1 $-1 $90 $23 #
coedge $-1 $56 $56 $91 $92 reversed $35 $-1 #
face $-1 $-1 $93 $19 $-1 $94 forward single #
loop $-1 $95 $96 $37 #
cone-surface $-1 -53.152347518705142 12.790202790438506 8.0617735117823539 0.61566148304635926 0 -0.78801074757464917 0.78801074757464917 0 0.61566148304635926 1 I I -0.70710678118654746 0.70710678118654746 1 forward I I I I #
loop $-1 $-1 $97 $24 #
coedge $-1 $61 $61 $98 $99 reversed $38 $-1 #
face $-1 $100 $101 $15 $-1 $102 reversed single #
loop $-1 $-1 $103 $40 #
plane-surface $-1 0 -40.976394180201552 0 0 1 0 0 0 1 forward_v I I I I #
coedge $-1 $104 $105 $106 $107 forward $41 $-1 #
coedge $-1 $108 $43 $109 $110 forward $26 $-1 #
coedge $-1 $43 $108 $111 $112 forward $26 $-1 #
coedge $-1 $113 $114 $43 $69 reversed $115 $-1 #
edge $-1 $116 -40.976394180201552 $117 40.976394180201552 $68 $118 forward 7 unknown #
face $-1 $119 $120 $16 $-1 $121 forward single #
loop $-1 $-1 $122 $44 #
plane-surface $-1 61.262855922116763 0 0 -1 0 0 0 0 1 forward_v I I I I #
coedge $-1 $123 $124 $125 $126 forward $45 $-1 #
coedge $-1 $125 $47 $122 $127 reversed $29 $-1 #
coedge $-1 $47 $125 $128 $129 reversed $29 $-1 #
coedge $-1 $130 $131 $47 $77 reversed $120 $-1 #
edge $-1 $132 -61.262855922116763 $133 61.262855922116763 $76 $134 forward 7 unknown #
face $-1 $135 $136 $17 $-1 $137 forward single #
loop $-1 $-1 $138 $48 #
plane-surface $-1 -136.69721738744843 16.871610526006457 103.19335501259653 0 -1 0 0.61566148304635926 0 -0.78801074757464917 forward_v I I I I #
coedge $-1 $139 $140 $141 $142 reversed $49 $-1 #
coedge $-1 $83 $51 $143 $144 reversed $32 $-1 #
coedge $-1 $51 $82 $139 $145 reversed $32 $-1 #
coedge $-1 $141 $146 $51 $85 forward $136 $-1 #
edge $-1 $147 7.0857527716074529 $148 18.536186923062914 $84 $149 forward 7 unknown #
loop $-1 $-1 $91 $52 #
plane-surface $-1 -61.262855922116756 9.7291469887625368 6.6417772251060256 -0.61566148304635926 0 0.78801074757464917 0.78801074757464917 0 0.61566148304635926 forward_v I I I I #
loop $-1 $-1 $150 $34 #
coedge $-1 $89 $89 $90 $151 reversed $53 $-1 #
coedge $-1 $90 $90 $89 $151 forward $55 $-1 #
coedge $-1 $91 $91 $56 $92 forward $86 $-1 #
edge $-1 $152 0 $152 6.2831853071796004 $91 $153 forward 7 unknown #
loop $-1 $-1 $98 $57 #
plane-surface $-1 -61.262855922116756 9.7291469887625368 6.6417772251060256 -0.61566148304635926 0 0.78801074757464917 0.78801074757464917 0 0.61566148304635926 forward_v I I I I #
loop $-1 $-1 $154 $37 #
coedge $-1 $96 $96 $97 $155 reversed $58 $-1 #
coedge $-1 $97 $97 $96 $155 forward $60 $-1 #
coedge $-1 $98 $98 $61 $99 forward $93 $-1 #
edge $-1 $156 0 $156 6.2831853071796004 $98 $157 forward 7 unknown #
face $-1 $158 $159 $15 $-1 $160 reversed single #
loop $-1 $-1 $161 $62 #
plane-surface $-1 -61.262855922116763 0 0 1 0 0 0 0 -1 forward_v I I I I #
coedge $-1 $162 $111 $163 $164 forward $63 $-1 #
coedge $-1 $165 $65 $162 $166 forward $41 $-1 #
coedge $-1 $65 $165 $167 $168 forward $41 $-1 #
coedge $-1 $114 $113 $65 $107 reversed $115 $-1 #
edge $-1 $169 -40.976394180201552 $170 40.976394180201552 $106 $171 forward 7 unknown #
coedge $-1 $67 $66 $172 $173 forward $26 $-1 #
coedge $-1 $174 $175 $66 $110 reversed $159 $-1 #
edge $-1 $117 -61.262855922116763 $176 61.262855922116763 $109 $177 forward 7 unknown #
coedge $-1 $103 $178 $67 $112 reversed $63 $-1 #
edge $-1 $179 -61.262855922116763 $116 61.262855922116763 $111 $180 forward 7 unknown #
coedge $-1 $106 $68 $178 $181 forward $115 $-1 #
coedge $-1 $68 $106 $174 $182 reversed $115 $-1 #
loop $-1 $-1 $113 $158 #
vertex $-1 $69 $183 #
vertex $-1 $69 $184 #
straight-curve $-1 61.262855922116763 0 15.587837025568236 0 1 0 I I #
face $-1 $185 $186 $16 $-1 $187 reversed single #
loop $-1 $-1 $131 $70 #
plane-surface $-1 0 -49.368437128259487 -6.3435984120776165 0 0 1 1 0 0 forward_v I I I I #
coedge $-1 $188 $189 $74 $127 forward $71 $-1 #
coedge $-1 $190 $73 $189 $191 forward $45 $-1 #
coedge $-1 $73 $190 $192 $193 forward $45 $-1 #
coedge $-1 $75 $74 $73 $126 reversed $29 $-1 #
edge $-1 $194 -61.262855922116763 $195 61.262855922116763 $73 $196 forward 7 unknown #
edge $-1 $195 -15.587837025568236 $133 -6.3435984120776165 $122 $197 forward 7 unknown #
coedge $-1 $192 $198 $75 $129 forward $199 $-1 #
edge $-1 $132 6.3435984120776165 $194 15.587837025568236 $128 $200 forward 7 unknown #
coedge $-1 $201 $76 $198 $202 forward $120 $-1 #
coedge $-1 $76 $201 $188 $203 forward $120 $-1 #
vertex $-1 $129 $204 #
vertex $-1 $203 $205 #
straight-curve $-1 0 -40.976394180201552 -6.3435984120776165 1 0 0 I I #
face $-1 $-1 $206 $17 $-1 $207 reversed single #
loop $-1 $-1 $84 $78 #
plane-surface $-1 0 0 15.587837025568236 0 0 1 1 0 0 forward_v I I I I #
coedge $-1 $208 $209 $210 $211 reversed $79 $-1 #
coedge $-1 $212 $81 $83 $145 forward $49 $-1 #
coedge $-1 $81 $212 $208 $213 forward $49 $-1 #
coedge $-1 $210 $84 $81 $142 forward $136 $-1 #
edge $-1 $148 -2.2778900428626514 $214 12.007037031625188 $141 $215 forward 7 unknown #
coedge $-1 $216 $217 $82 $144 forward $206 $-1 #
edge $-1 $218 -44.954900281192245 $147 -36.008840480730029 $143 $219 forward 7 unknown #
edge $-1 $148 -14.530809619916688 $218 8.8800565823946346e-015 $83 $220 forward 7 unknown #
coedge $-1 $84 $210 $216 $221 forward $136 $-1 #
vertex $-1 $144 $222 #
vertex $-1 $85 $223 #
straight-curve $-1 -68.348608693724216 2.586683451518617 15.587837025568234 1 0 0 I I #
coedge $-1 $150 $150 $-1 $224 reversed $88 $-1 #
edge $-1 $225 0 $225 6.2831853071796004 $89 $226 forward 7 unknown #
vertex $-1 $92 $227 #
ellipse-curve $-1 -55.537638846389044 6.6680911870865742 11.114807125337123 -0.61566148304635926 0 0.78801074757464917 1.5760214951492983 0 1.2313229660927185 1 I I #
coedge $-1 $154 $154 $-1 $228 reversed $95 $-1 #
edge $-1 $229 0 $229 6.2831853071796004 $96 $230 forward 7 unknown #
vertex $-1 $99 $231 #
ellipse-curve $-1 -55.537638846389044 12.790202790438506 11.114807125337123 -0.61566148304635926 0 0.78801074757464917 1.5760214951492983 0 1.2313229660927185 1 I I #
face $-1 $-1 $115 $15 $-1 $232 reversed single #
loop $-1 $-1 $174 $100 #
plane-surface $-1 0 40.976394180201552 0 0 -1 0 0 0 -1 forward_v I I I I #
coedge $-1 $233 $172 $175 $234 forward $101 $-1 #
coedge $-1 $178 $103 $104 $166 reversed $63 $-1 #
coedge $-1 $172 $233 $103 $164 reversed $101 $-1 #
edge $-1 $179 -15.587837025568236 $235 15.587837025568236 $163 $236 forward 7 unknown #
coedge $-1 $105 $104 $233 $237 forward $41 $-1 #
edge $-1 $170 -61.262855922116763 $235 61.262855922116763 $162 $238 forward 7 unknown #
coedge $-1 $175 $174 $105 $168 reversed $159 $-1 #
edge $-1 $239 -61.262855922116763 $169 61.262855922116763 $167 $240 forward 7 unknown #
vertex $-1 $107 $241 #
vertex $-1 $181 $242 #
straight-curve $-1 61.262855922116763 0 -15.587837025568236 0 -1 0 I I #
coedge $-1 $161 $163 $108 $173 reversed $101 $-1 #
edge $-1 $176 -40.976394180201552 $179 40.976394180201552 $172 $243 forward 7 unknown #
coedge $-1 $167 $109 $114 $182 forward $159 $-1 #
coedge $-1 $109 $167 $161 $234 reversed $159 $-1 #
vertex $-1 $110 $244 #
straight-curve $-1 0 40.976394180201552 15.587837025568236 -1 0 0 I I #
coedge $-1 $111 $162 $113 $181 reversed $63 $-1 #
vertex $-1 $173 $245 #
straight-curve $-1 0 -40.976394180201552 15.587837025568236 1 0 0 I I #
edge $-1 $116 -15.587837025568236 $170 15.587837025568236 $113 $246 forward 7 unknown #
edge $-1 $117 -15.587837025568236 $169 15.587837025568236 $114 $247 forward 7 unknown #
point $-1 61.262855922116763 -40.976394180201552 15.587837025568236 #
point $-1 61.262855922116763 40.976394180201552 15.587837025568236 #
face $-1 $-1 $199 $16 $-1 $248 reversed single #
loop $-1 $-1 $249 $119 #
plane-surface $-1 0 -57.760480076317421 -10.965717718822926 0 1 0 0 0 1 forward_v I I I I #
coedge $-1 $250 $122 $131 $203 reversed $71 $-1 #
coedge $-1 $122 $250 $123 $191 reversed $71 $-1 #
coedge $-1 $124 $123 $251 $252 forward $45 $-1 #
edge $-1 $195 40.976394180201552 $253 57.760480076317421 $189 $254 forward 7 unknown #
coedge $-1 $255 $128 $124 $193 reversed $199 $-1 #
edge $-1 $256 -57.760480076317421 $194 -40.976394180201552 $192 $257 forward 7 unknown #
vertex $-1 $129 $258 #
vertex $-1 $191 $259 #
straight-curve $-1 0 -40.976394180201552 -15.587837025568236 1 0 0 I I #
straight-curve $-1 61.262855922116763 -40.976394180201552 0 0 0 1 I I #
coedge $-1 $128 $255 $130 $202 reversed $199 $-1 #
loop $-1 $-1 $128 $185 #
straight-curve $-1 -61.262855922116763 -40.976394180201552 0 0 0 -1 I I #
coedge $-1 $131 $130 $260 $261 forward $120 $-1 #
edge $-1 $132 -8.3920429480579344 $262 8.3920429480579344 $198 $263 forward 7 unknown #
edge $-1 $264 -8.3920429480579344 $133 8.3920429480579344 $188 $265 forward 7 unknown #
point $-1 -61.262855922116763 -40.976394180201552 -6.3435984120776165 #
point $-1 61.262855922116763 -40.976394180201552 -6.3435984120776165 #
loop $-1 $-1 $143 $135 #
plane-surface $-1 -61.262855922116763 0 0 1 0 0 0 0 -1 forward_v I I I I #
coedge $-1 $209 $138 $140 $213 reversed $79 $-1 #
coedge $-1 $138 $208 $266 $267 reversed $79 $-1 #
coedge $-1 $146 $141 $138 $211 forward $136 $-1 #
edge $-1 $214 -18.536186923062914 $268 -7.0857527716074529 $210 $269 forward 7 unknown #
coedge $-1 $140 $139 $217 $270 reversed $49 $-1 #
edge $-1 $271 -8.8800565823946346e-015 $214 14.530809619916688 $208 $272 forward 7 unknown #
vertex $-1 $142 $273 #
straight-curve $-1 -49.812421770661309 4.8645734943812684 15.587837025568234 0 1 0 I I #
coedge $-1 $266 $143 $146 $221 reversed $206 $-1 #
coedge $-1 $143 $266 $212 $270 forward $206 $-1 #
vertex $-1 $144 $274 #
straight-curve $-1 -61.262855922116763 2.586683451518617 51.596677506298263 0 0 1 I I #
straight-curve $-1 -61.262855922116756 2.586683451518617 6.6417772251060256 -0.78801074757464917 0 -0.61566148304635926 I I #
edge $-1 $268 -16.871610526006457 $147 -2.586683451518617 $216 $275 forward 7 unknown #
point $-1 -61.262855922116763 2.586683451518617 15.587837025568236 #
point $-1 -49.812421770661302 2.586683451518617 15.587837025568236 #
edge $-1 $276 1 $276 0 $150 $-1 forward 7 unknown #
vertex $-1 $151 $277 #
ellipse-curve $-1 -53.768009001751501 6.6680911870865742 8.8497842593570031 -0.61566148304635926 0 0.78801074757464917 1.5760214951492983 0 1.2313229660927185 1 I I #
point $-1 -53.961617351239745 6.6680911870865742 12.346130091429849 #
edge $-1 $278 1 $278 0 $154 $-1 forward 7 unknown #
vertex $-1 $155 $279 #
ellipse-curve $-1 -53.768009001751501 12.790202790438506 8.8497842593570031 -0.61566148304635926 0 0.78801074757464917 1.5760214951492983 0 1.2313229660927185 1 I I #
point $-1 -53.961617351239745 12.790202790438506 12.346130091429849 #
plane-surface $-1 61.262855922116763 0 0 -1 0 0 0 0 1 forward_v I I I I #
coedge $-1 $163 $161 $165 $237 reversed $101 $-1 #
edge $-1 $176 -15.587837025568236 $239 15.587837025568236 $175 $280 forward 7 unknown #
vertex $-1 $237 $281 #
straight-curve $-1 -61.262855922116763 -40.976394180201552 0 0 0 -1 I I #
edge $-1 $235 -40.976394180201552 $239 40.976394180201552 $233 $282 forward 7 unknown #
straight-curve $-1 0 -40.976394180201552 -15.587837025568236 -1 0 0 I I #
vertex $-1 $168 $283 #
straight-curve $-1 0 40.976394180201552 -15.587837025568236 1 0 0 I I #
point $-1 61.262855922116763 40.976394180201552 -15.587837025568236 #
point $-1 61.262855922116763 -40.976394180201552 -15.587837025568236 #
straight-curve $-1 -61.262855922116763 0 15.587837025568236 0 -1 0 I I #
point $-1 -61.262855922116763 40.976394180201552 15.587837025568236 #
point $-1 -61.262855922116763 -40.976394180201552 15.587837025568236 #
straight-curve $-1 61.262855922116763 -40.976394180201552 0 0 0 -1 I I #
straight-curve $-1 61.262855922116763 40.976394180201552 0 0 0 -1 I I #
plane-surface $-1 -61.262855922116763 0 0 1 0 0 0 0 -1 forward_v I I I I #
coedge $-1 $251 $260 $255 $284 forward $186 $-1 #
coedge $-1 $189 $188 $285 $286 forward $71 $-1 #
coedge $-1 $285 $249 $190 $252 reversed $186 $-1 #
edge $-1 $253 -61.262855922116763 $256 61.262855922116763 $251 $287 forward 7 unknown #
vertex $-1 $286 $288 #
straight-curve $-1 61.262855922116763 0 -15.587837025568236 0 -1 0 I I #
coedge $-1 $198 $192 $249 $284 reversed $199 $-1 #
vertex $-1 $193 $289 #
straight-curve $-1 -61.262855922116763 0 -15.587837025568236 0 1 0 I I #
point $-1 -61.262855922116763 -40.976394180201552 -15.587837025568236 #
point $-1 61.262855922116763 -40.976394180201552 -15.587837025568236 #
coedge $-1 $249 $285 $201 $261 reversed $186 $-1 #
edge $-1 $262 -61.262855922116763 $264 61.262855922116763 $260 $290 forward 7 unknown #
vertex $-1 $202 $291 #
straight-curve $-1 -61.262855922116763 -49.368437128259487 -6.3435984120776165 0 -1 0 I I #
vertex $-1 $203 $292 #
straight-curve $-1 61.262855922116763 -49.368437128259487 -6.3435984120776165 0 1 0 I I #
coedge $-1 $217 $216 $209 $267 forward $206 $-1 #
edge $-1 $268 36.008840480730029 $271 44.954900281192245 $266 $293 forward 7 unknown #
vertex $-1 $221 $294 #
straight-curve $-1 -68.348608693724216 16.871610526006457 15.587837025568234 -1 0 0 I I #
edge $-1 $271 -12.007037031625188 $218 2.2778900428626514 $217 $295 forward 7 unknown #
vertex $-1 $270 $296 #
straight-curve $-1 -61.262855922116756 16.871610526006457 6.6417772251060256 0.78801074757464917 0 0.61566148304635926 I I #
point $-1 -49.812421770661302 16.871610526006457 15.587837025568236 #
point $-1 -61.262855922116763 2.586683451518617 6.6417772251060203 #
straight-curve $-1 -61.262855922116763 0 15.587837025568236 0 -1 0 I I #
vertex $-1 $224 $297 #
point $-1 -52.191987506602203 6.6680911870865742 10.08110722544972 #
vertex $-1 $228 $298 #
point $-1 -52.191987506602203 12.790202790438506 10.08110722544972 #
straight-curve $-1 -61.262855922116763 40.976394180201552 0 0 0 -1 I I #
point $-1 -61.262855922116763 -40.976394180201552 -15.587837025568236 #
straight-curve $-1 -61.262855922116763 0 -15.587837025568236 0 1 0 I I #
point $-1 -61.262855922116763 40.976394180201552 -15.587837025568236 #
edge $-1 $262 -4.6221193067453097 $256 4.6221193067453097 $255 $299 forward 7 unknown #
coedge $-1 $260 $251 $250 $286 reversed $186 $-1 #
edge $-1 $264 -4.6221193067453097 $253 4.6221193067453097 $250 $300 forward 7 unknown #
straight-curve $-1 0 -57.760480076317421 -15.587837025568236 -1 0 0 I I #
point $-1 61.262855922116763 -57.760480076317421 -15.587837025568236 #
point $-1 -61.262855922116763 -57.760480076317421 -15.587837025568236 #
straight-curve $-1 0 -57.760480076317421 -6.3435984120776165 1 0 0 I I #
point $-1 -61.262855922116763 -57.760480076317421 -6.3435984120776165 #
point $-1 61.262855922116763 -57.760480076317421 -6.3435984120776165 #
straight-curve $-1 -61.262855922116763 16.871610526006457 51.596677506298263 0 0 -1 I I #
point $-1 -61.262855922116763 16.871610526006457 15.587837025568236 #
straight-curve $-1 -61.262855922116763 4.8645734943812684 6.6417772251060168 0 -1 0 I I #
point $-1 -61.262855922116763 16.871610526006457 6.6417772251060203 #
point $-1 -52.536686035658782 6.6680911870865742 7.2737627642077047 #
point $-1 -52.536686035658782 12.790202790438506 7.2737627642077047 #
straight-curve $-1 -61.262855922116763 -57.760480076317421 -10.965717718822926 0 0 -1 I I #
straight-curve $-1 61.262855922116763 -57.760480076317421 -10.965717718822926 0 0 -1 I I #
End-of-ACIS-data 