500 0 14 0           
7 Unknown 11 ACIS 5.0 NT 24 Thu Mar 25 16:12:42 1999 
-1 9.9999999999999995e-007 1e-010 
body $-1 $14 $-1 $15 #
body $-1 $16 $-1 $17 #
body $-1 $18 $-1 $19 #
body $-1 $20 $-1 $21 #
body $-1 $22 $-1 $23 #
body $-1 $24 $-1 $25 #
body $-1 $26 $-1 $27 #
body $-1 $28 $-1 $29 #
body $-1 $30 $-1 $31 #
body $-1 $32 $-1 $33 #
body $-1 $34 $-1 $35 #
body $-1 $36 $-1 $37 #
body $-1 $38 $-1 $39 #
body $-1 $40 $-1 $41 #
lump $-1 $-1 $42 $0 #
transform $-1 1 0 0 0 1 0 0 0 1 51.180761131626333 27.515653131835155 10.715880294666842 1 rotate no_reflect no_shear #
lump $-1 $-1 $43 $1 #
transform $-1 1 0 0 0 1 0 0 0 1 51.180761131626333 27.515653131835155 10.715880294666842 1 rotate no_reflect no_shear #
lump $-1 $-1 $44 $2 #
transform $-1 1 0 0 0 1 0 0 0 1 51.180761131626333 27.515653131835155 10.715880294666842 1 rotate no_reflect no_shear #
lump $-1 $-1 $45 $3 #
transform $-1 1 0 0 0 1 0 0 0 1 51.180761131626333 27.515653131835155 10.715880294666842 1 rotate no_reflect no_shear #
lump $-1 $-1 $46 $4 #
transform $-1 1 0 0 0 1 0 0 0 1 51.180761131626333 27.515653131835155 10.715880294666842 1 rotate no_reflect no_shear #
lump $-1 $-1 $47 $5 #
transform $-1 1 0 0 0 1 0 0 0 1 51.180761131626333 27.515653131835155 10.715880294666842 1 rotate no_reflect no_shear #
lump $-1 $-1 $48 $6 #
transform $-1 1 0 0 0 1 0 0 0 1 51.180761131626333 27.515653131835155 10.715880294666842 1 rotate no_reflect no_shear #
lump $-1 $-1 $49 $7 #
transform $-1 1 0 0 0 1 0 0 0 1 51.180761131626333 27.515653131835155 10.715880294666842 1 rotate no_reflect no_shear #
lump $-1 $-1 $50 $8 #
transform $-1 1 0 0 0 1 0 0 0 1 51.180761131626333 27.515653131835155 10.715880294666842 1 rotate no_reflect no_shear #
lump $-1 $-1 $51 $9 #
transform $-1 1 0 0 0 1 0 0 0 1 51.180761131626333 27.515653131835155 10.715880294666842 1 rotate no_reflect no_shear #
lump $-1 $-1 $52 $10 #
transform $-1 1 0 0 0 1 0 0 0 1 51.180761131626333 27.515653131835155 10.715880294666842 1 rotate no_reflect no_shear #
lump $-1 $-1 $53 $11 #
transform $-1 1 0 0 0 1 0 0 0 1 51.180761131626333 27.515653131835155 10.715880294666842 1 rotate no_reflect no_shear #
lump $-1 $-1 $54 $12 #
transform $-1 1 0 0 0 1 0 0 0 1 51.180761131626333 27.515653131835155 10.715880294666842 1 rotate no_reflect no_shear #
lump $-1 $-1 $55 $13 #
transform $-1 1 0 0 0 1 0 0 0 1 51.180761131626333 27.515653131835155 10.715880294666842 1 rotate no_reflect no_shear #
shell $-1 $-1 $-1 $56 $-1 $14 #
shell $-1 $-1 $-1 $57 $-1 $16 #
shell $-1 $-1 $-1 $58 $-1 $18 #
shell $-1 $-1 $-1 $59 $-1 $20 #
shell $-1 $-1 $-1 $60 $-1 $22 #
shell $-1 $-1 $-1 $61 $-1 $24 #
shell $-1 $-1 $-1 $62 $-1 $26 #
shell $-1 $-1 $-1 $63 $-1 $28 #
shell $-1 $-1 $-1 $64 $-1 $30 #
shell $-1 $-1 $-1 $65 $-1 $32 #
shell $-1 $-1 $-1 $66 $-1 $34 #
shell $-1 $-1 $-1 $67 $-1 $36 #
shell $-1 $-1 $-1 $68 $-1 $38 #
shell $-1 $-1 $-1 $69 $-1 $40 #
face $-1 $70 $71 $42 $-1 $72 forward single #
face $-1 $73 $74 $43 $-1 $75 forward single #
face $-1 $76 $77 $44 $-1 $78 forward single #
face $-1 $79 $80 $45 $-1 $81 reversed single #
face $-1 $82 $83 $46 $-1 $84 forward single #
face $-1 $85 $86 $47 $-1 $87 forward single #
face $-1 $88 $89 $48 $-1 $90 reversed single #
face $-1 $91 $92 $49 $-1 $93 forward single #
face $-1 $94 $95 $50 $-1 $96 forward single #
face $-1 $97 $98 $51 $-1 $99 reversed single #
face $-1 $100 $101 $52 $-1 $102 forward single #
face $-1 $103 $104 $53 $-1 $105 forward single #
face $-1 $106 $107 $54 $-1 $108 reversed single #
face $-1 $109 $110 $55 $-1 $111 forward single #
face $-1 $112 $113 $42 $-1 $114 reversed single #
loop $-1 $-1 $115 $56 #
plane-surface $-1 0 0 10.715880294666842 0 0 1 1 0 0 forward_v I I I I #
face $-1 $116 $117 $43 $-1 $118 reversed single #
loop $-1 $-1 $119 $57 #
plane-surface $-1 0 -20.471015700949142 -7.7158802946668423 0 0 1 1 0 0 forward_v I I I I #
face $-1 $120 $121 $44 $-1 $122 reversed single #
loop $-1 $-1 $123 $58 #
plane-surface $-1 0 20.471015700949142 -7.7158802946668423 0 0 1 1 0 0 forward_v I I I I #
face $-1 $124 $125 $45 $-1 $126 reversed single #
loop $-1 $-1 $127 $59 #
plane-surface $-1 38.564005519428157 -7.623759333634422 147.41998291678277 0 -1 0 -0.64278761758704617 0 -0.76604443648966558 forward_v I I I I #
face $-1 $128 $129 $46 $-1 $130 forward single #
loop $-1 $131 $132 $60 #
cone-surface $-1 46.096517875809468 -11.76848714536921 6.2340323402462055 -0.64278761758704617 0 -0.76604443648966558 0.38302221824483279 0 -0.32139380879352308 1 I I 0 1 0.5 forward I I I I #
face $-1 $133 $134 $47 $-1 $135 forward single #
loop $-1 $136 $137 $61 #
cone-surface $-1 46.096517875809468 -9.2816504583283361 6.2340323402462055 -0.64278761758704617 0 -0.76604443648966558 0.38302221824483279 0 -0.32139380879352308 1 I I 0 1 0.5 forward I I I I #
face $-1 $138 $139 $48 $-1 $140 reversed single #
loop $-1 $-1 $141 $62 #
plane-surface $-1 38.564005519428157 2.901309468214353 147.41998291678277 0 -1 0 -0.64278761758704617 0 -0.76604443648966558 forward_v I I I I #
face $-1 $142 $143 $49 $-1 $144 forward single #
loop $-1 $145 $146 $63 #
cone-surface $-1 46.096517875809468 -1.2434183435204353 6.2340323402462055 -0.64278761758704617 0 -0.76604443648966558 0.38302221824483279 0 -0.32139380879352308 1 I I 0 1 0.5 forward I I I I #
face $-1 $147 $148 $50 $-1 $149 forward single #
loop $-1 $150 $151 $64 #
cone-surface $-1 46.096517875809468 1.2434183435204389 6.2340323402462055 -0.64278761758704617 0 -0.76604443648966558 0.38302221824483279 0 -0.32139380879352308 1 I I 0 1 0.5 forward I I I I #
face $-1 $152 $153 $51 $-1 $154 reversed single #
loop $-1 $-1 $155 $65 #
plane-surface $-1 38.564005519428157 13.426378270063125 147.41998291678277 0 -1 0 -0.64278761758704617 0 -0.76604443648966558 forward_v I I I I #
face $-1 $156 $157 $52 $-1 $158 forward single #
loop $-1 $159 $160 $66 #
cone-surface $-1 46.096517875809468 9.2816504583283397 6.2340323402462055 -0.64278761758704617 0 -0.76604443648966558 0.38302221824483279 0 -0.32139380879352308 1 I I 0 1 0.5 forward I I I I #
face $-1 $161 $162 $53 $-1 $163 forward single #
loop $-1 $164 $165 $67 #
cone-surface $-1 46.096517875809468 11.768487145369217 6.2340323402462055 -0.64278761758704617 0 -0.76604443648966558 0.38302221824483279 0 -0.32139380879352308 1 I I 0 1 0.5 forward I I I I #
face $-1 $166 $167 $54 $-1 $168 reversed single #
loop $-1 $-1 $169 $68 #
plane-surface $-1 -138.92171166776802 1.7330312868501991 56.242818438283621 0 1 0 -0.85716730853699208 0 0.51503806187062418 forward_v I I I I #
face $-1 $170 $171 $55 $-1 $172 forward single #
loop $-1 $173 $174 $69 #
cone-surface $-1 -48.437596705426692 5.1556531447037521 6.7695323777268346 0.85716730853699208 0 -0.51503806187062418 0.51503806187062418 0 0.85716730853699208 1 I I 0 1 1 forward I I I I #
face $-1 $175 $176 $42 $-1 $177 reversed single #
loop $-1 $-1 $178 $70 #
plane-surface $-1 0 0 -10.715880294666842 0 0 1 1 0 0 forward_v I I I I #
coedge $-1 $179 $180 $181 $182 forward $71 $-1 #
face $-1 $183 $184 $43 $-1 $185 reversed single #
loop $-1 $-1 $186 $73 #
plane-surface $-1 0 -13.426378270063129 -9.2158802946668423 0 -1 0 0 0 -1 forward_v I I I I #
coedge $-1 $187 $188 $189 $190 reversed $74 $-1 #
face $-1 $191 $192 $44 $-1 $193 reversed single #
loop $-1 $-1 $194 $76 #
plane-surface $-1 0 13.426378270063129 -9.2158802946668423 0 1 0 0 0 1 forward_v I I I I #
coedge $-1 $195 $196 $197 $198 reversed $77 $-1 #
face $-1 $199 $200 $45 $-1 $201 reversed single #
loop $-1 $-1 $202 $79 #
plane-surface $-1 -27.232713508751409 -10.525068801848775 69.006508276405029 0.64278761758704617 0 0.76604443648966558 0.76604443648966558 0 -0.64278761758704617 forward_v I I I I #
coedge $-1 $203 $204 $205 $206 reversed $80 $-1 #
face $-1 $-1 $207 $46 $-1 $208 forward single #
loop $-1 $209 $210 $82 #
cone-surface $-1 45.324283107383089 -11.76848714536921 5.3137187999238371 -0.64278761758704617 0 -0.76604443648966558 0.1915111091224164 0 -0.16069690439676154 1 I I -0.70710678118654746 0.70710678118654746 0.25 forward I I I I #
loop $-1 $-1 $211 $60 #
coedge $-1 $132 $132 $212 $213 reversed $83 $-1 #
face $-1 $-1 $214 $47 $-1 $215 forward single #
loop $-1 $216 $217 $85 #
cone-surface $-1 45.324283107383089 -9.2816504583283361 5.3137187999238371 -0.64278761758704617 0 -0.76604443648966558 0.1915111091224164 0 -0.16069690439676154 1 I I -0.70710678118654746 0.70710678118654746 0.25 forward I I I I #
loop $-1 $-1 $218 $61 #
coedge $-1 $137 $137 $219 $220 reversed $86 $-1 #
face $-1 $221 $222 $48 $-1 $223 reversed single #
loop $-1 $-1 $224 $88 #
plane-surface $-1 -27.232713508751409 0 69.006508276405029 0.64278761758704617 0 0.76604443648966558 0.76604443648966558 0 -0.64278761758704617 forward_v I I I I #
coedge $-1 $225 $226 $227 $228 reversed $89 $-1 #
face $-1 $-1 $229 $49 $-1 $230 forward single #
loop $-1 $231 $232 $91 #
cone-surface $-1 45.324283107383089 -1.2434183435204353 5.3137187999238371 -0.64278761758704617 0 -0.76604443648966558 0.1915111091224164 0 -0.16069690439676154 1 I I -0.70710678118654746 0.70710678118654746 0.25 forward I I I I #
loop $-1 $-1 $233 $63 #
coedge $-1 $146 $146 $234 $235 reversed $92 $-1 #
face $-1 $-1 $236 $50 $-1 $237 forward single #
loop $-1 $238 $239 $94 #
cone-surface $-1 45.324283107383089 1.2434183435204389 5.3137187999238371 -0.64278761758704617 0 -0.76604443648966558 0.1915111091224164 0 -0.16069690439676154 1 I I -0.70710678118654746 0.70710678118654746 0.25 forward I I I I #
loop $-1 $-1 $240 $64 #
coedge $-1 $151 $151 $241 $242 reversed $95 $-1 #
face $-1 $243 $244 $51 $-1 $245 reversed single #
loop $-1 $-1 $246 $97 #
plane-surface $-1 -27.232713508751409 10.525068801848771 69.006508276405029 0.64278761758704617 0 0.76604443648966558 0.76604443648966558 0 -0.64278761758704617 forward_v I I I I #
coedge $-1 $247 $248 $249 $250 reversed $98 $-1 #
face $-1 $-1 $251 $52 $-1 $252 forward single #
loop $-1 $253 $254 $100 #
cone-surface $-1 45.324283107383089 9.2816504583283397 5.3137187999238371 -0.64278761758704617 0 -0.76604443648966558 0.1915111091224164 0 -0.16069690439676154 1 I I -0.70710678118654746 0.70710678118654746 0.25 forward I I I I #
loop $-1 $-1 $255 $66 #
coedge $-1 $160 $160 $256 $257 reversed $101 $-1 #
face $-1 $-1 $258 $53 $-1 $259 forward single #
loop $-1 $260 $261 $103 #
cone-surface $-1 45.324283107383089 11.768487145369217 5.3137187999238371 -0.64278761758704617 0 -0.76604443648966558 0.1915111091224164 0 -0.16069690439676154 1 I I -0.70710678118654746 0.70710678118654746 0.25 forward I I I I #
loop $-1 $-1 $262 $67 #
coedge $-1 $165 $165 $263 $264 reversed $104 $-1 #
face $-1 $265 $266 $54 $-1 $267 reversed single #
loop $-1 $-1 $268 $106 #
plane-surface $-1 -51.18076113162634 5.155653144703745 3.5227384016912211 -0.85716730853699208 0 0.51503806187062418 0.51503806187062418 0 0.85716730853699208 forward_v I I I I #
coedge $-1 $269 $270 $271 $272 reversed $107 $-1 #
face $-1 $-1 $273 $55 $-1 $274 forward single #
loop $-1 $275 $276 $109 #
cone-surface $-1 -47.426886395777061 5.1556531447037521 6.1622363763393295 0.85716730853699208 0 -0.51503806187062418 0.25751903093531209 0 0.42858365426849604 1 I I -0.70710678118654746 0.70710678118654746 0.5 forward I I I I #
loop $-1 $-1 $277 $69 #
coedge $-1 $174 $174 $278 $279 reversed $110 $-1 #
face $-1 $280 $281 $42 $-1 $282 reversed single #
loop $-1 $-1 $283 $112 #
plane-surface $-1 0 -27.515653131835155 0 0 1 0 0 0 1 forward_v I I I I #
coedge $-1 $284 $285 $286 $287 forward $113 $-1 #
coedge $-1 $288 $115 $289 $290 forward $71 $-1 #
coedge $-1 $115 $288 $291 $292 forward $71 $-1 #
coedge $-1 $293 $294 $115 $182 reversed $295 $-1 #
edge $-1 $296 -27.515653131835155 $297 27.515653131835155 $181 $298 forward 7 unknown #
face $-1 $299 $300 $43 $-1 $301 reversed single #
loop $-1 $-1 $302 $116 #
plane-surface $-1 0 0 -10.715880294666842 0 0 1 1 0 0 forward_v I I I I #
coedge $-1 $303 $304 $305 $306 reversed $117 $-1 #
coedge $-1 $307 $119 $304 $308 forward $74 $-1 #
coedge $-1 $119 $307 $309 $310 reversed $74 $-1 #
coedge $-1 $311 $305 $119 $190 forward $300 $-1 #
edge $-1 $312 3.190870419588558 $313 17.280145281360582 $189 $314 forward 7 unknown #
face $-1 $315 $316 $44 $-1 $317 reversed single #
loop $-1 $-1 $197 $120 #
plane-surface $-1 51.180761131626333 0 0 -1 0 0 0 0 1 forward_v I I I I #
coedge $-1 $318 $319 $320 $321 reversed $121 $-1 #
coedge $-1 $322 $123 $323 $324 reversed $77 $-1 #
coedge $-1 $123 $322 $319 $325 forward $77 $-1 #
coedge $-1 $326 $327 $123 $198 forward $192 $-1 #
edge $-1 $328 -17.280145281360582 $329 -3.190870419588558 $197 $330 forward 7 unknown #
face $-1 $331 $332 $45 $-1 $333 forward single #
loop $-1 $-1 $334 $124 #
plane-surface $-1 38.564005519428157 -13.426378270063129 147.41998291678277 0 1 0 0.64278761758704617 0 0.76604443648966558 forward_v I I I I #
coedge $-1 $335 $336 $337 $338 reversed $125 $-1 #
coedge $-1 $204 $127 $339 $340 reversed $80 $-1 #
coedge $-1 $127 $203 $335 $341 reversed $80 $-1 #
coedge $-1 $337 $342 $127 $206 forward $332 $-1 #
edge $-1 $343 -31.898758371912255 $344 -22.953347588337767 $205 $345 forward 7 unknown #
loop $-1 $-1 $212 $128 #
plane-surface $-1 -27.232713508751409 -10.525068801848775 69.006508276405029 0.64278761758704617 0 0.76604443648966558 0.76604443648966558 0 -0.64278761758704617 forward_v I I I I #
loop $-1 $-1 $346 $82 #
coedge $-1 $210 $210 $211 $347 reversed $129 $-1 #
coedge $-1 $211 $211 $210 $347 forward $131 $-1 #
coedge $-1 $212 $212 $132 $213 forward $207 $-1 #
edge $-1 $348 0 $348 6.2831853071796004 $212 $349 forward 7 unknown #
loop $-1 $-1 $219 $133 #
plane-surface $-1 -27.232713508751409 -10.525068801848775 69.006508276405029 0.64278761758704617 0 0.76604443648966558 0.76604443648966558 0 -0.64278761758704617 forward_v I I I I #
loop $-1 $-1 $350 $85 #
coedge $-1 $217 $217 $218 $351 reversed $134 $-1 #
coedge $-1 $218 $218 $217 $351 forward $136 $-1 #
coedge $-1 $219 $219 $137 $220 forward $214 $-1 #
edge $-1 $352 0 $352 6.2831853071796004 $219 $353 forward 7 unknown #
face $-1 $354 $355 $48 $-1 $356 reversed single #
loop $-1 $-1 $357 $138 #
plane-surface $-1 38.564005519428157 -2.901309468214353 147.41998291678277 0 1 0 0.64278761758704617 0 0.76604443648966558 forward_v I I I I #
coedge $-1 $358 $359 $360 $361 reversed $139 $-1 #
coedge $-1 $226 $141 $362 $363 reversed $89 $-1 #
coedge $-1 $141 $225 $358 $364 reversed $89 $-1 #
coedge $-1 $360 $365 $141 $228 forward $366 $-1 #
edge $-1 $367 -31.898758371912255 $368 -22.953347588337767 $227 $369 forward 7 unknown #
loop $-1 $-1 $234 $142 #
plane-surface $-1 -27.232713508751409 0 69.006508276405029 0.64278761758704617 0 0.76604443648966558 0.76604443648966558 0 -0.64278761758704617 forward_v I I I I #
loop $-1 $-1 $370 $91 #
coedge $-1 $232 $232 $233 $371 reversed $143 $-1 #
coedge $-1 $233 $233 $232 $371 forward $145 $-1 #
coedge $-1 $234 $234 $146 $235 forward $229 $-1 #
edge $-1 $372 0 $372 6.2831853071796004 $234 $373 forward 7 unknown #
loop $-1 $-1 $241 $147 #
plane-surface $-1 -27.232713508751409 0 69.006508276405029 0.64278761758704617 0 0.76604443648966558 0.76604443648966558 0 -0.64278761758704617 forward_v I I I I #
loop $-1 $-1 $374 $94 #
coedge $-1 $239 $239 $240 $375 reversed $148 $-1 #
coedge $-1 $240 $240 $239 $375 forward $150 $-1 #
coedge $-1 $241 $241 $151 $242 forward $236 $-1 #
edge $-1 $376 0 $376 6.2831853071796004 $241 $377 forward 7 unknown #
face $-1 $378 $379 $51 $-1 $380 reversed single #
loop $-1 $-1 $381 $152 #
plane-surface $-1 38.564005519428157 7.6237593336344185 147.41998291678277 0 1 0 0.64278761758704617 0 0.76604443648966558 forward_v I I I I #
coedge $-1 $382 $383 $384 $385 reversed $153 $-1 #
coedge $-1 $248 $155 $386 $387 reversed $98 $-1 #
coedge $-1 $155 $247 $382 $388 reversed $98 $-1 #
coedge $-1 $384 $389 $155 $250 forward $390 $-1 #
edge $-1 $391 -31.898758371912255 $392 -22.953347588337767 $249 $393 forward 7 unknown #
loop $-1 $-1 $256 $156 #
plane-surface $-1 -27.232713508751409 10.525068801848771 69.006508276405029 0.64278761758704617 0 0.76604443648966558 0.76604443648966558 0 -0.64278761758704617 forward_v I I I I #
loop $-1 $-1 $394 $100 #
coedge $-1 $254 $254 $255 $395 reversed $157 $-1 #
coedge $-1 $255 $255 $254 $395 forward $159 $-1 #
coedge $-1 $256 $256 $160 $257 forward $251 $-1 #
edge $-1 $396 0 $396 6.2831853071796004 $256 $397 forward 7 unknown #
loop $-1 $-1 $263 $161 #
plane-surface $-1 -27.232713508751409 10.525068801848771 69.006508276405029 0.64278761758704617 0 0.76604443648966558 0.76604443648966558 0 -0.64278761758704617 forward_v I I I I #
loop $-1 $-1 $398 $103 #
coedge $-1 $261 $261 $262 $399 reversed $162 $-1 #
coedge $-1 $262 $262 $261 $399 forward $164 $-1 #
coedge $-1 $263 $263 $165 $264 forward $258 $-1 #
edge $-1 $400 0 $400 6.2831853071796004 $263 $401 forward 7 unknown #
face $-1 $402 $403 $54 $-1 $404 reversed single #
loop $-1 $-1 $405 $166 #
plane-surface $-1 -138.92171166776802 8.5782750025572909 56.242818438283621 0 -1 0 0.85716730853699208 0 -0.51503806187062418 forward_v I I I I #
coedge $-1 $406 $407 $408 $409 reversed $167 $-1 #
coedge $-1 $270 $169 $410 $411 reversed $107 $-1 #
coedge $-1 $169 $269 $406 $412 reversed $107 $-1 #
coedge $-1 $408 $413 $169 $272 forward $414 $-1 #
edge $-1 $415 18.280094702257678 $416 22.602170243894676 $271 $417 forward 7 unknown #
loop $-1 $-1 $278 $170 #
plane-surface $-1 -51.18076113162634 5.155653144703745 3.5227384016912211 -0.85716730853699208 0 0.51503806187062418 0.51503806187062418 0 0.85716730853699208 forward_v I I I I #
loop $-1 $-1 $418 $109 #
coedge $-1 $276 $276 $277 $419 reversed $171 $-1 #
coedge $-1 $277 $277 $276 $419 forward $173 $-1 #
coedge $-1 $278 $278 $174 $279 forward $273 $-1 #
edge $-1 $420 0 $420 6.2831853071796004 $278 $421 forward 7 unknown #
face $-1 $422 $423 $42 $-1 $424 reversed single #
loop $-1 $-1 $425 $175 #
plane-surface $-1 -51.180761131626333 0 0 1 0 0 0 0 -1 forward_v I I I I #
coedge $-1 $426 $291 $427 $428 forward $176 $-1 #
coedge $-1 $429 $178 $426 $430 forward $113 $-1 #
coedge $-1 $178 $429 $431 $432 forward $113 $-1 #
coedge $-1 $294 $293 $178 $287 reversed $295 $-1 #
edge $-1 $433 -27.515653131835155 $434 27.515653131835155 $286 $435 forward 7 unknown #
coedge $-1 $180 $179 $436 $437 forward $71 $-1 #
coedge $-1 $438 $439 $179 $290 reversed $423 $-1 #
edge $-1 $297 -51.180761131626333 $440 51.180761131626333 $289 $441 forward 7 unknown #
coedge $-1 $283 $442 $180 $292 reversed $176 $-1 #
edge $-1 $443 -51.180761131626333 $296 51.180761131626333 $291 $444 forward 7 unknown #
coedge $-1 $286 $181 $442 $445 forward $295 $-1 #
coedge $-1 $181 $286 $438 $446 reversed $295 $-1 #
loop $-1 $-1 $293 $422 #
vertex $-1 $182 $447 #
vertex $-1 $182 $448 #
straight-curve $-1 51.180761131626333 0 10.715880294666842 0 1 0 I I #
face $-1 $449 $450 $43 $-1 $451 reversed single #
loop $-1 $-1 $305 $183 #
plane-surface $-1 51.180761131626333 0 0 -1 0 0 0 0 1 forward_v I I I I #
coedge $-1 $452 $453 $303 $454 forward $184 $-1 #
coedge $-1 $455 $186 $302 $454 reversed $117 $-1 #
coedge $-1 $186 $455 $187 $308 reversed $117 $-1 #
coedge $-1 $189 $456 $186 $306 forward $300 $-1 #
edge $-1 $457 -6.1079401473334212 $312 -3.1079401473334212 $305 $458 forward 7 unknown #
coedge $-1 $188 $187 $459 $460 reversed $74 $-1 #
edge $-1 $312 -51.180761131626333 $461 51.180761131626333 $304 $462 forward 7 unknown #
coedge $-1 $463 $464 $188 $310 forward $450 $-1 #
edge $-1 $313 -51.180761131626333 $465 51.180761131626333 $309 $466 forward 7 unknown #
coedge $-1 $456 $189 $464 $467 forward $300 $-1 #
vertex $-1 $190 $468 #
vertex $-1 $467 $469 #
straight-curve $-1 51.180761131626333 -10.235507850474571 -7.7158802946668423 0 -1 0 I I #
face $-1 $470 $471 $44 $-1 $472 reversed single #
loop $-1 $-1 $473 $191 #
plane-surface $-1 0 0 -10.715880294666842 0 0 1 1 0 0 forward_v I I I I #
coedge $-1 $474 $194 $473 $475 reversed $121 $-1 #
coedge $-1 $194 $474 $196 $325 reversed $121 $-1 #
coedge $-1 $476 $477 $194 $321 forward $471 $-1 #
edge $-1 $478 -6.1079401473334212 $479 -3.1079401473334212 $320 $480 forward 7 unknown #
coedge $-1 $196 $195 $476 $481 reversed $77 $-1 #
coedge $-1 $482 $483 $195 $324 forward $484 $-1 #
edge $-1 $485 -51.180761131626333 $328 51.180761131626333 $323 $486 forward 7 unknown #
edge $-1 $479 -51.180761131626333 $329 51.180761131626333 $319 $487 forward 7 unknown #
coedge $-1 $488 $197 $474 $489 forward $192 $-1 #
coedge $-1 $197 $488 $482 $490 reversed $192 $-1 #
vertex $-1 $490 $491 #
vertex $-1 $198 $492 #
straight-curve $-1 51.180761131626333 10.235507850474571 -7.7158802946668423 0 -1 0 I I #
face $-1 $-1 $493 $45 $-1 $494 reversed single #
loop $-1 $-1 $205 $199 #
plane-surface $-1 0 0 10.715880294666842 0 0 1 1 0 0 forward_v I I I I #
coedge $-1 $495 $496 $497 $498 reversed $200 $-1 #
coedge $-1 $499 $202 $204 $341 forward $125 $-1 #
coedge $-1 $202 $499 $495 $500 forward $125 $-1 #
coedge $-1 $497 $205 $202 $338 forward $332 $-1 #
edge $-1 $344 2.3612249327100345 $501 8.1638438691387414 $337 $502 forward 7 unknown #
coedge $-1 $503 $504 $203 $340 forward $493 $-1 #
edge $-1 $505 -70.500202210165924 $343 -62.99411116372454 $339 $506 forward 7 unknown #
edge $-1 $344 90.68411771924724 $505 102.36152226325265 $204 $507 forward 7 unknown #
coedge $-1 $205 $497 $503 $508 forward $332 $-1 #
vertex $-1 $340 $509 #
vertex $-1 $206 $510 #
straight-curve $-1 19.282002759714079 -7.623759333634422 10.715880294666846 -1 0 0 I I #
coedge $-1 $346 $346 $-1 $511 reversed $209 $-1 #
edge $-1 $512 0 $512 6.2831853071796004 $210 $513 forward 7 unknown #
vertex $-1 $213 $514 #
ellipse-curve $-1 46.708055739839097 -11.76848714536921 6.9628347714461638 0.64278761758704617 0 0.76604443648966558 0.38302221824483279 0 -0.32139380879352308 1 I I #
coedge $-1 $350 $350 $-1 $515 reversed $216 $-1 #
edge $-1 $516 0 $516 6.2831853071796004 $217 $517 forward 7 unknown #
vertex $-1 $220 $518 #
ellipse-curve $-1 46.708055739839097 -9.2816504583283361 6.9628347714461638 0.64278761758704617 0 0.76604443648966558 0.38302221824483279 0 -0.32139380879352308 1 I I #
face $-1 $-1 $366 $48 $-1 $519 forward single #
loop $-1 $-1 $520 $221 #
plane-surface $-1 51.180761131626333 0 0 -1 0 0 0 0 1 forward_v I I I I #
coedge $-1 $521 $522 $523 $524 reversed $222 $-1 #
coedge $-1 $525 $224 $226 $364 forward $139 $-1 #
coedge $-1 $224 $525 $521 $526 forward $139 $-1 #
coedge $-1 $523 $227 $224 $361 forward $366 $-1 #
edge $-1 $368 -2.901309468214353 $527 2.901309468214353 $360 $528 forward 7 unknown #
coedge $-1 $529 $530 $225 $363 forward $355 $-1 #
edge $-1 $531 -70.500202210165924 $367 -62.99411116372454 $362 $532 forward 7 unknown #
edge $-1 $368 90.68411771924724 $531 102.36152226325265 $226 $533 forward 7 unknown #
coedge $-1 $227 $523 $529 $534 forward $366 $-1 #
loop $-1 $-1 $523 $354 #
vertex $-1 $363 $535 #
vertex $-1 $228 $536 #
straight-curve $-1 19.282002759714079 2.901309468214353 10.715880294666846 -1 0 0 I I #
coedge $-1 $370 $370 $-1 $537 reversed $231 $-1 #
edge $-1 $538 0 $538 6.2831853071796004 $232 $539 forward 7 unknown #
vertex $-1 $235 $540 #
ellipse-curve $-1 46.708055739839097 -1.2434183435204353 6.9628347714461638 0.64278761758704617 0 0.76604443648966558 0.38302221824483279 0 -0.32139380879352308 1 I I #
coedge $-1 $374 $374 $-1 $541 reversed $238 $-1 #
edge $-1 $542 0 $542 6.2831853071796004 $239 $543 forward 7 unknown #
vertex $-1 $242 $544 #
ellipse-curve $-1 46.708055739839097 1.2434183435204389 6.9628347714461638 0.64278761758704617 0 0.76604443648966558 0.38302221824483279 0 -0.32139380879352308 1 I I #
face $-1 $-1 $390 $51 $-1 $545 forward single #
loop $-1 $-1 $546 $243 #
plane-surface $-1 51.180761131626333 0 0 -1 0 0 0 0 1 forward_v I I I I #
coedge $-1 $547 $548 $549 $550 reversed $244 $-1 #
coedge $-1 $551 $246 $248 $388 forward $153 $-1 #
coedge $-1 $246 $551 $547 $552 forward $153 $-1 #
coedge $-1 $549 $249 $246 $385 forward $390 $-1 #
edge $-1 $392 -8.1638438691387396 $553 -2.3612249327100328 $384 $554 forward 7 unknown #
coedge $-1 $555 $556 $247 $387 forward $379 $-1 #
edge $-1 $557 -70.500202210165924 $391 -62.99411116372454 $386 $558 forward 7 unknown #
edge $-1 $392 90.68411771924724 $557 102.36152226325265 $248 $559 forward 7 unknown #
coedge $-1 $249 $549 $555 $560 forward $390 $-1 #
loop $-1 $-1 $549 $378 #
vertex $-1 $387 $561 #
vertex $-1 $250 $562 #
straight-curve $-1 19.282002759714079 13.426378270063125 10.715880294666846 -1 0 0 I I #
coedge $-1 $394 $394 $-1 $563 reversed $253 $-1 #
edge $-1 $564 0 $564 6.2831853071796004 $254 $565 forward 7 unknown #
vertex $-1 $257 $566 #
ellipse-curve $-1 46.708055739839097 9.2816504583283397 6.9628347714461638 0.64278761758704617 0 0.76604443648966558 0.38302221824483279 0 -0.32139380879352308 1 I I #
coedge $-1 $398 $398 $-1 $567 reversed $260 $-1 #
edge $-1 $568 0 $568 6.2831853071796004 $261 $569 forward 7 unknown #
vertex $-1 $264 $570 #
ellipse-curve $-1 46.708055739839097 11.768487145369217 6.9628347714461638 0.64278761758704617 0 0.76604443648966558 0.38302221824483279 0 -0.32139380879352308 1 I I #
face $-1 $-1 $414 $54 $-1 $571 forward single #
loop $-1 $-1 $572 $265 #
plane-surface $-1 -51.180761131626333 0 0 1 0 0 0 0 -1 forward_v I I I I #
coedge $-1 $573 $574 $575 $576 reversed $266 $-1 #
coedge $-1 $577 $268 $270 $412 forward $167 $-1 #
coedge $-1 $268 $577 $573 $578 forward $167 $-1 #
coedge $-1 $575 $271 $268 $409 forward $414 $-1 #
edge $-1 $416 -0.84479528550167338 $579 6.0004484302054184 $408 $580 forward 7 unknown #
coedge $-1 $581 $582 $269 $411 forward $403 $-1 #
edge $-1 $583 -24.598670817450579 $415 -17.405528924474968 $410 $584 forward 7 unknown #
edge $-1 $416 -8.391759486549752 $583 -1.393735185947377e-014 $270 $585 forward 7 unknown #
coedge $-1 $271 $575 $581 $586 forward $414 $-1 #
loop $-1 $-1 $575 $402 #
vertex $-1 $411 $587 #
vertex $-1 $272 $588 #
straight-curve $-1 -69.460855833884011 1.7330312868501991 10.715880294666842 1 0 0 I I #
coedge $-1 $418 $418 $-1 $589 reversed $275 $-1 #
edge $-1 $590 0 $590 6.2831853071796004 $276 $591 forward 7 unknown #
vertex $-1 $279 $592 #
ellipse-curve $-1 -49.019723360807838 5.1556531447037521 7.1193093481790317 -0.85716730853699208 0 0.51503806187062418 0.51503806187062418 0 0.85716730853699208 1 I I #
face $-1 $-1 $295 $42 $-1 $593 reversed single #
loop $-1 $-1 $438 $280 #
plane-surface $-1 0 27.515653131835155 0 0 -1 0 0 0 -1 forward_v I I I I #
coedge $-1 $594 $436 $439 $595 forward $281 $-1 #
coedge $-1 $442 $283 $284 $430 reversed $176 $-1 #
coedge $-1 $436 $594 $283 $428 reversed $281 $-1 #
edge $-1 $443 -10.715880294666842 $596 10.715880294666842 $427 $597 forward 7 unknown #
coedge $-1 $285 $284 $594 $598 forward $113 $-1 #
edge $-1 $434 -51.180761131626333 $596 51.180761131626333 $426 $599 forward 7 unknown #
coedge $-1 $439 $438 $285 $432 reversed $423 $-1 #
edge $-1 $600 -51.180761131626333 $433 51.180761131626333 $431 $601 forward 7 unknown #
vertex $-1 $287 $602 #
vertex $-1 $445 $603 #
straight-curve $-1 51.180761131626333 0 -10.715880294666842 0 -1 0 I I #
coedge $-1 $425 $427 $288 $437 reversed $281 $-1 #
edge $-1 $440 -27.515653131835155 $443 27.515653131835155 $436 $604 forward 7 unknown #
coedge $-1 $431 $289 $294 $446 forward $423 $-1 #
coedge $-1 $289 $431 $425 $595 reversed $423 $-1 #
vertex $-1 $290 $605 #
straight-curve $-1 0 27.515653131835155 10.715880294666842 -1 0 0 I I #
coedge $-1 $291 $426 $293 $445 reversed $176 $-1 #
vertex $-1 $437 $606 #
straight-curve $-1 0 -27.515653131835155 10.715880294666842 1 0 0 I I #
edge $-1 $296 -10.715880294666842 $434 10.715880294666842 $293 $607 forward 7 unknown #
edge $-1 $297 -10.715880294666842 $433 10.715880294666842 $294 $608 forward 7 unknown #
point $-1 51.180761131626333 -27.515653131835155 10.715880294666842 #
point $-1 51.180761131626333 27.515653131835155 10.715880294666842 #
face $-1 $-1 $609 $43 $-1 $610 reversed single #
loop $-1 $-1 $309 $299 #
plane-surface $-1 0 -27.515653131835155 0 0 1 0 0 0 1 forward_v I I I I #
coedge $-1 $611 $302 $456 $612 forward $184 $-1 #
coedge $-1 $302 $611 $613 $614 forward $184 $-1 #
edge $-1 $615 -51.180761131626333 $457 51.180761131626333 $302 $616 forward 7 unknown #
coedge $-1 $304 $303 $617 $618 reversed $117 $-1 #
coedge $-1 $305 $311 $452 $612 reversed $300 $-1 #
vertex $-1 $612 $619 #
straight-curve $-1 51.180761131626333 -13.426378270063129 -4.6079401473334212 0 0 1 I I #
coedge $-1 $617 $620 $307 $460 forward $609 $-1 #
edge $-1 $465 -17.280145281360582 $461 -3.190870419588558 $459 $621 forward 7 unknown #
vertex $-1 $460 $622 #
straight-curve $-1 0 -13.426378270063129 -7.7158802946668423 -1 0 0 I I #
coedge $-1 $623 $309 $620 $624 forward $450 $-1 #
coedge $-1 $309 $623 $311 $467 reversed $450 $-1 #
vertex $-1 $624 $625 #
straight-curve $-1 0 -27.515653131835155 -7.7158802946668423 -1 0 0 I I #
edge $-1 $313 7.7158802946668423 $626 10.715880294666842 $311 $627 forward 7 unknown #
point $-1 51.180761131626333 -13.426378270063129 -7.7158802946668423 #
point $-1 51.180761131626333 -27.515653131835155 -7.7158802946668423 #
face $-1 $-1 $484 $44 $-1 $628 reversed single #
loop $-1 $-1 $476 $315 #
plane-surface $-1 -51.180761131626333 0 0 1 0 0 0 0 -1 forward_v I I I I #
coedge $-1 $629 $630 $318 $475 forward $316 $-1 #
coedge $-1 $319 $318 $326 $489 reversed $121 $-1 #
edge $-1 $631 -51.180761131626333 $478 51.180761131626333 $473 $632 forward 7 unknown #
coedge $-1 $633 $320 $322 $481 forward $471 $-1 #
coedge $-1 $320 $633 $629 $634 reversed $471 $-1 #
vertex $-1 $634 $635 #
vertex $-1 $481 $636 #
straight-curve $-1 -51.180761131626333 13.426378270063129 -4.6079401473334212 0 0 1 I I #
edge $-1 $479 3.190870419588558 $485 17.280145281360582 $476 $637 forward 7 unknown #
coedge $-1 $638 $323 $327 $490 forward $484 $-1 #
coedge $-1 $323 $638 $633 $639 reversed $484 $-1 #
loop $-1 $-1 $323 $470 #
vertex $-1 $639 $640 #
straight-curve $-1 0 27.515653131835155 -7.7158802946668423 1 0 0 I I #
straight-curve $-1 0 13.426378270063129 -7.7158802946668423 1 0 0 I I #
coedge $-1 $327 $326 $630 $641 reversed $192 $-1 #
edge $-1 $329 3.1079401473334212 $631 6.1079401473334212 $326 $642 forward 7 unknown #
edge $-1 $328 7.7158802946668423 $643 10.715880294666842 $327 $644 forward 7 unknown #
point $-1 51.180761131626333 27.515653131835155 -7.7158802946668423 #
point $-1 51.180761131626333 13.426378270063129 -7.7158802946668423 #
loop $-1 $-1 $339 $331 #
plane-surface $-1 51.180761131626333 0 0 -1 0 0 0 0 1 forward_v I I I I #
coedge $-1 $496 $334 $336 $500 reversed $200 $-1 #
coedge $-1 $334 $495 $645 $646 reversed $200 $-1 #
coedge $-1 $342 $337 $334 $498 forward $332 $-1 #
edge $-1 $501 22.953347588337767 $647 31.898758371912255 $497 $648 forward 7 unknown #
coedge $-1 $336 $335 $504 $649 reversed $125 $-1 #
edge $-1 $650 -102.36152226325265 $501 -90.68411771924724 $495 $651 forward 7 unknown #
vertex $-1 $338 $652 #
straight-curve $-1 42.235350348051853 -5.2625344009243875 10.715880294666846 0 -1 0 I I #
coedge $-1 $645 $339 $342 $508 reversed $493 $-1 #
coedge $-1 $339 $645 $499 $649 forward $493 $-1 #
vertex $-1 $340 $653 #
straight-curve $-1 51.180761131626333 -7.623759333634422 73.709991458391386 0 0 1 I I #
straight-curve $-1 -27.232713508751409 -7.623759333634422 69.006508276405029 0.76604443648966558 0 -0.64278761758704617 I I #
edge $-1 $647 -13.426378270063129 $343 -7.623759333634422 $503 $654 forward 7 unknown #
point $-1 51.180761131626333 -7.623759333634422 10.715880294666842 #
point $-1 42.235350348051846 -7.623759333634422 10.715880294666846 #
edge $-1 $655 1 $655 0 $346 $-1 forward 7 unknown #
vertex $-1 $347 $656 #
ellipse-curve $-1 45.484980011779847 -11.76848714536921 5.5052299090462533 0.64278761758704617 0 0.76604443648966558 0.38302221824483279 0 -0.32139380879352308 1 I I #
point $-1 47.091077958083922 -11.76848714536921 6.6414409626526343 #
edge $-1 $657 1 $657 0 $350 $-1 forward 7 unknown #
vertex $-1 $351 $658 #
ellipse-curve $-1 45.484980011779847 -9.2816504583283361 5.5052299090462533 0.64278761758704617 0 0.76604443648966558 0.38302221824483279 0 -0.32139380879352308 1 I I #
point $-1 47.091077958083922 -9.2816504583283361 6.6414409626526343 #
plane-surface $-1 0 0 10.715880294666842 0 0 1 1 0 0 forward_v I I I I #
coedge $-1 $530 $529 $522 $659 forward $355 $-1 #
coedge $-1 $522 $357 $359 $526 reversed $222 $-1 #
coedge $-1 $357 $521 $520 $659 reversed $222 $-1 #
coedge $-1 $365 $360 $357 $524 forward $366 $-1 #
edge $-1 $527 22.953347588337767 $660 31.898758371912255 $523 $661 forward 7 unknown #
coedge $-1 $359 $358 $530 $662 reversed $139 $-1 #
edge $-1 $663 -102.36152226325265 $527 -90.68411771924724 $521 $664 forward 7 unknown #
vertex $-1 $361 $665 #
straight-curve $-1 42.235350348051853 0 10.715880294666846 0 -1 0 I I #
coedge $-1 $520 $362 $365 $534 reversed $355 $-1 #
coedge $-1 $362 $520 $525 $662 forward $355 $-1 #
vertex $-1 $363 $666 #
straight-curve $-1 51.180761131626333 2.901309468214353 73.709991458391386 0 0 1 I I #
straight-curve $-1 -27.232713508751409 2.901309468214353 69.006508276405029 0.76604443648966558 0 -0.64278761758704617 I I #
edge $-1 $660 -2.901309468214353 $367 2.901309468214353 $529 $667 forward 7 unknown #
point $-1 51.180761131626333 2.901309468214353 10.715880294666842 #
point $-1 42.235350348051846 2.901309468214353 10.715880294666846 #
edge $-1 $668 1 $668 0 $370 $-1 forward 7 unknown #
vertex $-1 $371 $669 #
ellipse-curve $-1 45.484980011779847 -1.2434183435204353 5.5052299090462533 0.64278761758704617 0 0.76604443648966558 0.38302221824483279 0 -0.32139380879352308 1 I I #
point $-1 47.091077958083922 -1.2434183435204353 6.6414409626526343 #
edge $-1 $670 1 $670 0 $374 $-1 forward 7 unknown #
vertex $-1 $375 $671 #
ellipse-curve $-1 45.484980011779847 1.2434183435204389 5.5052299090462533 0.64278761758704617 0 0.76604443648966558 0.38302221824483279 0 -0.32139380879352308 1 I I #
point $-1 47.091077958083922 1.2434183435204389 6.6414409626526343 #
plane-surface $-1 0 0 10.715880294666842 0 0 1 1 0 0 forward_v I I I I #
coedge $-1 $556 $555 $548 $672 forward $379 $-1 #
coedge $-1 $548 $381 $383 $552 reversed $244 $-1 #
coedge $-1 $381 $547 $546 $672 reversed $244 $-1 #
coedge $-1 $389 $384 $381 $550 forward $390 $-1 #
edge $-1 $553 22.953347588337767 $673 31.898758371912255 $549 $674 forward 7 unknown #
coedge $-1 $383 $382 $556 $675 reversed $153 $-1 #
edge $-1 $676 -102.36152226325265 $553 -90.68411771924724 $547 $677 forward 7 unknown #
vertex $-1 $385 $678 #
straight-curve $-1 42.235350348051853 5.2625344009243857 10.715880294666846 0 -1 0 I I #
coedge $-1 $546 $386 $389 $560 reversed $379 $-1 #
coedge $-1 $386 $546 $551 $675 forward $379 $-1 #
vertex $-1 $387 $679 #
straight-curve $-1 51.180761131626333 13.426378270063125 73.709991458391386 0 0 1 I I #
straight-curve $-1 -27.232713508751409 13.426378270063125 69.006508276405029 0.76604443648966558 0 -0.64278761758704617 I I #
edge $-1 $673 7.6237593336344185 $391 13.426378270063125 $555 $680 forward 7 unknown #
point $-1 51.180761131626333 13.426378270063125 10.715880294666842 #
point $-1 42.235350348051846 13.426378270063125 10.715880294666846 #
edge $-1 $681 1 $681 0 $394 $-1 forward 7 unknown #
vertex $-1 $395 $682 #
ellipse-curve $-1 45.484980011779847 9.2816504583283397 5.5052299090462533 0.64278761758704617 0 0.76604443648966558 0.38302221824483279 0 -0.32139380879352308 1 I I #
point $-1 47.091077958083922 9.2816504583283397 6.6414409626526343 #
edge $-1 $683 1 $683 0 $398 $-1 forward 7 unknown #
vertex $-1 $399 $684 #
ellipse-curve $-1 45.484980011779847 11.768487145369217 5.5052299090462533 0.64278761758704617 0 0.76604443648966558 0.38302221824483279 0 -0.32139380879352308 1 I I #
point $-1 47.091077958083922 11.768487145369217 6.6414409626526343 #
plane-surface $-1 0 0 10.715880294666842 0 0 1 1 0 0 forward_v I I I I #
coedge $-1 $582 $581 $574 $685 forward $403 $-1 #
coedge $-1 $574 $405 $407 $578 reversed $266 $-1 #
coedge $-1 $405 $573 $572 $685 reversed $266 $-1 #
coedge $-1 $413 $408 $405 $576 forward $414 $-1 #
edge $-1 $579 -22.602170243894676 $686 -18.280094702257678 $575 $687 forward 7 unknown #
coedge $-1 $407 $406 $582 $688 reversed $167 $-1 #
edge $-1 $689 1.393735185947377e-014 $579 8.391759486549752 $573 $690 forward 7 unknown #
vertex $-1 $409 $691 #
straight-curve $-1 -46.858685589989328 2.5778265723518725 10.715880294666842 0 1 0 I I #
coedge $-1 $572 $410 $413 $586 reversed $403 $-1 #
coedge $-1 $410 $572 $577 $688 forward $403 $-1 #
vertex $-1 $411 $692 #
straight-curve $-1 -51.180761131626333 1.7330312868501991 28.12140921914181 0 0 1 I I #
straight-curve $-1 -51.18076113162634 1.7330312868501991 3.5227384016912211 -0.51503806187062418 0 -0.85716730853699208 I I #
edge $-1 $686 -8.5782750025572909 $415 -1.7330312868501991 $581 $693 forward 7 unknown #
point $-1 -51.180761131626333 1.7330312868501991 10.715880294666842 #
point $-1 -46.858685589989335 1.7330312868501991 10.715880294666842 #
edge $-1 $694 1 $694 0 $418 $-1 forward 7 unknown #
vertex $-1 $419 $695 #
ellipse-curve $-1 -47.855470050045554 5.1556531447037521 6.4197554072746419 -0.85716730853699208 0 0.51503806187062418 0.51503806187062418 0 0.85716730853699208 1 I I #
point $-1 -48.504685298937204 5.1556531447037521 7.9764766567160192 #
plane-surface $-1 51.180761131626333 0 0 -1 0 0 0 0 1 forward_v I I I I #
coedge $-1 $427 $425 $429 $598 reversed $281 $-1 #
edge $-1 $440 -10.715880294666842 $600 10.715880294666842 $439 $696 forward 7 unknown #
vertex $-1 $598 $697 #
straight-curve $-1 -51.180761131626333 -27.515653131835155 0 0 0 -1 I I #
edge $-1 $596 -27.515653131835155 $600 27.515653131835155 $594 $698 forward 7 unknown #
straight-curve $-1 0 -27.515653131835155 -10.715880294666842 -1 0 0 I I #
vertex $-1 $432 $699 #
straight-curve $-1 0 27.515653131835155 -10.715880294666842 1 0 0 I I #
point $-1 51.180761131626333 27.515653131835155 -10.715880294666842 #
point $-1 51.180761131626333 -27.515653131835155 -10.715880294666842 #
straight-curve $-1 -51.180761131626333 0 10.715880294666842 0 -1 0 I I #
point $-1 -51.180761131626333 27.515653131835155 10.715880294666842 #
point $-1 -51.180761131626333 -27.515653131835155 10.715880294666842 #
straight-curve $-1 51.180761131626333 -27.515653131835155 0 0 0 -1 I I #
straight-curve $-1 51.180761131626333 27.515653131835155 0 0 0 -1 I I #
loop $-1 $-1 $617 $449 #
plane-surface $-1 -51.180761131626333 0 0 1 0 0 0 0 -1 forward_v I I I I #
coedge $-1 $453 $452 $623 $700 forward $184 $-1 #
edge $-1 $457 13.426378270063129 $626 27.515653131835155 $456 $701 forward 7 unknown #
coedge $-1 $620 $617 $453 $614 reversed $609 $-1 #
edge $-1 $702 -27.515653131835155 $615 -13.426378270063129 $613 $703 forward 7 unknown #
vertex $-1 $618 $704 #
straight-curve $-1 0 -13.426378270063129 -10.715880294666842 1 0 0 I I #
coedge $-1 $613 $459 $455 $618 forward $609 $-1 #
edge $-1 $461 3.1079401473334212 $615 6.1079401473334212 $617 $705 forward 7 unknown #
point $-1 51.180761131626333 -13.426378270063129 -10.715880294666842 #
coedge $-1 $459 $613 $463 $624 reversed $609 $-1 #
straight-curve $-1 -51.180761131626333 -10.235507850474571 -7.7158802946668423 0 1 0 I I #
point $-1 -51.180761131626333 -13.426378270063129 -7.7158802946668423 #
coedge $-1 $464 $463 $611 $700 reversed $450 $-1 #
edge $-1 $465 7.7158802946668423 $702 10.715880294666842 $620 $706 forward 7 unknown #
point $-1 -51.180761131626333 -27.515653131835155 -7.7158802946668423 #
vertex $-1 $467 $707 #
straight-curve $-1 51.180761131626333 -27.515653131835155 0 0 0 -1 I I #
plane-surface $-1 0 27.515653131835155 0 0 -1 0 0 0 -1 forward_v I I I I #
coedge $-1 $708 $473 $477 $634 forward $316 $-1 #
coedge $-1 $473 $708 $488 $641 forward $316 $-1 #
vertex $-1 $475 $709 #
straight-curve $-1 0 13.426378270063129 -10.715880294666842 -1 0 0 I I #
coedge $-1 $477 $476 $483 $639 forward $471 $-1 #
edge $-1 $478 13.426378270063129 $710 27.515653131835155 $477 $711 forward 7 unknown #
point $-1 -51.180761131626333 13.426378270063129 -10.715880294666842 #
point $-1 -51.180761131626333 13.426378270063129 -7.7158802946668423 #
straight-curve $-1 -51.180761131626333 10.235507850474571 -7.7158802946668423 0 1 0 I I #
coedge $-1 $483 $482 $708 $712 reversed $484 $-1 #
edge $-1 $485 7.7158802946668423 $710 10.715880294666842 $483 $713 forward 7 unknown #
point $-1 -51.180761131626333 27.515653131835155 -7.7158802946668423 #
edge $-1 $643 -27.515653131835155 $631 -13.426378270063129 $488 $714 forward 7 unknown #
straight-curve $-1 51.180761131626333 13.426378270063129 -4.6079401473334212 0 0 -1 I I #
vertex $-1 $641 $715 #
straight-curve $-1 51.180761131626333 27.515653131835155 0 0 0 -1 I I #
coedge $-1 $504 $503 $496 $646 forward $493 $-1 #
edge $-1 $647 62.99411116372454 $650 70.500202210165924 $645 $716 forward 7 unknown #
vertex $-1 $508 $717 #
straight-curve $-1 19.282002759714079 -13.426378270063129 10.715880294666846 1 0 0 I I #
edge $-1 $650 -8.1638438691387414 $505 -2.3612249327100345 $504 $718 forward 7 unknown #
vertex $-1 $649 $719 #
straight-curve $-1 -27.232713508751409 -13.426378270063129 69.006508276405029 -0.76604443648966558 0 0.64278761758704617 I I #
point $-1 42.235350348051846 -13.426378270063129 10.715880294666846 #
point $-1 51.180761131626333 -7.623759333634422 3.2097892482254622 #
straight-curve $-1 51.180761131626333 0 10.715880294666842 0 1 0 I I #
vertex $-1 $511 $720 #
point $-1 45.868002230024686 -11.76848714536921 5.18383610025273 #
vertex $-1 $515 $721 #
point $-1 45.868002230024686 -9.2816504583283361 5.18383610025273 #
edge $-1 $660 62.99411116372454 $663 70.500202210165924 $520 $722 forward 7 unknown #
vertex $-1 $534 $723 #
straight-curve $-1 19.282002759714079 -2.901309468214353 10.715880294666846 1 0 0 I I #
edge $-1 $663 -2.901309468214353 $531 2.901309468214353 $530 $724 forward 7 unknown #
vertex $-1 $662 $725 #
straight-curve $-1 -27.232713508751409 -2.901309468214353 69.006508276405029 -0.76604443648966558 0 0.64278761758704617 I I #
point $-1 42.235350348051846 -2.901309468214353 10.715880294666846 #
point $-1 51.180761131626333 2.901309468214353 3.2097892482254622 #
straight-curve $-1 51.180761131626333 0 10.715880294666842 0 1 0 I I #
vertex $-1 $537 $726 #
point $-1 45.868002230024686 -1.2434183435204353 5.18383610025273 #
vertex $-1 $541 $727 #
point $-1 45.868002230024686 1.2434183435204389 5.18383610025273 #
edge $-1 $673 62.99411116372454 $676 70.500202210165924 $546 $728 forward 7 unknown #
vertex $-1 $560 $729 #
straight-curve $-1 19.282002759714079 7.6237593336344185 10.715880294666846 1 0 0 I I #
edge $-1 $676 2.3612249327100328 $557 8.1638438691387396 $556 $730 forward 7 unknown #
vertex $-1 $675 $731 #
straight-curve $-1 -27.232713508751409 7.6237593336344185 69.006508276405029 -0.76604443648966558 0 0.64278761758704617 I I #
point $-1 42.235350348051846 7.6237593336344185 10.715880294666846 #
point $-1 51.180761131626333 13.426378270063125 3.2097892482254622 #
straight-curve $-1 51.180761131626333 0 10.715880294666842 0 1 0 I I #
vertex $-1 $563 $732 #
point $-1 45.868002230024686 9.2816504583283397 5.18383610025273 #
vertex $-1 $567 $733 #
point $-1 45.868002230024686 11.768487145369217 5.18383610025273 #
edge $-1 $686 17.405528924474968 $689 24.598670817450579 $572 $734 forward 7 unknown #
vertex $-1 $586 $735 #
straight-curve $-1 -69.460855833884011 8.5782750025572909 10.715880294666842 -1 0 0 I I #
edge $-1 $689 -6.0004484302054184 $583 0.84479528550167338 $582 $736 forward 7 unknown #
vertex $-1 $688 $737 #
straight-curve $-1 -51.18076113162634 8.5782750025572909 3.5227384016912211 0.51503806187062418 0 0.85716730853699208 I I #
point $-1 -46.858685589989335 8.5782750025572909 10.715880294666842 #
point $-1 -51.180761131626333 1.7330312868501991 3.5227384016912331 #
straight-curve $-1 -51.180761131626333 0 10.715880294666842 0 -1 0 I I #
vertex $-1 $589 $738 #
point $-1 -47.340431988174934 5.1556531447037521 7.2769227158116339 #
straight-curve $-1 -51.180761131626333 27.515653131835155 0 0 0 -1 I I #
point $-1 -51.180761131626333 -27.515653131835155 -10.715880294666842 #
straight-curve $-1 -51.180761131626333 0 -10.715880294666842 0 1 0 I I #
point $-1 -51.180761131626333 27.515653131835155 -10.715880294666842 #
edge $-1 $626 -51.180761131626333 $702 51.180761131626333 $623 $739 forward 7 unknown #
straight-curve $-1 51.180761131626333 0 -10.715880294666842 0 -1 0 I I #
vertex $-1 $614 $740 #
straight-curve $-1 -51.180761131626333 0 -10.715880294666842 0 1 0 I I #
point $-1 -51.180761131626333 -13.426378270063129 -10.715880294666842 #
straight-curve $-1 -51.180761131626333 -13.426378270063129 -4.6079401473334212 0 0 -1 I I #
straight-curve $-1 -51.180761131626333 -27.515653131835155 0 0 0 -1 I I #
point $-1 51.180761131626333 -27.515653131835155 -10.715880294666842 #
coedge $-1 $630 $629 $638 $712 forward $316 $-1 #
point $-1 51.180761131626333 13.426378270063129 -10.715880294666842 #
vertex $-1 $712 $741 #
straight-curve $-1 -51.180761131626333 0 -10.715880294666842 0 1 0 I I #
edge $-1 $710 -51.180761131626333 $643 51.180761131626333 $638 $742 forward 7 unknown #
straight-curve $-1 -51.180761131626333 27.515653131835155 0 0 0 -1 I I #
straight-curve $-1 51.180761131626333 0 -10.715880294666842 0 -1 0 I I #
point $-1 51.180761131626333 27.515653131835155 -10.715880294666842 #
straight-curve $-1 51.180761131626333 -13.426378270063129 73.709991458391386 0 0 -1 I I #
point $-1 51.180761131626333 -13.426378270063129 10.715880294666842 #
straight-curve $-1 51.180761131626326 -5.2625344009243875 3.2097892482254693 0 1 0 I I #
point $-1 51.180761131626333 -13.426378270063129 3.2097892482254622 #
point $-1 45.16358620298633 -11.76848714536921 5.1222076908014209 #
point $-1 45.16358620298633 -9.2816504583283361 5.1222076908014209 #
straight-curve $-1 51.180761131626333 -2.901309468214353 73.709991458391386 0 0 -1 I I #
point $-1 51.180761131626333 -2.901309468214353 10.715880294666842 #
straight-curve $-1 51.180761131626326 0 3.2097892482254693 0 1 0 I I #
point $-1 51.180761131626333 -2.901309468214353 3.2097892482254622 #
point $-1 45.16358620298633 -1.2434183435204353 5.1222076908014209 #
point $-1 45.16358620298633 1.2434183435204389 5.1222076908014209 #
straight-curve $-1 51.180761131626333 7.6237593336344185 73.709991458391386 0 0 -1 I I #
point $-1 51.180761131626333 7.6237593336344185 10.715880294666842 #
straight-curve $-1 51.180761131626326 5.2625344009243857 3.2097892482254693 0 1 0 I I #
point $-1 51.180761131626333 7.6237593336344185 3.2097892482254622 #
point $-1 45.16358620298633 9.2816504583283397 5.1222076908014209 #
point $-1 45.16358620298633 11.768487145369217 5.1222076908014209 #
straight-curve $-1 -51.180761131626333 8.5782750025572909 28.12140921914181 0 0 -1 I I #
point $-1 -51.180761131626333 8.5782750025572909 10.715880294666842 #
straight-curve $-1 -51.180761131626333 2.5778265723518725 3.522738401691238 0 -1 0 I I #
point $-1 -51.180761131626333 8.5782750025572909 3.5227384016912331 #
point $-1 -46.998302741508567 5.1556531447037521 5.9047173454040172 #
straight-curve $-1 0 -27.515653131835155 -10.715880294666842 -1 0 0 I I #
point $-1 -51.180761131626333 -27.515653131835155 -10.715880294666842 #
point $-1 -51.180761131626333 27.515653131835155 -10.715880294666842 #
straight-curve $-1 0 27.515653131835155 -10.715880294666842 1 0 0 I I #
End-of-ACIS-data 