500 0 7 0           
7 Unknown 11 ACIS 5.0 NT 24 Thu Mar 25 19:04:40 1999 
-1 9.9999999999999995e-007 1e-010 
body $-1 $7 $-1 $8 #
body $-1 $9 $-1 $10 #
body $-1 $11 $-1 $12 #
body $-1 $13 $-1 $14 #
body $-1 $15 $-1 $16 #
body $-1 $17 $-1 $18 #
body $-1 $19 $-1 $20 #
lump $-1 $-1 $21 $0 #
transform $-1 1 0 0 0 1 0 0 0 1 74.772789696951207 36.930916811929336 14.474593104308715 1 rotate no_reflect no_shear #
lump $-1 $-1 $22 $1 #
transform $-1 1 0 0 0 1 0 0 0 1 74.772789696951207 36.930916811929336 14.474593104308715 1 rotate no_reflect no_shear #
lump $-1 $-1 $23 $2 #
transform $-1 1 0 0 0 1 0 0 0 1 74.772789696951207 36.930916811929336 14.474593104308715 1 rotate no_reflect no_shear #
lump $-1 $-1 $24 $3 #
transform $-1 1 0 0 0 1 0 0 0 1 74.772789696951207 36.930916811929336 14.474593104308715 1 rotate no_reflect no_shear #
lump $-1 $-1 $25 $4 #
transform $-1 1 0 0 0 1 0 0 0 1 74.772789696951207 36.930916811929336 14.474593104308715 1 rotate no_reflect no_shear #
lump $-1 $-1 $26 $5 #
transform $-1 1 0 0 0 1 0 0 0 1 74.772789696951207 36.930916811929336 14.474593104308715 1 rotate no_reflect no_shear #
lump $-1 $-1 $27 $6 #
transform $-1 1 0 0 0 1 0 0 0 1 74.772789696951207 36.930916811929336 14.474593104308715 1 rotate no_reflect no_shear #
shell $-1 $-1 $-1 $28 $-1 $7 #
shell $-1 $-1 $-1 $29 $-1 $9 #
shell $-1 $-1 $-1 $30 $-1 $11 #
shell $-1 $-1 $-1 $31 $-1 $13 #
shell $-1 $-1 $-1 $32 $-1 $15 #
shell $-1 $-1 $-1 $33 $-1 $17 #
shell $-1 $-1 $-1 $34 $-1 $19 #
face $-1 $35 $36 $21 $-1 $37 forward single #
face $-1 $38 $39 $22 $-1 $40 forward single #
face $-1 $41 $42 $23 $-1 $43 reversed single #
face $-1 $44 $45 $24 $-1 $46 forward single #
face $-1 $47 $48 $25 $-1 $49 forward single #
face $-1 $50 $51 $26 $-1 $52 reversed single #
face $-1 $53 $54 $27 $-1 $55 forward single #
face $-1 $56 $57 $21 $-1 $58 reversed single #
loop $-1 $-1 $59 $28 #
plane-surface $-1 0 0 14.474593104308715 0 0 1 1 0 0 forward_v I I I I #
face $-1 $60 $61 $22 $-1 $62 reversed single #
loop $-1 $-1 $63 $29 #
plane-surface $-1 0 -30.190563472721635 -9.5212051554034787 0 0 1 1 0 0 forward_v I I I I #
face $-1 $64 $65 $23 $-1 $66 reversed single #
loop $-1 $-1 $67 $30 #
plane-surface $-1 93.205306982950759 -23.450210133513934 219.94286192147212 0 1 0 0.7660444514056185 0 0.64278759981090561 forward_v I I I I #
face $-1 $68 $69 $24 $-1 $70 forward single #
loop $-1 $71 $72 $31 #
cone-surface $-1 72.201254490646917 -21.628370097856831 11.545031029047406 -0.7660444514056185 0 -0.64278759981090561 0.3213937999054528 0 -0.38302222570280925 1 I I 0 1 0.5 forward I I I I #
face $-1 $73 $74 $25 $-1 $75 forward single #
loop $-1 $76 $77 $32 #
cone-surface $-1 72.201254490646917 -18.895610044371171 11.545031029047406 -0.7660444514056185 0 -0.64278759981090561 0.3213937999054528 0 -0.38302222570280925 1 I I 0 1 0.5 forward I I I I #
face $-1 $78 $79 $26 $-1 $80 reversed single #
loop $-1 $-1 $81 $33 #
plane-surface $-1 -166.84224288962821 -23.450210133513934 122.97482093547866 0 1 0 -0.61566148304635926 0 0.78801074757464917 forward_v I I I I #
face $-1 $82 $83 $27 $-1 $84 forward single #
loop $-1 $85 $86 $34 #
cone-surface $-1 -68.328877837294641 -19.674892471552909 9.208443947195061 0.61566148304635926 0 -0.78801074757464917 0.78801074757464917 0 0.61566148304635926 1 I I 0 1 1 forward I I I I #
face $-1 $87 $88 $21 $-1 $89 reversed single #
loop $-1 $-1 $90 $35 #
plane-surface $-1 0 0 -14.474593104308715 0 0 1 1 0 0 forward_v I I I I #
coedge $-1 $91 $92 $93 $94 forward $36 $-1 #
face $-1 $95 $96 $22 $-1 $97 reversed single #
loop $-1 $-1 $98 $38 #
plane-surface $-1 0 -30.190563472721635 -13.974593104308717 0 0 1 1 0 0 forward_v I I I I #
coedge $-1 $99 $100 $101 $102 reversed $39 $-1 #
face $-1 $103 $104 $23 $-1 $105 reversed single #
loop $-1 $-1 $106 $41 #
plane-surface $-1 -21.353254343986578 -20.261990071113999 123.81681788053436 0.7660444514056185 0 0.64278759981090561 0.64278759981090561 0 -0.7660444514056185 forward_v I I I I #
coedge $-1 $107 $108 $109 $110 reversed $42 $-1 #
face $-1 $-1 $111 $24 $-1 $112 forward single #
loop $-1 $113 $114 $44 #
cone-surface $-1 71.626721152092699 -21.628370097856831 11.062940329189226 -0.7660444514056185 0 -0.64278759981090561 0.1606968999527264 0 -0.19151111285140462 1 I I -0.70710678118654746 0.70710678118654746 0.25 forward I I I I #
loop $-1 $-1 $115 $31 #
coedge $-1 $72 $72 $116 $117 reversed $45 $-1 #
face $-1 $-1 $118 $25 $-1 $119 forward single #
loop $-1 $120 $121 $47 #
cone-surface $-1 71.626721152092699 -18.895610044371171 11.062940329189226 -0.7660444514056185 0 -0.64278759981090561 0.1606968999527264 0 -0.19151111285140462 1 I I -0.70710678118654746 0.70710678118654746 0.25 forward I I I I #
loop $-1 $-1 $122 $32 #
coedge $-1 $77 $77 $123 $124 reversed $48 $-1 #
face $-1 $125 $126 $26 $-1 $127 reversed single #
loop $-1 $-1 $128 $50 #
plane-surface $-1 -74.772789696951179 -19.674892471552909 5.13129712080557 -0.61566148304635926 0 0.78801074757464917 0.78801074757464917 0 0.61566148304635926 forward_v I I I I #
coedge $-1 $129 $130 $131 $132 reversed $51 $-1 #
face $-1 $-1 $133 $27 $-1 $134 forward single #
loop $-1 $135 $136 $53 #
cone-surface $-1 -67.556571870952354 -19.674892471552909 8.2199374080456611 0.61566148304635926 0 -0.78801074757464917 0.39400537378732459 0 0.30783074152317963 1 I I -0.70710678118654746 0.70710678118654746 0.5 forward I I I I #
loop $-1 $-1 $137 $34 #
coedge $-1 $86 $86 $138 $139 reversed $54 $-1 #
face $-1 $140 $141 $21 $-1 $142 reversed single #
loop $-1 $-1 $143 $56 #
plane-surface $-1 0 -36.930916811929336 0 0 1 0 0 0 1 forward_v I I I I #
coedge $-1 $144 $145 $146 $147 forward $57 $-1 #
coedge $-1 $148 $59 $149 $150 forward $36 $-1 #
coedge $-1 $59 $148 $151 $152 forward $36 $-1 #
coedge $-1 $153 $154 $59 $94 reversed $155 $-1 #
edge $-1 $156 -36.930916811929336 $157 36.930916811929336 $93 $158 forward 7 unknown #
face $-1 $159 $160 $22 $-1 $161 reversed single #
loop $-1 $-1 $162 $60 #
plane-surface $-1 0 -23.450210133513934 -11.747899129856098 0 -1 0 0 0 -1 forward_v I I I I #
coedge $-1 $163 $164 $165 $166 reversed $61 $-1 #
coedge $-1 $167 $63 $168 $169 forward $39 $-1 #
coedge $-1 $63 $167 $170 $171 reversed $39 $-1 #
coedge $-1 $172 $173 $63 $102 forward $174 $-1 #
edge $-1 $175 8.3549283971531167 $176 21.835635075568518 $101 $177 forward 7 unknown #
face $-1 $178 $179 $23 $-1 $180 forward single #
loop $-1 $-1 $181 $64 #
plane-surface $-1 93.205306982950759 -17.073770008714064 219.94286192147212 0 -1 0 -0.7660444514056185 0 -0.64278759981090561 forward_v I I I I #
coedge $-1 $182 $183 $184 $185 reversed $65 $-1 #
coedge $-1 $108 $67 $186 $187 reversed $42 $-1 #
coedge $-1 $67 $107 $182 $188 reversed $42 $-1 #
coedge $-1 $184 $189 $67 $110 forward $190 $-1 #
edge $-1 $191 95.496837856427348 $192 100.71317440713908 $109 $193 forward 7 unknown #
loop $-1 $-1 $116 $68 #
plane-surface $-1 -21.353254343986578 -20.261990071113999 123.81681788053436 0.7660444514056185 0 0.64278759981090561 0.64278759981090561 0 -0.7660444514056185 forward_v I I I I #
loop $-1 $-1 $194 $44 #
coedge $-1 $114 $114 $115 $195 reversed $69 $-1 #
coedge $-1 $115 $115 $114 $195 forward $71 $-1 #
coedge $-1 $116 $116 $72 $117 forward $111 $-1 #
edge $-1 $196 0 $196 6.2831853071796004 $116 $197 forward 7 unknown #
loop $-1 $-1 $123 $73 #
plane-surface $-1 -21.353254343986578 -20.261990071113999 123.81681788053436 0.7660444514056185 0 0.64278759981090561 0.64278759981090561 0 -0.7660444514056185 forward_v I I I I #
loop $-1 $-1 $198 $47 #
coedge $-1 $121 $121 $122 $199 reversed $74 $-1 #
coedge $-1 $122 $122 $121 $199 forward $76 $-1 #
coedge $-1 $123 $123 $77 $124 forward $118 $-1 #
edge $-1 $200 0 $200 6.2831853071796004 $123 $201 forward 7 unknown #
face $-1 $202 $203 $26 $-1 $204 reversed single #
loop $-1 $-1 $205 $78 #
plane-surface $-1 -166.84224288962821 -15.899574809591883 122.97482093547866 0 -1 0 0.61566148304635926 0 -0.78801074757464917 forward_v I I I I #
coedge $-1 $206 $207 $208 $209 reversed $79 $-1 #
coedge $-1 $130 $81 $210 $211 reversed $51 $-1 #
coedge $-1 $81 $129 $206 $212 reversed $51 $-1 #
coedge $-1 $208 $213 $81 $132 forward $214 $-1 #
edge $-1 $215 8.6483317478628976 $216 20.607205017537858 $131 $217 forward 7 unknown #
loop $-1 $-1 $138 $82 #
plane-surface $-1 -74.772789696951179 -19.674892471552909 5.13129712080557 -0.61566148304635926 0 0.78801074757464917 0.78801074757464917 0 0.61566148304635926 forward_v I I I I #
loop $-1 $-1 $218 $53 #
coedge $-1 $136 $136 $137 $219 reversed $83 $-1 #
coedge $-1 $137 $137 $136 $219 forward $85 $-1 #
coedge $-1 $138 $138 $86 $139 forward $133 $-1 #
edge $-1 $220 0 $220 6.2831853071796004 $138 $221 forward 7 unknown #
face $-1 $222 $223 $21 $-1 $224 reversed single #
loop $-1 $-1 $225 $87 #
plane-surface $-1 -74.772789696951207 0 0 1 0 0 0 0 -1 forward_v I I I I #
coedge $-1 $226 $151 $227 $228 forward $88 $-1 #
coedge $-1 $229 $90 $226 $230 forward $57 $-1 #
coedge $-1 $90 $229 $231 $232 forward $57 $-1 #
coedge $-1 $154 $153 $90 $147 reversed $155 $-1 #
edge $-1 $233 -36.930916811929336 $234 36.930916811929336 $146 $235 forward 7 unknown #
coedge $-1 $92 $91 $236 $237 forward $36 $-1 #
coedge $-1 $238 $239 $91 $150 reversed $223 $-1 #
edge $-1 $157 -74.772789696951207 $240 74.772789696951207 $149 $241 forward 7 unknown #
coedge $-1 $143 $242 $92 $152 reversed $88 $-1 #
edge $-1 $243 -74.772789696951207 $156 74.772789696951207 $151 $244 forward 7 unknown #
coedge $-1 $146 $93 $242 $245 forward $155 $-1 #
coedge $-1 $93 $146 $238 $246 reversed $155 $-1 #
loop $-1 $-1 $153 $222 #
vertex $-1 $94 $247 #
vertex $-1 $94 $248 #
straight-curve $-1 74.772789696951207 0 14.474593104308715 0 1 0 I I #
face $-1 $249 $250 $22 $-1 $251 reversed single #
loop $-1 $-1 $252 $95 #
plane-surface $-1 -74.772789696951207 0 0 1 0 0 0 0 -1 forward_v I I I I #
coedge $-1 $253 $168 $173 $254 reversed $96 $-1 #
coedge $-1 $255 $98 $256 $257 reversed $61 $-1 #
coedge $-1 $98 $255 $253 $258 forward $61 $-1 #
coedge $-1 $173 $172 $98 $166 forward $174 $-1 #
edge $-1 $259 -21.835635075568518 $260 -8.3549283971531167 $165 $261 forward 7 unknown #
coedge $-1 $100 $99 $252 $262 reversed $39 $-1 #
coedge $-1 $162 $263 $99 $169 reversed $96 $-1 #
edge $-1 $175 -74.772789696951207 $264 74.772789696951207 $168 $265 forward 7 unknown #
coedge $-1 $266 $267 $100 $171 forward $250 $-1 #
edge $-1 $176 -74.772789696951207 $268 74.772789696951207 $170 $269 forward 7 unknown #
coedge $-1 $165 $101 $267 $270 forward $174 $-1 #
coedge $-1 $101 $165 $162 $254 forward $174 $-1 #
loop $-1 $-1 $101 $249 #
vertex $-1 $102 $271 #
vertex $-1 $270 $272 #
straight-curve $-1 74.772789696951207 -15.095281736360818 -9.5212051554034787 0 -1 0 I I #
face $-1 $-1 $190 $23 $-1 $273 reversed single #
loop $-1 $-1 $274 $103 #
plane-surface $-1 0 0 14.474593104308715 0 0 1 1 0 0 forward_v I I I I #
coedge $-1 $275 $276 $277 $278 reversed $104 $-1 #
coedge $-1 $279 $106 $108 $188 forward $65 $-1 #
coedge $-1 $106 $279 $275 $280 forward $65 $-1 #
coedge $-1 $277 $109 $106 $185 forward $190 $-1 #
edge $-1 $192 -13.319215097956935 $281 -6.9427749731570643 $184 $282 forward 7 unknown #
coedge $-1 $283 $284 $107 $187 forward $179 $-1 #
edge $-1 $285 23.793110244272853 $191 28.170136205475828 $186 $286 forward 7 unknown #
edge $-1 $192 -149.54557939390253 $285 -142.73613571065377 $108 $287 forward 7 unknown #
coedge $-1 $109 $277 $283 $288 reversed $190 $-1 #
loop $-1 $-1 $277 $178 #
vertex $-1 $288 $289 #
vertex $-1 $110 $290 #
straight-curve $-1 74.772789696951207 -23.450210133513934 109.97143096073606 0 0 -1 I I #
coedge $-1 $194 $194 $-1 $291 reversed $113 $-1 #
edge $-1 $292 0 $292 6.2831853071796004 $114 $293 forward 7 unknown #
vertex $-1 $117 $294 #
ellipse-curve $-1 72.58427671634972 -21.628370097856831 11.86642482895285 0.7660444514056185 0 0.64278759981090561 0.3213937999054528 0 -0.38302222570280925 1 I I #
coedge $-1 $198 $198 $-1 $295 reversed $120 $-1 #
edge $-1 $296 0 $296 6.2831853071796004 $121 $297 forward 7 unknown #
vertex $-1 $124 $298 #
ellipse-curve $-1 72.58427671634972 -18.895610044371171 11.86642482895285 0.7660444514056185 0 0.64278759981090561 0.3213937999054528 0 -0.38302222570280925 1 I I #
face $-1 $-1 $214 $26 $-1 $299 forward single #
loop $-1 $-1 $300 $125 #
plane-surface $-1 -74.772789696951207 0 0 1 0 0 0 0 -1 forward_v I I I I #
coedge $-1 $301 $302 $303 $304 reversed $126 $-1 #
coedge $-1 $305 $128 $130 $212 forward $79 $-1 #
coedge $-1 $128 $305 $301 $306 forward $79 $-1 #
coedge $-1 $303 $131 $128 $209 forward $214 $-1 #
edge $-1 $216 -13.61276389773748 $307 -6.0621285738154285 $208 $308 forward 7 unknown #
coedge $-1 $309 $310 $129 $211 forward $203 $-1 #
edge $-1 $311 -56.356113346933782 $215 -47.012817363430614 $210 $312 forward 7 unknown #
edge $-1 $216 -15.176028127131669 $311 3.606704357266089e-014 $130 $313 forward 7 unknown #
coedge $-1 $131 $303 $309 $314 forward $214 $-1 #
loop $-1 $-1 $303 $202 #
vertex $-1 $211 $315 #
vertex $-1 $132 $316 #
straight-curve $-1 -83.421121444814105 -23.450210133513934 14.474593104308717 1 0 0 I I #
coedge $-1 $218 $218 $-1 $317 reversed $135 $-1 #
edge $-1 $318 0 $318 6.2831853071796004 $136 $319 forward 7 unknown #
vertex $-1 $139 $320 #
ellipse-curve $-1 -68.793353062113738 -19.674892471552909 9.8029451125571256 -0.61566148304635926 0 0.78801074757464917 0.78801074757464917 0 0.61566148304635926 1 I I #
face $-1 $-1 $155 $21 $-1 $321 reversed single #
loop $-1 $-1 $238 $140 #
plane-surface $-1 0 36.930916811929336 0 0 -1 0 0 0 -1 forward_v I I I I #
coedge $-1 $322 $236 $239 $323 forward $141 $-1 #
coedge $-1 $242 $143 $144 $230 reversed $88 $-1 #
coedge $-1 $236 $322 $143 $228 reversed $141 $-1 #
edge $-1 $243 -14.474593104308715 $324 14.474593104308715 $227 $325 forward 7 unknown #
coedge $-1 $145 $144 $322 $326 forward $57 $-1 #
edge $-1 $234 -74.772789696951207 $324 74.772789696951207 $226 $327 forward 7 unknown #
coedge $-1 $239 $238 $145 $232 reversed $223 $-1 #
edge $-1 $328 -74.772789696951207 $233 74.772789696951207 $231 $329 forward 7 unknown #
vertex $-1 $147 $330 #
vertex $-1 $245 $331 #
straight-curve $-1 74.772789696951207 0 -14.474593104308715 0 -1 0 I I #
coedge $-1 $225 $227 $148 $237 reversed $141 $-1 #
edge $-1 $240 -36.930916811929336 $243 36.930916811929336 $236 $332 forward 7 unknown #
coedge $-1 $231 $149 $154 $246 forward $223 $-1 #
coedge $-1 $149 $231 $225 $323 reversed $223 $-1 #
vertex $-1 $150 $333 #
straight-curve $-1 0 36.930916811929336 14.474593104308715 -1 0 0 I I #
coedge $-1 $151 $226 $153 $245 reversed $88 $-1 #
vertex $-1 $237 $334 #
straight-curve $-1 0 -36.930916811929336 14.474593104308715 1 0 0 I I #
edge $-1 $156 -14.474593104308715 $234 14.474593104308715 $153 $335 forward 7 unknown #
edge $-1 $157 -14.474593104308715 $233 14.474593104308715 $154 $336 forward 7 unknown #
point $-1 74.772789696951207 -36.930916811929336 14.474593104308715 #
point $-1 74.772789696951207 36.930916811929336 14.474593104308715 #
face $-1 $-1 $174 $22 $-1 $337 reversed single #
loop $-1 $-1 $170 $159 #
plane-surface $-1 0 -36.930916811929336 0 0 1 0 0 0 1 forward_v I I I I #
coedge $-1 $338 $339 $167 $262 forward $160 $-1 #
coedge $-1 $263 $162 $164 $258 reversed $96 $-1 #
edge $-1 $260 -8.1006435393806679 $175 -3.6472555904754298 $173 $340 forward 7 unknown #
coedge $-1 $164 $163 $341 $342 reversed $61 $-1 #
coedge $-1 $267 $266 $163 $257 forward $250 $-1 #
edge $-1 $343 -74.772789696951207 $259 74.772789696951207 $256 $344 forward 7 unknown #
edge $-1 $345 -74.772789696951207 $260 74.772789696951207 $253 $346 forward 7 unknown #
vertex $-1 $257 $347 #
vertex $-1 $166 $348 #
straight-curve $-1 74.772789696951207 -15.095281736360818 -13.974593104308717 0 1 0 I I #
edge $-1 $268 -21.835635075568518 $264 -8.3549283971531167 $252 $349 forward 7 unknown #
coedge $-1 $168 $253 $338 $350 reversed $96 $-1 #
vertex $-1 $262 $351 #
straight-curve $-1 0 -23.450210133513934 -9.5212051554034787 -1 0 0 I I #
coedge $-1 $256 $170 $339 $352 forward $250 $-1 #
coedge $-1 $170 $256 $172 $270 reversed $250 $-1 #
vertex $-1 $352 $353 #
straight-curve $-1 0 -36.930916811929336 -9.5212051554034787 -1 0 0 I I #
edge $-1 $176 9.5212051554034787 $259 13.974593104308717 $172 $354 forward 7 unknown #
point $-1 74.772789696951207 -23.450210133513934 -9.5212051554034787 #
point $-1 74.772789696951207 -36.930916811929336 -9.5212051554034787 #
plane-surface $-1 74.772789696951207 0 0 -1 0 0 0 0 1 forward_v I I I I #
coedge $-1 $284 $283 $276 $355 forward $179 $-1 #
coedge $-1 $276 $181 $183 $280 reversed $104 $-1 #
coedge $-1 $181 $275 $274 $355 reversed $104 $-1 #
coedge $-1 $189 $184 $181 $278 forward $190 $-1 #
edge $-1 $281 -100.71317440713908 $356 -95.496837856427348 $277 $357 forward 7 unknown #
coedge $-1 $183 $182 $284 $358 reversed $65 $-1 #
edge $-1 $359 142.73613571065377 $281 149.54557939390253 $275 $360 forward 7 unknown #
vertex $-1 $185 $361 #
straight-curve $-1 74.772789696951207 -10.130995035557 9.2582565535969792 0 1 0 I I #
coedge $-1 $274 $186 $189 $288 forward $179 $-1 #
coedge $-1 $186 $274 $279 $358 forward $179 $-1 #
vertex $-1 $187 $362 #
straight-curve $-1 46.60265349147538 -23.450210133513934 14.47459310430871 1 0 0 I I #
straight-curve $-1 -21.353254343986578 -23.450210133513934 123.81681788053436 -0.64278759981090561 0 0.7660444514056185 I I #
edge $-1 $191 -23.450210133513934 $356 -17.073770008714064 $189 $363 forward 7 unknown #
point $-1 74.772789696951207 -23.450210133513934 14.474593104308715 #
point $-1 74.772789696951222 -23.450210133513934 9.2582565535969792 #
edge $-1 $364 1 $364 0 $194 $-1 forward 7 unknown #
vertex $-1 $195 $365 #
ellipse-curve $-1 71.818232264944101 -21.628370097856831 11.223637229141953 0.7660444514056185 0 0.64278759981090561 0.3213937999054528 0 -0.38302222570280925 1 I I #
point $-1 72.905670516255171 -21.628370097856831 11.483402603250049 #
edge $-1 $366 1 $366 0 $198 $-1 forward 7 unknown #
vertex $-1 $199 $367 #
ellipse-curve $-1 71.818232264944101 -18.895610044371171 11.223637229141953 0.7660444514056185 0 0.64278759981090561 0.3213937999054528 0 -0.38302222570280925 1 I I #
point $-1 72.905670516255171 -18.895610044371171 11.483402603250049 #
plane-surface $-1 0 0 14.474593104308715 0 0 1 1 0 0 forward_v I I I I #
coedge $-1 $310 $309 $302 $368 forward $203 $-1 #
coedge $-1 $302 $205 $207 $306 reversed $126 $-1 #
coedge $-1 $205 $301 $300 $368 reversed $126 $-1 #
coedge $-1 $213 $208 $205 $304 forward $214 $-1 #
edge $-1 $307 -20.607205017537858 $369 -8.6483317478628976 $303 $370 forward 7 unknown #
coedge $-1 $207 $206 $310 $371 reversed $79 $-1 #
edge $-1 $372 -3.606704357266089e-014 $307 15.176028127131669 $301 $373 forward 7 unknown #
vertex $-1 $209 $374 #
straight-curve $-1 -62.813916427276247 -9.8374462357764543 14.474593104308715 0 1 0 I I #
coedge $-1 $300 $210 $213 $314 reversed $203 $-1 #
coedge $-1 $210 $300 $305 $371 forward $203 $-1 #
vertex $-1 $211 $375 #
straight-curve $-1 -74.772789696951207 -23.450210133513934 61.48741046773933 0 0 1 I I #
straight-curve $-1 -74.772789696951179 -23.450210133513934 5.13129712080557 -0.78801074757464917 0 -0.61566148304635926 I I #
edge $-1 $369 15.899574809591883 $215 23.450210133513934 $309 $376 forward 7 unknown #
point $-1 -74.772789696951207 -23.450210133513934 14.474593104308715 #
point $-1 -62.813916427276247 -23.450210133513934 14.474593104308715 #
edge $-1 $377 1 $377 0 $218 $-1 forward 7 unknown #
vertex $-1 $219 $378 #
ellipse-curve $-1 -67.86440261247553 -19.674892471552909 8.6139427818329857 -0.61566148304635926 0 0.78801074757464917 0.78801074757464917 0 0.61566148304635926 1 I I #
point $-1 -68.005342314539092 -19.674892471552909 10.418606595603496 #
plane-surface $-1 74.772789696951207 0 0 -1 0 0 0 0 1 forward_v I I I I #
coedge $-1 $227 $225 $229 $326 reversed $141 $-1 #
edge $-1 $240 -14.474593104308715 $328 14.474593104308715 $239 $379 forward 7 unknown #
vertex $-1 $326 $380 #
straight-curve $-1 -74.772789696951207 -36.930916811929336 0 0 0 -1 I I #
edge $-1 $324 -36.930916811929336 $328 36.930916811929336 $322 $381 forward 7 unknown #
straight-curve $-1 0 -36.930916811929336 -14.474593104308715 -1 0 0 I I #
vertex $-1 $232 $382 #
straight-curve $-1 0 36.930916811929336 -14.474593104308715 1 0 0 I I #
point $-1 74.772789696951207 36.930916811929336 -14.474593104308715 #
point $-1 74.772789696951207 -36.930916811929336 -14.474593104308715 #
straight-curve $-1 -74.772789696951207 0 14.474593104308715 0 -1 0 I I #
point $-1 -74.772789696951207 36.930916811929336 14.474593104308715 #
point $-1 -74.772789696951207 -36.930916811929336 14.474593104308715 #
straight-curve $-1 74.772789696951207 -36.930916811929336 0 0 0 -1 I I #
straight-curve $-1 74.772789696951207 36.930916811929336 0 0 0 -1 I I #
plane-surface $-1 74.772789696951207 0 0 -1 0 0 0 0 1 forward_v I I I I #
coedge $-1 $341 $252 $263 $350 forward $160 $-1 #
coedge $-1 $252 $341 $266 $352 reversed $160 $-1 #
straight-curve $-1 74.772789696951207 -23.450210133513934 -5.8739495649280489 0 0 1 I I #
coedge $-1 $339 $338 $255 $342 forward $160 $-1 #
edge $-1 $345 8.3549283971531167 $343 21.835635075568518 $341 $383 forward 7 unknown #
vertex $-1 $257 $384 #
straight-curve $-1 0 -36.930916811929336 -13.974593104308717 1 0 0 I I #
vertex $-1 $342 $385 #
straight-curve $-1 0 -23.450210133513934 -13.974593104308717 1 0 0 I I #
point $-1 74.772789696951207 -36.930916811929336 -13.974593104308717 #
point $-1 74.772789696951207 -23.450210133513934 -13.974593104308717 #
straight-curve $-1 -74.772789696951207 -15.095281736360818 -9.5212051554034787 0 1 0 I I #
edge $-1 $264 3.6472555904754298 $345 8.1006435393806679 $338 $386 forward 7 unknown #
point $-1 -74.772789696951207 -23.450210133513934 -9.5212051554034787 #
edge $-1 $268 9.5212051554034787 $343 13.974593104308717 $339 $387 forward 7 unknown #
point $-1 -74.772789696951207 -36.930916811929336 -9.5212051554034787 #
straight-curve $-1 74.772789696951207 -36.930916811929336 0 0 0 -1 I I #
edge $-1 $356 -28.170136205475828 $359 -23.793110244272853 $274 $388 forward 7 unknown #
vertex $-1 $355 $389 #
straight-curve $-1 74.772789696951207 -17.073770008714064 109.97143096073606 0 0 1 I I #
edge $-1 $359 6.9427749731570643 $285 13.319215097956935 $284 $390 forward 7 unknown #
vertex $-1 $358 $391 #
straight-curve $-1 -21.353254343986578 -17.073770008714064 123.81681788053436 0.64278759981090561 0 -0.7660444514056185 I I #
point $-1 74.772789696951222 -17.073770008714064 9.2582565535969792 #
point $-1 70.395763735748233 -23.450210133513934 14.47459310430871 #
straight-curve $-1 74.772789696951207 0 14.474593104308715 0 1 0 I I #
vertex $-1 $291 $392 #
point $-1 72.139626064849551 -21.628370097856831 10.840615003439144 #
vertex $-1 $295 $393 #
point $-1 72.139626064849551 -18.895610044371171 10.840615003439144 #
edge $-1 $369 47.012817363430614 $372 56.356113346933782 $300 $394 forward 7 unknown #
vertex $-1 $314 $395 #
straight-curve $-1 -83.421121444814105 -15.899574809591883 14.474593104308717 -1 0 0 I I #
edge $-1 $372 6.0621285738154285 $311 13.61276389773748 $310 $396 forward 7 unknown #
vertex $-1 $371 $397 #
straight-curve $-1 -74.772789696951179 -15.899574809591883 5.13129712080557 0.78801074757464917 0 0.61566148304635926 I I #
point $-1 -62.813916427276247 -15.899574809591883 14.474593104308715 #
point $-1 -74.772789696951207 -23.450210133513934 5.1312971208055478 #
straight-curve $-1 -74.772789696951207 0 14.474593104308715 0 -1 0 I I #
vertex $-1 $317 $398 #
point $-1 -67.076391864900884 -19.674892471552909 9.2296042648793453 #
straight-curve $-1 -74.772789696951207 36.930916811929336 0 0 0 -1 I I #
point $-1 -74.772789696951207 -36.930916811929336 -14.474593104308715 #
straight-curve $-1 -74.772789696951207 0 -14.474593104308715 0 1 0 I I #
point $-1 -74.772789696951207 36.930916811929336 -14.474593104308715 #
straight-curve $-1 -74.772789696951207 -15.095281736360818 -13.974593104308717 0 -1 0 I I #
point $-1 -74.772789696951207 -36.930916811929336 -13.974593104308717 #
point $-1 -74.772789696951207 -23.450210133513934 -13.974593104308717 #
straight-curve $-1 -74.772789696951207 -23.450210133513934 -5.8739495649280489 0 0 -1 I I #
straight-curve $-1 -74.772789696951207 -36.930916811929336 0 0 0 -1 I I #
straight-curve $-1 46.60265349147538 -17.073770008714064 14.47459310430871 -1 0 0 I I #
point $-1 74.772789696951207 -17.073770008714064 14.474593104308715 #
straight-curve $-1 70.395763735748233 -10.130995035557 14.47459310430871 0 -1 0 I I #
point $-1 70.395763735748233 -17.073770008714064 14.47459310430871 #
point $-1 71.435210039241298 -21.628370097856831 10.902243429236499 #
point $-1 71.435210039241298 -18.895610044371171 10.902243429236499 #
straight-curve $-1 -74.772789696951207 -15.899574809591883 61.48741046773933 0 0 -1 I I #
point $-1 -74.772789696951207 -15.899574809591883 14.474593104308715 #
straight-curve $-1 -74.772789696951207 -9.8374462357764543 5.1312971208055451 0 -1 0 I I #
point $-1 -74.772789696951207 -15.899574809591883 5.1312971208055478 #
point $-1 -67.248741129429177 -19.674892471552909 7.8259320342583365 #
End-of-ACIS-data 