500 0 15 0           
7 Unknown 11 ACIS 5.0 NT 24 Fri Mar 26 19:22:18 1999 
-1 9.9999999999999995e-007 1e-010 
body $-1 $15 $-1 $16 #
body $-1 $17 $-1 $18 #
body $-1 $19 $-1 $20 #
body $-1 $21 $-1 $22 #
body $-1 $23 $-1 $24 #
body $-1 $25 $-1 $26 #
body $-1 $27 $-1 $28 #
body $-1 $29 $-1 $30 #
body $-1 $31 $-1 $32 #
body $-1 $33 $-1 $34 #
body $-1 $35 $-1 $36 #
body $-1 $37 $-1 $38 #
body $-1 $39 $-1 $40 #
body $-1 $41 $-1 $42 #
body $-1 $43 $-1 $44 #
lump $-1 $-1 $45 $0 #
transform $-1 1 0 0 0 1 0 0 0 1 72.12988677632984 40.945658283043258 9.4419810781174611 1 rotate no_reflect no_shear #
lump $-1 $-1 $46 $1 #
transform $-1 1 0 0 0 1 0 0 0 1 72.12988677632984 40.945658283043258 9.4419810781174611 1 rotate no_reflect no_shear #
lump $-1 $-1 $47 $2 #
transform $-1 1 0 0 0 1 0 0 0 1 72.12988677632984 40.945658283043258 9.4419810781174611 1 rotate no_reflect no_shear #
lump $-1 $-1 $48 $3 #
transform $-1 1 0 0 0 1 0 0 0 1 72.12988677632984 40.945658283043258 9.4419810781174611 1 rotate no_reflect no_shear #
lump $-1 $-1 $49 $4 #
transform $-1 1 0 0 0 1 0 0 0 1 72.12988677632984 40.945658283043258 9.4419810781174611 1 rotate no_reflect no_shear #
lump $-1 $-1 $50 $5 #
transform $-1 1 0 0 0 1 0 0 0 1 72.12988677632984 40.945658283043258 9.4419810781174611 1 rotate no_reflect no_shear #
lump $-1 $-1 $51 $6 #
transform $-1 1 0 0 0 1 0 0 0 1 72.12988677632984 40.945658283043258 9.4419810781174611 1 rotate no_reflect no_shear #
lump $-1 $-1 $52 $7 #
transform $-1 1 0 0 0 1 0 0 0 1 72.12988677632984 40.945658283043258 9.4419810781174611 1 rotate no_reflect no_shear #
lump $-1 $-1 $53 $8 #
transform $-1 1 0 0 0 1 0 0 0 1 72.12988677632984 40.945658283043258 9.4419810781174611 1 rotate no_reflect no_shear #
lump $-1 $-1 $54 $9 #
transform $-1 1 0 0 0 1 0 0 0 1 72.12988677632984 40.945658283043258 9.4419810781174611 1 rotate no_reflect no_shear #
lump $-1 $-1 $55 $10 #
transform $-1 1 0 0 0 1 0 0 0 1 72.12988677632984 40.945658283043258 9.4419810781174611 1 rotate no_reflect no_shear #
lump $-1 $-1 $56 $11 #
transform $-1 1 0 0 0 1 0 0 0 1 72.12988677632984 40.945658283043258 9.4419810781174611 1 rotate no_reflect no_shear #
lump $-1 $-1 $57 $12 #
transform $-1 1 0 0 0 1 0 0 0 1 72.12988677632984 40.945658283043258 9.4419810781174611 1 rotate no_reflect no_shear #
lump $-1 $-1 $58 $13 #
transform $-1 1 0 0 0 1 0 0 0 1 72.12988677632984 40.945658283043258 9.4419810781174611 1 rotate no_reflect no_shear #
lump $-1 $-1 $59 $14 #
transform $-1 1 0 0 0 1 0 0 0 1 72.12988677632984 40.945658283043258 9.4419810781174611 1 rotate no_reflect no_shear #
shell $-1 $-1 $-1 $60 $-1 $15 #
shell $-1 $-1 $-1 $61 $-1 $17 #
shell $-1 $-1 $-1 $62 $-1 $19 #
shell $-1 $-1 $-1 $63 $-1 $21 #
shell $-1 $-1 $-1 $64 $-1 $23 #
shell $-1 $-1 $-1 $65 $-1 $25 #
shell $-1 $-1 $-1 $66 $-1 $27 #
shell $-1 $-1 $-1 $67 $-1 $29 #
shell $-1 $-1 $-1 $68 $-1 $31 #
shell $-1 $-1 $-1 $69 $-1 $33 #
shell $-1 $-1 $-1 $70 $-1 $35 #
shell $-1 $-1 $-1 $71 $-1 $37 #
shell $-1 $-1 $-1 $72 $-1 $39 #
shell $-1 $-1 $-1 $73 $-1 $41 #
shell $-1 $-1 $-1 $74 $-1 $43 #
face $-1 $75 $76 $45 $-1 $77 forward single #
face $-1 $78 $79 $46 $-1 $80 forward single #
face $-1 $81 $82 $47 $-1 $83 forward single #
face $-1 $84 $85 $48 $-1 $86 reversed single #
face $-1 $87 $88 $49 $-1 $89 forward single #
face $-1 $90 $91 $50 $-1 $92 forward single #
face $-1 $93 $94 $51 $-1 $95 reversed single #
face $-1 $96 $97 $52 $-1 $98 forward single #
face $-1 $99 $100 $53 $-1 $101 forward single #
face $-1 $102 $103 $54 $-1 $104 reversed single #
face $-1 $105 $106 $55 $-1 $107 forward single #
face $-1 $108 $109 $56 $-1 $110 forward single #
face $-1 $111 $112 $57 $-1 $113 reversed single #
face $-1 $114 $115 $58 $-1 $116 forward single #
face $-1 $117 $118 $59 $-1 $119 forward single #
face $-1 $120 $121 $45 $-1 $122 reversed single #
loop $-1 $-1 $123 $60 #
plane-surface $-1 0 0 9.4419810781174611 0 0 1 1 0 0 forward_v I I I I #
face $-1 $124 $125 $46 $-1 $126 reversed single #
loop $-1 $-1 $127 $61 #
plane-surface $-1 0 -35.019573928047912 1.2681901754636478 0 0 1 1 0 0 forward_v I I I I #
face $-1 $128 $129 $47 $-1 $130 reversed single #
loop $-1 $-1 $131 $62 #
plane-surface $-1 0 35.019573928047919 1.2681901754636478 0 0 1 1 0 0 forward_v I I I I #
face $-1 $132 $133 $48 $-1 $134 reversed single #
loop $-1 $-1 $135 $63 #
plane-surface $-1 -181.00412111299804 -12.187887646764745 99.064845149534932 0 -1 0 0.75470958851134928 0 -0.65605901945558964 forward_v I I I I #
face $-1 $136 $137 $49 $-1 $138 forward single #
loop $-1 $139 $140 $64 #
cone-surface $-1 -68.360272150594042 -20.53329545903248 5.5518027247989892 0.75470958851134928 0 -0.65605901945558964 0.98408852918338452 0 1.132064382767024 1 I I 0 1 1.5 forward I I I I #
face $-1 $141 $142 $50 $-1 $143 forward single #
loop $-1 $144 $145 $65 #
cone-surface $-1 -68.360272150594042 -15.526050771671837 5.5518027247989892 0.75470958851134928 0 -0.65605901945558964 0.98408852918338452 0 1.132064382767024 1 I I 0 1 1.5 forward I I I I #
face $-1 $146 $147 $51 $-1 $148 reversed single #
loop $-1 $-1 $149 $66 #
plane-surface $-1 -181.00412111299804 23.871458583939571 99.064845149534932 0 -1 0 0.75470958851134928 0 -0.65605901945558964 forward_v I I I I #
face $-1 $150 $151 $52 $-1 $152 forward single #
loop $-1 $153 $154 $67 #
cone-surface $-1 -68.360272150594042 15.526050771671834 5.5518027247989892 0.75470958851134928 0 -0.65605901945558964 0.98408852918338452 0 1.132064382767024 1 I I 0 1 1.5 forward I I I I #
face $-1 $155 $156 $53 $-1 $157 forward single #
loop $-1 $158 $159 $68 #
cone-surface $-1 -68.360272150594042 20.533295459032473 5.5518027247989892 0.75470958851134928 0 -0.65605901945558964 0.98408852918338452 0 1.132064382767024 1 I I 0 1 1.5 forward I I I I #
face $-1 $160 $161 $54 $-1 $162 reversed single #
loop $-1 $-1 $163 $69 #
plane-surface $-1 86.361195529154713 -23.871458583939578 207.93907948620313 0 1 0 0.75470958851134928 0 0.65605901945558964 forward_v I I I I #
face $-1 $164 $165 $55 $-1 $166 forward single #
loop $-1 $167 $168 $70 #
cone-surface $-1 68.360272150594042 -20.53329545903248 5.5518027247989981 -0.75470958851134928 0 -0.65605901945558964 0.98408852918338452 0 -1.132064382767024 1 I I 0 1 1.5 forward I I I I #
face $-1 $169 $170 $56 $-1 $171 forward single #
loop $-1 $172 $173 $71 #
cone-surface $-1 68.360272150594042 -15.526050771671837 5.5518027247989981 -0.75470958851134928 0 -0.65605901945558964 0.98408852918338452 0 -1.132064382767024 1 I I 0 1 1.5 forward I I I I #
face $-1 $174 $175 $57 $-1 $176 reversed single #
loop $-1 $-1 $177 $72 #
plane-surface $-1 86.361195529154713 12.187887646764738 207.93907948620313 0 1 0 0.75470958851134928 0 0.65605901945558964 forward_v I I I I #
face $-1 $178 $179 $58 $-1 $180 forward single #
loop $-1 $181 $182 $73 #
cone-surface $-1 68.360272150594042 15.526050771671834 5.5518027247989981 -0.75470958851134928 0 -0.65605901945558964 0.98408852918338452 0 -1.132064382767024 1 I I 0 1 1.5 forward I I I I #
face $-1 $183 $184 $59 $-1 $185 forward single #
loop $-1 $186 $187 $74 #
cone-surface $-1 68.360272150594042 20.533295459032473 5.5518027247989981 -0.75470958851134928 0 -0.65605901945558964 0.98408852918338452 0 -1.132064382767024 1 I I 0 1 1.5 forward I I I I #
face $-1 $188 $189 $45 $-1 $190 reversed single #
loop $-1 $-1 $191 $75 #
plane-surface $-1 0 0 -9.4419810781174611 0 0 1 1 0 0 forward_v I I I I #
coedge $-1 $192 $193 $194 $195 forward $76 $-1 #
face $-1 $196 $197 $46 $-1 $198 reversed single #
loop $-1 $-1 $199 $78 #
plane-surface $-1 0 -35.019573928047912 -3.4687929765848438 0 0 1 1 0 0 forward_v I I I I #
coedge $-1 $200 $201 $202 $203 reversed $79 $-1 #
face $-1 $204 $205 $47 $-1 $206 reversed single #
loop $-1 $-1 $207 $81 #
plane-surface $-1 0 35.019573928047919 -3.4687929765848438 0 0 1 1 0 0 forward_v I I I I #
coedge $-1 $208 $209 $210 $211 reversed $82 $-1 #
face $-1 $212 $213 $48 $-1 $214 reversed single #
loop $-1 $-1 $215 $84 #
plane-surface $-1 -72.129886776329826 -18.029673115352161 4.4219195656916241 -0.75470958851134928 0 0.65605901945558964 0.65605901945558964 0 0.75470958851134928 forward_v I I I I #
coedge $-1 $216 $217 $218 $219 reversed $85 $-1 #
face $-1 $-1 $220 $49 $-1 $221 forward single #
loop $-1 $222 $223 $87 #
cone-surface $-1 -66.206561725686953 -20.53329545903248 3.6796108631017379 0.75470958851134928 0 -0.65605901945558964 0.49204426459169226 0 0.56603219138351202 1 I I -0.70710678118654757 0.70710678118654757 0.75 forward I I I I #
loop $-1 $-1 $224 $64 #
coedge $-1 $140 $140 $225 $226 reversed $88 $-1 #
face $-1 $-1 $227 $50 $-1 $228 forward single #
loop $-1 $229 $230 $90 #
cone-surface $-1 -66.206561725686953 -15.526050771671837 3.6796108631017379 0.75470958851134928 0 -0.65605901945558964 0.49204426459169226 0 0.56603219138351202 1 I I -0.70710678118654757 0.70710678118654757 0.75 forward I I I I #
loop $-1 $-1 $231 $65 #
coedge $-1 $145 $145 $232 $233 reversed $91 $-1 #
face $-1 $234 $235 $51 $-1 $236 reversed single #
loop $-1 $-1 $237 $93 #
plane-surface $-1 -72.129886776329826 18.029673115352153 4.4219195656916241 -0.75470958851134928 0 0.65605901945558964 0.65605901945558964 0 0.75470958851134928 forward_v I I I I #
coedge $-1 $238 $239 $240 $241 reversed $94 $-1 #
face $-1 $-1 $242 $52 $-1 $243 forward single #
loop $-1 $244 $245 $96 #
cone-surface $-1 -66.206561725686953 15.526050771671834 3.6796108631017379 0.75470958851134928 0 -0.65605901945558964 0.49204426459169226 0 0.56603219138351202 1 I I -0.70710678118654757 0.70710678118654757 0.75 forward I I I I #
loop $-1 $-1 $246 $67 #
coedge $-1 $154 $154 $247 $248 reversed $97 $-1 #
face $-1 $-1 $249 $53 $-1 $250 forward single #
loop $-1 $251 $252 $99 #
cone-surface $-1 -66.206561725686953 20.533295459032473 3.6796108631017379 0.75470958851134928 0 -0.65605901945558964 0.49204426459169226 0 0.56603219138351202 1 I I -0.70710678118654757 0.70710678118654757 0.75 forward I I I I #
loop $-1 $-1 $253 $68 #
coedge $-1 $159 $159 $254 $255 reversed $100 $-1 #
face $-1 $256 $257 $54 $-1 $258 reversed single #
loop $-1 $-1 $259 $102 #
plane-surface $-1 -22.513038807513496 -18.029673115352161 113.29615390235982 0.75470958851134928 0 0.65605901945558964 0.65605901945558964 0 -0.75470958851134928 forward_v I I I I #
coedge $-1 $260 $261 $262 $263 reversed $103 $-1 #
face $-1 $-1 $264 $55 $-1 $265 forward single #
loop $-1 $266 $267 $105 #
cone-surface $-1 66.206561725686953 -20.53329545903248 3.6796108631017468 -0.75470958851134928 0 -0.65605901945558964 0.49204426459169226 0 -0.56603219138351202 1 I I -0.70710678118654757 0.70710678118654757 0.75 forward I I I I #
loop $-1 $-1 $268 $70 #
coedge $-1 $168 $168 $269 $270 reversed $106 $-1 #
face $-1 $-1 $271 $56 $-1 $272 forward single #
loop $-1 $273 $274 $108 #
cone-surface $-1 66.206561725686953 -15.526050771671837 3.6796108631017468 -0.75470958851134928 0 -0.65605901945558964 0.49204426459169226 0 -0.56603219138351202 1 I I -0.70710678118654757 0.70710678118654757 0.75 forward I I I I #
loop $-1 $-1 $275 $71 #
coedge $-1 $173 $173 $276 $277 reversed $109 $-1 #
face $-1 $278 $279 $57 $-1 $280 reversed single #
loop $-1 $-1 $281 $111 #
plane-surface $-1 -22.513038807513496 18.029673115352153 113.29615390235982 0.75470958851134928 0 0.65605901945558964 0.65605901945558964 0 -0.75470958851134928 forward_v I I I I #
coedge $-1 $282 $283 $284 $285 reversed $112 $-1 #
face $-1 $-1 $286 $58 $-1 $287 forward single #
loop $-1 $288 $289 $114 #
cone-surface $-1 66.206561725686953 15.526050771671834 3.6796108631017468 -0.75470958851134928 0 -0.65605901945558964 0.49204426459169226 0 -0.56603219138351202 1 I I -0.70710678118654757 0.70710678118654757 0.75 forward I I I I #
loop $-1 $-1 $290 $73 #
coedge $-1 $182 $182 $291 $292 reversed $115 $-1 #
face $-1 $-1 $293 $59 $-1 $294 forward single #
loop $-1 $295 $296 $117 #
cone-surface $-1 66.206561725686953 20.533295459032473 3.6796108631017468 -0.75470958851134928 0 -0.65605901945558964 0.49204426459169226 0 -0.56603219138351202 1 I I -0.70710678118654757 0.70710678118654757 0.75 forward I I I I #
loop $-1 $-1 $297 $74 #
coedge $-1 $187 $187 $298 $299 reversed $118 $-1 #
face $-1 $300 $301 $45 $-1 $302 reversed single #
loop $-1 $-1 $303 $120 #
plane-surface $-1 0 -40.945658283043258 0 0 1 0 0 0 1 forward_v I I I I #
coedge $-1 $304 $305 $306 $307 forward $121 $-1 #
coedge $-1 $308 $123 $309 $310 forward $76 $-1 #
coedge $-1 $123 $308 $311 $312 forward $76 $-1 #
coedge $-1 $313 $314 $123 $195 reversed $315 $-1 #
edge $-1 $316 -40.945658283043258 $317 40.945658283043258 $194 $318 forward 7 unknown #
face $-1 $319 $320 $46 $-1 $321 reversed single #
loop $-1 $-1 $322 $124 #
plane-surface $-1 0 -29.093489573052565 -1.100301400560598 0 -1 0 0 0 -1 forward_v I I I I #
coedge $-1 $323 $324 $325 $326 reversed $125 $-1 #
coedge $-1 $327 $127 $328 $329 forward $79 $-1 #
coedge $-1 $127 $327 $330 $331 reversed $79 $-1 #
coedge $-1 $332 $333 $127 $203 forward $334 $-1 #
edge $-1 $335 11.583702609028609 $336 23.435871319019302 $202 $337 forward 7 unknown #
face $-1 $338 $339 $47 $-1 $340 reversed single #
loop $-1 $-1 $341 $128 #
plane-surface $-1 0 29.093489573052572 -1.100301400560598 0 1 0 0 0 1 forward_v I I I I #
coedge $-1 $342 $343 $344 $345 reversed $129 $-1 #
coedge $-1 $346 $131 $347 $348 reversed $82 $-1 #
coedge $-1 $131 $346 $349 $350 forward $82 $-1 #
coedge $-1 $351 $352 $131 $211 forward $339 $-1 #
edge $-1 $353 -23.435871319019306 $354 -11.583702609028613 $210 $355 forward 7 unknown #
face $-1 $356 $357 $48 $-1 $358 reversed single #
loop $-1 $-1 $359 $132 #
plane-surface $-1 -181.00412111299804 -23.871458583939578 99.064845149534932 0 1 0 -0.75470958851134928 0 0.65605901945558964 forward_v I I I I #
coedge $-1 $360 $361 $362 $363 reversed $133 $-1 #
coedge $-1 $217 $135 $364 $365 reversed $85 $-1 #
coedge $-1 $135 $216 $360 $366 reversed $85 $-1 #
coedge $-1 $362 $367 $135 $219 forward $357 $-1 #
edge $-1 $368 40.090441496650001 $369 45.110503009075856 $218 $370 forward 7 unknown #
loop $-1 $-1 $225 $136 #
plane-surface $-1 -72.129886776329826 -18.029673115352161 4.4219195656916241 -0.75470958851134928 0 0.65605901945558964 0.65605901945558964 0 0.75470958851134928 forward_v I I I I #
loop $-1 $-1 $371 $87 #
coedge $-1 $223 $223 $224 $372 reversed $137 $-1 #
coedge $-1 $224 $224 $223 $372 forward $139 $-1 #
coedge $-1 $225 $225 $140 $226 forward $220 $-1 #
edge $-1 $373 0 $373 6.2831853071796004 $225 $374 forward 7 unknown #
loop $-1 $-1 $232 $141 #
plane-surface $-1 -72.129886776329826 -18.029673115352161 4.4219195656916241 -0.75470958851134928 0 0.65605901945558964 0.65605901945558964 0 0.75470958851134928 forward_v I I I I #
loop $-1 $-1 $375 $90 #
coedge $-1 $230 $230 $231 $376 reversed $142 $-1 #
coedge $-1 $231 $231 $230 $376 forward $144 $-1 #
coedge $-1 $232 $232 $145 $233 forward $227 $-1 #
edge $-1 $377 0 $377 6.2831853071796004 $232 $378 forward 7 unknown #
face $-1 $379 $380 $51 $-1 $381 forward single #
loop $-1 $-1 $382 $146 #
plane-surface $-1 -181.00412111299804 12.187887646764738 99.064845149534932 0 1 0 -0.75470958851134928 0 0.65605901945558964 forward_v I I I I #
coedge $-1 $383 $384 $385 $386 reversed $147 $-1 #
coedge $-1 $239 $149 $387 $388 reversed $94 $-1 #
coedge $-1 $149 $238 $383 $389 reversed $94 $-1 #
coedge $-1 $385 $390 $149 $241 forward $391 $-1 #
edge $-1 $392 40.090441496650001 $393 45.110503009075856 $240 $394 forward 7 unknown #
loop $-1 $-1 $247 $150 #
plane-surface $-1 -72.129886776329826 18.029673115352153 4.4219195656916241 -0.75470958851134928 0 0.65605901945558964 0.65605901945558964 0 0.75470958851134928 forward_v I I I I #
loop $-1 $-1 $395 $96 #
coedge $-1 $245 $245 $246 $396 reversed $151 $-1 #
coedge $-1 $246 $246 $245 $396 forward $153 $-1 #
coedge $-1 $247 $247 $154 $248 forward $242 $-1 #
edge $-1 $397 0 $397 6.2831853071796004 $247 $398 forward 7 unknown #
loop $-1 $-1 $254 $155 #
plane-surface $-1 -72.129886776329826 18.029673115352153 4.4219195656916241 -0.75470958851134928 0 0.65605901945558964 0.65605901945558964 0 0.75470958851134928 forward_v I I I I #
loop $-1 $-1 $399 $99 #
coedge $-1 $252 $252 $253 $400 reversed $156 $-1 #
coedge $-1 $253 $253 $252 $400 forward $158 $-1 #
coedge $-1 $254 $254 $159 $255 forward $249 $-1 #
edge $-1 $401 0 $401 6.2831853071796004 $254 $402 forward 7 unknown #
face $-1 $403 $404 $54 $-1 $405 forward single #
loop $-1 $-1 $406 $160 #
plane-surface $-1 86.361195529154713 -12.187887646764745 207.93907948620313 0 -1 0 -0.75470958851134928 0 -0.65605901945558964 forward_v I I I I #
coedge $-1 $407 $408 $409 $410 reversed $161 $-1 #
coedge $-1 $261 $163 $411 $412 reversed $103 $-1 #
coedge $-1 $163 $260 $407 $413 reversed $103 $-1 #
coedge $-1 $409 $414 $163 $263 forward $415 $-1 #
edge $-1 $416 94.527558664984099 $417 99.547620177409982 $262 $418 forward 7 unknown #
loop $-1 $-1 $269 $164 #
plane-surface $-1 -22.513038807513496 -18.029673115352161 113.29615390235982 0.75470958851134928 0 0.65605901945558964 0.65605901945558964 0 -0.75470958851134928 forward_v I I I I #
loop $-1 $-1 $419 $105 #
coedge $-1 $267 $267 $268 $420 reversed $165 $-1 #
coedge $-1 $268 $268 $267 $420 forward $167 $-1 #
coedge $-1 $269 $269 $168 $270 forward $264 $-1 #
edge $-1 $421 0 $421 6.2831853071796004 $269 $422 forward 7 unknown #
loop $-1 $-1 $276 $169 #
plane-surface $-1 -22.513038807513496 -18.029673115352161 113.29615390235982 0.75470958851134928 0 0.65605901945558964 0.65605901945558964 0 -0.75470958851134928 forward_v I I I I #
loop $-1 $-1 $423 $108 #
coedge $-1 $274 $274 $275 $424 reversed $170 $-1 #
coedge $-1 $275 $275 $274 $424 forward $172 $-1 #
coedge $-1 $276 $276 $173 $277 forward $271 $-1 #
edge $-1 $425 0 $425 6.2831853071796004 $276 $426 forward 7 unknown #
face $-1 $427 $428 $57 $-1 $429 reversed single #
loop $-1 $-1 $430 $174 #
plane-surface $-1 86.361195529154713 23.871458583939571 207.93907948620313 0 -1 0 -0.75470958851134928 0 -0.65605901945558964 forward_v I I I I #
coedge $-1 $431 $432 $433 $434 reversed $175 $-1 #
coedge $-1 $283 $177 $435 $436 reversed $112 $-1 #
coedge $-1 $177 $282 $431 $437 reversed $112 $-1 #
coedge $-1 $433 $438 $177 $285 forward $428 $-1 #
edge $-1 $439 94.527558664984099 $440 99.547620177409982 $284 $441 forward 7 unknown #
loop $-1 $-1 $291 $178 #
plane-surface $-1 -22.513038807513496 18.029673115352153 113.29615390235982 0.75470958851134928 0 0.65605901945558964 0.65605901945558964 0 -0.75470958851134928 forward_v I I I I #
loop $-1 $-1 $442 $114 #
coedge $-1 $289 $289 $290 $443 reversed $179 $-1 #
coedge $-1 $290 $290 $289 $443 forward $181 $-1 #
coedge $-1 $291 $291 $182 $292 forward $286 $-1 #
edge $-1 $444 0 $444 6.2831853071796004 $291 $445 forward 7 unknown #
loop $-1 $-1 $298 $183 #
plane-surface $-1 -22.513038807513496 18.029673115352153 113.29615390235982 0.75470958851134928 0 0.65605901945558964 0.65605901945558964 0 -0.75470958851134928 forward_v I I I I #
loop $-1 $-1 $446 $117 #
coedge $-1 $296 $296 $297 $447 reversed $184 $-1 #
coedge $-1 $297 $297 $296 $447 forward $186 $-1 #
coedge $-1 $298 $298 $187 $299 forward $293 $-1 #
edge $-1 $448 0 $448 6.2831853071796004 $298 $449 forward 7 unknown #
face $-1 $450 $451 $45 $-1 $452 reversed single #
loop $-1 $-1 $453 $188 #
plane-surface $-1 -72.12988677632984 0 0 1 0 0 0 0 -1 forward_v I I I I #
coedge $-1 $454 $311 $455 $456 forward $189 $-1 #
coedge $-1 $457 $191 $454 $458 forward $121 $-1 #
coedge $-1 $191 $457 $459 $460 forward $121 $-1 #
coedge $-1 $314 $313 $191 $307 reversed $315 $-1 #
edge $-1 $461 -40.945658283043258 $462 40.945658283043258 $306 $463 forward 7 unknown #
coedge $-1 $193 $192 $464 $465 forward $76 $-1 #
coedge $-1 $466 $467 $192 $310 reversed $451 $-1 #
edge $-1 $317 -72.12988677632984 $468 72.12988677632984 $309 $469 forward 7 unknown #
coedge $-1 $303 $470 $193 $312 reversed $189 $-1 #
edge $-1 $471 -72.12988677632984 $316 72.12988677632984 $311 $472 forward 7 unknown #
coedge $-1 $306 $194 $470 $473 forward $315 $-1 #
coedge $-1 $194 $306 $466 $474 reversed $315 $-1 #
loop $-1 $-1 $313 $450 #
vertex $-1 $195 $475 #
vertex $-1 $195 $476 #
straight-curve $-1 72.12988677632984 0 9.4419810781174611 0 1 0 I I #
face $-1 $477 $478 $46 $-1 $479 reversed single #
loop $-1 $-1 $480 $196 #
plane-surface $-1 -72.12988677632984 0 0 1 0 0 0 0 -1 forward_v I I I I #
coedge $-1 $481 $328 $333 $482 reversed $197 $-1 #
coedge $-1 $483 $199 $484 $485 reversed $125 $-1 #
coedge $-1 $199 $483 $481 $486 forward $125 $-1 #
coedge $-1 $333 $332 $199 $326 forward $334 $-1 #
edge $-1 $487 -23.435871319019302 $488 -11.583702609028609 $325 $489 forward 7 unknown #
coedge $-1 $201 $200 $480 $490 reversed $79 $-1 #
coedge $-1 $322 $491 $200 $329 reversed $197 $-1 #
edge $-1 $335 -72.12988677632984 $492 72.12988677632984 $328 $493 forward 7 unknown #
coedge $-1 $494 $495 $201 $331 forward $478 $-1 #
edge $-1 $336 -72.12988677632984 $496 72.12988677632984 $330 $497 forward 7 unknown #
coedge $-1 $325 $202 $495 $498 forward $334 $-1 #
coedge $-1 $202 $325 $322 $482 forward $334 $-1 #
loop $-1 $-1 $202 $477 #
vertex $-1 $203 $499 #
vertex $-1 $498 $500 #
straight-curve $-1 72.12988677632984 -17.509786964023956 1.2681901754636478 0 -1 0 I I #
face $-1 $501 $502 $47 $-1 $503 reversed single #
loop $-1 $-1 $210 $204 #
plane-surface $-1 72.12988677632984 0 0 -1 0 0 0 0 1 forward_v I I I I #
coedge $-1 $504 $349 $505 $506 reversed $205 $-1 #
coedge $-1 $507 $207 $504 $508 forward $129 $-1 #
coedge $-1 $207 $507 $509 $510 reversed $129 $-1 #
coedge $-1 $352 $351 $207 $345 forward $339 $-1 #
edge $-1 $511 11.583702609028613 $512 23.435871319019306 $344 $513 forward 7 unknown #
coedge $-1 $209 $208 $514 $515 reversed $82 $-1 #
coedge $-1 $516 $517 $208 $348 forward $518 $-1 #
edge $-1 $519 -72.12988677632984 $353 72.12988677632984 $347 $520 forward 7 unknown #
coedge $-1 $341 $521 $209 $350 reversed $205 $-1 #
edge $-1 $522 -72.12988677632984 $354 72.12988677632984 $349 $523 forward 7 unknown #
coedge $-1 $344 $210 $521 $524 forward $339 $-1 #
coedge $-1 $210 $344 $516 $525 reversed $339 $-1 #
vertex $-1 $525 $526 #
vertex $-1 $211 $527 #
straight-curve $-1 72.12988677632984 17.509786964023959 1.2681901754636478 0 -1 0 I I #
face $-1 $-1 $528 $48 $-1 $529 forward single #
loop $-1 $-1 $218 $212 #
plane-surface $-1 -72.12988677632984 0 0 1 0 0 0 0 -1 forward_v I I I I #
coedge $-1 $530 $531 $532 $533 reversed $213 $-1 #
coedge $-1 $534 $215 $217 $366 forward $133 $-1 #
coedge $-1 $215 $534 $530 $535 forward $133 $-1 #
coedge $-1 $532 $218 $215 $363 forward $357 $-1 #
edge $-1 $369 3.1730510890886645 $536 14.856622026263498 $362 $537 forward 7 unknown #
coedge $-1 $538 $539 $216 $365 forward $528 $-1 #
edge $-1 $540 -22.736046564593622 $368 -18.372173780169177 $364 $541 forward 7 unknown #
edge $-1 $369 -2.1388861263899031e-014 $540 6.651646658322993 $217 $542 forward 7 unknown #
coedge $-1 $218 $532 $538 $543 reversed $357 $-1 #
vertex $-1 $543 $544 #
vertex $-1 $219 $545 #
straight-curve $-1 -72.12988677632984 -12.187887646764745 49.532422574767466 0 0 -1 I I #
coedge $-1 $371 $371 $-1 $546 reversed $222 $-1 #
edge $-1 $547 0 $547 6.2831853071796004 $223 $548 forward 7 unknown #
vertex $-1 $226 $549 #
ellipse-curve $-1 -69.947950384117618 -20.53329545903248 6.9319503219045391 -0.75470958851134928 0 0.65605901945558964 0.98408852918338452 0 1.132064382767024 1 I I #
coedge $-1 $375 $375 $-1 $550 reversed $229 $-1 #
edge $-1 $551 0 $551 6.2831853071796004 $230 $552 forward 7 unknown #
vertex $-1 $233 $553 #
ellipse-curve $-1 -69.947950384117618 -15.526050771671837 6.9319503219045391 -0.75470958851134928 0 0.65605901945558964 0.98408852918338452 0 1.132064382767024 1 I I #
face $-1 $-1 $391 $51 $-1 $554 reversed single #
loop $-1 $-1 $555 $234 #
plane-surface $-1 0 0 9.4419810781174611 0 0 1 1 0 0 forward_v I I I I #
coedge $-1 $556 $557 $558 $559 reversed $235 $-1 #
coedge $-1 $560 $237 $239 $389 forward $147 $-1 #
coedge $-1 $237 $560 $556 $561 forward $147 $-1 #
coedge $-1 $558 $240 $237 $386 forward $391 $-1 #
edge $-1 $393 -14.856622026263494 $562 -3.173051089088661 $385 $563 forward 7 unknown #
coedge $-1 $564 $565 $238 $388 forward $380 $-1 #
edge $-1 $566 -22.736046564593622 $392 -18.372173780169177 $387 $567 forward 7 unknown #
edge $-1 $393 -2.1388861263899031e-014 $566 6.651646658322993 $239 $568 forward 7 unknown #
coedge $-1 $240 $558 $564 $569 reversed $391 $-1 #
loop $-1 $-1 $558 $379 #
vertex $-1 $569 $570 #
vertex $-1 $241 $571 #
straight-curve $-1 -72.12988677632984 23.871458583939571 49.532422574767466 0 0 -1 I I #
coedge $-1 $395 $395 $-1 $572 reversed $244 $-1 #
edge $-1 $573 0 $573 6.2831853071796004 $245 $574 forward 7 unknown #
vertex $-1 $248 $575 #
ellipse-curve $-1 -69.947950384117618 15.526050771671834 6.9319503219045391 -0.75470958851134928 0 0.65605901945558964 0.98408852918338452 0 1.132064382767024 1 I I #
coedge $-1 $399 $399 $-1 $576 reversed $251 $-1 #
edge $-1 $577 0 $577 6.2831853071796004 $252 $578 forward 7 unknown #
vertex $-1 $255 $579 #
ellipse-curve $-1 -69.947950384117618 20.533295459032473 6.9319503219045391 -0.75470958851134928 0 0.65605901945558964 0.98408852918338452 0 1.132064382767024 1 I I #
face $-1 $-1 $415 $54 $-1 $580 reversed single #
loop $-1 $-1 $581 $256 #
plane-surface $-1 0 0 9.4419810781174611 0 0 1 1 0 0 forward_v I I I I #
coedge $-1 $582 $583 $584 $585 reversed $257 $-1 #
coedge $-1 $586 $259 $261 $413 forward $161 $-1 #
coedge $-1 $259 $586 $582 $587 forward $161 $-1 #
coedge $-1 $584 $262 $259 $410 forward $415 $-1 #
edge $-1 $417 -14.856622026263498 $588 -3.1730510890886645 $409 $589 forward 7 unknown #
coedge $-1 $590 $591 $260 $412 forward $404 $-1 #
edge $-1 $592 24.585416227328011 $416 28.949289011752484 $411 $593 forward 7 unknown #
edge $-1 $417 -144.25977355265977 $592 -137.60812689433669 $261 $594 forward 7 unknown #
coedge $-1 $262 $584 $590 $595 reversed $415 $-1 #
loop $-1 $-1 $584 $403 #
vertex $-1 $595 $596 #
vertex $-1 $263 $597 #
straight-curve $-1 72.12988677632984 -23.871458583939578 103.96953974310156 0 0 -1 I I #
coedge $-1 $419 $419 $-1 $598 reversed $266 $-1 #
edge $-1 $599 0 $599 6.2831853071796004 $267 $600 forward 7 unknown #
vertex $-1 $270 $601 #
ellipse-curve $-1 69.94795038411759 -20.53329545903248 6.931950321904532 0.75470958851134928 0 0.65605901945558964 0.98408852918338452 0 -1.132064382767024 1 I I #
coedge $-1 $423 $423 $-1 $602 reversed $273 $-1 #
edge $-1 $603 0 $603 6.2831853071796004 $274 $604 forward 7 unknown #
vertex $-1 $277 $605 #
ellipse-curve $-1 69.94795038411759 -15.526050771671837 6.931950321904532 0.75470958851134928 0 0.65605901945558964 0.98408852918338452 0 -1.132064382767024 1 I I #
face $-1 $-1 $606 $57 $-1 $607 forward single #
loop $-1 $-1 $284 $278 #
plane-surface $-1 72.12988677632984 0 0 -1 0 0 0 0 1 forward_v I I I I #
coedge $-1 $608 $609 $610 $611 reversed $279 $-1 #
coedge $-1 $612 $281 $283 $437 forward $175 $-1 #
coedge $-1 $281 $612 $608 $613 forward $175 $-1 #
coedge $-1 $610 $284 $281 $434 forward $428 $-1 #
edge $-1 $440 3.173051089088661 $614 14.856622026263494 $433 $615 forward 7 unknown #
coedge $-1 $616 $617 $282 $436 forward $606 $-1 #
edge $-1 $618 24.585416227328011 $439 28.949289011752484 $435 $619 forward 7 unknown #
edge $-1 $440 -144.25977355265977 $618 -137.60812689433669 $283 $620 forward 7 unknown #
coedge $-1 $284 $610 $616 $621 reversed $428 $-1 #
vertex $-1 $621 $622 #
vertex $-1 $285 $623 #
straight-curve $-1 72.12988677632984 12.187887646764738 103.96953974310156 0 0 -1 I I #
coedge $-1 $442 $442 $-1 $624 reversed $288 $-1 #
edge $-1 $625 0 $625 6.2831853071796004 $289 $626 forward 7 unknown #
vertex $-1 $292 $627 #
ellipse-curve $-1 69.94795038411759 15.526050771671834 6.931950321904532 0.75470958851134928 0 0.65605901945558964 0.98408852918338452 0 -1.132064382767024 1 I I #
coedge $-1 $446 $446 $-1 $628 reversed $295 $-1 #
edge $-1 $629 0 $629 6.2831853071796004 $296 $630 forward 7 unknown #
vertex $-1 $299 $631 #
ellipse-curve $-1 69.94795038411759 20.533295459032473 6.931950321904532 0.75470958851134928 0 0.65605901945558964 0.98408852918338452 0 -1.132064382767024 1 I I #
face $-1 $-1 $315 $45 $-1 $632 reversed single #
loop $-1 $-1 $466 $300 #
plane-surface $-1 0 40.945658283043258 0 0 -1 0 0 0 -1 forward_v I I I I #
coedge $-1 $633 $464 $467 $634 forward $301 $-1 #
coedge $-1 $470 $303 $304 $458 reversed $189 $-1 #
coedge $-1 $464 $633 $303 $456 reversed $301 $-1 #
edge $-1 $471 -9.4419810781174611 $635 9.4419810781174611 $455 $636 forward 7 unknown #
coedge $-1 $305 $304 $633 $637 forward $121 $-1 #
edge $-1 $462 -72.12988677632984 $635 72.12988677632984 $454 $638 forward 7 unknown #
coedge $-1 $467 $466 $305 $460 reversed $451 $-1 #
edge $-1 $639 -72.12988677632984 $461 72.12988677632984 $459 $640 forward 7 unknown #
vertex $-1 $307 $641 #
vertex $-1 $473 $642 #
straight-curve $-1 72.12988677632984 0 -9.4419810781174611 0 -1 0 I I #
coedge $-1 $453 $455 $308 $465 reversed $301 $-1 #
edge $-1 $468 -40.945658283043258 $471 40.945658283043258 $464 $643 forward 7 unknown #
coedge $-1 $459 $309 $314 $474 forward $451 $-1 #
coedge $-1 $309 $459 $453 $634 reversed $451 $-1 #
vertex $-1 $310 $644 #
straight-curve $-1 0 40.945658283043258 9.4419810781174611 -1 0 0 I I #
coedge $-1 $311 $454 $313 $473 reversed $189 $-1 #
vertex $-1 $465 $645 #
straight-curve $-1 0 -40.945658283043258 9.4419810781174611 1 0 0 I I #
edge $-1 $316 -9.4419810781174611 $462 9.4419810781174611 $313 $646 forward 7 unknown #
edge $-1 $317 -9.4419810781174611 $461 9.4419810781174611 $314 $647 forward 7 unknown #
point $-1 72.12988677632984 -40.945658283043258 9.4419810781174611 #
point $-1 72.12988677632984 40.945658283043258 9.4419810781174611 #
face $-1 $-1 $334 $46 $-1 $648 reversed single #
loop $-1 $-1 $330 $319 #
plane-surface $-1 0 -40.945658283043258 0 0 1 0 0 0 1 forward_v I I I I #
coedge $-1 $649 $650 $327 $490 forward $320 $-1 #
coedge $-1 $491 $322 $324 $486 reversed $197 $-1 #
edge $-1 $488 -2.9186422763045448 $335 1.8183408757439468 $333 $651 forward 7 unknown #
coedge $-1 $324 $323 $652 $653 reversed $125 $-1 #
coedge $-1 $495 $494 $323 $485 forward $478 $-1 #
edge $-1 $654 -72.12988677632984 $487 72.12988677632984 $484 $655 forward 7 unknown #
edge $-1 $656 -72.12988677632984 $488 72.12988677632984 $481 $657 forward 7 unknown #
vertex $-1 $485 $658 #
vertex $-1 $326 $659 #
straight-curve $-1 72.12988677632984 -17.509786964023956 -3.4687929765848438 0 1 0 I I #
edge $-1 $496 -23.435871319019302 $492 -11.583702609028609 $480 $660 forward 7 unknown #
coedge $-1 $328 $481 $649 $661 reversed $197 $-1 #
vertex $-1 $490 $662 #
straight-curve $-1 0 -29.093489573052565 1.2681901754636478 -1 0 0 I I #
coedge $-1 $484 $330 $650 $663 forward $478 $-1 #
coedge $-1 $330 $484 $332 $498 reversed $478 $-1 #
vertex $-1 $663 $664 #
straight-curve $-1 0 -40.945658283043258 1.2681901754636478 -1 0 0 I I #
edge $-1 $336 -1.2681901754636478 $487 3.4687929765848438 $332 $665 forward 7 unknown #
point $-1 72.12988677632984 -29.093489573052565 1.2681901754636478 #
point $-1 72.12988677632984 -40.945658283043258 1.2681901754636478 #
face $-1 $-1 $518 $47 $-1 $666 reversed single #
loop $-1 $-1 $514 $338 #
plane-surface $-1 -72.12988677632984 0 0 1 0 0 0 0 -1 forward_v I I I I #
coedge $-1 $521 $341 $342 $508 reversed $205 $-1 #
coedge $-1 $514 $667 $341 $506 forward $502 $-1 #
edge $-1 $668 -2.9186422763045448 $522 1.8183408757439468 $505 $669 forward 7 unknown #
coedge $-1 $343 $342 $667 $670 reversed $129 $-1 #
edge $-1 $511 -72.12988677632984 $668 72.12988677632984 $504 $671 forward 7 unknown #
coedge $-1 $517 $516 $343 $510 forward $518 $-1 #
edge $-1 $512 -72.12988677632984 $672 72.12988677632984 $509 $673 forward 7 unknown #
vertex $-1 $345 $674 #
vertex $-1 $510 $675 #
straight-curve $-1 72.12988677632984 17.509786964023959 -3.4687929765848438 0 1 0 I I #
coedge $-1 $676 $505 $346 $515 forward $502 $-1 #
edge $-1 $522 11.583702609028613 $519 23.435871319019306 $514 $677 forward 7 unknown #
coedge $-1 $509 $347 $352 $525 forward $518 $-1 #
coedge $-1 $347 $509 $676 $678 reversed $518 $-1 #
loop $-1 $-1 $347 $501 #
vertex $-1 $678 $679 #
straight-curve $-1 0 40.945658283043258 1.2681901754636478 1 0 0 I I #
coedge $-1 $349 $504 $351 $524 reversed $205 $-1 #
vertex $-1 $515 $680 #
straight-curve $-1 0 29.093489573052572 1.2681901754636478 1 0 0 I I #
edge $-1 $354 -1.8183408757439468 $511 2.9186422763045448 $351 $681 forward 7 unknown #
edge $-1 $353 -1.2681901754636478 $512 3.4687929765848438 $352 $682 forward 7 unknown #
point $-1 72.12988677632984 40.945658283043265 1.2681901754636478 #
point $-1 72.12988677632984 29.093489573052572 1.2681901754636478 #
loop $-1 $-1 $364 $356 #
plane-surface $-1 0 0 9.4419810781174611 0 0 1 1 0 0 forward_v I I I I #
coedge $-1 $531 $359 $361 $535 reversed $213 $-1 #
coedge $-1 $359 $530 $683 $684 reversed $213 $-1 #
coedge $-1 $367 $362 $359 $533 forward $357 $-1 #
edge $-1 $536 -45.110503009075856 $685 -40.090441496650001 $532 $686 forward 7 unknown #
coedge $-1 $361 $360 $539 $687 reversed $133 $-1 #
edge $-1 $688 -6.651646658322993 $536 2.1388861263899031e-014 $530 $689 forward 7 unknown #
vertex $-1 $363 $690 #
straight-curve $-1 -72.12988677632984 -9.0148365576760803 4.4219195656916224 0 -1 0 I I #
coedge $-1 $683 $364 $367 $543 forward $528 $-1 #
coedge $-1 $364 $683 $534 $687 forward $528 $-1 #
vertex $-1 $365 $691 #
straight-curve $-1 -90.502060556499018 -12.187887646764745 9.4419810781174647 -1 0 0 I I #
straight-curve $-1 -72.129886776329826 -12.187887646764745 4.4219195656916241 0.65605901945558964 0 0.75470958851134928 I I #
edge $-1 $368 12.187887646764745 $685 23.871458583939578 $367 $692 forward 7 unknown #
point $-1 -72.12988677632984 -12.187887646764745 9.4419810781174611 #
point $-1 -72.12988677632984 -12.187887646764745 4.4219195656916082 #
edge $-1 $693 1 $693 0 $371 $-1 forward 7 unknown #
vertex $-1 $372 $694 #
ellipse-curve $-1 -66.772593917070466 -20.53329545903248 4.1716551276934304 -0.75470958851134928 0 0.65605901945558964 0.98408852918338452 0 1.132064382767024 1 I I #
point $-1 -68.963861854934251 -20.53329545903248 8.0640147046715729 #
edge $-1 $695 1 $695 0 $375 $-1 forward 7 unknown #
vertex $-1 $376 $696 #
ellipse-curve $-1 -66.772593917070466 -15.526050771671837 4.1716551276934304 -0.75470958851134928 0 0.65605901945558964 0.98408852918338452 0 1.132064382767024 1 I I #
point $-1 -68.963861854934251 -15.526050771671837 8.0640147046715729 #
plane-surface $-1 -72.12988677632984 0 0 1 0 0 0 0 -1 forward_v I I I I #
coedge $-1 $565 $564 $557 $697 forward $380 $-1 #
coedge $-1 $557 $382 $384 $561 reversed $235 $-1 #
coedge $-1 $382 $556 $555 $697 reversed $235 $-1 #
coedge $-1 $390 $385 $382 $559 forward $391 $-1 #
edge $-1 $562 -45.110503009075856 $698 -40.090441496650001 $558 $699 forward 7 unknown #
coedge $-1 $384 $383 $565 $700 reversed $147 $-1 #
edge $-1 $701 -6.651646658322993 $562 2.1388861263899031e-014 $556 $702 forward 7 unknown #
vertex $-1 $386 $703 #
straight-curve $-1 -72.12988677632984 9.0148365576760767 4.4219195656916224 0 -1 0 I I #
coedge $-1 $555 $387 $390 $569 forward $380 $-1 #
coedge $-1 $387 $555 $560 $700 forward $380 $-1 #
vertex $-1 $388 $704 #
straight-curve $-1 -90.502060556499018 23.871458583939571 9.4419810781174647 -1 0 0 I I #
straight-curve $-1 -72.129886776329826 23.871458583939571 4.4219195656916241 0.65605901945558964 0 0.75470958851134928 I I #
edge $-1 $392 -23.871458583939571 $698 -12.187887646764738 $390 $705 forward 7 unknown #
point $-1 -72.12988677632984 23.871458583939571 9.4419810781174611 #
point $-1 -72.12988677632984 23.871458583939571 4.4219195656916082 #
edge $-1 $706 1 $706 0 $395 $-1 forward 7 unknown #
vertex $-1 $396 $707 #
ellipse-curve $-1 -66.772593917070466 15.526050771671834 4.1716551276934304 -0.75470958851134928 0 0.65605901945558964 0.98408852918338452 0 1.132064382767024 1 I I #
point $-1 -68.963861854934251 15.526050771671834 8.0640147046715729 #
edge $-1 $708 1 $708 0 $399 $-1 forward 7 unknown #
vertex $-1 $400 $709 #
ellipse-curve $-1 -66.772593917070466 20.533295459032473 4.1716551276934304 -0.75470958851134928 0 0.65605901945558964 0.98408852918338452 0 1.132064382767024 1 I I #
point $-1 -68.963861854934251 20.533295459032473 8.0640147046715729 #
plane-surface $-1 72.12988677632984 0 0 -1 0 0 0 0 1 forward_v I I I I #
coedge $-1 $591 $590 $583 $710 forward $404 $-1 #
coedge $-1 $583 $406 $408 $587 reversed $257 $-1 #
coedge $-1 $406 $582 $581 $710 reversed $257 $-1 #
coedge $-1 $414 $409 $406 $585 forward $415 $-1 #
edge $-1 $588 -99.547620177409982 $711 -94.527558664984099 $584 $712 forward 7 unknown #
coedge $-1 $408 $407 $591 $713 reversed $161 $-1 #
edge $-1 $714 137.60812689433669 $588 144.25977355265977 $582 $715 forward 7 unknown #
vertex $-1 $410 $716 #
straight-curve $-1 72.12988677632984 -9.0148365576760803 4.4219195656915602 0 1 0 I I #
coedge $-1 $581 $411 $414 $595 forward $404 $-1 #
coedge $-1 $411 $581 $586 $713 forward $404 $-1 #
vertex $-1 $412 $717 #
straight-curve $-1 43.180597764577357 -23.871458583939578 9.4419810781174647 1 0 0 I I #
straight-curve $-1 -22.513038807513496 -23.871458583939578 113.29615390235982 -0.65605901945558964 0 0.75470958851134928 I I #
edge $-1 $416 -23.871458583939578 $711 -12.187887646764745 $414 $718 forward 7 unknown #
point $-1 72.12988677632984 -23.871458583939578 9.4419810781174611 #
point $-1 72.12988677632984 -23.871458583939578 4.4219195656915815 #
edge $-1 $719 1 $719 0 $419 $-1 forward 7 unknown #
vertex $-1 $420 $720 #
ellipse-curve $-1 66.772593917070466 -20.53329545903248 4.1716551276934393 0.75470958851134928 0 0.65605901945558964 0.98408852918338452 0 -1.132064382767024 1 I I #
point $-1 70.932038913301014 -20.53329545903248 5.7998859391375337 #
edge $-1 $721 1 $721 0 $423 $-1 forward 7 unknown #
vertex $-1 $424 $722 #
ellipse-curve $-1 66.772593917070466 -15.526050771671837 4.1716551276934393 0.75470958851134928 0 0.65605901945558964 0.98408852918338452 0 -1.132064382767024 1 I I #
point $-1 70.932038913301014 -15.526050771671837 5.7998859391375337 #
loop $-1 $-1 $435 $427 #
plane-surface $-1 0 0 9.4419810781174611 0 0 1 1 0 0 forward_v I I I I #
coedge $-1 $609 $430 $432 $613 reversed $279 $-1 #
coedge $-1 $430 $608 $723 $724 reversed $279 $-1 #
coedge $-1 $438 $433 $430 $611 forward $428 $-1 #
edge $-1 $614 -99.547620177409982 $725 -94.527558664984099 $610 $726 forward 7 unknown #
coedge $-1 $432 $431 $617 $727 reversed $175 $-1 #
edge $-1 $728 137.60812689433669 $614 144.25977355265977 $608 $729 forward 7 unknown #
vertex $-1 $434 $730 #
straight-curve $-1 72.12988677632984 9.0148365576760767 4.4219195656915602 0 1 0 I I #
coedge $-1 $723 $435 $438 $621 forward $606 $-1 #
coedge $-1 $435 $723 $612 $727 forward $606 $-1 #
vertex $-1 $436 $731 #
straight-curve $-1 43.180597764577357 12.187887646764738 9.4419810781174647 1 0 0 I I #
straight-curve $-1 -22.513038807513496 12.187887646764738 113.29615390235982 -0.65605901945558964 0 0.75470958851134928 I I #
edge $-1 $439 12.187887646764738 $725 23.871458583939571 $438 $732 forward 7 unknown #
point $-1 72.12988677632984 12.187887646764738 9.4419810781174611 #
point $-1 72.12988677632984 12.187887646764738 4.4219195656915815 #
edge $-1 $733 1 $733 0 $442 $-1 forward 7 unknown #
vertex $-1 $443 $734 #
ellipse-curve $-1 66.772593917070466 15.526050771671834 4.1716551276934393 0.75470958851134928 0 0.65605901945558964 0.98408852918338452 0 -1.132064382767024 1 I I #
point $-1 70.932038913301014 15.526050771671834 5.7998859391375337 #
edge $-1 $735 1 $735 0 $446 $-1 forward 7 unknown #
vertex $-1 $447 $736 #
ellipse-curve $-1 66.772593917070466 20.533295459032473 4.1716551276934393 0.75470958851134928 0 0.65605901945558964 0.98408852918338452 0 -1.132064382767024 1 I I #
point $-1 70.932038913301014 20.533295459032473 5.7998859391375337 #
plane-surface $-1 72.12988677632984 0 0 -1 0 0 0 0 1 forward_v I I I I #
coedge $-1 $455 $453 $457 $637 reversed $301 $-1 #
edge $-1 $468 -9.4419810781174611 $639 9.4419810781174611 $467 $737 forward 7 unknown #
vertex $-1 $637 $738 #
straight-curve $-1 -72.12988677632984 -40.945658283043258 0 0 0 -1 I I #
edge $-1 $635 -40.945658283043258 $639 40.945658283043258 $633 $739 forward 7 unknown #
straight-curve $-1 0 -40.945658283043258 -9.4419810781174611 -1 0 0 I I #
vertex $-1 $460 $740 #
straight-curve $-1 0 40.945658283043258 -9.4419810781174611 1 0 0 I I #
point $-1 72.12988677632984 40.945658283043258 -9.4419810781174611 #
point $-1 72.12988677632984 -40.945658283043258 -9.4419810781174611 #
straight-curve $-1 -72.12988677632984 0 9.4419810781174611 0 -1 0 I I #
point $-1 -72.12988677632984 40.945658283043258 9.4419810781174611 #
point $-1 -72.12988677632984 -40.945658283043258 9.4419810781174611 #
straight-curve $-1 72.12988677632984 -40.945658283043258 0 0 0 -1 I I #
straight-curve $-1 72.12988677632984 40.945658283043258 0 0 0 -1 I I #
plane-surface $-1 72.12988677632984 0 0 -1 0 0 0 0 1 forward_v I I I I #
coedge $-1 $652 $480 $491 $661 forward $320 $-1 #
coedge $-1 $480 $652 $494 $663 reversed $320 $-1 #
straight-curve $-1 72.12988677632984 -29.093489573052565 -0.550150700280299 0 0 1 I I #
coedge $-1 $650 $649 $483 $653 forward $320 $-1 #
edge $-1 $656 11.583702609028609 $654 23.435871319019302 $652 $741 forward 7 unknown #
vertex $-1 $485 $742 #
straight-curve $-1 0 -40.945658283043258 -3.4687929765848438 1 0 0 I I #
vertex $-1 $653 $743 #
straight-curve $-1 0 -29.093489573052565 -3.4687929765848438 1 0 0 I I #
point $-1 72.12988677632984 -40.945658283043258 -3.4687929765848438 #
point $-1 72.12988677632984 -29.093489573052565 -3.4687929765848438 #
straight-curve $-1 -72.12988677632984 -17.509786964023956 1.2681901754636478 0 1 0 I I #
edge $-1 $492 -1.8183408757439468 $656 2.9186422763045448 $649 $744 forward 7 unknown #
point $-1 -72.12988677632984 -29.093489573052565 1.2681901754636478 #
edge $-1 $496 -1.2681901754636478 $654 3.4687929765848438 $650 $745 forward 7 unknown #
point $-1 -72.12988677632984 -40.945658283043258 1.2681901754636478 #
straight-curve $-1 72.12988677632984 -40.945658283043258 0 0 0 -1 I I #
plane-surface $-1 0 40.945658283043258 0 0 -1 0 0 0 -1 forward_v I I I I #
coedge $-1 $505 $676 $507 $670 forward $502 $-1 #
vertex $-1 $670 $746 #
straight-curve $-1 -72.12988677632984 29.093489573052572 -0.550150700280299 0 0 1 I I #
edge $-1 $672 -23.435871319019306 $668 -11.583702609028613 $667 $747 forward 7 unknown #
straight-curve $-1 0 29.093489573052572 -3.4687929765848438 -1 0 0 I I #
vertex $-1 $510 $748 #
straight-curve $-1 0 40.945658283043258 -3.4687929765848438 -1 0 0 I I #
point $-1 72.12988677632984 29.093489573052572 -3.4687929765848438 #
point $-1 72.12988677632984 40.945658283043265 -3.4687929765848438 #
coedge $-1 $667 $514 $517 $678 forward $502 $-1 #
straight-curve $-1 -72.12988677632984 17.509786964023959 1.2681901754636478 0 1 0 I I #
edge $-1 $519 -1.2681901754636478 $672 3.4687929765848438 $517 $749 forward 7 unknown #
point $-1 -72.12988677632984 40.945658283043265 1.2681901754636478 #
point $-1 -72.12988677632984 29.093489573052572 1.2681901754636478 #
straight-curve $-1 72.12988677632984 29.093489573052572 -0.550150700280299 0 0 -1 I I #
straight-curve $-1 72.12988677632984 40.945658283043258 0 0 0 -1 I I #
coedge $-1 $539 $538 $531 $684 forward $528 $-1 #
edge $-1 $685 18.372173780169177 $688 22.736046564593622 $683 $750 forward 7 unknown #
vertex $-1 $684 $751 #
straight-curve $-1 -72.12988677632984 -23.871458583939578 49.532422574767466 0 0 1 I I #
edge $-1 $688 -14.856622026263498 $540 -3.1730510890886645 $539 $752 forward 7 unknown #
vertex $-1 $687 $753 #
straight-curve $-1 -72.129886776329826 -23.871458583939578 4.4219195656916241 -0.65605901945558964 0 -0.75470958851134928 I I #
point $-1 -72.12988677632984 -23.871458583939578 4.4219195656916082 #
point $-1 -67.766013991905396 -12.187887646764745 9.4419810781174611 #
straight-curve $-1 -72.12988677632984 0 9.4419810781174611 0 -1 0 I I #
vertex $-1 $546 $754 #
point $-1 -65.788505387887085 -20.53329545903248 5.3037195104604544 #
vertex $-1 $550 $755 #
point $-1 -65.788505387887085 -15.526050771671837 5.3037195104604544 #
edge $-1 $698 18.372173780169177 $701 22.736046564593622 $555 $756 forward 7 unknown #
vertex $-1 $697 $757 #
straight-curve $-1 -72.12988677632984 12.187887646764738 49.532422574767466 0 0 1 I I #
edge $-1 $701 3.173051089088661 $566 14.856622026263494 $565 $758 forward 7 unknown #
vertex $-1 $700 $759 #
straight-curve $-1 -72.129886776329826 12.187887646764738 4.4219195656916241 -0.65605901945558964 0 -0.75470958851134928 I I #
point $-1 -72.12988677632984 12.187887646764738 4.4219195656916082 #
point $-1 -67.766013991905396 23.871458583939571 9.4419810781174611 #
straight-curve $-1 -72.12988677632984 0 9.4419810781174611 0 -1 0 I I #
vertex $-1 $572 $760 #
point $-1 -65.788505387887085 15.526050771671834 5.3037195104604544 #
vertex $-1 $576 $761 #
point $-1 -65.788505387887085 20.533295459032473 5.3037195104604544 #
edge $-1 $711 -28.949289011752484 $714 -24.585416227328011 $581 $762 forward 7 unknown #
vertex $-1 $585 $763 #
straight-curve $-1 72.12988677632984 -12.187887646764745 103.96953974310156 0 0 1 I I #
edge $-1 $714 3.1730510890886645 $592 14.856622026263498 $591 $764 forward 7 unknown #
vertex $-1 $713 $765 #
straight-curve $-1 -22.513038807513496 -12.187887646764745 113.29615390235982 0.65605901945558964 0 -0.75470958851134928 I I #
point $-1 72.12988677632984 -12.187887646764745 4.4219195656915815 #
point $-1 67.766013991905368 -23.871458583939578 9.4419810781174647 #
straight-curve $-1 72.12988677632984 0 9.4419810781174611 0 1 0 I I #
vertex $-1 $598 $766 #
point $-1 67.756682446253848 -20.53329545903248 3.0395907449264152 #
vertex $-1 $602 $767 #
point $-1 67.756682446253848 -15.526050771671837 3.0395907449264152 #
coedge $-1 $617 $616 $609 $724 forward $606 $-1 #
edge $-1 $725 -28.949289011752484 $728 -24.585416227328011 $723 $768 forward 7 unknown #
vertex $-1 $724 $769 #
straight-curve $-1 72.12988677632984 23.871458583939571 103.96953974310156 0 0 1 I I #
edge $-1 $728 -14.856622026263494 $618 -3.173051089088661 $617 $770 forward 7 unknown #
vertex $-1 $727 $771 #
straight-curve $-1 -22.513038807513496 23.871458583939571 113.29615390235982 0.65605901945558964 0 -0.75470958851134928 I I #
point $-1 72.12988677632984 23.871458583939571 4.4219195656915815 #
point $-1 67.766013991905368 12.187887646764738 9.4419810781174647 #
straight-curve $-1 72.12988677632984 0 9.4419810781174611 0 1 0 I I #
vertex $-1 $624 $772 #
point $-1 67.756682446253848 15.526050771671834 3.0395907449264152 #
vertex $-1 $628 $773 #
point $-1 67.756682446253848 20.533295459032473 3.0395907449264152 #
straight-curve $-1 -72.12988677632984 40.945658283043258 0 0 0 -1 I I #
point $-1 -72.12988677632984 -40.945658283043258 -9.4419810781174611 #
straight-curve $-1 -72.12988677632984 0 -9.4419810781174611 0 1 0 I I #
point $-1 -72.12988677632984 40.945658283043258 -9.4419810781174611 #
straight-curve $-1 -72.12988677632984 -17.509786964023956 -3.4687929765848438 0 -1 0 I I #
point $-1 -72.12988677632984 -40.945658283043258 -3.4687929765848438 #
point $-1 -72.12988677632984 -29.093489573052565 -3.4687929765848438 #
straight-curve $-1 -72.12988677632984 -29.093489573052565 -0.550150700280299 0 0 -1 I I #
straight-curve $-1 -72.12988677632984 -40.945658283043258 0 0 0 -1 I I #
point $-1 -72.12988677632984 29.093489573052572 -3.4687929765848438 #
straight-curve $-1 -72.12988677632984 17.509786964023959 -3.4687929765848438 0 -1 0 I I #
point $-1 -72.12988677632984 40.945658283043265 -3.4687929765848438 #
straight-curve $-1 -72.12988677632984 40.945658283043258 0 0 0 -1 I I #
straight-curve $-1 -90.502060556499018 -23.871458583939578 9.4419810781174647 1 0 0 I I #
point $-1 -72.12988677632984 -23.871458583939578 9.4419810781174611 #
straight-curve $-1 -67.766013991905382 -9.0148365576760803 9.4419810781174611 0 1 0 I I #
point $-1 -67.766013991905396 -23.871458583939578 9.4419810781174611 #
point $-1 -65.64052953430344 -20.53329545903248 3.1875665985100454 #
point $-1 -65.64052953430344 -15.526050771671837 3.1875665985100454 #
straight-curve $-1 -90.502060556499018 12.187887646764738 9.4419810781174647 1 0 0 I I #
point $-1 -72.12988677632984 12.187887646764738 9.4419810781174611 #
straight-curve $-1 -67.766013991905382 9.0148365576760767 9.4419810781174611 0 1 0 I I #
point $-1 -67.766013991905396 12.187887646764738 9.4419810781174611 #
point $-1 -65.64052953430344 15.526050771671834 3.1875665985100454 #
point $-1 -65.64052953430344 20.533295459032473 3.1875665985100454 #
straight-curve $-1 43.180597764577357 -12.187887646764745 9.4419810781174647 -1 0 0 I I #
point $-1 72.12988677632984 -12.187887646764745 9.4419810781174611 #
straight-curve $-1 67.766013991905353 -9.0148365576760803 9.4419810781174647 0 -1 0 I I #
point $-1 67.766013991905368 -12.187887646764745 9.4419810781174647 #
point $-1 65.64052953430344 -20.53329545903248 3.1875665985100543 #
point $-1 65.64052953430344 -15.526050771671837 3.1875665985100543 #
straight-curve $-1 43.180597764577357 23.871458583939571 9.4419810781174647 -1 0 0 I I #
point $-1 72.12988677632984 23.871458583939571 9.4419810781174611 #
straight-curve $-1 67.766013991905353 9.0148365576760767 9.4419810781174647 0 -1 0 I I #
point $-1 67.766013991905368 23.871458583939571 9.4419810781174647 #
point $-1 65.64052953430344 15.526050771671834 3.1875665985100543 #
point $-1 65.64052953430344 20.533295459032473 3.1875665985100543 #
End-of-ACIS-data 