500 0 10 0           
7 Unknown 11 ACIS 5.0 NT 24 Fri Mar 26 18:33:05 1999 
-1 9.9999999999999995e-007 1e-010 
body $-1 $10 $-1 $11 #
body $-1 $12 $-1 $13 #
body $-1 $14 $-1 $15 #
body $-1 $16 $-1 $17 #
body $-1 $18 $-1 $19 #
body $-1 $20 $-1 $21 #
body $-1 $22 $-1 $23 #
body $-1 $24 $-1 $25 #
body $-1 $26 $-1 $27 #
body $-1 $28 $-1 $29 #
lump $-1 $-1 $30 $0 #
transform $-1 1 0 0 0 1 0 0 0 1 71.615955076754048 43.923811334162743 12.618829626614412 1 rotate no_reflect no_shear #
lump $-1 $-1 $31 $1 #
transform $-1 1 0 0 0 1 0 0 0 1 71.615955076754048 43.923811334162743 12.618829626614412 1 rotate no_reflect no_shear #
lump $-1 $-1 $32 $2 #
transform $-1 1 0 0 0 1 0 0 0 1 71.615955076754048 43.923811334162743 12.618829626614412 1 rotate no_reflect no_shear #
lump $-1 $-1 $33 $3 #
transform $-1 1 0 0 0 1 0 0 0 1 71.615955076754048 43.923811334162743 12.618829626614412 1 rotate no_reflect no_shear #
lump $-1 $-1 $34 $4 #
transform $-1 1 0 0 0 1 0 0 0 1 71.615955076754048 43.923811334162743 12.618829626614412 1 rotate no_reflect no_shear #
lump $-1 $-1 $35 $5 #
transform $-1 1 0 0 0 1 0 0 0 1 71.615955076754048 43.923811334162743 12.618829626614412 1 rotate no_reflect no_shear #
lump $-1 $-1 $36 $6 #
transform $-1 1 0 0 0 1 0 0 0 1 71.615955076754048 43.923811334162743 12.618829626614412 1 rotate no_reflect no_shear #
lump $-1 $-1 $37 $7 #
transform $-1 1 0 0 0 1 0 0 0 1 71.615955076754048 43.923811334162743 12.618829626614412 1 rotate no_reflect no_shear #
lump $-1 $-1 $38 $8 #
transform $-1 1 0 0 0 1 0 0 0 1 71.615955076754048 43.923811334162743 12.618829626614412 1 rotate no_reflect no_shear #
lump $-1 $-1 $39 $9 #
transform $-1 1 0 0 0 1 0 0 0 1 71.615955076754048 43.923811334162743 12.618829626614412 1 rotate no_reflect no_shear #
shell $-1 $-1 $-1 $40 $-1 $10 #
shell $-1 $-1 $-1 $41 $-1 $12 #
shell $-1 $-1 $-1 $42 $-1 $14 #
shell $-1 $-1 $-1 $43 $-1 $16 #
shell $-1 $-1 $-1 $44 $-1 $18 #
shell $-1 $-1 $-1 $45 $-1 $20 #
shell $-1 $-1 $-1 $46 $-1 $22 #
shell $-1 $-1 $-1 $47 $-1 $24 #
shell $-1 $-1 $-1 $48 $-1 $26 #
shell $-1 $-1 $-1 $49 $-1 $28 #
face $-1 $50 $51 $30 $-1 $52 forward single #
face $-1 $53 $54 $31 $-1 $55 forward single #
face $-1 $56 $57 $32 $-1 $58 reversed single #
face $-1 $59 $60 $33 $-1 $61 forward single #
face $-1 $62 $63 $34 $-1 $64 reversed single #
face $-1 $65 $66 $35 $-1 $67 forward single #
face $-1 $68 $69 $36 $-1 $70 forward single #
face $-1 $71 $72 $37 $-1 $73 reversed single #
face $-1 $74 $75 $38 $-1 $76 forward single #
face $-1 $77 $78 $39 $-1 $79 forward single #
face $-1 $80 $81 $30 $-1 $82 reversed single #
loop $-1 $-1 $83 $40 #
plane-surface $-1 0 0 12.618829626614412 0 0 1 1 0 0 forward_v I I I I #
face $-1 $84 $85 $31 $-1 $86 reversed single #
loop $-1 $-1 $87 $41 #
plane-surface $-1 0 -37.594313145354946 7.3688661071288113 0 0 1 1 0 0 forward_v I I I I #
face $-1 $88 $89 $32 $-1 $90 reversed single #
loop $-1 $-1 $91 $42 #
plane-surface $-1 -188.9446682514411 -2.7871006455318366 85.032434105605262 0 1 0 -0.81915205242281985 0 0.57357642473473569 forward_v I I I I #
face $-1 $92 $93 $33 $-1 $94 forward single #
loop $-1 $95 $96 $43 #
cone-surface $-1 -66.222111338486258 4.5246702899835469 6.3595200527132292 0.81915205242281985 0 -0.57357642473473569 1.4339410618368391 0 2.0478801310570498 1 I I 0 1 2.5 forward I I I I #
face $-1 $97 $98 $34 $-1 $99 reversed single #
loop $-1 $-1 $100 $44 #
plane-surface $-1 103.3034028673555 -14.652963362902156 202.49227646680001 0 -1 0 -0.80901700255871778 0 -0.5877852410284794 forward_v I I I I #
face $-1 $101 $102 $35 $-1 $103 forward single #
loop $-1 $104 $105 $45 #
cone-surface $-1 66.148832679694607 -26.518571644077149 6.2404429881375911 -0.80901700255871778 0 -0.5877852410284794 1.1755704820569588 0 -1.6180340051174356 1 I I 0 1 2 forward I I I I #
face $-1 $106 $107 $36 $-1 $108 forward single #
loop $-1 $109 $110 $46 #
cone-surface $-1 66.148832679694607 -19.399206675372156 6.2404429881375911 -0.80901700255871778 0 -0.5877852410284794 1.1755704820569588 0 -1.6180340051174356 1 I I 0 1 2 forward I I I I #
face $-1 $111 $112 $37 $-1 $113 reversed single #
loop $-1 $-1 $114 $47 #
plane-surface $-1 -12.573647755795193 35.617885537340264 118.30267363425075 0.80901700255871778 0 0.5877852410284794 0.5877852410284794 0 -0.80901700255871778 forward_v I I I I #
face $-1 $115 $116 $38 $-1 $117 forward single #
loop $-1 $118 $119 $48 #
cone-surface $-1 66.148832679694607 32.058203052987757 6.2404429881375911 -0.80901700255871778 0 -0.5877852410284794 1.1755704820569588 0 -1.6180340051174356 1 I I 0 1 2 forward I I I I #
face $-1 $120 $121 $39 $-1 $122 forward single #
loop $-1 $123 $124 $49 #
cone-surface $-1 66.148832679694607 39.177568021692757 6.2404429881375911 -0.80901700255871778 0 -0.5877852410284794 1.1755704820569588 0 -1.6180340051174356 1 I I 0 1 2 forward I I I I #
face $-1 $125 $126 $30 $-1 $127 reversed single #
loop $-1 $-1 $128 $50 #
plane-surface $-1 0 0 -12.618829626614412 0 0 1 1 0 0 forward_v I I I I #
coedge $-1 $129 $130 $131 $132 forward $51 $-1 #
face $-1 $133 $134 $31 $-1 $135 reversed single #
loop $-1 $-1 $136 $53 #
plane-surface $-1 0 -37.594313145354946 1.4057788026937761 0 0 1 1 0 0 forward_v I I I I #
coedge $-1 $137 $138 $139 $140 reversed $54 $-1 #
face $-1 $141 $142 $32 $-1 $143 reversed single #
loop $-1 $-1 $144 $56 #
plane-surface $-1 -71.61595507675402 4.5246702899835469 2.8779871718292043 -0.81915205242281985 0 0.57357642473473569 0.57357642473473569 0 0.81915205242281985 forward_v I I I I #
coedge $-1 $145 $146 $147 $148 reversed $57 $-1 #
face $-1 $-1 $149 $33 $-1 $150 forward single #
loop $-1 $151 $152 $59 #
cone-surface $-1 -63.214633089437029 4.5246702899835469 4.2536611752862274 0.81915205242281985 0 -0.57357642473473569 0.71697053091841956 0 1.0239400655285249 1 I I -0.70710678118654746 0.70710678118654746 1.25 forward I I I I #
loop $-1 $-1 $153 $43 #
coedge $-1 $96 $96 $154 $155 reversed $60 $-1 #
face $-1 $156 $157 $34 $-1 $158 reversed single #
loop $-1 $-1 $159 $62 #
plane-surface $-1 -12.573647755795193 -22.958889159724649 118.30267363425075 0.80901700255871778 0 0.5877852410284794 0.5877852410284794 0 -0.80901700255871778 forward_v I I I I #
coedge $-1 $160 $161 $162 $163 reversed $63 $-1 #
face $-1 $-1 $164 $35 $-1 $165 forward single #
loop $-1 $166 $167 $65 #
cone-surface $-1 63.575592223117113 -26.518571644077149 4.3708744163894853 -0.80901700255871778 0 -0.5877852410284794 0.5877852410284794 0 -0.80901700255871778 1 I I -0.70710678118654746 0.70710678118654746 1 forward I I I I #
loop $-1 $-1 $168 $45 #
coedge $-1 $105 $105 $169 $170 reversed $66 $-1 #
face $-1 $-1 $171 $36 $-1 $172 forward single #
loop $-1 $173 $174 $68 #
cone-surface $-1 63.575592223117113 -19.399206675372156 4.3708744163894853 -0.80901700255871778 0 -0.5877852410284794 0.5877852410284794 0 -0.80901700255871778 1 I I -0.70710678118654746 0.70710678118654746 1 forward I I I I #
loop $-1 $-1 $175 $46 #
coedge $-1 $110 $110 $176 $177 reversed $69 $-1 #
face $-1 $178 $179 $37 $-1 $180 forward single #
loop $-1 $-1 $181 $71 #
plane-surface $-1 103.3034028673555 27.311959740517771 202.49227646680001 0 1 0 0.80901700255871778 0 0.5877852410284794 forward_v I I I I #
coedge $-1 $182 $183 $184 $185 reversed $72 $-1 #
face $-1 $-1 $186 $38 $-1 $187 forward single #
loop $-1 $188 $189 $74 #
cone-surface $-1 63.575592223117113 32.058203052987757 4.3708744163894853 -0.80901700255871778 0 -0.5877852410284794 0.5877852410284794 0 -0.80901700255871778 1 I I -0.70710678118654746 0.70710678118654746 1 forward I I I I #
loop $-1 $-1 $190 $48 #
coedge $-1 $119 $119 $191 $192 reversed $75 $-1 #
face $-1 $-1 $193 $39 $-1 $194 forward single #
loop $-1 $195 $196 $77 #
cone-surface $-1 63.575592223117113 39.177568021692757 4.3708744163894853 -0.80901700255871778 0 -0.5877852410284794 0.5877852410284794 0 -0.80901700255871778 1 I I -0.70710678118654746 0.70710678118654746 1 forward I I I I #
loop $-1 $-1 $197 $49 #
coedge $-1 $124 $124 $198 $199 reversed $78 $-1 #
face $-1 $200 $201 $30 $-1 $202 reversed single #
loop $-1 $-1 $203 $80 #
plane-surface $-1 0 -43.923811334162743 0 0 1 0 0 0 1 forward_v I I I I #
coedge $-1 $204 $205 $206 $207 forward $81 $-1 #
coedge $-1 $208 $83 $209 $210 forward $51 $-1 #
coedge $-1 $83 $208 $211 $212 forward $51 $-1 #
coedge $-1 $213 $214 $83 $132 reversed $215 $-1 #
edge $-1 $216 -43.923811334162743 $217 43.923811334162743 $131 $218 forward 7 unknown #
face $-1 $219 $220 $31 $-1 $221 reversed single #
loop $-1 $-1 $222 $84 #
plane-surface $-1 0 -31.264814956547145 4.3873224549112937 0 -1 0 0 0 -1 forward_v I I I I #
coedge $-1 $223 $224 $225 $226 reversed $85 $-1 #
coedge $-1 $227 $87 $228 $229 forward $54 $-1 #
coedge $-1 $87 $227 $230 $231 reversed $54 $-1 #
coedge $-1 $232 $233 $87 $140 forward $234 $-1 #
edge $-1 $235 12.467658383869672 $236 25.12665476148527 $139 $237 forward 7 unknown #
face $-1 $238 $239 $32 $-1 $240 reversed single #
loop $-1 $-1 $241 $88 #
plane-surface $-1 -188.9446682514411 11.83644122549893 85.032434105605262 0 -1 0 0.81915205242281985 0 -0.57357642473473569 forward_v I I I I #
coedge $-1 $242 $243 $244 $245 reversed $89 $-1 #
coedge $-1 $146 $91 $246 $247 reversed $57 $-1 #
coedge $-1 $91 $145 $242 $248 reversed $57 $-1 #
coedge $-1 $244 $249 $91 $148 forward $250 $-1 #
edge $-1 $251 22.856379048966502 $252 29.676990158460683 $147 $253 forward 7 unknown #
loop $-1 $-1 $154 $92 #
plane-surface $-1 -71.61595507675402 4.5246702899835469 2.8779871718292043 -0.81915205242281985 0 0.57357642473473569 0.57357642473473569 0 0.81915205242281985 forward_v I I I I #
loop $-1 $-1 $254 $59 #
coedge $-1 $152 $152 $153 $255 reversed $93 $-1 #
coedge $-1 $153 $153 $152 $255 forward $95 $-1 #
coedge $-1 $154 $154 $96 $155 forward $149 $-1 #
edge $-1 $256 0 $256 6.2831853071796004 $154 $257 forward 7 unknown #
face $-1 $258 $259 $34 $-1 $260 forward single #
loop $-1 $-1 $261 $97 #
plane-surface $-1 71.615955076754048 0 0 -1 0 0 0 0 1 forward_v I I I I #
coedge $-1 $262 $263 $264 $265 reversed $98 $-1 #
coedge $-1 $161 $100 $266 $267 reversed $63 $-1 #
coedge $-1 $100 $160 $262 $268 reversed $63 $-1 #
coedge $-1 $264 $269 $100 $163 forward $270 $-1 #
edge $-1 $271 -19.964253643076297 $272 -12.558455756994995 $162 $273 forward 7 unknown #
loop $-1 $-1 $169 $101 #
plane-surface $-1 -12.573647755795193 -22.958889159724649 118.30267363425075 0.80901700255871778 0 0.5877852410284794 0.5877852410284794 0 -0.80901700255871778 forward_v I I I I #
loop $-1 $-1 $274 $65 #
coedge $-1 $167 $167 $168 $275 reversed $102 $-1 #
coedge $-1 $168 $168 $167 $275 forward $104 $-1 #
coedge $-1 $169 $169 $105 $170 forward $164 $-1 #
edge $-1 $276 0 $276 6.2831853071796004 $169 $277 forward 7 unknown #
loop $-1 $-1 $176 $106 #
plane-surface $-1 -12.573647755795193 -22.958889159724649 118.30267363425075 0.80901700255871778 0 0.5877852410284794 0.5877852410284794 0 -0.80901700255871778 forward_v I I I I #
loop $-1 $-1 $278 $68 #
coedge $-1 $174 $174 $175 $279 reversed $107 $-1 #
coedge $-1 $175 $175 $174 $279 forward $109 $-1 #
coedge $-1 $176 $176 $110 $177 forward $171 $-1 #
edge $-1 $280 0 $280 6.2831853071796004 $176 $281 forward 7 unknown #
face $-1 $282 $283 $37 $-1 $284 reversed single #
loop $-1 $-1 $184 $111 #
plane-surface $-1 0 0 12.618829626614412 0 0 1 1 0 0 forward_v I I I I #
coedge $-1 $285 $286 $287 $288 reversed $112 $-1 #
coedge $-1 $289 $114 $290 $291 reversed $72 $-1 #
coedge $-1 $114 $289 $285 $292 forward $72 $-1 #
coedge $-1 $287 $293 $114 $185 forward $179 $-1 #
edge $-1 $294 -26.114868565492625 $295 -9.5030169718476394 $184 $296 forward 7 unknown #
loop $-1 $-1 $191 $115 #
plane-surface $-1 -12.573647755795193 35.617885537340264 118.30267363425075 0.80901700255871778 0 0.5877852410284794 0.5877852410284794 0 -0.80901700255871778 forward_v I I I I #
loop $-1 $-1 $297 $74 #
coedge $-1 $189 $189 $190 $298 reversed $116 $-1 #
coedge $-1 $190 $190 $189 $298 forward $118 $-1 #
coedge $-1 $191 $191 $119 $192 forward $186 $-1 #
edge $-1 $299 0 $299 6.2831853071796004 $191 $300 forward 7 unknown #
loop $-1 $-1 $198 $120 #
plane-surface $-1 -12.573647755795193 35.617885537340264 118.30267363425075 0.80901700255871778 0 0.5877852410284794 0.5877852410284794 0 -0.80901700255871778 forward_v I I I I #
loop $-1 $-1 $301 $77 #
coedge $-1 $196 $196 $197 $302 reversed $121 $-1 #
coedge $-1 $197 $197 $196 $302 forward $123 $-1 #
coedge $-1 $198 $198 $124 $199 forward $193 $-1 #
edge $-1 $303 0 $303 6.2831853071796004 $198 $304 forward 7 unknown #
face $-1 $305 $306 $30 $-1 $307 reversed single #
loop $-1 $-1 $308 $125 #
plane-surface $-1 -71.615955076754048 0 0 1 0 0 0 0 -1 forward_v I I I I #
coedge $-1 $309 $211 $310 $311 forward $126 $-1 #
coedge $-1 $312 $128 $309 $313 forward $81 $-1 #
coedge $-1 $128 $312 $314 $315 forward $81 $-1 #
coedge $-1 $214 $213 $128 $207 reversed $215 $-1 #
edge $-1 $316 -43.923811334162743 $317 43.923811334162743 $206 $318 forward 7 unknown #
coedge $-1 $130 $129 $319 $320 forward $51 $-1 #
coedge $-1 $321 $322 $129 $210 reversed $306 $-1 #
edge $-1 $217 -71.615955076754048 $323 71.615955076754048 $209 $324 forward 7 unknown #
coedge $-1 $203 $325 $130 $212 reversed $126 $-1 #
edge $-1 $326 -71.615955076754048 $216 71.615955076754048 $211 $327 forward 7 unknown #
coedge $-1 $206 $131 $325 $328 forward $215 $-1 #
coedge $-1 $131 $206 $321 $329 reversed $215 $-1 #
loop $-1 $-1 $213 $305 #
vertex $-1 $132 $330 #
vertex $-1 $132 $331 #
straight-curve $-1 71.615955076754048 0 12.618829626614412 0 1 0 I I #
face $-1 $332 $333 $31 $-1 $334 reversed single #
loop $-1 $-1 $335 $133 #
plane-surface $-1 -71.615955076754048 0 0 1 0 0 0 0 -1 forward_v I I I I #
coedge $-1 $336 $228 $233 $337 reversed $134 $-1 #
coedge $-1 $338 $136 $339 $340 reversed $85 $-1 #
coedge $-1 $136 $338 $336 $341 forward $85 $-1 #
coedge $-1 $233 $232 $136 $226 forward $234 $-1 #
edge $-1 $342 -25.12665476148527 $343 -12.467658383869672 $225 $344 forward 7 unknown #
coedge $-1 $138 $137 $335 $345 reversed $54 $-1 #
coedge $-1 $222 $346 $137 $229 reversed $134 $-1 #
edge $-1 $235 -71.615955076754048 $347 71.615955076754048 $228 $348 forward 7 unknown #
coedge $-1 $349 $350 $138 $231 forward $333 $-1 #
edge $-1 $236 -71.615955076754048 $351 71.615955076754048 $230 $352 forward 7 unknown #
coedge $-1 $225 $139 $350 $353 forward $234 $-1 #
coedge $-1 $139 $225 $222 $337 forward $234 $-1 #
loop $-1 $-1 $139 $332 #
vertex $-1 $140 $354 #
vertex $-1 $353 $355 #
straight-curve $-1 71.615955076754048 -18.797156572677473 7.3688661071288113 0 -1 0 I I #
face $-1 $-1 $250 $32 $-1 $356 forward single #
loop $-1 $-1 $357 $141 #
plane-surface $-1 -71.615955076754048 0 0 1 0 0 0 0 -1 forward_v I I I I #
coedge $-1 $358 $359 $360 $361 reversed $142 $-1 #
coedge $-1 $362 $144 $146 $248 forward $89 $-1 #
coedge $-1 $144 $362 $358 $363 forward $89 $-1 #
coedge $-1 $360 $147 $144 $245 forward $250 $-1 #
edge $-1 $252 -5.04943579052361 $364 9.5741060805071569 $244 $365 forward 7 unknown #
coedge $-1 $366 $367 $145 $247 forward $239 $-1 #
edge $-1 $368 -39.638229880973469 $251 -29.897387426188217 $246 $369 forward 7 unknown #
edge $-1 $252 -11.891372823854315 $368 4.9405691961323804e-014 $146 $370 forward 7 unknown #
coedge $-1 $147 $360 $366 $371 forward $250 $-1 #
loop $-1 $-1 $360 $238 #
vertex $-1 $247 $372 #
vertex $-1 $148 $373 #
straight-curve $-1 -94.47233412572055 -2.7871006455318366 12.618829626614414 1 0 0 I I #
coedge $-1 $254 $254 $-1 $374 reversed $151 $-1 #
edge $-1 $375 0 $375 6.2831853071796004 $152 $376 forward 7 unknown #
vertex $-1 $155 $377 #
ellipse-curve $-1 -68.205649522006951 4.5246702899835469 7.7484083992217974 -0.81915205242281985 0 0.57357642473473569 1.4339410618368391 0 2.0478801310570498 1 I I #
face $-1 $-1 $270 $34 $-1 $378 forward single #
loop $-1 $-1 $379 $156 #
plane-surface $-1 0 -31.264814956547145 4.3873224549112937 0 -1 0 0 0 -1 forward_v I I I I #
coedge $-1 $380 $381 $382 $383 forward $157 $-1 #
coedge $-1 $384 $159 $161 $268 forward $98 $-1 #
coedge $-1 $159 $384 $379 $385 reversed $98 $-1 #
coedge $-1 $386 $162 $159 $265 forward $270 $-1 #
edge $-1 $272 3.1735187830398317 $387 19.785370376684817 $264 $388 forward 7 unknown #
coedge $-1 $381 $380 $160 $267 forward $157 $-1 #
edge $-1 $389 -98.820515222299917 $271 -88.62730860678559 $266 $390 forward 7 unknown #
edge $-1 $272 130.63241399548446 $389 143.23191015350807 $161 $391 forward 7 unknown #
coedge $-1 $162 $386 $381 $392 forward $270 $-1 #
loop $-1 $-1 $386 $258 #
vertex $-1 $267 $393 #
vertex $-1 $163 $394 #
straight-curve $-1 51.651701433677751 -14.652963362902156 12.618829626614414 -1 0 0 I I #
coedge $-1 $274 $274 $-1 $395 reversed $166 $-1 #
edge $-1 $396 0 $396 6.2831853071796004 $167 $397 forward 7 unknown #
vertex $-1 $170 $398 #
ellipse-curve $-1 67.913056133713411 -26.518571644077149 7.5222263188572391 0.80901700255871778 0 0.5877852410284794 1.1755704820569588 0 -1.6180340051174356 1 I I #
coedge $-1 $278 $278 $-1 $399 reversed $173 $-1 #
edge $-1 $400 0 $400 6.2831853071796004 $174 $401 forward 7 unknown #
vertex $-1 $177 $402 #
ellipse-curve $-1 67.913056133713411 -19.399206675372156 7.5222263188572391 0.80901700255871778 0 0.5877852410284794 1.1755704820569588 0 -1.6180340051174356 1 I I #
face $-1 $-1 $403 $37 $-1 $404 reversed single #
loop $-1 $-1 $405 $178 #
plane-surface $-1 71.615955076754048 0 0 -1 0 0 0 0 1 forward_v I I I I #
coedge $-1 $286 $181 $183 $292 reversed $112 $-1 #
coedge $-1 $181 $285 $405 $406 reversed $112 $-1 #
coedge $-1 $407 $184 $181 $288 forward $179 $-1 #
edge $-1 $295 12.558455756994995 $408 19.964253643076297 $287 $409 forward 7 unknown #
coedge $-1 $183 $182 $410 $411 reversed $72 $-1 #
coedge $-1 $412 $413 $182 $291 forward $403 $-1 #
edge $-1 $414 -91.682170656002512 $294 -79.082674497978914 $290 $415 forward 7 unknown #
edge $-1 $416 -143.23191015350807 $295 -130.63241399548446 $285 $417 forward 7 unknown #
coedge $-1 $184 $407 $412 $418 forward $179 $-1 #
vertex $-1 $291 $419 #
vertex $-1 $185 $420 #
straight-curve $-1 64.210157190672746 17.808942768670132 12.618829626614414 0 -1 0 I I #
coedge $-1 $297 $297 $-1 $421 reversed $188 $-1 #
edge $-1 $422 0 $422 6.2831853071796004 $189 $423 forward 7 unknown #
vertex $-1 $192 $424 #
ellipse-curve $-1 67.913056133713411 32.058203052987757 7.5222263188572391 0.80901700255871778 0 0.5877852410284794 1.1755704820569588 0 -1.6180340051174356 1 I I #
coedge $-1 $301 $301 $-1 $425 reversed $195 $-1 #
edge $-1 $426 0 $426 6.2831853071796004 $196 $427 forward 7 unknown #
vertex $-1 $199 $428 #
ellipse-curve $-1 67.913056133713411 39.177568021692757 7.5222263188572391 0.80901700255871778 0 0.5877852410284794 1.1755704820569588 0 -1.6180340051174356 1 I I #
face $-1 $-1 $215 $30 $-1 $429 reversed single #
loop $-1 $-1 $321 $200 #
plane-surface $-1 0 43.923811334162743 0 0 -1 0 0 0 -1 forward_v I I I I #
coedge $-1 $430 $319 $322 $431 forward $201 $-1 #
coedge $-1 $325 $203 $204 $313 reversed $126 $-1 #
coedge $-1 $319 $430 $203 $311 reversed $201 $-1 #
edge $-1 $326 -12.618829626614412 $432 12.618829626614412 $310 $433 forward 7 unknown #
coedge $-1 $205 $204 $430 $434 forward $81 $-1 #
edge $-1 $317 -71.615955076754048 $432 71.615955076754048 $309 $435 forward 7 unknown #
coedge $-1 $322 $321 $205 $315 reversed $306 $-1 #
edge $-1 $436 -71.615955076754048 $316 71.615955076754048 $314 $437 forward 7 unknown #
vertex $-1 $207 $438 #
vertex $-1 $328 $439 #
straight-curve $-1 71.615955076754048 0 -12.618829626614412 0 -1 0 I I #
coedge $-1 $308 $310 $208 $320 reversed $201 $-1 #
edge $-1 $323 -43.923811334162743 $326 43.923811334162743 $319 $440 forward 7 unknown #
coedge $-1 $314 $209 $214 $329 forward $306 $-1 #
coedge $-1 $209 $314 $308 $431 reversed $306 $-1 #
vertex $-1 $210 $441 #
straight-curve $-1 0 43.923811334162743 12.618829626614412 -1 0 0 I I #
coedge $-1 $211 $309 $213 $328 reversed $126 $-1 #
vertex $-1 $320 $442 #
straight-curve $-1 0 -43.923811334162743 12.618829626614412 1 0 0 I I #
edge $-1 $216 -12.618829626614412 $317 12.618829626614412 $213 $443 forward 7 unknown #
edge $-1 $217 -12.618829626614412 $316 12.618829626614412 $214 $444 forward 7 unknown #
point $-1 71.615955076754048 -43.923811334162743 12.618829626614412 #
point $-1 71.615955076754048 43.923811334162743 12.618829626614412 #
face $-1 $-1 $234 $31 $-1 $445 reversed single #
loop $-1 $-1 $230 $219 #
plane-surface $-1 0 -43.923811334162743 0 0 1 0 0 0 1 forward_v I I I I #
coedge $-1 $446 $447 $227 $345 forward $220 $-1 #
coedge $-1 $346 $222 $224 $341 reversed $134 $-1 #
edge $-1 $343 -0.78788242476187076 $235 5.1752048796731644 $233 $448 forward 7 unknown #
coedge $-1 $224 $223 $449 $450 reversed $85 $-1 #
coedge $-1 $350 $349 $223 $340 forward $333 $-1 #
edge $-1 $451 -71.615955076754048 $342 71.615955076754048 $339 $452 forward 7 unknown #
edge $-1 $453 -71.615955076754048 $343 71.615955076754048 $336 $454 forward 7 unknown #
vertex $-1 $340 $455 #
vertex $-1 $226 $456 #
straight-curve $-1 71.615955076754048 -18.797156572677473 1.4057788026937761 0 1 0 I I #
edge $-1 $351 -25.12665476148527 $347 -12.467658383869672 $335 $457 forward 7 unknown #
coedge $-1 $228 $336 $446 $458 reversed $134 $-1 #
vertex $-1 $345 $459 #
straight-curve $-1 0 -31.264814956547145 7.3688661071288113 -1 0 0 I I #
coedge $-1 $339 $230 $447 $460 forward $333 $-1 #
coedge $-1 $230 $339 $232 $353 reversed $333 $-1 #
vertex $-1 $460 $461 #
straight-curve $-1 0 -43.923811334162743 7.3688661071288113 -1 0 0 I I #
edge $-1 $236 -7.3688661071288113 $342 -1.4057788026937761 $232 $462 forward 7 unknown #
point $-1 71.615955076754048 -31.264814956547145 7.3688661071288113 #
point $-1 71.615955076754048 -43.923811334162743 7.3688661071288113 #
plane-surface $-1 0 0 12.618829626614412 0 0 1 1 0 0 forward_v I I I I #
coedge $-1 $367 $366 $359 $463 forward $239 $-1 #
coedge $-1 $359 $241 $243 $363 reversed $142 $-1 #
coedge $-1 $241 $358 $357 $463 reversed $142 $-1 #
coedge $-1 $249 $244 $241 $361 forward $250 $-1 #
edge $-1 $364 -29.676990158460683 $464 -22.856379048966502 $360 $465 forward 7 unknown #
coedge $-1 $243 $242 $367 $466 reversed $89 $-1 #
edge $-1 $467 -4.9405691961323804e-014 $364 11.891372823854315 $358 $468 forward 7 unknown #
vertex $-1 $245 $469 #
straight-curve $-1 -64.795343967259868 2.2623351449917735 12.618829626614412 0 1 0 I I #
coedge $-1 $357 $246 $249 $371 reversed $239 $-1 #
coedge $-1 $246 $357 $362 $466 forward $239 $-1 #
vertex $-1 $247 $470 #
straight-curve $-1 -71.615955076754048 -2.7871006455318366 42.516217052802631 0 0 1 I I #
straight-curve $-1 -71.61595507675402 -2.7871006455318366 2.8779871718292043 -0.57357642473473569 0 -0.81915205242281985 I I #
edge $-1 $464 -11.83644122549893 $251 2.7871006455318366 $366 $471 forward 7 unknown #
point $-1 -71.615955076754048 -2.7871006455318366 12.618829626614412 #
point $-1 -64.795343967259868 -2.7871006455318366 12.618829626614412 #
edge $-1 $472 1 $472 0 $254 $-1 forward 7 unknown #
vertex $-1 $255 $473 #
ellipse-curve $-1 -64.23857315496555 4.5246702899835469 4.9706317062046468 -0.81915205242281985 0 0.57357642473473569 1.4339410618368391 0 2.0478801310570498 1 I I #
point $-1 -66.771708460170132 4.5246702899835469 9.7962885302788596 #
plane-surface $-1 0 0 12.618829626614412 0 0 1 1 0 0 forward_v I I I I #
coedge $-1 $382 $474 $263 $385 forward $259 $-1 #
coedge $-1 $266 $261 $384 $475 forward $157 $-1 #
coedge $-1 $261 $266 $269 $392 reversed $157 $-1 #
coedge $-1 $474 $379 $261 $383 reversed $259 $-1 #
edge $-1 $476 88.62730860678559 $477 98.820515222299917 $261 $478 forward 7 unknown #
coedge $-1 $263 $262 $380 $475 reversed $98 $-1 #
edge $-1 $387 80.857383728844368 $477 93.456879886867966 $379 $479 forward 7 unknown #
coedge $-1 $269 $264 $474 $480 forward $270 $-1 #
vertex $-1 $265 $481 #
straight-curve $-1 64.210157190672746 -11.479444579862324 12.618829626614414 0 -1 0 I I #
vertex $-1 $267 $482 #
straight-curve $-1 71.615955076754048 -14.652963362902156 101.2461382334 0 0 1 I I #
straight-curve $-1 -12.573647755795193 -14.652963362902156 118.30267363425075 0.5877852410284794 0 -0.80901700255871778 I I #
edge $-1 $476 -31.264814956547141 $271 -14.652963362902156 $381 $483 forward 7 unknown #
point $-1 71.615955076754048 -14.652963362902156 12.618829626614412 #
point $-1 64.210157190672746 -14.652963362902156 12.618829626614428 #
edge $-1 $484 1 $484 0 $274 $-1 forward 7 unknown #
vertex $-1 $275 $485 #
ellipse-curve $-1 64.384609225675831 -26.518571644077149 4.9586596574179644 0.80901700255871778 0 0.5877852410284794 1.1755704820569588 0 -1.6180340051174356 1 I I #
point $-1 69.088626615770337 -26.518571644077149 5.9041923137397818 #
edge $-1 $486 1 $486 0 $278 $-1 forward 7 unknown #
vertex $-1 $279 $487 #
ellipse-curve $-1 64.384609225675831 -19.399206675372156 4.9586596574179644 0.80901700255871778 0 0.5877852410284794 1.1755704820569588 0 -1.6180340051174356 1 I I #
point $-1 69.088626615770337 -19.399206675372156 5.9041923137397818 #
loop $-1 $-1 $290 $282 #
plane-surface $-1 0 43.923811334162743 0 0 -1 0 0 0 -1 forward_v I I I I #
coedge $-1 $410 $488 $286 $406 forward $283 $-1 #
edge $-1 $408 88.62730860678559 $416 98.820515222299917 $405 $489 forward 7 unknown #
coedge $-1 $293 $287 $488 $490 forward $179 $-1 #
vertex $-1 $490 $491 #
straight-curve $-1 51.651701433677751 27.311959740517771 12.618829626614414 1 0 0 I I #
coedge $-1 $492 $405 $289 $411 forward $283 $-1 #
edge $-1 $416 9.5030169718476394 $414 26.114868565492625 $410 $493 forward 7 unknown #
coedge $-1 $413 $290 $293 $418 reversed $403 $-1 #
coedge $-1 $290 $412 $492 $494 forward $403 $-1 #
vertex $-1 $291 $495 #
straight-curve $-1 17.726528299701425 43.923811334162743 76.59805790329608 -0.5877852410284794 0 0.80901700255871778 I I #
vertex $-1 $411 $496 #
straight-curve $-1 -12.573647755795193 27.311959740517771 118.30267363425075 -0.5877852410284794 0 0.80901700255871778 I I #
edge $-1 $497 -71.615955076754048 $294 -64.210157190672746 $412 $498 forward 7 unknown #
point $-1 64.210157190672746 43.923811334162757 12.618829626614428 #
point $-1 64.210157190672746 27.311959740517771 12.618829626614428 #
edge $-1 $499 1 $499 0 $297 $-1 forward 7 unknown #
vertex $-1 $298 $500 #
ellipse-curve $-1 64.384609225675831 32.058203052987757 4.9586596574179644 0.80901700255871778 0 0.5877852410284794 1.1755704820569588 0 -1.6180340051174356 1 I I #
point $-1 69.088626615770337 32.058203052987757 5.9041923137397818 #
edge $-1 $501 1 $501 0 $301 $-1 forward 7 unknown #
vertex $-1 $302 $502 #
ellipse-curve $-1 64.384609225675831 39.177568021692757 4.9586596574179644 0.80901700255871778 0 0.5877852410284794 1.1755704820569588 0 -1.6180340051174356 1 I I #
point $-1 69.088626615770337 39.177568021692757 5.9041923137397818 #
plane-surface $-1 71.615955076754048 0 0 -1 0 0 0 0 1 forward_v I I I I #
coedge $-1 $310 $308 $312 $434 reversed $201 $-1 #
edge $-1 $323 -12.618829626614412 $436 12.618829626614412 $322 $503 forward 7 unknown #
vertex $-1 $434 $504 #
straight-curve $-1 -71.615955076754048 -43.923811334162743 0 0 0 -1 I I #
edge $-1 $432 -43.923811334162743 $436 43.923811334162743 $430 $505 forward 7 unknown #
straight-curve $-1 0 -43.923811334162743 -12.618829626614412 -1 0 0 I I #
vertex $-1 $315 $506 #
straight-curve $-1 0 43.923811334162743 -12.618829626614412 1 0 0 I I #
point $-1 71.615955076754048 43.923811334162743 -12.618829626614412 #
point $-1 71.615955076754048 -43.923811334162743 -12.618829626614412 #
straight-curve $-1 -71.615955076754048 0 12.618829626614412 0 -1 0 I I #
point $-1 -71.615955076754048 43.923811334162743 12.618829626614412 #
point $-1 -71.615955076754048 -43.923811334162743 12.618829626614412 #
straight-curve $-1 71.615955076754048 -43.923811334162743 0 0 0 -1 I I #
straight-curve $-1 71.615955076754048 43.923811334162743 0 0 0 -1 I I #
plane-surface $-1 71.615955076754048 0 0 -1 0 0 0 0 1 forward_v I I I I #
coedge $-1 $449 $335 $346 $458 forward $220 $-1 #
coedge $-1 $335 $449 $349 $460 reversed $220 $-1 #
straight-curve $-1 71.615955076754048 -31.264814956547145 2.1936612274556468 0 0 1 I I #
coedge $-1 $447 $446 $338 $450 forward $220 $-1 #
edge $-1 $453 12.467658383869672 $451 25.12665476148527 $449 $507 forward 7 unknown #
vertex $-1 $340 $508 #
straight-curve $-1 0 -43.923811334162743 1.4057788026937761 1 0 0 I I #
vertex $-1 $450 $509 #
straight-curve $-1 0 -31.264814956547145 1.4057788026937761 1 0 0 I I #
point $-1 71.615955076754048 -43.923811334162743 1.4057788026937761 #
point $-1 71.615955076754048 -31.264814956547145 1.4057788026937761 #
straight-curve $-1 -71.615955076754048 -18.797156572677473 7.3688661071288113 0 1 0 I I #
edge $-1 $347 -5.1752048796731644 $453 0.78788242476187076 $446 $510 forward 7 unknown #
point $-1 -71.615955076754048 -31.264814956547145 7.3688661071288113 #
edge $-1 $351 -7.3688661071288113 $451 -1.4057788026937761 $447 $511 forward 7 unknown #
point $-1 -71.615955076754048 -43.923811334162743 7.3688661071288113 #
straight-curve $-1 71.615955076754048 -43.923811334162743 0 0 0 -1 I I #
edge $-1 $464 29.897387426188217 $467 39.638229880973469 $357 $512 forward 7 unknown #
vertex $-1 $371 $513 #
straight-curve $-1 -94.47233412572055 11.83644122549893 12.618829626614414 -1 0 0 I I #
edge $-1 $467 -9.5741060805071569 $368 5.04943579052361 $367 $514 forward 7 unknown #
vertex $-1 $466 $515 #
straight-curve $-1 -71.61595507675402 11.83644122549893 2.8779871718292043 0.57357642473473569 0 0.81915205242281985 I I #
point $-1 -64.795343967259868 11.83644122549893 12.618829626614412 #
point $-1 -71.615955076754048 -2.7871006455318366 2.8779871718291639 #
straight-curve $-1 -71.615955076754048 0 12.618829626614412 0 -1 0 I I #
vertex $-1 $374 $516 #
point $-1 -62.804632093128717 4.5246702899835469 7.0185118372616966 #
coedge $-1 $379 $382 $386 $480 reversed $259 $-1 #
edge $-1 $477 -19.785370376684821 $389 -3.1735187830398317 $380 $517 forward 7 unknown #
vertex $-1 $392 $518 #
vertex $-1 $385 $519 #
straight-curve $-1 71.615955076754048 -31.264814956547141 101.2461382334 0 0 -1 I I #
straight-curve $-1 16.68338040668171 -31.264814956547145 78.033827845664135 0.5877852410284794 0 -0.80901700255871778 I I #
edge $-1 $387 12.558455756994995 $476 19.964253643076297 $386 $520 forward 7 unknown #
point $-1 64.210157190672746 -31.264814956547141 12.618829626614428 #
point $-1 71.615955076754048 -14.652963362902156 2.425623011100086 #
straight-curve $-1 71.615955076754048 0 12.618829626614412 0 1 0 I I #
vertex $-1 $395 $521 #
point $-1 65.560179707732786 -26.518571644077149 3.3406256523005293 #
vertex $-1 $399 $522 #
point $-1 65.560179707732786 -19.399206675372156 3.3406256523005293 #
coedge $-1 $405 $492 $407 $490 reversed $283 $-1 #
straight-curve $-1 71.615955076754048 27.311959740517771 101.2461382334 0 0 -1 I I #
edge $-1 $408 27.311959740517771 $497 43.923811334162743 $488 $523 forward 7 unknown #
point $-1 71.615955076754048 27.311959740517771 12.618829626614412 #
coedge $-1 $488 $410 $413 $494 reversed $283 $-1 #
straight-curve $-1 71.615955076754048 17.808942768670132 2.4256230111000932 0 1 0 I I #
edge $-1 $497 -12.618829626614412 $414 -2.425623011100086 $492 $524 forward 7 unknown #
point $-1 71.615955076754048 43.923811334162757 2.425623011100086 #
point $-1 71.615955076754048 27.311959740517771 2.425623011100086 #
vertex $-1 $490 $525 #
straight-curve $-1 0 43.923811334162743 12.618829626614412 -1 0 0 I I #
vertex $-1 $421 $526 #
point $-1 65.560179707732786 32.058203052987757 3.3406256523005293 #
vertex $-1 $425 $527 #
point $-1 65.560179707732786 39.177568021692757 3.3406256523005293 #
straight-curve $-1 -71.615955076754048 43.923811334162743 0 0 0 -1 I I #
point $-1 -71.615955076754048 -43.923811334162743 -12.618829626614412 #
straight-curve $-1 -71.615955076754048 0 -12.618829626614412 0 1 0 I I #
point $-1 -71.615955076754048 43.923811334162743 -12.618829626614412 #
straight-curve $-1 -71.615955076754048 -18.797156572677473 1.4057788026937761 0 -1 0 I I #
point $-1 -71.615955076754048 -43.923811334162743 1.4057788026937761 #
point $-1 -71.615955076754048 -31.264814956547145 1.4057788026937761 #
straight-curve $-1 -71.615955076754048 -31.264814956547145 2.1936612274556468 0 0 -1 I I #
straight-curve $-1 -71.615955076754048 -43.923811334162743 0 0 0 -1 I I #
straight-curve $-1 -71.615955076754048 11.83644122549893 42.516217052802631 0 0 -1 I I #
point $-1 -71.615955076754048 11.83644122549893 12.618829626614412 #
straight-curve $-1 -71.615955076754048 2.2623351449917735 2.8779871718291647 0 -1 0 I I #
point $-1 -71.615955076754048 11.83644122549893 2.8779871718291639 #
point $-1 -62.190693023908501 4.5246702899835469 3.5366906443678081 #
straight-curve $-1 71.615955076754048 -11.479444579862324 2.4256230111000932 0 1 0 I I #
point $-1 71.615955076754048 -31.264814956547141 12.618829626614412 #
point $-1 71.615955076754048 -31.264814956547145 2.4256230111000807 #
straight-curve $-1 51.651701433677751 -31.264814956547141 12.618829626614414 1 0 0 I I #
point $-1 62.766575220558394 -26.518571644077149 3.7830891753610061 #
point $-1 62.766575220558394 -19.399206675372156 3.7830891753610061 #
straight-curve $-1 71.615955076754048 0 12.618829626614412 0 1 0 I I #
straight-curve $-1 71.615955076754048 43.923811334162743 0 0 0 -1 I I #
point $-1 71.615955076754048 43.923811334162743 12.618829626614412 #
point $-1 62.766575220558394 32.058203052987757 3.7830891753610061 #
point $-1 62.766575220558394 39.177568021692757 3.7830891753610061 #
End-of-ACIS-data 