500 0 11 0           
7 Unknown 11 ACIS 5.0 NT 24 Fri Mar 26 14:37:04 1999 
-1 9.9999999999999995e-007 1e-010 
body $-1 $11 $-1 $12 #
body $-1 $13 $-1 $14 #
body $-1 $15 $-1 $16 #
body $-1 $17 $-1 $18 #
body $-1 $19 $-1 $20 #
body $-1 $21 $-1 $22 #
body $-1 $23 $-1 $24 #
body $-1 $25 $-1 $26 #
body $-1 $27 $-1 $28 #
body $-1 $29 $-1 $30 #
body $-1 $31 $-1 $32 #
lump $-1 $-1 $33 $0 #
transform $-1 1 0 0 0 1 0 0 0 1 52.161015655995364 30.453870000662743 9.8069138301642855 1 rotate no_reflect no_shear #
lump $-1 $-1 $34 $1 #
transform $-1 1 0 0 0 1 0 0 0 1 52.161015655995364 30.453870000662743 9.8069138301642855 1 rotate no_reflect no_shear #
lump $-1 $-1 $35 $2 #
transform $-1 1 0 0 0 1 0 0 0 1 52.161015655995364 30.453870000662743 9.8069138301642855 1 rotate no_reflect no_shear #
lump $-1 $-1 $36 $3 #
transform $-1 1 0 0 0 1 0 0 0 1 52.161015655995364 30.453870000662743 9.8069138301642855 1 rotate no_reflect no_shear #
lump $-1 $-1 $37 $4 #
transform $-1 1 0 0 0 1 0 0 0 1 52.161015655995364 30.453870000662743 9.8069138301642855 1 rotate no_reflect no_shear #
lump $-1 $-1 $38 $5 #
transform $-1 1 0 0 0 1 0 0 0 1 52.161015655995364 30.453870000662743 9.8069138301642855 1 rotate no_reflect no_shear #
lump $-1 $-1 $39 $6 #
transform $-1 1 0 0 0 1 0 0 0 1 52.161015655995364 30.453870000662743 9.8069138301642855 1 rotate no_reflect no_shear #
lump $-1 $-1 $40 $7 #
transform $-1 1 0 0 0 1 0 0 0 1 52.161015655995364 30.453870000662743 9.8069138301642855 1 rotate no_reflect no_shear #
lump $-1 $-1 $41 $8 #
transform $-1 1 0 0 0 1 0 0 0 1 52.161015655995364 30.453870000662743 9.8069138301642855 1 rotate no_reflect no_shear #
lump $-1 $-1 $42 $9 #
transform $-1 1 0 0 0 1 0 0 0 1 52.161015655995364 30.453870000662743 9.8069138301642855 1 rotate no_reflect no_shear #
lump $-1 $-1 $43 $10 #
transform $-1 1 0 0 0 1 0 0 0 1 52.161015655995364 30.453870000662743 9.8069138301642855 1 rotate no_reflect no_shear #
shell $-1 $-1 $-1 $44 $-1 $11 #
shell $-1 $-1 $-1 $45 $-1 $13 #
shell $-1 $-1 $-1 $46 $-1 $15 #
shell $-1 $-1 $-1 $47 $-1 $17 #
shell $-1 $-1 $-1 $48 $-1 $19 #
shell $-1 $-1 $-1 $49 $-1 $21 #
shell $-1 $-1 $-1 $50 $-1 $23 #
shell $-1 $-1 $-1 $51 $-1 $25 #
shell $-1 $-1 $-1 $52 $-1 $27 #
shell $-1 $-1 $-1 $53 $-1 $29 #
shell $-1 $-1 $-1 $54 $-1 $31 #
face $-1 $55 $56 $33 $-1 $57 forward single #
face $-1 $58 $59 $34 $-1 $60 forward single #
face $-1 $61 $62 $35 $-1 $63 forward single #
face $-1 $64 $65 $36 $-1 $66 reversed single #
face $-1 $67 $68 $37 $-1 $69 forward single #
face $-1 $70 $71 $38 $-1 $72 forward single #
face $-1 $73 $74 $39 $-1 $75 forward single #
face $-1 $76 $77 $40 $-1 $78 reversed single #
face $-1 $79 $80 $41 $-1 $81 forward single #
face $-1 $82 $83 $42 $-1 $84 forward single #
face $-1 $85 $86 $43 $-1 $87 forward single #
face $-1 $88 $89 $33 $-1 $90 reversed single #
loop $-1 $-1 $91 $44 #
plane-surface $-1 0 0 9.8069138301642855 0 0 1 1 0 0 forward_v I I I I #
face $-1 $92 $93 $34 $-1 $94 reversed single #
loop $-1 $-1 $95 $45 #
plane-surface $-1 0 -25.11712150288443 6.4986058888063463 0 0 1 1 0 0 forward_v I I I I #
face $-1 $96 $97 $35 $-1 $98 reversed single #
loop $-1 $-1 $99 $46 #
plane-surface $-1 0 25.117121502884434 6.4986058888063463 0 0 1 1 0 0 forward_v I I I I #
face $-1 $100 $101 $36 $-1 $102 reversed single #
loop $-1 $-1 $103 $47 #
plane-surface $-1 -30.045866226672409 -15.576981487887991 67.718905462760176 0.61566148304635926 0 0.78801074757464917 0.78801074757464917 0 -0.61566148304635926 forward_v I I I I #
face $-1 $104 $105 $37 $-1 $106 forward single #
loop $-1 $107 $108 $48 #
cone-surface $-1 47.811727771548483 -18.099016398218865 6.2553760167004393 -0.61566148304635926 0 -0.78801074757464917 0.39400537378732459 0 -0.30783074152317963 1 I I 0 1 0.5 forward I I I I #
face $-1 $109 $110 $38 $-1 $111 forward single #
loop $-1 $112 $113 $49 #
cone-surface $-1 47.811727771548483 -15.57698148788799 6.2553760167004393 -0.61566148304635926 0 -0.78801074757464917 0.39400537378732459 0 -0.30783074152317963 1 I I 0 1 0.5 forward I I I I #
face $-1 $114 $115 $39 $-1 $116 forward single #
loop $-1 $117 $118 $50 #
cone-surface $-1 47.811727771548483 -13.054946577557114 6.2553760167004393 -0.61566148304635926 0 -0.78801074757464917 0.39400537378732459 0 -0.30783074152317963 1 I I 0 1 0.5 forward I I I I #
face $-1 $119 $120 $40 $-1 $121 reversed single #
loop $-1 $-1 $122 $51 #
plane-surface $-1 -52.161015655995357 14.998791218769941 4.8454623581219494 -0.5877852598018023 0 0.80901698891910034 0.80901698891910034 0 0.5877852598018023 forward_v I I I I #
face $-1 $123 $124 $41 $-1 $125 forward single #
loop $-1 $126 $127 $52 #
cone-surface $-1 -48.452697040035034 12.12984214696824 6.9216795996835678 0.5877852598018023 0 -0.80901698891910034 0.40450849445955017 0 0.29389262990090115 1 I I 0 1 0.5 forward I I I I #
face $-1 $128 $129 $42 $-1 $130 forward single #
loop $-1 $131 $132 $53 #
cone-surface $-1 -48.452697040035034 14.998791218769941 6.9216795996835678 0.5877852598018023 0 -0.80901698891910034 0.40450849445955017 0 0.29389262990090115 1 I I 0 1 0.5 forward I I I I #
face $-1 $133 $134 $43 $-1 $135 forward single #
loop $-1 $136 $137 $54 #
cone-surface $-1 -48.452697040035034 17.867740290571643 6.9216795996835678 0.5877852598018023 0 -0.80901698891910034 0.40450849445955017 0 0.29389262990090115 1 I I 0 1 0.5 forward I I I I #
face $-1 $138 $139 $33 $-1 $140 reversed single #
loop $-1 $-1 $141 $55 #
plane-surface $-1 0 0 -9.8069138301642855 0 0 1 1 0 0 forward_v I I I I #
coedge $-1 $142 $143 $144 $145 forward $56 $-1 #
face $-1 $146 $147 $34 $-1 $148 reversed single #
loop $-1 $-1 $149 $58 #
plane-surface $-1 0 -25.11712150288443 2.0418428697635163 0 0 1 1 0 0 forward_v I I I I #
coedge $-1 $150 $151 $152 $153 reversed $59 $-1 #
face $-1 $154 $155 $35 $-1 $156 reversed single #
loop $-1 $-1 $157 $61 #
plane-surface $-1 0 25.117121502884434 2.0418428697635163 0 0 1 1 0 0 forward_v I I I I #
coedge $-1 $158 $159 $160 $161 reversed $62 $-1 #
face $-1 $162 $163 $36 $-1 $164 forward single #
loop $-1 $-1 $165 $64 #
plane-surface $-1 34.181190285276536 -11.373589970669865 149.92578734542795 0 -1 0 -0.61566148304635926 0 -0.78801074757464917 forward_v I I I I #
coedge $-1 $166 $167 $168 $169 reversed $65 $-1 #
face $-1 $-1 $170 $37 $-1 $171 forward single #
loop $-1 $172 $173 $67 #
cone-surface $-1 47.349981659263712 -18.099016398218865 5.6643679560194524 -0.61566148304635926 0 -0.78801074757464917 0.19700268689366229 0 -0.15391537076158981 1 I I -0.70710678118654746 0.70710678118654746 0.25 forward I I I I #
loop $-1 $-1 $174 $48 #
coedge $-1 $108 $108 $175 $176 reversed $68 $-1 #
face $-1 $-1 $177 $38 $-1 $178 forward single #
loop $-1 $179 $180 $70 #
cone-surface $-1 47.349981659263712 -15.57698148788799 5.6643679560194524 -0.61566148304635926 0 -0.78801074757464917 0.19700268689366229 0 -0.15391537076158981 1 I I -0.70710678118654746 0.70710678118654746 0.25 forward I I I I #
loop $-1 $-1 $181 $49 #
coedge $-1 $113 $113 $182 $183 reversed $71 $-1 #
face $-1 $-1 $184 $39 $-1 $185 forward single #
loop $-1 $186 $187 $73 #
cone-surface $-1 47.349981659263712 -13.054946577557114 5.6643679560194524 -0.61566148304635926 0 -0.78801074757464917 0.19700268689366229 0 -0.15391537076158981 1 I I -0.70710678118654746 0.70710678118654746 0.25 forward I I I I #
loop $-1 $-1 $188 $50 #
coedge $-1 $118 $118 $189 $190 reversed $74 $-1 #
face $-1 $191 $192 $40 $-1 $193 reversed single #
loop $-1 $-1 $194 $76 #
plane-surface $-1 -113.47996793376558 10.217209432433769 89.243758008072788 0 1 0 -0.5877852598018023 0 0.80901698891910034 forward_v I I I I #
coedge $-1 $195 $196 $197 $198 reversed $77 $-1 #
face $-1 $-1 $199 $41 $-1 $200 forward single #
loop $-1 $201 $202 $79 #
cone-surface $-1 -48.011858095183683 12.12984214696824 6.314916857994243 0.5877852598018023 0 -0.80901698891910034 0.20225424722977509 0 0.14694631495045057 1 I I -0.70710678118654746 0.70710678118654746 0.25 forward I I I I #
loop $-1 $-1 $203 $52 #
coedge $-1 $127 $127 $204 $205 reversed $80 $-1 #
face $-1 $-1 $206 $42 $-1 $207 forward single #
loop $-1 $208 $209 $82 #
cone-surface $-1 -48.011858095183683 14.998791218769941 6.314916857994243 0.5877852598018023 0 -0.80901698891910034 0.20225424722977509 0 0.14694631495045057 1 I I -0.70710678118654746 0.70710678118654746 0.25 forward I I I I #
loop $-1 $-1 $210 $53 #
coedge $-1 $132 $132 $211 $212 reversed $83 $-1 #
face $-1 $-1 $213 $43 $-1 $214 forward single #
loop $-1 $215 $216 $85 #
cone-surface $-1 -48.011858095183683 17.867740290571643 6.314916857994243 0.5877852598018023 0 -0.80901698891910034 0.20225424722977509 0 0.14694631495045057 1 I I -0.70710678118654746 0.70710678118654746 0.25 forward I I I I #
loop $-1 $-1 $217 $54 #
coedge $-1 $137 $137 $218 $219 reversed $86 $-1 #
face $-1 $220 $221 $33 $-1 $222 reversed single #
loop $-1 $-1 $223 $88 #
plane-surface $-1 0 -30.453870000662743 0 0 1 0 0 0 1 forward_v I I I I #
coedge $-1 $224 $225 $226 $227 forward $89 $-1 #
coedge $-1 $228 $91 $229 $230 forward $56 $-1 #
coedge $-1 $91 $228 $231 $232 forward $56 $-1 #
coedge $-1 $233 $234 $91 $145 reversed $235 $-1 #
edge $-1 $236 -30.453870000662743 $237 30.453870000662743 $144 $238 forward 7 unknown #
face $-1 $239 $240 $34 $-1 $241 reversed single #
loop $-1 $-1 $242 $92 #
plane-surface $-1 0 -19.780373005106117 4.2702243792849313 0 -1 0 0 0 -1 forward_v I I I I #
coedge $-1 $243 $244 $245 $246 reversed $93 $-1 #
coedge $-1 $247 $95 $248 $249 forward $59 $-1 #
coedge $-1 $95 $247 $250 $251 reversed $59 $-1 #
coedge $-1 $252 $253 $95 $153 forward $254 $-1 #
edge $-1 $255 7.2218122536639022 $256 17.895309249220528 $152 $257 forward 7 unknown #
face $-1 $258 $259 $35 $-1 $260 reversed single #
loop $-1 $-1 $261 $96 #
plane-surface $-1 0 19.780373005106121 4.2702243792849313 0 1 0 0 0 1 forward_v I I I I #
coedge $-1 $262 $263 $264 $265 reversed $97 $-1 #
coedge $-1 $266 $99 $267 $268 reversed $62 $-1 #
coedge $-1 $99 $266 $269 $270 forward $62 $-1 #
coedge $-1 $271 $272 $99 $161 forward $259 $-1 #
edge $-1 $273 -17.895309249220531 $274 -7.221812253663904 $160 $275 forward 7 unknown #
face $-1 $276 $277 $36 $-1 $278 reversed single #
loop $-1 $-1 $279 $100 #
plane-surface $-1 0 -19.780373005106117 4.2702243792849313 0 -1 0 0 0 -1 forward_v I I I I #
coedge $-1 $280 $281 $282 $283 reversed $101 $-1 #
coedge $-1 $284 $103 $279 $285 reversed $65 $-1 #
coedge $-1 $103 $284 $280 $286 forward $65 $-1 #
coedge $-1 $282 $287 $103 $169 forward $277 $-1 #
edge $-1 $288 -11.991882261162122 $289 -3.5850992267258697 $168 $290 forward 7 unknown #
loop $-1 $-1 $175 $104 #
plane-surface $-1 -30.045866226672409 -15.576981487887991 67.718905462760176 0.61566148304635926 0 0.78801074757464917 0.78801074757464917 0 -0.61566148304635926 forward_v I I I I #
loop $-1 $-1 $291 $67 #
coedge $-1 $173 $173 $174 $292 reversed $105 $-1 #
coedge $-1 $174 $174 $173 $292 forward $107 $-1 #
coedge $-1 $175 $175 $108 $176 forward $170 $-1 #
edge $-1 $293 0 $293 6.2831853071796004 $175 $294 forward 7 unknown #
loop $-1 $-1 $182 $109 #
plane-surface $-1 -30.045866226672409 -15.576981487887991 67.718905462760176 0.61566148304635926 0 0.78801074757464917 0.78801074757464917 0 -0.61566148304635926 forward_v I I I I #
loop $-1 $-1 $295 $70 #
coedge $-1 $180 $180 $181 $296 reversed $110 $-1 #
coedge $-1 $181 $181 $180 $296 forward $112 $-1 #
coedge $-1 $182 $182 $113 $183 forward $177 $-1 #
edge $-1 $297 0 $297 6.2831853071796004 $182 $298 forward 7 unknown #
loop $-1 $-1 $189 $114 #
plane-surface $-1 -30.045866226672409 -15.576981487887991 67.718905462760176 0.61566148304635926 0 0.78801074757464917 0.78801074757464917 0 -0.61566148304635926 forward_v I I I I #
loop $-1 $-1 $299 $73 #
coedge $-1 $187 $187 $188 $300 reversed $115 $-1 #
coedge $-1 $188 $188 $187 $300 forward $117 $-1 #
coedge $-1 $189 $189 $118 $190 forward $184 $-1 #
edge $-1 $301 0 $301 6.2831853071796004 $189 $302 forward 7 unknown #
face $-1 $303 $304 $40 $-1 $305 forward single #
loop $-1 $-1 $306 $119 #
plane-surface $-1 -52.161015655995364 0 0 1 0 0 0 0 -1 forward_v I I I I #
coedge $-1 $307 $308 $309 $310 reversed $120 $-1 #
coedge $-1 $311 $122 $312 $313 reversed $77 $-1 #
coedge $-1 $122 $311 $307 $314 forward $77 $-1 #
coedge $-1 $309 $306 $122 $198 forward $192 $-1 #
edge $-1 $315 -12.28097739572115 $316 -2.7178138230487985 $197 $317 forward 7 unknown #
loop $-1 $-1 $204 $123 #
plane-surface $-1 -52.161015655995357 14.998791218769941 4.8454623581219494 -0.5877852598018023 0 0.80901698891910034 0.80901698891910034 0 0.5877852598018023 forward_v I I I I #
loop $-1 $-1 $318 $79 #
coedge $-1 $202 $202 $203 $319 reversed $124 $-1 #
coedge $-1 $203 $203 $202 $319 forward $126 $-1 #
coedge $-1 $204 $204 $127 $205 forward $199 $-1 #
edge $-1 $320 0 $320 6.2831853071796004 $204 $321 forward 7 unknown #
loop $-1 $-1 $211 $128 #
plane-surface $-1 -52.161015655995357 14.998791218769941 4.8454623581219494 -0.5877852598018023 0 0.80901698891910034 0.80901698891910034 0 0.5877852598018023 forward_v I I I I #
loop $-1 $-1 $322 $82 #
coedge $-1 $209 $209 $210 $323 reversed $129 $-1 #
coedge $-1 $210 $210 $209 $323 forward $131 $-1 #
coedge $-1 $211 $211 $132 $212 forward $206 $-1 #
edge $-1 $324 0 $324 6.2831853071796004 $211 $325 forward 7 unknown #
loop $-1 $-1 $218 $133 #
plane-surface $-1 -52.161015655995357 14.998791218769941 4.8454623581219494 -0.5877852598018023 0 0.80901698891910034 0.80901698891910034 0 0.5877852598018023 forward_v I I I I #
loop $-1 $-1 $326 $85 #
coedge $-1 $216 $216 $217 $327 reversed $134 $-1 #
coedge $-1 $217 $217 $216 $327 forward $136 $-1 #
coedge $-1 $218 $218 $137 $219 forward $213 $-1 #
edge $-1 $328 0 $328 6.2831853071796004 $218 $329 forward 7 unknown #
face $-1 $330 $331 $33 $-1 $332 reversed single #
loop $-1 $-1 $333 $138 #
plane-surface $-1 -52.161015655995364 0 0 1 0 0 0 0 -1 forward_v I I I I #
coedge $-1 $334 $231 $335 $336 forward $139 $-1 #
coedge $-1 $337 $141 $334 $338 forward $89 $-1 #
coedge $-1 $141 $337 $339 $340 forward $89 $-1 #
coedge $-1 $234 $233 $141 $227 reversed $235 $-1 #
edge $-1 $341 -30.453870000662743 $342 30.453870000662743 $226 $343 forward 7 unknown #
coedge $-1 $143 $142 $344 $345 forward $56 $-1 #
coedge $-1 $346 $347 $142 $230 reversed $331 $-1 #
edge $-1 $237 -52.161015655995364 $348 52.161015655995364 $229 $349 forward 7 unknown #
coedge $-1 $223 $350 $143 $232 reversed $139 $-1 #
edge $-1 $351 -52.161015655995364 $236 52.161015655995364 $231 $352 forward 7 unknown #
coedge $-1 $226 $144 $350 $353 forward $235 $-1 #
coedge $-1 $144 $226 $346 $354 reversed $235 $-1 #
loop $-1 $-1 $233 $330 #
vertex $-1 $145 $355 #
vertex $-1 $145 $356 #
straight-curve $-1 52.161015655995364 0 9.8069138301642855 0 1 0 I I #
face $-1 $357 $358 $34 $-1 $359 reversed single #
loop $-1 $-1 $360 $146 #
plane-surface $-1 -52.161015655995364 0 0 1 0 0 0 0 -1 forward_v I I I I #
coedge $-1 $361 $248 $253 $362 reversed $147 $-1 #
coedge $-1 $363 $149 $364 $365 reversed $93 $-1 #
coedge $-1 $149 $363 $361 $366 forward $93 $-1 #
coedge $-1 $253 $252 $149 $246 forward $254 $-1 #
edge $-1 $367 -17.895309249220528 $368 -7.2218122536639022 $245 $369 forward 7 unknown #
coedge $-1 $151 $150 $360 $370 reversed $59 $-1 #
coedge $-1 $242 $371 $150 $249 reversed $147 $-1 #
edge $-1 $255 -52.161015655995364 $372 52.161015655995364 $248 $373 forward 7 unknown #
coedge $-1 $374 $375 $151 $251 forward $358 $-1 #
edge $-1 $256 -52.161015655995364 $376 52.161015655995364 $250 $377 forward 7 unknown #
coedge $-1 $245 $152 $375 $378 forward $254 $-1 #
coedge $-1 $152 $245 $242 $362 forward $254 $-1 #
loop $-1 $-1 $152 $357 #
vertex $-1 $153 $379 #
vertex $-1 $378 $380 #
straight-curve $-1 52.161015655995364 -12.558560751442215 6.4986058888063463 0 -1 0 I I #
face $-1 $381 $382 $35 $-1 $383 reversed single #
loop $-1 $-1 $160 $154 #
plane-surface $-1 52.161015655995364 0 0 -1 0 0 0 0 1 forward_v I I I I #
coedge $-1 $384 $269 $385 $386 reversed $155 $-1 #
coedge $-1 $387 $157 $384 $388 forward $97 $-1 #
coedge $-1 $157 $387 $389 $390 reversed $97 $-1 #
coedge $-1 $272 $271 $157 $265 forward $259 $-1 #
edge $-1 $391 7.221812253663904 $392 17.895309249220531 $264 $393 forward 7 unknown #
coedge $-1 $159 $158 $394 $395 reversed $62 $-1 #
coedge $-1 $396 $397 $158 $268 forward $398 $-1 #
edge $-1 $399 -52.161015655995364 $273 52.161015655995364 $267 $400 forward 7 unknown #
coedge $-1 $261 $401 $159 $270 reversed $155 $-1 #
edge $-1 $402 -52.161015655995364 $274 52.161015655995364 $269 $403 forward 7 unknown #
coedge $-1 $264 $160 $401 $404 forward $259 $-1 #
coedge $-1 $160 $264 $396 $405 reversed $259 $-1 #
vertex $-1 $405 $406 #
vertex $-1 $161 $407 #
straight-curve $-1 52.161015655995364 12.558560751442217 6.4986058888063463 0 -1 0 I I #
face $-1 $-1 $408 $36 $-1 $409 forward single #
loop $-1 $-1 $287 $162 #
plane-surface $-1 52.161015655995364 0 0 -1 0 0 0 0 1 forward_v I I I I #
coedge $-1 $410 $411 $166 $285 forward $163 $-1 #
coedge $-1 $281 $165 $167 $286 reversed $101 $-1 #
coedge $-1 $165 $280 $412 $413 reversed $101 $-1 #
coedge $-1 $414 $168 $165 $283 forward $277 $-1 #
edge $-1 $289 -71.471044721902743 $415 -65.155979842549684 $282 $416 forward 7 unknown #
coedge $-1 $167 $166 $417 $418 reversed $65 $-1 #
edge $-1 $419 62.694978473863905 $288 72.952344011992778 $279 $420 forward 7 unknown #
edge $-1 $421 94.064665773861833 $289 104.32203131199073 $280 $422 forward 7 unknown #
coedge $-1 $168 $414 $410 $423 forward $277 $-1 #
vertex $-1 $285 $424 #
vertex $-1 $169 $425 #
straight-curve $-1 52.161015655995364 -7.7884907439439957 3.4918489508112316 0 1 0 I I #
coedge $-1 $291 $291 $-1 $426 reversed $172 $-1 #
edge $-1 $427 0 $427 6.2831853071796004 $173 $428 forward 7 unknown #
vertex $-1 $176 $429 #
ellipse-curve $-1 48.119558513071659 -18.099016398218865 6.6493813904877639 0.61566148304635926 0 0.78801074757464917 0.39400537378732459 0 -0.30783074152317963 1 I I #
coedge $-1 $295 $295 $-1 $430 reversed $179 $-1 #
edge $-1 $431 0 $431 6.2831853071796004 $180 $432 forward 7 unknown #
vertex $-1 $183 $433 #
ellipse-curve $-1 48.119558513071659 -15.57698148788799 6.6493813904877639 0.61566148304635926 0 0.78801074757464917 0.39400537378732459 0 -0.30783074152317963 1 I I #
coedge $-1 $299 $299 $-1 $434 reversed $186 $-1 #
edge $-1 $435 0 $435 6.2831853071796004 $187 $436 forward 7 unknown #
vertex $-1 $190 $437 #
ellipse-curve $-1 48.119558513071659 -13.054946577557114 6.6493813904877639 0.61566148304635926 0 0.78801074757464917 0.39400537378732459 0 -0.30783074152317963 1 I I #
face $-1 $-1 $438 $40 $-1 $439 forward single #
loop $-1 $-1 $312 $191 #
plane-surface $-1 0 19.780373005106121 4.2702243792849313 0 1 0 0 0 1 forward_v I I I I #
coedge $-1 $197 $440 $441 $442 forward $192 $-1 #
coedge $-1 $308 $194 $196 $314 reversed $120 $-1 #
coedge $-1 $194 $307 $443 $444 reversed $120 $-1 #
coedge $-1 $440 $197 $194 $310 forward $192 $-1 #
edge $-1 $316 -39.776416645914452 $445 -34.81496517387211 $309 $446 forward 7 unknown #
coedge $-1 $196 $195 $447 $448 reversed $77 $-1 #
coedge $-1 $441 $449 $195 $313 forward $304 $-1 #
edge $-1 $450 12.489590407322128 $315 20.930515710068427 $312 $451 forward 7 unknown #
edge $-1 $452 -8.4409253027462903 $316 8.8807605448725156e-015 $307 $453 forward 7 unknown #
vertex $-1 $313 $454 #
vertex $-1 $198 $455 #
straight-curve $-1 -52.161015655995364 7.4993956093849707 4.8454623581219396 0 -1 0 I I #
coedge $-1 $318 $318 $-1 $456 reversed $201 $-1 #
edge $-1 $457 0 $457 6.2831853071796004 $202 $458 forward 7 unknown #
vertex $-1 $205 $459 #
ellipse-curve $-1 -48.746589669935936 12.12984214696824 7.3261880941431157 -0.5877852598018023 0 0.80901698891910034 0.40450849445955017 0 0.29389262990090115 1 I I #
coedge $-1 $322 $322 $-1 $460 reversed $208 $-1 #
edge $-1 $461 0 $461 6.2831853071796004 $209 $462 forward 7 unknown #
vertex $-1 $212 $463 #
ellipse-curve $-1 -48.746589669935936 14.998791218769941 7.3261880941431157 -0.5877852598018023 0 0.80901698891910034 0.40450849445955017 0 0.29389262990090115 1 I I #
coedge $-1 $326 $326 $-1 $464 reversed $215 $-1 #
edge $-1 $465 0 $465 6.2831853071796004 $216 $466 forward 7 unknown #
vertex $-1 $219 $467 #
ellipse-curve $-1 -48.746589669935936 17.867740290571643 7.3261880941431157 -0.5877852598018023 0 0.80901698891910034 0.40450849445955017 0 0.29389262990090115 1 I I #
face $-1 $-1 $235 $33 $-1 $468 reversed single #
loop $-1 $-1 $346 $220 #
plane-surface $-1 0 30.453870000662743 0 0 -1 0 0 0 -1 forward_v I I I I #
coedge $-1 $469 $344 $347 $470 forward $221 $-1 #
coedge $-1 $350 $223 $224 $338 reversed $139 $-1 #
coedge $-1 $344 $469 $223 $336 reversed $221 $-1 #
edge $-1 $351 -9.8069138301642855 $471 9.8069138301642855 $335 $472 forward 7 unknown #
coedge $-1 $225 $224 $469 $473 forward $89 $-1 #
edge $-1 $342 -52.161015655995364 $471 52.161015655995364 $334 $474 forward 7 unknown #
coedge $-1 $347 $346 $225 $340 reversed $331 $-1 #
edge $-1 $475 -52.161015655995364 $341 52.161015655995364 $339 $476 forward 7 unknown #
vertex $-1 $227 $477 #
vertex $-1 $353 $478 #
straight-curve $-1 52.161015655995364 0 -9.8069138301642855 0 -1 0 I I #
coedge $-1 $333 $335 $228 $345 reversed $221 $-1 #
edge $-1 $348 -30.453870000662743 $351 30.453870000662743 $344 $479 forward 7 unknown #
coedge $-1 $339 $229 $234 $354 forward $331 $-1 #
coedge $-1 $229 $339 $333 $470 reversed $331 $-1 #
vertex $-1 $230 $480 #
straight-curve $-1 0 30.453870000662743 9.8069138301642855 -1 0 0 I I #
coedge $-1 $231 $334 $233 $353 reversed $139 $-1 #
vertex $-1 $345 $481 #
straight-curve $-1 0 -30.453870000662743 9.8069138301642855 1 0 0 I I #
edge $-1 $236 -9.8069138301642855 $342 9.8069138301642855 $233 $482 forward 7 unknown #
edge $-1 $237 -9.8069138301642855 $341 9.8069138301642855 $234 $483 forward 7 unknown #
point $-1 52.161015655995364 -30.453870000662743 9.8069138301642855 #
point $-1 52.161015655995364 30.453870000662743 9.8069138301642855 #
face $-1 $-1 $254 $34 $-1 $484 reversed single #
loop $-1 $-1 $250 $239 #
plane-surface $-1 0 -30.453870000662743 0 0 1 0 0 0 1 forward_v I I I I #
coedge $-1 $485 $486 $247 $370 forward $240 $-1 #
coedge $-1 $371 $242 $244 $366 reversed $147 $-1 #
edge $-1 $368 -0.093269319878949375 $255 4.3634936991638806 $253 $487 forward 7 unknown #
coedge $-1 $244 $243 $488 $489 reversed $93 $-1 #
coedge $-1 $375 $374 $243 $365 forward $358 $-1 #
edge $-1 $490 -52.161015655995364 $367 52.161015655995364 $364 $491 forward 7 unknown #
edge $-1 $492 -52.161015655995364 $368 52.161015655995364 $361 $493 forward 7 unknown #
vertex $-1 $365 $494 #
vertex $-1 $246 $495 #
straight-curve $-1 52.161015655995364 -12.558560751442215 2.0418428697635163 0 1 0 I I #
edge $-1 $376 -17.895309249220528 $372 -7.2218122536639022 $360 $496 forward 7 unknown #
coedge $-1 $248 $361 $485 $497 reversed $147 $-1 #
vertex $-1 $370 $498 #
straight-curve $-1 0 -19.780373005106117 6.4986058888063463 -1 0 0 I I #
coedge $-1 $364 $250 $486 $499 forward $358 $-1 #
coedge $-1 $250 $364 $252 $378 reversed $358 $-1 #
vertex $-1 $499 $500 #
straight-curve $-1 0 -30.453870000662743 6.4986058888063463 -1 0 0 I I #
edge $-1 $256 -6.4986058888063463 $367 -2.0418428697635163 $252 $501 forward 7 unknown #
point $-1 52.161015655995364 -19.780373005106117 6.4986058888063463 #
point $-1 52.161015655995364 -30.453870000662743 6.4986058888063463 #
face $-1 $-1 $398 $35 $-1 $502 reversed single #
loop $-1 $-1 $394 $258 #
plane-surface $-1 -52.161015655995364 0 0 1 0 0 0 0 -1 forward_v I I I I #
coedge $-1 $401 $261 $262 $388 reversed $155 $-1 #
coedge $-1 $394 $503 $261 $386 forward $382 $-1 #
edge $-1 $504 -0.093269319878949375 $402 4.3634936991638806 $385 $505 forward 7 unknown #
coedge $-1 $263 $262 $503 $506 reversed $97 $-1 #
edge $-1 $391 -52.161015655995364 $504 52.161015655995364 $384 $507 forward 7 unknown #
coedge $-1 $397 $396 $263 $390 forward $398 $-1 #
edge $-1 $392 -52.161015655995364 $508 52.161015655995364 $389 $509 forward 7 unknown #
vertex $-1 $265 $510 #
vertex $-1 $390 $511 #
straight-curve $-1 52.161015655995364 12.558560751442217 2.0418428697635163 0 1 0 I I #
coedge $-1 $512 $385 $266 $395 forward $382 $-1 #
edge $-1 $402 7.221812253663904 $399 17.895309249220531 $394 $513 forward 7 unknown #
coedge $-1 $389 $267 $272 $405 forward $398 $-1 #
coedge $-1 $267 $389 $512 $514 reversed $398 $-1 #
loop $-1 $-1 $267 $381 #
vertex $-1 $514 $515 #
straight-curve $-1 0 30.453870000662743 6.4986058888063463 1 0 0 I I #
coedge $-1 $269 $384 $271 $404 reversed $155 $-1 #
vertex $-1 $395 $516 #
straight-curve $-1 0 19.780373005106121 6.4986058888063463 1 0 0 I I #
edge $-1 $274 -4.3634936991638806 $391 0.093269319878949375 $271 $517 forward 7 unknown #
edge $-1 $273 -6.4986058888063463 $392 -2.0418428697635163 $272 $518 forward 7 unknown #
point $-1 52.161015655995364 30.453870000662747 6.4986058888063463 #
point $-1 52.161015655995364 19.780373005106121 6.4986058888063463 #
loop $-1 $-1 $519 $276 #
plane-surface $-1 0 0 9.8069138301642855 0 0 1 1 0 0 forward_v I I I I #
coedge $-1 $411 $279 $287 $423 reversed $163 $-1 #
coedge $-1 $279 $410 $519 $520 reversed $163 $-1 #
coedge $-1 $417 $521 $281 $413 forward $408 $-1 #
edge $-1 $415 -35.070420513357092 $421 -26.987506227509716 $412 $522 forward 7 unknown #
coedge $-1 $287 $282 $521 $523 reversed $277 $-1 #
vertex $-1 $413 $524 #
straight-curve $-1 52.161015655995364 -11.373589970669865 74.962893672713975 0 0 1 I I #
coedge $-1 $519 $412 $284 $418 forward $408 $-1 #
edge $-1 $421 3.5850992267258697 $419 11.991882261162122 $417 $525 forward 7 unknown #
vertex $-1 $520 $526 #
straight-curve $-1 -5.3262154862180555 -19.780373005106117 48.405797256942904 0.78801074757464917 0 -0.61566148304635926 I I #
vertex $-1 $418 $527 #
straight-curve $-1 -30.045866226672409 -11.373589970669865 67.718905462760176 0.78801074757464917 0 -0.61566148304635926 I I #
edge $-1 $528 65.155979842549684 $288 71.471044721902743 $287 $529 forward 7 unknown #
point $-1 52.161015655995364 -19.780373005106117 3.4918489508112343 #
point $-1 52.161015655995364 -11.373589970669865 3.4918489508112316 #
edge $-1 $530 1 $530 0 $291 $-1 forward 7 unknown #
vertex $-1 $292 $531 #
ellipse-curve $-1 47.5038970300253 -18.099016398218865 5.8613706429131147 0.61566148304635926 0 0.78801074757464917 0.39400537378732459 0 -0.30783074152317963 1 I I #
point $-1 48.513563886858982 -18.099016398218865 6.3415506489645841 #
edge $-1 $532 1 $532 0 $295 $-1 forward 7 unknown #
vertex $-1 $296 $533 #
ellipse-curve $-1 47.5038970300253 -15.57698148788799 5.8613706429131147 0.61566148304635926 0 0.78801074757464917 0.39400537378732459 0 -0.30783074152317963 1 I I #
point $-1 48.513563886858982 -15.57698148788799 6.3415506489645841 #
edge $-1 $534 1 $534 0 $299 $-1 forward 7 unknown #
vertex $-1 $300 $535 #
ellipse-curve $-1 47.5038970300253 -13.054946577557114 5.8613706429131147 0.61566148304635926 0 0.78801074757464917 0.39400537378732459 0 -0.30783074152317963 1 I I #
point $-1 48.513563886858982 -13.054946577557114 6.3415506489645841 #
loop $-1 $-1 $536 $303 #
plane-surface $-1 0 0 9.8069138301642855 0 0 1 1 0 0 forward_v I I I I #
coedge $-1 $306 $309 $537 $538 reversed $192 $-1 #
coedge $-1 $449 $312 $306 $442 reversed $304 $-1 #
edge $-1 $539 34.81496517387211 $315 39.776416645914452 $306 $540 forward 7 unknown #
coedge $-1 $447 $537 $308 $444 forward $438 $-1 #
edge $-1 $445 4.5789683108874257 $452 11.407820283006281 $443 $541 forward 7 unknown #
vertex $-1 $310 $542 #
straight-curve $-1 -52.161015655995364 10.217209432433769 44.621879004036394 0 0 1 I I #
coedge $-1 $536 $443 $311 $448 forward $438 $-1 #
edge $-1 $452 2.7178138230487985 $450 12.280977395721143 $447 $543 forward 7 unknown #
coedge $-1 $312 $441 $536 $544 reversed $304 $-1 #
vertex $-1 $544 $545 #
straight-curve $-1 -35.22787285971188 19.780373005106121 17.148110972550221 -0.80901698891910034 0 -0.5877852598018023 I I #
vertex $-1 $448 $546 #
straight-curve $-1 -52.161015655995357 10.217209432433769 4.8454623581219494 -0.80901698891910034 0 -0.5877852598018023 I I #
point $-1 -52.161015655995364 19.780373005106121 4.845462358121944 #
point $-1 -52.161015655995364 10.217209432433769 4.845462358121944 #
edge $-1 $547 1 $547 0 $318 $-1 forward 7 unknown #
vertex $-1 $319 $548 #
ellipse-curve $-1 -48.158804410134131 12.12984214696824 6.5171711052240182 -0.5877852598018023 0 0.80901698891910034 0.40450849445955017 0 0.29389262990090115 1 I I #
point $-1 -48.342081175476388 12.12984214696824 7.6200807240440191 #
edge $-1 $549 1 $549 0 $322 $-1 forward 7 unknown #
vertex $-1 $323 $550 #
ellipse-curve $-1 -48.158804410134131 14.998791218769941 6.5171711052240182 -0.5877852598018023 0 0.80901698891910034 0.40450849445955017 0 0.29389262990090115 1 I I #
point $-1 -48.342081175476388 14.998791218769941 7.6200807240440191 #
edge $-1 $551 1 $551 0 $326 $-1 forward 7 unknown #
vertex $-1 $327 $552 #
ellipse-curve $-1 -48.158804410134131 17.867740290571643 6.5171711052240182 -0.5877852598018023 0 0.80901698891910034 0.40450849445955017 0 0.29389262990090115 1 I I #
point $-1 -48.342081175476388 17.867740290571643 7.6200807240440191 #
plane-surface $-1 52.161015655995364 0 0 -1 0 0 0 0 1 forward_v I I I I #
coedge $-1 $335 $333 $337 $473 reversed $221 $-1 #
edge $-1 $348 -9.8069138301642855 $475 9.8069138301642855 $347 $553 forward 7 unknown #
vertex $-1 $473 $554 #
straight-curve $-1 -52.161015655995364 -30.453870000662743 0 0 0 -1 I I #
edge $-1 $471 -30.453870000662743 $475 30.453870000662743 $469 $555 forward 7 unknown #
straight-curve $-1 0 -30.453870000662743 -9.8069138301642855 -1 0 0 I I #
vertex $-1 $340 $556 #
straight-curve $-1 0 30.453870000662743 -9.8069138301642855 1 0 0 I I #
point $-1 52.161015655995364 30.453870000662743 -9.8069138301642855 #
point $-1 52.161015655995364 -30.453870000662743 -9.8069138301642855 #
straight-curve $-1 -52.161015655995364 0 9.8069138301642855 0 -1 0 I I #
point $-1 -52.161015655995364 30.453870000662743 9.8069138301642855 #
point $-1 -52.161015655995364 -30.453870000662743 9.8069138301642855 #
straight-curve $-1 52.161015655995364 -30.453870000662743 0 0 0 -1 I I #
straight-curve $-1 52.161015655995364 30.453870000662743 0 0 0 -1 I I #
plane-surface $-1 52.161015655995364 0 0 -1 0 0 0 0 1 forward_v I I I I #
coedge $-1 $488 $360 $371 $497 forward $240 $-1 #
coedge $-1 $360 $488 $374 $499 reversed $240 $-1 #
straight-curve $-1 52.161015655995364 -19.780373005106117 2.1351121896424656 0 0 1 I I #
coedge $-1 $486 $485 $363 $489 forward $240 $-1 #
edge $-1 $492 7.2218122536639022 $490 17.895309249220528 $488 $557 forward 7 unknown #
vertex $-1 $365 $558 #
straight-curve $-1 0 -30.453870000662743 2.0418428697635163 1 0 0 I I #
vertex $-1 $489 $559 #
straight-curve $-1 0 -19.780373005106117 2.0418428697635163 1 0 0 I I #
point $-1 52.161015655995364 -30.453870000662743 2.0418428697635163 #
point $-1 52.161015655995364 -19.780373005106117 2.0418428697635163 #
straight-curve $-1 -52.161015655995364 -12.558560751442215 6.4986058888063463 0 1 0 I I #
edge $-1 $372 -4.3634936991638806 $492 0.093269319878949375 $485 $560 forward 7 unknown #
point $-1 -52.161015655995364 -19.780373005106117 6.4986058888063463 #
edge $-1 $376 -6.4986058888063463 $490 -2.0418428697635163 $486 $561 forward 7 unknown #
point $-1 -52.161015655995364 -30.453870000662743 6.4986058888063463 #
straight-curve $-1 52.161015655995364 -30.453870000662743 0 0 0 -1 I I #
plane-surface $-1 0 30.453870000662743 0 0 -1 0 0 0 -1 forward_v I I I I #
coedge $-1 $385 $512 $387 $506 forward $382 $-1 #
vertex $-1 $506 $562 #
straight-curve $-1 -52.161015655995364 19.780373005106121 2.1351121896424656 0 0 1 I I #
edge $-1 $508 -17.895309249220531 $504 -7.221812253663904 $503 $563 forward 7 unknown #
straight-curve $-1 0 19.780373005106121 2.0418428697635163 -1 0 0 I I #
vertex $-1 $390 $564 #
straight-curve $-1 0 30.453870000662743 2.0418428697635163 -1 0 0 I I #
point $-1 52.161015655995364 19.780373005106121 2.0418428697635163 #
point $-1 52.161015655995364 30.453870000662747 2.0418428697635163 #
coedge $-1 $503 $394 $397 $514 forward $382 $-1 #
straight-curve $-1 -52.161015655995364 12.558560751442217 6.4986058888063463 0 1 0 I I #
edge $-1 $399 -6.4986058888063463 $508 -2.0418428697635163 $397 $565 forward 7 unknown #
point $-1 -52.161015655995364 30.453870000662747 6.4986058888063463 #
point $-1 -52.161015655995364 19.780373005106121 6.4986058888063463 #
straight-curve $-1 52.161015655995364 19.780373005106121 2.1351121896424656 0 0 -1 I I #
straight-curve $-1 52.161015655995364 30.453870000662743 0 0 0 -1 I I #
coedge $-1 $521 $417 $411 $520 forward $408 $-1 #
edge $-1 $419 26.987506227509716 $528 35.070420513357092 $519 $566 forward 7 unknown #
coedge $-1 $412 $519 $414 $523 forward $408 $-1 #
straight-curve $-1 17.090595142638268 -11.373589970669865 9.8069138301642909 -1 0 0 I I #
edge $-1 $528 -19.780373005106117 $415 -11.373589970669865 $414 $567 forward 7 unknown #
point $-1 52.161015655995364 -11.373589970669865 9.8069138301642855 #
straight-curve $-1 44.078101370147976 -7.7884907439439957 9.8069138301642838 0 -1 0 I I #
point $-1 44.078101370147984 -19.780373005106117 9.8069138301642838 #
point $-1 44.078101370147984 -11.373589970669865 9.8069138301642838 #
vertex $-1 $523 $568 #
straight-curve $-1 52.161015655995364 -19.780373005106117 74.962893672713975 0 0 -1 I I #
vertex $-1 $426 $569 #
point $-1 47.897902403812623 -18.099016398218865 5.5535399013899349 #
vertex $-1 $430 $570 #
point $-1 47.897902403812623 -15.57698148788799 5.5535399013899349 #
vertex $-1 $434 $571 #
point $-1 47.897902403812623 -13.054946577557114 5.5535399013899349 #
coedge $-1 $537 $447 $449 $544 forward $438 $-1 #
coedge $-1 $443 $536 $440 $538 forward $438 $-1 #
edge $-1 $539 -19.780373005106114 $445 -10.217209432433769 $440 $572 forward 7 unknown #
vertex $-1 $538 $573 #
straight-curve $-1 -52.161015655995364 19.780373005106114 44.621879004036394 0 0 -1 I I #
straight-curve $-1 -56.739983966882789 10.217209432433769 9.8069138301642838 1 0 0 I I #
point $-1 -52.161015655995364 10.217209432433769 9.8069138301642855 #
straight-curve $-1 -45.332163683876502 7.4993956093849707 9.8069138301642855 0 1 0 I I #
edge $-1 $450 -11.407820283006281 $539 -4.5789683108874257 $536 $574 forward 7 unknown #
point $-1 -45.332163683876509 19.780373005106114 9.8069138301642855 #
point $-1 -45.332163683876509 10.217209432433769 9.8069138301642855 #
vertex $-1 $456 $575 #
point $-1 -47.754295915674582 12.12984214696824 6.811063735124919 #
vertex $-1 $460 $576 #
point $-1 -47.754295915674582 14.998791218769941 6.811063735124919 #
vertex $-1 $464 $577 #
point $-1 -47.754295915674582 17.867740290571643 6.811063735124919 #
straight-curve $-1 -52.161015655995364 30.453870000662743 0 0 0 -1 I I #
point $-1 -52.161015655995364 -30.453870000662743 -9.8069138301642855 #
straight-curve $-1 -52.161015655995364 0 -9.8069138301642855 0 1 0 I I #
point $-1 -52.161015655995364 30.453870000662743 -9.8069138301642855 #
straight-curve $-1 -52.161015655995364 -12.558560751442215 2.0418428697635163 0 -1 0 I I #
point $-1 -52.161015655995364 -30.453870000662743 2.0418428697635163 #
point $-1 -52.161015655995364 -19.780373005106117 2.0418428697635163 #
straight-curve $-1 -52.161015655995364 -19.780373005106117 2.1351121896424656 0 0 -1 I I #
straight-curve $-1 -52.161015655995364 -30.453870000662743 0 0 0 -1 I I #
point $-1 -52.161015655995364 19.780373005106121 2.0418428697635163 #
straight-curve $-1 -52.161015655995364 12.558560751442217 2.0418428697635163 0 -1 0 I I #
point $-1 -52.161015655995364 30.453870000662747 2.0418428697635163 #
straight-curve $-1 -52.161015655995364 30.453870000662743 0 0 0 -1 I I #
straight-curve $-1 17.090595142638268 -19.780373005106117 9.8069138301642909 1 0 0 I I #
straight-curve $-1 52.161015655995364 0 9.8069138301642855 0 1 0 I I #
point $-1 52.161015655995364 -19.780373005106117 9.8069138301642855 #
point $-1 47.196066288502124 -18.099016398218865 5.4673652691257901 #
point $-1 47.196066288502124 -15.57698148788799 5.4673652691257901 #
point $-1 47.196066288502124 -13.054946577557114 5.4673652691257901 #
straight-curve $-1 -52.161015655995364 0 9.8069138301642855 0 -1 0 I I #
point $-1 -52.161015655995364 19.780373005106114 9.8069138301642855 #
straight-curve $-1 -56.739983966882789 19.780373005106114 9.8069138301642838 -1 0 0 I I #
point $-1 -47.864911780233236 12.12984214696824 6.1126626107644677 #
point $-1 -47.864911780233236 14.998791218769941 6.1126626107644677 #
point $-1 -47.864911780233236 17.867740290571643 6.1126626107644677 #
End-of-ACIS-data 