500 0 17 0           
7 Unknown 11 ACIS 5.0 NT 24 Thu Mar 25 16:19:05 1999 
-1 9.9999999999999995e-007 1e-010 
body $-1 $17 $-1 $18 #
body $-1 $19 $-1 $20 #
body $-1 $21 $-1 $22 #
body $-1 $23 $-1 $24 #
body $-1 $25 $-1 $26 #
body $-1 $27 $-1 $28 #
body $-1 $29 $-1 $30 #
body $-1 $31 $-1 $32 #
body $-1 $33 $-1 $34 #
body $-1 $35 $-1 $36 #
body $-1 $37 $-1 $38 #
body $-1 $39 $-1 $40 #
body $-1 $41 $-1 $42 #
body $-1 $43 $-1 $44 #
body $-1 $45 $-1 $46 #
body $-1 $47 $-1 $48 #
body $-1 $49 $-1 $50 #
lump $-1 $-1 $51 $0 #
transform $-1 1 0 0 0 1 0 0 0 1 47.252418591875973 31.616161090430861 15.719504734549165 1 rotate no_reflect no_shear #
lump $-1 $-1 $52 $1 #
transform $-1 1 0 0 0 1 0 0 0 1 47.252418591875973 31.616161090430861 15.719504734549165 1 rotate no_reflect no_shear #
lump $-1 $-1 $53 $2 #
transform $-1 1 0 0 0 1 0 0 0 1 47.252418591875973 31.616161090430861 15.719504734549165 1 rotate no_reflect no_shear #
lump $-1 $-1 $54 $3 #
transform $-1 1 0 0 0 1 0 0 0 1 47.252418591875973 31.616161090430861 15.719504734549165 1 rotate no_reflect no_shear #
lump $-1 $-1 $55 $4 #
transform $-1 1 0 0 0 1 0 0 0 1 47.252418591875973 31.616161090430861 15.719504734549165 1 rotate no_reflect no_shear #
lump $-1 $-1 $56 $5 #
transform $-1 1 0 0 0 1 0 0 0 1 47.252418591875973 31.616161090430861 15.719504734549165 1 rotate no_reflect no_shear #
lump $-1 $-1 $57 $6 #
transform $-1 1 0 0 0 1 0 0 0 1 47.252418591875973 31.616161090430861 15.719504734549165 1 rotate no_reflect no_shear #
lump $-1 $-1 $58 $7 #
transform $-1 1 0 0 0 1 0 0 0 1 47.252418591875973 31.616161090430861 15.719504734549165 1 rotate no_reflect no_shear #
lump $-1 $-1 $59 $8 #
transform $-1 1 0 0 0 1 0 0 0 1 47.252418591875973 31.616161090430861 15.719504734549165 1 rotate no_reflect no_shear #
lump $-1 $-1 $60 $9 #
transform $-1 1 0 0 0 1 0 0 0 1 47.252418591875973 31.616161090430861 15.719504734549165 1 rotate no_reflect no_shear #
lump $-1 $-1 $61 $10 #
transform $-1 1 0 0 0 1 0 0 0 1 47.252418591875973 31.616161090430861 15.719504734549165 1 rotate no_reflect no_shear #
lump $-1 $-1 $62 $11 #
transform $-1 1 0 0 0 1 0 0 0 1 47.252418591875973 31.616161090430861 15.719504734549165 1 rotate no_reflect no_shear #
lump $-1 $-1 $63 $12 #
transform $-1 1 0 0 0 1 0 0 0 1 47.252418591875973 31.616161090430861 15.719504734549165 1 rotate no_reflect no_shear #
lump $-1 $-1 $64 $13 #
transform $-1 1 0 0 0 1 0 0 0 1 47.252418591875973 31.616161090430861 15.719504734549165 1 rotate no_reflect no_shear #
lump $-1 $-1 $65 $14 #
transform $-1 1 0 0 0 1 0 0 0 1 47.252418591875973 31.616161090430861 15.719504734549165 1 rotate no_reflect no_shear #
lump $-1 $-1 $66 $15 #
transform $-1 1 0 0 0 1 0 0 0 1 47.252418591875973 31.616161090430861 15.719504734549165 1 rotate no_reflect no_shear #
lump $-1 $-1 $67 $16 #
transform $-1 1 0 0 0 1 0 0 0 1 47.252418591875973 31.616161090430861 15.719504734549165 1 rotate no_reflect no_shear #
shell $-1 $-1 $-1 $68 $-1 $17 #
shell $-1 $-1 $-1 $69 $-1 $19 #
shell $-1 $-1 $-1 $70 $-1 $21 #
shell $-1 $-1 $-1 $71 $-1 $23 #
shell $-1 $-1 $-1 $72 $-1 $25 #
shell $-1 $-1 $-1 $73 $-1 $27 #
shell $-1 $-1 $-1 $74 $-1 $29 #
shell $-1 $-1 $-1 $75 $-1 $31 #
shell $-1 $-1 $-1 $76 $-1 $33 #
shell $-1 $-1 $-1 $77 $-1 $35 #
shell $-1 $-1 $-1 $78 $-1 $37 #
shell $-1 $-1 $-1 $79 $-1 $39 #
shell $-1 $-1 $-1 $80 $-1 $41 #
shell $-1 $-1 $-1 $81 $-1 $43 #
shell $-1 $-1 $-1 $82 $-1 $45 #
shell $-1 $-1 $-1 $83 $-1 $47 #
shell $-1 $-1 $-1 $84 $-1 $49 #
face $-1 $85 $86 $51 $-1 $87 forward single #
face $-1 $88 $89 $52 $-1 $90 reversed single #
face $-1 $91 $92 $53 $-1 $93 reversed single #
face $-1 $94 $95 $54 $-1 $96 reversed single #
face $-1 $97 $98 $55 $-1 $99 forward single #
face $-1 $100 $101 $56 $-1 $102 forward single #
face $-1 $103 $104 $57 $-1 $105 reversed single #
face $-1 $106 $107 $58 $-1 $108 forward single #
face $-1 $109 $110 $59 $-1 $111 forward single #
face $-1 $112 $113 $60 $-1 $114 reversed single #
face $-1 $115 $116 $61 $-1 $117 forward single #
face $-1 $118 $119 $62 $-1 $120 forward single #
face $-1 $121 $122 $63 $-1 $123 forward single #
face $-1 $124 $125 $64 $-1 $126 reversed single #
face $-1 $127 $128 $65 $-1 $129 forward single #
face $-1 $130 $131 $66 $-1 $132 forward single #
face $-1 $133 $134 $67 $-1 $135 forward single #
face $-1 $136 $137 $51 $-1 $138 reversed single #
loop $-1 $-1 $139 $68 #
plane-surface $-1 0 0 15.719504734549165 0 0 1 1 0 0 forward_v I I I I #
face $-1 $140 $141 $52 $-1 $142 reversed single #
loop $-1 $-1 $143 $69 #
plane-surface $-1 -23.236745783487102 -22.373857964939255 0 1 0 0 0 0 -1 forward_v I I I I #
face $-1 $144 $145 $53 $-1 $146 reversed single #
loop $-1 $-1 $147 $70 #
plane-surface $-1 -19.525077453132372 13.131554839447645 0 0 1 0 0 0 1 forward_v I I I I #
face $-1 $148 $149 $54 $-1 $150 reversed single #
loop $-1 $-1 $151 $71 #
plane-surface $-1 -123.70843869757462 -8.2675708104146146 62.713580955496056 0 1 0 -0.80901700255871778 0 0.5877852410284794 forward_v I I I I #
face $-1 $152 $153 $55 $-1 $154 forward single #
loop $-1 $155 $156 $72 #
cone-surface $-1 -43.559128708959506 -6.5249036017188367 11.016735542648485 0.80901700255871778 0 -0.5877852410284794 0.2938926205142397 0 0.40450850127935889 1 I I 0 1 0.5 forward I I I I #
face $-1 $157 $158 $56 $-1 $159 forward single #
loop $-1 $160 $161 $73 #
cone-surface $-1 -43.559128708959506 -3.9109027886751662 11.016735542648485 0.80901700255871778 0 -0.5877852410284794 0.2938926205142397 0 0.40450850127935889 1 I I 0 1 0.5 forward I I I I #
face $-1 $162 $163 $57 $-1 $164 reversed single #
loop $-1 $-1 $165 $74 #
plane-surface $-1 -123.70843869757462 4.8639840290330305 62.713580955496056 0 1 0 -0.80901700255871778 0 0.5877852410284794 forward_v I I I I #
face $-1 $166 $167 $58 $-1 $168 forward single #
loop $-1 $169 $170 $75 #
cone-surface $-1 -43.559128708959506 6.6066512377288085 11.016735542648485 0.80901700255871778 0 -0.5877852410284794 0.2938926205142397 0 0.40450850127935889 1 I I 0 1 0.5 forward I I I I #
face $-1 $171 $172 $59 $-1 $173 forward single #
loop $-1 $174 $175 $76 #
cone-surface $-1 -43.559128708959506 9.2206520507724825 11.016735542648485 0.80901700255871778 0 -0.5877852410284794 0.2938926205142397 0 0.40450850127935889 1 I I 0 1 0.5 forward I I I I #
face $-1 $176 $177 $60 $-1 $178 reversed single #
loop $-1 $-1 $179 $77 #
plane-surface $-1 65.852908468921811 -3.9469023900703135 138.01251214240034 0 -1 0 -0.79863551827123203 0 -0.60181501223851219 forward_v I I I I #
face $-1 $180 $181 $61 $-1 $182 forward single #
loop $-1 $183 $184 $78 #
cone-surface $-1 43.020255008202867 -9.0355322722109861 10.357384919114617 -0.79863551827123203 0 -0.60181501223851219 0.3009075061192561 0 -0.39931775913561601 1 I I 0 1 0.5 forward I I I I #
face $-1 $185 $186 $62 $-1 $187 forward single #
loop $-1 $188 $189 $79 #
cone-surface $-1 43.020255008202867 -7.1272960664082348 10.357384919114617 -0.79863551827123203 0 -0.60181501223851219 0.3009075061192561 0 -0.39931775913561601 1 I I 0 1 0.5 forward I I I I #
face $-1 $190 $191 $63 $-1 $192 forward single #
loop $-1 $193 $194 $80 #
cone-surface $-1 43.020255008202867 -5.2190598606054834 10.357384919114617 -0.79863551827123203 0 -0.60181501223851219 0.3009075061192561 0 -0.39931775913561601 1 I I 0 1 0.5 forward I I I I #
face $-1 $195 $196 $64 $-1 $197 reversed single #
loop $-1 $-1 $198 $81 #
plane-surface $-1 65.852908468921811 9.1846524493773352 138.01251214240034 0 -1 0 -0.79863551827123203 0 -0.60181501223851219 forward_v I I I I #
face $-1 $199 $200 $65 $-1 $201 forward single #
loop $-1 $202 $203 $82 #
cone-surface $-1 43.020255008202867 4.0960225672366626 10.357384919114617 -0.79863551827123203 0 -0.60181501223851219 0.3009075061192561 0 -0.39931775913561601 1 I I 0 1 0.5 forward I I I I #
face $-1 $204 $205 $66 $-1 $206 forward single #
loop $-1 $207 $208 $83 #
cone-surface $-1 43.020255008202867 6.0042587730394139 10.357384919114617 -0.79863551827123203 0 -0.60181501223851219 0.3009075061192561 0 -0.39931775913561601 1 I I 0 1 0.5 forward I I I I #
face $-1 $209 $210 $67 $-1 $211 forward single #
loop $-1 $212 $213 $84 #
cone-surface $-1 43.020255008202867 7.9124949788421652 10.357384919114617 -0.79863551827123203 0 -0.60181501223851219 0.3009075061192561 0 -0.39931775913561601 1 I I 0 1 0.5 forward I I I I #
face $-1 $214 $215 $51 $-1 $216 reversed single #
loop $-1 $-1 $217 $85 #
plane-surface $-1 0 0 -15.719504734549165 0 0 1 1 0 0 forward_v I I I I #
coedge $-1 $218 $219 $220 $221 forward $86 $-1 #
face $-1 $222 $223 $52 $-1 $224 reversed single #
loop $-1 $-1 $225 $88 #
plane-surface $-1 -19.525077453132372 -13.131554839447647 0 0 -1 0 0 0 -1 forward_v I I I I #
coedge $-1 $226 $227 $228 $229 forward $89 $-1 #
face $-1 $230 $231 $53 $-1 $232 reversed single #
loop $-1 $-1 $233 $91 #
plane-surface $-1 -23.236745783487102 22.373857964939251 0 1 0 0 0 0 -1 forward_v I I I I #
coedge $-1 $234 $235 $236 $237 forward $92 $-1 #
face $-1 $238 $239 $54 $-1 $240 reversed single #
loop $-1 $-1 $241 $94 #
plane-surface $-1 -47.252418591875966 -5.2179031951969996 7.165032453087214 -0.80901700255871778 0 0.5877852410284794 0.5877852410284794 0 0.80901700255871778 forward_v I I I I #
coedge $-1 $242 $243 $244 $245 reversed $95 $-1 #
face $-1 $-1 $246 $55 $-1 $247 forward single #
loop $-1 $248 $249 $97 #
cone-surface $-1 -42.771178442978233 -6.5249036017188367 10.444256181221665 0.80901700255871778 0 -0.5877852410284794 0.14694631025711985 0 0.20225425063967944 1 I I -0.70710678118654746 0.70710678118654746 0.25 forward I I I I #
loop $-1 $-1 $250 $72 #
coedge $-1 $156 $156 $251 $252 reversed $98 $-1 #
face $-1 $-1 $253 $56 $-1 $254 forward single #
loop $-1 $255 $256 $100 #
cone-surface $-1 -42.771178442978233 -3.9109027886751662 10.444256181221665 0.80901700255871778 0 -0.5877852410284794 0.14694631025711985 0 0.20225425063967944 1 I I -0.70710678118654746 0.70710678118654746 0.25 forward I I I I #
loop $-1 $-1 $257 $73 #
coedge $-1 $161 $161 $258 $259 reversed $101 $-1 #
face $-1 $260 $261 $57 $-1 $262 reversed single #
loop $-1 $-1 $263 $103 #
plane-surface $-1 -47.252418591875966 7.9136516442506455 7.165032453087214 -0.80901700255871778 0 0.5877852410284794 0.5877852410284794 0 0.80901700255871778 forward_v I I I I #
coedge $-1 $264 $265 $266 $267 reversed $104 $-1 #
face $-1 $-1 $268 $58 $-1 $269 forward single #
loop $-1 $270 $271 $106 #
cone-surface $-1 -42.771178442978233 6.6066512377288085 10.444256181221665 0.80901700255871778 0 -0.5877852410284794 0.14694631025711985 0 0.20225425063967944 1 I I -0.70710678118654746 0.70710678118654746 0.25 forward I I I I #
loop $-1 $-1 $272 $75 #
coedge $-1 $170 $170 $273 $274 reversed $107 $-1 #
face $-1 $-1 $275 $59 $-1 $276 forward single #
loop $-1 $277 $278 $109 #
cone-surface $-1 -42.771178442978233 9.2206520507724825 10.444256181221665 0.80901700255871778 0 -0.5877852410284794 0.14694631025711985 0 0.20225425063967944 1 I I -0.70710678118654746 0.70710678118654746 0.25 forward I I I I #
loop $-1 $-1 $279 $76 #
coedge $-1 $175 $175 $280 $281 reversed $110 $-1 #
face $-1 $282 $283 $60 $-1 $284 reversed single #
loop $-1 $-1 $285 $112 #
plane-surface $-1 -9.6220111544623279 -7.1272960664082348 81.13808239606206 0.79863551827123203 0 0.60181501223851219 0.60181501223851219 0 -0.79863551827123203 forward_v I I I I #
coedge $-1 $286 $287 $288 $289 reversed $113 $-1 #
face $-1 $-1 $290 $61 $-1 $291 forward single #
loop $-1 $292 $293 $115 #
cone-surface $-1 42.377431044527064 -9.0355322722109861 9.8729823315560488 -0.79863551827123203 0 -0.60181501223851219 0.15045375305962805 0 -0.19965887956780801 1 I I -0.70710678118654746 0.70710678118654746 0.25 forward I I I I #
loop $-1 $-1 $294 $78 #
coedge $-1 $184 $184 $295 $296 reversed $116 $-1 #
face $-1 $-1 $297 $62 $-1 $298 forward single #
loop $-1 $299 $300 $118 #
cone-surface $-1 42.377431044527064 -7.1272960664082348 9.8729823315560488 -0.79863551827123203 0 -0.60181501223851219 0.15045375305962805 0 -0.19965887956780801 1 I I -0.70710678118654746 0.70710678118654746 0.25 forward I I I I #
loop $-1 $-1 $301 $79 #
coedge $-1 $189 $189 $302 $303 reversed $119 $-1 #
face $-1 $-1 $304 $63 $-1 $305 forward single #
loop $-1 $306 $307 $121 #
cone-surface $-1 42.377431044527064 -5.2190598606054834 9.8729823315560488 -0.79863551827123203 0 -0.60181501223851219 0.15045375305962805 0 -0.19965887956780801 1 I I -0.70710678118654746 0.70710678118654746 0.25 forward I I I I #
loop $-1 $-1 $308 $80 #
coedge $-1 $194 $194 $309 $310 reversed $122 $-1 #
face $-1 $311 $312 $64 $-1 $313 reversed single #
loop $-1 $-1 $314 $124 #
plane-surface $-1 -9.6220111544623279 6.0042587730394139 81.13808239606206 0.79863551827123203 0 0.60181501223851219 0.60181501223851219 0 -0.79863551827123203 forward_v I I I I #
coedge $-1 $315 $316 $317 $318 reversed $125 $-1 #
face $-1 $-1 $319 $65 $-1 $320 forward single #
loop $-1 $321 $322 $127 #
cone-surface $-1 42.377431044527064 4.0960225672366626 9.8729823315560488 -0.79863551827123203 0 -0.60181501223851219 0.15045375305962805 0 -0.19965887956780801 1 I I -0.70710678118654746 0.70710678118654746 0.25 forward I I I I #
loop $-1 $-1 $323 $82 #
coedge $-1 $203 $203 $324 $325 reversed $128 $-1 #
face $-1 $-1 $326 $66 $-1 $327 forward single #
loop $-1 $328 $329 $130 #
cone-surface $-1 42.377431044527064 6.0042587730394139 9.8729823315560488 -0.79863551827123203 0 -0.60181501223851219 0.15045375305962805 0 -0.19965887956780801 1 I I -0.70710678118654746 0.70710678118654746 0.25 forward I I I I #
loop $-1 $-1 $330 $83 #
coedge $-1 $208 $208 $331 $332 reversed $131 $-1 #
face $-1 $-1 $333 $67 $-1 $334 forward single #
loop $-1 $335 $336 $133 #
cone-surface $-1 42.377431044527064 7.9124949788421652 9.8729823315560488 -0.79863551827123203 0 -0.60181501223851219 0.15045375305962805 0 -0.19965887956780801 1 I I -0.70710678118654746 0.70710678118654746 0.25 forward I I I I #
loop $-1 $-1 $337 $84 #
coedge $-1 $213 $213 $338 $339 reversed $134 $-1 #
face $-1 $340 $341 $51 $-1 $342 reversed single #
loop $-1 $-1 $343 $136 #
plane-surface $-1 0 -31.616161090430861 0 0 1 0 0 0 1 forward_v I I I I #
coedge $-1 $344 $345 $346 $347 forward $137 $-1 #
coedge $-1 $348 $139 $349 $350 forward $86 $-1 #
coedge $-1 $139 $348 $351 $352 forward $86 $-1 #
coedge $-1 $353 $354 $139 $221 reversed $355 $-1 #
edge $-1 $356 -31.616161090430861 $357 31.616161090430861 $220 $358 forward 7 unknown #
face $-1 $359 $360 $52 $-1 $361 forward single #
loop $-1 $-1 $362 $140 #
plane-surface $-1 -15.813409122777642 -22.373857964939255 0 -1 0 0 0 0 1 forward_v I I I I #
coedge $-1 $363 $364 $365 $366 forward $141 $-1 #
coedge $-1 $367 $143 $368 $369 reversed $89 $-1 #
coedge $-1 $143 $367 $370 $371 reversed $89 $-1 #
coedge $-1 $364 $363 $143 $229 reversed $141 $-1 #
edge $-1 $372 -15.719504734549165 $373 15.719504734549165 $228 $374 forward 7 unknown #
face $-1 $375 $376 $53 $-1 $377 reversed single #
loop $-1 $-1 $378 $144 #
plane-surface $-1 -15.813409122777642 22.373857964939251 0 -1 0 0 0 0 1 forward_v I I I I #
coedge $-1 $379 $380 $381 $382 reversed $145 $-1 #
coedge $-1 $383 $147 $384 $385 reversed $92 $-1 #
coedge $-1 $147 $383 $386 $387 reversed $92 $-1 #
coedge $-1 $380 $379 $147 $237 reversed $145 $-1 #
edge $-1 $388 -15.719504734549165 $389 15.719504734549165 $236 $390 forward 7 unknown #
face $-1 $391 $392 $54 $-1 $393 reversed single #
loop $-1 $-1 $394 $148 #
plane-surface $-1 -123.70843869757462 -2.1682355799793847 62.713580955496056 0 -1 0 0.80901700255871778 0 -0.5877852410284794 forward_v I I I I #
coedge $-1 $395 $396 $397 $398 reversed $149 $-1 #
coedge $-1 $243 $151 $399 $400 reversed $95 $-1 #
coedge $-1 $151 $242 $395 $401 reversed $95 $-1 #
coedge $-1 $397 $402 $151 $245 forward $403 $-1 #
edge $-1 $404 14.601800756911338 $405 20.8169884920611 $244 $406 forward 7 unknown #
loop $-1 $-1 $251 $152 #
plane-surface $-1 -47.252418591875966 -5.2179031951969996 7.165032453087214 -0.80901700255871778 0 0.5877852410284794 0.5877852410284794 0 0.80901700255871778 forward_v I I I I #
loop $-1 $-1 $407 $97 #
coedge $-1 $249 $249 $250 $408 reversed $153 $-1 #
coedge $-1 $250 $250 $249 $408 forward $155 $-1 #
coedge $-1 $251 $251 $156 $252 forward $246 $-1 #
edge $-1 $409 0 $409 6.2831853071796004 $251 $410 forward 7 unknown #
loop $-1 $-1 $258 $157 #
plane-surface $-1 -47.252418591875966 -5.2179031951969996 7.165032453087214 -0.80901700255871778 0 0.5877852410284794 0.5877852410284794 0 0.80901700255871778 forward_v I I I I #
loop $-1 $-1 $411 $100 #
coedge $-1 $256 $256 $257 $412 reversed $158 $-1 #
coedge $-1 $257 $257 $256 $412 forward $160 $-1 #
coedge $-1 $258 $258 $161 $259 forward $253 $-1 #
edge $-1 $413 0 $413 6.2831853071796004 $258 $414 forward 7 unknown #
face $-1 $415 $416 $57 $-1 $417 forward single #
loop $-1 $-1 $418 $162 #
plane-surface $-1 -123.70843869757462 10.96331925946826 62.713580955496056 0 -1 0 0.80901700255871778 0 -0.5877852410284794 forward_v I I I I #
coedge $-1 $419 $420 $421 $422 reversed $163 $-1 #
coedge $-1 $265 $165 $423 $424 reversed $104 $-1 #
coedge $-1 $165 $264 $419 $425 reversed $104 $-1 #
coedge $-1 $421 $426 $165 $267 forward $416 $-1 #
edge $-1 $427 14.601800756911338 $428 20.8169884920611 $266 $429 forward 7 unknown #
loop $-1 $-1 $273 $166 #
plane-surface $-1 -47.252418591875966 7.9136516442506455 7.165032453087214 -0.80901700255871778 0 0.5877852410284794 0.5877852410284794 0 0.80901700255871778 forward_v I I I I #
loop $-1 $-1 $430 $106 #
coedge $-1 $271 $271 $272 $431 reversed $167 $-1 #
coedge $-1 $272 $272 $271 $431 forward $169 $-1 #
coedge $-1 $273 $273 $170 $274 forward $268 $-1 #
edge $-1 $432 0 $432 6.2831853071796004 $273 $433 forward 7 unknown #
loop $-1 $-1 $280 $171 #
plane-surface $-1 -47.252418591875966 7.9136516442506455 7.165032453087214 -0.80901700255871778 0 0.5877852410284794 0.5877852410284794 0 0.80901700255871778 forward_v I I I I #
loop $-1 $-1 $434 $109 #
coedge $-1 $278 $278 $279 $435 reversed $172 $-1 #
coedge $-1 $279 $279 $278 $435 forward $174 $-1 #
coedge $-1 $280 $280 $175 $281 forward $275 $-1 #
edge $-1 $436 0 $436 6.2831853071796004 $280 $437 forward 7 unknown #
face $-1 $438 $439 $60 $-1 $440 forward single #
loop $-1 $-1 $441 $176 #
plane-surface $-1 65.852908468921811 -10.307689742746156 138.01251214240034 0 1 0 0.79863551827123203 0 0.60181501223851219 forward_v I I I I #
coedge $-1 $442 $443 $444 $445 reversed $177 $-1 #
coedge $-1 $287 $179 $446 $447 reversed $113 $-1 #
coedge $-1 $179 $286 $442 $448 reversed $113 $-1 #
coedge $-1 $444 $449 $179 $289 forward $439 $-1 #
edge $-1 $450 -14.325964357415067 $451 -6.7479673582848321 $288 $452 forward 7 unknown #
loop $-1 $-1 $295 $180 #
plane-surface $-1 -9.6220111544623279 -7.1272960664082348 81.13808239606206 0.79863551827123203 0 0.60181501223851219 0.60181501223851219 0 -0.79863551827123203 forward_v I I I I #
loop $-1 $-1 $453 $115 #
coedge $-1 $293 $293 $294 $454 reversed $181 $-1 #
coedge $-1 $294 $294 $293 $454 forward $183 $-1 #
coedge $-1 $295 $295 $184 $296 forward $290 $-1 #
edge $-1 $455 0 $455 6.2831853071796004 $295 $456 forward 7 unknown #
loop $-1 $-1 $302 $185 #
plane-surface $-1 -9.6220111544623279 -7.1272960664082348 81.13808239606206 0.79863551827123203 0 0.60181501223851219 0.60181501223851219 0 -0.79863551827123203 forward_v I I I I #
loop $-1 $-1 $457 $118 #
coedge $-1 $300 $300 $301 $458 reversed $186 $-1 #
coedge $-1 $301 $301 $300 $458 forward $188 $-1 #
coedge $-1 $302 $302 $189 $303 forward $297 $-1 #
edge $-1 $459 0 $459 6.2831853071796004 $302 $460 forward 7 unknown #
loop $-1 $-1 $309 $190 #
plane-surface $-1 -9.6220111544623279 -7.1272960664082348 81.13808239606206 0.79863551827123203 0 0.60181501223851219 0.60181501223851219 0 -0.79863551827123203 forward_v I I I I #
loop $-1 $-1 $461 $121 #
coedge $-1 $307 $307 $308 $462 reversed $191 $-1 #
coedge $-1 $308 $308 $307 $462 forward $193 $-1 #
coedge $-1 $309 $309 $194 $310 forward $304 $-1 #
edge $-1 $463 0 $463 6.2831853071796004 $309 $464 forward 7 unknown #
face $-1 $465 $466 $64 $-1 $467 reversed single #
loop $-1 $-1 $468 $195 #
plane-surface $-1 65.852908468921811 2.8238650967014927 138.01251214240034 0 1 0 0.79863551827123203 0 0.60181501223851219 forward_v I I I I #
coedge $-1 $469 $470 $471 $472 reversed $196 $-1 #
coedge $-1 $316 $198 $473 $474 reversed $125 $-1 #
coedge $-1 $198 $315 $469 $475 reversed $125 $-1 #
coedge $-1 $471 $476 $198 $318 forward $477 $-1 #
edge $-1 $478 -14.325964357415067 $479 -6.7479673582848321 $317 $480 forward 7 unknown #
loop $-1 $-1 $324 $199 #
plane-surface $-1 -9.6220111544623279 6.0042587730394139 81.13808239606206 0.79863551827123203 0 0.60181501223851219 0.60181501223851219 0 -0.79863551827123203 forward_v I I I I #
loop $-1 $-1 $481 $127 #
coedge $-1 $322 $322 $323 $482 reversed $200 $-1 #
coedge $-1 $323 $323 $322 $482 forward $202 $-1 #
coedge $-1 $324 $324 $203 $325 forward $319 $-1 #
edge $-1 $483 0 $483 6.2831853071796004 $324 $484 forward 7 unknown #
loop $-1 $-1 $331 $204 #
plane-surface $-1 -9.6220111544623279 6.0042587730394139 81.13808239606206 0.79863551827123203 0 0.60181501223851219 0.60181501223851219 0 -0.79863551827123203 forward_v I I I I #
loop $-1 $-1 $485 $130 #
coedge $-1 $329 $329 $330 $486 reversed $205 $-1 #
coedge $-1 $330 $330 $329 $486 forward $207 $-1 #
coedge $-1 $331 $331 $208 $332 forward $326 $-1 #
edge $-1 $487 0 $487 6.2831853071796004 $331 $488 forward 7 unknown #
loop $-1 $-1 $338 $209 #
plane-surface $-1 -9.6220111544623279 6.0042587730394139 81.13808239606206 0.79863551827123203 0 0.60181501223851219 0.60181501223851219 0 -0.79863551827123203 forward_v I I I I #
loop $-1 $-1 $489 $133 #
coedge $-1 $336 $336 $337 $490 reversed $210 $-1 #
coedge $-1 $337 $337 $336 $490 forward $212 $-1 #
coedge $-1 $338 $338 $213 $339 forward $333 $-1 #
edge $-1 $491 0 $491 6.2831853071796004 $338 $492 forward 7 unknown #
face $-1 $493 $494 $51 $-1 $495 reversed single #
loop $-1 $-1 $496 $214 #
plane-surface $-1 -47.252418591875973 0 0 1 0 0 0 0 -1 forward_v I I I I #
coedge $-1 $497 $351 $498 $499 forward $215 $-1 #
coedge $-1 $500 $217 $497 $501 forward $137 $-1 #
coedge $-1 $217 $500 $502 $503 forward $137 $-1 #
coedge $-1 $354 $353 $217 $347 reversed $355 $-1 #
edge $-1 $504 -31.616161090430861 $505 31.616161090430861 $346 $506 forward 7 unknown #
coedge $-1 $219 $218 $507 $508 forward $86 $-1 #
coedge $-1 $509 $510 $218 $350 reversed $494 $-1 #
edge $-1 $357 -47.252418591875973 $511 47.252418591875973 $349 $512 forward 7 unknown #
coedge $-1 $343 $513 $219 $352 reversed $215 $-1 #
edge $-1 $514 -47.252418591875973 $356 47.252418591875973 $351 $515 forward 7 unknown #
coedge $-1 $346 $220 $513 $516 forward $355 $-1 #
coedge $-1 $220 $346 $509 $517 reversed $355 $-1 #
loop $-1 $-1 $353 $493 #
vertex $-1 $221 $518 #
vertex $-1 $221 $519 #
straight-curve $-1 47.252418591875973 0 15.719504734549165 0 1 0 I I #
face $-1 $520 $521 $52 $-1 $522 reversed single #
loop $-1 $-1 $523 $222 #
plane-surface $-1 0 0 15.719504734549165 0 0 1 1 0 0 forward_v I I I I #
coedge $-1 $524 $525 $526 $527 reversed $223 $-1 #
coedge $-1 $228 $225 $528 $529 reversed $141 $-1 #
coedge $-1 $225 $228 $530 $531 reversed $141 $-1 #
coedge $-1 $525 $524 $225 $366 reversed $223 $-1 #
edge $-1 $532 -15.719504734549165 $533 15.719504734549165 $365 $534 forward 7 unknown #
coedge $-1 $227 $226 $535 $536 reversed $89 $-1 #
coedge $-1 $528 $537 $226 $369 forward $521 $-1 #
edge $-1 $538 -20.429232107961237 $373 -1.9446258569780195 $368 $539 forward 7 unknown #
coedge $-1 $540 $530 $227 $371 forward $360 $-1 #
edge $-1 $372 1.9446258569780195 $541 20.429232107961237 $370 $542 forward 7 unknown #
vertex $-1 $371 $543 #
vertex $-1 $369 $544 #
straight-curve $-1 -23.236745783487102 -13.131554839447647 0 0 0 -1 I I #
face $-1 $545 $546 $53 $-1 $547 forward single #
loop $-1 $-1 $548 $230 #
plane-surface $-1 0 0 -15.719504734549165 0 0 1 1 0 0 forward_v I I I I #
coedge $-1 $549 $550 $383 $551 forward $231 $-1 #
coedge $-1 $236 $233 $552 $553 reversed $145 $-1 #
coedge $-1 $233 $236 $554 $555 reversed $145 $-1 #
coedge $-1 $556 $557 $233 $382 forward $558 $-1 #
edge $-1 $559 -15.719504734549165 $560 15.719504734549165 $381 $561 forward 7 unknown #
coedge $-1 $235 $234 $378 $551 reversed $92 $-1 #
coedge $-1 $552 $548 $234 $385 forward $376 $-1 #
edge $-1 $562 6.0508703962114563 $389 13.474207056920916 $384 $563 forward 7 unknown #
coedge $-1 $564 $554 $235 $387 forward $546 $-1 #
edge $-1 $388 -13.474207056920916 $565 -6.0508703962114563 $386 $566 forward 7 unknown #
vertex $-1 $387 $567 #
vertex $-1 $385 $568 #
straight-curve $-1 -23.236745783487102 13.131554839447645 0 0 0 -1 I I #
face $-1 $-1 $403 $54 $-1 $569 forward single #
loop $-1 $-1 $570 $238 #
plane-surface $-1 -47.252418591875973 0 0 1 0 0 0 0 -1 forward_v I I I I #
coedge $-1 $571 $572 $573 $574 reversed $239 $-1 #
coedge $-1 $575 $241 $243 $401 forward $149 $-1 #
coedge $-1 $241 $575 $571 $576 forward $149 $-1 #
coedge $-1 $573 $244 $241 $398 forward $403 $-1 #
edge $-1 $405 -5.6586192128161148 $577 0.44071601761911516 $397 $578 forward 7 unknown #
coedge $-1 $579 $580 $242 $400 forward $392 $-1 #
edge $-1 $581 -24.191758024660825 $404 -15.637285743198863 $399 $582 forward 7 unknown #
edge $-1 $405 -10.573909144562231 $581 1.2080531203272332e-014 $243 $583 forward 7 unknown #
coedge $-1 $244 $573 $579 $584 forward $403 $-1 #
loop $-1 $-1 $573 $391 #
vertex $-1 $400 $585 #
vertex $-1 $245 $586 #
straight-curve $-1 -61.854219348787311 -8.2675708104146146 15.719504734549165 1 0 0 I I #
coedge $-1 $407 $407 $-1 $587 reversed $248 $-1 #
edge $-1 $588 0 $588 6.2831853071796004 $249 $589 forward 7 unknown #
vertex $-1 $252 $590 #
ellipse-curve $-1 -44.144824724301095 -6.5249036017188367 11.442268593818184 -0.80901700255871778 0 0.5877852410284794 0.2938926205142397 0 0.40450850127935889 1 I I #
coedge $-1 $411 $411 $-1 $591 reversed $255 $-1 #
edge $-1 $592 0 $592 6.2831853071796004 $256 $593 forward 7 unknown #
vertex $-1 $259 $594 #
ellipse-curve $-1 -44.144824724301095 -3.9109027886751662 11.442268593818184 -0.80901700255871778 0 0.5877852410284794 0.2938926205142397 0 0.40450850127935889 1 I I #
face $-1 $-1 $595 $57 $-1 $596 reversed single #
loop $-1 $-1 $266 $260 #
plane-surface $-1 0 0 15.719504734549165 0 0 1 1 0 0 forward_v I I I I #
coedge $-1 $597 $598 $599 $600 reversed $261 $-1 #
coedge $-1 $601 $263 $265 $425 forward $163 $-1 #
coedge $-1 $263 $601 $597 $602 forward $163 $-1 #
coedge $-1 $599 $266 $263 $422 forward $416 $-1 #
edge $-1 $428 0.90715820690770776 $603 7.0064934373429377 $421 $604 forward 7 unknown #
coedge $-1 $605 $606 $264 $424 forward $595 $-1 #
edge $-1 $607 -24.191758024660825 $427 -15.637285743198863 $423 $608 forward 7 unknown #
edge $-1 $428 -10.573909144562231 $607 1.2080531203272332e-014 $265 $609 forward 7 unknown #
coedge $-1 $266 $599 $605 $610 forward $416 $-1 #
vertex $-1 $424 $611 #
vertex $-1 $267 $612 #
straight-curve $-1 -61.854219348787311 4.8639840290330305 15.719504734549165 1 0 0 I I #
coedge $-1 $430 $430 $-1 $613 reversed $270 $-1 #
edge $-1 $614 0 $614 6.2831853071796004 $271 $615 forward 7 unknown #
vertex $-1 $274 $616 #
ellipse-curve $-1 -44.144824724301095 6.6066512377288085 11.442268593818184 -0.80901700255871778 0 0.5877852410284794 0.2938926205142397 0 0.40450850127935889 1 I I #
coedge $-1 $434 $434 $-1 $617 reversed $277 $-1 #
edge $-1 $618 0 $618 6.2831853071796004 $278 $619 forward 7 unknown #
vertex $-1 $281 $620 #
ellipse-curve $-1 -44.144824724301095 9.2206520507724825 11.442268593818184 -0.80901700255871778 0 0.5877852410284794 0.2938926205142397 0 0.40450850127935889 1 I I #
face $-1 $-1 $621 $60 $-1 $622 reversed single #
loop $-1 $-1 $288 $282 #
plane-surface $-1 0 0 15.719504734549165 0 0 1 1 0 0 forward_v I I I I #
coedge $-1 $623 $624 $625 $626 reversed $283 $-1 #
coedge $-1 $627 $285 $287 $448 forward $177 $-1 #
coedge $-1 $285 $627 $623 $628 forward $177 $-1 #
coedge $-1 $625 $288 $285 $445 forward $439 $-1 #
edge $-1 $451 0.38325435686619613 $629 6.7440417095420386 $444 $630 forward 7 unknown #
coedge $-1 $631 $632 $286 $447 forward $621 $-1 #
edge $-1 $633 -63.343093298522277 $450 -53.286751336651008 $446 $634 forward 7 unknown #
edge $-1 $451 81.912932952345216 $633 94.504837183751988 $287 $635 forward 7 unknown #
coedge $-1 $288 $625 $631 $636 forward $439 $-1 #
vertex $-1 $289 $637 #
vertex $-1 $289 $638 #
straight-curve $-1 32.926454234460905 -3.9469023900703135 15.719504734549162 -1 0 0 I I #
coedge $-1 $453 $453 $-1 $639 reversed $292 $-1 #
edge $-1 $640 0 $640 6.2831853071796004 $293 $641 forward 7 unknown #
vertex $-1 $296 $642 #
ellipse-curve $-1 43.463420092310841 -9.0355322722109861 10.691333753613538 0.79863551827123203 0 0.60181501223851219 0.3009075061192561 0 -0.39931775913561601 1 I I #
coedge $-1 $457 $457 $-1 $643 reversed $299 $-1 #
edge $-1 $644 0 $644 6.2831853071796004 $300 $645 forward 7 unknown #
vertex $-1 $303 $646 #
ellipse-curve $-1 43.463420092310841 -7.1272960664082348 10.691333753613538 0.79863551827123203 0 0.60181501223851219 0.3009075061192561 0 -0.39931775913561601 1 I I #
coedge $-1 $461 $461 $-1 $647 reversed $306 $-1 #
edge $-1 $648 0 $648 6.2831853071796004 $307 $649 forward 7 unknown #
vertex $-1 $310 $650 #
ellipse-curve $-1 43.463420092310841 -5.2190598606054834 10.691333753613538 0.79863551827123203 0 0.60181501223851219 0.3009075061192561 0 -0.39931775913561601 1 I I #
face $-1 $-1 $477 $64 $-1 $651 forward single #
loop $-1 $-1 $652 $311 #
plane-surface $-1 47.252418591875973 0 0 -1 0 0 0 0 1 forward_v I I I I #
coedge $-1 $653 $654 $655 $656 reversed $312 $-1 #
coedge $-1 $657 $314 $316 $475 forward $196 $-1 #
coedge $-1 $314 $657 $653 $658 forward $196 $-1 #
coedge $-1 $655 $317 $314 $472 forward $477 $-1 #
edge $-1 $479 -6.1825230628576282 $659 0.17826428981821429 $471 $660 forward 7 unknown #
coedge $-1 $661 $662 $315 $474 forward $466 $-1 #
edge $-1 $663 -63.343093298522277 $478 -53.286751336651008 $473 $664 forward 7 unknown #
edge $-1 $479 81.912932952345216 $663 94.504837183751988 $316 $665 forward 7 unknown #
coedge $-1 $317 $655 $661 $666 forward $477 $-1 #
loop $-1 $-1 $655 $465 #
vertex $-1 $474 $667 #
vertex $-1 $318 $668 #
straight-curve $-1 32.926454234460905 9.1846524493773352 15.719504734549162 -1 0 0 I I #
coedge $-1 $481 $481 $-1 $669 reversed $321 $-1 #
edge $-1 $670 0 $670 6.2831853071796004 $322 $671 forward 7 unknown #
vertex $-1 $325 $672 #
ellipse-curve $-1 43.463420092310841 4.0960225672366626 10.691333753613538 0.79863551827123203 0 0.60181501223851219 0.3009075061192561 0 -0.39931775913561601 1 I I #
coedge $-1 $485 $485 $-1 $673 reversed $328 $-1 #
edge $-1 $674 0 $674 6.2831853071796004 $329 $675 forward 7 unknown #
vertex $-1 $332 $676 #
ellipse-curve $-1 43.463420092310841 6.0042587730394139 10.691333753613538 0.79863551827123203 0 0.60181501223851219 0.3009075061192561 0 -0.39931775913561601 1 I I #
coedge $-1 $489 $489 $-1 $677 reversed $335 $-1 #
edge $-1 $678 0 $678 6.2831853071796004 $336 $679 forward 7 unknown #
vertex $-1 $339 $680 #
ellipse-curve $-1 43.463420092310841 7.9124949788421652 10.691333753613538 0.79863551827123203 0 0.60181501223851219 0.3009075061192561 0 -0.39931775913561601 1 I I #
face $-1 $-1 $355 $51 $-1 $681 reversed single #
loop $-1 $-1 $509 $340 #
plane-surface $-1 0 31.616161090430861 0 0 -1 0 0 0 -1 forward_v I I I I #
coedge $-1 $682 $507 $510 $683 forward $341 $-1 #
coedge $-1 $513 $343 $344 $501 reversed $215 $-1 #
coedge $-1 $507 $682 $343 $499 reversed $341 $-1 #
edge $-1 $514 -15.719504734549165 $684 15.719504734549165 $498 $685 forward 7 unknown #
coedge $-1 $345 $344 $682 $686 forward $137 $-1 #
edge $-1 $505 -47.252418591875973 $684 47.252418591875973 $497 $687 forward 7 unknown #
coedge $-1 $510 $509 $345 $503 reversed $494 $-1 #
edge $-1 $688 -47.252418591875973 $504 47.252418591875973 $502 $689 forward 7 unknown #
vertex $-1 $347 $690 #
vertex $-1 $516 $691 #
straight-curve $-1 47.252418591875973 0 -15.719504734549165 0 -1 0 I I #
coedge $-1 $496 $498 $348 $508 reversed $341 $-1 #
edge $-1 $511 -31.616161090430861 $514 31.616161090430861 $507 $692 forward 7 unknown #
coedge $-1 $502 $349 $354 $517 forward $494 $-1 #
coedge $-1 $349 $502 $496 $683 reversed $494 $-1 #
vertex $-1 $350 $693 #
straight-curve $-1 0 31.616161090430861 15.719504734549165 -1 0 0 I I #
coedge $-1 $351 $497 $353 $516 reversed $215 $-1 #
vertex $-1 $508 $694 #
straight-curve $-1 0 -31.616161090430861 15.719504734549165 1 0 0 I I #
edge $-1 $356 -15.719504734549165 $505 15.719504734549165 $353 $695 forward 7 unknown #
edge $-1 $357 -15.719504734549165 $504 15.719504734549165 $354 $696 forward 7 unknown #
point $-1 47.252418591875973 -31.616161090430861 15.719504734549165 #
point $-1 47.252418591875973 31.616161090430861 15.719504734549165 #
face $-1 $-1 $697 $52 $-1 $698 reversed single #
loop $-1 $-1 $699 $359 #
plane-surface $-1 0 0 -15.719504734549165 0 0 1 1 0 0 forward_v I I I I #
coedge $-1 $530 $540 $525 $700 forward $360 $-1 #
coedge $-1 $365 $362 $699 $701 reversed $223 $-1 #
coedge $-1 $362 $365 $523 $700 reversed $223 $-1 #
coedge $-1 $702 $703 $362 $527 forward $697 $-1 #
edge $-1 $704 -15.719504734549165 $705 15.719504734549165 $526 $706 forward 7 unknown #
coedge $-1 $699 $368 $363 $529 forward $521 $-1 #
edge $-1 $373 -13.474207056920916 $533 -6.0508703962114563 $528 $707 forward 7 unknown #
coedge $-1 $370 $523 $364 $531 forward $360 $-1 #
edge $-1 $532 6.0508703962114563 $372 13.474207056920916 $530 $708 forward 7 unknown #
vertex $-1 $531 $709 #
vertex $-1 $529 $710 #
straight-curve $-1 -15.813409122777642 -13.131554839447647 0 0 0 -1 I I #
coedge $-1 $703 $702 $367 $536 forward $697 $-1 #
edge $-1 $541 -15.719504734549165 $538 15.719504734549165 $535 $711 forward 7 unknown #
coedge $-1 $368 $699 $703 $712 forward $521 $-1 #
vertex $-1 $369 $713 #
straight-curve $-1 -23.236745783487102 -11.186928982469627 -15.719504734549165 0 1 0 I I #
coedge $-1 $523 $370 $702 $714 forward $360 $-1 #
vertex $-1 $714 $715 #
straight-curve $-1 -23.236745783487102 -11.186928982469627 15.719504734549165 0 -1 0 I I #
point $-1 -23.236745783487102 -13.131554839447647 15.719504734549165 #
point $-1 -23.236745783487102 -13.131554839447647 -15.719504734549165 #
face $-1 $-1 $558 $53 $-1 $716 reversed single #
loop $-1 $-1 $564 $375 #
plane-surface $-1 0 0 15.719504734549165 0 0 1 1 0 0 forward_v I I I I #
coedge $-1 $384 $717 $549 $718 forward $376 $-1 #
coedge $-1 $719 $378 $548 $718 reversed $231 $-1 #
coedge $-1 $378 $719 $564 $720 reversed $231 $-1 #
edge $-1 $565 -15.719504734549165 $562 15.719504734549165 $378 $721 forward 7 unknown #
coedge $-1 $717 $384 $379 $553 forward $376 $-1 #
edge $-1 $389 1.9446258569780195 $559 20.429232107961234 $552 $722 forward 7 unknown #
coedge $-1 $386 $723 $380 $555 forward $546 $-1 #
edge $-1 $560 -20.429232107961234 $388 -1.9446258569780195 $554 $724 forward 7 unknown #
coedge $-1 $725 $381 $723 $726 reversed $558 $-1 #
coedge $-1 $381 $725 $717 $727 reversed $558 $-1 #
loop $-1 $-1 $725 $545 #
vertex $-1 $727 $728 #
vertex $-1 $382 $729 #
straight-curve $-1 -23.236745783487102 31.616161090430861 0 0 0 1 I I #
vertex $-1 $385 $730 #
straight-curve $-1 -9.762538726566186 13.131554839447645 -15.719504734549165 -1 0 0 I I #
coedge $-1 $723 $386 $550 $720 forward $546 $-1 #
vertex $-1 $387 $731 #
straight-curve $-1 -9.762538726566186 13.131554839447645 15.719504734549165 1 0 0 I I #
point $-1 -23.236745783487102 13.131554839447645 15.719504734549165 #
point $-1 -23.236745783487102 13.131554839447645 -15.719504734549165 #
plane-surface $-1 0 0 15.719504734549165 0 0 1 1 0 0 forward_v I I I I #
coedge $-1 $580 $579 $572 $732 forward $392 $-1 #
coedge $-1 $572 $394 $396 $576 reversed $239 $-1 #
coedge $-1 $394 $571 $570 $732 reversed $239 $-1 #
coedge $-1 $402 $397 $394 $574 forward $403 $-1 #
edge $-1 $577 -20.8169884920611 $733 -14.601800756911338 $573 $734 forward 7 unknown #
coedge $-1 $396 $395 $580 $735 reversed $149 $-1 #
edge $-1 $736 -1.2080531203272332e-014 $577 10.573909144562231 $571 $737 forward 7 unknown #
vertex $-1 $398 $738 #
straight-curve $-1 -41.037230856726211 -2.6089515975984998 15.719504734549165 0 1 0 I I #
coedge $-1 $570 $399 $402 $584 reversed $392 $-1 #
coedge $-1 $399 $570 $575 $735 forward $392 $-1 #
vertex $-1 $400 $739 #
straight-curve $-1 -47.252418591875973 -8.2675708104146146 31.356790477748028 0 0 1 I I #
straight-curve $-1 -47.252418591875966 -8.2675708104146146 7.165032453087214 -0.5877852410284794 0 -0.80901700255871778 I I #
edge $-1 $733 2.1682355799793847 $404 8.2675708104146146 $579 $740 forward 7 unknown #
point $-1 -47.252418591875973 -8.2675708104146146 15.719504734549165 #
point $-1 -41.037230856726211 -8.2675708104146146 15.719504734549165 #
edge $-1 $741 1 $741 0 $407 $-1 forward 7 unknown #
vertex $-1 $408 $742 #
ellipse-curve $-1 -42.973432693617909 -6.5249036017188367 10.591202491478784 -0.80901700255871778 0 0.5877852410284794 0.2938926205142397 0 0.40450850127935889 1 I I #
point $-1 -43.850932103786853 -6.5249036017188367 11.846777095097545 #
edge $-1 $743 1 $743 0 $411 $-1 forward 7 unknown #
vertex $-1 $412 $744 #
ellipse-curve $-1 -42.973432693617909 -3.9109027886751662 10.591202491478784 -0.80901700255871778 0 0.5877852410284794 0.2938926205142397 0 0.40450850127935889 1 I I #
point $-1 -43.850932103786853 -3.9109027886751662 11.846777095097545 #
loop $-1 $-1 $423 $415 #
plane-surface $-1 -47.252418591875973 0 0 1 0 0 0 0 -1 forward_v I I I I #
coedge $-1 $598 $418 $420 $602 reversed $261 $-1 #
coedge $-1 $418 $597 $745 $746 reversed $261 $-1 #
coedge $-1 $426 $421 $418 $600 forward $416 $-1 #
edge $-1 $603 -20.8169884920611 $747 -14.601800756911338 $599 $748 forward 7 unknown #
coedge $-1 $420 $419 $606 $749 reversed $163 $-1 #
edge $-1 $750 -1.2080531203272332e-014 $603 10.573909144562231 $597 $751 forward 7 unknown #
vertex $-1 $422 $752 #
straight-curve $-1 -41.037230856726211 3.9568258221253227 15.719504734549165 0 1 0 I I #
coedge $-1 $745 $423 $426 $610 reversed $595 $-1 #
coedge $-1 $423 $745 $601 $749 forward $595 $-1 #
vertex $-1 $424 $753 #
straight-curve $-1 -47.252418591875973 4.8639840290330305 31.356790477748028 0 0 1 I I #
straight-curve $-1 -47.252418591875966 4.8639840290330305 7.165032453087214 -0.5877852410284794 0 -0.80901700255871778 I I #
edge $-1 $747 -10.96331925946826 $427 -4.8639840290330305 $605 $754 forward 7 unknown #
point $-1 -47.252418591875973 4.8639840290330305 15.719504734549165 #
point $-1 -41.037230856726211 4.8639840290330305 15.719504734549165 #
edge $-1 $755 1 $755 0 $430 $-1 forward 7 unknown #
vertex $-1 $431 $756 #
ellipse-curve $-1 -42.973432693617909 6.6066512377288085 10.591202491478784 -0.80901700255871778 0 0.5877852410284794 0.2938926205142397 0 0.40450850127935889 1 I I #
point $-1 -43.850932103786853 6.6066512377288085 11.846777095097545 #
edge $-1 $757 1 $757 0 $434 $-1 forward 7 unknown #
vertex $-1 $435 $758 #
ellipse-curve $-1 -42.973432693617909 9.2206520507724825 10.591202491478784 -0.80901700255871778 0 0.5877852410284794 0.2938926205142397 0 0.40450850127935889 1 I I #
point $-1 -43.850932103786853 9.2206520507724825 11.846777095097545 #
loop $-1 $-1 $446 $438 #
plane-surface $-1 47.252418591875973 0 0 -1 0 0 0 0 1 forward_v I I I I #
coedge $-1 $624 $441 $443 $628 reversed $283 $-1 #
coedge $-1 $441 $623 $759 $760 reversed $283 $-1 #
coedge $-1 $449 $444 $441 $626 forward $439 $-1 #
edge $-1 $629 6.7479673582848321 $761 14.325964357415067 $625 $762 forward 7 unknown #
coedge $-1 $443 $442 $632 $763 reversed $177 $-1 #
edge $-1 $764 -94.504837183751988 $629 -81.912932952345216 $623 $765 forward 7 unknown #
vertex $-1 $445 $766 #
straight-curve $-1 39.67442159274573 -3.5636480332041174 15.719504734549169 0 -1 0 I I #
coedge $-1 $759 $446 $449 $636 reversed $621 $-1 #
coedge $-1 $446 $759 $627 $763 forward $621 $-1 #
vertex $-1 $447 $767 #
straight-curve $-1 47.252418591875973 -3.9469023900703135 69.00625607120017 0 0 1 I I #
straight-curve $-1 -9.6220111544623279 -3.9469023900703135 81.13808239606206 0.60181501223851219 0 -0.79863551827123203 I I #
edge $-1 $761 -10.307689742746156 $450 -3.9469023900703135 $631 $768 forward 7 unknown #
point $-1 47.252418591875973 -3.9469023900703135 15.719504734549165 #
point $-1 39.674421592745738 -3.9469023900703135 15.719504734549162 #
edge $-1 $769 1 $769 0 $453 $-1 forward 7 unknown #
vertex $-1 $454 $770 #
ellipse-curve $-1 42.577089924094871 -9.0355322722109861 10.023436084615676 0.79863551827123203 0 0.60181501223851219 0.3009075061192561 0 -0.39931775913561601 1 I I #
point $-1 43.764327598430121 -9.0355322722109861 10.292015994477941 #
edge $-1 $771 1 $771 0 $457 $-1 forward 7 unknown #
vertex $-1 $458 $772 #
ellipse-curve $-1 42.577089924094871 -7.1272960664082348 10.023436084615676 0.79863551827123203 0 0.60181501223851219 0.3009075061192561 0 -0.39931775913561601 1 I I #
point $-1 43.764327598430121 -7.1272960664082348 10.292015994477941 #
edge $-1 $773 1 $773 0 $461 $-1 forward 7 unknown #
vertex $-1 $462 $774 #
ellipse-curve $-1 42.577089924094871 -5.2190598606054834 10.023436084615676 0.79863551827123203 0 0.60181501223851219 0.3009075061192561 0 -0.39931775913561601 1 I I #
point $-1 43.764327598430121 -5.2190598606054834 10.292015994477941 #
plane-surface $-1 0 0 15.719504734549165 0 0 1 1 0 0 forward_v I I I I #
coedge $-1 $662 $661 $654 $775 forward $466 $-1 #
coedge $-1 $654 $468 $470 $658 reversed $312 $-1 #
coedge $-1 $468 $653 $652 $775 reversed $312 $-1 #
coedge $-1 $476 $471 $468 $656 forward $477 $-1 #
edge $-1 $659 6.7479673582848321 $776 14.325964357415067 $655 $777 forward 7 unknown #
coedge $-1 $470 $469 $662 $778 reversed $196 $-1 #
edge $-1 $779 -94.504837183751988 $659 -81.912932952345216 $653 $780 forward 7 unknown #
vertex $-1 $472 $781 #
straight-curve $-1 39.67442159274573 3.002129386519707 15.719504734549169 0 -1 0 I I #
coedge $-1 $652 $473 $476 $666 reversed $466 $-1 #
coedge $-1 $473 $652 $657 $778 forward $466 $-1 #
vertex $-1 $474 $782 #
straight-curve $-1 47.252418591875973 9.1846524493773352 69.00625607120017 0 0 1 I I #
straight-curve $-1 -9.6220111544623279 9.1846524493773352 81.13808239606206 0.60181501223851219 0 -0.79863551827123203 I I #
edge $-1 $776 2.8238650967014927 $478 9.1846524493773352 $661 $783 forward 7 unknown #
point $-1 47.252418591875973 9.1846524493773352 15.719504734549165 #
point $-1 39.674421592745738 9.1846524493773352 15.719504734549162 #
edge $-1 $784 1 $784 0 $481 $-1 forward 7 unknown #
vertex $-1 $482 $785 #
ellipse-curve $-1 42.577089924094871 4.0960225672366626 10.023436084615676 0.79863551827123203 0 0.60181501223851219 0.3009075061192561 0 -0.39931775913561601 1 I I #
point $-1 43.764327598430121 4.0960225672366626 10.292015994477941 #
edge $-1 $786 1 $786 0 $485 $-1 forward 7 unknown #
vertex $-1 $486 $787 #
ellipse-curve $-1 42.577089924094871 6.0042587730394139 10.023436084615676 0.79863551827123203 0 0.60181501223851219 0.3009075061192561 0 -0.39931775913561601 1 I I #
point $-1 43.764327598430121 6.0042587730394139 10.292015994477941 #
edge $-1 $788 1 $788 0 $489 $-1 forward 7 unknown #
vertex $-1 $490 $789 #
ellipse-curve $-1 42.577089924094871 7.9124949788421652 10.023436084615676 0.79863551827123203 0 0.60181501223851219 0.3009075061192561 0 -0.39931775913561601 1 I I #
point $-1 43.764327598430121 7.9124949788421652 10.292015994477941 #
plane-surface $-1 47.252418591875973 0 0 -1 0 0 0 0 1 forward_v I I I I #
coedge $-1 $498 $496 $500 $686 reversed $341 $-1 #
edge $-1 $511 -15.719504734549165 $688 15.719504734549165 $510 $790 forward 7 unknown #
vertex $-1 $686 $791 #
straight-curve $-1 -47.252418591875973 -31.616161090430861 0 0 0 -1 I I #
edge $-1 $684 -31.616161090430861 $688 31.616161090430861 $682 $792 forward 7 unknown #
straight-curve $-1 0 -31.616161090430861 -15.719504734549165 -1 0 0 I I #
vertex $-1 $503 $793 #
straight-curve $-1 0 31.616161090430861 -15.719504734549165 1 0 0 I I #
point $-1 47.252418591875973 31.616161090430861 -15.719504734549165 #
point $-1 47.252418591875973 -31.616161090430861 -15.719504734549165 #
straight-curve $-1 -47.252418591875973 0 15.719504734549165 0 -1 0 I I #
point $-1 -47.252418591875973 31.616161090430861 15.719504734549165 #
point $-1 -47.252418591875973 -31.616161090430861 15.719504734549165 #
straight-curve $-1 47.252418591875973 -31.616161090430861 0 0 0 -1 I I #
straight-curve $-1 47.252418591875973 31.616161090430861 0 0 0 -1 I I #
loop $-1 $-1 $526 $520 #
plane-surface $-1 0 -31.616161090430861 0 0 1 0 0 0 1 forward_v I I I I #
coedge $-1 $537 $528 $524 $701 forward $521 $-1 #
edge $-1 $705 -20.429232107961237 $532 -1.9446258569780195 $523 $794 forward 7 unknown #
edge $-1 $533 1.9446258569780195 $704 20.429232107961237 $699 $795 forward 7 unknown #
coedge $-1 $535 $526 $540 $714 reversed $697 $-1 #
coedge $-1 $526 $535 $537 $712 reversed $697 $-1 #
vertex $-1 $712 $796 #
vertex $-1 $527 $797 #
straight-curve $-1 -15.813409122777642 -31.616161090430861 0 0 0 1 I I #
straight-curve $-1 -9.762538726566186 -13.131554839447647 -15.719504734549165 1 0 0 I I #
straight-curve $-1 -9.762538726566186 -13.131554839447647 15.719504734549165 -1 0 0 I I #
point $-1 -15.813409122777642 -13.131554839447647 15.719504734549165 #
point $-1 -15.813409122777642 -13.131554839447647 -15.719504734549165 #
straight-curve $-1 -23.236745783487102 -31.616161090430861 0 0 0 -1 I I #
edge $-1 $704 15.813409122777642 $538 23.236745783487102 $703 $798 forward 7 unknown #
point $-1 -23.236745783487102 -31.616161090430865 -15.719504734549165 #
edge $-1 $541 -23.236745783487102 $705 -15.813409122777642 $702 $799 forward 7 unknown #
point $-1 -23.236745783487102 -31.616161090430865 15.719504734549165 #
plane-surface $-1 0 31.616161090430861 0 0 -1 0 0 0 -1 forward_v I I I I #
coedge $-1 $548 $552 $557 $727 forward $376 $-1 #
edge $-1 $800 -20.429232107961234 $562 -1.9446258569780195 $548 $801 forward 7 unknown #
coedge $-1 $550 $549 $725 $802 reversed $231 $-1 #
edge $-1 $565 1.9446258569780195 $803 20.429232107961234 $564 $804 forward 7 unknown #
straight-curve $-1 -15.813409122777642 13.131554839447645 0 0 0 -1 I I #
straight-curve $-1 -23.236745783487102 11.186928982469626 -15.719504734549165 0 1 0 I I #
coedge $-1 $554 $564 $556 $726 forward $546 $-1 #
straight-curve $-1 -23.236745783487102 11.186928982469626 15.719504734549165 0 -1 0 I I #
coedge $-1 $557 $556 $719 $802 forward $558 $-1 #
edge $-1 $803 15.813409122777642 $560 23.236745783487102 $556 $805 forward 7 unknown #
edge $-1 $559 -23.236745783487102 $800 -15.813409122777642 $557 $806 forward 7 unknown #
point $-1 -23.236745783487102 31.616161090430857 -15.719504734549165 #
point $-1 -23.236745783487102 31.616161090430857 15.719504734549165 #
point $-1 -15.813409122777642 13.131554839447645 -15.719504734549165 #
point $-1 -15.813409122777642 13.131554839447645 15.719504734549165 #
edge $-1 $733 15.637285743198863 $736 24.191758024660825 $570 $807 forward 7 unknown #
vertex $-1 $584 $808 #
straight-curve $-1 -61.854219348787311 -2.1682355799793847 15.719504734549165 -1 0 0 I I #
edge $-1 $736 -0.44071601761911516 $581 5.6586192128161148 $580 $809 forward 7 unknown #
vertex $-1 $735 $810 #
straight-curve $-1 -47.252418591875966 -2.1682355799793847 7.165032453087214 0.5877852410284794 0 0.80901700255871778 I I #
point $-1 -41.037230856726211 -2.1682355799793847 15.719504734549165 #
point $-1 -47.252418591875973 -8.2675708104146146 7.1650324530872043 #
straight-curve $-1 -47.252418591875973 0 15.719504734549165 0 -1 0 I I #
vertex $-1 $587 $811 #
point $-1 -42.679540073103674 -6.5249036017188367 10.995710992758143 #
vertex $-1 $591 $812 #
point $-1 -42.679540073103674 -3.9109027886751662 10.995710992758143 #
coedge $-1 $606 $605 $598 $746 forward $595 $-1 #
edge $-1 $747 15.637285743198863 $750 24.191758024660825 $745 $813 forward 7 unknown #
vertex $-1 $610 $814 #
straight-curve $-1 -61.854219348787311 10.96331925946826 15.719504734549165 -1 0 0 I I #
edge $-1 $750 -7.0064934373429377 $607 -0.90715820690770776 $606 $815 forward 7 unknown #
vertex $-1 $749 $816 #
straight-curve $-1 -47.252418591875966 10.96331925946826 7.165032453087214 0.5877852410284794 0 0.80901700255871778 I I #
point $-1 -41.037230856726211 10.96331925946826 15.719504734549165 #
point $-1 -47.252418591875973 4.8639840290330305 7.1650324530872043 #
straight-curve $-1 -47.252418591875973 0 15.719504734549165 0 -1 0 I I #
vertex $-1 $613 $817 #
point $-1 -42.679540073103674 6.6066512377288085 10.995710992758143 #
vertex $-1 $617 $818 #
point $-1 -42.679540073103674 9.2206520507724825 10.995710992758143 #
coedge $-1 $632 $631 $624 $760 forward $621 $-1 #
edge $-1 $761 53.286751336651008 $764 63.343093298522277 $759 $819 forward 7 unknown #
vertex $-1 $636 $820 #
straight-curve $-1 32.926454234460905 -10.307689742746156 15.719504734549162 1 0 0 I I #
edge $-1 $764 -6.7440417095420386 $633 -0.38325435686619613 $632 $821 forward 7 unknown #
vertex $-1 $763 $822 #
straight-curve $-1 -9.6220111544623279 -10.307689742746156 81.13808239606206 -0.60181501223851219 0 0.79863551827123203 I I #
point $-1 39.674421592745738 -10.307689742746156 15.719504734549162 #
point $-1 47.25241859187598 -3.9469023900703135 5.663162772677893 #
straight-curve $-1 47.252418591875973 0 15.719504734549165 0 1 0 I I #
vertex $-1 $639 $823 #
point $-1 42.87799743021413 -9.0355322722109861 9.62411832548006 #
vertex $-1 $643 $824 #
point $-1 42.87799743021413 -7.1272960664082348 9.62411832548006 #
vertex $-1 $647 $825 #
point $-1 42.87799743021413 -5.2190598606054834 9.62411832548006 #
edge $-1 $776 53.286751336651008 $779 63.343093298522277 $652 $826 forward 7 unknown #
vertex $-1 $666 $827 #
straight-curve $-1 32.926454234460905 2.8238650967014927 15.719504734549162 1 0 0 I I #
edge $-1 $779 -0.17826428981821429 $663 6.1825230628576282 $662 $828 forward 7 unknown #
vertex $-1 $778 $829 #
straight-curve $-1 -9.6220111544623279 2.8238650967014927 81.13808239606206 -0.60181501223851219 0 0.79863551827123203 I I #
point $-1 39.674421592745738 2.8238650967014927 15.719504734549162 #
point $-1 47.25241859187598 9.1846524493773352 5.663162772677893 #
straight-curve $-1 47.252418591875973 0 15.719504734549165 0 1 0 I I #
vertex $-1 $669 $830 #
point $-1 42.87799743021413 4.0960225672366626 9.62411832548006 #
vertex $-1 $673 $831 #
point $-1 42.87799743021413 6.0042587730394139 9.62411832548006 #
vertex $-1 $677 $832 #
point $-1 42.87799743021413 7.9124949788421652 9.62411832548006 #
straight-curve $-1 -47.252418591875973 31.616161090430861 0 0 0 -1 I I #
point $-1 -47.252418591875973 -31.616161090430861 -15.719504734549165 #
straight-curve $-1 -47.252418591875973 0 -15.719504734549165 0 1 0 I I #
point $-1 -47.252418591875973 31.616161090430861 -15.719504734549165 #
straight-curve $-1 -15.813409122777642 -11.186928982469627 15.719504734549165 0 1 0 I I #
straight-curve $-1 -15.813409122777642 -11.186928982469627 -15.719504734549165 0 -1 0 I I #
point $-1 -15.813409122777642 -31.616161090430865 -15.719504734549165 #
point $-1 -15.813409122777642 -31.616161090430865 15.719504734549165 #
straight-curve $-1 0 -31.616161090430861 -15.719504734549165 -1 0 0 I I #
straight-curve $-1 0 -31.616161090430861 15.719504734549165 1 0 0 I I #
vertex $-1 $802 $833 #
straight-curve $-1 -15.813409122777642 11.186928982469626 -15.719504734549165 0 -1 0 I I #
edge $-1 $803 -15.719504734549165 $800 15.719504734549165 $725 $834 forward 7 unknown #
vertex $-1 $726 $835 #
straight-curve $-1 -15.813409122777642 11.186928982469626 15.719504734549165 0 1 0 I I #
straight-curve $-1 0 31.616161090430861 15.719504734549165 -1 0 0 I I #
straight-curve $-1 0 31.616161090430861 -15.719504734549165 1 0 0 I I #
straight-curve $-1 -47.252418591875973 -2.1682355799793847 31.356790477748028 0 0 -1 I I #
point $-1 -47.252418591875973 -2.1682355799793847 15.719504734549165 #
straight-curve $-1 -47.252418591875973 -2.6089515975984998 7.1650324530872034 0 -1 0 I I #
point $-1 -47.252418591875973 -2.1682355799793847 7.1650324530872043 #
point $-1 -42.568924192338557 -6.5249036017188367 10.297309870964545 #
point $-1 -42.568924192338557 -3.9109027886751662 10.297309870964545 #
straight-curve $-1 -47.252418591875973 10.96331925946826 31.356790477748028 0 0 -1 I I #
point $-1 -47.252418591875973 10.96331925946826 15.719504734549165 #
straight-curve $-1 -47.252418591875973 3.9568258221253227 7.1650324530872034 0 -1 0 I I #
point $-1 -47.252418591875973 10.96331925946826 7.1650324530872043 #
point $-1 -42.568924192338557 6.6066512377288085 10.297309870964545 #
point $-1 -42.568924192338557 9.2206520507724825 10.297309870964545 #
straight-curve $-1 47.252418591875973 -10.307689742746156 69.00625607120017 0 0 -1 I I #
point $-1 47.252418591875973 -10.307689742746156 15.719504734549165 #
straight-curve $-1 47.252418591875973 -3.5636480332041174 5.6631627726779072 0 1 0 I I #
point $-1 47.25241859187598 -10.307689742746156 5.663162772677893 #
point $-1 42.177772164959258 -9.0355322722109861 9.722528578496421 #
point $-1 42.177772164959258 -7.1272960664082348 9.722528578496421 #
point $-1 42.177772164959258 -5.2190598606054834 9.722528578496421 #
straight-curve $-1 47.252418591875973 2.8238650967014927 69.00625607120017 0 0 -1 I I #
point $-1 47.252418591875973 2.8238650967014927 15.719504734549165 #
straight-curve $-1 47.252418591875973 3.002129386519707 5.6631627726779072 0 1 0 I I #
point $-1 47.25241859187598 2.8238650967014927 5.663162772677893 #
point $-1 42.177772164959258 4.0960225672366626 9.722528578496421 #
point $-1 42.177772164959258 6.0042587730394139 9.722528578496421 #
point $-1 42.177772164959258 7.9124949788421652 9.722528578496421 #
point $-1 -15.813409122777642 31.616161090430857 -15.719504734549165 #
straight-curve $-1 -15.813409122777642 31.616161090430861 0 0 0 -1 I I #
point $-1 -15.813409122777642 31.616161090430857 15.719504734549165 #
End-of-ACIS-data 