500 0 8 0           
7 Unknown 11 ACIS 5.0 NT 24 Thu Mar 25 16:28:45 1999 
-1 9.9999999999999995e-007 1e-010 
body $-1 $8 $-1 $9 #
body $-1 $10 $-1 $11 #
body $-1 $12 $-1 $13 #
body $-1 $14 $-1 $15 #
body $-1 $16 $-1 $17 #
body $-1 $18 $-1 $19 #
body $-1 $20 $-1 $21 #
body $-1 $22 $-1 $23 #
lump $-1 $-1 $24 $0 #
transform $-1 1 0 0 0 1 0 0 0 1 67.744987334818575 35.617650191025135 12.715806564520131 1 rotate no_reflect no_shear #
lump $-1 $-1 $25 $1 #
transform $-1 1 0 0 0 1 0 0 0 1 67.744987334818575 35.617650191025135 12.715806564520131 1 rotate no_reflect no_shear #
lump $-1 $-1 $26 $2 #
transform $-1 1 0 0 0 1 0 0 0 1 67.744987334818575 35.617650191025135 12.715806564520131 1 rotate no_reflect no_shear #
lump $-1 $-1 $27 $3 #
transform $-1 1 0 0 0 1 0 0 0 1 67.744987334818575 35.617650191025135 12.715806564520131 1 rotate no_reflect no_shear #
lump $-1 $-1 $28 $4 #
transform $-1 1 0 0 0 1 0 0 0 1 67.744987334818575 35.617650191025135 12.715806564520131 1 rotate no_reflect no_shear #
lump $-1 $-1 $29 $5 #
transform $-1 1 0 0 0 1 0 0 0 1 67.744987334818575 35.617650191025135 12.715806564520131 1 rotate no_reflect no_shear #
lump $-1 $-1 $30 $6 #
transform $-1 1 0 0 0 1 0 0 0 1 67.744987334818575 35.617650191025135 12.715806564520131 1 rotate no_reflect no_shear #
lump $-1 $-1 $31 $7 #
transform $-1 1 0 0 0 1 0 0 0 1 67.744987334818575 35.617650191025135 12.715806564520131 1 rotate no_reflect no_shear #
shell $-1 $-1 $-1 $32 $-1 $8 #
shell $-1 $-1 $-1 $33 $-1 $10 #
shell $-1 $-1 $-1 $34 $-1 $12 #
shell $-1 $-1 $-1 $35 $-1 $14 #
shell $-1 $-1 $-1 $36 $-1 $16 #
shell $-1 $-1 $-1 $37 $-1 $18 #
shell $-1 $-1 $-1 $38 $-1 $20 #
shell $-1 $-1 $-1 $39 $-1 $22 #
face $-1 $40 $41 $24 $-1 $42 forward single #
face $-1 $43 $44 $25 $-1 $45 forward single #
face $-1 $46 $47 $26 $-1 $48 reversed single #
face $-1 $49 $50 $27 $-1 $51 forward single #
face $-1 $52 $53 $28 $-1 $54 forward single #
face $-1 $55 $56 $29 $-1 $57 forward single #
face $-1 $58 $59 $30 $-1 $60 reversed single #
face $-1 $61 $62 $31 $-1 $63 forward single #
face $-1 $64 $65 $24 $-1 $66 reversed single #
loop $-1 $-1 $67 $32 #
plane-surface $-1 0 0 12.715806564520131 0 0 1 1 0 0 forward_v I I I I #
face $-1 $68 $69 $25 $-1 $70 reversed single #
loop $-1 $-1 $71 $33 #
plane-surface $-1 0 -27.622082810965356 -8.9035094201818374 0 0 1 1 0 0 forward_v I I I I #
face $-1 $72 $73 $26 $-1 $74 reversed single #
loop $-1 $-1 $75 $34 #
plane-surface $-1 -185.08274840485404 14.884628762401416 70.269784643619161 0 1 0 -0.86602541151947299 0 0.49999998660252726 forward_v I I I I #
face $-1 $76 $77 $27 $-1 $78 forward single #
loop $-1 $79 $80 $35 #
cone-surface $-1 -63.470545885706088 17.569343153645292 6.8509541298788559 0.86602541151947299 0 -0.49999998660252726 0.49999998660252726 0 0.86602541151947299 1 I I 0 1 1 forward I I I I #
face $-1 $81 $82 $28 $-1 $83 forward single #
loop $-1 $84 $85 $36 #
cone-surface $-1 -63.470545885706088 21.596414740511115 6.8509541298788559 0.86602541151947299 0 -0.49999998660252726 0.49999998660252726 0 0.86602541151947299 1 I I 0 1 1 forward I I I I #
face $-1 $86 $87 $29 $-1 $88 forward single #
loop $-1 $89 $90 $37 #
cone-surface $-1 -63.470545885706088 25.623486327376938 6.8509541298788559 0.86602541151947299 0 -0.49999998660252726 0.49999998660252726 0 0.86602541151947299 1 I I 0 1 1 forward I I I I #
face $-1 $91 $92 $30 $-1 $93 reversed single #
loop $-1 $-1 $94 $38 #
plane-surface $-1 74.432143632722443 -9.0328455026807859 200.74413173478482 0 -1 0 -0.73135370988377701 0 -0.68199835119979291 forward_v I I I I #
face $-1 $95 $96 $31 $-1 $97 forward single #
loop $-1 $98 $99 $39 #
cone-surface $-1 65.762930932154703 -14.329680466793182 10.641452496306437 -0.73135370988377701 0 -0.68199835119979291 0.17049958779994823 0 -0.18283842747094425 1 I I 0 1 0.25 forward I I I I #
face $-1 $100 $101 $24 $-1 $102 reversed single #
loop $-1 $-1 $103 $40 #
plane-surface $-1 0 0 -12.715806564520131 0 0 1 1 0 0 forward_v I I I I #
coedge $-1 $104 $105 $106 $107 forward $41 $-1 #
face $-1 $108 $109 $25 $-1 $110 reversed single #
loop $-1 $-1 $111 $43 #
plane-surface $-1 0 -19.626515430905577 -10.809657992350985 0 -1 0 0 0 -1 forward_v I I I I #
coedge $-1 $112 $113 $114 $115 reversed $44 $-1 #
face $-1 $116 $117 $26 $-1 $118 reversed single #
loop $-1 $-1 $119 $46 #
plane-surface $-1 -67.74498733481856 21.596414740511122 2.5247991240238292 -0.86602541151947299 0 0.49999998660252726 0.49999998660252726 0 0.86602541151947299 forward_v I I I I #
coedge $-1 $120 $121 $122 $123 reversed $47 $-1 #
face $-1 $-1 $124 $27 $-1 $125 forward single #
loop $-1 $126 $127 $49 #
cone-surface $-1 -61.704982070272152 17.569343153645292 5.8316054221844684 0.86602541151947299 0 -0.49999998660252726 0.24999999330126363 0 0.43301270575973649 1 I I -0.70710678118654746 0.70710678118654746 0.5 forward I I I I #
loop $-1 $-1 $128 $35 #
coedge $-1 $80 $80 $129 $130 reversed $50 $-1 #
face $-1 $-1 $131 $28 $-1 $132 forward single #
loop $-1 $133 $134 $52 #
cone-surface $-1 -61.704982070272152 21.596414740511115 5.8316054221844684 0.86602541151947299 0 -0.49999998660252726 0.24999999330126363 0 0.43301270575973649 1 I I -0.70710678118654746 0.70710678118654746 0.5 forward I I I I #
loop $-1 $-1 $135 $36 #
coedge $-1 $85 $85 $136 $137 reversed $53 $-1 #
face $-1 $-1 $138 $29 $-1 $139 forward single #
loop $-1 $140 $141 $55 #
cone-surface $-1 -61.704982070272152 25.623486327376938 5.8316054221844684 0.86602541151947299 0 -0.49999998660252726 0.24999999330126363 0 0.43301270575973649 1 I I -0.70710678118654746 0.70710678118654746 0.5 forward I I I I #
loop $-1 $-1 $142 $37 #
coedge $-1 $90 $90 $143 $144 reversed $56 $-1 #
face $-1 $145 $146 $30 $-1 $147 reversed single #
loop $-1 $-1 $148 $58 #
plane-surface $-1 -24.658951993975663 -14.329680466793182 108.34019240599058 0.73135370988377701 0 0.68199835119979291 0.68199835119979291 0 -0.73135370988377701 forward_v I I I I #
coedge $-1 $149 $150 $151 $152 reversed $59 $-1 #
face $-1 $-1 $153 $31 $-1 $154 forward single #
loop $-1 $155 $156 $61 #
cone-surface $-1 65.305834863477344 -14.329680466793182 10.215203526806567 -0.73135370988377701 0 -0.68199835119979291 0.085249793899974113 0 -0.091419213735472127 1 I I -0.70710678118654746 0.70710678118654746 0.125 forward I I I I #
loop $-1 $-1 $157 $39 #
coedge $-1 $99 $99 $158 $159 reversed $62 $-1 #
face $-1 $160 $161 $24 $-1 $162 reversed single #
loop $-1 $-1 $163 $64 #
plane-surface $-1 0 -35.617650191025135 0 0 1 0 0 0 1 forward_v I I I I #
coedge $-1 $164 $165 $166 $167 forward $65 $-1 #
coedge $-1 $168 $67 $169 $170 forward $41 $-1 #
coedge $-1 $67 $168 $171 $172 forward $41 $-1 #
coedge $-1 $173 $174 $67 $107 reversed $175 $-1 #
edge $-1 $176 -35.617650191025135 $177 35.617650191025135 $106 $178 forward 7 unknown #
face $-1 $179 $180 $25 $-1 $181 reversed single #
loop $-1 $-1 $182 $68 #
plane-surface $-1 0 0 -12.715806564520131 0 0 1 1 0 0 forward_v I I I I #
coedge $-1 $183 $184 $185 $186 reversed $69 $-1 #
coedge $-1 $187 $71 $184 $188 forward $44 $-1 #
coedge $-1 $71 $187 $189 $190 reversed $44 $-1 #
coedge $-1 $191 $185 $71 $115 forward $180 $-1 #
edge $-1 $192 5.8154740254228994 $193 21.806608785542458 $114 $194 forward 7 unknown #
face $-1 $195 $196 $26 $-1 $197 forward single #
loop $-1 $-1 $198 $72 #
plane-surface $-1 -185.08274840485404 28.308200718620828 70.269784643619161 0 -1 0 0.86602541151947299 0 -0.49999998660252726 forward_v I I I I #
coedge $-1 $199 $200 $201 $202 reversed $73 $-1 #
coedge $-1 $121 $75 $203 $204 reversed $47 $-1 #
coedge $-1 $75 $120 $199 $205 reversed $47 $-1 #
coedge $-1 $201 $206 $75 $123 forward $196 $-1 #
edge $-1 $207 24.796386867608447 $208 30.680167546485031 $122 $209 forward 7 unknown #
loop $-1 $-1 $129 $76 #
plane-surface $-1 -67.74498733481856 21.596414740511122 2.5247991240238292 -0.86602541151947299 0 0.49999998660252726 0.49999998660252726 0 0.86602541151947299 forward_v I I I I #
loop $-1 $-1 $210 $49 #
coedge $-1 $127 $127 $128 $211 reversed $77 $-1 #
coedge $-1 $128 $128 $127 $211 forward $79 $-1 #
coedge $-1 $129 $129 $80 $130 forward $124 $-1 #
edge $-1 $212 0 $212 6.2831853071796004 $129 $213 forward 7 unknown #
loop $-1 $-1 $136 $81 #
plane-surface $-1 -67.74498733481856 21.596414740511122 2.5247991240238292 -0.86602541151947299 0 0.49999998660252726 0.49999998660252726 0 0.86602541151947299 forward_v I I I I #
loop $-1 $-1 $214 $52 #
coedge $-1 $134 $134 $135 $215 reversed $82 $-1 #
coedge $-1 $135 $135 $134 $215 forward $84 $-1 #
coedge $-1 $136 $136 $85 $137 forward $131 $-1 #
edge $-1 $216 0 $216 6.2831853071796004 $136 $217 forward 7 unknown #
loop $-1 $-1 $143 $86 #
plane-surface $-1 -67.74498733481856 21.596414740511122 2.5247991240238292 -0.86602541151947299 0 0.49999998660252726 0.49999998660252726 0 0.86602541151947299 forward_v I I I I #
loop $-1 $-1 $218 $55 #
coedge $-1 $141 $141 $142 $219 reversed $87 $-1 #
coedge $-1 $142 $142 $141 $219 forward $89 $-1 #
coedge $-1 $143 $143 $90 $144 forward $138 $-1 #
edge $-1 $220 0 $220 6.2831853071796004 $143 $221 forward 7 unknown #
face $-1 $222 $223 $30 $-1 $224 reversed single #
loop $-1 $-1 $225 $91 #
plane-surface $-1 74.432143632722443 -19.626515430905577 200.74413173478482 0 1 0 0.73135370988377701 0 0.68199835119979291 forward_v I I I I #
coedge $-1 $226 $227 $228 $229 reversed $92 $-1 #
coedge $-1 $150 $94 $230 $231 reversed $59 $-1 #
coedge $-1 $94 $149 $226 $232 reversed $59 $-1 #
coedge $-1 $228 $233 $94 $152 forward $234 $-1 #
edge $-1 $235 -30.528915518457353 $236 -27.296156423013414 $151 $237 forward 7 unknown #
loop $-1 $-1 $158 $95 #
plane-surface $-1 -24.658951993975663 -14.329680466793182 108.34019240599058 0.73135370988377701 0 0.68199835119979291 0.68199835119979291 0 -0.73135370988377701 forward_v I I I I #
loop $-1 $-1 $238 $61 #
coedge $-1 $156 $156 $157 $239 reversed $96 $-1 #
coedge $-1 $157 $157 $156 $239 forward $98 $-1 #
coedge $-1 $158 $158 $99 $159 forward $153 $-1 #
edge $-1 $240 0 $240 6.2831853071796004 $158 $241 forward 7 unknown #
face $-1 $242 $243 $24 $-1 $244 reversed single #
loop $-1 $-1 $245 $100 #
plane-surface $-1 -67.744987334818575 0 0 1 0 0 0 0 -1 forward_v I I I I #
coedge $-1 $246 $171 $247 $248 forward $101 $-1 #
coedge $-1 $249 $103 $246 $250 forward $65 $-1 #
coedge $-1 $103 $249 $251 $252 forward $65 $-1 #
coedge $-1 $174 $173 $103 $167 reversed $175 $-1 #
edge $-1 $253 -35.617650191025135 $254 35.617650191025135 $166 $255 forward 7 unknown #
coedge $-1 $105 $104 $256 $257 forward $41 $-1 #
coedge $-1 $258 $259 $104 $170 reversed $243 $-1 #
edge $-1 $177 -67.744987334818575 $260 67.744987334818575 $169 $261 forward 7 unknown #
coedge $-1 $163 $262 $105 $172 reversed $101 $-1 #
edge $-1 $263 -67.744987334818575 $176 67.744987334818575 $171 $264 forward 7 unknown #
coedge $-1 $166 $106 $262 $265 forward $175 $-1 #
coedge $-1 $106 $166 $258 $266 reversed $175 $-1 #
loop $-1 $-1 $173 $242 #
vertex $-1 $107 $267 #
vertex $-1 $107 $268 #
straight-curve $-1 67.744987334818575 0 12.715806564520131 0 1 0 I I #
face $-1 $269 $270 $25 $-1 $271 reversed single #
loop $-1 $-1 $185 $108 #
plane-surface $-1 67.744987334818575 0 0 -1 0 0 0 0 1 forward_v I I I I #
coedge $-1 $272 $273 $183 $274 forward $109 $-1 #
coedge $-1 $275 $111 $182 $274 reversed $69 $-1 #
coedge $-1 $111 $275 $112 $188 reversed $69 $-1 #
coedge $-1 $114 $276 $111 $186 forward $180 $-1 #
edge $-1 $277 -7.3109775683446401 $192 -3.4986804240063449 $185 $278 forward 7 unknown #
coedge $-1 $113 $112 $279 $280 reversed $44 $-1 #
edge $-1 $192 -67.744987334818575 $281 67.744987334818575 $184 $282 forward 7 unknown #
coedge $-1 $283 $284 $113 $190 forward $270 $-1 #
edge $-1 $193 -67.744987334818575 $285 67.744987334818575 $189 $286 forward 7 unknown #
coedge $-1 $276 $114 $284 $287 forward $180 $-1 #
vertex $-1 $115 $288 #
vertex $-1 $287 $289 #
straight-curve $-1 67.744987334818575 -13.811041405482678 -8.9035094201818374 0 -1 0 I I #
face $-1 $-1 $290 $26 $-1 $291 reversed single #
loop $-1 $-1 $122 $116 #
plane-surface $-1 0 0 12.715806564520131 0 0 1 1 0 0 forward_v I I I I #
coedge $-1 $292 $293 $294 $295 reversed $117 $-1 #
coedge $-1 $296 $119 $121 $205 forward $73 $-1 #
coedge $-1 $119 $296 $292 $297 forward $73 $-1 #
coedge $-1 $294 $122 $119 $202 forward $196 $-1 #
edge $-1 $208 4.086421392145855 $298 17.509993348365267 $201 $299 forward 7 unknown #
coedge $-1 $300 $301 $120 $204 forward $290 $-1 #
edge $-1 $302 -32.610093197785773 $207 -22.419085757289452 $203 $303 forward 7 unknown #
edge $-1 $208 -11.767561673064314 $302 2.8258016906358157e-014 $121 $304 forward 7 unknown #
coedge $-1 $122 $294 $300 $305 forward $196 $-1 #
vertex $-1 $204 $306 #
vertex $-1 $123 $307 #
straight-curve $-1 -92.541374202427022 14.884628762401416 12.715806564520129 1 0 0 I I #
coedge $-1 $210 $210 $-1 $308 reversed $126 $-1 #
edge $-1 $309 0 $309 6.2831853071796004 $127 $310 forward 7 unknown #
vertex $-1 $130 $311 #
ellipse-curve $-1 -64.803096995380272 17.569343153645292 7.6203028442719747 -0.86602541151947299 0 0.49999998660252726 0.49999998660252726 0 0.86602541151947299 1 I I #
coedge $-1 $214 $214 $-1 $312 reversed $133 $-1 #
edge $-1 $313 0 $313 6.2831853071796004 $134 $314 forward 7 unknown #
vertex $-1 $137 $315 #
ellipse-curve $-1 -64.803096995380272 21.596414740511115 7.6203028442719747 -0.86602541151947299 0 0.49999998660252726 0.49999998660252726 0 0.86602541151947299 1 I I #
coedge $-1 $218 $218 $-1 $316 reversed $140 $-1 #
edge $-1 $317 0 $317 6.2831853071796004 $141 $318 forward 7 unknown #
vertex $-1 $144 $319 #
ellipse-curve $-1 -64.803096995380272 25.623486327376938 7.6203028442719747 -0.86602541151947299 0 0.49999998660252726 0.49999998660252726 0 0.86602541151947299 1 I I #
face $-1 $-1 $234 $30 $-1 $320 forward single #
loop $-1 $-1 $321 $145 #
plane-surface $-1 67.744987334818575 0 0 -1 0 0 0 0 1 forward_v I I I I #
coedge $-1 $322 $323 $324 $325 reversed $146 $-1 #
coedge $-1 $326 $148 $150 $232 forward $92 $-1 #
coedge $-1 $148 $326 $322 $327 forward $92 $-1 #
coedge $-1 $324 $151 $148 $229 forward $234 $-1 #
edge $-1 $236 1.8680052692841951 $328 12.461675197508987 $228 $329 forward 7 unknown #
coedge $-1 $330 $331 $149 $231 forward $223 $-1 #
edge $-1 $332 -91.122969088099936 $235 -87.656259302872272 $230 $333 forward 7 unknown #
edge $-1 $236 130.74984723420161 $332 135.48997466963715 $150 $334 forward 7 unknown #
coedge $-1 $151 $324 $330 $335 forward $234 $-1 #
loop $-1 $-1 $324 $222 #
vertex $-1 $231 $336 #
vertex $-1 $152 $337 #
straight-curve $-1 37.216071816361222 -9.0328455026807859 12.715806564520136 -1 0 0 I I #
coedge $-1 $238 $238 $-1 $338 reversed $155 $-1 #
edge $-1 $339 0 $339 6.2831853071796004 $156 $340 forward 7 unknown #
vertex $-1 $159 $341 #
ellipse-curve $-1 66.128607787096584 -14.329680466793182 10.982451671906324 0.73135370988377701 0 0.68199835119979291 0.17049958779994823 0 -0.18283842747094425 1 I I #
face $-1 $-1 $175 $24 $-1 $342 reversed single #
loop $-1 $-1 $258 $160 #
plane-surface $-1 0 35.617650191025135 0 0 -1 0 0 0 -1 forward_v I I I I #
coedge $-1 $343 $256 $259 $344 forward $161 $-1 #
coedge $-1 $262 $163 $164 $250 reversed $101 $-1 #
coedge $-1 $256 $343 $163 $248 reversed $161 $-1 #
edge $-1 $263 -12.715806564520131 $345 12.715806564520131 $247 $346 forward 7 unknown #
coedge $-1 $165 $164 $343 $347 forward $65 $-1 #
edge $-1 $254 -67.744987334818575 $345 67.744987334818575 $246 $348 forward 7 unknown #
coedge $-1 $259 $258 $165 $252 reversed $243 $-1 #
edge $-1 $349 -67.744987334818575 $253 67.744987334818575 $251 $350 forward 7 unknown #
vertex $-1 $167 $351 #
vertex $-1 $265 $352 #
straight-curve $-1 67.744987334818575 0 -12.715806564520131 0 -1 0 I I #
coedge $-1 $245 $247 $168 $257 reversed $161 $-1 #
edge $-1 $260 -35.617650191025135 $263 35.617650191025135 $256 $353 forward 7 unknown #
coedge $-1 $251 $169 $174 $266 forward $243 $-1 #
coedge $-1 $169 $251 $245 $344 reversed $243 $-1 #
vertex $-1 $170 $354 #
straight-curve $-1 0 35.617650191025135 12.715806564520131 -1 0 0 I I #
coedge $-1 $171 $246 $173 $265 reversed $101 $-1 #
vertex $-1 $257 $355 #
straight-curve $-1 0 -35.617650191025135 12.715806564520131 1 0 0 I I #
edge $-1 $176 -12.715806564520131 $254 12.715806564520131 $173 $356 forward 7 unknown #
edge $-1 $177 -12.715806564520131 $253 12.715806564520131 $174 $357 forward 7 unknown #
point $-1 67.744987334818575 -35.617650191025135 12.715806564520131 #
point $-1 67.744987334818575 35.617650191025135 12.715806564520131 #
face $-1 $-1 $358 $25 $-1 $359 reversed single #
loop $-1 $-1 $189 $179 #
plane-surface $-1 0 -35.617650191025135 0 0 1 0 0 0 1 forward_v I I I I #
coedge $-1 $360 $182 $276 $361 forward $109 $-1 #
coedge $-1 $182 $360 $362 $363 forward $109 $-1 #
edge $-1 $364 -67.744987334818575 $277 67.744987334818575 $182 $365 forward 7 unknown #
coedge $-1 $184 $183 $366 $367 reversed $69 $-1 #
coedge $-1 $185 $191 $272 $361 reversed $180 $-1 #
vertex $-1 $361 $368 #
straight-curve $-1 67.744987334818575 -19.626515430905577 -5.4048289961754925 0 0 1 I I #
coedge $-1 $366 $369 $187 $280 forward $358 $-1 #
edge $-1 $285 -21.806608785542458 $281 -5.8154740254228994 $279 $370 forward 7 unknown #
vertex $-1 $280 $371 #
straight-curve $-1 0 -19.626515430905577 -8.9035094201818374 -1 0 0 I I #
coedge $-1 $372 $189 $369 $373 forward $270 $-1 #
coedge $-1 $189 $372 $191 $287 reversed $270 $-1 #
vertex $-1 $373 $374 #
straight-curve $-1 0 -35.617650191025135 -8.9035094201818374 -1 0 0 I I #
edge $-1 $193 8.9035094201818374 $375 12.715806564520131 $191 $376 forward 7 unknown #
point $-1 67.744987334818575 -19.626515430905577 -8.9035094201818374 #
point $-1 67.744987334818575 -35.617650191025135 -8.9035094201818374 #
loop $-1 $-1 $203 $195 #
plane-surface $-1 -67.744987334818575 0 0 1 0 0 0 0 -1 forward_v I I I I #
coedge $-1 $293 $198 $200 $297 reversed $117 $-1 #
coedge $-1 $198 $292 $377 $378 reversed $117 $-1 #
coedge $-1 $206 $201 $198 $295 forward $196 $-1 #
edge $-1 $298 -30.680167546485031 $379 -24.796386867608447 $294 $380 forward 7 unknown #
coedge $-1 $200 $199 $301 $381 reversed $73 $-1 #
edge $-1 $382 -2.8258016906358157e-014 $298 11.767561673064314 $292 $383 forward 7 unknown #
vertex $-1 $202 $384 #
straight-curve $-1 -61.861206655941992 10.798207370255561 12.715806564520131 0 1 0 I I #
coedge $-1 $377 $203 $206 $305 reversed $290 $-1 #
coedge $-1 $203 $377 $296 $381 forward $290 $-1 #
vertex $-1 $204 $385 #
straight-curve $-1 -67.744987334818575 14.884628762401416 35.134892321809581 0 0 1 I I #
straight-curve $-1 -67.74498733481856 14.884628762401416 2.5247991240238292 -0.49999998660252726 0 -0.86602541151947299 I I #
edge $-1 $379 -28.308200718620828 $207 -14.884628762401416 $300 $386 forward 7 unknown #
point $-1 -67.744987334818575 14.884628762401416 12.715806564520131 #
point $-1 -61.861206655941992 14.884628762401416 12.715806564520131 #
edge $-1 $387 1 $387 0 $210 $-1 forward 7 unknown #
vertex $-1 $211 $388 #
ellipse-curve $-1 -62.137994776031888 17.569343153645292 6.0816054154857317 -0.86602541151947299 0 0.49999998660252726 0.49999998660252726 0 0.86602541151947299 1 I I #
point $-1 -64.303097008777769 17.569343153645292 8.4863282557914541 #
edge $-1 $389 1 $389 0 $214 $-1 forward 7 unknown #
vertex $-1 $215 $390 #
ellipse-curve $-1 -62.137994776031888 21.596414740511115 6.0816054154857317 -0.86602541151947299 0 0.49999998660252726 0.49999998660252726 0 0.86602541151947299 1 I I #
point $-1 -64.303097008777769 21.596414740511115 8.4863282557914541 #
edge $-1 $391 1 $391 0 $218 $-1 forward 7 unknown #
vertex $-1 $219 $392 #
ellipse-curve $-1 -62.137994776031888 25.623486327376938 6.0816054154857317 -0.86602541151947299 0 0.49999998660252726 0.49999998660252726 0 0.86602541151947299 1 I I #
point $-1 -64.303097008777769 25.623486327376938 8.4863282557914541 #
plane-surface $-1 0 0 12.715806564520131 0 0 1 1 0 0 forward_v I I I I #
coedge $-1 $331 $330 $323 $393 forward $223 $-1 #
coedge $-1 $323 $225 $227 $327 reversed $146 $-1 #
coedge $-1 $225 $322 $321 $393 reversed $146 $-1 #
coedge $-1 $233 $228 $225 $325 forward $234 $-1 #
edge $-1 $328 27.296156423013414 $394 30.528915518457353 $324 $395 forward 7 unknown #
coedge $-1 $227 $226 $331 $396 reversed $92 $-1 #
edge $-1 $397 -135.48997466963715 $328 -130.74984723420161 $322 $398 forward 7 unknown #
vertex $-1 $229 $399 #
straight-curve $-1 64.51222823937465 -7.1648402333965908 12.715806564520129 0 -1 0 I I #
coedge $-1 $321 $230 $233 $335 reversed $223 $-1 #
coedge $-1 $230 $321 $326 $396 forward $223 $-1 #
vertex $-1 $231 $400 #
straight-curve $-1 67.744987334818575 -9.0328455026807859 100.37206586739241 0 0 1 I I #
straight-curve $-1 -24.658951993975663 -9.0328455026807859 108.34019240599058 0.68199835119979291 0 -0.73135370988377701 I I #
edge $-1 $394 -19.626515430905577 $235 -9.0328455026807859 $330 $401 forward 7 unknown #
point $-1 67.744987334818575 -9.0328455026807859 12.715806564520131 #
point $-1 64.512228239374636 -9.0328455026807859 12.715806564520136 #
edge $-1 $402 1 $402 0 $238 $-1 forward 7 unknown #
vertex $-1 $239 $403 #
ellipse-curve $-1 65.397254077212821 -14.329680466793182 10.300453320706541 0.73135370988377701 0 0.68199835119979291 0.17049958779994823 0 -0.18283842747094425 1 I I #
point $-1 66.299107374896536 -14.329680466793182 10.79961324443539 #
plane-surface $-1 67.744987334818575 0 0 -1 0 0 0 0 1 forward_v I I I I #
coedge $-1 $247 $245 $249 $347 reversed $161 $-1 #
edge $-1 $260 -12.715806564520131 $349 12.715806564520131 $259 $404 forward 7 unknown #
vertex $-1 $347 $405 #
straight-curve $-1 -67.744987334818575 -35.617650191025135 0 0 0 -1 I I #
edge $-1 $345 -35.617650191025135 $349 35.617650191025135 $343 $406 forward 7 unknown #
straight-curve $-1 0 -35.617650191025135 -12.715806564520131 -1 0 0 I I #
vertex $-1 $252 $407 #
straight-curve $-1 0 35.617650191025135 -12.715806564520131 1 0 0 I I #
point $-1 67.744987334818575 35.617650191025135 -12.715806564520131 #
point $-1 67.744987334818575 -35.617650191025135 -12.715806564520131 #
straight-curve $-1 -67.744987334818575 0 12.715806564520131 0 -1 0 I I #
point $-1 -67.744987334818575 35.617650191025135 12.715806564520131 #
point $-1 -67.744987334818575 -35.617650191025135 12.715806564520131 #
straight-curve $-1 67.744987334818575 -35.617650191025135 0 0 0 -1 I I #
straight-curve $-1 67.744987334818575 35.617650191025135 0 0 0 -1 I I #
loop $-1 $-1 $366 $269 #
plane-surface $-1 -67.744987334818575 0 0 1 0 0 0 0 -1 forward_v I I I I #
coedge $-1 $273 $272 $372 $408 forward $109 $-1 #
edge $-1 $277 19.626515430905577 $375 35.617650191025135 $276 $409 forward 7 unknown #
coedge $-1 $369 $366 $273 $363 reversed $358 $-1 #
edge $-1 $410 -35.617650191025135 $364 -19.626515430905577 $362 $411 forward 7 unknown #
vertex $-1 $367 $412 #
straight-curve $-1 0 -19.626515430905577 -12.715806564520131 1 0 0 I I #
coedge $-1 $362 $279 $275 $367 forward $358 $-1 #
edge $-1 $281 3.4986804240063449 $364 7.3109775683446401 $366 $413 forward 7 unknown #
point $-1 67.744987334818575 -19.626515430905577 -12.715806564520133 #
coedge $-1 $279 $362 $283 $373 reversed $358 $-1 #
straight-curve $-1 -67.744987334818575 -13.811041405482678 -8.9035094201818374 0 1 0 I I #
point $-1 -67.744987334818575 -19.626515430905577 -8.9035094201818374 #
coedge $-1 $284 $283 $360 $408 reversed $270 $-1 #
edge $-1 $285 8.9035094201818374 $410 12.715806564520131 $369 $414 forward 7 unknown #
point $-1 -67.744987334818575 -35.617650191025135 -8.9035094201818374 #
vertex $-1 $287 $415 #
straight-curve $-1 67.744987334818575 -35.617650191025135 0 0 0 -1 I I #
coedge $-1 $301 $300 $293 $378 forward $290 $-1 #
edge $-1 $379 22.419085757289452 $382 32.610093197785773 $377 $416 forward 7 unknown #
vertex $-1 $305 $417 #
straight-curve $-1 -92.541374202427022 28.308200718620828 12.715806564520129 -1 0 0 I I #
edge $-1 $382 -17.509993348365267 $302 -4.086421392145855 $301 $418 forward 7 unknown #
vertex $-1 $381 $419 #
straight-curve $-1 -67.74498733481856 28.308200718620828 2.5247991240238292 0.49999998660252726 0 0.86602541151947299 I I #
point $-1 -61.861206655941992 28.308200718620828 12.715806564520131 #
point $-1 -67.744987334818575 14.884628762401416 2.5247991240238048 #
straight-curve $-1 -67.744987334818575 0 12.715806564520131 0 -1 0 I I #
vertex $-1 $308 $420 #
point $-1 -61.637994789429364 17.569343153645292 6.947630827005205 #
vertex $-1 $312 $421 #
point $-1 -61.637994789429364 21.596414740511115 6.947630827005205 #
vertex $-1 $316 $422 #
point $-1 -61.637994789429364 25.623486327376938 6.947630827005205 #
edge $-1 $394 87.656259302872272 $397 91.122969088099936 $321 $423 forward 7 unknown #
vertex $-1 $335 $424 #
straight-curve $-1 37.216071816361222 -19.626515430905577 12.715806564520136 1 0 0 I I #
edge $-1 $397 -12.461675197508987 $332 -1.8680052692841951 $331 $425 forward 7 unknown #
vertex $-1 $396 $426 #
straight-curve $-1 -24.658951993975663 -19.626515430905577 108.34019240599058 -0.68199835119979291 0 0.73135370988377701 I I #
point $-1 64.512228239374636 -19.626515430905577 12.715806564520136 #
point $-1 67.744987334818575 -9.0328455026807859 9.2490967792924721 #
straight-curve $-1 67.744987334818575 0 12.715806564520131 0 1 0 I I #
vertex $-1 $338 $427 #
point $-1 65.567753665012759 -14.329680466793182 10.117614893235597 #
straight-curve $-1 -67.744987334818575 35.617650191025135 0 0 0 -1 I I #
point $-1 -67.744987334818575 -35.617650191025135 -12.715806564520131 #
straight-curve $-1 -67.744987334818575 0 -12.715806564520131 0 1 0 I I #
point $-1 -67.744987334818575 35.617650191025135 -12.715806564520131 #
edge $-1 $375 -67.744987334818575 $410 67.744987334818575 $372 $428 forward 7 unknown #
straight-curve $-1 67.744987334818575 0 -12.715806564520131 0 -1 0 I I #
vertex $-1 $363 $429 #
straight-curve $-1 -67.744987334818575 0 -12.715806564520131 0 1 0 I I #
point $-1 -67.744987334818575 -19.626515430905577 -12.715806564520133 #
straight-curve $-1 -67.744987334818575 -19.626515430905577 -5.4048289961754925 0 0 -1 I I #
straight-curve $-1 -67.744987334818575 -35.617650191025135 0 0 0 -1 I I #
point $-1 67.744987334818575 -35.617650191025135 -12.715806564520131 #
straight-curve $-1 -67.744987334818575 28.308200718620828 35.134892321809581 0 0 -1 I I #
point $-1 -67.744987334818575 28.308200718620828 12.715806564520131 #
straight-curve $-1 -67.744987334818575 10.798207370255561 2.5247991240238203 0 -1 0 I I #
point $-1 -67.744987334818575 28.308200718620828 2.5247991240238048 #
point $-1 -61.271969364512415 17.569343153645292 5.5816054288832051 #
point $-1 -61.271969364512415 21.596414740511115 5.5816054288832051 #
point $-1 -61.271969364512415 25.623486327376938 5.5816054288832051 #
straight-curve $-1 67.744987334818575 -19.626515430905577 100.37206586739241 0 0 -1 I I #
point $-1 67.744987334818575 -19.626515430905577 12.715806564520131 #
straight-curve $-1 67.74498733481856 -7.1648402333965908 9.2490967792924792 0 1 0 I I #
point $-1 67.744987334818575 -19.626515430905577 9.2490967792924721 #
point $-1 65.214415649741866 -14.329680466793182 10.129953732906593 #
straight-curve $-1 0 -35.617650191025135 -12.715806564520131 -1 0 0 I I #
point $-1 -67.744987334818575 -35.617650191025135 -12.715806564520131 #
End-of-ACIS-data 