500 0 7 0           
7 Unknown 11 ACIS 5.0 NT 24 Thu Mar 25 16:23:59 1999 
-1 9.9999999999999995e-007 1e-010 
body $-1 $7 $-1 $8 #
body $-1 $9 $-1 $10 #
body $-1 $11 $-1 $12 #
body $-1 $13 $-1 $14 #
body $-1 $15 $-1 $16 #
body $-1 $17 $-1 $18 #
body $-1 $19 $-1 $20 #
lump $-1 $-1 $21 $0 #
transform $-1 1 0 0 0 1 0 0 0 1 65.513473921933652 39.115744615274814 15.818317829601277 1 rotate no_reflect no_shear #
lump $-1 $-1 $22 $1 #
transform $-1 1 0 0 0 1 0 0 0 1 65.513473921933652 39.115744615274814 15.818317829601277 1 rotate no_reflect no_shear #
lump $-1 $-1 $23 $2 #
transform $-1 1 0 0 0 1 0 0 0 1 65.513473921933652 39.115744615274814 15.818317829601277 1 rotate no_reflect no_shear #
lump $-1 $-1 $24 $3 #
transform $-1 1 0 0 0 1 0 0 0 1 65.513473921933652 39.115744615274814 15.818317829601277 1 rotate no_reflect no_shear #
lump $-1 $-1 $25 $4 #
transform $-1 1 0 0 0 1 0 0 0 1 65.513473921933652 39.115744615274814 15.818317829601277 1 rotate no_reflect no_shear #
lump $-1 $-1 $26 $5 #
transform $-1 1 0 0 0 1 0 0 0 1 65.513473921933652 39.115744615274814 15.818317829601277 1 rotate no_reflect no_shear #
lump $-1 $-1 $27 $6 #
transform $-1 1 0 0 0 1 0 0 0 1 65.513473921933652 39.115744615274814 15.818317829601277 1 rotate no_reflect no_shear #
shell $-1 $-1 $-1 $28 $-1 $7 #
shell $-1 $-1 $-1 $29 $-1 $9 #
shell $-1 $-1 $-1 $30 $-1 $11 #
shell $-1 $-1 $-1 $31 $-1 $13 #
shell $-1 $-1 $-1 $32 $-1 $15 #
shell $-1 $-1 $-1 $33 $-1 $17 #
shell $-1 $-1 $-1 $34 $-1 $19 #
face $-1 $35 $36 $21 $-1 $37 forward single #
face $-1 $38 $39 $22 $-1 $40 forward single #
face $-1 $41 $42 $23 $-1 $43 reversed single #
face $-1 $44 $45 $24 $-1 $46 forward single #
face $-1 $47 $48 $25 $-1 $49 reversed single #
face $-1 $50 $51 $26 $-1 $52 forward single #
face $-1 $53 $54 $27 $-1 $55 forward single #
face $-1 $56 $57 $21 $-1 $58 reversed single #
loop $-1 $-1 $59 $28 #
plane-surface $-1 0 0 15.818317829601277 0 0 1 1 0 0 forward_v I I I I #
face $-1 $60 $61 $22 $-1 $62 reversed single #
loop $-1 $-1 $63 $29 #
plane-surface $-1 -65.513473921933652 0 0 1 0 0 0 0 -1 forward_v I I I I #
face $-1 $64 $65 $23 $-1 $66 reversed single #
loop $-1 $-1 $67 $30 #
plane-surface $-1 -25.088251144927671 -140.9428090584548 90.716857700182601 -1 0 0 0 -0.77714596973225614 0.62932038083071107 forward_v I I I I #
face $-1 $68 $69 $24 $-1 $70 forward single #
loop $-1 $71 $72 $31 #
cone-surface $-1 -39.014728585598448 -35.031676579554201 11.209945576306671 0 0.77714596973225614 -0.62932038083071107 2 0 0 1 I I 0 1 2 forward I I I I #
face $-1 $73 $74 $25 $-1 $75 reversed single #
loop $-1 $-1 $76 $32 #
plane-surface $-1 33.03641435933978 66.035103979842546 152.65322133146563 1 0 0 0 -0.6560590369687036 -0.75470957328743171 forward_v I I I I #
face $-1 $77 $78 $26 $-1 $79 forward single #
loop $-1 $80 $81 $33 #
cone-surface $-1 40.905987422773393 29.48696364919401 6.9043598263388528 0 -0.6560590369687036 -0.75470957328743171 2 0 0 1 I I 0 1 2 forward I I I I #
face $-1 $82 $83 $27 $-1 $84 forward single #
loop $-1 $85 $86 $34 #
cone-surface $-1 52.710347017923809 29.48696364919401 6.9043598263388528 0 -0.6560590369687036 -0.75470957328743171 2 0 0 1 I I 0 1 2 forward I I I I #
face $-1 $87 $88 $21 $-1 $89 reversed single #
loop $-1 $-1 $90 $35 #
plane-surface $-1 0 0 -15.818317829601277 0 0 1 1 0 0 forward_v I I I I #
coedge $-1 $91 $92 $93 $94 forward $36 $-1 #
face $-1 $95 $96 $22 $-1 $97 reversed single #
loop $-1 $-1 $98 $38 #
plane-surface $-1 0 0 -15.818317829601277 0 0 1 1 0 0 forward_v I I I I #
coedge $-1 $99 $100 $101 $102 forward $39 $-1 #
face $-1 $103 $104 $23 $-1 $105 reversed single #
loop $-1 $-1 $106 $41 #
plane-surface $-1 -39.014728585598448 -39.115744615274792 8.2589289839943092 0 -0.77714596973225614 0.62932038083071107 1 0 0 forward_v I I I I #
coedge $-1 $107 $108 $109 $110 reversed $42 $-1 #
face $-1 $-1 $111 $24 $-1 $112 forward single #
loop $-1 $113 $114 $44 #
cone-surface $-1 -39.014728585598448 -33.231198685750847 9.7519473649848365 0 0.77714596973225614 -0.62932038083071107 1 0 0 1 I I -0.70710678118654746 0.70710678118654746 1 forward I I I I #
loop $-1 $-1 $115 $31 #
coedge $-1 $72 $72 $116 $117 reversed $45 $-1 #
face $-1 $118 $119 $25 $-1 $120 reversed single #
loop $-1 $-1 $121 $47 #
plane-surface $-1 46.808167220348608 -19.926309239553589 53.765929435065971 0 0.6560590369687036 0.75470957328743171 1 0 0 forward_v I I I I #
coedge $-1 $122 $123 $124 $125 reversed $48 $-1 #
face $-1 $-1 $126 $26 $-1 $127 forward single #
loop $-1 $128 $129 $50 #
cone-surface $-1 40.905987422773393 26.896284279356841 3.9241241896675874 0 -0.6560590369687036 -0.75470957328743171 1 0 0 1 I I -0.70710678118654746 0.70710678118654746 1 forward I I I I #
loop $-1 $-1 $130 $33 #
coedge $-1 $81 $81 $131 $132 reversed $51 $-1 #
face $-1 $-1 $133 $27 $-1 $134 forward single #
loop $-1 $135 $136 $53 #
cone-surface $-1 52.710347017923809 26.896284279356841 3.9241241896675874 0 -0.6560590369687036 -0.75470957328743171 1 0 0 1 I I -0.70710678118654746 0.70710678118654746 1 forward I I I I #
loop $-1 $-1 $137 $34 #
coedge $-1 $86 $86 $138 $139 reversed $54 $-1 #
face $-1 $140 $141 $21 $-1 $142 reversed single #
loop $-1 $-1 $143 $56 #
plane-surface $-1 0 -39.115744615274814 0 0 1 0 0 0 1 forward_v I I I I #
coedge $-1 $144 $145 $146 $147 forward $57 $-1 #
coedge $-1 $148 $59 $149 $150 forward $36 $-1 #
coedge $-1 $59 $148 $151 $152 forward $36 $-1 #
coedge $-1 $153 $154 $59 $94 reversed $155 $-1 #
edge $-1 $156 -39.115744615274814 $157 39.115744615274814 $93 $158 forward 7 unknown #
face $-1 $159 $160 $22 $-1 $161 reversed single #
loop $-1 $-1 $162 $60 #
plane-surface $-1 -71.799607869765865 -11.549766007458224 0 0 1 0 0 0 1 forward_v I I I I #
coedge $-1 $163 $164 $100 $165 forward $61 $-1 #
coedge $-1 $166 $63 $167 $168 reversed $39 $-1 #
coedge $-1 $63 $166 $98 $165 reversed $39 $-1 #
coedge $-1 $169 $170 $63 $102 reversed $171 $-1 #
edge $-1 $172 -15.818317829601277 $173 15.818317829601277 $101 $174 forward 7 unknown #
face $-1 $175 $176 $23 $-1 $177 forward single #
loop $-1 $-1 $178 $64 #
plane-surface $-1 -52.941206026269228 -140.9428090584548 90.716857700182601 1 0 0 0 0.77714596973225614 -0.62932038083071107 forward_v I I I I #
coedge $-1 $179 $180 $181 $182 reversed $65 $-1 #
coedge $-1 $108 $67 $183 $184 reversed $42 $-1 #
coedge $-1 $67 $107 $179 $185 reversed $42 $-1 #
coedge $-1 $181 $186 $67 $110 forward $176 $-1 #
edge $-1 $187 31.355659913952586 $188 37.477132137251651 $109 $189 forward 7 unknown #
loop $-1 $-1 $116 $68 #
plane-surface $-1 -39.014728585598448 -39.115744615274792 8.2589289839943092 0 -0.77714596973225614 0.62932038083071107 1 0 0 forward_v I I I I #
loop $-1 $-1 $190 $44 #
coedge $-1 $114 $114 $115 $191 reversed $69 $-1 #
coedge $-1 $115 $115 $114 $191 forward $71 $-1 #
coedge $-1 $116 $116 $72 $117 forward $111 $-1 #
edge $-1 $192 1.7406082628076339e-015 $192 6.2831853071796022 $116 $193 forward 7 unknown #
face $-1 $194 $195 $25 $-1 $196 reversed single #
loop $-1 $-1 $197 $73 #
plane-surface $-1 60.579920081357436 66.035103979842546 152.65322133146563 -1 0 0 0 0.6560590369687036 0.75470957328743171 forward_v I I I I #
coedge $-1 $198 $199 $200 $201 reversed $74 $-1 #
coedge $-1 $123 $76 $202 $203 reversed $48 $-1 #
coedge $-1 $76 $122 $198 $204 reversed $48 $-1 #
coedge $-1 $200 $205 $76 $125 forward $206 $-1 #
edge $-1 $207 -6.0981926253535406 $208 9.2901286410711563 $124 $209 forward 7 unknown #
loop $-1 $-1 $131 $77 #
plane-surface $-1 46.808167220348608 -19.926309239553589 53.765929435065971 0 0.6560590369687036 0.75470957328743171 1 0 0 forward_v I I I I #
loop $-1 $-1 $210 $50 #
coedge $-1 $129 $129 $130 $211 reversed $78 $-1 #
coedge $-1 $130 $130 $129 $211 forward $80 $-1 #
coedge $-1 $131 $131 $81 $132 forward $126 $-1 #
edge $-1 $212 -2.3222036888429843e-016 $212 6.2831853071796004 $131 $213 forward 7 unknown #
loop $-1 $-1 $138 $82 #
plane-surface $-1 46.808167220348608 -19.926309239553589 53.765929435065971 0 0.6560590369687036 0.75470957328743171 1 0 0 forward_v I I I I #
loop $-1 $-1 $214 $53 #
coedge $-1 $136 $136 $137 $215 reversed $83 $-1 #
coedge $-1 $137 $137 $136 $215 forward $85 $-1 #
coedge $-1 $138 $138 $86 $139 forward $133 $-1 #
edge $-1 $216 -2.3222036888429843e-016 $216 6.2831853071796004 $138 $217 forward 7 unknown #
face $-1 $218 $219 $21 $-1 $220 reversed single #
loop $-1 $-1 $221 $87 #
plane-surface $-1 -65.513473921933652 0 0 1 0 0 0 0 -1 forward_v I I I I #
coedge $-1 $222 $151 $223 $224 forward $88 $-1 #
coedge $-1 $225 $90 $222 $226 forward $57 $-1 #
coedge $-1 $90 $225 $227 $228 forward $57 $-1 #
coedge $-1 $154 $153 $90 $147 reversed $155 $-1 #
edge $-1 $229 -39.115744615274814 $230 39.115744615274814 $146 $231 forward 7 unknown #
coedge $-1 $92 $91 $232 $233 forward $36 $-1 #
coedge $-1 $234 $235 $91 $150 reversed $219 $-1 #
edge $-1 $157 -65.513473921933652 $236 65.513473921933652 $149 $237 forward 7 unknown #
coedge $-1 $143 $238 $92 $152 reversed $88 $-1 #
edge $-1 $239 -65.513473921933652 $156 65.513473921933652 $151 $240 forward 7 unknown #
coedge $-1 $146 $93 $238 $241 forward $155 $-1 #
coedge $-1 $93 $146 $234 $242 reversed $155 $-1 #
loop $-1 $-1 $153 $218 #
vertex $-1 $94 $243 #
vertex $-1 $94 $244 #
straight-curve $-1 65.513473921933652 0 15.818317829601277 0 1 0 I I #
face $-1 $245 $171 $22 $-1 $246 reversed single #
loop $-1 $-1 $247 $95 #
plane-surface $-1 -78.085741817598077 -9.514437481765242 0 1 0 0 0 0 -1 forward_v I I I I #
coedge $-1 $248 $249 $250 $251 forward $96 $-1 #
coedge $-1 $252 $98 $248 $253 forward $61 $-1 #
coedge $-1 $98 $252 $169 $254 forward $61 $-1 #
edge $-1 $172 7.4791089560722597 $255 11.549766007458224 $98 $256 forward 7 unknown #
coedge $-1 $100 $99 $257 $258 forward $39 $-1 #
coedge $-1 $259 $260 $99 $168 forward $261 $-1 #
edge $-1 $262 -11.549766007458224 $173 -7.4791089560722597 $167 $263 forward 7 unknown #
coedge $-1 $264 $101 $164 $254 reversed $171 $-1 #
coedge $-1 $101 $264 $259 $265 reversed $171 $-1 #
loop $-1 $-1 $101 $159 #
vertex $-1 $165 $266 #
vertex $-1 $265 $267 #
straight-curve $-1 -65.513473921933652 -7.4791089560722597 0 0 0 1 I I #
face $-1 $-1 $268 $23 $-1 $269 reversed single #
loop $-1 $-1 $109 $103 #
plane-surface $-1 0 0 15.818317829601277 0 0 1 1 0 0 forward_v I I I I #
coedge $-1 $270 $271 $272 $273 reversed $104 $-1 #
coedge $-1 $274 $106 $108 $185 forward $65 $-1 #
coedge $-1 $106 $274 $270 $275 forward $65 $-1 #
coedge $-1 $272 $109 $106 $182 forward $176 $-1 #
edge $-1 $188 5.5808868521284474 $276 33.433841733470004 $181 $277 forward 7 unknown #
coedge $-1 $278 $279 $107 $184 forward $268 $-1 #
edge $-1 $280 -37.09949986609702 $187 -29.540111020490023 $183 $281 forward 7 unknown #
edge $-1 $188 -9.7271158058136002 $280 3.4122099130144743e-014 $108 $282 forward 7 unknown #
coedge $-1 $109 $272 $278 $283 forward $176 $-1 #
vertex $-1 $110 $284 #
vertex $-1 $110 $285 #
straight-curve $-1 -25.088251144927671 -70.471404529227399 15.818317829601277 0 1 0 I I #
coedge $-1 $190 $190 $-1 $286 reversed $113 $-1 #
edge $-1 $287 0 $287 6.2831853071796004 $114 $288 forward 7 unknown #
vertex $-1 $117 $289 #
ellipse-curve $-1 -39.014728585598448 -36.055008503625281 12.038623406797781 0 -0.77714596973225614 0.62932038083071107 2 0 0 1 I I #
face $-1 $-1 $206 $25 $-1 $290 forward single #
loop $-1 $-1 $291 $118 #
plane-surface $-1 0 39.115744615274814 0 0 -1 0 0 0 -1 forward_v I I I I #
coedge $-1 $292 $293 $294 $295 reversed $119 $-1 #
coedge $-1 $296 $121 $123 $204 forward $74 $-1 #
coedge $-1 $121 $296 $292 $297 forward $74 $-1 #
coedge $-1 $294 $124 $121 $201 forward $206 $-1 #
edge $-1 $208 9.6323307491654759 $298 37.175836471183132 $200 $299 forward 7 unknown #
coedge $-1 $300 $301 $122 $203 forward $195 $-1 #
edge $-1 $302 -73.885156715888741 $207 -60.508292836131538 $202 $303 forward 7 unknown #
edge $-1 $208 57.841763419341376 $302 78.231489230549627 $123 $304 forward 7 unknown #
coedge $-1 $124 $294 $300 $305 forward $206 $-1 #
loop $-1 $-1 $294 $194 #
vertex $-1 $203 $306 #
vertex $-1 $125 $307 #
straight-curve $-1 33.03641435933978 33.017551989921273 15.818317829601284 0 -1 0 I I #
coedge $-1 $210 $210 $-1 $308 reversed $128 $-1 #
edge $-1 $309 0 $309 6.2831853071796004 $129 $310 forward 7 unknown #
vertex $-1 $132 $311 #
ellipse-curve $-1 40.905987422773393 31.421583982062465 9.1298858897226776 0 0.6560590369687036 0.75470957328743171 2 0 0 1 I I #
coedge $-1 $214 $214 $-1 $312 reversed $135 $-1 #
edge $-1 $313 0 $313 6.2831853071796004 $136 $314 forward 7 unknown #
vertex $-1 $139 $315 #
ellipse-curve $-1 52.710347017923809 31.421583982062465 9.1298858897226776 0 0.6560590369687036 0.75470957328743171 2 0 0 1 I I #
face $-1 $-1 $155 $21 $-1 $316 reversed single #
loop $-1 $-1 $234 $140 #
plane-surface $-1 0 39.115744615274814 0 0 -1 0 0 0 -1 forward_v I I I I #
coedge $-1 $317 $232 $235 $318 forward $141 $-1 #
coedge $-1 $238 $143 $144 $226 reversed $88 $-1 #
coedge $-1 $232 $317 $143 $224 reversed $141 $-1 #
edge $-1 $239 -15.818317829601277 $319 15.818317829601277 $223 $320 forward 7 unknown #
coedge $-1 $145 $144 $317 $321 forward $57 $-1 #
edge $-1 $230 -65.513473921933652 $319 65.513473921933652 $222 $322 forward 7 unknown #
coedge $-1 $235 $234 $145 $228 reversed $219 $-1 #
edge $-1 $323 -65.513473921933652 $229 65.513473921933652 $227 $324 forward 7 unknown #
vertex $-1 $147 $325 #
vertex $-1 $241 $326 #
straight-curve $-1 65.513473921933652 0 -15.818317829601277 0 -1 0 I I #
coedge $-1 $221 $223 $148 $233 reversed $141 $-1 #
edge $-1 $236 -39.115744615274814 $239 39.115744615274814 $232 $327 forward 7 unknown #
coedge $-1 $227 $149 $154 $242 forward $219 $-1 #
coedge $-1 $149 $227 $221 $318 reversed $219 $-1 #
vertex $-1 $150 $328 #
straight-curve $-1 0 39.115744615274814 15.818317829601277 -1 0 0 I I #
coedge $-1 $151 $222 $153 $241 reversed $88 $-1 #
vertex $-1 $233 $329 #
straight-curve $-1 0 -39.115744615274814 15.818317829601277 1 0 0 I I #
edge $-1 $156 -15.818317829601277 $230 15.818317829601277 $153 $330 forward 7 unknown #
edge $-1 $157 -15.818317829601277 $229 15.818317829601277 $154 $331 forward 7 unknown #
point $-1 65.513473921933652 -39.115744615274814 15.818317829601277 #
point $-1 65.513473921933652 39.115744615274814 15.818317829601277 #
face $-1 $-1 $261 $22 $-1 $332 forward single #
plane-surface $-1 -71.799607869765865 -7.4791089560722597 0 0 -1 0 0 0 -1 forward_v I I I I #
coedge $-1 $333 $334 $264 $335 forward $160 $-1 #
coedge $-1 $257 $162 $163 $253 reversed $96 $-1 #
coedge $-1 $162 $257 $260 $336 reversed $96 $-1 #
coedge $-1 $334 $333 $162 $251 reversed $160 $-1 #
edge $-1 $337 -15.818317829601277 $338 15.818317829601277 $250 $339 forward 7 unknown #
coedge $-1 $164 $163 $333 $340 forward $61 $-1 #
edge $-1 $255 -6.2861339478322122 $338 6.2861339478322122 $248 $341 forward 7 unknown #
edge $-1 $342 -6.2861339478322122 $172 6.2861339478322122 $169 $343 forward 7 unknown #
vertex $-1 $253 $344 #
straight-curve $-1 -65.513473921933652 0 -15.818317829601277 0 -1 0 I I #
coedge $-1 $249 $248 $166 $258 reversed $96 $-1 #
edge $-1 $262 -15.818317829601277 $255 15.818317829601277 $257 $345 forward 7 unknown #
coedge $-1 $346 $167 $170 $265 forward $261 $-1 #
coedge $-1 $167 $346 $249 $336 forward $261 $-1 #
loop $-1 $-1 $167 $245 #
vertex $-1 $168 $347 #
straight-curve $-1 -65.513473921933652 0 15.818317829601277 0 1 0 I I #
coedge $-1 $170 $169 $247 $335 reversed $171 $-1 #
edge $-1 $173 -6.2861339478322122 $348 6.2861339478322122 $170 $349 forward 7 unknown #
point $-1 -65.513473921933652 -7.4791089560722597 -15.818317829601277 #
point $-1 -65.513473921933652 -7.4791089560722597 15.818317829601277 #
loop $-1 $-1 $183 $175 #
plane-surface $-1 0 -39.115744615274814 0 0 1 0 0 0 1 forward_v I I I I #
coedge $-1 $271 $178 $180 $275 reversed $104 $-1 #
coedge $-1 $178 $270 $350 $351 reversed $104 $-1 #
coedge $-1 $186 $181 $178 $273 forward $176 $-1 #
edge $-1 $276 -37.477132137251651 $352 -31.355659913952586 $272 $353 forward 7 unknown #
coedge $-1 $180 $179 $279 $354 reversed $65 $-1 #
edge $-1 $355 -3.4122099130144743e-014 $276 9.7271158058136002 $270 $356 forward 7 unknown #
vertex $-1 $182 $357 #
straight-curve $-1 -19.507364292799224 -32.994272391975748 15.818317829601277 -1 0 0 I I #
coedge $-1 $350 $183 $186 $283 reversed $268 $-1 #
coedge $-1 $183 $350 $274 $354 forward $268 $-1 #
vertex $-1 $184 $358 #
straight-curve $-1 -25.088251144927671 -39.115744615274814 45.3584288500913 0 0 1 I I #
straight-curve $-1 -25.088251144927671 -39.115744615274792 8.2589289839943092 0 -0.62932038083071107 -0.77714596973225614 I I #
edge $-1 $352 -52.941206026269228 $187 -25.088251144927671 $278 $359 forward 7 unknown #
point $-1 -25.088251144927671 -39.115744615274814 15.818317829601277 #
point $-1 -25.088251144927671 -32.994272391975748 15.818317829601277 #
edge $-1 $360 1 $360 0 $190 $-1 forward 7 unknown #
vertex $-1 $191 $361 #
ellipse-curve $-1 -39.014728585598448 -34.0083446554831 10.381267745815547 0 -0.77714596973225614 0.62932038083071107 2 0 0 1 I I #
point $-1 -37.014728585598448 -36.055008503625295 12.038623406797797 #
plane-surface $-1 0 0 15.818317829601277 0 0 1 1 0 0 forward_v I I I I #
coedge $-1 $301 $300 $293 $362 forward $195 $-1 #
coedge $-1 $293 $197 $199 $297 reversed $119 $-1 #
coedge $-1 $197 $292 $291 $362 reversed $119 $-1 #
coedge $-1 $205 $200 $197 $295 forward $206 $-1 #
edge $-1 $298 -9.2901286410711563 $363 6.0981926253535406 $294 $364 forward 7 unknown #
coedge $-1 $199 $198 $301 $365 reversed $74 $-1 #
edge $-1 $366 -78.231489230549627 $298 -57.841763419341376 $292 $367 forward 7 unknown #
vertex $-1 $201 $368 #
straight-curve $-1 23.404083610174304 23.72742334885012 15.818317829601281 1 0 0 I I #
coedge $-1 $291 $202 $205 $305 reversed $195 $-1 #
coedge $-1 $202 $291 $296 $365 forward $195 $-1 #
vertex $-1 $203 $369 #
straight-curve $-1 33.03641435933978 39.115744615274814 76.326610665732815 0 0 1 I I #
straight-curve $-1 33.03641435933978 -19.926309239553589 53.765929435065971 0 0.75470957328743171 -0.6560590369687036 I I #
edge $-1 $363 -60.579920081357436 $207 -33.03641435933978 $300 $370 forward 7 unknown #
point $-1 33.03641435933978 39.115744615274814 15.818317829601277 #
point $-1 33.03641435933978 23.727423348850117 15.818317829601277 #
edge $-1 $371 1 $371 0 $210 $-1 forward 7 unknown #
vertex $-1 $211 $372 #
ellipse-curve $-1 40.905987422773393 27.552343316325544 4.6788337629550192 0 0.6560590369687036 0.75470957328743171 2 0 0 1 I I #
point $-1 42.905987422773393 31.421583982062472 9.1298858897226864 #
edge $-1 $373 1 $373 0 $214 $-1 forward 7 unknown #
vertex $-1 $215 $374 #
ellipse-curve $-1 52.710347017923809 27.552343316325544 4.6788337629550192 0 0.6560590369687036 0.75470957328743171 2 0 0 1 I I #
point $-1 54.710347017923809 31.421583982062472 9.1298858897226864 #
plane-surface $-1 65.513473921933652 0 0 -1 0 0 0 0 1 forward_v I I I I #
coedge $-1 $223 $221 $225 $321 reversed $141 $-1 #
edge $-1 $236 -15.818317829601277 $323 15.818317829601277 $235 $375 forward 7 unknown #
vertex $-1 $321 $376 #
straight-curve $-1 -65.513473921933652 -39.115744615274814 0 0 0 -1 I I #
edge $-1 $319 -39.115744615274814 $323 39.115744615274814 $317 $377 forward 7 unknown #
straight-curve $-1 0 -39.115744615274814 -15.818317829601277 -1 0 0 I I #
vertex $-1 $228 $378 #
straight-curve $-1 0 39.115744615274814 -15.818317829601277 1 0 0 I I #
point $-1 65.513473921933652 39.115744615274814 -15.818317829601277 #
point $-1 65.513473921933652 -39.115744615274814 -15.818317829601277 #
straight-curve $-1 -65.513473921933652 0 15.818317829601277 0 -1 0 I I #
point $-1 -65.513473921933652 39.115744615274814 15.818317829601277 #
point $-1 -65.513473921933652 -39.115744615274814 15.818317829601277 #
straight-curve $-1 65.513473921933652 -39.115744615274814 0 0 0 -1 I I #
straight-curve $-1 65.513473921933652 39.115744615274814 0 0 0 -1 I I #
plane-surface $-1 0 0 15.818317829601277 0 0 1 1 0 0 forward_v I I I I #
coedge $-1 $250 $247 $252 $340 reversed $160 $-1 #
coedge $-1 $247 $250 $346 $379 reversed $160 $-1 #
edge $-1 $348 -15.818317829601277 $342 15.818317829601277 $264 $380 forward 7 unknown #
edge $-1 $337 -6.2861339478322122 $262 6.2861339478322122 $249 $381 forward 7 unknown #
vertex $-1 $379 $382 #
vertex $-1 $340 $383 #
straight-curve $-1 -78.085741817598077 -11.549766007458224 0 0 0 -1 I I #
edge $-1 $338 -2.0353285256929823 $342 2.0353285256929823 $333 $384 forward 7 unknown #
straight-curve $-1 -71.799607869765865 -11.549766007458224 -15.818317829601277 -1 0 0 I I #
vertex $-1 $254 $385 #
straight-curve $-1 -71.799607869765865 -7.4791089560722597 -15.818317829601277 1 0 0 I I #
point $-1 -65.513473921933652 -11.549766007458224 -15.818317829601277 #
straight-curve $-1 -65.513473921933652 -11.549766007458224 0 0 0 -1 I I #
coedge $-1 $260 $259 $334 $379 forward $261 $-1 #
point $-1 -65.513473921933652 -11.549766007458224 15.818317829601277 #
vertex $-1 $265 $386 #
straight-curve $-1 -71.799607869765865 -7.4791089560722597 15.818317829601277 -1 0 0 I I #
coedge $-1 $279 $278 $271 $351 forward $268 $-1 #
edge $-1 $352 29.540111020490023 $355 37.09949986609702 $350 $387 forward 7 unknown #
vertex $-1 $283 $388 #
straight-curve $-1 -52.941206026269228 -70.471404529227399 15.818317829601277 0 -1 0 I I #
edge $-1 $355 -33.433841733470004 $280 -5.5808868521284474 $279 $389 forward 7 unknown #
vertex $-1 $354 $390 #
straight-curve $-1 -52.941206026269228 -39.115744615274792 8.2589289839943092 0 0.62932038083071107 0.77714596973225614 I I #
point $-1 -52.941206026269228 -32.994272391975748 15.818317829601277 #
point $-1 -25.088251144927671 -39.115744615274814 8.2589289839942825 #
straight-curve $-1 0 -39.115744615274814 15.818317829601277 1 0 0 I I #
vertex $-1 $286 $391 #
point $-1 -37.014728585598448 -34.0083446554831 10.381267745815547 #
edge $-1 $363 60.508292836131538 $366 73.885156715888741 $291 $392 forward 7 unknown #
vertex $-1 $305 $393 #
straight-curve $-1 60.579920081357436 33.017551989921273 15.818317829601284 0 1 0 I I #
edge $-1 $366 -37.175836471183132 $302 -9.6323307491654759 $301 $394 forward 7 unknown #
vertex $-1 $365 $395 #
straight-curve $-1 60.579920081357436 -19.926309239553589 53.765929435065971 0 -0.75470957328743171 0.6560590369687036 I I #
point $-1 60.579920081357436 23.727423348850117 15.818317829601277 #
point $-1 33.03641435933978 39.115744615274821 2.4414539498440817 #
straight-curve $-1 0 39.115744615274814 15.818317829601277 -1 0 0 I I #
vertex $-1 $308 $396 #
point $-1 42.905987422773393 27.552343316325544 4.6788337629550192 #
vertex $-1 $312 $397 #
point $-1 54.710347017923809 27.552343316325544 4.6788337629550192 #
straight-curve $-1 -65.513473921933652 39.115744615274814 0 0 0 -1 I I #
point $-1 -65.513473921933652 -39.115744615274814 -15.818317829601277 #
straight-curve $-1 -65.513473921933652 0 -15.818317829601277 0 1 0 I I #
point $-1 -65.513473921933652 39.115744615274814 -15.818317829601277 #
edge $-1 $348 -2.0353285256929823 $337 2.0353285256929823 $334 $398 forward 7 unknown #
straight-curve $-1 -78.085741817598077 -7.4791089560722597 0 0 0 -1 I I #
straight-curve $-1 -71.799607869765865 -11.549766007458224 15.818317829601277 1 0 0 I I #
point $-1 -78.085741817598077 -11.549766007458224 15.818317829601277 #
point $-1 -78.085741817598077 -11.549766007458224 -15.818317829601277 #
straight-curve $-1 -78.085741817598077 -9.514437481765242 -15.818317829601277 0 1 0 I I #
point $-1 -78.085741817598077 -7.4791089560722597 -15.818317829601277 #
point $-1 -78.085741817598077 -7.4791089560722597 15.818317829601277 #
straight-curve $-1 -52.941206026269228 -39.115744615274814 45.3584288500913 0 0 -1 I I #
point $-1 -52.941206026269228 -39.115744615274814 15.818317829601277 #
straight-curve $-1 -19.507364292799224 -39.115744615274814 8.2589289839942879 1 0 0 I I #
point $-1 -52.941206026269228 -39.115744615274814 8.2589289839942825 #
point $-1 -39.014728585598448 -32.454052716018595 9.1226269841541257 #
straight-curve $-1 60.579920081357436 39.115744615274814 76.326610665732815 0 0 -1 I I #
point $-1 60.579920081357436 39.115744615274814 15.818317829601277 #
straight-curve $-1 23.404083610174304 39.115744615274814 2.4414539498440888 -1 0 0 I I #
point $-1 60.579920081357436 39.115744615274821 2.4414539498440817 #
point $-1 40.905987422773393 26.240225242388139 3.1694146163801555 #
point $-1 52.710347017923809 26.240225242388139 3.1694146163801555 #
straight-curve $-1 -78.085741817598077 -9.514437481765242 15.818317829601277 0 -1 0 I I #
End-of-ACIS-data 