500 0 6 0           
7 Unknown 11 ACIS 5.0 NT 24 Fri Mar 26 20:29:24 1999 
-1 9.9999999999999995e-007 1e-010 
body $-1 $6 $-1 $7 #
body $-1 $8 $-1 $9 #
body $-1 $10 $-1 $11 #
body $-1 $12 $-1 $13 #
body $-1 $14 $-1 $15 #
body $-1 $16 $-1 $17 #
lump $-1 $-1 $18 $0 #
transform $-1 1 0 0 0 1 0 0 0 1 59.968871120334484 35.669097280400123 10.881540276324831 1 rotate no_reflect no_shear #
lump $-1 $-1 $19 $1 #
transform $-1 1 0 0 0 1 0 0 0 1 59.968871120334484 35.669097280400123 10.881540276324831 1 rotate no_reflect no_shear #
lump $-1 $-1 $20 $2 #
transform $-1 1 0 0 0 1 0 0 0 1 59.968871120334484 35.669097280400123 10.881540276324831 1 rotate no_reflect no_shear #
lump $-1 $-1 $21 $3 #
transform $-1 1 0 0 0 1 0 0 0 1 59.968871120334484 35.669097280400123 10.881540276324831 1 rotate no_reflect no_shear #
lump $-1 $-1 $22 $4 #
transform $-1 1 0 0 0 1 0 0 0 1 59.968871120334484 35.669097280400123 10.881540276324831 1 rotate no_reflect no_shear #
lump $-1 $-1 $23 $5 #
transform $-1 1 0 0 0 1 0 0 0 1 59.968871120334484 35.669097280400123 10.881540276324831 1 rotate no_reflect no_shear #
shell $-1 $-1 $-1 $24 $-1 $6 #
shell $-1 $-1 $-1 $25 $-1 $8 #
shell $-1 $-1 $-1 $26 $-1 $10 #
shell $-1 $-1 $-1 $27 $-1 $12 #
shell $-1 $-1 $-1 $28 $-1 $14 #
shell $-1 $-1 $-1 $29 $-1 $16 #
face $-1 $30 $31 $18 $-1 $32 forward single #
face $-1 $33 $34 $19 $-1 $35 reversed single #
face $-1 $36 $37 $20 $-1 $38 reversed single #
face $-1 $39 $40 $21 $-1 $41 reversed single #
face $-1 $42 $43 $22 $-1 $44 forward single #
face $-1 $45 $46 $23 $-1 $47 forward single #
face $-1 $48 $49 $18 $-1 $50 reversed single #
loop $-1 $-1 $51 $24 #
plane-surface $-1 0 0 10.881540276324831 0 0 1 1 0 0 forward_v I I I I #
face $-1 $52 $53 $19 $-1 $54 reversed single #
loop $-1 $-1 $55 $25 #
plane-surface $-1 0 -31.843887346506602 7.8815402763248308 0 0 1 1 0 0 forward_v I I I I #
face $-1 $56 $57 $20 $-1 $58 reversed single #
loop $-1 $-1 $59 $26 #
plane-surface $-1 0 31.843887346506605 7.8815402763248308 0 0 1 1 0 0 forward_v I I I I #
face $-1 $60 $61 $21 $-1 $62 reversed single #
loop $-1 $-1 $63 $27 #
plane-surface $-1 62.929108106795169 -11.304143943625428 169.97058735982958 0 -1 0 -0.71933980857756763 0 -0.69465836192734942 forward_v I I I I #
face $-1 $64 $65 $22 $-1 $66 forward single #
loop $-1 $67 $68 $28 #
cone-surface $-1 52.945404813427345 -23.243096421473751 3.7448792980307855 -0.71933980857756763 0 -0.69465836192734942 1.3893167238546988 0 -1.4386796171551353 1 I I 0 1 2 forward I I I I #
face $-1 $69 $70 $23 $-1 $71 forward single #
loop $-1 $72 $73 $29 #
cone-surface $-1 52.945404813427345 -16.079724934764759 3.7448792980307855 -0.71933980857756763 0 -0.69465836192734942 1.3893167238546988 0 -1.4386796171551353 1 I I 0 1 2 forward I I I I #
face $-1 $74 $75 $18 $-1 $76 reversed single #
loop $-1 $-1 $77 $30 #
plane-surface $-1 0 0 -10.881540276324831 0 0 1 1 0 0 forward_v I I I I #
coedge $-1 $78 $79 $80 $81 forward $31 $-1 #
face $-1 $82 $83 $19 $-1 $84 reversed single #
loop $-1 $-1 $85 $33 #
plane-surface $-1 0 -28.01867741261308 9.3815402763248308 0 -1 0 0 0 -1 forward_v I I I I #
coedge $-1 $86 $87 $88 $89 reversed $34 $-1 #
face $-1 $90 $91 $20 $-1 $92 forward single #
loop $-1 $-1 $93 $36 #
plane-surface $-1 0 28.018677412613084 9.3815402763248308 0 1 0 0 0 1 forward_v I I I I #
coedge $-1 $94 $95 $96 $97 reversed $37 $-1 #
face $-1 $98 $99 $21 $-1 $100 forward single #
loop $-1 $-1 $101 $39 #
plane-surface $-1 -23.346884437833296 -19.661410678119253 86.654831801661814 0.71933980857756763 0 0.69465836192734942 0.69465836192734942 0 -0.71933980857756763 forward_v I I I I #
coedge $-1 $102 $103 $104 $105 reversed $40 $-1 #
face $-1 $-1 $106 $22 $-1 $107 forward single #
loop $-1 $108 $109 $42 #
cone-surface $-1 50.273768817319549 -23.243096421473751 1.1649104674551261 -0.71933980857756763 0 -0.69465836192734942 0.69465836192734942 0 -0.71933980857756763 1 I I -0.70710678118654746 0.70710678118654746 1 forward I I I I #
loop $-1 $-1 $110 $28 #
coedge $-1 $68 $68 $111 $112 reversed $43 $-1 #
face $-1 $-1 $113 $23 $-1 $114 forward single #
loop $-1 $115 $116 $45 #
cone-surface $-1 50.273768817319549 -16.079724934764759 1.1649104674551261 -0.71933980857756763 0 -0.69465836192734942 0.69465836192734942 0 -0.71933980857756763 1 I I -0.70710678118654746 0.70710678118654746 1 forward I I I I #
loop $-1 $-1 $117 $29 #
coedge $-1 $73 $73 $118 $119 reversed $46 $-1 #
face $-1 $120 $121 $18 $-1 $122 reversed single #
loop $-1 $-1 $123 $48 #
plane-surface $-1 0 -35.669097280400123 0 0 1 0 0 0 1 forward_v I I I I #
coedge $-1 $124 $125 $126 $127 forward $49 $-1 #
coedge $-1 $128 $51 $129 $130 forward $31 $-1 #
coedge $-1 $51 $128 $131 $132 forward $31 $-1 #
coedge $-1 $133 $134 $51 $81 reversed $135 $-1 #
edge $-1 $136 -35.669097280400123 $137 35.669097280400123 $80 $138 forward 7 unknown #
face $-1 $139 $140 $19 $-1 $141 reversed single #
loop $-1 $-1 $142 $52 #
plane-surface $-1 -59.968871120334484 0 0 1 0 0 0 0 -1 forward_v I I I I #
coedge $-1 $143 $144 $87 $145 reversed $53 $-1 #
coedge $-1 $146 $55 $147 $148 reversed $34 $-1 #
coedge $-1 $55 $146 $85 $145 forward $34 $-1 #
coedge $-1 $149 $150 $55 $89 forward $151 $-1 #
edge $-1 $152 -19.747153607146821 $153 -12.096733739359779 $88 $154 forward 7 unknown #
face $-1 $155 $156 $20 $-1 $157 reversed single #
loop $-1 $-1 $158 $56 #
plane-surface $-1 0 0 10.881540276324831 0 0 1 1 0 0 forward_v I I I I #
coedge $-1 $159 $160 $161 $162 reversed $57 $-1 #
coedge $-1 $163 $59 $159 $164 forward $37 $-1 #
coedge $-1 $59 $163 $165 $166 reversed $37 $-1 #
coedge $-1 $167 $168 $59 $97 forward $156 $-1 #
edge $-1 $169 12.096733739359781 $170 19.747153607146821 $96 $171 forward 7 unknown #
face $-1 $172 $173 $21 $-1 $174 forward single #
loop $-1 $-1 $104 $60 #
plane-surface $-1 0 0 10.881540276324831 0 0 1 1 0 0 forward_v I I I I #
coedge $-1 $175 $176 $177 $178 reversed $61 $-1 #
coedge $-1 $103 $63 $179 $180 reversed $40 $-1 #
coedge $-1 $63 $102 $175 $181 reversed $40 $-1 #
coedge $-1 $177 $182 $63 $105 forward $99 $-1 #
edge $-1 $183 -28.504317066936899 $184 -18.361976828183096 $104 $185 forward 7 unknown #
loop $-1 $-1 $111 $64 #
plane-surface $-1 -23.346884437833296 -19.661410678119253 86.654831801661814 0.71933980857756763 0 0.69465836192734942 0.69465836192734942 0 -0.71933980857756763 forward_v I I I I #
loop $-1 $-1 $186 $42 #
coedge $-1 $109 $109 $110 $187 reversed $65 $-1 #
coedge $-1 $110 $110 $109 $187 forward $67 $-1 #
coedge $-1 $111 $111 $68 $112 forward $106 $-1 #
edge $-1 $188 0 $188 6.2831853071796004 $111 $189 forward 7 unknown #
loop $-1 $-1 $118 $69 #
plane-surface $-1 -23.346884437833296 -19.661410678119253 86.654831801661814 0.71933980857756763 0 0.69465836192734942 0.69465836192734942 0 -0.71933980857756763 forward_v I I I I #
loop $-1 $-1 $190 $45 #
coedge $-1 $116 $116 $117 $191 reversed $70 $-1 #
coedge $-1 $117 $117 $116 $191 forward $72 $-1 #
coedge $-1 $118 $118 $73 $119 forward $113 $-1 #
edge $-1 $192 0 $192 6.2831853071796004 $118 $193 forward 7 unknown #
face $-1 $194 $195 $18 $-1 $196 reversed single #
loop $-1 $-1 $197 $74 #
plane-surface $-1 -59.968871120334484 0 0 1 0 0 0 0 -1 forward_v I I I I #
coedge $-1 $198 $131 $199 $200 forward $75 $-1 #
coedge $-1 $201 $77 $198 $202 forward $49 $-1 #
coedge $-1 $77 $201 $203 $204 forward $49 $-1 #
coedge $-1 $134 $133 $77 $127 reversed $135 $-1 #
edge $-1 $205 -35.669097280400123 $206 35.669097280400123 $126 $207 forward 7 unknown #
coedge $-1 $79 $78 $208 $209 forward $31 $-1 #
coedge $-1 $210 $211 $78 $130 reversed $195 $-1 #
edge $-1 $137 -59.968871120334484 $212 59.968871120334484 $129 $213 forward 7 unknown #
coedge $-1 $123 $214 $79 $132 reversed $75 $-1 #
edge $-1 $215 -59.968871120334484 $136 59.968871120334484 $131 $216 forward 7 unknown #
coedge $-1 $126 $80 $214 $217 forward $135 $-1 #
coedge $-1 $80 $126 $210 $218 reversed $135 $-1 #
loop $-1 $-1 $133 $194 #
vertex $-1 $81 $219 #
vertex $-1 $81 $220 #
straight-curve $-1 59.968871120334484 0 10.881540276324831 0 1 0 I I #
face $-1 $221 $222 $19 $-1 $223 forward single #
loop $-1 $-1 $147 $82 #
plane-surface $-1 0 -35.669097280400123 0 0 1 0 0 0 1 forward_v I I I I #
coedge $-1 $224 $225 $143 $226 forward $83 $-1 #
coedge $-1 $227 $85 $142 $226 reversed $53 $-1 #
coedge $-1 $85 $227 $149 $228 reversed $53 $-1 #
edge $-1 $229 -59.968871120334484 $153 59.968871120334484 $85 $230 forward 7 unknown #
coedge $-1 $87 $86 $224 $231 reversed $34 $-1 #
coedge $-1 $232 $233 $86 $148 forward $140 $-1 #
edge $-1 $234 -59.968871120334484 $152 59.968871120334484 $147 $235 forward 7 unknown #
coedge $-1 $236 $88 $144 $228 forward $151 $-1 #
coedge $-1 $88 $236 $232 $237 forward $151 $-1 #
loop $-1 $-1 $149 $221 #
vertex $-1 $148 $238 #
vertex $-1 $89 $239 #
straight-curve $-1 59.968871120334484 -15.921943673253301 7.8815402763248308 0 1 0 I I #
face $-1 $240 $241 $20 $-1 $242 reversed single #
loop $-1 $-1 $168 $90 #
plane-surface $-1 59.968871120334484 0 0 -1 0 0 0 0 1 forward_v I I I I #
coedge $-1 $243 $244 $160 $245 forward $91 $-1 #
coedge $-1 $246 $93 $94 $164 reversed $57 $-1 #
coedge $-1 $93 $246 $158 $245 reversed $57 $-1 #
coedge $-1 $247 $248 $93 $162 forward $241 $-1 #
edge $-1 $249 3.1907701381624154 $250 6.1907701381624154 $161 $251 forward 7 unknown #
coedge $-1 $95 $94 $248 $252 reversed $37 $-1 #
edge $-1 $169 -59.968871120334484 $249 59.968871120334484 $159 $253 forward 7 unknown #
coedge $-1 $254 $255 $95 $166 forward $256 $-1 #
edge $-1 $170 -59.968871120334484 $257 59.968871120334484 $165 $258 forward 7 unknown #
coedge $-1 $259 $96 $255 $260 reversed $156 $-1 #
coedge $-1 $96 $259 $246 $261 forward $156 $-1 #
vertex $-1 $97 $262 #
vertex $-1 $166 $263 #
straight-curve $-1 59.968871120334484 15.921943673253303 7.8815402763248308 0 1 0 I I #
face $-1 $-1 $264 $21 $-1 $265 reversed single #
loop $-1 $-1 $266 $98 #
plane-surface $-1 0 -28.01867741261308 9.3815402763248308 0 -1 0 0 0 -1 forward_v I I I I #
coedge $-1 $267 $101 $103 $181 forward $61 $-1 #
coedge $-1 $101 $267 $266 $268 forward $61 $-1 #
coedge $-1 $269 $104 $101 $178 forward $99 $-1 #
edge $-1 $184 1.4734386045658017 $270 18.187972073553453 $177 $271 forward 7 unknown #
coedge $-1 $272 $273 $102 $180 forward $264 $-1 #
edge $-1 $274 -84.606454422881455 $183 -74.103753403589963 $179 $275 forward 7 unknown #
edge $-1 $184 105.33726984354186 $274 119.937742240669 $103 $276 forward 7 unknown #
coedge $-1 $104 $269 $272 $277 forward $99 $-1 #
vertex $-1 $180 $278 #
vertex $-1 $105 $279 #
straight-curve $-1 31.464554053397585 -11.304143943625428 10.881540276324827 -1 0 0 I I #
coedge $-1 $186 $186 $-1 $280 reversed $108 $-1 #
edge $-1 $281 0 $281 6.2831853071796004 $109 $282 forward 7 unknown #
vertex $-1 $112 $283 #
ellipse-curve $-1 54.897701000957575 -23.243096421473751 5.6301897666790914 0.71933980857756763 0 0.69465836192734942 1.3893167238546988 0 -1.4386796171551353 1 I I #
coedge $-1 $190 $190 $-1 $284 reversed $115 $-1 #
edge $-1 $285 0 $285 6.2831853071796004 $116 $286 forward 7 unknown #
vertex $-1 $119 $287 #
ellipse-curve $-1 54.897701000957575 -16.079724934764759 5.6301897666790914 0.71933980857756763 0 0.69465836192734942 1.3893167238546988 0 -1.4386796171551353 1 I I #
face $-1 $-1 $135 $18 $-1 $288 reversed single #
loop $-1 $-1 $210 $120 #
plane-surface $-1 0 35.669097280400123 0 0 -1 0 0 0 -1 forward_v I I I I #
coedge $-1 $289 $208 $211 $290 forward $121 $-1 #
coedge $-1 $214 $123 $124 $202 reversed $75 $-1 #
coedge $-1 $208 $289 $123 $200 reversed $121 $-1 #
edge $-1 $215 -10.881540276324831 $291 10.881540276324831 $199 $292 forward 7 unknown #
coedge $-1 $125 $124 $289 $293 forward $49 $-1 #
edge $-1 $206 -59.968871120334484 $291 59.968871120334484 $198 $294 forward 7 unknown #
coedge $-1 $211 $210 $125 $204 reversed $195 $-1 #
edge $-1 $295 -59.968871120334484 $205 59.968871120334484 $203 $296 forward 7 unknown #
vertex $-1 $127 $297 #
vertex $-1 $217 $298 #
straight-curve $-1 59.968871120334484 0 -10.881540276324831 0 -1 0 I I #
coedge $-1 $197 $199 $128 $209 reversed $121 $-1 #
edge $-1 $212 -35.669097280400123 $215 35.669097280400123 $208 $299 forward 7 unknown #
coedge $-1 $203 $129 $134 $218 forward $195 $-1 #
coedge $-1 $129 $203 $197 $290 reversed $195 $-1 #
vertex $-1 $130 $300 #
straight-curve $-1 0 35.669097280400123 10.881540276324831 -1 0 0 I I #
coedge $-1 $131 $198 $133 $217 reversed $75 $-1 #
vertex $-1 $209 $301 #
straight-curve $-1 0 -35.669097280400123 10.881540276324831 1 0 0 I I #
edge $-1 $136 -10.881540276324831 $206 10.881540276324831 $133 $302 forward 7 unknown #
edge $-1 $137 -10.881540276324831 $205 10.881540276324831 $134 $303 forward 7 unknown #
point $-1 59.968871120334484 -35.669097280400123 10.881540276324831 #
point $-1 59.968871120334484 35.669097280400123 10.881540276324831 #
face $-1 $-1 $151 $19 $-1 $304 reversed single #
loop $-1 $-1 $305 $139 #
plane-surface $-1 0 0 10.881540276324831 0 0 1 1 0 0 forward_v I I I I #
coedge $-1 $306 $142 $146 $231 forward $83 $-1 #
coedge $-1 $142 $306 $307 $308 reversed $83 $-1 #
edge $-1 $309 -6.1907701381624154 $229 -3.1907701381624154 $142 $310 forward 7 unknown #
coedge $-1 $144 $143 $305 $311 reversed $53 $-1 #
edge $-1 $153 3.1907701381624154 $312 6.1907701381624154 $149 $313 forward 7 unknown #
vertex $-1 $231 $314 #
straight-curve $-1 0 -28.01867741261308 7.8815402763248308 1 0 0 I I #
edge $-1 $229 12.096733739359779 $234 19.747153607146821 $224 $315 forward 7 unknown #
coedge $-1 $316 $147 $150 $237 reversed $140 $-1 #
coedge $-1 $147 $316 $306 $317 forward $140 $-1 #
vertex $-1 $148 $318 #
straight-curve $-1 0 -35.669097280400123 7.8815402763248308 1 0 0 I I #
coedge $-1 $150 $149 $319 $320 reversed $151 $-1 #
edge $-1 $321 -10.881540276324831 $152 -7.8815402763248308 $150 $322 forward 7 unknown #
point $-1 59.968871120334484 -35.669097280400123 7.8815402763248308 #
point $-1 59.968871120334484 -28.01867741261308 7.8815402763248308 #
face $-1 $-1 $256 $20 $-1 $323 reversed single #
loop $-1 $-1 $161 $155 #
plane-surface $-1 -59.968871120334484 0 0 1 0 0 0 0 -1 forward_v I I I I #
coedge $-1 $324 $158 $259 $325 forward $91 $-1 #
coedge $-1 $158 $324 $247 $326 forward $91 $-1 #
edge $-1 $250 -59.968871120334484 $327 59.968871120334484 $158 $328 forward 7 unknown #
coedge $-1 $160 $159 $168 $261 reversed $57 $-1 #
coedge $-1 $329 $161 $244 $326 reversed $241 $-1 #
coedge $-1 $161 $329 $163 $252 forward $241 $-1 #
vertex $-1 $252 $330 #
vertex $-1 $162 $331 #
straight-curve $-1 -59.968871120334484 28.018677412613084 4.6907701381624154 0 0 1 I I #
edge $-1 $257 -19.747153607146821 $249 -12.096733739359781 $248 $332 forward 7 unknown #
straight-curve $-1 0 28.018677412613084 7.8815402763248308 -1 0 0 I I #
coedge $-1 $333 $165 $329 $334 reversed $256 $-1 #
coedge $-1 $165 $333 $167 $260 forward $256 $-1 #
loop $-1 $-1 $165 $240 #
vertex $-1 $166 $335 #
straight-curve $-1 0 35.669097280400123 7.8815402763248308 -1 0 0 I I #
coedge $-1 $168 $167 $243 $325 reversed $156 $-1 #
edge $-1 $336 -10.881540276324831 $170 -7.8815402763248308 $167 $337 forward 7 unknown #
edge $-1 $327 -6.1907701381624154 $169 -3.1907701381624154 $168 $338 forward 7 unknown #
point $-1 59.968871120334484 28.018677412613084 7.8815402763248308 #
point $-1 59.968871120334484 35.669097280400123 7.8815402763248308 #
loop $-1 $-1 $179 $172 #
plane-surface $-1 59.968871120334484 0 0 -1 0 0 0 0 1 forward_v I I I I #
coedge $-1 $339 $340 $176 $268 reversed $173 $-1 #
coedge $-1 $176 $175 $273 $341 reversed $61 $-1 #
edge $-1 $342 -119.937742240669 $270 -105.33726984354186 $266 $343 forward 7 unknown #
coedge $-1 $182 $177 $340 $344 forward $99 $-1 #
vertex $-1 $344 $345 #
straight-curve $-1 49.826530881580659 -9.8307053390596266 10.881540276324841 0 -1 0 I I #
coedge $-1 $346 $179 $182 $277 reversed $264 $-1 #
coedge $-1 $179 $346 $267 $341 forward $264 $-1 #
vertex $-1 $180 $347 #
straight-curve $-1 59.968871120334484 -11.304143943625428 84.98529367991479 0 0 1 I I #
straight-curve $-1 -23.346884437833296 -11.304143943625428 86.654831801661814 0.69465836192734942 0 -0.71933980857756763 I I #
edge $-1 $348 -28.01867741261308 $183 -11.304143943625428 $272 $349 forward 7 unknown #
point $-1 59.968871120334484 -11.304143943625428 10.881540276324831 #
point $-1 49.82653088158068 -11.304143943625428 10.881540276324827 #
edge $-1 $350 1 $350 0 $186 $-1 forward 7 unknown #
vertex $-1 $187 $351 #
ellipse-curve $-1 50.993108625897115 -23.243096421473751 1.8595688293824755 0.71933980857756763 0 0.69465836192734942 1.3893167238546988 0 -1.4386796171551353 1 I I #
point $-1 56.28701772481228 -23.243096421473751 4.1915101495239604 #
edge $-1 $352 1 $352 0 $190 $-1 forward 7 unknown #
vertex $-1 $191 $353 #
ellipse-curve $-1 50.993108625897115 -16.079724934764759 1.8595688293824755 0.71933980857756763 0 0.69465836192734942 1.3893167238546988 0 -1.4386796171551353 1 I I #
point $-1 56.28701772481228 -16.079724934764759 4.1915101495239604 #
plane-surface $-1 59.968871120334484 0 0 -1 0 0 0 0 1 forward_v I I I I #
coedge $-1 $199 $197 $201 $293 reversed $121 $-1 #
edge $-1 $212 -10.881540276324831 $295 10.881540276324831 $211 $354 forward 7 unknown #
vertex $-1 $293 $355 #
straight-curve $-1 -59.968871120334484 -35.669097280400123 0 0 0 -1 I I #
edge $-1 $291 -35.669097280400123 $295 35.669097280400123 $289 $356 forward 7 unknown #
straight-curve $-1 0 -35.669097280400123 -10.881540276324831 -1 0 0 I I #
vertex $-1 $204 $357 #
straight-curve $-1 0 35.669097280400123 -10.881540276324831 1 0 0 I I #
point $-1 59.968871120334484 35.669097280400123 -10.881540276324831 #
point $-1 59.968871120334484 -35.669097280400123 -10.881540276324831 #
straight-curve $-1 -59.968871120334484 0 10.881540276324831 0 -1 0 I I #
point $-1 -59.968871120334484 35.669097280400123 10.881540276324831 #
point $-1 -59.968871120334484 -35.669097280400123 10.881540276324831 #
straight-curve $-1 59.968871120334484 -35.669097280400123 0 0 0 -1 I I #
straight-curve $-1 59.968871120334484 35.669097280400123 0 0 0 -1 I I #
plane-surface $-1 59.968871120334484 0 0 -1 0 0 0 0 1 forward_v I I I I #
coedge $-1 $307 $319 $227 $311 forward $222 $-1 #
coedge $-1 $225 $224 $233 $317 reversed $83 $-1 #
coedge $-1 $358 $305 $225 $308 forward $222 $-1 #
edge $-1 $309 28.01867741261308 $359 35.669097280400123 $225 $360 forward 7 unknown #
vertex $-1 $308 $361 #
straight-curve $-1 -59.968871120334484 -28.01867741261308 4.6907701381624154 0 0 -1 I I #
edge $-1 $312 -59.968871120334484 $309 59.968871120334484 $305 $362 forward 7 unknown #
vertex $-1 $228 $363 #
straight-curve $-1 59.968871120334484 -28.01867741261308 4.6907701381624154 0 0 1 I I #
point $-1 -59.968871120334484 -28.01867741261308 7.8815402763248308 #
straight-curve $-1 -59.968871120334484 -15.921943673253301 7.8815402763248308 0 -1 0 I I #
coedge $-1 $233 $232 $358 $364 reversed $140 $-1 #
edge $-1 $359 -10.881540276324831 $234 -7.8815402763248308 $306 $365 forward 7 unknown #
point $-1 -59.968871120334484 -35.669097280400123 7.8815402763248308 #
coedge $-1 $305 $358 $236 $320 forward $222 $-1 #
edge $-1 $321 -35.669097280400123 $312 -28.01867741261308 $236 $366 forward 7 unknown #
vertex $-1 $320 $367 #
straight-curve $-1 59.968871120334484 -35.669097280400123 0 0 0 -1 I I #
plane-surface $-1 0 35.669097280400123 0 0 -1 0 0 0 -1 forward_v I I I I #
coedge $-1 $244 $243 $333 $368 forward $91 $-1 #
edge $-1 $327 28.018677412613084 $336 35.669097280400123 $259 $369 forward 7 unknown #
edge $-1 $370 -35.669097280400123 $250 -28.018677412613084 $247 $371 forward 7 unknown #
vertex $-1 $325 $372 #
straight-curve $-1 0 28.018677412613084 10.881540276324831 1 0 0 I I #
coedge $-1 $248 $247 $254 $334 forward $241 $-1 #
point $-1 -59.968871120334484 28.018677412613084 7.8815402763248308 #
point $-1 -59.968871120334484 28.018677412613084 10.881540276324831 #
straight-curve $-1 -59.968871120334484 15.921943673253303 7.8815402763248308 0 -1 0 I I #
coedge $-1 $255 $254 $324 $368 reversed $256 $-1 #
edge $-1 $370 -10.881540276324831 $257 -7.8815402763248308 $254 $373 forward 7 unknown #
point $-1 -59.968871120334484 35.669097280400123 7.8815402763248308 #
vertex $-1 $325 $374 #
straight-curve $-1 59.968871120334484 35.669097280400123 0 0 0 -1 I I #
straight-curve $-1 59.968871120334484 28.018677412613084 4.6907701381624154 0 0 -1 I I #
coedge $-1 $340 $266 $346 $375 reversed $173 $-1 #
coedge $-1 $266 $339 $269 $344 reversed $173 $-1 #
edge $-1 $342 -18.187972073553453 $274 -1.4734386045658017 $273 $376 forward 7 unknown #
vertex $-1 $375 $377 #
straight-curve $-1 -23.346884437833296 -28.01867741261308 86.654831801661814 -0.69465836192734942 0 0.71933980857756763 I I #
edge $-1 $270 49.82653088158068 $348 59.968871120334484 $269 $378 forward 7 unknown #
point $-1 49.82653088158068 -28.01867741261308 10.881540276324827 #
coedge $-1 $273 $272 $339 $375 forward $264 $-1 #
point $-1 59.968871120334484 -11.304143943625428 0.37883925703333432 #
vertex $-1 $277 $379 #
straight-curve $-1 59.968871120334484 0 10.881540276324831 0 1 0 I I #
vertex $-1 $280 $380 #
point $-1 52.382425349751813 -23.243096421473751 0.42088921222734021 #
vertex $-1 $284 $381 #
point $-1 52.382425349751813 -16.079724934764759 0.42088921222734021 #
straight-curve $-1 -59.968871120334484 35.669097280400123 0 0 0 -1 I I #
point $-1 -59.968871120334484 -35.669097280400123 -10.881540276324831 #
straight-curve $-1 -59.968871120334484 0 -10.881540276324831 0 1 0 I I #
point $-1 -59.968871120334484 35.669097280400123 -10.881540276324831 #
coedge $-1 $319 $307 $316 $364 forward $222 $-1 #
vertex $-1 $308 $382 #
straight-curve $-1 -59.968871120334484 0 10.881540276324831 0 -1 0 I I #
point $-1 -59.968871120334484 -28.01867741261308 10.881540276324831 #
straight-curve $-1 0 -28.01867741261308 10.881540276324831 -1 0 0 I I #
point $-1 59.968871120334484 -28.01867741261308 10.881540276324831 #
edge $-1 $359 -59.968871120334484 $321 59.968871120334484 $316 $383 forward 7 unknown #
straight-curve $-1 -59.968871120334484 -35.669097280400123 0 0 0 -1 I I #
straight-curve $-1 59.968871120334484 0 10.881540276324831 0 1 0 I I #
point $-1 59.968871120334484 -35.669097280400123 10.881540276324831 #
edge $-1 $336 -59.968871120334484 $370 59.968871120334484 $333 $384 forward 7 unknown #
straight-curve $-1 59.968871120334484 0 10.881540276324831 0 1 0 I I #
vertex $-1 $368 $385 #
straight-curve $-1 -59.968871120334484 0 10.881540276324831 0 -1 0 I I #
point $-1 59.968871120334484 28.018677412613084 10.881540276324831 #
straight-curve $-1 -59.968871120334484 35.669097280400123 0 0 0 -1 I I #
point $-1 59.968871120334484 35.669097280400123 10.881540276324831 #
edge $-1 $348 74.103753403589963 $342 84.606454422881455 $346 $386 forward 7 unknown #
straight-curve $-1 59.96887112033447 -9.8307053390596266 0.37883925703334853 0 1 0 I I #
point $-1 59.968871120334484 -28.01867741261308 0.37883925703333432 #
straight-curve $-1 0 -28.01867741261308 10.881540276324831 1 0 0 I I #
point $-1 59.968871120334484 -28.01867741261308 10.881540276324831 #
point $-1 49.554429008741984 -23.243096421473751 0.47025210552777663 #
point $-1 49.554429008741984 -16.079724934764759 0.47025210552777663 #
point $-1 -59.968871120334484 -35.669097280400123 10.881540276324831 #
straight-curve $-1 0 -35.669097280400123 10.881540276324831 1 0 0 I I #
straight-curve $-1 0 35.669097280400123 10.881540276324831 -1 0 0 I I #
point $-1 -59.968871120334484 35.669097280400123 10.881540276324831 #
straight-curve $-1 59.968871120334484 -28.01867741261308 84.98529367991479 0 0 -1 I I #
End-of-ACIS-data 