500 0 3 0           
7 Unknown 11 ACIS 5.0 NT 24 Thu Mar 25 20:01:55 1999 
-1 9.9999999999999995e-007 1e-010 
body $-1 $3 $-1 $4 #
body $-1 $5 $-1 $6 #
body $-1 $7 $-1 $8 #
lump $-1 $-1 $9 $0 #
transform $-1 1 0 0 0 1 0 0 0 1 66.787926877651302 42.495645273582085 19.064355478290025 1 rotate no_reflect no_shear #
lump $-1 $-1 $10 $1 #
transform $-1 1 0 0 0 1 0 0 0 1 66.787926877651302 42.495645273582085 19.064355478290025 1 rotate no_reflect no_shear #
lump $-1 $-1 $11 $2 #
transform $-1 1 0 0 0 1 0 0 0 1 66.787926877651302 42.495645273582085 19.064355478290025 1 rotate no_reflect no_shear #
shell $-1 $-1 $-1 $12 $-1 $3 #
shell $-1 $-1 $-1 $13 $-1 $5 #
shell $-1 $-1 $-1 $14 $-1 $7 #
face $-1 $15 $16 $9 $-1 $17 forward single #
face $-1 $18 $19 $10 $-1 $20 reversed single #
face $-1 $21 $22 $11 $-1 $23 forward single #
face $-1 $24 $25 $9 $-1 $26 reversed single #
loop $-1 $-1 $27 $12 #
plane-surface $-1 0 0 19.064355478290025 0 0 1 1 0 0 forward_v I I I I #
face $-1 $28 $29 $10 $-1 $30 reversed single #
loop $-1 $-1 $31 $13 #
plane-surface $-1 52.370645979684113 -42.495645273582056 6.396424632259567 0 -0.83867057594974714 0.54463902268945019 1 0 0 forward_v I I I I #
face $-1 $32 $33 $11 $-1 $34 forward single #
loop $-1 $35 $36 $14 #
cone-surface $-1 52.370645979684113 -34.421241691890359 10.158035700240191 0 0.83867057594974714 -0.54463902268945019 2.5 0 0 1 I I 0 1 2.5 forward I I I I #
face $-1 $37 $38 $9 $-1 $39 reversed single #
loop $-1 $-1 $40 $15 #
plane-surface $-1 0 0 -19.064355478290025 0 0 1 1 0 0 forward_v I I I I #
coedge $-1 $41 $42 $43 $44 forward $16 $-1 #
face $-1 $45 $46 $10 $-1 $47 reversed single #
loop $-1 $-1 $48 $18 #
plane-surface $-1 37.953365081716925 -154.52178347552089 79.147047076456502 1 0 0 0 0.83867057594974714 -0.54463902268945019 forward_v I I I I #
coedge $-1 $49 $50 $51 $52 reversed $19 $-1 #
face $-1 $-1 $53 $11 $-1 $54 forward single #
loop $-1 $55 $56 $21 #
cone-surface $-1 52.370645979684113 -29.411824998672653 6.9048825668437601 0 0.83867057594974714 -0.54463902268945019 1.25 0 0 1 I I -0.70710678118654779 0.70710678118654724 1.25 forward I I I I #
loop $-1 $-1 $57 $14 #
coedge $-1 $36 $36 $58 $59 reversed $22 $-1 #
face $-1 $60 $61 $9 $-1 $62 reversed single #
loop $-1 $-1 $63 $24 #
plane-surface $-1 0 -42.495645273582085 0 0 1 0 0 0 1 forward_v I I I I #
coedge $-1 $64 $65 $66 $67 forward $25 $-1 #
coedge $-1 $68 $27 $69 $70 forward $16 $-1 #
coedge $-1 $27 $68 $71 $72 forward $16 $-1 #
coedge $-1 $73 $74 $27 $44 reversed $75 $-1 #
edge $-1 $76 -42.495645273582085 $77 42.495645273582085 $43 $78 forward 7 unknown #
face $-1 $79 $80 $10 $-1 $81 forward single #
loop $-1 $-1 $82 $28 #
plane-surface $-1 0 -42.495645273582085 0 0 1 0 0 0 1 forward_v I I I I #
coedge $-1 $83 $84 $85 $86 reversed $29 $-1 #
coedge $-1 $87 $31 $88 $89 reversed $19 $-1 #
coedge $-1 $31 $87 $83 $90 forward $19 $-1 #
coedge $-1 $85 $91 $31 $52 forward $80 $-1 #
edge $-1 $92 -40.602603887809245 $93 -11.768042091874868 $51 $94 forward 7 unknown #
loop $-1 $-1 $58 $32 #
plane-surface $-1 52.370645979684113 -42.495645273582056 6.396424632259567 0 -0.83867057594974714 0.54463902268945019 1 0 0 forward_v I I I I #
loop $-1 $-1 $95 $21 #
coedge $-1 $56 $56 $57 $96 reversed $33 $-1 #
coedge $-1 $57 $57 $56 $96 forward $35 $-1 #
coedge $-1 $58 $58 $36 $59 forward $53 $-1 #
edge $-1 $97 3.6319532086964797e-016 $97 6.2831853071796004 $58 $98 forward 7 unknown #
face $-1 $99 $100 $9 $-1 $101 reversed single #
loop $-1 $-1 $102 $37 #
plane-surface $-1 -66.787926877651302 0 0 1 0 0 0 0 -1 forward_v I I I I #
coedge $-1 $103 $71 $104 $105 forward $38 $-1 #
coedge $-1 $106 $40 $103 $107 forward $25 $-1 #
coedge $-1 $40 $106 $108 $109 forward $25 $-1 #
coedge $-1 $74 $73 $40 $67 reversed $75 $-1 #
edge $-1 $110 -42.495645273582085 $111 42.495645273582085 $66 $112 forward 7 unknown #
coedge $-1 $42 $41 $113 $114 forward $16 $-1 #
coedge $-1 $115 $116 $41 $70 reversed $100 $-1 #
edge $-1 $77 -66.787926877651302 $117 66.787926877651302 $69 $118 forward 7 unknown #
coedge $-1 $63 $119 $42 $72 reversed $38 $-1 #
edge $-1 $120 -66.787926877651302 $76 66.787926877651302 $71 $121 forward 7 unknown #
coedge $-1 $66 $43 $119 $122 forward $75 $-1 #
coedge $-1 $43 $66 $115 $123 reversed $75 $-1 #
loop $-1 $-1 $73 $99 #
vertex $-1 $44 $124 #
vertex $-1 $44 $125 #
straight-curve $-1 66.787926877651302 0 19.064355478290025 0 1 0 I I #
face $-1 $-1 $126 $10 $-1 $127 reversed single #
loop $-1 $-1 $85 $45 #
plane-surface $-1 0 0 19.064355478290025 0 0 1 1 0 0 forward_v I I I I #
coedge $-1 $128 $129 $84 $130 forward $46 $-1 #
coedge $-1 $84 $48 $50 $90 reversed $29 $-1 #
coedge $-1 $48 $83 $82 $130 reversed $29 $-1 #
coedge $-1 $131 $51 $48 $86 forward $80 $-1 #
edge $-1 $93 -42.99189668100081 $132 -34.765246464178361 $85 $133 forward 7 unknown #
coedge $-1 $50 $49 $128 $134 reversed $19 $-1 #
coedge $-1 $135 $136 $49 $89 forward $126 $-1 #
edge $-1 $137 -8.8901467900025555 $92 6.2146288028275443 $88 $138 forward 7 unknown #
edge $-1 $139 -5.1979138280344745e-014 $93 15.10477559283005 $83 $140 forward 7 unknown #
coedge $-1 $51 $131 $135 $141 forward $80 $-1 #
vertex $-1 $89 $142 #
vertex $-1 $52 $143 #
straight-curve $-1 26.185322989842057 -34.268995056759636 19.064355478290025 -1 0 0 I I #
coedge $-1 $95 $95 $-1 $144 reversed $55 $-1 #
edge $-1 $145 0 $145 6.2831853071796004 $56 $146 forward 7 unknown #
vertex $-1 $59 $147 #
ellipse-curve $-1 52.370645979684113 -38.382320165170853 12.730390055274789 0 -0.83867057594974714 0.54463902268945019 2.5 0 0 1 I I #
face $-1 $-1 $75 $9 $-1 $148 reversed single #
loop $-1 $-1 $115 $60 #
plane-surface $-1 0 42.495645273582085 0 0 -1 0 0 0 -1 forward_v I I I I #
coedge $-1 $149 $113 $116 $150 forward $61 $-1 #
coedge $-1 $119 $63 $64 $107 reversed $38 $-1 #
coedge $-1 $113 $149 $63 $105 reversed $61 $-1 #
edge $-1 $120 -19.064355478290025 $151 19.064355478290025 $104 $152 forward 7 unknown #
coedge $-1 $65 $64 $149 $153 forward $25 $-1 #
edge $-1 $111 -66.787926877651302 $151 66.787926877651302 $103 $154 forward 7 unknown #
coedge $-1 $116 $115 $65 $109 reversed $100 $-1 #
edge $-1 $155 -66.787926877651302 $110 66.787926877651302 $108 $156 forward 7 unknown #
vertex $-1 $67 $157 #
vertex $-1 $122 $158 #
straight-curve $-1 66.787926877651302 0 -19.064355478290025 0 -1 0 I I #
coedge $-1 $102 $104 $68 $114 reversed $61 $-1 #
edge $-1 $117 -42.495645273582085 $120 42.495645273582085 $113 $159 forward 7 unknown #
coedge $-1 $108 $69 $74 $123 forward $100 $-1 #
coedge $-1 $69 $108 $102 $150 reversed $100 $-1 #
vertex $-1 $70 $160 #
straight-curve $-1 0 42.495645273582085 19.064355478290025 -1 0 0 I I #
coedge $-1 $71 $103 $73 $122 reversed $38 $-1 #
vertex $-1 $114 $161 #
straight-curve $-1 0 -42.495645273582085 19.064355478290025 1 0 0 I I #
edge $-1 $76 -19.064355478290025 $111 19.064355478290025 $73 $162 forward 7 unknown #
edge $-1 $77 -19.064355478290025 $110 19.064355478290025 $74 $163 forward 7 unknown #
point $-1 66.787926877651302 -42.495645273582085 19.064355478290025 #
point $-1 66.787926877651302 42.495645273582085 19.064355478290025 #
loop $-1 $-1 $88 $79 #
plane-surface $-1 66.787926877651302 0 0 -1 0 0 0 0 1 forward_v I I I I #
coedge $-1 $164 $82 $87 $134 forward $46 $-1 #
coedge $-1 $82 $164 $131 $165 reversed $46 $-1 #
edge $-1 $132 20.509168059938226 $139 33.177098905968727 $82 $166 forward 7 unknown #
coedge $-1 $91 $85 $129 $165 forward $80 $-1 #
vertex $-1 $165 $167 #
straight-curve $-1 37.953365081716925 -77.260891737760446 19.064355478290025 0 -1 0 I I #
edge $-1 $139 11.768042091874868 $137 40.602603887809245 $128 $168 forward 7 unknown #
coedge $-1 $136 $88 $91 $141 reversed $126 $-1 #
coedge $-1 $88 $135 $164 $169 forward $126 $-1 #
vertex $-1 $134 $170 #
straight-curve $-1 66.787926877651302 -37.653724414309337 13.852329160908761 0 0.54463902268945019 0.83867057594974714 I I #
vertex $-1 $134 $171 #
straight-curve $-1 37.953365081716925 -42.495645273582056 6.396424632259567 0 0.54463902268945019 0.83867057594974714 I I #
edge $-1 $172 -42.495645273582085 $92 -34.268995056759636 $135 $173 forward 7 unknown #
point $-1 66.787926877651302 -34.268995056759636 19.064355478290025 #
point $-1 37.953365081716925 -34.268995056759636 19.064355478290025 #
edge $-1 $174 1 $174 0 $95 $-1 forward 7 unknown #
vertex $-1 $96 $175 #
ellipse-curve $-1 52.370645979684113 -30.460163218609836 7.5856813452055727 0 -0.83867057594974714 0.54463902268945019 2.5 0 0 1 I I #
point $-1 54.870645979684113 -38.382320165170881 12.730390055274809 #
plane-surface $-1 66.787926877651302 0 0 -1 0 0 0 0 1 forward_v I I I I #
coedge $-1 $104 $102 $106 $153 reversed $61 $-1 #
edge $-1 $117 -19.064355478290025 $155 19.064355478290025 $116 $176 forward 7 unknown #
vertex $-1 $153 $177 #
straight-curve $-1 -66.787926877651302 -42.495645273582085 0 0 0 -1 I I #
edge $-1 $151 -42.495645273582085 $155 42.495645273582085 $149 $178 forward 7 unknown #
straight-curve $-1 0 -42.495645273582085 -19.064355478290025 -1 0 0 I I #
vertex $-1 $109 $179 #
straight-curve $-1 0 42.495645273582085 -19.064355478290025 1 0 0 I I #
point $-1 66.787926877651302 42.495645273582085 -19.064355478290025 #
point $-1 66.787926877651302 -42.495645273582085 -19.064355478290025 #
straight-curve $-1 -66.787926877651302 0 19.064355478290025 0 -1 0 I I #
point $-1 -66.787926877651302 42.495645273582085 19.064355478290025 #
point $-1 -66.787926877651302 -42.495645273582085 19.064355478290025 #
straight-curve $-1 66.787926877651302 -42.495645273582085 0 0 0 -1 I I #
straight-curve $-1 66.787926877651302 42.495645273582085 0 0 0 -1 I I #
coedge $-1 $129 $128 $136 $169 reversed $46 $-1 #
edge $-1 $132 37.953365081716925 $172 66.787926877651302 $129 $180 forward 7 unknown #
straight-curve $-1 37.953365081716925 -42.495645273582085 39.573523538228251 0 0 -1 I I #
point $-1 37.953365081716925 -42.495645273582085 19.064355478290025 #
straight-curve $-1 26.185322989842057 -42.495645273582085 6.396424632259528 1 0 0 I I #
edge $-1 $172 -19.064355478290025 $137 -6.3964246322595235 $136 $181 forward 7 unknown #
point $-1 66.787926877651302 -42.495645273582085 6.3964246322595235 #
point $-1 37.953365081716925 -42.495645273582085 6.3964246322595235 #
vertex $-1 $141 $182 #
straight-curve $-1 66.787926877651302 0 19.064355478290025 0 1 0 I I #
vertex $-1 $144 $183 #
point $-1 54.870645979684113 -30.460163218609836 7.5856813452055727 #
straight-curve $-1 -66.787926877651302 42.495645273582085 0 0 0 -1 I I #
point $-1 -66.787926877651302 -42.495645273582085 -19.064355478290025 #
straight-curve $-1 -66.787926877651302 0 -19.064355478290025 0 1 0 I I #
point $-1 -66.787926877651302 42.495645273582085 -19.064355478290025 #
straight-curve $-1 0 -42.495645273582085 19.064355478290025 1 0 0 I I #
straight-curve $-1 66.787926877651302 -42.495645273582085 0 0 0 -1 I I #
point $-1 66.787926877651302 -42.495645273582085 19.064355478290025 #
point $-1 52.370645979684113 -28.363486778735471 6.2240837884819475 #
End-of-ACIS-data 