500 0 9 0           
7 Unknown 11 ACIS 5.0 NT 24 Fri Mar 26 20:38:14 1999 
-1 9.9999999999999995e-007 1e-010 
body $-1 $9 $-1 $10 #
body $-1 $11 $-1 $12 #
body $-1 $13 $-1 $14 #
body $-1 $15 $-1 $16 #
body $-1 $17 $-1 $18 #
body $-1 $19 $-1 $20 #
body $-1 $21 $-1 $22 #
body $-1 $23 $-1 $24 #
body $-1 $25 $-1 $26 #
lump $-1 $-1 $27 $0 #
transform $-1 1 0 0 0 1 0 0 0 1 52.204962309640798 28.045250741306074 8.9380702831014496 1 rotate no_reflect no_shear #
lump $-1 $-1 $28 $1 #
transform $-1 1 0 0 0 1 0 0 0 1 52.204962309640798 28.045250741306074 8.9380702831014496 1 rotate no_reflect no_shear #
lump $-1 $-1 $29 $2 #
transform $-1 1 0 0 0 1 0 0 0 1 52.204962309640798 28.045250741306074 8.9380702831014496 1 rotate no_reflect no_shear #
lump $-1 $-1 $30 $3 #
transform $-1 1 0 0 0 1 0 0 0 1 52.204962309640798 28.045250741306074 8.9380702831014496 1 rotate no_reflect no_shear #
lump $-1 $-1 $31 $4 #
transform $-1 1 0 0 0 1 0 0 0 1 52.204962309640798 28.045250741306074 8.9380702831014496 1 rotate no_reflect no_shear #
lump $-1 $-1 $32 $5 #
transform $-1 1 0 0 0 1 0 0 0 1 52.204962309640798 28.045250741306074 8.9380702831014496 1 rotate no_reflect no_shear #
lump $-1 $-1 $33 $6 #
transform $-1 1 0 0 0 1 0 0 0 1 52.204962309640798 28.045250741306074 8.9380702831014496 1 rotate no_reflect no_shear #
lump $-1 $-1 $34 $7 #
transform $-1 1 0 0 0 1 0 0 0 1 52.204962309640798 28.045250741306074 8.9380702831014496 1 rotate no_reflect no_shear #
lump $-1 $-1 $35 $8 #
transform $-1 1 0 0 0 1 0 0 0 1 52.204962309640798 28.045250741306074 8.9380702831014496 1 rotate no_reflect no_shear #
shell $-1 $-1 $-1 $36 $-1 $9 #
shell $-1 $-1 $-1 $37 $-1 $11 #
shell $-1 $-1 $-1 $38 $-1 $13 #
shell $-1 $-1 $-1 $39 $-1 $15 #
shell $-1 $-1 $-1 $40 $-1 $17 #
shell $-1 $-1 $-1 $41 $-1 $19 #
shell $-1 $-1 $-1 $42 $-1 $21 #
shell $-1 $-1 $-1 $43 $-1 $23 #
shell $-1 $-1 $-1 $44 $-1 $25 #
face $-1 $45 $46 $27 $-1 $47 forward single #
face $-1 $48 $49 $28 $-1 $50 reversed single #
face $-1 $51 $52 $29 $-1 $53 forward single #
face $-1 $54 $55 $30 $-1 $56 reversed single #
face $-1 $57 $58 $31 $-1 $59 forward single #
face $-1 $60 $61 $32 $-1 $62 reversed single #
face $-1 $63 $64 $33 $-1 $65 forward single #
face $-1 $66 $67 $34 $-1 $68 forward single #
face $-1 $69 $70 $35 $-1 $71 forward single #
face $-1 $72 $73 $27 $-1 $74 reversed single #
loop $-1 $-1 $75 $36 #
plane-surface $-1 0 0 8.9380702831014496 0 0 1 1 0 0 forward_v I I I I #
face $-1 $76 $77 $28 $-1 $78 reversed single #
loop $-1 $-1 $79 $37 #
plane-surface $-1 -37.723417203659594 -24.468094097626285 0 1 0 0 0 0 -1 forward_v I I I I #
face $-1 $80 $81 $29 $-1 $82 reversed single #
loop $-1 $-1 $83 $38 #
plane-surface $-1 0 28.045250741306074 0 0 -1 0 0 0 -1 forward_v I I I I #
face $-1 $84 $85 $30 $-1 $86 reversed single #
loop $-1 $-1 $87 $39 #
plane-surface $-1 -129.79665838358386 -20.890937453946499 73.355823703559736 0 1 0 -0.74314483375859142 0 0.66913059716165679 forward_v I I I I #
face $-1 $88 $89 $31 $-1 $90 forward single #
loop $-1 $91 $92 $40 #
cone-surface $-1 -48.901105735530415 -16.630315231046453 5.4478637276775679 0.74314483375859142 0 -0.66913059716165679 1.0036958957424851 0 1.1147172506378871 1 I I 0 1 1.5 forward I I I I #
face $-1 $93 $94 $32 $-1 $95 reversed single #
loop $-1 $-1 $96 $41 #
plane-surface $-1 52.204964022849573 -9.8036613606601222 149.87480859901771 0 -1 0 -0.70710678939079041 0 -0.70710677298230451 forward_v I I I I #
face $-1 $97 $98 $33 $-1 $99 forward single #
loop $-1 $100 $101 $42 #
cone-surface $-1 48.276497591251704 -18.673482235289221 5.0096054999068063 -0.70710678939079041 0 -0.70710677298230451 0.35355338649115226 0 -0.35355339469539521 1 I I 0 1 0.5 forward I I I I #
face $-1 $102 $103 $34 $-1 $104 forward single #
loop $-1 $105 $106 $43 #
cone-surface $-1 48.276497591251704 -15.347299407303309 5.0096054999068063 -0.70710678939079041 0 -0.70710677298230451 0.35355338649115226 0 -0.35355339469539521 1 I I 0 1 0.5 forward I I I I #
face $-1 $107 $108 $35 $-1 $109 forward single #
loop $-1 $110 $111 $44 #
cone-surface $-1 48.276497591251704 -12.021116579317397 5.0096054999068063 -0.70710678939079041 0 -0.70710677298230451 0.35355338649115226 0 -0.35355339469539521 1 I I 0 1 0.5 forward I I I I #
face $-1 $112 $113 $27 $-1 $114 reversed single #
loop $-1 $-1 $115 $45 #
plane-surface $-1 0 0 -8.9380702831014496 0 0 1 1 0 0 forward_v I I I I #
coedge $-1 $116 $117 $118 $119 forward $46 $-1 #
face $-1 $120 $121 $28 $-1 $122 reversed single #
loop $-1 $-1 $123 $48 #
plane-surface $-1 -36.026119473548746 -20.890937453946496 0 0 -1 0 0 0 -1 forward_v I I I I #
coedge $-1 $124 $125 $126 $127 forward $49 $-1 #
face $-1 $128 $129 $29 $-1 $130 forward single #
loop $-1 $-1 $131 $51 #
plane-surface $-1 -52.204962309640798 0 0 1 0 0 0 0 -1 forward_v I I I I #
coedge $-1 $132 $133 $134 $135 forward $52 $-1 #
face $-1 $136 $137 $30 $-1 $138 reversed single #
loop $-1 $-1 $139 $54 #
plane-surface $-1 -52.204962309640777 -16.630315231046453 3.4919484934562632 -0.74314483375859142 0 0.66913059716165679 0.66913059716165679 0 0.74314483375859142 forward_v I I I I #
coedge $-1 $140 $141 $142 $143 reversed $55 $-1 #
face $-1 $-1 $144 $31 $-1 $145 forward single #
loop $-1 $146 $147 $57 #
cone-surface $-1 -47.491745517645761 -16.630315231046453 4.1788701192050279 0.74314483375859142 0 -0.66913059716165679 0.50184794787124254 0 0.55735862531894353 1 I I -0.70710678118654757 0.70710678118654757 0.75 forward I I I I #
loop $-1 $-1 $148 $40 #
coedge $-1 $92 $92 $149 $150 reversed $58 $-1 #
face $-1 $151 $152 $32 $-1 $153 reversed single #
loop $-1 $-1 $154 $60 #
plane-surface $-1 -21.624002555225083 -15.347299407303311 76.045843734151831 0.70710678939079041 0 0.70710677298230451 0.70710677298230451 0 -0.70710678939079041 forward_v I I I I #
coedge $-1 $155 $156 $157 $158 reversed $61 $-1 #
face $-1 $-1 $159 $33 $-1 $160 forward single #
loop $-1 $161 $162 $63 #
cone-surface $-1 47.531852661044077 -18.673482235289221 4.2649605869787415 -0.70710678939079041 0 -0.70710677298230451 0.17677669324557613 0 -0.1767766973476976 1 I I -0.70710678118654746 0.70710678118654746 0.25 forward I I I I #
loop $-1 $-1 $163 $42 #
coedge $-1 $101 $101 $164 $165 reversed $64 $-1 #
face $-1 $-1 $166 $34 $-1 $167 forward single #
loop $-1 $168 $169 $66 #
cone-surface $-1 47.531852661044077 -15.347299407303309 4.2649605869787415 -0.70710678939079041 0 -0.70710677298230451 0.17677669324557613 0 -0.1767766973476976 1 I I -0.70710678118654746 0.70710678118654746 0.25 forward I I I I #
loop $-1 $-1 $170 $43 #
coedge $-1 $106 $106 $171 $172 reversed $67 $-1 #
face $-1 $-1 $173 $35 $-1 $174 forward single #
loop $-1 $175 $176 $69 #
cone-surface $-1 47.531852661044077 -12.021116579317397 4.2649605869787415 -0.70710678939079041 0 -0.70710677298230451 0.17677669324557613 0 -0.1767766973476976 1 I I -0.70710678118654746 0.70710678118654746 0.25 forward I I I I #
loop $-1 $-1 $177 $44 #
coedge $-1 $111 $111 $178 $179 reversed $70 $-1 #
face $-1 $180 $181 $27 $-1 $182 reversed single #
loop $-1 $-1 $183 $72 #
plane-surface $-1 0 -28.045250741306074 0 0 1 0 0 0 1 forward_v I I I I #
coedge $-1 $184 $185 $186 $187 forward $73 $-1 #
coedge $-1 $188 $75 $189 $190 forward $46 $-1 #
coedge $-1 $75 $188 $191 $192 forward $46 $-1 #
coedge $-1 $193 $194 $75 $119 reversed $195 $-1 #
edge $-1 $196 -28.045250741306074 $197 28.045250741306074 $118 $198 forward 7 unknown #
face $-1 $199 $200 $28 $-1 $201 forward single #
loop $-1 $-1 $202 $76 #
plane-surface $-1 -34.328821743437899 -24.468094097626285 0 -1 0 0 0 0 1 forward_v I I I I #
coedge $-1 $203 $204 $205 $206 forward $77 $-1 #
coedge $-1 $207 $79 $208 $209 reversed $49 $-1 #
coedge $-1 $79 $207 $210 $211 reversed $49 $-1 #
coedge $-1 $204 $203 $79 $127 reversed $77 $-1 #
edge $-1 $212 -8.9380702831014496 $213 8.9380702831014496 $126 $214 forward 7 unknown #
face $-1 $215 $216 $29 $-1 $217 reversed single #
loop $-1 $-1 $218 $80 #
plane-surface $-1 0 0 8.9380702831014496 0 0 1 1 0 0 forward_v I I I I #
coedge $-1 $219 $220 $133 $221 forward $81 $-1 #
coedge $-1 $222 $83 $223 $224 reversed $52 $-1 #
coedge $-1 $83 $222 $131 $221 reversed $52 $-1 #
coedge $-1 $225 $226 $83 $135 reversed $216 $-1 #
edge $-1 $227 -52.204962309640798 $228 52.204962309640798 $134 $229 forward 7 unknown #
face $-1 $230 $231 $30 $-1 $232 forward single #
loop $-1 $-1 $233 $84 #
plane-surface $-1 -129.79665838358386 -12.369693008146408 73.355823703559736 0 -1 0 0.74314483375859142 0 -0.66913059716165679 forward_v I I I I #
coedge $-1 $234 $235 $236 $237 reversed $85 $-1 #
coedge $-1 $141 $87 $238 $239 reversed $55 $-1 #
coedge $-1 $87 $140 $234 $240 reversed $55 $-1 #
coedge $-1 $236 $241 $87 $143 forward $231 $-1 #
edge $-1 $242 12.693366882151132 $243 17.597076845240515 $142 $244 forward 7 unknown #
loop $-1 $-1 $149 $88 #
plane-surface $-1 -52.204962309640777 -16.630315231046453 3.4919484934562632 -0.74314483375859142 0 0.66913059716165679 0.66913059716165679 0 0.74314483375859142 forward_v I I I I #
loop $-1 $-1 $245 $57 #
coedge $-1 $147 $147 $148 $246 reversed $89 $-1 #
coedge $-1 $148 $148 $147 $246 forward $91 $-1 #
coedge $-1 $149 $149 $92 $150 forward $144 $-1 #
edge $-1 $247 0 $247 6.2831853071796004 $149 $248 forward 7 unknown #
face $-1 $249 $250 $32 $-1 $251 reversed single #
loop $-1 $-1 $252 $93 #
plane-surface $-1 52.204964022849573 -20.890937453946499 149.87480859901771 0 1 0 0.70710678939079041 0 0.70710677298230451 forward_v I I I I #
coedge $-1 $253 $254 $255 $256 reversed $94 $-1 #
coedge $-1 $156 $96 $257 $258 reversed $61 $-1 #
coedge $-1 $96 $155 $253 $259 reversed $61 $-1 #
coedge $-1 $255 $260 $96 $158 forward $261 $-1 #
edge $-1 $262 -26.102480298216012 $263 -19.381287327157711 $157 $264 forward 7 unknown #
loop $-1 $-1 $164 $97 #
plane-surface $-1 -21.624002555225083 -15.347299407303311 76.045843734151831 0.70710678939079041 0 0.70710677298230451 0.70710677298230451 0 -0.70710678939079041 forward_v I I I I #
loop $-1 $-1 $265 $63 #
coedge $-1 $162 $162 $163 $266 reversed $98 $-1 #
coedge $-1 $163 $163 $162 $266 forward $100 $-1 #
coedge $-1 $164 $164 $101 $165 forward $159 $-1 #
edge $-1 $267 0 $267 6.2831853071796004 $164 $268 forward 7 unknown #
loop $-1 $-1 $171 $102 #
plane-surface $-1 -21.624002555225083 -15.347299407303311 76.045843734151831 0.70710678939079041 0 0.70710677298230451 0.70710677298230451 0 -0.70710678939079041 forward_v I I I I #
loop $-1 $-1 $269 $66 #
coedge $-1 $169 $169 $170 $270 reversed $103 $-1 #
coedge $-1 $170 $170 $169 $270 forward $105 $-1 #
coedge $-1 $171 $171 $106 $172 forward $166 $-1 #
edge $-1 $271 0 $271 6.2831853071796004 $171 $272 forward 7 unknown #
loop $-1 $-1 $178 $107 #
plane-surface $-1 -21.624002555225083 -15.347299407303311 76.045843734151831 0.70710678939079041 0 0.70710677298230451 0.70710677298230451 0 -0.70710678939079041 forward_v I I I I #
loop $-1 $-1 $273 $69 #
coedge $-1 $176 $176 $177 $274 reversed $108 $-1 #
coedge $-1 $177 $177 $176 $274 forward $110 $-1 #
coedge $-1 $178 $178 $111 $179 forward $173 $-1 #
edge $-1 $275 0 $275 6.2831853071796004 $178 $276 forward 7 unknown #
face $-1 $277 $278 $27 $-1 $279 reversed single #
loop $-1 $-1 $280 $112 #
plane-surface $-1 -52.204962309640798 0 0 1 0 0 0 0 -1 forward_v I I I I #
coedge $-1 $281 $191 $282 $283 forward $113 $-1 #
coedge $-1 $284 $115 $281 $285 forward $73 $-1 #
coedge $-1 $115 $284 $286 $287 forward $73 $-1 #
coedge $-1 $194 $193 $115 $187 reversed $195 $-1 #
edge $-1 $288 -28.045250741306074 $289 28.045250741306074 $186 $290 forward 7 unknown #
coedge $-1 $117 $116 $291 $292 forward $46 $-1 #
coedge $-1 $293 $294 $116 $190 reversed $278 $-1 #
edge $-1 $197 -52.204962309640798 $295 52.204962309640798 $189 $296 forward 7 unknown #
coedge $-1 $183 $297 $117 $192 reversed $113 $-1 #
edge $-1 $298 -52.204962309640798 $196 52.204962309640798 $191 $299 forward 7 unknown #
coedge $-1 $186 $118 $297 $300 forward $195 $-1 #
coedge $-1 $118 $186 $293 $301 reversed $195 $-1 #
loop $-1 $-1 $193 $277 #
vertex $-1 $119 $302 #
vertex $-1 $119 $303 #
straight-curve $-1 52.204962309640798 0 8.9380702831014496 0 1 0 I I #
face $-1 $304 $305 $28 $-1 $306 reversed single #
loop $-1 $-1 $307 $120 #
plane-surface $-1 0 0 8.9380702831014496 0 0 1 1 0 0 forward_v I I I I #
coedge $-1 $308 $309 $310 $311 reversed $121 $-1 #
coedge $-1 $126 $123 $312 $313 reversed $77 $-1 #
coedge $-1 $123 $126 $314 $315 reversed $77 $-1 #
coedge $-1 $309 $308 $123 $206 reversed $121 $-1 #
edge $-1 $316 -8.9380702831014496 $317 8.9380702831014496 $205 $318 forward 7 unknown #
coedge $-1 $125 $124 $319 $320 reversed $49 $-1 #
coedge $-1 $312 $321 $124 $209 forward $305 $-1 #
edge $-1 $322 -15.811203692492931 $213 -8.6568904051333533 $208 $323 forward 7 unknown #
coedge $-1 $324 $314 $125 $211 forward $200 $-1 #
edge $-1 $212 8.6568904051333533 $325 15.811203692492931 $210 $326 forward 7 unknown #
vertex $-1 $211 $327 #
vertex $-1 $209 $328 #
straight-curve $-1 -37.723417203659594 -20.890937453946496 0 0 0 -1 I I #
face $-1 $329 $330 $29 $-1 $331 reversed single #
loop $-1 $-1 $226 $128 #
plane-surface $-1 0 31.785696902881003 5.9380702831014496 0 0 1 1 0 0 forward_v I I I I #
coedge $-1 $332 $333 $222 $334 forward $129 $-1 #
coedge $-1 $335 $131 $333 $336 reversed $81 $-1 #
coedge $-1 $131 $335 $225 $337 reversed $81 $-1 #
edge $-1 $227 5.9380702831014496 $338 8.9380702831014496 $131 $339 forward 7 unknown #
coedge $-1 $133 $132 $218 $334 reversed $52 $-1 #
coedge $-1 $340 $341 $132 $224 forward $342 $-1 #
edge $-1 $343 -8.9380702831014496 $228 -5.9380702831014496 $223 $344 forward 7 unknown #
coedge $-1 $345 $134 $220 $337 forward $216 $-1 #
coedge $-1 $134 $345 $340 $346 forward $216 $-1 #
vertex $-1 $221 $347 #
vertex $-1 $224 $348 #
straight-curve $-1 0 28.045250741306074 5.9380702831014496 1 0 0 I I #
face $-1 $-1 $349 $30 $-1 $350 reversed single #
loop $-1 $-1 $142 $136 #
plane-surface $-1 0 0 8.9380702831014496 0 0 1 1 0 0 forward_v I I I I #
coedge $-1 $351 $352 $353 $354 reversed $137 $-1 #
coedge $-1 $355 $139 $141 $240 forward $85 $-1 #
coedge $-1 $139 $355 $351 $356 forward $85 $-1 #
coedge $-1 $353 $142 $139 $237 forward $231 $-1 #
edge $-1 $243 -12.575779838423273 $357 -4.0545353926231815 $236 $358 forward 7 unknown #
coedge $-1 $359 $360 $140 $239 forward $349 $-1 #
edge $-1 $361 -33.185963358323626 $242 -27.739841568678418 $238 $362 forward 7 unknown #
edge $-1 $243 -7.3284796479044658 $361 3.175457446012547e-014 $141 $363 forward 7 unknown #
coedge $-1 $142 $353 $359 $364 forward $231 $-1 #
vertex $-1 $143 $365 #
vertex $-1 $143 $366 #
straight-curve $-1 -64.89832919179193 -20.890937453946499 8.938070283101446 1 0 0 I I #
coedge $-1 $245 $245 $-1 $367 reversed $146 $-1 #
edge $-1 $368 0 $368 6.2831853071796004 $147 $369 forward 7 unknown #
vertex $-1 $150 $370 #
ellipse-curve $-1 -49.753107328096107 -16.630315231046453 6.2150093882788466 -0.74314483375859142 0 0.66913059716165679 1.0036958957424851 0 1.1147172506378871 1 I I #
face $-1 $-1 $261 $32 $-1 $371 forward single #
loop $-1 $-1 $372 $151 #
plane-surface $-1 52.204962309640798 0 0 -1 0 0 0 0 1 forward_v I I I I #
coedge $-1 $373 $374 $375 $376 reversed $152 $-1 #
coedge $-1 $377 $154 $156 $259 forward $94 $-1 #
coedge $-1 $154 $377 $373 $378 forward $94 $-1 #
coedge $-1 $375 $157 $154 $256 forward $261 $-1 #
edge $-1 $263 2.1300116570084668 $379 13.217287750294844 $255 $380 forward 7 unknown #
coedge $-1 $381 $382 $155 $258 forward $250 $-1 #
edge $-1 $383 -72.720527143431681 $262 -65.999334016407403 $257 $384 forward 7 unknown #
edge $-1 $263 94.904722253999651 $383 104.40992461928163 $156 $385 forward 7 unknown #
coedge $-1 $157 $375 $381 $386 forward $261 $-1 #
loop $-1 $-1 $375 $249 #
vertex $-1 $258 $387 #
vertex $-1 $158 $388 #
straight-curve $-1 26.102482011424787 -9.8036613606601222 8.9380702831014531 -1 0 0 I I #
coedge $-1 $265 $265 $-1 $389 reversed $161 $-1 #
edge $-1 $390 0 $390 6.2831853071796004 $162 $391 forward 7 unknown #
vertex $-1 $165 $392 #
ellipse-curve $-1 48.844365824111648 -18.673482235289221 5.5774737195893085 0.70710678939079041 0 0.70710677298230451 0.35355338649115226 0 -0.35355339469539521 1 I I #
coedge $-1 $269 $269 $-1 $393 reversed $168 $-1 #
edge $-1 $394 0 $394 6.2831853071796004 $169 $395 forward 7 unknown #
vertex $-1 $172 $396 #
ellipse-curve $-1 48.844365824111648 -15.347299407303309 5.5774737195893085 0.70710678939079041 0 0.70710677298230451 0.35355338649115226 0 -0.35355339469539521 1 I I #
coedge $-1 $273 $273 $-1 $397 reversed $175 $-1 #
edge $-1 $398 0 $398 6.2831853071796004 $176 $399 forward 7 unknown #
vertex $-1 $179 $400 #
ellipse-curve $-1 48.844365824111648 -12.021116579317397 5.5774737195893085 0.70710678939079041 0 0.70710677298230451 0.35355338649115226 0 -0.35355339469539521 1 I I #
face $-1 $-1 $195 $27 $-1 $401 reversed single #
loop $-1 $-1 $293 $180 #
plane-surface $-1 0 28.045250741306074 0 0 -1 0 0 0 -1 forward_v I I I I #
coedge $-1 $402 $291 $294 $403 forward $181 $-1 #
coedge $-1 $297 $183 $184 $285 reversed $113 $-1 #
coedge $-1 $291 $402 $183 $283 reversed $181 $-1 #
edge $-1 $298 -8.9380702831014496 $404 8.9380702831014496 $282 $405 forward 7 unknown #
coedge $-1 $185 $184 $402 $406 forward $73 $-1 #
edge $-1 $289 -52.204962309640798 $404 52.204962309640798 $281 $407 forward 7 unknown #
coedge $-1 $294 $293 $185 $287 reversed $278 $-1 #
edge $-1 $408 -52.204962309640798 $288 52.204962309640798 $286 $409 forward 7 unknown #
vertex $-1 $187 $410 #
vertex $-1 $300 $411 #
straight-curve $-1 52.204962309640798 0 -8.9380702831014496 0 -1 0 I I #
coedge $-1 $280 $282 $188 $292 reversed $181 $-1 #
edge $-1 $295 -28.045250741306074 $298 28.045250741306074 $291 $412 forward 7 unknown #
coedge $-1 $286 $189 $194 $301 forward $278 $-1 #
coedge $-1 $189 $286 $280 $403 reversed $278 $-1 #
vertex $-1 $190 $413 #
straight-curve $-1 0 28.045250741306074 8.9380702831014496 -1 0 0 I I #
coedge $-1 $191 $281 $193 $300 reversed $113 $-1 #
vertex $-1 $292 $414 #
straight-curve $-1 0 -28.045250741306074 8.9380702831014496 1 0 0 I I #
edge $-1 $196 -8.9380702831014496 $289 8.9380702831014496 $193 $415 forward 7 unknown #
edge $-1 $197 -8.9380702831014496 $288 8.9380702831014496 $194 $416 forward 7 unknown #
point $-1 52.204962309640798 -28.045250741306074 8.9380702831014496 #
point $-1 52.204962309640798 28.045250741306074 8.9380702831014496 #
face $-1 $-1 $417 $28 $-1 $418 reversed single #
loop $-1 $-1 $419 $199 #
plane-surface $-1 0 0 -8.9380702831014496 0 0 1 1 0 0 forward_v I I I I #
coedge $-1 $314 $324 $309 $420 forward $200 $-1 #
coedge $-1 $205 $202 $419 $421 reversed $121 $-1 #
coedge $-1 $202 $205 $307 $420 reversed $121 $-1 #
coedge $-1 $422 $423 $202 $311 forward $417 $-1 #
edge $-1 $424 -8.9380702831014496 $425 8.9380702831014496 $310 $426 forward 7 unknown #
coedge $-1 $419 $208 $203 $313 forward $305 $-1 #
edge $-1 $213 -19.71035746688522 $317 -16.315762006663526 $312 $427 forward 7 unknown #
coedge $-1 $210 $307 $204 $315 forward $200 $-1 #
edge $-1 $316 16.315762006663526 $212 19.71035746688522 $314 $428 forward 7 unknown #
vertex $-1 $315 $429 #
vertex $-1 $313 $430 #
straight-curve $-1 -34.328821743437899 -20.890937453946496 0 0 0 -1 I I #
coedge $-1 $423 $422 $207 $320 forward $417 $-1 #
edge $-1 $325 -8.9380702831014496 $322 8.9380702831014496 $319 $431 forward 7 unknown #
coedge $-1 $208 $419 $423 $432 forward $305 $-1 #
vertex $-1 $209 $433 #
straight-curve $-1 -37.723417203659594 -12.234047048813142 -8.9380702831014496 0 1 0 I I #
coedge $-1 $307 $210 $422 $434 forward $200 $-1 #
vertex $-1 $434 $435 #
straight-curve $-1 -37.723417203659594 -12.234047048813142 8.9380702831014496 0 -1 0 I I #
point $-1 -37.723417203659594 -20.890937453946496 8.9380702831014496 #
point $-1 -37.723417203659594 -20.890937453946496 -8.9380702831014496 #
face $-1 $-1 $342 $29 $-1 $436 reversed single #
loop $-1 $-1 $437 $215 #
plane-surface $-1 0 35.526143064455937 7.4380702831014496 0 -1 0 0 0 -1 forward_v I I I I #
coedge $-1 $438 $218 $341 $439 forward $129 $-1 #
coedge $-1 $218 $438 $219 $336 forward $129 $-1 #
edge $-1 $338 -52.204962309640798 $343 52.204962309640798 $218 $440 forward 7 unknown #
coedge $-1 $220 $219 $441 $442 forward $81 $-1 #
edge $-1 $443 -35.526143064455937 $338 -28.045250741306074 $219 $444 forward 7 unknown #
edge $-1 $227 -3.7404461615749334 $445 3.7404461615749334 $220 $446 forward 7 unknown #
vertex $-1 $334 $447 #
straight-curve $-1 -52.204962309640798 28.045250741306074 0 0 0 1 I I #
coedge $-1 $448 $223 $226 $346 reversed $342 $-1 #
coedge $-1 $223 $448 $332 $439 reversed $342 $-1 #
loop $-1 $-1 $223 $329 #
vertex $-1 $439 $449 #
straight-curve $-1 52.204962309640798 28.045250741306074 0 0 0 -1 I I #
coedge $-1 $226 $225 $450 $451 forward $216 $-1 #
edge $-1 $452 -3.7404461615749334 $228 3.7404461615749334 $340 $453 forward 7 unknown #
point $-1 -52.204962309640798 28.04525074130607 5.9380702831014496 #
point $-1 52.204962309640798 28.04525074130607 5.9380702831014496 #
loop $-1 $-1 $238 $230 #
plane-surface $-1 -52.204962309640798 0 0 1 0 0 0 0 -1 forward_v I I I I #
coedge $-1 $352 $233 $235 $356 reversed $137 $-1 #
coedge $-1 $233 $351 $454 $455 reversed $137 $-1 #
coedge $-1 $241 $236 $233 $354 forward $231 $-1 #
edge $-1 $357 -17.597076845240515 $456 -12.693366882151132 $353 $457 forward 7 unknown #
coedge $-1 $235 $234 $360 $458 reversed $85 $-1 #
edge $-1 $459 -3.175457446012547e-014 $357 7.3284796479044658 $351 $460 forward 7 unknown #
vertex $-1 $237 $461 #
straight-curve $-1 -47.301252346551408 -8.3151576155232263 8.9380702831014514 0 1 0 I I #
coedge $-1 $454 $238 $241 $364 reversed $349 $-1 #
coedge $-1 $238 $454 $355 $458 forward $349 $-1 #
vertex $-1 $239 $462 #
straight-curve $-1 -52.204962309640798 -20.890937453946499 36.677911851779868 0 0 1 I I #
straight-curve $-1 -52.204962309640777 -20.890937453946499 3.4919484934562632 -0.66913059716165679 0 -0.74314483375859142 I I #
edge $-1 $456 12.369693008146408 $242 20.890937453946499 $359 $463 forward 7 unknown #
point $-1 -52.204962309640798 -20.890937453946499 8.9380702831014496 #
point $-1 -47.301252346551415 -20.890937453946499 8.9380702831014496 #
edge $-1 $464 1 $464 0 $245 $-1 forward 7 unknown #
vertex $-1 $246 $465 #
ellipse-curve $-1 -48.049104142964701 -16.630315231046453 4.6807180670762705 -0.74314483375859142 0 0.66913059716165679 1.0036958957424851 0 1.1147172506378871 1 I I #
point $-1 -48.749411432353639 -16.630315231046453 7.3297266389167515 #
plane-surface $-1 0 0 8.9380702831014496 0 0 1 1 0 0 forward_v I I I I #
coedge $-1 $382 $381 $374 $466 forward $250 $-1 #
coedge $-1 $374 $252 $254 $378 reversed $152 $-1 #
coedge $-1 $252 $373 $372 $466 reversed $152 $-1 #
coedge $-1 $260 $255 $252 $376 forward $261 $-1 #
edge $-1 $379 19.381287327157711 $467 26.102480298216012 $375 $468 forward 7 unknown #
coedge $-1 $254 $253 $382 $469 reversed $94 $-1 #
edge $-1 $470 -104.40992461928163 $379 -94.904722253999651 $373 $471 forward 7 unknown #
vertex $-1 $256 $472 #
straight-curve $-1 45.483769338582505 -7.6736497036516553 8.938070283101446 0 -1 0 I I #
coedge $-1 $372 $257 $260 $386 reversed $250 $-1 #
coedge $-1 $257 $372 $377 $469 forward $250 $-1 #
vertex $-1 $258 $473 #
straight-curve $-1 52.204962309640798 -9.8036613606601222 74.937404299508856 0 0 1 I I #
straight-curve $-1 -21.624002555225083 -9.8036613606601222 76.045843734151831 0.70710677298230451 0 -0.70710678939079041 I I #
edge $-1 $467 -20.890937453946499 $262 -9.8036613606601222 $381 $474 forward 7 unknown #
point $-1 52.204962309640798 -9.8036613606601222 8.9380702831014496 #
point $-1 45.483769338582498 -9.8036613606601222 8.9380702831014531 #
edge $-1 $475 1 $475 0 $265 $-1 forward 7 unknown #
vertex $-1 $266 $476 #
ellipse-curve $-1 47.708629358391775 -18.673482235289221 4.4417372802243174 0.70710678939079041 0 0.70710677298230451 0.35355338649115226 0 -0.35355339469539521 1 I I #
point $-1 49.197919210602784 -18.673482235289221 5.2239203248938999 #
edge $-1 $477 1 $477 0 $269 $-1 forward 7 unknown #
vertex $-1 $270 $478 #
ellipse-curve $-1 47.708629358391775 -15.347299407303309 4.4417372802243174 0.70710678939079041 0 0.70710677298230451 0.35355338649115226 0 -0.35355339469539521 1 I I #
point $-1 49.197919210602784 -15.347299407303309 5.2239203248938999 #
edge $-1 $479 1 $479 0 $273 $-1 forward 7 unknown #
vertex $-1 $274 $480 #
ellipse-curve $-1 47.708629358391775 -12.021116579317397 4.4417372802243174 0.70710678939079041 0 0.70710677298230451 0.35355338649115226 0 -0.35355339469539521 1 I I #
point $-1 49.197919210602784 -12.021116579317397 5.2239203248938999 #
plane-surface $-1 52.204962309640798 0 0 -1 0 0 0 0 1 forward_v I I I I #
coedge $-1 $282 $280 $284 $406 reversed $181 $-1 #
edge $-1 $295 -8.9380702831014496 $408 8.9380702831014496 $294 $481 forward 7 unknown #
vertex $-1 $406 $482 #
straight-curve $-1 -52.204962309640798 -28.045250741306074 0 0 0 -1 I I #
edge $-1 $404 -28.045250741306074 $408 28.045250741306074 $402 $483 forward 7 unknown #
straight-curve $-1 0 -28.045250741306074 -8.9380702831014496 -1 0 0 I I #
vertex $-1 $287 $484 #
straight-curve $-1 0 28.045250741306074 -8.9380702831014496 1 0 0 I I #
point $-1 52.204962309640798 28.045250741306074 -8.9380702831014496 #
point $-1 52.204962309640798 -28.045250741306074 -8.9380702831014496 #
straight-curve $-1 -52.204962309640798 0 8.9380702831014496 0 -1 0 I I #
point $-1 -52.204962309640798 28.045250741306074 8.9380702831014496 #
point $-1 -52.204962309640798 -28.045250741306074 8.9380702831014496 #
straight-curve $-1 52.204962309640798 -28.045250741306074 0 0 0 -1 I I #
straight-curve $-1 52.204962309640798 28.045250741306074 0 0 0 -1 I I #
loop $-1 $-1 $310 $304 #
plane-surface $-1 0 -28.045250741306074 0 0 1 0 0 0 1 forward_v I I I I #
coedge $-1 $321 $312 $308 $421 forward $305 $-1 #
edge $-1 $425 -15.811203692492931 $316 -8.6568904051333533 $307 $485 forward 7 unknown #
edge $-1 $317 8.6568904051333533 $424 15.811203692492931 $419 $486 forward 7 unknown #
coedge $-1 $319 $310 $324 $434 reversed $417 $-1 #
coedge $-1 $310 $319 $321 $432 reversed $417 $-1 #
vertex $-1 $432 $487 #
vertex $-1 $311 $488 #
straight-curve $-1 -34.328821743437899 -28.045250741306074 0 0 0 1 I I #
straight-curve $-1 -18.013059736774373 -20.890937453946496 -8.9380702831014496 1 0 0 I I #
straight-curve $-1 -18.013059736774373 -20.890937453946496 8.9380702831014496 -1 0 0 I I #
point $-1 -34.328821743437899 -20.890937453946496 8.9380702831014496 #
point $-1 -34.328821743437899 -20.890937453946496 -8.9380702831014496 #
straight-curve $-1 -37.723417203659594 -28.045250741306074 0 0 0 -1 I I #
edge $-1 $424 34.328821743437899 $322 37.723417203659594 $423 $489 forward 7 unknown #
point $-1 -37.723417203659594 -28.045250741306074 -8.9380702831014496 #
edge $-1 $325 -37.723417203659594 $425 -34.328821743437899 $422 $490 forward 7 unknown #
point $-1 -37.723417203659594 -28.045250741306074 8.9380702831014496 #
plane-surface $-1 52.204962309640798 0 0 -1 0 0 0 0 1 forward_v I I I I #
coedge $-1 $450 $491 $448 $492 forward $330 $-1 #
coedge $-1 $333 $332 $491 $493 forward $129 $-1 #
edge $-1 $343 28.045250741306074 $494 35.526143064455937 $341 $495 forward 7 unknown #
straight-curve $-1 0 28.045250741306074 8.9380702831014496 1 0 0 I I #
coedge $-1 $491 $450 $335 $442 reversed $330 $-1 #
edge $-1 $443 -1.5 $445 1.5 $441 $496 forward 7 unknown #
vertex $-1 $493 $497 #
straight-curve $-1 -52.204962309640798 0 8.9380702831014496 0 -1 0 I I #
vertex $-1 $451 $498 #
straight-curve $-1 -52.204962309640798 31.785696902881003 5.9380702831014496 0 1 0 I I #
point $-1 -52.204962309640798 28.045250741306074 8.9380702831014496 #
coedge $-1 $341 $340 $437 $492 reversed $342 $-1 #
point $-1 52.204962309640798 28.045250741306074 8.9380702831014496 #
coedge $-1 $441 $437 $345 $451 reversed $330 $-1 #
edge $-1 $445 -52.204962309640798 $452 52.204962309640798 $450 $499 forward 7 unknown #
vertex $-1 $346 $500 #
straight-curve $-1 52.204962309640798 31.785696902881003 5.9380702831014496 0 -1 0 I I #
coedge $-1 $360 $359 $352 $455 forward $349 $-1 #
edge $-1 $456 27.739841568678418 $459 33.185963358323626 $454 $501 forward 7 unknown #
vertex $-1 $364 $502 #
straight-curve $-1 -64.89832919179193 -12.369693008146408 8.938070283101446 -1 0 0 I I #
edge $-1 $459 4.0545353926231815 $361 12.575779838423273 $360 $503 forward 7 unknown #
vertex $-1 $458 $504 #
straight-curve $-1 -52.204962309640777 -12.369693008146408 3.4919484934562632 0.66913059716165679 0 0.74314483375859142 I I #
point $-1 -47.301252346551415 -12.369693008146408 8.9380702831014496 #
point $-1 -52.204962309640798 -20.890937453946499 3.4919484934562397 #
straight-curve $-1 -52.204962309640798 0 8.9380702831014496 0 -1 0 I I #
vertex $-1 $367 $505 #
point $-1 -47.04540824722222 -16.630315231046453 5.7954353177141575 #
edge $-1 $467 65.999334016407403 $470 72.720527143431681 $372 $506 forward 7 unknown #
vertex $-1 $386 $507 #
straight-curve $-1 26.102482011424787 -20.890937453946499 8.9380702831014531 1 0 0 I I #
edge $-1 $470 -13.217287750294844 $383 -2.1300116570084668 $382 $508 forward 7 unknown #
vertex $-1 $469 $509 #
straight-curve $-1 -21.624002555225083 -20.890937453946499 76.045843734151831 -0.70710677298230451 0 0.70710678939079041 I I #
point $-1 45.483769338582498 -20.890937453946499 8.9380702831014531 #
point $-1 52.204962309640798 -9.8036613606601222 2.2168771560771745 #
straight-curve $-1 52.204962309640798 0 8.9380702831014496 0 1 0 I I #
vertex $-1 $389 $510 #
point $-1 48.062182744882925 -18.673482235289221 4.0881838855289221 #
vertex $-1 $393 $511 #
point $-1 48.062182744882925 -15.347299407303309 4.0881838855289221 #
vertex $-1 $397 $512 #
point $-1 48.062182744882925 -12.021116579317397 4.0881838855289221 #
straight-curve $-1 -52.204962309640798 28.045250741306074 0 0 0 -1 I I #
point $-1 -52.204962309640798 -28.045250741306074 -8.9380702831014496 #
straight-curve $-1 -52.204962309640798 0 -8.9380702831014496 0 1 0 I I #
point $-1 -52.204962309640798 28.045250741306074 -8.9380702831014496 #
straight-curve $-1 -34.328821743437899 -12.234047048813142 8.9380702831014496 0 1 0 I I #
straight-curve $-1 -34.328821743437899 -12.234047048813142 -8.9380702831014496 0 -1 0 I I #
point $-1 -34.328821743437899 -28.045250741306074 -8.9380702831014496 #
point $-1 -34.328821743437899 -28.045250741306074 8.9380702831014496 #
straight-curve $-1 0 -28.045250741306074 -8.9380702831014496 -1 0 0 I I #
straight-curve $-1 0 -28.045250741306074 8.9380702831014496 1 0 0 I I #
coedge $-1 $437 $441 $438 $493 reversed $330 $-1 #
edge $-1 $494 -1.5 $452 1.5 $448 $513 forward 7 unknown #
edge $-1 $494 -52.204962309640798 $443 52.204962309640798 $491 $514 forward 7 unknown #
vertex $-1 $439 $515 #
straight-curve $-1 52.204962309640798 0 8.9380702831014496 0 1 0 I I #
straight-curve $-1 -52.204962309640798 35.526143064455937 7.4380702831014496 0 0 -1 I I #
point $-1 -52.204962309640798 35.526143064455937 8.9380702831014496 #
point $-1 -52.204962309640798 35.526143064455937 5.9380702831014496 #
straight-curve $-1 0 35.526143064455937 5.9380702831014496 1 0 0 I I #
point $-1 52.204962309640798 35.526143064455937 5.9380702831014496 #
straight-curve $-1 -52.204962309640798 -12.369693008146408 36.677911851779868 0 0 -1 I I #
point $-1 -52.204962309640798 -12.369693008146408 8.9380702831014496 #
straight-curve $-1 -52.204962309640798 -8.3151576155232263 3.4919484934562437 0 -1 0 I I #
point $-1 -52.204962309640798 -12.369693008146408 3.4919484934562397 #
point $-1 -46.93438689232682 -16.630315231046453 3.6770221713337854 #
straight-curve $-1 52.204962309640798 -20.890937453946499 74.937404299508856 0 0 -1 I I #
point $-1 52.204962309640798 -20.890937453946499 8.9380702831014496 #
straight-curve $-1 52.204962309640798 -7.6736497036516553 2.2168771560771745 0 1 0 I I #
point $-1 52.204962309640798 -20.890937453946499 2.2168771560771745 #
point $-1 47.355075963696379 -18.673482235289221 4.0881838937331656 #
point $-1 47.355075963696379 -15.347299407303309 4.0881838937331656 #
point $-1 47.355075963696379 -12.021116579317397 4.0881838937331656 #
straight-curve $-1 52.204962309640798 35.526143064455937 7.4380702831014496 0 0 -1 I I #
straight-curve $-1 0 35.526143064455937 8.9380702831014496 -1 0 0 I I #
point $-1 52.204962309640798 35.526143064455937 8.9380702831014496 #
End-of-ACIS-data 