500 0 10 0           
7 Unknown 11 ACIS 5.0 NT 24 Thu Mar 25 18:19:27 1999 
-1 9.9999999999999995e-007 1e-010 
body $-1 $10 $-1 $11 #
body $-1 $12 $-1 $13 #
body $-1 $14 $-1 $15 #
body $-1 $16 $-1 $17 #
body $-1 $18 $-1 $19 #
body $-1 $20 $-1 $21 #
body $-1 $22 $-1 $23 #
body $-1 $24 $-1 $25 #
body $-1 $26 $-1 $27 #
body $-1 $28 $-1 $29 #
lump $-1 $-1 $30 $0 #
transform $-1 1 0 0 0 1 0 0 0 1 63.671376689962457 44.048809374424017 20.061586407613738 1 rotate no_reflect no_shear #
lump $-1 $-1 $31 $1 #
transform $-1 1 0 0 0 1 0 0 0 1 63.671376689962457 44.048809374424017 20.061586407613738 1 rotate no_reflect no_shear #
lump $-1 $-1 $32 $2 #
transform $-1 1 0 0 0 1 0 0 0 1 63.671376689962457 44.048809374424017 20.061586407613738 1 rotate no_reflect no_shear #
lump $-1 $-1 $33 $3 #
transform $-1 1 0 0 0 1 0 0 0 1 63.671376689962457 44.048809374424017 20.061586407613738 1 rotate no_reflect no_shear #
lump $-1 $-1 $34 $4 #
transform $-1 1 0 0 0 1 0 0 0 1 63.671376689962457 44.048809374424017 20.061586407613738 1 rotate no_reflect no_shear #
lump $-1 $-1 $35 $5 #
transform $-1 1 0 0 0 1 0 0 0 1 63.671376689962457 44.048809374424017 20.061586407613738 1 rotate no_reflect no_shear #
lump $-1 $-1 $36 $6 #
transform $-1 1 0 0 0 1 0 0 0 1 63.671376689962457 44.048809374424017 20.061586407613738 1 rotate no_reflect no_shear #
lump $-1 $-1 $37 $7 #
transform $-1 1 0 0 0 1 0 0 0 1 63.671376689962457 44.048809374424017 20.061586407613738 1 rotate no_reflect no_shear #
lump $-1 $-1 $38 $8 #
transform $-1 1 0 0 0 1 0 0 0 1 63.671376689962457 44.048809374424017 20.061586407613738 1 rotate no_reflect no_shear #
lump $-1 $-1 $39 $9 #
transform $-1 1 0 0 0 1 0 0 0 1 63.671376689962457 44.048809374424017 20.061586407613738 1 rotate no_reflect no_shear #
shell $-1 $-1 $-1 $40 $-1 $10 #
shell $-1 $-1 $-1 $41 $-1 $12 #
shell $-1 $-1 $-1 $42 $-1 $14 #
shell $-1 $-1 $-1 $43 $-1 $16 #
shell $-1 $-1 $-1 $44 $-1 $18 #
shell $-1 $-1 $-1 $45 $-1 $20 #
shell $-1 $-1 $-1 $46 $-1 $22 #
shell $-1 $-1 $-1 $47 $-1 $24 #
shell $-1 $-1 $-1 $48 $-1 $26 #
shell $-1 $-1 $-1 $49 $-1 $28 #
face $-1 $50 $51 $30 $-1 $52 forward single #
face $-1 $53 $54 $31 $-1 $55 reversed single #
face $-1 $56 $57 $32 $-1 $58 reversed single #
face $-1 $59 $60 $33 $-1 $61 reversed single #
face $-1 $62 $63 $34 $-1 $64 forward single #
face $-1 $65 $66 $35 $-1 $67 forward single #
face $-1 $68 $69 $36 $-1 $70 reversed single #
face $-1 $71 $72 $37 $-1 $73 forward single #
face $-1 $74 $75 $38 $-1 $76 forward single #
face $-1 $77 $78 $39 $-1 $79 forward single #
face $-1 $80 $81 $30 $-1 $82 reversed single #
loop $-1 $-1 $83 $40 #
plane-surface $-1 0 0 20.061586407613738 0 0 1 1 0 0 forward_v I I I I #
face $-1 $84 $85 $31 $-1 $86 reversed single #
loop $-1 $-1 $87 $41 #
plane-surface $-1 -45.883159188674199 0 17.078277221897032 -1 0 0 0 0 1 forward_v I I I I #
face $-1 $88 $89 $32 $-1 $90 reversed single #
loop $-1 $-1 $91 $42 #
plane-surface $-1 54.777267939318321 0 14.094968036180322 0 0 1 1 0 0 forward_v I I I I #
face $-1 $92 $93 $33 $-1 $94 reversed single #
loop $-1 $-1 $95 $43 #
plane-surface $-1 -35.296019637363152 -27.223660876711897 64.384322424827289 0 0.5877852598018023 0.80901698891910034 1 0 0 forward_v I I I I #
face $-1 $96 $97 $34 $-1 $98 forward single #
loop $-1 $99 $100 $44 #
cone-surface $-1 -39.833365159353598 37.609236756619659 14.534374677207904 0 -0.5877852598018023 -0.80901698891910034 2.5 0 0 1 I I 0 1 2.5 forward I I I I #
face $-1 $101 $102 $35 $-1 $103 forward single #
loop $-1 $104 $105 $45 #
cone-surface $-1 -30.758674115372699 37.609236756619659 14.534374677207904 0 -0.5877852598018023 -0.80901698891910034 2.5 0 0 1 I I 0 1 2.5 forward I I I I #
face $-1 $106 $107 $36 $-1 $108 reversed single #
loop $-1 $-1 $109 $46 #
plane-surface $-1 42.642516343834338 -118.89900275372003 111.76855115000097 -1 0 0 0 -0.5877852598018023 0.80901698891910034 forward_v I I I I #
face $-1 $110 $111 $37 $-1 $112 forward single #
loop $-1 $113 $114 $47 #
cone-surface $-1 25.656491556020583 -35.181168624849406 12.916765071898133 0 0.5877852598018023 -0.80901698891910034 1 0 0 1 I I 0 1 1 forward I I I I #
face $-1 $115 $116 $38 $-1 $117 forward single #
loop $-1 $118 $119 $48 #
cone-surface $-1 32.02625085145074 -35.181168624849406 12.916765071898133 0 0.5877852598018023 -0.80901698891910034 1 0 0 1 I I 0 1 1 forward I I I I #
face $-1 $120 $121 $39 $-1 $122 forward single #
loop $-1 $123 $124 $49 #
cone-surface $-1 38.396010146880897 -35.181168624849406 12.916765071898133 0 0.5877852598018023 -0.80901698891910034 1 0 0 1 I I 0 1 1 forward I I I I #
face $-1 $125 $126 $30 $-1 $127 reversed single #
loop $-1 $-1 $128 $50 #
plane-surface $-1 0 0 -20.061586407613738 0 0 1 1 0 0 forward_v I I I I #
coedge $-1 $129 $130 $131 $132 forward $51 $-1 #
face $-1 $133 $134 $31 $-1 $135 reversed single #
loop $-1 $-1 $136 $53 #
plane-surface $-1 -54.777267939318328 0 14.094968036180322 0 0 1 1 0 0 forward_v I I I I #
coedge $-1 $137 $138 $139 $140 reversed $54 $-1 #
face $-1 $141 $142 $32 $-1 $143 forward single #
loop $-1 $-1 $144 $56 #
plane-surface $-1 45.883159188674192 0 17.078277221897032 1 0 0 0 0 -1 forward_v I I I I #
coedge $-1 $145 $146 $147 $148 reversed $57 $-1 #
face $-1 $149 $150 $33 $-1 $151 reversed single #
loop $-1 $-1 $152 $59 #
plane-surface $-1 -24.708880086052105 47.626532502584105 167.40677332492172 -1 0 0 0 0.5877852598018023 0.80901698891910034 forward_v I I I I #
coedge $-1 $153 $154 $155 $156 reversed $60 $-1 #
face $-1 $-1 $157 $34 $-1 $158 forward single #
loop $-1 $159 $160 $62 #
cone-surface $-1 -39.833365159353598 35.568662025067972 11.725764564152321 0 -0.5877852598018023 -0.80901698891910034 1.25 0 0 1 I I -0.70710678118654746 0.70710678118654746 1.25 forward I I I I #
loop $-1 $-1 $161 $44 #
coedge $-1 $100 $100 $162 $163 reversed $63 $-1 #
face $-1 $-1 $164 $35 $-1 $165 forward single #
loop $-1 $166 $167 $65 #
cone-surface $-1 -30.758674115372699 35.568662025067972 11.725764564152321 0 -0.5877852598018023 -0.80901698891910034 1.25 0 0 1 I I -0.70710678118654746 0.70710678118654746 1.25 forward I I I I #
loop $-1 $-1 $168 $45 #
coedge $-1 $105 $105 $169 $170 reversed $66 $-1 #
face $-1 $171 $172 $36 $-1 $173 reversed single #
loop $-1 $-1 $174 $68 #
plane-surface $-1 32.02625085145074 -44.048809374424025 8.7461002499065472 0 -0.5877852598018023 0.80901698891910034 1 0 0 forward_v I I I I #
coedge $-1 $175 $176 $177 $178 reversed $69 $-1 #
face $-1 $-1 $179 $37 $-1 $180 forward single #
loop $-1 $181 $182 $71 #
cone-surface $-1 25.656491556020583 -33.806850377776883 11.025178320576572 0 0.5877852598018023 -0.80901698891910034 0.5 0 0 1 I I -0.70710678118654624 0.70710678118654879 0.5 forward I I I I #
loop $-1 $-1 $183 $47 #
coedge $-1 $114 $114 $184 $185 reversed $72 $-1 #
face $-1 $-1 $186 $38 $-1 $187 forward single #
loop $-1 $188 $189 $74 #
cone-surface $-1 32.02625085145074 -33.806850377776883 11.025178320576572 0 0.5877852598018023 -0.80901698891910034 0.5 0 0 1 I I -0.70710678118654624 0.70710678118654879 0.5 forward I I I I #
loop $-1 $-1 $190 $48 #
coedge $-1 $119 $119 $191 $192 reversed $75 $-1 #
face $-1 $-1 $193 $39 $-1 $194 forward single #
loop $-1 $195 $196 $77 #
cone-surface $-1 38.396010146880897 -33.806850377776883 11.025178320576572 0 0.5877852598018023 -0.80901698891910034 0.5 0 0 1 I I -0.70710678118654624 0.70710678118654879 0.5 forward I I I I #
loop $-1 $-1 $197 $49 #
coedge $-1 $124 $124 $198 $199 reversed $78 $-1 #
face $-1 $200 $201 $30 $-1 $202 reversed single #
loop $-1 $-1 $203 $80 #
plane-surface $-1 0 -44.048809374424017 0 0 1 0 0 0 1 forward_v I I I I #
coedge $-1 $204 $205 $206 $207 forward $81 $-1 #
coedge $-1 $208 $83 $209 $210 forward $51 $-1 #
coedge $-1 $83 $208 $211 $212 forward $51 $-1 #
coedge $-1 $213 $214 $83 $132 reversed $215 $-1 #
edge $-1 $216 -44.048809374424017 $217 44.048809374424017 $131 $218 forward 7 unknown #
face $-1 $219 $220 $31 $-1 $221 reversed single #
loop $-1 $-1 $222 $84 #
plane-surface $-1 0 44.048809374424017 0 0 -1 0 0 0 -1 forward_v I I I I #
coedge $-1 $223 $224 $225 $226 forward $85 $-1 #
coedge $-1 $225 $87 $227 $228 reversed $54 $-1 #
coedge $-1 $87 $225 $222 $229 reversed $54 $-1 #
coedge $-1 $230 $231 $87 $140 forward $232 $-1 #
edge $-1 $233 -44.048809374424017 $234 44.048809374424017 $139 $235 forward 7 unknown #
face $-1 $236 $237 $32 $-1 $238 reversed single #
loop $-1 $-1 $239 $88 #
plane-surface $-1 0 0 20.061586407613738 0 0 1 1 0 0 forward_v I I I I #
coedge $-1 $240 $241 $242 $243 reversed $89 $-1 #
coedge $-1 $244 $91 $245 $246 reversed $57 $-1 #
coedge $-1 $91 $244 $247 $248 reversed $57 $-1 #
coedge $-1 $249 $250 $91 $148 forward $251 $-1 #
edge $-1 $252 -44.048809374424017 $253 44.048809374424017 $147 $254 forward 7 unknown #
face $-1 $255 $256 $33 $-1 $257 forward single #
loop $-1 $-1 $258 $92 #
plane-surface $-1 0 44.048809374424017 0 0 -1 0 0 0 -1 forward_v I I I I #
coedge $-1 $259 $260 $261 $262 reversed $93 $-1 #
coedge $-1 $263 $95 $264 $265 reversed $60 $-1 #
coedge $-1 $95 $263 $259 $266 forward $60 $-1 #
coedge $-1 $261 $267 $95 $156 forward $256 $-1 #
edge $-1 $268 -28.235149369992623 $269 -7.0608702673705288 $155 $270 forward 7 unknown #
loop $-1 $-1 $162 $96 #
plane-surface $-1 -35.296019637363152 -27.223660876711897 64.384322424827289 0 0.5877852598018023 0.80901698891910034 1 0 0 forward_v I I I I #
loop $-1 $-1 $271 $62 #
coedge $-1 $160 $160 $161 $272 reversed $97 $-1 #
coedge $-1 $161 $161 $160 $272 forward $99 $-1 #
coedge $-1 $162 $162 $100 $163 forward $157 $-1 #
edge $-1 $273 -2.0928498774296069e-015 $273 6.2831853071795987 $162 $274 forward 7 unknown #
loop $-1 $-1 $169 $101 #
plane-surface $-1 -35.296019637363152 -27.223660876711897 64.384322424827289 0 0.5877852598018023 0.80901698891910034 1 0 0 forward_v I I I I #
loop $-1 $-1 $275 $65 #
coedge $-1 $167 $167 $168 $276 reversed $102 $-1 #
coedge $-1 $168 $168 $167 $276 forward $104 $-1 #
coedge $-1 $169 $169 $105 $170 forward $164 $-1 #
edge $-1 $277 -2.0928498774296069e-015 $277 6.2831853071795987 $169 $278 forward 7 unknown #
face $-1 $279 $280 $36 $-1 $281 forward single #
loop $-1 $-1 $282 $106 #
plane-surface $-1 21.409985359067143 -118.89900275372003 111.76855115000097 1 0 0 0 0.5877852598018023 -0.80901698891910034 forward_v I I I I #
coedge $-1 $283 $284 $285 $286 reversed $107 $-1 #
coedge $-1 $176 $109 $287 $288 reversed $69 $-1 #
coedge $-1 $109 $175 $283 $289 reversed $69 $-1 #
coedge $-1 $285 $290 $109 $178 forward $280 $-1 #
edge $-1 $291 15.400692002435996 $292 30.975122267241964 $177 $293 forward 7 unknown #
loop $-1 $-1 $184 $110 #
plane-surface $-1 32.02625085145074 -44.048809374424025 8.7461002499065472 0 -0.5877852598018023 0.80901698891910034 1 0 0 forward_v I I I I #
loop $-1 $-1 $294 $71 #
coedge $-1 $182 $182 $183 $295 reversed $111 $-1 #
coedge $-1 $183 $183 $182 $295 forward $113 $-1 #
coedge $-1 $184 $184 $114 $185 forward $179 $-1 #
edge $-1 $296 -3.1323490990427538e-015 $296 6.2831853071795969 $184 $297 forward 7 unknown #
loop $-1 $-1 $191 $115 #
plane-surface $-1 32.02625085145074 -44.048809374424025 8.7461002499065472 0 -0.5877852598018023 0.80901698891910034 1 0 0 forward_v I I I I #
loop $-1 $-1 $298 $74 #
coedge $-1 $189 $189 $190 $299 reversed $116 $-1 #
coedge $-1 $190 $190 $189 $299 forward $118 $-1 #
coedge $-1 $191 $191 $119 $192 forward $186 $-1 #
edge $-1 $300 -3.1323490990427538e-015 $300 6.2831853071795969 $191 $301 forward 7 unknown #
loop $-1 $-1 $198 $120 #
plane-surface $-1 32.02625085145074 -44.048809374424025 8.7461002499065472 0 -0.5877852598018023 0.80901698891910034 1 0 0 forward_v I I I I #
loop $-1 $-1 $302 $77 #
coedge $-1 $196 $196 $197 $303 reversed $121 $-1 #
coedge $-1 $197 $197 $196 $303 forward $123 $-1 #
coedge $-1 $198 $198 $124 $199 forward $193 $-1 #
edge $-1 $304 -3.1323490990427538e-015 $304 6.2831853071795969 $198 $305 forward 7 unknown #
face $-1 $306 $307 $30 $-1 $308 reversed single #
loop $-1 $-1 $309 $125 #
plane-surface $-1 -63.671376689962457 0 0 1 0 0 0 0 -1 forward_v I I I I #
coedge $-1 $310 $211 $311 $312 forward $126 $-1 #
coedge $-1 $313 $128 $310 $314 forward $81 $-1 #
coedge $-1 $128 $313 $315 $316 forward $81 $-1 #
coedge $-1 $214 $213 $128 $207 reversed $215 $-1 #
edge $-1 $317 -44.048809374424017 $318 44.048809374424017 $206 $319 forward 7 unknown #
coedge $-1 $130 $129 $320 $321 forward $51 $-1 #
coedge $-1 $322 $323 $129 $210 reversed $307 $-1 #
edge $-1 $217 -63.671376689962457 $324 63.671376689962457 $209 $325 forward 7 unknown #
coedge $-1 $203 $326 $130 $212 reversed $126 $-1 #
edge $-1 $327 -63.671376689962457 $216 63.671376689962457 $211 $328 forward 7 unknown #
coedge $-1 $206 $131 $326 $329 forward $215 $-1 #
coedge $-1 $131 $206 $322 $330 reversed $215 $-1 #
loop $-1 $-1 $213 $306 #
vertex $-1 $132 $331 #
vertex $-1 $132 $332 #
straight-curve $-1 63.671376689962457 0 20.061586407613738 0 1 0 I I #
face $-1 $333 $232 $31 $-1 $334 forward single #
loop $-1 $-1 $335 $133 #
plane-surface $-1 -63.671376689962457 0 0 1 0 0 0 0 -1 forward_v I I I I #
coedge $-1 $336 $337 $138 $229 forward $134 $-1 #
coedge $-1 $338 $136 $339 $340 reversed $85 $-1 #
coedge $-1 $136 $338 $336 $341 reversed $85 $-1 #
coedge $-1 $138 $137 $136 $226 reversed $54 $-1 #
edge $-1 $342 -44.048809374424017 $343 44.048809374424017 $225 $344 forward 7 unknown #
coedge $-1 $345 $339 $137 $228 forward $346 $-1 #
edge $-1 $343 5.5558294252318063 $233 11.522447796665226 $227 $347 forward 7 unknown #
edge $-1 $234 -11.522447796665226 $342 -5.5558294252318063 $222 $348 forward 7 unknown #
coedge $-1 $349 $139 $337 $350 forward $232 $-1 #
coedge $-1 $139 $349 $345 $351 forward $232 $-1 #
loop $-1 $-1 $139 $219 #
vertex $-1 $228 $352 #
vertex $-1 $350 $353 #
straight-curve $-1 -45.883159188674199 0 20.061586407613738 0 1 0 I I #
face $-1 $354 $355 $32 $-1 $356 reversed single #
loop $-1 $-1 $357 $141 #
plane-surface $-1 0 -44.048809374424017 0 0 1 0 0 0 1 forward_v I I I I #
coedge $-1 $358 $359 $241 $360 forward $142 $-1 #
coedge $-1 $361 $144 $244 $362 reversed $89 $-1 #
coedge $-1 $144 $361 $239 $360 reversed $89 $-1 #
coedge $-1 $363 $247 $144 $243 forward $355 $-1 #
edge $-1 $364 5.5558294252318063 $365 11.522447796665226 $242 $366 forward 7 unknown #
coedge $-1 $146 $145 $240 $362 forward $57 $-1 #
coedge $-1 $367 $357 $145 $246 forward $237 $-1 #
edge $-1 $368 18.494525219015031 $252 36.28274272030329 $245 $369 forward 7 unknown #
coedge $-1 $242 $370 $146 $248 forward $355 $-1 #
edge $-1 $253 -36.28274272030329 $364 -18.494525219015031 $247 $371 forward 7 unknown #
coedge $-1 $372 $147 $370 $373 reversed $251 $-1 #
coedge $-1 $147 $372 $367 $374 forward $251 $-1 #
loop $-1 $-1 $147 $354 #
vertex $-1 $246 $375 #
vertex $-1 $148 $376 #
straight-curve $-1 63.671376689962457 0 14.094968036180322 0 1 0 I I #
face $-1 $-1 $377 $33 $-1 $378 forward single #
loop $-1 $-1 $261 $149 #
plane-surface $-1 0 0 20.061586407613738 0 0 1 1 0 0 forward_v I I I I #
coedge $-1 $379 $380 $260 $381 forward $150 $-1 #
coedge $-1 $260 $152 $154 $266 reversed $93 $-1 #
coedge $-1 $152 $259 $258 $381 reversed $93 $-1 #
coedge $-1 $382 $155 $152 $262 forward $256 $-1 #
edge $-1 $269 9.9680842011221351 $383 20.235543123131965 $261 $384 forward 7 unknown #
coedge $-1 $154 $153 $379 $385 reversed $60 $-1 #
coedge $-1 $386 $387 $153 $265 forward $377 $-1 #
edge $-1 $388 -63.182518639031855 $268 -50.491241369653594 $264 $389 forward 7 unknown #
edge $-1 $390 -88.097618748848035 $269 -75.406341479469759 $259 $391 forward 7 unknown #
coedge $-1 $155 $382 $386 $392 forward $256 $-1 #
vertex $-1 $265 $393 #
vertex $-1 $156 $394 #
straight-curve $-1 -17.648009818681576 33.781350452414188 20.061586407613738 1 0 0 I I #
coedge $-1 $271 $271 $-1 $395 reversed $159 $-1 #
edge $-1 $396 0 $396 6.2831853071796004 $160 $397 forward 7 unknown #
vertex $-1 $163 $398 #
ellipse-curve $-1 -39.833365159353598 38.915079913419099 16.331713554114621 0 0.5877852598018023 0.80901698891910034 2.5 0 0 1 I I #
coedge $-1 $275 $275 $-1 $399 reversed $166 $-1 #
edge $-1 $400 0 $400 6.2831853071796004 $167 $401 forward 7 unknown #
vertex $-1 $170 $402 #
ellipse-curve $-1 -30.758674115372699 38.915079913419099 16.331713554114621 0 0.5877852598018023 0.80901698891910034 2.5 0 0 1 I I #
face $-1 $-1 $403 $36 $-1 $404 reversed single #
loop $-1 $-1 $177 $171 #
plane-surface $-1 0 0 20.061586407613738 0 0 1 1 0 0 forward_v I I I I #
coedge $-1 $405 $406 $407 $408 reversed $172 $-1 #
coedge $-1 $409 $174 $176 $289 forward $107 $-1 #
coedge $-1 $174 $409 $405 $410 forward $107 $-1 #
coedge $-1 $407 $177 $174 $286 forward $280 $-1 #
edge $-1 $292 -26.629390918108967 $411 -5.3968599333417728 $285 $412 forward 7 unknown #
coedge $-1 $413 $414 $175 $288 forward $403 $-1 #
edge $-1 $415 -47.138175325093933 $291 -35.822689167386748 $287 $416 forward 7 unknown #
edge $-1 $292 -19.251054647955456 $415 -8.8807605448725156e-015 $176 $417 forward 7 unknown #
coedge $-1 $177 $407 $413 $418 forward $280 $-1 #
vertex $-1 $288 $419 #
vertex $-1 $178 $420 #
straight-curve $-1 42.642516343834338 -59.449501376860013 20.061586407613738 0 1 0 I I #
coedge $-1 $294 $294 $-1 $421 reversed $181 $-1 #
edge $-1 $422 0 $422 6.2831853071796004 $182 $423 forward 7 unknown #
vertex $-1 $185 $424 #
ellipse-curve $-1 25.656491556020583 -36.261594242021033 14.403843328760146 0 -0.5877852598018023 0.80901698891910034 1 0 0 1 I I #
coedge $-1 $298 $298 $-1 $425 reversed $188 $-1 #
edge $-1 $426 0 $426 6.2831853071796004 $189 $427 forward 7 unknown #
vertex $-1 $192 $428 #
ellipse-curve $-1 32.02625085145074 -36.261594242021033 14.403843328760146 0 -0.5877852598018023 0.80901698891910034 1 0 0 1 I I #
coedge $-1 $302 $302 $-1 $429 reversed $195 $-1 #
edge $-1 $430 0 $430 6.2831853071796004 $196 $431 forward 7 unknown #
vertex $-1 $199 $432 #
ellipse-curve $-1 38.396010146880897 -36.261594242021033 14.403843328760146 0 -0.5877852598018023 0.80901698891910034 1 0 0 1 I I #
face $-1 $-1 $215 $30 $-1 $433 reversed single #
loop $-1 $-1 $322 $200 #
plane-surface $-1 0 44.048809374424017 0 0 -1 0 0 0 -1 forward_v I I I I #
coedge $-1 $434 $320 $323 $435 forward $201 $-1 #
coedge $-1 $326 $203 $204 $314 reversed $126 $-1 #
coedge $-1 $320 $434 $203 $312 reversed $201 $-1 #
edge $-1 $327 -20.061586407613738 $436 20.061586407613738 $311 $437 forward 7 unknown #
coedge $-1 $205 $204 $434 $438 forward $81 $-1 #
edge $-1 $318 -63.671376689962457 $436 63.671376689962457 $310 $439 forward 7 unknown #
coedge $-1 $323 $322 $205 $316 reversed $307 $-1 #
edge $-1 $440 -63.671376689962457 $317 63.671376689962457 $315 $441 forward 7 unknown #
vertex $-1 $207 $442 #
vertex $-1 $329 $443 #
straight-curve $-1 63.671376689962457 0 -20.061586407613738 0 -1 0 I I #
coedge $-1 $309 $311 $208 $321 reversed $201 $-1 #
edge $-1 $324 -44.048809374424017 $327 44.048809374424017 $320 $444 forward 7 unknown #
coedge $-1 $315 $209 $214 $330 forward $307 $-1 #
coedge $-1 $209 $315 $309 $435 reversed $307 $-1 #
vertex $-1 $210 $445 #
straight-curve $-1 0 44.048809374424017 20.061586407613738 -1 0 0 I I #
coedge $-1 $211 $310 $213 $329 reversed $126 $-1 #
vertex $-1 $321 $446 #
straight-curve $-1 0 -44.048809374424017 20.061586407613738 1 0 0 I I #
edge $-1 $216 -20.061586407613738 $318 20.061586407613738 $213 $447 forward 7 unknown #
edge $-1 $217 -20.061586407613738 $317 20.061586407613738 $214 $448 forward 7 unknown #
point $-1 63.671376689962457 -44.048809374424017 20.061586407613738 #
point $-1 63.671376689962457 44.048809374424017 20.061586407613738 #
face $-1 $-1 $346 $31 $-1 $449 reversed single #
plane-surface $-1 0 0 20.061586407613738 0 0 1 1 0 0 forward_v I I I I #
coedge $-1 $450 $451 $338 $452 forward $220 $-1 #
coedge $-1 $453 $222 $224 $341 forward $134 $-1 #
coedge $-1 $222 $453 $230 $350 reversed $134 $-1 #
coedge $-1 $224 $223 $335 $452 reversed $85 $-1 #
coedge $-1 $227 $454 $223 $340 forward $346 $-1 #
edge $-1 $455 -36.28274272030329 $343 -18.494525219015035 $339 $456 forward 7 unknown #
edge $-1 $342 18.494525219015035 $457 36.28274272030329 $336 $458 forward 7 unknown #
vertex $-1 $341 $459 #
vertex $-1 $340 $460 #
straight-curve $-1 -45.883159188674199 0 14.094968036180322 0 -1 0 I I #
coedge $-1 $454 $227 $231 $351 reversed $346 $-1 #
loop $-1 $-1 $227 $333 #
straight-curve $-1 -45.883159188674199 -44.048809374424017 8.5391386109485161 0 0 1 I I #
straight-curve $-1 -45.883159188674199 44.048809374424017 8.5391386109485161 0 0 -1 I I #
coedge $-1 $231 $230 $461 $462 forward $232 $-1 #
edge $-1 $234 45.883159188674199 $463 63.671376689962457 $337 $464 forward 7 unknown #
edge $-1 $465 -63.671376689962457 $233 -45.883159188674199 $345 $466 forward 7 unknown #
point $-1 -45.883159188674199 -44.048809374424017 20.061586407613742 #
point $-1 -45.883159188674199 44.048809374424017 20.061586407613742 #
face $-1 $-1 $251 $32 $-1 $467 reversed single #
loop $-1 $-1 $242 $236 #
plane-surface $-1 0 44.048809374424017 0 0 -1 0 0 0 -1 forward_v I I I I #
coedge $-1 $245 $468 $361 $469 forward $237 $-1 #
coedge $-1 $470 $239 $468 $471 forward $142 $-1 #
coedge $-1 $239 $470 $363 $472 forward $142 $-1 #
edge $-1 $365 -44.048809374424017 $473 44.048809374424017 $239 $474 forward 7 unknown #
coedge $-1 $241 $240 $357 $469 reversed $89 $-1 #
edge $-1 $368 -44.048809374424017 $364 44.048809374424017 $240 $475 forward 7 unknown #
coedge $-1 $370 $242 $359 $472 reversed $355 $-1 #
vertex $-1 $248 $476 #
vertex $-1 $243 $477 #
straight-curve $-1 45.883159188674192 44.048809374424017 8.5391386109485161 0 0 1 I I #
coedge $-1 $468 $245 $250 $374 reversed $237 $-1 #
vertex $-1 $246 $478 #
straight-curve $-1 27.388633969659161 -44.048809374424017 14.094968036180322 1 0 0 I I #
coedge $-1 $247 $363 $249 $373 forward $355 $-1 #
straight-curve $-1 27.388633969659161 44.048809374424017 14.094968036180322 -1 0 0 I I #
coedge $-1 $250 $249 $470 $479 reversed $251 $-1 #
edge $-1 $480 -20.061586407613738 $253 -14.094968036180322 $249 $481 forward 7 unknown #
edge $-1 $482 -20.061586407613738 $252 -14.094968036180322 $250 $483 forward 7 unknown #
point $-1 63.67137668996245 -44.048809374424017 14.094968036180322 #
point $-1 63.67137668996245 44.048809374424017 14.094968036180322 #
loop $-1 $-1 $264 $255 #
plane-surface $-1 -45.883159188674199 0 17.078277221897032 -1 0 0 0 0 1 forward_v I I I I #
coedge $-1 $484 $258 $263 $385 forward $150 $-1 #
coedge $-1 $258 $484 $382 $485 reversed $150 $-1 #
edge $-1 $383 63.641800254847119 $390 71.101545961845346 $258 $486 forward 7 unknown #
coedge $-1 $267 $261 $380 $485 forward $256 $-1 #
vertex $-1 $485 $487 #
straight-curve $-1 -24.708880086052105 23.813266251292053 20.061586407613746 0 1 0 I I #
edge $-1 $390 7.0608702673705288 $388 28.235149369992623 $379 $488 forward 7 unknown #
coedge $-1 $387 $264 $267 $392 reversed $377 $-1 #
coedge $-1 $264 $386 $484 $489 reversed $377 $-1 #
vertex $-1 $489 $490 #
straight-curve $-1 -45.883159188674199 -7.066921607250471 49.739593833791083 0 -0.80901698891910034 0.5877852598018023 I I #
vertex $-1 $385 $491 #
straight-curve $-1 -24.708880086052105 -27.223660876711897 64.384322424827289 0 -0.80901698891910034 0.5877852598018023 I I #
edge $-1 $492 -44.048809374424017 $268 -33.781350452414188 $267 $493 forward 7 unknown #
point $-1 -45.883159188674199 33.781350452414188 20.061586407613738 #
point $-1 -24.708880086052105 33.781350452414188 20.061586407613738 #
edge $-1 $494 1 $494 0 $271 $-1 forward 7 unknown #
vertex $-1 $272 $495 #
ellipse-curve $-1 -39.833365159353598 36.303393599820225 12.737035800301197 0 0.5877852598018023 0.80901698891910034 2.5 0 0 1 I I #
point $-1 -37.333365159353598 38.915079913419085 16.331713554114611 #
edge $-1 $496 1 $496 0 $275 $-1 forward 7 unknown #
vertex $-1 $276 $497 #
ellipse-curve $-1 -30.758674115372699 36.303393599820225 12.737035800301197 0 0.5877852598018023 0.80901698891910034 2.5 0 0 1 I I #
point $-1 -28.258674115372699 38.915079913419085 16.331713554114611 #
loop $-1 $-1 $287 $279 #
plane-surface $-1 0 -44.048809374424017 0 0 1 0 0 0 1 forward_v I I I I #
coedge $-1 $406 $282 $284 $410 reversed $172 $-1 #
coedge $-1 $282 $405 $498 $499 reversed $172 $-1 #
coedge $-1 $290 $285 $282 $408 forward $280 $-1 #
edge $-1 $411 -30.975122267241964 $500 -15.400692002435996 $407 $501 forward 7 unknown #
coedge $-1 $284 $283 $414 $502 reversed $107 $-1 #
edge $-1 $503 8.8807605448725156e-015 $411 19.251054647955456 $405 $504 forward 7 unknown #
vertex $-1 $286 $505 #
straight-curve $-1 16.01312542572537 -28.474379109618045 20.061586407613738 -1 0 0 I I #
coedge $-1 $498 $287 $290 $418 reversed $403 $-1 #
coedge $-1 $287 $498 $409 $502 forward $403 $-1 #
vertex $-1 $288 $506 #
straight-curve $-1 42.642516343834338 -44.048809374424017 55.884275575000487 0 0 1 I I #
straight-curve $-1 42.642516343834338 -44.048809374424025 8.7461002499065472 0 -0.80901698891910034 -0.5877852598018023 I I #
edge $-1 $500 21.409985359067143 $291 42.642516343834338 $413 $507 forward 7 unknown #
point $-1 42.642516343834338 -44.048809374424017 20.061586407613738 #
point $-1 42.642516343834338 -28.474379109618049 20.061586407613738 #
edge $-1 $508 1 $508 0 $294 $-1 forward 7 unknown #
vertex $-1 $295 $509 #
ellipse-curve $-1 25.656491556020583 -34.100743007677785 11.429686815036124 0 -0.5877852598018023 0.80901698891910034 1 0 0 1 I I #
point $-1 26.656491556020583 -36.261594242021033 14.403843328760141 #
edge $-1 $510 1 $510 0 $298 $-1 forward 7 unknown #
vertex $-1 $299 $511 #
ellipse-curve $-1 32.02625085145074 -34.100743007677785 11.429686815036124 0 -0.5877852598018023 0.80901698891910034 1 0 0 1 I I #
point $-1 33.02625085145074 -36.261594242021033 14.403843328760141 #
edge $-1 $512 1 $512 0 $302 $-1 forward 7 unknown #
vertex $-1 $303 $513 #
ellipse-curve $-1 38.396010146880897 -34.100743007677785 11.429686815036124 0 -0.5877852598018023 0.80901698891910034 1 0 0 1 I I #
point $-1 39.396010146880897 -36.261594242021033 14.403843328760141 #
plane-surface $-1 63.671376689962457 0 0 -1 0 0 0 0 1 forward_v I I I I #
coedge $-1 $311 $309 $313 $438 reversed $201 $-1 #
edge $-1 $324 -20.061586407613738 $440 20.061586407613738 $323 $514 forward 7 unknown #
vertex $-1 $438 $515 #
straight-curve $-1 -63.671376689962457 -44.048809374424017 0 0 0 -1 I I #
edge $-1 $436 -44.048809374424017 $440 44.048809374424017 $434 $516 forward 7 unknown #
straight-curve $-1 0 -44.048809374424017 -20.061586407613738 -1 0 0 I I #
vertex $-1 $316 $517 #
straight-curve $-1 0 44.048809374424017 -20.061586407613738 1 0 0 I I #
point $-1 63.671376689962457 44.048809374424017 -20.061586407613738 #
point $-1 63.671376689962457 -44.048809374424017 -20.061586407613738 #
straight-curve $-1 -63.671376689962457 0 20.061586407613738 0 -1 0 I I #
point $-1 -63.671376689962457 44.048809374424017 20.061586407613738 #
point $-1 -63.671376689962457 -44.048809374424017 20.061586407613738 #
straight-curve $-1 63.671376689962457 -44.048809374424017 0 0 0 -1 I I #
straight-curve $-1 63.671376689962457 44.048809374424017 0 0 0 -1 I I #
plane-surface $-1 0 -44.048809374424017 0 0 1 0 0 0 1 forward_v I I I I #
coedge $-1 $461 $335 $454 $518 reversed $220 $-1 #
coedge $-1 $335 $461 $453 $519 forward $220 $-1 #
edge $-1 $457 -44.048809374424017 $455 44.048809374424017 $335 $520 forward 7 unknown #
coedge $-1 $337 $336 $451 $519 reversed $134 $-1 #
coedge $-1 $339 $345 $450 $518 forward $346 $-1 #
vertex $-1 $452 $521 #
straight-curve $-1 -27.388633969659164 -44.048809374424017 14.094968036180322 1 0 0 I I #
vertex $-1 $452 $522 #
straight-curve $-1 -27.388633969659164 44.048809374424017 14.094968036180322 -1 0 0 I I #
point $-1 -45.883159188674199 44.048809374424017 14.094968036180322 #
point $-1 -45.883159188674199 -44.048809374424017 14.094968036180322 #
coedge $-1 $451 $450 $349 $462 reversed $220 $-1 #
edge $-1 $463 -44.048809374424017 $465 44.048809374424017 $461 $523 forward 7 unknown #
vertex $-1 $350 $524 #
straight-curve $-1 0 44.048809374424017 20.061586407613738 -1 0 0 I I #
vertex $-1 $462 $525 #
straight-curve $-1 0 -44.048809374424017 20.061586407613738 1 0 0 I I #
plane-surface $-1 63.671376689962457 0 0 -1 0 0 0 0 1 forward_v I I I I #
coedge $-1 $357 $367 $358 $471 reversed $237 $-1 #
edge $-1 $473 -11.522447796665226 $368 -5.5558294252318063 $357 $526 forward 7 unknown #
coedge $-1 $359 $358 $372 $479 forward $142 $-1 #
edge $-1 $473 45.883159188674192 $482 63.671376689962457 $468 $527 forward 7 unknown #
edge $-1 $480 -63.671376689962457 $365 -45.883159188674192 $363 $528 forward 7 unknown #
vertex $-1 $471 $529 #
straight-curve $-1 45.883159188674192 0 20.061586407613738 0 -1 0 I I #
straight-curve $-1 45.883159188674192 0 14.094968036180322 0 1 0 I I #
point $-1 45.883159188674192 44.048809374424017 14.094968036180322 #
point $-1 45.883159188674192 44.048809374424017 20.061586407613742 #
point $-1 45.883159188674192 -44.048809374424017 14.094968036180322 #
edge $-1 $482 -44.048809374424017 $480 44.048809374424017 $372 $530 forward 7 unknown #
vertex $-1 $479 $531 #
straight-curve $-1 63.671376689962457 44.048809374424017 0 0 0 -1 I I #
vertex $-1 $479 $532 #
straight-curve $-1 63.671376689962457 -44.048809374424017 0 0 0 -1 I I #
coedge $-1 $380 $379 $387 $489 forward $150 $-1 #
edge $-1 $383 24.708880086052105 $492 45.883159188674199 $380 $533 forward 7 unknown #
straight-curve $-1 -24.708880086052105 44.048809374424017 83.703386662460858 0 0 -1 I I #
point $-1 -24.708880086052105 44.048809374424017 20.061586407613738 #
straight-curve $-1 -17.648009818681576 44.048809374424025 12.601840700615508 -1 0 0 I I #
edge $-1 $388 -71.101545961845346 $492 -63.641800254847112 $484 $534 forward 7 unknown #
point $-1 -45.883159188674199 44.048809374424017 12.601840700615519 #
point $-1 -24.708880086052105 44.048809374424017 12.601840700615519 #
vertex $-1 $392 $535 #
straight-curve $-1 -45.883159188674199 0 20.061586407613738 0 -1 0 I I #
vertex $-1 $395 $536 #
point $-1 -37.333365159353598 36.303393599820225 12.737035800301197 #
vertex $-1 $399 $537 #
point $-1 -28.258674115372699 36.303393599820225 12.737035800301197 #
coedge $-1 $414 $413 $406 $499 forward $403 $-1 #
edge $-1 $500 35.822689167386748 $503 47.138175325093933 $498 $538 forward 7 unknown #
vertex $-1 $418 $539 #
straight-curve $-1 21.409985359067143 -59.449501376860013 20.061586407613738 0 -1 0 I I #
edge $-1 $503 5.3968599333417728 $415 26.629390918108967 $414 $540 forward 7 unknown #
vertex $-1 $502 $541 #
straight-curve $-1 21.409985359067143 -44.048809374424025 8.7461002499065472 0 0.80901698891910034 0.5877852598018023 I I #
point $-1 21.409985359067143 -28.474379109618049 20.061586407613738 #
point $-1 42.642516343834338 -44.048809374424017 8.7461002499065525 #
straight-curve $-1 0 -44.048809374424017 20.061586407613738 1 0 0 I I #
vertex $-1 $421 $542 #
point $-1 26.656491556020583 -34.100743007677785 11.429686815036124 #
vertex $-1 $425 $543 #
point $-1 33.02625085145074 -34.100743007677785 11.429686815036124 #
vertex $-1 $429 $544 #
point $-1 39.396010146880897 -34.100743007677785 11.429686815036124 #
straight-curve $-1 -63.671376689962457 44.048809374424017 0 0 0 -1 I I #
point $-1 -63.671376689962457 -44.048809374424017 -20.061586407613738 #
straight-curve $-1 -63.671376689962457 0 -20.061586407613738 0 1 0 I I #
point $-1 -63.671376689962457 44.048809374424017 -20.061586407613738 #
edge $-1 $465 -20.061586407613738 $455 -14.094968036180322 $450 $545 forward 7 unknown #
edge $-1 $463 -20.061586407613738 $457 -14.094968036180322 $453 $546 forward 7 unknown #
straight-curve $-1 -63.671376689962457 0 14.094968036180322 0 -1 0 I I #
point $-1 -63.671376689962457 -44.048809374424017 14.094968036180322 #
point $-1 -63.671376689962457 44.048809374424017 14.094968036180322 #
straight-curve $-1 -63.671376689962457 0 20.061586407613738 0 -1 0 I I #
point $-1 -63.671376689962457 44.048809374424017 20.061586407613738 #
point $-1 -63.671376689962457 -44.048809374424017 20.061586407613738 #
straight-curve $-1 45.883159188674192 -44.048809374424017 8.5391386109485161 0 0 -1 I I #
straight-curve $-1 0 -44.048809374424017 20.061586407613738 1 0 0 I I #
straight-curve $-1 0 44.048809374424017 20.061586407613738 -1 0 0 I I #
point $-1 45.883159188674192 -44.048809374424017 20.061586407613742 #
straight-curve $-1 63.671376689962457 0 20.061586407613738 0 1 0 I I #
point $-1 63.671376689962457 44.048809374424017 20.061586407613738 #
point $-1 63.671376689962457 -44.048809374424017 20.061586407613738 #
straight-curve $-1 0 44.048809374424017 20.061586407613738 -1 0 0 I I #
straight-curve $-1 -45.883159188674199 44.048809374424017 83.703386662460858 0 0 1 I I #
point $-1 -45.883159188674199 44.048809374424017 20.061586407613742 #
point $-1 -39.833365159353598 34.833930450315719 10.714493328003446 #
point $-1 -30.758674115372699 34.833930450315719 10.714493328003446 #
straight-curve $-1 21.409985359067143 -44.048809374424017 55.884275575000487 0 0 -1 I I #
point $-1 21.409985359067143 -44.048809374424017 20.061586407613738 #
straight-curve $-1 16.01312542572537 -44.048809374424017 8.7461002499065543 1 0 0 I I #
point $-1 21.409985359067143 -44.048809374424017 8.7461002499065525 #
point $-1 25.656491556020583 -33.51295774787598 10.62066982611702 #
point $-1 32.02625085145074 -33.51295774787598 10.62066982611702 #
point $-1 38.396010146880897 -33.51295774787598 10.62066982611702 #
straight-curve $-1 -63.671376689962457 -44.048809374424017 0 0 0 -1 I I #
straight-curve $-1 -63.671376689962457 44.048809374424017 0 0 0 -1 I I #
End-of-ACIS-data 