500 0 11 0           
7 Unknown 11 ACIS 5.0 NT 24 Thu Mar 25 23:17:12 1999 
-1 9.9999999999999995e-007 1e-010 
body $-1 $11 $-1 $12 #
body $-1 $13 $-1 $14 #
body $-1 $15 $-1 $16 #
body $-1 $17 $-1 $18 #
body $-1 $19 $-1 $20 #
body $-1 $21 $-1 $22 #
body $-1 $23 $-1 $24 #
body $-1 $25 $-1 $26 #
body $-1 $27 $-1 $28 #
body $-1 $29 $-1 $30 #
body $-1 $31 $-1 $32 #
lump $-1 $-1 $33 $0 #
transform $-1 1 0 0 0 1 0 0 0 1 54.900357066560872 32.232660274385559 7.6402432045999085 1 rotate no_reflect no_shear #
lump $-1 $-1 $34 $1 #
transform $-1 1 0 0 0 1 0 0 0 1 54.900357066560872 32.232660274385559 7.6402432045999085 1 rotate no_reflect no_shear #
lump $-1 $-1 $35 $2 #
transform $-1 1 0 0 0 1 0 0 0 1 54.900357066560872 32.232660274385559 7.6402432045999085 1 rotate no_reflect no_shear #
lump $-1 $-1 $36 $3 #
transform $-1 1 0 0 0 1 0 0 0 1 54.900357066560872 32.232660274385559 7.6402432045999085 1 rotate no_reflect no_shear #
lump $-1 $-1 $37 $4 #
transform $-1 1 0 0 0 1 0 0 0 1 54.900357066560872 32.232660274385559 7.6402432045999085 1 rotate no_reflect no_shear #
lump $-1 $-1 $38 $5 #
transform $-1 1 0 0 0 1 0 0 0 1 54.900357066560872 32.232660274385559 7.6402432045999085 1 rotate no_reflect no_shear #
lump $-1 $-1 $39 $6 #
transform $-1 1 0 0 0 1 0 0 0 1 54.900357066560872 32.232660274385559 7.6402432045999085 1 rotate no_reflect no_shear #
lump $-1 $-1 $40 $7 #
transform $-1 1 0 0 0 1 0 0 0 1 54.900357066560872 32.232660274385559 7.6402432045999085 1 rotate no_reflect no_shear #
lump $-1 $-1 $41 $8 #
transform $-1 1 0 0 0 1 0 0 0 1 54.900357066560872 32.232660274385559 7.6402432045999085 1 rotate no_reflect no_shear #
lump $-1 $-1 $42 $9 #
transform $-1 1 0 0 0 1 0 0 0 1 54.900357066560872 32.232660274385559 7.6402432045999085 1 rotate no_reflect no_shear #
lump $-1 $-1 $43 $10 #
transform $-1 1 0 0 0 1 0 0 0 1 54.900357066560872 32.232660274385559 7.6402432045999085 1 rotate no_reflect no_shear #
shell $-1 $-1 $-1 $44 $-1 $11 #
shell $-1 $-1 $-1 $45 $-1 $13 #
shell $-1 $-1 $-1 $46 $-1 $15 #
shell $-1 $-1 $-1 $47 $-1 $17 #
shell $-1 $-1 $-1 $48 $-1 $19 #
shell $-1 $-1 $-1 $49 $-1 $21 #
shell $-1 $-1 $-1 $50 $-1 $23 #
shell $-1 $-1 $-1 $51 $-1 $25 #
shell $-1 $-1 $-1 $52 $-1 $27 #
shell $-1 $-1 $-1 $53 $-1 $29 #
shell $-1 $-1 $-1 $54 $-1 $31 #
face $-1 $55 $56 $33 $-1 $57 forward single #
face $-1 $58 $59 $34 $-1 $60 forward single #
face $-1 $61 $62 $35 $-1 $63 forward single #
face $-1 $64 $65 $36 $-1 $66 reversed single #
face $-1 $67 $68 $37 $-1 $69 forward single #
face $-1 $70 $71 $38 $-1 $72 reversed single #
face $-1 $73 $74 $39 $-1 $75 forward single #
face $-1 $76 $77 $40 $-1 $78 reversed single #
face $-1 $79 $80 $41 $-1 $81 forward single #
face $-1 $82 $83 $42 $-1 $84 forward single #
face $-1 $85 $86 $43 $-1 $87 forward single #
face $-1 $88 $89 $33 $-1 $90 reversed single #
loop $-1 $-1 $91 $44 #
plane-surface $-1 0 0 7.6402432045999085 0 0 1 1 0 0 forward_v I I I I #
face $-1 $92 $93 $34 $-1 $94 reversed single #
loop $-1 $-1 $95 $45 #
plane-surface $-1 0 -32.232660274385559 0 0 1 0 0 0 1 forward_v I I I I #
face $-1 $96 $97 $35 $-1 $98 reversed single #
loop $-1 $-1 $99 $46 #
plane-surface $-1 0 32.232660274385559 0 0 -1 0 0 0 -1 forward_v I I I I #
face $-1 $100 $101 $36 $-1 $102 reversed single #
loop $-1 $-1 $103 $47 #
plane-surface $-1 60.319610696358708 0 157.42809619927687 0 -1 0 -0.73135370988377701 0 -0.68199835119979291 forward_v I I I I #
face $-1 $104 $105 $37 $-1 $106 forward single #
loop $-1 $107 $108 $48 #
cone-surface $-1 51.281450140634661 -4.9696664455233375 3.9134870530487862 -0.73135370988377701 0 -0.68199835119979291 1.0229975267996894 0 -1.0970305648256655 1 I I 0 1 1.5 forward I I I I #
face $-1 $109 $110 $38 $-1 $111 reversed single #
loop $-1 $-1 $112 $49 #
plane-surface $-1 60.319610696358708 9.9393328910466749 157.42809619927687 0 -1 0 -0.73135370988377701 0 -0.68199835119979291 forward_v I I I I #
face $-1 $113 $114 $39 $-1 $115 forward single #
loop $-1 $116 $117 $50 #
cone-surface $-1 51.281450140634661 4.9696664455233375 3.9134870530487862 -0.73135370988377701 0 -0.68199835119979291 1.0229975267996894 0 -1.0970305648256655 1 I I 0 1 1.5 forward I I I I #
face $-1 $118 $119 $40 $-1 $120 reversed single #
loop $-1 $-1 $121 $51 #
plane-surface $-1 -116.30013800381607 13.608155115691304 92.044850830234196 0 1 0 -0.55919291073839883 0 0.82903756765294845 forward_v I I I I #
face $-1 $122 $123 $41 $-1 $124 forward single #
loop $-1 $125 $126 $52 #
cone-surface $-1 -49.710289464294597 15.706700727800566 3.9135697478505929 0.55919291073839883 0 -0.82903756765294845 0.41451878382647422 0 0.27959645536919941 1 I I 0 1 0.5 forward I I I I #
face $-1 $127 $128 $42 $-1 $129 forward single #
loop $-1 $130 $131 $53 #
cone-surface $-1 -49.710289464294597 18.854519145964453 3.9135697478505929 0.55919291073839883 0 -0.82903756765294845 0.41451878382647422 0 0.27959645536919941 1 I I 0 1 0.5 forward I I I I #
face $-1 $132 $133 $43 $-1 $134 forward single #
loop $-1 $135 $136 $54 #
cone-surface $-1 -49.710289464294597 22.002337564128339 3.9135697478505929 0.55919291073839883 0 -0.82903756765294845 0.41451878382647422 0 0.27959645536919941 1 I I 0 1 0.5 forward I I I I #
face $-1 $137 $138 $33 $-1 $139 reversed single #
loop $-1 $-1 $140 $55 #
plane-surface $-1 0 0 -7.6402432045999085 0 0 1 1 0 0 forward_v I I I I #
coedge $-1 $141 $142 $143 $144 forward $56 $-1 #
face $-1 $145 $146 $34 $-1 $147 reversed single #
loop $-1 $-1 $148 $58 #
plane-surface $-1 0 0 -7.6402432045999085 0 0 1 1 0 0 forward_v I I I I #
coedge $-1 $149 $150 $151 $152 forward $59 $-1 #
face $-1 $153 $154 $35 $-1 $155 forward single #
loop $-1 $-1 $156 $61 #
plane-surface $-1 -54.900357066560872 0 0 1 0 0 0 0 -1 forward_v I I I I #
coedge $-1 $157 $158 $159 $160 forward $62 $-1 #
face $-1 $161 $162 $36 $-1 $163 reversed single #
loop $-1 $-1 $164 $64 #
plane-surface $-1 -19.98354893278794 -4.9696664455233375 82.544190199928039 0.73135370988377701 0 0.68199835119979291 0.68199835119979291 0 -0.73135370988377701 forward_v I I I I #
coedge $-1 $165 $166 $167 $168 reversed $65 $-1 #
face $-1 $-1 $169 $37 $-1 $170 forward single #
loop $-1 $171 $172 $67 #
cone-surface $-1 49.631451488283645 -4.9696664455233375 2.3748384550070831 -0.73135370988377701 0 -0.68199835119979291 0.51149876339984468 0 -0.54851528241283276 1 I I -0.70710678118654757 0.70710678118654757 0.75 forward I I I I #
loop $-1 $-1 $173 $48 #
coedge $-1 $108 $108 $174 $175 reversed $68 $-1 #
face $-1 $176 $177 $38 $-1 $178 forward single #
loop $-1 $-1 $179 $70 #
plane-surface $-1 -19.98354893278794 -4.9696664455233375 82.544190199928039 0.73135370988377701 0 0.68199835119979291 0.68199835119979291 0 -0.73135370988377701 forward_v I I I I #
coedge $-1 $180 $181 $182 $183 reversed $71 $-1 #
face $-1 $-1 $184 $39 $-1 $185 forward single #
loop $-1 $186 $187 $73 #
cone-surface $-1 49.631451488283645 4.9696664455233375 2.3748384550070831 -0.73135370988377701 0 -0.68199835119979291 0.51149876339984468 0 -0.54851528241283276 1 I I -0.70710678118654757 0.70710678118654757 0.75 forward I I I I #
loop $-1 $-1 $188 $50 #
coedge $-1 $117 $117 $189 $190 reversed $74 $-1 #
face $-1 $191 $192 $40 $-1 $193 reversed single #
loop $-1 $-1 $194 $76 #
plane-surface $-1 -54.900357066560879 18.854519145964453 1.0159338587542237 -0.55919291073839883 0 0.82903756765294845 0.82903756765294845 0 0.55919291073839883 forward_v I I I I #
coedge $-1 $195 $196 $197 $198 reversed $77 $-1 #
face $-1 $-1 $199 $41 $-1 $200 forward single #
loop $-1 $201 $202 $79 #
cone-surface $-1 -49.290894781240794 15.706700727800566 3.2917915721108812 0.55919291073839883 0 -0.82903756765294845 0.20725939191323711 0 0.13979822768459971 1 I I -0.70710678118654746 0.70710678118654746 0.25 forward I I I I #
loop $-1 $-1 $203 $52 #
coedge $-1 $126 $126 $204 $205 reversed $80 $-1 #
face $-1 $-1 $206 $42 $-1 $207 forward single #
loop $-1 $208 $209 $82 #
cone-surface $-1 -49.290894781240794 18.854519145964453 3.2917915721108812 0.55919291073839883 0 -0.82903756765294845 0.20725939191323711 0 0.13979822768459971 1 I I -0.70710678118654746 0.70710678118654746 0.25 forward I I I I #
loop $-1 $-1 $210 $53 #
coedge $-1 $131 $131 $211 $212 reversed $83 $-1 #
face $-1 $-1 $213 $43 $-1 $214 forward single #
loop $-1 $215 $216 $85 #
cone-surface $-1 -49.290894781240794 22.002337564128339 3.2917915721108812 0.55919291073839883 0 -0.82903756765294845 0.20725939191323711 0 0.13979822768459971 1 I I -0.70710678118654746 0.70710678118654746 0.25 forward I I I I #
loop $-1 $-1 $217 $54 #
coedge $-1 $136 $136 $218 $219 reversed $86 $-1 #
face $-1 $220 $221 $33 $-1 $222 reversed single #
loop $-1 $-1 $223 $88 #
plane-surface $-1 0 -32.232660274385559 0 0 1 0 0 0 1 forward_v I I I I #
coedge $-1 $224 $225 $226 $227 forward $89 $-1 #
coedge $-1 $228 $91 $229 $230 forward $56 $-1 #
coedge $-1 $91 $228 $231 $232 forward $56 $-1 #
coedge $-1 $233 $234 $91 $144 reversed $235 $-1 #
edge $-1 $236 -32.232660274385559 $237 32.232660274385559 $143 $238 forward 7 unknown #
face $-1 $239 $240 $34 $-1 $241 forward single #
loop $-1 $-1 $242 $92 #
plane-surface $-1 54.900357066560872 0 0 -1 0 0 0 0 1 forward_v I I I I #
coedge $-1 $243 $244 $245 $246 forward $93 $-1 #
coedge $-1 $245 $95 $242 $247 reversed $59 $-1 #
coedge $-1 $95 $245 $248 $249 reversed $59 $-1 #
coedge $-1 $250 $251 $95 $152 reversed $240 $-1 #
edge $-1 $252 -54.900357066560872 $253 54.900357066560872 $151 $254 forward 7 unknown #
face $-1 $255 $256 $35 $-1 $257 reversed single #
loop $-1 $-1 $258 $96 #
plane-surface $-1 0 36.298548823459548 -3.4992113351869794 0 0 1 1 0 0 forward_v I I I I #
coedge $-1 $259 $260 $157 $261 forward $97 $-1 #
coedge $-1 $262 $99 $156 $261 reversed $62 $-1 #
coedge $-1 $99 $262 $263 $264 reversed $62 $-1 #
coedge $-1 $258 $265 $99 $160 reversed $154 $-1 #
edge $-1 $266 -54.900357066560872 $267 54.900357066560872 $159 $268 forward 7 unknown #
face $-1 $269 $270 $36 $-1 $271 forward single #
loop $-1 $-1 $272 $100 #
plane-surface $-1 60.319610696358708 -9.9393328910466749 157.42809619927687 0 1 0 0.73135370988377701 0 0.68199835119979291 forward_v I I I I #
coedge $-1 $273 $274 $275 $276 reversed $101 $-1 #
coedge $-1 $166 $103 $277 $278 reversed $65 $-1 #
coedge $-1 $103 $165 $273 $279 reversed $65 $-1 #
coedge $-1 $275 $280 $103 $168 forward $270 $-1 #
edge $-1 $281 -24.740551718381518 $282 -19.705704606405455 $167 $283 forward 7 unknown #
loop $-1 $-1 $174 $104 #
plane-surface $-1 -19.98354893278794 -4.9696664455233375 82.544190199928039 0.73135370988377701 0 0.68199835119979291 0.68199835119979291 0 -0.73135370988377701 forward_v I I I I #
loop $-1 $-1 $284 $67 #
coedge $-1 $172 $172 $173 $285 reversed $105 $-1 #
coedge $-1 $173 $173 $172 $285 forward $107 $-1 #
coedge $-1 $174 $174 $108 $175 forward $169 $-1 #
edge $-1 $286 0 $286 6.2831853071796004 $174 $287 forward 7 unknown #
face $-1 $288 $289 $38 $-1 $290 forward single #
loop $-1 $-1 $291 $109 #
plane-surface $-1 0 0 7.6402432045999085 0 0 1 1 0 0 forward_v I I I I #
coedge $-1 $292 $293 $294 $295 reversed $110 $-1 #
coedge $-1 $181 $112 $296 $297 reversed $71 $-1 #
coedge $-1 $112 $180 $291 $298 reversed $71 $-1 #
coedge $-1 $299 $300 $112 $183 forward $301 $-1 #
edge $-1 $302 -76.473017528857028 $303 -71.073804895038521 $182 $304 forward 7 unknown #
loop $-1 $-1 $189 $113 #
plane-surface $-1 -19.98354893278794 -4.9696664455233375 82.544190199928039 0.73135370988377701 0 0.68199835119979291 0.68199835119979291 0 -0.73135370988377701 forward_v I I I I #
loop $-1 $-1 $305 $73 #
coedge $-1 $187 $187 $188 $306 reversed $114 $-1 #
coedge $-1 $188 $188 $187 $306 forward $116 $-1 #
coedge $-1 $189 $189 $117 $190 forward $184 $-1 #
edge $-1 $307 0 $307 6.2831853071796004 $189 $308 forward 7 unknown #
face $-1 $309 $310 $40 $-1 $311 reversed single #
loop $-1 $-1 $312 $118 #
plane-surface $-1 -116.30013800381607 24.100883176237602 92.044850830234196 0 -1 0 0.55919291073839883 0 -0.82903756765294845 forward_v I I I I #
coedge $-1 $313 $314 $315 $316 reversed $119 $-1 #
coedge $-1 $196 $121 $317 $318 reversed $77 $-1 #
coedge $-1 $121 $195 $313 $319 reversed $77 $-1 #
coedge $-1 $315 $320 $121 $198 forward $321 $-1 #
edge $-1 $322 3.2497119353471646 $323 13.070654229141311 $197 $324 forward 7 unknown #
loop $-1 $-1 $204 $122 #
plane-surface $-1 -54.900357066560879 18.854519145964453 1.0159338587542237 -0.55919291073839883 0 0.82903756765294845 0.82903756765294845 0 0.55919291073839883 forward_v I I I I #
loop $-1 $-1 $325 $79 #
coedge $-1 $202 $202 $203 $326 reversed $123 $-1 #
coedge $-1 $203 $203 $202 $326 forward $125 $-1 #
coedge $-1 $204 $204 $126 $205 forward $199 $-1 #
edge $-1 $327 0 $327 6.2831853071796004 $204 $328 forward 7 unknown #
loop $-1 $-1 $211 $127 #
plane-surface $-1 -54.900357066560879 18.854519145964453 1.0159338587542237 -0.55919291073839883 0 0.82903756765294845 0.82903756765294845 0 0.55919291073839883 forward_v I I I I #
loop $-1 $-1 $329 $82 #
coedge $-1 $209 $209 $210 $330 reversed $128 $-1 #
coedge $-1 $210 $210 $209 $330 forward $130 $-1 #
coedge $-1 $211 $211 $131 $212 forward $206 $-1 #
edge $-1 $331 0 $331 6.2831853071796004 $211 $332 forward 7 unknown #
loop $-1 $-1 $218 $132 #
plane-surface $-1 -54.900357066560879 18.854519145964453 1.0159338587542237 -0.55919291073839883 0 0.82903756765294845 0.82903756765294845 0 0.55919291073839883 forward_v I I I I #
loop $-1 $-1 $333 $85 #
coedge $-1 $216 $216 $217 $334 reversed $133 $-1 #
coedge $-1 $217 $217 $216 $334 forward $135 $-1 #
coedge $-1 $218 $218 $136 $219 forward $213 $-1 #
edge $-1 $335 0 $335 6.2831853071796004 $218 $336 forward 7 unknown #
face $-1 $337 $338 $33 $-1 $339 reversed single #
loop $-1 $-1 $340 $137 #
plane-surface $-1 -54.900357066560872 0 0 1 0 0 0 0 -1 forward_v I I I I #
coedge $-1 $341 $231 $342 $343 forward $138 $-1 #
coedge $-1 $344 $140 $341 $345 forward $89 $-1 #
coedge $-1 $140 $344 $346 $347 forward $89 $-1 #
coedge $-1 $234 $233 $140 $227 reversed $235 $-1 #
edge $-1 $348 -32.232660274385559 $349 32.232660274385559 $226 $350 forward 7 unknown #
coedge $-1 $142 $141 $351 $352 forward $56 $-1 #
coedge $-1 $353 $354 $141 $230 reversed $338 $-1 #
edge $-1 $237 -54.900357066560872 $355 54.900357066560872 $229 $356 forward 7 unknown #
coedge $-1 $223 $357 $142 $232 reversed $138 $-1 #
edge $-1 $358 -54.900357066560872 $236 54.900357066560872 $231 $359 forward 7 unknown #
coedge $-1 $226 $143 $357 $360 forward $235 $-1 #
coedge $-1 $143 $226 $353 $361 reversed $235 $-1 #
loop $-1 $-1 $233 $337 #
vertex $-1 $144 $362 #
vertex $-1 $144 $363 #
straight-curve $-1 54.900357066560872 0 7.6402432045999085 0 1 0 I I #
face $-1 $364 $365 $34 $-1 $366 reversed single #
loop $-1 $-1 $251 $145 #
plane-surface $-1 0 -36.298548823459541 -3.4992113351869794 0 0 1 1 0 0 forward_v I I I I #
coedge $-1 $367 $368 $149 $247 forward $146 $-1 #
coedge $-1 $369 $148 $368 $370 forward $93 $-1 #
coedge $-1 $148 $369 $371 $372 forward $93 $-1 #
coedge $-1 $150 $149 $148 $246 reversed $59 $-1 #
edge $-1 $373 -54.900357066560872 $374 54.900357066560872 $148 $375 forward 7 unknown #
edge $-1 $374 -7.6402432045999085 $253 -3.4992113351869794 $242 $376 forward 7 unknown #
coedge $-1 $371 $377 $150 $249 forward $378 $-1 #
edge $-1 $252 3.4992113351869794 $373 7.6402432045999085 $248 $379 forward 7 unknown #
coedge $-1 $380 $151 $377 $381 forward $240 $-1 #
coedge $-1 $151 $380 $367 $382 forward $240 $-1 #
vertex $-1 $249 $383 #
vertex $-1 $382 $384 #
straight-curve $-1 0 -32.232660274385559 -3.4992113351869794 1 0 0 I I #
face $-1 $385 $386 $35 $-1 $387 reversed single #
loop $-1 $-1 $388 $153 #
plane-surface $-1 0 40.36443737253353 -5.5697272698934439 0 -1 0 0 0 -1 forward_v I I I I #
coedge $-1 $389 $159 $390 $391 forward $154 $-1 #
coedge $-1 $392 $156 $265 $393 reversed $97 $-1 #
coedge $-1 $156 $392 $394 $395 reversed $97 $-1 #
edge $-1 $396 -7.6402432045999085 $267 -3.4992113351869794 $156 $397 forward 7 unknown #
coedge $-1 $158 $157 $398 $399 reversed $62 $-1 #
coedge $-1 $400 $390 $158 $264 forward $401 $-1 #
edge $-1 $266 3.4992113351869794 $402 7.6402432045999085 $263 $403 forward 7 unknown #
coedge $-1 $159 $389 $259 $393 forward $154 $-1 #
vertex $-1 $264 $404 #
vertex $-1 $393 $405 #
straight-curve $-1 0 32.232660274385559 -3.4992113351869794 -1 0 0 I I #
face $-1 $-1 $406 $36 $-1 $407 reversed single #
loop $-1 $-1 $167 $161 #
plane-surface $-1 0 0 7.6402432045999085 0 0 1 1 0 0 forward_v I I I I #
coedge $-1 $408 $409 $410 $411 reversed $162 $-1 #
coedge $-1 $412 $164 $166 $279 forward $101 $-1 #
coedge $-1 $164 $412 $408 $413 forward $101 $-1 #
coedge $-1 $410 $167 $164 $276 forward $270 $-1 #
edge $-1 $282 -2.4848332227616687 $414 7.4544996682850062 $275 $415 forward 7 unknown #
coedge $-1 $416 $417 $165 $278 forward $406 $-1 #
edge $-1 $418 -76.473017528857028 $281 -71.073804895038521 $277 $419 forward 7 unknown #
edge $-1 $282 102.41822251401646 $418 109.80071413312172 $166 $420 forward 7 unknown #
coedge $-1 $167 $410 $416 $421 forward $270 $-1 #
vertex $-1 $278 $422 #
vertex $-1 $168 $423 #
straight-curve $-1 30.159805348179354 0 7.640243204599912 -1 0 0 I I #
coedge $-1 $284 $284 $-1 $424 reversed $171 $-1 #
edge $-1 $425 0 $425 6.2831853071796004 $172 $426 forward 7 unknown #
vertex $-1 $175 $427 #
ellipse-curve $-1 52.382933510572848 -4.9696664455233375 4.9406368876906495 0.73135370988377701 0 0.68199835119979291 1.0229975267996894 0 -1.0970305648256655 1 I I #
face $-1 $-1 $301 $38 $-1 $428 reversed single #
loop $-1 $-1 $429 $176 #
plane-surface $-1 60.319610696358708 0 157.42809619927687 0 -1 0 -0.73135370988377701 0 -0.68199835119979291 forward_v I I I I #
coedge $-1 $430 $431 $181 $298 forward $177 $-1 #
coedge $-1 $296 $179 $430 $432 reversed $110 $-1 #
coedge $-1 $179 $296 $300 $433 reversed $110 $-1 #
coedge $-1 $434 $429 $179 $295 forward $289 $-1 #
edge $-1 $435 102.41822251401646 $436 109.80071413312172 $294 $437 forward 7 unknown #
coedge $-1 $293 $292 $180 $297 forward $110 $-1 #
edge $-1 $438 102.41822251401646 $302 109.80071413312172 $180 $439 forward 7 unknown #
edge $-1 $303 -24.740551718381518 $438 -19.705704606405455 $291 $440 forward 7 unknown #
coedge $-1 $441 $182 $431 $442 reversed $301 $-1 #
coedge $-1 $182 $441 $293 $433 forward $301 $-1 #
loop $-1 $-1 $182 $288 #
vertex $-1 $183 $443 #
vertex $-1 $183 $444 #
straight-curve $-1 54.900357066560872 9.9393328910466749 78.714048099638433 0 0 1 I I #
coedge $-1 $305 $305 $-1 $445 reversed $186 $-1 #
edge $-1 $446 0 $446 6.2831853071796004 $187 $447 forward 7 unknown #
vertex $-1 $190 $448 #
ellipse-curve $-1 52.382933510572848 4.9696664455233375 4.9406368876906495 0.73135370988377701 0 0.68199835119979291 1.0229975267996894 0 -1.0970305648256655 1 I I #
face $-1 $-1 $321 $40 $-1 $449 forward single #
loop $-1 $-1 $450 $191 #
plane-surface $-1 -54.900357066560872 0 0 1 0 0 0 0 -1 forward_v I I I I #
coedge $-1 $451 $452 $453 $454 reversed $192 $-1 #
coedge $-1 $455 $194 $196 $319 forward $119 $-1 #
coedge $-1 $194 $455 $451 $456 forward $119 $-1 #
coedge $-1 $453 $197 $194 $316 forward $321 $-1 #
edge $-1 $323 4.1808955427090773 $457 14.673623603255376 $315 $458 forward 7 unknown #
coedge $-1 $459 $460 $195 $318 forward $310 $-1 #
edge $-1 $461 -45.006491556362867 $322 -38.382182210517186 $317 $462 forward 7 unknown #
edge $-1 $323 -11.846196936042102 $461 -8.6223131303995443e-015 $196 $463 forward 7 unknown #
coedge $-1 $197 $453 $459 $464 forward $321 $-1 #
loop $-1 $-1 $453 $309 #
vertex $-1 $318 $465 #
vertex $-1 $198 $466 #
straight-curve $-1 -58.150069001908037 13.608155115691304 7.6402432045999049 1 0 0 I I #
coedge $-1 $325 $325 $-1 $467 reversed $201 $-1 #
edge $-1 $468 0 $468 6.2831853071796004 $202 $469 forward 7 unknown #
vertex $-1 $205 $470 #
ellipse-curve $-1 -49.989885919663799 15.706700727800566 4.3280885316770688 -0.55919291073839883 0 0.82903756765294845 0.41451878382647422 0 0.27959645536919941 1 I I #
coedge $-1 $329 $329 $-1 $471 reversed $208 $-1 #
edge $-1 $472 0 $472 6.2831853071796004 $209 $473 forward 7 unknown #
vertex $-1 $212 $474 #
ellipse-curve $-1 -49.989885919663799 18.854519145964453 4.3280885316770688 -0.55919291073839883 0 0.82903756765294845 0.41451878382647422 0 0.27959645536919941 1 I I #
coedge $-1 $333 $333 $-1 $475 reversed $215 $-1 #
edge $-1 $476 0 $476 6.2831853071796004 $216 $477 forward 7 unknown #
vertex $-1 $219 $478 #
ellipse-curve $-1 -49.989885919663799 22.002337564128339 4.3280885316770688 -0.55919291073839883 0 0.82903756765294845 0.41451878382647422 0 0.27959645536919941 1 I I #
face $-1 $-1 $235 $33 $-1 $479 reversed single #
loop $-1 $-1 $353 $220 #
plane-surface $-1 0 32.232660274385559 0 0 -1 0 0 0 -1 forward_v I I I I #
coedge $-1 $480 $351 $354 $481 forward $221 $-1 #
coedge $-1 $357 $223 $224 $345 reversed $138 $-1 #
coedge $-1 $351 $480 $223 $343 reversed $221 $-1 #
edge $-1 $358 -7.6402432045999085 $482 7.6402432045999085 $342 $483 forward 7 unknown #
coedge $-1 $225 $224 $480 $484 forward $89 $-1 #
edge $-1 $349 -54.900357066560872 $482 54.900357066560872 $341 $485 forward 7 unknown #
coedge $-1 $354 $353 $225 $347 reversed $338 $-1 #
edge $-1 $486 -54.900357066560872 $348 54.900357066560872 $346 $487 forward 7 unknown #
vertex $-1 $227 $488 #
vertex $-1 $360 $489 #
straight-curve $-1 54.900357066560872 0 -7.6402432045999085 0 -1 0 I I #
coedge $-1 $340 $342 $228 $352 reversed $221 $-1 #
edge $-1 $355 -32.232660274385559 $358 32.232660274385559 $351 $490 forward 7 unknown #
coedge $-1 $346 $229 $234 $361 forward $338 $-1 #
coedge $-1 $229 $346 $340 $481 reversed $338 $-1 #
vertex $-1 $230 $491 #
straight-curve $-1 0 32.232660274385559 7.6402432045999085 -1 0 0 I I #
coedge $-1 $231 $341 $233 $360 reversed $138 $-1 #
vertex $-1 $352 $492 #
straight-curve $-1 0 -32.232660274385559 7.6402432045999085 1 0 0 I I #
edge $-1 $236 -7.6402432045999085 $349 7.6402432045999085 $233 $493 forward 7 unknown #
edge $-1 $237 -7.6402432045999085 $348 7.6402432045999085 $234 $494 forward 7 unknown #
point $-1 54.900357066560872 -32.232660274385559 7.6402432045999085 #
point $-1 54.900357066560872 32.232660274385559 7.6402432045999085 #
face $-1 $-1 $378 $34 $-1 $495 reversed single #
loop $-1 $-1 $496 $239 #
plane-surface $-1 0 -40.364437372533516 -5.5697272698934439 0 1 0 0 0 1 forward_v I I I I #
coedge $-1 $497 $242 $251 $382 reversed $146 $-1 #
coedge $-1 $242 $497 $243 $370 reversed $146 $-1 #
coedge $-1 $244 $243 $498 $499 forward $93 $-1 #
edge $-1 $374 32.232660274385559 $500 40.364437372533516 $368 $501 forward 7 unknown #
coedge $-1 $502 $248 $244 $372 reversed $378 $-1 #
edge $-1 $503 -40.364437372533516 $373 -32.232660274385559 $371 $504 forward 7 unknown #
vertex $-1 $249 $505 #
vertex $-1 $370 $506 #
straight-curve $-1 0 -32.232660274385559 -7.6402432045999085 1 0 0 I I #
straight-curve $-1 54.900357066560872 -32.232660274385559 0 0 0 1 I I #
coedge $-1 $248 $502 $250 $381 reversed $378 $-1 #
loop $-1 $-1 $248 $364 #
straight-curve $-1 -54.900357066560872 -32.232660274385559 0 0 0 -1 I I #
coedge $-1 $251 $250 $507 $508 forward $240 $-1 #
edge $-1 $252 -4.0658885490739749 $509 4.0658885490739749 $377 $510 forward 7 unknown #
edge $-1 $511 -4.0658885490739749 $253 4.0658885490739749 $367 $512 forward 7 unknown #
point $-1 -54.900357066560872 -32.232660274385566 -3.4992113351869794 #
point $-1 54.900357066560872 -32.232660274385566 -3.4992113351869794 #
face $-1 $-1 $401 $35 $-1 $513 reversed single #
loop $-1 $-1 $398 $255 #
plane-surface $-1 0 0 -7.6402432045999085 0 0 1 1 0 0 forward_v I I I I #
coedge $-1 $514 $515 $516 $517 forward $256 $-1 #
coedge $-1 $265 $258 $515 $518 forward $154 $-1 #
coedge $-1 $263 $516 $258 $391 reversed $401 $-1 #
edge $-1 $266 -4.065888549073982 $519 4.065888549073982 $390 $520 forward 7 unknown #
coedge $-1 $260 $259 $521 $522 forward $97 $-1 #
edge $-1 $523 -4.065888549073982 $267 4.065888549073982 $259 $524 forward 7 unknown #
coedge $-1 $525 $398 $260 $395 forward $386 $-1 #
edge $-1 $396 -4.0658885490739891 $526 4.065888549073982 $260 $527 forward 7 unknown #
vertex $-1 $395 $528 #
straight-curve $-1 -54.900357066560872 32.232660274385559 0 0 0 1 I I #
coedge $-1 $394 $529 $262 $399 forward $386 $-1 #
edge $-1 $402 -54.900357066560872 $396 54.900357066560872 $398 $530 forward 7 unknown #
coedge $-1 $516 $263 $529 $531 reversed $401 $-1 #
loop $-1 $-1 $263 $385 #
vertex $-1 $264 $532 #
straight-curve $-1 54.900357066560872 32.232660274385559 0 0 0 -1 I I #
point $-1 54.900357066560872 32.232660274385566 -3.4992113351869794 #
point $-1 -54.900357066560872 32.232660274385566 -3.4992113351869794 #
loop $-1 $-1 $277 $269 #
plane-surface $-1 54.900357066560872 0 0 -1 0 0 0 0 1 forward_v I I I I #
coedge $-1 $409 $272 $274 $413 reversed $162 $-1 #
coedge $-1 $272 $408 $533 $534 reversed $162 $-1 #
coedge $-1 $280 $275 $272 $411 forward $270 $-1 #
edge $-1 $414 19.705704606405455 $535 24.740551718381518 $410 $536 forward 7 unknown #
coedge $-1 $274 $273 $417 $537 reversed $101 $-1 #
edge $-1 $538 -109.80071413312172 $414 -102.41822251401646 $408 $539 forward 7 unknown #
vertex $-1 $276 $540 #
straight-curve $-1 49.865509954584809 -2.4848332227616687 7.640243204599912 0 -1 0 I I #
coedge $-1 $533 $277 $280 $421 reversed $406 $-1 #
coedge $-1 $277 $533 $412 $537 forward $406 $-1 #
vertex $-1 $278 $541 #
straight-curve $-1 54.900357066560872 0 78.714048099638433 0 0 1 I I #
straight-curve $-1 -19.98354893278794 0 82.544190199928039 0.68199835119979291 0 -0.73135370988377701 I I #
edge $-1 $535 -9.9393328910466749 $281 0 $416 $542 forward 7 unknown #
point $-1 54.900357066560872 0 7.6402432045999085 #
point $-1 49.865509954584809 0 7.640243204599912 #
edge $-1 $543 1 $543 0 $284 $-1 forward 7 unknown #
vertex $-1 $285 $544 #
ellipse-curve $-1 50.179966770696481 -4.9696664455233375 2.8863372184069278 0.73135370988377701 0 0.68199835119979291 1.0229975267996894 0 -1.0970305648256655 1 I I #
point $-1 53.405931037372532 -4.9696664455233375 3.8436063228649791 #
plane-surface $-1 54.900357066560872 0 0 -1 0 0 0 0 1 forward_v I I I I #
coedge $-1 $294 $434 $545 $546 reversed $289 $-1 #
coedge $-1 $545 $291 $292 $432 forward $177 $-1 #
coedge $-1 $291 $545 $299 $442 forward $177 $-1 #
edge $-1 $438 -12.424166113808344 $435 -2.4848332227616687 $430 $547 forward 7 unknown #
edge $-1 $436 2.4848332227616687 $302 12.424166113808344 $300 $548 forward 7 unknown #
coedge $-1 $429 $294 $441 $549 reversed $289 $-1 #
vertex $-1 $432 $550 #
vertex $-1 $433 $551 #
straight-curve $-1 -19.98354893278794 0 82.544190199928039 0.68199835119979291 0 -0.73135370988377701 I I #
vertex $-1 $298 $552 #
straight-curve $-1 -19.98354893278794 9.9393328910466749 82.544190199928039 0.68199835119979291 0 -0.73135370988377701 I I #
straight-curve $-1 30.159805348179354 9.9393328910466749 7.640243204599912 -1 0 0 I I #
coedge $-1 $300 $299 $434 $549 forward $301 $-1 #
edge $-1 $553 0 $303 9.9393328910466749 $299 $554 forward 7 unknown #
point $-1 54.900357066560872 9.9393328910466749 2.2410305707814047 #
point $-1 54.900357066560872 9.9393328910466749 7.6402432045999085 #
edge $-1 $555 1 $555 0 $305 $-1 forward 7 unknown #
vertex $-1 $306 $556 #
ellipse-curve $-1 50.179966770696481 4.9696664455233375 2.8863372184069278 0.73135370988377701 0 0.68199835119979291 1.0229975267996894 0 -1.0970305648256655 1 I I #
point $-1 53.405931037372532 4.9696664455233375 3.8436063228649791 #
plane-surface $-1 0 0 7.6402432045999085 0 0 1 1 0 0 forward_v I I I I #
coedge $-1 $460 $459 $452 $557 forward $310 $-1 #
coedge $-1 $452 $312 $314 $456 reversed $192 $-1 #
coedge $-1 $312 $451 $450 $557 reversed $192 $-1 #
coedge $-1 $320 $315 $312 $454 forward $321 $-1 #
edge $-1 $457 -13.070654229141311 $558 -3.2497119353471646 $453 $559 forward 7 unknown #
coedge $-1 $314 $313 $460 $560 reversed $119 $-1 #
edge $-1 $561 8.6223131303995443e-015 $457 11.846196936042102 $451 $562 forward 7 unknown #
vertex $-1 $316 $563 #
straight-curve $-1 -45.079414772766725 9.4272595729822264 7.6402432045999076 0 1 0 I I #
coedge $-1 $450 $317 $320 $464 reversed $310 $-1 #
coedge $-1 $317 $450 $455 $560 forward $310 $-1 #
vertex $-1 $318 $564 #
straight-curve $-1 -54.900357066560872 13.608155115691304 46.022425415117098 0 0 1 I I #
straight-curve $-1 -54.900357066560879 13.608155115691304 1.0159338587542237 -0.82903756765294845 0 -0.55919291073839883 I I #
edge $-1 $558 -24.100883176237602 $322 -13.608155115691304 $459 $565 forward 7 unknown #
point $-1 -54.900357066560872 13.608155115691304 7.6402432045999085 #
point $-1 -45.079414772766725 13.608155115691304 7.6402432045999085 #
edge $-1 $566 1 $566 0 $325 $-1 forward 7 unknown #
vertex $-1 $326 $567 #
ellipse-curve $-1 -49.430693008925395 15.706700727800566 3.4990509640241183 -0.55919291073839883 0 0.82903756765294845 0.41451878382647422 0 0.27959645536919941 1 I I #
point $-1 -49.575367135837318 15.706700727800566 4.6076849870462659 #
edge $-1 $568 1 $568 0 $329 $-1 forward 7 unknown #
vertex $-1 $330 $569 #
ellipse-curve $-1 -49.430693008925395 18.854519145964453 3.4990509640241183 -0.55919291073839883 0 0.82903756765294845 0.41451878382647422 0 0.27959645536919941 1 I I #
point $-1 -49.575367135837318 18.854519145964453 4.6076849870462659 #
edge $-1 $570 1 $570 0 $333 $-1 forward 7 unknown #
vertex $-1 $334 $571 #
ellipse-curve $-1 -49.430693008925395 22.002337564128339 3.4990509640241183 -0.55919291073839883 0 0.82903756765294845 0.41451878382647422 0 0.27959645536919941 1 I I #
point $-1 -49.575367135837318 22.002337564128339 4.6076849870462659 #
plane-surface $-1 54.900357066560872 0 0 -1 0 0 0 0 1 forward_v I I I I #
coedge $-1 $342 $340 $344 $484 reversed $221 $-1 #
edge $-1 $355 -7.6402432045999085 $486 7.6402432045999085 $354 $572 forward 7 unknown #
vertex $-1 $484 $573 #
straight-curve $-1 -54.900357066560872 -32.232660274385559 0 0 0 -1 I I #
edge $-1 $482 -32.232660274385559 $486 32.232660274385559 $480 $574 forward 7 unknown #
straight-curve $-1 0 -32.232660274385559 -7.6402432045999085 -1 0 0 I I #
vertex $-1 $347 $575 #
straight-curve $-1 0 32.232660274385559 -7.6402432045999085 1 0 0 I I #
point $-1 54.900357066560872 32.232660274385559 -7.6402432045999085 #
point $-1 54.900357066560872 -32.232660274385559 -7.6402432045999085 #
straight-curve $-1 -54.900357066560872 0 7.6402432045999085 0 -1 0 I I #
point $-1 -54.900357066560872 32.232660274385559 7.6402432045999085 #
point $-1 -54.900357066560872 -32.232660274385559 7.6402432045999085 #
straight-curve $-1 54.900357066560872 -32.232660274385559 0 0 0 -1 I I #
straight-curve $-1 54.900357066560872 32.232660274385559 0 0 0 -1 I I #
plane-surface $-1 -54.900357066560872 0 0 1 0 0 0 0 -1 forward_v I I I I #
coedge $-1 $498 $507 $502 $576 forward $365 $-1 #
coedge $-1 $368 $367 $577 $578 forward $146 $-1 #
coedge $-1 $577 $496 $369 $499 reversed $365 $-1 #
edge $-1 $500 -54.900357066560872 $503 54.900357066560872 $498 $579 forward 7 unknown #
vertex $-1 $578 $580 #
straight-curve $-1 54.900357066560872 0 -7.6402432045999085 0 -1 0 I I #
coedge $-1 $377 $371 $496 $576 reversed $378 $-1 #
vertex $-1 $372 $581 #
straight-curve $-1 -54.900357066560872 0 -7.6402432045999085 0 1 0 I I #
point $-1 -54.900357066560872 -32.232660274385559 -7.6402432045999085 #
point $-1 54.900357066560872 -32.232660274385559 -7.6402432045999085 #
coedge $-1 $496 $577 $380 $508 reversed $365 $-1 #
edge $-1 $509 -54.900357066560872 $511 54.900357066560872 $507 $582 forward 7 unknown #
vertex $-1 $381 $583 #
straight-curve $-1 -54.900357066560872 -36.298548823459541 -3.4992113351869794 0 -1 0 I I #
vertex $-1 $382 $584 #
straight-curve $-1 54.900357066560872 -36.298548823459541 -3.4992113351869794 0 1 0 I I #
plane-surface $-1 54.900357066560872 0 0 -1 0 0 0 0 1 forward_v I I I I #
coedge $-1 $521 $388 $525 $585 reversed $256 $-1 #
coedge $-1 $388 $521 $389 $518 reversed $256 $-1 #
coedge $-1 $390 $400 $388 $517 reversed $401 $-1 #
edge $-1 $519 -2.0705159347064646 $586 2.0705159347064646 $516 $587 forward 7 unknown #
edge $-1 $519 -54.900357066560872 $523 54.900357066560872 $515 $588 forward 7 unknown #
vertex $-1 $391 $589 #
straight-curve $-1 54.900357066560872 36.298548823459548 -3.4992113351869794 0 1 0 I I #
coedge $-1 $515 $514 $392 $522 reversed $256 $-1 #
edge $-1 $523 -2.0705159347064646 $526 2.0705159347064646 $521 $590 forward 7 unknown #
vertex $-1 $518 $591 #
straight-curve $-1 -54.900357066560872 36.298548823459548 -3.4992113351869794 0 -1 0 I I #
coedge $-1 $529 $394 $514 $585 forward $386 $-1 #
vertex $-1 $585 $592 #
straight-curve $-1 -54.900357066560872 36.298548823459548 -7.6402432045999085 0 1 0 I I #
point $-1 -54.900357066560872 32.232660274385559 -7.6402432045999085 #
coedge $-1 $398 $525 $400 $531 forward $386 $-1 #
straight-curve $-1 0 32.232660274385559 -7.6402432045999085 -1 0 0 I I #
edge $-1 $586 -40.36443737253353 $402 -32.232660274385559 $400 $593 forward 7 unknown #
point $-1 54.900357066560872 32.232660274385559 -7.6402432045999085 #
coedge $-1 $417 $416 $409 $534 forward $406 $-1 #
edge $-1 $535 71.073804895038521 $538 76.473017528857028 $533 $594 forward 7 unknown #
vertex $-1 $421 $595 #
straight-curve $-1 30.159805348179354 -9.9393328910466749 7.640243204599912 1 0 0 I I #
edge $-1 $538 -7.4544996682850062 $418 2.4848332227616687 $417 $596 forward 7 unknown #
vertex $-1 $537 $597 #
straight-curve $-1 -19.98354893278794 -9.9393328910466749 82.544190199928039 -0.68199835119979291 0 0.73135370988377701 I I #
point $-1 49.865509954584809 -9.9393328910466749 7.640243204599912 #
point $-1 54.900357066560872 0 2.2410305707814047 #
straight-curve $-1 54.900357066560872 0 7.6402432045999085 0 1 0 I I #
vertex $-1 $424 $598 #
point $-1 51.202964297496166 -4.9696664455233375 1.7893066535812623 #
coedge $-1 $431 $430 $429 $546 forward $177 $-1 #
edge $-1 $435 19.705704606405455 $553 24.740551718381518 $545 $599 forward 7 unknown #
straight-curve $-1 49.865509954584809 -2.4848332227616687 7.640243204599912 0 -1 0 I I #
straight-curve $-1 54.900357066560865 -2.4848332227616687 2.2410305707814118 0 1 0 I I #
edge $-1 $553 71.073804895038521 $436 76.473017528857028 $441 $600 forward 7 unknown #
point $-1 49.865509954584809 0 7.640243204599912 #
point $-1 54.900357066560872 0 2.2410305707814047 #
point $-1 49.865509954584809 9.9393328910466749 7.640243204599912 #
vertex $-1 $442 $601 #
straight-curve $-1 54.900357066560872 0 7.6402432045999085 0 1 0 I I #
vertex $-1 $445 $602 #
point $-1 51.202964297496166 4.9696664455233375 1.7893066535812623 #
edge $-1 $558 38.382182210517186 $561 45.006491556362867 $450 $603 forward 7 unknown #
vertex $-1 $464 $604 #
straight-curve $-1 -58.150069001908037 24.100883176237602 7.6402432045999049 -1 0 0 I I #
edge $-1 $561 -14.673623603255376 $461 -4.1808955427090773 $460 $605 forward 7 unknown #
vertex $-1 $560 $606 #
straight-curve $-1 -54.900357066560879 24.100883176237602 1.0159338587542237 0.82903756765294845 0 0.55919291073839883 I I #
point $-1 -45.079414772766725 24.100883176237602 7.6402432045999085 #
point $-1 -54.900357066560872 13.608155115691304 1.0159338587542286 #
straight-curve $-1 -54.900357066560872 0 7.6402432045999085 0 -1 0 I I #
vertex $-1 $467 $607 #
point $-1 -49.016174225098922 15.706700727800566 3.7786474193933177 #
vertex $-1 $471 $608 #
point $-1 -49.016174225098922 18.854519145964453 3.7786474193933177 #
vertex $-1 $475 $609 #
point $-1 -49.016174225098922 22.002337564128339 3.7786474193933177 #
straight-curve $-1 -54.900357066560872 32.232660274385559 0 0 0 -1 I I #
point $-1 -54.900357066560872 -32.232660274385559 -7.6402432045999085 #
straight-curve $-1 -54.900357066560872 0 -7.6402432045999085 0 1 0 I I #
point $-1 -54.900357066560872 32.232660274385559 -7.6402432045999085 #
edge $-1 $509 -2.0705159347064646 $503 2.0705159347064646 $502 $610 forward 7 unknown #
coedge $-1 $507 $498 $497 $578 reversed $365 $-1 #
edge $-1 $511 -2.0705159347064646 $500 2.0705159347064646 $497 $611 forward 7 unknown #
straight-curve $-1 0 -40.364437372533516 -7.6402432045999085 -1 0 0 I I #
point $-1 54.900357066560872 -40.364437372533516 -7.6402432045999085 #
point $-1 -54.900357066560872 -40.364437372533516 -7.6402432045999085 #
straight-curve $-1 0 -40.364437372533516 -3.4992113351869794 1 0 0 I I #
point $-1 -54.900357066560872 -40.364437372533516 -3.4992113351869794 #
point $-1 54.900357066560872 -40.364437372533516 -3.4992113351869794 #
edge $-1 $526 -54.900357066560872 $586 54.900357066560872 $514 $612 forward 7 unknown #
vertex $-1 $531 $613 #
straight-curve $-1 54.900357066560872 40.36443737253353 -5.5697272698934439 0 0 -1 I I #
straight-curve $-1 0 40.36443737253353 -3.4992113351869794 -1 0 0 I I #
point $-1 54.900357066560872 40.36443737253353 -3.4992113351869794 #
straight-curve $-1 -54.900357066560872 40.36443737253353 -5.5697272698934439 0 0 -1 I I #
point $-1 -54.900357066560872 40.36443737253353 -3.4992113351869794 #
point $-1 -54.900357066560872 40.36443737253353 -7.6402432045999085 #
straight-curve $-1 54.900357066560872 0 -7.6402432045999085 0 -1 0 I I #
straight-curve $-1 54.900357066560872 -9.9393328910466749 78.714048099638433 0 0 -1 I I #
point $-1 54.900357066560872 -9.9393328910466749 7.6402432045999085 #
straight-curve $-1 54.900357066560865 -2.4848332227616687 2.2410305707814118 0 1 0 I I #
point $-1 54.900357066560872 -9.9393328910466749 2.2410305707814047 #
point $-1 49.082936205870809 -4.9696664455233375 1.8633396916072384 #
straight-curve $-1 30.159805348179354 0 7.640243204599912 1 0 0 I I #
straight-curve $-1 54.900357066560872 0 78.714048099638433 0 0 -1 I I #
point $-1 54.900357066560872 0 7.6402432045999085 #
point $-1 49.082936205870809 4.9696664455233375 1.8633396916072384 #
straight-curve $-1 -54.900357066560872 24.100883176237602 46.022425415117098 0 0 -1 I I #
point $-1 -54.900357066560872 24.100883176237602 7.6402432045999085 #
straight-curve $-1 -54.900357066560872 9.4272595729822264 1.0159338587542277 0 -1 0 I I #
point $-1 -54.900357066560872 24.100883176237602 1.0159338587542286 #
point $-1 -49.151096553556194 15.706700727800566 3.0845321801976442 #
point $-1 -49.151096553556194 18.854519145964453 3.0845321801976442 #
point $-1 -49.151096553556194 22.002337564128339 3.0845321801976442 #
straight-curve $-1 -54.900357066560872 -40.364437372533516 -5.5697272698934439 0 0 -1 I I #
straight-curve $-1 54.900357066560872 -40.364437372533516 -5.5697272698934439 0 0 -1 I I #
straight-curve $-1 0 40.36443737253353 -7.6402432045999085 1 0 0 I I #
point $-1 54.900357066560872 40.36443737253353 -7.6402432045999085 #
End-of-ACIS-data 