500 0 6 0           
7 Unknown 11 ACIS 5.0 NT 24 Fri Mar 26 00:40:10 1999 
-1 9.9999999999999995e-007 1e-010 
body $-1 $6 $-1 $7 #
body $-1 $8 $-1 $9 #
body $-1 $10 $-1 $11 #
body $-1 $12 $-1 $13 #
body $-1 $14 $-1 $15 #
body $-1 $16 $-1 $17 #
lump $-1 $-1 $18 $0 #
transform $-1 1 0 0 0 1 0 0 0 1 46.239204077272866 25.749283022492076 8.2770660465592449 1 rotate no_reflect no_shear #
lump $-1 $-1 $19 $1 #
transform $-1 1 0 0 0 1 0 0 0 1 46.239204077272866 25.749283022492076 8.2770660465592449 1 rotate no_reflect no_shear #
lump $-1 $-1 $20 $2 #
transform $-1 1 0 0 0 1 0 0 0 1 46.239204077272866 25.749283022492076 8.2770660465592449 1 rotate no_reflect no_shear #
lump $-1 $-1 $21 $3 #
transform $-1 1 0 0 0 1 0 0 0 1 46.239204077272866 25.749283022492076 8.2770660465592449 1 rotate no_reflect no_shear #
lump $-1 $-1 $22 $4 #
transform $-1 1 0 0 0 1 0 0 0 1 46.239204077272866 25.749283022492076 8.2770660465592449 1 rotate no_reflect no_shear #
lump $-1 $-1 $23 $5 #
transform $-1 1 0 0 0 1 0 0 0 1 46.239204077272866 25.749283022492076 8.2770660465592449 1 rotate no_reflect no_shear #
shell $-1 $-1 $-1 $24 $-1 $6 #
shell $-1 $-1 $-1 $25 $-1 $8 #
shell $-1 $-1 $-1 $26 $-1 $10 #
shell $-1 $-1 $-1 $27 $-1 $12 #
shell $-1 $-1 $-1 $28 $-1 $14 #
shell $-1 $-1 $-1 $29 $-1 $16 #
face $-1 $30 $31 $18 $-1 $32 forward single #
face $-1 $33 $34 $19 $-1 $35 forward single #
face $-1 $36 $37 $20 $-1 $38 reversed single #
face $-1 $39 $40 $21 $-1 $41 forward single #
face $-1 $42 $43 $22 $-1 $44 reversed single #
face $-1 $45 $46 $23 $-1 $47 forward single #
face $-1 $48 $49 $18 $-1 $50 reversed single #
loop $-1 $-1 $51 $24 #
plane-surface $-1 0 0 8.2770660465592449 0 0 1 1 0 0 forward_v I I I I #
face $-1 $52 $53 $19 $-1 $54 forward single #
loop $-1 $-1 $55 $25 #
plane-surface $-1 -46.239204077272866 0 0 1 0 0 0 0 -1 forward_v I I I I #
face $-1 $56 $57 $20 $-1 $58 reversed single #
loop $-1 $-1 $59 $26 #
plane-surface $-1 31.121326475605606 54.726408451339182 103.3961569471838 1 0 0 0 -0.70710678939079041 -0.70710677298230451 forward_v I I I I #
face $-1 $60 $61 $21 $-1 $62 forward single #
loop $-1 $63 $64 $27 #
cone-surface $-1 38.680265276439236 20.53694148062592 3.0647244704501921 0 -0.70710678939079041 -0.70710677298230451 2 0 0 1 I I 0 1 2 forward I I I I #
face $-1 $65 $66 $22 $-1 $67 reversed single #
loop $-1 $-1 $68 $28 #
plane-surface $-1 38.680265276439236 -25.749283022492079 1.589062492184226 0 -0.70710678939079041 0.70710677298230451 1 0 0 forward_v I I I I #
face $-1 $69 $70 $23 $-1 $71 forward single #
loop $-1 $72 $73 $29 #
cone-surface $-1 38.680265276439236 -20.536941480625909 3.0647244704501921 0 0.70710678939079041 -0.70710677298230451 2 0 0 1 I I 0 1 2 forward I I I I #
face $-1 $74 $75 $18 $-1 $76 reversed single #
loop $-1 $-1 $77 $30 #
plane-surface $-1 0 0 -8.2770660465592449 0 0 1 1 0 0 forward_v I I I I #
coedge $-1 $78 $79 $80 $81 forward $31 $-1 #
face $-1 $82 $83 $19 $-1 $84 reversed single #
loop $-1 $-1 $85 $33 #
plane-surface $-1 0 0 8.2770660465592449 0 0 1 1 0 0 forward_v I I I I #
coedge $-1 $86 $87 $88 $89 forward $34 $-1 #
face $-1 $90 $91 $20 $-1 $92 forward single #
loop $-1 $-1 $93 $36 #
plane-surface $-1 38.680265276439236 -10.665701826792741 38.004048186482535 0 0.70710678939079041 0.70710677298230451 1 0 0 forward_v I I I I #
coedge $-1 $94 $95 $96 $97 reversed $37 $-1 #
face $-1 $-1 $98 $21 $-1 $99 forward single #
loop $-1 $100 $101 $39 #
cone-surface $-1 38.680265276439236 17.961494848958576 0.48927789854635151 0 -0.70710678939079041 -0.70710677298230451 1 0 0 1 I I -0.70710678118654746 0.70710678118654746 1 forward I I I I #
loop $-1 $-1 $102 $27 #
coedge $-1 $64 $64 $103 $104 reversed $40 $-1 #
face $-1 $105 $106 $22 $-1 $107 reversed single #
loop $-1 $-1 $108 $42 #
plane-surface $-1 31.121326475605606 -91.141393300624003 66.981171252885488 1 0 0 0 0.70710678939079041 -0.70710677298230451 forward_v I I I I #
coedge $-1 $109 $110 $111 $112 reversed $43 $-1 #
face $-1 $-1 $113 $23 $-1 $114 forward single #
loop $-1 $115 $116 $45 #
cone-surface $-1 38.680265276439236 -17.961494848958566 0.48927789854635151 0 0.70710678939079041 -0.70710677298230451 1 0 0 1 I I -0.70710678118654746 0.70710678118654746 1 forward I I I I #
loop $-1 $-1 $117 $29 #
coedge $-1 $73 $73 $118 $119 reversed $46 $-1 #
face $-1 $120 $121 $18 $-1 $122 reversed single #
loop $-1 $-1 $123 $48 #
plane-surface $-1 0 -25.749283022492076 0 0 1 0 0 0 1 forward_v I I I I #
coedge $-1 $124 $125 $126 $127 forward $49 $-1 #
coedge $-1 $128 $51 $129 $130 forward $31 $-1 #
coedge $-1 $51 $128 $131 $132 forward $31 $-1 #
coedge $-1 $133 $134 $51 $81 reversed $135 $-1 #
edge $-1 $136 -25.749283022492076 $137 25.749283022492076 $80 $138 forward 7 unknown #
face $-1 $139 $140 $19 $-1 $141 reversed single #
loop $-1 $-1 $142 $52 #
plane-surface $-1 -55.033602539474479 -24.202262068820918 0 1 0 0 0 0 -1 forward_v I I I I #
coedge $-1 $143 $144 $86 $145 forward $53 $-1 #
coedge $-1 $146 $55 $85 $145 reversed $34 $-1 #
coedge $-1 $55 $146 $147 $148 reversed $34 $-1 #
coedge $-1 $149 $150 $55 $89 reversed $140 $-1 #
edge $-1 $151 -8.2770660465592449 $152 8.2770660465592449 $88 $153 forward 7 unknown #
face $-1 $154 $155 $20 $-1 $156 reversed single #
loop $-1 $-1 $96 $56 #
plane-surface $-1 0 0 8.2770660465592449 0 0 1 1 0 0 forward_v I I I I #
coedge $-1 $157 $158 $159 $160 reversed $57 $-1 #
coedge $-1 $95 $59 $161 $162 reversed $37 $-1 #
coedge $-1 $59 $94 $157 $163 reversed $37 $-1 #
coedge $-1 $159 $164 $59 $97 forward $91 $-1 #
edge $-1 $165 1.6139212031775152 $166 8.3019246023567241 $96 $167 forward 7 unknown #
loop $-1 $-1 $103 $60 #
plane-surface $-1 38.680265276439236 -10.665701826792741 38.004048186482535 0 0.70710678939079041 0.70710677298230451 1 0 0 forward_v I I I I #
loop $-1 $-1 $168 $39 #
coedge $-1 $101 $101 $102 $169 reversed $61 $-1 #
coedge $-1 $102 $102 $101 $169 forward $63 $-1 #
coedge $-1 $103 $103 $64 $104 forward $98 $-1 #
edge $-1 $170 -3.1401849538017075e-016 $170 6.2831853071796004 $103 $171 forward 7 unknown #
face $-1 $172 $173 $22 $-1 $174 forward single #
loop $-1 $-1 $175 $65 #
plane-surface $-1 46.239204077272866 0 0 -1 0 0 0 0 1 forward_v I I I I #
coedge $-1 $176 $177 $178 $179 reversed $66 $-1 #
coedge $-1 $180 $68 $175 $181 reversed $43 $-1 #
coedge $-1 $68 $180 $176 $182 forward $43 $-1 #
coedge $-1 $178 $183 $68 $112 forward $173 $-1 #
edge $-1 $184 -26.899071439053248 $185 -11.781193837385988 $111 $186 forward 7 unknown #
loop $-1 $-1 $118 $69 #
plane-surface $-1 38.680265276439236 -25.749283022492079 1.589062492184226 0 -0.70710678939079041 0.70710677298230451 1 0 0 forward_v I I I I #
loop $-1 $-1 $187 $45 #
coedge $-1 $116 $116 $117 $188 reversed $70 $-1 #
coedge $-1 $117 $117 $116 $188 forward $72 $-1 #
coedge $-1 $118 $118 $73 $119 forward $113 $-1 #
edge $-1 $189 6.2803690331836313e-016 $189 6.2831853071796013 $118 $190 forward 7 unknown #
face $-1 $191 $192 $18 $-1 $193 reversed single #
loop $-1 $-1 $194 $74 #
plane-surface $-1 -46.239204077272866 0 0 1 0 0 0 0 -1 forward_v I I I I #
coedge $-1 $195 $131 $196 $197 forward $75 $-1 #
coedge $-1 $198 $77 $195 $199 forward $49 $-1 #
coedge $-1 $77 $198 $200 $201 forward $49 $-1 #
coedge $-1 $134 $133 $77 $127 reversed $135 $-1 #
edge $-1 $202 -25.749283022492076 $203 25.749283022492076 $126 $204 forward 7 unknown #
coedge $-1 $79 $78 $205 $206 forward $31 $-1 #
coedge $-1 $207 $208 $78 $130 reversed $192 $-1 #
edge $-1 $137 -46.239204077272866 $209 46.239204077272866 $129 $210 forward 7 unknown #
coedge $-1 $123 $211 $79 $132 reversed $75 $-1 #
edge $-1 $212 -46.239204077272866 $136 46.239204077272866 $131 $213 forward 7 unknown #
coedge $-1 $126 $80 $211 $214 forward $135 $-1 #
coedge $-1 $80 $126 $207 $215 reversed $135 $-1 #
loop $-1 $-1 $133 $191 #
vertex $-1 $81 $216 #
vertex $-1 $81 $217 #
straight-curve $-1 46.239204077272866 0 8.2770660465592449 0 1 0 I I #
face $-1 $218 $219 $19 $-1 $220 reversed single #
loop $-1 $-1 $88 $82 #
plane-surface $-1 -50.636403308373673 -22.65524111514976 0 0 -1 0 0 0 -1 forward_v I I I I #
coedge $-1 $221 $222 $223 $224 forward $83 $-1 #
coedge $-1 $225 $85 $150 $226 forward $53 $-1 #
coedge $-1 $85 $225 $227 $228 forward $53 $-1 #
edge $-1 $229 -25.749283022492076 $152 -22.65524111514976 $85 $230 forward 7 unknown #
coedge $-1 $87 $86 $231 $232 reversed $34 $-1 #
coedge $-1 $233 $234 $87 $148 forward $219 $-1 #
edge $-1 $151 22.65524111514976 $235 25.749283022492076 $147 $236 forward 7 unknown #
coedge $-1 $223 $88 $234 $237 reversed $140 $-1 #
coedge $-1 $88 $223 $143 $226 reversed $140 $-1 #
vertex $-1 $148 $238 #
vertex $-1 $226 $239 #
straight-curve $-1 -46.239204077272866 -22.65524111514976 0 0 0 1 I I #
face $-1 $-1 $240 $20 $-1 $241 reversed single #
loop $-1 $-1 $242 $90 #
plane-surface $-1 46.239204077272866 0 0 -1 0 0 0 0 1 forward_v I I I I #
coedge $-1 $243 $93 $95 $163 forward $57 $-1 #
coedge $-1 $93 $243 $242 $244 reversed $57 $-1 #
coedge $-1 $245 $96 $93 $160 forward $91 $-1 #
edge $-1 $166 11.781193837385988 $246 26.899071439053248 $159 $247 forward 7 unknown #
coedge $-1 $248 $249 $94 $162 forward $240 $-1 #
edge $-1 $250 -50.10901598140768 $165 -43.42101242703265 $161 $251 forward 7 unknown #
edge $-1 $166 42.040300822927549 $250 51.498566044984159 $95 $252 forward 7 unknown #
coedge $-1 $96 $245 $248 $253 forward $91 $-1 #
vertex $-1 $162 $254 #
vertex $-1 $97 $255 #
straight-curve $-1 31.121326475605606 27.363204225669591 8.2770660465592485 0 -1 0 I I #
coedge $-1 $168 $168 $-1 $256 reversed $100 $-1 #
edge $-1 $257 0 $257 6.2831853071796004 $101 $258 forward 7 unknown #
vertex $-1 $104 $259 #
ellipse-curve $-1 38.680265276439236 22.405281322902475 4.9330642693717275 0 0.70710678939079041 0.70710677298230451 2 0 0 1 I I #
face $-1 $-1 $260 $22 $-1 $261 reversed single #
loop $-1 $-1 $111 $105 #
plane-surface $-1 0 0 8.2770660465592449 0 0 1 1 0 0 forward_v I I I I #
coedge $-1 $262 $263 $109 $181 forward $106 $-1 #
coedge $-1 $177 $108 $110 $182 reversed $66 $-1 #
coedge $-1 $108 $176 $264 $265 reversed $66 $-1 #
coedge $-1 $266 $111 $108 $179 forward $173 $-1 #
edge $-1 $185 -26.509417026999131 $267 -19.821413627819926 $178 $268 forward 7 unknown #
coedge $-1 $110 $109 $269 $270 reversed $43 $-1 #
edge $-1 $271 -8.5419277738263446 $184 0.91633744823025887 $175 $272 forward 7 unknown #
edge $-1 $273 5.0242958677880813e-015 $185 9.4582652220566121 $176 $274 forward 7 unknown #
coedge $-1 $111 $266 $262 $275 forward $173 $-1 #
vertex $-1 $112 $276 #
vertex $-1 $112 $277 #
straight-curve $-1 19.340132638219618 -19.061279623312871 8.2770660465592449 -1 0 0 I I #
coedge $-1 $187 $187 $-1 $278 reversed $115 $-1 #
edge $-1 $279 0 $279 6.2831853071796004 $116 $280 forward 7 unknown #
vertex $-1 $119 $281 #
ellipse-curve $-1 38.680265276439236 -22.405281322902475 4.9330642693717373 0 -0.70710678939079041 0.70710677298230451 2 0 0 1 I I #
face $-1 $-1 $135 $18 $-1 $282 reversed single #
loop $-1 $-1 $207 $120 #
plane-surface $-1 0 25.749283022492076 0 0 -1 0 0 0 -1 forward_v I I I I #
coedge $-1 $283 $205 $208 $284 forward $121 $-1 #
coedge $-1 $211 $123 $124 $199 reversed $75 $-1 #
coedge $-1 $205 $283 $123 $197 reversed $121 $-1 #
edge $-1 $212 -8.2770660465592449 $285 8.2770660465592449 $196 $286 forward 7 unknown #
coedge $-1 $125 $124 $283 $287 forward $49 $-1 #
edge $-1 $203 -46.239204077272866 $285 46.239204077272866 $195 $288 forward 7 unknown #
coedge $-1 $208 $207 $125 $201 reversed $192 $-1 #
edge $-1 $289 -46.239204077272866 $202 46.239204077272866 $200 $290 forward 7 unknown #
vertex $-1 $127 $291 #
vertex $-1 $214 $292 #
straight-curve $-1 46.239204077272866 0 -8.2770660465592449 0 -1 0 I I #
coedge $-1 $194 $196 $128 $206 reversed $121 $-1 #
edge $-1 $209 -25.749283022492076 $212 25.749283022492076 $205 $293 forward 7 unknown #
coedge $-1 $200 $129 $134 $215 forward $192 $-1 #
coedge $-1 $129 $200 $194 $284 reversed $192 $-1 #
vertex $-1 $130 $294 #
straight-curve $-1 0 25.749283022492076 8.2770660465592449 -1 0 0 I I #
coedge $-1 $131 $195 $133 $214 reversed $75 $-1 #
vertex $-1 $206 $295 #
straight-curve $-1 0 -25.749283022492076 8.2770660465592449 1 0 0 I I #
edge $-1 $136 -8.2770660465592449 $203 8.2770660465592449 $133 $296 forward 7 unknown #
edge $-1 $137 -8.2770660465592449 $202 8.2770660465592449 $134 $297 forward 7 unknown #
point $-1 46.239204077272866 -25.749283022492076 8.2770660465592449 #
point $-1 46.239204077272866 25.749283022492076 8.2770660465592449 #
face $-1 $-1 $298 $19 $-1 $299 reversed single #
loop $-1 $-1 $147 $139 #
plane-surface $-1 0 0 -8.2770660465592449 0 0 1 1 0 0 forward_v I I I I #
coedge $-1 $300 $142 $301 $302 reversed $83 $-1 #
coedge $-1 $142 $300 $225 $303 reversed $83 $-1 #
coedge $-1 $150 $149 $142 $224 reversed $140 $-1 #
edge $-1 $304 -8.2770660465592449 $305 8.2770660465592449 $223 $306 forward 7 unknown #
coedge $-1 $144 $143 $222 $303 forward $53 $-1 #
edge $-1 $152 -4.3971992311008066 $304 4.3971992311008066 $150 $307 forward 7 unknown #
coedge $-1 $308 $231 $144 $228 reversed $298 $-1 #
edge $-1 $309 -55.033602539474479 $229 -46.239204077272866 $227 $310 forward 7 unknown #
vertex $-1 $232 $311 #
straight-curve $-1 -46.239204077272866 0 8.2770660465592449 0 1 0 I I #
coedge $-1 $227 $312 $146 $232 forward $298 $-1 #
edge $-1 $235 -8.2770660465592449 $229 8.2770660465592449 $231 $313 forward 7 unknown #
coedge $-1 $301 $147 $312 $314 forward $219 $-1 #
coedge $-1 $147 $301 $149 $237 forward $219 $-1 #
vertex $-1 $314 $315 #
straight-curve $-1 -46.239204077272866 0 -8.2770660465592449 0 -1 0 I I #
edge $-1 $305 -4.3971992311008066 $151 4.3971992311008066 $149 $316 forward 7 unknown #
point $-1 -46.239204077272866 -22.65524111514976 -8.2770660465592449 #
point $-1 -46.239204077272866 -22.65524111514976 8.2770660465592449 #
loop $-1 $-1 $161 $154 #
plane-surface $-1 0 25.749283022492076 0 0 -1 0 0 0 -1 forward_v I I I I #
coedge $-1 $317 $318 $158 $244 forward $155 $-1 #
coedge $-1 $158 $157 $249 $319 reversed $57 $-1 #
edge $-1 $246 24.832945574261814 $320 34.291210796318431 $242 $321 forward 7 unknown #
coedge $-1 $164 $159 $318 $322 forward $91 $-1 #
vertex $-1 $322 $323 #
straight-curve $-1 19.340132638219618 19.061279623312867 8.2770660465592414 1 0 0 I I #
coedge $-1 $324 $161 $164 $253 reversed $240 $-1 #
coedge $-1 $161 $324 $243 $319 forward $240 $-1 #
vertex $-1 $162 $325 #
straight-curve $-1 31.121326475605606 25.749283022492076 51.698078473591899 0 0 1 I I #
straight-curve $-1 31.121326475605606 -10.665701826792741 38.004048186482535 0 0.70710677298230451 -0.70710678939079041 I I #
edge $-1 $326 -46.239204077272866 $165 -31.121326475605606 $248 $327 forward 7 unknown #
point $-1 31.121326475605606 25.749283022492076 8.2770660465592449 #
point $-1 31.121326475605606 19.061279623312867 8.2770660465592414 #
edge $-1 $328 1 $328 0 $168 $-1 forward 7 unknown #
vertex $-1 $169 $329 #
ellipse-curve $-1 38.680265276439236 18.668601638349365 1.1963846715286559 0 0.70710678939079041 0.70710677298230451 2 0 0 1 I I #
point $-1 40.680265276439236 22.405281322902475 4.9330642693717284 #
loop $-1 $-1 $269 $172 #
plane-surface $-1 0 -25.749283022492076 0 0 1 0 0 0 1 forward_v I I I I #
coedge $-1 $263 $175 $183 $275 reversed $106 $-1 #
coedge $-1 $175 $262 $330 $331 forward $106 $-1 #
coedge $-1 $269 $332 $177 $265 forward $260 $-1 #
edge $-1 $267 25.213519579883499 $273 31.901523134258515 $264 $333 forward 7 unknown #
coedge $-1 $183 $178 $332 $334 forward $173 $-1 #
vertex $-1 $334 $335 #
straight-curve $-1 31.121326475605606 -45.570696650312001 8.2770660465592449 0 -1 0 I I #
coedge $-1 $330 $264 $180 $270 forward $260 $-1 #
edge $-1 $273 11.781193837385988 $271 26.899071439053248 $269 $336 forward 7 unknown #
vertex $-1 $270 $337 #
straight-curve $-1 46.239204077272866 -19.709228039293809 7.6291176155425973 0 0.70710677298230462 0.70710678939079052 I I #
vertex $-1 $270 $338 #
straight-curve $-1 31.121326475605606 -25.749283022492079 1.589062492184226 0 0.70710677298230451 0.70710678939079041 I I #
edge $-1 $339 -25.749283022492076 $184 -19.061279623312871 $262 $340 forward 7 unknown #
point $-1 46.239204077272866 -19.061279623312871 8.2770660465592449 #
point $-1 31.121326475605606 -19.061279623312871 8.2770660465592449 #
edge $-1 $341 1 $341 0 $187 $-1 forward 7 unknown #
vertex $-1 $188 $342 #
ellipse-curve $-1 38.680265276439236 -18.668601638349354 1.1963846715286559 0 -0.70710678939079041 0.70710677298230451 2 0 0 1 I I #
point $-1 40.680265276439236 -22.405281322902464 4.9330642693717284 #
plane-surface $-1 46.239204077272866 0 0 -1 0 0 0 0 1 forward_v I I I I #
coedge $-1 $196 $194 $198 $287 reversed $121 $-1 #
edge $-1 $209 -8.2770660465592449 $289 8.2770660465592449 $208 $343 forward 7 unknown #
vertex $-1 $287 $344 #
straight-curve $-1 -46.239204077272866 -25.749283022492076 0 0 0 -1 I I #
edge $-1 $285 -25.749283022492076 $289 25.749283022492076 $283 $345 forward 7 unknown #
straight-curve $-1 0 -25.749283022492076 -8.2770660465592449 -1 0 0 I I #
vertex $-1 $201 $346 #
straight-curve $-1 0 25.749283022492076 -8.2770660465592449 1 0 0 I I #
point $-1 46.239204077272866 25.749283022492076 -8.2770660465592449 #
point $-1 46.239204077272866 -25.749283022492076 -8.2770660465592449 #
straight-curve $-1 -46.239204077272866 0 8.2770660465592449 0 -1 0 I I #
point $-1 -46.239204077272866 25.749283022492076 8.2770660465592449 #
point $-1 -46.239204077272866 -25.749283022492076 8.2770660465592449 #
straight-curve $-1 46.239204077272866 -25.749283022492076 0 0 0 -1 I I #
straight-curve $-1 46.239204077272866 25.749283022492076 0 0 0 -1 I I #
loop $-1 $-1 $231 $218 #
plane-surface $-1 0 -25.749283022492076 0 0 1 0 0 0 1 forward_v I I I I #
coedge $-1 $222 $221 $308 $347 reversed $83 $-1 #
coedge $-1 $234 $233 $221 $302 forward $219 $-1 #
edge $-1 $348 -1.5470209536711579 $305 1.5470209536711579 $221 $349 forward 7 unknown #
edge $-1 $304 -1.5470209536711579 $309 1.5470209536711579 $222 $350 forward 7 unknown #
vertex $-1 $226 $351 #
vertex $-1 $237 $352 #
straight-curve $-1 -55.033602539474479 -22.65524111514976 0 0 0 -1 I I #
straight-curve $-1 -50.636403308373673 -22.65524111514976 8.2770660465592449 -1 0 0 I I #
coedge $-1 $312 $227 $300 $347 forward $298 $-1 #
vertex $-1 $303 $353 #
straight-curve $-1 0 -25.749283022492076 8.2770660465592449 1 0 0 I I #
point $-1 -46.239204077272866 -25.749283022492076 8.2770660465592449 #
coedge $-1 $231 $308 $233 $314 reversed $298 $-1 #
straight-curve $-1 -46.239204077272866 -25.749283022492076 0 0 0 1 I I #
edge $-1 $235 -4.3971992311008066 $348 4.3971992311008066 $312 $354 forward 7 unknown #
point $-1 -46.239204077272866 -25.749283022492076 -8.2770660465592449 #
straight-curve $-1 -50.636403308373673 -22.65524111514976 -8.2770660465592449 1 0 0 I I #
coedge $-1 $318 $242 $324 $355 reversed $155 $-1 #
coedge $-1 $242 $317 $245 $322 reversed $155 $-1 #
edge $-1 $320 -26.899071439053248 $250 -11.781193837385988 $249 $356 forward 7 unknown #
vertex $-1 $244 $357 #
straight-curve $-1 46.239204077272866 1.5017356146513965 25.836610462691752 0 0.70710677298230462 -0.70710678939079052 I I #
edge $-1 $246 19.061279623312867 $326 25.749283022492076 $318 $358 forward 7 unknown #
point $-1 46.239204077272866 19.061279623312867 8.2770660465592414 #
coedge $-1 $249 $248 $317 $355 forward $240 $-1 #
point $-1 31.121326475605606 25.749283022492079 1.5890624921842189 #
vertex $-1 $322 $359 #
straight-curve $-1 0 25.749283022492076 8.2770660465592449 -1 0 0 I I #
vertex $-1 $256 $360 #
point $-1 40.680265276439236 18.668601638349365 1.1963846715286559 #
coedge $-1 $332 $269 $263 $331 reversed $260 $-1 #
edge $-1 $339 -8.2770660465592449 $271 -1.5890624921842296 $263 $361 forward 7 unknown #
coedge $-1 $264 $330 $266 $334 reversed $260 $-1 #
straight-curve $-1 31.121326475605606 -25.749283022492079 33.490585626442744 0 0 -1 I I #
edge $-1 $267 31.121326475605606 $339 46.239204077272866 $332 $362 forward 7 unknown #
point $-1 31.121326475605606 -25.749283022492076 8.2770660465592449 #
straight-curve $-1 19.340132638219618 -25.749283022492076 1.5890624921842305 1 0 0 I I #
point $-1 46.239204077272866 -25.749283022492076 1.5890624921842296 #
point $-1 31.121326475605606 -25.749283022492076 1.5890624921842296 #
vertex $-1 $275 $363 #
straight-curve $-1 46.239204077272866 0 8.2770660465592449 0 1 0 I I #
vertex $-1 $278 $364 #
point $-1 40.680265276439236 -18.668601638349354 1.1963846715286559 #
straight-curve $-1 -46.239204077272866 25.749283022492076 0 0 0 -1 I I #
point $-1 -46.239204077272866 -25.749283022492076 -8.2770660465592449 #
straight-curve $-1 -46.239204077272866 0 -8.2770660465592449 0 1 0 I I #
point $-1 -46.239204077272866 25.749283022492076 -8.2770660465592449 #
edge $-1 $309 -8.2770660465592449 $348 8.2770660465592449 $300 $365 forward 7 unknown #
vertex $-1 $302 $366 #
straight-curve $-1 -55.033602539474479 -24.202262068820918 -8.2770660465592449 0 1 0 I I #
straight-curve $-1 -55.033602539474479 -24.202262068820918 8.2770660465592449 0 -1 0 I I #
point $-1 -55.033602539474479 -22.65524111514976 8.2770660465592449 #
point $-1 -55.033602539474479 -22.65524111514976 -8.2770660465592449 #
point $-1 -55.033602539474479 -25.749283022492076 8.2770660465592449 #
straight-curve $-1 -50.636403308373673 -25.749283022492076 -8.2770660465592449 -1 0 0 I I #
edge $-1 $326 -8.2770660465592449 $320 -1.5890624921842189 $317 $367 forward 7 unknown #
straight-curve $-1 19.340132638219618 25.749283022492076 1.5890624921842189 -1 0 0 I I #
point $-1 46.239204077272866 25.749283022492079 1.5890624921842189 #
straight-curve $-1 46.239204077272866 0 8.2770660465592449 0 1 0 I I #
point $-1 46.239204077272866 25.749283022492076 8.2770660465592449 #
point $-1 38.680265276439236 17.254388059567788 -0.217828874435953 #
straight-curve $-1 46.239204077272866 -25.749283022492076 0 0 0 -1 I I #
straight-curve $-1 0 -25.749283022492076 8.2770660465592449 1 0 0 I I #
point $-1 46.239204077272866 -25.749283022492076 8.2770660465592449 #
point $-1 38.680265276439236 -17.254388059567777 -0.217828874435953 #
straight-curve $-1 -55.033602539474479 -25.749283022492076 0 0 0 -1 I I #
point $-1 -55.033602539474479 -25.749283022492076 -8.2770660465592449 #
straight-curve $-1 46.239204077272866 25.749283022492076 0 0 0 -1 I I #
End-of-ACIS-data 