500 0 10 0           
7 Unknown 11 ACIS 5.0 NT 24 Thu Mar 25 17:35:42 1999 
-1 9.9999999999999995e-007 1e-010 
body $-1 $10 $-1 $11 #
body $-1 $12 $-1 $13 #
body $-1 $14 $-1 $15 #
body $-1 $16 $-1 $17 #
body $-1 $18 $-1 $19 #
body $-1 $20 $-1 $21 #
body $-1 $22 $-1 $23 #
body $-1 $24 $-1 $25 #
body $-1 $26 $-1 $27 #
body $-1 $28 $-1 $29 #
lump $-1 $-1 $30 $0 #
transform $-1 1 0 0 0 1 0 0 0 1 59.613635670033872 38.043240193041079 18.391532921839811 1 rotate no_reflect no_shear #
lump $-1 $-1 $31 $1 #
transform $-1 1 0 0 0 1 0 0 0 1 59.613635670033872 38.043240193041079 18.391532921839811 1 rotate no_reflect no_shear #
lump $-1 $-1 $32 $2 #
transform $-1 1 0 0 0 1 0 0 0 1 59.613635670033872 38.043240193041079 18.391532921839811 1 rotate no_reflect no_shear #
lump $-1 $-1 $33 $3 #
transform $-1 1 0 0 0 1 0 0 0 1 59.613635670033872 38.043240193041079 18.391532921839811 1 rotate no_reflect no_shear #
lump $-1 $-1 $34 $4 #
transform $-1 1 0 0 0 1 0 0 0 1 59.613635670033872 38.043240193041079 18.391532921839811 1 rotate no_reflect no_shear #
lump $-1 $-1 $35 $5 #
transform $-1 1 0 0 0 1 0 0 0 1 59.613635670033872 38.043240193041079 18.391532921839811 1 rotate no_reflect no_shear #
lump $-1 $-1 $36 $6 #
transform $-1 1 0 0 0 1 0 0 0 1 59.613635670033872 38.043240193041079 18.391532921839811 1 rotate no_reflect no_shear #
lump $-1 $-1 $37 $7 #
transform $-1 1 0 0 0 1 0 0 0 1 59.613635670033872 38.043240193041079 18.391532921839811 1 rotate no_reflect no_shear #
lump $-1 $-1 $38 $8 #
transform $-1 1 0 0 0 1 0 0 0 1 59.613635670033872 38.043240193041079 18.391532921839811 1 rotate no_reflect no_shear #
lump $-1 $-1 $39 $9 #
transform $-1 1 0 0 0 1 0 0 0 1 59.613635670033872 38.043240193041079 18.391532921839811 1 rotate no_reflect no_shear #
shell $-1 $-1 $-1 $40 $-1 $10 #
shell $-1 $-1 $-1 $41 $-1 $12 #
shell $-1 $-1 $-1 $42 $-1 $14 #
shell $-1 $-1 $-1 $43 $-1 $16 #
shell $-1 $-1 $-1 $44 $-1 $18 #
shell $-1 $-1 $-1 $45 $-1 $20 #
shell $-1 $-1 $-1 $46 $-1 $22 #
shell $-1 $-1 $-1 $47 $-1 $24 #
shell $-1 $-1 $-1 $48 $-1 $26 #
shell $-1 $-1 $-1 $49 $-1 $28 #
face $-1 $50 $51 $30 $-1 $52 forward single #
face $-1 $53 $54 $31 $-1 $55 reversed single #
face $-1 $56 $57 $32 $-1 $58 reversed single #
face $-1 $59 $60 $33 $-1 $61 forward single #
face $-1 $62 $63 $34 $-1 $64 forward single #
face $-1 $65 $66 $35 $-1 $67 reversed single #
face $-1 $68 $69 $36 $-1 $70 forward single #
face $-1 $71 $72 $37 $-1 $73 forward single #
face $-1 $74 $75 $38 $-1 $76 reversed single #
face $-1 $77 $78 $39 $-1 $79 forward single #
face $-1 $80 $81 $30 $-1 $82 reversed single #
loop $-1 $-1 $83 $40 #
plane-surface $-1 0 0 18.391532921839811 0 0 1 1 0 0 forward_v I I I I #
face $-1 $84 $85 $31 $-1 $86 reversed single #
loop $-1 $-1 $87 $41 #
plane-surface $-1 -50.220971423262917 0 11.51908175445827 0 0 1 1 0 0 forward_v I I I I #
face $-1 $88 $89 $32 $-1 $90 reversed single #
loop $-1 $-1 $91 $42 #
plane-surface $-1 2.3238605817488462 -97.656876661747006 112.80949444845184 -1 0 0 0 -0.50000000669873634 0.8660253999169214 forward_v I I I I #
face $-1 $92 $93 $33 $-1 $94 forward single #
loop $-1 $95 $96 $43 #
cone-surface $-1 -9.494879988993489 -30.129123812989292 13.51976484260026 0 0.50000000669873634 -0.8660253999169214 1 0 0 1 I I 0 1 1 forward I I I I #
face $-1 $97 $98 $34 $-1 $99 forward single #
loop $-1 $100 $101 $44 #
cone-surface $-1 -2.4036356465480964 -30.129123812989292 13.51976484260026 0 0.50000000669873634 -0.8660253999169214 1 0 0 1 I I 0 1 1 forward I I I I #
face $-1 $102 $103 $35 $-1 $104 reversed single #
loop $-1 $-1 $105 $45 #
plane-surface $-1 33.007704710832343 -97.656876661747006 112.80949444845184 -1 0 0 0 -0.50000000669873634 0.8660253999169214 forward_v I I I I #
face $-1 $106 $107 $36 $-1 $108 forward single #
loop $-1 $109 $110 $46 #
cone-surface $-1 21.188964140090008 -30.129123812989292 13.51976484260026 0 0.50000000669873634 -0.8660253999169214 1 0 0 1 I I 0 1 1 forward I I I I #
face $-1 $111 $112 $37 $-1 $113 forward single #
loop $-1 $114 $115 $47 #
cone-surface $-1 28.2802084825354 -30.129123812989292 13.51976484260026 0 0.50000000669873634 -0.8660253999169214 1 0 0 1 I I 0 1 1 forward I I I I #
face $-1 $116 $117 $38 $-1 $118 reversed single #
loop $-1 $-1 $119 $48 #
plane-surface $-1 -23.185995012799296 89.777619663095635 144.61477332734495 1 0 0 0 -0.80901700255871778 -0.5877852410284794 forward_v I I I I #
face $-1 $120 $121 $39 $-1 $122 forward single #
loop $-1 $123 $124 $49 #
cone-surface $-1 -9.8562177806675777 35.431518991989812 15.216395542538079 0 -0.80901700255871778 -0.5877852410284794 1 0 0 1 I I 0 1 1 forward I I I I #
face $-1 $125 $126 $30 $-1 $127 reversed single #
loop $-1 $-1 $128 $50 #
plane-surface $-1 0 0 -18.391532921839811 0 0 1 1 0 0 forward_v I I I I #
coedge $-1 $129 $130 $131 $132 forward $51 $-1 #
face $-1 $133 $134 $31 $-1 $135 reversed single #
loop $-1 $-1 $136 $53 #
plane-surface $-1 -40.828307176491961 0 14.955307338149041 -1 0 0 0 0 1 forward_v I I I I #
coedge $-1 $137 $138 $139 $140 forward $54 $-1 #
face $-1 $141 $142 $32 $-1 $143 reversed single #
loop $-1 $-1 $144 $56 #
plane-surface $-1 -5.9492578177707856 -38.043240193041079 9.555649105166367 0 -0.50000000669873634 0.8660253999169214 1 0 0 forward_v I I I I #
coedge $-1 $145 $146 $147 $148 reversed $57 $-1 #
face $-1 $-1 $149 $33 $-1 $150 forward single #
loop $-1 $151 $152 $59 #
cone-surface $-1 -9.494879988993489 -29.617107143023389 12.632925971738956 0 0.50000000669873634 -0.8660253999169214 0.5 0 0 1 I I -0.70710678118654746 0.70710678118654746 0.5 forward I I I I #
loop $-1 $-1 $153 $43 #
coedge $-1 $96 $96 $154 $155 reversed $60 $-1 #
face $-1 $-1 $156 $34 $-1 $157 forward single #
loop $-1 $158 $159 $62 #
cone-surface $-1 -2.4036356465480964 -29.617107143023389 12.632925971738956 0 0.50000000669873634 -0.8660253999169214 0.5 0 0 1 I I -0.70710678118654746 0.70710678118654746 0.5 forward I I I I #
loop $-1 $-1 $160 $44 #
coedge $-1 $101 $101 $161 $162 reversed $63 $-1 #
face $-1 $163 $164 $35 $-1 $165 reversed single #
loop $-1 $-1 $166 $65 #
plane-surface $-1 24.734586311312711 -38.043240193041079 9.555649105166367 0 -0.50000000669873634 0.8660253999169214 1 0 0 forward_v I I I I #
coedge $-1 $167 $168 $169 $170 reversed $66 $-1 #
face $-1 $-1 $171 $36 $-1 $172 forward single #
loop $-1 $173 $174 $68 #
cone-surface $-1 21.188964140090008 -29.617107143023389 12.632925971738956 0 0.50000000669873634 -0.8660253999169214 0.5 0 0 1 I I -0.70710678118654746 0.70710678118654746 0.5 forward I I I I #
loop $-1 $-1 $175 $46 #
coedge $-1 $110 $110 $176 $177 reversed $69 $-1 #
face $-1 $-1 $178 $37 $-1 $179 forward single #
loop $-1 $180 $181 $71 #
cone-surface $-1 28.2802084825354 -29.617107143023389 12.632925971738956 0 0.50000000669873634 -0.8660253999169214 0.5 0 0 1 I I -0.70710678118654746 0.70710678118654746 0.5 forward I I I I #
loop $-1 $-1 $182 $47 #
coedge $-1 $115 $115 $183 $184 reversed $72 $-1 #
face $-1 $185 $186 $38 $-1 $187 reversed single #
loop $-1 $-1 $188 $74 #
plane-surface $-1 -9.8562177806675777 -6.6792700197008941 74.534742905555319 0 0.80901700255871778 0.5877852410284794 1 0 0 forward_v I I I I #
coedge $-1 $189 $190 $191 $192 reversed $75 $-1 #
face $-1 $-1 $193 $39 $-1 $194 forward single #
loop $-1 $195 $196 $77 #
cone-surface $-1 -9.8562177806675777 34.381330137232432 14.453388699459786 0 -0.80901700255871778 -0.5877852410284794 0.5 0 0 1 I I -0.70710678118654746 0.70710678118654746 0.5 forward I I I I #
loop $-1 $-1 $197 $49 #
coedge $-1 $124 $124 $198 $199 reversed $78 $-1 #
face $-1 $200 $201 $30 $-1 $202 reversed single #
loop $-1 $-1 $203 $80 #
plane-surface $-1 0 -38.043240193041079 0 0 1 0 0 0 1 forward_v I I I I #
coedge $-1 $204 $205 $206 $207 forward $81 $-1 #
coedge $-1 $208 $83 $209 $210 forward $51 $-1 #
coedge $-1 $83 $208 $211 $212 forward $51 $-1 #
coedge $-1 $213 $214 $83 $132 reversed $215 $-1 #
edge $-1 $216 -38.043240193041079 $217 38.043240193041079 $131 $218 forward 7 unknown #
face $-1 $219 $220 $31 $-1 $221 reversed single #
loop $-1 $-1 $222 $84 #
plane-surface $-1 0 38.043240193041079 0 0 -1 0 0 0 -1 forward_v I I I I #
coedge $-1 $139 $223 $224 $225 reversed $85 $-1 #
coedge $-1 $226 $87 $227 $228 reversed $54 $-1 #
coedge $-1 $87 $226 $229 $230 reversed $54 $-1 #
coedge $-1 $231 $136 $87 $140 reversed $85 $-1 #
edge $-1 $232 -38.043240193041079 $233 38.043240193041079 $139 $234 forward 7 unknown #
face $-1 $235 $236 $32 $-1 $237 reversed single #
loop $-1 $-1 $238 $88 #
plane-surface $-1 -14.222376217290417 -97.656876661747006 112.80949444845184 1 0 0 0 0.50000000669873634 -0.8660253999169214 forward_v I I I I #
coedge $-1 $239 $240 $241 $242 reversed $89 $-1 #
coedge $-1 $146 $91 $243 $244 reversed $57 $-1 #
coedge $-1 $91 $145 $239 $245 reversed $57 $-1 #
coedge $-1 $241 $246 $91 $148 forward $247 $-1 #
edge $-1 $248 10.785198137832424 $249 26.089397564702978 $147 $250 forward 7 unknown #
loop $-1 $-1 $154 $92 #
plane-surface $-1 -5.9492578177707856 -38.043240193041079 9.555649105166367 0 -0.50000000669873634 0.8660253999169214 1 0 0 forward_v I I I I #
loop $-1 $-1 $251 $59 #
coedge $-1 $152 $152 $153 $252 reversed $93 $-1 #
coedge $-1 $153 $153 $152 $252 forward $95 $-1 #
coedge $-1 $154 $154 $96 $155 forward $149 $-1 #
edge $-1 $253 5.3974189417362257e-016 $253 6.2831853071796013 $154 $254 forward 7 unknown #
loop $-1 $-1 $161 $97 #
plane-surface $-1 -5.9492578177707856 -38.043240193041079 9.555649105166367 0 -0.50000000669873634 0.8660253999169214 1 0 0 forward_v I I I I #
loop $-1 $-1 $255 $62 #
coedge $-1 $159 $159 $160 $256 reversed $98 $-1 #
coedge $-1 $160 $160 $159 $256 forward $100 $-1 #
coedge $-1 $161 $161 $101 $162 forward $156 $-1 #
edge $-1 $257 5.3974189417362257e-016 $257 6.2831853071796013 $161 $258 forward 7 unknown #
face $-1 $259 $260 $35 $-1 $261 reversed single #
loop $-1 $-1 $262 $102 #
plane-surface $-1 16.461467911793079 -97.656876661747006 112.80949444845184 1 0 0 0 0.50000000669873634 -0.8660253999169214 forward_v I I I I #
coedge $-1 $263 $264 $265 $266 reversed $103 $-1 #
coedge $-1 $168 $105 $267 $268 reversed $66 $-1 #
coedge $-1 $105 $167 $263 $269 reversed $66 $-1 #
coedge $-1 $265 $270 $105 $170 forward $271 $-1 #
edge $-1 $272 10.785198137832424 $273 26.089397564702978 $169 $274 forward 7 unknown #
loop $-1 $-1 $176 $106 #
plane-surface $-1 24.734586311312711 -38.043240193041079 9.555649105166367 0 -0.50000000669873634 0.8660253999169214 1 0 0 forward_v I I I I #
loop $-1 $-1 $275 $68 #
coedge $-1 $174 $174 $175 $276 reversed $107 $-1 #
coedge $-1 $175 $175 $174 $276 forward $109 $-1 #
coedge $-1 $176 $176 $110 $177 forward $171 $-1 #
edge $-1 $277 5.3974189417362257e-016 $277 6.2831853071796013 $176 $278 forward 7 unknown #
loop $-1 $-1 $183 $111 #
plane-surface $-1 24.734586311312711 -38.043240193041079 9.555649105166367 0 -0.50000000669873634 0.8660253999169214 1 0 0 forward_v I I I I #
loop $-1 $-1 $279 $71 #
coedge $-1 $181 $181 $182 $280 reversed $112 $-1 #
coedge $-1 $182 $182 $181 $280 forward $114 $-1 #
coedge $-1 $183 $183 $115 $184 forward $178 $-1 #
edge $-1 $281 5.3974189417362257e-016 $281 6.2831853071796013 $183 $282 forward 7 unknown #
face $-1 $283 $284 $38 $-1 $285 forward single #
loop $-1 $-1 $286 $116 #
plane-surface $-1 3.4735594514641406 89.777619663095635 144.61477332734495 -1 0 0 0 0.80901700255871778 0.5877852410284794 forward_v I I I I #
coedge $-1 $287 $288 $289 $290 reversed $117 $-1 #
coedge $-1 $190 $119 $291 $292 reversed $75 $-1 #
coedge $-1 $119 $189 $287 $293 reversed $75 $-1 #
coedge $-1 $289 $294 $119 $192 forward $284 $-1 #
edge $-1 $295 6.8455696385067384 $296 10.77765133365321 $191 $297 forward 7 unknown #
loop $-1 $-1 $198 $120 #
plane-surface $-1 -9.8562177806675777 -6.6792700197008941 74.534742905555319 0 0.80901700255871778 0.5877852410284794 1 0 0 forward_v I I I I #
loop $-1 $-1 $298 $77 #
coedge $-1 $196 $196 $197 $299 reversed $121 $-1 #
coedge $-1 $197 $197 $196 $299 forward $123 $-1 #
coedge $-1 $198 $198 $124 $199 forward $193 $-1 #
edge $-1 $300 -1.30225956062532e-015 $300 6.2831853071795996 $198 $301 forward 7 unknown #
face $-1 $302 $303 $30 $-1 $304 reversed single #
loop $-1 $-1 $305 $125 #
plane-surface $-1 -59.613635670033872 0 0 1 0 0 0 0 -1 forward_v I I I I #
coedge $-1 $306 $211 $307 $308 forward $126 $-1 #
coedge $-1 $309 $128 $306 $310 forward $81 $-1 #
coedge $-1 $128 $309 $311 $312 forward $81 $-1 #
coedge $-1 $214 $213 $128 $207 reversed $215 $-1 #
edge $-1 $313 -38.043240193041079 $314 38.043240193041079 $206 $315 forward 7 unknown #
coedge $-1 $130 $129 $316 $317 forward $51 $-1 #
coedge $-1 $318 $319 $129 $210 reversed $303 $-1 #
edge $-1 $217 -59.613635670033872 $320 59.613635670033872 $209 $321 forward 7 unknown #
coedge $-1 $203 $322 $130 $212 reversed $126 $-1 #
edge $-1 $323 -59.613635670033872 $216 59.613635670033872 $211 $324 forward 7 unknown #
coedge $-1 $206 $131 $322 $325 forward $215 $-1 #
coedge $-1 $131 $206 $318 $326 reversed $215 $-1 #
loop $-1 $-1 $213 $302 #
vertex $-1 $132 $327 #
vertex $-1 $132 $328 #
straight-curve $-1 59.613635670033872 0 18.391532921839811 0 1 0 I I #
face $-1 $329 $330 $31 $-1 $331 forward single #
loop $-1 $-1 $332 $133 #
plane-surface $-1 -59.613635670033872 0 0 1 0 0 0 0 -1 forward_v I I I I #
coedge $-1 $229 $333 $231 $334 forward $134 $-1 #
coedge $-1 $136 $231 $335 $336 reversed $85 $-1 #
coedge $-1 $337 $227 $136 $225 forward $338 $-1 #
edge $-1 $233 4.0414280853837496 $339 10.913879252765291 $224 $340 forward 7 unknown #
coedge $-1 $138 $137 $332 $341 reversed $54 $-1 #
coedge $-1 $224 $342 $137 $228 forward $338 $-1 #
edge $-1 $343 -34.503149958402417 $233 -15.717821464860503 $227 $344 forward 7 unknown #
coedge $-1 $345 $222 $138 $230 forward $134 $-1 #
edge $-1 $232 15.717821464860503 $346 34.503149958402417 $229 $347 forward 7 unknown #
coedge $-1 $223 $139 $222 $334 reversed $85 $-1 #
vertex $-1 $230 $348 #
vertex $-1 $228 $349 #
straight-curve $-1 -40.828307176491961 0 11.51908175445827 0 -1 0 I I #
face $-1 $-1 $247 $32 $-1 $350 forward single #
loop $-1 $-1 $351 $141 #
plane-surface $-1 0 -38.043240193041079 0 0 1 0 0 0 1 forward_v I I I I #
coedge $-1 $352 $353 $354 $355 reversed $142 $-1 #
coedge $-1 $356 $144 $146 $245 forward $89 $-1 #
coedge $-1 $144 $356 $352 $357 forward $89 $-1 #
coedge $-1 $354 $147 $144 $242 forward $247 $-1 #
edge $-1 $249 -5.298489490634239 $358 11.247747308405025 $241 $359 forward 7 unknown #
coedge $-1 $360 $361 $145 $244 forward $236 $-1 #
edge $-1 $362 -46.849098119059555 $248 -38.01321430238611 $243 $363 forward 7 unknown #
edge $-1 $249 -17.671767396589871 $362 0 $146 $364 forward 7 unknown #
coedge $-1 $147 $354 $360 $365 forward $247 $-1 #
loop $-1 $-1 $354 $235 #
vertex $-1 $244 $366 #
vertex $-1 $148 $367 #
straight-curve $-1 2.3238605817488462 -48.828438330873503 18.391532921839811 0 1 0 I I #
coedge $-1 $251 $251 $-1 $368 reversed $151 $-1 #
edge $-1 $369 0 $369 6.2831853071796004 $152 $370 forward 7 unknown #
vertex $-1 $155 $371 #
ellipse-curve $-1 -9.494879988993489 -30.391140479605816 13.973591013503082 0 -0.50000000669873634 0.8660253999169214 1 0 0 1 I I #
coedge $-1 $255 $255 $-1 $372 reversed $158 $-1 #
edge $-1 $373 0 $373 6.2831853071796004 $159 $374 forward 7 unknown #
vertex $-1 $162 $375 #
ellipse-curve $-1 -2.4036356465480964 -30.391140479605816 13.973591013503082 0 -0.50000000669873634 0.8660253999169214 1 0 0 1 I I #
face $-1 $-1 $271 $35 $-1 $376 forward single #
loop $-1 $-1 $377 $163 #
plane-surface $-1 0 -38.043240193041079 0 0 1 0 0 0 1 forward_v I I I I #
coedge $-1 $378 $379 $380 $381 reversed $164 $-1 #
coedge $-1 $382 $166 $168 $269 forward $103 $-1 #
coedge $-1 $166 $382 $378 $383 forward $103 $-1 #
coedge $-1 $380 $169 $166 $266 forward $271 $-1 #
edge $-1 $273 -20.640411555175987 $384 -4.0941747561367237 $265 $385 forward 7 unknown #
coedge $-1 $386 $387 $167 $268 forward $260 $-1 #
edge $-1 $388 -46.849098119059555 $272 -38.01321430238611 $267 $389 forward 7 unknown #
edge $-1 $273 -17.671767396589871 $388 0 $168 $390 forward 7 unknown #
coedge $-1 $169 $380 $386 $391 forward $271 $-1 #
loop $-1 $-1 $380 $259 #
vertex $-1 $268 $392 #
vertex $-1 $170 $393 #
straight-curve $-1 33.007704710832343 -48.828438330873503 18.391532921839811 0 1 0 I I #
coedge $-1 $275 $275 $-1 $394 reversed $173 $-1 #
edge $-1 $395 0 $395 6.2831853071796004 $174 $396 forward 7 unknown #
vertex $-1 $177 $397 #
ellipse-curve $-1 21.188964140090008 -30.391140479605816 13.973591013503082 0 -0.50000000669873634 0.8660253999169214 1 0 0 1 I I #
coedge $-1 $279 $279 $-1 $398 reversed $180 $-1 #
edge $-1 $399 0 $399 6.2831853071796004 $181 $400 forward 7 unknown #
vertex $-1 $184 $401 #
ellipse-curve $-1 28.2802084825354 -30.391140479605816 13.973591013503082 0 -0.50000000669873634 0.8660253999169214 1 0 0 1 I I #
face $-1 $-1 $402 $38 $-1 $403 reversed single #
loop $-1 $-1 $191 $185 #
plane-surface $-1 0 0 18.391532921839811 0 0 1 1 0 0 forward_v I I I I #
coedge $-1 $404 $405 $406 $407 reversed $186 $-1 #
coedge $-1 $408 $188 $190 $293 forward $117 $-1 #
coedge $-1 $188 $408 $404 $409 forward $117 $-1 #
coedge $-1 $406 $191 $188 $290 forward $284 $-1 #
edge $-1 $296 -18.257886122465507 $410 8.4016683417979294 $289 $411 forward 7 unknown #
coedge $-1 $412 $413 $189 $292 forward $402 $-1 #
edge $-1 $414 -59.327900055308014 $295 -53.915853741832663 $291 $415 forward 7 unknown #
edge $-1 $296 69.396823312920034 $414 76.086480386082158 $190 $416 forward 7 unknown #
coedge $-1 $191 $406 $412 $417 forward $284 $-1 #
vertex $-1 $292 $418 #
vertex $-1 $192 $419 #
straight-curve $-1 -23.185995012799296 44.888809831547817 18.391532921839811 0 -1 0 I I #
coedge $-1 $298 $298 $-1 $420 reversed $195 $-1 #
edge $-1 $421 0 $421 6.2831853071796004 $196 $422 forward 7 unknown #
vertex $-1 $199 $423 #
ellipse-curve $-1 -9.8562177806675777 36.077199345467839 15.685509765102134 0 0.80901700255871778 0.5877852410284794 1 0 0 1 I I #
face $-1 $-1 $215 $30 $-1 $424 reversed single #
loop $-1 $-1 $318 $200 #
plane-surface $-1 0 38.043240193041079 0 0 -1 0 0 0 -1 forward_v I I I I #
coedge $-1 $425 $316 $319 $426 forward $201 $-1 #
coedge $-1 $322 $203 $204 $310 reversed $126 $-1 #
coedge $-1 $316 $425 $203 $308 reversed $201 $-1 #
edge $-1 $323 -18.391532921839811 $427 18.391532921839811 $307 $428 forward 7 unknown #
coedge $-1 $205 $204 $425 $429 forward $81 $-1 #
edge $-1 $314 -59.613635670033872 $427 59.613635670033872 $306 $430 forward 7 unknown #
coedge $-1 $319 $318 $205 $312 reversed $303 $-1 #
edge $-1 $431 -59.613635670033872 $313 59.613635670033872 $311 $432 forward 7 unknown #
vertex $-1 $207 $433 #
vertex $-1 $325 $434 #
straight-curve $-1 59.613635670033872 0 -18.391532921839811 0 -1 0 I I #
coedge $-1 $305 $307 $208 $317 reversed $201 $-1 #
edge $-1 $320 -38.043240193041079 $323 38.043240193041079 $316 $435 forward 7 unknown #
coedge $-1 $311 $209 $214 $326 forward $303 $-1 #
coedge $-1 $209 $311 $305 $426 reversed $303 $-1 #
vertex $-1 $210 $436 #
straight-curve $-1 0 38.043240193041079 18.391532921839811 -1 0 0 I I #
coedge $-1 $211 $306 $213 $325 reversed $126 $-1 #
vertex $-1 $317 $437 #
straight-curve $-1 0 -38.043240193041079 18.391532921839811 1 0 0 I I #
edge $-1 $216 -18.391532921839811 $314 18.391532921839811 $213 $438 forward 7 unknown #
edge $-1 $217 -18.391532921839811 $313 18.391532921839811 $214 $439 forward 7 unknown #
point $-1 59.613635670033872 -38.043240193041079 18.391532921839811 #
point $-1 59.613635670033872 38.043240193041079 18.391532921839811 #
face $-1 $-1 $338 $31 $-1 $440 reversed single #
loop $-1 $-1 $335 $219 #
plane-surface $-1 0 0 18.391532921839811 0 0 1 1 0 0 forward_v I I I I #
coedge $-1 $441 $442 $226 $341 forward $220 $-1 #
coedge $-1 $222 $345 $443 $444 reversed $134 $-1 #
edge $-1 $445 -10.913879252765291 $232 -4.0414280853837496 $222 $446 forward 7 unknown #
coedge $-1 $443 $447 $223 $336 forward $330 $-1 #
edge $-1 $339 -38.043240193041079 $445 38.043240193041079 $335 $448 forward 7 unknown #
coedge $-1 $342 $224 $447 $449 reversed $338 $-1 #
loop $-1 $-1 $224 $329 #
vertex $-1 $225 $450 #
straight-curve $-1 -40.828307176491961 -38.043240193041079 7.4776536690745203 0 0 1 I I #
edge $-1 $346 -38.043240193041079 $343 38.043240193041079 $332 $451 forward 7 unknown #
coedge $-1 $227 $337 $441 $452 forward $338 $-1 #
vertex $-1 $341 $453 #
straight-curve $-1 -25.110485711631458 -38.043240193041079 11.51908175445827 1 0 0 I I #
coedge $-1 $333 $229 $442 $454 reversed $134 $-1 #
vertex $-1 $341 $455 #
straight-curve $-1 -25.110485711631458 38.043240193041079 11.51908175445827 -1 0 0 I I #
point $-1 -40.828307176491961 38.043240193041079 11.51908175445827 #
point $-1 -40.828307176491961 -38.043240193041079 11.51908175445827 #
plane-surface $-1 0 0 18.391532921839811 0 0 1 1 0 0 forward_v I I I I #
coedge $-1 $361 $360 $353 $456 forward $236 $-1 #
coedge $-1 $353 $238 $240 $357 reversed $142 $-1 #
coedge $-1 $238 $352 $351 $456 reversed $142 $-1 #
coedge $-1 $246 $241 $238 $355 forward $247 $-1 #
edge $-1 $358 -26.089397564702978 $457 -10.785198137832424 $354 $458 forward 7 unknown #
coedge $-1 $240 $239 $361 $459 reversed $89 $-1 #
edge $-1 $460 0 $358 17.671767396589871 $352 $461 forward 7 unknown #
vertex $-1 $242 $462 #
straight-curve $-1 -2.9746289088853928 -22.739040766170522 18.391532921839811 -1 0 0 I I #
coedge $-1 $351 $243 $246 $365 reversed $236 $-1 #
coedge $-1 $243 $351 $356 $459 forward $236 $-1 #
vertex $-1 $244 $463 #
straight-curve $-1 2.3238605817488462 -38.043240193041079 56.404747224225922 0 0 1 I I #
straight-curve $-1 2.3238605817488462 -38.043240193041079 9.555649105166367 0 -0.8660253999169214 -0.50000000669873634 I I #
edge $-1 $457 -14.222376217290417 $248 2.3238605817488462 $360 $464 forward 7 unknown #
point $-1 2.3238605817488462 -38.043240193041079 18.391532921839811 #
point $-1 2.3238605817488462 -22.739040766170525 18.391532921839811 #
edge $-1 $465 1 $465 0 $251 $-1 forward 7 unknown #
vertex $-1 $252 $466 #
ellipse-curve $-1 -9.494879988993489 -29.867107146372756 13.065938671697417 0 -0.50000000669873634 0.8660253999169214 1 0 0 1 I I #
point $-1 -8.494879988993489 -30.391140479605827 13.973591013503102 #
edge $-1 $467 1 $467 0 $255 $-1 forward 7 unknown #
vertex $-1 $256 $468 #
ellipse-curve $-1 -2.4036356465480964 -29.867107146372756 13.065938671697417 0 -0.50000000669873634 0.8660253999169214 1 0 0 1 I I #
point $-1 -1.4036356465480964 -30.391140479605827 13.973591013503102 #
plane-surface $-1 0 0 18.391532921839811 0 0 1 1 0 0 forward_v I I I I #
coedge $-1 $387 $386 $379 $469 forward $260 $-1 #
coedge $-1 $379 $262 $264 $383 reversed $164 $-1 #
coedge $-1 $262 $378 $377 $469 reversed $164 $-1 #
coedge $-1 $270 $265 $262 $381 forward $271 $-1 #
edge $-1 $384 -26.089397564702978 $470 -10.785198137832424 $380 $471 forward 7 unknown #
coedge $-1 $264 $263 $387 $472 reversed $103 $-1 #
edge $-1 $473 0 $384 17.671767396589871 $378 $474 forward 7 unknown #
vertex $-1 $266 $475 #
straight-curve $-1 12.367293155656355 -22.739040766170522 18.391532921839811 -1 0 0 I I #
coedge $-1 $377 $267 $270 $391 reversed $260 $-1 #
coedge $-1 $267 $377 $382 $472 forward $260 $-1 #
vertex $-1 $268 $476 #
straight-curve $-1 33.007704710832343 -38.043240193041079 56.404747224225922 0 0 1 I I #
straight-curve $-1 33.007704710832343 -38.043240193041079 9.555649105166367 0 -0.8660253999169214 -0.50000000669873634 I I #
edge $-1 $470 16.461467911793079 $272 33.007704710832343 $386 $477 forward 7 unknown #
point $-1 33.007704710832343 -38.043240193041079 18.391532921839811 #
point $-1 33.007704710832343 -22.739040766170525 18.391532921839811 #
edge $-1 $478 1 $478 0 $275 $-1 forward 7 unknown #
vertex $-1 $276 $479 #
ellipse-curve $-1 21.188964140090008 -29.867107146372756 13.065938671697417 0 -0.50000000669873634 0.8660253999169214 1 0 0 1 I I #
point $-1 22.188964140090008 -30.391140479605827 13.973591013503102 #
edge $-1 $480 1 $480 0 $279 $-1 forward 7 unknown #
vertex $-1 $280 $481 #
ellipse-curve $-1 28.2802084825354 -29.867107146372756 13.065938671697417 0 -0.50000000669873634 0.8660253999169214 1 0 0 1 I I #
point $-1 29.2802084825354 -30.391140479605827 13.973591013503102 #
loop $-1 $-1 $291 $283 #
plane-surface $-1 0 38.043240193041079 0 0 -1 0 0 0 -1 forward_v I I I I #
coedge $-1 $405 $286 $288 $409 reversed $186 $-1 #
coedge $-1 $286 $404 $482 $483 reversed $186 $-1 #
coedge $-1 $294 $289 $286 $407 forward $284 $-1 #
edge $-1 $410 -10.77765133365321 $484 -6.8455696385067384 $406 $485 forward 7 unknown #
coedge $-1 $288 $287 $413 $486 reversed $117 $-1 #
edge $-1 $487 -76.086480386082158 $410 -69.396823312920034 $404 $488 forward 7 unknown #
vertex $-1 $290 $489 #
straight-curve $-1 -4.9281088903337888 34.1111584978946 18.391532921839811 1 0 0 I I #
coedge $-1 $482 $291 $294 $417 reversed $402 $-1 #
coedge $-1 $291 $482 $408 $486 forward $402 $-1 #
vertex $-1 $292 $490 #
straight-curve $-1 -23.185995012799296 38.043240193041079 72.307386663672474 0 0 1 I I #
straight-curve $-1 -23.185995012799296 -6.6792700197008941 74.534742905555319 0 0.5877852410284794 -0.80901700255871778 I I #
edge $-1 $484 -3.4735594514641406 $295 23.185995012799296 $412 $491 forward 7 unknown #
point $-1 -23.185995012799296 38.043240193041079 18.391532921839811 #
point $-1 -23.185995012799296 34.111158497894607 18.391532921839804 #
edge $-1 $492 1 $492 0 $298 $-1 forward 7 unknown #
vertex $-1 $299 $493 #
ellipse-curve $-1 -9.8562177806675777 34.785838638511791 14.747281319974027 0 0.80901700255871778 0.5877852410284794 1 0 0 1 I I #
point $-1 -8.8562177806675777 36.077199345467832 15.685509765102131 #
plane-surface $-1 59.613635670033872 0 0 -1 0 0 0 0 1 forward_v I I I I #
coedge $-1 $307 $305 $309 $429 reversed $201 $-1 #
edge $-1 $320 -18.391532921839811 $431 18.391532921839811 $319 $494 forward 7 unknown #
vertex $-1 $429 $495 #
straight-curve $-1 -59.613635670033872 -38.043240193041079 0 0 0 -1 I I #
edge $-1 $427 -38.043240193041079 $431 38.043240193041079 $425 $496 forward 7 unknown #
straight-curve $-1 0 -38.043240193041079 -18.391532921839811 -1 0 0 I I #
vertex $-1 $312 $497 #
straight-curve $-1 0 38.043240193041079 -18.391532921839811 1 0 0 I I #
point $-1 59.613635670033872 38.043240193041079 -18.391532921839811 #
point $-1 59.613635670033872 -38.043240193041079 -18.391532921839811 #
straight-curve $-1 -59.613635670033872 0 18.391532921839811 0 -1 0 I I #
point $-1 -59.613635670033872 38.043240193041079 18.391532921839811 #
point $-1 -59.613635670033872 -38.043240193041079 18.391532921839811 #
straight-curve $-1 59.613635670033872 -38.043240193041079 0 0 0 -1 I I #
straight-curve $-1 59.613635670033872 38.043240193041079 0 0 0 -1 I I #
plane-surface $-1 0 -38.043240193041079 0 0 1 0 0 0 1 forward_v I I I I #
coedge $-1 $498 $332 $342 $452 reversed $220 $-1 #
coedge $-1 $332 $498 $345 $454 forward $220 $-1 #
coedge $-1 $499 $335 $333 $444 forward $330 $-1 #
edge $-1 $445 40.828307176491961 $500 59.613635670033872 $333 $501 forward 7 unknown #
vertex $-1 $444 $502 #
straight-curve $-1 -40.828307176491961 38.043240193041079 7.4776536690745203 0 0 -1 I I #
coedge $-1 $335 $499 $337 $449 forward $330 $-1 #
straight-curve $-1 -40.828307176491961 0 18.391532921839811 0 1 0 I I #
edge $-1 $503 -59.613635670033872 $339 -40.828307176491961 $337 $504 forward 7 unknown #
point $-1 -40.828307176491961 -38.043240193041079 18.391532921839811 #
straight-curve $-1 -59.613635670033872 0 11.51908175445827 0 -1 0 I I #
edge $-1 $503 -18.391532921839811 $343 -11.51908175445827 $441 $505 forward 7 unknown #
point $-1 -59.613635670033872 -38.043240193041079 11.51908175445827 #
edge $-1 $500 -18.391532921839811 $346 -11.51908175445827 $345 $506 forward 7 unknown #
point $-1 -59.613635670033872 38.043240193041079 11.51908175445827 #
edge $-1 $457 38.01321430238611 $460 46.849098119059555 $351 $507 forward 7 unknown #
vertex $-1 $365 $508 #
straight-curve $-1 -14.222376217290417 -48.828438330873503 18.391532921839811 0 -1 0 I I #
edge $-1 $460 -11.247747308405025 $362 5.298489490634239 $361 $509 forward 7 unknown #
vertex $-1 $459 $510 #
straight-curve $-1 -14.222376217290417 -38.043240193041079 9.555649105166367 0 0.8660253999169214 0.50000000669873634 I I #
point $-1 -14.222376217290417 -22.739040766170525 18.391532921839811 #
point $-1 2.3238605817488462 -38.043240193041079 9.555649105166367 #
straight-curve $-1 0 -38.043240193041079 18.391532921839811 1 0 0 I I #
vertex $-1 $368 $511 #
point $-1 -8.494879988993489 -29.867107146372756 13.065938671697417 #
vertex $-1 $372 $512 #
point $-1 -1.4036356465480964 -29.867107146372756 13.065938671697417 #
edge $-1 $470 38.01321430238611 $473 46.849098119059555 $377 $513 forward 7 unknown #
vertex $-1 $391 $514 #
straight-curve $-1 16.461467911793079 -48.828438330873503 18.391532921839811 0 -1 0 I I #
edge $-1 $473 4.0941747561367237 $388 20.640411555175987 $387 $515 forward 7 unknown #
vertex $-1 $472 $516 #
straight-curve $-1 16.461467911793079 -38.043240193041079 9.555649105166367 0 0.8660253999169214 0.50000000669873634 I I #
point $-1 16.461467911793079 -22.739040766170525 18.391532921839811 #
point $-1 33.007704710832343 -38.043240193041079 9.555649105166367 #
straight-curve $-1 0 -38.043240193041079 18.391532921839811 1 0 0 I I #
vertex $-1 $394 $517 #
point $-1 22.188964140090008 -29.867107146372756 13.065938671697417 #
vertex $-1 $398 $518 #
point $-1 29.2802084825354 -29.867107146372756 13.065938671697417 #
coedge $-1 $413 $412 $405 $483 forward $402 $-1 #
edge $-1 $484 53.915853741832663 $487 59.327900055308014 $482 $519 forward 7 unknown #
vertex $-1 $417 $520 #
straight-curve $-1 3.4735594514641406 44.888809831547817 18.391532921839811 0 1 0 I I #
edge $-1 $487 -8.4016683417979294 $414 18.257886122465507 $413 $521 forward 7 unknown #
vertex $-1 $486 $522 #
straight-curve $-1 3.4735594514641406 -6.6792700197008941 74.534742905555319 0 -0.5877852410284794 0.80901700255871778 I I #
point $-1 3.4735594514641406 34.111158497894607 18.391532921839804 #
point $-1 -23.185995012799296 38.043240193041079 12.979486608364461 #
straight-curve $-1 0 38.043240193041079 18.391532921839811 -1 0 0 I I #
vertex $-1 $420 $523 #
point $-1 -8.8562177806675777 34.785838638511791 14.747281319974027 #
straight-curve $-1 -59.613635670033872 38.043240193041079 0 0 0 -1 I I #
point $-1 -59.613635670033872 -38.043240193041079 -18.391532921839811 #
straight-curve $-1 -59.613635670033872 0 -18.391532921839811 0 1 0 I I #
point $-1 -59.613635670033872 38.043240193041079 -18.391532921839811 #
coedge $-1 $442 $441 $499 $524 reversed $220 $-1 #
coedge $-1 $447 $443 $498 $524 forward $330 $-1 #
vertex $-1 $444 $525 #
straight-curve $-1 0 38.043240193041079 18.391532921839811 -1 0 0 I I #
point $-1 -40.828307176491961 38.043240193041079 18.391532921839811 #
vertex $-1 $524 $526 #
straight-curve $-1 0 -38.043240193041079 18.391532921839811 1 0 0 I I #
straight-curve $-1 -59.613635670033872 -38.043240193041079 0 0 0 -1 I I #
straight-curve $-1 -59.613635670033872 38.043240193041079 0 0 0 -1 I I #
straight-curve $-1 -14.222376217290417 -38.043240193041079 56.404747224225922 0 0 -1 I I #
point $-1 -14.222376217290417 -38.043240193041079 18.391532921839811 #
straight-curve $-1 -2.9746289088853928 -38.043240193041079 9.555649105166367 1 0 0 I I #
point $-1 -14.222376217290417 -38.043240193041079 9.555649105166367 #
point $-1 -9.494879988993489 -29.367107139674022 12.199913271780495 #
point $-1 -2.4036356465480964 -29.367107139674022 12.199913271780495 #
straight-curve $-1 16.461467911793079 -38.043240193041079 56.404747224225922 0 0 -1 I I #
point $-1 16.461467911793079 -38.043240193041079 18.391532921839811 #
straight-curve $-1 12.367293155656355 -38.043240193041079 9.555649105166367 1 0 0 I I #
point $-1 16.461467911793079 -38.043240193041079 9.555649105166367 #
point $-1 21.188964140090008 -29.367107139674022 12.199913271780495 #
point $-1 28.2802084825354 -29.367107139674022 12.199913271780495 #
straight-curve $-1 3.4735594514641406 38.043240193041079 72.307386663672474 0 0 -1 I I #
point $-1 3.4735594514641406 38.043240193041079 18.391532921839811 #
straight-curve $-1 -4.9281088903337888 38.043240193041086 12.979486608364454 -1 0 0 I I #
point $-1 3.4735594514641406 38.043240193041079 12.979486608364461 #
point $-1 -9.8562177806675777 33.976821635953073 14.159496078945546 #
edge $-1 $500 -38.043240193041079 $503 38.043240193041079 $498 $527 forward 7 unknown #
point $-1 -59.613635670033872 38.043240193041079 18.391532921839811 #
point $-1 -59.613635670033872 -38.043240193041079 18.391532921839811 #
straight-curve $-1 -59.613635670033872 0 18.391532921839811 0 -1 0 I I #
End-of-ACIS-data 