500 0 10 0           
7 Unknown 11 ACIS 5.0 NT 24 Fri Mar 26 00:26:45 1999 
-1 9.9999999999999995e-007 1e-010 
body $-1 $10 $-1 $11 #
body $-1 $12 $-1 $13 #
body $-1 $14 $-1 $15 #
body $-1 $16 $-1 $17 #
body $-1 $18 $-1 $19 #
body $-1 $20 $-1 $21 #
body $-1 $22 $-1 $23 #
body $-1 $24 $-1 $25 #
body $-1 $26 $-1 $27 #
body $-1 $28 $-1 $29 #
lump $-1 $-1 $30 $0 #
transform $-1 1 0 0 0 1 0 0 0 1 55.730460524307993 33.095052738004533 12.901485203228088 1 rotate no_reflect no_shear #
lump $-1 $-1 $31 $1 #
transform $-1 1 0 0 0 1 0 0 0 1 55.730460524307993 33.095052738004533 12.901485203228088 1 rotate no_reflect no_shear #
lump $-1 $-1 $32 $2 #
transform $-1 1 0 0 0 1 0 0 0 1 55.730460524307993 33.095052738004533 12.901485203228088 1 rotate no_reflect no_shear #
lump $-1 $-1 $33 $3 #
transform $-1 1 0 0 0 1 0 0 0 1 55.730460524307993 33.095052738004533 12.901485203228088 1 rotate no_reflect no_shear #
lump $-1 $-1 $34 $4 #
transform $-1 1 0 0 0 1 0 0 0 1 55.730460524307993 33.095052738004533 12.901485203228088 1 rotate no_reflect no_shear #
lump $-1 $-1 $35 $5 #
transform $-1 1 0 0 0 1 0 0 0 1 55.730460524307993 33.095052738004533 12.901485203228088 1 rotate no_reflect no_shear #
lump $-1 $-1 $36 $6 #
transform $-1 1 0 0 0 1 0 0 0 1 55.730460524307993 33.095052738004533 12.901485203228088 1 rotate no_reflect no_shear #
lump $-1 $-1 $37 $7 #
transform $-1 1 0 0 0 1 0 0 0 1 55.730460524307993 33.095052738004533 12.901485203228088 1 rotate no_reflect no_shear #
lump $-1 $-1 $38 $8 #
transform $-1 1 0 0 0 1 0 0 0 1 55.730460524307993 33.095052738004533 12.901485203228088 1 rotate no_reflect no_shear #
lump $-1 $-1 $39 $9 #
transform $-1 1 0 0 0 1 0 0 0 1 55.730460524307993 33.095052738004533 12.901485203228088 1 rotate no_reflect no_shear #
shell $-1 $-1 $-1 $40 $-1 $10 #
shell $-1 $-1 $-1 $41 $-1 $12 #
shell $-1 $-1 $-1 $42 $-1 $14 #
shell $-1 $-1 $-1 $43 $-1 $16 #
shell $-1 $-1 $-1 $44 $-1 $18 #
shell $-1 $-1 $-1 $45 $-1 $20 #
shell $-1 $-1 $-1 $46 $-1 $22 #
shell $-1 $-1 $-1 $47 $-1 $24 #
shell $-1 $-1 $-1 $48 $-1 $26 #
shell $-1 $-1 $-1 $49 $-1 $28 #
face $-1 $50 $51 $30 $-1 $52 forward single #
face $-1 $53 $54 $31 $-1 $55 forward single #
face $-1 $56 $57 $32 $-1 $58 reversed single #
face $-1 $59 $60 $33 $-1 $61 forward single #
face $-1 $62 $63 $34 $-1 $64 forward single #
face $-1 $65 $66 $35 $-1 $67 forward single #
face $-1 $68 $69 $36 $-1 $70 reversed single #
face $-1 $71 $72 $37 $-1 $73 forward single #
face $-1 $74 $75 $38 $-1 $76 forward single #
face $-1 $77 $78 $39 $-1 $79 forward single #
face $-1 $80 $81 $30 $-1 $82 reversed single #
loop $-1 $-1 $83 $40 #
plane-surface $-1 0 0 12.901485203228088 0 0 1 1 0 0 forward_v I I I I #
face $-1 $84 $85 $31 $-1 $86 reversed single #
loop $-1 $-1 $87 $41 #
plane-surface $-1 0 -33.095052738004533 0 0 1 0 0 0 1 forward_v I I I I #
face $-1 $88 $89 $32 $-1 $90 reversed single #
loop $-1 $-1 $91 $42 #
plane-surface $-1 -23.467959970577574 90.524333231571404 123.6530668831718 1 0 0 0 -0.83867057594974714 -0.54463902268945019 forward_v I I I I #
face $-1 $92 $93 $33 $-1 $94 forward single #
loop $-1 $95 $96 $43 #
cone-surface $-1 -20.790645992192793 30.900860802739992 9.8961260369936195 0 -0.83867057594974714 -0.54463902268945019 0.5 0 0 1 I I 0 1 0.5 forward I I I I #
face $-1 $97 $98 $34 $-1 $99 forward single #
loop $-1 $100 $101 $44 #
cone-surface $-1 -16.774675024615618 30.900860802739992 9.8961260369936195 0 -0.83867057594974714 -0.54463902268945019 0.5 0 0 1 I I 0 1 0.5 forward I I I I #
face $-1 $102 $103 $35 $-1 $104 forward single #
loop $-1 $105 $106 $45 #
cone-surface $-1 -12.758704057038443 30.900860802739992 9.8961260369936195 0 -0.83867057594974714 -0.54463902268945019 0.5 0 0 1 I I 0 1 0.5 forward I I I I #
face $-1 $107 $108 $36 $-1 $109 reversed single #
loop $-1 $-1 $110 $46 #
plane-surface $-1 10.081390078653669 90.524333231571404 123.6530668831718 1 0 0 0 -0.83867057594974714 -0.54463902268945019 forward_v I I I I #
face $-1 $111 $112 $37 $-1 $113 forward single #
loop $-1 $114 $115 $47 #
cone-surface $-1 12.75870405703845 30.900860802739992 9.8961260369936195 0 -0.83867057594974714 -0.54463902268945019 0.5 0 0 1 I I 0 1 0.5 forward I I I I #
face $-1 $116 $117 $38 $-1 $118 forward single #
loop $-1 $119 $120 $48 #
cone-surface $-1 16.774675024615625 30.900860802739992 9.8961260369936195 0 -0.83867057594974714 -0.54463902268945019 0.5 0 0 1 I I 0 1 0.5 forward I I I I #
face $-1 $121 $122 $39 $-1 $123 forward single #
loop $-1 $124 $125 $49 #
cone-surface $-1 20.7906459921928 30.900860802739992 9.8961260369936195 0 -0.83867057594974714 -0.54463902268945019 0.5 0 0 1 I I 0 1 0.5 forward I I I I #
face $-1 $126 $127 $30 $-1 $128 reversed single #
loop $-1 $-1 $129 $50 #
plane-surface $-1 0 0 -12.901485203228088 0 0 1 1 0 0 forward_v I I I I #
coedge $-1 $130 $131 $132 $133 forward $51 $-1 #
face $-1 $134 $135 $31 $-1 $136 reversed single #
loop $-1 $-1 $137 $53 #
plane-surface $-1 0 0 -12.901485203228088 0 0 1 1 0 0 forward_v I I I I #
coedge $-1 $138 $139 $140 $141 forward $54 $-1 #
face $-1 $142 $143 $32 $-1 $144 reversed single #
loop $-1 $-1 $145 $56 #
plane-surface $-1 -16.774675024615618 -2.9546616201606639 62.947099775187624 0 0.83867057594974714 0.54463902268945019 1 0 0 forward_v I I I I #
coedge $-1 $146 $147 $148 $149 reversed $57 $-1 #
face $-1 $-1 $150 $33 $-1 $151 forward single #
loop $-1 $152 $153 $59 #
cone-surface $-1 -20.790645992192793 30.27185787077768 9.4876467699765321 0 -0.83867057594974714 -0.54463902268945019 0.25 0 0 1 I I -0.70710678118654746 0.70710678118654746 0.25 forward I I I I #
loop $-1 $-1 $154 $43 #
coedge $-1 $96 $96 $155 $156 reversed $60 $-1 #
face $-1 $-1 $157 $34 $-1 $158 forward single #
loop $-1 $159 $160 $62 #
cone-surface $-1 -16.774675024615618 30.27185787077768 9.4876467699765321 0 -0.83867057594974714 -0.54463902268945019 0.25 0 0 1 I I -0.70710678118654746 0.70710678118654746 0.25 forward I I I I #
loop $-1 $-1 $161 $44 #
coedge $-1 $101 $101 $162 $163 reversed $63 $-1 #
face $-1 $-1 $164 $35 $-1 $165 forward single #
loop $-1 $166 $167 $65 #
cone-surface $-1 -12.758704057038443 30.27185787077768 9.4876467699765321 0 -0.83867057594974714 -0.54463902268945019 0.25 0 0 1 I I -0.70710678118654746 0.70710678118654746 0.25 forward I I I I #
loop $-1 $-1 $168 $45 #
coedge $-1 $106 $106 $169 $170 reversed $66 $-1 #
face $-1 $171 $172 $36 $-1 $173 reversed single #
loop $-1 $-1 $174 $68 #
plane-surface $-1 16.774675024615625 -2.9546616201606639 62.947099775187624 0 0.83867057594974714 0.54463902268945019 1 0 0 forward_v I I I I #
coedge $-1 $175 $176 $177 $178 reversed $69 $-1 #
face $-1 $-1 $179 $37 $-1 $180 forward single #
loop $-1 $181 $182 $71 #
cone-surface $-1 12.75870405703845 30.27185787077768 9.4876467699765321 0 -0.83867057594974714 -0.54463902268945019 0.25 0 0 1 I I -0.70710678118654746 0.70710678118654746 0.25 forward I I I I #
loop $-1 $-1 $183 $47 #
coedge $-1 $115 $115 $184 $185 reversed $72 $-1 #
face $-1 $-1 $186 $38 $-1 $187 forward single #
loop $-1 $188 $189 $74 #
cone-surface $-1 16.774675024615625 30.27185787077768 9.4876467699765321 0 -0.83867057594974714 -0.54463902268945019 0.25 0 0 1 I I -0.70710678118654746 0.70710678118654746 0.25 forward I I I I #
loop $-1 $-1 $190 $48 #
coedge $-1 $120 $120 $191 $192 reversed $75 $-1 #
face $-1 $-1 $193 $39 $-1 $194 forward single #
loop $-1 $195 $196 $77 #
cone-surface $-1 20.7906459921928 30.27185787077768 9.4876467699765321 0 -0.83867057594974714 -0.54463902268945019 0.25 0 0 1 I I -0.70710678118654746 0.70710678118654746 0.25 forward I I I I #
loop $-1 $-1 $197 $49 #
coedge $-1 $125 $125 $198 $199 reversed $78 $-1 #
face $-1 $200 $201 $30 $-1 $202 reversed single #
loop $-1 $-1 $203 $80 #
plane-surface $-1 0 -33.095052738004533 0 0 1 0 0 0 1 forward_v I I I I #
coedge $-1 $204 $205 $206 $207 forward $81 $-1 #
coedge $-1 $208 $83 $209 $210 forward $51 $-1 #
coedge $-1 $83 $208 $211 $212 forward $51 $-1 #
coedge $-1 $213 $214 $83 $133 reversed $215 $-1 #
edge $-1 $216 -33.095052738004533 $217 33.095052738004533 $132 $218 forward 7 unknown #
face $-1 $219 $220 $31 $-1 $221 forward single #
loop $-1 $-1 $222 $84 #
plane-surface $-1 55.730460524307993 0 0 -1 0 0 0 0 1 forward_v I I I I #
coedge $-1 $223 $224 $225 $226 forward $85 $-1 #
coedge $-1 $225 $87 $222 $227 reversed $54 $-1 #
coedge $-1 $87 $225 $228 $229 reversed $54 $-1 #
coedge $-1 $230 $231 $87 $141 reversed $220 $-1 #
edge $-1 $232 -55.730460524307993 $233 55.730460524307993 $140 $234 forward 7 unknown #
face $-1 $235 $236 $32 $-1 $237 forward single #
loop $-1 $-1 $238 $88 #
plane-surface $-1 -10.081390078653662 90.524333231571404 123.6530668831718 -1 0 0 0 0.83867057594974714 0.54463902268945019 forward_v I I I I #
coedge $-1 $239 $240 $241 $242 reversed $89 $-1 #
coedge $-1 $147 $91 $243 $244 reversed $57 $-1 #
coedge $-1 $91 $146 $239 $245 reversed $57 $-1 #
coedge $-1 $241 $246 $91 $149 forward $236 $-1 #
edge $-1 $247 12.167113877781169 $248 15.71682717236051 $148 $249 forward 7 unknown #
loop $-1 $-1 $155 $92 #
plane-surface $-1 -16.774675024615618 -2.9546616201606639 62.947099775187624 0 0.83867057594974714 0.54463902268945019 1 0 0 forward_v I I I I #
loop $-1 $-1 $250 $59 #
coedge $-1 $153 $153 $154 $251 reversed $93 $-1 #
coedge $-1 $154 $154 $153 $251 forward $95 $-1 #
coedge $-1 $155 $155 $96 $156 forward $150 $-1 #
edge $-1 $252 -6.8494494390188537e-015 $252 6.2831853071795933 $155 $253 forward 7 unknown #
loop $-1 $-1 $162 $97 #
plane-surface $-1 -16.774675024615618 -2.9546616201606639 62.947099775187624 0 0.83867057594974714 0.54463902268945019 1 0 0 forward_v I I I I #
loop $-1 $-1 $254 $62 #
coedge $-1 $160 $160 $161 $255 reversed $98 $-1 #
coedge $-1 $161 $161 $160 $255 forward $100 $-1 #
coedge $-1 $162 $162 $101 $163 forward $157 $-1 #
edge $-1 $256 -6.8494494390188537e-015 $256 6.2831853071795933 $162 $257 forward 7 unknown #
loop $-1 $-1 $169 $102 #
plane-surface $-1 -16.774675024615618 -2.9546616201606639 62.947099775187624 0 0.83867057594974714 0.54463902268945019 1 0 0 forward_v I I I I #
loop $-1 $-1 $258 $65 #
coedge $-1 $167 $167 $168 $259 reversed $103 $-1 #
coedge $-1 $168 $168 $167 $259 forward $105 $-1 #
coedge $-1 $169 $169 $106 $170 forward $164 $-1 #
edge $-1 $260 -6.8494494390188537e-015 $260 6.2831853071795933 $169 $261 forward 7 unknown #
face $-1 $262 $263 $36 $-1 $264 forward single #
loop $-1 $-1 $265 $107 #
plane-surface $-1 23.467959970577581 90.524333231571404 123.6530668831718 -1 0 0 0 0.83867057594974714 0.54463902268945019 forward_v I I I I #
coedge $-1 $266 $267 $268 $269 reversed $108 $-1 #
coedge $-1 $176 $110 $270 $271 reversed $69 $-1 #
coedge $-1 $110 $175 $266 $272 reversed $69 $-1 #
coedge $-1 $268 $273 $110 $178 forward $263 $-1 #
edge $-1 $274 12.167113877781169 $275 15.71682717236051 $177 $276 forward 7 unknown #
loop $-1 $-1 $184 $111 #
plane-surface $-1 16.774675024615625 -2.9546616201606639 62.947099775187624 0 0.83867057594974714 0.54463902268945019 1 0 0 forward_v I I I I #
loop $-1 $-1 $277 $71 #
coedge $-1 $182 $182 $183 $278 reversed $112 $-1 #
coedge $-1 $183 $183 $182 $278 forward $114 $-1 #
coedge $-1 $184 $184 $115 $185 forward $179 $-1 #
edge $-1 $279 -6.8494494390188537e-015 $279 6.2831853071795933 $184 $280 forward 7 unknown #
loop $-1 $-1 $191 $116 #
plane-surface $-1 16.774675024615625 -2.9546616201606639 62.947099775187624 0 0.83867057594974714 0.54463902268945019 1 0 0 forward_v I I I I #
loop $-1 $-1 $281 $74 #
coedge $-1 $189 $189 $190 $282 reversed $117 $-1 #
coedge $-1 $190 $190 $189 $282 forward $119 $-1 #
coedge $-1 $191 $191 $120 $192 forward $186 $-1 #
edge $-1 $283 -6.8494494390188537e-015 $283 6.2831853071795933 $191 $284 forward 7 unknown #
loop $-1 $-1 $198 $121 #
plane-surface $-1 16.774675024615625 -2.9546616201606639 62.947099775187624 0 0.83867057594974714 0.54463902268945019 1 0 0 forward_v I I I I #
loop $-1 $-1 $285 $77 #
coedge $-1 $196 $196 $197 $286 reversed $122 $-1 #
coedge $-1 $197 $197 $196 $286 forward $124 $-1 #
coedge $-1 $198 $198 $125 $199 forward $193 $-1 #
edge $-1 $287 -6.8494494390188537e-015 $287 6.2831853071795933 $198 $288 forward 7 unknown #
face $-1 $289 $290 $30 $-1 $291 reversed single #
loop $-1 $-1 $292 $126 #
plane-surface $-1 -55.730460524307993 0 0 1 0 0 0 0 -1 forward_v I I I I #
coedge $-1 $211 $293 $213 $294 reversed $127 $-1 #
coedge $-1 $295 $129 $293 $296 forward $81 $-1 #
coedge $-1 $129 $295 $297 $298 forward $81 $-1 #
coedge $-1 $214 $213 $129 $207 reversed $215 $-1 #
edge $-1 $299 -33.095052738004533 $300 33.095052738004533 $206 $301 forward 7 unknown #
coedge $-1 $131 $130 $302 $303 forward $51 $-1 #
coedge $-1 $304 $305 $130 $210 reversed $290 $-1 #
edge $-1 $217 -55.730460524307993 $306 55.730460524307993 $209 $307 forward 7 unknown #
coedge $-1 $308 $203 $131 $212 reversed $127 $-1 #
edge $-1 $309 -55.730460524307993 $216 55.730460524307993 $211 $310 forward 7 unknown #
coedge $-1 $206 $132 $203 $294 forward $215 $-1 #
coedge $-1 $132 $206 $304 $311 reversed $215 $-1 #
loop $-1 $-1 $213 $289 #
vertex $-1 $133 $312 #
vertex $-1 $133 $313 #
straight-curve $-1 55.730460524307993 0 12.901485203228088 0 1 0 I I #
face $-1 $314 $315 $31 $-1 $316 reversed single #
loop $-1 $-1 $231 $134 #
plane-surface $-1 0 -39.050627462752104 -9.2240874707194749 0 0 1 1 0 0 forward_v I I I I #
coedge $-1 $317 $318 $138 $227 forward $135 $-1 #
coedge $-1 $319 $137 $318 $320 forward $85 $-1 #
coedge $-1 $137 $319 $321 $322 forward $85 $-1 #
coedge $-1 $139 $138 $137 $226 reversed $54 $-1 #
edge $-1 $323 -55.730460524307993 $324 55.730460524307993 $137 $325 forward 7 unknown #
edge $-1 $324 -12.901485203228088 $233 -9.2240874707194749 $222 $326 forward 7 unknown #
coedge $-1 $321 $327 $139 $229 forward $328 $-1 #
edge $-1 $232 9.2240874707194749 $323 12.901485203228088 $228 $329 forward 7 unknown #
coedge $-1 $330 $140 $327 $331 forward $220 $-1 #
coedge $-1 $140 $330 $317 $332 forward $220 $-1 #
vertex $-1 $229 $333 #
vertex $-1 $332 $334 #
straight-curve $-1 0 -33.095052738004533 -9.2240874707194749 1 0 0 I I #
face $-1 $-1 $335 $32 $-1 $336 reversed single #
loop $-1 $-1 $148 $142 #
plane-surface $-1 0 0 12.901485203228088 0 0 1 1 0 0 forward_v I I I I #
coedge $-1 $337 $338 $339 $340 reversed $143 $-1 #
coedge $-1 $341 $145 $147 $245 forward $89 $-1 #
coedge $-1 $145 $341 $337 $342 forward $89 $-1 #
coedge $-1 $339 $148 $145 $242 forward $236 $-1 #
edge $-1 $248 -15.080622458269765 $343 -1.694052566345853 $241 $344 forward 7 unknown #
coedge $-1 $345 $346 $146 $244 forward $335 $-1 #
edge $-1 $347 -54.391127548137298 $247 -48.925048238357817 $243 $348 forward 7 unknown #
edge $-1 $248 59.672553213501857 $347 66.190105476009052 $147 $349 forward 7 unknown #
coedge $-1 $148 $339 $345 $350 forward $236 $-1 #
vertex $-1 $244 $351 #
vertex $-1 $149 $352 #
straight-curve $-1 -23.467959970577574 45.262166615785702 12.901485203228091 0 -1 0 I I #
coedge $-1 $250 $250 $-1 $353 reversed $152 $-1 #
edge $-1 $354 0 $354 6.2831853071796004 $153 $355 forward 7 unknown #
vertex $-1 $156 $356 #
ellipse-curve $-1 -20.790645992192793 31.320196090714866 10.168445548338344 0 0.83867057594974714 0.54463902268945019 0.5 0 0 1 I I #
coedge $-1 $254 $254 $-1 $357 reversed $159 $-1 #
edge $-1 $358 0 $358 6.2831853071796004 $160 $359 forward 7 unknown #
vertex $-1 $163 $360 #
ellipse-curve $-1 -16.774675024615618 31.320196090714866 10.168445548338344 0 0.83867057594974714 0.54463902268945019 0.5 0 0 1 I I #
coedge $-1 $258 $258 $-1 $361 reversed $166 $-1 #
edge $-1 $362 0 $362 6.2831853071796004 $167 $363 forward 7 unknown #
vertex $-1 $170 $364 #
ellipse-curve $-1 -12.758704057038443 31.320196090714866 10.168445548338344 0 0.83867057594974714 0.54463902268945019 0.5 0 0 1 I I #
face $-1 $-1 $365 $36 $-1 $366 reversed single #
loop $-1 $-1 $177 $171 #
plane-surface $-1 0 0 12.901485203228088 0 0 1 1 0 0 forward_v I I I I #
coedge $-1 $367 $368 $369 $370 reversed $172 $-1 #
coedge $-1 $371 $174 $176 $272 forward $108 $-1 #
coedge $-1 $174 $371 $367 $372 forward $108 $-1 #
coedge $-1 $369 $177 $174 $269 forward $263 $-1 #
edge $-1 $275 1.6940525663458565 $373 15.080622458269769 $268 $374 forward 7 unknown #
coedge $-1 $375 $376 $175 $271 forward $365 $-1 #
edge $-1 $377 -54.391127548137298 $274 -48.925048238357817 $270 $378 forward 7 unknown #
edge $-1 $275 59.672553213501857 $377 66.190105476009052 $176 $379 forward 7 unknown #
coedge $-1 $177 $369 $375 $380 forward $263 $-1 #
vertex $-1 $178 $381 #
vertex $-1 $178 $382 #
straight-curve $-1 10.081390078653669 45.262166615785702 12.901485203228091 0 -1 0 I I #
coedge $-1 $277 $277 $-1 $383 reversed $181 $-1 #
edge $-1 $384 0 $384 6.2831853071796004 $182 $385 forward 7 unknown #
vertex $-1 $185 $386 #
ellipse-curve $-1 12.75870405703845 31.320196090714866 10.168445548338344 0 0.83867057594974714 0.54463902268945019 0.5 0 0 1 I I #
coedge $-1 $281 $281 $-1 $387 reversed $188 $-1 #
edge $-1 $388 0 $388 6.2831853071796004 $189 $389 forward 7 unknown #
vertex $-1 $192 $390 #
ellipse-curve $-1 16.774675024615625 31.320196090714866 10.168445548338344 0 0.83867057594974714 0.54463902268945019 0.5 0 0 1 I I #
coedge $-1 $285 $285 $-1 $391 reversed $195 $-1 #
edge $-1 $392 0 $392 6.2831853071796004 $196 $393 forward 7 unknown #
vertex $-1 $199 $394 #
ellipse-curve $-1 20.7906459921928 31.320196090714866 10.168445548338344 0 0.83867057594974714 0.54463902268945019 0.5 0 0 1 I I #
face $-1 $-1 $215 $30 $-1 $395 reversed single #
loop $-1 $-1 $304 $200 #
plane-surface $-1 0 33.095052738004533 0 0 -1 0 0 0 -1 forward_v I I I I #
coedge $-1 $396 $302 $305 $397 forward $201 $-1 #
coedge $-1 $203 $308 $204 $296 reversed $127 $-1 #
edge $-1 $216 -12.901485203228088 $300 12.901485203228088 $213 $398 forward 7 unknown #
coedge $-1 $205 $204 $396 $399 forward $81 $-1 #
edge $-1 $300 -55.730460524307993 $400 55.730460524307993 $293 $401 forward 7 unknown #
coedge $-1 $305 $304 $205 $298 reversed $290 $-1 #
edge $-1 $402 -55.730460524307993 $299 55.730460524307993 $297 $403 forward 7 unknown #
vertex $-1 $207 $404 #
vertex $-1 $294 $405 #
straight-curve $-1 55.730460524307993 0 -12.901485203228088 0 -1 0 I I #
coedge $-1 $292 $406 $208 $303 reversed $201 $-1 #
edge $-1 $306 -33.095052738004533 $309 33.095052738004533 $302 $407 forward 7 unknown #
coedge $-1 $297 $209 $214 $311 forward $290 $-1 #
coedge $-1 $209 $297 $292 $397 reversed $290 $-1 #
vertex $-1 $210 $408 #
straight-curve $-1 0 33.095052738004533 12.901485203228088 -1 0 0 I I #
coedge $-1 $293 $211 $406 $409 forward $127 $-1 #
vertex $-1 $303 $410 #
straight-curve $-1 0 -33.095052738004533 12.901485203228088 1 0 0 I I #
edge $-1 $217 -12.901485203228088 $299 12.901485203228088 $214 $411 forward 7 unknown #
point $-1 55.730460524307993 -33.095052738004533 12.901485203228088 #
point $-1 55.730460524307993 33.095052738004533 12.901485203228088 #
face $-1 $-1 $328 $31 $-1 $412 reversed single #
loop $-1 $-1 $413 $219 #
plane-surface $-1 0 -45.006202187499674 -11.062786336973781 0 1 0 0 0 1 forward_v I I I I #
coedge $-1 $414 $222 $231 $332 reversed $135 $-1 #
coedge $-1 $222 $414 $223 $320 reversed $135 $-1 #
coedge $-1 $224 $223 $415 $416 forward $85 $-1 #
edge $-1 $324 33.095052738004533 $417 45.006202187499674 $318 $418 forward 7 unknown #
coedge $-1 $419 $228 $224 $322 reversed $328 $-1 #
edge $-1 $420 -45.006202187499674 $323 -33.095052738004533 $321 $421 forward 7 unknown #
vertex $-1 $229 $422 #
vertex $-1 $320 $423 #
straight-curve $-1 0 -33.095052738004533 -12.901485203228088 1 0 0 I I #
straight-curve $-1 55.730460524307993 -33.095052738004533 0 0 0 1 I I #
coedge $-1 $228 $419 $230 $331 reversed $328 $-1 #
loop $-1 $-1 $228 $314 #
straight-curve $-1 -55.730460524307993 -33.095052738004533 0 0 0 -1 I I #
coedge $-1 $231 $230 $424 $425 forward $220 $-1 #
edge $-1 $232 -5.9555747247475708 $426 5.9555747247475708 $327 $427 forward 7 unknown #
edge $-1 $428 -5.9555747247475708 $233 5.9555747247475708 $317 $429 forward 7 unknown #
point $-1 -55.730460524307993 -33.095052738004533 -9.2240874707194749 #
point $-1 55.730460524307993 -33.095052738004533 -9.2240874707194749 #
loop $-1 $-1 $243 $235 #
plane-surface $-1 0 33.095052738004533 0 0 -1 0 0 0 -1 forward_v I I I I #
coedge $-1 $338 $238 $240 $342 reversed $143 $-1 #
coedge $-1 $238 $337 $430 $431 reversed $143 $-1 #
coedge $-1 $246 $241 $238 $340 forward $236 $-1 #
edge $-1 $343 -15.71682717236051 $432 -12.167113877781169 $339 $433 forward 7 unknown #
coedge $-1 $240 $239 $346 $434 reversed $89 $-1 #
edge $-1 $435 -66.190105476009052 $343 -59.672553213501857 $337 $436 forward 7 unknown #
vertex $-1 $242 $437 #
straight-curve $-1 -8.3873375123078091 29.545339443425195 12.901485203228091 1 0 0 I I #
coedge $-1 $430 $243 $246 $350 reversed $335 $-1 #
coedge $-1 $243 $430 $341 $434 forward $335 $-1 #
vertex $-1 $244 $438 #
straight-curve $-1 -23.467959970577574 33.095052738004533 61.826533441585902 0 0 1 I I #
straight-curve $-1 -23.467959970577574 -2.9546616201606639 62.947099775187624 0 0.54463902268945019 -0.83867057594974714 I I #
edge $-1 $432 10.081390078653662 $247 23.467959970577574 $345 $439 forward 7 unknown #
point $-1 -23.467959970577574 33.095052738004533 12.901485203228088 #
point $-1 -23.467959970577574 29.545339443425192 12.901485203228091 #
edge $-1 $440 1 $440 0 $250 $-1 forward 7 unknown #
vertex $-1 $251 $441 #
ellipse-curve $-1 -20.790645992192793 30.481525514765117 9.6238065256488952 0 0.83867057594974714 0.54463902268945019 0.5 0 0 1 I I #
point $-1 -20.290645992192793 31.320196090714862 10.168445548338346 #
edge $-1 $442 1 $442 0 $254 $-1 forward 7 unknown #
vertex $-1 $255 $443 #
ellipse-curve $-1 -16.774675024615618 30.481525514765117 9.6238065256488952 0 0.83867057594974714 0.54463902268945019 0.5 0 0 1 I I #
point $-1 -16.274675024615618 31.320196090714862 10.168445548338346 #
edge $-1 $444 1 $444 0 $258 $-1 forward 7 unknown #
vertex $-1 $259 $445 #
ellipse-curve $-1 -12.758704057038443 30.481525514765117 9.6238065256488952 0 0.83867057594974714 0.54463902268945019 0.5 0 0 1 I I #
point $-1 -12.258704057038443 31.320196090714862 10.168445548338346 #
loop $-1 $-1 $270 $262 #
plane-surface $-1 0 33.095052738004533 0 0 -1 0 0 0 -1 forward_v I I I I #
coedge $-1 $368 $265 $267 $372 reversed $172 $-1 #
coedge $-1 $265 $367 $446 $447 reversed $172 $-1 #
coedge $-1 $273 $268 $265 $370 forward $263 $-1 #
edge $-1 $373 -15.71682717236051 $448 -12.167113877781169 $369 $449 forward 7 unknown #
coedge $-1 $267 $266 $376 $450 reversed $108 $-1 #
edge $-1 $451 -66.190105476009052 $373 -59.672553213501857 $367 $452 forward 7 unknown #
vertex $-1 $269 $453 #
straight-curve $-1 8.3873375123078127 29.545339443425195 12.901485203228091 1 0 0 I I #
coedge $-1 $446 $270 $273 $380 reversed $365 $-1 #
coedge $-1 $270 $446 $371 $450 forward $365 $-1 #
vertex $-1 $271 $454 #
straight-curve $-1 10.081390078653669 33.095052738004533 61.826533441585902 0 0 1 I I #
straight-curve $-1 10.081390078653669 -2.9546616201606639 62.947099775187624 0 0.54463902268945019 -0.83867057594974714 I I #
edge $-1 $448 -23.467959970577581 $274 -10.081390078653669 $375 $455 forward 7 unknown #
point $-1 10.081390078653669 33.095052738004533 12.901485203228088 #
point $-1 10.081390078653669 29.545339443425192 12.901485203228091 #
edge $-1 $456 1 $456 0 $277 $-1 forward 7 unknown #
vertex $-1 $278 $457 #
ellipse-curve $-1 12.75870405703845 30.481525514765117 9.6238065256488952 0 0.83867057594974714 0.54463902268945019 0.5 0 0 1 I I #
point $-1 13.25870405703845 31.320196090714862 10.168445548338346 #
edge $-1 $458 1 $458 0 $281 $-1 forward 7 unknown #
vertex $-1 $282 $459 #
ellipse-curve $-1 16.774675024615625 30.481525514765117 9.6238065256488952 0 0.83867057594974714 0.54463902268945019 0.5 0 0 1 I I #
point $-1 17.274675024615625 31.320196090714862 10.168445548338346 #
edge $-1 $460 1 $460 0 $285 $-1 forward 7 unknown #
vertex $-1 $286 $461 #
ellipse-curve $-1 20.7906459921928 30.481525514765117 9.6238065256488952 0 0.83867057594974714 0.54463902268945019 0.5 0 0 1 I I #
point $-1 21.2906459921928 31.320196090714862 10.168445548338346 #
plane-surface $-1 55.730460524307993 0 0 -1 0 0 0 0 1 forward_v I I I I #
coedge $-1 $406 $292 $295 $399 reversed $201 $-1 #
edge $-1 $306 -12.901485203228088 $402 12.901485203228088 $305 $462 forward 7 unknown #
straight-curve $-1 55.730460524307993 -33.095052738004533 0 0 0 -1 I I #
edge $-1 $400 -33.095052738004533 $402 33.095052738004533 $396 $463 forward 7 unknown #
vertex $-1 $399 $464 #
straight-curve $-1 0 -33.095052738004533 -12.901485203228088 -1 0 0 I I #
vertex $-1 $298 $465 #
straight-curve $-1 0 33.095052738004533 -12.901485203228088 1 0 0 I I #
point $-1 55.730460524307993 33.095052738004533 -12.901485203228088 #
point $-1 55.730460524307993 -33.095052738004533 -12.901485203228088 #
coedge $-1 $302 $396 $308 $409 reversed $201 $-1 #
straight-curve $-1 -55.730460524307993 0 12.901485203228088 0 -1 0 I I #
point $-1 -55.730460524307993 33.095052738004533 12.901485203228088 #
edge $-1 $309 -12.901485203228088 $400 12.901485203228088 $406 $466 forward 7 unknown #
point $-1 -55.730460524307993 -33.095052738004533 12.901485203228088 #
straight-curve $-1 55.730460524307993 33.095052738004533 0 0 0 -1 I I #
plane-surface $-1 -55.730460524307993 0 0 1 0 0 0 0 -1 forward_v I I I I #
coedge $-1 $415 $424 $419 $467 forward $315 $-1 #
coedge $-1 $318 $317 $468 $469 forward $135 $-1 #
coedge $-1 $468 $413 $319 $416 reversed $315 $-1 #
edge $-1 $417 -55.730460524307993 $420 55.730460524307993 $415 $470 forward 7 unknown #
vertex $-1 $469 $471 #
straight-curve $-1 55.730460524307993 0 -12.901485203228088 0 -1 0 I I #
coedge $-1 $327 $321 $413 $467 reversed $328 $-1 #
vertex $-1 $322 $472 #
straight-curve $-1 -55.730460524307993 0 -12.901485203228088 0 1 0 I I #
point $-1 -55.730460524307993 -33.095052738004533 -12.901485203228088 #
point $-1 55.730460524307993 -33.095052738004533 -12.901485203228088 #
coedge $-1 $413 $468 $330 $425 reversed $315 $-1 #
edge $-1 $426 -55.730460524307993 $428 55.730460524307993 $424 $473 forward 7 unknown #
vertex $-1 $331 $474 #
straight-curve $-1 -55.730460524307993 -39.050627462752104 -9.2240874707194749 0 -1 0 I I #
vertex $-1 $332 $475 #
straight-curve $-1 55.730460524307993 -39.050627462752104 -9.2240874707194749 0 1 0 I I #
coedge $-1 $346 $345 $338 $431 forward $335 $-1 #
edge $-1 $432 48.925048238357817 $435 54.391127548137298 $430 $476 forward 7 unknown #
vertex $-1 $350 $477 #
straight-curve $-1 -10.081390078653662 45.262166615785702 12.901485203228091 0 1 0 I I #
edge $-1 $435 1.694052566345853 $347 15.080622458269765 $346 $478 forward 7 unknown #
vertex $-1 $434 $479 #
straight-curve $-1 -10.081390078653662 -2.9546616201606639 62.947099775187624 0 -0.54463902268945019 0.83867057594974714 I I #
point $-1 -10.081390078653662 29.545339443425192 12.901485203228091 #
point $-1 -23.467959970577574 33.095052738004533 7.4354058934486034 #
straight-curve $-1 0 33.095052738004533 12.901485203228088 -1 0 0 I I #
vertex $-1 $353 $480 #
point $-1 -20.290645992192793 30.481525514765117 9.6238065256488952 #
vertex $-1 $357 $481 #
point $-1 -16.274675024615618 30.481525514765117 9.6238065256488952 #
vertex $-1 $361 $482 #
point $-1 -12.258704057038443 30.481525514765117 9.6238065256488952 #
coedge $-1 $376 $375 $368 $447 forward $365 $-1 #
edge $-1 $448 48.925048238357817 $451 54.391127548137298 $446 $483 forward 7 unknown #
vertex $-1 $380 $484 #
straight-curve $-1 23.467959970577581 45.262166615785702 12.901485203228091 0 1 0 I I #
edge $-1 $451 -15.080622458269769 $377 -1.6940525663458565 $376 $485 forward 7 unknown #
vertex $-1 $450 $486 #
straight-curve $-1 23.467959970577581 -2.9546616201606639 62.947099775187624 0 -0.54463902268945019 0.83867057594974714 I I #
point $-1 23.467959970577581 29.545339443425192 12.901485203228091 #
point $-1 10.081390078653669 33.095052738004533 7.4354058934486034 #
straight-curve $-1 0 33.095052738004533 12.901485203228088 -1 0 0 I I #
vertex $-1 $383 $487 #
point $-1 13.25870405703845 30.481525514765117 9.6238065256488952 #
vertex $-1 $387 $488 #
point $-1 17.274675024615625 30.481525514765117 9.6238065256488952 #
vertex $-1 $391 $489 #
point $-1 21.2906459921928 30.481525514765117 9.6238065256488952 #
straight-curve $-1 -55.730460524307993 33.095052738004533 0 0 0 -1 I I #
straight-curve $-1 -55.730460524307993 0 -12.901485203228088 0 1 0 I I #
point $-1 -55.730460524307993 -33.095052738004533 -12.901485203228088 #
point $-1 -55.730460524307993 33.095052738004533 -12.901485203228088 #
straight-curve $-1 -55.730460524307993 -33.095052738004533 0 0 0 -1 I I #
edge $-1 $426 -1.8386988662543065 $420 1.8386988662543065 $419 $490 forward 7 unknown #
coedge $-1 $424 $415 $414 $469 reversed $315 $-1 #
edge $-1 $428 -1.8386988662543065 $417 1.8386988662543065 $414 $491 forward 7 unknown #
straight-curve $-1 0 -45.006202187499674 -12.901485203228088 -1 0 0 I I #
point $-1 55.730460524307993 -45.006202187499674 -12.901485203228088 #
point $-1 -55.730460524307993 -45.006202187499674 -12.901485203228088 #
straight-curve $-1 0 -45.006202187499674 -9.2240874707194749 1 0 0 I I #
point $-1 -55.730460524307993 -45.006202187499674 -9.2240874707194749 #
point $-1 55.730460524307993 -45.006202187499674 -9.2240874707194749 #
straight-curve $-1 -10.081390078653662 33.095052738004533 61.826533441585902 0 0 -1 I I #
point $-1 -10.081390078653662 33.095052738004533 12.901485203228088 #
straight-curve $-1 -8.3873375123078091 33.095052738004533 7.4354058934485963 -1 0 0 I I #
point $-1 -10.081390078653662 33.095052738004533 7.4354058934486034 #
point $-1 -20.790645992192793 30.062190226790243 9.3514870143041691 #
point $-1 -16.774675024615618 30.062190226790243 9.3514870143041691 #
point $-1 -12.758704057038443 30.062190226790243 9.3514870143041691 #
straight-curve $-1 23.467959970577581 33.095052738004533 61.826533441585902 0 0 -1 I I #
point $-1 23.467959970577581 33.095052738004533 12.901485203228088 #
straight-curve $-1 8.3873375123078127 33.095052738004533 7.4354058934485963 -1 0 0 I I #
point $-1 23.467959970577581 33.095052738004533 7.4354058934486034 #
point $-1 12.75870405703845 30.062190226790243 9.3514870143041691 #
point $-1 16.774675024615625 30.062190226790243 9.3514870143041691 #
point $-1 20.7906459921928 30.062190226790243 9.3514870143041691 #
straight-curve $-1 -55.730460524307993 -45.006202187499674 -11.062786336973781 0 0 -1 I I #
straight-curve $-1 55.730460524307993 -45.006202187499674 -11.062786336973781 0 0 -1 I I #
End-of-ACIS-data 