500 0 5 0           
7 Unknown 11 ACIS 5.0 NT 24 Fri Mar 26 17:57:33 1999 
-1 9.9999999999999995e-007 1e-010 
body $-1 $5 $-1 $6 #
body $-1 $7 $-1 $8 #
body $-1 $9 $-1 $10 #
body $-1 $11 $-1 $12 #
body $-1 $13 $-1 $14 #
lump $-1 $-1 $15 $0 #
transform $-1 1 0 0 0 1 0 0 0 1 73.461714529862363 34.757275695039588 14.301430389061288 1 rotate no_reflect no_shear #
lump $-1 $-1 $16 $1 #
transform $-1 1 0 0 0 1 0 0 0 1 73.461714529862363 34.757275695039588 14.301430389061288 1 rotate no_reflect no_shear #
lump $-1 $-1 $17 $2 #
transform $-1 1 0 0 0 1 0 0 0 1 73.461714529862363 34.757275695039588 14.301430389061288 1 rotate no_reflect no_shear #
lump $-1 $-1 $18 $3 #
transform $-1 1 0 0 0 1 0 0 0 1 73.461714529862363 34.757275695039588 14.301430389061288 1 rotate no_reflect no_shear #
lump $-1 $-1 $19 $4 #
transform $-1 1 0 0 0 1 0 0 0 1 73.461714529862363 34.757275695039588 14.301430389061288 1 rotate no_reflect no_shear #
shell $-1 $-1 $-1 $20 $-1 $5 #
shell $-1 $-1 $-1 $21 $-1 $7 #
shell $-1 $-1 $-1 $22 $-1 $9 #
shell $-1 $-1 $-1 $23 $-1 $11 #
shell $-1 $-1 $-1 $24 $-1 $13 #
face $-1 $25 $26 $15 $-1 $27 forward single #
face $-1 $28 $29 $16 $-1 $30 forward single #
face $-1 $31 $32 $17 $-1 $33 forward single #
face $-1 $34 $35 $18 $-1 $36 reversed single #
face $-1 $37 $38 $19 $-1 $39 reversed single #
face $-1 $40 $41 $15 $-1 $42 reversed single #
loop $-1 $-1 $43 $20 #
plane-surface $-1 0 0 14.301430389061288 0 0 1 1 0 0 forward_v I I I I #
face $-1 $44 $45 $16 $-1 $46 reversed single #
loop $-1 $-1 $47 $21 #
plane-surface $-1 0 -43.415858429458574 -8.4126471896444137 0 0 1 1 0 0 forward_v I I I I #
face $-1 $48 $49 $17 $-1 $50 forward single #
loop $-1 $-1 $51 $22 #
plane-surface $-1 -48.948768751286082 89.493619794995652 158.82533414995061 -1 0 0 0 0.70710678939079041 0.70710677298230451 forward_v I I I I #
face $-1 $52 $53 $18 $-1 $54 reversed single #
loop $-1 $55 $56 $23 #
cone-surface $-1 -66.458015735983423 28.430683866992897 7.9748385100963848 0 -0.70710678939079041 -0.70710677298230451 1.5 0 0 1 I I 0 1 1.5 forward I I I I #
face $-1 $57 $58 $19 $-1 $59 reversed single #
loop $-1 $60 $61 $24 #
cone-surface $-1 -55.952467545165021 28.430683866992897 7.9748385100963848 0 -0.70710678939079041 -0.70710677298230451 1.5 0 0 1 I I 0 1 1.5 forward I I I I #
face $-1 $62 $63 $15 $-1 $64 reversed single #
loop $-1 $-1 $65 $25 #
plane-surface $-1 0 0 -14.301430389061288 0 0 1 1 0 0 forward_v I I I I #
coedge $-1 $66 $67 $68 $69 forward $26 $-1 #
face $-1 $70 $71 $16 $-1 $72 forward single #
loop $-1 $-1 $73 $28 #
plane-surface $-1 0 -52.074441163877559 -11.357038789352851 0 1 0 0 0 1 forward_v I I I I #
coedge $-1 $74 $75 $76 $77 forward $29 $-1 #
face $-1 $78 $79 $17 $-1 $80 reversed single #
loop $-1 $-1 $81 $31 #
plane-surface $-1 -61.205241640574222 -14.396934413711861 54.934782352034119 0 0.70710678939079041 0.70710677298230451 1 0 0 forward_v I I I I #
coedge $-1 $82 $83 $84 $85 reversed $32 $-1 #
face $-1 $86 $87 $18 $-1 $88 forward single #
loop $-1 $89 $90 $34 #
cone-surface $-1 -66.458015735983423 25.83419149124299 5.3783461945983504 0 -0.70710678939079041 -0.70710677298230451 0.75 0 0 1 I I -0.70710678118654757 0.70710678118654757 0.75 forward I I I I #
loop $-1 $-1 $91 $23 #
coedge $-1 $56 $56 $92 $93 reversed $35 $-1 #
face $-1 $94 $95 $19 $-1 $96 reversed single #
loop $-1 $97 $98 $37 #
cone-surface $-1 -55.952467545165021 25.83419149124299 5.3783461945983504 0 -0.70710678939079041 -0.70710677298230451 0.75 0 0 1 I I -0.70710678118654757 0.70710678118654757 0.75 forward I I I I #
loop $-1 $-1 $99 $24 #
coedge $-1 $61 $61 $100 $101 reversed $38 $-1 #
face $-1 $102 $103 $15 $-1 $104 reversed single #
loop $-1 $-1 $105 $40 #
plane-surface $-1 0 -34.757275695039588 0 0 1 0 0 0 1 forward_v I I I I #
coedge $-1 $106 $107 $108 $109 forward $41 $-1 #
coedge $-1 $110 $43 $111 $112 forward $26 $-1 #
coedge $-1 $43 $110 $113 $114 forward $26 $-1 #
coedge $-1 $115 $116 $43 $69 reversed $117 $-1 #
edge $-1 $118 -34.757275695039588 $119 34.757275695039588 $68 $120 forward 7 unknown #
face $-1 $121 $122 $16 $-1 $123 reversed single #
loop $-1 $-1 $124 $44 #
plane-surface $-1 0 0 14.301430389061288 0 0 1 1 0 0 forward_v I I I I #
coedge $-1 $125 $126 $127 $128 forward $45 $-1 #
coedge $-1 $129 $47 $130 $131 reversed $29 $-1 #
coedge $-1 $47 $129 $126 $132 forward $29 $-1 #
coedge $-1 $133 $134 $47 $77 reversed $135 $-1 #
edge $-1 $136 -8.6585827344189852 $137 8.6585827344189852 $76 $138 forward 7 unknown #
face $-1 $139 $140 $17 $-1 $141 forward single #
loop $-1 $-1 $142 $48 #
plane-surface $-1 0 34.757275695039588 0 0 -1 0 0 0 -1 forward_v I I I I #
coedge $-1 $143 $144 $142 $145 reversed $49 $-1 #
coedge $-1 $83 $51 $144 $146 forward $32 $-1 #
coedge $-1 $51 $82 $147 $148 reversed $32 $-1 #
coedge $-1 $149 $142 $51 $85 forward $79 $-1 #
edge $-1 $150 -73.632095972321167 $151 -65.111236685914008 $84 $152 forward 7 unknown #
face $-1 $153 $154 $18 $-1 $155 forward single #
loop $-1 $-1 $156 $52 #
plane-surface $-1 -48.948768751286082 89.493619794995652 158.82533414995061 -1 0 0 0 0.70710678939079041 0.70710677298230451 forward_v I I I I #
loop $-1 $-1 $157 $34 #
coedge $-1 $90 $90 $91 $158 forward $53 $-1 #
coedge $-1 $91 $91 $90 $158 reversed $55 $-1 #
coedge $-1 $92 $92 $56 $93 forward $154 $-1 #
edge $-1 $159 8.373824988947154e-016 $159 6.2831853071796013 $92 $160 forward 7 unknown #
face $-1 $161 $162 $19 $-1 $163 reversed single #
loop $-1 $164 $165 $57 #
cone-surface $-1 -66.458015735983423 28.430683866992897 7.9748385100963848 0 -0.70710678939079041 -0.70710677298230451 1.5 0 0 1 I I 0 1 1.5 forward I I I I #
loop $-1 $-1 $166 $37 #
coedge $-1 $98 $98 $99 $167 forward $58 $-1 #
coedge $-1 $99 $99 $98 $167 reversed $60 $-1 #
coedge $-1 $100 $100 $61 $101 forward $168 $-1 #
edge $-1 $169 8.373824988947154e-016 $169 6.2831853071796013 $100 $170 forward 7 unknown #
face $-1 $171 $172 $15 $-1 $173 reversed single #
loop $-1 $-1 $174 $62 #
plane-surface $-1 -73.461714529862363 0 0 1 0 0 0 0 -1 forward_v I I I I #
coedge $-1 $175 $113 $176 $177 forward $63 $-1 #
coedge $-1 $178 $65 $175 $179 forward $41 $-1 #
coedge $-1 $65 $178 $180 $181 forward $41 $-1 #
coedge $-1 $116 $115 $65 $109 reversed $117 $-1 #
edge $-1 $182 -34.757275695039588 $183 34.757275695039588 $108 $184 forward 7 unknown #
coedge $-1 $67 $66 $185 $186 forward $26 $-1 #
coedge $-1 $187 $188 $66 $112 reversed $172 $-1 #
edge $-1 $119 -73.461714529862363 $189 73.461714529862363 $111 $190 forward 7 unknown #
coedge $-1 $105 $191 $67 $114 reversed $63 $-1 #
edge $-1 $192 -73.461714529862363 $118 73.461714529862363 $113 $193 forward 7 unknown #
coedge $-1 $108 $68 $191 $194 forward $117 $-1 #
coedge $-1 $68 $108 $187 $195 reversed $117 $-1 #
loop $-1 $-1 $115 $171 #
vertex $-1 $69 $196 #
vertex $-1 $69 $197 #
straight-curve $-1 73.461714529862363 0 14.301430389061288 0 1 0 I I #
face $-1 $198 $199 $16 $-1 $200 reversed single #
loop $-1 $-1 $201 $70 #
plane-surface $-1 0 0 -14.301430389061288 0 0 1 1 0 0 forward_v I I I I #
coedge $-1 $202 $203 $204 $205 forward $71 $-1 #
coedge $-1 $206 $73 $207 $208 reversed $45 $-1 #
coedge $-1 $73 $206 $75 $132 reversed $45 $-1 #
coedge $-1 $209 $210 $73 $128 reversed $211 $-1 #
edge $-1 $212 -2.9443915997084371 $213 2.9443915997084371 $127 $214 forward 7 unknown #
coedge $-1 $75 $74 $209 $215 forward $29 $-1 #
coedge $-1 $216 $217 $74 $131 forward $199 $-1 #
edge $-1 $218 -73.461714529862363 $137 73.461714529862363 $130 $219 forward 7 unknown #
edge $-1 $212 -73.461714529862363 $136 73.461714529862363 $126 $220 forward 7 unknown #
coedge $-1 $221 $76 $206 $222 forward $135 $-1 #
coedge $-1 $76 $204 $216 $223 forward $135 $-1 #
loop $-1 $-1 $134 $224 #
vertex $-1 $77 $225 #
vertex $-1 $77 $226 #
straight-curve $-1 73.461714529862363 -43.415858429458574 -8.4126471896444137 0 1 0 I I #
face $-1 $227 $228 $17 $-1 $229 forward single #
loop $-1 $-1 $147 $78 #
plane-surface $-1 0 0 14.301430389061288 0 0 1 1 0 0 forward_v I I I I #
coedge $-1 $84 $230 $81 $145 forward $79 $-1 #
coedge $-1 $231 $81 $232 $233 reversed $49 $-1 #
coedge $-1 $81 $231 $82 $146 reversed $49 $-1 #
edge $-1 $234 -42.859093709575248 $150 -18.346147930998971 $142 $235 forward 7 unknown #
edge $-1 $150 -69.514551390079177 $236 -57.464236763983848 $82 $237 forward 7 unknown #
coedge $-1 $238 $239 $83 $148 forward $140 $-1 #
edge $-1 $151 9.9895342024582376 $236 18.510393291137973 $147 $240 forward 7 unknown #
coedge $-1 $241 $84 $239 $242 reversed $79 $-1 #
vertex $-1 $145 $243 #
vertex $-1 $148 $244 #
straight-curve $-1 -48.948768751286082 34.757275695039588 79.412667074975303 0 0 1 I I #
face $-1 $245 $246 $18 $-1 $247 reversed single #
loop $-1 $248 $92 $86 #
plane-surface $-1 -61.205241640574222 -14.396934413711861 54.934782352034119 0 0.70710678939079041 0.70710677298230451 1 0 0 forward_v I I I I #
coedge $-1 $249 $250 $251 $252 reversed $87 $-1 #
coedge $-1 $157 $157 $-1 $253 forward $89 $-1 #
edge $-1 $254 0 $254 6.2831853071796004 $90 $255 forward 7 unknown #
vertex $-1 $93 $256 #
ellipse-curve $-1 -66.458015735983423 30.496846150699728 10.041000745857705 0 -0.70710678939079041 -0.70710677298230451 1.5 0 0 1 I I #
face $-1 $257 $258 $19 $-1 $259 forward single #
loop $-1 $260 $261 $94 #
cone-surface $-1 -66.458015735983423 25.83419149124299 5.3783461945983504 0 -0.70710678939079041 -0.70710677298230451 0.75 0 0 1 I I -0.70710678118654757 0.70710678118654757 0.75 forward I I I I #
loop $-1 $-1 $262 $57 #
coedge $-1 $165 $165 $263 $264 reversed $95 $-1 #
coedge $-1 $166 $166 $-1 $265 forward $97 $-1 #
edge $-1 $266 0 $266 6.2831853071796004 $98 $267 forward 7 unknown #
loop $-1 $268 $100 $257 #
vertex $-1 $101 $269 #
ellipse-curve $-1 -55.952467545165021 30.496846150699728 10.041000745857705 0 -0.70710678939079041 -0.70710677298230451 1.5 0 0 1 I I #
face $-1 $-1 $117 $15 $-1 $270 reversed single #
loop $-1 $-1 $187 $102 #
plane-surface $-1 0 34.757275695039588 0 0 -1 0 0 0 -1 forward_v I I I I #
coedge $-1 $271 $185 $188 $272 forward $103 $-1 #
coedge $-1 $191 $105 $106 $179 reversed $63 $-1 #
coedge $-1 $185 $271 $105 $177 reversed $103 $-1 #
edge $-1 $192 -14.301430389061288 $273 14.301430389061288 $176 $274 forward 7 unknown #
coedge $-1 $107 $106 $271 $275 forward $41 $-1 #
edge $-1 $183 -73.461714529862363 $273 73.461714529862363 $175 $276 forward 7 unknown #
coedge $-1 $188 $187 $107 $181 reversed $172 $-1 #
edge $-1 $277 -73.461714529862363 $182 73.461714529862363 $180 $278 forward 7 unknown #
vertex $-1 $109 $279 #
vertex $-1 $194 $280 #
straight-curve $-1 73.461714529862363 0 -14.301430389061288 0 -1 0 I I #
coedge $-1 $174 $176 $110 $186 reversed $103 $-1 #
edge $-1 $189 -34.757275695039588 $192 34.757275695039588 $185 $281 forward 7 unknown #
coedge $-1 $180 $111 $116 $195 forward $172 $-1 #
coedge $-1 $111 $180 $174 $272 reversed $172 $-1 #
vertex $-1 $112 $282 #
straight-curve $-1 0 34.757275695039588 14.301430389061288 -1 0 0 I I #
coedge $-1 $113 $175 $115 $194 reversed $63 $-1 #
vertex $-1 $186 $283 #
straight-curve $-1 0 -34.757275695039588 14.301430389061288 1 0 0 I I #
edge $-1 $118 -14.301430389061288 $183 14.301430389061288 $115 $284 forward 7 unknown #
edge $-1 $119 -14.301430389061288 $182 14.301430389061288 $116 $285 forward 7 unknown #
point $-1 73.461714529862363 -34.757275695039588 14.301430389061288 #
point $-1 73.461714529862363 34.757275695039588 14.301430389061288 #
face $-1 $286 $211 $16 $-1 $287 reversed single #
loop $-1 $-1 $130 $121 #
plane-surface $-1 0 -34.757275695039588 0 0 1 0 0 0 1 forward_v I I I I #
coedge $-1 $207 $288 $221 $289 forward $122 $-1 #
coedge $-1 $290 $124 $291 $292 forward $71 $-1 #
coedge $-1 $124 $290 $293 $294 forward $71 $-1 #
coedge $-1 $134 $295 $124 $205 reversed $135 $-1 #
edge $-1 $296 -34.757275695039588 $297 34.757275695039588 $204 $298 forward 7 unknown #
coedge $-1 $126 $125 $133 $222 reversed $45 $-1 #
coedge $-1 $299 $201 $125 $208 forward $122 $-1 #
edge $-1 $300 -73.461714529862363 $213 73.461714529862363 $125 $301 forward 7 unknown #
coedge $-1 $302 $127 $129 $215 reversed $211 $-1 #
coedge $-1 $127 $303 $299 $304 reversed $211 $-1 #
loop $-1 $-1 $303 $198 #
vertex $-1 $215 $305 #
vertex $-1 $304 $306 #
straight-curve $-1 -73.461714529862363 -52.074441163877559 -11.357038789352851 0 0 -1 I I #
edge $-1 $218 -8.6585827344189852 $212 8.6585827344189852 $209 $307 forward 7 unknown #
coedge $-1 $293 $130 $134 $223 reversed $199 $-1 #
coedge $-1 $130 $293 $302 $308 forward $199 $-1 #
vertex $-1 $308 $309 #
straight-curve $-1 0 -34.757275695039588 -8.4126471896444137 1 0 0 I I #
straight-curve $-1 0 -52.074441163877559 -8.4126471896444137 1 0 0 I I #
coedge $-1 $295 $133 $201 $289 reversed $135 $-1 #
edge $-1 $136 -2.9443915997084371 $300 2.9443915997084371 $133 $310 forward 7 unknown #
edge $-1 $296 -14.301430389061288 $137 8.4126471896444137 $134 $311 forward 7 unknown #
face $-1 $-1 $135 $16 $-1 $312 reversed single #
point $-1 73.461714529862363 -52.074441163877559 -8.4126471896444137 #
point $-1 73.461714529862363 -34.757275695039588 -8.4126471896444137 #
face $-1 $313 $314 $17 $-1 $315 reversed single #
loop $-1 $-1 $316 $139 #
plane-surface $-1 0 -43.415858429458574 -8.4126471896444137 0 0 1 1 0 0 forward_v I I I I #
coedge $-1 $142 $317 $318 $319 reversed $79 $-1 #
coedge $-1 $144 $143 $238 $320 reversed $49 $-1 #
coedge $-1 $318 $321 $143 $233 forward $322 $-1 #
edge $-1 $323 32.951773059510643 $234 45.002087685605986 $232 $324 forward 7 unknown #
vertex $-1 $319 $325 #
straight-curve $-1 -30.602620820287111 34.757275695039588 5.780571102654136 1 0 0 I I #
vertex $-1 $320 $326 #
straight-curve $-1 -48.948768751286082 -14.396934413711861 54.934782352034119 0 -0.70710677298230451 0.70710678939079041 I I #
coedge $-1 $327 $147 $231 $320 forward $140 $-1 #
coedge $-1 $147 $328 $149 $242 forward $140 $-1 #
straight-curve $-1 -48.948768751286082 44.746809897497826 14.301430389061295 0 -1 0 I I #
coedge $-1 $317 $149 $329 $330 forward $79 $-1 #
edge $-1 $331 -73.461714529862363 $151 48.948768751286082 $149 $332 forward 7 unknown #
point $-1 -48.948768751286082 34.757275695039581 5.780571102654136 #
point $-1 -48.948768751286082 34.757275695039588 14.301430389061288 #
face $-1 $333 $334 $18 $-1 $335 forward single #
loop $-1 $-1 $336 $153 #
plane-surface $-1 0 34.757275695039588 0 0 -1 0 0 0 -1 forward_v I I I I #
loop $-1 $-1 $337 $86 #
coedge $-1 $250 $156 $338 $339 forward $87 $-1 #
coedge $-1 $156 $249 $340 $341 reversed $87 $-1 #
coedge $-1 $342 $336 $156 $252 forward $246 $-1 #
edge $-1 $343 -73.632095972321167 $344 -65.111236685914008 $251 $345 forward 7 unknown #
edge $-1 $346 1 $346 0 $157 $-1 forward 7 unknown #
vertex $-1 $158 $347 #
ellipse-curve $-1 -66.458015735983423 26.364521583286084 5.9086762743350789 0 0.70710678939079041 0.70710677298230451 1.5 0 0 1 I I #
point $-1 -64.958015735983423 30.496846150699714 10.041000745857692 #
face $-1 $348 $168 $19 $-1 $349 forward single #
loop $-1 $-1 $350 $161 #
plane-surface $-1 -48.948768751286082 89.493619794995652 158.82533414995061 -1 0 0 0 0.70710678939079041 0.70710677298230451 forward_v I I I I #
loop $-1 $-1 $351 $94 #
coedge $-1 $261 $261 $262 $352 forward $162 $-1 #
coedge $-1 $262 $262 $261 $352 reversed $164 $-1 #
coedge $-1 $263 $263 $165 $264 forward $268 $-1 #
edge $-1 $353 8.373824988947154e-016 $353 6.2831853071796013 $263 $354 forward 7 unknown #
edge $-1 $355 1 $355 0 $166 $-1 forward 7 unknown #
vertex $-1 $167 $356 #
ellipse-curve $-1 -55.952467545165021 26.364521583286084 5.9086762743350789 0 0.70710678939079041 0.70710677298230451 1.5 0 0 1 I I #
loop $-1 $357 $263 $257 #
point $-1 -54.452467545165021 30.496846150699714 10.041000745857692 #
plane-surface $-1 73.461714529862363 0 0 -1 0 0 0 0 1 forward_v I I I I #
coedge $-1 $176 $174 $178 $275 reversed $103 $-1 #
edge $-1 $189 -14.301430389061288 $277 14.301430389061288 $188 $358 forward 7 unknown #
vertex $-1 $275 $359 #
straight-curve $-1 -73.461714529862363 -34.757275695039588 0 0 0 -1 I I #
edge $-1 $273 -34.757275695039588 $277 34.757275695039588 $271 $360 forward 7 unknown #
straight-curve $-1 0 -34.757275695039588 -14.301430389061288 -1 0 0 I I #
vertex $-1 $181 $361 #
straight-curve $-1 0 34.757275695039588 -14.301430389061288 1 0 0 I I #
point $-1 73.461714529862363 34.757275695039588 -14.301430389061288 #
point $-1 73.461714529862363 -34.757275695039588 -14.301430389061288 #
straight-curve $-1 -73.461714529862363 0 14.301430389061288 0 -1 0 I I #
point $-1 -73.461714529862363 34.757275695039588 14.301430389061288 #
point $-1 -73.461714529862363 -34.757275695039588 14.301430389061288 #
straight-curve $-1 73.461714529862363 -34.757275695039588 0 0 0 -1 I I #
straight-curve $-1 73.461714529862363 34.757275695039588 0 0 0 -1 I I #
face $-1 $224 $362 $16 $-1 $363 reversed single #
plane-surface $-1 -73.461714529862363 0 0 1 0 0 0 0 -1 forward_v I I I I #
coedge $-1 $201 $299 $364 $365 forward $122 $-1 #
edge $-1 $366 -34.757275695039588 $300 52.074441163877559 $221 $367 forward 7 unknown #
coedge $-1 $203 $202 $368 $369 forward $71 $-1 #
coedge $-1 $370 $371 $202 $292 reversed $362 $-1 #
edge $-1 $297 -73.461714529862363 $372 73.461714529862363 $291 $373 forward 7 unknown #
coedge $-1 $217 $216 $203 $294 reversed $199 $-1 #
edge $-1 $374 -73.461714529862363 $296 73.461714529862363 $293 $375 forward 7 unknown #
coedge $-1 $204 $221 $370 $376 reversed $135 $-1 #
vertex $-1 $205 $377 #
vertex $-1 $205 $378 #
straight-curve $-1 73.461714529862363 0 14.301430389061288 0 1 0 I I #
coedge $-1 $288 $207 $210 $304 forward $122 $-1 #
vertex $-1 $222 $379 #
straight-curve $-1 0 -52.074441163877559 -14.301430389061288 -1 0 0 I I #
coedge $-1 $368 $209 $217 $308 reversed $211 $-1 #
coedge $-1 $210 $368 $371 $380 forward $211 $-1 #
edge $-1 $213 -52.074441163877559 $381 34.757275695039588 $210 $382 forward 7 unknown #
point $-1 -73.461714529862363 -52.074441163877559 -8.4126471896444137 #
point $-1 -73.461714529862363 -52.074441163877559 -14.301430389061288 #
straight-curve $-1 -73.461714529862363 -43.415858429458574 -8.4126471896444137 0 -1 0 I I #
edge $-1 $374 -14.301430389061288 $218 8.4126471896444137 $302 $383 forward 7 unknown #
point $-1 -73.461714529862363 -34.757275695039588 -8.4126471896444137 #
straight-curve $-1 73.461714529862363 -52.074441163877559 -11.357038789352851 0 0 -1 I I #
straight-curve $-1 73.461714529862363 -34.757275695039588 0 0 0 -1 I I #
plane-surface $-1 73.461714529862363 0 0 -1 0 0 0 0 1 forward_v I I I I #
face $-1 $384 $385 $17 $-1 $386 reversed single #
loop $-1 $-1 $387 $227 #
plane-surface $-1 0 -52.074441163877559 -11.357038789352851 0 1 0 0 0 1 forward_v I I I I #
coedge $-1 $388 $389 $390 $391 forward $228 $-1 #
coedge $-1 $230 $241 $392 $393 reversed $79 $-1 #
coedge $-1 $394 $232 $230 $319 forward $322 $-1 #
edge $-1 $234 -5.7805711026541351 $395 14.301430389061288 $230 $396 forward 7 unknown #
edge $-1 $236 18.346147930998971 $323 42.859093709575248 $238 $397 forward 7 unknown #
coedge $-1 $232 $398 $327 $399 reversed $322 $-1 #
loop $-1 $-1 $232 $400 #
vertex $-1 $399 $401 #
straight-curve $-1 -73.461714529862363 2.9359946942040427 37.601852841905803 0 0.70710677298230462 -0.70710678939079052 I I #
point $-1 -73.461714529862363 34.757275695039588 5.7805711026541351 #
point $-1 -48.948768751286082 26.236416606359853 14.301430389061288 #
coedge $-1 $402 $238 $321 $399 forward $140 $-1 #
coedge $-1 $239 $402 $403 $404 forward $140 $-1 #
coedge $-1 $403 $405 $241 $330 reversed $406 $-1 #
edge $-1 $331 -14.301430389061288 $407 14.301430389061288 $329 $408 forward 7 unknown #
vertex $-1 $404 $409 #
straight-curve $-1 0 34.757275695039588 14.301430389061288 -1 0 0 I I #
face $-1 $410 $411 $18 $-1 $412 forward single #
loop $-1 $-1 $340 $245 #
plane-surface $-1 0 0 14.301430389061288 0 0 1 1 0 0 forward_v I I I I #
coedge $-1 $251 $413 $337 $414 forward $246 $-1 #
coedge $-1 $415 $338 $336 $414 reversed $248 $-1 #
coedge $-1 $337 $416 $249 $339 reversed $248 $-1 #
edge $-1 $343 -69.514551390079177 $417 -57.464236763983848 $249 $418 forward 7 unknown #
coedge $-1 $419 $420 $250 $341 forward $334 $-1 #
edge $-1 $344 9.9895342024582376 $417 18.510393291137973 $340 $421 forward 7 unknown #
coedge $-1 $422 $251 $420 $423 reversed $246 $-1 #
vertex $-1 $414 $424 #
vertex $-1 $341 $425 #
straight-curve $-1 -48.948768751286082 34.757275695039588 79.412667074975303 0 0 1 I I #
vertex $-1 $253 $426 #
point $-1 -64.958015735983423 26.364521583286084 5.9086762743350789 #
face $-1 $427 $428 $19 $-1 $429 reversed single #
plane-surface $-1 -61.205241640574222 -14.396934413711861 54.934782352034119 0 0.70710678939079041 0.70710677298230451 1 0 0 forward_v I I I I #
coedge $-1 $430 $431 $432 $433 reversed $258 $-1 #
coedge $-1 $351 $351 $-1 $434 forward $260 $-1 #
edge $-1 $435 0 $435 6.2831853071796004 $261 $436 forward 7 unknown #
vertex $-1 $264 $437 #
ellipse-curve $-1 -66.458015735983423 30.496846150699728 10.041000745857705 0 -0.70710678939079041 -0.70710677298230451 1.5 0 0 1 I I #
vertex $-1 $265 $438 #
point $-1 -54.452467545165021 26.364521583286084 5.9086762743350789 #
loop $-1 $-1 $439 $257 #
straight-curve $-1 -73.461714529862363 34.757275695039588 0 0 0 -1 I I #
point $-1 -73.461714529862363 -34.757275695039588 -14.301430389061288 #
straight-curve $-1 -73.461714529862363 0 -14.301430389061288 0 1 0 I I #
point $-1 -73.461714529862363 34.757275695039588 -14.301430389061288 #
loop $-1 $-1 $370 $286 #
plane-surface $-1 0 34.757275695039588 0 0 -1 0 0 0 -1 forward_v I I I I #
coedge $-1 $371 $370 $288 $365 reversed $362 $-1 #
edge $-1 $381 -73.461714529862363 $366 73.461714529862363 $364 $440 forward 7 unknown #
vertex $-1 $289 $441 #
straight-curve $-1 73.461714529862363 0 -14.301430389061288 0 -1 0 I I #
coedge $-1 $303 $302 $290 $369 reversed $211 $-1 #
edge $-1 $372 -34.757275695039588 $374 34.757275695039588 $368 $442 forward 7 unknown #
coedge $-1 $364 $291 $295 $376 forward $362 $-1 #
coedge $-1 $291 $364 $303 $380 reversed $362 $-1 #
vertex $-1 $292 $443 #
straight-curve $-1 0 34.757275695039588 14.301430389061288 -1 0 0 I I #
vertex $-1 $369 $444 #
straight-curve $-1 0 -34.757275695039588 14.301430389061288 1 0 0 I I #
edge $-1 $297 -14.301430389061288 $366 14.301430389061288 $295 $445 forward 7 unknown #
point $-1 73.461714529862363 -34.757275695039588 14.301430389061288 #
point $-1 73.461714529862363 34.757275695039588 14.301430389061288 #
point $-1 73.461714529862363 -52.074441163877559 -14.301430389061288 #
edge $-1 $372 -14.301430389061288 $381 14.301430389061288 $371 $446 forward 7 unknown #
vertex $-1 $365 $447 #
straight-curve $-1 -73.461714529862363 0 -14.301430389061288 0 1 0 I I #
straight-curve $-1 -73.461714529862363 -34.757275695039588 0 0 0 -1 I I #
face $-1 $400 $448 $17 $-1 $449 reversed single #
loop $-1 $-1 $450 $313 #
plane-surface $-1 0 0 -14.301430389061288 0 0 1 1 0 0 forward_v I I I I #
coedge $-1 $451 $452 $453 $454 forward $314 $-1 #
coedge $-1 $455 $316 $456 $457 reversed $228 $-1 #
coedge $-1 $316 $455 $452 $458 forward $228 $-1 #
coedge $-1 $459 $460 $316 $391 reversed $406 $-1 #
edge $-1 $461 -8.6585827344189852 $462 8.6585827344189852 $390 $463 forward 7 unknown #
coedge $-1 $450 $464 $317 $393 forward $385 $-1 #
edge $-1 $395 -73.461714529862363 $407 73.461714529862363 $317 $465 forward 7 unknown #
coedge $-1 $453 $318 $464 $466 reversed $322 $-1 #
vertex $-1 $393 $467 #
straight-curve $-1 -73.461714529862363 34.757275695039588 0 0 0 -1 I I #
straight-curve $-1 -30.602620820287111 26.23641660635986 14.301430389061284 -1 0 0 I I #
coedge $-1 $321 $468 $469 $470 reversed $322 $-1 #
edge $-1 $323 -26.236416606359853 $471 34.757275695039588 $321 $472 forward 7 unknown #
face $-1 $473 $322 $17 $-1 $474 reversed single #
point $-1 -73.461714529862363 26.236416606359853 14.301430389061288 #
coedge $-1 $328 $327 $475 $476 forward $140 $-1 #
coedge $-1 $460 $329 $328 $404 reversed $406 $-1 #
edge $-1 $477 -34.757275695039588 $331 34.757275695039588 $403 $478 forward 7 unknown #
coedge $-1 $329 $459 $450 $479 reversed $406 $-1 #
loop $-1 $-1 $460 $473 #
vertex $-1 $479 $480 #
straight-curve $-1 73.461714529862363 34.757275695039588 0 0 0 -1 I I #
point $-1 73.461714529862363 34.757275695039588 14.301430389061288 #
face $-1 $481 $482 $18 $-1 $483 reversed single #
loop $-1 $-1 $484 $333 #
plane-surface $-1 0 -43.415858429458574 -8.4126471896444137 0 0 1 1 0 0 forward_v I I I I #
coedge $-1 $336 $485 $486 $487 reversed $246 $-1 #
edge $-1 $488 -42.859093709575248 $343 -18.346147930998971 $336 $489 forward 7 unknown #
coedge $-1 $416 $337 $490 $491 reversed $248 $-1 #
coedge $-1 $338 $415 $419 $492 reversed $248 $-1 #
vertex $-1 $492 $493 #
straight-curve $-1 -48.948768751286082 -14.396934413711861 54.934782352034119 0 -0.70710677298230451 0.70710678939079041 I I #
coedge $-1 $494 $340 $416 $492 forward $334 $-1 #
coedge $-1 $340 $495 $342 $423 forward $334 $-1 #
straight-curve $-1 -48.948768751286082 44.746809897497826 14.301430389061295 0 -1 0 I I #
coedge $-1 $485 $342 $496 $497 forward $246 $-1 #
edge $-1 $498 -73.461714529862363 $344 48.948768751286082 $342 $499 forward 7 unknown #
point $-1 -48.948768751286082 34.757275695039581 5.780571102654136 #
point $-1 -48.948768751286082 34.757275695039588 14.301430389061288 #
point $-1 -66.458015735983423 25.303861399199896 4.8480161148616219 #
face $-1 $500 $501 $19 $-1 $502 forward single #
loop $-1 $-1 $503 $348 #
plane-surface $-1 0 34.757275695039588 0 0 -1 0 0 0 -1 forward_v I I I I #
coedge $-1 $431 $350 $504 $505 forward $258 $-1 #
coedge $-1 $350 $430 $506 $507 reversed $258 $-1 #
coedge $-1 $508 $503 $350 $433 forward $428 $-1 #
edge $-1 $509 -73.632095972321167 $510 -65.111236685914008 $432 $511 forward 7 unknown #
edge $-1 $512 1 $512 0 $351 $-1 forward 7 unknown #
vertex $-1 $352 $513 #
ellipse-curve $-1 -66.458015735983423 26.364521583286084 5.9086762743350789 0 0.70710678939079041 0.70710677298230451 1.5 0 0 1 I I #
point $-1 -64.958015735983423 30.496846150699714 10.041000745857692 #
point $-1 -55.952467545165021 25.303861399199896 4.8480161148616219 #
coedge $-1 $514 $504 $503 $515 reversed $357 $-1 #
straight-curve $-1 0 34.757275695039588 -14.301430389061288 1 0 0 I I #
point $-1 73.461714529862363 34.757275695039588 -14.301430389061288 #
straight-curve $-1 -73.461714529862363 0 14.301430389061288 0 -1 0 I I #
point $-1 -73.461714529862363 34.757275695039588 14.301430389061288 #
point $-1 -73.461714529862363 -34.757275695039588 14.301430389061288 #
straight-curve $-1 73.461714529862363 34.757275695039588 0 0 0 -1 I I #
straight-curve $-1 -73.461714529862363 34.757275695039588 0 0 0 -1 I I #
point $-1 -73.461714529862363 34.757275695039588 -14.301430389061288 #
loop $-1 $-1 $456 $384 #
plane-surface $-1 0 -34.757275695039588 0 0 1 0 0 0 1 forward_v I I I I #
coedge $-1 $516 $392 $405 $479 forward $385 $-1 #
coedge $-1 $517 $387 $516 $518 reversed $314 $-1 #
coedge $-1 $387 $517 $389 $458 reversed $314 $-1 #
coedge $-1 $468 $394 $387 $454 reversed $322 $-1 #
edge $-1 $519 -2.9443915997084371 $520 2.9443915997084371 $453 $521 forward 7 unknown #
coedge $-1 $389 $388 $468 $522 forward $228 $-1 #
coedge $-1 $523 $469 $388 $457 forward $448 $-1 #
edge $-1 $524 -73.461714529862363 $462 73.461714529862363 $456 $525 forward 7 unknown #
edge $-1 $519 -73.461714529862363 $461 73.461714529862363 $452 $526 forward 7 unknown #
coedge $-1 $405 $390 $517 $527 forward $406 $-1 #
coedge $-1 $390 $403 $523 $528 forward $406 $-1 #
vertex $-1 $391 $529 #
vertex $-1 $391 $530 #
straight-curve $-1 73.461714529862363 -43.415858429458574 -8.4126471896444137 0 1 0 I I #
coedge $-1 $392 $516 $394 $466 forward $385 $-1 #
straight-curve $-1 0 34.757275695039588 -14.301430389061288 1 0 0 I I #
edge $-1 $520 -52.074441163877559 $395 34.757275695039588 $394 $531 forward 7 unknown #
point $-1 -73.461714529862363 34.757275695039588 -14.301430389061288 #
coedge $-1 $398 $453 $455 $522 reversed $322 $-1 #
coedge $-1 $456 $475 $398 $470 forward $448 $-1 #
edge $-1 $471 -14.301430389061288 $524 8.4126471896444137 $398 $532 forward 7 unknown #
vertex $-1 $399 $533 #
straight-curve $-1 -73.461714529862363 0 14.301430389061288 0 -1 0 I I #
face $-1 $-1 $406 $17 $-1 $534 reversed single #
plane-surface $-1 -73.461714529862363 0 0 1 0 0 0 0 -1 forward_v I I I I #
coedge $-1 $469 $523 $402 $476 reversed $448 $-1 #
edge $-1 $471 -73.461714529862363 $477 73.461714529862363 $475 $535 forward 7 unknown #
vertex $-1 $404 $536 #
straight-curve $-1 73.461714529862363 0 14.301430389061288 0 1 0 I I #
edge $-1 $407 -34.757275695039588 $537 52.074441163877559 $405 $538 forward 7 unknown #
point $-1 73.461714529862363 34.757275695039588 -14.301430389061288 #
face $-1 $539 $540 $18 $-1 $541 reversed single #
loop $-1 $-1 $542 $410 #
plane-surface $-1 0 -52.074441163877559 -11.357038789352851 0 1 0 0 0 1 forward_v I I I I #
coedge $-1 $543 $544 $545 $546 forward $411 $-1 #
coedge $-1 $413 $422 $547 $548 reversed $246 $-1 #
coedge $-1 $549 $490 $413 $487 forward $550 $-1 #
edge $-1 $488 -5.7805711026541351 $551 14.301430389061288 $413 $552 forward 7 unknown #
vertex $-1 $487 $553 #
straight-curve $-1 -30.602620820287111 34.757275695039588 5.780571102654136 1 0 0 I I #
coedge $-1 $486 $554 $415 $491 forward $550 $-1 #
edge $-1 $555 32.951773059510643 $488 45.002087685605986 $490 $556 forward 7 unknown #
edge $-1 $417 18.346147930998971 $555 42.859093709575248 $419 $557 forward 7 unknown #
point $-1 -48.948768751286082 26.236416606359853 14.301430389061288 #
coedge $-1 $558 $419 $554 $559 forward $334 $-1 #
coedge $-1 $420 $558 $560 $561 forward $334 $-1 #
coedge $-1 $560 $562 $422 $497 reversed $563 $-1 #
edge $-1 $498 -14.301430389061288 $564 14.301430389061288 $496 $565 forward 7 unknown #
vertex $-1 $561 $566 #
straight-curve $-1 0 34.757275695039588 14.301430389061288 -1 0 0 I I #
face $-1 $567 $568 $19 $-1 $569 forward single #
loop $-1 $-1 $506 $427 #
plane-surface $-1 0 0 14.301430389061288 0 0 1 1 0 0 forward_v I I I I #
coedge $-1 $432 $570 $439 $515 forward $428 $-1 #
coedge $-1 $439 $571 $430 $505 reversed $357 $-1 #
edge $-1 $509 -69.514551390079177 $572 -57.464236763983848 $430 $573 forward 7 unknown #
coedge $-1 $574 $575 $431 $507 forward $501 $-1 #
edge $-1 $510 9.9895342024582376 $572 18.510393291137973 $506 $576 forward 7 unknown #
coedge $-1 $577 $432 $575 $578 reversed $428 $-1 #
vertex $-1 $515 $579 #
vertex $-1 $507 $580 #
straight-curve $-1 -48.948768751286082 34.757275695039588 79.412667074975303 0 0 1 I I #
vertex $-1 $434 $581 #
point $-1 -64.958015735983423 26.364521583286084 5.9086762743350789 #
coedge $-1 $571 $439 $582 $583 reversed $357 $-1 #
edge $-1 $584 -42.859093709575248 $509 -18.346147930998971 $503 $585 forward 7 unknown #
coedge $-1 $464 $450 $451 $518 forward $385 $-1 #
coedge $-1 $452 $451 $459 $527 reversed $314 $-1 #
edge $-1 $537 -73.461714529862363 $520 73.461714529862363 $451 $586 forward 7 unknown #
vertex $-1 $522 $587 #
vertex $-1 $466 $588 #
straight-curve $-1 -73.461714529862363 -52.074441163877559 -11.357038789352851 0 0 -1 I I #
edge $-1 $524 -8.6585827344189852 $519 8.6585827344189852 $468 $589 forward 7 unknown #
coedge $-1 $475 $456 $460 $528 reversed $448 $-1 #
vertex $-1 $470 $590 #
straight-curve $-1 0 -34.757275695039588 -8.4126471896444137 1 0 0 I I #
straight-curve $-1 0 -52.074441163877559 -8.4126471896444137 1 0 0 I I #
edge $-1 $461 -2.9443915997084371 $537 2.9443915997084371 $459 $591 forward 7 unknown #
edge $-1 $477 -14.301430389061288 $462 8.4126471896444137 $460 $592 forward 7 unknown #
point $-1 73.461714529862363 -52.074441163877559 -8.4126471896444137 #
point $-1 73.461714529862363 -34.757275695039588 -8.4126471896444137 #
straight-curve $-1 -73.461714529862363 0 -14.301430389061288 0 1 0 I I #
straight-curve $-1 -73.461714529862363 -34.757275695039588 0 0 0 -1 I I #
point $-1 -73.461714529862363 -34.757275695039588 14.301430389061288 #
plane-surface $-1 73.461714529862363 0 0 -1 0 0 0 0 1 forward_v I I I I #
straight-curve $-1 0 -34.757275695039588 14.301430389061288 1 0 0 I I #
point $-1 73.461714529862363 -34.757275695039588 14.301430389061288 #
vertex $-1 $527 $593 #
straight-curve $-1 73.461714529862363 0 -14.301430389061288 0 -1 0 I I #
face $-1 $594 $595 $18 $-1 $596 reversed single #
loop $-1 $-1 $597 $481 #
plane-surface $-1 0 0 -14.301430389061288 0 0 1 1 0 0 forward_v I I I I #
coedge $-1 $598 $599 $600 $601 forward $482 $-1 #
coedge $-1 $602 $484 $603 $604 reversed $411 $-1 #
coedge $-1 $484 $602 $599 $605 forward $411 $-1 #
coedge $-1 $606 $607 $484 $546 reversed $563 $-1 #
edge $-1 $608 -8.6585827344189852 $609 8.6585827344189852 $545 $610 forward 7 unknown #
coedge $-1 $597 $611 $485 $548 forward $540 $-1 #
edge $-1 $551 -73.461714529862363 $564 73.461714529862363 $485 $612 forward 7 unknown #
coedge $-1 $600 $486 $611 $613 reversed $550 $-1 #
loop $-1 $-1 $490 $594 #
vertex $-1 $548 $614 #
straight-curve $-1 -73.461714529862363 34.757275695039588 0 0 0 -1 I I #
point $-1 -73.461714529862363 34.757275695039588 5.7805711026541351 #
coedge $-1 $490 $615 $494 $559 reversed $550 $-1 #
vertex $-1 $559 $616 #
straight-curve $-1 -73.461714529862363 2.9359946942040427 37.601852841905803 0 0.70710677298230462 -0.70710678939079052 I I #
straight-curve $-1 -30.602620820287111 26.23641660635986 14.301430389061284 -1 0 0 I I #
coedge $-1 $495 $494 $617 $618 forward $334 $-1 #
edge $-1 $555 -26.236416606359853 $619 34.757275695039588 $554 $620 forward 7 unknown #
coedge $-1 $607 $496 $495 $561 reversed $563 $-1 #
edge $-1 $621 -34.757275695039588 $498 34.757275695039588 $560 $622 forward 7 unknown #
coedge $-1 $496 $606 $597 $623 reversed $563 $-1 #
loop $-1 $-1 $607 $624 #
vertex $-1 $623 $625 #
straight-curve $-1 73.461714529862363 34.757275695039588 0 0 0 -1 I I #
point $-1 73.461714529862363 34.757275695039588 14.301430389061288 #
face $-1 $626 $627 $19 $-1 $628 reversed single #
loop $-1 $-1 $629 $500 #
plane-surface $-1 0 -43.415858429458574 -8.4126471896444137 0 0 1 1 0 0 forward_v I I I I #
coedge $-1 $503 $630 $631 $632 reversed $428 $-1 #
coedge $-1 $504 $514 $574 $633 reversed $357 $-1 #
vertex $-1 $633 $634 #
straight-curve $-1 -48.948768751286082 -14.396934413711861 54.934782352034119 0 -0.70710677298230451 0.70710678939079041 I I #
coedge $-1 $635 $506 $571 $633 forward $501 $-1 #
coedge $-1 $506 $636 $508 $578 forward $501 $-1 #
straight-curve $-1 -48.948768751286082 44.746809897497826 14.301430389061295 0 -1 0 I I #
coedge $-1 $630 $508 $637 $638 forward $428 $-1 #
edge $-1 $639 -73.461714529862363 $510 48.948768751286082 $508 $640 forward 7 unknown #
point $-1 -48.948768751286082 34.757275695039581 5.780571102654136 #
point $-1 -48.948768751286082 34.757275695039588 14.301430389061288 #
point $-1 -66.458015735983423 25.303861399199896 4.8480161148616219 #
coedge $-1 $631 $641 $514 $583 forward $642 $-1 #
edge $-1 $643 32.951773059510643 $584 45.002087685605986 $582 $644 forward 7 unknown #
vertex $-1 $632 $645 #
straight-curve $-1 -30.602620820287111 34.757275695039588 5.780571102654136 1 0 0 I I #
straight-curve $-1 0 -52.074441163877559 -14.301430389061288 -1 0 0 I I #
point $-1 -73.461714529862363 -52.074441163877559 -8.4126471896444137 #
point $-1 -73.461714529862363 -52.074441163877559 -14.301430389061288 #
straight-curve $-1 -73.461714529862363 -43.415858429458574 -8.4126471896444137 0 -1 0 I I #
point $-1 -73.461714529862363 -34.757275695039588 -8.4126471896444137 #
straight-curve $-1 73.461714529862363 -52.074441163877559 -11.357038789352851 0 0 -1 I I #
straight-curve $-1 73.461714529862363 -34.757275695039588 0 0 0 -1 I I #
point $-1 73.461714529862363 -52.074441163877559 -14.301430389061288 #
face $-1 $624 $550 $18 $-1 $646 reversed single #
loop $-1 $-1 $603 $539 #
plane-surface $-1 0 -34.757275695039588 0 0 1 0 0 0 1 forward_v I I I I #
coedge $-1 $647 $547 $562 $623 forward $540 $-1 #
coedge $-1 $648 $542 $647 $649 reversed $482 $-1 #
coedge $-1 $542 $648 $544 $605 reversed $482 $-1 #
coedge $-1 $650 $549 $542 $601 reversed $550 $-1 #
edge $-1 $651 -2.9443915997084371 $652 2.9443915997084371 $600 $653 forward 7 unknown #
coedge $-1 $544 $543 $650 $654 forward $411 $-1 #
coedge $-1 $655 $656 $543 $604 forward $595 $-1 #
edge $-1 $657 -73.461714529862363 $609 73.461714529862363 $603 $658 forward 7 unknown #
edge $-1 $651 -73.461714529862363 $608 73.461714529862363 $599 $659 forward 7 unknown #
coedge $-1 $562 $545 $648 $660 forward $563 $-1 #
coedge $-1 $545 $560 $655 $661 forward $563 $-1 #
vertex $-1 $546 $662 #
vertex $-1 $546 $663 #
straight-curve $-1 73.461714529862363 -43.415858429458574 -8.4126471896444137 0 1 0 I I #
coedge $-1 $547 $647 $549 $613 forward $540 $-1 #
straight-curve $-1 0 34.757275695039588 -14.301430389061288 1 0 0 I I #
edge $-1 $652 -52.074441163877559 $551 34.757275695039588 $549 $664 forward 7 unknown #
point $-1 -73.461714529862363 34.757275695039588 -14.301430389061288 #
coedge $-1 $554 $650 $656 $665 reversed $550 $-1 #
point $-1 -73.461714529862363 26.236416606359853 14.301430389061288 #
coedge $-1 $656 $655 $558 $618 reversed $595 $-1 #
edge $-1 $619 -73.461714529862363 $621 73.461714529862363 $617 $666 forward 7 unknown #
vertex $-1 $559 $667 #
straight-curve $-1 -73.461714529862363 0 14.301430389061288 0 -1 0 I I #
vertex $-1 $561 $668 #
straight-curve $-1 73.461714529862363 0 14.301430389061288 0 1 0 I I #
edge $-1 $564 -34.757275695039588 $669 52.074441163877559 $562 $670 forward 7 unknown #
face $-1 $-1 $563 $18 $-1 $671 reversed single #
point $-1 73.461714529862363 34.757275695039588 -14.301430389061288 #
face $-1 $672 $673 $19 $-1 $674 reversed single #
loop $-1 $-1 $675 $567 #
plane-surface $-1 0 -52.074441163877559 -11.357038789352851 0 1 0 0 0 1 forward_v I I I I #
coedge $-1 $676 $677 $678 $679 forward $568 $-1 #
coedge $-1 $570 $577 $680 $681 reversed $428 $-1 #
coedge $-1 $682 $582 $570 $632 forward $642 $-1 #
edge $-1 $584 -5.7805711026541351 $683 14.301430389061288 $570 $684 forward 7 unknown #
edge $-1 $572 18.346147930998971 $643 42.859093709575248 $574 $685 forward 7 unknown #
point $-1 -48.948768751286082 26.236416606359853 14.301430389061288 #
coedge $-1 $686 $574 $641 $687 forward $501 $-1 #
coedge $-1 $575 $686 $688 $689 forward $501 $-1 #
coedge $-1 $688 $690 $577 $638 reversed $691 $-1 #
edge $-1 $639 -14.301430389061288 $692 14.301430389061288 $637 $693 forward 7 unknown #
vertex $-1 $689 $694 #
straight-curve $-1 0 34.757275695039588 14.301430389061288 -1 0 0 I I #
coedge $-1 $582 $695 $635 $687 reversed $642 $-1 #
loop $-1 $-1 $582 $696 #
vertex $-1 $687 $697 #
straight-curve $-1 -73.461714529862363 2.9359946942040427 37.601852841905803 0 0.70710677298230462 -0.70710678939079052 I I #
point $-1 -73.461714529862363 34.757275695039588 5.7805711026541351 #
plane-surface $-1 -73.461714529862363 0 0 1 0 0 0 0 -1 forward_v I I I I #
coedge $-1 $611 $597 $598 $649 forward $540 $-1 #
coedge $-1 $599 $598 $606 $660 reversed $482 $-1 #
edge $-1 $669 -73.461714529862363 $652 73.461714529862363 $598 $698 forward 7 unknown #
coedge $-1 $615 $600 $602 $654 reversed $550 $-1 #
vertex $-1 $654 $699 #
vertex $-1 $613 $700 #
straight-curve $-1 -73.461714529862363 -52.074441163877559 -11.357038789352851 0 0 -1 I I #
edge $-1 $657 -8.6585827344189852 $651 8.6585827344189852 $650 $701 forward 7 unknown #
coedge $-1 $617 $603 $607 $661 reversed $595 $-1 #
coedge $-1 $603 $617 $615 $665 forward $595 $-1 #
vertex $-1 $665 $702 #
straight-curve $-1 0 -34.757275695039588 -8.4126471896444137 1 0 0 I I #
straight-curve $-1 0 -52.074441163877559 -8.4126471896444137 1 0 0 I I #
edge $-1 $608 -2.9443915997084371 $669 2.9443915997084371 $606 $703 forward 7 unknown #
edge $-1 $621 -14.301430389061288 $609 8.4126471896444137 $607 $704 forward 7 unknown #
point $-1 73.461714529862363 -52.074441163877559 -8.4126471896444137 #
point $-1 73.461714529862363 -34.757275695039588 -8.4126471896444137 #
straight-curve $-1 -73.461714529862363 0 -14.301430389061288 0 1 0 I I #
edge $-1 $619 -14.301430389061288 $657 8.4126471896444137 $615 $705 forward 7 unknown #
straight-curve $-1 0 -34.757275695039588 14.301430389061288 1 0 0 I I #
point $-1 -73.461714529862363 -34.757275695039588 14.301430389061288 #
point $-1 73.461714529862363 -34.757275695039588 14.301430389061288 #
vertex $-1 $660 $706 #
straight-curve $-1 73.461714529862363 0 -14.301430389061288 0 -1 0 I I #
plane-surface $-1 73.461714529862363 0 0 -1 0 0 0 0 1 forward_v I I I I #
face $-1 $696 $707 $19 $-1 $708 reversed single #
loop $-1 $-1 $709 $626 #
plane-surface $-1 0 0 -14.301430389061288 0 0 1 1 0 0 forward_v I I I I #
coedge $-1 $710 $711 $712 $713 forward $627 $-1 #
coedge $-1 $714 $629 $715 $716 reversed $568 $-1 #
coedge $-1 $629 $714 $711 $717 forward $568 $-1 #
coedge $-1 $718 $719 $629 $679 reversed $691 $-1 #
edge $-1 $720 -8.6585827344189852 $721 8.6585827344189852 $678 $722 forward 7 unknown #
coedge $-1 $709 $723 $630 $681 forward $673 $-1 #
edge $-1 $683 -73.461714529862363 $692 73.461714529862363 $630 $724 forward 7 unknown #
coedge $-1 $712 $631 $723 $725 reversed $642 $-1 #
vertex $-1 $681 $726 #
straight-curve $-1 -73.461714529862363 34.757275695039588 0 0 0 -1 I I #
straight-curve $-1 -30.602620820287111 26.23641660635986 14.301430389061284 -1 0 0 I I #
coedge $-1 $636 $635 $727 $728 forward $501 $-1 #
edge $-1 $643 -26.236416606359853 $729 34.757275695039588 $641 $730 forward 7 unknown #
coedge $-1 $719 $637 $636 $689 reversed $691 $-1 #
edge $-1 $731 -34.757275695039588 $639 34.757275695039588 $688 $732 forward 7 unknown #
coedge $-1 $637 $718 $709 $733 reversed $691 $-1 #
loop $-1 $-1 $719 $734 #
vertex $-1 $733 $735 #
straight-curve $-1 73.461714529862363 34.757275695039588 0 0 0 -1 I I #
point $-1 73.461714529862363 34.757275695039588 14.301430389061288 #
coedge $-1 $641 $736 $737 $738 reversed $642 $-1 #
face $-1 $734 $642 $19 $-1 $739 reversed single #
point $-1 -73.461714529862363 26.236416606359853 14.301430389061288 #
straight-curve $-1 0 -52.074441163877559 -14.301430389061288 -1 0 0 I I #
point $-1 -73.461714529862363 -52.074441163877559 -8.4126471896444137 #
point $-1 -73.461714529862363 -52.074441163877559 -14.301430389061288 #
straight-curve $-1 -73.461714529862363 -43.415858429458574 -8.4126471896444137 0 -1 0 I I #
point $-1 -73.461714529862363 -34.757275695039588 -8.4126471896444137 #
straight-curve $-1 73.461714529862363 -52.074441163877559 -11.357038789352851 0 0 -1 I I #
straight-curve $-1 73.461714529862363 -34.757275695039588 0 0 0 -1 I I #
straight-curve $-1 -73.461714529862363 -34.757275695039588 0 0 0 -1 I I #
point $-1 73.461714529862363 -52.074441163877559 -14.301430389061288 #
loop $-1 $-1 $715 $672 #
plane-surface $-1 0 -34.757275695039588 0 0 1 0 0 0 1 forward_v I I I I #
coedge $-1 $740 $680 $690 $733 forward $673 $-1 #
coedge $-1 $741 $675 $740 $742 reversed $627 $-1 #
coedge $-1 $675 $741 $677 $717 reversed $627 $-1 #
coedge $-1 $736 $682 $675 $713 reversed $642 $-1 #
edge $-1 $743 -2.9443915997084371 $744 2.9443915997084371 $712 $745 forward 7 unknown #
coedge $-1 $677 $676 $736 $746 forward $568 $-1 #
coedge $-1 $747 $737 $676 $716 forward $707 $-1 #
edge $-1 $748 -73.461714529862363 $721 73.461714529862363 $715 $749 forward 7 unknown #
edge $-1 $743 -73.461714529862363 $720 73.461714529862363 $711 $750 forward 7 unknown #
coedge $-1 $690 $678 $741 $751 forward $691 $-1 #
coedge $-1 $678 $688 $747 $752 forward $691 $-1 #
vertex $-1 $679 $753 #
vertex $-1 $679 $754 #
straight-curve $-1 73.461714529862363 -43.415858429458574 -8.4126471896444137 0 1 0 I I #
coedge $-1 $680 $740 $682 $725 forward $673 $-1 #
straight-curve $-1 0 34.757275695039588 -14.301430389061288 1 0 0 I I #
edge $-1 $744 -52.074441163877559 $683 34.757275695039588 $682 $755 forward 7 unknown #
point $-1 -73.461714529862363 34.757275695039588 -14.301430389061288 #
coedge $-1 $737 $747 $686 $728 reversed $707 $-1 #
edge $-1 $729 -73.461714529862363 $731 73.461714529862363 $727 $756 forward 7 unknown #
vertex $-1 $687 $757 #
straight-curve $-1 -73.461714529862363 0 14.301430389061288 0 -1 0 I I #
vertex $-1 $689 $758 #
straight-curve $-1 73.461714529862363 0 14.301430389061288 0 1 0 I I #
edge $-1 $692 -34.757275695039588 $759 52.074441163877559 $690 $760 forward 7 unknown #
face $-1 $-1 $691 $19 $-1 $761 reversed single #
point $-1 73.461714529862363 34.757275695039588 -14.301430389061288 #
coedge $-1 $695 $712 $714 $746 reversed $642 $-1 #
coedge $-1 $715 $727 $695 $738 forward $707 $-1 #
edge $-1 $729 -14.301430389061288 $748 8.4126471896444137 $695 $762 forward 7 unknown #
plane-surface $-1 -73.461714529862363 0 0 1 0 0 0 0 -1 forward_v I I I I #
coedge $-1 $723 $709 $710 $742 forward $673 $-1 #
coedge $-1 $711 $710 $718 $751 reversed $627 $-1 #
edge $-1 $759 -73.461714529862363 $744 73.461714529862363 $710 $763 forward 7 unknown #
vertex $-1 $746 $764 #
vertex $-1 $725 $765 #
straight-curve $-1 -73.461714529862363 -52.074441163877559 -11.357038789352851 0 0 -1 I I #
edge $-1 $748 -8.6585827344189852 $743 8.6585827344189852 $736 $766 forward 7 unknown #
coedge $-1 $727 $715 $719 $752 reversed $707 $-1 #
vertex $-1 $738 $767 #
straight-curve $-1 0 -34.757275695039588 -8.4126471896444137 1 0 0 I I #
straight-curve $-1 0 -52.074441163877559 -8.4126471896444137 1 0 0 I I #
edge $-1 $720 -2.9443915997084371 $759 2.9443915997084371 $718 $768 forward 7 unknown #
edge $-1 $731 -14.301430389061288 $721 8.4126471896444137 $719 $769 forward 7 unknown #
point $-1 73.461714529862363 -52.074441163877559 -8.4126471896444137 #
point $-1 73.461714529862363 -34.757275695039588 -8.4126471896444137 #
straight-curve $-1 -73.461714529862363 0 -14.301430389061288 0 1 0 I I #
straight-curve $-1 0 -34.757275695039588 14.301430389061288 1 0 0 I I #
point $-1 -73.461714529862363 -34.757275695039588 14.301430389061288 #
point $-1 73.461714529862363 -34.757275695039588 14.301430389061288 #
vertex $-1 $751 $770 #
straight-curve $-1 73.461714529862363 0 -14.301430389061288 0 -1 0 I I #
plane-surface $-1 73.461714529862363 0 0 -1 0 0 0 0 1 forward_v I I I I #
straight-curve $-1 -73.461714529862363 -34.757275695039588 0 0 0 -1 I I #
straight-curve $-1 0 -52.074441163877559 -14.301430389061288 -1 0 0 I I #
point $-1 -73.461714529862363 -52.074441163877559 -8.4126471896444137 #
point $-1 -73.461714529862363 -52.074441163877559 -14.301430389061288 #
straight-curve $-1 -73.461714529862363 -43.415858429458574 -8.4126471896444137 0 -1 0 I I #
point $-1 -73.461714529862363 -34.757275695039588 -8.4126471896444137 #
straight-curve $-1 73.461714529862363 -52.074441163877559 -11.357038789352851 0 0 -1 I I #
straight-curve $-1 73.461714529862363 -34.757275695039588 0 0 0 -1 I I #
point $-1 73.461714529862363 -52.074441163877559 -14.301430389061288 #
End-of-ACIS-data 