500 0 13 0           
7 Unknown 11 ACIS 5.0 NT 24 Thu Mar 25 15:52:12 1999 
-1 9.9999999999999995e-007 1e-010 
body $-1 $13 $-1 $14 #
body $-1 $15 $-1 $16 #
body $-1 $17 $-1 $18 #
body $-1 $19 $-1 $20 #
body $-1 $21 $-1 $22 #
body $-1 $23 $-1 $24 #
body $-1 $25 $-1 $26 #
body $-1 $27 $-1 $28 #
body $-1 $29 $-1 $30 #
body $-1 $31 $-1 $32 #
body $-1 $33 $-1 $34 #
body $-1 $35 $-1 $36 #
body $-1 $37 $-1 $38 #
lump $-1 $-1 $39 $0 #
transform $-1 1 0 0 0 1 0 0 0 1 43.927121799371321 20.304848542669085 4.2494744519244216 1 rotate no_reflect no_shear #
lump $-1 $-1 $40 $1 #
transform $-1 1 0 0 0 1 0 0 0 1 43.927121799371321 20.304848542669085 4.2494744519244216 1 rotate no_reflect no_shear #
lump $-1 $-1 $41 $2 #
transform $-1 1 0 0 0 1 0 0 0 1 43.927121799371321 20.304848542669085 4.2494744519244216 1 rotate no_reflect no_shear #
lump $-1 $-1 $42 $3 #
transform $-1 1 0 0 0 1 0 0 0 1 43.927121799371321 20.304848542669085 4.2494744519244216 1 rotate no_reflect no_shear #
lump $-1 $-1 $43 $4 #
transform $-1 1 0 0 0 1 0 0 0 1 43.927121799371321 20.304848542669085 4.2494744519244216 1 rotate no_reflect no_shear #
lump $-1 $-1 $44 $5 #
transform $-1 1 0 0 0 1 0 0 0 1 43.927121799371321 20.304848542669085 4.2494744519244216 1 rotate no_reflect no_shear #
lump $-1 $-1 $45 $6 #
transform $-1 1 0 0 0 1 0 0 0 1 43.927121799371321 20.304848542669085 4.2494744519244216 1 rotate no_reflect no_shear #
lump $-1 $-1 $46 $7 #
transform $-1 1 0 0 0 1 0 0 0 1 43.927121799371321 20.304848542669085 4.2494744519244216 1 rotate no_reflect no_shear #
lump $-1 $-1 $47 $8 #
transform $-1 1 0 0 0 1 0 0 0 1 43.927121799371321 20.304848542669085 4.2494744519244216 1 rotate no_reflect no_shear #
lump $-1 $-1 $48 $9 #
transform $-1 1 0 0 0 1 0 0 0 1 43.927121799371321 20.304848542669085 4.2494744519244216 1 rotate no_reflect no_shear #
lump $-1 $-1 $49 $10 #
transform $-1 1 0 0 0 1 0 0 0 1 43.927121799371321 20.304848542669085 4.2494744519244216 1 rotate no_reflect no_shear #
lump $-1 $-1 $50 $11 #
transform $-1 1 0 0 0 1 0 0 0 1 43.927121799371321 20.304848542669085 4.2494744519244216 1 rotate no_reflect no_shear #
lump $-1 $-1 $51 $12 #
transform $-1 1 0 0 0 1 0 0 0 1 43.927121799371321 20.304848542669085 4.2494744519244216 1 rotate no_reflect no_shear #
shell $-1 $-1 $-1 $52 $-1 $13 #
shell $-1 $-1 $-1 $53 $-1 $15 #
shell $-1 $-1 $-1 $54 $-1 $17 #
shell $-1 $-1 $-1 $55 $-1 $19 #
shell $-1 $-1 $-1 $56 $-1 $21 #
shell $-1 $-1 $-1 $57 $-1 $23 #
shell $-1 $-1 $-1 $58 $-1 $25 #
shell $-1 $-1 $-1 $59 $-1 $27 #
shell $-1 $-1 $-1 $60 $-1 $29 #
shell $-1 $-1 $-1 $61 $-1 $31 #
shell $-1 $-1 $-1 $62 $-1 $33 #
shell $-1 $-1 $-1 $63 $-1 $35 #
shell $-1 $-1 $-1 $64 $-1 $37 #
face $-1 $65 $66 $39 $-1 $67 forward single #
face $-1 $68 $69 $40 $-1 $70 reversed single #
face $-1 $71 $72 $41 $-1 $73 reversed single #
face $-1 $74 $75 $42 $-1 $76 forward single #
face $-1 $77 $78 $43 $-1 $79 forward single #
face $-1 $80 $81 $44 $-1 $82 reversed single #
face $-1 $83 $84 $45 $-1 $85 forward single #
face $-1 $86 $87 $46 $-1 $88 forward single #
face $-1 $89 $90 $47 $-1 $91 forward single #
face $-1 $92 $93 $48 $-1 $94 reversed single #
face $-1 $95 $96 $49 $-1 $97 forward single #
face $-1 $98 $99 $50 $-1 $100 forward single #
face $-1 $101 $102 $51 $-1 $103 forward single #
face $-1 $104 $105 $39 $-1 $106 reversed single #
loop $-1 $-1 $107 $52 #
plane-surface $-1 0 0 4.2494744519244216 0 0 1 1 0 0 forward_v I I I I #
face $-1 $108 $109 $40 $-1 $110 reversed single #
loop $-1 $-1 $111 $53 #
plane-surface $-1 -38.928172895522479 -18.598492677378275 0 1 0 0 0 0 -1 forward_v I I I I #
face $-1 $112 $113 $41 $-1 $114 reversed single #
loop $-1 $-1 $115 $54 #
plane-surface $-1 46.095491625748963 13.280335004321955 124.87062975941835 0 1 0 0.71933980857756763 0 0.69465836192734942 forward_v I I I I #
face $-1 $116 $117 $42 $-1 $118 forward single #
loop $-1 $119 $120 $55 #
cone-surface $-1 41.826998584029177 15.287338872421131 2.0998530648500027 -0.71933980857756763 0 -0.69465836192734942 0.34732918096367471 0 -0.35966990428878381 1 I I 0 1 0.5 forward I I I I #
face $-1 $121 $122 $43 $-1 $123 forward single #
loop $-1 $124 $125 $56 #
cone-surface $-1 41.826998584029177 18.297844674569902 2.0998530648500027 -0.71933980857756763 0 -0.69465836192734942 0.34732918096367471 0 -0.35966990428878381 1 I I 0 1 0.5 forward I I I I #
face $-1 $126 $127 $44 $-1 $128 reversed single #
loop $-1 $-1 $129 $57 #
plane-surface $-1 -101.5646922483763 -7.1805330827489744 66.968204126061096 0 1 0 -0.6560590369687036 0 0.75470957328743171 forward_v I I I I #
face $-1 $130 $131 $45 $-1 $132 forward single #
loop $-1 $133 $134 $58 #
cone-surface $-1 -41.396145144135204 -5.8953912417505467 1.917633803855366 0.6560590369687036 0 -0.75470957328743171 0.37735478664371586 0 0.3280295184843518 1 I I 0 1 0.5 forward I I I I #
face $-1 $135 $136 $46 $-1 $137 forward single #
loop $-1 $138 $139 $59 #
cone-surface $-1 -41.396145144135204 -3.9676784802529035 1.917633803855366 0.6560590369687036 0 -0.75470957328743171 0.37735478664371586 0 0.3280295184843518 1 I I 0 1 0.5 forward I I I I #
face $-1 $140 $141 $47 $-1 $142 forward single #
loop $-1 $143 $144 $60 #
cone-surface $-1 -41.396145144135204 -2.0399657187552585 1.917633803855366 0.6560590369687036 0 -0.75470957328743171 0.37735478664371586 0 0.3280295184843518 1 I I 0 1 0.5 forward I I I I #
face $-1 $145 $146 $48 $-1 $147 reversed single #
loop $-1 $-1 $148 $61 #
plane-surface $-1 -101.5646922483763 4.1675356083384489 66.968204126061096 0 1 0 -0.6560590369687036 0 0.75470957328743171 forward_v I I I I #
face $-1 $149 $150 $49 $-1 $151 forward single #
loop $-1 $152 $153 $62 #
cone-surface $-1 -41.396145144135204 5.4526774493368748 1.917633803855366 0.6560590369687036 0 -0.75470957328743171 0.37735478664371586 0 0.3280295184843518 1 I I 0 1 0.5 forward I I I I #
face $-1 $154 $155 $50 $-1 $156 forward single #
loop $-1 $157 $158 $63 #
cone-surface $-1 -41.396145144135204 7.3803902108345198 1.917633803855366 0.6560590369687036 0 -0.75470957328743171 0.37735478664371586 0 0.3280295184843518 1 I I 0 1 0.5 forward I I I I #
face $-1 $159 $160 $51 $-1 $161 forward single #
loop $-1 $162 $163 $64 #
cone-surface $-1 -41.396145144135204 9.3081029723321649 1.917633803855366 0.6560590369687036 0 -0.75470957328743171 0.37735478664371586 0 0.3280295184843518 1 I I 0 1 0.5 forward I I I I #
face $-1 $164 $165 $39 $-1 $166 reversed single #
loop $-1 $-1 $167 $65 #
plane-surface $-1 0 0 -4.2494744519244216 0 0 1 1 0 0 forward_v I I I I #
coedge $-1 $168 $169 $170 $171 forward $66 $-1 #
face $-1 $172 $173 $40 $-1 $174 reversed single #
loop $-1 $-1 $175 $68 #
plane-surface $-1 -37.428172895522479 -16.892136812087465 0 0 -1 0 0 0 -1 forward_v I I I I #
coedge $-1 $176 $177 $178 $179 forward $69 $-1 #
face $-1 $180 $181 $41 $-1 $182 reversed single #
loop $-1 $-1 $183 $71 #
plane-surface $-1 -17.101563147297568 16.792591773495516 63.84194481274946 0.71933980857756763 0 0.69465836192734942 0.69465836192734942 0 -0.71933980857756763 forward_v I I I I #
coedge $-1 $184 $185 $186 $187 reversed $72 $-1 #
face $-1 $-1 $188 $42 $-1 $189 forward single #
loop $-1 $190 $191 $74 #
cone-surface $-1 41.287493727596001 15.287338872421131 1.5788592934044905 -0.71933980857756763 0 -0.69465836192734942 0.17366459048183736 0 -0.17983495214439191 1 I I -0.70710678118654746 0.70710678118654746 0.25 forward I I I I #
loop $-1 $-1 $192 $55 #
coedge $-1 $120 $120 $193 $194 reversed $75 $-1 #
face $-1 $-1 $195 $43 $-1 $196 forward single #
loop $-1 $197 $198 $77 #
cone-surface $-1 41.287493727596001 18.297844674569902 1.5788592934044905 -0.71933980857756763 0 -0.69465836192734942 0.17366459048183736 0 -0.17983495214439191 1 I I -0.70710678118654746 0.70710678118654746 0.25 forward I I I I #
loop $-1 $-1 $199 $56 #
coedge $-1 $125 $125 $200 $201 reversed $78 $-1 #
face $-1 $202 $203 $44 $-1 $204 reversed single #
loop $-1 $-1 $205 $80 #
plane-surface $-1 -43.927121799371314 -3.9676784802528999 0.66376542816395556 -0.6560590369687036 0 0.75470957328743171 0.75470957328743171 0 0.6560590369687036 forward_v I I I I #
coedge $-1 $206 $207 $208 $209 reversed $81 $-1 #
face $-1 $-1 $210 $45 $-1 $211 forward single #
loop $-1 $212 $213 $83 #
cone-surface $-1 -40.763596874833986 -5.8953912417505467 1.1899702743446845 0.6560590369687036 0 -0.75470957328743171 0.18867739332185793 0 0.1640147592421759 1 I I -0.70710678118654746 0.70710678118654746 0.25 forward I I I I #
loop $-1 $-1 $214 $58 #
coedge $-1 $134 $134 $215 $216 reversed $84 $-1 #
face $-1 $-1 $217 $46 $-1 $218 forward single #
loop $-1 $219 $220 $86 #
cone-surface $-1 -40.763596874833986 -3.9676784802529035 1.1899702743446845 0.6560590369687036 0 -0.75470957328743171 0.18867739332185793 0 0.1640147592421759 1 I I -0.70710678118654746 0.70710678118654746 0.25 forward I I I I #
loop $-1 $-1 $221 $59 #
coedge $-1 $139 $139 $222 $223 reversed $87 $-1 #
face $-1 $-1 $224 $47 $-1 $225 forward single #
loop $-1 $226 $227 $89 #
cone-surface $-1 -40.763596874833986 -2.0399657187552585 1.1899702743446845 0.6560590369687036 0 -0.75470957328743171 0.18867739332185793 0 0.1640147592421759 1 I I -0.70710678118654746 0.70710678118654746 0.25 forward I I I I #
loop $-1 $-1 $228 $60 #
coedge $-1 $144 $144 $229 $230 reversed $90 $-1 #
face $-1 $231 $232 $48 $-1 $233 reversed single #
loop $-1 $-1 $234 $92 #
plane-surface $-1 -43.927121799371314 7.3803902108345234 0.66376542816395556 -0.6560590369687036 0 0.75470957328743171 0.75470957328743171 0 0.6560590369687036 forward_v I I I I #
coedge $-1 $235 $236 $237 $238 reversed $93 $-1 #
face $-1 $-1 $239 $49 $-1 $240 forward single #
loop $-1 $241 $242 $95 #
cone-surface $-1 -40.763596874833986 5.4526774493368748 1.1899702743446845 0.6560590369687036 0 -0.75470957328743171 0.18867739332185793 0 0.1640147592421759 1 I I -0.70710678118654746 0.70710678118654746 0.25 forward I I I I #
loop $-1 $-1 $243 $62 #
coedge $-1 $153 $153 $244 $245 reversed $96 $-1 #
face $-1 $-1 $246 $50 $-1 $247 forward single #
loop $-1 $248 $249 $98 #
cone-surface $-1 -40.763596874833986 7.3803902108345198 1.1899702743446845 0.6560590369687036 0 -0.75470957328743171 0.18867739332185793 0 0.1640147592421759 1 I I -0.70710678118654746 0.70710678118654746 0.25 forward I I I I #
loop $-1 $-1 $250 $63 #
coedge $-1 $158 $158 $251 $252 reversed $99 $-1 #
face $-1 $-1 $253 $51 $-1 $254 forward single #
loop $-1 $255 $256 $101 #
cone-surface $-1 -40.763596874833986 9.3081029723321649 1.1899702743446845 0.6560590369687036 0 -0.75470957328743171 0.18867739332185793 0 0.1640147592421759 1 I I -0.70710678118654746 0.70710678118654746 0.25 forward I I I I #
loop $-1 $-1 $257 $64 #
coedge $-1 $163 $163 $258 $259 reversed $102 $-1 #
face $-1 $260 $261 $39 $-1 $262 reversed single #
loop $-1 $-1 $263 $104 #
plane-surface $-1 0 -20.304848542669085 0 0 1 0 0 0 1 forward_v I I I I #
coedge $-1 $264 $265 $266 $267 forward $105 $-1 #
coedge $-1 $268 $107 $269 $270 forward $66 $-1 #
coedge $-1 $107 $268 $271 $272 forward $66 $-1 #
coedge $-1 $273 $274 $107 $171 reversed $275 $-1 #
edge $-1 $276 -20.304848542669085 $277 20.304848542669085 $170 $278 forward 7 unknown #
face $-1 $279 $280 $40 $-1 $281 forward single #
loop $-1 $-1 $282 $108 #
plane-surface $-1 -35.928172895522479 -18.598492677378275 0 -1 0 0 0 0 1 forward_v I I I I #
coedge $-1 $283 $284 $285 $286 forward $109 $-1 #
coedge $-1 $287 $111 $288 $289 reversed $69 $-1 #
coedge $-1 $111 $287 $290 $291 reversed $69 $-1 #
coedge $-1 $284 $283 $111 $179 reversed $109 $-1 #
edge $-1 $292 -4.2494744519244216 $293 4.2494744519244216 $178 $294 forward 7 unknown #
face $-1 $295 $296 $41 $-1 $297 reversed single #
loop $-1 $-1 $186 $112 #
plane-surface $-1 43.927121799371321 0 0 -1 0 0 0 0 1 forward_v I I I I #
coedge $-1 $298 $299 $300 $301 reversed $113 $-1 #
coedge $-1 $185 $115 $302 $303 reversed $72 $-1 #
coedge $-1 $115 $184 $298 $304 reversed $72 $-1 #
coedge $-1 $300 $305 $115 $187 forward $181 $-1 #
edge $-1 $306 58.185840427784754 $307 61.790424840006246 $186 $308 forward 7 unknown #
loop $-1 $-1 $193 $116 #
plane-surface $-1 -17.101563147297568 16.792591773495516 63.84194481274946 0.71933980857756763 0 0.69465836192734942 0.69465836192734942 0 -0.71933980857756763 forward_v I I I I #
loop $-1 $-1 $309 $74 #
coedge $-1 $191 $191 $192 $310 reversed $117 $-1 #
coedge $-1 $192 $192 $191 $310 forward $119 $-1 #
coedge $-1 $193 $193 $120 $194 forward $188 $-1 #
edge $-1 $311 0 $311 6.2831853071796004 $193 $312 forward 7 unknown #
loop $-1 $-1 $200 $121 #
plane-surface $-1 -17.101563147297568 16.792591773495516 63.84194481274946 0.71933980857756763 0 0.69465836192734942 0.69465836192734942 0 -0.71933980857756763 forward_v I I I I #
loop $-1 $-1 $313 $77 #
coedge $-1 $198 $198 $199 $314 reversed $122 $-1 #
coedge $-1 $199 $199 $198 $314 forward $124 $-1 #
coedge $-1 $200 $200 $125 $201 forward $195 $-1 #
edge $-1 $315 0 $315 6.2831853071796004 $200 $316 forward 7 unknown #
face $-1 $317 $318 $44 $-1 $319 reversed single #
loop $-1 $-1 $320 $126 #
plane-surface $-1 -101.5646922483763 -0.75482387775682547 66.968204126061096 0 -1 0 0.6560590369687036 0 -0.75470957328743171 forward_v I I I I #
coedge $-1 $321 $322 $323 $324 reversed $127 $-1 #
coedge $-1 $207 $129 $325 $326 reversed $81 $-1 #
coedge $-1 $129 $206 $321 $327 reversed $81 $-1 #
coedge $-1 $323 $328 $129 $209 forward $329 $-1 #
edge $-1 $330 6.855224324816831 $331 10.980110615170993 $208 $332 forward 7 unknown #
loop $-1 $-1 $215 $130 #
plane-surface $-1 -43.927121799371314 -3.9676784802528999 0.66376542816395556 -0.6560590369687036 0 0.75470957328743171 0.75470957328743171 0 0.6560590369687036 forward_v I I I I #
loop $-1 $-1 $333 $83 #
coedge $-1 $213 $213 $214 $334 reversed $131 $-1 #
coedge $-1 $214 $214 $213 $334 forward $133 $-1 #
coedge $-1 $215 $215 $134 $216 forward $210 $-1 #
edge $-1 $335 0 $335 6.2831853071796004 $215 $336 forward 7 unknown #
loop $-1 $-1 $222 $135 #
plane-surface $-1 -43.927121799371314 -3.9676784802528999 0.66376542816395556 -0.6560590369687036 0 0.75470957328743171 0.75470957328743171 0 0.6560590369687036 forward_v I I I I #
loop $-1 $-1 $337 $86 #
coedge $-1 $220 $220 $221 $338 reversed $136 $-1 #
coedge $-1 $221 $221 $220 $338 forward $138 $-1 #
coedge $-1 $222 $222 $139 $223 forward $217 $-1 #
edge $-1 $339 0 $339 6.2831853071796004 $222 $340 forward 7 unknown #
loop $-1 $-1 $229 $140 #
plane-surface $-1 -43.927121799371314 -3.9676784802528999 0.66376542816395556 -0.6560590369687036 0 0.75470957328743171 0.75470957328743171 0 0.6560590369687036 forward_v I I I I #
loop $-1 $-1 $341 $89 #
coedge $-1 $227 $227 $228 $342 reversed $141 $-1 #
coedge $-1 $228 $228 $227 $342 forward $143 $-1 #
coedge $-1 $229 $229 $144 $230 forward $224 $-1 #
edge $-1 $343 0 $343 6.2831853071796004 $229 $344 forward 7 unknown #
face $-1 $345 $346 $48 $-1 $347 forward single #
loop $-1 $-1 $348 $145 #
plane-surface $-1 -101.5646922483763 10.593244813330598 66.968204126061096 0 -1 0 0.6560590369687036 0 -0.75470957328743171 forward_v I I I I #
coedge $-1 $349 $350 $351 $352 reversed $146 $-1 #
coedge $-1 $236 $148 $353 $354 reversed $93 $-1 #
coedge $-1 $148 $235 $349 $355 reversed $93 $-1 #
coedge $-1 $351 $356 $148 $238 forward $346 $-1 #
edge $-1 $357 6.855224324816831 $358 10.980110615170993 $237 $359 forward 7 unknown #
loop $-1 $-1 $244 $149 #
plane-surface $-1 -43.927121799371314 7.3803902108345234 0.66376542816395556 -0.6560590369687036 0 0.75470957328743171 0.75470957328743171 0 0.6560590369687036 forward_v I I I I #
loop $-1 $-1 $360 $95 #
coedge $-1 $242 $242 $243 $361 reversed $150 $-1 #
coedge $-1 $243 $243 $242 $361 forward $152 $-1 #
coedge $-1 $244 $244 $153 $245 forward $239 $-1 #
edge $-1 $362 0 $362 6.2831853071796004 $244 $363 forward 7 unknown #
loop $-1 $-1 $251 $154 #
plane-surface $-1 -43.927121799371314 7.3803902108345234 0.66376542816395556 -0.6560590369687036 0 0.75470957328743171 0.75470957328743171 0 0.6560590369687036 forward_v I I I I #
loop $-1 $-1 $364 $98 #
coedge $-1 $249 $249 $250 $365 reversed $155 $-1 #
coedge $-1 $250 $250 $249 $365 forward $157 $-1 #
coedge $-1 $251 $251 $158 $252 forward $246 $-1 #
edge $-1 $366 0 $366 6.2831853071796004 $251 $367 forward 7 unknown #
loop $-1 $-1 $258 $159 #
plane-surface $-1 -43.927121799371314 7.3803902108345234 0.66376542816395556 -0.6560590369687036 0 0.75470957328743171 0.75470957328743171 0 0.6560590369687036 forward_v I I I I #
loop $-1 $-1 $368 $101 #
coedge $-1 $256 $256 $257 $369 reversed $160 $-1 #
coedge $-1 $257 $257 $256 $369 forward $162 $-1 #
coedge $-1 $258 $258 $163 $259 forward $253 $-1 #
edge $-1 $370 0 $370 6.2831853071796004 $258 $371 forward 7 unknown #
face $-1 $372 $373 $39 $-1 $374 reversed single #
loop $-1 $-1 $375 $164 #
plane-surface $-1 -43.927121799371321 0 0 1 0 0 0 0 -1 forward_v I I I I #
coedge $-1 $376 $271 $377 $378 forward $165 $-1 #
coedge $-1 $379 $167 $376 $380 forward $105 $-1 #
coedge $-1 $167 $379 $381 $382 forward $105 $-1 #
coedge $-1 $274 $273 $167 $267 reversed $275 $-1 #
edge $-1 $383 -20.304848542669085 $384 20.304848542669085 $266 $385 forward 7 unknown #
coedge $-1 $169 $168 $386 $387 forward $66 $-1 #
coedge $-1 $388 $389 $168 $270 reversed $373 $-1 #
edge $-1 $277 -43.927121799371321 $390 43.927121799371321 $269 $391 forward 7 unknown #
coedge $-1 $263 $392 $169 $272 reversed $165 $-1 #
edge $-1 $393 -43.927121799371321 $276 43.927121799371321 $271 $394 forward 7 unknown #
coedge $-1 $266 $170 $392 $395 forward $275 $-1 #
coedge $-1 $170 $266 $388 $396 reversed $275 $-1 #
loop $-1 $-1 $273 $372 #
vertex $-1 $171 $397 #
vertex $-1 $171 $398 #
straight-curve $-1 43.927121799371321 0 4.2494744519244216 0 1 0 I I #
face $-1 $399 $400 $40 $-1 $401 reversed single #
loop $-1 $-1 $402 $172 #
plane-surface $-1 0 0 4.2494744519244216 0 0 1 1 0 0 forward_v I I I I #
coedge $-1 $403 $404 $405 $406 reversed $173 $-1 #
coedge $-1 $178 $175 $407 $408 reversed $109 $-1 #
coedge $-1 $175 $178 $409 $410 reversed $109 $-1 #
coedge $-1 $404 $403 $175 $286 reversed $173 $-1 #
edge $-1 $411 -4.2494744519244216 $412 4.2494744519244216 $285 $413 forward 7 unknown #
coedge $-1 $177 $176 $414 $415 reversed $69 $-1 #
coedge $-1 $407 $416 $176 $289 forward $400 $-1 #
edge $-1 $417 -11.005602203979947 $293 -7.5928904733983273 $288 $418 forward 7 unknown #
coedge $-1 $419 $409 $177 $291 forward $280 $-1 #
edge $-1 $292 7.5928904733983273 $420 11.005602203979947 $290 $421 forward 7 unknown #
vertex $-1 $291 $422 #
vertex $-1 $289 $423 #
straight-curve $-1 -38.928172895522479 -16.892136812087465 0 0 0 -1 I I #
face $-1 $-1 $424 $41 $-1 $425 forward single #
loop $-1 $-1 $426 $180 #
plane-surface $-1 0 20.304848542669085 0 0 -1 0 0 0 -1 forward_v I I I I #
coedge $-1 $427 $183 $185 $304 forward $113 $-1 #
coedge $-1 $183 $427 $426 $428 reversed $113 $-1 #
coedge $-1 $429 $186 $183 $301 forward $181 $-1 #
edge $-1 $307 4.8840391175741971 $430 11.908552655921326 $300 $431 forward 7 unknown #
coedge $-1 $432 $433 $184 $303 forward $424 $-1 #
edge $-1 $434 17.39846936439011 $306 20.879375986496839 $302 $435 forward 7 unknown #
edge $-1 $307 -87.854243598742642 $434 -82.843281645518829 $185 $436 forward 7 unknown #
coedge $-1 $186 $429 $432 $437 reversed $181 $-1 #
vertex $-1 $437 $438 #
vertex $-1 $187 $439 #
straight-curve $-1 43.927121799371321 13.280335004321955 62.435314879709175 0 0 -1 I I #
coedge $-1 $309 $309 $-1 $440 reversed $190 $-1 #
edge $-1 $441 0 $441 6.2831853071796004 $191 $442 forward 7 unknown #
vertex $-1 $194 $443 #
ellipse-curve $-1 42.186668488317963 15.287338872421131 2.4471822458136776 0.71933980857756763 0 0.69465836192734942 0.34732918096367471 0 -0.35966990428878381 1 I I #
coedge $-1 $313 $313 $-1 $444 reversed $197 $-1 #
edge $-1 $445 0 $445 6.2831853071796004 $198 $446 forward 7 unknown #
vertex $-1 $201 $447 #
ellipse-curve $-1 42.186668488317963 18.297844674569902 2.4471822458136776 0.71933980857756763 0 0.69465836192734942 0.34732918096367471 0 -0.35966990428878381 1 I I #
face $-1 $-1 $329 $44 $-1 $448 forward single #
loop $-1 $-1 $449 $202 #
plane-surface $-1 -43.927121799371321 0 0 1 0 0 0 0 -1 forward_v I I I I #
coedge $-1 $450 $451 $452 $453 reversed $203 $-1 #
coedge $-1 $454 $205 $207 $327 forward $127 $-1 #
coedge $-1 $205 $454 $450 $455 forward $127 $-1 #
coedge $-1 $452 $208 $205 $324 forward $329 $-1 #
edge $-1 $331 -5.1966938426225244 $456 1.2290153623696245 $323 $457 forward 7 unknown #
coedge $-1 $458 $459 $206 $326 forward $318 $-1 #
edge $-1 $460 -32.820336634866599 $330 -29.234627611106127 $325 $461 forward 7 unknown #
edge $-1 $331 -5.4655279810306432 $460 9.44141639987384e-015 $207 $462 forward 7 unknown #
coedge $-1 $208 $452 $458 $463 forward $329 $-1 #
loop $-1 $-1 $452 $317 #
vertex $-1 $326 $464 #
vertex $-1 $209 $465 #
straight-curve $-1 -50.782346124188152 -7.1805330827489744 4.2494744519244207 1 0 0 I I #
coedge $-1 $333 $333 $-1 $466 reversed $212 $-1 #
edge $-1 $467 0 $467 6.2831853071796004 $213 $468 forward 7 unknown #
vertex $-1 $216 $469 #
ellipse-curve $-1 -41.864678654194243 -5.8953912417505467 2.4566199400441846 -0.6560590369687036 0 0.75470957328743171 0.37735478664371586 0 0.3280295184843518 1 I I #
coedge $-1 $337 $337 $-1 $470 reversed $219 $-1 #
edge $-1 $471 0 $471 6.2831853071796004 $220 $472 forward 7 unknown #
vertex $-1 $223 $473 #
ellipse-curve $-1 -41.864678654194243 -3.9676784802529035 2.4566199400441846 -0.6560590369687036 0 0.75470957328743171 0.37735478664371586 0 0.3280295184843518 1 I I #
coedge $-1 $341 $341 $-1 $474 reversed $226 $-1 #
edge $-1 $475 0 $475 6.2831853071796004 $227 $476 forward 7 unknown #
vertex $-1 $230 $477 #
ellipse-curve $-1 -41.864678654194243 -2.0399657187552585 2.4566199400441846 -0.6560590369687036 0 0.75470957328743171 0.37735478664371586 0 0.3280295184843518 1 I I #
face $-1 $-1 $478 $48 $-1 $479 reversed single #
loop $-1 $-1 $237 $231 #
plane-surface $-1 0 0 4.2494744519244216 0 0 1 1 0 0 forward_v I I I I #
coedge $-1 $480 $481 $482 $483 reversed $232 $-1 #
coedge $-1 $484 $234 $236 $355 forward $146 $-1 #
coedge $-1 $234 $484 $480 $485 forward $146 $-1 #
coedge $-1 $482 $237 $234 $352 forward $346 $-1 #
edge $-1 $358 0.47734050292118724 $486 6.9030497079133362 $351 $487 forward 7 unknown #
coedge $-1 $488 $489 $235 $354 forward $478 $-1 #
edge $-1 $490 -32.820336634866599 $357 -29.234627611106127 $353 $491 forward 7 unknown #
edge $-1 $358 -5.4655279810306432 $490 9.44141639987384e-015 $236 $492 forward 7 unknown #
coedge $-1 $237 $482 $488 $493 forward $346 $-1 #
vertex $-1 $354 $494 #
vertex $-1 $238 $495 #
straight-curve $-1 -50.782346124188152 4.1675356083384489 4.2494744519244207 1 0 0 I I #
coedge $-1 $360 $360 $-1 $496 reversed $241 $-1 #
edge $-1 $497 0 $497 6.2831853071796004 $242 $498 forward 7 unknown #
vertex $-1 $245 $499 #
ellipse-curve $-1 -41.864678654194243 5.4526774493368748 2.4566199400441846 -0.6560590369687036 0 0.75470957328743171 0.37735478664371586 0 0.3280295184843518 1 I I #
coedge $-1 $364 $364 $-1 $500 reversed $248 $-1 #
edge $-1 $501 0 $501 6.2831853071796004 $249 $502 forward 7 unknown #
vertex $-1 $252 $503 #
ellipse-curve $-1 -41.864678654194243 7.3803902108345198 2.4566199400441846 -0.6560590369687036 0 0.75470957328743171 0.37735478664371586 0 0.3280295184843518 1 I I #
coedge $-1 $368 $368 $-1 $504 reversed $255 $-1 #
edge $-1 $505 0 $505 6.2831853071796004 $256 $506 forward 7 unknown #
vertex $-1 $259 $507 #
ellipse-curve $-1 -41.864678654194243 9.3081029723321649 2.4566199400441846 -0.6560590369687036 0 0.75470957328743171 0.37735478664371586 0 0.3280295184843518 1 I I #
face $-1 $-1 $275 $39 $-1 $508 reversed single #
loop $-1 $-1 $388 $260 #
plane-surface $-1 0 20.304848542669085 0 0 -1 0 0 0 -1 forward_v I I I I #
coedge $-1 $509 $386 $389 $510 forward $261 $-1 #
coedge $-1 $392 $263 $264 $380 reversed $165 $-1 #
coedge $-1 $386 $509 $263 $378 reversed $261 $-1 #
edge $-1 $393 -4.2494744519244216 $511 4.2494744519244216 $377 $512 forward 7 unknown #
coedge $-1 $265 $264 $509 $513 forward $105 $-1 #
edge $-1 $384 -43.927121799371321 $511 43.927121799371321 $376 $514 forward 7 unknown #
coedge $-1 $389 $388 $265 $382 reversed $373 $-1 #
edge $-1 $515 -43.927121799371321 $383 43.927121799371321 $381 $516 forward 7 unknown #
vertex $-1 $267 $517 #
vertex $-1 $395 $518 #
straight-curve $-1 43.927121799371321 0 -4.2494744519244216 0 -1 0 I I #
coedge $-1 $375 $377 $268 $387 reversed $261 $-1 #
edge $-1 $390 -20.304848542669085 $393 20.304848542669085 $386 $519 forward 7 unknown #
coedge $-1 $381 $269 $274 $396 forward $373 $-1 #
coedge $-1 $269 $381 $375 $510 reversed $373 $-1 #
vertex $-1 $270 $520 #
straight-curve $-1 0 20.304848542669085 4.2494744519244216 -1 0 0 I I #
coedge $-1 $271 $376 $273 $395 reversed $165 $-1 #
vertex $-1 $387 $521 #
straight-curve $-1 0 -20.304848542669085 4.2494744519244216 1 0 0 I I #
edge $-1 $276 -4.2494744519244216 $384 4.2494744519244216 $273 $522 forward 7 unknown #
edge $-1 $277 -4.2494744519244216 $383 4.2494744519244216 $274 $523 forward 7 unknown #
point $-1 43.927121799371321 -20.304848542669085 4.2494744519244216 #
point $-1 43.927121799371321 20.304848542669085 4.2494744519244216 #
face $-1 $-1 $524 $40 $-1 $525 reversed single #
loop $-1 $-1 $526 $279 #
plane-surface $-1 0 0 -4.2494744519244216 0 0 1 1 0 0 forward_v I I I I #
coedge $-1 $409 $419 $404 $527 forward $280 $-1 #
coedge $-1 $285 $282 $526 $528 reversed $173 $-1 #
coedge $-1 $282 $285 $402 $527 reversed $173 $-1 #
coedge $-1 $529 $530 $282 $406 forward $524 $-1 #
edge $-1 $531 -4.2494744519244216 $532 4.2494744519244216 $405 $533 forward 7 unknown #
coedge $-1 $526 $288 $283 $408 forward $400 $-1 #
edge $-1 $293 -20.21408644776124 $412 -17.21408644776124 $407 $534 forward 7 unknown #
coedge $-1 $290 $402 $284 $410 forward $280 $-1 #
edge $-1 $411 17.21408644776124 $292 20.21408644776124 $409 $535 forward 7 unknown #
vertex $-1 $410 $536 #
vertex $-1 $408 $537 #
straight-curve $-1 -35.928172895522479 -16.892136812087465 0 0 0 -1 I I #
coedge $-1 $530 $529 $287 $415 forward $524 $-1 #
edge $-1 $420 -4.2494744519244216 $417 4.2494744519244216 $414 $538 forward 7 unknown #
coedge $-1 $288 $526 $530 $539 forward $400 $-1 #
vertex $-1 $289 $540 #
straight-curve $-1 -38.928172895522479 -9.2992463386891373 -4.2494744519244216 0 1 0 I I #
coedge $-1 $402 $290 $529 $541 forward $280 $-1 #
vertex $-1 $541 $542 #
straight-curve $-1 -38.928172895522479 -9.2992463386891373 4.2494744519244216 0 -1 0 I I #
point $-1 -38.928172895522479 -16.892136812087465 4.2494744519244216 #
point $-1 -38.928172895522479 -16.892136812087465 -4.2494744519244216 #
loop $-1 $-1 $302 $295 #
plane-surface $-1 0 0 4.2494744519244216 0 0 1 1 0 0 forward_v I I I I #
coedge $-1 $543 $544 $299 $428 forward $296 $-1 #
coedge $-1 $299 $298 $433 $545 reversed $113 $-1 #
edge $-1 $430 -58.95234549718181 $546 -53.94138354395799 $426 $547 forward 7 unknown #
coedge $-1 $305 $300 $544 $548 reversed $181 $-1 #
vertex $-1 $428 $549 #
straight-curve $-1 43.927121799371321 8.3962958867477582 0.64489003970292913 0 1 0 I I #
coedge $-1 $550 $302 $305 $437 forward $424 $-1 #
coedge $-1 $302 $550 $427 $545 forward $424 $-1 #
vertex $-1 $303 $551 #
straight-curve $-1 23.047745812874481 13.280335004321955 4.2494744519244207 1 0 0 I I #
straight-curve $-1 -17.101563147297568 13.280335004321955 63.84194481274946 -0.69465836192734942 0 0.71933980857756763 I I #
edge $-1 $306 13.280335004321955 $552 20.304848542669085 $305 $553 forward 7 unknown #
point $-1 43.927121799371321 13.280335004321955 4.2494744519244216 #
point $-1 43.927121799371321 13.280335004321955 0.64489003970292913 #
edge $-1 $554 1 $554 0 $309 $-1 forward 7 unknown #
vertex $-1 $310 $555 #
ellipse-curve $-1 41.46732867974039 15.287338872421131 1.7525238838863277 0.71933980857756763 0 0.69465836192734942 0.34732918096367471 0 -0.35966990428878381 1 I I #
point $-1 42.533997669281632 15.287338872421131 2.0875123415248935 #
edge $-1 $556 1 $556 0 $313 $-1 forward 7 unknown #
vertex $-1 $314 $557 #
ellipse-curve $-1 41.46732867974039 18.297844674569902 1.7525238838863277 0.71933980857756763 0 0.69465836192734942 0.34732918096367471 0 -0.35966990428878381 1 I I #
point $-1 42.533997669281632 18.297844674569902 2.0875123415248935 #
plane-surface $-1 0 0 4.2494744519244216 0 0 1 1 0 0 forward_v I I I I #
coedge $-1 $459 $458 $451 $558 forward $318 $-1 #
coedge $-1 $451 $320 $322 $455 reversed $203 $-1 #
coedge $-1 $320 $450 $449 $558 reversed $203 $-1 #
coedge $-1 $328 $323 $320 $453 forward $329 $-1 #
edge $-1 $456 -10.980110615170993 $559 -6.855224324816831 $452 $560 forward 7 unknown #
coedge $-1 $322 $321 $459 $561 reversed $127 $-1 #
edge $-1 $562 -9.44141639987384e-015 $456 5.4655279810306432 $450 $563 forward 7 unknown #
vertex $-1 $324 $564 #
straight-curve $-1 -39.802235509017159 -1.98383924012645 4.2494744519244243 0 1 0 I I #
coedge $-1 $449 $325 $328 $463 reversed $318 $-1 #
coedge $-1 $325 $449 $454 $561 forward $318 $-1 #
vertex $-1 $326 $565 #
straight-curve $-1 -43.927121799371321 -7.1805330827489744 33.484102063030548 0 0 1 I I #
straight-curve $-1 -43.927121799371314 -7.1805330827489744 0.66376542816395556 -0.75470957328743171 0 -0.6560590369687036 I I #
edge $-1 $559 0.75482387775682547 $330 7.1805330827489744 $458 $566 forward 7 unknown #
point $-1 -43.927121799371321 -7.1805330827489744 4.2494744519244216 #
point $-1 -39.802235509017159 -7.1805330827489744 4.2494744519244216 #
edge $-1 $567 1 $567 0 $333 $-1 forward 7 unknown #
vertex $-1 $334 $568 #
ellipse-curve $-1 -40.927611634076165 -5.8953912417505467 1.3786476676665425 -0.6560590369687036 0 0.75470957328743171 0.37735478664371586 0 0.3280295184843518 1 I I #
point $-1 -41.487323867550529 -5.8953912417505467 2.7846494585285413 #
edge $-1 $569 1 $569 0 $337 $-1 forward 7 unknown #
vertex $-1 $338 $570 #
ellipse-curve $-1 -40.927611634076165 -3.9676784802529035 1.3786476676665425 -0.6560590369687036 0 0.75470957328743171 0.37735478664371586 0 0.3280295184843518 1 I I #
point $-1 -41.487323867550529 -3.9676784802529035 2.7846494585285413 #
edge $-1 $571 1 $571 0 $341 $-1 forward 7 unknown #
vertex $-1 $342 $572 #
ellipse-curve $-1 -40.927611634076165 -2.0399657187552585 1.3786476676665425 -0.6560590369687036 0 0.75470957328743171 0.37735478664371586 0 0.3280295184843518 1 I I #
point $-1 -41.487323867550529 -2.0399657187552585 2.7846494585285413 #
loop $-1 $-1 $353 $345 #
plane-surface $-1 -43.927121799371321 0 0 1 0 0 0 0 -1 forward_v I I I I #
coedge $-1 $481 $348 $350 $485 reversed $232 $-1 #
coedge $-1 $348 $480 $573 $574 reversed $232 $-1 #
coedge $-1 $356 $351 $348 $483 forward $346 $-1 #
edge $-1 $486 -10.980110615170993 $575 -6.855224324816831 $482 $576 forward 7 unknown #
coedge $-1 $350 $349 $489 $577 reversed $146 $-1 #
edge $-1 $578 -9.44141639987384e-015 $486 5.4655279810306432 $480 $579 forward 7 unknown #
vertex $-1 $352 $580 #
straight-curve $-1 -39.802235509017159 3.6901951054172617 4.2494744519244243 0 1 0 I I #
coedge $-1 $573 $353 $356 $493 reversed $478 $-1 #
coedge $-1 $353 $573 $484 $577 forward $478 $-1 #
vertex $-1 $354 $581 #
straight-curve $-1 -43.927121799371321 4.1675356083384489 33.484102063030548 0 0 1 I I #
straight-curve $-1 -43.927121799371314 4.1675356083384489 0.66376542816395556 -0.75470957328743171 0 -0.6560590369687036 I I #
edge $-1 $575 -10.593244813330598 $357 -4.1675356083384489 $488 $582 forward 7 unknown #
point $-1 -43.927121799371321 4.1675356083384489 4.2494744519244216 #
point $-1 -39.802235509017159 4.1675356083384489 4.2494744519244216 #
edge $-1 $583 1 $583 0 $360 $-1 forward 7 unknown #
vertex $-1 $361 $584 #
ellipse-curve $-1 -40.927611634076165 5.4526774493368748 1.3786476676665425 -0.6560590369687036 0 0.75470957328743171 0.37735478664371586 0 0.3280295184843518 1 I I #
point $-1 -41.487323867550529 5.4526774493368748 2.7846494585285413 #
edge $-1 $585 1 $585 0 $364 $-1 forward 7 unknown #
vertex $-1 $365 $586 #
ellipse-curve $-1 -40.927611634076165 7.3803902108345198 1.3786476676665425 -0.6560590369687036 0 0.75470957328743171 0.37735478664371586 0 0.3280295184843518 1 I I #
point $-1 -41.487323867550529 7.3803902108345198 2.7846494585285413 #
edge $-1 $587 1 $587 0 $368 $-1 forward 7 unknown #
vertex $-1 $369 $588 #
ellipse-curve $-1 -40.927611634076165 9.3081029723321649 1.3786476676665425 -0.6560590369687036 0 0.75470957328743171 0.37735478664371586 0 0.3280295184843518 1 I I #
point $-1 -41.487323867550529 9.3081029723321649 2.7846494585285413 #
plane-surface $-1 43.927121799371321 0 0 -1 0 0 0 0 1 forward_v I I I I #
coedge $-1 $377 $375 $379 $513 reversed $261 $-1 #
edge $-1 $390 -4.2494744519244216 $515 4.2494744519244216 $389 $589 forward 7 unknown #
vertex $-1 $513 $590 #
straight-curve $-1 -43.927121799371321 -20.304848542669085 0 0 0 -1 I I #
edge $-1 $511 -20.304848542669085 $515 20.304848542669085 $509 $591 forward 7 unknown #
straight-curve $-1 0 -20.304848542669085 -4.2494744519244216 -1 0 0 I I #
vertex $-1 $382 $592 #
straight-curve $-1 0 20.304848542669085 -4.2494744519244216 1 0 0 I I #
point $-1 43.927121799371321 20.304848542669085 -4.2494744519244216 #
point $-1 43.927121799371321 -20.304848542669085 -4.2494744519244216 #
straight-curve $-1 -43.927121799371321 0 4.2494744519244216 0 -1 0 I I #
point $-1 -43.927121799371321 20.304848542669085 4.2494744519244216 #
point $-1 -43.927121799371321 -20.304848542669085 4.2494744519244216 #
straight-curve $-1 43.927121799371321 -20.304848542669085 0 0 0 -1 I I #
straight-curve $-1 43.927121799371321 20.304848542669085 0 0 0 -1 I I #
loop $-1 $-1 $405 $399 #
plane-surface $-1 0 -20.304848542669085 0 0 1 0 0 0 1 forward_v I I I I #
coedge $-1 $416 $407 $403 $528 forward $400 $-1 #
edge $-1 $532 -11.005602203979947 $411 -7.5928904733983273 $402 $593 forward 7 unknown #
edge $-1 $412 7.5928904733983273 $531 11.005602203979947 $526 $594 forward 7 unknown #
coedge $-1 $414 $405 $419 $541 reversed $524 $-1 #
coedge $-1 $405 $414 $416 $539 reversed $524 $-1 #
vertex $-1 $539 $595 #
vertex $-1 $406 $596 #
straight-curve $-1 -35.928172895522479 -20.304848542669085 0 0 0 1 I I #
straight-curve $-1 -18.71408644776124 -16.892136812087465 -4.2494744519244216 1 0 0 I I #
straight-curve $-1 -18.71408644776124 -16.892136812087465 4.2494744519244216 -1 0 0 I I #
point $-1 -35.928172895522479 -16.892136812087465 4.2494744519244216 #
point $-1 -35.928172895522479 -16.892136812087465 -4.2494744519244216 #
straight-curve $-1 -38.928172895522479 -20.304848542669085 0 0 0 -1 I I #
edge $-1 $531 35.928172895522479 $417 38.928172895522479 $530 $597 forward 7 unknown #
point $-1 -38.928172895522479 -20.304848542669085 -4.2494744519244216 #
edge $-1 $420 -38.928172895522479 $532 -35.928172895522479 $529 $598 forward 7 unknown #
point $-1 -38.928172895522479 -20.304848542669085 4.2494744519244216 #
coedge $-1 $544 $426 $550 $599 reversed $296 $-1 #
coedge $-1 $426 $543 $429 $548 forward $296 $-1 #
edge $-1 $546 -11.908552655921319 $434 -4.8840391175741971 $433 $600 forward 7 unknown #
vertex $-1 $428 $601 #
straight-curve $-1 2.9753820445238581 20.304848542669085 43.051658964844322 -0.69465836192734942 0 0.71933980857756763 I I #
edge $-1 $552 -4.2494744519244216 $430 -0.64489003970292846 $429 $602 forward 7 unknown #
point $-1 43.927121799371321 20.304848542669085 0.64489003970292846 #
coedge $-1 $433 $432 $543 $599 forward $424 $-1 #
point $-1 40.446215177264591 13.280335004321955 4.2494744519244207 #
vertex $-1 $437 $603 #
straight-curve $-1 43.927121799371321 0 4.2494744519244216 0 1 0 I I #
vertex $-1 $440 $604 #
point $-1 41.814657860704067 15.287338872421131 1.3928539795975441 #
vertex $-1 $444 $605 #
point $-1 41.814657860704067 18.297844674569902 1.3928539795975441 #
edge $-1 $559 29.234627611106127 $562 32.820336634866599 $449 $606 forward 7 unknown #
vertex $-1 $463 $607 #
straight-curve $-1 -50.782346124188152 -0.75482387775682547 4.2494744519244207 -1 0 0 I I #
edge $-1 $562 -1.2290153623696245 $460 5.1966938426225244 $459 $608 forward 7 unknown #
vertex $-1 $561 $609 #
straight-curve $-1 -43.927121799371314 -0.75482387775682547 0.66376542816395556 0.75470957328743171 0 0.6560590369687036 I I #
point $-1 -39.802235509017159 -0.75482387775682547 4.2494744519244216 #
point $-1 -43.927121799371321 -7.1805330827489744 0.66376542816394934 #
straight-curve $-1 -43.927121799371321 0 4.2494744519244216 0 -1 0 I I #
vertex $-1 $466 $610 #
point $-1 -40.550256847432443 -5.8953912417505467 1.7066771861508943 #
vertex $-1 $470 $611 #
point $-1 -40.550256847432443 -3.9676784802529035 1.7066771861508943 #
vertex $-1 $474 $612 #
point $-1 -40.550256847432443 -2.0399657187552585 1.7066771861508943 #
coedge $-1 $489 $488 $481 $574 forward $478 $-1 #
edge $-1 $575 29.234627611106127 $578 32.820336634866599 $573 $613 forward 7 unknown #
vertex $-1 $493 $614 #
straight-curve $-1 -50.782346124188152 10.593244813330598 4.2494744519244207 -1 0 0 I I #
edge $-1 $578 -6.9030497079133362 $490 -0.47734050292118724 $489 $615 forward 7 unknown #
vertex $-1 $577 $616 #
straight-curve $-1 -43.927121799371314 10.593244813330598 0.66376542816395556 0.75470957328743171 0 0.6560590369687036 I I #
point $-1 -39.802235509017159 10.593244813330598 4.2494744519244216 #
point $-1 -43.927121799371321 4.1675356083384489 0.66376542816394934 #
straight-curve $-1 -43.927121799371321 0 4.2494744519244216 0 -1 0 I I #
vertex $-1 $496 $617 #
point $-1 -40.550256847432443 5.4526774493368748 1.7066771861508943 #
vertex $-1 $500 $618 #
point $-1 -40.550256847432443 7.3803902108345198 1.7066771861508943 #
vertex $-1 $504 $619 #
point $-1 -40.550256847432443 9.3081029723321649 1.7066771861508943 #
straight-curve $-1 -43.927121799371321 20.304848542669085 0 0 0 -1 I I #
point $-1 -43.927121799371321 -20.304848542669085 -4.2494744519244216 #
straight-curve $-1 -43.927121799371321 0 -4.2494744519244216 0 1 0 I I #
point $-1 -43.927121799371321 20.304848542669085 -4.2494744519244216 #
straight-curve $-1 -35.928172895522479 -9.2992463386891373 4.2494744519244216 0 1 0 I I #
straight-curve $-1 -35.928172895522479 -9.2992463386891373 -4.2494744519244216 0 -1 0 I I #
point $-1 -35.928172895522479 -20.304848542669085 -4.2494744519244216 #
point $-1 -35.928172895522479 -20.304848542669085 4.2494744519244216 #
straight-curve $-1 0 -20.304848542669085 -4.2494744519244216 -1 0 0 I I #
straight-curve $-1 0 -20.304848542669085 4.2494744519244216 1 0 0 I I #
edge $-1 $552 -43.927121799371321 $546 -40.446215177264591 $543 $620 forward 7 unknown #
straight-curve $-1 40.446215177264605 8.3962958867477582 4.2494744519244279 0 -1 0 I I #
point $-1 40.446215177264591 20.304848542669077 4.2494744519244207 #
straight-curve $-1 43.927121799371321 20.304848542669085 0 0 0 -1 I I #
point $-1 43.927121799371321 20.304848542669085 4.2494744519244216 #
point $-1 41.107658775451611 15.287338872421131 1.4051947029226532 #
point $-1 41.107658775451611 18.297844674569902 1.4051947029226532 #
straight-curve $-1 -43.927121799371321 -0.75482387775682547 33.484102063030548 0 0 -1 I I #
point $-1 -43.927121799371321 -0.75482387775682547 4.2494744519244216 #
straight-curve $-1 -43.927121799371321 -1.98383924012645 0.66376542816395534 0 -1 0 I I #
point $-1 -43.927121799371321 -0.75482387775682547 0.66376542816394934 #
point $-1 -40.599582115591808 -5.8953912417505467 1.0012928810228265 #
point $-1 -40.599582115591808 -3.9676784802529035 1.0012928810228265 #
point $-1 -40.599582115591808 -2.0399657187552585 1.0012928810228265 #
straight-curve $-1 -43.927121799371321 10.593244813330598 33.484102063030548 0 0 -1 I I #
point $-1 -43.927121799371321 10.593244813330598 4.2494744519244216 #
straight-curve $-1 -43.927121799371321 3.6901951054172617 0.66376542816395534 0 -1 0 I I #
point $-1 -43.927121799371321 10.593244813330598 0.66376542816394934 #
point $-1 -40.599582115591808 5.4526774493368748 1.0012928810228265 #
point $-1 -40.599582115591808 7.3803902108345198 1.0012928810228265 #
point $-1 -40.599582115591808 9.3081029723321649 1.0012928810228265 #
straight-curve $-1 0 20.304848542669085 4.2494744519244216 -1 0 0 I I #
End-of-ACIS-data 