500 0 6 0           
7 Unknown 11 ACIS 5.0 NT 24 Fri Mar 26 14:33:23 1999 
-1 9.9999999999999995e-007 1e-010 
body $-1 $6 $-1 $7 #
body $-1 $8 $-1 $9 #
body $-1 $10 $-1 $11 #
body $-1 $12 $-1 $13 #
body $-1 $14 $-1 $15 #
body $-1 $16 $-1 $17 #
lump $-1 $-1 $18 $0 #
transform $-1 1 0 0 0 1 0 0 0 1 59.703970458082829 38.380212827816294 11.104574959993663 1 rotate no_reflect no_shear #
lump $-1 $-1 $19 $1 #
transform $-1 1 0 0 0 1 0 0 0 1 59.703970458082829 38.380212827816294 11.104574959993663 1 rotate no_reflect no_shear #
lump $-1 $-1 $20 $2 #
transform $-1 1 0 0 0 1 0 0 0 1 59.703970458082829 38.380212827816294 11.104574959993663 1 rotate no_reflect no_shear #
lump $-1 $-1 $21 $3 #
transform $-1 1 0 0 0 1 0 0 0 1 59.703970458082829 38.380212827816294 11.104574959993663 1 rotate no_reflect no_shear #
lump $-1 $-1 $22 $4 #
transform $-1 1 0 0 0 1 0 0 0 1 59.703970458082829 38.380212827816294 11.104574959993663 1 rotate no_reflect no_shear #
lump $-1 $-1 $23 $5 #
transform $-1 1 0 0 0 1 0 0 0 1 59.703970458082829 38.380212827816294 11.104574959993663 1 rotate no_reflect no_shear #
shell $-1 $-1 $-1 $24 $-1 $6 #
shell $-1 $-1 $-1 $25 $-1 $8 #
shell $-1 $-1 $-1 $26 $-1 $10 #
shell $-1 $-1 $-1 $27 $-1 $12 #
shell $-1 $-1 $-1 $28 $-1 $14 #
shell $-1 $-1 $-1 $29 $-1 $16 #
face $-1 $30 $31 $18 $-1 $32 forward single #
face $-1 $33 $34 $19 $-1 $35 forward single #
face $-1 $36 $37 $20 $-1 $38 reversed single #
face $-1 $39 $40 $21 $-1 $41 forward single #
face $-1 $42 $43 $22 $-1 $44 reversed single #
face $-1 $45 $46 $23 $-1 $47 forward single #
face $-1 $48 $49 $18 $-1 $50 reversed single #
loop $-1 $-1 $51 $24 #
plane-surface $-1 0 0 11.104574959993663 0 0 1 1 0 0 forward_v I I I I #
face $-1 $52 $53 $19 $-1 $54 forward single #
loop $-1 $-1 $55 $25 #
plane-surface $-1 -59.703970458082829 0 0 1 0 0 0 0 -1 forward_v I I I I #
face $-1 $56 $57 $20 $-1 $58 reversed single #
loop $-1 $-1 $59 $26 #
plane-surface $-1 33.287145218863323 0 172.43876299620251 0 -1 0 -0.5877852598018023 0 -0.80901698891910034 forward_v I I I I #
face $-1 $60 $61 $21 $-1 $62 forward single #
loop $-1 $63 $64 $27 #
cone-surface $-1 55.537378235401427 -6.4246182854876075 7.8093441288473624 -0.5877852598018023 0 -0.80901698891910034 0.80901698891910034 0 -0.5877852598018023 1 I I 0 1 1 forward I I I I #
face $-1 $65 $66 $22 $-1 $67 reversed single #
loop $-1 $-1 $68 $28 #
plane-surface $-1 33.287145218863323 25.530976256841075 172.43876299620251 0 1 0 0.5877852598018023 0 0.80901698891910034 forward_v I I I I #
face $-1 $69 $70 $23 $-1 $71 forward single #
loop $-1 $72 $73 $29 #
cone-surface $-1 55.537378235401427 31.955594542328683 7.8093441288473624 -0.5877852598018023 0 -0.80901698891910034 0.80901698891910034 0 -0.5877852598018023 1 I I 0 1 1 forward I I I I #
face $-1 $74 $75 $18 $-1 $76 reversed single #
loop $-1 $-1 $77 $30 #
plane-surface $-1 0 0 -11.104574959993663 0 0 1 1 0 0 forward_v I I I I #
coedge $-1 $78 $79 $80 $81 forward $31 $-1 #
face $-1 $82 $83 $19 $-1 $84 reversed single #
loop $-1 $-1 $85 $33 #
plane-surface $-1 0 0 11.104574959993663 0 0 1 1 0 0 forward_v I I I I #
coedge $-1 $86 $87 $88 $89 forward $34 $-1 #
face $-1 $90 $91 $20 $-1 $92 reversed single #
loop $-1 $-1 $93 $36 #
plane-surface $-1 -36.899082354943367 -6.4246182854876075 75.835710183176332 0.5877852598018023 0 0.80901698891910034 0.80901698891910034 0 -0.5877852598018023 forward_v I I I I #
coedge $-1 $94 $95 $96 $97 reversed $37 $-1 #
face $-1 $-1 $98 $21 $-1 $99 forward single #
loop $-1 $100 $101 $39 #
cone-surface $-1 54.831038552490092 -6.4246182854876075 6.8371509785535167 -0.5877852598018023 0 -0.80901698891910034 0.40450849445955017 0 -0.29389262990090115 1 I I -0.70710678118654746 0.70710678118654746 0.5 forward I I I I #
loop $-1 $-1 $102 $27 #
coedge $-1 $64 $64 $103 $104 reversed $40 $-1 #
face $-1 $105 $106 $22 $-1 $107 reversed single #
loop $-1 $-1 $108 $42 #
plane-surface $-1 -36.899082354943367 31.955594542328683 75.835710183176332 0.5877852598018023 0 0.80901698891910034 0.80901698891910034 0 -0.5877852598018023 forward_v I I I I #
coedge $-1 $109 $110 $111 $112 reversed $43 $-1 #
face $-1 $-1 $113 $23 $-1 $114 forward single #
loop $-1 $115 $116 $45 #
cone-surface $-1 54.831038552490092 31.955594542328683 6.8371509785535167 -0.5877852598018023 0 -0.80901698891910034 0.40450849445955017 0 -0.29389262990090115 1 I I -0.70710678118654746 0.70710678118654746 0.5 forward I I I I #
loop $-1 $-1 $117 $29 #
coedge $-1 $73 $73 $118 $119 reversed $46 $-1 #
face $-1 $120 $121 $18 $-1 $122 reversed single #
loop $-1 $-1 $123 $48 #
plane-surface $-1 0 -38.380212827816294 0 0 1 0 0 0 1 forward_v I I I I #
coedge $-1 $124 $125 $126 $127 forward $49 $-1 #
coedge $-1 $128 $51 $129 $130 forward $31 $-1 #
coedge $-1 $51 $128 $131 $132 forward $31 $-1 #
coedge $-1 $133 $134 $51 $81 reversed $135 $-1 #
edge $-1 $136 -38.380212827816294 $137 38.380212827816294 $80 $138 forward 7 unknown #
face $-1 $139 $140 $19 $-1 $141 reversed single #
loop $-1 $-1 $142 $52 #
plane-surface $-1 -71.087022280045119 -35.868220854917922 0 1 0 0 0 0 -1 forward_v I I I I #
coedge $-1 $143 $144 $86 $145 forward $53 $-1 #
coedge $-1 $146 $55 $85 $145 reversed $34 $-1 #
coedge $-1 $55 $146 $147 $148 reversed $34 $-1 #
coedge $-1 $149 $150 $55 $89 reversed $140 $-1 #
edge $-1 $151 -11.104574959993663 $152 11.104574959993663 $88 $153 forward 7 unknown #
face $-1 $154 $155 $20 $-1 $156 forward single #
loop $-1 $-1 $157 $56 #
plane-surface $-1 33.287145218863323 -12.849236570975215 172.43876299620251 0 1 0 0.5877852598018023 0 0.80901698891910034 forward_v I I I I #
coedge $-1 $158 $159 $160 $161 reversed $57 $-1 #
coedge $-1 $95 $59 $162 $163 reversed $37 $-1 #
coedge $-1 $59 $94 $158 $164 reversed $37 $-1 #
coedge $-1 $160 $165 $59 $97 forward $155 $-1 #
edge $-1 $166 -43.060397848651164 $167 -35.552107509309195 $96 $168 forward 7 unknown #
loop $-1 $-1 $103 $60 #
plane-surface $-1 -36.899082354943367 -6.4246182854876075 75.835710183176332 0.5877852598018023 0 0.80901698891910034 0.80901698891910034 0 -0.5877852598018023 forward_v I I I I #
loop $-1 $-1 $169 $39 #
coedge $-1 $101 $101 $102 $170 reversed $61 $-1 #
coedge $-1 $102 $102 $101 $170 forward $63 $-1 #
coedge $-1 $103 $103 $64 $104 forward $98 $-1 #
edge $-1 $171 0 $171 6.2831853071796004 $103 $172 forward 7 unknown #
face $-1 $173 $174 $22 $-1 $175 reversed single #
loop $-1 $-1 $111 $65 #
plane-surface $-1 59.703970458082829 0 0 -1 0 0 0 0 1 forward_v I I I I #
coedge $-1 $176 $177 $178 $179 reversed $66 $-1 #
coedge $-1 $110 $68 $180 $181 reversed $43 $-1 #
coedge $-1 $68 $109 $176 $182 reversed $43 $-1 #
coedge $-1 $178 $183 $68 $112 forward $106 $-1 #
edge $-1 $184 75.114806538107587 $185 80.569898888731629 $111 $186 forward 7 unknown #
loop $-1 $-1 $118 $69 #
plane-surface $-1 -36.899082354943367 31.955594542328683 75.835710183176332 0.5877852598018023 0 0.80901698891910034 0.80901698891910034 0 -0.5877852598018023 forward_v I I I I #
loop $-1 $-1 $187 $45 #
coedge $-1 $116 $116 $117 $188 reversed $70 $-1 #
coedge $-1 $117 $117 $116 $188 forward $72 $-1 #
coedge $-1 $118 $118 $73 $119 forward $113 $-1 #
edge $-1 $189 0 $189 6.2831853071796004 $118 $190 forward 7 unknown #
face $-1 $191 $192 $18 $-1 $193 reversed single #
loop $-1 $-1 $194 $74 #
plane-surface $-1 -59.703970458082829 0 0 1 0 0 0 0 -1 forward_v I I I I #
coedge $-1 $195 $131 $196 $197 forward $75 $-1 #
coedge $-1 $198 $77 $195 $199 forward $49 $-1 #
coedge $-1 $77 $198 $200 $201 forward $49 $-1 #
coedge $-1 $134 $133 $77 $127 reversed $135 $-1 #
edge $-1 $202 -38.380212827816294 $203 38.380212827816294 $126 $204 forward 7 unknown #
coedge $-1 $79 $78 $194 $205 forward $31 $-1 #
coedge $-1 $206 $207 $78 $130 reversed $192 $-1 #
edge $-1 $137 -59.703970458082829 $208 59.703970458082829 $129 $209 forward 7 unknown #
coedge $-1 $123 $210 $79 $132 reversed $75 $-1 #
edge $-1 $211 -59.703970458082829 $136 59.703970458082829 $131 $212 forward 7 unknown #
coedge $-1 $126 $80 $210 $213 forward $135 $-1 #
coedge $-1 $80 $126 $206 $214 reversed $135 $-1 #
loop $-1 $-1 $133 $191 #
vertex $-1 $81 $215 #
vertex $-1 $81 $216 #
straight-curve $-1 59.703970458082829 0 11.104574959993663 0 1 0 I I #
face $-1 $217 $218 $19 $-1 $219 reversed single #
loop $-1 $-1 $88 $82 #
plane-surface $-1 -65.395496369063977 -33.35622888201955 0 0 -1 0 0 0 -1 forward_v I I I I #
coedge $-1 $220 $221 $222 $223 forward $83 $-1 #
coedge $-1 $224 $85 $150 $225 forward $53 $-1 #
coedge $-1 $85 $224 $226 $227 forward $53 $-1 #
edge $-1 $228 -38.380212827816294 $152 -33.35622888201955 $85 $229 forward 7 unknown #
coedge $-1 $87 $86 $230 $231 reversed $34 $-1 #
coedge $-1 $232 $233 $87 $148 forward $218 $-1 #
edge $-1 $151 33.35622888201955 $234 38.380212827816294 $147 $235 forward 7 unknown #
coedge $-1 $222 $88 $233 $236 reversed $140 $-1 #
coedge $-1 $88 $222 $143 $225 reversed $140 $-1 #
vertex $-1 $148 $237 #
vertex $-1 $225 $238 #
straight-curve $-1 -59.703970458082829 -33.35622888201955 0 0 0 1 I I #
face $-1 $-1 $239 $20 $-1 $240 reversed single #
loop $-1 $-1 $96 $90 #
plane-surface $-1 0 0 11.104574959993663 0 0 1 1 0 0 forward_v I I I I #
coedge $-1 $241 $242 $243 $244 reversed $91 $-1 #
coedge $-1 $245 $93 $95 $164 forward $57 $-1 #
coedge $-1 $93 $245 $241 $246 forward $57 $-1 #
coedge $-1 $243 $96 $93 $161 forward $155 $-1 #
edge $-1 $167 -3.2123091427438037 $247 9.6369274282314112 $160 $248 forward 7 unknown #
coedge $-1 $249 $250 $94 $163 forward $239 $-1 #
edge $-1 $251 -80.569898888731629 $166 -75.114806538107587 $162 $252 forward 7 unknown #
edge $-1 $167 110.12718359934649 $251 119.40794091616567 $95 $253 forward 7 unknown #
coedge $-1 $96 $243 $249 $254 forward $155 $-1 #
vertex $-1 $97 $255 #
vertex $-1 $97 $256 #
straight-curve $-1 16.643572609431661 0 11.10457495999367 -1 0 0 I I #
coedge $-1 $169 $169 $-1 $257 reversed $100 $-1 #
edge $-1 $258 0 $258 6.2831853071796004 $101 $259 forward 7 unknown #
vertex $-1 $104 $260 #
ellipse-curve $-1 55.949825288411851 -6.4246182854876075 8.3770287846816487 0.5877852598018023 0 0.80901698891910034 0.80901698891910034 0 -0.5877852598018023 1 I I #
face $-1 $-1 $261 $22 $-1 $262 forward single #
loop $-1 $-1 $263 $105 #
plane-surface $-1 0 38.380212827816294 0 0 -1 0 0 0 -1 forward_v I I I I #
coedge $-1 $264 $108 $110 $182 forward $66 $-1 #
coedge $-1 $108 $264 $263 $265 reversed $66 $-1 #
coedge $-1 $266 $111 $108 $179 forward $106 $-1 #
edge $-1 $185 9.553178985676734 $267 22.402415556651952 $178 $268 forward 7 unknown #
coedge $-1 $269 $270 $109 $181 forward $261 $-1 #
edge $-1 $271 35.552107509309195 $184 43.060397848651164 $180 $272 forward 7 unknown #
edge $-1 $185 -119.40794091616567 $271 -110.12718359934649 $110 $273 forward 7 unknown #
coedge $-1 $111 $266 $269 $274 reversed $106 $-1 #
vertex $-1 $274 $275 #
vertex $-1 $112 $276 #
straight-curve $-1 59.703970458082829 25.530976256841075 86.219381498101257 0 0 -1 I I #
coedge $-1 $187 $187 $-1 $277 reversed $115 $-1 #
edge $-1 $278 0 $278 6.2831853071796004 $116 $279 forward 7 unknown #
vertex $-1 $119 $280 #
ellipse-curve $-1 55.949825288411851 31.955594542328683 8.3770287846816487 0.5877852598018023 0 0.80901698891910034 0.80901698891910034 0 -0.5877852598018023 1 I I #
face $-1 $-1 $135 $18 $-1 $281 reversed single #
loop $-1 $-1 $206 $120 #
plane-surface $-1 0 38.380212827816294 0 0 -1 0 0 0 -1 forward_v I I I I #
coedge $-1 $282 $196 $128 $205 reversed $121 $-1 #
coedge $-1 $210 $123 $124 $199 reversed $75 $-1 #
coedge $-1 $194 $283 $123 $197 reversed $121 $-1 #
edge $-1 $211 -11.104574959993663 $284 11.104574959993663 $196 $285 forward 7 unknown #
coedge $-1 $125 $124 $283 $286 forward $49 $-1 #
edge $-1 $203 -59.703970458082829 $284 59.703970458082829 $195 $287 forward 7 unknown #
coedge $-1 $207 $206 $125 $201 reversed $192 $-1 #
edge $-1 $288 -59.703970458082829 $202 59.703970458082829 $200 $289 forward 7 unknown #
vertex $-1 $127 $290 #
vertex $-1 $213 $291 #
straight-curve $-1 59.703970458082829 0 -11.104574959993663 0 -1 0 I I #
edge $-1 $208 -38.380212827816294 $211 38.380212827816294 $194 $292 forward 7 unknown #
coedge $-1 $200 $129 $134 $214 forward $192 $-1 #
coedge $-1 $129 $200 $282 $293 reversed $192 $-1 #
vertex $-1 $130 $294 #
straight-curve $-1 0 38.380212827816294 11.104574959993663 -1 0 0 I I #
coedge $-1 $131 $195 $133 $213 reversed $75 $-1 #
vertex $-1 $205 $295 #
straight-curve $-1 0 -38.380212827816294 11.104574959993663 1 0 0 I I #
edge $-1 $136 -11.104574959993663 $203 11.104574959993663 $133 $296 forward 7 unknown #
edge $-1 $137 -11.104574959993663 $202 11.104574959993663 $134 $297 forward 7 unknown #
point $-1 59.703970458082829 -38.380212827816294 11.104574959993663 #
point $-1 59.703970458082829 38.380212827816294 11.104574959993663 #
face $-1 $-1 $298 $19 $-1 $299 reversed single #
loop $-1 $-1 $147 $139 #
plane-surface $-1 0 0 -11.104574959993663 0 0 1 1 0 0 forward_v I I I I #
coedge $-1 $300 $142 $301 $302 reversed $83 $-1 #
coedge $-1 $142 $300 $224 $303 reversed $83 $-1 #
coedge $-1 $150 $149 $142 $223 reversed $140 $-1 #
edge $-1 $304 -11.104574959993663 $305 11.104574959993663 $222 $306 forward 7 unknown #
coedge $-1 $144 $143 $221 $303 forward $53 $-1 #
edge $-1 $152 -5.6915259109811416 $304 5.6915259109811416 $150 $307 forward 7 unknown #
coedge $-1 $308 $230 $144 $227 reversed $298 $-1 #
edge $-1 $309 -71.087022280045119 $228 -59.703970458082829 $226 $310 forward 7 unknown #
vertex $-1 $231 $311 #
straight-curve $-1 -59.703970458082829 0 11.104574959993663 0 1 0 I I #
coedge $-1 $226 $312 $146 $231 forward $298 $-1 #
edge $-1 $234 -11.104574959993663 $228 11.104574959993663 $230 $313 forward 7 unknown #
coedge $-1 $301 $147 $312 $314 forward $218 $-1 #
coedge $-1 $147 $301 $149 $236 forward $218 $-1 #
vertex $-1 $314 $315 #
straight-curve $-1 -59.703970458082829 0 -11.104574959993663 0 -1 0 I I #
edge $-1 $305 -5.6915259109811416 $151 5.6915259109811416 $149 $316 forward 7 unknown #
point $-1 -59.703970458082836 -33.35622888201955 -11.104574959993663 #
point $-1 -59.703970458082836 -33.35622888201955 11.104574959993663 #
loop $-1 $-1 $162 $154 #
plane-surface $-1 59.703970458082829 0 0 -1 0 0 0 0 1 forward_v I I I I #
coedge $-1 $242 $157 $159 $246 reversed $91 $-1 #
coedge $-1 $157 $241 $317 $318 reversed $91 $-1 #
coedge $-1 $165 $160 $157 $244 forward $155 $-1 #
edge $-1 $247 35.552107509309195 $319 43.060397848651164 $243 $320 forward 7 unknown #
coedge $-1 $159 $158 $250 $321 reversed $57 $-1 #
edge $-1 $322 -119.40794091616567 $247 -110.12718359934649 $241 $323 forward 7 unknown #
vertex $-1 $161 $324 #
straight-curve $-1 52.195680118740881 -3.2123091427438037 11.104574959993663 0 -1 0 I I #
coedge $-1 $317 $162 $165 $254 reversed $239 $-1 #
coedge $-1 $162 $317 $245 $321 forward $239 $-1 #
vertex $-1 $163 $325 #
straight-curve $-1 59.703970458082829 0 86.219381498101257 0 0 1 I I #
straight-curve $-1 -36.899082354943367 0 75.835710183176332 0.80901698891910034 0 -0.5877852598018023 I I #
edge $-1 $319 -12.849236570975215 $166 0 $249 $326 forward 7 unknown #
point $-1 59.703970458082829 0 11.104574959993663 #
point $-1 52.19568011874086 0 11.10457495999367 #
edge $-1 $327 1 $327 0 $169 $-1 forward 7 unknown #
vertex $-1 $170 $328 #
ellipse-curve $-1 55.124931182390995 -6.4246182854876075 7.2416594730130672 0.5877852598018023 0 0.80901698891910034 0.80901698891910034 0 -0.5877852598018023 1 I I #
point $-1 56.758842277330963 -6.4246182854876075 7.7892435248798568 #
loop $-1 $-1 $180 $173 #
plane-surface $-1 0 0 11.104574959993663 0 0 1 1 0 0 forward_v I I I I #
coedge $-1 $329 $330 $177 $265 forward $174 $-1 #
coedge $-1 $177 $176 $270 $331 reversed $66 $-1 #
edge $-1 $267 -82.19439235969233 $332 -72.913635042873153 $263 $333 forward 7 unknown #
coedge $-1 $183 $178 $330 $334 reversed $106 $-1 #
vertex $-1 $265 $335 #
straight-curve $-1 59.703970458082829 15.977797271164341 5.6494826093696204 0 1 0 I I #
coedge $-1 $336 $180 $183 $274 forward $261 $-1 #
coedge $-1 $180 $336 $264 $331 forward $261 $-1 #
vertex $-1 $181 $337 #
straight-curve $-1 16.643572609431661 25.530976256841075 11.10457495999367 1 0 0 I I #
straight-curve $-1 -36.899082354943367 25.530976256841075 75.835710183176332 -0.80901698891910034 0 0.5877852598018023 I I #
edge $-1 $184 25.530976256841075 $338 38.380212827816294 $183 $339 forward 7 unknown #
point $-1 59.703970458082829 25.530976256841075 11.104574959993663 #
point $-1 59.703970458082829 25.530976256841075 5.6494826093696275 #
edge $-1 $340 1 $340 0 $187 $-1 forward 7 unknown #
vertex $-1 $188 $341 #
ellipse-curve $-1 55.124931182390995 31.955594542328683 7.2416594730130672 0.5877852598018023 0 0.80901698891910034 0.80901698891910034 0 -0.5877852598018023 1 I I #
point $-1 56.758842277330963 31.955594542328683 7.7892435248798568 #
plane-surface $-1 59.703970458082829 0 0 -1 0 0 0 0 1 forward_v I I I I #
coedge $-1 $283 $194 $207 $293 forward $121 $-1 #
coedge $-1 $196 $282 $198 $286 reversed $121 $-1 #
vertex $-1 $286 $342 #
straight-curve $-1 -59.703970458082829 -38.380212827816294 0 0 0 -1 I I #
edge $-1 $284 -38.380212827816294 $288 38.380212827816294 $283 $343 forward 7 unknown #
straight-curve $-1 0 -38.380212827816294 -11.104574959993663 -1 0 0 I I #
vertex $-1 $201 $344 #
straight-curve $-1 0 38.380212827816294 -11.104574959993663 1 0 0 I I #
point $-1 59.703970458082829 38.380212827816294 -11.104574959993663 #
point $-1 59.703970458082829 -38.380212827816294 -11.104574959993663 #
straight-curve $-1 -59.703970458082829 0 11.104574959993663 0 -1 0 I I #
edge $-1 $208 -11.104574959993663 $288 11.104574959993663 $207 $345 forward 7 unknown #
point $-1 -59.703970458082829 38.380212827816294 11.104574959993663 #
point $-1 -59.703970458082829 -38.380212827816294 11.104574959993663 #
straight-curve $-1 59.703970458082829 -38.380212827816294 0 0 0 -1 I I #
straight-curve $-1 59.703970458082829 38.380212827816294 0 0 0 -1 I I #
loop $-1 $-1 $230 $217 #
plane-surface $-1 0 -38.380212827816294 0 0 1 0 0 0 1 forward_v I I I I #
coedge $-1 $221 $220 $308 $346 reversed $83 $-1 #
coedge $-1 $233 $232 $220 $302 forward $218 $-1 #
edge $-1 $347 -2.5119919728983717 $305 2.5119919728983717 $220 $348 forward 7 unknown #
edge $-1 $304 -2.5119919728983717 $309 2.5119919728983717 $221 $349 forward 7 unknown #
vertex $-1 $225 $350 #
vertex $-1 $236 $351 #
straight-curve $-1 -71.087022280045119 -33.35622888201955 0 0 0 -1 I I #
straight-curve $-1 -65.395496369063977 -33.35622888201955 11.104574959993663 -1 0 0 I I #
coedge $-1 $312 $226 $300 $346 forward $298 $-1 #
vertex $-1 $303 $352 #
straight-curve $-1 0 -38.380212827816294 11.104574959993663 1 0 0 I I #
point $-1 -59.703970458082829 -38.380212827816294 11.104574959993663 #
coedge $-1 $230 $308 $232 $314 reversed $298 $-1 #
straight-curve $-1 -59.703970458082829 -38.380212827816294 0 0 0 1 I I #
edge $-1 $234 -5.6915259109811487 $347 5.6915259109811416 $312 $353 forward 7 unknown #
point $-1 -59.703970458082829 -38.380212827816294 -11.104574959993663 #
straight-curve $-1 -65.395496369063977 -33.35622888201955 -11.104574959993663 1 0 0 I I #
coedge $-1 $250 $249 $242 $318 forward $239 $-1 #
edge $-1 $319 75.114806538107587 $322 80.569898888731629 $317 $354 forward 7 unknown #
vertex $-1 $254 $355 #
straight-curve $-1 16.643572609431661 -12.849236570975215 11.10457495999367 1 0 0 I I #
edge $-1 $322 -9.6369274282314112 $251 3.2123091427438037 $250 $356 forward 7 unknown #
vertex $-1 $321 $357 #
straight-curve $-1 -36.899082354943367 -12.849236570975215 75.835710183176332 -0.80901698891910034 0 0.5877852598018023 I I #
point $-1 52.19568011874086 -12.849236570975215 11.10457495999367 #
point $-1 59.703970458082829 0 5.6494826093696275 #
straight-curve $-1 59.703970458082829 0 11.104574959993663 0 1 0 I I #
vertex $-1 $257 $358 #
point $-1 55.933948171310092 -6.4246182854876075 6.6538742132112647 #
coedge $-1 $330 $263 $336 $359 reversed $174 $-1 #
coedge $-1 $263 $329 $266 $334 forward $174 $-1 #
edge $-1 $332 -22.402415556651952 $271 -9.553178985676734 $270 $360 forward 7 unknown #
vertex $-1 $265 $361 #
straight-curve $-1 -6.7926893547905749 38.380212827816294 53.962134876762661 -0.80901698891910034 0 0.5877852598018023 I I #
edge $-1 $338 -11.104574959993663 $267 -5.6494826093696249 $266 $362 forward 7 unknown #
point $-1 59.703970458082829 38.380212827816294 5.6494826093696249 #
coedge $-1 $270 $269 $329 $359 forward $261 $-1 #
point $-1 52.19568011874086 25.530976256841075 11.10457495999367 #
vertex $-1 $274 $363 #
straight-curve $-1 59.703970458082829 0 11.104574959993663 0 1 0 I I #
vertex $-1 $277 $364 #
point $-1 55.933948171310092 31.955594542328683 6.6538742132112647 #
point $-1 -59.703970458082829 -38.380212827816294 -11.104574959993663 #
straight-curve $-1 -59.703970458082829 0 -11.104574959993663 0 1 0 I I #
point $-1 -59.703970458082829 38.380212827816294 -11.104574959993663 #
straight-curve $-1 -59.703970458082829 38.380212827816294 0 0 0 -1 I I #
edge $-1 $309 -11.104574959993663 $347 11.104574959993663 $300 $365 forward 7 unknown #
vertex $-1 $302 $366 #
straight-curve $-1 -71.087022280045119 -35.868220854917922 -11.104574959993663 0 1 0 I I #
straight-curve $-1 -71.087022280045119 -35.868220854917922 11.104574959993663 0 -1 0 I I #
point $-1 -71.087022280045119 -33.35622888201955 11.104574959993663 #
point $-1 -71.087022280045119 -33.35622888201955 -11.104574959993663 #
point $-1 -71.087022280045119 -38.380212827816294 11.104574959993663 #
straight-curve $-1 -65.395496369063977 -38.380212827816294 -11.104574959993663 -1 0 0 I I #
straight-curve $-1 59.703970458082829 -12.849236570975215 86.219381498101257 0 0 -1 I I #
point $-1 59.703970458082829 -12.849236570975215 11.104574959993663 #
straight-curve $-1 59.703970458082829 -3.2123091427438037 5.6494826093696204 0 1 0 I I #
point $-1 59.703970458082829 -12.849236570975215 5.6494826093696275 #
point $-1 54.53714592258919 -6.4246182854876075 6.4326424840939662 #
edge $-1 $338 -59.703970458082829 $332 -52.19568011874086 $329 $367 forward 7 unknown #
straight-curve $-1 52.195680118740881 15.977797271164341 11.104574959993663 0 -1 0 I I #
point $-1 52.19568011874086 38.380212827816294 11.10457495999367 #
straight-curve $-1 59.703970458082829 38.380212827816294 0 0 0 -1 I I #
point $-1 59.703970458082829 38.380212827816294 11.104574959993663 #
point $-1 54.53714592258919 31.955594542328683 6.4326424840939662 #
straight-curve $-1 -71.087022280045119 -38.380212827816294 0 0 0 -1 I I #
point $-1 -71.087022280045119 -38.380212827816294 -11.104574959993663 #
straight-curve $-1 0 38.380212827816294 11.104574959993663 -1 0 0 I I #
End-of-ACIS-data 