500 0 11 0           
7 Unknown 11 ACIS 5.0 NT 24 Thu Mar 25 21:45:36 1999 
-1 9.9999999999999995e-007 1e-010 
body $-1 $11 $-1 $12 #
body $-1 $13 $-1 $14 #
body $-1 $15 $-1 $16 #
body $-1 $17 $-1 $18 #
body $-1 $19 $-1 $20 #
body $-1 $21 $-1 $22 #
body $-1 $23 $-1 $24 #
body $-1 $25 $-1 $26 #
body $-1 $27 $-1 $28 #
body $-1 $29 $-1 $30 #
body $-1 $31 $-1 $32 #
lump $-1 $-1 $33 $0 #
transform $-1 1 0 0 0 1 0 0 0 1 58.330637531662958 30.475697570331647 9.1568463786488294 1 rotate no_reflect no_shear #
lump $-1 $-1 $34 $1 #
transform $-1 1 0 0 0 1 0 0 0 1 58.330637531662958 30.475697570331647 9.1568463786488294 1 rotate no_reflect no_shear #
lump $-1 $-1 $35 $2 #
transform $-1 1 0 0 0 1 0 0 0 1 58.330637531662958 30.475697570331647 9.1568463786488294 1 rotate no_reflect no_shear #
lump $-1 $-1 $36 $3 #
transform $-1 1 0 0 0 1 0 0 0 1 58.330637531662958 30.475697570331647 9.1568463786488294 1 rotate no_reflect no_shear #
lump $-1 $-1 $37 $4 #
transform $-1 1 0 0 0 1 0 0 0 1 58.330637531662958 30.475697570331647 9.1568463786488294 1 rotate no_reflect no_shear #
lump $-1 $-1 $38 $5 #
transform $-1 1 0 0 0 1 0 0 0 1 58.330637531662958 30.475697570331647 9.1568463786488294 1 rotate no_reflect no_shear #
lump $-1 $-1 $39 $6 #
transform $-1 1 0 0 0 1 0 0 0 1 58.330637531662958 30.475697570331647 9.1568463786488294 1 rotate no_reflect no_shear #
lump $-1 $-1 $40 $7 #
transform $-1 1 0 0 0 1 0 0 0 1 58.330637531662958 30.475697570331647 9.1568463786488294 1 rotate no_reflect no_shear #
lump $-1 $-1 $41 $8 #
transform $-1 1 0 0 0 1 0 0 0 1 58.330637531662958 30.475697570331647 9.1568463786488294 1 rotate no_reflect no_shear #
lump $-1 $-1 $42 $9 #
transform $-1 1 0 0 0 1 0 0 0 1 58.330637531662958 30.475697570331647 9.1568463786488294 1 rotate no_reflect no_shear #
lump $-1 $-1 $43 $10 #
transform $-1 1 0 0 0 1 0 0 0 1 58.330637531662958 30.475697570331647 9.1568463786488294 1 rotate no_reflect no_shear #
shell $-1 $-1 $-1 $44 $-1 $11 #
shell $-1 $-1 $-1 $45 $-1 $13 #
shell $-1 $-1 $-1 $46 $-1 $15 #
shell $-1 $-1 $-1 $47 $-1 $17 #
shell $-1 $-1 $-1 $48 $-1 $19 #
shell $-1 $-1 $-1 $49 $-1 $21 #
shell $-1 $-1 $-1 $50 $-1 $23 #
shell $-1 $-1 $-1 $51 $-1 $25 #
shell $-1 $-1 $-1 $52 $-1 $27 #
shell $-1 $-1 $-1 $53 $-1 $29 #
shell $-1 $-1 $-1 $54 $-1 $31 #
face $-1 $55 $56 $33 $-1 $57 forward single #
face $-1 $58 $59 $34 $-1 $60 forward single #
face $-1 $61 $62 $35 $-1 $63 reversed single #
face $-1 $64 $65 $36 $-1 $66 forward single #
face $-1 $67 $68 $37 $-1 $69 forward single #
face $-1 $70 $71 $38 $-1 $72 reversed single #
face $-1 $73 $74 $39 $-1 $75 forward single #
face $-1 $76 $77 $40 $-1 $78 forward single #
face $-1 $79 $80 $41 $-1 $81 reversed single #
face $-1 $82 $83 $42 $-1 $84 forward single #
face $-1 $85 $86 $43 $-1 $87 forward single #
face $-1 $88 $89 $33 $-1 $90 reversed single #
loop $-1 $-1 $91 $44 #
plane-surface $-1 0 0 9.1568463786488294 0 0 1 1 0 0 forward_v I I I I #
face $-1 $92 $93 $34 $-1 $94 reversed single #
loop $-1 $-1 $95 $45 #
plane-surface $-1 -54.686303774737496 0 -2.6624957030292631 0 0 1 1 0 0 forward_v I I I I #
face $-1 $96 $97 $35 $-1 $98 reversed single #
loop $-1 $-1 $99 $46 #
plane-surface $-1 21.511327332895966 61.011779922034634 130.67982277239085 1 0 0 0 -0.6560590369687036 -0.75470957328743171 forward_v I I I I #
face $-1 $100 $101 $36 $-1 $102 forward single #
loop $-1 $103 $104 $47 #
cone-surface $-1 27.572647579330308 25.120109700985669 4.0484623919629676 0 -0.6560590369687036 -0.75470957328743171 1.5 0 0 1 I I 0 1 1.5 forward I I I I #
face $-1 $105 $106 $37 $-1 $107 forward single #
loop $-1 $108 $109 $48 #
cone-surface $-1 36.664627948981803 25.120109700985669 4.0484623919629676 0 -0.6560590369687036 -0.75470957328743171 1.5 0 0 1 I I 0 1 1.5 forward I I I I #
face $-1 $110 $111 $38 $-1 $112 reversed single #
loop $-1 $-1 $113 $49 #
plane-surface $-1 -14.441064161430392 -103.8930177252208 93.613584687151729 -1 0 0 0 -0.62932039886446345 0.77714595512881146 forward_v I I I I #
face $-1 $114 $115 $39 $-1 $116 forward single #
loop $-1 $117 $118 $50 #
cone-surface $-1 -27.470513716451467 -25.50917964507877 4.6527185966510292 0 0.62932039886446345 -0.77714595512881146 2 0 0 1 I I 0 1 2 forward I I I I #
face $-1 $119 $120 $40 $-1 $121 forward single #
loop $-1 $122 $123 $51 #
cone-surface $-1 -19.652843983438821 -25.50917964507877 4.6527185966510292 0 0.62932039886446345 -0.77714595512881146 2 0 0 1 I I 0 1 2 forward I I I I #
face $-1 $124 $125 $41 $-1 $126 reversed single #
loop $-1 $-1 $127 $52 #
plane-surface $-1 40.245239613307099 -103.8930177252208 93.613584687151729 -1 0 0 0 -0.62932039886446345 0.77714595512881146 forward_v I I I I #
face $-1 $128 $129 $42 $-1 $130 forward single #
loop $-1 $131 $132 $53 #
cone-surface $-1 27.215790058286032 -25.50917964507877 4.6527185966510292 0 0.62932039886446345 -0.77714595512881146 2 0 0 1 I I 0 1 2 forward I I I I #
face $-1 $133 $134 $43 $-1 $135 forward single #
loop $-1 $136 $137 $54 #
cone-surface $-1 35.033459791298682 -25.50917964507877 4.6527185966510292 0 0.62932039886446345 -0.77714595512881146 2 0 0 1 I I 0 1 2 forward I I I I #
face $-1 $138 $139 $33 $-1 $140 reversed single #
loop $-1 $-1 $141 $55 #
plane-surface $-1 0 0 -9.1568463786488294 0 0 1 1 0 0 forward_v I I I I #
coedge $-1 $142 $143 $144 $145 forward $56 $-1 #
face $-1 $146 $147 $34 $-1 $148 reversed single #
loop $-1 $-1 $149 $58 #
plane-surface $-1 -54.686303774737496 0 -7.6486692067274848 0 0 1 1 0 0 forward_v I I I I #
coedge $-1 $150 $151 $152 $153 forward $59 $-1 #
face $-1 $154 $155 $35 $-1 $156 reversed single #
loop $-1 $-1 $157 $61 #
plane-surface $-1 32.118637764156048 -15.524903847551997 42.634441650180449 0 0.6560590369687036 0.75470957328743171 1 0 0 forward_v I I I I #
coedge $-1 $158 $159 $160 $161 reversed $62 $-1 #
face $-1 $-1 $162 $36 $-1 $163 forward single #
loop $-1 $164 $165 $64 #
cone-surface $-1 27.572647579330308 23.016994698919227 1.6291053884869555 0 -0.6560590369687036 -0.75470957328743171 0.75 0 0 1 I I -0.70710678118654757 0.70710678118654757 0.75 forward I I I I #
loop $-1 $-1 $166 $47 #
coedge $-1 $104 $104 $167 $168 reversed $65 $-1 #
face $-1 $-1 $169 $37 $-1 $170 forward single #
loop $-1 $171 $172 $67 #
cone-surface $-1 36.664627948981803 23.016994698919227 1.6291053884869555 0 -0.6560590369687036 -0.75470957328743171 0.75 0 0 1 I I -0.70710678118654757 0.70710678118654757 0.75 forward I I I I #
loop $-1 $-1 $173 $48 #
coedge $-1 $109 $109 $174 $175 reversed $68 $-1 #
face $-1 $176 $177 $38 $-1 $178 reversed single #
loop $-1 $-1 $179 $70 #
plane-surface $-1 -23.561678849945146 -30.475697570331647 2.9507466515183154 0 -0.62932039886446345 0.77714595512881146 1 0 0 forward_v I I I I #
coedge $-1 $180 $181 $182 $183 reversed $71 $-1 #
face $-1 $-1 $184 $39 $-1 $185 forward single #
loop $-1 $186 $187 $73 #
cone-surface $-1 -27.470513716451467 -23.745288695278326 2.4744947230896663 0 0.62932039886446345 -0.77714595512881146 1 0 0 1 I I -0.70710678118654746 0.70710678118654746 1 forward I I I I #
loop $-1 $-1 $188 $50 #
coedge $-1 $118 $118 $189 $190 reversed $74 $-1 #
face $-1 $-1 $191 $40 $-1 $192 forward single #
loop $-1 $193 $194 $76 #
cone-surface $-1 -19.652843983438821 -23.745288695278326 2.4744947230896663 0 0.62932039886446345 -0.77714595512881146 1 0 0 1 I I -0.70710678118654746 0.70710678118654746 1 forward I I I I #
loop $-1 $-1 $195 $51 #
coedge $-1 $123 $123 $196 $197 reversed $77 $-1 #
face $-1 $198 $199 $41 $-1 $200 reversed single #
loop $-1 $-1 $201 $79 #
plane-surface $-1 31.124624924792343 -30.475697570331647 2.9507466515183154 0 -0.62932039886446345 0.77714595512881146 1 0 0 forward_v I I I I #
coedge $-1 $202 $203 $204 $205 reversed $80 $-1 #
face $-1 $-1 $206 $42 $-1 $207 forward single #
loop $-1 $208 $209 $82 #
cone-surface $-1 27.215790058286032 -23.745288695278326 2.4744947230896663 0 0.62932039886446345 -0.77714595512881146 1 0 0 1 I I -0.70710678118654746 0.70710678118654746 1 forward I I I I #
loop $-1 $-1 $210 $53 #
coedge $-1 $132 $132 $211 $212 reversed $83 $-1 #
face $-1 $-1 $213 $43 $-1 $214 forward single #
loop $-1 $215 $216 $85 #
cone-surface $-1 35.033459791298682 -23.745288695278326 2.4744947230896663 0 0.62932039886446345 -0.77714595512881146 1 0 0 1 I I -0.70710678118654746 0.70710678118654746 1 forward I I I I #
loop $-1 $-1 $217 $54 #
coedge $-1 $137 $137 $218 $219 reversed $86 $-1 #
face $-1 $220 $221 $33 $-1 $222 reversed single #
loop $-1 $-1 $223 $88 #
plane-surface $-1 0 -30.475697570331647 0 0 1 0 0 0 1 forward_v I I I I #
coedge $-1 $224 $225 $226 $227 forward $89 $-1 #
coedge $-1 $228 $91 $229 $230 forward $56 $-1 #
coedge $-1 $91 $228 $231 $232 forward $56 $-1 #
coedge $-1 $233 $234 $91 $145 reversed $235 $-1 #
edge $-1 $236 -30.475697570331647 $237 30.475697570331647 $144 $238 forward 7 unknown #
face $-1 $239 $240 $34 $-1 $241 reversed single #
loop $-1 $-1 $242 $92 #
plane-surface $-1 -51.041970017812034 0 -5.155582454878374 -1 0 0 0 0 1 forward_v I I I I #
coedge $-1 $243 $244 $245 $246 forward $93 $-1 #
coedge $-1 $247 $95 $248 $249 reversed $59 $-1 #
coedge $-1 $95 $247 $250 $251 reversed $59 $-1 #
coedge $-1 $242 $252 $95 $153 reversed $147 $-1 #
edge $-1 $253 -30.475697570331647 $254 30.475697570331647 $152 $255 forward 7 unknown #
face $-1 $256 $257 $35 $-1 $258 forward single #
loop $-1 $-1 $259 $96 #
plane-surface $-1 42.72594819541613 61.011779922034634 130.67982277239085 -1 0 0 0 0.6560590369687036 0.75470957328743171 forward_v I I I I #
coedge $-1 $260 $261 $262 $263 reversed $97 $-1 #
coedge $-1 $159 $99 $264 $265 reversed $62 $-1 #
coedge $-1 $99 $158 $260 $266 reversed $62 $-1 #
coedge $-1 $262 $267 $99 $161 forward $257 $-1 #
edge $-1 $268 0.030192390685670034 $269 7.5192266806977983 $160 $270 forward 7 unknown #
loop $-1 $-1 $167 $100 #
plane-surface $-1 32.118637764156048 -15.524903847551997 42.634441650180449 0 0.6560590369687036 0.75470957328743171 1 0 0 forward_v I I I I #
loop $-1 $-1 $271 $64 #
coedge $-1 $165 $165 $166 $272 reversed $101 $-1 #
coedge $-1 $166 $166 $165 $272 forward $103 $-1 #
coedge $-1 $167 $167 $104 $168 forward $162 $-1 #
edge $-1 $273 7.8837827277501867e-017 $273 6.2831853071796004 $167 $274 forward 7 unknown #
loop $-1 $-1 $174 $105 #
plane-surface $-1 32.118637764156048 -15.524903847551997 42.634441650180449 0 0.6560590369687036 0.75470957328743171 1 0 0 forward_v I I I I #
loop $-1 $-1 $275 $67 #
coedge $-1 $172 $172 $173 $276 reversed $106 $-1 #
coedge $-1 $173 $173 $172 $276 forward $108 $-1 #
coedge $-1 $174 $174 $109 $175 forward $169 $-1 #
edge $-1 $277 7.8837827277501867e-017 $277 6.2831853071796004 $174 $278 forward 7 unknown #
face $-1 $279 $280 $38 $-1 $281 reversed single #
loop $-1 $-1 $282 $110 #
plane-surface $-1 -32.682293538459902 -103.8930177252208 93.613584687151729 1 0 0 0 0.62932039886446345 -0.77714595512881146 forward_v I I I I #
coedge $-1 $283 $284 $285 $286 reversed $111 $-1 #
coedge $-1 $181 $113 $287 $288 reversed $71 $-1 #
coedge $-1 $113 $180 $283 $289 reversed $71 $-1 #
coedge $-1 $285 $290 $113 $183 forward $291 $-1 #
edge $-1 $292 21.470811292278754 $293 29.134706040912569 $182 $294 forward 7 unknown #
loop $-1 $-1 $189 $114 #
plane-surface $-1 -23.561678849945146 -30.475697570331647 2.9507466515183154 0 -0.62932039886446345 0.77714595512881146 1 0 0 forward_v I I I I #
loop $-1 $-1 $295 $73 #
coedge $-1 $187 $187 $188 $296 reversed $115 $-1 #
coedge $-1 $188 $188 $187 $296 forward $117 $-1 #
coedge $-1 $189 $189 $118 $190 forward $184 $-1 #
edge $-1 $297 -2.2882401637647221e-016 $297 6.2831853071796004 $189 $298 forward 7 unknown #
loop $-1 $-1 $196 $119 #
plane-surface $-1 -23.561678849945146 -30.475697570331647 2.9507466515183154 0 -0.62932039886446345 0.77714595512881146 1 0 0 forward_v I I I I #
loop $-1 $-1 $299 $76 #
coedge $-1 $194 $194 $195 $300 reversed $120 $-1 #
coedge $-1 $195 $195 $194 $300 forward $122 $-1 #
coedge $-1 $196 $196 $123 $197 forward $191 $-1 #
edge $-1 $301 -2.2882401637647221e-016 $301 6.2831853071796004 $196 $302 forward 7 unknown #
face $-1 $303 $304 $41 $-1 $305 reversed single #
loop $-1 $-1 $306 $124 #
plane-surface $-1 22.004010236277587 -103.8930177252208 93.613584687151729 1 0 0 0 0.62932039886446345 -0.77714595512881146 forward_v I I I I #
coedge $-1 $307 $308 $309 $310 reversed $125 $-1 #
coedge $-1 $203 $127 $311 $312 reversed $80 $-1 #
coedge $-1 $127 $202 $307 $313 reversed $80 $-1 #
coedge $-1 $309 $314 $127 $205 forward $315 $-1 #
edge $-1 $316 21.470811292278754 $317 29.134706040912569 $204 $318 forward 7 unknown #
loop $-1 $-1 $211 $128 #
plane-surface $-1 31.124624924792343 -30.475697570331647 2.9507466515183154 0 -0.62932039886446345 0.77714595512881146 1 0 0 forward_v I I I I #
loop $-1 $-1 $319 $82 #
coedge $-1 $209 $209 $210 $320 reversed $129 $-1 #
coedge $-1 $210 $210 $209 $320 forward $131 $-1 #
coedge $-1 $211 $211 $132 $212 forward $206 $-1 #
edge $-1 $321 -2.2882401637647221e-016 $321 6.2831853071796004 $211 $322 forward 7 unknown #
loop $-1 $-1 $218 $133 #
plane-surface $-1 31.124624924792343 -30.475697570331647 2.9507466515183154 0 -0.62932039886446345 0.77714595512881146 1 0 0 forward_v I I I I #
loop $-1 $-1 $323 $85 #
coedge $-1 $216 $216 $217 $324 reversed $134 $-1 #
coedge $-1 $217 $217 $216 $324 forward $136 $-1 #
coedge $-1 $218 $218 $137 $219 forward $213 $-1 #
edge $-1 $325 -2.2882401637647221e-016 $325 6.2831853071796004 $218 $326 forward 7 unknown #
face $-1 $327 $328 $33 $-1 $329 reversed single #
loop $-1 $-1 $330 $138 #
plane-surface $-1 -58.330637531662958 0 0 1 0 0 0 0 -1 forward_v I I I I #
coedge $-1 $331 $231 $332 $333 forward $139 $-1 #
coedge $-1 $334 $141 $331 $335 forward $89 $-1 #
coedge $-1 $141 $334 $336 $337 forward $89 $-1 #
coedge $-1 $234 $233 $141 $227 reversed $235 $-1 #
edge $-1 $338 -30.475697570331647 $339 30.475697570331647 $226 $340 forward 7 unknown #
coedge $-1 $143 $142 $341 $342 forward $56 $-1 #
coedge $-1 $343 $344 $142 $230 reversed $328 $-1 #
edge $-1 $237 -58.330637531662958 $345 58.330637531662958 $229 $346 forward 7 unknown #
coedge $-1 $223 $347 $143 $232 reversed $139 $-1 #
edge $-1 $348 -58.330637531662958 $236 58.330637531662958 $231 $349 forward 7 unknown #
coedge $-1 $226 $144 $347 $350 forward $235 $-1 #
coedge $-1 $144 $226 $343 $351 reversed $235 $-1 #
loop $-1 $-1 $233 $327 #
vertex $-1 $145 $352 #
vertex $-1 $145 $353 #
straight-curve $-1 58.330637531662958 0 9.1568463786488294 0 1 0 I I #
face $-1 $354 $355 $34 $-1 $356 reversed single #
loop $-1 $-1 $357 $146 #
plane-surface $-1 0 -30.475697570331647 0 0 1 0 0 0 1 forward_v I I I I #
coedge $-1 $245 $152 $358 $359 reversed $147 $-1 #
coedge $-1 $360 $149 $357 $361 reversed $93 $-1 #
coedge $-1 $149 $360 $362 $363 reversed $93 $-1 #
coedge $-1 $252 $242 $149 $246 reversed $147 $-1 #
edge $-1 $364 -30.475697570331647 $365 30.475697570331647 $245 $366 forward 7 unknown #
coedge $-1 $151 $150 $367 $368 reversed $59 $-1 #
coedge $-1 $369 $370 $150 $249 forward $371 $-1 #
edge $-1 $372 -30.98748564429421 $254 -23.698818130443286 $248 $373 forward 7 unknown #
coedge $-1 $374 $358 $151 $251 forward $240 $-1 #
edge $-1 $253 23.698818130443286 $375 30.98748564429421 $250 $376 forward 7 unknown #
coedge $-1 $152 $245 $369 $377 reversed $147 $-1 #
vertex $-1 $251 $378 #
vertex $-1 $249 $379 #
straight-curve $-1 -51.041970017812034 0 -2.6624957030292631 0 1 0 I I #
face $-1 $-1 $380 $35 $-1 $381 reversed single #
loop $-1 $-1 $160 $154 #
plane-surface $-1 0 0 9.1568463786488294 0 0 1 1 0 0 forward_v I I I I #
coedge $-1 $382 $383 $384 $385 reversed $155 $-1 #
coedge $-1 $386 $157 $159 $266 forward $97 $-1 #
coedge $-1 $157 $386 $382 $387 forward $97 $-1 #
coedge $-1 $384 $160 $157 $263 forward $257 $-1 #
edge $-1 $269 5.4520084508179423 $388 26.666629313338106 $262 $389 forward 7 unknown #
coedge $-1 $390 $391 $158 $265 forward $380 $-1 #
edge $-1 $392 -62.693183333897466 $268 -56.183065007546595 $264 $393 forward 7 unknown #
edge $-1 $269 51.028327307575253 $392 60.951395140663308 $159 $394 forward 7 unknown #
coedge $-1 $160 $384 $390 $395 forward $257 $-1 #
vertex $-1 $265 $396 #
vertex $-1 $161 $397 #
straight-curve $-1 21.511327332895966 30.505889961017317 9.1568463786488294 0 -1 0 I I #
coedge $-1 $271 $271 $-1 $398 reversed $164 $-1 #
edge $-1 $399 0 $399 6.2831853071796004 $165 $400 forward 7 unknown #
vertex $-1 $168 $401 #
ellipse-curve $-1 27.572647579330308 26.731180425325576 5.9017872154733979 0 0.6560590369687036 0.75470957328743171 1.5 0 0 1 I I #
coedge $-1 $275 $275 $-1 $402 reversed $171 $-1 #
edge $-1 $403 0 $403 6.2831853071796004 $172 $404 forward 7 unknown #
vertex $-1 $175 $405 #
ellipse-curve $-1 36.664627948981803 26.731180425325576 5.9017872154733979 0 0.6560590369687036 0.75470957328743171 1.5 0 0 1 I I #
face $-1 $-1 $291 $38 $-1 $406 forward single #
loop $-1 $-1 $407 $176 #
plane-surface $-1 0 -30.475697570331647 0 0 1 0 0 0 1 forward_v I I I I #
coedge $-1 $408 $409 $410 $411 reversed $177 $-1 #
coedge $-1 $412 $179 $181 $289 forward $111 $-1 #
coedge $-1 $179 $412 $408 $413 forward $111 $-1 #
coedge $-1 $410 $182 $179 $286 forward $291 $-1 #
edge $-1 $293 2.6602247364578187 $414 20.901454113487329 $285 $415 forward 7 unknown #
coedge $-1 $416 $417 $180 $288 forward $280 $-1 #
edge $-1 $418 -43.856045692057549 $292 -37.649945964927035 $287 $419 forward 7 unknown #
edge $-1 $293 -9.861589960104121 $418 0 $181 $420 forward 7 unknown #
coedge $-1 $182 $410 $416 $421 forward $291 $-1 #
loop $-1 $-1 $410 $279 #
vertex $-1 $288 $422 #
vertex $-1 $183 $423 #
straight-curve $-1 -14.441064161430392 -51.946508862610401 9.1568463786488294 0 1 0 I I #
coedge $-1 $295 $295 $-1 $424 reversed $186 $-1 #
edge $-1 $425 0 $425 6.2831853071796004 $187 $426 forward 7 unknown #
vertex $-1 $190 $427 #
ellipse-curve $-1 -27.470513716451467 -26.643750196014743 6.0537965150835689 0 -0.62932039886446345 0.77714595512881146 2 0 0 1 I I #
coedge $-1 $299 $299 $-1 $428 reversed $193 $-1 #
edge $-1 $429 0 $429 6.2831853071796004 $194 $430 forward 7 unknown #
vertex $-1 $197 $431 #
ellipse-curve $-1 -19.652843983438821 -26.643750196014743 6.0537965150835689 0 -0.62932039886446345 0.77714595512881146 2 0 0 1 I I #
face $-1 $-1 $315 $41 $-1 $432 forward single #
loop $-1 $-1 $433 $198 #
plane-surface $-1 0 -30.475697570331647 0 0 1 0 0 0 1 forward_v I I I I #
coedge $-1 $434 $435 $436 $437 reversed $199 $-1 #
coedge $-1 $438 $201 $203 $313 forward $125 $-1 #
coedge $-1 $201 $438 $434 $439 forward $125 $-1 #
coedge $-1 $436 $204 $201 $310 forward $315 $-1 #
edge $-1 $317 -24.682927150910928 $440 -6.4416977738814154 $309 $441 forward 7 unknown #
coedge $-1 $442 $443 $202 $312 forward $304 $-1 #
edge $-1 $444 -43.856045692057549 $316 -37.649945964927035 $311 $445 forward 7 unknown #
edge $-1 $317 -9.861589960104121 $444 0 $203 $446 forward 7 unknown #
coedge $-1 $204 $436 $442 $447 forward $315 $-1 #
loop $-1 $-1 $436 $303 #
vertex $-1 $312 $448 #
vertex $-1 $205 $449 #
straight-curve $-1 40.245239613307099 -51.946508862610401 9.1568463786488294 0 1 0 I I #
coedge $-1 $319 $319 $-1 $450 reversed $208 $-1 #
edge $-1 $451 0 $451 6.2831853071796004 $209 $452 forward 7 unknown #
vertex $-1 $212 $453 #
ellipse-curve $-1 27.215790058286032 -26.643750196014743 6.0537965150835689 0 -0.62932039886446345 0.77714595512881146 2 0 0 1 I I #
coedge $-1 $323 $323 $-1 $454 reversed $215 $-1 #
edge $-1 $455 0 $455 6.2831853071796004 $216 $456 forward 7 unknown #
vertex $-1 $219 $457 #
ellipse-curve $-1 35.033459791298682 -26.643750196014743 6.0537965150835689 0 -0.62932039886446345 0.77714595512881146 2 0 0 1 I I #
face $-1 $-1 $235 $33 $-1 $458 reversed single #
loop $-1 $-1 $343 $220 #
plane-surface $-1 0 30.475697570331647 0 0 -1 0 0 0 -1 forward_v I I I I #
coedge $-1 $459 $341 $344 $460 forward $221 $-1 #
coedge $-1 $347 $223 $224 $335 reversed $139 $-1 #
coedge $-1 $341 $459 $223 $333 reversed $221 $-1 #
edge $-1 $348 -9.1568463786488294 $461 9.1568463786488294 $332 $462 forward 7 unknown #
coedge $-1 $225 $224 $459 $463 forward $89 $-1 #
edge $-1 $339 -58.330637531662958 $461 58.330637531662958 $331 $464 forward 7 unknown #
coedge $-1 $344 $343 $225 $337 reversed $328 $-1 #
edge $-1 $465 -58.330637531662958 $338 58.330637531662958 $336 $466 forward 7 unknown #
vertex $-1 $227 $467 #
vertex $-1 $350 $468 #
straight-curve $-1 58.330637531662958 0 -9.1568463786488294 0 -1 0 I I #
coedge $-1 $330 $332 $228 $342 reversed $221 $-1 #
edge $-1 $345 -30.475697570331647 $348 30.475697570331647 $341 $469 forward 7 unknown #
coedge $-1 $336 $229 $234 $351 forward $328 $-1 #
coedge $-1 $229 $336 $330 $460 reversed $328 $-1 #
vertex $-1 $230 $470 #
straight-curve $-1 0 30.475697570331647 9.1568463786488294 -1 0 0 I I #
coedge $-1 $231 $331 $233 $350 reversed $139 $-1 #
vertex $-1 $342 $471 #
straight-curve $-1 0 -30.475697570331647 9.1568463786488294 1 0 0 I I #
edge $-1 $236 -9.1568463786488294 $339 9.1568463786488294 $233 $472 forward 7 unknown #
edge $-1 $237 -9.1568463786488294 $338 9.1568463786488294 $234 $473 forward 7 unknown #
point $-1 58.330637531662958 -30.475697570331647 9.1568463786488294 #
point $-1 58.330637531662958 30.475697570331647 9.1568463786488294 #
face $-1 $-1 $371 $34 $-1 $474 reversed single #
loop $-1 $-1 $475 $239 #
plane-surface $-1 -58.330637531662958 0 0 1 0 0 0 0 -1 forward_v I I I I #
coedge $-1 $358 $374 $243 $361 forward $240 $-1 #
coedge $-1 $250 $357 $242 $359 forward $240 $-1 #
edge $-1 $365 -5.0708779792882979 $253 -0.0847044755900761 $358 $476 forward 7 unknown #
coedge $-1 $244 $243 $475 $477 reversed $93 $-1 #
edge $-1 $478 -30.98748564429421 $365 -23.698818130443286 $357 $479 forward 7 unknown #
coedge $-1 $370 $369 $244 $363 forward $371 $-1 #
edge $-1 $364 23.698818130443286 $480 30.98748564429421 $362 $481 forward 7 unknown #
vertex $-1 $363 $482 #
vertex $-1 $361 $483 #
straight-curve $-1 -51.041970017812034 0 -7.6486692067274848 0 -1 0 I I #
coedge $-1 $484 $485 $247 $368 forward $355 $-1 #
edge $-1 $375 -30.475697570331647 $372 30.475697570331647 $367 $486 forward 7 unknown #
coedge $-1 $362 $248 $252 $377 forward $371 $-1 #
coedge $-1 $248 $362 $484 $487 reversed $371 $-1 #
loop $-1 $-1 $362 $354 #
vertex $-1 $487 $488 #
straight-curve $-1 -27.343151887368748 30.475697570331647 -2.6624957030292631 1 0 0 I I #
coedge $-1 $357 $250 $485 $489 forward $240 $-1 #
vertex $-1 $489 $490 #
straight-curve $-1 -27.343151887368748 -30.475697570331647 -2.6624957030292631 -1 0 0 I I #
edge $-1 $254 0.0847044755900761 $364 5.0708779792882979 $369 $491 forward 7 unknown #
point $-1 -51.041970017812034 -30.475697570331647 -2.6624957030292631 #
point $-1 -51.041970017812034 30.475697570331647 -2.6624957030292631 #
loop $-1 $-1 $264 $256 #
plane-surface $-1 0 30.475697570331647 0 0 -1 0 0 0 -1 forward_v I I I I #
coedge $-1 $383 $259 $261 $387 reversed $155 $-1 #
coedge $-1 $259 $382 $492 $493 reversed $155 $-1 #
coedge $-1 $267 $262 $259 $385 forward $257 $-1 #
edge $-1 $388 -7.5192266806977983 $494 -0.030192390685670034 $384 $495 forward 7 unknown #
coedge $-1 $261 $260 $391 $496 reversed $97 $-1 #
edge $-1 $497 -60.951395140663308 $388 -51.028327307575253 $382 $498 forward 7 unknown #
vertex $-1 $263 $499 #
straight-curve $-1 16.059318882078024 22.986663280319519 9.156846378648833 1 0 0 I I #
coedge $-1 $492 $264 $267 $395 reversed $380 $-1 #
coedge $-1 $264 $492 $386 $496 forward $380 $-1 #
vertex $-1 $265 $500 #
straight-curve $-1 21.511327332895966 30.475697570331647 65.339911386195425 0 0 1 I I #
straight-curve $-1 21.511327332895966 -15.524903847551997 42.634441650180449 0 0.75470957328743171 -0.6560590369687036 I I #
edge $-1 $494 -42.72594819541613 $268 -21.511327332895966 $390 $501 forward 7 unknown #
point $-1 21.511327332895966 30.475697570331647 9.1568463786488294 #
point $-1 21.511327332895966 22.986663280319519 9.1568463786488294 #
edge $-1 $502 1 $502 0 $271 $-1 forward 7 unknown #
vertex $-1 $272 $503 #
ellipse-curve $-1 27.572647579330308 23.509038976645755 2.1951375684525294 0 0.6560590369687036 0.75470957328743171 1.5 0 0 1 I I #
point $-1 29.072647579330308 26.731180425325583 5.9017872154734059 #
edge $-1 $504 1 $504 0 $275 $-1 forward 7 unknown #
vertex $-1 $276 $505 #
ellipse-curve $-1 36.664627948981803 23.509038976645755 2.1951375684525294 0 0.6560590369687036 0.75470957328743171 1.5 0 0 1 I I #
point $-1 38.164627948981803 26.731180425325583 5.9017872154734059 #
plane-surface $-1 0 0 9.1568463786488294 0 0 1 1 0 0 forward_v I I I I #
coedge $-1 $417 $416 $409 $506 forward $280 $-1 #
coedge $-1 $409 $282 $284 $413 reversed $177 $-1 #
coedge $-1 $282 $408 $407 $506 reversed $177 $-1 #
coedge $-1 $290 $285 $282 $411 forward $291 $-1 #
edge $-1 $414 -29.134706040912569 $507 -21.470811292278754 $410 $508 forward 7 unknown #
coedge $-1 $284 $283 $417 $509 reversed $111 $-1 #
edge $-1 $510 0 $414 9.861589960104121 $408 $511 forward 7 unknown #
vertex $-1 $286 $512 #
straight-curve $-1 -11.780839424972573 -22.811802821697832 9.1568463786488294 -1 0 0 I I #
coedge $-1 $407 $287 $290 $421 reversed $280 $-1 #
coedge $-1 $287 $407 $412 $509 forward $280 $-1 #
vertex $-1 $288 $513 #
straight-curve $-1 -14.441064161430392 -30.475697570331647 46.806792343575864 0 0 1 I I #
straight-curve $-1 -14.441064161430392 -30.475697570331647 2.9507466515183154 0 -0.77714595512881146 -0.62932039886446345 I I #
edge $-1 $507 -32.682293538459902 $292 -14.441064161430392 $416 $514 forward 7 unknown #
point $-1 -14.441064161430392 -30.475697570331647 9.1568463786488294 #
point $-1 -14.441064161430392 -22.811802821697832 9.1568463786488294 #
edge $-1 $515 1 $515 0 $295 $-1 forward 7 unknown #
vertex $-1 $296 $516 #
ellipse-curve $-1 -27.470513716451467 -24.374609094142791 3.2516406782184779 0 -0.62932039886446345 0.77714595512881146 2 0 0 1 I I #
point $-1 -25.470513716451467 -26.643750196014754 6.0537965150835813 #
edge $-1 $517 1 $517 0 $299 $-1 forward 7 unknown #
vertex $-1 $300 $518 #
ellipse-curve $-1 -19.652843983438821 -24.374609094142791 3.2516406782184779 0 -0.62932039886446345 0.77714595512881146 2 0 0 1 I I #
point $-1 -17.652843983438821 -26.643750196014754 6.0537965150835813 #
plane-surface $-1 0 0 9.1568463786488294 0 0 1 1 0 0 forward_v I I I I #
coedge $-1 $443 $442 $435 $519 forward $304 $-1 #
coedge $-1 $435 $306 $308 $439 reversed $199 $-1 #
coedge $-1 $306 $434 $433 $519 reversed $199 $-1 #
coedge $-1 $314 $309 $306 $437 forward $315 $-1 #
edge $-1 $440 -29.134706040912569 $520 -21.470811292278754 $436 $521 forward 7 unknown #
coedge $-1 $308 $307 $443 $522 reversed $125 $-1 #
edge $-1 $523 0 $440 9.861589960104121 $434 $524 forward 7 unknown #
vertex $-1 $310 $525 #
straight-curve $-1 15.562312462396171 -22.811802821697832 9.1568463786488294 -1 0 0 I I #
coedge $-1 $433 $311 $314 $447 reversed $304 $-1 #
coedge $-1 $311 $433 $438 $522 forward $304 $-1 #
vertex $-1 $312 $526 #
straight-curve $-1 40.245239613307099 -30.475697570331647 46.806792343575864 0 0 1 I I #
straight-curve $-1 40.245239613307099 -30.475697570331647 2.9507466515183154 0 -0.77714595512881146 -0.62932039886446345 I I #
edge $-1 $520 22.004010236277587 $316 40.245239613307099 $442 $527 forward 7 unknown #
point $-1 40.245239613307099 -30.475697570331647 9.1568463786488294 #
point $-1 40.245239613307099 -22.811802821697832 9.1568463786488294 #
edge $-1 $528 1 $528 0 $319 $-1 forward 7 unknown #
vertex $-1 $320 $529 #
ellipse-curve $-1 27.215790058286032 -24.374609094142791 3.2516406782184779 0 -0.62932039886446345 0.77714595512881146 2 0 0 1 I I #
point $-1 29.215790058286032 -26.643750196014754 6.0537965150835813 #
edge $-1 $530 1 $530 0 $323 $-1 forward 7 unknown #
vertex $-1 $324 $531 #
ellipse-curve $-1 35.033459791298682 -24.374609094142791 3.2516406782184779 0 -0.62932039886446345 0.77714595512881146 2 0 0 1 I I #
point $-1 37.033459791298682 -26.643750196014754 6.0537965150835813 #
plane-surface $-1 58.330637531662958 0 0 -1 0 0 0 0 1 forward_v I I I I #
coedge $-1 $332 $330 $334 $463 reversed $221 $-1 #
edge $-1 $345 -9.1568463786488294 $465 9.1568463786488294 $344 $532 forward 7 unknown #
vertex $-1 $463 $533 #
straight-curve $-1 -58.330637531662958 -30.475697570331647 0 0 0 -1 I I #
edge $-1 $461 -30.475697570331647 $465 30.475697570331647 $459 $534 forward 7 unknown #
straight-curve $-1 0 -30.475697570331647 -9.1568463786488294 -1 0 0 I I #
vertex $-1 $337 $535 #
straight-curve $-1 0 30.475697570331647 -9.1568463786488294 1 0 0 I I #
point $-1 58.330637531662958 30.475697570331647 -9.1568463786488294 #
point $-1 58.330637531662958 -30.475697570331647 -9.1568463786488294 #
straight-curve $-1 -58.330637531662958 0 9.1568463786488294 0 -1 0 I I #
point $-1 -58.330637531662958 30.475697570331647 9.1568463786488294 #
point $-1 -58.330637531662958 -30.475697570331647 9.1568463786488294 #
straight-curve $-1 58.330637531662958 -30.475697570331647 0 0 0 -1 I I #
straight-curve $-1 58.330637531662958 30.475697570331647 0 0 0 -1 I I #
plane-surface $-1 0 30.475697570331647 0 0 -1 0 0 0 -1 forward_v I I I I #
coedge $-1 $485 $484 $360 $477 forward $355 $-1 #
straight-curve $-1 -51.041970017812034 -30.475697570331647 -2.577791227439187 0 0 1 I I #
edge $-1 $480 -30.475697570331647 $478 30.475697570331647 $475 $536 forward 7 unknown #
vertex $-1 $361 $537 #
straight-curve $-1 -27.343151887368748 -30.475697570331647 -7.6486692067274848 1 0 0 I I #
vertex $-1 $363 $538 #
straight-curve $-1 -27.343151887368748 30.475697570331647 -7.6486692067274848 -1 0 0 I I #
point $-1 -51.041970017812034 30.475697570331647 -7.6486692067274848 #
point $-1 -51.041970017812034 -30.475697570331647 -7.6486692067274848 #
coedge $-1 $475 $367 $370 $487 forward $355 $-1 #
coedge $-1 $367 $475 $374 $489 reversed $355 $-1 #
straight-curve $-1 -58.330637531662958 0 -2.6624957030292631 0 1 0 I I #
edge $-1 $372 2.6624957030292631 $480 7.6486692067274848 $370 $539 forward 7 unknown #
point $-1 -58.330637531662958 30.475697570331647 -2.6624957030292631 #
edge $-1 $375 2.6624957030292631 $478 7.6486692067274848 $485 $540 forward 7 unknown #
point $-1 -58.330637531662958 -30.475697570331647 -2.6624957030292631 #
straight-curve $-1 -51.041970017812034 30.475697570331647 -2.577791227439187 0 0 -1 I I #
coedge $-1 $391 $390 $383 $493 forward $380 $-1 #
edge $-1 $494 56.183065007546595 $497 62.693183333897466 $492 $541 forward 7 unknown #
vertex $-1 $395 $542 #
straight-curve $-1 42.72594819541613 30.505889961017317 9.1568463786488294 0 1 0 I I #
edge $-1 $497 -26.666629313338106 $392 -5.4520084508179423 $391 $543 forward 7 unknown #
vertex $-1 $496 $544 #
straight-curve $-1 42.72594819541613 -15.524903847551997 42.634441650180449 0 -0.75470957328743171 0.6560590369687036 I I #
point $-1 42.72594819541613 22.986663280319519 9.1568463786488294 #
point $-1 21.511327332895966 30.475697570331647 2.6467280522979593 #
straight-curve $-1 0 30.475697570331647 9.1568463786488294 -1 0 0 I I #
vertex $-1 $398 $545 #
point $-1 29.072647579330308 23.509038976645755 2.1951375684525294 #
vertex $-1 $402 $546 #
point $-1 38.164627948981803 23.509038976645755 2.1951375684525294 #
edge $-1 $507 37.649945964927035 $510 43.856045692057549 $407 $547 forward 7 unknown #
vertex $-1 $421 $548 #
straight-curve $-1 -32.682293538459902 -51.946508862610401 9.1568463786488294 0 -1 0 I I #
edge $-1 $510 -20.901454113487329 $418 -2.6602247364578187 $417 $549 forward 7 unknown #
vertex $-1 $509 $550 #
straight-curve $-1 -32.682293538459902 -30.475697570331647 2.9507466515183154 0 0.77714595512881146 0.62932039886446345 I I #
point $-1 -32.682293538459902 -22.811802821697832 9.1568463786488294 #
point $-1 -14.441064161430392 -30.475697570331647 2.9507466515183154 #
straight-curve $-1 0 -30.475697570331647 9.1568463786488294 1 0 0 I I #
vertex $-1 $424 $551 #
point $-1 -25.470513716451467 -24.374609094142791 3.2516406782184779 #
vertex $-1 $428 $552 #
point $-1 -17.652843983438821 -24.374609094142791 3.2516406782184779 #
edge $-1 $520 37.649945964927035 $523 43.856045692057549 $433 $553 forward 7 unknown #
vertex $-1 $447 $554 #
straight-curve $-1 22.004010236277587 -51.946508862610401 9.1568463786488294 0 -1 0 I I #
edge $-1 $523 6.4416977738814154 $444 24.682927150910928 $443 $555 forward 7 unknown #
vertex $-1 $522 $556 #
straight-curve $-1 22.004010236277587 -30.475697570331647 2.9507466515183154 0 0.77714595512881146 0.62932039886446345 I I #
point $-1 22.004010236277587 -22.811802821697832 9.1568463786488294 #
point $-1 40.245239613307099 -30.475697570331647 2.9507466515183154 #
straight-curve $-1 0 -30.475697570331647 9.1568463786488294 1 0 0 I I #
vertex $-1 $450 $557 #
point $-1 29.215790058286032 -24.374609094142791 3.2516406782184779 #
vertex $-1 $454 $558 #
point $-1 37.033459791298682 -24.374609094142791 3.2516406782184779 #
straight-curve $-1 -58.330637531662958 30.475697570331647 0 0 0 -1 I I #
point $-1 -58.330637531662958 -30.475697570331647 -9.1568463786488294 #
straight-curve $-1 -58.330637531662958 0 -9.1568463786488294 0 1 0 I I #
point $-1 -58.330637531662958 30.475697570331647 -9.1568463786488294 #
straight-curve $-1 -58.330637531662958 0 -7.6486692067274848 0 -1 0 I I #
point $-1 -58.330637531662958 -30.475697570331647 -7.6486692067274848 #
point $-1 -58.330637531662958 30.475697570331647 -7.6486692067274848 #
straight-curve $-1 -58.330637531662958 30.475697570331647 0 0 0 -1 I I #
straight-curve $-1 -58.330637531662958 -30.475697570331647 0 0 0 -1 I I #
straight-curve $-1 42.72594819541613 30.475697570331647 65.339911386195425 0 0 -1 I I #
point $-1 42.72594819541613 30.475697570331647 9.1568463786488294 #
straight-curve $-1 16.059318882078024 30.475697570331647 2.6467280522979557 -1 0 0 I I #
point $-1 42.72594819541613 30.475697570331647 2.6467280522979593 #
point $-1 27.572647579330308 22.524950421192699 1.0630732085213817 #
point $-1 36.664627948981803 22.524950421192699 1.0630732085213817 #
straight-curve $-1 -32.682293538459902 -30.475697570331647 46.806792343575864 0 0 -1 I I #
point $-1 -32.682293538459902 -30.475697570331647 9.1568463786488294 #
straight-curve $-1 -11.780839424972573 -30.475697570331647 2.9507466515183149 1 0 0 I I #
point $-1 -32.682293538459902 -30.475697570331647 2.9507466515183154 #
point $-1 -27.470513716451467 -23.115968296413861 1.6973487679608548 #
point $-1 -19.652843983438821 -23.115968296413861 1.6973487679608548 #
straight-curve $-1 22.004010236277587 -30.475697570331647 46.806792343575864 0 0 -1 I I #
point $-1 22.004010236277587 -30.475697570331647 9.1568463786488294 #
straight-curve $-1 15.562312462396171 -30.475697570331647 2.9507466515183149 1 0 0 I I #
point $-1 22.004010236277587 -30.475697570331647 2.9507466515183154 #
point $-1 27.215790058286032 -23.115968296413861 1.6973487679608548 #
point $-1 35.033459791298682 -23.115968296413861 1.6973487679608548 #
End-of-ACIS-data 