500 0 15 0           
7 Unknown 11 ACIS 5.0 NT 24 Fri Mar 26 16:38:20 1999 
-1 9.9999999999999995e-007 1e-010 
body $-1 $15 $-1 $16 #
body $-1 $17 $-1 $18 #
body $-1 $19 $-1 $20 #
body $-1 $21 $-1 $22 #
body $-1 $23 $-1 $24 #
body $-1 $25 $-1 $26 #
body $-1 $27 $-1 $28 #
body $-1 $29 $-1 $30 #
body $-1 $31 $-1 $32 #
body $-1 $33 $-1 $34 #
body $-1 $35 $-1 $36 #
body $-1 $37 $-1 $38 #
body $-1 $39 $-1 $40 #
body $-1 $41 $-1 $42 #
body $-1 $43 $-1 $44 #
lump $-1 $-1 $45 $0 #
transform $-1 1 0 0 0 1 0 0 0 1 57.861873226111641 38.481227117794717 9.9327531576550854 1 rotate no_reflect no_shear #
lump $-1 $-1 $46 $1 #
transform $-1 1 0 0 0 1 0 0 0 1 57.861873226111641 38.481227117794717 9.9327531576550854 1 rotate no_reflect no_shear #
lump $-1 $-1 $47 $2 #
transform $-1 1 0 0 0 1 0 0 0 1 57.861873226111641 38.481227117794717 9.9327531576550854 1 rotate no_reflect no_shear #
lump $-1 $-1 $48 $3 #
transform $-1 1 0 0 0 1 0 0 0 1 57.861873226111641 38.481227117794717 9.9327531576550854 1 rotate no_reflect no_shear #
lump $-1 $-1 $49 $4 #
transform $-1 1 0 0 0 1 0 0 0 1 57.861873226111641 38.481227117794717 9.9327531576550854 1 rotate no_reflect no_shear #
lump $-1 $-1 $50 $5 #
transform $-1 1 0 0 0 1 0 0 0 1 57.861873226111641 38.481227117794717 9.9327531576550854 1 rotate no_reflect no_shear #
lump $-1 $-1 $51 $6 #
transform $-1 1 0 0 0 1 0 0 0 1 57.861873226111641 38.481227117794717 9.9327531576550854 1 rotate no_reflect no_shear #
lump $-1 $-1 $52 $7 #
transform $-1 1 0 0 0 1 0 0 0 1 57.861873226111641 38.481227117794717 9.9327531576550854 1 rotate no_reflect no_shear #
lump $-1 $-1 $53 $8 #
transform $-1 1 0 0 0 1 0 0 0 1 57.861873226111641 38.481227117794717 9.9327531576550854 1 rotate no_reflect no_shear #
lump $-1 $-1 $54 $9 #
transform $-1 1 0 0 0 1 0 0 0 1 57.861873226111641 38.481227117794717 9.9327531576550854 1 rotate no_reflect no_shear #
lump $-1 $-1 $55 $10 #
transform $-1 1 0 0 0 1 0 0 0 1 57.861873226111641 38.481227117794717 9.9327531576550854 1 rotate no_reflect no_shear #
lump $-1 $-1 $56 $11 #
transform $-1 1 0 0 0 1 0 0 0 1 57.861873226111641 38.481227117794717 9.9327531576550854 1 rotate no_reflect no_shear #
lump $-1 $-1 $57 $12 #
transform $-1 1 0 0 0 1 0 0 0 1 57.861873226111641 38.481227117794717 9.9327531576550854 1 rotate no_reflect no_shear #
lump $-1 $-1 $58 $13 #
transform $-1 1 0 0 0 1 0 0 0 1 57.861873226111641 38.481227117794717 9.9327531576550854 1 rotate no_reflect no_shear #
lump $-1 $-1 $59 $14 #
transform $-1 1 0 0 0 1 0 0 0 1 57.861873226111641 38.481227117794717 9.9327531576550854 1 rotate no_reflect no_shear #
shell $-1 $-1 $-1 $60 $-1 $15 #
shell $-1 $-1 $-1 $61 $-1 $17 #
shell $-1 $-1 $-1 $62 $-1 $19 #
shell $-1 $-1 $-1 $63 $-1 $21 #
shell $-1 $-1 $-1 $64 $-1 $23 #
shell $-1 $-1 $-1 $65 $-1 $25 #
shell $-1 $-1 $-1 $66 $-1 $27 #
shell $-1 $-1 $-1 $67 $-1 $29 #
shell $-1 $-1 $-1 $68 $-1 $31 #
shell $-1 $-1 $-1 $69 $-1 $33 #
shell $-1 $-1 $-1 $70 $-1 $35 #
shell $-1 $-1 $-1 $71 $-1 $37 #
shell $-1 $-1 $-1 $72 $-1 $39 #
shell $-1 $-1 $-1 $73 $-1 $41 #
shell $-1 $-1 $-1 $74 $-1 $43 #
face $-1 $75 $76 $45 $-1 $77 forward single #
face $-1 $78 $79 $46 $-1 $80 forward single #
face $-1 $81 $82 $47 $-1 $83 forward single #
face $-1 $84 $85 $48 $-1 $86 reversed single #
face $-1 $87 $88 $49 $-1 $89 forward single #
face $-1 $90 $91 $50 $-1 $92 forward single #
face $-1 $93 $94 $51 $-1 $95 reversed single #
face $-1 $96 $97 $52 $-1 $98 forward single #
face $-1 $99 $100 $53 $-1 $101 forward single #
face $-1 $102 $103 $54 $-1 $104 reversed single #
face $-1 $105 $106 $55 $-1 $107 forward single #
face $-1 $108 $109 $56 $-1 $110 forward single #
face $-1 $111 $112 $57 $-1 $113 reversed single #
face $-1 $114 $115 $58 $-1 $116 forward single #
face $-1 $117 $118 $59 $-1 $119 forward single #
face $-1 $120 $121 $45 $-1 $122 reversed single #
loop $-1 $-1 $123 $60 #
plane-surface $-1 0 0 9.9327531576550854 0 0 1 1 0 0 forward_v I I I I #
face $-1 $124 $125 $46 $-1 $126 reversed single #
loop $-1 $-1 $127 $61 #
plane-surface $-1 -51.650972723858722 0 -6.9327531576550854 0 0 1 1 0 0 forward_v I I I I #
face $-1 $128 $129 $47 $-1 $130 reversed single #
loop $-1 $-1 $131 $62 #
plane-surface $-1 51.650972723858729 0 -6.9327531576550854 0 0 1 1 0 0 forward_v I I I I #
face $-1 $132 $133 $48 $-1 $134 reversed single #
loop $-1 $-1 $135 $63 #
plane-surface $-1 -26.669364424337424 -130.90232134195469 74.309778773977229 1 0 0 0 0.79863551827123203 -0.60181501223851219 forward_v I I I I #
face $-1 $136 $137 $49 $-1 $138 forward single #
loop $-1 $139 $140 $64 #
cone-surface $-1 -22.876051784571722 -35.924873672979707 6.8682623653695787 0 0.79863551827123203 -0.60181501223851219 1 0 0 1 I I 0 1 1 forward I I I I #
face $-1 $141 $142 $50 $-1 $143 forward single #
loop $-1 $144 $145 $65 #
cone-surface $-1 -17.186082824923169 -35.924873672979707 6.8682623653695787 0 0.79863551827123203 -0.60181501223851219 1 0 0 1 I I 0 1 1 forward I I I I #
face $-1 $146 $147 $51 $-1 $148 reversed single #
loop $-1 $-1 $149 $66 #
plane-surface $-1 13.39277018515746 -130.90232134195469 74.309778773977229 1 0 0 0 0.79863551827123203 -0.60181501223851219 forward_v I I I I #
face $-1 $150 $151 $52 $-1 $152 forward single #
loop $-1 $153 $154 $67 #
cone-surface $-1 17.186082824923162 -35.924873672979707 6.8682623653695787 0 0.79863551827123203 -0.60181501223851219 1 0 0 1 I I 0 1 1 forward I I I I #
face $-1 $155 $156 $53 $-1 $157 forward single #
loop $-1 $158 $159 $68 #
cone-surface $-1 22.876051784571715 -35.924873672979707 6.8682623653695787 0 0.79863551827123203 -0.60181501223851219 1 0 0 1 I I 0 1 1 forward I I I I #
face $-1 $160 $161 $54 $-1 $162 reversed single #
loop $-1 $-1 $163 $69 #
plane-surface $-1 -13.392770185157467 84.585161004257515 135.77472829984316 -1 0 0 0 0.79863551827123203 0.60181501223851219 forward_v I I I I #
face $-1 $164 $165 $55 $-1 $166 forward single #
loop $-1 $167 $168 $70 #
cone-surface $-1 -22.876051784571722 35.9248736729797 6.8682623653695893 0 -0.79863551827123203 -0.60181501223851219 1 0 0 1 I I 0 1 1 forward I I I I #
face $-1 $169 $170 $56 $-1 $171 forward single #
loop $-1 $172 $173 $71 #
cone-surface $-1 -17.186082824923169 35.9248736729797 6.8682623653695893 0 -0.79863551827123203 -0.60181501223851219 1 0 0 1 I I 0 1 1 forward I I I I #
face $-1 $174 $175 $57 $-1 $176 reversed single #
loop $-1 $-1 $177 $72 #
plane-surface $-1 26.669364424337417 84.585161004257515 135.77472829984316 -1 0 0 0 0.79863551827123203 0.60181501223851219 forward_v I I I I #
face $-1 $178 $179 $58 $-1 $180 forward single #
loop $-1 $181 $182 $73 #
cone-surface $-1 17.186082824923162 35.9248736729797 6.8682623653695893 0 -0.79863551827123203 -0.60181501223851219 1 0 0 1 I I 0 1 1 forward I I I I #
face $-1 $183 $184 $59 $-1 $185 forward single #
loop $-1 $186 $187 $74 #
cone-surface $-1 22.876051784571715 35.9248736729797 6.8682623653695893 0 -0.79863551827123203 -0.60181501223851219 1 0 0 1 I I 0 1 1 forward I I I I #
face $-1 $188 $189 $45 $-1 $190 reversed single #
loop $-1 $-1 $191 $75 #
plane-surface $-1 0 0 -9.9327531576550854 0 0 1 1 0 0 forward_v I I I I #
coedge $-1 $192 $193 $194 $195 forward $76 $-1 #
face $-1 $196 $197 $46 $-1 $198 reversed single #
loop $-1 $-1 $199 $78 #
plane-surface $-1 -45.440072221605803 0 -8.4327531576550854 -1 0 0 0 0 1 forward_v I I I I #
coedge $-1 $200 $201 $202 $203 forward $79 $-1 #
face $-1 $204 $205 $47 $-1 $206 reversed single #
loop $-1 $-1 $207 $81 #
plane-surface $-1 45.44007222160581 0 -8.4327531576550854 1 0 0 0 0 -1 forward_v I I I I #
coedge $-1 $208 $209 $210 $211 reversed $82 $-1 #
face $-1 $212 $213 $48 $-1 $214 reversed single #
loop $-1 $-1 $215 $84 #
plane-surface $-1 -20.031067304747445 -38.481227117794703 4.6654908865459959 0 -0.79863551827123203 0.60181501223851219 1 0 0 forward_v I I I I #
coedge $-1 $216 $217 $218 $219 reversed $85 $-1 #
face $-1 $-1 $220 $49 $-1 $221 forward single #
loop $-1 $222 $223 $87 #
cone-surface $-1 -22.876051784571722 -34.953785821277641 6.1364952025193666 0 0.79863551827123203 -0.60181501223851219 0.5 0 0 1 I I -0.70710678118654746 0.70710678118654746 0.5 forward I I I I #
loop $-1 $-1 $224 $64 #
coedge $-1 $140 $140 $225 $226 reversed $88 $-1 #
face $-1 $-1 $227 $50 $-1 $228 forward single #
loop $-1 $229 $230 $90 #
cone-surface $-1 -17.186082824923169 -34.953785821277641 6.1364952025193666 0 0.79863551827123203 -0.60181501223851219 0.5 0 0 1 I I -0.70710678118654746 0.70710678118654746 0.5 forward I I I I #
loop $-1 $-1 $231 $65 #
coedge $-1 $145 $145 $232 $233 reversed $91 $-1 #
face $-1 $234 $235 $51 $-1 $236 reversed single #
loop $-1 $-1 $237 $93 #
plane-surface $-1 20.031067304747438 -38.481227117794703 4.6654908865459959 0 -0.79863551827123203 0.60181501223851219 1 0 0 forward_v I I I I #
coedge $-1 $238 $239 $240 $241 reversed $94 $-1 #
face $-1 $-1 $242 $52 $-1 $243 forward single #
loop $-1 $244 $245 $96 #
cone-surface $-1 17.186082824923162 -34.953785821277641 6.1364952025193666 0 0.79863551827123203 -0.60181501223851219 0.5 0 0 1 I I -0.70710678118654746 0.70710678118654746 0.5 forward I I I I #
loop $-1 $-1 $246 $67 #
coedge $-1 $154 $154 $247 $248 reversed $97 $-1 #
face $-1 $-1 $249 $53 $-1 $250 forward single #
loop $-1 $251 $252 $99 #
cone-surface $-1 22.876051784571715 -34.953785821277641 6.1364952025193666 0 0.79863551827123203 -0.60181501223851219 0.5 0 0 1 I I -0.70710678118654746 0.70710678118654746 0.5 forward I I I I #
loop $-1 $-1 $253 $68 #
coedge $-1 $159 $159 $254 $255 reversed $100 $-1 #
face $-1 $256 $257 $54 $-1 $258 reversed single #
loop $-1 $-1 $259 $102 #
plane-surface $-1 -20.031067304747445 -7.835933219902472 66.130440412411929 0 0.79863551827123203 0.60181501223851219 1 0 0 forward_v I I I I #
coedge $-1 $260 $261 $262 $263 reversed $103 $-1 #
face $-1 $-1 $264 $55 $-1 $265 forward single #
loop $-1 $266 $267 $105 #
cone-surface $-1 -22.876051784571722 34.953785821277634 6.1364952025193773 0 -0.79863551827123203 -0.60181501223851219 0.5 0 0 1 I I -0.70710678118654746 0.70710678118654746 0.5 forward I I I I #
loop $-1 $-1 $268 $70 #
coedge $-1 $168 $168 $269 $270 reversed $106 $-1 #
face $-1 $-1 $271 $56 $-1 $272 forward single #
loop $-1 $273 $274 $108 #
cone-surface $-1 -17.186082824923169 34.953785821277634 6.1364952025193773 0 -0.79863551827123203 -0.60181501223851219 0.5 0 0 1 I I -0.70710678118654746 0.70710678118654746 0.5 forward I I I I #
loop $-1 $-1 $275 $71 #
coedge $-1 $173 $173 $276 $277 reversed $109 $-1 #
face $-1 $278 $279 $57 $-1 $280 reversed single #
loop $-1 $-1 $281 $111 #
plane-surface $-1 20.031067304747438 -7.835933219902472 66.130440412411929 0 0.79863551827123203 0.60181501223851219 1 0 0 forward_v I I I I #
coedge $-1 $282 $283 $284 $285 reversed $112 $-1 #
face $-1 $-1 $286 $58 $-1 $287 forward single #
loop $-1 $288 $289 $114 #
cone-surface $-1 17.186082824923162 34.953785821277634 6.1364952025193773 0 -0.79863551827123203 -0.60181501223851219 0.5 0 0 1 I I -0.70710678118654746 0.70710678118654746 0.5 forward I I I I #
loop $-1 $-1 $290 $73 #
coedge $-1 $182 $182 $291 $292 reversed $115 $-1 #
face $-1 $-1 $293 $59 $-1 $294 forward single #
loop $-1 $295 $296 $117 #
cone-surface $-1 22.876051784571715 34.953785821277634 6.1364952025193773 0 -0.79863551827123203 -0.60181501223851219 0.5 0 0 1 I I -0.70710678118654746 0.70710678118654746 0.5 forward I I I I #
loop $-1 $-1 $297 $74 #
coedge $-1 $187 $187 $298 $299 reversed $118 $-1 #
face $-1 $300 $301 $45 $-1 $302 reversed single #
loop $-1 $-1 $303 $120 #
plane-surface $-1 0 -38.481227117794717 0 0 1 0 0 0 1 forward_v I I I I #
coedge $-1 $304 $305 $306 $307 forward $121 $-1 #
coedge $-1 $308 $123 $309 $310 forward $76 $-1 #
coedge $-1 $123 $308 $311 $312 forward $76 $-1 #
coedge $-1 $313 $314 $123 $195 reversed $315 $-1 #
edge $-1 $316 -38.481227117794717 $317 38.481227117794717 $194 $318 forward 7 unknown #
face $-1 $319 $320 $46 $-1 $321 reversed single #
loop $-1 $-1 $322 $124 #
plane-surface $-1 0 0 -9.9327531576550854 0 0 1 1 0 0 forward_v I I I I #
coedge $-1 $323 $202 $324 $325 reversed $125 $-1 #
coedge $-1 $326 $127 $327 $328 reversed $79 $-1 #
coedge $-1 $127 $326 $329 $330 reversed $79 $-1 #
coedge $-1 $199 $331 $127 $203 reversed $125 $-1 #
edge $-1 $332 -38.481227117794717 $333 38.481227117794717 $202 $334 forward 7 unknown #
face $-1 $335 $336 $47 $-1 $337 reversed single #
loop $-1 $-1 $338 $128 #
plane-surface $-1 0 -38.481227117794717 0 0 1 0 0 0 1 forward_v I I I I #
coedge $-1 $339 $340 $341 $342 reversed $129 $-1 #
coedge $-1 $343 $131 $344 $345 reversed $82 $-1 #
coedge $-1 $131 $343 $338 $346 reversed $82 $-1 #
coedge $-1 $347 $348 $131 $211 forward $349 $-1 #
edge $-1 $350 -38.481227117794717 $351 38.481227117794717 $210 $352 forward 7 unknown #
face $-1 $353 $354 $48 $-1 $355 forward single #
loop $-1 $-1 $356 $132 #
plane-surface $-1 -13.392770185157467 -130.90232134195469 74.309778773977229 -1 0 0 0 -0.79863551827123203 0.60181501223851219 forward_v I I I I #
coedge $-1 $357 $358 $359 $360 reversed $133 $-1 #
coedge $-1 $217 $135 $361 $362 reversed $85 $-1 #
coedge $-1 $135 $216 $357 $363 reversed $85 $-1 #
coedge $-1 $359 $364 $135 $219 forward $365 $-1 #
edge $-1 $366 27.222136229333529 $367 32.48939850044264 $218 $368 forward 7 unknown #
loop $-1 $-1 $225 $136 #
plane-surface $-1 -20.031067304747445 -38.481227117794703 4.6654908865459959 0 -0.79863551827123203 0.60181501223851219 1 0 0 forward_v I I I I #
loop $-1 $-1 $369 $87 #
coedge $-1 $223 $223 $224 $370 reversed $137 $-1 #
coedge $-1 $224 $224 $223 $370 forward $139 $-1 #
coedge $-1 $225 $225 $140 $226 forward $220 $-1 #
edge $-1 $371 2.837323330138133e-015 $371 6.2831853071796031 $225 $372 forward 7 unknown #
loop $-1 $-1 $232 $141 #
plane-surface $-1 -20.031067304747445 -38.481227117794703 4.6654908865459959 0 -0.79863551827123203 0.60181501223851219 1 0 0 forward_v I I I I #
loop $-1 $-1 $373 $90 #
coedge $-1 $230 $230 $231 $374 reversed $142 $-1 #
coedge $-1 $231 $231 $230 $374 forward $144 $-1 #
coedge $-1 $232 $232 $145 $233 forward $227 $-1 #
edge $-1 $375 2.837323330138133e-015 $375 6.2831853071796031 $232 $376 forward 7 unknown #
face $-1 $377 $378 $51 $-1 $379 reversed single #
loop $-1 $-1 $380 $146 #
plane-surface $-1 26.669364424337417 -130.90232134195469 74.309778773977229 -1 0 0 0 -0.79863551827123203 0.60181501223851219 forward_v I I I I #
coedge $-1 $381 $382 $383 $384 reversed $147 $-1 #
coedge $-1 $239 $149 $385 $386 reversed $94 $-1 #
coedge $-1 $149 $238 $381 $387 reversed $94 $-1 #
coedge $-1 $383 $388 $149 $241 forward $378 $-1 #
edge $-1 $389 27.222136229333529 $390 32.48939850044264 $240 $391 forward 7 unknown #
loop $-1 $-1 $247 $150 #
plane-surface $-1 20.031067304747438 -38.481227117794703 4.6654908865459959 0 -0.79863551827123203 0.60181501223851219 1 0 0 forward_v I I I I #
loop $-1 $-1 $392 $96 #
coedge $-1 $245 $245 $246 $393 reversed $151 $-1 #
coedge $-1 $246 $246 $245 $393 forward $153 $-1 #
coedge $-1 $247 $247 $154 $248 forward $242 $-1 #
edge $-1 $394 2.837323330138133e-015 $394 6.2831853071796031 $247 $395 forward 7 unknown #
loop $-1 $-1 $254 $155 #
plane-surface $-1 20.031067304747438 -38.481227117794703 4.6654908865459959 0 -0.79863551827123203 0.60181501223851219 1 0 0 forward_v I I I I #
loop $-1 $-1 $396 $99 #
coedge $-1 $252 $252 $253 $397 reversed $156 $-1 #
coedge $-1 $253 $253 $252 $397 forward $158 $-1 #
coedge $-1 $254 $254 $159 $255 forward $249 $-1 #
edge $-1 $398 2.837323330138133e-015 $398 6.2831853071796031 $254 $399 forward 7 unknown #
face $-1 $400 $401 $54 $-1 $402 reversed single #
loop $-1 $-1 $403 $160 #
plane-surface $-1 -26.669364424337424 84.585161004257515 135.77472829984316 1 0 0 0 -0.79863551827123203 -0.60181501223851219 forward_v I I I I #
coedge $-1 $404 $405 $406 $407 reversed $161 $-1 #
coedge $-1 $261 $163 $408 $409 reversed $103 $-1 #
coedge $-1 $163 $260 $404 $410 reversed $103 $-1 #
coedge $-1 $406 $411 $163 $263 forward $401 $-1 #
edge $-1 $412 57.954610992266495 $413 63.221873263375599 $262 $414 forward 7 unknown #
loop $-1 $-1 $269 $164 #
plane-surface $-1 -20.031067304747445 -7.835933219902472 66.130440412411929 0 0.79863551827123203 0.60181501223851219 1 0 0 forward_v I I I I #
loop $-1 $-1 $415 $105 #
coedge $-1 $267 $267 $268 $416 reversed $165 $-1 #
coedge $-1 $268 $268 $267 $416 forward $167 $-1 #
coedge $-1 $269 $269 $168 $270 forward $264 $-1 #
edge $-1 $417 -3.5668220196399728e-015 $417 6.2831853071795969 $269 $418 forward 7 unknown #
loop $-1 $-1 $276 $169 #
plane-surface $-1 -20.031067304747445 -7.835933219902472 66.130440412411929 0 0.79863551827123203 0.60181501223851219 1 0 0 forward_v I I I I #
loop $-1 $-1 $419 $108 #
coedge $-1 $274 $274 $275 $420 reversed $170 $-1 #
coedge $-1 $275 $275 $274 $420 forward $172 $-1 #
coedge $-1 $276 $276 $173 $277 forward $271 $-1 #
edge $-1 $421 -3.5668220196399728e-015 $421 6.2831853071795969 $276 $422 forward 7 unknown #
face $-1 $423 $424 $57 $-1 $425 reversed single #
loop $-1 $-1 $426 $174 #
plane-surface $-1 13.39277018515746 84.585161004257515 135.77472829984316 1 0 0 0 -0.79863551827123203 -0.60181501223851219 forward_v I I I I #
coedge $-1 $427 $428 $429 $430 reversed $175 $-1 #
coedge $-1 $283 $177 $431 $432 reversed $112 $-1 #
coedge $-1 $177 $282 $427 $433 reversed $112 $-1 #
coedge $-1 $429 $434 $177 $285 forward $424 $-1 #
edge $-1 $435 57.954610992266495 $436 63.221873263375599 $284 $437 forward 7 unknown #
loop $-1 $-1 $291 $178 #
plane-surface $-1 20.031067304747438 -7.835933219902472 66.130440412411929 0 0.79863551827123203 0.60181501223851219 1 0 0 forward_v I I I I #
loop $-1 $-1 $438 $114 #
coedge $-1 $289 $289 $290 $439 reversed $179 $-1 #
coedge $-1 $290 $290 $289 $439 forward $181 $-1 #
coedge $-1 $291 $291 $182 $292 forward $286 $-1 #
edge $-1 $440 -3.5668220196399728e-015 $440 6.2831853071795969 $291 $441 forward 7 unknown #
loop $-1 $-1 $298 $183 #
plane-surface $-1 20.031067304747438 -7.835933219902472 66.130440412411929 0 0.79863551827123203 0.60181501223851219 1 0 0 forward_v I I I I #
loop $-1 $-1 $442 $117 #
coedge $-1 $296 $296 $297 $443 reversed $184 $-1 #
coedge $-1 $297 $297 $296 $443 forward $186 $-1 #
coedge $-1 $298 $298 $187 $299 forward $293 $-1 #
edge $-1 $444 -3.5668220196399728e-015 $444 6.2831853071795969 $298 $445 forward 7 unknown #
face $-1 $446 $447 $45 $-1 $448 reversed single #
loop $-1 $-1 $449 $188 #
plane-surface $-1 -57.861873226111641 0 0 1 0 0 0 0 -1 forward_v I I I I #
coedge $-1 $450 $311 $451 $452 forward $189 $-1 #
coedge $-1 $453 $191 $450 $454 forward $121 $-1 #
coedge $-1 $191 $453 $455 $456 forward $121 $-1 #
coedge $-1 $314 $313 $191 $307 reversed $315 $-1 #
edge $-1 $457 -38.481227117794717 $458 38.481227117794717 $306 $459 forward 7 unknown #
coedge $-1 $193 $192 $460 $461 forward $76 $-1 #
coedge $-1 $462 $463 $192 $310 reversed $447 $-1 #
edge $-1 $317 -57.861873226111641 $464 57.861873226111641 $309 $465 forward 7 unknown #
coedge $-1 $303 $466 $193 $312 reversed $189 $-1 #
edge $-1 $467 -57.861873226111641 $316 57.861873226111641 $311 $468 forward 7 unknown #
coedge $-1 $306 $194 $466 $469 forward $315 $-1 #
coedge $-1 $194 $306 $462 $470 reversed $315 $-1 #
loop $-1 $-1 $313 $446 #
vertex $-1 $195 $471 #
vertex $-1 $195 $472 #
straight-curve $-1 57.861873226111641 0 9.9327531576550854 0 1 0 I I #
face $-1 $473 $474 $46 $-1 $475 reversed single #
loop $-1 $-1 $324 $196 #
plane-surface $-1 0 -38.481227117794717 0 0 1 0 0 0 1 forward_v I I I I #
coedge $-1 $476 $477 $323 $478 forward $197 $-1 #
coedge $-1 $331 $199 $322 $478 reversed $125 $-1 #
coedge $-1 $329 $479 $199 $325 forward $320 $-1 #
edge $-1 $480 -5.7163765788275427 $332 -2.7163765788275427 $324 $481 forward 7 unknown #
coedge $-1 $201 $200 $482 $483 reversed $79 $-1 #
coedge $-1 $484 $485 $200 $328 forward $486 $-1 #
edge $-1 $487 -32.036386864182276 $333 -19.614585859676442 $327 $488 forward 7 unknown #
coedge $-1 $489 $324 $201 $330 forward $320 $-1 #
edge $-1 $332 19.614585859676442 $490 32.036386864182276 $329 $491 forward 7 unknown #
coedge $-1 $202 $323 $484 $492 reversed $125 $-1 #
vertex $-1 $330 $493 #
vertex $-1 $328 $494 #
straight-curve $-1 -45.440072221605803 0 -6.9327531576550854 0 1 0 I I #
face $-1 $495 $496 $47 $-1 $497 reversed single #
loop $-1 $-1 $498 $204 #
plane-surface $-1 0 0 -9.9327531576550854 0 0 1 1 0 0 forward_v I I I I #
coedge $-1 $499 $500 $209 $346 forward $205 $-1 #
coedge $-1 $501 $207 $498 $502 reversed $129 $-1 #
coedge $-1 $207 $501 $343 $503 reversed $129 $-1 #
coedge $-1 $344 $504 $207 $342 forward $496 $-1 #
edge $-1 $505 -5.7163765788275427 $506 -2.7163765788275427 $341 $507 forward 7 unknown #
coedge $-1 $209 $208 $340 $503 forward $82 $-1 #
coedge $-1 $508 $341 $208 $345 forward $496 $-1 #
edge $-1 $506 19.614585859676446 $350 32.036386864182283 $344 $509 forward 7 unknown #
edge $-1 $351 -32.036386864182283 $510 -19.614585859676446 $338 $511 forward 7 unknown #
coedge $-1 $512 $210 $500 $513 forward $349 $-1 #
coedge $-1 $210 $512 $508 $514 reversed $349 $-1 #
loop $-1 $-1 $210 $495 #
vertex $-1 $514 $515 #
vertex $-1 $513 $516 #
straight-curve $-1 57.861873226111641 0 -6.9327531576550854 0 -1 0 I I #
face $-1 $-1 $365 $48 $-1 $517 reversed single #
loop $-1 $-1 $518 $212 #
plane-surface $-1 0 0 9.9327531576550854 0 0 1 1 0 0 forward_v I I I I #
coedge $-1 $519 $520 $521 $522 reversed $213 $-1 #
coedge $-1 $523 $215 $217 $363 forward $133 $-1 #
coedge $-1 $215 $523 $519 $524 forward $133 $-1 #
coedge $-1 $521 $218 $215 $360 forward $365 $-1 #
edge $-1 $367 -16.653830771963701 $525 -3.3772365327837441 $359 $526 forward 7 unknown #
coedge $-1 $527 $528 $216 $362 forward $354 $-1 #
edge $-1 $529 -30.939100257679755 $366 -26.969933553182628 $361 $530 forward 7 unknown #
edge $-1 $367 -2.3448253187574213e-014 $529 6.5953268426013398 $217 $531 forward 7 unknown #
coedge $-1 $218 $521 $527 $532 reversed $365 $-1 #
loop $-1 $-1 $521 $353 #
vertex $-1 $532 $533 #
vertex $-1 $219 $534 #
straight-curve $-1 -26.669364424337424 -38.481227117794717 37.154889386988614 0 0 -1 I I #
coedge $-1 $369 $369 $-1 $535 reversed $222 $-1 #
edge $-1 $536 0 $536 6.2831853071796004 $223 $537 forward 7 unknown #
vertex $-1 $226 $538 #
ellipse-curve $-1 -22.876051784571722 -36.496643765546153 7.2991220221005317 0 -0.79863551827123203 0.60181501223851219 1 0 0 1 I I #
coedge $-1 $373 $373 $-1 $539 reversed $229 $-1 #
edge $-1 $540 0 $540 6.2831853071796004 $230 $541 forward 7 unknown #
vertex $-1 $233 $542 #
ellipse-curve $-1 -17.186082824923169 -36.496643765546153 7.2991220221005317 0 -0.79863551827123203 0.60181501223851219 1 0 0 1 I I #
face $-1 $-1 $543 $51 $-1 $544 forward single #
loop $-1 $-1 $240 $234 #
plane-surface $-1 0 -38.481227117794717 0 0 1 0 0 0 1 forward_v I I I I #
coedge $-1 $545 $546 $547 $548 reversed $235 $-1 #
coedge $-1 $549 $237 $239 $387 forward $147 $-1 #
coedge $-1 $237 $549 $545 $550 forward $147 $-1 #
coedge $-1 $547 $240 $237 $384 forward $378 $-1 #
edge $-1 $390 3.3772365327837406 $551 16.653830771963698 $383 $552 forward 7 unknown #
coedge $-1 $553 $554 $238 $386 forward $543 $-1 #
edge $-1 $555 -30.939100257679755 $389 -26.969933553182628 $385 $556 forward 7 unknown #
edge $-1 $390 -2.3448253187574213e-014 $555 6.5953268426013398 $239 $557 forward 7 unknown #
coedge $-1 $240 $547 $553 $558 reversed $378 $-1 #
vertex $-1 $558 $559 #
vertex $-1 $241 $560 #
straight-curve $-1 13.39277018515746 -38.481227117794717 37.154889386988614 0 0 -1 I I #
coedge $-1 $392 $392 $-1 $561 reversed $244 $-1 #
edge $-1 $562 0 $562 6.2831853071796004 $245 $563 forward 7 unknown #
vertex $-1 $248 $564 #
ellipse-curve $-1 17.186082824923162 -36.496643765546153 7.2991220221005317 0 -0.79863551827123203 0.60181501223851219 1 0 0 1 I I #
coedge $-1 $396 $396 $-1 $565 reversed $251 $-1 #
edge $-1 $566 0 $566 6.2831853071796004 $252 $567 forward 7 unknown #
vertex $-1 $255 $568 #
ellipse-curve $-1 22.876051784571715 -36.496643765546153 7.2991220221005317 0 -0.79863551827123203 0.60181501223851219 1 0 0 1 I I #
face $-1 $-1 $569 $54 $-1 $570 forward single #
loop $-1 $-1 $262 $256 #
plane-surface $-1 0 38.481227117794717 0 0 -1 0 0 0 -1 forward_v I I I I #
coedge $-1 $571 $572 $573 $574 reversed $257 $-1 #
coedge $-1 $575 $259 $261 $410 forward $161 $-1 #
coedge $-1 $259 $575 $571 $576 forward $161 $-1 #
coedge $-1 $573 $262 $259 $407 forward $401 $-1 #
edge $-1 $413 3.3772365327837441 $577 16.653830771963701 $406 $578 forward 7 unknown #
coedge $-1 $579 $580 $260 $409 forward $569 $-1 #
edge $-1 $581 -7.7805200888311603 $412 -3.8113533843340406 $408 $582 forward 7 unknown #
edge $-1 $413 -76.962454235589433 $581 -70.367127392988081 $261 $583 forward 7 unknown #
coedge $-1 $262 $573 $579 $584 reversed $401 $-1 #
vertex $-1 $584 $585 #
vertex $-1 $263 $586 #
straight-curve $-1 -13.392770185157467 38.481227117794717 67.887364149921581 0 0 -1 I I #
coedge $-1 $415 $415 $-1 $587 reversed $266 $-1 #
edge $-1 $588 0 $588 6.2831853071796004 $267 $589 forward 7 unknown #
vertex $-1 $270 $590 #
ellipse-curve $-1 -22.876051784571722 36.496643765546153 7.2991220221005468 0 0.79863551827123203 0.60181501223851219 1 0 0 1 I I #
coedge $-1 $419 $419 $-1 $591 reversed $273 $-1 #
edge $-1 $592 0 $592 6.2831853071796004 $274 $593 forward 7 unknown #
vertex $-1 $277 $594 #
ellipse-curve $-1 -17.186082824923169 36.496643765546153 7.2991220221005468 0 0.79863551827123203 0.60181501223851219 1 0 0 1 I I #
face $-1 $-1 $595 $57 $-1 $596 forward single #
loop $-1 $-1 $284 $278 #
plane-surface $-1 0 38.481227117794717 0 0 -1 0 0 0 -1 forward_v I I I I #
coedge $-1 $597 $598 $599 $600 reversed $279 $-1 #
coedge $-1 $601 $281 $283 $433 forward $175 $-1 #
coedge $-1 $281 $601 $597 $602 forward $175 $-1 #
coedge $-1 $599 $284 $281 $430 forward $424 $-1 #
edge $-1 $436 -16.653830771963698 $603 -3.3772365327837406 $429 $604 forward 7 unknown #
coedge $-1 $605 $606 $282 $432 forward $595 $-1 #
edge $-1 $607 -7.7805200888311603 $435 -3.8113533843340406 $431 $608 forward 7 unknown #
edge $-1 $436 -76.962454235589433 $607 -70.367127392988081 $283 $609 forward 7 unknown #
coedge $-1 $284 $599 $605 $610 reversed $424 $-1 #
vertex $-1 $610 $611 #
vertex $-1 $285 $612 #
straight-curve $-1 26.669364424337417 38.481227117794717 67.887364149921581 0 0 -1 I I #
coedge $-1 $438 $438 $-1 $613 reversed $288 $-1 #
edge $-1 $614 0 $614 6.2831853071796004 $289 $615 forward 7 unknown #
vertex $-1 $292 $616 #
ellipse-curve $-1 17.186082824923162 36.496643765546153 7.2991220221005468 0 0.79863551827123203 0.60181501223851219 1 0 0 1 I I #
coedge $-1 $442 $442 $-1 $617 reversed $295 $-1 #
edge $-1 $618 0 $618 6.2831853071796004 $296 $619 forward 7 unknown #
vertex $-1 $299 $620 #
ellipse-curve $-1 22.876051784571715 36.496643765546153 7.2991220221005468 0 0.79863551827123203 0.60181501223851219 1 0 0 1 I I #
face $-1 $-1 $315 $45 $-1 $621 reversed single #
loop $-1 $-1 $462 $300 #
plane-surface $-1 0 38.481227117794717 0 0 -1 0 0 0 -1 forward_v I I I I #
coedge $-1 $622 $460 $463 $623 forward $301 $-1 #
coedge $-1 $466 $303 $304 $454 reversed $189 $-1 #
coedge $-1 $460 $622 $303 $452 reversed $301 $-1 #
edge $-1 $467 -9.9327531576550854 $624 9.9327531576550854 $451 $625 forward 7 unknown #
coedge $-1 $305 $304 $622 $626 forward $121 $-1 #
edge $-1 $458 -57.861873226111641 $624 57.861873226111641 $450 $627 forward 7 unknown #
coedge $-1 $463 $462 $305 $456 reversed $447 $-1 #
edge $-1 $628 -57.861873226111641 $457 57.861873226111641 $455 $629 forward 7 unknown #
vertex $-1 $307 $630 #
vertex $-1 $469 $631 #
straight-curve $-1 57.861873226111641 0 -9.9327531576550854 0 -1 0 I I #
coedge $-1 $449 $451 $308 $461 reversed $301 $-1 #
edge $-1 $464 -38.481227117794717 $467 38.481227117794717 $460 $632 forward 7 unknown #
coedge $-1 $455 $309 $314 $470 forward $447 $-1 #
coedge $-1 $309 $455 $449 $623 reversed $447 $-1 #
vertex $-1 $310 $633 #
straight-curve $-1 0 38.481227117794717 9.9327531576550854 -1 0 0 I I #
coedge $-1 $311 $450 $313 $469 reversed $189 $-1 #
vertex $-1 $461 $634 #
straight-curve $-1 0 -38.481227117794717 9.9327531576550854 1 0 0 I I #
edge $-1 $316 -9.9327531576550854 $458 9.9327531576550854 $313 $635 forward 7 unknown #
edge $-1 $317 -9.9327531576550854 $457 9.9327531576550854 $314 $636 forward 7 unknown #
point $-1 57.861873226111641 -38.481227117794717 9.9327531576550854 #
point $-1 57.861873226111641 38.481227117794717 9.9327531576550854 #
face $-1 $-1 $486 $46 $-1 $637 reversed single #
loop $-1 $-1 $482 $319 #
plane-surface $-1 -57.861873226111641 0 0 1 0 0 0 0 -1 forward_v I I I I #
coedge $-1 $638 $322 $479 $639 forward $197 $-1 #
coedge $-1 $322 $638 $640 $641 forward $197 $-1 #
edge $-1 $642 -38.481227117794717 $480 38.481227117794717 $322 $643 forward 7 unknown #
coedge $-1 $324 $489 $476 $639 reversed $320 $-1 #
vertex $-1 $639 $644 #
straight-curve $-1 -45.440072221605803 -38.481227117794717 -4.2163765788275427 0 0 1 I I #
coedge $-1 $645 $646 $326 $483 forward $474 $-1 #
edge $-1 $490 -38.481227117794717 $487 38.481227117794717 $482 $647 forward 7 unknown #
coedge $-1 $640 $327 $331 $492 forward $486 $-1 #
coedge $-1 $327 $640 $645 $648 reversed $486 $-1 #
loop $-1 $-1 $484 $473 #
vertex $-1 $648 $649 #
straight-curve $-1 -25.825486361929361 38.481227117794717 -6.9327531576550854 1 0 0 I I #
coedge $-1 $479 $329 $646 $650 forward $320 $-1 #
vertex $-1 $650 $651 #
straight-curve $-1 -25.825486361929361 -38.481227117794717 -6.9327531576550854 -1 0 0 I I #
edge $-1 $333 2.7163765788275427 $642 5.7163765788275427 $484 $652 forward 7 unknown #
point $-1 -45.440072221605803 -38.481227117794717 -6.9327531576550854 #
point $-1 -45.440072221605803 38.481227117794717 -6.9327531576550854 #
face $-1 $-1 $349 $47 $-1 $653 reversed single #
loop $-1 $-1 $344 $335 #
plane-surface $-1 0 38.481227117794717 0 0 -1 0 0 0 -1 forward_v I I I I #
coedge $-1 $654 $655 $339 $502 forward $336 $-1 #
coedge $-1 $656 $338 $501 $657 forward $205 $-1 #
coedge $-1 $338 $656 $347 $513 reversed $205 $-1 #
coedge $-1 $340 $339 $499 $657 reversed $129 $-1 #
edge $-1 $658 -38.481227117794717 $505 38.481227117794717 $498 $659 forward 7 unknown #
edge $-1 $506 -38.481227117794717 $510 38.481227117794717 $340 $660 forward 7 unknown #
coedge $-1 $341 $508 $654 $661 reversed $496 $-1 #
vertex $-1 $661 $662 #
vertex $-1 $345 $663 #
straight-curve $-1 45.44007222160581 38.481227117794717 -4.2163765788275427 0 0 1 I I #
coedge $-1 $504 $344 $348 $514 forward $496 $-1 #
straight-curve $-1 25.825486361929364 38.481227117794717 -6.9327531576550854 1 0 0 I I #
vertex $-1 $346 $664 #
straight-curve $-1 25.825486361929364 -38.481227117794717 -6.9327531576550854 -1 0 0 I I #
coedge $-1 $348 $347 $665 $666 reversed $349 $-1 #
edge $-1 $351 6.9327531576550854 $667 9.9327531576550854 $347 $668 forward 7 unknown #
edge $-1 $350 6.9327531576550854 $669 9.9327531576550854 $348 $670 forward 7 unknown #
point $-1 57.861873226111648 38.481227117794717 -6.9327531576550854 #
point $-1 57.861873226111648 -38.481227117794717 -6.9327531576550854 #
plane-surface $-1 0 -38.481227117794717 0 0 1 0 0 0 1 forward_v I I I I #
coedge $-1 $528 $527 $520 $671 forward $354 $-1 #
coedge $-1 $520 $356 $358 $524 reversed $213 $-1 #
coedge $-1 $356 $519 $518 $671 reversed $213 $-1 #
coedge $-1 $364 $359 $356 $522 forward $365 $-1 #
edge $-1 $525 -32.48939850044264 $672 -27.222136229333529 $521 $673 forward 7 unknown #
coedge $-1 $358 $357 $528 $674 reversed $133 $-1 #
edge $-1 $675 -6.5953268426013398 $525 2.3448253187574213e-014 $519 $676 forward 7 unknown #
vertex $-1 $360 $677 #
straight-curve $-1 -10.015533652373723 -38.481227117794717 4.6654908865459728 1 0 0 I I #
coedge $-1 $518 $361 $364 $532 forward $354 $-1 #
coedge $-1 $361 $518 $523 $674 forward $354 $-1 #
vertex $-1 $362 $678 #
straight-curve $-1 -26.669364424337424 -65.451160670977345 9.9327531576550854 0 -1 0 I I #
straight-curve $-1 -26.669364424337424 -38.481227117794703 4.6654908865459959 0 0.60181501223851219 0.79863551827123203 I I #
edge $-1 $366 -26.669364424337424 $672 -13.392770185157467 $364 $679 forward 7 unknown #
point $-1 -26.669364424337424 -38.481227117794717 9.9327531576550854 #
point $-1 -26.669364424337424 -38.481227117794717 4.6654908865459772 #
edge $-1 $680 1 $680 0 $369 $-1 forward 7 unknown #
vertex $-1 $370 $681 #
ellipse-curve $-1 -22.876051784571722 -35.353103580413254 6.437402708638623 0 -0.79863551827123203 0.60181501223851219 1 0 0 1 I I #
point $-1 -21.876051784571722 -36.496643765546153 7.2991220221005353 #
edge $-1 $682 1 $682 0 $373 $-1 forward 7 unknown #
vertex $-1 $374 $683 #
ellipse-curve $-1 -17.186082824923169 -35.353103580413254 6.437402708638623 0 -0.79863551827123203 0.60181501223851219 1 0 0 1 I I #
point $-1 -16.186082824923169 -36.496643765546153 7.2991220221005353 #
loop $-1 $-1 $385 $377 #
plane-surface $-1 0 0 9.9327531576550854 0 0 1 1 0 0 forward_v I I I I #
coedge $-1 $546 $380 $382 $550 reversed $235 $-1 #
coedge $-1 $380 $545 $684 $685 reversed $235 $-1 #
coedge $-1 $388 $383 $380 $548 forward $378 $-1 #
edge $-1 $551 -32.48939850044264 $686 -27.222136229333529 $547 $687 forward 7 unknown #
coedge $-1 $382 $381 $554 $688 reversed $147 $-1 #
edge $-1 $689 -6.5953268426013398 $551 2.3448253187574213e-014 $545 $690 forward 7 unknown #
vertex $-1 $384 $691 #
straight-curve $-1 10.015533652373719 -38.481227117794717 4.6654908865459728 1 0 0 I I #
coedge $-1 $684 $385 $388 $558 forward $543 $-1 #
coedge $-1 $385 $684 $549 $688 forward $543 $-1 #
vertex $-1 $386 $692 #
straight-curve $-1 13.39277018515746 -65.451160670977345 9.9327531576550854 0 -1 0 I I #
straight-curve $-1 13.39277018515746 -38.481227117794703 4.6654908865459959 0 0.60181501223851219 0.79863551827123203 I I #
edge $-1 $389 13.39277018515746 $686 26.669364424337417 $388 $693 forward 7 unknown #
point $-1 13.39277018515746 -38.481227117794717 9.9327531576550854 #
point $-1 13.39277018515746 -38.481227117794717 4.6654908865459772 #
edge $-1 $694 1 $694 0 $392 $-1 forward 7 unknown #
vertex $-1 $393 $695 #
ellipse-curve $-1 17.186082824923162 -35.353103580413254 6.437402708638623 0 -0.79863551827123203 0.60181501223851219 1 0 0 1 I I #
point $-1 18.186082824923162 -36.496643765546153 7.2991220221005353 #
edge $-1 $696 1 $696 0 $396 $-1 forward 7 unknown #
vertex $-1 $397 $697 #
ellipse-curve $-1 22.876051784571715 -35.353103580413254 6.437402708638623 0 -0.79863551827123203 0.60181501223851219 1 0 0 1 I I #
point $-1 23.876051784571715 -36.496643765546153 7.2991220221005353 #
loop $-1 $-1 $408 $400 #
plane-surface $-1 0 0 9.9327531576550854 0 0 1 1 0 0 forward_v I I I I #
coedge $-1 $572 $403 $405 $576 reversed $257 $-1 #
coedge $-1 $403 $571 $698 $699 reversed $257 $-1 #
coedge $-1 $411 $406 $403 $574 forward $401 $-1 #
edge $-1 $577 -63.221873263375599 $700 -57.954610992266495 $573 $701 forward 7 unknown #
coedge $-1 $405 $404 $580 $702 reversed $161 $-1 #
edge $-1 $703 70.367127392988081 $577 76.962454235589433 $571 $704 forward 7 unknown #
vertex $-1 $407 $705 #
straight-curve $-1 -10.015533652373723 38.481227117794717 4.6654908865459923 -1 0 0 I I #
coedge $-1 $698 $408 $411 $584 forward $569 $-1 #
coedge $-1 $408 $698 $575 $702 forward $569 $-1 #
vertex $-1 $409 $706 #
straight-curve $-1 -13.392770185157467 42.292580502128757 9.9327531576550854 0 1 0 I I #
straight-curve $-1 -13.392770185157467 -7.835933219902472 66.130440412411929 0 -0.60181501223851219 0.79863551827123203 I I #
edge $-1 $412 13.392770185157467 $700 26.669364424337424 $411 $707 forward 7 unknown #
point $-1 -13.392770185157467 38.481227117794717 9.9327531576550854 #
point $-1 -13.392770185157467 38.481227117794717 4.6654908865459817 #
edge $-1 $708 1 $708 0 $415 $-1 forward 7 unknown #
vertex $-1 $416 $709 #
ellipse-curve $-1 -22.876051784571722 35.353103580413247 6.4374027086386336 0 0.79863551827123203 0.60181501223851219 1 0 0 1 I I #
point $-1 -21.876051784571722 36.496643765546146 7.2991220221005459 #
edge $-1 $710 1 $710 0 $419 $-1 forward 7 unknown #
vertex $-1 $420 $711 #
ellipse-curve $-1 -17.186082824923169 35.353103580413247 6.4374027086386336 0 0.79863551827123203 0.60181501223851219 1 0 0 1 I I #
point $-1 -16.186082824923169 36.496643765546146 7.2991220221005459 #
loop $-1 $-1 $431 $423 #
plane-surface $-1 0 0 9.9327531576550854 0 0 1 1 0 0 forward_v I I I I #
coedge $-1 $598 $426 $428 $602 reversed $279 $-1 #
coedge $-1 $426 $597 $712 $713 reversed $279 $-1 #
coedge $-1 $434 $429 $426 $600 forward $424 $-1 #
edge $-1 $603 -63.221873263375599 $714 -57.954610992266495 $599 $715 forward 7 unknown #
coedge $-1 $428 $427 $606 $716 reversed $175 $-1 #
edge $-1 $717 70.367127392988081 $603 76.962454235589433 $597 $718 forward 7 unknown #
vertex $-1 $430 $719 #
straight-curve $-1 10.015533652373719 38.481227117794717 4.6654908865459923 -1 0 0 I I #
coedge $-1 $712 $431 $434 $610 forward $595 $-1 #
coedge $-1 $431 $712 $601 $716 forward $595 $-1 #
vertex $-1 $432 $720 #
straight-curve $-1 26.669364424337417 42.292580502128757 9.9327531576550854 0 1 0 I I #
straight-curve $-1 26.669364424337417 -7.835933219902472 66.130440412411929 0 -0.60181501223851219 0.79863551827123203 I I #
edge $-1 $435 -26.669364424337417 $714 -13.39277018515746 $434 $721 forward 7 unknown #
point $-1 26.669364424337417 38.481227117794717 9.9327531576550854 #
point $-1 26.669364424337417 38.481227117794717 4.6654908865459817 #
edge $-1 $722 1 $722 0 $438 $-1 forward 7 unknown #
vertex $-1 $439 $723 #
ellipse-curve $-1 17.186082824923162 35.353103580413247 6.4374027086386336 0 0.79863551827123203 0.60181501223851219 1 0 0 1 I I #
point $-1 18.186082824923162 36.496643765546146 7.2991220221005459 #
edge $-1 $724 1 $724 0 $442 $-1 forward 7 unknown #
vertex $-1 $443 $725 #
ellipse-curve $-1 22.876051784571715 35.353103580413247 6.4374027086386336 0 0.79863551827123203 0.60181501223851219 1 0 0 1 I I #
point $-1 23.876051784571715 36.496643765546146 7.2991220221005459 #
plane-surface $-1 57.861873226111641 0 0 -1 0 0 0 0 1 forward_v I I I I #
coedge $-1 $451 $449 $453 $626 reversed $301 $-1 #
edge $-1 $464 -9.9327531576550854 $628 9.9327531576550854 $463 $726 forward 7 unknown #
vertex $-1 $626 $727 #
straight-curve $-1 -57.861873226111641 -38.481227117794717 0 0 0 -1 I I #
edge $-1 $624 -38.481227117794717 $628 38.481227117794717 $622 $728 forward 7 unknown #
straight-curve $-1 0 -38.481227117794717 -9.9327531576550854 -1 0 0 I I #
vertex $-1 $456 $729 #
straight-curve $-1 0 38.481227117794717 -9.9327531576550854 1 0 0 I I #
point $-1 57.861873226111641 38.481227117794717 -9.9327531576550854 #
point $-1 57.861873226111641 -38.481227117794717 -9.9327531576550854 #
straight-curve $-1 -57.861873226111641 0 9.9327531576550854 0 -1 0 I I #
point $-1 -57.861873226111641 38.481227117794717 9.9327531576550854 #
point $-1 -57.861873226111641 -38.481227117794717 9.9327531576550854 #
straight-curve $-1 57.861873226111641 -38.481227117794717 0 0 0 -1 I I #
straight-curve $-1 57.861873226111641 38.481227117794717 0 0 0 -1 I I #
plane-surface $-1 0 38.481227117794717 0 0 -1 0 0 0 -1 forward_v I I I I #
coedge $-1 $477 $476 $730 $731 forward $197 $-1 #
edge $-1 $480 45.440072221605803 $732 57.861873226111641 $479 $733 forward 7 unknown #
coedge $-1 $485 $484 $477 $641 reversed $486 $-1 #
edge $-1 $734 -57.861873226111641 $642 -45.440072221605803 $640 $735 forward 7 unknown #
vertex $-1 $492 $736 #
straight-curve $-1 -45.440072221605803 0 -9.9327531576550854 0 -1 0 I I #
point $-1 -45.440072221605803 -38.481227117794717 -9.9327531576550854 #
coedge $-1 $730 $482 $485 $648 forward $474 $-1 #
coedge $-1 $482 $730 $489 $650 reversed $474 $-1 #
straight-curve $-1 -57.861873226111641 0 -6.9327531576550854 0 1 0 I I #
edge $-1 $487 6.9327531576550854 $734 9.9327531576550854 $485 $737 forward 7 unknown #
point $-1 -57.861873226111641 38.481227117794717 -6.9327531576550854 #
edge $-1 $490 6.9327531576550854 $732 9.9327531576550854 $646 $738 forward 7 unknown #
point $-1 -57.861873226111641 -38.481227117794717 -6.9327531576550854 #
straight-curve $-1 -45.440072221605803 38.481227117794717 -4.2163765788275427 0 0 -1 I I #
plane-surface $-1 57.861873226111641 0 0 -1 0 0 0 0 1 forward_v I I I I #
coedge $-1 $665 $498 $504 $661 forward $336 $-1 #
coedge $-1 $498 $665 $656 $739 forward $336 $-1 #
coedge $-1 $500 $499 $655 $739 reversed $205 $-1 #
edge $-1 $510 2.7163765788275427 $658 5.7163765788275427 $499 $740 forward 7 unknown #
vertex $-1 $502 $741 #
straight-curve $-1 45.44007222160581 0 -9.9327531576550854 0 1 0 I I #
straight-curve $-1 45.44007222160581 0 -6.9327531576550854 0 -1 0 I I #
edge $-1 $505 45.44007222160581 $669 57.861873226111641 $504 $742 forward 7 unknown #
point $-1 45.44007222160581 38.481227117794717 -9.9327531576550854 #
point $-1 45.44007222160581 38.481227117794717 -6.9327531576550854 #
point $-1 45.44007222160581 -38.481227117794717 -6.9327531576550854 #
coedge $-1 $655 $654 $512 $666 forward $336 $-1 #
edge $-1 $669 -38.481227117794717 $667 38.481227117794717 $512 $743 forward 7 unknown #
vertex $-1 $513 $744 #
straight-curve $-1 57.861873226111641 -38.481227117794717 0 0 0 -1 I I #
vertex $-1 $666 $745 #
straight-curve $-1 57.861873226111641 38.481227117794717 0 0 0 -1 I I #
edge $-1 $672 26.969933553182628 $675 30.939100257679755 $518 $746 forward 7 unknown #
vertex $-1 $671 $747 #
straight-curve $-1 -13.392770185157467 -38.481227117794717 37.154889386988614 0 0 1 I I #
edge $-1 $675 3.3772365327837441 $529 16.653830771963701 $528 $748 forward 7 unknown #
vertex $-1 $674 $749 #
straight-curve $-1 -13.392770185157467 -38.481227117794703 4.6654908865459959 0 -0.60181501223851219 -0.79863551827123203 I I #
point $-1 -13.392770185157467 -38.481227117794717 4.6654908865459772 #
point $-1 -26.669364424337424 -34.51206041329759 9.9327531576550854 #
straight-curve $-1 0 -38.481227117794717 9.9327531576550854 1 0 0 I I #
vertex $-1 $535 $750 #
point $-1 -21.876051784571722 -35.353103580413254 6.437402708638623 #
vertex $-1 $539 $751 #
point $-1 -16.186082824923169 -35.353103580413254 6.437402708638623 #
coedge $-1 $554 $553 $546 $685 forward $543 $-1 #
edge $-1 $686 26.969933553182628 $689 30.939100257679755 $684 $752 forward 7 unknown #
vertex $-1 $685 $753 #
straight-curve $-1 26.669364424337417 -38.481227117794717 37.154889386988614 0 0 1 I I #
edge $-1 $689 -16.653830771963698 $555 -3.3772365327837406 $554 $754 forward 7 unknown #
vertex $-1 $688 $755 #
straight-curve $-1 26.669364424337417 -38.481227117794703 4.6654908865459959 0 -0.60181501223851219 -0.79863551827123203 I I #
point $-1 26.669364424337417 -38.481227117794717 4.6654908865459772 #
point $-1 13.39277018515746 -34.51206041329759 9.9327531576550854 #
straight-curve $-1 0 -38.481227117794717 9.9327531576550854 1 0 0 I I #
vertex $-1 $561 $756 #
point $-1 18.186082824923162 -35.353103580413254 6.437402708638623 #
vertex $-1 $565 $757 #
point $-1 23.876051784571715 -35.353103580413254 6.437402708638623 #
coedge $-1 $580 $579 $572 $699 forward $569 $-1 #
edge $-1 $700 3.8113533843340406 $703 7.7805200888311603 $698 $758 forward 7 unknown #
vertex $-1 $699 $759 #
straight-curve $-1 -26.669364424337424 38.481227117794717 67.887364149921581 0 0 1 I I #
edge $-1 $703 -16.653830771963701 $581 -3.3772365327837441 $580 $760 forward 7 unknown #
vertex $-1 $702 $761 #
straight-curve $-1 -26.669364424337424 -7.835933219902472 66.130440412411929 0 0.60181501223851219 -0.79863551827123203 I I #
point $-1 -26.669364424337424 38.481227117794717 4.6654908865459817 #
point $-1 -13.392770185157467 34.512060413297597 9.9327531576550854 #
straight-curve $-1 0 38.481227117794717 9.9327531576550854 -1 0 0 I I #
vertex $-1 $587 $762 #
point $-1 -21.876051784571722 35.353103580413247 6.4374027086386336 #
vertex $-1 $591 $763 #
point $-1 -16.186082824923169 35.353103580413247 6.4374027086386336 #
coedge $-1 $606 $605 $598 $713 forward $595 $-1 #
edge $-1 $714 3.8113533843340406 $717 7.7805200888311603 $712 $764 forward 7 unknown #
vertex $-1 $713 $765 #
straight-curve $-1 13.39277018515746 38.481227117794717 67.887364149921581 0 0 1 I I #
edge $-1 $717 3.3772365327837406 $607 16.653830771963698 $606 $766 forward 7 unknown #
vertex $-1 $716 $767 #
straight-curve $-1 13.39277018515746 -7.835933219902472 66.130440412411929 0 0.60181501223851219 -0.79863551827123203 I I #
point $-1 13.39277018515746 38.481227117794717 4.6654908865459817 #
point $-1 26.669364424337417 34.512060413297597 9.9327531576550854 #
straight-curve $-1 0 38.481227117794717 9.9327531576550854 -1 0 0 I I #
vertex $-1 $613 $768 #
point $-1 18.186082824923162 35.353103580413247 6.4374027086386336 #
vertex $-1 $617 $769 #
point $-1 23.876051784571715 35.353103580413247 6.4374027086386336 #
straight-curve $-1 -57.861873226111641 38.481227117794717 0 0 0 -1 I I #
point $-1 -57.861873226111641 -38.481227117794717 -9.9327531576550854 #
straight-curve $-1 -57.861873226111641 0 -9.9327531576550854 0 1 0 I I #
point $-1 -57.861873226111641 38.481227117794717 -9.9327531576550854 #
coedge $-1 $646 $645 $638 $731 reversed $474 $-1 #
edge $-1 $732 -38.481227117794717 $734 38.481227117794717 $730 $770 forward 7 unknown #
vertex $-1 $731 $771 #
straight-curve $-1 0 -38.481227117794717 -9.9327531576550854 -1 0 0 I I #
vertex $-1 $641 $772 #
straight-curve $-1 0 38.481227117794717 -9.9327531576550854 1 0 0 I I #
point $-1 -45.440072221605803 38.481227117794717 -9.9327531576550854 #
straight-curve $-1 -57.861873226111641 38.481227117794717 0 0 0 -1 I I #
straight-curve $-1 -57.861873226111641 -38.481227117794717 0 0 0 -1 I I #
edge $-1 $667 -57.861873226111641 $658 -45.44007222160581 $656 $773 forward 7 unknown #
straight-curve $-1 45.44007222160581 -38.481227117794717 -4.2163765788275427 0 0 -1 I I #
point $-1 45.44007222160581 -38.481227117794717 -9.9327531576550854 #
straight-curve $-1 0 38.481227117794717 -9.9327531576550854 1 0 0 I I #
straight-curve $-1 57.861873226111641 0 -9.9327531576550854 0 -1 0 I I #
point $-1 57.861873226111641 -38.481227117794717 -9.9327531576550854 #
point $-1 57.861873226111641 38.481227117794717 -9.9327531576550854 #
straight-curve $-1 -13.392770185157467 -65.451160670977345 9.9327531576550854 0 1 0 I I #
point $-1 -13.392770185157467 -38.481227117794717 9.9327531576550854 #
straight-curve $-1 -10.015533652373723 -34.51206041329759 9.9327531576550854 -1 0 0 I I #
point $-1 -13.392770185157467 -34.51206041329759 9.9327531576550854 #
point $-1 -22.876051784571722 -34.554468062142028 5.8355876964001103 #
point $-1 -17.186082824923169 -34.554468062142028 5.8355876964001103 #
straight-curve $-1 26.669364424337417 -65.451160670977345 9.9327531576550854 0 1 0 I I #
point $-1 26.669364424337417 -38.481227117794717 9.9327531576550854 #
straight-curve $-1 10.015533652373719 -34.51206041329759 9.9327531576550854 -1 0 0 I I #
point $-1 26.669364424337417 -34.51206041329759 9.9327531576550854 #
point $-1 17.186082824923162 -34.554468062142028 5.8355876964001103 #
point $-1 22.876051784571715 -34.554468062142028 5.8355876964001103 #
straight-curve $-1 -26.669364424337424 42.292580502128757 9.9327531576550854 0 -1 0 I I #
point $-1 -26.669364424337424 38.481227117794717 9.9327531576550854 #
straight-curve $-1 -10.015533652373723 34.512060413297597 9.9327531576550925 1 0 0 I I #
point $-1 -26.669364424337424 34.512060413297597 9.9327531576550854 #
point $-1 -22.876051784571722 34.554468062142021 5.835587696400121 #
point $-1 -17.186082824923169 34.554468062142021 5.835587696400121 #
straight-curve $-1 13.39277018515746 42.292580502128757 9.9327531576550854 0 -1 0 I I #
point $-1 13.39277018515746 38.481227117794717 9.9327531576550854 #
straight-curve $-1 10.015533652373719 34.512060413297597 9.9327531576550925 1 0 0 I I #
point $-1 13.39277018515746 34.512060413297597 9.9327531576550854 #
point $-1 17.186082824923162 34.554468062142021 5.835587696400121 #
point $-1 22.876051784571715 34.554468062142021 5.835587696400121 #
straight-curve $-1 -57.861873226111641 0 -9.9327531576550854 0 1 0 I I #
point $-1 -57.861873226111641 -38.481227117794717 -9.9327531576550854 #
point $-1 -57.861873226111641 38.481227117794717 -9.9327531576550854 #
straight-curve $-1 0 -38.481227117794717 -9.9327531576550854 -1 0 0 I I #
End-of-ACIS-data 