500 0 17 0           
7 Unknown 11 ACIS 5.0 NT 24 Thu Mar 25 15:32:44 1999 
-1 9.9999999999999995e-007 1e-010 
body $-1 $17 $-1 $18 #
body $-1 $19 $-1 $20 #
body $-1 $21 $-1 $22 #
body $-1 $23 $-1 $24 #
body $-1 $25 $-1 $26 #
body $-1 $27 $-1 $28 #
body $-1 $29 $-1 $30 #
body $-1 $31 $-1 $32 #
body $-1 $33 $-1 $34 #
body $-1 $35 $-1 $36 #
body $-1 $37 $-1 $38 #
body $-1 $39 $-1 $40 #
body $-1 $41 $-1 $42 #
body $-1 $43 $-1 $44 #
body $-1 $45 $-1 $46 #
body $-1 $47 $-1 $48 #
body $-1 $49 $-1 $50 #
lump $-1 $-1 $51 $0 #
transform $-1 1 0 0 0 1 0 0 0 1 62.276070436719877 27.609051558369661 7.9413834326497419 1 rotate no_reflect no_shear #
lump $-1 $-1 $52 $1 #
transform $-1 1 0 0 0 1 0 0 0 1 62.276070436719877 27.609051558369661 7.9413834326497419 1 rotate no_reflect no_shear #
lump $-1 $-1 $53 $2 #
transform $-1 1 0 0 0 1 0 0 0 1 62.276070436719877 27.609051558369661 7.9413834326497419 1 rotate no_reflect no_shear #
lump $-1 $-1 $54 $3 #
transform $-1 1 0 0 0 1 0 0 0 1 62.276070436719877 27.609051558369661 7.9413834326497419 1 rotate no_reflect no_shear #
lump $-1 $-1 $55 $4 #
transform $-1 1 0 0 0 1 0 0 0 1 62.276070436719877 27.609051558369661 7.9413834326497419 1 rotate no_reflect no_shear #
lump $-1 $-1 $56 $5 #
transform $-1 1 0 0 0 1 0 0 0 1 62.276070436719877 27.609051558369661 7.9413834326497419 1 rotate no_reflect no_shear #
lump $-1 $-1 $57 $6 #
transform $-1 1 0 0 0 1 0 0 0 1 62.276070436719877 27.609051558369661 7.9413834326497419 1 rotate no_reflect no_shear #
lump $-1 $-1 $58 $7 #
transform $-1 1 0 0 0 1 0 0 0 1 62.276070436719877 27.609051558369661 7.9413834326497419 1 rotate no_reflect no_shear #
lump $-1 $-1 $59 $8 #
transform $-1 1 0 0 0 1 0 0 0 1 62.276070436719877 27.609051558369661 7.9413834326497419 1 rotate no_reflect no_shear #
lump $-1 $-1 $60 $9 #
transform $-1 1 0 0 0 1 0 0 0 1 62.276070436719877 27.609051558369661 7.9413834326497419 1 rotate no_reflect no_shear #
lump $-1 $-1 $61 $10 #
transform $-1 1 0 0 0 1 0 0 0 1 62.276070436719877 27.609051558369661 7.9413834326497419 1 rotate no_reflect no_shear #
lump $-1 $-1 $62 $11 #
transform $-1 1 0 0 0 1 0 0 0 1 62.276070436719877 27.609051558369661 7.9413834326497419 1 rotate no_reflect no_shear #
lump $-1 $-1 $63 $12 #
transform $-1 1 0 0 0 1 0 0 0 1 62.276070436719877 27.609051558369661 7.9413834326497419 1 rotate no_reflect no_shear #
lump $-1 $-1 $64 $13 #
transform $-1 1 0 0 0 1 0 0 0 1 62.276070436719877 27.609051558369661 7.9413834326497419 1 rotate no_reflect no_shear #
lump $-1 $-1 $65 $14 #
transform $-1 1 0 0 0 1 0 0 0 1 62.276070436719877 27.609051558369661 7.9413834326497419 1 rotate no_reflect no_shear #
lump $-1 $-1 $66 $15 #
transform $-1 1 0 0 0 1 0 0 0 1 62.276070436719877 27.609051558369661 7.9413834326497419 1 rotate no_reflect no_shear #
lump $-1 $-1 $67 $16 #
transform $-1 1 0 0 0 1 0 0 0 1 62.276070436719877 27.609051558369661 7.9413834326497419 1 rotate no_reflect no_shear #
shell $-1 $-1 $-1 $68 $-1 $17 #
shell $-1 $-1 $-1 $69 $-1 $19 #
shell $-1 $-1 $-1 $70 $-1 $21 #
shell $-1 $-1 $-1 $71 $-1 $23 #
shell $-1 $-1 $-1 $72 $-1 $25 #
shell $-1 $-1 $-1 $73 $-1 $27 #
shell $-1 $-1 $-1 $74 $-1 $29 #
shell $-1 $-1 $-1 $75 $-1 $31 #
shell $-1 $-1 $-1 $76 $-1 $33 #
shell $-1 $-1 $-1 $77 $-1 $35 #
shell $-1 $-1 $-1 $78 $-1 $37 #
shell $-1 $-1 $-1 $79 $-1 $39 #
shell $-1 $-1 $-1 $80 $-1 $41 #
shell $-1 $-1 $-1 $81 $-1 $43 #
shell $-1 $-1 $-1 $82 $-1 $45 #
shell $-1 $-1 $-1 $83 $-1 $47 #
shell $-1 $-1 $-1 $84 $-1 $49 #
face $-1 $85 $86 $51 $-1 $87 forward single #
face $-1 $88 $89 $52 $-1 $90 forward single #
face $-1 $91 $92 $53 $-1 $93 reversed single #
face $-1 $94 $95 $54 $-1 $96 forward single #
face $-1 $97 $98 $55 $-1 $99 forward single #
face $-1 $100 $101 $56 $-1 $102 reversed single #
face $-1 $103 $104 $57 $-1 $105 forward single #
face $-1 $106 $107 $58 $-1 $108 forward single #
face $-1 $109 $110 $59 $-1 $111 reversed single #
face $-1 $112 $113 $60 $-1 $114 forward single #
face $-1 $115 $116 $61 $-1 $117 forward single #
face $-1 $118 $119 $62 $-1 $120 reversed single #
face $-1 $121 $122 $63 $-1 $123 forward single #
face $-1 $124 $125 $64 $-1 $126 forward single #
face $-1 $127 $128 $65 $-1 $129 reversed single #
face $-1 $130 $131 $66 $-1 $132 forward single #
face $-1 $133 $134 $67 $-1 $135 forward single #
face $-1 $136 $137 $51 $-1 $138 reversed single #
loop $-1 $-1 $139 $68 #
plane-surface $-1 0 0 7.9413834326497419 0 0 1 1 0 0 forward_v I I I I #
face $-1 $140 $141 $52 $-1 $142 reversed single #
loop $-1 $-1 $143 $69 #
plane-surface $-1 0 -23.181280112480284 -3.8178357780036278 0 0 1 1 0 0 forward_v I I I I #
face $-1 $144 $145 $53 $-1 $146 reversed single #
loop $-1 $-1 $147 $70 #
plane-surface $-1 -159.07126473803777 4.3443499749682246 81.747781121620719 0 1 0 -0.77714596973225614 0 0.62932038083071107 forward_v I I I I #
face $-1 $148 $149 $54 $-1 $150 forward single #
loop $-1 $151 $152 $71 #
cone-surface $-1 -59.856245574221127 6.1642840783509065 5.1940660576794278 0.77714596973225614 0 -0.62932038083071107 0.31466019041535553 0 0.38857298486612807 1 I I 0 1 0.5 forward I I I I #
face $-1 $153 $154 $55 $-1 $155 forward single #
loop $-1 $156 $157 $72 #
cone-surface $-1 -59.856245574221127 8.8941852334249383 5.1940660576794278 0.77714596973225614 0 -0.62932038083071107 0.31466019041535553 0 0.38857298486612807 1 I I 0 1 0.5 forward I I I I #
face $-1 $158 $159 $56 $-1 $160 reversed single #
loop $-1 $-1 $161 $73 #
plane-surface $-1 101.89970009292925 -12.553944432110999 171.71127379814493 0 -1 0 -0.84804810408105047 0 -0.52991925155115449 forward_v I I I I #
face $-1 $162 $163 $57 $-1 $164 forward single #
loop $-1 $165 $166 $74 #
cone-surface $-1 59.0488579650847 -16.982204599596649 3.5296488661672032 -0.84804810408105047 0 -0.52991925155115449 0.26495962577557725 0 -0.42402405204052523 1 I I 0 1 0.5 forward I I I I #
face $-1 $167 $168 $58 $-1 $169 forward single #
loop $-1 $170 $171 $75 #
cone-surface $-1 59.0488579650847 -14.325248499105259 3.5296488661672032 -0.84804810408105047 0 -0.52991925155115449 0.26495962577557725 0 -0.42402405204052523 1 I I 0 1 0.5 forward I I I I #
face $-1 $172 $173 $59 $-1 $174 reversed single #
loop $-1 $-1 $175 $76 #
plane-surface $-1 101.89970009292925 -0.96330437587085793 171.71127379814493 0 -1 0 -0.84804810408105047 0 -0.52991925155115449 forward_v I I I I #
face $-1 $176 $177 $60 $-1 $178 forward single #
loop $-1 $179 $180 $77 #
cone-surface $-1 59.0488579650847 -5.3915645433565054 3.5296488661672032 -0.84804810408105047 0 -0.52991925155115449 0.26495962577557725 0 -0.42402405204052523 1 I I 0 1 0.5 forward I I I I #
face $-1 $181 $182 $61 $-1 $183 forward single #
loop $-1 $184 $185 $78 #
cone-surface $-1 59.0488579650847 -2.7346084428651167 3.5296488661672032 -0.84804810408105047 0 -0.52991925155115449 0.26495962577557725 0 -0.42402405204052523 1 I I 0 1 0.5 forward I I I I #
face $-1 $186 $187 $62 $-1 $188 reversed single #
loop $-1 $-1 $189 $79 #
plane-surface $-1 101.89970009292925 10.627335680369281 171.71127379814493 0 -1 0 -0.84804810408105047 0 -0.52991925155115449 forward_v I I I I #
face $-1 $190 $191 $63 $-1 $192 forward single #
loop $-1 $193 $194 $80 #
cone-surface $-1 59.0488579650847 6.1990755128836348 3.5296488661672032 -0.84804810408105047 0 -0.52991925155115449 0.26495962577557725 0 -0.42402405204052523 1 I I 0 1 0.5 forward I I I I #
face $-1 $195 $196 $64 $-1 $197 forward single #
loop $-1 $198 $199 $81 #
cone-surface $-1 59.0488579650847 8.856031613375027 3.5296488661672032 -0.84804810408105047 0 -0.52991925155115449 0.26495962577557725 0 -0.42402405204052523 1 I I 0 1 0.5 forward I I I I #
face $-1 $200 $201 $65 $-1 $202 reversed single #
loop $-1 $-1 $203 $82 #
plane-surface $-1 101.89970009292925 22.217975736609421 171.71127379814493 0 -1 0 -0.84804810408105047 0 -0.52991925155115449 forward_v I I I I #
face $-1 $204 $205 $66 $-1 $206 forward single #
loop $-1 $207 $208 $83 #
cone-surface $-1 59.0488579650847 17.789715569123775 3.5296488661672032 -0.84804810408105047 0 -0.52991925155115449 0.26495962577557725 0 -0.42402405204052523 1 I I 0 1 0.5 forward I I I I #
face $-1 $209 $210 $67 $-1 $211 forward single #
loop $-1 $212 $213 $84 #
cone-surface $-1 59.0488579650847 20.446671669615167 3.5296488661672032 -0.84804810408105047 0 -0.52991925155115449 0.26495962577557725 0 -0.42402405204052523 1 I I 0 1 0.5 forward I I I I #
face $-1 $214 $215 $51 $-1 $216 reversed single #
loop $-1 $-1 $217 $85 #
plane-surface $-1 0 0 -7.9413834326497419 0 0 1 1 0 0 forward_v I I I I #
coedge $-1 $218 $219 $220 $221 forward $86 $-1 #
face $-1 $222 $223 $52 $-1 $224 reversed single #
loop $-1 $-1 $225 $88 #
plane-surface $-1 0 -18.753508666590907 -5.8796096053266851 0 -1 0 0 0 -1 forward_v I I I I #
coedge $-1 $226 $227 $228 $229 reversed $89 $-1 #
face $-1 $230 $231 $53 $-1 $232 reversed single #
loop $-1 $-1 $233 $91 #
plane-surface $-1 -62.276070436719863 7.5292346558879295 3.3645803938672429 -0.77714596973225614 0 0.62932038083071107 0.62932038083071107 0 0.77714596973225614 forward_v I I I I #
coedge $-1 $234 $235 $236 $237 reversed $92 $-1 #
face $-1 $-1 $238 $54 $-1 $239 forward single #
loop $-1 $240 $241 $94 #
cone-surface $-1 -59.095245181407577 6.1642840783509065 4.5778201068926787 0.77714596973225614 0 -0.62932038083071107 0.15733009520767777 0 0.19428649243306403 1 I I -0.70710678118654746 0.70710678118654746 0.25 forward I I I I #
loop $-1 $-1 $242 $71 #
coedge $-1 $152 $152 $243 $244 reversed $95 $-1 #
face $-1 $-1 $245 $55 $-1 $246 forward single #
loop $-1 $247 $248 $97 #
cone-surface $-1 -59.095245181407577 8.8941852334249383 4.5778201068926787 0.77714596973225614 0 -0.62932038083071107 0.15733009520767777 0 0.19428649243306403 1 I I -0.70710678118654746 0.70710678118654746 0.25 forward I I I I #
loop $-1 $-1 $249 $72 #
coedge $-1 $157 $157 $250 $251 reversed $98 $-1 #
face $-1 $252 $253 $56 $-1 $254 reversed single #
loop $-1 $-1 $255 $100 #
plane-surface $-1 -3.7265068340272478 -15.653726549350953 105.70869652739778 0.84804810408105047 0 0.52991925155115449 0.52991925155115449 0 -0.84804810408105047 forward_v I I I I #
coedge $-1 $256 $257 $258 $259 reversed $101 $-1 #
face $-1 $-1 $260 $57 $-1 $261 forward single #
loop $-1 $262 $263 $103 #
cone-surface $-1 58.065024333550383 -16.982204599596649 2.9148814029011181 -0.84804810408105047 0 -0.52991925155115449 0.13247981288778862 0 -0.21201202602026262 1 I I -0.70710678118654746 0.70710678118654746 0.25 forward I I I I #
loop $-1 $-1 $264 $74 #
coedge $-1 $166 $166 $265 $266 reversed $104 $-1 #
face $-1 $-1 $267 $58 $-1 $268 forward single #
loop $-1 $269 $270 $106 #
cone-surface $-1 58.065024333550383 -14.325248499105259 2.9148814029011181 -0.84804810408105047 0 -0.52991925155115449 0.13247981288778862 0 -0.21201202602026262 1 I I -0.70710678118654746 0.70710678118654746 0.25 forward I I I I #
loop $-1 $-1 $271 $75 #
coedge $-1 $171 $171 $272 $273 reversed $107 $-1 #
face $-1 $274 $275 $59 $-1 $276 reversed single #
loop $-1 $-1 $277 $109 #
plane-surface $-1 -3.7265068340272478 -4.0630864931108128 105.70869652739778 0.84804810408105047 0 0.52991925155115449 0.52991925155115449 0 -0.84804810408105047 forward_v I I I I #
coedge $-1 $278 $279 $280 $281 reversed $110 $-1 #
face $-1 $-1 $282 $60 $-1 $283 forward single #
loop $-1 $284 $285 $112 #
cone-surface $-1 58.065024333550383 -5.3915645433565054 2.9148814029011181 -0.84804810408105047 0 -0.52991925155115449 0.13247981288778862 0 -0.21201202602026262 1 I I -0.70710678118654746 0.70710678118654746 0.25 forward I I I I #
loop $-1 $-1 $286 $77 #
coedge $-1 $180 $180 $287 $288 reversed $113 $-1 #
face $-1 $-1 $289 $61 $-1 $290 forward single #
loop $-1 $291 $292 $115 #
cone-surface $-1 58.065024333550383 -2.7346084428651167 2.9148814029011181 -0.84804810408105047 0 -0.52991925155115449 0.13247981288778862 0 -0.21201202602026262 1 I I -0.70710678118654746 0.70710678118654746 0.25 forward I I I I #
loop $-1 $-1 $293 $78 #
coedge $-1 $185 $185 $294 $295 reversed $116 $-1 #
face $-1 $296 $297 $62 $-1 $298 reversed single #
loop $-1 $-1 $299 $118 #
plane-surface $-1 -3.7265068340272478 7.5275535631293273 105.70869652739778 0.84804810408105047 0 0.52991925155115449 0.52991925155115449 0 -0.84804810408105047 forward_v I I I I #
coedge $-1 $300 $301 $302 $303 reversed $119 $-1 #
face $-1 $-1 $304 $63 $-1 $305 forward single #
loop $-1 $306 $307 $121 #
cone-surface $-1 58.065024333550383 6.1990755128836348 2.9148814029011181 -0.84804810408105047 0 -0.52991925155115449 0.13247981288778862 0 -0.21201202602026262 1 I I -0.70710678118654746 0.70710678118654746 0.25 forward I I I I #
loop $-1 $-1 $308 $80 #
coedge $-1 $194 $194 $309 $310 reversed $122 $-1 #
face $-1 $-1 $311 $64 $-1 $312 forward single #
loop $-1 $313 $314 $124 #
cone-surface $-1 58.065024333550383 8.856031613375027 2.9148814029011181 -0.84804810408105047 0 -0.52991925155115449 0.13247981288778862 0 -0.21201202602026262 1 I I -0.70710678118654746 0.70710678118654746 0.25 forward I I I I #
loop $-1 $-1 $315 $81 #
coedge $-1 $199 $199 $316 $317 reversed $125 $-1 #
face $-1 $318 $319 $65 $-1 $320 reversed single #
loop $-1 $-1 $321 $127 #
plane-surface $-1 -3.7265068340272478 19.118193619369467 105.70869652739778 0.84804810408105047 0 0.52991925155115449 0.52991925155115449 0 -0.84804810408105047 forward_v I I I I #
coedge $-1 $322 $323 $324 $325 reversed $128 $-1 #
face $-1 $-1 $326 $66 $-1 $327 forward single #
loop $-1 $328 $329 $130 #
cone-surface $-1 58.065024333550383 17.789715569123775 2.9148814029011181 -0.84804810408105047 0 -0.52991925155115449 0.13247981288778862 0 -0.21201202602026262 1 I I -0.70710678118654746 0.70710678118654746 0.25 forward I I I I #
loop $-1 $-1 $330 $83 #
coedge $-1 $208 $208 $331 $332 reversed $131 $-1 #
face $-1 $-1 $333 $67 $-1 $334 forward single #
loop $-1 $335 $336 $133 #
cone-surface $-1 58.065024333550383 20.446671669615167 2.9148814029011181 -0.84804810408105047 0 -0.52991925155115449 0.13247981288778862 0 -0.21201202602026262 1 I I -0.70710678118654746 0.70710678118654746 0.25 forward I I I I #
loop $-1 $-1 $337 $84 #
coedge $-1 $213 $213 $338 $339 reversed $134 $-1 #
face $-1 $340 $341 $51 $-1 $342 reversed single #
loop $-1 $-1 $343 $136 #
plane-surface $-1 0 -27.609051558369661 0 0 1 0 0 0 1 forward_v I I I I #
coedge $-1 $344 $345 $346 $347 forward $137 $-1 #
coedge $-1 $348 $139 $349 $350 forward $86 $-1 #
coedge $-1 $139 $348 $351 $352 forward $86 $-1 #
coedge $-1 $353 $354 $139 $221 reversed $355 $-1 #
edge $-1 $356 -27.609051558369661 $357 27.609051558369661 $220 $358 forward 7 unknown #
face $-1 $359 $360 $52 $-1 $361 reversed single #
loop $-1 $-1 $362 $140 #
plane-surface $-1 0 0 -7.9413834326497419 0 0 1 1 0 0 forward_v I I I I #
coedge $-1 $363 $364 $365 $366 reversed $141 $-1 #
coedge $-1 $367 $143 $364 $368 forward $89 $-1 #
coedge $-1 $143 $367 $369 $370 reversed $89 $-1 #
coedge $-1 $371 $365 $143 $229 forward $360 $-1 #
edge $-1 $372 7.1628686103507651 $373 16.018411502129517 $228 $374 forward 7 unknown #
face $-1 $375 $376 $53 $-1 $377 forward single #
loop $-1 $-1 $378 $144 #
plane-surface $-1 -159.07126473803777 10.714119336807634 81.747781121620719 0 -1 0 0.77714596973225614 0 -0.62932038083071107 forward_v I I I I #
coedge $-1 $379 $380 $381 $382 reversed $145 $-1 #
coedge $-1 $235 $147 $383 $384 reversed $92 $-1 #
coedge $-1 $147 $234 $379 $385 reversed $92 $-1 #
coedge $-1 $381 $386 $147 $237 forward $376 $-1 #
edge $-1 $387 17.259561932299007 $388 20.965783856535566 $236 $389 forward 7 unknown #
loop $-1 $-1 $243 $148 #
plane-surface $-1 -62.276070436719863 7.5292346558879295 3.3645803938672429 -0.77714596973225614 0 0.62932038083071107 0.62932038083071107 0 0.77714596973225614 forward_v I I I I #
loop $-1 $-1 $390 $94 #
coedge $-1 $241 $241 $242 $391 reversed $149 $-1 #
coedge $-1 $242 $242 $241 $391 forward $151 $-1 #
coedge $-1 $243 $243 $152 $244 forward $238 $-1 #
edge $-1 $392 0 $392 6.2831853071796004 $243 $393 forward 7 unknown #
loop $-1 $-1 $250 $153 #
plane-surface $-1 -62.276070436719863 7.5292346558879295 3.3645803938672429 -0.77714596973225614 0 0.62932038083071107 0.62932038083071107 0 0.77714596973225614 forward_v I I I I #
loop $-1 $-1 $394 $97 #
coedge $-1 $248 $248 $249 $395 reversed $154 $-1 #
coedge $-1 $249 $249 $248 $395 forward $156 $-1 #
coedge $-1 $250 $250 $157 $251 forward $245 $-1 #
edge $-1 $396 0 $396 6.2831853071796004 $250 $397 forward 7 unknown #
face $-1 $398 $399 $56 $-1 $400 reversed single #
loop $-1 $-1 $401 $158 #
plane-surface $-1 101.89970009292925 -18.753508666590907 171.71127379814493 0 1 0 0.84804810408105047 0 0.52991925155115449 forward_v I I I I #
coedge $-1 $402 $403 $404 $405 reversed $159 $-1 #
coedge $-1 $257 $161 $406 $407 reversed $101 $-1 #
coedge $-1 $161 $256 $402 $408 reversed $101 $-1 #
coedge $-1 $404 $409 $161 $259 forward $410 $-1 #
edge $-1 $411 -11.326220390255251 $412 -6.4154386580130307 $258 $413 forward 7 unknown #
loop $-1 $-1 $265 $162 #
plane-surface $-1 -3.7265068340272478 -15.653726549350953 105.70869652739778 0.84804810408105047 0 0.52991925155115449 0.52991925155115449 0 -0.84804810408105047 forward_v I I I I #
loop $-1 $-1 $414 $103 #
coedge $-1 $263 $263 $264 $415 reversed $163 $-1 #
coedge $-1 $264 $264 $263 $415 forward $165 $-1 #
coedge $-1 $265 $265 $166 $266 forward $260 $-1 #
edge $-1 $416 0 $416 6.2831853071796004 $265 $417 forward 7 unknown #
loop $-1 $-1 $272 $167 #
plane-surface $-1 -3.7265068340272478 -15.653726549350953 105.70869652739778 0.84804810408105047 0 0.52991925155115449 0.52991925155115449 0 -0.84804810408105047 forward_v I I I I #
loop $-1 $-1 $418 $106 #
coedge $-1 $270 $270 $271 $419 reversed $168 $-1 #
coedge $-1 $271 $271 $270 $419 forward $170 $-1 #
coedge $-1 $272 $272 $171 $273 forward $267 $-1 #
edge $-1 $420 0 $420 6.2831853071796004 $272 $421 forward 7 unknown #
face $-1 $422 $423 $59 $-1 $424 reversed single #
loop $-1 $-1 $425 $172 #
plane-surface $-1 101.89970009292925 -7.1628686103507677 171.71127379814493 0 1 0 0.84804810408105047 0 0.52991925155115449 forward_v I I I I #
coedge $-1 $426 $427 $428 $429 reversed $173 $-1 #
coedge $-1 $279 $175 $430 $431 reversed $110 $-1 #
coedge $-1 $175 $278 $426 $432 reversed $110 $-1 #
coedge $-1 $428 $433 $175 $281 forward $434 $-1 #
edge $-1 $435 -11.326220390255251 $436 -6.4154386580130307 $280 $437 forward 7 unknown #
loop $-1 $-1 $287 $176 #
plane-surface $-1 -3.7265068340272478 -4.0630864931108128 105.70869652739778 0.84804810408105047 0 0.52991925155115449 0.52991925155115449 0 -0.84804810408105047 forward_v I I I I #
loop $-1 $-1 $438 $112 #
coedge $-1 $285 $285 $286 $439 reversed $177 $-1 #
coedge $-1 $286 $286 $285 $439 forward $179 $-1 #
coedge $-1 $287 $287 $180 $288 forward $282 $-1 #
edge $-1 $440 0 $440 6.2831853071796004 $287 $441 forward 7 unknown #
loop $-1 $-1 $294 $181 #
plane-surface $-1 -3.7265068340272478 -4.0630864931108128 105.70869652739778 0.84804810408105047 0 0.52991925155115449 0.52991925155115449 0 -0.84804810408105047 forward_v I I I I #
loop $-1 $-1 $442 $115 #
coedge $-1 $292 $292 $293 $443 reversed $182 $-1 #
coedge $-1 $293 $293 $292 $443 forward $184 $-1 #
coedge $-1 $294 $294 $185 $295 forward $289 $-1 #
edge $-1 $444 0 $444 6.2831853071796004 $294 $445 forward 7 unknown #
face $-1 $446 $447 $62 $-1 $448 reversed single #
loop $-1 $-1 $449 $186 #
plane-surface $-1 101.89970009292925 4.4277714458893724 171.71127379814493 0 1 0 0.84804810408105047 0 0.52991925155115449 forward_v I I I I #
coedge $-1 $450 $451 $452 $453 reversed $187 $-1 #
coedge $-1 $301 $189 $454 $455 reversed $119 $-1 #
coedge $-1 $189 $300 $450 $456 reversed $119 $-1 #
coedge $-1 $452 $457 $189 $303 forward $458 $-1 #
edge $-1 $459 -11.326220390255251 $460 -6.4154386580130307 $302 $461 forward 7 unknown #
loop $-1 $-1 $309 $190 #
plane-surface $-1 -3.7265068340272478 7.5275535631293273 105.70869652739778 0.84804810408105047 0 0.52991925155115449 0.52991925155115449 0 -0.84804810408105047 forward_v I I I I #
loop $-1 $-1 $462 $121 #
coedge $-1 $307 $307 $308 $463 reversed $191 $-1 #
coedge $-1 $308 $308 $307 $463 forward $193 $-1 #
coedge $-1 $309 $309 $194 $310 forward $304 $-1 #
edge $-1 $464 0 $464 6.2831853071796004 $309 $465 forward 7 unknown #
loop $-1 $-1 $316 $195 #
plane-surface $-1 -3.7265068340272478 7.5275535631293273 105.70869652739778 0.84804810408105047 0 0.52991925155115449 0.52991925155115449 0 -0.84804810408105047 forward_v I I I I #
loop $-1 $-1 $466 $124 #
coedge $-1 $314 $314 $315 $467 reversed $196 $-1 #
coedge $-1 $315 $315 $314 $467 forward $198 $-1 #
coedge $-1 $316 $316 $199 $317 forward $311 $-1 #
edge $-1 $468 0 $468 6.2831853071796004 $316 $469 forward 7 unknown #
face $-1 $470 $471 $65 $-1 $472 reversed single #
loop $-1 $-1 $473 $200 #
plane-surface $-1 101.89970009292925 16.018411502129513 171.71127379814493 0 1 0 0.84804810408105047 0 0.52991925155115449 forward_v I I I I #
coedge $-1 $474 $475 $476 $477 reversed $201 $-1 #
coedge $-1 $323 $203 $478 $479 reversed $128 $-1 #
coedge $-1 $203 $322 $474 $480 reversed $128 $-1 #
coedge $-1 $476 $481 $203 $325 forward $482 $-1 #
edge $-1 $483 -11.326220390255251 $484 -6.4154386580130307 $324 $485 forward 7 unknown #
loop $-1 $-1 $331 $204 #
plane-surface $-1 -3.7265068340272478 19.118193619369467 105.70869652739778 0.84804810408105047 0 0.52991925155115449 0.52991925155115449 0 -0.84804810408105047 forward_v I I I I #
loop $-1 $-1 $486 $130 #
coedge $-1 $329 $329 $330 $487 reversed $205 $-1 #
coedge $-1 $330 $330 $329 $487 forward $207 $-1 #
coedge $-1 $331 $331 $208 $332 forward $326 $-1 #
edge $-1 $488 0 $488 6.2831853071796004 $331 $489 forward 7 unknown #
loop $-1 $-1 $338 $209 #
plane-surface $-1 -3.7265068340272478 19.118193619369467 105.70869652739778 0.84804810408105047 0 0.52991925155115449 0.52991925155115449 0 -0.84804810408105047 forward_v I I I I #
loop $-1 $-1 $490 $133 #
coedge $-1 $336 $336 $337 $491 reversed $210 $-1 #
coedge $-1 $337 $337 $336 $491 forward $212 $-1 #
coedge $-1 $338 $338 $213 $339 forward $333 $-1 #
edge $-1 $492 0 $492 6.2831853071796004 $338 $493 forward 7 unknown #
face $-1 $494 $495 $51 $-1 $496 reversed single #
loop $-1 $-1 $497 $214 #
plane-surface $-1 -62.276070436719877 0 0 1 0 0 0 0 -1 forward_v I I I I #
coedge $-1 $498 $351 $499 $500 forward $215 $-1 #
coedge $-1 $501 $217 $498 $502 forward $137 $-1 #
coedge $-1 $217 $501 $503 $504 forward $137 $-1 #
coedge $-1 $354 $353 $217 $347 reversed $355 $-1 #
edge $-1 $505 -27.609051558369661 $506 27.609051558369661 $346 $507 forward 7 unknown #
coedge $-1 $219 $218 $508 $509 forward $86 $-1 #
coedge $-1 $510 $511 $218 $350 reversed $495 $-1 #
edge $-1 $357 -62.276070436719877 $512 62.276070436719877 $349 $513 forward 7 unknown #
coedge $-1 $343 $514 $219 $352 reversed $215 $-1 #
edge $-1 $515 -62.276070436719877 $356 62.276070436719877 $351 $516 forward 7 unknown #
coedge $-1 $346 $220 $514 $517 forward $355 $-1 #
coedge $-1 $220 $346 $510 $518 reversed $355 $-1 #
loop $-1 $-1 $353 $494 #
vertex $-1 $221 $519 #
vertex $-1 $221 $520 #
straight-curve $-1 62.276070436719877 0 7.9413834326497419 0 1 0 I I #
face $-1 $521 $522 $52 $-1 $523 reversed single #
loop $-1 $-1 $365 $222 #
plane-surface $-1 62.276070436719877 0 0 -1 0 0 0 0 1 forward_v I I I I #
coedge $-1 $524 $525 $363 $526 forward $223 $-1 #
coedge $-1 $527 $225 $362 $526 reversed $141 $-1 #
coedge $-1 $225 $527 $226 $368 reversed $141 $-1 #
coedge $-1 $228 $528 $225 $366 forward $360 $-1 #
edge $-1 $529 -5.0015786299863993 $372 -0.87803097534028529 $365 $530 forward 7 unknown #
coedge $-1 $227 $226 $531 $532 reversed $89 $-1 #
edge $-1 $372 -62.276070436719877 $533 62.276070436719877 $364 $534 forward 7 unknown #
coedge $-1 $535 $536 $227 $370 forward $522 $-1 #
edge $-1 $373 -62.276070436719877 $537 62.276070436719877 $369 $538 forward 7 unknown #
coedge $-1 $528 $228 $536 $539 forward $360 $-1 #
vertex $-1 $229 $540 #
vertex $-1 $539 $541 #
straight-curve $-1 62.276070436719877 -11.590640056240142 -3.8178357780036278 0 -1 0 I I #
face $-1 $-1 $542 $53 $-1 $543 reversed single #
loop $-1 $-1 $236 $230 #
plane-surface $-1 0 0 7.9413834326497419 0 0 1 1 0 0 forward_v I I I I #
coedge $-1 $544 $545 $546 $547 reversed $231 $-1 #
coedge $-1 $548 $233 $235 $385 forward $145 $-1 #
coedge $-1 $233 $548 $544 $549 forward $145 $-1 #
coedge $-1 $546 $236 $233 $382 forward $376 $-1 #
edge $-1 $388 0.57973264702425986 $550 6.9495020088636696 $381 $551 forward 7 unknown #
coedge $-1 $552 $553 $234 $384 forward $542 $-1 #
edge $-1 $554 -37.509310166943138 $387 -32.932507128160616 $383 $555 forward 7 unknown #
edge $-1 $388 -5.8892450286518345 $554 2.2748066086763162e-014 $235 $556 forward 7 unknown #
coedge $-1 $236 $546 $552 $557 forward $376 $-1 #
vertex $-1 $384 $558 #
vertex $-1 $237 $559 #
straight-curve $-1 -79.535632369018884 4.3443499749682246 7.9413834326497437 1 0 0 I I #
coedge $-1 $390 $390 $-1 $560 reversed $240 $-1 #
edge $-1 $561 0 $561 6.2831853071796004 $241 $562 forward 7 unknown #
vertex $-1 $244 $563 #
ellipse-curve $-1 -60.422959474601598 6.1642840783509065 5.6529819132584853 -0.77714596973225614 0 0.62932038083071107 0.31466019041535553 0 0.38857298486612807 1 I I #
coedge $-1 $394 $394 $-1 $564 reversed $247 $-1 #
edge $-1 $565 0 $565 6.2831853071796004 $248 $566 forward 7 unknown #
vertex $-1 $251 $567 #
ellipse-curve $-1 -60.422959474601598 8.8941852334249383 5.6529819132584853 -0.77714596973225614 0 0.62932038083071107 0.31466019041535553 0 0.38857298486612807 1 I I #
face $-1 $-1 $410 $56 $-1 $568 forward single #
loop $-1 $-1 $569 $252 #
plane-surface $-1 62.276070436719877 0 0 -1 0 0 0 0 1 forward_v I I I I #
coedge $-1 $570 $571 $572 $573 reversed $253 $-1 #
coedge $-1 $574 $255 $257 $408 forward $159 $-1 #
coedge $-1 $255 $574 $570 $575 forward $159 $-1 #
coedge $-1 $572 $258 $255 $405 forward $410 $-1 #
edge $-1 $412 4.7270811574355225 $576 10.92664539191543 $404 $577 forward 7 unknown #
coedge $-1 $578 $579 $256 $407 forward $399 $-1 #
edge $-1 $580 -85.77314729863113 $411 -77.914253466422721 $406 $581 forward 7 unknown #
edge $-1 $412 115.2851030787802 $580 124.5521408734397 $257 $582 forward 7 unknown #
coedge $-1 $258 $572 $578 $583 forward $410 $-1 #
loop $-1 $-1 $572 $398 #
vertex $-1 $407 $584 #
vertex $-1 $259 $585 #
straight-curve $-1 50.949850046464626 -12.553944432110999 7.9413834326497437 -1 0 0 I I #
coedge $-1 $414 $414 $-1 $586 reversed $262 $-1 #
edge $-1 $587 0 $587 6.2831853071796004 $263 $588 forward 7 unknown #
vertex $-1 $266 $589 #
ellipse-curve $-1 59.820679570598777 -16.982204599596649 4.0119365165455125 0.84804810408105047 0 0.52991925155115449 0.26495962577557725 0 -0.42402405204052523 1 I I #
coedge $-1 $418 $418 $-1 $590 reversed $269 $-1 #
edge $-1 $591 0 $591 6.2831853071796004 $270 $592 forward 7 unknown #
vertex $-1 $273 $593 #
ellipse-curve $-1 59.820679570598777 -14.325248499105259 4.0119365165455125 0.84804810408105047 0 0.52991925155115449 0.26495962577557725 0 -0.42402405204052523 1 I I #
face $-1 $-1 $434 $59 $-1 $594 forward single #
loop $-1 $-1 $595 $274 #
plane-surface $-1 62.276070436719877 0 0 -1 0 0 0 0 1 forward_v I I I I #
coedge $-1 $596 $597 $598 $599 reversed $275 $-1 #
coedge $-1 $600 $277 $279 $432 forward $173 $-1 #
coedge $-1 $277 $600 $596 $601 forward $173 $-1 #
coedge $-1 $598 $280 $277 $429 forward $434 $-1 #
edge $-1 $436 -1.0682388706845485 $602 5.1313253637953613 $428 $603 forward 7 unknown #
coedge $-1 $604 $605 $278 $431 forward $423 $-1 #
edge $-1 $606 -85.77314729863113 $435 -77.914253466422721 $430 $607 forward 7 unknown #
edge $-1 $436 115.2851030787802 $606 124.5521408734397 $279 $608 forward 7 unknown #
coedge $-1 $280 $598 $604 $609 forward $434 $-1 #
loop $-1 $-1 $598 $422 #
vertex $-1 $431 $610 #
vertex $-1 $281 $611 #
straight-curve $-1 50.949850046464626 -0.96330437587085793 7.9413834326497437 -1 0 0 I I #
coedge $-1 $438 $438 $-1 $612 reversed $284 $-1 #
edge $-1 $613 0 $613 6.2831853071796004 $285 $614 forward 7 unknown #
vertex $-1 $288 $615 #
ellipse-curve $-1 59.820679570598777 -5.3915645433565054 4.0119365165455125 0.84804810408105047 0 0.52991925155115449 0.26495962577557725 0 -0.42402405204052523 1 I I #
coedge $-1 $442 $442 $-1 $616 reversed $291 $-1 #
edge $-1 $617 0 $617 6.2831853071796004 $292 $618 forward 7 unknown #
vertex $-1 $295 $619 #
ellipse-curve $-1 59.820679570598777 -2.7346084428651167 4.0119365165455125 0.84804810408105047 0 0.52991925155115449 0.26495962577557725 0 -0.42402405204052523 1 I I #
face $-1 $-1 $458 $62 $-1 $620 forward single #
loop $-1 $-1 $621 $296 #
plane-surface $-1 62.276070436719877 0 0 -1 0 0 0 0 1 forward_v I I I I #
coedge $-1 $622 $623 $624 $625 reversed $297 $-1 #
coedge $-1 $626 $299 $301 $456 forward $187 $-1 #
coedge $-1 $299 $626 $622 $627 forward $187 $-1 #
coedge $-1 $624 $302 $299 $453 forward $458 $-1 #
edge $-1 $460 -6.8635588988046177 $628 -0.66399466432470877 $452 $629 forward 7 unknown #
coedge $-1 $630 $631 $300 $455 forward $447 $-1 #
edge $-1 $632 -85.77314729863113 $459 -77.914253466422721 $454 $633 forward 7 unknown #
edge $-1 $460 115.2851030787802 $632 124.5521408734397 $301 $634 forward 7 unknown #
coedge $-1 $302 $624 $630 $635 forward $458 $-1 #
loop $-1 $-1 $624 $446 #
vertex $-1 $455 $636 #
vertex $-1 $303 $637 #
straight-curve $-1 50.949850046464626 10.627335680369281 7.9413834326497437 -1 0 0 I I #
coedge $-1 $462 $462 $-1 $638 reversed $306 $-1 #
edge $-1 $639 0 $639 6.2831853071796004 $307 $640 forward 7 unknown #
vertex $-1 $310 $641 #
ellipse-curve $-1 59.820679570598777 6.1990755128836348 4.0119365165455125 0.84804810408105047 0 0.52991925155115449 0.26495962577557725 0 -0.42402405204052523 1 I I #
coedge $-1 $466 $466 $-1 $642 reversed $313 $-1 #
edge $-1 $643 0 $643 6.2831853071796004 $314 $644 forward 7 unknown #
vertex $-1 $317 $645 #
ellipse-curve $-1 59.820679570598777 8.856031613375027 4.0119365165455125 0.84804810408105047 0 0.52991925155115449 0.26495962577557725 0 -0.42402405204052523 1 I I #
face $-1 $-1 $482 $65 $-1 $646 forward single #
loop $-1 $-1 $647 $318 #
plane-surface $-1 62.276070436719877 0 0 -1 0 0 0 0 1 forward_v I I I I #
coedge $-1 $648 $649 $650 $651 reversed $319 $-1 #
coedge $-1 $652 $321 $323 $480 forward $201 $-1 #
coedge $-1 $321 $652 $648 $653 forward $201 $-1 #
coedge $-1 $650 $324 $321 $477 forward $482 $-1 #
edge $-1 $484 -12.658878926924688 $654 -6.4593146924447797 $476 $655 forward 7 unknown #
coedge $-1 $656 $657 $322 $479 forward $471 $-1 #
edge $-1 $658 -85.77314729863113 $483 -77.914253466422721 $478 $659 forward 7 unknown #
edge $-1 $484 115.2851030787802 $658 124.5521408734397 $323 $660 forward 7 unknown #
coedge $-1 $324 $650 $656 $661 forward $482 $-1 #
loop $-1 $-1 $650 $470 #
vertex $-1 $479 $662 #
vertex $-1 $325 $663 #
straight-curve $-1 50.949850046464626 22.217975736609421 7.9413834326497437 -1 0 0 I I #
coedge $-1 $486 $486 $-1 $664 reversed $328 $-1 #
edge $-1 $665 0 $665 6.2831853071796004 $329 $666 forward 7 unknown #
vertex $-1 $332 $667 #
ellipse-curve $-1 59.820679570598777 17.789715569123775 4.0119365165455125 0.84804810408105047 0 0.52991925155115449 0.26495962577557725 0 -0.42402405204052523 1 I I #
coedge $-1 $490 $490 $-1 $668 reversed $335 $-1 #
edge $-1 $669 0 $669 6.2831853071796004 $336 $670 forward 7 unknown #
vertex $-1 $339 $671 #
ellipse-curve $-1 59.820679570598777 20.446671669615167 4.0119365165455125 0.84804810408105047 0 0.52991925155115449 0.26495962577557725 0 -0.42402405204052523 1 I I #
face $-1 $-1 $355 $51 $-1 $672 reversed single #
loop $-1 $-1 $510 $340 #
plane-surface $-1 0 27.609051558369661 0 0 -1 0 0 0 -1 forward_v I I I I #
coedge $-1 $673 $508 $511 $674 forward $341 $-1 #
coedge $-1 $514 $343 $344 $502 reversed $215 $-1 #
coedge $-1 $508 $673 $343 $500 reversed $341 $-1 #
edge $-1 $515 -7.9413834326497419 $675 7.9413834326497419 $499 $676 forward 7 unknown #
coedge $-1 $345 $344 $673 $677 forward $137 $-1 #
edge $-1 $506 -62.276070436719877 $675 62.276070436719877 $498 $678 forward 7 unknown #
coedge $-1 $511 $510 $345 $504 reversed $495 $-1 #
edge $-1 $679 -62.276070436719877 $505 62.276070436719877 $503 $680 forward 7 unknown #
vertex $-1 $347 $681 #
vertex $-1 $517 $682 #
straight-curve $-1 62.276070436719877 0 -7.9413834326497419 0 -1 0 I I #
coedge $-1 $497 $499 $348 $509 reversed $341 $-1 #
edge $-1 $512 -27.609051558369661 $515 27.609051558369661 $508 $683 forward 7 unknown #
coedge $-1 $503 $349 $354 $518 forward $495 $-1 #
coedge $-1 $349 $503 $497 $674 reversed $495 $-1 #
vertex $-1 $350 $684 #
straight-curve $-1 0 27.609051558369661 7.9413834326497419 -1 0 0 I I #
coedge $-1 $351 $498 $353 $517 reversed $215 $-1 #
vertex $-1 $509 $685 #
straight-curve $-1 0 -27.609051558369661 7.9413834326497419 1 0 0 I I #
edge $-1 $356 -7.9413834326497419 $506 7.9413834326497419 $353 $686 forward 7 unknown #
edge $-1 $357 -7.9413834326497419 $505 7.9413834326497419 $354 $687 forward 7 unknown #
point $-1 62.276070436719877 -27.609051558369661 7.9413834326497419 #
point $-1 62.276070436719877 27.609051558369661 7.9413834326497419 #
face $-1 $-1 $688 $52 $-1 $689 reversed single #
loop $-1 $-1 $369 $359 #
plane-surface $-1 0 -27.609051558369661 0 0 1 0 0 0 1 forward_v I I I I #
coedge $-1 $690 $362 $528 $691 forward $223 $-1 #
coedge $-1 $362 $690 $692 $693 forward $223 $-1 #
edge $-1 $694 -62.276070436719877 $529 62.276070436719877 $362 $695 forward 7 unknown #
coedge $-1 $364 $363 $696 $697 reversed $141 $-1 #
coedge $-1 $365 $371 $524 $691 reversed $360 $-1 #
vertex $-1 $691 $698 #
straight-curve $-1 62.276070436719877 -18.753508666590907 -2.9398048026633425 0 0 1 I I #
coedge $-1 $696 $699 $367 $532 forward $688 $-1 #
edge $-1 $537 -16.018411502129517 $533 -7.1628686103507651 $531 $700 forward 7 unknown #
vertex $-1 $532 $701 #
straight-curve $-1 0 -18.753508666590907 -3.8178357780036278 -1 0 0 I I #
coedge $-1 $702 $369 $699 $703 forward $522 $-1 #
coedge $-1 $369 $702 $371 $539 reversed $522 $-1 #
vertex $-1 $703 $704 #
straight-curve $-1 0 -27.609051558369661 -3.8178357780036278 -1 0 0 I I #
edge $-1 $373 3.8178357780036278 $705 7.9413834326497419 $371 $706 forward 7 unknown #
point $-1 62.276070436719877 -18.753508666590907 -3.8178357780036278 #
point $-1 62.276070436719877 -27.609051558369661 -3.8178357780036278 #
loop $-1 $-1 $383 $375 #
plane-surface $-1 -62.276070436719877 0 0 1 0 0 0 0 -1 forward_v I I I I #
coedge $-1 $545 $378 $380 $549 reversed $231 $-1 #
coedge $-1 $378 $544 $707 $708 reversed $231 $-1 #
coedge $-1 $386 $381 $378 $547 forward $376 $-1 #
edge $-1 $550 -20.965783856535566 $709 -17.259561932299007 $546 $710 forward 7 unknown #
coedge $-1 $380 $379 $553 $711 reversed $145 $-1 #
edge $-1 $712 -2.2748066086763162e-014 $550 5.8892450286518345 $544 $713 forward 7 unknown #
vertex $-1 $382 $714 #
straight-curve $-1 -58.569848512483318 3.7646173279439648 7.9413834326497437 0 1 0 I I #
coedge $-1 $707 $383 $386 $557 reversed $542 $-1 #
coedge $-1 $383 $707 $548 $711 forward $542 $-1 #
vertex $-1 $384 $715 #
straight-curve $-1 -62.276070436719877 4.3443499749682246 40.873890560810359 0 0 1 I I #
straight-curve $-1 -62.276070436719863 4.3443499749682246 3.3645803938672429 -0.62932038083071107 0 -0.77714596973225614 I I #
edge $-1 $709 -10.714119336807634 $387 -4.3443499749682246 $552 $716 forward 7 unknown #
point $-1 -62.276070436719877 4.3443499749682246 7.9413834326497419 #
point $-1 -58.569848512483318 4.3443499749682246 7.9413834326497419 #
edge $-1 $717 1 $717 0 $390 $-1 forward 7 unknown #
vertex $-1 $391 $718 #
ellipse-curve $-1 -59.289531673840642 6.1642840783509065 4.7351502021003569 -0.77714596973225614 0 0.62932038083071107 0.31466019041535553 0 0.38857298486612807 1 I I #
point $-1 -60.108299284186259 6.1642840783509065 6.0415548981246268 #
edge $-1 $719 1 $719 0 $394 $-1 forward 7 unknown #
vertex $-1 $395 $720 #
ellipse-curve $-1 -59.289531673840642 8.8941852334249383 4.7351502021003569 -0.77714596973225614 0 0.62932038083071107 0.31466019041535553 0 0.38857298486612807 1 I I #
point $-1 -60.108299284186259 8.8941852334249383 6.0415548981246268 #
plane-surface $-1 0 0 7.9413834326497419 0 0 1 1 0 0 forward_v I I I I #
coedge $-1 $579 $578 $571 $721 forward $399 $-1 #
coedge $-1 $571 $401 $403 $575 reversed $253 $-1 #
coedge $-1 $401 $570 $569 $721 reversed $253 $-1 #
coedge $-1 $409 $404 $401 $573 forward $410 $-1 #
edge $-1 $576 6.4154386580130307 $722 11.326220390255251 $572 $723 forward 7 unknown #
coedge $-1 $403 $402 $579 $724 reversed $159 $-1 #
edge $-1 $725 -124.5521408734397 $576 -115.2851030787802 $570 $726 forward 7 unknown #
vertex $-1 $405 $727 #
straight-curve $-1 57.365288704477656 -7.8268632746754765 7.9413834326497508 0 -1 0 I I #
coedge $-1 $569 $406 $409 $583 reversed $399 $-1 #
coedge $-1 $406 $569 $574 $724 forward $399 $-1 #
vertex $-1 $407 $728 #
straight-curve $-1 62.276070436719877 -12.553944432110999 85.855636899072465 0 0 1 I I #
straight-curve $-1 -3.7265068340272478 -12.553944432110999 105.70869652739778 0.52991925155115449 0 -0.84804810408105047 I I #
edge $-1 $722 -18.753508666590907 $411 -12.553944432110999 $578 $729 forward 7 unknown #
point $-1 62.276070436719877 -12.553944432110999 7.9413834326497419 #
point $-1 57.365288704477656 -12.553944432110999 7.9413834326497437 #
edge $-1 $730 1 $730 0 $414 $-1 forward 7 unknown #
vertex $-1 $415 $731 #
ellipse-curve $-1 58.277036359570644 -16.982204599596649 3.0473612157889067 0.84804810408105047 0 0.52991925155115449 0.26495962577557725 0 -0.42402405204052523 1 I I #
point $-1 60.085639196374331 -16.982204599596649 3.5879124645049743 #
edge $-1 $732 1 $732 0 $418 $-1 forward 7 unknown #
vertex $-1 $419 $733 #
ellipse-curve $-1 58.277036359570644 -14.325248499105259 3.0473612157889067 0.84804810408105047 0 0.52991925155115449 0.26495962577557725 0 -0.42402405204052523 1 I I #
point $-1 60.085639196374331 -14.325248499105259 3.5879124645049743 #
plane-surface $-1 0 0 7.9413834326497419 0 0 1 1 0 0 forward_v I I I I #
coedge $-1 $605 $604 $597 $734 forward $423 $-1 #
coedge $-1 $597 $425 $427 $601 reversed $275 $-1 #
coedge $-1 $425 $596 $595 $734 reversed $275 $-1 #
coedge $-1 $433 $428 $425 $599 forward $434 $-1 #
edge $-1 $602 6.4154386580130307 $735 11.326220390255251 $598 $736 forward 7 unknown #
coedge $-1 $427 $426 $605 $737 reversed $173 $-1 #
edge $-1 $738 -124.5521408734397 $602 -115.2851030787802 $596 $739 forward 7 unknown #
vertex $-1 $429 $740 #
straight-curve $-1 57.365288704477656 -2.0315432465554064 7.9413834326497508 0 -1 0 I I #
coedge $-1 $595 $430 $433 $609 reversed $423 $-1 #
coedge $-1 $430 $595 $600 $737 forward $423 $-1 #
vertex $-1 $431 $741 #
straight-curve $-1 62.276070436719877 -0.96330437587085793 85.855636899072465 0 0 1 I I #
straight-curve $-1 -3.7265068340272478 -0.96330437587085793 105.70869652739778 0.52991925155115449 0 -0.84804810408105047 I I #
edge $-1 $735 -7.1628686103507677 $435 -0.96330437587085793 $604 $742 forward 7 unknown #
point $-1 62.276070436719877 -0.96330437587085793 7.9413834326497419 #
point $-1 57.365288704477656 -0.96330437587085793 7.9413834326497437 #
edge $-1 $743 1 $743 0 $438 $-1 forward 7 unknown #
vertex $-1 $439 $744 #
ellipse-curve $-1 58.277036359570644 -5.3915645433565054 3.0473612157889067 0.84804810408105047 0 0.52991925155115449 0.26495962577557725 0 -0.42402405204052523 1 I I #
point $-1 60.085639196374331 -5.3915645433565054 3.5879124645049743 #
edge $-1 $745 1 $745 0 $442 $-1 forward 7 unknown #
vertex $-1 $443 $746 #
ellipse-curve $-1 58.277036359570644 -2.7346084428651167 3.0473612157889067 0.84804810408105047 0 0.52991925155115449 0.26495962577557725 0 -0.42402405204052523 1 I I #
point $-1 60.085639196374331 -2.7346084428651167 3.5879124645049743 #
plane-surface $-1 0 0 7.9413834326497419 0 0 1 1 0 0 forward_v I I I I #
coedge $-1 $631 $630 $623 $747 forward $447 $-1 #
coedge $-1 $623 $449 $451 $627 reversed $297 $-1 #
coedge $-1 $449 $622 $621 $747 reversed $297 $-1 #
coedge $-1 $457 $452 $449 $625 forward $458 $-1 #
edge $-1 $628 6.4154386580130307 $748 11.326220390255251 $624 $749 forward 7 unknown #
coedge $-1 $451 $450 $631 $750 reversed $187 $-1 #
edge $-1 $751 -124.5521408734397 $628 -115.2851030787802 $622 $752 forward 7 unknown #
vertex $-1 $453 $753 #
straight-curve $-1 57.365288704477656 3.7637767815646637 7.9413834326497508 0 -1 0 I I #
coedge $-1 $621 $454 $457 $635 reversed $447 $-1 #
coedge $-1 $454 $621 $626 $750 forward $447 $-1 #
vertex $-1 $455 $754 #
straight-curve $-1 62.276070436719877 10.627335680369281 85.855636899072465 0 0 1 I I #
straight-curve $-1 -3.7265068340272478 10.627335680369281 105.70869652739778 0.52991925155115449 0 -0.84804810408105047 I I #
edge $-1 $748 4.4277714458893724 $459 10.627335680369281 $630 $755 forward 7 unknown #
point $-1 62.276070436719877 10.627335680369281 7.9413834326497419 #
point $-1 57.365288704477656 10.627335680369281 7.9413834326497437 #
edge $-1 $756 1 $756 0 $462 $-1 forward 7 unknown #
vertex $-1 $463 $757 #
ellipse-curve $-1 58.277036359570644 6.1990755128836348 3.0473612157889067 0.84804810408105047 0 0.52991925155115449 0.26495962577557725 0 -0.42402405204052523 1 I I #
point $-1 60.085639196374331 6.1990755128836348 3.5879124645049743 #
edge $-1 $758 1 $758 0 $466 $-1 forward 7 unknown #
vertex $-1 $467 $759 #
ellipse-curve $-1 58.277036359570644 8.856031613375027 3.0473612157889067 0.84804810408105047 0 0.52991925155115449 0.26495962577557725 0 -0.42402405204052523 1 I I #
point $-1 60.085639196374331 8.856031613375027 3.5879124645049743 #
plane-surface $-1 0 0 7.9413834326497419 0 0 1 1 0 0 forward_v I I I I #
coedge $-1 $657 $656 $649 $760 forward $471 $-1 #
coedge $-1 $649 $473 $475 $653 reversed $319 $-1 #
coedge $-1 $473 $648 $647 $760 reversed $319 $-1 #
coedge $-1 $481 $476 $473 $651 forward $482 $-1 #
edge $-1 $654 6.4154386580130307 $761 11.326220390255251 $650 $762 forward 7 unknown #
coedge $-1 $475 $474 $657 $763 reversed $201 $-1 #
edge $-1 $764 -124.5521408734397 $654 -115.2851030787802 $648 $765 forward 7 unknown #
vertex $-1 $477 $766 #
straight-curve $-1 57.365288704477656 9.5590968096847337 7.9413834326497508 0 -1 0 I I #
coedge $-1 $647 $478 $481 $661 reversed $471 $-1 #
coedge $-1 $478 $647 $652 $763 forward $471 $-1 #
vertex $-1 $479 $767 #
straight-curve $-1 62.276070436719877 22.217975736609421 85.855636899072465 0 0 1 I I #
straight-curve $-1 -3.7265068340272478 22.217975736609421 105.70869652739778 0.52991925155115449 0 -0.84804810408105047 I I #
edge $-1 $761 16.018411502129513 $483 22.217975736609421 $656 $768 forward 7 unknown #
point $-1 62.276070436719877 22.217975736609421 7.9413834326497419 #
point $-1 57.365288704477656 22.217975736609421 7.9413834326497437 #
edge $-1 $769 1 $769 0 $486 $-1 forward 7 unknown #
vertex $-1 $487 $770 #
ellipse-curve $-1 58.277036359570644 17.789715569123775 3.0473612157889067 0.84804810408105047 0 0.52991925155115449 0.26495962577557725 0 -0.42402405204052523 1 I I #
point $-1 60.085639196374331 17.789715569123775 3.5879124645049743 #
edge $-1 $771 1 $771 0 $490 $-1 forward 7 unknown #
vertex $-1 $491 $772 #
ellipse-curve $-1 58.277036359570644 20.446671669615167 3.0473612157889067 0.84804810408105047 0 0.52991925155115449 0.26495962577557725 0 -0.42402405204052523 1 I I #
point $-1 60.085639196374331 20.446671669615167 3.5879124645049743 #
plane-surface $-1 62.276070436719877 0 0 -1 0 0 0 0 1 forward_v I I I I #
coedge $-1 $499 $497 $501 $677 reversed $341 $-1 #
edge $-1 $512 -7.9413834326497419 $679 7.9413834326497419 $511 $773 forward 7 unknown #
vertex $-1 $677 $774 #
straight-curve $-1 -62.276070436719877 -27.609051558369661 0 0 0 -1 I I #
edge $-1 $675 -27.609051558369661 $679 27.609051558369661 $673 $775 forward 7 unknown #
straight-curve $-1 0 -27.609051558369661 -7.9413834326497419 -1 0 0 I I #
vertex $-1 $504 $776 #
straight-curve $-1 0 27.609051558369661 -7.9413834326497419 1 0 0 I I #
point $-1 62.276070436719877 27.609051558369661 -7.9413834326497419 #
point $-1 62.276070436719877 -27.609051558369661 -7.9413834326497419 #
straight-curve $-1 -62.276070436719877 0 7.9413834326497419 0 -1 0 I I #
point $-1 -62.276070436719877 27.609051558369661 7.9413834326497419 #
point $-1 -62.276070436719877 -27.609051558369661 7.9413834326497419 #
straight-curve $-1 62.276070436719877 -27.609051558369661 0 0 0 -1 I I #
straight-curve $-1 62.276070436719877 27.609051558369661 0 0 0 -1 I I #
loop $-1 $-1 $696 $521 #
plane-surface $-1 -62.276070436719877 0 0 1 0 0 0 0 -1 forward_v I I I I #
coedge $-1 $525 $524 $702 $777 forward $223 $-1 #
edge $-1 $529 18.753508666590907 $705 27.609051558369661 $528 $778 forward 7 unknown #
coedge $-1 $699 $696 $525 $693 reversed $688 $-1 #
edge $-1 $779 -27.609051558369661 $694 -18.753508666590907 $692 $780 forward 7 unknown #
vertex $-1 $697 $781 #
straight-curve $-1 0 -18.753508666590907 -7.9413834326497419 1 0 0 I I #
coedge $-1 $692 $531 $527 $697 forward $688 $-1 #
edge $-1 $533 0.87803097534028529 $694 5.0015786299863993 $696 $782 forward 7 unknown #
point $-1 62.276070436719877 -18.753508666590907 -7.9413834326497419 #
coedge $-1 $531 $692 $535 $703 reversed $688 $-1 #
straight-curve $-1 -62.276070436719877 -11.590640056240142 -3.8178357780036278 0 1 0 I I #
point $-1 -62.276070436719877 -18.753508666590907 -3.8178357780036278 #
coedge $-1 $536 $535 $690 $777 reversed $522 $-1 #
edge $-1 $537 3.8178357780036278 $779 7.9413834326497419 $699 $783 forward 7 unknown #
point $-1 -62.276070436719877 -27.609051558369661 -3.8178357780036278 #
vertex $-1 $539 $784 #
straight-curve $-1 62.276070436719877 -27.609051558369661 0 0 0 -1 I I #
coedge $-1 $553 $552 $545 $708 forward $542 $-1 #
edge $-1 $709 32.932507128160616 $712 37.509310166943138 $707 $785 forward 7 unknown #
vertex $-1 $557 $786 #
straight-curve $-1 -79.535632369018884 10.714119336807634 7.9413834326497437 -1 0 0 I I #
edge $-1 $712 -6.9495020088636696 $554 -0.57973264702425986 $553 $787 forward 7 unknown #
vertex $-1 $711 $788 #
straight-curve $-1 -62.276070436719863 10.714119336807634 3.3645803938672429 0.62932038083071107 0 0.77714596973225614 I I #
point $-1 -58.569848512483318 10.714119336807634 7.9413834326497419 #
point $-1 -62.276070436719877 4.3443499749682246 3.3645803938672252 #
straight-curve $-1 -62.276070436719877 0 7.9413834326497419 0 -1 0 I I #
vertex $-1 $560 $789 #
point $-1 -58.974871483425282 6.1642840783509065 5.123723186966485 #
vertex $-1 $564 $790 #
point $-1 -58.974871483425282 8.8941852334249383 5.123723186966485 #
edge $-1 $722 77.914253466422721 $725 85.77314729863113 $569 $791 forward 7 unknown #
vertex $-1 $583 $792 #
straight-curve $-1 50.949850046464626 -18.753508666590907 7.9413834326497437 1 0 0 I I #
edge $-1 $725 -10.92664539191543 $580 -4.7270811574355225 $579 $793 forward 7 unknown #
vertex $-1 $724 $794 #
straight-curve $-1 -3.7265068340272478 -18.753508666590907 105.70869652739778 -0.52991925155115449 0 0.84804810408105047 I I #
point $-1 57.365288704477656 -18.753508666590907 7.9413834326497437 #
point $-1 62.276070436719877 -12.553944432110999 0.082489600441334687 #
straight-curve $-1 62.276070436719877 0 7.9413834326497419 0 1 0 I I #
vertex $-1 $586 $795 #
point $-1 58.541995985346226 -16.982204599596649 2.6233371637483813 #
vertex $-1 $590 $796 #
point $-1 58.541995985346226 -14.325248499105259 2.6233371637483813 #
edge $-1 $735 77.914253466422721 $738 85.77314729863113 $595 $797 forward 7 unknown #
vertex $-1 $609 $798 #
straight-curve $-1 50.949850046464626 -7.1628686103507677 7.9413834326497437 1 0 0 I I #
edge $-1 $738 -5.1313253637953613 $606 1.0682388706845485 $605 $799 forward 7 unknown #
vertex $-1 $737 $800 #
straight-curve $-1 -3.7265068340272478 -7.1628686103507677 105.70869652739778 -0.52991925155115449 0 0.84804810408105047 I I #
point $-1 57.365288704477656 -7.1628686103507677 7.9413834326497437 #
point $-1 62.276070436719877 -0.96330437587085793 0.082489600441334687 #
straight-curve $-1 62.276070436719877 0 7.9413834326497419 0 1 0 I I #
vertex $-1 $612 $801 #
point $-1 58.541995985346226 -5.3915645433565054 2.6233371637483813 #
vertex $-1 $616 $802 #
point $-1 58.541995985346226 -2.7346084428651167 2.6233371637483813 #
edge $-1 $748 77.914253466422721 $751 85.77314729863113 $621 $803 forward 7 unknown #
vertex $-1 $635 $804 #
straight-curve $-1 50.949850046464626 4.4277714458893724 7.9413834326497437 1 0 0 I I #
edge $-1 $751 0.66399466432470877 $632 6.8635588988046177 $631 $805 forward 7 unknown #
vertex $-1 $750 $806 #
straight-curve $-1 -3.7265068340272478 4.4277714458893724 105.70869652739778 -0.52991925155115449 0 0.84804810408105047 I I #
point $-1 57.365288704477656 4.4277714458893724 7.9413834326497437 #
point $-1 62.276070436719877 10.627335680369281 0.082489600441334687 #
straight-curve $-1 62.276070436719877 0 7.9413834326497419 0 1 0 I I #
vertex $-1 $638 $807 #
point $-1 58.541995985346226 6.1990755128836348 2.6233371637483813 #
vertex $-1 $642 $808 #
point $-1 58.541995985346226 8.856031613375027 2.6233371637483813 #
edge $-1 $761 77.914253466422721 $764 85.77314729863113 $647 $809 forward 7 unknown #
vertex $-1 $661 $810 #
straight-curve $-1 50.949850046464626 16.018411502129513 7.9413834326497437 1 0 0 I I #
edge $-1 $764 6.4593146924447797 $658 12.658878926924688 $657 $811 forward 7 unknown #
vertex $-1 $763 $812 #
straight-curve $-1 -3.7265068340272478 16.018411502129513 105.70869652739778 -0.52991925155115449 0 0.84804810408105047 I I #
point $-1 57.365288704477656 16.018411502129513 7.9413834326497437 #
point $-1 62.276070436719877 22.217975736609421 0.082489600441334687 #
straight-curve $-1 62.276070436719877 0 7.9413834326497419 0 1 0 I I #
vertex $-1 $664 $813 #
point $-1 58.541995985346226 17.789715569123775 2.6233371637483813 #
vertex $-1 $668 $814 #
point $-1 58.541995985346226 20.446671669615167 2.6233371637483813 #
straight-curve $-1 -62.276070436719877 27.609051558369661 0 0 0 -1 I I #
point $-1 -62.276070436719877 -27.609051558369661 -7.9413834326497419 #
straight-curve $-1 -62.276070436719877 0 -7.9413834326497419 0 1 0 I I #
point $-1 -62.276070436719877 27.609051558369661 -7.9413834326497419 #
edge $-1 $705 -62.276070436719877 $779 62.276070436719877 $702 $815 forward 7 unknown #
straight-curve $-1 62.276070436719877 0 -7.9413834326497419 0 -1 0 I I #
vertex $-1 $693 $816 #
straight-curve $-1 -62.276070436719877 0 -7.9413834326497419 0 1 0 I I #
point $-1 -62.276070436719877 -18.753508666590907 -7.9413834326497419 #
straight-curve $-1 -62.276070436719877 -18.753508666590907 -2.9398048026633425 0 0 -1 I I #
straight-curve $-1 -62.276070436719877 -27.609051558369661 0 0 0 -1 I I #
point $-1 62.276070436719877 -27.609051558369661 -7.9413834326497419 #
straight-curve $-1 -62.276070436719877 10.714119336807634 40.873890560810359 0 0 -1 I I #
point $-1 -62.276070436719877 10.714119336807634 7.9413834326497419 #
straight-curve $-1 -62.276070436719877 3.7646173279439648 3.3645803938672243 0 -1 0 I I #
point $-1 -62.276070436719877 10.714119336807634 3.3645803938672252 #
point $-1 -58.900958688974512 6.1642840783509065 4.4204900116850006 #
point $-1 -58.900958688974512 8.8941852334249383 4.4204900116850006 #
straight-curve $-1 62.276070436719877 -18.753508666590907 85.855636899072465 0 0 -1 I I #
point $-1 62.276070436719877 -18.753508666590907 7.9413834326497419 #
straight-curve $-1 62.276070436719877 -7.8268632746754765 0.082489600441327582 0 1 0 I I #
point $-1 62.276070436719877 -18.753508666590907 0.082489600441334687 #
point $-1 57.853012307530122 -16.982204599596649 2.7824015900133294 #
point $-1 57.853012307530122 -14.325248499105259 2.7824015900133294 #
straight-curve $-1 62.276070436719877 -7.1628686103507677 85.855636899072465 0 0 -1 I I #
point $-1 62.276070436719877 -7.1628686103507677 7.9413834326497419 #
straight-curve $-1 62.276070436719877 -2.0315432465554064 0.082489600441327582 0 1 0 I I #
point $-1 62.276070436719877 -7.1628686103507677 0.082489600441334687 #
point $-1 57.853012307530122 -5.3915645433565054 2.7824015900133294 #
point $-1 57.853012307530122 -2.7346084428651167 2.7824015900133294 #
straight-curve $-1 62.276070436719877 4.4277714458893724 85.855636899072465 0 0 -1 I I #
point $-1 62.276070436719877 4.4277714458893724 7.9413834326497419 #
straight-curve $-1 62.276070436719877 3.7637767815646637 0.082489600441327582 0 1 0 I I #
point $-1 62.276070436719877 4.4277714458893724 0.082489600441334687 #
point $-1 57.853012307530122 6.1990755128836348 2.7824015900133294 #
point $-1 57.853012307530122 8.856031613375027 2.7824015900133294 #
straight-curve $-1 62.276070436719877 16.018411502129513 85.855636899072465 0 0 -1 I I #
point $-1 62.276070436719877 16.018411502129513 7.9413834326497419 #
straight-curve $-1 62.276070436719877 9.5590968096847337 0.082489600441327582 0 1 0 I I #
point $-1 62.276070436719877 16.018411502129513 0.082489600441334687 #
point $-1 57.853012307530122 17.789715569123775 2.7824015900133294 #
point $-1 57.853012307530122 20.446671669615167 2.7824015900133294 #
straight-curve $-1 0 -27.609051558369661 -7.9413834326497419 -1 0 0 I I #
point $-1 -62.276070436719877 -27.609051558369661 -7.9413834326497419 #
End-of-ACIS-data 