500 0 16 0           
7 Unknown 11 ACIS 5.0 NT 24 Fri Mar 26 02:30:25 1999 
-1 9.9999999999999995e-007 1e-010 
body $-1 $16 $-1 $17 #
body $-1 $18 $-1 $19 #
body $-1 $20 $-1 $21 #
body $-1 $22 $-1 $23 #
body $-1 $24 $-1 $25 #
body $-1 $26 $-1 $27 #
body $-1 $28 $-1 $29 #
body $-1 $30 $-1 $31 #
body $-1 $32 $-1 $33 #
body $-1 $34 $-1 $35 #
body $-1 $36 $-1 $37 #
body $-1 $38 $-1 $39 #
body $-1 $40 $-1 $41 #
body $-1 $42 $-1 $43 #
body $-1 $44 $-1 $45 #
body $-1 $46 $-1 $47 #
lump $-1 $-1 $48 $0 #
transform $-1 1 0 0 0 1 0 0 0 1 67.168797875911736 37.0452309168951 15.660363463687478 1 rotate no_reflect no_shear #
lump $-1 $-1 $49 $1 #
transform $-1 1 0 0 0 1 0 0 0 1 67.168797875911736 37.0452309168951 15.660363463687478 1 rotate no_reflect no_shear #
lump $-1 $-1 $50 $2 #
transform $-1 1 0 0 0 1 0 0 0 1 67.168797875911736 37.0452309168951 15.660363463687478 1 rotate no_reflect no_shear #
lump $-1 $-1 $51 $3 #
transform $-1 1 0 0 0 1 0 0 0 1 67.168797875911736 37.0452309168951 15.660363463687478 1 rotate no_reflect no_shear #
lump $-1 $-1 $52 $4 #
transform $-1 1 0 0 0 1 0 0 0 1 67.168797875911736 37.0452309168951 15.660363463687478 1 rotate no_reflect no_shear #
lump $-1 $-1 $53 $5 #
transform $-1 1 0 0 0 1 0 0 0 1 67.168797875911736 37.0452309168951 15.660363463687478 1 rotate no_reflect no_shear #
lump $-1 $-1 $54 $6 #
transform $-1 1 0 0 0 1 0 0 0 1 67.168797875911736 37.0452309168951 15.660363463687478 1 rotate no_reflect no_shear #
lump $-1 $-1 $55 $7 #
transform $-1 1 0 0 0 1 0 0 0 1 67.168797875911736 37.0452309168951 15.660363463687478 1 rotate no_reflect no_shear #
lump $-1 $-1 $56 $8 #
transform $-1 1 0 0 0 1 0 0 0 1 67.168797875911736 37.0452309168951 15.660363463687478 1 rotate no_reflect no_shear #
lump $-1 $-1 $57 $9 #
transform $-1 1 0 0 0 1 0 0 0 1 67.168797875911736 37.0452309168951 15.660363463687478 1 rotate no_reflect no_shear #
lump $-1 $-1 $58 $10 #
transform $-1 1 0 0 0 1 0 0 0 1 67.168797875911736 37.0452309168951 15.660363463687478 1 rotate no_reflect no_shear #
lump $-1 $-1 $59 $11 #
transform $-1 1 0 0 0 1 0 0 0 1 67.168797875911736 37.0452309168951 15.660363463687478 1 rotate no_reflect no_shear #
lump $-1 $-1 $60 $12 #
transform $-1 1 0 0 0 1 0 0 0 1 67.168797875911736 37.0452309168951 15.660363463687478 1 rotate no_reflect no_shear #
lump $-1 $-1 $61 $13 #
transform $-1 1 0 0 0 1 0 0 0 1 67.168797875911736 37.0452309168951 15.660363463687478 1 rotate no_reflect no_shear #
lump $-1 $-1 $62 $14 #
transform $-1 1 0 0 0 1 0 0 0 1 67.168797875911736 37.0452309168951 15.660363463687478 1 rotate no_reflect no_shear #
lump $-1 $-1 $63 $15 #
transform $-1 1 0 0 0 1 0 0 0 1 67.168797875911736 37.0452309168951 15.660363463687478 1 rotate no_reflect no_shear #
shell $-1 $-1 $-1 $64 $-1 $16 #
shell $-1 $-1 $-1 $65 $-1 $18 #
shell $-1 $-1 $-1 $66 $-1 $20 #
shell $-1 $-1 $-1 $67 $-1 $22 #
shell $-1 $-1 $-1 $68 $-1 $24 #
shell $-1 $-1 $-1 $69 $-1 $26 #
shell $-1 $-1 $-1 $70 $-1 $28 #
shell $-1 $-1 $-1 $71 $-1 $30 #
shell $-1 $-1 $-1 $72 $-1 $32 #
shell $-1 $-1 $-1 $73 $-1 $34 #
shell $-1 $-1 $-1 $74 $-1 $36 #
shell $-1 $-1 $-1 $75 $-1 $38 #
shell $-1 $-1 $-1 $76 $-1 $40 #
shell $-1 $-1 $-1 $77 $-1 $42 #
shell $-1 $-1 $-1 $78 $-1 $44 #
shell $-1 $-1 $-1 $79 $-1 $46 #
face $-1 $80 $81 $48 $-1 $82 forward single #
face $-1 $83 $84 $49 $-1 $85 reversed single #
face $-1 $86 $87 $50 $-1 $88 reversed single #
face $-1 $89 $90 $51 $-1 $91 forward single #
face $-1 $92 $93 $52 $-1 $94 reversed single #
face $-1 $95 $96 $53 $-1 $97 forward single #
face $-1 $98 $99 $54 $-1 $100 reversed single #
face $-1 $101 $102 $55 $-1 $103 forward single #
face $-1 $104 $105 $56 $-1 $106 reversed single #
face $-1 $107 $108 $57 $-1 $109 forward single #
face $-1 $110 $111 $58 $-1 $112 reversed single #
face $-1 $113 $114 $59 $-1 $115 forward single #
face $-1 $116 $117 $60 $-1 $118 forward single #
face $-1 $119 $120 $61 $-1 $121 reversed single #
face $-1 $122 $123 $62 $-1 $124 forward single #
face $-1 $125 $126 $63 $-1 $127 forward single #
face $-1 $128 $129 $48 $-1 $130 reversed single #
loop $-1 $-1 $131 $64 #
plane-surface $-1 0 0 15.660363463687478 0 0 1 1 0 0 forward_v I I I I #
face $-1 $132 $133 $49 $-1 $134 reversed single #
loop $-1 $-1 $135 $65 #
plane-surface $-1 0 -31.34296505368593 11.163511147948002 0 0 1 1 0 0 forward_v I I I I #
face $-1 $136 $137 $50 $-1 $138 reversed single #
loop $-1 $-1 $139 $66 #
plane-surface $-1 -177.21171515356502 -20.275166139663359 87.305349710479945 0 1 0 -0.81915205242281985 0 0.57357642473473569 forward_v I I I I #
face $-1 $140 $141 $51 $-1 $142 forward single #
loop $-1 $143 $144 $67 #
cone-surface $-1 -63.7580671981612 -16.454599598045888 11.893917515587281 0.81915205242281985 0 -0.57357642473473569 0.57357642473473569 0 0.81915205242281985 1 I I 0 1 1 forward I I I I #
face $-1 $145 $146 $52 $-1 $147 reversed single #
loop $-1 $-1 $148 $68 #
plane-surface $-1 -177.21171515356502 -4.6036836128203937 87.305349710479945 0 1 0 -0.81915205242281985 0 0.57357642473473569 forward_v I I I I #
face $-1 $149 $150 $53 $-1 $151 forward single #
loop $-1 $152 $153 $69 #
cone-surface $-1 -63.7580671981612 -0.7831170712029234 11.893917515587281 0.81915205242281985 0 -0.57357642473473569 0.57357642473473569 0 0.81915205242281985 1 I I 0 1 1 forward I I I I #
face $-1 $154 $155 $54 $-1 $156 reversed single #
loop $-1 $-1 $157 $70 #
plane-surface $-1 -177.21171515356502 11.067798914022571 87.305349710479945 0 1 0 -0.81915205242281985 0 0.57357642473473569 forward_v I I I I #
face $-1 $158 $159 $55 $-1 $160 forward single #
loop $-1 $161 $162 $71 #
cone-surface $-1 -63.7580671981612 14.888365455640042 11.893917515587281 0.81915205242281985 0 -0.57357642473473569 0.57357642473473569 0 0.81915205242281985 1 I I 0 1 1 forward I I I I #
face $-1 $163 $164 $56 $-1 $165 reversed single #
loop $-1 $-1 $166 $72 #
plane-surface $-1 -177.21171515356502 26.739281440865529 87.305349710479945 0 1 0 -0.81915205242281985 0 0.57357642473473569 forward_v I I I I #
face $-1 $167 $168 $57 $-1 $169 forward single #
loop $-1 $170 $171 $73 #
cone-surface $-1 -63.7580671981612 30.559847982482999 11.893917515587281 0.81915205242281985 0 -0.57357642473473569 0.57357642473473569 0 0.81915205242281985 1 I I 0 1 1 forward I I I I #
face $-1 $172 $173 $58 $-1 $174 reversed single #
loop $-1 $-1 $175 $74 #
plane-surface $-1 47.310268056683313 -2.5867822120691457 192.66403569549806 0 -1 0 -0.62932039886446345 0 -0.77714595512881146 forward_v I I I I #
face $-1 $176 $177 $59 $-1 $178 forward single #
loop $-1 $179 $180 $75 #
cone-surface $-1 58.06306508559549 -11.546902760411392 7.549176138380651 -0.62932039886446345 0 -0.77714595512881146 1.1657189326932171 0 -0.94398059829669512 1 I I 0 1 1.5 forward I I I I #
face $-1 $181 $182 $60 $-1 $183 forward single #
loop $-1 $184 $185 $76 #
cone-surface $-1 58.06306508559549 -6.170830431406042 7.549176138380651 -0.62932039886446345 0 -0.77714595512881146 1.1657189326932171 0 -0.94398059829669512 1 I I 0 1 1.5 forward I I I I #
face $-1 $186 $187 $61 $-1 $188 reversed single #
loop $-1 $-1 $189 $77 #
plane-surface $-1 47.310268056683313 28.756182841616788 192.66403569549806 0 -1 0 -0.62932039886446345 0 -0.77714595512881146 forward_v I I I I #
face $-1 $190 $191 $62 $-1 $192 forward single #
loop $-1 $193 $194 $78 #
cone-surface $-1 58.06306508559549 19.796062293274538 7.549176138380651 -0.62932039886446345 0 -0.77714595512881146 1.1657189326932171 0 -0.94398059829669512 1 I I 0 1 1.5 forward I I I I #
face $-1 $195 $196 $63 $-1 $197 forward single #
loop $-1 $198 $199 $79 #
cone-surface $-1 58.06306508559549 25.172134622279891 7.549176138380651 -0.62932039886446345 0 -0.77714595512881146 1.1657189326932171 0 -0.94398059829669512 1 I I 0 1 1.5 forward I I I I #
face $-1 $200 $201 $48 $-1 $202 reversed single #
loop $-1 $-1 $203 $80 #
plane-surface $-1 0 0 -15.660363463687478 0 0 1 1 0 0 forward_v I I I I #
coedge $-1 $204 $205 $206 $207 forward $81 $-1 #
face $-1 $208 $209 $49 $-1 $210 reversed single #
loop $-1 $-1 $211 $83 #
plane-surface $-1 0 -25.640699190476759 13.411937305817741 0 -1 0 0 0 -1 forward_v I I I I #
coedge $-1 $212 $213 $214 $215 reversed $84 $-1 #
face $-1 $216 $217 $50 $-1 $218 reversed single #
loop $-1 $-1 $219 $86 #
plane-surface $-1 -67.168797875911736 -16.454599598045888 10.252471831688823 -0.81915205242281985 0 0.57357642473473569 0.57357642473473569 0 0.81915205242281985 forward_v I I I I #
coedge $-1 $220 $221 $222 $223 reversed $87 $-1 #
face $-1 $-1 $224 $51 $-1 $225 forward single #
loop $-1 $226 $227 $89 #
cone-surface $-1 -61.831083680328334 -16.454599598045888 10.544629171119052 0.81915205242281985 0 -0.57357642473473569 0.28678821236736785 0 0.40957602621140993 1 I I -0.70710678118654879 0.70710678118654635 0.5 forward I I I I #
loop $-1 $-1 $228 $67 #
coedge $-1 $144 $144 $229 $230 reversed $90 $-1 #
face $-1 $231 $232 $52 $-1 $233 reversed single #
loop $-1 $-1 $234 $92 #
plane-surface $-1 -67.168797875911736 -0.7831170712029234 10.252471831688823 -0.81915205242281985 0 0.57357642473473569 0.57357642473473569 0 0.81915205242281985 forward_v I I I I #
coedge $-1 $235 $236 $237 $238 reversed $93 $-1 #
face $-1 $-1 $239 $53 $-1 $240 forward single #
loop $-1 $241 $242 $95 #
cone-surface $-1 -61.831083680328334 -0.7831170712029234 10.544629171119052 0.81915205242281985 0 -0.57357642473473569 0.28678821236736785 0 0.40957602621140993 1 I I -0.70710678118654879 0.70710678118654635 0.5 forward I I I I #
loop $-1 $-1 $243 $69 #
coedge $-1 $153 $153 $244 $245 reversed $96 $-1 #
face $-1 $246 $247 $54 $-1 $248 reversed single #
loop $-1 $-1 $249 $98 #
plane-surface $-1 -67.168797875911736 14.888365455640042 10.252471831688823 -0.81915205242281985 0 0.57357642473473569 0.57357642473473569 0 0.81915205242281985 forward_v I I I I #
coedge $-1 $250 $251 $252 $253 reversed $99 $-1 #
face $-1 $-1 $254 $55 $-1 $255 forward single #
loop $-1 $256 $257 $101 #
cone-surface $-1 -61.831083680328334 14.888365455640042 10.544629171119052 0.81915205242281985 0 -0.57357642473473569 0.28678821236736785 0 0.40957602621140993 1 I I -0.70710678118654879 0.70710678118654635 0.5 forward I I I I #
loop $-1 $-1 $258 $71 #
coedge $-1 $162 $162 $259 $260 reversed $102 $-1 #
face $-1 $261 $262 $56 $-1 $263 reversed single #
loop $-1 $-1 $264 $104 #
plane-surface $-1 -67.168797875911736 30.559847982482999 10.252471831688823 -0.81915205242281985 0 0.57357642473473569 0.57357642473473569 0 0.81915205242281985 forward_v I I I I #
coedge $-1 $265 $266 $267 $268 reversed $105 $-1 #
face $-1 $-1 $269 $57 $-1 $270 forward single #
loop $-1 $271 $272 $107 #
cone-surface $-1 -61.831083680328334 30.559847982482999 10.544629171119052 0.81915205242281985 0 -0.57357642473473569 0.28678821236736785 0 0.40957602621140993 1 I I -0.70710678118654879 0.70710678118654635 0.5 forward I I I I #
loop $-1 $-1 $273 $73 #
coedge $-1 $171 $171 $274 $275 reversed $108 $-1 #
face $-1 $276 $277 $58 $-1 $278 reversed single #
loop $-1 $-1 $279 $110 #
plane-surface $-1 -37.231121284347282 -8.8588665959087187 88.26411653523904 0.62932039886446345 0 0.77714595512881146 0.77714595512881146 0 -0.62932039886446345 forward_v I I I I #
coedge $-1 $280 $281 $282 $283 reversed $111 $-1 #
face $-1 $-1 $284 $59 $-1 $285 forward single #
loop $-1 $286 $287 $113 #
cone-surface $-1 55.856218387047505 -11.546902760411392 4.8239474814667282 -0.62932039886446345 0 -0.77714595512881146 0.58285946634660857 0 -0.47199029914834756 1 I I -0.70710678118654757 0.70710678118654757 0.75 forward I I I I #
loop $-1 $-1 $288 $75 #
coedge $-1 $180 $180 $289 $290 reversed $114 $-1 #
face $-1 $-1 $291 $60 $-1 $292 forward single #
loop $-1 $293 $294 $116 #
cone-surface $-1 55.856218387047505 -6.170830431406042 4.8239474814667282 -0.62932039886446345 0 -0.77714595512881146 0.58285946634660857 0 -0.47199029914834756 1 I I -0.70710678118654757 0.70710678118654757 0.75 forward I I I I #
loop $-1 $-1 $295 $76 #
coedge $-1 $185 $185 $296 $297 reversed $117 $-1 #
face $-1 $298 $299 $61 $-1 $300 reversed single #
loop $-1 $-1 $301 $119 #
plane-surface $-1 -37.231121284347282 22.484098457777215 88.26411653523904 0.62932039886446345 0 0.77714595512881146 0.77714595512881146 0 -0.62932039886446345 forward_v I I I I #
coedge $-1 $302 $303 $304 $305 reversed $120 $-1 #
face $-1 $-1 $306 $62 $-1 $307 forward single #
loop $-1 $308 $309 $122 #
cone-surface $-1 55.856218387047505 19.796062293274538 4.8239474814667282 -0.62932039886446345 0 -0.77714595512881146 0.58285946634660857 0 -0.47199029914834756 1 I I -0.70710678118654757 0.70710678118654757 0.75 forward I I I I #
loop $-1 $-1 $310 $78 #
coedge $-1 $194 $194 $311 $312 reversed $123 $-1 #
face $-1 $-1 $313 $63 $-1 $314 forward single #
loop $-1 $315 $316 $125 #
cone-surface $-1 55.856218387047505 25.172134622279891 4.8239474814667282 -0.62932039886446345 0 -0.77714595512881146 0.58285946634660857 0 -0.47199029914834756 1 I I -0.70710678118654757 0.70710678118654757 0.75 forward I I I I #
loop $-1 $-1 $317 $79 #
coedge $-1 $199 $199 $318 $319 reversed $126 $-1 #
face $-1 $320 $321 $48 $-1 $322 reversed single #
loop $-1 $-1 $323 $128 #
plane-surface $-1 0 -37.0452309168951 0 0 1 0 0 0 1 forward_v I I I I #
coedge $-1 $324 $325 $326 $327 forward $129 $-1 #
coedge $-1 $328 $131 $329 $330 forward $81 $-1 #
coedge $-1 $131 $328 $331 $332 forward $81 $-1 #
coedge $-1 $333 $334 $131 $207 reversed $335 $-1 #
edge $-1 $336 -37.0452309168951 $337 37.0452309168951 $206 $338 forward 7 unknown #
face $-1 $339 $340 $49 $-1 $341 reversed single #
loop $-1 $-1 $342 $132 #
plane-surface $-1 -67.168797875911736 0 0 1 0 0 0 0 -1 forward_v I I I I #
coedge $-1 $343 $344 $345 $346 reversed $133 $-1 #
coedge $-1 $347 $135 $348 $349 reversed $84 $-1 #
coedge $-1 $135 $347 $343 $350 forward $84 $-1 #
coedge $-1 $345 $351 $135 $215 forward $352 $-1 #
edge $-1 $353 -21.373748390052135 $354 -9.9692166636337944 $214 $355 forward 7 unknown #
face $-1 $356 $357 $50 $-1 $358 forward single #
loop $-1 $-1 $359 $136 #
plane-surface $-1 -177.21171515356502 -12.634033056428418 87.305349710479945 0 -1 0 0.81915205242281985 0 -0.57357642473473569 forward_v I I I I #
coedge $-1 $360 $361 $362 $363 reversed $137 $-1 #
coedge $-1 $221 $139 $364 $365 reversed $87 $-1 #
coedge $-1 $139 $220 $360 $366 reversed $87 $-1 #
coedge $-1 $362 $367 $139 $223 forward $357 $-1 #
edge $-1 $368 21.437059700870776 $369 25.223706073128923 $222 $370 forward 7 unknown #
loop $-1 $-1 $229 $140 #
plane-surface $-1 -67.168797875911736 -16.454599598045888 10.252471831688823 -0.81915205242281985 0 0.57357642473473569 0.57357642473473569 0 0.81915205242281985 forward_v I I I I #
loop $-1 $-1 $371 $89 #
coedge $-1 $227 $227 $228 $372 reversed $141 $-1 #
coedge $-1 $228 $228 $227 $372 forward $143 $-1 #
coedge $-1 $229 $229 $144 $230 forward $224 $-1 #
edge $-1 $373 0 $373 6.2831853071796004 $229 $374 forward 7 unknown #
face $-1 $375 $376 $52 $-1 $377 forward single #
loop $-1 $-1 $378 $145 #
plane-surface $-1 -177.21171515356502 3.0374494704145469 87.305349710479945 0 -1 0 0.81915205242281985 0 -0.57357642473473569 forward_v I I I I #
coedge $-1 $379 $380 $381 $382 reversed $146 $-1 #
coedge $-1 $236 $148 $383 $384 reversed $93 $-1 #
coedge $-1 $148 $235 $379 $385 reversed $93 $-1 #
coedge $-1 $381 $386 $148 $238 forward $376 $-1 #
edge $-1 $387 21.437059700870776 $388 25.223706073128923 $237 $389 forward 7 unknown #
loop $-1 $-1 $244 $149 #
plane-surface $-1 -67.168797875911736 -0.7831170712029234 10.252471831688823 -0.81915205242281985 0 0.57357642473473569 0.57357642473473569 0 0.81915205242281985 forward_v I I I I #
loop $-1 $-1 $390 $95 #
coedge $-1 $242 $242 $243 $391 reversed $150 $-1 #
coedge $-1 $243 $243 $242 $391 forward $152 $-1 #
coedge $-1 $244 $244 $153 $245 forward $239 $-1 #
edge $-1 $392 0 $392 6.2831853071796004 $244 $393 forward 7 unknown #
face $-1 $394 $395 $54 $-1 $396 forward single #
loop $-1 $-1 $397 $154 #
plane-surface $-1 -177.21171515356502 18.708931997257512 87.305349710479945 0 -1 0 0.81915205242281985 0 -0.57357642473473569 forward_v I I I I #
coedge $-1 $398 $399 $400 $401 reversed $155 $-1 #
coedge $-1 $251 $157 $402 $403 reversed $99 $-1 #
coedge $-1 $157 $250 $398 $404 reversed $99 $-1 #
coedge $-1 $400 $405 $157 $253 forward $395 $-1 #
edge $-1 $406 21.437059700870776 $407 25.223706073128923 $252 $408 forward 7 unknown #
loop $-1 $-1 $259 $158 #
plane-surface $-1 -67.168797875911736 14.888365455640042 10.252471831688823 -0.81915205242281985 0 0.57357642473473569 0.57357642473473569 0 0.81915205242281985 forward_v I I I I #
loop $-1 $-1 $409 $101 #
coedge $-1 $257 $257 $258 $410 reversed $159 $-1 #
coedge $-1 $258 $258 $257 $410 forward $161 $-1 #
coedge $-1 $259 $259 $162 $260 forward $254 $-1 #
edge $-1 $411 0 $411 6.2831853071796004 $259 $412 forward 7 unknown #
face $-1 $413 $414 $56 $-1 $415 forward single #
loop $-1 $-1 $416 $163 #
plane-surface $-1 -177.21171515356502 34.380414524100473 87.305349710479945 0 -1 0 0.81915205242281985 0 -0.57357642473473569 forward_v I I I I #
coedge $-1 $417 $418 $419 $420 reversed $164 $-1 #
coedge $-1 $266 $166 $421 $422 reversed $105 $-1 #
coedge $-1 $166 $265 $417 $423 reversed $105 $-1 #
coedge $-1 $419 $424 $166 $268 forward $414 $-1 #
edge $-1 $425 21.437059700870776 $426 25.223706073128923 $267 $427 forward 7 unknown #
loop $-1 $-1 $274 $167 #
plane-surface $-1 -67.168797875911736 30.559847982482999 10.252471831688823 -0.81915205242281985 0 0.57357642473473569 0.57357642473473569 0 0.81915205242281985 forward_v I I I I #
loop $-1 $-1 $428 $107 #
coedge $-1 $272 $272 $273 $429 reversed $168 $-1 #
coedge $-1 $273 $273 $272 $429 forward $170 $-1 #
coedge $-1 $274 $274 $171 $275 forward $269 $-1 #
edge $-1 $430 0 $430 6.2831853071796004 $274 $431 forward 7 unknown #
face $-1 $432 $433 $58 $-1 $434 reversed single #
loop $-1 $-1 $435 $172 #
plane-surface $-1 47.310268056683313 -15.130950979748292 192.66403569549806 0 1 0 0.62932039886446345 0 0.77714595512881146 forward_v I I I I #
coedge $-1 $436 $437 $438 $439 reversed $173 $-1 #
coedge $-1 $281 $175 $440 $441 reversed $111 $-1 #
coedge $-1 $175 $280 $436 $442 reversed $111 $-1 #
coedge $-1 $438 $443 $175 $283 forward $444 $-1 #
edge $-1 $445 -43.513663847570079 $446 -28.771911065736809 $282 $447 forward 7 unknown #
loop $-1 $-1 $289 $176 #
plane-surface $-1 -37.231121284347282 -8.8588665959087187 88.26411653523904 0.62932039886446345 0 0.77714595512881146 0.77714595512881146 0 -0.62932039886446345 forward_v I I I I #
loop $-1 $-1 $448 $113 #
coedge $-1 $287 $287 $288 $449 reversed $177 $-1 #
coedge $-1 $288 $288 $287 $449 forward $179 $-1 #
coedge $-1 $289 $289 $180 $290 forward $284 $-1 #
edge $-1 $450 0 $450 6.2831853071796004 $289 $451 forward 7 unknown #
loop $-1 $-1 $296 $181 #
plane-surface $-1 -37.231121284347282 -8.8588665959087187 88.26411653523904 0.62932039886446345 0 0.77714595512881146 0.77714595512881146 0 -0.62932039886446345 forward_v I I I I #
loop $-1 $-1 $452 $116 #
coedge $-1 $294 $294 $295 $453 reversed $182 $-1 #
coedge $-1 $295 $295 $294 $453 forward $184 $-1 #
coedge $-1 $296 $296 $185 $297 forward $291 $-1 #
edge $-1 $454 0 $454 6.2831853071796004 $296 $455 forward 7 unknown #
face $-1 $456 $457 $61 $-1 $458 reversed single #
loop $-1 $-1 $459 $186 #
plane-surface $-1 47.310268056683313 16.212014073937642 192.66403569549806 0 1 0 0.62932039886446345 0 0.77714595512881146 forward_v I I I I #
coedge $-1 $460 $461 $462 $463 reversed $187 $-1 #
coedge $-1 $303 $189 $464 $465 reversed $120 $-1 #
coedge $-1 $189 $302 $460 $466 reversed $120 $-1 #
coedge $-1 $462 $467 $189 $305 forward $468 $-1 #
edge $-1 $469 -43.513663847570079 $470 -28.771911065736809 $304 $471 forward 7 unknown #
loop $-1 $-1 $311 $190 #
plane-surface $-1 -37.231121284347282 22.484098457777215 88.26411653523904 0.62932039886446345 0 0.77714595512881146 0.77714595512881146 0 -0.62932039886446345 forward_v I I I I #
loop $-1 $-1 $472 $122 #
coedge $-1 $309 $309 $310 $473 reversed $191 $-1 #
coedge $-1 $310 $310 $309 $473 forward $193 $-1 #
coedge $-1 $311 $311 $194 $312 forward $306 $-1 #
edge $-1 $474 0 $474 6.2831853071796004 $311 $475 forward 7 unknown #
loop $-1 $-1 $318 $195 #
plane-surface $-1 -37.231121284347282 22.484098457777215 88.26411653523904 0.62932039886446345 0 0.77714595512881146 0.77714595512881146 0 -0.62932039886446345 forward_v I I I I #
loop $-1 $-1 $476 $125 #
coedge $-1 $316 $316 $317 $477 reversed $196 $-1 #
coedge $-1 $317 $317 $316 $477 forward $198 $-1 #
coedge $-1 $318 $318 $199 $319 forward $313 $-1 #
edge $-1 $478 0 $478 6.2831853071796004 $318 $479 forward 7 unknown #
face $-1 $480 $481 $48 $-1 $482 reversed single #
loop $-1 $-1 $483 $200 #
plane-surface $-1 -67.168797875911736 0 0 1 0 0 0 0 -1 forward_v I I I I #
coedge $-1 $484 $331 $485 $486 forward $201 $-1 #
coedge $-1 $487 $203 $484 $488 forward $129 $-1 #
coedge $-1 $203 $487 $489 $490 forward $129 $-1 #
coedge $-1 $334 $333 $203 $327 reversed $335 $-1 #
edge $-1 $491 -37.0452309168951 $492 37.0452309168951 $326 $493 forward 7 unknown #
coedge $-1 $205 $204 $494 $495 forward $81 $-1 #
coedge $-1 $496 $497 $204 $330 reversed $481 $-1 #
edge $-1 $337 -67.168797875911736 $498 67.168797875911736 $329 $499 forward 7 unknown #
coedge $-1 $323 $500 $205 $332 reversed $201 $-1 #
edge $-1 $501 -67.168797875911736 $336 67.168797875911736 $331 $502 forward 7 unknown #
coedge $-1 $326 $206 $500 $503 forward $335 $-1 #
coedge $-1 $206 $326 $496 $504 reversed $335 $-1 #
loop $-1 $-1 $333 $480 #
vertex $-1 $207 $505 #
vertex $-1 $207 $506 #
straight-curve $-1 67.168797875911736 0 15.660363463687478 0 1 0 I I #
face $-1 $507 $508 $49 $-1 $509 forward single #
loop $-1 $-1 $348 $208 #
plane-surface $-1 0 -37.0452309168951 0 0 1 0 0 0 1 forward_v I I I I #
coedge $-1 $510 $511 $512 $513 forward $209 $-1 #
coedge $-1 $512 $211 $213 $350 reversed $133 $-1 #
coedge $-1 $211 $512 $514 $515 reversed $133 $-1 #
coedge $-1 $516 $214 $211 $346 forward $352 $-1 #
edge $-1 $354 4.4575424950391316 $517 8.9543948107786093 $345 $518 forward 7 unknown #
coedge $-1 $213 $212 $510 $519 reversed $84 $-1 #
coedge $-1 $520 $521 $212 $349 forward $340 $-1 #
edge $-1 $522 -67.168797875911736 $353 67.168797875911736 $348 $523 forward 7 unknown #
edge $-1 $524 -67.168797875911736 $354 67.168797875911736 $343 $525 forward 7 unknown #
coedge $-1 $214 $516 $520 $526 forward $352 $-1 #
loop $-1 $-1 $345 $507 #
vertex $-1 $349 $527 #
vertex $-1 $215 $528 #
straight-curve $-1 67.168797875911736 -15.671482526842965 11.163511147948002 0 1 0 I I #
face $-1 $-1 $529 $50 $-1 $530 reversed single #
loop $-1 $-1 $222 $216 #
plane-surface $-1 0 0 15.660363463687478 0 0 1 1 0 0 forward_v I I I I #
coedge $-1 $531 $532 $533 $534 reversed $217 $-1 #
coedge $-1 $535 $219 $221 $366 forward $137 $-1 #
coedge $-1 $219 $535 $531 $536 forward $137 $-1 #
coedge $-1 $533 $222 $219 $363 forward $357 $-1 #
edge $-1 $369 -12.047866340640415 $537 -4.4067332574054738 $362 $538 forward 7 unknown #
coedge $-1 $539 $540 $220 $365 forward $529 $-1 #
edge $-1 $541 -33.40020302355115 $368 -27.992311391552494 $364 $542 forward 7 unknown #
edge $-1 $369 -6.6018166175664774 $541 0 $221 $543 forward 7 unknown #
coedge $-1 $222 $533 $539 $544 forward $357 $-1 #
vertex $-1 $365 $545 #
vertex $-1 $223 $546 #
straight-curve $-1 -88.605857576782512 -20.275166139663359 15.660363463687482 1 0 0 I I #
coedge $-1 $371 $371 $-1 $547 reversed $226 $-1 #
edge $-1 $548 0 $548 6.2831853071796004 $227 $549 forward 7 unknown #
vertex $-1 $230 $550 #
ellipse-curve $-1 -65.275474689782669 -16.454599598045888 12.956417647688149 -0.81915205242281985 0 0.57357642473473569 0.57357642473473569 0 0.81915205242281985 1 I I #
face $-1 $-1 $551 $52 $-1 $552 reversed single #
loop $-1 $-1 $237 $231 #
plane-surface $-1 0 0 15.660363463687478 0 0 1 1 0 0 forward_v I I I I #
coedge $-1 $553 $554 $555 $556 reversed $232 $-1 #
coedge $-1 $557 $234 $236 $385 forward $146 $-1 #
coedge $-1 $234 $557 $553 $558 forward $146 $-1 #
coedge $-1 $555 $237 $234 $382 forward $376 $-1 #
edge $-1 $388 -4.212125077218932 $559 3.4290080060160086 $381 $560 forward 7 unknown #
coedge $-1 $561 $562 $235 $384 forward $551 $-1 #
edge $-1 $563 -33.40020302355115 $387 -27.992311391552494 $383 $564 forward 7 unknown #
edge $-1 $388 -6.6018166175664774 $563 0 $236 $565 forward 7 unknown #
coedge $-1 $237 $555 $561 $566 forward $376 $-1 #
vertex $-1 $238 $567 #
vertex $-1 $238 $568 #
straight-curve $-1 -88.605857576782512 -4.6036836128203937 15.660363463687482 1 0 0 I I #
coedge $-1 $390 $390 $-1 $569 reversed $241 $-1 #
edge $-1 $570 0 $570 6.2831853071796004 $242 $571 forward 7 unknown #
vertex $-1 $245 $572 #
ellipse-curve $-1 -65.275474689782669 -0.7831170712029234 12.956417647688149 -0.81915205242281985 0 0.57357642473473569 0.57357642473473569 0 0.81915205242281985 1 I I #
face $-1 $-1 $573 $54 $-1 $574 reversed single #
loop $-1 $-1 $252 $246 #
plane-surface $-1 0 0 15.660363463687478 0 0 1 1 0 0 forward_v I I I I #
coedge $-1 $575 $576 $577 $578 reversed $247 $-1 #
coedge $-1 $579 $249 $251 $404 forward $155 $-1 #
coedge $-1 $249 $579 $575 $580 forward $155 $-1 #
coedge $-1 $577 $252 $249 $401 forward $395 $-1 #
edge $-1 $407 3.6236161862025504 $581 11.264749269437491 $400 $582 forward 7 unknown #
coedge $-1 $583 $584 $250 $403 forward $573 $-1 #
edge $-1 $585 -33.40020302355115 $406 -27.992311391552494 $402 $586 forward 7 unknown #
edge $-1 $407 -6.6018166175664774 $585 0 $251 $587 forward 7 unknown #
coedge $-1 $252 $577 $583 $588 forward $395 $-1 #
vertex $-1 $253 $589 #
vertex $-1 $253 $590 #
straight-curve $-1 -88.605857576782512 11.067798914022571 15.660363463687482 1 0 0 I I #
coedge $-1 $409 $409 $-1 $591 reversed $256 $-1 #
edge $-1 $592 0 $592 6.2831853071796004 $257 $593 forward 7 unknown #
vertex $-1 $260 $594 #
ellipse-curve $-1 -65.275474689782669 14.888365455640042 12.956417647688149 -0.81915205242281985 0 0.57357642473473569 0.57357642473473569 0 0.81915205242281985 1 I I #
face $-1 $-1 $595 $56 $-1 $596 reversed single #
loop $-1 $-1 $267 $261 #
plane-surface $-1 0 0 15.660363463687478 0 0 1 1 0 0 forward_v I I I I #
coedge $-1 $597 $598 $599 $600 reversed $262 $-1 #
coedge $-1 $601 $264 $266 $423 forward $164 $-1 #
coedge $-1 $264 $601 $597 $602 forward $164 $-1 #
coedge $-1 $599 $267 $264 $420 forward $414 $-1 #
edge $-1 $426 11.459357449624029 $603 19.100490532858974 $419 $604 forward 7 unknown #
coedge $-1 $605 $606 $265 $422 forward $595 $-1 #
edge $-1 $607 -33.40020302355115 $425 -27.992311391552494 $421 $608 forward 7 unknown #
edge $-1 $426 -6.6018166175664774 $607 0 $266 $609 forward 7 unknown #
coedge $-1 $267 $599 $605 $610 forward $414 $-1 #
vertex $-1 $268 $611 #
vertex $-1 $268 $612 #
straight-curve $-1 -88.605857576782512 26.739281440865529 15.660363463687482 1 0 0 I I #
coedge $-1 $428 $428 $-1 $613 reversed $271 $-1 #
edge $-1 $614 0 $614 6.2831853071796004 $272 $615 forward 7 unknown #
vertex $-1 $275 $616 #
ellipse-curve $-1 -65.275474689782669 30.559847982482999 12.956417647688149 -0.81915205242281985 0 0.57357642473473569 0.57357642473473569 0 0.81915205242281985 1 I I #
face $-1 $-1 $444 $58 $-1 $617 forward single #
loop $-1 $-1 $618 $276 #
plane-surface $-1 67.168797875911736 0 0 -1 0 0 0 0 1 forward_v I I I I #
coedge $-1 $619 $620 $621 $622 reversed $277 $-1 #
coedge $-1 $623 $279 $281 $442 forward $173 $-1 #
coedge $-1 $279 $623 $619 $624 forward $173 $-1 #
coedge $-1 $621 $282 $279 $439 forward $444 $-1 #
edge $-1 $446 -1.8426510858852136 $625 10.701517681793932 $438 $626 forward 7 unknown #
coedge $-1 $627 $628 $280 $441 forward $433 $-1 #
edge $-1 $629 -92.609290653540583 $445 -80.671654384061554 $440 $630 forward 7 unknown #
edge $-1 $446 115.3685041873054 $629 134.33759575182347 $281 $631 forward 7 unknown #
coedge $-1 $282 $621 $627 $632 forward $444 $-1 #
loop $-1 $-1 $621 $432 #
vertex $-1 $441 $633 #
vertex $-1 $283 $634 #
straight-curve $-1 23.655134028341656 -2.5867822120691457 15.660363463687474 -1 0 0 I I #
coedge $-1 $448 $448 $-1 $635 reversed $286 $-1 #
edge $-1 $636 0 $636 6.2831853071796004 $287 $637 forward 7 unknown #
vertex $-1 $290 $638 #
ellipse-curve $-1 59.797921484995115 -11.546902760411392 9.6915453289479547 0.62932039886446345 0 0.77714595512881146 1.1657189326932171 0 -0.94398059829669512 1 I I #
coedge $-1 $452 $452 $-1 $639 reversed $293 $-1 #
edge $-1 $640 0 $640 6.2831853071796004 $294 $641 forward 7 unknown #
vertex $-1 $297 $642 #
ellipse-curve $-1 59.797921484995115 -6.170830431406042 9.6915453289479547 0.62932039886446345 0 0.77714595512881146 1.1657189326932171 0 -0.94398059829669512 1 I I #
face $-1 $-1 $468 $61 $-1 $643 forward single #
loop $-1 $-1 $644 $298 #
plane-surface $-1 67.168797875911736 0 0 -1 0 0 0 0 1 forward_v I I I I #
coedge $-1 $645 $646 $647 $648 reversed $299 $-1 #
coedge $-1 $649 $301 $303 $466 forward $187 $-1 #
coedge $-1 $301 $649 $645 $650 forward $187 $-1 #
coedge $-1 $647 $304 $301 $463 forward $468 $-1 #
edge $-1 $470 -17.51413361272818 $651 -4.9699648450490344 $462 $652 forward 7 unknown #
coedge $-1 $653 $654 $302 $465 forward $457 $-1 #
edge $-1 $655 -92.609290653540583 $469 -80.671654384061554 $464 $656 forward 7 unknown #
edge $-1 $470 115.3685041873054 $655 134.33759575182347 $303 $657 forward 7 unknown #
coedge $-1 $304 $647 $653 $658 forward $468 $-1 #
loop $-1 $-1 $647 $456 #
vertex $-1 $465 $659 #
vertex $-1 $305 $660 #
straight-curve $-1 23.655134028341656 28.756182841616788 15.660363463687474 -1 0 0 I I #
coedge $-1 $472 $472 $-1 $661 reversed $308 $-1 #
edge $-1 $662 0 $662 6.2831853071796004 $309 $663 forward 7 unknown #
vertex $-1 $312 $664 #
ellipse-curve $-1 59.797921484995115 19.796062293274538 9.6915453289479547 0.62932039886446345 0 0.77714595512881146 1.1657189326932171 0 -0.94398059829669512 1 I I #
coedge $-1 $476 $476 $-1 $665 reversed $315 $-1 #
edge $-1 $666 0 $666 6.2831853071796004 $316 $667 forward 7 unknown #
vertex $-1 $319 $668 #
ellipse-curve $-1 59.797921484995115 25.172134622279891 9.6915453289479547 0.62932039886446345 0 0.77714595512881146 1.1657189326932171 0 -0.94398059829669512 1 I I #
face $-1 $-1 $335 $48 $-1 $669 reversed single #
loop $-1 $-1 $496 $320 #
plane-surface $-1 0 37.0452309168951 0 0 -1 0 0 0 -1 forward_v I I I I #
coedge $-1 $670 $494 $497 $671 forward $321 $-1 #
coedge $-1 $500 $323 $324 $488 reversed $201 $-1 #
coedge $-1 $494 $670 $323 $486 reversed $321 $-1 #
edge $-1 $501 -15.660363463687478 $672 15.660363463687478 $485 $673 forward 7 unknown #
coedge $-1 $325 $324 $670 $674 forward $129 $-1 #
edge $-1 $492 -67.168797875911736 $672 67.168797875911736 $484 $675 forward 7 unknown #
coedge $-1 $497 $496 $325 $490 reversed $481 $-1 #
edge $-1 $676 -67.168797875911736 $491 67.168797875911736 $489 $677 forward 7 unknown #
vertex $-1 $327 $678 #
vertex $-1 $503 $679 #
straight-curve $-1 67.168797875911736 0 -15.660363463687478 0 -1 0 I I #
coedge $-1 $483 $485 $328 $495 reversed $321 $-1 #
edge $-1 $498 -37.0452309168951 $501 37.0452309168951 $494 $680 forward 7 unknown #
coedge $-1 $489 $329 $334 $504 forward $481 $-1 #
coedge $-1 $329 $489 $483 $671 reversed $481 $-1 #
vertex $-1 $330 $681 #
straight-curve $-1 0 37.0452309168951 15.660363463687478 -1 0 0 I I #
coedge $-1 $331 $484 $333 $503 reversed $201 $-1 #
vertex $-1 $495 $682 #
straight-curve $-1 0 -37.0452309168951 15.660363463687478 1 0 0 I I #
edge $-1 $336 -15.660363463687478 $492 15.660363463687478 $333 $683 forward 7 unknown #
edge $-1 $337 -15.660363463687478 $491 15.660363463687478 $334 $684 forward 7 unknown #
point $-1 67.168797875911736 -37.0452309168951 15.660363463687478 #
point $-1 67.168797875911736 37.0452309168951 15.660363463687478 #
face $-1 $-1 $352 $49 $-1 $685 reversed single #
loop $-1 $-1 $514 $339 #
plane-surface $-1 0 0 15.660363463687478 0 0 1 1 0 0 forward_v I I I I #
coedge $-1 $686 $342 $347 $519 forward $209 $-1 #
coedge $-1 $342 $686 $687 $688 reversed $209 $-1 #
coedge $-1 $344 $343 $342 $513 reversed $133 $-1 #
edge $-1 $689 -8.9543948107786093 $524 -4.4575424950391316 $342 $690 forward 7 unknown #
coedge $-1 $687 $691 $344 $515 forward $508 $-1 #
edge $-1 $517 -67.168797875911736 $689 67.168797875911736 $514 $692 forward 7 unknown #
coedge $-1 $351 $345 $691 $693 reversed $352 $-1 #
vertex $-1 $346 $694 #
straight-curve $-1 67.168797875911736 -25.640699190476759 6.7059686529088705 0 0 1 I I #
edge $-1 $524 9.9692166636337944 $522 21.373748390052135 $510 $695 forward 7 unknown #
coedge $-1 $696 $348 $351 $526 reversed $340 $-1 #
coedge $-1 $348 $696 $686 $697 forward $340 $-1 #
vertex $-1 $349 $698 #
straight-curve $-1 0 -37.0452309168951 11.163511147948002 1 0 0 I I #
vertex $-1 $519 $699 #
straight-curve $-1 0 -25.640699190476759 11.163511147948002 1 0 0 I I #
edge $-1 $700 -15.660363463687478 $353 -11.163511147948002 $351 $701 forward 7 unknown #
point $-1 67.168797875911736 -37.0452309168951 11.163511147948002 #
point $-1 67.168797875911736 -25.640699190476759 11.163511147948002 #
loop $-1 $-1 $364 $356 #
plane-surface $-1 -67.168797875911736 0 0 1 0 0 0 0 -1 forward_v I I I I #
coedge $-1 $532 $359 $361 $536 reversed $217 $-1 #
coedge $-1 $359 $531 $702 $703 reversed $217 $-1 #
coedge $-1 $367 $362 $359 $534 forward $357 $-1 #
edge $-1 $537 -25.223706073128923 $704 -21.437059700870776 $533 $705 forward 7 unknown #
coedge $-1 $361 $360 $540 $706 reversed $137 $-1 #
edge $-1 $707 0 $537 6.6018166175664774 $531 $708 forward 7 unknown #
vertex $-1 $363 $709 #
straight-curve $-1 -63.382151503653603 -8.2272997990229442 15.660363463687478 0 1 0 I I #
coedge $-1 $702 $364 $367 $544 reversed $529 $-1 #
coedge $-1 $364 $702 $535 $706 forward $529 $-1 #
vertex $-1 $365 $710 #
straight-curve $-1 -67.168797875911736 -20.275166139663359 43.652674855239972 0 0 1 I I #
straight-curve $-1 -67.168797875911736 -20.275166139663359 10.252471831688823 -0.57357642473473569 0 -0.81915205242281985 I I #
edge $-1 $704 12.634033056428418 $368 20.275166139663359 $539 $711 forward 7 unknown #
point $-1 -67.168797875911736 -20.275166139663359 15.660363463687478 #
point $-1 -63.382151503653589 -20.275166139663359 15.660363463687478 #
edge $-1 $712 1 $712 0 $371 $-1 forward 7 unknown #
vertex $-1 $372 $713 #
ellipse-curve $-1 -62.240659706539745 -16.454599598045888 10.831417383486418 -0.81915205242281985 0 0.57357642473473569 0.57357642473473569 0 0.81915205242281985 1 I I #
point $-1 -64.701898265047916 -16.454599598045888 13.775569700110964 #
loop $-1 $-1 $383 $375 #
plane-surface $-1 -67.168797875911736 0 0 1 0 0 0 0 -1 forward_v I I I I #
coedge $-1 $554 $378 $380 $558 reversed $232 $-1 #
coedge $-1 $378 $553 $714 $715 reversed $232 $-1 #
coedge $-1 $386 $381 $378 $556 forward $376 $-1 #
edge $-1 $559 -25.223706073128923 $716 -21.437059700870776 $555 $717 forward 7 unknown #
coedge $-1 $380 $379 $562 $718 reversed $146 $-1 #
edge $-1 $719 0 $559 6.6018166175664774 $553 $720 forward 7 unknown #
vertex $-1 $382 $721 #
straight-curve $-1 -63.382151503653603 -0.3915585356014617 15.660363463687478 0 1 0 I I #
coedge $-1 $714 $383 $386 $566 reversed $551 $-1 #
coedge $-1 $383 $714 $557 $718 forward $551 $-1 #
vertex $-1 $384 $722 #
straight-curve $-1 -67.168797875911736 -4.6036836128203937 43.652674855239972 0 0 1 I I #
straight-curve $-1 -67.168797875911736 -4.6036836128203937 10.252471831688823 -0.57357642473473569 0 -0.81915205242281985 I I #
edge $-1 $716 -3.0374494704145469 $387 4.6036836128203937 $561 $723 forward 7 unknown #
point $-1 -67.168797875911736 -4.6036836128203937 15.660363463687478 #
point $-1 -63.382151503653589 -4.6036836128203937 15.660363463687478 #
edge $-1 $724 1 $724 0 $390 $-1 forward 7 unknown #
vertex $-1 $391 $725 #
ellipse-curve $-1 -62.240659706539745 -0.7831170712029234 10.831417383486418 -0.81915205242281985 0 0.57357642473473569 0.57357642473473569 0 0.81915205242281985 1 I I #
point $-1 -64.701898265047916 -0.7831170712029234 13.775569700110964 #
loop $-1 $-1 $402 $394 #
plane-surface $-1 -67.168797875911736 0 0 1 0 0 0 0 -1 forward_v I I I I #
coedge $-1 $576 $397 $399 $580 reversed $247 $-1 #
coedge $-1 $397 $575 $726 $727 reversed $247 $-1 #
coedge $-1 $405 $400 $397 $578 forward $395 $-1 #
edge $-1 $581 -25.223706073128923 $728 -21.437059700870776 $577 $729 forward 7 unknown #
coedge $-1 $399 $398 $584 $730 reversed $155 $-1 #
edge $-1 $731 0 $581 6.6018166175664774 $575 $732 forward 7 unknown #
vertex $-1 $401 $733 #
straight-curve $-1 -63.382151503653603 7.4441827278200208 15.660363463687478 0 1 0 I I #
coedge $-1 $726 $402 $405 $588 reversed $573 $-1 #
coedge $-1 $402 $726 $579 $730 forward $573 $-1 #
vertex $-1 $403 $734 #
straight-curve $-1 -67.168797875911736 11.067798914022571 43.652674855239972 0 0 1 I I #
straight-curve $-1 -67.168797875911736 11.067798914022571 10.252471831688823 -0.57357642473473569 0 -0.81915205242281985 I I #
edge $-1 $728 -18.708931997257512 $406 -11.067798914022571 $583 $735 forward 7 unknown #
point $-1 -67.168797875911736 11.067798914022571 15.660363463687478 #
point $-1 -63.382151503653589 11.067798914022571 15.660363463687478 #
edge $-1 $736 1 $736 0 $409 $-1 forward 7 unknown #
vertex $-1 $410 $737 #
ellipse-curve $-1 -62.240659706539745 14.888365455640042 10.831417383486418 -0.81915205242281985 0 0.57357642473473569 0.57357642473473569 0 0.81915205242281985 1 I I #
point $-1 -64.701898265047916 14.888365455640042 13.775569700110964 #
loop $-1 $-1 $421 $413 #
plane-surface $-1 -67.168797875911736 0 0 1 0 0 0 0 -1 forward_v I I I I #
coedge $-1 $598 $416 $418 $602 reversed $262 $-1 #
coedge $-1 $416 $597 $738 $739 reversed $262 $-1 #
coedge $-1 $424 $419 $416 $600 forward $414 $-1 #
edge $-1 $603 -25.223706073128923 $740 -21.437059700870776 $599 $741 forward 7 unknown #
coedge $-1 $418 $417 $606 $742 reversed $164 $-1 #
edge $-1 $743 0 $603 6.6018166175664774 $597 $744 forward 7 unknown #
vertex $-1 $420 $745 #
straight-curve $-1 -63.382151503653603 15.2799239912415 15.660363463687478 0 1 0 I I #
coedge $-1 $738 $421 $424 $610 reversed $595 $-1 #
coedge $-1 $421 $738 $601 $742 forward $595 $-1 #
vertex $-1 $422 $746 #
straight-curve $-1 -67.168797875911736 26.739281440865529 43.652674855239972 0 0 1 I I #
straight-curve $-1 -67.168797875911736 26.739281440865529 10.252471831688823 -0.57357642473473569 0 -0.81915205242281985 I I #
edge $-1 $740 -34.380414524100473 $425 -26.739281440865529 $605 $747 forward 7 unknown #
point $-1 -67.168797875911736 26.739281440865529 15.660363463687478 #
point $-1 -63.382151503653589 26.739281440865529 15.660363463687478 #
edge $-1 $748 1 $748 0 $428 $-1 forward 7 unknown #
vertex $-1 $429 $749 #
ellipse-curve $-1 -62.240659706539745 30.559847982482999 10.831417383486418 -0.81915205242281985 0 0.57357642473473569 0.57357642473473569 0 0.81915205242281985 1 I I #
point $-1 -64.701898265047916 30.559847982482999 13.775569700110964 #
plane-surface $-1 0 0 15.660363463687478 0 0 1 1 0 0 forward_v I I I I #
coedge $-1 $628 $627 $620 $750 forward $433 $-1 #
coedge $-1 $620 $435 $437 $624 reversed $277 $-1 #
coedge $-1 $435 $619 $618 $750 reversed $277 $-1 #
coedge $-1 $443 $438 $435 $622 forward $444 $-1 #
edge $-1 $625 28.771911065736809 $751 43.513663847570079 $621 $752 forward 7 unknown #
coedge $-1 $437 $436 $628 $753 reversed $173 $-1 #
edge $-1 $754 -134.33759575182347 $625 -115.3685041873054 $619 $755 forward 7 unknown #
vertex $-1 $439 $756 #
straight-curve $-1 52.427045094078487 -4.4294332979543594 15.660363463687474 0 -1 0 I I #
coedge $-1 $618 $440 $443 $632 reversed $433 $-1 #
coedge $-1 $440 $618 $623 $753 forward $433 $-1 #
vertex $-1 $441 $757 #
straight-curve $-1 67.168797875911736 -2.5867822120691457 96.332017847749029 0 0 1 I I #
straight-curve $-1 -37.231121284347282 -2.5867822120691457 88.26411653523904 0.77714595512881146 0 -0.62932039886446345 I I #
edge $-1 $751 -15.130950979748292 $445 -2.5867822120691457 $627 $758 forward 7 unknown #
point $-1 67.168797875911736 -2.5867822120691457 15.660363463687478 #
point $-1 52.427045094078466 -2.5867822120691457 15.660363463687474 #
edge $-1 $759 1 $759 0 $448 $-1 forward 7 unknown #
vertex $-1 $449 $760 #
ellipse-curve $-1 56.32820868619585 -11.546902760411392 5.4068069478133367 0.62932039886446345 0 0.77714595512881146 1.1657189326932171 0 -0.94398059829669512 1 I I #
point $-1 60.963640417688339 -11.546902760411392 8.7475647306512698 #
edge $-1 $761 1 $761 0 $452 $-1 forward 7 unknown #
vertex $-1 $453 $762 #
ellipse-curve $-1 56.32820868619585 -6.170830431406042 5.4068069478133367 0.62932039886446345 0 0.77714595512881146 1.1657189326932171 0 -0.94398059829669512 1 I I #
point $-1 60.963640417688339 -6.170830431406042 8.7475647306512698 #
plane-surface $-1 0 0 15.660363463687478 0 0 1 1 0 0 forward_v I I I I #
coedge $-1 $654 $653 $646 $763 forward $457 $-1 #
coedge $-1 $646 $459 $461 $650 reversed $299 $-1 #
coedge $-1 $459 $645 $644 $763 reversed $299 $-1 #
coedge $-1 $467 $462 $459 $648 forward $468 $-1 #
edge $-1 $651 28.771911065736809 $764 43.513663847570079 $647 $765 forward 7 unknown #
coedge $-1 $461 $460 $654 $766 reversed $187 $-1 #
edge $-1 $767 -134.33759575182347 $651 -115.3685041873054 $645 $768 forward 7 unknown #
vertex $-1 $463 $769 #
straight-curve $-1 52.427045094078487 11.242049228888607 15.660363463687474 0 -1 0 I I #
coedge $-1 $644 $464 $467 $658 reversed $457 $-1 #
coedge $-1 $464 $644 $649 $766 forward $457 $-1 #
vertex $-1 $465 $770 #
straight-curve $-1 67.168797875911736 28.756182841616788 96.332017847749029 0 0 1 I I #
straight-curve $-1 -37.231121284347282 28.756182841616788 88.26411653523904 0.77714595512881146 0 -0.62932039886446345 I I #
edge $-1 $764 16.212014073937642 $469 28.756182841616788 $653 $771 forward 7 unknown #
point $-1 67.168797875911736 28.756182841616788 15.660363463687478 #
point $-1 52.427045094078466 28.756182841616788 15.660363463687474 #
edge $-1 $772 1 $772 0 $472 $-1 forward 7 unknown #
vertex $-1 $473 $773 #
ellipse-curve $-1 56.32820868619585 19.796062293274538 5.4068069478133367 0.62932039886446345 0 0.77714595512881146 1.1657189326932171 0 -0.94398059829669512 1 I I #
point $-1 60.963640417688339 19.796062293274538 8.7475647306512698 #
edge $-1 $774 1 $774 0 $476 $-1 forward 7 unknown #
vertex $-1 $477 $775 #
ellipse-curve $-1 56.32820868619585 25.172134622279891 5.4068069478133367 0.62932039886446345 0 0.77714595512881146 1.1657189326932171 0 -0.94398059829669512 1 I I #
point $-1 60.963640417688339 25.172134622279891 8.7475647306512698 #
plane-surface $-1 67.168797875911736 0 0 -1 0 0 0 0 1 forward_v I I I I #
coedge $-1 $485 $483 $487 $674 reversed $321 $-1 #
edge $-1 $498 -15.660363463687478 $676 15.660363463687478 $497 $776 forward 7 unknown #
vertex $-1 $674 $777 #
straight-curve $-1 -67.168797875911736 -37.0452309168951 0 0 0 -1 I I #
edge $-1 $672 -37.0452309168951 $676 37.0452309168951 $670 $778 forward 7 unknown #
straight-curve $-1 0 -37.0452309168951 -15.660363463687478 -1 0 0 I I #
vertex $-1 $490 $779 #
straight-curve $-1 0 37.0452309168951 -15.660363463687478 1 0 0 I I #
point $-1 67.168797875911736 37.0452309168951 -15.660363463687478 #
point $-1 67.168797875911736 -37.0452309168951 -15.660363463687478 #
straight-curve $-1 -67.168797875911736 0 15.660363463687478 0 -1 0 I I #
point $-1 -67.168797875911736 37.0452309168951 15.660363463687478 #
point $-1 -67.168797875911736 -37.0452309168951 15.660363463687478 #
straight-curve $-1 67.168797875911736 -37.0452309168951 0 0 0 -1 I I #
straight-curve $-1 67.168797875911736 37.0452309168951 0 0 0 -1 I I #
plane-surface $-1 67.168797875911736 0 0 -1 0 0 0 0 1 forward_v I I I I #
coedge $-1 $511 $510 $521 $697 reversed $209 $-1 #
coedge $-1 $780 $514 $511 $688 forward $508 $-1 #
edge $-1 $689 25.640699190476759 $781 37.0452309168951 $511 $782 forward 7 unknown #
vertex $-1 $688 $783 #
straight-curve $-1 -67.168797875911736 -25.640699190476759 6.7059686529088705 0 0 -1 I I #
coedge $-1 $514 $780 $516 $693 forward $508 $-1 #
straight-curve $-1 0 -25.640699190476759 15.660363463687478 -1 0 0 I I #
edge $-1 $700 -37.0452309168951 $517 -25.640699190476759 $516 $784 forward 7 unknown #
point $-1 67.168797875911736 -25.640699190476759 15.66036346368748 #
straight-curve $-1 -67.168797875911736 -15.671482526842965 11.163511147948002 0 -1 0 I I #
coedge $-1 $521 $520 $780 $785 reversed $340 $-1 #
edge $-1 $781 -15.660363463687478 $522 -11.163511147948002 $686 $786 forward 7 unknown #
point $-1 -67.168797875911736 -37.0452309168951 11.163511147948002 #
point $-1 -67.168797875911736 -25.640699190476759 11.163511147948002 #
vertex $-1 $693 $787 #
straight-curve $-1 67.168797875911736 -37.0452309168951 0 0 0 -1 I I #
coedge $-1 $540 $539 $532 $703 forward $529 $-1 #
edge $-1 $704 27.992311391552494 $707 33.40020302355115 $702 $788 forward 7 unknown #
vertex $-1 $544 $789 #
straight-curve $-1 -88.605857576782512 -12.634033056428418 15.660363463687482 -1 0 0 I I #
edge $-1 $707 4.4067332574054738 $541 12.047866340640415 $540 $790 forward 7 unknown #
vertex $-1 $706 $791 #
straight-curve $-1 -67.168797875911736 -12.634033056428418 10.252471831688823 0.57357642473473569 0 0.81915205242281985 I I #
point $-1 -63.382151503653589 -12.634033056428418 15.660363463687478 #
point $-1 -67.168797875911736 -20.275166139663359 10.252471831688823 #
straight-curve $-1 -67.168797875911736 0 15.660363463687478 0 -1 0 I I #
vertex $-1 $547 $792 #
point $-1 -61.667083281805006 -16.454599598045888 11.650569435909238 #
coedge $-1 $562 $561 $554 $715 forward $551 $-1 #
edge $-1 $716 27.992311391552494 $719 33.40020302355115 $714 $793 forward 7 unknown #
vertex $-1 $566 $794 #
straight-curve $-1 -88.605857576782512 3.0374494704145469 15.660363463687482 -1 0 0 I I #
edge $-1 $719 -3.4290080060160086 $563 4.212125077218932 $562 $795 forward 7 unknown #
vertex $-1 $718 $796 #
straight-curve $-1 -67.168797875911736 3.0374494704145469 10.252471831688823 0.57357642473473569 0 0.81915205242281985 I I #
point $-1 -63.382151503653589 3.0374494704145469 15.660363463687478 #
point $-1 -67.168797875911736 -4.6036836128203937 10.252471831688823 #
straight-curve $-1 -67.168797875911736 0 15.660363463687478 0 -1 0 I I #
vertex $-1 $569 $797 #
point $-1 -61.667083281805006 -0.7831170712029234 11.650569435909238 #
coedge $-1 $584 $583 $576 $727 forward $573 $-1 #
edge $-1 $728 27.992311391552494 $731 33.40020302355115 $726 $798 forward 7 unknown #
vertex $-1 $588 $799 #
straight-curve $-1 -88.605857576782512 18.708931997257512 15.660363463687482 -1 0 0 I I #
edge $-1 $731 -11.264749269437491 $585 -3.6236161862025504 $584 $800 forward 7 unknown #
vertex $-1 $730 $801 #
straight-curve $-1 -67.168797875911736 18.708931997257512 10.252471831688823 0.57357642473473569 0 0.81915205242281985 I I #
point $-1 -63.382151503653589 18.708931997257512 15.660363463687478 #
point $-1 -67.168797875911736 11.067798914022571 10.252471831688823 #
straight-curve $-1 -67.168797875911736 0 15.660363463687478 0 -1 0 I I #
vertex $-1 $591 $802 #
point $-1 -61.667083281805006 14.888365455640042 11.650569435909238 #
coedge $-1 $606 $605 $598 $739 forward $595 $-1 #
edge $-1 $740 27.992311391552494 $743 33.40020302355115 $738 $803 forward 7 unknown #
vertex $-1 $610 $804 #
straight-curve $-1 -88.605857576782512 34.380414524100473 15.660363463687482 -1 0 0 I I #
edge $-1 $743 -19.100490532858974 $607 -11.459357449624029 $606 $805 forward 7 unknown #
vertex $-1 $742 $806 #
straight-curve $-1 -67.168797875911736 34.380414524100473 10.252471831688823 0.57357642473473569 0 0.81915205242281985 I I #
point $-1 -63.382151503653589 34.380414524100473 15.660363463687478 #
point $-1 -67.168797875911736 26.739281440865529 10.252471831688823 #
straight-curve $-1 -67.168797875911736 0 15.660363463687478 0 -1 0 I I #
vertex $-1 $613 $807 #
point $-1 -61.667083281805006 30.559847982482999 11.650569435909238 #
edge $-1 $751 80.671654384061554 $754 92.609290653540583 $618 $808 forward 7 unknown #
vertex $-1 $632 $809 #
straight-curve $-1 23.655134028341656 -15.130950979748292 15.660363463687474 1 0 0 I I #
edge $-1 $754 -10.701517681793932 $629 1.8426510858852136 $628 $810 forward 7 unknown #
vertex $-1 $753 $811 #
straight-curve $-1 -37.231121284347282 -15.130950979748292 88.26411653523904 -0.77714595512881146 0 0.62932039886446345 I I #
point $-1 52.427045094078466 -15.130950979748292 15.660363463687474 #
point $-1 67.168797875911736 -2.5867822120691457 3.7227271942084457 #
straight-curve $-1 67.168797875911736 0 15.660363463687478 0 1 0 I I #
vertex $-1 $635 $812 #
point $-1 57.493927618889067 -11.546902760411392 4.462826349516642 #
vertex $-1 $639 $813 #
point $-1 57.493927618889067 -6.170830431406042 4.462826349516642 #
edge $-1 $764 80.671654384061554 $767 92.609290653540583 $644 $814 forward 7 unknown #
vertex $-1 $658 $815 #
straight-curve $-1 23.655134028341656 16.212014073937642 15.660363463687474 1 0 0 I I #
edge $-1 $767 4.9699648450490344 $655 17.51413361272818 $654 $816 forward 7 unknown #
vertex $-1 $766 $817 #
straight-curve $-1 -37.231121284347282 16.212014073937642 88.26411653523904 -0.77714595512881146 0 0.62932039886446345 I I #
point $-1 52.427045094078466 16.212014073937642 15.660363463687474 #
point $-1 67.168797875911736 28.756182841616788 3.7227271942084457 #
straight-curve $-1 67.168797875911736 0 15.660363463687478 0 1 0 I I #
vertex $-1 $661 $818 #
point $-1 57.493927618889067 19.796062293274538 4.462826349516642 #
vertex $-1 $665 $819 #
point $-1 57.493927618889067 25.172134622279891 4.462826349516642 #
straight-curve $-1 -67.168797875911736 37.0452309168951 0 0 0 -1 I I #
point $-1 -67.168797875911736 -37.0452309168951 -15.660363463687478 #
straight-curve $-1 -67.168797875911736 0 -15.660363463687478 0 1 0 I I #
point $-1 -67.168797875911736 37.0452309168951 -15.660363463687478 #
coedge $-1 $691 $687 $696 $785 forward $508 $-1 #
vertex $-1 $688 $820 #
straight-curve $-1 -67.168797875911736 0 15.660363463687478 0 -1 0 I I #
point $-1 -67.168797875911736 -25.640699190476759 15.66036346368748 #
straight-curve $-1 67.168797875911736 0 15.660363463687478 0 1 0 I I #
edge $-1 $781 -67.168797875911736 $700 67.168797875911736 $696 $821 forward 7 unknown #
straight-curve $-1 -67.168797875911736 -37.0452309168951 0 0 0 -1 I I #
point $-1 67.168797875911736 -37.0452309168951 15.660363463687478 #
straight-curve $-1 -67.168797875911736 -12.634033056428418 43.652674855239972 0 0 -1 I I #
point $-1 -67.168797875911736 -12.634033056428418 15.660363463687478 #
straight-curve $-1 -67.168797875911736 -8.2272997990229442 10.25247183168883 0 -1 0 I I #
point $-1 -67.168797875911736 -12.634033056428418 10.252471831688823 #
point $-1 -61.421507654116922 -16.454599598045888 10.257840958751686 #
straight-curve $-1 -67.168797875911736 3.0374494704145469 43.652674855239972 0 0 -1 I I #
point $-1 -67.168797875911736 3.0374494704145469 15.660363463687478 #
straight-curve $-1 -67.168797875911736 -0.3915585356014617 10.25247183168883 0 -1 0 I I #
point $-1 -67.168797875911736 3.0374494704145469 10.252471831688823 #
point $-1 -61.421507654116922 -0.7831170712029234 10.257840958751686 #
straight-curve $-1 -67.168797875911736 18.708931997257512 43.652674855239972 0 0 -1 I I #
point $-1 -67.168797875911736 18.708931997257512 15.660363463687478 #
straight-curve $-1 -67.168797875911736 7.4441827278200208 10.25247183168883 0 -1 0 I I #
point $-1 -67.168797875911736 18.708931997257512 10.252471831688823 #
point $-1 -61.421507654116922 14.888365455640042 10.257840958751686 #
straight-curve $-1 -67.168797875911736 34.380414524100473 43.652674855239972 0 0 -1 I I #
point $-1 -67.168797875911736 34.380414524100473 15.660363463687478 #
straight-curve $-1 -67.168797875911736 15.2799239912415 10.25247183168883 0 -1 0 I I #
point $-1 -67.168797875911736 34.380414524100473 10.252471831688823 #
point $-1 -61.421507654116922 30.559847982482999 10.257840958751686 #
straight-curve $-1 67.168797875911736 -15.130950979748292 96.332017847749029 0 0 -1 I I #
point $-1 67.168797875911736 -15.130950979748292 15.660363463687478 #
straight-curve $-1 67.168797875911736 -4.4294332979543594 3.7227271942084386 0 1 0 I I #
point $-1 67.168797875911736 -15.130950979748292 3.7227271942084457 #
point $-1 55.38422808789916 -11.546902760411392 4.2410880151201198 #
point $-1 55.38422808789916 -6.170830431406042 4.2410880151201198 #
straight-curve $-1 67.168797875911736 16.212014073937642 96.332017847749029 0 0 -1 I I #
point $-1 67.168797875911736 16.212014073937642 15.660363463687478 #
straight-curve $-1 67.168797875911736 11.242049228888607 3.7227271942084386 0 1 0 I I #
point $-1 67.168797875911736 16.212014073937642 3.7227271942084457 #
point $-1 55.38422808789916 19.796062293274538 4.2410880151201198 #
point $-1 55.38422808789916 25.172134622279891 4.2410880151201198 #
point $-1 -67.168797875911736 -37.0452309168951 15.660363463687478 #
straight-curve $-1 0 -37.0452309168951 15.660363463687478 1 0 0 I I #
End-of-ACIS-data 