500 0 11 0           
7 Unknown 11 ACIS 5.0 NT 24 Thu Mar 25 16:49:31 1999 
-1 9.9999999999999995e-007 1e-010 
body $-1 $11 $-1 $12 #
body $-1 $13 $-1 $14 #
body $-1 $15 $-1 $16 #
body $-1 $17 $-1 $18 #
body $-1 $19 $-1 $20 #
body $-1 $21 $-1 $22 #
body $-1 $23 $-1 $24 #
body $-1 $25 $-1 $26 #
body $-1 $27 $-1 $28 #
body $-1 $29 $-1 $30 #
body $-1 $31 $-1 $32 #
lump $-1 $-1 $33 $0 #
transform $-1 1 0 0 0 1 0 0 0 1 76.741843928342547 30.920168825671073 7.9771336767080596 1 rotate no_reflect no_shear #
lump $-1 $-1 $34 $1 #
transform $-1 1 0 0 0 1 0 0 0 1 76.741843928342547 30.920168825671073 7.9771336767080596 1 rotate no_reflect no_shear #
lump $-1 $-1 $35 $2 #
transform $-1 1 0 0 0 1 0 0 0 1 76.741843928342547 30.920168825671073 7.9771336767080596 1 rotate no_reflect no_shear #
lump $-1 $-1 $36 $3 #
transform $-1 1 0 0 0 1 0 0 0 1 76.741843928342547 30.920168825671073 7.9771336767080596 1 rotate no_reflect no_shear #
lump $-1 $-1 $37 $4 #
transform $-1 1 0 0 0 1 0 0 0 1 76.741843928342547 30.920168825671073 7.9771336767080596 1 rotate no_reflect no_shear #
lump $-1 $-1 $38 $5 #
transform $-1 1 0 0 0 1 0 0 0 1 76.741843928342547 30.920168825671073 7.9771336767080596 1 rotate no_reflect no_shear #
lump $-1 $-1 $39 $6 #
transform $-1 1 0 0 0 1 0 0 0 1 76.741843928342547 30.920168825671073 7.9771336767080596 1 rotate no_reflect no_shear #
lump $-1 $-1 $40 $7 #
transform $-1 1 0 0 0 1 0 0 0 1 76.741843928342547 30.920168825671073 7.9771336767080596 1 rotate no_reflect no_shear #
lump $-1 $-1 $41 $8 #
transform $-1 1 0 0 0 1 0 0 0 1 76.741843928342547 30.920168825671073 7.9771336767080596 1 rotate no_reflect no_shear #
lump $-1 $-1 $42 $9 #
transform $-1 1 0 0 0 1 0 0 0 1 76.741843928342547 30.920168825671073 7.9771336767080596 1 rotate no_reflect no_shear #
lump $-1 $-1 $43 $10 #
transform $-1 1 0 0 0 1 0 0 0 1 76.741843928342547 30.920168825671073 7.9771336767080596 1 rotate no_reflect no_shear #
shell $-1 $-1 $-1 $44 $-1 $11 #
shell $-1 $-1 $-1 $45 $-1 $13 #
shell $-1 $-1 $-1 $46 $-1 $15 #
shell $-1 $-1 $-1 $47 $-1 $17 #
shell $-1 $-1 $-1 $48 $-1 $19 #
shell $-1 $-1 $-1 $49 $-1 $21 #
shell $-1 $-1 $-1 $50 $-1 $23 #
shell $-1 $-1 $-1 $51 $-1 $25 #
shell $-1 $-1 $-1 $52 $-1 $27 #
shell $-1 $-1 $-1 $53 $-1 $29 #
shell $-1 $-1 $-1 $54 $-1 $31 #
face $-1 $55 $56 $33 $-1 $57 reversed single #
face $-1 $58 $59 $34 $-1 $60 forward single #
face $-1 $61 $62 $35 $-1 $63 forward single #
face $-1 $64 $65 $36 $-1 $66 reversed single #
face $-1 $67 $68 $37 $-1 $69 forward single #
face $-1 $70 $71 $38 $-1 $72 forward single #
face $-1 $73 $74 $39 $-1 $75 forward single #
face $-1 $76 $77 $40 $-1 $78 reversed single #
face $-1 $79 $80 $41 $-1 $81 forward single #
face $-1 $82 $83 $42 $-1 $84 forward single #
face $-1 $85 $86 $43 $-1 $87 forward single #
face $-1 $88 $89 $33 $-1 $90 forward single #
loop $-1 $-1 $91 $44 #
plane-surface $-1 76.741843928342547 0 0 -1 0 0 0 0 1 forward_v I I I I #
face $-1 $92 $93 $34 $-1 $94 reversed single #
loop $-1 $-1 $95 $45 #
plane-surface $-1 -76.741843928342547 0 0 1 0 0 0 0 -1 forward_v I I I I #
face $-1 $96 $97 $35 $-1 $98 reversed single #
loop $-1 $-1 $99 $46 #
plane-surface $-1 76.741843928342547 0 0 -1 0 0 0 0 1 forward_v I I I I #
face $-1 $100 $101 $36 $-1 $102 reversed single #
loop $-1 $-1 $103 $47 #
plane-surface $-1 -5.2355702537051556 128.31133387603069 134.68739135592105 1 0 0 0 -0.84804810408105047 -0.52991925155115449 forward_v I I I I #
face $-1 $104 $105 $37 $-1 $106 forward single #
loop $-1 $107 $108 $48 #
cone-surface $-1 1.8979923835934898 27.693596261597154 3.8070571052577868 0 -0.84804810408105047 -0.52991925155115449 1.5 0 0 1 I I 0 1 1.5 forward I I I I #
face $-1 $109 $110 $38 $-1 $111 forward single #
loop $-1 $112 $113 $49 #
cone-surface $-1 12.598336339541447 27.693596261597154 3.8070571052577868 0 -0.84804810408105047 -0.52991925155115449 1.5 0 0 1 I I 0 1 1.5 forward I I I I #
face $-1 $114 $115 $39 $-1 $116 forward single #
loop $-1 $117 $118 $50 #
cone-surface $-1 23.298680295489405 27.693596261597154 3.8070571052577868 0 -0.84804810408105047 -0.52991925155115449 1.5 0 0 1 I I 0 1 1.5 forward I I I I #
face $-1 $119 $120 $40 $-1 $121 reversed single #
loop $-1 $-1 $122 $51 #
plane-surface $-1 30.43224293278805 -161.08171931990063 82.243810254968324 -1 0 0 0 -0.84804810408105047 0.52991925155115449 forward_v I I I I #
face $-1 $123 $124 $41 $-1 $125 forward single #
loop $-1 $126 $127 $52 #
cone-surface $-1 1.8979923835934898 -27.693596261597165 3.8070571052577797 0 0.84804810408105047 -0.52991925155115449 1.5 0 0 1 I I 0 1 1.5 forward I I I I #
face $-1 $128 $129 $42 $-1 $130 forward single #
loop $-1 $131 $132 $53 #
cone-surface $-1 12.598336339541447 -27.693596261597165 3.8070571052577797 0 0.84804810408105047 -0.52991925155115449 1.5 0 0 1 I I 0 1 1.5 forward I I I I #
face $-1 $133 $134 $43 $-1 $135 forward single #
loop $-1 $136 $137 $54 #
cone-surface $-1 23.298680295489405 -27.693596261597165 3.8070571052577797 0 0.84804810408105047 -0.52991925155115449 1.5 0 0 1 I I 0 1 1.5 forward I I I I #
face $-1 $138 $139 $33 $-1 $140 reversed single #
loop $-1 $-1 $141 $55 #
plane-surface $-1 0 0 7.9771336767080596 0 0 1 1 0 0 forward_v I I I I #
coedge $-1 $142 $143 $144 $145 reversed $56 $-1 #
face $-1 $146 $147 $34 $-1 $148 forward single #
loop $-1 $-1 $149 $58 #
plane-surface $-1 0 30.920168825671073 0 0 -1 0 0 0 -1 forward_v I I I I #
coedge $-1 $150 $151 $152 $153 forward $59 $-1 #
face $-1 $154 $155 $35 $-1 $156 forward single #
loop $-1 $-1 $157 $61 #
plane-surface $-1 0 -30.920168825671073 0 0 1 0 0 0 1 forward_v I I I I #
coedge $-1 $158 $159 $160 $161 forward $62 $-1 #
face $-1 $162 $163 $36 $-1 $164 reversed single #
loop $-1 $-1 $165 $64 #
plane-surface $-1 12.598336339541447 -1.8502166181988571 53.353430361595471 0 0.84804810408105047 0.52991925155115449 1 0 0 forward_v I I I I #
coedge $-1 $166 $167 $168 $169 reversed $65 $-1 #
face $-1 $-1 $170 $37 $-1 $171 forward single #
loop $-1 $172 $173 $67 #
cone-surface $-1 1.8979923835934898 26.039052262398403 2.7731833031767907 0 -0.84804810408105047 -0.52991925155115449 0.75 0 0 1 I I -0.70710678118654757 0.70710678118654757 0.75 forward I I I I #
loop $-1 $-1 $174 $48 #
coedge $-1 $108 $108 $175 $176 reversed $68 $-1 #
face $-1 $-1 $177 $38 $-1 $178 forward single #
loop $-1 $179 $180 $70 #
cone-surface $-1 12.598336339541447 26.039052262398403 2.7731833031767907 0 -0.84804810408105047 -0.52991925155115449 0.75 0 0 1 I I -0.70710678118654757 0.70710678118654757 0.75 forward I I I I #
loop $-1 $-1 $181 $49 #
coedge $-1 $113 $113 $182 $183 reversed $71 $-1 #
face $-1 $-1 $184 $39 $-1 $185 forward single #
loop $-1 $186 $187 $73 #
cone-surface $-1 23.298680295489405 26.039052262398403 2.7731833031767907 0 -0.84804810408105047 -0.52991925155115449 0.75 0 0 1 I I -0.70710678118654757 0.70710678118654757 0.75 forward I I I I #
loop $-1 $-1 $188 $50 #
coedge $-1 $118 $118 $189 $190 reversed $74 $-1 #
face $-1 $191 $192 $40 $-1 $193 reversed single #
loop $-1 $-1 $194 $76 #
plane-surface $-1 12.598336339541447 -30.920168825671084 0.90984926064274418 0 -0.84804810408105047 0.52991925155115449 1 0 0 forward_v I I I I #
coedge $-1 $195 $196 $197 $198 reversed $77 $-1 #
face $-1 $-1 $199 $41 $-1 $200 forward single #
loop $-1 $201 $202 $79 #
cone-surface $-1 1.8979923835934898 -26.039052262398414 2.7731833031767836 0 0.84804810408105047 -0.52991925155115449 0.75 0 0 1 I I -0.70710678118654757 0.70710678118654757 0.75 forward I I I I #
loop $-1 $-1 $203 $52 #
coedge $-1 $127 $127 $204 $205 reversed $80 $-1 #
face $-1 $-1 $206 $42 $-1 $207 forward single #
loop $-1 $208 $209 $82 #
cone-surface $-1 12.598336339541447 -26.039052262398414 2.7731833031767836 0 0.84804810408105047 -0.52991925155115449 0.75 0 0 1 I I -0.70710678118654757 0.70710678118654757 0.75 forward I I I I #
loop $-1 $-1 $210 $53 #
coedge $-1 $132 $132 $211 $212 reversed $83 $-1 #
face $-1 $-1 $213 $43 $-1 $214 forward single #
loop $-1 $215 $216 $85 #
cone-surface $-1 23.298680295489405 -26.039052262398414 2.7731833031767836 0 0.84804810408105047 -0.52991925155115449 0.75 0 0 1 I I -0.70710678118654757 0.70710678118654757 0.75 forward I I I I #
loop $-1 $-1 $217 $54 #
coedge $-1 $137 $137 $218 $219 reversed $86 $-1 #
face $-1 $220 $221 $33 $-1 $222 reversed single #
loop $-1 $-1 $223 $88 #
plane-surface $-1 0 0 -7.9771336767080596 0 0 1 1 0 0 forward_v I I I I #
coedge $-1 $224 $225 $142 $226 forward $89 $-1 #
coedge $-1 $227 $91 $141 $226 reversed $56 $-1 #
coedge $-1 $91 $227 $223 $228 reversed $56 $-1 #
coedge $-1 $229 $230 $91 $145 forward $231 $-1 #
edge $-1 $232 -7.9771336767080596 $233 7.9771336767080596 $91 $234 forward 7 unknown #
face $-1 $235 $236 $34 $-1 $237 reversed single #
loop $-1 $-1 $152 $92 #
plane-surface $-1 -81.170106226564812 0 7.4771336767080614 0 0 1 1 0 0 forward_v I I I I #
coedge $-1 $238 $239 $151 $240 forward $93 $-1 #
coedge $-1 $241 $95 $242 $243 reversed $59 $-1 #
coedge $-1 $95 $241 $149 $240 reversed $59 $-1 #
coedge $-1 $244 $245 $95 $153 reversed $147 $-1 #
edge $-1 $246 -30.920168825671073 $247 30.920168825671073 $152 $248 forward 7 unknown #
face $-1 $249 $250 $35 $-1 $251 reversed single #
loop $-1 $-1 $252 $96 #
plane-surface $-1 81.170106226564798 0 7.4771336767080614 0 0 1 1 0 0 forward_v I I I I #
coedge $-1 $253 $254 $159 $255 forward $97 $-1 #
coedge $-1 $256 $99 $257 $258 reversed $62 $-1 #
coedge $-1 $99 $256 $157 $255 reversed $62 $-1 #
coedge $-1 $259 $260 $99 $161 reversed $155 $-1 #
edge $-1 $261 -30.920168825671073 $262 30.920168825671073 $160 $263 forward 7 unknown #
face $-1 $264 $265 $36 $-1 $266 reversed single #
loop $-1 $-1 $267 $100 #
plane-surface $-1 30.43224293278805 128.31133387603069 134.68739135592105 -1 0 0 0 0.84804810408105047 0.52991925155115449 forward_v I I I I #
coedge $-1 $268 $269 $270 $271 reversed $101 $-1 #
coedge $-1 $167 $103 $272 $273 reversed $65 $-1 #
coedge $-1 $103 $166 $268 $274 reversed $65 $-1 #
coedge $-1 $270 $275 $103 $169 forward $276 $-1 #
edge $-1 $277 33.235498112344274 $278 37.651627398216178 $168 $279 forward 7 unknown #
loop $-1 $-1 $175 $104 #
plane-surface $-1 12.598336339541447 -1.8502166181988571 53.353430361595471 0 0.84804810408105047 0.52991925155115449 1 0 0 forward_v I I I I #
loop $-1 $-1 $280 $67 #
coedge $-1 $173 $173 $174 $281 reversed $105 $-1 #
coedge $-1 $174 $174 $173 $281 forward $107 $-1 #
coedge $-1 $175 $175 $108 $176 forward $170 $-1 #
edge $-1 $282 -5.0267026812223208e-016 $282 6.2831853071795996 $175 $283 forward 7 unknown #
loop $-1 $-1 $182 $109 #
plane-surface $-1 12.598336339541447 -1.8502166181988571 53.353430361595471 0 0.84804810408105047 0.52991925155115449 1 0 0 forward_v I I I I #
loop $-1 $-1 $284 $70 #
coedge $-1 $180 $180 $181 $285 reversed $110 $-1 #
coedge $-1 $181 $181 $180 $285 forward $112 $-1 #
coedge $-1 $182 $182 $113 $183 forward $177 $-1 #
edge $-1 $286 -5.0267026812223208e-016 $286 6.2831853071795996 $182 $287 forward 7 unknown #
loop $-1 $-1 $189 $114 #
plane-surface $-1 12.598336339541447 -1.8502166181988571 53.353430361595471 0 0.84804810408105047 0.52991925155115449 1 0 0 forward_v I I I I #
loop $-1 $-1 $288 $73 #
coedge $-1 $187 $187 $188 $289 reversed $115 $-1 #
coedge $-1 $188 $188 $187 $289 forward $117 $-1 #
coedge $-1 $189 $189 $118 $190 forward $184 $-1 #
edge $-1 $290 -5.0267026812223208e-016 $290 6.2831853071795996 $189 $291 forward 7 unknown #
face $-1 $292 $293 $40 $-1 $294 forward single #
loop $-1 $-1 $295 $119 #
plane-surface $-1 -5.2355702537051556 -161.08171931990063 82.243810254968324 1 0 0 0 0.84804810408105047 -0.52991925155115449 forward_v I I I I #
coedge $-1 $296 $297 $298 $299 reversed $120 $-1 #
coedge $-1 $196 $122 $300 $301 reversed $77 $-1 #
coedge $-1 $122 $195 $296 $302 reversed $77 $-1 #
coedge $-1 $298 $303 $122 $198 forward $293 $-1 #
edge $-1 $304 49.620690834279245 $305 54.036820120151134 $197 $306 forward 7 unknown #
loop $-1 $-1 $204 $123 #
plane-surface $-1 12.598336339541447 -30.920168825671084 0.90984926064274418 0 -0.84804810408105047 0.52991925155115449 1 0 0 forward_v I I I I #
loop $-1 $-1 $307 $79 #
coedge $-1 $202 $202 $203 $308 reversed $124 $-1 #
coedge $-1 $203 $203 $202 $308 forward $126 $-1 #
coedge $-1 $204 $204 $127 $205 forward $199 $-1 #
edge $-1 $309 7.529555658220771e-016 $309 6.2831853071796013 $204 $310 forward 7 unknown #
loop $-1 $-1 $211 $128 #
plane-surface $-1 12.598336339541447 -30.920168825671084 0.90984926064274418 0 -0.84804810408105047 0.52991925155115449 1 0 0 forward_v I I I I #
loop $-1 $-1 $311 $82 #
coedge $-1 $209 $209 $210 $312 reversed $129 $-1 #
coedge $-1 $210 $210 $209 $312 forward $131 $-1 #
coedge $-1 $211 $211 $132 $212 forward $206 $-1 #
edge $-1 $313 7.529555658220771e-016 $313 6.2831853071796013 $211 $314 forward 7 unknown #
loop $-1 $-1 $218 $133 #
plane-surface $-1 12.598336339541447 -30.920168825671084 0.90984926064274418 0 -0.84804810408105047 0.52991925155115449 1 0 0 forward_v I I I I #
loop $-1 $-1 $315 $85 #
coedge $-1 $216 $216 $217 $316 reversed $134 $-1 #
coedge $-1 $217 $217 $216 $316 forward $136 $-1 #
coedge $-1 $218 $218 $137 $219 forward $213 $-1 #
edge $-1 $317 7.529555658220771e-016 $317 6.2831853071796013 $218 $318 forward 7 unknown #
face $-1 $319 $320 $33 $-1 $321 reversed single #
loop $-1 $-1 $322 $138 #
plane-surface $-1 0 -30.920168825671073 0 0 1 0 0 0 1 forward_v I I I I #
coedge $-1 $323 $324 $143 $228 forward $139 $-1 #
coedge $-1 $325 $141 $230 $326 forward $89 $-1 #
coedge $-1 $141 $325 $327 $328 forward $89 $-1 #
edge $-1 $329 -30.920168825671073 $232 30.920168825671073 $142 $330 forward 7 unknown #
coedge $-1 $143 $142 $331 $332 forward $56 $-1 #
edge $-1 $233 -30.920168825671073 $333 30.920168825671073 $143 $334 forward 7 unknown #
coedge $-1 $335 $144 $324 $336 reversed $231 $-1 #
coedge $-1 $144 $335 $224 $326 reversed $231 $-1 #
loop $-1 $-1 $144 $319 #
vertex $-1 $226 $337 #
vertex $-1 $228 $338 #
straight-curve $-1 76.741843928342547 30.920168825671073 0 0 0 -1 I I #
face $-1 $339 $340 $34 $-1 $341 reversed single #
loop $-1 $-1 $342 $146 #
plane-surface $-1 -81.170106226564812 0 3.4633697395796768 0 0 1 1 0 0 forward_v I I I I #
coedge $-1 $343 $149 $344 $345 reversed $93 $-1 #
coedge $-1 $149 $343 $244 $346 reversed $93 $-1 #
edge $-1 $246 -7.4771336767080614 $347 -3.4633697395796768 $149 $348 forward 7 unknown #
coedge $-1 $151 $150 $342 $349 forward $59 $-1 #
coedge $-1 $350 $351 $150 $243 forward $352 $-1 #
edge $-1 $353 3.4633697395796768 $247 7.4771336767080614 $242 $354 forward 7 unknown #
coedge $-1 $355 $152 $239 $346 forward $147 $-1 #
coedge $-1 $152 $355 $350 $356 forward $147 $-1 #
vertex $-1 $240 $357 #
vertex $-1 $356 $358 #
straight-curve $-1 -76.741843928342547 0 7.4771336767080614 0 -1 0 I I #
face $-1 $359 $360 $35 $-1 $361 reversed single #
loop $-1 $-1 $362 $154 #
plane-surface $-1 81.170106226564798 0 3.4633697395796768 0 0 1 1 0 0 forward_v I I I I #
coedge $-1 $260 $259 $363 $364 forward $155 $-1 #
coedge $-1 $365 $157 $366 $367 reversed $97 $-1 #
coedge $-1 $157 $365 $259 $368 reversed $97 $-1 #
edge $-1 $261 -7.4771336767080614 $369 -3.4633697395796768 $157 $370 forward 7 unknown #
coedge $-1 $159 $158 $371 $372 forward $62 $-1 #
coedge $-1 $373 $374 $158 $258 forward $375 $-1 #
edge $-1 $376 3.4633697395796768 $262 7.4771336767080614 $257 $377 forward 7 unknown #
coedge $-1 $252 $160 $254 $368 forward $155 $-1 #
coedge $-1 $160 $252 $373 $378 forward $155 $-1 #
vertex $-1 $255 $379 #
vertex $-1 $378 $380 #
straight-curve $-1 76.741843928342547 0 7.4771336767080614 0 1 0 I I #
face $-1 $-1 $276 $36 $-1 $381 forward single #
loop $-1 $-1 $382 $162 #
plane-surface $-1 0 30.920168825671073 0 0 -1 0 0 0 -1 forward_v I I I I #
coedge $-1 $383 $384 $385 $386 reversed $163 $-1 #
coedge $-1 $387 $165 $167 $274 forward $101 $-1 #
coedge $-1 $165 $387 $383 $388 forward $101 $-1 #
coedge $-1 $385 $168 $165 $271 forward $276 $-1 #
edge $-1 $278 -11.534738423475879 $389 24.133074763017326 $270 $390 forward 7 unknown #
coedge $-1 $391 $392 $166 $273 forward $265 $-1 #
edge $-1 $393 -66.433846417317795 $277 -59.366562001252468 $272 $394 forward 7 unknown #
edge $-1 $278 53.506748575374047 $393 61.840337651342182 $167 $395 forward 7 unknown #
coedge $-1 $168 $385 $391 $396 forward $276 $-1 #
loop $-1 $-1 $385 $264 #
vertex $-1 $273 $397 #
vertex $-1 $169 $398 #
straight-curve $-1 -5.2355702537051556 64.155666938015344 7.977133676708057 0 -1 0 I I #
coedge $-1 $280 $280 $-1 $399 reversed $172 $-1 #
edge $-1 $400 0 $400 6.2831853071796004 $173 $401 forward 7 unknown #
vertex $-1 $176 $402 #
ellipse-curve $-1 1.8979923835934898 28.712104182735107 4.4434914686754112 0 0.84804810408105047 0.52991925155115449 1.5 0 0 1 I I #
coedge $-1 $284 $284 $-1 $403 reversed $179 $-1 #
edge $-1 $404 0 $404 6.2831853071796004 $180 $405 forward 7 unknown #
vertex $-1 $183 $406 #
ellipse-curve $-1 12.598336339541447 28.712104182735107 4.4434914686754112 0 0.84804810408105047 0.52991925155115449 1.5 0 0 1 I I #
coedge $-1 $288 $288 $-1 $407 reversed $186 $-1 #
edge $-1 $408 0 $408 6.2831853071796004 $187 $409 forward 7 unknown #
vertex $-1 $190 $410 #
ellipse-curve $-1 23.298680295489405 28.712104182735107 4.4434914686754112 0 0.84804810408105047 0.52991925155115449 1.5 0 0 1 I I #
face $-1 $-1 $411 $40 $-1 $412 reversed single #
loop $-1 $-1 $197 $191 #
plane-surface $-1 0 0 7.9771336767080596 0 0 1 1 0 0 forward_v I I I I #
coedge $-1 $413 $414 $415 $416 reversed $192 $-1 #
coedge $-1 $417 $194 $196 $302 forward $120 $-1 #
coedge $-1 $194 $417 $413 $418 forward $120 $-1 #
coedge $-1 $415 $197 $194 $299 forward $293 $-1 #
edge $-1 $305 -24.133074763017326 $419 11.534738423475879 $298 $420 forward 7 unknown #
coedge $-1 $421 $422 $195 $301 forward $411 $-1 #
edge $-1 $423 -40.212055866841403 $304 -33.144771450776105 $300 $424 forward 7 unknown #
edge $-1 $305 -8.333589075968117 $423 -2.014740110050013e-014 $196 $425 forward 7 unknown #
coedge $-1 $197 $415 $421 $426 forward $293 $-1 #
vertex $-1 $301 $427 #
vertex $-1 $198 $428 #
straight-curve $-1 30.43224293278805 -80.540859659950314 7.977133676708057 0 1 0 I I #
coedge $-1 $307 $307 $-1 $429 reversed $201 $-1 #
edge $-1 $430 0 $430 6.2831853071796004 $202 $431 forward 7 unknown #
vertex $-1 $205 $432 #
ellipse-curve $-1 1.8979923835934898 -28.712104182735128 4.4434914686754103 0 -0.84804810408105047 0.52991925155115449 1.5 0 0 1 I I #
coedge $-1 $311 $311 $-1 $433 reversed $208 $-1 #
edge $-1 $434 0 $434 6.2831853071796004 $209 $435 forward 7 unknown #
vertex $-1 $212 $436 #
ellipse-curve $-1 12.598336339541447 -28.712104182735128 4.4434914686754103 0 -0.84804810408105047 0.52991925155115449 1.5 0 0 1 I I #
coedge $-1 $315 $315 $-1 $437 reversed $215 $-1 #
edge $-1 $438 0 $438 6.2831853071796004 $216 $439 forward 7 unknown #
vertex $-1 $219 $440 #
ellipse-curve $-1 23.298680295489405 -28.712104182735128 4.4434914686754103 0 -0.84804810408105047 0.52991925155115449 1.5 0 0 1 I I #
face $-1 $-1 $231 $33 $-1 $441 reversed single #
loop $-1 $-1 $442 $220 #
plane-surface $-1 -76.741843928342547 0 0 1 0 0 0 0 -1 forward_v I I I I #
coedge $-1 $443 $327 $442 $444 forward $221 $-1 #
coedge $-1 $445 $223 $443 $446 forward $139 $-1 #
coedge $-1 $223 $445 $229 $336 forward $139 $-1 #
coedge $-1 $225 $224 $447 $448 forward $89 $-1 #
edge $-1 $232 -76.741843928342547 $449 76.741843928342547 $230 $450 forward 7 unknown #
coedge $-1 $322 $331 $225 $328 reversed $221 $-1 #
edge $-1 $451 -76.741843928342547 $329 76.741843928342547 $327 $452 forward 7 unknown #
vertex $-1 $226 $453 #
straight-curve $-1 76.741843928342547 0 7.9771336767080596 0 1 0 I I #
coedge $-1 $327 $443 $227 $332 reversed $221 $-1 #
edge $-1 $329 -7.9771336767080596 $333 7.9771336767080596 $227 $454 forward 7 unknown #
vertex $-1 $332 $455 #
straight-curve $-1 76.741843928342547 0 -7.9771336767080596 0 -1 0 I I #
coedge $-1 $230 $229 $456 $457 reversed $231 $-1 #
edge $-1 $458 -76.741843928342547 $233 76.741843928342547 $229 $459 forward 7 unknown #
point $-1 76.741843928342547 30.920168825671073 7.9771336767080596 #
point $-1 76.741843928342547 30.920168825671073 -7.9771336767080596 #
face $-1 $-1 $352 $34 $-1 $460 reversed single #
loop $-1 $-1 $461 $235 #
plane-surface $-1 -85.598368524787077 0 5.4702517081438691 1 0 0 0 0 -1 forward_v I I I I #
coedge $-1 $462 $344 $241 $349 reversed $236 $-1 #
coedge $-1 $239 $238 $461 $463 reversed $93 $-1 #
coedge $-1 $342 $464 $238 $345 forward $236 $-1 #
edge $-1 $465 -4.4282622982222648 $347 4.4282622982222648 $238 $466 forward 7 unknown #
edge $-1 $246 -4.4282622982222648 $467 4.4282622982222648 $239 $468 forward 7 unknown #
vertex $-1 $240 $469 #
straight-curve $-1 -76.741843928342547 30.920168825671073 0 0 0 -1 I I #
edge $-1 $353 -30.920168825671073 $347 30.920168825671073 $342 $470 forward 7 unknown #
coedge $-1 $471 $242 $245 $356 reversed $352 $-1 #
coedge $-1 $242 $471 $462 $472 reversed $352 $-1 #
loop $-1 $-1 $242 $339 #
vertex $-1 $243 $473 #
straight-curve $-1 -76.741843928342547 -30.920168825671073 0 0 0 1 I I #
coedge $-1 $245 $244 $474 $475 forward $147 $-1 #
edge $-1 $476 -4.4282622982222648 $247 4.4282622982222648 $350 $477 forward 7 unknown #
point $-1 -76.741843928342547 30.920168825671073 7.4771336767080614 #
point $-1 -76.741843928342547 -30.920168825671073 7.4771336767080614 #
face $-1 $-1 $375 $35 $-1 $478 reversed single #
loop $-1 $-1 $479 $249 #
plane-surface $-1 85.598368524787062 0 5.4702517081438691 -1 0 0 0 0 1 forward_v I I I I #
coedge $-1 $366 $480 $481 $482 forward $250 $-1 #
coedge $-1 $479 $483 $252 $364 reversed $360 $-1 #
edge $-1 $484 -30.920168825671073 $485 30.920168825671073 $363 $486 forward 7 unknown #
coedge $-1 $254 $253 $479 $487 reversed $97 $-1 #
coedge $-1 $371 $362 $253 $367 forward $250 $-1 #
edge $-1 $488 -4.4282622982222648 $369 4.4282622982222648 $253 $489 forward 7 unknown #
edge $-1 $261 -4.4282622982222648 $484 4.4282622982222648 $254 $490 forward 7 unknown #
vertex $-1 $255 $491 #
straight-curve $-1 76.741843928342547 -30.920168825671073 0 0 0 -1 I I #
coedge $-1 $480 $366 $256 $372 reversed $250 $-1 #
edge $-1 $376 -30.920168825671073 $369 30.920168825671073 $371 $492 forward 7 unknown #
coedge $-1 $493 $257 $260 $378 reversed $375 $-1 #
coedge $-1 $257 $493 $480 $494 reversed $375 $-1 #
loop $-1 $-1 $257 $359 #
vertex $-1 $258 $495 #
straight-curve $-1 76.741843928342547 30.920168825671073 0 0 0 1 I I #
edge $-1 $485 -4.4282622982222648 $262 4.4282622982222648 $373 $496 forward 7 unknown #
point $-1 76.741843928342533 -30.920168825671073 7.4771336767080614 #
point $-1 76.741843928342533 30.920168825671073 7.4771336767080614 #
plane-surface $-1 0 0 7.9771336767080596 0 0 1 1 0 0 forward_v I I I I #
coedge $-1 $392 $391 $384 $497 forward $265 $-1 #
coedge $-1 $384 $267 $269 $388 reversed $163 $-1 #
coedge $-1 $267 $383 $382 $497 reversed $163 $-1 #
coedge $-1 $275 $270 $267 $386 forward $276 $-1 #
edge $-1 $389 -37.651627398216178 $498 -33.235498112344274 $385 $499 forward 7 unknown #
coedge $-1 $269 $268 $392 $500 reversed $101 $-1 #
edge $-1 $501 -61.840337651342182 $389 -53.506748575374047 $383 $502 forward 7 unknown #
vertex $-1 $271 $503 #
straight-curve $-1 6.2991681697707236 26.504039539799159 7.9771336767080605 1 0 0 I I #
coedge $-1 $382 $272 $275 $396 reversed $265 $-1 #
coedge $-1 $272 $382 $387 $500 forward $265 $-1 #
vertex $-1 $273 $504 #
straight-curve $-1 -5.2355702537051556 30.92016882567107 67.343695677960525 0 0 1 I I #
straight-curve $-1 -5.2355702537051556 -1.8502166181988571 53.353430361595471 0 0.52991925155115449 -0.84804810408105047 I I #
edge $-1 $498 -30.43224293278805 $277 5.2355702537051556 $391 $505 forward 7 unknown #
point $-1 -5.2355702537051556 30.920168825671073 7.9771336767080596 #
point $-1 -5.2355702537051556 26.504039539799162 7.977133676708057 #
edge $-1 $506 1 $506 0 $280 $-1 forward 7 unknown #
vertex $-1 $281 $507 #
ellipse-curve $-1 1.8979923835934898 26.67508834045919 3.1706227418401567 0 0.84804810408105047 0.52991925155115449 1.5 0 0 1 I I #
point $-1 3.3979923835934898 28.712104182735114 4.4434914686754166 #
edge $-1 $508 1 $508 0 $284 $-1 forward 7 unknown #
vertex $-1 $285 $509 #
ellipse-curve $-1 12.598336339541447 26.67508834045919 3.1706227418401567 0 0.84804810408105047 0.52991925155115449 1.5 0 0 1 I I #
point $-1 14.098336339541447 28.712104182735114 4.4434914686754166 #
edge $-1 $510 1 $510 0 $288 $-1 forward 7 unknown #
vertex $-1 $289 $511 #
ellipse-curve $-1 23.298680295489405 26.67508834045919 3.1706227418401567 0 0.84804810408105047 0.52991925155115449 1.5 0 0 1 I I #
point $-1 24.798680295489405 28.712104182735114 4.4434914686754166 #
loop $-1 $-1 $300 $292 #
plane-surface $-1 0 -30.920168825671073 0 0 1 0 0 0 1 forward_v I I I I #
coedge $-1 $414 $295 $297 $418 reversed $192 $-1 #
coedge $-1 $295 $413 $512 $513 reversed $192 $-1 #
coedge $-1 $303 $298 $295 $416 forward $293 $-1 #
edge $-1 $419 -54.036820120151134 $514 -49.620690834279245 $415 $515 forward 7 unknown #
coedge $-1 $297 $296 $422 $516 reversed $120 $-1 #
edge $-1 $517 2.014740110050013e-014 $419 8.333589075968117 $413 $518 forward 7 unknown #
vertex $-1 $299 $519 #
straight-curve $-1 6.2991681697707236 -26.504039539799184 7.9771336767080605 -1 0 0 I I #
coedge $-1 $512 $300 $303 $426 reversed $411 $-1 #
coedge $-1 $300 $512 $417 $516 forward $411 $-1 #
vertex $-1 $301 $520 #
straight-curve $-1 30.43224293278805 -30.92016882567107 41.121905127484162 0 0 1 I I #
straight-curve $-1 30.43224293278805 -30.920168825671084 0.90984926064274418 0 -0.52991925155115449 -0.84804810408105047 I I #
edge $-1 $514 -5.2355702537051556 $304 30.43224293278805 $421 $521 forward 7 unknown #
point $-1 30.43224293278805 -30.920168825671073 7.9771336767080596 #
point $-1 30.43224293278805 -26.50403953979918 7.9771336767080587 #
edge $-1 $522 1 $522 0 $307 $-1 forward 7 unknown #
vertex $-1 $308 $523 #
ellipse-curve $-1 1.8979923835934898 -26.675088340459201 3.1706227418401496 0 -0.84804810408105047 0.52991925155115449 1.5 0 0 1 I I #
point $-1 3.3979923835934898 -28.712104182735125 4.4434914686754095 #
edge $-1 $524 1 $524 0 $311 $-1 forward 7 unknown #
vertex $-1 $312 $525 #
ellipse-curve $-1 12.598336339541447 -26.675088340459201 3.1706227418401496 0 -0.84804810408105047 0.52991925155115449 1.5 0 0 1 I I #
point $-1 14.098336339541447 -28.712104182735125 4.4434914686754095 #
edge $-1 $526 1 $526 0 $315 $-1 forward 7 unknown #
vertex $-1 $316 $527 #
ellipse-curve $-1 23.298680295489405 -26.675088340459201 3.1706227418401496 0 -0.84804810408105047 0.52991925155115449 1.5 0 0 1 I I #
point $-1 24.798680295489405 -28.712104182735125 4.4434914686754095 #
plane-surface $-1 0 30.920168825671073 0 0 -1 0 0 0 -1 forward_v I I I I #
coedge $-1 $447 $528 $322 $444 reversed $320 $-1 #
coedge $-1 $331 $322 $323 $446 reversed $221 $-1 #
edge $-1 $451 -7.9771336767080596 $529 7.9771336767080596 $442 $530 forward 7 unknown #
coedge $-1 $324 $323 $528 $531 forward $139 $-1 #
edge $-1 $333 -76.741843928342547 $529 76.741843928342547 $443 $532 forward 7 unknown #
coedge $-1 $456 $442 $325 $448 reversed $320 $-1 #
edge $-1 $449 -30.920168825671073 $451 30.920168825671073 $447 $533 forward 7 unknown #
vertex $-1 $326 $534 #
straight-curve $-1 0 30.920168825671073 7.9771336767080596 -1 0 0 I I #
vertex $-1 $448 $535 #
straight-curve $-1 0 -30.920168825671073 7.9771336767080596 1 0 0 I I #
point $-1 76.741843928342547 -30.920168825671073 7.9771336767080596 #
straight-curve $-1 76.741843928342547 -30.920168825671073 0 0 0 -1 I I #
point $-1 76.741843928342547 -30.920168825671073 -7.9771336767080596 #
coedge $-1 $528 $447 $335 $457 forward $320 $-1 #
edge $-1 $449 -7.9771336767080596 $458 7.9771336767080596 $335 $536 forward 7 unknown #
vertex $-1 $336 $537 #
straight-curve $-1 0 30.920168825671073 -7.9771336767080596 1 0 0 I I #
plane-surface $-1 0 -30.920168825671073 0 0 1 0 0 0 1 forward_v I I I I #
coedge $-1 $538 $474 $343 $463 forward $340 $-1 #
coedge $-1 $464 $342 $351 $472 forward $236 $-1 #
edge $-1 $467 -2.0068819685641923 $465 2.0068819685641923 $343 $539 forward 7 unknown #
coedge $-1 $344 $462 $538 $540 forward $236 $-1 #
vertex $-1 $345 $541 #
straight-curve $-1 -81.170106226564812 30.920168825671073 3.4633697395796768 1 0 0 I I #
vertex $-1 $346 $542 #
straight-curve $-1 -81.170106226564812 30.920168825671073 7.4771336767080614 -1 0 0 I I #
point $-1 -76.741843928342547 30.920168825671073 3.4633697395796768 #
straight-curve $-1 -76.741843928342547 0 3.4633697395796768 0 1 0 I I #
coedge $-1 $351 $350 $543 $544 forward $352 $-1 #
edge $-1 $353 -4.4282622982222648 $545 4.4282622982222648 $351 $546 forward 7 unknown #
point $-1 -76.741843928342547 -30.920168825671073 3.4633697395796768 #
coedge $-1 $461 $543 $355 $475 reversed $340 $-1 #
edge $-1 $467 -30.920168825671073 $476 30.920168825671073 $474 $547 forward 7 unknown #
vertex $-1 $475 $548 #
straight-curve $-1 -81.170106226564812 -30.920168825671073 7.4771336767080614 1 0 0 I I #
plane-surface $-1 0 30.920168825671073 0 0 -1 0 0 0 -1 forward_v I I I I #
coedge $-1 $481 $363 $365 $487 forward $360 $-1 #
coedge $-1 $362 $371 $374 $494 forward $250 $-1 #
coedge $-1 $483 $479 $362 $482 reversed $360 $-1 #
edge $-1 $549 -30.920168825671073 $488 30.920168825671073 $481 $550 forward 7 unknown #
coedge $-1 $363 $481 $493 $551 reversed $360 $-1 #
vertex $-1 $364 $552 #
vertex $-1 $364 $553 #
straight-curve $-1 85.598368524787062 0 7.4771336767080614 0 1 0 I I #
edge $-1 $484 -2.0068819685641923 $488 2.0068819685641923 $479 $554 forward 7 unknown #
vertex $-1 $487 $555 #
straight-curve $-1 81.170106226564798 -30.920168825671073 3.4633697395796768 -1 0 0 I I #
straight-curve $-1 81.170106226564798 -30.920168825671073 7.4771336767080614 1 0 0 I I #
point $-1 76.741843928342533 -30.920168825671073 3.4633697395796768 #
straight-curve $-1 76.741843928342547 0 3.4633697395796768 0 -1 0 I I #
coedge $-1 $374 $373 $483 $551 forward $375 $-1 #
edge $-1 $376 -4.4282622982222648 $549 4.4282622982222648 $374 $556 forward 7 unknown #
point $-1 76.741843928342533 30.920168825671073 3.4633697395796768 #
straight-curve $-1 81.170106226564798 30.920168825671073 7.4771336767080614 -1 0 0 I I #
edge $-1 $498 59.366562001252468 $501 66.433846417317795 $382 $557 forward 7 unknown #
vertex $-1 $396 $558 #
straight-curve $-1 30.43224293278805 64.155666938015344 7.977133676708057 0 1 0 I I #
edge $-1 $501 -24.133074763017326 $393 11.534738423475879 $392 $559 forward 7 unknown #
vertex $-1 $500 $560 #
straight-curve $-1 30.43224293278805 -1.8502166181988571 53.353430361595471 0 -0.52991925155115449 0.84804810408105047 I I #
point $-1 30.43224293278805 26.504039539799162 7.977133676708057 #
point $-1 -5.2355702537051556 30.92016882567107 0.90984926064272997 #
straight-curve $-1 0 30.920168825671073 7.9771336767080596 -1 0 0 I I #
vertex $-1 $399 $561 #
point $-1 3.3979923835934898 26.67508834045919 3.1706227418401567 #
vertex $-1 $403 $562 #
point $-1 14.098336339541447 26.67508834045919 3.1706227418401567 #
vertex $-1 $407 $563 #
point $-1 24.798680295489405 26.67508834045919 3.1706227418401567 #
coedge $-1 $422 $421 $414 $513 forward $411 $-1 #
edge $-1 $514 33.144771450776105 $517 40.212055866841403 $512 $564 forward 7 unknown #
vertex $-1 $426 $565 #
straight-curve $-1 -5.2355702537051556 -80.540859659950314 7.977133676708057 0 -1 0 I I #
edge $-1 $517 -11.534738423475879 $423 24.133074763017326 $422 $566 forward 7 unknown #
vertex $-1 $516 $567 #
straight-curve $-1 -5.2355702537051556 -30.920168825671084 0.90984926064274418 0 0.52991925155115449 0.84804810408105047 I I #
point $-1 -5.2355702537051556 -26.50403953979918 7.9771336767080587 #
point $-1 30.43224293278805 -30.920168825671073 0.90984926064276128 #
straight-curve $-1 0 -30.920168825671073 7.9771336767080596 1 0 0 I I #
vertex $-1 $429 $568 #
point $-1 3.3979923835934898 -26.675088340459201 3.1706227418401496 #
vertex $-1 $433 $569 #
point $-1 14.098336339541447 -26.675088340459201 3.1706227418401496 #
vertex $-1 $437 $570 #
point $-1 24.798680295489405 -26.675088340459201 3.1706227418401496 #
coedge $-1 $442 $456 $445 $531 reversed $320 $-1 #
vertex $-1 $531 $571 #
straight-curve $-1 -76.741843928342547 -30.920168825671073 0 0 0 -1 I I #
edge $-1 $529 -30.920168825671073 $458 30.920168825671073 $528 $572 forward 7 unknown #
straight-curve $-1 0 -30.920168825671073 -7.9771336767080596 -1 0 0 I I #
straight-curve $-1 -76.741843928342547 0 7.9771336767080596 0 -1 0 I I #
point $-1 -76.741843928342547 30.920168825671073 7.9771336767080596 #
point $-1 -76.741843928342547 -30.920168825671073 7.9771336767080596 #
straight-curve $-1 -76.741843928342547 30.920168825671073 0 0 0 -1 I I #
point $-1 -76.741843928342547 30.920168825671073 -7.9771336767080596 #
coedge $-1 $543 $461 $464 $540 reversed $340 $-1 #
straight-curve $-1 -85.598368524787077 30.920168825671073 5.4702517081438691 0 0 -1 I I #
edge $-1 $545 -30.920168825671073 $465 30.920168825671073 $538 $573 forward 7 unknown #
point $-1 -85.598368524787077 30.920168825671073 3.4633697395796768 #
point $-1 -85.598368524787077 30.920168825671073 7.4771336767080614 #
coedge $-1 $474 $538 $471 $544 reversed $340 $-1 #
edge $-1 $476 -2.0068819685641923 $545 2.0068819685641923 $543 $574 forward 7 unknown #
vertex $-1 $540 $575 #
straight-curve $-1 -81.170106226564812 -30.920168825671073 3.4633697395796768 -1 0 0 I I #
straight-curve $-1 -85.598368524787077 0 7.4771336767080614 0 -1 0 I I #
point $-1 -85.598368524787077 -30.920168825671073 7.4771336767080614 #
vertex $-1 $482 $576 #
straight-curve $-1 85.598368524787062 0 3.4633697395796768 0 -1 0 I I #
edge $-1 $485 -2.0068819685641923 $549 2.0068819685641923 $483 $577 forward 7 unknown #
point $-1 85.598368524787062 -30.920168825671073 7.4771336767080614 #
point $-1 85.598368524787062 30.920168825671073 7.4771336767080614 #
straight-curve $-1 85.598368524787062 -30.920168825671073 5.4702517081438691 0 0 -1 I I #
point $-1 85.598368524787062 -30.920168825671073 3.4633697395796768 #
straight-curve $-1 81.170106226564798 30.920168825671073 3.4633697395796768 1 0 0 I I #
straight-curve $-1 30.43224293278805 30.92016882567107 67.343695677960525 0 0 -1 I I #
point $-1 30.43224293278805 30.920168825671073 7.9771336767080596 #
straight-curve $-1 6.2991681697707236 30.920168825671073 0.90984926064272997 -1 0 0 I I #
point $-1 30.43224293278805 30.92016882567107 0.90984926064272997 #
point $-1 1.8979923835934898 25.403016184337616 2.3757438645134248 #
point $-1 12.598336339541447 25.403016184337616 2.3757438645134248 #
point $-1 23.298680295489405 25.403016184337616 2.3757438645134248 #
straight-curve $-1 -5.2355702537051556 -30.92016882567107 41.121905127484162 0 0 -1 I I #
point $-1 -5.2355702537051556 -30.920168825671073 7.9771336767080596 #
straight-curve $-1 6.2991681697707236 -30.920168825671073 0.90984926064275728 1 0 0 I I #
point $-1 -5.2355702537051556 -30.920168825671073 0.90984926064276128 #
point $-1 1.8979923835934898 -25.403016184337627 2.3757438645134177 #
point $-1 12.598336339541447 -25.403016184337627 2.3757438645134177 #
point $-1 23.298680295489405 -25.403016184337627 2.3757438645134177 #
point $-1 -76.741843928342547 -30.920168825671073 -7.9771336767080596 #
straight-curve $-1 -76.741843928342547 0 -7.9771336767080596 0 1 0 I I #
straight-curve $-1 -85.598368524787077 0 3.4633697395796768 0 1 0 I I #
straight-curve $-1 -85.598368524787077 -30.920168825671073 5.4702517081438691 0 0 -1 I I #
point $-1 -85.598368524787077 -30.920168825671073 3.4633697395796768 #
point $-1 85.598368524787062 30.920168825671073 3.4633697395796768 #
straight-curve $-1 85.598368524787062 30.920168825671073 5.4702517081438691 0 0 -1 I I #
End-of-ACIS-data 