500 0 9 0           
7 Unknown 11 ACIS 5.0 NT 24 Thu Mar 25 18:08:53 1999 
-1 9.9999999999999995e-007 1e-010 
body $-1 $9 $-1 $10 #
body $-1 $11 $-1 $12 #
body $-1 $13 $-1 $14 #
body $-1 $15 $-1 $16 #
body $-1 $17 $-1 $18 #
body $-1 $19 $-1 $20 #
body $-1 $21 $-1 $22 #
body $-1 $23 $-1 $24 #
body $-1 $25 $-1 $26 #
lump $-1 $-1 $27 $0 #
transform $-1 1 0 0 0 1 0 0 0 1 63.819086275826287 28.323505305610784 8.2643574900483454 1 rotate no_reflect no_shear #
lump $-1 $-1 $28 $1 #
transform $-1 1 0 0 0 1 0 0 0 1 63.819086275826287 28.323505305610784 8.2643574900483454 1 rotate no_reflect no_shear #
lump $-1 $-1 $29 $2 #
transform $-1 1 0 0 0 1 0 0 0 1 63.819086275826287 28.323505305610784 8.2643574900483454 1 rotate no_reflect no_shear #
lump $-1 $-1 $30 $3 #
transform $-1 1 0 0 0 1 0 0 0 1 63.819086275826287 28.323505305610784 8.2643574900483454 1 rotate no_reflect no_shear #
lump $-1 $-1 $31 $4 #
transform $-1 1 0 0 0 1 0 0 0 1 63.819086275826287 28.323505305610784 8.2643574900483454 1 rotate no_reflect no_shear #
lump $-1 $-1 $32 $5 #
transform $-1 1 0 0 0 1 0 0 0 1 63.819086275826287 28.323505305610784 8.2643574900483454 1 rotate no_reflect no_shear #
lump $-1 $-1 $33 $6 #
transform $-1 1 0 0 0 1 0 0 0 1 63.819086275826287 28.323505305610784 8.2643574900483454 1 rotate no_reflect no_shear #
lump $-1 $-1 $34 $7 #
transform $-1 1 0 0 0 1 0 0 0 1 63.819086275826287 28.323505305610784 8.2643574900483454 1 rotate no_reflect no_shear #
lump $-1 $-1 $35 $8 #
transform $-1 1 0 0 0 1 0 0 0 1 63.819086275826287 28.323505305610784 8.2643574900483454 1 rotate no_reflect no_shear #
shell $-1 $-1 $-1 $36 $-1 $9 #
shell $-1 $-1 $-1 $37 $-1 $11 #
shell $-1 $-1 $-1 $38 $-1 $13 #
shell $-1 $-1 $-1 $39 $-1 $15 #
shell $-1 $-1 $-1 $40 $-1 $17 #
shell $-1 $-1 $-1 $41 $-1 $19 #
shell $-1 $-1 $-1 $42 $-1 $21 #
shell $-1 $-1 $-1 $43 $-1 $23 #
shell $-1 $-1 $-1 $44 $-1 $25 #
face $-1 $45 $46 $27 $-1 $47 forward single #
face $-1 $48 $49 $28 $-1 $50 forward single #
face $-1 $51 $52 $29 $-1 $53 reversed single #
face $-1 $54 $55 $30 $-1 $56 forward single #
face $-1 $57 $58 $31 $-1 $59 forward single #
face $-1 $60 $61 $32 $-1 $62 reversed single #
face $-1 $63 $64 $33 $-1 $65 forward single #
face $-1 $66 $67 $34 $-1 $68 forward single #
face $-1 $69 $70 $35 $-1 $71 forward single #
face $-1 $72 $73 $27 $-1 $74 reversed single #
loop $-1 $-1 $75 $36 #
plane-surface $-1 0 0 8.2643574900483454 0 0 1 1 0 0 forward_v I I I I #
face $-1 $76 $77 $28 $-1 $78 forward single #
loop $-1 $-1 $79 $37 #
plane-surface $-1 -63.819086275826287 0 0 1 0 0 0 0 -1 forward_v I I I I #
face $-1 $80 $81 $29 $-1 $82 reversed single #
loop $-1 $-1 $83 $38 #
plane-surface $-1 31.021327336175624 69.309640663889553 137.63567895799122 1 0 0 0 -0.6560590369687036 -0.75470957328743171 forward_v I I I I #
face $-1 $84 $85 $30 $-1 $86 forward single #
loop $-1 $87 $88 $39 #
cone-surface $-1 40.392115604647238 24.474028473189914 4.5024944323224458 0 -0.6560590369687036 -0.75470957328743171 1.5 0 0 1 I I 0 1 1.5 forward I I I I #
face $-1 $89 $90 $31 $-1 $91 forward single #
loop $-1 $92 $93 $40 #
cone-surface $-1 54.448298007354659 24.474028473189914 4.5024944323224458 0 -0.6560590369687036 -0.75470957328743171 1.5 0 0 1 I I 0 1 1.5 forward I I I I #
face $-1 $94 $95 $32 $-1 $96 reversed single #
loop $-1 $-1 $97 $41 #
plane-surface $-1 -10.039449921301063 -130.2598833925928 79.652633352063916 -1 0 0 0 -0.79863551827123203 0.60181501223851219 forward_v I I I I #
face $-1 $98 $99 $33 $-1 $100 forward single #
loop $-1 $101 $102 $42 #
cone-surface $-1 -30.907868476813491 -24.992014561697399 4.5813959004584728 0 0.79863551827123203 -0.60181501223851219 1 0 0 1 I I 0 1 1 forward I I I I #
face $-1 $103 $104 $34 $-1 $105 forward single #
loop $-1 $106 $107 $43 #
cone-surface $-1 -23.082211518496329 -24.992014561697399 4.5813959004584728 0 0.79863551827123203 -0.60181501223851219 1 0 0 1 I I 0 1 1 forward I I I I #
face $-1 $108 $109 $35 $-1 $110 forward single #
loop $-1 $111 $112 $44 #
cone-surface $-1 -15.256554560179168 -24.992014561697399 4.5813959004584728 0 0.79863551827123203 -0.60181501223851219 1 0 0 1 I I 0 1 1 forward I I I I #
face $-1 $113 $114 $27 $-1 $115 reversed single #
loop $-1 $-1 $116 $45 #
plane-surface $-1 0 0 -8.2643574900483454 0 0 1 1 0 0 forward_v I I I I #
coedge $-1 $117 $118 $119 $120 forward $46 $-1 #
face $-1 $121 $122 $28 $-1 $123 reversed single #
loop $-1 $-1 $124 $48 #
plane-surface $-1 0 0 8.2643574900483454 0 0 1 1 0 0 forward_v I I I I #
coedge $-1 $125 $126 $127 $128 forward $49 $-1 #
face $-1 $129 $130 $29 $-1 $131 forward single #
loop $-1 $-1 $132 $51 #
plane-surface $-1 47.420206806000955 -14.428535900792852 41.305928216345919 0 0.6560590369687036 0.75470957328743171 1 0 0 forward_v I I I I #
coedge $-1 $133 $134 $135 $136 reversed $52 $-1 #
face $-1 $-1 $137 $30 $-1 $138 forward single #
loop $-1 $139 $140 $54 #
cone-surface $-1 40.392115604647238 22.503538827759133 2.2357054458591588 0 -0.6560590369687036 -0.75470957328743171 0.75 0 0 1 I I -0.70710678118654757 0.70710678118654757 0.75 forward I I I I #
loop $-1 $-1 $141 $39 #
coedge $-1 $88 $88 $142 $143 reversed $55 $-1 #
face $-1 $-1 $144 $31 $-1 $145 forward single #
loop $-1 $146 $147 $57 #
cone-surface $-1 54.448298007354659 22.503538827759133 2.2357054458591588 0 -0.6560590369687036 -0.75470957328743171 0.75 0 0 1 I I -0.70710678118654757 0.70710678118654757 0.75 forward I I I I #
loop $-1 $-1 $148 $40 #
coedge $-1 $93 $93 $149 $150 reversed $58 $-1 #
face $-1 $151 $152 $32 $-1 $153 reversed single #
loop $-1 $-1 $154 $60 #
plane-surface $-1 -23.082211518496329 -28.323505305610809 2.8380649757897913 0 -0.79863551827123203 0.60181501223851219 1 0 0 forward_v I I I I #
coedge $-1 $155 $156 $157 $158 reversed $61 $-1 #
face $-1 $-1 $159 $33 $-1 $160 forward single #
loop $-1 $161 $162 $63 #
cone-surface $-1 -30.907868476813491 -23.305708351100403 3.3106730618786226 0 0.79863551827123203 -0.60181501223851219 0.5 0 0 1 I I -0.70710678118654746 0.70710678118654746 0.5 forward I I I I #
loop $-1 $-1 $163 $42 #
coedge $-1 $102 $102 $164 $165 reversed $64 $-1 #
face $-1 $-1 $166 $34 $-1 $167 forward single #
loop $-1 $168 $169 $66 #
cone-surface $-1 -23.082211518496329 -23.305708351100403 3.3106730618786226 0 0.79863551827123203 -0.60181501223851219 0.5 0 0 1 I I -0.70710678118654746 0.70710678118654746 0.5 forward I I I I #
loop $-1 $-1 $170 $43 #
coedge $-1 $107 $107 $171 $172 reversed $67 $-1 #
face $-1 $-1 $173 $35 $-1 $174 forward single #
loop $-1 $175 $176 $69 #
cone-surface $-1 -15.256554560179168 -23.305708351100403 3.3106730618786226 0 0.79863551827123203 -0.60181501223851219 0.5 0 0 1 I I -0.70710678118654746 0.70710678118654746 0.5 forward I I I I #
loop $-1 $-1 $177 $44 #
coedge $-1 $112 $112 $178 $179 reversed $70 $-1 #
face $-1 $180 $181 $27 $-1 $182 reversed single #
loop $-1 $-1 $183 $72 #
plane-surface $-1 0 -28.323505305610784 0 0 1 0 0 0 1 forward_v I I I I #
coedge $-1 $184 $185 $186 $187 forward $73 $-1 #
coedge $-1 $188 $75 $189 $190 forward $46 $-1 #
coedge $-1 $75 $188 $191 $192 forward $46 $-1 #
coedge $-1 $193 $194 $75 $120 reversed $195 $-1 #
edge $-1 $196 -28.323505305610784 $197 28.323505305610784 $119 $198 forward 7 unknown #
face $-1 $199 $200 $28 $-1 $201 reversed single #
loop $-1 $-1 $202 $76 #
plane-surface $-1 -71.481354035345646 -26.303584048536589 0 1 0 0 0 0 -1 forward_v I I I I #
coedge $-1 $203 $204 $125 $205 forward $77 $-1 #
coedge $-1 $206 $79 $124 $205 reversed $49 $-1 #
coedge $-1 $79 $206 $207 $208 reversed $49 $-1 #
coedge $-1 $209 $210 $79 $128 reversed $200 $-1 #
edge $-1 $211 -8.2643574900483454 $212 8.2643574900483454 $127 $213 forward 7 unknown #
face $-1 $214 $215 $29 $-1 $216 reversed single #
loop $-1 $-1 $135 $80 #
plane-surface $-1 0 0 8.2643574900483454 0 0 1 1 0 0 forward_v I I I I #
coedge $-1 $217 $218 $219 $220 reversed $81 $-1 #
coedge $-1 $134 $83 $221 $222 reversed $52 $-1 #
coedge $-1 $83 $133 $217 $223 reversed $52 $-1 #
coedge $-1 $219 $224 $83 $136 forward $130 $-1 #
edge $-1 $225 6.3313150263339928 $226 11.073377955767242 $135 $227 forward 7 unknown #
loop $-1 $-1 $142 $84 #
plane-surface $-1 47.420206806000955 -14.428535900792852 41.305928216345919 0 0.6560590369687036 0.75470957328743171 1 0 0 forward_v I I I I #
loop $-1 $-1 $228 $54 #
coedge $-1 $140 $140 $141 $229 reversed $85 $-1 #
coedge $-1 $141 $141 $140 $229 forward $87 $-1 #
coedge $-1 $142 $142 $88 $143 forward $137 $-1 #
edge $-1 $230 -1.5481357925619894e-016 $230 6.2831853071796004 $142 $231 forward 7 unknown #
loop $-1 $-1 $149 $89 #
plane-surface $-1 47.420206806000955 -14.428535900792852 41.305928216345919 0 0.6560590369687036 0.75470957328743171 1 0 0 forward_v I I I I #
loop $-1 $-1 $232 $57 #
coedge $-1 $147 $147 $148 $233 reversed $90 $-1 #
coedge $-1 $148 $148 $147 $233 forward $92 $-1 #
coedge $-1 $149 $149 $93 $150 forward $144 $-1 #
edge $-1 $234 -1.5481357925619894e-016 $234 6.2831853071796004 $149 $235 forward 7 unknown #
face $-1 $236 $237 $32 $-1 $238 reversed single #
loop $-1 $-1 $239 $94 #
plane-surface $-1 -36.124973115691596 -130.2598833925928 79.652633352063916 1 0 0 0 0.79863551827123203 -0.60181501223851219 forward_v I I I I #
coedge $-1 $240 $241 $242 $243 reversed $95 $-1 #
coedge $-1 $156 $97 $244 $245 reversed $61 $-1 #
coedge $-1 $97 $155 $240 $246 reversed $61 $-1 #
coedge $-1 $242 $247 $97 $158 forward $248 $-1 #
edge $-1 $249 36.806436390685619 $250 40.895440975589601 $157 $251 forward 7 unknown #
loop $-1 $-1 $164 $98 #
plane-surface $-1 -23.082211518496329 -28.323505305610809 2.8380649757897913 0 -0.79863551827123203 0.60181501223851219 1 0 0 forward_v I I I I #
loop $-1 $-1 $252 $63 #
coedge $-1 $162 $162 $163 $253 reversed $99 $-1 #
coedge $-1 $163 $163 $162 $253 forward $101 $-1 #
coedge $-1 $164 $164 $102 $165 forward $159 $-1 #
edge $-1 $254 2.1884960685055183e-015 $254 6.2831853071796022 $164 $255 forward 7 unknown #
loop $-1 $-1 $171 $103 #
plane-surface $-1 -23.082211518496329 -28.323505305610809 2.8380649757897913 0 -0.79863551827123203 0.60181501223851219 1 0 0 forward_v I I I I #
loop $-1 $-1 $256 $66 #
coedge $-1 $169 $169 $170 $257 reversed $104 $-1 #
coedge $-1 $170 $170 $169 $257 forward $106 $-1 #
coedge $-1 $171 $171 $107 $172 forward $166 $-1 #
edge $-1 $258 2.1884960685055183e-015 $258 6.2831853071796022 $171 $259 forward 7 unknown #
loop $-1 $-1 $178 $108 #
plane-surface $-1 -23.082211518496329 -28.323505305610809 2.8380649757897913 0 -0.79863551827123203 0.60181501223851219 1 0 0 forward_v I I I I #
loop $-1 $-1 $260 $69 #
coedge $-1 $176 $176 $177 $261 reversed $109 $-1 #
coedge $-1 $177 $177 $176 $261 forward $111 $-1 #
coedge $-1 $178 $178 $112 $179 forward $173 $-1 #
edge $-1 $262 2.1884960685055183e-015 $262 6.2831853071796022 $178 $263 forward 7 unknown #
face $-1 $264 $265 $27 $-1 $266 reversed single #
loop $-1 $-1 $267 $113 #
plane-surface $-1 -63.819086275826287 0 0 1 0 0 0 0 -1 forward_v I I I I #
coedge $-1 $268 $191 $269 $270 forward $114 $-1 #
coedge $-1 $271 $116 $268 $272 forward $73 $-1 #
coedge $-1 $116 $271 $273 $274 forward $73 $-1 #
coedge $-1 $194 $193 $116 $187 reversed $195 $-1 #
edge $-1 $275 -28.323505305610784 $276 28.323505305610784 $186 $277 forward 7 unknown #
coedge $-1 $118 $117 $278 $279 forward $46 $-1 #
coedge $-1 $280 $281 $117 $190 reversed $265 $-1 #
edge $-1 $197 -63.819086275826287 $282 63.819086275826287 $189 $283 forward 7 unknown #
coedge $-1 $183 $284 $118 $192 reversed $114 $-1 #
edge $-1 $285 -63.819086275826287 $196 63.819086275826287 $191 $286 forward 7 unknown #
coedge $-1 $186 $119 $284 $287 forward $195 $-1 #
coedge $-1 $119 $186 $280 $288 reversed $195 $-1 #
loop $-1 $-1 $193 $264 #
vertex $-1 $120 $289 #
vertex $-1 $120 $290 #
straight-curve $-1 63.819086275826287 0 8.2643574900483454 0 1 0 I I #
face $-1 $291 $292 $28 $-1 $293 reversed single #
loop $-1 $-1 $127 $121 #
plane-surface $-1 -67.65022015558597 -24.283662791462394 0 0 -1 0 0 0 -1 forward_v I I I I #
coedge $-1 $294 $295 $296 $297 forward $122 $-1 #
coedge $-1 $298 $124 $210 $299 forward $77 $-1 #
coedge $-1 $124 $298 $300 $301 forward $77 $-1 #
edge $-1 $302 -28.323505305610784 $212 -24.283662791462394 $124 $303 forward 7 unknown #
coedge $-1 $126 $125 $304 $305 reversed $49 $-1 #
coedge $-1 $306 $307 $126 $208 forward $292 $-1 #
edge $-1 $211 24.283662791462394 $308 28.323505305610784 $207 $309 forward 7 unknown #
coedge $-1 $296 $127 $307 $310 reversed $200 $-1 #
coedge $-1 $127 $296 $203 $299 reversed $200 $-1 #
vertex $-1 $208 $311 #
vertex $-1 $299 $312 #
straight-curve $-1 -63.819086275826287 -24.283662791462394 0 0 0 1 I I #
face $-1 $-1 $313 $29 $-1 $314 reversed single #
loop $-1 $-1 $315 $129 #
plane-surface $-1 63.819086275826287 0 0 -1 0 0 0 0 1 forward_v I I I I #
coedge $-1 $316 $132 $134 $223 forward $81 $-1 #
coedge $-1 $132 $316 $315 $317 reversed $81 $-1 #
coedge $-1 $318 $135 $132 $220 forward $130 $-1 #
edge $-1 $226 7.3112239331751461 $319 40.108982872825806 $219 $320 forward 7 unknown #
coedge $-1 $321 $322 $133 $222 forward $313 $-1 #
edge $-1 $323 -64.675694491403647 $225 -60.553481988947262 $221 $324 forward 7 unknown #
edge $-1 $226 50.36371555670496 $323 56.647010611221553 $134 $325 forward 7 unknown #
coedge $-1 $135 $318 $321 $326 forward $130 $-1 #
vertex $-1 $222 $327 #
vertex $-1 $136 $328 #
straight-curve $-1 31.021327336175624 34.654820331944777 8.2643574900483401 0 -1 0 I I #
coedge $-1 $228 $228 $-1 $329 reversed $139 $-1 #
edge $-1 $330 0 $330 6.2831853071796004 $140 $331 forward 7 unknown #
vertex $-1 $143 $332 #
ellipse-curve $-1 40.392115604647238 25.952473840894164 6.2032512388201537 0 0.6560590369687036 0.75470957328743171 1.5 0 0 1 I I #
coedge $-1 $232 $232 $-1 $333 reversed $146 $-1 #
edge $-1 $334 0 $334 6.2831853071796004 $147 $335 forward 7 unknown #
vertex $-1 $150 $336 #
ellipse-curve $-1 54.448298007354659 25.952473840894164 6.2032512388201537 0 0.6560590369687036 0.75470957328743171 1.5 0 0 1 I I #
face $-1 $-1 $248 $32 $-1 $337 forward single #
loop $-1 $-1 $338 $151 #
plane-surface $-1 0 -28.323505305610784 0 0 1 0 0 0 1 forward_v I I I I #
coedge $-1 $339 $340 $341 $342 reversed $152 $-1 #
coedge $-1 $343 $154 $156 $246 forward $95 $-1 #
coedge $-1 $154 $343 $339 $344 forward $95 $-1 #
coedge $-1 $341 $157 $154 $243 forward $248 $-1 #
edge $-1 $250 -1.5016558379471014 $345 24.583867356443431 $242 $346 forward 7 unknown #
coedge $-1 $347 $348 $155 $245 forward $237 $-1 #
edge $-1 $349 -36.988251700242131 $249 -31.561959185983611 $244 $350 forward 7 unknown #
edge $-1 $250 -6.7944542787235269 $349 -4.1211775786388506e-014 $156 $351 forward 7 unknown #
coedge $-1 $157 $341 $347 $352 forward $248 $-1 #
loop $-1 $-1 $341 $236 #
vertex $-1 $245 $353 #
vertex $-1 $158 $354 #
straight-curve $-1 -10.039449921301063 -65.129941696296399 8.2643574900483472 0 1 0 I I #
coedge $-1 $252 $252 $-1 $355 reversed $161 $-1 #
edge $-1 $356 0 $356 6.2831853071796004 $162 $357 forward 7 unknown #
vertex $-1 $165 $358 #
ellipse-curve $-1 -30.907868476813491 -26.279003013158796 5.551211232919079 0 -0.79863551827123203 0.60181501223851219 1 0 0 1 I I #
coedge $-1 $256 $256 $-1 $359 reversed $168 $-1 #
edge $-1 $360 0 $360 6.2831853071796004 $169 $361 forward 7 unknown #
vertex $-1 $172 $362 #
ellipse-curve $-1 -23.082211518496329 -26.279003013158796 5.551211232919079 0 -0.79863551827123203 0.60181501223851219 1 0 0 1 I I #
coedge $-1 $260 $260 $-1 $363 reversed $175 $-1 #
edge $-1 $364 0 $364 6.2831853071796004 $176 $365 forward 7 unknown #
vertex $-1 $179 $366 #
ellipse-curve $-1 -15.256554560179168 -26.279003013158796 5.551211232919079 0 -0.79863551827123203 0.60181501223851219 1 0 0 1 I I #
face $-1 $-1 $195 $27 $-1 $367 reversed single #
loop $-1 $-1 $280 $180 #
plane-surface $-1 0 28.323505305610784 0 0 -1 0 0 0 -1 forward_v I I I I #
coedge $-1 $368 $278 $281 $369 forward $181 $-1 #
coedge $-1 $284 $183 $184 $272 reversed $114 $-1 #
coedge $-1 $278 $368 $183 $270 reversed $181 $-1 #
edge $-1 $285 -8.2643574900483454 $370 8.2643574900483454 $269 $371 forward 7 unknown #
coedge $-1 $185 $184 $368 $372 forward $73 $-1 #
edge $-1 $276 -63.819086275826287 $370 63.819086275826287 $268 $373 forward 7 unknown #
coedge $-1 $281 $280 $185 $274 reversed $265 $-1 #
edge $-1 $374 -63.819086275826287 $275 63.819086275826287 $273 $375 forward 7 unknown #
vertex $-1 $187 $376 #
vertex $-1 $287 $377 #
straight-curve $-1 63.819086275826287 0 -8.2643574900483454 0 -1 0 I I #
coedge $-1 $267 $269 $188 $279 reversed $181 $-1 #
edge $-1 $282 -28.323505305610784 $285 28.323505305610784 $278 $378 forward 7 unknown #
coedge $-1 $273 $189 $194 $288 forward $265 $-1 #
coedge $-1 $189 $273 $267 $369 reversed $265 $-1 #
vertex $-1 $190 $379 #
straight-curve $-1 0 28.323505305610784 8.2643574900483454 -1 0 0 I I #
coedge $-1 $191 $268 $193 $287 reversed $114 $-1 #
vertex $-1 $279 $380 #
straight-curve $-1 0 -28.323505305610784 8.2643574900483454 1 0 0 I I #
edge $-1 $196 -8.2643574900483454 $276 8.2643574900483454 $193 $381 forward 7 unknown #
edge $-1 $197 -8.2643574900483454 $275 8.2643574900483454 $194 $382 forward 7 unknown #
point $-1 63.819086275826287 -28.323505305610784 8.2643574900483454 #
point $-1 63.819086275826287 28.323505305610784 8.2643574900483454 #
face $-1 $-1 $383 $28 $-1 $384 reversed single #
loop $-1 $-1 $207 $199 #
plane-surface $-1 0 0 -8.2643574900483454 0 0 1 1 0 0 forward_v I I I I #
coedge $-1 $385 $202 $386 $387 reversed $122 $-1 #
coedge $-1 $202 $385 $298 $388 reversed $122 $-1 #
coedge $-1 $210 $209 $202 $297 reversed $200 $-1 #
edge $-1 $389 -8.2643574900483454 $390 8.2643574900483454 $296 $391 forward 7 unknown #
coedge $-1 $204 $203 $295 $388 forward $77 $-1 #
edge $-1 $212 -3.8311338797596761 $389 3.8311338797596761 $210 $392 forward 7 unknown #
coedge $-1 $393 $304 $204 $301 reversed $383 $-1 #
edge $-1 $394 -71.481354035345646 $302 -63.819086275826287 $300 $395 forward 7 unknown #
vertex $-1 $305 $396 #
straight-curve $-1 -63.819086275826287 0 8.2643574900483454 0 1 0 I I #
coedge $-1 $300 $397 $206 $305 forward $383 $-1 #
edge $-1 $308 -8.2643574900483454 $302 8.2643574900483454 $304 $398 forward 7 unknown #
coedge $-1 $386 $207 $397 $399 forward $292 $-1 #
coedge $-1 $207 $386 $209 $310 forward $292 $-1 #
vertex $-1 $399 $400 #
straight-curve $-1 -63.819086275826287 0 -8.2643574900483454 0 -1 0 I I #
edge $-1 $390 -3.8311338797596761 $211 3.8311338797596761 $209 $401 forward 7 unknown #
point $-1 -63.819086275826294 -24.283662791462394 -8.2643574900483454 #
point $-1 -63.819086275826294 -24.283662791462394 8.2643574900483454 #
loop $-1 $-1 $221 $214 #
plane-surface $-1 0 28.323505305610784 0 0 -1 0 0 0 -1 forward_v I I I I #
coedge $-1 $402 $403 $218 $317 forward $215 $-1 #
coedge $-1 $218 $217 $322 $404 reversed $81 $-1 #
edge $-1 $319 31.369474726922931 $405 37.652769781439524 $315 $406 forward 7 unknown #
coedge $-1 $224 $219 $403 $407 forward $130 $-1 #
vertex $-1 $407 $408 #
straight-curve $-1 23.710103403000478 23.581442376177531 8.2643574900483507 1 0 0 I I #
coedge $-1 $409 $221 $224 $326 reversed $313 $-1 #
coedge $-1 $221 $409 $316 $404 forward $313 $-1 #
vertex $-1 $222 $410 #
straight-curve $-1 31.021327336175624 28.323505305610784 68.817839478995609 0 0 1 I I #
straight-curve $-1 31.021327336175624 -14.428535900792852 41.305928216345919 0 0.75470957328743171 -0.6560590369687036 I I #
edge $-1 $411 -63.819086275826287 $225 -31.021327336175624 $321 $412 forward 7 unknown #
point $-1 31.021327336175624 28.323505305610784 8.2643574900483454 #
point $-1 31.021327336175624 23.581442376177534 8.2643574900483472 #
edge $-1 $413 1 $413 0 $228 $-1 forward 7 unknown #
vertex $-1 $229 $414 #
ellipse-curve $-1 40.392115604647238 22.995583105485661 2.8017376258247326 0 0.6560590369687036 0.75470957328743171 1.5 0 0 1 I I #
point $-1 41.892115604647238 25.952473840894168 6.2032512388201582 #
edge $-1 $415 1 $415 0 $232 $-1 forward 7 unknown #
vertex $-1 $233 $416 #
ellipse-curve $-1 54.448298007354659 22.995583105485661 2.8017376258247326 0 0.6560590369687036 0.75470957328743171 1.5 0 0 1 I I #
point $-1 55.948298007354659 25.952473840894168 6.2032512388201582 #
plane-surface $-1 0 0 8.2643574900483454 0 0 1 1 0 0 forward_v I I I I #
coedge $-1 $348 $347 $340 $417 forward $237 $-1 #
coedge $-1 $340 $239 $241 $344 reversed $152 $-1 #
coedge $-1 $239 $339 $338 $417 reversed $152 $-1 #
coedge $-1 $247 $242 $239 $342 forward $248 $-1 #
edge $-1 $345 -40.895440975589601 $418 -36.806436390685619 $341 $419 forward 7 unknown #
coedge $-1 $241 $240 $348 $420 reversed $95 $-1 #
edge $-1 $421 4.1211775786388506e-014 $345 6.7944542787235269 $339 $422 forward 7 unknown #
vertex $-1 $243 $423 #
straight-curve $-1 -11.541105759248165 -24.234500720706798 8.2643574900483454 -1 0 0 I I #
coedge $-1 $338 $244 $247 $352 reversed $237 $-1 #
coedge $-1 $244 $338 $343 $420 forward $237 $-1 #
vertex $-1 $245 $424 #
straight-curve $-1 -10.039449921301063 -28.32350530561078 39.826316676031958 0 0 1 I I #
straight-curve $-1 -10.039449921301063 -28.323505305610809 2.8380649757897913 0 -0.60181501223851219 -0.79863551827123203 I I #
edge $-1 $418 -36.124973115691596 $249 -10.039449921301063 $347 $425 forward 7 unknown #
point $-1 -10.039449921301063 -28.323505305610784 8.2643574900483454 #
point $-1 -10.039449921301063 -24.234500720706798 8.2643574900483454 #
edge $-1 $426 1 $426 0 $252 $-1 forward 7 unknown #
vertex $-1 $253 $427 #
ellipse-curve $-1 -30.907868476813491 -23.70502611023602 3.611580567997879 0 -0.79863551827123203 0.60181501223851219 1 0 0 1 I I #
point $-1 -29.907868476813491 -26.279003013158775 5.5512112329190657 #
edge $-1 $428 1 $428 0 $256 $-1 forward 7 unknown #
vertex $-1 $257 $429 #
ellipse-curve $-1 -23.082211518496329 -23.70502611023602 3.611580567997879 0 -0.79863551827123203 0.60181501223851219 1 0 0 1 I I #
point $-1 -22.082211518496329 -26.279003013158775 5.5512112329190657 #
edge $-1 $430 1 $430 0 $260 $-1 forward 7 unknown #
vertex $-1 $261 $431 #
ellipse-curve $-1 -15.256554560179168 -23.70502611023602 3.611580567997879 0 -0.79863551827123203 0.60181501223851219 1 0 0 1 I I #
point $-1 -14.256554560179168 -26.279003013158775 5.5512112329190657 #
plane-surface $-1 63.819086275826287 0 0 -1 0 0 0 0 1 forward_v I I I I #
coedge $-1 $269 $267 $271 $372 reversed $181 $-1 #
edge $-1 $282 -8.2643574900483454 $374 8.2643574900483454 $281 $432 forward 7 unknown #
vertex $-1 $372 $433 #
straight-curve $-1 -63.819086275826287 -28.323505305610784 0 0 0 -1 I I #
edge $-1 $370 -28.323505305610784 $374 28.323505305610784 $368 $434 forward 7 unknown #
straight-curve $-1 0 -28.323505305610784 -8.2643574900483454 -1 0 0 I I #
vertex $-1 $274 $435 #
straight-curve $-1 0 28.323505305610784 -8.2643574900483454 1 0 0 I I #
point $-1 63.819086275826287 28.323505305610784 -8.2643574900483454 #
point $-1 63.819086275826287 -28.323505305610784 -8.2643574900483454 #
straight-curve $-1 -63.819086275826287 0 8.2643574900483454 0 -1 0 I I #
point $-1 -63.819086275826287 28.323505305610784 8.2643574900483454 #
point $-1 -63.819086275826287 -28.323505305610784 8.2643574900483454 #
straight-curve $-1 63.819086275826287 -28.323505305610784 0 0 0 -1 I I #
straight-curve $-1 63.819086275826287 28.323505305610784 0 0 0 -1 I I #
loop $-1 $-1 $304 $291 #
plane-surface $-1 0 -28.323505305610784 0 0 1 0 0 0 1 forward_v I I I I #
coedge $-1 $295 $294 $393 $436 reversed $122 $-1 #
coedge $-1 $307 $306 $294 $387 forward $292 $-1 #
edge $-1 $437 -2.0199212570741949 $390 2.0199212570741949 $294 $438 forward 7 unknown #
edge $-1 $389 -2.0199212570741949 $394 2.0199212570741949 $295 $439 forward 7 unknown #
vertex $-1 $299 $440 #
vertex $-1 $310 $441 #
straight-curve $-1 -71.481354035345646 -24.283662791462394 0 0 0 -1 I I #
straight-curve $-1 -67.65022015558597 -24.283662791462394 8.2643574900483454 -1 0 0 I I #
coedge $-1 $397 $300 $385 $436 forward $383 $-1 #
vertex $-1 $388 $442 #
straight-curve $-1 0 -28.323505305610784 8.2643574900483454 1 0 0 I I #
point $-1 -63.819086275826287 -28.323505305610784 8.2643574900483454 #
coedge $-1 $304 $393 $306 $399 reversed $383 $-1 #
straight-curve $-1 -63.819086275826287 -28.323505305610784 0 0 0 1 I I #
edge $-1 $308 -3.8311338797596832 $437 3.8311338797596761 $397 $443 forward 7 unknown #
point $-1 -63.819086275826287 -28.323505305610784 -8.2643574900483454 #
straight-curve $-1 -67.65022015558597 -24.283662791462394 -8.2643574900483454 1 0 0 I I #
coedge $-1 $403 $315 $409 $444 reversed $215 $-1 #
coedge $-1 $315 $402 $318 $407 reversed $215 $-1 #
edge $-1 $405 -40.108982872825806 $323 -7.3112239331751461 $322 $445 forward 7 unknown #
vertex $-1 $317 $446 #
straight-curve $-1 63.819086275826287 -0.0934005092293404 28.844584869607491 0 0.75470957328743171 -0.6560590369687036 I I #
edge $-1 $319 23.581442376177534 $411 28.323505305610784 $403 $447 forward 7 unknown #
point $-1 63.819086275826287 23.581442376177534 8.2643574900483472 #
coedge $-1 $322 $321 $402 $444 forward $313 $-1 #
point $-1 31.021327336175624 28.32350530561078 4.1421449875919691 #
vertex $-1 $407 $448 #
straight-curve $-1 0 28.323505305610784 8.2643574900483454 -1 0 0 I I #
vertex $-1 $329 $449 #
point $-1 41.892115604647238 22.995583105485661 2.8017376258247326 #
vertex $-1 $333 $450 #
point $-1 55.948298007354659 22.995583105485661 2.8017376258247326 #
edge $-1 $418 31.561959185983611 $421 36.988251700242131 $338 $451 forward 7 unknown #
vertex $-1 $352 $452 #
straight-curve $-1 -36.124973115691596 -65.129941696296399 8.2643574900483472 0 -1 0 I I #
edge $-1 $421 -24.583867356443431 $349 1.5016558379471014 $348 $453 forward 7 unknown #
vertex $-1 $420 $454 #
straight-curve $-1 -36.124973115691596 -28.323505305610809 2.8380649757897913 0 0.60181501223851219 0.79863551827123203 I I #
point $-1 -36.124973115691596 -24.234500720706798 8.2643574900483454 #
point $-1 -10.039449921301063 -28.323505305610784 2.8380649757898242 #
straight-curve $-1 0 -28.323505305610784 8.2643574900483454 1 0 0 I I #
vertex $-1 $355 $455 #
point $-1 -29.907868476813491 -23.70502611023602 3.611580567997879 #
vertex $-1 $359 $456 #
point $-1 -22.082211518496329 -23.70502611023602 3.611580567997879 #
vertex $-1 $363 $457 #
point $-1 -14.256554560179168 -23.70502611023602 3.611580567997879 #
straight-curve $-1 -63.819086275826287 28.323505305610784 0 0 0 -1 I I #
point $-1 -63.819086275826287 -28.323505305610784 -8.2643574900483454 #
straight-curve $-1 -63.819086275826287 0 -8.2643574900483454 0 1 0 I I #
point $-1 -63.819086275826287 28.323505305610784 -8.2643574900483454 #
edge $-1 $394 -8.2643574900483454 $437 8.2643574900483454 $385 $458 forward 7 unknown #
vertex $-1 $387 $459 #
straight-curve $-1 -71.481354035345646 -26.303584048536589 -8.2643574900483454 0 1 0 I I #
straight-curve $-1 -71.481354035345646 -26.303584048536589 8.2643574900483454 0 -1 0 I I #
point $-1 -71.481354035345646 -24.283662791462394 8.2643574900483454 #
point $-1 -71.481354035345646 -24.283662791462394 -8.2643574900483454 #
point $-1 -71.481354035345646 -28.323505305610784 8.2643574900483454 #
straight-curve $-1 -67.65022015558597 -28.323505305610784 -8.2643574900483454 -1 0 0 I I #
edge $-1 $411 -8.2643574900483454 $405 -4.1421449875919691 $402 $460 forward 7 unknown #
straight-curve $-1 23.710103403000478 28.323505305610784 4.1421449875919727 -1 0 0 I I #
point $-1 63.819086275826287 28.32350530561078 4.1421449875919691 #
straight-curve $-1 63.819086275826287 0 8.2643574900483454 0 1 0 I I #
point $-1 63.819086275826287 28.323505305610784 8.2643574900483454 #
point $-1 40.392115604647238 22.011494550032605 1.6696732658935849 #
point $-1 54.448298007354659 22.011494550032605 1.6696732658935849 #
straight-curve $-1 -36.124973115691596 -28.32350530561078 39.826316676031958 0 0 -1 I I #
point $-1 -36.124973115691596 -28.323505305610784 8.2643574900483454 #
straight-curve $-1 -11.541105759248165 -28.323505305610784 2.8380649757898206 1 0 0 I I #
point $-1 -36.124973115691596 -28.323505305610784 2.8380649757898242 #
point $-1 -30.907868476813491 -22.906390591964787 3.0097655557593663 #
point $-1 -23.082211518496329 -22.906390591964787 3.0097655557593663 #
point $-1 -15.256554560179168 -22.906390591964787 3.0097655557593663 #
straight-curve $-1 -71.481354035345646 -28.323505305610784 0 0 0 -1 I I #
point $-1 -71.481354035345646 -28.323505305610784 -8.2643574900483454 #
straight-curve $-1 63.819086275826287 28.323505305610784 0 0 0 -1 I I #
End-of-ACIS-data 