500 0 5 0           
7 Unknown 11 ACIS 5.0 NT 24 Fri Mar 26 17:58:29 1999 
-1 9.9999999999999995e-007 1e-010 
body $-1 $5 $-1 $6 #
body $-1 $7 $-1 $8 #
body $-1 $9 $-1 $10 #
body $-1 $11 $-1 $12 #
body $-1 $13 $-1 $14 #
lump $-1 $-1 $15 $0 #
transform $-1 1 0 0 0 1 0 0 0 1 76.655171361430718 53.643179902615884 22.937219305385621 1 rotate no_reflect no_shear #
lump $-1 $-1 $16 $1 #
transform $-1 1 0 0 0 1 0 0 0 1 76.655171361430718 53.643179902615884 22.937219305385621 1 rotate no_reflect no_shear #
lump $-1 $-1 $17 $2 #
transform $-1 1 0 0 0 1 0 0 0 1 76.655171361430718 53.643179902615884 22.937219305385621 1 rotate no_reflect no_shear #
lump $-1 $-1 $18 $3 #
transform $-1 1 0 0 0 1 0 0 0 1 76.655171361430718 53.643179902615884 22.937219305385621 1 rotate no_reflect no_shear #
lump $-1 $-1 $19 $4 #
transform $-1 1 0 0 0 1 0 0 0 1 76.655171361430718 53.643179902615884 22.937219305385621 1 rotate no_reflect no_shear #
shell $-1 $-1 $-1 $20 $-1 $5 #
shell $-1 $-1 $-1 $21 $-1 $7 #
shell $-1 $-1 $-1 $22 $-1 $9 #
shell $-1 $-1 $-1 $23 $-1 $11 #
shell $-1 $-1 $-1 $24 $-1 $13 #
face $-1 $25 $26 $15 $-1 $27 forward single #
face $-1 $28 $29 $16 $-1 $30 reversed single #
face $-1 $31 $32 $17 $-1 $33 forward single #
face $-1 $34 $35 $18 $-1 $36 reversed single #
face $-1 $37 $38 $19 $-1 $39 reversed single #
face $-1 $40 $41 $15 $-1 $42 reversed single #
loop $-1 $-1 $43 $20 #
plane-surface $-1 0 0 22.937219305385621 0 0 1 1 0 0 forward_v I I I I #
face $-1 $44 $45 $16 $-1 $46 reversed single #
loop $-1 $-1 $47 $21 #
plane-surface $-1 0 -64.02769846384885 14.239878231082383 0 0 1 1 0 0 forward_v I I I I #
face $-1 $48 $49 $17 $-1 $50 forward single #
loop $-1 $-1 $51 $22 #
plane-surface $-1 -6.8882858068120214 114.61251497632864 177.5081564692 1 0 0 0 -0.80901700255871778 -0.5877852410284794 forward_v I I I I #
face $-1 $52 $53 $18 $-1 $54 reversed single #
loop $-1 $55 $56 $23 #
cone-surface $-1 3.8666784674206554 42.753559945833317 9.7518989432517547 0 -0.80901700255871778 -0.5877852410284794 2 0 0 1 I I 0 1 2 forward I I I I #
face $-1 $57 $58 $19 $-1 $59 reversed single #
loop $-1 $60 $61 $24 #
cone-surface $-1 19.999124878769663 42.753559945833317 9.7518989432517547 0 -0.80901700255871778 -0.5877852410284794 2 0 0 1 I I 0 1 2 forward I I I I #
face $-1 $62 $63 $15 $-1 $64 reversed single #
loop $-1 $-1 $65 $25 #
plane-surface $-1 0 0 -22.937219305385621 0 0 1 1 0 0 forward_v I I I I #
coedge $-1 $66 $67 $68 $69 forward $26 $-1 #
face $-1 $70 $71 $16 $-1 $72 forward single #
loop $-1 $-1 $73 $28 #
plane-surface $-1 0 -74.412217025081816 18.588548768234002 0 1 0 0 0 1 forward_v I I I I #
coedge $-1 $74 $75 $76 $77 forward $29 $-1 #
face $-1 $78 $79 $17 $-1 $80 forward single #
loop $-1 $-1 $81 $31 #
plane-surface $-1 11.932901673095159 -9.4181589545704441 87.394599719684109 0 0.80901700255871778 0.5877852410284794 1 0 0 forward_v I I I I #
coedge $-1 $82 $83 $84 $85 reversed $32 $-1 #
face $-1 $86 $87 $18 $-1 $88 forward single #
loop $-1 $89 $90 $34 #
cone-surface $-1 3.8666784674206554 39.170079043267634 7.1483477454725097 0 -0.80901700255871778 -0.5877852410284794 1 0 0 1 I I -0.70710678118654746 0.70710678118654746 1 forward I I I I #
loop $-1 $-1 $91 $23 #
coedge $-1 $56 $56 $92 $93 reversed $35 $-1 #
face $-1 $94 $95 $19 $-1 $96 reversed single #
loop $-1 $97 $98 $37 #
cone-surface $-1 19.999124878769663 39.170079043267634 7.1483477454725097 0 -0.80901700255871778 -0.5877852410284794 1 0 0 1 I I -0.70710678118654746 0.70710678118654746 1 forward I I I I #
loop $-1 $-1 $99 $24 #
coedge $-1 $61 $61 $100 $101 reversed $38 $-1 #
face $-1 $102 $103 $15 $-1 $104 reversed single #
loop $-1 $-1 $105 $40 #
plane-surface $-1 0 -53.643179902615884 0 0 1 0 0 0 1 forward_v I I I I #
coedge $-1 $106 $107 $108 $109 forward $41 $-1 #
coedge $-1 $110 $43 $111 $112 forward $26 $-1 #
coedge $-1 $43 $110 $113 $114 forward $26 $-1 #
coedge $-1 $115 $116 $43 $69 reversed $117 $-1 #
edge $-1 $118 -53.643179902615884 $119 53.643179902615884 $68 $120 forward 7 unknown #
face $-1 $121 $122 $16 $-1 $123 reversed single #
loop $-1 $-1 $124 $44 #
plane-surface $-1 0 0 22.937219305385621 0 0 1 1 0 0 forward_v I I I I #
coedge $-1 $125 $126 $127 $128 forward $45 $-1 #
coedge $-1 $129 $47 $125 $130 forward $29 $-1 #
coedge $-1 $47 $129 $131 $132 reversed $29 $-1 #
coedge $-1 $133 $134 $47 $77 reversed $135 $-1 #
edge $-1 $136 -10.384518561232966 $137 10.384518561232966 $76 $138 forward 7 unknown #
face $-1 $139 $140 $17 $-1 $141 forward single #
loop $-1 $-1 $142 $48 #
plane-surface $-1 30.75408915300234 114.61251497632864 177.5081564692 -1 0 0 0 0.80901700255871778 0.5877852410284794 forward_v I I I I #
coedge $-1 $143 $144 $145 $146 reversed $49 $-1 #
coedge $-1 $83 $51 $144 $147 forward $32 $-1 #
coedge $-1 $51 $82 $148 $149 reversed $32 $-1 #
coedge $-1 $150 $145 $51 $85 forward $140 $-1 #
edge $-1 $151 -19.893389699099657 $152 -3.6630775855484359 $84 $153 forward 7 unknown #
face $-1 $154 $155 $18 $-1 $156 forward single #
loop $-1 $-1 $157 $52 #
plane-surface $-1 -6.8882858068120214 114.61251497632864 177.5081564692 1 0 0 0 -0.80901700255871778 -0.5877852410284794 forward_v I I I I #
loop $-1 $-1 $158 $34 #
coedge $-1 $90 $90 $91 $159 forward $53 $-1 #
coedge $-1 $91 $91 $90 $159 reversed $55 $-1 #
coedge $-1 $92 $92 $56 $93 forward $155 $-1 #
edge $-1 $160 1.3484332506094829e-016 $160 6.2831853071796004 $92 $161 forward 7 unknown #
face $-1 $162 $163 $19 $-1 $164 reversed single #
loop $-1 $165 $166 $57 #
cone-surface $-1 3.8666784674206554 42.753559945833317 9.7518989432517547 0 -0.80901700255871778 -0.5877852410284794 2 0 0 1 I I 0 1 2 forward I I I I #
loop $-1 $-1 $167 $37 #
coedge $-1 $98 $98 $99 $168 forward $58 $-1 #
coedge $-1 $99 $99 $98 $168 reversed $60 $-1 #
coedge $-1 $100 $100 $61 $101 forward $169 $-1 #
edge $-1 $170 1.3484332506094829e-016 $170 6.2831853071796004 $100 $171 forward 7 unknown #
face $-1 $172 $173 $15 $-1 $174 reversed single #
loop $-1 $-1 $175 $62 #
plane-surface $-1 -76.655171361430718 0 0 1 0 0 0 0 -1 forward_v I I I I #
coedge $-1 $176 $113 $177 $178 forward $63 $-1 #
coedge $-1 $179 $65 $176 $180 forward $41 $-1 #
coedge $-1 $65 $179 $181 $182 forward $41 $-1 #
coedge $-1 $116 $115 $65 $109 reversed $117 $-1 #
edge $-1 $183 -53.643179902615884 $184 53.643179902615884 $108 $185 forward 7 unknown #
coedge $-1 $67 $66 $186 $187 forward $26 $-1 #
coedge $-1 $188 $189 $66 $112 reversed $173 $-1 #
edge $-1 $119 -76.655171361430718 $190 76.655171361430718 $111 $191 forward 7 unknown #
coedge $-1 $105 $192 $67 $114 reversed $63 $-1 #
edge $-1 $193 -76.655171361430718 $118 76.655171361430718 $113 $194 forward 7 unknown #
coedge $-1 $108 $68 $192 $195 forward $117 $-1 #
coedge $-1 $68 $108 $188 $196 reversed $117 $-1 #
loop $-1 $-1 $115 $172 #
vertex $-1 $69 $197 #
vertex $-1 $69 $198 #
straight-curve $-1 76.655171361430718 0 22.937219305385621 0 1 0 I I #
face $-1 $199 $200 $16 $-1 $201 reversed single #
loop $-1 $-1 $202 $70 #
plane-surface $-1 0 0 -22.937219305385621 0 0 1 1 0 0 forward_v I I I I #
coedge $-1 $203 $204 $205 $206 forward $71 $-1 #
coedge $-1 $207 $73 $74 $130 reversed $45 $-1 #
coedge $-1 $73 $207 $204 $208 reversed $45 $-1 #
coedge $-1 $209 $210 $73 $128 reversed $211 $-1 #
edge $-1 $212 -4.3486705371516194 $213 4.3486705371516194 $127 $214 forward 7 unknown #
coedge $-1 $75 $74 $210 $215 forward $29 $-1 #
edge $-1 $137 -76.655171361430718 $213 76.655171361430718 $125 $216 forward 7 unknown #
coedge $-1 $217 $218 $75 $132 forward $200 $-1 #
edge $-1 $136 -76.655171361430718 $219 76.655171361430718 $131 $220 forward 7 unknown #
coedge $-1 $221 $76 $218 $222 forward $135 $-1 #
coedge $-1 $76 $205 $207 $223 forward $135 $-1 #
loop $-1 $-1 $133 $224 #
vertex $-1 $222 $225 #
vertex $-1 $223 $226 #
straight-curve $-1 76.655171361430718 -64.02769846384885 14.239878231082383 0 -1 0 I I #
face $-1 $227 $228 $17 $-1 $229 reversed single #
loop $-1 $-1 $230 $78 #
plane-surface $-1 0 0 22.937219305385621 0 0 1 1 0 0 forward_v I I I I #
coedge $-1 $231 $232 $230 $233 reversed $79 $-1 #
coedge $-1 $234 $81 $232 $235 reversed $49 $-1 #
coedge $-1 $81 $234 $82 $147 reversed $49 $-1 #
coedge $-1 $84 $230 $81 $146 forward $140 $-1 #
edge $-1 $236 -24.78763831645476 $151 12.854736643359601 $145 $237 forward 7 unknown #
edge $-1 $151 79.673703037681491 $238 107.28635980523177 $82 $239 forward 7 unknown #
coedge $-1 $240 $241 $83 $149 forward $242 $-1 #
edge $-1 $152 65.816858929214376 $238 88.155967739980611 $148 $243 forward 7 unknown #
coedge $-1 $244 $84 $241 $245 forward $140 $-1 #
vertex $-1 $146 $246 #
vertex $-1 $245 $247 #
straight-curve $-1 -6.8882858068120214 57.30625748816432 22.937219305385625 0 1 0 I I #
face $-1 $248 $249 $18 $-1 $250 forward single #
loop $-1 $251 $92 $86 #
plane-surface $-1 11.932901673095159 -9.4181589545704441 87.394599719684109 0 0.80901700255871778 0.5877852410284794 1 0 0 forward_v I I I I #
coedge $-1 $252 $253 $254 $255 reversed $87 $-1 #
coedge $-1 $158 $158 $-1 $256 forward $89 $-1 #
edge $-1 $257 0 $257 6.2831853071796004 $90 $258 forward 7 unknown #
vertex $-1 $93 $259 #
ellipse-curve $-1 3.8666784674206554 45.528023845840266 11.767664900002508 0 -0.80901700255871778 -0.5877852410284794 2 0 0 1 I I #
face $-1 $260 $261 $19 $-1 $262 forward single #
loop $-1 $263 $264 $94 #
cone-surface $-1 3.8666784674206554 39.170079043267634 7.1483477454725097 0 -0.80901700255871778 -0.5877852410284794 1 0 0 1 I I -0.70710678118654746 0.70710678118654746 1 forward I I I I #
loop $-1 $-1 $265 $57 #
coedge $-1 $166 $166 $266 $267 reversed $95 $-1 #
coedge $-1 $167 $167 $-1 $268 forward $97 $-1 #
edge $-1 $269 0 $269 6.2831853071796004 $98 $270 forward 7 unknown #
loop $-1 $271 $100 $260 #
vertex $-1 $101 $272 #
ellipse-curve $-1 19.999124878769663 45.528023845840266 11.767664900002508 0 -0.80901700255871778 -0.5877852410284794 2 0 0 1 I I #
face $-1 $-1 $117 $15 $-1 $273 reversed single #
loop $-1 $-1 $188 $102 #
plane-surface $-1 0 53.643179902615884 0 0 -1 0 0 0 -1 forward_v I I I I #
coedge $-1 $274 $186 $189 $275 forward $103 $-1 #
coedge $-1 $192 $105 $106 $180 reversed $63 $-1 #
coedge $-1 $186 $274 $105 $178 reversed $103 $-1 #
edge $-1 $193 -22.937219305385621 $276 22.937219305385621 $177 $277 forward 7 unknown #
coedge $-1 $107 $106 $274 $278 forward $41 $-1 #
edge $-1 $184 -76.655171361430718 $276 76.655171361430718 $176 $279 forward 7 unknown #
coedge $-1 $189 $188 $107 $182 reversed $173 $-1 #
edge $-1 $280 -76.655171361430718 $183 76.655171361430718 $181 $281 forward 7 unknown #
vertex $-1 $109 $282 #
vertex $-1 $195 $283 #
straight-curve $-1 76.655171361430718 0 -22.937219305385621 0 -1 0 I I #
coedge $-1 $175 $177 $110 $187 reversed $103 $-1 #
edge $-1 $190 -53.643179902615884 $193 53.643179902615884 $186 $284 forward 7 unknown #
coedge $-1 $181 $111 $116 $196 forward $173 $-1 #
coedge $-1 $111 $181 $175 $275 reversed $173 $-1 #
vertex $-1 $112 $285 #
straight-curve $-1 0 53.643179902615884 22.937219305385621 -1 0 0 I I #
coedge $-1 $113 $176 $115 $195 reversed $63 $-1 #
vertex $-1 $187 $286 #
straight-curve $-1 0 -53.643179902615884 22.937219305385621 1 0 0 I I #
edge $-1 $118 -22.937219305385621 $184 22.937219305385621 $115 $287 forward 7 unknown #
edge $-1 $119 -22.937219305385621 $183 22.937219305385621 $116 $288 forward 7 unknown #
point $-1 76.655171361430718 -53.643179902615884 22.937219305385621 #
point $-1 76.655171361430718 53.643179902615884 22.937219305385621 #
face $-1 $289 $211 $16 $-1 $290 reversed single #
loop $-1 $-1 $131 $121 #
plane-surface $-1 0 -53.643179902615884 0 0 1 0 0 0 1 forward_v I I I I #
coedge $-1 $291 $292 $221 $293 forward $122 $-1 #
coedge $-1 $294 $124 $295 $296 forward $71 $-1 #
coedge $-1 $124 $294 $126 $208 forward $71 $-1 #
coedge $-1 $134 $297 $124 $206 reversed $135 $-1 #
edge $-1 $298 -74.412217025081816 $299 53.643179902615884 $205 $300 forward 7 unknown #
coedge $-1 $126 $125 $134 $223 reversed $45 $-1 #
edge $-1 $212 -76.655171361430718 $298 76.655171361430718 $126 $301 forward 7 unknown #
coedge $-1 $302 $127 $294 $303 reversed $211 $-1 #
coedge $-1 $127 $304 $129 $215 reversed $211 $-1 #
loop $-1 $-1 $302 $199 #
vertex $-1 $303 $305 #
vertex $-1 $215 $306 #
straight-curve $-1 -76.655171361430718 -74.412217025081816 18.588548768234002 0 0 -1 I I #
edge $-1 $213 -10.384518561232966 $219 10.384518561232966 $210 $307 forward 7 unknown #
straight-curve $-1 0 -74.412217025081816 14.239878231082383 -1 0 0 I I #
coedge $-1 $308 $131 $304 $309 forward $200 $-1 #
coedge $-1 $131 $308 $133 $222 reversed $200 $-1 #
vertex $-1 $309 $310 #
straight-curve $-1 0 -53.643179902615884 14.239878231082383 -1 0 0 I I #
coedge $-1 $297 $133 $202 $293 reversed $135 $-1 #
edge $-1 $136 -14.239878231082383 $311 22.937219305385621 $133 $312 forward 7 unknown #
edge $-1 $298 -4.3486705371516194 $137 4.3486705371516194 $134 $313 forward 7 unknown #
face $-1 $-1 $135 $16 $-1 $314 reversed single #
point $-1 76.655171361430718 -53.643179902615884 14.239878231082383 #
point $-1 76.655171361430718 -74.412217025081816 14.239878231082383 #
face $-1 $315 $316 $17 $-1 $317 reversed single #
loop $-1 $-1 $318 $139 #
plane-surface $-1 0 -64.02769846384885 14.239878231082383 0 0 1 1 0 0 forward_v I I I I #
coedge $-1 $145 $319 $142 $233 forward $140 $-1 #
coedge $-1 $232 $142 $320 $321 reversed $79 $-1 #
coedge $-1 $142 $231 $143 $235 forward $79 $-1 #
edge $-1 $322 3.6630775855484359 $236 19.893389699099657 $230 $323 forward 7 unknown #
coedge $-1 $144 $143 $240 $324 reversed $49 $-1 #
edge $-1 $325 -107.28635980523177 $236 -79.673703037681491 $232 $326 forward 7 unknown #
vertex $-1 $146 $327 #
straight-curve $-1 5.9664508365475797 37.412867789064649 22.937219305385625 -1 0 0 I I #
vertex $-1 $324 $328 #
straight-curve $-1 -6.8882858068120214 -9.4181589545704441 87.394599719684109 0 0.5877852410284794 -0.80901700255871778 I I #
coedge $-1 $320 $148 $234 $324 forward $242 $-1 #
coedge $-1 $148 $329 $150 $245 reversed $242 $-1 #
loop $-1 $-1 $320 $330 #
straight-curve $-1 -6.8882858068120214 53.643179902615884 88.754078234600001 0 0 -1 I I #
coedge $-1 $331 $150 $332 $333 forward $140 $-1 #
edge $-1 $152 6.8882858068120214 $334 76.655171361430718 $241 $335 forward 7 unknown #
point $-1 -6.8882858068120214 37.412867789064663 22.937219305385625 #
point $-1 -6.8882858068120214 53.643179902615884 22.937219305385621 #
face $-1 $336 $337 $18 $-1 $338 forward single #
loop $-1 $-1 $339 $154 #
plane-surface $-1 30.75408915300234 114.61251497632864 177.5081564692 -1 0 0 0 0.80901700255871778 0.5877852410284794 forward_v I I I I #
loop $-1 $-1 $340 $86 #
coedge $-1 $253 $157 $341 $342 forward $87 $-1 #
coedge $-1 $157 $252 $343 $344 reversed $87 $-1 #
coedge $-1 $345 $346 $157 $255 forward $337 $-1 #
edge $-1 $347 -19.893389699099657 $348 -3.6630775855484359 $254 $349 forward 7 unknown #
edge $-1 $350 1 $350 0 $158 $-1 forward 7 unknown #
vertex $-1 $159 $351 #
ellipse-curve $-1 3.8666784674206554 39.979096045826353 7.7361329865009889 0 0.80901700255871778 0.5877852410284794 2 0 0 1 I I #
point $-1 5.8666784674206554 45.528023845840281 11.767664900002519 #
face $-1 $352 $169 $19 $-1 $353 forward single #
loop $-1 $-1 $354 $162 #
plane-surface $-1 -6.8882858068120214 114.61251497632864 177.5081564692 1 0 0 0 -0.80901700255871778 -0.5877852410284794 forward_v I I I I #
loop $-1 $-1 $355 $94 #
coedge $-1 $264 $264 $265 $356 forward $163 $-1 #
coedge $-1 $265 $265 $264 $356 reversed $165 $-1 #
coedge $-1 $266 $266 $166 $267 forward $271 $-1 #
edge $-1 $357 1.3484332506094829e-016 $357 6.2831853071796004 $266 $358 forward 7 unknown #
edge $-1 $359 1 $359 0 $167 $-1 forward 7 unknown #
vertex $-1 $168 $360 #
ellipse-curve $-1 19.999124878769663 39.979096045826353 7.7361329865009889 0 0.80901700255871778 0.5877852410284794 2 0 0 1 I I #
loop $-1 $361 $266 $260 #
point $-1 21.999124878769663 45.528023845840281 11.767664900002519 #
plane-surface $-1 76.655171361430718 0 0 -1 0 0 0 0 1 forward_v I I I I #
coedge $-1 $177 $175 $179 $278 reversed $103 $-1 #
edge $-1 $190 -22.937219305385621 $280 22.937219305385621 $189 $362 forward 7 unknown #
vertex $-1 $278 $363 #
straight-curve $-1 -76.655171361430718 -53.643179902615884 0 0 0 -1 I I #
edge $-1 $276 -53.643179902615884 $280 53.643179902615884 $274 $364 forward 7 unknown #
straight-curve $-1 0 -53.643179902615884 -22.937219305385621 -1 0 0 I I #
vertex $-1 $182 $365 #
straight-curve $-1 0 53.643179902615884 -22.937219305385621 1 0 0 I I #
point $-1 76.655171361430718 53.643179902615884 -22.937219305385621 #
point $-1 76.655171361430718 -53.643179902615884 -22.937219305385621 #
straight-curve $-1 -76.655171361430718 0 22.937219305385621 0 -1 0 I I #
point $-1 -76.655171361430718 53.643179902615884 22.937219305385621 #
point $-1 -76.655171361430718 -53.643179902615884 22.937219305385621 #
straight-curve $-1 76.655171361430718 -53.643179902615884 0 0 0 -1 I I #
straight-curve $-1 76.655171361430718 53.643179902615884 0 0 0 -1 I I #
face $-1 $224 $366 $16 $-1 $367 reversed single #
plane-surface $-1 -76.655171361430718 0 0 1 0 0 0 0 -1 forward_v I I I I #
coedge $-1 $368 $202 $308 $369 forward $122 $-1 #
coedge $-1 $202 $368 $370 $371 forward $122 $-1 #
edge $-1 $372 -53.643179902615884 $311 53.643179902615884 $221 $373 forward 7 unknown #
coedge $-1 $204 $203 $209 $303 forward $71 $-1 #
coedge $-1 $374 $375 $203 $296 reversed $366 $-1 #
edge $-1 $299 -76.655171361430718 $376 76.655171361430718 $295 $377 forward 7 unknown #
coedge $-1 $205 $221 $374 $378 reversed $135 $-1 #
vertex $-1 $206 $379 #
vertex $-1 $206 $380 #
straight-curve $-1 76.655171361430718 0 22.937219305385621 0 1 0 I I #
straight-curve $-1 0 -74.412217025081816 22.937219305385621 1 0 0 I I #
coedge $-1 $381 $209 $375 $382 forward $211 $-1 #
edge $-1 $376 -53.643179902615884 $212 74.412217025081816 $209 $383 forward 7 unknown #
coedge $-1 $210 $381 $217 $309 reversed $211 $-1 #
point $-1 -76.655171361430718 -74.412217025081816 22.937219305385621 #
point $-1 -76.655171361430718 -74.412217025081816 14.239878231082383 #
straight-curve $-1 -76.655171361430718 -64.02769846384885 14.239878231082383 0 1 0 I I #
coedge $-1 $218 $217 $291 $369 reversed $200 $-1 #
edge $-1 $219 -14.239878231082383 $384 22.937219305385621 $304 $385 forward 7 unknown #
point $-1 -76.655171361430718 -53.643179902615884 14.239878231082383 #
vertex $-1 $222 $386 #
straight-curve $-1 76.655171361430718 -53.643179902615884 0 0 0 -1 I I #
straight-curve $-1 76.655171361430718 -74.412217025081816 18.588548768234002 0 0 -1 I I #
plane-surface $-1 76.655171361430718 0 0 -1 0 0 0 0 1 forward_v I I I I #
face $-1 $387 $388 $17 $-1 $389 reversed single #
loop $-1 $-1 $390 $227 #
plane-surface $-1 0 -74.412217025081816 18.588548768234002 0 1 0 0 0 1 forward_v I I I I #
coedge $-1 $391 $392 $393 $394 forward $228 $-1 #
coedge $-1 $230 $395 $396 $397 forward $140 $-1 #
coedge $-1 $396 $240 $231 $321 forward $242 $-1 #
edge $-1 $325 -88.155967739980611 $322 -65.816858929214376 $320 $398 forward 7 unknown #
vertex $-1 $321 $399 #
straight-curve $-1 30.75408915300234 57.30625748816432 22.937219305385625 0 -1 0 I I #
edge $-1 $238 -12.854736643359601 $325 24.78763831645476 $240 $400 forward 7 unknown #
vertex $-1 $324 $401 #
straight-curve $-1 30.75408915300234 -9.4181589545704441 87.394599719684109 0 -0.5877852410284794 0.80901700255871778 I I #
point $-1 30.75408915300234 37.412867789064663 22.937219305385625 #
point $-1 -6.8882858068120214 53.643179902615884 0.59811049461939092 #
coedge $-1 $241 $402 $403 $404 reversed $242 $-1 #
face $-1 $405 $242 $17 $-1 $406 reversed single #
coedge $-1 $395 $244 $407 $408 forward $140 $-1 #
coedge $-1 $403 $409 $244 $333 reversed $410 $-1 #
edge $-1 $334 -53.643179902615884 $411 74.412217025081816 $332 $412 forward 7 unknown #
vertex $-1 $245 $413 #
straight-curve $-1 0 53.643179902615884 22.937219305385621 -1 0 0 I I #
face $-1 $414 $415 $18 $-1 $416 reversed single #
loop $-1 $-1 $417 $248 #
plane-surface $-1 0 0 22.937219305385621 0 0 1 1 0 0 forward_v I I I I #
coedge $-1 $418 $419 $417 $420 reversed $249 $-1 #
coedge $-1 $421 $341 $346 $422 reversed $251 $-1 #
coedge $-1 $340 $423 $252 $342 reversed $251 $-1 #
edge $-1 $347 79.673703037681491 $424 107.28635980523177 $252 $425 forward 7 unknown #
coedge $-1 $426 $427 $253 $344 forward $428 $-1 #
edge $-1 $348 65.816858929214376 $424 88.155967739980611 $343 $429 forward 7 unknown #
coedge $-1 $430 $254 $427 $431 forward $337 $-1 #
coedge $-1 $254 $417 $340 $422 forward $337 $-1 #
vertex $-1 $422 $432 #
vertex $-1 $431 $433 #
straight-curve $-1 -6.8882858068120214 57.30625748816432 22.937219305385625 0 1 0 I I #
vertex $-1 $256 $434 #
point $-1 5.8666784674206554 39.979096045826353 7.7361329865009889 #
face $-1 $435 $436 $19 $-1 $437 forward single #
plane-surface $-1 11.932901673095159 -9.4181589545704441 87.394599719684109 0 0.80901700255871778 0.5877852410284794 1 0 0 forward_v I I I I #
coedge $-1 $438 $439 $440 $441 reversed $261 $-1 #
coedge $-1 $355 $355 $-1 $442 forward $263 $-1 #
edge $-1 $443 0 $443 6.2831853071796004 $264 $444 forward 7 unknown #
vertex $-1 $267 $445 #
ellipse-curve $-1 3.8666784674206554 45.528023845840266 11.767664900002508 0 -0.80901700255871778 -0.5877852410284794 2 0 0 1 I I #
vertex $-1 $268 $446 #
point $-1 21.999124878769663 39.979096045826353 7.7361329865009889 #
loop $-1 $-1 $447 $260 #
straight-curve $-1 -76.655171361430718 53.643179902615884 0 0 0 -1 I I #
point $-1 -76.655171361430718 -53.643179902615884 -22.937219305385621 #
straight-curve $-1 -76.655171361430718 0 -22.937219305385621 0 1 0 I I #
point $-1 -76.655171361430718 53.643179902615884 -22.937219305385621 #
loop $-1 $-1 $374 $289 #
plane-surface $-1 0 53.643179902615884 0 0 -1 0 0 0 -1 forward_v I I I I #
coedge $-1 $292 $291 $381 $448 forward $122 $-1 #
edge $-1 $311 -76.655171361430718 $384 76.655171361430718 $308 $449 forward 7 unknown #
coedge $-1 $375 $374 $292 $371 reversed $366 $-1 #
edge $-1 $450 -76.655171361430718 $372 76.655171361430718 $370 $451 forward 7 unknown #
vertex $-1 $293 $452 #
straight-curve $-1 76.655171361430718 0 -22.937219305385621 0 -1 0 I I #
coedge $-1 $370 $295 $297 $378 forward $366 $-1 #
coedge $-1 $295 $370 $302 $382 reversed $366 $-1 #
vertex $-1 $296 $453 #
straight-curve $-1 0 53.643179902615884 22.937219305385621 -1 0 0 I I #
edge $-1 $299 -22.937219305385621 $372 22.937219305385621 $297 $454 forward 7 unknown #
point $-1 76.655171361430718 -74.412217025081816 22.937219305385621 #
point $-1 76.655171361430718 53.643179902615884 22.937219305385621 #
coedge $-1 $304 $302 $368 $448 reversed $211 $-1 #
edge $-1 $376 -22.937219305385621 $450 22.937219305385621 $375 $455 forward 7 unknown #
straight-curve $-1 -76.655171361430718 0 22.937219305385621 0 -1 0 I I #
vertex $-1 $448 $456 #
straight-curve $-1 -76.655171361430718 -53.643179902615884 0 0 0 -1 I I #
point $-1 76.655171361430718 -53.643179902615884 -22.937219305385621 #
face $-1 $457 $458 $17 $-1 $459 reversed single #
loop $-1 $-1 $460 $315 #
plane-surface $-1 0 0 -22.937219305385621 0 0 1 1 0 0 forward_v I I I I #
coedge $-1 $461 $407 $409 $462 forward $316 $-1 #
coedge $-1 $463 $318 $461 $464 forward $228 $-1 #
coedge $-1 $318 $463 $465 $466 reversed $228 $-1 #
coedge $-1 $467 $468 $318 $394 reversed $469 $-1 #
edge $-1 $470 -10.384518561232966 $471 10.384518561232966 $393 $472 forward 7 unknown #
coedge $-1 $319 $331 $473 $474 forward $140 $-1 #
coedge $-1 $475 $320 $319 $397 reversed $242 $-1 #
edge $-1 $476 -76.655171361430718 $322 -30.75408915300234 $396 $335 forward 7 unknown #
straight-curve $-1 30.75408915300234 53.643179902615884 88.754078234600001 0 0 1 I I #
point $-1 30.75408915300234 53.643179902615884 22.937219305385621 #
straight-curve $-1 5.9664508365475797 53.643179902615884 0.59811049461939092 1 0 0 I I #
point $-1 30.75408915300234 53.643179902615884 0.59811049461939092 #
coedge $-1 $329 $475 $477 $478 reversed $242 $-1 #
coedge $-1 $479 $332 $329 $404 forward $410 $-1 #
edge $-1 $334 -22.937219305385621 $480 22.937219305385621 $329 $481 forward 7 unknown #
face $-1 $-1 $469 $17 $-1 $482 reversed single #
plane-surface $-1 0 53.643179902615884 0 0 -1 0 0 0 -1 forward_v I I I I #
coedge $-1 $390 $483 $331 $408 reversed $316 $-1 #
edge $-1 $411 -76.655171361430718 $484 76.655171361430718 $407 $485 forward 7 unknown #
coedge $-1 $332 $486 $390 $462 reversed $410 $-1 #
loop $-1 $-1 $403 $457 #
vertex $-1 $333 $487 #
straight-curve $-1 -76.655171361430718 0 22.937219305385621 0 -1 0 I I #
point $-1 -76.655171361430718 53.643179902615884 22.937219305385621 #
face $-1 $488 $489 $18 $-1 $490 reversed single #
loop $-1 $-1 $491 $336 #
plane-surface $-1 0 -64.02769846384885 14.239878231082383 0 0 1 1 0 0 forward_v I I I I #
coedge $-1 $346 $492 $339 $420 forward $337 $-1 #
coedge $-1 $419 $339 $493 $494 reversed $249 $-1 #
coedge $-1 $339 $418 $421 $495 forward $249 $-1 #
edge $-1 $496 3.6630775855484359 $497 19.893389699099657 $417 $498 forward 7 unknown #
coedge $-1 $423 $340 $419 $495 reversed $251 $-1 #
edge $-1 $497 -24.78763831645476 $347 12.854736643359601 $346 $499 forward 7 unknown #
coedge $-1 $341 $421 $426 $500 reversed $251 $-1 #
vertex $-1 $500 $501 #
straight-curve $-1 -6.8882858068120214 -9.4181589545704441 87.394599719684109 0 0.5877852410284794 -0.80901700255871778 I I #
coedge $-1 $493 $343 $423 $500 forward $428 $-1 #
coedge $-1 $343 $502 $345 $431 reversed $428 $-1 #
loop $-1 $-1 $493 $503 #
straight-curve $-1 -6.8882858068120214 53.643179902615884 88.754078234600001 0 0 -1 I I #
coedge $-1 $504 $345 $505 $506 forward $337 $-1 #
edge $-1 $348 6.8882858068120214 $507 76.655171361430718 $427 $508 forward 7 unknown #
point $-1 -6.8882858068120214 37.412867789064663 22.937219305385625 #
point $-1 -6.8882858068120214 53.643179902615884 22.937219305385621 #
point $-1 3.8666784674206554 38.361062040708916 6.5605625044440306 #
face $-1 $509 $510 $19 $-1 $511 forward single #
loop $-1 $-1 $512 $352 #
plane-surface $-1 30.75408915300234 114.61251497632864 177.5081564692 -1 0 0 0 0.80901700255871778 0.5877852410284794 forward_v I I I I #
coedge $-1 $439 $354 $513 $514 forward $261 $-1 #
coedge $-1 $354 $438 $515 $516 reversed $261 $-1 #
coedge $-1 $517 $518 $354 $441 forward $510 $-1 #
edge $-1 $519 -19.893389699099657 $520 -3.6630775855484359 $440 $521 forward 7 unknown #
edge $-1 $522 1 $522 0 $355 $-1 forward 7 unknown #
vertex $-1 $356 $523 #
ellipse-curve $-1 3.8666784674206554 39.979096045826353 7.7361329865009889 0 0.80901700255871778 0.5877852410284794 2 0 0 1 I I #
point $-1 5.8666784674206554 45.528023845840281 11.767664900002519 #
point $-1 19.999124878769663 38.361062040708916 6.5605625044440306 #
coedge $-1 $524 $513 $518 $525 reversed $361 $-1 #
edge $-1 $384 -53.643179902615884 $450 53.643179902615884 $381 $526 forward 7 unknown #
straight-curve $-1 0 -53.643179902615884 -22.937219305385621 -1 0 0 I I #
vertex $-1 $371 $527 #
straight-curve $-1 0 53.643179902615884 -22.937219305385621 1 0 0 I I #
point $-1 76.655171361430718 53.643179902615884 -22.937219305385621 #
point $-1 -76.655171361430718 53.643179902615884 22.937219305385621 #
straight-curve $-1 76.655171361430718 53.643179902615884 0 0 0 -1 I I #
straight-curve $-1 -76.655171361430718 53.643179902615884 0 0 0 -1 I I #
point $-1 -76.655171361430718 -53.643179902615884 -22.937219305385621 #
face $-1 $330 $410 $17 $-1 $528 reversed single #
loop $-1 $-1 $465 $387 #
plane-surface $-1 0 -53.643179902615884 0 0 1 0 0 0 1 forward_v I I I I #
coedge $-1 $529 $477 $530 $531 forward $388 $-1 #
coedge $-1 $483 $390 $391 $464 reversed $316 $-1 #
edge $-1 $411 -4.3486705371516194 $532 4.3486705371516194 $409 $533 forward 7 unknown #
coedge $-1 $392 $391 $486 $534 forward $228 $-1 #
edge $-1 $471 -76.655171361430718 $532 76.655171361430718 $461 $535 forward 7 unknown #
coedge $-1 $536 $537 $392 $466 forward $458 $-1 #
edge $-1 $470 -76.655171361430718 $538 76.655171361430718 $465 $539 forward 7 unknown #
coedge $-1 $530 $393 $537 $540 forward $469 $-1 #
coedge $-1 $393 $473 $483 $541 forward $469 $-1 #
loop $-1 $-1 $467 $405 #
vertex $-1 $540 $542 #
vertex $-1 $541 $543 #
straight-curve $-1 76.655171361430718 -64.02769846384885 14.239878231082383 0 -1 0 I I #
coedge $-1 $468 $544 $395 $474 reversed $469 $-1 #
edge $-1 $484 -74.412217025081816 $476 53.643179902615884 $473 $545 forward 7 unknown #
coedge $-1 $402 $396 $544 $546 forward $242 $-1 #
vertex $-1 $474 $547 #
coedge $-1 $460 $548 $402 $478 forward $388 $-1 #
edge $-1 $480 -76.655171361430718 $549 76.655171361430718 $402 $550 forward 7 unknown #
coedge $-1 $551 $403 $548 $552 reversed $410 $-1 #
vertex $-1 $478 $553 #
straight-curve $-1 -76.655171361430718 53.643179902615884 0 0 0 -1 I I #
plane-surface $-1 76.655171361430718 0 0 -1 0 0 0 0 1 forward_v I I I I #
coedge $-1 $407 $461 $468 $541 reversed $316 $-1 #
vertex $-1 $474 $554 #
straight-curve $-1 0 -74.412217025081816 22.937219305385621 1 0 0 I I #
coedge $-1 $409 $551 $463 $534 reversed $410 $-1 #
point $-1 -76.655171361430718 -74.412217025081816 22.937219305385621 #
face $-1 $555 $556 $18 $-1 $557 reversed single #
loop $-1 $-1 $558 $414 #
plane-surface $-1 0 -74.412217025081816 18.588548768234002 0 1 0 0 0 1 forward_v I I I I #
coedge $-1 $559 $560 $561 $562 forward $415 $-1 #
coedge $-1 $417 $563 $564 $565 forward $337 $-1 #
coedge $-1 $564 $426 $418 $494 forward $428 $-1 #
edge $-1 $566 -88.155967739980611 $496 -65.816858929214376 $493 $567 forward 7 unknown #
edge $-1 $566 -107.28635980523177 $497 -79.673703037681491 $419 $568 forward 7 unknown #
vertex $-1 $494 $569 #
vertex $-1 $422 $570 #
straight-curve $-1 30.75408915300234 57.30625748816432 22.937219305385625 0 -1 0 I I #
straight-curve $-1 5.9664508365475797 37.412867789064649 22.937219305385625 -1 0 0 I I #
edge $-1 $424 -12.854736643359601 $566 24.78763831645476 $426 $571 forward 7 unknown #
point $-1 -6.8882858068120214 53.643179902615884 0.59811049461939092 #
coedge $-1 $427 $572 $573 $574 reversed $428 $-1 #
face $-1 $575 $428 $18 $-1 $576 reversed single #
coedge $-1 $563 $430 $577 $578 forward $337 $-1 #
coedge $-1 $573 $579 $430 $506 reversed $580 $-1 #
edge $-1 $507 -53.643179902615884 $581 74.412217025081816 $505 $582 forward 7 unknown #
vertex $-1 $431 $583 #
straight-curve $-1 0 53.643179902615884 22.937219305385621 -1 0 0 I I #
face $-1 $584 $585 $19 $-1 $586 reversed single #
loop $-1 $-1 $587 $435 #
plane-surface $-1 0 0 22.937219305385621 0 0 1 1 0 0 forward_v I I I I #
coedge $-1 $588 $589 $587 $590 reversed $436 $-1 #
coedge $-1 $447 $591 $438 $514 reversed $361 $-1 #
edge $-1 $519 79.673703037681491 $592 107.28635980523177 $438 $593 forward 7 unknown #
coedge $-1 $594 $595 $439 $516 forward $596 $-1 #
edge $-1 $520 65.816858929214376 $592 88.155967739980611 $515 $597 forward 7 unknown #
coedge $-1 $598 $440 $595 $599 forward $510 $-1 #
coedge $-1 $440 $587 $447 $525 forward $510 $-1 #
vertex $-1 $525 $600 #
vertex $-1 $599 $601 #
straight-curve $-1 -6.8882858068120214 57.30625748816432 22.937219305385625 0 1 0 I I #
vertex $-1 $442 $602 #
point $-1 5.8666784674206554 39.979096045826353 7.7361329865009889 #
coedge $-1 $591 $447 $589 $603 reversed $361 $-1 #
edge $-1 $604 -24.78763831645476 $519 12.854736643359601 $518 $605 forward 7 unknown #
straight-curve $-1 -76.655171361430718 0 -22.937219305385621 0 1 0 I I #
point $-1 -76.655171361430718 53.643179902615884 -22.937219305385621 #
plane-surface $-1 -76.655171361430718 0 0 1 0 0 0 0 -1 forward_v I I I I #
coedge $-1 $548 $460 $606 $607 forward $388 $-1 #
coedge $-1 $544 $467 $460 $531 reversed $469 $-1 #
edge $-1 $549 -53.643179902615884 $608 53.643179902615884 $530 $609 forward 7 unknown #
vertex $-1 $534 $610 #
straight-curve $-1 -76.655171361430718 -74.412217025081816 18.588548768234002 0 0 -1 I I #
edge $-1 $532 -10.384518561232966 $538 10.384518561232966 $486 $611 forward 7 unknown #
straight-curve $-1 0 -74.412217025081816 14.239878231082383 -1 0 0 I I #
coedge $-1 $606 $465 $551 $612 forward $458 $-1 #
coedge $-1 $465 $606 $467 $540 reversed $458 $-1 #
vertex $-1 $612 $613 #
straight-curve $-1 0 -53.643179902615884 14.239878231082383 -1 0 0 I I #
edge $-1 $470 -14.239878231082383 $608 22.937219305385621 $467 $614 forward 7 unknown #
edge $-1 $484 -4.3486705371516194 $471 4.3486705371516194 $468 $615 forward 7 unknown #
point $-1 76.655171361430718 -53.643179902615884 14.239878231082383 #
point $-1 76.655171361430718 -74.412217025081816 14.239878231082383 #
coedge $-1 $473 $530 $475 $546 reversed $469 $-1 #
straight-curve $-1 76.655171361430718 0 22.937219305385621 0 1 0 I I #
edge $-1 $476 -22.937219305385621 $549 22.937219305385621 $544 $616 forward 7 unknown #
point $-1 76.655171361430718 53.643179902615884 22.937219305385621 #
coedge $-1 $477 $529 $479 $552 forward $388 $-1 #
vertex $-1 $531 $617 #
straight-curve $-1 0 53.643179902615884 -22.937219305385621 1 0 0 I I #
coedge $-1 $486 $479 $536 $612 reversed $410 $-1 #
edge $-1 $618 -53.643179902615884 $480 53.643179902615884 $479 $619 forward 7 unknown #
point $-1 -76.655171361430718 53.643179902615884 -22.937219305385621 #
point $-1 76.655171361430718 -74.412217025081816 22.937219305385621 #
face $-1 $620 $621 $18 $-1 $622 reversed single #
loop $-1 $-1 $623 $488 #
plane-surface $-1 0 0 -22.937219305385621 0 0 1 1 0 0 forward_v I I I I #
coedge $-1 $624 $577 $579 $625 forward $489 $-1 #
coedge $-1 $626 $491 $624 $627 forward $415 $-1 #
coedge $-1 $491 $626 $628 $629 reversed $415 $-1 #
coedge $-1 $630 $631 $491 $562 reversed $632 $-1 #
edge $-1 $633 -10.384518561232966 $634 10.384518561232966 $561 $635 forward 7 unknown #
coedge $-1 $492 $504 $636 $637 forward $337 $-1 #
coedge $-1 $638 $493 $492 $565 reversed $428 $-1 #
edge $-1 $639 -76.655171361430718 $496 -30.75408915300234 $564 $508 forward 7 unknown #
vertex $-1 $500 $640 #
straight-curve $-1 30.75408915300234 53.643179902615884 88.754078234600001 0 0 1 I I #
straight-curve $-1 30.75408915300234 -9.4181589545704441 87.394599719684109 0 -0.5877852410284794 0.80901700255871778 I I #
point $-1 30.75408915300234 53.643179902615884 22.937219305385621 #
point $-1 30.75408915300234 37.412867789064663 22.937219305385625 #
straight-curve $-1 5.9664508365475797 53.643179902615884 0.59811049461939092 1 0 0 I I #
coedge $-1 $502 $638 $641 $642 reversed $428 $-1 #
coedge $-1 $643 $505 $502 $574 forward $580 $-1 #
edge $-1 $507 -22.937219305385621 $644 22.937219305385621 $502 $645 forward 7 unknown #
face $-1 $-1 $632 $18 $-1 $646 reversed single #
plane-surface $-1 0 53.643179902615884 0 0 -1 0 0 0 -1 forward_v I I I I #
coedge $-1 $558 $647 $504 $578 reversed $489 $-1 #
edge $-1 $581 -76.655171361430718 $648 76.655171361430718 $577 $649 forward 7 unknown #
coedge $-1 $505 $650 $558 $625 reversed $580 $-1 #
loop $-1 $-1 $573 $620 #
vertex $-1 $506 $651 #
straight-curve $-1 -76.655171361430718 0 22.937219305385621 0 -1 0 I I #
point $-1 -76.655171361430718 53.643179902615884 22.937219305385621 #
face $-1 $652 $653 $19 $-1 $654 reversed single #
loop $-1 $-1 $655 $509 #
plane-surface $-1 0 -64.02769846384885 14.239878231082383 0 0 1 1 0 0 forward_v I I I I #
coedge $-1 $518 $656 $512 $590 forward $510 $-1 #
coedge $-1 $589 $512 $657 $658 reversed $436 $-1 #
coedge $-1 $512 $588 $524 $603 forward $436 $-1 #
edge $-1 $659 3.6630775855484359 $604 19.893389699099657 $587 $660 forward 7 unknown #
coedge $-1 $513 $524 $594 $661 reversed $361 $-1 #
vertex $-1 $661 $662 #
straight-curve $-1 -6.8882858068120214 -9.4181589545704441 87.394599719684109 0 0.5877852410284794 -0.80901700255871778 I I #
coedge $-1 $657 $515 $591 $661 forward $596 $-1 #
coedge $-1 $515 $663 $517 $599 reversed $596 $-1 #
loop $-1 $-1 $657 $664 #
straight-curve $-1 -6.8882858068120214 53.643179902615884 88.754078234600001 0 0 -1 I I #
coedge $-1 $665 $517 $666 $667 forward $510 $-1 #
edge $-1 $520 6.8882858068120214 $668 76.655171361430718 $595 $669 forward 7 unknown #
point $-1 -6.8882858068120214 37.412867789064663 22.937219305385625 #
point $-1 -6.8882858068120214 53.643179902615884 22.937219305385621 #
point $-1 3.8666784674206554 38.361062040708916 6.5605625044440306 #
edge $-1 $670 -107.28635980523177 $604 -79.673703037681491 $589 $671 forward 7 unknown #
vertex $-1 $525 $672 #
straight-curve $-1 5.9664508365475797 37.412867789064649 22.937219305385625 -1 0 0 I I #
coedge $-1 $537 $536 $529 $607 reversed $458 $-1 #
edge $-1 $608 -76.655171361430718 $618 76.655171361430718 $606 $673 forward 7 unknown #
vertex $-1 $540 $674 #
straight-curve $-1 76.655171361430718 0 -22.937219305385621 0 -1 0 I I #
point $-1 -76.655171361430718 -74.412217025081816 14.239878231082383 #
straight-curve $-1 -76.655171361430718 -64.02769846384885 14.239878231082383 0 1 0 I I #
edge $-1 $538 -14.239878231082383 $618 22.937219305385621 $551 $675 forward 7 unknown #
point $-1 -76.655171361430718 -53.643179902615884 14.239878231082383 #
straight-curve $-1 76.655171361430718 -53.643179902615884 0 0 0 -1 I I #
straight-curve $-1 76.655171361430718 -74.412217025081816 18.588548768234002 0 0 -1 I I #
straight-curve $-1 76.655171361430718 53.643179902615884 0 0 0 -1 I I #
point $-1 76.655171361430718 53.643179902615884 -22.937219305385621 #
vertex $-1 $552 $676 #
straight-curve $-1 -76.655171361430718 0 -22.937219305385621 0 1 0 I I #
face $-1 $503 $580 $18 $-1 $677 reversed single #
loop $-1 $-1 $628 $555 #
plane-surface $-1 0 -53.643179902615884 0 0 1 0 0 0 1 forward_v I I I I #
coedge $-1 $678 $641 $679 $680 forward $556 $-1 #
coedge $-1 $647 $558 $559 $627 reversed $489 $-1 #
edge $-1 $581 -4.3486705371516194 $681 4.3486705371516194 $579 $682 forward 7 unknown #
coedge $-1 $560 $559 $650 $683 forward $415 $-1 #
edge $-1 $634 -76.655171361430718 $681 76.655171361430718 $624 $684 forward 7 unknown #
coedge $-1 $685 $686 $560 $629 forward $621 $-1 #
edge $-1 $633 -76.655171361430718 $687 76.655171361430718 $628 $688 forward 7 unknown #
coedge $-1 $679 $561 $686 $689 forward $632 $-1 #
coedge $-1 $561 $636 $647 $690 forward $632 $-1 #
loop $-1 $-1 $630 $575 #
vertex $-1 $689 $691 #
vertex $-1 $690 $692 #
straight-curve $-1 76.655171361430718 -64.02769846384885 14.239878231082383 0 -1 0 I I #
coedge $-1 $631 $693 $563 $637 reversed $632 $-1 #
edge $-1 $648 -74.412217025081816 $639 53.643179902615884 $636 $694 forward 7 unknown #
coedge $-1 $572 $564 $693 $695 forward $428 $-1 #
vertex $-1 $637 $696 #
point $-1 30.75408915300234 53.643179902615884 0.59811049461939092 #
coedge $-1 $623 $697 $572 $642 forward $556 $-1 #
edge $-1 $644 -76.655171361430718 $698 76.655171361430718 $572 $699 forward 7 unknown #
coedge $-1 $700 $573 $697 $701 reversed $580 $-1 #
vertex $-1 $642 $702 #
straight-curve $-1 -76.655171361430718 53.643179902615884 0 0 0 -1 I I #
plane-surface $-1 76.655171361430718 0 0 -1 0 0 0 0 1 forward_v I I I I #
coedge $-1 $577 $624 $631 $690 reversed $489 $-1 #
vertex $-1 $637 $703 #
straight-curve $-1 0 -74.412217025081816 22.937219305385621 1 0 0 I I #
coedge $-1 $579 $700 $626 $683 reversed $580 $-1 #
point $-1 -76.655171361430718 -74.412217025081816 22.937219305385621 #
face $-1 $704 $705 $19 $-1 $706 reversed single #
loop $-1 $-1 $707 $584 #
plane-surface $-1 0 -74.412217025081816 18.588548768234002 0 1 0 0 0 1 forward_v I I I I #
coedge $-1 $708 $709 $710 $711 forward $585 $-1 #
coedge $-1 $587 $712 $713 $714 forward $510 $-1 #
coedge $-1 $713 $594 $588 $658 forward $596 $-1 #
edge $-1 $670 -88.155967739980611 $659 -65.816858929214376 $657 $715 forward 7 unknown #
vertex $-1 $658 $716 #
straight-curve $-1 30.75408915300234 57.30625748816432 22.937219305385625 0 -1 0 I I #
edge $-1 $592 -12.854736643359601 $670 24.78763831645476 $594 $717 forward 7 unknown #
point $-1 -6.8882858068120214 53.643179902615884 0.59811049461939092 #
coedge $-1 $595 $718 $719 $720 reversed $596 $-1 #
face $-1 $721 $596 $19 $-1 $722 reversed single #
coedge $-1 $712 $598 $723 $724 forward $510 $-1 #
coedge $-1 $719 $725 $598 $667 reversed $726 $-1 #
edge $-1 $668 -53.643179902615884 $727 74.412217025081816 $666 $728 forward 7 unknown #
vertex $-1 $599 $729 #
straight-curve $-1 0 53.643179902615884 22.937219305385621 -1 0 0 I I #
vertex $-1 $661 $730 #
straight-curve $-1 30.75408915300234 -9.4181589545704441 87.394599719684109 0 -0.5877852410284794 0.80901700255871778 I I #
point $-1 30.75408915300234 37.412867789064663 22.937219305385625 #
straight-curve $-1 0 -53.643179902615884 -22.937219305385621 -1 0 0 I I #
point $-1 76.655171361430718 -53.643179902615884 -22.937219305385621 #
straight-curve $-1 -76.655171361430718 -53.643179902615884 0 0 0 -1 I I #
point $-1 -76.655171361430718 -53.643179902615884 -22.937219305385621 #
plane-surface $-1 -76.655171361430718 0 0 1 0 0 0 0 -1 forward_v I I I I #
coedge $-1 $697 $623 $731 $732 forward $556 $-1 #
coedge $-1 $693 $630 $623 $680 reversed $632 $-1 #
edge $-1 $698 -53.643179902615884 $733 53.643179902615884 $679 $734 forward 7 unknown #
vertex $-1 $683 $735 #
straight-curve $-1 -76.655171361430718 -74.412217025081816 18.588548768234002 0 0 -1 I I #
edge $-1 $681 -10.384518561232966 $687 10.384518561232966 $650 $736 forward 7 unknown #
straight-curve $-1 0 -74.412217025081816 14.239878231082383 -1 0 0 I I #
coedge $-1 $731 $628 $700 $737 forward $621 $-1 #
coedge $-1 $628 $731 $630 $689 reversed $621 $-1 #
vertex $-1 $737 $738 #
straight-curve $-1 0 -53.643179902615884 14.239878231082383 -1 0 0 I I #
edge $-1 $633 -14.239878231082383 $733 22.937219305385621 $630 $739 forward 7 unknown #
edge $-1 $648 -4.3486705371516194 $634 4.3486705371516194 $631 $740 forward 7 unknown #
point $-1 76.655171361430718 -53.643179902615884 14.239878231082383 #
point $-1 76.655171361430718 -74.412217025081816 14.239878231082383 #
coedge $-1 $636 $679 $638 $695 reversed $632 $-1 #
straight-curve $-1 76.655171361430718 0 22.937219305385621 0 1 0 I I #
edge $-1 $639 -22.937219305385621 $698 22.937219305385621 $693 $741 forward 7 unknown #
point $-1 76.655171361430718 53.643179902615884 22.937219305385621 #
coedge $-1 $641 $678 $643 $701 forward $556 $-1 #
vertex $-1 $680 $742 #
straight-curve $-1 0 53.643179902615884 -22.937219305385621 1 0 0 I I #
coedge $-1 $650 $643 $685 $737 reversed $580 $-1 #
edge $-1 $743 -53.643179902615884 $644 53.643179902615884 $643 $744 forward 7 unknown #
point $-1 -76.655171361430718 53.643179902615884 -22.937219305385621 #
point $-1 76.655171361430718 -74.412217025081816 22.937219305385621 #
face $-1 $745 $746 $19 $-1 $747 reversed single #
loop $-1 $-1 $748 $652 #
plane-surface $-1 0 0 -22.937219305385621 0 0 1 1 0 0 forward_v I I I I #
coedge $-1 $749 $723 $725 $750 forward $653 $-1 #
coedge $-1 $751 $655 $749 $752 forward $585 $-1 #
coedge $-1 $655 $751 $753 $754 reversed $585 $-1 #
coedge $-1 $755 $756 $655 $711 reversed $757 $-1 #
edge $-1 $758 -10.384518561232966 $759 10.384518561232966 $710 $760 forward 7 unknown #
coedge $-1 $656 $665 $761 $762 forward $510 $-1 #
coedge $-1 $763 $657 $656 $714 reversed $596 $-1 #
edge $-1 $764 -76.655171361430718 $659 -30.75408915300234 $713 $669 forward 7 unknown #
straight-curve $-1 30.75408915300234 53.643179902615884 88.754078234600001 0 0 1 I I #
point $-1 30.75408915300234 53.643179902615884 22.937219305385621 #
straight-curve $-1 5.9664508365475797 53.643179902615884 0.59811049461939092 1 0 0 I I #
coedge $-1 $663 $763 $765 $766 reversed $596 $-1 #
coedge $-1 $767 $666 $663 $720 forward $726 $-1 #
edge $-1 $668 -22.937219305385621 $768 22.937219305385621 $663 $769 forward 7 unknown #
face $-1 $-1 $757 $19 $-1 $770 reversed single #
plane-surface $-1 0 53.643179902615884 0 0 -1 0 0 0 -1 forward_v I I I I #
coedge $-1 $707 $771 $665 $724 reversed $653 $-1 #
edge $-1 $727 -76.655171361430718 $772 76.655171361430718 $723 $773 forward 7 unknown #
coedge $-1 $666 $774 $707 $750 reversed $726 $-1 #
loop $-1 $-1 $719 $745 #
vertex $-1 $667 $775 #
straight-curve $-1 -76.655171361430718 0 22.937219305385621 0 -1 0 I I #
point $-1 -76.655171361430718 53.643179902615884 22.937219305385621 #
point $-1 30.75408915300234 53.643179902615884 0.59811049461939092 #
coedge $-1 $686 $685 $678 $732 reversed $621 $-1 #
edge $-1 $733 -76.655171361430718 $743 76.655171361430718 $731 $776 forward 7 unknown #
vertex $-1 $689 $777 #
straight-curve $-1 76.655171361430718 0 -22.937219305385621 0 -1 0 I I #
point $-1 -76.655171361430718 -74.412217025081816 14.239878231082383 #
straight-curve $-1 -76.655171361430718 -64.02769846384885 14.239878231082383 0 1 0 I I #
edge $-1 $687 -14.239878231082383 $743 22.937219305385621 $700 $778 forward 7 unknown #
point $-1 -76.655171361430718 -53.643179902615884 14.239878231082383 #
straight-curve $-1 76.655171361430718 -53.643179902615884 0 0 0 -1 I I #
straight-curve $-1 76.655171361430718 -74.412217025081816 18.588548768234002 0 0 -1 I I #
straight-curve $-1 76.655171361430718 53.643179902615884 0 0 0 -1 I I #
point $-1 76.655171361430718 53.643179902615884 -22.937219305385621 #
vertex $-1 $701 $779 #
straight-curve $-1 -76.655171361430718 0 -22.937219305385621 0 1 0 I I #
face $-1 $664 $726 $19 $-1 $780 reversed single #
loop $-1 $-1 $753 $704 #
plane-surface $-1 0 -53.643179902615884 0 0 1 0 0 0 1 forward_v I I I I #
coedge $-1 $781 $765 $782 $783 forward $705 $-1 #
coedge $-1 $771 $707 $708 $752 reversed $653 $-1 #
edge $-1 $727 -4.3486705371516194 $784 4.3486705371516194 $725 $785 forward 7 unknown #
coedge $-1 $709 $708 $774 $786 forward $585 $-1 #
edge $-1 $759 -76.655171361430718 $784 76.655171361430718 $749 $787 forward 7 unknown #
coedge $-1 $788 $789 $709 $754 forward $746 $-1 #
edge $-1 $758 -76.655171361430718 $790 76.655171361430718 $753 $791 forward 7 unknown #
coedge $-1 $782 $710 $789 $792 forward $757 $-1 #
coedge $-1 $710 $761 $771 $793 forward $757 $-1 #
loop $-1 $-1 $755 $721 #
vertex $-1 $792 $794 #
vertex $-1 $793 $795 #
straight-curve $-1 76.655171361430718 -64.02769846384885 14.239878231082383 0 -1 0 I I #
coedge $-1 $756 $796 $712 $762 reversed $757 $-1 #
edge $-1 $772 -74.412217025081816 $764 53.643179902615884 $761 $797 forward 7 unknown #
coedge $-1 $718 $713 $796 $798 forward $596 $-1 #
vertex $-1 $762 $799 #
coedge $-1 $748 $800 $718 $766 forward $705 $-1 #
edge $-1 $768 -76.655171361430718 $801 76.655171361430718 $718 $802 forward 7 unknown #
coedge $-1 $803 $719 $800 $804 reversed $726 $-1 #
vertex $-1 $766 $805 #
straight-curve $-1 -76.655171361430718 53.643179902615884 0 0 0 -1 I I #
plane-surface $-1 76.655171361430718 0 0 -1 0 0 0 0 1 forward_v I I I I #
coedge $-1 $723 $749 $756 $793 reversed $653 $-1 #
vertex $-1 $762 $806 #
straight-curve $-1 0 -74.412217025081816 22.937219305385621 1 0 0 I I #
coedge $-1 $725 $803 $751 $786 reversed $726 $-1 #
point $-1 -76.655171361430718 -74.412217025081816 22.937219305385621 #
straight-curve $-1 0 -53.643179902615884 -22.937219305385621 -1 0 0 I I #
point $-1 76.655171361430718 -53.643179902615884 -22.937219305385621 #
straight-curve $-1 -76.655171361430718 -53.643179902615884 0 0 0 -1 I I #
point $-1 -76.655171361430718 -53.643179902615884 -22.937219305385621 #
plane-surface $-1 -76.655171361430718 0 0 1 0 0 0 0 -1 forward_v I I I I #
coedge $-1 $800 $748 $807 $808 forward $705 $-1 #
coedge $-1 $796 $755 $748 $783 reversed $757 $-1 #
edge $-1 $801 -53.643179902615884 $809 53.643179902615884 $782 $810 forward 7 unknown #
vertex $-1 $786 $811 #
straight-curve $-1 -76.655171361430718 -74.412217025081816 18.588548768234002 0 0 -1 I I #
edge $-1 $784 -10.384518561232966 $790 10.384518561232966 $774 $812 forward 7 unknown #
straight-curve $-1 0 -74.412217025081816 14.239878231082383 -1 0 0 I I #
coedge $-1 $807 $753 $803 $813 forward $746 $-1 #
coedge $-1 $753 $807 $755 $792 reversed $746 $-1 #
vertex $-1 $813 $814 #
straight-curve $-1 0 -53.643179902615884 14.239878231082383 -1 0 0 I I #
edge $-1 $758 -14.239878231082383 $809 22.937219305385621 $755 $815 forward 7 unknown #
edge $-1 $772 -4.3486705371516194 $759 4.3486705371516194 $756 $816 forward 7 unknown #
point $-1 76.655171361430718 -53.643179902615884 14.239878231082383 #
point $-1 76.655171361430718 -74.412217025081816 14.239878231082383 #
coedge $-1 $761 $782 $763 $798 reversed $757 $-1 #
straight-curve $-1 76.655171361430718 0 22.937219305385621 0 1 0 I I #
edge $-1 $764 -22.937219305385621 $801 22.937219305385621 $796 $817 forward 7 unknown #
point $-1 76.655171361430718 53.643179902615884 22.937219305385621 #
coedge $-1 $765 $781 $767 $804 forward $705 $-1 #
vertex $-1 $783 $818 #
straight-curve $-1 0 53.643179902615884 -22.937219305385621 1 0 0 I I #
coedge $-1 $774 $767 $788 $813 reversed $726 $-1 #
edge $-1 $819 -53.643179902615884 $768 53.643179902615884 $767 $820 forward 7 unknown #
point $-1 -76.655171361430718 53.643179902615884 -22.937219305385621 #
point $-1 76.655171361430718 -74.412217025081816 22.937219305385621 #
coedge $-1 $789 $788 $781 $808 reversed $746 $-1 #
edge $-1 $809 -76.655171361430718 $819 76.655171361430718 $807 $821 forward 7 unknown #
vertex $-1 $792 $822 #
straight-curve $-1 76.655171361430718 0 -22.937219305385621 0 -1 0 I I #
point $-1 -76.655171361430718 -74.412217025081816 14.239878231082383 #
straight-curve $-1 -76.655171361430718 -64.02769846384885 14.239878231082383 0 1 0 I I #
edge $-1 $790 -14.239878231082383 $819 22.937219305385621 $803 $823 forward 7 unknown #
point $-1 -76.655171361430718 -53.643179902615884 14.239878231082383 #
straight-curve $-1 76.655171361430718 -53.643179902615884 0 0 0 -1 I I #
straight-curve $-1 76.655171361430718 -74.412217025081816 18.588548768234002 0 0 -1 I I #
straight-curve $-1 76.655171361430718 53.643179902615884 0 0 0 -1 I I #
point $-1 76.655171361430718 53.643179902615884 -22.937219305385621 #
vertex $-1 $804 $824 #
straight-curve $-1 -76.655171361430718 0 -22.937219305385621 0 1 0 I I #
straight-curve $-1 0 -53.643179902615884 -22.937219305385621 -1 0 0 I I #
point $-1 76.655171361430718 -53.643179902615884 -22.937219305385621 #
straight-curve $-1 -76.655171361430718 -53.643179902615884 0 0 0 -1 I I #
point $-1 -76.655171361430718 -53.643179902615884 -22.937219305385621 #
End-of-ACIS-data 