500 0 18 0           
7 Unknown 11 ACIS 5.0 NT 24 Thu Mar 25 17:33:57 1999 
-1 9.9999999999999995e-007 1e-010 
body $-1 $18 $-1 $19 #
body $-1 $20 $-1 $21 #
body $-1 $22 $-1 $23 #
body $-1 $24 $-1 $25 #
body $-1 $26 $-1 $27 #
body $-1 $28 $-1 $29 #
body $-1 $30 $-1 $31 #
body $-1 $32 $-1 $33 #
body $-1 $34 $-1 $35 #
body $-1 $36 $-1 $37 #
body $-1 $38 $-1 $39 #
body $-1 $40 $-1 $41 #
body $-1 $42 $-1 $43 #
body $-1 $44 $-1 $45 #
body $-1 $46 $-1 $47 #
body $-1 $48 $-1 $49 #
body $-1 $50 $-1 $51 #
body $-1 $52 $-1 $53 #
lump $-1 $-1 $54 $0 #
transform $-1 1 0 0 0 1 0 0 0 1 61.994079409161657 25.045668624242108 9.6239359441196921 1 rotate no_reflect no_shear #
lump $-1 $-1 $55 $1 #
transform $-1 1 0 0 0 1 0 0 0 1 61.994079409161657 25.045668624242108 9.6239359441196921 1 rotate no_reflect no_shear #
lump $-1 $-1 $56 $2 #
transform $-1 1 0 0 0 1 0 0 0 1 61.994079409161657 25.045668624242108 9.6239359441196921 1 rotate no_reflect no_shear #
lump $-1 $-1 $57 $3 #
transform $-1 1 0 0 0 1 0 0 0 1 61.994079409161657 25.045668624242108 9.6239359441196921 1 rotate no_reflect no_shear #
lump $-1 $-1 $58 $4 #
transform $-1 1 0 0 0 1 0 0 0 1 61.994079409161657 25.045668624242108 9.6239359441196921 1 rotate no_reflect no_shear #
lump $-1 $-1 $59 $5 #
transform $-1 1 0 0 0 1 0 0 0 1 61.994079409161657 25.045668624242108 9.6239359441196921 1 rotate no_reflect no_shear #
lump $-1 $-1 $60 $6 #
transform $-1 1 0 0 0 1 0 0 0 1 61.994079409161657 25.045668624242108 9.6239359441196921 1 rotate no_reflect no_shear #
lump $-1 $-1 $61 $7 #
transform $-1 1 0 0 0 1 0 0 0 1 61.994079409161657 25.045668624242108 9.6239359441196921 1 rotate no_reflect no_shear #
lump $-1 $-1 $62 $8 #
transform $-1 1 0 0 0 1 0 0 0 1 61.994079409161657 25.045668624242108 9.6239359441196921 1 rotate no_reflect no_shear #
lump $-1 $-1 $63 $9 #
transform $-1 1 0 0 0 1 0 0 0 1 61.994079409161657 25.045668624242108 9.6239359441196921 1 rotate no_reflect no_shear #
lump $-1 $-1 $64 $10 #
transform $-1 1 0 0 0 1 0 0 0 1 61.994079409161657 25.045668624242108 9.6239359441196921 1 rotate no_reflect no_shear #
lump $-1 $-1 $65 $11 #
transform $-1 1 0 0 0 1 0 0 0 1 61.994079409161657 25.045668624242108 9.6239359441196921 1 rotate no_reflect no_shear #
lump $-1 $-1 $66 $12 #
transform $-1 1 0 0 0 1 0 0 0 1 61.994079409161657 25.045668624242108 9.6239359441196921 1 rotate no_reflect no_shear #
lump $-1 $-1 $67 $13 #
transform $-1 1 0 0 0 1 0 0 0 1 61.994079409161657 25.045668624242108 9.6239359441196921 1 rotate no_reflect no_shear #
lump $-1 $-1 $68 $14 #
transform $-1 1 0 0 0 1 0 0 0 1 61.994079409161657 25.045668624242108 9.6239359441196921 1 rotate no_reflect no_shear #
lump $-1 $-1 $69 $15 #
transform $-1 1 0 0 0 1 0 0 0 1 61.994079409161657 25.045668624242108 9.6239359441196921 1 rotate no_reflect no_shear #
lump $-1 $-1 $70 $16 #
transform $-1 1 0 0 0 1 0 0 0 1 61.994079409161657 25.045668624242108 9.6239359441196921 1 rotate no_reflect no_shear #
lump $-1 $-1 $71 $17 #
transform $-1 1 0 0 0 1 0 0 0 1 61.994079409161657 25.045668624242108 9.6239359441196921 1 rotate no_reflect no_shear #
shell $-1 $-1 $-1 $72 $-1 $18 #
shell $-1 $-1 $-1 $73 $-1 $20 #
shell $-1 $-1 $-1 $74 $-1 $22 #
shell $-1 $-1 $-1 $75 $-1 $24 #
shell $-1 $-1 $-1 $76 $-1 $26 #
shell $-1 $-1 $-1 $77 $-1 $28 #
shell $-1 $-1 $-1 $78 $-1 $30 #
shell $-1 $-1 $-1 $79 $-1 $32 #
shell $-1 $-1 $-1 $80 $-1 $34 #
shell $-1 $-1 $-1 $81 $-1 $36 #
shell $-1 $-1 $-1 $82 $-1 $38 #
shell $-1 $-1 $-1 $83 $-1 $40 #
shell $-1 $-1 $-1 $84 $-1 $42 #
shell $-1 $-1 $-1 $85 $-1 $44 #
shell $-1 $-1 $-1 $86 $-1 $46 #
shell $-1 $-1 $-1 $87 $-1 $48 #
shell $-1 $-1 $-1 $88 $-1 $50 #
shell $-1 $-1 $-1 $89 $-1 $52 #
face $-1 $90 $91 $54 $-1 $92 forward single #
face $-1 $93 $94 $55 $-1 $95 reversed single #
face $-1 $96 $97 $56 $-1 $98 reversed single #
face $-1 $99 $100 $57 $-1 $101 forward single #
face $-1 $102 $103 $58 $-1 $104 forward single #
face $-1 $105 $106 $59 $-1 $107 forward single #
face $-1 $108 $109 $60 $-1 $110 reversed single #
face $-1 $111 $112 $61 $-1 $113 forward single #
face $-1 $114 $115 $62 $-1 $116 forward single #
face $-1 $117 $118 $63 $-1 $119 forward single #
face $-1 $120 $121 $64 $-1 $122 reversed single #
face $-1 $123 $124 $65 $-1 $125 forward single #
face $-1 $126 $127 $66 $-1 $128 forward single #
face $-1 $129 $130 $67 $-1 $131 forward single #
face $-1 $132 $133 $68 $-1 $134 reversed single #
face $-1 $135 $136 $69 $-1 $137 forward single #
face $-1 $138 $139 $70 $-1 $140 forward single #
face $-1 $141 $142 $71 $-1 $143 forward single #
face $-1 $144 $145 $54 $-1 $146 reversed single #
loop $-1 $-1 $147 $72 #
plane-surface $-1 0 0 9.6239359441196921 0 0 1 1 0 0 forward_v I I I I #
face $-1 $148 $149 $55 $-1 $150 reversed single #
loop $-1 $-1 $151 $73 #
plane-surface $-1 -53.187204377674419 -22.995438671609048 0 -1 0 0 0 0 1 forward_v I I I I #
face $-1 $152 $153 $56 $-1 $154 reversed single #
loop $-1 $-1 $155 $74 #
plane-surface $-1 -42.999828112690615 -25.045668624242104 3.7590285616902861 0 -0.51503808176128008 0.85716729658548041 1 0 0 forward_v I I I I #
face $-1 $156 $157 $57 $-1 $158 forward single #
loop $-1 $159 $160 $75 #
cone-surface $-1 -49.112253871680899 -18.343365985944192 3.659364445967324 0 0.51503808176128008 -0.85716729658548041 2 0 0 1 I I 0 1 2 forward I I I I #
face $-1 $161 $162 $58 $-1 $163 forward single #
loop $-1 $164 $165 $76 #
cone-surface $-1 -42.999828112690615 -18.343365985944192 3.659364445967324 0 0.51503808176128008 -0.85716729658548041 2 0 0 1 I I 0 1 2 forward I I I I #
face $-1 $166 $167 $59 $-1 $168 forward single #
loop $-1 $169 $170 $77 #
cone-surface $-1 -36.887402353700331 -18.343365985944192 3.659364445967324 0 0.51503808176128008 -0.85716729658548041 2 0 0 1 I I 0 1 2 forward I I I I #
face $-1 $171 $172 $60 $-1 $173 reversed single #
loop $-1 $-1 $174 $78 #
plane-surface $-1 24.77819004571122 -88.904292103144286 110.03762346460367 -1 0 0 0 -0.51503808176128008 0.85716729658548041 forward_v I I I I #
face $-1 $175 $176 $61 $-1 $177 forward single #
loop $-1 $178 $179 $79 #
cone-surface $-1 8.4783880217371461 -18.343365985944192 3.659364445967324 0 0.51503808176128008 -0.85716729658548041 2 0 0 1 I I 0 1 2 forward I I I I #
face $-1 $180 $181 $62 $-1 $182 forward single #
loop $-1 $183 $184 $80 #
cone-surface $-1 14.590813780727416 -18.343365985944192 3.659364445967324 0 0.51503808176128008 -0.85716729658548041 2 0 0 1 I I 0 1 2 forward I I I I #
face $-1 $185 $186 $63 $-1 $187 forward single #
loop $-1 $188 $189 $81 #
cone-surface $-1 20.703239539717714 -18.343365985944192 3.659364445967324 0 0.51503808176128008 -0.85716729658548041 2 0 0 1 I I 0 1 2 forward I I I I #
face $-1 $190 $191 $64 $-1 $192 reversed single #
loop $-1 $-1 $193 $82 #
plane-surface $-1 -53.187204377674419 45.967635971509495 135.83656971392034 1 0 0 0 -0.51503808176128008 -0.85716729658548041 forward_v I I I I #
face $-1 $194 $195 $65 $-1 $196 forward single #
loop $-1 $197 $198 $83 #
cone-surface $-1 -49.112253871680899 18.343365985944192 3.6593644459673276 0 -0.51503808176128008 -0.85716729658548041 2 0 0 1 I I 0 1 2 forward I I I I #
face $-1 $199 $200 $66 $-1 $201 forward single #
loop $-1 $202 $203 $84 #
cone-surface $-1 -42.999828112690615 18.343365985944192 3.6593644459673276 0 -0.51503808176128008 -0.85716729658548041 2 0 0 1 I I 0 1 2 forward I I I I #
face $-1 $204 $205 $67 $-1 $206 forward single #
loop $-1 $207 $208 $85 #
cone-surface $-1 -36.887402353700331 18.343365985944192 3.6593644459673276 0 -0.51503808176128008 -0.85716729658548041 2 0 0 1 I I 0 1 2 forward I I I I #
face $-1 $209 $210 $68 $-1 $211 reversed single #
loop $-1 $-1 $212 $86 #
plane-surface $-1 4.4034375157436116 45.967635971509495 135.83656971392034 1 0 0 0 -0.51503808176128008 -0.85716729658548041 forward_v I I I I #
face $-1 $213 $214 $69 $-1 $215 forward single #
loop $-1 $216 $217 $87 #
cone-surface $-1 8.4783880217371461 18.343365985944192 3.6593644459673276 0 -0.51503808176128008 -0.85716729658548041 2 0 0 1 I I 0 1 2 forward I I I I #
face $-1 $218 $219 $70 $-1 $220 forward single #
loop $-1 $221 $222 $88 #
cone-surface $-1 14.590813780727416 18.343365985944192 3.6593644459673276 0 -0.51503808176128008 -0.85716729658548041 2 0 0 1 I I 0 1 2 forward I I I I #
face $-1 $223 $224 $71 $-1 $225 forward single #
loop $-1 $226 $227 $89 #
cone-surface $-1 20.703239539717714 18.343365985944192 3.6593644459673276 0 -0.51503808176128008 -0.85716729658548041 2 0 0 1 I I 0 1 2 forward I I I I #
face $-1 $228 $229 $54 $-1 $230 reversed single #
loop $-1 $-1 $231 $90 #
plane-surface $-1 0 0 -9.6239359441196921 0 0 1 1 0 0 forward_v I I I I #
coedge $-1 $232 $233 $234 $235 forward $91 $-1 #
face $-1 $236 $237 $55 $-1 $238 forward single #
loop $-1 $-1 $239 $93 #
plane-surface $-1 -57.590641893418038 -20.945208718975987 0 0 -1 0 0 0 -1 forward_v I I I I #
coedge $-1 $240 $241 $242 $243 reversed $94 $-1 #
face $-1 $244 $245 $56 $-1 $246 forward single #
loop $-1 $-1 $247 $96 #
plane-surface $-1 -32.812451847706811 -88.904292103144286 110.03762346460367 -1 0 0 0 -0.51503808176128008 0.85716729658548041 forward_v I I I I #
coedge $-1 $248 $249 $250 $251 reversed $97 $-1 #
face $-1 $-1 $252 $57 $-1 $253 forward single #
loop $-1 $254 $255 $99 #
cone-surface $-1 -49.112253871680899 -16.006447688756776 -0.22992065755582125 0 0.51503808176128008 -0.85716729658548041 1 0 0 1 I I -0.70710678118654735 0.70710678118654768 1 forward I I I I #
loop $-1 $-1 $256 $75 #
coedge $-1 $160 $160 $257 $258 reversed $100 $-1 #
face $-1 $-1 $259 $58 $-1 $260 forward single #
loop $-1 $261 $262 $102 #
cone-surface $-1 -42.999828112690615 -16.006447688756776 -0.22992065755582125 0 0.51503808176128008 -0.85716729658548041 1 0 0 1 I I -0.70710678118654735 0.70710678118654768 1 forward I I I I #
loop $-1 $-1 $263 $76 #
coedge $-1 $165 $165 $264 $265 reversed $103 $-1 #
face $-1 $-1 $266 $59 $-1 $267 forward single #
loop $-1 $268 $269 $105 #
cone-surface $-1 -36.887402353700331 -16.006447688756776 -0.22992065755582125 0 0.51503808176128008 -0.85716729658548041 1 0 0 1 I I -0.70710678118654735 0.70710678118654768 1 forward I I I I #
loop $-1 $-1 $270 $77 #
coedge $-1 $170 $170 $271 $272 reversed $106 $-1 #
face $-1 $273 $274 $60 $-1 $275 reversed single #
loop $-1 $-1 $276 $108 #
plane-surface $-1 14.590813780727416 -25.045668624242104 3.7590285616902861 0 -0.51503808176128008 0.85716729658548041 1 0 0 forward_v I I I I #
coedge $-1 $277 $278 $279 $280 reversed $109 $-1 #
face $-1 $-1 $281 $61 $-1 $282 forward single #
loop $-1 $283 $284 $111 #
cone-surface $-1 8.4783880217371461 -16.006447688756776 -0.22992065755582125 0 0.51503808176128008 -0.85716729658548041 1 0 0 1 I I -0.70710678118654735 0.70710678118654768 1 forward I I I I #
loop $-1 $-1 $285 $79 #
coedge $-1 $179 $179 $286 $287 reversed $112 $-1 #
face $-1 $-1 $288 $62 $-1 $289 forward single #
loop $-1 $290 $291 $114 #
cone-surface $-1 14.590813780727416 -16.006447688756776 -0.22992065755582125 0 0.51503808176128008 -0.85716729658548041 1 0 0 1 I I -0.70710678118654735 0.70710678118654768 1 forward I I I I #
loop $-1 $-1 $292 $80 #
coedge $-1 $184 $184 $293 $294 reversed $115 $-1 #
face $-1 $-1 $295 $63 $-1 $296 forward single #
loop $-1 $297 $298 $117 #
cone-surface $-1 20.703239539717714 -16.006447688756776 -0.22992065755582125 0 0.51503808176128008 -0.85716729658548041 1 0 0 1 I I -0.70710678118654735 0.70710678118654768 1 forward I I I I #
loop $-1 $-1 $299 $81 #
coedge $-1 $189 $189 $300 $301 reversed $118 $-1 #
face $-1 $302 $303 $64 $-1 $304 reversed single #
loop $-1 $-1 $305 $120 #
plane-surface $-1 -42.999828112690615 -17.890987507392687 29.557974811006957 0 0.51503808176128008 0.85716729658548041 1 0 0 forward_v I I I I #
coedge $-1 $306 $307 $308 $309 reversed $121 $-1 #
face $-1 $-1 $310 $65 $-1 $311 forward single #
loop $-1 $312 $313 $123 #
cone-surface $-1 -49.112253871680899 16.006447688756776 -0.2299206575558177 0 -0.51503808176128008 -0.85716729658548041 1 0 0 1 I I -0.70710678118654735 0.70710678118654768 1 forward I I I I #
loop $-1 $-1 $314 $83 #
coedge $-1 $198 $198 $315 $316 reversed $124 $-1 #
face $-1 $-1 $317 $66 $-1 $318 forward single #
loop $-1 $319 $320 $126 #
cone-surface $-1 -42.999828112690615 16.006447688756776 -0.2299206575558177 0 -0.51503808176128008 -0.85716729658548041 1 0 0 1 I I -0.70710678118654735 0.70710678118654768 1 forward I I I I #
loop $-1 $-1 $321 $84 #
coedge $-1 $203 $203 $322 $323 reversed $127 $-1 #
face $-1 $-1 $324 $67 $-1 $325 forward single #
loop $-1 $326 $327 $129 #
cone-surface $-1 -36.887402353700331 16.006447688756776 -0.2299206575558177 0 -0.51503808176128008 -0.85716729658548041 1 0 0 1 I I -0.70710678118654735 0.70710678118654768 1 forward I I I I #
loop $-1 $-1 $328 $85 #
coedge $-1 $208 $208 $329 $330 reversed $130 $-1 #
face $-1 $331 $332 $68 $-1 $333 reversed single #
loop $-1 $-1 $334 $132 #
plane-surface $-1 14.590813780727416 -17.890987507392687 29.557974811006957 0 0.51503808176128008 0.85716729658548041 1 0 0 forward_v I I I I #
coedge $-1 $335 $336 $337 $338 reversed $133 $-1 #
face $-1 $-1 $339 $69 $-1 $340 forward single #
loop $-1 $341 $342 $135 #
cone-surface $-1 8.4783880217371461 16.006447688756776 -0.2299206575558177 0 -0.51503808176128008 -0.85716729658548041 1 0 0 1 I I -0.70710678118654735 0.70710678118654768 1 forward I I I I #
loop $-1 $-1 $343 $87 #
coedge $-1 $217 $217 $344 $345 reversed $136 $-1 #
face $-1 $-1 $346 $70 $-1 $347 forward single #
loop $-1 $348 $349 $138 #
cone-surface $-1 14.590813780727416 16.006447688756776 -0.2299206575558177 0 -0.51503808176128008 -0.85716729658548041 1 0 0 1 I I -0.70710678118654735 0.70710678118654768 1 forward I I I I #
loop $-1 $-1 $350 $88 #
coedge $-1 $222 $222 $351 $352 reversed $139 $-1 #
face $-1 $-1 $353 $71 $-1 $354 forward single #
loop $-1 $355 $356 $141 #
cone-surface $-1 20.703239539717714 16.006447688756776 -0.2299206575558177 0 -0.51503808176128008 -0.85716729658548041 1 0 0 1 I I -0.70710678118654735 0.70710678118654768 1 forward I I I I #
loop $-1 $-1 $357 $89 #
coedge $-1 $227 $227 $358 $359 reversed $142 $-1 #
face $-1 $360 $361 $54 $-1 $362 reversed single #
loop $-1 $-1 $363 $144 #
plane-surface $-1 0 -25.045668624242108 0 0 1 0 0 0 1 forward_v I I I I #
coedge $-1 $364 $365 $366 $367 forward $145 $-1 #
coedge $-1 $368 $147 $369 $370 forward $91 $-1 #
coedge $-1 $147 $368 $371 $372 forward $91 $-1 #
coedge $-1 $373 $374 $147 $235 reversed $375 $-1 #
edge $-1 $376 -25.045668624242108 $377 25.045668624242108 $234 $378 forward 7 unknown #
face $-1 $379 $380 $55 $-1 $381 reversed single #
loop $-1 $-1 $382 $148 #
plane-surface $-1 0 0 9.6239359441196921 0 0 1 1 0 0 forward_v I I I I #
coedge $-1 $383 $384 $385 $386 forward $149 $-1 #
coedge $-1 $385 $151 $387 $388 reversed $94 $-1 #
coedge $-1 $151 $385 $382 $389 reversed $94 $-1 #
coedge $-1 $390 $391 $151 $243 forward $392 $-1 #
edge $-1 $393 -9.6239359441196921 $394 9.6239359441196921 $242 $395 forward 7 unknown #
face $-1 $396 $397 $56 $-1 $398 forward single #
loop $-1 $-1 $399 $152 #
plane-surface $-1 0 0 9.6239359441196921 0 0 1 1 0 0 forward_v I I I I #
coedge $-1 $400 $401 $402 $403 reversed $153 $-1 #
coedge $-1 $404 $155 $405 $406 reversed $97 $-1 #
coedge $-1 $155 $404 $400 $407 forward $97 $-1 #
coedge $-1 $402 $408 $155 $251 forward $409 $-1 #
edge $-1 $410 -31.687290321329112 $411 -11.312537791361503 $250 $412 forward 7 unknown #
loop $-1 $-1 $257 $156 #
plane-surface $-1 -42.999828112690615 -25.045668624242104 3.7590285616902861 0 -0.51503808176128008 0.85716729658548041 1 0 0 forward_v I I I I #
loop $-1 $-1 $413 $99 #
coedge $-1 $255 $255 $256 $414 reversed $157 $-1 #
coedge $-1 $256 $256 $255 $414 forward $159 $-1 #
coedge $-1 $257 $257 $160 $258 forward $252 $-1 #
edge $-1 $415 -1.0651892802557235e-015 $415 6.2831853071795996 $257 $416 forward 7 unknown #
loop $-1 $-1 $264 $161 #
plane-surface $-1 -42.999828112690615 -25.045668624242104 3.7590285616902861 0 -0.51503808176128008 0.85716729658548041 1 0 0 forward_v I I I I #
loop $-1 $-1 $417 $102 #
coedge $-1 $262 $262 $263 $418 reversed $162 $-1 #
coedge $-1 $263 $263 $262 $418 forward $164 $-1 #
coedge $-1 $264 $264 $165 $265 forward $259 $-1 #
edge $-1 $419 -1.0651892802557235e-015 $419 6.2831853071795996 $264 $420 forward 7 unknown #
loop $-1 $-1 $271 $166 #
plane-surface $-1 -42.999828112690615 -25.045668624242104 3.7590285616902861 0 -0.51503808176128008 0.85716729658548041 1 0 0 forward_v I I I I #
loop $-1 $-1 $421 $105 #
coedge $-1 $269 $269 $270 $422 reversed $167 $-1 #
coedge $-1 $270 $270 $269 $422 forward $169 $-1 #
coedge $-1 $271 $271 $170 $272 forward $266 $-1 #
edge $-1 $423 -1.0651892802557235e-015 $423 6.2831853071795996 $271 $424 forward 7 unknown #
face $-1 $425 $426 $60 $-1 $427 forward single #
loop $-1 $-1 $428 $171 #
plane-surface $-1 4.4034375157436116 -88.904292103144286 110.03762346460367 1 0 0 0 0.51503808176128008 -0.85716729658548041 forward_v I I I I #
coedge $-1 $429 $430 $431 $432 reversed $172 $-1 #
coedge $-1 $278 $174 $433 $434 reversed $109 $-1 #
coedge $-1 $174 $277 $429 $435 reversed $109 $-1 #
coedge $-1 $431 $436 $174 $280 forward $426 $-1 #
edge $-1 $437 19.406477427330035 $438 29.167322273073598 $279 $439 forward 7 unknown #
loop $-1 $-1 $286 $175 #
plane-surface $-1 14.590813780727416 -25.045668624242104 3.7590285616902861 0 -0.51503808176128008 0.85716729658548041 1 0 0 forward_v I I I I #
loop $-1 $-1 $440 $111 #
coedge $-1 $284 $284 $285 $441 reversed $176 $-1 #
coedge $-1 $285 $285 $284 $441 forward $178 $-1 #
coedge $-1 $286 $286 $179 $287 forward $281 $-1 #
edge $-1 $442 -1.0651892802557235e-015 $442 6.2831853071795996 $286 $443 forward 7 unknown #
loop $-1 $-1 $293 $180 #
plane-surface $-1 14.590813780727416 -25.045668624242104 3.7590285616902861 0 -0.51503808176128008 0.85716729658548041 1 0 0 forward_v I I I I #
loop $-1 $-1 $444 $114 #
coedge $-1 $291 $291 $292 $445 reversed $181 $-1 #
coedge $-1 $292 $292 $291 $445 forward $183 $-1 #
coedge $-1 $293 $293 $184 $294 forward $288 $-1 #
edge $-1 $446 -1.0651892802557235e-015 $446 6.2831853071795996 $293 $447 forward 7 unknown #
loop $-1 $-1 $300 $185 #
plane-surface $-1 14.590813780727416 -25.045668624242104 3.7590285616902861 0 -0.51503808176128008 0.85716729658548041 1 0 0 forward_v I I I I #
loop $-1 $-1 $448 $117 #
coedge $-1 $298 $298 $299 $449 reversed $186 $-1 #
coedge $-1 $299 $299 $298 $449 forward $188 $-1 #
coedge $-1 $300 $300 $189 $301 forward $295 $-1 #
edge $-1 $450 -1.0651892802557235e-015 $450 6.2831853071795996 $300 $451 forward 7 unknown #
face $-1 $452 $453 $64 $-1 $454 reversed single #
loop $-1 $-1 $455 $190 #
plane-surface $-1 -32.812451847706811 45.967635971509495 135.83656971392034 -1 0 0 0 0.51503808176128008 0.85716729658548041 forward_v I I I I #
coedge $-1 $456 $457 $458 $459 reversed $191 $-1 #
coedge $-1 $307 $193 $460 $461 reversed $121 $-1 #
coedge $-1 $193 $306 $456 $462 reversed $121 $-1 #
coedge $-1 $458 $463 $193 $309 forward $464 $-1 #
edge $-1 $465 -2.0618506384873605 $466 7.6989942072561988 $308 $467 forward 7 unknown #
loop $-1 $-1 $315 $194 #
plane-surface $-1 -42.999828112690615 -17.890987507392687 29.557974811006957 0 0.51503808176128008 0.85716729658548041 1 0 0 forward_v I I I I #
loop $-1 $-1 $468 $123 #
coedge $-1 $313 $313 $314 $469 reversed $195 $-1 #
coedge $-1 $314 $314 $313 $469 forward $197 $-1 #
coedge $-1 $315 $315 $198 $316 forward $310 $-1 #
edge $-1 $470 3.7902071593954706e-016 $470 6.2831853071796004 $315 $471 forward 7 unknown #
loop $-1 $-1 $322 $199 #
plane-surface $-1 -42.999828112690615 -17.890987507392687 29.557974811006957 0 0.51503808176128008 0.85716729658548041 1 0 0 forward_v I I I I #
loop $-1 $-1 $472 $126 #
coedge $-1 $320 $320 $321 $473 reversed $200 $-1 #
coedge $-1 $321 $321 $320 $473 forward $202 $-1 #
coedge $-1 $322 $322 $203 $323 forward $317 $-1 #
edge $-1 $474 3.7902071593954706e-016 $474 6.2831853071796004 $322 $475 forward 7 unknown #
loop $-1 $-1 $329 $204 #
plane-surface $-1 -42.999828112690615 -17.890987507392687 29.557974811006957 0 0.51503808176128008 0.85716729658548041 1 0 0 forward_v I I I I #
loop $-1 $-1 $476 $129 #
coedge $-1 $327 $327 $328 $477 reversed $205 $-1 #
coedge $-1 $328 $328 $327 $477 forward $207 $-1 #
coedge $-1 $329 $329 $208 $330 forward $324 $-1 #
edge $-1 $478 3.7902071593954706e-016 $478 6.2831853071796004 $329 $479 forward 7 unknown #
face $-1 $480 $481 $68 $-1 $482 forward single #
loop $-1 $-1 $483 $209 #
plane-surface $-1 24.77819004571122 45.967635971509495 135.83656971392034 -1 0 0 0 0.51503808176128008 0.85716729658548041 forward_v I I I I #
coedge $-1 $484 $485 $486 $487 reversed $210 $-1 #
coedge $-1 $336 $212 $488 $489 reversed $133 $-1 #
coedge $-1 $212 $335 $484 $490 reversed $133 $-1 #
coedge $-1 $486 $491 $212 $338 forward $481 $-1 #
edge $-1 $492 -2.0618506384873605 $493 7.6989942072561988 $337 $494 forward 7 unknown #
loop $-1 $-1 $344 $213 #
plane-surface $-1 14.590813780727416 -17.890987507392687 29.557974811006957 0 0.51503808176128008 0.85716729658548041 1 0 0 forward_v I I I I #
loop $-1 $-1 $495 $135 #
coedge $-1 $342 $342 $343 $496 reversed $214 $-1 #
coedge $-1 $343 $343 $342 $496 forward $216 $-1 #
coedge $-1 $344 $344 $217 $345 forward $339 $-1 #
edge $-1 $497 3.7902071593954706e-016 $497 6.2831853071796004 $344 $498 forward 7 unknown #
loop $-1 $-1 $351 $218 #
plane-surface $-1 14.590813780727416 -17.890987507392687 29.557974811006957 0 0.51503808176128008 0.85716729658548041 1 0 0 forward_v I I I I #
loop $-1 $-1 $499 $138 #
coedge $-1 $349 $349 $350 $500 reversed $219 $-1 #
coedge $-1 $350 $350 $349 $500 forward $221 $-1 #
coedge $-1 $351 $351 $222 $352 forward $346 $-1 #
edge $-1 $501 3.7902071593954706e-016 $501 6.2831853071796004 $351 $502 forward 7 unknown #
loop $-1 $-1 $358 $223 #
plane-surface $-1 14.590813780727416 -17.890987507392687 29.557974811006957 0 0.51503808176128008 0.85716729658548041 1 0 0 forward_v I I I I #
loop $-1 $-1 $503 $141 #
coedge $-1 $356 $356 $357 $504 reversed $224 $-1 #
coedge $-1 $357 $357 $356 $504 forward $226 $-1 #
coedge $-1 $358 $358 $227 $359 forward $353 $-1 #
edge $-1 $505 3.7902071593954706e-016 $505 6.2831853071796004 $358 $506 forward 7 unknown #
face $-1 $507 $508 $54 $-1 $509 reversed single #
loop $-1 $-1 $510 $228 #
plane-surface $-1 -61.994079409161657 0 0 1 0 0 0 0 -1 forward_v I I I I #
coedge $-1 $511 $371 $512 $513 forward $229 $-1 #
coedge $-1 $514 $231 $511 $515 forward $145 $-1 #
coedge $-1 $231 $514 $516 $517 forward $145 $-1 #
coedge $-1 $374 $373 $231 $367 reversed $375 $-1 #
edge $-1 $518 -25.045668624242108 $519 25.045668624242108 $366 $520 forward 7 unknown #
coedge $-1 $233 $232 $521 $522 forward $91 $-1 #
coedge $-1 $523 $524 $232 $370 reversed $508 $-1 #
edge $-1 $377 -61.994079409161657 $525 61.994079409161657 $369 $526 forward 7 unknown #
coedge $-1 $363 $527 $233 $372 reversed $229 $-1 #
edge $-1 $528 -61.994079409161657 $376 61.994079409161657 $371 $529 forward 7 unknown #
coedge $-1 $366 $234 $527 $530 forward $375 $-1 #
coedge $-1 $234 $366 $523 $531 reversed $375 $-1 #
loop $-1 $-1 $373 $507 #
vertex $-1 $235 $532 #
vertex $-1 $235 $533 #
straight-curve $-1 61.994079409161657 0 9.6239359441196921 0 1 0 I I #
face $-1 $534 $535 $55 $-1 $536 reversed single #
loop $-1 $-1 $537 $236 #
plane-surface $-1 -61.994079409161657 0 0 1 0 0 0 0 -1 forward_v I I I I #
coedge $-1 $538 $539 $241 $389 forward $237 $-1 #
coedge $-1 $540 $239 $541 $542 reversed $149 $-1 #
coedge $-1 $239 $540 $538 $543 reversed $149 $-1 #
coedge $-1 $241 $240 $239 $386 reversed $94 $-1 #
edge $-1 $544 -9.6239359441196921 $545 9.6239359441196921 $385 $546 forward 7 unknown #
coedge $-1 $547 $541 $240 $388 forward $535 $-1 #
edge $-1 $545 9.4474893831714635 $393 13.547949288437584 $387 $548 forward 7 unknown #
edge $-1 $394 -13.547949288437584 $544 -9.4474893831714635 $382 $549 forward 7 unknown #
coedge $-1 $550 $242 $539 $551 reversed $392 $-1 #
coedge $-1 $242 $550 $547 $552 reversed $392 $-1 #
loop $-1 $-1 $242 $534 #
vertex $-1 $552 $553 #
vertex $-1 $243 $554 #
straight-curve $-1 -53.187204377674419 -25.045668624242108 0 0 0 1 I I #
face $-1 $-1 $409 $56 $-1 $555 reversed single #
loop $-1 $-1 $405 $244 #
plane-surface $-1 -53.187204377674419 -22.995438671609048 0 -1 0 0 0 0 1 forward_v I I I I #
coedge $-1 $556 $557 $401 $558 forward $245 $-1 #
coedge $-1 $401 $247 $249 $407 reversed $153 $-1 #
coedge $-1 $247 $400 $399 $558 reversed $153 $-1 #
coedge $-1 $559 $250 $247 $403 forward $409 $-1 #
edge $-1 $411 -51.259783170611549 $560 -45.394875788182141 $402 $561 forward 7 unknown #
coedge $-1 $249 $248 $556 $562 reversed $97 $-1 #
coedge $-1 $563 $564 $248 $406 forward $397 $-1 #
edge $-1 $565 -11.476654033681225 $410 -0.089326396910880734 $405 $566 forward 7 unknown #
edge $-1 $567 -11.387327636770339 $411 4.1888842534599766e-015 $400 $568 forward 7 unknown #
coedge $-1 $250 $559 $563 $569 forward $409 $-1 #
loop $-1 $-1 $402 $396 #
vertex $-1 $406 $570 #
vertex $-1 $251 $571 #
straight-curve $-1 -21.499914056345308 -25.045668624242108 3.759028561690283 1 0 0 I I #
coedge $-1 $413 $413 $-1 $572 reversed $254 $-1 #
edge $-1 $573 0 $573 6.2831853071796004 $255 $574 forward 7 unknown #
vertex $-1 $258 $575 #
ellipse-curve $-1 -49.112253871680899 -20.165246201370326 6.6914822529049873 0 -0.51503808176128008 0.85716729658548041 2 0 0 1 I I #
coedge $-1 $417 $417 $-1 $576 reversed $261 $-1 #
edge $-1 $577 0 $577 6.2831853071796004 $262 $578 forward 7 unknown #
vertex $-1 $265 $579 #
ellipse-curve $-1 -42.999828112690615 -20.165246201370326 6.6914822529049873 0 -0.51503808176128008 0.85716729658548041 2 0 0 1 I I #
coedge $-1 $421 $421 $-1 $580 reversed $268 $-1 #
edge $-1 $581 0 $581 6.2831853071796004 $269 $582 forward 7 unknown #
vertex $-1 $272 $583 #
ellipse-curve $-1 -36.887402353700331 -20.165246201370326 6.6914822529049873 0 -0.51503808176128008 0.85716729658548041 2 0 0 1 I I #
face $-1 $-1 $584 $60 $-1 $585 reversed single #
loop $-1 $-1 $279 $273 #
plane-surface $-1 0 0 9.6239359441196921 0 0 1 1 0 0 forward_v I I I I #
coedge $-1 $586 $587 $588 $589 reversed $274 $-1 #
coedge $-1 $590 $276 $278 $435 forward $172 $-1 #
coedge $-1 $276 $590 $586 $591 forward $172 $-1 #
coedge $-1 $588 $279 $276 $432 forward $426 $-1 #
edge $-1 $438 -17.482783155347512 $592 2.8919693746200963 $431 $593 forward 7 unknown #
coedge $-1 $594 $595 $277 $434 forward $584 $-1 #
edge $-1 $596 -51.259783170611549 $437 -45.394875788182141 $433 $597 forward 7 unknown #
edge $-1 $438 -11.387327636770339 $596 4.1888842534599766e-015 $278 $598 forward 7 unknown #
coedge $-1 $279 $588 $594 $599 forward $426 $-1 #
vertex $-1 $434 $600 #
vertex $-1 $280 $601 #
straight-curve $-1 24.77819004571122 -44.452146051572143 9.6239359441196939 0 1 0 I I #
coedge $-1 $440 $440 $-1 $602 reversed $283 $-1 #
edge $-1 $603 0 $603 6.2831853071796004 $284 $604 forward 7 unknown #
vertex $-1 $287 $605 #
ellipse-curve $-1 8.4783880217371461 -20.165246201370326 6.6914822529049873 0 -0.51503808176128008 0.85716729658548041 2 0 0 1 I I #
coedge $-1 $444 $444 $-1 $606 reversed $290 $-1 #
edge $-1 $607 0 $607 6.2831853071796004 $291 $608 forward 7 unknown #
vertex $-1 $294 $609 #
ellipse-curve $-1 14.590813780727416 -20.165246201370326 6.6914822529049873 0 -0.51503808176128008 0.85716729658548041 2 0 0 1 I I #
coedge $-1 $448 $448 $-1 $610 reversed $297 $-1 #
edge $-1 $611 0 $611 6.2831853071796004 $298 $612 forward 7 unknown #
vertex $-1 $301 $613 #
ellipse-curve $-1 20.703239539717714 -20.165246201370326 6.6914822529049873 0 -0.51503808176128008 0.85716729658548041 2 0 0 1 I I #
face $-1 $-1 $464 $64 $-1 $614 forward single #
loop $-1 $-1 $615 $302 #
plane-surface $-1 0 25.045668624242108 0 0 -1 0 0 0 -1 forward_v I I I I #
coedge $-1 $616 $617 $618 $619 reversed $303 $-1 #
coedge $-1 $620 $305 $307 $462 forward $191 $-1 #
coedge $-1 $305 $620 $616 $621 forward $191 $-1 #
coedge $-1 $618 $308 $305 $459 forward $464 $-1 #
edge $-1 $466 -31.687290321329112 $622 -11.312537791361503 $458 $623 forward 7 unknown #
coedge $-1 $624 $625 $306 $461 forward $453 $-1 #
edge $-1 $626 -64.159256295269884 $465 -58.294348912840476 $460 $627 forward 7 unknown #
edge $-1 $466 38.704009611713879 $626 50.091337248484209 $307 $628 forward 7 unknown #
coedge $-1 $308 $618 $624 $629 forward $464 $-1 #
loop $-1 $-1 $618 $452 #
vertex $-1 $461 $630 #
vertex $-1 $309 $631 #
straight-curve $-1 -53.187204377674419 22.983817985754747 9.6239359441196939 0 -1 0 I I #
coedge $-1 $468 $468 $-1 $632 reversed $312 $-1 #
edge $-1 $633 0 $633 6.2831853071796004 $313 $634 forward 7 unknown #
vertex $-1 $316 $635 #
ellipse-curve $-1 -49.112253871680899 20.165246201370326 6.6914822529049882 0 0.51503808176128008 0.85716729658548041 2 0 0 1 I I #
coedge $-1 $472 $472 $-1 $636 reversed $319 $-1 #
edge $-1 $637 0 $637 6.2831853071796004 $320 $638 forward 7 unknown #
vertex $-1 $323 $639 #
ellipse-curve $-1 -42.999828112690615 20.165246201370326 6.6914822529049882 0 0.51503808176128008 0.85716729658548041 2 0 0 1 I I #
coedge $-1 $476 $476 $-1 $640 reversed $326 $-1 #
edge $-1 $641 0 $641 6.2831853071796004 $327 $642 forward 7 unknown #
vertex $-1 $330 $643 #
ellipse-curve $-1 -36.887402353700331 20.165246201370326 6.6914822529049882 0 0.51503808176128008 0.85716729658548041 2 0 0 1 I I #
face $-1 $-1 $644 $68 $-1 $645 reversed single #
loop $-1 $-1 $337 $331 #
plane-surface $-1 0 0 9.6239359441196921 0 0 1 1 0 0 forward_v I I I I #
coedge $-1 $646 $647 $648 $649 reversed $332 $-1 #
coedge $-1 $650 $334 $336 $490 forward $210 $-1 #
coedge $-1 $334 $650 $646 $651 forward $210 $-1 #
coedge $-1 $648 $337 $334 $487 forward $481 $-1 #
edge $-1 $493 -2.8919693746200963 $652 17.482783155347512 $486 $653 forward 7 unknown #
coedge $-1 $654 $655 $335 $489 forward $644 $-1 #
edge $-1 $656 -64.159256295269884 $492 -58.294348912840476 $488 $657 forward 7 unknown #
edge $-1 $493 38.704009611713879 $656 50.091337248484209 $336 $658 forward 7 unknown #
coedge $-1 $337 $648 $654 $659 forward $481 $-1 #
vertex $-1 $489 $660 #
vertex $-1 $338 $661 #
straight-curve $-1 4.4034375157436116 22.983817985754747 9.6239359441196939 0 -1 0 I I #
coedge $-1 $495 $495 $-1 $662 reversed $341 $-1 #
edge $-1 $663 0 $663 6.2831853071796004 $342 $664 forward 7 unknown #
vertex $-1 $345 $665 #
ellipse-curve $-1 8.4783880217371461 20.165246201370326 6.6914822529049882 0 0.51503808176128008 0.85716729658548041 2 0 0 1 I I #
coedge $-1 $499 $499 $-1 $666 reversed $348 $-1 #
edge $-1 $667 0 $667 6.2831853071796004 $349 $668 forward 7 unknown #
vertex $-1 $352 $669 #
ellipse-curve $-1 14.590813780727416 20.165246201370326 6.6914822529049882 0 0.51503808176128008 0.85716729658548041 2 0 0 1 I I #
coedge $-1 $503 $503 $-1 $670 reversed $355 $-1 #
edge $-1 $671 0 $671 6.2831853071796004 $356 $672 forward 7 unknown #
vertex $-1 $359 $673 #
ellipse-curve $-1 20.703239539717714 20.165246201370326 6.6914822529049882 0 0.51503808176128008 0.85716729658548041 2 0 0 1 I I #
face $-1 $-1 $375 $54 $-1 $674 reversed single #
loop $-1 $-1 $523 $360 #
plane-surface $-1 0 25.045668624242108 0 0 -1 0 0 0 -1 forward_v I I I I #
coedge $-1 $675 $521 $524 $676 forward $361 $-1 #
coedge $-1 $527 $363 $364 $515 reversed $229 $-1 #
coedge $-1 $521 $675 $363 $513 reversed $361 $-1 #
edge $-1 $528 -9.6239359441196921 $677 9.6239359441196921 $512 $678 forward 7 unknown #
coedge $-1 $365 $364 $675 $679 forward $145 $-1 #
edge $-1 $519 -61.994079409161657 $677 61.994079409161657 $511 $680 forward 7 unknown #
coedge $-1 $524 $523 $365 $517 reversed $508 $-1 #
edge $-1 $681 -61.994079409161657 $518 61.994079409161657 $516 $682 forward 7 unknown #
vertex $-1 $367 $683 #
vertex $-1 $530 $684 #
straight-curve $-1 61.994079409161657 0 -9.6239359441196921 0 -1 0 I I #
coedge $-1 $510 $512 $368 $522 reversed $361 $-1 #
edge $-1 $525 -25.045668624242108 $528 25.045668624242108 $521 $685 forward 7 unknown #
coedge $-1 $516 $369 $374 $531 forward $508 $-1 #
coedge $-1 $369 $516 $510 $676 reversed $508 $-1 #
vertex $-1 $370 $686 #
straight-curve $-1 0 25.045668624242108 9.6239359441196921 -1 0 0 I I #
coedge $-1 $371 $511 $373 $530 reversed $229 $-1 #
vertex $-1 $522 $687 #
straight-curve $-1 0 -25.045668624242108 9.6239359441196921 1 0 0 I I #
edge $-1 $376 -9.6239359441196921 $519 9.6239359441196921 $373 $688 forward 7 unknown #
edge $-1 $377 -9.6239359441196921 $518 9.6239359441196921 $374 $689 forward 7 unknown #
point $-1 61.994079409161657 -25.045668624242108 9.6239359441196921 #
point $-1 61.994079409161657 25.045668624242108 9.6239359441196921 #
face $-1 $-1 $392 $55 $-1 $690 reversed single #
loop $-1 $-1 $387 $379 #
plane-surface $-1 0 0 -9.6239359441196921 0 0 1 1 0 0 forward_v I I I I #
coedge $-1 $691 $692 $540 $693 forward $380 $-1 #
coedge $-1 $694 $382 $384 $543 forward $237 $-1 #
coedge $-1 $382 $694 $390 $551 forward $237 $-1 #
coedge $-1 $384 $383 $537 $693 reversed $149 $-1 #
coedge $-1 $387 $695 $383 $542 forward $535 $-1 #
edge $-1 $696 -33.198758462452638 $545 -24.3918834309654 $541 $697 forward 7 unknown #
edge $-1 $544 24.3918834309654 $698 33.198758462452638 $538 $699 forward 7 unknown #
vertex $-1 $543 $700 #
vertex $-1 $542 $701 #
straight-curve $-1 -53.187204377674419 -20.945208718975987 0 0 0 -1 I I #
coedge $-1 $695 $387 $391 $552 forward $535 $-1 #
straight-curve $-1 -53.187204377674419 -11.497719335804524 -9.6239359441196921 0 -1 0 I I #
straight-curve $-1 -53.187204377674419 -11.497719335804524 9.6239359441196921 0 1 0 I I #
coedge $-1 $391 $390 $702 $703 forward $392 $-1 #
edge $-1 $704 -61.994079409161657 $394 -53.187204377674419 $390 $705 forward 7 unknown #
edge $-1 $393 53.187204377674419 $706 61.994079409161657 $391 $707 forward 7 unknown #
point $-1 -53.187204377674419 -25.045668624242108 -9.6239359441196921 #
point $-1 -53.187204377674419 -25.045668624242108 9.6239359441196921 #
plane-surface $-1 0 -25.045668624242108 0 0 1 0 0 0 1 forward_v I I I I #
coedge $-1 $708 $399 $404 $562 forward $245 $-1 #
coedge $-1 $399 $708 $559 $709 forward $245 $-1 #
edge $-1 $560 19.406477427330035 $567 29.167322273073598 $399 $710 forward 7 unknown #
coedge $-1 $408 $402 $557 $709 reversed $409 $-1 #
vertex $-1 $558 $711 #
straight-curve $-1 -32.812451847706811 -25.045668624242108 55.018811732301835 0 0 1 I I #
edge $-1 $567 11.312537791361503 $565 31.687290321329112 $556 $712 forward 7 unknown #
coedge $-1 $564 $405 $408 $569 reversed $397 $-1 #
coedge $-1 $405 $563 $708 $713 reversed $397 $-1 #
vertex $-1 $713 $714 #
straight-curve $-1 -53.187204377674419 -25.122236290395929 3.7130220655746564 0 -0.85716729658548041 -0.51503808176128008 I I #
vertex $-1 $562 $715 #
straight-curve $-1 -32.812451847706811 -25.045668624242104 3.7590285616902861 0 -0.85716729658548041 -0.51503808176128008 I I #
edge $-1 $716 -9.6239359441196921 $410 -3.7590285616902839 $408 $717 forward 7 unknown #
point $-1 -53.187204377674419 -25.045668624242108 3.7590285616902839 #
point $-1 -32.812451847706811 -25.045668624242108 3.7590285616902839 #
edge $-1 $718 1 $718 0 $413 $-1 forward 7 unknown #
vertex $-1 $414 $719 #
ellipse-curve $-1 -49.112253871680899 -16.521485770518055 0.62724663902965949 0 -0.51503808176128008 0.85716729658548041 2 0 0 1 I I #
point $-1 -47.112253871680899 -20.16524620137033 6.6914822529049891 #
edge $-1 $720 1 $720 0 $417 $-1 forward 7 unknown #
vertex $-1 $418 $721 #
ellipse-curve $-1 -42.999828112690615 -16.521485770518055 0.62724663902965949 0 -0.51503808176128008 0.85716729658548041 2 0 0 1 I I #
point $-1 -40.999828112690615 -20.16524620137033 6.6914822529049891 #
edge $-1 $722 1 $722 0 $421 $-1 forward 7 unknown #
vertex $-1 $422 $723 #
ellipse-curve $-1 -36.887402353700331 -16.521485770518055 0.62724663902965949 0 -0.51503808176128008 0.85716729658548041 2 0 0 1 I I #
point $-1 -34.887402353700331 -20.16524620137033 6.6914822529049891 #
loop $-1 $-1 $433 $425 #
plane-surface $-1 0 -25.045668624242108 0 0 1 0 0 0 1 forward_v I I I I #
coedge $-1 $587 $428 $430 $591 reversed $274 $-1 #
coedge $-1 $428 $586 $724 $725 reversed $274 $-1 #
coedge $-1 $436 $431 $428 $589 forward $426 $-1 #
edge $-1 $592 -29.167322273073598 $726 -19.406477427330035 $588 $727 forward 7 unknown #
coedge $-1 $430 $429 $595 $728 reversed $172 $-1 #
edge $-1 $729 -4.1888842534599766e-015 $592 11.387327636770339 $586 $730 forward 7 unknown #
vertex $-1 $432 $731 #
straight-curve $-1 7.2954068903637079 -15.284823778498545 9.6239359441196921 -1 0 0 I I #
coedge $-1 $724 $433 $436 $599 reversed $584 $-1 #
coedge $-1 $433 $724 $590 $728 forward $584 $-1 #
vertex $-1 $434 $732 #
straight-curve $-1 24.77819004571122 -25.045668624242108 55.018811732301835 0 0 1 I I #
straight-curve $-1 24.77819004571122 -25.045668624242104 3.7590285616902861 0 -0.85716729658548041 -0.51503808176128008 I I #
edge $-1 $726 4.4034375157436116 $437 24.77819004571122 $594 $733 forward 7 unknown #
point $-1 24.77819004571122 -25.045668624242108 9.6239359441196921 #
point $-1 24.77819004571122 -15.284823778498545 9.6239359441196921 #
edge $-1 $734 1 $734 0 $440 $-1 forward 7 unknown #
vertex $-1 $441 $735 #
ellipse-curve $-1 8.4783880217371461 -16.521485770518055 0.62724663902965949 0 -0.51503808176128008 0.85716729658548041 2 0 0 1 I I #
point $-1 10.478388021737146 -20.16524620137033 6.6914822529049891 #
edge $-1 $736 1 $736 0 $444 $-1 forward 7 unknown #
vertex $-1 $445 $737 #
ellipse-curve $-1 14.590813780727416 -16.521485770518055 0.62724663902965949 0 -0.51503808176128008 0.85716729658548041 2 0 0 1 I I #
point $-1 16.590813780727416 -20.16524620137033 6.6914822529049891 #
edge $-1 $738 1 $738 0 $448 $-1 forward 7 unknown #
vertex $-1 $449 $739 #
ellipse-curve $-1 20.703239539717714 -16.521485770518055 0.62724663902965949 0 -0.51503808176128008 0.85716729658548041 2 0 0 1 I I #
point $-1 22.703239539717714 -20.16524620137033 6.6914822529049891 #
plane-surface $-1 0 0 9.6239359441196921 0 0 1 1 0 0 forward_v I I I I #
coedge $-1 $625 $624 $617 $740 forward $453 $-1 #
coedge $-1 $617 $455 $457 $621 reversed $303 $-1 #
coedge $-1 $455 $616 $615 $740 reversed $303 $-1 #
coedge $-1 $463 $458 $455 $619 forward $464 $-1 #
edge $-1 $622 -7.6989942072561988 $741 2.0618506384873605 $618 $742 forward 7 unknown #
coedge $-1 $457 $456 $625 $743 reversed $191 $-1 #
edge $-1 $744 -50.091337248484209 $622 -38.704009611713879 $616 $745 forward 7 unknown #
vertex $-1 $459 $746 #
straight-curve $-1 -21.499914056345308 15.28482377849855 9.6239359441196903 1 0 0 I I #
coedge $-1 $615 $460 $463 $629 reversed $453 $-1 #
coedge $-1 $460 $615 $620 $743 forward $453 $-1 #
vertex $-1 $461 $747 #
straight-curve $-1 -53.187204377674419 25.045668624242108 67.91828485696017 0 0 1 I I #
straight-curve $-1 -53.187204377674419 -17.890987507392687 29.557974811006957 0 0.85716729658548041 -0.51503808176128008 I I #
edge $-1 $741 32.812451847706811 $465 53.187204377674419 $624 $748 forward 7 unknown #
point $-1 -53.187204377674419 25.045668624242108 9.6239359441196921 #
point $-1 -53.187204377674419 15.284823778498549 9.6239359441196939 #
edge $-1 $749 1 $749 0 $468 $-1 forward 7 unknown #
vertex $-1 $469 $750 #
ellipse-curve $-1 -49.112253871680899 16.521485770518055 0.62724663902966304 0 0.51503808176128008 0.85716729658548041 2 0 0 1 I I #
point $-1 -47.112253871680899 20.16524620137033 6.6914822529049927 #
edge $-1 $751 1 $751 0 $472 $-1 forward 7 unknown #
vertex $-1 $473 $752 #
ellipse-curve $-1 -42.999828112690615 16.521485770518055 0.62724663902966304 0 0.51503808176128008 0.85716729658548041 2 0 0 1 I I #
point $-1 -40.999828112690615 20.16524620137033 6.6914822529049927 #
edge $-1 $753 1 $753 0 $476 $-1 forward 7 unknown #
vertex $-1 $477 $754 #
ellipse-curve $-1 -36.887402353700331 16.521485770518055 0.62724663902966304 0 0.51503808176128008 0.85716729658548041 2 0 0 1 I I #
point $-1 -34.887402353700331 20.16524620137033 6.6914822529049927 #
loop $-1 $-1 $488 $480 #
plane-surface $-1 0 25.045668624242108 0 0 -1 0 0 0 -1 forward_v I I I I #
coedge $-1 $647 $483 $485 $651 reversed $332 $-1 #
coedge $-1 $483 $646 $755 $756 reversed $332 $-1 #
coedge $-1 $491 $486 $483 $649 forward $481 $-1 #
edge $-1 $652 -7.6989942072561988 $757 2.0618506384873605 $648 $758 forward 7 unknown #
coedge $-1 $485 $484 $655 $759 reversed $210 $-1 #
edge $-1 $760 -50.091337248484209 $652 -38.704009611713879 $646 $761 forward 7 unknown #
vertex $-1 $487 $762 #
straight-curve $-1 7.2954068903637079 15.28482377849855 9.6239359441196903 1 0 0 I I #
coedge $-1 $755 $488 $491 $659 reversed $644 $-1 #
coedge $-1 $488 $755 $650 $759 forward $644 $-1 #
vertex $-1 $489 $763 #
straight-curve $-1 4.4034375157436116 25.045668624242108 67.91828485696017 0 0 1 I I #
straight-curve $-1 4.4034375157436116 -17.890987507392687 29.557974811006957 0 0.85716729658548041 -0.51503808176128008 I I #
edge $-1 $757 -24.77819004571122 $492 -4.4034375157436116 $654 $764 forward 7 unknown #
point $-1 4.4034375157436116 25.045668624242108 9.6239359441196921 #
point $-1 4.4034375157436116 15.284823778498549 9.6239359441196939 #
edge $-1 $765 1 $765 0 $495 $-1 forward 7 unknown #
vertex $-1 $496 $766 #
ellipse-curve $-1 8.4783880217371461 16.521485770518055 0.62724663902966304 0 0.51503808176128008 0.85716729658548041 2 0 0 1 I I #
point $-1 10.478388021737146 20.16524620137033 6.6914822529049927 #
edge $-1 $767 1 $767 0 $499 $-1 forward 7 unknown #
vertex $-1 $500 $768 #
ellipse-curve $-1 14.590813780727416 16.521485770518055 0.62724663902966304 0 0.51503808176128008 0.85716729658548041 2 0 0 1 I I #
point $-1 16.590813780727416 20.16524620137033 6.6914822529049927 #
edge $-1 $769 1 $769 0 $503 $-1 forward 7 unknown #
vertex $-1 $504 $770 #
ellipse-curve $-1 20.703239539717714 16.521485770518055 0.62724663902966304 0 0.51503808176128008 0.85716729658548041 2 0 0 1 I I #
point $-1 22.703239539717714 20.16524620137033 6.6914822529049927 #
plane-surface $-1 61.994079409161657 0 0 -1 0 0 0 0 1 forward_v I I I I #
coedge $-1 $512 $510 $514 $679 reversed $361 $-1 #
edge $-1 $525 -9.6239359441196921 $681 9.6239359441196921 $524 $771 forward 7 unknown #
vertex $-1 $679 $772 #
straight-curve $-1 -61.994079409161657 -25.045668624242108 0 0 0 -1 I I #
edge $-1 $677 -25.045668624242108 $681 25.045668624242108 $675 $773 forward 7 unknown #
straight-curve $-1 0 -25.045668624242108 -9.6239359441196921 -1 0 0 I I #
vertex $-1 $517 $774 #
straight-curve $-1 0 25.045668624242108 -9.6239359441196921 1 0 0 I I #
point $-1 61.994079409161657 25.045668624242108 -9.6239359441196921 #
point $-1 61.994079409161657 -25.045668624242108 -9.6239359441196921 #
straight-curve $-1 -61.994079409161657 0 9.6239359441196921 0 -1 0 I I #
point $-1 -61.994079409161657 25.045668624242108 9.6239359441196921 #
point $-1 -61.994079409161657 -25.045668624242108 9.6239359441196921 #
straight-curve $-1 61.994079409161657 -25.045668624242108 0 0 0 -1 I I #
straight-curve $-1 61.994079409161657 25.045668624242108 0 0 0 -1 I I #
plane-surface $-1 0 -25.045668624242108 0 0 1 0 0 0 1 forward_v I I I I #
coedge $-1 $702 $537 $695 $775 reversed $380 $-1 #
coedge $-1 $537 $702 $694 $776 reversed $380 $-1 #
edge $-1 $698 -9.6239359441196921 $696 9.6239359441196921 $537 $777 forward 7 unknown #
coedge $-1 $539 $538 $692 $776 forward $237 $-1 #
coedge $-1 $541 $547 $691 $775 forward $535 $-1 #
vertex $-1 $542 $778 #
straight-curve $-1 -28.795320946709019 -20.945208718975987 -9.6239359441196921 1 0 0 I I #
vertex $-1 $776 $779 #
straight-curve $-1 -28.795320946709019 -20.945208718975987 9.6239359441196921 -1 0 0 I I #
point $-1 -53.187204377674419 -20.945208718975987 9.6239359441196921 #
point $-1 -53.187204377674419 -20.945208718975987 -9.6239359441196921 #
coedge $-1 $692 $691 $550 $703 reversed $380 $-1 #
edge $-1 $704 -9.6239359441196921 $706 9.6239359441196921 $702 $780 forward 7 unknown #
vertex $-1 $776 $781 #
straight-curve $-1 0 -25.045668624242108 9.6239359441196921 1 0 0 I I #
vertex $-1 $775 $782 #
straight-curve $-1 0 -25.045668624242108 -9.6239359441196921 -1 0 0 I I #
coedge $-1 $557 $556 $564 $713 forward $245 $-1 #
edge $-1 $716 -53.187204377674419 $560 -32.812451847706811 $559 $783 forward 7 unknown #
straight-curve $-1 -32.812451847706811 -44.452146051572143 9.6239359441196939 0 1 0 I I #
point $-1 -32.812451847706811 -25.045668624242108 9.6239359441196921 #
straight-curve $-1 -21.499914056345308 -15.284823778498545 9.6239359441196921 -1 0 0 I I #
edge $-1 $565 -29.167322273073598 $716 -19.406477427330035 $708 $784 forward 7 unknown #
point $-1 -53.187204377674419 -15.284823778498545 9.6239359441196921 #
point $-1 -32.812451847706811 -15.284823778498545 9.6239359441196921 #
vertex $-1 $709 $785 #
straight-curve $-1 -53.187204377674419 -25.045668624242108 0 0 0 -1 I I #
vertex $-1 $572 $786 #
point $-1 -47.112253871680899 -16.521485770518055 0.62724663902965949 #
vertex $-1 $576 $787 #
point $-1 -40.999828112690615 -16.521485770518055 0.62724663902965949 #
vertex $-1 $580 $788 #
point $-1 -34.887402353700331 -16.521485770518055 0.62724663902965949 #
coedge $-1 $595 $594 $587 $725 forward $584 $-1 #
edge $-1 $726 45.394875788182141 $729 51.259783170611549 $724 $789 forward 7 unknown #
vertex $-1 $599 $790 #
straight-curve $-1 4.4034375157436116 -44.452146051572143 9.6239359441196939 0 -1 0 I I #
edge $-1 $729 -2.8919693746200963 $596 17.482783155347512 $595 $791 forward 7 unknown #
vertex $-1 $728 $792 #
straight-curve $-1 4.4034375157436116 -25.045668624242104 3.7590285616902861 0 0.85716729658548041 0.51503808176128008 I I #
point $-1 4.4034375157436116 -15.284823778498545 9.6239359441196921 #
point $-1 24.77819004571122 -25.045668624242108 3.7590285616902839 #
straight-curve $-1 0 -25.045668624242108 9.6239359441196921 1 0 0 I I #
vertex $-1 $602 $793 #
point $-1 10.478388021737146 -16.521485770518055 0.62724663902965949 #
vertex $-1 $606 $794 #
point $-1 16.590813780727416 -16.521485770518055 0.62724663902965949 #
vertex $-1 $610 $795 #
point $-1 22.703239539717714 -16.521485770518055 0.62724663902965949 #
edge $-1 $741 58.294348912840476 $744 64.159256295269884 $615 $796 forward 7 unknown #
vertex $-1 $629 $797 #
straight-curve $-1 -32.812451847706811 22.983817985754747 9.6239359441196939 0 1 0 I I #
edge $-1 $744 11.312537791361503 $626 31.687290321329112 $625 $798 forward 7 unknown #
vertex $-1 $743 $799 #
straight-curve $-1 -32.812451847706811 -17.890987507392687 29.557974811006957 0 -0.85716729658548041 0.51503808176128008 I I #
point $-1 -32.812451847706811 15.284823778498549 9.6239359441196939 #
point $-1 -53.187204377674419 25.045668624242104 3.7590285616902896 #
straight-curve $-1 0 25.045668624242108 9.6239359441196921 -1 0 0 I I #
vertex $-1 $632 $800 #
point $-1 -47.112253871680899 16.521485770518055 0.62724663902966304 #
vertex $-1 $636 $801 #
point $-1 -40.999828112690615 16.521485770518055 0.62724663902966304 #
vertex $-1 $640 $802 #
point $-1 -34.887402353700331 16.521485770518055 0.62724663902966304 #
coedge $-1 $655 $654 $647 $756 forward $644 $-1 #
edge $-1 $757 58.294348912840476 $760 64.159256295269884 $755 $803 forward 7 unknown #
vertex $-1 $659 $804 #
straight-curve $-1 24.77819004571122 22.983817985754747 9.6239359441196939 0 1 0 I I #
edge $-1 $760 -17.482783155347512 $656 2.8919693746200963 $655 $805 forward 7 unknown #
vertex $-1 $759 $806 #
straight-curve $-1 24.77819004571122 -17.890987507392687 29.557974811006957 0 -0.85716729658548041 0.51503808176128008 I I #
point $-1 24.77819004571122 15.284823778498549 9.6239359441196939 #
point $-1 4.4034375157436116 25.045668624242104 3.7590285616902896 #
straight-curve $-1 0 25.045668624242108 9.6239359441196921 -1 0 0 I I #
vertex $-1 $662 $807 #
point $-1 10.478388021737146 16.521485770518055 0.62724663902966304 #
vertex $-1 $666 $808 #
point $-1 16.590813780727416 16.521485770518055 0.62724663902966304 #
vertex $-1 $670 $809 #
point $-1 22.703239539717714 16.521485770518055 0.62724663902966304 #
straight-curve $-1 -61.994079409161657 25.045668624242108 0 0 0 -1 I I #
point $-1 -61.994079409161657 -25.045668624242108 -9.6239359441196921 #
straight-curve $-1 -61.994079409161657 0 -9.6239359441196921 0 1 0 I I #
point $-1 -61.994079409161657 25.045668624242108 -9.6239359441196921 #
edge $-1 $706 -25.045668624242108 $696 -20.945208718975987 $691 $810 forward 7 unknown #
edge $-1 $698 20.945208718975987 $704 25.045668624242108 $692 $811 forward 7 unknown #
straight-curve $-1 -61.994079409161657 -20.945208718975987 0 0 0 -1 I I #
point $-1 -61.994079409161657 -20.945208718975987 -9.6239359441196921 #
point $-1 -61.994079409161657 -20.945208718975987 9.6239359441196921 #
straight-curve $-1 -61.994079409161657 -25.045668624242108 0 0 0 -1 I I #
point $-1 -61.994079409161657 -25.045668624242108 9.6239359441196921 #
point $-1 -61.994079409161657 -25.045668624242108 -9.6239359441196921 #
straight-curve $-1 0 -25.045668624242108 9.6239359441196921 1 0 0 I I #
straight-curve $-1 -53.187204377674419 -44.452146051572143 9.6239359441196939 0 -1 0 I I #
point $-1 -53.187204377674419 -25.045668624242108 9.6239359441196921 #
point $-1 -49.112253871680899 -15.491409606995495 -1.0870879541413019 #
point $-1 -42.999828112690615 -15.491409606995495 -1.0870879541413019 #
point $-1 -36.887402353700331 -15.491409606995495 -1.0870879541413019 #
straight-curve $-1 4.4034375157436116 -25.045668624242108 55.018811732301835 0 0 -1 I I #
point $-1 4.4034375157436116 -25.045668624242108 9.6239359441196921 #
straight-curve $-1 7.2954068903637079 -25.045668624242108 3.759028561690283 1 0 0 I I #
point $-1 4.4034375157436116 -25.045668624242108 3.7590285616902839 #
point $-1 8.4783880217371461 -15.491409606995495 -1.0870879541413019 #
point $-1 14.590813780727416 -15.491409606995495 -1.0870879541413019 #
point $-1 20.703239539717714 -15.491409606995495 -1.0870879541413019 #
straight-curve $-1 -32.812451847706811 25.045668624242108 67.91828485696017 0 0 -1 I I #
point $-1 -32.812451847706811 25.045668624242108 9.6239359441196921 #
straight-curve $-1 -21.499914056345308 25.045668624242104 3.7590285616902932 -1 0 0 I I #
point $-1 -32.812451847706811 25.045668624242104 3.7590285616902896 #
point $-1 -49.112253871680899 15.491409606995495 -1.0870879541412983 #
point $-1 -42.999828112690615 15.491409606995495 -1.0870879541412983 #
point $-1 -36.887402353700331 15.491409606995495 -1.0870879541412983 #
straight-curve $-1 24.77819004571122 25.045668624242108 67.91828485696017 0 0 -1 I I #
point $-1 24.77819004571122 25.045668624242108 9.6239359441196921 #
straight-curve $-1 7.2954068903637079 25.045668624242104 3.7590285616902932 -1 0 0 I I #
point $-1 24.77819004571122 25.045668624242104 3.7590285616902896 #
point $-1 8.4783880217371461 15.491409606995495 -1.0870879541412983 #
point $-1 14.590813780727416 15.491409606995495 -1.0870879541412983 #
point $-1 20.703239539717714 15.491409606995495 -1.0870879541412983 #
straight-curve $-1 -61.994079409161657 0 -9.6239359441196921 0 1 0 I I #
straight-curve $-1 -61.994079409161657 0 9.6239359441196921 0 -1 0 I I #
End-of-ACIS-data 