500 0 7 0           
7 Unknown 11 ACIS 5.0 NT 24 Fri Mar 26 14:38:10 1999 
-1 9.9999999999999995e-007 1e-010 
body $-1 $7 $-1 $8 #
body $-1 $9 $-1 $10 #
body $-1 $11 $-1 $12 #
body $-1 $13 $-1 $14 #
body $-1 $15 $-1 $16 #
body $-1 $17 $-1 $18 #
body $-1 $19 $-1 $20 #
lump $-1 $-1 $21 $0 #
transform $-1 1 0 0 0 1 0 0 0 1 42.657551805169838 27.643895323090256 6.5654567761269877 1 rotate no_reflect no_shear #
lump $-1 $-1 $22 $1 #
transform $-1 1 0 0 0 1 0 0 0 1 42.657551805169838 27.643895323090256 6.5654567761269877 1 rotate no_reflect no_shear #
lump $-1 $-1 $23 $2 #
transform $-1 1 0 0 0 1 0 0 0 1 42.657551805169838 27.643895323090256 6.5654567761269877 1 rotate no_reflect no_shear #
lump $-1 $-1 $24 $3 #
transform $-1 1 0 0 0 1 0 0 0 1 42.657551805169838 27.643895323090256 6.5654567761269877 1 rotate no_reflect no_shear #
lump $-1 $-1 $25 $4 #
transform $-1 1 0 0 0 1 0 0 0 1 42.657551805169838 27.643895323090256 6.5654567761269877 1 rotate no_reflect no_shear #
lump $-1 $-1 $26 $5 #
transform $-1 1 0 0 0 1 0 0 0 1 42.657551805169838 27.643895323090256 6.5654567761269877 1 rotate no_reflect no_shear #
lump $-1 $-1 $27 $6 #
transform $-1 1 0 0 0 1 0 0 0 1 42.657551805169838 27.643895323090256 6.5654567761269877 1 rotate no_reflect no_shear #
shell $-1 $-1 $-1 $28 $-1 $7 #
shell $-1 $-1 $-1 $29 $-1 $9 #
shell $-1 $-1 $-1 $30 $-1 $11 #
shell $-1 $-1 $-1 $31 $-1 $13 #
shell $-1 $-1 $-1 $32 $-1 $15 #
shell $-1 $-1 $-1 $33 $-1 $17 #
shell $-1 $-1 $-1 $34 $-1 $19 #
face $-1 $35 $36 $21 $-1 $37 forward single #
face $-1 $38 $39 $22 $-1 $40 forward single #
face $-1 $41 $42 $23 $-1 $43 reversed single #
face $-1 $44 $45 $24 $-1 $46 forward single #
face $-1 $47 $48 $25 $-1 $49 reversed single #
face $-1 $50 $51 $26 $-1 $52 forward single #
face $-1 $53 $54 $27 $-1 $55 forward single #
face $-1 $56 $57 $21 $-1 $58 reversed single #
loop $-1 $-1 $59 $28 #
plane-surface $-1 0 0 6.5654567761269877 0 0 1 1 0 0 forward_v I I I I #
face $-1 $60 $61 $22 $-1 $62 reversed single #
loop $-1 $-1 $63 $29 #
plane-surface $-1 0 -27.643895323090256 0 0 1 0 0 0 1 forward_v I I I I #
face $-1 $64 $65 $23 $-1 $66 reversed single #
loop $-1 $-1 $67 $30 #
plane-surface $-1 -102.98444080561976 1.1218744363297688 62.161791547084597 0 1 0 -0.70710678939079041 0 0.70710677298230451 forward_v I I I I #
face $-1 $68 $69 $24 $-1 $70 forward single #
loop $-1 $71 $72 $31 #
cone-surface $-1 -39.067651596940834 5.1169733368155477 2.9755565414290261 0.70710678939079041 0 -0.70710677298230451 0.70710677298230451 0 0.70710678939079041 1 I I 0 1 1 forward I I I I #
face $-1 $73 $74 $25 $-1 $75 reversed single #
loop $-1 $-1 $76 $32 #
plane-surface $-1 15.516358518168374 21.574460090857951 118.4832872237743 0 1 0 0.52991927123019833 0 0.84804809178421925 forward_v I I I I #
face $-1 $77 $78 $26 $-1 $79 forward single #
loop $-1 $80 $81 $33 #
cone-surface $-1 37.785428547185312 23.308584442924321 3.1734569677177258 -0.52991927123019833 0 -0.84804809178421925 0.42402404589210962 0 -0.26495963561509916 1 I I 0 1 0.5 forward I I I I #
face $-1 $82 $83 $27 $-1 $84 forward single #
loop $-1 $85 $86 $34 #
cone-surface $-1 37.785428547185312 25.909770971023882 3.1734569677177258 -0.52991927123019833 0 -0.84804809178421925 0.42402404589210962 0 -0.26495963561509916 1 I I 0 1 0.5 forward I I I I #
face $-1 $87 $88 $21 $-1 $89 reversed single #
loop $-1 $-1 $90 $35 #
plane-surface $-1 0 0 -6.5654567761269877 0 0 1 1 0 0 forward_v I I I I #
coedge $-1 $91 $92 $93 $94 forward $36 $-1 #
face $-1 $95 $96 $22 $-1 $97 reversed single #
loop $-1 $-1 $98 $38 #
plane-surface $-1 0 0 -6.5654567761269877 0 0 1 1 0 0 forward_v I I I I #
coedge $-1 $99 $100 $101 $102 forward $39 $-1 #
face $-1 $103 $104 $23 $-1 $105 reversed single #
loop $-1 $-1 $106 $41 #
plane-surface $-1 -42.657551805169838 5.1169733368155477 1.834903946526353 -0.70710678939079041 0 0.70710677298230451 0.70710677298230451 0 0.70710678939079041 forward_v I I I I #
coedge $-1 $107 $108 $109 $110 reversed $42 $-1 #
face $-1 $-1 $111 $24 $-1 $112 forward single #
loop $-1 $113 $114 $44 #
cone-surface $-1 -37.48947435393027 5.1169733368155477 1.3973793350402239 0.70710678939079041 0 -0.70710677298230451 0.35355338649115226 0 0.35355339469539521 1 I I -0.70710678118654746 0.70710678118654746 0.5 forward I I I I #
loop $-1 $-1 $115 $31 #
coedge $-1 $72 $72 $116 $117 reversed $45 $-1 #
face $-1 $118 $119 $25 $-1 $120 reversed single #
loop $-1 $-1 $121 $47 #
plane-surface $-1 -29.693759011951691 24.609177706974101 46.131976406652782 0.52991927123019833 0 0.84804809178421925 0.84804809178421925 0 -0.52991927123019833 forward_v I I I I #
coedge $-1 $122 $123 $124 $125 reversed $48 $-1 #
face $-1 $-1 $126 $26 $-1 $127 forward single #
loop $-1 $128 $129 $50 #
cone-surface $-1 37.296647681857145 23.308584442924321 2.3912440861595297 -0.52991927123019833 0 -0.84804809178421925 0.21201202294605481 0 -0.13247981780754958 1 I I -0.70710678118654746 0.70710678118654746 0.25 forward I I I I #
loop $-1 $-1 $130 $33 #
coedge $-1 $81 $81 $131 $132 reversed $51 $-1 #
face $-1 $-1 $133 $27 $-1 $134 forward single #
loop $-1 $135 $136 $53 #
cone-surface $-1 37.296647681857145 25.909770971023882 2.3912440861595297 -0.52991927123019833 0 -0.84804809178421925 0.21201202294605481 0 -0.13247981780754958 1 I I -0.70710678118654746 0.70710678118654746 0.25 forward I I I I #
loop $-1 $-1 $137 $34 #
coedge $-1 $86 $86 $138 $139 reversed $54 $-1 #
face $-1 $140 $141 $21 $-1 $142 reversed single #
loop $-1 $-1 $143 $56 #
plane-surface $-1 0 -27.643895323090256 0 0 1 0 0 0 1 forward_v I I I I #
coedge $-1 $144 $145 $146 $147 forward $57 $-1 #
coedge $-1 $148 $59 $149 $150 forward $36 $-1 #
coedge $-1 $59 $148 $151 $152 forward $36 $-1 #
coedge $-1 $153 $154 $59 $94 reversed $155 $-1 #
edge $-1 $156 -27.643895323090256 $157 27.643895323090256 $93 $158 forward 7 unknown #
face $-1 $159 $160 $22 $-1 $161 forward single #
loop $-1 $-1 $162 $60 #
plane-surface $-1 42.657551805169838 0 0 -1 0 0 0 0 1 forward_v I I I I #
coedge $-1 $163 $164 $165 $166 forward $61 $-1 #
coedge $-1 $165 $63 $162 $167 reversed $39 $-1 #
coedge $-1 $63 $165 $168 $169 reversed $39 $-1 #
coedge $-1 $170 $171 $63 $102 reversed $160 $-1 #
edge $-1 $172 -42.657551805169838 $173 42.657551805169838 $101 $174 forward 7 unknown #
face $-1 $175 $176 $23 $-1 $177 forward single #
loop $-1 $-1 $178 $64 #
plane-surface $-1 -102.98444080561976 9.1120722373013265 62.161791547084597 0 -1 0 0.70710678939079041 0 -0.70710677298230451 forward_v I I I I #
coedge $-1 $179 $180 $181 $182 reversed $65 $-1 #
coedge $-1 $108 $67 $183 $184 reversed $42 $-1 #
coedge $-1 $67 $107 $179 $185 reversed $42 $-1 #
coedge $-1 $181 $186 $67 $110 forward $176 $-1 #
edge $-1 $187 8.8346685976400394 $188 13.56522131746771 $109 $189 forward 7 unknown #
loop $-1 $-1 $116 $68 #
plane-surface $-1 -42.657551805169838 5.1169733368155477 1.834903946526353 -0.70710678939079041 0 0.70710677298230451 0.70710677298230451 0 0.70710678939079041 forward_v I I I I #
loop $-1 $-1 $190 $44 #
coedge $-1 $114 $114 $115 $191 reversed $69 $-1 #
coedge $-1 $115 $115 $114 $191 forward $71 $-1 #
coedge $-1 $116 $116 $72 $117 forward $111 $-1 #
edge $-1 $192 0 $192 6.2831853071796004 $116 $193 forward 7 unknown #
face $-1 $194 $195 $25 $-1 $196 forward single #
loop $-1 $-1 $197 $73 #
plane-surface $-1 0 27.643895323090256 0 0 -1 0 0 0 -1 forward_v I I I I #
coedge $-1 $198 $199 $200 $201 reversed $74 $-1 #
coedge $-1 $123 $76 $202 $203 reversed $48 $-1 #
coedge $-1 $76 $122 $198 $204 reversed $48 $-1 #
coedge $-1 $200 $205 $76 $125 forward $206 $-1 #
edge $-1 $207 52.676186835760163 $208 58.319784735354439 $124 $209 forward 7 unknown #
loop $-1 $-1 $131 $77 #
plane-surface $-1 -29.693759011951691 24.609177706974101 46.131976406652782 0.52991927123019833 0 0.84804809178421925 0.84804809178421925 0 -0.52991927123019833 forward_v I I I I #
loop $-1 $-1 $210 $50 #
coedge $-1 $129 $129 $130 $211 reversed $78 $-1 #
coedge $-1 $130 $130 $129 $211 forward $80 $-1 #
coedge $-1 $131 $131 $81 $132 forward $126 $-1 #
edge $-1 $212 0 $212 6.2831853071796004 $131 $213 forward 7 unknown #
loop $-1 $-1 $138 $82 #
plane-surface $-1 -29.693759011951691 24.609177706974101 46.131976406652782 0.52991927123019833 0 0.84804809178421925 0.84804809178421925 0 -0.52991927123019833 forward_v I I I I #
loop $-1 $-1 $214 $53 #
coedge $-1 $136 $136 $137 $215 reversed $83 $-1 #
coedge $-1 $137 $137 $136 $215 forward $85 $-1 #
coedge $-1 $138 $138 $86 $139 forward $133 $-1 #
edge $-1 $216 0 $216 6.2831853071796004 $138 $217 forward 7 unknown #
face $-1 $218 $219 $21 $-1 $220 reversed single #
loop $-1 $-1 $221 $87 #
plane-surface $-1 -42.657551805169838 0 0 1 0 0 0 0 -1 forward_v I I I I #
coedge $-1 $222 $151 $223 $224 forward $88 $-1 #
coedge $-1 $225 $90 $222 $226 forward $57 $-1 #
coedge $-1 $90 $225 $227 $228 forward $57 $-1 #
coedge $-1 $154 $153 $90 $147 reversed $155 $-1 #
edge $-1 $229 -27.643895323090256 $230 27.643895323090256 $146 $231 forward 7 unknown #
coedge $-1 $92 $91 $232 $233 forward $36 $-1 #
coedge $-1 $234 $235 $91 $150 reversed $219 $-1 #
edge $-1 $157 -42.657551805169838 $236 42.657551805169838 $149 $237 forward 7 unknown #
coedge $-1 $143 $238 $92 $152 reversed $88 $-1 #
edge $-1 $239 -42.657551805169838 $156 42.657551805169838 $151 $240 forward 7 unknown #
coedge $-1 $146 $93 $238 $241 forward $155 $-1 #
coedge $-1 $93 $146 $234 $242 reversed $155 $-1 #
loop $-1 $-1 $153 $218 #
vertex $-1 $94 $243 #
vertex $-1 $94 $244 #
straight-curve $-1 42.657551805169838 0 6.5654567761269877 0 1 0 I I #
face $-1 $245 $246 $22 $-1 $247 reversed single #
loop $-1 $-1 $171 $95 #
plane-surface $-1 0 -30.058980374723077 -3.5654567761269877 0 0 1 1 0 0 forward_v I I I I #
coedge $-1 $248 $249 $99 $167 forward $96 $-1 #
coedge $-1 $250 $98 $249 $251 forward $61 $-1 #
coedge $-1 $98 $250 $252 $253 forward $61 $-1 #
coedge $-1 $100 $99 $98 $166 reversed $39 $-1 #
edge $-1 $254 -42.657551805169838 $255 42.657551805169838 $98 $256 forward 7 unknown #
edge $-1 $255 -6.5654567761269877 $173 -3.5654567761269877 $162 $257 forward 7 unknown #
coedge $-1 $252 $258 $100 $169 forward $259 $-1 #
edge $-1 $172 3.5654567761269877 $254 6.5654567761269877 $168 $260 forward 7 unknown #
coedge $-1 $261 $101 $258 $262 forward $160 $-1 #
coedge $-1 $101 $261 $248 $263 forward $160 $-1 #
vertex $-1 $169 $264 #
vertex $-1 $263 $265 #
straight-curve $-1 0 -27.643895323090256 -3.5654567761269877 1 0 0 I I #
face $-1 $-1 $266 $23 $-1 $267 reversed single #
loop $-1 $-1 $109 $103 #
plane-surface $-1 0 0 6.5654567761269877 0 0 1 1 0 0 forward_v I I I I #
coedge $-1 $268 $269 $270 $271 reversed $104 $-1 #
coedge $-1 $272 $106 $108 $185 forward $65 $-1 #
coedge $-1 $106 $272 $268 $273 forward $65 $-1 #
coedge $-1 $270 $109 $106 $182 forward $176 $-1 #
edge $-1 $188 -1.436612232078005 $274 6.5535855688935527 $181 $275 forward 7 unknown #
coedge $-1 $276 $277 $107 $184 forward $266 $-1 #
edge $-1 $278 -29.245991827015946 $187 -24.515438997415309 $183 $279 forward 7 unknown #
edge $-1 $188 -6.6900118915224338 $278 0 $108 $280 forward 7 unknown #
coedge $-1 $109 $270 $276 $281 forward $176 $-1 #
vertex $-1 $184 $282 #
vertex $-1 $110 $283 #
straight-curve $-1 -51.492220402809878 1.1218744363297688 6.565456776126986 1 0 0 I I #
coedge $-1 $190 $190 $-1 $284 reversed $113 $-1 #
edge $-1 $285 0 $285 6.2831853071796004 $114 $286 forward 7 unknown #
vertex $-1 $117 $287 #
ellipse-curve $-1 -40.292275445256003 5.1169733368155477 4.2001803613266713 -0.70710678939079041 0 0.70710677298230451 0.70710677298230451 0 0.70710678939079041 1 I I #
face $-1 $-1 $206 $25 $-1 $288 reversed single #
loop $-1 $-1 $289 $118 #
plane-surface $-1 0 0 6.5654567761269877 0 0 1 1 0 0 forward_v I I I I #
coedge $-1 $290 $291 $199 $292 forward $119 $-1 #
coedge $-1 $293 $121 $123 $204 forward $74 $-1 #
coedge $-1 $121 $293 $197 $292 reversed $74 $-1 #
coedge $-1 $294 $124 $121 $201 forward $206 $-1 #
edge $-1 $208 9.2698712373709 $295 15.339306469603205 $200 $296 forward 7 unknown #
coedge $-1 $297 $289 $122 $203 forward $195 $-1 #
edge $-1 $298 25.867728125157839 $207 34.899372546085651 $202 $299 forward 7 unknown #
edge $-1 $208 -85.31510361033969 $298 -74.665183507429006 $123 $300 forward 7 unknown #
coedge $-1 $124 $294 $297 $301 reversed $206 $-1 #
loop $-1 $-1 $200 $194 #
vertex $-1 $301 $302 #
vertex $-1 $125 $303 #
straight-curve $-1 42.657551805169838 21.574460090857951 59.241643611887149 0 0 -1 I I #
coedge $-1 $210 $210 $-1 $304 reversed $128 $-1 #
edge $-1 $305 0 $305 6.2831853071796004 $129 $306 forward 7 unknown #
vertex $-1 $132 $307 #
ellipse-curve $-1 38.141729594705922 23.308584442924321 3.7436578263298506 0.52991927123019833 0 0.84804809178421925 0.42402404589210962 0 -0.26495963561509916 1 I I #
coedge $-1 $214 $214 $-1 $308 reversed $135 $-1 #
edge $-1 $309 0 $309 6.2831853071796004 $136 $310 forward 7 unknown #
vertex $-1 $139 $311 #
ellipse-curve $-1 38.141729594705922 25.909770971023882 3.7436578263298506 0.52991927123019833 0 0.84804809178421925 0.42402404589210962 0 -0.26495963561509916 1 I I #
face $-1 $-1 $155 $21 $-1 $312 reversed single #
loop $-1 $-1 $234 $140 #
plane-surface $-1 0 27.643895323090256 0 0 -1 0 0 0 -1 forward_v I I I I #
coedge $-1 $313 $232 $235 $314 forward $141 $-1 #
coedge $-1 $238 $143 $144 $226 reversed $88 $-1 #
coedge $-1 $232 $313 $143 $224 reversed $141 $-1 #
edge $-1 $239 -6.5654567761269877 $315 6.5654567761269877 $223 $316 forward 7 unknown #
coedge $-1 $145 $144 $313 $317 forward $57 $-1 #
edge $-1 $230 -42.657551805169838 $315 42.657551805169838 $222 $318 forward 7 unknown #
coedge $-1 $235 $234 $145 $228 reversed $219 $-1 #
edge $-1 $319 -42.657551805169838 $229 42.657551805169838 $227 $320 forward 7 unknown #
vertex $-1 $147 $321 #
vertex $-1 $241 $322 #
straight-curve $-1 42.657551805169838 0 -6.5654567761269877 0 -1 0 I I #
coedge $-1 $221 $223 $148 $233 reversed $141 $-1 #
edge $-1 $236 -27.643895323090256 $239 27.643895323090256 $232 $323 forward 7 unknown #
coedge $-1 $227 $149 $154 $242 forward $219 $-1 #
coedge $-1 $149 $227 $221 $314 reversed $219 $-1 #
vertex $-1 $150 $324 #
straight-curve $-1 0 27.643895323090256 6.5654567761269877 -1 0 0 I I #
coedge $-1 $151 $222 $153 $241 reversed $88 $-1 #
vertex $-1 $233 $325 #
straight-curve $-1 0 -27.643895323090256 6.5654567761269877 1 0 0 I I #
edge $-1 $156 -6.5654567761269877 $230 6.5654567761269877 $153 $326 forward 7 unknown #
edge $-1 $157 -6.5654567761269877 $229 6.5654567761269877 $154 $327 forward 7 unknown #
point $-1 42.657551805169838 -27.643895323090256 6.5654567761269877 #
point $-1 42.657551805169838 27.643895323090256 6.5654567761269877 #
face $-1 $-1 $259 $22 $-1 $328 reversed single #
loop $-1 $-1 $329 $159 #
plane-surface $-1 0 -32.474065426355899 -5.0654567761269877 0 1 0 0 0 1 forward_v I I I I #
coedge $-1 $330 $162 $171 $263 reversed $96 $-1 #
coedge $-1 $162 $330 $163 $251 reversed $96 $-1 #
coedge $-1 $164 $163 $331 $332 forward $61 $-1 #
edge $-1 $255 27.643895323090256 $333 32.474065426355899 $249 $334 forward 7 unknown #
coedge $-1 $335 $168 $164 $253 reversed $259 $-1 #
edge $-1 $336 -32.474065426355899 $254 -27.643895323090256 $252 $337 forward 7 unknown #
vertex $-1 $169 $338 #
vertex $-1 $251 $339 #
straight-curve $-1 0 -27.643895323090256 -6.5654567761269877 1 0 0 I I #
straight-curve $-1 42.657551805169838 -27.643895323090256 0 0 0 1 I I #
coedge $-1 $168 $335 $170 $262 reversed $259 $-1 #
loop $-1 $-1 $168 $245 #
straight-curve $-1 -42.657551805169838 -27.643895323090256 0 0 0 -1 I I #
coedge $-1 $171 $170 $340 $341 forward $160 $-1 #
edge $-1 $172 -2.4150850516328219 $342 2.4150850516328219 $258 $343 forward 7 unknown #
edge $-1 $344 -2.4150850516328219 $173 2.4150850516328219 $248 $345 forward 7 unknown #
point $-1 -42.657551805169838 -27.643895323090256 -3.5654567761269877 #
point $-1 42.657551805169838 -27.643895323090256 -3.5654567761269877 #
loop $-1 $-1 $183 $175 #
plane-surface $-1 -42.657551805169838 0 0 1 0 0 0 0 -1 forward_v I I I I #
coedge $-1 $269 $178 $180 $273 reversed $104 $-1 #
coedge $-1 $178 $268 $346 $347 reversed $104 $-1 #
coedge $-1 $186 $181 $178 $271 forward $176 $-1 #
edge $-1 $274 -13.56522131746771 $348 -8.8346685976400394 $270 $349 forward 7 unknown #
coedge $-1 $180 $179 $277 $350 reversed $65 $-1 #
edge $-1 $351 0 $274 6.6900118915224338 $268 $352 forward 7 unknown #
vertex $-1 $182 $353 #
straight-curve $-1 -37.926999085342167 2.5584866684077738 6.5654567761269869 0 1 0 I I #
coedge $-1 $346 $183 $186 $281 reversed $266 $-1 #
coedge $-1 $183 $346 $272 $350 forward $266 $-1 #
vertex $-1 $184 $354 #
straight-curve $-1 -42.657551805169838 1.1218744363297688 31.080895773542299 0 0 1 I I #
straight-curve $-1 -42.657551805169838 1.1218744363297688 1.834903946526353 -0.70710677298230451 0 -0.70710678939079041 I I #
edge $-1 $348 -9.1120722373013265 $187 -1.1218744363297688 $276 $355 forward 7 unknown #
point $-1 -42.657551805169838 1.1218744363297688 6.5654567761269877 #
point $-1 -37.926999085342167 1.1218744363297688 6.5654567761269877 #
edge $-1 $356 1 $356 0 $190 $-1 forward 7 unknown #
vertex $-1 $191 $357 #
ellipse-curve $-1 -37.843027748625666 5.1169733368155477 1.7509327215313761 -0.70710678939079041 0 0.70710677298230451 0.70710677298230451 0 0.70710678939079041 1 I I #
point $-1 -39.585168672273703 5.1169733368155477 4.9072871507174671 #
plane-surface $-1 42.657551805169838 0 0 -1 0 0 0 0 1 forward_v I I I I #
coedge $-1 $202 $358 $293 $359 forward $195 $-1 #
coedge $-1 $291 $197 $358 $360 reversed $119 $-1 #
coedge $-1 $197 $290 $294 $361 forward $119 $-1 #
edge $-1 $295 -60.50112411743558 $362 -49.851204014524875 $197 $363 forward 7 unknown #
coedge $-1 $199 $198 $289 $359 reversed $74 $-1 #
coedge $-1 $205 $200 $291 $361 reversed $206 $-1 #
vertex $-1 $292 $364 #
straight-curve $-1 42.657551805169845 12.304588853487051 0.92185887653270981 0 1 0 I I #
coedge $-1 $358 $202 $205 $301 forward $195 $-1 #
vertex $-1 $203 $365 #
straight-curve $-1 7.7581792590841872 21.574460090857951 6.565456776126986 1 0 0 I I #
straight-curve $-1 -29.693759011951691 21.574460090857951 46.131976406652782 -0.84804809178421925 0 0.52991927123019833 I I #
edge $-1 $207 21.574460090857951 $366 27.643895323090256 $205 $367 forward 7 unknown #
point $-1 42.657551805169838 21.574460090857951 6.5654567761269877 #
point $-1 42.657551805169838 21.574460090857951 0.92185887653270981 #
edge $-1 $368 1 $368 0 $210 $-1 forward 7 unknown #
vertex $-1 $211 $369 #
ellipse-curve $-1 37.429127499664695 23.308584442924321 2.6032561091055846 0.52991927123019833 0 0.84804809178421925 0.42402404589210962 0 -0.26495963561509916 1 I I #
point $-1 38.565753640598039 23.308584442924321 3.478698190714768 #
edge $-1 $370 1 $370 0 $214 $-1 forward 7 unknown #
vertex $-1 $215 $371 #
ellipse-curve $-1 37.429127499664695 25.909770971023882 2.6032561091055846 0.52991927123019833 0 0.84804809178421925 0.42402404589210962 0 -0.26495963561509916 1 I I #
point $-1 38.565753640598039 25.909770971023882 3.478698190714768 #
plane-surface $-1 42.657551805169838 0 0 -1 0 0 0 0 1 forward_v I I I I #
coedge $-1 $223 $221 $225 $317 reversed $141 $-1 #
edge $-1 $236 -6.5654567761269877 $319 6.5654567761269877 $235 $372 forward 7 unknown #
vertex $-1 $317 $373 #
straight-curve $-1 -42.657551805169838 -27.643895323090256 0 0 0 -1 I I #
edge $-1 $315 -27.643895323090256 $319 27.643895323090256 $313 $374 forward 7 unknown #
straight-curve $-1 0 -27.643895323090256 -6.5654567761269877 -1 0 0 I I #
vertex $-1 $228 $375 #
straight-curve $-1 0 27.643895323090256 -6.5654567761269877 1 0 0 I I #
point $-1 42.657551805169838 27.643895323090256 -6.5654567761269877 #
point $-1 42.657551805169838 -27.643895323090256 -6.5654567761269877 #
straight-curve $-1 -42.657551805169838 0 6.5654567761269877 0 -1 0 I I #
point $-1 -42.657551805169838 27.643895323090256 6.5654567761269877 #
point $-1 -42.657551805169838 -27.643895323090256 6.5654567761269877 #
straight-curve $-1 42.657551805169838 -27.643895323090256 0 0 0 -1 I I #
straight-curve $-1 42.657551805169838 27.643895323090256 0 0 0 -1 I I #
plane-surface $-1 -42.657551805169838 0 0 1 0 0 0 0 -1 forward_v I I I I #
coedge $-1 $331 $340 $335 $376 forward $246 $-1 #
coedge $-1 $249 $248 $377 $378 forward $96 $-1 #
coedge $-1 $377 $329 $250 $332 reversed $246 $-1 #
edge $-1 $333 -42.657551805169838 $336 42.657551805169838 $331 $379 forward 7 unknown #
vertex $-1 $378 $380 #
straight-curve $-1 42.657551805169838 0 -6.5654567761269877 0 -1 0 I I #
coedge $-1 $258 $252 $329 $376 reversed $259 $-1 #
vertex $-1 $253 $381 #
straight-curve $-1 -42.657551805169838 0 -6.5654567761269877 0 1 0 I I #
point $-1 -42.657551805169838 -27.643895323090256 -6.5654567761269877 #
point $-1 42.657551805169838 -27.643895323090256 -6.5654567761269877 #
coedge $-1 $329 $377 $261 $341 reversed $246 $-1 #
edge $-1 $342 -42.657551805169838 $344 42.657551805169838 $340 $382 forward 7 unknown #
vertex $-1 $262 $383 #
straight-curve $-1 -42.657551805169838 -30.058980374723077 -3.5654567761269877 0 -1 0 I I #
vertex $-1 $263 $384 #
straight-curve $-1 42.657551805169838 -30.058980374723077 -3.5654567761269877 0 1 0 I I #
coedge $-1 $277 $276 $269 $347 forward $266 $-1 #
edge $-1 $348 24.515438997415309 $351 29.245991827015946 $346 $385 forward 7 unknown #
vertex $-1 $281 $386 #
straight-curve $-1 -51.492220402809878 9.1120722373013265 6.565456776126986 -1 0 0 I I #
edge $-1 $351 -6.5535855688935527 $278 1.436612232078005 $277 $387 forward 7 unknown #
vertex $-1 $350 $388 #
straight-curve $-1 -42.657551805169838 9.1120722373013265 1.834903946526353 0.70710677298230451 0 0.70710678939079041 I I #
point $-1 -37.926999085342167 9.1120722373013265 6.5654567761269877 #
point $-1 -42.657551805169838 1.1218744363297688 1.834903946526353 #
straight-curve $-1 -42.657551805169838 0 6.5654567761269877 0 -1 0 I I #
vertex $-1 $284 $389 #
point $-1 -37.135920975643359 5.1169733368155477 2.4580395109221667 #
coedge $-1 $289 $297 $290 $360 forward $195 $-1 #
edge $-1 $362 -15.339306469603201 $298 -9.2698712373709 $289 $390 forward 7 unknown #
edge $-1 $366 -42.657551805169838 $362 -33.625907384242026 $290 $391 forward 7 unknown #
edge $-1 $366 -6.5654567761269877 $295 -0.92185887653270937 $294 $392 forward 7 unknown #
vertex $-1 $292 $393 #
straight-curve $-1 -8.6503110534216034 27.643895323090256 32.982570477451944 -0.84804809178421925 0 0.52991927123019833 I I #
point $-1 42.657551805169838 27.643895323090256 0.92185887653270937 #
point $-1 33.625907384242026 21.574460090857951 6.565456776126986 #
vertex $-1 $301 $394 #
straight-curve $-1 42.657551805169838 0 6.5654567761269877 0 1 0 I I #
vertex $-1 $304 $395 #
point $-1 37.853151545556806 23.308584442924321 2.3382964734904852 #
vertex $-1 $308 $396 #
point $-1 37.853151545556806 25.909770971023882 2.3382964734904852 #
straight-curve $-1 -42.657551805169838 27.643895323090256 0 0 0 -1 I I #
point $-1 -42.657551805169838 -27.643895323090256 -6.5654567761269877 #
straight-curve $-1 -42.657551805169838 0 -6.5654567761269877 0 1 0 I I #
point $-1 -42.657551805169838 27.643895323090256 -6.5654567761269877 #
edge $-1 $342 -1.5 $336 1.5 $335 $397 forward 7 unknown #
coedge $-1 $340 $331 $330 $378 reversed $246 $-1 #
edge $-1 $344 -1.5 $333 1.5 $330 $398 forward 7 unknown #
straight-curve $-1 0 -32.474065426355899 -6.5654567761269877 -1 0 0 I I #
point $-1 42.657551805169838 -32.474065426355899 -6.5654567761269877 #
point $-1 -42.657551805169838 -32.474065426355899 -6.5654567761269877 #
straight-curve $-1 0 -32.474065426355899 -3.5654567761269877 1 0 0 I I #
point $-1 -42.657551805169838 -32.474065426355899 -3.5654567761269877 #
point $-1 42.657551805169838 -32.474065426355899 -3.5654567761269877 #
straight-curve $-1 -42.657551805169838 9.1120722373013265 31.080895773542299 0 0 -1 I I #
point $-1 -42.657551805169838 9.1120722373013265 6.5654567761269877 #
straight-curve $-1 -42.657551805169838 2.5584866684077738 1.8349039465263495 0 -1 0 I I #
point $-1 -42.657551805169838 9.1120722373013265 1.834903946526353 #
point $-1 -37.135920959234873 5.1169733368155477 1.0438259485490717 #
straight-curve $-1 33.625907384242034 12.304588853487051 6.5654567761269824 0 -1 0 I I #
straight-curve $-1 0 27.643895323090256 6.5654567761269877 -1 0 0 I I #
straight-curve $-1 42.657551805169838 27.643895323090256 0 0 0 -1 I I #
point $-1 33.625907384242026 27.643895323090252 6.565456776126986 #
point $-1 42.657551805169838 27.643895323090256 6.5654567761269877 #
point $-1 37.164167864049595 23.308584442924321 2.1792320632134747 #
point $-1 37.164167864049595 25.909770971023882 2.1792320632134747 #
straight-curve $-1 -42.657551805169838 -32.474065426355899 -5.0654567761269877 0 0 -1 I I #
straight-curve $-1 42.657551805169838 -32.474065426355899 -5.0654567761269877 0 0 -1 I I #
End-of-ACIS-data 