500 0 11 0           
7 Unknown 11 ACIS 5.0 NT 24 Thu Mar 25 19:22:16 1999 
-1 9.9999999999999995e-007 1e-010 
body $-1 $11 $-1 $12 #
body $-1 $13 $-1 $14 #
body $-1 $15 $-1 $16 #
body $-1 $17 $-1 $18 #
body $-1 $19 $-1 $20 #
body $-1 $21 $-1 $22 #
body $-1 $23 $-1 $24 #
body $-1 $25 $-1 $26 #
body $-1 $27 $-1 $28 #
body $-1 $29 $-1 $30 #
body $-1 $31 $-1 $32 #
lump $-1 $-1 $33 $0 #
transform $-1 1 0 0 0 1 0 0 0 1 78.571733756523329 33.556583041948876 11.141867016250837 1 rotate no_reflect no_shear #
lump $-1 $-1 $34 $1 #
transform $-1 1 0 0 0 1 0 0 0 1 78.571733756523329 33.556583041948876 11.141867016250837 1 rotate no_reflect no_shear #
lump $-1 $-1 $35 $2 #
transform $-1 1 0 0 0 1 0 0 0 1 78.571733756523329 33.556583041948876 11.141867016250837 1 rotate no_reflect no_shear #
lump $-1 $-1 $36 $3 #
transform $-1 1 0 0 0 1 0 0 0 1 78.571733756523329 33.556583041948876 11.141867016250837 1 rotate no_reflect no_shear #
lump $-1 $-1 $37 $4 #
transform $-1 1 0 0 0 1 0 0 0 1 78.571733756523329 33.556583041948876 11.141867016250837 1 rotate no_reflect no_shear #
lump $-1 $-1 $38 $5 #
transform $-1 1 0 0 0 1 0 0 0 1 78.571733756523329 33.556583041948876 11.141867016250837 1 rotate no_reflect no_shear #
lump $-1 $-1 $39 $6 #
transform $-1 1 0 0 0 1 0 0 0 1 78.571733756523329 33.556583041948876 11.141867016250837 1 rotate no_reflect no_shear #
lump $-1 $-1 $40 $7 #
transform $-1 1 0 0 0 1 0 0 0 1 78.571733756523329 33.556583041948876 11.141867016250837 1 rotate no_reflect no_shear #
lump $-1 $-1 $41 $8 #
transform $-1 1 0 0 0 1 0 0 0 1 78.571733756523329 33.556583041948876 11.141867016250837 1 rotate no_reflect no_shear #
lump $-1 $-1 $42 $9 #
transform $-1 1 0 0 0 1 0 0 0 1 78.571733756523329 33.556583041948876 11.141867016250837 1 rotate no_reflect no_shear #
lump $-1 $-1 $43 $10 #
transform $-1 1 0 0 0 1 0 0 0 1 78.571733756523329 33.556583041948876 11.141867016250837 1 rotate no_reflect no_shear #
shell $-1 $-1 $-1 $44 $-1 $11 #
shell $-1 $-1 $-1 $45 $-1 $13 #
shell $-1 $-1 $-1 $46 $-1 $15 #
shell $-1 $-1 $-1 $47 $-1 $17 #
shell $-1 $-1 $-1 $48 $-1 $19 #
shell $-1 $-1 $-1 $49 $-1 $21 #
shell $-1 $-1 $-1 $50 $-1 $23 #
shell $-1 $-1 $-1 $51 $-1 $25 #
shell $-1 $-1 $-1 $52 $-1 $27 #
shell $-1 $-1 $-1 $53 $-1 $29 #
shell $-1 $-1 $-1 $54 $-1 $31 #
face $-1 $55 $56 $33 $-1 $57 forward single #
face $-1 $58 $59 $34 $-1 $60 reversed single #
face $-1 $61 $62 $35 $-1 $63 reversed single #
face $-1 $64 $65 $36 $-1 $66 reversed single #
face $-1 $67 $68 $37 $-1 $69 forward single #
face $-1 $70 $71 $38 $-1 $72 reversed single #
face $-1 $73 $74 $39 $-1 $75 forward single #
face $-1 $76 $77 $40 $-1 $78 reversed single #
face $-1 $79 $80 $41 $-1 $81 forward single #
face $-1 $82 $83 $42 $-1 $84 forward single #
face $-1 $85 $86 $43 $-1 $87 forward single #
face $-1 $88 $89 $33 $-1 $90 reversed single #
loop $-1 $-1 $91 $44 #
plane-surface $-1 0 0 11.141867016250837 0 0 1 1 0 0 forward_v I I I I #
face $-1 $92 $93 $34 $-1 $94 reversed single #
loop $-1 $-1 $95 $45 #
plane-surface $-1 -74.538086828243479 -17.810258808361819 0 0 1 0 0 0 1 forward_v I I I I #
face $-1 $96 $97 $35 $-1 $98 reversed single #
loop $-1 $-1 $99 $46 #
plane-surface $-1 74.538086828243465 -17.810258808361819 0 0 1 0 0 0 1 forward_v I I I I #
face $-1 $100 $101 $36 $-1 $102 reversed single #
loop $-1 $-1 $103 $47 #
plane-surface $-1 -7.7584558114130857 -130.30376330207858 129.13573904686217 -1 0 0 0 -0.61566148304635926 0.78801074757464917 forward_v I I I I #
face $-1 $104 $105 $37 $-1 $106 forward single #
loop $-1 $107 $108 $48 #
cone-surface $-1 -20.234709941908832 -28.905293258470603 7.051180113347904 0 0.61566148304635926 -0.78801074757464917 1 0 0 1 I I 0 1 1 forward I I I I #
face $-1 $109 $110 $38 $-1 $111 reversed single #
loop $-1 $-1 $112 $49 #
plane-surface $-1 62.745984088550557 -130.30376330207858 129.13573904686217 -1 0 0 0 -0.61566148304635926 0.78801074757464917 forward_v I I I I #
face $-1 $113 $114 $39 $-1 $115 forward single #
loop $-1 $116 $117 $50 #
cone-surface $-1 50.26972995805481 -28.905293258470603 7.051180113347904 0 0.61566148304635926 -0.78801074757464917 1 0 0 1 I I 0 1 1 forward I I I I #
face $-1 $118 $119 $40 $-1 $120 reversed single #
loop $-1 $-1 $121 $51 #
plane-surface $-1 50.767844379274933 136.09023701972998 141.97458280882793 1 0 0 0 -0.86602541151947299 -0.49999998660252726 forward_v I I I I #
face $-1 $122 $123 $41 $-1 $124 forward single #
loop $-1 $125 $126 $52 #
cone-surface $-1 54.715163483412667 30.730806935486548 7.5568300307395191 0 -0.86602541151947299 -0.49999998660252726 1 0 0 1 I I 0 1 1 forward I I I I #
face $-1 $127 $128 $42 $-1 $129 forward single #
loop $-1 $130 $131 $53 #
cone-surface $-1 60.636142139619281 30.730806935486548 7.5568300307395191 0 -0.86602541151947299 -0.49999998660252726 1 0 0 1 I I 0 1 1 forward I I I I #
face $-1 $132 $133 $43 $-1 $134 forward single #
loop $-1 $135 $136 $54 #
cone-surface $-1 66.557120795825895 30.730806935486548 7.5568300307395191 0 -0.86602541151947299 -0.49999998660252726 1 0 0 1 I I 0 1 1 forward I I I I #
face $-1 $137 $138 $33 $-1 $139 reversed single #
loop $-1 $-1 $140 $55 #
plane-surface $-1 0 0 -11.141867016250837 0 0 1 1 0 0 forward_v I I I I #
coedge $-1 $141 $142 $143 $144 forward $56 $-1 #
face $-1 $145 $146 $34 $-1 $147 reversed single #
loop $-1 $-1 $148 $58 #
plane-surface $-1 -74.538086828243479 -11.272849009447203 0 0 -1 0 0 0 -1 forward_v I I I I #
coedge $-1 $149 $150 $151 $152 reversed $59 $-1 #
face $-1 $153 $154 $35 $-1 $155 reversed single #
loop $-1 $-1 $156 $61 #
plane-surface $-1 70.504439899963614 -14.541553908904511 0 1 0 0 0 0 -1 forward_v I I I I #
coedge $-1 $157 $158 $159 $160 forward $62 $-1 #
face $-1 $161 $162 $36 $-1 $163 reversed single #
loop $-1 $-1 $164 $64 #
plane-surface $-1 -20.234709941908832 -33.556583041948898 5.3049977354336733 0 -0.61566148304635926 0.78801074757464917 1 0 0 forward_v I I I I #
coedge $-1 $165 $166 $167 $168 reversed $65 $-1 #
face $-1 $-1 $169 $37 $-1 $170 forward single #
loop $-1 $171 $172 $67 #
cone-surface $-1 -20.234709941908832 -27.681598655124454 5.4849224770662257 0 0.61566148304635926 -0.78801074757464917 0.5 0 0 1 I I -0.70710678118654746 0.70710678118654746 0.5 forward I I I I #
loop $-1 $-1 $173 $48 #
coedge $-1 $108 $108 $174 $175 reversed $68 $-1 #
face $-1 $176 $177 $38 $-1 $178 reversed single #
loop $-1 $-1 $179 $70 #
plane-surface $-1 50.26972995805481 -33.556583041948898 5.3049977354336733 0 -0.61566148304635926 0.78801074757464917 1 0 0 forward_v I I I I #
coedge $-1 $180 $181 $182 $183 reversed $71 $-1 #
face $-1 $-1 $184 $39 $-1 $185 forward single #
loop $-1 $186 $187 $73 #
cone-surface $-1 50.26972995805481 -27.681598655124454 5.4849224770662257 0 0.61566148304635926 -0.78801074757464917 0.5 0 0 1 I I -0.70710678118654746 0.70710678118654746 0.5 forward I I I I #
loop $-1 $-1 $188 $50 #
coedge $-1 $117 $117 $189 $190 reversed $74 $-1 #
face $-1 $191 $192 $40 $-1 $193 reversed single #
loop $-1 $-1 $194 $76 #
plane-surface $-1 60.636142139619281 8.9914681211666903e-007 63.402851157629925 0 0.86602541151947299 0.49999998660252726 1 0 0 forward_v I I I I #
coedge $-1 $195 $196 $197 $198 reversed $77 $-1 #
face $-1 $-1 $199 $41 $-1 $200 forward single #
loop $-1 $201 $202 $79 #
cone-surface $-1 54.715163483412667 29.163863102582866 6.6521546193285257 0 -0.86602541151947299 -0.49999998660252726 0.5 0 0 1 I I -0.70710678118654746 0.70710678118654746 0.5 forward I I I I #
loop $-1 $-1 $203 $52 #
coedge $-1 $126 $126 $204 $205 reversed $80 $-1 #
face $-1 $-1 $206 $42 $-1 $207 forward single #
loop $-1 $208 $209 $82 #
cone-surface $-1 60.636142139619281 29.163863102582866 6.6521546193285257 0 -0.86602541151947299 -0.49999998660252726 0.5 0 0 1 I I -0.70710678118654746 0.70710678118654746 0.5 forward I I I I #
loop $-1 $-1 $210 $53 #
coedge $-1 $131 $131 $211 $212 reversed $83 $-1 #
face $-1 $-1 $213 $43 $-1 $214 forward single #
loop $-1 $215 $216 $85 #
cone-surface $-1 66.557120795825895 29.163863102582866 6.6521546193285257 0 -0.86602541151947299 -0.49999998660252726 0.5 0 0 1 I I -0.70710678118654746 0.70710678118654746 0.5 forward I I I I #
loop $-1 $-1 $217 $54 #
coedge $-1 $136 $136 $218 $219 reversed $86 $-1 #
face $-1 $220 $221 $33 $-1 $222 reversed single #
loop $-1 $-1 $223 $88 #
plane-surface $-1 0 -33.556583041948876 0 0 1 0 0 0 1 forward_v I I I I #
coedge $-1 $224 $225 $226 $227 forward $89 $-1 #
coedge $-1 $228 $91 $229 $230 forward $56 $-1 #
coedge $-1 $91 $228 $231 $232 forward $56 $-1 #
coedge $-1 $233 $234 $91 $144 reversed $235 $-1 #
edge $-1 $236 -33.556583041948876 $237 33.556583041948876 $143 $238 forward 7 unknown #
face $-1 $239 $240 $34 $-1 $241 reversed single #
loop $-1 $-1 $242 $92 #
plane-surface $-1 -70.504439899963629 -14.541553908904511 0 -1 0 0 0 0 1 forward_v I I I I #
coedge $-1 $243 $244 $245 $246 forward $93 $-1 #
coedge $-1 $247 $95 $248 $249 reversed $59 $-1 #
coedge $-1 $95 $247 $250 $251 reversed $59 $-1 #
coedge $-1 $252 $253 $95 $152 forward $254 $-1 #
edge $-1 $255 -11.141867016250837 $256 11.141867016250837 $151 $257 forward 7 unknown #
face $-1 $258 $259 $35 $-1 $260 reversed single #
loop $-1 $-1 $261 $96 #
plane-surface $-1 74.538086828243465 -11.272849009447203 0 0 -1 0 0 0 -1 forward_v I I I I #
coedge $-1 $262 $263 $264 $265 forward $97 $-1 #
coedge $-1 $266 $99 $267 $268 reversed $62 $-1 #
coedge $-1 $99 $266 $269 $270 reversed $62 $-1 #
coedge $-1 $263 $262 $99 $160 reversed $97 $-1 #
edge $-1 $271 -11.141867016250837 $272 11.141867016250837 $159 $273 forward 7 unknown #
face $-1 $274 $275 $36 $-1 $276 forward single #
loop $-1 $-1 $277 $100 #
plane-surface $-1 -32.710964072404579 -130.30376330207858 129.13573904686217 1 0 0 0 0.61566148304635926 -0.78801074757464917 forward_v I I I I #
coedge $-1 $278 $279 $280 $281 reversed $101 $-1 #
coedge $-1 $166 $103 $282 $283 reversed $65 $-1 #
coedge $-1 $103 $165 $278 $284 reversed $65 $-1 #
coedge $-1 $280 $285 $103 $168 forward $275 $-1 #
edge $-1 $286 31.595298609090413 $287 39.066150452401004 $167 $288 forward 7 unknown #
loop $-1 $-1 $174 $104 #
plane-surface $-1 -20.234709941908832 -33.556583041948898 5.3049977354336733 0 -0.61566148304635926 0.78801074757464917 1 0 0 forward_v I I I I #
loop $-1 $-1 $289 $67 #
coedge $-1 $172 $172 $173 $290 reversed $105 $-1 #
coedge $-1 $173 $173 $172 $290 forward $107 $-1 #
coedge $-1 $174 $174 $108 $175 forward $169 $-1 #
edge $-1 $291 -1.5749613827085417e-015 $291 6.2831853071795987 $174 $292 forward 7 unknown #
face $-1 $293 $294 $38 $-1 $295 reversed single #
loop $-1 $-1 $296 $109 #
plane-surface $-1 37.793475827559064 -130.30376330207858 129.13573904686217 1 0 0 0 0.61566148304635926 -0.78801074757464917 forward_v I I I I #
coedge $-1 $297 $298 $299 $300 reversed $110 $-1 #
coedge $-1 $181 $112 $301 $302 reversed $71 $-1 #
coedge $-1 $112 $180 $297 $303 reversed $71 $-1 #
coedge $-1 $299 $304 $112 $183 forward $305 $-1 #
edge $-1 $306 31.595298609090413 $307 39.066150452401004 $182 $308 forward 7 unknown #
loop $-1 $-1 $189 $113 #
plane-surface $-1 50.26972995805481 -33.556583041948898 5.3049977354336733 0 -0.61566148304635926 0.78801074757464917 1 0 0 forward_v I I I I #
loop $-1 $-1 $309 $73 #
coedge $-1 $187 $187 $188 $310 reversed $114 $-1 #
coedge $-1 $188 $188 $187 $310 forward $116 $-1 #
coedge $-1 $189 $189 $117 $190 forward $184 $-1 #
edge $-1 $311 -1.5749613827085417e-015 $311 6.2831853071795987 $189 $312 forward 7 unknown #
face $-1 $313 $314 $40 $-1 $315 reversed single #
loop $-1 $-1 $316 $118 #
plane-surface $-1 70.504439899963629 136.09023701972998 141.97458280882793 -1 0 0 0 0.86602541151947299 0.49999998660252726 forward_v I I I I #
coedge $-1 $317 $318 $319 $320 reversed $119 $-1 #
coedge $-1 $196 $121 $321 $322 reversed $77 $-1 #
coedge $-1 $121 $195 $317 $323 reversed $77 $-1 #
coedge $-1 $319 $324 $121 $198 forward $325 $-1 #
edge $-1 $326 34.488535467916115 $327 37.872225426552887 $197 $328 forward 7 unknown #
loop $-1 $-1 $204 $122 #
plane-surface $-1 60.636142139619281 8.9914681211666903e-007 63.402851157629925 0 0.86602541151947299 0.49999998660252726 1 0 0 forward_v I I I I #
loop $-1 $-1 $329 $79 #
coedge $-1 $202 $202 $203 $330 reversed $123 $-1 #
coedge $-1 $203 $203 $202 $330 forward $125 $-1 #
coedge $-1 $204 $204 $126 $205 forward $199 $-1 #
edge $-1 $331 9.5194651582333438e-016 $331 6.2831853071796013 $204 $332 forward 7 unknown #
loop $-1 $-1 $211 $127 #
plane-surface $-1 60.636142139619281 8.9914681211666903e-007 63.402851157629925 0 0.86602541151947299 0.49999998660252726 1 0 0 forward_v I I I I #
loop $-1 $-1 $333 $82 #
coedge $-1 $209 $209 $210 $334 reversed $128 $-1 #
coedge $-1 $210 $210 $209 $334 forward $130 $-1 #
coedge $-1 $211 $211 $131 $212 forward $206 $-1 #
edge $-1 $335 9.5194651582333438e-016 $335 6.2831853071796013 $211 $336 forward 7 unknown #
loop $-1 $-1 $218 $132 #
plane-surface $-1 60.636142139619281 8.9914681211666903e-007 63.402851157629925 0 0.86602541151947299 0.49999998660252726 1 0 0 forward_v I I I I #
loop $-1 $-1 $337 $85 #
coedge $-1 $216 $216 $217 $338 reversed $133 $-1 #
coedge $-1 $217 $217 $216 $338 forward $135 $-1 #
coedge $-1 $218 $218 $136 $219 forward $213 $-1 #
edge $-1 $339 9.5194651582333438e-016 $339 6.2831853071796013 $218 $340 forward 7 unknown #
face $-1 $341 $342 $33 $-1 $343 reversed single #
loop $-1 $-1 $344 $137 #
plane-surface $-1 -78.571733756523329 0 0 1 0 0 0 0 -1 forward_v I I I I #
coedge $-1 $345 $231 $346 $347 forward $138 $-1 #
coedge $-1 $348 $140 $345 $349 forward $89 $-1 #
coedge $-1 $140 $348 $350 $351 forward $89 $-1 #
coedge $-1 $234 $233 $140 $227 reversed $235 $-1 #
edge $-1 $352 -33.556583041948876 $353 33.556583041948876 $226 $354 forward 7 unknown #
coedge $-1 $142 $141 $355 $356 forward $56 $-1 #
coedge $-1 $357 $358 $141 $230 reversed $342 $-1 #
edge $-1 $237 -78.571733756523329 $359 78.571733756523329 $229 $360 forward 7 unknown #
coedge $-1 $223 $361 $142 $232 reversed $138 $-1 #
edge $-1 $362 -78.571733756523329 $236 78.571733756523329 $231 $363 forward 7 unknown #
coedge $-1 $226 $143 $361 $364 forward $235 $-1 #
coedge $-1 $143 $226 $357 $365 reversed $235 $-1 #
loop $-1 $-1 $233 $341 #
vertex $-1 $144 $366 #
vertex $-1 $144 $367 #
straight-curve $-1 78.571733756523329 0 11.141867016250837 0 1 0 I I #
face $-1 $368 $369 $34 $-1 $370 forward single #
loop $-1 $-1 $371 $145 #
plane-surface $-1 0 0 -11.141867016250837 0 0 1 1 0 0 forward_v I I I I #
coedge $-1 $372 $373 $247 $374 forward $146 $-1 #
coedge $-1 $375 $148 $371 $376 reversed $93 $-1 #
coedge $-1 $148 $375 $377 $378 reversed $93 $-1 #
coedge $-1 $373 $372 $148 $246 reversed $146 $-1 #
edge $-1 $379 -11.141867016250837 $380 11.141867016250837 $245 $381 forward 7 unknown #
coedge $-1 $150 $149 $242 $374 reversed $59 $-1 #
coedge $-1 $382 $383 $149 $249 forward $240 $-1 #
edge $-1 $384 33.235396485841889 $255 41.30269034240159 $248 $385 forward 7 unknown #
coedge $-1 $386 $387 $150 $251 forward $369 $-1 #
edge $-1 $256 -41.30269034240159 $388 -33.235396485841889 $250 $389 forward 7 unknown #
coedge $-1 $390 $151 $387 $391 reversed $254 $-1 #
coedge $-1 $151 $390 $382 $392 reversed $254 $-1 #
loop $-1 $-1 $390 $368 #
vertex $-1 $392 $393 #
vertex $-1 $152 $394 #
straight-curve $-1 -78.571733756523329 -17.810258808361819 0 0 0 1 I I #
face $-1 $395 $396 $35 $-1 $397 forward single #
loop $-1 $-1 $267 $153 #
plane-surface $-1 0 0 -11.141867016250837 0 0 1 1 0 0 forward_v I I I I #
coedge $-1 $398 $399 $400 $401 reversed $154 $-1 #
coedge $-1 $159 $156 $402 $403 reversed $97 $-1 #
coedge $-1 $156 $159 $404 $405 reversed $97 $-1 #
coedge $-1 $399 $398 $156 $265 reversed $154 $-1 #
edge $-1 $406 -11.141867016250837 $407 11.141867016250837 $264 $408 forward 7 unknown #
coedge $-1 $158 $157 $409 $410 reversed $62 $-1 #
coedge $-1 $402 $411 $157 $268 forward $259 $-1 #
edge $-1 $412 -41.302690342401583 $272 -33.235396485841882 $267 $413 forward 7 unknown #
coedge $-1 $414 $404 $158 $270 forward $396 $-1 #
edge $-1 $271 33.235396485841882 $415 41.302690342401583 $269 $416 forward 7 unknown #
vertex $-1 $270 $417 #
vertex $-1 $268 $418 #
straight-curve $-1 70.504439899963614 -17.810258808361819 0 0 0 -1 I I #
face $-1 $-1 $419 $36 $-1 $420 reversed single #
loop $-1 $-1 $167 $161 #
plane-surface $-1 0 0 11.141867016250837 0 0 1 1 0 0 forward_v I I I I #
coedge $-1 $421 $422 $423 $424 reversed $162 $-1 #
coedge $-1 $425 $164 $166 $284 forward $101 $-1 #
coedge $-1 $164 $425 $421 $426 forward $101 $-1 #
coedge $-1 $423 $167 $164 $281 forward $275 $-1 #
edge $-1 $287 -2.3588991595413304 $427 22.593609101450163 $280 $428 forward 7 unknown #
coedge $-1 $429 $430 $165 $283 forward $419 $-1 #
edge $-1 $431 -59.262871787997398 $286 -53.42600250718025 $282 $432 forward 7 unknown #
edge $-1 $287 -9.4806471438422726 $431 -2.7186986990266253e-014 $166 $433 forward 7 unknown #
coedge $-1 $167 $423 $429 $434 forward $275 $-1 #
vertex $-1 $168 $435 #
vertex $-1 $168 $436 #
straight-curve $-1 -7.7584558114130857 -65.15188165103929 11.141867016250835 0 1 0 I I #
coedge $-1 $289 $289 $-1 $437 reversed $171 $-1 #
edge $-1 $438 0 $438 6.2831853071796004 $172 $439 forward 7 unknown #
vertex $-1 $175 $440 #
ellipse-curve $-1 -20.234709941908832 -29.821157120293577 8.2234323758422647 0 -0.61566148304635926 0.78801074757464917 1 0 0 1 I I #
face $-1 $-1 $305 $38 $-1 $441 forward single #
loop $-1 $-1 $442 $176 #
plane-surface $-1 0 -33.556583041948876 0 0 1 0 0 0 1 forward_v I I I I #
coedge $-1 $443 $444 $445 $446 reversed $177 $-1 #
coedge $-1 $447 $179 $181 $303 forward $110 $-1 #
coedge $-1 $179 $447 $443 $448 forward $110 $-1 #
coedge $-1 $445 $182 $179 $300 forward $305 $-1 #
edge $-1 $307 -37.611119109523152 $449 -12.658610848531659 $299 $450 forward 7 unknown #
coedge $-1 $451 $452 $180 $302 forward $294 $-1 #
edge $-1 $453 -59.262871787997398 $306 -53.42600250718025 $301 $454 forward 7 unknown #
edge $-1 $307 -9.4806471438422726 $453 -2.7186986990266253e-014 $181 $455 forward 7 unknown #
coedge $-1 $182 $445 $451 $456 forward $305 $-1 #
loop $-1 $-1 $445 $293 #
vertex $-1 $302 $457 #
vertex $-1 $183 $458 #
straight-curve $-1 62.745984088550557 -65.15188165103929 11.141867016250835 0 1 0 I I #
coedge $-1 $309 $309 $-1 $459 reversed $186 $-1 #
edge $-1 $460 0 $460 6.2831853071796004 $187 $461 forward 7 unknown #
vertex $-1 $190 $462 #
ellipse-curve $-1 50.26972995805481 -29.821157120293577 8.2234323758422647 0 -0.61566148304635926 0.78801074757464917 1 0 0 1 I I #
face $-1 $-1 $325 $40 $-1 $463 forward single #
loop $-1 $-1 $464 $191 #
plane-surface $-1 0 33.556583041948876 0 0 -1 0 0 0 -1 forward_v I I I I #
coedge $-1 $465 $466 $467 $468 reversed $192 $-1 #
coedge $-1 $469 $194 $196 $323 forward $119 $-1 #
coedge $-1 $194 $469 $465 $470 forward $119 $-1 #
coedge $-1 $467 $197 $194 $320 forward $325 $-1 #
edge $-1 $327 20.449773309465293 $471 40.186368830153988 $319 $472 forward 7 unknown #
coedge $-1 $473 $474 $195 $322 forward $314 $-1 #
edge $-1 $475 -65.706147522966333 $326 -59.845424388163131 $321 $476 forward 7 unknown #
edge $-1 $327 60.345785985292622 $475 67.113166083897752 $196 $477 forward 7 unknown #
coedge $-1 $197 $467 $473 $478 forward $325 $-1 #
loop $-1 $-1 $467 $313 #
vertex $-1 $322 $479 #
vertex $-1 $198 $480 #
straight-curve $-1 50.767844379274933 68.045118509864992 11.141867016250842 0 -1 0 I I #
coedge $-1 $329 $329 $-1 $481 reversed $201 $-1 #
edge $-1 $482 0 $482 6.2831853071796004 $202 $483 forward 7 unknown #
vertex $-1 $205 $484 #
ellipse-curve $-1 54.715163483412667 31.864738062630483 8.2115054488492429 0 0.86602541151947299 0.49999998660252726 1 0 0 1 I I #
coedge $-1 $333 $333 $-1 $485 reversed $208 $-1 #
edge $-1 $486 0 $486 6.2831853071796004 $209 $487 forward 7 unknown #
vertex $-1 $212 $488 #
ellipse-curve $-1 60.636142139619281 31.864738062630483 8.2115054488492429 0 0.86602541151947299 0.49999998660252726 1 0 0 1 I I #
coedge $-1 $337 $337 $-1 $489 reversed $215 $-1 #
edge $-1 $490 0 $490 6.2831853071796004 $216 $491 forward 7 unknown #
vertex $-1 $219 $492 #
ellipse-curve $-1 66.557120795825895 31.864738062630483 8.2115054488492429 0 0.86602541151947299 0.49999998660252726 1 0 0 1 I I #
face $-1 $-1 $235 $33 $-1 $493 reversed single #
loop $-1 $-1 $357 $220 #
plane-surface $-1 0 33.556583041948876 0 0 -1 0 0 0 -1 forward_v I I I I #
coedge $-1 $494 $355 $358 $495 forward $221 $-1 #
coedge $-1 $361 $223 $224 $349 reversed $138 $-1 #
coedge $-1 $355 $494 $223 $347 reversed $221 $-1 #
edge $-1 $362 -11.141867016250837 $496 11.141867016250837 $346 $497 forward 7 unknown #
coedge $-1 $225 $224 $494 $498 forward $89 $-1 #
edge $-1 $353 -78.571733756523329 $496 78.571733756523329 $345 $499 forward 7 unknown #
coedge $-1 $358 $357 $225 $351 reversed $342 $-1 #
edge $-1 $500 -78.571733756523329 $352 78.571733756523329 $350 $501 forward 7 unknown #
vertex $-1 $227 $502 #
vertex $-1 $364 $503 #
straight-curve $-1 78.571733756523329 0 -11.141867016250837 0 -1 0 I I #
coedge $-1 $344 $346 $228 $356 reversed $221 $-1 #
edge $-1 $359 -33.556583041948876 $362 33.556583041948876 $355 $504 forward 7 unknown #
coedge $-1 $350 $229 $234 $365 forward $342 $-1 #
coedge $-1 $229 $350 $344 $495 reversed $342 $-1 #
vertex $-1 $230 $505 #
straight-curve $-1 0 33.556583041948876 11.141867016250837 -1 0 0 I I #
coedge $-1 $231 $345 $233 $364 reversed $138 $-1 #
vertex $-1 $356 $506 #
straight-curve $-1 0 -33.556583041948876 11.141867016250837 1 0 0 I I #
edge $-1 $236 -11.141867016250837 $353 11.141867016250837 $233 $507 forward 7 unknown #
edge $-1 $237 -11.141867016250837 $352 11.141867016250837 $234 $508 forward 7 unknown #
point $-1 78.571733756523329 -33.556583041948876 11.141867016250837 #
point $-1 78.571733756523329 33.556583041948876 11.141867016250837 #
face $-1 $-1 $254 $34 $-1 $509 reversed single #
loop $-1 $-1 $377 $239 #
plane-surface $-1 0 0 11.141867016250837 0 0 1 1 0 0 forward_v I I I I #
coedge $-1 $383 $382 $243 $376 forward $240 $-1 #
coedge $-1 $245 $242 $383 $510 reversed $146 $-1 #
coedge $-1 $242 $245 $386 $511 reversed $146 $-1 #
edge $-1 $388 -11.141867016250837 $384 11.141867016250837 $242 $512 forward 7 unknown #
coedge $-1 $244 $243 $390 $513 reversed $93 $-1 #
edge $-1 $514 -41.30269034240159 $380 -33.235396485841889 $371 $515 forward 7 unknown #
coedge $-1 $387 $386 $244 $378 forward $369 $-1 #
edge $-1 $379 33.235396485841889 $516 41.30269034240159 $377 $517 forward 7 unknown #
vertex $-1 $378 $518 #
vertex $-1 $376 $519 #
straight-curve $-1 -70.504439899963629 -11.272849009447203 0 0 0 -1 I I #
coedge $-1 $371 $248 $253 $392 forward $240 $-1 #
coedge $-1 $248 $371 $372 $510 forward $240 $-1 #
vertex $-1 $249 $520 #
straight-curve $-1 -37.269043414121739 -17.810258808361819 -11.141867016250837 -1 0 0 I I #
coedge $-1 $377 $250 $373 $511 forward $369 $-1 #
coedge $-1 $250 $377 $252 $391 forward $369 $-1 #
vertex $-1 $251 $521 #
straight-curve $-1 -37.269043414121739 -17.810258808361819 11.141867016250837 1 0 0 I I #
coedge $-1 $253 $252 $375 $513 forward $254 $-1 #
edge $-1 $516 11.272849009447203 $256 17.810258808361819 $252 $522 forward 7 unknown #
edge $-1 $255 -17.810258808361819 $514 -11.272849009447203 $253 $523 forward 7 unknown #
point $-1 -78.571733756523329 -17.810258808361819 -11.141867016250837 #
point $-1 -78.571733756523329 -17.810258808361819 11.141867016250837 #
face $-1 $-1 $524 $35 $-1 $525 reversed single #
loop $-1 $-1 $269 $258 #
plane-surface $-1 0 0 11.141867016250837 0 0 1 1 0 0 forward_v I I I I #
coedge $-1 $264 $261 $526 $527 reversed $154 $-1 #
coedge $-1 $261 $264 $528 $529 reversed $154 $-1 #
coedge $-1 $530 $531 $261 $401 forward $524 $-1 #
edge $-1 $532 -11.141867016250837 $533 11.141867016250837 $400 $534 forward 7 unknown #
coedge $-1 $526 $267 $262 $403 forward $259 $-1 #
edge $-1 $272 -10.539481853909564 $407 -4.0020720549949473 $402 $535 forward 7 unknown #
coedge $-1 $269 $528 $263 $405 forward $396 $-1 #
edge $-1 $406 4.0020720549949473 $271 10.539481853909564 $404 $536 forward 7 unknown #
vertex $-1 $405 $537 #
vertex $-1 $403 $538 #
straight-curve $-1 70.504439899963614 -11.272849009447203 0 0 0 -1 I I #
coedge $-1 $531 $530 $266 $410 forward $524 $-1 #
edge $-1 $415 -11.141867016250837 $412 11.141867016250837 $409 $539 forward 7 unknown #
coedge $-1 $267 $526 $531 $540 forward $259 $-1 #
vertex $-1 $410 $541 #
straight-curve $-1 37.269043414121732 -17.810258808361819 -11.141867016250837 -1 0 0 I I #
coedge $-1 $528 $269 $530 $542 forward $396 $-1 #
vertex $-1 $542 $543 #
straight-curve $-1 37.269043414121732 -17.810258808361819 11.141867016250837 1 0 0 I I #
point $-1 70.504439899963614 -17.810258808361819 11.141867016250837 #
point $-1 70.504439899963614 -17.810258808361819 -11.141867016250837 #
loop $-1 $-1 $282 $274 #
plane-surface $-1 0 -33.556583041948876 0 0 1 0 0 0 1 forward_v I I I I #
coedge $-1 $422 $277 $279 $426 reversed $162 $-1 #
coedge $-1 $277 $421 $544 $545 reversed $162 $-1 #
coedge $-1 $285 $280 $277 $424 forward $275 $-1 #
edge $-1 $427 -39.066150452401004 $546 -31.595298609090413 $423 $547 forward 7 unknown #
coedge $-1 $279 $278 $430 $548 reversed $101 $-1 #
edge $-1 $549 2.7186986990266253e-014 $427 9.4806471438422726 $421 $550 forward 7 unknown #
vertex $-1 $281 $551 #
straight-curve $-1 -10.117354970954416 -26.085731198638285 11.141867016250837 -1 0 0 I I #
coedge $-1 $544 $282 $285 $434 reversed $419 $-1 #
coedge $-1 $282 $544 $425 $548 forward $419 $-1 #
vertex $-1 $283 $552 #
straight-curve $-1 -7.7584558114130857 -33.556583041948876 64.567869523431085 0 0 1 I I #
straight-curve $-1 -7.7584558114130857 -33.556583041948898 5.3049977354336733 0 -0.78801074757464917 -0.61566148304635926 I I #
edge $-1 $546 -32.710964072404579 $286 -7.7584558114130857 $429 $553 forward 7 unknown #
point $-1 -7.7584558114130857 -33.556583041948876 11.141867016250837 #
point $-1 -7.7584558114130857 -26.085731198638285 11.141867016250837 #
edge $-1 $554 1 $554 0 $289 $-1 forward 7 unknown #
vertex $-1 $290 $555 #
ellipse-curve $-1 -20.234709941908832 -27.989429396647633 5.8789278508535503 0 -0.61566148304635926 0.78801074757464917 1 0 0 1 I I #
point $-1 -19.234709941908832 -29.821157120293574 8.2234323758422576 #
plane-surface $-1 0 0 11.141867016250837 0 0 1 1 0 0 forward_v I I I I #
coedge $-1 $452 $451 $444 $556 forward $294 $-1 #
coedge $-1 $444 $296 $298 $448 reversed $177 $-1 #
coedge $-1 $296 $443 $442 $556 reversed $177 $-1 #
coedge $-1 $304 $299 $296 $446 forward $305 $-1 #
edge $-1 $449 -39.066150452401004 $557 -31.595298609090413 $445 $558 forward 7 unknown #
coedge $-1 $298 $297 $452 $559 reversed $110 $-1 #
edge $-1 $560 2.7186986990266253e-014 $449 9.4806471438422726 $443 $561 forward 7 unknown #
vertex $-1 $300 $562 #
straight-curve $-1 25.134864979027405 -26.085731198638285 11.141867016250837 -1 0 0 I I #
coedge $-1 $442 $301 $304 $456 reversed $294 $-1 #
coedge $-1 $301 $442 $447 $559 forward $294 $-1 #
vertex $-1 $302 $563 #
straight-curve $-1 62.745984088550557 -33.556583041948876 64.567869523431085 0 0 1 I I #
straight-curve $-1 62.745984088550557 -33.556583041948898 5.3049977354336733 0 -0.78801074757464917 -0.61566148304635926 I I #
edge $-1 $557 37.793475827559064 $306 62.745984088550557 $451 $564 forward 7 unknown #
point $-1 62.745984088550557 -33.556583041948876 11.141867016250837 #
point $-1 62.745984088550557 -26.085731198638285 11.141867016250837 #
edge $-1 $565 1 $565 0 $309 $-1 forward 7 unknown #
vertex $-1 $310 $566 #
ellipse-curve $-1 50.26972995805481 -27.989429396647633 5.8789278508535503 0 -0.61566148304635926 0.78801074757464917 1 0 0 1 I I #
point $-1 51.26972995805481 -29.821157120293574 8.2234323758422576 #
plane-surface $-1 0 0 11.141867016250837 0 0 1 1 0 0 forward_v I I I I #
coedge $-1 $474 $473 $466 $567 forward $314 $-1 #
coedge $-1 $466 $316 $318 $470 reversed $192 $-1 #
coedge $-1 $316 $465 $464 $567 reversed $192 $-1 #
coedge $-1 $324 $319 $316 $468 forward $325 $-1 #
edge $-1 $471 -37.872225426552887 $568 -34.488535467916115 $467 $569 forward 7 unknown #
coedge $-1 $318 $317 $474 $570 reversed $119 $-1 #
edge $-1 $571 -67.113166083897752 $471 -60.345785985292622 $465 $572 forward 7 unknown #
vertex $-1 $320 $573 #
straight-curve $-1 30.318071069809641 30.172893083312104 11.141867016250835 1 0 0 I I #
coedge $-1 $464 $321 $324 $478 reversed $314 $-1 #
coedge $-1 $321 $464 $469 $570 forward $314 $-1 #
vertex $-1 $322 $574 #
straight-curve $-1 50.767844379274933 33.556583041948876 70.987291404413966 0 0 1 I I #
straight-curve $-1 50.767844379274933 8.9914681211666903e-007 63.402851157629925 0 0.49999998660252726 -0.86602541151947299 I I #
edge $-1 $568 -70.504439899963629 $326 -50.767844379274933 $473 $575 forward 7 unknown #
point $-1 50.767844379274933 33.556583041948876 11.141867016250837 #
point $-1 50.767844379274933 30.172893083312101 11.141867016250835 #
edge $-1 $576 1 $576 0 $329 $-1 forward 7 unknown #
vertex $-1 $330 $577 #
ellipse-curve $-1 54.715163483412667 29.596875808342602 6.902154612629789 0 0.86602541151947299 0.49999998660252726 1 0 0 1 I I #
point $-1 55.715163483412667 31.864738062630497 8.21150544884925 #
edge $-1 $578 1 $578 0 $333 $-1 forward 7 unknown #
vertex $-1 $334 $579 #
ellipse-curve $-1 60.636142139619281 29.596875808342602 6.902154612629789 0 0.86602541151947299 0.49999998660252726 1 0 0 1 I I #
point $-1 61.636142139619281 31.864738062630497 8.21150544884925 #
edge $-1 $580 1 $580 0 $337 $-1 forward 7 unknown #
vertex $-1 $338 $581 #
ellipse-curve $-1 66.557120795825895 29.596875808342602 6.902154612629789 0 0.86602541151947299 0.49999998660252726 1 0 0 1 I I #
point $-1 67.557120795825895 31.864738062630497 8.21150544884925 #
plane-surface $-1 78.571733756523329 0 0 -1 0 0 0 0 1 forward_v I I I I #
coedge $-1 $346 $344 $348 $498 reversed $221 $-1 #
edge $-1 $359 -11.141867016250837 $500 11.141867016250837 $358 $582 forward 7 unknown #
vertex $-1 $498 $583 #
straight-curve $-1 -78.571733756523329 -33.556583041948876 0 0 0 -1 I I #
edge $-1 $496 -33.556583041948876 $500 33.556583041948876 $494 $584 forward 7 unknown #
straight-curve $-1 0 -33.556583041948876 -11.141867016250837 -1 0 0 I I #
vertex $-1 $351 $585 #
straight-curve $-1 0 33.556583041948876 -11.141867016250837 1 0 0 I I #
point $-1 78.571733756523329 33.556583041948876 -11.141867016250837 #
point $-1 78.571733756523329 -33.556583041948876 -11.141867016250837 #
straight-curve $-1 -78.571733756523329 0 11.141867016250837 0 -1 0 I I #
point $-1 -78.571733756523329 33.556583041948876 11.141867016250837 #
point $-1 -78.571733756523329 -33.556583041948876 11.141867016250837 #
straight-curve $-1 78.571733756523329 -33.556583041948876 0 0 0 -1 I I #
straight-curve $-1 78.571733756523329 33.556583041948876 0 0 0 -1 I I #
plane-surface $-1 -78.571733756523329 0 0 1 0 0 0 0 -1 forward_v I I I I #
edge $-1 $380 4.0020720549949473 $384 10.539481853909564 $383 $586 forward 7 unknown #
edge $-1 $388 -10.539481853909564 $379 -4.0020720549949473 $386 $587 forward 7 unknown #
straight-curve $-1 -70.504439899963629 -17.810258808361819 0 0 0 -1 I I #
edge $-1 $516 -11.141867016250837 $514 11.141867016250837 $390 $588 forward 7 unknown #
vertex $-1 $513 $589 #
straight-curve $-1 -37.269043414121739 -11.272849009447203 -11.141867016250837 1 0 0 I I #
vertex $-1 $391 $590 #
straight-curve $-1 -37.269043414121739 -11.272849009447203 11.141867016250837 -1 0 0 I I #
point $-1 -70.504439899963629 -11.272849009447203 11.141867016250837 #
point $-1 -70.504439899963629 -11.272849009447203 -11.141867016250837 #
point $-1 -70.504439899963629 -17.810258808361819 -11.141867016250837 #
point $-1 -70.504439899963629 -17.810258808361819 11.141867016250837 #
straight-curve $-1 -78.571733756523329 0 11.141867016250837 0 -1 0 I I #
straight-curve $-1 -78.571733756523329 0 -11.141867016250837 0 1 0 I I #
loop $-1 $-1 $409 $395 #
plane-surface $-1 78.571733756523329 0 0 -1 0 0 0 0 1 forward_v I I I I #
coedge $-1 $411 $402 $398 $527 forward $259 $-1 #
edge $-1 $407 33.235396485841882 $532 41.302690342401583 $526 $591 forward 7 unknown #
coedge $-1 $404 $414 $399 $529 forward $396 $-1 #
edge $-1 $533 -41.302690342401583 $406 -33.235396485841882 $528 $592 forward 7 unknown #
coedge $-1 $409 $400 $414 $542 reversed $524 $-1 #
coedge $-1 $400 $409 $411 $540 reversed $524 $-1 #
vertex $-1 $540 $593 #
vertex $-1 $401 $594 #
straight-curve $-1 78.571733756523329 -11.272849009447203 0 0 0 1 I I #
straight-curve $-1 70.504439899963614 -7.2707769544522556 -11.141867016250837 0 1 0 I I #
straight-curve $-1 70.504439899963614 -7.2707769544522556 11.141867016250837 0 -1 0 I I #
point $-1 70.504439899963614 -11.272849009447203 11.141867016250837 #
point $-1 70.504439899963614 -11.272849009447203 -11.141867016250837 #
straight-curve $-1 78.571733756523329 -17.810258808361819 0 0 0 -1 I I #
edge $-1 $532 11.272849009447203 $412 17.810258808361819 $531 $595 forward 7 unknown #
point $-1 78.571733756523315 -17.810258808361819 -11.141867016250837 #
edge $-1 $415 -17.810258808361819 $533 -11.272849009447203 $530 $596 forward 7 unknown #
point $-1 78.571733756523315 -17.810258808361819 11.141867016250837 #
coedge $-1 $430 $429 $422 $545 forward $419 $-1 #
edge $-1 $546 53.42600250718025 $549 59.262871787997398 $544 $597 forward 7 unknown #
vertex $-1 $434 $598 #
straight-curve $-1 -32.710964072404579 -65.15188165103929 11.141867016250835 0 -1 0 I I #
edge $-1 $549 -22.593609101450163 $431 2.3588991595413304 $430 $599 forward 7 unknown #
vertex $-1 $548 $600 #
straight-curve $-1 -32.710964072404579 -33.556583041948898 5.3049977354336733 0 0.78801074757464917 0.61566148304635926 I I #
point $-1 -32.710964072404579 -26.085731198638285 11.141867016250837 #
point $-1 -7.7584558114130857 -33.556583041948876 5.3049977354336901 #
straight-curve $-1 0 -33.556583041948876 11.141867016250837 1 0 0 I I #
vertex $-1 $437 $601 #
point $-1 -19.234709941908832 -27.989429396647633 5.8789278508535503 #
edge $-1 $557 53.42600250718025 $560 59.262871787997398 $442 $602 forward 7 unknown #
vertex $-1 $456 $603 #
straight-curve $-1 37.793475827559064 -65.15188165103929 11.141867016250835 0 -1 0 I I #
edge $-1 $560 12.658610848531659 $453 37.611119109523152 $452 $604 forward 7 unknown #
vertex $-1 $559 $605 #
straight-curve $-1 37.793475827559064 -33.556583041948898 5.3049977354336733 0 0.78801074757464917 0.61566148304635926 I I #
point $-1 37.793475827559064 -26.085731198638285 11.141867016250837 #
point $-1 62.745984088550557 -33.556583041948876 5.3049977354336901 #
straight-curve $-1 0 -33.556583041948876 11.141867016250837 1 0 0 I I #
vertex $-1 $459 $606 #
point $-1 51.26972995805481 -27.989429396647633 5.8789278508535503 #
edge $-1 $568 59.845424388163131 $571 65.706147522966333 $464 $607 forward 7 unknown #
vertex $-1 $478 $608 #
straight-curve $-1 70.504439899963629 68.045118509864992 11.141867016250842 0 1 0 I I #
edge $-1 $571 -40.186368830153988 $475 -20.449773309465293 $474 $609 forward 7 unknown #
vertex $-1 $570 $610 #
straight-curve $-1 70.504439899963629 8.9914681211666903e-007 63.402851157629925 0 -0.49999998660252726 0.86602541151947299 I I #
point $-1 70.504439899963629 30.172893083312101 11.141867016250835 #
point $-1 50.767844379274933 33.556583041948876 5.2811438814476332 #
straight-curve $-1 0 33.556583041948876 11.141867016250837 -1 0 0 I I #
vertex $-1 $481 $611 #
point $-1 55.715163483412667 29.596875808342602 6.902154612629789 #
vertex $-1 $485 $612 #
point $-1 61.636142139619281 29.596875808342602 6.902154612629789 #
vertex $-1 $489 $613 #
point $-1 67.557120795825895 29.596875808342602 6.902154612629789 #
straight-curve $-1 -78.571733756523329 33.556583041948876 0 0 0 -1 I I #
point $-1 -78.571733756523329 -33.556583041948876 -11.141867016250837 #
straight-curve $-1 -78.571733756523329 0 -11.141867016250837 0 1 0 I I #
point $-1 -78.571733756523329 33.556583041948876 -11.141867016250837 #
straight-curve $-1 -70.504439899963629 -7.2707769544522556 -11.141867016250837 0 -1 0 I I #
straight-curve $-1 -70.504439899963629 -7.2707769544522556 11.141867016250837 0 1 0 I I #
straight-curve $-1 -78.571733756523329 -11.272849009447203 0 0 0 -1 I I #
point $-1 -78.571733756523329 -11.272849009447203 -11.141867016250837 #
point $-1 -78.571733756523329 -11.272849009447203 11.141867016250837 #
straight-curve $-1 37.269043414121732 -11.272849009447203 -11.141867016250837 1 0 0 I I #
straight-curve $-1 37.269043414121732 -11.272849009447203 11.141867016250837 -1 0 0 I I #
point $-1 78.571733756523315 -11.272849009447203 -11.141867016250837 #
point $-1 78.571733756523315 -11.272849009447203 11.141867016250837 #
straight-curve $-1 78.571733756523329 0 -11.141867016250837 0 -1 0 I I #
straight-curve $-1 78.571733756523329 0 11.141867016250837 0 1 0 I I #
straight-curve $-1 -32.710964072404579 -33.556583041948876 64.567869523431085 0 0 -1 I I #
point $-1 -32.710964072404579 -33.556583041948876 11.141867016250837 #
straight-curve $-1 -10.117354970954416 -33.556583041948876 5.3049977354336892 1 0 0 I I #
point $-1 -32.710964072404579 -33.556583041948876 5.3049977354336901 #
point $-1 -20.234709941908832 -27.373767913601274 5.0909171032789011 #
straight-curve $-1 37.793475827559064 -33.556583041948876 64.567869523431085 0 0 -1 I I #
point $-1 37.793475827559064 -33.556583041948876 11.141867016250837 #
straight-curve $-1 25.134864979027405 -33.556583041948876 5.3049977354336892 1 0 0 I I #
point $-1 37.793475827559064 -33.556583041948876 5.3049977354336901 #
point $-1 50.26972995805481 -27.373767913601274 5.0909171032789011 #
straight-curve $-1 70.504439899963629 33.556583041948876 70.987291404413966 0 0 -1 I I #
point $-1 70.504439899963629 33.556583041948876 11.141867016250837 #
straight-curve $-1 30.318071069809641 33.556583041948876 5.2811438814476332 -1 0 0 I I #
point $-1 70.504439899963629 33.556583041948876 5.2811438814476332 #
point $-1 54.715163483412667 28.730850396823129 6.4021546260272624 #
point $-1 60.636142139619281 28.730850396823129 6.4021546260272624 #
point $-1 66.557120795825895 28.730850396823129 6.4021546260272624 #
End-of-ACIS-data 