500 0 9 0           
7 Unknown 11 ACIS 5.0 NT 24 Fri Mar 26 20:01:08 1999 
-1 9.9999999999999995e-007 1e-010 
body $-1 $9 $-1 $10 #
body $-1 $11 $-1 $12 #
body $-1 $13 $-1 $14 #
body $-1 $15 $-1 $16 #
body $-1 $17 $-1 $18 #
body $-1 $19 $-1 $20 #
body $-1 $21 $-1 $22 #
body $-1 $23 $-1 $24 #
body $-1 $25 $-1 $26 #
lump $-1 $-1 $27 $0 #
transform $-1 1 0 0 0 1 0 0 0 1 78.835413678395952 53.841553652862679 23.469146600801796 1 rotate no_reflect no_shear #
lump $-1 $-1 $28 $1 #
transform $-1 1 0 0 0 1 0 0 0 1 78.835413678395952 53.841553652862679 23.469146600801796 1 rotate no_reflect no_shear #
lump $-1 $-1 $29 $2 #
transform $-1 1 0 0 0 1 0 0 0 1 78.835413678395952 53.841553652862679 23.469146600801796 1 rotate no_reflect no_shear #
lump $-1 $-1 $30 $3 #
transform $-1 1 0 0 0 1 0 0 0 1 78.835413678395952 53.841553652862679 23.469146600801796 1 rotate no_reflect no_shear #
lump $-1 $-1 $31 $4 #
transform $-1 1 0 0 0 1 0 0 0 1 78.835413678395952 53.841553652862679 23.469146600801796 1 rotate no_reflect no_shear #
lump $-1 $-1 $32 $5 #
transform $-1 1 0 0 0 1 0 0 0 1 78.835413678395952 53.841553652862679 23.469146600801796 1 rotate no_reflect no_shear #
lump $-1 $-1 $33 $6 #
transform $-1 1 0 0 0 1 0 0 0 1 78.835413678395952 53.841553652862679 23.469146600801796 1 rotate no_reflect no_shear #
lump $-1 $-1 $34 $7 #
transform $-1 1 0 0 0 1 0 0 0 1 78.835413678395952 53.841553652862679 23.469146600801796 1 rotate no_reflect no_shear #
lump $-1 $-1 $35 $8 #
transform $-1 1 0 0 0 1 0 0 0 1 78.835413678395952 53.841553652862679 23.469146600801796 1 rotate no_reflect no_shear #
shell $-1 $-1 $-1 $36 $-1 $9 #
shell $-1 $-1 $-1 $37 $-1 $11 #
shell $-1 $-1 $-1 $38 $-1 $13 #
shell $-1 $-1 $-1 $39 $-1 $15 #
shell $-1 $-1 $-1 $40 $-1 $17 #
shell $-1 $-1 $-1 $41 $-1 $19 #
shell $-1 $-1 $-1 $42 $-1 $21 #
shell $-1 $-1 $-1 $43 $-1 $23 #
shell $-1 $-1 $-1 $44 $-1 $25 #
face $-1 $45 $46 $27 $-1 $47 forward single #
face $-1 $48 $49 $28 $-1 $50 reversed single #
face $-1 $51 $52 $29 $-1 $53 reversed single #
face $-1 $54 $55 $30 $-1 $56 forward single #
face $-1 $57 $58 $31 $-1 $59 reversed single #
face $-1 $60 $61 $32 $-1 $62 forward single #
face $-1 $63 $64 $33 $-1 $65 reversed single #
face $-1 $66 $67 $34 $-1 $68 forward single #
face $-1 $69 $70 $35 $-1 $71 forward single #
face $-1 $72 $73 $27 $-1 $74 reversed single #
loop $-1 $-1 $75 $36 #
plane-surface $-1 0 0 23.469146600801796 0 0 1 1 0 0 forward_v I I I I #
face $-1 $76 $77 $28 $-1 $78 reversed single #
loop $-1 $-1 $79 $37 #
plane-surface $-1 -41.550903747942257 -39.461628566182803 0 1 0 0 0 0 -1 forward_v I I I I #
face $-1 $80 $81 $29 $-1 $82 reversed single #
loop $-1 $-1 $83 $38 #
plane-surface $-1 36.288783364869246 14.379925086679883 220.27775135880754 0 -1 0 -0.55919291073839883 0 -0.82903756765294845 forward_v I I I I #
face $-1 $84 $85 $30 $-1 $86 forward single #
loop $-1 $87 $88 $39 #
cone-surface $-1 61.075142148345002 8.2752170486108199 10.361148769754355 -0.55919291073839883 0 -0.82903756765294845 1.2435563514794228 0 -0.83878936610759824 1 I I 0 1 1.5 forward I I I I #
face $-1 $89 $90 $31 $-1 $91 reversed single #
loop $-1 $-1 $92 $40 #
plane-surface $-1 -51.879625523306785 8.2752170486108199 89.562712157104812 0.55919291073839883 0 0.82903756765294845 0.82903756765294845 0 -0.55919291073839883 forward_v I I I I #
face $-1 $93 $94 $32 $-1 $95 forward single #
loop $-1 $96 $97 $41 #
cone-surface $-1 61.075142148345002 20.484633124748932 10.361148769754355 -0.55919291073839883 0 -0.82903756765294845 1.2435563514794228 0 -0.83878936610759824 1 I I 0 1 1.5 forward I I I I #
face $-1 $98 $99 $33 $-1 $100 reversed single #
loop $-1 $-1 $101 $42 #
plane-surface $-1 -186.36666064388865 -21.275996061285465 124.64223030235567 0 1 0 -0.68199836817093118 0 0.7313536940579346 forward_v I I I I #
face $-1 $102 $103 $34 $-1 $104 forward single #
loop $-1 $105 $106 $43 #
cone-surface $-1 -69.958481084942193 -18.10563255721042 15.010126848020274 0.68199836817093118 0 -0.7313536940579346 1.0970305410869019 0 1.0229975522563968 1 I I 0 1 1.5 forward I I I I #
face $-1 $107 $108 $35 $-1 $109 forward single #
loop $-1 $110 $111 $44 #
cone-surface $-1 -69.958481084942193 -13.350087301097844 15.010126848020274 0.68199836817093118 0 -0.7313536940579346 1.0970305410869019 0 1.0229975522563968 1 I I 0 1 1.5 forward I I I I #
face $-1 $112 $113 $27 $-1 $114 reversed single #
loop $-1 $-1 $115 $45 #
plane-surface $-1 0 0 -23.469146600801796 0 0 1 1 0 0 forward_v I I I I #
coedge $-1 $116 $117 $118 $119 forward $46 $-1 #
face $-1 $120 $121 $28 $-1 $122 reversed single #
loop $-1 $-1 $123 $48 #
plane-surface $-1 -38.048115532627421 -25.081703479502927 0 0 -1 0 0 0 -1 forward_v I I I I #
coedge $-1 $124 $125 $126 $127 forward $49 $-1 #
face $-1 $128 $129 $29 $-1 $130 reversed single #
loop $-1 $-1 $131 $51 #
plane-surface $-1 -51.879625523306785 8.2752170486108199 89.562712157104812 0.55919291073839883 0 0.82903756765294845 0.82903756765294845 0 -0.55919291073839883 forward_v I I I I #
coedge $-1 $132 $133 $134 $135 reversed $52 $-1 #
face $-1 $-1 $136 $30 $-1 $137 forward single #
loop $-1 $138 $139 $54 #
cone-surface $-1 59.259126180743294 8.2752170486108199 7.6687944289037056 -0.55919291073839883 0 -0.82903756765294845 0.62177817573971139 0 -0.41939468305379912 1 I I -0.70710678118654757 0.70710678118654757 0.75 forward I I I I #
loop $-1 $-1 $140 $39 #
coedge $-1 $88 $88 $141 $142 reversed $55 $-1 #
face $-1 $143 $144 $31 $-1 $145 reversed single #
loop $-1 $-1 $146 $57 #
plane-surface $-1 36.288783364869246 26.589341162817995 220.27775135880754 0 -1 0 -0.55919291073839883 0 -0.82903756765294845 forward_v I I I I #
coedge $-1 $147 $148 $149 $150 reversed $58 $-1 #
face $-1 $-1 $151 $32 $-1 $152 forward single #
loop $-1 $153 $154 $60 #
cone-surface $-1 59.259126180743294 20.484633124748932 7.6687944289037056 -0.55919291073839883 0 -0.82903756765294845 0.62177817573971139 0 -0.41939468305379912 1 I I -0.70710678118654757 0.70710678118654757 0.75 forward I I I I #
loop $-1 $-1 $155 $41 #
coedge $-1 $97 $97 $156 $157 reversed $61 $-1 #
face $-1 $158 $159 $33 $-1 $160 reversed single #
loop $-1 $-1 $161 $63 #
plane-surface $-1 -78.835413678395952 -15.727859929154128 9.329088269795065 -0.68199836817093118 0 0.7313536940579346 0.7313536940579346 0 0.68199836817093118 forward_v I I I I #
coedge $-1 $162 $163 $164 $165 reversed $64 $-1 #
face $-1 $-1 $166 $34 $-1 $167 forward single #
loop $-1 $168 $169 $66 #
cone-surface $-1 -68.151727602883113 -18.10563255721042 13.072620990198683 0.68199836817093118 0 -0.7313536940579346 0.54851527054345095 0 0.51149877612819838 1 I I -0.70710678118654757 0.70710678118654757 0.75 forward I I I I #
loop $-1 $-1 $170 $43 #
coedge $-1 $106 $106 $171 $172 reversed $67 $-1 #
face $-1 $-1 $173 $35 $-1 $174 forward single #
loop $-1 $175 $176 $69 #
cone-surface $-1 -68.151727602883113 -13.350087301097844 13.072620990198683 0.68199836817093118 0 -0.7313536940579346 0.54851527054345095 0 0.51149877612819838 1 I I -0.70710678118654757 0.70710678118654757 0.75 forward I I I I #
loop $-1 $-1 $177 $44 #
coedge $-1 $111 $111 $178 $179 reversed $70 $-1 #
face $-1 $180 $181 $27 $-1 $182 reversed single #
loop $-1 $-1 $183 $72 #
plane-surface $-1 0 -53.841553652862679 0 0 1 0 0 0 1 forward_v I I I I #
coedge $-1 $184 $185 $186 $187 forward $73 $-1 #
coedge $-1 $188 $75 $189 $190 forward $46 $-1 #
coedge $-1 $75 $188 $191 $192 forward $46 $-1 #
coedge $-1 $193 $194 $75 $119 reversed $195 $-1 #
edge $-1 $196 -53.841553652862679 $197 53.841553652862679 $118 $198 forward 7 unknown #
face $-1 $199 $200 $28 $-1 $201 forward single #
loop $-1 $-1 $202 $76 #
plane-surface $-1 -34.545327317312584 -39.461628566182803 0 -1 0 0 0 0 1 forward_v I I I I #
coedge $-1 $203 $204 $205 $206 forward $77 $-1 #
coedge $-1 $207 $79 $208 $209 reversed $49 $-1 #
coedge $-1 $79 $207 $210 $211 reversed $49 $-1 #
coedge $-1 $204 $203 $79 $127 reversed $77 $-1 #
edge $-1 $212 -23.469146600801796 $213 23.469146600801796 $126 $214 forward 7 unknown #
face $-1 $215 $216 $29 $-1 $217 reversed single #
loop $-1 $-1 $218 $80 #
plane-surface $-1 36.288783364869246 2.1705090105417568 220.27775135880754 0 1 0 0.55919291073839883 0 0.82903756765294845 forward_v I I I I #
coedge $-1 $219 $220 $221 $222 reversed $81 $-1 #
coedge $-1 $133 $83 $223 $224 reversed $52 $-1 #
coedge $-1 $83 $132 $219 $225 reversed $52 $-1 #
coedge $-1 $221 $226 $83 $135 forward $227 $-1 #
edge $-1 $228 -60.691021995961329 $229 -27.963721504955267 $134 $230 forward 7 unknown #
loop $-1 $-1 $141 $84 #
plane-surface $-1 -51.879625523306785 8.2752170486108199 89.562712157104812 0.55919291073839883 0 0.82903756765294845 0.82903756765294845 0 -0.55919291073839883 forward_v I I I I #
loop $-1 $-1 $231 $54 #
coedge $-1 $139 $139 $140 $232 reversed $85 $-1 #
coedge $-1 $140 $140 $139 $232 forward $87 $-1 #
coedge $-1 $141 $141 $88 $142 forward $136 $-1 #
edge $-1 $233 0 $233 6.2831853071796004 $141 $234 forward 7 unknown #
face $-1 $235 $236 $31 $-1 $237 forward single #
loop $-1 $-1 $238 $89 #
plane-surface $-1 78.835413678395952 0 0 -1 0 0 0 0 1 forward_v I I I I #
coedge $-1 $239 $240 $241 $242 reversed $90 $-1 #
coedge $-1 $243 $92 $244 $245 reversed $58 $-1 #
coedge $-1 $92 $243 $238 $246 reversed $58 $-1 #
coedge $-1 $247 $248 $92 $150 forward $236 $-1 #
edge $-1 $249 118.1945698650369 $250 157.6708273567919 $149 $251 forward 7 unknown #
loop $-1 $-1 $156 $93 #
plane-surface $-1 -51.879625523306785 8.2752170486108199 89.562712157104812 0.55919291073839883 0 0.82903756765294845 0.82903756765294845 0 -0.55919291073839883 forward_v I I I I #
loop $-1 $-1 $252 $60 #
coedge $-1 $154 $154 $155 $253 reversed $94 $-1 #
coedge $-1 $155 $155 $154 $253 forward $96 $-1 #
coedge $-1 $156 $156 $97 $157 forward $151 $-1 #
edge $-1 $254 0 $254 6.2831853071796004 $156 $255 forward 7 unknown #
face $-1 $256 $257 $33 $-1 $258 reversed single #
loop $-1 $-1 $259 $98 #
plane-surface $-1 -186.36666064388865 -10.179723797022792 124.64223030235567 0 -1 0 0.68199836817093118 0 -0.7313536940579346 forward_v I I I I #
coedge $-1 $260 $261 $262 $263 reversed $99 $-1 #
coedge $-1 $163 $101 $264 $265 reversed $64 $-1 #
coedge $-1 $101 $162 $260 $266 reversed $64 $-1 #
coedge $-1 $262 $267 $101 $165 forward $268 $-1 #
edge $-1 $269 14.347916643548373 $270 29.511272418594089 $164 $271 forward 7 unknown #
loop $-1 $-1 $171 $102 #
plane-surface $-1 -78.835413678395952 -15.727859929154128 9.329088269795065 -0.68199836817093118 0 0.7313536940579346 0.7313536940579346 0 0.68199836817093118 forward_v I I I I #
loop $-1 $-1 $272 $66 #
coedge $-1 $169 $169 $170 $273 reversed $103 $-1 #
coedge $-1 $170 $170 $169 $273 forward $105 $-1 #
coedge $-1 $171 $171 $106 $172 forward $166 $-1 #
edge $-1 $274 0 $274 6.2831853071796004 $171 $275 forward 7 unknown #
loop $-1 $-1 $178 $107 #
plane-surface $-1 -78.835413678395952 -15.727859929154128 9.329088269795065 -0.68199836817093118 0 0.7313536940579346 0.7313536940579346 0 0.68199836817093118 forward_v I I I I #
loop $-1 $-1 $276 $69 #
coedge $-1 $176 $176 $177 $277 reversed $108 $-1 #
coedge $-1 $177 $177 $176 $277 forward $110 $-1 #
coedge $-1 $178 $178 $111 $179 forward $173 $-1 #
edge $-1 $278 0 $278 6.2831853071796004 $178 $279 forward 7 unknown #
face $-1 $280 $281 $27 $-1 $282 reversed single #
loop $-1 $-1 $283 $112 #
plane-surface $-1 -78.835413678395952 0 0 1 0 0 0 0 -1 forward_v I I I I #
coedge $-1 $284 $191 $285 $286 forward $113 $-1 #
coedge $-1 $287 $115 $284 $288 forward $73 $-1 #
coedge $-1 $115 $287 $289 $290 forward $73 $-1 #
coedge $-1 $194 $193 $115 $187 reversed $195 $-1 #
edge $-1 $291 -53.841553652862679 $292 53.841553652862679 $186 $293 forward 7 unknown #
coedge $-1 $117 $116 $294 $295 forward $46 $-1 #
coedge $-1 $296 $297 $116 $190 reversed $281 $-1 #
edge $-1 $197 -78.835413678395952 $298 78.835413678395952 $189 $299 forward 7 unknown #
coedge $-1 $183 $300 $117 $192 reversed $113 $-1 #
edge $-1 $301 -78.835413678395952 $196 78.835413678395952 $191 $302 forward 7 unknown #
coedge $-1 $186 $118 $300 $303 forward $195 $-1 #
coedge $-1 $118 $186 $296 $304 reversed $195 $-1 #
loop $-1 $-1 $193 $280 #
vertex $-1 $119 $305 #
vertex $-1 $119 $306 #
straight-curve $-1 78.835413678395952 0 23.469146600801796 0 1 0 I I #
face $-1 $307 $308 $28 $-1 $309 reversed single #
loop $-1 $-1 $310 $120 #
plane-surface $-1 0 0 23.469146600801796 0 0 1 1 0 0 forward_v I I I I #
coedge $-1 $311 $312 $313 $314 reversed $121 $-1 #
coedge $-1 $126 $123 $315 $316 reversed $77 $-1 #
coedge $-1 $123 $126 $317 $318 reversed $77 $-1 #
coedge $-1 $312 $311 $123 $206 reversed $121 $-1 #
edge $-1 $319 -23.469146600801796 $320 23.469146600801796 $205 $321 forward 7 unknown #
coedge $-1 $125 $124 $322 $323 reversed $49 $-1 #
coedge $-1 $315 $324 $124 $209 forward $308 $-1 #
edge $-1 $325 -34.110739369771281 $213 -5.3508891964115257 $208 $326 forward 7 unknown #
coedge $-1 $327 $317 $125 $211 forward $200 $-1 #
edge $-1 $212 5.3508891964115257 $328 34.110739369771281 $210 $329 forward 7 unknown #
vertex $-1 $211 $330 #
vertex $-1 $209 $331 #
straight-curve $-1 -41.550903747942257 -25.081703479502927 0 0 0 -1 I I #
face $-1 $-1 $227 $29 $-1 $332 forward single #
loop $-1 $-1 $333 $128 #
plane-surface $-1 78.835413678395952 0 0 -1 0 0 0 0 1 forward_v I I I I #
coedge $-1 $334 $335 $336 $337 reversed $129 $-1 #
coedge $-1 $338 $131 $133 $225 forward $81 $-1 #
coedge $-1 $131 $338 $334 $339 forward $81 $-1 #
coedge $-1 $336 $134 $131 $222 forward $227 $-1 #
edge $-1 $229 -10.242316562374473 $340 1.9670995137636531 $221 $341 forward 7 unknown #
coedge $-1 $342 $343 $132 $224 forward $216 $-1 #
edge $-1 $344 -108.74457241047499 $228 -86.669729078601975 $223 $345 forward 7 unknown #
edge $-1 $229 118.1945698650369 $344 157.6708273567919 $133 $346 forward 7 unknown #
coedge $-1 $134 $336 $342 $347 forward $227 $-1 #
loop $-1 $-1 $336 $215 #
vertex $-1 $224 $348 #
vertex $-1 $135 $349 #
straight-curve $-1 18.144391682434623 14.379925086679883 23.469146600801793 -1 0 0 I I #
coedge $-1 $231 $231 $-1 $350 reversed $138 $-1 #
edge $-1 $351 0 $351 6.2831853071796004 $139 $352 forward 7 unknown #
vertex $-1 $142 $353 #
ellipse-curve $-1 62.471763432892914 8.2752170486108199 12.431724934865297 0.55919291073839883 0 0.82903756765294845 1.2435563514794228 0 -0.83878936610759824 1 I I #
face $-1 $-1 $354 $31 $-1 $355 forward single #
loop $-1 $-1 $248 $143 #
plane-surface $-1 36.288783364869246 14.379925086679883 220.27775135880754 0 -1 0 -0.55919291073839883 0 -0.82903756765294845 forward_v I I I I #
coedge $-1 $241 $356 $148 $246 forward $144 $-1 #
coedge $-1 $240 $146 $243 $357 reversed $90 $-1 #
coedge $-1 $146 $239 $358 $359 reversed $90 $-1 #
coedge $-1 $360 $238 $146 $242 forward $144 $-1 #
edge $-1 $361 -108.74457241047499 $362 -86.669729078601975 $241 $363 forward 7 unknown #
coedge $-1 $148 $147 $239 $357 forward $58 $-1 #
coedge $-1 $364 $358 $147 $245 forward $354 $-1 #
edge $-1 $365 -22.451732638512585 $249 -10.242316562374473 $244 $366 forward 7 unknown #
edge $-1 $250 10.242316562374473 $361 22.451732638512585 $238 $367 forward 7 unknown #
coedge $-1 $248 $149 $356 $368 reversed $236 $-1 #
coedge $-1 $149 $247 $364 $369 reversed $236 $-1 #
vertex $-1 $245 $370 #
vertex $-1 $246 $371 #
straight-curve $-1 -51.879625523306785 14.379925086679883 89.562712157104812 0.82903756765294845 0 -0.55919291073839883 I I #
coedge $-1 $252 $252 $-1 $372 reversed $153 $-1 #
edge $-1 $373 0 $373 6.2831853071796004 $154 $374 forward 7 unknown #
vertex $-1 $157 $375 #
ellipse-curve $-1 62.471763432892914 20.484633124748932 12.431724934865297 0.55919291073839883 0 0.82903756765294845 1.2435563514794228 0 -0.83878936610759824 1 I I #
face $-1 $-1 $268 $33 $-1 $376 forward single #
loop $-1 $-1 $377 $158 #
plane-surface $-1 -78.835413678395952 0 0 1 0 0 0 0 -1 forward_v I I I I #
coedge $-1 $378 $379 $380 $381 reversed $159 $-1 #
coedge $-1 $382 $161 $163 $266 forward $99 $-1 #
coedge $-1 $161 $382 $378 $383 forward $99 $-1 #
coedge $-1 $380 $164 $161 $263 forward $268 $-1 #
edge $-1 $270 -13.412066096708401 $384 -2.3157938324457277 $262 $385 forward 7 unknown #
coedge $-1 $386 $387 $162 $265 forward $257 $-1 #
edge $-1 $388 -52.99202688138277 $269 -38.851968550376043 $264 $389 forward 7 unknown #
edge $-1 $270 -20.733272967982771 $388 0 $163 $390 forward 7 unknown #
coedge $-1 $164 $380 $386 $391 forward $268 $-1 #
loop $-1 $-1 $380 $256 #
vertex $-1 $265 $392 #
vertex $-1 $165 $393 #
straight-curve $-1 -93.183330321944325 -21.275996061285465 23.469146600801793 1 0 0 I I #
coedge $-1 $272 $272 $-1 $394 reversed $168 $-1 #
edge $-1 $395 0 $395 6.2831853071796004 $169 $396 forward 7 unknown #
vertex $-1 $172 $397 #
ellipse-curve $-1 -71.253735790873094 -18.10563255721042 16.399117435298432 -0.68199836817093118 0 0.7313536940579346 1.0970305410869019 0 1.0229975522563968 1 I I #
coedge $-1 $276 $276 $-1 $398 reversed $175 $-1 #
edge $-1 $399 0 $399 6.2831853071796004 $176 $400 forward 7 unknown #
vertex $-1 $179 $401 #
ellipse-curve $-1 -71.253735790873094 -13.350087301097844 16.399117435298432 -0.68199836817093118 0 0.7313536940579346 1.0970305410869019 0 1.0229975522563968 1 I I #
face $-1 $-1 $195 $27 $-1 $402 reversed single #
loop $-1 $-1 $296 $180 #
plane-surface $-1 0 53.841553652862679 0 0 -1 0 0 0 -1 forward_v I I I I #
coedge $-1 $403 $294 $297 $404 forward $181 $-1 #
coedge $-1 $300 $183 $184 $288 reversed $113 $-1 #
coedge $-1 $294 $403 $183 $286 reversed $181 $-1 #
edge $-1 $301 -23.469146600801796 $405 23.469146600801796 $285 $406 forward 7 unknown #
coedge $-1 $185 $184 $403 $407 forward $73 $-1 #
edge $-1 $292 -78.835413678395952 $405 78.835413678395952 $284 $408 forward 7 unknown #
coedge $-1 $297 $296 $185 $290 reversed $281 $-1 #
edge $-1 $409 -78.835413678395952 $291 78.835413678395952 $289 $410 forward 7 unknown #
vertex $-1 $187 $411 #
vertex $-1 $303 $412 #
straight-curve $-1 78.835413678395952 0 -23.469146600801796 0 -1 0 I I #
coedge $-1 $283 $285 $188 $295 reversed $181 $-1 #
edge $-1 $298 -53.841553652862679 $301 53.841553652862679 $294 $413 forward 7 unknown #
coedge $-1 $289 $189 $194 $304 forward $281 $-1 #
coedge $-1 $189 $289 $283 $404 reversed $281 $-1 #
vertex $-1 $190 $414 #
straight-curve $-1 0 53.841553652862679 23.469146600801796 -1 0 0 I I #
coedge $-1 $191 $284 $193 $303 reversed $113 $-1 #
vertex $-1 $295 $415 #
straight-curve $-1 0 -53.841553652862679 23.469146600801796 1 0 0 I I #
edge $-1 $196 -23.469146600801796 $292 23.469146600801796 $193 $416 forward 7 unknown #
edge $-1 $197 -23.469146600801796 $291 23.469146600801796 $194 $417 forward 7 unknown #
point $-1 78.835413678395952 -53.841553652862679 23.469146600801796 #
point $-1 78.835413678395952 53.841553652862679 23.469146600801796 #
face $-1 $-1 $418 $28 $-1 $419 reversed single #
loop $-1 $-1 $420 $199 #
plane-surface $-1 0 0 -23.469146600801796 0 0 1 1 0 0 forward_v I I I I #
coedge $-1 $317 $327 $312 $421 forward $200 $-1 #
coedge $-1 $205 $202 $420 $422 reversed $121 $-1 #
coedge $-1 $202 $205 $310 $421 reversed $121 $-1 #
coedge $-1 $423 $424 $202 $314 forward $418 $-1 #
edge $-1 $425 -23.469146600801796 $426 23.469146600801796 $313 $427 forward 7 unknown #
coedge $-1 $420 $208 $203 $316 forward $308 $-1 #
edge $-1 $213 -22.526845981628547 $320 -15.521269550998873 $315 $428 forward 7 unknown #
coedge $-1 $210 $310 $204 $318 forward $200 $-1 #
edge $-1 $319 15.521269550998873 $212 22.526845981628547 $317 $429 forward 7 unknown #
vertex $-1 $318 $430 #
vertex $-1 $316 $431 #
straight-curve $-1 -34.545327317312584 -25.081703479502927 0 0 0 -1 I I #
coedge $-1 $424 $423 $207 $323 forward $418 $-1 #
edge $-1 $328 -23.469146600801796 $325 23.469146600801796 $322 $432 forward 7 unknown #
coedge $-1 $208 $420 $424 $433 forward $308 $-1 #
vertex $-1 $209 $434 #
straight-curve $-1 -41.550903747942257 -19.730814283091402 -23.469146600801796 0 1 0 I I #
coedge $-1 $310 $210 $423 $435 forward $200 $-1 #
vertex $-1 $435 $436 #
straight-curve $-1 -41.550903747942257 -19.730814283091402 23.469146600801796 0 -1 0 I I #
point $-1 -41.550903747942257 -25.081703479502927 23.469146600801796 #
point $-1 -41.550903747942257 -25.081703479502927 -23.469146600801796 #
plane-surface $-1 0 0 23.469146600801796 0 0 1 1 0 0 forward_v I I I I #
coedge $-1 $343 $342 $335 $437 forward $216 $-1 #
coedge $-1 $335 $218 $220 $339 reversed $129 $-1 #
coedge $-1 $218 $334 $333 $437 reversed $129 $-1 #
coedge $-1 $226 $221 $218 $337 forward $227 $-1 #
edge $-1 $340 27.963721504955267 $438 60.691021995961329 $336 $439 forward 7 unknown #
coedge $-1 $220 $219 $343 $440 reversed $81 $-1 #
edge $-1 $441 -157.6708273567919 $340 -118.1945698650369 $334 $442 forward 7 unknown #
vertex $-1 $222 $443 #
straight-curve $-1 46.108113187389876 4.1376085243054099 23.469146600801793 0 -1 0 I I #
coedge $-1 $333 $223 $226 $347 reversed $216 $-1 #
coedge $-1 $223 $333 $338 $440 forward $216 $-1 #
vertex $-1 $224 $444 #
straight-curve $-1 78.835413678395952 14.379925086679883 110.13887567940377 0 0 1 I I #
straight-curve $-1 -51.879625523306785 14.379925086679883 89.562712157104812 0.82903756765294845 0 -0.55919291073839883 I I #
edge $-1 $438 2.1705090105417568 $228 14.379925086679883 $342 $445 forward 7 unknown #
point $-1 78.835413678395952 14.379925086679883 23.469146600801796 #
point $-1 46.10811318738989 14.379925086679883 23.469146600801793 #
edge $-1 $446 1 $446 0 $231 $-1 forward 7 unknown #
vertex $-1 $232 $447 #
ellipse-curve $-1 59.678520863797097 8.2752170486108199 8.2905726046434172 0.55919291073839883 0 0.82903756765294845 1.2435563514794228 0 -0.83878936610759824 1 I I #
point $-1 63.71531978437234 8.2752170486108199 11.592935568757694 #
loop $-1 $-1 $244 $235 #
plane-surface $-1 0 0 23.469146600801796 0 0 1 1 0 0 forward_v I I I I #
coedge $-1 $238 $360 $247 $368 forward $144 $-1 #
edge $-1 $365 118.1945698650369 $361 157.6708273567919 $239 $448 forward 7 unknown #
coedge $-1 $244 $449 $240 $359 forward $354 $-1 #
edge $-1 $362 -60.691021995961329 $365 -27.963721504955267 $358 $450 forward 7 unknown #
coedge $-1 $356 $241 $449 $451 reversed $144 $-1 #
vertex $-1 $242 $452 #
vertex $-1 $242 $453 #
straight-curve $-1 78.835413678395952 26.589341162817995 110.13887567940377 0 0 1 I I #
coedge $-1 $449 $244 $248 $369 forward $354 $-1 #
vertex $-1 $359 $454 #
straight-curve $-1 46.108113187389876 4.1376085243054099 23.469146600801793 0 -1 0 I I #
straight-curve $-1 78.835413678395966 4.1376085243054099 1.3943032689287804 0 1 0 I I #
edge $-1 $455 86.669729078601975 $250 108.74457241047499 $356 $456 forward 7 unknown #
edge $-1 $249 27.963721504955267 $455 60.691021995961329 $364 $457 forward 7 unknown #
point $-1 46.10811318738989 14.379925086679883 23.469146600801793 #
point $-1 78.835413678395938 14.379925086679883 1.3943032689287804 #
edge $-1 $458 1 $458 0 $252 $-1 forward 7 unknown #
vertex $-1 $253 $459 #
ellipse-curve $-1 59.678520863797097 20.484633124748932 8.2905726046434172 0.55919291073839883 0 0.82903756765294845 1.2435563514794228 0 -0.83878936610759824 1 I I #
point $-1 63.71531978437234 20.484633124748932 11.592935568757694 #
plane-surface $-1 0 0 23.469146600801796 0 0 1 1 0 0 forward_v I I I I #
coedge $-1 $387 $386 $379 $460 forward $257 $-1 #
coedge $-1 $379 $259 $261 $383 reversed $159 $-1 #
coedge $-1 $259 $378 $377 $460 reversed $159 $-1 #
coedge $-1 $267 $262 $259 $381 forward $268 $-1 #
edge $-1 $384 -29.511272418594089 $461 -14.347916643548373 $380 $462 forward 7 unknown #
coedge $-1 $261 $260 $387 $463 reversed $99 $-1 #
edge $-1 $464 0 $384 20.733272967982771 $378 $465 forward 7 unknown #
vertex $-1 $263 $466 #
straight-curve $-1 -63.672057903350229 -7.8639299645770642 23.469146600801796 0 1 0 I I #
coedge $-1 $377 $264 $267 $391 reversed $257 $-1 #
coedge $-1 $264 $377 $382 $463 forward $257 $-1 #
vertex $-1 $265 $467 #
straight-curve $-1 -78.835413678395952 -21.275996061285465 62.321115151177835 0 0 1 I I #
straight-curve $-1 -78.835413678395952 -21.275996061285465 9.329088269795065 -0.7313536940579346 0 -0.68199836817093118 I I #
edge $-1 $461 10.179723797022792 $269 21.275996061285465 $386 $468 forward 7 unknown #
point $-1 -78.835413678395952 -21.275996061285465 23.469146600801796 #
point $-1 -63.672057903350236 -21.275996061285465 23.469146600801796 #
edge $-1 $469 1 $469 0 $272 $-1 forward 7 unknown #
vertex $-1 $273 $470 #
ellipse-curve $-1 -68.663226379011306 -18.10563255721042 13.621136260742134 -0.68199836817093118 0 0.7313536940579346 1.0970305410869019 0 1.0229975522563968 1 I I #
point $-1 -70.156705249786171 -18.10563255721042 17.422114987554814 #
edge $-1 $471 1 $471 0 $276 $-1 forward 7 unknown #
vertex $-1 $277 $472 #
ellipse-curve $-1 -68.663226379011306 -13.350087301097844 13.621136260742134 -0.68199836817093118 0 0.7313536940579346 1.0970305410869019 0 1.0229975522563968 1 I I #
point $-1 -70.156705249786171 -13.350087301097844 17.422114987554814 #
plane-surface $-1 78.835413678395952 0 0 -1 0 0 0 0 1 forward_v I I I I #
coedge $-1 $285 $283 $287 $407 reversed $181 $-1 #
edge $-1 $298 -23.469146600801796 $409 23.469146600801796 $297 $473 forward 7 unknown #
vertex $-1 $407 $474 #
straight-curve $-1 -78.835413678395952 -53.841553652862679 0 0 0 -1 I I #
edge $-1 $405 -53.841553652862679 $409 53.841553652862679 $403 $475 forward 7 unknown #
straight-curve $-1 0 -53.841553652862679 -23.469146600801796 -1 0 0 I I #
vertex $-1 $290 $476 #
straight-curve $-1 0 53.841553652862679 -23.469146600801796 1 0 0 I I #
point $-1 78.835413678395952 53.841553652862679 -23.469146600801796 #
point $-1 78.835413678395952 -53.841553652862679 -23.469146600801796 #
straight-curve $-1 -78.835413678395952 0 23.469146600801796 0 -1 0 I I #
point $-1 -78.835413678395952 53.841553652862679 23.469146600801796 #
point $-1 -78.835413678395952 -53.841553652862679 23.469146600801796 #
straight-curve $-1 78.835413678395952 -53.841553652862679 0 0 0 -1 I I #
straight-curve $-1 78.835413678395952 53.841553652862679 0 0 0 -1 I I #
loop $-1 $-1 $313 $307 #
plane-surface $-1 0 -53.841553652862679 0 0 1 0 0 0 1 forward_v I I I I #
coedge $-1 $324 $315 $311 $422 forward $308 $-1 #
edge $-1 $426 -34.110739369771281 $319 -5.3508891964115257 $310 $477 forward 7 unknown #
edge $-1 $320 5.3508891964115257 $425 34.110739369771281 $420 $478 forward 7 unknown #
coedge $-1 $322 $313 $327 $435 reversed $418 $-1 #
coedge $-1 $313 $322 $324 $433 reversed $418 $-1 #
vertex $-1 $433 $479 #
vertex $-1 $314 $480 #
straight-curve $-1 -34.545327317312584 -53.841553652862679 0 0 0 1 I I #
straight-curve $-1 -19.02405776631371 -25.081703479502927 -23.469146600801796 1 0 0 I I #
straight-curve $-1 -19.02405776631371 -25.081703479502927 23.469146600801796 -1 0 0 I I #
point $-1 -34.545327317312584 -25.081703479502927 23.469146600801796 #
point $-1 -34.545327317312584 -25.081703479502927 -23.469146600801796 #
straight-curve $-1 -41.550903747942257 -53.841553652862679 0 0 0 -1 I I #
edge $-1 $425 34.545327317312584 $325 41.550903747942257 $424 $481 forward 7 unknown #
point $-1 -41.550903747942257 -53.841553652862679 -23.469146600801796 #
edge $-1 $328 -41.550903747942257 $426 -34.545327317312584 $423 $482 forward 7 unknown #
point $-1 -41.550903747942257 -53.841553652862679 23.469146600801796 #
edge $-1 $438 86.669729078601975 $441 108.74457241047499 $333 $483 forward 7 unknown #
vertex $-1 $347 $484 #
straight-curve $-1 18.144391682434623 2.1705090105417568 23.469146600801793 1 0 0 I I #
edge $-1 $441 -1.9670995137636531 $344 10.242316562374473 $343 $485 forward 7 unknown #
vertex $-1 $440 $486 #
straight-curve $-1 -51.879625523306785 2.1705090105417568 89.562712157104812 -0.82903756765294845 0 0.55919291073839883 I I #
point $-1 46.10811318738989 2.1705090105417568 23.469146600801793 #
point $-1 78.835413678395938 14.379925086679883 1.3943032689287804 #
straight-curve $-1 78.835413678395952 0 23.469146600801796 0 1 0 I I #
vertex $-1 $350 $487 #
point $-1 60.922077215276516 8.2752170486108199 7.4517832385358185 #
straight-curve $-1 -51.879625523306785 26.589341162817995 89.562712157104812 0.82903756765294845 0 -0.55919291073839883 I I #
coedge $-1 $358 $364 $360 $451 forward $354 $-1 #
straight-curve $-1 18.144391682434623 26.589341162817995 23.469146600801793 -1 0 0 I I #
edge $-1 $455 14.379925086679883 $362 26.589341162817995 $360 $488 forward 7 unknown #
point $-1 78.835413678395938 26.589341162817995 1.3943032689287804 #
point $-1 78.835413678395952 26.589341162817995 23.469146600801796 #
point $-1 46.10811318738989 26.589341162817995 23.469146600801793 #
vertex $-1 $451 $489 #
straight-curve $-1 78.835413678395952 14.379925086679883 110.13887567940377 0 0 -1 I I #
straight-curve $-1 18.144391682434623 14.379925086679883 23.469146600801793 1 0 0 I I #
vertex $-1 $372 $490 #
point $-1 60.922077215276516 20.484633124748932 7.4517832385358185 #
edge $-1 $461 38.851968550376043 $464 52.99202688138277 $377 $491 forward 7 unknown #
vertex $-1 $391 $492 #
straight-curve $-1 -93.183330321944325 -10.179723797022792 23.469146600801793 -1 0 0 I I #
edge $-1 $464 2.3157938324457277 $388 13.412066096708401 $387 $493 forward 7 unknown #
vertex $-1 $463 $494 #
straight-curve $-1 -78.835413678395952 -10.179723797022792 9.329088269795065 0.7313536940579346 0 0.68199836817093118 I I #
point $-1 -63.672057903350236 -10.179723797022792 23.469146600801796 #
point $-1 -78.835413678395952 -21.275996061285465 9.329088269795065 #
straight-curve $-1 -78.835413678395952 0 23.469146600801796 0 -1 0 I I #
vertex $-1 $394 $495 #
point $-1 -67.566195837924411 -18.10563255721042 14.644133812998531 #
vertex $-1 $398 $496 #
point $-1 -67.566195837924411 -13.350087301097844 14.644133812998531 #
straight-curve $-1 -78.835413678395952 53.841553652862679 0 0 0 -1 I I #
point $-1 -78.835413678395952 -53.841553652862679 -23.469146600801796 #
straight-curve $-1 -78.835413678395952 0 -23.469146600801796 0 1 0 I I #
point $-1 -78.835413678395952 53.841553652862679 -23.469146600801796 #
straight-curve $-1 -34.545327317312584 -19.730814283091402 23.469146600801796 0 1 0 I I #
straight-curve $-1 -34.545327317312584 -19.730814283091402 -23.469146600801796 0 -1 0 I I #
point $-1 -34.545327317312584 -53.841553652862679 -23.469146600801796 #
point $-1 -34.545327317312584 -53.841553652862679 23.469146600801796 #
straight-curve $-1 0 -53.841553652862679 -23.469146600801796 -1 0 0 I I #
straight-curve $-1 0 -53.841553652862679 23.469146600801796 1 0 0 I I #
straight-curve $-1 78.835413678395952 2.1705090105417568 110.13887567940377 0 0 -1 I I #
point $-1 78.835413678395952 2.1705090105417568 23.469146600801796 #
straight-curve $-1 78.835413678395966 4.1376085243054099 1.3943032689287804 0 1 0 I I #
point $-1 78.835413678395938 2.1705090105417568 1.3943032689287804 #
point $-1 58.839731497689492 8.2752170486108199 7.0470162531639939 #
straight-curve $-1 78.835413678395952 0 23.469146600801796 0 1 0 I I #
point $-1 78.835413678395952 14.379925086679883 23.469146600801796 #
point $-1 58.839731497689492 20.484633124748932 7.0470162531639939 #
straight-curve $-1 -78.835413678395952 -10.179723797022792 62.321115151177835 0 0 -1 I I #
point $-1 -78.835413678395952 -10.179723797022792 23.469146600801796 #
straight-curve $-1 -78.835413678395952 -7.8639299645770642 9.3290882697950597 0 -1 0 I I #
point $-1 -78.835413678395952 -10.179723797022792 9.329088269795065 #
point $-1 -67.640228826754921 -18.10563255721042 12.524105719655232 #
point $-1 -67.640228826754921 -13.350087301097844 12.524105719655232 #
End-of-ACIS-data 