500 0 7 0           
7 Unknown 11 ACIS 5.0 NT 24 Thu Mar 25 16:34:28 1999 
-1 9.9999999999999995e-007 1e-010 
body $-1 $7 $-1 $8 #
body $-1 $9 $-1 $10 #
body $-1 $11 $-1 $12 #
body $-1 $13 $-1 $14 #
body $-1 $15 $-1 $16 #
body $-1 $17 $-1 $18 #
body $-1 $19 $-1 $20 #
lump $-1 $-1 $21 $0 #
transform $-1 1 0 0 0 1 0 0 0 1 47.007049775688955 28.563306514446083 11.106102572037468 1 rotate no_reflect no_shear #
lump $-1 $-1 $22 $1 #
transform $-1 1 0 0 0 1 0 0 0 1 47.007049775688955 28.563306514446083 11.106102572037468 1 rotate no_reflect no_shear #
lump $-1 $-1 $23 $2 #
transform $-1 1 0 0 0 1 0 0 0 1 47.007049775688955 28.563306514446083 11.106102572037468 1 rotate no_reflect no_shear #
lump $-1 $-1 $24 $3 #
transform $-1 1 0 0 0 1 0 0 0 1 47.007049775688955 28.563306514446083 11.106102572037468 1 rotate no_reflect no_shear #
lump $-1 $-1 $25 $4 #
transform $-1 1 0 0 0 1 0 0 0 1 47.007049775688955 28.563306514446083 11.106102572037468 1 rotate no_reflect no_shear #
lump $-1 $-1 $26 $5 #
transform $-1 1 0 0 0 1 0 0 0 1 47.007049775688955 28.563306514446083 11.106102572037468 1 rotate no_reflect no_shear #
lump $-1 $-1 $27 $6 #
transform $-1 1 0 0 0 1 0 0 0 1 47.007049775688955 28.563306514446083 11.106102572037468 1 rotate no_reflect no_shear #
shell $-1 $-1 $-1 $28 $-1 $7 #
shell $-1 $-1 $-1 $29 $-1 $9 #
shell $-1 $-1 $-1 $30 $-1 $11 #
shell $-1 $-1 $-1 $31 $-1 $13 #
shell $-1 $-1 $-1 $32 $-1 $15 #
shell $-1 $-1 $-1 $33 $-1 $17 #
shell $-1 $-1 $-1 $34 $-1 $19 #
face $-1 $35 $36 $21 $-1 $37 forward single #
face $-1 $38 $39 $22 $-1 $40 forward single #
face $-1 $41 $42 $23 $-1 $43 reversed single #
face $-1 $44 $45 $24 $-1 $46 forward single #
face $-1 $47 $48 $25 $-1 $49 forward single #
face $-1 $50 $51 $26 $-1 $52 reversed single #
face $-1 $53 $54 $27 $-1 $55 forward single #
face $-1 $56 $57 $21 $-1 $58 reversed single #
loop $-1 $-1 $59 $28 #
plane-surface $-1 0 0 11.106102572037468 0 0 1 1 0 0 forward_v I I I I #
face $-1 $60 $61 $22 $-1 $62 reversed single #
loop $-1 $-1 $63 $29 #
plane-surface $-1 0 -28.563306514446083 0 0 1 0 0 0 1 forward_v I I I I #
face $-1 $64 $65 $23 $-1 $66 reversed single #
loop $-1 $-1 $67 $30 #
plane-surface $-1 -123.06605479300161 -14.602989473124744 58.778921020763377 0 1 0 -0.80901700255871778 0 0.5877852410284794 forward_v I I I I #
face $-1 $68 $69 $24 $-1 $70 forward single #
loop $-1 $71 $72 $31 #
cone-surface $-1 -43.575191466955005 -12.810590267840736 6.8215972669393894 0.80901700255871778 0 -0.5877852410284794 0.2938926205142397 0 0.40450850127935889 1 I I 0 1 0.5 forward I I I I #
face $-1 $73 $74 $25 $-1 $75 forward single #
loop $-1 $76 $77 $32 #
cone-surface $-1 -43.575191466955005 -10.121991459914724 6.8215972669393894 0.80901700255871778 0 -0.5877852410284794 0.2938926205142397 0 0.40450850127935889 1 I I 0 1 0.5 forward I I I I #
face $-1 $78 $79 $26 $-1 $80 reversed single #
loop $-1 $-1 $81 $33 #
plane-surface $-1 56.281594195697224 22.499676440320243 133.84705382518723 0 1 0 0.75470958851134928 0 0.65605901945558964 forward_v I I I I #
face $-1 $82 $83 $27 $-1 $84 forward single #
loop $-1 $85 $86 $34 #
cone-surface $-1 41.227995730964139 25.531491477383163 4.8740380925178908 -0.75470958851134928 0 -0.65605901945558964 0.65605901945558964 0 -0.75470958851134928 1 I I 0 1 1 forward I I I I #
face $-1 $87 $88 $21 $-1 $89 reversed single #
loop $-1 $-1 $90 $35 #
plane-surface $-1 0 0 -11.106102572037468 0 0 1 1 0 0 forward_v I I I I #
coedge $-1 $91 $92 $93 $94 forward $36 $-1 #
face $-1 $95 $96 $22 $-1 $97 forward single #
loop $-1 $-1 $98 $38 #
plane-surface $-1 -47.007049775688955 0 0 1 0 0 0 0 -1 forward_v I I I I #
coedge $-1 $99 $100 $101 $102 forward $39 $-1 #
face $-1 $103 $104 $23 $-1 $105 reversed single #
loop $-1 $-1 $106 $41 #
plane-surface $-1 -47.007049775688955 -11.466290863877731 3.5188208558812519 -0.80901700255871778 0 0.5877852410284794 0.5877852410284794 0 0.80901700255871778 forward_v I I I I #
coedge $-1 $107 $108 $109 $110 reversed $42 $-1 #
face $-1 $-1 $111 $24 $-1 $112 forward single #
loop $-1 $113 $114 $44 #
cone-surface $-1 -42.697320246253469 -12.810590267840736 6.1837865096623013 0.80901700255871778 0 -0.5877852410284794 0.14694631025711985 0 0.20225425063967944 1 I I -0.70710678118654746 0.70710678118654746 0.25 forward I I I I #
loop $-1 $-1 $115 $31 #
coedge $-1 $72 $72 $116 $117 reversed $45 $-1 #
face $-1 $-1 $118 $25 $-1 $119 forward single #
loop $-1 $120 $121 $47 #
cone-surface $-1 -42.697320246253469 -10.121991459914724 6.1837865096623013 0.80901700255871778 0 -0.5877852410284794 0.14694631025711985 0 0.20225425063967944 1 I I -0.70710678118654746 0.70710678118654746 0.25 forward I I I I #
loop $-1 $-1 $122 $32 #
coedge $-1 $77 $77 $123 $124 reversed $48 $-1 #
face $-1 $125 $126 $26 $-1 $127 reversed single #
loop $-1 $-1 $128 $50 #
plane-surface $-1 -14.671748190988225 25.531491477383163 72.168255858510051 0.75470958851134928 0 0.65605901945558964 0.65605901945558964 0 -0.75470958851134928 forward_v I I I I #
coedge $-1 $129 $130 $131 $132 reversed $51 $-1 #
face $-1 $-1 $133 $27 $-1 $134 forward single #
loop $-1 $135 $136 $53 #
cone-surface $-1 39.370726535310112 25.531491477383163 3.2595386533769677 -0.75470958851134928 0 -0.65605901945558964 0.32802950972779482 0 -0.37735479425567464 1 I I -0.70710678118654746 0.70710678118654746 0.5 forward I I I I #
loop $-1 $-1 $137 $34 #
coedge $-1 $86 $86 $138 $139 reversed $54 $-1 #
face $-1 $140 $141 $21 $-1 $142 reversed single #
loop $-1 $-1 $143 $56 #
plane-surface $-1 0 -28.563306514446083 0 0 1 0 0 0 1 forward_v I I I I #
coedge $-1 $144 $145 $146 $147 forward $57 $-1 #
coedge $-1 $148 $59 $149 $150 forward $36 $-1 #
coedge $-1 $59 $148 $151 $152 forward $36 $-1 #
coedge $-1 $153 $154 $59 $94 reversed $155 $-1 #
edge $-1 $156 -28.563306514446083 $157 28.563306514446083 $93 $158 forward 7 unknown #
face $-1 $159 $160 $22 $-1 $161 reversed single #
loop $-1 $-1 $162 $60 #
plane-surface $-1 0 -35.543465035106756 1.2110799275493878 0 0 1 1 0 0 forward_v I I I I #
coedge $-1 $163 $164 $100 $165 forward $61 $-1 #
coedge $-1 $166 $63 $167 $168 reversed $39 $-1 #
coedge $-1 $63 $166 $98 $165 reversed $39 $-1 #
coedge $-1 $169 $162 $63 $102 reversed $96 $-1 #
edge $-1 $170 -47.007049775688955 $171 47.007049775688955 $101 $172 forward 7 unknown #
face $-1 $173 $174 $23 $-1 $175 forward single #
loop $-1 $-1 $176 $64 #
plane-surface $-1 -123.06605479300161 -8.3295922546307182 58.778921020763377 0 -1 0 0.80901700255871778 0 -0.5877852410284794 forward_v I I I I #
coedge $-1 $177 $178 $179 $180 reversed $65 $-1 #
coedge $-1 $108 $67 $181 $182 reversed $42 $-1 #
coedge $-1 $67 $107 $177 $183 reversed $42 $-1 #
coedge $-1 $179 $184 $67 $110 forward $174 $-1 #
edge $-1 $185 14.525977620811851 $186 20.038460298156046 $109 $187 forward 7 unknown #
loop $-1 $-1 $116 $68 #
plane-surface $-1 -47.007049775688955 -11.466290863877731 3.5188208558812519 -0.80901700255871778 0 0.5877852410284794 0.5877852410284794 0 0.80901700255871778 forward_v I I I I #
loop $-1 $-1 $188 $44 #
coedge $-1 $114 $114 $115 $189 reversed $69 $-1 #
coedge $-1 $115 $115 $114 $189 forward $71 $-1 #
coedge $-1 $116 $116 $72 $117 forward $111 $-1 #
edge $-1 $190 0 $190 6.2831853071796004 $116 $191 forward 7 unknown #
loop $-1 $-1 $123 $73 #
plane-surface $-1 -47.007049775688955 -11.466290863877731 3.5188208558812519 -0.80901700255871778 0 0.5877852410284794 0.5877852410284794 0 0.80901700255871778 forward_v I I I I #
loop $-1 $-1 $192 $47 #
coedge $-1 $121 $121 $122 $193 reversed $74 $-1 #
coedge $-1 $122 $122 $121 $193 forward $76 $-1 #
coedge $-1 $123 $123 $77 $124 forward $118 $-1 #
edge $-1 $194 0 $194 6.2831853071796004 $123 $195 forward 7 unknown #
face $-1 $196 $197 $26 $-1 $198 forward single #
loop $-1 $-1 $199 $78 #
plane-surface $-1 0 28.563306514446083 0 0 -1 0 0 0 -1 forward_v I I I I #
coedge $-1 $200 $201 $202 $203 reversed $79 $-1 #
coedge $-1 $130 $81 $204 $205 reversed $51 $-1 #
coedge $-1 $81 $129 $200 $206 reversed $51 $-1 #
coedge $-1 $202 $207 $81 $132 forward $208 $-1 #
edge $-1 $209 55.817424340556144 $210 65.708613440769014 $131 $211 forward 7 unknown #
loop $-1 $-1 $138 $82 #
plane-surface $-1 -14.671748190988225 25.531491477383163 72.168255858510051 0.75470958851134928 0 0.65605901945558964 0.65605901945558964 0 -0.75470958851134928 forward_v I I I I #
loop $-1 $-1 $212 $53 #
coedge $-1 $136 $136 $137 $213 reversed $83 $-1 #
coedge $-1 $137 $137 $136 $213 forward $85 $-1 #
coedge $-1 $138 $138 $86 $139 forward $133 $-1 #
edge $-1 $214 0 $214 6.2831853071796004 $138 $215 forward 7 unknown #
face $-1 $216 $217 $21 $-1 $218 reversed single #
loop $-1 $-1 $219 $87 #
plane-surface $-1 -47.007049775688955 0 0 1 0 0 0 0 -1 forward_v I I I I #
coedge $-1 $220 $151 $221 $222 forward $88 $-1 #
coedge $-1 $223 $90 $220 $224 forward $57 $-1 #
coedge $-1 $90 $223 $225 $226 forward $57 $-1 #
coedge $-1 $154 $153 $90 $147 reversed $155 $-1 #
edge $-1 $227 -28.563306514446083 $228 28.563306514446083 $146 $229 forward 7 unknown #
coedge $-1 $92 $91 $230 $231 forward $36 $-1 #
coedge $-1 $232 $233 $91 $150 reversed $217 $-1 #
edge $-1 $157 -47.007049775688955 $234 47.007049775688955 $149 $235 forward 7 unknown #
coedge $-1 $143 $236 $92 $152 reversed $88 $-1 #
edge $-1 $237 -47.007049775688955 $156 47.007049775688955 $151 $238 forward 7 unknown #
coedge $-1 $146 $93 $236 $239 forward $155 $-1 #
coedge $-1 $93 $146 $232 $240 reversed $155 $-1 #
loop $-1 $-1 $153 $216 #
vertex $-1 $94 $241 #
vertex $-1 $94 $242 #
straight-curve $-1 47.007049775688955 0 11.106102572037468 0 1 0 I I #
face $-1 $243 $244 $22 $-1 $245 reversed single #
loop $-1 $-1 $246 $95 #
plane-surface $-1 0 -35.543465035106756 -3.5871820943417094 0 0 1 1 0 0 forward_v I I I I #
coedge $-1 $101 $247 $248 $249 forward $96 $-1 #
coedge $-1 $250 $98 $251 $252 reversed $61 $-1 #
coedge $-1 $98 $250 $169 $253 reversed $61 $-1 #
edge $-1 $170 -1.2110799275493878 $254 3.5871820943417094 $98 $255 forward 7 unknown #
coedge $-1 $100 $99 $256 $257 forward $39 $-1 #
coedge $-1 $248 $258 $99 $168 forward $259 $-1 #
edge $-1 $260 -3.5871820943417094 $171 1.2110799275493878 $167 $261 forward 7 unknown #
coedge $-1 $247 $101 $164 $253 forward $96 $-1 #
vertex $-1 $165 $262 #
vertex $-1 $249 $263 #
straight-curve $-1 0 -28.563306514446083 1.2110799275493878 1 0 0 I I #
face $-1 $-1 $264 $23 $-1 $265 reversed single #
loop $-1 $-1 $109 $103 #
plane-surface $-1 0 0 11.106102572037468 0 0 1 1 0 0 forward_v I I I I #
coedge $-1 $266 $267 $268 $269 reversed $104 $-1 #
coedge $-1 $270 $106 $108 $183 forward $65 $-1 #
coedge $-1 $106 $270 $266 $271 forward $65 $-1 #
coedge $-1 $268 $109 $106 $180 forward $174 $-1 #
edge $-1 $186 -8.8698440411858783 $272 -2.5964468226918527 $179 $273 forward 7 unknown #
coedge $-1 $274 $275 $107 $182 forward $264 $-1 #
edge $-1 $276 -25.870639654500437 $185 -18.283357938344221 $181 $277 forward 7 unknown #
edge $-1 $186 -9.3783958707413415 $276 0 $108 $278 forward 7 unknown #
coedge $-1 $109 $268 $274 $279 forward $174 $-1 #
vertex $-1 $182 $280 #
vertex $-1 $110 $281 #
straight-curve $-1 -61.533027396500806 -14.602989473124744 11.106102572037468 1 0 0 I I #
coedge $-1 $188 $188 $-1 $282 reversed $113 $-1 #
edge $-1 $283 0 $283 6.2831853071796004 $114 $284 forward 7 unknown #
vertex $-1 $117 $285 #
ellipse-curve $-1 -44.250808437016858 -12.810590267840736 7.3124617139593582 -0.80901700255871778 0 0.5877852410284794 0.2938926205142397 0 0.40450850127935889 1 I I #
coedge $-1 $192 $192 $-1 $286 reversed $120 $-1 #
edge $-1 $287 0 $287 6.2831853071796004 $121 $288 forward 7 unknown #
vertex $-1 $124 $289 #
ellipse-curve $-1 -44.250808437016858 -10.121991459914724 7.3124617139593582 -0.80901700255871778 0 0.5877852410284794 0.2938926205142397 0 0.40450850127935889 1 I I #
face $-1 $-1 $208 $26 $-1 $290 reversed single #
loop $-1 $-1 $291 $125 #
plane-surface $-1 0 0 11.106102572037468 0 0 1 1 0 0 forward_v I I I I #
coedge $-1 $292 $293 $201 $294 forward $126 $-1 #
coedge $-1 $295 $128 $130 $206 forward $79 $-1 #
coedge $-1 $128 $295 $199 $294 reversed $79 $-1 #
coedge $-1 $296 $131 $128 $203 forward $208 $-1 #
edge $-1 $210 9.7339307016286618 $297 15.797560775754501 $202 $298 forward 7 unknown #
coedge $-1 $299 $291 $129 $205 forward $197 $-1 #
edge $-1 $300 10.267973391187446 $209 18.866252677840343 $204 $301 forward 7 unknown #
edge $-1 $210 -94.014099551377925 $300 -80.908145617861535 $130 $302 forward 7 unknown #
coedge $-1 $131 $296 $299 $303 reversed $208 $-1 #
loop $-1 $-1 $202 $196 #
vertex $-1 $303 $304 #
vertex $-1 $132 $305 #
straight-curve $-1 47.007049775688955 22.499676440320243 66.923526912593616 0 0 -1 I I #
coedge $-1 $212 $212 $-1 $306 reversed $135 $-1 #
edge $-1 $307 0 $307 6.2831853071796004 $136 $308 forward 7 unknown #
vertex $-1 $139 $309 #
ellipse-curve $-1 42.7079101323625 25.531491477383163 6.1605080219310295 0.75470958851134928 0 0.65605901945558964 0.65605901945558964 0 -0.75470958851134928 1 I I #
face $-1 $-1 $155 $21 $-1 $310 reversed single #
loop $-1 $-1 $232 $140 #
plane-surface $-1 0 28.563306514446083 0 0 -1 0 0 0 -1 forward_v I I I I #
coedge $-1 $311 $230 $233 $312 forward $141 $-1 #
coedge $-1 $236 $143 $144 $224 reversed $88 $-1 #
coedge $-1 $230 $311 $143 $222 reversed $141 $-1 #
edge $-1 $237 -11.106102572037468 $313 11.106102572037468 $221 $314 forward 7 unknown #
coedge $-1 $145 $144 $311 $315 forward $57 $-1 #
edge $-1 $228 -47.007049775688955 $313 47.007049775688955 $220 $316 forward 7 unknown #
coedge $-1 $233 $232 $145 $226 reversed $217 $-1 #
edge $-1 $317 -47.007049775688955 $227 47.007049775688955 $225 $318 forward 7 unknown #
vertex $-1 $147 $319 #
vertex $-1 $239 $320 #
straight-curve $-1 47.007049775688955 0 -11.106102572037468 0 -1 0 I I #
coedge $-1 $219 $221 $148 $231 reversed $141 $-1 #
edge $-1 $234 -28.563306514446083 $237 28.563306514446083 $230 $321 forward 7 unknown #
coedge $-1 $225 $149 $154 $240 forward $217 $-1 #
coedge $-1 $149 $225 $219 $312 reversed $217 $-1 #
vertex $-1 $150 $322 #
straight-curve $-1 0 28.563306514446083 11.106102572037468 -1 0 0 I I #
coedge $-1 $151 $220 $153 $239 reversed $88 $-1 #
vertex $-1 $231 $323 #
straight-curve $-1 0 -28.563306514446083 11.106102572037468 1 0 0 I I #
edge $-1 $156 -11.106102572037468 $228 11.106102572037468 $153 $324 forward 7 unknown #
edge $-1 $157 -11.106102572037468 $227 11.106102572037468 $154 $325 forward 7 unknown #
point $-1 47.007049775688955 -28.563306514446083 11.106102572037468 #
point $-1 47.007049775688955 28.563306514446083 11.106102572037468 #
face $-1 $-1 $259 $22 $-1 $326 reversed single #
loop $-1 $-1 $327 $159 #
plane-surface $-1 0 -42.523623555767429 -1.1880510833961608 0 1 0 0 0 1 forward_v I I I I #
coedge $-1 $328 $256 $258 $329 forward $160 $-1 #
coedge $-1 $162 $169 $330 $331 forward $96 $-1 #
coedge $-1 $332 $167 $162 $249 reversed $259 $-1 #
edge $-1 $333 -6.9801585206606731 $171 6.9801585206606696 $248 $334 forward 7 unknown #
coedge $-1 $164 $163 $327 $335 reversed $61 $-1 #
coedge $-1 $256 $328 $163 $252 forward $160 $-1 #
edge $-1 $336 -6.9801585206606731 $254 6.9801585206606696 $163 $337 forward 7 unknown #
edge $-1 $170 -6.9801585206606696 $338 6.9801585206606731 $164 $339 forward 7 unknown #
vertex $-1 $165 $340 #
straight-curve $-1 -47.007049775688955 -28.563306514446083 0 0 0 -1 I I #
coedge $-1 $246 $251 $166 $257 reversed $160 $-1 #
edge $-1 $260 -47.007049775688955 $254 47.007049775688955 $256 $341 forward 7 unknown #
coedge $-1 $167 $332 $246 $329 reversed $259 $-1 #
loop $-1 $-1 $167 $243 #
vertex $-1 $168 $342 #
straight-curve $-1 47.007049775688955 -28.563306514446083 0 0 0 1 I I #
point $-1 -47.007049775688955 -28.563306514446086 1.2110799275493878 #
point $-1 47.007049775688955 -28.563306514446086 1.2110799275493878 #
loop $-1 $-1 $181 $173 #
plane-surface $-1 -47.007049775688955 0 0 1 0 0 0 0 -1 forward_v I I I I #
coedge $-1 $267 $176 $178 $271 reversed $104 $-1 #
coedge $-1 $176 $266 $343 $344 reversed $104 $-1 #
coedge $-1 $184 $179 $176 $269 forward $174 $-1 #
edge $-1 $272 -20.038460298156046 $345 -14.525977620811851 $268 $346 forward 7 unknown #
coedge $-1 $178 $177 $275 $347 reversed $65 $-1 #
edge $-1 $348 0 $272 9.3783958707413415 $266 $349 forward 7 unknown #
vertex $-1 $180 $350 #
straight-curve $-1 -41.49456709834476 -5.7331454319388655 11.106102572037468 0 1 0 I I #
coedge $-1 $343 $181 $184 $279 reversed $264 $-1 #
coedge $-1 $181 $343 $270 $347 forward $264 $-1 #
vertex $-1 $182 $351 #
straight-curve $-1 -47.007049775688955 -14.602989473124744 29.389460510381689 0 0 1 I I #
straight-curve $-1 -47.007049775688955 -14.602989473124744 3.5188208558812519 -0.5877852410284794 0 -0.80901700255871778 I I #
edge $-1 $345 8.3295922546307182 $185 14.602989473124744 $274 $352 forward 7 unknown #
point $-1 -47.007049775688955 -14.602989473124744 11.106102572037468 #
point $-1 -41.49456709834476 -14.602989473124744 11.106102572037468 #
edge $-1 $353 1 $353 0 $188 $-1 forward 7 unknown #
vertex $-1 $189 $354 #
ellipse-curve $-1 -42.899574496893145 -12.810590267840736 6.3307328199194215 -0.80901700255871778 0 0.5877852410284794 0.2938926205142397 0 0.40450850127935889 1 I I #
point $-1 -43.956915816502615 -12.810590267840736 7.7169702152387174 #
edge $-1 $355 1 $355 0 $192 $-1 forward 7 unknown #
vertex $-1 $193 $356 #
ellipse-curve $-1 -42.899574496893145 -10.121991459914724 6.3307328199194215 -0.80901700255871778 0 0.5877852410284794 0.2938926205142397 0 0.40450850127935889 1 I I #
point $-1 -43.956915816502615 -10.121991459914724 7.7169702152387174 #
plane-surface $-1 47.007049775688955 0 0 -1 0 0 0 0 1 forward_v I I I I #
coedge $-1 $204 $357 $295 $358 forward $197 $-1 #
coedge $-1 $293 $199 $357 $359 reversed $126 $-1 #
coedge $-1 $199 $292 $296 $360 forward $126 $-1 #
edge $-1 $297 -61.968295844159442 $361 -48.862341910643039 $199 $362 forward 7 unknown #
coedge $-1 $201 $200 $291 $358 reversed $79 $-1 #
coedge $-1 $207 $202 $293 $360 reversed $208 $-1 #
vertex $-1 $294 $363 #
straight-curve $-1 47.007049775688955 12.765745738691582 1.2149134718246017 0 1 0 I I #
coedge $-1 $357 $204 $207 $303 forward $197 $-1 #
vertex $-1 $205 $364 #
straight-curve $-1 28.140797097848612 22.499676440320243 11.106102572037472 1 0 0 I I #
straight-curve $-1 -14.671748190988225 22.499676440320243 72.168255858510051 -0.65605901945558964 0 0.75470958851134928 I I #
edge $-1 $209 22.499676440320243 $365 28.563306514446083 $207 $366 forward 7 unknown #
point $-1 47.007049775688955 22.499676440320243 11.106102572037468 #
point $-1 47.007049775688955 22.499676440320243 1.2149134718246017 #
edge $-1 $367 1 $367 0 $212 $-1 forward 7 unknown #
vertex $-1 $213 $368 #
ellipse-curve $-1 39.748081329565785 25.531491477383163 3.5875681631047627 0.75470958851134928 0 0.65605901945558964 0.65605901945558964 0 -0.75470958851134928 1 I I #
point $-1 43.363969151818075 25.531491477383163 5.4057984334196707 #
plane-surface $-1 47.007049775688955 0 0 -1 0 0 0 0 1 forward_v I I I I #
coedge $-1 $221 $219 $223 $315 reversed $141 $-1 #
edge $-1 $234 -11.106102572037468 $317 11.106102572037468 $233 $369 forward 7 unknown #
vertex $-1 $315 $370 #
straight-curve $-1 -47.007049775688955 -28.563306514446083 0 0 0 -1 I I #
edge $-1 $313 -28.563306514446083 $317 28.563306514446083 $311 $371 forward 7 unknown #
straight-curve $-1 0 -28.563306514446083 -11.106102572037468 -1 0 0 I I #
vertex $-1 $226 $372 #
straight-curve $-1 0 28.563306514446083 -11.106102572037468 1 0 0 I I #
point $-1 47.007049775688955 28.563306514446083 -11.106102572037468 #
point $-1 47.007049775688955 -28.563306514446083 -11.106102572037468 #
straight-curve $-1 -47.007049775688955 0 11.106102572037468 0 -1 0 I I #
point $-1 -47.007049775688955 28.563306514446083 11.106102572037468 #
point $-1 -47.007049775688955 -28.563306514446083 11.106102572037468 #
straight-curve $-1 47.007049775688955 -28.563306514446083 0 0 0 -1 I I #
straight-curve $-1 47.007049775688955 28.563306514446083 0 0 0 -1 I I #
plane-surface $-1 47.007049775688955 0 0 -1 0 0 0 0 1 forward_v I I I I #
coedge $-1 $373 $330 $250 $335 forward $244 $-1 #
coedge $-1 $251 $246 $373 $374 forward $160 $-1 #
edge $-1 $260 -6.9801585206606696 $375 6.9801585206606731 $258 $376 forward 7 unknown #
coedge $-1 $327 $377 $247 $331 reversed $244 $-1 #
edge $-1 $338 -47.007049775688955 $333 47.007049775688955 $330 $378 forward 7 unknown #
coedge $-1 $258 $248 $377 $379 forward $259 $-1 #
vertex $-1 $249 $380 #
straight-curve $-1 47.007049775688955 -35.543465035106756 1.2110799275493878 0 1 0 I I #
edge $-1 $338 -2.3991310109455486 $336 2.3991310109455486 $250 $381 forward 7 unknown #
vertex $-1 $252 $382 #
straight-curve $-1 -47.007049775688955 -35.543465035106756 -3.5871820943417094 0 1 0 I I #
vertex $-1 $253 $383 #
straight-curve $-1 -47.007049775688955 -35.543465035106756 1.2110799275493878 0 -1 0 I I #
point $-1 -47.007049775688955 -28.563306514446086 -3.5871820943417094 #
straight-curve $-1 0 -28.563306514446083 -3.5871820943417094 -1 0 0 I I #
point $-1 47.007049775688955 -28.563306514446086 -3.5871820943417094 #
coedge $-1 $275 $274 $267 $344 forward $264 $-1 #
edge $-1 $345 18.283357938344221 $348 25.870639654500437 $343 $384 forward 7 unknown #
vertex $-1 $279 $385 #
straight-curve $-1 -61.533027396500806 -8.3295922546307182 11.106102572037468 -1 0 0 I I #
edge $-1 $348 2.5964468226918527 $276 8.8698440411858783 $275 $386 forward 7 unknown #
vertex $-1 $347 $387 #
straight-curve $-1 -47.007049775688955 -8.3295922546307182 3.5188208558812519 0.5877852410284794 0 0.80901700255871778 I I #
point $-1 -41.49456709834476 -8.3295922546307182 11.106102572037468 #
point $-1 -47.007049775688955 -14.602989473124744 3.5188208558812519 #
straight-curve $-1 -47.007049775688955 0 11.106102572037468 0 -1 0 I I #
vertex $-1 $282 $388 #
point $-1 -42.60568187637891 -12.810590267840736 6.7352413211987798 #
vertex $-1 $286 $389 #
point $-1 -42.60568187637891 -10.121991459914724 6.7352413211987798 #
coedge $-1 $291 $299 $292 $359 forward $197 $-1 #
edge $-1 $361 -15.797560775754501 $300 -9.7339307016286618 $291 $390 forward 7 unknown #
edge $-1 $365 -47.007049775688955 $361 -38.408770489036058 $292 $391 forward 7 unknown #
edge $-1 $365 -11.106102572037468 $297 -1.2149134718246037 $296 $392 forward 7 unknown #
vertex $-1 $294 $393 #
straight-curve $-1 6.3521903668358277 28.563306514446083 47.982980529119722 -0.65605901945558975 0 0.75470958851134939 I I #
point $-1 47.007049775688955 28.563306514446083 1.2149134718246037 #
point $-1 38.408770489036058 22.499676440320243 11.106102572037464 #
vertex $-1 $303 $394 #
straight-curve $-1 47.007049775688955 0 11.106102572037468 0 1 0 I I #
vertex $-1 $306 $395 #
point $-1 40.404140349021375 25.531491477383163 2.8328585745934132 #
straight-curve $-1 -47.007049775688955 28.563306514446083 0 0 0 -1 I I #
point $-1 -47.007049775688955 -28.563306514446083 -11.106102572037468 #
straight-curve $-1 -47.007049775688955 0 -11.106102572037468 0 1 0 I I #
point $-1 -47.007049775688955 28.563306514446083 -11.106102572037468 #
coedge $-1 $377 $327 $328 $374 reversed $244 $-1 #
edge $-1 $375 -47.007049775688955 $336 47.007049775688955 $373 $396 forward 7 unknown #
vertex $-1 $379 $397 #
straight-curve $-1 47.007049775688955 -35.543465035106756 -3.5871820943417094 0 -1 0 I I #
coedge $-1 $330 $373 $332 $379 reversed $244 $-1 #
straight-curve $-1 0 -42.523623555767429 1.2110799275493878 1 0 0 I I #
edge $-1 $333 -2.3991310109455486 $375 2.3991310109455486 $332 $398 forward 7 unknown #
point $-1 47.007049775688955 -42.523623555767429 1.2110799275493878 #
straight-curve $-1 -47.007049775688955 -42.523623555767429 -1.1880510833961608 0 0 -1 I I #
point $-1 -47.007049775688955 -42.523623555767429 -3.5871820943417094 #
point $-1 -47.007049775688955 -42.523623555767429 1.2110799275493878 #
straight-curve $-1 -47.007049775688955 -8.3295922546307182 29.389460510381689 0 0 -1 I I #
point $-1 -47.007049775688955 -8.3295922546307182 11.106102572037468 #
straight-curve $-1 -47.007049775688955 -5.7331454319388655 3.5188208558812484 0 -1 0 I I #
point $-1 -47.007049775688955 -8.3295922546307182 3.5188208558812519 #
point $-1 -42.495065995613793 -12.810590267840736 6.036840199405181 #
point $-1 -42.495065995613793 -10.121991459914724 6.036840199405181 #
straight-curve $-1 38.408770489036051 12.765745738691582 11.106102572037472 0 -1 0 I I #
straight-curve $-1 0 28.563306514446083 11.106102572037468 -1 0 0 I I #
straight-curve $-1 47.007049775688955 28.563306514446083 0 0 0 -1 I I #
point $-1 38.408770489036058 28.563306514446083 11.106102572037464 #
point $-1 47.007049775688955 28.563306514446083 11.106102572037468 #
point $-1 38.993371741054439 25.531491477383163 2.9315091436491727 #
straight-curve $-1 0 -42.523623555767429 -3.5871820943417094 -1 0 0 I I #
point $-1 47.007049775688955 -42.523623555767429 -3.5871820943417094 #
straight-curve $-1 47.007049775688955 -42.523623555767429 -1.1880510833961608 0 0 -1 I I #
End-of-ACIS-data 