500 0 7 0           
7 Unknown 11 ACIS 5.0 NT 24 Fri Mar 26 17:41:56 1999 
-1 9.9999999999999995e-007 1e-010 
body $-1 $7 $-1 $8 #
body $-1 $9 $-1 $10 #
body $-1 $11 $-1 $12 #
body $-1 $13 $-1 $14 #
body $-1 $15 $-1 $16 #
body $-1 $17 $-1 $18 #
body $-1 $19 $-1 $20 #
lump $-1 $-1 $21 $0 #
transform $-1 1 0 0 0 1 0 0 0 1 60.294808801538132 40.264868533387158 9.582122008412318 1 rotate no_reflect no_shear #
lump $-1 $-1 $22 $1 #
transform $-1 1 0 0 0 1 0 0 0 1 60.294808801538132 40.264868533387158 9.582122008412318 1 rotate no_reflect no_shear #
lump $-1 $-1 $23 $2 #
transform $-1 1 0 0 0 1 0 0 0 1 60.294808801538132 40.264868533387158 9.582122008412318 1 rotate no_reflect no_shear #
lump $-1 $-1 $24 $3 #
transform $-1 1 0 0 0 1 0 0 0 1 60.294808801538132 40.264868533387158 9.582122008412318 1 rotate no_reflect no_shear #
lump $-1 $-1 $25 $4 #
transform $-1 1 0 0 0 1 0 0 0 1 60.294808801538132 40.264868533387158 9.582122008412318 1 rotate no_reflect no_shear #
lump $-1 $-1 $26 $5 #
transform $-1 1 0 0 0 1 0 0 0 1 60.294808801538132 40.264868533387158 9.582122008412318 1 rotate no_reflect no_shear #
lump $-1 $-1 $27 $6 #
transform $-1 1 0 0 0 1 0 0 0 1 60.294808801538132 40.264868533387158 9.582122008412318 1 rotate no_reflect no_shear #
shell $-1 $-1 $-1 $28 $-1 $7 #
shell $-1 $-1 $-1 $29 $-1 $9 #
shell $-1 $-1 $-1 $30 $-1 $11 #
shell $-1 $-1 $-1 $31 $-1 $13 #
shell $-1 $-1 $-1 $32 $-1 $15 #
shell $-1 $-1 $-1 $33 $-1 $17 #
shell $-1 $-1 $-1 $34 $-1 $19 #
face $-1 $35 $36 $21 $-1 $37 forward single #
face $-1 $38 $39 $22 $-1 $40 reversed single #
face $-1 $41 $42 $23 $-1 $43 reversed single #
face $-1 $44 $45 $24 $-1 $46 forward single #
face $-1 $47 $48 $25 $-1 $49 forward single #
face $-1 $50 $51 $26 $-1 $52 reversed single #
face $-1 $53 $54 $27 $-1 $55 forward single #
face $-1 $56 $57 $21 $-1 $58 reversed single #
loop $-1 $-1 $59 $28 #
plane-surface $-1 0 0 9.582122008412318 0 0 1 1 0 0 forward_v I I I I #
face $-1 $60 $61 $22 $-1 $62 reversed single #
loop $-1 $-1 $63 $29 #
plane-surface $-1 -59.794808801538132 -34.519104513315533 0 1 0 0 0 0 -1 forward_v I I I I #
face $-1 $64 $65 $23 $-1 $66 reversed single #
loop $-1 $-1 $67 $30 #
plane-surface $-1 42.468581499658363 30.233986115646118 171.96594104915704 0 -1 0 -0.62932039886446345 0 -0.77714595512881146 forward_v I I I I #
face $-1 $68 $69 $24 $-1 $70 forward single #
loop $-1 $71 $72 $31 #
cone-surface $-1 55.307612442501039 17.223461135022575 5.3189654982185477 -0.62932039886446345 0 -0.77714595512881146 1.1657189326932171 0 -0.94398059829669512 1 I I 0 1 1.5 forward I I I I #
face $-1 $73 $74 $25 $-1 $75 forward single #
loop $-1 $76 $77 $32 #
cone-surface $-1 55.307612442501039 25.029776123396701 5.3189654982185477 -0.62932039886446345 0 -0.77714595512881146 1.1657189326932171 0 -0.94398059829669512 1 I I 0 1 1.5 forward I I I I #
face $-1 $78 $79 $26 $-1 $80 reversed single #
loop $-1 $-1 $81 $33 #
plane-surface $-1 -162.56060538168583 -2.6648016582542056 67.097701478712366 0 1 0 -0.84804810408105047 0 0.52991925155115449 forward_v I I I I #
face $-1 $82 $83 $27 $-1 $84 forward single #
loop $-1 $85 $86 $34 #
cone-surface $-1 -57.390246913589586 6.6022721255002637 5.8205347515295358 0.84804810408105047 0 -0.52991925155115449 0.52991925155115449 0 0.84804810408105047 1 I I 0 1 1 forward I I I I #
face $-1 $87 $88 $21 $-1 $89 reversed single #
loop $-1 $-1 $90 $35 #
plane-surface $-1 0 0 -9.582122008412318 0 0 1 1 0 0 forward_v I I I I #
coedge $-1 $91 $92 $93 $94 forward $36 $-1 #
face $-1 $95 $96 $22 $-1 $97 reversed single #
loop $-1 $-1 $98 $38 #
plane-surface $-1 -58.294808801538132 -28.773340493243907 0 0 -1 0 0 0 -1 forward_v I I I I #
coedge $-1 $99 $100 $101 $102 forward $39 $-1 #
face $-1 $103 $104 $23 $-1 $105 reversed single #
loop $-1 $-1 $106 $41 #
plane-surface $-1 -33.420924749222714 21.126618629209638 78.250207498396193 0.62932039886446345 0 0.77714595512881146 0.77714595512881146 0 -0.62932039886446345 forward_v I I I I #
coedge $-1 $107 $108 $109 $110 reversed $42 $-1 #
face $-1 $-1 $111 $24 $-1 $112 forward single #
loop $-1 $113 $114 $44 #
cone-surface $-1 54.307281673292501 17.223461135022575 4.0836599011267598 -0.62932039886446345 0 -0.77714595512881146 0.58285946634660857 0 -0.47199029914834756 1 I I -0.70710678118654757 0.70710678118654757 0.75 forward I I I I #
loop $-1 $-1 $115 $31 #
coedge $-1 $72 $72 $116 $117 reversed $45 $-1 #
face $-1 $-1 $118 $25 $-1 $119 forward single #
loop $-1 $120 $121 $47 #
cone-surface $-1 54.307281673292501 25.029776123396701 4.0836599011267598 -0.62932039886446345 0 -0.77714595512881146 0.58285946634660857 0 -0.47199029914834756 1 I I -0.70710678118654757 0.70710678118654757 0.75 forward I I I I #
loop $-1 $-1 $122 $32 #
coedge $-1 $77 $77 $123 $124 reversed $48 $-1 #
face $-1 $125 $126 $26 $-1 $127 reversed single #
loop $-1 $-1 $128 $50 #
plane-surface $-1 -60.294808801538139 6.6022721255002637 3.1949415736502687 -0.84804810408105047 0 0.52991925155115449 0.52991925155115449 0 0.84804810408105047 forward_v I I I I #
coedge $-1 $129 $130 $131 $132 reversed $51 $-1 #
face $-1 $-1 $133 $27 $-1 $134 forward single #
loop $-1 $135 $136 $53 #
cone-surface $-1 -56.057237556593385 6.6022721255002637 4.9875780862522081 0.84804810408105047 0 -0.52991925155115449 0.26495962577557725 0 0.42402405204052523 1 I I -0.70710678118654746 0.70710678118654746 0.5 forward I I I I #
loop $-1 $-1 $137 $34 #
coedge $-1 $86 $86 $138 $139 reversed $54 $-1 #
face $-1 $140 $141 $21 $-1 $142 reversed single #
loop $-1 $-1 $143 $56 #
plane-surface $-1 0 -40.264868533387158 0 0 1 0 0 0 1 forward_v I I I I #
coedge $-1 $144 $145 $146 $147 forward $57 $-1 #
coedge $-1 $148 $59 $149 $150 forward $36 $-1 #
coedge $-1 $59 $148 $151 $152 forward $36 $-1 #
coedge $-1 $153 $154 $59 $94 reversed $155 $-1 #
edge $-1 $156 -40.264868533387158 $157 40.264868533387158 $93 $158 forward 7 unknown #
face $-1 $159 $160 $22 $-1 $161 forward single #
loop $-1 $-1 $162 $60 #
plane-surface $-1 -56.794808801538132 -34.519104513315533 0 -1 0 0 0 0 1 forward_v I I I I #
coedge $-1 $163 $164 $165 $166 forward $61 $-1 #
coedge $-1 $167 $63 $168 $169 reversed $39 $-1 #
coedge $-1 $63 $167 $170 $171 reversed $39 $-1 #
coedge $-1 $164 $163 $63 $102 reversed $61 $-1 #
edge $-1 $172 -9.582122008412318 $173 9.582122008412318 $101 $174 forward 7 unknown #
face $-1 $175 $176 $23 $-1 $177 reversed single #
loop $-1 $-1 $178 $64 #
plane-surface $-1 42.468581499658363 12.019251142773157 171.96594104915704 0 1 0 0.62932039886446345 0 0.77714595512881146 forward_v I I I I #
coedge $-1 $179 $180 $181 $182 reversed $65 $-1 #
coedge $-1 $108 $67 $183 $184 reversed $42 $-1 #
coedge $-1 $67 $107 $179 $185 reversed $42 $-1 #
coedge $-1 $181 $186 $67 $110 forward $187 $-1 #
edge $-1 $188 -39.060518051708954 $189 -30.142806273755181 $109 $190 forward 7 unknown #
loop $-1 $-1 $116 $68 #
plane-surface $-1 -33.420924749222714 21.126618629209638 78.250207498396193 0.62932039886446345 0 0.77714595512881146 0.77714595512881146 0 -0.62932039886446345 forward_v I I I I #
loop $-1 $-1 $191 $44 #
coedge $-1 $114 $114 $115 $192 reversed $69 $-1 #
coedge $-1 $115 $115 $114 $192 forward $71 $-1 #
coedge $-1 $116 $116 $72 $117 forward $111 $-1 #
edge $-1 $193 0 $193 6.2831853071796004 $116 $194 forward 7 unknown #
loop $-1 $-1 $123 $73 #
plane-surface $-1 -33.420924749222714 21.126618629209638 78.250207498396193 0.62932039886446345 0 0.77714595512881146 0.77714595512881146 0 -0.62932039886446345 forward_v I I I I #
loop $-1 $-1 $195 $47 #
coedge $-1 $121 $121 $122 $196 reversed $74 $-1 #
coedge $-1 $122 $122 $121 $196 forward $76 $-1 #
coedge $-1 $123 $123 $77 $124 forward $118 $-1 #
edge $-1 $197 0 $197 6.2831853071796004 $123 $198 forward 7 unknown #
face $-1 $199 $200 $26 $-1 $201 reversed single #
loop $-1 $-1 $202 $78 #
plane-surface $-1 -162.56060538168583 15.869345909254733 67.097701478712366 0 -1 0 0.84804810408105047 0 -0.52991925155115449 forward_v I I I I #
coedge $-1 $203 $204 $205 $206 reversed $79 $-1 #
coedge $-1 $130 $81 $207 $208 reversed $51 $-1 #
coedge $-1 $81 $129 $203 $209 reversed $51 $-1 #
coedge $-1 $205 $210 $81 $132 forward $211 $-1 #
edge $-1 $212 20.985493889304784 $213 24.976647055290513 $131 $214 forward 7 unknown #
loop $-1 $-1 $138 $82 #
plane-surface $-1 -60.294808801538139 6.6022721255002637 3.1949415736502687 -0.84804810408105047 0 0.52991925155115449 0.52991925155115449 0 0.84804810408105047 forward_v I I I I #
loop $-1 $-1 $215 $53 #
coedge $-1 $136 $136 $137 $216 reversed $83 $-1 #
coedge $-1 $137 $137 $136 $216 forward $85 $-1 #
coedge $-1 $138 $138 $86 $139 forward $133 $-1 #
edge $-1 $217 0 $217 6.2831853071796004 $138 $218 forward 7 unknown #
face $-1 $219 $220 $21 $-1 $221 reversed single #
loop $-1 $-1 $222 $87 #
plane-surface $-1 -60.294808801538132 0 0 1 0 0 0 0 -1 forward_v I I I I #
coedge $-1 $223 $151 $224 $225 forward $88 $-1 #
coedge $-1 $226 $90 $223 $227 forward $57 $-1 #
coedge $-1 $90 $226 $228 $229 forward $57 $-1 #
coedge $-1 $154 $153 $90 $147 reversed $155 $-1 #
edge $-1 $230 -40.264868533387158 $231 40.264868533387158 $146 $232 forward 7 unknown #
coedge $-1 $92 $91 $233 $234 forward $36 $-1 #
coedge $-1 $235 $236 $91 $150 reversed $220 $-1 #
edge $-1 $157 -60.294808801538132 $237 60.294808801538132 $149 $238 forward 7 unknown #
coedge $-1 $143 $239 $92 $152 reversed $88 $-1 #
edge $-1 $240 -60.294808801538132 $156 60.294808801538132 $151 $241 forward 7 unknown #
coedge $-1 $146 $93 $239 $242 forward $155 $-1 #
coedge $-1 $93 $146 $235 $243 reversed $155 $-1 #
loop $-1 $-1 $153 $219 #
vertex $-1 $94 $244 #
vertex $-1 $94 $245 #
straight-curve $-1 60.294808801538132 0 9.582122008412318 0 1 0 I I #
face $-1 $246 $247 $22 $-1 $248 reversed single #
loop $-1 $-1 $249 $95 #
plane-surface $-1 0 0 9.582122008412318 0 0 1 1 0 0 forward_v I I I I #
coedge $-1 $250 $251 $252 $253 reversed $96 $-1 #
coedge $-1 $101 $98 $254 $255 reversed $61 $-1 #
coedge $-1 $98 $101 $256 $257 reversed $61 $-1 #
coedge $-1 $251 $250 $98 $166 reversed $96 $-1 #
edge $-1 $258 -9.582122008412318 $259 9.582122008412318 $165 $260 forward 7 unknown #
coedge $-1 $100 $99 $261 $262 reversed $39 $-1 #
coedge $-1 $254 $263 $99 $169 forward $247 $-1 #
edge $-1 $264 -23.005316276729392 $173 -11.513788236586141 $168 $265 forward 7 unknown #
coedge $-1 $266 $256 $100 $171 forward $160 $-1 #
edge $-1 $172 11.513788236586141 $267 23.005316276729392 $170 $268 forward 7 unknown #
vertex $-1 $171 $269 #
vertex $-1 $169 $270 #
straight-curve $-1 -59.794808801538132 -28.773340493243907 0 0 0 -1 I I #
face $-1 $-1 $187 $23 $-1 $271 forward single #
loop $-1 $-1 $272 $103 #
plane-surface $-1 60.294808801538132 0 0 -1 0 0 0 0 1 forward_v I I I I #
coedge $-1 $273 $274 $275 $276 reversed $104 $-1 #
coedge $-1 $277 $106 $108 $185 forward $65 $-1 #
coedge $-1 $106 $277 $273 $278 forward $65 $-1 #
coedge $-1 $275 $109 $106 $182 forward $187 $-1 #
edge $-1 $189 -19.670676801041299 $279 -1.4559418281683385 $181 $280 forward 7 unknown #
coedge $-1 $281 $282 $107 $184 forward $176 $-1 #
edge $-1 $283 -83.622269275063417 $188 -76.400848516166207 $183 $284 forward 7 unknown #
edge $-1 $189 109.11466657347765 $283 120.58961760307628 $108 $285 forward 7 unknown #
coedge $-1 $109 $275 $281 $286 forward $187 $-1 #
loop $-1 $-1 $275 $175 #
vertex $-1 $184 $287 #
vertex $-1 $110 $288 #
straight-curve $-1 21.234290749829182 30.233986115646118 9.5821220084123127 -1 0 0 I I #
coedge $-1 $191 $191 $-1 $289 reversed $113 $-1 #
edge $-1 $290 0 $290 6.2831853071796004 $114 $291 forward 7 unknown #
vertex $-1 $117 $292 #
ellipse-curve $-1 55.835952912561233 17.223461135022575 5.9714116289637298 0.62932039886446345 0 0.77714595512881146 1.1657189326932171 0 -0.94398059829669512 1 I I #
coedge $-1 $195 $195 $-1 $293 reversed $120 $-1 #
edge $-1 $294 0 $294 6.2831853071796004 $121 $295 forward 7 unknown #
vertex $-1 $124 $296 #
ellipse-curve $-1 55.835952912561233 25.029776123396701 5.9714116289637298 0.62932039886446345 0 0.77714595512881146 1.1657189326932171 0 -0.94398059829669512 1 I I #
face $-1 $-1 $211 $26 $-1 $297 forward single #
loop $-1 $-1 $298 $125 #
plane-surface $-1 -60.294808801538132 0 0 1 0 0 0 0 -1 forward_v I I I I #
coedge $-1 $299 $300 $301 $302 reversed $126 $-1 #
coedge $-1 $303 $128 $130 $209 forward $79 $-1 #
coedge $-1 $128 $303 $299 $304 forward $79 $-1 #
coedge $-1 $301 $131 $128 $206 forward $211 $-1 #
edge $-1 $213 -5.9659377210043374 $305 12.568209846504601 $205 $306 forward 7 unknown #
coedge $-1 $307 $308 $129 $208 forward $200 $-1 #
edge $-1 $309 -30.353909165705904 $212 -23.966728730943863 $207 $310 forward 7 unknown #
edge $-1 $213 -7.5316251566687171 $309 -1.3557137071152151e-014 $130 $311 forward 7 unknown #
coedge $-1 $131 $301 $307 $312 forward $211 $-1 #
loop $-1 $-1 $301 $199 #
vertex $-1 $208 $313 #
vertex $-1 $132 $314 #
straight-curve $-1 -81.280302690842916 -2.6648016582542056 9.5821220084123198 1 0 0 I I #
coedge $-1 $215 $215 $-1 $315 reversed $135 $-1 #
edge $-1 $316 0 $316 6.2831853071796004 $136 $317 forward 7 unknown #
vertex $-1 $139 $318 #
ellipse-curve $-1 -58.299232218545271 6.6022721255002637 6.3885317910312933 -0.84804810408105047 0 0.52991925155115449 0.52991925155115449 0 0.84804810408105047 1 I I #
face $-1 $-1 $155 $21 $-1 $319 reversed single #
loop $-1 $-1 $235 $140 #
plane-surface $-1 0 40.264868533387158 0 0 -1 0 0 0 -1 forward_v I I I I #
coedge $-1 $320 $233 $236 $321 forward $141 $-1 #
coedge $-1 $239 $143 $144 $227 reversed $88 $-1 #
coedge $-1 $233 $320 $143 $225 reversed $141 $-1 #
edge $-1 $240 -9.582122008412318 $322 9.582122008412318 $224 $323 forward 7 unknown #
coedge $-1 $145 $144 $320 $324 forward $57 $-1 #
edge $-1 $231 -60.294808801538132 $322 60.294808801538132 $223 $325 forward 7 unknown #
coedge $-1 $236 $235 $145 $229 reversed $220 $-1 #
edge $-1 $326 -60.294808801538132 $230 60.294808801538132 $228 $327 forward 7 unknown #
vertex $-1 $147 $328 #
vertex $-1 $242 $329 #
straight-curve $-1 60.294808801538132 0 -9.582122008412318 0 -1 0 I I #
coedge $-1 $222 $224 $148 $234 reversed $141 $-1 #
edge $-1 $237 -40.264868533387158 $240 40.264868533387158 $233 $330 forward 7 unknown #
coedge $-1 $228 $149 $154 $243 forward $220 $-1 #
coedge $-1 $149 $228 $222 $321 reversed $220 $-1 #
vertex $-1 $150 $331 #
straight-curve $-1 0 40.264868533387158 9.582122008412318 -1 0 0 I I #
coedge $-1 $151 $223 $153 $242 reversed $88 $-1 #
vertex $-1 $234 $332 #
straight-curve $-1 0 -40.264868533387158 9.582122008412318 1 0 0 I I #
edge $-1 $156 -9.582122008412318 $231 9.582122008412318 $153 $333 forward 7 unknown #
edge $-1 $157 -9.582122008412318 $230 9.582122008412318 $154 $334 forward 7 unknown #
point $-1 60.294808801538132 -40.264868533387158 9.582122008412318 #
point $-1 60.294808801538132 40.264868533387158 9.582122008412318 #
face $-1 $-1 $335 $22 $-1 $336 reversed single #
loop $-1 $-1 $337 $159 #
plane-surface $-1 0 0 -9.582122008412318 0 0 1 1 0 0 forward_v I I I I #
coedge $-1 $256 $266 $251 $338 forward $160 $-1 #
coedge $-1 $165 $162 $337 $339 reversed $96 $-1 #
coedge $-1 $162 $165 $249 $338 reversed $96 $-1 #
coedge $-1 $340 $341 $162 $253 forward $335 $-1 #
edge $-1 $342 -9.582122008412318 $343 9.582122008412318 $252 $344 forward 7 unknown #
coedge $-1 $337 $168 $163 $255 forward $247 $-1 #
edge $-1 $173 -30.647404400769066 $259 -27.647404400769066 $254 $345 forward 7 unknown #
coedge $-1 $170 $249 $164 $257 forward $160 $-1 #
edge $-1 $258 27.647404400769066 $172 30.647404400769066 $256 $346 forward 7 unknown #
vertex $-1 $257 $347 #
vertex $-1 $255 $348 #
straight-curve $-1 -56.794808801538132 -28.773340493243907 0 0 0 -1 I I #
coedge $-1 $341 $340 $167 $262 forward $335 $-1 #
edge $-1 $267 -9.582122008412318 $264 9.582122008412318 $261 $349 forward 7 unknown #
coedge $-1 $168 $337 $341 $350 forward $247 $-1 #
vertex $-1 $169 $351 #
straight-curve $-1 -59.794808801538132 -17.259552256657766 -9.582122008412318 0 1 0 I I #
coedge $-1 $249 $170 $340 $352 forward $160 $-1 #
vertex $-1 $352 $353 #
straight-curve $-1 -59.794808801538132 -17.259552256657766 9.582122008412318 0 -1 0 I I #
point $-1 -59.794808801538132 -28.773340493243907 9.582122008412318 #
point $-1 -59.794808801538132 -28.773340493243907 -9.582122008412318 #
plane-surface $-1 0 0 9.582122008412318 0 0 1 1 0 0 forward_v I I I I #
coedge $-1 $282 $281 $274 $354 forward $176 $-1 #
coedge $-1 $274 $178 $180 $278 reversed $104 $-1 #
coedge $-1 $178 $273 $272 $354 reversed $104 $-1 #
coedge $-1 $186 $181 $178 $276 forward $187 $-1 #
edge $-1 $279 30.142806273755181 $355 39.060518051708954 $275 $356 forward 7 unknown #
coedge $-1 $180 $179 $282 $357 reversed $65 $-1 #
edge $-1 $358 -120.58961760307628 $279 -109.11466657347765 $273 $359 forward 7 unknown #
vertex $-1 $182 $360 #
straight-curve $-1 51.377097023584355 10.563309314604819 9.5821220084123127 0 -1 0 I I #
coedge $-1 $272 $183 $186 $286 reversed $176 $-1 #
coedge $-1 $183 $272 $277 $357 forward $176 $-1 #
vertex $-1 $184 $361 #
straight-curve $-1 60.294808801538132 30.233986115646118 85.982970524578519 0 0 1 I I #
straight-curve $-1 -33.420924749222714 30.233986115646118 78.250207498396193 0.77714595512881146 0 -0.62932039886446345 I I #
edge $-1 $355 12.019251142773157 $188 30.233986115646118 $281 $362 forward 7 unknown #
point $-1 60.294808801538132 30.233986115646118 9.582122008412318 #
point $-1 51.377097023584362 30.233986115646118 9.5821220084123127 #
edge $-1 $363 1 $363 0 $191 $-1 forward 7 unknown #
vertex $-1 $192 $364 #
ellipse-curve $-1 54.779271972440846 17.223461135022575 4.6665193674733683 0.62932039886446345 0 0.77714595512881146 1.1657189326932171 0 -0.94398059829669512 1 I I #
point $-1 57.00167184525445 17.223461135022575 5.0274310306670307 #
edge $-1 $365 1 $365 0 $195 $-1 forward 7 unknown #
vertex $-1 $196 $366 #
ellipse-curve $-1 54.779271972440846 25.029776123396701 4.6665193674733683 0.62932039886446345 0 0.77714595512881146 1.1657189326932171 0 -0.94398059829669512 1 I I #
point $-1 57.00167184525445 25.029776123396701 5.0274310306670307 #
plane-surface $-1 0 0 9.582122008412318 0 0 1 1 0 0 forward_v I I I I #
coedge $-1 $308 $307 $300 $367 forward $200 $-1 #
coedge $-1 $300 $202 $204 $304 reversed $126 $-1 #
coedge $-1 $202 $299 $298 $367 reversed $126 $-1 #
coedge $-1 $210 $205 $202 $302 forward $211 $-1 #
edge $-1 $305 -24.976647055290513 $368 -20.985493889304784 $301 $369 forward 7 unknown #
coedge $-1 $204 $203 $308 $370 reversed $79 $-1 #
edge $-1 $371 1.3557137071152151e-014 $305 7.5316251566687171 $299 $372 forward 7 unknown #
vertex $-1 $206 $373 #
straight-curve $-1 -56.303655635552403 3.3011360627501318 9.582122008412318 0 1 0 I I #
coedge $-1 $298 $207 $210 $312 reversed $200 $-1 #
coedge $-1 $207 $298 $303 $370 forward $200 $-1 #
vertex $-1 $208 $374 #
straight-curve $-1 -60.294808801538132 -2.6648016582542056 33.548850739356183 0 0 1 I I #
straight-curve $-1 -60.294808801538139 -2.6648016582542056 3.1949415736502687 -0.52991925155115449 0 -0.84804810408105047 I I #
edge $-1 $368 -15.869345909254733 $212 2.6648016582542056 $307 $375 forward 7 unknown #
point $-1 -60.294808801538132 -2.6648016582542056 9.582122008412318 #
point $-1 -56.303655635552403 -2.6648016582542056 9.582122008412318 #
edge $-1 $376 1 $376 0 $215 $-1 forward 7 unknown #
vertex $-1 $216 $377 #
ellipse-curve $-1 -56.481261608633908 6.6022721255002637 5.2525377120277854 -0.84804810408105047 0 0.52991925155115449 0.52991925155115449 0 0.84804810408105047 1 I I #
point $-1 -57.769312966994107 6.6022721255002637 7.236579895112337 #
plane-surface $-1 60.294808801538132 0 0 -1 0 0 0 0 1 forward_v I I I I #
coedge $-1 $224 $222 $226 $324 reversed $141 $-1 #
edge $-1 $237 -9.582122008412318 $326 9.582122008412318 $236 $378 forward 7 unknown #
vertex $-1 $324 $379 #
straight-curve $-1 -60.294808801538132 -40.264868533387158 0 0 0 -1 I I #
edge $-1 $322 -40.264868533387158 $326 40.264868533387158 $320 $380 forward 7 unknown #
straight-curve $-1 0 -40.264868533387158 -9.582122008412318 -1 0 0 I I #
vertex $-1 $229 $381 #
straight-curve $-1 0 40.264868533387158 -9.582122008412318 1 0 0 I I #
point $-1 60.294808801538132 40.264868533387158 -9.582122008412318 #
point $-1 60.294808801538132 -40.264868533387158 -9.582122008412318 #
straight-curve $-1 -60.294808801538132 0 9.582122008412318 0 -1 0 I I #
point $-1 -60.294808801538132 40.264868533387158 9.582122008412318 #
point $-1 -60.294808801538132 -40.264868533387158 9.582122008412318 #
straight-curve $-1 60.294808801538132 -40.264868533387158 0 0 0 -1 I I #
straight-curve $-1 60.294808801538132 40.264868533387158 0 0 0 -1 I I #
loop $-1 $-1 $252 $246 #
plane-surface $-1 0 -40.264868533387158 0 0 1 0 0 0 1 forward_v I I I I #
coedge $-1 $263 $254 $250 $339 forward $247 $-1 #
edge $-1 $343 -23.005316276729392 $258 -11.513788236586141 $249 $382 forward 7 unknown #
edge $-1 $259 11.513788236586141 $342 23.005316276729392 $337 $383 forward 7 unknown #
coedge $-1 $261 $252 $266 $352 reversed $335 $-1 #
coedge $-1 $252 $261 $263 $350 reversed $335 $-1 #
vertex $-1 $350 $384 #
vertex $-1 $253 $385 #
straight-curve $-1 -56.794808801538132 -40.264868533387158 0 0 0 1 I I #
straight-curve $-1 -29.147404400769066 -28.773340493243907 -9.582122008412318 1 0 0 I I #
straight-curve $-1 -29.147404400769066 -28.773340493243907 9.582122008412318 -1 0 0 I I #
point $-1 -56.794808801538132 -28.773340493243907 9.582122008412318 #
point $-1 -56.794808801538132 -28.773340493243907 -9.582122008412318 #
straight-curve $-1 -59.794808801538132 -40.264868533387158 0 0 0 -1 I I #
edge $-1 $342 56.794808801538132 $264 59.794808801538132 $341 $386 forward 7 unknown #
point $-1 -59.794808801538132 -40.264868533387158 -9.582122008412318 #
edge $-1 $267 -59.794808801538132 $343 -56.794808801538132 $340 $387 forward 7 unknown #
point $-1 -59.794808801538132 -40.264868533387158 9.582122008412318 #
edge $-1 $355 76.400848516166207 $358 83.622269275063417 $272 $388 forward 7 unknown #
vertex $-1 $286 $389 #
straight-curve $-1 21.234290749829182 12.019251142773157 9.5821220084123127 1 0 0 I I #
edge $-1 $358 1.4559418281683385 $283 19.670676801041299 $282 $390 forward 7 unknown #
vertex $-1 $357 $391 #
straight-curve $-1 -33.420924749222714 12.019251142773157 78.250207498396193 -0.77714595512881146 0 0.62932039886446345 I I #
point $-1 51.377097023584362 12.019251142773157 9.5821220084123127 #
point $-1 60.294808801538132 30.233986115646118 2.3607012495151025 #
straight-curve $-1 60.294808801538132 0 9.582122008412318 0 1 0 I I #
vertex $-1 $289 $392 #
point $-1 55.944990905134063 17.223461135022575 3.7225387691766731 #
vertex $-1 $293 $393 #
point $-1 55.944990905134063 25.029776123396701 3.7225387691766731 #
edge $-1 $368 23.966728730943863 $371 30.353909165705904 $298 $394 forward 7 unknown #
vertex $-1 $312 $395 #
straight-curve $-1 -81.280302690842916 15.869345909254733 9.5821220084123198 -1 0 0 I I #
edge $-1 $371 -12.568209846504601 $309 5.9659377210043374 $308 $396 forward 7 unknown #
vertex $-1 $370 $397 #
straight-curve $-1 -60.294808801538139 15.869345909254733 3.1949415736502687 0.52991925155115449 0 0.84804810408105047 I I #
point $-1 -56.303655635552403 15.869345909254733 9.582122008412318 #
point $-1 -60.294808801538132 -2.6648016582542056 3.1949415736502802 #
straight-curve $-1 -60.294808801538132 0 9.582122008412318 0 -1 0 I I #
vertex $-1 $315 $398 #
point $-1 -55.951342357082758 6.6022721255002637 6.1005858161088362 #
straight-curve $-1 -60.294808801538132 40.264868533387158 0 0 0 -1 I I #
point $-1 -60.294808801538132 -40.264868533387158 -9.582122008412318 #
straight-curve $-1 -60.294808801538132 0 -9.582122008412318 0 1 0 I I #
point $-1 -60.294808801538132 40.264868533387158 -9.582122008412318 #
straight-curve $-1 -56.794808801538132 -17.259552256657766 9.582122008412318 0 1 0 I I #
straight-curve $-1 -56.794808801538132 -17.259552256657766 -9.582122008412318 0 -1 0 I I #
point $-1 -56.794808801538132 -40.264868533387158 -9.582122008412318 #
point $-1 -56.794808801538132 -40.264868533387158 9.582122008412318 #
straight-curve $-1 0 -40.264868533387158 -9.582122008412318 -1 0 0 I I #
straight-curve $-1 0 -40.264868533387158 9.582122008412318 1 0 0 I I #
straight-curve $-1 60.294808801538132 12.019251142773157 85.982970524578519 0 0 -1 I I #
point $-1 60.294808801538132 12.019251142773157 9.582122008412318 #
straight-curve $-1 60.294808801538132 10.563309314604819 2.3607012495151025 0 1 0 I I #
point $-1 60.294808801538132 12.019251142773157 2.3607012495151025 #
point $-1 53.835291374144155 17.223461135022575 3.5008004347801513 #
point $-1 53.835291374144155 25.029776123396701 3.5008004347801513 #
straight-curve $-1 -60.294808801538132 15.869345909254733 33.548850739356183 0 0 -1 I I #
point $-1 -60.294808801538132 15.869345909254733 9.582122008412318 #
straight-curve $-1 -60.294808801538132 3.3011360627501318 3.1949415736502846 0 -1 0 I I #
point $-1 -60.294808801538132 15.869345909254733 3.1949415736502802 #
point $-1 -55.633213504552863 6.6022721255002637 4.7226184604766308 #
End-of-ACIS-data 