500 0 8 0           
7 Unknown 11 ACIS 5.0 NT 24 Thu Mar 25 17:30:26 1999 
-1 9.9999999999999995e-007 1e-010 
body $-1 $8 $-1 $9 #
body $-1 $10 $-1 $11 #
body $-1 $12 $-1 $13 #
body $-1 $14 $-1 $15 #
body $-1 $16 $-1 $17 #
body $-1 $18 $-1 $19 #
body $-1 $20 $-1 $21 #
body $-1 $22 $-1 $23 #
lump $-1 $-1 $24 $0 #
transform $-1 1 0 0 0 1 0 0 0 1 44.746238593707083 24.99286428779466 5.717765085622581 1 rotate no_reflect no_shear #
lump $-1 $-1 $25 $1 #
transform $-1 1 0 0 0 1 0 0 0 1 44.746238593707083 24.99286428779466 5.717765085622581 1 rotate no_reflect no_shear #
lump $-1 $-1 $26 $2 #
transform $-1 1 0 0 0 1 0 0 0 1 44.746238593707083 24.99286428779466 5.717765085622581 1 rotate no_reflect no_shear #
lump $-1 $-1 $27 $3 #
transform $-1 1 0 0 0 1 0 0 0 1 44.746238593707083 24.99286428779466 5.717765085622581 1 rotate no_reflect no_shear #
lump $-1 $-1 $28 $4 #
transform $-1 1 0 0 0 1 0 0 0 1 44.746238593707083 24.99286428779466 5.717765085622581 1 rotate no_reflect no_shear #
lump $-1 $-1 $29 $5 #
transform $-1 1 0 0 0 1 0 0 0 1 44.746238593707083 24.99286428779466 5.717765085622581 1 rotate no_reflect no_shear #
lump $-1 $-1 $30 $6 #
transform $-1 1 0 0 0 1 0 0 0 1 44.746238593707083 24.99286428779466 5.717765085622581 1 rotate no_reflect no_shear #
lump $-1 $-1 $31 $7 #
transform $-1 1 0 0 0 1 0 0 0 1 44.746238593707083 24.99286428779466 5.717765085622581 1 rotate no_reflect no_shear #
shell $-1 $-1 $-1 $32 $-1 $8 #
shell $-1 $-1 $-1 $33 $-1 $10 #
shell $-1 $-1 $-1 $34 $-1 $12 #
shell $-1 $-1 $-1 $35 $-1 $14 #
shell $-1 $-1 $-1 $36 $-1 $16 #
shell $-1 $-1 $-1 $37 $-1 $18 #
shell $-1 $-1 $-1 $38 $-1 $20 #
shell $-1 $-1 $-1 $39 $-1 $22 #
face $-1 $40 $41 $24 $-1 $42 forward single #
face $-1 $43 $44 $25 $-1 $45 reversed single #
face $-1 $46 $47 $26 $-1 $48 forward single #
face $-1 $49 $50 $27 $-1 $51 forward single #
face $-1 $52 $53 $28 $-1 $54 reversed single #
face $-1 $55 $56 $29 $-1 $57 forward single #
face $-1 $58 $59 $30 $-1 $60 forward single #
face $-1 $61 $62 $31 $-1 $63 forward single #
face $-1 $64 $65 $24 $-1 $66 reversed single #
loop $-1 $-1 $67 $32 #
plane-surface $-1 0 0 5.717765085622581 0 0 1 1 0 0 forward_v I I I I #
face $-1 $68 $69 $25 $-1 $70 reversed single #
loop $-1 $-1 $71 $33 #
plane-surface $-1 35.039498930389435 -24.99286428779466 0.85405521062823908 0 -0.84804810408105047 0.52991925155115449 1 0 0 forward_v I I I I #
face $-1 $72 $73 $26 $-1 $74 forward single #
loop $-1 $75 $76 $34 #
cone-surface $-1 30.879467646110449 -22.842057008383062 2.8914828088486684 0 0.84804810408105047 -0.52991925155115449 1 0 0 1 I I 0 1 1 forward I I I I #
face $-1 $77 $78 $27 $-1 $79 forward single #
loop $-1 $80 $81 $35 #
cone-surface $-1 39.199530214668435 -22.842057008383062 2.8914828088486684 0 0.84804810408105047 -0.52991925155115449 1 0 0 1 I I 0 1 1 forward I I I I #
face $-1 $82 $83 $28 $-1 $84 reversed single #
loop $-1 $-1 $85 $36 #
plane-surface $-1 -34.264254335228223 33.596376259747494 104.36647647025009 -1 0 0 0 0.55919291073839883 0.82903756765294845 forward_v I I I I #
face $-1 $86 $87 $29 $-1 $88 forward single #
loop $-1 $89 $90 $37 #
cone-surface $-1 -42.649841742011311 21.88461481883709 3.2034249983435883 0 -0.55919291073839883 -0.82903756765294845 0.5 0 0 1 I I 0 1 0.5 forward I I I I #
face $-1 $91 $92 $30 $-1 $93 forward single #
loop $-1 $94 $95 $38 #
cone-surface $-1 -39.505246464467653 21.88461481883709 3.2034249983435883 0 -0.55919291073839883 -0.82903756765294845 0.5 0 0 1 I I 0 1 0.5 forward I I I I #
face $-1 $96 $97 $31 $-1 $98 forward single #
loop $-1 $99 $100 $39 #
cone-surface $-1 -36.360651186923988 21.88461481883709 3.2034249983435883 0 -0.55919291073839883 -0.82903756765294845 0.5 0 0 1 I I 0 1 0.5 forward I I I I #
face $-1 $101 $102 $24 $-1 $103 reversed single #
loop $-1 $-1 $104 $40 #
plane-surface $-1 0 0 -5.717765085622581 0 0 1 1 0 0 forward_v I I I I #
coedge $-1 $105 $106 $107 $108 forward $41 $-1 #
face $-1 $109 $110 $25 $-1 $111 reversed single #
loop $-1 $-1 $112 $43 #
plane-surface $-1 25.332759267071786 -100.88678989609791 48.277841741241524 1 0 0 0 0.84804810408105047 -0.52991925155115449 forward_v I I I I #
coedge $-1 $113 $114 $115 $116 reversed $44 $-1 #
face $-1 $-1 $117 $26 $-1 $118 forward single #
loop $-1 $119 $120 $46 #
cone-surface $-1 30.879467646110449 -21.786817245095467 2.2320958437963458 0 0.84804810408105047 -0.52991925155115449 0.5 0 0 1 I I -0.70710678118654746 0.70710678118654746 0.5 forward I I I I #
loop $-1 $-1 $121 $34 #
coedge $-1 $76 $76 $122 $123 reversed $47 $-1 #
face $-1 $-1 $124 $27 $-1 $125 forward single #
loop $-1 $126 $127 $49 #
cone-surface $-1 39.199530214668435 -21.786817245095467 2.2320958437963458 0 0.84804810408105047 -0.52991925155115449 0.5 0 0 1 I I -0.70710678118654746 0.70710678118654746 0.5 forward I I I I #
loop $-1 $-1 $128 $35 #
coedge $-1 $81 $81 $129 $130 reversed $50 $-1 #
face $-1 $131 $132 $28 $-1 $133 reversed single #
loop $-1 $-1 $134 $52 #
plane-surface $-1 -39.505246464467653 -16.447182547872387 30.17385085955928 0 0.55919291073839883 0.82903756765294845 1 0 0 forward_v I I I I #
coedge $-1 $135 $136 $137 $138 reversed $53 $-1 #
face $-1 $-1 $139 $29 $-1 $140 forward single #
loop $-1 $141 $142 $55 #
cone-surface $-1 -42.649841742011311 21.227771777319397 2.2296151609646913 0 -0.55919291073839883 -0.82903756765294845 0.25 0 0 1 I I -0.70710678118654746 0.70710678118654746 0.25 forward I I I I #
loop $-1 $-1 $143 $37 #
coedge $-1 $90 $90 $144 $145 reversed $56 $-1 #
face $-1 $-1 $146 $30 $-1 $147 forward single #
loop $-1 $148 $149 $58 #
cone-surface $-1 -39.505246464467653 21.227771777319397 2.2296151609646913 0 -0.55919291073839883 -0.82903756765294845 0.25 0 0 1 I I -0.70710678118654746 0.70710678118654746 0.25 forward I I I I #
loop $-1 $-1 $150 $38 #
coedge $-1 $95 $95 $151 $152 reversed $59 $-1 #
face $-1 $-1 $153 $31 $-1 $154 forward single #
loop $-1 $155 $156 $61 #
cone-surface $-1 -36.360651186923988 21.227771777319397 2.2296151609646913 0 -0.55919291073839883 -0.82903756765294845 0.25 0 0 1 I I -0.70710678118654746 0.70710678118654746 0.25 forward I I I I #
loop $-1 $-1 $157 $39 #
coedge $-1 $100 $100 $158 $159 reversed $62 $-1 #
face $-1 $160 $161 $24 $-1 $162 reversed single #
loop $-1 $-1 $163 $64 #
plane-surface $-1 0 -24.99286428779466 0 0 1 0 0 0 1 forward_v I I I I #
coedge $-1 $164 $165 $166 $167 forward $65 $-1 #
coedge $-1 $168 $67 $169 $170 forward $41 $-1 #
coedge $-1 $67 $168 $171 $172 forward $41 $-1 #
coedge $-1 $173 $174 $67 $108 reversed $175 $-1 #
edge $-1 $176 -24.99286428779466 $177 24.99286428779466 $107 $178 forward 7 unknown #
face $-1 $179 $180 $25 $-1 $181 forward single #
loop $-1 $-1 $182 $68 #
plane-surface $-1 0 -24.99286428779466 0 0 1 0 0 0 1 forward_v I I I I #
coedge $-1 $183 $184 $185 $186 reversed $69 $-1 #
coedge $-1 $187 $71 $188 $189 reversed $44 $-1 #
coedge $-1 $71 $187 $183 $190 forward $44 $-1 #
coedge $-1 $185 $191 $71 $116 forward $180 $-1 #
edge $-1 $192 -27.226489128512366 $193 -7.8130098018770688 $115 $194 forward 7 unknown #
loop $-1 $-1 $122 $72 #
plane-surface $-1 35.039498930389435 -24.99286428779466 0.85405521062823908 0 -0.84804810408105047 0.52991925155115449 1 0 0 forward_v I I I I #
loop $-1 $-1 $195 $46 #
coedge $-1 $120 $120 $121 $196 reversed $73 $-1 #
coedge $-1 $121 $121 $120 $196 forward $75 $-1 #
coedge $-1 $122 $122 $76 $123 forward $117 $-1 #
edge $-1 $197 -3.7621532382072072e-016 $197 6.2831853071796004 $122 $198 forward 7 unknown #
loop $-1 $-1 $129 $77 #
plane-surface $-1 35.039498930389435 -24.99286428779466 0.85405521062823908 0 -0.84804810408105047 0.52991925155115449 1 0 0 forward_v I I I I #
loop $-1 $-1 $199 $49 #
coedge $-1 $127 $127 $128 $200 reversed $78 $-1 #
coedge $-1 $128 $128 $127 $200 forward $80 $-1 #
coedge $-1 $129 $129 $81 $130 forward $124 $-1 #
edge $-1 $201 -3.7621532382072072e-016 $201 6.2831853071796004 $129 $202 forward 7 unknown #
face $-1 $203 $204 $28 $-1 $205 forward single #
loop $-1 $-1 $206 $82 #
plane-surface $-1 -44.746238593707083 0 0 1 0 0 0 0 -1 forward_v I I I I #
coedge $-1 $207 $208 $209 $210 reversed $83 $-1 #
coedge $-1 $136 $85 $211 $212 reversed $53 $-1 #
coedge $-1 $85 $135 $207 $213 reversed $53 $-1 #
coedge $-1 $209 $214 $85 $138 forward $215 $-1 #
edge $-1 $216 46.465473149502465 $217 49.961052433129112 $137 $218 forward 7 unknown #
loop $-1 $-1 $144 $86 #
plane-surface $-1 -39.505246464467653 -16.447182547872387 30.17385085955928 0 0.55919291073839883 0.82903756765294845 1 0 0 forward_v I I I I #
loop $-1 $-1 $219 $55 #
coedge $-1 $142 $142 $143 $220 reversed $87 $-1 #
coedge $-1 $143 $143 $142 $220 forward $89 $-1 #
coedge $-1 $144 $144 $90 $145 forward $139 $-1 #
edge $-1 $221 1.385813910509611e-016 $221 6.2831853071796004 $144 $222 forward 7 unknown #
loop $-1 $-1 $151 $91 #
plane-surface $-1 -39.505246464467653 -16.447182547872387 30.17385085955928 0 0.55919291073839883 0.82903756765294845 1 0 0 forward_v I I I I #
loop $-1 $-1 $223 $58 #
coedge $-1 $149 $149 $150 $224 reversed $92 $-1 #
coedge $-1 $150 $150 $149 $224 forward $94 $-1 #
coedge $-1 $151 $151 $95 $152 forward $146 $-1 #
edge $-1 $225 1.385813910509611e-016 $225 6.2831853071796004 $151 $226 forward 7 unknown #
loop $-1 $-1 $158 $96 #
plane-surface $-1 -39.505246464467653 -16.447182547872387 30.17385085955928 0 0.55919291073839883 0.82903756765294845 1 0 0 forward_v I I I I #
loop $-1 $-1 $227 $61 #
coedge $-1 $156 $156 $157 $228 reversed $97 $-1 #
coedge $-1 $157 $157 $156 $228 forward $99 $-1 #
coedge $-1 $158 $158 $100 $159 forward $153 $-1 #
edge $-1 $229 1.385813910509611e-016 $229 6.2831853071796004 $158 $230 forward 7 unknown #
face $-1 $231 $232 $24 $-1 $233 reversed single #
loop $-1 $-1 $234 $101 #
plane-surface $-1 -44.746238593707083 0 0 1 0 0 0 0 -1 forward_v I I I I #
coedge $-1 $235 $171 $236 $237 forward $102 $-1 #
coedge $-1 $238 $104 $235 $239 forward $65 $-1 #
coedge $-1 $104 $238 $240 $241 forward $65 $-1 #
coedge $-1 $174 $173 $104 $167 reversed $175 $-1 #
edge $-1 $242 -24.99286428779466 $243 24.99286428779466 $166 $244 forward 7 unknown #
coedge $-1 $106 $105 $245 $246 forward $41 $-1 #
coedge $-1 $247 $248 $105 $170 reversed $232 $-1 #
edge $-1 $177 -44.746238593707083 $249 44.746238593707083 $169 $250 forward 7 unknown #
coedge $-1 $163 $251 $106 $172 reversed $102 $-1 #
edge $-1 $252 -44.746238593707083 $176 44.746238593707083 $171 $253 forward 7 unknown #
coedge $-1 $166 $107 $251 $254 forward $175 $-1 #
coedge $-1 $107 $166 $247 $255 reversed $175 $-1 #
loop $-1 $-1 $173 $231 #
vertex $-1 $108 $256 #
vertex $-1 $108 $257 #
straight-curve $-1 44.746238593707083 0 5.717765085622581 0 1 0 I I #
face $-1 $-1 $258 $25 $-1 $259 reversed single #
loop $-1 $-1 $185 $109 #
plane-surface $-1 0 0 5.717765085622581 0 0 1 1 0 0 forward_v I I I I #
coedge $-1 $260 $261 $184 $262 forward $110 $-1 #
coedge $-1 $184 $112 $114 $190 reversed $69 $-1 #
coedge $-1 $112 $183 $182 $262 reversed $69 $-1 #
coedge $-1 $263 $115 $112 $186 forward $180 $-1 #
edge $-1 $193 -28.489713796583356 $264 -25.450530660254294 $185 $265 forward 7 unknown #
coedge $-1 $114 $113 $260 $266 reversed $44 $-1 #
coedge $-1 $267 $268 $113 $189 forward $258 $-1 #
edge $-1 $269 -6.2599600176769528 $192 -0.52477842645733175 $188 $270 forward 7 unknown #
edge $-1 $271 0 $193 5.7351815912196216 $183 $272 forward 7 unknown #
coedge $-1 $115 $263 $267 $273 forward $180 $-1 #
vertex $-1 $189 $274 #
vertex $-1 $116 $275 #
straight-curve $-1 17.519749465194717 -21.953681151465599 5.717765085622581 -1 0 0 I I #
coedge $-1 $195 $195 $-1 $276 reversed $119 $-1 #
edge $-1 $277 0 $277 6.2831853071796004 $120 $278 forward 7 unknown #
vertex $-1 $123 $279 #
ellipse-curve $-1 30.879467646110449 -23.473272719630128 3.2859101481254114 0 -0.84804810408105047 0.52991925155115449 1 0 0 1 I I #
coedge $-1 $199 $199 $-1 $280 reversed $126 $-1 #
edge $-1 $281 0 $281 6.2831853071796004 $127 $282 forward 7 unknown #
vertex $-1 $130 $283 #
ellipse-curve $-1 39.199530214668435 -23.473272719630128 3.2859101481254114 0 -0.84804810408105047 0.52991925155115449 1 0 0 1 I I #
face $-1 $-1 $215 $28 $-1 $284 reversed single #
loop $-1 $-1 $285 $131 #
plane-surface $-1 0 0 5.717765085622581 0 0 1 1 0 0 forward_v I I I I #
coedge $-1 $286 $287 $208 $288 forward $132 $-1 #
coedge $-1 $289 $134 $136 $213 forward $83 $-1 #
coedge $-1 $134 $289 $206 $288 reversed $83 $-1 #
coedge $-1 $290 $137 $134 $210 forward $215 $-1 #
edge $-1 $217 14.511631102994397 $291 24.993615361473257 $209 $292 forward 7 unknown #
coedge $-1 $293 $285 $135 $212 forward $204 $-1 #
edge $-1 $294 3.0122668476719845 $216 8.1946761579209131 $211 $295 forward 7 unknown #
edge $-1 $217 -49.98572857558932 $294 -43.734613412110519 $136 $296 forward 7 unknown #
coedge $-1 $137 $290 $293 $297 reversed $215 $-1 #
loop $-1 $-1 $209 $203 #
vertex $-1 $297 $298 #
vertex $-1 $138 $299 #
straight-curve $-1 -34.264254335228223 24.99286428779466 52.183238235125046 0 0 -1 I I #
coedge $-1 $219 $219 $-1 $300 reversed $141 $-1 #
edge $-1 $301 0 $301 6.2831853071796004 $142 $302 forward 7 unknown #
vertex $-1 $145 $303 #
ellipse-curve $-1 -42.649841742011311 22.401659632670189 3.9699754438092594 0 0.55919291073839883 0.82903756765294845 0.5 0 0 1 I I #
coedge $-1 $223 $223 $-1 $304 reversed $148 $-1 #
edge $-1 $305 0 $305 6.2831853071796004 $149 $306 forward 7 unknown #
vertex $-1 $152 $307 #
ellipse-curve $-1 -39.505246464467653 22.401659632670189 3.9699754438092594 0 0.55919291073839883 0.82903756765294845 0.5 0 0 1 I I #
coedge $-1 $227 $227 $-1 $308 reversed $155 $-1 #
edge $-1 $309 0 $309 6.2831853071796004 $156 $310 forward 7 unknown #
vertex $-1 $159 $311 #
ellipse-curve $-1 -36.360651186923988 22.401659632670189 3.9699754438092594 0 0.55919291073839883 0.82903756765294845 0.5 0 0 1 I I #
face $-1 $-1 $175 $24 $-1 $312 reversed single #
loop $-1 $-1 $247 $160 #
plane-surface $-1 0 24.99286428779466 0 0 -1 0 0 0 -1 forward_v I I I I #
coedge $-1 $313 $245 $248 $314 forward $161 $-1 #
coedge $-1 $251 $163 $164 $239 reversed $102 $-1 #
coedge $-1 $245 $313 $163 $237 reversed $161 $-1 #
edge $-1 $252 -5.717765085622581 $315 5.717765085622581 $236 $316 forward 7 unknown #
coedge $-1 $165 $164 $313 $317 forward $65 $-1 #
edge $-1 $243 -44.746238593707083 $315 44.746238593707083 $235 $318 forward 7 unknown #
coedge $-1 $248 $247 $165 $241 reversed $232 $-1 #
edge $-1 $319 -44.746238593707083 $242 44.746238593707083 $240 $320 forward 7 unknown #
vertex $-1 $167 $321 #
vertex $-1 $254 $322 #
straight-curve $-1 44.746238593707083 0 -5.717765085622581 0 -1 0 I I #
coedge $-1 $234 $236 $168 $246 reversed $161 $-1 #
edge $-1 $249 -24.99286428779466 $252 24.99286428779466 $245 $323 forward 7 unknown #
coedge $-1 $240 $169 $174 $255 forward $232 $-1 #
coedge $-1 $169 $240 $234 $314 reversed $232 $-1 #
vertex $-1 $170 $324 #
straight-curve $-1 0 24.99286428779466 5.717765085622581 -1 0 0 I I #
coedge $-1 $171 $235 $173 $254 reversed $102 $-1 #
vertex $-1 $246 $325 #
straight-curve $-1 0 -24.99286428779466 5.717765085622581 1 0 0 I I #
edge $-1 $176 -5.717765085622581 $243 5.717765085622581 $173 $326 forward 7 unknown #
edge $-1 $177 -5.717765085622581 $242 5.717765085622581 $174 $327 forward 7 unknown #
point $-1 44.746238593707083 -24.99286428779466 5.717765085622581 #
point $-1 44.746238593707083 24.99286428779466 5.717765085622581 #
loop $-1 $-1 $188 $179 #
plane-surface $-1 44.746238593707083 0 0 -1 0 0 0 0 1 forward_v I I I I #
coedge $-1 $328 $182 $187 $266 forward $110 $-1 #
coedge $-1 $182 $328 $263 $329 reversed $110 $-1 #
edge $-1 $264 18.421155784998181 $271 23.284865659992523 $182 $330 forward 7 unknown #
coedge $-1 $191 $185 $261 $329 forward $180 $-1 #
vertex $-1 $329 $331 #
straight-curve $-1 25.332759267071786 -50.443394948048955 5.717765085622581 0 -1 0 I I #
edge $-1 $271 7.8130098018770688 $269 27.226489128512366 $260 $332 forward 7 unknown #
coedge $-1 $268 $188 $191 $273 reversed $258 $-1 #
coedge $-1 $188 $267 $328 $333 forward $258 $-1 #
vertex $-1 $266 $334 #
straight-curve $-1 44.746238593707083 -21.675590960487135 6.1628024352423569 0 0.52991925155115449 0.84804810408105047 I I #
vertex $-1 $266 $335 #
straight-curve $-1 25.332759267071786 -24.99286428779466 0.85405521062823908 0 0.52991925155115449 0.84804810408105047 I I #
edge $-1 $336 -24.99286428779466 $192 -21.953681151465599 $267 $337 forward 7 unknown #
point $-1 44.746238593707083 -21.953681151465599 5.717765085622581 #
point $-1 25.332759267071786 -21.953681151465599 5.717765085622581 #
edge $-1 $338 1 $338 0 $195 $-1 forward 7 unknown #
vertex $-1 $196 $339 #
ellipse-curve $-1 30.879467646110449 -22.210841297135993 2.4970554695719231 0 -0.84804810408105047 0.52991925155115449 1 0 0 1 I I #
point $-1 31.879467646110449 -23.473272719630131 3.2859101481254132 #
edge $-1 $340 1 $340 0 $199 $-1 forward 7 unknown #
vertex $-1 $200 $341 #
ellipse-curve $-1 39.199530214668435 -22.210841297135993 2.4970554695719231 0 -0.84804810408105047 0.52991925155115449 1 0 0 1 I I #
point $-1 40.199530214668435 -23.473272719630131 3.2859101481254132 #
plane-surface $-1 0 24.99286428779466 0 0 -1 0 0 0 -1 forward_v I I I I #
coedge $-1 $211 $342 $289 $343 forward $204 $-1 #
coedge $-1 $287 $206 $342 $344 reversed $132 $-1 #
coedge $-1 $206 $286 $290 $345 forward $132 $-1 #
edge $-1 $291 -34.731560723301598 $346 -28.480445559822797 $206 $347 forward 7 unknown #
coedge $-1 $208 $207 $285 $343 reversed $83 $-1 #
coedge $-1 $214 $209 $287 $345 reversed $215 $-1 #
vertex $-1 $288 $348 #
straight-curve $-1 -19.752623232233827 24.99286428779466 2.2221858019959324 -1 0 0 I I #
coedge $-1 $342 $211 $214 $297 forward $204 $-1 #
vertex $-1 $212 $349 #
straight-curve $-1 -34.264254335228223 16.798188129873747 5.717765085622581 0 1 0 I I #
straight-curve $-1 -34.264254335228223 -16.447182547872387 30.17385085955928 0 -0.82903756765294845 0.55919291073839883 I I #
edge $-1 $216 34.264254335228223 $350 44.746238593707083 $214 $351 forward 7 unknown #
point $-1 -34.264254335228223 24.99286428779466 5.717765085622581 #
point $-1 -34.264254335228223 24.99286428779466 2.2221858019959306 #
edge $-1 $352 1 $352 0 $219 $-1 forward 7 unknown #
vertex $-1 $220 $353 #
ellipse-curve $-1 -42.649841742011311 21.367570005003998 2.4368745528779283 0 0.55919291073839883 0.82903756765294845 0.5 0 0 1 I I #
point $-1 -42.149841742011311 22.401659632670182 3.9699754438092487 #
edge $-1 $354 1 $354 0 $223 $-1 forward 7 unknown #
vertex $-1 $224 $355 #
ellipse-curve $-1 -39.505246464467653 21.367570005003998 2.4368745528779283 0 0.55919291073839883 0.82903756765294845 0.5 0 0 1 I I #
point $-1 -39.005246464467653 22.401659632670182 3.9699754438092487 #
edge $-1 $356 1 $356 0 $227 $-1 forward 7 unknown #
vertex $-1 $228 $357 #
ellipse-curve $-1 -36.360651186923988 21.367570005003998 2.4368745528779283 0 0.55919291073839883 0.82903756765294845 0.5 0 0 1 I I #
point $-1 -35.860651186923988 22.401659632670182 3.9699754438092487 #
plane-surface $-1 44.746238593707083 0 0 -1 0 0 0 0 1 forward_v I I I I #
coedge $-1 $236 $234 $238 $317 reversed $161 $-1 #
edge $-1 $249 -5.717765085622581 $319 5.717765085622581 $248 $358 forward 7 unknown #
vertex $-1 $317 $359 #
straight-curve $-1 -44.746238593707083 -24.99286428779466 0 0 0 -1 I I #
edge $-1 $315 -24.99286428779466 $319 24.99286428779466 $313 $360 forward 7 unknown #
straight-curve $-1 0 -24.99286428779466 -5.717765085622581 -1 0 0 I I #
vertex $-1 $241 $361 #
straight-curve $-1 0 24.99286428779466 -5.717765085622581 1 0 0 I I #
point $-1 44.746238593707083 24.99286428779466 -5.717765085622581 #
point $-1 44.746238593707083 -24.99286428779466 -5.717765085622581 #
straight-curve $-1 -44.746238593707083 0 5.717765085622581 0 -1 0 I I #
point $-1 -44.746238593707083 24.99286428779466 5.717765085622581 #
point $-1 -44.746238593707083 -24.99286428779466 5.717765085622581 #
straight-curve $-1 44.746238593707083 -24.99286428779466 0 0 0 -1 I I #
straight-curve $-1 44.746238593707083 24.99286428779466 0 0 0 -1 I I #
coedge $-1 $261 $260 $268 $333 reversed $110 $-1 #
edge $-1 $264 25.332759267071786 $336 44.746238593707083 $261 $362 forward 7 unknown #
straight-curve $-1 25.332759267071786 -24.99286428779466 24.138920870620762 0 0 -1 I I #
point $-1 25.332759267071786 -24.99286428779466 5.717765085622581 #
straight-curve $-1 17.519749465194717 -24.99286428779466 0.85405521062823997 1 0 0 I I #
edge $-1 $336 -5.717765085622581 $269 -0.85405521062823908 $268 $363 forward 7 unknown #
point $-1 44.746238593707083 -24.99286428779466 0.85405521062823908 #
point $-1 25.332759267071786 -24.99286428779466 0.85405521062823908 #
vertex $-1 $273 $364 #
straight-curve $-1 44.746238593707083 0 5.717765085622581 0 1 0 I I #
vertex $-1 $276 $365 #
point $-1 31.879467646110449 -22.210841297135993 2.4970554695719231 #
vertex $-1 $280 $366 #
point $-1 40.199530214668435 -22.210841297135993 2.4970554695719231 #
coedge $-1 $285 $293 $286 $344 forward $204 $-1 #
edge $-1 $346 -24.993615361473257 $294 -14.511631102994397 $285 $367 forward 7 unknown #
edge $-1 $350 -24.99286428779466 $346 -19.810454977545731 $286 $368 forward 7 unknown #
edge $-1 $350 -5.717765085622581 $291 -2.222185801995932 $290 $369 forward 7 unknown #
vertex $-1 $288 $370 #
straight-curve $-1 -44.746238593707083 -3.8009043350419756 21.643828337346399 0 -0.82903756765294845 0.55919291073839883 I I #
point $-1 -44.746238593707083 24.99286428779466 2.222185801995932 #
point $-1 -34.264254335228223 19.810454977545731 5.717765085622581 #
vertex $-1 $297 $371 #
straight-curve $-1 0 24.99286428779466 5.717765085622581 -1 0 0 I I #
vertex $-1 $300 $372 #
point $-1 -42.149841742011311 21.367570005003998 2.4368745528779283 #
vertex $-1 $304 $373 #
point $-1 -39.005246464467653 21.367570005003998 2.4368745528779283 #
vertex $-1 $308 $374 #
point $-1 -35.860651186923988 21.367570005003998 2.4368745528779283 #
straight-curve $-1 -44.746238593707083 24.99286428779466 0 0 0 -1 I I #
point $-1 -44.746238593707083 -24.99286428779466 -5.717765085622581 #
straight-curve $-1 -44.746238593707083 0 -5.717765085622581 0 1 0 I I #
point $-1 -44.746238593707083 24.99286428779466 -5.717765085622581 #
straight-curve $-1 0 -24.99286428779466 5.717765085622581 1 0 0 I I #
straight-curve $-1 44.746238593707083 -24.99286428779466 0 0 0 -1 I I #
point $-1 44.746238593707083 -24.99286428779466 5.717765085622581 #
point $-1 30.879467646110449 -21.362793193054941 1.9671362180207685 #
point $-1 39.199530214668435 -21.362793193054941 1.9671362180207685 #
straight-curve $-1 -19.752623232233827 19.810454977545739 5.717765085622581 1 0 0 I I #
straight-curve $-1 -44.746238593707083 0 5.717765085622581 0 -1 0 I I #
straight-curve $-1 -44.746238593707083 24.99286428779466 0 0 0 -1 I I #
point $-1 -44.746238593707083 19.810454977545731 5.717765085622581 #
point $-1 -44.746238593707083 24.99286428779466 5.717765085622581 #
point $-1 -42.649841742011311 21.087973549634796 2.0223557690514542 #
point $-1 -39.505246464467653 21.087973549634796 2.0223557690514542 #
point $-1 -36.360651186923988 21.087973549634796 2.0223557690514542 #
End-of-ACIS-data 