500 0 8 0           
7 Unknown 11 ACIS 5.0 NT 24 Fri Mar 26 02:28:24 1999 
-1 9.9999999999999995e-007 1e-010 
body $-1 $8 $-1 $9 #
body $-1 $10 $-1 $11 #
body $-1 $12 $-1 $13 #
body $-1 $14 $-1 $15 #
body $-1 $16 $-1 $17 #
body $-1 $18 $-1 $19 #
body $-1 $20 $-1 $21 #
body $-1 $22 $-1 $23 #
lump $-1 $-1 $24 $0 #
transform $-1 1 0 0 0 1 0 0 0 1 67.155369731742297 42.102299412891291 9.4593010665536799 1 rotate no_reflect no_shear #
lump $-1 $-1 $25 $1 #
transform $-1 1 0 0 0 1 0 0 0 1 67.155369731742297 42.102299412891291 9.4593010665536799 1 rotate no_reflect no_shear #
lump $-1 $-1 $26 $2 #
transform $-1 1 0 0 0 1 0 0 0 1 67.155369731742297 42.102299412891291 9.4593010665536799 1 rotate no_reflect no_shear #
lump $-1 $-1 $27 $3 #
transform $-1 1 0 0 0 1 0 0 0 1 67.155369731742297 42.102299412891291 9.4593010665536799 1 rotate no_reflect no_shear #
lump $-1 $-1 $28 $4 #
transform $-1 1 0 0 0 1 0 0 0 1 67.155369731742297 42.102299412891291 9.4593010665536799 1 rotate no_reflect no_shear #
lump $-1 $-1 $29 $5 #
transform $-1 1 0 0 0 1 0 0 0 1 67.155369731742297 42.102299412891291 9.4593010665536799 1 rotate no_reflect no_shear #
lump $-1 $-1 $30 $6 #
transform $-1 1 0 0 0 1 0 0 0 1 67.155369731742297 42.102299412891291 9.4593010665536799 1 rotate no_reflect no_shear #
lump $-1 $-1 $31 $7 #
transform $-1 1 0 0 0 1 0 0 0 1 67.155369731742297 42.102299412891291 9.4593010665536799 1 rotate no_reflect no_shear #
shell $-1 $-1 $-1 $32 $-1 $8 #
shell $-1 $-1 $-1 $33 $-1 $10 #
shell $-1 $-1 $-1 $34 $-1 $12 #
shell $-1 $-1 $-1 $35 $-1 $14 #
shell $-1 $-1 $-1 $36 $-1 $16 #
shell $-1 $-1 $-1 $37 $-1 $18 #
shell $-1 $-1 $-1 $38 $-1 $20 #
shell $-1 $-1 $-1 $39 $-1 $22 #
face $-1 $40 $41 $24 $-1 $42 forward single #
face $-1 $43 $44 $25 $-1 $45 forward single #
face $-1 $46 $47 $26 $-1 $48 reversed single #
face $-1 $49 $50 $27 $-1 $51 forward single #
face $-1 $52 $53 $28 $-1 $54 forward single #
face $-1 $55 $56 $29 $-1 $57 reversed single #
face $-1 $58 $59 $30 $-1 $60 forward single #
face $-1 $61 $62 $31 $-1 $63 forward single #
face $-1 $64 $65 $24 $-1 $66 reversed single #
loop $-1 $-1 $67 $32 #
plane-surface $-1 0 0 9.4593010665536799 0 0 1 1 0 0 forward_v I I I I #
face $-1 $68 $69 $25 $-1 $70 reversed single #
loop $-1 $-1 $71 $33 #
plane-surface $-1 -67.155369731742297 0 0 1 0 0 0 0 -1 forward_v I I I I #
face $-1 $72 $73 $26 $-1 $74 reversed single #
loop $-1 $-1 $75 $34 #
plane-surface $-1 -29.6193450196116 80.223932341398125 159.32318263694725 1 0 0 0 -0.71933980857756763 -0.69465836192734942 forward_v I I I I #
face $-1 $76 $77 $27 $-1 $78 forward single #
loop $-1 $79 $80 $35 #
cone-surface $-1 -19.53741681350278 38.80646331069363 6.1413917739562542 0 -0.71933980857756763 -0.69465836192734942 1 0 0 1 I I 0 1 1 forward I I I I #
face $-1 $81 $82 $28 $-1 $83 forward single #
loop $-1 $84 $85 $36 #
cone-surface $-1 -4.4145245043395533 38.80646331069363 6.1413917739562542 0 -0.71933980857756763 -0.69465836192734942 1 0 0 1 I I 0 1 1 forward I I I I #
face $-1 $86 $87 $29 $-1 $88 reversed single #
loop $-1 $-1 $89 $37 #
plane-surface $-1 -24.192923484547343 -157.22907446641952 70.675880238954278 -1 0 0 0 -0.85716730853699208 0.51503806187062418 forward_v I I I I #
face $-1 $90 $91 $30 $-1 $92 forward single #
loop $-1 $93 $94 $38 #
cone-surface $-1 -46.052462629868835 -38.196384731067006 4.5697628508172565 0 0.85716730853699208 -0.51503806187062418 1 0 0 1 I I 0 1 1 forward I I I I #
face $-1 $95 $96 $31 $-1 $97 forward single #
loop $-1 $98 $99 $39 #
cone-surface $-1 -32.936739142675933 -38.196384731067006 4.5697628508172565 0 0.85716730853699208 -0.51503806187062418 1 0 0 1 I I 0 1 1 forward I I I I #
face $-1 $100 $101 $24 $-1 $102 reversed single #
loop $-1 $-1 $103 $40 #
plane-surface $-1 0 0 -9.4593010665536799 0 0 1 1 0 0 forward_v I I I I #
coedge $-1 $104 $105 $106 $107 forward $41 $-1 #
face $-1 $108 $109 $25 $-1 $110 reversed single #
loop $-1 $-1 $111 $43 #
plane-surface $-1 0 0 -9.4593010665536799 0 0 1 1 0 0 forward_v I I I I #
coedge $-1 $112 $113 $114 $115 forward $44 $-1 #
face $-1 $116 $117 $26 $-1 $118 reversed single #
loop $-1 $-1 $119 $46 #
plane-surface $-1 -11.975970658921163 -16.391129274176436 66.023104371992034 0 0.71933980857756763 0.69465836192734942 1 0 0 forward_v I I I I #
coedge $-1 $120 $121 $122 $123 reversed $47 $-1 #
face $-1 $-1 $124 $27 $-1 $125 forward single #
loop $-1 $126 $127 $49 #
cone-surface $-1 -19.53741681350278 37.086157339757641 4.4801116480206513 0 -0.71933980857756763 -0.69465836192734942 0.5 0 0 1 I I -0.70710678118654746 0.70710678118654746 0.5 forward I I I I #
loop $-1 $-1 $128 $35 #
coedge $-1 $80 $80 $129 $130 reversed $50 $-1 #
face $-1 $-1 $131 $28 $-1 $132 forward single #
loop $-1 $133 $134 $52 #
cone-surface $-1 -4.4145245043395533 37.086157339757641 4.4801116480206513 0 -0.71933980857756763 -0.69465836192734942 0.5 0 0 1 I I -0.70710678118654746 0.70710678118654746 0.5 forward I I I I #
loop $-1 $-1 $135 $36 #
coedge $-1 $85 $85 $136 $137 reversed $53 $-1 #
face $-1 $138 $139 $29 $-1 $140 reversed single #
loop $-1 $-1 $141 $55 #
plane-surface $-1 -39.494600886272387 -42.102299412891256 1.5007372972708168 0 -0.85716730853699208 0.51503806187062418 1 0 0 forward_v I I I I #
coedge $-1 $142 $143 $144 $145 reversed $56 $-1 #
face $-1 $-1 $146 $30 $-1 $147 forward single #
loop $-1 $148 $149 $58 #
cone-surface $-1 -46.052462629868835 -36.252880089076541 3.4019874887869488 0 0.85716730853699208 -0.51503806187062418 0.5 0 0 1 I I -0.70710678118654746 0.70710678118654746 0.5 forward I I I I #
loop $-1 $-1 $150 $38 #
coedge $-1 $94 $94 $151 $152 reversed $59 $-1 #
face $-1 $-1 $153 $31 $-1 $154 forward single #
loop $-1 $155 $156 $61 #
cone-surface $-1 -32.936739142675933 -36.252880089076541 3.4019874887869488 0 0.85716730853699208 -0.51503806187062418 0.5 0 0 1 I I -0.70710678118654746 0.70710678118654746 0.5 forward I I I I #
loop $-1 $-1 $157 $39 #
coedge $-1 $99 $99 $158 $159 reversed $62 $-1 #
face $-1 $160 $161 $24 $-1 $162 reversed single #
loop $-1 $-1 $163 $64 #
plane-surface $-1 0 -42.102299412891291 0 0 1 0 0 0 1 forward_v I I I I #
coedge $-1 $164 $165 $166 $167 forward $65 $-1 #
coedge $-1 $168 $67 $169 $170 forward $41 $-1 #
coedge $-1 $67 $168 $171 $172 forward $41 $-1 #
coedge $-1 $173 $174 $67 $107 reversed $175 $-1 #
edge $-1 $176 -42.102299412891291 $177 42.102299412891291 $106 $178 forward 7 unknown #
face $-1 $179 $180 $25 $-1 $181 reversed single #
loop $-1 $-1 $182 $68 #
plane-surface $-1 -70.3260961559305 -41.29258161645101 0 0 1 0 0 0 1 forward_v I I I I #
coedge $-1 $183 $184 $113 $185 forward $69 $-1 #
coedge $-1 $186 $71 $187 $188 reversed $44 $-1 #
coedge $-1 $71 $186 $111 $185 reversed $44 $-1 #
coedge $-1 $189 $190 $71 $115 reversed $191 $-1 #
edge $-1 $192 -9.4593010665536799 $193 9.4593010665536799 $114 $194 forward 7 unknown #
face $-1 $195 $196 $26 $-1 $197 forward single #
loop $-1 $-1 $198 $72 #
plane-surface $-1 5.667403701769274 80.223932341398125 159.32318263694725 -1 0 0 0 0.71933980857756763 0.69465836192734942 forward_v I I I I #
coedge $-1 $199 $200 $201 $202 reversed $73 $-1 #
coedge $-1 $121 $75 $203 $204 reversed $47 $-1 #
coedge $-1 $75 $120 $199 $205 reversed $47 $-1 #
coedge $-1 $201 $206 $75 $123 forward $196 $-1 #
edge $-1 $207 -1.9903332421922286 $208 1.8800668289086389 $122 $209 forward 7 unknown #
loop $-1 $-1 $129 $76 #
plane-surface $-1 -11.975970658921163 -16.391129274176436 66.023104371992034 0 0.71933980857756763 0.69465836192734942 1 0 0 forward_v I I I I #
loop $-1 $-1 $210 $49 #
coedge $-1 $127 $127 $128 $211 reversed $77 $-1 #
coedge $-1 $128 $128 $127 $211 forward $79 $-1 #
coedge $-1 $129 $129 $80 $130 forward $124 $-1 #
edge $-1 $212 1.1650187731707037e-015 $212 6.2831853071796013 $129 $213 forward 7 unknown #
loop $-1 $-1 $136 $81 #
plane-surface $-1 -11.975970658921163 -16.391129274176436 66.023104371992034 0 0.71933980857756763 0.69465836192734942 1 0 0 forward_v I I I I #
loop $-1 $-1 $214 $52 #
coedge $-1 $134 $134 $135 $215 reversed $82 $-1 #
coedge $-1 $135 $135 $134 $215 forward $84 $-1 #
coedge $-1 $136 $136 $85 $137 forward $131 $-1 #
edge $-1 $216 1.1650187731707037e-015 $216 6.2831853071796013 $136 $217 forward 7 unknown #
face $-1 $218 $219 $29 $-1 $220 forward single #
loop $-1 $-1 $221 $86 #
plane-surface $-1 -54.796278287997431 -157.22907446641952 70.675880238954278 1 0 0 0 0.85716730853699208 -0.51503806187062418 forward_v I I I I #
coedge $-1 $222 $223 $224 $225 reversed $87 $-1 #
coedge $-1 $143 $89 $226 $227 reversed $56 $-1 #
coedge $-1 $89 $142 $222 $228 reversed $56 $-1 #
coedge $-1 $224 $229 $89 $145 forward $219 $-1 #
edge $-1 $230 36.512237820318468 $231 41.294225208523152 $144 $232 forward 7 unknown #
loop $-1 $-1 $151 $90 #
plane-surface $-1 -39.494600886272387 -42.102299412891256 1.5007372972708168 0 -0.85716730853699208 0.51503806187062418 1 0 0 forward_v I I I I #
loop $-1 $-1 $233 $58 #
coedge $-1 $149 $149 $150 $234 reversed $91 $-1 #
coedge $-1 $150 $150 $149 $234 forward $93 $-1 #
coedge $-1 $151 $151 $94 $152 forward $146 $-1 #
edge $-1 $235 -7.8752504826176028e-016 $235 6.2831853071795996 $151 $236 forward 7 unknown #
loop $-1 $-1 $158 $95 #
plane-surface $-1 -39.494600886272387 -42.102299412891256 1.5007372972708168 0 -0.85716730853699208 0.51503806187062418 1 0 0 forward_v I I I I #
loop $-1 $-1 $237 $61 #
coedge $-1 $156 $156 $157 $238 reversed $96 $-1 #
coedge $-1 $157 $157 $156 $238 forward $98 $-1 #
coedge $-1 $158 $158 $99 $159 forward $153 $-1 #
edge $-1 $239 -7.8752504826176028e-016 $239 6.2831853071795996 $158 $240 forward 7 unknown #
face $-1 $241 $242 $24 $-1 $243 reversed single #
loop $-1 $-1 $244 $100 #
plane-surface $-1 -67.155369731742297 0 0 1 0 0 0 0 -1 forward_v I I I I #
coedge $-1 $245 $171 $246 $247 forward $101 $-1 #
coedge $-1 $248 $103 $245 $249 forward $65 $-1 #
coedge $-1 $103 $248 $250 $251 forward $65 $-1 #
coedge $-1 $174 $173 $103 $167 reversed $175 $-1 #
edge $-1 $252 -42.102299412891291 $253 42.102299412891291 $166 $254 forward 7 unknown #
coedge $-1 $105 $104 $255 $256 forward $41 $-1 #
coedge $-1 $257 $258 $104 $170 reversed $242 $-1 #
edge $-1 $177 -67.155369731742297 $259 67.155369731742297 $169 $260 forward 7 unknown #
coedge $-1 $163 $261 $105 $172 reversed $101 $-1 #
edge $-1 $262 -67.155369731742297 $176 67.155369731742297 $171 $263 forward 7 unknown #
coedge $-1 $166 $106 $261 $264 forward $175 $-1 #
coedge $-1 $106 $166 $257 $265 reversed $175 $-1 #
loop $-1 $-1 $173 $241 #
vertex $-1 $107 $266 #
vertex $-1 $107 $267 #
straight-curve $-1 67.155369731742297 0 9.4593010665536799 0 1 0 I I #
face $-1 $268 $191 $25 $-1 $269 reversed single #
loop $-1 $-1 $270 $108 #
plane-surface $-1 -73.496822580118703 -39.448671777210365 0 1 0 0 0 0 -1 forward_v I I I I #
coedge $-1 $271 $272 $273 $274 forward $109 $-1 #
coedge $-1 $275 $111 $271 $276 forward $69 $-1 #
coedge $-1 $111 $275 $189 $277 forward $69 $-1 #
edge $-1 $192 37.60476193796972 $278 41.29258161645101 $111 $279 forward 7 unknown #
coedge $-1 $113 $112 $280 $281 forward $44 $-1 #
coedge $-1 $282 $283 $112 $188 forward $284 $-1 #
edge $-1 $285 -41.29258161645101 $193 -37.60476193796972 $187 $286 forward 7 unknown #
coedge $-1 $287 $114 $184 $277 reversed $191 $-1 #
coedge $-1 $114 $287 $282 $288 reversed $191 $-1 #
loop $-1 $-1 $114 $179 #
vertex $-1 $185 $289 #
vertex $-1 $288 $290 #
straight-curve $-1 -67.155369731742297 -37.60476193796972 0 0 0 1 I I #
face $-1 $-1 $291 $26 $-1 $292 reversed single #
loop $-1 $-1 $122 $116 #
plane-surface $-1 0 0 9.4593010665536799 0 0 1 1 0 0 forward_v I I I I #
coedge $-1 $293 $294 $295 $296 reversed $117 $-1 #
coedge $-1 $297 $119 $121 $205 forward $73 $-1 #
coedge $-1 $119 $297 $293 $298 forward $73 $-1 #
coedge $-1 $295 $122 $119 $202 forward $196 $-1 #
edge $-1 $208 -23.631359690151019 $299 11.655389031229856 $201 $300 forward 7 unknown #
coedge $-1 $301 $302 $120 $204 forward $291 $-1 #
edge $-1 $303 -74.210206947170903 $207 -70.202290251919948 $203 $304 forward 7 unknown #
edge $-1 $208 78.632939024031486 $303 84.204598825782568 $121 $305 forward 7 unknown #
coedge $-1 $122 $295 $301 $306 forward $196 $-1 #
vertex $-1 $204 $307 #
vertex $-1 $123 $308 #
straight-curve $-1 -29.6193450196116 40.111966170699063 9.4593010665536781 0 -1 0 I I #
coedge $-1 $210 $210 $-1 $309 reversed $126 $-1 #
edge $-1 $310 0 $310 6.2831853071796004 $127 $311 forward 7 unknown #
vertex $-1 $130 $312 #
ellipse-curve $-1 -19.53741681350278 40.167099377340861 7.4553427189282049 0 0.71933980857756763 0.69465836192734942 1 0 0 1 I I #
coedge $-1 $214 $214 $-1 $313 reversed $133 $-1 #
edge $-1 $314 0 $314 6.2831853071796004 $134 $315 forward 7 unknown #
vertex $-1 $137 $316 #
ellipse-curve $-1 -4.4145245043395533 40.167099377340861 7.4553427189282049 0 0.71933980857756763 0.69465836192734942 1 0 0 1 I I #
face $-1 $-1 $317 $29 $-1 $318 reversed single #
loop $-1 $-1 $144 $138 #
plane-surface $-1 0 0 9.4593010665536799 0 0 1 1 0 0 forward_v I I I I #
coedge $-1 $319 $320 $321 $322 reversed $139 $-1 #
coedge $-1 $323 $141 $143 $228 forward $87 $-1 #
coedge $-1 $141 $323 $319 $324 forward $87 $-1 #
coedge $-1 $321 $144 $141 $225 forward $219 $-1 #
edge $-1 $231 4.4456230414111495 $325 35.048977844861241 $224 $326 forward 7 unknown #
coedge $-1 $327 $328 $142 $227 forward $317 $-1 #
edge $-1 $329 -33.837202822206379 $230 -25.878639052923461 $226 $330 forward 7 unknown #
edge $-1 $231 -9.2847262022469046 $329 6.8925441791853865e-014 $143 $331 forward 7 unknown #
coedge $-1 $144 $321 $327 $332 forward $219 $-1 #
vertex $-1 $145 $333 #
vertex $-1 $145 $334 #
straight-curve $-1 -24.192923484547343 -78.614537233209759 9.4593010665536781 0 1 0 I I #
coedge $-1 $233 $233 $-1 $335 reversed $148 $-1 #
edge $-1 $336 0 $336 6.2831853071796004 $149 $337 forward 7 unknown #
vertex $-1 $152 $338 #
ellipse-curve $-1 -46.052462629868835 -39.711305718788942 5.4800191819122324 0 -0.85716730853699208 0.51503806187062418 1 0 0 1 I I #
coedge $-1 $237 $237 $-1 $339 reversed $155 $-1 #
edge $-1 $340 0 $340 6.2831853071796004 $156 $341 forward 7 unknown #
vertex $-1 $159 $342 #
ellipse-curve $-1 -32.936739142675933 -39.711305718788942 5.4800191819122324 0 -0.85716730853699208 0.51503806187062418 1 0 0 1 I I #
face $-1 $-1 $175 $24 $-1 $343 reversed single #
loop $-1 $-1 $257 $160 #
plane-surface $-1 0 42.102299412891291 0 0 -1 0 0 0 -1 forward_v I I I I #
coedge $-1 $344 $255 $258 $345 forward $161 $-1 #
coedge $-1 $261 $163 $164 $249 reversed $101 $-1 #
coedge $-1 $255 $344 $163 $247 reversed $161 $-1 #
edge $-1 $262 -9.4593010665536799 $346 9.4593010665536799 $246 $347 forward 7 unknown #
coedge $-1 $165 $164 $344 $348 forward $65 $-1 #
edge $-1 $253 -67.155369731742297 $346 67.155369731742297 $245 $349 forward 7 unknown #
coedge $-1 $258 $257 $165 $251 reversed $242 $-1 #
edge $-1 $350 -67.155369731742297 $252 67.155369731742297 $250 $351 forward 7 unknown #
vertex $-1 $167 $352 #
vertex $-1 $264 $353 #
straight-curve $-1 67.155369731742297 0 -9.4593010665536799 0 -1 0 I I #
coedge $-1 $244 $246 $168 $256 reversed $161 $-1 #
edge $-1 $259 -42.102299412891291 $262 42.102299412891291 $255 $354 forward 7 unknown #
coedge $-1 $250 $169 $174 $265 forward $242 $-1 #
coedge $-1 $169 $250 $244 $345 reversed $242 $-1 #
vertex $-1 $170 $355 #
straight-curve $-1 0 42.102299412891291 9.4593010665536799 -1 0 0 I I #
coedge $-1 $171 $245 $173 $264 reversed $101 $-1 #
vertex $-1 $256 $356 #
straight-curve $-1 0 -42.102299412891291 9.4593010665536799 1 0 0 I I #
edge $-1 $176 -9.4593010665536799 $253 9.4593010665536799 $173 $357 forward 7 unknown #
edge $-1 $177 -9.4593010665536799 $252 9.4593010665536799 $174 $358 forward 7 unknown #
point $-1 67.155369731742297 -42.102299412891291 9.4593010665536799 #
point $-1 67.155369731742297 42.102299412891291 9.4593010665536799 #
face $-1 $-1 $284 $25 $-1 $359 forward single #
plane-surface $-1 -70.3260961559305 -37.60476193796972 0 0 -1 0 0 0 -1 forward_v I I I I #
coedge $-1 $360 $361 $287 $362 forward $180 $-1 #
coedge $-1 $280 $182 $183 $276 reversed $109 $-1 #
coedge $-1 $182 $280 $283 $363 reversed $109 $-1 #
coedge $-1 $361 $360 $182 $274 reversed $180 $-1 #
edge $-1 $364 -9.4593010665536799 $365 9.4593010665536799 $273 $366 forward 7 unknown #
coedge $-1 $184 $183 $360 $367 forward $69 $-1 #
edge $-1 $278 -3.1707264241882029 $365 3.1707264241882029 $271 $368 forward 7 unknown #
edge $-1 $369 -3.1707264241882029 $192 3.1707264241882029 $189 $370 forward 7 unknown #
vertex $-1 $276 $371 #
straight-curve $-1 -67.155369731742297 0 -9.4593010665536799 0 -1 0 I I #
coedge $-1 $272 $271 $186 $281 reversed $109 $-1 #
edge $-1 $285 -9.4593010665536799 $278 9.4593010665536799 $280 $372 forward 7 unknown #
coedge $-1 $373 $187 $190 $288 forward $284 $-1 #
coedge $-1 $187 $373 $272 $363 forward $284 $-1 #
loop $-1 $-1 $187 $268 #
vertex $-1 $188 $374 #
straight-curve $-1 -67.155369731742297 0 9.4593010665536799 0 1 0 I I #
coedge $-1 $190 $189 $270 $362 reversed $191 $-1 #
edge $-1 $193 -3.1707264241882029 $375 3.1707264241882029 $190 $376 forward 7 unknown #
point $-1 -67.155369731742297 -37.60476193796972 -9.4593010665536799 #
point $-1 -67.155369731742297 -37.60476193796972 9.4593010665536799 #
loop $-1 $-1 $203 $195 #
plane-surface $-1 0 42.102299412891291 0 0 -1 0 0 0 -1 forward_v I I I I #
coedge $-1 $294 $198 $200 $298 reversed $117 $-1 #
coedge $-1 $198 $293 $377 $378 reversed $117 $-1 #
coedge $-1 $206 $201 $198 $296 forward $196 $-1 #
edge $-1 $299 -1.8800668289086389 $379 1.9903332421922286 $295 $380 forward 7 unknown #
coedge $-1 $200 $199 $302 $381 reversed $73 $-1 #
edge $-1 $382 -84.204598825782568 $299 -78.632939024031486 $293 $383 forward 7 unknown #
vertex $-1 $202 $384 #
straight-curve $-1 -5.9879853294605816 38.231899341790424 9.4593010665536852 1 0 0 I I #
coedge $-1 $377 $203 $206 $306 reversed $291 $-1 #
coedge $-1 $203 $377 $297 $381 forward $291 $-1 #
vertex $-1 $204 $385 #
straight-curve $-1 -29.6193450196116 42.102299412891291 79.661591318473626 0 0 1 I I #
straight-curve $-1 -29.6193450196116 -16.391129274176436 66.023104371992034 0 0.69465836192734942 -0.71933980857756763 I I #
edge $-1 $379 -5.667403701769274 $207 29.6193450196116 $301 $386 forward 7 unknown #
point $-1 -29.6193450196116 42.102299412891291 9.4593010665536799 #
point $-1 -29.6193450196116 38.231899341790424 9.4593010665536781 #
edge $-1 $387 1 $387 0 $210 $-1 forward 7 unknown #
vertex $-1 $211 $388 #
ellipse-curve $-1 -19.53741681350278 37.445827244046427 4.8274408289843258 0 0.71933980857756763 0.69465836192734942 1 0 0 1 I I #
point $-1 -18.53741681350278 40.16709937734084 7.4553427189281827 #
edge $-1 $389 1 $389 0 $214 $-1 forward 7 unknown #
vertex $-1 $215 $390 #
ellipse-curve $-1 -4.4145245043395533 37.445827244046427 4.8274408289843258 0 0.71933980857756763 0.69465836192734942 1 0 0 1 I I #
point $-1 -3.4145245043395533 40.16709937734084 7.4553427189281827 #
loop $-1 $-1 $226 $218 #
plane-surface $-1 0 -42.102299412891291 0 0 1 0 0 0 1 forward_v I I I I #
coedge $-1 $320 $221 $223 $324 reversed $139 $-1 #
coedge $-1 $221 $319 $391 $392 reversed $139 $-1 #
coedge $-1 $229 $224 $221 $322 forward $219 $-1 #
edge $-1 $325 -41.294225208523152 $393 -36.512237820318468 $321 $394 forward 7 unknown #
coedge $-1 $223 $222 $328 $395 reversed $87 $-1 #
edge $-1 $396 -6.8925441791853865e-014 $325 9.2847262022469046 $319 $397 forward 7 unknown #
vertex $-1 $225 $398 #
straight-curve $-1 -19.747300443136194 -37.320312024686608 9.4593010665536799 -1 0 0 I I #
coedge $-1 $391 $226 $229 $332 reversed $317 $-1 #
coedge $-1 $226 $391 $323 $395 forward $317 $-1 #
vertex $-1 $227 $399 #
straight-curve $-1 -24.192923484547343 -42.102299412891291 35.337940119477139 0 0 1 I I #
straight-curve $-1 -24.192923484547343 -42.102299412891256 1.5007372972708168 0 -0.51503806187062418 -0.85716730853699208 I I #
edge $-1 $393 -54.796278287997431 $230 -24.192923484547343 $327 $400 forward 7 unknown #
point $-1 -24.192923484547343 -42.102299412891291 9.4593010665536799 #
point $-1 -24.192923484547343 -37.320312024686608 9.4593010665536816 #
edge $-1 $401 1 $401 0 $233 $-1 forward 7 unknown #
vertex $-1 $234 $402 #
ellipse-curve $-1 -46.052462629868835 -36.681463743345034 3.6595065197222607 0 -0.85716730853699208 0.51503806187062418 1 0 0 1 I I #
point $-1 -45.052462629868835 -39.711305718788978 5.4800191819122528 #
edge $-1 $403 1 $403 0 $237 $-1 forward 7 unknown #
vertex $-1 $238 $404 #
ellipse-curve $-1 -32.936739142675933 -36.681463743345034 3.6595065197222607 0 -0.85716730853699208 0.51503806187062418 1 0 0 1 I I #
point $-1 -31.936739142675933 -39.711305718788978 5.4800191819122528 #
plane-surface $-1 67.155369731742297 0 0 -1 0 0 0 0 1 forward_v I I I I #
coedge $-1 $246 $244 $248 $348 reversed $161 $-1 #
edge $-1 $259 -9.4593010665536799 $350 9.4593010665536799 $258 $405 forward 7 unknown #
vertex $-1 $348 $406 #
straight-curve $-1 -67.155369731742297 -42.102299412891291 0 0 0 -1 I I #
edge $-1 $346 -42.102299412891291 $350 42.102299412891291 $344 $407 forward 7 unknown #
straight-curve $-1 0 -42.102299412891291 -9.4593010665536799 -1 0 0 I I #
vertex $-1 $251 $408 #
straight-curve $-1 0 42.102299412891291 -9.4593010665536799 1 0 0 I I #
point $-1 67.155369731742297 42.102299412891291 -9.4593010665536799 #
point $-1 67.155369731742297 -42.102299412891291 -9.4593010665536799 #
straight-curve $-1 -67.155369731742297 0 9.4593010665536799 0 -1 0 I I #
point $-1 -67.155369731742297 42.102299412891291 9.4593010665536799 #
point $-1 -67.155369731742297 -42.102299412891291 9.4593010665536799 #
straight-curve $-1 67.155369731742297 -42.102299412891291 0 0 0 -1 I I #
straight-curve $-1 67.155369731742297 42.102299412891291 0 0 0 -1 I I #
plane-surface $-1 0 0 9.4593010665536799 0 0 1 1 0 0 forward_v I I I I #
coedge $-1 $273 $270 $275 $367 reversed $180 $-1 #
coedge $-1 $270 $273 $373 $409 reversed $180 $-1 #
edge $-1 $375 -9.4593010665536799 $369 9.4593010665536799 $287 $410 forward 7 unknown #
edge $-1 $364 -3.1707264241882029 $285 3.1707264241882029 $272 $411 forward 7 unknown #
vertex $-1 $409 $412 #
vertex $-1 $367 $413 #
straight-curve $-1 -73.496822580118703 -41.29258161645101 0 0 0 -1 I I #
edge $-1 $365 -1.843909839240645 $369 1.843909839240645 $360 $414 forward 7 unknown #
straight-curve $-1 -70.3260961559305 -41.29258161645101 -9.4593010665536799 -1 0 0 I I #
vertex $-1 $277 $415 #
straight-curve $-1 -70.3260961559305 -37.60476193796972 -9.4593010665536799 1 0 0 I I #
point $-1 -67.155369731742297 -41.29258161645101 -9.4593010665536799 #
straight-curve $-1 -67.155369731742297 -41.29258161645101 0 0 0 -1 I I #
coedge $-1 $283 $282 $361 $409 forward $284 $-1 #
point $-1 -67.155369731742297 -41.29258161645101 9.4593010665536799 #
vertex $-1 $288 $416 #
straight-curve $-1 -70.3260961559305 -37.60476193796972 9.4593010665536799 -1 0 0 I I #
coedge $-1 $302 $301 $294 $378 forward $291 $-1 #
edge $-1 $379 70.202290251919948 $382 74.210206947170903 $377 $417 forward 7 unknown #
vertex $-1 $306 $418 #
straight-curve $-1 5.667403701769274 40.111966170699063 9.4593010665536781 0 1 0 I I #
edge $-1 $382 -11.655389031229856 $303 23.631359690151019 $302 $419 forward 7 unknown #
vertex $-1 $381 $420 #
straight-curve $-1 5.667403701769274 -16.391129274176436 66.023104371992034 0 -0.69465836192734942 0.71933980857756763 I I #
point $-1 5.667403701769274 38.231899341790424 9.4593010665536781 #
point $-1 -29.6193450196116 42.102299412891291 5.4513843713027228 #
straight-curve $-1 0 42.102299412891291 9.4593010665536799 -1 0 0 I I #
vertex $-1 $309 $421 #
point $-1 -18.53741681350278 37.445827244046427 4.8274408289843258 #
vertex $-1 $313 $422 #
point $-1 -3.4145245043395533 37.445827244046427 4.8274408289843258 #
coedge $-1 $328 $327 $320 $392 forward $317 $-1 #
edge $-1 $393 25.878639052923461 $396 33.837202822206379 $391 $423 forward 7 unknown #
vertex $-1 $332 $424 #
straight-curve $-1 -54.796278287997431 -78.614537233209759 9.4593010665536781 0 -1 0 I I #
edge $-1 $396 -35.048977844861241 $329 -4.4456230414111495 $328 $425 forward 7 unknown #
vertex $-1 $395 $426 #
straight-curve $-1 -54.796278287997431 -42.102299412891256 1.5007372972708168 0 0.51503806187062418 0.85716730853699208 I I #
point $-1 -54.796278287997431 -37.320312024686608 9.4593010665536816 #
point $-1 -24.192923484547343 -42.102299412891291 1.5007372972707578 #
straight-curve $-1 0 -42.102299412891291 9.4593010665536799 1 0 0 I I #
vertex $-1 $335 $427 #
point $-1 -45.052462629868835 -36.681463743345034 3.6595065197222607 #
vertex $-1 $339 $428 #
point $-1 -31.936739142675933 -36.681463743345034 3.6595065197222607 #
straight-curve $-1 -67.155369731742297 42.102299412891291 0 0 0 -1 I I #
point $-1 -67.155369731742297 -42.102299412891291 -9.4593010665536799 #
straight-curve $-1 -67.155369731742297 0 -9.4593010665536799 0 1 0 I I #
point $-1 -67.155369731742297 42.102299412891291 -9.4593010665536799 #
edge $-1 $375 -1.843909839240645 $364 1.843909839240645 $361 $429 forward 7 unknown #
straight-curve $-1 -73.496822580118703 -37.60476193796972 0 0 0 -1 I I #
straight-curve $-1 -70.3260961559305 -41.29258161645101 9.4593010665536799 1 0 0 I I #
point $-1 -73.496822580118703 -41.29258161645101 9.4593010665536799 #
point $-1 -73.496822580118703 -41.29258161645101 -9.4593010665536799 #
straight-curve $-1 -73.496822580118703 -39.448671777210365 -9.4593010665536799 0 1 0 I I #
point $-1 -73.496822580118703 -37.60476193796972 -9.4593010665536799 #
point $-1 -73.496822580118703 -37.60476193796972 9.4593010665536799 #
straight-curve $-1 5.667403701769274 42.102299412891291 79.661591318473626 0 0 -1 I I #
point $-1 5.667403701769274 42.102299412891291 9.4593010665536799 #
straight-curve $-1 -5.9879853294605816 42.102299412891291 5.4513843713027299 -1 0 0 I I #
point $-1 5.667403701769274 42.102299412891291 5.4513843713027228 #
point $-1 -19.53741681350278 36.726487435468854 4.1327824670569768 #
point $-1 -4.4145245043395533 36.726487435468854 4.1327824670569768 #
straight-curve $-1 -54.796278287997431 -42.102299412891291 35.337940119477139 0 0 -1 I I #
point $-1 -54.796278287997431 -42.102299412891291 9.4593010665536799 #
straight-curve $-1 -19.747300443136194 -42.102299412891291 1.5007372972707544 1 0 0 I I #
point $-1 -54.796278287997431 -42.102299412891291 1.5007372972707578 #
point $-1 -46.052462629868835 -35.824296434808048 3.1444684578516369 #
point $-1 -32.936739142675933 -35.824296434808048 3.1444684578516369 #
straight-curve $-1 -73.496822580118703 -39.448671777210365 9.4593010665536799 0 -1 0 I I #
End-of-ACIS-data 