500 0 11 0           
7 Unknown 11 ACIS 5.0 NT 24 Fri Mar 26 02:11:26 1999 
-1 9.9999999999999995e-007 1e-010 
body $-1 $11 $-1 $12 #
body $-1 $13 $-1 $14 #
body $-1 $15 $-1 $16 #
body $-1 $17 $-1 $18 #
body $-1 $19 $-1 $20 #
body $-1 $21 $-1 $22 #
body $-1 $23 $-1 $24 #
body $-1 $25 $-1 $26 #
body $-1 $27 $-1 $28 #
body $-1 $29 $-1 $30 #
body $-1 $31 $-1 $32 #
lump $-1 $-1 $33 $0 #
transform $-1 1 0 0 0 1 0 0 0 1 59.660023804437394 35.638884852005894 15.878973830633713 1 rotate no_reflect no_shear #
lump $-1 $-1 $34 $1 #
transform $-1 1 0 0 0 1 0 0 0 1 59.660023804437394 35.638884852005894 15.878973830633713 1 rotate no_reflect no_shear #
lump $-1 $-1 $35 $2 #
transform $-1 1 0 0 0 1 0 0 0 1 59.660023804437394 35.638884852005894 15.878973830633713 1 rotate no_reflect no_shear #
lump $-1 $-1 $36 $3 #
transform $-1 1 0 0 0 1 0 0 0 1 59.660023804437394 35.638884852005894 15.878973830633713 1 rotate no_reflect no_shear #
lump $-1 $-1 $37 $4 #
transform $-1 1 0 0 0 1 0 0 0 1 59.660023804437394 35.638884852005894 15.878973830633713 1 rotate no_reflect no_shear #
lump $-1 $-1 $38 $5 #
transform $-1 1 0 0 0 1 0 0 0 1 59.660023804437394 35.638884852005894 15.878973830633713 1 rotate no_reflect no_shear #
lump $-1 $-1 $39 $6 #
transform $-1 1 0 0 0 1 0 0 0 1 59.660023804437394 35.638884852005894 15.878973830633713 1 rotate no_reflect no_shear #
lump $-1 $-1 $40 $7 #
transform $-1 1 0 0 0 1 0 0 0 1 59.660023804437394 35.638884852005894 15.878973830633713 1 rotate no_reflect no_shear #
lump $-1 $-1 $41 $8 #
transform $-1 1 0 0 0 1 0 0 0 1 59.660023804437394 35.638884852005894 15.878973830633713 1 rotate no_reflect no_shear #
lump $-1 $-1 $42 $9 #
transform $-1 1 0 0 0 1 0 0 0 1 59.660023804437394 35.638884852005894 15.878973830633713 1 rotate no_reflect no_shear #
lump $-1 $-1 $43 $10 #
transform $-1 1 0 0 0 1 0 0 0 1 59.660023804437394 35.638884852005894 15.878973830633713 1 rotate no_reflect no_shear #
shell $-1 $-1 $-1 $44 $-1 $11 #
shell $-1 $-1 $-1 $45 $-1 $13 #
shell $-1 $-1 $-1 $46 $-1 $15 #
shell $-1 $-1 $-1 $47 $-1 $17 #
shell $-1 $-1 $-1 $48 $-1 $19 #
shell $-1 $-1 $-1 $49 $-1 $21 #
shell $-1 $-1 $-1 $50 $-1 $23 #
shell $-1 $-1 $-1 $51 $-1 $25 #
shell $-1 $-1 $-1 $52 $-1 $27 #
shell $-1 $-1 $-1 $53 $-1 $29 #
shell $-1 $-1 $-1 $54 $-1 $31 #
face $-1 $55 $56 $33 $-1 $57 forward single #
face $-1 $58 $59 $34 $-1 $60 forward single #
face $-1 $61 $62 $35 $-1 $63 forward single #
face $-1 $64 $65 $36 $-1 $66 reversed single #
face $-1 $67 $68 $37 $-1 $69 forward single #
face $-1 $70 $71 $38 $-1 $72 reversed single #
face $-1 $73 $74 $39 $-1 $75 forward single #
face $-1 $76 $77 $40 $-1 $78 reversed single #
face $-1 $79 $80 $41 $-1 $81 forward single #
face $-1 $82 $83 $42 $-1 $84 reversed single #
face $-1 $85 $86 $43 $-1 $87 forward single #
face $-1 $88 $89 $33 $-1 $90 reversed single #
loop $-1 $-1 $91 $44 #
plane-surface $-1 0 0 15.878973830633713 0 0 1 1 0 0 forward_v I I I I #
face $-1 $92 $93 $34 $-1 $94 reversed single #
loop $-1 $-1 $95 $45 #
plane-surface $-1 -53.654111008316832 0 -10.992835577480671 0 0 1 1 0 0 forward_v I I I I #
face $-1 $96 $97 $35 $-1 $98 reversed single #
loop $-1 $-1 $99 $46 #
plane-surface $-1 53.654111008316825 0 -10.992835577480671 0 0 1 1 0 0 forward_v I I I I #
face $-1 $100 $101 $36 $-1 $102 reversed single #
loop $-1 $-1 $103 $47 #
plane-surface $-1 -3.5527136788005009e-015 96.88844307141548 126.508872202696 -1 0 0 0 0.83867057594974714 0.54463902268945019 forward_v I I I I #
face $-1 $104 $105 $37 $-1 $106 forward single #
loop $-1 $107 $108 $48 #
cone-surface $-1 -7.8802677493094748 30.18700950814144 8.2515559373346008 0 -0.83867057594974714 -0.54463902268945019 1.5 0 0 1 I I 0 1 1.5 forward I I I I #
face $-1 $109 $110 $38 $-1 $111 reversed single #
loop $-1 $-1 $112 $49 #
plane-surface $-1 47.648198212196277 96.88844307141548 126.508872202696 -1 0 0 0 0.83867057594974714 0.54463902268945019 forward_v I I I I #
face $-1 $113 $114 $39 $-1 $115 forward single #
loop $-1 $116 $117 $50 #
cone-surface $-1 39.767930462886802 30.18700950814144 8.2515559373346008 0 -0.83867057594974714 -0.54463902268945019 1.5 0 0 1 I I 0 1 1.5 forward I I I I #
face $-1 $118 $119 $40 $-1 $120 reversed single #
loop $-1 $-1 $121 $51 #
plane-surface $-1 -15.760535498618946 -135.70909790249215 66.730304032619003 1 0 0 0 0.83867057594974714 -0.54463902268945019 forward_v I I I I #
face $-1 $122 $123 $41 $-1 $124 forward single #
loop $-1 $125 $126 $52 #
cone-surface $-1 -7.8802677493094748 -30.187009508141436 8.2515559373346008 0 0.83867057594974714 -0.54463902268945019 1.5 0 0 1 I I 0 1 1.5 forward I I I I #
face $-1 $127 $128 $42 $-1 $129 reversed single #
loop $-1 $-1 $130 $53 #
plane-surface $-1 31.887662713577331 -135.70909790249215 66.730304032619003 1 0 0 0 0.83867057594974714 -0.54463902268945019 forward_v I I I I #
face $-1 $131 $132 $43 $-1 $133 forward single #
loop $-1 $134 $135 $54 #
cone-surface $-1 39.767930462886802 -30.187009508141436 8.2515559373346008 0 0.83867057594974714 -0.54463902268945019 1.5 0 0 1 I I 0 1 1.5 forward I I I I #
face $-1 $136 $137 $33 $-1 $138 reversed single #
loop $-1 $-1 $139 $55 #
plane-surface $-1 0 0 -15.878973830633713 0 0 1 1 0 0 forward_v I I I I #
coedge $-1 $140 $141 $142 $143 forward $56 $-1 #
face $-1 $144 $145 $34 $-1 $146 reversed single #
loop $-1 $-1 $147 $58 #
plane-surface $-1 -53.654111008316832 0 -15.378973830633713 0 0 1 1 0 0 forward_v I I I I #
coedge $-1 $148 $149 $150 $151 forward $59 $-1 #
face $-1 $152 $153 $35 $-1 $154 reversed single #
loop $-1 $-1 $155 $61 #
plane-surface $-1 53.654111008316825 0 -15.378973830633713 0 0 1 1 0 0 forward_v I I I I #
coedge $-1 $156 $157 $158 $159 reversed $62 $-1 #
face $-1 $160 $161 $36 $-1 $162 reversed single #
loop $-1 $-1 $163 $64 #
plane-surface $-1 -7.8802677493094748 -3.1817699790707934 61.522518085739762 0 0.83867057594974714 0.54463902268945019 1 0 0 forward_v I I I I #
coedge $-1 $164 $165 $166 $167 reversed $65 $-1 #
face $-1 $-1 $168 $37 $-1 $169 forward single #
loop $-1 $170 $171 $67 #
cone-surface $-1 -7.8802677493094748 28.695827014847445 7.2831707345038748 0 -0.83867057594974714 -0.54463902268945019 0.75 0 0 1 I I -0.70710678118654757 0.70710678118654757 0.75 forward I I I I #
loop $-1 $-1 $172 $48 #
coedge $-1 $108 $108 $173 $174 reversed $68 $-1 #
face $-1 $175 $176 $38 $-1 $177 reversed single #
loop $-1 $-1 $178 $70 #
plane-surface $-1 39.767930462886802 -3.1817699790707934 61.522518085739762 0 0.83867057594974714 0.54463902268945019 1 0 0 forward_v I I I I #
coedge $-1 $179 $180 $181 $182 reversed $71 $-1 #
face $-1 $-1 $183 $39 $-1 $184 forward single #
loop $-1 $185 $186 $73 #
cone-surface $-1 39.767930462886802 28.695827014847445 7.2831707345038748 0 -0.83867057594974714 -0.54463902268945019 0.75 0 0 1 I I -0.70710678118654757 0.70710678118654757 0.75 forward I I I I #
loop $-1 $-1 $187 $50 #
coedge $-1 $117 $117 $188 $189 reversed $74 $-1 #
face $-1 $190 $191 $40 $-1 $192 reversed single #
loop $-1 $-1 $193 $76 #
plane-surface $-1 -7.8802677493094748 -35.638884852005873 1.7439499156627676 0 -0.83867057594974714 0.54463902268945019 1 0 0 forward_v I I I I #
coedge $-1 $194 $195 $196 $197 reversed $77 $-1 #
face $-1 $-1 $198 $41 $-1 $199 forward single #
loop $-1 $200 $201 $79 #
cone-surface $-1 -7.8802677493094748 -28.695827014847442 7.2831707345038748 0 0.83867057594974714 -0.54463902268945019 0.75 0 0 1 I I -0.70710678118654757 0.70710678118654757 0.75 forward I I I I #
loop $-1 $-1 $202 $52 #
coedge $-1 $126 $126 $203 $204 reversed $80 $-1 #
face $-1 $205 $206 $42 $-1 $207 reversed single #
loop $-1 $-1 $208 $82 #
plane-surface $-1 39.767930462886802 -35.638884852005873 1.7439499156627676 0 -0.83867057594974714 0.54463902268945019 1 0 0 forward_v I I I I #
coedge $-1 $209 $210 $211 $212 reversed $83 $-1 #
face $-1 $-1 $213 $43 $-1 $214 forward single #
loop $-1 $215 $216 $85 #
cone-surface $-1 39.767930462886802 -28.695827014847442 7.2831707345038748 0 0.83867057594974714 -0.54463902268945019 0.75 0 0 1 I I -0.70710678118654757 0.70710678118654757 0.75 forward I I I I #
loop $-1 $-1 $217 $54 #
coedge $-1 $135 $135 $218 $219 reversed $86 $-1 #
face $-1 $220 $221 $33 $-1 $222 reversed single #
loop $-1 $-1 $223 $88 #
plane-surface $-1 0 -35.638884852005894 0 0 1 0 0 0 1 forward_v I I I I #
coedge $-1 $224 $225 $226 $227 forward $89 $-1 #
coedge $-1 $228 $91 $229 $230 forward $56 $-1 #
coedge $-1 $91 $228 $231 $232 forward $56 $-1 #
coedge $-1 $233 $234 $91 $143 reversed $235 $-1 #
edge $-1 $236 -35.638884852005894 $237 35.638884852005894 $142 $238 forward 7 unknown #
face $-1 $239 $240 $34 $-1 $241 reversed single #
loop $-1 $-1 $242 $92 #
plane-surface $-1 -47.648198212196277 0 -13.185904704057192 -1 0 0 0 0 1 forward_v I I I I #
coedge $-1 $243 $244 $245 $246 forward $93 $-1 #
coedge $-1 $247 $95 $248 $249 reversed $59 $-1 #
coedge $-1 $95 $247 $250 $251 reversed $59 $-1 #
coedge $-1 $242 $252 $95 $151 reversed $145 $-1 #
edge $-1 $253 -35.638884852005894 $254 35.638884852005894 $150 $255 forward 7 unknown #
face $-1 $256 $257 $35 $-1 $258 reversed single #
loop $-1 $-1 $259 $96 #
plane-surface $-1 47.648198212196263 0 -13.185904704057192 1 0 0 0 0 -1 forward_v I I I I #
coedge $-1 $260 $261 $262 $263 reversed $97 $-1 #
coedge $-1 $264 $99 $265 $266 reversed $62 $-1 #
coedge $-1 $99 $264 $267 $268 reversed $62 $-1 #
coedge $-1 $269 $270 $99 $159 forward $271 $-1 #
edge $-1 $272 -35.638884852005894 $273 35.638884852005894 $158 $274 forward 7 unknown #
face $-1 $275 $276 $36 $-1 $277 reversed single #
loop $-1 $-1 $278 $100 #
plane-surface $-1 -15.760535498618946 96.88844307141548 126.508872202696 1 0 0 0 -0.83867057594974714 -0.54463902268945019 forward_v I I I I #
coedge $-1 $279 $280 $281 $282 reversed $101 $-1 #
coedge $-1 $165 $103 $283 $284 reversed $65 $-1 #
coedge $-1 $103 $164 $279 $285 reversed $65 $-1 #
coedge $-1 $281 $286 $103 $167 forward $276 $-1 #
edge $-1 $287 47.375462270714287 $288 61.510486185685252 $166 $289 forward 7 unknown #
loop $-1 $-1 $173 $104 #
plane-surface $-1 -7.8802677493094748 -3.1817699790707934 61.522518085739762 0 0.83867057594974714 0.54463902268945019 1 0 0 forward_v I I I I #
loop $-1 $-1 $290 $67 #
coedge $-1 $171 $171 $172 $291 reversed $105 $-1 #
coedge $-1 $172 $172 $171 $291 forward $107 $-1 #
coedge $-1 $173 $173 $108 $174 forward $168 $-1 #
edge $-1 $292 -7.9925550525539955e-016 $292 6.2831853071795996 $173 $293 forward 7 unknown #
face $-1 $294 $295 $38 $-1 $296 forward single #
loop $-1 $-1 $297 $109 #
plane-surface $-1 31.887662713577331 96.88844307141548 126.508872202696 1 0 0 0 -0.83867057594974714 -0.54463902268945019 forward_v I I I I #
coedge $-1 $298 $299 $300 $301 reversed $110 $-1 #
coedge $-1 $180 $112 $302 $303 reversed $71 $-1 #
coedge $-1 $112 $179 $298 $304 reversed $71 $-1 #
coedge $-1 $300 $305 $112 $182 forward $306 $-1 #
edge $-1 $307 47.375462270714287 $308 61.510486185685252 $181 $309 forward 7 unknown #
loop $-1 $-1 $188 $113 #
plane-surface $-1 39.767930462886802 -3.1817699790707934 61.522518085739762 0 0.83867057594974714 0.54463902268945019 1 0 0 forward_v I I I I #
loop $-1 $-1 $310 $73 #
coedge $-1 $186 $186 $187 $311 reversed $114 $-1 #
coedge $-1 $187 $187 $186 $311 forward $116 $-1 #
coedge $-1 $188 $188 $117 $189 forward $183 $-1 #
edge $-1 $312 -7.9925550525539955e-016 $312 6.2831853071795996 $188 $313 forward 7 unknown #
face $-1 $314 $315 $40 $-1 $316 forward single #
loop $-1 $-1 $317 $118 #
plane-surface $-1 -3.5527136788005009e-015 -135.70909790249215 66.730304032619003 -1 0 0 0 -0.83867057594974714 0.54463902268945019 forward_v I I I I #
coedge $-1 $318 $319 $320 $321 reversed $119 $-1 #
coedge $-1 $195 $121 $322 $323 reversed $77 $-1 #
coedge $-1 $121 $194 $318 $324 reversed $77 $-1 #
coedge $-1 $320 $325 $121 $197 forward $326 $-1 #
edge $-1 $327 17.48617818567579 $328 31.621202100646766 $196 $329 forward 7 unknown #
loop $-1 $-1 $203 $122 #
plane-surface $-1 -7.8802677493094748 -35.638884852005873 1.7439499156627676 0 -0.83867057594974714 0.54463902268945019 1 0 0 forward_v I I I I #
loop $-1 $-1 $330 $79 #
coedge $-1 $201 $201 $202 $331 reversed $123 $-1 #
coedge $-1 $202 $202 $201 $331 forward $125 $-1 #
coedge $-1 $203 $203 $126 $204 forward $198 $-1 #
edge $-1 $332 7.9925550525539955e-016 $332 6.2831853071796013 $203 $333 forward 7 unknown #
face $-1 $334 $335 $42 $-1 $336 reversed single #
loop $-1 $-1 $337 $127 #
plane-surface $-1 47.648198212196277 -135.70909790249215 66.730304032619003 -1 0 0 0 -0.83867057594974714 0.54463902268945019 forward_v I I I I #
coedge $-1 $338 $339 $340 $341 reversed $128 $-1 #
coedge $-1 $210 $130 $342 $343 reversed $83 $-1 #
coedge $-1 $130 $209 $338 $344 reversed $83 $-1 #
coedge $-1 $340 $345 $130 $212 forward $335 $-1 #
edge $-1 $346 17.48617818567579 $347 31.621202100646766 $211 $348 forward 7 unknown #
loop $-1 $-1 $218 $131 #
plane-surface $-1 39.767930462886802 -35.638884852005873 1.7439499156627676 0 -0.83867057594974714 0.54463902268945019 1 0 0 forward_v I I I I #
loop $-1 $-1 $349 $85 #
coedge $-1 $216 $216 $217 $350 reversed $132 $-1 #
coedge $-1 $217 $217 $216 $350 forward $134 $-1 #
coedge $-1 $218 $218 $135 $219 forward $213 $-1 #
edge $-1 $351 7.9925550525539955e-016 $351 6.2831853071796013 $218 $352 forward 7 unknown #
face $-1 $353 $354 $33 $-1 $355 reversed single #
loop $-1 $-1 $356 $136 #
plane-surface $-1 -59.660023804437394 0 0 1 0 0 0 0 -1 forward_v I I I I #
coedge $-1 $357 $231 $358 $359 forward $137 $-1 #
coedge $-1 $360 $139 $357 $361 forward $89 $-1 #
coedge $-1 $139 $360 $362 $363 forward $89 $-1 #
coedge $-1 $234 $233 $139 $227 reversed $235 $-1 #
edge $-1 $364 -35.638884852005894 $365 35.638884852005894 $226 $366 forward 7 unknown #
coedge $-1 $141 $140 $367 $368 forward $56 $-1 #
coedge $-1 $369 $370 $140 $230 reversed $354 $-1 #
edge $-1 $237 -59.660023804437394 $371 59.660023804437394 $229 $372 forward 7 unknown #
coedge $-1 $223 $373 $141 $232 reversed $137 $-1 #
edge $-1 $374 -59.660023804437394 $236 59.660023804437394 $231 $375 forward 7 unknown #
coedge $-1 $226 $142 $373 $376 forward $235 $-1 #
coedge $-1 $142 $226 $369 $377 reversed $235 $-1 #
loop $-1 $-1 $233 $353 #
vertex $-1 $143 $378 #
vertex $-1 $143 $379 #
straight-curve $-1 59.660023804437394 0 15.878973830633713 0 1 0 I I #
face $-1 $380 $381 $34 $-1 $382 reversed single #
loop $-1 $-1 $383 $144 #
plane-surface $-1 0 -35.638884852005894 0 0 1 0 0 0 1 forward_v I I I I #
coedge $-1 $245 $150 $384 $385 reversed $145 $-1 #
coedge $-1 $386 $147 $383 $387 reversed $93 $-1 #
coedge $-1 $147 $386 $388 $389 reversed $93 $-1 #
coedge $-1 $252 $242 $147 $246 reversed $145 $-1 #
edge $-1 $390 -35.638884852005894 $391 35.638884852005894 $245 $392 forward 7 unknown #
coedge $-1 $149 $148 $393 $394 reversed $59 $-1 #
coedge $-1 $395 $396 $148 $249 forward $397 $-1 #
edge $-1 $398 -32.832968300278971 $254 -20.821142708037861 $248 $399 forward 7 unknown #
coedge $-1 $400 $384 $149 $251 forward $240 $-1 #
edge $-1 $253 20.821142708037861 $401 32.832968300278971 $250 $402 forward 7 unknown #
coedge $-1 $150 $245 $395 $403 reversed $145 $-1 #
vertex $-1 $251 $404 #
vertex $-1 $249 $405 #
straight-curve $-1 -47.648198212196277 0 -10.992835577480671 0 1 0 I I #
face $-1 $406 $407 $35 $-1 $408 reversed single #
loop $-1 $-1 $267 $152 #
plane-surface $-1 0 -35.638884852005894 0 0 1 0 0 0 1 forward_v I I I I #
coedge $-1 $409 $410 $411 $412 reversed $153 $-1 #
coedge $-1 $413 $155 $414 $415 reversed $97 $-1 #
coedge $-1 $155 $413 $416 $417 reversed $97 $-1 #
coedge $-1 $270 $269 $155 $263 forward $271 $-1 #
edge $-1 $418 -35.638884852005894 $419 35.638884852005894 $262 $420 forward 7 unknown #
coedge $-1 $157 $156 $410 $421 forward $62 $-1 #
coedge $-1 $422 $411 $156 $266 forward $407 $-1 #
edge $-1 $423 20.821142708037851 $272 32.832968300278978 $265 $424 forward 7 unknown #
coedge $-1 $425 $426 $157 $268 forward $257 $-1 #
edge $-1 $273 -32.832968300278978 $427 -20.821142708037851 $267 $428 forward 7 unknown #
coedge $-1 $262 $158 $426 $429 forward $271 $-1 #
coedge $-1 $158 $262 $422 $430 reversed $271 $-1 #
loop $-1 $-1 $158 $406 #
vertex $-1 $430 $431 #
vertex $-1 $429 $432 #
straight-curve $-1 59.660023804437394 0 -10.992835577480671 0 -1 0 I I #
face $-1 $-1 $433 $36 $-1 $434 forward single #
loop $-1 $-1 $166 $160 #
plane-surface $-1 0 35.638884852005894 0 0 -1 0 0 0 -1 forward_v I I I I #
coedge $-1 $435 $436 $437 $438 reversed $161 $-1 #
coedge $-1 $439 $163 $165 $285 forward $101 $-1 #
coedge $-1 $163 $439 $435 $440 forward $101 $-1 #
coedge $-1 $437 $166 $163 $282 forward $276 $-1 #
edge $-1 $288 -3.9401338746547339 $441 11.820401623964209 $281 $442 forward 7 unknown #
coedge $-1 $443 $444 $164 $284 forward $433 $-1 #
edge $-1 $445 -21.984728248767414 $287 -12.805336683701846 $283 $446 forward 7 unknown #
edge $-1 $288 -71.277769704011803 $445 -54.423686205298566 $165 $447 forward 7 unknown #
coedge $-1 $166 $437 $443 $448 reversed $276 $-1 #
vertex $-1 $448 $449 #
vertex $-1 $167 $450 #
straight-curve $-1 -3.5527136788005009e-015 35.638884852005894 63.254436101347999 0 0 -1 I I #
coedge $-1 $290 $290 $-1 $451 reversed $170 $-1 #
edge $-1 $452 0 $452 6.2831853071796004 $171 $453 forward 7 unknown #
vertex $-1 $174 $454 #
ellipse-curve $-1 -7.8802677493094748 31.049189069473105 8.8114618731482288 0 0.83867057594974714 0.54463902268945019 1.5 0 0 1 I I #
face $-1 $-1 $306 $38 $-1 $455 reversed single #
loop $-1 $-1 $456 $175 #
plane-surface $-1 0 0 15.878973830633713 0 0 1 1 0 0 forward_v I I I I #
coedge $-1 $457 $458 $459 $460 reversed $176 $-1 #
coedge $-1 $461 $178 $180 $304 forward $110 $-1 #
coedge $-1 $178 $461 $457 $462 forward $110 $-1 #
coedge $-1 $459 $181 $178 $301 forward $306 $-1 #
edge $-1 $308 -27.764232980752876 $463 -12.00369748213393 $300 $464 forward 7 unknown #
coedge $-1 $465 $466 $179 $303 forward $295 $-1 #
edge $-1 $467 -21.984728248767414 $307 -12.805336683701846 $302 $468 forward 7 unknown #
edge $-1 $308 -71.277769704011803 $467 -54.423686205298566 $180 $469 forward 7 unknown #
coedge $-1 $181 $459 $465 $470 reversed $306 $-1 #
loop $-1 $-1 $459 $294 #
vertex $-1 $470 $471 #
vertex $-1 $182 $472 #
straight-curve $-1 47.648198212196277 35.638884852005894 63.254436101347999 0 0 -1 I I #
coedge $-1 $310 $310 $-1 $473 reversed $185 $-1 #
edge $-1 $474 0 $474 6.2831853071796004 $186 $475 forward 7 unknown #
vertex $-1 $189 $476 #
ellipse-curve $-1 39.767930462886802 31.049189069473105 8.8114618731482288 0 0.83867057594974714 0.54463902268945019 1.5 0 0 1 I I #
face $-1 $-1 $326 $40 $-1 $477 reversed single #
loop $-1 $-1 $478 $190 #
plane-surface $-1 0 0 15.878973830633713 0 0 1 1 0 0 forward_v I I I I #
coedge $-1 $479 $480 $481 $482 reversed $191 $-1 #
coedge $-1 $483 $193 $195 $324 forward $119 $-1 #
coedge $-1 $193 $483 $479 $484 forward $119 $-1 #
coedge $-1 $481 $196 $193 $321 forward $326 $-1 #
edge $-1 $328 -11.820401623964209 $485 3.9401338746547339 $320 $486 forward 7 unknown #
coedge $-1 $487 $488 $194 $323 forward $315 $-1 #
edge $-1 $489 -41.395055664305758 $327 -32.215664099240179 $322 $490 forward 7 unknown #
edge $-1 $328 -3.9170575986957569e-014 $489 16.854083498713223 $195 $491 forward 7 unknown #
coedge $-1 $196 $481 $487 $492 reversed $326 $-1 #
loop $-1 $-1 $481 $314 #
vertex $-1 $492 $493 #
vertex $-1 $197 $494 #
straight-curve $-1 -15.760535498618946 -35.638884852005894 33.365152016309501 0 0 -1 I I #
coedge $-1 $330 $330 $-1 $495 reversed $200 $-1 #
edge $-1 $496 0 $496 6.2831853071796004 $201 $497 forward 7 unknown #
vertex $-1 $204 $498 #
ellipse-curve $-1 -7.8802677493094748 -31.049189069473101 8.8114618731482288 0 -0.83867057594974714 0.54463902268945019 1.5 0 0 1 I I #
face $-1 $-1 $499 $42 $-1 $500 forward single #
loop $-1 $-1 $211 $205 #
plane-surface $-1 0 -35.638884852005894 0 0 1 0 0 0 1 forward_v I I I I #
coedge $-1 $501 $502 $503 $504 reversed $206 $-1 #
coedge $-1 $505 $208 $210 $344 forward $128 $-1 #
coedge $-1 $208 $505 $501 $506 forward $128 $-1 #
coedge $-1 $503 $211 $208 $341 forward $335 $-1 #
edge $-1 $347 12.00369748213393 $507 27.764232980752876 $340 $508 forward 7 unknown #
coedge $-1 $509 $510 $209 $343 forward $499 $-1 #
edge $-1 $511 -41.395055664305758 $346 -32.215664099240179 $342 $512 forward 7 unknown #
edge $-1 $347 -3.9170575986957569e-014 $511 16.854083498713223 $210 $513 forward 7 unknown #
coedge $-1 $211 $503 $509 $514 reversed $335 $-1 #
vertex $-1 $514 $515 #
vertex $-1 $212 $516 #
straight-curve $-1 31.887662713577331 -35.638884852005894 33.365152016309501 0 0 -1 I I #
coedge $-1 $349 $349 $-1 $517 reversed $215 $-1 #
edge $-1 $518 0 $518 6.2831853071796004 $216 $519 forward 7 unknown #
vertex $-1 $219 $520 #
ellipse-curve $-1 39.767930462886802 -31.049189069473101 8.8114618731482288 0 -0.83867057594974714 0.54463902268945019 1.5 0 0 1 I I #
face $-1 $-1 $235 $33 $-1 $521 reversed single #
loop $-1 $-1 $369 $220 #
plane-surface $-1 0 35.638884852005894 0 0 -1 0 0 0 -1 forward_v I I I I #
coedge $-1 $522 $367 $370 $523 forward $221 $-1 #
coedge $-1 $373 $223 $224 $361 reversed $137 $-1 #
coedge $-1 $367 $522 $223 $359 reversed $221 $-1 #
edge $-1 $374 -15.878973830633713 $524 15.878973830633713 $358 $525 forward 7 unknown #
coedge $-1 $225 $224 $522 $526 forward $89 $-1 #
edge $-1 $365 -59.660023804437394 $524 59.660023804437394 $357 $527 forward 7 unknown #
coedge $-1 $370 $369 $225 $363 reversed $354 $-1 #
edge $-1 $528 -59.660023804437394 $364 59.660023804437394 $362 $529 forward 7 unknown #
vertex $-1 $227 $530 #
vertex $-1 $376 $531 #
straight-curve $-1 59.660023804437394 0 -15.878973830633713 0 -1 0 I I #
coedge $-1 $356 $358 $228 $368 reversed $221 $-1 #
edge $-1 $371 -35.638884852005894 $374 35.638884852005894 $367 $532 forward 7 unknown #
coedge $-1 $362 $229 $234 $377 forward $354 $-1 #
coedge $-1 $229 $362 $356 $523 reversed $354 $-1 #
vertex $-1 $230 $533 #
straight-curve $-1 0 35.638884852005894 15.878973830633713 -1 0 0 I I #
coedge $-1 $231 $357 $233 $376 reversed $137 $-1 #
vertex $-1 $368 $534 #
straight-curve $-1 0 -35.638884852005894 15.878973830633713 1 0 0 I I #
edge $-1 $236 -15.878973830633713 $365 15.878973830633713 $233 $535 forward 7 unknown #
edge $-1 $237 -15.878973830633713 $364 15.878973830633713 $234 $536 forward 7 unknown #
point $-1 59.660023804437394 -35.638884852005894 15.878973830633713 #
point $-1 59.660023804437394 35.638884852005894 15.878973830633713 #
face $-1 $-1 $397 $34 $-1 $537 reversed single #
loop $-1 $-1 $538 $239 #
plane-surface $-1 -59.660023804437394 0 0 1 0 0 0 0 -1 forward_v I I I I #
coedge $-1 $384 $400 $243 $387 forward $240 $-1 #
coedge $-1 $250 $383 $242 $385 forward $240 $-1 #
edge $-1 $391 -8.7860214786051181 $253 -4.3998832254520748 $384 $539 forward 7 unknown #
coedge $-1 $244 $243 $538 $540 reversed $93 $-1 #
edge $-1 $541 -32.832968300278971 $391 -20.821142708037861 $383 $542 forward 7 unknown #
coedge $-1 $396 $395 $244 $389 forward $397 $-1 #
edge $-1 $390 20.821142708037861 $543 32.832968300278971 $388 $544 forward 7 unknown #
vertex $-1 $389 $545 #
vertex $-1 $387 $546 #
straight-curve $-1 -47.648198212196277 0 -15.378973830633713 0 -1 0 I I #
coedge $-1 $547 $548 $247 $394 forward $381 $-1 #
edge $-1 $401 -35.638884852005894 $398 35.638884852005894 $393 $549 forward 7 unknown #
coedge $-1 $388 $248 $252 $403 forward $397 $-1 #
coedge $-1 $248 $388 $547 $550 reversed $397 $-1 #
loop $-1 $-1 $388 $380 #
vertex $-1 $550 $551 #
straight-curve $-1 -26.827055504158416 35.638884852005894 -10.992835577480671 1 0 0 I I #
coedge $-1 $383 $250 $548 $552 forward $240 $-1 #
vertex $-1 $552 $553 #
straight-curve $-1 -26.827055504158416 -35.638884852005894 -10.992835577480671 -1 0 0 I I #
edge $-1 $254 4.3998832254520748 $390 8.7860214786051181 $395 $554 forward 7 unknown #
point $-1 -47.648198212196277 -35.638884852005894 -10.992835577480671 #
point $-1 -47.648198212196277 35.638884852005894 -10.992835577480671 #
face $-1 $-1 $271 $35 $-1 $555 reversed single #
loop $-1 $-1 $265 $256 #
plane-surface $-1 0 35.638884852005894 0 0 -1 0 0 0 -1 forward_v I I I I #
coedge $-1 $556 $259 $413 $557 reversed $153 $-1 #
coedge $-1 $259 $556 $264 $421 reversed $153 $-1 #
coedge $-1 $265 $416 $259 $412 forward $407 $-1 #
edge $-1 $558 -8.7860214786051181 $423 -4.3998832254520748 $411 $559 forward 7 unknown #
coedge $-1 $261 $260 $409 $557 forward $97 $-1 #
coedge $-1 $426 $425 $260 $415 forward $257 $-1 #
edge $-1 $560 20.821142708037851 $418 32.832968300278978 $414 $561 forward 7 unknown #
coedge $-1 $411 $422 $261 $417 forward $407 $-1 #
edge $-1 $419 -32.832968300278978 $558 -20.821142708037851 $416 $562 forward 7 unknown #
vertex $-1 $263 $563 #
vertex $-1 $263 $564 #
straight-curve $-1 59.660023804437394 0 -15.378973830633713 0 1 0 I I #
edge $-1 $423 -35.638884852005894 $427 35.638884852005894 $410 $565 forward 7 unknown #
coedge $-1 $416 $265 $270 $430 forward $407 $-1 #
vertex $-1 $266 $566 #
straight-curve $-1 26.827055504158412 35.638884852005894 -10.992835577480671 1 0 0 I I #
coedge $-1 $414 $267 $556 $567 forward $257 $-1 #
coedge $-1 $267 $414 $269 $429 reversed $257 $-1 #
vertex $-1 $268 $568 #
straight-curve $-1 26.827055504158412 -35.638884852005894 -10.992835577480671 -1 0 0 I I #
edge $-1 $273 10.992835577480671 $418 15.378973830633713 $269 $569 forward 7 unknown #
edge $-1 $272 10.992835577480671 $419 15.378973830633713 $270 $570 forward 7 unknown #
point $-1 59.660023804437387 35.638884852005894 -10.992835577480671 #
point $-1 59.660023804437387 -35.638884852005894 -10.992835577480671 #
loop $-1 $-1 $283 $275 #
plane-surface $-1 0 0 15.878973830633713 0 0 1 1 0 0 forward_v I I I I #
coedge $-1 $436 $278 $280 $440 reversed $161 $-1 #
coedge $-1 $278 $435 $571 $572 reversed $161 $-1 #
coedge $-1 $286 $281 $278 $438 forward $276 $-1 #
edge $-1 $441 -61.510486185685252 $573 -47.375462270714287 $437 $574 forward 7 unknown #
coedge $-1 $280 $279 $444 $575 reversed $101 $-1 #
edge $-1 $576 54.423686205298566 $441 71.277769704011803 $435 $577 forward 7 unknown #
vertex $-1 $282 $578 #
straight-curve $-1 -3.9401338746547374 35.638884852005887 1.7439499156627569 -1 0 0 I I #
coedge $-1 $571 $283 $286 $448 forward $433 $-1 #
coedge $-1 $283 $571 $439 $575 forward $433 $-1 #
vertex $-1 $284 $579 #
straight-curve $-1 -3.5527136788005009e-015 48.44422153570774 15.878973830633711 0 1 0 I I #
straight-curve $-1 -3.5527136788005009e-015 -3.1817699790707934 61.522518085739762 0 -0.54463902268945019 0.83867057594974714 I I #
edge $-1 $287 3.5527136788005009e-015 $573 15.760535498618946 $286 $580 forward 7 unknown #
point $-1 -3.5527136788005009e-015 35.638884852005894 15.878973830633713 #
point $-1 -3.5527136788005009e-015 35.638884852005894 1.7439499156627463 #
edge $-1 $581 1 $581 0 $290 $-1 forward 7 unknown #
vertex $-1 $291 $582 #
ellipse-curve $-1 -7.8802677493094748 29.324829946809757 7.6916500015209621 0 0.83867057594974714 0.54463902268945019 1.5 0 0 1 I I #
point $-1 -6.3802677493094748 31.049189069473119 8.8114618731482395 #
plane-surface $-1 0 35.638884852005894 0 0 -1 0 0 0 -1 forward_v I I I I #
coedge $-1 $466 $465 $458 $583 forward $295 $-1 #
coedge $-1 $458 $297 $299 $462 reversed $176 $-1 #
coedge $-1 $297 $457 $456 $583 reversed $176 $-1 #
coedge $-1 $305 $300 $297 $460 forward $306 $-1 #
edge $-1 $463 -61.510486185685252 $584 -47.375462270714287 $459 $585 forward 7 unknown #
coedge $-1 $299 $298 $466 $586 reversed $110 $-1 #
edge $-1 $587 54.423686205298566 $463 71.277769704011803 $457 $588 forward 7 unknown #
vertex $-1 $301 $589 #
straight-curve $-1 19.883965231443401 35.638884852005887 1.7439499156627569 -1 0 0 I I #
coedge $-1 $456 $302 $305 $470 forward $295 $-1 #
coedge $-1 $302 $456 $461 $586 forward $295 $-1 #
vertex $-1 $303 $590 #
straight-curve $-1 47.648198212196277 48.44422153570774 15.878973830633711 0 1 0 I I #
straight-curve $-1 47.648198212196277 -3.1817699790707934 61.522518085739762 0 -0.54463902268945019 0.83867057594974714 I I #
edge $-1 $307 -47.648198212196277 $584 -31.887662713577331 $305 $591 forward 7 unknown #
point $-1 47.648198212196277 35.638884852005894 15.878973830633713 #
point $-1 47.648198212196277 35.638884852005894 1.7439499156627463 #
edge $-1 $592 1 $592 0 $310 $-1 forward 7 unknown #
vertex $-1 $311 $593 #
ellipse-curve $-1 39.767930462886802 29.324829946809757 7.6916500015209621 0 0.83867057594974714 0.54463902268945019 1.5 0 0 1 I I #
point $-1 41.267930462886802 31.049189069473119 8.8114618731482395 #
plane-surface $-1 0 -35.638884852005894 0 0 1 0 0 0 1 forward_v I I I I #
coedge $-1 $488 $487 $480 $594 forward $315 $-1 #
coedge $-1 $480 $317 $319 $484 reversed $191 $-1 #
coedge $-1 $317 $479 $478 $594 reversed $191 $-1 #
coedge $-1 $325 $320 $317 $482 forward $326 $-1 #
edge $-1 $485 -31.621202100646766 $595 -17.48617818567579 $481 $596 forward 7 unknown #
coedge $-1 $319 $318 $488 $597 reversed $119 $-1 #
edge $-1 $598 -16.854083498713223 $485 3.9170575986957569e-014 $479 $599 forward 7 unknown #
vertex $-1 $321 $600 #
straight-curve $-1 -3.9401338746547374 -35.638884852005894 1.7439499156627432 1 0 0 I I #
coedge $-1 $478 $322 $325 $492 forward $315 $-1 #
coedge $-1 $322 $478 $483 $597 forward $315 $-1 #
vertex $-1 $323 $601 #
straight-curve $-1 -15.760535498618946 -67.854548951246073 15.878973830633711 0 -1 0 I I #
straight-curve $-1 -15.760535498618946 -35.638884852005873 1.7439499156627676 0 0.54463902268945019 0.83867057594974714 I I #
edge $-1 $327 -15.760535498618946 $595 -3.5527136788005009e-015 $325 $602 forward 7 unknown #
point $-1 -15.760535498618946 -35.638884852005894 15.878973830633713 #
point $-1 -15.760535498618946 -35.638884852005894 1.7439499156627347 #
edge $-1 $603 1 $603 0 $330 $-1 forward 7 unknown #
vertex $-1 $331 $604 #
ellipse-curve $-1 -7.8802677493094748 -29.324829946809754 7.6916500015209621 0 -0.83867057594974714 0.54463902268945019 1.5 0 0 1 I I #
point $-1 -6.3802677493094748 -31.049189069473115 8.8114618731482395 #
loop $-1 $-1 $342 $334 #
plane-surface $-1 0 0 15.878973830633713 0 0 1 1 0 0 forward_v I I I I #
coedge $-1 $502 $337 $339 $506 reversed $206 $-1 #
coedge $-1 $337 $501 $605 $606 reversed $206 $-1 #
coedge $-1 $345 $340 $337 $504 forward $335 $-1 #
edge $-1 $507 -31.621202100646766 $607 -17.48617818567579 $503 $608 forward 7 unknown #
coedge $-1 $339 $338 $510 $609 reversed $128 $-1 #
edge $-1 $610 -16.854083498713223 $507 3.9170575986957569e-014 $501 $611 forward 7 unknown #
vertex $-1 $341 $612 #
straight-curve $-1 19.883965231443401 -35.638884852005894 1.7439499156627432 1 0 0 I I #
coedge $-1 $605 $342 $345 $514 forward $499 $-1 #
coedge $-1 $342 $605 $505 $609 forward $499 $-1 #
vertex $-1 $343 $613 #
straight-curve $-1 31.887662713577331 -67.854548951246073 15.878973830633711 0 -1 0 I I #
straight-curve $-1 31.887662713577331 -35.638884852005873 1.7439499156627676 0 0.54463902268945019 0.83867057594974714 I I #
edge $-1 $346 31.887662713577331 $607 47.648198212196277 $345 $614 forward 7 unknown #
point $-1 31.887662713577331 -35.638884852005894 15.878973830633713 #
point $-1 31.887662713577331 -35.638884852005894 1.7439499156627347 #
edge $-1 $615 1 $615 0 $349 $-1 forward 7 unknown #
vertex $-1 $350 $616 #
ellipse-curve $-1 39.767930462886802 -29.324829946809754 7.6916500015209621 0 -0.83867057594974714 0.54463902268945019 1.5 0 0 1 I I #
point $-1 41.267930462886802 -31.049189069473115 8.8114618731482395 #
plane-surface $-1 59.660023804437394 0 0 -1 0 0 0 0 1 forward_v I I I I #
coedge $-1 $358 $356 $360 $526 reversed $221 $-1 #
edge $-1 $371 -15.878973830633713 $528 15.878973830633713 $370 $617 forward 7 unknown #
vertex $-1 $526 $618 #
straight-curve $-1 -59.660023804437394 -35.638884852005894 0 0 0 -1 I I #
edge $-1 $524 -35.638884852005894 $528 35.638884852005894 $522 $619 forward 7 unknown #
straight-curve $-1 0 -35.638884852005894 -15.878973830633713 -1 0 0 I I #
vertex $-1 $363 $620 #
straight-curve $-1 0 35.638884852005894 -15.878973830633713 1 0 0 I I #
point $-1 59.660023804437394 35.638884852005894 -15.878973830633713 #
point $-1 59.660023804437394 -35.638884852005894 -15.878973830633713 #
straight-curve $-1 -59.660023804437394 0 15.878973830633713 0 -1 0 I I #
point $-1 -59.660023804437394 35.638884852005894 15.878973830633713 #
point $-1 -59.660023804437394 -35.638884852005894 15.878973830633713 #
straight-curve $-1 59.660023804437394 -35.638884852005894 0 0 0 -1 I I #
straight-curve $-1 59.660023804437394 35.638884852005894 0 0 0 -1 I I #
plane-surface $-1 0 35.638884852005894 0 0 -1 0 0 0 -1 forward_v I I I I #
coedge $-1 $548 $547 $386 $540 forward $381 $-1 #
straight-curve $-1 -47.648198212196277 -35.638884852005894 -6.592952352028596 0 0 1 I I #
edge $-1 $543 -35.638884852005894 $541 35.638884852005894 $538 $621 forward 7 unknown #
vertex $-1 $387 $622 #
straight-curve $-1 -26.827055504158416 -35.638884852005894 -15.378973830633713 1 0 0 I I #
vertex $-1 $389 $623 #
straight-curve $-1 -26.827055504158416 35.638884852005894 -15.378973830633713 -1 0 0 I I #
point $-1 -47.648198212196277 35.638884852005894 -15.378973830633713 #
point $-1 -47.648198212196277 -35.638884852005894 -15.378973830633713 #
coedge $-1 $538 $393 $396 $550 forward $381 $-1 #
coedge $-1 $393 $538 $400 $552 reversed $381 $-1 #
straight-curve $-1 -59.660023804437394 0 -10.992835577480671 0 1 0 I I #
edge $-1 $398 10.992835577480671 $543 15.378973830633713 $396 $624 forward 7 unknown #
point $-1 -59.660023804437387 35.638884852005894 -10.992835577480671 #
edge $-1 $401 10.992835577480671 $541 15.378973830633713 $548 $625 forward 7 unknown #
point $-1 -59.660023804437387 -35.638884852005894 -10.992835577480671 #
straight-curve $-1 -47.648198212196277 35.638884852005894 -6.592952352028596 0 0 -1 I I #
plane-surface $-1 59.660023804437394 0 0 -1 0 0 0 0 1 forward_v I I I I #
coedge $-1 $410 $409 $425 $567 reversed $153 $-1 #
edge $-1 $560 -35.638884852005894 $558 35.638884852005894 $409 $626 forward 7 unknown #
vertex $-1 $417 $627 #
straight-curve $-1 47.648198212196263 35.638884852005894 -6.592952352028596 0 0 1 I I #
vertex $-1 $415 $628 #
straight-curve $-1 26.827055504158412 -35.638884852005894 -15.378973830633713 1 0 0 I I #
straight-curve $-1 26.827055504158412 35.638884852005894 -15.378973830633713 -1 0 0 I I #
point $-1 59.660023804437387 -35.638884852005894 -15.378973830633713 #
point $-1 59.660023804437387 35.638884852005894 -15.378973830633713 #
straight-curve $-1 47.648198212196263 0 -10.992835577480671 0 -1 0 I I #
point $-1 47.648198212196263 35.638884852005894 -10.992835577480671 #
edge $-1 $427 4.3998832254520748 $560 8.7860214786051181 $425 $629 forward 7 unknown #
point $-1 47.648198212196263 -35.638884852005894 -10.992835577480671 #
straight-curve $-1 59.660023804437394 -35.638884852005894 0 0 0 -1 I I #
straight-curve $-1 59.660023804437394 35.638884852005894 0 0 0 -1 I I #
coedge $-1 $444 $443 $436 $572 forward $433 $-1 #
edge $-1 $573 12.805336683701846 $576 21.984728248767414 $571 $630 forward 7 unknown #
vertex $-1 $572 $631 #
straight-curve $-1 -15.760535498618946 35.638884852005894 63.254436101347999 0 0 1 I I #
edge $-1 $576 -11.820401623964209 $445 3.9401338746547339 $444 $632 forward 7 unknown #
vertex $-1 $575 $633 #
straight-curve $-1 -15.760535498618946 -3.1817699790707934 61.522518085739762 0 0.54463902268945019 -0.83867057594974714 I I #
point $-1 -15.760535498618946 35.638884852005894 1.7439499156627463 #
point $-1 -3.5527136788005009e-015 26.459493286940326 15.878973830633711 #
straight-curve $-1 0 35.638884852005894 15.878973830633713 -1 0 0 I I #
vertex $-1 $451 $634 #
point $-1 -6.3802677493094748 29.324829946809757 7.6916500015209621 #
edge $-1 $584 12.805336683701846 $587 21.984728248767414 $456 $635 forward 7 unknown #
vertex $-1 $583 $636 #
straight-curve $-1 31.887662713577331 35.638884852005894 63.254436101347999 0 0 1 I I #
edge $-1 $587 12.00369748213393 $467 27.764232980752876 $466 $637 forward 7 unknown #
vertex $-1 $586 $638 #
straight-curve $-1 31.887662713577331 -3.1817699790707934 61.522518085739762 0 0.54463902268945019 -0.83867057594974714 I I #
point $-1 31.887662713577331 35.638884852005894 1.7439499156627463 #
point $-1 47.648198212196277 26.459493286940326 15.878973830633711 #
straight-curve $-1 0 35.638884852005894 15.878973830633713 -1 0 0 I I #
vertex $-1 $473 $639 #
point $-1 41.267930462886802 29.324829946809757 7.6916500015209621 #
edge $-1 $595 32.215664099240179 $598 41.395055664305758 $478 $640 forward 7 unknown #
vertex $-1 $482 $641 #
straight-curve $-1 -3.5527136788005009e-015 -35.638884852005894 33.365152016309501 0 0 1 I I #
edge $-1 $598 -3.9401338746547339 $489 11.820401623964209 $488 $642 forward 7 unknown #
vertex $-1 $597 $643 #
straight-curve $-1 -3.5527136788005009e-015 -35.638884852005873 1.7439499156627676 0 -0.54463902268945019 -0.83867057594974714 I I #
point $-1 -3.5527136788005009e-015 -35.638884852005894 1.7439499156627347 #
point $-1 -15.760535498618946 -26.459493286940315 15.878973830633713 #
straight-curve $-1 0 -35.638884852005894 15.878973830633713 1 0 0 I I #
vertex $-1 $495 $644 #
point $-1 -6.3802677493094748 -29.324829946809754 7.6916500015209621 #
coedge $-1 $510 $509 $502 $606 forward $499 $-1 #
edge $-1 $607 32.215664099240179 $610 41.395055664305758 $605 $645 forward 7 unknown #
vertex $-1 $606 $646 #
straight-curve $-1 47.648198212196277 -35.638884852005894 33.365152016309501 0 0 1 I I #
edge $-1 $610 -27.764232980752876 $511 -12.00369748213393 $510 $647 forward 7 unknown #
vertex $-1 $609 $648 #
straight-curve $-1 47.648198212196277 -35.638884852005873 1.7439499156627676 0 -0.54463902268945019 -0.83867057594974714 I I #
point $-1 47.648198212196277 -35.638884852005894 1.7439499156627347 #
point $-1 31.887662713577331 -26.459493286940315 15.878973830633713 #
straight-curve $-1 0 -35.638884852005894 15.878973830633713 1 0 0 I I #
vertex $-1 $517 $649 #
point $-1 41.267930462886802 -29.324829946809754 7.6916500015209621 #
straight-curve $-1 -59.660023804437394 35.638884852005894 0 0 0 -1 I I #
point $-1 -59.660023804437394 -35.638884852005894 -15.878973830633713 #
straight-curve $-1 -59.660023804437394 0 -15.878973830633713 0 1 0 I I #
point $-1 -59.660023804437394 35.638884852005894 -15.878973830633713 #
straight-curve $-1 -59.660023804437394 0 -15.378973830633713 0 -1 0 I I #
point $-1 -59.660023804437387 -35.638884852005894 -15.378973830633713 #
point $-1 -59.660023804437387 35.638884852005894 -15.378973830633713 #
straight-curve $-1 -59.660023804437394 35.638884852005894 0 0 0 -1 I I #
straight-curve $-1 -59.660023804437394 -35.638884852005894 0 0 0 -1 I I #
straight-curve $-1 47.648198212196263 0 -15.378973830633713 0 1 0 I I #
point $-1 47.648198212196263 35.638884852005894 -15.378973830633713 #
point $-1 47.648198212196263 -35.638884852005894 -15.378973830633713 #
straight-curve $-1 47.648198212196263 -35.638884852005894 -6.592952352028596 0 0 -1 I I #
straight-curve $-1 -15.760535498618946 48.44422153570774 15.878973830633711 0 -1 0 I I #
point $-1 -15.760535498618946 35.638884852005894 15.878973830633713 #
straight-curve $-1 -3.9401338746547374 26.459493286940329 15.878973830633711 1 0 0 I I #
point $-1 -15.760535498618946 26.459493286940326 15.878973830633711 #
point $-1 -7.8802677493094748 28.066824082885134 6.8746914674867874 #
straight-curve $-1 31.887662713577331 48.44422153570774 15.878973830633711 0 -1 0 I I #
point $-1 31.887662713577331 35.638884852005894 15.878973830633713 #
straight-curve $-1 19.883965231443401 26.459493286940329 15.878973830633711 1 0 0 I I #
point $-1 31.887662713577331 26.459493286940326 15.878973830633711 #
point $-1 39.767930462886802 28.066824082885134 6.8746914674867874 #
straight-curve $-1 -3.5527136788005009e-015 -67.854548951246073 15.878973830633711 0 1 0 I I #
point $-1 -3.5527136788005009e-015 -35.638884852005894 15.878973830633713 #
straight-curve $-1 -3.9401338746547374 -26.459493286940312 15.878973830633713 -1 0 0 I I #
point $-1 -3.5527136788005009e-015 -26.459493286940315 15.878973830633713 #
point $-1 -7.8802677493094748 -28.06682408288513 6.8746914674867874 #
straight-curve $-1 47.648198212196277 -67.854548951246073 15.878973830633711 0 1 0 I I #
point $-1 47.648198212196277 -35.638884852005894 15.878973830633713 #
straight-curve $-1 19.883965231443401 -26.459493286940312 15.878973830633713 -1 0 0 I I #
point $-1 47.648198212196277 -26.459493286940315 15.878973830633713 #
point $-1 39.767930462886802 -28.06682408288513 6.8746914674867874 #
End-of-ACIS-data 