500 0 11 0           
7 Unknown 11 ACIS 5.0 NT 24 Thu Mar 25 19:59:54 1999 
-1 9.9999999999999995e-007 1e-010 
body $-1 $11 $-1 $12 #
body $-1 $13 $-1 $14 #
body $-1 $15 $-1 $16 #
body $-1 $17 $-1 $18 #
body $-1 $19 $-1 $20 #
body $-1 $21 $-1 $22 #
body $-1 $23 $-1 $24 #
body $-1 $25 $-1 $26 #
body $-1 $27 $-1 $28 #
body $-1 $29 $-1 $30 #
body $-1 $31 $-1 $32 #
lump $-1 $-1 $33 $0 #
transform $-1 1 0 0 0 1 0 0 0 1 77.49626148258919 45.031413247498847 13.018252152152542 1 rotate no_reflect no_shear #
lump $-1 $-1 $34 $1 #
transform $-1 1 0 0 0 1 0 0 0 1 77.49626148258919 45.031413247498847 13.018252152152542 1 rotate no_reflect no_shear #
lump $-1 $-1 $35 $2 #
transform $-1 1 0 0 0 1 0 0 0 1 77.49626148258919 45.031413247498847 13.018252152152542 1 rotate no_reflect no_shear #
lump $-1 $-1 $36 $3 #
transform $-1 1 0 0 0 1 0 0 0 1 77.49626148258919 45.031413247498847 13.018252152152542 1 rotate no_reflect no_shear #
lump $-1 $-1 $37 $4 #
transform $-1 1 0 0 0 1 0 0 0 1 77.49626148258919 45.031413247498847 13.018252152152542 1 rotate no_reflect no_shear #
lump $-1 $-1 $38 $5 #
transform $-1 1 0 0 0 1 0 0 0 1 77.49626148258919 45.031413247498847 13.018252152152542 1 rotate no_reflect no_shear #
lump $-1 $-1 $39 $6 #
transform $-1 1 0 0 0 1 0 0 0 1 77.49626148258919 45.031413247498847 13.018252152152542 1 rotate no_reflect no_shear #
lump $-1 $-1 $40 $7 #
transform $-1 1 0 0 0 1 0 0 0 1 77.49626148258919 45.031413247498847 13.018252152152542 1 rotate no_reflect no_shear #
lump $-1 $-1 $41 $8 #
transform $-1 1 0 0 0 1 0 0 0 1 77.49626148258919 45.031413247498847 13.018252152152542 1 rotate no_reflect no_shear #
lump $-1 $-1 $42 $9 #
transform $-1 1 0 0 0 1 0 0 0 1 77.49626148258919 45.031413247498847 13.018252152152542 1 rotate no_reflect no_shear #
lump $-1 $-1 $43 $10 #
transform $-1 1 0 0 0 1 0 0 0 1 77.49626148258919 45.031413247498847 13.018252152152542 1 rotate no_reflect no_shear #
shell $-1 $-1 $-1 $44 $-1 $11 #
shell $-1 $-1 $-1 $45 $-1 $13 #
shell $-1 $-1 $-1 $46 $-1 $15 #
shell $-1 $-1 $-1 $47 $-1 $17 #
shell $-1 $-1 $-1 $48 $-1 $19 #
shell $-1 $-1 $-1 $49 $-1 $21 #
shell $-1 $-1 $-1 $50 $-1 $23 #
shell $-1 $-1 $-1 $51 $-1 $25 #
shell $-1 $-1 $-1 $52 $-1 $27 #
shell $-1 $-1 $-1 $53 $-1 $29 #
shell $-1 $-1 $-1 $54 $-1 $31 #
face $-1 $55 $56 $33 $-1 $57 forward single #
face $-1 $58 $59 $34 $-1 $60 forward single #
face $-1 $61 $62 $35 $-1 $63 reversed single #
face $-1 $64 $65 $36 $-1 $66 forward single #
face $-1 $67 $68 $37 $-1 $69 forward single #
face $-1 $70 $71 $38 $-1 $72 reversed single #
face $-1 $73 $74 $39 $-1 $75 forward single #
face $-1 $76 $77 $40 $-1 $78 forward single #
face $-1 $79 $80 $41 $-1 $81 reversed single #
face $-1 $82 $83 $42 $-1 $84 forward single #
face $-1 $85 $86 $43 $-1 $87 forward single #
face $-1 $88 $89 $33 $-1 $90 reversed single #
loop $-1 $-1 $91 $44 #
plane-surface $-1 0 0 13.018252152152542 0 0 1 1 0 0 forward_v I I I I #
face $-1 $92 $93 $34 $-1 $94 reversed single #
loop $-1 $-1 $95 $45 #
plane-surface $-1 0 -45.031413247498847 0 0 1 0 0 0 1 forward_v I I I I #
face $-1 $96 $97 $35 $-1 $98 reversed single #
loop $-1 $-1 $99 $46 #
plane-surface $-1 -196.227423709422 -31.450174431028962 103.11334351458788 0 1 0 -0.7660444514056185 0 0.64278759981090561 forward_v I I I I #
face $-1 $100 $101 $36 $-1 $102 forward single #
loop $-1 $103 $104 $47 #
cone-surface $-1 -71.507307464770122 -27.331147654991863 6.5825806184577935 0.7660444514056185 0 -0.64278759981090561 0.96418139971635841 0 1.1490666771084277 1 I I 0 1 1.5 forward I I I I #
face $-1 $105 $106 $37 $-1 $107 forward single #
loop $-1 $108 $109 $48 #
cone-surface $-1 -71.507307464770122 -21.152607490936212 6.5825806184577935 0.7660444514056185 0 -0.64278759981090561 0.96418139971635841 0 1.1490666771084277 1 I I 0 1 1.5 forward I I I I #
face $-1 $110 $111 $38 $-1 $112 reversed single #
loop $-1 $-1 $113 $49 #
plane-surface $-1 66.024613296503176 4.1929039749752768 220.59572753694897 0 -1 0 -0.66913061440640931 0 -0.74314481823134659 forward_v I I I I #
face $-1 $114 $115 $39 $-1 $116 forward single #
loop $-1 $117 $118 $50 #
cone-surface $-1 69.895939135262083 -8.173596130228475 5.8979997272163551 -0.66913061440640931 0 -0.74314481823134659 1.1147172273470198 0 -1.003695921609614 1 I I 0 1 1.5 forward I I I I #
face $-1 $119 $120 $40 $-1 $121 forward single #
loop $-1 $122 $123 $51 #
cone-surface $-1 69.895939135262083 -0.75369606710621895 5.8979997272163551 -0.66913061440640931 0 -0.74314481823134659 1.1147172273470198 0 -1.003695921609614 1 I I 0 1 1.5 forward I I I I #
face $-1 $124 $125 $41 $-1 $126 reversed single #
loop $-1 $-1 $127 $52 #
plane-surface $-1 66.024613296503176 26.701434988779862 220.59572753694897 0 -1 0 -0.66913061440640931 0 -0.74314481823134659 forward_v I I I I #
face $-1 $128 $129 $42 $-1 $130 forward single #
loop $-1 $131 $132 $53 #
cone-surface $-1 69.895939135262083 14.334934883576111 5.8979997272163551 -0.66913061440640931 0 -0.74314481823134659 1.1147172273470198 0 -1.003695921609614 1 I I 0 1 1.5 forward I I I I #
face $-1 $133 $134 $43 $-1 $135 forward single #
loop $-1 $136 $137 $54 #
cone-surface $-1 69.895939135262083 21.754834946698367 5.8979997272163551 -0.66913061440640931 0 -0.74314481823134659 1.1147172273470198 0 -1.003695921609614 1 I I 0 1 1.5 forward I I I I #
face $-1 $138 $139 $33 $-1 $140 reversed single #
loop $-1 $-1 $141 $55 #
plane-surface $-1 0 0 -13.018252152152542 0 0 1 1 0 0 forward_v I I I I #
coedge $-1 $142 $143 $144 $145 forward $56 $-1 #
face $-1 $146 $147 $34 $-1 $148 reversed single #
loop $-1 $-1 $149 $58 #
plane-surface $-1 0 0 -13.018252152152542 0 0 1 1 0 0 forward_v I I I I #
coedge $-1 $150 $151 $152 $153 forward $59 $-1 #
face $-1 $154 $155 $35 $-1 $156 reversed single #
loop $-1 $-1 $157 $61 #
plane-surface $-1 -77.496261482589205 -24.241877572964036 3.4860716891642056 -0.7660444514056185 0 0.64278759981090561 0.64278759981090561 0 0.7660444514056185 forward_v I I I I #
coedge $-1 $158 $159 $160 $161 reversed $62 $-1 #
face $-1 $-1 $162 $36 $-1 $163 forward single #
loop $-1 $164 $165 $64 #
cone-surface $-1 -68.943044559096748 -27.331147654991863 4.4309086163990372 0.7660444514056185 0 -0.64278759981090561 0.48209069985817921 0 0.57453333855421385 1 I I -0.70710678118654757 0.70710678118654757 0.75 forward I I I I #
loop $-1 $-1 $166 $47 #
coedge $-1 $104 $104 $167 $168 reversed $65 $-1 #
face $-1 $-1 $169 $37 $-1 $170 forward single #
loop $-1 $171 $172 $67 #
cone-surface $-1 -68.943044559096748 -21.152607490936212 4.4309086163990372 0.7660444514056185 0 -0.64278759981090561 0.48209069985817921 0 0.57453333855421385 1 I I -0.70710678118654757 0.70710678118654757 0.75 forward I I I I #
loop $-1 $-1 $173 $48 #
coedge $-1 $109 $109 $174 $175 reversed $68 $-1 #
face $-1 $176 $177 $38 $-1 $178 reversed single #
loop $-1 $-1 $179 $70 #
plane-surface $-1 -37.685628823586143 -4.4636460986673541 105.41383723077367 0.66913061440640931 0 0.74314481823134659 0.74314481823134659 0 -0.66913061440640931 forward_v I I I I #
coedge $-1 $180 $181 $182 $183 reversed $71 $-1 #
face $-1 $-1 $184 $39 $-1 $185 forward single #
loop $-1 $186 $187 $73 #
cone-surface $-1 68.076868545928036 -8.173596130228475 3.8777172093407444 -0.66913061440640931 0 -0.74314481823134659 0.55735861367350992 0 -0.50184796080480698 1 I I -0.70710678118654757 0.70710678118654757 0.75 forward I I I I #
loop $-1 $-1 $188 $50 #
coedge $-1 $118 $118 $189 $190 reversed $74 $-1 #
face $-1 $-1 $191 $40 $-1 $192 forward single #
loop $-1 $193 $194 $76 #
cone-surface $-1 68.076868545928036 -0.75369606710621895 3.8777172093407444 -0.66913061440640931 0 -0.74314481823134659 0.55735861367350992 0 -0.50184796080480698 1 I I -0.70710678118654757 0.70710678118654757 0.75 forward I I I I #
loop $-1 $-1 $195 $51 #
coedge $-1 $123 $123 $196 $197 reversed $77 $-1 #
face $-1 $198 $199 $41 $-1 $200 reversed single #
loop $-1 $-1 $201 $79 #
plane-surface $-1 -37.685628823586143 18.044884915137231 105.41383723077367 0.66913061440640931 0 0.74314481823134659 0.74314481823134659 0 -0.66913061440640931 forward_v I I I I #
coedge $-1 $202 $203 $204 $205 reversed $80 $-1 #
face $-1 $-1 $206 $42 $-1 $207 forward single #
loop $-1 $208 $209 $82 #
cone-surface $-1 68.076868545928036 14.334934883576111 3.8777172093407444 -0.66913061440640931 0 -0.74314481823134659 0.55735861367350992 0 -0.50184796080480698 1 I I -0.70710678118654757 0.70710678118654757 0.75 forward I I I I #
loop $-1 $-1 $210 $53 #
coedge $-1 $132 $132 $211 $212 reversed $83 $-1 #
face $-1 $-1 $213 $43 $-1 $214 forward single #
loop $-1 $215 $216 $85 #
cone-surface $-1 68.076868545928036 21.754834946698367 3.8777172093407444 -0.66913061440640931 0 -0.74314481823134659 0.55735861367350992 0 -0.50184796080480698 1 I I -0.70710678118654757 0.70710678118654757 0.75 forward I I I I #
loop $-1 $-1 $217 $54 #
coedge $-1 $137 $137 $218 $219 reversed $86 $-1 #
face $-1 $220 $221 $33 $-1 $222 reversed single #
loop $-1 $-1 $223 $88 #
plane-surface $-1 0 -45.031413247498847 0 0 1 0 0 0 1 forward_v I I I I #
coedge $-1 $224 $225 $226 $227 forward $89 $-1 #
coedge $-1 $228 $91 $229 $230 forward $56 $-1 #
coedge $-1 $91 $228 $231 $232 forward $56 $-1 #
coedge $-1 $233 $234 $91 $145 reversed $235 $-1 #
edge $-1 $236 -45.031413247498847 $237 45.031413247498847 $144 $238 forward 7 unknown #
face $-1 $239 $240 $34 $-1 $241 reversed single #
loop $-1 $-1 $242 $92 #
plane-surface $-1 -72.523799449124525 -58.612652063968724 0 0 1 0 0 0 1 forward_v I I I I #
coedge $-1 $243 $244 $151 $245 forward $93 $-1 #
coedge $-1 $246 $95 $247 $248 reversed $59 $-1 #
coedge $-1 $95 $246 $149 $245 reversed $59 $-1 #
coedge $-1 $249 $250 $95 $153 reversed $240 $-1 #
edge $-1 $251 -13.018252152152542 $252 13.018252152152542 $152 $253 forward 7 unknown #
face $-1 $254 $255 $35 $-1 $256 reversed single #
loop $-1 $-1 $257 $96 #
plane-surface $-1 -196.227423709422 -17.033580714899109 103.11334351458788 0 -1 0 0.7660444514056185 0 -0.64278759981090561 forward_v I I I I #
coedge $-1 $258 $259 $260 $261 reversed $97 $-1 #
coedge $-1 $159 $99 $262 $263 reversed $62 $-1 #
coedge $-1 $99 $158 $258 $264 reversed $62 $-1 #
coedge $-1 $260 $265 $99 $161 forward $266 $-1 #
edge $-1 $267 20.617450372121809 $268 28.615899273521592 $160 $269 forward 7 unknown #
loop $-1 $-1 $167 $100 #
plane-surface $-1 -77.496261482589205 -24.241877572964036 3.4860716891642056 -0.7660444514056185 0 0.64278759981090561 0.64278759981090561 0 0.7660444514056185 forward_v I I I I #
loop $-1 $-1 $270 $64 #
coedge $-1 $165 $165 $166 $271 reversed $101 $-1 #
coedge $-1 $166 $166 $165 $271 forward $103 $-1 #
coedge $-1 $167 $167 $104 $168 forward $162 $-1 #
edge $-1 $272 0 $272 6.2831853071796004 $167 $273 forward 7 unknown #
loop $-1 $-1 $174 $105 #
plane-surface $-1 -77.496261482589205 -24.241877572964036 3.4860716891642056 -0.7660444514056185 0 0.64278759981090561 0.64278759981090561 0 0.7660444514056185 forward_v I I I I #
loop $-1 $-1 $274 $67 #
coedge $-1 $172 $172 $173 $275 reversed $106 $-1 #
coedge $-1 $173 $173 $172 $275 forward $108 $-1 #
coedge $-1 $174 $174 $109 $175 forward $169 $-1 #
edge $-1 $276 0 $276 6.2831853071796004 $174 $277 forward 7 unknown #
face $-1 $278 $279 $38 $-1 $280 forward single #
loop $-1 $-1 $281 $110 #
plane-surface $-1 66.024613296503176 -13.120196172309985 220.59572753694897 0 1 0 0.66913061440640931 0 0.74314481823134659 forward_v I I I I #
coedge $-1 $282 $283 $284 $285 reversed $111 $-1 #
coedge $-1 $181 $113 $286 $287 reversed $71 $-1 #
coedge $-1 $113 $180 $282 $288 reversed $71 $-1 #
coedge $-1 $284 $289 $113 $183 forward $279 $-1 #
edge $-1 $290 -44.483954834337602 $291 -31.917755396741846 $182 $292 forward 7 unknown #
loop $-1 $-1 $189 $114 #
plane-surface $-1 -37.685628823586143 -4.4636460986673541 105.41383723077367 0.66913061440640931 0 0.74314481823134659 0.74314481823134659 0 -0.66913061440640931 forward_v I I I I #
loop $-1 $-1 $293 $73 #
coedge $-1 $187 $187 $188 $294 reversed $115 $-1 #
coedge $-1 $188 $188 $187 $294 forward $117 $-1 #
coedge $-1 $189 $189 $118 $190 forward $184 $-1 #
edge $-1 $295 0 $295 6.2831853071796004 $189 $296 forward 7 unknown #
loop $-1 $-1 $196 $119 #
plane-surface $-1 -37.685628823586143 -4.4636460986673541 105.41383723077367 0.66913061440640931 0 0.74314481823134659 0.74314481823134659 0 -0.66913061440640931 forward_v I I I I #
loop $-1 $-1 $297 $76 #
coedge $-1 $194 $194 $195 $298 reversed $120 $-1 #
coedge $-1 $195 $195 $194 $298 forward $122 $-1 #
coedge $-1 $196 $196 $123 $197 forward $191 $-1 #
edge $-1 $299 0 $299 6.2831853071796004 $196 $300 forward 7 unknown #
face $-1 $301 $302 $41 $-1 $303 reversed single #
loop $-1 $-1 $304 $124 #
plane-surface $-1 66.024613296503176 9.3883348414946006 220.59572753694897 0 1 0 0.66913061440640931 0 0.74314481823134659 forward_v I I I I #
coedge $-1 $305 $306 $307 $308 reversed $125 $-1 #
coedge $-1 $203 $127 $309 $310 reversed $80 $-1 #
coedge $-1 $127 $202 $305 $311 reversed $80 $-1 #
coedge $-1 $307 $312 $127 $205 forward $313 $-1 #
edge $-1 $314 -44.483954834337602 $315 -31.917755396741846 $204 $316 forward 7 unknown #
loop $-1 $-1 $211 $128 #
plane-surface $-1 -37.685628823586143 18.044884915137231 105.41383723077367 0.66913061440640931 0 0.74314481823134659 0.74314481823134659 0 -0.66913061440640931 forward_v I I I I #
loop $-1 $-1 $317 $82 #
coedge $-1 $209 $209 $210 $318 reversed $129 $-1 #
coedge $-1 $210 $210 $209 $318 forward $131 $-1 #
coedge $-1 $211 $211 $132 $212 forward $206 $-1 #
edge $-1 $319 0 $319 6.2831853071796004 $211 $320 forward 7 unknown #
loop $-1 $-1 $218 $133 #
plane-surface $-1 -37.685628823586143 18.044884915137231 105.41383723077367 0.66913061440640931 0 0.74314481823134659 0.74314481823134659 0 -0.66913061440640931 forward_v I I I I #
loop $-1 $-1 $321 $85 #
coedge $-1 $216 $216 $217 $322 reversed $134 $-1 #
coedge $-1 $217 $217 $216 $322 forward $136 $-1 #
coedge $-1 $218 $218 $137 $219 forward $213 $-1 #
edge $-1 $323 0 $323 6.2831853071796004 $218 $324 forward 7 unknown #
face $-1 $325 $326 $33 $-1 $327 reversed single #
loop $-1 $-1 $328 $138 #
plane-surface $-1 -77.49626148258919 0 0 1 0 0 0 0 -1 forward_v I I I I #
coedge $-1 $329 $231 $330 $331 forward $139 $-1 #
coedge $-1 $332 $141 $329 $333 forward $89 $-1 #
coedge $-1 $141 $332 $334 $335 forward $89 $-1 #
coedge $-1 $234 $233 $141 $227 reversed $235 $-1 #
edge $-1 $336 -45.031413247498847 $337 45.031413247498847 $226 $338 forward 7 unknown #
coedge $-1 $143 $142 $339 $340 forward $56 $-1 #
coedge $-1 $341 $342 $142 $230 reversed $326 $-1 #
edge $-1 $237 -77.49626148258919 $343 77.49626148258919 $229 $344 forward 7 unknown #
coedge $-1 $223 $345 $143 $232 reversed $139 $-1 #
edge $-1 $346 -77.49626148258919 $236 77.49626148258919 $231 $347 forward 7 unknown #
coedge $-1 $226 $144 $345 $348 forward $235 $-1 #
coedge $-1 $144 $226 $341 $349 reversed $235 $-1 #
loop $-1 $-1 $233 $325 #
vertex $-1 $145 $350 #
vertex $-1 $145 $351 #
straight-curve $-1 77.49626148258919 0 13.018252152152542 0 1 0 I I #
face $-1 $352 $353 $34 $-1 $354 reversed single #
loop $-1 $-1 $152 $146 #
plane-surface $-1 -75.052400353155249 -51.822032655733786 0 1 0 0 0 0 -1 forward_v I I I I #
coedge $-1 $355 $356 $357 $358 forward $147 $-1 #
coedge $-1 $359 $149 $360 $361 forward $93 $-1 #
coedge $-1 $149 $359 $249 $362 forward $93 $-1 #
edge $-1 $251 -75.052400353155249 $363 -69.9951985450938 $149 $364 forward 7 unknown #
coedge $-1 $151 $150 $365 $366 forward $59 $-1 #
coedge $-1 $367 $368 $150 $248 forward $369 $-1 #
edge $-1 $370 69.9951985450938 $252 75.052400353155249 $247 $371 forward 7 unknown #
coedge $-1 $357 $152 $244 $362 reversed $240 $-1 #
coedge $-1 $152 $357 $367 $372 reversed $240 $-1 #
vertex $-1 $245 $373 #
vertex $-1 $372 $374 #
straight-curve $-1 -75.052400353155249 -45.031413247498847 0 0 0 1 I I #
face $-1 $-1 $266 $35 $-1 $375 forward single #
loop $-1 $-1 $376 $154 #
plane-surface $-1 -77.49626148258919 0 0 1 0 0 0 0 -1 forward_v I I I I #
coedge $-1 $377 $378 $379 $380 reversed $155 $-1 #
coedge $-1 $381 $157 $159 $264 forward $97 $-1 #
coedge $-1 $157 $381 $377 $382 forward $97 $-1 #
coedge $-1 $379 $160 $157 $261 forward $266 $-1 #
edge $-1 $268 -19.329235644546944 $383 -4.9126419284170915 $260 $384 forward 7 unknown #
coedge $-1 $385 $386 $158 $263 forward $255 $-1 #
edge $-1 $387 -48.070600068129721 $267 -38.538419605141399 $262 $388 forward 7 unknown #
edge $-1 $268 -12.44337772501021 $387 -2.2061860048766535e-014 $159 $389 forward 7 unknown #
coedge $-1 $160 $379 $385 $390 forward $266 $-1 #
loop $-1 $-1 $379 $254 #
vertex $-1 $263 $391 #
vertex $-1 $161 $392 #
straight-curve $-1 -98.113711854710999 -31.450174431028962 13.018252152152542 1 0 0 I I #
coedge $-1 $270 $270 $-1 $393 reversed $164 $-1 #
edge $-1 $394 0 $394 6.2831853071796004 $165 $395 forward 7 unknown #
vertex $-1 $168 $396 #
ellipse-curve $-1 -73.497037031889292 -27.331147654991863 8.2521619206583825 -0.7660444514056185 0 0.64278759981090561 0.96418139971635841 0 1.1490666771084277 1 I I #
coedge $-1 $274 $274 $-1 $397 reversed $171 $-1 #
edge $-1 $398 0 $398 6.2831853071796004 $172 $399 forward 7 unknown #
vertex $-1 $175 $400 #
ellipse-curve $-1 -73.497037031889292 -21.152607490936212 8.2521619206583825 -0.7660444514056185 0 0.64278759981090561 0.96418139971635841 0 1.1490666771084277 1 I I #
face $-1 $-1 $401 $38 $-1 $402 reversed single #
loop $-1 $-1 $182 $176 #
plane-surface $-1 0 0 13.018252152152542 0 0 1 1 0 0 forward_v I I I I #
coedge $-1 $403 $404 $405 $406 reversed $177 $-1 #
coedge $-1 $407 $179 $181 $288 forward $111 $-1 #
coedge $-1 $179 $407 $403 $408 forward $111 $-1 #
coedge $-1 $405 $182 $179 $285 forward $279 $-1 #
edge $-1 $291 -6.4247270243089538 $409 10.888373122976308 $284 $410 forward 7 unknown #
coedge $-1 $411 $412 $180 $287 forward $401 $-1 #
edge $-1 $413 -108.59426865779017 $290 -97.279611616321944 $286 $414 forward 7 unknown #
edge $-1 $291 138.08303355031205 $413 154.99252296517844 $181 $415 forward 7 unknown #
coedge $-1 $182 $405 $411 $416 forward $279 $-1 #
vertex $-1 $183 $417 #
vertex $-1 $183 $418 #
straight-curve $-1 33.012306648251588 4.1929039749752768 13.018252152152542 -1 0 0 I I #
coedge $-1 $293 $293 $-1 $419 reversed $186 $-1 #
edge $-1 $420 0 $420 6.2831853071796004 $187 $421 forward 7 unknown #
vertex $-1 $190 $422 #
ellipse-curve $-1 71.213161763791305 -8.173596130228475 7.3609236314184407 0.66913061440640931 0 0.74314481823134659 1.1147172273470198 0 -1.003695921609614 1 I I #
coedge $-1 $297 $297 $-1 $423 reversed $193 $-1 #
edge $-1 $424 0 $424 6.2831853071796004 $194 $425 forward 7 unknown #
vertex $-1 $197 $426 #
ellipse-curve $-1 71.213161763791305 -0.75369606710621895 7.3609236314184407 0.66913061440640931 0 0.74314481823134659 1.1147172273470198 0 -1.003695921609614 1 I I #
face $-1 $-1 $313 $41 $-1 $427 forward single #
loop $-1 $-1 $428 $198 #
plane-surface $-1 77.49626148258919 0 0 -1 0 0 0 0 1 forward_v I I I I #
coedge $-1 $429 $430 $431 $432 reversed $199 $-1 #
coedge $-1 $433 $201 $203 $311 forward $125 $-1 #
coedge $-1 $201 $433 $429 $434 forward $125 $-1 #
coedge $-1 $431 $204 $201 $308 forward $313 $-1 #
edge $-1 $315 -17.678992531211247 $435 -0.36589238392598489 $307 $436 forward 7 unknown #
coedge $-1 $437 $438 $202 $310 forward $302 $-1 #
edge $-1 $439 -108.59426865779017 $314 -97.279611616321944 $309 $440 forward 7 unknown #
edge $-1 $315 138.08303355031205 $439 154.99252296517844 $203 $441 forward 7 unknown #
coedge $-1 $204 $431 $437 $442 forward $313 $-1 #
loop $-1 $-1 $431 $301 #
vertex $-1 $310 $443 #
vertex $-1 $205 $444 #
straight-curve $-1 33.012306648251588 26.701434988779862 13.018252152152542 -1 0 0 I I #
coedge $-1 $317 $317 $-1 $445 reversed $208 $-1 #
edge $-1 $446 0 $446 6.2831853071796004 $209 $447 forward 7 unknown #
vertex $-1 $212 $448 #
ellipse-curve $-1 71.213161763791305 14.334934883576111 7.3609236314184407 0.66913061440640931 0 0.74314481823134659 1.1147172273470198 0 -1.003695921609614 1 I I #
coedge $-1 $321 $321 $-1 $449 reversed $215 $-1 #
edge $-1 $450 0 $450 6.2831853071796004 $216 $451 forward 7 unknown #
vertex $-1 $219 $452 #
ellipse-curve $-1 71.213161763791305 21.754834946698367 7.3609236314184407 0.66913061440640931 0 0.74314481823134659 1.1147172273470198 0 -1.003695921609614 1 I I #
face $-1 $-1 $235 $33 $-1 $453 reversed single #
loop $-1 $-1 $341 $220 #
plane-surface $-1 0 45.031413247498847 0 0 -1 0 0 0 -1 forward_v I I I I #
coedge $-1 $454 $339 $342 $455 forward $221 $-1 #
coedge $-1 $345 $223 $224 $333 reversed $139 $-1 #
coedge $-1 $339 $454 $223 $331 reversed $221 $-1 #
edge $-1 $346 -13.018252152152542 $456 13.018252152152542 $330 $457 forward 7 unknown #
coedge $-1 $225 $224 $454 $458 forward $89 $-1 #
edge $-1 $337 -77.49626148258919 $456 77.49626148258919 $329 $459 forward 7 unknown #
coedge $-1 $342 $341 $225 $335 reversed $326 $-1 #
edge $-1 $460 -77.49626148258919 $336 77.49626148258919 $334 $461 forward 7 unknown #
vertex $-1 $227 $462 #
vertex $-1 $348 $463 #
straight-curve $-1 77.49626148258919 0 -13.018252152152542 0 -1 0 I I #
coedge $-1 $328 $330 $228 $340 reversed $221 $-1 #
edge $-1 $343 -45.031413247498847 $346 45.031413247498847 $339 $464 forward 7 unknown #
coedge $-1 $334 $229 $234 $349 forward $326 $-1 #
coedge $-1 $229 $334 $328 $455 reversed $326 $-1 #
vertex $-1 $230 $465 #
straight-curve $-1 0 45.031413247498847 13.018252152152542 -1 0 0 I I #
coedge $-1 $231 $329 $233 $348 reversed $139 $-1 #
vertex $-1 $340 $466 #
straight-curve $-1 0 -45.031413247498847 13.018252152152542 1 0 0 I I #
edge $-1 $236 -13.018252152152542 $337 13.018252152152542 $233 $467 forward 7 unknown #
edge $-1 $237 -13.018252152152542 $336 13.018252152152542 $234 $468 forward 7 unknown #
point $-1 77.49626148258919 -45.031413247498847 13.018252152152542 #
point $-1 77.49626148258919 45.031413247498847 13.018252152152542 #
face $-1 $-1 $369 $34 $-1 $469 forward single #
loop $-1 $-1 $470 $239 #
plane-surface $-1 -69.9951985450938 -51.822032655733786 0 -1 0 0 0 0 1 forward_v I I I I #
coedge $-1 $471 $242 $359 $472 reversed $147 $-1 #
coedge $-1 $242 $471 $473 $474 reversed $147 $-1 #
coedge $-1 $250 $249 $242 $358 reversed $240 $-1 #
edge $-1 $475 -13.018252152152542 $476 13.018252152152542 $357 $477 forward 7 unknown #
coedge $-1 $244 $243 $355 $472 forward $93 $-1 #
coedge $-1 $365 $470 $243 $361 reversed $353 $-1 #
edge $-1 $363 -6.7906194082349387 $478 6.7906194082349387 $360 $479 forward 7 unknown #
edge $-1 $476 -6.7906194082349387 $251 6.7906194082349387 $249 $480 forward 7 unknown #
vertex $-1 $361 $481 #
straight-curve $-1 0 -45.031413247498847 -13.018252152152542 1 0 0 I I #
coedge $-1 $482 $360 $246 $366 reversed $353 $-1 #
edge $-1 $370 -13.018252152152542 $363 13.018252152152542 $365 $483 forward 7 unknown #
coedge $-1 $473 $247 $250 $372 forward $369 $-1 #
coedge $-1 $247 $473 $482 $484 forward $369 $-1 #
loop $-1 $-1 $247 $352 #
vertex $-1 $248 $485 #
straight-curve $-1 0 -45.031413247498847 13.018252152152542 -1 0 0 I I #
edge $-1 $252 -6.7906194082349387 $475 6.7906194082349387 $250 $486 forward 7 unknown #
point $-1 -75.052400353155249 -45.031413247498847 -13.018252152152542 #
point $-1 -75.052400353155249 -45.031413247498847 13.018252152152542 #
plane-surface $-1 0 0 13.018252152152542 0 0 1 1 0 0 forward_v I I I I #
coedge $-1 $386 $385 $378 $487 forward $255 $-1 #
coedge $-1 $378 $257 $259 $382 reversed $155 $-1 #
coedge $-1 $257 $377 $376 $487 reversed $155 $-1 #
coedge $-1 $265 $260 $257 $380 forward $266 $-1 #
edge $-1 $383 -28.615899273521592 $488 -20.617450372121809 $379 $489 forward 7 unknown #
coedge $-1 $259 $258 $386 $490 reversed $97 $-1 #
edge $-1 $491 2.2061860048766535e-014 $383 12.44337772501021 $377 $492 forward 7 unknown #
vertex $-1 $261 $493 #
straight-curve $-1 -69.497812581189407 -12.120938786482018 13.018252152152542 0 1 0 I I #
coedge $-1 $376 $262 $265 $390 reversed $255 $-1 #
coedge $-1 $262 $376 $381 $490 forward $255 $-1 #
vertex $-1 $263 $494 #
straight-curve $-1 -77.49626148258919 -31.450174431028962 51.556671757293941 0 0 1 I I #
straight-curve $-1 -77.496261482589205 -31.450174431028962 3.4860716891642056 -0.64278759981090561 0 -0.7660444514056185 I I #
edge $-1 $488 17.033580714899109 $267 31.450174431028962 $385 $495 forward 7 unknown #
point $-1 -77.49626148258919 -31.450174431028962 13.018252152152542 #
point $-1 -69.497812581189407 -31.450174431028962 13.018252152152542 #
edge $-1 $496 1 $496 0 $270 $-1 forward 7 unknown #
vertex $-1 $271 $497 #
ellipse-curve $-1 -69.517577897650966 -27.331147654991863 4.9129993162572161 -0.7660444514056185 0 0.64278759981090561 0.96418139971635841 0 1.1490666771084277 1 I I #
point $-1 -72.532855632172925 -27.331147654991863 9.4012285977667993 #
edge $-1 $498 1 $498 0 $274 $-1 forward 7 unknown #
vertex $-1 $275 $499 #
ellipse-curve $-1 -69.517577897650966 -21.152607490936212 4.9129993162572161 -0.7660444514056185 0 0.64278759981090561 0.96418139971635841 0 1.1490666771084277 1 I I #
point $-1 -72.532855632172925 -21.152607490936212 9.4012285977667993 #
loop $-1 $-1 $286 $278 #
plane-surface $-1 77.49626148258919 0 0 -1 0 0 0 0 1 forward_v I I I I #
coedge $-1 $404 $281 $283 $408 reversed $177 $-1 #
coedge $-1 $281 $403 $500 $501 reversed $177 $-1 #
coedge $-1 $289 $284 $281 $406 forward $279 $-1 #
edge $-1 $409 31.917755396741846 $502 44.483954834337602 $405 $503 forward 7 unknown #
coedge $-1 $283 $282 $412 $504 reversed $111 $-1 #
edge $-1 $505 -154.99252296517844 $409 -138.08303355031205 $403 $506 forward 7 unknown #
vertex $-1 $285 $507 #
straight-curve $-1 64.930062044993434 -2.231823049333677 13.018252152152535 0 -1 0 I I #
coedge $-1 $500 $286 $289 $416 reversed $401 $-1 #
coedge $-1 $286 $500 $407 $504 forward $401 $-1 #
vertex $-1 $287 $508 #
straight-curve $-1 77.49626148258919 4.1929039749752768 110.29786376847449 0 0 1 I I #
straight-curve $-1 -37.685628823586143 4.1929039749752768 105.41383723077367 0.74314481823134659 0 -0.66913061440640931 I I #
edge $-1 $502 -13.120196172309985 $290 4.1929039749752768 $411 $509 forward 7 unknown #
point $-1 77.49626148258919 4.1929039749752768 13.018252152152542 #
point $-1 64.930062044993434 4.1929039749752768 13.018252152152527 #
edge $-1 $510 1 $510 0 $293 $-1 forward 7 unknown #
vertex $-1 $294 $511 #
ellipse-curve $-1 68.578716506732846 -8.173596130228475 4.4350758230142544 0.66913061440640931 0 0.74314481823134659 1.1147172273470198 0 -1.003695921609614 1 I I #
point $-1 72.327878991138334 -8.173596130228475 6.3572277098088419 #
edge $-1 $512 1 $512 0 $297 $-1 forward 7 unknown #
vertex $-1 $298 $513 #
ellipse-curve $-1 68.578716506732846 -0.75369606710621895 4.4350758230142544 0.66913061440640931 0 0.74314481823134659 1.1147172273470198 0 -1.003695921609614 1 I I #
point $-1 72.327878991138334 -0.75369606710621895 6.3572277098088419 #
plane-surface $-1 0 0 13.018252152152542 0 0 1 1 0 0 forward_v I I I I #
coedge $-1 $438 $437 $430 $514 forward $302 $-1 #
coedge $-1 $430 $304 $306 $434 reversed $199 $-1 #
coedge $-1 $304 $429 $428 $514 reversed $199 $-1 #
coedge $-1 $312 $307 $304 $432 forward $313 $-1 #
edge $-1 $435 31.917755396741846 $515 44.483954834337602 $431 $516 forward 7 unknown #
coedge $-1 $306 $305 $438 $517 reversed $125 $-1 #
edge $-1 $518 -154.99252296517844 $435 -138.08303355031205 $429 $519 forward 7 unknown #
vertex $-1 $308 $520 #
straight-curve $-1 64.930062044993434 9.0224424575686157 13.018252152152535 0 -1 0 I I #
coedge $-1 $428 $309 $312 $442 reversed $302 $-1 #
coedge $-1 $309 $428 $433 $517 forward $302 $-1 #
vertex $-1 $310 $521 #
straight-curve $-1 77.49626148258919 26.701434988779862 110.29786376847449 0 0 1 I I #
straight-curve $-1 -37.685628823586143 26.701434988779862 105.41383723077367 0.74314481823134659 0 -0.66913061440640931 I I #
edge $-1 $515 9.3883348414946006 $314 26.701434988779862 $437 $522 forward 7 unknown #
point $-1 77.49626148258919 26.701434988779862 13.018252152152542 #
point $-1 64.930062044993434 26.701434988779862 13.018252152152527 #
edge $-1 $523 1 $523 0 $317 $-1 forward 7 unknown #
vertex $-1 $318 $524 #
ellipse-curve $-1 68.578716506732846 14.334934883576111 4.4350758230142544 0.66913061440640931 0 0.74314481823134659 1.1147172273470198 0 -1.003695921609614 1 I I #
point $-1 72.327878991138334 14.334934883576111 6.3572277098088419 #
edge $-1 $525 1 $525 0 $321 $-1 forward 7 unknown #
vertex $-1 $322 $526 #
ellipse-curve $-1 68.578716506732846 21.754834946698367 4.4350758230142544 0.66913061440640931 0 0.74314481823134659 1.1147172273470198 0 -1.003695921609614 1 I I #
point $-1 72.327878991138334 21.754834946698367 6.3572277098088419 #
plane-surface $-1 77.49626148258919 0 0 -1 0 0 0 0 1 forward_v I I I I #
coedge $-1 $330 $328 $332 $458 reversed $221 $-1 #
edge $-1 $343 -13.018252152152542 $460 13.018252152152542 $342 $527 forward 7 unknown #
vertex $-1 $458 $528 #
straight-curve $-1 -77.49626148258919 -45.031413247498847 0 0 0 -1 I I #
edge $-1 $456 -45.031413247498847 $460 45.031413247498847 $454 $529 forward 7 unknown #
straight-curve $-1 0 -45.031413247498847 -13.018252152152542 -1 0 0 I I #
vertex $-1 $335 $530 #
straight-curve $-1 0 45.031413247498847 -13.018252152152542 1 0 0 I I #
point $-1 77.49626148258919 45.031413247498847 -13.018252152152542 #
point $-1 77.49626148258919 -45.031413247498847 -13.018252152152542 #
straight-curve $-1 -77.49626148258919 0 13.018252152152542 0 -1 0 I I #
point $-1 -77.49626148258919 45.031413247498847 13.018252152152542 #
point $-1 -77.49626148258919 -45.031413247498847 13.018252152152542 #
straight-curve $-1 77.49626148258919 -45.031413247498847 0 0 0 -1 I I #
straight-curve $-1 77.49626148258919 45.031413247498847 0 0 0 -1 I I #
plane-surface $-1 0 0 13.018252152152542 0 0 1 1 0 0 forward_v I I I I #
coedge $-1 $360 $482 $471 $531 forward $353 $-1 #
coedge $-1 $356 $355 $470 $531 reversed $147 $-1 #
edge $-1 $478 -2.5286009040307249 $476 2.5286009040307249 $355 $532 forward 7 unknown #
coedge $-1 $368 $367 $356 $474 forward $369 $-1 #
edge $-1 $475 -2.5286009040307249 $533 2.5286009040307249 $356 $534 forward 7 unknown #
vertex $-1 $372 $535 #
vertex $-1 $362 $536 #
straight-curve $-1 -75.052400353155249 -58.612652063968724 0 0 0 -1 I I #
vertex $-1 $531 $537 #
straight-curve $-1 -69.9951985450938 -51.822032655733786 -13.018252152152542 0 -1 0 I I #
straight-curve $-1 -75.052400353155249 -51.822032655733786 -13.018252152152542 0 1 0 I I #
point $-1 -69.9951985450938 -45.031413247498847 -13.018252152152542 #
coedge $-1 $470 $365 $368 $484 reversed $353 $-1 #
straight-curve $-1 -69.9951985450938 -45.031413247498847 0 0 0 -1 I I #
edge $-1 $533 -6.7906194082349387 $370 6.7906194082349387 $482 $538 forward 7 unknown #
point $-1 -69.9951985450938 -45.031413247498847 13.018252152152542 #
straight-curve $-1 -75.052400353155249 -51.822032655733786 13.018252152152542 0 -1 0 I I #
edge $-1 $488 38.538419605141399 $491 48.070600068129721 $376 $539 forward 7 unknown #
vertex $-1 $390 $540 #
straight-curve $-1 -98.113711854710999 -17.033580714899109 13.018252152152542 -1 0 0 I I #
edge $-1 $491 4.9126419284170915 $387 19.329235644546944 $386 $541 forward 7 unknown #
vertex $-1 $490 $542 #
straight-curve $-1 -77.496261482589205 -17.033580714899109 3.4860716891642056 0.64278759981090561 0 0.7660444514056185 I I #
point $-1 -69.497812581189407 -17.033580714899109 13.018252152152542 #
point $-1 -77.49626148258919 -31.450174431028962 3.4860716891642225 #
straight-curve $-1 -77.49626148258919 0 13.018252152152542 0 -1 0 I I #
vertex $-1 $393 $543 #
point $-1 -68.5533964979346 -27.331147654991863 6.0620659933656444 #
vertex $-1 $397 $544 #
point $-1 -68.5533964979346 -21.152607490936212 6.0620659933656444 #
coedge $-1 $412 $411 $404 $501 forward $401 $-1 #
edge $-1 $502 97.279611616321944 $505 108.59426865779017 $500 $545 forward 7 unknown #
vertex $-1 $416 $546 #
straight-curve $-1 33.012306648251588 -13.120196172309985 13.018252152152542 1 0 0 I I #
edge $-1 $505 -10.888373122976308 $413 6.4247270243089538 $412 $547 forward 7 unknown #
vertex $-1 $504 $548 #
straight-curve $-1 -37.685628823586143 -13.120196172309985 105.41383723077367 -0.74314481823134659 0 0.66913061440640931 I I #
point $-1 64.930062044993434 -13.120196172309985 13.018252152152527 #
point $-1 77.496261482589205 4.1929039749752768 1.7035951106843186 #
straight-curve $-1 77.49626148258919 0 13.018252152152542 0 1 0 I I #
vertex $-1 $419 $549 #
point $-1 69.693433734079861 -8.173596130228475 3.4313799014046404 #
vertex $-1 $423 $550 #
point $-1 69.693433734079861 -0.75369606710621895 3.4313799014046404 #
edge $-1 $515 97.279611616321944 $518 108.59426865779017 $428 $551 forward 7 unknown #
vertex $-1 $442 $552 #
straight-curve $-1 33.012306648251588 9.3883348414946006 13.018252152152542 1 0 0 I I #
edge $-1 $518 0.36589238392598489 $439 17.678992531211247 $438 $553 forward 7 unknown #
vertex $-1 $517 $554 #
straight-curve $-1 -37.685628823586143 9.3883348414946006 105.41383723077367 -0.74314481823134659 0 0.66913061440640931 I I #
point $-1 64.930062044993434 9.3883348414946006 13.018252152152527 #
point $-1 77.496261482589205 26.701434988779862 1.7035951106843186 #
straight-curve $-1 77.49626148258919 0 13.018252152152542 0 1 0 I I #
vertex $-1 $445 $555 #
point $-1 69.693433734079861 14.334934883576111 3.4313799014046404 #
vertex $-1 $449 $556 #
point $-1 69.693433734079861 21.754834946698367 3.4313799014046404 #
straight-curve $-1 -77.49626148258919 45.031413247498847 0 0 0 -1 I I #
point $-1 -77.49626148258919 -45.031413247498847 -13.018252152152542 #
straight-curve $-1 -77.49626148258919 0 -13.018252152152542 0 1 0 I I #
point $-1 -77.49626148258919 45.031413247498847 -13.018252152152542 #
edge $-1 $533 -13.018252152152542 $478 13.018252152152542 $470 $557 forward 7 unknown #
straight-curve $-1 -72.523799449124525 -58.612652063968724 -13.018252152152542 -1 0 0 I I #
vertex $-1 $484 $558 #
straight-curve $-1 -72.523799449124525 -58.612652063968724 13.018252152152542 1 0 0 I I #
point $-1 -75.052400353155249 -58.612652063968724 13.018252152152542 #
point $-1 -75.052400353155249 -58.612652063968724 -13.018252152152542 #
point $-1 -69.9951985450938 -58.612652063968724 -13.018252152152542 #
straight-curve $-1 -69.9951985450938 -51.822032655733786 13.018252152152542 0 1 0 I I #
straight-curve $-1 -77.49626148258919 -17.033580714899109 51.556671757293941 0 0 -1 I I #
point $-1 -77.49626148258919 -17.033580714899109 13.018252152152542 #
straight-curve $-1 -77.49626148258919 -12.120938786482018 3.4860716891642278 0 -1 0 I I #
point $-1 -77.49626148258919 -17.033580714899109 3.4860716891642225 #
point $-1 -68.36851122054253 -27.331147654991863 3.9488179165408579 #
point $-1 -68.36851122054253 -21.152607490936212 3.9488179165408579 #
straight-curve $-1 77.49626148258919 -13.120196172309985 110.29786376847449 0 0 -1 I I #
point $-1 77.49626148258919 -13.120196172309985 13.018252152152542 #
straight-curve $-1 77.496261482589176 -2.231823049333677 1.7035951106843328 0 1 0 I I #
point $-1 77.496261482589205 -13.120196172309985 1.7035951106843186 #
point $-1 67.575020585123227 -8.173596130228475 3.3203585956672343 #
point $-1 67.575020585123227 -0.75369606710621895 3.3203585956672343 #
straight-curve $-1 77.49626148258919 9.3883348414946006 110.29786376847449 0 0 -1 I I #
point $-1 77.49626148258919 9.3883348414946006 13.018252152152542 #
straight-curve $-1 77.496261482589176 9.0224424575686157 1.7035951106843328 0 1 0 I I #
point $-1 77.496261482589205 9.3883348414946006 1.7035951106843186 #
point $-1 67.575020585123227 14.334934883576111 3.3203585956672343 #
point $-1 67.575020585123227 21.754834946698367 3.3203585956672343 #
straight-curve $-1 -69.9951985450938 -58.612652063968724 0 0 0 -1 I I #
point $-1 -69.9951985450938 -58.612652063968724 13.018252152152542 #
End-of-ACIS-data 