500 0 11 0           
7 Unknown 11 ACIS 5.0 NT 24 Fri Mar 26 00:48:51 1999 
-1 9.9999999999999995e-007 1e-010 
body $-1 $11 $-1 $12 #
body $-1 $13 $-1 $14 #
body $-1 $15 $-1 $16 #
body $-1 $17 $-1 $18 #
body $-1 $19 $-1 $20 #
body $-1 $21 $-1 $22 #
body $-1 $23 $-1 $24 #
body $-1 $25 $-1 $26 #
body $-1 $27 $-1 $28 #
body $-1 $29 $-1 $30 #
body $-1 $31 $-1 $32 #
lump $-1 $-1 $33 $0 #
transform $-1 1 0 0 0 1 0 0 0 1 44.445936460463273 22.046633144936667 7.2233051379160917 1 rotate no_reflect no_shear #
lump $-1 $-1 $34 $1 #
transform $-1 1 0 0 0 1 0 0 0 1 44.445936460463273 22.046633144936667 7.2233051379160917 1 rotate no_reflect no_shear #
lump $-1 $-1 $35 $2 #
transform $-1 1 0 0 0 1 0 0 0 1 44.445936460463273 22.046633144936667 7.2233051379160917 1 rotate no_reflect no_shear #
lump $-1 $-1 $36 $3 #
transform $-1 1 0 0 0 1 0 0 0 1 44.445936460463273 22.046633144936667 7.2233051379160917 1 rotate no_reflect no_shear #
lump $-1 $-1 $37 $4 #
transform $-1 1 0 0 0 1 0 0 0 1 44.445936460463273 22.046633144936667 7.2233051379160917 1 rotate no_reflect no_shear #
lump $-1 $-1 $38 $5 #
transform $-1 1 0 0 0 1 0 0 0 1 44.445936460463273 22.046633144936667 7.2233051379160917 1 rotate no_reflect no_shear #
lump $-1 $-1 $39 $6 #
transform $-1 1 0 0 0 1 0 0 0 1 44.445936460463273 22.046633144936667 7.2233051379160917 1 rotate no_reflect no_shear #
lump $-1 $-1 $40 $7 #
transform $-1 1 0 0 0 1 0 0 0 1 44.445936460463273 22.046633144936667 7.2233051379160917 1 rotate no_reflect no_shear #
lump $-1 $-1 $41 $8 #
transform $-1 1 0 0 0 1 0 0 0 1 44.445936460463273 22.046633144936667 7.2233051379160917 1 rotate no_reflect no_shear #
lump $-1 $-1 $42 $9 #
transform $-1 1 0 0 0 1 0 0 0 1 44.445936460463273 22.046633144936667 7.2233051379160917 1 rotate no_reflect no_shear #
lump $-1 $-1 $43 $10 #
transform $-1 1 0 0 0 1 0 0 0 1 44.445936460463273 22.046633144936667 7.2233051379160917 1 rotate no_reflect no_shear #
shell $-1 $-1 $-1 $44 $-1 $11 #
shell $-1 $-1 $-1 $45 $-1 $13 #
shell $-1 $-1 $-1 $46 $-1 $15 #
shell $-1 $-1 $-1 $47 $-1 $17 #
shell $-1 $-1 $-1 $48 $-1 $19 #
shell $-1 $-1 $-1 $49 $-1 $21 #
shell $-1 $-1 $-1 $50 $-1 $23 #
shell $-1 $-1 $-1 $51 $-1 $25 #
shell $-1 $-1 $-1 $52 $-1 $27 #
shell $-1 $-1 $-1 $53 $-1 $29 #
shell $-1 $-1 $-1 $54 $-1 $31 #
face $-1 $55 $56 $33 $-1 $57 forward single #
face $-1 $58 $59 $34 $-1 $60 reversed single #
face $-1 $61 $62 $35 $-1 $63 reversed single #
face $-1 $64 $65 $36 $-1 $66 forward single #
face $-1 $67 $68 $37 $-1 $69 forward single #
face $-1 $70 $71 $38 $-1 $72 reversed single #
face $-1 $73 $74 $39 $-1 $75 forward single #
face $-1 $76 $77 $40 $-1 $78 forward single #
face $-1 $79 $80 $41 $-1 $81 reversed single #
face $-1 $82 $83 $42 $-1 $84 forward single #
face $-1 $85 $86 $43 $-1 $87 forward single #
face $-1 $88 $89 $33 $-1 $90 reversed single #
loop $-1 $-1 $91 $44 #
plane-surface $-1 0 0 7.2233051379160917 0 0 1 1 0 0 forward_v I I I I #
face $-1 $92 $93 $34 $-1 $94 reversed single #
loop $-1 $-1 $95 $45 #
plane-surface $-1 0 -18.973449349291123 4.2233051379160917 0 0 1 1 0 0 forward_v I I I I #
face $-1 $96 $97 $35 $-1 $98 reversed single #
loop $-1 $-1 $99 $46 #
plane-surface $-1 -95.43222080812464 -10.588507658723731 75.08479164121583 0 1 0 -0.57357644374324357 0 0.81915203911291934 forward_v I I I I #
face $-1 $100 $101 $36 $-1 $102 forward single #
loop $-1 $103 $104 $47 #
cone-surface $-1 -40.512601651410193 -8.1533726401654576 4.1812722389830679 0.57357644374324357 0 -0.81915203911291934 0.40957601955645967 0 0.28678822187162178 1 I I 0 1 0.5 forward I I I I #
face $-1 $105 $106 $37 $-1 $107 forward single #
loop $-1 $108 $109 $48 #
cone-surface $-1 -40.512601651410193 -4.5006701123280486 4.1812722389830679 0.57357644374324357 0 -0.81915203911291934 0.40957601955645967 0 0.28678822187162178 1 I I 0 1 0.5 forward I I I I #
face $-1 $110 $111 $38 $-1 $112 reversed single #
loop $-1 $-1 $113 $49 #
plane-surface $-1 -95.43222080812464 8.3849416905673877 75.08479164121583 0 1 0 -0.57357644374324357 0 0.81915203911291934 forward_v I I I I #
face $-1 $114 $115 $39 $-1 $116 forward single #
loop $-1 $117 $118 $50 #
cone-surface $-1 -40.512601651410193 10.820076709125669 4.1812722389830679 0.57357644374324357 0 -0.81915203911291934 0.40957601955645967 0 0.28678822187162178 1 I I 0 1 0.5 forward I I I I #
face $-1 $119 $120 $40 $-1 $121 forward single #
loop $-1 $122 $123 $51 #
cone-surface $-1 -40.512601651410193 14.472779236963074 4.1812722389830679 0.57357644374324357 0 -0.81915203911291934 0.40957601955645967 0 0.28678822187162178 1 I I 0 1 0.5 forward I I I I #
face $-1 $124 $125 $41 $-1 $126 reversed single #
loop $-1 $-1 $127 $52 #
plane-surface $-1 18.308923846721406 -8.7130984974861185 126.3628817826724 0 -1 0 -0.54463904215088732 0 -0.83867056331134215 forward_v I I I I #
face $-1 $128 $129 $42 $-1 $130 forward single #
loop $-1 $131 $132 $53 #
cone-surface $-1 40.790800405198752 -13.846789251885733 4.2175564031188868 -0.54463904215088732 0 -0.83867056331134215 0.83867056331134215 0 -0.54463904215088732 1 I I 0 1 1 forward I I I I #
face $-1 $133 $134 $43 $-1 $135 forward single #
loop $-1 $136 $137 $54 #
cone-surface $-1 40.790800405198752 -10.766574799245964 4.2175564031188868 -0.54463904215088732 0 -0.83867056331134215 0.83867056331134215 0 -0.54463904215088732 1 I I 0 1 1 forward I I I I #
face $-1 $138 $139 $33 $-1 $140 reversed single #
loop $-1 $-1 $141 $55 #
plane-surface $-1 0 0 -7.2233051379160917 0 0 1 1 0 0 forward_v I I I I #
coedge $-1 $142 $143 $144 $145 forward $56 $-1 #
face $-1 $146 $147 $34 $-1 $148 reversed single #
loop $-1 $-1 $149 $58 #
plane-surface $-1 0 -15.900265553645578 5.7233051379160917 0 -1 0 0 0 -1 forward_v I I I I #
coedge $-1 $150 $151 $152 $153 reversed $59 $-1 #
face $-1 $154 $155 $35 $-1 $156 reversed single #
loop $-1 $-1 $157 $61 #
plane-surface $-1 -44.445936460463258 -6.3270213762467549 2.2688326774723464 -0.57357644374324357 0 0.81915203911291934 0.81915203911291934 0 0.57357644374324357 forward_v I I I I #
coedge $-1 $158 $159 $160 $161 reversed $62 $-1 #
face $-1 $-1 $162 $36 $-1 $163 forward single #
loop $-1 $164 $165 $64 #
cone-surface $-1 -39.973732647891318 -8.1533726401654576 3.4116875604936761 0.57357644374324357 0 -0.81915203911291934 0.20478800977822983 0 0.14339411093581089 1 I I -0.70710678118654746 0.70710678118654746 0.25 forward I I I I #
loop $-1 $-1 $166 $47 #
coedge $-1 $104 $104 $167 $168 reversed $65 $-1 #
face $-1 $-1 $169 $37 $-1 $170 forward single #
loop $-1 $171 $172 $67 #
cone-surface $-1 -39.973732647891318 -4.5006701123280486 3.4116875604936761 0.57357644374324357 0 -0.81915203911291934 0.20478800977822983 0 0.14339411093581089 1 I I -0.70710678118654746 0.70710678118654746 0.25 forward I I I I #
loop $-1 $-1 $173 $48 #
coedge $-1 $109 $109 $174 $175 reversed $68 $-1 #
face $-1 $176 $177 $38 $-1 $178 reversed single #
loop $-1 $-1 $179 $70 #
plane-surface $-1 -44.445936460463258 12.646427973044364 2.2688326774723464 -0.57357644374324357 0 0.81915203911291934 0.81915203911291934 0 0.57357644374324357 forward_v I I I I #
coedge $-1 $180 $181 $182 $183 reversed $71 $-1 #
face $-1 $-1 $184 $39 $-1 $185 forward single #
loop $-1 $186 $187 $73 #
cone-surface $-1 -39.973732647891318 10.820076709125669 3.4116875604936761 0.57357644374324357 0 -0.81915203911291934 0.20478800977822983 0 0.14339411093581089 1 I I -0.70710678118654746 0.70710678118654746 0.25 forward I I I I #
loop $-1 $-1 $188 $50 #
coedge $-1 $118 $118 $189 $190 reversed $74 $-1 #
face $-1 $-1 $191 $40 $-1 $192 forward single #
loop $-1 $193 $194 $76 #
cone-surface $-1 -39.973732647891318 14.472779236963074 3.4116875604936761 0.57357644374324357 0 -0.81915203911291934 0.20478800977822983 0 0.14339411093581089 1 I I -0.70710678118654746 0.70710678118654746 0.25 forward I I I I #
loop $-1 $-1 $195 $51 #
coedge $-1 $123 $123 $196 $197 reversed $77 $-1 #
face $-1 $198 $199 $41 $-1 $200 forward single #
loop $-1 $-1 $201 $79 #
plane-surface $-1 -30.105060675930424 -12.306682025565848 51.811884646278699 0.54463904215088732 0 0.83867056331134215 0.83867056331134215 0 -0.54463904215088732 forward_v I I I I #
coedge $-1 $202 $203 $204 $205 reversed $80 $-1 #
face $-1 $-1 $206 $42 $-1 $207 forward single #
loop $-1 $208 $209 $82 #
cone-surface $-1 39.808648350947408 -13.846789251885733 2.7051748938106224 -0.54463904215088732 0 -0.83867056331134215 0.41933528165567108 0 -0.27231952107544366 1 I I -0.70710678118654746 0.70710678118654746 0.5 forward I I I I #
loop $-1 $-1 $210 $53 #
coedge $-1 $132 $132 $211 $212 reversed $83 $-1 #
face $-1 $-1 $213 $43 $-1 $214 forward single #
loop $-1 $215 $216 $85 #
cone-surface $-1 39.808648350947408 -10.766574799245964 2.7051748938106224 -0.54463904215088732 0 -0.83867056331134215 0.41933528165567108 0 -0.27231952107544366 1 I I -0.70710678118654746 0.70710678118654746 0.5 forward I I I I #
loop $-1 $-1 $217 $54 #
coedge $-1 $137 $137 $218 $219 reversed $86 $-1 #
face $-1 $220 $221 $33 $-1 $222 reversed single #
loop $-1 $-1 $223 $88 #
plane-surface $-1 0 -22.046633144936667 0 0 1 0 0 0 1 forward_v I I I I #
coedge $-1 $224 $225 $226 $227 forward $89 $-1 #
coedge $-1 $228 $91 $229 $230 forward $56 $-1 #
coedge $-1 $91 $228 $231 $232 forward $56 $-1 #
coedge $-1 $233 $234 $91 $145 reversed $235 $-1 #
edge $-1 $236 -22.046633144936667 $237 22.046633144936667 $144 $238 forward 7 unknown #
face $-1 $239 $240 $34 $-1 $241 reversed single #
loop $-1 $-1 $242 $92 #
plane-surface $-1 -44.445936460463273 0 0 1 0 0 0 0 -1 forward_v I I I I #
coedge $-1 $243 $244 $151 $245 reversed $93 $-1 #
coedge $-1 $246 $95 $247 $248 reversed $59 $-1 #
coedge $-1 $95 $246 $149 $245 forward $59 $-1 #
coedge $-1 $249 $250 $95 $153 forward $251 $-1 #
edge $-1 $252 -12.559908470291106 $253 -6.413540879000017 $152 $254 forward 7 unknown #
face $-1 $255 $256 $35 $-1 $257 forward single #
loop $-1 $-1 $258 $96 #
plane-surface $-1 -95.43222080812464 -2.0655350937697783 75.08479164121583 0 -1 0 0.57357644374324357 0 -0.81915203911291934 forward_v I I I I #
coedge $-1 $259 $260 $261 $262 reversed $97 $-1 #
coedge $-1 $159 $99 $263 $264 reversed $62 $-1 #
coedge $-1 $99 $158 $259 $265 reversed $62 $-1 #
coedge $-1 $261 $266 $99 $161 forward $256 $-1 #
edge $-1 $267 3.2701739435990476 $268 10.345893776539121 $160 $269 forward 7 unknown #
loop $-1 $-1 $167 $100 #
plane-surface $-1 -44.445936460463258 -6.3270213762467549 2.2688326774723464 -0.57357644374324357 0 0.81915203911291934 0.81915203911291934 0 0.57357644374324357 forward_v I I I I #
loop $-1 $-1 $270 $64 #
coedge $-1 $165 $165 $166 $271 reversed $101 $-1 #
coedge $-1 $166 $166 $165 $271 forward $103 $-1 #
coedge $-1 $167 $167 $104 $168 forward $162 $-1 #
edge $-1 $272 0 $272 6.2831853071796004 $167 $273 forward 7 unknown #
loop $-1 $-1 $174 $105 #
plane-surface $-1 -44.445936460463258 -6.3270213762467549 2.2688326774723464 -0.57357644374324357 0 0.81915203911291934 0.81915203911291934 0 0.57357644374324357 forward_v I I I I #
loop $-1 $-1 $274 $67 #
coedge $-1 $172 $172 $173 $275 reversed $106 $-1 #
coedge $-1 $173 $173 $172 $275 forward $108 $-1 #
coedge $-1 $174 $174 $109 $175 forward $169 $-1 #
edge $-1 $276 0 $276 6.2831853071796004 $174 $277 forward 7 unknown #
face $-1 $278 $279 $38 $-1 $280 forward single #
loop $-1 $-1 $281 $110 #
plane-surface $-1 -95.43222080812464 16.907914255521341 75.08479164121583 0 -1 0 0.57357644374324357 0 -0.81915203911291934 forward_v I I I I #
coedge $-1 $282 $283 $284 $285 reversed $111 $-1 #
coedge $-1 $181 $113 $286 $287 reversed $71 $-1 #
coedge $-1 $113 $180 $282 $288 reversed $71 $-1 #
coedge $-1 $284 $289 $113 $183 forward $279 $-1 #
edge $-1 $290 3.2701739435990476 $291 10.345893776539121 $182 $292 forward 7 unknown #
loop $-1 $-1 $189 $114 #
plane-surface $-1 -44.445936460463258 12.646427973044364 2.2688326774723464 -0.57357644374324357 0 0.81915203911291934 0.81915203911291934 0 0.57357644374324357 forward_v I I I I #
loop $-1 $-1 $293 $73 #
coedge $-1 $187 $187 $188 $294 reversed $115 $-1 #
coedge $-1 $188 $188 $187 $294 forward $117 $-1 #
coedge $-1 $189 $189 $118 $190 forward $184 $-1 #
edge $-1 $295 0 $295 6.2831853071796004 $189 $296 forward 7 unknown #
loop $-1 $-1 $196 $119 #
plane-surface $-1 -44.445936460463258 12.646427973044364 2.2688326774723464 -0.57357644374324357 0 0.81915203911291934 0.81915203911291934 0 0.57357644374324357 forward_v I I I I #
loop $-1 $-1 $297 $76 #
coedge $-1 $194 $194 $195 $298 reversed $120 $-1 #
coedge $-1 $195 $195 $194 $298 forward $122 $-1 #
coedge $-1 $196 $196 $123 $197 forward $191 $-1 #
edge $-1 $299 0 $299 6.2831853071796004 $196 $300 forward 7 unknown #
face $-1 $301 $302 $41 $-1 $303 forward single #
loop $-1 $-1 $304 $124 #
plane-surface $-1 0 -15.900265553645578 5.7233051379160917 0 -1 0 0 0 -1 forward_v I I I I #
coedge $-1 $305 $306 $307 $308 reversed $125 $-1 #
coedge $-1 $203 $127 $309 $310 reversed $80 $-1 #
coedge $-1 $127 $202 $305 $311 reversed $80 $-1 #
coedge $-1 $307 $312 $127 $205 forward $302 $-1 #
edge $-1 $313 -35.291474537102573 $314 -29.400867492925318 $204 $315 forward 7 unknown #
loop $-1 $-1 $211 $128 #
plane-surface $-1 -30.105060675930424 -12.306682025565848 51.811884646278699 0.54463904215088732 0 0.83867056331134215 0.83867056331134215 0 -0.54463904215088732 forward_v I I I I #
loop $-1 $-1 $316 $82 #
coedge $-1 $209 $209 $210 $317 reversed $129 $-1 #
coedge $-1 $210 $210 $209 $317 forward $131 $-1 #
coedge $-1 $211 $211 $132 $212 forward $206 $-1 #
edge $-1 $318 0 $318 6.2831853071796004 $211 $319 forward 7 unknown #
loop $-1 $-1 $218 $133 #
plane-surface $-1 -30.105060675930424 -12.306682025565848 51.811884646278699 0.54463904215088732 0 0.83867056331134215 0.83867056331134215 0 -0.54463904215088732 forward_v I I I I #
loop $-1 $-1 $320 $85 #
coedge $-1 $216 $216 $217 $321 reversed $134 $-1 #
coedge $-1 $217 $217 $216 $321 forward $136 $-1 #
coedge $-1 $218 $218 $137 $219 forward $213 $-1 #
edge $-1 $322 0 $322 6.2831853071796004 $218 $323 forward 7 unknown #
face $-1 $324 $325 $33 $-1 $326 reversed single #
loop $-1 $-1 $327 $138 #
plane-surface $-1 -44.445936460463273 0 0 1 0 0 0 0 -1 forward_v I I I I #
coedge $-1 $328 $231 $329 $330 forward $139 $-1 #
coedge $-1 $331 $141 $328 $332 forward $89 $-1 #
coedge $-1 $141 $331 $333 $334 forward $89 $-1 #
coedge $-1 $234 $233 $141 $227 reversed $235 $-1 #
edge $-1 $335 -22.046633144936667 $336 22.046633144936667 $226 $337 forward 7 unknown #
coedge $-1 $143 $142 $338 $339 forward $56 $-1 #
coedge $-1 $340 $341 $142 $230 reversed $325 $-1 #
edge $-1 $237 -44.445936460463273 $342 44.445936460463273 $229 $343 forward 7 unknown #
coedge $-1 $223 $344 $143 $232 reversed $139 $-1 #
edge $-1 $345 -44.445936460463273 $236 44.445936460463273 $231 $346 forward 7 unknown #
coedge $-1 $226 $144 $344 $347 forward $235 $-1 #
coedge $-1 $144 $226 $340 $348 reversed $235 $-1 #
loop $-1 $-1 $233 $324 #
vertex $-1 $145 $349 #
vertex $-1 $145 $350 #
straight-curve $-1 44.445936460463273 0 7.2233051379160917 0 1 0 I I #
face $-1 $351 $352 $34 $-1 $353 forward single #
loop $-1 $-1 $247 $146 #
plane-surface $-1 0 -22.046633144936667 0 0 1 0 0 0 1 forward_v I I I I #
coedge $-1 $354 $355 $243 $356 forward $147 $-1 #
coedge $-1 $357 $149 $242 $356 reversed $93 $-1 #
coedge $-1 $149 $357 $249 $358 reversed $93 $-1 #
edge $-1 $359 -44.445936460463273 $253 44.445936460463273 $149 $360 forward 7 unknown #
coedge $-1 $151 $150 $354 $361 reversed $59 $-1 #
coedge $-1 $362 $363 $150 $248 forward $240 $-1 #
edge $-1 $364 -44.445936460463273 $252 44.445936460463273 $247 $365 forward 7 unknown #
coedge $-1 $366 $152 $244 $358 forward $251 $-1 #
coedge $-1 $152 $366 $362 $367 forward $251 $-1 #
loop $-1 $-1 $249 $351 #
vertex $-1 $248 $368 #
vertex $-1 $153 $369 #
straight-curve $-1 44.445936460463273 -9.4867246746455614 4.2233051379160917 0 1 0 I I #
face $-1 $-1 $370 $35 $-1 $371 reversed single #
loop $-1 $-1 $160 $154 #
plane-surface $-1 0 0 7.2233051379160917 0 0 1 1 0 0 forward_v I I I I #
coedge $-1 $372 $373 $374 $375 reversed $155 $-1 #
coedge $-1 $376 $157 $159 $265 forward $97 $-1 #
coedge $-1 $157 $376 $372 $377 forward $97 $-1 #
coedge $-1 $374 $160 $157 $262 forward $256 $-1 #
edge $-1 $268 -7.424996970600354 $378 1.0979755943535991 $261 $379 forward 7 unknown #
coedge $-1 $380 $381 $158 $264 forward $370 $-1 #
edge $-1 $382 -35.273563143135576 $267 -30.319090682691822 $263 $383 forward 7 unknown #
edge $-1 $268 -8.6378590238297352 $382 1.7244671030687178e-014 $159 $384 forward 7 unknown #
coedge $-1 $160 $374 $380 $385 forward $256 $-1 #
vertex $-1 $264 $386 #
vertex $-1 $161 $387 #
straight-curve $-1 -47.71611040406232 -10.588507658723731 7.2233051379160926 1 0 0 I I #
coedge $-1 $270 $270 $-1 $388 reversed $164 $-1 #
edge $-1 $389 0 $389 6.2831853071796004 $165 $390 forward 7 unknown #
vertex $-1 $168 $391 #
ellipse-curve $-1 -40.908076543993239 -8.1533726401654576 4.7460689076942097 -0.57357644374324357 0 0.81915203911291934 0.40957601955645967 0 0.28678822187162178 1 I I #
coedge $-1 $274 $274 $-1 $392 reversed $171 $-1 #
edge $-1 $393 0 $393 6.2831853071796004 $172 $394 forward 7 unknown #
vertex $-1 $175 $395 #
ellipse-curve $-1 -40.908076543993239 -4.5006701123280486 4.7460689076942097 -0.57357644374324357 0 0.81915203911291934 0.40957601955645967 0 0.28678822187162178 1 I I #
face $-1 $-1 $396 $38 $-1 $397 reversed single #
loop $-1 $-1 $182 $176 #
plane-surface $-1 0 0 7.2233051379160917 0 0 1 1 0 0 forward_v I I I I #
coedge $-1 $398 $399 $400 $401 reversed $177 $-1 #
coedge $-1 $402 $179 $181 $288 forward $111 $-1 #
coedge $-1 $179 $402 $398 $403 forward $111 $-1 #
coedge $-1 $400 $182 $179 $285 forward $279 $-1 #
edge $-1 $291 2.0617277040452056 $404 10.584700268999159 $284 $405 forward 7 unknown #
coedge $-1 $406 $407 $180 $287 forward $396 $-1 #
edge $-1 $408 -35.273563143135576 $290 -30.319090682691822 $286 $409 forward 7 unknown #
edge $-1 $291 -8.6378590238297352 $408 1.7244671030687178e-014 $181 $410 forward 7 unknown #
coedge $-1 $182 $400 $406 $411 forward $279 $-1 #
vertex $-1 $183 $412 #
vertex $-1 $183 $413 #
straight-curve $-1 -47.71611040406232 8.3849416905673877 7.2233051379160926 1 0 0 I I #
coedge $-1 $293 $293 $-1 $414 reversed $186 $-1 #
edge $-1 $415 0 $415 6.2831853071796004 $187 $416 forward 7 unknown #
vertex $-1 $190 $417 #
ellipse-curve $-1 -40.908076543993239 10.820076709125669 4.7460689076942097 -0.57357644374324357 0 0.81915203911291934 0.40957601955645967 0 0.28678822187162178 1 I I #
coedge $-1 $297 $297 $-1 $418 reversed $193 $-1 #
edge $-1 $419 0 $419 6.2831853071796004 $194 $420 forward 7 unknown #
vertex $-1 $197 $421 #
ellipse-curve $-1 -40.908076543993239 14.472779236963074 4.7460689076942097 -0.57357644374324357 0 0.81915203911291934 0.40957601955645967 0 0.28678822187162178 1 I I #
face $-1 $-1 $422 $41 $-1 $423 reversed single #
loop $-1 $-1 $307 $198 #
plane-surface $-1 0 0 7.2233051379160917 0 0 1 1 0 0 forward_v I I I I #
coedge $-1 $424 $425 $306 $426 reversed $199 $-1 #
coedge $-1 $427 $201 $203 $311 forward $125 $-1 #
coedge $-1 $201 $427 $304 $426 forward $125 $-1 #
coedge $-1 $428 $204 $201 $308 forward $302 $-1 #
edge $-1 $314 2.5597574847031943 $429 9.7469245408626541 $307 $430 forward 7 unknown #
coedge $-1 $431 $432 $202 $310 forward $422 $-1 #
edge $-1 $433 -59.783540767709333 $313 -55.958135753420109 $309 $434 forward 7 unknown #
edge $-1 $314 81.868129270118956 $433 88.891872920926545 $203 $435 forward 7 unknown #
coedge $-1 $204 $428 $431 $436 forward $302 $-1 #
vertex $-1 $310 $437 #
vertex $-1 $205 $438 #
straight-curve $-1 9.154461923360703 -8.7130984974861185 7.2233051379160926 -1 0 0 I I #
coedge $-1 $316 $316 $-1 $439 reversed $208 $-1 #
edge $-1 $440 0 $440 6.2831853071796004 $209 $441 forward 7 unknown #
vertex $-1 $212 $442 #
ellipse-curve $-1 41.50063293837465 -13.846789251885733 5.3106026307714789 0.54463904215088732 0 0.83867056331134215 0.83867056331134215 0 -0.54463904215088732 1 I I #
coedge $-1 $320 $320 $-1 $443 reversed $215 $-1 #
edge $-1 $444 0 $444 6.2831853071796004 $216 $445 forward 7 unknown #
vertex $-1 $219 $446 #
ellipse-curve $-1 41.50063293837465 -10.766574799245964 5.3106026307714789 0.54463904215088732 0 0.83867056331134215 0.83867056331134215 0 -0.54463904215088732 1 I I #
face $-1 $-1 $235 $33 $-1 $447 reversed single #
loop $-1 $-1 $340 $220 #
plane-surface $-1 0 22.046633144936667 0 0 -1 0 0 0 -1 forward_v I I I I #
coedge $-1 $448 $338 $341 $449 forward $221 $-1 #
coedge $-1 $344 $223 $224 $332 reversed $139 $-1 #
coedge $-1 $338 $448 $223 $330 reversed $221 $-1 #
edge $-1 $345 -7.2233051379160917 $450 7.2233051379160917 $329 $451 forward 7 unknown #
coedge $-1 $225 $224 $448 $452 forward $89 $-1 #
edge $-1 $336 -44.445936460463273 $450 44.445936460463273 $328 $453 forward 7 unknown #
coedge $-1 $341 $340 $225 $334 reversed $325 $-1 #
edge $-1 $454 -44.445936460463273 $335 44.445936460463273 $333 $455 forward 7 unknown #
vertex $-1 $227 $456 #
vertex $-1 $347 $457 #
straight-curve $-1 44.445936460463273 0 -7.2233051379160917 0 -1 0 I I #
coedge $-1 $327 $329 $228 $339 reversed $221 $-1 #
edge $-1 $342 -22.046633144936667 $345 22.046633144936667 $338 $458 forward 7 unknown #
coedge $-1 $333 $229 $234 $348 forward $325 $-1 #
coedge $-1 $229 $333 $327 $449 reversed $325 $-1 #
vertex $-1 $230 $459 #
straight-curve $-1 0 22.046633144936667 7.2233051379160917 -1 0 0 I I #
coedge $-1 $231 $328 $233 $347 reversed $139 $-1 #
vertex $-1 $339 $460 #
straight-curve $-1 0 -22.046633144936667 7.2233051379160917 1 0 0 I I #
edge $-1 $236 -7.2233051379160917 $336 7.2233051379160917 $233 $461 forward 7 unknown #
edge $-1 $237 -7.2233051379160917 $335 7.2233051379160917 $234 $462 forward 7 unknown #
point $-1 44.445936460463273 -22.046633144936667 7.2233051379160917 #
point $-1 44.445936460463273 22.046633144936667 7.2233051379160917 #
face $-1 $-1 $251 $34 $-1 $463 reversed single #
loop $-1 $-1 $464 $239 #
plane-surface $-1 0 0 7.2233051379160917 0 0 1 1 0 0 forward_v I I I I #
coedge $-1 $465 $242 $246 $361 forward $147 $-1 #
coedge $-1 $242 $465 $466 $467 reversed $147 $-1 #
edge $-1 $468 -4.3616525689580463 $359 -1.3616525689580459 $242 $469 forward 7 unknown #
coedge $-1 $244 $243 $464 $470 reversed $93 $-1 #
edge $-1 $253 1.3616525689580459 $471 4.3616525689580463 $249 $472 forward 7 unknown #
vertex $-1 $361 $473 #
straight-curve $-1 0 -15.900265553645578 4.2233051379160917 1 0 0 I I #
edge $-1 $359 6.413540879000017 $364 12.559908470291106 $354 $474 forward 7 unknown #
coedge $-1 $475 $247 $250 $367 reversed $240 $-1 #
coedge $-1 $247 $475 $465 $476 forward $240 $-1 #
vertex $-1 $248 $477 #
straight-curve $-1 0 -22.046633144936667 4.2233051379160917 1 0 0 I I #
coedge $-1 $250 $249 $478 $479 reversed $251 $-1 #
edge $-1 $480 -7.2233051379160917 $252 -4.2233051379160917 $250 $481 forward 7 unknown #
point $-1 44.445936460463273 -22.046633144936667 4.2233051379160917 #
point $-1 44.445936460463273 -15.900265553645578 4.2233051379160917 #
loop $-1 $-1 $263 $255 #
plane-surface $-1 -44.445936460463273 0 0 1 0 0 0 0 -1 forward_v I I I I #
coedge $-1 $373 $258 $260 $377 reversed $155 $-1 #
coedge $-1 $258 $372 $482 $483 reversed $155 $-1 #
coedge $-1 $266 $261 $258 $375 forward $256 $-1 #
edge $-1 $378 -10.345893776539121 $484 -3.2701739435990476 $374 $485 forward 7 unknown #
coedge $-1 $260 $259 $381 $486 reversed $97 $-1 #
edge $-1 $487 -1.7244671030687178e-014 $378 8.6378590238297352 $372 $488 forward 7 unknown #
vertex $-1 $262 $489 #
straight-curve $-1 -37.370216627523199 -3.1635106881233774 7.2233051379160926 0 1 0 I I #
coedge $-1 $482 $263 $266 $385 reversed $370 $-1 #
coedge $-1 $263 $482 $376 $486 forward $370 $-1 #
vertex $-1 $264 $490 #
straight-curve $-1 -44.445936460463273 -10.588507658723731 37.542395820607915 0 0 1 I I #
straight-curve $-1 -44.445936460463258 -10.588507658723731 2.2688326774723464 -0.81915203911291934 0 -0.57357644374324357 I I #
edge $-1 $484 2.0655350937697783 $267 10.588507658723731 $380 $491 forward 7 unknown #
point $-1 -44.445936460463273 -10.588507658723731 7.2233051379160917 #
point $-1 -37.370216627523199 -10.588507658723731 7.2233051379160917 #
edge $-1 $492 1 $492 0 $270 $-1 forward 7 unknown #
vertex $-1 $271 $493 #
ellipse-curve $-1 -40.117126758827126 -8.1533726401654576 3.616475570271906 -0.57357644374324357 0 0.81915203911291934 0.40957601955645967 0 0.28678822187162178 1 I I #
point $-1 -40.498500524436793 -8.1533726401654576 5.0328571295658504 #
edge $-1 $494 1 $494 0 $274 $-1 forward 7 unknown #
vertex $-1 $275 $495 #
ellipse-curve $-1 -40.117126758827126 -4.5006701123280486 3.616475570271906 -0.57357644374324357 0 0.81915203911291934 0.40957601955645967 0 0.28678822187162178 1 I I #
point $-1 -40.498500524436793 -4.5006701123280486 5.0328571295658504 #
loop $-1 $-1 $286 $278 #
plane-surface $-1 -44.445936460463273 0 0 1 0 0 0 0 -1 forward_v I I I I #
coedge $-1 $399 $281 $283 $403 reversed $177 $-1 #
coedge $-1 $281 $398 $496 $497 reversed $177 $-1 #
coedge $-1 $289 $284 $281 $401 forward $279 $-1 #
edge $-1 $404 -10.345893776539121 $498 -3.2701739435990476 $400 $499 forward 7 unknown #
coedge $-1 $283 $282 $407 $500 reversed $111 $-1 #
edge $-1 $501 -1.7244671030687178e-014 $404 8.6378590238297352 $398 $502 forward 7 unknown #
vertex $-1 $285 $503 #
straight-curve $-1 -37.370216627523199 6.3232139865221821 7.2233051379160926 0 1 0 I I #
coedge $-1 $496 $286 $289 $411 reversed $396 $-1 #
coedge $-1 $286 $496 $402 $500 forward $396 $-1 #
vertex $-1 $287 $504 #
straight-curve $-1 -44.445936460463273 8.3849416905673877 37.542395820607915 0 0 1 I I #
straight-curve $-1 -44.445936460463258 8.3849416905673877 2.2688326774723464 -0.81915203911291934 0 -0.57357644374324357 I I #
edge $-1 $498 -16.907914255521341 $290 -8.3849416905673877 $406 $505 forward 7 unknown #
point $-1 -44.445936460463273 8.3849416905673877 7.2233051379160917 #
point $-1 -37.370216627523199 8.3849416905673877 7.2233051379160917 #
edge $-1 $506 1 $506 0 $293 $-1 forward 7 unknown #
vertex $-1 $294 $507 #
ellipse-curve $-1 -40.117126758827126 10.820076709125669 3.616475570271906 -0.57357644374324357 0 0.81915203911291934 0.40957601955645967 0 0.28678822187162178 1 I I #
point $-1 -40.498500524436793 10.820076709125669 5.0328571295658504 #
edge $-1 $508 1 $508 0 $297 $-1 forward 7 unknown #
vertex $-1 $298 $509 #
ellipse-curve $-1 -40.117126758827126 14.472779236963074 3.616475570271906 -0.57357644374324357 0 0.81915203911291934 0.40957601955645967 0 0.28678822187162178 1 I I #
point $-1 -40.498500524436793 14.472779236963074 5.0328571295658504 #
loop $-1 $-1 $309 $301 #
plane-surface $-1 44.445936460463273 0 0 -1 0 0 0 0 1 forward_v I I I I #
coedge $-1 $425 $304 $510 $511 reversed $199 $-1 #
coedge $-1 $304 $424 $428 $512 reversed $199 $-1 #
edge $-1 $513 -88.891872920926545 $429 -81.868129270118956 $304 $514 forward 7 unknown #
coedge $-1 $306 $305 $432 $515 reversed $125 $-1 #
coedge $-1 $312 $307 $425 $512 forward $302 $-1 #
vertex $-1 $512 $516 #
straight-curve $-1 38.555329416286021 -6.1533410127829242 7.2233051379160891 0 -1 0 I I #
coedge $-1 $510 $309 $312 $436 reversed $422 $-1 #
coedge $-1 $309 $510 $427 $515 forward $422 $-1 #
vertex $-1 $310 $517 #
straight-curve $-1 44.445936460463273 -8.7130984974861185 63.181440891336202 0 0 1 I I #
straight-curve $-1 -30.105060675930424 -8.7130984974861185 51.811884646278699 0.83867056331134215 0 -0.54463904215088732 I I #
edge $-1 $518 -15.900265553645578 $313 -8.7130984974861185 $431 $519 forward 7 unknown #
point $-1 44.445936460463273 -8.7130984974861185 7.2233051379160917 #
point $-1 38.555329416286021 -8.7130984974861185 7.2233051379160855 #
edge $-1 $520 1 $520 0 $316 $-1 forward 7 unknown #
vertex $-1 $317 $521 #
ellipse-curve $-1 40.080967872022853 -13.846789251885733 3.1245101754662934 0.54463904215088732 0 0.83867056331134215 0.83867056331134215 0 -0.54463904215088732 1 I I #
point $-1 42.339303501685997 -13.846789251885733 4.7659635886205933 #
edge $-1 $522 1 $522 0 $320 $-1 forward 7 unknown #
vertex $-1 $321 $523 #
ellipse-curve $-1 40.080967872022853 -10.766574799245964 3.1245101754662934 0.54463904215088732 0 0.83867056331134215 0.83867056331134215 0 -0.54463904215088732 1 I I #
point $-1 42.339303501685997 -10.766574799245964 4.7659635886205933 #
plane-surface $-1 44.445936460463273 0 0 -1 0 0 0 0 1 forward_v I I I I #
coedge $-1 $329 $327 $331 $452 reversed $221 $-1 #
edge $-1 $342 -7.2233051379160917 $454 7.2233051379160917 $341 $524 forward 7 unknown #
vertex $-1 $452 $525 #
straight-curve $-1 -44.445936460463273 -22.046633144936667 0 0 0 -1 I I #
edge $-1 $450 -22.046633144936667 $454 22.046633144936667 $448 $526 forward 7 unknown #
straight-curve $-1 0 -22.046633144936667 -7.2233051379160917 -1 0 0 I I #
vertex $-1 $334 $527 #
straight-curve $-1 0 22.046633144936667 -7.2233051379160917 1 0 0 I I #
point $-1 44.445936460463273 22.046633144936667 -7.2233051379160917 #
point $-1 44.445936460463273 -22.046633144936667 -7.2233051379160917 #
straight-curve $-1 -44.445936460463273 0 7.2233051379160917 0 -1 0 I I #
point $-1 -44.445936460463273 22.046633144936667 7.2233051379160917 #
point $-1 -44.445936460463273 -22.046633144936667 7.2233051379160917 #
straight-curve $-1 44.445936460463273 -22.046633144936667 0 0 0 -1 I I #
straight-curve $-1 44.445936460463273 22.046633144936667 0 0 0 -1 I I #
plane-surface $-1 44.445936460463273 0 0 -1 0 0 0 0 1 forward_v I I I I #
coedge $-1 $466 $478 $357 $470 forward $352 $-1 #
coedge $-1 $355 $354 $363 $476 reversed $147 $-1 #
coedge $-1 $528 $464 $355 $467 forward $352 $-1 #
edge $-1 $468 15.900265553645578 $529 22.046633144936667 $355 $530 forward 7 unknown #
vertex $-1 $467 $531 #
straight-curve $-1 -44.445936460463273 -15.900265553645578 2.8616525689580459 0 0 -1 I I #
edge $-1 $471 -44.445936460463273 $468 44.445936460463273 $464 $532 forward 7 unknown #
vertex $-1 $358 $533 #
straight-curve $-1 44.445936460463273 -15.900265553645578 2.8616525689580459 0 0 1 I I #
point $-1 -44.445936460463273 -15.900265553645578 4.2233051379160917 #
straight-curve $-1 -44.445936460463273 -9.4867246746455614 4.2233051379160917 0 -1 0 I I #
coedge $-1 $363 $362 $528 $534 reversed $240 $-1 #
edge $-1 $529 -7.2233051379160917 $364 -4.2233051379160917 $465 $535 forward 7 unknown #
point $-1 -44.445936460463273 -22.046633144936667 4.2233051379160917 #
coedge $-1 $464 $528 $366 $479 forward $352 $-1 #
edge $-1 $480 -22.046633144936667 $471 -15.900265553645578 $366 $536 forward 7 unknown #
vertex $-1 $479 $537 #
straight-curve $-1 44.445936460463273 -22.046633144936667 0 0 0 -1 I I #
coedge $-1 $381 $380 $373 $483 forward $370 $-1 #
edge $-1 $484 30.319090682691822 $487 35.273563143135576 $482 $538 forward 7 unknown #
vertex $-1 $385 $539 #
straight-curve $-1 -47.71611040406232 -2.0655350937697783 7.2233051379160926 -1 0 0 I I #
edge $-1 $487 -1.0979755943535991 $382 7.424996970600354 $381 $540 forward 7 unknown #
vertex $-1 $486 $541 #
straight-curve $-1 -44.445936460463258 -2.0655350937697783 2.2688326774723464 0.81915203911291934 0 0.57357644374324357 I I #
point $-1 -37.370216627523199 -2.0655350937697783 7.2233051379160917 #
point $-1 -44.445936460463273 -10.588507658723731 2.2688326774723366 #
straight-curve $-1 -44.445936460463273 0 7.2233051379160917 0 -1 0 I I #
vertex $-1 $388 $542 #
point $-1 -39.707550739270665 -8.1533726401654576 3.9032637921435276 #
vertex $-1 $392 $543 #
point $-1 -39.707550739270665 -4.5006701123280486 3.9032637921435276 #
coedge $-1 $407 $406 $399 $497 forward $396 $-1 #
edge $-1 $498 30.319090682691822 $501 35.273563143135576 $496 $544 forward 7 unknown #
vertex $-1 $411 $545 #
straight-curve $-1 -47.71611040406232 16.907914255521341 7.2233051379160926 -1 0 0 I I #
edge $-1 $501 -10.584700268999159 $408 -2.0617277040452056 $407 $546 forward 7 unknown #
vertex $-1 $500 $547 #
straight-curve $-1 -44.445936460463258 16.907914255521341 2.2688326774723464 0.81915203911291934 0 0.57357644374324357 I I #
point $-1 -37.370216627523199 16.907914255521341 7.2233051379160917 #
point $-1 -44.445936460463273 8.3849416905673877 2.2688326774723366 #
straight-curve $-1 -44.445936460463273 0 7.2233051379160917 0 -1 0 I I #
vertex $-1 $414 $548 #
point $-1 -39.707550739270665 10.820076709125669 3.9032637921435276 #
vertex $-1 $418 $549 #
point $-1 -39.707550739270665 14.472779236963074 3.9032637921435276 #
coedge $-1 $432 $431 $424 $511 forward $422 $-1 #
edge $-1 $518 55.958135753420109 $513 59.783540767709333 $510 $550 forward 7 unknown #
edge $-1 $429 38.555329416286021 $518 44.445936460463273 $428 $551 forward 7 unknown #
vertex $-1 $511 $552 #
straight-curve $-1 -30.105060675930424 -15.900265553645578 51.811884646278699 -0.83867056331134215 0 0.54463904215088732 I I #
edge $-1 $513 -9.7469245408626541 $433 -2.5597574847031943 $432 $553 forward 7 unknown #
point $-1 38.555329416286021 -15.900265553645578 7.2233051379160855 #
point $-1 44.44593646046328 -8.7130984974861185 3.3979001236268687 #
vertex $-1 $436 $554 #
straight-curve $-1 44.445936460463273 0 7.2233051379160917 0 1 0 I I #
vertex $-1 $439 $555 #
point $-1 40.919638435334193 -13.846789251885733 2.5798711333154061 #
vertex $-1 $443 $556 #
point $-1 40.919638435334193 -10.766574799245964 2.5798711333154061 #
straight-curve $-1 -44.445936460463273 22.046633144936667 0 0 0 -1 I I #
point $-1 -44.445936460463273 -22.046633144936667 -7.2233051379160917 #
straight-curve $-1 -44.445936460463273 0 -7.2233051379160917 0 1 0 I I #
point $-1 -44.445936460463273 22.046633144936667 -7.2233051379160917 #
coedge $-1 $478 $466 $475 $534 forward $352 $-1 #
vertex $-1 $467 $557 #
straight-curve $-1 -44.445936460463273 0 7.2233051379160917 0 -1 0 I I #
point $-1 -44.445936460463273 -15.900265553645578 7.2233051379160917 #
straight-curve $-1 0 -15.900265553645578 7.2233051379160917 -1 0 0 I I #
point $-1 44.445936460463273 -15.900265553645578 7.2233051379160917 #
edge $-1 $529 -44.445936460463273 $480 44.445936460463273 $475 $558 forward 7 unknown #
straight-curve $-1 -44.445936460463273 -22.046633144936667 0 0 0 -1 I I #
straight-curve $-1 44.445936460463273 0 7.2233051379160917 0 1 0 I I #
point $-1 44.445936460463273 -22.046633144936667 7.2233051379160917 #
straight-curve $-1 -44.445936460463273 -2.0655350937697783 37.542395820607915 0 0 -1 I I #
point $-1 -44.445936460463273 -2.0655350937697783 7.2233051379160917 #
straight-curve $-1 -44.445936460463273 -3.1635106881233774 2.268832677472334 0 -1 0 I I #
point $-1 -44.445936460463273 -2.0655350937697783 2.2688326774723366 #
point $-1 -39.830338536955509 -8.1533726401654576 3.2068995507154461 #
point $-1 -39.830338536955509 -4.5006701123280486 3.2068995507154461 #
straight-curve $-1 -44.445936460463273 16.907914255521341 37.542395820607915 0 0 -1 I I #
point $-1 -44.445936460463273 16.907914255521341 7.2233051379160917 #
straight-curve $-1 -44.445936460463273 6.3232139865221821 2.268832677472334 0 -1 0 I I #
point $-1 -44.445936460463273 16.907914255521341 2.2688326774723366 #
point $-1 -39.830338536955509 10.820076709125669 3.2068995507154461 #
point $-1 -39.830338536955509 14.472779236963074 3.2068995507154461 #
straight-curve $-1 44.445936460463273 -15.900265553645578 63.181440891336202 0 0 -1 I I #
straight-curve $-1 0 -15.900265553645578 7.2233051379160917 1 0 0 I I #
point $-1 44.44593646046328 -15.900265553645578 3.3979001236268687 #
straight-curve $-1 44.445936460463273 -6.1533410127829242 3.3979001236268687 0 1 0 I I #
point $-1 44.445936460463273 -15.900265553645578 7.2233051379160917 #
point $-1 39.536328829871962 -13.846789251885733 2.2858396121549514 #
point $-1 39.536328829871962 -10.766574799245964 2.2858396121549514 #
point $-1 -44.445936460463273 -22.046633144936667 7.2233051379160917 #
straight-curve $-1 0 -22.046633144936667 7.2233051379160917 1 0 0 I I #
End-of-ACIS-data 