500 0 9 0           
7 Unknown 11 ACIS 5.0 NT 24 Fri Mar 26 19:48:23 1999 
-1 9.9999999999999995e-007 1e-010 
body $-1 $9 $-1 $10 #
body $-1 $11 $-1 $12 #
body $-1 $13 $-1 $14 #
body $-1 $15 $-1 $16 #
body $-1 $17 $-1 $18 #
body $-1 $19 $-1 $20 #
body $-1 $21 $-1 $22 #
body $-1 $23 $-1 $24 #
body $-1 $25 $-1 $26 #
lump $-1 $-1 $27 $0 #
transform $-1 1 0 0 0 1 0 0 0 1 47.619861445966976 23.708636605646415 11.289079284410446 1 rotate no_reflect no_shear #
lump $-1 $-1 $28 $1 #
transform $-1 1 0 0 0 1 0 0 0 1 47.619861445966976 23.708636605646415 11.289079284410446 1 rotate no_reflect no_shear #
lump $-1 $-1 $29 $2 #
transform $-1 1 0 0 0 1 0 0 0 1 47.619861445966976 23.708636605646415 11.289079284410446 1 rotate no_reflect no_shear #
lump $-1 $-1 $30 $3 #
transform $-1 1 0 0 0 1 0 0 0 1 47.619861445966976 23.708636605646415 11.289079284410446 1 rotate no_reflect no_shear #
lump $-1 $-1 $31 $4 #
transform $-1 1 0 0 0 1 0 0 0 1 47.619861445966976 23.708636605646415 11.289079284410446 1 rotate no_reflect no_shear #
lump $-1 $-1 $32 $5 #
transform $-1 1 0 0 0 1 0 0 0 1 47.619861445966976 23.708636605646415 11.289079284410446 1 rotate no_reflect no_shear #
lump $-1 $-1 $33 $6 #
transform $-1 1 0 0 0 1 0 0 0 1 47.619861445966976 23.708636605646415 11.289079284410446 1 rotate no_reflect no_shear #
lump $-1 $-1 $34 $7 #
transform $-1 1 0 0 0 1 0 0 0 1 47.619861445966976 23.708636605646415 11.289079284410446 1 rotate no_reflect no_shear #
lump $-1 $-1 $35 $8 #
transform $-1 1 0 0 0 1 0 0 0 1 47.619861445966976 23.708636605646415 11.289079284410446 1 rotate no_reflect no_shear #
shell $-1 $-1 $-1 $36 $-1 $9 #
shell $-1 $-1 $-1 $37 $-1 $11 #
shell $-1 $-1 $-1 $38 $-1 $13 #
shell $-1 $-1 $-1 $39 $-1 $15 #
shell $-1 $-1 $-1 $40 $-1 $17 #
shell $-1 $-1 $-1 $41 $-1 $19 #
shell $-1 $-1 $-1 $42 $-1 $21 #
shell $-1 $-1 $-1 $43 $-1 $23 #
shell $-1 $-1 $-1 $44 $-1 $25 #
face $-1 $45 $46 $27 $-1 $47 forward single #
face $-1 $48 $49 $28 $-1 $50 forward single #
face $-1 $51 $52 $29 $-1 $53 reversed single #
face $-1 $54 $55 $30 $-1 $56 reversed single #
face $-1 $57 $58 $31 $-1 $59 forward single #
face $-1 $60 $61 $32 $-1 $62 forward single #
face $-1 $63 $64 $33 $-1 $65 reversed single #
face $-1 $66 $67 $34 $-1 $68 forward single #
face $-1 $69 $70 $35 $-1 $71 forward single #
face $-1 $72 $73 $27 $-1 $74 reversed single #
loop $-1 $-1 $75 $36 #
plane-surface $-1 0 0 11.289079284410446 0 0 1 1 0 0 forward_v I I I I #
face $-1 $76 $77 $28 $-1 $78 reversed single #
loop $-1 $-1 $79 $37 #
plane-surface $-1 0 -19.7029858703043 5.023370002134973 0 0 1 1 0 0 forward_v I I I I #
face $-1 $80 $81 $29 $-1 $82 reversed single #
loop $-1 $-1 $83 $38 #
plane-surface $-1 0 18.663485851195734 6.8249197360898854 0 0 1 1 0 0 forward_v I I I I #
face $-1 $84 $85 $30 $-1 $86 reversed single #
loop $-1 $-1 $87 $39 #
plane-surface $-1 49.970515585505808 8.0325628028968374 141.21212486430449 0 -1 0 -0.71933980857756763 0 -0.69465836192734942 forward_v I I I I #
face $-1 $88 $89 $31 $-1 $90 forward single #
loop $-1 $91 $92 $40 #
cone-surface $-1 44.844775017975131 3.5102903019722191 8.4491704803051579 -0.71933980857756763 0 -0.69465836192734942 0.34732918096367471 0 -0.35966990428878381 1 I I 0 1 0.5 forward I I I I #
face $-1 $93 $94 $32 $-1 $95 forward single #
loop $-1 $96 $97 $41 #
cone-surface $-1 44.844775017975131 6.2236538025269894 8.4491704803051579 -0.71933980857756763 0 -0.69465836192734942 0.34732918096367471 0 -0.35966990428878381 1 I I 0 1 0.5 forward I I I I #
face $-1 $98 $99 $33 $-1 $100 reversed single #
loop $-1 $-1 $101 $42 #
plane-surface $-1 -114.96451612255096 -9.9499314217618497 74.272246003140879 0 1 0 -0.70710678939079041 0 0.70710677298230451 forward_v I I I I #
face $-1 $102 $103 $34 $-1 $104 forward single #
loop $-1 $105 $106 $43 #
cone-surface $-1 -44.137713361290601 -7.9329389189782979 7.8069311793289371 0.70710678939079041 0 -0.70710677298230451 0.70710677298230451 0 0.70710678939079041 1 I I 0 1 1 forward I I I I #
face $-1 $107 $108 $35 $-1 $109 forward single #
loop $-1 $110 $111 $44 #
cone-surface $-1 -44.137713361290601 -4.9074501648029702 7.8069311793289371 0.70710678939079041 0 -0.70710677298230451 0.70710677298230451 0 0.70710678939079041 1 I I 0 1 1 forward I I I I #
face $-1 $112 $113 $27 $-1 $114 reversed single #
loop $-1 $-1 $115 $45 #
plane-surface $-1 0 0 -11.289079284410446 0 0 1 1 0 0 forward_v I I I I #
coedge $-1 $116 $117 $118 $119 forward $46 $-1 #
face $-1 $120 $121 $28 $-1 $122 reversed single #
loop $-1 $-1 $123 $48 #
plane-surface $-1 0 -19.7029858703043 -0.087671325549250056 0 0 1 1 0 0 forward_v I I I I #
coedge $-1 $124 $125 $126 $127 reversed $49 $-1 #
face $-1 $128 $129 $29 $-1 $130 reversed single #
loop $-1 $-1 $131 $51 #
plane-surface $-1 0 13.618335096745053 9.0569995102501668 0 1 0 0 0 1 forward_v I I I I #
coedge $-1 $132 $133 $134 $135 reversed $52 $-1 #
face $-1 $136 $137 $30 $-1 $138 reversed single #
loop $-1 $-1 $139 $54 #
plane-surface $-1 -18.53920844855854 4.8669720522496043 75.05305496977897 0.71933980857756763 0 0.69465836192734942 0.69465836192734942 0 -0.71933980857756763 forward_v I I I I #
coedge $-1 $140 $141 $142 $143 reversed $55 $-1 #
face $-1 $-1 $144 $31 $-1 $145 forward single #
loop $-1 $146 $147 $57 #
cone-surface $-1 44.181311537648 3.5102903019722191 7.8084712600659589 -0.71933980857756763 0 -0.69465836192734942 0.17366459048183736 0 -0.17983495214439191 1 I I -0.70710678118654746 0.70710678118654746 0.25 forward I I I I #
loop $-1 $-1 $148 $40 #
coedge $-1 $92 $92 $149 $150 reversed $58 $-1 #
face $-1 $-1 $151 $32 $-1 $152 forward single #
loop $-1 $153 $154 $60 #
cone-surface $-1 44.181311537648 6.2236538025269894 7.8084712600659589 -0.71933980857756763 0 -0.69465836192734942 0.17366459048183736 0 -0.17983495214439191 1 I I -0.70710678118654746 0.70710678118654746 0.25 forward I I I I #
loop $-1 $-1 $155 $41 #
coedge $-1 $97 $97 $156 $157 reversed $61 $-1 #
face $-1 $158 $159 $33 $-1 $160 reversed single #
loop $-1 $-1 $161 $63 #
plane-surface $-1 -47.619861445966976 -6.4201945418906341 6.9275928892965482 -0.70710678939079041 0 0.70710677298230451 0.70710677298230451 0 0.70710678939079041 forward_v I I I I #
coedge $-1 $162 $163 $164 $165 reversed $64 $-1 #
face $-1 $-1 $166 $34 $-1 $167 forward single #
loop $-1 $168 $169 $66 #
cone-surface $-1 -42.482755028871409 -7.9329389189782979 6.1519728853132225 0.70710678939079041 0 -0.70710677298230451 0.35355338649115226 0 0.35355339469539521 1 I I -0.70710678118654746 0.70710678118654746 0.5 forward I I I I #
loop $-1 $-1 $170 $43 #
coedge $-1 $106 $106 $171 $172 reversed $67 $-1 #
face $-1 $-1 $173 $35 $-1 $174 forward single #
loop $-1 $175 $176 $69 #
cone-surface $-1 -42.482755028871409 -4.9074501648029702 6.1519728853132225 0.70710678939079041 0 -0.70710677298230451 0.35355338649115226 0 0.35355339469539521 1 I I -0.70710678118654746 0.70710678118654746 0.5 forward I I I I #
loop $-1 $-1 $177 $44 #
coedge $-1 $111 $111 $178 $179 reversed $70 $-1 #
face $-1 $180 $181 $27 $-1 $182 reversed single #
loop $-1 $-1 $183 $72 #
plane-surface $-1 0 -23.708636605646415 0 0 1 0 0 0 1 forward_v I I I I #
coedge $-1 $184 $185 $186 $187 forward $73 $-1 #
coedge $-1 $188 $75 $189 $190 forward $46 $-1 #
coedge $-1 $75 $188 $191 $192 forward $46 $-1 #
coedge $-1 $193 $194 $75 $119 reversed $195 $-1 #
edge $-1 $196 -23.708636605646415 $197 23.708636605646415 $118 $198 forward 7 unknown #
face $-1 $199 $200 $28 $-1 $201 reversed single #
loop $-1 $-1 $202 $76 #
plane-surface $-1 0 -15.697335134962184 2.4678493382928615 0 -1 0 0 0 -1 forward_v I I I I #
coedge $-1 $203 $204 $205 $206 reversed $77 $-1 #
coedge $-1 $207 $79 $208 $209 forward $49 $-1 #
coedge $-1 $79 $207 $210 $211 reversed $49 $-1 #
coedge $-1 $212 $213 $79 $127 forward $214 $-1 #
edge $-1 $215 5.8458421998100345 $216 13.857143670494265 $126 $217 forward 7 unknown #
face $-1 $218 $219 $29 $-1 $220 reversed single #
loop $-1 $-1 $221 $80 #
plane-surface $-1 47.619861445966976 0 0 -1 0 0 0 0 1 forward_v I I I I #
coedge $-1 $222 $223 $224 $225 reversed $81 $-1 #
coedge $-1 $226 $83 $222 $227 forward $52 $-1 #
coedge $-1 $83 $226 $228 $229 reversed $52 $-1 #
coedge $-1 $230 $221 $83 $135 forward $129 $-1 #
edge $-1 $231 4.2865921711471859 $232 14.376893680048548 $134 $233 forward 7 unknown #
face $-1 $234 $235 $30 $-1 $236 forward single #
loop $-1 $-1 $237 $84 #
plane-surface $-1 49.970515585505808 1.7013813016023711 141.21212486430449 0 1 0 0.71933980857756763 0 0.69465836192734942 forward_v I I I I #
coedge $-1 $238 $239 $240 $241 reversed $85 $-1 #
coedge $-1 $141 $87 $242 $243 reversed $55 $-1 #
coedge $-1 $87 $140 $238 $244 reversed $55 $-1 #
coedge $-1 $240 $245 $87 $143 forward $235 $-1 #
edge $-1 $246 -22.634603653214072 $247 -18.051687853595872 $142 $248 forward 7 unknown #
loop $-1 $-1 $149 $88 #
plane-surface $-1 -18.53920844855854 4.8669720522496043 75.05305496977897 0.71933980857756763 0 0.69465836192734942 0.69465836192734942 0 -0.71933980857756763 forward_v I I I I #
loop $-1 $-1 $249 $57 #
coedge $-1 $147 $147 $148 $250 reversed $89 $-1 #
coedge $-1 $148 $148 $147 $250 forward $91 $-1 #
coedge $-1 $149 $149 $92 $150 forward $144 $-1 #
edge $-1 $251 0 $251 6.2831853071796004 $149 $252 forward 7 unknown #
loop $-1 $-1 $156 $93 #
plane-surface $-1 -18.53920844855854 4.8669720522496043 75.05305496977897 0.71933980857756763 0 0.69465836192734942 0.69465836192734942 0 -0.71933980857756763 forward_v I I I I #
loop $-1 $-1 $253 $60 #
coedge $-1 $154 $154 $155 $254 reversed $94 $-1 #
coedge $-1 $155 $155 $154 $254 forward $96 $-1 #
coedge $-1 $156 $156 $97 $157 forward $151 $-1 #
edge $-1 $255 0 $255 6.2831853071796004 $156 $256 forward 7 unknown #
face $-1 $257 $258 $33 $-1 $259 reversed single #
loop $-1 $-1 $260 $98 #
plane-surface $-1 -114.96451612255096 -2.8904576620194184 74.272246003140879 0 -1 0 0.70710678939079041 0 -0.70710677298230451 forward_v I I I I #
coedge $-1 $261 $262 $263 $264 reversed $99 $-1 #
coedge $-1 $163 $101 $265 $266 reversed $64 $-1 #
coedge $-1 $101 $162 $261 $267 reversed $64 $-1 #
coedge $-1 $263 $268 $101 $165 forward $269 $-1 #
edge $-1 $270 9.862396615308505 $271 14.223882909213664 $164 $272 forward 7 unknown #
loop $-1 $-1 $171 $102 #
plane-surface $-1 -47.619861445966976 -6.4201945418906341 6.9275928892965482 -0.70710678939079041 0 0.70710677298230451 0.70710677298230451 0 0.70710678939079041 forward_v I I I I #
loop $-1 $-1 $273 $66 #
coedge $-1 $169 $169 $170 $274 reversed $103 $-1 #
coedge $-1 $170 $170 $169 $274 forward $105 $-1 #
coedge $-1 $171 $171 $106 $172 forward $166 $-1 #
edge $-1 $275 0 $275 6.2831853071796004 $171 $276 forward 7 unknown #
loop $-1 $-1 $178 $107 #
plane-surface $-1 -47.619861445966976 -6.4201945418906341 6.9275928892965482 -0.70710678939079041 0 0.70710677298230451 0.70710677298230451 0 0.70710678939079041 forward_v I I I I #
loop $-1 $-1 $277 $69 #
coedge $-1 $176 $176 $177 $278 reversed $108 $-1 #
coedge $-1 $177 $177 $176 $278 forward $110 $-1 #
coedge $-1 $178 $178 $111 $179 forward $173 $-1 #
edge $-1 $279 0 $279 6.2831853071796004 $178 $280 forward 7 unknown #
face $-1 $281 $282 $27 $-1 $283 reversed single #
loop $-1 $-1 $284 $112 #
plane-surface $-1 -47.619861445966976 0 0 1 0 0 0 0 -1 forward_v I I I I #
coedge $-1 $285 $191 $286 $287 forward $113 $-1 #
coedge $-1 $288 $115 $285 $289 forward $73 $-1 #
coedge $-1 $115 $288 $290 $291 forward $73 $-1 #
coedge $-1 $194 $193 $115 $187 reversed $195 $-1 #
edge $-1 $292 -23.708636605646415 $293 23.708636605646415 $186 $294 forward 7 unknown #
coedge $-1 $117 $116 $295 $296 forward $46 $-1 #
coedge $-1 $297 $298 $116 $190 reversed $282 $-1 #
edge $-1 $197 -47.619861445966976 $299 47.619861445966976 $189 $300 forward 7 unknown #
coedge $-1 $183 $301 $117 $192 reversed $113 $-1 #
edge $-1 $302 -47.619861445966976 $196 47.619861445966976 $191 $303 forward 7 unknown #
coedge $-1 $186 $118 $301 $304 forward $195 $-1 #
coedge $-1 $118 $186 $297 $305 reversed $195 $-1 #
loop $-1 $-1 $193 $281 #
vertex $-1 $119 $306 #
vertex $-1 $119 $307 #
straight-curve $-1 47.619861445966976 0 11.289079284410446 0 1 0 I I #
face $-1 $308 $309 $28 $-1 $310 reversed single #
loop $-1 $-1 $311 $120 #
plane-surface $-1 -47.619861445966976 0 0 1 0 0 0 0 -1 forward_v I I I I #
coedge $-1 $312 $208 $213 $313 reversed $121 $-1 #
coedge $-1 $314 $123 $315 $316 reversed $77 $-1 #
coedge $-1 $123 $314 $312 $317 forward $77 $-1 #
coedge $-1 $213 $212 $123 $206 forward $214 $-1 #
edge $-1 $318 -13.857143670494265 $319 -5.8458421998100345 $205 $320 forward 7 unknown #
coedge $-1 $125 $124 $311 $321 reversed $49 $-1 #
coedge $-1 $202 $322 $124 $209 reversed $121 $-1 #
edge $-1 $215 -47.619861445966976 $323 47.619861445966976 $208 $324 forward 7 unknown #
coedge $-1 $325 $326 $125 $211 forward $309 $-1 #
edge $-1 $216 -47.619861445966976 $327 47.619861445966976 $210 $328 forward 7 unknown #
coedge $-1 $205 $126 $326 $329 forward $214 $-1 #
coedge $-1 $126 $205 $202 $313 forward $214 $-1 #
loop $-1 $-1 $126 $308 #
vertex $-1 $127 $330 #
vertex $-1 $329 $331 #
straight-curve $-1 47.619861445966976 -9.8514929351521499 5.023370002134973 0 -1 0 I I #
face $-1 $332 $333 $29 $-1 $334 forward single #
loop $-1 $-1 $228 $128 #
plane-surface $-1 0 23.708636605646415 0 0 -1 0 0 0 -1 forward_v I I I I #
coedge $-1 $134 $335 $336 $337 forward $129 $-1 #
coedge $-1 $336 $131 $132 $227 reversed $81 $-1 #
coedge $-1 $131 $336 $338 $339 reversed $81 $-1 #
coedge $-1 $340 $341 $131 $225 forward $342 $-1 #
edge $-1 $343 2.296419980964802 $344 6.7605795292853648 $224 $345 forward 7 unknown #
coedge $-1 $133 $132 $341 $346 reversed $52 $-1 #
edge $-1 $231 -47.619861445966976 $343 47.619861445966976 $222 $347 forward 7 unknown #
coedge $-1 $348 $349 $133 $229 forward $219 $-1 #
edge $-1 $232 -47.619861445966976 $350 47.619861445966976 $228 $351 forward 7 unknown #
coedge $-1 $335 $134 $349 $352 reversed $129 $-1 #
vertex $-1 $135 $353 #
vertex $-1 $229 $354 #
straight-curve $-1 47.619861445966976 9.331742925597867 6.8249197360898854 0 1 0 I I #
face $-1 $-1 $355 $30 $-1 $356 reversed single #
loop $-1 $-1 $142 $136 #
plane-surface $-1 0 0 11.289079284410446 0 0 1 1 0 0 forward_v I I I I #
coedge $-1 $357 $358 $359 $360 reversed $137 $-1 #
coedge $-1 $361 $139 $141 $244 forward $85 $-1 #
coedge $-1 $139 $361 $357 $362 forward $85 $-1 #
coedge $-1 $359 $142 $139 $241 forward $235 $-1 #
edge $-1 $247 -5.5990767767720353 $363 0.73210472452243103 $240 $364 forward 7 unknown #
coedge $-1 $365 $366 $140 $243 forward $355 $-1 #
edge $-1 $367 -64.062731496437621 $246 -59.316983147741794 $242 $368 forward 7 unknown #
edge $-1 $247 88.642356401012051 $367 95.239722891933951 $141 $369 forward 7 unknown #
coedge $-1 $142 $359 $365 $370 forward $235 $-1 #
vertex $-1 $243 $371 #
vertex $-1 $143 $372 #
straight-curve $-1 24.985257792752904 8.0325628028968374 11.289079284410448 -1 0 0 I I #
coedge $-1 $249 $249 $-1 $373 reversed $146 $-1 #
edge $-1 $374 0 $374 6.2831853071796004 $147 $375 forward 7 unknown #
vertex $-1 $150 $376 #
ellipse-curve $-1 45.32840354615788 3.5102903019722191 8.916205110062533 0.71933980857756763 0 0.69465836192734942 0.34732918096367471 0 -0.35966990428878381 1 I I #
coedge $-1 $253 $253 $-1 $377 reversed $153 $-1 #
edge $-1 $378 0 $378 6.2831853071796004 $154 $379 forward 7 unknown #
vertex $-1 $157 $380 #
ellipse-curve $-1 45.32840354615788 6.2236538025269894 8.916205110062533 0.71933980857756763 0 0.69465836192734942 0.34732918096367471 0 -0.35966990428878381 1 I I #
face $-1 $-1 $269 $33 $-1 $381 forward single #
loop $-1 $-1 $382 $158 #
plane-surface $-1 -47.619861445966976 0 0 1 0 0 0 0 -1 forward_v I I I I #
coedge $-1 $383 $384 $385 $386 reversed $159 $-1 #
coedge $-1 $387 $161 $163 $267 forward $99 $-1 #
coedge $-1 $161 $387 $383 $388 forward $99 $-1 #
coedge $-1 $385 $164 $161 $264 forward $269 $-1 #
edge $-1 $271 -6.7398341508165327 $389 0.3196396089258986 $263 $390 forward 7 unknown #
coedge $-1 $391 $392 $162 $266 forward $258 $-1 #
edge $-1 $393 -30.208530112273891 $270 -25.847043717159991 $265 $394 forward 7 unknown #
edge $-1 $271 -6.1680731405104305 $393 0 $163 $395 forward 7 unknown #
coedge $-1 $164 $385 $391 $396 forward $269 $-1 #
loop $-1 $-1 $385 $257 #
vertex $-1 $266 $397 #
vertex $-1 $165 $398 #
straight-curve $-1 -57.482258061275481 -9.9499314217618497 11.289079284410448 1 0 0 I I #
coedge $-1 $273 $273 $-1 $399 reversed $168 $-1 #
edge $-1 $400 0 $400 6.2831853071796004 $169 $401 forward 7 unknown #
vertex $-1 $172 $402 #
ellipse-curve $-1 -45.439118299014396 -7.9329389189782979 9.1083360868534982 -0.70710678939079041 0 0.70710677298230451 0.70710677298230451 0 0.70710678939079041 1 I I #
coedge $-1 $277 $277 $-1 $403 reversed $175 $-1 #
edge $-1 $404 0 $404 6.2831853071796004 $176 $405 forward 7 unknown #
vertex $-1 $179 $406 #
ellipse-curve $-1 -45.439118299014396 -4.9074501648029702 9.1083360868534982 -0.70710678939079041 0 0.70710677298230451 0.70710677298230451 0 0.70710678939079041 1 I I #
face $-1 $-1 $195 $27 $-1 $407 reversed single #
loop $-1 $-1 $297 $180 #
plane-surface $-1 0 23.708636605646415 0 0 -1 0 0 0 -1 forward_v I I I I #
coedge $-1 $408 $295 $298 $409 forward $181 $-1 #
coedge $-1 $301 $183 $184 $289 reversed $113 $-1 #
coedge $-1 $295 $408 $183 $287 reversed $181 $-1 #
edge $-1 $302 -11.289079284410446 $410 11.289079284410446 $286 $411 forward 7 unknown #
coedge $-1 $185 $184 $408 $412 forward $73 $-1 #
edge $-1 $293 -47.619861445966976 $410 47.619861445966976 $285 $413 forward 7 unknown #
coedge $-1 $298 $297 $185 $291 reversed $282 $-1 #
edge $-1 $414 -47.619861445966976 $292 47.619861445966976 $290 $415 forward 7 unknown #
vertex $-1 $187 $416 #
vertex $-1 $304 $417 #
straight-curve $-1 47.619861445966976 0 -11.289079284410446 0 -1 0 I I #
coedge $-1 $284 $286 $188 $296 reversed $181 $-1 #
edge $-1 $299 -23.708636605646415 $302 23.708636605646415 $295 $418 forward 7 unknown #
coedge $-1 $290 $189 $194 $305 forward $282 $-1 #
coedge $-1 $189 $290 $284 $409 reversed $282 $-1 #
vertex $-1 $190 $419 #
straight-curve $-1 0 23.708636605646415 11.289079284410446 -1 0 0 I I #
coedge $-1 $191 $285 $193 $304 reversed $113 $-1 #
vertex $-1 $296 $420 #
straight-curve $-1 0 -23.708636605646415 11.289079284410446 1 0 0 I I #
edge $-1 $196 -11.289079284410446 $293 11.289079284410446 $193 $421 forward 7 unknown #
edge $-1 $197 -11.289079284410446 $292 11.289079284410446 $194 $422 forward 7 unknown #
point $-1 47.619861445966976 -23.708636605646415 11.289079284410446 #
point $-1 47.619861445966976 23.708636605646415 11.289079284410446 #
face $-1 $-1 $214 $28 $-1 $423 reversed single #
loop $-1 $-1 $210 $199 #
plane-surface $-1 0 -23.708636605646415 0 0 1 0 0 0 1 forward_v I I I I #
coedge $-1 $424 $425 $207 $321 forward $200 $-1 #
coedge $-1 $322 $202 $204 $317 reversed $121 $-1 #
edge $-1 $319 -1.3215959946956808 $215 3.7894453329885422 $213 $426 forward 7 unknown #
coedge $-1 $204 $203 $427 $428 reversed $77 $-1 #
coedge $-1 $326 $325 $203 $316 forward $309 $-1 #
edge $-1 $429 -47.619861445966976 $318 47.619861445966976 $315 $430 forward 7 unknown #
edge $-1 $431 -47.619861445966976 $319 47.619861445966976 $312 $432 forward 7 unknown #
vertex $-1 $316 $433 #
vertex $-1 $206 $434 #
straight-curve $-1 47.619861445966976 -9.8514929351521499 -0.087671325549250056 0 1 0 I I #
edge $-1 $327 -13.857143670494265 $323 -5.8458421998100345 $311 $435 forward 7 unknown #
coedge $-1 $208 $312 $424 $436 reversed $121 $-1 #
vertex $-1 $321 $437 #
straight-curve $-1 0 -15.697335134962184 5.023370002134973 -1 0 0 I I #
coedge $-1 $315 $210 $425 $438 forward $309 $-1 #
coedge $-1 $210 $315 $212 $329 reversed $309 $-1 #
vertex $-1 $438 $439 #
straight-curve $-1 0 -23.708636605646415 5.023370002134973 -1 0 0 I I #
edge $-1 $216 -5.023370002134973 $318 0.087671325549250056 $212 $440 forward 7 unknown #
point $-1 47.619861445966976 -15.697335134962184 5.023370002134973 #
point $-1 47.619861445966976 -23.708636605646415 5.023370002134973 #
face $-1 $-1 $342 $29 $-1 $441 reversed single #
loop $-1 $-1 $338 $218 #
plane-surface $-1 0 0 11.289079284410446 0 0 1 1 0 0 forward_v I I I I #
coedge $-1 $221 $230 $442 $443 reversed $129 $-1 #
coedge $-1 $223 $222 $221 $337 reversed $81 $-1 #
edge $-1 $444 -6.7605795292853648 $231 -2.296419980964802 $221 $445 forward 7 unknown #
coedge $-1 $442 $446 $223 $339 forward $333 $-1 #
edge $-1 $344 -47.619861445966976 $444 47.619861445966976 $338 $447 forward 7 unknown #
coedge $-1 $448 $224 $446 $449 reversed $342 $-1 #
coedge $-1 $224 $448 $226 $346 forward $342 $-1 #
loop $-1 $-1 $224 $332 #
vertex $-1 $346 $450 #
vertex $-1 $225 $451 #
straight-curve $-1 -47.619861445966976 13.618335096745053 4.5284997551250834 0 0 1 I I #
edge $-1 $350 -14.376893680048548 $343 -4.2865921711471859 $341 $452 forward 7 unknown #
straight-curve $-1 0 13.618335096745053 6.8249197360898854 -1 0 0 I I #
coedge $-1 $453 $228 $448 $454 reversed $219 $-1 #
coedge $-1 $228 $453 $230 $352 forward $219 $-1 #
vertex $-1 $229 $455 #
straight-curve $-1 0 23.708636605646415 6.8249197360898854 -1 0 0 I I #
edge $-1 $456 -11.289079284410446 $232 -6.8249197360898854 $230 $457 forward 7 unknown #
point $-1 47.619861445966976 13.618335096745053 6.8249197360898854 #
point $-1 47.619861445966976 23.708636605646415 6.8249197360898854 #
loop $-1 $-1 $242 $234 #
plane-surface $-1 47.619861445966976 0 0 -1 0 0 0 0 1 forward_v I I I I #
coedge $-1 $358 $237 $239 $362 reversed $137 $-1 #
coedge $-1 $237 $357 $458 $459 reversed $137 $-1 #
coedge $-1 $245 $240 $237 $360 forward $235 $-1 #
edge $-1 $363 18.051687853595872 $460 22.634603653214072 $359 $461 forward 7 unknown #
coedge $-1 $239 $238 $366 $462 reversed $85 $-1 #
edge $-1 $463 -95.239722891933951 $363 -88.642356401012051 $357 $464 forward 7 unknown #
vertex $-1 $241 $465 #
straight-curve $-1 43.036945646348762 2.4334860261248021 11.289079284410455 0 -1 0 I I #
coedge $-1 $458 $242 $245 $370 reversed $355 $-1 #
coedge $-1 $242 $458 $361 $462 forward $355 $-1 #
vertex $-1 $243 $466 #
straight-curve $-1 47.619861445966976 8.0325628028968374 70.606062432152243 0 0 1 I I #
straight-curve $-1 -18.53920844855854 8.0325628028968374 75.05305496977897 0.69465836192734942 0 -0.71933980857756763 I I #
edge $-1 $460 1.7013813016023711 $246 8.0325628028968374 $365 $467 forward 7 unknown #
point $-1 47.619861445966976 8.0325628028968374 11.289079284410446 #
point $-1 43.036945646348777 8.0325628028968374 11.289079284410441 #
edge $-1 $468 1 $468 0 $249 $-1 forward 7 unknown #
vertex $-1 $250 $469 #
ellipse-curve $-1 44.36114648979239 3.5102903019722191 7.9821358505477962 0.71933980857756763 0 0.69465836192734942 0.34732918096367471 0 -0.35966990428878381 1 I I #
point $-1 45.675732727121542 3.5102903019722191 8.5565352057737378 #
edge $-1 $470 1 $470 0 $253 $-1 forward 7 unknown #
vertex $-1 $254 $471 #
ellipse-curve $-1 44.36114648979239 6.2236538025269894 7.9821358505477962 0.71933980857756763 0 0.69465836192734942 0.34732918096367471 0 -0.35966990428878381 1 I I #
point $-1 45.675732727121542 6.2236538025269894 8.5565352057737378 #
plane-surface $-1 0 0 11.289079284410446 0 0 1 1 0 0 forward_v I I I I #
coedge $-1 $392 $391 $384 $472 forward $258 $-1 #
coedge $-1 $384 $260 $262 $388 reversed $159 $-1 #
coedge $-1 $260 $383 $382 $472 reversed $159 $-1 #
coedge $-1 $268 $263 $260 $386 forward $269 $-1 #
edge $-1 $389 -14.223882909213664 $473 -9.862396615308505 $385 $474 forward 7 unknown #
coedge $-1 $262 $261 $392 $475 reversed $99 $-1 #
edge $-1 $476 0 $389 6.1680731405104305 $383 $477 forward 7 unknown #
vertex $-1 $264 $478 #
straight-curve $-1 -43.258375152061816 -3.210097270945317 11.289079284410445 0 1 0 I I #
coedge $-1 $382 $265 $268 $396 reversed $258 $-1 #
coedge $-1 $265 $382 $387 $475 forward $258 $-1 #
vertex $-1 $266 $479 #
straight-curve $-1 -47.619861445966976 -9.9499314217618497 37.136123001570439 0 0 1 I I #
straight-curve $-1 -47.619861445966976 -9.9499314217618497 6.9275928892965482 -0.70710677298230451 0 -0.70710678939079041 I I #
edge $-1 $473 2.8904576620194184 $270 9.9499314217618497 $391 $480 forward 7 unknown #
point $-1 -47.619861445966976 -9.9499314217618497 11.289079284410446 #
point $-1 -43.258375152061816 -9.9499314217618497 11.289079284410446 #
edge $-1 $481 1 $481 0 $273 $-1 forward 7 unknown #
vertex $-1 $274 $482 #
ellipse-curve $-1 -42.836308423566805 -7.9329389189782979 6.5055262718043751 -0.70710678939079041 0 0.70710677298230451 0.70710677298230451 0 0.70710678939079041 1 I I #
point $-1 -44.732011526032096 -7.9329389189782979 9.8154428762442905 #
edge $-1 $483 1 $483 0 $277 $-1 forward 7 unknown #
vertex $-1 $278 $484 #
ellipse-curve $-1 -42.836308423566805 -4.9074501648029702 6.5055262718043751 -0.70710678939079041 0 0.70710677298230451 0.70710677298230451 0 0.70710678939079041 1 I I #
point $-1 -44.732011526032096 -4.9074501648029702 9.8154428762442905 #
plane-surface $-1 47.619861445966976 0 0 -1 0 0 0 0 1 forward_v I I I I #
coedge $-1 $286 $284 $288 $412 reversed $181 $-1 #
edge $-1 $299 -11.289079284410446 $414 11.289079284410446 $298 $485 forward 7 unknown #
vertex $-1 $412 $486 #
straight-curve $-1 -47.619861445966976 -23.708636605646415 0 0 0 -1 I I #
edge $-1 $410 -23.708636605646415 $414 23.708636605646415 $408 $487 forward 7 unknown #
straight-curve $-1 0 -23.708636605646415 -11.289079284410446 -1 0 0 I I #
vertex $-1 $291 $488 #
straight-curve $-1 0 23.708636605646415 -11.289079284410446 1 0 0 I I #
point $-1 47.619861445966976 23.708636605646415 -11.289079284410446 #
point $-1 47.619861445966976 -23.708636605646415 -11.289079284410446 #
straight-curve $-1 -47.619861445966976 0 11.289079284410446 0 -1 0 I I #
point $-1 -47.619861445966976 23.708636605646415 11.289079284410446 #
point $-1 -47.619861445966976 -23.708636605646415 11.289079284410446 #
straight-curve $-1 47.619861445966976 -23.708636605646415 0 0 0 -1 I I #
straight-curve $-1 47.619861445966976 23.708636605646415 0 0 0 -1 I I #
plane-surface $-1 47.619861445966976 0 0 -1 0 0 0 0 1 forward_v I I I I #
coedge $-1 $427 $311 $322 $436 forward $200 $-1 #
coedge $-1 $311 $427 $325 $438 reversed $200 $-1 #
straight-curve $-1 47.619861445966976 -15.697335134962184 1.2339246691464307 0 0 1 I I #
coedge $-1 $425 $424 $314 $428 forward $200 $-1 #
edge $-1 $431 5.8458421998100345 $429 13.857143670494265 $427 $489 forward 7 unknown #
vertex $-1 $316 $490 #
straight-curve $-1 0 -23.708636605646415 -0.087671325549250056 1 0 0 I I #
vertex $-1 $428 $491 #
straight-curve $-1 0 -15.697335134962184 -0.087671325549250056 1 0 0 I I #
point $-1 47.619861445966976 -23.708636605646415 -0.087671325549250056 #
point $-1 47.619861445966976 -15.697335134962184 -0.087671325549250056 #
straight-curve $-1 -47.619861445966976 -9.8514929351521499 5.023370002134973 0 1 0 I I #
edge $-1 $323 -3.7894453329885422 $431 1.3215959946956808 $424 $492 forward 7 unknown #
point $-1 -47.619861445966976 -15.697335134962184 5.023370002134973 #
edge $-1 $327 -5.023370002134973 $429 0.087671325549250056 $425 $493 forward 7 unknown #
point $-1 -47.619861445966976 -23.708636605646415 5.023370002134973 #
straight-curve $-1 47.619861445966976 -23.708636605646415 0 0 0 -1 I I #
plane-surface $-1 -47.619861445966976 0 0 1 0 0 0 0 -1 forward_v I I I I #
coedge $-1 $494 $338 $335 $443 forward $333 $-1 #
edge $-1 $444 13.618335096745053 $456 23.708636605646415 $335 $495 forward 7 unknown #
vertex $-1 $443 $496 #
straight-curve $-1 47.619861445966976 13.618335096745053 4.5284997551250834 0 0 -1 I I #
coedge $-1 $338 $494 $340 $449 forward $333 $-1 #
straight-curve $-1 0 13.618335096745053 11.289079284410446 1 0 0 I I #
coedge $-1 $341 $340 $348 $454 forward $342 $-1 #
edge $-1 $497 -23.708636605646415 $344 -13.618335096745053 $340 $498 forward 7 unknown #
point $-1 -47.619861445966976 13.618335096745053 6.8249197360898854 #
point $-1 -47.619861445966976 13.618335096745053 11.289079284410448 #
straight-curve $-1 -47.619861445966976 9.331742925597867 6.8249197360898854 0 -1 0 I I #
coedge $-1 $349 $348 $494 $499 reversed $219 $-1 #
edge $-1 $497 -11.289079284410446 $350 -6.8249197360898854 $348 $500 forward 7 unknown #
point $-1 -47.619861445966976 23.708636605646415 6.8249197360898854 #
vertex $-1 $443 $501 #
straight-curve $-1 47.619861445966976 23.708636605646415 0 0 0 -1 I I #
coedge $-1 $366 $365 $358 $459 forward $355 $-1 #
edge $-1 $460 59.316983147741794 $463 64.062731496437621 $458 $502 forward 7 unknown #
vertex $-1 $370 $503 #
straight-curve $-1 24.985257792752904 1.7013813016023711 11.289079284410448 1 0 0 I I #
edge $-1 $463 -0.73210472452243103 $367 5.5990767767720353 $366 $504 forward 7 unknown #
vertex $-1 $462 $505 #
straight-curve $-1 -18.53920844855854 1.7013813016023711 75.05305496977897 -0.69465836192734942 0 0.71933980857756763 I I #
point $-1 43.036945646348777 1.7013813016023711 11.289079284410441 #
point $-1 47.619861445966976 8.0325628028968374 6.5433309357146214 #
straight-curve $-1 47.619861445966976 0 11.289079284410446 0 1 0 I I #
vertex $-1 $373 $506 #
point $-1 44.708475670756066 3.5102903019722191 7.6224659462590125 #
vertex $-1 $377 $507 #
point $-1 44.708475670756066 6.2236538025269894 7.6224659462590125 #
edge $-1 $473 25.847043717159991 $476 30.208530112273891 $382 $508 forward 7 unknown #
vertex $-1 $396 $509 #
straight-curve $-1 -57.482258061275481 -2.8904576620194184 11.289079284410448 -1 0 0 I I #
edge $-1 $476 -0.3196396089258986 $393 6.7398341508165327 $392 $510 forward 7 unknown #
vertex $-1 $475 $511 #
straight-curve $-1 -47.619861445966976 -2.8904576620194184 6.9275928892965482 0.70710677298230451 0 0.70710678939079041 I I #
point $-1 -43.258375152061816 -2.8904576620194184 11.289079284410446 #
point $-1 -47.619861445966976 -9.9499314217618497 6.9275928892965482 #
straight-curve $-1 -47.619861445966976 0 11.289079284410446 0 -1 0 I I #
vertex $-1 $399 $512 #
point $-1 -42.129201650584498 -7.9329389189782979 7.2126330611951648 #
vertex $-1 $403 $513 #
point $-1 -42.129201650584498 -4.9074501648029702 7.2126330611951648 #
straight-curve $-1 -47.619861445966976 23.708636605646415 0 0 0 -1 I I #
point $-1 -47.619861445966976 -23.708636605646415 -11.289079284410446 #
straight-curve $-1 -47.619861445966976 0 -11.289079284410446 0 1 0 I I #
point $-1 -47.619861445966976 23.708636605646415 -11.289079284410446 #
straight-curve $-1 -47.619861445966976 -9.8514929351521499 -0.087671325549250056 0 -1 0 I I #
point $-1 -47.619861445966976 -23.708636605646415 -0.087671325549250056 #
point $-1 -47.619861445966976 -15.697335134962184 -0.087671325549250056 #
straight-curve $-1 -47.619861445966976 -15.697335134962184 1.2339246691464307 0 0 -1 I I #
straight-curve $-1 -47.619861445966976 -23.708636605646415 0 0 0 -1 I I #
coedge $-1 $446 $442 $453 $499 forward $333 $-1 #
straight-curve $-1 47.619861445966976 0 11.289079284410446 0 1 0 I I #
point $-1 47.619861445966976 13.618335096745053 11.289079284410448 #
vertex $-1 $499 $514 #
straight-curve $-1 -47.619861445966976 0 11.289079284410446 0 -1 0 I I #
edge $-1 $456 -47.619861445966976 $497 47.619861445966976 $453 $515 forward 7 unknown #
straight-curve $-1 -47.619861445966976 23.708636605646415 0 0 0 -1 I I #
point $-1 47.619861445966976 23.708636605646415 11.289079284410446 #
straight-curve $-1 47.619861445966976 1.7013813016023711 70.606062432152243 0 0 -1 I I #
point $-1 47.619861445966976 1.7013813016023711 11.289079284410446 #
straight-curve $-1 47.619861445966976 2.4334860261248021 6.5433309357146214 0 1 0 I I #
point $-1 47.619861445966976 1.7013813016023711 6.5433309357146214 #
point $-1 44.00147658550361 3.5102903019722191 7.6348066695841217 #
point $-1 44.00147658550361 6.2236538025269894 7.6348066695841217 #
straight-curve $-1 -47.619861445966976 -2.8904576620194184 37.136123001570439 0 0 -1 I I #
point $-1 -47.619861445966976 -2.8904576620194184 11.289079284410446 #
straight-curve $-1 -47.619861445966976 -3.210097270945317 6.9275928892965446 0 -1 0 I I #
point $-1 -47.619861445966976 -2.8904576620194184 6.9275928892965482 #
point $-1 -42.129201634176013 -7.9329389189782979 5.7984194988220699 #
point $-1 -42.129201634176013 -4.9074501648029702 5.7984194988220699 #
point $-1 -47.619861445966976 23.708636605646415 11.289079284410446 #
straight-curve $-1 0 23.708636605646415 11.289079284410446 -1 0 0 I I #
End-of-ACIS-data 