500 0 8 0           
7 Unknown 11 ACIS 5.0 NT 24 Fri Mar 26 18:25:05 1999 
-1 9.9999999999999995e-007 1e-010 
body $-1 $8 $-1 $9 #
body $-1 $10 $-1 $11 #
body $-1 $12 $-1 $13 #
body $-1 $14 $-1 $15 #
body $-1 $16 $-1 $17 #
body $-1 $18 $-1 $19 #
body $-1 $20 $-1 $21 #
body $-1 $22 $-1 $23 #
lump $-1 $-1 $24 $0 #
transform $-1 1 0 0 0 1 0 0 0 1 70.998260444959868 39.674695507781678 9.6338302196620056 1 rotate no_reflect no_shear #
lump $-1 $-1 $25 $1 #
transform $-1 1 0 0 0 1 0 0 0 1 70.998260444959868 39.674695507781678 9.6338302196620056 1 rotate no_reflect no_shear #
lump $-1 $-1 $26 $2 #
transform $-1 1 0 0 0 1 0 0 0 1 70.998260444959868 39.674695507781678 9.6338302196620056 1 rotate no_reflect no_shear #
lump $-1 $-1 $27 $3 #
transform $-1 1 0 0 0 1 0 0 0 1 70.998260444959868 39.674695507781678 9.6338302196620056 1 rotate no_reflect no_shear #
lump $-1 $-1 $28 $4 #
transform $-1 1 0 0 0 1 0 0 0 1 70.998260444959868 39.674695507781678 9.6338302196620056 1 rotate no_reflect no_shear #
lump $-1 $-1 $29 $5 #
transform $-1 1 0 0 0 1 0 0 0 1 70.998260444959868 39.674695507781678 9.6338302196620056 1 rotate no_reflect no_shear #
lump $-1 $-1 $30 $6 #
transform $-1 1 0 0 0 1 0 0 0 1 70.998260444959868 39.674695507781678 9.6338302196620056 1 rotate no_reflect no_shear #
lump $-1 $-1 $31 $7 #
transform $-1 1 0 0 0 1 0 0 0 1 70.998260444959868 39.674695507781678 9.6338302196620056 1 rotate no_reflect no_shear #
shell $-1 $-1 $-1 $32 $-1 $8 #
shell $-1 $-1 $-1 $33 $-1 $10 #
shell $-1 $-1 $-1 $34 $-1 $12 #
shell $-1 $-1 $-1 $35 $-1 $14 #
shell $-1 $-1 $-1 $36 $-1 $16 #
shell $-1 $-1 $-1 $37 $-1 $18 #
shell $-1 $-1 $-1 $38 $-1 $20 #
shell $-1 $-1 $-1 $39 $-1 $22 #
face $-1 $40 $41 $24 $-1 $42 forward single #
face $-1 $43 $44 $25 $-1 $45 forward single #
face $-1 $46 $47 $26 $-1 $48 reversed single #
face $-1 $49 $50 $27 $-1 $51 forward single #
face $-1 $52 $53 $28 $-1 $54 forward single #
face $-1 $55 $56 $29 $-1 $57 reversed single #
face $-1 $58 $59 $30 $-1 $60 forward single #
face $-1 $61 $62 $31 $-1 $63 forward single #
face $-1 $64 $65 $24 $-1 $66 reversed single #
loop $-1 $-1 $67 $32 #
plane-surface $-1 0 0 9.6338302196620056 0 0 1 1 0 0 forward_v I I I I #
face $-1 $68 $69 $25 $-1 $70 reversed single #
loop $-1 $-1 $71 $33 #
plane-surface $-1 0 -35.662877181464793 -1.9461418495503415 0 0 1 1 0 0 forward_v I I I I #
face $-1 $72 $73 $26 $-1 $74 reversed single #
loop $-1 $-1 $75 $34 #
plane-surface $-1 -148.33510957120421 18.766603379488814 119.51102738955859 0 1 0 -0.54463904215088732 0 0.83867056331134215 forward_v I I I I #
face $-1 $76 $77 $27 $-1 $78 forward single #
loop $-1 $79 $80 $35 #
cone-surface $-1 -61.790455427153177 22.840432788027002 1.7701141226024877 0.54463904215088732 0 -0.83867056331134215 1.6773411266226843 0 1.0892780843017746 1 I I 0 1 2 forward I I I I #
face $-1 $81 $82 $28 $-1 $83 forward single #
loop $-1 $84 $85 $36 #
cone-surface $-1 -61.790455427153177 28.951176900834284 1.7701141226024877 0.54463904215088732 0 -0.83867056331134215 1.6773411266226843 0 1.0892780843017746 1 I I 0 1 2 forward I I I I #
face $-1 $86 $87 $29 $-1 $88 reversed single #
loop $-1 $-1 $89 $37 #
plane-surface $-1 -50.716513490796316 31.659554468703902 78.703749432430328 0.51503808176128008 0 0.85716729658548041 0.85716729658548041 0 -0.51503808176128008 forward_v I I I I #
face $-1 $90 $91 $30 $-1 $92 forward single #
loop $-1 $93 $94 $38 #
cone-surface $-1 67.288964917129078 28.224494023384864 7.0565439650611008 -0.51503808176128008 0 -0.85716729658548041 0.85716729658548041 0 -0.51503808176128008 1 I I 0 1 1 forward I I I I #
face $-1 $95 $96 $31 $-1 $97 forward single #
loop $-1 $98 $99 $39 #
cone-surface $-1 67.288964917129078 35.094614914022955 7.0565439650611008 -0.51503808176128008 0 -0.85716729658548041 0.85716729658548041 0 -0.51503808176128008 1 I I 0 1 1 forward I I I I #
face $-1 $100 $101 $24 $-1 $102 reversed single #
loop $-1 $-1 $103 $40 #
plane-surface $-1 0 0 -9.6338302196620056 0 0 1 1 0 0 forward_v I I I I #
coedge $-1 $104 $105 $106 $107 forward $41 $-1 #
face $-1 $108 $109 $25 $-1 $110 reversed single #
loop $-1 $-1 $111 $43 #
plane-surface $-1 0 -35.662877181464793 -6.0167122219134033 0 0 1 1 0 0 forward_v I I I I #
coedge $-1 $112 $113 $114 $115 reversed $44 $-1 #
face $-1 $116 $117 $26 $-1 $118 reversed single #
loop $-1 $-1 $119 $46 #
plane-surface $-1 -70.998260444959868 25.895804844430643 0.42272522655883904 -0.54463904215088732 0 0.83867056331134215 0.83867056331134215 0 0.54463904215088732 forward_v I I I I #
coedge $-1 $120 $121 $122 $123 reversed $47 $-1 #
face $-1 $-1 $124 $27 $-1 $125 forward single #
loop $-1 $126 $127 $49 #
cone-surface $-1 -59.129940163539189 22.840432788027002 -2.3267200412168023 0.54463904215088732 0 -0.83867056331134215 0.83867056331134215 0 0.54463904215088732 1 I I -0.70710678118654746 0.70710678118654746 1 forward I I I I #
loop $-1 $-1 $128 $35 #
coedge $-1 $80 $80 $129 $130 reversed $50 $-1 #
face $-1 $-1 $131 $28 $-1 $132 forward single #
loop $-1 $133 $134 $52 #
cone-surface $-1 -59.129940163539189 28.951176900834284 -2.3267200412168023 0.54463904215088732 0 -0.83867056331134215 0.83867056331134215 0 0.54463904215088732 1 I I -0.70710678118654746 0.70710678118654746 1 forward I I I I #
loop $-1 $-1 $135 $36 #
coedge $-1 $85 $85 $136 $137 reversed $53 $-1 #
face $-1 $138 $139 $29 $-1 $140 forward single #
loop $-1 $-1 $141 $55 #
plane-surface $-1 22.417102245123473 23.644413429626134 200.41852336818653 0 1 0 0.51503808176128008 0 0.85716729658548041 forward_v I I I I #
coedge $-1 $142 $143 $144 $145 reversed $56 $-1 #
face $-1 $-1 $146 $30 $-1 $147 forward single #
loop $-1 $148 $149 $58 #
cone-surface $-1 66.703713660184604 28.224494023384864 6.0825223237431949 -0.51503808176128008 0 -0.85716729658548041 0.4285836482927402 0 -0.25751904088064004 1 I I -0.70710678118654691 0.70710678118654813 0.5 forward I I I I #
loop $-1 $-1 $150 $38 #
coedge $-1 $94 $94 $151 $152 reversed $59 $-1 #
face $-1 $-1 $153 $31 $-1 $154 forward single #
loop $-1 $155 $156 $61 #
cone-surface $-1 66.703713660184604 35.094614914022955 6.0825223237431949 -0.51503808176128008 0 -0.85716729658548041 0.4285836482927402 0 -0.25751904088064004 1 I I -0.70710678118654691 0.70710678118654813 0.5 forward I I I I #
loop $-1 $-1 $157 $39 #
coedge $-1 $99 $99 $158 $159 reversed $62 $-1 #
face $-1 $160 $161 $24 $-1 $162 reversed single #
loop $-1 $-1 $163 $64 #
plane-surface $-1 0 -39.674695507781678 0 0 1 0 0 0 1 forward_v I I I I #
coedge $-1 $164 $165 $166 $167 forward $65 $-1 #
coedge $-1 $168 $67 $169 $170 forward $41 $-1 #
coedge $-1 $67 $168 $171 $172 forward $41 $-1 #
coedge $-1 $173 $174 $67 $107 reversed $175 $-1 #
edge $-1 $176 -39.674695507781678 $177 39.674695507781678 $106 $178 forward 7 unknown #
face $-1 $179 $180 $25 $-1 $181 reversed single #
loop $-1 $-1 $182 $68 #
plane-surface $-1 0 -31.651058855147909 -3.9814270357318726 0 -1 0 0 0 -1 forward_v I I I I #
coedge $-1 $183 $184 $185 $186 reversed $69 $-1 #
coedge $-1 $187 $71 $188 $189 forward $44 $-1 #
coedge $-1 $71 $187 $190 $191 reversed $44 $-1 #
coedge $-1 $192 $193 $71 $115 forward $194 $-1 #
edge $-1 $195 13.819620264415512 $196 21.843256917049281 $114 $197 forward 7 unknown #
face $-1 $198 $199 $26 $-1 $200 reversed single #
loop $-1 $-1 $201 $72 #
plane-surface $-1 -148.33510957120421 33.025006309372472 119.51102738955859 0 -1 0 0.54463904215088732 0 -0.83867056331134215 forward_v I I I I #
coedge $-1 $202 $203 $204 $205 reversed $73 $-1 #
coedge $-1 $121 $75 $206 $207 reversed $47 $-1 #
coedge $-1 $75 $120 $202 $208 reversed $47 $-1 #
coedge $-1 $204 $209 $75 $123 forward $210 $-1 #
edge $-1 $211 3.1692943406422387 $212 17.353151933329443 $122 $213 forward 7 unknown #
loop $-1 $-1 $129 $76 #
plane-surface $-1 -70.998260444959868 25.895804844430643 0.42272522655883904 -0.54463904215088732 0 0.83867056331134215 0.83867056331134215 0 0.54463904215088732 forward_v I I I I #
loop $-1 $-1 $214 $49 #
coedge $-1 $127 $127 $128 $215 reversed $77 $-1 #
coedge $-1 $128 $128 $127 $215 forward $79 $-1 #
coedge $-1 $129 $129 $80 $130 forward $124 $-1 #
edge $-1 $216 0 $216 6.2831853071796004 $129 $217 forward 7 unknown #
loop $-1 $-1 $136 $81 #
plane-surface $-1 -70.998260444959868 25.895804844430643 0.42272522655883904 -0.54463904215088732 0 0.83867056331134215 0.83867056331134215 0 0.54463904215088732 forward_v I I I I #
loop $-1 $-1 $218 $52 #
coedge $-1 $134 $134 $135 $219 reversed $82 $-1 #
coedge $-1 $135 $135 $134 $219 forward $84 $-1 #
coedge $-1 $136 $136 $85 $137 forward $131 $-1 #
edge $-1 $220 0 $220 6.2831853071796004 $136 $221 forward 7 unknown #
face $-1 $222 $223 $29 $-1 $224 reversed single #
loop $-1 $-1 $144 $86 #
plane-surface $-1 0 0 9.6338302196620056 0 0 1 1 0 0 forward_v I I I I #
coedge $-1 $225 $226 $227 $228 reversed $87 $-1 #
coedge $-1 $229 $89 $230 $231 reversed $56 $-1 #
coedge $-1 $89 $229 $225 $232 forward $56 $-1 #
coedge $-1 $227 $233 $89 $145 forward $139 $-1 #
edge $-1 $234 -23.84491827342972 $235 -7.8146361952741827 $144 $236 forward 7 unknown #
loop $-1 $-1 $151 $90 #
plane-surface $-1 -50.716513490796316 31.659554468703902 78.703749432430328 0.51503808176128008 0 0.85716729658548041 0.85716729658548041 0 -0.51503808176128008 forward_v I I I I #
loop $-1 $-1 $237 $58 #
coedge $-1 $149 $149 $150 $238 reversed $91 $-1 #
coedge $-1 $150 $150 $149 $238 forward $93 $-1 #
coedge $-1 $151 $151 $94 $152 forward $146 $-1 #
edge $-1 $239 0 $239 6.2831853071796004 $151 $240 forward 7 unknown #
loop $-1 $-1 $158 $95 #
plane-surface $-1 -50.716513490796316 31.659554468703902 78.703749432430328 0.51503808176128008 0 0.85716729658548041 0.85716729658548041 0 -0.51503808176128008 forward_v I I I I #
loop $-1 $-1 $241 $61 #
coedge $-1 $156 $156 $157 $242 reversed $96 $-1 #
coedge $-1 $157 $157 $156 $242 forward $98 $-1 #
coedge $-1 $158 $158 $99 $159 forward $153 $-1 #
edge $-1 $243 0 $243 6.2831853071796004 $158 $244 forward 7 unknown #
face $-1 $245 $246 $24 $-1 $247 reversed single #
loop $-1 $-1 $248 $100 #
plane-surface $-1 -70.998260444959868 0 0 1 0 0 0 0 -1 forward_v I I I I #
coedge $-1 $249 $171 $250 $251 forward $101 $-1 #
coedge $-1 $252 $103 $249 $253 forward $65 $-1 #
coedge $-1 $103 $252 $254 $255 forward $65 $-1 #
coedge $-1 $174 $173 $103 $167 reversed $175 $-1 #
edge $-1 $256 -39.674695507781678 $257 39.674695507781678 $166 $258 forward 7 unknown #
coedge $-1 $105 $104 $259 $260 forward $41 $-1 #
coedge $-1 $261 $262 $104 $170 reversed $246 $-1 #
edge $-1 $177 -70.998260444959868 $263 70.998260444959868 $169 $264 forward 7 unknown #
coedge $-1 $163 $265 $105 $172 reversed $101 $-1 #
edge $-1 $266 -70.998260444959868 $176 70.998260444959868 $171 $267 forward 7 unknown #
coedge $-1 $166 $106 $265 $268 forward $175 $-1 #
coedge $-1 $106 $166 $261 $269 reversed $175 $-1 #
loop $-1 $-1 $173 $245 #
vertex $-1 $107 $270 #
vertex $-1 $107 $271 #
straight-curve $-1 70.998260444959868 0 9.6338302196620056 0 1 0 I I #
face $-1 $272 $273 $25 $-1 $274 reversed single #
loop $-1 $-1 $275 $108 #
plane-surface $-1 -70.998260444959868 0 0 1 0 0 0 0 -1 forward_v I I I I #
coedge $-1 $276 $188 $193 $277 reversed $109 $-1 #
coedge $-1 $278 $111 $279 $280 reversed $69 $-1 #
coedge $-1 $111 $278 $276 $281 forward $69 $-1 #
coedge $-1 $193 $192 $111 $186 forward $194 $-1 #
edge $-1 $282 -21.843256917049281 $283 -13.819620264415512 $185 $284 forward 7 unknown #
coedge $-1 $113 $112 $275 $285 reversed $44 $-1 #
coedge $-1 $182 $286 $112 $189 reversed $109 $-1 #
edge $-1 $195 -70.998260444959868 $287 70.998260444959868 $188 $288 forward 7 unknown #
coedge $-1 $289 $290 $113 $191 forward $273 $-1 #
edge $-1 $196 -70.998260444959868 $291 70.998260444959868 $190 $292 forward 7 unknown #
coedge $-1 $185 $114 $290 $293 forward $194 $-1 #
coedge $-1 $114 $185 $182 $277 forward $194 $-1 #
loop $-1 $-1 $114 $272 #
vertex $-1 $115 $294 #
vertex $-1 $293 $295 #
straight-curve $-1 70.998260444959868 -17.831438590732397 -1.9461418495503415 0 -1 0 I I #
face $-1 $-1 $210 $26 $-1 $296 forward single #
loop $-1 $-1 $297 $116 #
plane-surface $-1 -70.998260444959868 0 0 1 0 0 0 0 -1 forward_v I I I I #
coedge $-1 $298 $299 $300 $301 reversed $117 $-1 #
coedge $-1 $302 $119 $121 $208 forward $73 $-1 #
coedge $-1 $119 $302 $298 $303 forward $73 $-1 #
coedge $-1 $300 $122 $119 $205 forward $210 $-1 #
edge $-1 $212 5.8187009572734922 $304 20.077103887157151 $204 $305 forward 7 unknown #
coedge $-1 $306 $307 $120 $207 forward $199 $-1 #
edge $-1 $308 -59.332788468220457 $211 -50.121683475117294 $206 $309 forward 7 unknown #
edge $-1 $212 -16.9123112377818 $308 0 $121 $310 forward 7 unknown #
coedge $-1 $122 $300 $306 $311 forward $210 $-1 #
loop $-1 $-1 $300 $198 #
vertex $-1 $207 $312 #
vertex $-1 $123 $313 #
straight-curve $-1 -74.167554785602107 18.766603379488814 9.633830219662002 1 0 0 I I #
coedge $-1 $214 $214 $-1 $314 reversed $126 $-1 #
edge $-1 $315 0 $315 6.2831853071796004 $127 $316 forward 7 unknown #
vertex $-1 $130 $317 #
ellipse-curve $-1 -63.906331648616273 22.840432788027002 5.0282777231104205 -0.54463904215088732 0 0.83867056331134215 1.6773411266226843 0 1.0892780843017746 1 I I #
coedge $-1 $218 $218 $-1 $318 reversed $133 $-1 #
edge $-1 $319 0 $319 6.2831853071796004 $134 $320 forward 7 unknown #
vertex $-1 $137 $321 #
ellipse-curve $-1 -63.906331648616273 28.951176900834284 5.0282777231104205 -0.54463904215088732 0 0.83867056331134215 1.6773411266226843 0 1.0892780843017746 1 I I #
face $-1 $-1 $322 $29 $-1 $323 reversed single #
loop $-1 $-1 $324 $138 #
plane-surface $-1 70.998260444959868 0 0 -1 0 0 0 0 1 forward_v I I I I #
coedge $-1 $226 $141 $143 $232 reversed $87 $-1 #
coedge $-1 $141 $225 $325 $326 reversed $87 $-1 #
coedge $-1 $327 $144 $141 $228 forward $139 $-1 #
edge $-1 $235 53.02658269886421 $328 59.789709322398132 $227 $329 forward 7 unknown #
coedge $-1 $143 $142 $324 $330 reversed $56 $-1 #
coedge $-1 $331 $332 $142 $231 forward $322 $-1 #
edge $-1 $333 -99.992538441796597 $234 -92.102449015292805 $230 $334 forward 7 unknown #
edge $-1 $335 -141.99652088991974 $235 -134.10643146341596 $225 $336 forward 7 unknown #
coedge $-1 $144 $327 $331 $337 forward $139 $-1 #
vertex $-1 $231 $338 #
vertex $-1 $145 $339 #
straight-curve $-1 64.235133821425933 15.829777234351951 9.6338302196620091 0 -1 0 I I #
coedge $-1 $237 $237 $-1 $340 reversed $148 $-1 #
edge $-1 $341 0 $341 6.2831853071796004 $149 $342 forward 7 unknown #
vertex $-1 $152 $343 #
ellipse-curve $-1 67.616697133192915 28.224494023384864 7.6019819580862737 0.51503808176128008 0 0.85716729658548041 0.85716729658548041 0 -0.51503808176128008 1 I I #
coedge $-1 $241 $241 $-1 $344 reversed $155 $-1 #
edge $-1 $345 0 $345 6.2831853071796004 $156 $346 forward 7 unknown #
vertex $-1 $159 $347 #
ellipse-curve $-1 67.616697133192915 35.094614914022955 7.6019819580862737 0.51503808176128008 0 0.85716729658548041 0.85716729658548041 0 -0.51503808176128008 1 I I #
face $-1 $-1 $175 $24 $-1 $348 reversed single #
loop $-1 $-1 $261 $160 #
plane-surface $-1 0 39.674695507781678 0 0 -1 0 0 0 -1 forward_v I I I I #
coedge $-1 $349 $259 $262 $350 forward $161 $-1 #
coedge $-1 $265 $163 $164 $253 reversed $101 $-1 #
coedge $-1 $259 $349 $163 $251 reversed $161 $-1 #
edge $-1 $266 -9.6338302196620056 $351 9.6338302196620056 $250 $352 forward 7 unknown #
coedge $-1 $165 $164 $349 $353 forward $65 $-1 #
edge $-1 $257 -70.998260444959868 $351 70.998260444959868 $249 $354 forward 7 unknown #
coedge $-1 $262 $261 $165 $255 reversed $246 $-1 #
edge $-1 $355 -70.998260444959868 $256 70.998260444959868 $254 $356 forward 7 unknown #
vertex $-1 $167 $357 #
vertex $-1 $268 $358 #
straight-curve $-1 70.998260444959868 0 -9.6338302196620056 0 -1 0 I I #
coedge $-1 $248 $250 $168 $260 reversed $161 $-1 #
edge $-1 $263 -39.674695507781678 $266 39.674695507781678 $259 $359 forward 7 unknown #
coedge $-1 $254 $169 $174 $269 forward $246 $-1 #
coedge $-1 $169 $254 $248 $350 reversed $246 $-1 #
vertex $-1 $170 $360 #
straight-curve $-1 0 39.674695507781678 9.6338302196620056 -1 0 0 I I #
coedge $-1 $171 $249 $173 $268 reversed $101 $-1 #
vertex $-1 $260 $361 #
straight-curve $-1 0 -39.674695507781678 9.6338302196620056 1 0 0 I I #
edge $-1 $176 -9.6338302196620056 $257 9.6338302196620056 $173 $362 forward 7 unknown #
edge $-1 $177 -9.6338302196620056 $256 9.6338302196620056 $174 $363 forward 7 unknown #
point $-1 70.998260444959868 -39.674695507781678 9.6338302196620056 #
point $-1 70.998260444959868 39.674695507781678 9.6338302196620056 #
face $-1 $-1 $194 $25 $-1 $364 reversed single #
loop $-1 $-1 $190 $179 #
plane-surface $-1 0 -39.674695507781678 0 0 1 0 0 0 1 forward_v I I I I #
coedge $-1 $365 $366 $187 $285 forward $180 $-1 #
coedge $-1 $286 $182 $184 $281 reversed $109 $-1 #
edge $-1 $283 -4.025998704047467 $195 0.044571668315594781 $193 $367 forward 7 unknown #
coedge $-1 $184 $183 $368 $369 reversed $69 $-1 #
coedge $-1 $290 $289 $183 $280 forward $273 $-1 #
edge $-1 $370 -70.998260444959868 $282 70.998260444959868 $279 $371 forward 7 unknown #
edge $-1 $372 -70.998260444959868 $283 70.998260444959868 $276 $373 forward 7 unknown #
vertex $-1 $280 $374 #
vertex $-1 $186 $375 #
straight-curve $-1 70.998260444959868 -17.831438590732397 -6.0167122219134033 0 1 0 I I #
edge $-1 $291 -21.843256917049281 $287 -13.819620264415512 $275 $376 forward 7 unknown #
coedge $-1 $188 $276 $365 $377 reversed $109 $-1 #
vertex $-1 $285 $378 #
straight-curve $-1 0 -31.651058855147909 -1.9461418495503415 -1 0 0 I I #
coedge $-1 $279 $190 $366 $379 forward $273 $-1 #
coedge $-1 $190 $279 $192 $293 reversed $273 $-1 #
vertex $-1 $379 $380 #
straight-curve $-1 0 -39.674695507781678 -1.9461418495503415 -1 0 0 I I #
edge $-1 $196 1.9461418495503415 $282 6.0167122219134033 $192 $381 forward 7 unknown #
point $-1 70.998260444959868 -31.651058855147909 -1.9461418495503415 #
point $-1 70.998260444959868 -39.674695507781678 -1.9461418495503415 #
plane-surface $-1 0 0 9.6338302196620056 0 0 1 1 0 0 forward_v I I I I #
coedge $-1 $307 $306 $299 $382 forward $199 $-1 #
coedge $-1 $299 $201 $203 $303 reversed $117 $-1 #
coedge $-1 $201 $298 $297 $382 reversed $117 $-1 #
coedge $-1 $209 $204 $201 $301 forward $210 $-1 #
edge $-1 $304 -17.353151933329443 $383 -3.1692943406422387 $300 $384 forward 7 unknown #
coedge $-1 $203 $202 $307 $385 reversed $73 $-1 #
edge $-1 $386 0 $304 16.9123112377818 $298 $387 forward 7 unknown #
vertex $-1 $205 $388 #
straight-curve $-1 -56.814402852272664 12.947902422215321 9.6338302196620056 0 1 0 I I #
coedge $-1 $297 $206 $209 $311 reversed $199 $-1 #
coedge $-1 $206 $297 $302 $385 forward $199 $-1 #
vertex $-1 $207 $389 #
straight-curve $-1 -70.998260444959868 18.766603379488814 59.755513694779296 0 0 1 I I #
straight-curve $-1 -70.998260444959868 18.766603379488814 0.42272522655883904 -0.83867056331134215 0 -0.54463904215088732 I I #
edge $-1 $383 -33.025006309372472 $211 -18.766603379488814 $306 $390 forward 7 unknown #
point $-1 -70.998260444959868 18.766603379488814 9.6338302196620056 #
point $-1 -56.814402852272664 18.766603379488814 9.6338302196620056 #
edge $-1 $391 1 $391 0 $214 $-1 forward 7 unknown #
vertex $-1 $215 $392 #
ellipse-curve $-1 -59.67457920569008 22.840432788027002 -1.4880494779054603 -0.54463904215088732 0 0.83867056331134215 1.6773411266226843 0 1.0892780843017746 1 I I #
point $-1 -62.228990521993595 22.840432788027002 6.1175558074122094 #
edge $-1 $393 1 $393 0 $218 $-1 forward 7 unknown #
vertex $-1 $219 $394 #
ellipse-curve $-1 -59.67457920569008 28.951176900834284 -1.4880494779054603 -0.54463904215088732 0 0.83867056331134215 1.6773411266226843 0 1.0892780843017746 1 I I #
point $-1 -62.228990521993595 28.951176900834284 6.1175558074122094 #
loop $-1 $-1 $230 $222 #
plane-surface $-1 0 39.674695507781678 0 0 -1 0 0 0 -1 forward_v I I I I #
coedge $-1 $395 $325 $229 $330 forward $223 $-1 #
coedge $-1 $324 $396 $226 $326 forward $223 $-1 #
edge $-1 $328 90.575431464431261 $335 94.639127987582725 $325 $397 forward 7 unknown #
coedge $-1 $233 $227 $396 $398 forward $139 $-1 #
vertex $-1 $398 $399 #
straight-curve $-1 11.208551122561737 23.644413429626134 9.633830219662002 1 0 0 I I #
edge $-1 $335 7.8146361952741827 $333 23.84491827342972 $324 $400 forward 7 unknown #
coedge $-1 $332 $230 $233 $337 reversed $322 $-1 #
coedge $-1 $230 $331 $395 $401 forward $322 $-1 #
vertex $-1 $231 $402 #
straight-curve $-1 -14.712073409914638 39.674695507781678 57.070098886014506 -0.85716729658548041 0 0.51503808176128008 I I #
vertex $-1 $330 $403 #
straight-curve $-1 -50.716513490796316 23.644413429626134 78.703749432430328 -0.85716729658548041 0 0.51503808176128008 I I #
edge $-1 $404 -70.998260444959868 $234 -64.235133821425947 $331 $405 forward 7 unknown #
point $-1 64.235133821425947 39.674695507781671 9.633830219662002 #
point $-1 64.235133821425947 23.644413429626134 9.633830219662002 #
edge $-1 $406 1 $406 0 $237 $-1 forward 7 unknown #
vertex $-1 $238 $407 #
ellipse-curve $-1 66.961232701065242 28.224494023384864 6.5111059720359359 0.51503808176128008 0 0.85716729658548041 0.85716729658548041 0 -0.51503808176128008 1 I I #
point $-1 68.473864429778388 28.224494023384864 7.0869438763249848 #
edge $-1 $408 1 $408 0 $241 $-1 forward 7 unknown #
vertex $-1 $242 $409 #
ellipse-curve $-1 66.961232701065242 35.094614914022955 6.5111059720359359 0.51503808176128008 0 0.85716729658548041 0.85716729658548041 0 -0.51503808176128008 1 I I #
point $-1 68.473864429778388 35.094614914022955 7.0869438763249848 #
plane-surface $-1 70.998260444959868 0 0 -1 0 0 0 0 1 forward_v I I I I #
coedge $-1 $250 $248 $252 $353 reversed $161 $-1 #
edge $-1 $263 -9.6338302196620056 $355 9.6338302196620056 $262 $410 forward 7 unknown #
vertex $-1 $353 $411 #
straight-curve $-1 -70.998260444959868 -39.674695507781678 0 0 0 -1 I I #
edge $-1 $351 -39.674695507781678 $355 39.674695507781678 $349 $412 forward 7 unknown #
straight-curve $-1 0 -39.674695507781678 -9.6338302196620056 -1 0 0 I I #
vertex $-1 $255 $413 #
straight-curve $-1 0 39.674695507781678 -9.6338302196620056 1 0 0 I I #
point $-1 70.998260444959868 39.674695507781678 -9.6338302196620056 #
point $-1 70.998260444959868 -39.674695507781678 -9.6338302196620056 #
straight-curve $-1 -70.998260444959868 0 9.6338302196620056 0 -1 0 I I #
point $-1 -70.998260444959868 39.674695507781678 9.6338302196620056 #
point $-1 -70.998260444959868 -39.674695507781678 9.6338302196620056 #
straight-curve $-1 70.998260444959868 -39.674695507781678 0 0 0 -1 I I #
straight-curve $-1 70.998260444959868 39.674695507781678 0 0 0 -1 I I #
plane-surface $-1 70.998260444959868 0 0 -1 0 0 0 0 1 forward_v I I I I #
coedge $-1 $368 $275 $286 $377 forward $180 $-1 #
coedge $-1 $275 $368 $289 $379 reversed $180 $-1 #
straight-curve $-1 70.998260444959868 -31.651058855147909 -1.9907135178659363 0 0 1 I I #
coedge $-1 $366 $365 $278 $369 forward $180 $-1 #
edge $-1 $372 13.819620264415512 $370 21.843256917049281 $368 $414 forward 7 unknown #
vertex $-1 $280 $415 #
straight-curve $-1 0 -39.674695507781678 -6.0167122219134033 1 0 0 I I #
vertex $-1 $369 $416 #
straight-curve $-1 0 -31.651058855147909 -6.0167122219134033 1 0 0 I I #
point $-1 70.998260444959868 -39.674695507781678 -6.0167122219134033 #
point $-1 70.998260444959868 -31.651058855147909 -6.0167122219134033 #
straight-curve $-1 -70.998260444959868 -17.831438590732397 -1.9461418495503415 0 1 0 I I #
edge $-1 $287 -0.044571668315594781 $372 4.025998704047467 $365 $417 forward 7 unknown #
point $-1 -70.998260444959868 -31.651058855147909 -1.9461418495503415 #
edge $-1 $291 1.9461418495503415 $370 6.0167122219134033 $366 $418 forward 7 unknown #
point $-1 -70.998260444959868 -39.674695507781678 -1.9461418495503415 #
straight-curve $-1 70.998260444959868 -39.674695507781678 0 0 0 -1 I I #
edge $-1 $383 50.121683475117294 $386 59.332788468220457 $297 $419 forward 7 unknown #
vertex $-1 $311 $420 #
straight-curve $-1 -74.167554785602107 33.025006309372472 9.633830219662002 -1 0 0 I I #
edge $-1 $386 -20.077103887157151 $308 -5.8187009572734922 $307 $421 forward 7 unknown #
vertex $-1 $385 $422 #
straight-curve $-1 -70.998260444959868 33.025006309372472 0.42272522655883904 0.83867056331134215 0 0.54463904215088732 I I #
point $-1 -56.814402852272664 33.025006309372472 9.6338302196620056 #
point $-1 -70.998260444959868 18.766603379488814 0.42272522655883904 #
straight-curve $-1 -70.998260444959868 0 9.6338302196620056 0 -1 0 I I #
vertex $-1 $314 $423 #
point $-1 -57.997238079067394 22.840432788027002 -0.39877139360368563 #
vertex $-1 $318 $424 #
point $-1 -57.997238079067394 28.951176900834284 -0.39877139360368563 #
coedge $-1 $396 $324 $332 $401 reversed $223 $-1 #
coedge $-1 $325 $395 $327 $398 reversed $223 $-1 #
straight-curve $-1 70.998260444959868 23.644413429626134 100.20926168409326 0 0 -1 I I #
edge $-1 $328 23.644413429626134 $404 39.674695507781678 $396 $425 forward 7 unknown #
point $-1 70.998260444959868 23.644413429626134 9.6338302196620056 #
straight-curve $-1 70.998260444959868 15.829777234351951 5.5701336965105384 0 1 0 I I #
edge $-1 $404 -9.6338302196620056 $333 -5.5701336965105384 $395 $426 forward 7 unknown #
point $-1 70.998260444959882 39.674695507781671 5.5701336965105384 #
point $-1 70.998260444959882 23.644413429626134 5.5701336965105384 #
vertex $-1 $398 $427 #
straight-curve $-1 0 39.674695507781678 9.6338302196620056 -1 0 0 I I #
vertex $-1 $340 $428 #
point $-1 67.818399997650729 28.224494023384864 5.9960678902746558 #
vertex $-1 $344 $429 #
point $-1 67.818399997650729 35.094614914022955 5.9960678902746558 #
straight-curve $-1 -70.998260444959868 39.674695507781678 0 0 0 -1 I I #
point $-1 -70.998260444959868 -39.674695507781678 -9.6338302196620056 #
straight-curve $-1 -70.998260444959868 0 -9.6338302196620056 0 1 0 I I #
point $-1 -70.998260444959868 39.674695507781678 -9.6338302196620056 #
straight-curve $-1 -70.998260444959868 -17.831438590732397 -6.0167122219134033 0 -1 0 I I #
point $-1 -70.998260444959868 -39.674695507781678 -6.0167122219134033 #
point $-1 -70.998260444959868 -31.651058855147909 -6.0167122219134033 #
straight-curve $-1 -70.998260444959868 -31.651058855147909 -1.9907135178659363 0 0 -1 I I #
straight-curve $-1 -70.998260444959868 -39.674695507781678 0 0 0 -1 I I #
straight-curve $-1 -70.998260444959868 33.025006309372472 59.755513694779296 0 0 -1 I I #
point $-1 -70.998260444959868 33.025006309372472 9.6338302196620056 #
straight-curve $-1 -70.998260444959868 12.947902422215321 0.4227252265588376 0 -1 0 I I #
point $-1 -70.998260444959868 33.025006309372472 0.42272522655883904 #
point $-1 -58.585301121388298 22.840432788027002 -3.1653906045281444 #
point $-1 -58.585301121388298 28.951176900834284 -3.1653906045281444 #
straight-curve $-1 70.998260444959868 0 9.6338302196620056 0 1 0 I I #
straight-curve $-1 70.998260444959868 39.674695507781678 0 0 0 -1 I I #
point $-1 70.998260444959868 39.674695507781678 9.6338302196620056 #
point $-1 66.446194619303967 28.224494023384864 5.6539386754504539 #
point $-1 66.446194619303967 35.094614914022955 5.6539386754504539 #
End-of-ACIS-data 