500 0 16 0           
7 Unknown 11 ACIS 5.0 NT 24 Fri Mar 26 18:11:48 1999 
-1 9.9999999999999995e-007 1e-010 
body $-1 $16 $-1 $17 #
body $-1 $18 $-1 $19 #
body $-1 $20 $-1 $21 #
body $-1 $22 $-1 $23 #
body $-1 $24 $-1 $25 #
body $-1 $26 $-1 $27 #
body $-1 $28 $-1 $29 #
body $-1 $30 $-1 $31 #
body $-1 $32 $-1 $33 #
body $-1 $34 $-1 $35 #
body $-1 $36 $-1 $37 #
body $-1 $38 $-1 $39 #
body $-1 $40 $-1 $41 #
body $-1 $42 $-1 $43 #
body $-1 $44 $-1 $45 #
body $-1 $46 $-1 $47 #
lump $-1 $-1 $48 $0 #
transform $-1 1 0 0 0 1 0 0 0 1 68.874172185430467 41.778101332365367 18.986487636056165 1 rotate no_reflect no_shear #
lump $-1 $-1 $49 $1 #
transform $-1 1 0 0 0 1 0 0 0 1 68.874172185430467 41.778101332365367 18.986487636056165 1 rotate no_reflect no_shear #
lump $-1 $-1 $50 $2 #
transform $-1 1 0 0 0 1 0 0 0 1 68.874172185430467 41.778101332365367 18.986487636056165 1 rotate no_reflect no_shear #
lump $-1 $-1 $51 $3 #
transform $-1 1 0 0 0 1 0 0 0 1 68.874172185430467 41.778101332365367 18.986487636056165 1 rotate no_reflect no_shear #
lump $-1 $-1 $52 $4 #
transform $-1 1 0 0 0 1 0 0 0 1 68.874172185430467 41.778101332365367 18.986487636056165 1 rotate no_reflect no_shear #
lump $-1 $-1 $53 $5 #
transform $-1 1 0 0 0 1 0 0 0 1 68.874172185430467 41.778101332365367 18.986487636056165 1 rotate no_reflect no_shear #
lump $-1 $-1 $54 $6 #
transform $-1 1 0 0 0 1 0 0 0 1 68.874172185430467 41.778101332365367 18.986487636056165 1 rotate no_reflect no_shear #
lump $-1 $-1 $55 $7 #
transform $-1 1 0 0 0 1 0 0 0 1 68.874172185430467 41.778101332365367 18.986487636056165 1 rotate no_reflect no_shear #
lump $-1 $-1 $56 $8 #
transform $-1 1 0 0 0 1 0 0 0 1 68.874172185430467 41.778101332365367 18.986487636056165 1 rotate no_reflect no_shear #
lump $-1 $-1 $57 $9 #
transform $-1 1 0 0 0 1 0 0 0 1 68.874172185430467 41.778101332365367 18.986487636056165 1 rotate no_reflect no_shear #
lump $-1 $-1 $58 $10 #
transform $-1 1 0 0 0 1 0 0 0 1 68.874172185430467 41.778101332365367 18.986487636056165 1 rotate no_reflect no_shear #
lump $-1 $-1 $59 $11 #
transform $-1 1 0 0 0 1 0 0 0 1 68.874172185430467 41.778101332365367 18.986487636056165 1 rotate no_reflect no_shear #
lump $-1 $-1 $60 $12 #
transform $-1 1 0 0 0 1 0 0 0 1 68.874172185430467 41.778101332365367 18.986487636056165 1 rotate no_reflect no_shear #
lump $-1 $-1 $61 $13 #
transform $-1 1 0 0 0 1 0 0 0 1 68.874172185430467 41.778101332365367 18.986487636056165 1 rotate no_reflect no_shear #
lump $-1 $-1 $62 $14 #
transform $-1 1 0 0 0 1 0 0 0 1 68.874172185430467 41.778101332365367 18.986487636056165 1 rotate no_reflect no_shear #
lump $-1 $-1 $63 $15 #
transform $-1 1 0 0 0 1 0 0 0 1 68.874172185430467 41.778101332365367 18.986487636056165 1 rotate no_reflect no_shear #
shell $-1 $-1 $-1 $64 $-1 $16 #
shell $-1 $-1 $-1 $65 $-1 $18 #
shell $-1 $-1 $-1 $66 $-1 $20 #
shell $-1 $-1 $-1 $67 $-1 $22 #
shell $-1 $-1 $-1 $68 $-1 $24 #
shell $-1 $-1 $-1 $69 $-1 $26 #
shell $-1 $-1 $-1 $70 $-1 $28 #
shell $-1 $-1 $-1 $71 $-1 $30 #
shell $-1 $-1 $-1 $72 $-1 $32 #
shell $-1 $-1 $-1 $73 $-1 $34 #
shell $-1 $-1 $-1 $74 $-1 $36 #
shell $-1 $-1 $-1 $75 $-1 $38 #
shell $-1 $-1 $-1 $76 $-1 $40 #
shell $-1 $-1 $-1 $77 $-1 $42 #
shell $-1 $-1 $-1 $78 $-1 $44 #
shell $-1 $-1 $-1 $79 $-1 $46 #
face $-1 $80 $81 $48 $-1 $82 forward single #
face $-1 $83 $84 $49 $-1 $85 forward single #
face $-1 $86 $87 $50 $-1 $88 reversed single #
face $-1 $89 $90 $51 $-1 $91 forward single #
face $-1 $92 $93 $52 $-1 $94 reversed single #
face $-1 $95 $96 $53 $-1 $97 forward single #
face $-1 $98 $99 $54 $-1 $100 forward single #
face $-1 $101 $102 $55 $-1 $103 reversed single #
face $-1 $104 $105 $56 $-1 $106 forward single #
face $-1 $107 $108 $57 $-1 $109 forward single #
face $-1 $110 $111 $58 $-1 $112 reversed single #
face $-1 $113 $114 $59 $-1 $115 forward single #
face $-1 $116 $117 $60 $-1 $118 forward single #
face $-1 $119 $120 $61 $-1 $121 reversed single #
face $-1 $122 $123 $62 $-1 $124 forward single #
face $-1 $125 $126 $63 $-1 $127 forward single #
face $-1 $128 $129 $48 $-1 $130 reversed single #
loop $-1 $-1 $131 $64 #
plane-surface $-1 0 0 18.986487636056165 0 0 1 1 0 0 forward_v I I I I #
face $-1 $132 $133 $49 $-1 $134 reversed single #
loop $-1 $-1 $135 $65 #
plane-surface $-1 0 -41.778101332365367 0 0 1 0 0 0 1 forward_v I I I I #
face $-1 $136 $137 $50 $-1 $138 reversed single #
loop $-1 $-1 $139 $66 #
plane-surface $-1 119.29356846538062 32.173293468594835 200.15260187820613 0 1 0 0.86602541151947299 0 0.49999998660252726 forward_v I I I I #
face $-1 $140 $141 $51 $-1 $142 forward single #
loop $-1 $143 $144 $67 #
cone-surface $-1 65.809132739497358 36.975697400480101 14.883012027476404 -0.86602541151947299 0 -0.49999998660252726 0.74999997990379086 0 -1.2990381172792094 1 I I 0 1 1.5 forward I I I I #
face $-1 $145 $146 $52 $-1 $147 reversed single #
loop $-1 $-1 $148 $68 #
plane-surface $-1 -147.88337768118853 -20.601485848972686 123.71030285607033 0 1 0 -0.57357644374324357 0 0.81915203911291934 forward_v I I I I #
face $-1 $149 $150 $53 $-1 $151 forward single #
loop $-1 $152 $153 $69 #
cone-surface $-1 -62.573999437776415 -18.266972421641523 14.206084448901173 0.57357644374324357 0 -0.81915203911291934 0.81915203911291934 0 0.57357644374324357 1 I I 0 1 1 forward I I I I #
face $-1 $154 $155 $54 $-1 $156 forward single #
loop $-1 $157 $158 $70 #
cone-surface $-1 -62.573999437776415 -14.765202280644775 14.206084448901173 0.57357644374324357 0 -0.81915203911291934 0.81915203911291934 0 0.57357644374324357 1 I I 0 1 1 forward I I I I #
face $-1 $159 $160 $55 $-1 $161 reversed single #
loop $-1 $-1 $162 $71 #
plane-surface $-1 -147.88337768118853 -3.9188776989308796 123.71030285607033 0 1 0 -0.57357644374324357 0 0.81915203911291934 forward_v I I I I #
face $-1 $163 $164 $56 $-1 $165 forward single #
loop $-1 $166 $167 $72 #
cone-surface $-1 -62.573999437776415 -1.5843642715997106 14.206084448901173 0.57357644374324357 0 -0.81915203911291934 0.81915203911291934 0 0.57357644374324357 1 I I 0 1 1 forward I I I I #
face $-1 $168 $169 $57 $-1 $170 forward single #
loop $-1 $171 $172 $73 #
cone-surface $-1 -62.573999437776415 1.9174058693970366 14.206084448901173 0.57357644374324357 0 -0.81915203911291934 0.81915203911291934 0 0.57357644374324357 1 I I 0 1 1 forward I I I I #
face $-1 $173 $174 $58 $-1 $175 reversed single #
loop $-1 $-1 $176 $74 #
plane-surface $-1 -147.88337768118853 12.763730451110936 123.71030285607033 0 1 0 -0.57357644374324357 0 0.81915203911291934 forward_v I I I I #
face $-1 $177 $178 $59 $-1 $179 forward single #
loop $-1 $180 $181 $75 #
cone-surface $-1 -62.573999437776415 15.098243878442105 14.206084448901173 0.57357644374324357 0 -0.81915203911291934 0.81915203911291934 0 0.57357644374324357 1 I I 0 1 1 forward I I I I #
face $-1 $182 $183 $60 $-1 $184 forward single #
loop $-1 $185 $186 $76 #
cone-surface $-1 -62.573999437776415 18.600014019438845 14.206084448901173 0.57357644374324357 0 -0.81915203911291934 0.81915203911291934 0 0.57357644374324357 1 I I 0 1 1 forward I I I I #
face $-1 $187 $188 $61 $-1 $189 reversed single #
loop $-1 $-1 $190 $77 #
plane-surface $-1 -147.88337768118853 29.446338601152753 123.71030285607033 0 1 0 -0.57357644374324357 0 0.81915203911291934 forward_v I I I I #
face $-1 $191 $192 $62 $-1 $193 forward single #
loop $-1 $194 $195 $78 #
cone-surface $-1 -62.573999437776415 31.78085202848392 14.206084448901173 0.57357644374324357 0 -0.81915203911291934 0.81915203911291934 0 0.57357644374324357 1 I I 0 1 1 forward I I I I #
face $-1 $196 $197 $63 $-1 $198 forward single #
loop $-1 $199 $200 $79 #
cone-surface $-1 -62.573999437776415 35.282622169480661 14.206084448901173 0.57357644374324357 0 -0.81915203911291934 0.81915203911291934 0 0.57357644374324357 1 I I 0 1 1 forward I I I I #
face $-1 $201 $202 $48 $-1 $203 reversed single #
loop $-1 $-1 $204 $80 #
plane-surface $-1 0 0 -18.986487636056165 0 0 1 1 0 0 forward_v I I I I #
coedge $-1 $205 $206 $207 $208 forward $81 $-1 #
face $-1 $209 $210 $49 $-1 $211 forward single #
loop $-1 $-1 $212 $83 #
plane-surface $-1 -68.874172185430467 0 0 1 0 0 0 0 -1 forward_v I I I I #
coedge $-1 $213 $214 $215 $216 forward $84 $-1 #
face $-1 $217 $218 $50 $-1 $219 forward single #
loop $-1 $-1 $220 $86 #
plane-surface $-1 1.8454797015010627e-006 36.975697400480101 131.27843153825535 0.86602541151947299 0 0.49999998660252726 0.49999998660252726 0 -0.86602541151947299 forward_v I I I I #
coedge $-1 $221 $222 $223 $224 reversed $87 $-1 #
face $-1 $-1 $225 $51 $-1 $226 forward single #
loop $-1 $227 $228 $89 #
cone-surface $-1 64.115768543128894 36.975697400480101 13.905347787795609 -0.86602541151947299 0 -0.49999998660252726 0.37499998995189543 0 -0.64951905863960469 1 I I -0.70710678118654757 0.70710678118654757 0.75 forward I I I I #
loop $-1 $-1 $229 $67 #
coedge $-1 $144 $144 $230 $231 reversed $90 $-1 #
face $-1 $232 $233 $52 $-1 $234 reversed single #
loop $-1 $-1 $235 $92 #
plane-surface $-1 -68.874172185430481 -16.516087351143149 10.873465680250973 -0.57357644374324357 0 0.81915203911291934 0.81915203911291934 0 0.57357644374324357 forward_v I I I I #
coedge $-1 $236 $237 $238 $239 reversed $93 $-1 #
face $-1 $-1 $240 $53 $-1 $241 forward single #
loop $-1 $242 $243 $95 #
cone-surface $-1 -61.780336424399586 -18.266972421641523 13.072616220092318 0.57357644374324357 0 -0.81915203911291934 0.40957601955645967 0 0.28678822187162178 1 I I -0.70710678118654746 0.70710678118654746 0.5 forward I I I I #
loop $-1 $-1 $244 $69 #
coedge $-1 $153 $153 $245 $246 reversed $96 $-1 #
face $-1 $-1 $247 $54 $-1 $248 forward single #
loop $-1 $249 $250 $98 #
cone-surface $-1 -61.780336424399586 -14.765202280644775 13.072616220092318 0.57357644374324357 0 -0.81915203911291934 0.40957601955645967 0 0.28678822187162178 1 I I -0.70710678118654746 0.70710678118654746 0.5 forward I I I I #
loop $-1 $-1 $251 $70 #
coedge $-1 $158 $158 $252 $253 reversed $99 $-1 #
face $-1 $254 $255 $55 $-1 $256 reversed single #
loop $-1 $-1 $257 $101 #
plane-surface $-1 -68.874172185430481 0.16652079889865945 10.873465680250973 -0.57357644374324357 0 0.81915203911291934 0.81915203911291934 0 0.57357644374324357 forward_v I I I I #
coedge $-1 $258 $259 $260 $261 reversed $102 $-1 #
face $-1 $-1 $262 $56 $-1 $263 forward single #
loop $-1 $264 $265 $104 #
cone-surface $-1 -61.780336424399586 -1.5843642715997106 13.072616220092318 0.57357644374324357 0 -0.81915203911291934 0.40957601955645967 0 0.28678822187162178 1 I I -0.70710678118654746 0.70710678118654746 0.5 forward I I I I #
loop $-1 $-1 $266 $72 #
coedge $-1 $167 $167 $267 $268 reversed $105 $-1 #
face $-1 $-1 $269 $57 $-1 $270 forward single #
loop $-1 $271 $272 $107 #
cone-surface $-1 -61.780336424399586 1.9174058693970366 13.072616220092318 0.57357644374324357 0 -0.81915203911291934 0.40957601955645967 0 0.28678822187162178 1 I I -0.70710678118654746 0.70710678118654746 0.5 forward I I I I #
loop $-1 $-1 $273 $73 #
coedge $-1 $172 $172 $274 $275 reversed $108 $-1 #
face $-1 $276 $277 $58 $-1 $278 reversed single #
loop $-1 $-1 $279 $110 #
plane-surface $-1 -68.874172185430481 16.849128948940475 10.873465680250973 -0.57357644374324357 0 0.81915203911291934 0.81915203911291934 0 0.57357644374324357 forward_v I I I I #
coedge $-1 $280 $281 $282 $283 reversed $111 $-1 #
face $-1 $-1 $284 $59 $-1 $285 forward single #
loop $-1 $286 $287 $113 #
cone-surface $-1 -61.780336424399586 15.098243878442105 13.072616220092318 0.57357644374324357 0 -0.81915203911291934 0.40957601955645967 0 0.28678822187162178 1 I I -0.70710678118654746 0.70710678118654746 0.5 forward I I I I #
loop $-1 $-1 $288 $75 #
coedge $-1 $181 $181 $289 $290 reversed $114 $-1 #
face $-1 $-1 $291 $60 $-1 $292 forward single #
loop $-1 $293 $294 $116 #
cone-surface $-1 -61.780336424399586 18.600014019438845 13.072616220092318 0.57357644374324357 0 -0.81915203911291934 0.40957601955645967 0 0.28678822187162178 1 I I -0.70710678118654746 0.70710678118654746 0.5 forward I I I I #
loop $-1 $-1 $295 $76 #
coedge $-1 $186 $186 $296 $297 reversed $117 $-1 #
face $-1 $298 $299 $61 $-1 $300 reversed single #
loop $-1 $-1 $301 $119 #
plane-surface $-1 -68.874172185430481 33.53173709898229 10.873465680250973 -0.57357644374324357 0 0.81915203911291934 0.81915203911291934 0 0.57357644374324357 forward_v I I I I #
coedge $-1 $302 $303 $304 $305 reversed $120 $-1 #
face $-1 $-1 $306 $62 $-1 $307 forward single #
loop $-1 $308 $309 $122 #
cone-surface $-1 -61.780336424399586 31.78085202848392 13.072616220092318 0.57357644374324357 0 -0.81915203911291934 0.40957601955645967 0 0.28678822187162178 1 I I -0.70710678118654746 0.70710678118654746 0.5 forward I I I I #
loop $-1 $-1 $310 $78 #
coedge $-1 $195 $195 $311 $312 reversed $123 $-1 #
face $-1 $-1 $313 $63 $-1 $314 forward single #
loop $-1 $315 $316 $125 #
cone-surface $-1 -61.780336424399586 35.282622169480661 13.072616220092318 0.57357644374324357 0 -0.81915203911291934 0.40957601955645967 0 0.28678822187162178 1 I I -0.70710678118654746 0.70710678118654746 0.5 forward I I I I #
loop $-1 $-1 $317 $79 #
coedge $-1 $200 $200 $318 $319 reversed $126 $-1 #
face $-1 $320 $321 $48 $-1 $322 reversed single #
loop $-1 $-1 $323 $128 #
plane-surface $-1 0 -41.778101332365367 0 0 1 0 0 0 1 forward_v I I I I #
coedge $-1 $324 $325 $326 $327 forward $129 $-1 #
coedge $-1 $328 $131 $329 $330 forward $81 $-1 #
coedge $-1 $131 $328 $331 $332 forward $81 $-1 #
coedge $-1 $333 $334 $131 $208 reversed $335 $-1 #
edge $-1 $336 -41.778101332365367 $337 41.778101332365367 $207 $338 forward 7 unknown #
face $-1 $339 $340 $49 $-1 $341 reversed single #
loop $-1 $-1 $342 $132 #
plane-surface $-1 0 -50.190986364647109 8.7064771980298516 0 0 1 1 0 0 forward_v I I I I #
coedge $-1 $343 $344 $214 $345 forward $133 $-1 #
coedge $-1 $346 $135 $347 $348 reversed $84 $-1 #
coedge $-1 $135 $346 $212 $345 reversed $84 $-1 #
coedge $-1 $349 $342 $135 $216 reversed $210 $-1 #
edge $-1 $350 -68.874172185430467 $351 68.874172185430467 $215 $352 forward 7 unknown #
face $-1 $353 $354 $50 $-1 $355 reversed single #
loop $-1 $-1 $356 $136 #
plane-surface $-1 0 0 18.986487636056165 0 0 1 1 0 0 forward_v I I I I #
coedge $-1 $357 $358 $359 $360 reversed $137 $-1 #
coedge $-1 $222 $139 $361 $362 reversed $87 $-1 #
coedge $-1 $139 $221 $357 $363 reversed $87 $-1 #
coedge $-1 $359 $364 $139 $224 forward $354 $-1 #
edge $-1 $365 81.089813303046895 $366 88.091436020748617 $223 $367 forward 7 unknown #
loop $-1 $-1 $230 $140 #
plane-surface $-1 1.8454797015010627e-006 36.975697400480101 131.27843153825535 0.86602541151947299 0 0.49999998660252726 0.49999998660252726 0 -0.86602541151947299 forward_v I I I I #
loop $-1 $-1 $368 $89 #
coedge $-1 $228 $228 $229 $369 reversed $141 $-1 #
coedge $-1 $229 $229 $228 $369 forward $143 $-1 #
coedge $-1 $230 $230 $144 $231 forward $225 $-1 #
edge $-1 $370 0 $370 6.2831853071796004 $230 $371 forward 7 unknown #
face $-1 $372 $373 $52 $-1 $374 reversed single #
loop $-1 $-1 $375 $145 #
plane-surface $-1 -147.88337768118853 -12.43068885331361 123.71030285607033 0 -1 0 0.57357644374324357 0 -0.81915203911291934 forward_v I I I I #
coedge $-1 $376 $377 $378 $379 reversed $146 $-1 #
coedge $-1 $237 $148 $380 $381 reversed $93 $-1 #
coedge $-1 $148 $236 $376 $382 reversed $93 $-1 #
coedge $-1 $378 $383 $148 $239 forward $384 $-1 #
edge $-1 $385 5.0675166551638 $386 16.654112567461468 $238 $387 forward 7 unknown #
loop $-1 $-1 $245 $149 #
plane-surface $-1 -68.874172185430481 -16.516087351143149 10.873465680250973 -0.57357644374324357 0 0.81915203911291934 0.81915203911291934 0 0.57357644374324357 forward_v I I I I #
loop $-1 $-1 $388 $95 #
coedge $-1 $243 $243 $244 $389 reversed $150 $-1 #
coedge $-1 $244 $244 $243 $389 forward $152 $-1 #
coedge $-1 $245 $245 $153 $246 forward $240 $-1 #
edge $-1 $390 0 $390 6.2831853071796004 $245 $391 forward 7 unknown #
loop $-1 $-1 $252 $154 #
plane-surface $-1 -68.874172185430481 -16.516087351143149 10.873465680250973 -0.57357644374324357 0 0.81915203911291934 0.81915203911291934 0 0.57357644374324357 forward_v I I I I #
loop $-1 $-1 $392 $98 #
coedge $-1 $250 $250 $251 $393 reversed $155 $-1 #
coedge $-1 $251 $251 $250 $393 forward $157 $-1 #
coedge $-1 $252 $252 $158 $253 forward $247 $-1 #
edge $-1 $394 0 $394 6.2831853071796004 $252 $395 forward 7 unknown #
face $-1 $396 $397 $55 $-1 $398 forward single #
loop $-1 $-1 $399 $159 #
plane-surface $-1 -147.88337768118853 4.2519192967281985 123.71030285607033 0 -1 0 0.57357644374324357 0 -0.81915203911291934 forward_v I I I I #
coedge $-1 $400 $401 $402 $403 reversed $160 $-1 #
coedge $-1 $259 $162 $404 $405 reversed $102 $-1 #
coedge $-1 $162 $258 $400 $406 reversed $102 $-1 #
coedge $-1 $402 $407 $162 $261 forward $397 $-1 #
edge $-1 $408 5.0675166551638 $409 16.654112567461468 $260 $410 forward 7 unknown #
loop $-1 $-1 $267 $163 #
plane-surface $-1 -68.874172185430481 0.16652079889865945 10.873465680250973 -0.57357644374324357 0 0.81915203911291934 0.81915203911291934 0 0.57357644374324357 forward_v I I I I #
loop $-1 $-1 $411 $104 #
coedge $-1 $265 $265 $266 $412 reversed $164 $-1 #
coedge $-1 $266 $266 $265 $412 forward $166 $-1 #
coedge $-1 $267 $267 $167 $268 forward $262 $-1 #
edge $-1 $413 0 $413 6.2831853071796004 $267 $414 forward 7 unknown #
loop $-1 $-1 $274 $168 #
plane-surface $-1 -68.874172185430481 0.16652079889865945 10.873465680250973 -0.57357644374324357 0 0.81915203911291934 0.81915203911291934 0 0.57357644374324357 forward_v I I I I #
loop $-1 $-1 $415 $107 #
coedge $-1 $272 $272 $273 $416 reversed $169 $-1 #
coedge $-1 $273 $273 $272 $416 forward $171 $-1 #
coedge $-1 $274 $274 $172 $275 forward $269 $-1 #
edge $-1 $417 0 $417 6.2831853071796004 $274 $418 forward 7 unknown #
face $-1 $419 $420 $58 $-1 $421 forward single #
loop $-1 $-1 $422 $173 #
plane-surface $-1 -147.88337768118853 20.934527446770012 123.71030285607033 0 -1 0 0.57357644374324357 0 -0.81915203911291934 forward_v I I I I #
coedge $-1 $423 $424 $425 $426 reversed $174 $-1 #
coedge $-1 $281 $176 $427 $428 reversed $111 $-1 #
coedge $-1 $176 $280 $423 $429 reversed $111 $-1 #
coedge $-1 $425 $430 $176 $283 forward $420 $-1 #
edge $-1 $431 5.0675166551638 $432 16.654112567461468 $282 $433 forward 7 unknown #
loop $-1 $-1 $289 $177 #
plane-surface $-1 -68.874172185430481 16.849128948940475 10.873465680250973 -0.57357644374324357 0 0.81915203911291934 0.81915203911291934 0 0.57357644374324357 forward_v I I I I #
loop $-1 $-1 $434 $113 #
coedge $-1 $287 $287 $288 $435 reversed $178 $-1 #
coedge $-1 $288 $288 $287 $435 forward $180 $-1 #
coedge $-1 $289 $289 $181 $290 forward $284 $-1 #
edge $-1 $436 0 $436 6.2831853071796004 $289 $437 forward 7 unknown #
loop $-1 $-1 $296 $182 #
plane-surface $-1 -68.874172185430481 16.849128948940475 10.873465680250973 -0.57357644374324357 0 0.81915203911291934 0.81915203911291934 0 0.57357644374324357 forward_v I I I I #
loop $-1 $-1 $438 $116 #
coedge $-1 $294 $294 $295 $439 reversed $183 $-1 #
coedge $-1 $295 $295 $294 $439 forward $185 $-1 #
coedge $-1 $296 $296 $186 $297 forward $291 $-1 #
edge $-1 $440 0 $440 6.2831853071796004 $296 $441 forward 7 unknown #
face $-1 $442 $443 $61 $-1 $444 forward single #
loop $-1 $-1 $445 $187 #
plane-surface $-1 -147.88337768118853 37.617135596811828 123.71030285607033 0 -1 0 0.57357644374324357 0 -0.81915203911291934 forward_v I I I I #
coedge $-1 $446 $447 $448 $449 reversed $188 $-1 #
coedge $-1 $303 $190 $450 $451 reversed $120 $-1 #
coedge $-1 $190 $302 $446 $452 reversed $120 $-1 #
coedge $-1 $448 $453 $190 $305 forward $443 $-1 #
edge $-1 $454 5.0675166551638 $455 16.654112567461468 $304 $456 forward 7 unknown #
loop $-1 $-1 $311 $191 #
plane-surface $-1 -68.874172185430481 33.53173709898229 10.873465680250973 -0.57357644374324357 0 0.81915203911291934 0.81915203911291934 0 0.57357644374324357 forward_v I I I I #
loop $-1 $-1 $457 $122 #
coedge $-1 $309 $309 $310 $458 reversed $192 $-1 #
coedge $-1 $310 $310 $309 $458 forward $194 $-1 #
coedge $-1 $311 $311 $195 $312 forward $306 $-1 #
edge $-1 $459 0 $459 6.2831853071796004 $311 $460 forward 7 unknown #
loop $-1 $-1 $318 $196 #
plane-surface $-1 -68.874172185430481 33.53173709898229 10.873465680250973 -0.57357644374324357 0 0.81915203911291934 0.81915203911291934 0 0.57357644374324357 forward_v I I I I #
loop $-1 $-1 $461 $125 #
coedge $-1 $316 $316 $317 $462 reversed $197 $-1 #
coedge $-1 $317 $317 $316 $462 forward $199 $-1 #
coedge $-1 $318 $318 $200 $319 forward $313 $-1 #
edge $-1 $463 0 $463 6.2831853071796004 $318 $464 forward 7 unknown #
face $-1 $465 $466 $48 $-1 $467 reversed single #
loop $-1 $-1 $468 $201 #
plane-surface $-1 -68.874172185430467 0 0 1 0 0 0 0 -1 forward_v I I I I #
coedge $-1 $469 $331 $470 $471 forward $202 $-1 #
coedge $-1 $472 $204 $469 $473 forward $129 $-1 #
coedge $-1 $204 $472 $474 $475 forward $129 $-1 #
coedge $-1 $334 $333 $204 $327 reversed $335 $-1 #
edge $-1 $476 -41.778101332365367 $477 41.778101332365367 $326 $478 forward 7 unknown #
coedge $-1 $206 $205 $479 $480 forward $81 $-1 #
coedge $-1 $481 $482 $205 $330 reversed $466 $-1 #
edge $-1 $337 -68.874172185430467 $483 68.874172185430467 $329 $484 forward 7 unknown #
coedge $-1 $323 $485 $206 $332 reversed $202 $-1 #
edge $-1 $486 -68.874172185430467 $336 68.874172185430467 $331 $487 forward 7 unknown #
coedge $-1 $326 $207 $485 $488 forward $335 $-1 #
coedge $-1 $207 $326 $481 $489 reversed $335 $-1 #
loop $-1 $-1 $333 $465 #
vertex $-1 $208 $490 #
vertex $-1 $208 $491 #
straight-curve $-1 68.874172185430467 0 18.986487636056165 0 1 0 I I #
face $-1 $492 $493 $49 $-1 $494 reversed single #
loop $-1 $-1 $495 $209 #
plane-surface $-1 0 -50.190986364647109 2.930510339491228 0 0 1 1 0 0 forward_v I I I I #
coedge $-1 $215 $496 $497 $498 forward $210 $-1 #
coedge $-1 $499 $212 $500 $501 reversed $133 $-1 #
coedge $-1 $212 $499 $349 $502 reversed $133 $-1 #
edge $-1 $350 -8.7064771980298516 $503 -2.930510339491228 $212 $504 forward 7 unknown #
coedge $-1 $214 $213 $505 $506 forward $84 $-1 #
coedge $-1 $497 $507 $213 $348 forward $508 $-1 #
edge $-1 $509 2.930510339491228 $351 8.7064771980298516 $347 $510 forward 7 unknown #
coedge $-1 $496 $215 $344 $502 forward $210 $-1 #
vertex $-1 $345 $511 #
vertex $-1 $498 $512 #
straight-curve $-1 0 -41.778101332365367 8.7064771980298516 1 0 0 I I #
face $-1 $-1 $513 $50 $-1 $514 reversed single #
loop $-1 $-1 $223 $217 #
plane-surface $-1 68.874172185430467 0 0 -1 0 0 0 0 1 forward_v I I I I #
coedge $-1 $361 $515 $516 $517 forward $218 $-1 #
coedge $-1 $516 $220 $222 $363 forward $137 $-1 #
coedge $-1 $220 $516 $518 $519 reversed $137 $-1 #
coedge $-1 $520 $223 $220 $360 forward $354 $-1 #
edge $-1 $366 13.685444768354785 $521 23.290252632125316 $359 $522 forward 7 unknown #
coedge $-1 $523 $356 $221 $362 forward $218 $-1 #
edge $-1 $524 5.1849993363316571 $365 9.227387952740159 $361 $525 forward 7 unknown #
edge $-1 $366 -137.74834437086091 $524 -129.66356692141272 $222 $526 forward 7 unknown #
coedge $-1 $223 $520 $523 $527 reversed $354 $-1 #
vertex $-1 $527 $528 #
vertex $-1 $224 $529 #
straight-curve $-1 68.874172185430467 32.173293468594835 100.07630093910306 0 0 -1 I I #
coedge $-1 $368 $368 $-1 $530 reversed $227 $-1 #
edge $-1 $531 0 $531 6.2831853071796004 $228 $532 forward 7 unknown #
vertex $-1 $231 $533 #
ellipse-curve $-1 66.852977877226209 36.975697400480101 15.4856762772053 0.86602541151947299 0 0.49999998660252726 0.74999997990379086 0 -1.2990381172792094 1 I I #
face $-1 $-1 $384 $52 $-1 $534 forward single #
loop $-1 $-1 $535 $232 #
plane-surface $-1 -68.874172185430467 0 0 1 0 0 0 0 -1 forward_v I I I I #
coedge $-1 $536 $537 $538 $539 reversed $233 $-1 #
coedge $-1 $540 $235 $237 $382 forward $146 $-1 #
coedge $-1 $235 $540 $536 $541 forward $146 $-1 #
coedge $-1 $538 $238 $235 $379 forward $384 $-1 #
edge $-1 $386 -12.343442173401112 $542 -4.1726451777420355 $378 $543 forward 7 unknown #
coedge $-1 $544 $545 $236 $381 forward $373 $-1 #
edge $-1 $546 -50.981685747784184 $385 -42.868663791979003 $380 $547 forward 7 unknown #
edge $-1 $386 -14.144621949357656 $546 -1.7754109250068268e-014 $237 $548 forward 7 unknown #
coedge $-1 $238 $538 $544 $549 forward $384 $-1 #
loop $-1 $-1 $538 $372 #
vertex $-1 $381 $550 #
vertex $-1 $239 $551 #
straight-curve $-1 -73.941688840594267 -20.601485848972686 18.986487636056168 1 0 0 I I #
coedge $-1 $388 $388 $-1 $552 reversed $242 $-1 #
edge $-1 $553 0 $553 6.2831853071796004 $243 $554 forward 7 unknown #
vertex $-1 $246 $555 #
ellipse-curve $-1 -63.080874229281633 -18.266972421641523 14.929976658153576 -0.57357644374324357 0 0.81915203911291934 0.81915203911291934 0 0.57357644374324357 1 I I #
coedge $-1 $392 $392 $-1 $556 reversed $249 $-1 #
edge $-1 $557 0 $557 6.2831853071796004 $250 $558 forward 7 unknown #
vertex $-1 $253 $559 #
ellipse-curve $-1 -63.080874229281633 -14.765202280644775 14.929976658153576 -0.57357644374324357 0 0.81915203911291934 0.81915203911291934 0 0.57357644374324357 1 I I #
face $-1 $-1 $560 $55 $-1 $561 reversed single #
loop $-1 $-1 $260 $254 #
plane-surface $-1 0 0 18.986487636056165 0 0 1 1 0 0 forward_v I I I I #
coedge $-1 $562 $563 $564 $565 reversed $255 $-1 #
coedge $-1 $566 $257 $259 $406 forward $160 $-1 #
coedge $-1 $257 $566 $562 $567 forward $160 $-1 #
coedge $-1 $564 $260 $257 $403 forward $397 $-1 #
edge $-1 $409 -4.0021380983802093 $568 4.1686588972788687 $402 $569 forward 7 unknown #
coedge $-1 $570 $571 $258 $405 forward $560 $-1 #
edge $-1 $572 -50.981685747784184 $408 -42.868663791979003 $404 $573 forward 7 unknown #
edge $-1 $409 -14.144621949357656 $572 -1.7754109250068268e-014 $259 $574 forward 7 unknown #
coedge $-1 $260 $564 $570 $575 forward $397 $-1 #
vertex $-1 $261 $576 #
vertex $-1 $261 $577 #
straight-curve $-1 -73.941688840594267 -3.9188776989308796 18.986487636056168 1 0 0 I I #
coedge $-1 $411 $411 $-1 $578 reversed $264 $-1 #
edge $-1 $579 0 $579 6.2831853071796004 $265 $580 forward 7 unknown #
vertex $-1 $268 $581 #
ellipse-curve $-1 -63.080874229281633 -1.5843642715997106 14.929976658153576 -0.57357644374324357 0 0.81915203911291934 0.81915203911291934 0 0.57357644374324357 1 I I #
coedge $-1 $415 $415 $-1 $582 reversed $271 $-1 #
edge $-1 $583 0 $583 6.2831853071796004 $272 $584 forward 7 unknown #
vertex $-1 $275 $585 #
ellipse-curve $-1 -63.080874229281633 1.9174058693970366 14.929976658153576 -0.57357644374324357 0 0.81915203911291934 0.81915203911291934 0 0.57357644374324357 1 I I #
face $-1 $-1 $586 $58 $-1 $587 reversed single #
loop $-1 $-1 $282 $276 #
plane-surface $-1 0 0 18.986487636056165 0 0 1 1 0 0 forward_v I I I I #
coedge $-1 $588 $589 $590 $591 reversed $277 $-1 #
coedge $-1 $592 $279 $281 $429 forward $174 $-1 #
coedge $-1 $279 $592 $588 $593 forward $174 $-1 #
coedge $-1 $590 $282 $279 $426 forward $420 $-1 #
edge $-1 $432 4.3391659766406985 $594 12.509962972299775 $425 $595 forward 7 unknown #
coedge $-1 $596 $597 $280 $428 forward $586 $-1 #
edge $-1 $598 -50.981685747784184 $431 -42.868663791979003 $427 $599 forward 7 unknown #
edge $-1 $432 -14.144621949357656 $598 -1.7754109250068268e-014 $281 $600 forward 7 unknown #
coedge $-1 $282 $590 $596 $601 forward $420 $-1 #
vertex $-1 $283 $602 #
vertex $-1 $283 $603 #
straight-curve $-1 -73.941688840594267 12.763730451110936 18.986487636056168 1 0 0 I I #
coedge $-1 $434 $434 $-1 $604 reversed $286 $-1 #
edge $-1 $605 0 $605 6.2831853071796004 $287 $606 forward 7 unknown #
vertex $-1 $290 $607 #
ellipse-curve $-1 -63.080874229281633 15.098243878442105 14.929976658153576 -0.57357644374324357 0 0.81915203911291934 0.81915203911291934 0 0.57357644374324357 1 I I #
coedge $-1 $438 $438 $-1 $608 reversed $293 $-1 #
edge $-1 $609 0 $609 6.2831853071796004 $294 $610 forward 7 unknown #
vertex $-1 $297 $611 #
ellipse-curve $-1 -63.080874229281633 18.600014019438845 14.929976658153576 -0.57357644374324357 0 0.81915203911291934 0.81915203911291934 0 0.57357644374324357 1 I I #
face $-1 $-1 $612 $61 $-1 $613 reversed single #
loop $-1 $-1 $304 $298 #
plane-surface $-1 0 0 18.986487636056165 0 0 1 1 0 0 forward_v I I I I #
coedge $-1 $614 $615 $616 $617 reversed $299 $-1 #
coedge $-1 $618 $301 $303 $452 forward $188 $-1 #
coedge $-1 $301 $618 $614 $619 forward $188 $-1 #
coedge $-1 $616 $304 $301 $449 forward $443 $-1 #
edge $-1 $455 12.680470051661608 $620 20.851267047320682 $448 $621 forward 7 unknown #
coedge $-1 $622 $623 $302 $451 forward $612 $-1 #
edge $-1 $624 -50.981685747784184 $454 -42.868663791979003 $450 $625 forward 7 unknown #
edge $-1 $455 -14.144621949357656 $624 -1.7754109250068268e-014 $303 $626 forward 7 unknown #
coedge $-1 $304 $616 $622 $627 forward $443 $-1 #
vertex $-1 $305 $628 #
vertex $-1 $305 $629 #
straight-curve $-1 -73.941688840594267 29.446338601152753 18.986487636056168 1 0 0 I I #
coedge $-1 $457 $457 $-1 $630 reversed $308 $-1 #
edge $-1 $631 0 $631 6.2831853071796004 $309 $632 forward 7 unknown #
vertex $-1 $312 $633 #
ellipse-curve $-1 -63.080874229281633 31.78085202848392 14.929976658153576 -0.57357644374324357 0 0.81915203911291934 0.81915203911291934 0 0.57357644374324357 1 I I #
coedge $-1 $461 $461 $-1 $634 reversed $315 $-1 #
edge $-1 $635 0 $635 6.2831853071796004 $316 $636 forward 7 unknown #
vertex $-1 $319 $637 #
ellipse-curve $-1 -63.080874229281633 35.282622169480661 14.929976658153576 -0.57357644374324357 0 0.81915203911291934 0.81915203911291934 0 0.57357644374324357 1 I I #
face $-1 $-1 $335 $48 $-1 $638 reversed single #
loop $-1 $-1 $481 $320 #
plane-surface $-1 0 41.778101332365367 0 0 -1 0 0 0 -1 forward_v I I I I #
coedge $-1 $639 $479 $482 $640 forward $321 $-1 #
coedge $-1 $485 $323 $324 $473 reversed $202 $-1 #
coedge $-1 $479 $639 $323 $471 reversed $321 $-1 #
edge $-1 $486 -18.986487636056165 $641 18.986487636056165 $470 $642 forward 7 unknown #
coedge $-1 $325 $324 $639 $643 forward $129 $-1 #
edge $-1 $477 -68.874172185430467 $641 68.874172185430467 $469 $644 forward 7 unknown #
coedge $-1 $482 $481 $325 $475 reversed $466 $-1 #
edge $-1 $645 -68.874172185430467 $476 68.874172185430467 $474 $646 forward 7 unknown #
vertex $-1 $327 $647 #
vertex $-1 $488 $648 #
straight-curve $-1 68.874172185430467 0 -18.986487636056165 0 -1 0 I I #
coedge $-1 $468 $470 $328 $480 reversed $321 $-1 #
edge $-1 $483 -41.778101332365367 $486 41.778101332365367 $479 $649 forward 7 unknown #
coedge $-1 $474 $329 $334 $489 forward $466 $-1 #
coedge $-1 $329 $474 $468 $640 reversed $466 $-1 #
vertex $-1 $330 $650 #
straight-curve $-1 0 41.778101332365367 18.986487636056165 -1 0 0 I I #
coedge $-1 $331 $469 $333 $488 reversed $202 $-1 #
vertex $-1 $480 $651 #
straight-curve $-1 0 -41.778101332365367 18.986487636056165 1 0 0 I I #
edge $-1 $336 -18.986487636056165 $477 18.986487636056165 $333 $652 forward 7 unknown #
edge $-1 $337 -18.986487636056165 $476 18.986487636056165 $334 $653 forward 7 unknown #
point $-1 68.874172185430467 -41.778101332365367 18.986487636056165 #
point $-1 68.874172185430467 41.778101332365367 18.986487636056165 #
face $-1 $-1 $508 $49 $-1 $654 reversed single #
loop $-1 $-1 $655 $339 #
plane-surface $-1 0 -58.603871396928852 5.8184937687605398 0 1 0 0 0 1 forward_v I I I I #
coedge $-1 $656 $505 $507 $657 forward $340 $-1 #
coedge $-1 $342 $349 $658 $659 forward $210 $-1 #
coedge $-1 $660 $347 $342 $498 reversed $508 $-1 #
edge $-1 $661 -8.4128850322817428 $351 8.4128850322817428 $497 $662 forward 7 unknown #
coedge $-1 $344 $343 $655 $663 reversed $133 $-1 #
coedge $-1 $505 $656 $343 $501 forward $340 $-1 #
edge $-1 $664 -8.4128850322817428 $503 8.4128850322817428 $343 $665 forward 7 unknown #
edge $-1 $350 -8.4128850322817428 $666 8.4128850322817428 $344 $667 forward 7 unknown #
vertex $-1 $345 $668 #
straight-curve $-1 -68.874172185430467 -41.778101332365367 0 0 0 -1 I I #
coedge $-1 $495 $500 $346 $506 reversed $340 $-1 #
edge $-1 $509 -68.874172185430467 $503 68.874172185430467 $505 $669 forward 7 unknown #
coedge $-1 $347 $660 $495 $657 reversed $508 $-1 #
loop $-1 $-1 $347 $492 #
vertex $-1 $348 $670 #
straight-curve $-1 68.874172185430467 -41.778101332365367 0 0 0 1 I I #
point $-1 -68.874172185430467 -41.778101332365367 8.7064771980298516 #
point $-1 68.874172185430467 -41.778101332365367 8.7064771980298516 #
loop $-1 $-1 $518 $353 #
plane-surface $-1 0 41.778101332365367 0 0 -1 0 0 0 -1 forward_v I I I I #
coedge $-1 $356 $523 $671 $672 forward $218 $-1 #
coedge $-1 $358 $357 $356 $517 reversed $137 $-1 #
edge $-1 $673 -23.290252632125316 $524 -13.685444768354785 $356 $674 forward 7 unknown #
coedge $-1 $671 $675 $358 $519 forward $513 $-1 #
edge $-1 $521 -80.903115983956553 $673 -72.818338534508371 $518 $676 forward 7 unknown #
coedge $-1 $364 $359 $675 $677 reversed $354 $-1 #
vertex $-1 $360 $678 #
straight-curve $-1 68.874172185430467 18.48784870024005 11.984864918354432 0 1 0 I I #
coedge $-1 $515 $361 $364 $527 forward $218 $-1 #
vertex $-1 $362 $679 #
straight-curve $-1 59.646784232690308 32.173293468594835 18.986487636056168 1 0 0 I I #
straight-curve $-1 1.8454797015010627e-006 32.173293468594835 131.27843153825535 -0.49999998660252726 0 0.86602541151947299 I I #
edge $-1 $365 32.173293468594835 $680 41.778101332365367 $364 $681 forward 7 unknown #
point $-1 68.874172185430467 32.173293468594835 18.986487636056165 #
point $-1 68.874172185430467 32.173293468594835 11.984864918354447 #
edge $-1 $682 1 $682 0 $368 $-1 forward 7 unknown #
vertex $-1 $369 $683 #
ellipse-curve $-1 64.765287601768492 36.975697400480101 14.280347777747505 0.86602541151947299 0 0.49999998660252726 0.74999997990379086 0 -1.2990381172792094 1 I I #
point $-1 67.602977857130014 36.975697400480101 14.186638159926092 #
plane-surface $-1 0 0 18.986487636056165 0 0 1 1 0 0 forward_v I I I I #
coedge $-1 $545 $544 $537 $684 forward $373 $-1 #
coedge $-1 $537 $375 $377 $541 reversed $233 $-1 #
coedge $-1 $375 $536 $535 $684 reversed $233 $-1 #
coedge $-1 $383 $378 $375 $539 forward $384 $-1 #
edge $-1 $542 -16.654112567461468 $685 -5.0675166551638 $538 $686 forward 7 unknown #
coedge $-1 $377 $376 $545 $687 reversed $146 $-1 #
edge $-1 $688 1.7754109250068268e-014 $542 14.144621949357656 $536 $689 forward 7 unknown #
vertex $-1 $379 $690 #
straight-curve $-1 -57.2875762731328 -8.2580436755715745 18.986487636056168 0 1 0 I I #
coedge $-1 $535 $380 $383 $549 reversed $373 $-1 #
coedge $-1 $380 $535 $540 $687 forward $373 $-1 #
vertex $-1 $381 $691 #
straight-curve $-1 -68.874172185430467 -20.601485848972686 61.855151428035164 0 0 1 I I #
straight-curve $-1 -68.874172185430481 -20.601485848972686 10.873465680250973 -0.81915203911291934 0 -0.57357644374324357 I I #
edge $-1 $685 12.43068885331361 $385 20.601485848972686 $544 $692 forward 7 unknown #
point $-1 -68.874172185430467 -20.601485848972686 18.986487636056165 #
point $-1 -57.2875762731328 -20.601485848972686 18.986487636056165 #
edge $-1 $693 1 $693 0 $388 $-1 forward 7 unknown #
vertex $-1 $389 $694 #
ellipse-curve $-1 -62.067124646271211 -18.266972421641523 13.482192239648777 -0.57357644374324357 0 0.81915203911291934 0.81915203911291934 0 0.57357644374324357 1 I I #
point $-1 -62.261722190168712 -18.266972421641523 15.503553101896813 #
edge $-1 $695 1 $695 0 $392 $-1 forward 7 unknown #
vertex $-1 $393 $696 #
ellipse-curve $-1 -62.067124646271211 -14.765202280644775 13.482192239648777 -0.57357644374324357 0 0.81915203911291934 0.81915203911291934 0 0.57357644374324357 1 I I #
point $-1 -62.261722190168712 -14.765202280644775 15.503553101896813 #
loop $-1 $-1 $404 $396 #
plane-surface $-1 -68.874172185430467 0 0 1 0 0 0 0 -1 forward_v I I I I #
coedge $-1 $563 $399 $401 $567 reversed $255 $-1 #
coedge $-1 $399 $562 $697 $698 reversed $255 $-1 #
coedge $-1 $407 $402 $399 $565 forward $397 $-1 #
edge $-1 $568 -16.654112567461468 $699 -5.0675166551638 $564 $700 forward 7 unknown #
coedge $-1 $401 $400 $571 $701 reversed $160 $-1 #
edge $-1 $702 1.7754109250068268e-014 $568 14.144621949357656 $562 $703 forward 7 unknown #
vertex $-1 $403 $704 #
straight-curve $-1 -57.2875762731328 0.083260399449329725 18.986487636056168 0 1 0 I I #
coedge $-1 $697 $404 $407 $575 reversed $560 $-1 #
coedge $-1 $404 $697 $566 $701 forward $560 $-1 #
vertex $-1 $405 $705 #
straight-curve $-1 -68.874172185430467 -3.9188776989308796 61.855151428035164 0 0 1 I I #
straight-curve $-1 -68.874172185430481 -3.9188776989308796 10.873465680250973 -0.81915203911291934 0 -0.57357644374324357 I I #
edge $-1 $699 -4.2519192967281985 $408 3.9188776989308796 $570 $706 forward 7 unknown #
point $-1 -68.874172185430467 -3.9188776989308796 18.986487636056165 #
point $-1 -57.2875762731328 -3.9188776989308796 18.986487636056165 #
edge $-1 $707 1 $707 0 $411 $-1 forward 7 unknown #
vertex $-1 $412 $708 #
ellipse-curve $-1 -62.067124646271211 -1.5843642715997106 13.482192239648777 -0.57357644374324357 0 0.81915203911291934 0.81915203911291934 0 0.57357644374324357 1 I I #
point $-1 -62.261722190168712 -1.5843642715997106 15.503553101896813 #
edge $-1 $709 1 $709 0 $415 $-1 forward 7 unknown #
vertex $-1 $416 $710 #
ellipse-curve $-1 -62.067124646271211 1.9174058693970366 13.482192239648777 -0.57357644374324357 0 0.81915203911291934 0.81915203911291934 0 0.57357644374324357 1 I I #
point $-1 -62.261722190168712 1.9174058693970366 15.503553101896813 #
loop $-1 $-1 $427 $419 #
plane-surface $-1 -68.874172185430467 0 0 1 0 0 0 0 -1 forward_v I I I I #
coedge $-1 $589 $422 $424 $593 reversed $277 $-1 #
coedge $-1 $422 $588 $711 $712 reversed $277 $-1 #
coedge $-1 $430 $425 $422 $591 forward $420 $-1 #
edge $-1 $594 -16.654112567461468 $713 -5.0675166551638 $590 $714 forward 7 unknown #
coedge $-1 $424 $423 $597 $715 reversed $174 $-1 #
edge $-1 $716 1.7754109250068268e-014 $594 14.144621949357656 $588 $717 forward 7 unknown #
vertex $-1 $426 $718 #
straight-curve $-1 -57.2875762731328 8.4245644744702375 18.986487636056168 0 1 0 I I #
coedge $-1 $711 $427 $430 $601 reversed $586 $-1 #
coedge $-1 $427 $711 $592 $715 forward $586 $-1 #
vertex $-1 $428 $719 #
straight-curve $-1 -68.874172185430467 12.763730451110936 61.855151428035164 0 0 1 I I #
straight-curve $-1 -68.874172185430481 12.763730451110936 10.873465680250973 -0.81915203911291934 0 -0.57357644374324357 I I #
edge $-1 $713 -20.934527446770012 $431 -12.763730451110936 $596 $720 forward 7 unknown #
point $-1 -68.874172185430467 12.763730451110936 18.986487636056165 #
point $-1 -57.2875762731328 12.763730451110936 18.986487636056165 #
edge $-1 $721 1 $721 0 $434 $-1 forward 7 unknown #
vertex $-1 $435 $722 #
ellipse-curve $-1 -62.067124646271211 15.098243878442105 13.482192239648777 -0.57357644374324357 0 0.81915203911291934 0.81915203911291934 0 0.57357644374324357 1 I I #
point $-1 -62.261722190168712 15.098243878442105 15.503553101896813 #
edge $-1 $723 1 $723 0 $438 $-1 forward 7 unknown #
vertex $-1 $439 $724 #
ellipse-curve $-1 -62.067124646271211 18.600014019438845 13.482192239648777 -0.57357644374324357 0 0.81915203911291934 0.81915203911291934 0 0.57357644374324357 1 I I #
point $-1 -62.261722190168712 18.600014019438845 15.503553101896813 #
loop $-1 $-1 $450 $442 #
plane-surface $-1 -68.874172185430467 0 0 1 0 0 0 0 -1 forward_v I I I I #
coedge $-1 $615 $445 $447 $619 reversed $299 $-1 #
coedge $-1 $445 $614 $725 $726 reversed $299 $-1 #
coedge $-1 $453 $448 $445 $617 forward $443 $-1 #
edge $-1 $620 -16.654112567461468 $727 -5.0675166551638 $616 $728 forward 7 unknown #
coedge $-1 $447 $446 $623 $729 reversed $188 $-1 #
edge $-1 $730 1.7754109250068268e-014 $620 14.144621949357656 $614 $731 forward 7 unknown #
vertex $-1 $449 $732 #
straight-curve $-1 -57.2875762731328 16.765868549491145 18.986487636056168 0 1 0 I I #
coedge $-1 $725 $450 $453 $627 reversed $612 $-1 #
coedge $-1 $450 $725 $618 $729 forward $612 $-1 #
vertex $-1 $451 $733 #
straight-curve $-1 -68.874172185430467 29.446338601152753 61.855151428035164 0 0 1 I I #
straight-curve $-1 -68.874172185430481 29.446338601152753 10.873465680250973 -0.81915203911291934 0 -0.57357644374324357 I I #
edge $-1 $727 -37.617135596811828 $454 -29.446338601152753 $622 $734 forward 7 unknown #
point $-1 -68.874172185430467 29.446338601152753 18.986487636056165 #
point $-1 -57.2875762731328 29.446338601152753 18.986487636056165 #
edge $-1 $735 1 $735 0 $457 $-1 forward 7 unknown #
vertex $-1 $458 $736 #
ellipse-curve $-1 -62.067124646271211 31.78085202848392 13.482192239648777 -0.57357644374324357 0 0.81915203911291934 0.81915203911291934 0 0.57357644374324357 1 I I #
point $-1 -62.261722190168712 31.78085202848392 15.503553101896813 #
edge $-1 $737 1 $737 0 $461 $-1 forward 7 unknown #
vertex $-1 $462 $738 #
ellipse-curve $-1 -62.067124646271211 35.282622169480661 13.482192239648777 -0.57357644374324357 0 0.81915203911291934 0.81915203911291934 0 0.57357644374324357 1 I I #
point $-1 -62.261722190168712 35.282622169480661 15.503553101896813 #
plane-surface $-1 68.874172185430467 0 0 -1 0 0 0 0 1 forward_v I I I I #
coedge $-1 $470 $468 $472 $643 reversed $321 $-1 #
edge $-1 $483 -18.986487636056165 $645 18.986487636056165 $482 $739 forward 7 unknown #
vertex $-1 $643 $740 #
straight-curve $-1 -68.874172185430467 -41.778101332365367 0 0 0 -1 I I #
edge $-1 $641 -41.778101332365367 $645 41.778101332365367 $639 $741 forward 7 unknown #
straight-curve $-1 0 -41.778101332365367 -18.986487636056165 -1 0 0 I I #
vertex $-1 $475 $742 #
straight-curve $-1 0 41.778101332365367 -18.986487636056165 1 0 0 I I #
point $-1 68.874172185430467 41.778101332365367 -18.986487636056165 #
point $-1 68.874172185430467 -41.778101332365367 -18.986487636056165 #
straight-curve $-1 -68.874172185430467 0 18.986487636056165 0 -1 0 I I #
point $-1 -68.874172185430467 41.778101332365367 18.986487636056165 #
point $-1 -68.874172185430467 -41.778101332365367 18.986487636056165 #
straight-curve $-1 68.874172185430467 -41.778101332365367 0 0 0 -1 I I #
straight-curve $-1 68.874172185430467 41.778101332365367 0 0 0 -1 I I #
plane-surface $-1 68.874172185430467 0 0 -1 0 0 0 0 1 forward_v I I I I #
coedge $-1 $743 $658 $499 $663 forward $493 $-1 #
coedge $-1 $500 $495 $743 $744 forward $340 $-1 #
edge $-1 $509 -8.4128850322817428 $745 8.4128850322817428 $507 $746 forward 7 unknown #
coedge $-1 $655 $747 $496 $659 reversed $493 $-1 #
edge $-1 $666 -68.874172185430467 $661 68.874172185430467 $658 $748 forward 7 unknown #
coedge $-1 $507 $497 $747 $749 forward $508 $-1 #
vertex $-1 $498 $750 #
straight-curve $-1 68.874172185430467 -50.190986364647109 8.7064771980298516 0 1 0 I I #
edge $-1 $666 -2.8879834292693118 $664 2.8879834292693118 $499 $751 forward 7 unknown #
vertex $-1 $501 $752 #
straight-curve $-1 -68.874172185430467 -50.190986364647109 2.930510339491228 0 1 0 I I #
vertex $-1 $502 $753 #
straight-curve $-1 -68.874172185430467 -50.190986364647109 8.7064771980298516 0 -1 0 I I #
point $-1 -68.874172185430467 -41.778101332365367 2.930510339491228 #
straight-curve $-1 0 -41.778101332365367 2.930510339491228 -1 0 0 I I #
point $-1 68.874172185430467 -41.778101332365367 2.930510339491228 #
coedge $-1 $675 $518 $515 $672 reversed $513 $-1 #
edge $-1 $680 -68.874172185430467 $673 -64.831783569021965 $671 $754 forward 7 unknown #
vertex $-1 $519 $755 #
straight-curve $-1 64.831783569021951 18.48784870024005 18.986487636056168 0 -1 0 I I #
coedge $-1 $518 $671 $520 $677 forward $513 $-1 #
straight-curve $-1 28.422615277349482 41.778101332365367 82.049019231568067 -0.49999998660252726 0 0.86602541151947299 I I #
edge $-1 $680 -18.986487636056165 $521 -11.984864918354438 $520 $756 forward 7 unknown #
point $-1 68.874172185430467 41.778101332365367 11.984864918354438 #
point $-1 64.831783569021965 32.173293468594835 18.986487636056168 #
vertex $-1 $527 $757 #
straight-curve $-1 68.874172185430467 0 18.986487636056165 0 1 0 I I #
vertex $-1 $530 $758 #
point $-1 65.515287581672283 36.975697400480101 12.981309660468295 #
edge $-1 $685 42.868663791979003 $688 50.981685747784184 $535 $759 forward 7 unknown #
vertex $-1 $549 $760 #
straight-curve $-1 -73.941688840594267 -12.43068885331361 18.986487636056168 -1 0 0 I I #
edge $-1 $688 4.1726451777420355 $546 12.343442173401112 $545 $761 forward 7 unknown #
vertex $-1 $687 $762 #
straight-curve $-1 -68.874172185430481 -12.43068885331361 10.873465680250973 0.81915203911291934 0 0.57357644374324357 I I #
point $-1 -57.2875762731328 -12.43068885331361 18.986487636056165 #
point $-1 -68.874172185430467 -20.601485848972686 10.873465680250984 #
straight-curve $-1 -68.874172185430467 0 18.986487636056165 0 -1 0 I I #
vertex $-1 $552 $763 #
point $-1 -61.247972607158289 -18.266972421641523 14.055768683392021 #
vertex $-1 $556 $764 #
point $-1 -61.247972607158289 -14.765202280644775 14.055768683392021 #
coedge $-1 $571 $570 $563 $698 forward $560 $-1 #
edge $-1 $699 42.868663791979003 $702 50.981685747784184 $697 $765 forward 7 unknown #
vertex $-1 $575 $766 #
straight-curve $-1 -73.941688840594267 4.2519192967281985 18.986487636056168 -1 0 0 I I #
edge $-1 $702 -4.1686588972788687 $572 4.0021380983802093 $571 $767 forward 7 unknown #
vertex $-1 $701 $768 #
straight-curve $-1 -68.874172185430481 4.2519192967281985 10.873465680250973 0.81915203911291934 0 0.57357644374324357 I I #
point $-1 -57.2875762731328 4.2519192967281985 18.986487636056165 #
point $-1 -68.874172185430467 -3.9188776989308796 10.873465680250984 #
straight-curve $-1 -68.874172185430467 0 18.986487636056165 0 -1 0 I I #
vertex $-1 $578 $769 #
point $-1 -61.247972607158289 -1.5843642715997106 14.055768683392021 #
vertex $-1 $582 $770 #
point $-1 -61.247972607158289 1.9174058693970366 14.055768683392021 #
coedge $-1 $597 $596 $589 $712 forward $586 $-1 #
edge $-1 $713 42.868663791979003 $716 50.981685747784184 $711 $771 forward 7 unknown #
vertex $-1 $601 $772 #
straight-curve $-1 -73.941688840594267 20.934527446770012 18.986487636056168 -1 0 0 I I #
edge $-1 $716 -12.509962972299775 $598 -4.3391659766406985 $597 $773 forward 7 unknown #
vertex $-1 $715 $774 #
straight-curve $-1 -68.874172185430481 20.934527446770012 10.873465680250973 0.81915203911291934 0 0.57357644374324357 I I #
point $-1 -57.2875762731328 20.934527446770012 18.986487636056165 #
point $-1 -68.874172185430467 12.763730451110936 10.873465680250984 #
straight-curve $-1 -68.874172185430467 0 18.986487636056165 0 -1 0 I I #
vertex $-1 $604 $775 #
point $-1 -61.247972607158289 15.098243878442105 14.055768683392021 #
vertex $-1 $608 $776 #
point $-1 -61.247972607158289 18.600014019438845 14.055768683392021 #
coedge $-1 $623 $622 $615 $726 forward $612 $-1 #
edge $-1 $727 42.868663791979003 $730 50.981685747784184 $725 $777 forward 7 unknown #
vertex $-1 $627 $778 #
straight-curve $-1 -73.941688840594267 37.617135596811828 18.986487636056168 -1 0 0 I I #
edge $-1 $730 -20.851267047320682 $624 -12.680470051661608 $623 $779 forward 7 unknown #
vertex $-1 $729 $780 #
straight-curve $-1 -68.874172185430481 37.617135596811828 10.873465680250973 0.81915203911291934 0 0.57357644374324357 I I #
point $-1 -57.2875762731328 37.617135596811828 18.986487636056165 #
point $-1 -68.874172185430467 29.446338601152753 10.873465680250984 #
straight-curve $-1 -68.874172185430467 0 18.986487636056165 0 -1 0 I I #
vertex $-1 $630 $781 #
point $-1 -61.247972607158289 31.78085202848392 14.055768683392021 #
vertex $-1 $634 $782 #
point $-1 -61.247972607158289 35.282622169480661 14.055768683392021 #
straight-curve $-1 -68.874172185430467 41.778101332365367 0 0 0 -1 I I #
point $-1 -68.874172185430467 -41.778101332365367 -18.986487636056165 #
straight-curve $-1 -68.874172185430467 0 -18.986487636056165 0 1 0 I I #
point $-1 -68.874172185430467 41.778101332365367 -18.986487636056165 #
coedge $-1 $747 $655 $656 $744 reversed $493 $-1 #
edge $-1 $745 -68.874172185430467 $664 68.874172185430467 $743 $783 forward 7 unknown #
vertex $-1 $749 $784 #
straight-curve $-1 68.874172185430467 -50.190986364647109 2.930510339491228 0 -1 0 I I #
coedge $-1 $658 $743 $660 $749 reversed $493 $-1 #
straight-curve $-1 0 -58.603871396928852 8.7064771980298516 1 0 0 I I #
edge $-1 $661 -2.8879834292693118 $745 2.8879834292693118 $660 $785 forward 7 unknown #
point $-1 68.874172185430467 -58.603871396928852 8.7064771980298516 #
straight-curve $-1 -68.874172185430467 -58.603871396928852 5.8184937687605398 0 0 -1 I I #
point $-1 -68.874172185430467 -58.603871396928852 2.930510339491228 #
point $-1 -68.874172185430467 -58.603871396928852 8.7064771980298516 #
straight-curve $-1 0 41.778101332365367 18.986487636056165 -1 0 0 I I #
point $-1 64.831783569021965 41.778101332365367 18.986487636056168 #
straight-curve $-1 68.874172185430467 41.778101332365367 0 0 0 -1 I I #
point $-1 68.874172185430467 41.778101332365367 18.986487636056165 #
point $-1 63.466249484489289 36.975697400480101 13.530347797843714 #
straight-curve $-1 -68.874172185430467 -12.43068885331361 61.855151428035164 0 0 -1 I I #
point $-1 -68.874172185430467 -12.43068885331361 18.986487636056165 #
straight-curve $-1 -68.874172185430467 -8.2580436755715745 10.873465680250979 0 -1 0 I I #
point $-1 -68.874172185430467 -12.43068885331361 10.873465680250984 #
point $-1 -61.493548202527961 -18.266972421641523 12.663040200535859 #
point $-1 -61.493548202527961 -14.765202280644775 12.663040200535859 #
straight-curve $-1 -68.874172185430467 4.2519192967281985 61.855151428035164 0 0 -1 I I #
point $-1 -68.874172185430467 4.2519192967281985 18.986487636056165 #
straight-curve $-1 -68.874172185430467 0.083260399449329725 10.873465680250979 0 -1 0 I I #
point $-1 -68.874172185430467 4.2519192967281985 10.873465680250984 #
point $-1 -61.493548202527961 -1.5843642715997106 12.663040200535859 #
point $-1 -61.493548202527961 1.9174058693970366 12.663040200535859 #
straight-curve $-1 -68.874172185430467 20.934527446770012 61.855151428035164 0 0 -1 I I #
point $-1 -68.874172185430467 20.934527446770012 18.986487636056165 #
straight-curve $-1 -68.874172185430467 8.4245644744702375 10.873465680250979 0 -1 0 I I #
point $-1 -68.874172185430467 20.934527446770012 10.873465680250984 #
point $-1 -61.493548202527961 15.098243878442105 12.663040200535859 #
point $-1 -61.493548202527961 18.600014019438845 12.663040200535859 #
straight-curve $-1 -68.874172185430467 37.617135596811828 61.855151428035164 0 0 -1 I I #
point $-1 -68.874172185430467 37.617135596811828 18.986487636056165 #
straight-curve $-1 -68.874172185430467 16.765868549491145 10.873465680250979 0 -1 0 I I #
point $-1 -68.874172185430467 37.617135596811828 10.873465680250984 #
point $-1 -61.493548202527961 31.78085202848392 12.663040200535859 #
point $-1 -61.493548202527961 35.282622169480661 12.663040200535859 #
straight-curve $-1 0 -58.603871396928852 2.930510339491228 -1 0 0 I I #
point $-1 68.874172185430467 -58.603871396928852 2.930510339491228 #
straight-curve $-1 68.874172185430467 -58.603871396928852 5.8184937687605398 0 0 -1 I I #
End-of-ACIS-data 