500 0 13 0           
7 Unknown 11 ACIS 5.0 NT 24 Thu Mar 25 17:28:16 1999 
-1 9.9999999999999995e-007 1e-010 
body $-1 $13 $-1 $14 #
body $-1 $15 $-1 $16 #
body $-1 $17 $-1 $18 #
body $-1 $19 $-1 $20 #
body $-1 $21 $-1 $22 #
body $-1 $23 $-1 $24 #
body $-1 $25 $-1 $26 #
body $-1 $27 $-1 $28 #
body $-1 $29 $-1 $30 #
body $-1 $31 $-1 $32 #
body $-1 $33 $-1 $34 #
body $-1 $35 $-1 $36 #
body $-1 $37 $-1 $38 #
lump $-1 $-1 $39 $0 #
transform $-1 1 0 0 0 1 0 0 0 1 41.987365337076938 23.666794116937044 4.9769100479801756 1 rotate no_reflect no_shear #
lump $-1 $-1 $40 $1 #
transform $-1 1 0 0 0 1 0 0 0 1 41.987365337076938 23.666794116937044 4.9769100479801756 1 rotate no_reflect no_shear #
lump $-1 $-1 $41 $2 #
transform $-1 1 0 0 0 1 0 0 0 1 41.987365337076938 23.666794116937044 4.9769100479801756 1 rotate no_reflect no_shear #
lump $-1 $-1 $42 $3 #
transform $-1 1 0 0 0 1 0 0 0 1 41.987365337076938 23.666794116937044 4.9769100479801756 1 rotate no_reflect no_shear #
lump $-1 $-1 $43 $4 #
transform $-1 1 0 0 0 1 0 0 0 1 41.987365337076938 23.666794116937044 4.9769100479801756 1 rotate no_reflect no_shear #
lump $-1 $-1 $44 $5 #
transform $-1 1 0 0 0 1 0 0 0 1 41.987365337076938 23.666794116937044 4.9769100479801756 1 rotate no_reflect no_shear #
lump $-1 $-1 $45 $6 #
transform $-1 1 0 0 0 1 0 0 0 1 41.987365337076938 23.666794116937044 4.9769100479801756 1 rotate no_reflect no_shear #
lump $-1 $-1 $46 $7 #
transform $-1 1 0 0 0 1 0 0 0 1 41.987365337076938 23.666794116937044 4.9769100479801756 1 rotate no_reflect no_shear #
lump $-1 $-1 $47 $8 #
transform $-1 1 0 0 0 1 0 0 0 1 41.987365337076938 23.666794116937044 4.9769100479801756 1 rotate no_reflect no_shear #
lump $-1 $-1 $48 $9 #
transform $-1 1 0 0 0 1 0 0 0 1 41.987365337076938 23.666794116937044 4.9769100479801756 1 rotate no_reflect no_shear #
lump $-1 $-1 $49 $10 #
transform $-1 1 0 0 0 1 0 0 0 1 41.987365337076938 23.666794116937044 4.9769100479801756 1 rotate no_reflect no_shear #
lump $-1 $-1 $50 $11 #
transform $-1 1 0 0 0 1 0 0 0 1 41.987365337076938 23.666794116937044 4.9769100479801756 1 rotate no_reflect no_shear #
lump $-1 $-1 $51 $12 #
transform $-1 1 0 0 0 1 0 0 0 1 41.987365337076938 23.666794116937044 4.9769100479801756 1 rotate no_reflect no_shear #
shell $-1 $-1 $-1 $52 $-1 $13 #
shell $-1 $-1 $-1 $53 $-1 $15 #
shell $-1 $-1 $-1 $54 $-1 $17 #
shell $-1 $-1 $-1 $55 $-1 $19 #
shell $-1 $-1 $-1 $56 $-1 $21 #
shell $-1 $-1 $-1 $57 $-1 $23 #
shell $-1 $-1 $-1 $58 $-1 $25 #
shell $-1 $-1 $-1 $59 $-1 $27 #
shell $-1 $-1 $-1 $60 $-1 $29 #
shell $-1 $-1 $-1 $61 $-1 $31 #
shell $-1 $-1 $-1 $62 $-1 $33 #
shell $-1 $-1 $-1 $63 $-1 $35 #
shell $-1 $-1 $-1 $64 $-1 $37 #
face $-1 $65 $66 $39 $-1 $67 forward single #
face $-1 $68 $69 $40 $-1 $70 reversed single #
face $-1 $71 $72 $41 $-1 $73 forward single #
face $-1 $74 $75 $42 $-1 $76 forward single #
face $-1 $77 $78 $43 $-1 $79 reversed single #
face $-1 $80 $81 $44 $-1 $82 forward single #
face $-1 $83 $84 $45 $-1 $85 forward single #
face $-1 $86 $87 $46 $-1 $88 reversed single #
face $-1 $89 $90 $47 $-1 $91 forward single #
face $-1 $92 $93 $48 $-1 $94 forward single #
face $-1 $95 $96 $49 $-1 $97 reversed single #
face $-1 $98 $99 $50 $-1 $100 forward single #
face $-1 $101 $102 $51 $-1 $103 forward single #
face $-1 $104 $105 $39 $-1 $106 reversed single #
loop $-1 $-1 $107 $52 #
plane-surface $-1 0 0 4.9769100479801756 0 0 1 1 0 0 forward_v I I I I #
face $-1 $108 $109 $40 $-1 $110 reversed single #
loop $-1 $-1 $111 $53 #
plane-surface $-1 -102.39373202557559 -17.877431711778705 58.511608615397812 0 1 0 -0.71933980857756763 0 0.69465836192734942 forward_v I I I I #
face $-1 $112 $113 $41 $-1 $114 forward single #
loop $-1 $115 $116 $54 #
cone-surface $-1 -39.039741462041896 -16.150564667975793 1.9685862911569045 0.71933980857756763 0 -0.69465836192734942 0.34732918096367471 0 0.35966990428878381 1 I I 0 1 0.5 forward I I I I #
face $-1 $117 $118 $42 $-1 $119 forward single #
loop $-1 $120 $121 $55 #
cone-surface $-1 -39.039741462041896 -13.560264102271432 1.9685862911569045 0.71933980857756763 0 -0.69465836192734942 0.34732918096367471 0 0.35966990428878381 1 I I 0 1 0.5 forward I I I I #
face $-1 $122 $123 $43 $-1 $124 reversed single #
loop $-1 $-1 $125 $56 #
plane-surface $-1 -102.39373202557559 -6.0440346533101827 58.511608615397812 0 1 0 -0.71933980857756763 0 0.69465836192734942 forward_v I I I I #
face $-1 $126 $127 $44 $-1 $128 forward single #
loop $-1 $129 $130 $57 #
cone-surface $-1 -39.039741462041896 -4.3171676095072726 1.9685862911569045 0.71933980857756763 0 -0.69465836192734942 0.34732918096367471 0 0.35966990428878381 1 I I 0 1 0.5 forward I I I I #
face $-1 $131 $132 $45 $-1 $133 forward single #
loop $-1 $134 $135 $58 #
cone-surface $-1 -39.039741462041896 -1.7268670438029083 1.9685862911569045 0.71933980857756763 0 -0.69465836192734942 0.34732918096367471 0 0.35966990428878381 1 I I 0 1 0.5 forward I I I I #
face $-1 $136 $137 $46 $-1 $138 reversed single #
loop $-1 $-1 $139 $59 #
plane-surface $-1 -102.39373202557559 5.7893624051583377 58.511608615397812 0 1 0 -0.71933980857756763 0 0.69465836192734942 forward_v I I I I #
face $-1 $140 $141 $47 $-1 $142 forward single #
loop $-1 $143 $144 $60 #
cone-surface $-1 -39.039741462041896 7.5162294489612513 1.9685862911569045 0.71933980857756763 0 -0.69465836192734942 0.34732918096367471 0 0.35966990428878381 1 I I 0 1 0.5 forward I I I I #
face $-1 $145 $146 $48 $-1 $147 forward single #
loop $-1 $148 $149 $61 #
cone-surface $-1 -39.039741462041896 10.106530014665612 1.9685862911569045 0.71933980857756763 0 -0.69465836192734942 0.34732918096367471 0 0.35966990428878381 1 I I 0 1 0.5 forward I I I I #
face $-1 $150 $151 $49 $-1 $152 reversed single #
loop $-1 $-1 $153 $62 #
plane-surface $-1 -102.39373202557559 17.622759463626856 58.511608615397812 0 1 0 -0.71933980857756763 0 0.69465836192734942 forward_v I I I I #
face $-1 $154 $155 $50 $-1 $156 forward single #
loop $-1 $157 $158 $63 #
cone-surface $-1 -39.039741462041896 19.349626507429772 1.9685862911569045 0.71933980857756763 0 -0.69465836192734942 0.34732918096367471 0 0.35966990428878381 1 I I 0 1 0.5 forward I I I I #
face $-1 $159 $160 $51 $-1 $161 forward single #
loop $-1 $162 $163 $64 #
cone-surface $-1 -39.039741462041896 21.939927073134132 1.9685862911569045 0.71933980857756763 0 -0.69465836192734942 0.34732918096367471 0 0.35966990428878381 1 I I 0 1 0.5 forward I I I I #
face $-1 $164 $165 $39 $-1 $166 reversed single #
loop $-1 $-1 $167 $65 #
plane-surface $-1 0 0 -4.9769100479801756 0 0 1 1 0 0 forward_v I I I I #
coedge $-1 $168 $169 $170 $171 forward $66 $-1 #
face $-1 $172 $173 $40 $-1 $174 reversed single #
loop $-1 $-1 $175 $68 #
plane-surface $-1 -41.987365337076945 -14.855414385123613 0.17785976199974129 -0.71933980857756763 0 0.69465836192734942 0.69465836192734942 0 0.71933980857756763 forward_v I I I I #
coedge $-1 $176 $177 $178 $179 reversed $69 $-1 #
face $-1 $-1 $180 $41 $-1 $181 forward single #
loop $-1 $182 $183 $71 #
cone-surface $-1 -38.229477075316311 -16.150564667975793 1.186123086842013 0.71933980857756763 0 -0.69465836192734942 0.17366459048183736 0 0.17983495214439191 1 I I -0.70710678118654746 0.70710678118654746 0.25 forward I I I I #
loop $-1 $-1 $184 $54 #
coedge $-1 $116 $116 $185 $186 reversed $72 $-1 #
face $-1 $-1 $187 $42 $-1 $188 forward single #
loop $-1 $189 $190 $74 #
cone-surface $-1 -38.229477075316311 -13.560264102271432 1.186123086842013 0.71933980857756763 0 -0.69465836192734942 0.17366459048183736 0 0.17983495214439191 1 I I -0.70710678118654746 0.70710678118654746 0.25 forward I I I I #
loop $-1 $-1 $191 $55 #
coedge $-1 $121 $121 $192 $193 reversed $75 $-1 #
face $-1 $194 $195 $43 $-1 $196 reversed single #
loop $-1 $-1 $197 $77 #
plane-surface $-1 -41.987365337076945 -3.0220173266550923 0.17785976199974129 -0.71933980857756763 0 0.69465836192734942 0.69465836192734942 0 0.71933980857756763 forward_v I I I I #
coedge $-1 $198 $199 $200 $201 reversed $78 $-1 #
face $-1 $-1 $202 $44 $-1 $203 forward single #
loop $-1 $204 $205 $80 #
cone-surface $-1 -38.229477075316311 -4.3171676095072726 1.186123086842013 0.71933980857756763 0 -0.69465836192734942 0.17366459048183736 0 0.17983495214439191 1 I I -0.70710678118654746 0.70710678118654746 0.25 forward I I I I #
loop $-1 $-1 $206 $57 #
coedge $-1 $130 $130 $207 $208 reversed $81 $-1 #
face $-1 $-1 $209 $45 $-1 $210 forward single #
loop $-1 $211 $212 $83 #
cone-surface $-1 -38.229477075316311 -1.7268670438029083 1.186123086842013 0.71933980857756763 0 -0.69465836192734942 0.17366459048183736 0 0.17983495214439191 1 I I -0.70710678118654746 0.70710678118654746 0.25 forward I I I I #
loop $-1 $-1 $213 $58 #
coedge $-1 $135 $135 $214 $215 reversed $84 $-1 #
face $-1 $216 $217 $46 $-1 $218 reversed single #
loop $-1 $-1 $219 $86 #
plane-surface $-1 -41.987365337076945 8.8113797318134282 0.17785976199974129 -0.71933980857756763 0 0.69465836192734942 0.69465836192734942 0 0.71933980857756763 forward_v I I I I #
coedge $-1 $220 $221 $222 $223 reversed $87 $-1 #
face $-1 $-1 $224 $47 $-1 $225 forward single #
loop $-1 $226 $227 $89 #
cone-surface $-1 -38.229477075316311 7.5162294489612513 1.186123086842013 0.71933980857756763 0 -0.69465836192734942 0.17366459048183736 0 0.17983495214439191 1 I I -0.70710678118654746 0.70710678118654746 0.25 forward I I I I #
loop $-1 $-1 $228 $60 #
coedge $-1 $144 $144 $229 $230 reversed $90 $-1 #
face $-1 $-1 $231 $48 $-1 $232 forward single #
loop $-1 $233 $234 $92 #
cone-surface $-1 -38.229477075316311 10.106530014665612 1.186123086842013 0.71933980857756763 0 -0.69465836192734942 0.17366459048183736 0 0.17983495214439191 1 I I -0.70710678118654746 0.70710678118654746 0.25 forward I I I I #
loop $-1 $-1 $235 $61 #
coedge $-1 $149 $149 $236 $237 reversed $93 $-1 #
face $-1 $238 $239 $49 $-1 $240 forward single #
loop $-1 $-1 $241 $95 #
plane-surface $-1 -41.987365337076945 20.644776790281949 0.17785976199974129 -0.71933980857756763 0 0.69465836192734942 0.69465836192734942 0 0.71933980857756763 forward_v I I I I #
coedge $-1 $242 $243 $244 $245 reversed $96 $-1 #
face $-1 $-1 $246 $50 $-1 $247 forward single #
loop $-1 $248 $249 $98 #
cone-surface $-1 -38.229477075316311 19.349626507429772 1.186123086842013 0.71933980857756763 0 -0.69465836192734942 0.17366459048183736 0 0.17983495214439191 1 I I -0.70710678118654746 0.70710678118654746 0.25 forward I I I I #
loop $-1 $-1 $250 $63 #
coedge $-1 $158 $158 $251 $252 reversed $99 $-1 #
face $-1 $-1 $253 $51 $-1 $254 forward single #
loop $-1 $255 $256 $101 #
cone-surface $-1 -38.229477075316311 21.939927073134132 1.186123086842013 0.71933980857756763 0 -0.69465836192734942 0.17366459048183736 0 0.17983495214439191 1 I I -0.70710678118654746 0.70710678118654746 0.25 forward I I I I #
loop $-1 $-1 $257 $64 #
coedge $-1 $163 $163 $258 $259 reversed $102 $-1 #
face $-1 $260 $261 $39 $-1 $262 reversed single #
loop $-1 $-1 $263 $104 #
plane-surface $-1 0 -23.666794116937044 0 0 1 0 0 0 1 forward_v I I I I #
coedge $-1 $264 $265 $266 $267 forward $105 $-1 #
coedge $-1 $268 $107 $269 $270 forward $66 $-1 #
coedge $-1 $107 $268 $271 $272 forward $66 $-1 #
coedge $-1 $273 $274 $107 $171 reversed $275 $-1 #
edge $-1 $276 -23.666794116937044 $277 23.666794116937044 $170 $278 forward 7 unknown #
face $-1 $279 $280 $40 $-1 $281 reversed single #
loop $-1 $-1 $282 $108 #
plane-surface $-1 -102.39373202557559 -11.833397058468522 58.511608615397812 0 -1 0 0.71933980857756763 0 -0.69465836192734942 forward_v I I I I #
coedge $-1 $283 $284 $285 $286 reversed $109 $-1 #
coedge $-1 $177 $111 $287 $288 reversed $69 $-1 #
coedge $-1 $111 $176 $283 $289 reversed $69 $-1 #
coedge $-1 $285 $290 $111 $179 forward $291 $-1 #
edge $-1 $292 9.2095006757108564 $293 13.843889556618542 $178 $294 forward 7 unknown #
loop $-1 $-1 $185 $112 #
plane-surface $-1 -41.987365337076945 -14.855414385123613 0.17785976199974129 -0.71933980857756763 0 0.69465836192734942 0.69465836192734942 0 0.71933980857756763 forward_v I I I I #
loop $-1 $-1 $295 $71 #
coedge $-1 $183 $183 $184 $296 reversed $113 $-1 #
coedge $-1 $184 $184 $183 $296 forward $115 $-1 #
coedge $-1 $185 $185 $116 $186 forward $180 $-1 #
edge $-1 $297 0 $297 6.2831853071796004 $185 $298 forward 7 unknown #
loop $-1 $-1 $192 $117 #
plane-surface $-1 -41.987365337076945 -14.855414385123613 0.17785976199974129 -0.71933980857756763 0 0.69465836192734942 0.69465836192734942 0 0.71933980857756763 forward_v I I I I #
loop $-1 $-1 $299 $74 #
coedge $-1 $190 $190 $191 $300 reversed $118 $-1 #
coedge $-1 $191 $191 $190 $300 forward $120 $-1 #
coedge $-1 $192 $192 $121 $193 forward $187 $-1 #
edge $-1 $301 0 $301 6.2831853071796004 $192 $302 forward 7 unknown #
face $-1 $303 $304 $43 $-1 $305 forward single #
loop $-1 $-1 $306 $122 #
plane-surface $-1 -102.39373202557559 -1.3322676295501878e-015 58.511608615397812 0 -1 0 0.71933980857756763 0 -0.69465836192734942 forward_v I I I I #
coedge $-1 $307 $308 $309 $310 reversed $123 $-1 #
coedge $-1 $199 $125 $311 $312 reversed $78 $-1 #
coedge $-1 $125 $198 $307 $313 reversed $78 $-1 #
coedge $-1 $309 $314 $125 $201 forward $304 $-1 #
edge $-1 $315 9.2095006757108564 $316 13.843889556618542 $200 $317 forward 7 unknown #
loop $-1 $-1 $207 $126 #
plane-surface $-1 -41.987365337076945 -3.0220173266550923 0.17785976199974129 -0.71933980857756763 0 0.69465836192734942 0.69465836192734942 0 0.71933980857756763 forward_v I I I I #
loop $-1 $-1 $318 $80 #
coedge $-1 $205 $205 $206 $319 reversed $127 $-1 #
coedge $-1 $206 $206 $205 $319 forward $129 $-1 #
coedge $-1 $207 $207 $130 $208 forward $202 $-1 #
edge $-1 $320 0 $320 6.2831853071796004 $207 $321 forward 7 unknown #
loop $-1 $-1 $214 $131 #
plane-surface $-1 -41.987365337076945 -3.0220173266550923 0.17785976199974129 -0.71933980857756763 0 0.69465836192734942 0.69465836192734942 0 0.71933980857756763 forward_v I I I I #
loop $-1 $-1 $322 $83 #
coedge $-1 $212 $212 $213 $323 reversed $132 $-1 #
coedge $-1 $213 $213 $212 $323 forward $134 $-1 #
coedge $-1 $214 $214 $135 $215 forward $209 $-1 #
edge $-1 $324 0 $324 6.2831853071796004 $214 $325 forward 7 unknown #
face $-1 $326 $327 $46 $-1 $328 forward single #
loop $-1 $-1 $329 $136 #
plane-surface $-1 -102.39373202557559 11.833397058468519 58.511608615397812 0 -1 0 0.71933980857756763 0 -0.69465836192734942 forward_v I I I I #
coedge $-1 $330 $331 $332 $333 reversed $137 $-1 #
coedge $-1 $221 $139 $334 $335 reversed $87 $-1 #
coedge $-1 $139 $220 $330 $336 reversed $87 $-1 #
coedge $-1 $332 $337 $139 $223 forward $327 $-1 #
edge $-1 $338 9.2095006757108564 $339 13.843889556618542 $222 $340 forward 7 unknown #
loop $-1 $-1 $229 $140 #
plane-surface $-1 -41.987365337076945 8.8113797318134282 0.17785976199974129 -0.71933980857756763 0 0.69465836192734942 0.69465836192734942 0 0.71933980857756763 forward_v I I I I #
loop $-1 $-1 $341 $89 #
coedge $-1 $227 $227 $228 $342 reversed $141 $-1 #
coedge $-1 $228 $228 $227 $342 forward $143 $-1 #
coedge $-1 $229 $229 $144 $230 forward $224 $-1 #
edge $-1 $343 0 $343 6.2831853071796004 $229 $344 forward 7 unknown #
loop $-1 $-1 $236 $145 #
plane-surface $-1 -41.987365337076945 8.8113797318134282 0.17785976199974129 -0.71933980857756763 0 0.69465836192734942 0.69465836192734942 0 0.71933980857756763 forward_v I I I I #
loop $-1 $-1 $345 $92 #
coedge $-1 $234 $234 $235 $346 reversed $146 $-1 #
coedge $-1 $235 $235 $234 $346 forward $148 $-1 #
coedge $-1 $236 $236 $149 $237 forward $231 $-1 #
edge $-1 $347 0 $347 6.2831853071796004 $236 $348 forward 7 unknown #
face $-1 $349 $350 $49 $-1 $351 reversed single #
loop $-1 $-1 $244 $150 #
plane-surface $-1 0 0 4.9769100479801756 0 0 1 1 0 0 forward_v I I I I #
coedge $-1 $352 $353 $354 $355 reversed $151 $-1 #
coedge $-1 $243 $153 $356 $357 reversed $96 $-1 #
coedge $-1 $153 $242 $352 $358 reversed $96 $-1 #
coedge $-1 $354 $359 $153 $245 forward $239 $-1 #
edge $-1 $360 9.2095006757108564 $361 13.843889556618542 $244 $362 forward 7 unknown #
loop $-1 $-1 $251 $154 #
plane-surface $-1 -41.987365337076945 20.644776790281949 0.17785976199974129 -0.71933980857756763 0 0.69465836192734942 0.69465836192734942 0 0.71933980857756763 forward_v I I I I #
loop $-1 $-1 $363 $98 #
coedge $-1 $249 $249 $250 $364 reversed $155 $-1 #
coedge $-1 $250 $250 $249 $364 forward $157 $-1 #
coedge $-1 $251 $251 $158 $252 forward $246 $-1 #
edge $-1 $365 0 $365 6.2831853071796004 $251 $366 forward 7 unknown #
loop $-1 $-1 $258 $159 #
plane-surface $-1 -41.987365337076945 20.644776790281949 0.17785976199974129 -0.71933980857756763 0 0.69465836192734942 0.69465836192734942 0 0.71933980857756763 forward_v I I I I #
loop $-1 $-1 $367 $101 #
coedge $-1 $256 $256 $257 $368 reversed $160 $-1 #
coedge $-1 $257 $257 $256 $368 forward $162 $-1 #
coedge $-1 $258 $258 $163 $259 forward $253 $-1 #
edge $-1 $369 0 $369 6.2831853071796004 $258 $370 forward 7 unknown #
face $-1 $371 $372 $39 $-1 $373 reversed single #
loop $-1 $-1 $374 $164 #
plane-surface $-1 -41.987365337076938 0 0 1 0 0 0 0 -1 forward_v I I I I #
coedge $-1 $375 $271 $376 $377 forward $165 $-1 #
coedge $-1 $378 $167 $375 $379 forward $105 $-1 #
coedge $-1 $167 $378 $380 $381 forward $105 $-1 #
coedge $-1 $274 $273 $167 $267 reversed $275 $-1 #
edge $-1 $382 -23.666794116937044 $383 23.666794116937044 $266 $384 forward 7 unknown #
coedge $-1 $169 $168 $385 $386 forward $66 $-1 #
coedge $-1 $387 $388 $168 $270 reversed $372 $-1 #
edge $-1 $277 -41.987365337076938 $389 41.987365337076938 $269 $390 forward 7 unknown #
coedge $-1 $263 $391 $169 $272 reversed $165 $-1 #
edge $-1 $392 -41.987365337076938 $276 41.987365337076938 $271 $393 forward 7 unknown #
coedge $-1 $266 $170 $391 $394 forward $275 $-1 #
coedge $-1 $170 $266 $387 $395 reversed $275 $-1 #
loop $-1 $-1 $273 $371 #
vertex $-1 $171 $396 #
vertex $-1 $171 $397 #
straight-curve $-1 41.987365337076938 0 4.9769100479801756 0 1 0 I I #
face $-1 $-1 $291 $40 $-1 $398 forward single #
loop $-1 $-1 $399 $172 #
plane-surface $-1 -41.987365337076938 0 0 1 0 0 0 0 -1 forward_v I I I I #
coedge $-1 $400 $401 $402 $403 reversed $173 $-1 #
coedge $-1 $404 $175 $177 $289 forward $109 $-1 #
coedge $-1 $175 $404 $400 $405 forward $109 $-1 #
coedge $-1 $402 $178 $175 $286 forward $291 $-1 #
edge $-1 $293 -10.449724519216899 $406 -4.4056898659067159 $285 $407 forward 7 unknown #
coedge $-1 $408 $409 $176 $288 forward $280 $-1 #
edge $-1 $410 -29.077944545699157 $292 -24.278894259718729 $287 $411 forward 7 unknown #
edge $-1 $293 -6.6714649026169468 $410 -1.0226752498356164e-014 $177 $412 forward 7 unknown #
coedge $-1 $178 $402 $408 $413 forward $291 $-1 #
loop $-1 $-1 $402 $279 #
vertex $-1 $288 $414 #
vertex $-1 $179 $415 #
straight-curve $-1 -51.196866012787794 -17.877431711778705 4.9769100479801764 1 0 0 I I #
coedge $-1 $295 $295 $-1 $416 reversed $182 $-1 #
edge $-1 $417 0 $417 6.2831853071796004 $183 $418 forward 7 unknown #
vertex $-1 $186 $419 #
ellipse-curve $-1 -39.670170896623098 -16.150564667975793 2.5773849049899633 -0.71933980857756763 0 0.69465836192734942 0.34732918096367471 0 0.35966990428878381 1 I I #
coedge $-1 $299 $299 $-1 $420 reversed $189 $-1 #
edge $-1 $421 0 $421 6.2831853071796004 $190 $422 forward 7 unknown #
vertex $-1 $193 $423 #
ellipse-curve $-1 -39.670170896623098 -13.560264102271432 2.5773849049899633 -0.71933980857756763 0 0.69465836192734942 0.34732918096367471 0 0.35966990428878381 1 I I #
face $-1 $-1 $424 $43 $-1 $425 reversed single #
loop $-1 $-1 $200 $194 #
plane-surface $-1 0 0 4.9769100479801756 0 0 1 1 0 0 forward_v I I I I #
coedge $-1 $426 $427 $428 $429 reversed $195 $-1 #
coedge $-1 $430 $197 $199 $313 forward $123 $-1 #
coedge $-1 $197 $430 $426 $431 forward $123 $-1 #
coedge $-1 $428 $200 $197 $310 forward $304 $-1 #
edge $-1 $316 -4.5330259899826366 $432 1.5110086633275448 $309 $433 forward 7 unknown #
coedge $-1 $434 $435 $198 $312 forward $424 $-1 #
edge $-1 $436 -29.077944545699157 $315 -24.278894259718729 $311 $437 forward 7 unknown #
edge $-1 $316 -6.6714649026169468 $436 -1.0226752498356164e-014 $199 $438 forward 7 unknown #
coedge $-1 $200 $428 $434 $439 forward $304 $-1 #
vertex $-1 $201 $440 #
vertex $-1 $201 $441 #
straight-curve $-1 -51.196866012787794 -6.0440346533101827 4.9769100479801764 1 0 0 I I #
coedge $-1 $318 $318 $-1 $442 reversed $204 $-1 #
edge $-1 $443 0 $443 6.2831853071796004 $205 $444 forward 7 unknown #
vertex $-1 $208 $445 #
ellipse-curve $-1 -39.670170896623098 -4.3171676095072726 2.5773849049899633 -0.71933980857756763 0 0.69465836192734942 0.34732918096367471 0 0.35966990428878381 1 I I #
coedge $-1 $322 $322 $-1 $446 reversed $211 $-1 #
edge $-1 $447 0 $447 6.2831853071796004 $212 $448 forward 7 unknown #
vertex $-1 $215 $449 #
ellipse-curve $-1 -39.670170896623098 -1.7268670438029083 2.5773849049899633 -0.71933980857756763 0 0.69465836192734942 0.34732918096367471 0 0.35966990428878381 1 I I #
face $-1 $-1 $450 $46 $-1 $451 reversed single #
loop $-1 $-1 $222 $216 #
plane-surface $-1 0 0 4.9769100479801756 0 0 1 1 0 0 forward_v I I I I #
coedge $-1 $452 $453 $454 $455 reversed $217 $-1 #
coedge $-1 $456 $219 $221 $336 forward $137 $-1 #
coedge $-1 $219 $456 $452 $457 forward $137 $-1 #
coedge $-1 $454 $222 $219 $333 forward $327 $-1 #
edge $-1 $339 1.3836725392516236 $458 7.4277071925618046 $332 $459 forward 7 unknown #
coedge $-1 $460 $461 $220 $335 forward $450 $-1 #
edge $-1 $462 -29.077944545699157 $338 -24.278894259718729 $334 $463 forward 7 unknown #
edge $-1 $339 -6.6714649026169468 $462 -1.0226752498356164e-014 $221 $464 forward 7 unknown #
coedge $-1 $222 $454 $460 $465 forward $327 $-1 #
vertex $-1 $223 $466 #
vertex $-1 $223 $467 #
straight-curve $-1 -51.196866012787794 5.7893624051583377 4.9769100479801764 1 0 0 I I #
coedge $-1 $341 $341 $-1 $468 reversed $226 $-1 #
edge $-1 $469 0 $469 6.2831853071796004 $227 $470 forward 7 unknown #
vertex $-1 $230 $471 #
ellipse-curve $-1 -39.670170896623098 7.5162294489612513 2.5773849049899633 -0.71933980857756763 0 0.69465836192734942 0.34732918096367471 0 0.35966990428878381 1 I I #
coedge $-1 $345 $345 $-1 $472 reversed $233 $-1 #
edge $-1 $473 0 $473 6.2831853071796004 $234 $474 forward 7 unknown #
vertex $-1 $237 $475 #
ellipse-curve $-1 -39.670170896623098 10.106530014665612 2.5773849049899633 -0.71933980857756763 0 0.69465836192734942 0.34732918096367471 0 0.35966990428878381 1 I I #
face $-1 $-1 $476 $49 $-1 $477 reversed single #
loop $-1 $-1 $478 $238 #
plane-surface $-1 0 23.666794116937044 0 0 -1 0 0 0 -1 forward_v I I I I #
coedge $-1 $479 $241 $243 $358 forward $151 $-1 #
coedge $-1 $241 $479 $478 $480 reversed $151 $-1 #
coedge $-1 $481 $244 $241 $355 forward $239 $-1 #
edge $-1 $361 7.300371068485882 $482 13.344405721796067 $354 $483 forward 7 unknown #
coedge $-1 $484 $485 $242 $357 forward $476 $-1 #
edge $-1 $486 -29.077944545699157 $360 -24.278894259718729 $356 $487 forward 7 unknown #
edge $-1 $361 -6.6714649026169468 $486 -1.0226752498356164e-014 $243 $488 forward 7 unknown #
coedge $-1 $244 $481 $484 $489 forward $239 $-1 #
vertex $-1 $357 $490 #
vertex $-1 $245 $491 #
straight-curve $-1 -51.196866012787794 17.622759463626856 4.9769100479801764 1 0 0 I I #
coedge $-1 $363 $363 $-1 $492 reversed $248 $-1 #
edge $-1 $493 0 $493 6.2831853071796004 $249 $494 forward 7 unknown #
vertex $-1 $252 $495 #
ellipse-curve $-1 -39.670170896623098 19.349626507429772 2.5773849049899633 -0.71933980857756763 0 0.69465836192734942 0.34732918096367471 0 0.35966990428878381 1 I I #
coedge $-1 $367 $367 $-1 $496 reversed $255 $-1 #
edge $-1 $497 0 $497 6.2831853071796004 $256 $498 forward 7 unknown #
vertex $-1 $259 $499 #
ellipse-curve $-1 -39.670170896623098 21.939927073134132 2.5773849049899633 -0.71933980857756763 0 0.69465836192734942 0.34732918096367471 0 0.35966990428878381 1 I I #
face $-1 $-1 $275 $39 $-1 $500 reversed single #
loop $-1 $-1 $387 $260 #
plane-surface $-1 0 23.666794116937044 0 0 -1 0 0 0 -1 forward_v I I I I #
coedge $-1 $501 $385 $388 $502 forward $261 $-1 #
coedge $-1 $391 $263 $264 $379 reversed $165 $-1 #
coedge $-1 $385 $501 $263 $377 reversed $261 $-1 #
edge $-1 $392 -4.9769100479801756 $503 4.9769100479801756 $376 $504 forward 7 unknown #
coedge $-1 $265 $264 $501 $505 forward $105 $-1 #
edge $-1 $383 -41.987365337076938 $503 41.987365337076938 $375 $506 forward 7 unknown #
coedge $-1 $388 $387 $265 $381 reversed $372 $-1 #
edge $-1 $507 -41.987365337076938 $382 41.987365337076938 $380 $508 forward 7 unknown #
vertex $-1 $267 $509 #
vertex $-1 $394 $510 #
straight-curve $-1 41.987365337076938 0 -4.9769100479801756 0 -1 0 I I #
coedge $-1 $374 $376 $268 $386 reversed $261 $-1 #
edge $-1 $389 -23.666794116937044 $392 23.666794116937044 $385 $511 forward 7 unknown #
coedge $-1 $380 $269 $274 $395 forward $372 $-1 #
coedge $-1 $269 $380 $374 $502 reversed $372 $-1 #
vertex $-1 $270 $512 #
straight-curve $-1 0 23.666794116937044 4.9769100479801756 -1 0 0 I I #
coedge $-1 $271 $375 $273 $394 reversed $165 $-1 #
vertex $-1 $386 $513 #
straight-curve $-1 0 -23.666794116937044 4.9769100479801756 1 0 0 I I #
edge $-1 $276 -4.9769100479801756 $383 4.9769100479801756 $273 $514 forward 7 unknown #
edge $-1 $277 -4.9769100479801756 $382 4.9769100479801756 $274 $515 forward 7 unknown #
point $-1 41.987365337076938 -23.666794116937044 4.9769100479801756 #
point $-1 41.987365337076938 23.666794116937044 4.9769100479801756 #
plane-surface $-1 0 0 4.9769100479801756 0 0 1 1 0 0 forward_v I I I I #
coedge $-1 $409 $408 $401 $516 forward $280 $-1 #
coedge $-1 $401 $282 $284 $405 reversed $173 $-1 #
coedge $-1 $282 $400 $399 $516 reversed $173 $-1 #
coedge $-1 $290 $285 $282 $403 forward $291 $-1 #
edge $-1 $406 -13.843889556618542 $517 -9.2095006757108564 $402 $518 forward 7 unknown #
coedge $-1 $284 $283 $409 $519 reversed $109 $-1 #
edge $-1 $520 1.0226752498356164e-014 $406 6.6714649026169468 $400 $521 forward 7 unknown #
vertex $-1 $286 $522 #
straight-curve $-1 -37.352976456169259 -7.4277071925618063 4.9769100479801756 0 1 0 I I #
coedge $-1 $399 $287 $290 $413 reversed $280 $-1 #
coedge $-1 $287 $399 $404 $519 forward $280 $-1 #
vertex $-1 $288 $523 #
straight-curve $-1 -41.987365337076938 -17.877431711778705 29.255804307698906 0 0 1 I I #
straight-curve $-1 -41.987365337076945 -17.877431711778705 0.17785976199974129 -0.69465836192734942 0 -0.71933980857756763 I I #
edge $-1 $517 11.833397058468522 $292 17.877431711778705 $408 $524 forward 7 unknown #
point $-1 -41.987365337076938 -17.877431711778705 4.9769100479801756 #
point $-1 -37.352976456169252 -17.877431711778705 4.9769100479801756 #
edge $-1 $525 1 $525 0 $295 $-1 forward 7 unknown #
vertex $-1 $296 $526 #
ellipse-curve $-1 -38.4093120274607 -16.150564667975793 1.3597876773238502 -0.71933980857756763 0 0.69465836192734942 0.34732918096367471 0 0.35966990428878381 1 I I #
point $-1 -39.322841715659415 -16.150564667975793 2.937054809278743 #
edge $-1 $527 1 $527 0 $299 $-1 forward 7 unknown #
vertex $-1 $300 $528 #
ellipse-curve $-1 -38.4093120274607 -13.560264102271432 1.3597876773238502 -0.71933980857756763 0 0.69465836192734942 0.34732918096367471 0 0.35966990428878381 1 I I #
point $-1 -39.322841715659415 -13.560264102271432 2.937054809278743 #
loop $-1 $-1 $311 $303 #
plane-surface $-1 -41.987365337076938 0 0 1 0 0 0 0 -1 forward_v I I I I #
coedge $-1 $427 $306 $308 $431 reversed $195 $-1 #
coedge $-1 $306 $426 $529 $530 reversed $195 $-1 #
coedge $-1 $314 $309 $306 $429 forward $304 $-1 #
edge $-1 $432 -13.843889556618542 $531 -9.2095006757108564 $428 $532 forward 7 unknown #
coedge $-1 $308 $307 $435 $533 reversed $123 $-1 #
edge $-1 $534 1.0226752498356164e-014 $432 6.6714649026169468 $426 $535 forward 7 unknown #
vertex $-1 $310 $536 #
straight-curve $-1 -37.352976456169259 -1.5110086633275461 4.9769100479801756 0 1 0 I I #
coedge $-1 $529 $311 $314 $439 reversed $424 $-1 #
coedge $-1 $311 $529 $430 $533 forward $424 $-1 #
vertex $-1 $312 $537 #
straight-curve $-1 -41.987365337076938 -6.0440346533101827 29.255804307698906 0 0 1 I I #
straight-curve $-1 -41.987365337076945 -6.0440346533101827 0.17785976199974129 -0.69465836192734942 0 -0.71933980857756763 I I #
edge $-1 $531 1.3322676295501878e-015 $315 6.0440346533101827 $434 $538 forward 7 unknown #
point $-1 -41.987365337076938 -6.0440346533101827 4.9769100479801756 #
point $-1 -37.352976456169252 -6.0440346533101827 4.9769100479801756 #
edge $-1 $539 1 $539 0 $318 $-1 forward 7 unknown #
vertex $-1 $319 $540 #
ellipse-curve $-1 -38.4093120274607 -4.3171676095072726 1.3597876773238502 -0.71933980857756763 0 0.69465836192734942 0.34732918096367471 0 0.35966990428878381 1 I I #
point $-1 -39.322841715659415 -4.3171676095072726 2.937054809278743 #
edge $-1 $541 1 $541 0 $322 $-1 forward 7 unknown #
vertex $-1 $323 $542 #
ellipse-curve $-1 -38.4093120274607 -1.7268670438029083 1.3597876773238502 -0.71933980857756763 0 0.69465836192734942 0.34732918096367471 0 0.35966990428878381 1 I I #
point $-1 -39.322841715659415 -1.7268670438029083 2.937054809278743 #
loop $-1 $-1 $334 $326 #
plane-surface $-1 -41.987365337076938 0 0 1 0 0 0 0 -1 forward_v I I I I #
coedge $-1 $453 $329 $331 $457 reversed $217 $-1 #
coedge $-1 $329 $452 $543 $544 reversed $217 $-1 #
coedge $-1 $337 $332 $329 $455 forward $327 $-1 #
edge $-1 $458 -13.843889556618542 $545 -9.2095006757108564 $454 $546 forward 7 unknown #
coedge $-1 $331 $330 $461 $547 reversed $137 $-1 #
edge $-1 $548 1.0226752498356164e-014 $458 6.6714649026169468 $452 $549 forward 7 unknown #
vertex $-1 $333 $550 #
straight-curve $-1 -37.352976456169259 4.4056898659067141 4.9769100479801756 0 1 0 I I #
coedge $-1 $543 $334 $337 $465 reversed $450 $-1 #
coedge $-1 $334 $543 $456 $547 forward $450 $-1 #
vertex $-1 $335 $551 #
straight-curve $-1 -41.987365337076938 5.7893624051583377 29.255804307698906 0 0 1 I I #
straight-curve $-1 -41.987365337076945 5.7893624051583377 0.17785976199974129 -0.69465836192734942 0 -0.71933980857756763 I I #
edge $-1 $545 -11.833397058468519 $338 -5.7893624051583377 $460 $552 forward 7 unknown #
point $-1 -41.987365337076938 5.7893624051583377 4.9769100479801756 #
point $-1 -37.352976456169252 5.7893624051583377 4.9769100479801756 #
edge $-1 $553 1 $553 0 $341 $-1 forward 7 unknown #
vertex $-1 $342 $554 #
ellipse-curve $-1 -38.4093120274607 7.5162294489612513 1.3597876773238502 -0.71933980857756763 0 0.69465836192734942 0.34732918096367471 0 0.35966990428878381 1 I I #
point $-1 -39.322841715659415 7.5162294489612513 2.937054809278743 #
edge $-1 $555 1 $555 0 $345 $-1 forward 7 unknown #
vertex $-1 $346 $556 #
ellipse-curve $-1 -38.4093120274607 10.106530014665612 1.3597876773238502 -0.71933980857756763 0 0.69465836192734942 0.34732918096367471 0 0.35966990428878381 1 I I #
point $-1 -39.322841715659415 10.106530014665612 2.937054809278743 #
loop $-1 $-1 $356 $349 #
plane-surface $-1 -41.987365337076938 0 0 1 0 0 0 0 -1 forward_v I I I I #
coedge $-1 $557 $558 $353 $480 forward $350 $-1 #
coedge $-1 $353 $352 $485 $559 reversed $151 $-1 #
edge $-1 $482 7.848001507157301 $560 14.519466409774237 $478 $561 forward 7 unknown #
coedge $-1 $359 $354 $558 $562 forward $239 $-1 #
vertex $-1 $562 $563 #
straight-curve $-1 -37.352976456169259 10.322388395140974 4.9769100479801756 0 1 0 I I #
coedge $-1 $564 $356 $359 $489 reversed $476 $-1 #
coedge $-1 $356 $564 $479 $559 forward $476 $-1 #
vertex $-1 $357 $565 #
straight-curve $-1 -41.987365337076938 17.622759463626856 29.255804307698906 0 0 1 I I #
straight-curve $-1 -41.987365337076945 17.622759463626856 0.17785976199974129 -0.69465836192734942 0 -0.71933980857756763 I I #
edge $-1 $566 -23.666794116937044 $360 -17.622759463626856 $484 $567 forward 7 unknown #
point $-1 -41.987365337076938 17.622759463626856 4.9769100479801756 #
point $-1 -37.352976456169252 17.622759463626856 4.9769100479801756 #
edge $-1 $568 1 $568 0 $363 $-1 forward 7 unknown #
vertex $-1 $364 $569 #
ellipse-curve $-1 -38.4093120274607 19.349626507429772 1.3597876773238502 -0.71933980857756763 0 0.69465836192734942 0.34732918096367471 0 0.35966990428878381 1 I I #
point $-1 -39.322841715659415 19.349626507429772 2.937054809278743 #
edge $-1 $570 1 $570 0 $367 $-1 forward 7 unknown #
vertex $-1 $368 $571 #
ellipse-curve $-1 -38.4093120274607 21.939927073134132 1.3597876773238502 -0.71933980857756763 0 0.69465836192734942 0.34732918096367471 0 0.35966990428878381 1 I I #
point $-1 -39.322841715659415 21.939927073134132 2.937054809278743 #
plane-surface $-1 41.987365337076938 0 0 -1 0 0 0 0 1 forward_v I I I I #
coedge $-1 $376 $374 $378 $505 reversed $261 $-1 #
edge $-1 $389 -4.9769100479801756 $507 4.9769100479801756 $388 $572 forward 7 unknown #
vertex $-1 $505 $573 #
straight-curve $-1 -41.987365337076938 -23.666794116937044 0 0 0 -1 I I #
edge $-1 $503 -23.666794116937044 $507 23.666794116937044 $501 $574 forward 7 unknown #
straight-curve $-1 0 -23.666794116937044 -4.9769100479801756 -1 0 0 I I #
vertex $-1 $381 $575 #
straight-curve $-1 0 23.666794116937044 -4.9769100479801756 1 0 0 I I #
point $-1 41.987365337076938 23.666794116937044 -4.9769100479801756 #
point $-1 41.987365337076938 -23.666794116937044 -4.9769100479801756 #
straight-curve $-1 -41.987365337076938 0 4.9769100479801756 0 -1 0 I I #
point $-1 -41.987365337076938 23.666794116937044 4.9769100479801756 #
point $-1 -41.987365337076938 -23.666794116937044 4.9769100479801756 #
straight-curve $-1 41.987365337076938 -23.666794116937044 0 0 0 -1 I I #
straight-curve $-1 41.987365337076938 23.666794116937044 0 0 0 -1 I I #
edge $-1 $517 24.278894259718729 $520 29.077944545699157 $399 $576 forward 7 unknown #
vertex $-1 $413 $577 #
straight-curve $-1 -51.196866012787794 -11.833397058468522 4.9769100479801764 -1 0 0 I I #
edge $-1 $520 4.4056898659067159 $410 10.449724519216899 $409 $578 forward 7 unknown #
vertex $-1 $519 $579 #
straight-curve $-1 -41.987365337076945 -11.833397058468522 0.17785976199974129 0.69465836192734942 0 0.71933980857756763 I I #
point $-1 -37.352976456169252 -11.833397058468522 4.9769100479801756 #
point $-1 -41.987365337076938 -17.877431711778705 0.17785976199974865 #
straight-curve $-1 -41.987365337076938 0 4.9769100479801756 0 -1 0 I I #
vertex $-1 $416 $580 #
point $-1 -38.061982846497031 -16.150564667975793 1.7194575816126341 #
vertex $-1 $420 $581 #
point $-1 -38.061982846497031 -13.560264102271432 1.7194575816126341 #
coedge $-1 $435 $434 $427 $530 forward $424 $-1 #
edge $-1 $531 24.278894259718729 $534 29.077944545699157 $529 $582 forward 7 unknown #
vertex $-1 $439 $583 #
straight-curve $-1 -51.196866012787794 -1.3322676295501878e-015 4.9769100479801764 -1 0 0 I I #
edge $-1 $534 -1.5110086633275448 $436 4.5330259899826366 $435 $584 forward 7 unknown #
vertex $-1 $533 $585 #
straight-curve $-1 -41.987365337076945 -1.3322676295501878e-015 0.17785976199974129 0.69465836192734942 0 0.71933980857756763 I I #
point $-1 -37.352976456169252 -1.3322676295501878e-015 4.9769100479801756 #
point $-1 -41.987365337076938 -6.0440346533101827 0.17785976199974865 #
straight-curve $-1 -41.987365337076938 0 4.9769100479801756 0 -1 0 I I #
vertex $-1 $442 $586 #
point $-1 -38.061982846497031 -4.3171676095072726 1.7194575816126341 #
vertex $-1 $446 $587 #
point $-1 -38.061982846497031 -1.7268670438029083 1.7194575816126341 #
coedge $-1 $461 $460 $453 $544 forward $450 $-1 #
edge $-1 $545 24.278894259718729 $548 29.077944545699157 $543 $588 forward 7 unknown #
vertex $-1 $465 $589 #
straight-curve $-1 -51.196866012787794 11.833397058468519 4.9769100479801764 -1 0 0 I I #
edge $-1 $548 -7.4277071925618046 $462 -1.3836725392516236 $461 $590 forward 7 unknown #
vertex $-1 $547 $591 #
straight-curve $-1 -41.987365337076945 11.833397058468519 0.17785976199974129 0.69465836192734942 0 0.71933980857756763 I I #
point $-1 -37.352976456169252 11.833397058468519 4.9769100479801756 #
point $-1 -41.987365337076938 5.7893624051583377 0.17785976199974865 #
straight-curve $-1 -41.987365337076938 0 4.9769100479801756 0 -1 0 I I #
vertex $-1 $468 $592 #
point $-1 -38.061982846497031 7.5162294489612513 1.7194575816126341 #
vertex $-1 $472 $593 #
point $-1 -38.061982846497031 10.106530014665612 1.7194575816126341 #
coedge $-1 $558 $478 $564 $594 reversed $350 $-1 #
coedge $-1 $478 $557 $481 $562 reversed $350 $-1 #
edge $-1 $560 -13.344405721796067 $486 -7.300371068485882 $485 $595 forward 7 unknown #
vertex $-1 $480 $596 #
straight-curve $-1 -31.901296584803994 23.666794116937044 10.622289949855173 -0.69465836192734942 0 -0.71933980857756763 I I #
edge $-1 $482 37.352976456169252 $566 41.987365337076938 $558 $597 forward 7 unknown #
point $-1 -37.352976456169252 23.666794116937041 4.9769100479801756 #
coedge $-1 $485 $484 $557 $594 forward $476 $-1 #
point $-1 -41.987365337076938 17.622759463626856 0.17785976199974865 #
vertex $-1 $562 $598 #
straight-curve $-1 -41.987365337076938 0 4.9769100479801756 0 -1 0 I I #
vertex $-1 $492 $599 #
point $-1 -38.061982846497031 19.349626507429772 1.7194575816126341 #
vertex $-1 $496 $600 #
point $-1 -38.061982846497031 21.939927073134132 1.7194575816126341 #
straight-curve $-1 -41.987365337076938 23.666794116937044 0 0 0 -1 I I #
point $-1 -41.987365337076938 -23.666794116937044 -4.9769100479801756 #
straight-curve $-1 -41.987365337076938 0 -4.9769100479801756 0 1 0 I I #
point $-1 -41.987365337076938 23.666794116937044 -4.9769100479801756 #
straight-curve $-1 -41.987365337076938 -11.833397058468522 29.255804307698906 0 0 -1 I I #
point $-1 -41.987365337076938 -11.833397058468522 4.9769100479801756 #
straight-curve $-1 -41.987365337076938 -7.4277071925618063 0.17785976199974235 0 -1 0 I I #
point $-1 -41.987365337076938 -11.833397058468522 0.17785976199974865 #
point $-1 -38.049642123171921 -16.150564667975793 1.0124584963601757 #
point $-1 -38.049642123171921 -13.560264102271432 1.0124584963601757 #
straight-curve $-1 -41.987365337076938 -1.3322676295501878e-015 29.255804307698906 0 0 -1 I I #
point $-1 -41.987365337076938 -1.3322676295501878e-015 4.9769100479801756 #
straight-curve $-1 -41.987365337076938 -1.5110086633275461 0.17785976199974235 0 -1 0 I I #
point $-1 -41.987365337076938 -1.3322676295501878e-015 0.17785976199974865 #
point $-1 -38.049642123171921 -4.3171676095072726 1.0124584963601757 #
point $-1 -38.049642123171921 -1.7268670438029083 1.0124584963601757 #
straight-curve $-1 -41.987365337076938 11.833397058468519 29.255804307698906 0 0 -1 I I #
point $-1 -41.987365337076938 11.833397058468519 4.9769100479801756 #
straight-curve $-1 -41.987365337076938 4.4056898659067141 0.17785976199974235 0 -1 0 I I #
point $-1 -41.987365337076938 11.833397058468519 0.17785976199974865 #
point $-1 -38.049642123171921 7.5162294489612513 1.0124584963601757 #
point $-1 -38.049642123171921 10.106530014665612 1.0124584963601757 #
edge $-1 $566 -4.9769100479801756 $560 -0.17785976199974865 $557 $601 forward 7 unknown #
straight-curve $-1 -41.987365337076938 10.322388395140974 0.17785976199974235 0 -1 0 I I #
point $-1 -41.987365337076938 23.666794116937041 0.17785976199974865 #
straight-curve $-1 0 23.666794116937044 4.9769100479801756 -1 0 0 I I #
point $-1 -41.987365337076938 23.666794116937044 4.9769100479801756 #
point $-1 -38.049642123171921 19.349626507429772 1.0124584963601757 #
point $-1 -38.049642123171921 21.939927073134132 1.0124584963601757 #
straight-curve $-1 -41.987365337076938 23.666794116937044 0 0 0 -1 I I #
End-of-ACIS-data 