500 0 9 0           
7 Unknown 11 ACIS 5.0 NT 24 Thu Mar 25 16:55:09 1999 
-1 9.9999999999999995e-007 1e-010 
body $-1 $9 $-1 $10 #
body $-1 $11 $-1 $12 #
body $-1 $13 $-1 $14 #
body $-1 $15 $-1 $16 #
body $-1 $17 $-1 $18 #
body $-1 $19 $-1 $20 #
body $-1 $21 $-1 $22 #
body $-1 $23 $-1 $24 #
body $-1 $25 $-1 $26 #
lump $-1 $-1 $27 $0 #
transform $-1 1 0 0 0 1 0 0 0 1 42.790612506485182 29.472724861487553 12.553364193528582 1 rotate no_reflect no_shear #
lump $-1 $-1 $28 $1 #
transform $-1 1 0 0 0 1 0 0 0 1 42.790612506485182 29.472724861487553 12.553364193528582 1 rotate no_reflect no_shear #
lump $-1 $-1 $29 $2 #
transform $-1 1 0 0 0 1 0 0 0 1 42.790612506485182 29.472724861487553 12.553364193528582 1 rotate no_reflect no_shear #
lump $-1 $-1 $30 $3 #
transform $-1 1 0 0 0 1 0 0 0 1 42.790612506485182 29.472724861487553 12.553364193528582 1 rotate no_reflect no_shear #
lump $-1 $-1 $31 $4 #
transform $-1 1 0 0 0 1 0 0 0 1 42.790612506485182 29.472724861487553 12.553364193528582 1 rotate no_reflect no_shear #
lump $-1 $-1 $32 $5 #
transform $-1 1 0 0 0 1 0 0 0 1 42.790612506485182 29.472724861487553 12.553364193528582 1 rotate no_reflect no_shear #
lump $-1 $-1 $33 $6 #
transform $-1 1 0 0 0 1 0 0 0 1 42.790612506485182 29.472724861487553 12.553364193528582 1 rotate no_reflect no_shear #
lump $-1 $-1 $34 $7 #
transform $-1 1 0 0 0 1 0 0 0 1 42.790612506485182 29.472724861487553 12.553364193528582 1 rotate no_reflect no_shear #
lump $-1 $-1 $35 $8 #
transform $-1 1 0 0 0 1 0 0 0 1 42.790612506485182 29.472724861487553 12.553364193528582 1 rotate no_reflect no_shear #
shell $-1 $-1 $-1 $36 $-1 $9 #
shell $-1 $-1 $-1 $37 $-1 $11 #
shell $-1 $-1 $-1 $38 $-1 $13 #
shell $-1 $-1 $-1 $39 $-1 $15 #
shell $-1 $-1 $-1 $40 $-1 $17 #
shell $-1 $-1 $-1 $41 $-1 $19 #
shell $-1 $-1 $-1 $42 $-1 $21 #
shell $-1 $-1 $-1 $43 $-1 $23 #
shell $-1 $-1 $-1 $44 $-1 $25 #
face $-1 $45 $46 $27 $-1 $47 forward single #
face $-1 $48 $49 $28 $-1 $50 reversed single #
face $-1 $51 $52 $29 $-1 $53 reversed single #
face $-1 $54 $55 $30 $-1 $56 reversed single #
face $-1 $57 $58 $31 $-1 $59 forward single #
face $-1 $60 $61 $32 $-1 $62 forward single #
face $-1 $63 $64 $33 $-1 $65 reversed single #
face $-1 $66 $67 $34 $-1 $68 forward single #
face $-1 $69 $70 $35 $-1 $71 forward single #
face $-1 $72 $73 $27 $-1 $74 reversed single #
loop $-1 $-1 $75 $36 #
plane-surface $-1 0 0 12.553364193528582 0 0 1 1 0 0 forward_v I I I I #
face $-1 $76 $77 $28 $-1 $78 reversed single #
loop $-1 $-1 $79 $37 #
plane-surface $-1 -38.148618484421817 0 7.0026371677295103 0 0 1 1 0 0 forward_v I I I I #
face $-1 $80 $81 $29 $-1 $82 reversed single #
loop $-1 $-1 $83 $38 #
plane-surface $-1 38.14861848442181 0 7.0026371677295103 0 0 1 1 0 0 forward_v I I I I #
face $-1 $84 $85 $30 $-1 $86 reversed single #
loop $-1 $-1 $87 $39 #
plane-surface $-1 -0.16562303250289645 44.729008263598516 109.20241917218166 1 0 0 0 -0.68199836817093118 -0.7313536940579346 forward_v I I I I #
face $-1 $88 $89 $31 $-1 $90 forward single #
loop $-1 $91 $92 $40 #
cone-surface $-1 5.4079799815784497 24.605503954989274 7.7944651960938049 0 -0.68199836817093118 -0.7313536940579346 2 0 0 1 I I 0 1 2 forward I I I I #
face $-1 $93 $94 $32 $-1 $95 forward single #
loop $-1 $96 $97 $41 #
cone-surface $-1 13.768384502700471 24.605503954989274 7.7944651960938049 0 -0.68199836817093118 -0.7313536940579346 2 0 0 1 I I 0 1 2 forward I I I I #
face $-1 $98 $99 $33 $-1 $100 reversed single #
loop $-1 $-1 $101 $42 #
plane-surface $-1 14.953278323861198 -92.062871271121722 66.784888682413566 1 0 0 0 0.73135370988377701 -0.68199835119979291 forward_v I I I I #
face $-1 $102 $103 $34 $-1 $104 forward single #
loop $-1 $105 $106 $43 #
cone-surface $-1 20.254234363431848 -26.928737148274898 9.911440575086953 0 0.73135370988377701 -0.68199835119979291 1 0 0 1 I I 0 1 1 forward I I I I #
face $-1 $107 $108 $35 $-1 $109 forward single #
loop $-1 $110 $111 $44 #
cone-surface $-1 28.205668422787816 -26.928737148274898 9.911440575086953 0 0.73135370988377701 -0.68199835119979291 1 0 0 1 I I 0 1 1 forward I I I I #
face $-1 $112 $113 $27 $-1 $114 reversed single #
loop $-1 $-1 $115 $45 #
plane-surface $-1 0 0 -12.553364193528582 0 0 1 1 0 0 forward_v I I I I #
coedge $-1 $116 $117 $118 $119 forward $46 $-1 #
face $-1 $120 $121 $28 $-1 $122 reversed single #
loop $-1 $-1 $123 $48 #
plane-surface $-1 -33.506624462358452 0 9.7780006806290469 -1 0 0 0 0 1 forward_v I I I I #
coedge $-1 $124 $125 $126 $127 forward $49 $-1 #
face $-1 $128 $129 $29 $-1 $130 forward single #
loop $-1 $-1 $131 $51 #
plane-surface $-1 33.506624462358445 0 9.7780006806290469 1 0 0 0 0 -1 forward_v I I I I #
coedge $-1 $132 $133 $134 $135 reversed $52 $-1 #
face $-1 $136 $137 $30 $-1 $138 reversed single #
loop $-1 $-1 $139 $54 #
plane-surface $-1 9.5881822421394602 -13.637247541316555 46.612274116942473 0 0.68199836817093118 0.7313536940579346 1 0 0 forward_v I I I I #
coedge $-1 $140 $141 $142 $143 reversed $55 $-1 #
face $-1 $-1 $144 $31 $-1 $145 forward single #
loop $-1 $146 $147 $57 #
cone-surface $-1 5.4079799815784497 22.349416637935892 5.3751078039794873 0 -0.68199836817093118 -0.7313536940579346 1 0 0 1 I I -0.70710678118654746 0.70710678118654746 1 forward I I I I #
loop $-1 $-1 $148 $40 #
coedge $-1 $92 $92 $149 $150 reversed $58 $-1 #
face $-1 $-1 $151 $32 $-1 $152 forward single #
loop $-1 $153 $154 $60 #
cone-surface $-1 13.768384502700471 22.349416637935892 5.3751078039794873 0 -0.68199836817093118 -0.7313536940579346 1 0 0 1 I I -0.70710678118654746 0.70710678118654746 1 forward I I I I #
loop $-1 $-1 $155 $41 #
coedge $-1 $97 $97 $156 $157 reversed $61 $-1 #
face $-1 $158 $159 $33 $-1 $160 reversed single #
loop $-1 $-1 $161 $63 #
plane-surface $-1 24.229951393109822 -29.472724861487563 8.4186343299093096 0 -0.73135370988377701 0.68199835119979291 1 0 0 forward_v I I I I #
coedge $-1 $162 $163 $164 $165 reversed $64 $-1 #
face $-1 $-1 $166 $34 $-1 $167 forward single #
loop $-1 $168 $169 $66 #
cone-surface $-1 20.254234363431848 -25.946921520746514 8.9958827128550691 0 0.73135370988377701 -0.68199835119979291 0.5 0 0 1 I I -0.70710678118654746 0.70710678118654746 0.5 forward I I I I #
loop $-1 $-1 $170 $43 #
coedge $-1 $106 $106 $171 $172 reversed $67 $-1 #
face $-1 $-1 $173 $35 $-1 $174 forward single #
loop $-1 $175 $176 $69 #
cone-surface $-1 28.205668422787816 -25.946921520746514 8.9958827128550691 0 0.73135370988377701 -0.68199835119979291 0.5 0 0 1 I I -0.70710678118654746 0.70710678118654746 0.5 forward I I I I #
loop $-1 $-1 $177 $44 #
coedge $-1 $111 $111 $178 $179 reversed $70 $-1 #
face $-1 $180 $181 $27 $-1 $182 reversed single #
loop $-1 $-1 $183 $72 #
plane-surface $-1 0 -29.472724861487553 0 0 1 0 0 0 1 forward_v I I I I #
coedge $-1 $184 $185 $186 $187 forward $73 $-1 #
coedge $-1 $188 $75 $189 $190 forward $46 $-1 #
coedge $-1 $75 $188 $191 $192 forward $46 $-1 #
coedge $-1 $193 $194 $75 $119 reversed $195 $-1 #
edge $-1 $196 -29.472724861487553 $197 29.472724861487553 $118 $198 forward 7 unknown #
face $-1 $199 $200 $28 $-1 $201 reversed single #
loop $-1 $-1 $202 $76 #
plane-surface $-1 0 29.472724861487553 0 0 -1 0 0 0 -1 forward_v I I I I #
coedge $-1 $126 $203 $204 $205 reversed $77 $-1 #
coedge $-1 $206 $79 $207 $208 reversed $49 $-1 #
coedge $-1 $79 $206 $209 $210 reversed $49 $-1 #
coedge $-1 $211 $123 $79 $127 reversed $77 $-1 #
edge $-1 $212 -29.472724861487553 $213 29.472724861487553 $126 $214 forward 7 unknown #
face $-1 $215 $216 $29 $-1 $217 reversed single #
loop $-1 $-1 $218 $80 #
plane-surface $-1 0 0 12.553364193528582 0 0 1 1 0 0 forward_v I I I I #
coedge $-1 $219 $220 $218 $221 reversed $81 $-1 #
coedge $-1 $222 $83 $223 $224 reversed $52 $-1 #
coedge $-1 $83 $222 $225 $226 reversed $52 $-1 #
coedge $-1 $227 $228 $83 $135 forward $229 $-1 #
edge $-1 $230 -29.472724861487553 $231 29.472724861487553 $134 $232 forward 7 unknown #
face $-1 $233 $234 $30 $-1 $235 reversed single #
loop $-1 $-1 $236 $84 #
plane-surface $-1 19.341987516781817 44.729008263598516 109.20241917218166 -1 0 0 0 0.68199836817093118 0.7313536940579346 forward_v I I I I #
coedge $-1 $237 $238 $239 $240 reversed $85 $-1 #
coedge $-1 $141 $87 $241 $242 reversed $55 $-1 #
coedge $-1 $87 $140 $237 $243 reversed $55 $-1 #
coedge $-1 $239 $244 $87 $143 forward $245 $-1 #
edge $-1 $246 -7.1082207296882949 $247 -0.52195681445663666 $142 $248 forward 7 unknown #
loop $-1 $-1 $149 $88 #
plane-surface $-1 9.5881822421394602 -13.637247541316555 46.612274116942473 0 0.68199836817093118 0.7313536940579346 1 0 0 forward_v I I I I #
loop $-1 $-1 $249 $57 #
coedge $-1 $147 $147 $148 $250 reversed $89 $-1 #
coedge $-1 $148 $148 $147 $250 forward $91 $-1 #
coedge $-1 $149 $149 $92 $150 forward $144 $-1 #
edge $-1 $251 8.7672670700206809e-017 $251 6.2831853071796004 $149 $252 forward 7 unknown #
loop $-1 $-1 $156 $93 #
plane-surface $-1 9.5881822421394602 -13.637247541316555 46.612274116942473 0 0.68199836817093118 0.7313536940579346 1 0 0 forward_v I I I I #
loop $-1 $-1 $253 $60 #
coedge $-1 $154 $154 $155 $254 reversed $94 $-1 #
coedge $-1 $155 $155 $154 $254 forward $96 $-1 #
coedge $-1 $156 $156 $97 $157 forward $151 $-1 #
edge $-1 $255 8.7672670700206809e-017 $255 6.2831853071796004 $156 $256 forward 7 unknown #
face $-1 $257 $258 $33 $-1 $259 forward single #
loop $-1 $-1 $164 $98 #
plane-surface $-1 0 -29.472724861487553 0 0 1 0 0 0 1 forward_v I I I I #
coedge $-1 $260 $261 $262 $263 reversed $99 $-1 #
coedge $-1 $163 $101 $264 $265 reversed $64 $-1 #
coedge $-1 $101 $162 $260 $266 reversed $64 $-1 #
coedge $-1 $262 $267 $101 $165 forward $159 $-1 #
edge $-1 $268 20.839080147678203 $269 24.973810011297463 $164 $270 forward 7 unknown #
loop $-1 $-1 $171 $102 #
plane-surface $-1 24.229951393109822 -29.472724861487563 8.4186343299093096 0 -0.73135370988377701 0.68199835119979291 1 0 0 forward_v I I I I #
loop $-1 $-1 $271 $66 #
coedge $-1 $169 $169 $170 $272 reversed $103 $-1 #
coedge $-1 $170 $170 $169 $272 forward $105 $-1 #
coedge $-1 $171 $171 $106 $172 forward $166 $-1 #
edge $-1 $273 5.9776333289801244e-016 $273 6.2831853071796013 $171 $274 forward 7 unknown #
loop $-1 $-1 $178 $107 #
plane-surface $-1 24.229951393109822 -29.472724861487563 8.4186343299093096 0 -0.73135370988377701 0.68199835119979291 1 0 0 forward_v I I I I #
loop $-1 $-1 $275 $69 #
coedge $-1 $176 $176 $177 $276 reversed $108 $-1 #
coedge $-1 $177 $177 $176 $276 forward $110 $-1 #
coedge $-1 $178 $178 $111 $179 forward $173 $-1 #
edge $-1 $277 5.9776333289801244e-016 $277 6.2831853071796013 $178 $278 forward 7 unknown #
face $-1 $279 $280 $27 $-1 $281 reversed single #
loop $-1 $-1 $282 $112 #
plane-surface $-1 -42.790612506485182 0 0 1 0 0 0 0 -1 forward_v I I I I #
coedge $-1 $283 $191 $284 $285 forward $113 $-1 #
coedge $-1 $286 $115 $283 $287 forward $73 $-1 #
coedge $-1 $115 $286 $288 $289 forward $73 $-1 #
coedge $-1 $194 $193 $115 $187 reversed $195 $-1 #
edge $-1 $290 -29.472724861487553 $291 29.472724861487553 $186 $292 forward 7 unknown #
coedge $-1 $117 $116 $293 $294 forward $46 $-1 #
coedge $-1 $295 $296 $116 $190 reversed $280 $-1 #
edge $-1 $197 -42.790612506485182 $297 42.790612506485182 $189 $298 forward 7 unknown #
coedge $-1 $183 $299 $117 $192 reversed $113 $-1 #
edge $-1 $300 -42.790612506485182 $196 42.790612506485182 $191 $301 forward 7 unknown #
coedge $-1 $186 $118 $299 $302 forward $195 $-1 #
coedge $-1 $118 $186 $295 $303 reversed $195 $-1 #
loop $-1 $-1 $193 $279 #
vertex $-1 $119 $304 #
vertex $-1 $119 $305 #
straight-curve $-1 42.790612506485182 0 12.553364193528582 0 1 0 I I #
face $-1 $306 $307 $28 $-1 $308 forward single #
loop $-1 $-1 $309 $120 #
plane-surface $-1 -42.790612506485182 0 0 1 0 0 0 0 -1 forward_v I I I I #
coedge $-1 $209 $310 $211 $311 forward $121 $-1 #
coedge $-1 $123 $211 $312 $313 reversed $77 $-1 #
coedge $-1 $314 $207 $123 $205 forward $315 $-1 #
edge $-1 $213 2.1136368274149868 $316 7.6643638532140601 $204 $317 forward 7 unknown #
coedge $-1 $125 $124 $309 $318 reversed $49 $-1 #
coedge $-1 $204 $319 $124 $208 forward $315 $-1 #
edge $-1 $320 -23.716303264274273 $213 -14.432315220147544 $207 $321 forward 7 unknown #
coedge $-1 $322 $202 $125 $210 forward $121 $-1 #
edge $-1 $212 14.432315220147544 $323 23.716303264274273 $209 $324 forward 7 unknown #
coedge $-1 $203 $126 $202 $311 reversed $77 $-1 #
vertex $-1 $210 $325 #
vertex $-1 $208 $326 #
straight-curve $-1 -33.506624462358452 0 7.0026371677295103 0 -1 0 I I #
face $-1 $327 $328 $29 $-1 $329 reversed single #
loop $-1 $-1 $330 $128 #
plane-surface $-1 0 -29.472724861487553 0 0 1 0 0 0 1 forward_v I I I I #
coedge $-1 $331 $332 $131 $221 forward $129 $-1 #
coedge $-1 $333 $131 $334 $335 reversed $81 $-1 #
coedge $-1 $131 $333 $330 $336 reversed $81 $-1 #
edge $-1 $337 -29.472724861487553 $338 29.472724861487553 $218 $339 forward 7 unknown #
coedge $-1 $133 $132 $333 $340 forward $52 $-1 #
coedge $-1 $341 $330 $132 $224 forward $216 $-1 #
edge $-1 $342 14.43231522014754 $230 23.71630326427427 $223 $343 forward 7 unknown #
coedge $-1 $334 $344 $133 $226 forward $328 $-1 #
edge $-1 $231 -23.71630326427427 $345 -14.43231522014754 $225 $346 forward 7 unknown #
coedge $-1 $347 $134 $344 $348 reversed $229 $-1 #
coedge $-1 $134 $347 $341 $349 forward $229 $-1 #
loop $-1 $-1 $134 $327 #
vertex $-1 $224 $350 #
vertex $-1 $135 $351 #
straight-curve $-1 42.790612506485182 0 7.0026371677295103 0 1 0 I I #
face $-1 $-1 $245 $30 $-1 $352 forward single #
loop $-1 $-1 $353 $136 #
plane-surface $-1 0 29.472724861487553 0 0 -1 0 0 0 -1 forward_v I I I I #
coedge $-1 $354 $355 $356 $357 reversed $137 $-1 #
coedge $-1 $358 $139 $141 $243 forward $85 $-1 #
coedge $-1 $139 $358 $354 $359 forward $85 $-1 #
coedge $-1 $356 $142 $139 $240 forward $245 $-1 #
edge $-1 $247 -4.9597141535726266 $360 14.547896395712087 $239 $361 forward 7 unknown #
coedge $-1 $362 $363 $140 $242 forward $234 $-1 #
edge $-1 $364 -48.189635991319051 $246 -42.047845392562252 $241 $365 forward 7 unknown #
edge $-1 $247 49.939870112530258 $364 58.945449722975113 $141 $366 forward 7 unknown #
coedge $-1 $142 $356 $362 $367 forward $245 $-1 #
loop $-1 $-1 $356 $233 #
vertex $-1 $242 $368 #
vertex $-1 $143 $369 #
straight-curve $-1 -0.16562303250289645 22.364504131799258 12.55336419352858 0 -1 0 I I #
coedge $-1 $249 $249 $-1 $370 reversed $146 $-1 #
edge $-1 $371 0 $371 6.2831853071796004 $147 $372 forward 7 unknown #
vertex $-1 $150 $373 #
ellipse-curve $-1 5.4079799815784497 26.179592903871718 9.482468894150184 0 0.68199836817093118 0.7313536940579346 2 0 0 1 I I #
coedge $-1 $253 $253 $-1 $374 reversed $153 $-1 #
edge $-1 $375 0 $375 6.2831853071796004 $154 $376 forward 7 unknown #
vertex $-1 $157 $377 #
ellipse-curve $-1 13.768384502700471 26.179592903871718 9.482468894150184 0 0.68199836817093118 0.7313536940579346 2 0 0 1 I I #
face $-1 $-1 $378 $33 $-1 $379 forward single #
loop $-1 $-1 $264 $158 #
plane-surface $-1 0 0 12.553364193528582 0 0 1 1 0 0 forward_v I I I I #
coedge $-1 $380 $161 $163 $266 forward $99 $-1 #
coedge $-1 $161 $380 $381 $382 reversed $99 $-1 #
coedge $-1 $383 $164 $161 $263 forward $159 $-1 #
edge $-1 $269 2.8383026273062875 $384 21.391648765803534 $262 $385 forward 7 unknown #
coedge $-1 $386 $387 $162 $265 forward $258 $-1 #
edge $-1 $388 -20.414408655325598 $268 -16.558710774073308 $264 $389 forward 7 unknown #
edge $-1 $269 1.506370560111744e-014 $388 5.6535296228638021 $163 $390 forward 7 unknown #
coedge $-1 $164 $383 $386 $391 reversed $159 $-1 #
vertex $-1 $391 $392 #
vertex $-1 $165 $393 #
straight-curve $-1 14.953278323861198 -29.472724861487553 33.392444341206783 0 0 -1 I I #
coedge $-1 $271 $271 $-1 $394 reversed $168 $-1 #
edge $-1 $395 0 $395 6.2831853071796004 $169 $396 forward 7 unknown #
vertex $-1 $172 $397 #
ellipse-curve $-1 20.254234363431848 -27.544875920861408 10.485999261718952 0 -0.73135370988377701 0.68199835119979291 1 0 0 1 I I #
coedge $-1 $275 $275 $-1 $398 reversed $175 $-1 #
edge $-1 $399 0 $399 6.2831853071796004 $176 $400 forward 7 unknown #
vertex $-1 $179 $401 #
ellipse-curve $-1 28.205668422787816 -27.544875920861408 10.485999261718952 0 -0.73135370988377701 0.68199835119979291 1 0 0 1 I I #
face $-1 $-1 $195 $27 $-1 $402 reversed single #
loop $-1 $-1 $295 $180 #
plane-surface $-1 0 29.472724861487553 0 0 -1 0 0 0 -1 forward_v I I I I #
coedge $-1 $403 $293 $296 $404 forward $181 $-1 #
coedge $-1 $299 $183 $184 $287 reversed $113 $-1 #
coedge $-1 $293 $403 $183 $285 reversed $181 $-1 #
edge $-1 $300 -12.553364193528582 $405 12.553364193528582 $284 $406 forward 7 unknown #
coedge $-1 $185 $184 $403 $407 forward $73 $-1 #
edge $-1 $291 -42.790612506485182 $405 42.790612506485182 $283 $408 forward 7 unknown #
coedge $-1 $296 $295 $185 $289 reversed $280 $-1 #
edge $-1 $409 -42.790612506485182 $290 42.790612506485182 $288 $410 forward 7 unknown #
vertex $-1 $187 $411 #
vertex $-1 $302 $412 #
straight-curve $-1 42.790612506485182 0 -12.553364193528582 0 -1 0 I I #
coedge $-1 $282 $284 $188 $294 reversed $181 $-1 #
edge $-1 $297 -29.472724861487553 $300 29.472724861487553 $293 $413 forward 7 unknown #
coedge $-1 $288 $189 $194 $303 forward $280 $-1 #
coedge $-1 $189 $288 $282 $404 reversed $280 $-1 #
vertex $-1 $190 $414 #
straight-curve $-1 0 29.472724861487553 12.553364193528582 -1 0 0 I I #
coedge $-1 $191 $283 $193 $302 reversed $113 $-1 #
vertex $-1 $294 $415 #
straight-curve $-1 0 -29.472724861487553 12.553364193528582 1 0 0 I I #
edge $-1 $196 -12.553364193528582 $291 12.553364193528582 $193 $416 forward 7 unknown #
edge $-1 $197 -12.553364193528582 $290 12.553364193528582 $194 $417 forward 7 unknown #
point $-1 42.790612506485182 -29.472724861487553 12.553364193528582 #
point $-1 42.790612506485182 29.472724861487553 12.553364193528582 #
face $-1 $-1 $315 $28 $-1 $418 reversed single #
loop $-1 $-1 $312 $199 #
plane-surface $-1 0 0 12.553364193528582 0 0 1 1 0 0 forward_v I I I I #
coedge $-1 $419 $420 $206 $318 forward $200 $-1 #
coedge $-1 $202 $322 $421 $422 reversed $121 $-1 #
edge $-1 $423 -7.6643638532140601 $212 -2.1136368274149868 $202 $424 forward 7 unknown #
coedge $-1 $421 $425 $203 $313 forward $307 $-1 #
edge $-1 $316 -29.472724861487553 $423 29.472724861487553 $312 $426 forward 7 unknown #
coedge $-1 $319 $204 $425 $427 reversed $315 $-1 #
loop $-1 $-1 $204 $306 #
vertex $-1 $205 $428 #
straight-curve $-1 -33.506624462358452 -29.472724861487553 4.8890003403145235 0 0 1 I I #
edge $-1 $323 -29.472724861487553 $320 29.472724861487553 $309 $429 forward 7 unknown #
coedge $-1 $207 $314 $419 $430 forward $315 $-1 #
vertex $-1 $318 $431 #
straight-curve $-1 -19.074309242210909 -29.472724861487553 7.0026371677295103 1 0 0 I I #
coedge $-1 $310 $209 $420 $432 reversed $121 $-1 #
vertex $-1 $318 $433 #
straight-curve $-1 -19.074309242210909 29.472724861487553 7.0026371677295103 -1 0 0 I I #
point $-1 -33.506624462358452 29.472724861487553 7.0026371677295103 #
point $-1 -33.506624462358452 -29.472724861487553 7.0026371677295103 #
face $-1 $-1 $229 $29 $-1 $434 reversed single #
loop $-1 $-1 $334 $215 #
plane-surface $-1 0 29.472724861487553 0 0 -1 0 0 0 -1 forward_v I I I I #
coedge $-1 $223 $435 $220 $336 forward $216 $-1 #
coedge $-1 $436 $218 $435 $437 forward $129 $-1 #
coedge $-1 $218 $436 $438 $439 forward $129 $-1 #
coedge $-1 $220 $219 $222 $340 reversed $81 $-1 #
coedge $-1 $438 $225 $219 $335 forward $328 $-1 #
edge $-1 $345 2.1136368274149868 $337 7.6643638532140601 $334 $440 forward 7 unknown #
edge $-1 $338 -7.6643638532140601 $342 -2.1136368274149868 $330 $441 forward 7 unknown #
vertex $-1 $335 $442 #
vertex $-1 $437 $443 #
straight-curve $-1 33.506624462358445 0 12.553364193528582 0 -1 0 I I #
edge $-1 $342 -29.472724861487553 $345 29.472724861487553 $333 $444 forward 7 unknown #
coedge $-1 $435 $223 $228 $349 reversed $216 $-1 #
vertex $-1 $224 $445 #
straight-curve $-1 19.074309242210905 -29.472724861487553 7.0026371677295103 1 0 0 I I #
coedge $-1 $225 $438 $227 $348 forward $328 $-1 #
vertex $-1 $226 $446 #
straight-curve $-1 19.074309242210905 29.472724861487553 7.0026371677295103 -1 0 0 I I #
coedge $-1 $228 $227 $436 $447 reversed $229 $-1 #
edge $-1 $448 -12.553364193528582 $231 -7.0026371677295103 $227 $449 forward 7 unknown #
edge $-1 $450 -12.553364193528582 $230 -7.0026371677295103 $228 $451 forward 7 unknown #
point $-1 42.790612506485175 -29.472724861487553 7.0026371677295103 #
point $-1 42.790612506485175 29.472724861487553 7.0026371677295103 #
plane-surface $-1 0 0 12.553364193528582 0 0 1 1 0 0 forward_v I I I I #
coedge $-1 $363 $362 $355 $452 forward $234 $-1 #
coedge $-1 $355 $236 $238 $359 reversed $137 $-1 #
coedge $-1 $236 $354 $353 $452 reversed $137 $-1 #
coedge $-1 $244 $239 $236 $357 forward $245 $-1 #
edge $-1 $360 0.52195681445663666 $453 7.1082207296882949 $356 $454 forward 7 unknown #
coedge $-1 $238 $237 $363 $455 reversed $85 $-1 #
edge $-1 $456 -58.945449722975113 $360 -49.939870112530258 $354 $457 forward 7 unknown #
vertex $-1 $240 $458 #
straight-curve $-1 4.7940911210697301 22.886460946255891 12.553364193528576 1 0 0 I I #
coedge $-1 $353 $241 $244 $367 reversed $234 $-1 #
coedge $-1 $241 $353 $358 $455 forward $234 $-1 #
vertex $-1 $242 $459 #
straight-curve $-1 -0.16562303250289645 29.472724861487553 54.601209586090832 0 0 1 I I #
straight-curve $-1 -0.16562303250289645 -13.637247541316555 46.612274116942473 0 0.7313536940579346 -0.68199836817093118 I I #
edge $-1 $453 -19.341987516781817 $246 0.16562303250289645 $362 $460 forward 7 unknown #
point $-1 -0.16562303250289645 29.472724861487553 12.553364193528582 #
point $-1 -0.16562303250289645 22.886460946255895 12.55336419352858 #
edge $-1 $461 1 $461 0 $249 $-1 forward 7 unknown #
vertex $-1 $250 $462 #
ellipse-curve $-1 5.4079799815784497 23.031415006106823 6.1064614980374223 0 0.68199836817093118 0.7313536940579346 2 0 0 1 I I #
point $-1 7.4079799815784497 26.179592903871722 9.4824688941501876 #
edge $-1 $463 1 $463 0 $253 $-1 forward 7 unknown #
vertex $-1 $254 $464 #
ellipse-curve $-1 13.768384502700471 23.031415006106823 6.1064614980374223 0 0.68199836817093118 0.7313536940579346 2 0 0 1 I I #
point $-1 15.768384502700471 26.179592903871722 9.4824688941501876 #
loop $-1 $-1 $381 $257 #
plane-surface $-1 33.506624462358445 0 9.7780006806290469 1 0 0 0 0 -1 forward_v I I I I #
coedge $-1 $261 $260 $387 $465 reversed $99 $-1 #
coedge $-1 $466 $467 $261 $382 forward $378 $-1 #
edge $-1 $384 -10.547263692294843 $468 -4.8937340694310576 $381 $469 forward 7 unknown #
coedge $-1 $267 $262 $467 $470 forward $159 $-1 #
vertex $-1 $470 $471 #
straight-curve $-1 12.114975696554911 -29.472724861487553 8.4186343299093167 1 0 0 I I #
coedge $-1 $472 $264 $267 $391 forward $258 $-1 #
coedge $-1 $264 $472 $380 $465 forward $258 $-1 #
vertex $-1 $265 $473 #
straight-curve $-1 14.953278323861198 -46.031435635560861 12.55336419352858 0 -1 0 I I #
straight-curve $-1 14.953278323861198 -29.472724861487563 8.4186343299093096 0 0.68199835119979291 0.73135370988377701 I I #
edge $-1 $268 14.953278323861198 $474 33.506624462358445 $267 $475 forward 7 unknown #
point $-1 14.953278323861198 -29.472724861487553 12.553364193528582 #
point $-1 14.953278323861198 -29.472724861487553 8.4186343299093203 #
edge $-1 $476 1 $476 0 $271 $-1 forward 7 unknown #
vertex $-1 $272 $477 #
ellipse-curve $-1 20.254234363431848 -26.312598375688403 9.3368818884549647 0 -0.73135370988377701 0.68199835119979291 1 0 0 1 I I #
point $-1 21.254234363431848 -27.544875920861394 10.485999261718939 #
edge $-1 $478 1 $478 0 $275 $-1 forward 7 unknown #
vertex $-1 $276 $479 #
ellipse-curve $-1 28.205668422787816 -26.312598375688403 9.3368818884549647 0 -0.73135370988377701 0.68199835119979291 1 0 0 1 I I #
point $-1 29.205668422787816 -27.544875920861394 10.485999261718939 #
plane-surface $-1 42.790612506485182 0 0 -1 0 0 0 0 1 forward_v I I I I #
coedge $-1 $284 $282 $286 $407 reversed $181 $-1 #
edge $-1 $297 -12.553364193528582 $409 12.553364193528582 $296 $480 forward 7 unknown #
vertex $-1 $407 $481 #
straight-curve $-1 -42.790612506485182 -29.472724861487553 0 0 0 -1 I I #
edge $-1 $405 -29.472724861487553 $409 29.472724861487553 $403 $482 forward 7 unknown #
straight-curve $-1 0 -29.472724861487553 -12.553364193528582 -1 0 0 I I #
vertex $-1 $289 $483 #
straight-curve $-1 0 29.472724861487553 -12.553364193528582 1 0 0 I I #
point $-1 42.790612506485182 29.472724861487553 -12.553364193528582 #
point $-1 42.790612506485182 -29.472724861487553 -12.553364193528582 #
straight-curve $-1 -42.790612506485182 0 12.553364193528582 0 -1 0 I I #
point $-1 -42.790612506485182 29.472724861487553 12.553364193528582 #
point $-1 -42.790612506485182 -29.472724861487553 12.553364193528582 #
straight-curve $-1 42.790612506485182 -29.472724861487553 0 0 0 -1 I I #
straight-curve $-1 42.790612506485182 29.472724861487553 0 0 0 -1 I I #
plane-surface $-1 0 -29.472724861487553 0 0 1 0 0 0 1 forward_v I I I I #
coedge $-1 $484 $309 $319 $430 reversed $200 $-1 #
coedge $-1 $309 $484 $322 $432 forward $200 $-1 #
coedge $-1 $485 $312 $310 $422 forward $307 $-1 #
edge $-1 $423 33.506624462358452 $486 42.790612506485182 $310 $487 forward 7 unknown #
vertex $-1 $422 $488 #
straight-curve $-1 -33.506624462358452 29.472724861487553 4.8890003403145235 0 0 -1 I I #
coedge $-1 $312 $485 $314 $427 forward $307 $-1 #
straight-curve $-1 -33.506624462358452 0 12.553364193528582 0 1 0 I I #
edge $-1 $489 -42.790612506485182 $316 -33.506624462358452 $314 $490 forward 7 unknown #
point $-1 -33.506624462358452 -29.472724861487553 12.553364193528584 #
straight-curve $-1 -42.790612506485182 0 7.0026371677295103 0 -1 0 I I #
edge $-1 $489 -12.553364193528582 $320 -7.0026371677295103 $419 $491 forward 7 unknown #
point $-1 -42.790612506485182 -29.472724861487553 7.0026371677295103 #
edge $-1 $486 -12.553364193528582 $323 -7.0026371677295103 $322 $492 forward 7 unknown #
point $-1 -42.790612506485182 29.472724861487553 7.0026371677295103 #
plane-surface $-1 42.790612506485182 0 0 -1 0 0 0 0 1 forward_v I I I I #
coedge $-1 $330 $341 $331 $437 reversed $216 $-1 #
coedge $-1 $332 $331 $347 $447 forward $129 $-1 #
edge $-1 $338 33.506624462358445 $450 42.790612506485182 $435 $493 forward 7 unknown #
coedge $-1 $344 $334 $332 $439 reversed $328 $-1 #
edge $-1 $448 -42.790612506485182 $337 -33.506624462358445 $438 $494 forward 7 unknown #
straight-curve $-1 33.506624462358445 29.472724861487553 4.8890003403145235 0 0 1 I I #
straight-curve $-1 33.506624462358445 -29.472724861487553 4.8890003403145235 0 0 -1 I I #
point $-1 33.506624462358445 29.472724861487553 12.553364193528584 #
point $-1 33.506624462358445 -29.472724861487553 12.553364193528584 #
straight-curve $-1 33.506624462358445 0 7.0026371677295103 0 1 0 I I #
point $-1 33.506624462358445 -29.472724861487553 7.0026371677295103 #
point $-1 33.506624462358445 29.472724861487553 7.0026371677295103 #
edge $-1 $450 -29.472724861487553 $448 29.472724861487553 $347 $495 forward 7 unknown #
vertex $-1 $447 $496 #
straight-curve $-1 42.790612506485182 29.472724861487553 0 0 0 -1 I I #
vertex $-1 $447 $497 #
straight-curve $-1 42.790612506485182 -29.472724861487553 0 0 0 -1 I I #
edge $-1 $453 42.047845392562252 $456 48.189635991319051 $353 $498 forward 7 unknown #
vertex $-1 $367 $499 #
straight-curve $-1 19.341987516781817 22.364504131799258 12.55336419352858 0 1 0 I I #
edge $-1 $456 -14.547896395712087 $364 4.9597141535726266 $363 $500 forward 7 unknown #
vertex $-1 $455 $501 #
straight-curve $-1 19.341987516781817 -13.637247541316555 46.612274116942473 0 -0.7313536940579346 0.68199836817093118 I I #
point $-1 19.341987516781817 22.886460946255895 12.55336419352858 #
point $-1 -0.16562303250289645 29.472724861487549 6.4115735947717809 #
straight-curve $-1 0 29.472724861487553 12.553364193528582 -1 0 0 I I #
vertex $-1 $370 $502 #
point $-1 7.4079799815784497 23.031415006106823 6.1064614980374223 #
vertex $-1 $374 $503 #
point $-1 15.768384502700471 23.031415006106823 6.1064614980374223 #
edge $-1 $468 -21.391648765803534 $388 -2.8383026273062875 $387 $504 forward 7 unknown #
coedge $-1 $467 $381 $472 $505 reversed $378 $-1 #
coedge $-1 $381 $466 $383 $470 reversed $378 $-1 #
vertex $-1 $382 $506 #
straight-curve $-1 33.506624462358445 -22.279508413673028 16.132414760391619 0 0.68199835119979291 0.73135370988377701 I I #
edge $-1 $384 3.5296339895947986 $474 7.6643638532140601 $383 $507 forward 7 unknown #
point $-1 33.506624462358445 -29.472724861487553 8.418634329909322 #
coedge $-1 $387 $386 $466 $505 forward $258 $-1 #
point $-1 14.953278323861198 -25.617026980235263 12.553364193528582 #
vertex $-1 $505 $508 #
straight-curve $-1 0 -29.472724861487553 12.553364193528582 1 0 0 I I #
vertex $-1 $394 $509 #
point $-1 21.254234363431848 -26.312598375688403 9.3368818884549647 #
vertex $-1 $398 $510 #
point $-1 29.205668422787816 -26.312598375688403 9.3368818884549647 #
straight-curve $-1 -42.790612506485182 29.472724861487553 0 0 0 -1 I I #
point $-1 -42.790612506485182 -29.472724861487553 -12.553364193528582 #
straight-curve $-1 -42.790612506485182 0 -12.553364193528582 0 1 0 I I #
point $-1 -42.790612506485182 29.472724861487553 -12.553364193528582 #
coedge $-1 $420 $419 $485 $511 reversed $200 $-1 #
coedge $-1 $425 $421 $484 $511 forward $307 $-1 #
vertex $-1 $422 $512 #
straight-curve $-1 0 29.472724861487553 12.553364193528582 -1 0 0 I I #
point $-1 -33.506624462358452 29.472724861487553 12.553364193528584 #
vertex $-1 $511 $513 #
straight-curve $-1 0 -29.472724861487553 12.553364193528582 1 0 0 I I #
straight-curve $-1 -42.790612506485182 -29.472724861487553 0 0 0 -1 I I #
straight-curve $-1 -42.790612506485182 29.472724861487553 0 0 0 -1 I I #
straight-curve $-1 0 -29.472724861487553 12.553364193528582 1 0 0 I I #
straight-curve $-1 0 29.472724861487553 12.553364193528582 -1 0 0 I I #
straight-curve $-1 42.790612506485182 0 12.553364193528582 0 1 0 I I #
point $-1 42.790612506485182 29.472724861487553 12.553364193528582 #
point $-1 42.790612506485182 -29.472724861487553 12.553364193528582 #
straight-curve $-1 19.341987516781817 29.472724861487553 54.601209586090832 0 0 -1 I I #
point $-1 19.341987516781817 29.472724861487553 12.553364193528582 #
straight-curve $-1 4.7940911210697301 29.472724861487553 6.4115735947717809 -1 0 0 I I #
point $-1 19.341987516781817 29.472724861487549 6.4115735947717809 #
point $-1 5.4079799815784497 21.667418269764962 4.6437541099215522 #
point $-1 13.768384502700471 21.667418269764962 4.6437541099215522 #
straight-curve $-1 12.114975696554911 -25.617026980235263 12.553364193528582 -1 0 0 I I #
edge $-1 $474 -29.472724861487553 $468 -25.617026980235263 $472 $514 forward 7 unknown #
point $-1 33.506624462358445 -25.617026980235263 12.553364193528582 #
straight-curve $-1 33.506624462358445 -29.472724861487553 4.8890003403145235 0 0 1 I I #
point $-1 33.506624462358445 -29.472724861487553 12.553364193528584 #
point $-1 20.254234363431848 -25.581244665804626 8.6548835372551736 #
point $-1 28.205668422787816 -25.581244665804626 8.6548835372551736 #
edge $-1 $486 -29.472724861487553 $489 29.472724861487553 $484 $515 forward 7 unknown #
point $-1 -42.790612506485182 29.472724861487553 12.553364193528582 #
point $-1 -42.790612506485182 -29.472724861487553 12.553364193528582 #
straight-curve $-1 33.506624462358445 0 12.553364193528582 0 1 0 I I #
straight-curve $-1 -42.790612506485182 0 12.553364193528582 0 -1 0 I I #
End-of-ACIS-data 