500 0 9 0           
7 Unknown 11 ACIS 5.0 NT 24 Thu Mar 25 18:48:10 1999 
-1 9.9999999999999995e-007 1e-010 
body $-1 $9 $-1 $10 #
body $-1 $11 $-1 $12 #
body $-1 $13 $-1 $14 #
body $-1 $15 $-1 $16 #
body $-1 $17 $-1 $18 #
body $-1 $19 $-1 $20 #
body $-1 $21 $-1 $22 #
body $-1 $23 $-1 $24 #
body $-1 $25 $-1 $26 #
lump $-1 $-1 $27 $0 #
transform $-1 1 0 0 0 1 0 0 0 1 70.53559984130375 37.710617349769933 17.180790157965038 1 rotate no_reflect no_shear #
lump $-1 $-1 $28 $1 #
transform $-1 1 0 0 0 0.75470957328743171 0.6560590369687036 0 -0.6560590369687036 0.75470957328743171 91.792422917132171 -92.551035407791176 133.03723017434069 1 rotate no_reflect no_shear #
lump $-1 $-1 $29 $2 #
transform $-1 1 0 0 0 -0.75470957328743171 -0.6560590369687036 0 0.6560590369687036 -0.75470957328743171 91.792422917132171 8.0191146545883925 26.396427727613656 1 rotate no_reflect no_shear #
lump $-1 $-1 $30 $3 #
transform $-1 1 0 0 0 0.83867056331134215 -0.54463904215088732 0 0.54463904215088732 0.83867056331134215 41.592729438701326 89.000548378651743 189.45459321522031 1 rotate no_reflect no_shear #
lump $-1 $-1 $31 $4 #
transform $-1 1 0 0 0 -0.83867056331134215 0.54463904215088732 0 -0.54463904215088732 -0.83867056331134215 37.623643148698108 69.627076201604098 28.385072504018552 1 rotate no_reflect no_shear #
lump $-1 $-1 $32 $5 #
transform $-1 1 0 0 0 -0.83867056331134215 0.54463904215088732 0 -0.54463904215088732 -0.83867056331134215 45.561815728704538 69.627076201604098 28.385072504018552 1 rotate no_reflect no_shear #
lump $-1 $-1 $33 $6 #
transform $-1 1 0 0 0 0.83867056331134215 -0.54463904215088732 0 0.54463904215088732 0.83867056331134215 99.478470243906187 89.000548378651743 189.45459321522031 1 rotate no_reflect no_shear #
lump $-1 $-1 $34 $7 #
transform $-1 1 0 0 0 -0.83867056331134215 0.54463904215088732 0 -0.54463904215088732 -0.83867056331134215 95.509383953902969 69.627076201604098 28.385072504018552 1 rotate no_reflect no_shear #
lump $-1 $-1 $35 $8 #
transform $-1 1 0 0 0 -0.83867056331134215 0.54463904215088732 0 -0.54463904215088732 -0.83867056331134215 103.44755653390939 69.627076201604098 28.385072504018552 1 rotate no_reflect no_shear #
shell $-1 $-1 $-1 $36 $-1 $9 #
shell $-1 $-1 $-1 $37 $-1 $11 #
shell $-1 $-1 $-1 $38 $-1 $13 #
shell $-1 $-1 $-1 $39 $-1 $15 #
shell $-1 $-1 $-1 $40 $-1 $17 #
shell $-1 $-1 $-1 $41 $-1 $19 #
shell $-1 $-1 $-1 $42 $-1 $21 #
shell $-1 $-1 $-1 $43 $-1 $23 #
shell $-1 $-1 $-1 $44 $-1 $25 #
face $-1 $45 $46 $27 $-1 $47 forward single #
face $-1 $48 $49 $28 $-1 $50 forward single #
face $-1 $51 $52 $29 $-1 $53 forward single #
face $-1 $54 $55 $30 $-1 $56 forward single #
face $-1 $57 $58 $31 $-1 $59 forward single #
face $-1 $60 $61 $32 $-1 $62 forward single #
face $-1 $63 $64 $33 $-1 $65 forward single #
face $-1 $66 $67 $34 $-1 $68 forward single #
face $-1 $69 $70 $35 $-1 $71 forward single #
face $-1 $72 $73 $27 $-1 $74 reversed single #
loop $-1 $-1 $75 $36 #
plane-surface $-1 0 0 17.180790157965038 0 0 1 1 0 0 forward_v I I I I #
face $-1 $76 $77 $28 $-1 $78 reversed single #
loop $-1 $-1 $79 $37 #
plane-surface $-1 0 0 141.07119968260747 0 0 1 1 0 0 forward_v I I I I #
face $-1 $80 $81 $29 $-1 $82 forward single #
loop $-1 $83 $84 $38 #
cone-surface $-1 0 0 -3.320795312356946 0 0 1 2.5 0 0 1 I I 0 1 2.5 forward I I I I #
face $-1 $85 $86 $30 $-1 $87 reversed single #
loop $-1 $-1 $88 $39 #
plane-surface $-1 0 0 141.0711996826075 0 0 1 1 0 0 forward_v I I I I #
face $-1 $89 $90 $31 $-1 $91 forward single #
loop $-1 $92 $93 $40 #
cone-surface $-1 0 0 -2.6573076570940266 0 0 1 1.5 0 0 1 I I 0 1 1.5 forward I I I I #
face $-1 $94 $95 $32 $-1 $96 forward single #
loop $-1 $97 $98 $41 #
cone-surface $-1 0 0 -2.6573076570940266 0 0 1 1.5 0 0 1 I I 0 1 1.5 forward I I I I #
face $-1 $99 $100 $33 $-1 $101 reversed single #
loop $-1 $-1 $102 $42 #
plane-surface $-1 0 0 141.0711996826075 0 0 1 1 0 0 forward_v I I I I #
face $-1 $103 $104 $34 $-1 $105 forward single #
loop $-1 $106 $107 $43 #
cone-surface $-1 0 0 -2.6573076570940266 0 0 1 1.5 0 0 1 I I 0 1 1.5 forward I I I I #
face $-1 $108 $109 $35 $-1 $110 forward single #
loop $-1 $111 $112 $44 #
cone-surface $-1 0 0 -2.6573076570940266 0 0 1 1.5 0 0 1 I I 0 1 1.5 forward I I I I #
face $-1 $113 $114 $27 $-1 $115 reversed single #
loop $-1 $-1 $116 $45 #
plane-surface $-1 0 0 -17.180790157965038 0 0 1 1 0 0 forward_v I I I I #
coedge $-1 $117 $118 $119 $120 forward $46 $-1 #
face $-1 $121 $122 $28 $-1 $123 reversed single #
loop $-1 $-1 $124 $48 #
plane-surface $-1 0 0 -141.07119968260747 0 0 1 1 0 0 forward_v I I I I #
coedge $-1 $125 $126 $127 $128 forward $49 $-1 #
face $-1 $-1 $129 $29 $-1 $130 forward single #
loop $-1 $-1 $131 $51 #
plane-surface $-1 0 0 -5.3915906247138903 0 0 -1 -1 0 0 forward_v I I I I #
loop $-1 $-1 $132 $38 #
coedge $-1 $84 $84 $131 $133 reversed $52 $-1 #
face $-1 $134 $135 $30 $-1 $136 reversed single #
loop $-1 $-1 $137 $54 #
plane-surface $-1 0 0 -141.0711996826075 0 0 1 1 0 0 forward_v I I I I #
coedge $-1 $138 $139 $140 $141 forward $55 $-1 #
face $-1 $-1 $142 $31 $-1 $143 forward single #
loop $-1 $-1 $144 $57 #
plane-surface $-1 0 0 -4.5646153141880532 0 0 -1 -1 0 0 forward_v I I I I #
loop $-1 $-1 $145 $40 #
coedge $-1 $93 $93 $144 $146 reversed $58 $-1 #
face $-1 $-1 $147 $32 $-1 $148 forward single #
loop $-1 $-1 $149 $60 #
plane-surface $-1 0 0 -4.5646153141880532 0 0 -1 -1 0 0 forward_v I I I I #
loop $-1 $-1 $150 $41 #
coedge $-1 $98 $98 $149 $151 reversed $61 $-1 #
face $-1 $152 $153 $33 $-1 $154 reversed single #
loop $-1 $-1 $155 $63 #
plane-surface $-1 0 0 -141.0711996826075 0 0 1 1 0 0 forward_v I I I I #
coedge $-1 $156 $157 $158 $159 forward $64 $-1 #
face $-1 $-1 $160 $34 $-1 $161 forward single #
loop $-1 $-1 $162 $66 #
plane-surface $-1 0 0 -4.5646153141880532 0 0 -1 -1 0 0 forward_v I I I I #
loop $-1 $-1 $163 $43 #
coedge $-1 $107 $107 $162 $164 reversed $67 $-1 #
face $-1 $-1 $165 $35 $-1 $166 forward single #
loop $-1 $-1 $167 $69 #
plane-surface $-1 0 0 -4.5646153141880532 0 0 -1 -1 0 0 forward_v I I I I #
loop $-1 $-1 $168 $44 #
coedge $-1 $112 $112 $167 $169 reversed $70 $-1 #
face $-1 $170 $171 $27 $-1 $172 reversed single #
loop $-1 $-1 $173 $72 #
plane-surface $-1 0 -37.710617349769933 0 0 1 0 0 0 1 forward_v I I I I #
coedge $-1 $174 $175 $176 $177 forward $73 $-1 #
coedge $-1 $178 $75 $179 $180 forward $46 $-1 #
coedge $-1 $75 $178 $181 $182 forward $46 $-1 #
coedge $-1 $183 $184 $75 $120 reversed $185 $-1 #
edge $-1 $186 -37.710617349769933 $187 37.710617349769933 $119 $188 forward 7 unknown #
face $-1 $189 $190 $28 $-1 $191 reversed single #
loop $-1 $-1 $192 $76 #
plane-surface $-1 0 -282.142399365215 0 0 1 0 0 0 1 forward_v I I I I #
coedge $-1 $193 $194 $195 $196 forward $77 $-1 #
coedge $-1 $197 $79 $198 $199 forward $49 $-1 #
coedge $-1 $79 $197 $200 $201 forward $49 $-1 #
coedge $-1 $202 $203 $79 $128 reversed $204 $-1 #
edge $-1 $205 -282.142399365215 $206 282.142399365215 $127 $207 forward 7 unknown #
loop $-1 $208 $209 $80 #
cone-surface $-1 0 0 0 0 0 1 1.25 0 0 1 I I -0.70710678118654746 0.70710678118654746 1.25 forward I I I I #
coedge $-1 $131 $131 $84 $133 forward $81 $-1 #
coedge $-1 $132 $132 $209 $210 forward $83 $-1 #
edge $-1 $211 0 $211 6.2831853071796004 $131 $212 forward 7 unknown #
face $-1 $213 $214 $30 $-1 $215 reversed single #
loop $-1 $-1 $216 $85 #
plane-surface $-1 0 -282.142399365215 0 0 1 0 0 0 1 forward_v I I I I #
coedge $-1 $217 $218 $219 $220 forward $86 $-1 #
coedge $-1 $221 $88 $222 $223 forward $55 $-1 #
coedge $-1 $88 $221 $224 $225 forward $55 $-1 #
coedge $-1 $226 $227 $88 $141 reversed $228 $-1 #
edge $-1 $229 -282.142399365215 $230 282.142399365215 $140 $231 forward 7 unknown #
loop $-1 $232 $233 $89 #
cone-surface $-1 0 0 0 0 0 1 0.75 0 0 1 I I -0.70710678118654757 0.70710678118654757 0.75 forward I I I I #
coedge $-1 $144 $144 $93 $146 forward $90 $-1 #
coedge $-1 $145 $145 $233 $234 forward $92 $-1 #
edge $-1 $235 0 $235 6.2831853071796004 $144 $236 forward 7 unknown #
loop $-1 $237 $238 $94 #
cone-surface $-1 0 0 0 0 0 1 0.75 0 0 1 I I -0.70710678118654757 0.70710678118654757 0.75 forward I I I I #
coedge $-1 $149 $149 $98 $151 forward $95 $-1 #
coedge $-1 $150 $150 $238 $239 forward $97 $-1 #
edge $-1 $240 0 $240 6.2831853071796004 $149 $241 forward 7 unknown #
face $-1 $242 $243 $33 $-1 $244 reversed single #
loop $-1 $-1 $245 $99 #
plane-surface $-1 0 -282.142399365215 0 0 1 0 0 0 1 forward_v I I I I #
coedge $-1 $246 $247 $248 $249 forward $100 $-1 #
coedge $-1 $250 $102 $251 $252 forward $64 $-1 #
coedge $-1 $102 $250 $253 $254 forward $64 $-1 #
coedge $-1 $255 $256 $102 $159 reversed $257 $-1 #
edge $-1 $258 -282.142399365215 $259 282.142399365215 $158 $260 forward 7 unknown #
loop $-1 $261 $262 $103 #
cone-surface $-1 0 0 0 0 0 1 0.75 0 0 1 I I -0.70710678118654757 0.70710678118654757 0.75 forward I I I I #
coedge $-1 $162 $162 $107 $164 forward $104 $-1 #
coedge $-1 $163 $163 $262 $263 forward $106 $-1 #
edge $-1 $264 0 $264 6.2831853071796004 $162 $265 forward 7 unknown #
loop $-1 $266 $267 $108 #
cone-surface $-1 0 0 0 0 0 1 0.75 0 0 1 I I -0.70710678118654757 0.70710678118654757 0.75 forward I I I I #
coedge $-1 $167 $167 $112 $169 forward $109 $-1 #
coedge $-1 $168 $168 $267 $268 forward $111 $-1 #
edge $-1 $269 0 $269 6.2831853071796004 $167 $270 forward 7 unknown #
face $-1 $271 $272 $27 $-1 $273 reversed single #
loop $-1 $-1 $274 $113 #
plane-surface $-1 -70.53559984130375 0 0 1 0 0 0 0 -1 forward_v I I I I #
coedge $-1 $275 $181 $276 $277 forward $114 $-1 #
coedge $-1 $278 $116 $275 $279 forward $73 $-1 #
coedge $-1 $116 $278 $280 $281 forward $73 $-1 #
coedge $-1 $184 $183 $116 $177 reversed $185 $-1 #
edge $-1 $282 -37.710617349769933 $283 37.710617349769933 $176 $284 forward 7 unknown #
coedge $-1 $118 $117 $285 $286 forward $46 $-1 #
coedge $-1 $287 $288 $117 $180 reversed $272 $-1 #
edge $-1 $187 -70.53559984130375 $289 70.53559984130375 $179 $290 forward 7 unknown #
coedge $-1 $173 $291 $118 $182 reversed $114 $-1 #
edge $-1 $292 -70.53559984130375 $186 70.53559984130375 $181 $293 forward 7 unknown #
coedge $-1 $176 $119 $291 $294 forward $185 $-1 #
coedge $-1 $119 $176 $287 $295 reversed $185 $-1 #
loop $-1 $-1 $183 $271 #
vertex $-1 $120 $296 #
vertex $-1 $120 $297 #
straight-curve $-1 70.53559984130375 0 17.180790157965038 0 1 0 I I #
face $-1 $298 $299 $28 $-1 $300 reversed single #
loop $-1 $-1 $301 $121 #
plane-surface $-1 -8.7020527469243589 0 0 1 0 0 0 0 -1 forward_v I I I I #
coedge $-1 $302 $200 $303 $304 forward $122 $-1 #
coedge $-1 $305 $124 $302 $306 forward $77 $-1 #
coedge $-1 $124 $305 $307 $308 forward $77 $-1 #
coedge $-1 $203 $202 $124 $196 reversed $204 $-1 #
edge $-1 $309 -282.142399365215 $310 282.142399365215 $195 $311 forward 7 unknown #
coedge $-1 $126 $125 $312 $313 forward $49 $-1 #
coedge $-1 $314 $315 $125 $199 reversed $299 $-1 #
edge $-1 $206 -8.7020527469243589 $316 8.7020527469243589 $198 $317 forward 7 unknown #
coedge $-1 $192 $318 $126 $201 reversed $122 $-1 #
edge $-1 $319 -8.7020527469243589 $205 8.7020527469243589 $200 $320 forward 7 unknown #
coedge $-1 $195 $127 $318 $321 forward $204 $-1 #
coedge $-1 $127 $195 $314 $322 reversed $204 $-1 #
loop $-1 $-1 $202 $298 #
vertex $-1 $128 $323 #
vertex $-1 $128 $324 #
straight-curve $-1 8.7020527469243589 0 141.07119968260747 0 1 0 I I #
loop $-1 $-1 $325 $80 #
coedge $-1 $209 $209 $132 $210 reversed $129 $-1 #
edge $-1 $326 0 $326 6.2831853071796004 $209 $327 forward 7 unknown #
vertex $-1 $133 $328 #
ellipse-curve $-1 0 0 -5.3915906247138903 0 0 -1 2.5 0 0 1 I I #
face $-1 $329 $330 $30 $-1 $331 reversed single #
loop $-1 $-1 $332 $134 #
plane-surface $-1 -9.2612013433408329 0 0 1 0 0 0 0 -1 forward_v I I I I #
coedge $-1 $333 $224 $334 $335 forward $135 $-1 #
coedge $-1 $336 $137 $333 $337 forward $86 $-1 #
coedge $-1 $137 $336 $338 $339 forward $86 $-1 #
coedge $-1 $227 $226 $137 $220 reversed $228 $-1 #
edge $-1 $340 -282.142399365215 $341 282.142399365215 $219 $342 forward 7 unknown #
coedge $-1 $139 $138 $343 $344 forward $55 $-1 #
coedge $-1 $345 $346 $138 $223 reversed $330 $-1 #
edge $-1 $230 -9.2612013433408329 $347 9.2612013433408329 $222 $348 forward 7 unknown #
coedge $-1 $216 $349 $139 $225 reversed $135 $-1 #
edge $-1 $350 -9.2612013433408329 $229 9.2612013433408329 $224 $351 forward 7 unknown #
coedge $-1 $219 $140 $349 $352 forward $228 $-1 #
coedge $-1 $140 $219 $345 $353 reversed $228 $-1 #
loop $-1 $-1 $226 $329 #
vertex $-1 $141 $354 #
vertex $-1 $141 $355 #
straight-curve $-1 9.2612013433408329 0 141.0711996826075 0 1 0 I I #
loop $-1 $-1 $356 $89 #
coedge $-1 $233 $233 $145 $234 reversed $142 $-1 #
edge $-1 $357 0 $357 6.2831853071796004 $233 $358 forward 7 unknown #
vertex $-1 $146 $359 #
ellipse-curve $-1 0 0 -4.5646153141880532 0 0 -1 1.5 0 0 1 I I #
loop $-1 $-1 $360 $94 #
coedge $-1 $238 $238 $150 $239 reversed $147 $-1 #
edge $-1 $361 0 $361 6.2831853071796004 $238 $362 forward 7 unknown #
vertex $-1 $151 $363 #
ellipse-curve $-1 0 0 -4.5646153141880532 0 0 -1 1.5 0 0 1 I I #
face $-1 $364 $365 $33 $-1 $366 reversed single #
loop $-1 $-1 $367 $152 #
plane-surface $-1 -9.2612013433408329 0 0 1 0 0 0 0 -1 forward_v I I I I #
coedge $-1 $368 $253 $369 $370 forward $153 $-1 #
coedge $-1 $371 $155 $368 $372 forward $100 $-1 #
coedge $-1 $155 $371 $373 $374 forward $100 $-1 #
coedge $-1 $256 $255 $155 $249 reversed $257 $-1 #
edge $-1 $375 -282.142399365215 $376 282.142399365215 $248 $377 forward 7 unknown #
coedge $-1 $157 $156 $378 $379 forward $64 $-1 #
coedge $-1 $380 $381 $156 $252 reversed $365 $-1 #
edge $-1 $259 -9.2612013433408329 $382 9.2612013433408329 $251 $383 forward 7 unknown #
coedge $-1 $245 $384 $157 $254 reversed $153 $-1 #
edge $-1 $385 -9.2612013433408329 $258 9.2612013433408329 $253 $386 forward 7 unknown #
coedge $-1 $248 $158 $384 $387 forward $257 $-1 #
coedge $-1 $158 $248 $380 $388 reversed $257 $-1 #
loop $-1 $-1 $255 $364 #
vertex $-1 $159 $389 #
vertex $-1 $159 $390 #
straight-curve $-1 9.2612013433408329 0 141.0711996826075 0 1 0 I I #
loop $-1 $-1 $391 $103 #
coedge $-1 $262 $262 $163 $263 reversed $160 $-1 #
edge $-1 $392 0 $392 6.2831853071796004 $262 $393 forward 7 unknown #
vertex $-1 $164 $394 #
ellipse-curve $-1 0 0 -4.5646153141880532 0 0 -1 1.5 0 0 1 I I #
loop $-1 $-1 $395 $108 #
coedge $-1 $267 $267 $168 $268 reversed $165 $-1 #
edge $-1 $396 0 $396 6.2831853071796004 $267 $397 forward 7 unknown #
vertex $-1 $169 $398 #
ellipse-curve $-1 0 0 -4.5646153141880532 0 0 -1 1.5 0 0 1 I I #
face $-1 $-1 $185 $27 $-1 $399 reversed single #
loop $-1 $-1 $287 $170 #
plane-surface $-1 0 37.710617349769933 0 0 -1 0 0 0 -1 forward_v I I I I #
coedge $-1 $400 $285 $288 $401 forward $171 $-1 #
coedge $-1 $291 $173 $174 $279 reversed $114 $-1 #
coedge $-1 $285 $400 $173 $277 reversed $171 $-1 #
edge $-1 $292 -17.180790157965038 $402 17.180790157965038 $276 $403 forward 7 unknown #
coedge $-1 $175 $174 $400 $404 forward $73 $-1 #
edge $-1 $283 -70.53559984130375 $402 70.53559984130375 $275 $405 forward 7 unknown #
coedge $-1 $288 $287 $175 $281 reversed $272 $-1 #
edge $-1 $406 -70.53559984130375 $282 70.53559984130375 $280 $407 forward 7 unknown #
vertex $-1 $177 $408 #
vertex $-1 $294 $409 #
straight-curve $-1 70.53559984130375 0 -17.180790157965038 0 -1 0 I I #
coedge $-1 $274 $276 $178 $286 reversed $171 $-1 #
edge $-1 $289 -37.710617349769933 $292 37.710617349769933 $285 $410 forward 7 unknown #
coedge $-1 $280 $179 $184 $295 forward $272 $-1 #
coedge $-1 $179 $280 $274 $401 reversed $272 $-1 #
vertex $-1 $180 $411 #
straight-curve $-1 0 37.710617349769933 17.180790157965038 -1 0 0 I I #
coedge $-1 $181 $275 $183 $294 reversed $114 $-1 #
vertex $-1 $286 $412 #
straight-curve $-1 0 -37.710617349769933 17.180790157965038 1 0 0 I I #
edge $-1 $186 -17.180790157965038 $283 17.180790157965038 $183 $413 forward 7 unknown #
edge $-1 $187 -17.180790157965038 $282 17.180790157965038 $184 $414 forward 7 unknown #
point $-1 70.53559984130375 -37.710617349769933 17.180790157965038 #
point $-1 70.53559984130375 37.710617349769933 17.180790157965038 #
face $-1 $-1 $204 $28 $-1 $415 reversed single #
loop $-1 $-1 $314 $189 #
plane-surface $-1 0 282.142399365215 0 0 -1 0 0 0 -1 forward_v I I I I #
coedge $-1 $416 $312 $315 $417 forward $190 $-1 #
coedge $-1 $318 $192 $193 $306 reversed $122 $-1 #
coedge $-1 $312 $416 $192 $304 reversed $190 $-1 #
edge $-1 $319 -141.07119968260747 $418 141.07119968260747 $303 $419 forward 7 unknown #
coedge $-1 $194 $193 $416 $420 forward $77 $-1 #
edge $-1 $310 -8.7020527469243589 $418 8.7020527469243589 $302 $421 forward 7 unknown #
coedge $-1 $315 $314 $194 $308 reversed $299 $-1 #
edge $-1 $422 -8.7020527469243589 $309 8.7020527469243589 $307 $423 forward 7 unknown #
vertex $-1 $196 $424 #
vertex $-1 $321 $425 #
straight-curve $-1 8.7020527469243589 0 -141.07119968260747 0 -1 0 I I #
coedge $-1 $301 $303 $197 $313 reversed $190 $-1 #
edge $-1 $316 -282.142399365215 $319 282.142399365215 $312 $426 forward 7 unknown #
coedge $-1 $307 $198 $203 $322 forward $299 $-1 #
coedge $-1 $198 $307 $301 $417 reversed $299 $-1 #
vertex $-1 $199 $427 #
straight-curve $-1 0 282.142399365215 141.07119968260747 -1 0 0 I I #
coedge $-1 $200 $302 $202 $321 reversed $122 $-1 #
vertex $-1 $313 $428 #
straight-curve $-1 0 -282.142399365215 141.07119968260747 1 0 0 I I #
edge $-1 $205 -141.07119968260747 $310 141.07119968260747 $202 $429 forward 7 unknown #
edge $-1 $206 -141.07119968260747 $309 141.07119968260747 $203 $430 forward 7 unknown #
point $-1 8.7020527469243589 -282.142399365215 141.07119968260747 #
point $-1 8.7020527469243589 282.142399365215 141.07119968260747 #
coedge $-1 $325 $325 $-1 $431 reversed $208 $-1 #
vertex $-1 $210 $432 #
ellipse-curve $-1 0 0 -1.25 0 0 -1 2.5 0 0 1 I I #
point $-1 2.5 0 -5.3915906247138903 #
face $-1 $-1 $228 $30 $-1 $433 reversed single #
loop $-1 $-1 $345 $213 #
plane-surface $-1 0 282.142399365215 0 0 -1 0 0 0 -1 forward_v I I I I #
coedge $-1 $434 $343 $346 $435 forward $214 $-1 #
coedge $-1 $349 $216 $217 $337 reversed $135 $-1 #
coedge $-1 $343 $434 $216 $335 reversed $214 $-1 #
edge $-1 $350 -141.0711996826075 $436 141.0711996826075 $334 $437 forward 7 unknown #
coedge $-1 $218 $217 $434 $438 forward $86 $-1 #
edge $-1 $341 -9.2612013433408329 $436 9.2612013433408329 $333 $439 forward 7 unknown #
coedge $-1 $346 $345 $218 $339 reversed $330 $-1 #
edge $-1 $440 -9.2612013433408329 $340 9.2612013433408329 $338 $441 forward 7 unknown #
vertex $-1 $220 $442 #
vertex $-1 $352 $443 #
straight-curve $-1 9.2612013433408329 0 -141.0711996826075 0 -1 0 I I #
coedge $-1 $332 $334 $221 $344 reversed $214 $-1 #
edge $-1 $347 -282.142399365215 $350 282.142399365215 $343 $444 forward 7 unknown #
coedge $-1 $338 $222 $227 $353 forward $330 $-1 #
coedge $-1 $222 $338 $332 $435 reversed $330 $-1 #
vertex $-1 $223 $445 #
straight-curve $-1 0 282.142399365215 141.0711996826075 -1 0 0 I I #
coedge $-1 $224 $333 $226 $352 reversed $135 $-1 #
vertex $-1 $344 $446 #
straight-curve $-1 0 -282.142399365215 141.0711996826075 1 0 0 I I #
edge $-1 $229 -141.0711996826075 $341 141.0711996826075 $226 $447 forward 7 unknown #
edge $-1 $230 -141.0711996826075 $340 141.0711996826075 $227 $448 forward 7 unknown #
point $-1 9.2612013433408329 -282.142399365215 141.0711996826075 #
point $-1 9.2612013433408329 282.142399365215 141.0711996826075 #
coedge $-1 $356 $356 $-1 $449 reversed $232 $-1 #
vertex $-1 $234 $450 #
ellipse-curve $-1 0 0 -0.75 0 0 -1 1.5 0 0 1 I I #
point $-1 1.5 0 -4.5646153141880532 #
coedge $-1 $360 $360 $-1 $451 reversed $237 $-1 #
vertex $-1 $239 $452 #
ellipse-curve $-1 0 0 -0.75 0 0 -1 1.5 0 0 1 I I #
point $-1 1.5 0 -4.5646153141880532 #
face $-1 $-1 $257 $33 $-1 $453 reversed single #
loop $-1 $-1 $380 $242 #
plane-surface $-1 0 282.142399365215 0 0 -1 0 0 0 -1 forward_v I I I I #
coedge $-1 $454 $378 $381 $455 forward $243 $-1 #
coedge $-1 $384 $245 $246 $372 reversed $153 $-1 #
coedge $-1 $378 $454 $245 $370 reversed $243 $-1 #
edge $-1 $385 -141.0711996826075 $456 141.0711996826075 $369 $457 forward 7 unknown #
coedge $-1 $247 $246 $454 $458 forward $100 $-1 #
edge $-1 $376 -9.2612013433408329 $456 9.2612013433408329 $368 $459 forward 7 unknown #
coedge $-1 $381 $380 $247 $374 reversed $365 $-1 #
edge $-1 $460 -9.2612013433408329 $375 9.2612013433408329 $373 $461 forward 7 unknown #
vertex $-1 $249 $462 #
vertex $-1 $387 $463 #
straight-curve $-1 9.2612013433408329 0 -141.0711996826075 0 -1 0 I I #
coedge $-1 $367 $369 $250 $379 reversed $243 $-1 #
edge $-1 $382 -282.142399365215 $385 282.142399365215 $378 $464 forward 7 unknown #
coedge $-1 $373 $251 $256 $388 forward $365 $-1 #
coedge $-1 $251 $373 $367 $455 reversed $365 $-1 #
vertex $-1 $252 $465 #
straight-curve $-1 0 282.142399365215 141.0711996826075 -1 0 0 I I #
coedge $-1 $253 $368 $255 $387 reversed $153 $-1 #
vertex $-1 $379 $466 #
straight-curve $-1 0 -282.142399365215 141.0711996826075 1 0 0 I I #
edge $-1 $258 -141.0711996826075 $376 141.0711996826075 $255 $467 forward 7 unknown #
edge $-1 $259 -141.0711996826075 $375 141.0711996826075 $256 $468 forward 7 unknown #
point $-1 9.2612013433408329 -282.142399365215 141.0711996826075 #
point $-1 9.2612013433408329 282.142399365215 141.0711996826075 #
coedge $-1 $391 $391 $-1 $469 reversed $261 $-1 #
vertex $-1 $263 $470 #
ellipse-curve $-1 0 0 -0.75 0 0 -1 1.5 0 0 1 I I #
point $-1 1.5 0 -4.5646153141880532 #
coedge $-1 $395 $395 $-1 $471 reversed $266 $-1 #
vertex $-1 $268 $472 #
ellipse-curve $-1 0 0 -0.75 0 0 -1 1.5 0 0 1 I I #
point $-1 1.5 0 -4.5646153141880532 #
plane-surface $-1 70.53559984130375 0 0 -1 0 0 0 0 1 forward_v I I I I #
coedge $-1 $276 $274 $278 $404 reversed $171 $-1 #
edge $-1 $289 -17.180790157965038 $406 17.180790157965038 $288 $473 forward 7 unknown #
vertex $-1 $404 $474 #
straight-curve $-1 -70.53559984130375 -37.710617349769933 0 0 0 -1 I I #
edge $-1 $402 -37.710617349769933 $406 37.710617349769933 $400 $475 forward 7 unknown #
straight-curve $-1 0 -37.710617349769933 -17.180790157965038 -1 0 0 I I #
vertex $-1 $281 $476 #
straight-curve $-1 0 37.710617349769933 -17.180790157965038 1 0 0 I I #
point $-1 70.53559984130375 37.710617349769933 -17.180790157965038 #
point $-1 70.53559984130375 -37.710617349769933 -17.180790157965038 #
straight-curve $-1 -70.53559984130375 0 17.180790157965038 0 -1 0 I I #
point $-1 -70.53559984130375 37.710617349769933 17.180790157965038 #
point $-1 -70.53559984130375 -37.710617349769933 17.180790157965038 #
straight-curve $-1 70.53559984130375 -37.710617349769933 0 0 0 -1 I I #
straight-curve $-1 70.53559984130375 37.710617349769933 0 0 0 -1 I I #
plane-surface $-1 8.7020527469243589 0 0 -1 0 0 0 0 1 forward_v I I I I #
coedge $-1 $303 $301 $305 $420 reversed $190 $-1 #
edge $-1 $316 -141.07119968260747 $422 141.07119968260747 $315 $477 forward 7 unknown #
vertex $-1 $420 $478 #
straight-curve $-1 -8.7020527469243589 -282.142399365215 0 0 0 -1 I I #
edge $-1 $418 -282.142399365215 $422 282.142399365215 $416 $479 forward 7 unknown #
straight-curve $-1 0 -282.142399365215 -141.07119968260747 -1 0 0 I I #
vertex $-1 $308 $480 #
straight-curve $-1 0 282.142399365215 -141.07119968260747 1 0 0 I I #
point $-1 8.7020527469243589 282.142399365215 -141.07119968260747 #
point $-1 8.7020527469243589 -282.142399365215 -141.07119968260747 #
straight-curve $-1 -8.7020527469243589 0 141.07119968260747 0 -1 0 I I #
point $-1 -8.7020527469243589 282.142399365215 141.07119968260747 #
point $-1 -8.7020527469243589 -282.142399365215 141.07119968260747 #
straight-curve $-1 8.7020527469243589 -282.142399365215 0 0 0 -1 I I #
straight-curve $-1 8.7020527469243589 282.142399365215 0 0 0 -1 I I #
edge $-1 $481 1 $481 0 $325 $-1 forward 7 unknown #
point $-1 2.5 0 -1.25 #
plane-surface $-1 9.2612013433408329 0 0 -1 0 0 0 0 1 forward_v I I I I #
coedge $-1 $334 $332 $336 $438 reversed $214 $-1 #
edge $-1 $347 -141.0711996826075 $440 141.0711996826075 $346 $482 forward 7 unknown #
vertex $-1 $438 $483 #
straight-curve $-1 -9.2612013433408329 -282.142399365215 0 0 0 -1 I I #
edge $-1 $436 -282.142399365215 $440 282.142399365215 $434 $484 forward 7 unknown #
straight-curve $-1 0 -282.142399365215 -141.0711996826075 -1 0 0 I I #
vertex $-1 $339 $485 #
straight-curve $-1 0 282.142399365215 -141.0711996826075 1 0 0 I I #
point $-1 9.2612013433408329 282.142399365215 -141.0711996826075 #
point $-1 9.2612013433408329 -282.142399365215 -141.0711996826075 #
straight-curve $-1 -9.2612013433408329 0 141.0711996826075 0 -1 0 I I #
point $-1 -9.2612013433408329 282.142399365215 141.0711996826075 #
point $-1 -9.2612013433408329 -282.142399365215 141.0711996826075 #
straight-curve $-1 9.2612013433408329 -282.142399365215 0 0 0 -1 I I #
straight-curve $-1 9.2612013433408329 282.142399365215 0 0 0 -1 I I #
edge $-1 $486 1 $486 0 $356 $-1 forward 7 unknown #
point $-1 1.5 0 -0.75 #
edge $-1 $487 1 $487 0 $360 $-1 forward 7 unknown #
point $-1 1.5 0 -0.75 #
plane-surface $-1 9.2612013433408329 0 0 -1 0 0 0 0 1 forward_v I I I I #
coedge $-1 $369 $367 $371 $458 reversed $243 $-1 #
edge $-1 $382 -141.0711996826075 $460 141.0711996826075 $381 $488 forward 7 unknown #
vertex $-1 $458 $489 #
straight-curve $-1 -9.2612013433408329 -282.142399365215 0 0 0 -1 I I #
edge $-1 $456 -282.142399365215 $460 282.142399365215 $454 $490 forward 7 unknown #
straight-curve $-1 0 -282.142399365215 -141.0711996826075 -1 0 0 I I #
vertex $-1 $374 $491 #
straight-curve $-1 0 282.142399365215 -141.0711996826075 1 0 0 I I #
point $-1 9.2612013433408329 282.142399365215 -141.0711996826075 #
point $-1 9.2612013433408329 -282.142399365215 -141.0711996826075 #
straight-curve $-1 -9.2612013433408329 0 141.0711996826075 0 -1 0 I I #
point $-1 -9.2612013433408329 282.142399365215 141.0711996826075 #
point $-1 -9.2612013433408329 -282.142399365215 141.0711996826075 #
straight-curve $-1 9.2612013433408329 -282.142399365215 0 0 0 -1 I I #
straight-curve $-1 9.2612013433408329 282.142399365215 0 0 0 -1 I I #
edge $-1 $492 1 $492 0 $391 $-1 forward 7 unknown #
point $-1 1.5 0 -0.75 #
edge $-1 $493 1 $493 0 $395 $-1 forward 7 unknown #
point $-1 1.5 0 -0.75 #
straight-curve $-1 -70.53559984130375 37.710617349769933 0 0 0 -1 I I #
point $-1 -70.53559984130375 -37.710617349769933 -17.180790157965038 #
straight-curve $-1 -70.53559984130375 0 -17.180790157965038 0 1 0 I I #
point $-1 -70.53559984130375 37.710617349769933 -17.180790157965038 #
straight-curve $-1 -8.7020527469243589 282.142399365215 0 0 0 -1 I I #
point $-1 -8.7020527469243589 -282.142399365215 -141.07119968260747 #
straight-curve $-1 -8.7020527469243589 0 -141.07119968260747 0 1 0 I I #
point $-1 -8.7020527469243589 282.142399365215 -141.07119968260747 #
vertex $-1 $431 $494 #
straight-curve $-1 -9.2612013433408329 282.142399365215 0 0 0 -1 I I #
point $-1 -9.2612013433408329 -282.142399365215 -141.0711996826075 #
straight-curve $-1 -9.2612013433408329 0 -141.0711996826075 0 1 0 I I #
point $-1 -9.2612013433408329 282.142399365215 -141.0711996826075 #
vertex $-1 $449 $495 #
vertex $-1 $451 $496 #
straight-curve $-1 -9.2612013433408329 282.142399365215 0 0 0 -1 I I #
point $-1 -9.2612013433408329 -282.142399365215 -141.0711996826075 #
straight-curve $-1 -9.2612013433408329 0 -141.0711996826075 0 1 0 I I #
point $-1 -9.2612013433408329 282.142399365215 -141.0711996826075 #
vertex $-1 $469 $497 #
vertex $-1 $471 $498 #
point $-1 0 0 1.25 #
point $-1 0 0 0.75 #
point $-1 0 0 0.75 #
point $-1 0 0 0.75 #
point $-1 0 0 0.75 #
End-of-ACIS-data 