500 0 5 0           
7 Unknown 11 ACIS 5.0 NT 24 Fri Mar 26 03:02:22 1999 
-1 9.9999999999999995e-007 1e-010 
body $-1 $5 $-1 $6 #
body $-1 $7 $-1 $8 #
body $-1 $9 $-1 $10 #
body $-1 $11 $-1 $12 #
body $-1 $13 $-1 $14 #
lump $-1 $-1 $15 $0 #
transform $-1 1 0 0 0 1 0 0 0 1 54.352244636371964 31.385862656411891 9.6458343061270391 1 rotate no_reflect no_shear #
lump $-1 $-1 $16 $1 #
transform $-1 1 0 0 0 1 0 0 0 1 54.352244636371964 31.385862656411891 9.6458343061270391 1 rotate no_reflect no_shear #
lump $-1 $-1 $17 $2 #
transform $-1 1 0 0 0 1 0 0 0 1 54.352244636371964 31.385862656411891 9.6458343061270391 1 rotate no_reflect no_shear #
lump $-1 $-1 $18 $3 #
transform $-1 1 0 0 0 1 0 0 0 1 54.352244636371964 31.385862656411891 9.6458343061270391 1 rotate no_reflect no_shear #
lump $-1 $-1 $19 $4 #
transform $-1 1 0 0 0 1 0 0 0 1 54.352244636371964 31.385862656411891 9.6458343061270391 1 rotate no_reflect no_shear #
shell $-1 $-1 $-1 $20 $-1 $5 #
shell $-1 $-1 $-1 $21 $-1 $7 #
shell $-1 $-1 $-1 $22 $-1 $9 #
shell $-1 $-1 $-1 $23 $-1 $11 #
shell $-1 $-1 $-1 $24 $-1 $13 #
face $-1 $25 $26 $15 $-1 $27 forward single #
face $-1 $28 $29 $16 $-1 $30 reversed single #
face $-1 $31 $32 $17 $-1 $33 forward single #
face $-1 $34 $35 $18 $-1 $36 reversed single #
face $-1 $37 $38 $19 $-1 $39 forward single #
face $-1 $40 $41 $15 $-1 $42 reversed single #
loop $-1 $-1 $43 $20 #
plane-surface $-1 0 0 9.6458343061270391 0 0 1 1 0 0 forward_v I I I I #
face $-1 $44 $45 $16 $-1 $46 reversed single #
loop $-1 $-1 $47 $21 #
plane-surface $-1 -28.920224592464066 -25.527557819445409 73.953643235676068 0.64278761758704617 0 0.76604443648966558 0.76604443648966558 0 -0.64278761758704617 forward_v I I I I #
face $-1 $48 $49 $17 $-1 $50 forward single #
loop $-1 $51 $52 $22 #
cone-surface $-1 49.165837023442982 -25.527557819445409 4.6345632835824944 -0.64278761758704617 0 -0.76604443648966558 1.1490666547344983 0 -0.96418142638056925 1 I I 0 1 1.5 forward I I I I #
face $-1 $53 $54 $18 $-1 $55 reversed single #
loop $-1 $-1 $56 $23 #
plane-surface $-1 -124.22614431701564 -19.669252982478927 87.352212783868382 0 -1 0 0.64278761758704617 0 -0.76604443648966558 forward_v I I I I #
face $-1 $57 $58 $19 $-1 $59 forward single #
loop $-1 $60 $61 $24 #
cone-surface $-1 -49.165837023442982 -25.527557819445409 4.6345632835824979 0.64278761758704617 0 -0.76604443648966558 1.1490666547344983 0 0.96418142638056925 1 I I 0 1 1.5 forward I I I I #
face $-1 $62 $63 $15 $-1 $64 reversed single #
loop $-1 $-1 $65 $25 #
plane-surface $-1 0 0 -9.6458343061270391 0 0 1 1 0 0 forward_v I I I I #
coedge $-1 $66 $67 $68 $69 forward $26 $-1 #
face $-1 $70 $71 $16 $-1 $72 forward single #
loop $-1 $-1 $73 $28 #
plane-surface $-1 40.953675088179622 -19.669252982478927 157.22611246451208 0 -1 0 -0.64278761758704617 0 -0.76604443648966558 forward_v I I I I #
coedge $-1 $74 $75 $76 $77 reversed $29 $-1 #
face $-1 $-1 $78 $17 $-1 $79 forward single #
loop $-1 $80 $81 $31 #
cone-surface $-1 46.814042952516729 -25.527557819445409 1.8318043092180396 -0.64278761758704617 0 -0.76604443648966558 0.57453332736724916 0 -0.48209071319028463 1 I I -0.70710678118654757 0.70710678118654757 0.75 forward I I I I #
loop $-1 $-1 $82 $22 #
coedge $-1 $52 $52 $83 $84 reversed $32 $-1 #
face $-1 $85 $86 $18 $-1 $87 reversed single #
loop $-1 $-1 $88 $34 #
plane-surface $-1 -54.35224463637195 -25.527557819445409 4.0797435550323655 -0.64278761758704617 0 0.76604443648966558 0.76604443648966558 0 0.64278761758704617 forward_v I I I I #
coedge $-1 $89 $90 $91 $92 reversed $35 $-1 #
face $-1 $-1 $93 $19 $-1 $94 forward single #
loop $-1 $95 $96 $37 #
cone-surface $-1 -46.814042952516729 -25.527557819445409 1.8318043092180432 0.64278761758704617 0 -0.76604443648966558 0.57453332736724916 0 0.48209071319028463 1 I I -0.70710678118654757 0.70710678118654757 0.75 forward I I I I #
loop $-1 $-1 $97 $24 #
coedge $-1 $61 $61 $98 $99 reversed $38 $-1 #
face $-1 $100 $101 $15 $-1 $102 reversed single #
loop $-1 $-1 $103 $40 #
plane-surface $-1 0 -31.385862656411891 0 0 1 0 0 0 1 forward_v I I I I #
coedge $-1 $104 $105 $106 $107 forward $41 $-1 #
coedge $-1 $108 $43 $109 $110 forward $26 $-1 #
coedge $-1 $43 $108 $111 $112 forward $26 $-1 #
coedge $-1 $113 $114 $43 $69 reversed $115 $-1 #
edge $-1 $116 -31.385862656411891 $117 31.385862656411891 $68 $118 forward 7 unknown #
face $-1 $119 $120 $16 $-1 $121 reversed single #
loop $-1 $-1 $122 $44 #
plane-surface $-1 0 0 9.6458343061270391 0 0 1 1 0 0 forward_v I I I I #
coedge $-1 $123 $124 $125 $126 reversed $45 $-1 #
coedge $-1 $127 $47 $128 $129 reversed $29 $-1 #
coedge $-1 $47 $127 $123 $130 forward $29 $-1 #
coedge $-1 $125 $131 $47 $77 forward $132 $-1 #
edge $-1 $133 -18.622083746689185 $134 -6.9054740727562223 $76 $135 forward 7 unknown #
loop $-1 $-1 $83 $48 #
plane-surface $-1 -28.920224592464066 -25.527557819445409 73.953643235676068 0.64278761758704617 0 0.76604443648966558 0.76604443648966558 0 -0.64278761758704617 forward_v I I I I #
loop $-1 $-1 $136 $31 #
coedge $-1 $81 $81 $82 $137 reversed $49 $-1 #
coedge $-1 $82 $82 $81 $137 forward $51 $-1 #
coedge $-1 $83 $83 $52 $84 forward $78 $-1 #
edge $-1 $138 0 $138 6.2831853071796004 $83 $139 forward 7 unknown #
face $-1 $140 $141 $18 $-1 $142 reversed single #
loop $-1 $-1 $91 $53 #
plane-surface $-1 -54.352244636371964 0 0 1 0 0 0 0 -1 forward_v I I I I #
coedge $-1 $143 $144 $145 $146 reversed $54 $-1 #
coedge $-1 $90 $56 $147 $148 reversed $35 $-1 #
coedge $-1 $56 $89 $143 $149 reversed $35 $-1 #
coedge $-1 $145 $150 $56 $92 forward $86 $-1 #
edge $-1 $151 34.030272085807155 $152 39.596362836901839 $91 $153 forward 7 unknown #
loop $-1 $-1 $98 $57 #
plane-surface $-1 -54.35224463637195 -25.527557819445409 4.0797435550323655 -0.64278761758704617 0 0.76604443648966558 0.76604443648966558 0 0.64278761758704617 forward_v I I I I #
loop $-1 $-1 $154 $37 #
coedge $-1 $96 $96 $97 $155 reversed $58 $-1 #
coedge $-1 $97 $97 $96 $155 forward $60 $-1 #
coedge $-1 $98 $98 $61 $99 forward $93 $-1 #
edge $-1 $156 0 $156 6.2831853071796004 $98 $157 forward 7 unknown #
face $-1 $158 $159 $15 $-1 $160 reversed single #
loop $-1 $-1 $161 $62 #
plane-surface $-1 -54.352244636371964 0 0 1 0 0 0 0 -1 forward_v I I I I #
coedge $-1 $162 $111 $163 $164 forward $63 $-1 #
coedge $-1 $165 $65 $162 $166 forward $41 $-1 #
coedge $-1 $65 $165 $167 $168 forward $41 $-1 #
coedge $-1 $114 $113 $65 $107 reversed $115 $-1 #
edge $-1 $169 -31.385862656411891 $170 31.385862656411891 $106 $171 forward 7 unknown #
coedge $-1 $67 $66 $172 $173 forward $26 $-1 #
coedge $-1 $174 $175 $66 $110 reversed $159 $-1 #
edge $-1 $117 -54.352244636371964 $176 54.352244636371964 $109 $177 forward 7 unknown #
coedge $-1 $103 $178 $67 $112 reversed $63 $-1 #
edge $-1 $179 -54.352244636371964 $116 54.352244636371964 $111 $180 forward 7 unknown #
coedge $-1 $106 $68 $178 $181 forward $115 $-1 #
coedge $-1 $68 $106 $174 $182 reversed $115 $-1 #
loop $-1 $-1 $113 $158 #
vertex $-1 $69 $183 #
vertex $-1 $69 $184 #
straight-curve $-1 54.352244636371964 0 9.6458343061270391 0 1 0 I I #
face $-1 $-1 $132 $16 $-1 $185 reversed single #
loop $-1 $-1 $128 $70 #
plane-surface $-1 0 -31.385862656411891 0 0 1 0 0 0 1 forward_v I I I I #
coedge $-1 $186 $187 $124 $188 forward $71 $-1 #
coedge $-1 $124 $73 $75 $130 reversed $45 $-1 #
coedge $-1 $73 $123 $122 $188 reversed $45 $-1 #
coedge $-1 $189 $76 $73 $126 forward $132 $-1 #
edge $-1 $134 -74.533312677223662 $190 -68.967221926129 $125 $191 forward 7 unknown #
coedge $-1 $75 $74 $186 $192 reversed $29 $-1 #
coedge $-1 $193 $194 $74 $129 forward $120 $-1 #
edge $-1 $195 65.199857726014457 $133 73.85915762352829 $128 $196 forward 7 unknown #
edge $-1 $197 100.04518937523011 $134 108.70448927274393 $123 $198 forward 7 unknown #
coedge $-1 $76 $189 $193 $199 forward $132 $-1 #
loop $-1 $-1 $125 $119 #
vertex $-1 $129 $200 #
vertex $-1 $77 $201 #
straight-curve $-1 54.352244636371964 -12.763778909722705 4.0797435550323726 0 1 0 I I #
coedge $-1 $136 $136 $-1 $202 reversed $80 $-1 #
edge $-1 $203 0 $203 6.2831853071796004 $81 $204 forward 7 unknown #
vertex $-1 $84 $205 #
ellipse-curve $-1 51.035540381178954 -25.527557819445409 6.8627889305797005 0.64278761758704617 0 0.76604443648966558 1.1490666547344983 0 -0.96418142638056925 1 I I #
face $-1 $-1 $206 $18 $-1 $207 forward single #
loop $-1 $-1 $208 $85 #
plane-surface $-1 0 -31.385862656411891 0 0 1 0 0 0 1 forward_v I I I I #
coedge $-1 $209 $88 $90 $149 forward $54 $-1 #
coedge $-1 $88 $209 $208 $210 reversed $54 $-1 #
coedge $-1 $211 $91 $88 $146 forward $86 $-1 #
edge $-1 $152 6.9054740727562223 $212 18.622083746689185 $145 $213 forward 7 unknown #
coedge $-1 $214 $215 $89 $148 forward $206 $-1 #
edge $-1 $216 -14.394236032521874 $151 -7.7608275221358554 $147 $217 forward 7 unknown #
edge $-1 $152 -1.8307977367429951e-014 $216 8.6592998975138364 $90 $218 forward 7 unknown #
coedge $-1 $91 $211 $214 $219 reversed $86 $-1 #
vertex $-1 $219 $220 #
vertex $-1 $92 $221 #
straight-curve $-1 -54.352244636371964 -19.669252982478927 43.676106391934191 0 0 -1 I I #
coedge $-1 $154 $154 $-1 $222 reversed $95 $-1 #
edge $-1 $223 0 $223 6.2831853071796004 $96 $224 forward 7 unknown #
vertex $-1 $99 $225 #
ellipse-curve $-1 -51.035540381178947 -25.527557819445409 6.8627889305796987 -0.64278761758704617 0 0.76604443648966558 1.1490666547344983 0 0.96418142638056925 1 I I #
face $-1 $-1 $115 $15 $-1 $226 reversed single #
loop $-1 $-1 $174 $100 #
plane-surface $-1 0 31.385862656411891 0 0 -1 0 0 0 -1 forward_v I I I I #
coedge $-1 $227 $172 $175 $228 forward $101 $-1 #
coedge $-1 $178 $103 $104 $166 reversed $63 $-1 #
coedge $-1 $172 $227 $103 $164 reversed $101 $-1 #
edge $-1 $179 -9.6458343061270391 $229 9.6458343061270391 $163 $230 forward 7 unknown #
coedge $-1 $105 $104 $227 $231 forward $41 $-1 #
edge $-1 $170 -54.352244636371964 $229 54.352244636371964 $162 $232 forward 7 unknown #
coedge $-1 $175 $174 $105 $168 reversed $159 $-1 #
edge $-1 $233 -54.352244636371964 $169 54.352244636371964 $167 $234 forward 7 unknown #
vertex $-1 $107 $235 #
vertex $-1 $181 $236 #
straight-curve $-1 54.352244636371964 0 -9.6458343061270391 0 -1 0 I I #
coedge $-1 $161 $163 $108 $173 reversed $101 $-1 #
edge $-1 $176 -31.385862656411891 $179 31.385862656411891 $172 $237 forward 7 unknown #
coedge $-1 $167 $109 $114 $182 forward $159 $-1 #
coedge $-1 $109 $167 $161 $228 reversed $159 $-1 #
vertex $-1 $110 $238 #
straight-curve $-1 0 31.385862656411891 9.6458343061270391 -1 0 0 I I #
coedge $-1 $111 $162 $113 $181 reversed $63 $-1 #
vertex $-1 $173 $239 #
straight-curve $-1 0 -31.385862656411891 9.6458343061270391 1 0 0 I I #
edge $-1 $116 -9.6458343061270391 $170 9.6458343061270391 $113 $240 forward 7 unknown #
edge $-1 $117 -9.6458343061270391 $169 9.6458343061270391 $114 $241 forward 7 unknown #
point $-1 54.352244636371964 -31.385862656411891 9.6458343061270391 #
point $-1 54.352244636371964 31.385862656411891 9.6458343061270391 #
plane-surface $-1 54.352244636371964 0 0 -1 0 0 0 0 1 forward_v I I I I #
coedge $-1 $242 $122 $127 $192 forward $71 $-1 #
coedge $-1 $122 $242 $189 $243 forward $71 $-1 #
edge $-1 $190 -33.875407092282153 $197 -27.241998581896148 $122 $244 forward 7 unknown #
coedge $-1 $131 $125 $187 $243 reversed $132 $-1 #
vertex $-1 $126 $245 #
straight-curve $-1 54.352244636371964 -19.669252982478927 78.613056232256042 0 0 1 I I #
edge $-1 $197 6.9054740727562223 $195 18.622083746689185 $186 $246 forward 7 unknown #
coedge $-1 $194 $128 $131 $199 reversed $120 $-1 #
coedge $-1 $128 $193 $242 $247 reversed $120 $-1 #
vertex $-1 $247 $248 #
straight-curve $-1 -2.2271521449451566 -31.385862656411891 51.555495520846243 0.76604443648966558 0 -0.64278761758704617 I I #
vertex $-1 $192 $249 #
straight-curve $-1 -28.920224592464066 -19.669252982478927 73.953643235676068 0.76604443648966558 0 -0.64278761758704617 I I #
edge $-1 $250 -9.6458343061270391 $133 -4.0797435550323691 $131 $251 forward 7 unknown #
point $-1 54.352244636371964 -31.385862656411891 4.0797435550323691 #
point $-1 54.352244636371964 -19.669252982478927 4.0797435550323797 #
edge $-1 $252 1 $252 0 $136 $-1 forward 7 unknown #
vertex $-1 $137 $253 #
ellipse-curve $-1 47.296133665707011 -25.527557819445409 2.4063376365852887 0.64278761758704617 0 0.76604443648966558 1.1490666547344983 0 -0.96418142638056925 1 I I #
point $-1 52.184607035913452 -25.527557819445409 5.8986075041991288 #
loop $-1 $-1 $147 $140 #
plane-surface $-1 0 0 9.6458343061270391 0 0 1 1 0 0 forward_v I I I I #
coedge $-1 $254 $255 $144 $210 forward $141 $-1 #
coedge $-1 $144 $143 $215 $256 reversed $54 $-1 #
edge $-1 $212 -19.50691298715634 $257 -10.847613089642483 $208 $258 forward 7 unknown #
coedge $-1 $150 $145 $255 $259 reversed $86 $-1 #
vertex $-1 $210 $260 #
straight-curve $-1 -54.352244636371964 -12.763778909722705 4.0797435550323513 0 -1 0 I I #
coedge $-1 $261 $147 $150 $219 forward $206 $-1 #
coedge $-1 $147 $261 $209 $256 forward $206 $-1 #
vertex $-1 $148 $262 #
straight-curve $-1 -62.113072158507819 -19.669252982478927 9.6458343061270426 -1 0 0 I I #
straight-curve $-1 -54.35224463637195 -19.669252982478927 4.0797435550323655 0.76604443648966558 0 0.64278761758704617 I I #
edge $-1 $151 19.669252982478927 $263 31.385862656411891 $150 $264 forward 7 unknown #
point $-1 -54.352244636371964 -19.669252982478927 9.6458343061270391 #
point $-1 -54.352244636371964 -19.669252982478927 4.079743555032354 #
edge $-1 $265 1 $265 0 $154 $-1 forward 7 unknown #
vertex $-1 $155 $266 #
ellipse-curve $-1 -47.296133665707011 -25.527557819445409 2.4063376365852922 -0.64278761758704617 0 0.76604443648966558 1.1490666547344983 0 0.96418142638056925 1 I I #
point $-1 -49.886473726444457 -25.527557819445409 7.8269703569602704 #
plane-surface $-1 54.352244636371964 0 0 -1 0 0 0 0 1 forward_v I I I I #
coedge $-1 $163 $161 $165 $231 reversed $101 $-1 #
edge $-1 $176 -9.6458343061270391 $233 9.6458343061270391 $175 $267 forward 7 unknown #
vertex $-1 $231 $268 #
straight-curve $-1 -54.352244636371964 -31.385862656411891 0 0 0 -1 I I #
edge $-1 $229 -31.385862656411891 $233 31.385862656411891 $227 $269 forward 7 unknown #
straight-curve $-1 0 -31.385862656411891 -9.6458343061270391 -1 0 0 I I #
vertex $-1 $168 $270 #
straight-curve $-1 0 31.385862656411891 -9.6458343061270391 1 0 0 I I #
point $-1 54.352244636371964 31.385862656411891 -9.6458343061270391 #
point $-1 54.352244636371964 -31.385862656411891 -9.6458343061270391 #
straight-curve $-1 -54.352244636371964 0 9.6458343061270391 0 -1 0 I I #
point $-1 -54.352244636371964 31.385862656411891 9.6458343061270391 #
point $-1 -54.352244636371964 -31.385862656411891 9.6458343061270391 #
straight-curve $-1 54.352244636371964 -31.385862656411891 0 0 0 -1 I I #
straight-curve $-1 54.352244636371964 31.385862656411891 0 0 0 -1 I I #
coedge $-1 $187 $186 $194 $247 forward $71 $-1 #
edge $-1 $250 -31.385862656411891 $190 -19.669252982478927 $189 $271 forward 7 unknown #
straight-curve $-1 20.476837544089811 -19.669252982478927 9.6458343061270426 -1 0 0 I I #
point $-1 54.352244636371964 -19.669252982478927 9.6458343061270391 #
straight-curve $-1 47.718836125985959 -12.763778909722705 9.6458343061270355 0 -1 0 I I #
edge $-1 $195 47.718836125985959 $250 54.352244636371964 $194 $272 forward 7 unknown #
point $-1 47.718836125985959 -31.385862656411891 9.6458343061270426 #
point $-1 47.718836125985959 -19.669252982478927 9.6458343061270426 #
vertex $-1 $243 $273 #
straight-curve $-1 54.352244636371964 -31.385862656411891 0 0 0 -1 I I #
vertex $-1 $202 $274 #
point $-1 48.445200320441515 -25.527557819445409 1.4421562102047196 #
coedge $-1 $255 $208 $261 $275 reversed $141 $-1 #
coedge $-1 $208 $254 $211 $259 forward $141 $-1 #
edge $-1 $257 -18.622083746689185 $216 -6.9054740727562223 $215 $276 forward 7 unknown #
vertex $-1 $256 $277 #
straight-curve $-1 -39.40908246947285 -31.385862656411891 16.618545680524388 0.76604443648966558 0 0.64278761758704617 I I #
edge $-1 $263 -9.6458343061270391 $212 -4.0797435550323531 $211 $278 forward 7 unknown #
point $-1 -54.352244636371964 -31.385862656411891 4.0797435550323531 #
coedge $-1 $215 $214 $254 $275 forward $206 $-1 #
point $-1 -47.718836125985945 -19.669252982478927 9.6458343061270391 #
vertex $-1 $219 $279 #
straight-curve $-1 -54.352244636371964 0 9.6458343061270391 0 -1 0 I I #
vertex $-1 $222 $280 #
point $-1 -46.147067010972513 -25.527557819445409 3.3705190629658617 #
straight-curve $-1 -54.352244636371964 31.385862656411891 0 0 0 -1 I I #
point $-1 -54.352244636371964 -31.385862656411891 -9.6458343061270391 #
straight-curve $-1 -54.352244636371964 0 -9.6458343061270391 0 1 0 I I #
point $-1 -54.352244636371964 31.385862656411891 -9.6458343061270391 #
straight-curve $-1 54.352244636371964 0 9.6458343061270391 0 1 0 I I #
straight-curve $-1 0 -31.385862656411891 9.6458343061270391 1 0 0 I I #
point $-1 54.352244636371964 -31.385862656411891 9.6458343061270391 #
point $-1 46.331952239326448 -25.527557819445409 1.2572709818507906 #
edge $-1 $263 -54.352244636371964 $257 -47.718836125985945 $254 $281 forward 7 unknown #
straight-curve $-1 -47.718836125985945 -12.763778909722705 9.6458343061270391 0 1 0 I I #
point $-1 -47.718836125985945 -31.385862656411891 9.6458343061270391 #
straight-curve $-1 -54.352244636371964 -31.385862656411891 0 0 0 -1 I I #
point $-1 -54.352244636371964 -31.385862656411891 9.6458343061270391 #
point $-1 -46.331952239326448 -25.527557819445409 1.2572709818507941 #
straight-curve $-1 0 -31.385862656411891 9.6458343061270391 1 0 0 I I #
End-of-ACIS-data 