500 0 8 0           
7 Unknown 11 ACIS 5.0 NT 24 Thu Mar 25 22:05:36 1999 
-1 9.9999999999999995e-007 1e-010 
body $-1 $8 $-1 $9 #
body $-1 $10 $-1 $11 #
body $-1 $12 $-1 $13 #
body $-1 $14 $-1 $15 #
body $-1 $16 $-1 $17 #
body $-1 $18 $-1 $19 #
body $-1 $20 $-1 $21 #
body $-1 $22 $-1 $23 #
lump $-1 $-1 $24 $0 #
transform $-1 1 0 0 0 1 0 0 0 1 55.413068025757624 32.369301771923546 12.922925351413687 1 rotate no_reflect no_shear #
lump $-1 $-1 $25 $1 #
transform $-1 1 0 0 0 1 0 0 0 1 55.413068025757624 32.369301771923546 12.922925351413687 1 rotate no_reflect no_shear #
lump $-1 $-1 $26 $2 #
transform $-1 1 0 0 0 1 0 0 0 1 55.413068025757624 32.369301771923546 12.922925351413687 1 rotate no_reflect no_shear #
lump $-1 $-1 $27 $3 #
transform $-1 1 0 0 0 1 0 0 0 1 55.413068025757624 32.369301771923546 12.922925351413687 1 rotate no_reflect no_shear #
lump $-1 $-1 $28 $4 #
transform $-1 1 0 0 0 1 0 0 0 1 55.413068025757624 32.369301771923546 12.922925351413687 1 rotate no_reflect no_shear #
lump $-1 $-1 $29 $5 #
transform $-1 1 0 0 0 1 0 0 0 1 55.413068025757624 32.369301771923546 12.922925351413687 1 rotate no_reflect no_shear #
lump $-1 $-1 $30 $6 #
transform $-1 1 0 0 0 1 0 0 0 1 55.413068025757624 32.369301771923546 12.922925351413687 1 rotate no_reflect no_shear #
lump $-1 $-1 $31 $7 #
transform $-1 1 0 0 0 1 0 0 0 1 55.413068025757624 32.369301771923546 12.922925351413687 1 rotate no_reflect no_shear #
shell $-1 $-1 $-1 $32 $-1 $8 #
shell $-1 $-1 $-1 $33 $-1 $10 #
shell $-1 $-1 $-1 $34 $-1 $12 #
shell $-1 $-1 $-1 $35 $-1 $14 #
shell $-1 $-1 $-1 $36 $-1 $16 #
shell $-1 $-1 $-1 $37 $-1 $18 #
shell $-1 $-1 $-1 $38 $-1 $20 #
shell $-1 $-1 $-1 $39 $-1 $22 #
face $-1 $40 $41 $24 $-1 $42 forward single #
face $-1 $43 $44 $25 $-1 $45 reversed single #
face $-1 $46 $47 $26 $-1 $48 reversed single #
face $-1 $49 $50 $27 $-1 $51 forward single #
face $-1 $52 $53 $28 $-1 $54 forward single #
face $-1 $55 $56 $29 $-1 $57 reversed single #
face $-1 $58 $59 $30 $-1 $60 forward single #
face $-1 $61 $62 $31 $-1 $63 forward single #
face $-1 $64 $65 $24 $-1 $66 reversed single #
loop $-1 $-1 $67 $32 #
plane-surface $-1 0 0 12.922925351413687 0 0 1 1 0 0 forward_v I I I I #
face $-1 $68 $69 $25 $-1 $70 reversed single #
loop $-1 $-1 $71 $33 #
plane-surface $-1 -52.065301924330122 -20.113768392254883 0 0 -1 0 0 0 -1 forward_v I I I I #
face $-1 $72 $73 $26 $-1 $74 reversed single #
loop $-1 $-1 $75 $34 #
plane-surface $-1 20.156080077129616 29.950348467986039 162.16136766127738 0 -1 0 -0.52991927123019833 0 -0.84804809178421925 forward_v I I I I #
face $-1 $76 $77 $27 $-1 $78 forward single #
loop $-1 $79 $80 $35 #
cone-surface $-1 51.619008773787961 22.332261967638566 9.5645799628641797 -0.52991927123019833 0 -0.84804809178421925 1.2720721376763289 0 -0.79487890684529749 1 I I 0 1 1.5 forward I I I I #
face $-1 $81 $82 $28 $-1 $83 forward single #
loop $-1 $84 $85 $36 #
cone-surface $-1 51.619008773787961 26.903113867847054 9.5645799628641797 -0.52991927123019833 0 -0.84804809178421925 1.2720721376763289 0 -0.79487890684529749 1 I I 0 1 1.5 forward I I I I #
face $-1 $86 $87 $29 $-1 $88 reversed single #
loop $-1 $-1 $89 $37 #
plane-surface $-1 -114.14197327543539 19.285027367499573 103.4324624115996 0 1 0 -0.52991927123019833 0 0.84804809178421925 forward_v I I I I #
face $-1 $90 $91 $30 $-1 $92 forward single #
loop $-1 $93 $94 $38 #
cone-surface $-1 -51.619008773787961 22.332261967638566 9.5645799628641726 0.52991927123019833 0 -0.84804809178421925 1.2720721376763289 0 0.79487890684529749 1 I I 0 1 1.5 forward I I I I #
face $-1 $95 $96 $31 $-1 $97 forward single #
loop $-1 $98 $99 $39 #
cone-surface $-1 -51.619008773787961 26.903113867847054 9.5645799628641726 0.52991927123019833 0 -0.84804809178421925 1.2720721376763289 0 0.79487890684529749 1 I I 0 1 1.5 forward I I I I #
face $-1 $100 $101 $24 $-1 $102 reversed single #
loop $-1 $-1 $103 $40 #
plane-surface $-1 0 0 -12.922925351413687 0 0 1 1 0 0 forward_v I I I I #
coedge $-1 $104 $105 $106 $107 forward $41 $-1 #
face $-1 $108 $109 $25 $-1 $110 forward single #
loop $-1 $-1 $111 $43 #
plane-surface $-1 -48.717535822902619 -26.241535082089214 0 -1 0 0 0 0 1 forward_v I I I I #
coedge $-1 $112 $113 $114 $115 forward $44 $-1 #
face $-1 $116 $117 $26 $-1 $118 reversed single #
loop $-1 $-1 $119 $46 #
plane-surface $-1 -38.572825172548157 24.617687917742806 68.175474462971607 0.52991927123019833 0 0.84804809178421925 0.84804809178421925 0 -0.52991927123019833 forward_v I I I I #
coedge $-1 $120 $121 $122 $123 reversed $47 $-1 #
face $-1 $-1 $124 $27 $-1 $125 forward single #
loop $-1 $126 $127 $49 #
cone-surface $-1 50.209176398864159 22.332261967638566 7.3083765745364335 -0.52991927123019833 0 -0.84804809178421925 0.63603606883816444 0 -0.39743945342264875 1 I I -0.70710678118654757 0.70710678118654757 0.75 forward I I I I #
loop $-1 $-1 $128 $35 #
coedge $-1 $80 $80 $129 $130 reversed $50 $-1 #
face $-1 $-1 $131 $28 $-1 $132 forward single #
loop $-1 $133 $134 $52 #
cone-surface $-1 50.209176398864159 26.903113867847054 7.3083765745364335 -0.52991927123019833 0 -0.84804809178421925 0.63603606883816444 0 -0.39743945342264875 1 I I -0.70710678118654757 0.70710678118654757 0.75 forward I I I I #
loop $-1 $-1 $135 $36 #
coedge $-1 $85 $85 $136 $137 reversed $53 $-1 #
face $-1 $138 $139 $29 $-1 $140 reversed single #
loop $-1 $-1 $141 $55 #
plane-surface $-1 -55.413068025757617 24.617687917742806 9.4465692132938273 -0.52991927123019833 0 0.84804809178421925 0.84804809178421925 0 0.52991927123019833 forward_v I I I I #
coedge $-1 $142 $143 $144 $145 reversed $56 $-1 #
face $-1 $-1 $146 $30 $-1 $147 forward single #
loop $-1 $148 $149 $58 #
cone-surface $-1 -50.209176398864159 22.332261967638566 7.3083765745364264 0.52991927123019833 0 -0.84804809178421925 0.63603606883816444 0 0.39743945342264875 1 I I -0.70710678118654757 0.70710678118654757 0.75 forward I I I I #
loop $-1 $-1 $150 $38 #
coedge $-1 $94 $94 $151 $152 reversed $59 $-1 #
face $-1 $-1 $153 $31 $-1 $154 forward single #
loop $-1 $155 $156 $61 #
cone-surface $-1 -50.209176398864159 26.903113867847054 7.3083765745364264 0.52991927123019833 0 -0.84804809178421925 0.63603606883816444 0 0.39743945342264875 1 I I -0.70710678118654757 0.70710678118654757 0.75 forward I I I I #
loop $-1 $-1 $157 $39 #
coedge $-1 $99 $99 $158 $159 reversed $62 $-1 #
face $-1 $160 $161 $24 $-1 $162 reversed single #
loop $-1 $-1 $163 $64 #
plane-surface $-1 0 -32.369301771923546 0 0 1 0 0 0 1 forward_v I I I I #
coedge $-1 $164 $165 $166 $167 forward $65 $-1 #
coedge $-1 $168 $67 $169 $170 forward $41 $-1 #
coedge $-1 $67 $168 $171 $172 forward $41 $-1 #
coedge $-1 $173 $174 $67 $107 reversed $175 $-1 #
edge $-1 $176 -32.369301771923546 $177 32.369301771923546 $106 $178 forward 7 unknown #
face $-1 $179 $180 $25 $-1 $181 reversed single #
loop $-1 $-1 $182 $68 #
plane-surface $-1 0 0 12.922925351413687 0 0 1 1 0 0 forward_v I I I I #
coedge $-1 $183 $184 $185 $186 reversed $69 $-1 #
coedge $-1 $187 $71 $188 $189 reversed $44 $-1 #
coedge $-1 $71 $187 $190 $191 reversed $44 $-1 #
coedge $-1 $184 $183 $71 $115 reversed $69 $-1 #
edge $-1 $192 -12.922925351413687 $193 12.922925351413687 $114 $194 forward 7 unknown #
face $-1 $195 $196 $26 $-1 $197 reversed single #
loop $-1 $-1 $198 $72 #
plane-surface $-1 20.156080077129616 19.285027367499573 162.16136766127738 0 1 0 0.52991927123019833 0 0.84804809178421925 forward_v I I I I #
coedge $-1 $199 $200 $201 $202 reversed $73 $-1 #
coedge $-1 $121 $75 $203 $204 reversed $47 $-1 #
coedge $-1 $75 $120 $199 $205 reversed $47 $-1 #
coedge $-1 $201 $206 $75 $123 forward $207 $-1 #
edge $-1 $208 -45.335027987192817 $209 -39.771695326255802 $122 $210 forward 7 unknown #
loop $-1 $-1 $129 $76 #
plane-surface $-1 -38.572825172548157 24.617687917742806 68.175474462971607 0.52991927123019833 0 0.84804809178421925 0.84804809178421925 0 -0.52991927123019833 forward_v I I I I #
loop $-1 $-1 $211 $49 #
coedge $-1 $127 $127 $128 $212 reversed $77 $-1 #
coedge $-1 $128 $128 $127 $212 forward $79 $-1 #
coedge $-1 $129 $129 $80 $130 forward $124 $-1 #
edge $-1 $213 0 $213 6.2831853071796004 $129 $214 forward 7 unknown #
loop $-1 $-1 $136 $81 #
plane-surface $-1 -38.572825172548157 24.617687917742806 68.175474462971607 0.52991927123019833 0 0.84804809178421925 0.84804809178421925 0 -0.52991927123019833 forward_v I I I I #
loop $-1 $-1 $215 $52 #
coedge $-1 $134 $134 $135 $216 reversed $82 $-1 #
coedge $-1 $135 $135 $134 $216 forward $84 $-1 #
coedge $-1 $136 $136 $85 $137 forward $131 $-1 #
edge $-1 $217 0 $217 6.2831853071796004 $136 $218 forward 7 unknown #
face $-1 $219 $220 $29 $-1 $221 reversed single #
loop $-1 $-1 $222 $86 #
plane-surface $-1 -114.14197327543539 29.950348467986039 103.4324624115996 0 -1 0 0.52991927123019833 0 -0.84804809178421925 forward_v I I I I #
coedge $-1 $223 $224 $225 $226 reversed $87 $-1 #
coedge $-1 $143 $89 $227 $228 reversed $56 $-1 #
coedge $-1 $89 $142 $223 $229 reversed $56 $-1 #
coedge $-1 $225 $230 $89 $145 forward $231 $-1 #
edge $-1 $232 1.6579186119600706 $233 7.2212512728970921 $144 $234 forward 7 unknown #
loop $-1 $-1 $151 $90 #
plane-surface $-1 -55.413068025757617 24.617687917742806 9.4465692132938273 -0.52991927123019833 0 0.84804809178421925 0.84804809178421925 0 0.52991927123019833 forward_v I I I I #
loop $-1 $-1 $235 $58 #
coedge $-1 $149 $149 $150 $236 reversed $91 $-1 #
coedge $-1 $150 $150 $149 $236 forward $93 $-1 #
coedge $-1 $151 $151 $94 $152 forward $146 $-1 #
edge $-1 $237 0 $237 6.2831853071796004 $151 $238 forward 7 unknown #
loop $-1 $-1 $158 $95 #
plane-surface $-1 -55.413068025757617 24.617687917742806 9.4465692132938273 -0.52991927123019833 0 0.84804809178421925 0.84804809178421925 0 0.52991927123019833 forward_v I I I I #
loop $-1 $-1 $239 $61 #
coedge $-1 $156 $156 $157 $240 reversed $96 $-1 #
coedge $-1 $157 $157 $156 $240 forward $98 $-1 #
coedge $-1 $158 $158 $99 $159 forward $153 $-1 #
edge $-1 $241 0 $241 6.2831853071796004 $158 $242 forward 7 unknown #
face $-1 $243 $244 $24 $-1 $245 reversed single #
loop $-1 $-1 $246 $100 #
plane-surface $-1 -55.413068025757624 0 0 1 0 0 0 0 -1 forward_v I I I I #
coedge $-1 $247 $171 $248 $249 forward $101 $-1 #
coedge $-1 $250 $103 $247 $251 forward $65 $-1 #
coedge $-1 $103 $250 $252 $253 forward $65 $-1 #
coedge $-1 $174 $173 $103 $167 reversed $175 $-1 #
edge $-1 $254 -32.369301771923546 $255 32.369301771923546 $166 $256 forward 7 unknown #
coedge $-1 $105 $104 $257 $258 forward $41 $-1 #
coedge $-1 $259 $260 $104 $170 reversed $244 $-1 #
edge $-1 $177 -55.413068025757624 $261 55.413068025757624 $169 $262 forward 7 unknown #
coedge $-1 $163 $263 $105 $172 reversed $101 $-1 #
edge $-1 $264 -55.413068025757624 $176 55.413068025757624 $171 $265 forward 7 unknown #
coedge $-1 $166 $106 $263 $266 forward $175 $-1 #
coedge $-1 $106 $166 $259 $267 reversed $175 $-1 #
loop $-1 $-1 $173 $243 #
vertex $-1 $107 $268 #
vertex $-1 $107 $269 #
straight-curve $-1 55.413068025757624 0 12.922925351413687 0 1 0 I I #
face $-1 $270 $271 $25 $-1 $272 reversed single #
loop $-1 $-1 $273 $108 #
plane-surface $-1 -55.413068025757624 0 0 1 0 0 0 0 -1 forward_v I I I I #
coedge $-1 $190 $274 $184 $275 forward $109 $-1 #
coedge $-1 $114 $111 $276 $277 reversed $69 $-1 #
coedge $-1 $111 $114 $182 $275 reversed $69 $-1 #
coedge $-1 $278 $279 $111 $186 forward $280 $-1 #
edge $-1 $281 -12.922925351413687 $282 12.922925351413687 $185 $283 forward 7 unknown #
coedge $-1 $113 $112 $273 $284 reversed $44 $-1 #
coedge $-1 $276 $285 $112 $189 forward $271 $-1 #
edge $-1 $286 -29.380417063592564 $193 -22.684884860737558 $188 $287 forward 7 unknown #
coedge $-1 $288 $182 $113 $191 forward $109 $-1 #
edge $-1 $192 22.684884860737558 $289 29.380417063592564 $190 $290 forward 7 unknown #
vertex $-1 $191 $291 #
vertex $-1 $189 $292 #
straight-curve $-1 -48.717535822902619 -20.113768392254883 0 0 0 -1 I I #
face $-1 $-1 $207 $26 $-1 $293 forward single #
loop $-1 $-1 $294 $116 #
plane-surface $-1 55.413068025757624 0 0 -1 0 0 0 0 1 forward_v I I I I #
coedge $-1 $295 $296 $297 $298 reversed $117 $-1 #
coedge $-1 $299 $119 $121 $205 forward $73 $-1 #
coedge $-1 $119 $299 $295 $300 forward $73 $-1 #
coedge $-1 $297 $122 $119 $202 forward $207 $-1 #
edge $-1 $209 -17.641504509114636 $301 -6.9761834086281702 $201 $302 forward 7 unknown #
coedge $-1 $303 $304 $120 $204 forward $196 $-1 #
edge $-1 $305 -71.634114617344864 $208 -68.157758479225009 $203 $306 forward 7 unknown #
edge $-1 $209 104.2659742931977 $305 110.82613605151525 $121 $307 forward 7 unknown #
coedge $-1 $122 $297 $303 $308 forward $207 $-1 #
loop $-1 $-1 $297 $195 #
vertex $-1 $204 $309 #
vertex $-1 $123 $310 #
straight-curve $-1 10.078040038564808 29.950348467986039 12.922925351413681 -1 0 0 I I #
coedge $-1 $211 $211 $-1 $311 reversed $126 $-1 #
edge $-1 $312 0 $312 6.2831853071796004 $127 $313 forward 7 unknown #
vertex $-1 $130 $314 #
ellipse-curve $-1 52.631401695289114 22.332261967638566 11.184747282353761 0.52991927123019833 0 0.84804809178421925 1.2720721376763289 0 -0.79487890684529749 1 I I #
coedge $-1 $215 $215 $-1 $315 reversed $133 $-1 #
edge $-1 $316 0 $316 6.2831853071796004 $134 $317 forward 7 unknown #
vertex $-1 $137 $318 #
ellipse-curve $-1 52.631401695289114 26.903113867847054 11.184747282353761 0.52991927123019833 0 0.84804809178421925 1.2720721376763289 0 -0.79487890684529749 1 I I #
face $-1 $-1 $231 $29 $-1 $319 forward single #
loop $-1 $-1 $320 $138 #
plane-surface $-1 -55.413068025757624 0 0 1 0 0 0 0 -1 forward_v I I I I #
coedge $-1 $321 $322 $323 $324 reversed $139 $-1 #
coedge $-1 $325 $141 $143 $229 forward $87 $-1 #
coedge $-1 $141 $325 $321 $326 forward $87 $-1 #
coedge $-1 $323 $144 $141 $226 forward $231 $-1 #
edge $-1 $233 6.9761834086281702 $327 17.641504509114636 $225 $328 forward 7 unknown #
coedge $-1 $329 $330 $142 $228 forward $220 $-1 #
edge $-1 $331 -42.269661992505974 $232 -38.793305854386112 $227 $332 forward 7 unknown #
edge $-1 $233 -6.5601617583175607 $331 7.9083955554844352e-015 $143 $333 forward 7 unknown #
coedge $-1 $144 $323 $329 $334 forward $231 $-1 #
loop $-1 $-1 $323 $219 #
vertex $-1 $228 $335 #
vertex $-1 $145 $336 #
straight-curve $-1 -57.070986637717695 19.285027367499573 12.922925351413689 1 0 0 I I #
coedge $-1 $235 $235 $-1 $337 reversed $148 $-1 #
edge $-1 $338 0 $338 6.2831853071796004 $149 $339 forward 7 unknown #
vertex $-1 $152 $340 #
ellipse-curve $-1 -52.631401695289114 22.332261967638566 11.184747282353754 -0.52991927123019833 0 0.84804809178421925 1.2720721376763289 0 0.79487890684529749 1 I I #
coedge $-1 $239 $239 $-1 $341 reversed $155 $-1 #
edge $-1 $342 0 $342 6.2831853071796004 $156 $343 forward 7 unknown #
vertex $-1 $159 $344 #
ellipse-curve $-1 -52.631401695289114 26.903113867847054 11.184747282353754 -0.52991927123019833 0 0.84804809178421925 1.2720721376763289 0 0.79487890684529749 1 I I #
face $-1 $-1 $175 $24 $-1 $345 reversed single #
loop $-1 $-1 $259 $160 #
plane-surface $-1 0 32.369301771923546 0 0 -1 0 0 0 -1 forward_v I I I I #
coedge $-1 $346 $257 $260 $347 forward $161 $-1 #
coedge $-1 $263 $163 $164 $251 reversed $101 $-1 #
coedge $-1 $257 $346 $163 $249 reversed $161 $-1 #
edge $-1 $264 -12.922925351413687 $348 12.922925351413687 $248 $349 forward 7 unknown #
coedge $-1 $165 $164 $346 $350 forward $65 $-1 #
edge $-1 $255 -55.413068025757624 $348 55.413068025757624 $247 $351 forward 7 unknown #
coedge $-1 $260 $259 $165 $253 reversed $244 $-1 #
edge $-1 $352 -55.413068025757624 $254 55.413068025757624 $252 $353 forward 7 unknown #
vertex $-1 $167 $354 #
vertex $-1 $266 $355 #
straight-curve $-1 55.413068025757624 0 -12.922925351413687 0 -1 0 I I #
coedge $-1 $246 $248 $168 $258 reversed $161 $-1 #
edge $-1 $261 -32.369301771923546 $264 32.369301771923546 $257 $356 forward 7 unknown #
coedge $-1 $252 $169 $174 $267 forward $244 $-1 #
coedge $-1 $169 $252 $246 $347 reversed $244 $-1 #
vertex $-1 $170 $357 #
straight-curve $-1 0 32.369301771923546 12.922925351413687 -1 0 0 I I #
coedge $-1 $171 $247 $173 $266 reversed $101 $-1 #
vertex $-1 $258 $358 #
straight-curve $-1 0 -32.369301771923546 12.922925351413687 1 0 0 I I #
edge $-1 $176 -12.922925351413687 $255 12.922925351413687 $173 $359 forward 7 unknown #
edge $-1 $177 -12.922925351413687 $254 12.922925351413687 $174 $360 forward 7 unknown #
point $-1 55.413068025757624 -32.369301771923546 12.922925351413687 #
point $-1 55.413068025757624 32.369301771923546 12.922925351413687 #
face $-1 $-1 $280 $25 $-1 $361 reversed single #
loop $-1 $-1 $276 $179 #
plane-surface $-1 0 0 -12.922925351413687 0 0 1 1 0 0 forward_v I I I I #
coedge $-1 $362 $363 $187 $284 forward $180 $-1 #
coedge $-1 $182 $288 $278 $364 forward $109 $-1 #
edge $-1 $282 -19.248534230878938 $192 -6.9930008512102759 $182 $365 forward 7 unknown #
coedge $-1 $366 $188 $183 $277 forward $271 $-1 #
edge $-1 $193 6.9930008512102759 $281 19.248534230878938 $276 $367 forward 7 unknown #
coedge $-1 $368 $185 $274 $364 reversed $280 $-1 #
coedge $-1 $185 $368 $366 $369 reversed $280 $-1 #
loop $-1 $-1 $185 $270 #
vertex $-1 $369 $370 #
vertex $-1 $186 $371 #
straight-curve $-1 -48.717535822902619 -32.369301771923546 0 0 0 1 I I #
edge $-1 $289 -12.922925351413687 $286 12.922925351413687 $273 $372 forward 7 unknown #
coedge $-1 $188 $366 $362 $373 forward $271 $-1 #
vertex $-1 $189 $374 #
straight-curve $-1 -26.032650962165061 -20.113768392254883 -12.922925351413687 1 0 0 I I #
coedge $-1 $274 $190 $363 $375 forward $109 $-1 #
vertex $-1 $375 $376 #
straight-curve $-1 -26.032650962165061 -20.113768392254883 12.922925351413687 -1 0 0 I I #
point $-1 -48.717535822902619 -20.113768392254883 12.922925351413687 #
point $-1 -48.717535822902619 -20.113768392254883 -12.922925351413687 #
plane-surface $-1 0 0 12.922925351413687 0 0 1 1 0 0 forward_v I I I I #
coedge $-1 $304 $303 $296 $377 forward $196 $-1 #
coedge $-1 $296 $198 $200 $300 reversed $117 $-1 #
coedge $-1 $198 $295 $294 $377 reversed $117 $-1 #
coedge $-1 $206 $201 $198 $298 forward $207 $-1 #
edge $-1 $301 39.771695326255802 $378 45.335027987192817 $297 $379 forward 7 unknown #
coedge $-1 $200 $199 $304 $380 reversed $73 $-1 #
edge $-1 $381 -110.82613605151525 $301 -104.2659742931977 $295 $382 forward 7 unknown #
vertex $-1 $202 $383 #
straight-curve $-1 49.849735364820617 12.308843958871403 12.922925351413681 0 -1 0 I I #
coedge $-1 $294 $203 $206 $308 reversed $196 $-1 #
coedge $-1 $203 $294 $299 $380 forward $196 $-1 #
vertex $-1 $204 $384 #
straight-curve $-1 55.413068025757624 29.950348467986039 81.080683830638691 0 0 1 I I #
straight-curve $-1 -38.572825172548157 29.950348467986039 68.175474462971607 0.84804809178421925 0 -0.52991927123019833 I I #
edge $-1 $378 19.285027367499573 $208 29.950348467986039 $303 $385 forward 7 unknown #
point $-1 55.413068025757624 29.950348467986039 12.922925351413687 #
point $-1 49.84973536482061 29.950348467986039 12.922925351413689 #
edge $-1 $386 1 $386 0 $211 $-1 forward 7 unknown #
vertex $-1 $212 $387 #
ellipse-curve $-1 50.606615852286808 22.332261967638566 7.9444126433745978 0.52991927123019833 0 0.84804809178421925 1.2720721376763289 0 -0.79487890684529749 1 I I #
point $-1 53.903473832965439 22.332261967638566 10.389868375508463 #
edge $-1 $388 1 $388 0 $215 $-1 forward 7 unknown #
vertex $-1 $216 $389 #
ellipse-curve $-1 50.606615852286808 26.903113867847054 7.9444126433745978 0.52991927123019833 0 0.84804809178421925 1.2720721376763289 0 -0.79487890684529749 1 I I #
point $-1 53.903473832965439 26.903113867847054 10.389868375508463 #
plane-surface $-1 0 0 12.922925351413687 0 0 1 1 0 0 forward_v I I I I #
coedge $-1 $330 $329 $322 $390 forward $220 $-1 #
coedge $-1 $322 $222 $224 $326 reversed $139 $-1 #
coedge $-1 $222 $321 $320 $390 reversed $139 $-1 #
coedge $-1 $230 $225 $222 $324 forward $231 $-1 #
edge $-1 $327 -7.2212512728970921 $391 -1.6579186119600706 $323 $392 forward 7 unknown #
coedge $-1 $224 $223 $330 $393 reversed $87 $-1 #
edge $-1 $394 -7.9083955554844352e-015 $327 6.5601617583175607 $321 $395 forward 7 unknown #
vertex $-1 $226 $396 #
straight-curve $-1 -49.849735364820603 12.308843958871403 12.922925351413687 0 1 0 I I #
coedge $-1 $320 $227 $230 $334 reversed $220 $-1 #
coedge $-1 $227 $320 $325 $393 forward $220 $-1 #
vertex $-1 $228 $397 #
straight-curve $-1 -55.413068025757624 19.285027367499573 51.716231205799801 0 0 1 I I #
straight-curve $-1 -55.413068025757617 19.285027367499573 9.4465692132938273 -0.84804809178421925 0 -0.52991927123019833 I I #
edge $-1 $391 -29.950348467986039 $232 -19.285027367499573 $329 $398 forward 7 unknown #
point $-1 -55.413068025757624 19.285027367499573 12.922925351413687 #
point $-1 -49.849735364820603 19.285027367499573 12.922925351413687 #
edge $-1 $399 1 $399 0 $235 $-1 forward 7 unknown #
vertex $-1 $236 $400 #
ellipse-curve $-1 -50.606615852286808 22.332261967638566 7.9444126433745907 -0.52991927123019833 0 0.84804809178421925 1.2720721376763289 0 0.79487890684529749 1 I I #
point $-1 -51.359329557612782 22.332261967638566 11.979626189199053 #
edge $-1 $401 1 $401 0 $239 $-1 forward 7 unknown #
vertex $-1 $240 $402 #
ellipse-curve $-1 -50.606615852286808 26.903113867847054 7.9444126433745907 -0.52991927123019833 0 0.84804809178421925 1.2720721376763289 0 0.79487890684529749 1 I I #
point $-1 -51.359329557612782 26.903113867847054 11.979626189199053 #
plane-surface $-1 55.413068025757624 0 0 -1 0 0 0 0 1 forward_v I I I I #
coedge $-1 $248 $246 $250 $350 reversed $161 $-1 #
edge $-1 $261 -12.922925351413687 $352 12.922925351413687 $260 $403 forward 7 unknown #
vertex $-1 $350 $404 #
straight-curve $-1 -55.413068025757624 -32.369301771923546 0 0 0 -1 I I #
edge $-1 $348 -32.369301771923546 $352 32.369301771923546 $346 $405 forward 7 unknown #
straight-curve $-1 0 -32.369301771923546 -12.922925351413687 -1 0 0 I I #
vertex $-1 $253 $406 #
straight-curve $-1 0 32.369301771923546 -12.922925351413687 1 0 0 I I #
point $-1 55.413068025757624 32.369301771923546 -12.922925351413687 #
point $-1 55.413068025757624 -32.369301771923546 -12.922925351413687 #
straight-curve $-1 -55.413068025757624 0 12.922925351413687 0 -1 0 I I #
point $-1 -55.413068025757624 32.369301771923546 12.922925351413687 #
point $-1 -55.413068025757624 -32.369301771923546 12.922925351413687 #
straight-curve $-1 55.413068025757624 -32.369301771923546 0 0 0 -1 I I #
straight-curve $-1 55.413068025757624 32.369301771923546 0 0 0 -1 I I #
plane-surface $-1 0 -32.369301771923546 0 0 1 0 0 0 1 forward_v I I I I #
coedge $-1 $407 $273 $285 $373 reversed $180 $-1 #
coedge $-1 $273 $407 $288 $375 reversed $180 $-1 #
edge $-1 $408 -55.413068025757624 $282 -48.717535822902619 $278 $409 forward 7 unknown #
straight-curve $-1 -48.717535822902619 -13.120767541044607 12.922925351413687 0 1 0 I I #
coedge $-1 $285 $276 $279 $369 forward $271 $-1 #
straight-curve $-1 -48.717535822902619 -13.120767541044607 -12.922925351413687 0 -1 0 I I #
coedge $-1 $279 $278 $407 $410 forward $280 $-1 #
edge $-1 $281 48.717535822902619 $411 55.413068025757624 $279 $412 forward 7 unknown #
point $-1 -48.717535822902619 -32.369301771923546 -12.922925351413687 #
point $-1 -48.717535822902619 -32.369301771923546 12.922925351413687 #
straight-curve $-1 -55.413068025757624 -20.113768392254883 0 0 0 -1 I I #
edge $-1 $411 -32.369301771923546 $286 -20.113768392254883 $362 $413 forward 7 unknown #
point $-1 -55.413068025757624 -20.113768392254883 -12.922925351413687 #
edge $-1 $289 20.113768392254883 $408 32.369301771923546 $363 $414 forward 7 unknown #
point $-1 -55.413068025757624 -20.113768392254883 12.922925351413687 #
edge $-1 $378 68.157758479225009 $381 71.634114617344864 $294 $415 forward 7 unknown #
vertex $-1 $308 $416 #
straight-curve $-1 10.078040038564808 19.285027367499573 12.922925351413681 1 0 0 I I #
edge $-1 $381 6.9761834086281702 $305 17.641504509114636 $304 $417 forward 7 unknown #
vertex $-1 $380 $418 #
straight-curve $-1 -38.572825172548157 19.285027367499573 68.175474462971607 -0.84804809178421925 0 0.52991927123019833 I I #
point $-1 49.84973536482061 19.285027367499573 12.922925351413689 #
point $-1 55.413068025757617 29.950348467986039 9.4465692132938344 #
straight-curve $-1 55.413068025757624 0 12.922925351413687 0 1 0 I I #
vertex $-1 $311 $419 #
point $-1 51.87868798996314 22.332261967638566 7.1495337365293006 #
vertex $-1 $315 $420 #
point $-1 51.87868798996314 26.903113867847054 7.1495337365293006 #
edge $-1 $391 38.793305854386112 $394 42.269661992505974 $320 $421 forward 7 unknown #
vertex $-1 $334 $422 #
straight-curve $-1 -57.070986637717695 29.950348467986039 12.922925351413689 -1 0 0 I I #
edge $-1 $394 -17.641504509114636 $331 -6.9761834086281702 $330 $423 forward 7 unknown #
vertex $-1 $393 $424 #
straight-curve $-1 -55.413068025757617 29.950348467986039 9.4465692132938273 0.84804809178421925 0 0.52991927123019833 I I #
point $-1 -49.849735364820603 29.950348467986039 12.922925351413687 #
point $-1 -55.413068025757624 19.285027367499573 9.4465692132938237 #
straight-curve $-1 -55.413068025757624 0 12.922925351413687 0 -1 0 I I #
vertex $-1 $337 $425 #
point $-1 -49.334543714610476 22.332261967638566 8.7392915502198889 #
vertex $-1 $341 $426 #
point $-1 -49.334543714610476 26.903113867847054 8.7392915502198889 #
straight-curve $-1 -55.413068025757624 32.369301771923546 0 0 0 -1 I I #
point $-1 -55.413068025757624 -32.369301771923546 -12.922925351413687 #
straight-curve $-1 -55.413068025757624 0 -12.922925351413687 0 1 0 I I #
point $-1 -55.413068025757624 32.369301771923546 -12.922925351413687 #
coedge $-1 $363 $362 $368 $410 reversed $180 $-1 #
vertex $-1 $375 $427 #
straight-curve $-1 0 -32.369301771923546 12.922925351413687 1 0 0 I I #
edge $-1 $408 -12.922925351413687 $411 12.922925351413687 $407 $428 forward 7 unknown #
vertex $-1 $373 $429 #
straight-curve $-1 0 -32.369301771923546 -12.922925351413687 -1 0 0 I I #
straight-curve $-1 -55.413068025757624 0 -12.922925351413687 0 1 0 I I #
straight-curve $-1 -55.413068025757624 0 12.922925351413687 0 -1 0 I I #
straight-curve $-1 55.413068025757624 19.285027367499573 81.080683830638691 0 0 -1 I I #
point $-1 55.413068025757624 19.285027367499573 12.922925351413687 #
straight-curve $-1 55.413068025757632 12.308843958871403 9.4465692132938344 0 1 0 I I #
point $-1 55.413068025757617 19.285027367499573 9.4465692132938344 #
point $-1 49.81173694544151 22.332261967638566 6.6723405056982692 #
point $-1 49.81173694544151 26.903113867847054 6.6723405056982692 #
straight-curve $-1 -55.413068025757624 29.950348467986039 51.716231205799801 0 0 -1 I I #
point $-1 -55.413068025757624 29.950348467986039 12.922925351413687 #
straight-curve $-1 -55.413068025757624 12.308843958871403 9.4465692132938273 0 -1 0 I I #
point $-1 -55.413068025757624 29.950348467986039 9.4465692132938237 #
point $-1 -49.81173694544151 22.332261967638566 6.6723405056982621 #
point $-1 -49.81173694544151 26.903113867847054 6.6723405056982621 #
point $-1 -55.413068025757624 -32.369301771923546 12.922925351413687 #
straight-curve $-1 -55.413068025757624 -32.369301771923546 0 0 0 -1 I I #
point $-1 -55.413068025757624 -32.369301771923546 -12.922925351413687 #
End-of-ACIS-data 