500 0 6 0           
7 Unknown 11 ACIS 5.0 NT 24 Thu Mar 25 16:33:28 1999 
-1 9.9999999999999995e-007 1e-010 
body $-1 $6 $-1 $7 #
body $-1 $8 $-1 $9 #
body $-1 $10 $-1 $11 #
body $-1 $12 $-1 $13 #
body $-1 $14 $-1 $15 #
body $-1 $16 $-1 $17 #
lump $-1 $-1 $18 $0 #
transform $-1 1 0 0 0 1 0 0 0 1 74.070863979003263 39.097489612160004 19.495766854519594 1 rotate no_reflect no_shear #
lump $-1 $-1 $19 $1 #
transform $-1 1 0 0 0 1 0 0 0 1 74.070863979003263 39.097489612160004 19.495766854519594 1 rotate no_reflect no_shear #
lump $-1 $-1 $20 $2 #
transform $-1 1 0 0 0 1 0 0 0 1 74.070863979003263 39.097489612160004 19.495766854519594 1 rotate no_reflect no_shear #
lump $-1 $-1 $21 $3 #
transform $-1 1 0 0 0 1 0 0 0 1 74.070863979003263 39.097489612160004 19.495766854519594 1 rotate no_reflect no_shear #
lump $-1 $-1 $22 $4 #
transform $-1 1 0 0 0 1 0 0 0 1 74.070863979003263 39.097489612160004 19.495766854519594 1 rotate no_reflect no_shear #
lump $-1 $-1 $23 $5 #
transform $-1 1 0 0 0 1 0 0 0 1 74.070863979003263 39.097489612160004 19.495766854519594 1 rotate no_reflect no_shear #
shell $-1 $-1 $-1 $24 $-1 $6 #
shell $-1 $-1 $-1 $25 $-1 $8 #
shell $-1 $-1 $-1 $26 $-1 $10 #
shell $-1 $-1 $-1 $27 $-1 $12 #
shell $-1 $-1 $-1 $28 $-1 $14 #
shell $-1 $-1 $-1 $29 $-1 $16 #
face $-1 $30 $31 $18 $-1 $32 forward single #
face $-1 $33 $34 $19 $-1 $35 reversed single #
face $-1 $36 $37 $20 $-1 $38 reversed single #
face $-1 $39 $40 $21 $-1 $41 reversed single #
face $-1 $42 $43 $22 $-1 $44 forward single #
face $-1 $45 $46 $23 $-1 $47 forward single #
face $-1 $48 $49 $18 $-1 $50 reversed single #
loop $-1 $-1 $51 $24 #
plane-surface $-1 0 0 19.495766854519594 0 0 1 1 0 0 forward_v I I I I #
face $-1 $52 $53 $19 $-1 $54 reversed single #
loop $-1 $-1 $55 $25 #
plane-surface $-1 -65.274457509681085 0 14.048946967243218 0 0 1 1 0 0 forward_v I I I I #
face $-1 $56 $57 $20 $-1 $58 reversed single #
loop $-1 $-1 $59 $26 #
plane-surface $-1 65.274457509681099 0 14.048946967243218 0 0 1 1 0 0 forward_v I I I I #
face $-1 $60 $61 $21 $-1 $62 reversed single #
loop $-1 $-1 $63 $27 #
plane-surface $-1 -30.988725975658589 -164.72880114223818 89.170755142577036 -1 0 0 0 -0.84804810408105047 0.52991925155115449 forward_v I I I I #
face $-1 $64 $65 $22 $-1 $66 forward single #
loop $-1 $67 $68 $28 #
cone-surface $-1 -49.195386736158824 -34.092313829618433 13.67763348806692 0 0.84804810408105047 -0.52991925155115449 2 0 0 1 I I 0 1 2 forward I I I I #
face $-1 $69 $70 $23 $-1 $71 forward single #
loop $-1 $72 $73 $29 #
cone-surface $-1 -38.271390279858679 -34.092313829618433 13.67763348806692 0 0.84804810408105047 -0.52991925155115449 2 0 0 1 I I 0 1 2 forward I I I I #
face $-1 $74 $75 $18 $-1 $76 reversed single #
loop $-1 $-1 $77 $30 #
plane-surface $-1 0 0 -19.495766854519594 0 0 1 1 0 0 forward_v I I I I #
coedge $-1 $78 $79 $80 $81 forward $31 $-1 #
face $-1 $82 $83 $19 $-1 $84 reversed single #
loop $-1 $-1 $85 $33 #
plane-surface $-1 -56.478051040358906 0 16.772356910881406 -1 0 0 0 0 1 forward_v I I I I #
coedge $-1 $86 $87 $85 $88 forward $34 $-1 #
face $-1 $89 $90 $20 $-1 $91 forward single #
loop $-1 $-1 $92 $36 #
plane-surface $-1 56.47805104035892 0 16.772356910881406 1 0 0 0 0 -1 forward_v I I I I #
coedge $-1 $93 $94 $95 $96 reversed $37 $-1 #
face $-1 $97 $98 $21 $-1 $99 forward single #
loop $-1 $-1 $100 $39 #
plane-surface $-1 -43.733388508008751 -39.097489612160004 10.667601539575486 0 -0.84804810408105047 0.52991925155115449 1 0 0 forward_v I I I I #
coedge $-1 $101 $102 $103 $104 reversed $40 $-1 #
face $-1 $-1 $105 $22 $-1 $106 forward single #
loop $-1 $107 $108 $42 #
cone-surface $-1 -49.195386736158824 -30.997314820660264 11.743663527535141 0 0.84804810408105047 -0.52991925155115449 1 0 0 1 I I -0.70710678118654746 0.70710678118654746 1 forward I I I I #
loop $-1 $-1 $109 $28 #
coedge $-1 $68 $68 $110 $111 reversed $43 $-1 #
face $-1 $-1 $112 $23 $-1 $113 forward single #
loop $-1 $114 $115 $45 #
cone-surface $-1 -38.271390279858679 -30.997314820660264 11.743663527535141 0 0.84804810408105047 -0.52991925155115449 1 0 0 1 I I -0.70710678118654746 0.70710678118654746 1 forward I I I I #
loop $-1 $-1 $116 $29 #
coedge $-1 $73 $73 $117 $118 reversed $46 $-1 #
face $-1 $119 $120 $18 $-1 $121 reversed single #
loop $-1 $-1 $122 $48 #
plane-surface $-1 0 -39.097489612160004 0 0 1 0 0 0 1 forward_v I I I I #
coedge $-1 $123 $124 $125 $126 forward $49 $-1 #
coedge $-1 $127 $51 $128 $129 forward $31 $-1 #
coedge $-1 $51 $127 $130 $131 forward $31 $-1 #
coedge $-1 $132 $133 $51 $81 reversed $134 $-1 #
edge $-1 $135 -39.097489612160004 $136 39.097489612160004 $80 $137 forward 7 unknown #
face $-1 $138 $139 $19 $-1 $140 reversed single #
loop $-1 $-1 $141 $52 #
plane-surface $-1 0 39.097489612160004 0 0 -1 0 0 0 -1 forward_v I I I I #
coedge $-1 $142 $143 $55 $88 reversed $53 $-1 #
coedge $-1 $144 $55 $145 $146 reversed $34 $-1 #
coedge $-1 $55 $144 $147 $148 reversed $34 $-1 #
edge $-1 $149 -39.097489612160004 $150 39.097489612160004 $85 $151 forward 7 unknown #
face $-1 $152 $153 $20 $-1 $154 reversed single #
loop $-1 $-1 $155 $56 #
plane-surface $-1 0 0 19.495766854519594 0 0 1 1 0 0 forward_v I I I I #
coedge $-1 $156 $157 $158 $159 reversed $57 $-1 #
coedge $-1 $160 $59 $161 $162 reversed $37 $-1 #
coedge $-1 $59 $160 $163 $164 reversed $37 $-1 #
coedge $-1 $165 $166 $59 $96 forward $167 $-1 #
edge $-1 $168 -39.097489612160004 $169 39.097489612160004 $95 $170 forward 7 unknown #
face $-1 $171 $172 $21 $-1 $173 forward single #
loop $-1 $-1 $103 $60 #
plane-surface $-1 0 0 19.495766854519594 0 0 1 1 0 0 forward_v I I I I #
coedge $-1 $174 $175 $176 $177 reversed $61 $-1 #
coedge $-1 $102 $63 $178 $179 reversed $40 $-1 #
coedge $-1 $63 $101 $174 $180 reversed $40 $-1 #
coedge $-1 $176 $181 $63 $104 forward $98 $-1 #
edge $-1 $182 43.266910958959087 $183 48.78336071428798 $103 $184 forward 7 unknown #
loop $-1 $-1 $110 $64 #
plane-surface $-1 -43.733388508008751 -39.097489612160004 10.667601539575486 0 -0.84804810408105047 0.52991925155115449 1 0 0 forward_v I I I I #
loop $-1 $-1 $185 $42 #
coedge $-1 $108 $108 $109 $186 reversed $65 $-1 #
coedge $-1 $109 $109 $108 $186 forward $67 $-1 #
coedge $-1 $110 $110 $68 $111 forward $105 $-1 #
edge $-1 $187 -1.8826513736455101e-015 $187 6.2831853071795987 $110 $188 forward 7 unknown #
loop $-1 $-1 $117 $69 #
plane-surface $-1 -43.733388508008751 -39.097489612160004 10.667601539575486 0 -0.84804810408105047 0.52991925155115449 1 0 0 forward_v I I I I #
loop $-1 $-1 $189 $45 #
coedge $-1 $115 $115 $116 $190 reversed $70 $-1 #
coedge $-1 $116 $116 $115 $190 forward $72 $-1 #
coedge $-1 $117 $117 $73 $118 forward $112 $-1 #
edge $-1 $191 -1.8826513736455101e-015 $191 6.2831853071795987 $117 $192 forward 7 unknown #
face $-1 $193 $194 $18 $-1 $195 reversed single #
loop $-1 $-1 $196 $74 #
plane-surface $-1 -74.070863979003263 0 0 1 0 0 0 0 -1 forward_v I I I I #
coedge $-1 $197 $130 $198 $199 forward $75 $-1 #
coedge $-1 $200 $77 $197 $201 forward $49 $-1 #
coedge $-1 $77 $200 $202 $203 forward $49 $-1 #
coedge $-1 $133 $132 $77 $126 reversed $134 $-1 #
edge $-1 $204 -39.097489612160004 $205 39.097489612160004 $125 $206 forward 7 unknown #
coedge $-1 $79 $78 $207 $208 forward $31 $-1 #
coedge $-1 $209 $210 $78 $129 reversed $194 $-1 #
edge $-1 $136 -74.070863979003263 $211 74.070863979003263 $128 $212 forward 7 unknown #
coedge $-1 $122 $213 $79 $131 reversed $75 $-1 #
edge $-1 $214 -74.070863979003263 $135 74.070863979003263 $130 $215 forward 7 unknown #
coedge $-1 $125 $80 $213 $216 forward $134 $-1 #
coedge $-1 $80 $125 $209 $217 reversed $134 $-1 #
loop $-1 $-1 $132 $193 #
vertex $-1 $81 $218 #
vertex $-1 $81 $219 #
straight-curve $-1 74.070863979003263 0 19.495766854519594 0 1 0 I I #
face $-1 $220 $221 $19 $-1 $222 forward single #
loop $-1 $-1 $223 $82 #
plane-surface $-1 -74.070863979003263 0 0 1 0 0 0 0 -1 forward_v I I I I #
coedge $-1 $147 $224 $142 $225 forward $83 $-1 #
coedge $-1 $226 $85 $141 $225 reversed $53 $-1 #
coedge $-1 $85 $226 $227 $228 reversed $53 $-1 #
coedge $-1 $87 $86 $223 $229 reversed $34 $-1 #
coedge $-1 $227 $230 $86 $146 forward $231 $-1 #
edge $-1 $232 -41.433635224162721 $150 -23.840822285518364 $145 $233 forward 7 unknown #
coedge $-1 $234 $141 $87 $148 forward $83 $-1 #
edge $-1 $149 23.840822285518364 $235 41.433635224162721 $147 $236 forward 7 unknown #
vertex $-1 $148 $237 #
vertex $-1 $146 $238 #
straight-curve $-1 -56.478051040358906 0 14.048946967243218 0 -1 0 I I #
face $-1 $239 $240 $20 $-1 $241 reversed single #
loop $-1 $-1 $242 $89 #
plane-surface $-1 0 -39.097489612160004 0 0 1 0 0 0 1 forward_v I I I I #
coedge $-1 $243 $244 $157 $245 forward $90 $-1 #
coedge $-1 $246 $92 $160 $247 reversed $57 $-1 #
coedge $-1 $92 $246 $155 $245 reversed $57 $-1 #
coedge $-1 $248 $163 $92 $159 forward $240 $-1 #
edge $-1 $249 5.6627685118025148 $250 11.109588399078891 $158 $251 forward 7 unknown #
coedge $-1 $94 $93 $156 $247 forward $37 $-1 #
coedge $-1 $252 $242 $93 $162 forward $153 $-1 #
edge $-1 $253 23.840822285518371 $168 41.433635224162728 $161 $254 forward 7 unknown #
coedge $-1 $158 $255 $94 $164 forward $240 $-1 #
edge $-1 $169 -41.433635224162728 $249 -23.840822285518371 $163 $256 forward 7 unknown #
coedge $-1 $257 $95 $255 $258 reversed $167 $-1 #
coedge $-1 $95 $257 $252 $259 forward $167 $-1 #
loop $-1 $-1 $95 $239 #
vertex $-1 $162 $260 #
vertex $-1 $96 $261 #
straight-curve $-1 74.070863979003263 0 14.048946967243218 0 1 0 I I #
face $-1 $-1 $262 $21 $-1 $263 reversed single #
loop $-1 $-1 $264 $97 #
plane-surface $-1 -56.478051040358906 0 16.772356910881406 -1 0 0 0 0 1 forward_v I I I I #
coedge $-1 $265 $100 $102 $180 forward $61 $-1 #
coedge $-1 $100 $265 $264 $266 forward $61 $-1 #
coedge $-1 $267 $103 $100 $177 forward $98 $-1 #
edge $-1 $183 9.1220317216542135 $268 34.611356786354534 $176 $269 forward 7 unknown #
coedge $-1 $270 $271 $101 $179 forward $262 $-1 #
edge $-1 $272 -33.917776031713032 $182 -25.089610716768924 $178 $273 forward 7 unknown #
edge $-1 $183 -10.409981783415876 $272 0 $102 $274 forward 7 unknown #
coedge $-1 $103 $267 $270 $275 forward $98 $-1 #
vertex $-1 $179 $276 #
vertex $-1 $104 $277 #
straight-curve $-1 -30.988725975658589 -82.364400571119091 19.495766854519594 0 1 0 I I #
coedge $-1 $185 $185 $-1 $278 reversed $107 $-1 #
edge $-1 $279 0 $279 6.2831853071796004 $108 $280 forward 7 unknown #
vertex $-1 $111 $281 #
ellipse-curve $-1 -49.195386736158824 -36.339264734495551 15.081684197047544 0 -0.84804810408105047 0.52991925155115449 2 0 0 1 I I #
coedge $-1 $189 $189 $-1 $282 reversed $114 $-1 #
edge $-1 $283 0 $283 6.2831853071796004 $115 $284 forward 7 unknown #
vertex $-1 $118 $285 #
ellipse-curve $-1 -38.271390279858679 -36.339264734495551 15.081684197047544 0 -0.84804810408105047 0.52991925155115449 2 0 0 1 I I #
face $-1 $-1 $134 $18 $-1 $286 reversed single #
loop $-1 $-1 $209 $119 #
plane-surface $-1 0 39.097489612160004 0 0 -1 0 0 0 -1 forward_v I I I I #
coedge $-1 $287 $207 $210 $288 forward $120 $-1 #
coedge $-1 $213 $122 $123 $201 reversed $75 $-1 #
coedge $-1 $207 $287 $122 $199 reversed $120 $-1 #
edge $-1 $214 -19.495766854519594 $289 19.495766854519594 $198 $290 forward 7 unknown #
coedge $-1 $124 $123 $287 $291 forward $49 $-1 #
edge $-1 $205 -74.070863979003263 $289 74.070863979003263 $197 $292 forward 7 unknown #
coedge $-1 $210 $209 $124 $203 reversed $194 $-1 #
edge $-1 $293 -74.070863979003263 $204 74.070863979003263 $202 $294 forward 7 unknown #
vertex $-1 $126 $295 #
vertex $-1 $216 $296 #
straight-curve $-1 74.070863979003263 0 -19.495766854519594 0 -1 0 I I #
coedge $-1 $196 $198 $127 $208 reversed $120 $-1 #
edge $-1 $211 -39.097489612160004 $214 39.097489612160004 $207 $297 forward 7 unknown #
coedge $-1 $202 $128 $133 $217 forward $194 $-1 #
coedge $-1 $128 $202 $196 $288 reversed $194 $-1 #
vertex $-1 $129 $298 #
straight-curve $-1 0 39.097489612160004 19.495766854519594 -1 0 0 I I #
coedge $-1 $130 $197 $132 $216 reversed $75 $-1 #
vertex $-1 $208 $299 #
straight-curve $-1 0 -39.097489612160004 19.495766854519594 1 0 0 I I #
edge $-1 $135 -19.495766854519594 $205 19.495766854519594 $132 $300 forward 7 unknown #
edge $-1 $136 -19.495766854519594 $204 19.495766854519594 $133 $301 forward 7 unknown #
point $-1 74.070863979003263 -39.097489612160004 19.495766854519594 #
point $-1 74.070863979003263 39.097489612160004 19.495766854519594 #
face $-1 $-1 $231 $19 $-1 $302 reversed single #
loop $-1 $-1 $303 $138 #
plane-surface $-1 0 0 19.495766854519594 0 0 1 1 0 0 forward_v I I I I #
coedge $-1 $304 $305 $144 $229 forward $139 $-1 #
coedge $-1 $141 $234 $306 $307 reversed $83 $-1 #
edge $-1 $308 -11.109588399078891 $149 -5.6627685118025148 $141 $309 forward 7 unknown #
coedge $-1 $143 $142 $303 $310 reversed $53 $-1 #
coedge $-1 $311 $145 $143 $228 forward $231 $-1 #
edge $-1 $150 5.6627685118025148 $312 11.109588399078891 $227 $313 forward 7 unknown #
edge $-1 $235 -39.097489612160004 $232 39.097489612160004 $223 $314 forward 7 unknown #
coedge $-1 $145 $311 $304 $315 forward $231 $-1 #
loop $-1 $-1 $227 $220 #
vertex $-1 $229 $316 #
straight-curve $-1 -32.637228754840542 -39.097489612160004 14.048946967243218 1 0 0 I I #
coedge $-1 $224 $147 $305 $317 reversed $83 $-1 #
vertex $-1 $229 $318 #
straight-curve $-1 -32.637228754840542 39.097489612160004 14.048946967243218 -1 0 0 I I #
point $-1 -56.478051040358906 39.097489612160004 14.048946967243218 #
point $-1 -56.478051040358906 -39.097489612160004 14.048946967243218 #
face $-1 $-1 $167 $20 $-1 $319 reversed single #
loop $-1 $-1 $158 $152 #
plane-surface $-1 0 39.097489612160004 0 0 -1 0 0 0 -1 forward_v I I I I #
coedge $-1 $161 $320 $246 $321 forward $153 $-1 #
coedge $-1 $322 $155 $320 $323 forward $90 $-1 #
coedge $-1 $155 $322 $248 $324 forward $90 $-1 #
edge $-1 $250 -39.097489612160004 $325 39.097489612160004 $155 $326 forward 7 unknown #
coedge $-1 $157 $156 $242 $321 reversed $57 $-1 #
edge $-1 $253 -39.097489612160004 $249 39.097489612160004 $156 $327 forward 7 unknown #
coedge $-1 $255 $158 $244 $324 reversed $240 $-1 #
vertex $-1 $164 $328 #
vertex $-1 $159 $329 #
straight-curve $-1 56.47805104035892 39.097489612160004 8.3861784554407031 0 0 1 I I #
coedge $-1 $320 $161 $166 $259 reversed $153 $-1 #
vertex $-1 $162 $330 #
straight-curve $-1 32.63722875484055 -39.097489612160004 14.048946967243218 1 0 0 I I #
coedge $-1 $163 $248 $165 $258 forward $240 $-1 #
straight-curve $-1 32.63722875484055 39.097489612160004 14.048946967243218 -1 0 0 I I #
coedge $-1 $166 $165 $322 $331 reversed $167 $-1 #
edge $-1 $332 -19.495766854519594 $169 -14.048946967243218 $165 $333 forward 7 unknown #
edge $-1 $334 -19.495766854519594 $168 -14.048946967243218 $166 $335 forward 7 unknown #
point $-1 74.070863979003278 -39.097489612160004 14.048946967243218 #
point $-1 74.070863979003278 39.097489612160004 14.048946967243218 #
loop $-1 $-1 $178 $171 #
plane-surface $-1 0 -39.097489612160004 0 0 1 0 0 0 1 forward_v I I I I #
coedge $-1 $336 $337 $175 $266 reversed $172 $-1 #
coedge $-1 $175 $174 $271 $338 reversed $61 $-1 #
edge $-1 $339 0 $268 10.409981783415876 $264 $340 forward 7 unknown #
coedge $-1 $181 $176 $337 $341 forward $98 $-1 #
vertex $-1 $341 $342 #
straight-curve $-1 -21.866694254004376 -33.581039856831111 19.495766854519594 -1 0 0 I I #
coedge $-1 $343 $178 $181 $275 reversed $262 $-1 #
coedge $-1 $178 $343 $265 $338 forward $262 $-1 #
vertex $-1 $179 $344 #
straight-curve $-1 -30.988725975658589 -39.097489612160004 44.585377571288518 0 0 1 I I #
straight-curve $-1 -30.988725975658589 -39.097489612160004 10.667601539575486 0 -0.52991925155115449 -0.84804810408105047 I I #
edge $-1 $345 -56.478051040358906 $182 -30.988725975658589 $270 $346 forward 7 unknown #
point $-1 -30.988725975658589 -39.097489612160004 19.495766854519594 #
point $-1 -30.988725975658589 -33.581039856831111 19.495766854519594 #
edge $-1 $347 1 $347 0 $185 $-1 forward 7 unknown #
vertex $-1 $186 $348 #
ellipse-curve $-1 -49.195386736158824 -31.845362924741316 12.273582779086295 0 -0.84804810408105047 0.52991925155115449 2 0 0 1 I I #
point $-1 -47.195386736158824 -36.339264734495558 15.081684197047544 #
edge $-1 $349 1 $349 0 $189 $-1 forward 7 unknown #
vertex $-1 $190 $350 #
ellipse-curve $-1 -38.271390279858679 -31.845362924741316 12.273582779086295 0 -0.84804810408105047 0.52991925155115449 2 0 0 1 I I #
point $-1 -36.271390279858679 -36.339264734495558 15.081684197047544 #
plane-surface $-1 74.070863979003263 0 0 -1 0 0 0 0 1 forward_v I I I I #
coedge $-1 $198 $196 $200 $291 reversed $120 $-1 #
edge $-1 $211 -19.495766854519594 $293 19.495766854519594 $210 $351 forward 7 unknown #
vertex $-1 $291 $352 #
straight-curve $-1 -74.070863979003263 -39.097489612160004 0 0 0 -1 I I #
edge $-1 $289 -39.097489612160004 $293 39.097489612160004 $287 $353 forward 7 unknown #
straight-curve $-1 0 -39.097489612160004 -19.495766854519594 -1 0 0 I I #
vertex $-1 $203 $354 #
straight-curve $-1 0 39.097489612160004 -19.495766854519594 1 0 0 I I #
point $-1 74.070863979003263 39.097489612160004 -19.495766854519594 #
point $-1 74.070863979003263 -39.097489612160004 -19.495766854519594 #
straight-curve $-1 -74.070863979003263 0 19.495766854519594 0 -1 0 I I #
point $-1 -74.070863979003263 39.097489612160004 19.495766854519594 #
point $-1 -74.070863979003263 -39.097489612160004 19.495766854519594 #
straight-curve $-1 74.070863979003263 -39.097489612160004 0 0 0 -1 I I #
straight-curve $-1 74.070863979003263 39.097489612160004 0 0 0 -1 I I #
plane-surface $-1 0 -39.097489612160004 0 0 1 0 0 0 1 forward_v I I I I #
coedge $-1 $306 $355 $226 $310 forward $221 $-1 #
coedge $-1 $356 $223 $230 $315 reversed $139 $-1 #
coedge $-1 $223 $356 $234 $317 forward $139 $-1 #
coedge $-1 $357 $303 $224 $307 forward $221 $-1 #
edge $-1 $308 56.478051040358906 $358 74.070863979003263 $224 $359 forward 7 unknown #
vertex $-1 $307 $360 #
straight-curve $-1 -56.478051040358906 39.097489612160004 8.3861784554407031 0 0 -1 I I #
edge $-1 $312 -39.097489612160004 $308 39.097489612160004 $303 $361 forward 7 unknown #
coedge $-1 $230 $227 $355 $362 reversed $231 $-1 #
vertex $-1 $228 $363 #
straight-curve $-1 -56.478051040358906 -39.097489612160004 8.3861784554407031 0 0 1 I I #
straight-curve $-1 -74.070863979003263 0 14.048946967243218 0 -1 0 I I #
edge $-1 $364 -19.495766854519594 $232 -14.048946967243218 $304 $365 forward 7 unknown #
point $-1 -74.070863979003263 -39.097489612160004 14.048946967243218 #
edge $-1 $358 -19.495766854519594 $235 -14.048946967243218 $234 $366 forward 7 unknown #
point $-1 -74.070863979003263 39.097489612160004 14.048946967243218 #
plane-surface $-1 74.070863979003263 0 0 -1 0 0 0 0 1 forward_v I I I I #
coedge $-1 $242 $252 $243 $323 reversed $153 $-1 #
edge $-1 $325 -11.109588399078891 $253 -5.6627685118025148 $242 $367 forward 7 unknown #
coedge $-1 $244 $243 $257 $331 forward $90 $-1 #
edge $-1 $325 56.47805104035892 $334 74.070863979003263 $320 $368 forward 7 unknown #
edge $-1 $332 -74.070863979003263 $250 -56.47805104035892 $248 $369 forward 7 unknown #
vertex $-1 $323 $370 #
straight-curve $-1 56.47805104035892 0 19.495766854519594 0 -1 0 I I #
straight-curve $-1 56.47805104035892 0 14.048946967243218 0 1 0 I I #
point $-1 56.47805104035892 39.097489612160004 14.048946967243218 #
point $-1 56.47805104035892 39.097489612160004 19.495766854519594 #
point $-1 56.47805104035892 -39.097489612160004 14.048946967243218 #
edge $-1 $334 -39.097489612160004 $332 39.097489612160004 $257 $371 forward 7 unknown #
vertex $-1 $331 $372 #
straight-curve $-1 74.070863979003263 39.097489612160004 0 0 0 -1 I I #
vertex $-1 $331 $373 #
straight-curve $-1 74.070863979003263 -39.097489612160004 0 0 0 -1 I I #
coedge $-1 $337 $264 $343 $374 reversed $172 $-1 #
coedge $-1 $264 $336 $267 $341 reversed $172 $-1 #
edge $-1 $339 -34.611356786354534 $272 -9.1220317216542135 $271 $375 forward 7 unknown #
vertex $-1 $374 $376 #
straight-curve $-1 -56.478051040358913 -39.097489612160004 10.667601539575486 0 0.52991925155115449 0.84804810408105047 I I #
edge $-1 $268 33.581039856831111 $345 39.097489612160004 $267 $377 forward 7 unknown #
point $-1 -56.478051040358913 -33.581039856831111 19.495766854519594 #
coedge $-1 $271 $270 $336 $374 forward $262 $-1 #
point $-1 -30.988725975658589 -39.097489612160004 10.667601539575486 #
vertex $-1 $275 $378 #
straight-curve $-1 0 -39.097489612160004 19.495766854519594 1 0 0 I I #
vertex $-1 $278 $379 #
point $-1 -47.195386736158824 -31.845362924741316 12.273582779086295 #
vertex $-1 $282 $380 #
point $-1 -36.271390279858679 -31.845362924741316 12.273582779086295 #
straight-curve $-1 -74.070863979003263 39.097489612160004 0 0 0 -1 I I #
point $-1 -74.070863979003263 -39.097489612160004 -19.495766854519594 #
straight-curve $-1 -74.070863979003263 0 -19.495766854519594 0 1 0 I I #
point $-1 -74.070863979003263 39.097489612160004 -19.495766854519594 #
coedge $-1 $303 $357 $311 $362 forward $221 $-1 #
coedge $-1 $305 $304 $357 $381 reversed $139 $-1 #
coedge $-1 $355 $306 $356 $381 forward $221 $-1 #
vertex $-1 $307 $382 #
straight-curve $-1 0 39.097489612160004 19.495766854519594 -1 0 0 I I #
point $-1 -56.478051040358906 39.097489612160004 19.495766854519594 #
straight-curve $-1 -56.478051040358906 0 19.495766854519594 0 1 0 I I #
edge $-1 $364 -74.070863979003263 $312 -56.478051040358906 $311 $383 forward 7 unknown #
point $-1 -56.478051040358906 -39.097489612160004 19.495766854519594 #
vertex $-1 $381 $384 #
straight-curve $-1 -74.070863979003263 -39.097489612160004 0 0 0 -1 I I #
straight-curve $-1 -74.070863979003263 39.097489612160004 0 0 0 -1 I I #
straight-curve $-1 56.47805104035892 -39.097489612160004 8.3861784554407031 0 0 -1 I I #
straight-curve $-1 0 -39.097489612160004 19.495766854519594 1 0 0 I I #
straight-curve $-1 0 39.097489612160004 19.495766854519594 -1 0 0 I I #
point $-1 56.47805104035892 -39.097489612160004 19.495766854519594 #
straight-curve $-1 74.070863979003263 0 19.495766854519594 0 1 0 I I #
point $-1 74.070863979003263 39.097489612160004 19.495766854519594 #
point $-1 74.070863979003263 -39.097489612160004 19.495766854519594 #
edge $-1 $345 25.089610716768924 $339 33.917776031713032 $343 $385 forward 7 unknown #
straight-curve $-1 -21.866694254004376 -39.097489612160004 10.667601539575479 1 0 0 I I #
point $-1 -56.478051040358913 -39.097489612160004 10.667601539575486 #
straight-curve $-1 -56.478051040358906 0 19.495766854519594 0 -1 0 I I #
point $-1 -56.478051040358906 -39.097489612160004 19.495766854519594 #
point $-1 -49.195386736158824 -30.149266716579213 11.213744275983986 #
point $-1 -38.271390279858679 -30.149266716579213 11.213744275983986 #
edge $-1 $358 -39.097489612160004 $364 39.097489612160004 $356 $386 forward 7 unknown #
point $-1 -74.070863979003263 39.097489612160004 19.495766854519594 #
straight-curve $-1 0 -39.097489612160004 19.495766854519594 1 0 0 I I #
point $-1 -74.070863979003263 -39.097489612160004 19.495766854519594 #
straight-curve $-1 -56.478051040358913 -39.097489612160004 44.585377571288518 0 0 -1 I I #
straight-curve $-1 -74.070863979003263 0 19.495766854519594 0 -1 0 I I #
End-of-ACIS-data 