500 0 8 0           
7 Unknown 11 ACIS 5.0 NT 24 Fri Mar 26 02:27:48 1999 
-1 9.9999999999999995e-007 1e-010 
body $-1 $8 $-1 $9 #
body $-1 $10 $-1 $11 #
body $-1 $12 $-1 $13 #
body $-1 $14 $-1 $15 #
body $-1 $16 $-1 $17 #
body $-1 $18 $-1 $19 #
body $-1 $20 $-1 $21 #
body $-1 $22 $-1 $23 #
lump $-1 $-1 $24 $0 #
transform $-1 1 0 0 0 1 0 0 0 1 63.472396008178961 30.988677705632004 9.2811879411460119 1 rotate no_reflect no_shear #
lump $-1 $-1 $25 $1 #
transform $-1 1 0 0 0 1 0 0 0 1 63.472396008178961 30.988677705632004 9.2811879411460119 1 rotate no_reflect no_shear #
lump $-1 $-1 $26 $2 #
transform $-1 1 0 0 0 1 0 0 0 1 63.472396008178961 30.988677705632004 9.2811879411460119 1 rotate no_reflect no_shear #
lump $-1 $-1 $27 $3 #
transform $-1 1 0 0 0 1 0 0 0 1 63.472396008178961 30.988677705632004 9.2811879411460119 1 rotate no_reflect no_shear #
lump $-1 $-1 $28 $4 #
transform $-1 1 0 0 0 1 0 0 0 1 63.472396008178961 30.988677705632004 9.2811879411460119 1 rotate no_reflect no_shear #
lump $-1 $-1 $29 $5 #
transform $-1 1 0 0 0 1 0 0 0 1 63.472396008178961 30.988677705632004 9.2811879411460119 1 rotate no_reflect no_shear #
lump $-1 $-1 $30 $6 #
transform $-1 1 0 0 0 1 0 0 0 1 63.472396008178961 30.988677705632004 9.2811879411460119 1 rotate no_reflect no_shear #
lump $-1 $-1 $31 $7 #
transform $-1 1 0 0 0 1 0 0 0 1 63.472396008178961 30.988677705632004 9.2811879411460119 1 rotate no_reflect no_shear #
shell $-1 $-1 $-1 $32 $-1 $8 #
shell $-1 $-1 $-1 $33 $-1 $10 #
shell $-1 $-1 $-1 $34 $-1 $12 #
shell $-1 $-1 $-1 $35 $-1 $14 #
shell $-1 $-1 $-1 $36 $-1 $16 #
shell $-1 $-1 $-1 $37 $-1 $18 #
shell $-1 $-1 $-1 $38 $-1 $20 #
shell $-1 $-1 $-1 $39 $-1 $22 #
face $-1 $40 $41 $24 $-1 $42 forward single #
face $-1 $43 $44 $25 $-1 $45 reversed single #
face $-1 $46 $47 $26 $-1 $48 reversed single #
face $-1 $49 $50 $27 $-1 $51 forward single #
face $-1 $52 $53 $28 $-1 $54 forward single #
face $-1 $55 $56 $29 $-1 $57 forward single #
face $-1 $58 $59 $30 $-1 $60 reversed single #
face $-1 $61 $62 $31 $-1 $63 forward single #
face $-1 $64 $65 $24 $-1 $66 reversed single #
loop $-1 $-1 $67 $32 #
plane-surface $-1 0 0 9.2811879411460119 0 0 1 1 0 0 forward_v I I I I #
face $-1 $68 $69 $25 $-1 $70 reversed single #
loop $-1 $-1 $71 $33 #
plane-surface $-1 0 -26.973874920272522 4.0514664093440373 0 0 1 1 0 0 forward_v I I I I #
face $-1 $72 $73 $26 $-1 $74 reversed single #
loop $-1 $-1 $75 $34 #
plane-surface $-1 63.472398091150779 16.001268276240857 184.8459381649252 0 -1 0 -0.70710678939079041 0 -0.70710677298230451 forward_v I I I I #
face $-1 $76 $77 $27 $-1 $78 forward single #
loop $-1 $79 $80 $35 #
cone-surface $-1 60.935340291330029 9.2185464605469711 6.744132191224228 -0.70710678939079041 0 -0.70710677298230451 0.35355338649115226 0 -0.35355339469539521 1 I I 0 1 0.5 forward I I I I #
face $-1 $81 $82 $28 $-1 $83 forward single #
loop $-1 $84 $85 $36 #
cone-surface $-1 60.935340291330029 11.76206714143218 6.744132191224228 -0.70710678939079041 0 -0.70710677298230451 0.35355338649115226 0 -0.35355339469539521 1 I I 0 1 0.5 forward I I I I #
face $-1 $86 $87 $29 $-1 $88 forward single #
loop $-1 $89 $90 $37 #
cone-surface $-1 60.935340291330029 14.305587822317388 6.744132191224228 -0.70710678939079041 0 -0.70710677298230451 0.35355338649115226 0 -0.35355339469539521 1 I I 0 1 0.5 forward I I I I #
face $-1 $91 $92 $30 $-1 $93 reversed single #
loop $-1 $-1 $94 $38 #
plane-surface $-1 -138.08867356399963 14.964584707261331 106.24143713970577 0 1 0 -0.5877852598018023 0 0.80901698891910034 forward_v I I I I #
face $-1 $95 $96 $31 $-1 $97 forward single #
loop $-1 $98 $99 $39 #
cone-surface $-1 -57.806484212054123 19.674197409045906 4.0498445685341755 0.5877852598018023 0 -0.80901698891910034 1.2135254833786506 0 0.88167788970270344 1 I I 0 1 1.5 forward I I I I #
face $-1 $100 $101 $24 $-1 $102 reversed single #
loop $-1 $-1 $103 $40 #
plane-surface $-1 0 0 -9.2811879411460119 0 0 1 1 0 0 forward_v I I I I #
coedge $-1 $104 $105 $106 $107 forward $41 $-1 #
face $-1 $108 $109 $25 $-1 $110 reversed single #
loop $-1 $-1 $111 $43 #
plane-surface $-1 0 -22.95907213491304 6.6663271752450246 0 -1 0 0 0 -1 forward_v I I I I #
coedge $-1 $112 $113 $114 $115 reversed $44 $-1 #
face $-1 $116 $117 $26 $-1 $118 reversed single #
loop $-1 $-1 $119 $46 #
plane-surface $-1 -26.291126221417699 11.76206714143218 95.082415935328541 0.70710678939079041 0 0.70710677298230451 0.70710677298230451 0 -0.70710678939079041 forward_v I I I I #
coedge $-1 $120 $121 $122 $123 reversed $47 $-1 #
face $-1 $-1 $124 $27 $-1 $125 forward single #
loop $-1 $126 $127 $49 #
cone-surface $-1 60.202655990353634 9.2185464605469711 6.011447907249849 -0.70710678939079041 0 -0.70710677298230451 0.17677669324557613 0 -0.1767766973476976 1 I I -0.70710678118654746 0.70710678118654746 0.25 forward I I I I #
loop $-1 $-1 $128 $35 #
coedge $-1 $80 $80 $129 $130 reversed $50 $-1 #
face $-1 $-1 $131 $28 $-1 $132 forward single #
loop $-1 $133 $134 $52 #
cone-surface $-1 60.202655990353634 11.76206714143218 6.011447907249849 -0.70710678939079041 0 -0.70710677298230451 0.17677669324557613 0 -0.1767766973476976 1 I I -0.70710678118654746 0.70710678118654746 0.25 forward I I I I #
loop $-1 $-1 $135 $36 #
coedge $-1 $85 $85 $136 $137 reversed $53 $-1 #
face $-1 $-1 $138 $29 $-1 $139 forward single #
loop $-1 $140 $141 $55 #
cone-surface $-1 60.202655990353634 14.305587822317388 6.011447907249849 -0.70710678939079041 0 -0.70710677298230451 0.17677669324557613 0 -0.1767766973476976 1 I I -0.70710678118654746 0.70710678118654746 0.25 forward I I I I #
loop $-1 $-1 $142 $37 #
coedge $-1 $90 $90 $143 $144 reversed $56 $-1 #
face $-1 $145 $146 $30 $-1 $147 reversed single #
loop $-1 $-1 $148 $58 #
plane-surface $-1 -63.472396008178933 19.674197409045913 3.5409437436704252 -0.5877852598018023 0 0.80901698891910034 0.80901698891910034 0 0.5877852598018023 forward_v I I I I #
coedge $-1 $149 $150 $151 $152 reversed $59 $-1 #
face $-1 $-1 $153 $31 $-1 $154 forward single #
loop $-1 $155 $156 $61 #
cone-surface $-1 -55.65011756021616 19.674197409045906 1.0818605529708023 0.5877852598018023 0 -0.80901698891910034 0.60676274168932531 0 0.44083894485135172 1 I I -0.70710678118654757 0.70710678118654757 0.75 forward I I I I #
loop $-1 $-1 $157 $39 #
coedge $-1 $99 $99 $158 $159 reversed $62 $-1 #
face $-1 $160 $161 $24 $-1 $162 reversed single #
loop $-1 $-1 $163 $64 #
plane-surface $-1 0 -30.988677705632004 0 0 1 0 0 0 1 forward_v I I I I #
coedge $-1 $164 $165 $166 $167 forward $65 $-1 #
coedge $-1 $168 $67 $169 $170 forward $41 $-1 #
coedge $-1 $67 $168 $171 $172 forward $41 $-1 #
coedge $-1 $173 $174 $67 $107 reversed $175 $-1 #
edge $-1 $176 -30.988677705632004 $177 30.988677705632004 $106 $178 forward 7 unknown #
face $-1 $179 $180 $25 $-1 $181 reversed single #
loop $-1 $-1 $182 $68 #
plane-surface $-1 -63.472396008178961 0 0 1 0 0 0 0 -1 forward_v I I I I #
coedge $-1 $183 $184 $185 $186 reversed $69 $-1 #
coedge $-1 $187 $71 $188 $189 reversed $44 $-1 #
coedge $-1 $71 $187 $183 $190 forward $44 $-1 #
coedge $-1 $185 $191 $71 $115 forward $192 $-1 #
edge $-1 $193 -17.501740245495743 $194 -9.472134674776779 $114 $195 forward 7 unknown #
face $-1 $196 $197 $26 $-1 $198 reversed single #
loop $-1 $-1 $199 $72 #
plane-surface $-1 63.472398091150779 7.5228660066235022 184.8459381649252 0 1 0 0.70710678939079041 0 0.70710677298230451 forward_v I I I I #
coedge $-1 $200 $201 $202 $203 reversed $73 $-1 #
coedge $-1 $121 $75 $204 $205 reversed $47 $-1 #
coedge $-1 $75 $120 $200 $206 reversed $47 $-1 #
coedge $-1 $202 $207 $75 $123 forward $208 $-1 #
edge $-1 $209 -31.736196962603572 $210 -27.7739007361631 $122 $211 forward 7 unknown #
loop $-1 $-1 $129 $76 #
plane-surface $-1 -26.291126221417699 11.76206714143218 95.082415935328541 0.70710678939079041 0 0.70710677298230451 0.70710677298230451 0 -0.70710678939079041 forward_v I I I I #
loop $-1 $-1 $212 $49 #
coedge $-1 $127 $127 $128 $213 reversed $77 $-1 #
coedge $-1 $128 $128 $127 $213 forward $79 $-1 #
coedge $-1 $129 $129 $80 $130 forward $124 $-1 #
edge $-1 $214 0 $214 6.2831853071796004 $129 $215 forward 7 unknown #
loop $-1 $-1 $136 $81 #
plane-surface $-1 -26.291126221417699 11.76206714143218 95.082415935328541 0.70710678939079041 0 0.70710677298230451 0.70710677298230451 0 -0.70710678939079041 forward_v I I I I #
loop $-1 $-1 $216 $52 #
coedge $-1 $134 $134 $135 $217 reversed $82 $-1 #
coedge $-1 $135 $135 $134 $217 forward $84 $-1 #
coedge $-1 $136 $136 $85 $137 forward $131 $-1 #
edge $-1 $218 0 $218 6.2831853071796004 $136 $219 forward 7 unknown #
loop $-1 $-1 $143 $86 #
plane-surface $-1 -26.291126221417699 11.76206714143218 95.082415935328541 0.70710678939079041 0 0.70710677298230451 0.70710677298230451 0 -0.70710678939079041 forward_v I I I I #
loop $-1 $-1 $220 $55 #
coedge $-1 $141 $141 $142 $221 reversed $87 $-1 #
coedge $-1 $142 $142 $141 $221 forward $89 $-1 #
coedge $-1 $143 $143 $90 $144 forward $138 $-1 #
edge $-1 $222 0 $222 6.2831853071796004 $143 $223 forward 7 unknown #
face $-1 $224 $225 $30 $-1 $226 forward single #
loop $-1 $-1 $227 $91 #
plane-surface $-1 -138.08867356399963 24.383810110830495 106.24143713970577 0 -1 0 0.5877852598018023 0 -0.80901698891910034 forward_v I I I I #
coedge $-1 $228 $229 $230 $231 reversed $92 $-1 #
coedge $-1 $150 $94 $232 $233 reversed $59 $-1 #
coedge $-1 $94 $149 $228 $234 reversed $59 $-1 #
coedge $-1 $230 $235 $94 $152 forward $225 $-1 #
edge $-1 $236 5.571940773820856 $237 13.472708952097335 $151 $238 forward 7 unknown #
loop $-1 $-1 $158 $95 #
plane-surface $-1 -63.472396008178933 19.674197409045913 3.5409437436704252 -0.5877852598018023 0 0.80901698891910034 0.80901698891910034 0 0.5877852598018023 forward_v I I I I #
loop $-1 $-1 $239 $61 #
coedge $-1 $156 $156 $157 $240 reversed $96 $-1 #
coedge $-1 $157 $157 $156 $240 forward $98 $-1 #
coedge $-1 $158 $158 $99 $159 forward $153 $-1 #
edge $-1 $241 0 $241 6.2831853071796004 $158 $242 forward 7 unknown #
face $-1 $243 $244 $24 $-1 $245 reversed single #
loop $-1 $-1 $246 $100 #
plane-surface $-1 -63.472396008178961 0 0 1 0 0 0 0 -1 forward_v I I I I #
coedge $-1 $247 $171 $248 $249 forward $101 $-1 #
coedge $-1 $250 $103 $247 $251 forward $65 $-1 #
coedge $-1 $103 $250 $252 $253 forward $65 $-1 #
coedge $-1 $174 $173 $103 $167 reversed $175 $-1 #
edge $-1 $254 -30.988677705632004 $255 30.988677705632004 $166 $256 forward 7 unknown #
coedge $-1 $105 $104 $257 $258 forward $41 $-1 #
coedge $-1 $259 $260 $104 $170 reversed $244 $-1 #
edge $-1 $177 -63.472396008178961 $261 63.472396008178961 $169 $262 forward 7 unknown #
coedge $-1 $163 $263 $105 $172 reversed $101 $-1 #
edge $-1 $264 -63.472396008178961 $176 63.472396008178961 $171 $265 forward 7 unknown #
coedge $-1 $166 $106 $263 $266 forward $175 $-1 #
coedge $-1 $106 $166 $259 $267 reversed $175 $-1 #
loop $-1 $-1 $173 $243 #
vertex $-1 $107 $268 #
vertex $-1 $107 $269 #
straight-curve $-1 63.472396008178961 0 9.2811879411460119 0 1 0 I I #
face $-1 $270 $271 $25 $-1 $272 forward single #
loop $-1 $-1 $188 $108 #
plane-surface $-1 0 -30.988677705632004 0 0 1 0 0 0 1 forward_v I I I I #
coedge $-1 $273 $274 $275 $276 forward $109 $-1 #
coedge $-1 $275 $111 $113 $190 reversed $69 $-1 #
coedge $-1 $111 $275 $277 $278 reversed $69 $-1 #
coedge $-1 $279 $114 $111 $186 forward $192 $-1 #
edge $-1 $194 0.71830282172152504 $280 5.9480243535234996 $185 $281 forward 7 unknown #
coedge $-1 $113 $112 $273 $282 reversed $44 $-1 #
coedge $-1 $283 $284 $112 $189 forward $180 $-1 #
edge $-1 $285 -63.472396008178961 $193 63.472396008178961 $188 $286 forward 7 unknown #
edge $-1 $287 -63.472396008178961 $194 63.472396008178961 $183 $288 forward 7 unknown #
coedge $-1 $114 $279 $283 $289 forward $192 $-1 #
loop $-1 $-1 $185 $270 #
vertex $-1 $189 $290 #
vertex $-1 $115 $291 #
straight-curve $-1 63.472396008178961 -13.486937460136261 4.0514664093440373 0 1 0 I I #
face $-1 $-1 $208 $26 $-1 $292 forward single #
loop $-1 $-1 $293 $116 #
plane-surface $-1 63.472396008178961 0 0 -1 0 0 0 0 1 forward_v I I I I #
coedge $-1 $294 $295 $296 $297 reversed $117 $-1 #
coedge $-1 $298 $119 $121 $206 forward $73 $-1 #
coedge $-1 $119 $298 $294 $299 forward $73 $-1 #
coedge $-1 $296 $122 $119 $203 forward $208 $-1 #
edge $-1 $210 -10.120234705524767 $300 -1.6418324359074123 $202 $301 forward 7 unknown #
coedge $-1 $302 $303 $120 $205 forward $197 $-1 #
edge $-1 $304 -87.104077459702552 $209 -83.141781141316585 $204 $305 forward 7 unknown #
edge $-1 $210 121.34125888977081 $304 126.94479201635794 $121 $306 forward 7 unknown #
coedge $-1 $122 $296 $302 $307 forward $208 $-1 #
loop $-1 $-1 $296 $196 #
vertex $-1 $205 $308 #
vertex $-1 $123 $309 #
straight-curve $-1 31.73619904557539 16.001268276240857 9.2811879411460154 -1 0 0 I I #
coedge $-1 $212 $212 $-1 $310 reversed $126 $-1 #
edge $-1 $311 0 $311 6.2831853071796004 $127 $312 forward 7 unknown #
vertex $-1 $130 $313 #
ellipse-curve $-1 61.491247894958732 9.2185464605469711 7.3000397819530392 0.70710678939079041 0 0.70710677298230451 0.35355338649115226 0 -0.35355339469539521 1 I I #
coedge $-1 $216 $216 $-1 $314 reversed $133 $-1 #
edge $-1 $315 0 $315 6.2831853071796004 $134 $316 forward 7 unknown #
vertex $-1 $137 $317 #
ellipse-curve $-1 61.491247894958732 11.76206714143218 7.3000397819530392 0.70710678939079041 0 0.70710677298230451 0.35355338649115226 0 -0.35355339469539521 1 I I #
coedge $-1 $220 $220 $-1 $318 reversed $140 $-1 #
edge $-1 $319 0 $319 6.2831853071796004 $141 $320 forward 7 unknown #
vertex $-1 $144 $321 #
ellipse-curve $-1 61.491247894958732 14.305587822317388 7.3000397819530392 0.70710678939079041 0 0.70710677298230451 0.35355338649115226 0 -0.35355339469539521 1 I I #
face $-1 $-1 $322 $30 $-1 $323 reversed single #
loop $-1 $-1 $151 $145 #
plane-surface $-1 0 0 9.2811879411460119 0 0 1 1 0 0 forward_v I I I I #
coedge $-1 $324 $325 $326 $327 reversed $146 $-1 #
coedge $-1 $328 $148 $150 $234 forward $92 $-1 #
coedge $-1 $148 $328 $324 $329 forward $92 $-1 #
coedge $-1 $326 $151 $148 $231 forward $225 $-1 #
edge $-1 $237 5.1274860027383742 $330 14.546711406307539 $230 $331 forward 7 unknown #
coedge $-1 $332 $333 $149 $233 forward $322 $-1 #
edge $-1 $334 -49.579774826182479 $236 -43.839530628706868 $232 $335 forward 7 unknown #
edge $-1 $237 -9.7658866086760359 $334 3.5000983996316274e-014 $150 $336 forward 7 unknown #
coedge $-1 $151 $326 $332 $337 forward $225 $-1 #
vertex $-1 $233 $338 #
vertex $-1 $152 $339 #
straight-curve $-1 -69.044336781999817 14.964584707261331 9.2811879411460154 1 0 0 I I #
coedge $-1 $239 $239 $-1 $340 reversed $155 $-1 #
edge $-1 $341 0 $341 6.2831853071796004 $156 $342 forward 7 unknown #
vertex $-1 $159 $343 #
ellipse-curve $-1 -59.522011919040722 19.674197409045906 6.4110658424082052 -0.5877852598018023 0 0.80901698891910034 1.2135254833786506 0 0.88167788970270344 1 I I #
face $-1 $-1 $175 $24 $-1 $344 reversed single #
loop $-1 $-1 $259 $160 #
plane-surface $-1 0 30.988677705632004 0 0 -1 0 0 0 -1 forward_v I I I I #
coedge $-1 $345 $257 $260 $346 forward $161 $-1 #
coedge $-1 $263 $163 $164 $251 reversed $101 $-1 #
coedge $-1 $257 $345 $163 $249 reversed $161 $-1 #
edge $-1 $264 -9.2811879411460119 $347 9.2811879411460119 $248 $348 forward 7 unknown #
coedge $-1 $165 $164 $345 $349 forward $65 $-1 #
edge $-1 $255 -63.472396008178961 $347 63.472396008178961 $247 $350 forward 7 unknown #
coedge $-1 $260 $259 $165 $253 reversed $244 $-1 #
edge $-1 $351 -63.472396008178961 $254 63.472396008178961 $252 $352 forward 7 unknown #
vertex $-1 $167 $353 #
vertex $-1 $266 $354 #
straight-curve $-1 63.472396008178961 0 -9.2811879411460119 0 -1 0 I I #
coedge $-1 $246 $248 $168 $258 reversed $161 $-1 #
edge $-1 $261 -30.988677705632004 $264 30.988677705632004 $257 $355 forward 7 unknown #
coedge $-1 $252 $169 $174 $267 forward $244 $-1 #
coedge $-1 $169 $252 $246 $346 reversed $244 $-1 #
vertex $-1 $170 $356 #
straight-curve $-1 0 30.988677705632004 9.2811879411460119 -1 0 0 I I #
coedge $-1 $171 $247 $173 $266 reversed $101 $-1 #
vertex $-1 $258 $357 #
straight-curve $-1 0 -30.988677705632004 9.2811879411460119 1 0 0 I I #
edge $-1 $176 -9.2811879411460119 $255 9.2811879411460119 $173 $358 forward 7 unknown #
edge $-1 $177 -9.2811879411460119 $254 9.2811879411460119 $174 $359 forward 7 unknown #
point $-1 63.472396008178961 -30.988677705632004 9.2811879411460119 #
point $-1 63.472396008178961 30.988677705632004 9.2811879411460119 #
face $-1 $-1 $192 $25 $-1 $360 reversed single #
loop $-1 $-1 $277 $179 #
plane-surface $-1 0 0 9.2811879411460119 0 0 1 1 0 0 forward_v I I I I #
coedge $-1 $361 $182 $187 $282 forward $109 $-1 #
coedge $-1 $182 $361 $362 $363 reversed $109 $-1 #
coedge $-1 $184 $183 $182 $276 reversed $69 $-1 #
edge $-1 $364 -5.9480243535234996 $287 -0.71830282172152504 $182 $365 forward 7 unknown #
coedge $-1 $362 $366 $184 $278 forward $271 $-1 #
edge $-1 $280 -63.472396008178961 $364 63.472396008178961 $277 $367 forward 7 unknown #
coedge $-1 $191 $185 $366 $368 reversed $192 $-1 #
vertex $-1 $186 $369 #
straight-curve $-1 63.472396008178961 -22.95907213491304 3.3331635876225123 0 0 1 I I #
edge $-1 $287 9.472134674776779 $285 17.501740245495743 $273 $370 forward 7 unknown #
coedge $-1 $371 $188 $191 $289 reversed $180 $-1 #
coedge $-1 $188 $371 $361 $372 forward $180 $-1 #
vertex $-1 $189 $373 #
straight-curve $-1 0 -30.988677705632004 4.0514664093440373 1 0 0 I I #
vertex $-1 $282 $374 #
straight-curve $-1 0 -22.95907213491304 4.0514664093440373 1 0 0 I I #
edge $-1 $375 -9.2811879411460119 $193 -4.0514664093440373 $191 $376 forward 7 unknown #
point $-1 63.472396008178961 -30.988677705632004 4.0514664093440373 #
point $-1 63.472396008178961 -22.95907213491304 4.0514664093440373 #
plane-surface $-1 0 0 9.2811879411460119 0 0 1 1 0 0 forward_v I I I I #
coedge $-1 $303 $302 $295 $377 forward $197 $-1 #
coedge $-1 $295 $199 $201 $299 reversed $117 $-1 #
coedge $-1 $199 $294 $293 $377 reversed $117 $-1 #
coedge $-1 $207 $202 $199 $297 forward $208 $-1 #
edge $-1 $300 27.7739007361631 $378 31.736196962603572 $296 $379 forward 7 unknown #
coedge $-1 $201 $200 $303 $380 reversed $73 $-1 #
edge $-1 $381 -126.94479201635794 $300 -121.34125888977081 $294 $382 forward 7 unknown #
vertex $-1 $203 $383 #
straight-curve $-1 59.510099781738504 5.8810335707160899 9.2811879411460012 0 -1 0 I I #
coedge $-1 $293 $204 $207 $307 reversed $197 $-1 #
coedge $-1 $204 $293 $298 $380 forward $197 $-1 #
vertex $-1 $205 $384 #
straight-curve $-1 63.472396008178961 16.001268276240857 92.4229690824626 0 0 1 I I #
straight-curve $-1 -26.291126221417699 16.001268276240857 95.082415935328541 0.70710677298230451 0 -0.70710678939079041 I I #
edge $-1 $378 7.5228660066235022 $209 16.001268276240857 $302 $385 forward 7 unknown #
point $-1 63.472396008178961 16.001268276240857 9.2811879411460119 #
point $-1 59.510099781738489 16.001268276240857 9.2811879411460154 #
edge $-1 $386 1 $386 0 $212 $-1 forward 7 unknown #
vertex $-1 $213 $387 #
ellipse-curve $-1 60.379432687701332 9.2185464605469711 6.1882246004954249 0.70710678939079041 0 0.70710677298230451 0.35355338649115226 0 -0.35355339469539521 1 I I #
point $-1 61.844801281449875 9.2185464605469711 6.9464863872576341 #
edge $-1 $388 1 $388 0 $216 $-1 forward 7 unknown #
vertex $-1 $217 $389 #
ellipse-curve $-1 60.379432687701332 11.76206714143218 6.1882246004954249 0.70710678939079041 0 0.70710677298230451 0.35355338649115226 0 -0.35355339469539521 1 I I #
point $-1 61.844801281449875 11.76206714143218 6.9464863872576341 #
edge $-1 $390 1 $390 0 $220 $-1 forward 7 unknown #
vertex $-1 $221 $391 #
ellipse-curve $-1 60.379432687701332 14.305587822317388 6.1882246004954249 0.70710678939079041 0 0.70710677298230451 0.35355338649115226 0 -0.35355339469539521 1 I I #
point $-1 61.844801281449875 14.305587822317388 6.9464863872576341 #
loop $-1 $-1 $232 $224 #
plane-surface $-1 -63.472396008178961 0 0 1 0 0 0 0 -1 forward_v I I I I #
coedge $-1 $325 $227 $229 $329 reversed $146 $-1 #
coedge $-1 $227 $324 $392 $393 reversed $146 $-1 #
coedge $-1 $235 $230 $227 $327 forward $225 $-1 #
edge $-1 $330 -13.472708952097335 $394 -5.571940773820856 $326 $395 forward 7 unknown #
coedge $-1 $229 $228 $333 $396 reversed $92 $-1 #
edge $-1 $397 -3.5000983996316274e-014 $330 9.7658866086760359 $324 $398 forward 7 unknown #
vertex $-1 $231 $399 #
straight-curve $-1 -55.571627829902482 9.8370987045229565 9.2811879411460119 0 1 0 I I #
coedge $-1 $392 $232 $235 $337 reversed $322 $-1 #
coedge $-1 $232 $392 $328 $396 forward $322 $-1 #
vertex $-1 $233 $400 #
straight-curve $-1 -63.472396008178961 14.964584707261331 53.120718569852883 0 0 1 I I #
straight-curve $-1 -63.472396008178933 14.964584707261331 3.5409437436704252 -0.80901698891910034 0 -0.5877852598018023 I I #
edge $-1 $394 -24.383810110830495 $236 -14.964584707261331 $332 $401 forward 7 unknown #
point $-1 -63.472396008178961 14.964584707261331 9.2811879411460119 #
point $-1 -55.571627829902482 14.964584707261331 9.2811879411460119 #
edge $-1 $402 1 $402 0 $239 $-1 forward 7 unknown #
vertex $-1 $240 $403 #
ellipse-curve $-1 -56.09095650506751 19.674197409045906 1.6886232946601276 -0.5877852598018023 0 0.80901698891910034 1.2135254833786506 0 0.88167788970270344 1 I I #
point $-1 -58.30848643566209 19.674197409045906 7.2927437321109263 #
plane-surface $-1 63.472396008178961 0 0 -1 0 0 0 0 1 forward_v I I I I #
coedge $-1 $248 $246 $250 $349 reversed $161 $-1 #
edge $-1 $261 -9.2811879411460119 $351 9.2811879411460119 $260 $404 forward 7 unknown #
vertex $-1 $349 $405 #
straight-curve $-1 -63.472396008178961 -30.988677705632004 0 0 0 -1 I I #
edge $-1 $347 -30.988677705632004 $351 30.988677705632004 $345 $406 forward 7 unknown #
straight-curve $-1 0 -30.988677705632004 -9.2811879411460119 -1 0 0 I I #
vertex $-1 $253 $407 #
straight-curve $-1 0 30.988677705632004 -9.2811879411460119 1 0 0 I I #
point $-1 63.472396008178961 30.988677705632004 -9.2811879411460119 #
point $-1 63.472396008178961 -30.988677705632004 -9.2811879411460119 #
straight-curve $-1 -63.472396008178961 0 9.2811879411460119 0 -1 0 I I #
point $-1 -63.472396008178961 30.988677705632004 9.2811879411460119 #
point $-1 -63.472396008178961 -30.988677705632004 9.2811879411460119 #
straight-curve $-1 63.472396008178961 -30.988677705632004 0 0 0 -1 I I #
straight-curve $-1 63.472396008178961 30.988677705632004 0 0 0 -1 I I #
plane-surface $-1 63.472396008178961 0 0 -1 0 0 0 0 1 forward_v I I I I #
coedge $-1 $274 $273 $284 $372 reversed $109 $-1 #
coedge $-1 $408 $277 $274 $363 forward $271 $-1 #
edge $-1 $364 22.95907213491304 $409 30.988677705632004 $274 $410 forward 7 unknown #
vertex $-1 $363 $411 #
straight-curve $-1 -63.472396008178961 -22.95907213491304 3.3331635876225123 0 0 -1 I I #
coedge $-1 $277 $408 $279 $368 forward $271 $-1 #
straight-curve $-1 0 -22.95907213491304 9.2811879411460119 -1 0 0 I I #
edge $-1 $375 -30.988677705632004 $280 -22.95907213491304 $279 $412 forward 7 unknown #
point $-1 63.472396008178961 -22.95907213491304 9.2811879411460119 #
straight-curve $-1 -63.472396008178961 -13.486937460136261 4.0514664093440373 0 -1 0 I I #
coedge $-1 $284 $283 $408 $413 reversed $180 $-1 #
edge $-1 $409 -9.2811879411460119 $285 -4.0514664093440373 $361 $414 forward 7 unknown #
point $-1 -63.472396008178961 -30.988677705632004 4.0514664093440373 #
point $-1 -63.472396008178961 -22.95907213491304 4.0514664093440373 #
vertex $-1 $368 $415 #
straight-curve $-1 63.472396008178961 -30.988677705632004 0 0 0 -1 I I #
edge $-1 $378 83.141781141316585 $381 87.104077459702552 $293 $416 forward 7 unknown #
vertex $-1 $307 $417 #
straight-curve $-1 31.73619904557539 7.5228660066235022 9.2811879411460154 1 0 0 I I #
edge $-1 $381 1.6418324359074123 $304 10.120234705524767 $303 $418 forward 7 unknown #
vertex $-1 $380 $419 #
straight-curve $-1 -26.291126221417699 7.5228660066235022 95.082415935328541 -0.70710677298230451 0 0.70710678939079041 I I #
point $-1 59.510099781738489 7.5228660066235022 9.2811879411460154 #
point $-1 63.472396008178961 16.001268276240857 5.3188916227600487 #
straight-curve $-1 63.472396008178961 0 9.2811879411460119 0 1 0 I I #
vertex $-1 $310 $420 #
point $-1 60.732986074192482 9.2185464605469711 5.8346712058000296 #
vertex $-1 $314 $421 #
point $-1 60.732986074192482 11.76206714143218 5.8346712058000296 #
vertex $-1 $318 $422 #
point $-1 60.732986074192482 14.305587822317388 5.8346712058000296 #
coedge $-1 $333 $332 $325 $393 forward $322 $-1 #
edge $-1 $394 43.839530628706868 $397 49.579774826182479 $392 $423 forward 7 unknown #
vertex $-1 $337 $424 #
straight-curve $-1 -69.044336781999817 24.383810110830495 9.2811879411460154 -1 0 0 I I #
edge $-1 $397 -14.546711406307539 $334 -5.1274860027383742 $333 $425 forward 7 unknown #
vertex $-1 $396 $426 #
straight-curve $-1 -63.472396008178933 24.383810110830495 3.5409437436704252 0.80901698891910034 0 0.5877852598018023 I I #
point $-1 -55.571627829902482 24.383810110830495 9.2811879411460119 #
point $-1 -63.472396008178961 14.964584707261331 3.5409437436704048 #
straight-curve $-1 -63.472396008178961 0 9.2811879411460119 0 -1 0 I I #
vertex $-1 $340 $427 #
point $-1 -54.877431021688864 19.674197409045906 2.5703011843628309 #
straight-curve $-1 -63.472396008178961 30.988677705632004 0 0 0 -1 I I #
point $-1 -63.472396008178961 -30.988677705632004 -9.2811879411460119 #
straight-curve $-1 -63.472396008178961 0 -9.2811879411460119 0 1 0 I I #
point $-1 -63.472396008178961 30.988677705632004 -9.2811879411460119 #
coedge $-1 $366 $362 $371 $413 forward $271 $-1 #
vertex $-1 $363 $428 #
straight-curve $-1 -63.472396008178961 0 9.2811879411460119 0 -1 0 I I #
point $-1 -63.472396008178961 -22.95907213491304 9.2811879411460119 #
straight-curve $-1 63.472396008178961 0 9.2811879411460119 0 1 0 I I #
edge $-1 $409 -63.472396008178961 $375 63.472396008178961 $371 $429 forward 7 unknown #
straight-curve $-1 -63.472396008178961 -30.988677705632004 0 0 0 -1 I I #
point $-1 63.472396008178961 -30.988677705632004 9.2811879411460119 #
straight-curve $-1 63.472396008178961 7.5228660066235022 92.4229690824626 0 0 -1 I I #
point $-1 63.472396008178961 7.5228660066235022 9.2811879411460119 #
straight-curve $-1 63.472396008178961 5.8810335707160899 5.3188916227600558 0 1 0 I I #
point $-1 63.472396008178961 7.5228660066235022 5.3188916227600487 #
point $-1 60.025879293005936 9.2185464605469711 5.8346712140042731 #
point $-1 60.025879293005936 11.76206714143218 5.8346712140042731 #
point $-1 60.025879293005936 14.305587822317388 5.8346712140042731 #
straight-curve $-1 -63.472396008178961 24.383810110830495 53.120718569852883 0 0 -1 I I #
point $-1 -63.472396008178961 24.383810110830495 9.2811879411460119 #
straight-curve $-1 -63.472396008178961 9.8370987045229565 3.5409437436704083 0 -1 0 I I #
point $-1 -63.472396008178961 24.383810110830495 3.5409437436704048 #
point $-1 -55.209278615364809 19.674197409045906 0.47509781128147699 #
point $-1 -63.472396008178961 -30.988677705632004 9.2811879411460119 #
straight-curve $-1 0 -30.988677705632004 9.2811879411460119 1 0 0 I I #
End-of-ACIS-data 