500 0 6 0           
7 Unknown 11 ACIS 5.0 NT 24 Fri Mar 26 01:55:16 1999 
-1 9.9999999999999995e-007 1e-010 
body $-1 $6 $-1 $7 #
body $-1 $8 $-1 $9 #
body $-1 $10 $-1 $11 #
body $-1 $12 $-1 $13 #
body $-1 $14 $-1 $15 #
body $-1 $16 $-1 $17 #
lump $-1 $-1 $18 $0 #
transform $-1 1 0 0 0 1 0 0 0 1 59.148533585619674 24.502587360388286 11.484068892091528 1 rotate no_reflect no_shear #
lump $-1 $-1 $19 $1 #
transform $-1 1 0 0 0 1 0 0 0 1 59.148533585619674 24.502587360388286 11.484068892091528 1 rotate no_reflect no_shear #
lump $-1 $-1 $20 $2 #
transform $-1 1 0 0 0 1 0 0 0 1 59.148533585619674 24.502587360388286 11.484068892091528 1 rotate no_reflect no_shear #
lump $-1 $-1 $21 $3 #
transform $-1 1 0 0 0 1 0 0 0 1 59.148533585619674 24.502587360388286 11.484068892091528 1 rotate no_reflect no_shear #
lump $-1 $-1 $22 $4 #
transform $-1 1 0 0 0 1 0 0 0 1 59.148533585619674 24.502587360388286 11.484068892091528 1 rotate no_reflect no_shear #
lump $-1 $-1 $23 $5 #
transform $-1 1 0 0 0 1 0 0 0 1 59.148533585619674 24.502587360388286 11.484068892091528 1 rotate no_reflect no_shear #
shell $-1 $-1 $-1 $24 $-1 $6 #
shell $-1 $-1 $-1 $25 $-1 $8 #
shell $-1 $-1 $-1 $26 $-1 $10 #
shell $-1 $-1 $-1 $27 $-1 $12 #
shell $-1 $-1 $-1 $28 $-1 $14 #
shell $-1 $-1 $-1 $29 $-1 $16 #
face $-1 $30 $31 $18 $-1 $32 forward single #
face $-1 $33 $34 $19 $-1 $35 forward single #
face $-1 $36 $37 $20 $-1 $38 reversed single #
face $-1 $39 $40 $21 $-1 $41 forward single #
face $-1 $42 $43 $22 $-1 $44 reversed single #
face $-1 $45 $46 $23 $-1 $47 forward single #
face $-1 $48 $49 $18 $-1 $50 reversed single #
loop $-1 $-1 $51 $24 #
plane-surface $-1 0 0 11.484068892091528 0 0 1 1 0 0 forward_v I I I I #
face $-1 $52 $53 $19 $-1 $54 reversed single #
loop $-1 $-1 $55 $25 #
plane-surface $-1 0 -18.06290457868376 -8.1368064524171793 0 0 1 1 0 0 forward_v I I I I #
face $-1 $56 $57 $20 $-1 $58 reversed single #
loop $-1 $-1 $59 $26 #
plane-surface $-1 -142.79719294742142 10.11680514128054 89.455222836358899 0 1 0 -0.70710678939079041 0 0.70710677298230451 forward_v I I I I #
face $-1 $60 $61 $21 $-1 $62 forward single #
loop $-1 $63 $64 $27 #
cone-surface $-1 -55.532961433784706 14.362597349934372 7.8684966924092343 0.70710678939079041 0 -0.70710677298230451 0.70710677298230451 0 0.70710678939079041 1 I I 0 1 1 forward I I I I #
face $-1 $65 $66 $22 $-1 $67 reversed single #
loop $-1 $-1 $68 $28 #
plane-surface $-1 44.567613400583227 20.315871408089027 174.36774669442761 0 -1 0 -0.64278761758704617 0 -0.76604443648966558 forward_v I I I I #
face $-1 $69 $70 $23 $-1 $71 forward single #
loop $-1 $72 $73 $29 #
cone-surface $-1 56.51688403749182 16.560098675676254 9.1414881419372982 -0.64278761758704617 0 -0.76604443648966558 0.76604443648966558 0 -0.64278761758704617 1 I I 0 1 1 forward I I I I #
face $-1 $74 $75 $18 $-1 $76 reversed single #
loop $-1 $-1 $77 $30 #
plane-surface $-1 0 0 -11.484068892091528 0 0 1 1 0 0 forward_v I I I I #
coedge $-1 $78 $79 $80 $81 forward $31 $-1 #
face $-1 $82 $83 $19 $-1 $84 reversed single #
loop $-1 $-1 $85 $33 #
plane-surface $-1 0 -11.623221796979234 -9.8104376722543538 0 -1 0 0 0 -1 forward_v I I I I #
coedge $-1 $86 $87 $88 $89 reversed $34 $-1 #
face $-1 $90 $91 $20 $-1 $92 reversed single #
loop $-1 $-1 $93 $36 #
plane-surface $-1 -59.148533585619688 14.362597349934372 5.8065654156329316 -0.70710678939079041 0 0.70710677298230451 0.70710677298230451 0 0.70710678939079041 forward_v I I I I #
coedge $-1 $94 $95 $96 $97 reversed $37 $-1 #
face $-1 $-1 $98 $21 $-1 $99 forward single #
loop $-1 $100 $101 $39 #
cone-surface $-1 -54.402587559610112 14.362597349934372 6.7381228444650816 0.70710678939079041 0 -0.70710677298230451 0.35355338649115226 0 0.35355339469539521 1 I I -0.70710678118654746 0.70710678118654746 0.5 forward I I I I #
loop $-1 $-1 $102 $27 #
coedge $-1 $64 $64 $103 $104 reversed $40 $-1 #
face $-1 $105 $106 $22 $-1 $107 reversed single #
loop $-1 $-1 $108 $42 #
plane-surface $-1 -31.472276573952485 16.560098675676254 83.74693653485545 0.64278761758704617 0 0.76604443648966558 0.76604443648966558 0 -0.64278761758704617 forward_v I I I I #
coedge $-1 $109 $110 $111 $112 reversed $43 $-1 #
face $-1 $-1 $113 $23 $-1 $114 forward single #
loop $-1 $115 $116 $45 #
cone-surface $-1 55.814480600029682 16.560098675676254 8.3043963394241302 -0.64278761758704617 0 -0.76604443648966558 0.38302221824483279 0 -0.32139380879352308 1 I I -0.70710678118654746 0.70710678118654746 0.5 forward I I I I #
loop $-1 $-1 $117 $29 #
coedge $-1 $73 $73 $118 $119 reversed $46 $-1 #
face $-1 $120 $121 $18 $-1 $122 reversed single #
loop $-1 $-1 $123 $48 #
plane-surface $-1 0 -24.502587360388286 0 0 1 0 0 0 1 forward_v I I I I #
coedge $-1 $124 $125 $126 $127 forward $49 $-1 #
coedge $-1 $128 $51 $129 $130 forward $31 $-1 #
coedge $-1 $51 $128 $131 $132 forward $31 $-1 #
coedge $-1 $133 $134 $51 $81 reversed $135 $-1 #
edge $-1 $136 -24.502587360388286 $137 24.502587360388286 $80 $138 forward 7 unknown #
face $-1 $139 $140 $19 $-1 $141 reversed single #
loop $-1 $-1 $142 $52 #
plane-surface $-1 0 0 -11.484068892091528 0 0 1 1 0 0 forward_v I I I I #
coedge $-1 $143 $144 $145 $146 reversed $53 $-1 #
coedge $-1 $147 $55 $144 $148 forward $34 $-1 #
coedge $-1 $55 $147 $149 $150 reversed $34 $-1 #
coedge $-1 $151 $145 $55 $89 forward $140 $-1 #
edge $-1 $152 2.5917695076373537 $153 15.471135071046406 $88 $154 forward 7 unknown #
face $-1 $155 $156 $20 $-1 $157 forward single #
loop $-1 $-1 $158 $56 #
plane-surface $-1 -142.79719294742142 18.608389558588204 89.455222836358899 0 -1 0 0.70710678939079041 0 -0.70710677298230451 forward_v I I I I #
coedge $-1 $159 $160 $161 $162 reversed $57 $-1 #
coedge $-1 $95 $59 $163 $164 reversed $37 $-1 #
coedge $-1 $59 $94 $159 $165 reversed $37 $-1 #
coedge $-1 $161 $166 $59 $97 forward $156 $-1 #
edge $-1 $167 12.250062888091037 $168 17.927566232802569 $96 $169 forward 7 unknown #
loop $-1 $-1 $103 $60 #
plane-surface $-1 -59.148533585619688 14.362597349934372 5.8065654156329316 -0.70710678939079041 0 0.70710677298230451 0.70710677298230451 0 0.70710678939079041 forward_v I I I I #
loop $-1 $-1 $170 $39 #
coedge $-1 $101 $101 $102 $171 reversed $61 $-1 #
coedge $-1 $102 $102 $101 $171 forward $63 $-1 #
coedge $-1 $103 $103 $64 $104 forward $98 $-1 #
edge $-1 $172 0 $172 6.2831853071796004 $103 $173 forward 7 unknown #
face $-1 $174 $175 $22 $-1 $176 reversed single #
loop $-1 $-1 $177 $65 #
plane-surface $-1 44.567613400583227 12.804325943263482 174.36774669442761 0 1 0 0.64278761758704617 0 0.76604443648966558 forward_v I I I I #
coedge $-1 $178 $179 $180 $181 reversed $66 $-1 #
coedge $-1 $110 $68 $182 $183 reversed $43 $-1 #
coedge $-1 $68 $109 $178 $184 reversed $43 $-1 #
coedge $-1 $180 $185 $68 $112 forward $186 $-1 #
edge $-1 $187 -36.864726885328061 $188 -32.363447046409597 $111 $189 forward 7 unknown #
loop $-1 $-1 $118 $69 #
plane-surface $-1 -31.472276573952485 16.560098675676254 83.74693653485545 0.64278761758704617 0 0.76604443648966558 0.76604443648966558 0 -0.64278761758704617 forward_v I I I I #
loop $-1 $-1 $190 $45 #
coedge $-1 $116 $116 $117 $191 reversed $70 $-1 #
coedge $-1 $117 $117 $116 $191 forward $72 $-1 #
coedge $-1 $118 $118 $73 $119 forward $113 $-1 #
edge $-1 $192 0 $192 6.2831853071796004 $118 $193 forward 7 unknown #
face $-1 $194 $195 $18 $-1 $196 reversed single #
loop $-1 $-1 $197 $74 #
plane-surface $-1 -59.148533585619674 0 0 1 0 0 0 0 -1 forward_v I I I I #
coedge $-1 $198 $131 $199 $200 forward $75 $-1 #
coedge $-1 $201 $77 $198 $202 forward $49 $-1 #
coedge $-1 $77 $201 $203 $204 forward $49 $-1 #
coedge $-1 $134 $133 $77 $127 reversed $135 $-1 #
edge $-1 $205 -24.502587360388286 $206 24.502587360388286 $126 $207 forward 7 unknown #
coedge $-1 $79 $78 $208 $209 forward $31 $-1 #
coedge $-1 $210 $211 $78 $130 reversed $195 $-1 #
edge $-1 $137 -59.148533585619674 $212 59.148533585619674 $129 $213 forward 7 unknown #
coedge $-1 $123 $214 $79 $132 reversed $75 $-1 #
edge $-1 $215 -59.148533585619674 $136 59.148533585619674 $131 $216 forward 7 unknown #
coedge $-1 $126 $80 $214 $217 forward $135 $-1 #
coedge $-1 $80 $126 $210 $218 reversed $135 $-1 #
loop $-1 $-1 $133 $194 #
vertex $-1 $81 $219 #
vertex $-1 $81 $220 #
straight-curve $-1 59.148533585619674 0 11.484068892091528 0 1 0 I I #
face $-1 $221 $222 $19 $-1 $223 reversed single #
loop $-1 $-1 $145 $82 #
plane-surface $-1 59.148533585619674 0 0 -1 0 0 0 0 1 forward_v I I I I #
coedge $-1 $224 $225 $143 $226 forward $83 $-1 #
coedge $-1 $227 $85 $142 $226 reversed $53 $-1 #
coedge $-1 $85 $227 $86 $148 reversed $53 $-1 #
coedge $-1 $88 $228 $85 $146 forward $140 $-1 #
edge $-1 $229 -6.5788500559643515 $152 -3.2315876162900024 $145 $230 forward 7 unknown #
coedge $-1 $87 $86 $231 $232 reversed $34 $-1 #
edge $-1 $152 -59.148533585619674 $233 59.148533585619674 $144 $234 forward 7 unknown #
coedge $-1 $235 $236 $87 $150 forward $222 $-1 #
edge $-1 $153 -59.148533585619674 $237 59.148533585619674 $149 $238 forward 7 unknown #
coedge $-1 $228 $88 $236 $239 forward $140 $-1 #
vertex $-1 $89 $240 #
vertex $-1 $239 $241 #
straight-curve $-1 59.148533585619674 -9.03145228934188 -8.1368064524171793 0 -1 0 I I #
face $-1 $-1 $242 $20 $-1 $243 reversed single #
loop $-1 $-1 $96 $90 #
plane-surface $-1 0 0 11.484068892091528 0 0 1 1 0 0 forward_v I I I I #
coedge $-1 $244 $245 $246 $247 reversed $91 $-1 #
coedge $-1 $248 $93 $95 $165 forward $57 $-1 #
coedge $-1 $93 $248 $244 $249 forward $57 $-1 #
coedge $-1 $246 $96 $93 $162 forward $156 $-1 #
edge $-1 $168 2.9355064663133543 $250 11.427090883621018 $161 $251 forward 7 unknown #
coedge $-1 $252 $253 $94 $164 forward $242 $-1 #
edge $-1 $254 -38.921046002546504 $167 -33.243542526087921 $163 $255 forward 7 unknown #
edge $-1 $168 -8.0292023236689136 $254 -2.0097183471152325e-014 $95 $256 forward 7 unknown #
coedge $-1 $96 $246 $252 $257 forward $156 $-1 #
vertex $-1 $164 $258 #
vertex $-1 $97 $259 #
straight-curve $-1 -71.398596473710711 10.11680514128054 11.484068892091528 1 0 0 I I #
coedge $-1 $170 $170 $-1 $260 reversed $100 $-1 #
edge $-1 $261 0 $261 6.2831853071796004 $101 $262 forward 7 unknown #
vertex $-1 $104 $263 #
ellipse-curve $-1 -56.309781913263912 14.362597349934372 8.6453171538622371 -0.70710678939079041 0 0.70710677298230451 0.70710677298230451 0 0.70710678939079041 1 I I #
face $-1 $-1 $186 $22 $-1 $264 forward single #
loop $-1 $-1 $265 $105 #
plane-surface $-1 59.148533585619674 0 0 -1 0 0 0 0 1 forward_v I I I I #
coedge $-1 $266 $267 $268 $269 reversed $106 $-1 #
coedge $-1 $270 $108 $110 $184 forward $66 $-1 #
coedge $-1 $108 $270 $266 $271 forward $66 $-1 #
coedge $-1 $268 $111 $108 $181 forward $186 $-1 #
edge $-1 $188 -12.0358220702509 $272 -4.5242766054253547 $180 $273 forward 7 unknown #
coedge $-1 $274 $275 $109 $183 forward $175 $-1 #
edge $-1 $276 -79.476826786894065 $187 -75.699804455122276 $182 $277 forward 7 unknown #
edge $-1 $188 112.4210636073401 $276 118.29706717123935 $110 $278 forward 7 unknown #
coedge $-1 $111 $268 $274 $279 forward $186 $-1 #
loop $-1 $-1 $268 $174 #
vertex $-1 $183 $280 #
vertex $-1 $112 $281 #
straight-curve $-1 22.283806700291613 20.315871408089027 11.484068892091528 -1 0 0 I I #
coedge $-1 $190 $190 $-1 $282 reversed $115 $-1 #
edge $-1 $283 0 $283 6.2831853071796004 $116 $284 forward 7 unknown #
vertex $-1 $119 $285 #
ellipse-curve $-1 56.897893666160435 16.560098675676254 9.5955577262056373 0.64278761758704617 0 0.76604443648966558 0.76604443648966558 0 -0.64278761758704617 1 I I #
face $-1 $-1 $135 $18 $-1 $286 reversed single #
loop $-1 $-1 $210 $120 #
plane-surface $-1 0 24.502587360388286 0 0 -1 0 0 0 -1 forward_v I I I I #
coedge $-1 $287 $208 $211 $288 forward $121 $-1 #
coedge $-1 $214 $123 $124 $202 reversed $75 $-1 #
coedge $-1 $208 $287 $123 $200 reversed $121 $-1 #
edge $-1 $215 -11.484068892091528 $289 11.484068892091528 $199 $290 forward 7 unknown #
coedge $-1 $125 $124 $287 $291 forward $49 $-1 #
edge $-1 $206 -59.148533585619674 $289 59.148533585619674 $198 $292 forward 7 unknown #
coedge $-1 $211 $210 $125 $204 reversed $195 $-1 #
edge $-1 $293 -59.148533585619674 $205 59.148533585619674 $203 $294 forward 7 unknown #
vertex $-1 $127 $295 #
vertex $-1 $217 $296 #
straight-curve $-1 59.148533585619674 0 -11.484068892091528 0 -1 0 I I #
coedge $-1 $197 $199 $128 $209 reversed $121 $-1 #
edge $-1 $212 -24.502587360388286 $215 24.502587360388286 $208 $297 forward 7 unknown #
coedge $-1 $203 $129 $134 $218 forward $195 $-1 #
coedge $-1 $129 $203 $197 $288 reversed $195 $-1 #
vertex $-1 $130 $298 #
straight-curve $-1 0 24.502587360388286 11.484068892091528 -1 0 0 I I #
coedge $-1 $131 $198 $133 $217 reversed $75 $-1 #
vertex $-1 $209 $299 #
straight-curve $-1 0 -24.502587360388286 11.484068892091528 1 0 0 I I #
edge $-1 $136 -11.484068892091528 $206 11.484068892091528 $133 $300 forward 7 unknown #
edge $-1 $137 -11.484068892091528 $205 11.484068892091528 $134 $301 forward 7 unknown #
point $-1 59.148533585619674 -24.502587360388286 11.484068892091528 #
point $-1 59.148533585619674 24.502587360388286 11.484068892091528 #
face $-1 $-1 $302 $19 $-1 $303 reversed single #
loop $-1 $-1 $149 $139 #
plane-surface $-1 0 -24.502587360388286 0 0 1 0 0 0 1 forward_v I I I I #
coedge $-1 $304 $142 $228 $305 forward $83 $-1 #
coedge $-1 $142 $304 $306 $307 forward $83 $-1 #
edge $-1 $308 -59.148533585619674 $229 59.148533585619674 $142 $309 forward 7 unknown #
coedge $-1 $144 $143 $310 $311 reversed $53 $-1 #
coedge $-1 $145 $151 $224 $305 reversed $140 $-1 #
vertex $-1 $305 $312 #
straight-curve $-1 59.148533585619674 -11.623221796979234 -4.9052188361271769 0 0 1 I I #
coedge $-1 $310 $313 $147 $232 forward $302 $-1 #
edge $-1 $237 -15.471135071046406 $233 -2.5917695076373537 $231 $314 forward 7 unknown #
vertex $-1 $232 $315 #
straight-curve $-1 0 -11.623221796979234 -8.1368064524171793 -1 0 0 I I #
coedge $-1 $316 $149 $313 $317 forward $222 $-1 #
coedge $-1 $149 $316 $151 $239 reversed $222 $-1 #
vertex $-1 $317 $318 #
straight-curve $-1 0 -24.502587360388286 -8.1368064524171793 -1 0 0 I I #
edge $-1 $153 8.1368064524171793 $319 11.484068892091528 $151 $320 forward 7 unknown #
point $-1 59.148533585619674 -11.623221796979234 -8.1368064524171793 #
point $-1 59.148533585619674 -24.502587360388286 -8.1368064524171793 #
loop $-1 $-1 $163 $155 #
plane-surface $-1 -59.148533585619674 0 0 1 0 0 0 0 -1 forward_v I I I I #
coedge $-1 $245 $158 $160 $249 reversed $91 $-1 #
coedge $-1 $158 $244 $321 $322 reversed $91 $-1 #
coedge $-1 $166 $161 $158 $247 forward $156 $-1 #
edge $-1 $250 -17.927566232802569 $323 -12.250062888091037 $246 $324 forward 7 unknown #
coedge $-1 $160 $159 $253 $325 reversed $57 $-1 #
edge $-1 $326 2.0097183471152325e-014 $250 8.0292023236689136 $244 $327 forward 7 unknown #
vertex $-1 $162 $328 #
straight-curve $-1 -53.471030240908149 7.1812986749671861 11.484068892091527 0 1 0 I I #
coedge $-1 $321 $163 $166 $257 reversed $242 $-1 #
coedge $-1 $163 $321 $248 $325 forward $242 $-1 #
vertex $-1 $164 $329 #
straight-curve $-1 -59.148533585619674 10.11680514128054 44.72761141817945 0 0 1 I I #
straight-curve $-1 -59.148533585619688 10.11680514128054 5.8065654156329316 -0.70710677298230451 0 -0.70710678939079041 I I #
edge $-1 $323 -18.608389558588204 $167 -10.11680514128054 $252 $330 forward 7 unknown #
point $-1 -59.148533585619674 10.11680514128054 11.484068892091528 #
point $-1 -53.471030240908142 10.11680514128054 11.484068892091528 #
edge $-1 $331 1 $331 0 $170 $-1 forward 7 unknown #
vertex $-1 $171 $332 #
ellipse-curve $-1 -54.756140954305508 14.362597349934372 7.0916762309562342 -0.70710678939079041 0 0.70710677298230451 0.70710677298230451 0 0.70710678939079041 1 I I #
point $-1 -55.602675140281605 14.362597349934372 9.3524239432530258 #
plane-surface $-1 0 0 11.484068892091528 0 0 1 1 0 0 forward_v I I I I #
coedge $-1 $275 $274 $267 $333 forward $175 $-1 #
coedge $-1 $267 $177 $179 $271 reversed $106 $-1 #
coedge $-1 $177 $266 $265 $333 reversed $106 $-1 #
coedge $-1 $185 $180 $177 $269 forward $186 $-1 #
edge $-1 $272 32.363447046409597 $334 36.864726885328061 $268 $335 forward 7 unknown #
coedge $-1 $179 $178 $275 $336 reversed $66 $-1 #
edge $-1 $337 -118.29706717123935 $272 -112.4210636073401 $266 $338 forward 7 unknown #
vertex $-1 $181 $339 #
straight-curve $-1 54.64725374670121 8.2800493378381272 11.484068892091535 0 -1 0 I I #
coedge $-1 $265 $182 $185 $279 reversed $175 $-1 #
coedge $-1 $182 $265 $270 $336 forward $175 $-1 #
vertex $-1 $183 $340 #
straight-curve $-1 59.148533585619674 20.315871408089027 87.183873347213805 0 0 1 I I #
straight-curve $-1 -31.472276573952485 20.315871408089027 83.74693653485545 0.76604443648966558 0 -0.64278761758704617 I I #
edge $-1 $334 12.804325943263482 $187 20.315871408089027 $274 $341 forward 7 unknown #
point $-1 59.148533585619674 20.315871408089027 11.484068892091528 #
point $-1 54.64725374670121 20.315871408089027 11.484068892091528 #
edge $-1 $342 1 $342 0 $190 $-1 forward 7 unknown #
vertex $-1 $191 $343 #
ellipse-curve $-1 56.135874408823206 16.560098675676254 8.6874185576689626 0.64278761758704617 0 0.76604443648966558 0.76604443648966558 0 -0.64278761758704617 1 I I #
point $-1 57.663938102650093 16.560098675676254 8.9527701086185871 #
plane-surface $-1 59.148533585619674 0 0 -1 0 0 0 0 1 forward_v I I I I #
coedge $-1 $199 $197 $201 $291 reversed $121 $-1 #
edge $-1 $212 -11.484068892091528 $293 11.484068892091528 $211 $344 forward 7 unknown #
vertex $-1 $291 $345 #
straight-curve $-1 -59.148533585619674 -24.502587360388286 0 0 0 -1 I I #
edge $-1 $289 -24.502587360388286 $293 24.502587360388286 $287 $346 forward 7 unknown #
straight-curve $-1 0 -24.502587360388286 -11.484068892091528 -1 0 0 I I #
vertex $-1 $204 $347 #
straight-curve $-1 0 24.502587360388286 -11.484068892091528 1 0 0 I I #
point $-1 59.148533585619674 24.502587360388286 -11.484068892091528 #
point $-1 59.148533585619674 -24.502587360388286 -11.484068892091528 #
straight-curve $-1 -59.148533585619674 0 11.484068892091528 0 -1 0 I I #
point $-1 -59.148533585619674 24.502587360388286 11.484068892091528 #
point $-1 -59.148533585619674 -24.502587360388286 11.484068892091528 #
straight-curve $-1 59.148533585619674 -24.502587360388286 0 0 0 -1 I I #
straight-curve $-1 59.148533585619674 24.502587360388286 0 0 0 -1 I I #
loop $-1 $-1 $310 $221 #
plane-surface $-1 -59.148533585619674 0 0 1 0 0 0 0 -1 forward_v I I I I #
coedge $-1 $225 $224 $316 $348 forward $83 $-1 #
edge $-1 $229 11.623221796979234 $319 24.502587360388286 $228 $349 forward 7 unknown #
coedge $-1 $313 $310 $225 $307 reversed $302 $-1 #
edge $-1 $350 -24.502587360388286 $308 -11.623221796979234 $306 $351 forward 7 unknown #
vertex $-1 $311 $352 #
straight-curve $-1 0 -11.623221796979234 -11.484068892091528 1 0 0 I I #
coedge $-1 $306 $231 $227 $311 forward $302 $-1 #
edge $-1 $233 3.2315876162900024 $308 6.5788500559643515 $310 $353 forward 7 unknown #
point $-1 59.148533585619674 -11.623221796979234 -11.484068892091528 #
coedge $-1 $231 $306 $235 $317 reversed $302 $-1 #
straight-curve $-1 -59.148533585619674 -9.03145228934188 -8.1368064524171793 0 1 0 I I #
point $-1 -59.148533585619674 -11.623221796979234 -8.1368064524171793 #
coedge $-1 $236 $235 $304 $348 reversed $222 $-1 #
edge $-1 $237 8.1368064524171793 $350 11.484068892091528 $313 $354 forward 7 unknown #
point $-1 -59.148533585619674 -24.502587360388286 -8.1368064524171793 #
vertex $-1 $239 $355 #
straight-curve $-1 59.148533585619674 -24.502587360388286 0 0 0 -1 I I #
coedge $-1 $253 $252 $245 $322 forward $242 $-1 #
edge $-1 $323 33.243542526087921 $326 38.921046002546504 $321 $356 forward 7 unknown #
vertex $-1 $257 $357 #
straight-curve $-1 -71.398596473710711 18.608389558588204 11.484068892091528 -1 0 0 I I #
edge $-1 $326 -11.427090883621018 $254 -2.9355064663133543 $253 $358 forward 7 unknown #
vertex $-1 $325 $359 #
straight-curve $-1 -59.148533585619688 18.608389558588204 5.8065654156329316 0.70710677298230451 0 0.70710678939079041 I I #
point $-1 -53.471030240908142 18.608389558588204 11.484068892091528 #
point $-1 -59.148533585619674 10.11680514128054 5.8065654156329458 #
straight-curve $-1 -59.148533585619674 0 11.484068892091528 0 -1 0 I I #
vertex $-1 $260 $360 #
point $-1 -54.049034181323201 14.362597349934372 7.7987830203470239 #
edge $-1 $334 75.699804455122276 $337 79.476826786894065 $265 $361 forward 7 unknown #
vertex $-1 $279 $362 #
straight-curve $-1 22.283806700291613 12.804325943263482 11.484068892091528 1 0 0 I I #
edge $-1 $337 4.5242766054253547 $276 12.0358220702509 $275 $363 forward 7 unknown #
vertex $-1 $336 $364 #
straight-curve $-1 -31.472276573952485 12.804325943263482 83.74693653485545 -0.76604443648966558 0 0.64278761758704617 I I #
point $-1 54.64725374670121 12.804325943263482 11.484068892091528 #
point $-1 59.148533585619674 20.315871408089027 7.7070465603197391 #
straight-curve $-1 59.148533585619674 0 11.484068892091528 0 1 0 I I #
vertex $-1 $282 $365 #
point $-1 56.901918845312871 16.560098675676254 8.044630940081916 #
straight-curve $-1 -59.148533585619674 24.502587360388286 0 0 0 -1 I I #
point $-1 -59.148533585619674 -24.502587360388286 -11.484068892091528 #
straight-curve $-1 -59.148533585619674 0 -11.484068892091528 0 1 0 I I #
point $-1 -59.148533585619674 24.502587360388286 -11.484068892091528 #
edge $-1 $319 -59.148533585619674 $350 59.148533585619674 $316 $366 forward 7 unknown #
straight-curve $-1 59.148533585619674 0 -11.484068892091528 0 -1 0 I I #
vertex $-1 $307 $367 #
straight-curve $-1 -59.148533585619674 0 -11.484068892091528 0 1 0 I I #
point $-1 -59.148533585619674 -11.623221796979234 -11.484068892091528 #
straight-curve $-1 -59.148533585619674 -11.623221796979234 -4.9052188361271769 0 0 -1 I I #
straight-curve $-1 -59.148533585619674 -24.502587360388286 0 0 0 -1 I I #
point $-1 59.148533585619674 -24.502587360388286 -11.484068892091528 #
straight-curve $-1 -59.148533585619674 18.608389558588204 44.72761141817945 0 0 -1 I I #
point $-1 -59.148533585619674 18.608389558588204 11.484068892091528 #
straight-curve $-1 -59.148533585619674 7.1812986749671861 5.8065654156329458 0 -1 0 I I #
point $-1 -59.148533585619674 18.608389558588204 5.8065654156329458 #
point $-1 -54.049034164914715 14.362597349934372 6.3845694579739289 #
straight-curve $-1 59.148533585619674 12.804325943263482 87.183873347213805 0 0 -1 I I #
point $-1 59.148533585619674 12.804325943263482 11.484068892091528 #
straight-curve $-1 59.148533585619674 8.2800493378381272 7.7070465603197462 0 1 0 I I #
point $-1 59.148533585619674 12.804325943263482 7.7070465603197391 #
point $-1 55.493086791236159 16.560098675676254 7.9213741211792978 #
straight-curve $-1 0 -24.502587360388286 -11.484068892091528 -1 0 0 I I #
point $-1 -59.148533585619674 -24.502587360388286 -11.484068892091528 #
End-of-ACIS-data 