500 0 12 0           
7 Unknown 11 ACIS 5.0 NT 24 Fri Mar 26 02:22:31 1999 
-1 9.9999999999999995e-007 1e-010 
body $-1 $12 $-1 $13 #
body $-1 $14 $-1 $15 #
body $-1 $16 $-1 $17 #
body $-1 $18 $-1 $19 #
body $-1 $20 $-1 $21 #
body $-1 $22 $-1 $23 #
body $-1 $24 $-1 $25 #
body $-1 $26 $-1 $27 #
body $-1 $28 $-1 $29 #
body $-1 $30 $-1 $31 #
body $-1 $32 $-1 $33 #
body $-1 $34 $-1 $35 #
lump $-1 $-1 $36 $0 #
transform $-1 1 0 0 0 1 0 0 0 1 74.584795678579056 52.092587053489453 24.650300585930218 1 rotate no_reflect no_shear #
lump $-1 $-1 $37 $1 #
transform $-1 1 0 0 0 1 0 0 0 1 74.584795678579056 52.092587053489453 24.650300585930218 1 rotate no_reflect no_shear #
lump $-1 $-1 $38 $2 #
transform $-1 1 0 0 0 1 0 0 0 1 74.584795678579056 52.092587053489453 24.650300585930218 1 rotate no_reflect no_shear #
lump $-1 $-1 $39 $3 #
transform $-1 1 0 0 0 1 0 0 0 1 74.584795678579056 52.092587053489453 24.650300585930218 1 rotate no_reflect no_shear #
lump $-1 $-1 $40 $4 #
transform $-1 1 0 0 0 1 0 0 0 1 74.584795678579056 52.092587053489453 24.650300585930218 1 rotate no_reflect no_shear #
lump $-1 $-1 $41 $5 #
transform $-1 1 0 0 0 1 0 0 0 1 74.584795678579056 52.092587053489453 24.650300585930218 1 rotate no_reflect no_shear #
lump $-1 $-1 $42 $6 #
transform $-1 1 0 0 0 1 0 0 0 1 74.584795678579056 52.092587053489453 24.650300585930218 1 rotate no_reflect no_shear #
lump $-1 $-1 $43 $7 #
transform $-1 1 0 0 0 1 0 0 0 1 74.584795678579056 52.092587053489453 24.650300585930218 1 rotate no_reflect no_shear #
lump $-1 $-1 $44 $8 #
transform $-1 1 0 0 0 1 0 0 0 1 74.584795678579056 52.092587053489453 24.650300585930218 1 rotate no_reflect no_shear #
lump $-1 $-1 $45 $9 #
transform $-1 1 0 0 0 1 0 0 0 1 74.584795678579056 52.092587053489453 24.650300585930218 1 rotate no_reflect no_shear #
lump $-1 $-1 $46 $10 #
transform $-1 1 0 0 0 1 0 0 0 1 74.584795678579056 52.092587053489453 24.650300585930218 1 rotate no_reflect no_shear #
lump $-1 $-1 $47 $11 #
transform $-1 1 0 0 0 1 0 0 0 1 74.584795678579056 52.092587053489453 24.650300585930218 1 rotate no_reflect no_shear #
shell $-1 $-1 $-1 $48 $-1 $12 #
shell $-1 $-1 $-1 $49 $-1 $14 #
shell $-1 $-1 $-1 $50 $-1 $16 #
shell $-1 $-1 $-1 $51 $-1 $18 #
shell $-1 $-1 $-1 $52 $-1 $20 #
shell $-1 $-1 $-1 $53 $-1 $22 #
shell $-1 $-1 $-1 $54 $-1 $24 #
shell $-1 $-1 $-1 $55 $-1 $26 #
shell $-1 $-1 $-1 $56 $-1 $28 #
shell $-1 $-1 $-1 $57 $-1 $30 #
shell $-1 $-1 $-1 $58 $-1 $32 #
shell $-1 $-1 $-1 $59 $-1 $34 #
face $-1 $60 $61 $36 $-1 $62 forward single #
face $-1 $63 $64 $37 $-1 $65 forward single #
face $-1 $66 $67 $38 $-1 $68 reversed single #
face $-1 $69 $70 $39 $-1 $71 forward single #
face $-1 $72 $73 $40 $-1 $74 forward single #
face $-1 $75 $76 $41 $-1 $77 forward single #
face $-1 $78 $79 $42 $-1 $80 reversed single #
face $-1 $81 $82 $43 $-1 $83 forward single #
face $-1 $84 $85 $44 $-1 $86 forward single #
face $-1 $87 $88 $45 $-1 $89 reversed single #
face $-1 $90 $91 $46 $-1 $92 forward single #
face $-1 $93 $94 $47 $-1 $95 forward single #
face $-1 $96 $97 $36 $-1 $98 reversed single #
loop $-1 $-1 $99 $48 #
plane-surface $-1 0 0 24.650300585930218 0 0 1 1 0 0 forward_v I I I I #
face $-1 $100 $101 $37 $-1 $102 reversed single #
loop $-1 $-1 $103 $49 #
plane-surface $-1 0 -52.092587053489453 0 0 1 0 0 0 1 forward_v I I I I #
face $-1 $104 $105 $38 $-1 $106 reversed single #
loop $-1 $-1 $107 $50 #
plane-surface $-1 125.62007559513351 21.265943430654726 222.46904767779171 0 -1 0 -0.85716730853699208 0 -0.51503806187062418 forward_v I I I I #
face $-1 $108 $109 $39 $-1 $110 forward single #
loop $-1 $111 $112 $51 #
cone-surface $-1 70.912425013388386 5.6043870429268026 20.248047481332328 -0.85716730853699208 0 -0.51503806187062418 0.51503806187062418 0 -0.85716730853699208 1 I I 0 1 1 forward I I I I #
face $-1 $113 $114 $40 $-1 $115 forward single #
loop $-1 $116 $117 $52 #
cone-surface $-1 70.912425013388386 11.477470688324779 20.248047481332328 -0.85716730853699208 0 -0.51503806187062418 0.51503806187062418 0 -0.85716730853699208 1 I I 0 1 1 forward I I I I #
face $-1 $118 $119 $41 $-1 $120 forward single #
loop $-1 $121 $122 $53 #
cone-surface $-1 70.912425013388386 17.350554333722755 20.248047481332328 -0.85716730853699208 0 -0.51503806187062418 0.51503806187062418 0 -0.85716730853699208 1 I I 0 1 1 forward I I I I #
face $-1 $123 $124 $42 $-1 $125 reversed single #
loop $-1 $-1 $126 $54 #
plane-surface $-1 -151.41281586828381 -0.47394679480862933 128.71233970748909 0 1 0 -0.51503808176128008 0 0.85716729658548041 forward_v I I I I #
face $-1 $127 $128 $43 $-1 $129 forward single #
loop $-1 $130 $131 $55 #
cone-surface $-1 -54.474080477786281 4.0629717335894355 12.24249269783161 0.51503808176128008 0 -0.85716729658548041 0.85716729658548041 0 0.51503808176128008 1 I I 0 1 1 forward I I I I #
face $-1 $132 $133 $44 $-1 $134 forward single #
loop $-1 $135 $136 $56 #
cone-surface $-1 -54.474080477786281 10.868349526186535 12.24249269783161 0.51503808176128008 0 -0.85716729658548041 0.85716729658548041 0 0.51503808176128008 1 I I 0 1 1 forward I I I I #
face $-1 $137 $138 $45 $-1 $139 reversed single #
loop $-1 $-1 $140 $57 #
plane-surface $-1 -151.41281586828381 36.213372204096231 128.71233970748909 0 1 0 -0.51503808176128008 0 0.85716729658548041 forward_v I I I I #
face $-1 $141 $142 $46 $-1 $143 forward single #
loop $-1 $144 $145 $58 #
cone-surface $-1 -54.474080477786281 40.750290732494292 12.24249269783161 0.51503808176128008 0 -0.85716729658548041 0.85716729658548041 0 0.51503808176128008 1 I I 0 1 1 forward I I I I #
face $-1 $146 $147 $47 $-1 $148 forward single #
loop $-1 $149 $150 $59 #
cone-surface $-1 -54.474080477786281 47.555668525091392 12.24249269783161 0.51503808176128008 0 -0.85716729658548041 0.85716729658548041 0 0.51503808176128008 1 I I 0 1 1 forward I I I I #
face $-1 $151 $152 $36 $-1 $153 reversed single #
loop $-1 $-1 $154 $60 #
plane-surface $-1 0 0 -24.650300585930218 0 0 1 1 0 0 forward_v I I I I #
coedge $-1 $155 $156 $157 $158 forward $61 $-1 #
face $-1 $159 $160 $37 $-1 $161 reversed single #
loop $-1 $-1 $162 $63 #
plane-surface $-1 0 0 -24.650300585930218 0 0 1 1 0 0 forward_v I I I I #
coedge $-1 $163 $164 $165 $166 forward $64 $-1 #
face $-1 $167 $168 $38 $-1 $169 reversed single #
loop $-1 $-1 $170 $66 #
plane-surface $-1 -2.2432215440446583 11.477470688324772 145.64103045516799 0.85716730853699208 0 0.51503806187062418 0.51503806187062418 0 -0.85716730853699208 forward_v I I I I #
coedge $-1 $171 $172 $173 $174 reversed $67 $-1 #
face $-1 $-1 $175 $39 $-1 $176 forward single #
loop $-1 $177 $178 $69 #
cone-surface $-1 68.876198134845609 5.6043870429268026 19.024558980769335 -0.85716730853699208 0 -0.51503806187062418 0.25751903093531209 0 -0.42858365426849604 1 I I -0.70710678118654746 0.70710678118654746 0.5 forward I I I I #
loop $-1 $-1 $179 $51 #
coedge $-1 $112 $112 $180 $181 reversed $70 $-1 #
face $-1 $-1 $182 $40 $-1 $183 forward single #
loop $-1 $184 $185 $72 #
cone-surface $-1 68.876198134845609 11.477470688324779 19.024558980769335 -0.85716730853699208 0 -0.51503806187062418 0.25751903093531209 0 -0.42858365426849604 1 I I -0.70710678118654746 0.70710678118654746 0.5 forward I I I I #
loop $-1 $-1 $186 $52 #
coedge $-1 $117 $117 $187 $188 reversed $73 $-1 #
face $-1 $-1 $189 $41 $-1 $190 forward single #
loop $-1 $191 $192 $75 #
cone-surface $-1 68.876198134845609 17.350554333722755 19.024558980769335 -0.85716730853699208 0 -0.51503806187062418 0.25751903093531209 0 -0.42858365426849604 1 I I -0.70710678118654746 0.70710678118654746 0.5 forward I I I I #
loop $-1 $-1 $193 $53 #
coedge $-1 $122 $122 $194 $195 reversed $76 $-1 #
face $-1 $196 $197 $42 $-1 $198 reversed single #
loop $-1 $-1 $199 $78 #
plane-surface $-1 -74.584795678579084 7.4656606298879922 0.84904435111303656 -0.51503808176128008 0 0.85716729658548041 0.85716729658548041 0 0.51503808176128008 forward_v I I I I #
coedge $-1 $200 $201 $202 $203 reversed $79 $-1 #
face $-1 $-1 $204 $43 $-1 $205 forward single #
loop $-1 $206 $207 $81 #
cone-surface $-1 -53.911817080413208 4.0629717335894355 11.30672927884887 0.51503808176128008 0 -0.85716729658548041 0.4285836482927402 0 0.25751904088064004 1 I I -0.70710678118654746 0.70710678118654746 0.5 forward I I I I #
loop $-1 $-1 $208 $55 #
coedge $-1 $131 $131 $209 $210 reversed $82 $-1 #
face $-1 $-1 $211 $44 $-1 $212 forward single #
loop $-1 $213 $214 $84 #
cone-surface $-1 -53.911817080413208 10.868349526186535 11.30672927884887 0.51503808176128008 0 -0.85716729658548041 0.4285836482927402 0 0.25751904088064004 1 I I -0.70710678118654746 0.70710678118654746 0.5 forward I I I I #
loop $-1 $-1 $215 $56 #
coedge $-1 $136 $136 $216 $217 reversed $85 $-1 #
face $-1 $218 $219 $45 $-1 $220 forward single #
loop $-1 $-1 $221 $87 #
plane-surface $-1 -74.584795678579084 44.152979628792849 0.84904435111303656 -0.51503808176128008 0 0.85716729658548041 0.85716729658548041 0 0.51503808176128008 forward_v I I I I #
coedge $-1 $222 $223 $224 $225 reversed $88 $-1 #
face $-1 $-1 $226 $46 $-1 $227 forward single #
loop $-1 $228 $229 $90 #
cone-surface $-1 -53.911817080413208 40.750290732494292 11.30672927884887 0.51503808176128008 0 -0.85716729658548041 0.4285836482927402 0 0.25751904088064004 1 I I -0.70710678118654746 0.70710678118654746 0.5 forward I I I I #
loop $-1 $-1 $230 $58 #
coedge $-1 $145 $145 $231 $232 reversed $91 $-1 #
face $-1 $-1 $233 $47 $-1 $234 forward single #
loop $-1 $235 $236 $93 #
cone-surface $-1 -53.911817080413208 47.555668525091392 11.30672927884887 0.51503808176128008 0 -0.85716729658548041 0.4285836482927402 0 0.25751904088064004 1 I I -0.70710678118654746 0.70710678118654746 0.5 forward I I I I #
loop $-1 $-1 $237 $59 #
coedge $-1 $150 $150 $238 $239 reversed $94 $-1 #
face $-1 $240 $241 $36 $-1 $242 reversed single #
loop $-1 $-1 $243 $96 #
plane-surface $-1 0 -52.092587053489453 0 0 1 0 0 0 1 forward_v I I I I #
coedge $-1 $244 $245 $246 $247 forward $97 $-1 #
coedge $-1 $248 $99 $249 $250 forward $61 $-1 #
coedge $-1 $99 $248 $251 $252 forward $61 $-1 #
coedge $-1 $253 $254 $99 $158 reversed $255 $-1 #
edge $-1 $256 -52.092587053489453 $257 52.092587053489453 $157 $258 forward 7 unknown #
face $-1 $259 $260 $37 $-1 $261 forward single #
loop $-1 $-1 $262 $100 #
plane-surface $-1 74.584795678579056 0 0 -1 0 0 0 0 1 forward_v I I I I #
coedge $-1 $263 $264 $265 $266 forward $101 $-1 #
coedge $-1 $265 $103 $262 $267 reversed $64 $-1 #
coedge $-1 $103 $265 $268 $269 reversed $64 $-1 #
coedge $-1 $270 $271 $103 $166 reversed $260 $-1 #
edge $-1 $272 -74.584795678579056 $273 74.584795678579056 $165 $274 forward 7 unknown #
face $-1 $275 $276 $38 $-1 $277 reversed single #
loop $-1 $-1 $278 $104 #
plane-surface $-1 125.62007559513351 1.6889979459948172 222.46904767779171 0 1 0 0.85716730853699208 0 0.51503806187062418 forward_v I I I I #
coedge $-1 $279 $280 $281 $282 reversed $105 $-1 #
coedge $-1 $172 $107 $283 $284 reversed $67 $-1 #
coedge $-1 $107 $171 $279 $285 reversed $67 $-1 #
coedge $-1 $281 $286 $107 $174 forward $287 $-1 #
edge $-1 $288 -11.774757881012299 $289 -7.6453029991794992 $173 $290 forward 7 unknown #
loop $-1 $-1 $180 $108 #
plane-surface $-1 -2.2432215440446583 11.477470688324772 145.64103045516799 0.85716730853699208 0 0.51503806187062418 0.51503806187062418 0 -0.85716730853699208 forward_v I I I I #
loop $-1 $-1 $291 $69 #
coedge $-1 $178 $178 $179 $292 reversed $109 $-1 #
coedge $-1 $179 $179 $178 $292 forward $111 $-1 #
coedge $-1 $180 $180 $112 $181 forward $175 $-1 #
edge $-1 $293 0 $293 6.2831853071796004 $180 $294 forward 7 unknown #
loop $-1 $-1 $187 $113 #
plane-surface $-1 -2.2432215440446583 11.477470688324772 145.64103045516799 0.85716730853699208 0 0.51503806187062418 0.51503806187062418 0 -0.85716730853699208 forward_v I I I I #
loop $-1 $-1 $295 $72 #
coedge $-1 $185 $185 $186 $296 reversed $114 $-1 #
coedge $-1 $186 $186 $185 $296 forward $116 $-1 #
coedge $-1 $187 $187 $117 $188 forward $182 $-1 #
edge $-1 $297 0 $297 6.2831853071796004 $187 $298 forward 7 unknown #
loop $-1 $-1 $194 $118 #
plane-surface $-1 -2.2432215440446583 11.477470688324772 145.64103045516799 0.85716730853699208 0 0.51503806187062418 0.51503806187062418 0 -0.85716730853699208 forward_v I I I I #
loop $-1 $-1 $299 $75 #
coedge $-1 $192 $192 $193 $300 reversed $119 $-1 #
coedge $-1 $193 $193 $192 $300 forward $121 $-1 #
coedge $-1 $194 $194 $122 $195 forward $189 $-1 #
edge $-1 $301 0 $301 6.2831853071796004 $194 $302 forward 7 unknown #
face $-1 $303 $304 $42 $-1 $305 forward single #
loop $-1 $-1 $306 $123 #
plane-surface $-1 -151.41281586828381 15.405268054584614 128.71233970748909 0 -1 0 0.51503808176128008 0 -0.85716729658548041 forward_v I I I I #
coedge $-1 $307 $308 $309 $310 reversed $124 $-1 #
coedge $-1 $201 $126 $311 $312 reversed $79 $-1 #
coedge $-1 $126 $200 $307 $313 reversed $79 $-1 #
coedge $-1 $309 $314 $126 $203 forward $304 $-1 #
edge $-1 $315 1.1216122555628516 $316 40.733553944163461 $202 $317 forward 7 unknown #
loop $-1 $-1 $209 $127 #
plane-surface $-1 -74.584795678579084 7.4656606298879922 0.84904435111303656 -0.51503808176128008 0 0.85716729658548041 0.85716729658548041 0 0.51503808176128008 forward_v I I I I #
loop $-1 $-1 $318 $81 #
coedge $-1 $207 $207 $208 $319 reversed $128 $-1 #
coedge $-1 $208 $208 $207 $319 forward $130 $-1 #
coedge $-1 $209 $209 $131 $210 forward $204 $-1 #
edge $-1 $320 0 $320 6.2831853071796004 $209 $321 forward 7 unknown #
loop $-1 $-1 $216 $132 #
plane-surface $-1 -74.584795678579084 7.4656606298879922 0.84904435111303656 -0.51503808176128008 0 0.85716729658548041 0.85716729658548041 0 0.51503808176128008 forward_v I I I I #
loop $-1 $-1 $322 $84 #
coedge $-1 $214 $214 $215 $323 reversed $133 $-1 #
coedge $-1 $215 $215 $214 $323 forward $135 $-1 #
coedge $-1 $216 $216 $136 $217 forward $211 $-1 #
edge $-1 $324 0 $324 6.2831853071796004 $216 $325 forward 7 unknown #
face $-1 $326 $327 $45 $-1 $328 reversed single #
loop $-1 $-1 $224 $137 #
plane-surface $-1 0 0 24.650300585930218 0 0 1 1 0 0 forward_v I I I I #
coedge $-1 $329 $330 $331 $332 reversed $138 $-1 #
coedge $-1 $223 $140 $333 $334 reversed $88 $-1 #
coedge $-1 $140 $222 $329 $335 reversed $88 $-1 #
coedge $-1 $331 $336 $140 $225 forward $219 $-1 #
edge $-1 $337 1.1216122555628516 $338 40.733553944163461 $224 $339 forward 7 unknown #
loop $-1 $-1 $231 $141 #
plane-surface $-1 -74.584795678579084 44.152979628792849 0.84904435111303656 -0.51503808176128008 0 0.85716729658548041 0.85716729658548041 0 0.51503808176128008 forward_v I I I I #
loop $-1 $-1 $340 $90 #
coedge $-1 $229 $229 $230 $341 reversed $142 $-1 #
coedge $-1 $230 $230 $229 $341 forward $144 $-1 #
coedge $-1 $231 $231 $145 $232 forward $226 $-1 #
edge $-1 $342 0 $342 6.2831853071796004 $231 $343 forward 7 unknown #
loop $-1 $-1 $238 $146 #
plane-surface $-1 -74.584795678579084 44.152979628792849 0.84904435111303656 -0.51503808176128008 0 0.85716729658548041 0.85716729658548041 0 0.51503808176128008 forward_v I I I I #
loop $-1 $-1 $344 $93 #
coedge $-1 $236 $236 $237 $345 reversed $147 $-1 #
coedge $-1 $237 $237 $236 $345 forward $149 $-1 #
coedge $-1 $238 $238 $150 $239 forward $233 $-1 #
edge $-1 $346 0 $346 6.2831853071796004 $238 $347 forward 7 unknown #
face $-1 $348 $349 $36 $-1 $350 reversed single #
loop $-1 $-1 $351 $151 #
plane-surface $-1 -74.584795678579056 0 0 1 0 0 0 0 -1 forward_v I I I I #
coedge $-1 $352 $251 $353 $354 forward $152 $-1 #
coedge $-1 $355 $154 $352 $356 forward $97 $-1 #
coedge $-1 $154 $355 $357 $358 forward $97 $-1 #
coedge $-1 $254 $253 $154 $247 reversed $255 $-1 #
edge $-1 $359 -52.092587053489453 $360 52.092587053489453 $246 $361 forward 7 unknown #
coedge $-1 $156 $155 $362 $363 forward $61 $-1 #
coedge $-1 $364 $365 $155 $250 reversed $349 $-1 #
edge $-1 $257 -74.584795678579056 $366 74.584795678579056 $249 $367 forward 7 unknown #
coedge $-1 $243 $368 $156 $252 reversed $152 $-1 #
edge $-1 $369 -74.584795678579056 $256 74.584795678579056 $251 $370 forward 7 unknown #
coedge $-1 $246 $157 $368 $371 forward $255 $-1 #
coedge $-1 $157 $246 $364 $372 reversed $255 $-1 #
loop $-1 $-1 $253 $348 #
vertex $-1 $158 $373 #
vertex $-1 $158 $374 #
straight-curve $-1 74.584795678579056 0 24.650300585930218 0 1 0 I I #
face $-1 $375 $376 $37 $-1 $377 reversed single #
loop $-1 $-1 $271 $159 #
plane-surface $-1 0 -67.497855108074049 -16.198618498382025 0 0 1 1 0 0 forward_v I I I I #
coedge $-1 $378 $379 $163 $267 forward $160 $-1 #
coedge $-1 $380 $162 $379 $381 forward $101 $-1 #
coedge $-1 $162 $380 $382 $383 forward $101 $-1 #
coedge $-1 $164 $163 $162 $266 reversed $64 $-1 #
edge $-1 $384 -74.584795678579056 $385 74.584795678579056 $162 $386 forward 7 unknown #
edge $-1 $385 -24.650300585930218 $273 -16.198618498382025 $262 $387 forward 7 unknown #
coedge $-1 $382 $388 $164 $269 forward $389 $-1 #
edge $-1 $272 16.198618498382025 $384 24.650300585930218 $268 $390 forward 7 unknown #
coedge $-1 $391 $165 $388 $392 forward $260 $-1 #
coedge $-1 $165 $391 $378 $393 forward $260 $-1 #
vertex $-1 $269 $394 #
vertex $-1 $393 $395 #
straight-curve $-1 0 -52.092587053489453 -16.198618498382025 1 0 0 I I #
face $-1 $-1 $287 $38 $-1 $396 forward single #
loop $-1 $-1 $397 $167 #
plane-surface $-1 74.584795678579056 0 0 -1 0 0 0 0 1 forward_v I I I I #
coedge $-1 $398 $399 $400 $401 reversed $168 $-1 #
coedge $-1 $402 $170 $172 $285 forward $105 $-1 #
coedge $-1 $170 $402 $398 $403 forward $105 $-1 #
coedge $-1 $400 $173 $170 $282 forward $287 $-1 #
edge $-1 $289 -15.52720808649234 $404 4.0497373981675686 $281 $405 forward 7 unknown #
coedge $-1 $406 $407 $171 $284 forward $276 $-1 #
edge $-1 $408 -93.456790522906005 $288 -86.584223252965643 $283 $409 forward 7 unknown #
edge $-1 $289 141.15182492872256 $408 149.16959135715811 $172 $410 forward 7 unknown #
coedge $-1 $173 $400 $406 $411 forward $287 $-1 #
loop $-1 $-1 $400 $275 #
vertex $-1 $284 $412 #
vertex $-1 $174 $413 #
straight-curve $-1 62.810037797566757 21.265943430654726 24.650300585930211 -1 0 0 I I #
coedge $-1 $291 $291 $-1 $414 reversed $177 $-1 #
edge $-1 $415 0 $415 6.2831853071796004 $178 $416 forward 7 unknown #
vertex $-1 $181 $417 #
ellipse-curve $-1 72.520068237662656 5.6043870429268026 21.214016950960009 0.85716730853699208 0 0.51503806187062418 0.51503806187062418 0 -0.85716730853699208 1 I I #
coedge $-1 $295 $295 $-1 $418 reversed $184 $-1 #
edge $-1 $419 0 $419 6.2831853071796004 $185 $420 forward 7 unknown #
vertex $-1 $188 $421 #
ellipse-curve $-1 72.520068237662656 11.477470688324779 21.214016950960009 0.85716730853699208 0 0.51503806187062418 0.51503806187062418 0 -0.85716730853699208 1 I I #
coedge $-1 $299 $299 $-1 $422 reversed $191 $-1 #
edge $-1 $423 0 $423 6.2831853071796004 $192 $424 forward 7 unknown #
vertex $-1 $195 $425 #
ellipse-curve $-1 72.520068237662656 17.350554333722755 21.214016950960009 0.85716730853699208 0 0.51503806187062418 0.51503806187062418 0 -0.85716730853699208 1 I I #
face $-1 $-1 $426 $42 $-1 $427 reversed single #
loop $-1 $-1 $202 $196 #
plane-surface $-1 0 0 24.650300585930218 0 0 1 1 0 0 forward_v I I I I #
coedge $-1 $428 $429 $430 $431 reversed $197 $-1 #
coedge $-1 $432 $199 $201 $313 forward $124 $-1 #
coedge $-1 $199 $432 $428 $433 forward $124 $-1 #
coedge $-1 $430 $202 $199 $310 forward $304 $-1 #
edge $-1 $316 -4.2067771097526254 $434 11.672437739640618 $309 $435 forward 7 unknown #
coedge $-1 $436 $437 $200 $312 forward $426 $-1 #
edge $-1 $438 -63.507125502631496 $315 -39.705869267814329 $311 $439 forward 7 unknown #
edge $-1 $316 -46.212614324408449 $438 -3.3167989745521721e-014 $201 $440 forward 7 unknown #
coedge $-1 $202 $430 $436 $441 forward $304 $-1 #
vertex $-1 $312 $442 #
vertex $-1 $203 $443 #
straight-curve $-1 -75.706407934141907 -0.47394679480862933 24.650300585930218 1 0 0 I I #
coedge $-1 $318 $318 $-1 $444 reversed $206 $-1 #
edge $-1 $445 0 $445 6.2831853071796004 $207 $446 forward 7 unknown #
vertex $-1 $210 $447 #
ellipse-curve $-1 -54.778824834278737 4.0629717335894355 12.749672468521645 -0.51503808176128008 0 0.85716729658548041 0.85716729658548041 0 0.51503808176128008 1 I I #
coedge $-1 $322 $322 $-1 $448 reversed $213 $-1 #
edge $-1 $449 0 $449 6.2831853071796004 $214 $450 forward 7 unknown #
vertex $-1 $217 $451 #
ellipse-curve $-1 -54.778824834278737 10.868349526186535 12.749672468521645 -0.51503808176128008 0 0.85716729658548041 0.85716729658548041 0 0.51503808176128008 1 I I #
face $-1 $-1 $452 $45 $-1 $453 reversed single #
loop $-1 $-1 $454 $218 #
plane-surface $-1 0 52.092587053489453 0 0 -1 0 0 0 -1 forward_v I I I I #
coedge $-1 $455 $221 $223 $335 forward $138 $-1 #
coedge $-1 $221 $455 $454 $456 reversed $138 $-1 #
coedge $-1 $457 $224 $221 $332 forward $219 $-1 #
edge $-1 $338 14.136882389699807 $458 30.016097239093043 $331 $459 forward 7 unknown #
coedge $-1 $460 $461 $222 $334 forward $452 $-1 #
edge $-1 $462 -63.507125502631496 $337 -39.705869267814329 $333 $463 forward 7 unknown #
edge $-1 $338 -46.212614324408449 $462 -3.3167989745521721e-014 $223 $464 forward 7 unknown #
coedge $-1 $224 $457 $460 $465 forward $219 $-1 #
vertex $-1 $334 $466 #
vertex $-1 $225 $467 #
straight-curve $-1 -75.706407934141907 36.213372204096231 24.650300585930218 1 0 0 I I #
coedge $-1 $340 $340 $-1 $468 reversed $228 $-1 #
edge $-1 $469 0 $469 6.2831853071796004 $229 $470 forward 7 unknown #
vertex $-1 $232 $471 #
ellipse-curve $-1 -54.778824834278737 40.750290732494292 12.749672468521645 -0.51503808176128008 0 0.85716729658548041 0.85716729658548041 0 0.51503808176128008 1 I I #
coedge $-1 $344 $344 $-1 $472 reversed $235 $-1 #
edge $-1 $473 0 $473 6.2831853071796004 $236 $474 forward 7 unknown #
vertex $-1 $239 $475 #
ellipse-curve $-1 -54.778824834278737 47.555668525091392 12.749672468521645 -0.51503808176128008 0 0.85716729658548041 0.85716729658548041 0 0.51503808176128008 1 I I #
face $-1 $-1 $255 $36 $-1 $476 reversed single #
loop $-1 $-1 $364 $240 #
plane-surface $-1 0 52.092587053489453 0 0 -1 0 0 0 -1 forward_v I I I I #
coedge $-1 $477 $362 $365 $478 forward $241 $-1 #
coedge $-1 $368 $243 $244 $356 reversed $152 $-1 #
coedge $-1 $362 $477 $243 $354 reversed $241 $-1 #
edge $-1 $369 -24.650300585930218 $479 24.650300585930218 $353 $480 forward 7 unknown #
coedge $-1 $245 $244 $477 $481 forward $97 $-1 #
edge $-1 $360 -74.584795678579056 $479 74.584795678579056 $352 $482 forward 7 unknown #
coedge $-1 $365 $364 $245 $358 reversed $349 $-1 #
edge $-1 $483 -74.584795678579056 $359 74.584795678579056 $357 $484 forward 7 unknown #
vertex $-1 $247 $485 #
vertex $-1 $371 $486 #
straight-curve $-1 74.584795678579056 0 -24.650300585930218 0 -1 0 I I #
coedge $-1 $351 $353 $248 $363 reversed $241 $-1 #
edge $-1 $366 -52.092587053489453 $369 52.092587053489453 $362 $487 forward 7 unknown #
coedge $-1 $357 $249 $254 $372 forward $349 $-1 #
coedge $-1 $249 $357 $351 $478 reversed $349 $-1 #
vertex $-1 $250 $488 #
straight-curve $-1 0 52.092587053489453 24.650300585930218 -1 0 0 I I #
coedge $-1 $251 $352 $253 $371 reversed $152 $-1 #
vertex $-1 $363 $489 #
straight-curve $-1 0 -52.092587053489453 24.650300585930218 1 0 0 I I #
edge $-1 $256 -24.650300585930218 $360 24.650300585930218 $253 $490 forward 7 unknown #
edge $-1 $257 -24.650300585930218 $359 24.650300585930218 $254 $491 forward 7 unknown #
point $-1 74.584795678579056 -52.092587053489453 24.650300585930218 #
point $-1 74.584795678579056 52.092587053489453 24.650300585930218 #
face $-1 $-1 $389 $37 $-1 $492 reversed single #
loop $-1 $-1 $493 $259 #
plane-surface $-1 0 -82.903123162658645 -20.424459542156121 0 1 0 0 0 1 forward_v I I I I #
coedge $-1 $494 $262 $271 $393 reversed $160 $-1 #
coedge $-1 $262 $494 $263 $381 reversed $160 $-1 #
coedge $-1 $264 $263 $495 $496 forward $101 $-1 #
edge $-1 $385 52.092587053489453 $497 82.903123162658645 $379 $498 forward 7 unknown #
coedge $-1 $499 $268 $264 $383 reversed $389 $-1 #
edge $-1 $500 -82.903123162658645 $384 -52.092587053489453 $382 $501 forward 7 unknown #
vertex $-1 $269 $502 #
vertex $-1 $381 $503 #
straight-curve $-1 0 -52.092587053489453 -24.650300585930218 1 0 0 I I #
straight-curve $-1 74.584795678579056 -52.092587053489453 0 0 0 1 I I #
coedge $-1 $268 $499 $270 $392 reversed $389 $-1 #
loop $-1 $-1 $268 $375 #
straight-curve $-1 -74.584795678579056 -52.092587053489453 0 0 0 -1 I I #
coedge $-1 $271 $270 $504 $505 forward $260 $-1 #
edge $-1 $272 -15.405268054584596 $506 15.405268054584596 $388 $507 forward 7 unknown #
edge $-1 $508 -15.405268054584596 $273 15.405268054584596 $378 $509 forward 7 unknown #
point $-1 -74.584795678579056 -52.092587053489453 -16.198618498382025 #
point $-1 74.584795678579056 -52.092587053489453 -16.198618498382025 #
plane-surface $-1 0 0 24.650300585930218 0 0 1 1 0 0 forward_v I I I I #
coedge $-1 $407 $406 $399 $510 forward $276 $-1 #
coedge $-1 $399 $278 $280 $403 reversed $168 $-1 #
coedge $-1 $278 $398 $397 $510 reversed $168 $-1 #
coedge $-1 $286 $281 $278 $401 forward $287 $-1 #
edge $-1 $404 7.6453029991794992 $511 11.774757881012299 $400 $512 forward 7 unknown #
coedge $-1 $280 $279 $407 $513 reversed $105 $-1 #
edge $-1 $514 -149.16959135715811 $404 -141.15182492872256 $398 $515 forward 7 unknown #
vertex $-1 $282 $516 #
straight-curve $-1 70.455340796746242 5.7387353441623858 24.650300585930211 0 -1 0 I I #
coedge $-1 $397 $283 $286 $411 reversed $276 $-1 #
coedge $-1 $283 $397 $402 $513 forward $276 $-1 #
vertex $-1 $284 $517 #
straight-curve $-1 74.584795678579056 21.265943430654726 111.23452383889585 0 0 1 I I #
straight-curve $-1 -2.2432215440446583 21.265943430654726 145.64103045516799 0.51503806187062418 0 -0.85716730853699208 I I #
edge $-1 $511 1.6889979459948172 $288 21.265943430654726 $406 $518 forward 7 unknown #
point $-1 74.584795678579056 21.265943430654726 24.650300585930218 #
point $-1 70.455340796746256 21.265943430654726 24.650300585930211 #
edge $-1 $519 1 $519 0 $291 $-1 forward 7 unknown #
vertex $-1 $292 $520 #
ellipse-curve $-1 69.304781789114102 5.6043870429268026 19.282078011704648 0.85716730853699208 0 0.51503806187062418 0.51503806187062418 0 -0.85716730853699208 1 I I #
point $-1 73.035106299533282 5.6043870429268026 20.356849642423015 #
edge $-1 $521 1 $521 0 $295 $-1 forward 7 unknown #
vertex $-1 $296 $522 #
ellipse-curve $-1 69.304781789114102 11.477470688324779 19.282078011704648 0.85716730853699208 0 0.51503806187062418 0.51503806187062418 0 -0.85716730853699208 1 I I #
point $-1 73.035106299533282 11.477470688324779 20.356849642423015 #
edge $-1 $523 1 $523 0 $299 $-1 forward 7 unknown #
vertex $-1 $300 $524 #
ellipse-curve $-1 69.304781789114102 17.350554333722755 19.282078011704648 0.85716730853699208 0 0.51503806187062418 0.51503806187062418 0 -0.85716730853699208 1 I I #
point $-1 73.035106299533282 17.350554333722755 20.356849642423015 #
loop $-1 $-1 $311 $303 #
plane-surface $-1 -74.584795678579056 0 0 1 0 0 0 0 -1 forward_v I I I I #
coedge $-1 $429 $306 $308 $433 reversed $197 $-1 #
coedge $-1 $306 $428 $525 $526 reversed $197 $-1 #
coedge $-1 $314 $309 $306 $431 forward $304 $-1 #
edge $-1 $434 -40.733553944163461 $527 -1.1216122555628516 $430 $528 forward 7 unknown #
coedge $-1 $308 $307 $437 $529 reversed $124 $-1 #
edge $-1 $530 3.3167989745521721e-014 $434 46.212614324408449 $428 $531 forward 7 unknown #
vertex $-1 $310 $532 #
straight-curve $-1 -34.972853989978447 3.7328303149439961 24.650300585930218 0 1 0 I I #
coedge $-1 $525 $311 $314 $441 reversed $426 $-1 #
coedge $-1 $311 $525 $432 $529 forward $426 $-1 #
vertex $-1 $312 $533 #
straight-curve $-1 -74.584795678579056 -0.47394679480862933 64.356169853744547 0 0 1 I I #
straight-curve $-1 -74.584795678579084 -0.47394679480862933 0.84904435111303656 -0.85716729658548041 0 -0.51503808176128008 I I #
edge $-1 $527 -15.405268054584614 $315 0.47394679480862933 $436 $534 forward 7 unknown #
point $-1 -74.584795678579056 -0.47394679480862933 24.650300585930218 #
point $-1 -34.972853989978447 -0.47394679480862933 24.650300585930218 #
edge $-1 $535 1 $535 0 $318 $-1 forward 7 unknown #
vertex $-1 $319 $536 #
ellipse-curve $-1 -54.169336121293846 4.0629717335894355 11.73531292714161 -0.51503808176128008 0 0.85716729658548041 0.85716729658548041 0 0.51503808176128008 1 I I #
point $-1 -53.921657537693243 4.0629717335894355 13.264710550282892 #
edge $-1 $537 1 $537 0 $322 $-1 forward 7 unknown #
vertex $-1 $323 $538 #
ellipse-curve $-1 -54.169336121293846 10.868349526186535 11.73531292714161 -0.51503808176128008 0 0.85716729658548041 0.85716729658548041 0 0.51503808176128008 1 I I #
point $-1 -53.921657537693243 10.868349526186535 13.264710550282892 #
loop $-1 $-1 $333 $326 #
plane-surface $-1 -74.584795678579056 0 0 1 0 0 0 0 -1 forward_v I I I I #
coedge $-1 $539 $540 $330 $456 forward $327 $-1 #
coedge $-1 $330 $329 $461 $541 reversed $138 $-1 #
edge $-1 $458 -14.465435572278174 $542 31.747178752130239 $454 $543 forward 7 unknown #
coedge $-1 $336 $331 $540 $544 forward $219 $-1 #
vertex $-1 $544 $545 #
straight-curve $-1 -34.972853989978447 22.076489814396425 24.650300585930218 0 1 0 I I #
coedge $-1 $546 $333 $336 $465 reversed $452 $-1 #
coedge $-1 $333 $546 $455 $541 forward $452 $-1 #
vertex $-1 $334 $547 #
straight-curve $-1 -74.584795678579056 36.213372204096231 64.356169853744547 0 0 1 I I #
straight-curve $-1 -74.584795678579084 36.213372204096231 0.84904435111303656 -0.85716729658548041 0 -0.51503808176128008 I I #
edge $-1 $548 -52.092587053489453 $337 -36.213372204096231 $460 $549 forward 7 unknown #
point $-1 -74.584795678579056 36.213372204096231 24.650300585930218 #
point $-1 -34.972853989978447 36.213372204096231 24.650300585930218 #
edge $-1 $550 1 $550 0 $340 $-1 forward 7 unknown #
vertex $-1 $341 $551 #
ellipse-curve $-1 -54.169336121293846 40.750290732494292 11.73531292714161 -0.51503808176128008 0 0.85716729658548041 0.85716729658548041 0 0.51503808176128008 1 I I #
point $-1 -53.921657537693243 40.750290732494292 13.264710550282892 #
edge $-1 $552 1 $552 0 $344 $-1 forward 7 unknown #
vertex $-1 $345 $553 #
ellipse-curve $-1 -54.169336121293846 47.555668525091392 11.73531292714161 -0.51503808176128008 0 0.85716729658548041 0.85716729658548041 0 0.51503808176128008 1 I I #
point $-1 -53.921657537693243 47.555668525091392 13.264710550282892 #
plane-surface $-1 74.584795678579056 0 0 -1 0 0 0 0 1 forward_v I I I I #
coedge $-1 $353 $351 $355 $481 reversed $241 $-1 #
edge $-1 $366 -24.650300585930218 $483 24.650300585930218 $365 $554 forward 7 unknown #
vertex $-1 $481 $555 #
straight-curve $-1 -74.584795678579056 -52.092587053489453 0 0 0 -1 I I #
edge $-1 $479 -52.092587053489453 $483 52.092587053489453 $477 $556 forward 7 unknown #
straight-curve $-1 0 -52.092587053489453 -24.650300585930218 -1 0 0 I I #
vertex $-1 $358 $557 #
straight-curve $-1 0 52.092587053489453 -24.650300585930218 1 0 0 I I #
point $-1 74.584795678579056 52.092587053489453 -24.650300585930218 #
point $-1 74.584795678579056 -52.092587053489453 -24.650300585930218 #
straight-curve $-1 -74.584795678579056 0 24.650300585930218 0 -1 0 I I #
point $-1 -74.584795678579056 52.092587053489453 24.650300585930218 #
point $-1 -74.584795678579056 -52.092587053489453 24.650300585930218 #
straight-curve $-1 74.584795678579056 -52.092587053489453 0 0 0 -1 I I #
straight-curve $-1 74.584795678579056 52.092587053489453 0 0 0 -1 I I #
plane-surface $-1 -74.584795678579056 0 0 1 0 0 0 0 -1 forward_v I I I I #
coedge $-1 $495 $504 $499 $558 forward $376 $-1 #
coedge $-1 $379 $378 $559 $560 forward $160 $-1 #
coedge $-1 $559 $493 $380 $496 reversed $376 $-1 #
edge $-1 $497 -74.584795678579056 $500 74.584795678579056 $495 $561 forward 7 unknown #
vertex $-1 $560 $562 #
straight-curve $-1 74.584795678579056 0 -24.650300585930218 0 -1 0 I I #
coedge $-1 $388 $382 $493 $558 reversed $389 $-1 #
vertex $-1 $383 $563 #
straight-curve $-1 -74.584795678579056 0 -24.650300585930218 0 1 0 I I #
point $-1 -74.584795678579056 -52.092587053489453 -24.650300585930218 #
point $-1 74.584795678579056 -52.092587053489453 -24.650300585930218 #
coedge $-1 $493 $559 $391 $505 reversed $376 $-1 #
edge $-1 $506 -74.584795678579056 $508 74.584795678579056 $504 $564 forward 7 unknown #
vertex $-1 $392 $565 #
straight-curve $-1 -74.584795678579056 -67.497855108074049 -16.198618498382025 0 -1 0 I I #
vertex $-1 $393 $566 #
straight-curve $-1 74.584795678579056 -67.497855108074049 -16.198618498382025 0 1 0 I I #
edge $-1 $511 86.584223252965643 $514 93.456790522906005 $397 $567 forward 7 unknown #
vertex $-1 $411 $568 #
straight-curve $-1 62.810037797566757 1.6889979459948172 24.650300585930211 1 0 0 I I #
edge $-1 $514 -4.0497373981675686 $408 15.52720808649234 $407 $569 forward 7 unknown #
vertex $-1 $513 $570 #
straight-curve $-1 -2.2432215440446583 1.6889979459948172 145.64103045516799 -0.51503806187062418 0 0.85716730853699208 I I #
point $-1 70.455340796746256 1.6889979459948172 24.650300585930211 #
point $-1 74.584795678579056 21.265943430654726 17.777733315989849 #
straight-curve $-1 74.584795678579056 0 24.650300585930218 0 1 0 I I #
vertex $-1 $414 $571 #
point $-1 69.819819850984729 5.6043870429268026 18.424910703167654 #
vertex $-1 $418 $572 #
point $-1 69.819819850984729 11.477470688324779 18.424910703167654 #
vertex $-1 $422 $573 #
point $-1 69.819819850984729 17.350554333722755 18.424910703167654 #
coedge $-1 $437 $436 $429 $526 forward $426 $-1 #
edge $-1 $527 39.705869267814329 $530 63.507125502631496 $525 $574 forward 7 unknown #
vertex $-1 $441 $575 #
straight-curve $-1 -75.706407934141907 15.405268054584614 24.650300585930218 -1 0 0 I I #
edge $-1 $530 -11.672437739640618 $438 4.2067771097526254 $437 $576 forward 7 unknown #
vertex $-1 $529 $577 #
straight-curve $-1 -74.584795678579084 15.405268054584614 0.84904435111303656 0.85716729658548041 0 0.51503808176128008 I I #
point $-1 -34.972853989978447 15.405268054584614 24.650300585930218 #
point $-1 -74.584795678579056 -0.47394679480862933 0.84904435111305365 #
straight-curve $-1 -74.584795678579056 0 24.650300585930218 0 -1 0 I I #
vertex $-1 $444 $578 #
point $-1 -53.312168824708365 4.0629717335894355 12.250351008902891 #
vertex $-1 $448 $579 #
point $-1 -53.312168824708365 10.868349526186535 12.250351008902891 #
coedge $-1 $540 $454 $546 $580 reversed $327 $-1 #
coedge $-1 $454 $539 $457 $544 reversed $327 $-1 #
edge $-1 $542 -30.016097239093043 $462 -14.136882389699807 $461 $581 forward 7 unknown #
vertex $-1 $456 $582 #
straight-curve $-1 -47.372152293399573 52.092587053489453 17.200050396942682 -0.85716729658548041 0 -0.51503808176128008 I I #
edge $-1 $458 34.972853989978447 $548 74.584795678579056 $540 $583 forward 7 unknown #
point $-1 -34.972853989978447 52.092587053489467 24.650300585930218 #
coedge $-1 $461 $460 $539 $580 forward $452 $-1 #
point $-1 -74.584795678579056 36.213372204096231 0.84904435111305365 #
vertex $-1 $544 $584 #
straight-curve $-1 -74.584795678579056 0 24.650300585930218 0 -1 0 I I #
vertex $-1 $468 $585 #
point $-1 -53.312168824708365 40.750290732494292 12.250351008902891 #
vertex $-1 $472 $586 #
point $-1 -53.312168824708365 47.555668525091392 12.250351008902891 #
straight-curve $-1 -74.584795678579056 52.092587053489453 0 0 0 -1 I I #
point $-1 -74.584795678579056 -52.092587053489453 -24.650300585930218 #
straight-curve $-1 -74.584795678579056 0 -24.650300585930218 0 1 0 I I #
point $-1 -74.584795678579056 52.092587053489453 -24.650300585930218 #
edge $-1 $506 -4.2258410437740963 $500 4.2258410437740963 $499 $587 forward 7 unknown #
coedge $-1 $504 $495 $494 $560 reversed $376 $-1 #
edge $-1 $508 -4.2258410437740963 $497 4.2258410437740963 $494 $588 forward 7 unknown #
straight-curve $-1 0 -82.903123162658645 -24.650300585930218 -1 0 0 I I #
point $-1 74.584795678579056 -82.903123162658645 -24.650300585930218 #
point $-1 -74.584795678579056 -82.903123162658645 -24.650300585930218 #
straight-curve $-1 0 -82.903123162658645 -16.198618498382025 1 0 0 I I #
point $-1 -74.584795678579056 -82.903123162658645 -16.198618498382025 #
point $-1 74.584795678579056 -82.903123162658645 -16.198618498382025 #
straight-curve $-1 74.584795678579056 1.6889979459948172 111.23452383889585 0 0 -1 I I #
point $-1 74.584795678579056 1.6889979459948172 24.650300585930218 #
straight-curve $-1 74.58479567857907 5.7387353441623858 17.777733315989835 0 1 0 I I #
point $-1 74.584795678579056 1.6889979459948172 17.777733315989849 #
point $-1 68.447614480577116 5.6043870429268026 18.767039949834022 #
point $-1 68.447614480577116 11.477470688324779 18.767039949834022 #
point $-1 68.447614480577116 17.350554333722755 18.767039949834022 #
straight-curve $-1 -74.584795678579056 15.405268054584614 64.356169853744547 0 0 -1 I I #
point $-1 -74.584795678579056 15.405268054584614 24.650300585930218 #
straight-curve $-1 -74.584795678579056 3.7328303149439961 0.84904435111305321 0 -1 0 I I #
point $-1 -74.584795678579056 15.405268054584614 0.84904435111305365 #
point $-1 -53.65429803953257 4.0629717335894355 10.87814563055613 #
point $-1 -53.65429803953257 10.868349526186535 10.87814563055613 #
edge $-1 $548 -24.650300585930218 $542 -0.84904435111305365 $539 $589 forward 7 unknown #
straight-curve $-1 -74.584795678579056 22.076489814396425 0.84904435111305321 0 -1 0 I I #
point $-1 -74.584795678579056 52.092587053489467 0.84904435111305365 #
straight-curve $-1 0 52.092587053489453 24.650300585930218 -1 0 0 I I #
point $-1 -74.584795678579056 52.092587053489453 24.650300585930218 #
point $-1 -53.65429803953257 40.750290732494292 10.87814563055613 #
point $-1 -53.65429803953257 47.555668525091392 10.87814563055613 #
straight-curve $-1 -74.584795678579056 -82.903123162658645 -20.424459542156121 0 0 -1 I I #
straight-curve $-1 74.584795678579056 -82.903123162658645 -20.424459542156121 0 0 -1 I I #
straight-curve $-1 -74.584795678579056 52.092587053489453 0 0 0 -1 I I #
End-of-ACIS-data 