500 0 8 0           
7 Unknown 11 ACIS 5.0 NT 24 Fri Mar 26 15:36:34 1999 
-1 9.9999999999999995e-007 1e-010 
body $-1 $8 $-1 $9 #
body $-1 $10 $-1 $11 #
body $-1 $12 $-1 $13 #
body $-1 $14 $-1 $15 #
body $-1 $16 $-1 $17 #
body $-1 $18 $-1 $19 #
body $-1 $20 $-1 $21 #
body $-1 $22 $-1 $23 #
lump $-1 $-1 $24 $0 #
transform $-1 1 0 0 0 1 0 0 0 1 47.971434675130467 26.821517653911794 9.4991408450610546 1 rotate no_reflect no_shear #
lump $-1 $-1 $25 $1 #
transform $-1 1 0 0 0 1 0 0 0 1 47.971434675130467 26.821517653911794 9.4991408450610546 1 rotate no_reflect no_shear #
lump $-1 $-1 $26 $2 #
transform $-1 1 0 0 0 1 0 0 0 1 47.971434675130467 26.821517653911794 9.4991408450610546 1 rotate no_reflect no_shear #
lump $-1 $-1 $27 $3 #
transform $-1 1 0 0 0 1 0 0 0 1 47.971434675130467 26.821517653911794 9.4991408450610546 1 rotate no_reflect no_shear #
lump $-1 $-1 $28 $4 #
transform $-1 1 0 0 0 1 0 0 0 1 47.971434675130467 26.821517653911794 9.4991408450610546 1 rotate no_reflect no_shear #
lump $-1 $-1 $29 $5 #
transform $-1 1 0 0 0 1 0 0 0 1 47.971434675130467 26.821517653911794 9.4991408450610546 1 rotate no_reflect no_shear #
lump $-1 $-1 $30 $6 #
transform $-1 1 0 0 0 1 0 0 0 1 47.971434675130467 26.821517653911794 9.4991408450610546 1 rotate no_reflect no_shear #
lump $-1 $-1 $31 $7 #
transform $-1 1 0 0 0 1 0 0 0 1 47.971434675130467 26.821517653911794 9.4991408450610546 1 rotate no_reflect no_shear #
shell $-1 $-1 $-1 $32 $-1 $8 #
shell $-1 $-1 $-1 $33 $-1 $10 #
shell $-1 $-1 $-1 $34 $-1 $12 #
shell $-1 $-1 $-1 $35 $-1 $14 #
shell $-1 $-1 $-1 $36 $-1 $16 #
shell $-1 $-1 $-1 $37 $-1 $18 #
shell $-1 $-1 $-1 $38 $-1 $20 #
shell $-1 $-1 $-1 $39 $-1 $22 #
face $-1 $40 $41 $24 $-1 $42 forward single #
face $-1 $43 $44 $25 $-1 $45 forward single #
face $-1 $46 $47 $26 $-1 $48 forward single #
face $-1 $49 $50 $27 $-1 $51 reversed single #
face $-1 $52 $53 $28 $-1 $54 forward single #
face $-1 $55 $56 $29 $-1 $57 reversed single #
face $-1 $58 $59 $30 $-1 $60 forward single #
face $-1 $61 $62 $31 $-1 $63 forward single #
face $-1 $64 $65 $24 $-1 $66 reversed single #
loop $-1 $-1 $67 $32 #
plane-surface $-1 0 0 9.4991408450610546 0 0 1 1 0 0 forward_v I I I I #
face $-1 $68 $69 $25 $-1 $70 reversed single #
loop $-1 $-1 $71 $33 #
plane-surface $-1 -41.727066438526194 0 -4.9349032495286504 0 0 1 1 0 0 forward_v I I I I #
face $-1 $72 $73 $26 $-1 $74 reversed single #
loop $-1 $-1 $75 $34 #
plane-surface $-1 41.727066438526194 0 -4.9349032495286504 0 0 1 1 0 0 forward_v I I I I #
face $-1 $76 $77 $27 $-1 $78 reversed single #
loop $-1 $-1 $79 $35 #
plane-surface $-1 -1.2952684842306468 -88.492406068031258 77.68334671337459 1 0 0 0 0.64278761758704617 -0.76604443648966558 forward_v I I I I #
face $-1 $80 $81 $28 $-1 $82 forward single #
loop $-1 $83 $84 $36 #
cone-surface $-1 7.6632817020750821 -22.383141440511785 5.3260067961459177 0 0.64278761758704617 -0.76604443648966558 2 0 0 1 I I 0 1 2 forward I I I I #
face $-1 $85 $86 $29 $-1 $87 reversed single #
loop $-1 $-1 $88 $37 #
plane-surface $-1 1.6651576138009467 64.03752395717305 108.84607337537871 -1 0 0 0 0.75470958851134928 0.65605901945558964 forward_v I I I I #
face $-1 $89 $90 $30 $-1 $91 forward single #
loop $-1 $92 $93 $38 #
cone-surface $-1 -8.0230519537158713 24.620253037129014 7.0868913767547044 0 -0.75470958851134928 -0.65605901945558964 0.5 0 0 1 I I 0 1 0.5 forward I I I I #
face $-1 $94 $95 $31 $-1 $96 forward single #
loop $-1 $97 $98 $39 #
cone-surface $-1 -2.2101262132057826 24.620253037129014 7.0868913767547044 0 -0.75470958851134928 -0.65605901945558964 0.5 0 0 1 I I 0 1 0.5 forward I I I I #
face $-1 $99 $100 $24 $-1 $101 reversed single #
loop $-1 $-1 $102 $40 #
plane-surface $-1 0 0 -9.4991408450610546 0 0 1 1 0 0 forward_v I I I I #
coedge $-1 $103 $104 $105 $106 forward $41 $-1 #
face $-1 $107 $108 $25 $-1 $109 reversed single #
loop $-1 $-1 $110 $43 #
plane-surface $-1 -35.48269820192192 0 -7.2170220472948525 -1 0 0 0 0 1 forward_v I I I I #
coedge $-1 $111 $112 $113 $114 forward $44 $-1 #
face $-1 $115 $116 $26 $-1 $117 reversed single #
loop $-1 $-1 $118 $46 #
plane-surface $-1 35.48269820192192 0 -7.2170220472948525 1 0 0 0 0 -1 forward_v I I I I #
coedge $-1 $119 $120 $121 $122 reversed $47 $-1 #
face $-1 $123 $124 $27 $-1 $125 reversed single #
loop $-1 $-1 $126 $49 #
plane-surface $-1 7.6632817020750821 -26.821517653911798 4.1868454267523418 0 -0.64278761758704617 0.76604443648966558 1 0 0 forward_v I I I I #
coedge $-1 $127 $128 $129 $130 reversed $50 $-1 #
face $-1 $-1 $131 $28 $-1 $132 forward single #
loop $-1 $133 $134 $52 #
cone-surface $-1 7.6632817020750821 -20.467451118069604 3.0429760198954749 0 0.64278761758704617 -0.76604443648966558 1 0 0 1 I I -0.70710678118654746 0.70710678118654746 1 forward I I I I #
loop $-1 $-1 $135 $36 #
coedge $-1 $84 $84 $136 $137 reversed $53 $-1 #
face $-1 $138 $139 $29 $-1 $140 reversed single #
loop $-1 $-1 $141 $55 #
plane-surface $-1 -5.1165890834608234 -8.371479490760521 45.901888585690777 0 0.75470958851134928 0.65605901945558964 1 0 0 forward_v I I I I #
coedge $-1 $142 $143 $144 $145 reversed $56 $-1 #
face $-1 $-1 $146 $30 $-1 $147 forward single #
loop $-1 $148 $149 $58 #
cone-surface $-1 -8.0230519537158713 24.004597083776215 6.5517098351032548 0 -0.75470958851134928 -0.65605901945558964 0.25 0 0 1 I I -0.70710678118654746 0.70710678118654746 0.25 forward I I I I #
loop $-1 $-1 $150 $38 #
coedge $-1 $93 $93 $151 $152 reversed $59 $-1 #
face $-1 $-1 $153 $31 $-1 $154 forward single #
loop $-1 $155 $156 $61 #
cone-surface $-1 -2.2101262132057826 24.004597083776215 6.5517098351032548 0 -0.75470958851134928 -0.65605901945558964 0.25 0 0 1 I I -0.70710678118654746 0.70710678118654746 0.25 forward I I I I #
loop $-1 $-1 $157 $39 #
coedge $-1 $98 $98 $158 $159 reversed $62 $-1 #
face $-1 $160 $161 $24 $-1 $162 reversed single #
loop $-1 $-1 $163 $64 #
plane-surface $-1 0 -26.821517653911794 0 0 1 0 0 0 1 forward_v I I I I #
coedge $-1 $164 $165 $166 $167 forward $65 $-1 #
coedge $-1 $168 $67 $169 $170 forward $41 $-1 #
coedge $-1 $67 $168 $171 $172 forward $41 $-1 #
coedge $-1 $173 $174 $67 $106 reversed $175 $-1 #
edge $-1 $176 -26.821517653911794 $177 26.821517653911794 $105 $178 forward 7 unknown #
face $-1 $179 $180 $25 $-1 $181 reversed single #
loop $-1 $-1 $182 $68 #
plane-surface $-1 0 0 -9.4991408450610546 0 0 1 1 0 0 forward_v I I I I #
coedge $-1 $183 $113 $184 $185 reversed $69 $-1 #
coedge $-1 $186 $71 $187 $188 reversed $44 $-1 #
coedge $-1 $71 $186 $189 $190 reversed $44 $-1 #
coedge $-1 $110 $191 $71 $114 reversed $69 $-1 #
edge $-1 $192 -26.821517653911794 $193 26.821517653911794 $113 $194 forward 7 unknown #
face $-1 $195 $196 $26 $-1 $197 reversed single #
loop $-1 $-1 $198 $72 #
plane-surface $-1 0 -26.821517653911794 0 0 1 0 0 0 1 forward_v I I I I #
coedge $-1 $199 $200 $201 $202 reversed $73 $-1 #
coedge $-1 $203 $75 $204 $205 reversed $47 $-1 #
coedge $-1 $75 $203 $198 $206 reversed $47 $-1 #
coedge $-1 $207 $208 $75 $122 forward $209 $-1 #
edge $-1 $210 -26.821517653911794 $211 26.821517653911794 $121 $212 forward 7 unknown #
face $-1 $213 $214 $27 $-1 $215 forward single #
loop $-1 $-1 $216 $76 #
plane-surface $-1 16.621831888380811 -88.492406068031258 77.68334671337459 -1 0 0 0 -0.64278761758704617 0.76604443648966558 forward_v I I I I #
coedge $-1 $217 $218 $219 $220 reversed $77 $-1 #
coedge $-1 $128 $79 $221 $222 reversed $50 $-1 #
coedge $-1 $79 $127 $217 $223 reversed $50 $-1 #
coedge $-1 $219 $224 $79 $130 forward $225 $-1 #
edge $-1 $226 29.342532511626239 $227 34.654827929934953 $129 $228 forward 7 unknown #
loop $-1 $-1 $136 $80 #
plane-surface $-1 7.6632817020750821 -26.821517653911798 4.1868454267523418 0 -0.64278761758704617 0.76604443648966558 1 0 0 forward_v I I I I #
loop $-1 $-1 $229 $52 #
coedge $-1 $134 $134 $135 $230 reversed $81 $-1 #
coedge $-1 $135 $135 $134 $230 forward $83 $-1 #
coedge $-1 $136 $136 $84 $137 forward $131 $-1 #
edge $-1 $231 -3.5196199713088507e-016 $231 6.2831853071796004 $136 $232 forward 7 unknown #
face $-1 $233 $234 $29 $-1 $235 reversed single #
loop $-1 $-1 $236 $85 #
plane-surface $-1 -11.898335780722594 64.03752395717305 108.84607337537871 1 0 0 0 -0.75470958851134928 -0.65605901945558964 forward_v I I I I #
coedge $-1 $237 $238 $239 $240 reversed $86 $-1 #
coedge $-1 $143 $88 $241 $242 reversed $56 $-1 #
coedge $-1 $88 $142 $237 $243 reversed $56 $-1 #
coedge $-1 $239 $244 $88 $145 forward $234 $-1 #
edge $-1 $245 44.923895842628298 $246 49.006061205665901 $144 $247 forward 7 unknown #
loop $-1 $-1 $151 $89 #
plane-surface $-1 -5.1165890834608234 -8.371479490760521 45.901888585690777 0 0.75470958851134928 0.65605901945558964 1 0 0 forward_v I I I I #
loop $-1 $-1 $248 $58 #
coedge $-1 $149 $149 $150 $249 reversed $90 $-1 #
coedge $-1 $150 $150 $149 $249 forward $92 $-1 #
coedge $-1 $151 $151 $93 $152 forward $146 $-1 #
edge $-1 $250 1.340633539313084e-015 $250 6.2831853071796022 $151 $251 forward 7 unknown #
loop $-1 $-1 $158 $94 #
plane-surface $-1 -5.1165890834608234 -8.371479490760521 45.901888585690777 0 0.75470958851134928 0.65605901945558964 1 0 0 forward_v I I I I #
loop $-1 $-1 $252 $61 #
coedge $-1 $156 $156 $157 $253 reversed $95 $-1 #
coedge $-1 $157 $157 $156 $253 forward $97 $-1 #
coedge $-1 $158 $158 $98 $159 forward $153 $-1 #
edge $-1 $254 1.340633539313084e-015 $254 6.2831853071796022 $158 $255 forward 7 unknown #
face $-1 $256 $257 $24 $-1 $258 reversed single #
loop $-1 $-1 $259 $99 #
plane-surface $-1 -47.971434675130467 0 0 1 0 0 0 0 -1 forward_v I I I I #
coedge $-1 $260 $171 $261 $262 forward $100 $-1 #
coedge $-1 $263 $102 $260 $264 forward $65 $-1 #
coedge $-1 $102 $263 $265 $266 forward $65 $-1 #
coedge $-1 $174 $173 $102 $167 reversed $175 $-1 #
edge $-1 $267 -26.821517653911794 $268 26.821517653911794 $166 $269 forward 7 unknown #
coedge $-1 $104 $103 $270 $271 forward $41 $-1 #
coedge $-1 $272 $273 $103 $170 reversed $257 $-1 #
edge $-1 $177 -47.971434675130467 $274 47.971434675130467 $169 $275 forward 7 unknown #
coedge $-1 $163 $276 $104 $172 reversed $100 $-1 #
edge $-1 $277 -47.971434675130467 $176 47.971434675130467 $171 $278 forward 7 unknown #
coedge $-1 $166 $105 $276 $279 forward $175 $-1 #
coedge $-1 $105 $166 $272 $280 reversed $175 $-1 #
loop $-1 $-1 $173 $256 #
vertex $-1 $106 $281 #
vertex $-1 $106 $282 #
straight-curve $-1 47.971434675130467 0 9.4991408450610546 0 1 0 I I #
face $-1 $283 $284 $25 $-1 $285 reversed single #
loop $-1 $-1 $184 $107 #
plane-surface $-1 0 -26.821517653911794 0 0 1 0 0 0 1 forward_v I I I I #
coedge $-1 $286 $287 $183 $288 forward $108 $-1 #
coedge $-1 $191 $110 $182 $288 reversed $69 $-1 #
coedge $-1 $189 $289 $110 $185 forward $180 $-1 #
edge $-1 $290 -5.8906298214136283 $192 -1.3263922258812242 $184 $291 forward 7 unknown #
coedge $-1 $112 $111 $292 $293 reversed $44 $-1 #
coedge $-1 $294 $295 $111 $188 forward $296 $-1 #
edge $-1 $297 -27.107901455867371 $193 -14.619164982658823 $187 $298 forward 7 unknown #
coedge $-1 $299 $184 $112 $190 forward $180 $-1 #
edge $-1 $192 14.619164982658823 $300 27.107901455867371 $189 $301 forward 7 unknown #
coedge $-1 $113 $183 $294 $302 reversed $69 $-1 #
vertex $-1 $190 $303 #
vertex $-1 $188 $304 #
straight-curve $-1 -35.48269820192192 0 -4.9349032495286504 0 1 0 I I #
face $-1 $305 $306 $26 $-1 $307 reversed single #
loop $-1 $-1 $308 $115 #
plane-surface $-1 0 0 -9.4991408450610546 0 0 1 1 0 0 forward_v I I I I #
coedge $-1 $309 $310 $120 $206 forward $116 $-1 #
coedge $-1 $311 $118 $308 $312 reversed $73 $-1 #
coedge $-1 $118 $311 $203 $313 reversed $73 $-1 #
coedge $-1 $204 $314 $118 $202 forward $306 $-1 #
edge $-1 $315 -5.8906298214136283 $316 -1.3263922258812242 $201 $317 forward 7 unknown #
coedge $-1 $120 $119 $200 $313 forward $47 $-1 #
coedge $-1 $318 $201 $119 $205 forward $306 $-1 #
edge $-1 $316 14.619164982658823 $210 27.107901455867371 $204 $319 forward 7 unknown #
edge $-1 $211 -27.107901455867371 $320 -14.619164982658823 $198 $321 forward 7 unknown #
coedge $-1 $322 $121 $310 $323 forward $209 $-1 #
coedge $-1 $121 $322 $318 $324 reversed $209 $-1 #
loop $-1 $-1 $121 $305 #
vertex $-1 $324 $325 #
vertex $-1 $323 $326 #
straight-curve $-1 47.971434675130467 0 -4.9349032495286504 0 -1 0 I I #
face $-1 $-1 $225 $27 $-1 $327 reversed single #
loop $-1 $-1 $328 $123 #
plane-surface $-1 0 0 9.4991408450610546 0 0 1 1 0 0 forward_v I I I I #
coedge $-1 $329 $330 $331 $332 reversed $124 $-1 #
coedge $-1 $333 $126 $128 $223 forward $77 $-1 #
coedge $-1 $126 $333 $329 $334 forward $77 $-1 #
coedge $-1 $331 $129 $126 $220 forward $225 $-1 #
edge $-1 $227 -5.1269093352681878 $335 12.79019103734327 $219 $336 forward 7 unknown #
coedge $-1 $337 $338 $127 $222 forward $214 $-1 #
edge $-1 $339 -23.755632397193573 $226 -17.424685380103835 $221 $340 forward 7 unknown #
edge $-1 $227 4.4342668192596698e-015 $339 8.2644644560056797 $128 $341 forward 7 unknown #
coedge $-1 $129 $331 $337 $342 reversed $225 $-1 #
loop $-1 $-1 $331 $213 #
vertex $-1 $342 $343 #
vertex $-1 $130 $344 #
straight-curve $-1 -1.2952684842306468 -26.821517653911794 38.841673356687295 0 0 -1 I I #
coedge $-1 $229 $229 $-1 $345 reversed $133 $-1 #
edge $-1 $346 0 $346 6.2831853071796004 $134 $347 forward 7 unknown #
vertex $-1 $137 $348 #
ellipse-curve $-1 7.6632817020750821 -23.656044145366927 6.8429931359067009 0 -0.64278761758704617 0.76604443648966558 2 0 0 1 I I #
face $-1 $-1 $349 $29 $-1 $350 forward single #
loop $-1 $-1 $144 $138 #
plane-surface $-1 0 26.821517653911794 0 0 -1 0 0 0 -1 forward_v I I I I #
coedge $-1 $351 $352 $353 $354 reversed $139 $-1 #
coedge $-1 $355 $141 $143 $243 forward $86 $-1 #
coedge $-1 $141 $355 $351 $356 forward $86 $-1 #
coedge $-1 $353 $144 $141 $240 forward $234 $-1 #
edge $-1 $246 -4.2234521555313584 $357 9.3400412389921819 $239 $358 forward 7 unknown #
coedge $-1 $359 $360 $142 $242 forward $349 $-1 #
edge $-1 $361 -8.7458164457903536 $245 -5.1972443246747311 $241 $362 forward 7 unknown #
edge $-1 $246 -53.643035307823602 $361 -48.234113220203646 $143 $363 forward 7 unknown #
coedge $-1 $144 $353 $359 $364 reversed $234 $-1 #
vertex $-1 $364 $365 #
vertex $-1 $145 $366 #
straight-curve $-1 1.6651576138009467 26.821517653911794 54.423036687689354 0 0 -1 I I #
coedge $-1 $248 $248 $-1 $367 reversed $148 $-1 #
edge $-1 $368 0 $368 6.2831853071796004 $149 $369 forward 7 unknown #
vertex $-1 $152 $370 #
ellipse-curve $-1 -8.0230519537158713 25.047231593353981 7.4580581635422574 0 0.75470958851134928 0.65605901945558964 0.5 0 0 1 I I #
coedge $-1 $252 $252 $-1 $371 reversed $155 $-1 #
edge $-1 $372 0 $372 6.2831853071796004 $156 $373 forward 7 unknown #
vertex $-1 $159 $374 #
ellipse-curve $-1 -2.2101262132057826 25.047231593353981 7.4580581635422574 0 0.75470958851134928 0.65605901945558964 0.5 0 0 1 I I #
face $-1 $-1 $175 $24 $-1 $375 reversed single #
loop $-1 $-1 $272 $160 #
plane-surface $-1 0 26.821517653911794 0 0 -1 0 0 0 -1 forward_v I I I I #
coedge $-1 $376 $270 $273 $377 forward $161 $-1 #
coedge $-1 $276 $163 $164 $264 reversed $100 $-1 #
coedge $-1 $270 $376 $163 $262 reversed $161 $-1 #
edge $-1 $277 -9.4991408450610546 $378 9.4991408450610546 $261 $379 forward 7 unknown #
coedge $-1 $165 $164 $376 $380 forward $65 $-1 #
edge $-1 $268 -47.971434675130467 $378 47.971434675130467 $260 $381 forward 7 unknown #
coedge $-1 $273 $272 $165 $266 reversed $257 $-1 #
edge $-1 $382 -47.971434675130467 $267 47.971434675130467 $265 $383 forward 7 unknown #
vertex $-1 $167 $384 #
vertex $-1 $279 $385 #
straight-curve $-1 47.971434675130467 0 -9.4991408450610546 0 -1 0 I I #
coedge $-1 $259 $261 $168 $271 reversed $161 $-1 #
edge $-1 $274 -26.821517653911794 $277 26.821517653911794 $270 $386 forward 7 unknown #
coedge $-1 $265 $169 $174 $280 forward $257 $-1 #
coedge $-1 $169 $265 $259 $377 reversed $257 $-1 #
vertex $-1 $170 $387 #
straight-curve $-1 0 26.821517653911794 9.4991408450610546 -1 0 0 I I #
coedge $-1 $171 $260 $173 $279 reversed $100 $-1 #
vertex $-1 $271 $388 #
straight-curve $-1 0 -26.821517653911794 9.4991408450610546 1 0 0 I I #
edge $-1 $176 -9.4991408450610546 $268 9.4991408450610546 $173 $389 forward 7 unknown #
edge $-1 $177 -9.4991408450610546 $267 9.4991408450610546 $174 $390 forward 7 unknown #
point $-1 47.971434675130467 -26.821517653911794 9.4991408450610546 #
point $-1 47.971434675130467 26.821517653911794 9.4991408450610546 #
face $-1 $-1 $296 $25 $-1 $391 reversed single #
loop $-1 $-1 $292 $179 #
plane-surface $-1 -47.971434675130467 0 0 1 0 0 0 0 -1 forward_v I I I I #
coedge $-1 $392 $182 $289 $393 forward $108 $-1 #
coedge $-1 $182 $392 $394 $395 forward $108 $-1 #
edge $-1 $396 -26.821517653911794 $290 26.821517653911794 $182 $397 forward 7 unknown #
coedge $-1 $184 $299 $286 $393 reversed $180 $-1 #
vertex $-1 $393 $398 #
straight-curve $-1 -35.48269820192192 -26.821517653911794 -3.6085110236474263 0 0 1 I I #
coedge $-1 $399 $400 $186 $293 forward $284 $-1 #
edge $-1 $300 -26.821517653911794 $297 26.821517653911794 $292 $401 forward 7 unknown #
coedge $-1 $394 $187 $191 $302 forward $296 $-1 #
coedge $-1 $187 $394 $399 $402 reversed $296 $-1 #
loop $-1 $-1 $294 $283 #
vertex $-1 $402 $403 #
straight-curve $-1 -20.863533219263097 26.821517653911794 -4.9349032495286504 1 0 0 I I #
coedge $-1 $289 $189 $400 $404 forward $180 $-1 #
vertex $-1 $404 $405 #
straight-curve $-1 -20.863533219263097 -26.821517653911794 -4.9349032495286504 -1 0 0 I I #
edge $-1 $193 1.3263922258812242 $396 5.8906298214136283 $294 $406 forward 7 unknown #
point $-1 -35.48269820192192 -26.821517653911794 -4.9349032495286504 #
point $-1 -35.48269820192192 26.821517653911794 -4.9349032495286504 #
face $-1 $-1 $209 $26 $-1 $407 reversed single #
loop $-1 $-1 $204 $195 #
plane-surface $-1 0 26.821517653911794 0 0 -1 0 0 0 -1 forward_v I I I I #
coedge $-1 $408 $409 $199 $312 forward $196 $-1 #
coedge $-1 $410 $198 $311 $411 forward $116 $-1 #
coedge $-1 $198 $410 $207 $323 reversed $116 $-1 #
coedge $-1 $200 $199 $309 $411 reversed $73 $-1 #
edge $-1 $412 -26.821517653911794 $315 26.821517653911794 $308 $413 forward 7 unknown #
edge $-1 $316 -26.821517653911794 $320 26.821517653911794 $200 $414 forward 7 unknown #
coedge $-1 $201 $318 $408 $415 reversed $306 $-1 #
vertex $-1 $415 $416 #
vertex $-1 $205 $417 #
straight-curve $-1 35.48269820192192 26.821517653911794 -3.6085110236474263 0 0 1 I I #
coedge $-1 $314 $204 $208 $324 forward $306 $-1 #
straight-curve $-1 20.863533219263097 26.821517653911794 -4.9349032495286504 1 0 0 I I #
vertex $-1 $206 $418 #
straight-curve $-1 20.863533219263097 -26.821517653911794 -4.9349032495286504 -1 0 0 I I #
coedge $-1 $208 $207 $419 $420 reversed $209 $-1 #
edge $-1 $211 4.9349032495286504 $421 9.4991408450610546 $207 $422 forward 7 unknown #
edge $-1 $210 4.9349032495286504 $423 9.4991408450610546 $208 $424 forward 7 unknown #
point $-1 47.971434675130467 26.821517653911794 -4.9349032495286504 #
point $-1 47.971434675130467 -26.821517653911794 -4.9349032495286504 #
plane-surface $-1 0 -26.821517653911794 0 0 1 0 0 0 1 forward_v I I I I #
coedge $-1 $338 $337 $330 $425 forward $214 $-1 #
coedge $-1 $330 $216 $218 $334 reversed $124 $-1 #
coedge $-1 $216 $329 $328 $425 reversed $124 $-1 #
coedge $-1 $224 $219 $216 $332 forward $225 $-1 #
edge $-1 $335 -34.654827929934953 $426 -29.342532511626239 $331 $427 forward 7 unknown #
coedge $-1 $218 $217 $338 $428 reversed $77 $-1 #
edge $-1 $429 -8.2644644560056797 $335 -4.4342668192596698e-015 $329 $430 forward 7 unknown #
vertex $-1 $220 $431 #
straight-curve $-1 3.831640851037541 -26.821517653911794 4.1868454267523454 1 0 0 I I #
coedge $-1 $328 $221 $224 $342 forward $214 $-1 #
coedge $-1 $221 $328 $333 $428 forward $214 $-1 #
vertex $-1 $222 $432 #
straight-curve $-1 -1.2952684842306468 -44.246203034015629 9.4991408450610564 0 -1 0 I I #
straight-curve $-1 -1.2952684842306468 -26.821517653911798 4.1868454267523418 0 0.76604443648966558 0.64278761758704617 I I #
edge $-1 $226 -1.2952684842306468 $426 16.621831888380811 $224 $433 forward 7 unknown #
point $-1 -1.2952684842306468 -26.821517653911794 9.4991408450610546 #
point $-1 -1.2952684842306468 -26.821517653911794 4.1868454267523445 #
edge $-1 $434 1 $434 0 $229 $-1 forward 7 unknown #
vertex $-1 $230 $435 #
ellipse-curve $-1 7.6632817020750821 -21.110238735656651 3.8090204563851406 0 -0.64278761758704617 0.76604443648966558 2 0 0 1 I I #
point $-1 9.6632817020750821 -23.656044145366923 6.8429931359066956 #
loop $-1 $-1 $241 $233 #
plane-surface $-1 0 0 9.4991408450610546 0 0 1 1 0 0 forward_v I I I I #
coedge $-1 $352 $236 $238 $356 reversed $139 $-1 #
coedge $-1 $236 $351 $436 $437 reversed $139 $-1 #
coedge $-1 $244 $239 $236 $354 forward $234 $-1 #
edge $-1 $357 -49.006061205665901 $438 -44.923895842628298 $353 $439 forward 7 unknown #
coedge $-1 $238 $237 $360 $440 reversed $86 $-1 #
edge $-1 $441 48.234113220203646 $357 53.643035307823602 $351 $442 forward 7 unknown #
vertex $-1 $240 $443 #
straight-curve $-1 -2.5582945417304117 26.821517653911794 5.4169754820234566 -1 0 0 I I #
coedge $-1 $436 $241 $244 $364 forward $349 $-1 #
coedge $-1 $241 $436 $355 $440 forward $349 $-1 #
vertex $-1 $242 $444 #
straight-curve $-1 1.6651576138009467 32.018761978586525 9.4991408450610564 0 1 0 I I #
straight-curve $-1 1.6651576138009467 -8.371479490760521 45.901888585690777 0 -0.65605901945558964 0.75470958851134928 I I #
edge $-1 $245 -1.6651576138009467 $438 11.898335780722594 $244 $445 forward 7 unknown #
point $-1 1.6651576138009467 26.821517653911794 9.4991408450610546 #
point $-1 1.6651576138009467 26.821517653911798 5.416975482023453 #
edge $-1 $446 1 $446 0 $248 $-1 forward 7 unknown #
vertex $-1 $249 $447 #
ellipse-curve $-1 -8.0230519537158713 24.193274480904051 6.7157245899671523 0 0.75470958851134928 0.65605901945558964 0.5 0 0 1 I I #
point $-1 -7.5230519537158713 25.047231593353981 7.4580581635422565 #
edge $-1 $448 1 $448 0 $252 $-1 forward 7 unknown #
vertex $-1 $253 $449 #
ellipse-curve $-1 -2.2101262132057826 24.193274480904051 6.7157245899671523 0 0.75470958851134928 0.65605901945558964 0.5 0 0 1 I I #
point $-1 -1.7101262132057826 25.047231593353981 7.4580581635422565 #
plane-surface $-1 47.971434675130467 0 0 -1 0 0 0 0 1 forward_v I I I I #
coedge $-1 $261 $259 $263 $380 reversed $161 $-1 #
edge $-1 $274 -9.4991408450610546 $382 9.4991408450610546 $273 $450 forward 7 unknown #
vertex $-1 $380 $451 #
straight-curve $-1 -47.971434675130467 -26.821517653911794 0 0 0 -1 I I #
edge $-1 $378 -26.821517653911794 $382 26.821517653911794 $376 $452 forward 7 unknown #
straight-curve $-1 0 -26.821517653911794 -9.4991408450610546 -1 0 0 I I #
vertex $-1 $266 $453 #
straight-curve $-1 0 26.821517653911794 -9.4991408450610546 1 0 0 I I #
point $-1 47.971434675130467 26.821517653911794 -9.4991408450610546 #
point $-1 47.971434675130467 -26.821517653911794 -9.4991408450610546 #
straight-curve $-1 -47.971434675130467 0 9.4991408450610546 0 -1 0 I I #
point $-1 -47.971434675130467 26.821517653911794 9.4991408450610546 #
point $-1 -47.971434675130467 -26.821517653911794 9.4991408450610546 #
straight-curve $-1 47.971434675130467 -26.821517653911794 0 0 0 -1 I I #
straight-curve $-1 47.971434675130467 26.821517653911794 0 0 0 -1 I I #
plane-surface $-1 0 26.821517653911794 0 0 -1 0 0 0 -1 forward_v I I I I #
coedge $-1 $287 $286 $454 $455 forward $108 $-1 #
edge $-1 $290 35.48269820192192 $456 47.971434675130467 $289 $457 forward 7 unknown #
coedge $-1 $295 $294 $287 $395 reversed $296 $-1 #
edge $-1 $458 -47.971434675130467 $396 -35.48269820192192 $394 $459 forward 7 unknown #
vertex $-1 $302 $460 #
straight-curve $-1 -35.48269820192192 0 -9.4991408450610546 0 -1 0 I I #
point $-1 -35.48269820192192 -26.821517653911794 -9.4991408450610546 #
coedge $-1 $454 $292 $295 $402 forward $284 $-1 #
coedge $-1 $292 $454 $299 $404 reversed $284 $-1 #
straight-curve $-1 -47.971434675130467 0 -4.9349032495286504 0 1 0 I I #
edge $-1 $297 4.9349032495286504 $458 9.4991408450610546 $295 $461 forward 7 unknown #
point $-1 -47.971434675130467 26.821517653911794 -4.9349032495286504 #
edge $-1 $300 4.9349032495286504 $456 9.4991408450610546 $400 $462 forward 7 unknown #
point $-1 -47.971434675130467 -26.821517653911794 -4.9349032495286504 #
straight-curve $-1 -35.48269820192192 26.821517653911794 -3.6085110236474263 0 0 -1 I I #
plane-surface $-1 47.971434675130467 0 0 -1 0 0 0 0 1 forward_v I I I I #
coedge $-1 $419 $308 $314 $415 forward $196 $-1 #
coedge $-1 $308 $419 $410 $463 forward $196 $-1 #
coedge $-1 $310 $309 $409 $463 reversed $116 $-1 #
edge $-1 $320 1.3263922258812242 $412 5.8906298214136283 $309 $464 forward 7 unknown #
vertex $-1 $312 $465 #
straight-curve $-1 35.48269820192192 0 -9.4991408450610546 0 1 0 I I #
straight-curve $-1 35.48269820192192 0 -4.9349032495286504 0 -1 0 I I #
edge $-1 $315 35.48269820192192 $423 47.971434675130467 $314 $466 forward 7 unknown #
point $-1 35.48269820192192 26.821517653911794 -9.4991408450610546 #
point $-1 35.48269820192192 26.821517653911794 -4.9349032495286504 #
point $-1 35.48269820192192 -26.821517653911794 -4.9349032495286504 #
coedge $-1 $409 $408 $322 $420 forward $196 $-1 #
edge $-1 $423 -26.821517653911794 $421 26.821517653911794 $322 $467 forward 7 unknown #
vertex $-1 $323 $468 #
straight-curve $-1 47.971434675130467 -26.821517653911794 0 0 0 -1 I I #
vertex $-1 $420 $469 #
straight-curve $-1 47.971434675130467 26.821517653911794 0 0 0 -1 I I #
edge $-1 $426 17.424685380103835 $429 23.755632397193573 $328 $470 forward 7 unknown #
vertex $-1 $425 $471 #
straight-curve $-1 16.621831888380811 -26.821517653911794 38.841673356687295 0 0 1 I I #
edge $-1 $429 -12.79019103734327 $339 5.1269093352681878 $338 $472 forward 7 unknown #
vertex $-1 $428 $473 #
straight-curve $-1 16.621831888380811 -26.821517653911798 4.1868454267523418 0 -0.76604443648966558 -0.64278761758704617 I I #
point $-1 16.621831888380811 -26.821517653911794 4.1868454267523445 #
point $-1 -1.2952684842306468 -20.490570636822056 9.4991408450610564 #
straight-curve $-1 0 -26.821517653911794 9.4991408450610546 1 0 0 I I #
vertex $-1 $345 $474 #
point $-1 9.6632817020750821 -21.110238735656651 3.8090204563851406 #
coedge $-1 $360 $359 $352 $437 forward $349 $-1 #
edge $-1 $438 5.1972443246747311 $441 8.7458164457903536 $436 $475 forward 7 unknown #
vertex $-1 $437 $476 #
straight-curve $-1 -11.898335780722594 26.821517653911794 54.423036687689354 0 0 1 I I #
edge $-1 $441 -9.3400412389921819 $361 4.2234521555313584 $360 $477 forward 7 unknown #
vertex $-1 $440 $478 #
straight-curve $-1 -11.898335780722594 -8.371479490760521 45.901888585690777 0 0.65605901945558964 -0.75470958851134928 I I #
point $-1 -11.898335780722594 26.821517653911798 5.416975482023453 #
point $-1 1.6651576138009467 23.272945532796172 9.4991408450610564 #
straight-curve $-1 0 26.821517653911794 9.4991408450610546 -1 0 0 I I #
vertex $-1 $367 $479 #
point $-1 -7.5230519537158713 24.193274480904051 6.7157245899671523 #
vertex $-1 $371 $480 #
point $-1 -1.7101262132057826 24.193274480904051 6.7157245899671523 #
straight-curve $-1 -47.971434675130467 26.821517653911794 0 0 0 -1 I I #
point $-1 -47.971434675130467 -26.821517653911794 -9.4991408450610546 #
straight-curve $-1 -47.971434675130467 0 -9.4991408450610546 0 1 0 I I #
point $-1 -47.971434675130467 26.821517653911794 -9.4991408450610546 #
coedge $-1 $400 $399 $392 $455 reversed $284 $-1 #
edge $-1 $456 -26.821517653911794 $458 26.821517653911794 $454 $481 forward 7 unknown #
vertex $-1 $455 $482 #
straight-curve $-1 0 -26.821517653911794 -9.4991408450610546 -1 0 0 I I #
vertex $-1 $395 $483 #
straight-curve $-1 0 26.821517653911794 -9.4991408450610546 1 0 0 I I #
point $-1 -35.48269820192192 26.821517653911794 -9.4991408450610546 #
straight-curve $-1 -47.971434675130467 26.821517653911794 0 0 0 -1 I I #
straight-curve $-1 -47.971434675130467 -26.821517653911794 0 0 0 -1 I I #
edge $-1 $421 -47.971434675130467 $412 -35.48269820192192 $410 $484 forward 7 unknown #
straight-curve $-1 35.48269820192192 -26.821517653911794 -3.6085110236474263 0 0 -1 I I #
point $-1 35.48269820192192 -26.821517653911794 -9.4991408450610546 #
straight-curve $-1 0 26.821517653911794 -9.4991408450610546 1 0 0 I I #
straight-curve $-1 47.971434675130467 0 -9.4991408450610546 0 -1 0 I I #
point $-1 47.971434675130467 -26.821517653911794 -9.4991408450610546 #
point $-1 47.971434675130467 26.821517653911794 -9.4991408450610546 #
straight-curve $-1 16.621831888380811 -44.246203034015629 9.4991408450610564 0 1 0 I I #
point $-1 16.621831888380811 -26.821517653911794 9.4991408450610546 #
straight-curve $-1 3.831640851037541 -20.490570636822056 9.4991408450610546 -1 0 0 I I #
point $-1 16.621831888380811 -20.490570636822056 9.4991408450610564 #
point $-1 7.6632817020750821 -19.824663500482558 2.2769315834058093 #
straight-curve $-1 -11.898335780722594 32.018761978586525 9.4991408450610564 0 -1 0 I I #
point $-1 -11.898335780722594 26.821517653911794 9.4991408450610546 #
straight-curve $-1 -2.5582945417304117 23.272945532796175 9.4991408450610564 1 0 0 I I #
point $-1 -11.898335780722594 23.272945532796172 9.4991408450610564 #
point $-1 -8.0230519537158713 23.815919686648378 6.3876950802393573 #
point $-1 -2.2101262132057826 23.815919686648378 6.3876950802393573 #
straight-curve $-1 -47.971434675130467 0 -9.4991408450610546 0 1 0 I I #
point $-1 -47.971434675130467 -26.821517653911794 -9.4991408450610546 #
point $-1 -47.971434675130467 26.821517653911794 -9.4991408450610546 #
straight-curve $-1 0 -26.821517653911794 -9.4991408450610546 -1 0 0 I I #
End-of-ACIS-data 