500 0 4 0           
7 Unknown 11 ACIS 5.0 NT 24 Fri Mar 26 00:45:18 1999 
-1 9.9999999999999995e-007 1e-010 
body $-1 $4 $-1 $5 #
body $-1 $6 $-1 $7 #
body $-1 $8 $-1 $9 #
body $-1 $10 $-1 $11 #
lump $-1 $-1 $12 $0 #
transform $-1 1 0 0 0 1 0 0 0 1 66.962492751854001 27.249097631884094 10.11909756170208 1 rotate no_reflect no_shear #
lump $-1 $-1 $13 $1 #
transform $-1 1 0 0 0 1 0 0 0 1 66.962492751854001 27.249097631884094 10.11909756170208 1 rotate no_reflect no_shear #
lump $-1 $-1 $14 $2 #
transform $-1 1 0 0 0 1 0 0 0 1 66.962492751854001 27.249097631884094 10.11909756170208 1 rotate no_reflect no_shear #
lump $-1 $-1 $15 $3 #
transform $-1 1 0 0 0 1 0 0 0 1 66.962492751854001 27.249097631884094 10.11909756170208 1 rotate no_reflect no_shear #
shell $-1 $-1 $-1 $16 $-1 $4 #
shell $-1 $-1 $-1 $17 $-1 $6 #
shell $-1 $-1 $-1 $18 $-1 $8 #
shell $-1 $-1 $-1 $19 $-1 $10 #
face $-1 $20 $21 $12 $-1 $22 forward single #
face $-1 $23 $24 $13 $-1 $25 forward single #
face $-1 $26 $27 $14 $-1 $28 reversed single #
face $-1 $29 $30 $15 $-1 $31 forward single #
face $-1 $32 $33 $12 $-1 $34 reversed single #
loop $-1 $-1 $35 $16 #
plane-surface $-1 0 0 10.11909756170208 0 0 1 1 0 0 forward_v I I I I #
face $-1 $36 $37 $13 $-1 $38 reversed single #
loop $-1 $-1 $39 $17 #
plane-surface $-1 -66.962492751854001 0 0 1 0 0 0 0 -1 forward_v I I I I #
face $-1 $40 $41 $14 $-1 $42 reversed single #
loop $-1 $-1 $43 $18 #
plane-surface $-1 27.584325542806866 13.328639508766692 185.73900378622167 0 -1 0 -0.54463904215088732 0 -0.83867056331134215 forward_v I I I I #
face $-1 $44 $45 $15 $-1 $46 forward single #
loop $-1 $47 $48 $19 #
cone-surface $-1 58.024642232183041 7.1628744604368215 2.9649934633966355 -0.54463904215088732 0 -0.83867056331134215 2.0966764082783556 0 -1.3615976053772183 1 I I 0 1 2.5 forward I I I I #
face $-1 $49 $50 $12 $-1 $51 reversed single #
loop $-1 $-1 $52 $20 #
plane-surface $-1 0 0 -10.11909756170208 0 0 1 1 0 0 forward_v I I I I #
coedge $-1 $53 $54 $55 $56 forward $21 $-1 #
face $-1 $57 $58 $13 $-1 $59 reversed single #
loop $-1 $-1 $60 $23 #
plane-surface $-1 0 0 -10.11909756170208 0 0 1 1 0 0 forward_v I I I I #
coedge $-1 $61 $62 $63 $64 forward $24 $-1 #
face $-1 $65 $66 $14 $-1 $67 reversed single #
loop $-1 $-1 $68 $26 #
plane-surface $-1 -45.356450282004133 7.1628744604368286 73.420060752363554 0.54463904215088732 0 0.83867056331134215 0.83867056331134215 0 -0.54463904215088732 forward_v I I I I #
coedge $-1 $69 $70 $71 $72 reversed $27 $-1 #
face $-1 $-1 $73 $15 $-1 $74 forward single #
loop $-1 $75 $76 $29 #
cone-surface $-1 55.827997638102005 7.1628744604368215 -0.41754252197323538 -0.54463904215088732 0 -0.83867056331134215 1.0483382041391778 0 -0.68079880268860915 1 I I -0.70710678118654746 0.70710678118654746 1.25 forward I I I I #
loop $-1 $-1 $77 $19 #
coedge $-1 $48 $48 $78 $79 reversed $30 $-1 #
face $-1 $80 $81 $12 $-1 $82 reversed single #
loop $-1 $-1 $83 $32 #
plane-surface $-1 0 -27.249097631884094 0 0 1 0 0 0 1 forward_v I I I I #
coedge $-1 $84 $85 $86 $87 forward $33 $-1 #
coedge $-1 $88 $35 $89 $90 forward $21 $-1 #
coedge $-1 $35 $88 $91 $92 forward $21 $-1 #
coedge $-1 $93 $94 $35 $56 reversed $95 $-1 #
edge $-1 $96 -27.249097631884094 $97 27.249097631884094 $55 $98 forward 7 unknown #
face $-1 $99 $100 $13 $-1 $101 reversed single #
loop $-1 $-1 $102 $36 #
plane-surface $-1 -70.902149854069407 -26.749097631884094 0 0 1 0 0 0 1 forward_v I I I I #
coedge $-1 $103 $104 $62 $105 forward $37 $-1 #
coedge $-1 $106 $39 $107 $108 reversed $24 $-1 #
coedge $-1 $39 $106 $60 $105 reversed $24 $-1 #
coedge $-1 $109 $110 $39 $64 reversed $111 $-1 #
edge $-1 $112 -10.11909756170208 $113 10.11909756170208 $63 $114 forward 7 unknown #
face $-1 $115 $116 $14 $-1 $117 forward single #
loop $-1 $-1 $118 $40 #
plane-surface $-1 27.584325542806866 0.99710941210696546 185.73900378622167 0 1 0 0.54463904215088732 0 0.83867056331134215 forward_v I I I I #
coedge $-1 $119 $120 $121 $122 reversed $41 $-1 #
coedge $-1 $70 $43 $123 $124 reversed $27 $-1 #
coedge $-1 $43 $69 $119 $125 reversed $27 $-1 #
coedge $-1 $121 $126 $43 $72 forward $116 $-1 #
edge $-1 $127 -53.170329980450568 $128 -38.326320523893465 $71 $129 forward 7 unknown #
loop $-1 $-1 $78 $44 #
plane-surface $-1 -45.356450282004133 7.1628744604368286 73.420060752363554 0.54463904215088732 0 0.83867056331134215 0.83867056331134215 0 -0.54463904215088732 forward_v I I I I #
loop $-1 $-1 $130 $29 #
coedge $-1 $76 $76 $77 $131 reversed $45 $-1 #
coedge $-1 $77 $77 $76 $131 forward $47 $-1 #
coedge $-1 $78 $78 $48 $79 forward $73 $-1 #
edge $-1 $132 0 $132 6.2831853071796004 $78 $133 forward 7 unknown #
face $-1 $134 $135 $12 $-1 $136 reversed single #
loop $-1 $-1 $137 $49 #
plane-surface $-1 -66.962492751854001 0 0 1 0 0 0 0 -1 forward_v I I I I #
coedge $-1 $138 $91 $139 $140 forward $50 $-1 #
coedge $-1 $141 $52 $138 $142 forward $33 $-1 #
coedge $-1 $52 $141 $143 $144 forward $33 $-1 #
coedge $-1 $94 $93 $52 $87 reversed $95 $-1 #
edge $-1 $145 -27.249097631884094 $146 27.249097631884094 $86 $147 forward 7 unknown #
coedge $-1 $54 $53 $148 $149 forward $21 $-1 #
coedge $-1 $150 $151 $53 $90 reversed $135 $-1 #
edge $-1 $97 -66.962492751854001 $152 66.962492751854001 $89 $153 forward 7 unknown #
coedge $-1 $83 $154 $54 $92 reversed $50 $-1 #
edge $-1 $155 -66.962492751854001 $96 66.962492751854001 $91 $156 forward 7 unknown #
coedge $-1 $86 $55 $154 $157 forward $95 $-1 #
coedge $-1 $55 $86 $150 $158 reversed $95 $-1 #
loop $-1 $-1 $93 $134 #
vertex $-1 $56 $159 #
vertex $-1 $56 $160 #
straight-curve $-1 66.962492751854001 0 10.11909756170208 0 1 0 I I #
face $-1 $161 $111 $13 $-1 $162 reversed single #
loop $-1 $-1 $163 $57 #
plane-surface $-1 -74.841806956284813 -24.303584717019671 0 1 0 0 0 0 -1 forward_v I I I I #
coedge $-1 $164 $165 $166 $167 forward $58 $-1 #
coedge $-1 $168 $60 $164 $169 forward $37 $-1 #
coedge $-1 $60 $168 $109 $170 forward $37 $-1 #
edge $-1 $112 21.858071802155248 $171 26.749097631884094 $60 $172 forward 7 unknown #
coedge $-1 $62 $61 $173 $174 forward $24 $-1 #
coedge $-1 $175 $176 $61 $108 forward $177 $-1 #
edge $-1 $178 -26.749097631884094 $113 -21.858071802155248 $107 $179 forward 7 unknown #
coedge $-1 $180 $63 $104 $170 reversed $111 $-1 #
coedge $-1 $63 $180 $175 $181 reversed $111 $-1 #
loop $-1 $-1 $63 $99 #
vertex $-1 $105 $182 #
vertex $-1 $181 $183 #
straight-curve $-1 -66.962492751854001 -21.858071802155248 0 0 0 1 I I #
face $-1 $-1 $184 $14 $-1 $185 reversed single #
loop $-1 $-1 $71 $65 #
plane-surface $-1 0 0 10.11909756170208 0 0 1 1 0 0 forward_v I I I I #
coedge $-1 $186 $187 $188 $189 reversed $66 $-1 #
coedge $-1 $190 $68 $70 $125 forward $41 $-1 #
coedge $-1 $68 $190 $186 $191 forward $41 $-1 #
coedge $-1 $188 $71 $68 $122 forward $116 $-1 #
edge $-1 $128 -9.7472022785482775 $192 2.5843278181114488 $121 $193 forward 7 unknown #
coedge $-1 $194 $195 $69 $124 forward $184 $-1 #
edge $-1 $196 -92.390216965558281 $127 -82.75040433140876 $123 $197 forward 7 unknown #
edge $-1 $128 116.22553341140116 $196 133.924985503708 $70 $198 forward 7 unknown #
coedge $-1 $71 $188 $194 $199 forward $116 $-1 #
vertex $-1 $72 $200 #
vertex $-1 $72 $201 #
straight-curve $-1 13.792162771403433 13.328639508766692 10.119097561702077 -1 0 0 I I #
coedge $-1 $130 $130 $-1 $202 reversed $75 $-1 #
edge $-1 $203 0 $203 6.2831853071796004 $76 $204 forward 7 unknown #
vertex $-1 $79 $205 #
ellipse-curve $-1 59.540488023575449 7.1628744604368215 5.2991912446273099 0.54463904215088732 0 0.83867056331134215 2.0966764082783556 0 -1.3615976053772183 1 I I #
face $-1 $-1 $95 $12 $-1 $206 reversed single #
loop $-1 $-1 $150 $80 #
plane-surface $-1 0 27.249097631884094 0 0 -1 0 0 0 -1 forward_v I I I I #
coedge $-1 $207 $148 $151 $208 forward $81 $-1 #
coedge $-1 $154 $83 $84 $142 reversed $50 $-1 #
coedge $-1 $148 $207 $83 $140 reversed $81 $-1 #
edge $-1 $155 -10.11909756170208 $209 10.11909756170208 $139 $210 forward 7 unknown #
coedge $-1 $85 $84 $207 $211 forward $33 $-1 #
edge $-1 $146 -66.962492751854001 $209 66.962492751854001 $138 $212 forward 7 unknown #
coedge $-1 $151 $150 $85 $144 reversed $135 $-1 #
edge $-1 $213 -66.962492751854001 $145 66.962492751854001 $143 $214 forward 7 unknown #
vertex $-1 $87 $215 #
vertex $-1 $157 $216 #
straight-curve $-1 66.962492751854001 0 -10.11909756170208 0 -1 0 I I #
coedge $-1 $137 $139 $88 $149 reversed $81 $-1 #
edge $-1 $152 -27.249097631884094 $155 27.249097631884094 $148 $217 forward 7 unknown #
coedge $-1 $143 $89 $94 $158 forward $135 $-1 #
coedge $-1 $89 $143 $137 $208 reversed $135 $-1 #
vertex $-1 $90 $218 #
straight-curve $-1 0 27.249097631884094 10.11909756170208 -1 0 0 I I #
coedge $-1 $91 $138 $93 $157 reversed $50 $-1 #
vertex $-1 $149 $219 #
straight-curve $-1 0 -27.249097631884094 10.11909756170208 1 0 0 I I #
edge $-1 $96 -10.11909756170208 $146 10.11909756170208 $93 $220 forward 7 unknown #
edge $-1 $97 -10.11909756170208 $145 10.11909756170208 $94 $221 forward 7 unknown #
point $-1 66.962492751854001 -27.249097631884094 10.11909756170208 #
point $-1 66.962492751854001 27.249097631884094 10.11909756170208 #
face $-1 $-1 $177 $13 $-1 $222 forward single #
plane-surface $-1 -70.902149854069407 -21.858071802155248 0 0 -1 0 0 0 -1 forward_v I I I I #
coedge $-1 $223 $224 $180 $225 forward $100 $-1 #
coedge $-1 $173 $102 $103 $169 reversed $58 $-1 #
coedge $-1 $102 $173 $176 $226 reversed $58 $-1 #
coedge $-1 $224 $223 $102 $167 reversed $100 $-1 #
edge $-1 $227 -10.11909756170208 $228 10.11909756170208 $166 $229 forward 7 unknown #
coedge $-1 $104 $103 $223 $230 forward $37 $-1 #
edge $-1 $171 -3.9396571022154063 $228 3.9396571022154063 $164 $231 forward 7 unknown #
edge $-1 $232 -3.9396571022154063 $112 3.9396571022154063 $109 $233 forward 7 unknown #
vertex $-1 $169 $234 #
straight-curve $-1 -66.962492751854001 0 -10.11909756170208 0 -1 0 I I #
coedge $-1 $165 $164 $106 $174 reversed $58 $-1 #
edge $-1 $178 -10.11909756170208 $171 10.11909756170208 $173 $235 forward 7 unknown #
coedge $-1 $236 $107 $110 $181 forward $177 $-1 #
coedge $-1 $107 $236 $165 $226 forward $177 $-1 #
loop $-1 $-1 $107 $161 #
vertex $-1 $108 $237 #
straight-curve $-1 -66.962492751854001 0 10.11909756170208 0 1 0 I I #
coedge $-1 $110 $109 $163 $225 reversed $111 $-1 #
edge $-1 $113 -3.9396571022154063 $238 3.9396571022154063 $110 $239 forward 7 unknown #
point $-1 -66.962492751854001 -21.858071802155248 -10.11909756170208 #
point $-1 -66.962492751854001 -21.858071802155248 10.11909756170208 #
loop $-1 $-1 $123 $115 #
plane-surface $-1 66.962492751854001 0 0 -1 0 0 0 0 1 forward_v I I I I #
coedge $-1 $187 $118 $120 $191 reversed $66 $-1 #
coedge $-1 $118 $186 $240 $241 reversed $66 $-1 #
coedge $-1 $126 $121 $118 $189 forward $116 $-1 #
edge $-1 $192 38.326320523893465 $242 53.170329980450568 $188 $243 forward 7 unknown #
coedge $-1 $120 $119 $195 $244 reversed $41 $-1 #
edge $-1 $245 -133.924985503708 $192 -116.22553341140116 $186 $246 forward 7 unknown #
vertex $-1 $122 $247 #
straight-curve $-1 52.118483295296883 3.5814372302184143 10.119097561702077 0 -1 0 I I #
coedge $-1 $240 $123 $126 $199 reversed $184 $-1 #
coedge $-1 $123 $240 $190 $244 forward $184 $-1 #
vertex $-1 $124 $248 #
straight-curve $-1 66.962492751854001 13.328639508766692 92.869501893110836 0 0 1 I I #
straight-curve $-1 -45.356450282004133 13.328639508766692 73.420060752363554 0.83867056331134215 0 -0.54463904215088732 I I #
edge $-1 $242 0.99710941210696546 $127 13.328639508766692 $194 $249 forward 7 unknown #
point $-1 66.962492751854001 13.328639508766692 10.11909756170208 #
point $-1 52.118483295296897 13.328639508766692 10.119097561702077 #
edge $-1 $250 1 $250 0 $130 $-1 forward 7 unknown #
vertex $-1 $131 $251 #
ellipse-curve $-1 56.508796440790611 7.1628744604368215 0.6307956821659424 0.54463904215088732 0 0.83867056331134215 2.0966764082783556 0 -1.3615976053772183 1 I I #
point $-1 61.637164431853819 7.1628744604368215 3.9375936392501103 #
plane-surface $-1 66.962492751854001 0 0 -1 0 0 0 0 1 forward_v I I I I #
coedge $-1 $139 $137 $141 $211 reversed $81 $-1 #
edge $-1 $152 -10.11909756170208 $213 10.11909756170208 $151 $252 forward 7 unknown #
vertex $-1 $211 $253 #
straight-curve $-1 -66.962492751854001 -27.249097631884094 0 0 0 -1 I I #
edge $-1 $209 -27.249097631884094 $213 27.249097631884094 $207 $254 forward 7 unknown #
straight-curve $-1 0 -27.249097631884094 -10.11909756170208 -1 0 0 I I #
vertex $-1 $144 $255 #
straight-curve $-1 0 27.249097631884094 -10.11909756170208 1 0 0 I I #
point $-1 66.962492751854001 27.249097631884094 -10.11909756170208 #
point $-1 66.962492751854001 -27.249097631884094 -10.11909756170208 #
straight-curve $-1 -66.962492751854001 0 10.11909756170208 0 -1 0 I I #
point $-1 -66.962492751854001 27.249097631884094 10.11909756170208 #
point $-1 -66.962492751854001 -27.249097631884094 10.11909756170208 #
straight-curve $-1 66.962492751854001 -27.249097631884094 0 0 0 -1 I I #
straight-curve $-1 66.962492751854001 27.249097631884094 0 0 0 -1 I I #
plane-surface $-1 0 0 10.11909756170208 0 0 1 1 0 0 forward_v I I I I #
coedge $-1 $166 $163 $168 $230 reversed $100 $-1 #
coedge $-1 $163 $166 $236 $256 reversed $100 $-1 #
edge $-1 $238 -10.11909756170208 $232 10.11909756170208 $180 $257 forward 7 unknown #
edge $-1 $227 -3.9396571022154063 $178 3.9396571022154063 $165 $258 forward 7 unknown #
vertex $-1 $256 $259 #
vertex $-1 $230 $260 #
straight-curve $-1 -74.841806956284813 -26.749097631884094 0 0 0 -1 I I #
edge $-1 $228 -2.4455129148644232 $232 2.4455129148644232 $223 $261 forward 7 unknown #
straight-curve $-1 -70.902149854069407 -26.749097631884094 -10.11909756170208 -1 0 0 I I #
vertex $-1 $170 $262 #
straight-curve $-1 -70.902149854069407 -21.858071802155248 -10.11909756170208 1 0 0 I I #
point $-1 -66.962492751854001 -26.749097631884094 -10.11909756170208 #
straight-curve $-1 -66.962492751854001 -26.749097631884094 0 0 0 -1 I I #
coedge $-1 $176 $175 $224 $256 forward $177 $-1 #
point $-1 -66.962492751854001 -26.749097631884094 10.11909756170208 #
vertex $-1 $181 $263 #
straight-curve $-1 -70.902149854069407 -21.858071802155248 10.11909756170208 -1 0 0 I I #
coedge $-1 $195 $194 $187 $241 forward $184 $-1 #
edge $-1 $242 82.75040433140876 $245 92.390216965558281 $240 $264 forward 7 unknown #
vertex $-1 $199 $265 #
straight-curve $-1 13.792162771403433 0.99710941210696546 10.119097561702077 1 0 0 I I #
edge $-1 $245 -2.5843278181114488 $196 9.7472022785482775 $195 $266 forward 7 unknown #
vertex $-1 $244 $267 #
straight-curve $-1 -45.356450282004133 0.99710941210696546 73.420060752363554 -0.83867056331134215 0 0.54463904215088732 I I #
point $-1 52.118483295296897 0.99710941210696546 10.119097561702077 #
point $-1 66.962492751853986 13.328639508766692 0.47928492755255547 #
straight-curve $-1 66.962492751854001 0 10.11909756170208 0 1 0 I I #
vertex $-1 $202 $268 #
point $-1 58.605472849068967 7.1628744604368215 -0.73080192321127591 #
straight-curve $-1 -66.962492751854001 27.249097631884094 0 0 0 -1 I I #
point $-1 -66.962492751854001 -27.249097631884094 -10.11909756170208 #
straight-curve $-1 -66.962492751854001 0 -10.11909756170208 0 1 0 I I #
point $-1 -66.962492751854001 27.249097631884094 -10.11909756170208 #
edge $-1 $238 -2.4455129148644232 $227 2.4455129148644232 $224 $269 forward 7 unknown #
straight-curve $-1 -74.841806956284813 -21.858071802155248 0 0 0 -1 I I #
straight-curve $-1 -70.902149854069407 -26.749097631884094 10.11909756170208 1 0 0 I I #
point $-1 -74.841806956284813 -26.749097631884094 10.11909756170208 #
point $-1 -74.841806956284813 -26.749097631884094 -10.11909756170208 #
straight-curve $-1 -74.841806956284813 -24.303584717019671 -10.11909756170208 0 1 0 I I #
point $-1 -74.841806956284813 -21.858071802155248 -10.11909756170208 #
point $-1 -74.841806956284813 -21.858071802155248 10.11909756170208 #
straight-curve $-1 66.962492751854001 0.99710941210696546 92.869501893110836 0 0 -1 I I #
point $-1 66.962492751854001 0.99710941210696546 10.11909756170208 #
straight-curve $-1 66.962492751854001 3.5814372302184143 0.47928492755254837 0 1 0 I I #
point $-1 66.962492751853986 0.99710941210696546 0.47928492755255547 #
point $-1 55.147198835413398 7.1628744604368215 -1.4658807261124132 #
straight-curve $-1 -74.841806956284813 -24.303584717019671 10.11909756170208 0 -1 0 I I #
End-of-ACIS-data 