500 0 3 0           
7 Unknown 11 ACIS 5.0 NT 24 Fri Mar 26 20:46:13 1999 
-1 9.9999999999999995e-007 1e-010 
body $-1 $3 $-1 $4 #
body $-1 $5 $-1 $6 #
body $-1 $7 $-1 $8 #
lump $-1 $-1 $9 $0 #
transform $-1 1 0 0 0 1 0 0 0 1 69.687185277871038 37.898242262477687 17.16183044951007 1 rotate no_reflect no_shear #
lump $-1 $-1 $10 $1 #
transform $-1 1 0 0 0 1 0 0 0 1 69.687185277871038 37.898242262477687 17.16183044951007 1 rotate no_reflect no_shear #
lump $-1 $-1 $11 $2 #
transform $-1 1 0 0 0 1 0 0 0 1 69.687185277871038 37.898242262477687 17.16183044951007 1 rotate no_reflect no_shear #
shell $-1 $-1 $-1 $12 $-1 $3 #
shell $-1 $-1 $-1 $13 $-1 $5 #
shell $-1 $-1 $-1 $14 $-1 $7 #
face $-1 $15 $16 $9 $-1 $17 forward single #
face $-1 $18 $19 $10 $-1 $20 reversed single #
face $-1 $21 $22 $11 $-1 $23 forward single #
face $-1 $24 $25 $9 $-1 $26 reversed single #
loop $-1 $-1 $27 $12 #
plane-surface $-1 0 0 17.16183044951007 0 0 1 1 0 0 forward_v I I I I #
face $-1 $28 $29 $10 $-1 $30 reversed single #
loop $-1 $-1 $31 $13 #
plane-surface $-1 -60.642746796123404 -50.498525533206184 0 0 1 0 0 0 1 forward_v I I I I #
face $-1 $32 $33 $11 $-1 $34 forward single #
loop $-1 $-1 $35 $14 #
plane-surface $-1 -38.776563965149073 19.567666385816132 0 0 1 0 0 0 1 forward_v I I I I #
face $-1 $36 $37 $9 $-1 $38 reversed single #
loop $-1 $-1 $39 $15 #
plane-surface $-1 0 0 -17.16183044951007 0 0 1 1 0 0 forward_v I I I I #
coedge $-1 $40 $41 $42 $43 forward $16 $-1 #
face $-1 $44 $45 $10 $-1 $46 reversed single #
loop $-1 $-1 $47 $18 #
plane-surface $-1 -64.026665688644528 -44.198383897841936 0 1 0 0 0 0 -1 forward_v I I I I #
coedge $-1 $48 $49 $50 $51 forward $19 $-1 #
face $-1 $52 $53 $11 $-1 $54 forward single #
loop $-1 $-1 $55 $21 #
plane-surface $-1 -42.189603551447249 28.73295432414691 0 1 0 0 0 0 -1 forward_v I I I I #
coedge $-1 $56 $57 $58 $59 reversed $22 $-1 #
face $-1 $60 $61 $9 $-1 $62 reversed single #
loop $-1 $-1 $63 $24 #
plane-surface $-1 0 -37.898242262477687 0 0 1 0 0 0 1 forward_v I I I I #
coedge $-1 $64 $65 $66 $67 forward $25 $-1 #
coedge $-1 $68 $27 $69 $70 forward $16 $-1 #
coedge $-1 $27 $68 $71 $72 forward $16 $-1 #
coedge $-1 $73 $74 $27 $43 reversed $75 $-1 #
edge $-1 $76 -37.898242262477687 $77 37.898242262477687 $42 $78 forward 7 unknown #
face $-1 $79 $80 $10 $-1 $81 reversed single #
loop $-1 $-1 $82 $28 #
plane-surface $-1 -57.258827903602281 -44.198383897841936 0 -1 0 0 0 0 1 forward_v I I I I #
coedge $-1 $83 $84 $85 $86 reversed $29 $-1 #
coedge $-1 $87 $31 $88 $89 reversed $19 $-1 #
coedge $-1 $31 $87 $90 $91 reversed $19 $-1 #
coedge $-1 $84 $83 $31 $51 reversed $29 $-1 #
edge $-1 $92 -17.16183044951007 $93 17.16183044951007 $50 $94 forward 7 unknown #
face $-1 $95 $96 $11 $-1 $97 forward single #
loop $-1 $-1 $98 $32 #
plane-surface $-1 -35.363524378850897 28.73295432414691 0 -1 0 0 0 0 1 forward_v I I I I #
coedge $-1 $99 $100 $101 $102 reversed $33 $-1 #
coedge $-1 $103 $35 $104 $105 reversed $22 $-1 #
coedge $-1 $35 $103 $106 $107 reversed $22 $-1 #
coedge $-1 $100 $99 $35 $59 forward $33 $-1 #
edge $-1 $108 -17.16183044951007 $109 17.16183044951007 $58 $110 forward 7 unknown #
face $-1 $111 $112 $9 $-1 $113 reversed single #
loop $-1 $-1 $114 $36 #
plane-surface $-1 -69.687185277871038 0 0 1 0 0 0 0 -1 forward_v I I I I #
coedge $-1 $115 $71 $116 $117 forward $37 $-1 #
coedge $-1 $118 $39 $115 $119 forward $25 $-1 #
coedge $-1 $39 $118 $120 $121 forward $25 $-1 #
coedge $-1 $74 $73 $39 $67 reversed $75 $-1 #
edge $-1 $122 -37.898242262477687 $123 37.898242262477687 $66 $124 forward 7 unknown #
coedge $-1 $41 $40 $125 $126 forward $16 $-1 #
coedge $-1 $127 $128 $40 $70 reversed $112 $-1 #
edge $-1 $77 -69.687185277871038 $129 69.687185277871038 $69 $130 forward 7 unknown #
coedge $-1 $63 $131 $41 $72 reversed $37 $-1 #
edge $-1 $132 -69.687185277871038 $76 69.687185277871038 $71 $133 forward 7 unknown #
coedge $-1 $66 $42 $131 $134 forward $75 $-1 #
coedge $-1 $42 $66 $127 $135 reversed $75 $-1 #
loop $-1 $-1 $73 $111 #
vertex $-1 $43 $136 #
vertex $-1 $43 $137 #
straight-curve $-1 69.687185277871038 0 17.16183044951007 0 1 0 I I #
face $-1 $138 $139 $10 $-1 $81 reversed single #
loop $-1 $-1 $85 $44 #
plane-surface $-1 0 -37.898242262477687 0 0 1 0 0 0 1 forward_v I I I I #
coedge $-1 $140 $141 $87 $142 forward $45 $-1 #
coedge $-1 $50 $47 $143 $144 reversed $29 $-1 #
coedge $-1 $47 $50 $145 $146 reversed $29 $-1 #
coedge $-1 $147 $148 $47 $86 forward $80 $-1 #
edge $-1 $149 -17.16183044951007 $150 17.16183044951007 $85 $151 forward 7 unknown #
coedge $-1 $49 $48 $82 $142 reversed $19 $-1 #
coedge $-1 $143 $152 $48 $89 forward $153 $-1 #
edge $-1 $154 -3.3839188925211232 $93 3.3839188925211232 $48 $155 forward 7 unknown #
coedge $-1 $156 $145 $49 $91 forward $157 $-1 #
edge $-1 $92 -3.3839188925211232 $158 3.3839188925211232 $49 $159 forward 7 unknown #
vertex $-1 $146 $160 #
vertex $-1 $144 $161 #
straight-curve $-1 -64.026665688644528 -50.498525533206184 0 0 0 -1 I I #
face $-1 $162 $163 $11 $-1 $164 reversed single #
loop $-1 $-1 $165 $52 #
plane-surface $-1 0 0 17.16183044951007 0 0 1 1 0 0 forward_v I I I I #
coedge $-1 $166 $167 $103 $168 reversed $53 $-1 #
coedge $-1 $58 $55 $169 $170 reversed $33 $-1 #
coedge $-1 $55 $58 $171 $172 reversed $33 $-1 #
coedge $-1 $173 $174 $55 $102 forward $163 $-1 #
edge $-1 $175 -17.16183044951007 $176 17.16183044951007 $101 $177 forward 7 unknown #
coedge $-1 $57 $56 $98 $168 forward $22 $-1 #
coedge $-1 $169 $165 $56 $105 forward $96 $-1 #
edge $-1 $178 15.975242396276361 $108 22.801321568872712 $104 $179 forward 7 unknown #
coedge $-1 $180 $171 $57 $107 forward $181 $-1 #
edge $-1 $109 -22.801321568872712 $182 -15.975242396276361 $106 $183 forward 7 unknown #
vertex $-1 $105 $184 #
vertex $-1 $107 $185 #
straight-curve $-1 -42.189603551447249 19.567666385816132 0 0 0 -1 I I #
face $-1 $-1 $75 $9 $-1 $186 reversed single #
loop $-1 $-1 $127 $60 #
plane-surface $-1 0 37.898242262477687 0 0 -1 0 0 0 -1 forward_v I I I I #
coedge $-1 $187 $125 $128 $188 forward $61 $-1 #
coedge $-1 $131 $63 $64 $119 reversed $37 $-1 #
coedge $-1 $125 $187 $63 $117 reversed $61 $-1 #
edge $-1 $132 -17.16183044951007 $189 17.16183044951007 $116 $190 forward 7 unknown #
coedge $-1 $65 $64 $187 $191 forward $25 $-1 #
edge $-1 $123 -69.687185277871038 $189 69.687185277871038 $115 $192 forward 7 unknown #
coedge $-1 $128 $127 $65 $121 reversed $112 $-1 #
edge $-1 $193 -69.687185277871038 $122 69.687185277871038 $120 $194 forward 7 unknown #
vertex $-1 $67 $195 #
vertex $-1 $134 $196 #
straight-curve $-1 69.687185277871038 0 -17.16183044951007 0 -1 0 I I #
coedge $-1 $114 $116 $68 $126 reversed $61 $-1 #
edge $-1 $129 -37.898242262477687 $132 37.898242262477687 $125 $197 forward 7 unknown #
coedge $-1 $120 $69 $74 $135 forward $112 $-1 #
coedge $-1 $69 $120 $114 $188 reversed $112 $-1 #
vertex $-1 $70 $198 #
straight-curve $-1 0 37.898242262477687 17.16183044951007 -1 0 0 I I #
coedge $-1 $71 $115 $73 $134 reversed $37 $-1 #
vertex $-1 $126 $199 #
straight-curve $-1 0 -37.898242262477687 17.16183044951007 1 0 0 I I #
edge $-1 $76 -17.16183044951007 $123 17.16183044951007 $73 $200 forward 7 unknown #
edge $-1 $77 -17.16183044951007 $122 17.16183044951007 $74 $201 forward 7 unknown #
point $-1 69.687185277871038 -37.898242262477687 17.16183044951007 #
point $-1 69.687185277871038 37.898242262477687 17.16183044951007 #
face $-1 $202 $157 $10 $-1 $203 forward single #
loop $-1 $-1 $204 $79 #
coedge $-1 $205 $82 $152 $206 reversed $45 $-1 #
coedge $-1 $82 $205 $156 $207 reversed $45 $-1 #
edge $-1 $158 -17.16183044951007 $154 17.16183044951007 $82 $208 forward 7 unknown #
coedge $-1 $209 $88 $83 $144 forward $153 $-1 #
edge $-1 $93 -6.3001416353642483 $149 6.3001416353642483 $83 $210 forward 7 unknown #
coedge $-1 $90 $211 $84 $146 forward $157 $-1 #
edge $-1 $150 -6.3001416353642483 $92 6.3001416353642483 $84 $212 forward 7 unknown #
coedge $-1 $213 $85 $211 $214 reversed $80 $-1 #
coedge $-1 $85 $213 $209 $215 reversed $80 $-1 #
vertex $-1 $215 $216 #
vertex $-1 $146 $217 #
straight-curve $-1 -64.026665688644528 -37.898242262477687 0 0 0 1 I I #
coedge $-1 $88 $218 $140 $206 forward $153 $-1 #
loop $-1 $-1 $219 $202 #
vertex $-1 $142 $220 #
straight-curve $-1 -60.642746796123404 -50.498525533206184 -17.16183044951007 -1 0 0 I I #
coedge $-1 $221 $90 $141 $207 forward $157 $-1 #
loop $-1 $-1 $222 $138 #
vertex $-1 $207 $223 #
straight-curve $-1 -60.642746796123404 -50.498525533206184 17.16183044951007 1 0 0 I I #
point $-1 -64.026665688644528 -50.498525533206184 17.16183044951007 #
point $-1 -64.026665688644528 -50.498525533206184 -17.16183044951007 #
face $-1 $224 $225 $11 $-1 $226 reversed single #
loop $-1 $-1 $101 $95 #
plane-surface $-1 0 37.898242262477687 0 0 -1 0 0 0 -1 forward_v I I I I #
coedge $-1 $104 $227 $166 $228 forward $96 $-1 #
coedge $-1 $229 $98 $165 $228 reversed $53 $-1 #
coedge $-1 $98 $229 $180 $230 reversed $53 $-1 #
edge $-1 $178 -17.16183044951007 $182 17.16183044951007 $98 $231 forward 7 unknown #
coedge $-1 $232 $104 $99 $170 forward $96 $-1 #
edge $-1 $108 5.2011892237426771 $175 23.531765100404233 $169 $233 forward 7 unknown #
coedge $-1 $106 $234 $100 $172 forward $181 $-1 #
edge $-1 $176 -23.531765100404233 $109 -5.2011892237426771 $171 $235 forward 7 unknown #
coedge $-1 $236 $101 $234 $237 reversed $163 $-1 #
coedge $-1 $101 $236 $232 $238 reversed $163 $-1 #
vertex $-1 $238 $239 #
vertex $-1 $172 $240 #
straight-curve $-1 -42.189603551447249 37.898242262477687 0 0 0 -1 I I #
vertex $-1 $105 $241 #
straight-curve $-1 -19.388281982574536 19.567666385816132 17.16183044951007 -1 0 0 I I #
coedge $-1 $242 $106 $167 $230 forward $181 $-1 #
loop $-1 $-1 $180 $243 #
vertex $-1 $107 $244 #
straight-curve $-1 -19.388281982574536 19.567666385816132 -17.16183044951007 1 0 0 I I #
point $-1 -42.189603551447249 19.567666385816132 17.16183044951007 #
point $-1 -42.189603551447249 19.567666385816132 -17.16183044951007 #
plane-surface $-1 69.687185277871038 0 0 -1 0 0 0 0 1 forward_v I I I I #
coedge $-1 $116 $114 $118 $191 reversed $61 $-1 #
edge $-1 $129 -17.16183044951007 $193 17.16183044951007 $128 $245 forward 7 unknown #
vertex $-1 $191 $246 #
straight-curve $-1 -69.687185277871038 -37.898242262477687 0 0 0 -1 I I #
edge $-1 $189 -37.898242262477687 $193 37.898242262477687 $187 $247 forward 7 unknown #
straight-curve $-1 0 -37.898242262477687 -17.16183044951007 -1 0 0 I I #
vertex $-1 $121 $248 #
straight-curve $-1 0 37.898242262477687 -17.16183044951007 1 0 0 I I #
point $-1 69.687185277871038 37.898242262477687 -17.16183044951007 #
point $-1 69.687185277871038 -37.898242262477687 -17.16183044951007 #
straight-curve $-1 -69.687185277871038 0 17.16183044951007 0 -1 0 I I #
point $-1 -69.687185277871038 37.898242262477687 17.16183044951007 #
point $-1 -69.687185277871038 -37.898242262477687 17.16183044951007 #
straight-curve $-1 69.687185277871038 -37.898242262477687 0 0 0 -1 I I #
straight-curve $-1 69.687185277871038 37.898242262477687 0 0 0 -1 I I #
face $-1 $249 $153 $10 $-1 $250 reversed single #
plane-surface $-1 0 0 17.16183044951007 0 0 1 1 0 0 forward_v I I I I #
coedge $-1 $251 $252 $205 $253 forward $139 $-1 #
coedge $-1 $141 $140 $204 $253 reversed $45 $-1 #
edge $-1 $254 -6.3001416353642483 $154 6.3001416353642483 $140 $255 forward 7 unknown #
edge $-1 $158 -6.3001416353642483 $256 6.3001416353642483 $141 $257 forward 7 unknown #
straight-curve $-1 -57.258827903602281 -50.498525533206184 0 0 0 -1 I I #
coedge $-1 $258 $143 $148 $215 forward $153 $-1 #
straight-curve $-1 -64.026665688644528 -44.198383897841936 -17.16183044951007 0 1 0 I I #
coedge $-1 $145 $259 $147 $214 forward $157 $-1 #
straight-curve $-1 -64.026665688644528 -44.198383897841936 17.16183044951007 0 -1 0 I I #
coedge $-1 $148 $147 $260 $261 forward $80 $-1 #
edge $-1 $262 -69.687185277871038 $150 -64.026665688644528 $147 $263 forward 7 unknown #
edge $-1 $149 64.026665688644528 $264 69.687185277871038 $148 $265 forward 7 unknown #
point $-1 -64.026665688644528 -37.898242262477687 -17.16183044951007 #
point $-1 -64.026665688644528 -37.898242262477687 17.16183044951007 #
coedge $-1 $152 $219 $251 $266 forward $153 $-1 #
coedge $-1 $218 $267 $268 $269 forward $153 $-1 #
point $-1 -57.258827903602281 -50.498525533206184 -17.16183044951007 #
coedge $-1 $222 $156 $252 $270 forward $157 $-1 #
coedge $-1 $271 $221 $272 $273 forward $157 $-1 #
point $-1 -57.258827903602281 -50.498525533206184 17.16183044951007 #
face $-1 $274 $275 $11 $-1 $276 reversed single #
loop $-1 $-1 $277 $162 #
plane-surface $-1 -60.642746796123404 -50.498525533206184 0 0 1 0 0 0 1 forward_v I I I I #
coedge $-1 $165 $278 $279 $280 forward $96 $-1 #
edge $-1 $281 -23.531765100404233 $178 -5.2011892237426771 $165 $282 forward 7 unknown #
coedge $-1 $167 $166 $283 $284 reversed $53 $-1 #
edge $-1 $182 5.2011892237426771 $285 23.531765100404233 $180 $286 forward 7 unknown #
straight-curve $-1 -35.363524378850897 19.567666385816132 0 0 0 -1 I I #
coedge $-1 $287 $169 $174 $238 forward $96 $-1 #
straight-curve $-1 -42.189603551447249 14.366477162073455 17.16183044951007 0 1 0 I I #
coedge $-1 $171 $288 $173 $237 forward $181 $-1 #
straight-curve $-1 -42.189603551447249 14.366477162073455 -17.16183044951007 0 -1 0 I I #
coedge $-1 $174 $173 $289 $290 reversed $163 $-1 #
edge $-1 $291 -69.687185277871038 $176 -42.189603551447249 $173 $292 forward 7 unknown #
edge $-1 $175 42.189603551447249 $293 69.687185277871038 $174 $294 forward 7 unknown #
point $-1 -42.189603551447249 37.898242262477687 17.16183044951007 #
point $-1 -42.189603551447249 37.898242262477687 -17.16183044951007 #
point $-1 -35.363524378850897 19.567666385816132 17.16183044951007 #
coedge $-1 $295 $180 $296 $297 forward $181 $-1 #
face $-1 $298 $181 $11 $-1 $299 reversed single #
point $-1 -35.363524378850897 19.567666385816132 -17.16183044951007 #
straight-curve $-1 -69.687185277871038 37.898242262477687 0 0 0 -1 I I #
point $-1 -69.687185277871038 -37.898242262477687 -17.16183044951007 #
straight-curve $-1 -69.687185277871038 0 -17.16183044951007 0 1 0 I I #
point $-1 -69.687185277871038 37.898242262477687 -17.16183044951007 #
face $-1 $300 $301 $10 $-1 $302 reversed single #
plane-surface $-1 0 0 -17.16183044951007 0 0 1 1 0 0 forward_v I I I I #
coedge $-1 $303 $204 $218 $266 reversed $139 $-1 #
coedge $-1 $204 $303 $221 $270 reversed $139 $-1 #
edge $-1 $256 -17.16183044951007 $254 17.16183044951007 $204 $304 forward 7 unknown #
vertex $-1 $206 $305 #
straight-curve $-1 -57.258827903602281 -44.198383897841936 -17.16183044951007 0 -1 0 I I #
vertex $-1 $270 $306 #
straight-curve $-1 -57.258827903602281 -44.198383897841936 17.16183044951007 0 1 0 I I #
coedge $-1 $267 $209 $307 $308 forward $153 $-1 #
coedge $-1 $211 $271 $309 $310 forward $157 $-1 #
coedge $-1 $309 $307 $213 $261 reversed $301 $-1 #
edge $-1 $262 -17.16183044951007 $264 17.16183044951007 $260 $311 forward 7 unknown #
vertex $-1 $310 $312 #
straight-curve $-1 0 -37.898242262477687 17.16183044951007 1 0 0 I I #
vertex $-1 $308 $313 #
straight-curve $-1 0 -37.898242262477687 -17.16183044951007 -1 0 0 I I #
edge $-1 $314 -69.687185277871038 $254 57.258827903602281 $251 $265 forward 7 unknown #
coedge $-1 $219 $258 $315 $316 forward $153 $-1 #
coedge $-1 $317 $318 $219 $269 reversed $319 $-1 #
edge $-1 $320 -37.898242262477687 $314 37.898242262477687 $268 $321 forward 7 unknown #
edge $-1 $256 -57.258827903602281 $322 69.687185277871038 $252 $263 forward 7 unknown #
coedge $-1 $259 $222 $323 $324 forward $157 $-1 #
coedge $-1 $318 $317 $222 $273 reversed $319 $-1 #
edge $-1 $322 -37.898242262477687 $325 37.898242262477687 $272 $326 forward 7 unknown #
face $-1 $327 $328 $11 $-1 $329 reversed single #
loop $-1 $-1 $330 $224 #
plane-surface $-1 -64.026665688644528 -44.198383897841936 0 1 0 0 0 0 -1 forward_v I I I I #
coedge $-1 $331 $332 $333 $334 forward $225 $-1 #
coedge $-1 $227 $335 $336 $337 forward $96 $-1 #
coedge $-1 $338 $283 $227 $280 reversed $339 $-1 #
edge $-1 $340 -69.687185277871038 $281 35.363524378850897 $279 $294 forward 7 unknown #
vertex $-1 $284 $341 #
straight-curve $-1 -35.363524378850897 14.366477162073455 17.16183044951007 0 -1 0 I I #
coedge $-1 $279 $296 $229 $284 forward $339 $-1 #
edge $-1 $285 -17.16183044951007 $281 17.16183044951007 $283 $342 forward 7 unknown #
vertex $-1 $297 $343 #
straight-curve $-1 -35.363524378850897 14.366477162073455 -17.16183044951007 0 1 0 I I #
coedge $-1 $344 $232 $345 $346 forward $96 $-1 #
coedge $-1 $234 $347 $348 $349 forward $181 $-1 #
coedge $-1 $348 $345 $236 $290 forward $350 $-1 #
edge $-1 $293 -17.16183044951007 $291 17.16183044951007 $236 $351 forward 7 unknown #
vertex $-1 $237 $352 #
straight-curve $-1 0 37.898242262477687 -17.16183044951007 1 0 0 I I #
vertex $-1 $238 $353 #
straight-curve $-1 0 37.898242262477687 17.16183044951007 -1 0 0 I I #
coedge $-1 $354 $242 $355 $356 forward $181 $-1 #
coedge $-1 $283 $338 $242 $297 reversed $339 $-1 #
edge $-1 $285 -35.363524378850897 $357 69.687185277871038 $296 $292 forward 7 unknown #
face $-1 $358 $350 $11 $-1 $359 reversed single #
plane-surface $-1 0 0 -17.16183044951007 0 0 1 1 0 0 forward_v I I I I #
face $-1 $360 $361 $10 $-1 $362 reversed single #
loop $-1 $-1 $363 $249 #
plane-surface $-1 -69.687185277871038 0 0 1 0 0 0 0 -1 forward_v I I I I #
coedge $-1 $252 $251 $318 $364 reversed $139 $-1 #
straight-curve $-1 -57.258827903602281 -37.898242262477687 0 0 0 -1 I I #
point $-1 -57.258827903602281 -37.898242262477687 -17.16183044951007 #
point $-1 -57.258827903602281 -37.898242262477687 17.16183044951007 #
coedge $-1 $260 $363 $258 $308 reversed $301 $-1 #
edge $-1 $264 -37.898242262477687 $365 37.898242262477687 $307 $366 forward 7 unknown #
coedge $-1 $363 $260 $259 $310 reversed $301 $-1 #
edge $-1 $367 -37.898242262477687 $262 37.898242262477687 $309 $368 forward 7 unknown #
straight-curve $-1 -69.687185277871038 -37.898242262477687 0 0 0 -1 I I #
point $-1 -69.687185277871038 -37.898242262477687 17.16183044951007 #
point $-1 -69.687185277871038 -37.898242262477687 -17.16183044951007 #
vertex $-1 $364 $369 #
coedge $-1 $370 $371 $267 $316 reversed $361 $-1 #
edge $-1 $365 -69.687185277871038 $320 69.687185277871038 $315 $372 forward 7 unknown #
coedge $-1 $272 $268 $371 $373 reversed $319 $-1 #
coedge $-1 $268 $272 $303 $364 forward $319 $-1 #
loop $-1 $-1 $318 $360 #
vertex $-1 $269 $374 #
straight-curve $-1 69.687185277871038 0 -17.16183044951007 0 -1 0 I I #
vertex $-1 $273 $375 #
coedge $-1 $371 $370 $271 $324 reversed $361 $-1 #
edge $-1 $325 -69.687185277871038 $367 69.687185277871038 $323 $376 forward 7 unknown #
vertex $-1 $273 $377 #
straight-curve $-1 69.687185277871038 0 17.16183044951007 0 1 0 I I #
face $-1 $378 $379 $11 $-1 $380 reversed single #
loop $-1 $-1 $381 $274 #
plane-surface $-1 -57.258827903602281 -44.198383897841936 0 -1 0 0 0 0 1 forward_v I I I I #
coedge $-1 $382 $383 $384 $385 reversed $275 $-1 #
coedge $-1 $386 $277 $387 $388 reversed $225 $-1 #
coedge $-1 $277 $386 $389 $390 reversed $225 $-1 #
coedge $-1 $383 $382 $277 $334 reversed $275 $-1 #
edge $-1 $391 -17.16183044951007 $392 17.16183044951007 $333 $393 forward 7 unknown #
coedge $-1 $278 $394 $395 $396 forward $96 $-1 #
coedge $-1 $397 $398 $278 $337 reversed $399 $-1 #
edge $-1 $400 -37.898242262477687 $340 37.898242262477687 $336 $401 forward 7 unknown #
coedge $-1 $296 $279 $398 $402 forward $339 $-1 #
loop $-1 $-1 $283 $358 #
vertex $-1 $337 $403 #
point $-1 -35.363524378850897 37.898242262477687 17.16183044951007 #
straight-curve $-1 -35.363524378850897 37.898242262477687 0 0 0 1 I I #
point $-1 -35.363524378850897 37.898242262477687 -17.16183044951007 #
coedge $-1 $404 $287 $405 $406 forward $96 $-1 #
coedge $-1 $289 $407 $287 $346 reversed $350 $-1 #
edge $-1 $293 -37.898242262477687 $408 37.898242262477687 $345 $409 forward 7 unknown #
coedge $-1 $288 $410 $411 $412 forward $181 $-1 #
coedge $-1 $407 $289 $288 $349 reversed $350 $-1 #
edge $-1 $413 -37.898242262477687 $291 37.898242262477687 $348 $414 forward 7 unknown #
loop $-1 $-1 $289 $298 #
straight-curve $-1 -69.687185277871038 37.898242262477687 0 0 0 -1 I I #
point $-1 -69.687185277871038 37.898242262477687 -17.16183044951007 #
point $-1 -69.687185277871038 37.898242262477687 17.16183044951007 #
coedge $-1 $415 $295 $416 $417 forward $181 $-1 #
coedge $-1 $398 $397 $295 $356 reversed $399 $-1 #
edge $-1 $357 -37.898242262477687 $418 37.898242262477687 $355 $419 forward 7 unknown #
vertex $-1 $356 $420 #
face $-1 $421 $339 $11 $-1 $164 reversed single #
plane-surface $-1 -69.687185277871038 0 0 1 0 0 0 0 -1 forward_v I I I I #
face $-1 $-1 $319 $10 $-1 $422 reversed single #
loop $-1 $-1 $371 $300 #
plane-surface $-1 0 37.898242262477687 0 0 -1 0 0 0 -1 forward_v I I I I #
coedge $-1 $307 $309 $370 $423 forward $301 $-1 #
edge $-1 $322 -17.16183044951007 $314 17.16183044951007 $318 $424 forward 7 unknown #
vertex $-1 $316 $425 #
straight-curve $-1 -69.687185277871038 0 -17.16183044951007 0 1 0 I I #
vertex $-1 $324 $426 #
straight-curve $-1 -69.687185277871038 0 17.16183044951007 0 -1 0 I I #
point $-1 69.687185277871038 -37.898242262477687 -17.16183044951007 #
coedge $-1 $323 $315 $363 $423 reversed $361 $-1 #
coedge $-1 $315 $323 $317 $373 forward $361 $-1 #
straight-curve $-1 0 37.898242262477687 -17.16183044951007 1 0 0 I I #
edge $-1 $325 -17.16183044951007 $320 17.16183044951007 $317 $427 forward 7 unknown #
point $-1 69.687185277871038 37.898242262477687 -17.16183044951007 #
point $-1 69.687185277871038 -37.898242262477687 17.16183044951007 #
straight-curve $-1 0 37.898242262477687 17.16183044951007 -1 0 0 I I #
point $-1 69.687185277871038 37.898242262477687 17.16183044951007 #
face $-1 $243 $428 $11 $-1 $380 reversed single #
loop $-1 $-1 $384 $327 #
plane-surface $-1 0 -37.898242262477687 0 0 1 0 0 0 1 forward_v I I I I #
coedge $-1 $429 $430 $386 $431 forward $328 $-1 #
coedge $-1 $333 $330 $410 $432 reversed $275 $-1 #
coedge $-1 $330 $333 $404 $433 reversed $275 $-1 #
coedge $-1 $405 $411 $330 $385 forward $379 $-1 #
edge $-1 $434 -17.16183044951007 $435 17.16183044951007 $384 $436 forward 7 unknown #
coedge $-1 $332 $331 $381 $431 reversed $225 $-1 #
coedge $-1 $410 $415 $331 $388 forward $181 $-1 #
edge $-1 $437 -3.3839188925211232 $392 3.3839188925211232 $331 $438 forward 7 unknown #
coedge $-1 $394 $404 $332 $390 forward $96 $-1 #
edge $-1 $391 -3.3839188925211232 $439 3.3839188925211232 $332 $440 forward 7 unknown #
vertex $-1 $433 $441 #
vertex $-1 $432 $442 #
straight-curve $-1 -64.026665688644528 -50.498525533206184 0 0 0 -1 I I #
coedge $-1 $335 $389 $430 $443 forward $96 $-1 #
coedge $-1 $444 $445 $335 $396 reversed $428 $-1 #
edge $-1 $446 -57.258827903602281 $400 69.687185277871038 $395 $447 forward 7 unknown #
coedge $-1 $355 $336 $445 $448 forward $399 $-1 #
coedge $-1 $336 $355 $338 $402 reversed $399 $-1 #
loop $-1 $-1 $397 $421 #
vertex $-1 $337 $449 #
straight-curve $-1 69.687185277871038 0 17.16183044951007 0 1 0 I I #
edge $-1 $340 -17.16183044951007 $357 17.16183044951007 $398 $450 forward 7 unknown #
point $-1 69.687185277871038 37.898242262477687 17.16183044951007 #
coedge $-1 $389 $344 $383 $433 forward $96 $-1 #
coedge $-1 $451 $384 $344 $406 reversed $379 $-1 #
edge $-1 $408 -69.687185277871038 $435 -64.026665688644528 $405 $447 forward 7 unknown #
coedge $-1 $345 $348 $451 $452 reversed $350 $-1 #
vertex $-1 $346 $453 #
straight-curve $-1 -69.687185277871038 0 17.16183044951007 0 -1 0 I I #
coedge $-1 $347 $387 $382 $432 forward $181 $-1 #
coedge $-1 $384 $451 $347 $412 reversed $379 $-1 #
edge $-1 $434 64.026665688644528 $413 69.687185277871038 $411 $454 forward 7 unknown #
vertex $-1 $349 $455 #
straight-curve $-1 -69.687185277871038 0 -17.16183044951007 0 1 0 I I #
coedge $-1 $387 $354 $429 $456 forward $181 $-1 #
coedge $-1 $445 $444 $354 $417 reversed $428 $-1 #
edge $-1 $418 -69.687185277871038 $457 57.258827903602281 $416 $454 forward 7 unknown #
vertex $-1 $448 $458 #
straight-curve $-1 69.687185277871038 0 -17.16183044951007 0 -1 0 I I #
point $-1 69.687185277871038 37.898242262477687 -17.16183044951007 #
face $-1 $-1 $399 $11 $-1 $459 reversed single #
plane-surface $-1 69.687185277871038 0 0 -1 0 0 0 0 1 forward_v I I I I #
edge $-1 $367 -17.16183044951007 $365 17.16183044951007 $370 $460 forward 7 unknown #
straight-curve $-1 69.687185277871038 -37.898242262477687 0 0 0 -1 I I #
point $-1 -69.687185277871038 37.898242262477687 -17.16183044951007 #
point $-1 -69.687185277871038 37.898242262477687 17.16183044951007 #
straight-curve $-1 69.687185277871038 37.898242262477687 0 0 0 -1 I I #
loop $-1 $-1 $444 $378 #
coedge $-1 $461 $381 $415 $456 reversed $328 $-1 #
coedge $-1 $381 $461 $394 $443 reversed $328 $-1 #
edge $-1 $439 -17.16183044951007 $437 17.16183044951007 $381 $462 forward 7 unknown #
edge $-1 $392 -6.3001416353642483 $434 6.3001416353642483 $382 $463 forward 7 unknown #
edge $-1 $435 -6.3001416353642483 $391 6.3001416353642483 $383 $464 forward 7 unknown #
vertex $-1 $412 $465 #
vertex $-1 $433 $466 #
straight-curve $-1 -64.026665688644528 -37.898242262477687 0 0 0 1 I I #
vertex $-1 $431 $467 #
straight-curve $-1 -60.642746796123404 -50.498525533206184 -17.16183044951007 -1 0 0 I I #
vertex $-1 $443 $468 #
straight-curve $-1 -60.642746796123404 -50.498525533206184 17.16183044951007 1 0 0 I I #
point $-1 -64.026665688644528 -50.498525533206184 17.16183044951007 #
point $-1 -64.026665688644528 -50.498525533206184 -17.16183044951007 #
edge $-1 $439 -6.3001416353642483 $446 6.3001416353642483 $430 $469 forward 7 unknown #
coedge $-1 $416 $395 $461 $470 forward $428 $-1 #
coedge $-1 $395 $416 $397 $448 reversed $428 $-1 #
vertex $-1 $396 $471 #
straight-curve $-1 0 -37.898242262477687 17.16183044951007 1 0 0 I I #
edge $-1 $400 -17.16183044951007 $418 17.16183044951007 $397 $472 forward 7 unknown #
point $-1 69.687185277871038 -37.898242262477687 17.16183044951007 #
straight-curve $-1 69.687185277871038 37.898242262477687 0 0 0 -1 I I #
coedge $-1 $411 $405 $407 $452 forward $379 $-1 #
edge $-1 $408 -17.16183044951007 $413 17.16183044951007 $407 $473 forward 7 unknown #
point $-1 -69.687185277871038 -37.898242262477687 17.16183044951007 #
straight-curve $-1 0 -37.898242262477687 -17.16183044951007 -1 0 0 I I #
point $-1 -69.687185277871038 -37.898242262477687 -17.16183044951007 #
edge $-1 $457 -6.3001416353642483 $437 6.3001416353642483 $429 $474 forward 7 unknown #
vertex $-1 $456 $475 #
point $-1 69.687185277871038 -37.898242262477687 -17.16183044951007 #
plane-surface $-1 69.687185277871038 0 0 -1 0 0 0 0 1 forward_v I I I I #
straight-curve $-1 -69.687185277871038 37.898242262477687 0 0 0 -1 I I #
coedge $-1 $430 $429 $444 $470 reversed $328 $-1 #
straight-curve $-1 -57.258827903602281 -50.498525533206184 0 0 0 -1 I I #
straight-curve $-1 -64.026665688644528 -44.198383897841936 -17.16183044951007 0 1 0 I I #
straight-curve $-1 -64.026665688644528 -44.198383897841936 17.16183044951007 0 -1 0 I I #
point $-1 -64.026665688644528 -37.898242262477687 -17.16183044951007 #
point $-1 -64.026665688644528 -37.898242262477687 17.16183044951007 #
point $-1 -57.258827903602281 -50.498525533206184 -17.16183044951007 #
point $-1 -57.258827903602281 -50.498525533206184 17.16183044951007 #
straight-curve $-1 -57.258827903602281 -44.198383897841936 17.16183044951007 0 1 0 I I #
edge $-1 $446 -17.16183044951007 $457 17.16183044951007 $444 $476 forward 7 unknown #
point $-1 -57.258827903602281 -37.898242262477687 17.16183044951007 #
straight-curve $-1 69.687185277871038 -37.898242262477687 0 0 0 -1 I I #
straight-curve $-1 -69.687185277871038 -37.898242262477687 0 0 0 -1 I I #
straight-curve $-1 -57.258827903602281 -44.198383897841936 -17.16183044951007 0 -1 0 I I #
point $-1 -57.258827903602281 -37.898242262477687 -17.16183044951007 #
straight-curve $-1 -57.258827903602281 -37.898242262477687 0 0 0 -1 I I #
End-of-ACIS-data 