500 0 18 0           
7 Unknown 11 ACIS 5.0 NT 24 Fri Mar 26 02:44:18 1999 
-1 9.9999999999999995e-007 1e-010 
body $-1 $18 $-1 $19 #
body $-1 $20 $-1 $21 #
body $-1 $22 $-1 $23 #
body $-1 $24 $-1 $25 #
body $-1 $26 $-1 $27 #
body $-1 $28 $-1 $29 #
body $-1 $30 $-1 $31 #
body $-1 $32 $-1 $33 #
body $-1 $34 $-1 $35 #
body $-1 $36 $-1 $37 #
body $-1 $38 $-1 $39 #
body $-1 $40 $-1 $41 #
body $-1 $42 $-1 $43 #
body $-1 $44 $-1 $45 #
body $-1 $46 $-1 $47 #
body $-1 $48 $-1 $49 #
body $-1 $50 $-1 $51 #
body $-1 $52 $-1 $53 #
lump $-1 $-1 $54 $0 #
transform $-1 1 0 0 0 1 0 0 0 1 40.230719931638539 21.573105068356409 8.3340248786059981 1 rotate no_reflect no_shear #
lump $-1 $-1 $55 $1 #
transform $-1 1 0 0 0 1 0 0 0 1 40.230719931638539 21.573105068356409 8.3340248786059981 1 rotate no_reflect no_shear #
lump $-1 $-1 $56 $2 #
transform $-1 1 0 0 0 1 0 0 0 1 40.230719931638539 21.573105068356409 8.3340248786059981 1 rotate no_reflect no_shear #
lump $-1 $-1 $57 $3 #
transform $-1 1 0 0 0 1 0 0 0 1 40.230719931638539 21.573105068356409 8.3340248786059981 1 rotate no_reflect no_shear #
lump $-1 $-1 $58 $4 #
transform $-1 1 0 0 0 1 0 0 0 1 40.230719931638539 21.573105068356409 8.3340248786059981 1 rotate no_reflect no_shear #
lump $-1 $-1 $59 $5 #
transform $-1 1 0 0 0 1 0 0 0 1 40.230719931638539 21.573105068356409 8.3340248786059981 1 rotate no_reflect no_shear #
lump $-1 $-1 $60 $6 #
transform $-1 1 0 0 0 1 0 0 0 1 40.230719931638539 21.573105068356409 8.3340248786059981 1 rotate no_reflect no_shear #
lump $-1 $-1 $61 $7 #
transform $-1 1 0 0 0 1 0 0 0 1 40.230719931638539 21.573105068356409 8.3340248786059981 1 rotate no_reflect no_shear #
lump $-1 $-1 $62 $8 #
transform $-1 1 0 0 0 1 0 0 0 1 40.230719931638539 21.573105068356409 8.3340248786059981 1 rotate no_reflect no_shear #
lump $-1 $-1 $63 $9 #
transform $-1 1 0 0 0 1 0 0 0 1 40.230719931638539 21.573105068356409 8.3340248786059981 1 rotate no_reflect no_shear #
lump $-1 $-1 $64 $10 #
transform $-1 1 0 0 0 1 0 0 0 1 40.230719931638539 21.573105068356409 8.3340248786059981 1 rotate no_reflect no_shear #
lump $-1 $-1 $65 $11 #
transform $-1 1 0 0 0 1 0 0 0 1 40.230719931638539 21.573105068356409 8.3340248786059981 1 rotate no_reflect no_shear #
lump $-1 $-1 $66 $12 #
transform $-1 1 0 0 0 1 0 0 0 1 40.230719931638539 21.573105068356409 8.3340248786059981 1 rotate no_reflect no_shear #
lump $-1 $-1 $67 $13 #
transform $-1 1 0 0 0 1 0 0 0 1 40.230719931638539 21.573105068356409 8.3340248786059981 1 rotate no_reflect no_shear #
lump $-1 $-1 $68 $14 #
transform $-1 1 0 0 0 1 0 0 0 1 40.230719931638539 21.573105068356409 8.3340248786059981 1 rotate no_reflect no_shear #
lump $-1 $-1 $69 $15 #
transform $-1 1 0 0 0 1 0 0 0 1 40.230719931638539 21.573105068356409 8.3340248786059981 1 rotate no_reflect no_shear #
lump $-1 $-1 $70 $16 #
transform $-1 1 0 0 0 1 0 0 0 1 40.230719931638539 21.573105068356409 8.3340248786059981 1 rotate no_reflect no_shear #
lump $-1 $-1 $71 $17 #
transform $-1 1 0 0 0 1 0 0 0 1 40.230719931638539 21.573105068356409 8.3340248786059981 1 rotate no_reflect no_shear #
shell $-1 $-1 $-1 $72 $-1 $18 #
shell $-1 $-1 $-1 $73 $-1 $20 #
shell $-1 $-1 $-1 $74 $-1 $22 #
shell $-1 $-1 $-1 $75 $-1 $24 #
shell $-1 $-1 $-1 $76 $-1 $26 #
shell $-1 $-1 $-1 $77 $-1 $28 #
shell $-1 $-1 $-1 $78 $-1 $30 #
shell $-1 $-1 $-1 $79 $-1 $32 #
shell $-1 $-1 $-1 $80 $-1 $34 #
shell $-1 $-1 $-1 $81 $-1 $36 #
shell $-1 $-1 $-1 $82 $-1 $38 #
shell $-1 $-1 $-1 $83 $-1 $40 #
shell $-1 $-1 $-1 $84 $-1 $42 #
shell $-1 $-1 $-1 $85 $-1 $44 #
shell $-1 $-1 $-1 $86 $-1 $46 #
shell $-1 $-1 $-1 $87 $-1 $48 #
shell $-1 $-1 $-1 $88 $-1 $50 #
shell $-1 $-1 $-1 $89 $-1 $52 #
face $-1 $90 $91 $54 $-1 $92 forward single #
face $-1 $93 $94 $55 $-1 $95 reversed single #
face $-1 $96 $97 $56 $-1 $98 reversed single #
face $-1 $99 $100 $57 $-1 $101 forward single #
face $-1 $102 $103 $58 $-1 $104 forward single #
face $-1 $105 $106 $59 $-1 $107 forward single #
face $-1 $108 $109 $60 $-1 $110 reversed single #
face $-1 $111 $112 $61 $-1 $113 forward single #
face $-1 $114 $115 $62 $-1 $116 forward single #
face $-1 $117 $118 $63 $-1 $119 forward single #
face $-1 $120 $121 $64 $-1 $122 reversed single #
face $-1 $123 $124 $65 $-1 $125 forward single #
face $-1 $126 $127 $66 $-1 $128 forward single #
face $-1 $129 $130 $67 $-1 $131 forward single #
face $-1 $132 $133 $68 $-1 $134 reversed single #
face $-1 $135 $136 $69 $-1 $137 forward single #
face $-1 $138 $139 $70 $-1 $140 forward single #
face $-1 $141 $142 $71 $-1 $143 forward single #
face $-1 $144 $145 $54 $-1 $146 reversed single #
loop $-1 $-1 $147 $72 #
plane-surface $-1 0 0 8.3340248786059981 0 0 1 1 0 0 forward_v I I I I #
face $-1 $148 $149 $55 $-1 $150 reversed single #
loop $-1 $-1 $151 $73 #
plane-surface $-1 0 -18.065214879867028 4.3549457558349367 0 0 1 1 0 0 forward_v I I I I #
face $-1 $152 $153 $56 $-1 $154 reversed single #
loop $-1 $-1 $155 $74 #
plane-surface $-1 69.68165264702381 -5.9014909837958722 110.65842090088633 0 -1 0 -0.86602541151947299 0 -0.49999998660252726 forward_v I I I I #
face $-1 $156 $157 $57 $-1 $158 forward single #
loop $-1 $159 $160 $75 #
cone-surface $-1 37.294180128339313 -12.826157949861294 4.1092880027515761 -0.86602541151947299 0 -0.49999998660252726 0.24999999330126363 0 -0.43301270575973649 1 I I 0 1 0.5 forward I I I I #
face $-1 $161 $162 $58 $-1 $163 forward single #
loop $-1 $164 $165 $76 #
cone-surface $-1 37.294180128339313 -10.229407837586761 4.1092880027515761 -0.86602541151947299 0 -0.49999998660252726 0.24999999330126363 0 -0.43301270575973649 1 I I 0 1 0.5 forward I I I I #
face $-1 $166 $167 $59 $-1 $168 forward single #
loop $-1 $169 $170 $77 #
cone-surface $-1 37.294180128339313 -7.6326577253122281 4.1092880027515761 -0.86602541151947299 0 -0.49999998660252726 0.24999999330126363 0 -0.43301270575973649 1 I I 0 1 0.5 forward I I I I #
face $-1 $171 $172 $60 $-1 $173 reversed single #
loop $-1 $-1 $174 $78 #
plane-surface $-1 69.68165264702381 12.163723896071158 110.65842090088633 0 -1 0 -0.86602541151947299 0 -0.49999998660252726 forward_v I I I I #
face $-1 $175 $176 $61 $-1 $177 forward single #
loop $-1 $178 $179 $79 #
cone-surface $-1 37.294180128339313 5.2390569300057344 4.1092880027515761 -0.86602541151947299 0 -0.49999998660252726 0.24999999330126363 0 -0.43301270575973649 1 I I 0 1 0.5 forward I I I I #
face $-1 $180 $181 $62 $-1 $182 forward single #
loop $-1 $183 $184 $80 #
cone-surface $-1 37.294180128339313 7.835807042280269 4.1092880027515761 -0.86602541151947299 0 -0.49999998660252726 0.24999999330126363 0 -0.43301270575973649 1 I I 0 1 0.5 forward I I I I #
face $-1 $185 $186 $63 $-1 $187 forward single #
loop $-1 $188 $189 $81 #
cone-surface $-1 37.294180128339313 10.432557154554804 4.1092880027515761 -0.86602541151947299 0 -0.49999998660252726 0.24999999330126363 0 -0.43301270575973649 1 I I 0 1 0.5 forward I I I I #
face $-1 $190 $191 $64 $-1 $192 reversed single #
loop $-1 $-1 $193 $82 #
plane-surface $-1 -40.230719931638546 -10.229407837586761 0.74605047818388215 -0.86602541151947299 0 0.49999998660252726 0.49999998660252726 0 0.86602541151947299 forward_v I I I I #
face $-1 $194 $195 $65 $-1 $196 forward single #
loop $-1 $197 $198 $83 #
cone-surface $-1 -37.29418012833932 -12.826157949861294 4.1092880027515761 0.86602541151947299 0 -0.49999998660252726 0.24999999330126363 0 0.43301270575973649 1 I I 0 1 0.5 forward I I I I #
face $-1 $199 $200 $66 $-1 $201 forward single #
loop $-1 $202 $203 $84 #
cone-surface $-1 -37.29418012833932 -10.229407837586761 4.1092880027515761 0.86602541151947299 0 -0.49999998660252726 0.24999999330126363 0 0.43301270575973649 1 I I 0 1 0.5 forward I I I I #
face $-1 $204 $205 $67 $-1 $206 forward single #
loop $-1 $207 $208 $85 #
cone-surface $-1 -37.29418012833932 -7.6326577253122281 4.1092880027515761 0.86602541151947299 0 -0.49999998660252726 0.24999999330126363 0 0.43301270575973649 1 I I 0 1 0.5 forward I I I I #
face $-1 $209 $210 $68 $-1 $211 reversed single #
loop $-1 $-1 $212 $86 #
plane-surface $-1 -109.91237150068241 3.5078901884893803 40.976769331842476 0 1 0 -0.86602541151947299 0 0.49999998660252726 forward_v I I I I #
face $-1 $213 $214 $69 $-1 $215 forward single #
loop $-1 $216 $217 $87 #
cone-surface $-1 -37.29418012833932 5.2390569300057344 4.1092880027515761 0.86602541151947299 0 -0.49999998660252726 0.24999999330126363 0 0.43301270575973649 1 I I 0 1 0.5 forward I I I I #
face $-1 $218 $219 $70 $-1 $220 forward single #
loop $-1 $221 $222 $88 #
cone-surface $-1 -37.29418012833932 7.835807042280269 4.1092880027515761 0.86602541151947299 0 -0.49999998660252726 0.24999999330126363 0 0.43301270575973649 1 I I 0 1 0.5 forward I I I I #
face $-1 $223 $224 $71 $-1 $225 forward single #
loop $-1 $226 $227 $89 #
cone-surface $-1 -37.29418012833932 10.432557154554804 4.1092880027515761 0.86602541151947299 0 -0.49999998660252726 0.24999999330126363 0 0.43301270575973649 1 I I 0 1 0.5 forward I I I I #
face $-1 $228 $229 $54 $-1 $230 reversed single #
loop $-1 $-1 $231 $90 #
plane-surface $-1 0 0 -8.3340248786059981 0 0 1 1 0 0 forward_v I I I I #
coedge $-1 $232 $233 $234 $235 forward $91 $-1 #
face $-1 $236 $237 $55 $-1 $238 reversed single #
loop $-1 $-1 $239 $93 #
plane-surface $-1 0 -14.557324691377648 6.3444853172204674 0 -1 0 0 0 -1 forward_v I I I I #
coedge $-1 $240 $241 $242 $243 reversed $94 $-1 #
face $-1 $244 $245 $56 $-1 $246 forward single #
loop $-1 $-1 $247 $96 #
plane-surface $-1 1.0779799453075611e-006 -10.229407837586761 70.42770204722774 0.86602541151947299 0 0.49999998660252726 0.49999998660252726 0 -0.86602541151947299 forward_v I I I I #
coedge $-1 $248 $249 $250 $251 reversed $97 $-1 #
face $-1 $-1 $252 $57 $-1 $253 forward single #
loop $-1 $254 $255 $99 #
cone-surface $-1 36.331593425246417 -12.826157949861294 3.5535383304575809 -0.86602541151947299 0 -0.49999998660252726 0.12499999665063181 0 -0.21650635287986825 1 I I -0.70710678118654746 0.70710678118654746 0.25 forward I I I I #
loop $-1 $-1 $256 $75 #
coedge $-1 $160 $160 $257 $258 reversed $100 $-1 #
face $-1 $-1 $259 $58 $-1 $260 forward single #
loop $-1 $261 $262 $102 #
cone-surface $-1 36.331593425246417 -10.229407837586761 3.5535383304575809 -0.86602541151947299 0 -0.49999998660252726 0.12499999665063181 0 -0.21650635287986825 1 I I -0.70710678118654746 0.70710678118654746 0.25 forward I I I I #
loop $-1 $-1 $263 $76 #
coedge $-1 $165 $165 $264 $265 reversed $103 $-1 #
face $-1 $-1 $266 $59 $-1 $267 forward single #
loop $-1 $268 $269 $105 #
cone-surface $-1 36.331593425246417 -7.6326577253122281 3.5535383304575809 -0.86602541151947299 0 -0.49999998660252726 0.12499999665063181 0 -0.21650635287986825 1 I I -0.70710678118654746 0.70710678118654746 0.25 forward I I I I #
loop $-1 $-1 $270 $77 #
coedge $-1 $170 $170 $271 $272 reversed $106 $-1 #
face $-1 $273 $274 $60 $-1 $275 reversed single #
loop $-1 $-1 $276 $108 #
plane-surface $-1 1.0779799453075611e-006 7.835807042280269 70.42770204722774 0.86602541151947299 0 0.49999998660252726 0.49999998660252726 0 -0.86602541151947299 forward_v I I I I #
coedge $-1 $277 $278 $279 $280 reversed $109 $-1 #
face $-1 $-1 $281 $61 $-1 $282 forward single #
loop $-1 $283 $284 $111 #
cone-surface $-1 36.331593425246417 5.2390569300057344 3.5535383304575809 -0.86602541151947299 0 -0.49999998660252726 0.12499999665063181 0 -0.21650635287986825 1 I I -0.70710678118654746 0.70710678118654746 0.25 forward I I I I #
loop $-1 $-1 $285 $79 #
coedge $-1 $179 $179 $286 $287 reversed $112 $-1 #
face $-1 $-1 $288 $62 $-1 $289 forward single #
loop $-1 $290 $291 $114 #
cone-surface $-1 36.331593425246417 7.835807042280269 3.5535383304575809 -0.86602541151947299 0 -0.49999998660252726 0.12499999665063181 0 -0.21650635287986825 1 I I -0.70710678118654746 0.70710678118654746 0.25 forward I I I I #
loop $-1 $-1 $292 $80 #
coedge $-1 $184 $184 $293 $294 reversed $115 $-1 #
face $-1 $-1 $295 $63 $-1 $296 forward single #
loop $-1 $297 $298 $117 #
cone-surface $-1 36.331593425246417 10.432557154554804 3.5535383304575809 -0.86602541151947299 0 -0.49999998660252726 0.12499999665063181 0 -0.21650635287986825 1 I I -0.70710678118654746 0.70710678118654746 0.25 forward I I I I #
loop $-1 $-1 $299 $81 #
coedge $-1 $189 $189 $300 $301 reversed $118 $-1 #
face $-1 $302 $303 $64 $-1 $304 forward single #
loop $-1 $-1 $305 $120 #
plane-surface $-1 -109.91237150068241 -5.9014909837958722 40.976769331842476 0 -1 0 0.86602541151947299 0 -0.49999998660252726 forward_v I I I I #
coedge $-1 $306 $307 $308 $309 reversed $121 $-1 #
face $-1 $-1 $310 $65 $-1 $311 forward single #
loop $-1 $312 $313 $123 #
cone-surface $-1 -36.331593425246425 -12.826157949861294 3.5535383304575809 0.86602541151947299 0 -0.49999998660252726 0.12499999665063181 0 0.21650635287986825 1 I I -0.70710678118654746 0.70710678118654746 0.25 forward I I I I #
loop $-1 $-1 $314 $83 #
coedge $-1 $198 $198 $315 $316 reversed $124 $-1 #
face $-1 $-1 $317 $66 $-1 $318 forward single #
loop $-1 $319 $320 $126 #
cone-surface $-1 -36.331593425246425 -10.229407837586761 3.5535383304575809 0.86602541151947299 0 -0.49999998660252726 0.12499999665063181 0 0.21650635287986825 1 I I -0.70710678118654746 0.70710678118654746 0.25 forward I I I I #
loop $-1 $-1 $321 $84 #
coedge $-1 $203 $203 $322 $323 reversed $127 $-1 #
face $-1 $-1 $324 $67 $-1 $325 forward single #
loop $-1 $326 $327 $129 #
cone-surface $-1 -36.331593425246425 -7.6326577253122281 3.5535383304575809 0.86602541151947299 0 -0.49999998660252726 0.12499999665063181 0 0.21650635287986825 1 I I -0.70710678118654746 0.70710678118654746 0.25 forward I I I I #
loop $-1 $-1 $328 $85 #
coedge $-1 $208 $208 $329 $330 reversed $130 $-1 #
face $-1 $331 $332 $68 $-1 $333 reversed single #
loop $-1 $-1 $334 $132 #
plane-surface $-1 -40.230719931638546 7.835807042280269 0.74605047818388215 -0.86602541151947299 0 0.49999998660252726 0.49999998660252726 0 0.86602541151947299 forward_v I I I I #
coedge $-1 $335 $336 $337 $338 reversed $133 $-1 #
face $-1 $-1 $339 $69 $-1 $340 forward single #
loop $-1 $341 $342 $135 #
cone-surface $-1 -36.331593425246425 5.2390569300057344 3.5535383304575809 0.86602541151947299 0 -0.49999998660252726 0.12499999665063181 0 0.21650635287986825 1 I I -0.70710678118654746 0.70710678118654746 0.25 forward I I I I #
loop $-1 $-1 $343 $87 #
coedge $-1 $217 $217 $344 $345 reversed $136 $-1 #
face $-1 $-1 $346 $70 $-1 $347 forward single #
loop $-1 $348 $349 $138 #
cone-surface $-1 -36.331593425246425 7.835807042280269 3.5535383304575809 0.86602541151947299 0 -0.49999998660252726 0.12499999665063181 0 0.21650635287986825 1 I I -0.70710678118654746 0.70710678118654746 0.25 forward I I I I #
loop $-1 $-1 $350 $88 #
coedge $-1 $222 $222 $351 $352 reversed $139 $-1 #
face $-1 $-1 $353 $71 $-1 $354 forward single #
loop $-1 $355 $356 $141 #
cone-surface $-1 -36.331593425246425 10.432557154554804 3.5535383304575809 0.86602541151947299 0 -0.49999998660252726 0.12499999665063181 0 0.21650635287986825 1 I I -0.70710678118654746 0.70710678118654746 0.25 forward I I I I #
loop $-1 $-1 $357 $89 #
coedge $-1 $227 $227 $358 $359 reversed $142 $-1 #
face $-1 $360 $361 $54 $-1 $362 reversed single #
loop $-1 $-1 $363 $144 #
plane-surface $-1 0 -21.573105068356409 0 0 1 0 0 0 1 forward_v I I I I #
coedge $-1 $364 $365 $366 $367 forward $145 $-1 #
coedge $-1 $368 $147 $369 $370 forward $91 $-1 #
coedge $-1 $147 $368 $371 $372 forward $91 $-1 #
coedge $-1 $373 $374 $147 $235 reversed $375 $-1 #
edge $-1 $376 -21.573105068356409 $377 21.573105068356409 $234 $378 forward 7 unknown #
face $-1 $379 $380 $55 $-1 $381 reversed single #
loop $-1 $-1 $382 $148 #
plane-surface $-1 -40.230719931638539 0 0 1 0 0 0 0 -1 forward_v I I I I #
coedge $-1 $383 $384 $385 $386 reversed $149 $-1 #
coedge $-1 $387 $151 $388 $389 reversed $94 $-1 #
coedge $-1 $151 $387 $383 $390 forward $94 $-1 #
coedge $-1 $385 $391 $151 $243 forward $392 $-1 #
edge $-1 $393 -12.540497628422894 $394 -5.5247172514441338 $242 $395 forward 7 unknown #
face $-1 $396 $397 $56 $-1 $398 forward single #
loop $-1 $-1 $399 $152 #
plane-surface $-1 0 -14.557324691377648 6.3444853172204674 0 -1 0 0 0 -1 forward_v I I I I #
coedge $-1 $400 $401 $402 $403 reversed $153 $-1 #
coedge $-1 $249 $155 $404 $405 reversed $97 $-1 #
coedge $-1 $155 $248 $400 $406 reversed $97 $-1 #
coedge $-1 $402 $407 $155 $251 forward $397 $-1 #
edge $-1 $408 -5.3898936081266342 $409 -1.0089747019542443 $250 $410 forward 7 unknown #
loop $-1 $-1 $257 $156 #
plane-surface $-1 1.0779799453075611e-006 -10.229407837586761 70.42770204722774 0.86602541151947299 0 0.49999998660252726 0.49999998660252726 0 -0.86602541151947299 forward_v I I I I #
loop $-1 $-1 $411 $99 #
coedge $-1 $255 $255 $256 $412 reversed $157 $-1 #
coedge $-1 $256 $256 $255 $412 forward $159 $-1 #
coedge $-1 $257 $257 $160 $258 forward $252 $-1 #
edge $-1 $413 0 $413 6.2831853071796004 $257 $414 forward 7 unknown #
loop $-1 $-1 $264 $161 #
plane-surface $-1 1.0779799453075611e-006 -10.229407837586761 70.42770204722774 0.86602541151947299 0 0.49999998660252726 0.49999998660252726 0 -0.86602541151947299 forward_v I I I I #
loop $-1 $-1 $415 $102 #
coedge $-1 $262 $262 $263 $416 reversed $162 $-1 #
coedge $-1 $263 $263 $262 $416 forward $164 $-1 #
coedge $-1 $264 $264 $165 $265 forward $259 $-1 #
edge $-1 $417 0 $417 6.2831853071796004 $264 $418 forward 7 unknown #
loop $-1 $-1 $271 $166 #
plane-surface $-1 1.0779799453075611e-006 -10.229407837586761 70.42770204722774 0.86602541151947299 0 0.49999998660252726 0.49999998660252726 0 -0.86602541151947299 forward_v I I I I #
loop $-1 $-1 $419 $105 #
coedge $-1 $269 $269 $270 $420 reversed $167 $-1 #
coedge $-1 $270 $270 $269 $420 forward $169 $-1 #
coedge $-1 $271 $271 $170 $272 forward $266 $-1 #
edge $-1 $421 0 $421 6.2831853071796004 $271 $422 forward 7 unknown #
face $-1 $423 $424 $60 $-1 $425 reversed single #
loop $-1 $-1 $426 $171 #
plane-surface $-1 69.68165264702381 3.5078901884893803 110.65842090088633 0 1 0 0.86602541151947299 0 0.49999998660252726 forward_v I I I I #
coedge $-1 $427 $428 $429 $430 reversed $172 $-1 #
coedge $-1 $278 $174 $431 $432 reversed $109 $-1 #
coedge $-1 $174 $277 $427 $433 reversed $109 $-1 #
coedge $-1 $429 $434 $174 $280 forward $435 $-1 #
edge $-1 $436 -5.3898936081266342 $437 -1.0089747019542443 $279 $438 forward 7 unknown #
loop $-1 $-1 $286 $175 #
plane-surface $-1 1.0779799453075611e-006 7.835807042280269 70.42770204722774 0.86602541151947299 0 0.49999998660252726 0.49999998660252726 0 -0.86602541151947299 forward_v I I I I #
loop $-1 $-1 $439 $111 #
coedge $-1 $284 $284 $285 $440 reversed $176 $-1 #
coedge $-1 $285 $285 $284 $440 forward $178 $-1 #
coedge $-1 $286 $286 $179 $287 forward $281 $-1 #
edge $-1 $441 0 $441 6.2831853071796004 $286 $442 forward 7 unknown #
loop $-1 $-1 $293 $180 #
plane-surface $-1 1.0779799453075611e-006 7.835807042280269 70.42770204722774 0.86602541151947299 0 0.49999998660252726 0.49999998660252726 0 -0.86602541151947299 forward_v I I I I #
loop $-1 $-1 $443 $114 #
coedge $-1 $291 $291 $292 $444 reversed $181 $-1 #
coedge $-1 $292 $292 $291 $444 forward $183 $-1 #
coedge $-1 $293 $293 $184 $294 forward $288 $-1 #
edge $-1 $445 0 $445 6.2831853071796004 $293 $446 forward 7 unknown #
loop $-1 $-1 $300 $185 #
plane-surface $-1 1.0779799453075611e-006 7.835807042280269 70.42770204722774 0.86602541151947299 0 0.49999998660252726 0.49999998660252726 0 -0.86602541151947299 forward_v I I I I #
loop $-1 $-1 $447 $117 #
coedge $-1 $298 $298 $299 $448 reversed $186 $-1 #
coedge $-1 $299 $299 $298 $448 forward $188 $-1 #
coedge $-1 $300 $300 $189 $301 forward $295 $-1 #
edge $-1 $449 0 $449 6.2831853071796004 $300 $450 forward 7 unknown #
face $-1 $451 $452 $64 $-1 $453 reversed single #
loop $-1 $-1 $308 $190 #
plane-surface $-1 0 0 8.3340248786059981 0 0 1 1 0 0 forward_v I I I I #
coedge $-1 $454 $455 $456 $457 reversed $191 $-1 #
coedge $-1 $458 $193 $459 $460 reversed $121 $-1 #
coedge $-1 $193 $458 $454 $461 forward $121 $-1 #
coedge $-1 $456 $462 $193 $309 forward $303 $-1 #
edge $-1 $463 -9.4426207725842701 $464 -0.78678706500249174 $308 $465 forward 7 unknown #
loop $-1 $-1 $315 $194 #
plane-surface $-1 -40.230719931638546 -10.229407837586761 0.74605047818388215 -0.86602541151947299 0 0.49999998660252726 0.49999998660252726 0 0.86602541151947299 forward_v I I I I #
loop $-1 $-1 $466 $123 #
coedge $-1 $313 $313 $314 $467 reversed $195 $-1 #
coedge $-1 $314 $314 $313 $467 forward $197 $-1 #
coedge $-1 $315 $315 $198 $316 forward $310 $-1 #
edge $-1 $468 0 $468 6.2831853071796004 $315 $469 forward 7 unknown #
loop $-1 $-1 $322 $199 #
plane-surface $-1 -40.230719931638546 -10.229407837586761 0.74605047818388215 -0.86602541151947299 0 0.49999998660252726 0.49999998660252726 0 0.86602541151947299 forward_v I I I I #
loop $-1 $-1 $470 $126 #
coedge $-1 $320 $320 $321 $471 reversed $200 $-1 #
coedge $-1 $321 $321 $320 $471 forward $202 $-1 #
coedge $-1 $322 $322 $203 $323 forward $317 $-1 #
edge $-1 $472 0 $472 6.2831853071796004 $322 $473 forward 7 unknown #
loop $-1 $-1 $329 $204 #
plane-surface $-1 -40.230719931638546 -10.229407837586761 0.74605047818388215 -0.86602541151947299 0 0.49999998660252726 0.49999998660252726 0 0.86602541151947299 forward_v I I I I #
loop $-1 $-1 $474 $129 #
coedge $-1 $327 $327 $328 $475 reversed $205 $-1 #
coedge $-1 $328 $328 $327 $475 forward $207 $-1 #
coedge $-1 $329 $329 $208 $330 forward $324 $-1 #
edge $-1 $476 0 $476 6.2831853071796004 $329 $477 forward 7 unknown #
face $-1 $478 $479 $68 $-1 $480 forward single #
loop $-1 $-1 $481 $209 #
plane-surface $-1 -109.91237150068241 12.163723896071158 40.976769331842476 0 -1 0 0.86602541151947299 0 -0.49999998660252726 forward_v I I I I #
coedge $-1 $482 $483 $484 $485 reversed $210 $-1 #
coedge $-1 $336 $212 $486 $487 reversed $133 $-1 #
coedge $-1 $212 $335 $482 $488 reversed $133 $-1 #
coedge $-1 $484 $489 $212 $338 forward $479 $-1 #
edge $-1 $490 14.725465818702666 $491 19.106384724875042 $337 $492 forward 7 unknown #
loop $-1 $-1 $344 $213 #
plane-surface $-1 -40.230719931638546 7.835807042280269 0.74605047818388215 -0.86602541151947299 0 0.49999998660252726 0.49999998660252726 0 0.86602541151947299 forward_v I I I I #
loop $-1 $-1 $493 $135 #
coedge $-1 $342 $342 $343 $494 reversed $214 $-1 #
coedge $-1 $343 $343 $342 $494 forward $216 $-1 #
coedge $-1 $344 $344 $217 $345 forward $339 $-1 #
edge $-1 $495 0 $495 6.2831853071796004 $344 $496 forward 7 unknown #
loop $-1 $-1 $351 $218 #
plane-surface $-1 -40.230719931638546 7.835807042280269 0.74605047818388215 -0.86602541151947299 0 0.49999998660252726 0.49999998660252726 0 0.86602541151947299 forward_v I I I I #
loop $-1 $-1 $497 $138 #
coedge $-1 $349 $349 $350 $498 reversed $219 $-1 #
coedge $-1 $350 $350 $349 $498 forward $221 $-1 #
coedge $-1 $351 $351 $222 $352 forward $346 $-1 #
edge $-1 $499 0 $499 6.2831853071796004 $351 $500 forward 7 unknown #
loop $-1 $-1 $358 $223 #
plane-surface $-1 -40.230719931638546 7.835807042280269 0.74605047818388215 -0.86602541151947299 0 0.49999998660252726 0.49999998660252726 0 0.86602541151947299 forward_v I I I I #
loop $-1 $-1 $501 $141 #
coedge $-1 $356 $356 $357 $502 reversed $224 $-1 #
coedge $-1 $357 $357 $356 $502 forward $226 $-1 #
coedge $-1 $358 $358 $227 $359 forward $353 $-1 #
edge $-1 $503 0 $503 6.2831853071796004 $358 $504 forward 7 unknown #
face $-1 $505 $506 $54 $-1 $507 reversed single #
loop $-1 $-1 $508 $228 #
plane-surface $-1 -40.230719931638539 0 0 1 0 0 0 0 -1 forward_v I I I I #
coedge $-1 $509 $371 $510 $511 forward $229 $-1 #
coedge $-1 $512 $231 $509 $513 forward $145 $-1 #
coedge $-1 $231 $512 $514 $515 forward $145 $-1 #
coedge $-1 $374 $373 $231 $367 reversed $375 $-1 #
edge $-1 $516 -21.573105068356409 $517 21.573105068356409 $366 $518 forward 7 unknown #
coedge $-1 $233 $232 $519 $520 forward $91 $-1 #
coedge $-1 $521 $522 $232 $370 reversed $506 $-1 #
edge $-1 $377 -40.230719931638539 $523 40.230719931638539 $369 $524 forward 7 unknown #
coedge $-1 $363 $525 $233 $372 reversed $229 $-1 #
edge $-1 $526 -40.230719931638539 $376 40.230719931638539 $371 $527 forward 7 unknown #
coedge $-1 $366 $234 $525 $528 forward $375 $-1 #
coedge $-1 $234 $366 $521 $529 reversed $375 $-1 #
loop $-1 $-1 $373 $505 #
vertex $-1 $235 $530 #
vertex $-1 $235 $531 #
straight-curve $-1 40.230719931638539 0 8.3340248786059981 0 1 0 I I #
face $-1 $532 $533 $55 $-1 $534 forward single #
loop $-1 $-1 $388 $236 #
plane-surface $-1 0 -21.573105068356409 0 0 1 0 0 0 1 forward_v I I I I #
coedge $-1 $535 $536 $537 $538 forward $237 $-1 #
coedge $-1 $537 $239 $241 $390 reversed $149 $-1 #
coedge $-1 $239 $537 $539 $540 reversed $149 $-1 #
coedge $-1 $541 $242 $239 $386 forward $392 $-1 #
edge $-1 $394 1.182703097224703 $542 5.1617822199957644 $385 $543 forward 7 unknown #
coedge $-1 $241 $240 $535 $544 reversed $94 $-1 #
coedge $-1 $545 $546 $240 $389 forward $380 $-1 #
edge $-1 $547 -40.230719931638539 $393 40.230719931638539 $388 $548 forward 7 unknown #
edge $-1 $549 -40.230719931638539 $394 40.230719931638539 $383 $550 forward 7 unknown #
coedge $-1 $242 $541 $545 $551 forward $392 $-1 #
loop $-1 $-1 $385 $532 #
vertex $-1 $389 $552 #
vertex $-1 $243 $553 #
straight-curve $-1 40.230719931638539 -9.0326074399335141 4.3549457558349367 0 1 0 I I #
face $-1 $-1 $554 $56 $-1 $555 reversed single #
loop $-1 $-1 $402 $244 #
plane-surface $-1 0 0 8.3340248786059981 0 0 1 1 0 0 forward_v I I I I #
coedge $-1 $556 $557 $401 $558 reversed $245 $-1 #
coedge $-1 $559 $247 $249 $406 forward $153 $-1 #
coedge $-1 $247 $559 $399 $558 forward $153 $-1 #
coedge $-1 $560 $250 $247 $403 forward $397 $-1 #
edge $-1 $409 0.78678706500249174 $561 9.4426207725842666 $402 $562 forward 7 unknown #
coedge $-1 $563 $564 $248 $405 forward $554 $-1 #
edge $-1 $565 -54.583159972259288 $408 -46.995185571837169 $404 $566 forward 7 unknown #
edge $-1 $409 71.69960181615933 $565 80.461439863277079 $249 $567 forward 7 unknown #
coedge $-1 $250 $560 $563 $568 forward $397 $-1 #
vertex $-1 $405 $569 #
vertex $-1 $251 $570 #
straight-curve $-1 34.840826323511905 -5.9014909837958722 8.3340248786060016 -1 0 0 I I #
coedge $-1 $411 $411 $-1 $571 reversed $254 $-1 #
edge $-1 $572 0 $572 6.2831853071796004 $255 $573 forward 7 unknown #
vertex $-1 $258 $574 #
ellipse-curve $-1 38.040260478552341 -12.826157949861294 4.5400376783949383 0.86602541151947299 0 0.49999998660252726 0.24999999330126363 0 -0.43301270575973649 1 I I #
coedge $-1 $415 $415 $-1 $575 reversed $261 $-1 #
edge $-1 $576 0 $576 6.2831853071796004 $262 $577 forward 7 unknown #
vertex $-1 $265 $578 #
ellipse-curve $-1 38.040260478552341 -10.229407837586761 4.5400376783949383 0.86602541151947299 0 0.49999998660252726 0.24999999330126363 0 -0.43301270575973649 1 I I #
coedge $-1 $419 $419 $-1 $579 reversed $268 $-1 #
edge $-1 $580 0 $580 6.2831853071796004 $269 $581 forward 7 unknown #
vertex $-1 $272 $582 #
ellipse-curve $-1 38.040260478552341 -7.6326577253122281 4.5400376783949383 0.86602541151947299 0 0.49999998660252726 0.24999999330126363 0 -0.43301270575973649 1 I I #
face $-1 $-1 $435 $60 $-1 $583 forward single #
loop $-1 $-1 $584 $273 #
plane-surface $-1 40.230719931638539 0 0 -1 0 0 0 0 1 forward_v I I I I #
coedge $-1 $585 $586 $587 $588 reversed $274 $-1 #
coedge $-1 $589 $276 $278 $433 forward $172 $-1 #
coedge $-1 $276 $589 $585 $590 forward $172 $-1 #
coedge $-1 $587 $279 $276 $430 forward $435 $-1 #
edge $-1 $437 -8.2458203749310233 $591 0.41001333265075424 $429 $592 forward 7 unknown #
coedge $-1 $593 $594 $277 $432 forward $424 $-1 #
edge $-1 $595 -54.583159972259288 $436 -46.995185571837169 $431 $596 forward 7 unknown #
edge $-1 $437 71.69960181615933 $595 80.461439863277079 $278 $597 forward 7 unknown #
coedge $-1 $279 $587 $593 $598 forward $435 $-1 #
loop $-1 $-1 $587 $423 #
vertex $-1 $432 $599 #
vertex $-1 $280 $600 #
straight-curve $-1 34.840826323511905 12.163723896071158 8.3340248786060016 -1 0 0 I I #
coedge $-1 $439 $439 $-1 $601 reversed $283 $-1 #
edge $-1 $602 0 $602 6.2831853071796004 $284 $603 forward 7 unknown #
vertex $-1 $287 $604 #
ellipse-curve $-1 38.040260478552341 5.2390569300057344 4.5400376783949383 0.86602541151947299 0 0.49999998660252726 0.24999999330126363 0 -0.43301270575973649 1 I I #
coedge $-1 $443 $443 $-1 $605 reversed $290 $-1 #
edge $-1 $606 0 $606 6.2831853071796004 $291 $607 forward 7 unknown #
vertex $-1 $294 $608 #
ellipse-curve $-1 38.040260478552341 7.835807042280269 4.5400376783949383 0.86602541151947299 0 0.49999998660252726 0.24999999330126363 0 -0.43301270575973649 1 I I #
coedge $-1 $447 $447 $-1 $609 reversed $297 $-1 #
edge $-1 $610 0 $610 6.2831853071796004 $298 $611 forward 7 unknown #
vertex $-1 $301 $612 #
ellipse-curve $-1 38.040260478552341 10.432557154554804 4.5400376783949383 0.86602541151947299 0 0.49999998660252726 0.24999999330126363 0 -0.43301270575973649 1 I I #
face $-1 $-1 $613 $64 $-1 $614 forward single #
loop $-1 $-1 $615 $302 #
plane-surface $-1 -40.230719931638539 0 0 1 0 0 0 0 -1 forward_v I I I I #
coedge $-1 $455 $305 $307 $461 reversed $191 $-1 #
coedge $-1 $305 $454 $615 $616 reversed $191 $-1 #
coedge $-1 $617 $308 $305 $457 forward $303 $-1 #
edge $-1 $464 -19.106384724875042 $618 -14.725465818702666 $456 $619 forward 7 unknown #
coedge $-1 $307 $306 $620 $621 reversed $121 $-1 #
coedge $-1 $622 $623 $306 $460 forward $613 $-1 #
edge $-1 $624 -12.481873131085443 $463 -3.7200350839677183 $459 $625 forward 7 unknown #
edge $-1 $626 1.4225156588357017e-014 $464 8.7618380471177382 $454 $627 forward 7 unknown #
coedge $-1 $308 $617 $622 $628 forward $303 $-1 #
vertex $-1 $460 $629 #
vertex $-1 $309 $630 #
straight-curve $-1 -35.849801025466164 -5.1147039187933805 8.3340248786059981 0 1 0 I I #
coedge $-1 $466 $466 $-1 $631 reversed $312 $-1 #
edge $-1 $632 0 $632 6.2831853071796004 $313 $633 forward 7 unknown #
vertex $-1 $316 $634 #
ellipse-curve $-1 -38.040260478552355 -12.826157949861294 4.5400376783949419 -0.86602541151947299 0 0.49999998660252726 0.24999999330126363 0 0.43301270575973649 1 I I #
coedge $-1 $470 $470 $-1 $635 reversed $319 $-1 #
edge $-1 $636 0 $636 6.2831853071796004 $320 $637 forward 7 unknown #
vertex $-1 $323 $638 #
ellipse-curve $-1 -38.040260478552355 -10.229407837586761 4.5400376783949419 -0.86602541151947299 0 0.49999998660252726 0.24999999330126363 0 0.43301270575973649 1 I I #
coedge $-1 $474 $474 $-1 $639 reversed $326 $-1 #
edge $-1 $640 0 $640 6.2831853071796004 $327 $641 forward 7 unknown #
vertex $-1 $330 $642 #
ellipse-curve $-1 -38.040260478552355 -7.6326577253122281 4.5400376783949419 -0.86602541151947299 0 0.49999998660252726 0.24999999330126363 0 0.43301270575973649 1 I I #
face $-1 $-1 $643 $68 $-1 $644 reversed single #
loop $-1 $-1 $337 $331 #
plane-surface $-1 0 0 8.3340248786059981 0 0 1 1 0 0 forward_v I I I I #
coedge $-1 $645 $646 $647 $648 reversed $332 $-1 #
coedge $-1 $649 $334 $336 $488 forward $210 $-1 #
coedge $-1 $334 $649 $645 $650 forward $210 $-1 #
coedge $-1 $647 $337 $334 $485 forward $479 $-1 #
edge $-1 $491 -0.41001333265075424 $651 8.2458203749310233 $484 $652 forward 7 unknown #
coedge $-1 $653 $654 $335 $487 forward $643 $-1 #
edge $-1 $655 -19.742334187737345 $490 -12.15435978731524 $486 $656 forward 7 unknown #
edge $-1 $491 -8.7618380471177382 $655 -1.4225156588357017e-014 $336 $657 forward 7 unknown #
coedge $-1 $337 $647 $653 $658 forward $479 $-1 #
vertex $-1 $338 $659 #
vertex $-1 $338 $660 #
straight-curve $-1 -54.956185750341206 3.5078901884893803 8.3340248786059981 1 0 0 I I #
coedge $-1 $493 $493 $-1 $661 reversed $341 $-1 #
edge $-1 $662 0 $662 6.2831853071796004 $342 $663 forward 7 unknown #
vertex $-1 $345 $664 #
ellipse-curve $-1 -38.040260478552355 5.2390569300057344 4.5400376783949419 -0.86602541151947299 0 0.49999998660252726 0.24999999330126363 0 0.43301270575973649 1 I I #
coedge $-1 $497 $497 $-1 $665 reversed $348 $-1 #
edge $-1 $666 0 $666 6.2831853071796004 $349 $667 forward 7 unknown #
vertex $-1 $352 $668 #
ellipse-curve $-1 -38.040260478552355 7.835807042280269 4.5400376783949419 -0.86602541151947299 0 0.49999998660252726 0.24999999330126363 0 0.43301270575973649 1 I I #
coedge $-1 $501 $501 $-1 $669 reversed $355 $-1 #
edge $-1 $670 0 $670 6.2831853071796004 $356 $671 forward 7 unknown #
vertex $-1 $359 $672 #
ellipse-curve $-1 -38.040260478552355 10.432557154554804 4.5400376783949419 -0.86602541151947299 0 0.49999998660252726 0.24999999330126363 0 0.43301270575973649 1 I I #
face $-1 $-1 $375 $54 $-1 $673 reversed single #
loop $-1 $-1 $521 $360 #
plane-surface $-1 0 21.573105068356409 0 0 -1 0 0 0 -1 forward_v I I I I #
coedge $-1 $674 $519 $522 $675 forward $361 $-1 #
coedge $-1 $525 $363 $364 $513 reversed $229 $-1 #
coedge $-1 $519 $674 $363 $511 reversed $361 $-1 #
edge $-1 $526 -8.3340248786059981 $676 8.3340248786059981 $510 $677 forward 7 unknown #
coedge $-1 $365 $364 $674 $678 forward $145 $-1 #
edge $-1 $517 -40.230719931638539 $676 40.230719931638539 $509 $679 forward 7 unknown #
coedge $-1 $522 $521 $365 $515 reversed $506 $-1 #
edge $-1 $680 -40.230719931638539 $516 40.230719931638539 $514 $681 forward 7 unknown #
vertex $-1 $367 $682 #
vertex $-1 $528 $683 #
straight-curve $-1 40.230719931638539 0 -8.3340248786059981 0 -1 0 I I #
coedge $-1 $508 $510 $368 $520 reversed $361 $-1 #
edge $-1 $523 -21.573105068356409 $526 21.573105068356409 $519 $684 forward 7 unknown #
coedge $-1 $514 $369 $374 $529 forward $506 $-1 #
coedge $-1 $369 $514 $508 $675 reversed $506 $-1 #
vertex $-1 $370 $685 #
straight-curve $-1 0 21.573105068356409 8.3340248786059981 -1 0 0 I I #
coedge $-1 $371 $509 $373 $528 reversed $229 $-1 #
vertex $-1 $520 $686 #
straight-curve $-1 0 -21.573105068356409 8.3340248786059981 1 0 0 I I #
edge $-1 $376 -8.3340248786059981 $517 8.3340248786059981 $373 $687 forward 7 unknown #
edge $-1 $377 -8.3340248786059981 $516 8.3340248786059981 $374 $688 forward 7 unknown #
point $-1 40.230719931638539 -21.573105068356409 8.3340248786059981 #
point $-1 40.230719931638539 21.573105068356409 8.3340248786059981 #
face $-1 $-1 $392 $55 $-1 $689 reversed single #
loop $-1 $-1 $539 $379 #
plane-surface $-1 0 0 8.3340248786059981 0 0 1 1 0 0 forward_v I I I I #
coedge $-1 $690 $382 $387 $544 forward $237 $-1 #
coedge $-1 $382 $690 $691 $692 reversed $237 $-1 #
coedge $-1 $384 $383 $382 $538 reversed $149 $-1 #
edge $-1 $693 -5.1617822199957644 $549 -1.182703097224703 $382 $694 forward 7 unknown #
coedge $-1 $691 $695 $384 $540 forward $533 $-1 #
edge $-1 $542 -40.230719931638539 $693 40.230719931638539 $539 $696 forward 7 unknown #
coedge $-1 $391 $385 $695 $697 reversed $392 $-1 #
vertex $-1 $386 $698 #
straight-curve $-1 40.230719931638539 -14.557324691377648 3.1722426586102337 0 0 1 I I #
edge $-1 $549 5.5247172514441338 $547 12.540497628422894 $535 $699 forward 7 unknown #
coedge $-1 $700 $388 $391 $551 reversed $380 $-1 #
coedge $-1 $388 $700 $690 $701 forward $380 $-1 #
vertex $-1 $389 $702 #
straight-curve $-1 0 -21.573105068356409 4.3549457558349367 1 0 0 I I #
vertex $-1 $544 $703 #
straight-curve $-1 0 -14.557324691377648 4.3549457558349367 1 0 0 I I #
edge $-1 $704 -8.3340248786059981 $393 -4.3549457558349367 $391 $705 forward 7 unknown #
point $-1 40.230719931638539 -21.573105068356409 4.3549457558349367 #
point $-1 40.230719931638539 -14.557324691377648 4.3549457558349367 #
loop $-1 $-1 $404 $396 #
plane-surface $-1 40.230719931638539 0 0 -1 0 0 0 0 1 forward_v I I I I #
coedge $-1 $557 $399 $706 $707 reversed $245 $-1 #
coedge $-1 $399 $556 $560 $708 reversed $245 $-1 #
edge $-1 $709 -80.461439863277079 $561 -71.69960181615933 $399 $710 forward 7 unknown #
coedge $-1 $401 $400 $564 $711 reversed $153 $-1 #
coedge $-1 $407 $402 $557 $708 forward $397 $-1 #
vertex $-1 $708 $712 #
straight-curve $-1 35.849801025466157 -5.1147039187933805 8.3340248786059945 0 -1 0 I I #
coedge $-1 $706 $404 $407 $568 reversed $554 $-1 #
coedge $-1 $404 $706 $559 $711 forward $554 $-1 #
vertex $-1 $405 $713 #
straight-curve $-1 40.230719931638539 -5.9014909837958722 55.329210450443163 0 0 1 I I #
straight-curve $-1 1.0779799453075611e-006 -5.9014909837958722 70.42770204722774 0.49999998660252726 0 -0.86602541151947299 I I #
edge $-1 $714 -14.557324691377648 $408 -5.9014909837958722 $563 $715 forward 7 unknown #
point $-1 40.230719931638539 -5.9014909837958722 8.3340248786059981 #
point $-1 35.849801025466149 -5.9014909837958722 8.3340248786060016 #
edge $-1 $716 1 $716 0 $411 $-1 forward 7 unknown #
vertex $-1 $412 $717 #
ellipse-curve $-1 36.548099778126286 -12.826157949861294 3.6785383271082126 0.86602541151947299 0 0.49999998660252726 0.24999999330126363 0 -0.43301270575973649 1 I I #
point $-1 38.290260471853607 -12.826157949861294 4.1070249726352026 #
edge $-1 $718 1 $718 0 $415 $-1 forward 7 unknown #
vertex $-1 $416 $719 #
ellipse-curve $-1 36.548099778126286 -10.229407837586761 3.6785383271082126 0.86602541151947299 0 0.49999998660252726 0.24999999330126363 0 -0.43301270575973649 1 I I #
point $-1 38.290260471853607 -10.229407837586761 4.1070249726352026 #
edge $-1 $720 1 $720 0 $419 $-1 forward 7 unknown #
vertex $-1 $420 $721 #
ellipse-curve $-1 36.548099778126286 -7.6326577253122281 3.6785383271082126 0.86602541151947299 0 0.49999998660252726 0.24999999330126363 0 -0.43301270575973649 1 I I #
point $-1 38.290260471853607 -7.6326577253122281 4.1070249726352026 #
plane-surface $-1 0 0 8.3340248786059981 0 0 1 1 0 0 forward_v I I I I #
coedge $-1 $594 $593 $586 $722 forward $424 $-1 #
coedge $-1 $586 $426 $428 $590 reversed $274 $-1 #
coedge $-1 $426 $585 $584 $722 reversed $274 $-1 #
coedge $-1 $434 $429 $426 $588 forward $435 $-1 #
edge $-1 $591 1.0089747019542443 $723 5.3898936081266342 $587 $724 forward 7 unknown #
coedge $-1 $428 $427 $594 $725 reversed $172 $-1 #
edge $-1 $726 -80.461439863277079 $591 -71.69960181615933 $585 $727 forward 7 unknown #
vertex $-1 $430 $728 #
straight-curve $-1 35.849801025466157 3.9179035211401345 8.3340248786059945 0 -1 0 I I #
coedge $-1 $584 $431 $434 $598 reversed $424 $-1 #
coedge $-1 $431 $584 $589 $725 forward $424 $-1 #
vertex $-1 $432 $729 #
straight-curve $-1 40.230719931638539 12.163723896071158 55.329210450443163 0 0 1 I I #
straight-curve $-1 1.0779799453075611e-006 12.163723896071158 70.42770204722774 0.49999998660252726 0 -0.86602541151947299 I I #
edge $-1 $723 3.5078901884893803 $436 12.163723896071158 $593 $730 forward 7 unknown #
point $-1 40.230719931638539 12.163723896071158 8.3340248786059981 #
point $-1 35.849801025466149 12.163723896071158 8.3340248786060016 #
edge $-1 $731 1 $731 0 $439 $-1 forward 7 unknown #
vertex $-1 $440 $732 #
ellipse-curve $-1 36.548099778126286 5.2390569300057344 3.6785383271082126 0.86602541151947299 0 0.49999998660252726 0.24999999330126363 0 -0.43301270575973649 1 I I #
point $-1 38.290260471853607 5.2390569300057344 4.1070249726352026 #
edge $-1 $733 1 $733 0 $443 $-1 forward 7 unknown #
vertex $-1 $444 $734 #
ellipse-curve $-1 36.548099778126286 7.835807042280269 3.6785383271082126 0.86602541151947299 0 0.49999998660252726 0.24999999330126363 0 -0.43301270575973649 1 I I #
point $-1 38.290260471853607 7.835807042280269 4.1070249726352026 #
edge $-1 $735 1 $735 0 $447 $-1 forward 7 unknown #
vertex $-1 $448 $736 #
ellipse-curve $-1 36.548099778126286 10.432557154554804 3.6785383271082126 0.86602541151947299 0 0.49999998660252726 0.24999999330126363 0 -0.43301270575973649 1 I I #
point $-1 38.290260471853607 10.432557154554804 4.1070249726352026 #
loop $-1 $-1 $459 $451 #
plane-surface $-1 0 -14.557324691377648 6.3444853172204674 0 -1 0 0 0 -1 forward_v I I I I #
coedge $-1 $620 $737 $455 $616 forward $452 $-1 #
edge $-1 $618 12.15435978731524 $626 19.742334187737345 $615 $738 forward 7 unknown #
coedge $-1 $462 $456 $737 $739 forward $303 $-1 #
vertex $-1 $739 $740 #
straight-curve $-1 -54.956185750341206 -5.9014909837958722 8.3340248786059981 -1 0 0 I I #
coedge $-1 $741 $615 $458 $621 forward $452 $-1 #
edge $-1 $626 0.78678706500249174 $624 9.4426207725842701 $620 $742 forward 7 unknown #
coedge $-1 $623 $459 $462 $628 reversed $613 $-1 #
coedge $-1 $459 $622 $741 $743 reversed $613 $-1 #
vertex $-1 $743 $744 #
straight-curve $-1 -33.989783533321372 -14.557324691377648 11.555669793066018 0.49999998660252726 0 0.86602541151947299 I I #
vertex $-1 $621 $745 #
straight-curve $-1 -40.230719931638546 -5.9014909837958722 0.74605047818388215 0.49999998660252726 0 0.86602541151947299 I I #
edge $-1 $746 -40.230719931638539 $463 -35.849801025466164 $462 $747 forward 7 unknown #
point $-1 -35.849801025466164 -14.55732469137765 8.3340248786059981 #
point $-1 -35.849801025466164 -5.9014909837958722 8.3340248786059981 #
edge $-1 $748 1 $748 0 $466 $-1 forward 7 unknown #
vertex $-1 $467 $749 #
ellipse-curve $-1 -36.548099778126293 -12.826157949861294 3.6785383271082126 -0.86602541151947299 0 0.49999998660252726 0.24999999330126363 0 0.43301270575973649 1 I I #
point $-1 -37.790260485251089 -12.826157949861294 4.9730503841546758 #
edge $-1 $750 1 $750 0 $470 $-1 forward 7 unknown #
vertex $-1 $471 $751 #
ellipse-curve $-1 -36.548099778126293 -10.229407837586761 3.6785383271082126 -0.86602541151947299 0 0.49999998660252726 0.24999999330126363 0 0.43301270575973649 1 I I #
point $-1 -37.790260485251089 -10.229407837586761 4.9730503841546758 #
edge $-1 $752 1 $752 0 $474 $-1 forward 7 unknown #
vertex $-1 $475 $753 #
ellipse-curve $-1 -36.548099778126293 -7.6326577253122281 3.6785383271082126 -0.86602541151947299 0 0.49999998660252726 0.24999999330126363 0 0.43301270575973649 1 I I #
point $-1 -37.790260485251089 -7.6326577253122281 4.9730503841546758 #
loop $-1 $-1 $486 $478 #
plane-surface $-1 -40.230719931638539 0 0 1 0 0 0 0 -1 forward_v I I I I #
coedge $-1 $646 $481 $483 $650 reversed $332 $-1 #
coedge $-1 $481 $645 $754 $755 reversed $332 $-1 #
coedge $-1 $489 $484 $481 $648 forward $479 $-1 #
edge $-1 $651 -19.106384724875042 $756 -14.725465818702666 $647 $757 forward 7 unknown #
coedge $-1 $483 $482 $654 $758 reversed $210 $-1 #
edge $-1 $759 1.4225156588357017e-014 $651 8.7618380471177382 $645 $760 forward 7 unknown #
vertex $-1 $485 $761 #
straight-curve $-1 -35.849801025466164 3.9179035211401345 8.3340248786059981 0 1 0 I I #
coedge $-1 $754 $486 $489 $658 reversed $643 $-1 #
coedge $-1 $486 $754 $649 $758 forward $643 $-1 #
vertex $-1 $487 $762 #
straight-curve $-1 -40.230719931638539 3.5078901884893803 20.488384665921238 0 0 1 I I #
straight-curve $-1 -40.230719931638546 3.5078901884893803 0.74605047818388215 -0.49999998660252726 0 -0.86602541151947299 I I #
edge $-1 $756 -12.163723896071158 $490 -3.5078901884893803 $653 $763 forward 7 unknown #
point $-1 -40.230719931638539 3.5078901884893803 8.3340248786059981 #
point $-1 -35.849801025466164 3.5078901884893803 8.3340248786059981 #
edge $-1 $764 1 $764 0 $493 $-1 forward 7 unknown #
vertex $-1 $494 $765 #
ellipse-curve $-1 -36.548099778126293 5.2390569300057344 3.6785383271082126 -0.86602541151947299 0 0.49999998660252726 0.24999999330126363 0 0.43301270575973649 1 I I #
point $-1 -37.790260485251089 5.2390569300057344 4.9730503841546758 #
edge $-1 $766 1 $766 0 $497 $-1 forward 7 unknown #
vertex $-1 $498 $767 #
ellipse-curve $-1 -36.548099778126293 7.835807042280269 3.6785383271082126 -0.86602541151947299 0 0.49999998660252726 0.24999999330126363 0 0.43301270575973649 1 I I #
point $-1 -37.790260485251089 7.835807042280269 4.9730503841546758 #
edge $-1 $768 1 $768 0 $501 $-1 forward 7 unknown #
vertex $-1 $502 $769 #
ellipse-curve $-1 -36.548099778126293 10.432557154554804 3.6785383271082126 -0.86602541151947299 0 0.49999998660252726 0.24999999330126363 0 0.43301270575973649 1 I I #
point $-1 -37.790260485251089 10.432557154554804 4.9730503841546758 #
plane-surface $-1 40.230719931638539 0 0 -1 0 0 0 0 1 forward_v I I I I #
coedge $-1 $510 $508 $512 $678 reversed $361 $-1 #
edge $-1 $523 -8.3340248786059981 $680 8.3340248786059981 $522 $770 forward 7 unknown #
vertex $-1 $678 $771 #
straight-curve $-1 -40.230719931638539 -21.573105068356409 0 0 0 -1 I I #
edge $-1 $676 -21.573105068356409 $680 21.573105068356409 $674 $772 forward 7 unknown #
straight-curve $-1 0 -21.573105068356409 -8.3340248786059981 -1 0 0 I I #
vertex $-1 $515 $773 #
straight-curve $-1 0 21.573105068356409 -8.3340248786059981 1 0 0 I I #
point $-1 40.230719931638539 21.573105068356409 -8.3340248786059981 #
point $-1 40.230719931638539 -21.573105068356409 -8.3340248786059981 #
straight-curve $-1 -40.230719931638539 0 8.3340248786059981 0 -1 0 I I #
point $-1 -40.230719931638539 21.573105068356409 8.3340248786059981 #
point $-1 -40.230719931638539 -21.573105068356409 8.3340248786059981 #
straight-curve $-1 40.230719931638539 -21.573105068356409 0 0 0 -1 I I #
straight-curve $-1 40.230719931638539 21.573105068356409 0 0 0 -1 I I #
plane-surface $-1 40.230719931638539 0 0 -1 0 0 0 0 1 forward_v I I I I #
coedge $-1 $536 $535 $546 $701 reversed $237 $-1 #
coedge $-1 $774 $539 $536 $692 forward $533 $-1 #
edge $-1 $693 14.557324691377648 $775 21.573105068356409 $536 $776 forward 7 unknown #
vertex $-1 $692 $777 #
straight-curve $-1 -40.230719931638539 -14.557324691377648 3.1722426586102337 0 0 -1 I I #
coedge $-1 $539 $774 $541 $697 forward $533 $-1 #
straight-curve $-1 0 -14.557324691377648 8.3340248786059981 -1 0 0 I I #
edge $-1 $704 -21.573105068356409 $542 -14.557324691377648 $541 $778 forward 7 unknown #
point $-1 40.230719931638539 -14.557324691377648 8.3340248786059981 #
straight-curve $-1 -40.230719931638539 -9.0326074399335141 4.3549457558349367 0 -1 0 I I #
coedge $-1 $546 $545 $774 $779 reversed $380 $-1 #
edge $-1 $775 -8.3340248786059981 $547 -4.3549457558349367 $690 $780 forward 7 unknown #
point $-1 -40.230719931638539 -21.573105068356409 4.3549457558349367 #
point $-1 -40.230719931638539 -14.557324691377648 4.3549457558349367 #
vertex $-1 $697 $781 #
straight-curve $-1 40.230719931638539 -21.573105068356409 0 0 0 -1 I I #
coedge $-1 $564 $563 $556 $707 forward $554 $-1 #
edge $-1 $714 46.995185571837169 $709 54.583159972259288 $706 $782 forward 7 unknown #
edge $-1 $561 35.849801025466149 $714 40.230719931638539 $560 $783 forward 7 unknown #
vertex $-1 $707 $784 #
straight-curve $-1 1.0779799453075611e-006 -14.55732469137765 70.42770204722774 -0.49999998660252726 0 0.86602541151947299 I I #
edge $-1 $709 -9.4426207725842701 $565 -0.78678706500249174 $564 $785 forward 7 unknown #
point $-1 35.849801025466149 -14.557324691377648 8.3340248786059981 #
point $-1 40.230719931638539 -5.9014909837958722 0.74605047818387504 #
vertex $-1 $568 $786 #
straight-curve $-1 40.230719931638539 0 8.3340248786059981 0 1 0 I I #
vertex $-1 $571 $787 #
point $-1 36.798099771427552 -12.826157949861294 3.2455256213484764 #
vertex $-1 $575 $788 #
point $-1 36.798099771427552 -10.229407837586761 3.2455256213484764 #
vertex $-1 $579 $789 #
point $-1 36.798099771427552 -7.6326577253122281 3.2455256213484764 #
edge $-1 $723 46.995185571837169 $726 54.583159972259288 $584 $790 forward 7 unknown #
vertex $-1 $598 $791 #
straight-curve $-1 34.840826323511905 3.5078901884893803 8.3340248786060016 1 0 0 I I #
edge $-1 $726 -0.41001333265075424 $595 8.2458203749310233 $594 $792 forward 7 unknown #
vertex $-1 $725 $793 #
straight-curve $-1 1.0779799453075611e-006 3.5078901884893803 70.42770204722774 -0.49999998660252726 0 0.86602541151947299 I I #
point $-1 35.849801025466149 3.5078901884893803 8.3340248786060016 #
point $-1 40.230719931638539 12.163723896071158 0.74605047818387504 #
straight-curve $-1 40.230719931638539 0 8.3340248786059981 0 1 0 I I #
vertex $-1 $601 $794 #
point $-1 36.798099771427552 5.2390569300057344 3.2455256213484764 #
vertex $-1 $605 $795 #
point $-1 36.798099771427552 7.835807042280269 3.2455256213484764 #
vertex $-1 $609 $796 #
point $-1 36.798099771427552 10.432557154554804 3.2455256213484764 #
coedge $-1 $615 $741 $617 $739 reversed $452 $-1 #
straight-curve $-1 -40.230719931638539 -5.9014909837958722 20.488384665921238 0 0 -1 I I #
edge $-1 $618 5.9014909837958722 $746 14.557324691377648 $737 $797 forward 7 unknown #
point $-1 -40.230719931638539 -5.9014909837958722 8.3340248786059981 #
coedge $-1 $737 $620 $623 $743 forward $452 $-1 #
straight-curve $-1 -40.230719931638539 -5.1147039187933805 0.74605047818390635 0 -1 0 I I #
edge $-1 $624 -19.742334187737345 $746 -12.15435978731524 $741 $798 forward 7 unknown #
point $-1 -40.230719931638539 -14.55732469137765 0.74605047818389447 #
point $-1 -40.230719931638539 -5.9014909837958722 0.74605047818389447 #
vertex $-1 $743 $799 #
straight-curve $-1 0 -14.557324691377648 8.3340248786059981 1 0 0 I I #
vertex $-1 $631 $800 #
point $-1 -36.298099784825027 -12.826157949861294 4.1115510328679488 #
vertex $-1 $635 $801 #
point $-1 -36.298099784825027 -10.229407837586761 4.1115510328679488 #
vertex $-1 $639 $802 #
point $-1 -36.298099784825027 -7.6326577253122281 4.1115510328679488 #
coedge $-1 $654 $653 $646 $755 forward $643 $-1 #
edge $-1 $756 12.15435978731524 $759 19.742334187737345 $754 $803 forward 7 unknown #
vertex $-1 $658 $804 #
straight-curve $-1 -54.956185750341206 12.163723896071158 8.3340248786059981 -1 0 0 I I #
edge $-1 $759 -8.2458203749310233 $655 0.41001333265075424 $654 $805 forward 7 unknown #
vertex $-1 $758 $806 #
straight-curve $-1 -40.230719931638546 12.163723896071158 0.74605047818388215 0.49999998660252726 0 0.86602541151947299 I I #
point $-1 -35.849801025466164 12.163723896071158 8.3340248786059981 #
point $-1 -40.230719931638539 3.5078901884893803 0.74605047818389447 #
straight-curve $-1 -40.230719931638539 0 8.3340248786059981 0 -1 0 I I #
vertex $-1 $661 $807 #
point $-1 -36.298099784825027 5.2390569300057344 4.1115510328679488 #
vertex $-1 $665 $808 #
point $-1 -36.298099784825027 7.835807042280269 4.1115510328679488 #
vertex $-1 $669 $809 #
point $-1 -36.298099784825027 10.432557154554804 4.1115510328679488 #
straight-curve $-1 -40.230719931638539 21.573105068356409 0 0 0 -1 I I #
point $-1 -40.230719931638539 -21.573105068356409 -8.3340248786059981 #
straight-curve $-1 -40.230719931638539 0 -8.3340248786059981 0 1 0 I I #
point $-1 -40.230719931638539 21.573105068356409 -8.3340248786059981 #
coedge $-1 $695 $691 $700 $779 forward $533 $-1 #
vertex $-1 $692 $810 #
straight-curve $-1 -40.230719931638539 0 8.3340248786059981 0 -1 0 I I #
point $-1 -40.230719931638539 -14.557324691377648 8.3340248786059981 #
straight-curve $-1 40.230719931638539 0 8.3340248786059981 0 1 0 I I #
edge $-1 $775 -40.230719931638539 $704 40.230719931638539 $700 $811 forward 7 unknown #
straight-curve $-1 -40.230719931638539 -21.573105068356409 0 0 0 -1 I I #
point $-1 40.230719931638539 -21.573105068356409 8.3340248786059981 #
straight-curve $-1 40.230719931638539 -14.55732469137765 55.329210450443163 0 0 -1 I I #
straight-curve $-1 0 -14.557324691377648 8.3340248786059981 1 0 0 I I #
point $-1 40.230719931638539 -14.55732469137765 0.74605047818387504 #
straight-curve $-1 40.230719931638539 -5.1147039187933805 0.74605047818386794 0 1 0 I I #
point $-1 40.230719931638539 -14.557324691377648 8.3340248786059981 #
point $-1 36.115087072366549 -12.826157949861294 3.4285383338069493 #
point $-1 36.115087072366549 -10.229407837586761 3.4285383338069493 #
point $-1 36.115087072366549 -7.6326577253122281 3.4285383338069493 #
straight-curve $-1 40.230719931638539 3.5078901884893803 55.329210450443163 0 0 -1 I I #
point $-1 40.230719931638539 3.5078901884893803 8.3340248786059981 #
straight-curve $-1 40.230719931638539 3.9179035211401345 0.74605047818386794 0 1 0 I I #
point $-1 40.230719931638539 3.5078901884893803 0.74605047818387504 #
point $-1 36.115087072366549 5.2390569300057344 3.4285383338069493 #
point $-1 36.115087072366549 7.835807042280269 3.4285383338069493 #
point $-1 36.115087072366549 10.432557154554804 3.4285383338069493 #
straight-curve $-1 -40.230719931638539 0 8.3340248786059981 0 -1 0 I I #
straight-curve $-1 -40.230719931638539 -14.55732469137765 20.488384665921238 0 0 1 I I #
point $-1 -40.230719931638539 -14.557324691377648 8.3340248786059981 #
point $-1 -36.115087072366556 -12.826157949861294 3.4285383338069493 #
point $-1 -36.115087072366556 -10.229407837586761 3.4285383338069493 #
point $-1 -36.115087072366556 -7.6326577253122281 3.4285383338069493 #
straight-curve $-1 -40.230719931638539 12.163723896071158 20.488384665921238 0 0 -1 I I #
point $-1 -40.230719931638539 12.163723896071158 8.3340248786059981 #
straight-curve $-1 -40.230719931638539 3.9179035211401345 0.74605047818390635 0 -1 0 I I #
point $-1 -40.230719931638539 12.163723896071158 0.74605047818389447 #
point $-1 -36.115087072366556 5.2390569300057344 3.4285383338069493 #
point $-1 -36.115087072366556 7.835807042280269 3.4285383338069493 #
point $-1 -36.115087072366556 10.432557154554804 3.4285383338069493 #
point $-1 -40.230719931638539 -21.573105068356409 8.3340248786059981 #
straight-curve $-1 0 -21.573105068356409 8.3340248786059981 1 0 0 I I #
End-of-ACIS-data 