500 0 13 0           
7 Unknown 11 ACIS 5.0 NT 24 Fri Mar 26 14:44:38 1999 
-1 9.9999999999999995e-007 1e-010 
body $-1 $13 $-1 $14 #
body $-1 $15 $-1 $16 #
body $-1 $17 $-1 $18 #
body $-1 $19 $-1 $20 #
body $-1 $21 $-1 $22 #
body $-1 $23 $-1 $24 #
body $-1 $25 $-1 $26 #
body $-1 $27 $-1 $28 #
body $-1 $29 $-1 $30 #
body $-1 $31 $-1 $32 #
body $-1 $33 $-1 $34 #
body $-1 $35 $-1 $36 #
body $-1 $37 $-1 $38 #
lump $-1 $-1 $39 $0 #
transform $-1 1 0 0 0 1 0 0 0 1 69.081698049867242 46.718430009028538 17.565143045815269 1 rotate no_reflect no_shear #
lump $-1 $-1 $40 $1 #
transform $-1 1 0 0 0 1 0 0 0 1 69.081698049867242 46.718430009028538 17.565143045815269 1 rotate no_reflect no_shear #
lump $-1 $-1 $41 $2 #
transform $-1 1 0 0 0 1 0 0 0 1 69.081698049867242 46.718430009028538 17.565143045815269 1 rotate no_reflect no_shear #
lump $-1 $-1 $42 $3 #
transform $-1 1 0 0 0 1 0 0 0 1 69.081698049867242 46.718430009028538 17.565143045815269 1 rotate no_reflect no_shear #
lump $-1 $-1 $43 $4 #
transform $-1 1 0 0 0 1 0 0 0 1 69.081698049867242 46.718430009028538 17.565143045815269 1 rotate no_reflect no_shear #
lump $-1 $-1 $44 $5 #
transform $-1 1 0 0 0 1 0 0 0 1 69.081698049867242 46.718430009028538 17.565143045815269 1 rotate no_reflect no_shear #
lump $-1 $-1 $45 $6 #
transform $-1 1 0 0 0 1 0 0 0 1 69.081698049867242 46.718430009028538 17.565143045815269 1 rotate no_reflect no_shear #
lump $-1 $-1 $46 $7 #
transform $-1 1 0 0 0 1 0 0 0 1 69.081698049867242 46.718430009028538 17.565143045815269 1 rotate no_reflect no_shear #
lump $-1 $-1 $47 $8 #
transform $-1 1 0 0 0 1 0 0 0 1 69.081698049867242 46.718430009028538 17.565143045815269 1 rotate no_reflect no_shear #
lump $-1 $-1 $48 $9 #
transform $-1 1 0 0 0 1 0 0 0 1 69.081698049867242 46.718430009028538 17.565143045815269 1 rotate no_reflect no_shear #
lump $-1 $-1 $49 $10 #
transform $-1 1 0 0 0 1 0 0 0 1 69.081698049867242 46.718430009028538 17.565143045815269 1 rotate no_reflect no_shear #
lump $-1 $-1 $50 $11 #
transform $-1 1 0 0 0 1 0 0 0 1 69.081698049867242 46.718430009028538 17.565143045815269 1 rotate no_reflect no_shear #
lump $-1 $-1 $51 $12 #
transform $-1 1 0 0 0 1 0 0 0 1 69.081698049867242 46.718430009028538 17.565143045815269 1 rotate no_reflect no_shear #
shell $-1 $-1 $-1 $52 $-1 $13 #
shell $-1 $-1 $-1 $53 $-1 $15 #
shell $-1 $-1 $-1 $54 $-1 $17 #
shell $-1 $-1 $-1 $55 $-1 $19 #
shell $-1 $-1 $-1 $56 $-1 $21 #
shell $-1 $-1 $-1 $57 $-1 $23 #
shell $-1 $-1 $-1 $58 $-1 $25 #
shell $-1 $-1 $-1 $59 $-1 $27 #
shell $-1 $-1 $-1 $60 $-1 $29 #
shell $-1 $-1 $-1 $61 $-1 $31 #
shell $-1 $-1 $-1 $62 $-1 $33 #
shell $-1 $-1 $-1 $63 $-1 $35 #
shell $-1 $-1 $-1 $64 $-1 $37 #
face $-1 $65 $66 $39 $-1 $67 reversed single #
face $-1 $68 $69 $40 $-1 $70 forward single #
face $-1 $71 $72 $41 $-1 $73 reversed single #
face $-1 $74 $75 $42 $-1 $76 forward single #
face $-1 $77 $78 $43 $-1 $79 forward single #
face $-1 $80 $81 $44 $-1 $82 reversed single #
face $-1 $83 $84 $45 $-1 $85 forward single #
face $-1 $86 $87 $46 $-1 $88 reversed single #
face $-1 $89 $90 $47 $-1 $91 forward single #
face $-1 $92 $93 $48 $-1 $94 reversed single #
face $-1 $95 $96 $49 $-1 $97 forward single #
face $-1 $98 $99 $50 $-1 $100 reversed single #
face $-1 $101 $102 $51 $-1 $103 forward single #
face $-1 $104 $105 $39 $-1 $106 forward single #
loop $-1 $-1 $107 $52 #
plane-surface $-1 0 -46.718430009028538 0 0 1 0 0 0 1 forward_v I I I I #
face $-1 $108 $109 $40 $-1 $110 reversed single #
loop $-1 $-1 $111 $53 #
plane-surface $-1 0 -46.718430009028538 0 0 1 0 0 0 1 forward_v I I I I #
face $-1 $112 $113 $41 $-1 $114 reversed single #
loop $-1 $-1 $115 $54 #
plane-surface $-1 99.647829548011572 23.91026355335552 205.87585085373757 0 -1 0 -0.80901700255871778 0 -0.5877852410284794 forward_v I I I I #
face $-1 $116 $117 $42 $-1 $118 forward single #
loop $-1 $119 $120 $55 #
cone-surface $-1 66.574507586945799 10.173027393584825 14.639653463457378 -0.80901700255871778 0 -0.5877852410284794 0.5877852410284794 0 -0.80901700255871778 1 I I 0 1 1 forward I I I I #
face $-1 $121 $122 $43 $-1 $123 forward single #
loop $-1 $124 $125 $56 #
cone-surface $-1 66.574507586945799 18.415369089447239 14.639653463457378 -0.80901700255871778 0 -0.5877852410284794 0.5877852410284794 0 -0.80901700255871778 1 I I 0 1 1 forward I I I I #
face $-1 $126 $127 $44 $-1 $128 reversed single #
loop $-1 $-1 $129 $57 #
plane-surface $-1 -142.29714422172776 -23.777024012872154 125.79885275481354 0 1 0 -0.52991927123019833 0 0.84804809178421925 forward_v I I I I #
face $-1 $130 $131 $45 $-1 $132 forward single #
loop $-1 $133 $134 $58 #
cone-surface $-1 -61.273795483546905 -18.262064514844344 12.044355842841059 0.52991927123019833 0 -0.84804809178421925 1.2720721376763289 0 0.79487890684529749 1 I I 0 1 1.5 forward I I I I #
face $-1 $135 $136 $46 $-1 $137 reversed single #
loop $-1 $-1 $138 $59 #
plane-surface $-1 -142.29714422172776 -5.1931483376704826 125.79885275481354 0 1 0 -0.52991927123019833 0 0.84804809178421925 forward_v I I I I #
face $-1 $139 $140 $47 $-1 $141 forward single #
loop $-1 $142 $143 $60 #
cone-surface $-1 -61.273795483546905 0.32181116035732771 12.044355842841059 0.52991927123019833 0 -0.84804809178421925 1.2720721376763289 0 0.79487890684529749 1 I I 0 1 1.5 forward I I I I #
face $-1 $144 $145 $48 $-1 $146 reversed single #
loop $-1 $-1 $147 $61 #
plane-surface $-1 -142.29714422172776 13.390727337531185 125.79885275481354 0 1 0 -0.52991927123019833 0 0.84804809178421925 forward_v I I I I #
face $-1 $148 $149 $49 $-1 $150 forward single #
loop $-1 $151 $152 $62 #
cone-surface $-1 -61.273795483546905 18.905686835558996 12.044355842841059 0.52991927123019833 0 -0.84804809178421925 1.2720721376763289 0 0.79487890684529749 1 I I 0 1 1.5 forward I I I I #
face $-1 $153 $154 $50 $-1 $155 reversed single #
loop $-1 $-1 $156 $63 #
plane-surface $-1 -142.29714422172776 31.974603012732853 125.79885275481354 0 1 0 -0.52991927123019833 0 0.84804809178421925 forward_v I I I I #
face $-1 $157 $158 $51 $-1 $159 forward single #
loop $-1 $160 $161 $64 #
cone-surface $-1 -61.273795483546905 37.489562510760663 12.044355842841059 0.52991927123019833 0 -0.84804809178421925 1.2720721376763289 0 0.79487890684529749 1 I I 0 1 1.5 forward I I I I #
face $-1 $162 $163 $39 $-1 $164 reversed single #
loop $-1 $-1 $165 $65 #
plane-surface $-1 0 0 17.565143045815269 0 0 1 1 0 0 forward_v I I I I #
coedge $-1 $166 $167 $168 $169 reversed $66 $-1 #
face $-1 $170 $171 $40 $-1 $172 reversed single #
loop $-1 $-1 $173 $68 #
plane-surface $-1 0 0 -17.565143045815269 0 0 1 1 0 0 forward_v I I I I #
coedge $-1 $174 $175 $176 $177 forward $69 $-1 #
face $-1 $178 $179 $41 $-1 $180 reversed single #
loop $-1 $-1 $181 $71 #
plane-surface $-1 -12.128707027928456 14.294198241516035 124.66544577594188 0.80901700255871778 0 0.5877852410284794 0.5877852410284794 0 -0.80901700255871778 forward_v I I I I #
coedge $-1 $182 $183 $184 $185 reversed $72 $-1 #
face $-1 $-1 $186 $42 $-1 $187 forward single #
loop $-1 $188 $189 $74 #
cone-surface $-1 65.361549952948081 10.173027393584825 13.758388183491967 -0.80901700255871778 0 -0.5877852410284794 0.2938926205142397 0 -0.40450850127935889 1 I I -0.70710678118654746 0.70710678118654746 0.5 forward I I I I #
loop $-1 $-1 $190 $55 #
coedge $-1 $120 $120 $191 $192 reversed $75 $-1 #
face $-1 $-1 $193 $43 $-1 $194 forward single #
loop $-1 $195 $196 $77 #
cone-surface $-1 65.361549952948081 18.415369089447239 13.758388183491967 -0.80901700255871778 0 -0.5877852410284794 0.2938926205142397 0 -0.40450850127935889 1 I I -0.70710678118654746 0.70710678118654746 0.5 forward I I I I #
loop $-1 $-1 $197 $56 #
coedge $-1 $125 $125 $198 $199 reversed $78 $-1 #
face $-1 $200 $201 $44 $-1 $202 reversed single #
loop $-1 $-1 $203 $80 #
plane-surface $-1 -69.081698049867242 -18.262064514844344 8.6296483380064615 -0.52991927123019833 0 0.84804809178421925 0.84804809178421925 0 0.52991927123019833 forward_v I I I I #
coedge $-1 $204 $205 $206 $207 reversed $81 $-1 #
face $-1 $-1 $208 $45 $-1 $209 forward single #
loop $-1 $210 $211 $83 #
cone-surface $-1 -60.218343690020532 -18.262064514844344 10.355279924933086 0.52991927123019833 0 -0.84804809178421925 0.63603606883816444 0 0.39743945342264875 1 I I -0.70710678118654757 0.70710678118654757 0.75 forward I I I I #
loop $-1 $-1 $212 $58 #
coedge $-1 $134 $134 $213 $214 reversed $84 $-1 #
face $-1 $215 $216 $46 $-1 $217 reversed single #
loop $-1 $-1 $218 $86 #
plane-surface $-1 -69.081698049867242 0.32181116035732771 8.6296483380064615 -0.52991927123019833 0 0.84804809178421925 0.84804809178421925 0 0.52991927123019833 forward_v I I I I #
coedge $-1 $219 $220 $221 $222 reversed $87 $-1 #
face $-1 $-1 $223 $47 $-1 $224 forward single #
loop $-1 $225 $226 $89 #
cone-surface $-1 -60.218343690020532 0.32181116035732771 10.355279924933086 0.52991927123019833 0 -0.84804809178421925 0.63603606883816444 0 0.39743945342264875 1 I I -0.70710678118654757 0.70710678118654757 0.75 forward I I I I #
loop $-1 $-1 $227 $60 #
coedge $-1 $143 $143 $228 $229 reversed $90 $-1 #
face $-1 $230 $231 $48 $-1 $232 reversed single #
loop $-1 $-1 $233 $92 #
plane-surface $-1 -69.081698049867242 18.905686835558996 8.6296483380064615 -0.52991927123019833 0 0.84804809178421925 0.84804809178421925 0 0.52991927123019833 forward_v I I I I #
coedge $-1 $234 $235 $236 $237 reversed $93 $-1 #
face $-1 $-1 $238 $49 $-1 $239 forward single #
loop $-1 $240 $241 $95 #
cone-surface $-1 -60.218343690020532 18.905686835558996 10.355279924933086 0.52991927123019833 0 -0.84804809178421925 0.63603606883816444 0 0.39743945342264875 1 I I -0.70710678118654757 0.70710678118654757 0.75 forward I I I I #
loop $-1 $-1 $242 $62 #
coedge $-1 $152 $152 $243 $244 reversed $96 $-1 #
face $-1 $245 $246 $50 $-1 $247 reversed single #
loop $-1 $-1 $248 $98 #
plane-surface $-1 -69.081698049867242 37.489562510760663 8.6296483380064615 -0.52991927123019833 0 0.84804809178421925 0.84804809178421925 0 0.52991927123019833 forward_v I I I I #
coedge $-1 $249 $250 $251 $252 reversed $99 $-1 #
face $-1 $-1 $253 $51 $-1 $254 forward single #
loop $-1 $255 $256 $101 #
cone-surface $-1 -60.218343690020532 37.489562510760663 10.355279924933086 0.52991927123019833 0 -0.84804809178421925 0.63603606883816444 0 0.39743945342264875 1 I I -0.70710678118654757 0.70710678118654757 0.75 forward I I I I #
loop $-1 $-1 $257 $64 #
coedge $-1 $161 $161 $258 $259 reversed $102 $-1 #
face $-1 $260 $261 $39 $-1 $262 reversed single #
loop $-1 $-1 $263 $104 #
plane-surface $-1 0 0 -17.565143045815269 0 0 1 1 0 0 forward_v I I I I #
coedge $-1 $264 $265 $266 $267 forward $105 $-1 #
coedge $-1 $268 $107 $269 $270 reversed $66 $-1 #
coedge $-1 $107 $268 $271 $272 forward $66 $-1 #
coedge $-1 $273 $263 $107 $169 forward $163 $-1 #
edge $-1 $274 -69.081698049867242 $275 69.081698049867242 $107 $276 forward 7 unknown #
face $-1 $277 $278 $40 $-1 $279 reversed single #
loop $-1 $-1 $280 $108 #
plane-surface $-1 -63.496953755070891 -65.819787326278927 0 0 1 0 0 0 1 forward_v I I I I #
coedge $-1 $281 $282 $175 $283 forward $109 $-1 #
coedge $-1 $284 $111 $285 $286 reversed $69 $-1 #
coedge $-1 $111 $284 $173 $283 reversed $69 $-1 #
coedge $-1 $287 $288 $111 $177 reversed $278 $-1 #
edge $-1 $289 -17.565143045815269 $290 17.565143045815269 $176 $291 forward 7 unknown #
face $-1 $292 $293 $41 $-1 $294 forward single #
loop $-1 $-1 $295 $112 #
plane-surface $-1 99.647829548011572 4.6781329296765506 205.87585085373757 0 1 0 0.80901700255871778 0 0.5877852410284794 forward_v I I I I #
coedge $-1 $296 $297 $298 $299 reversed $113 $-1 #
coedge $-1 $183 $115 $300 $301 reversed $72 $-1 #
coedge $-1 $115 $182 $296 $302 reversed $72 $-1 #
coedge $-1 $298 $303 $115 $185 forward $293 $-1 #
edge $-1 $304 -19.257783275861456 $305 -15.86030061545533 $184 $306 forward 7 unknown #
loop $-1 $-1 $191 $116 #
plane-surface $-1 -12.128707027928456 14.294198241516035 124.66544577594188 0.80901700255871778 0 0.5877852410284794 0.5877852410284794 0 -0.80901700255871778 forward_v I I I I #
loop $-1 $-1 $307 $74 #
coedge $-1 $189 $189 $190 $308 reversed $117 $-1 #
coedge $-1 $190 $190 $189 $308 forward $119 $-1 #
coedge $-1 $191 $191 $120 $192 forward $186 $-1 #
edge $-1 $309 0 $309 6.2831853071796004 $191 $310 forward 7 unknown #
loop $-1 $-1 $198 $121 #
plane-surface $-1 -12.128707027928456 14.294198241516035 124.66544577594188 0.80901700255871778 0 0.5877852410284794 0.5877852410284794 0 -0.80901700255871778 forward_v I I I I #
loop $-1 $-1 $311 $77 #
coedge $-1 $196 $196 $197 $312 reversed $122 $-1 #
coedge $-1 $197 $197 $196 $312 forward $124 $-1 #
coedge $-1 $198 $198 $125 $199 forward $193 $-1 #
edge $-1 $313 0 $313 6.2831853071796004 $198 $314 forward 7 unknown #
face $-1 $315 $316 $44 $-1 $317 reversed single #
loop $-1 $-1 $318 $126 #
plane-surface $-1 -142.29714422172776 -12.747105016816533 125.79885275481354 0 -1 0 0.52991927123019833 0 -0.84804809178421925 forward_v I I I I #
coedge $-1 $319 $320 $321 $322 reversed $127 $-1 #
coedge $-1 $205 $129 $323 $324 reversed $81 $-1 #
coedge $-1 $129 $204 $319 $325 reversed $81 $-1 #
coedge $-1 $321 $326 $129 $207 forward $327 $-1 #
edge $-1 $328 2.0668740609966392 $329 16.366654513429864 $206 $330 forward 7 unknown #
loop $-1 $-1 $213 $130 #
plane-surface $-1 -69.081698049867242 -18.262064514844344 8.6296483380064615 -0.52991927123019833 0 0.84804809178421925 0.84804809178421925 0 0.52991927123019833 forward_v I I I I #
loop $-1 $-1 $331 $83 #
coedge $-1 $211 $211 $212 $332 reversed $131 $-1 #
coedge $-1 $212 $212 $211 $332 forward $133 $-1 #
coedge $-1 $213 $213 $134 $214 forward $208 $-1 #
edge $-1 $333 0 $333 6.2831853071796004 $213 $334 forward 7 unknown #
face $-1 $335 $336 $46 $-1 $337 forward single #
loop $-1 $-1 $338 $135 #
plane-surface $-1 -142.29714422172776 5.836770658385138 125.79885275481354 0 -1 0 0.52991927123019833 0 -0.84804809178421925 forward_v I I I I #
coedge $-1 $339 $340 $341 $342 reversed $136 $-1 #
coedge $-1 $220 $138 $343 $344 reversed $87 $-1 #
coedge $-1 $138 $219 $339 $345 reversed $87 $-1 #
coedge $-1 $341 $346 $138 $222 forward $336 $-1 #
edge $-1 $347 2.0668740609966392 $348 16.366654513429864 $221 $349 forward 7 unknown #
loop $-1 $-1 $228 $139 #
plane-surface $-1 -69.081698049867242 0.32181116035732771 8.6296483380064615 -0.52991927123019833 0 0.84804809178421925 0.84804809178421925 0 0.52991927123019833 forward_v I I I I #
loop $-1 $-1 $350 $89 #
coedge $-1 $226 $226 $227 $351 reversed $140 $-1 #
coedge $-1 $227 $227 $226 $351 forward $142 $-1 #
coedge $-1 $228 $228 $143 $229 forward $223 $-1 #
edge $-1 $352 0 $352 6.2831853071796004 $228 $353 forward 7 unknown #
face $-1 $354 $355 $48 $-1 $356 forward single #
loop $-1 $-1 $357 $144 #
plane-surface $-1 -142.29714422172776 24.420646333586806 125.79885275481354 0 -1 0 0.52991927123019833 0 -0.84804809178421925 forward_v I I I I #
coedge $-1 $358 $359 $360 $361 reversed $145 $-1 #
coedge $-1 $235 $147 $362 $363 reversed $93 $-1 #
coedge $-1 $147 $234 $358 $364 reversed $93 $-1 #
coedge $-1 $360 $365 $147 $237 forward $355 $-1 #
edge $-1 $366 2.0668740609966392 $367 16.366654513429864 $236 $368 forward 7 unknown #
loop $-1 $-1 $243 $148 #
plane-surface $-1 -69.081698049867242 18.905686835558996 8.6296483380064615 -0.52991927123019833 0 0.84804809178421925 0.84804809178421925 0 0.52991927123019833 forward_v I I I I #
loop $-1 $-1 $369 $95 #
coedge $-1 $241 $241 $242 $370 reversed $149 $-1 #
coedge $-1 $242 $242 $241 $370 forward $151 $-1 #
coedge $-1 $243 $243 $152 $244 forward $238 $-1 #
edge $-1 $371 0 $371 6.2831853071796004 $243 $372 forward 7 unknown #
face $-1 $373 $374 $50 $-1 $375 forward single #
loop $-1 $-1 $376 $153 #
plane-surface $-1 -142.29714422172776 43.00452200878847 125.79885275481354 0 -1 0 0.52991927123019833 0 -0.84804809178421925 forward_v I I I I #
coedge $-1 $377 $378 $379 $380 reversed $154 $-1 #
coedge $-1 $250 $156 $381 $382 reversed $99 $-1 #
coedge $-1 $156 $249 $377 $383 reversed $99 $-1 #
coedge $-1 $379 $384 $156 $252 forward $374 $-1 #
edge $-1 $385 2.0668740609966392 $386 16.366654513429864 $251 $387 forward 7 unknown #
loop $-1 $-1 $258 $157 #
plane-surface $-1 -69.081698049867242 37.489562510760663 8.6296483380064615 -0.52991927123019833 0 0.84804809178421925 0.84804809178421925 0 0.52991927123019833 forward_v I I I I #
loop $-1 $-1 $388 $101 #
coedge $-1 $256 $256 $257 $389 reversed $158 $-1 #
coedge $-1 $257 $257 $256 $389 forward $160 $-1 #
coedge $-1 $258 $258 $161 $259 forward $253 $-1 #
edge $-1 $390 0 $390 6.2831853071796004 $258 $391 forward 7 unknown #
face $-1 $392 $393 $39 $-1 $394 reversed single #
loop $-1 $-1 $395 $162 #
plane-surface $-1 -69.081698049867242 0 0 1 0 0 0 0 -1 forward_v I I I I #
coedge $-1 $168 $396 $397 $398 forward $163 $-1 #
coedge $-1 $399 $165 $400 $401 forward $105 $-1 #
coedge $-1 $165 $399 $268 $402 forward $105 $-1 #
coedge $-1 $269 $403 $165 $267 reversed $404 $-1 #
edge $-1 $405 -46.718430009028538 $406 46.718430009028538 $266 $407 forward 7 unknown #
coedge $-1 $167 $166 $265 $402 reversed $66 $-1 #
coedge $-1 $397 $266 $166 $270 forward $404 $-1 #
edge $-1 $405 -17.565143045815269 $274 17.565143045815269 $269 $408 forward 7 unknown #
coedge $-1 $409 $410 $167 $272 reversed $261 $-1 #
edge $-1 $411 -17.565143045815269 $275 17.565143045815269 $271 $412 forward 7 unknown #
coedge $-1 $396 $168 $410 $413 forward $163 $-1 #
vertex $-1 $270 $414 #
vertex $-1 $413 $415 #
straight-curve $-1 0 -46.718430009028538 -17.565143045815269 -1 0 0 I I #
face $-1 $416 $417 $40 $-1 $418 reversed single #
loop $-1 $-1 $176 $170 #
plane-surface $-1 -66.477940844626673 -56.269108667653732 0 1 0 0 0 0 -1 forward_v I I I I #
coedge $-1 $419 $420 $421 $422 forward $171 $-1 #
coedge $-1 $423 $173 $424 $425 forward $109 $-1 #
coedge $-1 $173 $423 $287 $426 forward $109 $-1 #
edge $-1 $289 -66.477940844626673 $427 -60.515966665515116 $173 $428 forward 7 unknown #
coedge $-1 $175 $174 $429 $430 forward $69 $-1 #
coedge $-1 $431 $432 $174 $286 forward $433 $-1 #
edge $-1 $434 60.515966665515116 $290 66.477940844626673 $285 $435 forward 7 unknown #
coedge $-1 $421 $176 $282 $426 reversed $278 $-1 #
coedge $-1 $176 $421 $431 $436 reversed $278 $-1 #
vertex $-1 $283 $437 #
vertex $-1 $436 $438 #
straight-curve $-1 -66.477940844626673 -46.718430009028538 0 0 0 1 I I #
face $-1 $-1 $439 $41 $-1 $440 reversed single #
loop $-1 $-1 $184 $178 #
plane-surface $-1 0 0 17.565143045815269 0 0 1 1 0 0 forward_v I I I I #
coedge $-1 $441 $442 $443 $444 reversed $179 $-1 #
coedge $-1 $445 $181 $183 $302 forward $113 $-1 #
coedge $-1 $181 $445 $441 $446 forward $113 $-1 #
coedge $-1 $443 $184 $181 $299 forward $293 $-1 #
edge $-1 $305 -16.763164432597502 $447 2.4689661910814671 $298 $448 forward 7 unknown #
coedge $-1 $449 $450 $182 $301 forward $439 $-1 #
edge $-1 $451 -90.049016226866939 $304 -85.372782381053526 $300 $452 forward 7 unknown #
edge $-1 $305 132.38325324609397 $451 138.16339609973448 $183 $453 forward 7 unknown #
coedge $-1 $184 $443 $449 $454 forward $293 $-1 #
vertex $-1 $185 $455 #
vertex $-1 $185 $456 #
straight-curve $-1 49.823914774005786 23.91026355335552 17.565143045815262 -1 0 0 I I #
coedge $-1 $307 $307 $-1 $457 reversed $188 $-1 #
edge $-1 $458 0 $458 6.2831853071796004 $189 $459 forward 7 unknown #
vertex $-1 $192 $460 #
ellipse-curve $-1 67.382956719664193 10.173027393584825 15.227026122908565 0.80901700255871778 0 0.5877852410284794 0.5877852410284794 0 -0.80901700255871778 1 I I #
coedge $-1 $311 $311 $-1 $461 reversed $195 $-1 #
edge $-1 $462 0 $462 6.2831853071796004 $196 $463 forward 7 unknown #
vertex $-1 $199 $464 #
ellipse-curve $-1 67.382956719664193 18.415369089447239 15.227026122908565 0.80901700255871778 0 0.5877852410284794 0.5877852410284794 0 -0.80901700255871778 1 I I #
face $-1 $-1 $327 $44 $-1 $465 forward single #
loop $-1 $-1 $466 $200 #
plane-surface $-1 -69.081698049867242 0 0 1 0 0 0 0 -1 forward_v I I I I #
coedge $-1 $467 $468 $469 $470 reversed $201 $-1 #
coedge $-1 $471 $203 $205 $325 forward $127 $-1 #
coedge $-1 $203 $471 $467 $472 forward $127 $-1 #
coedge $-1 $469 $206 $203 $322 forward $327 $-1 #
edge $-1 $329 -14.645991755449982 $473 -3.6160727593943616 $321 $474 forward 7 unknown #
coedge $-1 $475 $476 $204 $324 forward $316 $-1 #
edge $-1 $477 -54.269778039400308 $328 -45.3342833315915 $323 $478 forward 7 unknown #
edge $-1 $329 -16.861992369262612 $477 0 $205 $479 forward 7 unknown #
coedge $-1 $206 $469 $475 $480 forward $327 $-1 #
loop $-1 $-1 $469 $315 #
vertex $-1 $324 $481 #
vertex $-1 $207 $482 #
straight-curve $-1 -71.148572110863881 -23.777024012872154 17.565143045815269 1 0 0 I I #
coedge $-1 $331 $331 $-1 $483 reversed $210 $-1 #
edge $-1 $484 0 $484 6.2831853071796004 $211 $485 forward 7 unknown #
vertex $-1 $214 $486 #
ellipse-curve $-1 -61.93180782365063 -18.262064514844344 13.097395691910867 -0.52991927123019833 0 0.84804809178421925 1.2720721376763289 0 0.79487890684529749 1 I I #
face $-1 $-1 $487 $46 $-1 $488 reversed single #
loop $-1 $-1 $221 $215 #
plane-surface $-1 0 0 17.565143045815269 0 0 1 1 0 0 forward_v I I I I #
coedge $-1 $489 $490 $491 $492 reversed $216 $-1 #
coedge $-1 $493 $218 $220 $345 forward $136 $-1 #
coedge $-1 $218 $493 $489 $494 forward $136 $-1 #
coedge $-1 $491 $221 $218 $342 forward $336 $-1 #
edge $-1 $348 -5.3540539178491464 $495 5.6758650782064741 $341 $496 forward 7 unknown #
coedge $-1 $497 $498 $219 $344 forward $487 $-1 #
edge $-1 $499 -54.269778039400308 $347 -45.3342833315915 $343 $500 forward 7 unknown #
edge $-1 $348 -16.861992369262612 $499 0 $220 $501 forward 7 unknown #
coedge $-1 $221 $491 $497 $502 forward $336 $-1 #
vertex $-1 $344 $503 #
vertex $-1 $222 $504 #
straight-curve $-1 -71.148572110863881 -5.1931483376704826 17.565143045815269 1 0 0 I I #
coedge $-1 $350 $350 $-1 $505 reversed $225 $-1 #
edge $-1 $506 0 $506 6.2831853071796004 $226 $507 forward 7 unknown #
vertex $-1 $229 $508 #
ellipse-curve $-1 -61.93180782365063 0.32181116035732771 13.097395691910867 -0.52991927123019833 0 0.84804809178421925 1.2720721376763289 0 0.79487890684529749 1 I I #
face $-1 $-1 $509 $48 $-1 $510 reversed single #
loop $-1 $-1 $236 $230 #
plane-surface $-1 0 0 17.565143045815269 0 0 1 1 0 0 forward_v I I I I #
coedge $-1 $511 $512 $513 $514 reversed $231 $-1 #
coedge $-1 $515 $233 $235 $364 forward $145 $-1 #
coedge $-1 $233 $515 $511 $516 forward $145 $-1 #
coedge $-1 $513 $236 $233 $361 forward $355 $-1 #
edge $-1 $367 3.9378839197516875 $517 14.967802915807308 $360 $518 forward 7 unknown #
coedge $-1 $519 $520 $234 $363 forward $509 $-1 #
edge $-1 $521 -54.269778039400308 $366 -45.3342833315915 $362 $522 forward 7 unknown #
edge $-1 $367 -16.861992369262612 $521 0 $235 $523 forward 7 unknown #
coedge $-1 $236 $513 $519 $524 forward $355 $-1 #
vertex $-1 $237 $525 #
vertex $-1 $237 $526 #
straight-curve $-1 -71.148572110863881 13.390727337531185 17.565143045815269 1 0 0 I I #
coedge $-1 $369 $369 $-1 $527 reversed $240 $-1 #
edge $-1 $528 0 $528 6.2831853071796004 $241 $529 forward 7 unknown #
vertex $-1 $244 $530 #
ellipse-curve $-1 -61.93180782365063 18.905686835558996 13.097395691910867 -0.52991927123019833 0 0.84804809178421925 1.2720721376763289 0 0.79487890684529749 1 I I #
face $-1 $-1 $531 $50 $-1 $532 reversed single #
loop $-1 $-1 $251 $245 #
plane-surface $-1 0 0 17.565143045815269 0 0 1 1 0 0 forward_v I I I I #
coedge $-1 $533 $534 $535 $536 reversed $246 $-1 #
coedge $-1 $537 $248 $250 $383 forward $154 $-1 #
coedge $-1 $248 $537 $533 $538 forward $154 $-1 #
coedge $-1 $535 $251 $248 $380 forward $374 $-1 #
edge $-1 $386 13.229821757352521 $539 24.259740753408138 $379 $540 forward 7 unknown #
coedge $-1 $541 $542 $249 $382 forward $531 $-1 #
edge $-1 $543 -54.269778039400308 $385 -45.3342833315915 $381 $544 forward 7 unknown #
edge $-1 $386 -16.861992369262612 $543 0 $250 $545 forward 7 unknown #
coedge $-1 $251 $535 $541 $546 forward $374 $-1 #
vertex $-1 $252 $547 #
vertex $-1 $252 $548 #
straight-curve $-1 -71.148572110863881 31.974603012732853 17.565143045815269 1 0 0 I I #
coedge $-1 $388 $388 $-1 $549 reversed $255 $-1 #
edge $-1 $550 0 $550 6.2831853071796004 $256 $551 forward 7 unknown #
vertex $-1 $259 $552 #
ellipse-curve $-1 -61.93180782365063 37.489562510760663 13.097395691910867 -0.52991927123019833 0 0.84804809178421925 1.2720721376763289 0 0.79487890684529749 1 I I #
face $-1 $-1 $404 $39 $-1 $553 reversed single #
loop $-1 $-1 $554 $260 #
plane-surface $-1 0 46.718430009028538 0 0 -1 0 0 0 -1 forward_v I I I I #
coedge $-1 $410 $409 $555 $556 forward $261 $-1 #
coedge $-1 $263 $273 $557 $558 forward $163 $-1 #
coedge $-1 $403 $269 $263 $398 reversed $404 $-1 #
edge $-1 $559 -46.718430009028538 $274 46.718430009028538 $397 $560 forward 7 unknown #
coedge $-1 $265 $264 $409 $561 forward $105 $-1 #
coedge $-1 $554 $555 $264 $401 reversed $393 $-1 #
edge $-1 $406 -69.081698049867242 $562 69.081698049867242 $400 $563 forward 7 unknown #
edge $-1 $411 -69.081698049867242 $405 69.081698049867242 $268 $564 forward 7 unknown #
coedge $-1 $266 $397 $554 $565 reversed $404 $-1 #
loop $-1 $-1 $269 $392 #
vertex $-1 $267 $566 #
vertex $-1 $267 $567 #
straight-curve $-1 69.081698049867242 0 17.565143045815269 0 1 0 I I #
straight-curve $-1 69.081698049867242 -46.718430009028538 0 0 0 -1 I I #
coedge $-1 $395 $271 $399 $561 reversed $261 $-1 #
coedge $-1 $271 $395 $273 $413 reversed $261 $-1 #
vertex $-1 $561 $568 #
straight-curve $-1 -69.081698049867242 -46.718430009028538 0 0 0 -1 I I #
edge $-1 $275 -46.718430009028538 $569 46.718430009028538 $410 $570 forward 7 unknown #
point $-1 69.081698049867242 -46.718430009028538 -17.565143045815269 #
point $-1 -69.081698049867242 -46.718430009028538 -17.565143045815269 #
face $-1 $-1 $433 $40 $-1 $571 forward single #
loop $-1 $-1 $572 $277 #
plane-surface $-1 -60.515966665515116 -56.269108667653732 0 -1 0 0 0 0 1 forward_v I I I I #
coedge $-1 $573 $280 $423 $574 reversed $171 $-1 #
coedge $-1 $280 $573 $575 $576 reversed $171 $-1 #
coedge $-1 $288 $287 $280 $422 reversed $278 $-1 #
edge $-1 $577 -17.565143045815269 $578 17.565143045815269 $421 $579 forward 7 unknown #
coedge $-1 $282 $281 $419 $574 forward $109 $-1 #
coedge $-1 $429 $572 $281 $425 reversed $417 $-1 #
edge $-1 $427 -9.5506786586251948 $580 9.5506786586251948 $424 $581 forward 7 unknown #
edge $-1 $578 -9.5506786586251948 $289 9.5506786586251948 $287 $582 forward 7 unknown #
vertex $-1 $425 $583 #
straight-curve $-1 0 -46.718430009028538 -17.565143045815269 1 0 0 I I #
coedge $-1 $584 $424 $284 $430 reversed $417 $-1 #
edge $-1 $434 -17.565143045815269 $427 17.565143045815269 $429 $585 forward 7 unknown #
coedge $-1 $575 $285 $288 $436 forward $433 $-1 #
coedge $-1 $285 $575 $584 $586 forward $433 $-1 #
loop $-1 $-1 $285 $416 #
vertex $-1 $286 $587 #
straight-curve $-1 0 -46.718430009028538 17.565143045815269 -1 0 0 I I #
edge $-1 $290 -9.5506786586251948 $577 9.5506786586251948 $288 $588 forward 7 unknown #
point $-1 -66.477940844626673 -46.718430009028538 -17.565143045815269 #
point $-1 -66.477940844626673 -46.718430009028538 17.565143045815269 #
loop $-1 $-1 $300 $292 #
plane-surface $-1 69.081698049867242 0 0 -1 0 0 0 0 1 forward_v I I I I #
coedge $-1 $442 $295 $297 $446 reversed $179 $-1 #
coedge $-1 $295 $441 $589 $590 reversed $179 $-1 #
coedge $-1 $303 $298 $295 $444 forward $293 $-1 #
edge $-1 $447 15.86030061545533 $591 19.257783275861456 $443 $592 forward 7 unknown #
coedge $-1 $297 $296 $450 $593 reversed $113 $-1 #
edge $-1 $594 -138.16339609973448 $447 -132.38325324609397 $441 $595 forward 7 unknown #
vertex $-1 $299 $596 #
straight-curve $-1 65.684215389461116 7.1470991207580177 17.565143045815276 0 -1 0 I I #
coedge $-1 $589 $300 $303 $454 reversed $439 $-1 #
coedge $-1 $300 $589 $445 $593 forward $439 $-1 #
vertex $-1 $301 $597 #
straight-curve $-1 69.081698049867242 23.91026355335552 102.93792542686879 0 0 1 I I #
straight-curve $-1 -12.128707027928456 23.91026355335552 124.66544577594188 0.5877852410284794 0 -0.80901700255871778 I I #
edge $-1 $591 4.6781329296765506 $304 23.91026355335552 $449 $598 forward 7 unknown #
point $-1 69.081698049867242 23.91026355335552 17.565143045815269 #
point $-1 65.684215389461116 23.91026355335552 17.56514304581529 #
edge $-1 $599 1 $599 0 $307 $-1 forward 7 unknown #
vertex $-1 $308 $600 #
ellipse-curve $-1 65.766058454227434 10.173027393584825 14.052280804006207 0.80901700255871778 0 0.5877852410284794 0.5877852410284794 0 -0.80901700255871778 1 I I #
point $-1 67.970741960692649 10.173027393584825 14.418009120349831 #
edge $-1 $601 1 $601 0 $311 $-1 forward 7 unknown #
vertex $-1 $312 $602 #
ellipse-curve $-1 65.766058454227434 18.415369089447239 14.052280804006207 0.80901700255871778 0 0.5877852410284794 0.5877852410284794 0 -0.80901700255871778 1 I I #
point $-1 67.970741960692649 18.415369089447239 14.418009120349831 #
plane-surface $-1 0 0 17.565143045815269 0 0 1 1 0 0 forward_v I I I I #
coedge $-1 $476 $475 $468 $603 forward $316 $-1 #
coedge $-1 $468 $318 $320 $472 reversed $201 $-1 #
coedge $-1 $318 $467 $466 $603 reversed $201 $-1 #
coedge $-1 $326 $321 $318 $470 forward $327 $-1 #
edge $-1 $473 -16.366654513429864 $604 -2.0668740609966392 $469 $605 forward 7 unknown #
coedge $-1 $320 $319 $476 $606 reversed $127 $-1 #
edge $-1 $607 0 $473 16.861992369262612 $467 $608 forward 7 unknown #
vertex $-1 $322 $609 #
straight-curve $-1 -54.781917597434017 -9.1310322574221718 17.565143045815269 0 1 0 I I #
coedge $-1 $466 $323 $326 $480 reversed $316 $-1 #
coedge $-1 $323 $466 $471 $606 forward $316 $-1 #
vertex $-1 $324 $610 #
straight-curve $-1 -69.081698049867242 -23.777024012872154 62.899426377406769 0 0 1 I I #
straight-curve $-1 -69.081698049867242 -23.777024012872154 8.6296483380064615 -0.84804809178421925 0 -0.52991927123019833 I I #
edge $-1 $604 12.747105016816533 $328 23.777024012872154 $475 $611 forward 7 unknown #
point $-1 -69.081698049867242 -23.777024012872154 17.565143045815269 #
point $-1 -54.781917597434017 -23.777024012872154 17.565143045815269 #
edge $-1 $612 1 $612 0 $331 $-1 forward 7 unknown #
vertex $-1 $332 $613 #
ellipse-curve $-1 -60.615783143443181 -18.262064514844344 10.99131599377125 -0.52991927123019833 0 0.84804809178421925 1.2720721376763289 0 0.79487890684529749 1 I I #
point $-1 -60.659735685974297 -18.262064514844344 13.892274598756167 #
loop $-1 $-1 $343 $335 #
plane-surface $-1 -69.081698049867242 0 0 1 0 0 0 0 -1 forward_v I I I I #
coedge $-1 $490 $338 $340 $494 reversed $216 $-1 #
coedge $-1 $338 $489 $614 $615 reversed $216 $-1 #
coedge $-1 $346 $341 $338 $492 forward $336 $-1 #
edge $-1 $495 -16.366654513429864 $616 -2.0668740609966392 $491 $617 forward 7 unknown #
coedge $-1 $340 $339 $498 $618 reversed $136 $-1 #
edge $-1 $619 0 $495 16.861992369262612 $489 $620 forward 7 unknown #
vertex $-1 $342 $621 #
straight-curve $-1 -54.781917597434017 0.16090558017866385 17.565143045815269 0 1 0 I I #
coedge $-1 $614 $343 $346 $502 reversed $487 $-1 #
coedge $-1 $343 $614 $493 $618 forward $487 $-1 #
vertex $-1 $344 $622 #
straight-curve $-1 -69.081698049867242 -5.1931483376704826 62.899426377406769 0 0 1 I I #
straight-curve $-1 -69.081698049867242 -5.1931483376704826 8.6296483380064615 -0.84804809178421925 0 -0.52991927123019833 I I #
edge $-1 $616 -5.836770658385138 $347 5.1931483376704826 $497 $623 forward 7 unknown #
point $-1 -69.081698049867242 -5.1931483376704826 17.565143045815269 #
point $-1 -54.781917597434017 -5.1931483376704826 17.565143045815269 #
edge $-1 $624 1 $624 0 $350 $-1 forward 7 unknown #
vertex $-1 $351 $625 #
ellipse-curve $-1 -60.615783143443181 0.32181116035732771 10.99131599377125 -0.52991927123019833 0 0.84804809178421925 1.2720721376763289 0 0.79487890684529749 1 I I #
point $-1 -60.659735685974297 0.32181116035732771 13.892274598756167 #
loop $-1 $-1 $362 $354 #
plane-surface $-1 -69.081698049867242 0 0 1 0 0 0 0 -1 forward_v I I I I #
coedge $-1 $512 $357 $359 $516 reversed $231 $-1 #
coedge $-1 $357 $511 $626 $627 reversed $231 $-1 #
coedge $-1 $365 $360 $357 $514 forward $355 $-1 #
edge $-1 $517 -16.366654513429864 $628 -2.0668740609966392 $513 $629 forward 7 unknown #
coedge $-1 $359 $358 $520 $630 reversed $145 $-1 #
edge $-1 $631 0 $517 16.861992369262612 $511 $632 forward 7 unknown #
vertex $-1 $361 $633 #
straight-curve $-1 -54.781917597434017 9.4528434177794978 17.565143045815269 0 1 0 I I #
coedge $-1 $626 $362 $365 $524 reversed $509 $-1 #
coedge $-1 $362 $626 $515 $630 forward $509 $-1 #
vertex $-1 $363 $634 #
straight-curve $-1 -69.081698049867242 13.390727337531185 62.899426377406769 0 0 1 I I #
straight-curve $-1 -69.081698049867242 13.390727337531185 8.6296483380064615 -0.84804809178421925 0 -0.52991927123019833 I I #
edge $-1 $628 -24.420646333586806 $366 -13.390727337531185 $519 $635 forward 7 unknown #
point $-1 -69.081698049867242 13.390727337531185 17.565143045815269 #
point $-1 -54.781917597434017 13.390727337531185 17.565143045815269 #
edge $-1 $636 1 $636 0 $369 $-1 forward 7 unknown #
vertex $-1 $370 $637 #
ellipse-curve $-1 -60.615783143443181 18.905686835558996 10.99131599377125 -0.52991927123019833 0 0.84804809178421925 1.2720721376763289 0 0.79487890684529749 1 I I #
point $-1 -60.659735685974297 18.905686835558996 13.892274598756167 #
loop $-1 $-1 $381 $373 #
plane-surface $-1 -69.081698049867242 0 0 1 0 0 0 0 -1 forward_v I I I I #
coedge $-1 $534 $376 $378 $538 reversed $246 $-1 #
coedge $-1 $376 $533 $638 $639 reversed $246 $-1 #
coedge $-1 $384 $379 $376 $536 forward $374 $-1 #
edge $-1 $539 -16.366654513429864 $640 -2.0668740609966392 $535 $641 forward 7 unknown #
coedge $-1 $378 $377 $542 $642 reversed $154 $-1 #
edge $-1 $643 0 $539 16.861992369262612 $533 $644 forward 7 unknown #
vertex $-1 $380 $645 #
straight-curve $-1 -54.781917597434017 18.744781255380332 17.565143045815269 0 1 0 I I #
coedge $-1 $638 $381 $384 $546 reversed $531 $-1 #
coedge $-1 $381 $638 $537 $642 forward $531 $-1 #
vertex $-1 $382 $646 #
straight-curve $-1 -69.081698049867242 31.974603012732853 62.899426377406769 0 0 1 I I #
straight-curve $-1 -69.081698049867242 31.974603012732853 8.6296483380064615 -0.84804809178421925 0 -0.52991927123019833 I I #
edge $-1 $640 -43.00452200878847 $385 -31.974603012732853 $541 $647 forward 7 unknown #
point $-1 -69.081698049867242 31.974603012732853 17.565143045815269 #
point $-1 -54.781917597434017 31.974603012732853 17.565143045815269 #
edge $-1 $648 1 $648 0 $388 $-1 forward 7 unknown #
vertex $-1 $389 $649 #
ellipse-curve $-1 -60.615783143443181 37.489562510760663 10.99131599377125 -0.52991927123019833 0 0.84804809178421925 1.2720721376763289 0 0.79487890684529749 1 I I #
point $-1 -60.659735685974297 37.489562510760663 13.892274598756167 #
plane-surface $-1 69.081698049867242 0 0 -1 0 0 0 0 1 forward_v I I I I #
coedge $-1 $557 $400 $403 $565 forward $393 $-1 #
coedge $-1 $400 $557 $395 $556 reversed $393 $-1 #
edge $-1 $562 -17.565143045815269 $569 17.565143045815269 $555 $650 forward 7 unknown #
coedge $-1 $555 $554 $396 $558 reversed $393 $-1 #
edge $-1 $569 -69.081698049867242 $559 69.081698049867242 $557 $651 forward 7 unknown #
vertex $-1 $398 $652 #
straight-curve $-1 69.081698049867242 0 -17.565143045815269 0 -1 0 I I #
edge $-1 $562 -46.718430009028538 $411 46.718430009028538 $409 $653 forward 7 unknown #
vertex $-1 $401 $654 #
straight-curve $-1 0 46.718430009028538 17.565143045815269 -1 0 0 I I #
straight-curve $-1 0 -46.718430009028538 17.565143045815269 1 0 0 I I #
edge $-1 $406 -17.565143045815269 $559 17.565143045815269 $403 $655 forward 7 unknown #
point $-1 69.081698049867242 -46.718430009028538 17.565143045815269 #
point $-1 69.081698049867242 46.718430009028538 17.565143045815269 #
point $-1 -69.081698049867242 -46.718430009028538 17.565143045815269 #
vertex $-1 $558 $656 #
straight-curve $-1 -69.081698049867242 0 -17.565143045815269 0 1 0 I I #
plane-surface $-1 0 0 17.565143045815269 0 0 1 1 0 0 forward_v I I I I #
coedge $-1 $424 $584 $573 $657 forward $417 $-1 #
coedge $-1 $420 $419 $572 $657 reversed $171 $-1 #
edge $-1 $580 -2.9809870895557751 $578 2.9809870895557822 $419 $658 forward 7 unknown #
coedge $-1 $432 $431 $420 $576 forward $433 $-1 #
edge $-1 $577 -2.9809870895557822 $659 2.9809870895557751 $420 $660 forward 7 unknown #
vertex $-1 $436 $661 #
vertex $-1 $426 $662 #
straight-curve $-1 -66.477940844626673 -65.819787326278927 0 0 0 -1 I I #
vertex $-1 $657 $663 #
straight-curve $-1 -60.515966665515116 -56.269108667653732 -17.565143045815269 0 -1 0 I I #
straight-curve $-1 -66.477940844626673 -56.269108667653732 -17.565143045815269 0 1 0 I I #
point $-1 -60.515966665515116 -46.718430009028538 -17.565143045815269 #
coedge $-1 $572 $429 $432 $586 reversed $417 $-1 #
straight-curve $-1 -60.515966665515116 -46.718430009028538 0 0 0 -1 I I #
edge $-1 $659 -9.5506786586251948 $434 9.5506786586251948 $584 $664 forward 7 unknown #
point $-1 -60.515966665515116 -46.718430009028538 17.565143045815269 #
straight-curve $-1 -66.477940844626673 -56.269108667653732 17.565143045815269 0 -1 0 I I #
coedge $-1 $450 $449 $442 $590 forward $439 $-1 #
edge $-1 $591 85.372782381053526 $594 90.049016226866939 $589 $665 forward 7 unknown #
vertex $-1 $454 $666 #
straight-curve $-1 49.823914774005786 4.6781329296765506 17.565143045815262 1 0 0 I I #
edge $-1 $594 -2.4689661910814671 $451 16.763164432597502 $450 $667 forward 7 unknown #
vertex $-1 $593 $668 #
straight-curve $-1 -12.128707027928456 4.6781329296765506 124.66544577594188 -0.5877852410284794 0 0.80901700255871778 I I #
point $-1 65.684215389461116 4.6781329296765506 17.56514304581529 #
point $-1 69.081698049867242 23.91026355335552 12.888909200001848 #
straight-curve $-1 69.081698049867242 0 17.565143045815269 0 1 0 I I #
vertex $-1 $457 $669 #
point $-1 66.353843695255918 10.173027393584825 13.243263801447489 #
vertex $-1 $461 $670 #
point $-1 66.353843695255918 18.415369089447239 13.243263801447489 #
edge $-1 $604 45.3342833315915 $607 54.269778039400308 $466 $671 forward 7 unknown #
vertex $-1 $480 $672 #
straight-curve $-1 -71.148572110863881 -12.747105016816533 17.565143045815269 -1 0 0 I I #
edge $-1 $607 3.6160727593943616 $477 14.645991755449982 $476 $673 forward 7 unknown #
vertex $-1 $606 $674 #
straight-curve $-1 -69.081698049867242 -12.747105016816533 8.6296483380064615 0.84804809178421925 0 0.52991927123019833 I I #
point $-1 -54.781917597434017 -12.747105016816533 17.565143045815269 #
point $-1 -69.081698049867242 -23.777024012872154 8.6296483380064615 #
straight-curve $-1 -69.081698049867242 0 17.565143045815269 0 -1 0 I I #
vertex $-1 $483 $675 #
point $-1 -59.343711005766849 -18.262064514844344 11.786194900616549 #
coedge $-1 $498 $497 $490 $615 forward $487 $-1 #
edge $-1 $616 45.3342833315915 $619 54.269778039400308 $614 $676 forward 7 unknown #
vertex $-1 $502 $677 #
straight-curve $-1 -71.148572110863881 5.836770658385138 17.565143045815269 -1 0 0 I I #
edge $-1 $619 -5.6758650782064741 $499 5.3540539178491464 $498 $678 forward 7 unknown #
vertex $-1 $618 $679 #
straight-curve $-1 -69.081698049867242 5.836770658385138 8.6296483380064615 0.84804809178421925 0 0.52991927123019833 I I #
point $-1 -54.781917597434017 5.836770658385138 17.565143045815269 #
point $-1 -69.081698049867242 -5.1931483376704826 8.6296483380064615 #
straight-curve $-1 -69.081698049867242 0 17.565143045815269 0 -1 0 I I #
vertex $-1 $505 $680 #
point $-1 -59.343711005766849 0.32181116035732771 11.786194900616549 #
coedge $-1 $520 $519 $512 $627 forward $509 $-1 #
edge $-1 $628 45.3342833315915 $631 54.269778039400308 $626 $681 forward 7 unknown #
vertex $-1 $524 $682 #
straight-curve $-1 -71.148572110863881 24.420646333586806 17.565143045815269 -1 0 0 I I #
edge $-1 $631 -14.967802915807308 $521 -3.9378839197516875 $520 $683 forward 7 unknown #
vertex $-1 $630 $684 #
straight-curve $-1 -69.081698049867242 24.420646333586806 8.6296483380064615 0.84804809178421925 0 0.52991927123019833 I I #
point $-1 -54.781917597434017 24.420646333586806 17.565143045815269 #
point $-1 -69.081698049867242 13.390727337531185 8.6296483380064615 #
straight-curve $-1 -69.081698049867242 0 17.565143045815269 0 -1 0 I I #
vertex $-1 $527 $685 #
point $-1 -59.343711005766849 18.905686835558996 11.786194900616549 #
coedge $-1 $542 $541 $534 $639 forward $531 $-1 #
edge $-1 $640 45.3342833315915 $643 54.269778039400308 $638 $686 forward 7 unknown #
vertex $-1 $546 $687 #
straight-curve $-1 -71.148572110863881 43.00452200878847 17.565143045815269 -1 0 0 I I #
edge $-1 $643 -24.259740753408138 $543 -13.229821757352521 $542 $688 forward 7 unknown #
vertex $-1 $642 $689 #
straight-curve $-1 -69.081698049867242 43.00452200878847 8.6296483380064615 0.84804809178421925 0 0.52991927123019833 I I #
point $-1 -54.781917597434017 43.00452200878847 17.565143045815269 #
point $-1 -69.081698049867242 31.974603012732853 8.6296483380064615 #
straight-curve $-1 -69.081698049867242 0 17.565143045815269 0 -1 0 I I #
vertex $-1 $549 $690 #
point $-1 -59.343711005766849 37.489562510760663 11.786194900616549 #
straight-curve $-1 -69.081698049867242 46.718430009028538 0 0 0 -1 I I #
straight-curve $-1 0 46.718430009028538 -17.565143045815269 1 0 0 I I #
point $-1 69.081698049867242 46.718430009028538 -17.565143045815269 #
straight-curve $-1 -69.081698049867242 0 17.565143045815269 0 -1 0 I I #
point $-1 -69.081698049867242 46.718430009028538 17.565143045815269 #
straight-curve $-1 69.081698049867242 46.718430009028538 0 0 0 -1 I I #
point $-1 -69.081698049867242 46.718430009028538 -17.565143045815269 #
edge $-1 $659 -17.565143045815269 $580 17.565143045815269 $572 $691 forward 7 unknown #
straight-curve $-1 -63.496953755070891 -65.819787326278927 -17.565143045815269 -1 0 0 I I #
vertex $-1 $586 $692 #
straight-curve $-1 -63.496953755070891 -65.819787326278927 17.565143045815269 1 0 0 I I #
point $-1 -66.477940844626673 -65.819787326278927 17.565143045815269 #
point $-1 -66.477940844626673 -65.819787326278927 -17.565143045815269 #
point $-1 -60.515966665515116 -65.819787326278927 -17.565143045815269 #
straight-curve $-1 -60.515966665515116 -56.269108667653732 17.565143045815269 0 1 0 I I #
straight-curve $-1 69.081698049867242 4.6781329296765506 102.93792542686879 0 0 -1 I I #
point $-1 69.081698049867242 4.6781329296765506 17.565143045815269 #
straight-curve $-1 69.081698049867242 7.1470991207580177 12.888909200001848 0 1 0 I I #
point $-1 69.081698049867242 4.6781329296765506 12.888909200001848 #
point $-1 64.957041451668729 10.173027393584825 13.464495562977726 #
point $-1 64.957041451668729 18.415369089447239 13.464495562977726 #
straight-curve $-1 -69.081698049867242 -12.747105016816533 62.899426377406769 0 0 -1 I I #
point $-1 -69.081698049867242 -12.747105016816533 17.565143045815269 #
straight-curve $-1 -69.081698049867242 -9.1310322574221718 8.6296483380064597 0 -1 0 I I #
point $-1 -69.081698049867242 -12.747105016816533 8.6296483380064615 #
point $-1 -59.820904236597883 -18.262064514844344 9.7192438560949217 #
straight-curve $-1 -69.081698049867242 5.836770658385138 62.899426377406769 0 0 -1 I I #
point $-1 -69.081698049867242 5.836770658385138 17.565143045815269 #
straight-curve $-1 -69.081698049867242 0.16090558017866385 8.6296483380064597 0 -1 0 I I #
point $-1 -69.081698049867242 5.836770658385138 8.6296483380064615 #
point $-1 -59.820904236597883 0.32181116035732771 9.7192438560949217 #
straight-curve $-1 -69.081698049867242 24.420646333586806 62.899426377406769 0 0 -1 I I #
point $-1 -69.081698049867242 24.420646333586806 17.565143045815269 #
straight-curve $-1 -69.081698049867242 9.4528434177794978 8.6296483380064597 0 -1 0 I I #
point $-1 -69.081698049867242 24.420646333586806 8.6296483380064615 #
point $-1 -59.820904236597883 18.905686835558996 9.7192438560949217 #
straight-curve $-1 -69.081698049867242 43.00452200878847 62.899426377406769 0 0 -1 I I #
point $-1 -69.081698049867242 43.00452200878847 17.565143045815269 #
straight-curve $-1 -69.081698049867242 18.744781255380332 8.6296483380064597 0 -1 0 I I #
point $-1 -69.081698049867242 43.00452200878847 8.6296483380064615 #
point $-1 -59.820904236597883 37.489562510760663 9.7192438560949217 #
straight-curve $-1 -60.515966665515116 -65.819787326278927 0 0 0 -1 I I #
point $-1 -60.515966665515116 -65.819787326278927 17.565143045815269 #
End-of-ACIS-data 