500 0 9 0           
7 Unknown 11 ACIS 5.0 NT 24 Fri Mar 26 15:13:38 1999 
-1 9.9999999999999995e-007 1e-010 
body $-1 $9 $-1 $10 #
body $-1 $11 $-1 $12 #
body $-1 $13 $-1 $14 #
body $-1 $15 $-1 $16 #
body $-1 $17 $-1 $18 #
body $-1 $19 $-1 $20 #
body $-1 $21 $-1 $22 #
body $-1 $23 $-1 $24 #
body $-1 $25 $-1 $26 #
lump $-1 $-1 $27 $0 #
transform $-1 1 0 0 0 1 0 0 0 1 70.807824945829651 36.088933393591965 16.477642860444654 1 rotate no_reflect no_shear #
lump $-1 $-1 $28 $1 #
transform $-1 1 0 0 0 1 0 0 0 1 70.807824945829651 36.088933393591965 16.477642860444654 1 rotate no_reflect no_shear #
lump $-1 $-1 $29 $2 #
transform $-1 1 0 0 0 1 0 0 0 1 70.807824945829651 36.088933393591965 16.477642860444654 1 rotate no_reflect no_shear #
lump $-1 $-1 $30 $3 #
transform $-1 1 0 0 0 1 0 0 0 1 70.807824945829651 36.088933393591965 16.477642860444654 1 rotate no_reflect no_shear #
lump $-1 $-1 $31 $4 #
transform $-1 1 0 0 0 1 0 0 0 1 70.807824945829651 36.088933393591965 16.477642860444654 1 rotate no_reflect no_shear #
lump $-1 $-1 $32 $5 #
transform $-1 1 0 0 0 1 0 0 0 1 70.807824945829651 36.088933393591965 16.477642860444654 1 rotate no_reflect no_shear #
lump $-1 $-1 $33 $6 #
transform $-1 1 0 0 0 1 0 0 0 1 70.807824945829651 36.088933393591965 16.477642860444654 1 rotate no_reflect no_shear #
lump $-1 $-1 $34 $7 #
transform $-1 1 0 0 0 1 0 0 0 1 70.807824945829651 36.088933393591965 16.477642860444654 1 rotate no_reflect no_shear #
lump $-1 $-1 $35 $8 #
transform $-1 1 0 0 0 1 0 0 0 1 70.807824945829651 36.088933393591965 16.477642860444654 1 rotate no_reflect no_shear #
shell $-1 $-1 $-1 $36 $-1 $9 #
shell $-1 $-1 $-1 $37 $-1 $11 #
shell $-1 $-1 $-1 $38 $-1 $13 #
shell $-1 $-1 $-1 $39 $-1 $15 #
shell $-1 $-1 $-1 $40 $-1 $17 #
shell $-1 $-1 $-1 $41 $-1 $19 #
shell $-1 $-1 $-1 $42 $-1 $21 #
shell $-1 $-1 $-1 $43 $-1 $23 #
shell $-1 $-1 $-1 $44 $-1 $25 #
face $-1 $45 $46 $27 $-1 $47 forward single #
face $-1 $48 $49 $28 $-1 $50 reversed single #
face $-1 $51 $52 $29 $-1 $53 forward single #
face $-1 $54 $55 $30 $-1 $56 reversed single #
face $-1 $57 $58 $31 $-1 $59 forward single #
face $-1 $60 $61 $32 $-1 $62 forward single #
face $-1 $63 $64 $33 $-1 $65 reversed single #
face $-1 $66 $67 $34 $-1 $68 forward single #
face $-1 $69 $70 $35 $-1 $71 forward single #
face $-1 $72 $73 $27 $-1 $74 reversed single #
loop $-1 $-1 $75 $36 #
plane-surface $-1 0 0 16.477642860444654 0 0 1 1 0 0 forward_v I I I I #
face $-1 $76 $77 $28 $-1 $78 reversed single #
loop $-1 $-1 $79 $37 #
plane-surface $-1 -30.136598611241197 -147.68358955617848 87.405708075694605 -1 0 0 0 -0.78801076186113728 0.61566146476048833 forward_v I I I I #
face $-1 $80 $81 $29 $-1 $82 forward single #
loop $-1 $83 $84 $38 #
cone-surface $-1 -50.472211778535424 -26.790282755626528 6.0455008430129187 0 0.78801076186113728 -0.61566146476048833 4 0 0 1 I I 0 1 4 forward I I I I #
face $-1 $85 $86 $30 $-1 $87 reversed single #
loop $-1 $-1 $88 $39 #
plane-surface $-1 -47.067497587429386 58.191687479295787 164.15687309668309 1 0 0 0 -0.57357644374324357 -0.81915203911291934 forward_v I I I I #
face $-1 $89 $90 $31 $-1 $91 forward single #
loop $-1 $92 $93 $40 #
cone-surface $-1 -42.251544288226256 28.264651240834443 10.358519437300465 0 -0.57357644374324357 -0.81915203911291934 1 0 0 1 I I 0 1 1 forward I I I I #
face $-1 $94 $95 $32 $-1 $96 forward single #
loop $-1 $97 $98 $41 #
cone-surface $-1 -35.027614339421575 28.264651240834443 10.358519437300465 0 -0.57357644374324357 -0.81915203911291934 1 0 0 1 I I 0 1 1 forward I I I I #
face $-1 $99 $100 $33 $-1 $101 reversed single #
loop $-1 $-1 $102 $42 #
plane-surface $-1 30.211661040218438 58.191687479295787 164.15687309668309 1 0 0 0 -0.57357644374324357 -0.81915203911291934 forward_v I I I I #
face $-1 $103 $104 $34 $-1 $105 forward single #
loop $-1 $106 $107 $43 #
cone-surface $-1 35.027614339421575 28.264651240834443 10.358519437300465 0 -0.57357644374324357 -0.81915203911291934 1 0 0 1 I I 0 1 1 forward I I I I #
face $-1 $108 $109 $35 $-1 $110 forward single #
loop $-1 $111 $112 $44 #
cone-surface $-1 42.251544288226256 28.264651240834443 10.358519437300465 0 -0.57357644374324357 -0.81915203911291934 1 0 0 1 I I 0 1 1 forward I I I I #
face $-1 $113 $114 $27 $-1 $115 reversed single #
loop $-1 $-1 $116 $45 #
plane-surface $-1 0 0 -16.477642860444654 0 0 1 1 0 0 forward_v I I I I #
coedge $-1 $117 $118 $119 $120 forward $46 $-1 #
face $-1 $121 $122 $28 $-1 $123 forward single #
loop $-1 $-1 $124 $48 #
plane-surface $-1 -50.472211778535424 -36.088933393591944 0.21840963038714278 0 -0.78801076186113728 0.61566146476048833 1 0 0 forward_v I I I I #
coedge $-1 $125 $126 $127 $128 reversed $49 $-1 #
face $-1 $-1 $129 $29 $-1 $130 forward single #
loop $-1 $131 $132 $51 #
cone-surface $-1 -50.472211778535424 -22.267163028741471 2.5116525110889505 0 0.78801076186113728 -0.61566146476048833 2 0 0 1 I I -0.70710678118654746 0.70710678118654746 2 forward I I I I #
loop $-1 $-1 $133 $38 #
coedge $-1 $84 $84 $134 $135 reversed $52 $-1 #
face $-1 $136 $137 $30 $-1 $138 reversed single #
loop $-1 $-1 $139 $54 #
plane-surface $-1 -38.639579313823923 -23.035713363950414 48.152124717629093 0 0.57357644374324357 0.81915203911291934 1 0 0 forward_v I I I I #
coedge $-1 $140 $141 $142 $143 reversed $55 $-1 #
face $-1 $-1 $144 $31 $-1 $145 forward single #
loop $-1 $146 $147 $57 #
cone-surface $-1 -42.251544288226256 27.097980614929007 8.6923411403908624 0 -0.57357644374324357 -0.81915203911291934 0.5 0 0 1 I I -0.70710678118654746 0.70710678118654746 0.5 forward I I I I #
loop $-1 $-1 $148 $40 #
coedge $-1 $93 $93 $149 $150 reversed $58 $-1 #
face $-1 $-1 $151 $32 $-1 $152 forward single #
loop $-1 $153 $154 $60 #
cone-surface $-1 -35.027614339421575 27.097980614929007 8.6923411403908624 0 -0.57357644374324357 -0.81915203911291934 0.5 0 0 1 I I -0.70710678118654746 0.70710678118654746 0.5 forward I I I I #
loop $-1 $-1 $155 $41 #
coedge $-1 $98 $98 $156 $157 reversed $61 $-1 #
face $-1 $158 $159 $33 $-1 $160 reversed single #
loop $-1 $-1 $161 $63 #
plane-surface $-1 38.639579313823901 -23.035713363950414 48.152124717629093 0 0.57357644374324357 0.81915203911291934 1 0 0 forward_v I I I I #
coedge $-1 $162 $163 $164 $165 reversed $64 $-1 #
face $-1 $-1 $166 $34 $-1 $167 forward single #
loop $-1 $168 $169 $66 #
cone-surface $-1 35.027614339421575 27.097980614929007 8.6923411403908624 0 -0.57357644374324357 -0.81915203911291934 0.5 0 0 1 I I -0.70710678118654746 0.70710678118654746 0.5 forward I I I I #
loop $-1 $-1 $170 $43 #
coedge $-1 $107 $107 $171 $172 reversed $67 $-1 #
face $-1 $-1 $173 $35 $-1 $174 forward single #
loop $-1 $175 $176 $69 #
cone-surface $-1 42.251544288226256 27.097980614929007 8.6923411403908624 0 -0.57357644374324357 -0.81915203911291934 0.5 0 0 1 I I -0.70710678118654746 0.70710678118654746 0.5 forward I I I I #
loop $-1 $-1 $177 $44 #
coedge $-1 $112 $112 $178 $179 reversed $70 $-1 #
face $-1 $180 $181 $27 $-1 $182 reversed single #
loop $-1 $-1 $183 $72 #
plane-surface $-1 0 -36.088933393591965 0 0 1 0 0 0 1 forward_v I I I I #
coedge $-1 $184 $185 $186 $187 forward $73 $-1 #
coedge $-1 $188 $75 $189 $190 forward $46 $-1 #
coedge $-1 $75 $188 $191 $192 forward $46 $-1 #
coedge $-1 $193 $194 $75 $120 reversed $195 $-1 #
edge $-1 $196 -36.088933393591965 $197 36.088933393591965 $119 $198 forward 7 unknown #
face $-1 $199 $200 $28 $-1 $201 reversed single #
loop $-1 $-1 $127 $76 #
plane-surface $-1 0 0 16.477642860444654 0 0 1 1 0 0 forward_v I I I I #
coedge $-1 $202 $203 $204 $205 reversed $77 $-1 #
coedge $-1 $126 $79 $206 $207 reversed $49 $-1 #
coedge $-1 $79 $125 $202 $208 reversed $49 $-1 #
coedge $-1 $204 $209 $79 $128 forward $122 $-1 #
edge $-1 $210 37.752861384497272 $211 50.45596625410262 $127 $212 forward 7 unknown #
loop $-1 $-1 $134 $80 #
plane-surface $-1 -50.472211778535424 -36.088933393591944 0.21840963038714278 0 -0.78801076186113728 0.61566146476048833 1 0 0 forward_v I I I I #
loop $-1 $-1 $213 $51 #
coedge $-1 $132 $132 $133 $214 reversed $81 $-1 #
coedge $-1 $133 $133 $132 $214 forward $83 $-1 #
coedge $-1 $134 $134 $84 $135 forward $129 $-1 #
edge $-1 $215 -3.2824982200606095e-016 $215 6.2831853071796004 $134 $216 forward 7 unknown #
face $-1 $217 $218 $30 $-1 $219 forward single #
loop $-1 $-1 $220 $85 #
plane-surface $-1 -30.211661040218459 58.191687479295787 164.15687309668309 -1 0 0 0 0.57357644374324357 0.81915203911291934 forward_v I I I I #
coedge $-1 $221 $222 $223 $224 reversed $86 $-1 #
coedge $-1 $141 $88 $225 $226 reversed $55 $-1 #
coedge $-1 $88 $140 $221 $227 reversed $55 $-1 #
coedge $-1 $223 $228 $88 $143 forward $218 $-1 #
edge $-1 $229 -6.9930896539440717 $230 6.8957098435033721 $142 $231 forward 7 unknown #
loop $-1 $-1 $149 $89 #
plane-surface $-1 -38.639579313823923 -23.035713363950414 48.152124717629093 0 0.57357644374324357 0.81915203911291934 1 0 0 forward_v I I I I #
loop $-1 $-1 $232 $57 #
coedge $-1 $147 $147 $148 $233 reversed $90 $-1 #
coedge $-1 $148 $148 $147 $233 forward $92 $-1 #
coedge $-1 $149 $149 $93 $150 forward $144 $-1 #
edge $-1 $234 -2.9283332382551929e-016 $234 6.2831853071796004 $149 $235 forward 7 unknown #
loop $-1 $-1 $156 $94 #
plane-surface $-1 -38.639579313823923 -23.035713363950414 48.152124717629093 0 0.57357644374324357 0.81915203911291934 1 0 0 forward_v I I I I #
loop $-1 $-1 $236 $60 #
coedge $-1 $154 $154 $155 $237 reversed $95 $-1 #
coedge $-1 $155 $155 $154 $237 forward $97 $-1 #
coedge $-1 $156 $156 $98 $157 forward $151 $-1 #
edge $-1 $238 -2.9283332382551929e-016 $238 6.2831853071796004 $156 $239 forward 7 unknown #
face $-1 $240 $241 $33 $-1 $242 forward single #
loop $-1 $-1 $243 $99 #
plane-surface $-1 47.067497587429365 58.191687479295787 164.15687309668309 -1 0 0 0 0.57357644374324357 0.81915203911291934 forward_v I I I I #
coedge $-1 $244 $245 $246 $247 reversed $100 $-1 #
coedge $-1 $163 $102 $248 $249 reversed $64 $-1 #
coedge $-1 $102 $162 $244 $250 reversed $64 $-1 #
coedge $-1 $246 $251 $102 $165 forward $241 $-1 #
edge $-1 $252 -6.9930896539440717 $253 6.8957098435033721 $164 $254 forward 7 unknown #
loop $-1 $-1 $171 $103 #
plane-surface $-1 38.639579313823901 -23.035713363950414 48.152124717629093 0 0.57357644374324357 0.81915203911291934 1 0 0 forward_v I I I I #
loop $-1 $-1 $255 $66 #
coedge $-1 $169 $169 $170 $256 reversed $104 $-1 #
coedge $-1 $170 $170 $169 $256 forward $106 $-1 #
coedge $-1 $171 $171 $107 $172 forward $166 $-1 #
edge $-1 $257 -2.9283332382551929e-016 $257 6.2831853071796004 $171 $258 forward 7 unknown #
loop $-1 $-1 $178 $108 #
plane-surface $-1 38.639579313823901 -23.035713363950414 48.152124717629093 0 0.57357644374324357 0.81915203911291934 1 0 0 forward_v I I I I #
loop $-1 $-1 $259 $69 #
coedge $-1 $176 $176 $177 $260 reversed $109 $-1 #
coedge $-1 $177 $177 $176 $260 forward $111 $-1 #
coedge $-1 $178 $178 $112 $179 forward $173 $-1 #
edge $-1 $261 -2.9283332382551929e-016 $261 6.2831853071796004 $178 $262 forward 7 unknown #
face $-1 $263 $264 $27 $-1 $265 reversed single #
loop $-1 $-1 $266 $113 #
plane-surface $-1 -70.807824945829651 0 0 1 0 0 0 0 -1 forward_v I I I I #
coedge $-1 $267 $191 $268 $269 forward $114 $-1 #
coedge $-1 $270 $116 $267 $271 forward $73 $-1 #
coedge $-1 $116 $270 $272 $273 forward $73 $-1 #
coedge $-1 $194 $193 $116 $187 reversed $195 $-1 #
edge $-1 $274 -36.088933393591965 $275 36.088933393591965 $186 $276 forward 7 unknown #
coedge $-1 $118 $117 $277 $278 forward $46 $-1 #
coedge $-1 $279 $280 $117 $190 reversed $264 $-1 #
edge $-1 $197 -70.807824945829651 $281 70.807824945829651 $189 $282 forward 7 unknown #
coedge $-1 $183 $283 $118 $192 reversed $114 $-1 #
edge $-1 $284 -70.807824945829651 $196 70.807824945829651 $191 $285 forward 7 unknown #
coedge $-1 $186 $119 $283 $286 forward $195 $-1 #
coedge $-1 $119 $186 $279 $287 reversed $195 $-1 #
loop $-1 $-1 $193 $263 #
vertex $-1 $120 $288 #
vertex $-1 $120 $289 #
straight-curve $-1 70.807824945829651 0 16.477642860444654 0 1 0 I I #
face $-1 $-1 $290 $28 $-1 $291 reversed single #
loop $-1 $-1 $292 $121 #
plane-surface $-1 -70.807824945829651 0 0 1 0 0 0 0 -1 forward_v I I I I #
coedge $-1 $293 $124 $126 $208 forward $77 $-1 #
coedge $-1 $124 $293 $292 $294 reversed $77 $-1 #
coedge $-1 $295 $127 $124 $205 forward $122 $-1 #
edge $-1 $211 4.9004927219734853 $296 45.571719056561939 $204 $297 forward 7 unknown #
coedge $-1 $298 $299 $125 $207 forward $290 $-1 #
edge $-1 $300 -43.484444407460188 $210 -27.225211177402649 $206 $301 forward 7 unknown #
edge $-1 $211 -20.633262915922845 $300 3.4623486962080755e-014 $126 $302 forward 7 unknown #
coedge $-1 $127 $295 $298 $303 forward $122 $-1 #
vertex $-1 $207 $304 #
vertex $-1 $128 $305 #
straight-curve $-1 -30.136598611241197 -73.841794778089238 16.477642860444654 0 1 0 I I #
coedge $-1 $213 $213 $-1 $306 reversed $131 $-1 #
edge $-1 $307 0 $307 6.2831853071796004 $132 $308 forward 7 unknown #
vertex $-1 $135 $309 #
ellipse-curve $-1 -50.472211778535424 -29.737380958789288 8.3480262454158911 0 -0.78801076186113728 0.61566146476048833 4 0 0 1 I I #
face $-1 $-1 $310 $30 $-1 $311 reversed single #
loop $-1 $-1 $142 $136 #
plane-surface $-1 0 0 16.477642860444654 0 0 1 1 0 0 forward_v I I I I #
coedge $-1 $312 $313 $314 $315 reversed $137 $-1 #
coedge $-1 $316 $139 $141 $227 forward $86 $-1 #
coedge $-1 $139 $316 $312 $317 forward $86 $-1 #
coedge $-1 $314 $142 $139 $224 forward $218 $-1 #
edge $-1 $230 -27.747707930517425 $318 -10.891871383306498 $223 $319 forward 7 unknown #
coedge $-1 $320 $321 $140 $226 forward $310 $-1 #
edge $-1 $322 -75.325835979478995 $229 -65.600793687896896 $225 $323 forward 7 unknown #
edge $-1 $230 55.222773185161074 $322 72.177866787183945 $141 $324 forward 7 unknown #
coedge $-1 $142 $314 $320 $325 forward $218 $-1 #
vertex $-1 $226 $326 #
vertex $-1 $143 $327 #
straight-curve $-1 -47.067497587429386 29.095843739647893 16.477642860444661 0 -1 0 I I #
coedge $-1 $232 $232 $-1 $328 reversed $146 $-1 #
edge $-1 $329 0 $329 6.2831853071796004 $147 $330 forward 7 unknown #
vertex $-1 $150 $331 #
ellipse-curve $-1 -42.251544288226256 29.14453364486825 11.615121714653597 0 0.57357644374324357 0.81915203911291934 1 0 0 1 I I #
coedge $-1 $236 $236 $-1 $332 reversed $153 $-1 #
edge $-1 $333 0 $333 6.2831853071796004 $154 $334 forward 7 unknown #
vertex $-1 $157 $335 #
ellipse-curve $-1 -35.027614339421575 29.14453364486825 11.615121714653597 0 0.57357644374324357 0.81915203911291934 1 0 0 1 I I #
face $-1 $-1 $336 $33 $-1 $337 reversed single #
loop $-1 $-1 $164 $158 #
plane-surface $-1 0 0 16.477642860444654 0 0 1 1 0 0 forward_v I I I I #
coedge $-1 $338 $339 $340 $341 reversed $159 $-1 #
coedge $-1 $342 $161 $163 $250 forward $100 $-1 #
coedge $-1 $161 $342 $338 $343 forward $100 $-1 #
coedge $-1 $340 $164 $161 $247 forward $241 $-1 #
edge $-1 $253 10.891871383306487 $344 27.747707930517414 $246 $345 forward 7 unknown #
coedge $-1 $346 $347 $162 $249 forward $336 $-1 #
edge $-1 $348 -75.325835979478995 $252 -65.600793687896896 $248 $349 forward 7 unknown #
edge $-1 $253 55.222773185161074 $348 72.177866787183945 $163 $350 forward 7 unknown #
coedge $-1 $164 $340 $346 $351 forward $241 $-1 #
vertex $-1 $165 $352 #
vertex $-1 $165 $353 #
straight-curve $-1 30.211661040218438 29.095843739647893 16.477642860444661 0 -1 0 I I #
coedge $-1 $255 $255 $-1 $354 reversed $168 $-1 #
edge $-1 $355 0 $355 6.2831853071796004 $169 $356 forward 7 unknown #
vertex $-1 $172 $357 #
ellipse-curve $-1 35.027614339421575 29.14453364486825 11.615121714653597 0 0.57357644374324357 0.81915203911291934 1 0 0 1 I I #
coedge $-1 $259 $259 $-1 $358 reversed $175 $-1 #
edge $-1 $359 0 $359 6.2831853071796004 $176 $360 forward 7 unknown #
vertex $-1 $179 $361 #
ellipse-curve $-1 42.251544288226256 29.14453364486825 11.615121714653597 0 0.57357644374324357 0.81915203911291934 1 0 0 1 I I #
face $-1 $-1 $195 $27 $-1 $362 reversed single #
loop $-1 $-1 $279 $180 #
plane-surface $-1 0 36.088933393591965 0 0 -1 0 0 0 -1 forward_v I I I I #
coedge $-1 $363 $277 $280 $364 forward $181 $-1 #
coedge $-1 $283 $183 $184 $271 reversed $114 $-1 #
coedge $-1 $277 $363 $183 $269 reversed $181 $-1 #
edge $-1 $284 -16.477642860444654 $365 16.477642860444654 $268 $366 forward 7 unknown #
coedge $-1 $185 $184 $363 $367 forward $73 $-1 #
edge $-1 $275 -70.807824945829651 $365 70.807824945829651 $267 $368 forward 7 unknown #
coedge $-1 $280 $279 $185 $273 reversed $264 $-1 #
edge $-1 $369 -70.807824945829651 $274 70.807824945829651 $272 $370 forward 7 unknown #
vertex $-1 $187 $371 #
vertex $-1 $286 $372 #
straight-curve $-1 70.807824945829651 0 -16.477642860444654 0 -1 0 I I #
coedge $-1 $266 $268 $188 $278 reversed $181 $-1 #
edge $-1 $281 -36.088933393591965 $284 36.088933393591965 $277 $373 forward 7 unknown #
coedge $-1 $272 $189 $194 $287 forward $264 $-1 #
coedge $-1 $189 $272 $266 $364 reversed $264 $-1 #
vertex $-1 $190 $374 #
straight-curve $-1 0 36.088933393591965 16.477642860444654 -1 0 0 I I #
coedge $-1 $191 $267 $193 $286 reversed $114 $-1 #
vertex $-1 $278 $375 #
straight-curve $-1 0 -36.088933393591965 16.477642860444654 1 0 0 I I #
edge $-1 $196 -16.477642860444654 $275 16.477642860444654 $193 $376 forward 7 unknown #
edge $-1 $197 -16.477642860444654 $274 16.477642860444654 $194 $377 forward 7 unknown #
point $-1 70.807824945829651 -36.088933393591965 16.477642860444654 #
point $-1 70.807824945829651 36.088933393591965 16.477642860444654 #
loop $-1 $-1 $206 $199 #
plane-surface $-1 0 -36.088933393591965 0 0 1 0 0 0 1 forward_v I I I I #
coedge $-1 $378 $379 $203 $294 forward $200 $-1 #
coedge $-1 $203 $202 $299 $380 reversed $77 $-1 #
edge $-1 $296 -9.6100346881711776 $381 11.023228227751703 $292 $382 forward 7 unknown #
coedge $-1 $209 $204 $379 $383 forward $122 $-1 #
vertex $-1 $383 $384 #
straight-curve $-1 -25.236105889267712 -23.385828523986621 16.477642860444654 -1 0 0 I I #
coedge $-1 $385 $206 $209 $303 reversed $290 $-1 #
coedge $-1 $206 $385 $293 $380 forward $290 $-1 #
vertex $-1 $207 $386 #
straight-curve $-1 -30.136598611241197 -36.088933393591965 43.702854037847302 0 0 1 I I #
straight-curve $-1 -30.136598611241197 -36.088933393591944 0.21840963038714278 0 -0.61566146476048833 -0.78801076186113728 I I #
edge $-1 $387 -70.807824945829651 $210 -30.136598611241197 $298 $388 forward 7 unknown #
point $-1 -30.136598611241197 -36.088933393591965 16.477642860444654 #
point $-1 -30.136598611241197 -23.385828523986618 16.477642860444654 #
edge $-1 $389 1 $389 0 $213 $-1 forward 7 unknown #
vertex $-1 $214 $390 #
ellipse-curve $-1 -50.472211778535424 -23.843184552463747 3.7429754406099272 0 -0.78801076186113728 0.61566146476048833 4 0 0 1 I I #
point $-1 -46.472211778535424 -29.737380958789313 8.3480262454159089 #
loop $-1 $-1 $225 $217 #
plane-surface $-1 0 36.088933393591965 0 0 -1 0 0 0 -1 forward_v I I I I #
coedge $-1 $313 $220 $222 $317 reversed $137 $-1 #
coedge $-1 $220 $312 $391 $392 reversed $137 $-1 #
coedge $-1 $228 $223 $220 $315 forward $218 $-1 #
edge $-1 $318 -6.8957098435033721 $393 6.9930896539440717 $314 $394 forward 7 unknown #
coedge $-1 $222 $221 $321 $395 reversed $86 $-1 #
edge $-1 $396 -72.177866787183945 $318 -55.222773185161074 $312 $397 forward 7 unknown #
vertex $-1 $224 $398 #
straight-curve $-1 -19.319789656911961 22.200133896144518 16.477642860444654 1 0 0 I I #
coedge $-1 $391 $225 $228 $325 reversed $310 $-1 #
coedge $-1 $225 $391 $316 $395 forward $310 $-1 #
vertex $-1 $226 $399 #
straight-curve $-1 -47.067497587429386 36.088933393591965 82.078436548341543 0 0 1 I I #
straight-curve $-1 -47.067497587429386 -23.035713363950414 48.152124717629093 0 0.81915203911291934 -0.57357644374324357 I I #
edge $-1 $393 30.211661040218459 $229 47.067497587429386 $320 $400 forward 7 unknown #
point $-1 -47.067497587429386 36.088933393591965 16.477642860444654 #
point $-1 -47.067497587429386 22.200133896144521 16.477642860444654 #
edge $-1 $401 1 $401 0 $232 $-1 forward 7 unknown #
vertex $-1 $233 $402 #
ellipse-curve $-1 -42.251544288226256 27.384768836800628 9.1019171599473214 0 0.57357644374324357 0.81915203911291934 1 0 0 1 I I #
point $-1 -41.251544288226256 29.144533644868257 11.615121714653608 #
edge $-1 $403 1 $403 0 $236 $-1 forward 7 unknown #
vertex $-1 $237 $404 #
ellipse-curve $-1 -35.027614339421575 27.384768836800628 9.1019171599473214 0 0.57357644374324357 0.81915203911291934 1 0 0 1 I I #
point $-1 -34.027614339421575 29.144533644868257 11.615121714653608 #
loop $-1 $-1 $248 $240 #
plane-surface $-1 0 36.088933393591965 0 0 -1 0 0 0 -1 forward_v I I I I #
coedge $-1 $339 $243 $245 $343 reversed $159 $-1 #
coedge $-1 $243 $338 $405 $406 reversed $159 $-1 #
coedge $-1 $251 $246 $243 $341 forward $241 $-1 #
edge $-1 $344 -6.8957098435033721 $407 6.9930896539440717 $340 $408 forward 7 unknown #
coedge $-1 $245 $244 $347 $409 reversed $100 $-1 #
edge $-1 $410 -72.177866787183945 $344 -55.222773185161074 $338 $411 forward 7 unknown #
vertex $-1 $247 $412 #
straight-curve $-1 19.319789656911951 22.200133896144518 16.477642860444654 1 0 0 I I #
coedge $-1 $405 $248 $251 $351 reversed $336 $-1 #
coedge $-1 $248 $405 $342 $409 forward $336 $-1 #
vertex $-1 $249 $413 #
straight-curve $-1 30.211661040218438 36.088933393591965 82.078436548341543 0 0 1 I I #
straight-curve $-1 30.211661040218438 -23.035713363950414 48.152124717629093 0 0.81915203911291934 -0.57357644374324357 I I #
edge $-1 $407 -47.067497587429365 $252 -30.211661040218438 $346 $414 forward 7 unknown #
point $-1 30.211661040218438 36.088933393591965 16.477642860444654 #
point $-1 30.211661040218438 22.200133896144521 16.477642860444654 #
edge $-1 $415 1 $415 0 $255 $-1 forward 7 unknown #
vertex $-1 $256 $416 #
ellipse-curve $-1 35.027614339421575 27.384768836800628 9.1019171599473214 0 0.57357644374324357 0.81915203911291934 1 0 0 1 I I #
point $-1 36.027614339421575 29.144533644868257 11.615121714653608 #
edge $-1 $417 1 $417 0 $259 $-1 forward 7 unknown #
vertex $-1 $260 $418 #
ellipse-curve $-1 42.251544288226256 27.384768836800628 9.1019171599473214 0 0.57357644374324357 0.81915203911291934 1 0 0 1 I I #
point $-1 43.251544288226256 29.144533644868257 11.615121714653608 #
plane-surface $-1 70.807824945829651 0 0 -1 0 0 0 0 1 forward_v I I I I #
coedge $-1 $268 $266 $270 $367 reversed $181 $-1 #
edge $-1 $281 -16.477642860444654 $369 16.477642860444654 $280 $419 forward 7 unknown #
vertex $-1 $367 $420 #
straight-curve $-1 -70.807824945829651 -36.088933393591965 0 0 0 -1 I I #
edge $-1 $365 -36.088933393591965 $369 36.088933393591965 $363 $421 forward 7 unknown #
straight-curve $-1 0 -36.088933393591965 -16.477642860444654 -1 0 0 I I #
vertex $-1 $273 $422 #
straight-curve $-1 0 36.088933393591965 -16.477642860444654 1 0 0 I I #
point $-1 70.807824945829651 36.088933393591965 -16.477642860444654 #
point $-1 70.807824945829651 -36.088933393591965 -16.477642860444654 #
straight-curve $-1 -70.807824945829651 0 16.477642860444654 0 -1 0 I I #
point $-1 -70.807824945829651 36.088933393591965 16.477642860444654 #
point $-1 -70.807824945829651 -36.088933393591965 16.477642860444654 #
straight-curve $-1 70.807824945829651 -36.088933393591965 0 0 0 -1 I I #
straight-curve $-1 70.807824945829651 36.088933393591965 0 0 0 -1 I I #
coedge $-1 $379 $292 $385 $423 reversed $200 $-1 #
coedge $-1 $292 $378 $295 $383 reversed $200 $-1 #
edge $-1 $381 -45.571719056561939 $300 -4.9004927219734853 $299 $424 forward 7 unknown #
vertex $-1 $294 $425 #
straight-curve $-1 -70.807824945829651 -29.302356556505188 8.9048321043069283 0 -0.61566146476048833 -0.78801076186113728 I I #
edge $-1 $296 23.385828523986618 $387 36.088933393591965 $379 $426 forward 7 unknown #
point $-1 -70.807824945829651 -23.385828523986618 16.477642860444654 #
coedge $-1 $299 $298 $378 $423 forward $290 $-1 #
point $-1 -30.136598611241197 -36.088933393591965 0.2184096303871155 #
vertex $-1 $383 $427 #
straight-curve $-1 0 -36.088933393591965 16.477642860444654 1 0 0 I I #
vertex $-1 $306 $428 #
point $-1 -46.472211778535424 -23.843184552463747 3.7429754406099272 #
coedge $-1 $321 $320 $313 $392 forward $310 $-1 #
edge $-1 $393 65.600793687896896 $396 75.325835979478995 $391 $429 forward 7 unknown #
vertex $-1 $325 $430 #
straight-curve $-1 -30.211661040218459 29.095843739647893 16.477642860444661 0 1 0 I I #
edge $-1 $396 10.891871383306498 $322 27.747707930517425 $321 $431 forward 7 unknown #
vertex $-1 $395 $432 #
straight-curve $-1 -30.211661040218459 -23.035713363950414 48.152124717629093 0 -0.81915203911291934 0.57357644374324357 I I #
point $-1 -30.211661040218459 22.200133896144521 16.477642860444654 #
point $-1 -47.067497587429386 36.088933393591972 6.7526005688625546 #
straight-curve $-1 0 36.088933393591965 16.477642860444654 -1 0 0 I I #
vertex $-1 $328 $433 #
point $-1 -41.251544288226256 27.384768836800628 9.1019171599473214 #
vertex $-1 $332 $434 #
point $-1 -34.027614339421575 27.384768836800628 9.1019171599473214 #
coedge $-1 $347 $346 $339 $406 forward $336 $-1 #
edge $-1 $407 65.600793687896896 $410 75.325835979478995 $405 $435 forward 7 unknown #
vertex $-1 $351 $436 #
straight-curve $-1 47.067497587429365 29.095843739647893 16.477642860444661 0 1 0 I I #
edge $-1 $410 -27.747707930517414 $348 -10.891871383306487 $347 $437 forward 7 unknown #
vertex $-1 $409 $438 #
straight-curve $-1 47.067497587429365 -23.035713363950414 48.152124717629093 0 -0.81915203911291934 0.57357644374324357 I I #
point $-1 47.067497587429365 22.200133896144521 16.477642860444654 #
point $-1 30.211661040218438 36.088933393591972 6.7526005688625546 #
straight-curve $-1 0 36.088933393591965 16.477642860444654 -1 0 0 I I #
vertex $-1 $354 $439 #
point $-1 36.027614339421575 27.384768836800628 9.1019171599473214 #
vertex $-1 $358 $440 #
point $-1 43.251544288226256 27.384768836800628 9.1019171599473214 #
straight-curve $-1 -70.807824945829651 36.088933393591965 0 0 0 -1 I I #
point $-1 -70.807824945829651 -36.088933393591965 -16.477642860444654 #
straight-curve $-1 -70.807824945829651 0 -16.477642860444654 0 1 0 I I #
point $-1 -70.807824945829651 36.088933393591965 -16.477642860444654 #
edge $-1 $387 -16.477642860444654 $381 -0.2184096303871155 $378 $441 forward 7 unknown #
straight-curve $-1 -25.236105889267712 -36.088933393591965 0.21840963038711764 1 0 0 I I #
point $-1 -70.807824945829651 -36.088933393591965 0.2184096303871155 #
straight-curve $-1 -70.807824945829651 0 16.477642860444654 0 -1 0 I I #
point $-1 -70.807824945829651 -36.088933393591965 16.477642860444654 #
point $-1 -50.472211778535424 -20.691141505019196 1.2803295815679738 #
straight-curve $-1 -30.211661040218459 36.088933393591965 82.078436548341543 0 0 -1 I I #
point $-1 -30.211661040218459 36.088933393591965 16.477642860444654 #
straight-curve $-1 -19.319789656911961 36.088933393591972 6.7526005688625546 -1 0 0 I I #
point $-1 -30.211661040218459 36.088933393591972 6.7526005688625546 #
point $-1 -42.251544288226256 26.811192393057386 8.2827651208344033 #
point $-1 -35.027614339421575 26.811192393057386 8.2827651208344033 #
straight-curve $-1 47.067497587429365 36.088933393591965 82.078436548341543 0 0 -1 I I #
point $-1 47.067497587429365 36.088933393591965 16.477642860444654 #
straight-curve $-1 19.319789656911951 36.088933393591972 6.7526005688625546 -1 0 0 I I #
point $-1 47.067497587429365 36.088933393591972 6.7526005688625546 #
point $-1 35.027614339421575 26.811192393057386 8.2827651208344033 #
point $-1 42.251544288226256 26.811192393057386 8.2827651208344033 #
straight-curve $-1 -70.807824945829651 -36.088933393591965 0 0 0 -1 I I #
End-of-ACIS-data 