500 0 10 0           
7 Unknown 11 ACIS 5.0 NT 24 Fri Mar 26 14:33:29 1999 
-1 9.9999999999999995e-007 1e-010 
body $-1 $10 $-1 $11 #
body $-1 $12 $-1 $13 #
body $-1 $14 $-1 $15 #
body $-1 $16 $-1 $17 #
body $-1 $18 $-1 $19 #
body $-1 $20 $-1 $21 #
body $-1 $22 $-1 $23 #
body $-1 $24 $-1 $25 #
body $-1 $26 $-1 $27 #
body $-1 $28 $-1 $29 #
lump $-1 $-1 $30 $0 #
transform $-1 1 0 0 0 1 0 0 0 1 74.987640003662221 30.555970048063529 7.8272222112316063 1 rotate no_reflect no_shear #
lump $-1 $-1 $31 $1 #
transform $-1 1 0 0 0 1 0 0 0 1 74.987640003662221 30.555970048063529 7.8272222112316063 1 rotate no_reflect no_shear #
lump $-1 $-1 $32 $2 #
transform $-1 1 0 0 0 1 0 0 0 1 74.987640003662221 30.555970048063529 7.8272222112316063 1 rotate no_reflect no_shear #
lump $-1 $-1 $33 $3 #
transform $-1 1 0 0 0 1 0 0 0 1 74.987640003662221 30.555970048063529 7.8272222112316063 1 rotate no_reflect no_shear #
lump $-1 $-1 $34 $4 #
transform $-1 1 0 0 0 1 0 0 0 1 74.987640003662221 30.555970048063529 7.8272222112316063 1 rotate no_reflect no_shear #
lump $-1 $-1 $35 $5 #
transform $-1 1 0 0 0 1 0 0 0 1 74.987640003662221 30.555970048063529 7.8272222112316063 1 rotate no_reflect no_shear #
lump $-1 $-1 $36 $6 #
transform $-1 1 0 0 0 1 0 0 0 1 74.987640003662221 30.555970048063529 7.8272222112316063 1 rotate no_reflect no_shear #
lump $-1 $-1 $37 $7 #
transform $-1 1 0 0 0 1 0 0 0 1 74.987640003662221 30.555970048063529 7.8272222112316063 1 rotate no_reflect no_shear #
lump $-1 $-1 $38 $8 #
transform $-1 1 0 0 0 1 0 0 0 1 74.987640003662221 30.555970048063529 7.8272222112316063 1 rotate no_reflect no_shear #
lump $-1 $-1 $39 $9 #
transform $-1 1 0 0 0 1 0 0 0 1 74.987640003662221 30.555970048063529 7.8272222112316063 1 rotate no_reflect no_shear #
shell $-1 $-1 $-1 $40 $-1 $10 #
shell $-1 $-1 $-1 $41 $-1 $12 #
shell $-1 $-1 $-1 $42 $-1 $14 #
shell $-1 $-1 $-1 $43 $-1 $16 #
shell $-1 $-1 $-1 $44 $-1 $18 #
shell $-1 $-1 $-1 $45 $-1 $20 #
shell $-1 $-1 $-1 $46 $-1 $22 #
shell $-1 $-1 $-1 $47 $-1 $24 #
shell $-1 $-1 $-1 $48 $-1 $26 #
shell $-1 $-1 $-1 $49 $-1 $28 #
face $-1 $50 $51 $30 $-1 $52 forward single #
face $-1 $53 $54 $31 $-1 $55 forward single #
face $-1 $56 $57 $32 $-1 $58 reversed single #
face $-1 $59 $60 $33 $-1 $61 forward single #
face $-1 $62 $63 $34 $-1 $64 reversed single #
face $-1 $65 $66 $35 $-1 $67 forward single #
face $-1 $68 $69 $36 $-1 $70 reversed single #
face $-1 $71 $72 $37 $-1 $73 forward single #
face $-1 $74 $75 $38 $-1 $76 reversed single #
face $-1 $77 $78 $39 $-1 $79 forward single #
face $-1 $80 $81 $30 $-1 $82 reversed single #
loop $-1 $-1 $83 $40 #
plane-surface $-1 0 0 7.8272222112316063 0 0 1 1 0 0 forward_v I I I I #
face $-1 $84 $85 $31 $-1 $86 reversed single #
loop $-1 $-1 $87 $41 #
plane-surface $-1 0 -30.555970048063529 0 0 1 0 0 0 1 forward_v I I I I #
face $-1 $88 $89 $32 $-1 $90 reversed single #
loop $-1 $-1 $91 $42 #
plane-surface $-1 -204.87004358975355 -18.339752287792713 79.085628052962832 0 1 0 -0.86602541151947299 0 0.49999998660252726 forward_v I I I I #
face $-1 $92 $93 $33 $-1 $94 forward single #
loop $-1 $95 $96 $43 #
cone-surface $-1 -73.423050674418576 -15.31272295398661 5.6808287444693004 0.86602541151947299 0 -0.49999998660252726 0.24999999330126363 0 0.43301270575973649 1 I I 0 1 0.5 forward I I I I #
face $-1 $97 $98 $34 $-1 $99 reversed single #
loop $-1 $-1 $100 $44 #
plane-surface $-1 -204.87004358975355 -5.5672321773227091 79.085628052962832 0 1 0 -0.86602541151947299 0 0.49999998660252726 forward_v I I I I #
face $-1 $101 $102 $35 $-1 $103 forward single #
loop $-1 $104 $105 $45 #
cone-surface $-1 -73.423050674418576 -2.5402028435166031 5.6808287444693004 0.86602541151947299 0 -0.49999998660252726 0.24999999330126363 0 0.43301270575973649 1 I I 0 1 0.5 forward I I I I #
face $-1 $106 $107 $36 $-1 $108 reversed single #
loop $-1 $-1 $109 $46 #
plane-surface $-1 -204.87004358975355 7.2052879331472957 79.085628052962832 0 1 0 -0.86602541151947299 0 0.49999998660252726 forward_v I I I I #
face $-1 $110 $111 $37 $-1 $112 forward single #
loop $-1 $113 $114 $47 #
cone-surface $-1 -73.423050674418576 10.232317266953402 5.6808287444693004 0.86602541151947299 0 -0.49999998660252726 0.24999999330126363 0 0.43301270575973649 1 I I 0 1 0.5 forward I I I I #
face $-1 $115 $116 $38 $-1 $117 reversed single #
loop $-1 $-1 $118 $48 #
plane-surface $-1 -204.87004358975355 19.977808043617301 79.085628052962832 0 1 0 -0.86602541151947299 0 0.49999998660252726 forward_v I I I I #
face $-1 $119 $120 $39 $-1 $121 forward single #
loop $-1 $122 $123 $49 #
cone-surface $-1 -73.423050674418576 23.004837377423407 5.6808287444693004 0.86602541151947299 0 -0.49999998660252726 0.24999999330126363 0 0.43301270575973649 1 I I 0 1 0.5 forward I I I I #
face $-1 $124 $125 $30 $-1 $126 reversed single #
loop $-1 $-1 $127 $50 #
plane-surface $-1 0 0 -7.8272222112316063 0 0 1 1 0 0 forward_v I I I I #
coedge $-1 $128 $129 $130 $131 forward $51 $-1 #
face $-1 $132 $133 $31 $-1 $134 forward single #
loop $-1 $-1 $135 $53 #
plane-surface $-1 -74.987640003662221 0 0 1 0 0 0 0 -1 forward_v I I I I #
coedge $-1 $136 $137 $138 $139 forward $54 $-1 #
face $-1 $140 $141 $32 $-1 $142 reversed single #
loop $-1 $-1 $143 $56 #
plane-surface $-1 -74.987640003662221 -15.312722953986608 4.0979900585903408 -0.86602541151947299 0 0.49999998660252726 0.49999998660252726 0 0.86602541151947299 forward_v I I I I #
coedge $-1 $144 $145 $146 $147 reversed $57 $-1 #
face $-1 $-1 $148 $33 $-1 $149 forward single #
loop $-1 $150 $151 $59 #
cone-surface $-1 -72.718491547433089 -15.31272295398661 5.2740513573769965 0.86602541151947299 0 -0.49999998660252726 0.12499999665063181 0 0.21650635287986825 1 I I -0.70710678118654746 0.70710678118654746 0.25 forward I I I I #
loop $-1 $-1 $152 $43 #
coedge $-1 $96 $96 $153 $154 reversed $60 $-1 #
face $-1 $155 $156 $34 $-1 $157 reversed single #
loop $-1 $-1 $158 $62 #
plane-surface $-1 -74.987640003662221 -2.5402028435166031 4.0979900585903408 -0.86602541151947299 0 0.49999998660252726 0.49999998660252726 0 0.86602541151947299 forward_v I I I I #
coedge $-1 $159 $160 $161 $162 reversed $63 $-1 #
face $-1 $-1 $163 $35 $-1 $164 forward single #
loop $-1 $165 $166 $65 #
cone-surface $-1 -72.718491547433089 -2.5402028435166031 5.2740513573769965 0.86602541151947299 0 -0.49999998660252726 0.12499999665063181 0 0.21650635287986825 1 I I -0.70710678118654746 0.70710678118654746 0.25 forward I I I I #
loop $-1 $-1 $167 $45 #
coedge $-1 $105 $105 $168 $169 reversed $66 $-1 #
face $-1 $170 $171 $36 $-1 $172 reversed single #
loop $-1 $-1 $173 $68 #
plane-surface $-1 -74.987640003662221 10.232317266953402 4.0979900585903408 -0.86602541151947299 0 0.49999998660252726 0.49999998660252726 0 0.86602541151947299 forward_v I I I I #
coedge $-1 $174 $175 $176 $177 reversed $69 $-1 #
face $-1 $-1 $178 $37 $-1 $179 forward single #
loop $-1 $180 $181 $71 #
cone-surface $-1 -72.718491547433089 10.232317266953402 5.2740513573769965 0.86602541151947299 0 -0.49999998660252726 0.12499999665063181 0 0.21650635287986825 1 I I -0.70710678118654746 0.70710678118654746 0.25 forward I I I I #
loop $-1 $-1 $182 $47 #
coedge $-1 $114 $114 $183 $184 reversed $72 $-1 #
face $-1 $185 $186 $38 $-1 $187 reversed single #
loop $-1 $-1 $188 $74 #
plane-surface $-1 -74.987640003662221 23.004837377423407 4.0979900585903408 -0.86602541151947299 0 0.49999998660252726 0.49999998660252726 0 0.86602541151947299 forward_v I I I I #
coedge $-1 $189 $190 $191 $192 reversed $75 $-1 #
face $-1 $-1 $193 $39 $-1 $194 forward single #
loop $-1 $195 $196 $77 #
cone-surface $-1 -72.718491547433089 23.004837377423407 5.2740513573769965 0.86602541151947299 0 -0.49999998660252726 0.12499999665063181 0 0.21650635287986825 1 I I -0.70710678118654746 0.70710678118654746 0.25 forward I I I I #
loop $-1 $-1 $197 $49 #
coedge $-1 $123 $123 $198 $199 reversed $78 $-1 #
face $-1 $200 $201 $30 $-1 $202 reversed single #
loop $-1 $-1 $203 $80 #
plane-surface $-1 0 -30.555970048063529 0 0 1 0 0 0 1 forward_v I I I I #
coedge $-1 $204 $205 $206 $207 forward $81 $-1 #
coedge $-1 $208 $83 $209 $210 forward $51 $-1 #
coedge $-1 $83 $208 $211 $212 forward $51 $-1 #
coedge $-1 $213 $214 $83 $131 reversed $215 $-1 #
edge $-1 $216 -30.555970048063529 $217 30.555970048063529 $130 $218 forward 7 unknown #
face $-1 $219 $220 $31 $-1 $221 reversed single #
loop $-1 $-1 $222 $84 #
plane-surface $-1 0 -34.402027259781924 6.4064116081784688 0 0 1 1 0 0 forward_v I I I I #
coedge $-1 $223 $224 $137 $225 forward $85 $-1 #
coedge $-1 $226 $87 $227 $228 reversed $54 $-1 #
coedge $-1 $87 $226 $135 $225 reversed $54 $-1 #
coedge $-1 $229 $222 $87 $139 reversed $133 $-1 #
edge $-1 $230 -74.987640003662221 $231 74.987640003662221 $138 $232 forward 7 unknown #
face $-1 $233 $234 $32 $-1 $235 forward single #
loop $-1 $-1 $236 $88 #
plane-surface $-1 -204.87004358975355 -12.285693620180503 79.085628052962832 0 -1 0 0.86602541151947299 0 -0.49999998660252726 forward_v I I I I #
coedge $-1 $237 $238 $239 $240 reversed $89 $-1 #
coedge $-1 $145 $91 $241 $242 reversed $57 $-1 #
coedge $-1 $91 $144 $237 $243 reversed $57 $-1 #
coedge $-1 $239 $244 $91 $147 forward $234 $-1 #
edge $-1 $245 27.447381791214553 $246 29.600454901490622 $146 $247 forward 7 unknown #
loop $-1 $-1 $153 $92 #
plane-surface $-1 -74.987640003662221 -15.312722953986608 4.0979900585903408 -0.86602541151947299 0 0.49999998660252726 0.49999998660252726 0 0.86602541151947299 forward_v I I I I #
loop $-1 $-1 $248 $59 #
coedge $-1 $151 $151 $152 $249 reversed $93 $-1 #
coedge $-1 $152 $152 $151 $249 forward $95 $-1 #
coedge $-1 $153 $153 $96 $154 forward $148 $-1 #
edge $-1 $250 0 $250 6.2831853071796004 $153 $251 forward 7 unknown #
face $-1 $252 $253 $34 $-1 $254 forward single #
loop $-1 $-1 $255 $97 #
plane-surface $-1 -204.87004358975355 0.48682649028950298 79.085628052962832 0 -1 0 0.86602541151947299 0 -0.49999998660252726 forward_v I I I I #
coedge $-1 $256 $257 $258 $259 reversed $98 $-1 #
coedge $-1 $160 $100 $260 $261 reversed $63 $-1 #
coedge $-1 $100 $159 $256 $262 reversed $63 $-1 #
coedge $-1 $258 $263 $100 $162 forward $253 $-1 #
edge $-1 $264 27.447381791214553 $265 29.600454901490622 $161 $266 forward 7 unknown #
loop $-1 $-1 $168 $101 #
plane-surface $-1 -74.987640003662221 -2.5402028435166031 4.0979900585903408 -0.86602541151947299 0 0.49999998660252726 0.49999998660252726 0 0.86602541151947299 forward_v I I I I #
loop $-1 $-1 $267 $65 #
coedge $-1 $166 $166 $167 $268 reversed $102 $-1 #
coedge $-1 $167 $167 $166 $268 forward $104 $-1 #
coedge $-1 $168 $168 $105 $169 forward $163 $-1 #
edge $-1 $269 0 $269 6.2831853071796004 $168 $270 forward 7 unknown #
face $-1 $271 $272 $36 $-1 $273 forward single #
loop $-1 $-1 $274 $106 #
plane-surface $-1 -204.87004358975355 13.259346600759507 79.085628052962832 0 -1 0 0.86602541151947299 0 -0.49999998660252726 forward_v I I I I #
coedge $-1 $275 $276 $277 $278 reversed $107 $-1 #
coedge $-1 $175 $109 $279 $280 reversed $69 $-1 #
coedge $-1 $109 $174 $275 $281 reversed $69 $-1 #
coedge $-1 $277 $282 $109 $177 forward $272 $-1 #
edge $-1 $283 27.447381791214553 $284 29.600454901490622 $176 $285 forward 7 unknown #
loop $-1 $-1 $183 $110 #
plane-surface $-1 -74.987640003662221 10.232317266953402 4.0979900585903408 -0.86602541151947299 0 0.49999998660252726 0.49999998660252726 0 0.86602541151947299 forward_v I I I I #
loop $-1 $-1 $286 $71 #
coedge $-1 $181 $181 $182 $287 reversed $111 $-1 #
coedge $-1 $182 $182 $181 $287 forward $113 $-1 #
coedge $-1 $183 $183 $114 $184 forward $178 $-1 #
edge $-1 $288 0 $288 6.2831853071796004 $183 $289 forward 7 unknown #
face $-1 $290 $291 $38 $-1 $292 forward single #
loop $-1 $-1 $293 $115 #
plane-surface $-1 -204.87004358975355 26.031866711229512 79.085628052962832 0 -1 0 0.86602541151947299 0 -0.49999998660252726 forward_v I I I I #
coedge $-1 $294 $295 $296 $297 reversed $116 $-1 #
coedge $-1 $190 $118 $298 $299 reversed $75 $-1 #
coedge $-1 $118 $189 $294 $300 reversed $75 $-1 #
coedge $-1 $296 $301 $118 $192 forward $291 $-1 #
edge $-1 $302 27.447381791214553 $303 29.600454901490622 $191 $304 forward 7 unknown #
loop $-1 $-1 $198 $119 #
plane-surface $-1 -74.987640003662221 23.004837377423407 4.0979900585903408 -0.86602541151947299 0 0.49999998660252726 0.49999998660252726 0 0.86602541151947299 forward_v I I I I #
loop $-1 $-1 $305 $77 #
coedge $-1 $196 $196 $197 $306 reversed $120 $-1 #
coedge $-1 $197 $197 $196 $306 forward $122 $-1 #
coedge $-1 $198 $198 $123 $199 forward $193 $-1 #
edge $-1 $307 0 $307 6.2831853071796004 $198 $308 forward 7 unknown #
face $-1 $309 $310 $30 $-1 $311 reversed single #
loop $-1 $-1 $312 $124 #
plane-surface $-1 -74.987640003662221 0 0 1 0 0 0 0 -1 forward_v I I I I #
coedge $-1 $313 $211 $314 $315 forward $125 $-1 #
coedge $-1 $316 $127 $313 $317 forward $81 $-1 #
coedge $-1 $127 $316 $318 $319 forward $81 $-1 #
coedge $-1 $214 $213 $127 $207 reversed $215 $-1 #
edge $-1 $320 -30.555970048063529 $321 30.555970048063529 $206 $322 forward 7 unknown #
coedge $-1 $129 $128 $323 $324 forward $51 $-1 #
coedge $-1 $325 $326 $128 $210 reversed $310 $-1 #
edge $-1 $217 -74.987640003662221 $327 74.987640003662221 $209 $328 forward 7 unknown #
coedge $-1 $203 $329 $129 $212 reversed $125 $-1 #
edge $-1 $330 -74.987640003662221 $216 74.987640003662221 $211 $331 forward 7 unknown #
coedge $-1 $206 $130 $329 $332 forward $215 $-1 #
coedge $-1 $130 $206 $325 $333 reversed $215 $-1 #
loop $-1 $-1 $213 $309 #
vertex $-1 $131 $334 #
vertex $-1 $131 $335 #
straight-curve $-1 74.987640003662221 0 7.8272222112316063 0 1 0 I I #
face $-1 $336 $337 $31 $-1 $338 reversed single #
loop $-1 $-1 $339 $132 #
plane-surface $-1 0 -34.402027259781924 3.4064116081784688 0 0 1 1 0 0 forward_v I I I I #
coedge $-1 $138 $340 $341 $342 forward $133 $-1 #
coedge $-1 $343 $135 $344 $345 reversed $85 $-1 #
coedge $-1 $135 $343 $229 $346 reversed $85 $-1 #
edge $-1 $230 -6.4064116081784688 $347 -3.4064116081784688 $135 $348 forward 7 unknown #
coedge $-1 $137 $136 $349 $350 forward $54 $-1 #
coedge $-1 $341 $351 $136 $228 forward $352 $-1 #
edge $-1 $353 3.4064116081784688 $231 6.4064116081784688 $227 $354 forward 7 unknown #
coedge $-1 $340 $138 $224 $346 forward $133 $-1 #
vertex $-1 $225 $355 #
vertex $-1 $342 $356 #
straight-curve $-1 0 -30.555970048063529 6.4064116081784688 1 0 0 I I #
face $-1 $-1 $357 $32 $-1 $358 reversed single #
loop $-1 $-1 $146 $140 #
plane-surface $-1 0 0 7.8272222112316063 0 0 1 1 0 0 forward_v I I I I #
coedge $-1 $359 $360 $361 $362 reversed $141 $-1 #
coedge $-1 $363 $143 $145 $243 forward $89 $-1 #
coedge $-1 $143 $363 $359 $364 forward $89 $-1 #
coedge $-1 $361 $146 $143 $240 forward $234 $-1 #
edge $-1 $246 -10.683390810799409 $365 -4.6293321431871988 $239 $366 forward 7 unknown #
coedge $-1 $367 $368 $144 $242 forward $357 $-1 #
edge $-1 $369 -35.444823967891075 $245 -31.715591815249809 $241 $370 forward 7 unknown #
edge $-1 $246 -4.3061463359350967 $369 0 $145 $371 forward 7 unknown #
coedge $-1 $146 $361 $367 $372 forward $234 $-1 #
vertex $-1 $242 $373 #
vertex $-1 $147 $374 #
straight-curve $-1 -102.43502179487677 -18.339752287792713 7.8272222112316072 1 0 0 I I #
coedge $-1 $248 $248 $-1 $375 reversed $150 $-1 #
edge $-1 $376 0 $376 6.2831853071796004 $151 $377 forward 7 unknown #
vertex $-1 $154 $378 #
ellipse-curve $-1 -73.911103448524187 -15.31272295398661 5.9626061349109714 -0.86602541151947299 0 0.49999998660252726 0.24999999330126363 0 0.43301270575973649 1 I I #
face $-1 $-1 $379 $34 $-1 $380 reversed single #
loop $-1 $-1 $161 $155 #
plane-surface $-1 0 0 7.8272222112316063 0 0 1 1 0 0 forward_v I I I I #
coedge $-1 $381 $382 $383 $384 reversed $156 $-1 #
coedge $-1 $385 $158 $160 $262 forward $98 $-1 #
coedge $-1 $158 $385 $381 $386 forward $98 $-1 #
coedge $-1 $383 $161 $158 $259 forward $253 $-1 #
edge $-1 $265 -4.2971307555644076 $387 1.7569279120478045 $258 $388 forward 7 unknown #
coedge $-1 $389 $390 $159 $261 forward $379 $-1 #
edge $-1 $391 -35.444823967891075 $264 -31.715591815249809 $260 $392 forward 7 unknown #
edge $-1 $265 -4.3061463359350967 $391 0 $160 $393 forward 7 unknown #
coedge $-1 $161 $383 $389 $394 forward $253 $-1 #
vertex $-1 $162 $395 #
vertex $-1 $162 $396 #
straight-curve $-1 -102.43502179487677 -5.5672321773227091 7.8272222112316072 1 0 0 I I #
coedge $-1 $267 $267 $-1 $397 reversed $165 $-1 #
edge $-1 $398 0 $398 6.2831853071796004 $166 $399 forward 7 unknown #
vertex $-1 $169 $400 #
ellipse-curve $-1 -73.911103448524187 -2.5402028435166031 5.9626061349109714 -0.86602541151947299 0 0.49999998660252726 0.24999999330126363 0 0.43301270575973649 1 I I #
face $-1 $-1 $401 $36 $-1 $402 reversed single #
loop $-1 $-1 $176 $170 #
plane-surface $-1 0 0 7.8272222112316063 0 0 1 1 0 0 forward_v I I I I #
coedge $-1 $403 $404 $405 $406 reversed $171 $-1 #
coedge $-1 $407 $173 $175 $281 forward $107 $-1 #
coedge $-1 $173 $407 $403 $408 forward $107 $-1 #
coedge $-1 $405 $176 $173 $278 forward $272 $-1 #
edge $-1 $284 2.0891292996705948 $409 8.143187967282806 $277 $410 forward 7 unknown #
coedge $-1 $411 $412 $174 $280 forward $401 $-1 #
edge $-1 $413 -35.444823967891075 $283 -31.715591815249809 $279 $414 forward 7 unknown #
edge $-1 $284 -4.3061463359350967 $413 0 $175 $415 forward 7 unknown #
coedge $-1 $176 $405 $411 $416 forward $272 $-1 #
vertex $-1 $177 $417 #
vertex $-1 $177 $418 #
straight-curve $-1 -102.43502179487677 7.2052879331472957 7.8272222112316072 1 0 0 I I #
coedge $-1 $286 $286 $-1 $419 reversed $180 $-1 #
edge $-1 $420 0 $420 6.2831853071796004 $181 $421 forward 7 unknown #
vertex $-1 $184 $422 #
ellipse-curve $-1 -73.911103448524187 10.232317266953402 5.9626061349109714 -0.86602541151947299 0 0.49999998660252726 0.24999999330126363 0 0.43301270575973649 1 I I #
face $-1 $-1 $423 $38 $-1 $424 reversed single #
loop $-1 $-1 $191 $185 #
plane-surface $-1 0 0 7.8272222112316063 0 0 1 1 0 0 forward_v I I I I #
coedge $-1 $425 $426 $427 $428 reversed $186 $-1 #
coedge $-1 $429 $188 $190 $300 forward $116 $-1 #
coedge $-1 $188 $429 $425 $430 forward $116 $-1 #
coedge $-1 $427 $191 $188 $297 forward $291 $-1 #
edge $-1 $303 8.4753893549055981 $431 14.529448022517808 $296 $432 forward 7 unknown #
coedge $-1 $433 $434 $189 $299 forward $423 $-1 #
edge $-1 $435 -35.444823967891075 $302 -31.715591815249809 $298 $436 forward 7 unknown #
edge $-1 $303 -4.3061463359350967 $435 0 $190 $437 forward 7 unknown #
coedge $-1 $191 $427 $433 $438 forward $291 $-1 #
vertex $-1 $192 $439 #
vertex $-1 $192 $440 #
straight-curve $-1 -102.43502179487677 19.977808043617301 7.8272222112316072 1 0 0 I I #
coedge $-1 $305 $305 $-1 $441 reversed $195 $-1 #
edge $-1 $442 0 $442 6.2831853071796004 $196 $443 forward 7 unknown #
vertex $-1 $199 $444 #
ellipse-curve $-1 -73.911103448524187 23.004837377423407 5.9626061349109714 -0.86602541151947299 0 0.49999998660252726 0.24999999330126363 0 0.43301270575973649 1 I I #
face $-1 $-1 $215 $30 $-1 $445 reversed single #
loop $-1 $-1 $325 $200 #
plane-surface $-1 0 30.555970048063529 0 0 -1 0 0 0 -1 forward_v I I I I #
coedge $-1 $446 $323 $326 $447 forward $201 $-1 #
coedge $-1 $329 $203 $204 $317 reversed $125 $-1 #
coedge $-1 $323 $446 $203 $315 reversed $201 $-1 #
edge $-1 $330 -7.8272222112316063 $448 7.8272222112316063 $314 $449 forward 7 unknown #
coedge $-1 $205 $204 $446 $450 forward $81 $-1 #
edge $-1 $321 -74.987640003662221 $448 74.987640003662221 $313 $451 forward 7 unknown #
coedge $-1 $326 $325 $205 $319 reversed $310 $-1 #
edge $-1 $452 -74.987640003662221 $320 74.987640003662221 $318 $453 forward 7 unknown #
vertex $-1 $207 $454 #
vertex $-1 $332 $455 #
straight-curve $-1 74.987640003662221 0 -7.8272222112316063 0 -1 0 I I #
coedge $-1 $312 $314 $208 $324 reversed $201 $-1 #
edge $-1 $327 -30.555970048063529 $330 30.555970048063529 $323 $456 forward 7 unknown #
coedge $-1 $318 $209 $214 $333 forward $310 $-1 #
coedge $-1 $209 $318 $312 $447 reversed $310 $-1 #
vertex $-1 $210 $457 #
straight-curve $-1 0 30.555970048063529 7.8272222112316063 -1 0 0 I I #
coedge $-1 $211 $313 $213 $332 reversed $125 $-1 #
vertex $-1 $324 $458 #
straight-curve $-1 0 -30.555970048063529 7.8272222112316063 1 0 0 I I #
edge $-1 $216 -7.8272222112316063 $321 7.8272222112316063 $213 $459 forward 7 unknown #
edge $-1 $217 -7.8272222112316063 $320 7.8272222112316063 $214 $460 forward 7 unknown #
point $-1 74.987640003662221 -30.555970048063529 7.8272222112316063 #
point $-1 74.987640003662221 30.555970048063529 7.8272222112316063 #
face $-1 $-1 $352 $31 $-1 $461 reversed single #
loop $-1 $-1 $462 $219 #
plane-surface $-1 0 -38.24808447150032 4.9064116081784688 0 1 0 0 0 1 forward_v I I I I #
coedge $-1 $463 $349 $351 $464 forward $220 $-1 #
coedge $-1 $222 $229 $465 $466 forward $133 $-1 #
coedge $-1 $467 $227 $222 $342 reversed $352 $-1 #
edge $-1 $468 -3.8460572117183958 $231 3.8460572117183958 $341 $469 forward 7 unknown #
coedge $-1 $224 $223 $462 $470 reversed $85 $-1 #
coedge $-1 $349 $463 $223 $345 forward $220 $-1 #
edge $-1 $471 -3.8460572117183958 $347 3.8460572117183958 $223 $472 forward 7 unknown #
edge $-1 $230 -3.8460572117183958 $473 3.8460572117183958 $224 $474 forward 7 unknown #
vertex $-1 $225 $475 #
straight-curve $-1 -74.987640003662221 -30.555970048063529 0 0 0 -1 I I #
coedge $-1 $339 $344 $226 $350 reversed $220 $-1 #
edge $-1 $353 -74.987640003662221 $347 74.987640003662221 $349 $476 forward 7 unknown #
coedge $-1 $227 $467 $339 $464 reversed $352 $-1 #
loop $-1 $-1 $227 $336 #
vertex $-1 $228 $477 #
straight-curve $-1 74.987640003662221 -30.555970048063529 0 0 0 1 I I #
point $-1 -74.987640003662221 -30.555970048063529 6.4064116081784688 #
point $-1 74.987640003662221 -30.555970048063529 6.4064116081784688 #
loop $-1 $-1 $241 $233 #
plane-surface $-1 -74.987640003662221 0 0 1 0 0 0 0 -1 forward_v I I I I #
coedge $-1 $360 $236 $238 $364 reversed $141 $-1 #
coedge $-1 $236 $359 $478 $479 reversed $141 $-1 #
coedge $-1 $244 $239 $236 $362 forward $234 $-1 #
edge $-1 $365 -29.600454901490622 $480 -27.447381791214553 $361 $481 forward 7 unknown #
coedge $-1 $238 $237 $368 $482 reversed $89 $-1 #
edge $-1 $483 0 $365 4.3061463359350967 $359 $484 forward 7 unknown #
vertex $-1 $240 $485 #
straight-curve $-1 -72.834566893386153 -7.6563614769933039 7.8272222112316072 0 1 0 I I #
coedge $-1 $478 $241 $244 $372 reversed $357 $-1 #
coedge $-1 $241 $478 $363 $482 forward $357 $-1 #
vertex $-1 $242 $486 #
straight-curve $-1 -74.987640003662221 -18.339752287792713 39.542814026481416 0 0 1 I I #
straight-curve $-1 -74.987640003662221 -18.339752287792713 4.0979900585903408 -0.49999998660252726 0 -0.86602541151947299 I I #
edge $-1 $480 12.285693620180503 $245 18.339752287792713 $367 $487 forward 7 unknown #
point $-1 -74.987640003662221 -18.339752287792713 7.8272222112316063 #
point $-1 -72.834566893386153 -18.339752287792713 7.8272222112316054 #
edge $-1 $488 1 $488 0 $248 $-1 forward 7 unknown #
vertex $-1 $249 $489 #
ellipse-curve $-1 -72.93499790031295 -15.31272295398661 5.3990513540276286 -0.86602541151947299 0 0.49999998660252726 0.24999999330126363 0 0.43301270575973649 1 I I #
point $-1 -73.661103455222914 -15.31272295398661 6.3956188406707088 #
loop $-1 $-1 $260 $252 #
plane-surface $-1 -74.987640003662221 0 0 1 0 0 0 0 -1 forward_v I I I I #
coedge $-1 $382 $255 $257 $386 reversed $156 $-1 #
coedge $-1 $255 $381 $490 $491 reversed $156 $-1 #
coedge $-1 $263 $258 $255 $384 forward $253 $-1 #
edge $-1 $387 -29.600454901490622 $492 -27.447381791214553 $383 $493 forward 7 unknown #
coedge $-1 $257 $256 $390 $494 reversed $98 $-1 #
edge $-1 $495 0 $387 4.3061463359350967 $381 $496 forward 7 unknown #
vertex $-1 $259 $497 #
straight-curve $-1 -72.834566893386153 -1.2701014217583015 7.8272222112316072 0 1 0 I I #
coedge $-1 $490 $260 $263 $394 reversed $379 $-1 #
coedge $-1 $260 $490 $385 $494 forward $379 $-1 #
vertex $-1 $261 $498 #
straight-curve $-1 -74.987640003662221 -5.5672321773227091 39.542814026481416 0 0 1 I I #
straight-curve $-1 -74.987640003662221 -5.5672321773227091 4.0979900585903408 -0.49999998660252726 0 -0.86602541151947299 I I #
edge $-1 $492 -0.48682649028950298 $264 5.5672321773227091 $389 $499 forward 7 unknown #
point $-1 -74.987640003662221 -5.5672321773227091 7.8272222112316063 #
point $-1 -72.834566893386153 -5.5672321773227091 7.8272222112316054 #
edge $-1 $500 1 $500 0 $267 $-1 forward 7 unknown #
vertex $-1 $268 $501 #
ellipse-curve $-1 -72.93499790031295 -2.5402028435166031 5.3990513540276286 -0.86602541151947299 0 0.49999998660252726 0.24999999330126363 0 0.43301270575973649 1 I I #
point $-1 -73.661103455222914 -2.5402028435166031 6.3956188406707088 #
loop $-1 $-1 $279 $271 #
plane-surface $-1 -74.987640003662221 0 0 1 0 0 0 0 -1 forward_v I I I I #
coedge $-1 $404 $274 $276 $408 reversed $171 $-1 #
coedge $-1 $274 $403 $502 $503 reversed $171 $-1 #
coedge $-1 $282 $277 $274 $406 forward $272 $-1 #
edge $-1 $409 -29.600454901490622 $504 -27.447381791214553 $405 $505 forward 7 unknown #
coedge $-1 $276 $275 $412 $506 reversed $107 $-1 #
edge $-1 $507 0 $409 4.3061463359350967 $403 $508 forward 7 unknown #
vertex $-1 $278 $509 #
straight-curve $-1 -72.834566893386153 5.1161586334767009 7.8272222112316072 0 1 0 I I #
coedge $-1 $502 $279 $282 $416 reversed $401 $-1 #
coedge $-1 $279 $502 $407 $506 forward $401 $-1 #
vertex $-1 $280 $510 #
straight-curve $-1 -74.987640003662221 7.2052879331472957 39.542814026481416 0 0 1 I I #
straight-curve $-1 -74.987640003662221 7.2052879331472957 4.0979900585903408 -0.49999998660252726 0 -0.86602541151947299 I I #
edge $-1 $504 -13.259346600759507 $283 -7.2052879331472957 $411 $511 forward 7 unknown #
point $-1 -74.987640003662221 7.2052879331472957 7.8272222112316063 #
point $-1 -72.834566893386153 7.2052879331472957 7.8272222112316054 #
edge $-1 $512 1 $512 0 $286 $-1 forward 7 unknown #
vertex $-1 $287 $513 #
ellipse-curve $-1 -72.93499790031295 10.232317266953402 5.3990513540276286 -0.86602541151947299 0 0.49999998660252726 0.24999999330126363 0 0.43301270575973649 1 I I #
point $-1 -73.661103455222914 10.232317266953402 6.3956188406707088 #
loop $-1 $-1 $298 $290 #
plane-surface $-1 -74.987640003662221 0 0 1 0 0 0 0 -1 forward_v I I I I #
coedge $-1 $426 $293 $295 $430 reversed $186 $-1 #
coedge $-1 $293 $425 $514 $515 reversed $186 $-1 #
coedge $-1 $301 $296 $293 $428 forward $291 $-1 #
edge $-1 $431 -29.600454901490622 $516 -27.447381791214553 $427 $517 forward 7 unknown #
coedge $-1 $295 $294 $434 $518 reversed $116 $-1 #
edge $-1 $519 0 $431 4.3061463359350967 $425 $520 forward 7 unknown #
vertex $-1 $297 $521 #
straight-curve $-1 -72.834566893386153 11.502418688711703 7.8272222112316072 0 1 0 I I #
coedge $-1 $514 $298 $301 $438 reversed $423 $-1 #
coedge $-1 $298 $514 $429 $518 forward $423 $-1 #
vertex $-1 $299 $522 #
straight-curve $-1 -74.987640003662221 19.977808043617301 39.542814026481416 0 0 1 I I #
straight-curve $-1 -74.987640003662221 19.977808043617301 4.0979900585903408 -0.49999998660252726 0 -0.86602541151947299 I I #
edge $-1 $516 -26.031866711229512 $302 -19.977808043617301 $433 $523 forward 7 unknown #
point $-1 -74.987640003662221 19.977808043617301 7.8272222112316063 #
point $-1 -72.834566893386153 19.977808043617301 7.8272222112316054 #
edge $-1 $524 1 $524 0 $305 $-1 forward 7 unknown #
vertex $-1 $306 $525 #
ellipse-curve $-1 -72.93499790031295 23.004837377423407 5.3990513540276286 -0.86602541151947299 0 0.49999998660252726 0.24999999330126363 0 0.43301270575973649 1 I I #
point $-1 -73.661103455222914 23.004837377423407 6.3956188406707088 #
plane-surface $-1 74.987640003662221 0 0 -1 0 0 0 0 1 forward_v I I I I #
coedge $-1 $314 $312 $316 $450 reversed $201 $-1 #
edge $-1 $327 -7.8272222112316063 $452 7.8272222112316063 $326 $526 forward 7 unknown #
vertex $-1 $450 $527 #
straight-curve $-1 -74.987640003662221 -30.555970048063529 0 0 0 -1 I I #
edge $-1 $448 -30.555970048063529 $452 30.555970048063529 $446 $528 forward 7 unknown #
straight-curve $-1 0 -30.555970048063529 -7.8272222112316063 -1 0 0 I I #
vertex $-1 $319 $529 #
straight-curve $-1 0 30.555970048063529 -7.8272222112316063 1 0 0 I I #
point $-1 74.987640003662221 30.555970048063529 -7.8272222112316063 #
point $-1 74.987640003662221 -30.555970048063529 -7.8272222112316063 #
straight-curve $-1 -74.987640003662221 0 7.8272222112316063 0 -1 0 I I #
point $-1 -74.987640003662221 30.555970048063529 7.8272222112316063 #
point $-1 -74.987640003662221 -30.555970048063529 7.8272222112316063 #
straight-curve $-1 74.987640003662221 -30.555970048063529 0 0 0 -1 I I #
straight-curve $-1 74.987640003662221 30.555970048063529 0 0 0 -1 I I #
plane-surface $-1 74.987640003662221 0 0 -1 0 0 0 0 1 forward_v I I I I #
coedge $-1 $530 $465 $343 $470 forward $337 $-1 #
coedge $-1 $344 $339 $530 $531 forward $220 $-1 #
edge $-1 $353 -3.8460572117183958 $532 3.8460572117183958 $351 $533 forward 7 unknown #
coedge $-1 $462 $534 $340 $466 reversed $337 $-1 #
edge $-1 $473 -74.987640003662221 $468 74.987640003662221 $465 $535 forward 7 unknown #
coedge $-1 $351 $341 $534 $536 forward $352 $-1 #
vertex $-1 $342 $537 #
straight-curve $-1 74.987640003662221 -34.402027259781924 6.4064116081784688 0 1 0 I I #
edge $-1 $473 -1.5 $471 1.5 $343 $538 forward 7 unknown #
vertex $-1 $345 $539 #
straight-curve $-1 -74.987640003662221 -34.402027259781924 3.4064116081784688 0 1 0 I I #
vertex $-1 $346 $540 #
straight-curve $-1 -74.987640003662221 -34.402027259781924 6.4064116081784688 0 -1 0 I I #
point $-1 -74.987640003662221 -30.555970048063529 3.4064116081784688 #
straight-curve $-1 0 -30.555970048063529 3.4064116081784688 -1 0 0 I I #
point $-1 74.987640003662221 -30.555970048063529 3.4064116081784688 #
coedge $-1 $368 $367 $360 $479 forward $357 $-1 #
edge $-1 $480 31.715591815249809 $483 35.444823967891075 $478 $541 forward 7 unknown #
vertex $-1 $372 $542 #
straight-curve $-1 -102.43502179487677 -12.285693620180503 7.8272222112316072 -1 0 0 I I #
edge $-1 $483 4.6293321431871988 $369 10.683390810799409 $368 $543 forward 7 unknown #
vertex $-1 $482 $544 #
straight-curve $-1 -74.987640003662221 -12.285693620180503 4.0979900585903408 0.49999998660252726 0 0.86602541151947299 I I #
point $-1 -72.834566893386153 -12.285693620180503 7.8272222112316054 #
point $-1 -74.987640003662221 -18.339752287792713 4.0979900585903408 #
straight-curve $-1 -74.987640003662221 0 7.8272222112316063 0 -1 0 I I #
vertex $-1 $375 $545 #
point $-1 -72.684997907011692 -15.31272295398661 5.8320640597873652 #
coedge $-1 $390 $389 $382 $491 forward $379 $-1 #
edge $-1 $492 31.715591815249809 $495 35.444823967891075 $490 $546 forward 7 unknown #
vertex $-1 $394 $547 #
straight-curve $-1 -102.43502179487677 0.48682649028950298 7.8272222112316072 -1 0 0 I I #
edge $-1 $495 -1.7569279120478045 $391 4.2971307555644076 $390 $548 forward 7 unknown #
vertex $-1 $494 $549 #
straight-curve $-1 -74.987640003662221 0.48682649028950298 4.0979900585903408 0.49999998660252726 0 0.86602541151947299 I I #
point $-1 -72.834566893386153 0.48682649028950298 7.8272222112316054 #
point $-1 -74.987640003662221 -5.5672321773227091 4.0979900585903408 #
straight-curve $-1 -74.987640003662221 0 7.8272222112316063 0 -1 0 I I #
vertex $-1 $397 $550 #
point $-1 -72.684997907011692 -2.5402028435166031 5.8320640597873652 #
coedge $-1 $412 $411 $404 $503 forward $401 $-1 #
edge $-1 $504 31.715591815249809 $507 35.444823967891075 $502 $551 forward 7 unknown #
vertex $-1 $416 $552 #
straight-curve $-1 -102.43502179487677 13.259346600759507 7.8272222112316072 -1 0 0 I I #
edge $-1 $507 -8.143187967282806 $413 -2.0891292996705948 $412 $553 forward 7 unknown #
vertex $-1 $506 $554 #
straight-curve $-1 -74.987640003662221 13.259346600759507 4.0979900585903408 0.49999998660252726 0 0.86602541151947299 I I #
point $-1 -72.834566893386153 13.259346600759507 7.8272222112316054 #
point $-1 -74.987640003662221 7.2052879331472957 4.0979900585903408 #
straight-curve $-1 -74.987640003662221 0 7.8272222112316063 0 -1 0 I I #
vertex $-1 $419 $555 #
point $-1 -72.684997907011692 10.232317266953402 5.8320640597873652 #
coedge $-1 $434 $433 $426 $515 forward $423 $-1 #
edge $-1 $516 31.715591815249809 $519 35.444823967891075 $514 $556 forward 7 unknown #
vertex $-1 $438 $557 #
straight-curve $-1 -102.43502179487677 26.031866711229512 7.8272222112316072 -1 0 0 I I #
edge $-1 $519 -14.529448022517808 $435 -8.4753893549055981 $434 $558 forward 7 unknown #
vertex $-1 $518 $559 #
straight-curve $-1 -74.987640003662221 26.031866711229512 4.0979900585903408 0.49999998660252726 0 0.86602541151947299 I I #
point $-1 -72.834566893386153 26.031866711229512 7.8272222112316054 #
point $-1 -74.987640003662221 19.977808043617301 4.0979900585903408 #
straight-curve $-1 -74.987640003662221 0 7.8272222112316063 0 -1 0 I I #
vertex $-1 $441 $560 #
point $-1 -72.684997907011692 23.004837377423407 5.8320640597873652 #
straight-curve $-1 -74.987640003662221 30.555970048063529 0 0 0 -1 I I #
point $-1 -74.987640003662221 -30.555970048063529 -7.8272222112316063 #
straight-curve $-1 -74.987640003662221 0 -7.8272222112316063 0 1 0 I I #
point $-1 -74.987640003662221 30.555970048063529 -7.8272222112316063 #
coedge $-1 $534 $462 $463 $531 reversed $337 $-1 #
edge $-1 $532 -74.987640003662221 $471 74.987640003662221 $530 $561 forward 7 unknown #
vertex $-1 $536 $562 #
straight-curve $-1 74.987640003662221 -34.402027259781924 3.4064116081784688 0 -1 0 I I #
coedge $-1 $465 $530 $467 $536 reversed $337 $-1 #
straight-curve $-1 0 -38.24808447150032 6.4064116081784688 1 0 0 I I #
edge $-1 $468 -1.5 $532 1.5 $467 $563 forward 7 unknown #
point $-1 74.987640003662221 -38.24808447150032 6.4064116081784688 #
straight-curve $-1 -74.987640003662221 -38.24808447150032 4.9064116081784688 0 0 -1 I I #
point $-1 -74.987640003662221 -38.24808447150032 3.4064116081784688 #
point $-1 -74.987640003662221 -38.24808447150032 6.4064116081784688 #
straight-curve $-1 -74.987640003662221 -12.285693620180503 39.542814026481416 0 0 -1 I I #
point $-1 -74.987640003662221 -12.285693620180503 7.8272222112316063 #
straight-curve $-1 -74.987640003662221 -7.6563614769933039 4.0979900585903337 0 -1 0 I I #
point $-1 -74.987640003662221 -12.285693620180503 4.0979900585903408 #
point $-1 -72.501985194553228 -15.31272295398661 5.1490513607263644 #
straight-curve $-1 -74.987640003662221 0.48682649028950298 39.542814026481416 0 0 -1 I I #
point $-1 -74.987640003662221 0.48682649028950298 7.8272222112316063 #
straight-curve $-1 -74.987640003662221 -1.2701014217583015 4.0979900585903337 0 -1 0 I I #
point $-1 -74.987640003662221 0.48682649028950298 4.0979900585903408 #
point $-1 -72.501985194553228 -2.5402028435166031 5.1490513607263644 #
straight-curve $-1 -74.987640003662221 13.259346600759507 39.542814026481416 0 0 -1 I I #
point $-1 -74.987640003662221 13.259346600759507 7.8272222112316063 #
straight-curve $-1 -74.987640003662221 5.1161586334767009 4.0979900585903337 0 -1 0 I I #
point $-1 -74.987640003662221 13.259346600759507 4.0979900585903408 #
point $-1 -72.501985194553228 10.232317266953402 5.1490513607263644 #
straight-curve $-1 -74.987640003662221 26.031866711229512 39.542814026481416 0 0 -1 I I #
point $-1 -74.987640003662221 26.031866711229512 7.8272222112316063 #
straight-curve $-1 -74.987640003662221 11.502418688711703 4.0979900585903337 0 -1 0 I I #
point $-1 -74.987640003662221 26.031866711229512 4.0979900585903408 #
point $-1 -72.501985194553228 23.004837377423407 5.1490513607263644 #
straight-curve $-1 0 -38.24808447150032 3.4064116081784688 -1 0 0 I I #
point $-1 74.987640003662221 -38.24808447150032 3.4064116081784688 #
straight-curve $-1 74.987640003662221 -38.24808447150032 4.9064116081784688 0 0 -1 I I #
End-of-ACIS-data 