500 0 11 0           
7 Unknown 11 ACIS 5.0 NT 24 Fri Mar 26 19:39:49 1999 
-1 9.9999999999999995e-007 1e-010 
body $-1 $11 $-1 $12 #
body $-1 $13 $-1 $14 #
body $-1 $15 $-1 $16 #
body $-1 $17 $-1 $18 #
body $-1 $19 $-1 $20 #
body $-1 $21 $-1 $22 #
body $-1 $23 $-1 $24 #
body $-1 $25 $-1 $26 #
body $-1 $27 $-1 $28 #
body $-1 $29 $-1 $30 #
body $-1 $31 $-1 $32 #
lump $-1 $-1 $33 $0 #
transform $-1 1 0 0 0 1 0 0 0 1 44.542374950407421 20.235671491111788 8.8298473284941323 1 rotate no_reflect no_shear #
lump $-1 $-1 $34 $1 #
transform $-1 1 0 0 0 1 0 0 0 1 44.542374950407421 20.235671491111788 8.8298473284941323 1 rotate no_reflect no_shear #
lump $-1 $-1 $35 $2 #
transform $-1 1 0 0 0 1 0 0 0 1 44.542374950407421 20.235671491111788 8.8298473284941323 1 rotate no_reflect no_shear #
lump $-1 $-1 $36 $3 #
transform $-1 1 0 0 0 1 0 0 0 1 44.542374950407421 20.235671491111788 8.8298473284941323 1 rotate no_reflect no_shear #
lump $-1 $-1 $37 $4 #
transform $-1 1 0 0 0 1 0 0 0 1 44.542374950407421 20.235671491111788 8.8298473284941323 1 rotate no_reflect no_shear #
lump $-1 $-1 $38 $5 #
transform $-1 1 0 0 0 1 0 0 0 1 44.542374950407421 20.235671491111788 8.8298473284941323 1 rotate no_reflect no_shear #
lump $-1 $-1 $39 $6 #
transform $-1 1 0 0 0 1 0 0 0 1 44.542374950407421 20.235671491111788 8.8298473284941323 1 rotate no_reflect no_shear #
lump $-1 $-1 $40 $7 #
transform $-1 1 0 0 0 1 0 0 0 1 44.542374950407421 20.235671491111788 8.8298473284941323 1 rotate no_reflect no_shear #
lump $-1 $-1 $41 $8 #
transform $-1 1 0 0 0 1 0 0 0 1 44.542374950407421 20.235671491111788 8.8298473284941323 1 rotate no_reflect no_shear #
lump $-1 $-1 $42 $9 #
transform $-1 1 0 0 0 1 0 0 0 1 44.542374950407421 20.235671491111788 8.8298473284941323 1 rotate no_reflect no_shear #
lump $-1 $-1 $43 $10 #
transform $-1 1 0 0 0 1 0 0 0 1 44.542374950407421 20.235671491111788 8.8298473284941323 1 rotate no_reflect no_shear #
shell $-1 $-1 $-1 $44 $-1 $11 #
shell $-1 $-1 $-1 $45 $-1 $13 #
shell $-1 $-1 $-1 $46 $-1 $15 #
shell $-1 $-1 $-1 $47 $-1 $17 #
shell $-1 $-1 $-1 $48 $-1 $19 #
shell $-1 $-1 $-1 $49 $-1 $21 #
shell $-1 $-1 $-1 $50 $-1 $23 #
shell $-1 $-1 $-1 $51 $-1 $25 #
shell $-1 $-1 $-1 $52 $-1 $27 #
shell $-1 $-1 $-1 $53 $-1 $29 #
shell $-1 $-1 $-1 $54 $-1 $31 #
face $-1 $55 $56 $33 $-1 $57 forward single #
face $-1 $58 $59 $34 $-1 $60 forward single #
face $-1 $61 $62 $35 $-1 $63 reversed single #
face $-1 $64 $65 $36 $-1 $66 reversed single #
face $-1 $67 $68 $37 $-1 $69 forward single #
face $-1 $70 $71 $38 $-1 $72 forward single #
face $-1 $73 $74 $39 $-1 $75 forward single #
face $-1 $76 $77 $40 $-1 $78 reversed single #
face $-1 $79 $80 $41 $-1 $81 forward single #
face $-1 $82 $83 $42 $-1 $84 forward single #
face $-1 $85 $86 $43 $-1 $87 forward single #
face $-1 $88 $89 $33 $-1 $90 reversed single #
loop $-1 $-1 $91 $44 #
plane-surface $-1 0 0 8.8298473284941323 0 0 1 1 0 0 forward_v I I I I #
face $-1 $92 $93 $34 $-1 $94 reversed single #
loop $-1 $-1 $95 $45 #
plane-surface $-1 0 -20.235671491111788 0 0 1 0 0 0 1 forward_v I I I I #
face $-1 $96 $97 $35 $-1 $98 reversed single #
loop $-1 $-1 $99 $46 #
plane-surface $-1 0 16.354214288924922 5.8298473284941323 0 0 1 1 0 0 forward_v I I I I #
face $-1 $100 $101 $36 $-1 $102 reversed single #
loop $-1 $-1 $103 $47 #
plane-surface $-1 -113.77422930043168 -9.6298192958984572 59.341348343828862 0 1 0 -0.77714596973225614 0 0.62932038083071107 forward_v I I I I #
face $-1 $104 $105 $37 $-1 $106 forward single #
loop $-1 $107 $108 $48 #
cone-surface $-1 -41.534288966886344 -8.3451880262794447 5.4384220709201712 0.77714596973225614 0 -0.62932038083071107 0.31466019041535553 0 0.38857298486612807 1 I I 0 1 0.5 forward I I I I #
face $-1 $109 $110 $38 $-1 $111 forward single #
loop $-1 $112 $113 $49 #
cone-surface $-1 -41.534288966886344 -6.4182411218509259 5.4384220709201712 0.77714596973225614 0 -0.62932038083071107 0.31466019041535553 0 0.38857298486612807 1 I I 0 1 0.5 forward I I I I #
face $-1 $114 $115 $39 $-1 $116 forward single #
loop $-1 $117 $118 $50 #
cone-surface $-1 -41.534288966886344 -4.4912942174224071 5.4384220709201712 0.77714596973225614 0 -0.62932038083071107 0.31466019041535553 0 0.38857298486612807 1 I I 0 1 0.5 forward I I I I #
face $-1 $119 $120 $40 $-1 $121 reversed single #
loop $-1 $-1 $122 $51 #
plane-surface $-1 57.711380566642234 -3.2066629478033946 128.57320269385312 0 -1 0 -0.77714596973225614 0 -0.62932038083071107 forward_v I I I I #
face $-1 $123 $124 $41 $-1 $125 forward single #
loop $-1 $126 $127 $52 #
cone-surface $-1 41.534288966886351 -8.3451880262794447 5.4384220709201729 -0.77714596973225614 0 -0.62932038083071107 0.31466019041535553 0 -0.38857298486612807 1 I I 0 1 0.5 forward I I I I #
face $-1 $128 $129 $42 $-1 $130 forward single #
loop $-1 $131 $132 $53 #
cone-surface $-1 41.534288966886351 -6.4182411218509259 5.4384220709201729 -0.77714596973225614 0 -0.62932038083071107 0.31466019041535553 0 -0.38857298486612807 1 I I 0 1 0.5 forward I I I I #
face $-1 $133 $134 $43 $-1 $135 forward single #
loop $-1 $136 $137 $54 #
cone-surface $-1 41.534288966886351 -4.4912942174224071 5.4384220709201729 -0.77714596973225614 0 -0.62932038083071107 0.31466019041535553 0 -0.38857298486612807 1 I I 0 1 0.5 forward I I I I #
face $-1 $138 $139 $33 $-1 $140 reversed single #
loop $-1 $-1 $141 $55 #
plane-surface $-1 0 0 -8.8298473284941323 0 0 1 1 0 0 forward_v I I I I #
coedge $-1 $142 $143 $144 $145 forward $56 $-1 #
face $-1 $146 $147 $34 $-1 $148 reversed single #
loop $-1 $-1 $149 $58 #
plane-surface $-1 0 0 -8.8298473284941323 0 0 1 1 0 0 forward_v I I I I #
coedge $-1 $150 $151 $152 $153 forward $59 $-1 #
face $-1 $154 $155 $35 $-1 $156 reversed single #
loop $-1 $-1 $157 $61 #
plane-surface $-1 0 12.47275708673806 7.3298473284941323 0 1 0 0 0 1 forward_v I I I I #
coedge $-1 $158 $159 $160 $161 reversed $62 $-1 #
face $-1 $162 $163 $36 $-1 $164 reversed single #
loop $-1 $-1 $165 $64 #
plane-surface $-1 -44.542374950407421 -6.4182411218509259 3.2784996100394181 -0.77714596973225614 0 0.62932038083071107 0.62932038083071107 0 0.77714596973225614 forward_v I I I I #
coedge $-1 $166 $167 $168 $169 reversed $65 $-1 #
face $-1 $-1 $170 $37 $-1 $171 forward single #
loop $-1 $172 $173 $67 #
cone-surface $-1 -40.579612803058247 -8.3451880262794447 4.6653405773658942 0.77714596973225614 0 -0.62932038083071107 0.15733009520767777 0 0.19428649243306403 1 I I -0.70710678118654624 0.70710678118654879 0.25 forward I I I I #
loop $-1 $-1 $174 $48 #
coedge $-1 $108 $108 $175 $176 reversed $68 $-1 #
face $-1 $-1 $177 $38 $-1 $178 forward single #
loop $-1 $179 $180 $70 #
cone-surface $-1 -40.579612803058247 -6.4182411218509259 4.6653405773658942 0.77714596973225614 0 -0.62932038083071107 0.15733009520767777 0 0.19428649243306403 1 I I -0.70710678118654624 0.70710678118654879 0.25 forward I I I I #
loop $-1 $-1 $181 $49 #
coedge $-1 $113 $113 $182 $183 reversed $71 $-1 #
face $-1 $-1 $184 $39 $-1 $185 forward single #
loop $-1 $186 $187 $73 #
cone-surface $-1 -40.579612803058247 -4.4912942174224071 4.6653405773658942 0.77714596973225614 0 -0.62932038083071107 0.15733009520767777 0 0.19428649243306403 1 I I -0.70710678118654624 0.70710678118654879 0.25 forward I I I I #
loop $-1 $-1 $188 $50 #
coedge $-1 $118 $118 $189 $190 reversed $74 $-1 #
face $-1 $191 $192 $40 $-1 $193 reversed single #
loop $-1 $-1 $194 $76 #
plane-surface $-1 -11.52047378338203 -6.4182411218509259 72.510353960063668 0.77714596973225614 0 0.62932038083071107 0.62932038083071107 0 -0.77714596973225614 forward_v I I I I #
coedge $-1 $195 $196 $197 $198 reversed $77 $-1 #
face $-1 $-1 $199 $41 $-1 $200 forward single #
loop $-1 $201 $202 $79 #
cone-surface $-1 40.579612803058254 -8.3451880262794447 4.665340577365896 -0.77714596973225614 0 -0.62932038083071107 0.15733009520767777 0 -0.19428649243306403 1 I I -0.70710678118654624 0.70710678118654879 0.25 forward I I I I #
loop $-1 $-1 $203 $52 #
coedge $-1 $127 $127 $204 $205 reversed $80 $-1 #
face $-1 $-1 $206 $42 $-1 $207 forward single #
loop $-1 $208 $209 $82 #
cone-surface $-1 40.579612803058254 -6.4182411218509259 4.665340577365896 -0.77714596973225614 0 -0.62932038083071107 0.15733009520767777 0 -0.19428649243306403 1 I I -0.70710678118654624 0.70710678118654879 0.25 forward I I I I #
loop $-1 $-1 $210 $53 #
coedge $-1 $132 $132 $211 $212 reversed $83 $-1 #
face $-1 $-1 $213 $43 $-1 $214 forward single #
loop $-1 $215 $216 $85 #
cone-surface $-1 40.579612803058254 -4.4912942174224071 4.665340577365896 -0.77714596973225614 0 -0.62932038083071107 0.15733009520767777 0 -0.19428649243306403 1 I I -0.70710678118654624 0.70710678118654879 0.25 forward I I I I #
loop $-1 $-1 $217 $54 #
coedge $-1 $137 $137 $218 $219 reversed $86 $-1 #
face $-1 $220 $221 $33 $-1 $222 reversed single #
loop $-1 $-1 $223 $88 #
plane-surface $-1 0 -20.235671491111788 0 0 1 0 0 0 1 forward_v I I I I #
coedge $-1 $224 $225 $226 $227 forward $89 $-1 #
coedge $-1 $228 $91 $229 $230 forward $56 $-1 #
coedge $-1 $91 $228 $231 $232 forward $56 $-1 #
coedge $-1 $233 $234 $91 $145 reversed $235 $-1 #
edge $-1 $236 -20.235671491111788 $237 20.235671491111788 $144 $238 forward 7 unknown #
face $-1 $239 $240 $34 $-1 $241 forward single #
loop $-1 $-1 $242 $92 #
plane-surface $-1 44.542374950407421 0 0 -1 0 0 0 0 1 forward_v I I I I #
coedge $-1 $243 $244 $245 $246 forward $93 $-1 #
coedge $-1 $245 $95 $242 $247 reversed $59 $-1 #
coedge $-1 $95 $245 $248 $249 reversed $59 $-1 #
coedge $-1 $250 $251 $95 $153 reversed $240 $-1 #
edge $-1 $252 -44.542374950407421 $253 44.542374950407421 $152 $254 forward 7 unknown #
face $-1 $255 $256 $35 $-1 $257 reversed single #
loop $-1 $-1 $258 $96 #
plane-surface $-1 0 20.235671491111788 0 0 -1 0 0 0 -1 forward_v I I I I #
coedge $-1 $259 $260 $261 $262 reversed $97 $-1 #
coedge $-1 $263 $99 $259 $264 forward $62 $-1 #
coedge $-1 $99 $263 $258 $265 reversed $62 $-1 #
coedge $-1 $266 $267 $99 $161 forward $268 $-1 #
edge $-1 $269 4.2956499422755989 $270 12.058564346649323 $160 $271 forward 7 unknown #
face $-1 $272 $273 $36 $-1 $274 reversed single #
loop $-1 $-1 $275 $100 #
plane-surface $-1 -113.77422930043168 -3.2066629478033946 59.341348343828862 0 -1 0 0.77714596973225614 0 -0.62932038083071107 forward_v I I I I #
coedge $-1 $276 $277 $278 $279 reversed $101 $-1 #
coedge $-1 $167 $103 $280 $281 reversed $65 $-1 #
coedge $-1 $103 $166 $276 $282 reversed $65 $-1 #
coedge $-1 $278 $283 $103 $169 forward $284 $-1 #
edge $-1 $285 12.344739699808422 $286 16.840132324060512 $168 $287 forward 7 unknown #
loop $-1 $-1 $175 $104 #
plane-surface $-1 -44.542374950407421 -6.4182411218509259 3.2784996100394181 -0.77714596973225614 0 0.62932038083071107 0.62932038083071107 0 0.77714596973225614 forward_v I I I I #
loop $-1 $-1 $288 $67 #
coedge $-1 $173 $173 $174 $289 reversed $105 $-1 #
coedge $-1 $174 $174 $173 $289 forward $107 $-1 #
coedge $-1 $175 $175 $108 $176 forward $170 $-1 #
edge $-1 $290 0 $290 6.2831853071796004 $175 $291 forward 7 unknown #
loop $-1 $-1 $182 $109 #
plane-surface $-1 -44.542374950407421 -6.4182411218509259 3.2784996100394181 -0.77714596973225614 0 0.62932038083071107 0.62932038083071107 0 0.77714596973225614 forward_v I I I I #
loop $-1 $-1 $292 $70 #
coedge $-1 $180 $180 $181 $293 reversed $110 $-1 #
coedge $-1 $181 $181 $180 $293 forward $112 $-1 #
coedge $-1 $182 $182 $113 $183 forward $177 $-1 #
edge $-1 $294 0 $294 6.2831853071796004 $182 $295 forward 7 unknown #
loop $-1 $-1 $189 $114 #
plane-surface $-1 -44.542374950407421 -6.4182411218509259 3.2784996100394181 -0.77714596973225614 0 0.62932038083071107 0.62932038083071107 0 0.77714596973225614 forward_v I I I I #
loop $-1 $-1 $296 $73 #
coedge $-1 $187 $187 $188 $297 reversed $115 $-1 #
coedge $-1 $188 $188 $187 $297 forward $117 $-1 #
coedge $-1 $189 $189 $118 $190 forward $184 $-1 #
edge $-1 $298 0 $298 6.2831853071796004 $189 $299 forward 7 unknown #
face $-1 $300 $301 $40 $-1 $302 forward single #
loop $-1 $-1 $303 $119 #
plane-surface $-1 57.711380566642234 -9.6298192958984572 128.57320269385312 0 1 0 0.77714596973225614 0 0.62932038083071107 forward_v I I I I #
coedge $-1 $304 $305 $306 $307 reversed $120 $-1 #
coedge $-1 $196 $122 $308 $309 reversed $77 $-1 #
coedge $-1 $122 $195 $304 $310 reversed $77 $-1 #
coedge $-1 $306 $311 $122 $198 forward $301 $-1 #
edge $-1 $312 -15.686684667086304 $313 -11.191292042834206 $197 $314 forward 7 unknown #
loop $-1 $-1 $204 $123 #
plane-surface $-1 -11.52047378338203 -6.4182411218509259 72.510353960063668 0.77714596973225614 0 0.62932038083071107 0.62932038083071107 0 -0.77714596973225614 forward_v I I I I #
loop $-1 $-1 $315 $79 #
coedge $-1 $202 $202 $203 $316 reversed $124 $-1 #
coedge $-1 $203 $203 $202 $316 forward $126 $-1 #
coedge $-1 $204 $204 $127 $205 forward $199 $-1 #
edge $-1 $317 0 $317 6.2831853071796004 $204 $318 forward 7 unknown #
loop $-1 $-1 $211 $128 #
plane-surface $-1 -11.52047378338203 -6.4182411218509259 72.510353960063668 0.77714596973225614 0 0.62932038083071107 0.62932038083071107 0 -0.77714596973225614 forward_v I I I I #
loop $-1 $-1 $319 $82 #
coedge $-1 $209 $209 $210 $320 reversed $129 $-1 #
coedge $-1 $210 $210 $209 $320 forward $131 $-1 #
coedge $-1 $211 $211 $132 $212 forward $206 $-1 #
edge $-1 $321 0 $321 6.2831853071796004 $211 $322 forward 7 unknown #
loop $-1 $-1 $218 $133 #
plane-surface $-1 -11.52047378338203 -6.4182411218509259 72.510353960063668 0.77714596973225614 0 0.62932038083071107 0.62932038083071107 0 -0.77714596973225614 forward_v I I I I #
loop $-1 $-1 $323 $85 #
coedge $-1 $216 $216 $217 $324 reversed $134 $-1 #
coedge $-1 $217 $217 $216 $324 forward $136 $-1 #
coedge $-1 $218 $218 $137 $219 forward $213 $-1 #
edge $-1 $325 0 $325 6.2831853071796004 $218 $326 forward 7 unknown #
face $-1 $327 $328 $33 $-1 $329 reversed single #
loop $-1 $-1 $330 $138 #
plane-surface $-1 -44.542374950407421 0 0 1 0 0 0 0 -1 forward_v I I I I #
coedge $-1 $331 $231 $332 $333 forward $139 $-1 #
coedge $-1 $334 $141 $331 $335 forward $89 $-1 #
coedge $-1 $141 $334 $336 $337 forward $89 $-1 #
coedge $-1 $234 $233 $141 $227 reversed $235 $-1 #
edge $-1 $338 -20.235671491111788 $339 20.235671491111788 $226 $340 forward 7 unknown #
coedge $-1 $143 $142 $341 $342 forward $56 $-1 #
coedge $-1 $343 $344 $142 $230 reversed $328 $-1 #
edge $-1 $237 -44.542374950407421 $345 44.542374950407421 $229 $346 forward 7 unknown #
coedge $-1 $223 $347 $143 $232 reversed $139 $-1 #
edge $-1 $348 -44.542374950407421 $236 44.542374950407421 $231 $349 forward 7 unknown #
coedge $-1 $226 $144 $347 $350 forward $235 $-1 #
coedge $-1 $144 $226 $343 $351 reversed $235 $-1 #
loop $-1 $-1 $233 $327 #
vertex $-1 $145 $352 #
vertex $-1 $145 $353 #
straight-curve $-1 44.542374950407421 0 8.8298473284941323 0 1 0 I I #
face $-1 $354 $355 $34 $-1 $356 reversed single #
loop $-1 $-1 $251 $146 #
plane-surface $-1 0 -23.796549211675583 -4.941610166018414 0 0 1 1 0 0 forward_v I I I I #
coedge $-1 $357 $358 $150 $247 forward $147 $-1 #
coedge $-1 $359 $149 $358 $360 forward $93 $-1 #
coedge $-1 $149 $359 $361 $362 forward $93 $-1 #
coedge $-1 $151 $150 $149 $246 reversed $59 $-1 #
edge $-1 $363 -44.542374950407421 $364 44.542374950407421 $149 $365 forward 7 unknown #
edge $-1 $364 -8.8298473284941323 $253 -4.941610166018414 $242 $366 forward 7 unknown #
coedge $-1 $361 $367 $151 $249 forward $368 $-1 #
edge $-1 $252 4.941610166018414 $363 8.8298473284941323 $248 $369 forward 7 unknown #
coedge $-1 $370 $152 $367 $371 forward $240 $-1 #
coedge $-1 $152 $370 $357 $372 forward $240 $-1 #
vertex $-1 $249 $373 #
vertex $-1 $372 $374 #
straight-curve $-1 0 -20.235671491111788 -4.941610166018414 1 0 0 I I #
face $-1 $375 $376 $35 $-1 $377 forward single #
loop $-1 $-1 $378 $154 #
plane-surface $-1 -44.542374950407421 0 0 1 0 0 0 0 -1 forward_v I I I I #
coedge $-1 $379 $380 $159 $265 forward $155 $-1 #
coedge $-1 $381 $157 $158 $264 reversed $97 $-1 #
coedge $-1 $157 $381 $382 $383 reversed $97 $-1 #
coedge $-1 $384 $378 $157 $262 forward $256 $-1 #
edge $-1 $385 2.1649236642470662 $386 5.1649236642470662 $261 $387 forward 7 unknown #
coedge $-1 $159 $158 $378 $388 reversed $62 $-1 #
edge $-1 $269 -44.542374950407421 $385 44.542374950407421 $259 $389 forward 7 unknown #
edge $-1 $270 -44.542374950407421 $390 44.542374950407421 $258 $391 forward 7 unknown #
coedge $-1 $392 $160 $380 $393 reversed $268 $-1 #
coedge $-1 $160 $392 $381 $394 forward $268 $-1 #
loop $-1 $-1 $160 $375 #
vertex $-1 $161 $395 #
vertex $-1 $265 $396 #
straight-curve $-1 44.542374950407421 8.177107144462461 5.8298473284941323 0 1 0 I I #
face $-1 $-1 $284 $36 $-1 $397 forward single #
loop $-1 $-1 $398 $162 #
plane-surface $-1 -44.542374950407421 0 0 1 0 0 0 0 -1 forward_v I I I I #
coedge $-1 $399 $400 $401 $402 reversed $163 $-1 #
coedge $-1 $403 $165 $167 $282 forward $101 $-1 #
coedge $-1 $165 $403 $399 $404 forward $101 $-1 #
coedge $-1 $401 $168 $165 $279 forward $284 $-1 #
edge $-1 $286 -6.4206987349729943 $405 0.0024576131220683806 $278 $406 forward 7 unknown #
coedge $-1 $407 $408 $166 $281 forward $273 $-1 #
edge $-1 $409 -26.392174561875013 $285 -20.840826843420299 $280 $410 forward 7 unknown #
edge $-1 $286 -7.1432497042573324 $409 0 $167 $411 forward 7 unknown #
coedge $-1 $168 $401 $407 $412 forward $284 $-1 #
loop $-1 $-1 $401 $272 #
vertex $-1 $281 $413 #
vertex $-1 $169 $414 #
straight-curve $-1 -56.887114650215842 -9.6298192958984572 8.8298473284941323 1 0 0 I I #
coedge $-1 $288 $288 $-1 $415 reversed $172 $-1 #
edge $-1 $416 0 $416 6.2831853071796004 $173 $417 forward 7 unknown #
vertex $-1 $176 $418 #
ellipse-curve $-1 -42.294678638281376 -8.3451880262794447 6.0541734692667735 -0.77714596973225614 0 0.62932038083071107 0.31466019041535553 0 0.38857298486612807 1 I I #
coedge $-1 $292 $292 $-1 $419 reversed $179 $-1 #
edge $-1 $420 0 $420 6.2831853071796004 $180 $421 forward 7 unknown #
vertex $-1 $183 $422 #
ellipse-curve $-1 -42.294678638281376 -6.4182411218509259 6.0541734692667735 -0.77714596973225614 0 0.62932038083071107 0.31466019041535553 0 0.38857298486612807 1 I I #
coedge $-1 $296 $296 $-1 $423 reversed $186 $-1 #
edge $-1 $424 0 $424 6.2831853071796004 $187 $425 forward 7 unknown #
vertex $-1 $190 $426 #
ellipse-curve $-1 -42.294678638281376 -4.4912942174224071 6.0541734692667735 -0.77714596973225614 0 0.62932038083071107 0.31466019041535553 0 0.38857298486612807 1 I I #
face $-1 $-1 $427 $40 $-1 $428 reversed single #
loop $-1 $-1 $197 $191 #
plane-surface $-1 0 0 8.8298473284941323 0 0 1 1 0 0 forward_v I I I I #
coedge $-1 $429 $430 $431 $432 reversed $192 $-1 #
coedge $-1 $433 $194 $196 $310 forward $120 $-1 #
coedge $-1 $194 $433 $429 $434 forward $120 $-1 #
coedge $-1 $431 $197 $194 $307 forward $301 $-1 #
edge $-1 $313 -0.0024576131220683806 $435 6.4206987349729943 $306 $436 forward 7 unknown #
coedge $-1 $437 $438 $195 $309 forward $427 $-1 #
edge $-1 $439 -61.008101736887156 $312 -55.456754018432427 $308 $440 forward 7 unknown #
edge $-1 $313 81.941500196557499 $439 89.084749900814842 $196 $441 forward 7 unknown #
coedge $-1 $197 $431 $437 $442 forward $301 $-1 #
vertex $-1 $198 $443 #
vertex $-1 $198 $444 #
straight-curve $-1 28.855690283321117 -3.2066629478033946 8.8298473284941323 -1 0 0 I I #
coedge $-1 $315 $315 $-1 $445 reversed $201 $-1 #
edge $-1 $446 0 $446 6.2831853071796004 $202 $447 forward 7 unknown #
vertex $-1 $205 $448 #
ellipse-curve $-1 42.294678638281376 -8.3451880262794447 6.0541734692667681 0.77714596973225614 0 0.62932038083071107 0.31466019041535553 0 -0.38857298486612807 1 I I #
coedge $-1 $319 $319 $-1 $449 reversed $208 $-1 #
edge $-1 $450 0 $450 6.2831853071796004 $209 $451 forward 7 unknown #
vertex $-1 $212 $452 #
ellipse-curve $-1 42.294678638281376 -6.4182411218509259 6.0541734692667681 0.77714596973225614 0 0.62932038083071107 0.31466019041535553 0 -0.38857298486612807 1 I I #
coedge $-1 $323 $323 $-1 $453 reversed $215 $-1 #
edge $-1 $454 0 $454 6.2831853071796004 $216 $455 forward 7 unknown #
vertex $-1 $219 $456 #
ellipse-curve $-1 42.294678638281376 -4.4912942174224071 6.0541734692667681 0.77714596973225614 0 0.62932038083071107 0.31466019041535553 0 -0.38857298486612807 1 I I #
face $-1 $-1 $235 $33 $-1 $457 reversed single #
loop $-1 $-1 $343 $220 #
plane-surface $-1 0 20.235671491111788 0 0 -1 0 0 0 -1 forward_v I I I I #
coedge $-1 $458 $341 $344 $459 forward $221 $-1 #
coedge $-1 $347 $223 $224 $335 reversed $139 $-1 #
coedge $-1 $341 $458 $223 $333 reversed $221 $-1 #
edge $-1 $348 -8.8298473284941323 $460 8.8298473284941323 $332 $461 forward 7 unknown #
coedge $-1 $225 $224 $458 $462 forward $89 $-1 #
edge $-1 $339 -44.542374950407421 $460 44.542374950407421 $331 $463 forward 7 unknown #
coedge $-1 $344 $343 $225 $337 reversed $328 $-1 #
edge $-1 $464 -44.542374950407421 $338 44.542374950407421 $336 $465 forward 7 unknown #
vertex $-1 $227 $466 #
vertex $-1 $350 $467 #
straight-curve $-1 44.542374950407421 0 -8.8298473284941323 0 -1 0 I I #
coedge $-1 $330 $332 $228 $342 reversed $221 $-1 #
edge $-1 $345 -20.235671491111788 $348 20.235671491111788 $341 $468 forward 7 unknown #
coedge $-1 $336 $229 $234 $351 forward $328 $-1 #
coedge $-1 $229 $336 $330 $459 reversed $328 $-1 #
vertex $-1 $230 $469 #
straight-curve $-1 0 20.235671491111788 8.8298473284941323 -1 0 0 I I #
coedge $-1 $231 $331 $233 $350 reversed $139 $-1 #
vertex $-1 $342 $470 #
straight-curve $-1 0 -20.235671491111788 8.8298473284941323 1 0 0 I I #
edge $-1 $236 -8.8298473284941323 $339 8.8298473284941323 $233 $471 forward 7 unknown #
edge $-1 $237 -8.8298473284941323 $338 8.8298473284941323 $234 $472 forward 7 unknown #
point $-1 44.542374950407421 -20.235671491111788 8.8298473284941323 #
point $-1 44.542374950407421 20.235671491111788 8.8298473284941323 #
face $-1 $-1 $368 $34 $-1 $473 reversed single #
loop $-1 $-1 $474 $239 #
plane-surface $-1 0 -27.357426932239377 -6.8857287472562732 0 1 0 0 0 1 forward_v I I I I #
coedge $-1 $475 $242 $251 $372 reversed $147 $-1 #
coedge $-1 $242 $475 $243 $360 reversed $147 $-1 #
coedge $-1 $244 $243 $476 $477 forward $93 $-1 #
edge $-1 $364 20.235671491111788 $478 27.357426932239377 $358 $479 forward 7 unknown #
coedge $-1 $480 $248 $244 $362 reversed $368 $-1 #
edge $-1 $481 -27.357426932239377 $363 -20.235671491111788 $361 $482 forward 7 unknown #
vertex $-1 $249 $483 #
vertex $-1 $360 $484 #
straight-curve $-1 0 -20.235671491111788 -8.8298473284941323 1 0 0 I I #
straight-curve $-1 44.542374950407421 -20.235671491111788 0 0 0 1 I I #
coedge $-1 $248 $480 $250 $371 reversed $368 $-1 #
loop $-1 $-1 $248 $354 #
straight-curve $-1 -44.542374950407421 -20.235671491111788 0 0 0 -1 I I #
coedge $-1 $251 $250 $485 $486 forward $240 $-1 #
edge $-1 $252 -3.5608777205637949 $487 3.5608777205637949 $367 $488 forward 7 unknown #
edge $-1 $489 -3.5608777205637949 $253 3.5608777205637949 $357 $490 forward 7 unknown #
point $-1 -44.542374950407421 -20.235671491111788 -4.941610166018414 #
point $-1 44.542374950407421 -20.235671491111788 -4.941610166018414 #
face $-1 $-1 $268 $35 $-1 $491 reversed single #
loop $-1 $-1 $382 $255 #
plane-surface $-1 0 0 8.8298473284941323 0 0 1 1 0 0 forward_v I I I I #
coedge $-1 $261 $492 $263 $388 forward $256 $-1 #
coedge $-1 $493 $258 $492 $494 reversed $155 $-1 #
coedge $-1 $258 $493 $266 $393 forward $155 $-1 #
coedge $-1 $260 $259 $267 $394 reversed $97 $-1 #
coedge $-1 $495 $496 $260 $383 forward $376 $-1 #
edge $-1 $386 -44.542374950407421 $497 44.542374950407421 $382 $498 forward 7 unknown #
coedge $-1 $492 $261 $496 $499 reversed $256 $-1 #
vertex $-1 $388 $500 #
vertex $-1 $262 $501 #
straight-curve $-1 -44.542374950407421 12.47275708673806 3.6649236642470662 0 0 1 I I #
edge $-1 $390 -12.058564346649323 $385 -4.2956499422755989 $378 $502 forward 7 unknown #
straight-curve $-1 0 12.47275708673806 5.8298473284941323 -1 0 0 I I #
vertex $-1 $265 $503 #
straight-curve $-1 0 20.235671491111788 5.8298473284941323 -1 0 0 I I #
coedge $-1 $267 $266 $495 $504 reversed $268 $-1 #
edge $-1 $505 -8.8298473284941323 $270 -5.8298473284941323 $266 $506 forward 7 unknown #
edge $-1 $497 -5.1649236642470662 $269 -2.1649236642470662 $267 $507 forward 7 unknown #
point $-1 44.542374950407421 12.47275708673806 5.8298473284941323 #
point $-1 44.542374950407421 20.235671491111784 5.8298473284941323 #
plane-surface $-1 0 0 8.8298473284941323 0 0 1 1 0 0 forward_v I I I I #
coedge $-1 $408 $407 $400 $508 forward $273 $-1 #
coedge $-1 $400 $275 $277 $404 reversed $163 $-1 #
coedge $-1 $275 $399 $398 $508 reversed $163 $-1 #
coedge $-1 $283 $278 $275 $402 forward $284 $-1 #
edge $-1 $405 -16.840132324060512 $509 -12.344739699808422 $401 $510 forward 7 unknown #
coedge $-1 $277 $276 $408 $511 reversed $101 $-1 #
edge $-1 $512 0 $405 7.1432497042573324 $399 $513 forward 7 unknown #
vertex $-1 $279 $514 #
straight-curve $-1 -40.046982326155337 -3.2091205609254629 8.8298473284941323 0 1 0 I I #
coedge $-1 $398 $280 $283 $412 reversed $273 $-1 #
coedge $-1 $280 $398 $403 $511 forward $273 $-1 #
vertex $-1 $281 $515 #
straight-curve $-1 -44.542374950407421 -9.6298192958984572 29.670674171914431 0 0 1 I I #
straight-curve $-1 -44.542374950407421 -9.6298192958984572 3.2784996100394181 -0.62932038083071107 0 -0.77714596973225614 I I #
edge $-1 $509 3.2066629478033946 $285 9.6298192958984572 $407 $516 forward 7 unknown #
point $-1 -44.542374950407421 -9.6298192958984572 8.8298473284941323 #
point $-1 -40.04698232615533 -9.6298192958984572 8.8298473284941323 #
edge $-1 $517 1 $517 0 $288 $-1 forward 7 unknown #
vertex $-1 $289 $518 #
ellipse-curve $-1 -40.773899295491312 -8.3451880262794447 4.8226706725735724 -0.77714596973225614 0 0.62932038083071107 0.31466019041535553 0 0.38857298486612807 1 I I #
point $-1 -41.980018447866016 -8.3451880262794447 6.442746454132898 #
edge $-1 $519 1 $519 0 $292 $-1 forward 7 unknown #
vertex $-1 $293 $520 #
ellipse-curve $-1 -40.773899295491312 -6.4182411218509259 4.8226706725735724 -0.77714596973225614 0 0.62932038083071107 0.31466019041535553 0 0.38857298486612807 1 I I #
point $-1 -41.980018447866016 -6.4182411218509259 6.442746454132898 #
edge $-1 $521 1 $521 0 $296 $-1 forward 7 unknown #
vertex $-1 $297 $522 #
ellipse-curve $-1 -40.773899295491312 -4.4912942174224071 4.8226706725735724 -0.77714596973225614 0 0.62932038083071107 0.31466019041535553 0 0.38857298486612807 1 I I #
point $-1 -41.980018447866016 -4.4912942174224071 6.442746454132898 #
loop $-1 $-1 $308 $300 #
plane-surface $-1 44.542374950407421 0 0 -1 0 0 0 0 1 forward_v I I I I #
coedge $-1 $430 $303 $305 $434 reversed $192 $-1 #
coedge $-1 $303 $429 $523 $524 reversed $192 $-1 #
coedge $-1 $311 $306 $303 $432 forward $301 $-1 #
edge $-1 $435 11.191292042834206 $525 15.686684667086304 $431 $526 forward 7 unknown #
coedge $-1 $305 $304 $438 $527 reversed $120 $-1 #
edge $-1 $528 -89.084749900814842 $435 -81.941500196557499 $429 $529 forward 7 unknown #
vertex $-1 $307 $530 #
straight-curve $-1 40.04698232615533 -3.2091205609254629 8.8298473284941323 0 -1 0 I I #
coedge $-1 $523 $308 $311 $442 reversed $427 $-1 #
coedge $-1 $308 $523 $433 $527 forward $427 $-1 #
vertex $-1 $309 $531 #
straight-curve $-1 44.542374950407421 -3.2066629478033946 64.28660134692656 0 0 1 I I #
straight-curve $-1 -11.52047378338203 -3.2066629478033946 72.510353960063668 0.62932038083071107 0 -0.77714596973225614 I I #
edge $-1 $525 -9.6298192958984572 $312 -3.2066629478033946 $437 $532 forward 7 unknown #
point $-1 44.542374950407421 -3.2066629478033946 8.8298473284941323 #
point $-1 40.046982326155323 -3.2066629478033946 8.8298473284941323 #
edge $-1 $533 1 $533 0 $315 $-1 forward 7 unknown #
vertex $-1 $316 $534 #
ellipse-curve $-1 40.773899295491319 -8.3451880262794447 4.8226706725735742 0.77714596973225614 0 0.62932038083071107 0.31466019041535553 0 -0.38857298486612807 1 I I #
point $-1 42.609338828696735 -8.3451880262794447 5.6656004844006436 #
edge $-1 $535 1 $535 0 $319 $-1 forward 7 unknown #
vertex $-1 $320 $536 #
ellipse-curve $-1 40.773899295491319 -6.4182411218509259 4.8226706725735742 0.77714596973225614 0 0.62932038083071107 0.31466019041535553 0 -0.38857298486612807 1 I I #
point $-1 42.609338828696735 -6.4182411218509259 5.6656004844006436 #
edge $-1 $537 1 $537 0 $323 $-1 forward 7 unknown #
vertex $-1 $324 $538 #
ellipse-curve $-1 40.773899295491319 -4.4912942174224071 4.8226706725735742 0.77714596973225614 0 0.62932038083071107 0.31466019041535553 0 -0.38857298486612807 1 I I #
point $-1 42.609338828696735 -4.4912942174224071 5.6656004844006436 #
plane-surface $-1 44.542374950407421 0 0 -1 0 0 0 0 1 forward_v I I I I #
coedge $-1 $332 $330 $334 $462 reversed $221 $-1 #
edge $-1 $345 -8.8298473284941323 $464 8.8298473284941323 $344 $539 forward 7 unknown #
vertex $-1 $462 $540 #
straight-curve $-1 -44.542374950407421 -20.235671491111788 0 0 0 -1 I I #
edge $-1 $460 -20.235671491111788 $464 20.235671491111788 $458 $541 forward 7 unknown #
straight-curve $-1 0 -20.235671491111788 -8.8298473284941323 -1 0 0 I I #
vertex $-1 $337 $542 #
straight-curve $-1 0 20.235671491111788 -8.8298473284941323 1 0 0 I I #
point $-1 44.542374950407421 20.235671491111788 -8.8298473284941323 #
point $-1 44.542374950407421 -20.235671491111788 -8.8298473284941323 #
straight-curve $-1 -44.542374950407421 0 8.8298473284941323 0 -1 0 I I #
point $-1 -44.542374950407421 20.235671491111788 8.8298473284941323 #
point $-1 -44.542374950407421 -20.235671491111788 8.8298473284941323 #
straight-curve $-1 44.542374950407421 -20.235671491111788 0 0 0 -1 I I #
straight-curve $-1 44.542374950407421 20.235671491111788 0 0 0 -1 I I #
plane-surface $-1 -44.542374950407421 0 0 1 0 0 0 0 -1 forward_v I I I I #
coedge $-1 $476 $485 $480 $543 forward $355 $-1 #
coedge $-1 $358 $357 $544 $545 forward $147 $-1 #
coedge $-1 $544 $474 $359 $477 reversed $355 $-1 #
edge $-1 $478 -44.542374950407421 $481 44.542374950407421 $476 $546 forward 7 unknown #
vertex $-1 $545 $547 #
straight-curve $-1 44.542374950407421 0 -8.8298473284941323 0 -1 0 I I #
coedge $-1 $367 $361 $474 $543 reversed $368 $-1 #
vertex $-1 $362 $548 #
straight-curve $-1 -44.542374950407421 0 -8.8298473284941323 0 1 0 I I #
point $-1 -44.542374950407421 -20.235671491111788 -8.8298473284941323 #
point $-1 44.542374950407421 -20.235671491111788 -8.8298473284941323 #
coedge $-1 $474 $544 $370 $486 reversed $355 $-1 #
edge $-1 $487 -44.542374950407421 $489 44.542374950407421 $485 $549 forward 7 unknown #
vertex $-1 $371 $550 #
straight-curve $-1 -44.542374950407421 -23.796549211675583 -4.941610166018414 0 -1 0 I I #
vertex $-1 $372 $551 #
straight-curve $-1 44.542374950407421 -23.796549211675583 -4.941610166018414 0 1 0 I I #
plane-surface $-1 44.542374950407421 0 0 -1 0 0 0 0 1 forward_v I I I I #
coedge $-1 $378 $384 $379 $494 forward $256 $-1 #
coedge $-1 $380 $379 $552 $553 reversed $155 $-1 #
edge $-1 $554 -8.8298473284941323 $390 -5.8298473284941323 $379 $555 forward 7 unknown #
coedge $-1 $552 $382 $392 $504 forward $376 $-1 #
coedge $-1 $382 $552 $384 $499 forward $376 $-1 #
vertex $-1 $504 $556 #
straight-curve $-1 0 12.47275708673806 8.8298473284941323 1 0 0 I I #
edge $-1 $554 -20.235671491111788 $386 -12.47275708673806 $384 $557 forward 7 unknown #
point $-1 -44.542374950407421 12.47275708673806 5.8298473284941323 #
point $-1 -44.542374950407421 12.47275708673806 8.8298473284941323 #
straight-curve $-1 -44.542374950407421 8.177107144462461 5.8298473284941323 0 -1 0 I I #
point $-1 -44.542374950407421 20.235671491111784 5.8298473284941323 #
edge $-1 $497 12.47275708673806 $505 20.235671491111788 $392 $558 forward 7 unknown #
vertex $-1 $504 $559 #
straight-curve $-1 44.542374950407421 20.235671491111788 0 0 0 -1 I I #
straight-curve $-1 44.542374950407421 12.47275708673806 3.6649236642470662 0 0 -1 I I #
edge $-1 $509 20.840826843420299 $512 26.392174561875013 $398 $560 forward 7 unknown #
vertex $-1 $412 $561 #
straight-curve $-1 -56.887114650215842 -3.2066629478033946 8.8298473284941323 -1 0 0 I I #
edge $-1 $512 -0.0024576131220683806 $409 6.4206987349729943 $408 $562 forward 7 unknown #
vertex $-1 $511 $563 #
straight-curve $-1 -44.542374950407421 -3.2066629478033946 3.2784996100394181 0.62932038083071107 0 0.77714596973225614 I I #
point $-1 -40.04698232615533 -3.2066629478033946 8.8298473284941323 #
point $-1 -44.542374950407421 -9.6298192958984572 3.2784996100394181 #
straight-curve $-1 -44.542374950407421 0 8.8298473284941323 0 -1 0 I I #
vertex $-1 $415 $564 #
point $-1 -40.459239105075959 -8.3451880262794447 5.2112436574397005 #
vertex $-1 $419 $565 #
point $-1 -40.459239105075959 -6.4182411218509259 5.2112436574397005 #
vertex $-1 $423 $566 #
point $-1 -40.459239105075959 -4.4912942174224071 5.2112436574397005 #
coedge $-1 $438 $437 $430 $524 forward $427 $-1 #
edge $-1 $525 55.456754018432427 $528 61.008101736887156 $523 $567 forward 7 unknown #
vertex $-1 $442 $568 #
straight-curve $-1 28.855690283321117 -9.6298192958984572 8.8298473284941323 1 0 0 I I #
edge $-1 $528 -6.4206987349729943 $439 0.0024576131220683806 $438 $569 forward 7 unknown #
vertex $-1 $527 $570 #
straight-curve $-1 -11.52047378338203 -9.6298192958984572 72.510353960063668 -0.62932038083071107 0 0.77714596973225614 I I #
point $-1 40.046982326155323 -9.6298192958984572 8.8298473284941323 #
point $-1 44.542374950407428 -3.2066629478033946 3.2784996100394039 #
straight-curve $-1 44.542374950407421 0 8.8298473284941323 0 1 0 I I #
vertex $-1 $445 $571 #
point $-1 41.088559485906671 -8.3451880262794447 4.4340976877074461 #
vertex $-1 $449 $572 #
point $-1 41.088559485906671 -6.4182411218509259 4.4340976877074461 #
vertex $-1 $453 $573 #
point $-1 41.088559485906671 -4.4912942174224071 4.4340976877074461 #
straight-curve $-1 -44.542374950407421 20.235671491111788 0 0 0 -1 I I #
point $-1 -44.542374950407421 -20.235671491111788 -8.8298473284941323 #
straight-curve $-1 -44.542374950407421 0 -8.8298473284941323 0 1 0 I I #
point $-1 -44.542374950407421 20.235671491111788 -8.8298473284941323 #
edge $-1 $487 -1.9441185812378592 $481 1.9441185812378592 $480 $574 forward 7 unknown #
coedge $-1 $485 $476 $475 $545 reversed $355 $-1 #
edge $-1 $489 -1.9441185812378592 $478 1.9441185812378592 $475 $575 forward 7 unknown #
straight-curve $-1 0 -27.357426932239377 -8.8298473284941323 -1 0 0 I I #
point $-1 44.542374950407421 -27.357426932239377 -8.8298473284941323 #
point $-1 -44.542374950407421 -27.357426932239377 -8.8298473284941323 #
straight-curve $-1 0 -27.357426932239377 -4.941610166018414 1 0 0 I I #
point $-1 -44.542374950407421 -27.357426932239377 -4.941610166018414 #
point $-1 44.542374950407421 -27.357426932239377 -4.941610166018414 #
coedge $-1 $496 $495 $493 $553 forward $376 $-1 #
edge $-1 $505 -44.542374950407421 $554 44.542374950407421 $493 $576 forward 7 unknown #
vertex $-1 $553 $577 #
straight-curve $-1 -44.542374950407421 20.235671491111788 0 0 0 -1 I I #
point $-1 44.542374950407421 12.47275708673806 8.8298473284941323 #
straight-curve $-1 -44.542374950407421 0 8.8298473284941323 0 -1 0 I I #
straight-curve $-1 44.542374950407421 0 8.8298473284941323 0 1 0 I I #
point $-1 44.542374950407421 20.235671491111788 8.8298473284941323 #
straight-curve $-1 -44.542374950407421 -3.2066629478033946 29.670674171914431 0 0 -1 I I #
point $-1 -44.542374950407421 -3.2066629478033946 8.8298473284941323 #
straight-curve $-1 -44.542374950407421 -3.2091205609254629 3.278499610039419 0 -1 0 I I #
point $-1 -44.542374950407421 -3.2066629478033946 3.2784996100394181 #
point $-1 -40.385326310625182 -8.3451880262794447 4.5080104821582161 #
point $-1 -40.385326310625182 -6.4182411218509259 4.5080104821582161 #
point $-1 -40.385326310625182 -4.4912942174224071 4.5080104821582161 #
straight-curve $-1 44.542374950407421 -9.6298192958984572 64.28660134692656 0 0 -1 I I #
point $-1 44.542374950407421 -9.6298192958984572 8.8298473284941323 #
straight-curve $-1 44.542374950407421 -3.2091205609254629 3.2784996100393897 0 1 0 I I #
point $-1 44.542374950407428 -9.6298192958984572 3.2784996100394039 #
point $-1 40.385326310625189 -8.3451880262794447 4.5080104821582179 #
point $-1 40.385326310625189 -6.4182411218509259 4.5080104821582179 #
point $-1 40.385326310625189 -4.4912942174224071 4.5080104821582179 #
straight-curve $-1 -44.542374950407421 -27.357426932239377 -6.8857287472562732 0 0 -1 I I #
straight-curve $-1 44.542374950407421 -27.357426932239377 -6.8857287472562732 0 0 -1 I I #
straight-curve $-1 0 20.235671491111788 8.8298473284941323 -1 0 0 I I #
point $-1 -44.542374950407421 20.235671491111788 8.8298473284941323 #
End-of-ACIS-data 