500 0 5 0           
7 Unknown 11 ACIS 5.0 NT 24 Thu Mar 25 19:21:58 1999 
-1 9.9999999999999995e-007 1e-010 
body $-1 $5 $-1 $6 #
body $-1 $7 $-1 $8 #
body $-1 $9 $-1 $10 #
body $-1 $11 $-1 $12 #
body $-1 $13 $-1 $14 #
lump $-1 $-1 $15 $0 #
transform $-1 1 0 0 0 1 0 0 0 1 74.354075746940524 50.795948863503305 24.244148181588212 1 rotate no_reflect no_shear #
lump $-1 $-1 $16 $1 #
transform $-1 1 0 0 0 1 0 0 0 1 74.354075746940524 50.795948863503305 24.244148181588212 1 rotate no_reflect no_shear #
lump $-1 $-1 $17 $2 #
transform $-1 1 0 0 0 1 0 0 0 1 74.354075746940524 50.795948863503305 24.244148181588212 1 rotate no_reflect no_shear #
lump $-1 $-1 $18 $3 #
transform $-1 1 0 0 0 1 0 0 0 1 74.354075746940524 50.795948863503305 24.244148181588212 1 rotate no_reflect no_shear #
lump $-1 $-1 $19 $4 #
transform $-1 1 0 0 0 1 0 0 0 1 74.354075746940524 50.795948863503305 24.244148181588212 1 rotate no_reflect no_shear #
shell $-1 $-1 $-1 $20 $-1 $5 #
shell $-1 $-1 $-1 $21 $-1 $7 #
shell $-1 $-1 $-1 $22 $-1 $9 #
shell $-1 $-1 $-1 $23 $-1 $11 #
shell $-1 $-1 $-1 $24 $-1 $13 #
face $-1 $25 $26 $15 $-1 $27 forward single #
face $-1 $28 $29 $16 $-1 $30 reversed single #
face $-1 $31 $32 $17 $-1 $33 reversed single #
face $-1 $34 $35 $18 $-1 $36 forward single #
face $-1 $37 $38 $19 $-1 $39 forward single #
face $-1 $40 $41 $15 $-1 $42 reversed single #
loop $-1 $-1 $43 $20 #
plane-surface $-1 0 0 24.244148181588212 0 0 1 1 0 0 forward_v I I I I #
face $-1 $44 $45 $16 $-1 $46 reversed single #
loop $-1 $-1 $47 $21 #
plane-surface $-1 0 -37.982390853947429 17.011967914375703 0 0 1 1 0 0 forward_v I I I I #
face $-1 $48 $49 $17 $-1 $50 reversed single #
loop $-1 $-1 $51 $22 #
plane-surface $-1 -56.398089499022184 108.4200313290637 186.64563244229066 -1 0 0 0 0.79863551827123203 0.60181501223851219 forward_v I I I I #
face $-1 $52 $53 $18 $-1 $54 forward single #
loop $-1 $55 $56 $23 #
cone-surface $-1 -69.223793961821002 44.423071498147877 17.663903912423375 0 -0.79863551827123203 -0.60181501223851219 2.5 0 0 1 I I 0 1 2.5 forward I I I I #
face $-1 $57 $58 $19 $-1 $59 forward single #
loop $-1 $60 $61 $24 #
cone-surface $-1 -61.528371284141706 44.423071498147877 17.663903912423375 0 -0.79863551827123203 -0.60181501223851219 2.5 0 0 1 I I 0 1 2.5 forward I I I I #
face $-1 $62 $63 $15 $-1 $64 reversed single #
loop $-1 $-1 $65 $25 #
plane-surface $-1 0 0 -24.244148181588212 0 0 1 1 0 0 forward_v I I I I #
coedge $-1 $66 $67 $68 $69 forward $26 $-1 #
face $-1 $70 $71 $16 $-1 $72 reversed single #
loop $-1 $-1 $73 $28 #
plane-surface $-1 0 -25.168832844391552 20.628058047981956 0 -1 0 0 0 -1 forward_v I I I I #
coedge $-1 $74 $75 $76 $77 reversed $29 $-1 #
face $-1 $78 $79 $17 $-1 $80 reversed single #
loop $-1 $-1 $81 $31 #
plane-surface $-1 -65.376082622981357 -10.343580310408868 97.150834431034113 0 0.79863551827123203 0.60181501223851219 1 0 0 forward_v I I I I #
coedge $-1 $82 $83 $84 $85 reversed $32 $-1 #
face $-1 $-1 $86 $18 $-1 $87 forward single #
loop $-1 $88 $89 $34 #
cone-surface $-1 -69.223793961821002 40.152100751498388 14.445496699920394 0 -0.79863551827123203 -0.60181501223851219 1.25 0 0 1 I I -0.70710678118654746 0.70710678118654746 1.25 forward I I I I #
loop $-1 $-1 $90 $23 #
coedge $-1 $56 $56 $91 $92 reversed $35 $-1 #
face $-1 $-1 $93 $19 $-1 $94 forward single #
loop $-1 $95 $96 $37 #
cone-surface $-1 -61.528371284141706 40.152100751498388 14.445496699920394 0 -0.79863551827123203 -0.60181501223851219 1.25 0 0 1 I I -0.70710678118654746 0.70710678118654746 1.25 forward I I I I #
loop $-1 $-1 $97 $24 #
coedge $-1 $61 $61 $98 $99 reversed $38 $-1 #
face $-1 $100 $101 $15 $-1 $102 reversed single #
loop $-1 $-1 $103 $40 #
plane-surface $-1 0 -50.795948863503305 0 0 1 0 0 0 1 forward_v I I I I #
coedge $-1 $104 $105 $106 $107 forward $41 $-1 #
coedge $-1 $108 $43 $109 $110 forward $26 $-1 #
coedge $-1 $43 $108 $111 $112 forward $26 $-1 #
coedge $-1 $113 $114 $43 $69 reversed $115 $-1 #
edge $-1 $116 -50.795948863503305 $117 50.795948863503305 $68 $118 forward 7 unknown #
face $-1 $119 $120 $16 $-1 $121 reversed single #
loop $-1 $-1 $122 $44 #
plane-surface $-1 -74.354075746940524 0 0 1 0 0 0 0 -1 forward_v I I I I #
coedge $-1 $123 $124 $125 $126 reversed $45 $-1 #
coedge $-1 $127 $47 $128 $129 reversed $29 $-1 #
coedge $-1 $47 $127 $123 $130 forward $29 $-1 #
coedge $-1 $125 $131 $47 $77 forward $132 $-1 #
edge $-1 $133 -31.804753436529591 $134 -6.1776374174178379 $76 $135 forward 7 unknown #
face $-1 $136 $137 $17 $-1 $138 forward single #
loop $-1 $-1 $139 $48 #
plane-surface $-1 -74.354075746940524 0 0 1 0 0 0 0 -1 forward_v I I I I #
coedge $-1 $140 $141 $142 $143 reversed $49 $-1 #
coedge $-1 $83 $51 $144 $145 reversed $32 $-1 #
coedge $-1 $51 $82 $140 $146 reversed $32 $-1 #
coedge $-1 $142 $147 $51 $85 forward $148 $-1 #
edge $-1 $149 69.078668039557115 $150 77.306879683477149 $84 $151 forward 7 unknown #
loop $-1 $-1 $91 $52 #
plane-surface $-1 -65.376082622981357 -10.343580310408868 97.150834431034113 0 0.79863551827123203 0.60181501223851219 1 0 0 forward_v I I I I #
loop $-1 $-1 $152 $34 #
coedge $-1 $89 $89 $90 $153 reversed $53 $-1 #
coedge $-1 $90 $90 $89 $153 forward $55 $-1 #
coedge $-1 $91 $91 $56 $92 forward $86 $-1 #
edge $-1 $154 -5.5939752324070413e-016 $154 6.2831853071795996 $91 $155 forward 7 unknown #
loop $-1 $-1 $98 $57 #
plane-surface $-1 -65.376082622981357 -10.343580310408868 97.150834431034113 0 0.79863551827123203 0.60181501223851219 1 0 0 forward_v I I I I #
loop $-1 $-1 $156 $37 #
coedge $-1 $96 $96 $97 $157 reversed $58 $-1 #
coedge $-1 $97 $97 $96 $157 forward $60 $-1 #
coedge $-1 $98 $98 $61 $99 forward $93 $-1 #
edge $-1 $158 -5.5939752324070413e-016 $158 6.2831853071795996 $98 $159 forward 7 unknown #
face $-1 $160 $161 $15 $-1 $162 reversed single #
loop $-1 $-1 $163 $62 #
plane-surface $-1 -74.354075746940524 0 0 1 0 0 0 0 -1 forward_v I I I I #
coedge $-1 $164 $111 $165 $166 forward $63 $-1 #
coedge $-1 $167 $65 $164 $168 forward $41 $-1 #
coedge $-1 $65 $167 $169 $170 forward $41 $-1 #
coedge $-1 $114 $113 $65 $107 reversed $115 $-1 #
edge $-1 $171 -50.795948863503305 $172 50.795948863503305 $106 $173 forward 7 unknown #
coedge $-1 $67 $66 $174 $175 forward $26 $-1 #
coedge $-1 $176 $177 $66 $110 reversed $161 $-1 #
edge $-1 $117 -74.354075746940524 $178 74.354075746940524 $109 $179 forward 7 unknown #
coedge $-1 $103 $180 $67 $112 reversed $63 $-1 #
edge $-1 $181 -74.354075746940524 $116 74.354075746940524 $111 $182 forward 7 unknown #
coedge $-1 $106 $68 $180 $183 forward $115 $-1 #
coedge $-1 $68 $106 $176 $184 reversed $115 $-1 #
loop $-1 $-1 $113 $160 #
vertex $-1 $69 $185 #
vertex $-1 $69 $186 #
straight-curve $-1 74.354075746940524 0 24.244148181588212 0 1 0 I I #
face $-1 $187 $188 $16 $-1 $189 forward single #
loop $-1 $-1 $128 $70 #
plane-surface $-1 0 -50.795948863503305 0 0 1 0 0 0 1 forward_v I I I I #
coedge $-1 $190 $191 $192 $193 forward $71 $-1 #
coedge $-1 $192 $73 $75 $130 reversed $45 $-1 #
coedge $-1 $73 $192 $194 $195 reversed $45 $-1 #
coedge $-1 $196 $76 $73 $126 forward $132 $-1 #
edge $-1 $134 6.6979388903847248 $197 13.930119157597231 $125 $198 forward 7 unknown #
coedge $-1 $75 $74 $190 $199 reversed $29 $-1 #
coedge $-1 $200 $201 $74 $129 forward $120 $-1 #
edge $-1 $202 -74.354075746940524 $133 74.354075746940524 $128 $203 forward 7 unknown #
edge $-1 $204 -74.354075746940524 $134 74.354075746940524 $123 $205 forward 7 unknown #
coedge $-1 $76 $196 $200 $206 forward $132 $-1 #
loop $-1 $-1 $125 $187 #
vertex $-1 $129 $207 #
vertex $-1 $77 $208 #
straight-curve $-1 74.354075746940524 -18.991195426973714 17.011967914375703 0 1 0 I I #
face $-1 $-1 $148 $17 $-1 $209 reversed single #
loop $-1 $-1 $144 $78 #
plane-surface $-1 0 0 24.244148181588212 0 0 1 1 0 0 forward_v I I I I #
coedge $-1 $210 $211 $141 $212 forward $79 $-1 #
coedge $-1 $213 $81 $83 $146 forward $49 $-1 #
coedge $-1 $81 $213 $139 $212 reversed $49 $-1 #
coedge $-1 $214 $84 $81 $143 forward $148 $-1 #
edge $-1 $150 23.710048187531505 $215 41.666034435449845 $142 $216 forward 7 unknown #
coedge $-1 $217 $218 $82 $145 forward $137 $-1 #
edge $-1 $219 -9.6144688341185116 $149 -3.4140668010285466 $144 $220 forward 7 unknown #
edge $-1 $150 -101.59189772700663 $219 -91.289060630891427 $83 $221 forward 7 unknown #
coedge $-1 $84 $214 $217 $222 reversed $148 $-1 #
loop $-1 $-1 $142 $136 #
vertex $-1 $222 $223 #
vertex $-1 $85 $224 #
straight-curve $-1 -56.398089499022184 50.795948863503305 93.322816221145331 0 0 -1 I I #
coedge $-1 $152 $152 $-1 $225 reversed $88 $-1 #
edge $-1 $226 0 $226 6.2831853071796004 $89 $227 forward 7 unknown #
vertex $-1 $92 $228 #
ellipse-curve $-1 -69.223793961821002 47.695747846958312 20.130042359628206 0 0.79863551827123203 0.60181501223851219 2.5 0 0 1 I I #
coedge $-1 $156 $156 $-1 $229 reversed $95 $-1 #
edge $-1 $230 0 $230 6.2831853071796004 $96 $231 forward 7 unknown #
vertex $-1 $99 $232 #
ellipse-curve $-1 -61.528371284141706 47.695747846958312 20.130042359628206 0 0.79863551827123203 0.60181501223851219 2.5 0 0 1 I I #
face $-1 $-1 $115 $15 $-1 $233 reversed single #
loop $-1 $-1 $176 $100 #
plane-surface $-1 0 50.795948863503305 0 0 -1 0 0 0 -1 forward_v I I I I #
coedge $-1 $234 $174 $177 $235 forward $101 $-1 #
coedge $-1 $180 $103 $104 $168 reversed $63 $-1 #
coedge $-1 $174 $234 $103 $166 reversed $101 $-1 #
edge $-1 $181 -24.244148181588212 $236 24.244148181588212 $165 $237 forward 7 unknown #
coedge $-1 $105 $104 $234 $238 forward $41 $-1 #
edge $-1 $172 -74.354075746940524 $236 74.354075746940524 $164 $239 forward 7 unknown #
coedge $-1 $177 $176 $105 $170 reversed $161 $-1 #
edge $-1 $240 -74.354075746940524 $171 74.354075746940524 $169 $241 forward 7 unknown #
vertex $-1 $107 $242 #
vertex $-1 $183 $243 #
straight-curve $-1 74.354075746940524 0 -24.244148181588212 0 -1 0 I I #
coedge $-1 $163 $165 $108 $175 reversed $101 $-1 #
edge $-1 $178 -50.795948863503305 $181 50.795948863503305 $174 $244 forward 7 unknown #
coedge $-1 $169 $109 $114 $184 forward $161 $-1 #
coedge $-1 $109 $169 $163 $235 reversed $161 $-1 #
vertex $-1 $110 $245 #
straight-curve $-1 0 50.795948863503305 24.244148181588212 -1 0 0 I I #
coedge $-1 $111 $164 $113 $183 reversed $63 $-1 #
vertex $-1 $175 $246 #
straight-curve $-1 0 -50.795948863503305 24.244148181588212 1 0 0 I I #
edge $-1 $116 -24.244148181588212 $172 24.244148181588212 $113 $247 forward 7 unknown #
edge $-1 $117 -24.244148181588212 $171 24.244148181588212 $114 $248 forward 7 unknown #
point $-1 74.354075746940524 -50.795948863503305 24.244148181588212 #
point $-1 74.354075746940524 50.795948863503305 24.244148181588212 #
face $-1 $-1 $132 $16 $-1 $249 reversed single #
loop $-1 $-1 $194 $119 #
plane-surface $-1 0 0 24.244148181588212 0 0 1 1 0 0 forward_v I I I I #
coedge $-1 $250 $122 $127 $199 forward $71 $-1 #
coedge $-1 $122 $250 $251 $252 reversed $71 $-1 #
coedge $-1 $124 $123 $122 $193 reversed $45 $-1 #
edge $-1 $253 -13.930119157597231 $204 -6.6979388903847248 $122 $254 forward 7 unknown #
coedge $-1 $251 $255 $124 $195 forward $188 $-1 #
edge $-1 $197 -74.354075746940524 $253 74.354075746940524 $194 $256 forward 7 unknown #
coedge $-1 $131 $125 $255 $257 reversed $132 $-1 #
vertex $-1 $126 $258 #
straight-curve $-1 74.354075746940524 -25.168832844391552 10.314029023990978 0 0 1 I I #
edge $-1 $204 6.1776374174178379 $202 31.804753436529591 $190 $259 forward 7 unknown #
coedge $-1 $260 $128 $131 $206 reversed $120 $-1 #
coedge $-1 $128 $260 $250 $261 forward $120 $-1 #
vertex $-1 $129 $262 #
straight-curve $-1 0 -50.795948863503305 17.011967914375703 1 0 0 I I #
vertex $-1 $199 $263 #
straight-curve $-1 0 -25.168832844391552 17.011967914375703 1 0 0 I I #
edge $-1 $264 -24.244148181588212 $133 -17.011967914375703 $131 $265 forward 7 unknown #
point $-1 74.354075746940524 -50.795948863503305 17.011967914375703 #
point $-1 74.354075746940524 -25.168832844391552 17.011967914375703 #
plane-surface $-1 0 50.795948863503305 0 0 -1 0 0 0 -1 forward_v I I I I #
coedge $-1 $211 $139 $266 $267 reversed $79 $-1 #
coedge $-1 $139 $210 $214 $268 forward $79 $-1 #
edge $-1 $215 -59.685383268301457 $269 -49.382546172186252 $139 $270 forward 7 unknown #
coedge $-1 $141 $140 $218 $271 reversed $49 $-1 #
coedge $-1 $147 $142 $211 $268 reversed $148 $-1 #
vertex $-1 $212 $272 #
straight-curve $-1 -32.688041311490679 50.795948863503298 16.015936537668182 -1 0 0 I I #
coedge $-1 $266 $144 $147 $222 forward $137 $-1 #
coedge $-1 $144 $266 $213 $271 forward $137 $-1 #
vertex $-1 $145 $273 #
straight-curve $-1 -56.398089499022184 54.210015664531852 24.244148181588216 0 1 0 I I #
straight-curve $-1 -56.398089499022184 -10.343580310408868 97.150834431034113 0 -0.60181501223851219 0.79863551827123203 I I #
edge $-1 $149 56.398089499022184 $274 74.354075746940524 $147 $275 forward 7 unknown #
point $-1 -56.398089499022184 50.795948863503305 24.244148181588212 #
point $-1 -56.398089499022184 50.795948863503305 16.015936537668182 #
edge $-1 $276 1 $276 0 $152 $-1 forward 7 unknown #
vertex $-1 $153 $277 #
ellipse-curve $-1 -69.223793961821002 41.150395149337427 15.197765465218534 0 0.79863551827123203 0.60181501223851219 2.5 0 0 1 I I #
point $-1 -66.723793961821002 47.695747846958319 20.130042359628213 #
edge $-1 $278 1 $278 0 $156 $-1 forward 7 unknown #
vertex $-1 $157 $279 #
ellipse-curve $-1 -61.528371284141706 41.150395149337427 15.197765465218534 0 0.79863551827123203 0.60181501223851219 2.5 0 0 1 I I #
point $-1 -59.028371284141706 47.695747846958319 20.130042359628213 #
plane-surface $-1 74.354075746940524 0 0 -1 0 0 0 0 1 forward_v I I I I #
coedge $-1 $165 $163 $167 $238 reversed $101 $-1 #
edge $-1 $178 -24.244148181588212 $240 24.244148181588212 $177 $280 forward 7 unknown #
vertex $-1 $238 $281 #
straight-curve $-1 -74.354075746940524 -50.795948863503305 0 0 0 -1 I I #
edge $-1 $236 -50.795948863503305 $240 50.795948863503305 $234 $282 forward 7 unknown #
straight-curve $-1 0 -50.795948863503305 -24.244148181588212 -1 0 0 I I #
vertex $-1 $170 $283 #
straight-curve $-1 0 50.795948863503305 -24.244148181588212 1 0 0 I I #
point $-1 74.354075746940524 50.795948863503305 -24.244148181588212 #
point $-1 74.354075746940524 -50.795948863503305 -24.244148181588212 #
straight-curve $-1 -74.354075746940524 0 24.244148181588212 0 -1 0 I I #
point $-1 -74.354075746940524 50.795948863503305 24.244148181588212 #
point $-1 -74.354075746940524 -50.795948863503305 24.244148181588212 #
straight-curve $-1 74.354075746940524 -50.795948863503305 0 0 0 -1 I I #
straight-curve $-1 74.354075746940524 50.795948863503305 0 0 0 -1 I I #
plane-surface $-1 74.354075746940524 0 0 -1 0 0 0 0 1 forward_v I I I I #
coedge $-1 $191 $190 $201 $261 reversed $71 $-1 #
coedge $-1 $284 $194 $191 $252 forward $188 $-1 #
edge $-1 $253 25.168832844391552 $285 50.795948863503305 $191 $286 forward 7 unknown #
vertex $-1 $252 $287 #
straight-curve $-1 -74.354075746940524 -25.168832844391552 10.314029023990978 0 0 -1 I I #
coedge $-1 $194 $284 $196 $257 forward $188 $-1 #
straight-curve $-1 0 -25.168832844391552 24.244148181588212 -1 0 0 I I #
edge $-1 $264 -50.795948863503305 $197 -25.168832844391552 $196 $288 forward 7 unknown #
point $-1 74.354075746940524 -25.168832844391552 24.244148181588209 #
straight-curve $-1 -74.354075746940524 -18.991195426973714 17.011967914375703 0 -1 0 I I #
coedge $-1 $201 $200 $284 $289 reversed $120 $-1 #
edge $-1 $285 -24.244148181588212 $202 -17.011967914375703 $250 $290 forward 7 unknown #
point $-1 -74.354075746940524 -50.795948863503305 17.011967914375703 #
point $-1 -74.354075746940524 -25.168832844391552 17.011967914375703 #
vertex $-1 $257 $291 #
straight-curve $-1 74.354075746940524 -50.795948863503305 0 0 0 -1 I I #
coedge $-1 $218 $217 $210 $267 forward $137 $-1 #
edge $-1 $274 -50.795948863503305 $269 -44.59554683041334 $210 $292 forward 7 unknown #
edge $-1 $274 -24.244148181588212 $215 -16.015936537668185 $214 $293 forward 7 unknown #
vertex $-1 $212 $294 #
straight-curve $-1 -74.354075746940524 14.876389201430168 63.682803537365231 0 -0.60181501223851219 0.79863551827123203 I I #
edge $-1 $269 -41.666034435449859 $219 -23.710048187531505 $218 $295 forward 7 unknown #
point $-1 -74.354075746940524 50.795948863503305 16.015936537668185 #
point $-1 -56.398089499022184 44.59554683041334 24.244148181588216 #
vertex $-1 $222 $296 #
straight-curve $-1 0 50.795948863503305 24.244148181588212 -1 0 0 I I #
vertex $-1 $225 $297 #
point $-1 -66.723793961821002 41.150395149337427 15.197765465218534 #
vertex $-1 $229 $298 #
point $-1 -59.028371284141706 41.150395149337427 15.197765465218534 #
straight-curve $-1 -74.354075746940524 50.795948863503305 0 0 0 -1 I I #
point $-1 -74.354075746940524 -50.795948863503305 -24.244148181588212 #
straight-curve $-1 -74.354075746940524 0 -24.244148181588212 0 1 0 I I #
point $-1 -74.354075746940524 50.795948863503305 -24.244148181588212 #
coedge $-1 $255 $251 $260 $289 forward $188 $-1 #
vertex $-1 $252 $299 #
straight-curve $-1 -74.354075746940524 0 24.244148181588212 0 -1 0 I I #
point $-1 -74.354075746940524 -25.168832844391552 24.244148181588209 #
straight-curve $-1 74.354075746940524 0 24.244148181588212 0 1 0 I I #
edge $-1 $285 -74.354075746940524 $264 74.354075746940524 $260 $300 forward 7 unknown #
straight-curve $-1 -74.354075746940524 -50.795948863503305 0 0 0 -1 I I #
point $-1 74.354075746940524 -50.795948863503305 24.244148181588212 #
straight-curve $-1 -74.354075746940524 0 24.244148181588212 0 -1 0 I I #
straight-curve $-1 -74.354075746940524 50.795948863503305 0 0 0 -1 I I #
point $-1 -74.354075746940538 44.59554683041334 24.244148181588216 #
straight-curve $-1 -32.688041311490679 44.595546830413326 24.244148181588223 1 0 0 I I #
point $-1 -74.354075746940524 50.795948863503305 24.244148181588212 #
point $-1 -69.223793961821002 39.153806353659348 13.693227934622254 #
point $-1 -61.528371284141706 39.153806353659348 13.693227934622254 #
point $-1 -74.354075746940524 -50.795948863503305 24.244148181588212 #
straight-curve $-1 0 -50.795948863503305 24.244148181588212 1 0 0 I I #
End-of-ACIS-data 