500 0 6 0           
7 Unknown 11 ACIS 5.0 NT 24 Fri Mar 26 18:49:59 1999 
-1 9.9999999999999995e-007 1e-010 
body $-1 $6 $-1 $7 #
body $-1 $8 $-1 $9 #
body $-1 $10 $-1 $11 #
body $-1 $12 $-1 $13 #
body $-1 $14 $-1 $15 #
body $-1 $16 $-1 $17 #
lump $-1 $-1 $18 $0 #
transform $-1 1 0 0 0 1 0 0 0 1 49.582811975463116 25.953387289527818 7.1533989064193104 1 rotate no_reflect no_shear #
lump $-1 $-1 $19 $1 #
transform $-1 1 0 0 0 1 0 0 0 1 49.582811975463116 25.953387289527818 7.1533989064193104 1 rotate no_reflect no_shear #
lump $-1 $-1 $20 $2 #
transform $-1 1 0 0 0 1 0 0 0 1 49.582811975463116 25.953387289527818 7.1533989064193104 1 rotate no_reflect no_shear #
lump $-1 $-1 $21 $3 #
transform $-1 1 0 0 0 1 0 0 0 1 49.582811975463116 25.953387289527818 7.1533989064193104 1 rotate no_reflect no_shear #
lump $-1 $-1 $22 $4 #
transform $-1 1 0 0 0 1 0 0 0 1 49.582811975463116 25.953387289527818 7.1533989064193104 1 rotate no_reflect no_shear #
lump $-1 $-1 $23 $5 #
transform $-1 1 0 0 0 1 0 0 0 1 49.582811975463116 25.953387289527818 7.1533989064193104 1 rotate no_reflect no_shear #
shell $-1 $-1 $-1 $24 $-1 $6 #
shell $-1 $-1 $-1 $25 $-1 $8 #
shell $-1 $-1 $-1 $26 $-1 $10 #
shell $-1 $-1 $-1 $27 $-1 $12 #
shell $-1 $-1 $-1 $28 $-1 $14 #
shell $-1 $-1 $-1 $29 $-1 $16 #
face $-1 $30 $31 $18 $-1 $32 forward single #
face $-1 $33 $34 $19 $-1 $35 forward single #
face $-1 $36 $37 $20 $-1 $38 reversed single #
face $-1 $39 $40 $21 $-1 $41 forward single #
face $-1 $42 $43 $22 $-1 $44 reversed single #
face $-1 $45 $46 $23 $-1 $47 forward single #
face $-1 $48 $49 $18 $-1 $50 reversed single #
loop $-1 $-1 $51 $24 #
plane-surface $-1 0 0 7.1533989064193104 0 0 1 1 0 0 forward_v I I I I #
face $-1 $52 $53 $19 $-1 $54 reversed single #
loop $-1 $-1 $55 $25 #
plane-surface $-1 -49.582811975463116 0 0 1 0 0 0 0 -1 forward_v I I I I #
face $-1 $56 $57 $20 $-1 $58 reversed single #
loop $-1 $-1 $59 $26 #
plane-surface $-1 15.655354915580816 -5.2926759278796629 136.85831801605178 0 -1 0 -0.51503808176128008 0 -0.85716729658548041 forward_v I I I I #
face $-1 $60 $61 $21 $-1 $62 forward single #
loop $-1 $63 $64 $27 #
cone-surface $-1 43.133440566542362 -11.4729299830271 2.057343473524901 -0.51503808176128008 0 -0.85716729658548041 2.5715018897564415 0 -1.5451142452838402 1 I I 0 1 3 forward I I I I #
face $-1 $65 $66 $22 $-1 $67 reversed single #
loop $-1 $-1 $68 $28 #
plane-surface $-1 15.655354915580816 20.660711361648154 136.85831801605178 0 -1 0 -0.51503808176128008 0 -0.85716729658548041 forward_v I I I I #
face $-1 $69 $70 $23 $-1 $71 forward single #
loop $-1 $72 $73 $29 #
cone-surface $-1 43.133440566542362 14.480457306500718 2.057343473524901 -0.51503808176128008 0 -0.85716729658548041 2.5715018897564415 0 -1.5451142452838402 1 I I 0 1 3 forward I I I I #
face $-1 $74 $75 $18 $-1 $76 reversed single #
loop $-1 $-1 $77 $30 #
plane-surface $-1 0 0 -7.1533989064193104 0 0 1 1 0 0 forward_v I I I I #
coedge $-1 $78 $79 $80 $81 forward $31 $-1 #
face $-1 $82 $83 $19 $-1 $84 forward single #
loop $-1 $-1 $85 $33 #
plane-surface $-1 0 25.953387289527818 0 0 -1 0 0 0 -1 forward_v I I I I #
coedge $-1 $86 $87 $88 $89 forward $34 $-1 #
face $-1 $90 $91 $20 $-1 $92 reversed single #
loop $-1 $-1 $93 $36 #
plane-surface $-1 -35.418717820764684 -11.4729299830271 51.856788219823983 0.51503808176128008 0 0.85716729658548041 0.85716729658548041 0 -0.51503808176128008 forward_v I I I I #
coedge $-1 $94 $95 $96 $97 reversed $37 $-1 #
face $-1 $-1 $98 $21 $-1 $99 forward single #
loop $-1 $100 $101 $39 #
cone-surface $-1 41.212810793675345 -11.4729299830271 -1.1391211927773153 -0.51503808176128008 0 -0.85716729658548041 1.2857509448782207 0 -0.77255712264192011 1 I I -0.70710678118654757 0.70710678118654757 1.5 forward I I I I #
loop $-1 $-1 $102 $27 #
coedge $-1 $64 $64 $103 $104 reversed $40 $-1 #
face $-1 $105 $106 $22 $-1 $107 reversed single #
loop $-1 $-1 $108 $42 #
plane-surface $-1 -35.418717820764684 14.480457306500718 51.856788219823983 0.51503808176128008 0 0.85716729658548041 0.85716729658548041 0 -0.51503808176128008 forward_v I I I I #
coedge $-1 $109 $110 $111 $112 reversed $43 $-1 #
face $-1 $-1 $113 $23 $-1 $114 forward single #
loop $-1 $115 $116 $45 #
cone-surface $-1 41.212810793675345 14.480457306500718 -1.1391211927773153 -0.51503808176128008 0 -0.85716729658548041 1.2857509448782207 0 -0.77255712264192011 1 I I -0.70710678118654757 0.70710678118654757 1.5 forward I I I I #
loop $-1 $-1 $117 $29 #
coedge $-1 $73 $73 $118 $119 reversed $46 $-1 #
face $-1 $120 $121 $18 $-1 $122 reversed single #
loop $-1 $-1 $123 $48 #
plane-surface $-1 0 -25.953387289527818 0 0 1 0 0 0 1 forward_v I I I I #
coedge $-1 $124 $125 $126 $127 forward $49 $-1 #
coedge $-1 $128 $51 $129 $130 forward $31 $-1 #
coedge $-1 $51 $128 $131 $132 forward $31 $-1 #
coedge $-1 $133 $134 $51 $81 reversed $135 $-1 #
edge $-1 $136 -25.953387289527818 $137 25.953387289527818 $80 $138 forward 7 unknown #
face $-1 $139 $140 $19 $-1 $141 reversed single #
loop $-1 $-1 $88 $52 #
plane-surface $-1 -52.652621499205694 0 -2.9206528498074307 0 0 1 1 0 0 forward_v I I I I #
coedge $-1 $142 $143 $87 $144 forward $53 $-1 #
coedge $-1 $145 $55 $146 $147 reversed $34 $-1 #
coedge $-1 $55 $145 $85 $144 reversed $34 $-1 #
coedge $-1 $148 $149 $55 $89 reversed $83 $-1 #
edge $-1 $150 -25.953387289527818 $151 25.953387289527818 $88 $152 forward 7 unknown #
face $-1 $153 $154 $20 $-1 $155 forward single #
loop $-1 $-1 $156 $56 #
plane-surface $-1 15.655354915580816 -17.653184038174537 136.85831801605178 0 1 0 0.51503808176128008 0 0.85716729658548041 forward_v I I I I #
coedge $-1 $157 $158 $159 $160 reversed $57 $-1 #
coedge $-1 $95 $59 $161 $162 reversed $37 $-1 #
coedge $-1 $59 $94 $157 $163 reversed $37 $-1 #
coedge $-1 $159 $164 $59 $97 forward $154 $-1 #
edge $-1 $165 -41.755134517672708 $166 -31.152537000281406 $96 $167 forward 7 unknown #
loop $-1 $-1 $103 $60 #
plane-surface $-1 -35.418717820764684 -11.4729299830271 51.856788219823983 0.51503808176128008 0 0.85716729658548041 0.85716729658548041 0 -0.51503808176128008 forward_v I I I I #
loop $-1 $-1 $168 $39 #
coedge $-1 $101 $101 $102 $169 reversed $61 $-1 #
coedge $-1 $102 $102 $101 $169 forward $63 $-1 #
coedge $-1 $103 $103 $64 $104 forward $98 $-1 #
edge $-1 $170 0 $170 6.2831853071796004 $103 $171 forward 7 unknown #
face $-1 $172 $173 $22 $-1 $174 reversed single #
loop $-1 $-1 $175 $65 #
plane-surface $-1 15.655354915580816 8.3002032513532811 136.85831801605178 0 1 0 0.51503808176128008 0 0.85716729658548041 forward_v I I I I #
coedge $-1 $176 $177 $178 $179 reversed $66 $-1 #
coedge $-1 $110 $68 $180 $181 reversed $43 $-1 #
coedge $-1 $68 $109 $176 $182 reversed $43 $-1 #
coedge $-1 $178 $183 $68 $112 forward $184 $-1 #
edge $-1 $185 -41.755134517672708 $186 -31.152537000281406 $111 $187 forward 7 unknown #
loop $-1 $-1 $118 $69 #
plane-surface $-1 -35.418717820764684 14.480457306500718 51.856788219823983 0.51503808176128008 0 0.85716729658548041 0.85716729658548041 0 -0.51503808176128008 forward_v I I I I #
loop $-1 $-1 $188 $45 #
coedge $-1 $116 $116 $117 $189 reversed $70 $-1 #
coedge $-1 $117 $117 $116 $189 forward $72 $-1 #
coedge $-1 $118 $118 $73 $119 forward $113 $-1 #
edge $-1 $190 0 $190 6.2831853071796004 $118 $191 forward 7 unknown #
face $-1 $192 $193 $18 $-1 $194 reversed single #
loop $-1 $-1 $195 $74 #
plane-surface $-1 -49.582811975463116 0 0 1 0 0 0 0 -1 forward_v I I I I #
coedge $-1 $196 $131 $197 $198 forward $75 $-1 #
coedge $-1 $199 $77 $196 $200 forward $49 $-1 #
coedge $-1 $77 $199 $201 $202 forward $49 $-1 #
coedge $-1 $134 $133 $77 $127 reversed $135 $-1 #
edge $-1 $203 -25.953387289527818 $204 25.953387289527818 $126 $205 forward 7 unknown #
coedge $-1 $79 $78 $206 $207 forward $31 $-1 #
coedge $-1 $208 $209 $78 $130 reversed $193 $-1 #
edge $-1 $137 -49.582811975463116 $210 49.582811975463116 $129 $211 forward 7 unknown #
coedge $-1 $123 $212 $79 $132 reversed $75 $-1 #
edge $-1 $213 -49.582811975463116 $136 49.582811975463116 $131 $214 forward 7 unknown #
coedge $-1 $126 $80 $212 $215 forward $135 $-1 #
coedge $-1 $80 $126 $208 $216 reversed $135 $-1 #
loop $-1 $-1 $133 $192 #
vertex $-1 $81 $217 #
vertex $-1 $81 $218 #
straight-curve $-1 49.582811975463116 0 7.1533989064193104 0 1 0 I I #
face $-1 $219 $220 $19 $-1 $221 reversed single #
loop $-1 $-1 $222 $82 #
plane-surface $-1 -55.722431022948271 0 -5.0370258781133703 1 0 0 0 0 -1 forward_v I I I I #
coedge $-1 $223 $85 $224 $225 reversed $53 $-1 #
coedge $-1 $85 $223 $148 $226 reversed $53 $-1 #
edge $-1 $150 2.9206528498074307 $227 7.1533989064193104 $85 $228 forward 7 unknown #
coedge $-1 $87 $86 $229 $230 reversed $34 $-1 #
coedge $-1 $231 $232 $86 $147 forward $233 $-1 #
edge $-1 $234 -7.1533989064193104 $151 -2.9206528498074307 $146 $235 forward 7 unknown #
coedge $-1 $236 $88 $143 $226 forward $83 $-1 #
coedge $-1 $88 $236 $231 $237 forward $83 $-1 #
vertex $-1 $144 $238 #
vertex $-1 $237 $239 #
straight-curve $-1 -49.582811975463116 0 -2.9206528498074307 0 -1 0 I I #
face $-1 $-1 $240 $20 $-1 $241 reversed single #
loop $-1 $-1 $96 $90 #
plane-surface $-1 0 0 7.1533989064193104 0 0 1 1 0 0 forward_v I I I I #
coedge $-1 $242 $243 $244 $245 reversed $91 $-1 #
coedge $-1 $246 $93 $95 $163 forward $57 $-1 #
coedge $-1 $93 $246 $242 $247 forward $57 $-1 #
coedge $-1 $244 $96 $93 $160 forward $154 $-1 #
edge $-1 $166 -0.44378906363388726 $248 11.916719046660987 $159 $249 forward 7 unknown #
coedge $-1 $250 $251 $94 $162 forward $240 $-1 #
edge $-1 $252 -67.646443524547408 $165 -61.275760101606579 $161 $253 forward 7 unknown #
edge $-1 $166 86.796279530500158 $252 99.165623950926218 $95 $254 forward 7 unknown #
coedge $-1 $96 $244 $250 $255 forward $154 $-1 #
vertex $-1 $162 $256 #
vertex $-1 $97 $257 #
straight-curve $-1 7.8276774577904078 -5.2926759278796629 7.1533989064193122 -1 0 0 I I #
coedge $-1 $168 $168 $-1 $258 reversed $100 $-1 #
edge $-1 $259 0 $259 6.2831853071796004 $101 $260 forward 7 unknown #
vertex $-1 $104 $261 #
ellipse-curve $-1 44.281513216767458 -11.4729299830271 3.9680571949489032 0.51503808176128008 0 0.85716729658548041 2.5715018897564415 0 -1.5451142452838402 1 I I #
face $-1 $-1 $184 $22 $-1 $262 forward single #
loop $-1 $-1 $263 $105 #
plane-surface $-1 49.582811975463116 0 0 -1 0 0 0 0 1 forward_v I I I I #
coedge $-1 $264 $265 $266 $267 reversed $106 $-1 #
coedge $-1 $268 $108 $110 $182 forward $66 $-1 #
coedge $-1 $108 $268 $264 $269 forward $66 $-1 #
coedge $-1 $266 $111 $108 $179 forward $184 $-1 #
edge $-1 $186 -13.420482708397795 $270 -1.0599745981029223 $178 $271 forward 7 unknown #
coedge $-1 $272 $273 $109 $181 forward $173 $-1 #
edge $-1 $274 -67.646443524547408 $185 -61.275760101606579 $180 $275 forward 7 unknown #
edge $-1 $186 86.796279530500158 $274 99.165623950926218 $110 $276 forward 7 unknown #
coedge $-1 $111 $266 $272 $277 forward $184 $-1 #
loop $-1 $-1 $266 $172 #
vertex $-1 $181 $278 #
vertex $-1 $112 $279 #
straight-curve $-1 7.8276774577904078 20.660711361648154 7.1533989064193122 -1 0 0 I I #
coedge $-1 $188 $188 $-1 $280 reversed $115 $-1 #
edge $-1 $281 0 $281 6.2831853071796004 $116 $282 forward 7 unknown #
vertex $-1 $119 $283 #
ellipse-curve $-1 44.281513216767458 14.480457306500718 3.9680571949489032 0.51503808176128008 0 0.85716729658548041 2.5715018897564415 0 -1.5451142452838402 1 I I #
face $-1 $-1 $135 $18 $-1 $284 reversed single #
loop $-1 $-1 $208 $120 #
plane-surface $-1 0 25.953387289527818 0 0 -1 0 0 0 -1 forward_v I I I I #
coedge $-1 $285 $206 $209 $286 forward $121 $-1 #
coedge $-1 $212 $123 $124 $200 reversed $75 $-1 #
coedge $-1 $206 $285 $123 $198 reversed $121 $-1 #
edge $-1 $213 -7.1533989064193104 $287 7.1533989064193104 $197 $288 forward 7 unknown #
coedge $-1 $125 $124 $285 $289 forward $49 $-1 #
edge $-1 $204 -49.582811975463116 $287 49.582811975463116 $196 $290 forward 7 unknown #
coedge $-1 $209 $208 $125 $202 reversed $193 $-1 #
edge $-1 $291 -49.582811975463116 $203 49.582811975463116 $201 $292 forward 7 unknown #
vertex $-1 $127 $293 #
vertex $-1 $215 $294 #
straight-curve $-1 49.582811975463116 0 -7.1533989064193104 0 -1 0 I I #
coedge $-1 $195 $197 $128 $207 reversed $121 $-1 #
edge $-1 $210 -25.953387289527818 $213 25.953387289527818 $206 $295 forward 7 unknown #
coedge $-1 $201 $129 $134 $216 forward $193 $-1 #
coedge $-1 $129 $201 $195 $286 reversed $193 $-1 #
vertex $-1 $130 $296 #
straight-curve $-1 0 25.953387289527818 7.1533989064193104 -1 0 0 I I #
coedge $-1 $131 $196 $133 $215 reversed $75 $-1 #
vertex $-1 $207 $297 #
straight-curve $-1 0 -25.953387289527818 7.1533989064193104 1 0 0 I I #
edge $-1 $136 -7.1533989064193104 $204 7.1533989064193104 $133 $298 forward 7 unknown #
edge $-1 $137 -7.1533989064193104 $203 7.1533989064193104 $134 $299 forward 7 unknown #
point $-1 49.582811975463116 -25.953387289527818 7.1533989064193104 #
point $-1 49.582811975463116 25.953387289527818 7.1533989064193104 #
face $-1 $-1 $233 $19 $-1 $300 reversed single #
loop $-1 $-1 $229 $139 #
plane-surface $-1 0 0 -7.1533989064193104 0 0 1 1 0 0 forward_v I I I I #
coedge $-1 $301 $302 $223 $303 forward $140 $-1 #
coedge $-1 $143 $142 $222 $303 reversed $53 $-1 #
coedge $-1 $229 $304 $142 $225 forward $220 $-1 #
edge $-1 $305 -55.722431022948271 $227 -49.582811975463116 $142 $306 forward 7 unknown #
edge $-1 $150 -3.0698095237425775 $307 3.0698095237425775 $143 $308 forward 7 unknown #
vertex $-1 $144 $309 #
straight-curve $-1 -49.582811975463116 25.953387289527818 0 0 0 -1 I I #
coedge $-1 $310 $224 $145 $230 forward $220 $-1 #
edge $-1 $227 -25.953387289527818 $234 25.953387289527818 $229 $311 forward 7 unknown #
coedge $-1 $312 $146 $149 $237 reversed $233 $-1 #
coedge $-1 $146 $312 $310 $313 reversed $233 $-1 #
loop $-1 $-1 $146 $219 #
vertex $-1 $313 $314 #
straight-curve $-1 -49.582811975463116 -25.953387289527818 0 0 0 1 I I #
coedge $-1 $149 $148 $302 $315 forward $83 $-1 #
edge $-1 $316 -3.0698095237425775 $151 3.0698095237425775 $231 $317 forward 7 unknown #
point $-1 -49.582811975463116 25.953387289527818 -2.9206528498074307 #
point $-1 -49.582811975463116 -25.953387289527818 -2.9206528498074307 #
loop $-1 $-1 $161 $153 #
plane-surface $-1 49.582811975463116 0 0 -1 0 0 0 0 1 forward_v I I I I #
coedge $-1 $243 $156 $158 $247 reversed $91 $-1 #
coedge $-1 $156 $242 $318 $319 reversed $91 $-1 #
coedge $-1 $164 $159 $156 $245 forward $154 $-1 #
edge $-1 $248 31.152537000281406 $320 41.755134517672708 $244 $321 forward 7 unknown #
coedge $-1 $158 $157 $251 $322 reversed $57 $-1 #
edge $-1 $323 -99.165623950926218 $248 -86.796279530500158 $242 $324 forward 7 unknown #
vertex $-1 $160 $325 #
straight-curve $-1 38.980214458071821 -5.7364649915135502 7.1533989064193122 0 -1 0 I I #
coedge $-1 $318 $161 $164 $255 reversed $240 $-1 #
coedge $-1 $161 $318 $246 $322 forward $240 $-1 #
vertex $-1 $162 $326 #
straight-curve $-1 49.582811975463116 -5.2926759278796629 68.429159008025891 0 0 1 I I #
straight-curve $-1 -35.418717820764684 -5.2926759278796629 51.856788219823983 0.85716729658548041 0 -0.51503808176128008 I I #
edge $-1 $320 -17.653184038174537 $165 -5.2926759278796629 $250 $327 forward 7 unknown #
point $-1 49.582811975463116 -5.2926759278796629 7.1533989064193104 #
point $-1 38.980214458071814 -5.2926759278796629 7.1533989064193122 #
edge $-1 $328 1 $328 0 $168 $-1 forward 7 unknown #
vertex $-1 $169 $329 #
ellipse-curve $-1 41.985367916317266 -11.4729299830271 0.14662975210090545 0.51503808176128008 0 0.85716729658548041 2.5715018897564415 0 -1.5451142452838402 1 I I #
point $-1 46.853015106523898 -11.4729299830271 2.4229429496650567 #
plane-surface $-1 0 0 7.1533989064193104 0 0 1 1 0 0 forward_v I I I I #
coedge $-1 $273 $272 $265 $330 forward $173 $-1 #
coedge $-1 $265 $175 $177 $269 reversed $106 $-1 #
coedge $-1 $175 $264 $263 $330 reversed $106 $-1 #
coedge $-1 $183 $178 $175 $267 forward $184 $-1 #
edge $-1 $270 31.152537000281406 $331 41.755134517672708 $266 $332 forward 7 unknown #
coedge $-1 $177 $176 $273 $333 reversed $66 $-1 #
edge $-1 $334 -99.165623950926218 $270 -86.796279530500158 $264 $335 forward 7 unknown #
vertex $-1 $179 $336 #
straight-curve $-1 38.980214458071821 7.2402286532503588 7.1533989064193122 0 -1 0 I I #
coedge $-1 $263 $180 $183 $277 reversed $173 $-1 #
coedge $-1 $180 $263 $268 $333 forward $173 $-1 #
vertex $-1 $181 $337 #
straight-curve $-1 49.582811975463116 20.660711361648154 68.429159008025891 0 0 1 I I #
straight-curve $-1 -35.418717820764684 20.660711361648154 51.856788219823983 0.85716729658548041 0 -0.51503808176128008 I I #
edge $-1 $331 8.3002032513532811 $185 20.660711361648154 $272 $338 forward 7 unknown #
point $-1 49.582811975463116 20.660711361648154 7.1533989064193104 #
point $-1 38.980214458071814 20.660711361648154 7.1533989064193122 #
edge $-1 $339 1 $339 0 $188 $-1 forward 7 unknown #
vertex $-1 $189 $340 #
ellipse-curve $-1 41.985367916317266 14.480457306500718 0.14662975210090545 0.51503808176128008 0 0.85716729658548041 2.5715018897564415 0 -1.5451142452838402 1 I I #
point $-1 46.853015106523898 14.480457306500718 2.4229429496650567 #
plane-surface $-1 49.582811975463116 0 0 -1 0 0 0 0 1 forward_v I I I I #
coedge $-1 $197 $195 $199 $289 reversed $121 $-1 #
edge $-1 $210 -7.1533989064193104 $291 7.1533989064193104 $209 $341 forward 7 unknown #
vertex $-1 $289 $342 #
straight-curve $-1 -49.582811975463116 -25.953387289527818 0 0 0 -1 I I #
edge $-1 $287 -25.953387289527818 $291 25.953387289527818 $285 $343 forward 7 unknown #
straight-curve $-1 0 -25.953387289527818 -7.1533989064193104 -1 0 0 I I #
vertex $-1 $202 $344 #
straight-curve $-1 0 25.953387289527818 -7.1533989064193104 1 0 0 I I #
point $-1 49.582811975463116 25.953387289527818 -7.1533989064193104 #
point $-1 49.582811975463116 -25.953387289527818 -7.1533989064193104 #
straight-curve $-1 -49.582811975463116 0 7.1533989064193104 0 -1 0 I I #
point $-1 -49.582811975463116 25.953387289527818 7.1533989064193104 #
point $-1 -49.582811975463116 -25.953387289527818 7.1533989064193104 #
straight-curve $-1 49.582811975463116 -25.953387289527818 0 0 0 -1 I I #
straight-curve $-1 49.582811975463116 25.953387289527818 0 0 0 -1 I I #
plane-surface $-1 0 -25.953387289527818 0 0 1 0 0 0 1 forward_v I I I I #
coedge $-1 $345 $222 $304 $346 reversed $140 $-1 #
coedge $-1 $222 $345 $236 $315 reversed $140 $-1 #
edge $-1 $307 -2.1163730283059397 $305 2.1163730283059401 $223 $347 forward 7 unknown #
coedge $-1 $224 $310 $301 $346 forward $220 $-1 #
vertex $-1 $225 $348 #
straight-curve $-1 0 25.953387289527818 -7.1533989064193104 1 0 0 I I #
vertex $-1 $226 $349 #
straight-curve $-1 -52.652621499205694 25.953387289527818 -2.9206528498074307 -1 0 0 I I #
point $-1 -49.582811975463116 25.953387289527818 -7.1533989064193104 #
coedge $-1 $304 $229 $232 $313 forward $220 $-1 #
straight-curve $-1 -49.582811975463116 0 -7.1533989064193104 0 -1 0 I I #
coedge $-1 $232 $231 $345 $350 forward $233 $-1 #
edge $-1 $234 -3.0698095237425775 $351 3.0698095237425775 $232 $352 forward 7 unknown #
point $-1 -49.582811975463116 -25.953387289527818 -7.1533989064193104 #
edge $-1 $307 -25.953387289527818 $316 25.953387289527818 $302 $353 forward 7 unknown #
vertex $-1 $315 $354 #
straight-curve $-1 -52.652621499205694 -25.953387289527818 -2.9206528498074307 1 0 0 I I #
coedge $-1 $251 $250 $243 $319 forward $240 $-1 #
edge $-1 $320 61.275760101606579 $323 67.646443524547408 $318 $355 forward 7 unknown #
vertex $-1 $255 $356 #
straight-curve $-1 7.8276774577904078 -17.653184038174537 7.1533989064193122 1 0 0 I I #
edge $-1 $323 -11.916719046660987 $252 0.44378906363388726 $251 $357 forward 7 unknown #
vertex $-1 $322 $358 #
straight-curve $-1 -35.418717820764684 -17.653184038174537 51.856788219823983 -0.85716729658548041 0 0.51503808176128008 I I #
point $-1 38.980214458071814 -17.653184038174537 7.1533989064193122 #
point $-1 49.582811975463116 -5.2926759278796629 0.78271548347848352 #
straight-curve $-1 49.582811975463116 0 7.1533989064193104 0 1 0 I I #
vertex $-1 $258 $359 #
point $-1 44.556869806073706 -11.4729299830271 -1.3984844931829348 #
edge $-1 $331 61.275760101606579 $334 67.646443524547408 $263 $360 forward 7 unknown #
vertex $-1 $277 $361 #
straight-curve $-1 7.8276774577904078 8.3002032513532811 7.1533989064193122 1 0 0 I I #
edge $-1 $334 1.0599745981029223 $274 13.420482708397795 $273 $362 forward 7 unknown #
vertex $-1 $333 $363 #
straight-curve $-1 -35.418717820764684 8.3002032513532811 51.856788219823983 -0.85716729658548041 0 0.51503808176128008 I I #
point $-1 38.980214458071814 8.3002032513532811 7.1533989064193122 #
point $-1 49.582811975463116 20.660711361648154 0.78271548347848352 #
straight-curve $-1 49.582811975463116 0 7.1533989064193104 0 1 0 I I #
vertex $-1 $280 $364 #
point $-1 44.556869806073706 14.480457306500718 -1.3984844931829348 #
straight-curve $-1 -49.582811975463116 25.953387289527818 0 0 0 -1 I I #
point $-1 -49.582811975463116 -25.953387289527818 -7.1533989064193104 #
straight-curve $-1 -49.582811975463116 0 -7.1533989064193104 0 1 0 I I #
point $-1 -49.582811975463116 25.953387289527818 -7.1533989064193104 #
coedge $-1 $302 $301 $312 $350 reversed $140 $-1 #
edge $-1 $351 -25.953387289527818 $305 25.953387289527818 $301 $365 forward 7 unknown #
straight-curve $-1 -55.722431022948271 25.953387289527818 -5.0370258781133703 0 0 -1 I I #
point $-1 -55.722431022948271 25.953387289527818 -7.1533989064193104 #
point $-1 -55.722431022948271 25.953387289527818 -2.9206528498074307 #
edge $-1 $316 -2.1163730283059397 $351 2.1163730283059401 $345 $366 forward 7 unknown #
vertex $-1 $346 $367 #
straight-curve $-1 -52.652621499205694 -25.953387289527818 -7.1533989064193104 -1 0 0 I I #
straight-curve $-1 -55.722431022948271 0 -2.9206528498074307 0 -1 0 I I #
point $-1 -55.722431022948271 -25.953387289527818 -2.9206528498074307 #
straight-curve $-1 49.582811975463116 -17.653184038174537 68.429159008025891 0 0 -1 I I #
point $-1 49.582811975463116 -17.653184038174537 7.1533989064193104 #
straight-curve $-1 49.582811975463116 -5.7364649915135502 0.78271548347849063 0 1 0 I I #
point $-1 49.582811975463116 -17.653184038174537 0.78271548347848352 #
point $-1 40.440253671033425 -11.4729299830271 -2.424872137655536 #
straight-curve $-1 49.582811975463116 8.3002032513532811 68.429159008025891 0 0 -1 I I #
point $-1 49.582811975463116 8.3002032513532811 7.1533989064193104 #
straight-curve $-1 49.582811975463116 7.2402286532503588 0.78271548347849063 0 1 0 I I #
point $-1 49.582811975463116 8.3002032513532811 0.78271548347848352 #
point $-1 40.440253671033425 14.480457306500718 -2.424872137655536 #
straight-curve $-1 -55.722431022948271 0 -7.1533989064193104 0 1 0 I I #
straight-curve $-1 -55.722431022948271 -25.953387289527818 -5.0370258781133703 0 0 -1 I I #
point $-1 -55.722431022948271 -25.953387289527818 -7.1533989064193104 #
End-of-ACIS-data 