500 0 11 0           
7 Unknown 11 ACIS 5.0 NT 24 Thu Mar 25 15:22:29 1999 
-1 9.9999999999999995e-007 1e-010 
body $-1 $11 $-1 $12 #
body $-1 $13 $-1 $14 #
body $-1 $15 $-1 $16 #
body $-1 $17 $-1 $18 #
body $-1 $19 $-1 $20 #
body $-1 $21 $-1 $22 #
body $-1 $23 $-1 $24 #
body $-1 $25 $-1 $26 #
body $-1 $27 $-1 $28 #
body $-1 $29 $-1 $30 #
body $-1 $31 $-1 $32 #
lump $-1 $-1 $33 $0 #
transform $-1 1 0 0 0 1 0 0 0 1 67.439802240058597 36.159235011289333 7.6509661604745993 1 rotate no_reflect no_shear #
lump $-1 $-1 $34 $1 #
transform $-1 1 0 0 0 1 0 0 0 1 67.439802240058597 36.159235011289333 7.6509661604745993 1 rotate no_reflect no_shear #
lump $-1 $-1 $35 $2 #
transform $-1 1 0 0 0 1 0 0 0 1 67.439802240058597 36.159235011289333 7.6509661604745993 1 rotate no_reflect no_shear #
lump $-1 $-1 $36 $3 #
transform $-1 1 0 0 0 1 0 0 0 1 67.439802240058597 36.159235011289333 7.6509661604745993 1 rotate no_reflect no_shear #
lump $-1 $-1 $37 $4 #
transform $-1 1 0 0 0 1 0 0 0 1 67.439802240058597 36.159235011289333 7.6509661604745993 1 rotate no_reflect no_shear #
lump $-1 $-1 $38 $5 #
transform $-1 1 0 0 0 1 0 0 0 1 67.439802240058597 36.159235011289333 7.6509661604745993 1 rotate no_reflect no_shear #
lump $-1 $-1 $39 $6 #
transform $-1 1 0 0 0 1 0 0 0 1 67.439802240058597 36.159235011289333 7.6509661604745993 1 rotate no_reflect no_shear #
lump $-1 $-1 $40 $7 #
transform $-1 1 0 0 0 1 0 0 0 1 67.439802240058597 36.159235011289333 7.6509661604745993 1 rotate no_reflect no_shear #
lump $-1 $-1 $41 $8 #
transform $-1 1 0 0 0 1 0 0 0 1 67.439802240058597 36.159235011289333 7.6509661604745993 1 rotate no_reflect no_shear #
lump $-1 $-1 $42 $9 #
transform $-1 1 0 0 0 1 0 0 0 1 67.439802240058597 36.159235011289333 7.6509661604745993 1 rotate no_reflect no_shear #
lump $-1 $-1 $43 $10 #
transform $-1 1 0 0 0 1 0 0 0 1 67.439802240058597 36.159235011289333 7.6509661604745993 1 rotate no_reflect no_shear #
shell $-1 $-1 $-1 $44 $-1 $11 #
shell $-1 $-1 $-1 $45 $-1 $13 #
shell $-1 $-1 $-1 $46 $-1 $15 #
shell $-1 $-1 $-1 $47 $-1 $17 #
shell $-1 $-1 $-1 $48 $-1 $19 #
shell $-1 $-1 $-1 $49 $-1 $21 #
shell $-1 $-1 $-1 $50 $-1 $23 #
shell $-1 $-1 $-1 $51 $-1 $25 #
shell $-1 $-1 $-1 $52 $-1 $27 #
shell $-1 $-1 $-1 $53 $-1 $29 #
shell $-1 $-1 $-1 $54 $-1 $31 #
face $-1 $55 $56 $33 $-1 $57 forward single #
face $-1 $58 $59 $34 $-1 $60 forward single #
face $-1 $61 $62 $35 $-1 $63 forward single #
face $-1 $64 $65 $36 $-1 $66 reversed single #
face $-1 $67 $68 $37 $-1 $69 forward single #
face $-1 $70 $71 $38 $-1 $72 forward single #
face $-1 $73 $74 $39 $-1 $75 forward single #
face $-1 $76 $77 $40 $-1 $78 reversed single #
face $-1 $79 $80 $41 $-1 $81 forward single #
face $-1 $82 $83 $42 $-1 $84 forward single #
face $-1 $85 $86 $43 $-1 $87 forward single #
face $-1 $88 $89 $33 $-1 $90 reversed single #
loop $-1 $-1 $91 $44 #
plane-surface $-1 0 0 7.6509661604745993 0 0 1 1 0 0 forward_v I I I I #
face $-1 $92 $93 $34 $-1 $94 reversed single #
loop $-1 $-1 $95 $45 #
plane-surface $-1 -67.439802240058597 0 0 1 0 0 0 0 -1 forward_v I I I I #
face $-1 $96 $97 $35 $-1 $98 forward single #
loop $-1 $-1 $99 $46 #
plane-surface $-1 67.439802240058597 0 0 -1 0 0 0 0 1 forward_v I I I I #
face $-1 $100 $101 $36 $-1 $102 reversed single #
loop $-1 $-1 $103 $47 #
plane-surface $-1 -23.370896406121417 -133.18350387903487 96.244639411065961 -1 0 0 0 -0.71933980857756763 0.69465836192734942 forward_v I I I I #
face $-1 $104 $105 $37 $-1 $106 forward single #
loop $-1 $107 $108 $48 #
cone-surface $-1 -43.106479508573834 -33.006255738809841 4.4341311871219595 0 0.71933980857756763 -0.69465836192734942 1.5 0 0 1 I I 0 1 1.5 forward I I I I #
face $-1 $109 $110 $38 $-1 $111 forward single #
loop $-1 $112 $113 $49 #
cone-surface $-1 -35.705635845154177 -33.006255738809841 4.4341311871219595 0 0.71933980857756763 -0.69465836192734942 1.5 0 0 1 I I 0 1 1.5 forward I I I I #
face $-1 $114 $115 $39 $-1 $116 forward single #
loop $-1 $117 $118 $50 #
cone-surface $-1 -28.30479218173452 -33.006255738809841 4.4341311871219595 0 0.71933980857756763 -0.69465836192734942 1.5 0 0 1 I I 0 1 1.5 forward I I I I #
face $-1 $119 $120 $40 $-1 $121 reversed single #
loop $-1 $-1 $122 $51 #
plane-surface $-1 34.243325271075278 -133.18350387903487 96.244639411065961 -1 0 0 0 -0.71933980857756763 0.69465836192734942 forward_v I I I I #
face $-1 $123 $124 $41 $-1 $125 forward single #
loop $-1 $126 $127 $52 #
cone-surface $-1 14.507742168622869 -33.006255738809841 4.4341311871219595 0 0.71933980857756763 -0.69465836192734942 1.5 0 0 1 I I 0 1 1.5 forward I I I I #
face $-1 $128 $129 $42 $-1 $130 forward single #
loop $-1 $131 $132 $53 #
cone-surface $-1 21.908585832042519 -33.006255738809841 4.4341311871219595 0 0.71933980857756763 -0.69465836192734942 1.5 0 0 1 I I 0 1 1.5 forward I I I I #
face $-1 $133 $134 $43 $-1 $135 forward single #
loop $-1 $136 $137 $54 #
cone-surface $-1 29.309429495462169 -33.006255738809841 4.4341311871219595 0 0.71933980857756763 -0.69465836192734942 1.5 0 0 1 I I 0 1 1.5 forward I I I I #
face $-1 $138 $139 $33 $-1 $140 reversed single #
loop $-1 $-1 $141 $55 #
plane-surface $-1 0 0 -7.6509661604745993 0 0 1 1 0 0 forward_v I I I I #
coedge $-1 $142 $143 $144 $145 forward $56 $-1 #
face $-1 $146 $147 $34 $-1 $148 reversed single #
loop $-1 $-1 $149 $58 #
plane-surface $-1 0 36.159235011289333 0 0 -1 0 0 0 -1 forward_v I I I I #
coedge $-1 $150 $151 $152 $153 forward $59 $-1 #
face $-1 $154 $155 $35 $-1 $156 reversed single #
loop $-1 $-1 $157 $61 #
plane-surface $-1 0 0 7.6509661604745993 0 0 1 1 0 0 forward_v I I I I #
coedge $-1 $158 $159 $160 $161 forward $62 $-1 #
face $-1 $162 $163 $36 $-1 $164 reversed single #
loop $-1 $-1 $165 $64 #
plane-surface $-1 -35.705635845154177 -36.15923501128934 2.5493943054989643 0 -0.71933980857756763 0.69465836192734942 1 0 0 forward_v I I I I #
coedge $-1 $166 $167 $168 $169 reversed $65 $-1 #
face $-1 $-1 $170 $37 $-1 $171 forward single #
loop $-1 $172 $173 $67 #
cone-surface $-1 -43.106479508573834 -31.777036888541836 3.2470883698116282 0 0.71933980857756763 -0.69465836192734942 0.75 0 0 1 I I -0.70710678118654757 0.70710678118654757 0.75 forward I I I I #
loop $-1 $-1 $174 $48 #
coedge $-1 $108 $108 $175 $176 reversed $68 $-1 #
face $-1 $-1 $177 $38 $-1 $178 forward single #
loop $-1 $179 $180 $70 #
cone-surface $-1 -35.705635845154177 -31.777036888541836 3.2470883698116282 0 0.71933980857756763 -0.69465836192734942 0.75 0 0 1 I I -0.70710678118654757 0.70710678118654757 0.75 forward I I I I #
loop $-1 $-1 $181 $49 #
coedge $-1 $113 $113 $182 $183 reversed $71 $-1 #
face $-1 $-1 $184 $39 $-1 $185 forward single #
loop $-1 $186 $187 $73 #
cone-surface $-1 -28.30479218173452 -31.777036888541836 3.2470883698116282 0 0.71933980857756763 -0.69465836192734942 0.75 0 0 1 I I -0.70710678118654757 0.70710678118654757 0.75 forward I I I I #
loop $-1 $-1 $188 $50 #
coedge $-1 $118 $118 $189 $190 reversed $74 $-1 #
face $-1 $191 $192 $40 $-1 $193 reversed single #
loop $-1 $-1 $194 $76 #
plane-surface $-1 21.908585832042519 -36.15923501128934 2.5493943054989643 0 -0.71933980857756763 0.69465836192734942 1 0 0 forward_v I I I I #
coedge $-1 $195 $196 $197 $198 reversed $77 $-1 #
face $-1 $-1 $199 $41 $-1 $200 forward single #
loop $-1 $201 $202 $79 #
cone-surface $-1 14.507742168622869 -31.777036888541836 3.2470883698116282 0 0.71933980857756763 -0.69465836192734942 0.75 0 0 1 I I -0.70710678118654757 0.70710678118654757 0.75 forward I I I I #
loop $-1 $-1 $203 $52 #
coedge $-1 $127 $127 $204 $205 reversed $80 $-1 #
face $-1 $-1 $206 $42 $-1 $207 forward single #
loop $-1 $208 $209 $82 #
cone-surface $-1 21.908585832042519 -31.777036888541836 3.2470883698116282 0 0.71933980857756763 -0.69465836192734942 0.75 0 0 1 I I -0.70710678118654757 0.70710678118654757 0.75 forward I I I I #
loop $-1 $-1 $210 $53 #
coedge $-1 $132 $132 $211 $212 reversed $83 $-1 #
face $-1 $-1 $213 $43 $-1 $214 forward single #
loop $-1 $215 $216 $85 #
cone-surface $-1 29.309429495462169 -31.777036888541836 3.2470883698116282 0 0.71933980857756763 -0.69465836192734942 0.75 0 0 1 I I -0.70710678118654757 0.70710678118654757 0.75 forward I I I I #
loop $-1 $-1 $217 $54 #
coedge $-1 $137 $137 $218 $219 reversed $86 $-1 #
face $-1 $220 $221 $33 $-1 $222 reversed single #
loop $-1 $-1 $223 $88 #
plane-surface $-1 0 -36.159235011289333 0 0 1 0 0 0 1 forward_v I I I I #
coedge $-1 $224 $225 $226 $227 forward $89 $-1 #
coedge $-1 $228 $91 $229 $230 forward $56 $-1 #
coedge $-1 $91 $228 $231 $232 forward $56 $-1 #
coedge $-1 $233 $234 $91 $145 reversed $235 $-1 #
edge $-1 $236 -36.159235011289333 $237 36.159235011289333 $144 $238 forward 7 unknown #
face $-1 $239 $240 $34 $-1 $241 reversed single #
loop $-1 $-1 $152 $92 #
plane-surface $-1 -72.352592521489555 0 4.6509661604745993 0 0 1 1 0 0 forward_v I I I I #
coedge $-1 $242 $243 $150 $244 forward $93 $-1 #
coedge $-1 $245 $95 $149 $244 reversed $59 $-1 #
coedge $-1 $95 $245 $246 $247 reversed $59 $-1 #
coedge $-1 $248 $249 $95 $153 reversed $147 $-1 #
edge $-1 $250 -36.159235011289333 $251 36.159235011289333 $152 $252 forward 7 unknown #
face $-1 $253 $254 $35 $-1 $255 reversed single #
loop $-1 $-1 $256 $96 #
plane-surface $-1 0 -36.159235011289333 0 0 1 0 0 0 1 forward_v I I I I #
coedge $-1 $257 $258 $259 $260 forward $97 $-1 #
coedge $-1 $259 $99 $256 $261 reversed $62 $-1 #
coedge $-1 $99 $259 $262 $263 reversed $62 $-1 #
coedge $-1 $264 $265 $99 $161 reversed $254 $-1 #
edge $-1 $266 -36.159235011289333 $267 36.159235011289333 $160 $268 forward 7 unknown #
face $-1 $269 $270 $36 $-1 $271 reversed single #
loop $-1 $-1 $272 $100 #
plane-surface $-1 -48.040375284186936 -133.18350387903487 96.244639411065961 1 0 0 0 0.71933980857756763 -0.69465836192734942 forward_v I I I I #
coedge $-1 $273 $274 $275 $276 reversed $101 $-1 #
coedge $-1 $167 $103 $277 $278 reversed $65 $-1 #
coedge $-1 $103 $166 $273 $279 reversed $65 $-1 #
coedge $-1 $275 $280 $103 $169 forward $281 $-1 #
edge $-1 $282 30.432516928228104 $283 35.359047485517422 $168 $284 forward 7 unknown #
loop $-1 $-1 $175 $104 #
plane-surface $-1 -35.705635845154177 -36.15923501128934 2.5493943054989643 0 -0.71933980857756763 0.69465836192734942 1 0 0 forward_v I I I I #
loop $-1 $-1 $285 $67 #
coedge $-1 $173 $173 $174 $286 reversed $105 $-1 #
coedge $-1 $174 $174 $173 $286 forward $107 $-1 #
coedge $-1 $175 $175 $108 $176 forward $170 $-1 #
edge $-1 $287 7.3495464171066626e-016 $287 6.2831853071796013 $175 $288 forward 7 unknown #
loop $-1 $-1 $182 $109 #
plane-surface $-1 -35.705635845154177 -36.15923501128934 2.5493943054989643 0 -0.71933980857756763 0.69465836192734942 1 0 0 forward_v I I I I #
loop $-1 $-1 $289 $70 #
coedge $-1 $180 $180 $181 $290 reversed $110 $-1 #
coedge $-1 $181 $181 $180 $290 forward $112 $-1 #
coedge $-1 $182 $182 $113 $183 forward $177 $-1 #
edge $-1 $291 7.3495464171066626e-016 $291 6.2831853071796013 $182 $292 forward 7 unknown #
loop $-1 $-1 $189 $114 #
plane-surface $-1 -35.705635845154177 -36.15923501128934 2.5493943054989643 0 -0.71933980857756763 0.69465836192734942 1 0 0 forward_v I I I I #
loop $-1 $-1 $293 $73 #
coedge $-1 $187 $187 $188 $294 reversed $115 $-1 #
coedge $-1 $188 $188 $187 $294 forward $117 $-1 #
coedge $-1 $189 $189 $118 $190 forward $184 $-1 #
edge $-1 $295 7.3495464171066626e-016 $295 6.2831853071796013 $189 $296 forward 7 unknown #
face $-1 $297 $298 $40 $-1 $299 reversed single #
loop $-1 $-1 $300 $119 #
plane-surface $-1 9.5738463930097595 -133.18350387903487 96.244639411065961 1 0 0 0 0.71933980857756763 -0.69465836192734942 forward_v I I I I #
coedge $-1 $301 $302 $303 $304 reversed $120 $-1 #
coedge $-1 $196 $122 $305 $306 reversed $77 $-1 #
coedge $-1 $122 $195 $301 $307 reversed $77 $-1 #
coedge $-1 $303 $308 $122 $198 forward $309 $-1 #
edge $-1 $310 30.432516928228104 $311 35.359047485517422 $197 $312 forward 7 unknown #
loop $-1 $-1 $204 $123 #
plane-surface $-1 21.908585832042519 -36.15923501128934 2.5493943054989643 0 -0.71933980857756763 0.69465836192734942 1 0 0 forward_v I I I I #
loop $-1 $-1 $313 $79 #
coedge $-1 $202 $202 $203 $314 reversed $124 $-1 #
coedge $-1 $203 $203 $202 $314 forward $126 $-1 #
coedge $-1 $204 $204 $127 $205 forward $199 $-1 #
edge $-1 $315 7.3495464171066626e-016 $315 6.2831853071796013 $204 $316 forward 7 unknown #
loop $-1 $-1 $211 $128 #
plane-surface $-1 21.908585832042519 -36.15923501128934 2.5493943054989643 0 -0.71933980857756763 0.69465836192734942 1 0 0 forward_v I I I I #
loop $-1 $-1 $317 $82 #
coedge $-1 $209 $209 $210 $318 reversed $129 $-1 #
coedge $-1 $210 $210 $209 $318 forward $131 $-1 #
coedge $-1 $211 $211 $132 $212 forward $206 $-1 #
edge $-1 $319 7.3495464171066626e-016 $319 6.2831853071796013 $211 $320 forward 7 unknown #
loop $-1 $-1 $218 $133 #
plane-surface $-1 21.908585832042519 -36.15923501128934 2.5493943054989643 0 -0.71933980857756763 0.69465836192734942 1 0 0 forward_v I I I I #
loop $-1 $-1 $321 $85 #
coedge $-1 $216 $216 $217 $322 reversed $134 $-1 #
coedge $-1 $217 $217 $216 $322 forward $136 $-1 #
coedge $-1 $218 $218 $137 $219 forward $213 $-1 #
edge $-1 $323 7.3495464171066626e-016 $323 6.2831853071796013 $218 $324 forward 7 unknown #
face $-1 $325 $326 $33 $-1 $327 reversed single #
loop $-1 $-1 $328 $138 #
plane-surface $-1 -67.439802240058597 0 0 1 0 0 0 0 -1 forward_v I I I I #
coedge $-1 $329 $231 $330 $331 forward $139 $-1 #
coedge $-1 $332 $141 $329 $333 forward $89 $-1 #
coedge $-1 $141 $332 $334 $335 forward $89 $-1 #
coedge $-1 $234 $233 $141 $227 reversed $235 $-1 #
edge $-1 $336 -36.159235011289333 $337 36.159235011289333 $226 $338 forward 7 unknown #
coedge $-1 $143 $142 $339 $340 forward $56 $-1 #
coedge $-1 $341 $342 $142 $230 reversed $326 $-1 #
edge $-1 $237 -67.439802240058597 $343 67.439802240058597 $229 $344 forward 7 unknown #
coedge $-1 $223 $345 $143 $232 reversed $139 $-1 #
edge $-1 $346 -67.439802240058597 $236 67.439802240058597 $231 $347 forward 7 unknown #
coedge $-1 $226 $144 $345 $348 forward $235 $-1 #
coedge $-1 $144 $226 $341 $349 reversed $235 $-1 #
loop $-1 $-1 $233 $325 #
vertex $-1 $145 $350 #
vertex $-1 $145 $351 #
straight-curve $-1 67.439802240058597 0 7.6509661604745993 0 1 0 I I #
face $-1 $352 $353 $34 $-1 $354 forward single #
loop $-1 $-1 $355 $146 #
plane-surface $-1 -77.265382802920513 0 6.1509661604745993 1 0 0 0 0 -1 forward_v I I I I #
coedge $-1 $356 $149 $249 $357 reversed $93 $-1 #
coedge $-1 $149 $356 $358 $359 reversed $93 $-1 #
edge $-1 $360 -7.6509661604745993 $251 -4.6509661604745993 $149 $361 forward 7 unknown #
coedge $-1 $151 $150 $362 $363 reversed $59 $-1 #
coedge $-1 $364 $365 $151 $247 forward $366 $-1 #
edge $-1 $250 4.6509661604745993 $367 7.6509661604745993 $246 $368 forward 7 unknown #
coedge $-1 $369 $152 $365 $370 forward $147 $-1 #
coedge $-1 $152 $369 $242 $357 forward $147 $-1 #
vertex $-1 $247 $371 #
vertex $-1 $244 $372 #
straight-curve $-1 -67.439802240058597 0 4.6509661604745993 0 1 0 I I #
face $-1 $373 $374 $35 $-1 $375 reversed single #
loop $-1 $-1 $376 $154 #
plane-surface $-1 72.352592521489569 0 4.6509661604745993 0 0 1 1 0 0 forward_v I I I I #
coedge $-1 $377 $378 $158 $261 forward $155 $-1 #
coedge $-1 $379 $157 $378 $380 forward $97 $-1 #
coedge $-1 $157 $379 $381 $382 forward $97 $-1 #
coedge $-1 $159 $158 $157 $260 reversed $62 $-1 #
edge $-1 $383 -36.159235011289333 $384 36.159235011289333 $157 $385 forward 7 unknown #
edge $-1 $384 -7.6509661604745993 $267 -4.6509661604745993 $256 $386 forward 7 unknown #
coedge $-1 $381 $387 $159 $263 forward $388 $-1 #
edge $-1 $266 4.6509661604745993 $383 7.6509661604745993 $262 $389 forward 7 unknown #
coedge $-1 $376 $160 $387 $390 forward $254 $-1 #
coedge $-1 $160 $376 $377 $391 forward $254 $-1 #
vertex $-1 $263 $392 #
vertex $-1 $261 $393 #
straight-curve $-1 67.439802240058597 0 4.6509661604745993 0 -1 0 I I #
face $-1 $-1 $281 $36 $-1 $394 forward single #
loop $-1 $-1 $395 $162 #
plane-surface $-1 0 -36.159235011289333 0 0 1 0 0 0 1 forward_v I I I I #
coedge $-1 $396 $397 $398 $399 reversed $163 $-1 #
coedge $-1 $400 $165 $167 $279 forward $101 $-1 #
coedge $-1 $165 $400 $396 $401 forward $101 $-1 #
coedge $-1 $398 $168 $165 $276 forward $281 $-1 #
edge $-1 $283 5.5180784835443291 $402 30.187557361609848 $275 $403 forward 7 unknown #
coedge $-1 $404 $405 $166 $278 forward $270 $-1 #
edge $-1 $406 -45.572925400034009 $282 -40.471353545058378 $277 $407 forward 7 unknown #
edge $-1 $283 -7.0920193685145172 $406 -1.0366512331508311e-014 $167 $408 forward 7 unknown #
coedge $-1 $168 $398 $404 $409 forward $281 $-1 #
loop $-1 $-1 $398 $269 #
vertex $-1 $278 $410 #
vertex $-1 $169 $411 #
straight-curve $-1 -23.370896406121417 -66.591751939517437 7.6509661604745958 0 1 0 I I #
coedge $-1 $285 $285 $-1 $412 reversed $172 $-1 #
edge $-1 $413 0 $413 6.2831853071796004 $173 $414 forward 7 unknown #
vertex $-1 $176 $415 #
ellipse-curve $-1 -43.106479508573834 -33.69596973264467 5.1001802329867836 0 -0.71933980857756763 0.69465836192734942 1.5 0 0 1 I I #
coedge $-1 $289 $289 $-1 $416 reversed $179 $-1 #
edge $-1 $417 0 $417 6.2831853071796004 $180 $418 forward 7 unknown #
vertex $-1 $183 $419 #
ellipse-curve $-1 -35.705635845154177 -33.69596973264467 5.1001802329867836 0 -0.71933980857756763 0.69465836192734942 1.5 0 0 1 I I #
coedge $-1 $293 $293 $-1 $420 reversed $186 $-1 #
edge $-1 $421 0 $421 6.2831853071796004 $187 $422 forward 7 unknown #
vertex $-1 $190 $423 #
ellipse-curve $-1 -28.30479218173452 -33.69596973264467 5.1001802329867836 0 -0.71933980857756763 0.69465836192734942 1.5 0 0 1 I I #
face $-1 $-1 $309 $40 $-1 $424 forward single #
loop $-1 $-1 $425 $191 #
plane-surface $-1 0 -36.159235011289333 0 0 1 0 0 0 1 forward_v I I I I #
coedge $-1 $426 $427 $428 $429 reversed $192 $-1 #
coedge $-1 $430 $194 $196 $307 forward $120 $-1 #
coedge $-1 $194 $430 $426 $431 forward $120 $-1 #
coedge $-1 $428 $197 $194 $304 forward $309 $-1 #
edge $-1 $311 -23.289032355054019 $432 1.3804465230114999 $303 $433 forward 7 unknown #
coedge $-1 $434 $435 $195 $306 forward $298 $-1 #
edge $-1 $436 -45.572925400034009 $310 -40.471353545058378 $305 $437 forward 7 unknown #
edge $-1 $311 -7.0920193685145172 $436 -1.0366512331508311e-014 $196 $438 forward 7 unknown #
coedge $-1 $197 $428 $434 $439 forward $309 $-1 #
loop $-1 $-1 $428 $297 #
vertex $-1 $306 $440 #
vertex $-1 $198 $441 #
straight-curve $-1 34.243325271075278 -66.591751939517437 7.6509661604745958 0 1 0 I I #
coedge $-1 $313 $313 $-1 $442 reversed $201 $-1 #
edge $-1 $443 0 $443 6.2831853071796004 $202 $444 forward 7 unknown #
vertex $-1 $205 $445 #
ellipse-curve $-1 14.507742168622869 -33.69596973264467 5.1001802329867836 0 -0.71933980857756763 0.69465836192734942 1.5 0 0 1 I I #
coedge $-1 $317 $317 $-1 $446 reversed $208 $-1 #
edge $-1 $447 0 $447 6.2831853071796004 $209 $448 forward 7 unknown #
vertex $-1 $212 $449 #
ellipse-curve $-1 21.908585832042519 -33.69596973264467 5.1001802329867836 0 -0.71933980857756763 0.69465836192734942 1.5 0 0 1 I I #
coedge $-1 $321 $321 $-1 $450 reversed $215 $-1 #
edge $-1 $451 0 $451 6.2831853071796004 $216 $452 forward 7 unknown #
vertex $-1 $219 $453 #
ellipse-curve $-1 29.309429495462169 -33.69596973264467 5.1001802329867836 0 -0.71933980857756763 0.69465836192734942 1.5 0 0 1 I I #
face $-1 $-1 $235 $33 $-1 $454 reversed single #
loop $-1 $-1 $341 $220 #
plane-surface $-1 0 36.159235011289333 0 0 -1 0 0 0 -1 forward_v I I I I #
coedge $-1 $455 $339 $342 $456 forward $221 $-1 #
coedge $-1 $345 $223 $224 $333 reversed $139 $-1 #
coedge $-1 $339 $455 $223 $331 reversed $221 $-1 #
edge $-1 $346 -7.6509661604745993 $457 7.6509661604745993 $330 $458 forward 7 unknown #
coedge $-1 $225 $224 $455 $459 forward $89 $-1 #
edge $-1 $337 -67.439802240058597 $457 67.439802240058597 $329 $460 forward 7 unknown #
coedge $-1 $342 $341 $225 $335 reversed $326 $-1 #
edge $-1 $461 -67.439802240058597 $336 67.439802240058597 $334 $462 forward 7 unknown #
vertex $-1 $227 $463 #
vertex $-1 $348 $464 #
straight-curve $-1 67.439802240058597 0 -7.6509661604745993 0 -1 0 I I #
coedge $-1 $328 $330 $228 $340 reversed $221 $-1 #
edge $-1 $343 -36.159235011289333 $346 36.159235011289333 $339 $465 forward 7 unknown #
coedge $-1 $334 $229 $234 $349 forward $326 $-1 #
coedge $-1 $229 $334 $328 $456 reversed $326 $-1 #
vertex $-1 $230 $466 #
straight-curve $-1 0 36.159235011289333 7.6509661604745993 -1 0 0 I I #
coedge $-1 $231 $329 $233 $348 reversed $139 $-1 #
vertex $-1 $340 $467 #
straight-curve $-1 0 -36.159235011289333 7.6509661604745993 1 0 0 I I #
edge $-1 $236 -7.6509661604745993 $337 7.6509661604745993 $233 $468 forward 7 unknown #
edge $-1 $237 -7.6509661604745993 $336 7.6509661604745993 $234 $469 forward 7 unknown #
point $-1 67.439802240058597 -36.159235011289333 7.6509661604745993 #
point $-1 67.439802240058597 36.159235011289333 7.6509661604745993 #
face $-1 $-1 $366 $34 $-1 $470 reversed single #
loop $-1 $-1 $362 $239 #
plane-surface $-1 0 0 7.6509661604745993 0 0 1 1 0 0 forward_v I I I I #
coedge $-1 $471 $472 $356 $473 forward $240 $-1 #
coedge $-1 $243 $242 $355 $473 reversed $93 $-1 #
edge $-1 $474 -4.9127902814309579 $251 4.9127902814309579 $242 $475 forward 7 unknown #
coedge $-1 $476 $362 $243 $359 forward $353 $-1 #
edge $-1 $360 67.439802240058597 $477 77.265382802920513 $243 $478 forward 7 unknown #
vertex $-1 $359 $479 #
straight-curve $-1 -67.439802240058597 36.159235011289333 0 0 0 -1 I I #
coedge $-1 $358 $480 $245 $363 forward $353 $-1 #
edge $-1 $367 -36.159235011289333 $360 36.159235011289333 $362 $481 forward 7 unknown #
coedge $-1 $482 $246 $480 $483 reversed $366 $-1 #
coedge $-1 $246 $482 $248 $370 reversed $366 $-1 #
loop $-1 $-1 $246 $352 #
vertex $-1 $247 $484 #
straight-curve $-1 -67.439802240058597 -36.159235011289333 0 0 0 1 I I #
coedge $-1 $249 $248 $471 $485 forward $147 $-1 #
edge $-1 $250 -4.9127902814309579 $486 4.9127902814309579 $365 $487 forward 7 unknown #
point $-1 -67.439802240058597 -36.159235011289333 4.6509661604745993 #
point $-1 -67.439802240058597 36.159235011289333 4.6509661604745993 #
face $-1 $-1 $388 $35 $-1 $488 reversed single #
loop $-1 $-1 $489 $253 #
plane-surface $-1 77.265382802920527 0 6.1509661604745993 -1 0 0 0 0 1 forward_v I I I I #
coedge $-1 $265 $264 $490 $491 forward $254 $-1 #
coedge $-1 $492 $256 $265 $391 reversed $155 $-1 #
coedge $-1 $256 $492 $257 $380 reversed $155 $-1 #
coedge $-1 $258 $257 $493 $494 forward $97 $-1 #
edge $-1 $384 -4.9127902814309721 $495 4.9127902814309579 $378 $496 forward 7 unknown #
coedge $-1 $497 $262 $258 $382 reversed $388 $-1 #
edge $-1 $498 -77.265382802920527 $383 -67.439802240058597 $381 $499 forward 7 unknown #
vertex $-1 $263 $500 #
vertex $-1 $380 $501 #
straight-curve $-1 67.439802240058597 0 7.6509661604745993 0 -1 0 I I #
straight-curve $-1 67.439802240058597 -36.159235011289333 0 0 0 -1 I I #
coedge $-1 $262 $497 $264 $390 reversed $388 $-1 #
loop $-1 $-1 $262 $373 #
straight-curve $-1 67.439802240058597 36.159235011289333 0 0 0 1 I I #
edge $-1 $266 -4.9127902814309579 $502 4.9127902814309579 $387 $503 forward 7 unknown #
edge $-1 $504 -4.9127902814309579 $267 4.9127902814309579 $377 $505 forward 7 unknown #
point $-1 67.439802240058611 36.159235011289333 4.6509661604745993 #
point $-1 67.439802240058611 -36.159235011289333 4.6509661604745993 #
plane-surface $-1 0 0 7.6509661604745993 0 0 1 1 0 0 forward_v I I I I #
coedge $-1 $405 $404 $397 $506 forward $270 $-1 #
coedge $-1 $397 $272 $274 $401 reversed $163 $-1 #
coedge $-1 $272 $396 $395 $506 reversed $163 $-1 #
coedge $-1 $280 $275 $272 $399 forward $281 $-1 #
edge $-1 $402 -35.359047485517422 $507 -30.432516928228104 $398 $508 forward 7 unknown #
coedge $-1 $274 $273 $405 $509 reversed $101 $-1 #
edge $-1 $510 1.0366512331508311e-014 $402 7.0920193685145172 $396 $511 forward 7 unknown #
vertex $-1 $276 $512 #
straight-curve $-1 -17.852817922577088 -31.232704454000011 7.6509661604746002 -1 0 0 I I #
coedge $-1 $395 $277 $280 $409 reversed $270 $-1 #
coedge $-1 $277 $395 $400 $509 forward $270 $-1 #
vertex $-1 $278 $513 #
straight-curve $-1 -23.370896406121417 -36.159235011289333 48.122319705532981 0 0 1 I I #
straight-curve $-1 -23.370896406121417 -36.15923501128934 2.5493943054989643 0 -0.69465836192734942 -0.71933980857756763 I I #
edge $-1 $507 -120.39296780567651 $282 -95.723488927610987 $404 $514 forward 7 unknown #
point $-1 -23.370896406121417 -36.159235011289333 7.6509661604745993 #
point $-1 -23.370896406121417 -31.232704454000011 7.6509661604745993 #
edge $-1 $515 1 $515 0 $285 $-1 forward 7 unknown #
vertex $-1 $286 $516 #
ellipse-curve $-1 -43.106479508573834 -32.316541744975012 3.7680821412571404 0 -0.71933980857756763 0.69465836192734942 1.5 0 0 1 I I #
point $-1 -41.606479508573834 -33.695969732644663 5.1001802329867783 #
edge $-1 $517 1 $517 0 $289 $-1 forward 7 unknown #
vertex $-1 $290 $518 #
ellipse-curve $-1 -35.705635845154177 -32.316541744975012 3.7680821412571404 0 -0.71933980857756763 0.69465836192734942 1.5 0 0 1 I I #
point $-1 -34.205635845154177 -33.695969732644663 5.1001802329867783 #
edge $-1 $519 1 $519 0 $293 $-1 forward 7 unknown #
vertex $-1 $294 $520 #
ellipse-curve $-1 -28.30479218173452 -32.316541744975012 3.7680821412571404 0 -0.71933980857756763 0.69465836192734942 1.5 0 0 1 I I #
point $-1 -26.80479218173452 -33.695969732644663 5.1001802329867783 #
plane-surface $-1 0 0 7.6509661604745993 0 0 1 1 0 0 forward_v I I I I #
coedge $-1 $435 $434 $427 $521 forward $298 $-1 #
coedge $-1 $427 $300 $302 $431 reversed $192 $-1 #
coedge $-1 $300 $426 $425 $521 reversed $192 $-1 #
coedge $-1 $308 $303 $300 $429 forward $309 $-1 #
edge $-1 $432 -35.359047485517422 $522 -30.432516928228104 $428 $523 forward 7 unknown #
coedge $-1 $302 $301 $435 $524 reversed $120 $-1 #
edge $-1 $525 1.0366512331508311e-014 $432 7.0920193685145172 $426 $526 forward 7 unknown #
vertex $-1 $304 $527 #
straight-curve $-1 10.954292916021259 -31.232704454000011 7.6509661604746002 -1 0 0 I I #
coedge $-1 $425 $305 $308 $439 reversed $298 $-1 #
coedge $-1 $305 $425 $430 $524 forward $298 $-1 #
vertex $-1 $306 $528 #
straight-curve $-1 34.243325271075278 -36.159235011289333 48.122319705532981 0 0 1 I I #
straight-curve $-1 34.243325271075278 -36.15923501128934 2.5493943054989643 0 -0.69465836192734942 -0.71933980857756763 I I #
edge $-1 $522 -62.77874612847981 $310 -38.109267250414291 $434 $529 forward 7 unknown #
point $-1 34.243325271075278 -36.159235011289333 7.6509661604745993 #
point $-1 34.243325271075278 -31.232704454000011 7.6509661604745993 #
edge $-1 $530 1 $530 0 $313 $-1 forward 7 unknown #
vertex $-1 $314 $531 #
ellipse-curve $-1 14.507742168622869 -32.316541744975012 3.7680821412571404 0 -0.71933980857756763 0.69465836192734942 1.5 0 0 1 I I #
point $-1 16.007742168622869 -33.695969732644663 5.1001802329867783 #
edge $-1 $532 1 $532 0 $317 $-1 forward 7 unknown #
vertex $-1 $318 $533 #
ellipse-curve $-1 21.908585832042519 -32.316541744975012 3.7680821412571404 0 -0.71933980857756763 0.69465836192734942 1.5 0 0 1 I I #
point $-1 23.408585832042519 -33.695969732644663 5.1001802329867783 #
edge $-1 $534 1 $534 0 $321 $-1 forward 7 unknown #
vertex $-1 $322 $535 #
ellipse-curve $-1 29.309429495462169 -32.316541744975012 3.7680821412571404 0 -0.71933980857756763 0.69465836192734942 1.5 0 0 1 I I #
point $-1 30.809429495462169 -33.695969732644663 5.1001802329867783 #
plane-surface $-1 67.439802240058597 0 0 -1 0 0 0 0 1 forward_v I I I I #
coedge $-1 $330 $328 $332 $459 reversed $221 $-1 #
edge $-1 $343 -7.6509661604745993 $461 7.6509661604745993 $342 $536 forward 7 unknown #
vertex $-1 $459 $537 #
straight-curve $-1 -67.439802240058597 -36.159235011289333 0 0 0 -1 I I #
edge $-1 $457 -36.159235011289333 $461 36.159235011289333 $455 $538 forward 7 unknown #
straight-curve $-1 0 -36.159235011289333 -7.6509661604745993 -1 0 0 I I #
vertex $-1 $335 $539 #
straight-curve $-1 0 36.159235011289333 -7.6509661604745993 1 0 0 I I #
point $-1 67.439802240058597 36.159235011289333 -7.6509661604745993 #
point $-1 67.439802240058597 -36.159235011289333 -7.6509661604745993 #
straight-curve $-1 -67.439802240058597 0 7.6509661604745993 0 -1 0 I I #
point $-1 -67.439802240058597 36.159235011289333 7.6509661604745993 #
point $-1 -67.439802240058597 -36.159235011289333 7.6509661604745993 #
straight-curve $-1 67.439802240058597 -36.159235011289333 0 0 0 -1 I I #
straight-curve $-1 67.439802240058597 36.159235011289333 0 0 0 -1 I I #
plane-surface $-1 0 -36.159235011289333 0 0 1 0 0 0 1 forward_v I I I I #
coedge $-1 $540 $355 $369 $485 reversed $240 $-1 #
coedge $-1 $355 $540 $476 $541 reversed $240 $-1 #
edge $-1 $477 -1.5 $474 1.5 $356 $542 forward 7 unknown #
vertex $-1 $357 $543 #
straight-curve $-1 -72.352592521489555 36.159235011289333 4.6509661604745993 1 0 0 I I #
coedge $-1 $480 $358 $472 $541 forward $353 $-1 #
vertex $-1 $359 $544 #
straight-curve $-1 0 36.159235011289333 7.6509661604745993 -1 0 0 I I #
point $-1 -67.439802240058597 36.159235011289333 7.6509661604745993 #
coedge $-1 $362 $476 $364 $483 forward $353 $-1 #
straight-curve $-1 -67.439802240058597 0 7.6509661604745993 0 1 0 I I #
coedge $-1 $365 $364 $540 $545 forward $366 $-1 #
edge $-1 $546 -77.265382802920513 $367 -67.439802240058597 $364 $547 forward 7 unknown #
point $-1 -67.439802240058597 -36.159235011289333 7.6509661604745993 #
edge $-1 $486 -36.159235011289333 $474 36.159235011289333 $471 $548 forward 7 unknown #
vertex $-1 $485 $549 #
straight-curve $-1 -72.352592521489555 -36.159235011289333 4.6509661604745993 -1 0 0 I I #
plane-surface $-1 0 36.159235011289333 0 0 -1 0 0 0 -1 forward_v I I I I #
coedge $-1 $490 $493 $492 $550 forward $374 $-1 #
coedge $-1 $551 $489 $376 $491 reversed $374 $-1 #
edge $-1 $502 -36.159235011289333 $504 36.159235011289333 $490 $552 forward 7 unknown #
coedge $-1 $378 $377 $489 $550 reversed $155 $-1 #
coedge $-1 $489 $551 $379 $494 reversed $374 $-1 #
edge $-1 $495 -36.159235011289333 $498 36.159235011289333 $493 $553 forward 7 unknown #
vertex $-1 $494 $554 #
straight-curve $-1 72.352592521489569 -36.159235011289333 7.6509661604745993 1 0 0 I I #
coedge $-1 $387 $381 $551 $555 forward $388 $-1 #
vertex $-1 $494 $556 #
straight-curve $-1 0 36.159235011289333 7.6509661604745993 -1 0 0 I I #
point $-1 67.439802240058597 36.159235011289333 7.6509661604745993 #
point $-1 67.439802240058597 -36.159235011289333 7.6509661604745993 #
vertex $-1 $491 $557 #
straight-curve $-1 72.352592521489569 36.159235011289333 4.6509661604745993 1 0 0 I I #
vertex $-1 $550 $558 #
straight-curve $-1 72.352592521489569 -36.159235011289333 4.6509661604745993 -1 0 0 I I #
edge $-1 $507 40.471353545058378 $510 45.572925400034009 $395 $559 forward 7 unknown #
vertex $-1 $409 $560 #
straight-curve $-1 -48.040375284186936 -66.591751939517437 7.6509661604745958 0 -1 0 I I #
edge $-1 $510 -30.187557361609848 $406 -5.5180784835443291 $405 $561 forward 7 unknown #
vertex $-1 $509 $562 #
straight-curve $-1 -48.040375284186936 -36.15923501128934 2.5493943054989643 0 0.69465836192734942 0.71933980857756763 I I #
point $-1 -48.040375284186936 -31.232704454000011 7.6509661604745993 #
point $-1 -23.370896406121417 -36.159235011289333 2.5493943054989718 #
straight-curve $-1 72.352592521489569 -36.159235011289333 7.6509661604745993 1 0 0 I I #
vertex $-1 $412 $563 #
point $-1 -41.606479508573834 -32.316541744975012 3.7680821412571404 #
vertex $-1 $416 $564 #
point $-1 -34.205635845154177 -32.316541744975012 3.7680821412571404 #
vertex $-1 $420 $565 #
point $-1 -26.80479218173452 -32.316541744975012 3.7680821412571404 #
edge $-1 $522 40.471353545058378 $525 45.572925400034009 $425 $566 forward 7 unknown #
vertex $-1 $439 $567 #
straight-curve $-1 9.5738463930097595 -66.591751939517437 7.6509661604745958 0 -1 0 I I #
edge $-1 $525 -1.3804465230114999 $436 23.289032355054019 $435 $568 forward 7 unknown #
vertex $-1 $524 $569 #
straight-curve $-1 9.5738463930097595 -36.15923501128934 2.5493943054989643 0 0.69465836192734942 0.71933980857756763 I I #
point $-1 9.5738463930097595 -31.232704454000011 7.6509661604745993 #
point $-1 34.243325271075278 -36.159235011289333 2.5493943054989718 #
straight-curve $-1 72.352592521489569 -36.159235011289333 7.6509661604745993 1 0 0 I I #
vertex $-1 $442 $570 #
point $-1 16.007742168622869 -32.316541744975012 3.7680821412571404 #
vertex $-1 $446 $571 #
point $-1 23.408585832042519 -32.316541744975012 3.7680821412571404 #
vertex $-1 $450 $572 #
point $-1 30.809429495462169 -32.316541744975012 3.7680821412571404 #
straight-curve $-1 -67.439802240058597 36.159235011289333 0 0 0 -1 I I #
point $-1 -67.439802240058597 -36.159235011289333 -7.6509661604745993 #
straight-curve $-1 -67.439802240058597 0 -7.6509661604745993 0 1 0 I I #
point $-1 -67.439802240058597 36.159235011289333 -7.6509661604745993 #
coedge $-1 $472 $471 $482 $545 reversed $240 $-1 #
edge $-1 $477 -36.159235011289333 $546 36.159235011289333 $472 $573 forward 7 unknown #
straight-curve $-1 -77.265382802920513 36.159235011289333 6.1509661604745993 0 0 -1 I I #
point $-1 -77.265382802920513 36.159235011289333 4.6509661604745993 #
point $-1 -77.265382802920513 36.159235011289333 7.6509661604745993 #
edge $-1 $546 -1.5 $486 1.5 $540 $574 forward 7 unknown #
vertex $-1 $541 $575 #
straight-curve $-1 0 -36.159235011289333 7.6509661604745993 1 0 0 I I #
straight-curve $-1 -77.265382802920513 0 4.6509661604745993 0 1 0 I I #
point $-1 -77.265382802920513 -36.159235011289333 4.6509661604745993 #
edge $-1 $495 -1.5 $504 1.5 $489 $576 forward 7 unknown #
coedge $-1 $493 $490 $497 $555 reversed $374 $-1 #
straight-curve $-1 77.265382802920527 0 4.6509661604745993 0 -1 0 I I #
straight-curve $-1 77.265382802920527 0 7.6509661604745993 0 1 0 I I #
point $-1 77.265382802920527 -36.159235011289333 7.6509661604745993 #
edge $-1 $498 -1.5 $502 1.5 $551 $577 forward 7 unknown #
point $-1 77.265382802920527 36.159235011289333 7.6509661604745993 #
point $-1 77.265382802920527 36.159235011289333 4.6509661604745993 #
point $-1 77.265382802920527 -36.159235011289333 4.6509661604745993 #
straight-curve $-1 -48.040375284186936 -36.159235011289333 48.122319705532981 0 0 -1 I I #
point $-1 -48.040375284186936 -36.159235011289333 7.6509661604745993 #
straight-curve $-1 -17.852817922577088 -36.159235011289333 2.5493943054989718 1 0 0 I I #
point $-1 -48.040375284186936 -36.159235011289333 2.5493943054989718 #
point $-1 -43.106479508573834 -31.23753203210866 2.726094598366116 #
point $-1 -35.705635845154177 -31.23753203210866 2.726094598366116 #
point $-1 -28.30479218173452 -31.23753203210866 2.726094598366116 #
straight-curve $-1 9.5738463930097595 -36.159235011289333 48.122319705532981 0 0 -1 I I #
point $-1 9.5738463930097595 -36.159235011289333 7.6509661604745993 #
straight-curve $-1 10.954292916021259 -36.159235011289333 2.5493943054989718 1 0 0 I I #
point $-1 9.5738463930097595 -36.159235011289333 2.5493943054989718 #
point $-1 14.507742168622869 -31.23753203210866 2.726094598366116 #
point $-1 21.908585832042519 -31.23753203210866 2.726094598366116 #
point $-1 29.309429495462169 -31.23753203210866 2.726094598366116 #
straight-curve $-1 -77.265382802920513 0 7.6509661604745993 0 -1 0 I I #
straight-curve $-1 -77.265382802920513 -36.159235011289333 6.1509661604745993 0 0 -1 I I #
point $-1 -77.265382802920513 -36.159235011289333 7.6509661604745993 #
straight-curve $-1 77.265382802920527 -36.159235011289333 6.1509661604745993 0 0 -1 I I #
straight-curve $-1 77.265382802920527 36.159235011289333 6.1509661604745993 0 0 -1 I I #
End-of-ACIS-data 