500 0 11 0           
7 Unknown 11 ACIS 5.0 NT 24 Thu Mar 25 17:13:34 1999 
-1 9.9999999999999995e-007 1e-010 
body $-1 $11 $-1 $12 #
body $-1 $13 $-1 $14 #
body $-1 $15 $-1 $16 #
body $-1 $17 $-1 $18 #
body $-1 $19 $-1 $20 #
body $-1 $21 $-1 $22 #
body $-1 $23 $-1 $24 #
body $-1 $25 $-1 $26 #
body $-1 $27 $-1 $28 #
body $-1 $29 $-1 $30 #
body $-1 $31 $-1 $32 #
lump $-1 $-1 $33 $0 #
transform $-1 1 0 0 0 1 0 0 0 1 52.378307443464465 22.633592661931274 7.447527473423774 1 rotate no_reflect no_shear #
lump $-1 $-1 $34 $1 #
transform $-1 1 0 0 0 1 0 0 0 1 52.378307443464465 22.633592661931274 7.447527473423774 1 rotate no_reflect no_shear #
lump $-1 $-1 $35 $2 #
transform $-1 1 0 0 0 1 0 0 0 1 52.378307443464465 22.633592661931274 7.447527473423774 1 rotate no_reflect no_shear #
lump $-1 $-1 $36 $3 #
transform $-1 1 0 0 0 1 0 0 0 1 52.378307443464465 22.633592661931274 7.447527473423774 1 rotate no_reflect no_shear #
lump $-1 $-1 $37 $4 #
transform $-1 1 0 0 0 1 0 0 0 1 52.378307443464465 22.633592661931274 7.447527473423774 1 rotate no_reflect no_shear #
lump $-1 $-1 $38 $5 #
transform $-1 1 0 0 0 1 0 0 0 1 52.378307443464465 22.633592661931274 7.447527473423774 1 rotate no_reflect no_shear #
lump $-1 $-1 $39 $6 #
transform $-1 1 0 0 0 1 0 0 0 1 52.378307443464465 22.633592661931274 7.447527473423774 1 rotate no_reflect no_shear #
lump $-1 $-1 $40 $7 #
transform $-1 1 0 0 0 1 0 0 0 1 52.378307443464465 22.633592661931274 7.447527473423774 1 rotate no_reflect no_shear #
lump $-1 $-1 $41 $8 #
transform $-1 1 0 0 0 1 0 0 0 1 52.378307443464465 22.633592661931274 7.447527473423774 1 rotate no_reflect no_shear #
lump $-1 $-1 $42 $9 #
transform $-1 1 0 0 0 1 0 0 0 1 52.378307443464465 22.633592661931274 7.447527473423774 1 rotate no_reflect no_shear #
lump $-1 $-1 $43 $10 #
transform $-1 1 0 0 0 1 0 0 0 1 52.378307443464465 22.633592661931274 7.447527473423774 1 rotate no_reflect no_shear #
shell $-1 $-1 $-1 $44 $-1 $11 #
shell $-1 $-1 $-1 $45 $-1 $13 #
shell $-1 $-1 $-1 $46 $-1 $15 #
shell $-1 $-1 $-1 $47 $-1 $17 #
shell $-1 $-1 $-1 $48 $-1 $19 #
shell $-1 $-1 $-1 $49 $-1 $21 #
shell $-1 $-1 $-1 $50 $-1 $23 #
shell $-1 $-1 $-1 $51 $-1 $25 #
shell $-1 $-1 $-1 $52 $-1 $27 #
shell $-1 $-1 $-1 $53 $-1 $29 #
shell $-1 $-1 $-1 $54 $-1 $31 #
face $-1 $55 $56 $33 $-1 $57 reversed single #
face $-1 $58 $59 $34 $-1 $60 forward single #
face $-1 $61 $62 $35 $-1 $63 forward single #
face $-1 $64 $65 $36 $-1 $66 reversed single #
face $-1 $67 $68 $37 $-1 $69 forward single #
face $-1 $70 $71 $38 $-1 $72 reversed single #
face $-1 $73 $74 $39 $-1 $75 forward single #
face $-1 $76 $77 $40 $-1 $78 reversed single #
face $-1 $79 $80 $41 $-1 $81 forward single #
face $-1 $82 $83 $42 $-1 $84 reversed single #
face $-1 $85 $86 $43 $-1 $87 forward single #
face $-1 $88 $89 $33 $-1 $90 forward single #
loop $-1 $-1 $91 $44 #
plane-surface $-1 52.378307443464465 0 0 -1 0 0 0 0 1 forward_v I I I I #
face $-1 $92 $93 $34 $-1 $94 reversed single #
loop $-1 $-1 $95 $45 #
plane-surface $-1 -49.829792498478419 0 -0.031034096448546933 0 0 1 1 0 0 forward_v I I I I #
face $-1 $96 $97 $35 $-1 $98 reversed single #
loop $-1 $-1 $99 $46 #
plane-surface $-1 52.378307443464465 0 0 -1 0 0 0 0 1 forward_v I I I I #
face $-1 $100 $101 $36 $-1 $102 reversed single #
loop $-1 $-1 $103 $47 #
plane-surface $-1 -43.347707710850081 -100.48292981719086 70.378585843084778 1 0 0 0 0.74314483375859142 -0.66913059716165679 forward_v I I I I #
face $-1 $104 $105 $37 $-1 $106 forward single #
loop $-1 $107 $108 $48 #
cone-surface $-1 -35.432527208018556 -17.764010474981344 2.384886132712837 0 0.74314483375859142 -0.66913059716165679 1.5 0 0 1 I I 0 1 1.5 forward I I I I #
face $-1 $109 $110 $38 $-1 $111 reversed single #
loop $-1 $-1 $112 $49 #
plane-surface $-1 -20.309545427587921 -100.48292981719086 70.378585843084778 1 0 0 0 0.74314483375859142 -0.66913059716165679 forward_v I I I I #
face $-1 $113 $114 $39 $-1 $115 forward single #
loop $-1 $116 $117 $50 #
cone-surface $-1 -12.394364924756403 -17.764010474981344 2.384886132712837 0 0.74314483375859142 -0.66913059716165679 1.5 0 0 1 I I 0 1 1.5 forward I I I I #
face $-1 $118 $119 $40 $-1 $120 reversed single #
loop $-1 $-1 $121 $51 #
plane-surface $-1 2.7286168556742343 -100.48292981719086 70.378585843084778 1 0 0 0 0.74314483375859142 -0.66913059716165679 forward_v I I I I #
face $-1 $122 $123 $41 $-1 $124 forward single #
loop $-1 $125 $126 $52 #
cone-surface $-1 10.643797358505751 -17.764010474981344 2.384886132712837 0 0.74314483375859142 -0.66913059716165679 1.5 0 0 1 I I 0 1 1.5 forward I I I I #
face $-1 $127 $128 $42 $-1 $129 reversed single #
loop $-1 $-1 $130 $53 #
plane-surface $-1 25.766779138936386 -100.48292981719086 70.378585843084778 1 0 0 0 0.74314483375859142 -0.66913059716165679 forward_v I I I I #
face $-1 $131 $132 $43 $-1 $133 forward single #
loop $-1 $134 $135 $54 #
cone-surface $-1 33.681959641767904 -17.764010474981344 2.384886132712837 0 0.74314483375859142 -0.66913059716165679 1.5 0 0 1 I I 0 1 1.5 forward I I I I #
face $-1 $136 $137 $33 $-1 $138 reversed single #
loop $-1 $-1 $139 $55 #
plane-surface $-1 0 0 7.447527473423774 0 0 1 1 0 0 forward_v I I I I #
coedge $-1 $140 $141 $142 $143 reversed $56 $-1 #
face $-1 $144 $145 $34 $-1 $146 reversed single #
loop $-1 $-1 $147 $58 #
plane-surface $-1 -49.829792498478419 0 -3.0310340964485469 0 0 1 1 0 0 forward_v I I I I #
coedge $-1 $148 $149 $150 $151 forward $59 $-1 #
face $-1 $152 $153 $35 $-1 $154 reversed single #
loop $-1 $-1 $155 $61 #
plane-surface $-1 0 0 -7.447527473423774 0 0 1 1 0 0 forward_v I I I I #
coedge $-1 $156 $157 $158 $159 forward $62 $-1 #
face $-1 $160 $161 $36 $-1 $162 reversed single #
loop $-1 $-1 $163 $64 #
plane-surface $-1 -35.432527208018563 -22.633592661931289 0.28272956716031672 0 -0.74314483375859142 0.66913059716165679 1 0 0 forward_v I I I I #
coedge $-1 $164 $165 $166 $167 reversed $65 $-1 #
face $-1 $-1 $168 $37 $-1 $169 forward single #
loop $-1 $170 $171 $67 #
cone-surface $-1 -35.432527208018556 -15.562676088120284 0.40279579726239234 0 0.74314483375859142 -0.66913059716165679 0.75 0 0 1 I I -0.70710678118654757 0.70710678118654757 0.75 forward I I I I #
loop $-1 $-1 $172 $48 #
coedge $-1 $108 $108 $173 $174 reversed $68 $-1 #
face $-1 $175 $176 $38 $-1 $177 reversed single #
loop $-1 $-1 $178 $70 #
plane-surface $-1 -12.394364924756403 -22.633592661931289 0.28272956716031672 0 -0.74314483375859142 0.66913059716165679 1 0 0 forward_v I I I I #
coedge $-1 $179 $180 $181 $182 reversed $71 $-1 #
face $-1 $-1 $183 $39 $-1 $184 forward single #
loop $-1 $185 $186 $73 #
cone-surface $-1 -12.394364924756403 -15.562676088120284 0.40279579726239234 0 0.74314483375859142 -0.66913059716165679 0.75 0 0 1 I I -0.70710678118654757 0.70710678118654757 0.75 forward I I I I #
loop $-1 $-1 $187 $50 #
coedge $-1 $117 $117 $188 $189 reversed $74 $-1 #
face $-1 $190 $191 $40 $-1 $192 reversed single #
loop $-1 $-1 $193 $76 #
plane-surface $-1 10.643797358505751 -22.633592661931289 0.28272956716031672 0 -0.74314483375859142 0.66913059716165679 1 0 0 forward_v I I I I #
coedge $-1 $194 $195 $196 $197 reversed $77 $-1 #
face $-1 $-1 $198 $41 $-1 $199 forward single #
loop $-1 $200 $201 $79 #
cone-surface $-1 10.643797358505751 -15.562676088120284 0.40279579726239234 0 0.74314483375859142 -0.66913059716165679 0.75 0 0 1 I I -0.70710678118654757 0.70710678118654757 0.75 forward I I I I #
loop $-1 $-1 $202 $52 #
coedge $-1 $126 $126 $203 $204 reversed $80 $-1 #
face $-1 $205 $206 $42 $-1 $207 reversed single #
loop $-1 $-1 $208 $82 #
plane-surface $-1 33.681959641767904 -22.633592661931289 0.28272956716031672 0 -0.74314483375859142 0.66913059716165679 1 0 0 forward_v I I I I #
coedge $-1 $209 $210 $211 $212 reversed $83 $-1 #
face $-1 $-1 $213 $43 $-1 $214 forward single #
loop $-1 $215 $216 $85 #
cone-surface $-1 33.681959641767904 -15.562676088120284 0.40279579726239234 0 0.74314483375859142 -0.66913059716165679 0.75 0 0 1 I I -0.70710678118654757 0.70710678118654757 0.75 forward I I I I #
loop $-1 $-1 $217 $54 #
coedge $-1 $135 $135 $218 $219 reversed $86 $-1 #
face $-1 $220 $221 $33 $-1 $222 reversed single #
loop $-1 $-1 $142 $88 #
plane-surface $-1 0 0 -7.447527473423774 0 0 1 1 0 0 forward_v I I I I #
coedge $-1 $223 $224 $225 $226 forward $89 $-1 #
coedge $-1 $225 $91 $227 $228 reversed $56 $-1 #
coedge $-1 $91 $225 $229 $230 forward $56 $-1 #
coedge $-1 $231 $232 $91 $143 forward $137 $-1 #
edge $-1 $233 -22.633592661931274 $234 22.633592661931274 $91 $235 forward 7 unknown #
face $-1 $236 $237 $34 $-1 $238 reversed single #
loop $-1 $-1 $239 $92 #
plane-surface $-1 -47.281277553492373 0 -1.5310340964485469 -1 0 0 0 0 1 forward_v I I I I #
coedge $-1 $240 $241 $242 $243 forward $93 $-1 #
coedge $-1 $244 $95 $245 $246 reversed $59 $-1 #
coedge $-1 $95 $244 $247 $248 reversed $59 $-1 #
coedge $-1 $239 $249 $95 $151 reversed $145 $-1 #
edge $-1 $250 -22.633592661931274 $251 22.633592661931274 $150 $252 forward 7 unknown #
face $-1 $253 $254 $35 $-1 $255 reversed single #
loop $-1 $-1 $158 $96 #
plane-surface $-1 56.13177537541857 -10.738537715083726 0 0 1 0 0 0 1 forward_v I I I I #
coedge $-1 $256 $257 $157 $258 forward $97 $-1 #
coedge $-1 $259 $99 $260 $261 reversed $62 $-1 #
coedge $-1 $99 $259 $155 $258 reversed $62 $-1 #
coedge $-1 $262 $263 $99 $159 reversed $153 $-1 #
edge $-1 $264 -7.447527473423774 $265 7.447527473423774 $158 $266 forward 7 unknown #
face $-1 $267 $268 $36 $-1 $269 forward single #
loop $-1 $-1 $270 $100 #
plane-surface $-1 -27.517346705187045 -100.48292981719086 70.378585843084778 -1 0 0 0 -0.74314483375859142 0.66913059716165679 forward_v I I I I #
coedge $-1 $271 $272 $273 $274 reversed $101 $-1 #
coedge $-1 $165 $103 $275 $276 reversed $65 $-1 #
coedge $-1 $103 $164 $271 $277 reversed $65 $-1 #
coedge $-1 $273 $278 $103 $167 forward $279 $-1 #
edge $-1 $280 27.741765448118613 $281 34.906563354382058 $166 $282 forward 7 unknown #
loop $-1 $-1 $173 $104 #
plane-surface $-1 -35.432527208018563 -22.633592661931289 0.28272956716031672 0 -0.74314483375859142 0.66913059716165679 1 0 0 forward_v I I I I #
loop $-1 $-1 $283 $67 #
coedge $-1 $171 $171 $172 $284 reversed $105 $-1 #
coedge $-1 $172 $172 $171 $284 forward $107 $-1 #
coedge $-1 $173 $173 $108 $174 forward $168 $-1 #
edge $-1 $285 -4.8118864073841136e-016 $285 6.2831853071795996 $173 $286 forward 7 unknown #
face $-1 $287 $288 $38 $-1 $289 reversed single #
loop $-1 $-1 $290 $109 #
plane-surface $-1 -4.4791844219248862 -100.48292981719086 70.378585843084778 -1 0 0 0 -0.74314483375859142 0.66913059716165679 forward_v I I I I #
coedge $-1 $291 $292 $293 $294 reversed $110 $-1 #
coedge $-1 $180 $112 $295 $296 reversed $71 $-1 #
coedge $-1 $112 $179 $291 $297 reversed $71 $-1 #
coedge $-1 $293 $298 $112 $182 forward $288 $-1 #
edge $-1 $299 27.741765448118613 $300 34.906563354382058 $181 $301 forward 7 unknown #
loop $-1 $-1 $188 $113 #
plane-surface $-1 -12.394364924756403 -22.633592661931289 0.28272956716031672 0 -0.74314483375859142 0.66913059716165679 1 0 0 forward_v I I I I #
loop $-1 $-1 $302 $73 #
coedge $-1 $186 $186 $187 $303 reversed $114 $-1 #
coedge $-1 $187 $187 $186 $303 forward $116 $-1 #
coedge $-1 $188 $188 $117 $189 forward $183 $-1 #
edge $-1 $304 -4.8118864073841136e-016 $304 6.2831853071795996 $188 $305 forward 7 unknown #
face $-1 $306 $307 $40 $-1 $308 reversed single #
loop $-1 $-1 $309 $118 #
plane-surface $-1 18.558977861337269 -100.48292981719086 70.378585843084778 -1 0 0 0 -0.74314483375859142 0.66913059716165679 forward_v I I I I #
coedge $-1 $310 $311 $312 $313 reversed $119 $-1 #
coedge $-1 $195 $121 $314 $315 reversed $77 $-1 #
coedge $-1 $121 $194 $310 $316 reversed $77 $-1 #
coedge $-1 $312 $317 $121 $197 forward $307 $-1 #
edge $-1 $318 27.741765448118613 $319 34.906563354382058 $196 $320 forward 7 unknown #
loop $-1 $-1 $203 $122 #
plane-surface $-1 10.643797358505751 -22.633592661931289 0.28272956716031672 0 -0.74314483375859142 0.66913059716165679 1 0 0 forward_v I I I I #
loop $-1 $-1 $321 $79 #
coedge $-1 $201 $201 $202 $322 reversed $123 $-1 #
coedge $-1 $202 $202 $201 $322 forward $125 $-1 #
coedge $-1 $203 $203 $126 $204 forward $198 $-1 #
edge $-1 $323 -4.8118864073841136e-016 $323 6.2831853071795996 $203 $324 forward 7 unknown #
face $-1 $325 $326 $42 $-1 $327 reversed single #
loop $-1 $-1 $328 $127 #
plane-surface $-1 41.597140144599422 -100.48292981719086 70.378585843084778 -1 0 0 0 -0.74314483375859142 0.66913059716165679 forward_v I I I I #
coedge $-1 $329 $330 $331 $332 reversed $128 $-1 #
coedge $-1 $210 $130 $333 $334 reversed $83 $-1 #
coedge $-1 $130 $209 $329 $335 reversed $83 $-1 #
coedge $-1 $331 $336 $130 $212 forward $326 $-1 #
edge $-1 $337 27.741765448118613 $338 34.906563354382058 $211 $339 forward 7 unknown #
loop $-1 $-1 $218 $131 #
plane-surface $-1 33.681959641767904 -22.633592661931289 0.28272956716031672 0 -0.74314483375859142 0.66913059716165679 1 0 0 forward_v I I I I #
loop $-1 $-1 $340 $85 #
coedge $-1 $216 $216 $217 $341 reversed $132 $-1 #
coedge $-1 $217 $217 $216 $341 forward $134 $-1 #
coedge $-1 $218 $218 $135 $219 forward $213 $-1 #
edge $-1 $342 -4.8118864073841136e-016 $342 6.2831853071795996 $218 $343 forward 7 unknown #
face $-1 $344 $345 $33 $-1 $346 reversed single #
loop $-1 $-1 $347 $136 #
plane-surface $-1 0 -22.633592661931274 0 0 1 0 0 0 1 forward_v I I I I #
coedge $-1 $348 $139 $349 $350 forward $89 $-1 #
coedge $-1 $139 $348 $351 $352 forward $89 $-1 #
coedge $-1 $141 $140 $139 $226 reversed $56 $-1 #
edge $-1 $353 -22.633592661931274 $354 22.633592661931274 $225 $355 forward 7 unknown #
coedge $-1 $356 $349 $140 $228 forward $357 $-1 #
edge $-1 $354 -7.447527473423774 $233 7.447527473423774 $140 $358 forward 7 unknown #
coedge $-1 $351 $359 $141 $230 reversed $221 $-1 #
edge $-1 $353 -7.447527473423774 $234 7.447527473423774 $141 $360 forward 7 unknown #
coedge $-1 $361 $142 $359 $362 forward $137 $-1 #
coedge $-1 $142 $361 $356 $363 forward $137 $-1 #
vertex $-1 $143 $364 #
vertex $-1 $230 $365 #
straight-curve $-1 52.378307443464465 0 -7.447527473423774 0 -1 0 I I #
face $-1 $366 $367 $34 $-1 $368 reversed single #
loop $-1 $-1 $369 $144 #
plane-surface $-1 0 -22.633592661931274 0 0 1 0 0 0 1 forward_v I I I I #
coedge $-1 $242 $150 $370 $371 reversed $145 $-1 #
coedge $-1 $372 $147 $369 $373 reversed $93 $-1 #
coedge $-1 $147 $372 $374 $375 reversed $93 $-1 #
coedge $-1 $249 $239 $147 $243 reversed $145 $-1 #
edge $-1 $376 -22.633592661931274 $377 22.633592661931274 $242 $378 forward 7 unknown #
coedge $-1 $149 $148 $379 $380 reversed $59 $-1 #
coedge $-1 $381 $382 $148 $246 forward $383 $-1 #
edge $-1 $384 -27.463411194225255 $251 -22.366381304253164 $245 $385 forward 7 unknown #
coedge $-1 $386 $370 $149 $248 forward $237 $-1 #
edge $-1 $250 22.366381304253164 $387 27.463411194225255 $247 $388 forward 7 unknown #
coedge $-1 $150 $242 $381 $389 reversed $145 $-1 #
vertex $-1 $248 $390 #
vertex $-1 $246 $391 #
straight-curve $-1 -47.281277553492373 0 -0.031034096448546933 0 1 0 I I #
face $-1 $392 $393 $35 $-1 $394 reversed single #
loop $-1 $-1 $395 $152 #
plane-surface $-1 56.13177537541857 -7.7385377150837265 0 0 -1 0 0 0 -1 forward_v I I I I #
coedge $-1 $396 $155 $397 $398 forward $97 $-1 #
coedge $-1 $155 $396 $262 $399 forward $97 $-1 #
edge $-1 $264 -10.738537715083726 $400 -7.7385377150837265 $155 $401 forward 7 unknown #
coedge $-1 $157 $156 $402 $403 forward $62 $-1 #
coedge $-1 $404 $405 $156 $261 forward $406 $-1 #
edge $-1 $407 7.7385377150837265 $265 10.738537715083726 $260 $408 forward 7 unknown #
coedge $-1 $409 $158 $257 $399 reversed $153 $-1 #
coedge $-1 $158 $409 $404 $410 reversed $153 $-1 #
vertex $-1 $258 $411 #
vertex $-1 $410 $412 #
straight-curve $-1 52.378307443464465 -10.738537715083726 0 0 0 1 I I #
face $-1 $-1 $279 $36 $-1 $413 reversed single #
loop $-1 $-1 $414 $160 #
plane-surface $-1 0 0 7.447527473423774 0 0 1 1 0 0 forward_v I I I I #
coedge $-1 $415 $416 $417 $418 reversed $161 $-1 #
coedge $-1 $419 $163 $165 $277 forward $101 $-1 #
coedge $-1 $163 $419 $415 $420 forward $101 $-1 #
coedge $-1 $417 $166 $163 $274 forward $279 $-1 #
edge $-1 $281 -25.631444106840799 $421 -9.8010831011777633 $273 $422 forward 7 unknown #
coedge $-1 $423 $424 $164 $276 forward $268 $-1 #
edge $-1 $425 -34.059085097479752 $280 -27.607872246664158 $275 $426 forward 7 unknown #
edge $-1 $281 2.1224720073754982e-014 $425 9.6411864562472616 $165 $427 forward 7 unknown #
coedge $-1 $166 $417 $423 $428 reversed $279 $-1 #
loop $-1 $-1 $417 $267 #
vertex $-1 $428 $429 #
vertex $-1 $167 $430 #
straight-curve $-1 -43.347707710850081 -22.633592661931274 35.189292921542389 0 0 -1 I I #
coedge $-1 $283 $283 $-1 $431 reversed $170 $-1 #
edge $-1 $432 0 $432 6.2831853071796004 $171 $433 forward 7 unknown #
vertex $-1 $174 $434 #
ellipse-curve $-1 -35.432527208018556 -19.407986236523477 3.8651285202920524 0 -0.74314483375859142 0.66913059716165679 1.5 0 0 1 I I #
face $-1 $-1 $435 $38 $-1 $436 forward single #
loop $-1 $-1 $181 $175 #
plane-surface $-1 0 -22.633592661931274 0 0 1 0 0 0 1 forward_v I I I I #
coedge $-1 $437 $438 $439 $440 reversed $176 $-1 #
coedge $-1 $441 $178 $180 $297 forward $110 $-1 #
coedge $-1 $178 $441 $437 $442 forward $110 $-1 #
coedge $-1 $439 $181 $178 $294 forward $288 $-1 #
edge $-1 $300 -14.112362965209719 $443 1.7179980404533151 $293 $444 forward 7 unknown #
coedge $-1 $445 $446 $179 $296 forward $435 $-1 #
edge $-1 $447 -34.059085097479752 $299 -27.607872246664158 $295 $448 forward 7 unknown #
edge $-1 $300 2.1224720073754982e-014 $447 9.6411864562472616 $180 $449 forward 7 unknown #
coedge $-1 $181 $439 $445 $450 reversed $288 $-1 #
vertex $-1 $450 $451 #
vertex $-1 $182 $452 #
straight-curve $-1 -20.309545427587921 -22.633592661931274 35.189292921542389 0 0 -1 I I #
coedge $-1 $302 $302 $-1 $453 reversed $185 $-1 #
edge $-1 $454 0 $454 6.2831853071796004 $186 $455 forward 7 unknown #
vertex $-1 $189 $456 #
ellipse-curve $-1 -12.394364924756403 -19.407986236523477 3.8651285202920524 0 -0.74314483375859142 0.66913059716165679 1.5 0 0 1 I I #
face $-1 $-1 $457 $40 $-1 $458 forward single #
loop $-1 $-1 $196 $190 #
plane-surface $-1 0 -22.633592661931274 0 0 1 0 0 0 1 forward_v I I I I #
coedge $-1 $459 $460 $461 $462 reversed $191 $-1 #
coedge $-1 $463 $193 $195 $316 forward $119 $-1 #
coedge $-1 $193 $463 $459 $464 forward $119 $-1 #
coedge $-1 $461 $196 $193 $313 forward $307 $-1 #
edge $-1 $319 -2.593281823578641 $465 13.237079182084393 $312 $466 forward 7 unknown #
coedge $-1 $467 $468 $194 $315 forward $457 $-1 #
edge $-1 $469 -34.059085097479752 $318 -27.607872246664158 $314 $470 forward 7 unknown #
edge $-1 $319 2.1224720073754982e-014 $469 9.6411864562472616 $195 $471 forward 7 unknown #
coedge $-1 $196 $461 $467 $472 reversed $307 $-1 #
vertex $-1 $472 $473 #
vertex $-1 $197 $474 #
straight-curve $-1 2.7286168556742343 -22.633592661931274 35.189292921542389 0 0 -1 I I #
coedge $-1 $321 $321 $-1 $475 reversed $200 $-1 #
edge $-1 $476 0 $476 6.2831853071796004 $201 $477 forward 7 unknown #
vertex $-1 $204 $478 #
ellipse-curve $-1 10.643797358505751 -19.407986236523477 3.8651285202920524 0 -0.74314483375859142 0.66913059716165679 1.5 0 0 1 I I #
face $-1 $-1 $479 $42 $-1 $480 forward single #
loop $-1 $-1 $211 $205 #
plane-surface $-1 0 -22.633592661931274 0 0 1 0 0 0 1 forward_v I I I I #
coedge $-1 $481 $482 $483 $484 reversed $206 $-1 #
coedge $-1 $485 $208 $210 $335 forward $128 $-1 #
coedge $-1 $208 $485 $481 $486 forward $128 $-1 #
coedge $-1 $483 $211 $208 $332 forward $326 $-1 #
edge $-1 $338 8.9257993180524338 $487 24.75616032371547 $331 $488 forward 7 unknown #
coedge $-1 $489 $490 $209 $334 forward $479 $-1 #
edge $-1 $491 -34.059085097479752 $337 -27.607872246664158 $333 $492 forward 7 unknown #
edge $-1 $338 2.1224720073754982e-014 $491 9.6411864562472616 $210 $493 forward 7 unknown #
coedge $-1 $211 $483 $489 $494 reversed $326 $-1 #
vertex $-1 $494 $495 #
vertex $-1 $212 $496 #
straight-curve $-1 25.766779138936386 -22.633592661931274 35.189292921542389 0 0 -1 I I #
coedge $-1 $340 $340 $-1 $497 reversed $215 $-1 #
edge $-1 $498 0 $498 6.2831853071796004 $216 $499 forward 7 unknown #
vertex $-1 $219 $500 #
ellipse-curve $-1 33.681959641767904 -19.407986236523477 3.8651285202920524 0 -0.74314483375859142 0.66913059716165679 1.5 0 0 1 I I #
face $-1 $-1 $357 $33 $-1 $501 reversed single #
loop $-1 $-1 $502 $220 #
plane-surface $-1 -52.378307443464465 0 0 1 0 0 0 0 -1 forward_v I I I I #
coedge $-1 $359 $351 $503 $504 forward $221 $-1 #
coedge $-1 $224 $223 $505 $506 forward $89 $-1 #
coedge $-1 $227 $507 $223 $350 reversed $357 $-1 #
edge $-1 $354 -52.378307443464465 $508 52.378307443464465 $349 $509 forward 7 unknown #
coedge $-1 $347 $229 $224 $352 reversed $221 $-1 #
edge $-1 $510 -52.378307443464465 $353 52.378307443464465 $351 $511 forward 7 unknown #
vertex $-1 $226 $512 #
vertex $-1 $226 $513 #
straight-curve $-1 52.378307443464465 0 7.447527473423774 0 1 0 I I #
coedge $-1 $507 $227 $232 $363 reversed $357 $-1 #
loop $-1 $-1 $227 $344 #
straight-curve $-1 52.378307443464465 22.633592661931274 0 0 0 -1 I I #
coedge $-1 $229 $347 $231 $362 reversed $221 $-1 #
straight-curve $-1 52.378307443464465 -22.633592661931274 0 0 0 -1 I I #
coedge $-1 $232 $231 $514 $515 forward $137 $-1 #
edge $-1 $234 -52.378307443464465 $516 52.378307443464465 $359 $517 forward 7 unknown #
edge $-1 $518 -52.378307443464465 $233 52.378307443464465 $356 $519 forward 7 unknown #
point $-1 52.378307443464465 22.633592661931274 -7.447527473423774 #
point $-1 52.378307443464465 -22.633592661931274 -7.447527473423774 #
face $-1 $-1 $383 $34 $-1 $520 reversed single #
loop $-1 $-1 $521 $236 #
plane-surface $-1 -52.378307443464465 0 0 1 0 0 0 0 -1 forward_v I I I I #
coedge $-1 $370 $386 $240 $373 forward $237 $-1 #
coedge $-1 $247 $369 $239 $371 forward $237 $-1 #
edge $-1 $377 -2.2655170482242735 $250 0.73448295177572653 $370 $522 forward 7 unknown #
coedge $-1 $241 $240 $521 $523 reversed $93 $-1 #
edge $-1 $524 -27.463411194225255 $377 -22.366381304253164 $369 $525 forward 7 unknown #
coedge $-1 $382 $381 $241 $375 forward $383 $-1 #
edge $-1 $376 22.366381304253164 $526 27.463411194225255 $374 $527 forward 7 unknown #
vertex $-1 $375 $528 #
vertex $-1 $373 $529 #
straight-curve $-1 -47.281277553492373 0 -3.0310340964485469 0 -1 0 I I #
coedge $-1 $530 $531 $244 $380 forward $367 $-1 #
edge $-1 $387 -22.633592661931274 $384 22.633592661931274 $379 $532 forward 7 unknown #
coedge $-1 $374 $245 $249 $389 forward $383 $-1 #
coedge $-1 $245 $374 $530 $533 reversed $383 $-1 #
loop $-1 $-1 $374 $366 #
vertex $-1 $533 $534 #
straight-curve $-1 -24.914896249239209 22.633592661931274 -0.031034096448546933 1 0 0 I I #
coedge $-1 $369 $247 $531 $535 forward $237 $-1 #
vertex $-1 $535 $536 #
straight-curve $-1 -24.914896249239209 -22.633592661931274 -0.031034096448546933 -1 0 0 I I #
edge $-1 $251 -0.73448295177572653 $376 2.2655170482242735 $381 $537 forward 7 unknown #
point $-1 -47.281277553492373 -22.633592661931274 -0.031034096448546933 #
point $-1 -47.281277553492373 22.633592661931274 -0.031034096448546933 #
face $-1 $-1 $406 $35 $-1 $538 forward single #
loop $-1 $-1 $539 $253 #
plane-surface $-1 59.885243307372676 -9.2385377150837265 0 -1 0 0 0 0 1 forward_v I I I I #
coedge $-1 $397 $540 $541 $542 forward $254 $-1 #
coedge $-1 $257 $256 $543 $544 forward $97 $-1 #
coedge $-1 $402 $395 $256 $398 reversed $254 $-1 #
edge $-1 $400 -3.7534679319541056 $545 3.7534679319541056 $397 $546 forward 7 unknown #
edge $-1 $547 -3.7534679319541056 $264 3.7534679319541056 $262 $548 forward 7 unknown #
vertex $-1 $398 $549 #
straight-curve $-1 52.378307443464465 0 -7.447527473423774 0 1 0 I I #
coedge $-1 $540 $397 $259 $403 reversed $254 $-1 #
edge $-1 $407 -7.447527473423774 $400 7.447527473423774 $402 $550 forward 7 unknown #
coedge $-1 $551 $260 $263 $410 forward $406 $-1 #
coedge $-1 $260 $551 $540 $552 forward $406 $-1 #
loop $-1 $-1 $260 $392 #
vertex $-1 $261 $553 #
straight-curve $-1 52.378307443464465 0 7.447527473423774 0 -1 0 I I #
coedge $-1 $263 $262 $539 $554 reversed $153 $-1 #
edge $-1 $265 -3.7534679319541056 $555 3.7534679319541056 $263 $556 forward 7 unknown #
point $-1 52.378307443464465 -10.738537715083726 -7.447527473423774 #
point $-1 52.378307443464465 -10.738537715083726 7.447527473423774 #
plane-surface $-1 0 -22.633592661931274 0 0 1 0 0 0 1 forward_v I I I I #
coedge $-1 $424 $423 $416 $557 forward $268 $-1 #
coedge $-1 $416 $270 $272 $420 reversed $161 $-1 #
coedge $-1 $270 $415 $414 $557 reversed $161 $-1 #
coedge $-1 $278 $273 $270 $418 forward $279 $-1 #
edge $-1 $421 -34.906563354382058 $558 -27.741765448118613 $417 $559 forward 7 unknown #
coedge $-1 $272 $271 $424 $560 reversed $101 $-1 #
edge $-1 $561 -9.6411864562472616 $421 -2.1224720073754982e-014 $415 $562 forward 7 unknown #
vertex $-1 $274 $563 #
straight-curve $-1 -17.716263604009281 -22.633592661931274 0.28272956716033137 1 0 0 I I #
coedge $-1 $414 $275 $278 $428 forward $268 $-1 #
coedge $-1 $275 $414 $419 $560 forward $268 $-1 #
vertex $-1 $276 $564 #
straight-curve $-1 -43.347707710850081 -50.241464908595432 7.4475274734237757 0 -1 0 I I #
straight-curve $-1 -43.347707710850081 -22.633592661931289 0.28272956716031672 0 0.66913059716165679 0.74314483375859142 I I #
edge $-1 $280 -43.347707710850081 $558 -27.517346705187045 $278 $565 forward 7 unknown #
point $-1 -43.347707710850081 -22.633592661931274 7.447527473423774 #
point $-1 -43.347707710850081 -22.633592661931274 0.28272956716033248 #
edge $-1 $566 1 $566 0 $283 $-1 forward 7 unknown #
vertex $-1 $284 $567 #
ellipse-curve $-1 -35.432527208018556 -16.120034713439228 0.90464374513363488 0 -0.74314483375859142 0.66913059716165679 1.5 0 0 1 I I #
point $-1 -33.932527208018556 -19.407986236523463 3.8651285202920387 #
loop $-1 $-1 $295 $287 #
plane-surface $-1 0 0 7.447527473423774 0 0 1 1 0 0 forward_v I I I I #
coedge $-1 $438 $290 $292 $442 reversed $176 $-1 #
coedge $-1 $290 $437 $568 $569 reversed $176 $-1 #
coedge $-1 $298 $293 $290 $440 forward $288 $-1 #
edge $-1 $443 -34.906563354382058 $570 -27.741765448118613 $439 $571 forward 7 unknown #
coedge $-1 $292 $291 $446 $572 reversed $110 $-1 #
edge $-1 $573 -9.6411864562472616 $443 -2.1224720073754982e-014 $437 $574 forward 7 unknown #
vertex $-1 $294 $575 #
straight-curve $-1 -6.1971824623782013 -22.633592661931274 0.28272956716033137 1 0 0 I I #
coedge $-1 $568 $295 $298 $450 forward $435 $-1 #
coedge $-1 $295 $568 $441 $572 forward $435 $-1 #
vertex $-1 $296 $576 #
straight-curve $-1 -20.309545427587921 -50.241464908595432 7.4475274734237757 0 -1 0 I I #
straight-curve $-1 -20.309545427587921 -22.633592661931289 0.28272956716031672 0 0.66913059716165679 0.74314483375859142 I I #
edge $-1 $299 -20.309545427587921 $570 -4.4791844219248862 $298 $577 forward 7 unknown #
point $-1 -20.309545427587921 -22.633592661931274 7.447527473423774 #
point $-1 -20.309545427587921 -22.633592661931274 0.28272956716033248 #
edge $-1 $578 1 $578 0 $302 $-1 forward 7 unknown #
vertex $-1 $303 $579 #
ellipse-curve $-1 -12.394364924756403 -16.120034713439228 0.90464374513363488 0 -0.74314483375859142 0.66913059716165679 1.5 0 0 1 I I #
point $-1 -10.894364924756403 -19.407986236523463 3.8651285202920387 #
loop $-1 $-1 $314 $306 #
plane-surface $-1 0 0 7.447527473423774 0 0 1 1 0 0 forward_v I I I I #
coedge $-1 $460 $309 $311 $464 reversed $191 $-1 #
coedge $-1 $309 $459 $580 $581 reversed $191 $-1 #
coedge $-1 $317 $312 $309 $462 forward $307 $-1 #
edge $-1 $465 -34.906563354382058 $582 -27.741765448118613 $461 $583 forward 7 unknown #
coedge $-1 $311 $310 $468 $584 reversed $119 $-1 #
edge $-1 $585 -9.6411864562472616 $465 -2.1224720073754982e-014 $459 $586 forward 7 unknown #
vertex $-1 $313 $587 #
straight-curve $-1 5.3218986792528753 -22.633592661931274 0.28272956716033137 1 0 0 I I #
coedge $-1 $580 $314 $317 $472 forward $457 $-1 #
coedge $-1 $314 $580 $463 $584 forward $457 $-1 #
vertex $-1 $315 $588 #
straight-curve $-1 2.7286168556742343 -50.241464908595432 7.4475274734237757 0 -1 0 I I #
straight-curve $-1 2.7286168556742343 -22.633592661931289 0.28272956716031672 0 0.66913059716165679 0.74314483375859142 I I #
edge $-1 $318 2.7286168556742343 $582 18.558977861337269 $317 $589 forward 7 unknown #
point $-1 2.7286168556742343 -22.633592661931274 7.447527473423774 #
point $-1 2.7286168556742343 -22.633592661931274 0.28272956716033248 #
edge $-1 $590 1 $590 0 $321 $-1 forward 7 unknown #
vertex $-1 $322 $591 #
ellipse-curve $-1 10.643797358505751 -16.120034713439228 0.90464374513363488 0 -0.74314483375859142 0.66913059716165679 1.5 0 0 1 I I #
point $-1 12.143797358505751 -19.407986236523463 3.8651285202920387 #
loop $-1 $-1 $333 $325 #
plane-surface $-1 0 0 7.447527473423774 0 0 1 1 0 0 forward_v I I I I #
coedge $-1 $482 $328 $330 $486 reversed $206 $-1 #
coedge $-1 $328 $481 $592 $593 reversed $206 $-1 #
coedge $-1 $336 $331 $328 $484 forward $326 $-1 #
edge $-1 $487 -34.906563354382058 $594 -27.741765448118613 $483 $595 forward 7 unknown #
coedge $-1 $330 $329 $490 $596 reversed $128 $-1 #
edge $-1 $597 -9.6411864562472616 $487 -2.1224720073754982e-014 $481 $598 forward 7 unknown #
vertex $-1 $332 $599 #
straight-curve $-1 16.840979820883952 -22.633592661931274 0.28272956716033137 1 0 0 I I #
coedge $-1 $592 $333 $336 $494 forward $479 $-1 #
coedge $-1 $333 $592 $485 $596 forward $479 $-1 #
vertex $-1 $334 $600 #
straight-curve $-1 25.766779138936386 -50.241464908595432 7.4475274734237757 0 -1 0 I I #
straight-curve $-1 25.766779138936386 -22.633592661931289 0.28272956716031672 0 0.66913059716165679 0.74314483375859142 I I #
edge $-1 $337 25.766779138936386 $594 41.597140144599422 $336 $601 forward 7 unknown #
point $-1 25.766779138936386 -22.633592661931274 7.447527473423774 #
point $-1 25.766779138936386 -22.633592661931274 0.28272956716033248 #
edge $-1 $602 1 $602 0 $340 $-1 forward 7 unknown #
vertex $-1 $341 $603 #
ellipse-curve $-1 33.681959641767904 -16.120034713439228 0.90464374513363488 0 -0.74314483375859142 0.66913059716165679 1.5 0 0 1 I I #
point $-1 35.181959641767904 -19.407986236523463 3.8651285202920387 #
plane-surface $-1 0 22.633592661931274 0 0 -1 0 0 0 -1 forward_v I I I I #
coedge $-1 $514 $505 $507 $604 forward $345 $-1 #
coedge $-1 $505 $514 $347 $504 reversed $345 $-1 #
edge $-1 $510 -7.447527473423774 $516 7.447527473423774 $503 $605 forward 7 unknown #
coedge $-1 $502 $503 $348 $506 reversed $345 $-1 #
edge $-1 $508 -22.633592661931274 $510 22.633592661931274 $505 $606 forward 7 unknown #
coedge $-1 $349 $356 $502 $604 reversed $357 $-1 #
vertex $-1 $350 $607 #
straight-curve $-1 0 22.633592661931274 7.447527473423774 -1 0 0 I I #
vertex $-1 $506 $608 #
straight-curve $-1 0 -22.633592661931274 7.447527473423774 1 0 0 I I #
point $-1 52.378307443464465 -22.633592661931274 7.447527473423774 #
point $-1 52.378307443464465 22.633592661931274 7.447527473423774 #
coedge $-1 $503 $502 $361 $515 reversed $345 $-1 #
edge $-1 $516 -22.633592661931274 $518 22.633592661931274 $514 $609 forward 7 unknown #
vertex $-1 $515 $610 #
straight-curve $-1 0 -22.633592661931274 -7.447527473423774 -1 0 0 I I #
vertex $-1 $363 $611 #
straight-curve $-1 0 22.633592661931274 -7.447527473423774 1 0 0 I I #
plane-surface $-1 0 22.633592661931274 0 0 -1 0 0 0 -1 forward_v I I I I #
coedge $-1 $531 $530 $372 $523 forward $367 $-1 #
straight-curve $-1 -47.281277553492373 -22.633592661931274 -0.76551704822427347 0 0 1 I I #
edge $-1 $526 -22.633592661931274 $524 22.633592661931274 $521 $612 forward 7 unknown #
vertex $-1 $373 $613 #
straight-curve $-1 -24.914896249239209 -22.633592661931274 -3.0310340964485469 1 0 0 I I #
vertex $-1 $375 $614 #
straight-curve $-1 -24.914896249239209 22.633592661931274 -3.0310340964485469 -1 0 0 I I #
point $-1 -47.281277553492373 22.633592661931274 -3.0310340964485469 #
point $-1 -47.281277553492373 -22.633592661931274 -3.0310340964485469 #
coedge $-1 $521 $379 $382 $533 forward $367 $-1 #
coedge $-1 $379 $521 $386 $535 reversed $367 $-1 #
straight-curve $-1 -52.378307443464465 0 -0.031034096448546933 0 1 0 I I #
edge $-1 $384 0.031034096448546933 $526 3.0310340964485469 $382 $615 forward 7 unknown #
point $-1 -52.378307443464465 22.633592661931274 -0.031034096448546933 #
edge $-1 $387 0.031034096448546933 $524 3.0310340964485469 $531 $616 forward 7 unknown #
point $-1 -52.378307443464465 -22.633592661931274 -0.031034096448546933 #
straight-curve $-1 -47.281277553492373 22.633592661931274 -0.76551704822427347 0 0 -1 I I #
plane-surface $-1 0 0 7.447527473423774 0 0 1 1 0 0 forward_v I I I I #
coedge $-1 $543 $617 $409 $554 forward $393 $-1 #
coedge $-1 $395 $402 $405 $552 reversed $254 $-1 #
coedge $-1 $617 $543 $395 $542 reversed $393 $-1 #
edge $-1 $618 -7.447527473423774 $545 7.447527473423774 $541 $619 forward 7 unknown #
coedge $-1 $541 $539 $396 $544 reversed $393 $-1 #
edge $-1 $545 -1.5 $547 1.5 $543 $620 forward 7 unknown #
vertex $-1 $544 $621 #
straight-curve $-1 56.13177537541857 -7.7385377150837265 -7.447527473423774 1 0 0 I I #
vertex $-1 $554 $622 #
straight-curve $-1 56.13177537541857 -10.738537715083726 -7.447527473423774 -1 0 0 I I #
point $-1 52.378307443464465 -7.7385377150837265 -7.447527473423774 #
straight-curve $-1 52.378307443464465 -7.7385377150837265 0 0 0 -1 I I #
coedge $-1 $405 $404 $617 $623 forward $406 $-1 #
edge $-1 $618 -3.7534679319541056 $407 3.7534679319541056 $540 $624 forward 7 unknown #
point $-1 52.378307443464465 -7.7385377150837265 7.447527473423774 #
edge $-1 $555 -7.447527473423774 $547 7.447527473423774 $539 $625 forward 7 unknown #
vertex $-1 $623 $626 #
straight-curve $-1 56.13177537541857 -10.738537715083726 7.447527473423774 1 0 0 I I #
edge $-1 $558 27.607872246664158 $561 34.059085097479752 $414 $627 forward 7 unknown #
vertex $-1 $557 $628 #
straight-curve $-1 -27.517346705187045 -22.633592661931274 35.189292921542389 0 0 1 I I #
edge $-1 $561 9.8010831011777633 $425 25.631444106840799 $424 $629 forward 7 unknown #
vertex $-1 $560 $630 #
straight-curve $-1 -27.517346705187045 -22.633592661931289 0.28272956716031672 0 -0.66913059716165679 -0.74314483375859142 I I #
point $-1 -27.517346705187045 -22.633592661931274 0.28272956716033248 #
point $-1 -43.347707710850081 -16.18237981111568 7.447527473423774 #
straight-curve $-1 0 -22.633592661931274 7.447527473423774 1 0 0 I I #
vertex $-1 $431 $631 #
point $-1 -33.932527208018556 -16.120034713439228 0.90464374513363488 #
coedge $-1 $446 $445 $438 $569 forward $435 $-1 #
edge $-1 $570 27.607872246664158 $573 34.059085097479752 $568 $632 forward 7 unknown #
vertex $-1 $569 $633 #
straight-curve $-1 -4.4791844219248862 -22.633592661931274 35.189292921542389 0 0 1 I I #
edge $-1 $573 -1.7179980404533151 $447 14.112362965209719 $446 $634 forward 7 unknown #
vertex $-1 $572 $635 #
straight-curve $-1 -4.4791844219248862 -22.633592661931289 0.28272956716031672 0 -0.66913059716165679 -0.74314483375859142 I I #
point $-1 -4.4791844219248862 -22.633592661931274 0.28272956716033248 #
point $-1 -20.309545427587921 -16.18237981111568 7.447527473423774 #
straight-curve $-1 0 -22.633592661931274 7.447527473423774 1 0 0 I I #
vertex $-1 $453 $636 #
point $-1 -10.894364924756403 -16.120034713439228 0.90464374513363488 #
coedge $-1 $468 $467 $460 $581 forward $457 $-1 #
edge $-1 $582 27.607872246664158 $585 34.059085097479752 $580 $637 forward 7 unknown #
vertex $-1 $581 $638 #
straight-curve $-1 18.558977861337269 -22.633592661931274 35.189292921542389 0 0 1 I I #
edge $-1 $585 -13.237079182084393 $469 2.593281823578641 $468 $639 forward 7 unknown #
vertex $-1 $584 $640 #
straight-curve $-1 18.558977861337269 -22.633592661931289 0.28272956716031672 0 -0.66913059716165679 -0.74314483375859142 I I #
point $-1 18.558977861337269 -22.633592661931274 0.28272956716033248 #
point $-1 2.7286168556742343 -16.18237981111568 7.447527473423774 #
straight-curve $-1 0 -22.633592661931274 7.447527473423774 1 0 0 I I #
vertex $-1 $475 $641 #
point $-1 12.143797358505751 -16.120034713439228 0.90464374513363488 #
coedge $-1 $490 $489 $482 $593 forward $479 $-1 #
edge $-1 $594 27.607872246664158 $597 34.059085097479752 $592 $642 forward 7 unknown #
vertex $-1 $593 $643 #
straight-curve $-1 41.597140144599422 -22.633592661931274 35.189292921542389 0 0 1 I I #
edge $-1 $597 -24.75616032371547 $491 -8.9257993180524338 $490 $644 forward 7 unknown #
vertex $-1 $596 $645 #
straight-curve $-1 41.597140144599422 -22.633592661931289 0.28272956716031672 0 -0.66913059716165679 -0.74314483375859142 I I #
point $-1 41.597140144599422 -22.633592661931274 0.28272956716033248 #
point $-1 25.766779138936386 -16.18237981111568 7.447527473423774 #
straight-curve $-1 0 -22.633592661931274 7.447527473423774 1 0 0 I I #
vertex $-1 $497 $646 #
point $-1 35.181959641767904 -16.120034713439228 0.90464374513363488 #
edge $-1 $508 -7.447527473423774 $518 7.447527473423774 $507 $647 forward 7 unknown #
straight-curve $-1 -52.378307443464465 -22.633592661931274 0 0 0 -1 I I #
straight-curve $-1 -52.378307443464465 0 7.447527473423774 0 -1 0 I I #
point $-1 -52.378307443464465 22.633592661931274 7.447527473423774 #
point $-1 -52.378307443464465 -22.633592661931274 7.447527473423774 #
straight-curve $-1 -52.378307443464465 0 -7.447527473423774 0 1 0 I I #
point $-1 -52.378307443464465 -22.633592661931274 -7.447527473423774 #
point $-1 -52.378307443464465 22.633592661931274 -7.447527473423774 #
straight-curve $-1 -52.378307443464465 0 -3.0310340964485469 0 -1 0 I I #
point $-1 -52.378307443464465 -22.633592661931274 -3.0310340964485469 #
point $-1 -52.378307443464465 22.633592661931274 -3.0310340964485469 #
straight-curve $-1 -52.378307443464465 22.633592661931274 0 0 0 -1 I I #
straight-curve $-1 -52.378307443464465 -22.633592661931274 0 0 0 -1 I I #
coedge $-1 $539 $541 $551 $623 reversed $393 $-1 #
vertex $-1 $623 $648 #
straight-curve $-1 59.885243307372676 -7.7385377150837265 0 0 0 -1 I I #
straight-curve $-1 59.885243307372676 -9.2385377150837265 -7.447527473423774 0 -1 0 I I #
point $-1 59.885243307372676 -7.7385377150837265 -7.447527473423774 #
point $-1 59.885243307372676 -10.738537715083726 -7.447527473423774 #
edge $-1 $555 -1.5 $618 1.5 $617 $649 forward 7 unknown #
straight-curve $-1 56.13177537541857 -7.7385377150837265 7.447527473423774 -1 0 0 I I #
straight-curve $-1 59.885243307372676 -10.738537715083726 0 0 0 -1 I I #
point $-1 59.885243307372676 -10.738537715083726 7.447527473423774 #
straight-curve $-1 -27.517346705187045 -50.241464908595432 7.4475274734237757 0 1 0 I I #
point $-1 -27.517346705187045 -22.633592661931274 7.447527473423774 #
straight-curve $-1 -17.716263604009281 -16.182379811115677 7.447527473423774 -1 0 0 I I #
point $-1 -27.517346705187045 -16.18237981111568 7.447527473423774 #
point $-1 -35.432527208018556 -15.00531746280134 -0.099052150608850198 #
straight-curve $-1 -4.4791844219248862 -50.241464908595432 7.4475274734237757 0 1 0 I I #
point $-1 -4.4791844219248862 -22.633592661931274 7.447527473423774 #
straight-curve $-1 -6.1971824623782013 -16.182379811115677 7.447527473423774 -1 0 0 I I #
point $-1 -4.4791844219248862 -16.18237981111568 7.447527473423774 #
point $-1 -12.394364924756403 -15.00531746280134 -0.099052150608850198 #
straight-curve $-1 18.558977861337269 -50.241464908595432 7.4475274734237757 0 1 0 I I #
point $-1 18.558977861337269 -22.633592661931274 7.447527473423774 #
straight-curve $-1 5.3218986792528753 -16.182379811115677 7.447527473423774 -1 0 0 I I #
point $-1 18.558977861337269 -16.18237981111568 7.447527473423774 #
point $-1 10.643797358505751 -15.00531746280134 -0.099052150608850198 #
straight-curve $-1 41.597140144599422 -50.241464908595432 7.4475274734237757 0 1 0 I I #
point $-1 41.597140144599422 -22.633592661931274 7.447527473423774 #
straight-curve $-1 16.840979820883952 -16.182379811115677 7.447527473423774 -1 0 0 I I #
point $-1 41.597140144599422 -16.18237981111568 7.447527473423774 #
point $-1 33.681959641767904 -15.00531746280134 -0.099052150608850198 #
straight-curve $-1 -52.378307443464465 22.633592661931274 0 0 0 -1 I I #
point $-1 59.885243307372676 -7.7385377150837265 7.447527473423774 #
straight-curve $-1 59.885243307372676 -9.2385377150837265 7.447527473423774 0 1 0 I I #
End-of-ACIS-data 