500 0 13 0           
7 Unknown 11 ACIS 5.0 NT 24 Thu Mar 25 16:33:47 1999 
-1 9.9999999999999995e-007 1e-010 
body $-1 $13 $-1 $14 #
body $-1 $15 $-1 $16 #
body $-1 $17 $-1 $18 #
body $-1 $19 $-1 $20 #
body $-1 $21 $-1 $22 #
body $-1 $23 $-1 $24 #
body $-1 $25 $-1 $26 #
body $-1 $27 $-1 $28 #
body $-1 $29 $-1 $30 #
body $-1 $31 $-1 $32 #
body $-1 $33 $-1 $34 #
body $-1 $35 $-1 $36 #
body $-1 $37 $-1 $38 #
lump $-1 $-1 $39 $0 #
transform $-1 1 0 0 0 1 0 0 0 1 54.794152653584398 34.491536992487312 9.0475679420705877 1 rotate no_reflect no_shear #
lump $-1 $-1 $40 $1 #
transform $-1 1 0 0 0 1 0 0 0 1 54.794152653584398 34.491536992487312 9.0475679420705877 1 rotate no_reflect no_shear #
lump $-1 $-1 $41 $2 #
transform $-1 1 0 0 0 1 0 0 0 1 54.794152653584398 34.491536992487312 9.0475679420705877 1 rotate no_reflect no_shear #
lump $-1 $-1 $42 $3 #
transform $-1 1 0 0 0 1 0 0 0 1 54.794152653584398 34.491536992487312 9.0475679420705877 1 rotate no_reflect no_shear #
lump $-1 $-1 $43 $4 #
transform $-1 1 0 0 0 1 0 0 0 1 54.794152653584398 34.491536992487312 9.0475679420705877 1 rotate no_reflect no_shear #
lump $-1 $-1 $44 $5 #
transform $-1 1 0 0 0 1 0 0 0 1 54.794152653584398 34.491536992487312 9.0475679420705877 1 rotate no_reflect no_shear #
lump $-1 $-1 $45 $6 #
transform $-1 1 0 0 0 1 0 0 0 1 54.794152653584398 34.491536992487312 9.0475679420705877 1 rotate no_reflect no_shear #
lump $-1 $-1 $46 $7 #
transform $-1 1 0 0 0 1 0 0 0 1 54.794152653584398 34.491536992487312 9.0475679420705877 1 rotate no_reflect no_shear #
lump $-1 $-1 $47 $8 #
transform $-1 1 0 0 0 1 0 0 0 1 54.794152653584398 34.491536992487312 9.0475679420705877 1 rotate no_reflect no_shear #
lump $-1 $-1 $48 $9 #
transform $-1 1 0 0 0 1 0 0 0 1 54.794152653584398 34.491536992487312 9.0475679420705877 1 rotate no_reflect no_shear #
lump $-1 $-1 $49 $10 #
transform $-1 1 0 0 0 1 0 0 0 1 54.794152653584398 34.491536992487312 9.0475679420705877 1 rotate no_reflect no_shear #
lump $-1 $-1 $50 $11 #
transform $-1 1 0 0 0 1 0 0 0 1 54.794152653584398 34.491536992487312 9.0475679420705877 1 rotate no_reflect no_shear #
lump $-1 $-1 $51 $12 #
transform $-1 1 0 0 0 1 0 0 0 1 54.794152653584398 34.491536992487312 9.0475679420705877 1 rotate no_reflect no_shear #
shell $-1 $-1 $-1 $52 $-1 $13 #
shell $-1 $-1 $-1 $53 $-1 $15 #
shell $-1 $-1 $-1 $54 $-1 $17 #
shell $-1 $-1 $-1 $55 $-1 $19 #
shell $-1 $-1 $-1 $56 $-1 $21 #
shell $-1 $-1 $-1 $57 $-1 $23 #
shell $-1 $-1 $-1 $58 $-1 $25 #
shell $-1 $-1 $-1 $59 $-1 $27 #
shell $-1 $-1 $-1 $60 $-1 $29 #
shell $-1 $-1 $-1 $61 $-1 $31 #
shell $-1 $-1 $-1 $62 $-1 $33 #
shell $-1 $-1 $-1 $63 $-1 $35 #
shell $-1 $-1 $-1 $64 $-1 $37 #
face $-1 $65 $66 $39 $-1 $67 forward single #
face $-1 $68 $69 $40 $-1 $70 reversed single #
face $-1 $71 $72 $41 $-1 $73 reversed single #
face $-1 $74 $75 $42 $-1 $76 reversed single #
face $-1 $77 $78 $43 $-1 $79 forward single #
face $-1 $80 $81 $44 $-1 $82 forward single #
face $-1 $83 $84 $45 $-1 $85 reversed single #
face $-1 $86 $87 $46 $-1 $88 forward single #
face $-1 $89 $90 $47 $-1 $91 forward single #
face $-1 $92 $93 $48 $-1 $94 reversed single #
face $-1 $95 $96 $49 $-1 $97 forward single #
face $-1 $98 $99 $50 $-1 $100 forward single #
face $-1 $101 $102 $51 $-1 $103 forward single #
face $-1 $104 $105 $39 $-1 $106 reversed single #
loop $-1 $-1 $107 $52 #
plane-surface $-1 0 0 9.0475679420705877 0 0 1 1 0 0 forward_v I I I I #
face $-1 $108 $109 $40 $-1 $110 reversed single #
loop $-1 $-1 $111 $53 #
plane-surface $-1 -52.154986445292373 -22.904293783647773 0 0 -1 0 0 0 -1 forward_v I I I I #
face $-1 $112 $113 $41 $-1 $114 reversed single #
loop $-1 $-1 $115 $54 #
plane-surface $-1 -52.154986445292373 22.904293783647773 0 0 1 0 0 0 1 forward_v I I I I #
face $-1 $116 $117 $42 $-1 $118 reversed single #
loop $-1 $-1 $119 $55 #
plane-surface $-1 65.605101333992934 -10.317500945713007 157.34615897175658 0 -1 0 -0.75470958851134928 0 -0.65605901945558964 forward_v I I I I #
face $-1 $120 $121 $43 $-1 $122 forward single #
loop $-1 $123 $124 $56 #
cone-surface $-1 51.674095205407539 -16.344144643672109 5.5650413767939781 -0.75470958851134928 0 -0.65605901945558964 0.65605901945558964 0 -0.75470958851134928 1 I I 0 1 1 forward I I I I #
face $-1 $125 $126 $44 $-1 $127 forward single #
loop $-1 $128 $129 $57 #
cone-surface $-1 51.674095205407539 -12.728158424896648 5.5650413767939781 -0.75470958851134928 0 -0.65605901945558964 0.65605901945558964 0 -0.75470958851134928 1 I I 0 1 1 forward I I I I #
face $-1 $130 $131 $45 $-1 $132 reversed single #
loop $-1 $-1 $133 $58 #
plane-surface $-1 65.605101333992934 12.586792837934766 157.34615897175658 0 -1 0 -0.75470958851134928 0 -0.65605901945558964 forward_v I I I I #
face $-1 $134 $135 $46 $-1 $136 forward single #
loop $-1 $137 $138 $59 #
cone-surface $-1 51.674095205407539 6.560149139975664 5.5650413767939781 -0.75470958851134928 0 -0.65605901945558964 0.65605901945558964 0 -0.75470958851134928 1 I I 0 1 1 forward I I I I #
face $-1 $139 $140 $47 $-1 $141 forward single #
loop $-1 $142 $143 $60 #
cone-surface $-1 51.674095205407539 10.176135358751125 5.5650413767939781 -0.75470958851134928 0 -0.65605901945558964 0.65605901945558964 0 -0.75470958851134928 1 I I 0 1 1 forward I I I I #
face $-1 $144 $145 $48 $-1 $146 reversed single #
loop $-1 $-1 $147 $61 #
plane-surface $-1 -125.23615833738128 -4.8942941546079748 89.894093507131018 0 1 0 -0.64278761758704617 0 0.76604443648966558 forward_v I I I I #
face $-1 $148 $149 $49 $-1 $150 forward single #
loop $-1 $151 $152 $62 #
cone-surface $-1 -52.081128082533461 -2.1880278900141832 6.4663673847713214 0.64278761758704617 0 -0.76604443648966558 0.76604443648966558 0 0.64278761758704617 1 I I 0 1 1 forward I I I I #
face $-1 $153 $154 $50 $-1 $155 forward single #
loop $-1 $156 $157 $63 #
cone-surface $-1 -52.081128082533461 1.8713715068764998 6.4663673847713214 0.64278761758704617 0 -0.76604443648966558 0.76604443648966558 0 0.64278761758704617 1 I I 0 1 1 forward I I I I #
face $-1 $158 $159 $51 $-1 $160 forward single #
loop $-1 $161 $162 $64 #
cone-surface $-1 -52.081128082533461 5.9307709037671827 6.4663673847713214 0.64278761758704617 0 -0.76604443648966558 0.76604443648966558 0 0.64278761758704617 1 I I 0 1 1 forward I I I I #
face $-1 $163 $164 $39 $-1 $165 reversed single #
loop $-1 $-1 $166 $65 #
plane-surface $-1 0 0 -9.0475679420705877 0 0 1 1 0 0 forward_v I I I I #
coedge $-1 $167 $168 $169 $170 forward $66 $-1 #
face $-1 $171 $172 $40 $-1 $173 forward single #
loop $-1 $-1 $174 $68 #
plane-surface $-1 -49.515820237000348 -28.697915388067543 0 -1 0 0 0 0 1 forward_v I I I I #
coedge $-1 $175 $176 $177 $178 forward $69 $-1 #
face $-1 $179 $180 $41 $-1 $181 reversed single #
loop $-1 $-1 $182 $71 #
plane-surface $-1 -49.515820237000348 28.697915388067543 0 -1 0 0 0 0 1 forward_v I I I I #
coedge $-1 $183 $184 $185 $186 reversed $72 $-1 #
face $-1 $187 $188 $42 $-1 $189 reversed single #
loop $-1 $-1 $190 $74 #
plane-surface $-1 -17.102243470036541 -14.536151534284379 85.449762848135634 0.75470958851134928 0 0.65605901945558964 0.65605901945558964 0 -0.75470958851134928 forward_v I I I I #
coedge $-1 $191 $192 $193 $194 reversed $75 $-1 #
face $-1 $-1 $195 $43 $-1 $196 forward single #
loop $-1 $197 $198 $77 #
cone-surface $-1 50.917174486170246 -16.344144643672109 4.9070602507717904 -0.75470958851134928 0 -0.65605901945558964 0.32802950972779482 0 -0.37735479425567464 1 I I -0.70710678118654746 0.70710678118654746 0.5 forward I I I I #
loop $-1 $-1 $199 $56 #
coedge $-1 $124 $124 $200 $201 reversed $78 $-1 #
face $-1 $-1 $202 $44 $-1 $203 forward single #
loop $-1 $204 $205 $80 #
cone-surface $-1 50.917174486170246 -12.728158424896648 4.9070602507717904 -0.75470958851134928 0 -0.65605901945558964 0.32802950972779482 0 -0.37735479425567464 1 I I -0.70710678118654746 0.70710678118654746 0.5 forward I I I I #
loop $-1 $-1 $206 $57 #
coedge $-1 $129 $129 $207 $208 reversed $81 $-1 #
face $-1 $209 $210 $45 $-1 $211 reversed single #
loop $-1 $-1 $212 $83 #
plane-surface $-1 -17.102243470036541 8.3681422493633946 85.449762848135634 0.75470958851134928 0 0.65605901945558964 0.65605901945558964 0 -0.75470958851134928 forward_v I I I I #
coedge $-1 $213 $214 $215 $216 reversed $84 $-1 #
face $-1 $-1 $217 $46 $-1 $218 forward single #
loop $-1 $219 $220 $86 #
cone-surface $-1 50.917174486170246 6.560149139975664 4.9070602507717904 -0.75470958851134928 0 -0.65605901945558964 0.32802950972779482 0 -0.37735479425567464 1 I I -0.70710678118654746 0.70710678118654746 0.5 forward I I I I #
loop $-1 $-1 $221 $59 #
coedge $-1 $138 $138 $222 $223 reversed $87 $-1 #
face $-1 $-1 $224 $47 $-1 $225 forward single #
loop $-1 $226 $227 $89 #
cone-surface $-1 50.917174486170246 10.176135358751125 4.9070602507717904 -0.75470958851134928 0 -0.65605901945558964 0.32802950972779482 0 -0.37735479425567464 1 I I -0.70710678118654746 0.70710678118654746 0.5 forward I I I I #
loop $-1 $-1 $228 $60 #
coedge $-1 $143 $143 $229 $230 reversed $90 $-1 #
face $-1 $231 $232 $48 $-1 $233 reversed single #
loop $-1 $-1 $234 $92 #
plane-surface $-1 -54.794152653584405 1.8713715068764927 5.9445819222434721 -0.64278761758704617 0 0.76604443648966558 0.76604443648966558 0 0.64278761758704617 forward_v I I I I #
coedge $-1 $235 $236 $237 $238 reversed $93 $-1 #
face $-1 $-1 $239 $49 $-1 $240 forward single #
loop $-1 $241 $242 $95 #
cone-surface $-1 -50.895707032411117 -2.1880278900141832 5.0536376191407868 0.64278761758704617 0 -0.76604443648966558 0.38302221824483279 0 0.32139380879352308 1 I I -0.70710678118654746 0.70710678118654746 0.5 forward I I I I #
loop $-1 $-1 $243 $62 #
coedge $-1 $152 $152 $244 $245 reversed $96 $-1 #
face $-1 $-1 $246 $50 $-1 $247 forward single #
loop $-1 $248 $249 $98 #
cone-surface $-1 -50.895707032411117 1.8713715068764998 5.0536376191407868 0.64278761758704617 0 -0.76604443648966558 0.38302221824483279 0 0.32139380879352308 1 I I -0.70710678118654746 0.70710678118654746 0.5 forward I I I I #
loop $-1 $-1 $250 $63 #
coedge $-1 $157 $157 $251 $252 reversed $99 $-1 #
face $-1 $-1 $253 $51 $-1 $254 forward single #
loop $-1 $255 $256 $101 #
cone-surface $-1 -50.895707032411117 5.9307709037671827 5.0536376191407868 0.64278761758704617 0 -0.76604443648966558 0.38302221824483279 0 0.32139380879352308 1 I I -0.70710678118654746 0.70710678118654746 0.5 forward I I I I #
loop $-1 $-1 $257 $64 #
coedge $-1 $162 $162 $258 $259 reversed $102 $-1 #
face $-1 $260 $261 $39 $-1 $262 reversed single #
loop $-1 $-1 $263 $104 #
plane-surface $-1 0 -34.491536992487312 0 0 1 0 0 0 1 forward_v I I I I #
coedge $-1 $264 $265 $266 $267 forward $105 $-1 #
coedge $-1 $268 $107 $269 $270 forward $66 $-1 #
coedge $-1 $107 $268 $271 $272 forward $66 $-1 #
coedge $-1 $273 $274 $107 $170 reversed $275 $-1 #
edge $-1 $276 -34.491536992487312 $277 34.491536992487312 $169 $278 forward 7 unknown #
face $-1 $279 $280 $40 $-1 $281 reversed single #
loop $-1 $-1 $282 $108 #
plane-surface $-1 0 0 9.0475679420705877 0 0 1 1 0 0 forward_v I I I I #
coedge $-1 $283 $284 $285 $286 reversed $109 $-1 #
coedge $-1 $287 $111 $288 $289 reversed $69 $-1 #
coedge $-1 $111 $287 $290 $291 reversed $69 $-1 #
coedge $-1 $284 $283 $111 $178 reversed $109 $-1 #
edge $-1 $292 -9.0475679420705877 $293 9.0475679420705877 $177 $294 forward 7 unknown #
face $-1 $295 $296 $41 $-1 $297 reversed single #
loop $-1 $-1 $298 $112 #
plane-surface $-1 0 0 -9.0475679420705877 0 0 1 1 0 0 forward_v I I I I #
coedge $-1 $299 $300 $301 $302 forward $113 $-1 #
coedge $-1 $301 $115 $303 $304 reversed $72 $-1 #
coedge $-1 $115 $301 $305 $306 reversed $72 $-1 #
coedge $-1 $307 $308 $115 $186 forward $296 $-1 #
edge $-1 $309 -9.0475679420705877 $310 9.0475679420705877 $185 $311 forward 7 unknown #
face $-1 $312 $313 $42 $-1 $314 reversed single #
loop $-1 $-1 $315 $116 #
plane-surface $-1 65.605101333992934 -18.75480212285575 157.34615897175658 0 1 0 0.75470958851134928 0 0.65605901945558964 forward_v I I I I #
coedge $-1 $316 $317 $318 $319 reversed $117 $-1 #
coedge $-1 $192 $119 $320 $321 reversed $75 $-1 #
coedge $-1 $119 $191 $316 $322 reversed $75 $-1 #
coedge $-1 $318 $323 $119 $194 forward $324 $-1 #
edge $-1 $325 -21.991601986587931 $326 -16.510618940197446 $193 $327 forward 7 unknown #
loop $-1 $-1 $200 $120 #
plane-surface $-1 -17.102243470036541 -14.536151534284379 85.449762848135634 0.75470958851134928 0 0.65605901945558964 0.65605901945558964 0 -0.75470958851134928 forward_v I I I I #
loop $-1 $-1 $328 $77 #
coedge $-1 $198 $198 $199 $329 reversed $121 $-1 #
coedge $-1 $199 $199 $198 $329 forward $123 $-1 #
coedge $-1 $200 $200 $124 $201 forward $195 $-1 #
edge $-1 $330 0 $330 6.2831853071796004 $200 $331 forward 7 unknown #
loop $-1 $-1 $207 $125 #
plane-surface $-1 -17.102243470036541 -14.536151534284379 85.449762848135634 0.75470958851134928 0 0.65605901945558964 0.65605901945558964 0 -0.75470958851134928 forward_v I I I I #
loop $-1 $-1 $332 $80 #
coedge $-1 $205 $205 $206 $333 reversed $126 $-1 #
coedge $-1 $206 $206 $205 $333 forward $128 $-1 #
coedge $-1 $207 $207 $129 $208 forward $202 $-1 #
edge $-1 $334 0 $334 6.2831853071796004 $207 $335 forward 7 unknown #
face $-1 $336 $337 $45 $-1 $338 reversed single #
loop $-1 $-1 $339 $130 #
plane-surface $-1 65.605101333992934 4.1494916607920231 157.34615897175658 0 1 0 0.75470958851134928 0 0.65605901945558964 forward_v I I I I #
coedge $-1 $340 $341 $342 $343 reversed $131 $-1 #
coedge $-1 $214 $133 $344 $345 reversed $84 $-1 #
coedge $-1 $133 $213 $340 $346 reversed $84 $-1 #
coedge $-1 $342 $347 $133 $216 forward $348 $-1 #
edge $-1 $349 -21.991601986587931 $350 -16.510618940197446 $215 $351 forward 7 unknown #
loop $-1 $-1 $222 $134 #
plane-surface $-1 -17.102243470036541 8.3681422493633946 85.449762848135634 0.75470958851134928 0 0.65605901945558964 0.65605901945558964 0 -0.75470958851134928 forward_v I I I I #
loop $-1 $-1 $352 $86 #
coedge $-1 $220 $220 $221 $353 reversed $135 $-1 #
coedge $-1 $221 $221 $220 $353 forward $137 $-1 #
coedge $-1 $222 $222 $138 $223 forward $217 $-1 #
edge $-1 $354 0 $354 6.2831853071796004 $222 $355 forward 7 unknown #
loop $-1 $-1 $229 $139 #
plane-surface $-1 -17.102243470036541 8.3681422493633946 85.449762848135634 0.75470958851134928 0 0.65605901945558964 0.65605901945558964 0 -0.75470958851134928 forward_v I I I I #
loop $-1 $-1 $356 $89 #
coedge $-1 $227 $227 $228 $357 reversed $140 $-1 #
coedge $-1 $228 $228 $227 $357 forward $142 $-1 #
coedge $-1 $229 $229 $143 $230 forward $224 $-1 #
edge $-1 $358 0 $358 6.2831853071796004 $229 $359 forward 7 unknown #
face $-1 $360 $361 $48 $-1 $362 forward single #
loop $-1 $-1 $363 $144 #
plane-surface $-1 -125.23615833738128 8.6370371683609601 89.894093507131018 0 -1 0 0.64278761758704617 0 -0.76604443648966558 forward_v I I I I #
coedge $-1 $364 $365 $366 $367 reversed $145 $-1 #
coedge $-1 $236 $147 $368 $369 reversed $93 $-1 #
coedge $-1 $147 $235 $364 $370 reversed $93 $-1 #
coedge $-1 $366 $371 $147 $238 forward $361 $-1 #
edge $-1 $372 7.823926515106244 $373 11.521921174550464 $237 $374 forward 7 unknown #
loop $-1 $-1 $244 $148 #
plane-surface $-1 -54.794152653584405 1.8713715068764927 5.9445819222434721 -0.64278761758704617 0 0.76604443648966558 0.76604443648966558 0 0.64278761758704617 forward_v I I I I #
loop $-1 $-1 $375 $95 #
coedge $-1 $242 $242 $243 $376 reversed $149 $-1 #
coedge $-1 $243 $243 $242 $376 forward $151 $-1 #
coedge $-1 $244 $244 $152 $245 forward $239 $-1 #
edge $-1 $377 0 $377 6.2831853071796004 $244 $378 forward 7 unknown #
loop $-1 $-1 $251 $153 #
plane-surface $-1 -54.794152653584405 1.8713715068764927 5.9445819222434721 -0.64278761758704617 0 0.76604443648966558 0.76604443648966558 0 0.64278761758704617 forward_v I I I I #
loop $-1 $-1 $379 $98 #
coedge $-1 $249 $249 $250 $380 reversed $154 $-1 #
coedge $-1 $250 $250 $249 $380 forward $156 $-1 #
coedge $-1 $251 $251 $157 $252 forward $246 $-1 #
edge $-1 $381 0 $381 6.2831853071796004 $251 $382 forward 7 unknown #
loop $-1 $-1 $258 $158 #
plane-surface $-1 -54.794152653584405 1.8713715068764927 5.9445819222434721 -0.64278761758704617 0 0.76604443648966558 0.76604443648966558 0 0.64278761758704617 forward_v I I I I #
loop $-1 $-1 $383 $101 #
coedge $-1 $256 $256 $257 $384 reversed $159 $-1 #
coedge $-1 $257 $257 $256 $384 forward $161 $-1 #
coedge $-1 $258 $258 $162 $259 forward $253 $-1 #
edge $-1 $385 0 $385 6.2831853071796004 $258 $386 forward 7 unknown #
face $-1 $387 $388 $39 $-1 $389 reversed single #
loop $-1 $-1 $390 $163 #
plane-surface $-1 -54.794152653584398 0 0 1 0 0 0 0 -1 forward_v I I I I #
coedge $-1 $391 $271 $392 $393 forward $164 $-1 #
coedge $-1 $394 $166 $391 $395 forward $105 $-1 #
coedge $-1 $166 $394 $396 $397 forward $105 $-1 #
coedge $-1 $274 $273 $166 $267 reversed $275 $-1 #
edge $-1 $398 -34.491536992487312 $399 34.491536992487312 $266 $400 forward 7 unknown #
coedge $-1 $168 $167 $401 $402 forward $66 $-1 #
coedge $-1 $403 $404 $167 $270 reversed $388 $-1 #
edge $-1 $277 -54.794152653584398 $405 54.794152653584398 $269 $406 forward 7 unknown #
coedge $-1 $263 $407 $168 $272 reversed $164 $-1 #
edge $-1 $408 -54.794152653584398 $276 54.794152653584398 $271 $409 forward 7 unknown #
coedge $-1 $266 $169 $407 $410 forward $275 $-1 #
coedge $-1 $169 $266 $403 $411 reversed $275 $-1 #
loop $-1 $-1 $273 $387 #
vertex $-1 $170 $412 #
vertex $-1 $170 $413 #
straight-curve $-1 54.794152653584398 0 9.0475679420705877 0 1 0 I I #
face $-1 $414 $415 $40 $-1 $416 reversed single #
loop $-1 $-1 $417 $171 #
plane-surface $-1 -54.794152653584398 0 0 1 0 0 0 0 -1 forward_v I I I I #
coedge $-1 $290 $418 $284 $419 forward $172 $-1 #
coedge $-1 $177 $174 $420 $421 reversed $109 $-1 #
coedge $-1 $174 $177 $282 $419 reversed $109 $-1 #
coedge $-1 $422 $423 $174 $286 forward $424 $-1 #
edge $-1 $425 -9.0475679420705877 $426 9.0475679420705877 $285 $427 forward 7 unknown #
coedge $-1 $176 $175 $417 $428 reversed $69 $-1 #
coedge $-1 $420 $429 $175 $289 forward $415 $-1 #
edge $-1 $430 -28.716659430938211 $293 -23.438327014354162 $288 $431 forward 7 unknown #
coedge $-1 $432 $282 $176 $291 forward $172 $-1 #
edge $-1 $292 23.438327014354162 $433 28.716659430938211 $290 $434 forward 7 unknown #
vertex $-1 $291 $435 #
vertex $-1 $289 $436 #
straight-curve $-1 -49.515820237000348 -22.904293783647773 0 0 0 -1 I I #
face $-1 $437 $438 $41 $-1 $439 forward single #
loop $-1 $-1 $185 $179 #
plane-surface $-1 -54.794152653584398 0 0 1 0 0 0 0 -1 forward_v I I I I #
coedge $-1 $303 $440 $299 $441 forward $180 $-1 #
coedge $-1 $442 $182 $298 $441 reversed $113 $-1 #
coedge $-1 $182 $442 $443 $444 reversed $113 $-1 #
coedge $-1 $184 $183 $182 $302 reversed $72 $-1 #
edge $-1 $445 -9.0475679420705877 $446 9.0475679420705877 $182 $447 forward 7 unknown #
coedge $-1 $448 $298 $183 $304 forward $180 $-1 #
edge $-1 $446 23.438327014354162 $309 28.716659430938211 $303 $449 forward 7 unknown #
coedge $-1 $443 $450 $184 $306 forward $438 $-1 #
edge $-1 $310 -28.716659430938211 $445 -23.438327014354162 $305 $451 forward 7 unknown #
coedge $-1 $452 $185 $450 $453 reversed $296 $-1 #
coedge $-1 $185 $452 $448 $454 reversed $296 $-1 #
vertex $-1 $454 $455 #
vertex $-1 $186 $456 #
straight-curve $-1 -54.794152653584398 22.904293783647773 0 0 0 1 I I #
face $-1 $-1 $324 $42 $-1 $457 forward single #
loop $-1 $-1 $458 $187 #
plane-surface $-1 54.794152653584398 0 0 -1 0 0 0 0 1 forward_v I I I I #
coedge $-1 $459 $460 $461 $462 reversed $188 $-1 #
coedge $-1 $463 $190 $192 $322 forward $117 $-1 #
coedge $-1 $190 $463 $459 $464 forward $117 $-1 #
coedge $-1 $461 $193 $190 $319 forward $324 $-1 #
edge $-1 $326 3.049425178570818 $465 11.486726355713561 $318 $466 forward 7 unknown #
coedge $-1 $467 $468 $191 $321 forward $313 $-1 #
edge $-1 $469 -75.930661441772116 $325 -69.625511543807704 $320 $470 forward 7 unknown #
edge $-1 $326 101.23389985910605 $469 109.5883053071688 $192 $471 forward 7 unknown #
coedge $-1 $193 $461 $467 $472 forward $324 $-1 #
loop $-1 $-1 $461 $312 #
vertex $-1 $321 $473 #
vertex $-1 $194 $474 #
straight-curve $-1 32.802550666996467 -10.317500945713007 9.0475679420705859 -1 0 0 I I #
coedge $-1 $328 $328 $-1 $475 reversed $197 $-1 #
edge $-1 $476 0 $476 6.2831853071796004 $198 $477 forward 7 unknown #
vertex $-1 $201 $478 #
ellipse-curve $-1 52.053661130389166 -16.344144643672109 5.8949929930883762 0.75470958851134928 0 0.65605901945558964 0.65605901945558964 0 -0.75470958851134928 1 I I #
coedge $-1 $332 $332 $-1 $479 reversed $204 $-1 #
edge $-1 $480 0 $480 6.2831853071796004 $205 $481 forward 7 unknown #
vertex $-1 $208 $482 #
ellipse-curve $-1 52.053661130389166 -12.728158424896648 5.8949929930883762 0.75470958851134928 0 0.65605901945558964 0.65605901945558964 0 -0.75470958851134928 1 I I #
face $-1 $-1 $348 $45 $-1 $483 forward single #
loop $-1 $-1 $484 $209 #
plane-surface $-1 54.794152653584398 0 0 -1 0 0 0 0 1 forward_v I I I I #
coedge $-1 $485 $486 $487 $488 reversed $210 $-1 #
coedge $-1 $489 $212 $214 $346 forward $131 $-1 #
coedge $-1 $212 $489 $485 $490 forward $131 $-1 #
coedge $-1 $487 $215 $212 $343 forward $348 $-1 #
edge $-1 $350 -8.4027217132530687 $491 0.034579463889674145 $342 $492 forward 7 unknown #
coedge $-1 $493 $494 $213 $345 forward $337 $-1 #
edge $-1 $495 -75.930661441772116 $349 -69.625511543807704 $344 $496 forward 7 unknown #
edge $-1 $350 101.23389985910605 $495 109.5883053071688 $214 $497 forward 7 unknown #
coedge $-1 $215 $487 $493 $498 forward $348 $-1 #
loop $-1 $-1 $487 $336 #
vertex $-1 $345 $499 #
vertex $-1 $216 $500 #
straight-curve $-1 32.802550666996467 12.586792837934766 9.0475679420705859 -1 0 0 I I #
coedge $-1 $352 $352 $-1 $501 reversed $219 $-1 #
edge $-1 $502 0 $502 6.2831853071796004 $220 $503 forward 7 unknown #
vertex $-1 $223 $504 #
ellipse-curve $-1 52.053661130389166 6.560149139975664 5.8949929930883762 0.75470958851134928 0 0.65605901945558964 0.65605901945558964 0 -0.75470958851134928 1 I I #
coedge $-1 $356 $356 $-1 $505 reversed $226 $-1 #
edge $-1 $506 0 $506 6.2831853071796004 $227 $507 forward 7 unknown #
vertex $-1 $230 $508 #
ellipse-curve $-1 52.053661130389166 10.176135358751125 5.8949929930883762 0.75470958851134928 0 0.65605901945558964 0.65605901945558964 0 -0.75470958851134928 1 I I #
face $-1 $-1 $509 $48 $-1 $510 reversed single #
loop $-1 $-1 $237 $231 #
plane-surface $-1 0 0 9.0475679420705877 0 0 1 1 0 0 forward_v I I I I #
coedge $-1 $511 $512 $513 $514 reversed $232 $-1 #
coedge $-1 $515 $234 $236 $370 forward $145 $-1 #
coedge $-1 $234 $515 $511 $516 forward $145 $-1 #
coedge $-1 $513 $237 $234 $367 forward $361 $-1 #
edge $-1 $373 -5.8299799080462211 $517 7.7013514149227138 $366 $518 forward 7 unknown #
coedge $-1 $519 $520 $235 $369 forward $509 $-1 #
edge $-1 $521 -39.00246483132203 $372 -35.899478811494923 $368 $522 forward 7 unknown #
edge $-1 $373 -4.8273892261263285 $521 -9.439443728910611e-015 $236 $523 forward 7 unknown #
coedge $-1 $237 $513 $519 $524 forward $361 $-1 #
vertex $-1 $238 $525 #
vertex $-1 $238 $526 #
straight-curve $-1 -62.618079168690642 -4.8942941546079748 9.0475679420705859 1 0 0 I I #
coedge $-1 $375 $375 $-1 $527 reversed $241 $-1 #
edge $-1 $528 0 $528 6.2831853071796004 $242 $529 forward 7 unknown #
vertex $-1 $245 $530 #
ellipse-curve $-1 -52.945155323862288 -2.1880278900141832 7.4960749321570335 -0.64278761758704617 0 0.76604443648966558 0.76604443648966558 0 0.64278761758704617 1 I I #
coedge $-1 $379 $379 $-1 $531 reversed $248 $-1 #
edge $-1 $532 0 $532 6.2831853071796004 $249 $533 forward 7 unknown #
vertex $-1 $252 $534 #
ellipse-curve $-1 -52.945155323862288 1.8713715068764998 7.4960749321570335 -0.64278761758704617 0 0.76604443648966558 0.76604443648966558 0 0.64278761758704617 1 I I #
coedge $-1 $383 $383 $-1 $535 reversed $255 $-1 #
edge $-1 $536 0 $536 6.2831853071796004 $256 $537 forward 7 unknown #
vertex $-1 $259 $538 #
ellipse-curve $-1 -52.945155323862288 5.9307709037671827 7.4960749321570335 -0.64278761758704617 0 0.76604443648966558 0.76604443648966558 0 0.64278761758704617 1 I I #
face $-1 $-1 $275 $39 $-1 $539 reversed single #
loop $-1 $-1 $403 $260 #
plane-surface $-1 0 34.491536992487312 0 0 -1 0 0 0 -1 forward_v I I I I #
coedge $-1 $540 $401 $404 $541 forward $261 $-1 #
coedge $-1 $407 $263 $264 $395 reversed $164 $-1 #
coedge $-1 $401 $540 $263 $393 reversed $261 $-1 #
edge $-1 $408 -9.0475679420705877 $542 9.0475679420705877 $392 $543 forward 7 unknown #
coedge $-1 $265 $264 $540 $544 forward $105 $-1 #
edge $-1 $399 -54.794152653584398 $542 54.794152653584398 $391 $545 forward 7 unknown #
coedge $-1 $404 $403 $265 $397 reversed $388 $-1 #
edge $-1 $546 -54.794152653584398 $398 54.794152653584398 $396 $547 forward 7 unknown #
vertex $-1 $267 $548 #
vertex $-1 $410 $549 #
straight-curve $-1 54.794152653584398 0 -9.0475679420705877 0 -1 0 I I #
coedge $-1 $390 $392 $268 $402 reversed $261 $-1 #
edge $-1 $405 -34.491536992487312 $408 34.491536992487312 $401 $550 forward 7 unknown #
coedge $-1 $396 $269 $274 $411 forward $388 $-1 #
coedge $-1 $269 $396 $390 $541 reversed $388 $-1 #
vertex $-1 $270 $551 #
straight-curve $-1 0 34.491536992487312 9.0475679420705877 -1 0 0 I I #
coedge $-1 $271 $391 $273 $410 reversed $164 $-1 #
vertex $-1 $402 $552 #
straight-curve $-1 0 -34.491536992487312 9.0475679420705877 1 0 0 I I #
edge $-1 $276 -9.0475679420705877 $399 9.0475679420705877 $273 $553 forward 7 unknown #
edge $-1 $277 -9.0475679420705877 $398 9.0475679420705877 $274 $554 forward 7 unknown #
point $-1 54.794152653584398 -34.491536992487312 9.0475679420705877 #
point $-1 54.794152653584398 34.491536992487312 9.0475679420705877 #
face $-1 $-1 $424 $40 $-1 $555 reversed single #
loop $-1 $-1 $420 $279 #
plane-surface $-1 0 0 -9.0475679420705877 0 0 1 1 0 0 forward_v I I I I #
coedge $-1 $556 $557 $287 $428 forward $280 $-1 #
coedge $-1 $282 $432 $422 $558 forward $172 $-1 #
edge $-1 $426 -20.142579298453541 $292 -8.555336089614002 $282 $559 forward 7 unknown #
coedge $-1 $560 $288 $283 $421 forward $415 $-1 #
edge $-1 $293 8.555336089614002 $425 20.142579298453541 $420 $561 forward 7 unknown #
coedge $-1 $562 $285 $418 $558 reversed $424 $-1 #
coedge $-1 $285 $562 $560 $563 reversed $424 $-1 #
loop $-1 $-1 $285 $414 #
vertex $-1 $563 $564 #
vertex $-1 $286 $565 #
straight-curve $-1 -49.515820237000348 -34.491536992487312 0 0 0 1 I I #
edge $-1 $433 -9.0475679420705877 $430 9.0475679420705877 $417 $566 forward 7 unknown #
coedge $-1 $288 $560 $556 $567 forward $415 $-1 #
vertex $-1 $289 $568 #
straight-curve $-1 -26.077493222646186 -22.904293783647773 -9.0475679420705877 1 0 0 I I #
coedge $-1 $418 $290 $557 $569 forward $172 $-1 #
vertex $-1 $569 $570 #
straight-curve $-1 -26.077493222646186 -22.904293783647773 9.0475679420705877 -1 0 0 I I #
point $-1 -49.515820237000348 -22.904293783647773 9.0475679420705877 #
point $-1 -49.515820237000348 -22.904293783647773 -9.0475679420705877 #
face $-1 $-1 $571 $41 $-1 $572 reversed single #
loop $-1 $-1 $443 $295 #
plane-surface $-1 0 0 9.0475679420705877 0 0 1 1 0 0 forward_v I I I I #
coedge $-1 $298 $448 $573 $574 forward $180 $-1 #
edge $-1 $575 -20.142579298453541 $446 -8.555336089614002 $298 $576 forward 7 unknown #
coedge $-1 $300 $299 $577 $578 reversed $113 $-1 #
coedge $-1 $579 $305 $300 $444 forward $438 $-1 #
edge $-1 $445 8.555336089614002 $580 20.142579298453541 $443 $581 forward 7 unknown #
vertex $-1 $306 $582 #
vertex $-1 $304 $583 #
straight-curve $-1 -49.515820237000348 22.904293783647773 0 0 0 -1 I I #
coedge $-1 $440 $303 $308 $454 forward $180 $-1 #
straight-curve $-1 -26.077493222646186 22.904293783647773 -9.0475679420705877 -1 0 0 I I #
coedge $-1 $305 $579 $307 $453 forward $438 $-1 #
straight-curve $-1 -26.077493222646186 22.904293783647773 9.0475679420705877 1 0 0 I I #
coedge $-1 $308 $307 $584 $585 forward $296 $-1 #
edge $-1 $586 -34.491536992487312 $310 -22.904293783647773 $307 $587 forward 7 unknown #
edge $-1 $309 22.904293783647773 $588 34.491536992487312 $308 $589 forward 7 unknown #
point $-1 -54.794152653584398 22.904293783647773 -9.0475679420705877 #
point $-1 -54.794152653584398 22.904293783647773 9.0475679420705877 #
plane-surface $-1 0 0 9.0475679420705877 0 0 1 1 0 0 forward_v I I I I #
coedge $-1 $468 $467 $460 $590 forward $313 $-1 #
coedge $-1 $460 $315 $317 $464 reversed $188 $-1 #
coedge $-1 $315 $459 $458 $590 reversed $188 $-1 #
coedge $-1 $323 $318 $315 $462 forward $324 $-1 #
edge $-1 $465 16.510618940197446 $591 21.991601986587931 $461 $592 forward 7 unknown #
coedge $-1 $317 $316 $468 $593 reversed $117 $-1 #
edge $-1 $594 -109.5883053071688 $465 -101.23389985910605 $459 $595 forward 7 unknown #
vertex $-1 $319 $596 #
straight-curve $-1 49.313169607193913 -7.2680757671421894 9.0475679420705788 0 -1 0 I I #
coedge $-1 $458 $320 $323 $472 reversed $313 $-1 #
coedge $-1 $320 $458 $463 $593 forward $313 $-1 #
vertex $-1 $321 $597 #
straight-curve $-1 54.794152653584398 -10.317500945713007 78.67307948587829 0 0 1 I I #
straight-curve $-1 -17.102243470036541 -10.317500945713007 85.449762848135634 0.65605901945558964 0 -0.75470958851134928 I I #
edge $-1 $591 -18.75480212285575 $325 -10.317500945713007 $467 $598 forward 7 unknown #
point $-1 54.794152653584398 -10.317500945713007 9.0475679420705877 #
point $-1 49.313169607193913 -10.317500945713007 9.0475679420705859 #
edge $-1 $599 1 $599 0 $328 $-1 forward 7 unknown #
vertex $-1 $329 $600 #
ellipse-curve $-1 51.29452928042592 -16.344144643672109 5.2350897604995854 0.75470958851134928 0 0.65605901945558964 0.65605901945558964 0 -0.75470958851134928 1 I I #
point $-1 52.709720149844756 -16.344144643672109 5.1402834045770227 #
edge $-1 $601 1 $601 0 $332 $-1 forward 7 unknown #
vertex $-1 $333 $602 #
ellipse-curve $-1 51.29452928042592 -12.728158424896648 5.2350897604995854 0.75470958851134928 0 0.65605901945558964 0.65605901945558964 0 -0.75470958851134928 1 I I #
point $-1 52.709720149844756 -12.728158424896648 5.1402834045770227 #
plane-surface $-1 0 0 9.0475679420705877 0 0 1 1 0 0 forward_v I I I I #
coedge $-1 $494 $493 $486 $603 forward $337 $-1 #
coedge $-1 $486 $339 $341 $490 reversed $210 $-1 #
coedge $-1 $339 $485 $484 $603 reversed $210 $-1 #
coedge $-1 $347 $342 $339 $488 forward $348 $-1 #
edge $-1 $491 16.510618940197446 $604 21.991601986587931 $487 $605 forward 7 unknown #
coedge $-1 $341 $340 $494 $606 reversed $131 $-1 #
edge $-1 $607 -109.5883053071688 $491 -101.23389985910605 $485 $608 forward 7 unknown #
vertex $-1 $343 $609 #
straight-curve $-1 49.313169607193913 4.1840711246816973 9.0475679420705788 0 -1 0 I I #
coedge $-1 $484 $344 $347 $498 reversed $337 $-1 #
coedge $-1 $344 $484 $489 $606 forward $337 $-1 #
vertex $-1 $345 $610 #
straight-curve $-1 54.794152653584398 12.586792837934766 78.67307948587829 0 0 1 I I #
straight-curve $-1 -17.102243470036541 12.586792837934766 85.449762848135634 0.65605901945558964 0 -0.75470958851134928 I I #
edge $-1 $604 4.1494916607920231 $349 12.586792837934766 $493 $611 forward 7 unknown #
point $-1 54.794152653584398 12.586792837934766 9.0475679420705877 #
point $-1 49.313169607193913 12.586792837934766 9.0475679420705859 #
edge $-1 $612 1 $612 0 $352 $-1 forward 7 unknown #
vertex $-1 $353 $613 #
ellipse-curve $-1 51.29452928042592 6.560149139975664 5.2350897604995854 0.75470958851134928 0 0.65605901945558964 0.65605901945558964 0 -0.75470958851134928 1 I I #
point $-1 52.709720149844756 6.560149139975664 5.1402834045770227 #
edge $-1 $614 1 $614 0 $356 $-1 forward 7 unknown #
vertex $-1 $357 $615 #
ellipse-curve $-1 51.29452928042592 10.176135358751125 5.2350897604995854 0.75470958851134928 0 0.65605901945558964 0.65605901945558964 0 -0.75470958851134928 1 I I #
point $-1 52.709720149844756 10.176135358751125 5.1402834045770227 #
loop $-1 $-1 $368 $360 #
plane-surface $-1 -54.794152653584398 0 0 1 0 0 0 0 -1 forward_v I I I I #
coedge $-1 $512 $363 $365 $516 reversed $232 $-1 #
coedge $-1 $363 $511 $616 $617 reversed $232 $-1 #
coedge $-1 $371 $366 $363 $514 forward $361 $-1 #
edge $-1 $517 -11.521921174550464 $618 -7.823926515106244 $513 $619 forward 7 unknown #
coedge $-1 $365 $364 $520 $620 reversed $145 $-1 #
edge $-1 $621 9.439443728910611e-015 $517 4.8273892261263285 $511 $622 forward 7 unknown #
vertex $-1 $367 $623 #
straight-curve $-1 -51.096157994140185 0.93568575343824634 9.0475679420705895 0 1 0 I I #
coedge $-1 $616 $368 $371 $524 reversed $509 $-1 #
coedge $-1 $368 $616 $515 $620 forward $509 $-1 #
vertex $-1 $369 $624 #
straight-curve $-1 -54.794152653584398 -4.8942941546079748 44.947046753565509 0 0 1 I I #
straight-curve $-1 -54.794152653584405 -4.8942941546079748 5.9445819222434721 -0.76604443648966558 0 -0.64278761758704617 I I #
edge $-1 $618 -8.6370371683609601 $372 4.8942941546079748 $519 $625 forward 7 unknown #
point $-1 -54.794152653584398 -4.8942941546079748 9.0475679420705877 #
point $-1 -51.096157994140178 -4.8942941546079748 9.0475679420705877 #
edge $-1 $626 1 $626 0 $375 $-1 forward 7 unknown #
vertex $-1 $376 $627 #
ellipse-curve $-1 -51.21710084120464 -2.1880278900141832 5.4366598373856192 -0.64278761758704617 0 0.76604443648966558 0.76604443648966558 0 0.64278761758704617 1 I I #
point $-1 -52.179110887372616 -2.1880278900141832 8.1388625497440703 #
edge $-1 $628 1 $628 0 $379 $-1 forward 7 unknown #
vertex $-1 $380 $629 #
ellipse-curve $-1 -51.21710084120464 1.8713715068764998 5.4366598373856192 -0.64278761758704617 0 0.76604443648966558 0.76604443648966558 0 0.64278761758704617 1 I I #
point $-1 -52.179110887372616 1.8713715068764998 8.1388625497440703 #
edge $-1 $630 1 $630 0 $383 $-1 forward 7 unknown #
vertex $-1 $384 $631 #
ellipse-curve $-1 -51.21710084120464 5.9307709037671827 5.4366598373856192 -0.64278761758704617 0 0.76604443648966558 0.76604443648966558 0 0.64278761758704617 1 I I #
point $-1 -52.179110887372616 5.9307709037671827 8.1388625497440703 #
plane-surface $-1 54.794152653584398 0 0 -1 0 0 0 0 1 forward_v I I I I #
coedge $-1 $392 $390 $394 $544 reversed $261 $-1 #
edge $-1 $405 -9.0475679420705877 $546 9.0475679420705877 $404 $632 forward 7 unknown #
vertex $-1 $544 $633 #
straight-curve $-1 -54.794152653584398 -34.491536992487312 0 0 0 -1 I I #
edge $-1 $542 -34.491536992487312 $546 34.491536992487312 $540 $634 forward 7 unknown #
straight-curve $-1 0 -34.491536992487312 -9.0475679420705877 -1 0 0 I I #
vertex $-1 $397 $635 #
straight-curve $-1 0 34.491536992487312 -9.0475679420705877 1 0 0 I I #
point $-1 54.794152653584398 34.491536992487312 -9.0475679420705877 #
point $-1 54.794152653584398 -34.491536992487312 -9.0475679420705877 #
straight-curve $-1 -54.794152653584398 0 9.0475679420705877 0 -1 0 I I #
point $-1 -54.794152653584398 34.491536992487312 9.0475679420705877 #
point $-1 -54.794152653584398 -34.491536992487312 9.0475679420705877 #
straight-curve $-1 54.794152653584398 -34.491536992487312 0 0 0 -1 I I #
straight-curve $-1 54.794152653584398 34.491536992487312 0 0 0 -1 I I #
plane-surface $-1 0 -34.491536992487312 0 0 1 0 0 0 1 forward_v I I I I #
coedge $-1 $636 $417 $429 $567 reversed $280 $-1 #
coedge $-1 $417 $636 $432 $569 reversed $280 $-1 #
edge $-1 $637 -54.794152653584398 $426 -49.515820237000348 $422 $638 forward 7 unknown #
straight-curve $-1 -49.515820237000348 -14.348957694033771 9.0475679420705877 0 1 0 I I #
coedge $-1 $429 $420 $423 $563 forward $415 $-1 #
straight-curve $-1 -49.515820237000348 -14.348957694033771 -9.0475679420705877 0 -1 0 I I #
coedge $-1 $423 $422 $636 $639 forward $424 $-1 #
edge $-1 $425 49.515820237000348 $640 54.794152653584398 $423 $641 forward 7 unknown #
point $-1 -49.515820237000348 -34.491536992487312 -9.0475679420705877 #
point $-1 -49.515820237000348 -34.491536992487312 9.0475679420705877 #
straight-curve $-1 -54.794152653584398 -22.904293783647773 0 0 0 -1 I I #
edge $-1 $640 -34.491536992487312 $430 -22.904293783647773 $556 $642 forward 7 unknown #
point $-1 -54.794152653584398 -22.904293783647773 -9.0475679420705877 #
edge $-1 $433 22.904293783647773 $637 34.491536992487312 $557 $643 forward 7 unknown #
point $-1 -54.794152653584398 -22.904293783647773 9.0475679420705877 #
loop $-1 $-1 $577 $437 #
plane-surface $-1 0 34.491536992487312 0 0 -1 0 0 0 -1 forward_v I I I I #
coedge $-1 $584 $577 $440 $574 reversed $571 $-1 #
edge $-1 $588 -54.794152653584398 $575 -49.515820237000348 $573 $644 forward 7 unknown #
vertex $-1 $441 $645 #
straight-curve $-1 -49.515820237000348 14.348957694033771 -9.0475679420705877 0 -1 0 I I #
coedge $-1 $573 $646 $442 $578 forward $571 $-1 #
edge $-1 $580 -9.0475679420705877 $575 9.0475679420705877 $577 $647 forward 7 unknown #
coedge $-1 $450 $443 $646 $648 forward $438 $-1 #
vertex $-1 $648 $649 #
straight-curve $-1 -49.515820237000348 14.348957694033771 9.0475679420705877 0 1 0 I I #
point $-1 -49.515820237000348 22.904293783647773 9.0475679420705877 #
point $-1 -49.515820237000348 22.904293783647773 -9.0475679420705877 #
coedge $-1 $646 $573 $452 $585 reversed $571 $-1 #
edge $-1 $586 -9.0475679420705877 $588 9.0475679420705877 $584 $650 forward 7 unknown #
vertex $-1 $648 $651 #
straight-curve $-1 -54.794152653584398 0 9.0475679420705877 0 -1 0 I I #
vertex $-1 $574 $652 #
straight-curve $-1 -54.794152653584398 0 -9.0475679420705877 0 1 0 I I #
edge $-1 $591 69.625511543807704 $594 75.930661441772116 $458 $653 forward 7 unknown #
vertex $-1 $472 $654 #
straight-curve $-1 32.802550666996467 -18.75480212285575 9.0475679420705859 1 0 0 I I #
edge $-1 $594 -11.486726355713561 $469 -3.049425178570818 $468 $655 forward 7 unknown #
vertex $-1 $593 $656 #
straight-curve $-1 -17.102243470036541 -18.75480212285575 85.449762848135634 -0.65605901945558964 0 0.75470958851134928 I I #
point $-1 49.313169607193913 -18.75480212285575 9.0475679420705859 #
point $-1 54.794152653584405 -10.317500945713007 2.7424180441061736 #
straight-curve $-1 54.794152653584398 0 9.0475679420705877 0 1 0 I I #
vertex $-1 $475 $657 #
point $-1 51.95058829988151 -16.344144643672109 4.4803801719882363 #
vertex $-1 $479 $658 #
point $-1 51.95058829988151 -12.728158424896648 4.4803801719882363 #
edge $-1 $604 69.625511543807704 $607 75.930661441772116 $484 $659 forward 7 unknown #
vertex $-1 $498 $660 #
straight-curve $-1 32.802550666996467 4.1494916607920231 9.0475679420705859 1 0 0 I I #
edge $-1 $607 -0.034579463889674145 $495 8.4027217132530687 $494 $661 forward 7 unknown #
vertex $-1 $606 $662 #
straight-curve $-1 -17.102243470036541 4.1494916607920231 85.449762848135634 -0.65605901945558964 0 0.75470958851134928 I I #
point $-1 49.313169607193913 4.1494916607920231 9.0475679420705859 #
point $-1 54.794152653584405 12.586792837934766 2.7424180441061736 #
straight-curve $-1 54.794152653584398 0 9.0475679420705877 0 1 0 I I #
vertex $-1 $501 $663 #
point $-1 51.95058829988151 6.560149139975664 4.4803801719882363 #
vertex $-1 $505 $664 #
point $-1 51.95058829988151 10.176135358751125 4.4803801719882363 #
coedge $-1 $520 $519 $512 $617 forward $509 $-1 #
edge $-1 $618 35.899478811494923 $621 39.00246483132203 $616 $665 forward 7 unknown #
vertex $-1 $524 $666 #
straight-curve $-1 -62.618079168690642 8.6370371683609601 9.0475679420705859 -1 0 0 I I #
edge $-1 $621 -7.7013514149227138 $521 5.8299799080462211 $520 $667 forward 7 unknown #
vertex $-1 $620 $668 #
straight-curve $-1 -54.794152653584405 8.6370371683609601 5.9445819222434721 0.76604443648966558 0 0.64278761758704617 I I #
point $-1 -51.096157994140178 8.6370371683609601 9.0475679420705877 #
point $-1 -54.794152653584398 -4.8942941546079748 5.9445819222434784 #
straight-curve $-1 -54.794152653584398 0 9.0475679420705877 0 -1 0 I I #
vertex $-1 $527 $669 #
point $-1 -50.451056404714976 -2.1880278900141832 6.0794474549726658 #
vertex $-1 $531 $670 #
point $-1 -50.451056404714976 1.8713715068764998 6.0794474549726658 #
vertex $-1 $535 $671 #
point $-1 -50.451056404714976 5.9307709037671827 6.0794474549726658 #
straight-curve $-1 -54.794152653584398 34.491536992487312 0 0 0 -1 I I #
point $-1 -54.794152653584398 -34.491536992487312 -9.0475679420705877 #
straight-curve $-1 -54.794152653584398 0 -9.0475679420705877 0 1 0 I I #
point $-1 -54.794152653584398 34.491536992487312 -9.0475679420705877 #
coedge $-1 $557 $556 $562 $639 reversed $280 $-1 #
vertex $-1 $569 $672 #
straight-curve $-1 0 -34.491536992487312 9.0475679420705877 1 0 0 I I #
edge $-1 $637 -9.0475679420705877 $640 9.0475679420705877 $636 $673 forward 7 unknown #
vertex $-1 $567 $674 #
straight-curve $-1 0 -34.491536992487312 -9.0475679420705877 -1 0 0 I I #
straight-curve $-1 -54.794152653584398 0 -9.0475679420705877 0 1 0 I I #
straight-curve $-1 -54.794152653584398 0 9.0475679420705877 0 -1 0 I I #
straight-curve $-1 0 34.491536992487312 -9.0475679420705877 1 0 0 I I #
point $-1 -49.515820237000348 34.491536992487312 -9.0475679420705877 #
coedge $-1 $577 $584 $579 $648 reversed $571 $-1 #
straight-curve $-1 -49.515820237000348 34.491536992487312 0 0 0 -1 I I #
edge $-1 $580 49.515820237000348 $586 54.794152653584398 $646 $675 forward 7 unknown #
point $-1 -49.515820237000348 34.491536992487312 9.0475679420705877 #
straight-curve $-1 -54.794152653584398 34.491536992487312 0 0 0 -1 I I #
point $-1 -54.794152653584398 34.491536992487312 9.0475679420705877 #
point $-1 -54.794152653584398 34.491536992487312 -9.0475679420705877 #
straight-curve $-1 54.794152653584398 -18.75480212285575 78.67307948587829 0 0 -1 I I #
point $-1 54.794152653584398 -18.75480212285575 9.0475679420705877 #
straight-curve $-1 54.794152653584391 -7.2680757671421894 2.7424180441061807 0 1 0 I I #
point $-1 54.794152653584405 -18.75480212285575 2.7424180441061736 #
point $-1 50.539819691914573 -16.344144643672109 4.5790307410439954 #
point $-1 50.539819691914573 -12.728158424896648 4.5790307410439954 #
straight-curve $-1 54.794152653584398 4.1494916607920231 78.67307948587829 0 0 -1 I I #
point $-1 54.794152653584398 4.1494916607920231 9.0475679420705877 #
straight-curve $-1 54.794152653584391 4.1840711246816973 2.7424180441061807 0 1 0 I I #
point $-1 54.794152653584405 4.1494916607920231 2.7424180441061736 #
point $-1 50.539819691914573 6.560149139975664 4.5790307410439954 #
point $-1 50.539819691914573 10.176135358751125 4.5790307410439954 #
straight-curve $-1 -54.794152653584398 8.6370371683609601 44.947046753565509 0 0 -1 I I #
point $-1 -54.794152653584398 8.6370371683609601 9.0475679420705877 #
straight-curve $-1 -54.794152653584398 0.93568575343824634 5.9445819222434828 0 -1 0 I I #
point $-1 -54.794152653584398 8.6370371683609601 5.9445819222434784 #
point $-1 -50.574313223617594 -2.1880278900141832 4.6706154008959544 #
point $-1 -50.574313223617594 1.8713715068764998 4.6706154008959544 #
point $-1 -50.574313223617594 5.9307709037671827 4.6706154008959544 #
point $-1 -54.794152653584398 -34.491536992487312 9.0475679420705877 #
straight-curve $-1 -54.794152653584398 -34.491536992487312 0 0 0 -1 I I #
point $-1 -54.794152653584398 -34.491536992487312 -9.0475679420705877 #
straight-curve $-1 0 34.491536992487312 9.0475679420705877 -1 0 0 I I #
End-of-ACIS-data 