500 0 9 0           
7 Unknown 11 ACIS 5.0 NT 24 Thu Mar 25 17:34:53 1999 
-1 9.9999999999999995e-007 1e-010 
body $-1 $9 $-1 $10 #
body $-1 $11 $-1 $12 #
body $-1 $13 $-1 $14 #
body $-1 $15 $-1 $16 #
body $-1 $17 $-1 $18 #
body $-1 $19 $-1 $20 #
body $-1 $21 $-1 $22 #
body $-1 $23 $-1 $24 #
body $-1 $25 $-1 $26 #
lump $-1 $-1 $27 $0 #
transform $-1 1 0 0 0 1 0 0 0 1 65.021515549180577 36.83963854397831 14.762276252754248 1 rotate no_reflect no_shear #
lump $-1 $-1 $28 $1 #
transform $-1 1 0 0 0 1 0 0 0 1 65.021515549180577 36.83963854397831 14.762276252754248 1 rotate no_reflect no_shear #
lump $-1 $-1 $29 $2 #
transform $-1 1 0 0 0 1 0 0 0 1 65.021515549180577 36.83963854397831 14.762276252754248 1 rotate no_reflect no_shear #
lump $-1 $-1 $30 $3 #
transform $-1 1 0 0 0 1 0 0 0 1 65.021515549180577 36.83963854397831 14.762276252754248 1 rotate no_reflect no_shear #
lump $-1 $-1 $31 $4 #
transform $-1 1 0 0 0 1 0 0 0 1 65.021515549180577 36.83963854397831 14.762276252754248 1 rotate no_reflect no_shear #
lump $-1 $-1 $32 $5 #
transform $-1 1 0 0 0 1 0 0 0 1 65.021515549180577 36.83963854397831 14.762276252754248 1 rotate no_reflect no_shear #
lump $-1 $-1 $33 $6 #
transform $-1 1 0 0 0 1 0 0 0 1 65.021515549180577 36.83963854397831 14.762276252754248 1 rotate no_reflect no_shear #
lump $-1 $-1 $34 $7 #
transform $-1 1 0 0 0 1 0 0 0 1 65.021515549180577 36.83963854397831 14.762276252754248 1 rotate no_reflect no_shear #
lump $-1 $-1 $35 $8 #
transform $-1 1 0 0 0 1 0 0 0 1 65.021515549180577 36.83963854397831 14.762276252754248 1 rotate no_reflect no_shear #
shell $-1 $-1 $-1 $36 $-1 $9 #
shell $-1 $-1 $-1 $37 $-1 $11 #
shell $-1 $-1 $-1 $38 $-1 $13 #
shell $-1 $-1 $-1 $39 $-1 $15 #
shell $-1 $-1 $-1 $40 $-1 $17 #
shell $-1 $-1 $-1 $41 $-1 $19 #
shell $-1 $-1 $-1 $42 $-1 $21 #
shell $-1 $-1 $-1 $43 $-1 $23 #
shell $-1 $-1 $-1 $44 $-1 $25 #
face $-1 $45 $46 $27 $-1 $47 forward single #
face $-1 $48 $49 $28 $-1 $50 forward single #
face $-1 $51 $52 $29 $-1 $53 reversed single #
face $-1 $54 $55 $30 $-1 $56 forward single #
face $-1 $57 $58 $31 $-1 $59 reversed single #
face $-1 $60 $61 $32 $-1 $62 forward single #
face $-1 $63 $64 $33 $-1 $65 reversed single #
face $-1 $66 $67 $34 $-1 $68 forward single #
face $-1 $69 $70 $35 $-1 $71 forward single #
face $-1 $72 $73 $27 $-1 $74 reversed single #
loop $-1 $-1 $75 $36 #
plane-surface $-1 0 0 14.762276252754248 0 0 1 1 0 0 forward_v I I I I #
face $-1 $76 $77 $28 $-1 $78 reversed single #
loop $-1 $-1 $79 $37 #
plane-surface $-1 0 -36.83963854397831 0 0 1 0 0 0 1 forward_v I I I I #
face $-1 $80 $81 $29 $-1 $82 reversed single #
loop $-1 $-1 $83 $38 #
plane-surface $-1 45.797832138763425 7.2406471376793853 191.91553061271975 0 -1 0 -0.62932039886446345 0 -0.77714595512881146 forward_v I I I I #
face $-1 $84 $85 $30 $-1 $86 forward single #
loop $-1 $87 $88 $39 #
cone-surface $-1 59.333638845866481 2.3907577321450049 9.2470720990513922 -0.62932039886446345 0 -0.77714595512881146 1.5542919102576229 0 -1.2586407977289269 1 I I 0 1 2 forward I I I I #
face $-1 $89 $90 $31 $-1 $91 reversed single #
loop $-1 $-1 $92 $40 #
plane-surface $-1 45.797832138763425 27.139859732909546 191.91553061271975 0 1 0 0.62932039886446345 0 0.77714595512881146 forward_v I I I I #
face $-1 $93 $94 $32 $-1 $95 forward single #
loop $-1 $96 $97 $41 #
cone-surface $-1 59.333638845866481 31.989749138443926 9.2470720990513922 -0.62932039886446345 0 -0.77714595512881146 1.5542919102576229 0 -1.2586407977289269 1 I I 0 1 2 forward I I I I #
face $-1 $98 $99 $33 $-1 $100 reversed single #
loop $-1 $-1 $101 $42 #
plane-surface $-1 -143.28336631118606 -22.358344268619543 104.54153205733232 0 1 0 -0.6018150307709319 0 0.79863550430605224 forward_v I I I I #
face $-1 $102 $103 $34 $-1 $104 forward single #
loop $-1 $105 $106 $43 #
cone-surface $-1 -54.813298789597766 -19.257041703305109 6.5724271265725775 0.6018150307709319 0 -0.79863550430605224 0.79863550430605224 0 0.6018150307709319 1 I I 0 1 1 forward I I I I #
face $-1 $107 $108 $35 $-1 $109 forward single #
loop $-1 $110 $111 $44 #
cone-surface $-1 -54.813298789597766 -14.605087855333458 6.5724271265725775 0.6018150307709319 0 -0.79863550430605224 0.79863550430605224 0 0.6018150307709319 1 I I 0 1 1 forward I I I I #
face $-1 $112 $113 $27 $-1 $114 reversed single #
loop $-1 $-1 $115 $45 #
plane-surface $-1 0 0 -14.762276252754248 0 0 1 1 0 0 forward_v I I I I #
coedge $-1 $116 $117 $118 $119 forward $46 $-1 #
face $-1 $120 $121 $28 $-1 $122 reversed single #
loop $-1 $-1 $123 $48 #
plane-surface $-1 0 0 -14.762276252754248 0 0 1 1 0 0 forward_v I I I I #
coedge $-1 $124 $125 $126 $127 forward $49 $-1 #
face $-1 $128 $129 $29 $-1 $130 reversed single #
loop $-1 $-1 $131 $51 #
plane-surface $-1 -36.040900061601036 2.3907577321450049 90.853115001938136 0.62932039886446345 0 0.77714595512881146 0.77714595512881146 0 -0.62932039886446345 forward_v I I I I #
coedge $-1 $132 $133 $134 $135 reversed $52 $-1 #
face $-1 $-1 $136 $30 $-1 $137 forward single #
loop $-1 $138 $139 $54 #
cone-surface $-1 56.565470310183201 2.3907577321450049 5.8286687158099966 -0.62932039886446345 0 -0.77714595512881146 0.77714595512881146 0 -0.62932039886446345 1 I I -0.70710678118654779 0.70710678118654713 1 forward I I I I #
loop $-1 $-1 $140 $39 #
coedge $-1 $88 $88 $141 $142 reversed $55 $-1 #
face $-1 $143 $144 $31 $-1 $145 reversed single #
loop $-1 $-1 $146 $57 #
plane-surface $-1 -36.040900061601036 31.989749138443926 90.853115001938136 0.62932039886446345 0 0.77714595512881146 0.77714595512881146 0 -0.62932039886446345 forward_v I I I I #
coedge $-1 $147 $148 $149 $150 reversed $58 $-1 #
face $-1 $-1 $151 $32 $-1 $152 forward single #
loop $-1 $153 $154 $60 #
cone-surface $-1 56.565470310183201 31.989749138443926 5.8286687158099966 -0.62932039886446345 0 -0.77714595512881146 0.77714595512881146 0 -0.62932039886446345 1 I I -0.70710678118654779 0.70710678118654713 1 forward I I I I #
loop $-1 $-1 $155 $41 #
coedge $-1 $97 $97 $156 $157 reversed $61 $-1 #
face $-1 $158 $159 $33 $-1 $160 reversed single #
loop $-1 $-1 $161 $63 #
plane-surface $-1 -65.021515549180592 -16.931064779319282 0.68455033460502079 -0.6018150307709319 0 0.79863550430605224 0.79863550430605224 0 0.6018150307709319 forward_v I I I I #
coedge $-1 $162 $163 $164 $165 reversed $64 $-1 #
face $-1 $-1 $166 $34 $-1 $167 forward single #
loop $-1 $168 $169 $66 #
cone-surface $-1 -53.64506096916115 -19.257041703305109 5.0221232073124966 0.6018150307709319 0 -0.79863550430605224 0.39931775215302612 0 0.30090751538546595 1 I I -0.70710678118654746 0.70710678118654746 0.5 forward I I I I #
loop $-1 $-1 $170 $43 #
coedge $-1 $106 $106 $171 $172 reversed $67 $-1 #
face $-1 $-1 $173 $35 $-1 $174 forward single #
loop $-1 $175 $176 $69 #
cone-surface $-1 -53.64506096916115 -14.605087855333458 5.0221232073124966 0.6018150307709319 0 -0.79863550430605224 0.39931775215302612 0 0.30090751538546595 1 I I -0.70710678118654746 0.70710678118654746 0.5 forward I I I I #
loop $-1 $-1 $177 $44 #
coedge $-1 $111 $111 $178 $179 reversed $70 $-1 #
face $-1 $180 $181 $27 $-1 $182 reversed single #
loop $-1 $-1 $183 $72 #
plane-surface $-1 0 -36.83963854397831 0 0 1 0 0 0 1 forward_v I I I I #
coedge $-1 $184 $185 $186 $187 forward $73 $-1 #
coedge $-1 $188 $75 $189 $190 forward $46 $-1 #
coedge $-1 $75 $188 $191 $192 forward $46 $-1 #
coedge $-1 $193 $194 $75 $119 reversed $195 $-1 #
edge $-1 $196 -36.83963854397831 $197 36.83963854397831 $118 $198 forward 7 unknown #
face $-1 $199 $200 $28 $-1 $201 forward single #
loop $-1 $-1 $202 $76 #
plane-surface $-1 65.021515549180577 0 0 -1 0 0 0 0 1 forward_v I I I I #
coedge $-1 $203 $204 $205 $206 forward $77 $-1 #
coedge $-1 $205 $79 $202 $207 reversed $49 $-1 #
coedge $-1 $79 $205 $208 $209 reversed $49 $-1 #
coedge $-1 $210 $211 $79 $127 reversed $200 $-1 #
edge $-1 $212 -65.021515549180577 $213 65.021515549180577 $126 $214 forward 7 unknown #
face $-1 $215 $216 $29 $-1 $217 reversed single #
loop $-1 $-1 $218 $80 #
plane-surface $-1 45.797832138763425 -2.4591316733893755 191.91553061271975 0 1 0 0.62932039886446345 0 0.77714595512881146 forward_v I I I I #
coedge $-1 $219 $220 $221 $222 reversed $81 $-1 #
coedge $-1 $133 $83 $223 $224 reversed $52 $-1 #
coedge $-1 $83 $132 $219 $225 reversed $52 $-1 #
coedge $-1 $221 $226 $83 $135 forward $227 $-1 #
edge $-1 $228 -42.122599479798865 $229 -35.024542346808303 $134 $230 forward 7 unknown #
loop $-1 $-1 $141 $84 #
plane-surface $-1 -36.040900061601036 2.3907577321450049 90.853115001938136 0.62932039886446345 0 0.77714595512881146 0.77714595512881146 0 -0.62932039886446345 forward_v I I I I #
loop $-1 $-1 $231 $54 #
coedge $-1 $139 $139 $140 $232 reversed $85 $-1 #
coedge $-1 $140 $140 $139 $232 forward $87 $-1 #
coedge $-1 $141 $141 $88 $142 forward $136 $-1 #
edge $-1 $233 0 $233 6.2831853071796004 $141 $234 forward 7 unknown #
face $-1 $235 $236 $31 $-1 $237 forward single #
loop $-1 $-1 $149 $89 #
plane-surface $-1 65.021515549180577 0 0 -1 0 0 0 0 1 forward_v I I I I #
coedge $-1 $238 $239 $240 $241 reversed $90 $-1 #
coedge $-1 $148 $92 $242 $243 reversed $58 $-1 #
coedge $-1 $92 $147 $238 $244 reversed $58 $-1 #
coedge $-1 $240 $245 $92 $150 forward $144 $-1 #
edge $-1 $246 81.195489053605627 $247 86.9433825047862 $149 $248 forward 7 unknown #
loop $-1 $-1 $156 $93 #
plane-surface $-1 -36.040900061601036 31.989749138443926 90.853115001938136 0.62932039886446345 0 0.77714595512881146 0.77714595512881146 0 -0.62932039886446345 forward_v I I I I #
loop $-1 $-1 $249 $60 #
coedge $-1 $154 $154 $155 $250 reversed $94 $-1 #
coedge $-1 $155 $155 $154 $250 forward $96 $-1 #
coedge $-1 $156 $156 $97 $157 forward $151 $-1 #
edge $-1 $251 0 $251 6.2831853071796004 $156 $252 forward 7 unknown #
face $-1 $253 $254 $33 $-1 $255 reversed single #
loop $-1 $-1 $256 $98 #
plane-surface $-1 -143.28336631118606 -11.503785290019021 104.54153205733232 0 -1 0 0.6018150307709319 0 -0.79863550430605224 forward_v I I I I #
coedge $-1 $257 $258 $259 $260 reversed $99 $-1 #
coedge $-1 $163 $101 $261 $262 reversed $64 $-1 #
coedge $-1 $101 $162 $257 $263 reversed $64 $-1 #
coedge $-1 $259 $264 $101 $165 forward $265 $-1 #
edge $-1 $266 6.6201676064124513 $267 25.301940515475735 $164 $268 forward 7 unknown #
loop $-1 $-1 $171 $102 #
plane-surface $-1 -65.021515549180592 -16.931064779319282 0.68455033460502079 -0.6018150307709319 0 0.79863550430605224 0.79863550430605224 0 0.6018150307709319 forward_v I I I I #
loop $-1 $-1 $269 $66 #
coedge $-1 $169 $169 $170 $270 reversed $103 $-1 #
coedge $-1 $170 $170 $169 $270 forward $105 $-1 #
coedge $-1 $171 $171 $106 $172 forward $166 $-1 #
edge $-1 $271 0 $271 6.2831853071796004 $171 $272 forward 7 unknown #
loop $-1 $-1 $178 $107 #
plane-surface $-1 -65.021515549180592 -16.931064779319282 0.68455033460502079 -0.6018150307709319 0 0.79863550430605224 0.79863550430605224 0 0.6018150307709319 forward_v I I I I #
loop $-1 $-1 $273 $69 #
coedge $-1 $176 $176 $177 $274 reversed $108 $-1 #
coedge $-1 $177 $177 $176 $274 forward $110 $-1 #
coedge $-1 $178 $178 $111 $179 forward $173 $-1 #
edge $-1 $275 0 $275 6.2831853071796004 $178 $276 forward 7 unknown #
face $-1 $277 $278 $27 $-1 $279 reversed single #
loop $-1 $-1 $280 $112 #
plane-surface $-1 -65.021515549180577 0 0 1 0 0 0 0 -1 forward_v I I I I #
coedge $-1 $281 $191 $282 $283 forward $113 $-1 #
coedge $-1 $284 $115 $281 $285 forward $73 $-1 #
coedge $-1 $115 $284 $286 $287 forward $73 $-1 #
coedge $-1 $194 $193 $115 $187 reversed $195 $-1 #
edge $-1 $288 -36.83963854397831 $289 36.83963854397831 $186 $290 forward 7 unknown #
coedge $-1 $117 $116 $291 $292 forward $46 $-1 #
coedge $-1 $293 $294 $116 $190 reversed $278 $-1 #
edge $-1 $197 -65.021515549180577 $295 65.021515549180577 $189 $296 forward 7 unknown #
coedge $-1 $183 $297 $117 $192 reversed $113 $-1 #
edge $-1 $298 -65.021515549180577 $196 65.021515549180577 $191 $299 forward 7 unknown #
coedge $-1 $186 $118 $297 $300 forward $195 $-1 #
coedge $-1 $118 $186 $293 $301 reversed $195 $-1 #
loop $-1 $-1 $193 $277 #
vertex $-1 $119 $302 #
vertex $-1 $119 $303 #
straight-curve $-1 65.021515549180577 0 14.762276252754248 0 1 0 I I #
face $-1 $304 $305 $28 $-1 $306 reversed single #
loop $-1 $-1 $211 $120 #
plane-surface $-1 0 -44.080285681657692 -6.8180298440101845 0 0 1 1 0 0 forward_v I I I I #
coedge $-1 $307 $308 $124 $207 forward $121 $-1 #
coedge $-1 $309 $123 $308 $310 forward $77 $-1 #
coedge $-1 $123 $309 $311 $312 forward $77 $-1 #
coedge $-1 $125 $124 $123 $206 reversed $49 $-1 #
edge $-1 $313 -65.021515549180577 $314 65.021515549180577 $123 $315 forward 7 unknown #
edge $-1 $314 -14.762276252754248 $213 -6.8180298440101845 $202 $316 forward 7 unknown #
coedge $-1 $311 $317 $125 $209 forward $318 $-1 #
edge $-1 $212 6.8180298440101845 $313 14.762276252754248 $208 $319 forward 7 unknown #
coedge $-1 $320 $126 $317 $321 forward $200 $-1 #
coedge $-1 $126 $320 $307 $322 forward $200 $-1 #
vertex $-1 $209 $323 #
vertex $-1 $322 $324 #
straight-curve $-1 0 -36.83963854397831 -6.8180298440101845 1 0 0 I I #
face $-1 $-1 $227 $29 $-1 $325 forward single #
loop $-1 $-1 $326 $128 #
plane-surface $-1 65.021515549180577 0 0 -1 0 0 0 0 1 forward_v I I I I #
coedge $-1 $327 $328 $329 $330 reversed $129 $-1 #
coedge $-1 $331 $131 $133 $225 forward $81 $-1 #
coedge $-1 $131 $331 $327 $332 forward $81 $-1 #
coedge $-1 $329 $134 $131 $222 forward $227 $-1 #
edge $-1 $229 -6.0452682716068828 $333 3.654510539461878 $221 $334 forward 7 unknown #
coedge $-1 $335 $336 $132 $224 forward $216 $-1 #
edge $-1 $337 -86.9433825047862 $228 -81.195489053605627 $223 $338 forward 7 unknown #
edge $-1 $229 120.90953810885694 $337 130.04303109836115 $133 $339 forward 7 unknown #
coedge $-1 $134 $329 $335 $340 forward $227 $-1 #
loop $-1 $-1 $329 $215 #
vertex $-1 $224 $341 #
vertex $-1 $135 $342 #
straight-curve $-1 22.898916069381713 7.2406471376793853 14.762276252754248 -1 0 0 I I #
coedge $-1 $231 $231 $-1 $343 reversed $138 $-1 #
edge $-1 $344 0 $344 6.2831853071796004 $139 $345 forward 7 unknown #
vertex $-1 $142 $346 #
ellipse-curve $-1 61.472486982685282 2.3907577321450049 11.888329527163959 0.62932039886446345 0 0.77714595512881146 1.5542919102576229 0 -1.2586407977289269 1 I I #
face $-1 $-1 $347 $31 $-1 $348 reversed single #
loop $-1 $-1 $242 $143 #
plane-surface $-1 0 0 14.762276252754248 0 0 1 1 0 0 forward_v I I I I #
coedge $-1 $349 $146 $148 $244 forward $90 $-1 #
coedge $-1 $146 $349 $350 $351 reversed $90 $-1 #
coedge $-1 $352 $149 $146 $241 forward $144 $-1 #
edge $-1 $247 11.144985163687583 $353 20.844763974756347 $240 $354 forward 7 unknown #
coedge $-1 $355 $356 $147 $243 forward $236 $-1 #
edge $-1 $357 35.024542346808303 $246 42.122599479798865 $242 $358 forward 7 unknown #
edge $-1 $247 -130.04303109836115 $357 -120.90953810885694 $148 $359 forward 7 unknown #
coedge $-1 $149 $352 $355 $360 reversed $144 $-1 #
vertex $-1 $360 $361 #
vertex $-1 $150 $362 #
straight-curve $-1 65.021515549180577 27.139859732909546 95.957765306359875 0 0 -1 I I #
coedge $-1 $249 $249 $-1 $363 reversed $153 $-1 #
edge $-1 $364 0 $364 6.2831853071796004 $154 $365 forward 7 unknown #
vertex $-1 $157 $366 #
ellipse-curve $-1 61.472486982685282 31.989749138443926 11.888329527163959 0.62932039886446345 0 0.77714595512881146 1.5542919102576229 0 -1.2586407977289269 1 I I #
face $-1 $-1 $265 $33 $-1 $367 forward single #
loop $-1 $-1 $368 $158 #
plane-surface $-1 -65.021515549180577 0 0 1 0 0 0 0 -1 forward_v I I I I #
coedge $-1 $369 $370 $371 $372 reversed $159 $-1 #
coedge $-1 $373 $161 $163 $263 forward $99 $-1 #
coedge $-1 $161 $373 $369 $374 forward $99 $-1 #
coedge $-1 $371 $164 $161 $260 forward $265 $-1 #
edge $-1 $267 -13.892811878959902 $375 -3.0382529003593799 $259 $376 forward 7 unknown #
coedge $-1 $377 $378 $162 $262 forward $254 $-1 #
edge $-1 $379 -51.586215694061124 $266 -37.508489775911912 $261 $380 forward 7 unknown #
edge $-1 $267 -23.392114185176631 $379 -1.7763522597878294e-014 $163 $381 forward 7 unknown #
coedge $-1 $164 $371 $377 $382 forward $265 $-1 #
loop $-1 $-1 $371 $253 #
vertex $-1 $262 $383 #
vertex $-1 $165 $384 #
straight-curve $-1 -71.641683155593029 -22.358344268619543 14.762276252754248 1 0 0 I I #
coedge $-1 $269 $269 $-1 $385 reversed $168 $-1 #
edge $-1 $386 0 $386 6.2831853071796004 $169 $387 forward 7 unknown #
vertex $-1 $172 $388 #
ellipse-curve $-1 -55.680629094648928 -19.257041703305109 7.7234132936796458 -0.6018150307709319 0 0.79863550430605224 0.79863550430605224 0 0.6018150307709319 1 I I #
coedge $-1 $273 $273 $-1 $389 reversed $175 $-1 #
edge $-1 $390 0 $390 6.2831853071796004 $176 $391 forward 7 unknown #
vertex $-1 $179 $392 #
ellipse-curve $-1 -55.680629094648928 -14.605087855333458 7.7234132936796458 -0.6018150307709319 0 0.79863550430605224 0.79863550430605224 0 0.6018150307709319 1 I I #
face $-1 $-1 $195 $27 $-1 $393 reversed single #
loop $-1 $-1 $293 $180 #
plane-surface $-1 0 36.83963854397831 0 0 -1 0 0 0 -1 forward_v I I I I #
coedge $-1 $394 $291 $294 $395 forward $181 $-1 #
coedge $-1 $297 $183 $184 $285 reversed $113 $-1 #
coedge $-1 $291 $394 $183 $283 reversed $181 $-1 #
edge $-1 $298 -14.762276252754248 $396 14.762276252754248 $282 $397 forward 7 unknown #
coedge $-1 $185 $184 $394 $398 forward $73 $-1 #
edge $-1 $289 -65.021515549180577 $396 65.021515549180577 $281 $399 forward 7 unknown #
coedge $-1 $294 $293 $185 $287 reversed $278 $-1 #
edge $-1 $400 -65.021515549180577 $288 65.021515549180577 $286 $401 forward 7 unknown #
vertex $-1 $187 $402 #
vertex $-1 $300 $403 #
straight-curve $-1 65.021515549180577 0 -14.762276252754248 0 -1 0 I I #
coedge $-1 $280 $282 $188 $292 reversed $181 $-1 #
edge $-1 $295 -36.83963854397831 $298 36.83963854397831 $291 $404 forward 7 unknown #
coedge $-1 $286 $189 $194 $301 forward $278 $-1 #
coedge $-1 $189 $286 $280 $395 reversed $278 $-1 #
vertex $-1 $190 $405 #
straight-curve $-1 0 36.83963854397831 14.762276252754248 -1 0 0 I I #
coedge $-1 $191 $281 $193 $300 reversed $113 $-1 #
vertex $-1 $292 $406 #
straight-curve $-1 0 -36.83963854397831 14.762276252754248 1 0 0 I I #
edge $-1 $196 -14.762276252754248 $289 14.762276252754248 $193 $407 forward 7 unknown #
edge $-1 $197 -14.762276252754248 $288 14.762276252754248 $194 $408 forward 7 unknown #
point $-1 65.021515549180577 -36.83963854397831 14.762276252754248 #
point $-1 65.021515549180577 36.83963854397831 14.762276252754248 #
face $-1 $-1 $318 $28 $-1 $409 reversed single #
loop $-1 $-1 $410 $199 #
plane-surface $-1 0 -51.320932819337074 -10.790153048382216 0 1 0 0 0 1 forward_v I I I I #
coedge $-1 $411 $202 $211 $322 reversed $121 $-1 #
coedge $-1 $202 $411 $203 $310 reversed $121 $-1 #
coedge $-1 $204 $203 $412 $413 forward $77 $-1 #
edge $-1 $314 36.83963854397831 $414 51.320932819337074 $308 $415 forward 7 unknown #
coedge $-1 $416 $208 $204 $312 reversed $318 $-1 #
edge $-1 $417 -51.320932819337074 $313 -36.83963854397831 $311 $418 forward 7 unknown #
vertex $-1 $209 $419 #
vertex $-1 $310 $420 #
straight-curve $-1 0 -36.83963854397831 -14.762276252754248 1 0 0 I I #
straight-curve $-1 65.021515549180577 -36.83963854397831 0 0 0 1 I I #
coedge $-1 $208 $416 $210 $321 reversed $318 $-1 #
loop $-1 $-1 $208 $304 #
straight-curve $-1 -65.021515549180577 -36.83963854397831 0 0 0 -1 I I #
coedge $-1 $211 $210 $421 $422 forward $200 $-1 #
edge $-1 $212 -7.2406471376793817 $423 7.2406471376793817 $317 $424 forward 7 unknown #
edge $-1 $425 -7.2406471376793817 $213 7.2406471376793817 $307 $426 forward 7 unknown #
point $-1 -65.021515549180577 -36.83963854397831 -6.8180298440101845 #
point $-1 65.021515549180577 -36.83963854397831 -6.8180298440101845 #
plane-surface $-1 0 0 14.762276252754248 0 0 1 1 0 0 forward_v I I I I #
coedge $-1 $336 $335 $328 $427 forward $216 $-1 #
coedge $-1 $328 $218 $220 $332 reversed $129 $-1 #
coedge $-1 $218 $327 $326 $427 reversed $129 $-1 #
coedge $-1 $226 $221 $218 $330 forward $227 $-1 #
edge $-1 $333 35.024542346808303 $428 42.122599479798865 $329 $429 forward 7 unknown #
coedge $-1 $220 $219 $336 $430 reversed $81 $-1 #
edge $-1 $431 -130.04303109836115 $333 -120.90953810885694 $327 $432 forward 7 unknown #
vertex $-1 $222 $433 #
straight-curve $-1 57.92345841619003 1.1953788660725024 14.762276252754248 0 -1 0 I I #
coedge $-1 $326 $223 $226 $340 reversed $216 $-1 #
coedge $-1 $223 $326 $331 $430 forward $216 $-1 #
vertex $-1 $224 $434 #
straight-curve $-1 65.021515549180577 7.2406471376793853 95.957765306359875 0 0 1 I I #
straight-curve $-1 -36.040900061601036 7.2406471376793853 90.853115001938136 0.77714595512881146 0 -0.62932039886446345 I I #
edge $-1 $428 -2.4591316733893755 $228 7.2406471376793853 $335 $435 forward 7 unknown #
point $-1 65.021515549180577 7.2406471376793853 14.762276252754248 #
point $-1 57.923458416190016 7.2406471376793853 14.762276252754248 #
edge $-1 $436 1 $436 0 $231 $-1 forward 7 unknown #
vertex $-1 $232 $437 #
ellipse-curve $-1 57.194790709047666 2.3907577321450049 6.6058146709388073 0.62932039886446345 0 0.77714595512881146 1.5542919102576229 0 -1.2586407977289269 1 I I #
point $-1 63.026778892942922 2.3907577321450049 10.629688729435047 #
loop $-1 $-1 $350 $235 #
plane-surface $-1 0 36.83963854397831 0 0 -1 0 0 0 -1 forward_v I I I I #
coedge $-1 $239 $238 $356 $438 reversed $90 $-1 #
coedge $-1 $439 $440 $239 $351 forward $347 $-1 #
edge $-1 $353 -87.450651961774327 $441 -78.317158972270107 $350 $442 forward 7 unknown #
coedge $-1 $245 $240 $440 $443 reversed $144 $-1 #
vertex $-1 $241 $444 #
straight-curve $-1 65.021515549180577 15.994874569221963 9.0143828015736673 0 1 0 I I #
coedge $-1 $445 $242 $245 $360 forward $236 $-1 #
coedge $-1 $242 $445 $349 $438 forward $236 $-1 #
vertex $-1 $243 $446 #
straight-curve $-1 22.898916069381713 27.139859732909546 14.762276252754248 1 0 0 I I #
straight-curve $-1 -36.040900061601036 27.139859732909546 90.853115001938136 -0.77714595512881146 0 0.62932039886446345 I I #
edge $-1 $246 27.139859732909546 $447 36.83963854397831 $245 $448 forward 7 unknown #
point $-1 65.021515549180577 27.139859732909546 14.762276252754248 #
point $-1 65.021515549180577 27.139859732909546 9.0143828015736744 #
edge $-1 $449 1 $449 0 $249 $-1 forward 7 unknown #
vertex $-1 $250 $450 #
ellipse-curve $-1 57.194790709047666 31.989749138443926 6.6058146709388073 0.62932039886446345 0 0.77714595512881146 1.5542919102576229 0 -1.2586407977289269 1 I I #
point $-1 63.026778892942922 31.989749138443926 10.629688729435047 #
plane-surface $-1 0 0 14.762276252754248 0 0 1 1 0 0 forward_v I I I I #
coedge $-1 $378 $377 $370 $451 forward $254 $-1 #
coedge $-1 $370 $256 $258 $374 reversed $159 $-1 #
coedge $-1 $256 $369 $368 $451 reversed $159 $-1 #
coedge $-1 $264 $259 $256 $372 forward $265 $-1 #
edge $-1 $375 -25.301940515475735 $452 -6.6201676064124513 $371 $453 forward 7 unknown #
coedge $-1 $258 $257 $378 $454 reversed $99 $-1 #
edge $-1 $455 1.7763522597878294e-014 $375 23.392114185176631 $369 $456 forward 7 unknown #
vertex $-1 $260 $457 #
straight-curve $-1 -46.339742640117294 -8.4655323896596411 14.762276252754248 0 1 0 I I #
coedge $-1 $368 $261 $264 $382 reversed $254 $-1 #
coedge $-1 $261 $368 $373 $454 forward $254 $-1 #
vertex $-1 $262 $458 #
straight-curve $-1 -65.021515549180577 -22.358344268619543 52.270766028666159 0 0 1 I I #
straight-curve $-1 -65.021515549180592 -22.358344268619543 0.68455033460502079 -0.79863550430605224 0 -0.6018150307709319 I I #
edge $-1 $452 11.503785290019021 $266 22.358344268619543 $377 $459 forward 7 unknown #
point $-1 -65.021515549180577 -22.358344268619543 14.762276252754248 #
point $-1 -46.339742640117294 -22.358344268619543 14.762276252754248 #
edge $-1 $460 1 $460 0 $269 $-1 forward 7 unknown #
vertex $-1 $270 $461 #
ellipse-curve $-1 -53.945968484546619 -19.257041703305109 5.4214409594655226 -0.6018150307709319 0 0.79863550430605224 0.79863550430605224 0 0.6018150307709319 1 I I #
point $-1 -54.881993590342866 -19.257041703305109 8.3252283244505634 #
edge $-1 $462 1 $462 0 $273 $-1 forward 7 unknown #
vertex $-1 $274 $463 #
ellipse-curve $-1 -53.945968484546619 -14.605087855333458 5.4214409594655226 -0.6018150307709319 0 0.79863550430605224 0.79863550430605224 0 0.6018150307709319 1 I I #
point $-1 -54.881993590342866 -14.605087855333458 8.3252283244505634 #
plane-surface $-1 65.021515549180577 0 0 -1 0 0 0 0 1 forward_v I I I I #
coedge $-1 $282 $280 $284 $398 reversed $181 $-1 #
edge $-1 $295 -14.762276252754248 $400 14.762276252754248 $294 $464 forward 7 unknown #
vertex $-1 $398 $465 #
straight-curve $-1 -65.021515549180577 -36.83963854397831 0 0 0 -1 I I #
edge $-1 $396 -36.83963854397831 $400 36.83963854397831 $394 $466 forward 7 unknown #
straight-curve $-1 0 -36.83963854397831 -14.762276252754248 -1 0 0 I I #
vertex $-1 $287 $467 #
straight-curve $-1 0 36.83963854397831 -14.762276252754248 1 0 0 I I #
point $-1 65.021515549180577 36.83963854397831 -14.762276252754248 #
point $-1 65.021515549180577 -36.83963854397831 -14.762276252754248 #
straight-curve $-1 -65.021515549180577 0 14.762276252754248 0 -1 0 I I #
point $-1 -65.021515549180577 36.83963854397831 14.762276252754248 #
point $-1 -65.021515549180577 -36.83963854397831 14.762276252754248 #
straight-curve $-1 65.021515549180577 -36.83963854397831 0 0 0 -1 I I #
straight-curve $-1 65.021515549180577 36.83963854397831 0 0 0 -1 I I #
plane-surface $-1 -65.021515549180577 0 0 1 0 0 0 0 -1 forward_v I I I I #
coedge $-1 $412 $421 $416 $468 forward $305 $-1 #
coedge $-1 $308 $307 $469 $470 forward $121 $-1 #
coedge $-1 $469 $410 $309 $413 reversed $305 $-1 #
edge $-1 $414 -65.021515549180577 $417 65.021515549180577 $412 $471 forward 7 unknown #
vertex $-1 $470 $472 #
straight-curve $-1 65.021515549180577 0 -14.762276252754248 0 -1 0 I I #
coedge $-1 $317 $311 $410 $468 reversed $318 $-1 #
vertex $-1 $312 $473 #
straight-curve $-1 -65.021515549180577 0 -14.762276252754248 0 1 0 I I #
point $-1 -65.021515549180577 -36.83963854397831 -14.762276252754248 #
point $-1 65.021515549180577 -36.83963854397831 -14.762276252754248 #
coedge $-1 $410 $469 $320 $422 reversed $305 $-1 #
edge $-1 $423 -65.021515549180577 $425 65.021515549180577 $421 $474 forward 7 unknown #
vertex $-1 $321 $475 #
straight-curve $-1 -65.021515549180577 -44.080285681657692 -6.8180298440101845 0 -1 0 I I #
vertex $-1 $322 $476 #
straight-curve $-1 65.021515549180577 -44.080285681657692 -6.8180298440101845 0 1 0 I I #
edge $-1 $428 81.195489053605627 $431 86.9433825047862 $326 $477 forward 7 unknown #
vertex $-1 $340 $478 #
straight-curve $-1 22.898916069381713 -2.4591316733893755 14.762276252754248 1 0 0 I I #
edge $-1 $431 -3.654510539461878 $337 6.0452682716068828 $336 $479 forward 7 unknown #
vertex $-1 $430 $480 #
straight-curve $-1 -36.040900061601036 -2.4591316733893755 90.853115001938136 -0.77714595512881146 0 0.62932039886446345 I I #
point $-1 57.923458416190016 -2.4591316733893755 14.762276252754248 #
point $-1 65.021515549180577 7.2406471376793853 9.0143828015736744 #
straight-curve $-1 65.021515549180577 0 14.762276252754248 0 1 0 I I #
vertex $-1 $343 $481 #
point $-1 58.749082619305284 2.3907577321450049 5.3471738732098801 #
edge $-1 $441 -20.844763974756347 $357 -11.144985163687583 $356 $482 forward 7 unknown #
coedge $-1 $440 $350 $445 $483 reversed $347 $-1 #
coedge $-1 $350 $439 $352 $443 forward $347 $-1 #
vertex $-1 $351 $484 #
straight-curve $-1 -2.9404048962898059 36.83963854397831 64.04886197511486 -0.77714595512881146 0 0.62932039886446345 I I #
edge $-1 $447 -14.762276252754248 $353 -9.0143828015736691 $352 $485 forward 7 unknown #
point $-1 65.021515549180577 36.83963854397831 9.0143828015736691 #
coedge $-1 $356 $355 $439 $483 forward $236 $-1 #
point $-1 57.923458416190016 27.139859732909546 14.762276252754248 #
vertex $-1 $360 $486 #
straight-curve $-1 65.021515549180577 0 14.762276252754248 0 1 0 I I #
vertex $-1 $363 $487 #
point $-1 58.749082619305284 31.989749138443926 5.3471738732098801 #
edge $-1 $452 37.508489775911912 $455 51.586215694061124 $368 $488 forward 7 unknown #
vertex $-1 $382 $489 #
straight-curve $-1 -71.641683155593029 -11.503785290019021 14.762276252754248 -1 0 0 I I #
edge $-1 $455 3.0382529003593799 $379 13.892811878959902 $378 $490 forward 7 unknown #
vertex $-1 $454 $491 #
straight-curve $-1 -65.021515549180592 -11.503785290019021 0.68455033460502079 0.79863550430605224 0 0.6018150307709319 I I #
point $-1 -46.339742640117294 -11.503785290019021 14.762276252754248 #
point $-1 -65.021515549180577 -22.358344268619543 0.68455033460503145 #
straight-curve $-1 -65.021515549180577 0 14.762276252754248 0 -1 0 I I #
vertex $-1 $385 $492 #
point $-1 -53.147332980240563 -19.257041703305109 6.0232559902364544 #
vertex $-1 $389 $493 #
point $-1 -53.147332980240563 -14.605087855333458 6.0232559902364544 #
straight-curve $-1 -65.021515549180577 36.83963854397831 0 0 0 -1 I I #
point $-1 -65.021515549180577 -36.83963854397831 -14.762276252754248 #
straight-curve $-1 -65.021515549180577 0 -14.762276252754248 0 1 0 I I #
point $-1 -65.021515549180577 36.83963854397831 -14.762276252754248 #
edge $-1 $423 -3.9721232043720311 $417 3.972123204372032 $416 $494 forward 7 unknown #
coedge $-1 $421 $412 $411 $470 reversed $305 $-1 #
edge $-1 $425 -3.9721232043720311 $414 3.972123204372032 $411 $495 forward 7 unknown #
straight-curve $-1 0 -51.320932819337074 -14.762276252754248 -1 0 0 I I #
point $-1 65.021515549180577 -51.320932819337074 -14.762276252754248 #
point $-1 -65.021515549180577 -51.320932819337074 -14.762276252754248 #
straight-curve $-1 0 -51.320932819337074 -6.8180298440101845 1 0 0 I I #
point $-1 -65.021515549180577 -51.320932819337074 -6.8180298440101845 #
point $-1 65.021515549180577 -51.320932819337074 -6.8180298440101845 #
straight-curve $-1 65.021515549180577 -2.4591316733893755 95.957765306359875 0 0 -1 I I #
point $-1 65.021515549180577 -2.4591316733893755 14.762276252754248 #
straight-curve $-1 65.021515549180577 1.1953788660725024 9.0143828015736673 0 1 0 I I #
point $-1 65.021515549180577 -2.4591316733893755 9.0143828015736744 #
point $-1 55.936149911318736 2.3907577321450049 5.0515227606811859 #
straight-curve $-1 57.92345841619003 15.994874569221963 14.762276252754248 0 -1 0 I I #
edge $-1 $447 -65.021515549180577 $441 -57.923458416190016 $439 $496 forward 7 unknown #
point $-1 57.923458416190016 36.83963854397831 14.762276252754248 #
straight-curve $-1 65.021515549180577 36.83963854397831 0 0 0 -1 I I #
point $-1 65.021515549180577 36.83963854397831 14.762276252754248 #
point $-1 55.936149911318736 31.989749138443926 5.0515227606811859 #
straight-curve $-1 -65.021515549180577 -11.503785290019021 52.270766028666159 0 0 -1 I I #
point $-1 -65.021515549180577 -11.503785290019021 14.762276252754248 #
straight-curve $-1 -65.021515549180577 -8.4655323896596411 0.68455033460502113 0 -1 0 I I #
point $-1 -65.021515549180577 -11.503785290019021 0.68455033460503145 #
point $-1 -53.344153453775682 -19.257041703305109 4.6228054551594706 #
point $-1 -53.344153453775682 -14.605087855333458 4.6228054551594706 #
straight-curve $-1 -65.021515549180577 -51.320932819337074 -10.790153048382216 0 0 -1 I I #
straight-curve $-1 65.021515549180577 -51.320932819337074 -10.790153048382216 0 0 -1 I I #
straight-curve $-1 0 36.83963854397831 14.762276252754248 -1 0 0 I I #
End-of-ACIS-data 