500 0 4 0           
7 Unknown 11 ACIS 5.0 NT 24 Fri Mar 26 19:10:44 1999 
-1 9.9999999999999995e-007 1e-010 
body $-1 $4 $-1 $5 #
body $-1 $6 $-1 $7 #
body $-1 $8 $-1 $9 #
body $-1 $10 $-1 $11 #
lump $-1 $-1 $12 $0 #
transform $-1 1 0 0 0 1 0 0 0 1 60.265511032441175 26.175871442756616 9.2795848827585505 1 rotate no_reflect no_shear #
lump $-1 $-1 $13 $1 #
transform $-1 1 0 0 0 1 0 0 0 1 60.265511032441175 26.175871442756616 9.2795848827585505 1 rotate no_reflect no_shear #
lump $-1 $-1 $14 $2 #
transform $-1 1 0 0 0 1 0 0 0 1 60.265511032441175 26.175871442756616 9.2795848827585505 1 rotate no_reflect no_shear #
lump $-1 $-1 $15 $3 #
transform $-1 1 0 0 0 1 0 0 0 1 60.265511032441175 26.175871442756616 9.2795848827585505 1 rotate no_reflect no_shear #
shell $-1 $-1 $-1 $16 $-1 $4 #
shell $-1 $-1 $-1 $17 $-1 $6 #
shell $-1 $-1 $-1 $18 $-1 $8 #
shell $-1 $-1 $-1 $19 $-1 $10 #
face $-1 $20 $21 $12 $-1 $22 forward single #
face $-1 $23 $24 $13 $-1 $25 reversed single #
face $-1 $26 $27 $14 $-1 $28 forward single #
face $-1 $29 $30 $15 $-1 $31 reversed single #
face $-1 $32 $33 $12 $-1 $34 reversed single #
loop $-1 $-1 $35 $16 #
plane-surface $-1 0 0 9.2795848827585505 0 0 1 1 0 0 forward_v I I I I #
face $-1 $36 $37 $13 $-1 $38 forward single #
loop $-1 $-1 $39 $17 #
plane-surface $-1 -55.850196357025169 0 -3.9415034909467139 0 0 1 1 0 0 forward_v I I I I #
face $-1 $40 $41 $14 $-1 $42 forward single #
loop $-1 $-1 $43 $18 #
plane-surface $-1 19.028327091424622 -11.221596762305229 168.19303766014738 0 -1 0 -0.51503808176128008 0 -0.85716729658548041 forward_v I I I I #
face $-1 $44 $45 $15 $-1 $46 reversed single #
loop $-1 $47 $48 $19 #
cone-surface $-1 53.844508669130107 -15.436897531914232 4.327358749274743 -0.51503808176128008 0 -0.85716729658548041 0.85716729658548041 0 -0.51503808176128008 1 I I 0 1 1 forward I I I I #
face $-1 $49 $50 $12 $-1 $51 reversed single #
loop $-1 $-1 $52 $20 #
plane-surface $-1 0 0 -9.2795848827585505 0 0 1 1 0 0 forward_v I I I I #
coedge $-1 $53 $54 $55 $56 forward $21 $-1 #
face $-1 $57 $58 $13 $-1 $59 forward single #
loop $-1 $-1 $60 $23 #
plane-surface $-1 -55.850196357025169 0 -8.4548475345431076 0 0 1 1 0 0 forward_v I I I I #
coedge $-1 $61 $62 $63 $64 reversed $24 $-1 #
face $-1 $65 $66 $14 $-1 $67 forward single #
loop $-1 $-1 $68 $26 #
plane-surface $-1 -43.049739305598905 -15.436897531914232 64.877787322107295 0.51503808176128008 0 0.85716729658548041 0.85716729658548041 0 -0.51503808176128008 forward_v I I I I #
coedge $-1 $69 $70 $71 $72 reversed $27 $-1 #
face $-1 $73 $74 $15 $-1 $75 forward single #
loop $-1 $76 $77 $29 #
cone-surface $-1 52.55813948390405 -15.436897531914232 2.1864809463355837 -0.51503808176128008 0 -0.85716729658548041 0.4285836482927402 0 -0.25751904088064004 1 I I -0.70710678118654746 0.70710678118654746 0.5 forward I I I I #
loop $-1 $-1 $78 $19 #
coedge $-1 $48 $48 $79 $80 reversed $30 $-1 #
face $-1 $81 $82 $12 $-1 $83 reversed single #
loop $-1 $-1 $84 $32 #
plane-surface $-1 0 -26.175871442756616 0 0 1 0 0 0 1 forward_v I I I I #
coedge $-1 $85 $86 $87 $88 forward $33 $-1 #
coedge $-1 $89 $35 $90 $91 forward $21 $-1 #
coedge $-1 $35 $89 $92 $93 forward $21 $-1 #
coedge $-1 $94 $95 $35 $56 reversed $96 $-1 #
edge $-1 $97 -26.175871442756616 $98 26.175871442756616 $55 $99 forward 7 unknown #
face $-1 $100 $101 $13 $-1 $102 reversed single #
loop $-1 $-1 $103 $36 #
plane-surface $-1 -51.43488168160917 0 -6.1981755127449105 -1 0 0 0 0 1 forward_v I I I I #
coedge $-1 $104 $105 $106 $107 reversed $37 $-1 #
coedge $-1 $108 $39 $109 $110 reversed $24 $-1 #
coedge $-1 $39 $108 $111 $112 reversed $24 $-1 #
coedge $-1 $113 $103 $39 $64 forward $58 $-1 #
edge $-1 $114 -26.175871442756616 $115 26.175871442756616 $63 $116 forward 7 unknown #
face $-1 $117 $118 $14 $-1 $119 forward single #
loop $-1 $-1 $120 $40 #
plane-surface $-1 19.028327091424622 -19.652198301523235 168.19303766014738 0 1 0 0.51503808176128008 0 0.85716729658548041 forward_v I I I I #
coedge $-1 $121 $122 $123 $124 reversed $41 $-1 #
coedge $-1 $70 $43 $122 $125 forward $27 $-1 #
coedge $-1 $43 $69 $126 $127 reversed $27 $-1 #
coedge $-1 $128 $123 $43 $72 forward $118 $-1 #
edge $-1 $129 39.967043048797606 $130 50.751347486728861 $71 $131 forward 7 unknown #
face $-1 $132 $133 $15 $-1 $134 forward single #
loop $-1 $-1 $135 $44 #
plane-surface $-1 19.028327091424622 -11.221596762305229 168.19303766014738 0 -1 0 -0.51503808176128008 0 -0.85716729658548041 forward_v I I I I #
loop $-1 $-1 $136 $29 #
coedge $-1 $77 $77 $78 $137 forward $45 $-1 #
coedge $-1 $78 $78 $77 $137 reversed $47 $-1 #
coedge $-1 $79 $79 $48 $80 forward $133 $-1 #
edge $-1 $138 0 $138 6.2831853071796004 $79 $139 forward 7 unknown #
face $-1 $140 $141 $12 $-1 $142 reversed single #
loop $-1 $-1 $143 $49 #
plane-surface $-1 -60.265511032441175 0 0 1 0 0 0 0 -1 forward_v I I I I #
coedge $-1 $144 $92 $145 $146 forward $50 $-1 #
coedge $-1 $147 $52 $144 $148 forward $33 $-1 #
coedge $-1 $52 $147 $149 $150 forward $33 $-1 #
coedge $-1 $95 $94 $52 $88 reversed $96 $-1 #
edge $-1 $151 -26.175871442756616 $152 26.175871442756616 $87 $153 forward 7 unknown #
coedge $-1 $54 $53 $154 $155 forward $21 $-1 #
coedge $-1 $156 $157 $53 $91 reversed $141 $-1 #
edge $-1 $98 -60.265511032441175 $158 60.265511032441175 $90 $159 forward 7 unknown #
coedge $-1 $84 $160 $54 $93 reversed $50 $-1 #
edge $-1 $161 -60.265511032441175 $97 60.265511032441175 $92 $162 forward 7 unknown #
coedge $-1 $87 $55 $160 $163 forward $96 $-1 #
coedge $-1 $55 $87 $156 $164 reversed $96 $-1 #
loop $-1 $-1 $94 $140 #
vertex $-1 $56 $165 #
vertex $-1 $56 $166 #
straight-curve $-1 60.265511032441175 0 9.2795848827585505 0 1 0 I I #
face $-1 $167 $168 $13 $-1 $102 reversed single #
loop $-1 $-1 $169 $57 #
plane-surface $-1 -60.265511032441175 0 0 1 0 0 0 0 -1 forward_v I I I I #
coedge $-1 $63 $106 $170 $171 reversed $58 $-1 #
coedge $-1 $172 $60 $173 $174 reversed $37 $-1 #
coedge $-1 $60 $172 $175 $176 reversed $37 $-1 #
coedge $-1 $103 $113 $60 $107 forward $58 $-1 #
edge $-1 $177 -26.175871442756616 $178 26.175871442756616 $106 $179 forward 7 unknown #
coedge $-1 $62 $61 $180 $181 reversed $24 $-1 #
coedge $-1 $170 $182 $61 $110 forward $183 $-1 #
edge $-1 $184 -32.340412853928584 $114 -23.509783503096585 $109 $185 forward 7 unknown #
coedge $-1 $186 $187 $62 $112 forward $188 $-1 #
edge $-1 $115 23.509783503096585 $189 32.340412853928584 $111 $190 forward 7 unknown #
coedge $-1 $106 $63 $187 $191 reversed $58 $-1 #
vertex $-1 $110 $192 #
vertex $-1 $112 $193 #
straight-curve $-1 -51.43488168160917 0 -3.9415034909467139 0 1 0 I I #
face $-1 $194 $195 $14 $-1 $196 reversed single #
loop $-1 $-1 $197 $65 #
plane-surface $-1 0 0 9.2795848827585505 0 0 1 1 0 0 forward_v I I I I #
coedge $-1 $198 $199 $197 $200 reversed $66 $-1 #
coedge $-1 $201 $68 $199 $202 reversed $41 $-1 #
coedge $-1 $68 $201 $69 $125 reversed $41 $-1 #
coedge $-1 $71 $197 $68 $124 forward $118 $-1 #
edge $-1 $203 -11.933749535566118 $129 -3.5031479963481127 $123 $204 forward 7 unknown #
edge $-1 $129 107.94969228143111 $205 120.53102206488232 $69 $206 forward 7 unknown #
coedge $-1 $207 $208 $70 $127 forward $209 $-1 #
edge $-1 $130 74.816933947315135 $205 81.296797904989916 $126 $210 forward 7 unknown #
coedge $-1 $211 $71 $208 $212 forward $118 $-1 #
vertex $-1 $124 $213 #
vertex $-1 $212 $214 #
straight-curve $-1 9.5141635457123108 -11.221596762305229 9.2795848827585559 1 0 0 I I #
face $-1 $215 $216 $15 $-1 $217 forward single #
loop $-1 $218 $79 $73 #
plane-surface $-1 -43.049739305598905 -15.436897531914232 64.877787322107295 0.51503808176128008 0 0.85716729658548041 0.85716729658548041 0 -0.51503808176128008 forward_v I I I I #
coedge $-1 $219 $220 $221 $222 reversed $74 $-1 #
coedge $-1 $136 $136 $-1 $223 forward $76 $-1 #
edge $-1 $224 0 $224 6.2831853071796004 $77 $225 forward 7 unknown #
vertex $-1 $80 $226 #
ellipse-curve $-1 54.873358813475527 -15.436897531914232 6.0396529039211675 -0.51503808176128008 0 -0.85716729658548041 0.85716729658548041 0 -0.51503808176128008 1 I I #
face $-1 $-1 $96 $12 $-1 $227 reversed single #
loop $-1 $-1 $156 $81 #
plane-surface $-1 0 26.175871442756616 0 0 -1 0 0 0 -1 forward_v I I I I #
coedge $-1 $228 $154 $157 $229 forward $82 $-1 #
coedge $-1 $160 $84 $85 $148 reversed $50 $-1 #
coedge $-1 $154 $228 $84 $146 reversed $82 $-1 #
edge $-1 $161 -9.2795848827585505 $230 9.2795848827585505 $145 $231 forward 7 unknown #
coedge $-1 $86 $85 $228 $232 forward $33 $-1 #
edge $-1 $152 -60.265511032441175 $230 60.265511032441175 $144 $233 forward 7 unknown #
coedge $-1 $157 $156 $86 $150 reversed $141 $-1 #
edge $-1 $234 -60.265511032441175 $151 60.265511032441175 $149 $235 forward 7 unknown #
vertex $-1 $88 $236 #
vertex $-1 $163 $237 #
straight-curve $-1 60.265511032441175 0 -9.2795848827585505 0 -1 0 I I #
coedge $-1 $143 $145 $89 $155 reversed $82 $-1 #
edge $-1 $158 -26.175871442756616 $161 26.175871442756616 $154 $238 forward 7 unknown #
coedge $-1 $149 $90 $95 $164 forward $141 $-1 #
coedge $-1 $90 $149 $143 $229 reversed $141 $-1 #
vertex $-1 $91 $239 #
straight-curve $-1 0 26.175871442756616 9.2795848827585505 -1 0 0 I I #
coedge $-1 $92 $144 $94 $163 reversed $50 $-1 #
vertex $-1 $155 $240 #
straight-curve $-1 0 -26.175871442756616 9.2795848827585505 1 0 0 I I #
edge $-1 $97 -9.2795848827585505 $152 9.2795848827585505 $94 $241 forward 7 unknown #
edge $-1 $98 -9.2795848827585505 $151 9.2795848827585505 $95 $242 forward 7 unknown #
point $-1 60.265511032441175 -26.175871442756616 9.2795848827585505 #
point $-1 60.265511032441175 26.175871442756616 9.2795848827585505 #
face $-1 $243 $183 $13 $-1 $244 reversed single #
loop $-1 $-1 $180 $100 #
coedge $-1 $245 $246 $172 $247 forward $101 $-1 #
coedge $-1 $175 $109 $103 $171 forward $183 $-1 #
edge $-1 $114 0.84241573457425867 $178 5.3557597781706523 $170 $248 forward 7 unknown #
coedge $-1 $105 $104 $169 $247 reversed $37 $-1 #
coedge $-1 $187 $249 $104 $174 forward $188 $-1 #
edge $-1 $250 -32.340412853928584 $177 -23.509783503096585 $173 $251 forward 7 unknown #
coedge $-1 $252 $170 $105 $176 forward $183 $-1 #
edge $-1 $178 23.509783503096585 $253 32.340412853928584 $175 $254 forward 7 unknown #
vertex $-1 $174 $255 #
vertex $-1 $176 $256 #
straight-curve $-1 -51.43488168160917 0 -8.4548475345431076 0 -1 0 I I #
coedge $-1 $257 $258 $108 $181 forward $168 $-1 #
edge $-1 $189 -26.175871442756616 $184 26.175871442756616 $180 $259 forward 7 unknown #
coedge $-1 $109 $260 $257 $261 forward $183 $-1 #
loop $-1 $-1 $109 $167 #
vertex $-1 $110 $262 #
straight-curve $-1 -27.925098178512584 -26.175871442756616 -3.9415034909467139 1 0 0 I I #
coedge $-1 $263 $111 $258 $264 reversed $188 $-1 #
coedge $-1 $111 $173 $113 $191 forward $188 $-1 #
loop $-1 $-1 $111 $265 #
vertex $-1 $181 $266 #
straight-curve $-1 -27.925098178512584 26.175871442756616 -3.9415034909467139 -1 0 0 I I #
edge $-1 $177 -5.3557597781706523 $115 -0.84241573457425867 $187 $267 forward 7 unknown #
point $-1 -51.43488168160917 -26.175871442756616 -3.9415034909467139 #
point $-1 -51.43488168160917 26.175871442756616 -3.9415034909467139 #
face $-1 $268 $269 $14 $-1 $270 forward single #
loop $-1 $-1 $271 $117 #
plane-surface $-1 -55.850196357025169 0 -3.9415034909467139 0 0 1 1 0 0 forward_v I I I I #
coedge $-1 $123 $272 $120 $200 forward $118 $-1 #
coedge $-1 $199 $120 $273 $274 reversed $66 $-1 #
coedge $-1 $120 $198 $121 $202 forward $66 $-1 #
edge $-1 $275 -50.751347486728861 $203 -39.967043048797606 $197 $276 forward 7 unknown #
coedge $-1 $122 $121 $207 $277 reversed $41 $-1 #
edge $-1 $278 -120.53102206488232 $203 -107.94969228143111 $199 $279 forward 7 unknown #
vertex $-1 $124 $280 #
straight-curve $-1 49.481206594509914 -7.7184487659571159 9.2795848827585488 0 1 0 I I #
vertex $-1 $277 $281 #
straight-curve $-1 -43.049739305598905 -11.221596762305229 64.877787322107295 0.85716729658548041 0 -0.51503808176128008 I I #
coedge $-1 $273 $126 $201 $277 forward $209 $-1 #
coedge $-1 $126 $282 $128 $212 reversed $209 $-1 #
loop $-1 $-1 $273 $283 #
straight-curve $-1 60.265511032441175 -11.221596762305229 84.096518830073691 0 0 -1 I I #
coedge $-1 $284 $128 $285 $286 forward $118 $-1 #
edge $-1 $130 -11.221596762305229 $287 26.175871442756616 $208 $288 forward 7 unknown #
point $-1 49.481206594509914 -11.221596762305229 9.2795848827585488 #
point $-1 60.265511032441175 -11.221596762305229 9.2795848827585505 #
face $-1 $289 $290 $15 $-1 $291 forward single #
loop $-1 $-1 $292 $132 #
plane-surface $-1 19.028327091424622 -19.652198301523235 168.19303766014738 0 1 0 0.51503808176128008 0 0.85716729658548041 forward_v I I I I #
loop $-1 $-1 $293 $73 #
coedge $-1 $220 $135 $294 $295 forward $74 $-1 #
coedge $-1 $135 $219 $296 $297 reversed $74 $-1 #
coedge $-1 $298 $299 $135 $222 forward $290 $-1 #
edge $-1 $300 39.967043048797606 $301 50.751347486728861 $221 $302 forward 7 unknown #
edge $-1 $303 1 $303 0 $136 $-1 forward 7 unknown #
vertex $-1 $137 $304 #
ellipse-curve $-1 52.815658524784688 -15.436897531914232 2.6150645946283237 0.51503808176128008 0 0.85716729658548041 0.85716729658548041 0 -0.51503808176128008 1 I I #
point $-1 55.730526110061007 -15.436897531914232 5.5246148221598812 #
plane-surface $-1 60.265511032441175 0 0 -1 0 0 0 0 1 forward_v I I I I #
coedge $-1 $145 $143 $147 $232 reversed $82 $-1 #
edge $-1 $158 -9.2795848827585505 $234 9.2795848827585505 $157 $305 forward 7 unknown #
vertex $-1 $232 $306 #
straight-curve $-1 -60.265511032441175 -26.175871442756616 0 0 0 -1 I I #
edge $-1 $230 -26.175871442756616 $234 26.175871442756616 $228 $307 forward 7 unknown #
straight-curve $-1 0 -26.175871442756616 -9.2795848827585505 -1 0 0 I I #
vertex $-1 $150 $308 #
straight-curve $-1 0 26.175871442756616 -9.2795848827585505 1 0 0 I I #
point $-1 60.265511032441175 26.175871442756616 -9.2795848827585505 #
point $-1 60.265511032441175 -26.175871442756616 -9.2795848827585505 #
straight-curve $-1 -60.265511032441175 0 9.2795848827585505 0 -1 0 I I #
point $-1 -60.265511032441175 26.175871442756616 9.2795848827585505 #
point $-1 -60.265511032441175 -26.175871442756616 9.2795848827585505 #
straight-curve $-1 60.265511032441175 -26.175871442756616 0 0 0 -1 I I #
straight-curve $-1 60.265511032441175 26.175871442756616 0 0 0 -1 I I #
face $-1 $309 $310 $13 $-1 $311 forward single #
plane-surface $-1 0 -26.175871442756616 0 0 1 0 0 0 1 forward_v I I I I #
coedge $-1 $312 $169 $249 $313 forward $101 $-1 #
coedge $-1 $169 $312 $252 $314 reversed $101 $-1 #
edge $-1 $253 -26.175871442756616 $250 26.175871442756616 $169 $315 forward 7 unknown #
straight-curve $-1 -51.43488168160917 -26.175871442756616 -3.0990877563724553 0 0 -1 I I #
coedge $-1 $173 $316 $245 $313 reversed $188 $-1 #
vertex $-1 $313 $317 #
straight-curve $-1 -27.925098178512584 26.175871442756616 -8.4548475345431076 1 0 0 I I #
coedge $-1 $318 $175 $246 $314 forward $183 $-1 #
vertex $-1 $314 $319 #
straight-curve $-1 -27.925098178512584 -26.175871442756616 -8.4548475345431076 -1 0 0 I I #
point $-1 -51.43488168160917 26.175871442756616 -8.4548475345431076 #
point $-1 -51.43488168160917 -26.175871442756616 -8.4548475345431076 #
coedge $-1 $320 $180 $182 $261 reversed $168 $-1 #
coedge $-1 $180 $320 $186 $264 forward $168 $-1 #
straight-curve $-1 -60.265511032441175 0 -3.9415034909467139 0 -1 0 I I #
coedge $-1 $182 $321 $322 $323 reversed $183 $-1 #
edge $-1 $324 -9.2795848827585505 $184 3.9415034909467139 $257 $325 forward 7 unknown #
point $-1 -60.265511032441168 -26.175871442756616 -3.9415034909467139 #
coedge $-1 $326 $186 $327 $328 reversed $188 $-1 #
edge $-1 $329 -9.2795848827585505 $189 3.9415034909467139 $186 $330 forward 7 unknown #
face $-1 $331 $188 $13 $-1 $332 reversed single #
point $-1 -60.265511032441168 26.175871442756616 -3.9415034909467139 #
straight-curve $-1 -51.43488168160917 26.175871442756616 -3.0990877563724553 0 0 1 I I #
face $-1 $333 $334 $14 $-1 $335 forward single #
loop $-1 $-1 $336 $194 #
plane-surface $-1 -55.850196357025169 0 -8.4548475345431076 0 0 1 1 0 0 forward_v I I I I #
coedge $-1 $337 $338 $339 $340 reversed $195 $-1 #
coedge $-1 $197 $341 $342 $343 forward $118 $-1 #
coedge $-1 $342 $207 $198 $274 forward $209 $-1 #
edge $-1 $278 -81.296797904989916 $275 -74.816933947315135 $273 $344 forward 7 unknown #
vertex $-1 $274 $345 #
straight-curve $-1 9.5141635457123108 -19.652198301523235 9.2795848827585559 -1 0 0 I I #
edge $-1 $205 3.5031479963481127 $278 11.933749535566118 $207 $346 forward 7 unknown #
vertex $-1 $277 $347 #
straight-curve $-1 -43.049739305598905 -19.652198301523235 64.877787322107295 -0.85716729658548041 0 0.51503808176128008 I I #
point $-1 49.481206594509914 -19.652198301523235 9.2795848827585488 #
point $-1 60.265511032441168 -11.221596762305229 2.7997209250837827 #
coedge $-1 $208 $348 $349 $350 reversed $209 $-1 #
face $-1 $-1 $209 $14 $-1 $351 reversed single #
coedge $-1 $341 $211 $352 $353 forward $118 $-1 #
coedge $-1 $349 $354 $211 $286 reversed $355 $-1 #
edge $-1 $287 -60.265511032441175 $356 60.265511032441175 $285 $357 forward 7 unknown #
vertex $-1 $212 $358 #
straight-curve $-1 60.265511032441175 0 9.2795848827585505 0 1 0 I I #
face $-1 $359 $360 $15 $-1 $361 reversed single #
loop $-1 $-1 $362 $215 #
plane-surface $-1 0 0 9.2795848827585505 0 0 1 1 0 0 forward_v I I I I #
coedge $-1 $363 $364 $362 $365 reversed $216 $-1 #
coedge $-1 $366 $294 $299 $367 reversed $218 $-1 #
coedge $-1 $293 $368 $219 $295 reversed $218 $-1 #
edge $-1 $300 107.94969228143111 $369 120.53102206488232 $219 $370 forward 7 unknown #
coedge $-1 $371 $372 $220 $297 forward $373 $-1 #
edge $-1 $301 74.816933947315135 $369 81.296797904989916 $296 $374 forward 7 unknown #
coedge $-1 $375 $221 $372 $376 forward $290 $-1 #
coedge $-1 $221 $362 $293 $367 forward $290 $-1 #
vertex $-1 $367 $377 #
vertex $-1 $376 $378 #
straight-curve $-1 9.5141635457123108 -11.221596762305229 9.2795848827585559 1 0 0 I I #
vertex $-1 $223 $379 #
point $-1 53.672825821370168 -15.436897531914232 2.1000265128670437 #
straight-curve $-1 -60.265511032441175 26.175871442756616 0 0 0 -1 I I #
point $-1 -60.265511032441175 -26.175871442756616 -9.2795848827585505 #
straight-curve $-1 -60.265511032441175 0 -9.2795848827585505 0 1 0 I I #
point $-1 -60.265511032441175 26.175871442756616 -9.2795848827585505 #
face $-1 $265 $380 $13 $-1 $381 reversed single #
loop $-1 $-1 $382 $243 #
plane-surface $-1 0 0 9.2795848827585505 0 0 1 1 0 0 forward_v I I I I #
coedge $-1 $246 $245 $383 $384 reversed $101 $-1 #
edge $-1 $250 8.4548475345431076 $385 9.2795848827585505 $249 $330 forward 7 unknown #
edge $-1 $253 8.4548475345431076 $386 9.2795848827585505 $246 $325 forward 7 unknown #
straight-curve $-1 -60.265511032441175 0 -8.4548475345431076 0 1 0 I I #
coedge $-1 $249 $326 $387 $388 reversed $188 $-1 #
point $-1 -60.265511032441168 26.175871442756616 -8.4548475345431076 #
coedge $-1 $321 $252 $389 $390 reversed $183 $-1 #
point $-1 -60.265511032441168 -26.175871442756616 -8.4548475345431076 #
coedge $-1 $258 $257 $391 $392 reversed $168 $-1 #
coedge $-1 $260 $318 $393 $394 reversed $183 $-1 #
coedge $-1 $382 $391 $260 $323 forward $310 $-1 #
edge $-1 $324 -60.265511032441175 $395 60.265511032441175 $260 $396 forward 7 unknown #
vertex $-1 $392 $397 #
straight-curve $-1 -60.265511032441175 -26.175871442756616 0 0 0 -1 I I #
coedge $-1 $316 $263 $398 $399 forward $188 $-1 #
coedge $-1 $391 $382 $263 $328 forward $310 $-1 #
edge $-1 $400 -60.265511032441175 $329 60.265511032441175 $263 $401 forward 7 unknown #
vertex $-1 $328 $402 #
straight-curve $-1 -60.265511032441175 26.175871442756616 0 0 0 -1 I I #
face $-1 $-1 $403 $13 $-1 $404 reversed single #
plane-surface $-1 0 26.175871442756616 0 0 -1 0 0 0 -1 forward_v I I I I #
face $-1 $405 $406 $14 $-1 $407 reversed single #
loop $-1 $-1 $408 $268 #
plane-surface $-1 -51.43488168160917 0 -6.1981755127449105 -1 0 0 0 0 1 forward_v I I I I #
coedge $-1 $409 $410 $411 $412 reversed $269 $-1 #
coedge $-1 $413 $271 $414 $415 reversed $195 $-1 #
coedge $-1 $271 $413 $416 $417 reversed $195 $-1 #
coedge $-1 $418 $408 $271 $340 forward $334 $-1 #
edge $-1 $419 -26.175871442756616 $420 26.175871442756616 $339 $421 forward 7 unknown #
coedge $-1 $272 $284 $422 $423 forward $118 $-1 #
coedge $-1 $424 $273 $272 $343 reversed $209 $-1 #
edge $-1 $425 -26.175871442756616 $275 -19.652198301523235 $342 $288 forward 7 unknown #
straight-curve $-1 60.265511032441175 -19.652198301523235 84.096518830073691 0 0 1 I I #
point $-1 60.265511032441175 -19.652198301523235 9.2795848827585505 #
straight-curve $-1 60.265511032441175 -7.7184487659571159 2.7997209250837756 0 -1 0 I I #
point $-1 60.265511032441168 -19.652198301523235 2.7997209250837827 #
coedge $-1 $282 $424 $426 $427 reversed $209 $-1 #
coedge $-1 $428 $285 $282 $350 forward $355 $-1 #
edge $-1 $287 -9.2795848827585505 $429 9.2795848827585505 $282 $430 forward 7 unknown #
plane-surface $-1 60.265511032441175 0 0 -1 0 0 0 0 1 forward_v I I I I #
coedge $-1 $431 $432 $284 $353 reversed $433 $-1 #
edge $-1 $356 -26.175871442756616 $434 26.175871442756616 $352 $435 forward 7 unknown #
coedge $-1 $285 $416 $431 $436 reversed $355 $-1 #
loop $-1 $-1 $416 $437 #
vertex $-1 $286 $438 #
straight-curve $-1 0 26.175871442756616 9.2795848827585505 -1 0 0 I I #
point $-1 60.265511032441175 26.175871442756616 9.2795848827585505 #
face $-1 $439 $440 $15 $-1 $441 forward single #
loop $-1 $-1 $442 $289 #
plane-surface $-1 -55.850196357025169 0 -3.9415034909467139 0 0 1 1 0 0 forward_v I I I I #
coedge $-1 $299 $443 $292 $365 forward $290 $-1 #
coedge $-1 $364 $292 $444 $445 reversed $216 $-1 #
coedge $-1 $292 $363 $366 $446 forward $216 $-1 #
edge $-1 $447 -50.751347486728861 $448 -39.967043048797606 $362 $449 forward 7 unknown #
coedge $-1 $368 $293 $364 $446 reversed $218 $-1 #
edge $-1 $448 -11.933749535566118 $300 -3.5031479963481127 $299 $450 forward 7 unknown #
coedge $-1 $294 $366 $371 $451 reversed $218 $-1 #
vertex $-1 $451 $452 #
straight-curve $-1 -43.049739305598905 -11.221596762305229 64.877787322107295 0.85716729658548041 0 -0.51503808176128008 I I #
coedge $-1 $444 $296 $368 $451 forward $373 $-1 #
coedge $-1 $296 $453 $298 $376 reversed $373 $-1 #
loop $-1 $-1 $444 $454 #
straight-curve $-1 60.265511032441175 -11.221596762305229 84.096518830073691 0 0 -1 I I #
coedge $-1 $455 $298 $456 $457 forward $290 $-1 #
edge $-1 $301 -11.221596762305229 $458 26.175871442756616 $372 $459 forward 7 unknown #
point $-1 49.481206594509914 -11.221596762305229 9.2795848827585488 #
point $-1 60.265511032441175 -11.221596762305229 9.2795848827585505 #
point $-1 52.300620443023412 -15.436897531914232 1.7578972980428436 #
loop $-1 $-1 $460 $309 #
plane-surface $-1 0 0 -9.2795848827585505 0 0 1 1 0 0 forward_v I I I I #
coedge $-1 $327 $322 $461 $462 forward $310 $-1 #
coedge $-1 $387 $389 $312 $384 forward $380 $-1 #
edge $-1 $386 -26.175871442756616 $385 26.175871442756616 $312 $463 forward 7 unknown #
vertex $-1 $388 $464 #
vertex $-1 $384 $465 #
coedge $-1 $460 $383 $316 $388 forward $380 $-1 #
edge $-1 $385 -60.265511032441175 $466 60.265511032441175 $316 $467 forward 7 unknown #
coedge $-1 $383 $460 $318 $390 forward $380 $-1 #
edge $-1 $468 -60.265511032441175 $386 60.265511032441175 $318 $469 forward 7 unknown #
coedge $-1 $322 $327 $320 $392 forward $310 $-1 #
edge $-1 $329 -26.175871442756616 $324 26.175871442756616 $320 $470 forward 7 unknown #
coedge $-1 $471 $461 $321 $394 forward $403 $-1 #
edge $-1 $395 -9.2795848827585505 $468 9.2795848827585505 $393 $472 forward 7 unknown #
vertex $-1 $462 $473 #
straight-curve $-1 0 -26.175871442756616 9.2795848827585505 1 0 0 I I #
point $-1 -60.265511032441175 -26.175871442756616 9.2795848827585505 #
coedge $-1 $461 $471 $326 $399 reversed $403 $-1 #
edge $-1 $400 -9.2795848827585505 $466 9.2795848827585505 $398 $474 forward 7 unknown #
vertex $-1 $462 $475 #
straight-curve $-1 0 26.175871442756616 9.2795848827585505 -1 0 0 I I #
point $-1 -60.265511032441175 26.175871442756616 9.2795848827585505 #
loop $-1 $-1 $393 $331 #
plane-surface $-1 60.265511032441175 0 0 -1 0 0 0 0 1 forward_v I I I I #
face $-1 $476 $433 $14 $-1 $407 reversed single #
loop $-1 $-1 $477 $333 #
plane-surface $-1 -60.265511032441175 0 0 1 0 0 0 0 -1 forward_v I I I I #
coedge $-1 $339 $411 $478 $479 reversed $334 $-1 #
coedge $-1 $480 $336 $481 $482 reversed $269 $-1 #
coedge $-1 $336 $480 $483 $484 reversed $269 $-1 #
coedge $-1 $408 $418 $336 $412 forward $334 $-1 #
edge $-1 $485 -26.175871442756616 $486 26.175871442756616 $411 $487 forward 7 unknown #
coedge $-1 $338 $337 $488 $489 reversed $195 $-1 #
coedge $-1 $478 $490 $337 $415 forward $491 $-1 #
edge $-1 $492 -32.340412853928584 $419 -23.509783503096585 $414 $493 forward 7 unknown #
coedge $-1 $354 $494 $338 $417 forward $355 $-1 #
edge $-1 $420 23.509783503096585 $495 32.340412853928584 $416 $496 forward 7 unknown #
coedge $-1 $411 $339 $494 $497 reversed $334 $-1 #
vertex $-1 $415 $498 #
vertex $-1 $417 $499 #
straight-curve $-1 -51.43488168160917 0 -3.9415034909467139 0 1 0 I I #
coedge $-1 $490 $500 $341 $423 reversed $491 $-1 #
edge $-1 $434 -60.265511032441175 $425 60.265511032441175 $422 $501 forward 7 unknown #
coedge $-1 $348 $342 $500 $502 forward $209 $-1 #
vertex $-1 $343 $503 #
coedge $-1 $504 $505 $348 $427 forward $506 $-1 #
edge $-1 $429 -26.175871442756616 $507 26.175871442756616 $348 $508 forward 7 unknown #
coedge $-1 $509 $349 $505 $510 reversed $355 $-1 #
vertex $-1 $427 $511 #
straight-curve $-1 60.265511032441175 26.175871442756616 0 0 0 -1 I I #
coedge $-1 $488 $352 $354 $436 forward $433 $-1 #
coedge $-1 $352 $488 $490 $512 reversed $433 $-1 #
loop $-1 $-1 $488 $405 #
vertex $-1 $353 $513 #
straight-curve $-1 -60.265511032441175 0 9.2795848827585505 0 -1 0 I I #
edge $-1 $356 -9.2795848827585505 $495 3.9415034909467139 $354 $514 forward 7 unknown #
face $-1 $283 $355 $14 $-1 $515 reversed single #
point $-1 -60.265511032441175 26.175871442756616 9.2795848827585505 #
face $-1 $516 $517 $15 $-1 $518 forward single #
loop $-1 $-1 $519 $359 #
plane-surface $-1 -55.850196357025169 0 -8.4548475345431076 0 0 1 1 0 0 forward_v I I I I #
coedge $-1 $520 $521 $522 $523 reversed $360 $-1 #
coedge $-1 $362 $524 $525 $526 forward $290 $-1 #
coedge $-1 $525 $371 $363 $445 forward $373 $-1 #
edge $-1 $527 -81.296797904989916 $447 -74.816933947315135 $444 $528 forward 7 unknown #
edge $-1 $527 -120.53102206488232 $448 -107.94969228143111 $364 $529 forward 7 unknown #
vertex $-1 $445 $530 #
vertex $-1 $367 $531 #
straight-curve $-1 9.5141635457123108 -19.652198301523235 9.2795848827585559 -1 0 0 I I #
straight-curve $-1 49.481206594509914 -7.7184487659571159 9.2795848827585488 0 1 0 I I #
edge $-1 $369 3.5031479963481127 $527 11.933749535566118 $371 $532 forward 7 unknown #
point $-1 60.265511032441168 -11.221596762305229 2.7997209250837827 #
coedge $-1 $372 $533 $534 $535 reversed $373 $-1 #
face $-1 $-1 $373 $15 $-1 $536 reversed single #
coedge $-1 $524 $375 $537 $538 forward $290 $-1 #
coedge $-1 $534 $539 $375 $457 reversed $540 $-1 #
edge $-1 $458 -60.265511032441175 $541 60.265511032441175 $456 $542 forward 7 unknown #
vertex $-1 $376 $543 #
straight-curve $-1 60.265511032441175 0 9.2795848827585505 0 1 0 I I #
coedge $-1 $389 $387 $471 $544 forward $380 $-1 #
coedge $-1 $393 $398 $382 $462 reversed $403 $-1 #
edge $-1 $395 -26.175871442756616 $400 26.175871442756616 $461 $545 forward 7 unknown #
straight-curve $-1 -60.265511032441175 0 -9.2795848827585505 0 1 0 I I #
point $-1 -60.265511032441175 26.175871442756616 -9.2795848827585505 #
point $-1 -60.265511032441175 -26.175871442756616 -9.2795848827585505 #
vertex $-1 $544 $546 #
straight-curve $-1 0 26.175871442756616 -9.2795848827585505 1 0 0 I I #
vertex $-1 $394 $547 #
straight-curve $-1 0 -26.175871442756616 -9.2795848827585505 -1 0 0 I I #
straight-curve $-1 -60.265511032441175 0 9.2795848827585505 0 -1 0 I I #
coedge $-1 $398 $393 $460 $544 reversed $403 $-1 #
straight-curve $-1 60.265511032441175 -26.175871442756616 0 0 0 -1 I I #
point $-1 60.265511032441175 -26.175871442756616 9.2795848827585505 #
straight-curve $-1 60.265511032441175 26.175871442756616 0 0 0 -1 I I #
point $-1 60.265511032441175 26.175871442756616 9.2795848827585505 #
face $-1 $548 $491 $14 $-1 $549 reversed single #
coedge $-1 $550 $551 $480 $552 forward $406 $-1 #
coedge $-1 $483 $414 $408 $479 forward $491 $-1 #
edge $-1 $419 0.84241573457425867 $486 5.3557597781706523 $478 $553 forward 7 unknown #
coedge $-1 $410 $409 $477 $552 reversed $269 $-1 #
coedge $-1 $494 $509 $409 $482 forward $355 $-1 #
edge $-1 $554 -32.340412853928584 $485 -23.509783503096585 $481 $555 forward 7 unknown #
coedge $-1 $556 $478 $410 $484 forward $491 $-1 #
edge $-1 $486 23.509783503096585 $557 32.340412853928584 $483 $558 forward 7 unknown #
vertex $-1 $482 $559 #
vertex $-1 $484 $560 #
straight-curve $-1 -51.43488168160917 0 -8.4548475345431076 0 -1 0 I I #
coedge $-1 $432 $431 $413 $489 forward $433 $-1 #
edge $-1 $495 -26.175871442756616 $492 26.175871442756616 $488 $561 forward 7 unknown #
coedge $-1 $414 $422 $432 $512 forward $491 $-1 #
loop $-1 $-1 $414 $476 #
vertex $-1 $415 $562 #
straight-curve $-1 -27.925098178512584 -26.175871442756616 -3.9415034909467139 1 0 0 I I #
coedge $-1 $416 $481 $418 $497 forward $355 $-1 #
vertex $-1 $489 $563 #
straight-curve $-1 -27.925098178512584 26.175871442756616 -3.9415034909467139 -1 0 0 I I #
edge $-1 $485 -5.3557597781706523 $420 -0.84241573457425867 $494 $564 forward 7 unknown #
point $-1 -51.43488168160917 -26.175871442756616 -3.9415034909467139 #
point $-1 -51.43488168160917 26.175871442756616 -3.9415034909467139 #
coedge $-1 $422 $565 $424 $502 reversed $491 $-1 #
straight-curve $-1 0 -26.175871442756616 9.2795848827585505 1 0 0 I I #
edge $-1 $425 -9.2795848827585505 $507 9.2795848827585505 $424 $566 forward 7 unknown #
point $-1 60.265511032441175 -26.175871442756616 9.2795848827585505 #
coedge $-1 $567 $426 $565 $568 forward $506 $-1 #
coedge $-1 $426 $567 $428 $510 forward $506 $-1 #
loop $-1 $-1 $426 $548 #
vertex $-1 $502 $569 #
straight-curve $-1 60.265511032441175 0 -9.2795848827585505 0 -1 0 I I #
coedge $-1 $481 $428 $550 $570 reversed $355 $-1 #
edge $-1 $571 -60.265511032441175 $429 60.265511032441175 $428 $572 forward 7 unknown #
point $-1 60.265511032441175 26.175871442756616 -9.2795848827585505 #
edge $-1 $434 -9.2795848827585505 $492 3.9415034909467139 $432 $573 forward 7 unknown #
point $-1 -60.265511032441175 -26.175871442756616 9.2795848827585505 #
straight-curve $-1 -60.265511032441175 26.175871442756616 0 0 0 -1 I I #
plane-surface $-1 0 26.175871442756616 0 0 -1 0 0 0 -1 forward_v I I I I #
face $-1 $574 $575 $15 $-1 $576 reversed single #
loop $-1 $-1 $577 $439 #
plane-surface $-1 -51.43488168160917 0 -6.1981755127449105 -1 0 0 0 0 1 forward_v I I I I #
coedge $-1 $578 $579 $580 $581 reversed $440 $-1 #
coedge $-1 $582 $442 $583 $584 reversed $360 $-1 #
coedge $-1 $442 $582 $585 $586 reversed $360 $-1 #
coedge $-1 $587 $577 $442 $523 forward $517 $-1 #
edge $-1 $588 -26.175871442756616 $589 26.175871442756616 $522 $590 forward 7 unknown #
coedge $-1 $443 $455 $591 $592 forward $290 $-1 #
coedge $-1 $593 $444 $443 $526 reversed $373 $-1 #
edge $-1 $594 -26.175871442756616 $447 -19.652198301523235 $525 $459 forward 7 unknown #
vertex $-1 $451 $595 #
straight-curve $-1 60.265511032441175 -19.652198301523235 84.096518830073691 0 0 1 I I #
straight-curve $-1 -43.049739305598905 -19.652198301523235 64.877787322107295 -0.85716729658548041 0 0.51503808176128008 I I #
point $-1 60.265511032441175 -19.652198301523235 9.2795848827585505 #
point $-1 49.481206594509914 -19.652198301523235 9.2795848827585488 #
straight-curve $-1 60.265511032441175 -7.7184487659571159 2.7997209250837756 0 -1 0 I I #
coedge $-1 $453 $593 $596 $597 reversed $373 $-1 #
coedge $-1 $598 $456 $453 $535 forward $540 $-1 #
edge $-1 $458 -9.2795848827585505 $599 9.2795848827585505 $453 $600 forward 7 unknown #
plane-surface $-1 60.265511032441175 0 0 -1 0 0 0 0 1 forward_v I I I I #
coedge $-1 $601 $602 $455 $538 reversed $603 $-1 #
edge $-1 $541 -26.175871442756616 $604 26.175871442756616 $537 $605 forward 7 unknown #
coedge $-1 $456 $585 $601 $606 reversed $540 $-1 #
loop $-1 $-1 $585 $607 #
vertex $-1 $457 $608 #
straight-curve $-1 0 26.175871442756616 9.2795848827585505 -1 0 0 I I #
point $-1 60.265511032441175 26.175871442756616 9.2795848827585505 #
edge $-1 $466 -26.175871442756616 $468 26.175871442756616 $471 $609 forward 7 unknown #
straight-curve $-1 60.265511032441175 0 9.2795848827585505 0 1 0 I I #
point $-1 60.265511032441175 26.175871442756616 -9.2795848827585505 #
point $-1 60.265511032441175 -26.175871442756616 -9.2795848827585505 #
face $-1 $437 $506 $14 $-1 $610 reversed single #
plane-surface $-1 0 -26.175871442756616 0 0 1 0 0 0 1 forward_v I I I I #
coedge $-1 $611 $477 $509 $570 forward $406 $-1 #
coedge $-1 $477 $611 $556 $612 reversed $406 $-1 #
edge $-1 $557 -26.175871442756616 $554 26.175871442756616 $477 $613 forward 7 unknown #
straight-curve $-1 -51.43488168160917 -26.175871442756616 -3.0990877563724553 0 0 -1 I I #
vertex $-1 $570 $614 #
straight-curve $-1 -27.925098178512584 26.175871442756616 -8.4548475345431076 1 0 0 I I #
coedge $-1 $565 $483 $551 $612 forward $491 $-1 #
vertex $-1 $612 $615 #
straight-curve $-1 -27.925098178512584 -26.175871442756616 -8.4548475345431076 -1 0 0 I I #
point $-1 -51.43488168160917 26.175871442756616 -8.4548475345431076 #
point $-1 -51.43488168160917 -26.175871442756616 -8.4548475345431076 #
straight-curve $-1 -60.265511032441175 0 -3.9415034909467139 0 -1 0 I I #
point $-1 -60.265511032441168 -26.175871442756616 -3.9415034909467139 #
point $-1 -60.265511032441168 26.175871442756616 -3.9415034909467139 #
straight-curve $-1 -51.43488168160917 26.175871442756616 -3.0990877563724553 0 0 1 I I #
coedge $-1 $500 $556 $504 $568 reversed $491 $-1 #
straight-curve $-1 60.265511032441175 -26.175871442756616 0 0 0 -1 I I #
coedge $-1 $505 $504 $611 $616 forward $506 $-1 #
edge $-1 $507 -60.265511032441175 $617 60.265511032441175 $565 $618 forward 7 unknown #
point $-1 60.265511032441175 -26.175871442756616 -9.2795848827585505 #
edge $-1 $554 8.4548475345431076 $571 9.2795848827585505 $509 $514 forward 7 unknown #
vertex $-1 $510 $619 #
straight-curve $-1 0 26.175871442756616 -9.2795848827585505 1 0 0 I I #
straight-curve $-1 -60.265511032441175 -26.175871442756616 0 0 0 -1 I I #
face $-1 $620 $603 $15 $-1 $576 reversed single #
loop $-1 $-1 $621 $516 #
plane-surface $-1 -60.265511032441175 0 0 1 0 0 0 0 -1 forward_v I I I I #
coedge $-1 $522 $580 $622 $623 reversed $517 $-1 #
coedge $-1 $624 $519 $625 $626 reversed $440 $-1 #
coedge $-1 $519 $624 $627 $628 reversed $440 $-1 #
coedge $-1 $577 $587 $519 $581 forward $517 $-1 #
edge $-1 $629 -26.175871442756616 $630 26.175871442756616 $580 $631 forward 7 unknown #
coedge $-1 $521 $520 $632 $633 reversed $360 $-1 #
coedge $-1 $622 $634 $520 $584 forward $635 $-1 #
edge $-1 $636 -32.340412853928584 $588 -23.509783503096585 $583 $637 forward 7 unknown #
coedge $-1 $539 $638 $521 $586 forward $540 $-1 #
edge $-1 $589 23.509783503096585 $639 32.340412853928584 $585 $640 forward 7 unknown #
coedge $-1 $580 $522 $638 $641 reversed $517 $-1 #
vertex $-1 $584 $642 #
vertex $-1 $586 $643 #
straight-curve $-1 -51.43488168160917 0 -3.9415034909467139 0 1 0 I I #
coedge $-1 $634 $644 $524 $592 reversed $635 $-1 #
edge $-1 $604 -60.265511032441175 $594 60.265511032441175 $591 $645 forward 7 unknown #
coedge $-1 $533 $525 $644 $646 forward $373 $-1 #
vertex $-1 $526 $647 #
point $-1 60.265511032441168 -19.652198301523235 2.7997209250837827 #
coedge $-1 $648 $649 $533 $597 forward $650 $-1 #
edge $-1 $599 -26.175871442756616 $651 26.175871442756616 $533 $652 forward 7 unknown #
coedge $-1 $653 $534 $649 $654 reversed $540 $-1 #
vertex $-1 $597 $655 #
straight-curve $-1 60.265511032441175 26.175871442756616 0 0 0 -1 I I #
coedge $-1 $632 $537 $539 $606 forward $603 $-1 #
coedge $-1 $537 $632 $634 $656 reversed $603 $-1 #
loop $-1 $-1 $632 $574 #
vertex $-1 $538 $657 #
straight-curve $-1 -60.265511032441175 0 9.2795848827585505 0 -1 0 I I #
edge $-1 $541 -9.2795848827585505 $639 3.9415034909467139 $539 $658 forward 7 unknown #
face $-1 $454 $540 $15 $-1 $659 reversed single #
point $-1 -60.265511032441175 26.175871442756616 9.2795848827585505 #
straight-curve $-1 60.265511032441175 0 -9.2795848827585505 0 -1 0 I I #
plane-surface $-1 0 0 -9.2795848827585505 0 0 1 1 0 0 forward_v I I I I #
coedge $-1 $551 $550 $567 $616 reversed $406 $-1 #
edge $-1 $557 8.4548475345431076 $617 9.2795848827585505 $551 $573 forward 7 unknown #
straight-curve $-1 -60.265511032441175 0 -8.4548475345431076 0 1 0 I I #
point $-1 -60.265511032441168 26.175871442756616 -8.4548475345431076 #
point $-1 -60.265511032441168 -26.175871442756616 -8.4548475345431076 #
edge $-1 $617 -26.175871442756616 $571 26.175871442756616 $611 $660 forward 7 unknown #
vertex $-1 $616 $661 #
straight-curve $-1 0 -26.175871442756616 -9.2795848827585505 -1 0 0 I I #
point $-1 -60.265511032441175 26.175871442756616 -9.2795848827585505 #
face $-1 $662 $635 $15 $-1 $663 reversed single #
coedge $-1 $664 $665 $624 $666 forward $575 $-1 #
coedge $-1 $627 $583 $577 $623 forward $635 $-1 #
edge $-1 $588 0.84241573457425867 $630 5.3557597781706523 $622 $667 forward 7 unknown #
coedge $-1 $579 $578 $621 $666 reversed $440 $-1 #
coedge $-1 $638 $653 $578 $626 forward $540 $-1 #
edge $-1 $668 -32.340412853928584 $629 -23.509783503096585 $625 $669 forward 7 unknown #
coedge $-1 $670 $622 $579 $628 forward $635 $-1 #
edge $-1 $630 23.509783503096585 $671 32.340412853928584 $627 $672 forward 7 unknown #
vertex $-1 $626 $673 #
vertex $-1 $628 $674 #
straight-curve $-1 -51.43488168160917 0 -8.4548475345431076 0 -1 0 I I #
coedge $-1 $602 $601 $582 $633 forward $603 $-1 #
edge $-1 $639 -26.175871442756616 $636 26.175871442756616 $632 $675 forward 7 unknown #
coedge $-1 $583 $591 $602 $656 forward $635 $-1 #
loop $-1 $-1 $583 $620 #
vertex $-1 $584 $676 #
straight-curve $-1 -27.925098178512584 -26.175871442756616 -3.9415034909467139 1 0 0 I I #
coedge $-1 $585 $625 $587 $641 forward $540 $-1 #
vertex $-1 $633 $677 #
straight-curve $-1 -27.925098178512584 26.175871442756616 -3.9415034909467139 -1 0 0 I I #
edge $-1 $629 -5.3557597781706523 $589 -0.84241573457425867 $638 $678 forward 7 unknown #
point $-1 -51.43488168160917 -26.175871442756616 -3.9415034909467139 #
point $-1 -51.43488168160917 26.175871442756616 -3.9415034909467139 #
coedge $-1 $591 $679 $593 $646 reversed $635 $-1 #
straight-curve $-1 0 -26.175871442756616 9.2795848827585505 1 0 0 I I #
edge $-1 $594 -9.2795848827585505 $651 9.2795848827585505 $593 $680 forward 7 unknown #
point $-1 60.265511032441175 -26.175871442756616 9.2795848827585505 #
coedge $-1 $681 $596 $679 $682 forward $650 $-1 #
coedge $-1 $596 $681 $598 $654 forward $650 $-1 #
loop $-1 $-1 $596 $662 #
vertex $-1 $646 $683 #
straight-curve $-1 60.265511032441175 0 -9.2795848827585505 0 -1 0 I I #
coedge $-1 $625 $598 $664 $684 reversed $540 $-1 #
edge $-1 $685 -60.265511032441175 $599 60.265511032441175 $598 $686 forward 7 unknown #
point $-1 60.265511032441175 26.175871442756616 -9.2795848827585505 #
edge $-1 $604 -9.2795848827585505 $636 3.9415034909467139 $602 $687 forward 7 unknown #
point $-1 -60.265511032441175 -26.175871442756616 9.2795848827585505 #
straight-curve $-1 -60.265511032441175 26.175871442756616 0 0 0 -1 I I #
plane-surface $-1 0 26.175871442756616 0 0 -1 0 0 0 -1 forward_v I I I I #
straight-curve $-1 -60.265511032441175 0 -9.2795848827585505 0 1 0 I I #
point $-1 -60.265511032441175 -26.175871442756616 -9.2795848827585505 #
face $-1 $607 $650 $15 $-1 $688 reversed single #
plane-surface $-1 0 -26.175871442756616 0 0 1 0 0 0 1 forward_v I I I I #
coedge $-1 $689 $621 $653 $684 forward $575 $-1 #
coedge $-1 $621 $689 $670 $690 reversed $575 $-1 #
edge $-1 $671 -26.175871442756616 $668 26.175871442756616 $621 $691 forward 7 unknown #
straight-curve $-1 -51.43488168160917 -26.175871442756616 -3.0990877563724553 0 0 -1 I I #
vertex $-1 $684 $692 #
straight-curve $-1 -27.925098178512584 26.175871442756616 -8.4548475345431076 1 0 0 I I #
coedge $-1 $679 $627 $665 $690 forward $635 $-1 #
vertex $-1 $690 $693 #
straight-curve $-1 -27.925098178512584 -26.175871442756616 -8.4548475345431076 -1 0 0 I I #
point $-1 -51.43488168160917 26.175871442756616 -8.4548475345431076 #
point $-1 -51.43488168160917 -26.175871442756616 -8.4548475345431076 #
straight-curve $-1 -60.265511032441175 0 -3.9415034909467139 0 -1 0 I I #
point $-1 -60.265511032441168 -26.175871442756616 -3.9415034909467139 #
point $-1 -60.265511032441168 26.175871442756616 -3.9415034909467139 #
straight-curve $-1 -51.43488168160917 26.175871442756616 -3.0990877563724553 0 0 1 I I #
coedge $-1 $644 $670 $648 $682 reversed $635 $-1 #
straight-curve $-1 60.265511032441175 -26.175871442756616 0 0 0 -1 I I #
coedge $-1 $649 $648 $689 $694 forward $650 $-1 #
edge $-1 $651 -60.265511032441175 $695 60.265511032441175 $679 $696 forward 7 unknown #
point $-1 60.265511032441175 -26.175871442756616 -9.2795848827585505 #
edge $-1 $668 8.4548475345431076 $685 9.2795848827585505 $653 $658 forward 7 unknown #
vertex $-1 $654 $697 #
straight-curve $-1 0 26.175871442756616 -9.2795848827585505 1 0 0 I I #
straight-curve $-1 -60.265511032441175 -26.175871442756616 0 0 0 -1 I I #
plane-surface $-1 0 0 -9.2795848827585505 0 0 1 1 0 0 forward_v I I I I #
coedge $-1 $665 $664 $681 $694 reversed $575 $-1 #
edge $-1 $671 8.4548475345431076 $695 9.2795848827585505 $665 $687 forward 7 unknown #
straight-curve $-1 -60.265511032441175 0 -8.4548475345431076 0 1 0 I I #
point $-1 -60.265511032441168 26.175871442756616 -8.4548475345431076 #
point $-1 -60.265511032441168 -26.175871442756616 -8.4548475345431076 #
edge $-1 $695 -26.175871442756616 $685 26.175871442756616 $689 $698 forward 7 unknown #
vertex $-1 $694 $699 #
straight-curve $-1 0 -26.175871442756616 -9.2795848827585505 -1 0 0 I I #
point $-1 -60.265511032441175 26.175871442756616 -9.2795848827585505 #
straight-curve $-1 -60.265511032441175 0 -9.2795848827585505 0 1 0 I I #
point $-1 -60.265511032441175 -26.175871442756616 -9.2795848827585505 #
End-of-ACIS-data 