500 0 4 0           
7 Unknown 11 ACIS 5.0 NT 24 Fri Mar 26 00:15:26 1999 
-1 9.9999999999999995e-007 1e-010 
body $-1 $4 $-1 $5 #
body $-1 $6 $-1 $7 #
body $-1 $8 $-1 $9 #
body $-1 $10 $-1 $11 #
lump $-1 $-1 $12 $0 #
transform $-1 1 0 0 0 1 0 0 0 1 55.635242774742878 28.666573729281637 10.222139574115587 1 rotate no_reflect no_shear #
lump $-1 $-1 $13 $1 #
transform $-1 1 0 0 0 1 0 0 0 1 55.635242774742878 28.666573729281637 10.222139574115587 1 rotate no_reflect no_shear #
lump $-1 $-1 $14 $2 #
transform $-1 1 0 0 0 1 0 0 0 1 55.635242774742878 28.666573729281637 10.222139574115587 1 rotate no_reflect no_shear #
lump $-1 $-1 $15 $3 #
transform $-1 1 0 0 0 1 0 0 0 1 55.635242774742878 28.666573729281637 10.222139574115587 1 rotate no_reflect no_shear #
shell $-1 $-1 $-1 $16 $-1 $4 #
shell $-1 $-1 $-1 $17 $-1 $6 #
shell $-1 $-1 $-1 $18 $-1 $8 #
shell $-1 $-1 $-1 $19 $-1 $10 #
face $-1 $20 $21 $12 $-1 $22 forward single #
face $-1 $23 $24 $13 $-1 $25 forward single #
face $-1 $26 $27 $14 $-1 $28 forward single #
face $-1 $29 $30 $15 $-1 $31 reversed single #
face $-1 $32 $33 $12 $-1 $34 reversed single #
loop $-1 $-1 $35 $16 #
plane-surface $-1 0 0 10.222139574115587 0 0 1 1 0 0 forward_v I I I I #
face $-1 $36 $37 $13 $-1 $38 forward single #
loop $-1 $-1 $39 $17 #
plane-surface $-1 -54.0184869428738 -16.460202903211709 0 0 -1 0 0 0 -1 forward_v I I I I #
face $-1 $40 $41 $14 $-1 $42 forward single #
loop $-1 $-1 $43 $18 #
plane-surface $-1 22.497916222493771 86.92907860315448 111.89799454293374 1 0 0 0 -0.81915205242281985 -0.57357642473473569 forward_v I I I I #
face $-1 $44 $45 $15 $-1 $46 reversed single #
loop $-1 $47 $48 $19 #
cone-surface $-1 39.066579498618324 24.707787992734637 5.1282280776042919 0 -0.81915205242281985 -0.57357642473473569 1.5 0 0 1 I I 0 1 1.5 forward I I I I #
face $-1 $49 $50 $12 $-1 $51 reversed single #
loop $-1 $-1 $52 $20 #
plane-surface $-1 0 0 -10.222139574115587 0 0 1 1 0 0 forward_v I I I I #
coedge $-1 $53 $54 $55 $56 forward $21 $-1 #
face $-1 $57 $58 $13 $-1 $59 forward single #
loop $-1 $-1 $60 $23 #
plane-surface $-1 -52.401731111004722 -22.563388316246673 0 -1 0 0 0 0 1 forward_v I I I I #
coedge $-1 $61 $62 $63 $64 reversed $24 $-1 #
face $-1 $65 $66 $14 $-1 $67 forward single #
loop $-1 $-1 $68 $26 #
plane-surface $-1 39.066579498618324 -4.2183680087904918 48.07586726296163 0 0.81915205242281985 0.57357642473473569 1 0 0 forward_v I I I I #
coedge $-1 $69 $70 $71 $72 reversed $27 $-1 #
face $-1 $73 $74 $15 $-1 $75 forward single #
loop $-1 $76 $77 $29 #
cone-surface $-1 39.066579498618324 23.324376747366614 4.1595531243900581 0 -0.81915205242281985 -0.57357642473473569 0.75 0 0 1 I I -0.70710678118654757 0.70710678118654757 0.75 forward I I I I #
loop $-1 $-1 $78 $19 #
coedge $-1 $48 $48 $79 $80 reversed $30 $-1 #
face $-1 $81 $82 $12 $-1 $83 reversed single #
loop $-1 $-1 $84 $32 #
plane-surface $-1 0 -28.666573729281637 0 0 1 0 0 0 1 forward_v I I I I #
coedge $-1 $85 $86 $87 $88 forward $33 $-1 #
coedge $-1 $89 $35 $90 $91 forward $21 $-1 #
coedge $-1 $35 $89 $92 $93 forward $21 $-1 #
coedge $-1 $94 $95 $35 $56 reversed $96 $-1 #
edge $-1 $97 -28.666573729281637 $98 28.666573729281637 $55 $99 forward 7 unknown #
face $-1 $100 $101 $13 $-1 $102 reversed single #
loop $-1 $-1 $103 $36 #
plane-surface $-1 0 0 10.222139574115587 0 0 1 1 0 0 forward_v I I I I #
coedge $-1 $104 $105 $106 $107 reversed $37 $-1 #
coedge $-1 $108 $39 $103 $109 reversed $24 $-1 #
coedge $-1 $39 $108 $110 $111 reversed $24 $-1 #
coedge $-1 $105 $104 $39 $64 forward $37 $-1 #
edge $-1 $112 -10.222139574115587 $113 10.222139574115587 $63 $114 forward 7 unknown #
face $-1 $115 $116 $14 $-1 $117 reversed single #
loop $-1 $-1 $118 $40 #
plane-surface $-1 0 0 10.222139574115587 0 0 1 1 0 0 forward_v I I I I #
coedge $-1 $119 $120 $118 $121 reversed $41 $-1 #
coedge $-1 $70 $43 $120 $122 forward $27 $-1 #
coedge $-1 $43 $69 $123 $124 reversed $27 $-1 #
coedge $-1 $125 $118 $43 $72 forward $66 $-1 #
edge $-1 $126 -21.177442633287797 $127 -14.797965572295602 $71 $128 forward 7 unknown #
face $-1 $129 $130 $15 $-1 $131 forward single #
loop $-1 $-1 $132 $44 #
plane-surface $-1 22.497916222493771 86.92907860315448 111.89799454293374 1 0 0 0 -0.81915205242281985 -0.57357642473473569 forward_v I I I I #
loop $-1 $-1 $133 $29 #
coedge $-1 $77 $77 $78 $134 forward $45 $-1 #
coedge $-1 $78 $78 $77 $134 reversed $47 $-1 #
coedge $-1 $79 $79 $48 $80 forward $130 $-1 #
edge $-1 $135 1.1632798555566339e-015 $135 6.2831853071796013 $79 $136 forward 7 unknown #
face $-1 $137 $138 $12 $-1 $139 reversed single #
loop $-1 $-1 $140 $49 #
plane-surface $-1 -55.635242774742878 0 0 1 0 0 0 0 -1 forward_v I I I I #
coedge $-1 $141 $92 $142 $143 forward $50 $-1 #
coedge $-1 $144 $52 $141 $145 forward $33 $-1 #
coedge $-1 $52 $144 $146 $147 forward $33 $-1 #
coedge $-1 $95 $94 $52 $88 reversed $96 $-1 #
edge $-1 $148 -28.666573729281637 $149 28.666573729281637 $87 $150 forward 7 unknown #
coedge $-1 $54 $53 $151 $152 forward $21 $-1 #
coedge $-1 $153 $154 $53 $91 reversed $138 $-1 #
edge $-1 $98 -55.635242774742878 $155 55.635242774742878 $90 $156 forward 7 unknown #
coedge $-1 $84 $157 $54 $93 reversed $50 $-1 #
edge $-1 $158 -55.635242774742878 $97 55.635242774742878 $92 $159 forward 7 unknown #
coedge $-1 $87 $55 $157 $160 forward $96 $-1 #
coedge $-1 $55 $87 $153 $161 reversed $96 $-1 #
loop $-1 $-1 $94 $137 #
vertex $-1 $56 $162 #
vertex $-1 $56 $163 #
straight-curve $-1 55.635242774742878 0 10.222139574115587 0 1 0 I I #
face $-1 $164 $165 $13 $-1 $166 reversed single #
loop $-1 $-1 $106 $57 #
plane-surface $-1 0 -28.666573729281637 0 0 1 0 0 0 1 forward_v I I I I #
coedge $-1 $167 $168 $61 $109 forward $58 $-1 #
coedge $-1 $63 $60 $167 $169 reversed $37 $-1 #
coedge $-1 $60 $63 $170 $171 reversed $37 $-1 #
coedge $-1 $172 $173 $60 $107 forward $101 $-1 #
edge $-1 $174 -10.222139574115587 $175 10.222139574115587 $106 $176 forward 7 unknown #
coedge $-1 $62 $61 $177 $178 reversed $24 $-1 #
edge $-1 $179 -28.625999303305978 $112 -25.392487639567822 $103 $180 forward 7 unknown #
coedge $-1 $181 $170 $62 $111 forward $165 $-1 #
edge $-1 $113 25.392487639567822 $182 28.625999303305978 $110 $183 forward 7 unknown #
vertex $-1 $109 $184 #
vertex $-1 $111 $185 #
straight-curve $-1 -52.401731111004722 -16.460202903211709 0 0 0 -1 I I #
face $-1 $186 $187 $14 $-1 $188 forward single #
loop $-1 $-1 $123 $65 #
plane-surface $-1 0 28.666573729281637 0 0 -1 0 0 0 -1 forward_v I I I I #
coedge $-1 $71 $189 $68 $121 forward $66 $-1 #
coedge $-1 $190 $68 $191 $192 reversed $41 $-1 #
coedge $-1 $68 $190 $69 $122 reversed $41 $-1 #
edge $-1 $193 -36.101953025433716 $126 -2.9646264731846088 $118 $194 forward 7 unknown #
edge $-1 $126 46.210868393585095 $195 57.333147458563303 $69 $196 forward 7 unknown #
coedge $-1 $197 $198 $70 $124 forward $116 $-1 #
edge $-1 $127 45.726857697351285 $195 54.837695421047542 $123 $199 forward 7 unknown #
coedge $-1 $200 $71 $198 $201 forward $66 $-1 #
vertex $-1 $121 $202 #
vertex $-1 $201 $203 #
straight-curve $-1 22.497916222493771 43.46453930157724 10.222139574115587 0 1 0 I I #
face $-1 $204 $205 $15 $-1 $206 forward single #
loop $-1 $207 $79 $73 #
plane-surface $-1 39.066579498618324 -4.2183680087904918 48.07586726296163 0 0.81915205242281985 0.57357642473473569 1 0 0 forward_v I I I I #
coedge $-1 $208 $209 $210 $211 reversed $74 $-1 #
coedge $-1 $133 $133 $-1 $212 forward $76 $-1 #
edge $-1 $213 0 $213 6.2831853071796004 $77 $214 forward 7 unknown #
vertex $-1 $80 $215 #
ellipse-curve $-1 39.066579498618324 25.476835198785537 5.666720712267467 0 -0.81915205242281985 -0.57357642473473569 1.5 0 0 1 I I #
face $-1 $-1 $96 $12 $-1 $216 reversed single #
loop $-1 $-1 $153 $81 #
plane-surface $-1 0 28.666573729281637 0 0 -1 0 0 0 -1 forward_v I I I I #
coedge $-1 $217 $151 $154 $218 forward $82 $-1 #
coedge $-1 $157 $84 $85 $145 reversed $50 $-1 #
coedge $-1 $151 $217 $84 $143 reversed $82 $-1 #
edge $-1 $158 -10.222139574115587 $219 10.222139574115587 $142 $220 forward 7 unknown #
coedge $-1 $86 $85 $217 $221 forward $33 $-1 #
edge $-1 $149 -55.635242774742878 $219 55.635242774742878 $141 $222 forward 7 unknown #
coedge $-1 $154 $153 $86 $147 reversed $138 $-1 #
edge $-1 $223 -55.635242774742878 $148 55.635242774742878 $146 $224 forward 7 unknown #
vertex $-1 $88 $225 #
vertex $-1 $160 $226 #
straight-curve $-1 55.635242774742878 0 -10.222139574115587 0 -1 0 I I #
coedge $-1 $140 $142 $89 $152 reversed $82 $-1 #
edge $-1 $155 -28.666573729281637 $158 28.666573729281637 $151 $227 forward 7 unknown #
coedge $-1 $146 $90 $95 $161 forward $138 $-1 #
coedge $-1 $90 $146 $140 $218 reversed $138 $-1 #
vertex $-1 $91 $228 #
straight-curve $-1 0 28.666573729281637 10.222139574115587 -1 0 0 I I #
coedge $-1 $92 $141 $94 $160 reversed $50 $-1 #
vertex $-1 $152 $229 #
straight-curve $-1 0 -28.666573729281637 10.222139574115587 1 0 0 I I #
edge $-1 $97 -10.222139574115587 $149 10.222139574115587 $94 $230 forward 7 unknown #
edge $-1 $98 -10.222139574115587 $148 10.222139574115587 $95 $231 forward 7 unknown #
point $-1 55.635242774742878 -28.666573729281637 10.222139574115587 #
point $-1 55.635242774742878 28.666573729281637 10.222139574115587 #
face $-1 $232 $233 $13 $-1 $234 reversed single #
loop $-1 $-1 $110 $100 #
plane-surface $-1 0 0 -10.222139574115587 0 0 1 1 0 0 forward_v I I I I #
coedge $-1 $235 $103 $104 $169 forward $58 $-1 #
coedge $-1 $103 $236 $237 $238 forward $58 $-1 #
edge $-1 $112 5.1785087450883722 $174 17.384879571158301 $167 $239 forward 7 unknown #
coedge $-1 $110 $240 $105 $171 forward $165 $-1 #
edge $-1 $175 -17.384879571158301 $113 -5.1785087450883722 $170 $241 forward 7 unknown #
coedge $-1 $242 $106 $240 $243 reversed $101 $-1 #
coedge $-1 $106 $242 $235 $244 reversed $101 $-1 #
vertex $-1 $244 $245 #
vertex $-1 $107 $246 #
straight-curve $-1 -52.401731111004722 -28.666573729281637 0 0 0 -1 I I #
coedge $-1 $237 $247 $108 $178 forward $233 $-1 #
edge $-1 $182 -10.222139574115587 $179 10.222139574115587 $177 $248 forward 7 unknown #
vertex $-1 $178 $249 #
straight-curve $-1 -27.0092434714369 -16.460202903211709 10.222139574115587 1 0 0 I I #
coedge $-1 $250 $110 $247 $251 forward $165 $-1 #
vertex $-1 $251 $252 #
straight-curve $-1 -27.0092434714369 -16.460202903211709 -10.222139574115587 -1 0 0 I I #
point $-1 -52.401731111004722 -16.460202903211709 10.222139574115587 #
point $-1 -52.401731111004722 -16.460202903211709 -10.222139574115587 #
face $-1 $253 $254 $14 $-1 $255 forward single #
loop $-1 $-1 $256 $115 #
plane-surface $-1 -54.0184869428738 -16.460202903211709 0 0 -1 0 0 0 -1 forward_v I I I I #
coedge $-1 $118 $257 $258 $259 forward $66 $-1 #
coedge $-1 $120 $119 $197 $260 reversed $41 $-1 #
coedge $-1 $258 $261 $119 $192 forward $262 $-1 #
edge $-1 $263 -36.432646567983539 $193 -25.310367503005338 $191 $264 forward 7 unknown #
vertex $-1 $192 $265 #
straight-curve $-1 19.533289749309162 22.287096668289443 10.222139574115587 -1 0 0 I I #
vertex $-1 $260 $266 #
straight-curve $-1 22.497916222493771 -4.2183680087904918 48.07586726296163 0 0.57357642473473569 -0.81915205242281985 I I #
coedge $-1 $267 $123 $190 $260 forward $116 $-1 #
coedge $-1 $123 $268 $125 $201 reversed $116 $-1 #
straight-curve $-1 22.497916222493771 28.666573729281637 55.948997271466872 0 0 -1 I I #
coedge $-1 $269 $125 $270 $271 forward $66 $-1 #
edge $-1 $127 -22.497916222493771 $272 55.635242774742878 $198 $273 forward 7 unknown #
point $-1 22.497916222493771 22.287096668289443 10.222139574115587 #
point $-1 22.497916222493771 28.666573729281637 10.222139574115587 #
face $-1 $274 $275 $15 $-1 $276 reversed single #
loop $-1 $-1 $277 $129 #
plane-surface $-1 0 0 10.222139574115587 0 0 1 1 0 0 forward_v I I I I #
loop $-1 $-1 $278 $73 #
coedge $-1 $209 $132 $279 $280 forward $74 $-1 #
coedge $-1 $132 $208 $281 $282 reversed $74 $-1 #
coedge $-1 $283 $277 $132 $211 forward $205 $-1 #
edge $-1 $284 -21.177442633287797 $285 -14.797965572295602 $210 $286 forward 7 unknown #
edge $-1 $287 1 $287 0 $133 $-1 forward 7 unknown #
vertex $-1 $134 $288 #
ellipse-curve $-1 39.066579498618324 23.938740786683727 4.5897354429411097 0 0.81915205242281985 0.57357642473473569 1.5 0 0 1 I I #
point $-1 40.566579498618324 25.476835198785544 5.6667207122674741 #
plane-surface $-1 55.635242774742878 0 0 -1 0 0 0 0 1 forward_v I I I I #
coedge $-1 $142 $140 $144 $221 reversed $82 $-1 #
edge $-1 $155 -10.222139574115587 $223 10.222139574115587 $154 $289 forward 7 unknown #
vertex $-1 $221 $290 #
straight-curve $-1 -55.635242774742878 -28.666573729281637 0 0 0 -1 I I #
edge $-1 $219 -28.666573729281637 $223 28.666573729281637 $217 $291 forward 7 unknown #
straight-curve $-1 0 -28.666573729281637 -10.222139574115587 -1 0 0 I I #
vertex $-1 $147 $292 #
straight-curve $-1 0 28.666573729281637 -10.222139574115587 1 0 0 I I #
point $-1 55.635242774742878 28.666573729281637 -10.222139574115587 #
point $-1 55.635242774742878 -28.666573729281637 -10.222139574115587 #
straight-curve $-1 -55.635242774742878 0 10.222139574115587 0 -1 0 I I #
point $-1 -55.635242774742878 28.666573729281637 10.222139574115587 #
point $-1 -55.635242774742878 -28.666573729281637 10.222139574115587 #
straight-curve $-1 55.635242774742878 -28.666573729281637 0 0 0 -1 I I #
straight-curve $-1 55.635242774742878 28.666573729281637 0 0 0 -1 I I #
face $-1 $293 $294 $13 $-1 $295 reversed single #
loop $-1 $-1 $177 $164 #
plane-surface $-1 -55.635242774742878 0 0 1 0 0 0 0 -1 forward_v I I I I #
coedge $-1 $296 $167 $173 $244 forward $58 $-1 #
coedge $-1 $168 $296 $297 $298 forward $58 $-1 #
coedge $-1 $299 $177 $168 $238 reversed $233 $-1 #
edge $-1 $300 -28.666573729281637 $179 16.460202903211709 $237 $301 forward 7 unknown #
straight-curve $-1 -52.401731111004722 -11.281694158123337 10.222139574115587 0 -1 0 I I #
coedge $-1 $170 $302 $172 $243 forward $165 $-1 #
straight-curve $-1 -52.401731111004722 -11.281694158123337 -10.222139574115587 0 1 0 I I #
coedge $-1 $173 $172 $303 $304 reversed $101 $-1 #
edge $-1 $305 -55.635242774742878 $175 52.401731111004722 $172 $306 forward 7 unknown #
edge $-1 $174 -52.401731111004722 $307 55.635242774742878 $173 $308 forward 7 unknown #
point $-1 -52.401731111004722 -28.666573729281637 10.222139574115587 #
point $-1 -52.401731111004722 -28.666573729281637 -10.222139574115587 #
coedge $-1 $177 $299 $181 $251 reversed $233 $-1 #
straight-curve $-1 -55.635242774742878 -16.460202903211709 0 0 0 1 I I #
point $-1 -55.635242774742878 -16.460202903211709 10.222139574115587 #
coedge $-1 $302 $181 $309 $310 forward $165 $-1 #
edge $-1 $182 -16.460202903211709 $311 28.666573729281637 $247 $312 forward 7 unknown #
point $-1 -55.635242774742878 -16.460202903211709 -10.222139574115587 #
face $-1 $313 $314 $14 $-1 $315 reversed single #
loop $-1 $-1 $316 $186 #
plane-surface $-1 -52.401731111004722 -22.563388316246673 0 -1 0 0 0 0 1 forward_v I I I I #
coedge $-1 $317 $318 $319 $320 reversed $187 $-1 #
coedge $-1 $189 $321 $322 $323 forward $66 $-1 #
coedge $-1 $324 $191 $189 $259 reversed $262 $-1 #
edge $-1 $325 -28.666573729281637 $193 22.287096668289443 $258 $326 forward 7 unknown #
edge $-1 $195 2.9646264731846088 $263 36.101953025433716 $197 $327 forward 7 unknown #
coedge $-1 $191 $328 $267 $329 reversed $262 $-1 #
loop $-1 $-1 $191 $330 #
vertex $-1 $329 $331 #
straight-curve $-1 55.635242774742878 7.7696665671934024 30.955179061778253 0 -0.57357642473473569 0.81915205242281985 I I #
point $-1 55.635242774742878 22.287096668289443 10.222139574115587 #
point $-1 22.497916222493771 28.666573729281637 1.1113018504193306 #
coedge $-1 $332 $197 $261 $329 forward $116 $-1 #
coedge $-1 $198 $332 $333 $334 reversed $116 $-1 #
coedge $-1 $321 $200 $317 $335 forward $66 $-1 #
coedge $-1 $333 $336 $200 $271 reversed $337 $-1 #
edge $-1 $272 -28.666573729281637 $338 16.460202903211709 $270 $339 forward 7 unknown #
vertex $-1 $201 $340 #
straight-curve $-1 0 28.666573729281637 10.222139574115587 -1 0 0 I I #
face $-1 $341 $342 $15 $-1 $343 forward single #
loop $-1 $-1 $281 $204 #
plane-surface $-1 0 28.666573729281637 0 0 -1 0 0 0 -1 forward_v I I I I #
coedge $-1 $210 $344 $278 $345 forward $205 $-1 #
coedge $-1 $346 $279 $277 $345 reversed $207 $-1 #
coedge $-1 $278 $347 $208 $280 reversed $207 $-1 #
edge $-1 $284 46.210868393585095 $348 57.333147458563303 $208 $349 forward 7 unknown #
coedge $-1 $350 $351 $209 $282 forward $275 $-1 #
edge $-1 $285 45.726857697351285 $348 54.837695421047542 $281 $352 forward 7 unknown #
coedge $-1 $353 $210 $351 $354 forward $205 $-1 #
vertex $-1 $345 $355 #
vertex $-1 $354 $356 #
straight-curve $-1 22.497916222493771 43.46453930157724 10.222139574115587 0 1 0 I I #
vertex $-1 $212 $357 #
point $-1 40.566579498618324 23.938740786683727 4.5897354429411097 #
straight-curve $-1 -55.635242774742878 28.666573729281637 0 0 0 -1 I I #
point $-1 -55.635242774742878 -28.666573729281637 -10.222139574115587 #
straight-curve $-1 -55.635242774742878 0 -10.222139574115587 0 1 0 I I #
point $-1 -55.635242774742878 28.666573729281637 -10.222139574115587 #
face $-1 $-1 $358 $13 $-1 $359 reversed single #
loop $-1 $-1 $360 $232 #
plane-surface $-1 0 28.666573729281637 0 0 -1 0 0 0 -1 forward_v I I I I #
coedge $-1 $236 $235 $361 $362 forward $58 $-1 #
coedge $-1 $360 $363 $236 $298 reversed $294 $-1 #
edge $-1 $364 -55.635242774742878 $300 55.635242774742878 $297 $365 forward 7 unknown #
coedge $-1 $247 $237 $363 $366 forward $233 $-1 #
vertex $-1 $298 $367 #
straight-curve $-1 -55.635242774742878 0 10.222139574115587 0 -1 0 I I #
coedge $-1 $240 $250 $368 $369 forward $165 $-1 #
coedge $-1 $368 $361 $242 $304 forward $358 $-1 #
edge $-1 $307 -10.222139574115587 $305 10.222139574115587 $303 $370 forward 7 unknown #
vertex $-1 $304 $371 #
straight-curve $-1 0 -28.666573729281637 -10.222139574115587 -1 0 0 I I #
vertex $-1 $362 $372 #
straight-curve $-1 0 -28.666573729281637 10.222139574115587 1 0 0 I I #
coedge $-1 $363 $360 $250 $310 reversed $294 $-1 #
edge $-1 $311 -55.635242774742878 $373 55.635242774742878 $309 $374 forward 7 unknown #
vertex $-1 $310 $375 #
straight-curve $-1 -55.635242774742878 0 -10.222139574115587 0 1 0 I I #
face $-1 $376 $377 $14 $-1 $378 reversed single #
loop $-1 $-1 $379 $253 #
plane-surface $-1 0 -28.666573729281637 0 0 1 0 0 0 1 forward_v I I I I #
coedge $-1 $380 $381 $379 $382 reversed $254 $-1 #
coedge $-1 $383 $256 $269 $335 reversed $187 $-1 #
coedge $-1 $256 $383 $384 $385 reversed $187 $-1 #
coedge $-1 $381 $380 $256 $320 forward $254 $-1 #
edge $-1 $386 -10.222139574115587 $387 10.222139574115587 $319 $388 forward 7 unknown #
coedge $-1 $257 $269 $380 $389 forward $66 $-1 #
coedge $-1 $379 $390 $257 $323 reversed $314 $-1 #
edge $-1 $391 -52.401731111004722 $325 55.635242774742878 $322 $392 forward 7 unknown #
coedge $-1 $328 $258 $390 $393 forward $262 $-1 #
vertex $-1 $259 $394 #
straight-curve $-1 55.635242774742878 0 10.222139574115587 0 1 0 I I #
straight-curve $-1 19.533289749309162 28.666573729281637 1.1113018504193377 1 0 0 I I #
coedge $-1 $261 $324 $395 $396 reversed $262 $-1 #
edge $-1 $263 -1.1113018504193306 $397 10.222139574115587 $261 $398 forward 7 unknown #
face $-1 $-1 $262 $14 $-1 $399 reversed single #
point $-1 55.635242774742878 28.666573729281637 1.1113018504193306 #
coedge $-1 $268 $267 $400 $401 reversed $116 $-1 #
coedge $-1 $402 $270 $268 $334 forward $337 $-1 #
edge $-1 $272 -10.222139574115587 $403 10.222139574115587 $268 $404 forward 7 unknown #
edge $-1 $338 -28.625999303305978 $386 -25.392487639567822 $269 $405 forward 7 unknown #
coedge $-1 $270 $402 $383 $406 forward $337 $-1 #
loop $-1 $-1 $336 $376 #
vertex $-1 $406 $407 #
straight-curve $-1 -55.635242774742878 0 10.222139574115587 0 -1 0 I I #
point $-1 -55.635242774742878 28.666573729281637 10.222139574115587 #
face $-1 $408 $409 $15 $-1 $410 forward single #
loop $-1 $-1 $411 $274 #
plane-surface $-1 -54.0184869428738 -16.460202903211709 0 0 -1 0 0 0 -1 forward_v I I I I #
coedge $-1 $277 $412 $413 $414 forward $205 $-1 #
edge $-1 $415 -36.101953025433716 $284 -2.9646264731846088 $277 $416 forward 7 unknown #
coedge $-1 $347 $278 $417 $418 reversed $207 $-1 #
coedge $-1 $279 $346 $350 $419 reversed $207 $-1 #
vertex $-1 $419 $420 #
straight-curve $-1 22.497916222493771 -4.2183680087904918 48.07586726296163 0 0.57357642473473569 -0.81915205242281985 I I #
coedge $-1 $421 $281 $347 $419 forward $275 $-1 #
coedge $-1 $281 $422 $283 $354 reversed $275 $-1 #
straight-curve $-1 22.497916222493771 28.666573729281637 55.948997271466872 0 0 -1 I I #
coedge $-1 $423 $283 $424 $425 forward $205 $-1 #
edge $-1 $285 -22.497916222493771 $426 55.635242774742878 $351 $427 forward 7 unknown #
point $-1 22.497916222493771 22.287096668289443 10.222139574115587 #
point $-1 22.497916222493771 28.666573729281637 10.222139574115587 #
point $-1 39.066579498618324 22.710012708049501 3.7293708058390065 #
loop $-1 $-1 $303 $293 #
plane-surface $-1 55.635242774742878 0 0 -1 0 0 0 0 1 forward_v I I I I #
coedge $-1 $309 $297 $428 $429 forward $294 $-1 #
coedge $-1 $303 $428 $296 $362 reversed $358 $-1 #
edge $-1 $307 -28.666573729281637 $364 28.666573729281637 $361 $430 forward 7 unknown #
coedge $-1 $297 $309 $299 $366 reversed $294 $-1 #
vertex $-1 $362 $431 #
straight-curve $-1 0 28.666573729281637 10.222139574115587 -1 0 0 I I #
edge $-1 $300 -10.222139574115587 $311 10.222139574115587 $363 $432 forward 7 unknown #
point $-1 -55.635242774742878 28.666573729281637 10.222139574115587 #
coedge $-1 $428 $303 $302 $369 reversed $358 $-1 #
edge $-1 $373 -28.666573729281637 $305 28.666573729281637 $368 $433 forward 7 unknown #
straight-curve $-1 55.635242774742878 -28.666573729281637 0 0 0 -1 I I #
point $-1 55.635242774742878 -28.666573729281637 -10.222139574115587 #
point $-1 55.635242774742878 -28.666573729281637 10.222139574115587 #
vertex $-1 $369 $434 #
straight-curve $-1 0 28.666573729281637 -10.222139574115587 1 0 0 I I #
point $-1 -55.635242774742878 28.666573729281637 -10.222139574115587 #
face $-1 $330 $337 $14 $-1 $435 reversed single #
loop $-1 $-1 $384 $313 #
plane-surface $-1 0 0 -10.222139574115587 0 0 1 1 0 0 forward_v I I I I #
coedge $-1 $436 $322 $316 $382 forward $314 $-1 #
coedge $-1 $319 $316 $321 $389 reversed $254 $-1 #
coedge $-1 $316 $319 $437 $438 reversed $254 $-1 #
edge $-1 $391 -10.222139574115587 $439 10.222139574115587 $379 $440 forward 7 unknown #
coedge $-1 $318 $317 $336 $406 reversed $187 $-1 #
coedge $-1 $441 $437 $318 $385 forward $377 $-1 #
edge $-1 $387 25.392487639567822 $442 28.625999303305978 $384 $443 forward 7 unknown #
vertex $-1 $335 $444 #
vertex $-1 $385 $445 #
straight-curve $-1 -52.401731111004722 -16.460202903211709 0 0 0 -1 I I #
edge $-1 $386 5.1785087450883722 $391 17.384879571158301 $321 $446 forward 7 unknown #
coedge $-1 $322 $436 $324 $393 reversed $314 $-1 #
vertex $-1 $323 $447 #
straight-curve $-1 0 -28.666573729281637 10.222139574115587 1 0 0 I I #
edge $-1 $325 -10.222139574115587 $448 10.222139574115587 $324 $449 forward 7 unknown #
point $-1 55.635242774742878 -28.666573729281637 10.222139574115587 #
coedge $-1 $450 $400 $328 $396 forward $377 $-1 #
edge $-1 $397 -28.666573729281637 $448 28.666573729281637 $328 $451 forward 7 unknown #
vertex $-1 $396 $452 #
straight-curve $-1 55.635242774742878 28.666573729281637 0 0 0 -1 I I #
plane-surface $-1 55.635242774742878 0 0 -1 0 0 0 0 1 forward_v I I I I #
coedge $-1 $395 $441 $332 $401 forward $377 $-1 #
edge $-1 $403 -55.635242774742878 $397 55.635242774742878 $332 $453 forward 7 unknown #
coedge $-1 $336 $333 $441 $454 reversed $337 $-1 #
vertex $-1 $401 $455 #
straight-curve $-1 -55.635242774742878 28.666573729281637 0 0 0 -1 I I #
straight-curve $-1 -27.0092434714369 -16.460202903211709 10.222139574115587 1 0 0 I I #
edge $-1 $442 -10.222139574115587 $338 10.222139574115587 $336 $456 forward 7 unknown #
point $-1 -55.635242774742878 -16.460202903211709 10.222139574115587 #
face $-1 $457 $458 $15 $-1 $459 reversed single #
loop $-1 $-1 $460 $341 #
plane-surface $-1 -52.401731111004722 -22.563388316246673 0 -1 0 0 0 0 1 forward_v I I I I #
coedge $-1 $461 $462 $463 $464 reversed $342 $-1 #
coedge $-1 $344 $465 $466 $467 forward $205 $-1 #
coedge $-1 $468 $417 $344 $414 reversed $469 $-1 #
edge $-1 $470 -28.666573729281637 $415 22.287096668289443 $413 $471 forward 7 unknown #
vertex $-1 $418 $472 #
straight-curve $-1 19.533289749309162 22.287096668289443 10.222139574115587 -1 0 0 I I #
coedge $-1 $413 $473 $346 $418 forward $469 $-1 #
edge $-1 $474 -36.432646567983539 $415 -25.310367503005338 $417 $475 forward 7 unknown #
edge $-1 $348 2.9646264731846088 $474 36.101953025433716 $350 $476 forward 7 unknown #
point $-1 22.497916222493771 28.666573729281637 1.1113018504193306 #
coedge $-1 $477 $350 $473 $478 forward $275 $-1 #
coedge $-1 $351 $477 $479 $480 reversed $275 $-1 #
coedge $-1 $465 $353 $461 $481 forward $205 $-1 #
coedge $-1 $479 $482 $353 $425 reversed $483 $-1 #
edge $-1 $426 -28.666573729281637 $484 16.460202903211709 $424 $485 forward 7 unknown #
vertex $-1 $354 $486 #
straight-curve $-1 0 28.666573729281637 10.222139574115587 -1 0 0 I I #
coedge $-1 $361 $368 $360 $429 reversed $358 $-1 #
edge $-1 $364 -10.222139574115587 $373 10.222139574115587 $428 $487 forward 7 unknown #
straight-curve $-1 55.635242774742878 0 10.222139574115587 0 1 0 I I #
point $-1 55.635242774742878 28.666573729281637 10.222139574115587 #
straight-curve $-1 -55.635242774742878 28.666573729281637 0 0 0 -1 I I #
straight-curve $-1 55.635242774742878 0 -10.222139574115587 0 -1 0 I I #
point $-1 55.635242774742878 28.666573729281637 -10.222139574115587 #
plane-surface $-1 -55.635242774742878 0 0 1 0 0 0 0 -1 forward_v I I I I #
coedge $-1 $390 $379 $450 $488 reversed $314 $-1 #
coedge $-1 $384 $450 $381 $438 forward $377 $-1 #
edge $-1 $439 -17.384879571158301 $387 -5.1785087450883722 $437 $489 forward 7 unknown #
vertex $-1 $382 $490 #
straight-curve $-1 -52.401731111004722 -28.666573729281637 0 0 0 -1 I I #
coedge $-1 $400 $384 $402 $454 forward $377 $-1 #
vertex $-1 $454 $491 #
straight-curve $-1 -27.0092434714369 -16.460202903211709 -10.222139574115587 -1 0 0 I I #
point $-1 -52.401731111004722 -16.460202903211709 10.222139574115587 #
point $-1 -52.401731111004722 -16.460202903211709 -10.222139574115587 #
straight-curve $-1 -52.401731111004722 -11.281694158123337 10.222139574115587 0 -1 0 I I #
point $-1 -52.401731111004722 -28.666573729281637 10.222139574115587 #
vertex $-1 $393 $492 #
straight-curve $-1 55.635242774742878 -28.666573729281637 0 0 0 -1 I I #
coedge $-1 $437 $395 $436 $488 forward $377 $-1 #
straight-curve $-1 55.635242774742878 0 -10.222139574115587 0 -1 0 I I #
point $-1 55.635242774742878 28.666573729281637 -10.222139574115587 #
straight-curve $-1 0 28.666573729281637 -10.222139574115587 1 0 0 I I #
edge $-1 $442 -16.460202903211709 $403 28.666573729281637 $402 $493 forward 7 unknown #
point $-1 -55.635242774742878 28.666573729281637 -10.222139574115587 #
straight-curve $-1 -55.635242774742878 -16.460202903211709 0 0 0 1 I I #
face $-1 $494 $495 $15 $-1 $496 reversed single #
loop $-1 $-1 $497 $408 #
plane-surface $-1 0 -28.666573729281637 0 0 1 0 0 0 1 forward_v I I I I #
coedge $-1 $498 $499 $497 $500 reversed $409 $-1 #
coedge $-1 $501 $411 $423 $481 reversed $342 $-1 #
coedge $-1 $411 $501 $502 $503 reversed $342 $-1 #
coedge $-1 $499 $498 $411 $464 forward $409 $-1 #
edge $-1 $504 -10.222139574115587 $505 10.222139574115587 $463 $506 forward 7 unknown #
coedge $-1 $412 $423 $498 $507 forward $205 $-1 #
coedge $-1 $497 $508 $412 $467 reversed $458 $-1 #
edge $-1 $509 -52.401731111004722 $470 55.635242774742878 $466 $510 forward 7 unknown #
coedge $-1 $511 $413 $508 $512 forward $469 $-1 #
loop $-1 $-1 $417 $513 #
vertex $-1 $414 $514 #
straight-curve $-1 55.635242774742878 0 10.222139574115587 0 1 0 I I #
point $-1 55.635242774742878 22.287096668289443 10.222139574115587 #
coedge $-1 $417 $511 $421 $478 reversed $469 $-1 #
vertex $-1 $478 $515 #
straight-curve $-1 55.635242774742878 7.7696665671934024 30.955179061778253 0 -0.57357642473473569 0.81915205242281985 I I #
straight-curve $-1 19.533289749309162 28.666573729281637 1.1113018504193377 1 0 0 I I #
coedge $-1 $422 $421 $516 $517 reversed $275 $-1 #
edge $-1 $474 -1.1113018504193306 $518 10.222139574115587 $473 $519 forward 7 unknown #
coedge $-1 $520 $424 $422 $480 forward $483 $-1 #
edge $-1 $426 -10.222139574115587 $521 10.222139574115587 $422 $522 forward 7 unknown #
edge $-1 $484 -28.625999303305978 $504 -25.392487639567822 $423 $523 forward 7 unknown #
coedge $-1 $424 $520 $501 $524 forward $483 $-1 #
loop $-1 $-1 $482 $494 #
vertex $-1 $524 $525 #
straight-curve $-1 -55.635242774742878 0 10.222139574115587 0 -1 0 I I #
point $-1 -55.635242774742878 28.666573729281637 10.222139574115587 #
straight-curve $-1 55.635242774742878 28.666573729281637 0 0 0 -1 I I #
edge $-1 $448 -55.635242774742878 $439 52.401731111004722 $436 $526 forward 7 unknown #
straight-curve $-1 -52.401731111004722 -11.281694158123337 -10.222139574115587 0 1 0 I I #
point $-1 -52.401731111004722 -28.666573729281637 -10.222139574115587 #
point $-1 -55.635242774742878 -16.460202903211709 -10.222139574115587 #
point $-1 55.635242774742878 -28.666573729281637 -10.222139574115587 #
straight-curve $-1 -55.635242774742878 0 -10.222139574115587 0 1 0 I I #
face $-1 $513 $483 $15 $-1 $527 reversed single #
loop $-1 $-1 $502 $457 #
plane-surface $-1 0 0 -10.222139574115587 0 0 1 1 0 0 forward_v I I I I #
coedge $-1 $528 $466 $460 $500 forward $458 $-1 #
coedge $-1 $463 $460 $465 $507 reversed $409 $-1 #
coedge $-1 $460 $463 $529 $530 reversed $409 $-1 #
edge $-1 $509 -10.222139574115587 $531 10.222139574115587 $497 $532 forward 7 unknown #
coedge $-1 $462 $461 $482 $524 reversed $342 $-1 #
coedge $-1 $533 $529 $462 $503 forward $495 $-1 #
edge $-1 $505 25.392487639567822 $534 28.625999303305978 $502 $535 forward 7 unknown #
vertex $-1 $481 $536 #
vertex $-1 $503 $537 #
straight-curve $-1 -52.401731111004722 -16.460202903211709 0 0 0 -1 I I #
edge $-1 $504 5.1785087450883722 $509 17.384879571158301 $465 $538 forward 7 unknown #
coedge $-1 $466 $528 $468 $512 reversed $458 $-1 #
vertex $-1 $467 $539 #
straight-curve $-1 0 -28.666573729281637 10.222139574115587 1 0 0 I I #
coedge $-1 $473 $468 $540 $541 reversed $469 $-1 #
edge $-1 $470 -10.222139574115587 $542 10.222139574115587 $468 $543 forward 7 unknown #
face $-1 $-1 $469 $15 $-1 $544 reversed single #
point $-1 55.635242774742878 -28.666573729281637 10.222139574115587 #
point $-1 55.635242774742878 28.666573729281637 1.1113018504193306 #
coedge $-1 $540 $533 $477 $517 forward $495 $-1 #
edge $-1 $521 -55.635242774742878 $518 55.635242774742878 $477 $545 forward 7 unknown #
vertex $-1 $541 $546 #
straight-curve $-1 55.635242774742878 28.666573729281637 0 0 0 -1 I I #
coedge $-1 $482 $479 $533 $547 reversed $483 $-1 #
vertex $-1 $517 $548 #
straight-curve $-1 -55.635242774742878 28.666573729281637 0 0 0 -1 I I #
straight-curve $-1 -27.0092434714369 -16.460202903211709 10.222139574115587 1 0 0 I I #
edge $-1 $534 -10.222139574115587 $484 10.222139574115587 $482 $549 forward 7 unknown #
point $-1 -55.635242774742878 -16.460202903211709 10.222139574115587 #
straight-curve $-1 0 -28.666573729281637 -10.222139574115587 -1 0 0 I I #
plane-surface $-1 -55.635242774742878 0 0 1 0 0 0 0 -1 forward_v I I I I #
coedge $-1 $508 $497 $550 $551 reversed $458 $-1 #
coedge $-1 $502 $550 $499 $530 forward $495 $-1 #
edge $-1 $531 -17.384879571158301 $505 -5.1785087450883722 $529 $552 forward 7 unknown #
vertex $-1 $500 $553 #
straight-curve $-1 -52.401731111004722 -28.666573729281637 0 0 0 -1 I I #
coedge $-1 $516 $502 $520 $547 forward $495 $-1 #
vertex $-1 $547 $554 #
straight-curve $-1 -27.0092434714369 -16.460202903211709 -10.222139574115587 -1 0 0 I I #
point $-1 -52.401731111004722 -16.460202903211709 10.222139574115587 #
point $-1 -52.401731111004722 -16.460202903211709 -10.222139574115587 #
straight-curve $-1 -52.401731111004722 -11.281694158123337 10.222139574115587 0 -1 0 I I #
point $-1 -52.401731111004722 -28.666573729281637 10.222139574115587 #
coedge $-1 $550 $516 $511 $541 forward $495 $-1 #
edge $-1 $518 -28.666573729281637 $542 28.666573729281637 $511 $555 forward 7 unknown #
vertex $-1 $512 $556 #
straight-curve $-1 55.635242774742878 -28.666573729281637 0 0 0 -1 I I #
plane-surface $-1 55.635242774742878 0 0 -1 0 0 0 0 1 forward_v I I I I #
straight-curve $-1 0 28.666573729281637 -10.222139574115587 1 0 0 I I #
point $-1 55.635242774742878 28.666573729281637 -10.222139574115587 #
edge $-1 $534 -16.460202903211709 $521 28.666573729281637 $520 $557 forward 7 unknown #
point $-1 -55.635242774742878 28.666573729281637 -10.222139574115587 #
straight-curve $-1 -55.635242774742878 -16.460202903211709 0 0 0 1 I I #
coedge $-1 $529 $540 $528 $551 forward $495 $-1 #
edge $-1 $542 -55.635242774742878 $531 52.401731111004722 $528 $558 forward 7 unknown #
straight-curve $-1 -52.401731111004722 -11.281694158123337 -10.222139574115587 0 1 0 I I #
point $-1 -52.401731111004722 -28.666573729281637 -10.222139574115587 #
point $-1 -55.635242774742878 -16.460202903211709 -10.222139574115587 #
straight-curve $-1 55.635242774742878 0 -10.222139574115587 0 -1 0 I I #
point $-1 55.635242774742878 -28.666573729281637 -10.222139574115587 #
straight-curve $-1 -55.635242774742878 0 -10.222139574115587 0 1 0 I I #
straight-curve $-1 0 -28.666573729281637 -10.222139574115587 -1 0 0 I I #
End-of-ACIS-data 