500 0 9 0           
7 Unknown 11 ACIS 5.0 NT 24 Fri Mar 26 15:50:56 1999 
-1 9.9999999999999995e-007 1e-010 
body $-1 $9 $-1 $10 #
body $-1 $11 $-1 $12 #
body $-1 $13 $-1 $14 #
body $-1 $15 $-1 $16 #
body $-1 $17 $-1 $18 #
body $-1 $19 $-1 $20 #
body $-1 $21 $-1 $22 #
body $-1 $23 $-1 $24 #
body $-1 $25 $-1 $26 #
lump $-1 $-1 $27 $0 #
transform $-1 1 0 0 0 1 0 0 0 1 42.323068941312904 21.395837418926181 6.0206359855179592 1 rotate no_reflect no_shear #
lump $-1 $-1 $28 $1 #
transform $-1 1 0 0 0 1 0 0 0 1 42.323068941312904 21.395837418926181 6.0206359855179592 1 rotate no_reflect no_shear #
lump $-1 $-1 $29 $2 #
transform $-1 1 0 0 0 1 0 0 0 1 42.323068941312904 21.395837418926181 6.0206359855179592 1 rotate no_reflect no_shear #
lump $-1 $-1 $30 $3 #
transform $-1 1 0 0 0 1 0 0 0 1 42.323068941312904 21.395837418926181 6.0206359855179592 1 rotate no_reflect no_shear #
lump $-1 $-1 $31 $4 #
transform $-1 1 0 0 0 1 0 0 0 1 42.323068941312904 21.395837418926181 6.0206359855179592 1 rotate no_reflect no_shear #
lump $-1 $-1 $32 $5 #
transform $-1 1 0 0 0 1 0 0 0 1 42.323068941312904 21.395837418926181 6.0206359855179592 1 rotate no_reflect no_shear #
lump $-1 $-1 $33 $6 #
transform $-1 1 0 0 0 1 0 0 0 1 42.323068941312904 21.395837418926181 6.0206359855179592 1 rotate no_reflect no_shear #
lump $-1 $-1 $34 $7 #
transform $-1 1 0 0 0 1 0 0 0 1 42.323068941312904 21.395837418926181 6.0206359855179592 1 rotate no_reflect no_shear #
lump $-1 $-1 $35 $8 #
transform $-1 1 0 0 0 1 0 0 0 1 42.323068941312904 21.395837418926181 6.0206359855179592 1 rotate no_reflect no_shear #
shell $-1 $-1 $-1 $36 $-1 $9 #
shell $-1 $-1 $-1 $37 $-1 $11 #
shell $-1 $-1 $-1 $38 $-1 $13 #
shell $-1 $-1 $-1 $39 $-1 $15 #
shell $-1 $-1 $-1 $40 $-1 $17 #
shell $-1 $-1 $-1 $41 $-1 $19 #
shell $-1 $-1 $-1 $42 $-1 $21 #
shell $-1 $-1 $-1 $43 $-1 $23 #
shell $-1 $-1 $-1 $44 $-1 $25 #
face $-1 $45 $46 $27 $-1 $47 forward single #
face $-1 $48 $49 $28 $-1 $50 reversed single #
face $-1 $51 $52 $29 $-1 $53 forward single #
face $-1 $54 $55 $30 $-1 $56 reversed single #
face $-1 $57 $58 $31 $-1 $59 forward single #
face $-1 $60 $61 $32 $-1 $62 forward single #
face $-1 $63 $64 $33 $-1 $65 reversed single #
face $-1 $66 $67 $34 $-1 $68 forward single #
face $-1 $69 $70 $35 $-1 $71 forward single #
face $-1 $72 $73 $27 $-1 $74 reversed single #
loop $-1 $-1 $75 $36 #
plane-surface $-1 0 0 6.0206359855179592 0 0 1 1 0 0 forward_v I I I I #
face $-1 $76 $77 $28 $-1 $78 reversed single #
loop $-1 $-1 $79 $37 #
plane-surface $-1 -38.766735654730127 -19.616389714186333 0 0 1 0 0 0 1 forward_v I I I I #
face $-1 $80 $81 $29 $-1 $82 reversed single #
loop $-1 $-1 $83 $38 #
plane-surface $-1 38.557122271184532 0 -2.4111151327081703 0 0 1 1 0 0 forward_v I I I I #
face $-1 $84 $85 $30 $-1 $86 reversed single #
loop $-1 $-1 $87 $39 #
plane-surface $-1 10.52116468321092 -93.179834168070172 45.552170220308724 -1 0 0 0 -0.84804810408105047 0.52991925155115449 forward_v I I I I #
face $-1 $88 $89 $31 $-1 $90 forward single #
loop $-1 $91 $92 $40 #
cone-surface $-1 3.7982432758080051 -18.946333421245267 2.8673995164123323 0 0.84804810408105047 -0.52991925155115449 1 0 0 1 I I 0 1 1 forward I I I I #
face $-1 $93 $94 $32 $-1 $95 forward single #
loop $-1 $96 $97 $41 #
cone-surface $-1 7.8319961202497552 -18.946333421245267 2.8673995164123323 0 0.84804810408105047 -0.52991925155115449 1 0 0 1 I I 0 1 1 forward I I I I #
face $-1 $98 $99 $33 $-1 $100 reversed single #
loop $-1 $-1 $101 $42 #
plane-surface $-1 0.017366877191193453 52.559579293254345 90.405578398107153 1 0 0 0 -0.71933980857756763 -0.69465836192734942 forward_v I I I I #
face $-1 $102 $103 $34 $-1 $104 forward single #
loop $-1 $105 $106 $43 #
cone-surface $-1 3.3474385863287281 18.223374714924699 2.7817693348581014 0 -0.71933980857756763 -0.69465836192734942 1.5 0 0 1 I I 0 1 1.5 forward I I I I #
face $-1 $107 $108 $35 $-1 $109 forward single #
loop $-1 $110 $111 $44 #
cone-surface $-1 8.3425461500350266 18.223374714924699 2.7817693348581014 0 -0.71933980857756763 -0.69465836192734942 1.5 0 0 1 I I 0 1 1.5 forward I I I I #
face $-1 $112 $113 $27 $-1 $114 reversed single #
loop $-1 $-1 $115 $45 #
plane-surface $-1 0 0 -6.0206359855179592 0 0 1 1 0 0 forward_v I I I I #
coedge $-1 $116 $117 $118 $119 forward $46 $-1 #
face $-1 $120 $121 $28 $-1 $122 reversed single #
loop $-1 $-1 $123 $48 #
plane-surface $-1 -38.766735654730127 -16.616389714186333 0 0 -1 0 0 0 -1 forward_v I I I I #
coedge $-1 $124 $125 $126 $127 reversed $49 $-1 #
face $-1 $128 $129 $29 $-1 $130 reversed single #
loop $-1 $-1 $131 $51 #
plane-surface $-1 38.557122271184532 0 -5.4111151327081703 0 0 1 1 0 0 forward_v I I I I #
coedge $-1 $132 $133 $134 $135 reversed $52 $-1 #
face $-1 $136 $137 $30 $-1 $138 reversed single #
loop $-1 $-1 $139 $54 #
plane-surface $-1 5.8151196980288802 -21.395837418926178 0.69655218685183229 0 -0.84804810408105047 0.52991925155115449 1 0 0 forward_v I I I I #
coedge $-1 $140 $141 $142 $143 reversed $55 $-1 #
face $-1 $-1 $144 $31 $-1 $145 forward single #
loop $-1 $146 $147 $57 #
cone-surface $-1 3.7982432758080051 -17.736233712562335 2.1112453208641959 0 0.84804810408105047 -0.52991925155115449 0.5 0 0 1 I I -0.70710678118654768 0.70710678118654735 0.5 forward I I I I #
loop $-1 $-1 $148 $40 #
coedge $-1 $92 $92 $149 $150 reversed $58 $-1 #
face $-1 $-1 $151 $32 $-1 $152 forward single #
loop $-1 $153 $154 $60 #
cone-surface $-1 7.8319961202497552 -17.736233712562335 2.1112453208641959 0 0.84804810408105047 -0.52991925155115449 0.5 0 0 1 I I -0.70710678118654768 0.70710678118654735 0.5 forward I I I I #
loop $-1 $-1 $155 $41 #
coedge $-1 $97 $97 $156 $157 reversed $61 $-1 #
face $-1 $158 $159 $33 $-1 $160 reversed single #
loop $-1 $-1 $161 $63 #
plane-surface $-1 5.8449923681818774 -8.3297573280640975 31.605430913085755 0 0.71933980857756763 0.69465836192734942 1 0 0 forward_v I I I I #
coedge $-1 $162 $163 $164 $165 reversed $64 $-1 #
face $-1 $-1 $166 $34 $-1 $167 forward single #
loop $-1 $168 $169 $66 #
cone-surface $-1 3.3474385863287281 17.02073018755117 1.6203890422559546 0 -0.71933980857756763 -0.69465836192734942 0.75 0 0 1 I I -0.70710678118654757 0.70710678118654757 0.75 forward I I I I #
loop $-1 $-1 $170 $43 #
coedge $-1 $106 $106 $171 $172 reversed $67 $-1 #
face $-1 $-1 $173 $35 $-1 $174 forward single #
loop $-1 $175 $176 $69 #
cone-surface $-1 8.3425461500350266 17.02073018755117 1.6203890422559546 0 -0.71933980857756763 -0.69465836192734942 0.75 0 0 1 I I -0.70710678118654757 0.70710678118654757 0.75 forward I I I I #
loop $-1 $-1 $177 $44 #
coedge $-1 $111 $111 $178 $179 reversed $70 $-1 #
face $-1 $180 $181 $27 $-1 $182 reversed single #
loop $-1 $-1 $183 $72 #
plane-surface $-1 0 -21.395837418926181 0 0 1 0 0 0 1 forward_v I I I I #
coedge $-1 $184 $185 $186 $187 forward $73 $-1 #
coedge $-1 $188 $75 $189 $190 forward $46 $-1 #
coedge $-1 $75 $188 $191 $192 forward $46 $-1 #
coedge $-1 $193 $194 $75 $119 reversed $195 $-1 #
edge $-1 $196 -21.395837418926181 $197 21.395837418926181 $118 $198 forward 7 unknown #
face $-1 $199 $200 $28 $-1 $201 reversed single #
loop $-1 $-1 $202 $76 #
plane-surface $-1 -35.210402368147349 -18.116389714186333 0 -1 0 0 0 0 1 forward_v I I I I #
coedge $-1 $203 $204 $205 $206 forward $77 $-1 #
coedge $-1 $207 $79 $208 $209 reversed $49 $-1 #
coedge $-1 $79 $207 $210 $211 reversed $49 $-1 #
coedge $-1 $212 $213 $79 $127 forward $214 $-1 #
edge $-1 $215 -6.0206359855179592 $216 6.0206359855179592 $126 $217 forward 7 unknown #
face $-1 $218 $219 $29 $-1 $220 reversed single #
loop $-1 $-1 $221 $80 #
plane-surface $-1 34.791175601056153 0 -3.9111151327081703 1 0 0 0 0 -1 forward_v I I I I #
coedge $-1 $222 $223 $224 $225 reversed $81 $-1 #
coedge $-1 $226 $83 $227 $228 reversed $52 $-1 #
coedge $-1 $83 $226 $229 $230 reversed $52 $-1 #
coedge $-1 $231 $232 $83 $135 forward $219 $-1 #
edge $-1 $233 -21.395837418926181 $234 21.395837418926181 $134 $235 forward 7 unknown #
face $-1 $236 $237 $30 $-1 $238 forward single #
loop $-1 $-1 $239 $84 #
plane-surface $-1 1.1090747128468408 -93.179834168070172 45.552170220308724 1 0 0 0 0.84804810408105047 -0.52991925155115449 forward_v I I I I #
coedge $-1 $240 $241 $242 $243 reversed $85 $-1 #
coedge $-1 $141 $87 $244 $245 reversed $55 $-1 #
coedge $-1 $87 $140 $240 $246 reversed $55 $-1 #
coedge $-1 $242 $247 $87 $143 forward $237 $-1 #
edge $-1 $248 25.194079665108905 $249 28.520936347185916 $142 $250 forward 7 unknown #
loop $-1 $-1 $149 $88 #
plane-surface $-1 5.8151196980288802 -21.395837418926178 0.69655218685183229 0 -0.84804810408105047 0.52991925155115449 1 0 0 forward_v I I I I #
loop $-1 $-1 $251 $57 #
coedge $-1 $147 $147 $148 $252 reversed $89 $-1 #
coedge $-1 $148 $148 $147 $252 forward $91 $-1 #
coedge $-1 $149 $149 $92 $150 forward $144 $-1 #
edge $-1 $253 7.5282433627691799e-016 $253 6.2831853071796013 $149 $254 forward 7 unknown #
loop $-1 $-1 $156 $93 #
plane-surface $-1 5.8151196980288802 -21.395837418926178 0.69655218685183229 0 -0.84804810408105047 0.52991925155115449 1 0 0 forward_v I I I I #
loop $-1 $-1 $255 $60 #
coedge $-1 $154 $154 $155 $256 reversed $94 $-1 #
coedge $-1 $155 $155 $154 $256 forward $96 $-1 #
coedge $-1 $156 $156 $97 $157 forward $151 $-1 #
edge $-1 $257 7.5282433627691799e-016 $257 6.2831853071796013 $156 $258 forward 7 unknown #
face $-1 $259 $260 $33 $-1 $261 reversed single #
loop $-1 $-1 $262 $98 #
plane-surface $-1 11.672617859172561 52.559579293254345 90.405578398107153 -1 0 0 0 0.71933980857756763 0.69465836192734942 forward_v I I I I #
coedge $-1 $263 $264 $265 $266 reversed $99 $-1 #
coedge $-1 $163 $101 $267 $268 reversed $64 $-1 #
coedge $-1 $101 $162 $263 $269 reversed $64 $-1 #
coedge $-1 $265 $270 $101 $165 forward $271 $-1 #
edge $-1 $272 4.8839522277009912 $273 9.9025982938232282 $164 $274 forward 7 unknown #
loop $-1 $-1 $171 $102 #
plane-surface $-1 5.8449923681818774 -8.3297573280640975 31.605430913085755 0 0.71933980857756763 0.69465836192734942 1 0 0 forward_v I I I I #
loop $-1 $-1 $275 $66 #
coedge $-1 $169 $169 $170 $276 reversed $103 $-1 #
coedge $-1 $170 $170 $169 $276 forward $105 $-1 #
coedge $-1 $171 $171 $106 $172 forward $166 $-1 #
edge $-1 $277 3.8833959105690124e-016 $277 6.2831853071796004 $171 $278 forward 7 unknown #
loop $-1 $-1 $178 $107 #
plane-surface $-1 5.8449923681818774 -8.3297573280640975 31.605430913085755 0 0.71933980857756763 0.69465836192734942 1 0 0 forward_v I I I I #
loop $-1 $-1 $279 $69 #
coedge $-1 $176 $176 $177 $280 reversed $108 $-1 #
coedge $-1 $177 $177 $176 $280 forward $110 $-1 #
coedge $-1 $178 $178 $111 $179 forward $173 $-1 #
edge $-1 $281 3.8833959105690124e-016 $281 6.2831853071796004 $178 $282 forward 7 unknown #
face $-1 $283 $284 $27 $-1 $285 reversed single #
loop $-1 $-1 $286 $112 #
plane-surface $-1 -42.323068941312904 0 0 1 0 0 0 0 -1 forward_v I I I I #
coedge $-1 $287 $191 $288 $289 forward $113 $-1 #
coedge $-1 $290 $115 $287 $291 forward $73 $-1 #
coedge $-1 $115 $290 $292 $293 forward $73 $-1 #
coedge $-1 $194 $193 $115 $187 reversed $195 $-1 #
edge $-1 $294 -21.395837418926181 $295 21.395837418926181 $186 $296 forward 7 unknown #
coedge $-1 $117 $116 $297 $298 forward $46 $-1 #
coedge $-1 $299 $300 $116 $190 reversed $284 $-1 #
edge $-1 $197 -42.323068941312904 $301 42.323068941312904 $189 $302 forward 7 unknown #
coedge $-1 $183 $303 $117 $192 reversed $113 $-1 #
edge $-1 $304 -42.323068941312904 $196 42.323068941312904 $191 $305 forward 7 unknown #
coedge $-1 $186 $118 $303 $306 forward $195 $-1 #
coedge $-1 $118 $186 $299 $307 reversed $195 $-1 #
loop $-1 $-1 $193 $283 #
vertex $-1 $119 $308 #
vertex $-1 $119 $309 #
straight-curve $-1 42.323068941312904 0 6.0206359855179592 0 1 0 I I #
face $-1 $310 $311 $28 $-1 $312 forward single #
loop $-1 $-1 $313 $120 #
plane-surface $-1 0 0 -6.0206359855179592 0 0 1 1 0 0 forward_v I I I I #
coedge $-1 $314 $315 $207 $316 forward $121 $-1 #
coedge $-1 $317 $123 $313 $318 reversed $77 $-1 #
coedge $-1 $123 $317 $319 $320 reversed $77 $-1 #
coedge $-1 $315 $314 $123 $206 reversed $121 $-1 #
edge $-1 $321 -6.0206359855179592 $322 6.0206359855179592 $205 $323 forward 7 unknown #
coedge $-1 $125 $124 $202 $316 reversed $49 $-1 #
coedge $-1 $324 $325 $124 $209 forward $200 $-1 #
edge $-1 $326 15.827034540782286 $215 22.939701113947841 $208 $327 forward 7 unknown #
coedge $-1 $328 $329 $125 $211 forward $311 $-1 #
edge $-1 $216 -22.939701113947841 $330 -15.827034540782286 $210 $331 forward 7 unknown #
coedge $-1 $332 $126 $329 $333 reversed $214 $-1 #
coedge $-1 $126 $332 $324 $334 reversed $214 $-1 #
loop $-1 $-1 $332 $310 #
vertex $-1 $334 $335 #
vertex $-1 $127 $336 #
straight-curve $-1 -42.323068941312904 -19.616389714186333 0 0 0 1 I I #
face $-1 $337 $338 $29 $-1 $339 reversed single #
loop $-1 $-1 $224 $128 #
plane-surface $-1 42.323068941312904 0 0 -1 0 0 0 0 1 forward_v I I I I #
coedge $-1 $340 $341 $342 $343 reversed $129 $-1 #
coedge $-1 $344 $131 $345 $346 reversed $81 $-1 #
coedge $-1 $131 $344 $347 $348 reversed $81 $-1 #
coedge $-1 $232 $231 $131 $225 forward $219 $-1 #
edge $-1 $349 -21.395837418926181 $350 21.395837418926181 $224 $351 forward 7 unknown #
coedge $-1 $133 $132 $341 $352 forward $52 $-1 #
coedge $-1 $353 $342 $132 $228 forward $338 $-1 #
edge $-1 $354 15.512614465463887 $233 23.044507805720645 $227 $355 forward 7 unknown #
coedge $-1 $356 $357 $133 $230 forward $358 $-1 #
edge $-1 $234 -23.044507805720645 $359 -15.512614465463887 $229 $360 forward 7 unknown #
coedge $-1 $224 $134 $357 $361 forward $219 $-1 #
coedge $-1 $134 $224 $353 $362 reversed $219 $-1 #
vertex $-1 $362 $363 #
vertex $-1 $361 $364 #
straight-curve $-1 42.323068941312904 0 -2.4111151327081703 0 -1 0 I I #
face $-1 $-1 $365 $30 $-1 $366 reversed single #
loop $-1 $-1 $142 $136 #
plane-surface $-1 0 0 6.0206359855179592 0 0 1 1 0 0 forward_v I I I I #
coedge $-1 $367 $368 $369 $370 reversed $137 $-1 #
coedge $-1 $371 $139 $141 $246 forward $85 $-1 #
coedge $-1 $139 $371 $367 $372 forward $85 $-1 #
coedge $-1 $369 $142 $139 $243 forward $237 $-1 #
edge $-1 $249 -7.6136048341964795 $373 1.7984851361675993 $242 $374 forward 7 unknown #
coedge $-1 $375 $376 $140 $245 forward $365 $-1 #
edge $-1 $377 -22.079532923302537 $248 -16.755449124636403 $244 $378 forward 7 unknown #
edge $-1 $249 -6.278044574411652 $377 6.6844162824620267e-015 $141 $379 forward 7 unknown #
coedge $-1 $142 $369 $375 $380 forward $237 $-1 #
vertex $-1 $245 $381 #
vertex $-1 $143 $382 #
straight-curve $-1 10.52116468321092 -46.589917084035086 6.0206359855179592 0 1 0 I I #
coedge $-1 $251 $251 $-1 $383 reversed $146 $-1 #
edge $-1 $384 0 $384 6.2831853071796004 $147 $385 forward 7 unknown #
vertex $-1 $150 $386 #
ellipse-curve $-1 3.7982432758080051 -19.732409077887674 3.3585940861848926 0 -0.84804810408105047 0.52991925155115449 1 0 0 1 I I #
coedge $-1 $255 $255 $-1 $387 reversed $153 $-1 #
edge $-1 $388 0 $388 6.2831853071796004 $154 $389 forward 7 unknown #
vertex $-1 $157 $390 #
ellipse-curve $-1 7.8319961202497552 -19.732409077887674 3.3585940861848926 0 -0.84804810408105047 0.52991925155115449 1 0 0 1 I I #
face $-1 $-1 $271 $33 $-1 $391 forward single #
loop $-1 $-1 $392 $158 #
plane-surface $-1 0 21.395837418926181 0 0 -1 0 0 0 -1 forward_v I I I I #
coedge $-1 $393 $394 $395 $396 reversed $159 $-1 #
coedge $-1 $397 $161 $163 $269 forward $99 $-1 #
coedge $-1 $161 $397 $393 $398 forward $99 $-1 #
coedge $-1 $395 $164 $161 $266 forward $271 $-1 #
edge $-1 $273 -2.9051293068997452 $399 8.7501216750816226 $265 $400 forward 7 unknown #
coedge $-1 $401 $402 $162 $268 forward $260 $-1 #
edge $-1 $403 -44.379113472542038 $272 -39.182153213535614 $267 $404 forward 7 unknown #
edge $-1 $273 35.567049984567824 $403 42.791674837852341 $163 $405 forward 7 unknown #
coedge $-1 $164 $395 $401 $406 forward $271 $-1 #
loop $-1 $-1 $395 $259 #
vertex $-1 $268 $407 #
vertex $-1 $165 $408 #
straight-curve $-1 0.017366877191193453 26.279789646627172 6.0206359855179556 0 -1 0 I I #
coedge $-1 $275 $275 $-1 $409 reversed $168 $-1 #
edge $-1 $410 0 $410 6.2831853071796004 $169 $411 forward 7 unknown #
vertex $-1 $172 $412 #
ellipse-curve $-1 3.3474385863287281 18.886514385865066 3.4221558560147471 0 0.71933980857756763 0.69465836192734942 1.5 0 0 1 I I #
coedge $-1 $279 $279 $-1 $413 reversed $175 $-1 #
edge $-1 $414 0 $414 6.2831853071796004 $176 $415 forward 7 unknown #
vertex $-1 $179 $416 #
ellipse-curve $-1 8.3425461500350266 18.886514385865066 3.4221558560147471 0 0.71933980857756763 0.69465836192734942 1.5 0 0 1 I I #
face $-1 $-1 $195 $27 $-1 $417 reversed single #
loop $-1 $-1 $299 $180 #
plane-surface $-1 0 21.395837418926181 0 0 -1 0 0 0 -1 forward_v I I I I #
coedge $-1 $418 $297 $300 $419 forward $181 $-1 #
coedge $-1 $303 $183 $184 $291 reversed $113 $-1 #
coedge $-1 $297 $418 $183 $289 reversed $181 $-1 #
edge $-1 $304 -6.0206359855179592 $420 6.0206359855179592 $288 $421 forward 7 unknown #
coedge $-1 $185 $184 $418 $422 forward $73 $-1 #
edge $-1 $295 -42.323068941312904 $420 42.323068941312904 $287 $423 forward 7 unknown #
coedge $-1 $300 $299 $185 $293 reversed $284 $-1 #
edge $-1 $424 -42.323068941312904 $294 42.323068941312904 $292 $425 forward 7 unknown #
vertex $-1 $187 $426 #
vertex $-1 $306 $427 #
straight-curve $-1 42.323068941312904 0 -6.0206359855179592 0 -1 0 I I #
coedge $-1 $286 $288 $188 $298 reversed $181 $-1 #
edge $-1 $301 -21.395837418926181 $304 21.395837418926181 $297 $428 forward 7 unknown #
coedge $-1 $292 $189 $194 $307 forward $284 $-1 #
coedge $-1 $189 $292 $286 $419 reversed $284 $-1 #
vertex $-1 $190 $429 #
straight-curve $-1 0 21.395837418926181 6.0206359855179592 -1 0 0 I I #
coedge $-1 $191 $287 $193 $306 reversed $113 $-1 #
vertex $-1 $298 $430 #
straight-curve $-1 0 -21.395837418926181 6.0206359855179592 1 0 0 I I #
edge $-1 $196 -6.0206359855179592 $295 6.0206359855179592 $193 $431 forward 7 unknown #
edge $-1 $197 -6.0206359855179592 $294 6.0206359855179592 $194 $432 forward 7 unknown #
point $-1 42.323068941312904 -21.395837418926181 6.0206359855179592 #
point $-1 42.323068941312904 21.395837418926181 6.0206359855179592 #
face $-1 $-1 $214 $28 $-1 $433 reversed single #
loop $-1 $-1 $319 $199 #
plane-surface $-1 0 0 6.0206359855179592 0 0 1 1 0 0 forward_v I I I I #
coedge $-1 $325 $324 $203 $318 forward $200 $-1 #
coedge $-1 $205 $202 $325 $434 reversed $121 $-1 #
coedge $-1 $202 $205 $328 $435 reversed $121 $-1 #
edge $-1 $330 -6.0206359855179592 $326 6.0206359855179592 $202 $436 forward 7 unknown #
coedge $-1 $204 $203 $332 $437 reversed $77 $-1 #
edge $-1 $438 -22.939701113947841 $322 -15.827034540782286 $313 $439 forward 7 unknown #
coedge $-1 $329 $328 $204 $320 forward $311 $-1 #
edge $-1 $321 15.827034540782286 $440 22.939701113947841 $319 $441 forward 7 unknown #
vertex $-1 $320 $442 #
vertex $-1 $318 $443 #
straight-curve $-1 -35.210402368147349 -16.616389714186333 0 0 0 -1 I I #
coedge $-1 $313 $208 $213 $334 forward $200 $-1 #
coedge $-1 $208 $313 $314 $434 forward $200 $-1 #
vertex $-1 $209 $444 #
straight-curve $-1 -19.383367827365063 -19.616389714186333 -6.0206359855179592 -1 0 0 I I #
coedge $-1 $319 $210 $315 $435 forward $311 $-1 #
coedge $-1 $210 $319 $212 $333 forward $311 $-1 #
vertex $-1 $211 $445 #
straight-curve $-1 -19.383367827365063 -19.616389714186333 6.0206359855179592 1 0 0 I I #
coedge $-1 $213 $212 $317 $437 forward $214 $-1 #
edge $-1 $440 16.616389714186333 $216 19.616389714186333 $212 $446 forward 7 unknown #
edge $-1 $215 -19.616389714186333 $438 -16.616389714186333 $213 $447 forward 7 unknown #
point $-1 -42.323068941312904 -19.616389714186333 -6.0206359855179592 #
point $-1 -42.323068941312904 -19.616389714186333 6.0206359855179592 #
face $-1 $-1 $358 $29 $-1 $448 reversed single #
loop $-1 $-1 $347 $218 #
plane-surface $-1 0 21.395837418926181 0 0 -1 0 0 0 -1 forward_v I I I I #
coedge $-1 $449 $221 $344 $450 reversed $129 $-1 #
coedge $-1 $221 $449 $226 $352 reversed $129 $-1 #
coedge $-1 $227 $347 $221 $343 forward $338 $-1 #
edge $-1 $451 -3.4555575663540852 $354 -0.45555756635408517 $342 $452 forward 7 unknown #
coedge $-1 $223 $222 $340 $450 forward $81 $-1 #
coedge $-1 $357 $356 $222 $346 forward $358 $-1 #
edge $-1 $453 15.512614465463887 $349 23.044507805720645 $345 $454 forward 7 unknown #
coedge $-1 $342 $353 $223 $348 forward $338 $-1 #
edge $-1 $350 -23.044507805720645 $451 -15.512614465463887 $347 $455 forward 7 unknown #
vertex $-1 $225 $456 #
vertex $-1 $225 $457 #
straight-curve $-1 42.323068941312904 0 -5.4111151327081703 0 1 0 I I #
edge $-1 $354 -21.395837418926181 $359 21.395837418926181 $341 $458 forward 7 unknown #
coedge $-1 $347 $227 $232 $362 forward $338 $-1 #
vertex $-1 $228 $459 #
straight-curve $-1 19.278561135592266 21.395837418926181 -2.4111151327081703 1 0 0 I I #
coedge $-1 $345 $229 $449 $460 forward $358 $-1 #
coedge $-1 $229 $345 $231 $361 reversed $358 $-1 #
loop $-1 $-1 $345 $337 #
vertex $-1 $230 $461 #
straight-curve $-1 19.278561135592266 -21.395837418926181 -2.4111151327081703 -1 0 0 I I #
edge $-1 $234 2.4111151327081703 $349 5.4111151327081703 $231 $462 forward 7 unknown #
edge $-1 $233 2.4111151327081703 $350 5.4111151327081703 $232 $463 forward 7 unknown #
point $-1 42.323068941312911 21.395837418926181 -2.4111151327081703 #
point $-1 42.323068941312911 -21.395837418926181 -2.4111151327081703 #
loop $-1 $-1 $244 $236 #
plane-surface $-1 0 -21.395837418926181 0 0 1 0 0 0 1 forward_v I I I I #
coedge $-1 $368 $239 $241 $372 reversed $137 $-1 #
coedge $-1 $239 $367 $464 $465 reversed $137 $-1 #
coedge $-1 $247 $242 $239 $370 forward $237 $-1 #
edge $-1 $373 -28.520936347185916 $466 -25.194079665108905 $369 $467 forward 7 unknown #
coedge $-1 $241 $240 $376 $468 reversed $85 $-1 #
edge $-1 $469 -6.6844162824620267e-015 $373 6.278044574411652 $367 $470 forward 7 unknown #
vertex $-1 $243 $471 #
straight-curve $-1 2.9075598490144401 -18.06898073684917 6.0206359855179592 -1 0 0 I I #
coedge $-1 $464 $244 $247 $380 reversed $365 $-1 #
coedge $-1 $244 $464 $371 $468 forward $365 $-1 #
vertex $-1 $245 $472 #
straight-curve $-1 10.52116468321092 -21.395837418926178 22.776085110154362 0 0 1 I I #
straight-curve $-1 10.52116468321092 -21.395837418926178 0.69655218685183229 0 -0.52991925155115449 -0.84804810408105047 I I #
edge $-1 $466 1.1090747128468408 $248 10.52116468321092 $375 $473 forward 7 unknown #
point $-1 10.52116468321092 -21.395837418926181 6.0206359855179592 #
point $-1 10.52116468321092 -18.06898073684917 6.0206359855179592 #
edge $-1 $474 1 $474 0 $251 $-1 forward 7 unknown #
vertex $-1 $252 $475 #
ellipse-curve $-1 3.7982432758080051 -18.160257764602861 2.3762049466397732 0 -0.84804810408105047 0.52991925155115449 1 0 0 1 I I #
point $-1 4.7982432758080051 -19.73240907788767 3.3585940861848913 #
edge $-1 $476 1 $476 0 $255 $-1 forward 7 unknown #
vertex $-1 $256 $477 #
ellipse-curve $-1 7.8319961202497552 -18.160257764602861 2.3762049466397732 0 -0.84804810408105047 0.52991925155115449 1 0 0 1 I I #
point $-1 8.8319961202497552 -19.73240907788767 3.3585940861848913 #
plane-surface $-1 0 0 6.0206359855179592 0 0 1 1 0 0 forward_v I I I I #
coedge $-1 $402 $401 $394 $478 forward $260 $-1 #
coedge $-1 $394 $262 $264 $398 reversed $159 $-1 #
coedge $-1 $262 $393 $392 $478 reversed $159 $-1 #
coedge $-1 $270 $265 $262 $396 forward $271 $-1 #
edge $-1 $399 -9.9025982938232282 $479 -4.8839522277009912 $395 $480 forward 7 unknown #
coedge $-1 $264 $263 $402 $481 reversed $99 $-1 #
edge $-1 $482 -42.791674837852341 $399 -35.567049984567824 $393 $483 forward 7 unknown #
vertex $-1 $266 $484 #
straight-curve $-1 2.9224961840909387 16.377191352803941 6.0206359855179592 1 0 0 I I #
coedge $-1 $392 $267 $270 $406 reversed $260 $-1 #
coedge $-1 $267 $392 $397 $481 forward $260 $-1 #
vertex $-1 $268 $485 #
straight-curve $-1 0.017366877191193453 21.395837418926181 45.202789199053576 0 0 1 I I #
straight-curve $-1 0.017366877191193453 -8.3297573280640975 31.605430913085755 0 0.69465836192734942 -0.71933980857756763 I I #
edge $-1 $479 -11.672617859172561 $272 -0.017366877191193453 $401 $486 forward 7 unknown #
point $-1 0.017366877191193453 21.395837418926181 6.0206359855179592 #
point $-1 0.017366877191193453 16.377191352803944 6.0206359855179556 #
edge $-1 $487 1 $487 0 $275 $-1 forward 7 unknown #
vertex $-1 $276 $488 #
ellipse-curve $-1 3.3474385863287281 17.560235043984346 2.1413828137014668 0 0.71933980857756763 0.69465836192734942 1.5 0 0 1 I I #
point $-1 4.8474385863287281 18.886514385865055 3.422155856014736 #
edge $-1 $489 1 $489 0 $279 $-1 forward 7 unknown #
vertex $-1 $280 $490 #
ellipse-curve $-1 8.3425461500350266 17.560235043984346 2.1413828137014668 0 0.71933980857756763 0.69465836192734942 1.5 0 0 1 I I #
point $-1 9.8425461500350266 18.886514385865055 3.422155856014736 #
plane-surface $-1 42.323068941312904 0 0 -1 0 0 0 0 1 forward_v I I I I #
coedge $-1 $288 $286 $290 $422 reversed $181 $-1 #
edge $-1 $301 -6.0206359855179592 $424 6.0206359855179592 $300 $491 forward 7 unknown #
vertex $-1 $422 $492 #
straight-curve $-1 -42.323068941312904 -21.395837418926181 0 0 0 -1 I I #
edge $-1 $420 -21.395837418926181 $424 21.395837418926181 $418 $493 forward 7 unknown #
straight-curve $-1 0 -21.395837418926181 -6.0206359855179592 -1 0 0 I I #
vertex $-1 $293 $494 #
straight-curve $-1 0 21.395837418926181 -6.0206359855179592 1 0 0 I I #
point $-1 42.323068941312904 21.395837418926181 -6.0206359855179592 #
point $-1 42.323068941312904 -21.395837418926181 -6.0206359855179592 #
straight-curve $-1 -42.323068941312904 0 6.0206359855179592 0 -1 0 I I #
point $-1 -42.323068941312904 21.395837418926181 6.0206359855179592 #
point $-1 -42.323068941312904 -21.395837418926181 6.0206359855179592 #
straight-curve $-1 42.323068941312904 -21.395837418926181 0 0 0 -1 I I #
straight-curve $-1 42.323068941312904 21.395837418926181 0 0 0 -1 I I #
plane-surface $-1 -42.323068941312904 0 0 1 0 0 0 0 -1 forward_v I I I I #
edge $-1 $322 7.5581948570931665 $326 10.558194857093167 $325 $495 forward 7 unknown #
edge $-1 $330 -10.558194857093167 $321 -7.5581948570931665 $328 $496 forward 7 unknown #
straight-curve $-1 -35.210402368147349 -19.616389714186333 0 0 0 -1 I I #
edge $-1 $440 -6.0206359855179592 $438 6.0206359855179592 $332 $497 forward 7 unknown #
vertex $-1 $437 $498 #
straight-curve $-1 -19.383367827365063 -16.616389714186333 -6.0206359855179592 1 0 0 I I #
vertex $-1 $333 $499 #
straight-curve $-1 -19.383367827365063 -16.616389714186333 6.0206359855179592 -1 0 0 I I #
point $-1 -35.210402368147349 -16.616389714186333 6.0206359855179592 #
point $-1 -35.210402368147349 -16.616389714186333 -6.0206359855179592 #
point $-1 -35.210402368147349 -19.616389714186333 -6.0206359855179592 #
point $-1 -35.210402368147349 -19.616389714186333 6.0206359855179592 #
straight-curve $-1 -42.323068941312904 0 6.0206359855179592 0 -1 0 I I #
straight-curve $-1 -42.323068941312904 0 -6.0206359855179592 0 1 0 I I #
plane-surface $-1 0 -21.395837418926181 0 0 1 0 0 0 1 forward_v I I I I #
coedge $-1 $341 $340 $356 $460 reversed $129 $-1 #
edge $-1 $453 -21.395837418926181 $451 21.395837418926181 $340 $500 forward 7 unknown #
vertex $-1 $348 $501 #
straight-curve $-1 34.791175601056153 21.395837418926181 -1.9555575663540852 0 0 1 I I #
vertex $-1 $346 $502 #
straight-curve $-1 19.278561135592266 -21.395837418926181 -5.4111151327081703 1 0 0 I I #
straight-curve $-1 19.278561135592266 21.395837418926181 -5.4111151327081703 -1 0 0 I I #
point $-1 42.323068941312911 -21.395837418926181 -5.4111151327081703 #
point $-1 42.323068941312911 21.395837418926181 -5.4111151327081703 #
straight-curve $-1 34.791175601056153 0 -2.4111151327081703 0 -1 0 I I #
point $-1 34.791175601056153 21.395837418926181 -2.4111151327081703 #
edge $-1 $359 0.45555756635408517 $453 3.4555575663540852 $356 $503 forward 7 unknown #
point $-1 34.791175601056153 -21.395837418926181 -2.4111151327081703 #
straight-curve $-1 42.323068941312904 -21.395837418926181 0 0 0 -1 I I #
straight-curve $-1 42.323068941312904 21.395837418926181 0 0 0 -1 I I #
coedge $-1 $376 $375 $368 $465 forward $365 $-1 #
edge $-1 $466 16.755449124636403 $469 22.079532923302537 $464 $504 forward 7 unknown #
vertex $-1 $380 $505 #
straight-curve $-1 1.1090747128468408 -46.589917084035086 6.0206359855179592 0 -1 0 I I #
edge $-1 $469 -1.7984851361675993 $377 7.6136048341964795 $376 $506 forward 7 unknown #
vertex $-1 $468 $507 #
straight-curve $-1 1.1090747128468408 -21.395837418926178 0.69655218685183229 0 0.52991925155115449 0.84804810408105047 I I #
point $-1 1.1090747128468408 -18.06898073684917 6.0206359855179592 #
point $-1 10.52116468321092 -21.395837418926181 0.69655218685182663 #
straight-curve $-1 0 -21.395837418926181 6.0206359855179592 1 0 0 I I #
vertex $-1 $383 $508 #
point $-1 4.7982432758080051 -18.160257764602861 2.3762049466397732 #
vertex $-1 $387 $509 #
point $-1 8.8319961202497552 -18.160257764602861 2.3762049466397732 #
edge $-1 $479 39.182153213535614 $482 44.379113472542038 $392 $510 forward 7 unknown #
vertex $-1 $406 $511 #
straight-curve $-1 11.672617859172561 26.279789646627172 6.0206359855179556 0 1 0 I I #
edge $-1 $482 -8.7501216750816226 $403 2.9051293068997452 $402 $512 forward 7 unknown #
vertex $-1 $481 $513 #
straight-curve $-1 11.672617859172561 -8.3297573280640975 31.605430913085755 0 -0.69465836192734942 0.71933980857756763 I I #
point $-1 11.672617859172561 16.377191352803944 6.0206359855179556 #
point $-1 0.017366877191193453 21.395837418926181 0.82367572651153864 #
straight-curve $-1 0 21.395837418926181 6.0206359855179592 -1 0 0 I I #
vertex $-1 $409 $514 #
point $-1 4.8474385863287281 17.560235043984346 2.1413828137014668 #
vertex $-1 $413 $515 #
point $-1 9.8425461500350266 17.560235043984346 2.1413828137014668 #
straight-curve $-1 -42.323068941312904 21.395837418926181 0 0 0 -1 I I #
point $-1 -42.323068941312904 -21.395837418926181 -6.0206359855179592 #
straight-curve $-1 -42.323068941312904 0 -6.0206359855179592 0 1 0 I I #
point $-1 -42.323068941312904 21.395837418926181 -6.0206359855179592 #
straight-curve $-1 -35.210402368147349 -9.0581948570931665 -6.0206359855179592 0 -1 0 I I #
straight-curve $-1 -35.210402368147349 -9.0581948570931665 6.0206359855179592 0 1 0 I I #
straight-curve $-1 -42.323068941312904 -16.616389714186333 0 0 0 -1 I I #
point $-1 -42.323068941312904 -16.616389714186333 -6.0206359855179592 #
point $-1 -42.323068941312904 -16.616389714186333 6.0206359855179592 #
straight-curve $-1 34.791175601056153 0 -5.4111151327081703 0 1 0 I I #
point $-1 34.791175601056153 21.395837418926181 -5.4111151327081703 #
point $-1 34.791175601056153 -21.395837418926181 -5.4111151327081703 #
straight-curve $-1 34.791175601056153 -21.395837418926181 -1.9555575663540852 0 0 -1 I I #
straight-curve $-1 1.1090747128468408 -21.395837418926178 22.776085110154362 0 0 -1 I I #
point $-1 1.1090747128468408 -21.395837418926181 6.0206359855179592 #
straight-curve $-1 2.9075598490144401 -21.395837418926181 0.69655218685182141 1 0 0 I I #
point $-1 1.1090747128468408 -21.395837418926181 0.69655218685182663 #
point $-1 3.7982432758080051 -17.312209660521809 1.8462856950886188 #
point $-1 7.8319961202497552 -17.312209660521809 1.8462856950886188 #
straight-curve $-1 11.672617859172561 21.395837418926181 45.202789199053576 0 0 -1 I I #
point $-1 11.672617859172561 21.395837418926181 6.0206359855179592 #
straight-curve $-1 2.9224961840909387 21.395837418926181 0.82367572651154219 -1 0 0 I I #
point $-1 11.672617859172561 21.395837418926181 0.82367572651153864 #
point $-1 3.3474385863287281 16.481225331117994 1.0993952708104424 #
point $-1 8.3425461500350266 16.481225331117994 1.0993952708104424 #
End-of-ACIS-data 