500 0 7 0           
7 Unknown 11 ACIS 5.0 NT 24 Thu Mar 25 15:33:20 1999 
-1 9.9999999999999995e-007 1e-010 
body $-1 $7 $-1 $8 #
body $-1 $9 $-1 $10 #
body $-1 $11 $-1 $12 #
body $-1 $13 $-1 $14 #
body $-1 $15 $-1 $16 #
body $-1 $17 $-1 $18 #
body $-1 $19 $-1 $20 #
lump $-1 $-1 $21 $0 #
transform $-1 1 0 0 0 1 0 0 0 1 41.417279580065312 18.946759056164648 7.5869144436761484 1 rotate no_reflect no_shear #
lump $-1 $-1 $22 $1 #
transform $-1 1 0 0 0 1 0 0 0 1 41.417279580065312 18.946759056164648 7.5869144436761484 1 rotate no_reflect no_shear #
lump $-1 $-1 $23 $2 #
transform $-1 1 0 0 0 1 0 0 0 1 41.417279580065312 18.946759056164648 7.5869144436761484 1 rotate no_reflect no_shear #
lump $-1 $-1 $24 $3 #
transform $-1 1 0 0 0 1 0 0 0 1 41.417279580065312 18.946759056164648 7.5869144436761484 1 rotate no_reflect no_shear #
lump $-1 $-1 $25 $4 #
transform $-1 1 0 0 0 1 0 0 0 1 41.417279580065312 18.946759056164648 7.5869144436761484 1 rotate no_reflect no_shear #
lump $-1 $-1 $26 $5 #
transform $-1 1 0 0 0 1 0 0 0 1 41.417279580065312 18.946759056164648 7.5869144436761484 1 rotate no_reflect no_shear #
lump $-1 $-1 $27 $6 #
transform $-1 1 0 0 0 1 0 0 0 1 41.417279580065312 18.946759056164648 7.5869144436761484 1 rotate no_reflect no_shear #
shell $-1 $-1 $-1 $28 $-1 $7 #
shell $-1 $-1 $-1 $29 $-1 $9 #
shell $-1 $-1 $-1 $30 $-1 $11 #
shell $-1 $-1 $-1 $31 $-1 $13 #
shell $-1 $-1 $-1 $32 $-1 $15 #
shell $-1 $-1 $-1 $33 $-1 $17 #
shell $-1 $-1 $-1 $34 $-1 $19 #
face $-1 $35 $36 $21 $-1 $37 forward single #
face $-1 $38 $39 $22 $-1 $40 forward single #
face $-1 $41 $42 $23 $-1 $43 reversed single #
face $-1 $44 $45 $24 $-1 $46 forward single #
face $-1 $47 $48 $25 $-1 $49 reversed single #
face $-1 $50 $51 $26 $-1 $52 forward single #
face $-1 $53 $54 $27 $-1 $55 forward single #
face $-1 $56 $57 $21 $-1 $58 reversed single #
loop $-1 $-1 $59 $28 #
plane-surface $-1 0 0 7.5869144436761484 0 0 1 1 0 0 forward_v I I I I #
face $-1 $60 $61 $22 $-1 $62 reversed single #
loop $-1 $-1 $63 $29 #
plane-surface $-1 0 -14.388907527238914 -4.5869144436761484 0 0 1 1 0 0 forward_v I I I I #
face $-1 $64 $65 $23 $-1 $66 reversed single #
loop $-1 $-1 $67 $30 #
plane-surface $-1 -112.42035570920272 12.545975063031186 45.14391899584934 0 1 0 -0.85716730853699208 0 0.51503806187062418 forward_v I I I I #
face $-1 $68 $69 $24 $-1 $70 forward single #
loop $-1 $71 $72 $31 #
cone-surface $-1 -38.315875578344247 15.746367059597919 4.0921385704959352 0.85716730853699208 0 -0.51503806187062418 0.51503806187062418 0 0.85716730853699208 1 I I 0 1 1 forward I I I I #
face $-1 $73 $74 $25 $-1 $75 reversed single #
loop $-1 $-1 $76 $32 #
plane-surface $-1 47.548216240146004 11.872911910335624 117.53297713672536 0 1 0 0.74314483375859142 0 0.66913059716165679 forward_v I I I I #
face $-1 $77 $78 $26 $-1 $79 forward single #
loop $-1 $80 $81 $33 #
cone-surface $-1 37.47503333690166 13.894011094858204 3.3711409654007696 -0.74314483375859142 0 -0.66913059716165679 0.66913059716165679 0 -0.74314483375859142 1 I I 0 1 1 forward I I I I #
face $-1 $82 $83 $27 $-1 $84 forward single #
loop $-1 $85 $86 $34 #
cone-surface $-1 37.47503333690166 16.925659871642072 3.3711409654007696 -0.74314483375859142 0 -0.66913059716165679 0.66913059716165679 0 -0.74314483375859142 1 I I 0 1 1 forward I I I I #
face $-1 $87 $88 $21 $-1 $89 reversed single #
loop $-1 $-1 $90 $35 #
plane-surface $-1 0 0 -7.5869144436761484 0 0 1 1 0 0 forward_v I I I I #
coedge $-1 $91 $92 $93 $94 forward $36 $-1 #
face $-1 $95 $96 $22 $-1 $97 reversed single #
loop $-1 $-1 $98 $38 #
plane-surface $-1 0 -9.8310559983131789 -6.0869144436761484 0 -1 0 0 0 -1 forward_v I I I I #
coedge $-1 $99 $100 $101 $102 reversed $39 $-1 #
face $-1 $103 $104 $23 $-1 $105 reversed single #
loop $-1 $-1 $106 $41 #
plane-surface $-1 -41.417279580065312 15.746367059597919 2.4809681901081078 -0.85716730853699208 0 0.51503806187062418 0.51503806187062418 0 0.85716730853699208 forward_v I I I I #
coedge $-1 $107 $108 $109 $110 reversed $42 $-1 #
face $-1 $-1 $111 $24 $-1 $112 forward single #
loop $-1 $113 $114 $44 #
cone-surface $-1 -36.319868882817183 15.746367059597919 2.89281679316443 0.85716730853699208 0 -0.51503806187062418 0.25751903093531209 0 0.42858365426849604 1 I I -0.70710678118654746 0.70710678118654746 0.5 forward I I I I #
loop $-1 $-1 $115 $31 #
coedge $-1 $72 $72 $116 $117 reversed $45 $-1 #
face $-1 $118 $119 $25 $-1 $120 forward single #
loop $-1 $-1 $121 $47 #
plane-surface $-1 -14.009858456375476 15.409835483250138 62.10583910028457 0.74314483375859142 0 0.66913059716165679 0.66913059716165679 0 -0.74314483375859142 forward_v I I I I #
coedge $-1 $122 $123 $124 $125 reversed $48 $-1 #
face $-1 $-1 $126 $26 $-1 $127 forward single #
loop $-1 $128 $129 $50 #
cone-surface $-1 36.330254180164744 13.894011094858204 2.3403772085010903 -0.74314483375859142 0 -0.66913059716165679 0.3345652985808284 0 -0.37157241687929571 1 I I -0.70710678118654746 0.70710678118654746 0.5 forward I I I I #
loop $-1 $-1 $130 $33 #
coedge $-1 $81 $81 $131 $132 reversed $51 $-1 #
face $-1 $-1 $133 $27 $-1 $134 forward single #
loop $-1 $135 $136 $53 #
cone-surface $-1 36.330254180164744 16.925659871642072 2.3403772085010903 -0.74314483375859142 0 -0.66913059716165679 0.3345652985808284 0 -0.37157241687929571 1 I I -0.70710678118654746 0.70710678118654746 0.5 forward I I I I #
loop $-1 $-1 $137 $34 #
coedge $-1 $86 $86 $138 $139 reversed $54 $-1 #
face $-1 $140 $141 $21 $-1 $142 reversed single #
loop $-1 $-1 $143 $56 #
plane-surface $-1 0 -18.946759056164648 0 0 1 0 0 0 1 forward_v I I I I #
coedge $-1 $144 $145 $146 $147 forward $57 $-1 #
coedge $-1 $148 $59 $149 $150 forward $36 $-1 #
coedge $-1 $59 $148 $151 $152 forward $36 $-1 #
coedge $-1 $153 $154 $59 $94 reversed $155 $-1 #
edge $-1 $156 -18.946759056164648 $157 18.946759056164648 $93 $158 forward 7 unknown #
face $-1 $159 $160 $22 $-1 $161 reversed single #
loop $-1 $-1 $162 $60 #
plane-surface $-1 0 0 -7.5869144436761484 0 0 1 1 0 0 forward_v I I I I #
coedge $-1 $163 $164 $165 $166 reversed $61 $-1 #
coedge $-1 $167 $63 $164 $168 forward $39 $-1 #
coedge $-1 $63 $167 $169 $170 reversed $39 $-1 #
coedge $-1 $171 $165 $63 $102 forward $160 $-1 #
edge $-1 $172 2.6366022346937221 $173 11.752305292545191 $101 $174 forward 7 unknown #
face $-1 $175 $176 $23 $-1 $177 reversed single #
loop $-1 $-1 $178 $64 #
plane-surface $-1 0 18.946759056164648 0 0 -1 0 0 0 -1 forward_v I I I I #
coedge $-1 $179 $180 $181 $182 reversed $65 $-1 #
coedge $-1 $108 $67 $183 $184 reversed $42 $-1 #
coedge $-1 $67 $107 $179 $185 reversed $42 $-1 #
coedge $-1 $181 $186 $67 $110 forward $187 $-1 #
edge $-1 $188 14.79289827453605 $189 17.860860195461044 $109 $190 forward 7 unknown #
loop $-1 $-1 $116 $68 #
plane-surface $-1 -41.417279580065312 15.746367059597919 2.4809681901081078 -0.85716730853699208 0 0.51503806187062418 0.51503806187062418 0 0.85716730853699208 forward_v I I I I #
loop $-1 $-1 $191 $44 #
coedge $-1 $114 $114 $115 $192 reversed $69 $-1 #
coedge $-1 $115 $115 $114 $192 forward $71 $-1 #
coedge $-1 $116 $116 $72 $117 forward $111 $-1 #
edge $-1 $193 0 $193 6.2831853071796004 $116 $194 forward 7 unknown #
face $-1 $195 $196 $25 $-1 $197 reversed single #
loop $-1 $-1 $198 $73 #
plane-surface $-1 0 0 7.5869144436761484 0 0 1 1 0 0 forward_v I I I I #
coedge $-1 $199 $200 $201 $202 reversed $74 $-1 #
coedge $-1 $123 $76 $203 $204 reversed $48 $-1 #
coedge $-1 $76 $122 $199 $205 reversed $48 $-1 #
coedge $-1 $201 $206 $76 $125 forward $207 $-1 #
edge $-1 $208 51.179574124686532 $209 58.218724164599593 $124 $210 forward 7 unknown #
loop $-1 $-1 $131 $77 #
plane-surface $-1 -14.009858456375476 15.409835483250138 62.10583910028457 0.74314483375859142 0 0.66913059716165679 0.66913059716165679 0 -0.74314483375859142 forward_v I I I I #
loop $-1 $-1 $211 $50 #
coedge $-1 $129 $129 $130 $212 reversed $78 $-1 #
coedge $-1 $130 $130 $129 $212 forward $80 $-1 #
coedge $-1 $131 $131 $81 $132 forward $126 $-1 #
edge $-1 $213 0 $213 6.2831853071796004 $131 $214 forward 7 unknown #
loop $-1 $-1 $138 $82 #
plane-surface $-1 -14.009858456375476 15.409835483250138 62.10583910028457 0.74314483375859142 0 0.66913059716165679 0.66913059716165679 0 -0.74314483375859142 forward_v I I I I #
loop $-1 $-1 $215 $53 #
coedge $-1 $136 $136 $137 $216 reversed $83 $-1 #
coedge $-1 $137 $137 $136 $216 forward $85 $-1 #
coedge $-1 $138 $138 $86 $139 forward $133 $-1 #
edge $-1 $217 0 $217 6.2831853071796004 $138 $218 forward 7 unknown #
face $-1 $219 $220 $21 $-1 $221 reversed single #
loop $-1 $-1 $222 $87 #
plane-surface $-1 -41.417279580065312 0 0 1 0 0 0 0 -1 forward_v I I I I #
coedge $-1 $223 $151 $224 $225 forward $88 $-1 #
coedge $-1 $226 $90 $223 $227 forward $57 $-1 #
coedge $-1 $90 $226 $228 $229 forward $57 $-1 #
coedge $-1 $154 $153 $90 $147 reversed $155 $-1 #
edge $-1 $230 -18.946759056164648 $231 18.946759056164648 $146 $232 forward 7 unknown #
coedge $-1 $92 $91 $233 $234 forward $36 $-1 #
coedge $-1 $235 $236 $91 $150 reversed $220 $-1 #
edge $-1 $157 -41.417279580065312 $237 41.417279580065312 $149 $238 forward 7 unknown #
coedge $-1 $143 $239 $92 $152 reversed $88 $-1 #
edge $-1 $240 -41.417279580065312 $156 41.417279580065312 $151 $241 forward 7 unknown #
coedge $-1 $146 $93 $239 $242 forward $155 $-1 #
coedge $-1 $93 $146 $235 $243 reversed $155 $-1 #
loop $-1 $-1 $153 $219 #
vertex $-1 $94 $244 #
vertex $-1 $94 $245 #
straight-curve $-1 41.417279580065312 0 7.5869144436761484 0 1 0 I I #
face $-1 $246 $247 $22 $-1 $248 reversed single #
loop $-1 $-1 $165 $95 #
plane-surface $-1 41.417279580065312 0 0 -1 0 0 0 0 1 forward_v I I I I #
coedge $-1 $249 $250 $163 $251 forward $96 $-1 #
coedge $-1 $252 $98 $162 $251 reversed $61 $-1 #
coedge $-1 $98 $252 $99 $168 reversed $61 $-1 #
coedge $-1 $101 $253 $98 $166 forward $160 $-1 #
edge $-1 $254 -4.5434572218380742 $172 -1.5434572218380742 $165 $255 forward 7 unknown #
coedge $-1 $100 $99 $256 $257 reversed $39 $-1 #
edge $-1 $172 -41.417279580065312 $258 41.417279580065312 $164 $259 forward 7 unknown #
coedge $-1 $260 $261 $100 $170 forward $247 $-1 #
edge $-1 $173 -41.417279580065312 $262 41.417279580065312 $169 $263 forward 7 unknown #
coedge $-1 $253 $101 $261 $264 forward $160 $-1 #
vertex $-1 $102 $265 #
vertex $-1 $264 $266 #
straight-curve $-1 41.417279580065312 -7.1944537636194568 -4.5869144436761484 0 -1 0 I I #
face $-1 $-1 $187 $23 $-1 $267 forward single #
loop $-1 $-1 $268 $103 #
plane-surface $-1 -41.417279580065312 0 0 1 0 0 0 0 -1 forward_v I I I I #
coedge $-1 $269 $270 $180 $271 forward $104 $-1 #
coedge $-1 $272 $106 $108 $185 forward $65 $-1 #
coedge $-1 $106 $272 $178 $271 reversed $65 $-1 #
coedge $-1 $273 $109 $106 $182 forward $187 $-1 #
edge $-1 $189 4.6727915332322265 $274 11.073575526365692 $181 $275 forward 7 unknown #
coedge $-1 $276 $268 $107 $184 forward $176 $-1 #
edge $-1 $277 -20.090991307816562 $188 -14.985045054248522 $183 $278 forward 7 unknown #
edge $-1 $189 -5.9567673693515433 $277 0 $108 $279 forward 7 unknown #
coedge $-1 $109 $273 $276 $280 forward $187 $-1 #
loop $-1 $-1 $181 $175 #
vertex $-1 $184 $281 #
vertex $-1 $110 $282 #
straight-curve $-1 -56.210177854601362 12.545975063031186 7.5869144436761466 1 0 0 I I #
coedge $-1 $191 $191 $-1 $283 reversed $113 $-1 #
edge $-1 $284 0 $284 6.2831853071796004 $114 $285 forward 7 unknown #
vertex $-1 $117 $286 #
ellipse-curve $-1 -39.883298619602812 15.746367059597919 5.0339413168921281 -0.85716730853699208 0 0.51503806187062418 0.51503806187062418 0 0.85716730853699208 1 I I #
face $-1 $-1 $207 $25 $-1 $287 reversed single #
loop $-1 $-1 $288 $118 #
plane-surface $-1 0 18.946759056164648 0 0 -1 0 0 0 -1 forward_v I I I I #
coedge $-1 $203 $289 $290 $291 forward $119 $-1 #
coedge $-1 $290 $121 $123 $205 forward $74 $-1 #
coedge $-1 $121 $290 $288 $292 reversed $74 $-1 #
coedge $-1 $293 $124 $121 $202 forward $207 $-1 #
edge $-1 $209 4.1679941687105551 $294 11.241841314539579 $201 $295 forward 7 unknown #
coedge $-1 $296 $198 $122 $204 forward $119 $-1 #
edge $-1 $297 11.305092453380276 $208 17.64317145999231 $203 $298 forward 7 unknown #
edge $-1 $209 -82.834559160130624 $297 -73.362448583365563 $123 $299 forward 7 unknown #
coedge $-1 $124 $293 $296 $300 reversed $207 $-1 #
loop $-1 $-1 $201 $195 #
vertex $-1 $300 $301 #
vertex $-1 $125 $302 #
straight-curve $-1 41.417279580065312 11.872911910335624 58.766488568362682 0 0 -1 I I #
coedge $-1 $211 $211 $-1 $303 reversed $128 $-1 #
edge $-1 $304 0 $304 6.2831853071796004 $129 $305 forward 7 unknown #
vertex $-1 $132 $306 #
ellipse-curve $-1 38.248240076759288 13.894011094858204 4.0673394237196243 0.74314483375859142 0 0.66913059716165679 0.66913059716165679 0 -0.74314483375859142 1 I I #
coedge $-1 $215 $215 $-1 $307 reversed $135 $-1 #
edge $-1 $308 0 $308 6.2831853071796004 $136 $309 forward 7 unknown #
vertex $-1 $139 $310 #
ellipse-curve $-1 38.248240076759288 16.925659871642072 4.0673394237196243 0.74314483375859142 0 0.66913059716165679 0.66913059716165679 0 -0.74314483375859142 1 I I #
face $-1 $-1 $155 $21 $-1 $311 reversed single #
loop $-1 $-1 $235 $140 #
plane-surface $-1 0 18.946759056164648 0 0 -1 0 0 0 -1 forward_v I I I I #
coedge $-1 $312 $233 $236 $313 forward $141 $-1 #
coedge $-1 $239 $143 $144 $227 reversed $88 $-1 #
coedge $-1 $233 $312 $143 $225 reversed $141 $-1 #
edge $-1 $240 -7.5869144436761484 $314 7.5869144436761484 $224 $315 forward 7 unknown #
coedge $-1 $145 $144 $312 $316 forward $57 $-1 #
edge $-1 $231 -41.417279580065312 $314 41.417279580065312 $223 $317 forward 7 unknown #
coedge $-1 $236 $235 $145 $229 reversed $220 $-1 #
edge $-1 $318 -41.417279580065312 $230 41.417279580065312 $228 $319 forward 7 unknown #
vertex $-1 $147 $320 #
vertex $-1 $242 $321 #
straight-curve $-1 41.417279580065312 0 -7.5869144436761484 0 -1 0 I I #
coedge $-1 $222 $224 $148 $234 reversed $141 $-1 #
edge $-1 $237 -18.946759056164648 $240 18.946759056164648 $233 $322 forward 7 unknown #
coedge $-1 $228 $149 $154 $243 forward $220 $-1 #
coedge $-1 $149 $228 $222 $313 reversed $220 $-1 #
vertex $-1 $150 $323 #
straight-curve $-1 0 18.946759056164648 7.5869144436761484 -1 0 0 I I #
coedge $-1 $151 $223 $153 $242 reversed $88 $-1 #
vertex $-1 $234 $324 #
straight-curve $-1 0 -18.946759056164648 7.5869144436761484 1 0 0 I I #
edge $-1 $156 -7.5869144436761484 $231 7.5869144436761484 $153 $325 forward 7 unknown #
edge $-1 $157 -7.5869144436761484 $230 7.5869144436761484 $154 $326 forward 7 unknown #
point $-1 41.417279580065312 -18.946759056164648 7.5869144436761484 #
point $-1 41.417279580065312 18.946759056164648 7.5869144436761484 #
face $-1 $-1 $327 $22 $-1 $328 reversed single #
loop $-1 $-1 $169 $159 #
plane-surface $-1 0 -18.946759056164648 0 0 1 0 0 0 1 forward_v I I I I #
coedge $-1 $329 $162 $253 $330 forward $96 $-1 #
coedge $-1 $162 $329 $331 $332 forward $96 $-1 #
edge $-1 $333 -41.417279580065312 $254 41.417279580065312 $162 $334 forward 7 unknown #
coedge $-1 $164 $163 $335 $336 reversed $61 $-1 #
coedge $-1 $165 $171 $249 $330 reversed $160 $-1 #
vertex $-1 $330 $337 #
straight-curve $-1 41.417279580065312 -9.8310559983131789 -3.0434572218380742 0 0 1 I I #
coedge $-1 $335 $338 $167 $257 forward $327 $-1 #
edge $-1 $262 -11.752305292545191 $258 -2.6366022346937221 $256 $339 forward 7 unknown #
vertex $-1 $257 $340 #
straight-curve $-1 0 -9.8310559983131789 -4.5869144436761484 -1 0 0 I I #
coedge $-1 $341 $169 $338 $342 forward $247 $-1 #
coedge $-1 $169 $341 $171 $264 reversed $247 $-1 #
vertex $-1 $342 $343 #
straight-curve $-1 0 -18.946759056164648 -4.5869144436761484 -1 0 0 I I #
edge $-1 $173 4.5869144436761484 $344 7.5869144436761484 $171 $345 forward 7 unknown #
point $-1 41.417279580065312 -9.8310559983131789 -4.5869144436761484 #
point $-1 41.417279580065312 -18.946759056164648 -4.5869144436761484 #
plane-surface $-1 0 0 7.5869144436761484 0 0 1 1 0 0 forward_v I I I I #
coedge $-1 $183 $346 $272 $347 forward $176 $-1 #
coedge $-1 $270 $178 $346 $348 reversed $104 $-1 #
coedge $-1 $178 $269 $273 $349 reversed $104 $-1 #
edge $-1 $274 3.6456679190433383 $350 9.6024352883948811 $178 $351 forward 7 unknown #
coedge $-1 $180 $179 $268 $347 reversed $65 $-1 #
coedge $-1 $186 $181 $270 $349 forward $187 $-1 #
vertex $-1 $349 $352 #
straight-curve $-1 -38.349317659140311 7.8731835297989594 7.5869144436761484 0 1 0 I I #
coedge $-1 $346 $183 $186 $280 reversed $176 $-1 #
vertex $-1 $184 $353 #
straight-curve $-1 -41.417279580065312 12.545975063031186 22.57195949792467 0 0 1 I I #
straight-curve $-1 -41.417279580065312 12.545975063031186 2.4809681901081078 -0.51503806187062418 0 -0.85716730853699208 I I #
edge $-1 $354 -18.946759056164648 $188 -12.545975063031186 $276 $355 forward 7 unknown #
point $-1 -41.417279580065312 12.545975063031186 7.5869144436761484 #
point $-1 -38.349317659140318 12.545975063031186 7.5869144436761484 #
edge $-1 $356 1 $356 0 $191 $-1 forward 7 unknown #
vertex $-1 $192 $357 #
ellipse-curve $-1 -36.748452537085676 15.746367059597919 3.1503358240997419 -0.85716730853699208 0 0.51503806187062418 0.51503806187062418 0 0.85716730853699208 1 I I #
point $-1 -39.368260557732192 15.746367059597919 5.8911086254291209 #
plane-surface $-1 41.417279580065312 0 0 -1 0 0 0 0 1 forward_v I I I I #
coedge $-1 $358 $359 $200 $292 forward $196 $-1 #
coedge $-1 $198 $296 $358 $360 forward $119 $-1 #
coedge $-1 $200 $199 $198 $291 reversed $74 $-1 #
edge $-1 $361 -11.241841314539583 $297 -4.1679941687105551 $198 $362 forward 7 unknown #
edge $-1 $294 -55.070529945788806 $361 -45.598419369023766 $288 $363 forward 7 unknown #
coedge $-1 $206 $201 $359 $364 reversed $207 $-1 #
vertex $-1 $202 $365 #
straight-curve $-1 41.417279580065312 7.7049177416250689 0.5477644037630931 0 1 0 I I #
coedge $-1 $289 $203 $206 $300 forward $119 $-1 #
vertex $-1 $204 $366 #
straight-curve $-1 23.774108120073002 11.872911910335624 7.5869144436761502 1 0 0 I I #
straight-curve $-1 -14.009858456375476 11.872911910335624 62.10583910028457 -0.66913059716165679 0 0.74314483375859142 I I #
edge $-1 $208 11.872911910335624 $367 18.946759056164648 $206 $368 forward 7 unknown #
point $-1 41.417279580065312 11.872911910335624 7.5869144436761484 #
point $-1 41.417279580065319 11.872911910335624 0.54776440376308955 #
edge $-1 $369 1 $369 0 $211 $-1 forward 7 unknown #
vertex $-1 $212 $370 #
ellipse-curve $-1 36.70182659704404 13.894011094858204 2.6749425070819188 0.74314483375859142 0 0.66913059716165679 0.66913059716165679 0 -0.74314483375859142 1 I I #
point $-1 38.917370673920942 13.894011094858204 3.3241945899610283 #
edge $-1 $371 1 $371 0 $215 $-1 forward 7 unknown #
vertex $-1 $216 $372 #
ellipse-curve $-1 36.70182659704404 16.925659871642072 2.6749425070819188 0.74314483375859142 0 0.66913059716165679 0.66913059716165679 0 -0.74314483375859142 1 I I #
point $-1 38.917370673920942 16.925659871642072 3.3241945899610283 #
plane-surface $-1 41.417279580065312 0 0 -1 0 0 0 0 1 forward_v I I I I #
coedge $-1 $224 $222 $226 $316 reversed $141 $-1 #
edge $-1 $237 -7.5869144436761484 $318 7.5869144436761484 $236 $373 forward 7 unknown #
vertex $-1 $316 $374 #
straight-curve $-1 -41.417279580065312 -18.946759056164648 0 0 0 -1 I I #
edge $-1 $314 -18.946759056164648 $318 18.946759056164648 $312 $375 forward 7 unknown #
straight-curve $-1 0 -18.946759056164648 -7.5869144436761484 -1 0 0 I I #
vertex $-1 $229 $376 #
straight-curve $-1 0 18.946759056164648 -7.5869144436761484 1 0 0 I I #
point $-1 41.417279580065312 18.946759056164648 -7.5869144436761484 #
point $-1 41.417279580065312 -18.946759056164648 -7.5869144436761484 #
straight-curve $-1 -41.417279580065312 0 7.5869144436761484 0 -1 0 I I #
point $-1 -41.417279580065312 18.946759056164648 7.5869144436761484 #
point $-1 -41.417279580065312 -18.946759056164648 7.5869144436761484 #
straight-curve $-1 41.417279580065312 -18.946759056164648 0 0 0 -1 I I #
straight-curve $-1 41.417279580065312 18.946759056164648 0 0 0 -1 I I #
loop $-1 $-1 $335 $246 #
plane-surface $-1 -41.417279580065312 0 0 1 0 0 0 0 -1 forward_v I I I I #
coedge $-1 $250 $249 $341 $377 forward $96 $-1 #
edge $-1 $254 9.8310559983131789 $344 18.946759056164648 $253 $378 forward 7 unknown #
coedge $-1 $338 $335 $250 $332 reversed $327 $-1 #
edge $-1 $379 -18.946759056164648 $333 -9.8310559983131789 $331 $380 forward 7 unknown #
vertex $-1 $336 $381 #
straight-curve $-1 0 -9.8310559983131789 -7.5869144436761484 1 0 0 I I #
coedge $-1 $331 $256 $252 $336 forward $327 $-1 #
edge $-1 $258 1.5434572218380742 $333 4.5434572218380742 $335 $382 forward 7 unknown #
point $-1 41.417279580065312 -9.8310559983131789 -7.5869144436761484 #
coedge $-1 $256 $331 $260 $342 reversed $327 $-1 #
straight-curve $-1 -41.417279580065312 -7.1944537636194568 -4.5869144436761484 0 1 0 I I #
point $-1 -41.417279580065312 -9.8310559983131789 -4.5869144436761484 #
coedge $-1 $261 $260 $329 $377 reversed $247 $-1 #
edge $-1 $262 4.5869144436761484 $379 7.5869144436761484 $338 $383 forward 7 unknown #
point $-1 -41.417279580065312 -18.946759056164648 -4.5869144436761484 #
vertex $-1 $264 $384 #
straight-curve $-1 41.417279580065312 -18.946759056164648 0 0 0 -1 I I #
coedge $-1 $268 $276 $269 $348 forward $176 $-1 #
edge $-1 $350 -11.073575526365692 $277 -4.6727915332322265 $268 $385 forward 7 unknown #
edge $-1 $354 -7.5869144436761484 $350 -2.4809681901081078 $269 $386 forward 7 unknown #
edge $-1 $274 38.349317659140318 $354 41.417279580065312 $270 $387 forward 7 unknown #
vertex $-1 $271 $388 #
straight-curve $-1 -36.471659919892325 18.946759056164648 10.711861801662183 -0.51503806187062429 0 -0.85716730853699219 I I #
point $-1 -38.349317659140318 18.946759056164652 7.5869144436761484 #
point $-1 -41.417279580065312 12.545975063031186 2.4809681901081078 #
vertex $-1 $349 $389 #
straight-curve $-1 -41.417279580065312 0 7.5869144436761484 0 -1 0 I I #
vertex $-1 $283 $390 #
point $-1 -36.233414475215056 15.746367059597919 4.0075031326367343 #
coedge $-1 $359 $288 $289 $360 reversed $196 $-1 #
coedge $-1 $288 $358 $293 $364 forward $196 $-1 #
edge $-1 $367 -41.417279580065312 $361 -35.079200573453278 $358 $391 forward 7 unknown #
vertex $-1 $292 $392 #
straight-curve $-1 35.079200573453278 7.7049177416250689 7.5869144436761502 0 -1 0 I I #
straight-curve $-1 4.5679029914307421 18.946759056164648 41.47314422532385 -0.66913059716165679 0 0.74314483375859142 I I #
edge $-1 $367 -7.5869144436761484 $294 -0.54776440376308799 $293 $393 forward 7 unknown #
point $-1 41.417279580065312 18.946759056164648 0.54776440376308799 #
point $-1 35.079200573453278 11.872911910335624 7.5869144436761502 #
vertex $-1 $300 $394 #
straight-curve $-1 41.417279580065312 0 7.5869144436761484 0 1 0 I I #
vertex $-1 $303 $395 #
point $-1 37.370957194205694 13.894011094858204 1.9317976733233273 #
vertex $-1 $307 $396 #
point $-1 37.370957194205694 16.925659871642072 1.9317976733233273 #
straight-curve $-1 -41.417279580065312 18.946759056164648 0 0 0 -1 I I #
point $-1 -41.417279580065312 -18.946759056164648 -7.5869144436761484 #
straight-curve $-1 -41.417279580065312 0 -7.5869144436761484 0 1 0 I I #
point $-1 -41.417279580065312 18.946759056164648 -7.5869144436761484 #
edge $-1 $344 -41.417279580065312 $379 41.417279580065312 $341 $397 forward 7 unknown #
straight-curve $-1 41.417279580065312 0 -7.5869144436761484 0 -1 0 I I #
vertex $-1 $332 $398 #
straight-curve $-1 -41.417279580065312 0 -7.5869144436761484 0 1 0 I I #
point $-1 -41.417279580065312 -9.8310559983131789 -7.5869144436761484 #
straight-curve $-1 -41.417279580065312 -9.8310559983131789 -3.0434572218380742 0 0 -1 I I #
straight-curve $-1 -41.417279580065312 -18.946759056164648 0 0 0 -1 I I #
point $-1 41.417279580065312 -18.946759056164648 -7.5869144436761484 #
straight-curve $-1 -41.417279580065312 7.8731835297989594 2.4809681901081087 0 -1 0 I I #
straight-curve $-1 -41.417279580065312 18.946759056164648 0 0 0 -1 I I #
straight-curve $-1 0 18.946759056164648 7.5869144436761484 -1 0 0 I I #
point $-1 -41.417279580065312 18.946759056164652 2.4809681901081078 #
point $-1 -41.417279580065312 18.946759056164648 7.5869144436761484 #
point $-1 -35.891285228548689 15.746367059597919 2.635297762229118 #
straight-curve $-1 0 18.946759056164648 7.5869144436761484 -1 0 0 I I #
point $-1 35.079200573453278 18.946759056164652 7.5869144436761502 #
straight-curve $-1 41.417279580065312 18.946759056164648 0 0 0 -1 I I #
point $-1 41.417279580065312 18.946759056164648 7.5869144436761484 #
point $-1 35.958681763285448 13.894011094858204 2.0058119099202618 #
point $-1 35.958681763285448 16.925659871642072 2.0058119099202618 #
straight-curve $-1 0 -18.946759056164648 -7.5869144436761484 -1 0 0 I I #
point $-1 -41.417279580065312 -18.946759056164648 -7.5869144436761484 #
End-of-ACIS-data 