500 0 9 0           
7 Unknown 11 ACIS 5.0 NT 24 Thu Mar 25 18:22:55 1999 
-1 9.9999999999999995e-007 1e-010 
body $-1 $9 $-1 $10 #
body $-1 $11 $-1 $12 #
body $-1 $13 $-1 $14 #
body $-1 $15 $-1 $16 #
body $-1 $17 $-1 $18 #
body $-1 $19 $-1 $20 #
body $-1 $21 $-1 $22 #
body $-1 $23 $-1 $24 #
body $-1 $25 $-1 $26 #
lump $-1 $-1 $27 $0 #
transform $-1 1 0 0 0 1 0 0 0 1 40.437025055696282 27.170442617458232 5.7905622098604104 1 rotate no_reflect no_shear #
lump $-1 $-1 $28 $1 #
transform $-1 1 0 0 0 1 0 0 0 1 40.437025055696282 27.170442617458232 5.7905622098604104 1 rotate no_reflect no_shear #
lump $-1 $-1 $29 $2 #
transform $-1 1 0 0 0 1 0 0 0 1 40.437025055696282 27.170442617458232 5.7905622098604104 1 rotate no_reflect no_shear #
lump $-1 $-1 $30 $3 #
transform $-1 1 0 0 0 1 0 0 0 1 40.437025055696282 27.170442617458232 5.7905622098604104 1 rotate no_reflect no_shear #
lump $-1 $-1 $31 $4 #
transform $-1 1 0 0 0 1 0 0 0 1 40.437025055696282 27.170442617458232 5.7905622098604104 1 rotate no_reflect no_shear #
lump $-1 $-1 $32 $5 #
transform $-1 1 0 0 0 1 0 0 0 1 40.437025055696282 27.170442617458232 5.7905622098604104 1 rotate no_reflect no_shear #
lump $-1 $-1 $33 $6 #
transform $-1 1 0 0 0 1 0 0 0 1 40.437025055696282 27.170442617458232 5.7905622098604104 1 rotate no_reflect no_shear #
lump $-1 $-1 $34 $7 #
transform $-1 1 0 0 0 1 0 0 0 1 40.437025055696282 27.170442617458232 5.7905622098604104 1 rotate no_reflect no_shear #
lump $-1 $-1 $35 $8 #
transform $-1 1 0 0 0 1 0 0 0 1 40.437025055696282 27.170442617458232 5.7905622098604104 1 rotate no_reflect no_shear #
shell $-1 $-1 $-1 $36 $-1 $9 #
shell $-1 $-1 $-1 $37 $-1 $11 #
shell $-1 $-1 $-1 $38 $-1 $13 #
shell $-1 $-1 $-1 $39 $-1 $15 #
shell $-1 $-1 $-1 $40 $-1 $17 #
shell $-1 $-1 $-1 $41 $-1 $19 #
shell $-1 $-1 $-1 $42 $-1 $21 #
shell $-1 $-1 $-1 $43 $-1 $23 #
shell $-1 $-1 $-1 $44 $-1 $25 #
face $-1 $45 $46 $27 $-1 $47 forward single #
face $-1 $48 $49 $28 $-1 $50 forward single #
face $-1 $51 $52 $29 $-1 $53 reversed single #
face $-1 $54 $55 $30 $-1 $56 forward single #
face $-1 $57 $58 $31 $-1 $59 forward single #
face $-1 $60 $61 $32 $-1 $62 forward single #
face $-1 $63 $64 $33 $-1 $65 reversed single #
face $-1 $66 $67 $34 $-1 $68 forward single #
face $-1 $69 $70 $35 $-1 $71 forward single #
face $-1 $72 $73 $27 $-1 $74 reversed single #
loop $-1 $-1 $75 $36 #
plane-surface $-1 0 0 5.7905622098604104 0 0 1 1 0 0 forward_v I I I I #
face $-1 $76 $77 $28 $-1 $78 reversed single #
loop $-1 $-1 $79 $37 #
plane-surface $-1 -40.437025055696282 0 0 1 0 0 0 0 -1 forward_v I I I I #
face $-1 $80 $81 $29 $-1 $82 reversed single #
loop $-1 $-1 $83 $38 #
plane-surface $-1 33.430803046797266 -27.170442617458228 1.0915444149229643 0 -0.78801076186113728 0.61566146476048833 1 0 0 forward_v I I I I #
face $-1 $84 $85 $30 $-1 $86 forward single #
loop $-1 $87 $88 $39 #
cone-surface $-1 29.227069841457862 -24.598138806567242 2.8655065126070496 0 0.78801076186113728 -0.61566146476048833 1 0 0 1 I I 0 1 1 forward I I I I #
face $-1 $89 $90 $31 $-1 $91 forward single #
loop $-1 $92 $93 $40 #
cone-surface $-1 33.430803046797266 -24.598138806567242 2.8655065126070496 0 0.78801076186113728 -0.61566146476048833 1 0 0 1 I I 0 1 1 forward I I I I #
face $-1 $94 $95 $32 $-1 $96 forward single #
loop $-1 $97 $98 $41 #
cone-surface $-1 37.63453625213667 -24.598138806567242 2.8655065126070496 0 0.78801076186113728 -0.61566146476048833 1 0 0 1 I I 0 1 1 forward I I I I #
face $-1 $99 $100 $33 $-1 $101 reversed single #
loop $-1 $-1 $102 $42 #
plane-surface $-1 -10.67603495307856 50.910426155340346 96.949719203782934 1 0 0 0 -0.74314483375859142 -0.66913059716165679 forward_v I I I I #
face $-1 $103 $104 $34 $-1 $105 forward single #
loop $-1 $106 $107 $43 #
cone-surface $-1 -4.3798721017493563 24.947023787607982 3.472568663488234 0 -0.74314483375859142 -0.66913059716165679 0.5 0 0 1 I I 0 1 0.5 forward I I I I #
face $-1 $108 $109 $35 $-1 $110 forward single #
loop $-1 $111 $112 $44 #
cone-surface $-1 5.0643721752444577 24.947023787607982 3.472568663488234 0 -0.74314483375859142 -0.66913059716165679 0.5 0 0 1 I I 0 1 0.5 forward I I I I #
face $-1 $113 $114 $27 $-1 $115 reversed single #
loop $-1 $-1 $116 $45 #
plane-surface $-1 0 0 -5.7905622098604104 0 0 1 1 0 0 forward_v I I I I #
coedge $-1 $117 $118 $119 $120 forward $46 $-1 #
face $-1 $121 $122 $28 $-1 $123 reversed single #
loop $-1 $-1 $124 $48 #
plane-surface $-1 0 27.170442617458232 0 0 -1 0 0 0 -1 forward_v I I I I #
coedge $-1 $125 $126 $127 $128 forward $49 $-1 #
face $-1 $129 $130 $29 $-1 $131 reversed single #
loop $-1 $-1 $132 $51 #
plane-surface $-1 26.424581037898257 -90.900064460532477 50.882580567616046 1 0 0 0 0.78801076186113728 -0.61566146476048833 forward_v I I I I #
coedge $-1 $133 $134 $135 $136 reversed $52 $-1 #
face $-1 $-1 $137 $30 $-1 $138 forward single #
loop $-1 $139 $140 $54 #
cone-surface $-1 29.227069841457862 -23.46746709495854 1.982128980442166 0 0.78801076186113728 -0.61566146476048833 0.5 0 0 1 I I -0.70710678118654746 0.70710678118654746 0.5 forward I I I I #
loop $-1 $-1 $141 $39 #
coedge $-1 $88 $88 $142 $143 reversed $55 $-1 #
face $-1 $-1 $144 $31 $-1 $145 forward single #
loop $-1 $146 $147 $57 #
cone-surface $-1 33.430803046797266 -23.46746709495854 1.982128980442166 0 0.78801076186113728 -0.61566146476048833 0.5 0 0 1 I I -0.70710678118654746 0.70710678118654746 0.5 forward I I I I #
loop $-1 $-1 $148 $40 #
coedge $-1 $93 $93 $149 $150 reversed $58 $-1 #
face $-1 $-1 $151 $32 $-1 $152 forward single #
loop $-1 $153 $154 $60 #
cone-surface $-1 37.63453625213667 -23.46746709495854 1.982128980442166 0 0.78801076186113728 -0.61566146476048833 0.5 0 0 1 I I -0.70710678118654746 0.70710678118654746 0.5 forward I I I I #
loop $-1 $-1 $155 $41 #
coedge $-1 $98 $98 $156 $157 reversed $61 $-1 #
face $-1 $158 $159 $33 $-1 $160 reversed single #
loop $-1 $-1 $161 $63 #
plane-surface $-1 0.34225003674755783 -9.1907063700744729 42.834417757865069 0 0.74314483375859142 0.66913059716165679 1 0 0 forward_v I I I I #
coedge $-1 $162 $163 $164 $165 reversed $64 $-1 #
face $-1 $-1 $166 $34 $-1 $167 forward single #
loop $-1 $168 $169 $66 #
cone-surface $-1 -4.3798721017493563 24.0411749822504 2.656938755921666 0 -0.74314483375859142 -0.66913059716165679 0.25 0 0 1 I I -0.70710678118654746 0.70710678118654746 0.25 forward I I I I #
loop $-1 $-1 $170 $43 #
coedge $-1 $107 $107 $171 $172 reversed $67 $-1 #
face $-1 $-1 $173 $35 $-1 $174 forward single #
loop $-1 $175 $176 $69 #
cone-surface $-1 5.0643721752444577 24.0411749822504 2.656938755921666 0 -0.74314483375859142 -0.66913059716165679 0.25 0 0 1 I I -0.70710678118654746 0.70710678118654746 0.25 forward I I I I #
loop $-1 $-1 $177 $44 #
coedge $-1 $112 $112 $178 $179 reversed $70 $-1 #
face $-1 $180 $181 $27 $-1 $182 reversed single #
loop $-1 $-1 $183 $72 #
plane-surface $-1 0 -27.170442617458232 0 0 1 0 0 0 1 forward_v I I I I #
coedge $-1 $184 $185 $186 $187 forward $73 $-1 #
coedge $-1 $188 $75 $189 $190 forward $46 $-1 #
coedge $-1 $75 $188 $191 $192 forward $46 $-1 #
coedge $-1 $193 $194 $75 $120 reversed $195 $-1 #
edge $-1 $196 -27.170442617458232 $197 27.170442617458232 $119 $198 forward 7 unknown #
face $-1 $199 $200 $28 $-1 $201 reversed single #
loop $-1 $-1 $127 $76 #
plane-surface $-1 -44.055793320926377 0 2.7227500253230792 0 0 1 1 0 0 forward_v I I I I #
coedge $-1 $202 $203 $125 $204 forward $77 $-1 #
coedge $-1 $205 $79 $124 $204 reversed $49 $-1 #
coedge $-1 $79 $205 $206 $207 reversed $49 $-1 #
coedge $-1 $208 $209 $79 $128 reversed $122 $-1 #
edge $-1 $210 -27.170442617458232 $211 27.170442617458232 $127 $212 forward 7 unknown #
face $-1 $213 $214 $29 $-1 $215 forward single #
loop $-1 $-1 $216 $80 #
plane-surface $-1 40.437025055696282 0 0 -1 0 0 0 0 1 forward_v I I I I #
coedge $-1 $217 $218 $219 $220 reversed $81 $-1 #
coedge $-1 $221 $83 $216 $222 reversed $52 $-1 #
coedge $-1 $83 $221 $217 $223 forward $52 $-1 #
coedge $-1 $219 $224 $83 $136 forward $214 $-1 #
edge $-1 $225 -23.721623532297642 $226 -9.709179514499624 $135 $227 forward 7 unknown #
loop $-1 $-1 $142 $84 #
plane-surface $-1 33.430803046797266 -27.170442617458228 1.0915444149229643 0 -0.78801076186113728 0.61566146476048833 1 0 0 forward_v I I I I #
loop $-1 $-1 $228 $54 #
coedge $-1 $140 $140 $141 $229 reversed $85 $-1 #
coedge $-1 $141 $141 $140 $229 forward $87 $-1 #
coedge $-1 $142 $142 $88 $143 forward $137 $-1 #
edge $-1 $230 6.1230770534112703e-016 $230 6.2831853071796013 $142 $231 forward 7 unknown #
loop $-1 $-1 $149 $89 #
plane-surface $-1 33.430803046797266 -27.170442617458228 1.0915444149229643 0 -0.78801076186113728 0.61566146476048833 1 0 0 forward_v I I I I #
loop $-1 $-1 $232 $57 #
coedge $-1 $147 $147 $148 $233 reversed $90 $-1 #
coedge $-1 $148 $148 $147 $233 forward $92 $-1 #
coedge $-1 $149 $149 $93 $150 forward $144 $-1 #
edge $-1 $234 6.1230770534112703e-016 $234 6.2831853071796013 $149 $235 forward 7 unknown #
loop $-1 $-1 $156 $94 #
plane-surface $-1 33.430803046797266 -27.170442617458228 1.0915444149229643 0 -0.78801076186113728 0.61566146476048833 1 0 0 forward_v I I I I #
loop $-1 $-1 $236 $60 #
coedge $-1 $154 $154 $155 $237 reversed $95 $-1 #
coedge $-1 $155 $155 $154 $237 forward $97 $-1 #
coedge $-1 $156 $156 $98 $157 forward $151 $-1 #
edge $-1 $238 6.1230770534112703e-016 $238 6.2831853071796013 $156 $239 forward 7 unknown #
face $-1 $240 $241 $33 $-1 $242 reversed single #
loop $-1 $-1 $243 $99 #
plane-surface $-1 11.360535026573675 50.910426155340346 96.949719203782934 -1 0 0 0 0.74314483375859142 0.66913059716165679 forward_v I I I I #
coedge $-1 $244 $245 $246 $247 reversed $100 $-1 #
coedge $-1 $163 $102 $248 $249 reversed $64 $-1 #
coedge $-1 $102 $162 $244 $250 reversed $64 $-1 #
coedge $-1 $246 $251 $102 $165 forward $252 $-1 #
edge $-1 $253 -1.7152295397880586 $254 1.2914829260765757 $164 $255 forward 7 unknown #
loop $-1 $-1 $171 $103 #
plane-surface $-1 0.34225003674755783 -9.1907063700744729 42.834417757865069 0 0.74314483375859142 0.66913059716165679 1 0 0 forward_v I I I I #
loop $-1 $-1 $256 $66 #
coedge $-1 $169 $169 $170 $257 reversed $104 $-1 #
coedge $-1 $170 $170 $169 $257 forward $106 $-1 #
coedge $-1 $171 $171 $107 $172 forward $166 $-1 #
edge $-1 $258 5.2590278156781236e-016 $258 6.2831853071796013 $171 $259 forward 7 unknown #
loop $-1 $-1 $178 $108 #
plane-surface $-1 0.34225003674755783 -9.1907063700744729 42.834417757865069 0 0.74314483375859142 0.66913059716165679 1 0 0 forward_v I I I I #
loop $-1 $-1 $260 $69 #
coedge $-1 $176 $176 $177 $261 reversed $109 $-1 #
coedge $-1 $177 $177 $176 $261 forward $111 $-1 #
coedge $-1 $178 $178 $112 $179 forward $173 $-1 #
edge $-1 $262 5.2590278156781236e-016 $262 6.2831853071796013 $178 $263 forward 7 unknown #
face $-1 $264 $265 $27 $-1 $266 reversed single #
loop $-1 $-1 $267 $113 #
plane-surface $-1 -40.437025055696282 0 0 1 0 0 0 0 -1 forward_v I I I I #
coedge $-1 $268 $191 $269 $270 forward $114 $-1 #
coedge $-1 $271 $116 $268 $272 forward $73 $-1 #
coedge $-1 $116 $271 $273 $274 forward $73 $-1 #
coedge $-1 $194 $193 $116 $187 reversed $195 $-1 #
edge $-1 $275 -27.170442617458232 $276 27.170442617458232 $186 $277 forward 7 unknown #
coedge $-1 $118 $117 $278 $279 forward $46 $-1 #
coedge $-1 $280 $281 $117 $190 reversed $265 $-1 #
edge $-1 $197 -40.437025055696282 $282 40.437025055696282 $189 $283 forward 7 unknown #
coedge $-1 $183 $284 $118 $192 reversed $114 $-1 #
edge $-1 $285 -40.437025055696282 $196 40.437025055696282 $191 $286 forward 7 unknown #
coedge $-1 $186 $119 $284 $287 forward $195 $-1 #
coedge $-1 $119 $186 $280 $288 reversed $195 $-1 #
loop $-1 $-1 $193 $264 #
vertex $-1 $120 $289 #
vertex $-1 $120 $290 #
straight-curve $-1 40.437025055696282 0 5.7905622098604104 0 1 0 I I #
face $-1 $291 $292 $28 $-1 $293 forward single #
loop $-1 $-1 $294 $121 #
plane-surface $-1 -47.674561586156472 0 4.2566561175917448 1 0 0 0 0 -1 forward_v I I I I #
coedge $-1 $295 $124 $209 $296 reversed $77 $-1 #
coedge $-1 $124 $295 $297 $298 reversed $77 $-1 #
edge $-1 $299 -5.7905622098604104 $211 -2.7227500253230792 $124 $300 forward 7 unknown #
coedge $-1 $126 $125 $301 $302 reversed $49 $-1 #
coedge $-1 $303 $304 $126 $207 forward $305 $-1 #
edge $-1 $210 2.7227500253230792 $306 5.7905622098604104 $206 $307 forward 7 unknown #
coedge $-1 $308 $127 $304 $309 forward $122 $-1 #
coedge $-1 $127 $308 $202 $296 forward $122 $-1 #
vertex $-1 $207 $310 #
vertex $-1 $204 $311 #
straight-curve $-1 -40.437025055696282 0 2.7227500253230792 0 1 0 I I #
face $-1 $-1 $312 $29 $-1 $313 reversed single #
loop $-1 $-1 $135 $129 #
plane-surface $-1 0 0 5.7905622098604104 0 0 1 1 0 0 forward_v I I I I #
coedge $-1 $314 $315 $133 $222 forward $130 $-1 #
coedge $-1 $218 $132 $134 $223 reversed $81 $-1 #
coedge $-1 $132 $217 $316 $317 reversed $81 $-1 #
coedge $-1 $318 $135 $132 $220 forward $214 $-1 #
edge $-1 $226 -21.95086457323373 $319 -18.279589612808007 $219 $320 forward 7 unknown #
coedge $-1 $134 $133 $321 $322 reversed $52 $-1 #
edge $-1 $323 -7.9338228770232124 $225 -1.9706837647613062 $216 $324 forward 7 unknown #
edge $-1 $325 -5.6867396732475225e-015 $226 5.9631391122619011 $217 $326 forward 7 unknown #
coedge $-1 $135 $318 $314 $327 forward $214 $-1 #
vertex $-1 $136 $328 #
vertex $-1 $136 $329 #
straight-curve $-1 16.715401523398633 -23.499167657032508 5.7905622098604113 -1 0 0 I I #
coedge $-1 $228 $228 $-1 $330 reversed $139 $-1 #
edge $-1 $331 0 $331 6.2831853071796004 $140 $332 forward 7 unknown #
vertex $-1 $143 $333 #
ellipse-curve $-1 29.227069841457862 -25.334805137245368 3.4410533123916855 0 -0.78801076186113728 0.61566146476048833 1 0 0 1 I I #
coedge $-1 $232 $232 $-1 $334 reversed $146 $-1 #
edge $-1 $335 0 $335 6.2831853071796004 $147 $336 forward 7 unknown #
vertex $-1 $150 $337 #
ellipse-curve $-1 33.430803046797266 -25.334805137245368 3.4410533123916855 0 -0.78801076186113728 0.61566146476048833 1 0 0 1 I I #
coedge $-1 $236 $236 $-1 $338 reversed $153 $-1 #
edge $-1 $339 0 $339 6.2831853071796004 $154 $340 forward 7 unknown #
vertex $-1 $157 $341 #
ellipse-curve $-1 37.63453625213667 -25.334805137245368 3.4410533123916855 0 -0.78801076186113728 0.61566146476048833 1 0 0 1 I I #
face $-1 $-1 $252 $33 $-1 $342 forward single #
loop $-1 $-1 $343 $158 #
plane-surface $-1 0 27.170442617458232 0 0 -1 0 0 0 -1 forward_v I I I I #
coedge $-1 $344 $345 $346 $347 reversed $159 $-1 #
coedge $-1 $348 $161 $163 $250 forward $100 $-1 #
coedge $-1 $161 $348 $344 $349 forward $100 $-1 #
coedge $-1 $346 $164 $161 $247 forward $252 $-1 #
edge $-1 $254 -10.847159971452339 $350 11.189410008199896 $246 $351 forward 7 unknown #
coedge $-1 $352 $353 $162 $249 forward $241 $-1 #
edge $-1 $354 -46.023589968223078 $253 -42.684297392031056 $248 $355 forward 7 unknown #
edge $-1 $254 49.847423900733524 $354 54.340885234916442 $163 $356 forward 7 unknown #
coedge $-1 $164 $346 $352 $357 forward $252 $-1 #
loop $-1 $-1 $346 $240 #
vertex $-1 $249 $358 #
vertex $-1 $165 $359 #
straight-curve $-1 -10.67603495307856 25.455213077670173 5.7905622098604113 0 -1 0 I I #
coedge $-1 $256 $256 $-1 $360 reversed $168 $-1 #
edge $-1 $361 0 $361 6.2831853071796004 $169 $362 forward 7 unknown #
vertex $-1 $172 $363 #
ellipse-curve $-1 -4.3798721017493563 25.66708638452592 4.1209159217643911 0 0.74314483375859142 0.66913059716165679 0.5 0 0 1 I I #
coedge $-1 $260 $260 $-1 $364 reversed $175 $-1 #
edge $-1 $365 0 $365 6.2831853071796004 $176 $366 forward 7 unknown #
vertex $-1 $179 $367 #
ellipse-curve $-1 5.0643721752444577 25.66708638452592 4.1209159217643911 0 0.74314483375859142 0.66913059716165679 0.5 0 0 1 I I #
face $-1 $-1 $195 $27 $-1 $368 reversed single #
loop $-1 $-1 $280 $180 #
plane-surface $-1 0 27.170442617458232 0 0 -1 0 0 0 -1 forward_v I I I I #
coedge $-1 $369 $278 $281 $370 forward $181 $-1 #
coedge $-1 $284 $183 $184 $272 reversed $114 $-1 #
coedge $-1 $278 $369 $183 $270 reversed $181 $-1 #
edge $-1 $285 -5.7905622098604104 $371 5.7905622098604104 $269 $372 forward 7 unknown #
coedge $-1 $185 $184 $369 $373 forward $73 $-1 #
edge $-1 $276 -40.437025055696282 $371 40.437025055696282 $268 $374 forward 7 unknown #
coedge $-1 $281 $280 $185 $274 reversed $265 $-1 #
edge $-1 $375 -40.437025055696282 $275 40.437025055696282 $273 $376 forward 7 unknown #
vertex $-1 $187 $377 #
vertex $-1 $287 $378 #
straight-curve $-1 40.437025055696282 0 -5.7905622098604104 0 -1 0 I I #
coedge $-1 $267 $269 $188 $279 reversed $181 $-1 #
edge $-1 $282 -27.170442617458232 $285 27.170442617458232 $278 $379 forward 7 unknown #
coedge $-1 $273 $189 $194 $288 forward $265 $-1 #
coedge $-1 $189 $273 $267 $370 reversed $265 $-1 #
vertex $-1 $190 $380 #
straight-curve $-1 0 27.170442617458232 5.7905622098604104 -1 0 0 I I #
coedge $-1 $191 $268 $193 $287 reversed $114 $-1 #
vertex $-1 $279 $381 #
straight-curve $-1 0 -27.170442617458232 5.7905622098604104 1 0 0 I I #
edge $-1 $196 -5.7905622098604104 $276 5.7905622098604104 $193 $382 forward 7 unknown #
edge $-1 $197 -5.7905622098604104 $275 5.7905622098604104 $194 $383 forward 7 unknown #
point $-1 40.437025055696282 -27.170442617458232 5.7905622098604104 #
point $-1 40.437025055696282 27.170442617458232 5.7905622098604104 #
face $-1 $-1 $305 $28 $-1 $384 reversed single #
loop $-1 $-1 $301 $199 #
plane-surface $-1 0 0 5.7905622098604104 0 0 1 1 0 0 forward_v I I I I #
coedge $-1 $385 $386 $295 $387 forward $200 $-1 #
coedge $-1 $203 $202 $294 $387 reversed $77 $-1 #
edge $-1 $388 -3.618768265230095 $211 3.618768265230095 $202 $389 forward 7 unknown #
coedge $-1 $390 $301 $203 $298 forward $292 $-1 #
edge $-1 $299 40.437025055696282 $391 47.674561586156472 $203 $392 forward 7 unknown #
vertex $-1 $298 $393 #
straight-curve $-1 -40.437025055696282 27.170442617458232 0 0 0 -1 I I #
coedge $-1 $297 $394 $205 $302 forward $292 $-1 #
edge $-1 $306 -27.170442617458232 $299 27.170442617458232 $301 $395 forward 7 unknown #
coedge $-1 $396 $206 $394 $397 reversed $305 $-1 #
coedge $-1 $206 $396 $208 $309 reversed $305 $-1 #
loop $-1 $-1 $206 $291 #
vertex $-1 $207 $398 #
straight-curve $-1 -40.437025055696282 -27.170442617458232 0 0 0 1 I I #
coedge $-1 $209 $208 $385 $399 forward $122 $-1 #
edge $-1 $210 -3.618768265230095 $400 3.618768265230095 $304 $401 forward 7 unknown #
point $-1 -40.437025055696282 -27.170442617458232 2.7227500253230792 #
point $-1 -40.437025055696282 27.170442617458232 2.7227500253230792 #
loop $-1 $-1 $321 $213 #
plane-surface $-1 0 -27.170442617458232 0 0 1 0 0 0 1 forward_v I I I I #
coedge $-1 $315 $216 $224 $327 reversed $130 $-1 #
coedge $-1 $216 $314 $402 $403 forward $130 $-1 #
coedge $-1 $321 $404 $218 $317 forward $312 $-1 #
edge $-1 $319 19.650728073947612 $325 24.349745868885062 $316 $405 forward 7 unknown #
coedge $-1 $224 $219 $404 $406 forward $214 $-1 #
vertex $-1 $406 $407 #
straight-curve $-1 26.424581037898257 -45.450032230266238 5.7905622098604113 0 -1 0 I I #
coedge $-1 $402 $316 $221 $322 forward $312 $-1 #
edge $-1 $325 9.709179514499624 $323 23.721623532297642 $321 $408 forward 7 unknown #
vertex $-1 $322 $409 #
straight-curve $-1 40.437025055696282 -22.285893603839849 7.3434822247173415 0 0.61566146476048833 0.78801076186113728 I I #
vertex $-1 $322 $410 #
straight-curve $-1 26.424581037898257 -27.170442617458228 1.0915444149229643 0 0.61566146476048833 0.78801076186113728 I I #
edge $-1 $411 -27.170442617458232 $225 -23.499167657032508 $314 $412 forward 7 unknown #
point $-1 40.437025055696274 -23.499167657032508 5.7905622098604104 #
point $-1 26.424581037898257 -23.499167657032508 5.7905622098604104 #
edge $-1 $413 1 $413 0 $228 $-1 forward 7 unknown #
vertex $-1 $229 $414 #
ellipse-curve $-1 29.227069841457862 -23.861472475889109 2.2899597128224101 0 -0.78801076186113728 0.61566146476048833 1 0 0 1 I I #
point $-1 30.227069841457862 -25.334805137245372 3.4410533123916891 #
edge $-1 $415 1 $415 0 $232 $-1 forward 7 unknown #
vertex $-1 $233 $416 #
ellipse-curve $-1 33.430803046797266 -23.861472475889109 2.2899597128224101 0 -0.78801076186113728 0.61566146476048833 1 0 0 1 I I #
point $-1 34.430803046797266 -25.334805137245372 3.4410533123916891 #
edge $-1 $417 1 $417 0 $236 $-1 forward 7 unknown #
vertex $-1 $237 $418 #
ellipse-curve $-1 37.63453625213667 -23.861472475889109 2.2899597128224101 0 -0.78801076186113728 0.61566146476048833 1 0 0 1 I I #
point $-1 38.63453625213667 -25.334805137245372 3.4410533123916891 #
plane-surface $-1 0 0 5.7905622098604104 0 0 1 1 0 0 forward_v I I I I #
coedge $-1 $353 $352 $345 $419 forward $241 $-1 #
coedge $-1 $345 $243 $245 $349 reversed $159 $-1 #
coedge $-1 $243 $344 $343 $419 reversed $159 $-1 #
coedge $-1 $251 $246 $243 $347 forward $252 $-1 #
edge $-1 $350 -1.2914829260765757 $420 1.7152295397880586 $346 $421 forward 7 unknown #
coedge $-1 $245 $244 $353 $422 reversed $100 $-1 #
edge $-1 $423 -54.340885234916442 $350 -49.847423900733524 $344 $424 forward 7 unknown #
vertex $-1 $247 $425 #
straight-curve $-1 0.17112501837377891 24.163730151593597 5.7905622098604113 1 0 0 I I #
coedge $-1 $343 $248 $251 $357 reversed $241 $-1 #
coedge $-1 $248 $343 $348 $422 forward $241 $-1 #
vertex $-1 $249 $426 #
straight-curve $-1 -10.67603495307856 27.170442617458232 48.474859601891467 0 0 1 I I #
straight-curve $-1 -10.67603495307856 -9.1907063700744729 42.834417757865069 0 0.66913059716165679 -0.74314483375859142 I I #
edge $-1 $420 -11.360535026573675 $253 10.67603495307856 $352 $427 forward 7 unknown #
point $-1 -10.67603495307856 27.170442617458232 5.7905622098604104 #
point $-1 -10.67603495307856 24.163730151593597 5.7905622098604113 #
edge $-1 $428 1 $428 0 $256 $-1 forward 7 unknown #
vertex $-1 $257 $429 #
ellipse-curve $-1 -4.3798721017493563 24.226961190690048 2.82422140521208 0 0.74314483375859142 0.66913059716165679 0.5 0 0 1 I I #
point $-1 -3.8798721017493563 25.667086384525916 4.1209159217643876 #
edge $-1 $430 1 $430 0 $260 $-1 forward 7 unknown #
vertex $-1 $261 $431 #
ellipse-curve $-1 5.0643721752444577 24.226961190690048 2.82422140521208 0 0.74314483375859142 0.66913059716165679 0.5 0 0 1 I I #
point $-1 5.5643721752444577 25.667086384525916 4.1209159217643876 #
plane-surface $-1 40.437025055696282 0 0 -1 0 0 0 0 1 forward_v I I I I #
coedge $-1 $269 $267 $271 $373 reversed $181 $-1 #
edge $-1 $282 -5.7905622098604104 $375 5.7905622098604104 $281 $432 forward 7 unknown #
vertex $-1 $373 $433 #
straight-curve $-1 -40.437025055696282 -27.170442617458232 0 0 0 -1 I I #
edge $-1 $371 -27.170442617458232 $375 27.170442617458232 $369 $434 forward 7 unknown #
straight-curve $-1 0 -27.170442617458232 -5.7905622098604104 -1 0 0 I I #
vertex $-1 $274 $435 #
straight-curve $-1 0 27.170442617458232 -5.7905622098604104 1 0 0 I I #
point $-1 40.437025055696282 27.170442617458232 -5.7905622098604104 #
point $-1 40.437025055696282 -27.170442617458232 -5.7905622098604104 #
straight-curve $-1 -40.437025055696282 0 5.7905622098604104 0 -1 0 I I #
point $-1 -40.437025055696282 27.170442617458232 5.7905622098604104 #
point $-1 -40.437025055696282 -27.170442617458232 5.7905622098604104 #
straight-curve $-1 40.437025055696282 -27.170442617458232 0 0 0 -1 I I #
straight-curve $-1 40.437025055696282 27.170442617458232 0 0 0 -1 I I #
plane-surface $-1 0 -27.170442617458232 0 0 1 0 0 0 1 forward_v I I I I #
coedge $-1 $436 $294 $308 $399 reversed $200 $-1 #
coedge $-1 $294 $436 $390 $437 reversed $200 $-1 #
edge $-1 $391 -1.5339060922686656 $388 1.5339060922686656 $295 $438 forward 7 unknown #
vertex $-1 $296 $439 #
straight-curve $-1 -44.055793320926377 27.170442617458232 2.7227500253230792 1 0 0 I I #
coedge $-1 $394 $297 $386 $437 forward $292 $-1 #
vertex $-1 $298 $440 #
straight-curve $-1 0 27.170442617458232 5.7905622098604104 -1 0 0 I I #
point $-1 -40.437025055696282 27.170442617458232 5.7905622098604104 #
coedge $-1 $301 $390 $303 $397 forward $292 $-1 #
straight-curve $-1 -40.437025055696282 0 5.7905622098604104 0 1 0 I I #
coedge $-1 $304 $303 $436 $441 forward $305 $-1 #
edge $-1 $442 -47.674561586156472 $306 -40.437025055696282 $303 $443 forward 7 unknown #
point $-1 -40.437025055696282 -27.170442617458232 5.7905622098604104 #
edge $-1 $400 -27.170442617458232 $388 27.170442617458232 $385 $444 forward 7 unknown #
vertex $-1 $399 $445 #
straight-curve $-1 -44.055793320926377 -27.170442617458232 2.7227500253230792 -1 0 0 I I #
coedge $-1 $404 $321 $315 $403 reversed $312 $-1 #
edge $-1 $411 -5.7905622098604104 $323 -1.0915444149229598 $315 $446 forward 7 unknown #
coedge $-1 $316 $402 $318 $406 reversed $312 $-1 #
straight-curve $-1 26.424581037898257 -27.170442617458232 25.441290283808023 0 0 -1 I I #
edge $-1 $319 26.424581037898257 $411 40.437025055696282 $404 $447 forward 7 unknown #
point $-1 26.424581037898257 -27.170442617458232 5.7905622098604104 #
straight-curve $-1 16.715401523398633 -27.170442617458232 1.0915444149229576 1 0 0 I I #
point $-1 40.437025055696274 -27.170442617458232 1.0915444149229598 #
point $-1 26.424581037898257 -27.170442617458232 1.0915444149229598 #
vertex $-1 $327 $448 #
straight-curve $-1 40.437025055696282 0 5.7905622098604104 0 1 0 I I #
vertex $-1 $330 $449 #
point $-1 30.227069841457862 -23.861472475889109 2.2899597128224101 #
vertex $-1 $334 $450 #
point $-1 34.430803046797266 -23.861472475889109 2.2899597128224101 #
vertex $-1 $338 $451 #
point $-1 38.63453625213667 -23.861472475889109 2.2899597128224101 #
edge $-1 $420 42.684297392031056 $423 46.023589968223078 $343 $452 forward 7 unknown #
vertex $-1 $357 $453 #
straight-curve $-1 11.360535026573675 25.455213077670173 5.7905622098604113 0 1 0 I I #
edge $-1 $423 -11.189410008199896 $354 10.847159971452339 $353 $454 forward 7 unknown #
vertex $-1 $422 $455 #
straight-curve $-1 11.360535026573675 -9.1907063700744729 42.834417757865069 0 -0.66913059716165679 0.74314483375859142 I I #
point $-1 11.360535026573675 24.163730151593597 5.7905622098604113 #
point $-1 -10.67603495307856 27.170442617458228 2.4512696336683888 #
straight-curve $-1 0 27.170442617458232 5.7905622098604104 -1 0 0 I I #
vertex $-1 $360 $456 #
point $-1 -3.8798721017493563 24.226961190690048 2.82422140521208 #
vertex $-1 $364 $457 #
point $-1 5.5643721752444577 24.226961190690048 2.82422140521208 #
straight-curve $-1 -40.437025055696282 27.170442617458232 0 0 0 -1 I I #
point $-1 -40.437025055696282 -27.170442617458232 -5.7905622098604104 #
straight-curve $-1 -40.437025055696282 0 -5.7905622098604104 0 1 0 I I #
point $-1 -40.437025055696282 27.170442617458232 -5.7905622098604104 #
coedge $-1 $386 $385 $396 $441 reversed $200 $-1 #
edge $-1 $391 -27.170442617458232 $442 27.170442617458232 $386 $458 forward 7 unknown #
straight-curve $-1 -47.674561586156472 27.170442617458232 4.2566561175917448 0 0 -1 I I #
point $-1 -47.674561586156472 27.170442617458232 2.7227500253230792 #
point $-1 -47.674561586156472 27.170442617458232 5.7905622098604104 #
edge $-1 $442 -1.5339060922686656 $400 1.5339060922686656 $436 $459 forward 7 unknown #
vertex $-1 $437 $460 #
straight-curve $-1 0 -27.170442617458232 5.7905622098604104 1 0 0 I I #
straight-curve $-1 -47.674561586156472 0 2.7227500253230792 0 1 0 I I #
point $-1 -47.674561586156472 -27.170442617458232 2.7227500253230792 #
straight-curve $-1 40.437025055696282 -27.170442617458232 0 0 0 -1 I I #
straight-curve $-1 0 -27.170442617458232 5.7905622098604104 1 0 0 I I #
point $-1 40.437025055696282 -27.170442617458232 5.7905622098604104 #
point $-1 29.227069841457862 -23.073461714027971 1.674298248061922 #
point $-1 33.430803046797266 -23.073461714027971 1.674298248061922 #
point $-1 37.63453625213667 -23.073461714027971 1.674298248061922 #
straight-curve $-1 11.360535026573675 27.170442617458232 48.474859601891467 0 0 -1 I I #
point $-1 11.360535026573675 27.170442617458232 5.7905622098604104 #
straight-curve $-1 0.17112501837377891 27.170442617458228 2.4512696336683888 -1 0 0 I I #
point $-1 11.360535026573675 27.170442617458228 2.4512696336683888 #
point $-1 -4.3798721017493563 23.855388773810752 2.4896561066312519 #
point $-1 5.0643721752444577 23.855388773810752 2.4896561066312519 #
straight-curve $-1 -47.674561586156472 0 5.7905622098604104 0 -1 0 I I #
straight-curve $-1 -47.674561586156472 -27.170442617458232 4.2566561175917448 0 0 -1 I I #
point $-1 -47.674561586156472 -27.170442617458232 5.7905622098604104 #
End-of-ACIS-data 