500 0 4 0           
7 Unknown 11 ACIS 5.0 NT 24 Fri Mar 26 03:22:33 1999 
-1 9.9999999999999995e-007 1e-010 
body $-1 $4 $-1 $5 #
body $-1 $6 $-1 $7 #
body $-1 $8 $-1 $9 #
body $-1 $10 $-1 $11 #
lump $-1 $-1 $12 $0 #
transform $-1 1 0 0 0 1 0 0 0 1 46.115909298989834 23.982890578670496 10.682329468875333 1 rotate no_reflect no_shear #
lump $-1 $-1 $13 $1 #
transform $-1 1 0 0 0 1 0 0 0 1 46.115909298989834 23.982890578670496 10.682329468875333 1 rotate no_reflect no_shear #
lump $-1 $-1 $14 $2 #
transform $-1 1 0 0 0 1 0 0 0 1 46.115909298989834 23.982890578670496 10.682329468875333 1 rotate no_reflect no_shear #
lump $-1 $-1 $15 $3 #
transform $-1 1 0 0 0 1 0 0 0 1 46.115909298989834 23.982890578670496 10.682329468875333 1 rotate no_reflect no_shear #
shell $-1 $-1 $-1 $16 $-1 $4 #
shell $-1 $-1 $-1 $17 $-1 $6 #
shell $-1 $-1 $-1 $18 $-1 $8 #
shell $-1 $-1 $-1 $19 $-1 $10 #
face $-1 $20 $21 $12 $-1 $22 forward single #
face $-1 $23 $24 $13 $-1 $25 forward single #
face $-1 $26 $27 $14 $-1 $28 reversed single #
face $-1 $29 $30 $15 $-1 $31 forward single #
face $-1 $32 $33 $12 $-1 $34 reversed single #
loop $-1 $-1 $35 $16 #
plane-surface $-1 0 0 10.682329468875333 0 0 1 1 0 0 forward_v I I I I #
face $-1 $36 $37 $13 $-1 $38 reversed single #
loop $-1 $-1 $39 $17 #
plane-surface $-1 -46.115909298989834 0 0 1 0 0 0 0 -1 forward_v I I I I #
face $-1 $40 $41 $14 $-1 $42 reversed single #
loop $-1 $-1 $43 $18 #
plane-surface $-1 -2.55037877774744 73.624410467705985 97.55546465091264 1 0 0 0 -0.82903758062907751 -0.55919289150049634 forward_v I I I I #
face $-1 $44 $45 $15 $-1 $46 forward single #
loop $-1 $47 $48 $19 #
cone-surface $-1 5.3322486442960937 21.519377791941082 7.8031415656154506 0 -0.82903758062907751 -0.55919289150049634 1 0 0 1 I I 0 1 1 forward I I I I #
face $-1 $49 $50 $12 $-1 $51 reversed single #
loop $-1 $-1 $52 $20 #
plane-surface $-1 0 0 -10.682329468875333 0 0 1 1 0 0 forward_v I I I I #
coedge $-1 $53 $54 $55 $56 forward $21 $-1 #
face $-1 $57 $58 $13 $-1 $59 reversed single #
loop $-1 $-1 $60 $23 #
plane-surface $-1 0 23.982890578670496 0 0 -1 0 0 0 -1 forward_v I I I I #
coedge $-1 $61 $62 $63 $64 forward $24 $-1 #
face $-1 $65 $66 $14 $-1 $67 reversed single #
loop $-1 $-1 $68 $26 #
plane-surface $-1 5.3322486442960937 -2.8392332797830306 45.980087320759132 0 0.82903758062907751 0.55919289150049634 1 0 0 forward_v I I I I #
coedge $-1 $69 $70 $71 $72 reversed $27 $-1 #
face $-1 $-1 $73 $15 $-1 $74 forward single #
loop $-1 $75 $76 $29 #
cone-surface $-1 5.3322486442960937 20.148089366619406 6.8781958724962937 0 -0.82903758062907751 -0.55919289150049634 0.5 0 0 1 I I -0.70710678118654746 0.70710678118654746 0.5 forward I I I I #
loop $-1 $-1 $77 $19 #
coedge $-1 $48 $48 $78 $79 reversed $30 $-1 #
face $-1 $80 $81 $12 $-1 $82 reversed single #
loop $-1 $-1 $83 $32 #
plane-surface $-1 0 -23.982890578670496 0 0 1 0 0 0 1 forward_v I I I I #
coedge $-1 $84 $85 $86 $87 forward $33 $-1 #
coedge $-1 $88 $35 $89 $90 forward $21 $-1 #
coedge $-1 $35 $88 $91 $92 forward $21 $-1 #
coedge $-1 $93 $94 $35 $56 reversed $95 $-1 #
edge $-1 $96 -23.982890578670496 $97 23.982890578670496 $55 $98 forward 7 unknown #
face $-1 $99 $100 $13 $-1 $101 reversed single #
loop $-1 $-1 $63 $36 #
plane-surface $-1 -51.966482301956383 0 7.6823294688753325 0 0 1 1 0 0 forward_v I I I I #
coedge $-1 $102 $103 $61 $104 forward $37 $-1 #
coedge $-1 $105 $39 $60 $104 reversed $24 $-1 #
coedge $-1 $39 $105 $106 $107 reversed $24 $-1 #
coedge $-1 $108 $109 $39 $64 reversed $58 $-1 #
edge $-1 $110 -23.982890578670496 $111 23.982890578670496 $63 $112 forward 7 unknown #
face $-1 $113 $114 $14 $-1 $115 forward single #
loop $-1 $-1 $116 $40 #
plane-surface $-1 13.214876066339627 73.624410467705985 97.55546465091264 -1 0 0 0 0.82903758062907751 0.55919289150049634 forward_v I I I I #
coedge $-1 $117 $118 $119 $120 reversed $41 $-1 #
coedge $-1 $70 $43 $121 $122 reversed $27 $-1 #
coedge $-1 $43 $69 $117 $123 reversed $27 $-1 #
coedge $-1 $119 $124 $43 $72 forward $114 $-1 #
edge $-1 $125 12.829314655182497 $126 15.842800958627031 $71 $127 forward 7 unknown #
loop $-1 $-1 $78 $44 #
plane-surface $-1 5.3322486442960937 -2.8392332797830306 45.980087320759132 0 0.82903758062907751 0.55919289150049634 1 0 0 forward_v I I I I #
loop $-1 $-1 $128 $29 #
coedge $-1 $76 $76 $77 $129 reversed $45 $-1 #
coedge $-1 $77 $77 $76 $129 forward $47 $-1 #
coedge $-1 $78 $78 $48 $79 forward $73 $-1 #
edge $-1 $130 9.5868091821877876e-016 $130 6.2831853071796013 $78 $131 forward 7 unknown #
face $-1 $132 $133 $12 $-1 $134 reversed single #
loop $-1 $-1 $135 $49 #
plane-surface $-1 -46.115909298989834 0 0 1 0 0 0 0 -1 forward_v I I I I #
coedge $-1 $136 $91 $137 $138 forward $50 $-1 #
coedge $-1 $139 $52 $136 $140 forward $33 $-1 #
coedge $-1 $52 $139 $141 $142 forward $33 $-1 #
coedge $-1 $94 $93 $52 $87 reversed $95 $-1 #
edge $-1 $143 -23.982890578670496 $144 23.982890578670496 $86 $145 forward 7 unknown #
coedge $-1 $54 $53 $146 $147 forward $21 $-1 #
coedge $-1 $148 $149 $53 $90 reversed $133 $-1 #
edge $-1 $97 -46.115909298989834 $150 46.115909298989834 $89 $151 forward 7 unknown #
coedge $-1 $83 $152 $54 $92 reversed $50 $-1 #
edge $-1 $153 -46.115909298989834 $96 46.115909298989834 $91 $154 forward 7 unknown #
coedge $-1 $86 $55 $152 $155 forward $95 $-1 #
coedge $-1 $55 $86 $148 $156 reversed $95 $-1 #
loop $-1 $-1 $93 $132 #
vertex $-1 $56 $157 #
vertex $-1 $56 $158 #
straight-curve $-1 46.115909298989834 0 10.682329468875333 0 1 0 I I #
face $-1 $159 $160 $13 $-1 $161 forward single #
loop $-1 $-1 $162 $57 #
plane-surface $-1 -57.817055304922931 0 9.1823294688753325 1 0 0 0 0 -1 forward_v I I I I #
coedge $-1 $163 $60 $109 $164 reversed $37 $-1 #
coedge $-1 $60 $163 $165 $166 reversed $37 $-1 #
edge $-1 $167 -10.682329468875333 $111 -7.6823294688753325 $60 $168 forward 7 unknown #
coedge $-1 $62 $61 $169 $170 reversed $24 $-1 #
coedge $-1 $171 $172 $62 $107 forward $173 $-1 #
edge $-1 $110 7.6823294688753325 $174 10.682329468875333 $106 $175 forward 7 unknown #
coedge $-1 $176 $63 $172 $177 forward $58 $-1 #
coedge $-1 $63 $176 $102 $164 forward $58 $-1 #
vertex $-1 $107 $178 #
vertex $-1 $104 $179 #
straight-curve $-1 -46.115909298989834 0 7.6823294688753325 0 1 0 I I #
face $-1 $-1 $180 $14 $-1 $181 reversed single #
loop $-1 $-1 $71 $65 #
plane-surface $-1 0 0 10.682329468875333 0 0 1 1 0 0 forward_v I I I I #
coedge $-1 $182 $183 $184 $185 reversed $66 $-1 #
coedge $-1 $186 $68 $70 $123 forward $41 $-1 #
coedge $-1 $68 $186 $182 $187 forward $41 $-1 #
coedge $-1 $184 $71 $68 $120 forward $114 $-1 #
edge $-1 $126 -5.2165030998954869 $188 10.548751744191581 $119 $189 forward 7 unknown #
coedge $-1 $190 $191 $69 $122 forward $180 $-1 #
edge $-1 $192 -42.563080168362944 $125 -38.095402856580989 $121 $193 forward 7 unknown #
edge $-1 $126 42.576788648229552 $192 47.965781157340984 $70 $194 forward 7 unknown #
coedge $-1 $71 $184 $190 $195 forward $114 $-1 #
vertex $-1 $122 $196 #
vertex $-1 $72 $197 #
straight-curve $-1 -2.55037877774744 36.812205233852993 10.682329468875331 0 -1 0 I I #
coedge $-1 $128 $128 $-1 $198 reversed $75 $-1 #
edge $-1 $199 0 $199 6.2831853071796004 $76 $200 forward 7 unknown #
vertex $-1 $79 $201 #
ellipse-curve $-1 5.3322486442960937 22.476147426948224 8.4484908129843621 0 0.82903758062907751 0.55919289150049634 1 0 0 1 I I #
face $-1 $-1 $95 $12 $-1 $202 reversed single #
loop $-1 $-1 $148 $80 #
plane-surface $-1 0 23.982890578670496 0 0 -1 0 0 0 -1 forward_v I I I I #
coedge $-1 $203 $146 $149 $204 forward $81 $-1 #
coedge $-1 $152 $83 $84 $140 reversed $50 $-1 #
coedge $-1 $146 $203 $83 $138 reversed $81 $-1 #
edge $-1 $153 -10.682329468875333 $205 10.682329468875333 $137 $206 forward 7 unknown #
coedge $-1 $85 $84 $203 $207 forward $33 $-1 #
edge $-1 $144 -46.115909298989834 $205 46.115909298989834 $136 $208 forward 7 unknown #
coedge $-1 $149 $148 $85 $142 reversed $133 $-1 #
edge $-1 $209 -46.115909298989834 $143 46.115909298989834 $141 $210 forward 7 unknown #
vertex $-1 $87 $211 #
vertex $-1 $155 $212 #
straight-curve $-1 46.115909298989834 0 -10.682329468875333 0 -1 0 I I #
coedge $-1 $135 $137 $88 $147 reversed $81 $-1 #
edge $-1 $150 -23.982890578670496 $153 23.982890578670496 $146 $213 forward 7 unknown #
coedge $-1 $141 $89 $94 $156 forward $133 $-1 #
coedge $-1 $89 $141 $135 $204 reversed $133 $-1 #
vertex $-1 $90 $214 #
straight-curve $-1 0 23.982890578670496 10.682329468875333 -1 0 0 I I #
coedge $-1 $91 $136 $93 $155 reversed $50 $-1 #
vertex $-1 $147 $215 #
straight-curve $-1 0 -23.982890578670496 10.682329468875333 1 0 0 I I #
edge $-1 $96 -10.682329468875333 $144 10.682329468875333 $93 $216 forward 7 unknown #
edge $-1 $97 -10.682329468875333 $143 10.682329468875333 $94 $217 forward 7 unknown #
point $-1 46.115909298989834 -23.982890578670496 10.682329468875333 #
point $-1 46.115909298989834 23.982890578670496 10.682329468875333 #
face $-1 $-1 $173 $13 $-1 $218 reversed single #
loop $-1 $-1 $169 $99 #
plane-surface $-1 0 0 10.682329468875333 0 0 1 1 0 0 forward_v I I I I #
coedge $-1 $219 $220 $163 $221 forward $100 $-1 #
coedge $-1 $103 $102 $162 $221 reversed $37 $-1 #
edge $-1 $222 -5.8505730029665486 $111 5.8505730029665486 $102 $223 forward 7 unknown #
coedge $-1 $224 $169 $103 $166 forward $160 $-1 #
edge $-1 $167 46.115909298989834 $225 57.817055304922931 $103 $226 forward 7 unknown #
vertex $-1 $166 $227 #
straight-curve $-1 -46.115909298989834 23.982890578670496 0 0 0 -1 I I #
coedge $-1 $165 $228 $105 $170 forward $160 $-1 #
edge $-1 $174 -23.982890578670496 $167 23.982890578670496 $169 $229 forward 7 unknown #
coedge $-1 $230 $106 $228 $231 reversed $173 $-1 #
coedge $-1 $106 $230 $108 $177 reversed $173 $-1 #
loop $-1 $-1 $106 $159 #
vertex $-1 $107 $232 #
straight-curve $-1 -46.115909298989834 -23.982890578670496 0 0 0 1 I I #
coedge $-1 $109 $108 $219 $233 forward $58 $-1 #
edge $-1 $110 -5.8505730029665486 $234 5.8505730029665486 $172 $235 forward 7 unknown #
point $-1 -46.115909298989834 -23.982890578670496 7.6823294688753325 #
point $-1 -46.115909298989834 23.982890578670496 7.6823294688753325 #
loop $-1 $-1 $121 $113 #
plane-surface $-1 0 23.982890578670496 0 0 -1 0 0 0 -1 forward_v I I I I #
coedge $-1 $183 $116 $118 $187 reversed $66 $-1 #
coedge $-1 $116 $182 $236 $237 reversed $66 $-1 #
coedge $-1 $124 $119 $116 $185 forward $114 $-1 #
edge $-1 $188 -15.842800958627031 $238 -12.829314655182497 $184 $239 forward 7 unknown #
coedge $-1 $118 $117 $191 $240 reversed $41 $-1 #
edge $-1 $241 -47.965781157340984 $188 -42.576788648229552 $182 $242 forward 7 unknown #
vertex $-1 $120 $243 #
straight-curve $-1 2.6661243221480468 20.969404275225966 10.682329468875331 1 0 0 I I #
coedge $-1 $236 $121 $124 $195 reversed $180 $-1 #
coedge $-1 $121 $236 $186 $240 forward $180 $-1 #
vertex $-1 $122 $244 #
straight-curve $-1 -2.55037877774744 23.982890578670496 48.77773232545632 0 0 1 I I #
straight-curve $-1 -2.55037877774744 -2.8392332797830306 45.980087320759132 0 0.55919289150049634 -0.82903758062907751 I I #
edge $-1 $238 -13.214876066339627 $125 2.55037877774744 $190 $245 forward 7 unknown #
point $-1 -2.55037877774744 23.982890578670496 10.682329468875333 #
point $-1 -2.55037877774744 20.969404275225962 10.682329468875331 #
edge $-1 $246 1 $246 0 $128 $-1 forward 7 unknown #
vertex $-1 $129 $247 #
ellipse-curve $-1 5.3322486442960937 20.562608156933944 7.1577923182465417 0 0.82903758062907751 0.55919289150049634 1 0 0 1 I I #
point $-1 6.3322486442960937 22.47614742694822 8.4484908129843586 #
plane-surface $-1 46.115909298989834 0 0 -1 0 0 0 0 1 forward_v I I I I #
coedge $-1 $137 $135 $139 $207 reversed $81 $-1 #
edge $-1 $150 -10.682329468875333 $209 10.682329468875333 $149 $248 forward 7 unknown #
vertex $-1 $207 $249 #
straight-curve $-1 -46.115909298989834 -23.982890578670496 0 0 0 -1 I I #
edge $-1 $205 -23.982890578670496 $209 23.982890578670496 $203 $250 forward 7 unknown #
straight-curve $-1 0 -23.982890578670496 -10.682329468875333 -1 0 0 I I #
vertex $-1 $142 $251 #
straight-curve $-1 0 23.982890578670496 -10.682329468875333 1 0 0 I I #
point $-1 46.115909298989834 23.982890578670496 -10.682329468875333 #
point $-1 46.115909298989834 -23.982890578670496 -10.682329468875333 #
straight-curve $-1 -46.115909298989834 0 10.682329468875333 0 -1 0 I I #
point $-1 -46.115909298989834 23.982890578670496 10.682329468875333 #
point $-1 -46.115909298989834 -23.982890578670496 10.682329468875333 #
straight-curve $-1 46.115909298989834 -23.982890578670496 0 0 0 -1 I I #
straight-curve $-1 46.115909298989834 23.982890578670496 0 0 0 -1 I I #
plane-surface $-1 0 -23.982890578670496 0 0 1 0 0 0 1 forward_v I I I I #
coedge $-1 $252 $162 $176 $233 reversed $100 $-1 #
coedge $-1 $162 $252 $224 $253 reversed $100 $-1 #
edge $-1 $225 -1.5 $222 1.5 $163 $254 forward 7 unknown #
vertex $-1 $164 $255 #
straight-curve $-1 -51.966482301956383 23.982890578670496 7.6823294688753325 1 0 0 I I #
coedge $-1 $228 $165 $220 $253 forward $160 $-1 #
vertex $-1 $166 $256 #
straight-curve $-1 0 23.982890578670496 10.682329468875333 -1 0 0 I I #
point $-1 -46.115909298989834 23.982890578670496 10.682329468875333 #
coedge $-1 $169 $224 $171 $231 forward $160 $-1 #
straight-curve $-1 -46.115909298989834 0 10.682329468875333 0 1 0 I I #
coedge $-1 $172 $171 $252 $257 forward $173 $-1 #
edge $-1 $258 -57.817055304922931 $174 -46.115909298989834 $171 $259 forward 7 unknown #
point $-1 -46.115909298989834 -23.982890578670496 10.682329468875333 #
edge $-1 $234 -23.982890578670496 $222 23.982890578670496 $219 $260 forward 7 unknown #
vertex $-1 $233 $261 #
straight-curve $-1 -51.966482301956383 -23.982890578670496 7.6823294688753325 -1 0 0 I I #
coedge $-1 $191 $190 $183 $237 forward $180 $-1 #
edge $-1 $238 38.095402856580989 $241 42.563080168362944 $236 $262 forward 7 unknown #
vertex $-1 $195 $263 #
straight-curve $-1 13.214876066339627 36.812205233852993 10.682329468875331 0 1 0 I I #
edge $-1 $241 -10.548751744191581 $192 5.2165030998954869 $191 $264 forward 7 unknown #
vertex $-1 $240 $265 #
straight-curve $-1 13.214876066339627 -2.8392332797830306 45.980087320759132 0 -0.55919289150049634 0.82903758062907751 I I #
point $-1 13.214876066339627 20.969404275225962 10.682329468875331 #
point $-1 -2.55037877774744 23.982890578670496 6.2146521570933757 #
straight-curve $-1 0 23.982890578670496 10.682329468875333 -1 0 0 I I #
vertex $-1 $198 $266 #
point $-1 6.3322486442960937 20.562608156933944 7.1577923182465417 #
straight-curve $-1 -46.115909298989834 23.982890578670496 0 0 0 -1 I I #
point $-1 -46.115909298989834 -23.982890578670496 -10.682329468875333 #
straight-curve $-1 -46.115909298989834 0 -10.682329468875333 0 1 0 I I #
point $-1 -46.115909298989834 23.982890578670496 -10.682329468875333 #
coedge $-1 $220 $219 $230 $257 reversed $100 $-1 #
edge $-1 $225 -23.982890578670496 $258 23.982890578670496 $220 $267 forward 7 unknown #
straight-curve $-1 -57.817055304922931 23.982890578670496 9.1823294688753325 0 0 -1 I I #
point $-1 -57.817055304922931 23.982890578670496 7.6823294688753325 #
point $-1 -57.817055304922931 23.982890578670496 10.682329468875333 #
edge $-1 $258 -1.5 $234 1.5 $252 $268 forward 7 unknown #
vertex $-1 $253 $269 #
straight-curve $-1 0 -23.982890578670496 10.682329468875333 1 0 0 I I #
straight-curve $-1 -57.817055304922931 0 7.6823294688753325 0 1 0 I I #
point $-1 -57.817055304922931 -23.982890578670496 7.6823294688753325 #
straight-curve $-1 13.214876066339627 23.982890578670496 48.77773232545632 0 0 -1 I I #
point $-1 13.214876066339627 23.982890578670496 10.682329468875333 #
straight-curve $-1 2.6661243221480468 23.982890578670499 6.2146521570933686 -1 0 0 I I #
point $-1 13.214876066339627 23.982890578670496 6.2146521570933757 #
point $-1 5.3322486442960937 19.733570576304867 6.5985994267460457 #
straight-curve $-1 -57.817055304922931 0 10.682329468875333 0 -1 0 I I #
straight-curve $-1 -57.817055304922931 -23.982890578670496 9.1823294688753325 0 0 -1 I I #
point $-1 -57.817055304922931 -23.982890578670496 10.682329468875333 #
End-of-ACIS-data 