500 0 12 0           
7 Unknown 11 ACIS 5.0 NT 24 Thu Mar 25 23:12:10 1999 
-1 9.9999999999999995e-007 1e-010 
body $-1 $12 $-1 $13 #
body $-1 $14 $-1 $15 #
body $-1 $16 $-1 $17 #
body $-1 $18 $-1 $19 #
body $-1 $20 $-1 $21 #
body $-1 $22 $-1 $23 #
body $-1 $24 $-1 $25 #
body $-1 $26 $-1 $27 #
body $-1 $28 $-1 $29 #
body $-1 $30 $-1 $31 #
body $-1 $32 $-1 $33 #
body $-1 $34 $-1 $35 #
lump $-1 $-1 $36 $0 #
transform $-1 1 0 0 0 1 0 0 0 1 41.080355235450298 16.461855049869691 5.5621748099956454 1 rotate no_reflect no_shear #
lump $-1 $-1 $37 $1 #
transform $-1 1 0 0 0 1 0 0 0 1 41.080355235450298 16.461855049869691 5.5621748099956454 1 rotate no_reflect no_shear #
lump $-1 $-1 $38 $2 #
transform $-1 1 0 0 0 1 0 0 0 1 41.080355235450298 16.461855049869691 5.5621748099956454 1 rotate no_reflect no_shear #
lump $-1 $-1 $39 $3 #
transform $-1 1 0 0 0 1 0 0 0 1 41.080355235450298 16.461855049869691 5.5621748099956454 1 rotate no_reflect no_shear #
lump $-1 $-1 $40 $4 #
transform $-1 1 0 0 0 1 0 0 0 1 41.080355235450298 16.461855049869691 5.5621748099956454 1 rotate no_reflect no_shear #
lump $-1 $-1 $41 $5 #
transform $-1 1 0 0 0 1 0 0 0 1 41.080355235450298 16.461855049869691 5.5621748099956454 1 rotate no_reflect no_shear #
lump $-1 $-1 $42 $6 #
transform $-1 1 0 0 0 1 0 0 0 1 41.080355235450298 16.461855049869691 5.5621748099956454 1 rotate no_reflect no_shear #
lump $-1 $-1 $43 $7 #
transform $-1 1 0 0 0 1 0 0 0 1 41.080355235450298 16.461855049869691 5.5621748099956454 1 rotate no_reflect no_shear #
lump $-1 $-1 $44 $8 #
transform $-1 1 0 0 0 1 0 0 0 1 41.080355235450298 16.461855049869691 5.5621748099956454 1 rotate no_reflect no_shear #
lump $-1 $-1 $45 $9 #
transform $-1 1 0 0 0 1 0 0 0 1 41.080355235450298 16.461855049869691 5.5621748099956454 1 rotate no_reflect no_shear #
lump $-1 $-1 $46 $10 #
transform $-1 1 0 0 0 1 0 0 0 1 41.080355235450298 16.461855049869691 5.5621748099956454 1 rotate no_reflect no_shear #
lump $-1 $-1 $47 $11 #
transform $-1 1 0 0 0 1 0 0 0 1 41.080355235450298 16.461855049869691 5.5621748099956454 1 rotate no_reflect no_shear #
shell $-1 $-1 $-1 $48 $-1 $12 #
shell $-1 $-1 $-1 $49 $-1 $14 #
shell $-1 $-1 $-1 $50 $-1 $16 #
shell $-1 $-1 $-1 $51 $-1 $18 #
shell $-1 $-1 $-1 $52 $-1 $20 #
shell $-1 $-1 $-1 $53 $-1 $22 #
shell $-1 $-1 $-1 $54 $-1 $24 #
shell $-1 $-1 $-1 $55 $-1 $26 #
shell $-1 $-1 $-1 $56 $-1 $28 #
shell $-1 $-1 $-1 $57 $-1 $30 #
shell $-1 $-1 $-1 $58 $-1 $32 #
shell $-1 $-1 $-1 $59 $-1 $34 #
face $-1 $60 $61 $36 $-1 $62 forward single #
face $-1 $63 $64 $37 $-1 $65 reversed single #
face $-1 $66 $67 $38 $-1 $68 reversed single #
face $-1 $69 $70 $39 $-1 $71 forward single #
face $-1 $72 $73 $40 $-1 $74 forward single #
face $-1 $75 $76 $41 $-1 $77 reversed single #
face $-1 $78 $79 $42 $-1 $80 forward single #
face $-1 $81 $82 $43 $-1 $83 forward single #
face $-1 $84 $85 $44 $-1 $86 reversed single #
face $-1 $87 $88 $45 $-1 $89 forward single #
face $-1 $90 $91 $46 $-1 $92 forward single #
face $-1 $93 $94 $47 $-1 $95 forward single #
face $-1 $96 $97 $36 $-1 $98 reversed single #
loop $-1 $-1 $99 $48 #
plane-surface $-1 0 0 5.5621748099956454 0 0 1 1 0 0 forward_v I I I I #
face $-1 $100 $101 $37 $-1 $102 reversed single #
loop $-1 $-1 $103 $49 #
plane-surface $-1 -32.956005615459006 -14.391232905843564 0 1 0 0 0 0 -1 forward_v I I I I #
face $-1 $104 $105 $38 $-1 $106 reversed single #
loop $-1 $-1 $107 $50 #
plane-surface $-1 -88.205803362767739 -7.9477725896866476 69.494666441557499 0 1 0 -0.57357644374324357 0 0.81915203911291934 forward_v I I I I #
face $-1 $108 $109 $39 $-1 $110 forward single #
loop $-1 $111 $112 $51 #
cone-surface $-1 -37.576301224998652 -5.9421423833958933 2.3094078170885428 0.57357644374324357 0 -0.81915203911291934 0.81915203911291934 0 0.57357644374324357 1 I I 0 1 1 forward I I I I #
face $-1 $113 $114 $40 $-1 $115 forward single #
loop $-1 $116 $117 $52 #
cone-surface $-1 -37.576301224998652 -2.9336970739597596 2.3094078170885428 0.57357644374324357 0 -0.81915203911291934 0.81915203911291934 0 0.57357644374324357 1 I I 0 1 1 forward I I I I #
face $-1 $118 $119 $41 $-1 $120 reversed single #
loop $-1 $-1 $121 $53 #
plane-surface $-1 -88.205803362767739 5.069311155721258 69.494666441557499 0 1 0 -0.57357644374324357 0 0.81915203911291934 forward_v I I I I #
face $-1 $122 $123 $42 $-1 $124 forward single #
loop $-1 $125 $126 $54 #
cone-surface $-1 -37.576301224998652 7.0749413620120123 2.3094078170885428 0.57357644374324357 0 -0.81915203911291934 0.81915203911291934 0 0.57357644374324357 1 I I 0 1 1 forward I I I I #
face $-1 $127 $128 $43 $-1 $129 forward single #
loop $-1 $130 $131 $55 #
cone-surface $-1 -37.576301224998652 10.083386671448146 2.3094078170885428 0.57357644374324357 0 -0.81915203911291934 0.81915203911291934 0 0.57357644374324357 1 I I 0 1 1 forward I I I I #
face $-1 $132 $133 $44 $-1 $134 reversed single #
loop $-1 $-1 $135 $56 #
plane-surface $-1 20.903689845563335 -2.1418703283844986 116.08894438288598 0 -1 0 -0.57357644374324357 0 -0.81915203911291934 forward_v I I I I #
face $-1 $136 $137 $45 $-1 $138 forward single #
loop $-1 $139 $140 $57 #
cone-surface $-1 38.008112856170129 -7.333877017966735 3.202202754623424 -0.57357644374324357 0 -0.81915203911291934 0.40957601955645967 0 -0.28678822187162178 1 I I 0 1 0.5 forward I I I I #
face $-1 $141 $142 $46 $-1 $143 forward single #
loop $-1 $144 $145 $58 #
cone-surface $-1 38.008112856170129 -5.3868745093733956 3.202202754623424 -0.57357644374324357 0 -0.81915203911291934 0.40957601955645967 0 -0.28678822187162178 1 I I 0 1 0.5 forward I I I I #
face $-1 $146 $147 $47 $-1 $148 forward single #
loop $-1 $149 $150 $59 #
cone-surface $-1 38.008112856170129 -3.4398720007800563 3.202202754623424 -0.57357644374324357 0 -0.81915203911291934 0.40957601955645967 0 -0.28678822187162178 1 I I 0 1 0.5 forward I I I I #
face $-1 $151 $152 $36 $-1 $153 reversed single #
loop $-1 $-1 $154 $60 #
plane-surface $-1 0 0 -5.5621748099956454 0 0 1 1 0 0 forward_v I I I I #
coedge $-1 $155 $156 $157 $158 forward $61 $-1 #
face $-1 $159 $160 $37 $-1 $161 reversed single #
loop $-1 $-1 $162 $63 #
plane-surface $-1 -31.456005615459006 -12.320610761817438 0 0 -1 0 0 0 -1 forward_v I I I I #
coedge $-1 $163 $164 $165 $166 forward $64 $-1 #
face $-1 $167 $168 $38 $-1 $169 reversed single #
loop $-1 $-1 $170 $66 #
plane-surface $-1 -41.080355235450298 -4.4379197286778265 2.1925529243530946 -0.57357644374324357 0 0.81915203911291934 0.81915203911291934 0 0.57357644374324357 forward_v I I I I #
coedge $-1 $171 $172 $173 $174 reversed $67 $-1 #
face $-1 $-1 $175 $39 $-1 $176 forward single #
loop $-1 $177 $178 $69 #
cone-surface $-1 -36.191618336188455 -5.9421423833958933 0.33187574744625614 0.57357644374324357 0 -0.81915203911291934 0.40957601955645967 0 0.28678822187162178 1 I I -0.70710678118654768 0.70710678118654735 0.5 forward I I I I #
loop $-1 $-1 $179 $51 #
coedge $-1 $112 $112 $180 $181 reversed $70 $-1 #
face $-1 $-1 $182 $40 $-1 $183 forward single #
loop $-1 $184 $185 $72 #
cone-surface $-1 -36.191618336188455 -2.9336970739597596 0.33187574744625614 0.57357644374324357 0 -0.81915203911291934 0.40957601955645967 0 0.28678822187162178 1 I I -0.70710678118654768 0.70710678118654735 0.5 forward I I I I #
loop $-1 $-1 $186 $52 #
coedge $-1 $117 $117 $187 $188 reversed $73 $-1 #
face $-1 $189 $190 $41 $-1 $191 reversed single #
loop $-1 $-1 $192 $75 #
plane-surface $-1 -41.080355235450298 8.5791640167300791 2.1925529243530946 -0.57357644374324357 0 0.81915203911291934 0.81915203911291934 0 0.57357644374324357 forward_v I I I I #
coedge $-1 $193 $194 $195 $196 reversed $76 $-1 #
face $-1 $-1 $197 $42 $-1 $198 forward single #
loop $-1 $199 $200 $78 #
cone-surface $-1 -36.191618336188455 7.0749413620120123 0.33187574744625614 0.57357644374324357 0 -0.81915203911291934 0.40957601955645967 0 0.28678822187162178 1 I I -0.70710678118654768 0.70710678118654735 0.5 forward I I I I #
loop $-1 $-1 $201 $54 #
coedge $-1 $126 $126 $202 $203 reversed $79 $-1 #
face $-1 $-1 $204 $43 $-1 $205 forward single #
loop $-1 $206 $207 $81 #
cone-surface $-1 -36.191618336188455 10.083386671448146 0.33187574744625614 0.57357644374324357 0 -0.81915203911291934 0.40957601955645967 0 0.28678822187162178 1 I I -0.70710678118654768 0.70710678118654735 0.5 forward I I I I #
loop $-1 $-1 $208 $55 #
coedge $-1 $131 $131 $209 $210 reversed $82 $-1 #
face $-1 $211 $212 $44 $-1 $213 reversed single #
loop $-1 $-1 $214 $84 #
plane-surface $-1 -26.221758281754106 -5.3868745093733956 48.78683086568158 0.57357644374324357 0 0.81915203911291934 0.81915203911291934 0 -0.57357644374324357 forward_v I I I I #
coedge $-1 $215 $216 $217 $218 reversed $85 $-1 #
face $-1 $-1 $219 $45 $-1 $220 forward single #
loop $-1 $221 $222 $87 #
cone-surface $-1 37.577930523362696 -7.333877017966735 2.5878387252887345 -0.57357644374324357 0 -0.81915203911291934 0.20478800977822983 0 -0.14339411093581089 1 I I -0.70710678118654746 0.70710678118654746 0.25 forward I I I I #
loop $-1 $-1 $223 $57 #
coedge $-1 $140 $140 $224 $225 reversed $88 $-1 #
face $-1 $-1 $226 $46 $-1 $227 forward single #
loop $-1 $228 $229 $90 #
cone-surface $-1 37.577930523362696 -5.3868745093733956 2.5878387252887345 -0.57357644374324357 0 -0.81915203911291934 0.20478800977822983 0 -0.14339411093581089 1 I I -0.70710678118654746 0.70710678118654746 0.25 forward I I I I #
loop $-1 $-1 $230 $58 #
coedge $-1 $145 $145 $231 $232 reversed $91 $-1 #
face $-1 $-1 $233 $47 $-1 $234 forward single #
loop $-1 $235 $236 $93 #
cone-surface $-1 37.577930523362696 -3.4398720007800563 2.5878387252887345 -0.57357644374324357 0 -0.81915203911291934 0.20478800977822983 0 -0.14339411093581089 1 I I -0.70710678118654746 0.70710678118654746 0.25 forward I I I I #
loop $-1 $-1 $237 $59 #
coedge $-1 $150 $150 $238 $239 reversed $94 $-1 #
face $-1 $240 $241 $36 $-1 $242 reversed single #
loop $-1 $-1 $243 $96 #
plane-surface $-1 0 -16.461855049869691 0 0 1 0 0 0 1 forward_v I I I I #
coedge $-1 $244 $245 $246 $247 forward $97 $-1 #
coedge $-1 $248 $99 $249 $250 forward $61 $-1 #
coedge $-1 $99 $248 $251 $252 forward $61 $-1 #
coedge $-1 $253 $254 $99 $158 reversed $255 $-1 #
edge $-1 $256 -16.461855049869691 $257 16.461855049869691 $157 $258 forward 7 unknown #
face $-1 $259 $260 $37 $-1 $261 forward single #
loop $-1 $-1 $262 $100 #
plane-surface $-1 -29.956005615459006 -14.391232905843564 0 -1 0 0 0 0 1 forward_v I I I I #
coedge $-1 $263 $264 $265 $266 forward $101 $-1 #
coedge $-1 $267 $103 $268 $269 reversed $64 $-1 #
coedge $-1 $103 $267 $270 $271 reversed $64 $-1 #
coedge $-1 $264 $263 $103 $166 reversed $101 $-1 #
edge $-1 $272 -5.5621748099956454 $273 5.5621748099956454 $165 $274 forward 7 unknown #
face $-1 $275 $276 $38 $-1 $277 reversed single #
loop $-1 $-1 $278 $104 #
plane-surface $-1 -88.205803362767739 -0.92806686766900537 69.494666441557499 0 -1 0 0.57357644374324357 0 -0.81915203911291934 forward_v I I I I #
coedge $-1 $279 $280 $281 $282 reversed $105 $-1 #
coedge $-1 $172 $107 $283 $284 reversed $67 $-1 #
coedge $-1 $107 $171 $279 $285 reversed $67 $-1 #
coedge $-1 $281 $286 $107 $174 forward $287 $-1 #
edge $-1 $288 3.0225464459335711 $289 7.8348651329597203 $173 $290 forward 7 unknown #
loop $-1 $-1 $180 $108 #
plane-surface $-1 -41.080355235450298 -4.4379197286778265 2.1925529243530946 -0.57357644374324357 0 0.81915203911291934 0.81915203911291934 0 0.57357644374324357 forward_v I I I I #
loop $-1 $-1 $291 $69 #
coedge $-1 $178 $178 $179 $292 reversed $109 $-1 #
coedge $-1 $179 $179 $178 $292 forward $111 $-1 #
coedge $-1 $180 $180 $112 $181 forward $175 $-1 #
edge $-1 $293 0 $293 6.2831853071796004 $180 $294 forward 7 unknown #
loop $-1 $-1 $187 $113 #
plane-surface $-1 -41.080355235450298 -4.4379197286778265 2.1925529243530946 -0.57357644374324357 0 0.81915203911291934 0.81915203911291934 0 0.57357644374324357 forward_v I I I I #
loop $-1 $-1 $295 $72 #
coedge $-1 $185 $185 $186 $296 reversed $114 $-1 #
coedge $-1 $186 $186 $185 $296 forward $116 $-1 #
coedge $-1 $187 $187 $117 $188 forward $182 $-1 #
edge $-1 $297 0 $297 6.2831853071796004 $187 $298 forward 7 unknown #
face $-1 $299 $300 $41 $-1 $301 forward single #
loop $-1 $-1 $302 $118 #
plane-surface $-1 -88.205803362767739 12.089016877738899 69.494666441557499 0 -1 0 0.57357644374324357 0 -0.81915203911291934 forward_v I I I I #
coedge $-1 $303 $304 $305 $306 reversed $119 $-1 #
coedge $-1 $194 $121 $307 $308 reversed $76 $-1 #
coedge $-1 $121 $193 $303 $309 reversed $76 $-1 #
coedge $-1 $305 $310 $121 $196 forward $300 $-1 #
edge $-1 $311 3.0225464459335711 $312 7.8348651329597203 $195 $313 forward 7 unknown #
loop $-1 $-1 $202 $122 #
plane-surface $-1 -41.080355235450298 8.5791640167300791 2.1925529243530946 -0.57357644374324357 0 0.81915203911291934 0.81915203911291934 0 0.57357644374324357 forward_v I I I I #
loop $-1 $-1 $314 $78 #
coedge $-1 $200 $200 $201 $315 reversed $123 $-1 #
coedge $-1 $201 $201 $200 $315 forward $125 $-1 #
coedge $-1 $202 $202 $126 $203 forward $197 $-1 #
edge $-1 $316 0 $316 6.2831853071796004 $202 $317 forward 7 unknown #
loop $-1 $-1 $209 $127 #
plane-surface $-1 -41.080355235450298 8.5791640167300791 2.1925529243530946 -0.57357644374324357 0 0.81915203911291934 0.81915203911291934 0 0.57357644374324357 forward_v I I I I #
loop $-1 $-1 $318 $81 #
coedge $-1 $207 $207 $208 $319 reversed $128 $-1 #
coedge $-1 $208 $208 $207 $319 forward $130 $-1 #
coedge $-1 $209 $209 $131 $210 forward $204 $-1 #
edge $-1 $320 0 $320 6.2831853071796004 $209 $321 forward 7 unknown #
face $-1 $322 $323 $44 $-1 $324 forward single #
loop $-1 $-1 $325 $132 #
plane-surface $-1 20.903689845563335 -8.6318786903622922 116.08894438288598 0 1 0 0.57357644374324357 0 0.81915203911291934 forward_v I I I I #
coedge $-1 $326 $327 $328 $329 reversed $133 $-1 #
coedge $-1 $216 $135 $330 $331 reversed $85 $-1 #
coedge $-1 $135 $215 $326 $332 reversed $85 $-1 #
coedge $-1 $328 $333 $135 $218 forward $323 $-1 #
edge $-1 $334 -30.628510312668631 $335 -25.057601997851535 $217 $336 forward 7 unknown #
loop $-1 $-1 $224 $136 #
plane-surface $-1 -26.221758281754106 -5.3868745093733956 48.78683086568158 0.57357644374324357 0 0.81915203911291934 0.81915203911291934 0 -0.57357644374324357 forward_v I I I I #
loop $-1 $-1 $337 $87 #
coedge $-1 $222 $222 $223 $338 reversed $137 $-1 #
coedge $-1 $223 $223 $222 $338 forward $139 $-1 #
coedge $-1 $224 $224 $140 $225 forward $219 $-1 #
edge $-1 $339 0 $339 6.2831853071796004 $224 $340 forward 7 unknown #
loop $-1 $-1 $231 $141 #
plane-surface $-1 -26.221758281754106 -5.3868745093733956 48.78683086568158 0.57357644374324357 0 0.81915203911291934 0.81915203911291934 0 -0.57357644374324357 forward_v I I I I #
loop $-1 $-1 $341 $90 #
coedge $-1 $229 $229 $230 $342 reversed $142 $-1 #
coedge $-1 $230 $230 $229 $342 forward $144 $-1 #
coedge $-1 $231 $231 $145 $232 forward $226 $-1 #
edge $-1 $343 0 $343 6.2831853071796004 $231 $344 forward 7 unknown #
loop $-1 $-1 $238 $146 #
plane-surface $-1 -26.221758281754106 -5.3868745093733956 48.78683086568158 0.57357644374324357 0 0.81915203911291934 0.81915203911291934 0 -0.57357644374324357 forward_v I I I I #
loop $-1 $-1 $345 $93 #
coedge $-1 $236 $236 $237 $346 reversed $147 $-1 #
coedge $-1 $237 $237 $236 $346 forward $149 $-1 #
coedge $-1 $238 $238 $150 $239 forward $233 $-1 #
edge $-1 $347 0 $347 6.2831853071796004 $238 $348 forward 7 unknown #
face $-1 $349 $350 $36 $-1 $351 reversed single #
loop $-1 $-1 $352 $151 #
plane-surface $-1 -41.080355235450298 0 0 1 0 0 0 0 -1 forward_v I I I I #
coedge $-1 $353 $251 $354 $355 forward $152 $-1 #
coedge $-1 $356 $154 $353 $357 forward $97 $-1 #
coedge $-1 $154 $356 $358 $359 forward $97 $-1 #
coedge $-1 $254 $253 $154 $247 reversed $255 $-1 #
edge $-1 $360 -16.461855049869691 $361 16.461855049869691 $246 $362 forward 7 unknown #
coedge $-1 $156 $155 $363 $364 forward $61 $-1 #
coedge $-1 $365 $366 $155 $250 reversed $350 $-1 #
edge $-1 $257 -41.080355235450298 $367 41.080355235450298 $249 $368 forward 7 unknown #
coedge $-1 $243 $369 $156 $252 reversed $152 $-1 #
edge $-1 $370 -41.080355235450298 $256 41.080355235450298 $251 $371 forward 7 unknown #
coedge $-1 $246 $157 $369 $372 forward $255 $-1 #
coedge $-1 $157 $246 $365 $373 reversed $255 $-1 #
loop $-1 $-1 $253 $349 #
vertex $-1 $158 $374 #
vertex $-1 $158 $375 #
straight-curve $-1 41.080355235450298 0 5.5621748099956454 0 1 0 I I #
face $-1 $376 $377 $37 $-1 $378 reversed single #
loop $-1 $-1 $379 $159 #
plane-surface $-1 0 0 5.5621748099956454 0 0 1 1 0 0 forward_v I I I I #
coedge $-1 $380 $381 $382 $383 reversed $160 $-1 #
coedge $-1 $165 $162 $384 $385 reversed $101 $-1 #
coedge $-1 $162 $165 $386 $387 reversed $101 $-1 #
coedge $-1 $381 $380 $162 $266 reversed $160 $-1 #
edge $-1 $388 -5.5621748099956454 $389 5.5621748099956454 $265 $390 forward 7 unknown #
coedge $-1 $164 $163 $391 $392 reversed $64 $-1 #
coedge $-1 $384 $393 $163 $269 forward $377 $-1 #
edge $-1 $394 -9.2662385969479075 $273 -5.1249943088956558 $268 $395 forward 7 unknown #
coedge $-1 $396 $386 $164 $271 forward $260 $-1 #
edge $-1 $272 5.1249943088956558 $397 9.2662385969479075 $270 $398 forward 7 unknown #
vertex $-1 $271 $399 #
vertex $-1 $269 $400 #
straight-curve $-1 -32.956005615459006 -12.320610761817438 0 0 0 -1 I I #
face $-1 $-1 $287 $38 $-1 $401 forward single #
loop $-1 $-1 $402 $167 #
plane-surface $-1 -41.080355235450298 0 0 1 0 0 0 0 -1 forward_v I I I I #
coedge $-1 $403 $404 $405 $406 reversed $168 $-1 #
coedge $-1 $407 $170 $172 $285 forward $105 $-1 #
coedge $-1 $170 $407 $403 $408 forward $105 $-1 #
coedge $-1 $405 $173 $170 $282 forward $287 $-1 #
edge $-1 $289 -5.7288127253477343 $409 1.2908929966699079 $281 $410 forward 7 unknown #
coedge $-1 $411 $412 $171 $284 forward $276 $-1 #
edge $-1 $413 -32.554780296425655 $288 -29.185158410783103 $283 $414 forward 7 unknown #
edge $-1 $289 -5.874756403264934 $413 0 $172 $415 forward 7 unknown #
coedge $-1 $173 $405 $411 $416 forward $287 $-1 #
loop $-1 $-1 $405 $275 #
vertex $-1 $284 $417 #
vertex $-1 $174 $418 #
straight-curve $-1 -44.102901681383869 -7.9477725896866476 5.5621748099956463 1 0 0 I I #
coedge $-1 $291 $291 $-1 $419 reversed $177 $-1 #
edge $-1 $420 0 $420 6.2831853071796004 $178 $421 forward 7 unknown #
vertex $-1 $181 $422 #
ellipse-curve $-1 -38.674195891937224 -5.9421423833958933 3.8773638671743687 -0.57357644374324357 0 0.81915203911291934 0.81915203911291934 0 0.57357644374324357 1 I I #
coedge $-1 $295 $295 $-1 $423 reversed $184 $-1 #
edge $-1 $424 0 $424 6.2831853071796004 $185 $425 forward 7 unknown #
vertex $-1 $188 $426 #
ellipse-curve $-1 -38.674195891937224 -2.9336970739597596 3.8773638671743687 -0.57357644374324357 0 0.81915203911291934 0.81915203911291934 0 0.57357644374324357 1 I I #
face $-1 $-1 $427 $41 $-1 $428 reversed single #
loop $-1 $-1 $195 $189 #
plane-surface $-1 0 0 5.5621748099956454 0 0 1 1 0 0 forward_v I I I I #
coedge $-1 $429 $430 $431 $432 reversed $190 $-1 #
coedge $-1 $433 $192 $194 $309 forward $119 $-1 #
coedge $-1 $192 $433 $429 $434 forward $119 $-1 #
coedge $-1 $431 $195 $192 $306 forward $300 $-1 #
edge $-1 $312 0.77972914735621845 $435 7.7994348693738598 $305 $436 forward 7 unknown #
coedge $-1 $437 $438 $193 $308 forward $427 $-1 #
edge $-1 $439 -32.554780296425655 $311 -29.185158410783103 $307 $440 forward 7 unknown #
edge $-1 $312 -5.874756403264934 $439 0 $194 $441 forward 7 unknown #
coedge $-1 $195 $431 $437 $442 forward $300 $-1 #
vertex $-1 $308 $443 #
vertex $-1 $196 $444 #
straight-curve $-1 -44.102901681383869 5.069311155721258 5.5621748099956463 1 0 0 I I #
coedge $-1 $314 $314 $-1 $445 reversed $199 $-1 #
edge $-1 $446 0 $446 6.2831853071796004 $200 $447 forward 7 unknown #
vertex $-1 $203 $448 #
ellipse-curve $-1 -38.674195891937224 7.0749413620120123 3.8773638671743687 -0.57357644374324357 0 0.81915203911291934 0.81915203911291934 0 0.57357644374324357 1 I I #
coedge $-1 $318 $318 $-1 $449 reversed $206 $-1 #
edge $-1 $450 0 $450 6.2831853071796004 $207 $451 forward 7 unknown #
vertex $-1 $210 $452 #
ellipse-curve $-1 -38.674195891937224 10.083386671448146 3.8773638671743687 -0.57357644374324357 0 0.81915203911291934 0.81915203911291934 0 0.57357644374324357 1 I I #
face $-1 $-1 $453 $44 $-1 $454 reversed single #
loop $-1 $-1 $217 $211 #
plane-surface $-1 0 0 5.5621748099956454 0 0 1 1 0 0 forward_v I I I I #
coedge $-1 $455 $456 $457 $458 reversed $212 $-1 #
coedge $-1 $459 $214 $216 $332 forward $133 $-1 #
coedge $-1 $214 $459 $455 $460 forward $133 $-1 #
coedge $-1 $457 $217 $214 $329 forward $323 $-1 #
edge $-1 $335 -0.55156692630219917 $461 5.9384414356755943 $328 $462 forward 7 unknown #
coedge $-1 $463 $464 $215 $331 forward $453 $-1 #
edge $-1 $465 -56.383089453078853 $334 -52.482297381447346 $330 $466 forward 7 unknown #
edge $-1 $335 75.35988712087881 $465 82.160710470900597 $216 $467 forward 7 unknown #
coedge $-1 $217 $457 $463 $468 forward $323 $-1 #
vertex $-1 $331 $469 #
vertex $-1 $218 $470 #
straight-curve $-1 10.451844922781667 -2.1418703283844986 5.5621748099956463 -1 0 0 I I #
coedge $-1 $337 $337 $-1 $471 reversed $221 $-1 #
edge $-1 $472 0 $472 6.2831853071796004 $222 $473 forward 7 unknown #
vertex $-1 $225 $474 #
ellipse-curve $-1 38.294901078041754 -7.333877017966735 3.6117787741798892 0.57357644374324357 0 0.81915203911291934 0.40957601955645967 0 -0.28678822187162178 1 I I #
coedge $-1 $341 $341 $-1 $475 reversed $228 $-1 #
edge $-1 $476 0 $476 6.2831853071796004 $229 $477 forward 7 unknown #
vertex $-1 $232 $478 #
ellipse-curve $-1 38.294901078041754 -5.3868745093733956 3.6117787741798892 0.57357644374324357 0 0.81915203911291934 0.40957601955645967 0 -0.28678822187162178 1 I I #
coedge $-1 $345 $345 $-1 $479 reversed $235 $-1 #
edge $-1 $480 0 $480 6.2831853071796004 $236 $481 forward 7 unknown #
vertex $-1 $239 $482 #
ellipse-curve $-1 38.294901078041754 -3.4398720007800563 3.6117787741798892 0.57357644374324357 0 0.81915203911291934 0.40957601955645967 0 -0.28678822187162178 1 I I #
face $-1 $-1 $255 $36 $-1 $483 reversed single #
loop $-1 $-1 $365 $240 #
plane-surface $-1 0 16.461855049869691 0 0 -1 0 0 0 -1 forward_v I I I I #
coedge $-1 $484 $363 $366 $485 forward $241 $-1 #
coedge $-1 $369 $243 $244 $357 reversed $152 $-1 #
coedge $-1 $363 $484 $243 $355 reversed $241 $-1 #
edge $-1 $370 -5.5621748099956454 $486 5.5621748099956454 $354 $487 forward 7 unknown #
coedge $-1 $245 $244 $484 $488 forward $97 $-1 #
edge $-1 $361 -41.080355235450298 $486 41.080355235450298 $353 $489 forward 7 unknown #
coedge $-1 $366 $365 $245 $359 reversed $350 $-1 #
edge $-1 $490 -41.080355235450298 $360 41.080355235450298 $358 $491 forward 7 unknown #
vertex $-1 $247 $492 #
vertex $-1 $372 $493 #
straight-curve $-1 41.080355235450298 0 -5.5621748099956454 0 -1 0 I I #
coedge $-1 $352 $354 $248 $364 reversed $241 $-1 #
edge $-1 $367 -16.461855049869691 $370 16.461855049869691 $363 $494 forward 7 unknown #
coedge $-1 $358 $249 $254 $373 forward $350 $-1 #
coedge $-1 $249 $358 $352 $485 reversed $350 $-1 #
vertex $-1 $250 $495 #
straight-curve $-1 0 16.461855049869691 5.5621748099956454 -1 0 0 I I #
coedge $-1 $251 $353 $253 $372 reversed $152 $-1 #
vertex $-1 $364 $496 #
straight-curve $-1 0 -16.461855049869691 5.5621748099956454 1 0 0 I I #
edge $-1 $256 -5.5621748099956454 $361 5.5621748099956454 $253 $497 forward 7 unknown #
edge $-1 $257 -5.5621748099956454 $360 5.5621748099956454 $254 $498 forward 7 unknown #
point $-1 41.080355235450298 -16.461855049869691 5.5621748099956454 #
point $-1 41.080355235450298 16.461855049869691 5.5621748099956454 #
face $-1 $-1 $499 $37 $-1 $500 reversed single #
loop $-1 $-1 $501 $259 #
plane-surface $-1 0 0 -5.5621748099956454 0 0 1 1 0 0 forward_v I I I I #
coedge $-1 $386 $396 $381 $502 forward $260 $-1 #
coedge $-1 $265 $262 $501 $503 reversed $160 $-1 #
coedge $-1 $262 $265 $379 $502 reversed $160 $-1 #
coedge $-1 $504 $505 $262 $383 forward $499 $-1 #
edge $-1 $506 -5.5621748099956454 $507 5.5621748099956454 $382 $508 forward 7 unknown #
coedge $-1 $501 $268 $263 $385 forward $377 $-1 #
edge $-1 $273 -17.228002807729503 $389 -14.228002807729503 $384 $509 forward 7 unknown #
coedge $-1 $270 $379 $264 $387 forward $260 $-1 #
edge $-1 $388 14.228002807729503 $272 17.228002807729503 $386 $510 forward 7 unknown #
vertex $-1 $387 $511 #
vertex $-1 $385 $512 #
straight-curve $-1 -29.956005615459006 -12.320610761817438 0 0 0 -1 I I #
coedge $-1 $505 $504 $267 $392 forward $499 $-1 #
edge $-1 $397 -5.5621748099956454 $394 5.5621748099956454 $391 $513 forward 7 unknown #
coedge $-1 $268 $501 $505 $514 forward $377 $-1 #
vertex $-1 $269 $515 #
straight-curve $-1 -32.956005615459006 -7.1956164529217821 -5.5621748099956454 0 1 0 I I #
coedge $-1 $379 $270 $504 $516 forward $260 $-1 #
vertex $-1 $516 $517 #
straight-curve $-1 -32.956005615459006 -7.1956164529217821 5.5621748099956454 0 -1 0 I I #
point $-1 -32.956005615459006 -12.320610761817438 5.5621748099956454 #
point $-1 -32.956005615459006 -12.320610761817438 -5.5621748099956454 #
plane-surface $-1 0 0 5.5621748099956454 0 0 1 1 0 0 forward_v I I I I #
coedge $-1 $412 $411 $404 $518 forward $276 $-1 #
coedge $-1 $404 $278 $280 $408 reversed $168 $-1 #
coedge $-1 $278 $403 $402 $518 reversed $168 $-1 #
coedge $-1 $286 $281 $278 $406 forward $287 $-1 #
edge $-1 $409 -7.8348651329597203 $519 -3.0225464459335711 $405 $520 forward 7 unknown #
coedge $-1 $280 $279 $412 $521 reversed $105 $-1 #
edge $-1 $522 0 $409 5.874756403264934 $403 $523 forward 7 unknown #
vertex $-1 $282 $524 #
straight-curve $-1 -36.268036548424142 -2.2189598643389132 5.5621748099956472 0 1 0 I I #
coedge $-1 $402 $283 $286 $416 reversed $276 $-1 #
coedge $-1 $283 $402 $407 $521 forward $276 $-1 #
vertex $-1 $284 $525 #
straight-curve $-1 -41.080355235450298 -7.9477725896866476 34.747333220778749 0 0 1 I I #
straight-curve $-1 -41.080355235450298 -7.9477725896866476 2.1925529243530946 -0.81915203911291934 0 -0.57357644374324357 I I #
edge $-1 $519 0.92806686766900537 $288 7.9477725896866476 $411 $526 forward 7 unknown #
point $-1 -41.080355235450298 -7.9477725896866476 5.5621748099956454 #
point $-1 -36.268036548424149 -7.9477725896866476 5.5621748099956454 #
edge $-1 $527 1 $527 0 $291 $-1 forward 7 unknown #
vertex $-1 $292 $528 #
ellipse-curve $-1 -36.47840655806008 -5.9421423833958933 0.74145176700271564 -0.57357644374324357 0 0.81915203911291934 0.81915203911291934 0 0.57357644374324357 1 I I #
point $-1 -37.855043852824302 -5.9421423833958933 4.4509403109176136 #
edge $-1 $529 1 $529 0 $295 $-1 forward 7 unknown #
vertex $-1 $296 $530 #
ellipse-curve $-1 -36.47840655806008 -2.9336970739597596 0.74145176700271564 -0.57357644374324357 0 0.81915203911291934 0.81915203911291934 0 0.57357644374324357 1 I I #
point $-1 -37.855043852824302 -2.9336970739597596 4.4509403109176136 #
loop $-1 $-1 $307 $299 #
plane-surface $-1 -41.080355235450298 0 0 1 0 0 0 0 -1 forward_v I I I I #
coedge $-1 $430 $302 $304 $434 reversed $190 $-1 #
coedge $-1 $302 $429 $531 $532 reversed $190 $-1 #
coedge $-1 $310 $305 $302 $432 forward $300 $-1 #
edge $-1 $435 -7.8348651329597203 $533 -3.0225464459335711 $431 $534 forward 7 unknown #
coedge $-1 $304 $303 $438 $535 reversed $119 $-1 #
edge $-1 $536 0 $435 5.874756403264934 $429 $537 forward 7 unknown #
vertex $-1 $306 $538 #
straight-curve $-1 -36.268036548424142 4.2895820083650396 5.5621748099956472 0 1 0 I I #
coedge $-1 $531 $307 $310 $442 reversed $427 $-1 #
coedge $-1 $307 $531 $433 $535 forward $427 $-1 #
vertex $-1 $308 $539 #
straight-curve $-1 -41.080355235450298 5.069311155721258 34.747333220778749 0 0 1 I I #
straight-curve $-1 -41.080355235450298 5.069311155721258 2.1925529243530946 -0.81915203911291934 0 -0.57357644374324357 I I #
edge $-1 $533 -12.089016877738899 $311 -5.069311155721258 $437 $540 forward 7 unknown #
point $-1 -41.080355235450298 5.069311155721258 5.5621748099956454 #
point $-1 -36.268036548424149 5.069311155721258 5.5621748099956454 #
edge $-1 $541 1 $541 0 $314 $-1 forward 7 unknown #
vertex $-1 $315 $542 #
ellipse-curve $-1 -36.47840655806008 7.0749413620120123 0.74145176700271564 -0.57357644374324357 0 0.81915203911291934 0.81915203911291934 0 0.57357644374324357 1 I I #
point $-1 -37.855043852824302 7.0749413620120123 4.4509403109176136 #
edge $-1 $543 1 $543 0 $318 $-1 forward 7 unknown #
vertex $-1 $319 $544 #
ellipse-curve $-1 -36.47840655806008 10.083386671448146 0.74145176700271564 -0.57357644374324357 0 0.81915203911291934 0.81915203911291934 0 0.57357644374324357 1 I I #
point $-1 -37.855043852824302 10.083386671448146 4.4509403109176136 #
loop $-1 $-1 $330 $322 #
plane-surface $-1 41.080355235450298 0 0 -1 0 0 0 0 1 forward_v I I I I #
coedge $-1 $456 $325 $327 $460 reversed $212 $-1 #
coedge $-1 $325 $455 $545 $546 reversed $212 $-1 #
coedge $-1 $333 $328 $325 $458 forward $323 $-1 #
edge $-1 $461 25.057601997851535 $547 30.628510312668631 $457 $548 forward 7 unknown #
coedge $-1 $327 $326 $464 $549 reversed $133 $-1 #
edge $-1 $550 -82.160710470900597 $461 -75.35988712087881 $455 $551 forward 7 unknown #
vertex $-1 $329 $552 #
straight-curve $-1 35.509446920633195 -2.6934372546866978 5.5621748099956534 0 -1 0 I I #
coedge $-1 $545 $330 $333 $468 reversed $453 $-1 #
coedge $-1 $330 $545 $459 $549 forward $453 $-1 #
vertex $-1 $331 $553 #
straight-curve $-1 41.080355235450298 -2.1418703283844986 58.044472191442992 0 0 1 I I #
straight-curve $-1 -26.221758281754106 -2.1418703283844986 48.78683086568158 0.81915203911291934 0 -0.57357644374324357 I I #
edge $-1 $547 -8.6318786903622922 $334 -2.1418703283844986 $463 $554 forward 7 unknown #
point $-1 41.080355235450298 -2.1418703283844986 5.5621748099956454 #
point $-1 35.509446920633202 -2.1418703283844986 5.5621748099956463 #
edge $-1 $555 1 $555 0 $337 $-1 forward 7 unknown #
vertex $-1 $338 $556 #
ellipse-curve $-1 37.721324634298504 -7.333877017966735 2.7926267350669645 0.57357644374324357 0 0.81915203911291934 0.40957601955645967 0 -0.28678822187162178 1 I I #
point $-1 38.704477097598208 -7.333877017966735 3.3249905523082619 #
edge $-1 $557 1 $557 0 $341 $-1 forward 7 unknown #
vertex $-1 $342 $558 #
ellipse-curve $-1 37.721324634298504 -5.3868745093733956 2.7926267350669645 0.57357644374324357 0 0.81915203911291934 0.40957601955645967 0 -0.28678822187162178 1 I I #
point $-1 38.704477097598208 -5.3868745093733956 3.3249905523082619 #
edge $-1 $559 1 $559 0 $345 $-1 forward 7 unknown #
vertex $-1 $346 $560 #
ellipse-curve $-1 37.721324634298504 -3.4398720007800563 2.7926267350669645 0.57357644374324357 0 0.81915203911291934 0.40957601955645967 0 -0.28678822187162178 1 I I #
point $-1 38.704477097598208 -3.4398720007800563 3.3249905523082619 #
plane-surface $-1 41.080355235450298 0 0 -1 0 0 0 0 1 forward_v I I I I #
coedge $-1 $354 $352 $356 $488 reversed $241 $-1 #
edge $-1 $367 -5.5621748099956454 $490 5.5621748099956454 $366 $561 forward 7 unknown #
vertex $-1 $488 $562 #
straight-curve $-1 -41.080355235450298 -16.461855049869691 0 0 0 -1 I I #
edge $-1 $486 -16.461855049869691 $490 16.461855049869691 $484 $563 forward 7 unknown #
straight-curve $-1 0 -16.461855049869691 -5.5621748099956454 -1 0 0 I I #
vertex $-1 $359 $564 #
straight-curve $-1 0 16.461855049869691 -5.5621748099956454 1 0 0 I I #
point $-1 41.080355235450298 16.461855049869691 -5.5621748099956454 #
point $-1 41.080355235450298 -16.461855049869691 -5.5621748099956454 #
straight-curve $-1 -41.080355235450298 0 5.5621748099956454 0 -1 0 I I #
point $-1 -41.080355235450298 16.461855049869691 5.5621748099956454 #
point $-1 -41.080355235450298 -16.461855049869691 5.5621748099956454 #
straight-curve $-1 41.080355235450298 -16.461855049869691 0 0 0 -1 I I #
straight-curve $-1 41.080355235450298 16.461855049869691 0 0 0 -1 I I #
loop $-1 $-1 $382 $376 #
plane-surface $-1 0 -16.461855049869691 0 0 1 0 0 0 1 forward_v I I I I #
coedge $-1 $393 $384 $380 $503 forward $377 $-1 #
edge $-1 $507 -9.2662385969479075 $388 -5.1249943088956558 $379 $565 forward 7 unknown #
edge $-1 $389 5.1249943088956558 $506 9.2662385969479075 $501 $566 forward 7 unknown #
coedge $-1 $391 $382 $396 $516 reversed $499 $-1 #
coedge $-1 $382 $391 $393 $514 reversed $499 $-1 #
vertex $-1 $514 $567 #
vertex $-1 $383 $568 #
straight-curve $-1 -29.956005615459006 -16.461855049869691 0 0 0 1 I I #
straight-curve $-1 -15.728002807729503 -12.320610761817438 -5.5621748099956454 1 0 0 I I #
straight-curve $-1 -15.728002807729503 -12.320610761817438 5.5621748099956454 -1 0 0 I I #
point $-1 -29.956005615459006 -12.320610761817438 5.5621748099956454 #
point $-1 -29.956005615459006 -12.320610761817438 -5.5621748099956454 #
straight-curve $-1 -32.956005615459006 -16.461855049869691 0 0 0 -1 I I #
edge $-1 $506 29.956005615459006 $394 32.956005615459006 $505 $569 forward 7 unknown #
point $-1 -32.956005615459006 -16.461855049869691 -5.5621748099956454 #
edge $-1 $397 -32.956005615459006 $507 -29.956005615459006 $504 $570 forward 7 unknown #
point $-1 -32.956005615459006 -16.461855049869691 5.5621748099956454 #
edge $-1 $519 29.185158410783103 $522 32.554780296425655 $402 $571 forward 7 unknown #
vertex $-1 $416 $572 #
straight-curve $-1 -44.102901681383869 -0.92806686766900537 5.5621748099956463 -1 0 0 I I #
edge $-1 $522 -1.2908929966699079 $413 5.7288127253477343 $412 $573 forward 7 unknown #
vertex $-1 $521 $574 #
straight-curve $-1 -41.080355235450298 -0.92806686766900537 2.1925529243530946 0.81915203911291934 0 0.57357644374324357 I I #
point $-1 -36.268036548424149 -0.92806686766900537 5.5621748099956454 #
point $-1 -41.080355235450298 -7.9477725896866476 2.1925529243530946 #
straight-curve $-1 -41.080355235450298 0 5.5621748099956454 0 -1 0 I I #
vertex $-1 $419 $575 #
point $-1 -35.659254518947158 -5.9421423833958933 1.3150282107459592 #
vertex $-1 $423 $576 #
point $-1 -35.659254518947158 -2.9336970739597596 1.3150282107459592 #
coedge $-1 $438 $437 $430 $532 forward $427 $-1 #
edge $-1 $533 29.185158410783103 $536 32.554780296425655 $531 $577 forward 7 unknown #
vertex $-1 $442 $578 #
straight-curve $-1 -44.102901681383869 12.089016877738899 5.5621748099956463 -1 0 0 I I #
edge $-1 $536 -7.7994348693738598 $439 -0.77972914735621845 $438 $579 forward 7 unknown #
vertex $-1 $535 $580 #
straight-curve $-1 -41.080355235450298 12.089016877738899 2.1925529243530946 0.81915203911291934 0 0.57357644374324357 I I #
point $-1 -36.268036548424149 12.089016877738899 5.5621748099956454 #
point $-1 -41.080355235450298 5.069311155721258 2.1925529243530946 #
straight-curve $-1 -41.080355235450298 0 5.5621748099956454 0 -1 0 I I #
vertex $-1 $445 $581 #
point $-1 -35.659254518947158 7.0749413620120123 1.3150282107459592 #
vertex $-1 $449 $582 #
point $-1 -35.659254518947158 10.083386671448146 1.3150282107459592 #
coedge $-1 $464 $463 $456 $546 forward $453 $-1 #
edge $-1 $547 52.482297381447346 $550 56.383089453078853 $545 $583 forward 7 unknown #
vertex $-1 $468 $584 #
straight-curve $-1 10.451844922781667 -8.6318786903622922 5.5621748099956463 1 0 0 I I #
edge $-1 $550 -5.9384414356755943 $465 0.55156692630219917 $464 $585 forward 7 unknown #
vertex $-1 $549 $586 #
straight-curve $-1 -26.221758281754106 -8.6318786903622922 48.78683086568158 -0.81915203911291934 0 0.57357644374324357 I I #
point $-1 35.509446920633202 -8.6318786903622922 5.5621748099956463 #
point $-1 41.080355235450298 -2.1418703283844986 1.6613827383641393 #
straight-curve $-1 41.080355235450298 0 5.5621748099956454 0 1 0 I I #
vertex $-1 $471 $587 #
point $-1 38.130900653854965 -7.333877017966735 2.5058385131953425 #
vertex $-1 $475 $588 #
point $-1 38.130900653854965 -5.3868745093733956 2.5058385131953425 #
vertex $-1 $479 $589 #
point $-1 38.130900653854965 -3.4398720007800563 2.5058385131953425 #
straight-curve $-1 -41.080355235450298 16.461855049869691 0 0 0 -1 I I #
point $-1 -41.080355235450298 -16.461855049869691 -5.5621748099956454 #
straight-curve $-1 -41.080355235450298 0 -5.5621748099956454 0 1 0 I I #
point $-1 -41.080355235450298 16.461855049869691 -5.5621748099956454 #
straight-curve $-1 -29.956005615459006 -7.1956164529217821 5.5621748099956454 0 1 0 I I #
straight-curve $-1 -29.956005615459006 -7.1956164529217821 -5.5621748099956454 0 -1 0 I I #
point $-1 -29.956005615459006 -16.461855049869691 -5.5621748099956454 #
point $-1 -29.956005615459006 -16.461855049869691 5.5621748099956454 #
straight-curve $-1 0 -16.461855049869691 -5.5621748099956454 -1 0 0 I I #
straight-curve $-1 0 -16.461855049869691 5.5621748099956454 1 0 0 I I #
straight-curve $-1 -41.080355235450298 -0.92806686766900537 34.747333220778749 0 0 -1 I I #
point $-1 -41.080355235450298 -0.92806686766900537 5.5621748099956454 #
straight-curve $-1 -41.080355235450298 -2.2189598643389132 2.1925529243530932 0 -1 0 I I #
point $-1 -41.080355235450298 -0.92806686766900537 2.1925529243530946 #
point $-1 -35.90483011431683 -5.9421423833958933 -0.077700272110203361 #
point $-1 -35.90483011431683 -2.9336970739597596 -0.077700272110203361 #
straight-curve $-1 -41.080355235450298 12.089016877738899 34.747333220778749 0 0 -1 I I #
point $-1 -41.080355235450298 12.089016877738899 5.5621748099956454 #
straight-curve $-1 -41.080355235450298 4.2895820083650396 2.1925529243530932 0 -1 0 I I #
point $-1 -41.080355235450298 12.089016877738899 2.1925529243530946 #
point $-1 -35.90483011431683 7.0749413620120123 -0.077700272110203361 #
point $-1 -35.90483011431683 10.083386671448146 -0.077700272110203361 #
straight-curve $-1 41.080355235450298 -8.6318786903622922 58.044472191442992 0 0 -1 I I #
point $-1 41.080355235450298 -8.6318786903622922 5.5621748099956454 #
straight-curve $-1 41.080355235450305 -2.6934372546866978 1.6613827383641393 0 1 0 I I #
point $-1 41.080355235450298 -8.6318786903622922 1.6613827383641393 #
point $-1 37.434536412426887 -7.333877017966735 2.3830507155105045 #
point $-1 37.434536412426887 -5.3868745093733956 2.3830507155105045 #
point $-1 37.434536412426887 -3.4398720007800563 2.3830507155105045 #
End-of-ACIS-data 