500 0 8 0           
7 Unknown 11 ACIS 5.0 NT 24 Thu Mar 25 17:42:06 1999 
-1 9.9999999999999995e-007 1e-010 
body $-1 $8 $-1 $9 #
body $-1 $10 $-1 $11 #
body $-1 $12 $-1 $13 #
body $-1 $14 $-1 $15 #
body $-1 $16 $-1 $17 #
body $-1 $18 $-1 $19 #
body $-1 $20 $-1 $21 #
body $-1 $22 $-1 $23 #
lump $-1 $-1 $24 $0 #
transform $-1 1 0 0 0 1 0 0 0 1 59.718619342631307 26.95912842311078 8.0047228081340798 1 rotate no_reflect no_shear #
lump $-1 $-1 $25 $1 #
transform $-1 1 0 0 0 1 0 0 0 1 59.718619342631307 26.95912842311078 8.0047228081340798 1 rotate no_reflect no_shear #
lump $-1 $-1 $26 $2 #
transform $-1 1 0 0 0 1 0 0 0 1 59.718619342631307 26.95912842311078 8.0047228081340798 1 rotate no_reflect no_shear #
lump $-1 $-1 $27 $3 #
transform $-1 1 0 0 0 1 0 0 0 1 59.718619342631307 26.95912842311078 8.0047228081340798 1 rotate no_reflect no_shear #
lump $-1 $-1 $28 $4 #
transform $-1 1 0 0 0 1 0 0 0 1 59.718619342631307 26.95912842311078 8.0047228081340798 1 rotate no_reflect no_shear #
lump $-1 $-1 $29 $5 #
transform $-1 1 0 0 0 1 0 0 0 1 59.718619342631307 26.95912842311078 8.0047228081340798 1 rotate no_reflect no_shear #
lump $-1 $-1 $30 $6 #
transform $-1 1 0 0 0 1 0 0 0 1 59.718619342631307 26.95912842311078 8.0047228081340798 1 rotate no_reflect no_shear #
lump $-1 $-1 $31 $7 #
transform $-1 1 0 0 0 1 0 0 0 1 59.718619342631307 26.95912842311078 8.0047228081340798 1 rotate no_reflect no_shear #
shell $-1 $-1 $-1 $32 $-1 $8 #
shell $-1 $-1 $-1 $33 $-1 $10 #
shell $-1 $-1 $-1 $34 $-1 $12 #
shell $-1 $-1 $-1 $35 $-1 $14 #
shell $-1 $-1 $-1 $36 $-1 $16 #
shell $-1 $-1 $-1 $37 $-1 $18 #
shell $-1 $-1 $-1 $38 $-1 $20 #
shell $-1 $-1 $-1 $39 $-1 $22 #
face $-1 $40 $41 $24 $-1 $42 forward single #
face $-1 $43 $44 $25 $-1 $45 reversed single #
face $-1 $46 $47 $26 $-1 $48 forward single #
face $-1 $49 $50 $27 $-1 $51 forward single #
face $-1 $52 $53 $28 $-1 $54 reversed single #
face $-1 $55 $56 $29 $-1 $57 forward single #
face $-1 $58 $59 $30 $-1 $60 reversed single #
face $-1 $61 $62 $31 $-1 $63 forward single #
face $-1 $64 $65 $24 $-1 $66 reversed single #
loop $-1 $-1 $67 $32 #
plane-surface $-1 0 0 8.0047228081340798 0 0 1 1 0 0 forward_v I I I I #
face $-1 $68 $69 $25 $-1 $70 reversed single #
loop $-1 $-1 $71 $33 #
plane-surface $-1 -0.98863308786296145 -95.46551503871666 101.37219534726329 -1 0 0 0 -0.57357644374324357 0.81915203911291934 forward_v I I I I #
face $-1 $72 $73 $26 $-1 $74 forward single #
loop $-1 $75 $76 $34 #
cone-surface $-1 -16.315793262434781 -22.224270754124333 3.5660545421567886 0 0.57357644374324357 -0.81915203911291934 1.5 0 0 1 I I 0 1 1.5 forward I I I I #
face $-1 $77 $78 $27 $-1 $79 forward single #
loop $-1 $80 $81 $35 #
cone-surface $-1 -7.1194971576916899 -22.224270754124333 3.5660545421567886 0 0.57357644374324357 -0.81915203911291934 1.5 0 0 1 I I 0 1 1.5 forward I I I I #
face $-1 $82 $83 $28 $-1 $84 reversed single #
loop $-1 $-1 $85 $36 #
plane-surface $-1 -34.354079020712724 71.141659305574493 125.53149318465655 1 0 0 0 -0.69465837861970381 -0.71933979245794832 forward_v I I I I #
face $-1 $86 $87 $29 $-1 $88 forward single #
loop $-1 $89 $90 $37 #
cone-surface $-1 -23.269219233891071 22.744290244030569 3.851456403418446 0 -0.69465837861970381 -0.71933979245794832 1 0 0 1 I I 0 1 1 forward I I I I #
face $-1 $91 $92 $30 $-1 $93 reversed single #
loop $-1 $-1 $94 $38 #
plane-surface $-1 25.364540321918589 71.141659305574493 125.53149318465655 1 0 0 0 -0.69465837861970381 -0.71933979245794832 forward_v I I I I #
face $-1 $95 $96 $31 $-1 $97 forward single #
loop $-1 $98 $99 $39 #
cone-surface $-1 36.449400108740242 22.744290244030569 3.851456403418446 0 -0.69465837861970381 -0.71933979245794832 1 0 0 1 I I 0 1 1 forward I I I I #
face $-1 $100 $101 $24 $-1 $102 reversed single #
loop $-1 $-1 $103 $40 #
plane-surface $-1 0 0 -8.0047228081340798 0 0 1 1 0 0 forward_v I I I I #
coedge $-1 $104 $105 $106 $107 forward $41 $-1 #
face $-1 $108 $109 $25 $-1 $110 reversed single #
loop $-1 $-1 $111 $43 #
plane-surface $-1 -11.717645210063232 -26.959128423110769 3.5349377322139617 0 -0.57357644374324357 0.81915203911291934 1 0 0 forward_v I I I I #
coedge $-1 $112 $113 $114 $115 reversed $44 $-1 #
face $-1 $-1 $116 $26 $-1 $117 forward single #
loop $-1 $118 $119 $46 #
cone-surface $-1 -16.315793262434781 -20.250988014397745 0.7479147848048644 0 0.57357644374324357 -0.81915203911291934 0.75 0 0 1 I I -0.70710678118654757 0.70710678118654757 0.75 forward I I I I #
loop $-1 $-1 $120 $34 #
coedge $-1 $76 $76 $121 $122 reversed $47 $-1 #
face $-1 $-1 $123 $27 $-1 $124 forward single #
loop $-1 $125 $126 $49 #
cone-surface $-1 -7.1194971576916899 -20.250988014397745 0.7479147848048644 0 0.57357644374324357 -0.81915203911291934 0.75 0 0 1 I I -0.70710678118654757 0.70710678118654757 0.75 forward I I I I #
loop $-1 $-1 $127 $35 #
coedge $-1 $81 $81 $128 $129 reversed $50 $-1 #
face $-1 $130 $131 $28 $-1 $132 reversed single #
loop $-1 $-1 $133 $52 #
plane-surface $-1 -23.269219233891071 -11.826419266344601 39.615534697049313 0 0.69465837861970381 0.71933979245794832 1 0 0 forward_v I I I I #
coedge $-1 $134 $135 $136 $137 reversed $53 $-1 #
face $-1 $-1 $138 $29 $-1 $139 forward single #
loop $-1 $140 $141 $55 #
cone-surface $-1 -23.269219233891071 21.207920114700475 2.2604985974147311 0 -0.69465837861970381 -0.71933979245794832 0.5 0 0 1 I I -0.70710678118654746 0.70710678118654746 0.5 forward I I I I #
loop $-1 $-1 $142 $37 #
coedge $-1 $90 $90 $143 $144 reversed $56 $-1 #
face $-1 $145 $146 $30 $-1 $147 reversed single #
loop $-1 $-1 $148 $58 #
plane-surface $-1 36.449400108740242 -11.826419266344601 39.615534697049313 0 0.69465837861970381 0.71933979245794832 1 0 0 forward_v I I I I #
coedge $-1 $149 $150 $151 $152 reversed $59 $-1 #
face $-1 $-1 $153 $31 $-1 $154 forward single #
loop $-1 $155 $156 $61 #
cone-surface $-1 36.449400108740242 21.207920114700475 2.2604985974147311 0 -0.69465837861970381 -0.71933979245794832 0.5 0 0 1 I I -0.70710678118654746 0.70710678118654746 0.5 forward I I I I #
loop $-1 $-1 $157 $39 #
coedge $-1 $99 $99 $158 $159 reversed $62 $-1 #
face $-1 $160 $161 $24 $-1 $162 reversed single #
loop $-1 $-1 $163 $64 #
plane-surface $-1 0 -26.95912842311078 0 0 1 0 0 0 1 forward_v I I I I #
coedge $-1 $164 $165 $166 $167 forward $65 $-1 #
coedge $-1 $168 $67 $169 $170 forward $41 $-1 #
coedge $-1 $67 $168 $171 $172 forward $41 $-1 #
coedge $-1 $173 $174 $67 $107 reversed $175 $-1 #
edge $-1 $176 -26.95912842311078 $177 26.95912842311078 $106 $178 forward 7 unknown #
face $-1 $179 $180 $25 $-1 $181 reversed single #
loop $-1 $-1 $182 $68 #
plane-surface $-1 -22.446657332263502 -95.46551503871666 101.37219534726329 1 0 0 0 0.57357644374324357 -0.81915203911291934 forward_v I I I I #
coedge $-1 $183 $184 $185 $186 reversed $69 $-1 #
coedge $-1 $113 $71 $187 $188 reversed $44 $-1 #
coedge $-1 $71 $112 $183 $189 reversed $44 $-1 #
coedge $-1 $185 $190 $71 $115 forward $191 $-1 #
edge $-1 $192 20.77362909624755 $193 27.157143620382147 $114 $194 forward 7 unknown #
loop $-1 $-1 $121 $72 #
plane-surface $-1 -11.717645210063232 -26.959128423110769 3.5349377322139617 0 -0.57357644374324357 0.81915203911291934 1 0 0 forward_v I I I I #
loop $-1 $-1 $195 $46 #
coedge $-1 $119 $119 $120 $196 reversed $73 $-1 #
coedge $-1 $120 $120 $119 $196 forward $75 $-1 #
coedge $-1 $121 $121 $76 $122 forward $116 $-1 #
edge $-1 $197 -8.2365422287850405e-016 $197 6.2831853071795996 $121 $198 forward 7 unknown #
loop $-1 $-1 $128 $77 #
plane-surface $-1 -11.717645210063232 -26.959128423110769 3.5349377322139617 0 -0.57357644374324357 0.81915203911291934 1 0 0 forward_v I I I I #
loop $-1 $-1 $199 $49 #
coedge $-1 $126 $126 $127 $200 reversed $78 $-1 #
coedge $-1 $127 $127 $126 $200 forward $80 $-1 #
coedge $-1 $128 $128 $81 $129 forward $123 $-1 #
edge $-1 $201 -8.2365422287850405e-016 $201 6.2831853071795996 $128 $202 forward 7 unknown #
face $-1 $203 $204 $28 $-1 $205 reversed single #
loop $-1 $-1 $206 $82 #
plane-surface $-1 -12.18435944706942 71.141659305574493 125.53149318465655 -1 0 0 0 0.69465837861970381 0.71933979245794832 forward_v I I I I #
coedge $-1 $207 $208 $209 $210 reversed $83 $-1 #
coedge $-1 $135 $85 $211 $212 reversed $53 $-1 #
coedge $-1 $85 $134 $207 $213 reversed $53 $-1 #
coedge $-1 $209 $214 $85 $137 forward $215 $-1 #
edge $-1 $216 8.6117012296764663 $217 14.663295707796401 $136 $218 forward 7 unknown #
loop $-1 $-1 $143 $86 #
plane-surface $-1 -23.269219233891071 -11.826419266344601 39.615534697049313 0 0.69465837861970381 0.71933979245794832 1 0 0 forward_v I I I I #
loop $-1 $-1 $219 $55 #
coedge $-1 $141 $141 $142 $220 reversed $87 $-1 #
coedge $-1 $142 $142 $141 $220 forward $89 $-1 #
coedge $-1 $143 $143 $90 $144 forward $138 $-1 #
edge $-1 $221 6.1698058095389979e-016 $221 6.2831853071796013 $143 $222 forward 7 unknown #
face $-1 $223 $224 $30 $-1 $225 forward single #
loop $-1 $-1 $226 $91 #
plane-surface $-1 47.534259895561895 71.141659305574493 125.53149318465655 -1 0 0 0 0.69465837861970381 0.71933979245794832 forward_v I I I I #
coedge $-1 $227 $228 $229 $230 reversed $92 $-1 #
coedge $-1 $150 $94 $231 $232 reversed $59 $-1 #
coedge $-1 $94 $149 $227 $233 reversed $59 $-1 #
coedge $-1 $229 $234 $94 $152 forward $224 $-1 #
edge $-1 $235 8.6117012296764663 $236 14.663295707796401 $151 $237 forward 7 unknown #
loop $-1 $-1 $158 $95 #
plane-surface $-1 36.449400108740242 -11.826419266344601 39.615534697049313 0 0.69465837861970381 0.71933979245794832 1 0 0 forward_v I I I I #
loop $-1 $-1 $238 $61 #
coedge $-1 $156 $156 $157 $239 reversed $96 $-1 #
coedge $-1 $157 $157 $156 $239 forward $98 $-1 #
coedge $-1 $158 $158 $99 $159 forward $153 $-1 #
edge $-1 $240 6.1698058095389979e-016 $240 6.2831853071796013 $158 $241 forward 7 unknown #
face $-1 $242 $243 $24 $-1 $244 reversed single #
loop $-1 $-1 $245 $100 #
plane-surface $-1 -59.718619342631307 0 0 1 0 0 0 0 -1 forward_v I I I I #
coedge $-1 $246 $171 $247 $248 forward $101 $-1 #
coedge $-1 $249 $103 $246 $250 forward $65 $-1 #
coedge $-1 $103 $249 $251 $252 forward $65 $-1 #
coedge $-1 $174 $173 $103 $167 reversed $175 $-1 #
edge $-1 $253 -26.95912842311078 $254 26.95912842311078 $166 $255 forward 7 unknown #
coedge $-1 $105 $104 $256 $257 forward $41 $-1 #
coedge $-1 $258 $259 $104 $170 reversed $243 $-1 #
edge $-1 $177 -59.718619342631307 $260 59.718619342631307 $169 $261 forward 7 unknown #
coedge $-1 $163 $262 $105 $172 reversed $101 $-1 #
edge $-1 $263 -59.718619342631307 $176 59.718619342631307 $171 $264 forward 7 unknown #
coedge $-1 $166 $106 $262 $265 forward $175 $-1 #
coedge $-1 $106 $166 $258 $266 reversed $175 $-1 #
loop $-1 $-1 $173 $242 #
vertex $-1 $107 $267 #
vertex $-1 $107 $268 #
straight-curve $-1 59.718619342631307 0 8.0047228081340798 0 1 0 I I #
face $-1 $-1 $191 $25 $-1 $269 forward single #
loop $-1 $-1 $270 $108 #
plane-surface $-1 0 -26.95912842311078 0 0 1 0 0 0 1 forward_v I I I I #
coedge $-1 $271 $272 $273 $274 reversed $109 $-1 #
coedge $-1 $275 $111 $113 $189 forward $69 $-1 #
coedge $-1 $111 $275 $271 $276 forward $69 $-1 #
coedge $-1 $273 $114 $111 $186 forward $191 $-1 #
edge $-1 $193 -4.8701895171686544 $277 16.587834727231886 $185 $278 forward 7 unknown #
coedge $-1 $279 $280 $112 $188 forward $180 $-1 #
edge $-1 $281 -47.151159941417689 $192 -42.68137486549756 $187 $282 forward 7 unknown #
edge $-1 $193 -7.7928323672946691 $281 1.3060862827860654e-014 $113 $283 forward 7 unknown #
coedge $-1 $114 $273 $279 $284 forward $191 $-1 #
loop $-1 $-1 $273 $179 #
vertex $-1 $188 $285 #
vertex $-1 $115 $286 #
straight-curve $-1 -0.98863308786296145 -47.73275751935833 8.0047228081340762 0 1 0 I I #
coedge $-1 $195 $195 $-1 $287 reversed $118 $-1 #
edge $-1 $288 0 $288 6.2831853071796004 $119 $289 forward 7 unknown #
vertex $-1 $122 $290 #
ellipse-curve $-1 -16.315793262434781 -23.767371161043485 5.7698302701740154 0 -0.57357644374324357 0.81915203911291934 1.5 0 0 1 I I #
coedge $-1 $199 $199 $-1 $291 reversed $125 $-1 #
edge $-1 $292 0 $292 6.2831853071796004 $126 $293 forward 7 unknown #
vertex $-1 $129 $294 #
ellipse-curve $-1 -7.1194971576916899 -23.767371161043485 5.7698302701740154 0 -0.57357644374324357 0.81915203911291934 1.5 0 0 1 I I #
face $-1 $-1 $215 $28 $-1 $295 forward single #
loop $-1 $-1 $296 $130 #
plane-surface $-1 0 26.95912842311078 0 0 -1 0 0 0 -1 forward_v I I I I #
coedge $-1 $297 $298 $299 $300 reversed $131 $-1 #
coedge $-1 $301 $133 $135 $213 forward $83 $-1 #
coedge $-1 $133 $301 $297 $302 forward $83 $-1 #
coedge $-1 $299 $136 $133 $210 forward $215 $-1 #
edge $-1 $217 -22.719469403767189 $303 -0.54974983012388456 $209 $304 forward 7 unknown #
coedge $-1 $305 $306 $134 $212 forward $204 $-1 #
edge $-1 $307 -60.60498077407599 $216 -54.761023784194194 $211 $308 forward 7 unknown #
edge $-1 $217 45.505550442976542 $307 53.918256846221581 $135 $309 forward 7 unknown #
coedge $-1 $136 $299 $305 $310 forward $215 $-1 #
loop $-1 $-1 $299 $203 #
vertex $-1 $212 $311 #
vertex $-1 $137 $312 #
straight-curve $-1 -34.354079020712724 35.570829652787246 8.0047228081340762 0 -1 0 I I #
coedge $-1 $219 $219 $-1 $313 reversed $140 $-1 #
edge $-1 $314 0 $314 6.2831853071796004 $141 $315 forward 7 unknown #
vertex $-1 $144 $316 #
ellipse-curve $-1 -23.269219233891071 23.933331184050814 5.0827443131931878 0 0.69465837861970381 0.71933979245794832 1 0 0 1 I I #
face $-1 $-1 $317 $30 $-1 $318 reversed single #
loop $-1 $-1 $151 $145 #
plane-surface $-1 0 0 8.0047228081340798 0 0 1 1 0 0 forward_v I I I I #
coedge $-1 $319 $320 $321 $322 reversed $146 $-1 #
coedge $-1 $323 $148 $150 $233 forward $92 $-1 #
coedge $-1 $148 $323 $319 $324 forward $92 $-1 #
coedge $-1 $321 $151 $148 $230 forward $224 $-1 #
edge $-1 $236 7.1398402675484682 $325 29.309559841191774 $229 $326 forward 7 unknown #
coedge $-1 $327 $328 $149 $232 forward $317 $-1 #
edge $-1 $329 -60.60498077407599 $235 -54.761023784194194 $231 $330 forward 7 unknown #
edge $-1 $236 45.505550442976542 $329 53.918256846221581 $150 $331 forward 7 unknown #
coedge $-1 $151 $321 $327 $332 forward $224 $-1 #
vertex $-1 $152 $333 #
vertex $-1 $152 $334 #
straight-curve $-1 25.364540321918589 35.570829652787246 8.0047228081340762 0 -1 0 I I #
coedge $-1 $238 $238 $-1 $335 reversed $155 $-1 #
edge $-1 $336 0 $336 6.2831853071796004 $156 $337 forward 7 unknown #
vertex $-1 $159 $338 #
ellipse-curve $-1 36.449400108740242 23.933331184050814 5.0827443131931878 0 0.69465837861970381 0.71933979245794832 1 0 0 1 I I #
face $-1 $-1 $175 $24 $-1 $339 reversed single #
loop $-1 $-1 $258 $160 #
plane-surface $-1 0 26.95912842311078 0 0 -1 0 0 0 -1 forward_v I I I I #
coedge $-1 $340 $256 $259 $341 forward $161 $-1 #
coedge $-1 $262 $163 $164 $250 reversed $101 $-1 #
coedge $-1 $256 $340 $163 $248 reversed $161 $-1 #
edge $-1 $263 -8.0047228081340798 $342 8.0047228081340798 $247 $343 forward 7 unknown #
coedge $-1 $165 $164 $340 $344 forward $65 $-1 #
edge $-1 $254 -59.718619342631307 $342 59.718619342631307 $246 $345 forward 7 unknown #
coedge $-1 $259 $258 $165 $252 reversed $243 $-1 #
edge $-1 $346 -59.718619342631307 $253 59.718619342631307 $251 $347 forward 7 unknown #
vertex $-1 $167 $348 #
vertex $-1 $265 $349 #
straight-curve $-1 59.718619342631307 0 -8.0047228081340798 0 -1 0 I I #
coedge $-1 $245 $247 $168 $257 reversed $161 $-1 #
edge $-1 $260 -26.95912842311078 $263 26.95912842311078 $256 $350 forward 7 unknown #
coedge $-1 $251 $169 $174 $266 forward $243 $-1 #
coedge $-1 $169 $251 $245 $341 reversed $243 $-1 #
vertex $-1 $170 $351 #
straight-curve $-1 0 26.95912842311078 8.0047228081340798 -1 0 0 I I #
coedge $-1 $171 $246 $173 $265 reversed $101 $-1 #
vertex $-1 $257 $352 #
straight-curve $-1 0 -26.95912842311078 8.0047228081340798 1 0 0 I I #
edge $-1 $176 -8.0047228081340798 $254 8.0047228081340798 $173 $353 forward 7 unknown #
edge $-1 $177 -8.0047228081340798 $253 8.0047228081340798 $174 $354 forward 7 unknown #
point $-1 59.718619342631307 -26.95912842311078 8.0047228081340798 #
point $-1 59.718619342631307 26.95912842311078 8.0047228081340798 #
plane-surface $-1 0 0 8.0047228081340798 0 0 1 1 0 0 forward_v I I I I #
coedge $-1 $280 $279 $272 $355 forward $180 $-1 #
coedge $-1 $272 $182 $184 $276 reversed $109 $-1 #
coedge $-1 $182 $271 $270 $355 reversed $109 $-1 #
coedge $-1 $190 $185 $182 $274 forward $191 $-1 #
edge $-1 $277 -27.157143620382147 $356 -20.77362909624755 $273 $357 forward 7 unknown #
coedge $-1 $184 $183 $280 $358 reversed $69 $-1 #
edge $-1 $359 -1.3060862827860654e-014 $277 7.7928323672946691 $271 $360 forward 7 unknown #
vertex $-1 $186 $361 #
straight-curve $-1 -5.8588226050316159 -20.575613898976183 8.0047228081340798 -1 0 0 I I #
coedge $-1 $270 $187 $190 $284 reversed $180 $-1 #
coedge $-1 $187 $270 $275 $358 forward $180 $-1 #
vertex $-1 $188 $362 #
straight-curve $-1 -0.98863308786296145 -26.959128423110776 50.686097673631643 0 0 1 I I #
straight-curve $-1 -0.98863308786296145 -26.959128423110769 3.5349377322139617 0 -0.81915203911291934 -0.57357644374324357 I I #
edge $-1 $356 -22.446657332263502 $192 -0.98863308786296145 $279 $363 forward 7 unknown #
point $-1 -0.98863308786296145 -26.95912842311078 8.0047228081340798 #
point $-1 -0.98863308786296145 -20.575613898976183 8.0047228081340798 #
edge $-1 $364 1 $364 0 $195 $-1 forward 7 unknown #
vertex $-1 $196 $365 #
ellipse-curve $-1 -16.315793262434781 -20.681170347205178 1.3622788141395539 0 -0.57357644374324357 0.81915203911291934 1.5 0 0 1 I I #
point $-1 -14.815793262434781 -23.767371161043492 5.7698302701740234 #
edge $-1 $366 1 $366 0 $199 $-1 forward 7 unknown #
vertex $-1 $200 $367 #
ellipse-curve $-1 -7.1194971576916899 -20.681170347205178 1.3622788141395539 0 -0.57357644374324357 0.81915203911291934 1.5 0 0 1 I I #
point $-1 -5.6194971576916899 -23.767371161043492 5.7698302701740234 #
plane-surface $-1 0 0 8.0047228081340798 0 0 1 1 0 0 forward_v I I I I #
coedge $-1 $306 $305 $298 $368 forward $204 $-1 #
coedge $-1 $298 $206 $208 $302 reversed $131 $-1 #
coedge $-1 $206 $297 $296 $368 reversed $131 $-1 #
coedge $-1 $214 $209 $206 $300 forward $215 $-1 #
edge $-1 $303 -14.663295707796401 $369 -8.6117012296764663 $299 $370 forward 7 unknown #
coedge $-1 $208 $207 $306 $371 reversed $83 $-1 #
edge $-1 $372 -53.918256846221581 $303 -45.505550442976542 $297 $373 forward 7 unknown #
vertex $-1 $210 $374 #
straight-curve $-1 -11.634609616945536 20.907533944990845 8.0047228081340762 1 0 0 I I #
coedge $-1 $296 $211 $214 $310 reversed $204 $-1 #
coedge $-1 $211 $296 $301 $371 forward $204 $-1 #
vertex $-1 $212 $375 #
straight-curve $-1 -34.354079020712724 26.95912842311078 62.765746592328277 0 0 1 I I #
straight-curve $-1 -34.354079020712724 -11.826419266344601 39.615534697049313 0 0.71933979245794832 -0.69465837861970381 I I #
edge $-1 $369 12.18435944706942 $216 34.354079020712724 $305 $376 forward 7 unknown #
point $-1 -34.354079020712724 26.95912842311078 8.0047228081340798 #
point $-1 -34.354079020712724 20.907533944990845 8.0047228081340798 #
edge $-1 $377 1 $377 0 $219 $-1 forward 7 unknown #
vertex $-1 $220 $378 #
ellipse-curve $-1 -23.269219233891071 21.555249304010328 2.6201684936437051 0 0.69465837861970381 0.71933979245794832 1 0 0 1 I I #
point $-1 -22.269219233891071 23.933331184050814 5.0827443131931869 #
loop $-1 $-1 $231 $223 #
plane-surface $-1 0 26.95912842311078 0 0 -1 0 0 0 -1 forward_v I I I I #
coedge $-1 $320 $226 $228 $324 reversed $146 $-1 #
coedge $-1 $226 $319 $379 $380 reversed $146 $-1 #
coedge $-1 $234 $229 $226 $322 forward $224 $-1 #
edge $-1 $325 -14.663295707796401 $381 -8.6117012296764663 $321 $382 forward 7 unknown #
coedge $-1 $228 $227 $328 $383 reversed $92 $-1 #
edge $-1 $384 -53.918256846221581 $325 -45.505550442976542 $319 $385 forward 7 unknown #
vertex $-1 $230 $386 #
straight-curve $-1 18.224700054370121 20.907533944990845 8.0047228081340762 1 0 0 I I #
coedge $-1 $379 $231 $234 $332 reversed $317 $-1 #
coedge $-1 $231 $379 $323 $383 forward $317 $-1 #
vertex $-1 $232 $387 #
straight-curve $-1 25.364540321918589 26.95912842311078 62.765746592328277 0 0 1 I I #
straight-curve $-1 25.364540321918589 -11.826419266344601 39.615534697049313 0 0.71933979245794832 -0.69465837861970381 I I #
edge $-1 $381 -47.534259895561895 $235 -25.364540321918589 $327 $388 forward 7 unknown #
point $-1 25.364540321918589 26.95912842311078 8.0047228081340798 #
point $-1 25.364540321918589 20.907533944990845 8.0047228081340798 #
edge $-1 $389 1 $389 0 $238 $-1 forward 7 unknown #
vertex $-1 $239 $390 #
ellipse-curve $-1 36.449400108740242 21.555249304010328 2.6201684936437051 0 0.69465837861970381 0.71933979245794832 1 0 0 1 I I #
point $-1 37.449400108740242 23.933331184050814 5.0827443131931869 #
plane-surface $-1 59.718619342631307 0 0 -1 0 0 0 0 1 forward_v I I I I #
coedge $-1 $247 $245 $249 $344 reversed $161 $-1 #
edge $-1 $260 -8.0047228081340798 $346 8.0047228081340798 $259 $391 forward 7 unknown #
vertex $-1 $344 $392 #
straight-curve $-1 -59.718619342631307 -26.95912842311078 0 0 0 -1 I I #
edge $-1 $342 -26.95912842311078 $346 26.95912842311078 $340 $393 forward 7 unknown #
straight-curve $-1 0 -26.95912842311078 -8.0047228081340798 -1 0 0 I I #
vertex $-1 $252 $394 #
straight-curve $-1 0 26.95912842311078 -8.0047228081340798 1 0 0 I I #
point $-1 59.718619342631307 26.95912842311078 -8.0047228081340798 #
point $-1 59.718619342631307 -26.95912842311078 -8.0047228081340798 #
straight-curve $-1 -59.718619342631307 0 8.0047228081340798 0 -1 0 I I #
point $-1 -59.718619342631307 26.95912842311078 8.0047228081340798 #
point $-1 -59.718619342631307 -26.95912842311078 8.0047228081340798 #
straight-curve $-1 59.718619342631307 -26.95912842311078 0 0 0 -1 I I #
straight-curve $-1 59.718619342631307 26.95912842311078 0 0 0 -1 I I #
edge $-1 $356 42.68137486549756 $359 47.151159941417689 $270 $395 forward 7 unknown #
vertex $-1 $284 $396 #
straight-curve $-1 -22.446657332263502 -47.73275751935833 8.0047228081340762 0 -1 0 I I #
edge $-1 $359 -16.587834727231886 $281 4.8701895171686544 $280 $397 forward 7 unknown #
vertex $-1 $358 $398 #
straight-curve $-1 -22.446657332263502 -26.959128423110769 3.5349377322139617 0 0.81915203911291934 0.57357644374324357 I I #
point $-1 -22.446657332263502 -20.575613898976183 8.0047228081340798 #
point $-1 -0.98863308786296145 -26.95912842311078 3.5349377322139541 #
straight-curve $-1 0 -26.95912842311078 8.0047228081340798 1 0 0 I I #
vertex $-1 $287 $399 #
point $-1 -14.815793262434781 -20.681170347205178 1.3622788141395539 #
vertex $-1 $291 $400 #
point $-1 -5.6194971576916899 -20.681170347205178 1.3622788141395539 #
edge $-1 $369 54.761023784194194 $372 60.60498077407599 $296 $401 forward 7 unknown #
vertex $-1 $310 $402 #
straight-curve $-1 -12.18435944706942 35.570829652787246 8.0047228081340762 0 1 0 I I #
edge $-1 $372 0.54974983012388456 $307 22.719469403767189 $306 $403 forward 7 unknown #
vertex $-1 $371 $404 #
straight-curve $-1 -12.18435944706942 -11.826419266344601 39.615534697049313 0 -0.71933979245794832 0.69465837861970381 I I #
point $-1 -12.18435944706942 20.907533944990845 8.0047228081340798 #
point $-1 -34.354079020712724 26.959128423110784 2.1607658182522869 #
straight-curve $-1 0 26.95912842311078 8.0047228081340798 -1 0 0 I I #
vertex $-1 $313 $405 #
point $-1 -22.269219233891071 21.555249304010328 2.6201684936437051 #
coedge $-1 $328 $327 $320 $380 forward $317 $-1 #
edge $-1 $381 54.761023784194194 $384 60.60498077407599 $379 $406 forward 7 unknown #
vertex $-1 $332 $407 #
straight-curve $-1 47.534259895561895 35.570829652787246 8.0047228081340762 0 1 0 I I #
edge $-1 $384 -29.309559841191774 $329 -7.1398402675484682 $328 $408 forward 7 unknown #
vertex $-1 $383 $409 #
straight-curve $-1 47.534259895561895 -11.826419266344601 39.615534697049313 0 -0.71933979245794832 0.69465837861970381 I I #
point $-1 47.534259895561895 20.907533944990845 8.0047228081340798 #
point $-1 25.364540321918589 26.959128423110784 2.1607658182522869 #
straight-curve $-1 0 26.95912842311078 8.0047228081340798 -1 0 0 I I #
vertex $-1 $335 $410 #
point $-1 37.449400108740242 21.555249304010328 2.6201684936437051 #
straight-curve $-1 -59.718619342631307 26.95912842311078 0 0 0 -1 I I #
point $-1 -59.718619342631307 -26.95912842311078 -8.0047228081340798 #
straight-curve $-1 -59.718619342631307 0 -8.0047228081340798 0 1 0 I I #
point $-1 -59.718619342631307 26.95912842311078 -8.0047228081340798 #
straight-curve $-1 -22.446657332263502 -26.959128423110776 50.686097673631643 0 0 -1 I I #
point $-1 -22.446657332263502 -26.95912842311078 8.0047228081340798 #
straight-curve $-1 -5.8588226050316159 -26.95912842311078 3.5349377322139564 1 0 0 I I #
point $-1 -22.446657332263502 -26.95912842311078 3.5349377322139541 #
point $-1 -16.315793262434781 -19.820805681590311 0.13355075547017492 #
point $-1 -7.1194971576916899 -19.820805681590311 0.13355075547017492 #
straight-curve $-1 -12.18435944706942 26.95912842311078 62.765746592328277 0 0 -1 I I #
point $-1 -12.18435944706942 26.95912842311078 8.0047228081340798 #
straight-curve $-1 -11.634609616945536 26.959128423110776 2.1607658182522869 -1 0 0 I I #
point $-1 -12.18435944706942 26.959128423110784 2.1607658182522869 #
point $-1 -23.269219233891071 20.860590925390621 1.900828701185757 #
straight-curve $-1 47.534259895561895 26.95912842311078 62.765746592328277 0 0 -1 I I #
point $-1 47.534259895561895 26.95912842311078 8.0047228081340798 #
straight-curve $-1 18.224700054370121 26.959128423110776 2.1607658182522869 -1 0 0 I I #
point $-1 47.534259895561895 26.959128423110784 2.1607658182522869 #
point $-1 36.449400108740242 20.860590925390621 1.900828701185757 #
End-of-ACIS-data 