500 0 11 0           
7 Unknown 11 ACIS 5.0 NT 24 Thu Mar 25 18:25:01 1999 
-1 9.9999999999999995e-007 1e-010 
body $-1 $11 $-1 $12 #
body $-1 $13 $-1 $14 #
body $-1 $15 $-1 $16 #
body $-1 $17 $-1 $18 #
body $-1 $19 $-1 $20 #
body $-1 $21 $-1 $22 #
body $-1 $23 $-1 $24 #
body $-1 $25 $-1 $26 #
body $-1 $27 $-1 $28 #
body $-1 $29 $-1 $30 #
body $-1 $31 $-1 $32 #
lump $-1 $-1 $33 $0 #
transform $-1 1 0 0 0 1 0 0 0 1 56.100344859157076 22.533104914269 9.8554397130907976 1 rotate no_reflect no_shear #
lump $-1 $-1 $34 $1 #
transform $-1 1 0 0 0 1 0 0 0 1 56.100344859157076 22.533104914269 9.8554397130907976 1 rotate no_reflect no_shear #
lump $-1 $-1 $35 $2 #
transform $-1 1 0 0 0 1 0 0 0 1 56.100344859157076 22.533104914269 9.8554397130907976 1 rotate no_reflect no_shear #
lump $-1 $-1 $36 $3 #
transform $-1 1 0 0 0 1 0 0 0 1 56.100344859157076 22.533104914269 9.8554397130907976 1 rotate no_reflect no_shear #
lump $-1 $-1 $37 $4 #
transform $-1 1 0 0 0 1 0 0 0 1 56.100344859157076 22.533104914269 9.8554397130907976 1 rotate no_reflect no_shear #
lump $-1 $-1 $38 $5 #
transform $-1 1 0 0 0 1 0 0 0 1 56.100344859157076 22.533104914269 9.8554397130907976 1 rotate no_reflect no_shear #
lump $-1 $-1 $39 $6 #
transform $-1 1 0 0 0 1 0 0 0 1 56.100344859157076 22.533104914269 9.8554397130907976 1 rotate no_reflect no_shear #
lump $-1 $-1 $40 $7 #
transform $-1 1 0 0 0 1 0 0 0 1 56.100344859157076 22.533104914269 9.8554397130907976 1 rotate no_reflect no_shear #
lump $-1 $-1 $41 $8 #
transform $-1 1 0 0 0 1 0 0 0 1 56.100344859157076 22.533104914269 9.8554397130907976 1 rotate no_reflect no_shear #
lump $-1 $-1 $42 $9 #
transform $-1 1 0 0 0 1 0 0 0 1 56.100344859157076 22.533104914269 9.8554397130907976 1 rotate no_reflect no_shear #
lump $-1 $-1 $43 $10 #
transform $-1 1 0 0 0 1 0 0 0 1 56.100344859157076 22.533104914269 9.8554397130907976 1 rotate no_reflect no_shear #
shell $-1 $-1 $-1 $44 $-1 $11 #
shell $-1 $-1 $-1 $45 $-1 $13 #
shell $-1 $-1 $-1 $46 $-1 $15 #
shell $-1 $-1 $-1 $47 $-1 $17 #
shell $-1 $-1 $-1 $48 $-1 $19 #
shell $-1 $-1 $-1 $49 $-1 $21 #
shell $-1 $-1 $-1 $50 $-1 $23 #
shell $-1 $-1 $-1 $51 $-1 $25 #
shell $-1 $-1 $-1 $52 $-1 $27 #
shell $-1 $-1 $-1 $53 $-1 $29 #
shell $-1 $-1 $-1 $54 $-1 $31 #
face $-1 $55 $56 $33 $-1 $57 forward single #
face $-1 $58 $59 $34 $-1 $60 forward single #
face $-1 $61 $62 $35 $-1 $63 reversed single #
face $-1 $64 $65 $36 $-1 $66 forward single #
face $-1 $67 $68 $37 $-1 $69 forward single #
face $-1 $70 $71 $38 $-1 $72 reversed single #
face $-1 $73 $74 $39 $-1 $75 forward single #
face $-1 $76 $77 $40 $-1 $78 forward single #
face $-1 $79 $80 $41 $-1 $81 reversed single #
face $-1 $82 $83 $42 $-1 $84 forward single #
face $-1 $85 $86 $43 $-1 $87 forward single #
face $-1 $88 $89 $33 $-1 $90 reversed single #
loop $-1 $-1 $91 $44 #
plane-surface $-1 0 0 9.8554397130907976 0 0 1 1 0 0 forward_v I I I I #
face $-1 $92 $93 $34 $-1 $94 reversed single #
loop $-1 $-1 $95 $45 #
plane-surface $-1 -56.100344859157076 0 0 1 0 0 0 0 -1 forward_v I I I I #
face $-1 $96 $97 $35 $-1 $98 reversed single #
loop $-1 $-1 $99 $46 #
plane-surface $-1 -9.6463165975300846 -119.70175340034073 58.758664746207806 -1 0 0 0 -0.86602541151947299 0.49999998660252726 forward_v I I I I #
face $-1 $100 $101 $36 $-1 $102 forward single #
loop $-1 $103 $104 $47 #
cone-surface $-1 -19.696829289050889 -19.197998638612027 5.5308757492023641 0 0.86602541151947299 -0.49999998660252726 2 0 0 1 I I 0 1 2 forward I I I I #
face $-1 $105 $106 $37 $-1 $107 forward single #
loop $-1 $108 $109 $48 #
cone-surface $-1 -13.666521674138401 -19.197998638612027 5.5308757492023641 0 0.86602541151947299 -0.49999998660252726 2 0 0 1 I I 0 1 2 forward I I I I #
face $-1 $110 $111 $38 $-1 $112 reversed single #
loop $-1 $-1 $113 $49 #
plane-surface $-1 -10.228219348086842 70.004352186017471 114.11345489184315 1 0 0 0 -0.70710678939079041 -0.70710677298230451 forward_v I I I I #
face $-1 $114 $115 $39 $-1 $116 forward single #
loop $-1 $117 $118 $50 #
cone-surface $-1 -5.5044458184991285 18.517738424319514 5.8400731551246281 0 -0.70710678939079041 -0.70710677298230451 1.5 0 0 1 I I 0 1 1.5 forward I I I I #
face $-1 $119 $120 $40 $-1 $121 forward single #
loop $-1 $122 $123 $51 #
cone-surface $-1 1.5812144758824331 18.517738424319514 5.8400731551246281 0 -0.70710678939079041 -0.70710677298230451 1.5 0 0 1 I I 0 1 1.5 forward I I I I #
face $-1 $124 $125 $41 $-1 $126 reversed single #
loop $-1 $-1 $127 $52 #
plane-surface $-1 -1.9616156713083512 -9.3335172881319153 34.77558725873719 0 0.70710678939079041 0.70710677298230451 1 0 0 forward_v I I I I #
face $-1 $128 $129 $42 $-1 $130 forward single #
loop $-1 $131 $132 $53 #
cone-surface $-1 11.028761535057868 18.517738424319514 5.8400731551246281 0 -0.70710678939079041 -0.70710677298230451 1.5 0 0 1 I I 0 1 1.5 forward I I I I #
face $-1 $133 $134 $43 $-1 $135 forward single #
loop $-1 $136 $137 $54 #
cone-surface $-1 18.114421829439422 18.517738424319514 5.8400731551246281 0 -0.70710678939079041 -0.70710677298230451 1.5 0 0 1 I I 0 1 1.5 forward I I I I #
face $-1 $138 $139 $33 $-1 $140 reversed single #
loop $-1 $-1 $141 $55 #
plane-surface $-1 0 0 -9.8554397130907976 0 0 1 1 0 0 forward_v I I I I #
coedge $-1 $142 $143 $144 $145 forward $56 $-1 #
face $-1 $146 $147 $34 $-1 $148 reversed single #
loop $-1 $-1 $149 $58 #
plane-surface $-1 0 22.533104914269 0 0 -1 0 0 0 -1 forward_v I I I I #
coedge $-1 $150 $151 $152 $153 forward $59 $-1 #
face $-1 $154 $155 $35 $-1 $156 reversed single #
loop $-1 $-1 $157 $61 #
plane-surface $-1 -16.681675481594652 -22.533104914269018 2.6583213902564111 0 -0.86602541151947299 0.49999998660252726 1 0 0 forward_v I I I I #
coedge $-1 $158 $159 $160 $161 reversed $62 $-1 #
face $-1 $-1 $162 $36 $-1 $163 forward single #
loop $-1 $164 $165 $64 #
cone-surface $-1 -19.696829289050889 -17.074495977747986 4.3048709601285999 0 0.86602541151947299 -0.49999998660252726 1 0 0 1 I I -0.70710678118654735 0.70710678118654768 1 forward I I I I #
loop $-1 $-1 $166 $47 #
coedge $-1 $104 $104 $167 $168 reversed $65 $-1 #
face $-1 $-1 $169 $37 $-1 $170 forward single #
loop $-1 $171 $172 $67 #
cone-surface $-1 -13.666521674138401 -17.074495977747986 4.3048709601285999 0 0.86602541151947299 -0.49999998660252726 1 0 0 1 I I -0.70710678118654735 0.70710678118654768 1 forward I I I I #
loop $-1 $-1 $173 $48 #
coedge $-1 $109 $109 $174 $175 reversed $68 $-1 #
face $-1 $176 $177 $38 $-1 $178 reversed single #
loop $-1 $-1 $179 $70 #
plane-surface $-1 -1.9616156713083512 -9.3335172881319153 34.77558725873719 0 0.70710678939079041 0.70710677298230451 1 0 0 forward_v I I I I #
coedge $-1 $180 $181 $182 $183 reversed $71 $-1 #
face $-1 $-1 $184 $39 $-1 $185 forward single #
loop $-1 $186 $187 $73 #
cone-surface $-1 -5.5044458184991285 17.44527945984149 4.7676142155331238 0 -0.70710678939079041 -0.70710677298230451 0.75 0 0 1 I I -0.70710678118654757 0.70710678118654757 0.75 forward I I I I #
loop $-1 $-1 $188 $50 #
coedge $-1 $118 $118 $189 $190 reversed $74 $-1 #
face $-1 $-1 $191 $40 $-1 $192 forward single #
loop $-1 $193 $194 $76 #
cone-surface $-1 1.5812144758824331 17.44527945984149 4.7676142155331238 0 -0.70710678939079041 -0.70710677298230451 0.75 0 0 1 I I -0.70710678118654757 0.70710678118654757 0.75 forward I I I I #
loop $-1 $-1 $195 $51 #
coedge $-1 $123 $123 $196 $197 reversed $77 $-1 #
face $-1 $198 $199 $41 $-1 $200 forward single #
loop $-1 $-1 $201 $79 #
plane-surface $-1 22.838195359027129 70.004352186017471 114.11345489184315 -1 0 0 0 0.70710678939079041 0.70710677298230451 forward_v I I I I #
coedge $-1 $202 $203 $204 $205 reversed $80 $-1 #
face $-1 $-1 $206 $42 $-1 $207 forward single #
loop $-1 $208 $209 $82 #
cone-surface $-1 11.028761535057868 17.44527945984149 4.7676142155331238 0 -0.70710678939079041 -0.70710677298230451 0.75 0 0 1 I I -0.70710678118654757 0.70710678118654757 0.75 forward I I I I #
loop $-1 $-1 $210 $53 #
coedge $-1 $132 $132 $211 $212 reversed $83 $-1 #
face $-1 $-1 $213 $43 $-1 $214 forward single #
loop $-1 $215 $216 $85 #
cone-surface $-1 18.114421829439422 17.44527945984149 4.7676142155331238 0 -0.70710678939079041 -0.70710677298230451 0.75 0 0 1 I I -0.70710678118654757 0.70710678118654757 0.75 forward I I I I #
loop $-1 $-1 $217 $54 #
coedge $-1 $137 $137 $218 $219 reversed $86 $-1 #
face $-1 $220 $221 $33 $-1 $222 reversed single #
loop $-1 $-1 $223 $88 #
plane-surface $-1 0 -22.533104914269 0 0 1 0 0 0 1 forward_v I I I I #
coedge $-1 $224 $225 $226 $227 forward $89 $-1 #
coedge $-1 $228 $91 $229 $230 forward $56 $-1 #
coedge $-1 $91 $228 $231 $232 forward $56 $-1 #
coedge $-1 $233 $234 $91 $145 reversed $235 $-1 #
edge $-1 $236 -22.533104914269 $237 22.533104914269 $144 $238 forward 7 unknown #
face $-1 $239 $240 $34 $-1 $241 reversed single #
loop $-1 $-1 $152 $92 #
plane-surface $-1 -62.405332864627212 0 4.1469423684869131 0 0 1 1 0 0 forward_v I I I I #
coedge $-1 $242 $243 $150 $244 forward $93 $-1 #
coedge $-1 $245 $95 $149 $244 reversed $59 $-1 #
coedge $-1 $95 $245 $246 $247 reversed $59 $-1 #
coedge $-1 $248 $249 $95 $153 reversed $147 $-1 #
edge $-1 $250 -22.533104914269 $251 22.533104914269 $152 $252 forward 7 unknown #
face $-1 $253 $254 $35 $-1 $255 reversed single #
loop $-1 $-1 $256 $96 #
plane-surface $-1 -23.71703436565922 -119.70175340034073 58.758664746207806 1 0 0 0 0.86602541151947299 -0.49999998660252726 forward_v I I I I #
coedge $-1 $257 $258 $259 $260 reversed $97 $-1 #
coedge $-1 $159 $99 $261 $262 reversed $62 $-1 #
coedge $-1 $99 $158 $257 $263 reversed $62 $-1 #
coedge $-1 $259 $264 $99 $161 forward $265 $-1 #
edge $-1 $266 37.317771785901371 $267 41.473029838526152 $160 $268 forward 7 unknown #
loop $-1 $-1 $167 $100 #
plane-surface $-1 -16.681675481594652 -22.533104914269018 2.6583213902564111 0 -0.86602541151947299 0.49999998660252726 1 0 0 forward_v I I I I #
loop $-1 $-1 $269 $64 #
coedge $-1 $165 $165 $166 $270 reversed $101 $-1 #
coedge $-1 $166 $166 $165 $270 forward $103 $-1 #
coedge $-1 $167 $167 $104 $168 forward $162 $-1 #
edge $-1 $271 2.1037403167782547e-016 $271 6.2831853071796004 $167 $272 forward 7 unknown #
loop $-1 $-1 $174 $105 #
plane-surface $-1 -16.681675481594652 -22.533104914269018 2.6583213902564111 0 -0.86602541151947299 0.49999998660252726 1 0 0 forward_v I I I I #
loop $-1 $-1 $273 $67 #
coedge $-1 $172 $172 $173 $274 reversed $106 $-1 #
coedge $-1 $173 $173 $172 $274 forward $108 $-1 #
coedge $-1 $174 $174 $109 $175 forward $169 $-1 #
edge $-1 $275 2.1037403167782547e-016 $275 6.2831853071796004 $174 $276 forward 7 unknown #
face $-1 $277 $278 $38 $-1 $279 forward single #
loop $-1 $-1 $280 $110 #
plane-surface $-1 6.3049880054701397 70.004352186017471 114.11345489184315 -1 0 0 0 0.70710678939079041 0.70710677298230451 forward_v I I I I #
coedge $-1 $281 $282 $283 $284 reversed $111 $-1 #
coedge $-1 $181 $113 $285 $286 reversed $71 $-1 #
coedge $-1 $113 $180 $281 $287 reversed $71 $-1 #
coedge $-1 $283 $288 $113 $183 forward $278 $-1 #
edge $-1 $289 12.469071178739735 $290 19.415546413768851 $182 $291 forward 7 unknown #
loop $-1 $-1 $189 $114 #
plane-surface $-1 -1.9616156713083512 -9.3335172881319153 34.77558725873719 0 0.70710678939079041 0.70710677298230451 1 0 0 forward_v I I I I #
loop $-1 $-1 $292 $73 #
coedge $-1 $187 $187 $188 $293 reversed $115 $-1 #
coedge $-1 $188 $188 $187 $293 forward $117 $-1 #
coedge $-1 $189 $189 $118 $190 forward $184 $-1 #
edge $-1 $294 4.1869128831045944e-016 $294 6.2831853071796004 $189 $295 forward 7 unknown #
loop $-1 $-1 $196 $119 #
plane-surface $-1 -1.9616156713083512 -9.3335172881319153 34.77558725873719 0 0.70710678939079041 0.70710677298230451 1 0 0 forward_v I I I I #
loop $-1 $-1 $296 $76 #
coedge $-1 $194 $194 $195 $297 reversed $120 $-1 #
coedge $-1 $195 $195 $194 $297 forward $122 $-1 #
coedge $-1 $196 $196 $123 $197 forward $191 $-1 #
edge $-1 $298 4.1869128831045944e-016 $298 6.2831853071796004 $196 $299 forward 7 unknown #
face $-1 $300 $301 $41 $-1 $302 forward single #
loop $-1 $-1 $303 $124 #
plane-surface $-1 0 0 9.8554397130907976 0 0 1 1 0 0 forward_v I I I I #
coedge $-1 $304 $305 $306 $307 reversed $125 $-1 #
coedge $-1 $308 $127 $309 $310 reversed $80 $-1 #
coedge $-1 $127 $308 $303 $311 reversed $80 $-1 #
coedge $-1 $312 $313 $127 $205 forward $301 $-1 #
edge $-1 $314 -45.066209828538007 $315 -35.242410226489859 $204 $316 forward 7 unknown #
loop $-1 $-1 $211 $128 #
plane-surface $-1 -1.9616156713083512 -9.3335172881319153 34.77558725873719 0 0.70710678939079041 0.70710677298230451 1 0 0 forward_v I I I I #
loop $-1 $-1 $317 $82 #
coedge $-1 $209 $209 $210 $318 reversed $129 $-1 #
coedge $-1 $210 $210 $209 $318 forward $131 $-1 #
coedge $-1 $211 $211 $132 $212 forward $206 $-1 #
edge $-1 $319 4.1869128831045944e-016 $319 6.2831853071796004 $211 $320 forward 7 unknown #
loop $-1 $-1 $218 $133 #
plane-surface $-1 -1.9616156713083512 -9.3335172881319153 34.77558725873719 0 0.70710678939079041 0.70710677298230451 1 0 0 forward_v I I I I #
loop $-1 $-1 $321 $85 #
coedge $-1 $216 $216 $217 $322 reversed $134 $-1 #
coedge $-1 $217 $217 $216 $322 forward $136 $-1 #
coedge $-1 $218 $218 $137 $219 forward $213 $-1 #
edge $-1 $323 4.1869128831045944e-016 $323 6.2831853071796004 $218 $324 forward 7 unknown #
face $-1 $325 $326 $33 $-1 $327 reversed single #
loop $-1 $-1 $328 $138 #
plane-surface $-1 -56.100344859157076 0 0 1 0 0 0 0 -1 forward_v I I I I #
coedge $-1 $329 $231 $330 $331 forward $139 $-1 #
coedge $-1 $332 $141 $329 $333 forward $89 $-1 #
coedge $-1 $141 $332 $334 $335 forward $89 $-1 #
coedge $-1 $234 $233 $141 $227 reversed $235 $-1 #
edge $-1 $336 -22.533104914269 $337 22.533104914269 $226 $338 forward 7 unknown #
coedge $-1 $143 $142 $339 $340 forward $56 $-1 #
coedge $-1 $341 $342 $142 $230 reversed $326 $-1 #
edge $-1 $237 -56.100344859157076 $343 56.100344859157076 $229 $344 forward 7 unknown #
coedge $-1 $223 $345 $143 $232 reversed $139 $-1 #
edge $-1 $346 -56.100344859157076 $236 56.100344859157076 $231 $347 forward 7 unknown #
coedge $-1 $226 $144 $345 $348 forward $235 $-1 #
coedge $-1 $144 $226 $341 $349 reversed $235 $-1 #
loop $-1 $-1 $233 $325 #
vertex $-1 $145 $350 #
vertex $-1 $145 $351 #
straight-curve $-1 56.100344859157076 0 9.8554397130907976 0 1 0 I I #
face $-1 $352 $353 $34 $-1 $354 forward single #
loop $-1 $-1 $355 $146 #
plane-surface $-1 -68.710320870097348 0 7.0011910407888553 1 0 0 0 0 -1 forward_v I I I I #
coedge $-1 $356 $149 $249 $357 reversed $93 $-1 #
coedge $-1 $149 $356 $358 $359 reversed $93 $-1 #
edge $-1 $360 -9.8554397130907976 $251 -4.1469423684869131 $149 $361 forward 7 unknown #
coedge $-1 $151 $150 $362 $363 reversed $59 $-1 #
coedge $-1 $364 $365 $151 $247 forward $366 $-1 #
edge $-1 $250 4.1469423684869131 $367 9.8554397130907976 $246 $368 forward 7 unknown #
coedge $-1 $369 $152 $365 $370 forward $147 $-1 #
coedge $-1 $152 $369 $242 $357 forward $147 $-1 #
vertex $-1 $247 $371 #
vertex $-1 $244 $372 #
straight-curve $-1 -56.100344859157076 0 4.1469423684869131 0 1 0 I I #
face $-1 $-1 $265 $35 $-1 $373 forward single #
loop $-1 $-1 $374 $154 #
plane-surface $-1 0 -22.533104914269 0 0 1 0 0 0 1 forward_v I I I I #
coedge $-1 $375 $376 $377 $378 reversed $155 $-1 #
coedge $-1 $379 $157 $159 $263 forward $97 $-1 #
coedge $-1 $157 $379 $375 $380 forward $97 $-1 #
coedge $-1 $377 $160 $157 $260 forward $265 $-1 #
edge $-1 $267 1.3054788567327584 $381 15.376196624861894 $259 $382 forward 7 unknown #
coedge $-1 $383 $384 $158 $262 forward $254 $-1 #
edge $-1 $385 -26.72101098284746 $266 -19.523892660013104 $261 $386 forward 7 unknown #
edge $-1 $267 -8.3105163279294345 $385 -3.5418669268125638e-014 $159 $387 forward 7 unknown #
coedge $-1 $160 $377 $383 $388 forward $265 $-1 #
loop $-1 $-1 $377 $253 #
vertex $-1 $262 $389 #
vertex $-1 $161 $390 #
straight-curve $-1 -9.6463165975300846 -59.850876700170367 9.8554397130907958 0 1 0 I I #
coedge $-1 $269 $269 $-1 $391 reversed $164 $-1 #
edge $-1 $392 0 $392 6.2831853071796004 $165 $393 forward 7 unknown #
vertex $-1 $168 $394 #
ellipse-curve $-1 -19.696829289050889 -20.455475887956613 6.2568805516736115 0 -0.86602541151947299 0.49999998660252726 2 0 0 1 I I #
coedge $-1 $273 $273 $-1 $395 reversed $171 $-1 #
edge $-1 $396 0 $396 6.2831853071796004 $172 $397 forward 7 unknown #
vertex $-1 $175 $398 #
ellipse-curve $-1 -13.666521674138401 -20.455475887956613 6.2568805516736115 0 -0.86602541151947299 0.49999998660252726 2 0 0 1 I I #
face $-1 $-1 $399 $38 $-1 $400 reversed single #
loop $-1 $-1 $182 $176 #
plane-surface $-1 0 0 9.8554397130907976 0 0 1 1 0 0 forward_v I I I I #
coedge $-1 $401 $402 $403 $404 reversed $177 $-1 #
coedge $-1 $405 $179 $181 $287 forward $111 $-1 #
coedge $-1 $179 $405 $401 $406 forward $111 $-1 #
coedge $-1 $403 $182 $179 $284 forward $278 $-1 #
edge $-1 $290 -9.2474115124326666 $407 7.2857958411243153 $283 $408 forward 7 unknown #
coedge $-1 $409 $410 $180 $286 forward $399 $-1 #
edge $-1 $411 -54.147763129053573 $289 -47.201287732830778 $285 $412 forward 7 unknown #
edge $-1 $290 35.242410226489859 $411 45.066209828538007 $181 $413 forward 7 unknown #
coedge $-1 $182 $403 $409 $414 forward $278 $-1 #
vertex $-1 $286 $415 #
vertex $-1 $183 $416 #
straight-curve $-1 -10.228219348086842 35.002176093008735 9.8554397130907958 0 -1 0 I I #
coedge $-1 $292 $292 $-1 $417 reversed $186 $-1 #
edge $-1 $418 0 $418 6.2831853071796004 $187 $419 forward 7 unknown #
vertex $-1 $190 $420 #
ellipse-curve $-1 -5.5044458184991285 19.059867296754444 6.3822020149794012 0 0.70710678939079041 0.70710677298230451 1.5 0 0 1 I I #
coedge $-1 $296 $296 $-1 $421 reversed $193 $-1 #
edge $-1 $422 0 $422 6.2831853071796004 $194 $423 forward 7 unknown #
vertex $-1 $197 $424 #
ellipse-curve $-1 1.5812144758824331 19.059867296754444 6.3822020149794012 0 0.70710678939079041 0.70710677298230451 1.5 0 0 1 I I #
face $-1 $-1 $425 $41 $-1 $426 reversed single #
loop $-1 $-1 $312 $198 #
plane-surface $-1 6.3049880054701397 70.004352186017471 114.11345489184315 -1 0 0 0 0.70710678939079041 0.70710677298230451 forward_v I I I I #
coedge $-1 $306 $427 $203 $311 forward $199 $-1 #
coedge $-1 $305 $201 $308 $428 reversed $125 $-1 #
coedge $-1 $201 $304 $429 $430 reversed $125 $-1 #
coedge $-1 $431 $303 $201 $307 forward $199 $-1 #
edge $-1 $432 -19.415546413768851 $433 -12.469071178739735 $306 $434 forward 7 unknown #
coedge $-1 $203 $202 $304 $428 forward $80 $-1 #
coedge $-1 $435 $429 $202 $310 forward $425 $-1 #
edge $-1 $436 -23.819003194681304 $314 -7.2857958411243153 $309 $437 forward 7 unknown #
edge $-1 $315 7.2857958411243153 $432 23.819003194681304 $303 $438 forward 7 unknown #
coedge $-1 $313 $204 $427 $439 reversed $301 $-1 #
coedge $-1 $204 $312 $435 $440 reversed $301 $-1 #
vertex $-1 $310 $441 #
vertex $-1 $311 $442 #
straight-curve $-1 6.3049880054701397 -9.3335172881319153 34.77558725873719 0 -0.70710677298230451 0.70710678939079041 I I #
coedge $-1 $317 $317 $-1 $443 reversed $208 $-1 #
edge $-1 $444 0 $444 6.2831853071796004 $209 $445 forward 7 unknown #
vertex $-1 $212 $446 #
ellipse-curve $-1 11.028761535057868 19.059867296754444 6.3822020149794012 0 0.70710678939079041 0.70710677298230451 1.5 0 0 1 I I #
coedge $-1 $321 $321 $-1 $447 reversed $215 $-1 #
edge $-1 $448 0 $448 6.2831853071796004 $216 $449 forward 7 unknown #
vertex $-1 $219 $450 #
ellipse-curve $-1 18.114421829439422 19.059867296754444 6.3822020149794012 0 0.70710678939079041 0.70710677298230451 1.5 0 0 1 I I #
face $-1 $-1 $235 $33 $-1 $451 reversed single #
loop $-1 $-1 $341 $220 #
plane-surface $-1 0 22.533104914269 0 0 -1 0 0 0 -1 forward_v I I I I #
coedge $-1 $452 $339 $342 $453 forward $221 $-1 #
coedge $-1 $345 $223 $224 $333 reversed $139 $-1 #
coedge $-1 $339 $452 $223 $331 reversed $221 $-1 #
edge $-1 $346 -9.8554397130907976 $454 9.8554397130907976 $330 $455 forward 7 unknown #
coedge $-1 $225 $224 $452 $456 forward $89 $-1 #
edge $-1 $337 -56.100344859157076 $454 56.100344859157076 $329 $457 forward 7 unknown #
coedge $-1 $342 $341 $225 $335 reversed $326 $-1 #
edge $-1 $458 -56.100344859157076 $336 56.100344859157076 $334 $459 forward 7 unknown #
vertex $-1 $227 $460 #
vertex $-1 $348 $461 #
straight-curve $-1 56.100344859157076 0 -9.8554397130907976 0 -1 0 I I #
coedge $-1 $328 $330 $228 $340 reversed $221 $-1 #
edge $-1 $343 -22.533104914269 $346 22.533104914269 $339 $462 forward 7 unknown #
coedge $-1 $334 $229 $234 $349 forward $326 $-1 #
coedge $-1 $229 $334 $328 $453 reversed $326 $-1 #
vertex $-1 $230 $463 #
straight-curve $-1 0 22.533104914269 9.8554397130907976 -1 0 0 I I #
coedge $-1 $231 $329 $233 $348 reversed $139 $-1 #
vertex $-1 $340 $464 #
straight-curve $-1 0 -22.533104914269 9.8554397130907976 1 0 0 I I #
edge $-1 $236 -9.8554397130907976 $337 9.8554397130907976 $233 $465 forward 7 unknown #
edge $-1 $237 -9.8554397130907976 $336 9.8554397130907976 $234 $466 forward 7 unknown #
point $-1 56.100344859157076 -22.533104914269 9.8554397130907976 #
point $-1 56.100344859157076 22.533104914269 9.8554397130907976 #
face $-1 $-1 $366 $34 $-1 $467 reversed single #
loop $-1 $-1 $362 $239 #
plane-surface $-1 0 0 9.8554397130907976 0 0 1 1 0 0 forward_v I I I I #
coedge $-1 $468 $469 $356 $470 forward $240 $-1 #
coedge $-1 $243 $242 $355 $470 reversed $93 $-1 #
edge $-1 $471 -6.3049880054701362 $251 6.3049880054701362 $242 $472 forward 7 unknown #
coedge $-1 $473 $362 $243 $359 forward $353 $-1 #
edge $-1 $360 56.100344859157076 $474 68.710320870097348 $243 $475 forward 7 unknown #
vertex $-1 $359 $476 #
straight-curve $-1 -56.100344859157076 22.533104914269 0 0 0 -1 I I #
coedge $-1 $358 $477 $245 $363 forward $353 $-1 #
edge $-1 $367 -22.533104914269 $360 22.533104914269 $362 $478 forward 7 unknown #
coedge $-1 $479 $246 $477 $480 reversed $366 $-1 #
coedge $-1 $246 $479 $248 $370 reversed $366 $-1 #
loop $-1 $-1 $246 $352 #
vertex $-1 $247 $481 #
straight-curve $-1 -56.100344859157076 -22.533104914269 0 0 0 1 I I #
coedge $-1 $249 $248 $468 $482 forward $147 $-1 #
edge $-1 $250 -6.3049880054701362 $483 6.3049880054701362 $365 $484 forward 7 unknown #
point $-1 -56.100344859157076 -22.533104914269 4.1469423684869131 #
point $-1 -56.100344859157076 22.533104914269 4.1469423684869131 #
plane-surface $-1 0 0 9.8554397130907976 0 0 1 1 0 0 forward_v I I I I #
coedge $-1 $384 $383 $376 $485 forward $254 $-1 #
coedge $-1 $376 $256 $258 $380 reversed $155 $-1 #
coedge $-1 $256 $375 $374 $485 reversed $155 $-1 #
coedge $-1 $264 $259 $256 $378 forward $265 $-1 #
edge $-1 $381 -41.473029838526152 $486 -37.317771785901371 $377 $487 forward 7 unknown #
coedge $-1 $258 $257 $384 $488 reversed $97 $-1 #
edge $-1 $489 3.5418669268125638e-014 $381 8.3105163279294345 $375 $490 forward 7 unknown #
vertex $-1 $260 $491 #
straight-curve $-1 -8.3408377407973262 -18.377846861644219 9.8554397130907976 -1 0 0 I I #
coedge $-1 $374 $261 $264 $388 reversed $254 $-1 #
coedge $-1 $261 $374 $379 $488 forward $254 $-1 #
vertex $-1 $262 $492 #
straight-curve $-1 -9.6463165975300846 -22.533104914269003 29.379332373103903 0 0 1 I I #
straight-curve $-1 -9.6463165975300846 -22.533104914269018 2.6583213902564111 0 -0.49999998660252726 -0.86602541151947299 I I #
edge $-1 $486 -23.71703436565922 $266 -9.6463165975300846 $383 $493 forward 7 unknown #
point $-1 -9.6463165975300846 -22.533104914269 9.8554397130907976 #
point $-1 -9.6463165975300846 -18.377846861644215 9.8554397130907976 #
edge $-1 $494 1 $494 0 $269 $-1 forward 7 unknown #
vertex $-1 $270 $495 #
ellipse-curve $-1 -19.696829289050889 -17.94052138926746 4.8048709467311275 0 -0.86602541151947299 0.49999998660252726 2 0 0 1 I I #
point $-1 -17.696829289050889 -20.455475887956595 6.2568805516736017 #
edge $-1 $496 1 $496 0 $273 $-1 forward 7 unknown #
vertex $-1 $274 $497 #
ellipse-curve $-1 -13.666521674138401 -17.94052138926746 4.8048709467311275 0 -0.86602541151947299 0.49999998660252726 2 0 0 1 I I #
point $-1 -11.666521674138401 -20.455475887956595 6.2568805516736017 #
loop $-1 $-1 $285 $277 #
plane-surface $-1 0 22.533104914269 0 0 -1 0 0 0 -1 forward_v I I I I #
coedge $-1 $402 $280 $282 $406 reversed $177 $-1 #
coedge $-1 $280 $401 $498 $499 reversed $177 $-1 #
coedge $-1 $288 $283 $280 $404 forward $278 $-1 #
edge $-1 $407 -19.415546413768851 $500 -12.469071178739735 $403 $501 forward 7 unknown #
coedge $-1 $282 $281 $410 $502 reversed $111 $-1 #
edge $-1 $503 -45.066209828538007 $407 -35.242410226489859 $401 $504 forward 7 unknown #
vertex $-1 $284 $505 #
straight-curve $-1 -0.98080783565417562 15.58662967923989 9.8554397130907923 1 0 0 I I #
coedge $-1 $498 $285 $288 $414 reversed $399 $-1 #
coedge $-1 $285 $498 $405 $502 forward $399 $-1 #
vertex $-1 $286 $506 #
straight-curve $-1 -10.228219348086842 22.533104914269 57.056727445921574 0 0 1 I I #
straight-curve $-1 -10.228219348086842 -9.3335172881319153 34.77558725873719 0 0.70710677298230451 -0.70710678939079041 I I #
edge $-1 $500 -6.3049880054701397 $289 10.228219348086842 $409 $507 forward 7 unknown #
point $-1 -10.228219348086842 22.533104914269 9.8554397130907976 #
point $-1 -10.228219348086842 15.586629679239884 9.8554397130907994 #
edge $-1 $508 1 $508 0 $292 $-1 forward 7 unknown #
vertex $-1 $293 $509 #
ellipse-curve $-1 -5.5044458184991285 17.975609551884585 5.2979442952698523 0 0.70710678939079041 0.70710677298230451 1.5 0 0 1 I I #
point $-1 -4.0044458184991285 19.059867296754447 6.3822020149794039 #
edge $-1 $510 1 $510 0 $296 $-1 forward 7 unknown #
vertex $-1 $297 $511 #
ellipse-curve $-1 1.5812144758824331 17.975609551884585 5.2979442952698523 0 0.70710678939079041 0.70710677298230451 1.5 0 0 1 I I #
point $-1 3.0812144758824331 19.059867296754447 6.3822020149794039 #
loop $-1 $-1 $309 $300 #
plane-surface $-1 0 22.533104914269 0 0 -1 0 0 0 -1 forward_v I I I I #
coedge $-1 $303 $431 $312 $439 forward $199 $-1 #
edge $-1 $436 -45.066209828538007 $432 -35.242410226489859 $304 $512 forward 7 unknown #
coedge $-1 $309 $513 $305 $430 forward $425 $-1 #
edge $-1 $433 47.201287732830778 $436 54.147763129053573 $429 $514 forward 7 unknown #
coedge $-1 $427 $306 $513 $515 forward $199 $-1 #
vertex $-1 $307 $516 #
vertex $-1 $515 $517 #
straight-curve $-1 22.838195359027129 35.002176093008735 9.8554397130907958 0 1 0 I I #
coedge $-1 $513 $309 $313 $440 forward $425 $-1 #
vertex $-1 $430 $518 #
straight-curve $-1 -0.98080783565417562 22.533104914269 2.9089643168680048 -1 0 0 I I #
straight-curve $-1 -0.98080783565417562 15.58662967923989 9.8554397130907923 1 0 0 I I #
edge $-1 $519 12.469071178739735 $315 19.415546413768851 $427 $520 forward 7 unknown #
edge $-1 $314 -54.147763129053573 $519 -47.201287732830778 $435 $521 forward 7 unknown #
point $-1 6.3049880054701397 22.533104914269 2.9089643168680048 #
point $-1 6.3049880054701397 15.586629679239884 9.8554397130907994 #
edge $-1 $522 1 $522 0 $317 $-1 forward 7 unknown #
vertex $-1 $318 $523 #
ellipse-curve $-1 11.028761535057868 17.975609551884585 5.2979442952698523 0 0.70710678939079041 0.70710677298230451 1.5 0 0 1 I I #
point $-1 12.528761535057868 19.059867296754447 6.3822020149794039 #
edge $-1 $524 1 $524 0 $321 $-1 forward 7 unknown #
vertex $-1 $322 $525 #
ellipse-curve $-1 18.114421829439422 17.975609551884585 5.2979442952698523 0 0.70710678939079041 0.70710677298230451 1.5 0 0 1 I I #
point $-1 19.614421829439422 19.059867296754447 6.3822020149794039 #
plane-surface $-1 56.100344859157076 0 0 -1 0 0 0 0 1 forward_v I I I I #
coedge $-1 $330 $328 $332 $456 reversed $221 $-1 #
edge $-1 $343 -9.8554397130907976 $458 9.8554397130907976 $342 $526 forward 7 unknown #
vertex $-1 $456 $527 #
straight-curve $-1 -56.100344859157076 -22.533104914269 0 0 0 -1 I I #
edge $-1 $454 -22.533104914269 $458 22.533104914269 $452 $528 forward 7 unknown #
straight-curve $-1 0 -22.533104914269 -9.8554397130907976 -1 0 0 I I #
vertex $-1 $335 $529 #
straight-curve $-1 0 22.533104914269 -9.8554397130907976 1 0 0 I I #
point $-1 56.100344859157076 22.533104914269 -9.8554397130907976 #
point $-1 56.100344859157076 -22.533104914269 -9.8554397130907976 #
straight-curve $-1 -56.100344859157076 0 9.8554397130907976 0 -1 0 I I #
point $-1 -56.100344859157076 22.533104914269 9.8554397130907976 #
point $-1 -56.100344859157076 -22.533104914269 9.8554397130907976 #
straight-curve $-1 56.100344859157076 -22.533104914269 0 0 0 -1 I I #
straight-curve $-1 56.100344859157076 22.533104914269 0 0 0 -1 I I #
plane-surface $-1 0 -22.533104914269 0 0 1 0 0 0 1 forward_v I I I I #
coedge $-1 $530 $355 $369 $482 reversed $240 $-1 #
coedge $-1 $355 $530 $473 $531 reversed $240 $-1 #
edge $-1 $474 -2.8542486723019422 $471 2.8542486723019422 $356 $532 forward 7 unknown #
vertex $-1 $357 $533 #
straight-curve $-1 -62.405332864627212 22.533104914269 4.1469423684869131 1 0 0 I I #
coedge $-1 $477 $358 $469 $531 forward $353 $-1 #
vertex $-1 $359 $534 #
straight-curve $-1 0 22.533104914269 9.8554397130907976 -1 0 0 I I #
point $-1 -56.100344859157076 22.533104914269 9.8554397130907976 #
coedge $-1 $362 $473 $364 $480 forward $353 $-1 #
straight-curve $-1 -56.100344859157076 0 9.8554397130907976 0 1 0 I I #
coedge $-1 $365 $364 $530 $535 forward $366 $-1 #
edge $-1 $536 -68.710320870097348 $367 -56.100344859157076 $364 $537 forward 7 unknown #
point $-1 -56.100344859157076 -22.533104914269 9.8554397130907976 #
edge $-1 $483 -22.533104914269 $471 22.533104914269 $468 $538 forward 7 unknown #
vertex $-1 $482 $539 #
straight-curve $-1 -62.405332864627212 -22.533104914269 4.1469423684869131 -1 0 0 I I #
edge $-1 $486 19.523892660013104 $489 26.72101098284746 $374 $540 forward 7 unknown #
vertex $-1 $388 $541 #
straight-curve $-1 -23.71703436565922 -59.850876700170367 9.8554397130907958 0 -1 0 I I #
edge $-1 $489 -15.376196624861894 $385 -1.3054788567327584 $384 $542 forward 7 unknown #
vertex $-1 $488 $543 #
straight-curve $-1 -23.71703436565922 -22.533104914269018 2.6583213902564111 0 0.49999998660252726 0.86602541151947299 I I #
point $-1 -23.71703436565922 -18.377846861644215 9.8554397130907976 #
point $-1 -9.6463165975300846 -22.533104914269 2.6583213902564418 #
straight-curve $-1 0 -22.533104914269 9.8554397130907976 1 0 0 I I #
vertex $-1 $391 $544 #
point $-1 -17.696829289050889 -17.94052138926746 4.8048709467311275 #
vertex $-1 $395 $545 #
point $-1 -11.666521674138401 -17.94052138926746 4.8048709467311275 #
coedge $-1 $410 $409 $402 $499 forward $399 $-1 #
edge $-1 $500 47.201287732830778 $503 54.147763129053573 $498 $546 forward 7 unknown #
vertex $-1 $414 $547 #
straight-curve $-1 6.3049880054701397 35.002176093008735 9.8554397130907958 0 1 0 I I #
edge $-1 $503 -7.2857958411243153 $411 9.2474115124326666 $410 $548 forward 7 unknown #
vertex $-1 $502 $549 #
straight-curve $-1 6.3049880054701397 -9.3335172881319153 34.77558725873719 0 -0.70710677298230451 0.70710678939079041 I I #
point $-1 6.3049880054701397 15.586629679239884 9.8554397130907994 #
point $-1 -10.228219348086842 22.533104914269 2.9089643168680048 #
straight-curve $-1 0 22.533104914269 9.8554397130907976 -1 0 0 I I #
vertex $-1 $417 $550 #
point $-1 -4.0044458184991285 17.975609551884585 5.2979442952698523 #
vertex $-1 $421 $551 #
point $-1 3.0812144758824331 17.975609551884585 5.2979442952698523 #
straight-curve $-1 22.838195359027129 -9.3335172881319153 34.77558725873719 0 -0.70710677298230451 0.70710678939079041 I I #
coedge $-1 $429 $435 $431 $515 reversed $425 $-1 #
straight-curve $-1 22.838195359027129 22.533104914269 57.056727445921574 0 0 -1 I I #
edge $-1 $433 -22.838195359027129 $519 -6.3049880054701397 $513 $552 forward 7 unknown #
point $-1 22.838195359027129 15.586629679239884 9.8554397130907994 #
point $-1 22.838195359027129 22.533104914269 9.8554397130907976 #
point $-1 22.838195359027129 22.533104914269 2.9089643168680048 #
vertex $-1 $440 $553 #
straight-curve $-1 6.3049880054701397 35.002176093008735 9.8554397130907958 0 -1 0 I I #
straight-curve $-1 6.3049880054701397 22.533104914269 57.056727445921574 0 0 1 I I #
vertex $-1 $443 $554 #
point $-1 12.528761535057868 17.975609551884585 5.2979442952698523 #
vertex $-1 $447 $555 #
point $-1 19.614421829439422 17.975609551884585 5.2979442952698523 #
straight-curve $-1 -56.100344859157076 22.533104914269 0 0 0 -1 I I #
point $-1 -56.100344859157076 -22.533104914269 -9.8554397130907976 #
straight-curve $-1 -56.100344859157076 0 -9.8554397130907976 0 1 0 I I #
point $-1 -56.100344859157076 22.533104914269 -9.8554397130907976 #
coedge $-1 $469 $468 $479 $535 reversed $240 $-1 #
edge $-1 $474 -22.533104914269 $536 22.533104914269 $469 $556 forward 7 unknown #
straight-curve $-1 -68.710320870097348 22.533104914269 7.0011910407888553 0 0 -1 I I #
point $-1 -68.710320870097348 22.533104914269 4.1469423684869131 #
point $-1 -68.710320870097348 22.533104914269 9.8554397130907976 #
edge $-1 $536 -2.8542486723019422 $483 2.8542486723019422 $530 $557 forward 7 unknown #
vertex $-1 $531 $558 #
straight-curve $-1 0 -22.533104914269 9.8554397130907976 1 0 0 I I #
straight-curve $-1 -68.710320870097348 0 4.1469423684869131 0 1 0 I I #
point $-1 -68.710320870097348 -22.533104914269 4.1469423684869131 #
straight-curve $-1 -23.71703436565922 -22.533104914269003 29.379332373103903 0 0 -1 I I #
point $-1 -23.71703436565922 -22.533104914269 9.8554397130907976 #
straight-curve $-1 -8.3408377407973262 -22.533104914269 2.6583213902564422 1 0 0 I I #
point $-1 -23.71703436565922 -22.533104914269 2.6583213902564418 #
point $-1 -19.696829289050889 -16.208470566228513 3.8048709735260724 #
point $-1 -13.666521674138401 -16.208470566228513 3.8048709735260724 #
straight-curve $-1 6.3049880054701397 22.533104914269 57.056727445921574 0 0 -1 I I #
point $-1 6.3049880054701397 22.533104914269 9.8554397130907976 #
straight-curve $-1 -0.98080783565417562 22.533104914269 2.9089643168680048 -1 0 0 I I #
point $-1 6.3049880054701397 22.533104914269 2.9089643168680048 #
point $-1 -5.5044458184991285 16.914949367798396 4.2372841357963953 #
point $-1 1.5812144758824331 16.914949367798396 4.2372841357963953 #
straight-curve $-1 0 22.533104914269 9.8554397130907976 -1 0 0 I I #
point $-1 6.3049880054701397 22.533104914269 9.8554397130907976 #
point $-1 11.028761535057868 16.914949367798396 4.2372841357963953 #
point $-1 18.114421829439422 16.914949367798396 4.2372841357963953 #
straight-curve $-1 -68.710320870097348 0 9.8554397130907976 0 -1 0 I I #
straight-curve $-1 -68.710320870097348 -22.533104914269 7.0011910407888553 0 0 -1 I I #
point $-1 -68.710320870097348 -22.533104914269 9.8554397130907976 #
End-of-ACIS-data 