500 0 15 0           
7 Unknown 11 ACIS 5.0 NT 24 Thu Mar 25 20:33:54 1999 
-1 9.9999999999999995e-007 1e-010 
body $-1 $15 $-1 $16 #
body $-1 $17 $-1 $18 #
body $-1 $19 $-1 $20 #
body $-1 $21 $-1 $22 #
body $-1 $23 $-1 $24 #
body $-1 $25 $-1 $26 #
body $-1 $27 $-1 $28 #
body $-1 $29 $-1 $30 #
body $-1 $31 $-1 $32 #
body $-1 $33 $-1 $34 #
body $-1 $35 $-1 $36 #
body $-1 $37 $-1 $38 #
body $-1 $39 $-1 $40 #
body $-1 $41 $-1 $42 #
body $-1 $43 $-1 $44 #
lump $-1 $-1 $45 $0 #
transform $-1 1 0 0 0 1 0 0 0 1 68.860744041261029 45.598098083732573 19.709728147494317 1 rotate no_reflect no_shear #
lump $-1 $-1 $46 $1 #
transform $-1 1 0 0 0 1 0 0 0 1 68.860744041261029 45.598098083732573 19.709728147494317 1 rotate no_reflect no_shear #
lump $-1 $-1 $47 $2 #
transform $-1 1 0 0 0 1 0 0 0 1 68.860744041261029 45.598098083732573 19.709728147494317 1 rotate no_reflect no_shear #
lump $-1 $-1 $48 $3 #
transform $-1 1 0 0 0 1 0 0 0 1 68.860744041261029 45.598098083732573 19.709728147494317 1 rotate no_reflect no_shear #
lump $-1 $-1 $49 $4 #
transform $-1 1 0 0 0 1 0 0 0 1 68.860744041261029 45.598098083732573 19.709728147494317 1 rotate no_reflect no_shear #
lump $-1 $-1 $50 $5 #
transform $-1 1 0 0 0 1 0 0 0 1 68.860744041261029 45.598098083732573 19.709728147494317 1 rotate no_reflect no_shear #
lump $-1 $-1 $51 $6 #
transform $-1 1 0 0 0 1 0 0 0 1 68.860744041261029 45.598098083732573 19.709728147494317 1 rotate no_reflect no_shear #
lump $-1 $-1 $52 $7 #
transform $-1 1 0 0 0 1 0 0 0 1 68.860744041261029 45.598098083732573 19.709728147494317 1 rotate no_reflect no_shear #
lump $-1 $-1 $53 $8 #
transform $-1 1 0 0 0 1 0 0 0 1 68.860744041261029 45.598098083732573 19.709728147494317 1 rotate no_reflect no_shear #
lump $-1 $-1 $54 $9 #
transform $-1 1 0 0 0 1 0 0 0 1 68.860744041261029 45.598098083732573 19.709728147494317 1 rotate no_reflect no_shear #
lump $-1 $-1 $55 $10 #
transform $-1 1 0 0 0 1 0 0 0 1 68.860744041261029 45.598098083732573 19.709728147494317 1 rotate no_reflect no_shear #
lump $-1 $-1 $56 $11 #
transform $-1 1 0 0 0 1 0 0 0 1 68.860744041261029 45.598098083732573 19.709728147494317 1 rotate no_reflect no_shear #
lump $-1 $-1 $57 $12 #
transform $-1 1 0 0 0 1 0 0 0 1 68.860744041261029 45.598098083732573 19.709728147494317 1 rotate no_reflect no_shear #
lump $-1 $-1 $58 $13 #
transform $-1 1 0 0 0 1 0 0 0 1 68.860744041261029 45.598098083732573 19.709728147494317 1 rotate no_reflect no_shear #
lump $-1 $-1 $59 $14 #
transform $-1 1 0 0 0 1 0 0 0 1 68.860744041261029 45.598098083732573 19.709728147494317 1 rotate no_reflect no_shear #
shell $-1 $-1 $-1 $60 $-1 $15 #
shell $-1 $-1 $-1 $61 $-1 $17 #
shell $-1 $-1 $-1 $62 $-1 $19 #
shell $-1 $-1 $-1 $63 $-1 $21 #
shell $-1 $-1 $-1 $64 $-1 $23 #
shell $-1 $-1 $-1 $65 $-1 $25 #
shell $-1 $-1 $-1 $66 $-1 $27 #
shell $-1 $-1 $-1 $67 $-1 $29 #
shell $-1 $-1 $-1 $68 $-1 $31 #
shell $-1 $-1 $-1 $69 $-1 $33 #
shell $-1 $-1 $-1 $70 $-1 $35 #
shell $-1 $-1 $-1 $71 $-1 $37 #
shell $-1 $-1 $-1 $72 $-1 $39 #
shell $-1 $-1 $-1 $73 $-1 $41 #
shell $-1 $-1 $-1 $74 $-1 $43 #
face $-1 $75 $76 $45 $-1 $77 forward single #
face $-1 $78 $79 $46 $-1 $80 reversed single #
face $-1 $81 $82 $47 $-1 $83 reversed single #
face $-1 $84 $85 $48 $-1 $86 reversed single #
face $-1 $87 $88 $49 $-1 $89 forward single #
face $-1 $90 $91 $50 $-1 $92 forward single #
face $-1 $93 $94 $51 $-1 $95 reversed single #
face $-1 $96 $97 $52 $-1 $98 forward single #
face $-1 $99 $100 $53 $-1 $101 forward single #
face $-1 $102 $103 $54 $-1 $104 reversed single #
face $-1 $105 $106 $55 $-1 $107 forward single #
face $-1 $108 $109 $56 $-1 $110 forward single #
face $-1 $111 $112 $57 $-1 $113 reversed single #
face $-1 $114 $115 $58 $-1 $116 forward single #
face $-1 $117 $118 $59 $-1 $119 forward single #
face $-1 $120 $121 $45 $-1 $122 reversed single #
loop $-1 $-1 $123 $60 #
plane-surface $-1 0 0 19.709728147494317 0 0 1 1 0 0 forward_v I I I I #
face $-1 $124 $125 $46 $-1 $126 reversed single #
loop $-1 $-1 $127 $61 #
plane-surface $-1 -62.114960708936813 0 11.225648688613479 0 0 1 1 0 0 forward_v I I I I #
face $-1 $128 $129 $47 $-1 $130 reversed single #
loop $-1 $-1 $131 $62 #
plane-surface $-1 62.11496070893682 0 11.225648688613479 0 0 1 1 0 0 forward_v I I I I #
face $-1 $132 $133 $48 $-1 $134 reversed single #
loop $-1 $-1 $135 $63 #
plane-surface $-1 -42.35935549666393 -141.26748369623022 103.94627576377501 -1 0 0 0 -0.69465837861970381 0.71933979245794832 forward_v I I I I #
face $-1 $136 $137 $49 $-1 $138 forward single #
loop $-1 $139 $140 $64 #
cone-surface $-1 -51.652085410912981 -35.837969803525858 10.139166876698143 0 0.69465837861970381 -0.71933979245794832 1.5 0 0 1 I I 0 1 1.5 forward I I I I #
face $-1 $141 $142 $50 $-1 $143 forward single #
loop $-1 $144 $145 $65 #
cone-surface $-1 -46.076447462363554 -35.837969803525858 10.139166876698143 0 0.69465837861970381 -0.71933979245794832 1.5 0 0 1 I I 0 1 1.5 forward I I I I #
face $-1 $146 $147 $51 $-1 $148 reversed single #
loop $-1 $-1 $149 $66 #
plane-surface $-1 -14.674766808357635 -141.26748369623022 103.94627576377501 -1 0 0 0 -0.69465837861970381 0.71933979245794832 forward_v I I I I #
face $-1 $150 $151 $52 $-1 $152 forward single #
loop $-1 $153 $154 $67 #
cone-surface $-1 -23.967496722606683 -35.837969803525858 10.139166876698143 0 0.69465837861970381 -0.71933979245794832 1.5 0 0 1 I I 0 1 1.5 forward I I I I #
face $-1 $155 $156 $53 $-1 $157 forward single #
loop $-1 $158 $159 $68 #
cone-surface $-1 -18.391858774057255 -35.837969803525858 10.139166876698143 0 0.69465837861970381 -0.71933979245794832 1.5 0 0 1 I I 0 1 1.5 forward I I I I #
face $-1 $160 $161 $54 $-1 $162 reversed single #
loop $-1 $-1 $163 $69 #
plane-surface $-1 13.009821879948671 -141.26748369623022 103.94627576377501 -1 0 0 0 -0.69465837861970381 0.71933979245794832 forward_v I I I I #
face $-1 $164 $165 $55 $-1 $166 forward single #
loop $-1 $167 $168 $70 #
cone-surface $-1 3.7170919656996091 -35.837969803525858 10.139166876698143 0 0.69465837861970381 -0.71933979245794832 1.5 0 0 1 I I 0 1 1.5 forward I I I I #
face $-1 $169 $170 $56 $-1 $171 forward single #
loop $-1 $172 $173 $71 #
cone-surface $-1 9.2927299142490369 -35.837969803525858 10.139166876698143 0 0.69465837861970381 -0.71933979245794832 1.5 0 0 1 I I 0 1 1.5 forward I I I I #
face $-1 $174 $175 $57 $-1 $176 reversed single #
loop $-1 $-1 $177 $72 #
plane-surface $-1 40.694410568254966 -141.26748369623022 103.94627576377501 -1 0 0 0 -0.69465837861970381 0.71933979245794832 forward_v I I I I #
face $-1 $178 $179 $58 $-1 $180 forward single #
loop $-1 $181 $182 $73 #
cone-surface $-1 31.401680654005901 -35.837969803525858 10.139166876698143 0 0.69465837861970381 -0.71933979245794832 1.5 0 0 1 I I 0 1 1.5 forward I I I I #
face $-1 $183 $184 $59 $-1 $185 forward single #
loop $-1 $186 $187 $74 #
cone-surface $-1 36.977318602555329 -35.837969803525858 10.139166876698143 0 0.69465837861970381 -0.71933979245794832 1.5 0 0 1 I I 0 1 1.5 forward I I I I #
face $-1 $188 $189 $45 $-1 $190 reversed single #
loop $-1 $-1 $191 $75 #
plane-surface $-1 0 0 -19.709728147494317 0 0 1 1 0 0 forward_v I I I I #
coedge $-1 $192 $193 $194 $195 forward $76 $-1 #
face $-1 $196 $197 $46 $-1 $198 reversed single #
loop $-1 $-1 $199 $78 #
plane-surface $-1 -55.369177376612598 0 15.467688418053896 -1 0 0 0 0 1 forward_v I I I I #
coedge $-1 $200 $201 $202 $203 forward $79 $-1 #
face $-1 $204 $205 $47 $-1 $206 forward single #
loop $-1 $-1 $207 $81 #
plane-surface $-1 55.369177376612605 0 15.467688418053896 1 0 0 0 0 -1 forward_v I I I I #
coedge $-1 $208 $209 $210 $211 reversed $82 $-1 #
face $-1 $212 $213 $48 $-1 $214 forward single #
loop $-1 $-1 $215 $84 #
plane-surface $-1 -48.864266436638268 -45.59809808373258 4.8777291094937851 0 -0.69465837861970381 0.71933979245794832 1 0 0 forward_v I I I I #
coedge $-1 $216 $217 $218 $219 reversed $85 $-1 #
face $-1 $-1 $220 $49 $-1 $221 forward single #
loop $-1 $222 $223 $87 #
cone-surface $-1 -51.652085410912981 -33.23633987398587 7.4451002805587692 0 0.69465837861970381 -0.71933979245794832 0.75 0 0 1 I I -0.70710678118654757 0.70710678118654757 0.75 forward I I I I #
loop $-1 $-1 $224 $64 #
coedge $-1 $140 $140 $225 $226 reversed $88 $-1 #
face $-1 $-1 $227 $50 $-1 $228 forward single #
loop $-1 $229 $230 $90 #
cone-surface $-1 -46.076447462363554 -33.23633987398587 7.4451002805587692 0 0.69465837861970381 -0.71933979245794832 0.75 0 0 1 I I -0.70710678118654757 0.70710678118654757 0.75 forward I I I I #
loop $-1 $-1 $231 $65 #
coedge $-1 $145 $145 $232 $233 reversed $91 $-1 #
face $-1 $234 $235 $51 $-1 $236 reversed single #
loop $-1 $-1 $237 $93 #
plane-surface $-1 -21.179677748331969 -45.59809808373258 4.8777291094937851 0 -0.69465837861970381 0.71933979245794832 1 0 0 forward_v I I I I #
coedge $-1 $238 $239 $240 $241 reversed $94 $-1 #
face $-1 $-1 $242 $52 $-1 $243 forward single #
loop $-1 $244 $245 $96 #
cone-surface $-1 -23.967496722606683 -33.23633987398587 7.4451002805587692 0 0.69465837861970381 -0.71933979245794832 0.75 0 0 1 I I -0.70710678118654757 0.70710678118654757 0.75 forward I I I I #
loop $-1 $-1 $246 $67 #
coedge $-1 $154 $154 $247 $248 reversed $97 $-1 #
face $-1 $-1 $249 $53 $-1 $250 forward single #
loop $-1 $251 $252 $99 #
cone-surface $-1 -18.391858774057255 -33.23633987398587 7.4451002805587692 0 0.69465837861970381 -0.71933979245794832 0.75 0 0 1 I I -0.70710678118654757 0.70710678118654757 0.75 forward I I I I #
loop $-1 $-1 $253 $68 #
coedge $-1 $159 $159 $254 $255 reversed $100 $-1 #
face $-1 $256 $257 $54 $-1 $258 reversed single #
loop $-1 $-1 $259 $102 #
plane-surface $-1 6.5049109399743372 -45.59809808373258 4.8777291094937851 0 -0.69465837861970381 0.71933979245794832 1 0 0 forward_v I I I I #
coedge $-1 $260 $261 $262 $263 reversed $103 $-1 #
face $-1 $-1 $264 $55 $-1 $265 forward single #
loop $-1 $266 $267 $105 #
cone-surface $-1 3.7170919656996091 -33.23633987398587 7.4451002805587692 0 0.69465837861970381 -0.71933979245794832 0.75 0 0 1 I I -0.70710678118654757 0.70710678118654757 0.75 forward I I I I #
loop $-1 $-1 $268 $70 #
coedge $-1 $168 $168 $269 $270 reversed $106 $-1 #
face $-1 $-1 $271 $56 $-1 $272 forward single #
loop $-1 $273 $274 $108 #
cone-surface $-1 9.2927299142490369 -33.23633987398587 7.4451002805587692 0 0.69465837861970381 -0.71933979245794832 0.75 0 0 1 I I -0.70710678118654757 0.70710678118654757 0.75 forward I I I I #
loop $-1 $-1 $275 $71 #
coedge $-1 $173 $173 $276 $277 reversed $109 $-1 #
face $-1 $278 $279 $57 $-1 $280 reversed single #
loop $-1 $-1 $281 $111 #
plane-surface $-1 34.189499628280629 -45.59809808373258 4.8777291094937851 0 -0.69465837861970381 0.71933979245794832 1 0 0 forward_v I I I I #
coedge $-1 $282 $283 $284 $285 reversed $112 $-1 #
face $-1 $-1 $286 $58 $-1 $287 forward single #
loop $-1 $288 $289 $114 #
cone-surface $-1 31.401680654005901 -33.23633987398587 7.4451002805587692 0 0.69465837861970381 -0.71933979245794832 0.75 0 0 1 I I -0.70710678118654757 0.70710678118654757 0.75 forward I I I I #
loop $-1 $-1 $290 $73 #
coedge $-1 $182 $182 $291 $292 reversed $115 $-1 #
face $-1 $-1 $293 $59 $-1 $294 forward single #
loop $-1 $295 $296 $117 #
cone-surface $-1 36.977318602555329 -33.23633987398587 7.4451002805587692 0 0.69465837861970381 -0.71933979245794832 0.75 0 0 1 I I -0.70710678118654757 0.70710678118654757 0.75 forward I I I I #
loop $-1 $-1 $297 $74 #
coedge $-1 $187 $187 $298 $299 reversed $118 $-1 #
face $-1 $300 $301 $45 $-1 $302 reversed single #
loop $-1 $-1 $303 $120 #
plane-surface $-1 0 -45.598098083732573 0 0 1 0 0 0 1 forward_v I I I I #
coedge $-1 $304 $305 $306 $307 forward $121 $-1 #
coedge $-1 $308 $123 $309 $310 forward $76 $-1 #
coedge $-1 $123 $308 $311 $312 forward $76 $-1 #
coedge $-1 $313 $314 $123 $195 reversed $315 $-1 #
edge $-1 $316 -45.598098083732573 $317 45.598098083732573 $194 $318 forward 7 unknown #
face $-1 $319 $320 $46 $-1 $321 reversed single #
loop $-1 $-1 $322 $124 #
plane-surface $-1 0 45.598098083732573 0 0 -1 0 0 0 -1 forward_v I I I I #
coedge $-1 $202 $323 $324 $325 reversed $125 $-1 #
coedge $-1 $326 $127 $327 $328 reversed $79 $-1 #
coedge $-1 $127 $326 $329 $330 reversed $79 $-1 #
coedge $-1 $331 $199 $127 $203 reversed $125 $-1 #
edge $-1 $332 -45.598098083732573 $333 45.598098083732573 $202 $334 forward 7 unknown #
face $-1 $335 $336 $47 $-1 $337 reversed single #
loop $-1 $-1 $338 $128 #
plane-surface $-1 0 0 19.709728147494317 0 0 1 1 0 0 forward_v I I I I #
coedge $-1 $339 $340 $341 $342 reversed $129 $-1 #
coedge $-1 $343 $131 $344 $345 reversed $82 $-1 #
coedge $-1 $131 $343 $346 $347 reversed $82 $-1 #
coedge $-1 $348 $349 $131 $211 forward $350 $-1 #
edge $-1 $351 -45.598098083732573 $352 45.598098083732573 $210 $353 forward 7 unknown #
face $-1 $354 $355 $48 $-1 $356 forward single #
loop $-1 $-1 $218 $132 #
plane-surface $-1 0 0 19.709728147494317 0 0 1 1 0 0 forward_v I I I I #
coedge $-1 $357 $358 $359 $360 reversed $133 $-1 #
coedge $-1 $217 $135 $361 $362 reversed $85 $-1 #
coedge $-1 $135 $216 $357 $363 reversed $85 $-1 #
coedge $-1 $359 $364 $135 $219 forward $213 $-1 #
edge $-1 $365 25.035643764382534 $366 40.39462803364556 $218 $367 forward 7 unknown #
loop $-1 $-1 $225 $136 #
plane-surface $-1 -48.864266436638268 -45.59809808373258 4.8777291094937851 0 -0.69465837861970381 0.71933979245794832 1 0 0 forward_v I I I I #
loop $-1 $-1 $368 $87 #
coedge $-1 $223 $223 $224 $369 reversed $137 $-1 #
coedge $-1 $224 $224 $223 $369 forward $139 $-1 #
coedge $-1 $225 $225 $140 $226 forward $220 $-1 #
edge $-1 $370 1.6452815492103992e-015 $370 6.2831853071796022 $225 $371 forward 7 unknown #
loop $-1 $-1 $232 $141 #
plane-surface $-1 -48.864266436638268 -45.59809808373258 4.8777291094937851 0 -0.69465837861970381 0.71933979245794832 1 0 0 forward_v I I I I #
loop $-1 $-1 $372 $90 #
coedge $-1 $230 $230 $231 $373 reversed $142 $-1 #
coedge $-1 $231 $231 $230 $373 forward $144 $-1 #
coedge $-1 $232 $232 $145 $233 forward $227 $-1 #
edge $-1 $374 1.6452815492103992e-015 $374 6.2831853071796022 $232 $375 forward 7 unknown #
face $-1 $376 $377 $51 $-1 $378 reversed single #
loop $-1 $-1 $379 $146 #
plane-surface $-1 -27.684588688306302 -141.26748369623022 103.94627576377501 1 0 0 0 0.69465837861970381 -0.71933979245794832 forward_v I I I I #
coedge $-1 $380 $381 $382 $383 reversed $147 $-1 #
coedge $-1 $239 $149 $384 $385 reversed $94 $-1 #
coedge $-1 $149 $238 $380 $386 reversed $94 $-1 #
coedge $-1 $382 $387 $149 $241 forward $388 $-1 #
edge $-1 $389 25.035643764382534 $390 40.39462803364556 $240 $391 forward 7 unknown #
loop $-1 $-1 $247 $150 #
plane-surface $-1 -21.179677748331969 -45.59809808373258 4.8777291094937851 0 -0.69465837861970381 0.71933979245794832 1 0 0 forward_v I I I I #
loop $-1 $-1 $392 $96 #
coedge $-1 $245 $245 $246 $393 reversed $151 $-1 #
coedge $-1 $246 $246 $245 $393 forward $153 $-1 #
coedge $-1 $247 $247 $154 $248 forward $242 $-1 #
edge $-1 $394 1.6452815492103992e-015 $394 6.2831853071796022 $247 $395 forward 7 unknown #
loop $-1 $-1 $254 $155 #
plane-surface $-1 -21.179677748331969 -45.59809808373258 4.8777291094937851 0 -0.69465837861970381 0.71933979245794832 1 0 0 forward_v I I I I #
loop $-1 $-1 $396 $99 #
coedge $-1 $252 $252 $253 $397 reversed $156 $-1 #
coedge $-1 $253 $253 $252 $397 forward $158 $-1 #
coedge $-1 $254 $254 $159 $255 forward $249 $-1 #
edge $-1 $398 1.6452815492103992e-015 $398 6.2831853071796022 $254 $399 forward 7 unknown #
face $-1 $400 $401 $54 $-1 $402 reversed single #
loop $-1 $-1 $403 $160 #
plane-surface $-1 2.6645352591003757e-015 -141.26748369623022 103.94627576377501 1 0 0 0 0.69465837861970381 -0.71933979245794832 forward_v I I I I #
coedge $-1 $404 $405 $406 $407 reversed $161 $-1 #
coedge $-1 $261 $163 $408 $409 reversed $103 $-1 #
coedge $-1 $163 $260 $404 $410 reversed $103 $-1 #
coedge $-1 $406 $411 $163 $263 forward $412 $-1 #
edge $-1 $413 25.035643764382534 $414 40.39462803364556 $262 $415 forward 7 unknown #
loop $-1 $-1 $269 $164 #
plane-surface $-1 6.5049109399743372 -45.59809808373258 4.8777291094937851 0 -0.69465837861970381 0.71933979245794832 1 0 0 forward_v I I I I #
loop $-1 $-1 $416 $105 #
coedge $-1 $267 $267 $268 $417 reversed $165 $-1 #
coedge $-1 $268 $268 $267 $417 forward $167 $-1 #
coedge $-1 $269 $269 $168 $270 forward $264 $-1 #
edge $-1 $418 1.6452815492103992e-015 $418 6.2831853071796022 $269 $419 forward 7 unknown #
loop $-1 $-1 $276 $169 #
plane-surface $-1 6.5049109399743372 -45.59809808373258 4.8777291094937851 0 -0.69465837861970381 0.71933979245794832 1 0 0 forward_v I I I I #
loop $-1 $-1 $420 $108 #
coedge $-1 $274 $274 $275 $421 reversed $170 $-1 #
coedge $-1 $275 $275 $274 $421 forward $172 $-1 #
coedge $-1 $276 $276 $173 $277 forward $271 $-1 #
edge $-1 $422 1.6452815492103992e-015 $422 6.2831853071796022 $276 $423 forward 7 unknown #
face $-1 $424 $425 $57 $-1 $426 reversed single #
loop $-1 $-1 $427 $174 #
plane-surface $-1 27.684588688306295 -141.26748369623022 103.94627576377501 1 0 0 0 0.69465837861970381 -0.71933979245794832 forward_v I I I I #
coedge $-1 $428 $429 $430 $431 reversed $175 $-1 #
coedge $-1 $283 $177 $432 $433 reversed $112 $-1 #
coedge $-1 $177 $282 $428 $434 reversed $112 $-1 #
coedge $-1 $430 $435 $177 $285 forward $436 $-1 #
edge $-1 $437 25.035643764382534 $438 40.39462803364556 $284 $439 forward 7 unknown #
loop $-1 $-1 $291 $178 #
plane-surface $-1 34.189499628280629 -45.59809808373258 4.8777291094937851 0 -0.69465837861970381 0.71933979245794832 1 0 0 forward_v I I I I #
loop $-1 $-1 $440 $114 #
coedge $-1 $289 $289 $290 $441 reversed $179 $-1 #
coedge $-1 $290 $290 $289 $441 forward $181 $-1 #
coedge $-1 $291 $291 $182 $292 forward $286 $-1 #
edge $-1 $442 1.6452815492103992e-015 $442 6.2831853071796022 $291 $443 forward 7 unknown #
loop $-1 $-1 $298 $183 #
plane-surface $-1 34.189499628280629 -45.59809808373258 4.8777291094937851 0 -0.69465837861970381 0.71933979245794832 1 0 0 forward_v I I I I #
loop $-1 $-1 $444 $117 #
coedge $-1 $296 $296 $297 $445 reversed $184 $-1 #
coedge $-1 $297 $297 $296 $445 forward $186 $-1 #
coedge $-1 $298 $298 $187 $299 forward $293 $-1 #
edge $-1 $446 1.6452815492103992e-015 $446 6.2831853071796022 $298 $447 forward 7 unknown #
face $-1 $448 $449 $45 $-1 $450 reversed single #
loop $-1 $-1 $451 $188 #
plane-surface $-1 -68.860744041261029 0 0 1 0 0 0 0 -1 forward_v I I I I #
coedge $-1 $452 $311 $453 $454 forward $189 $-1 #
coedge $-1 $455 $191 $452 $456 forward $121 $-1 #
coedge $-1 $191 $455 $457 $458 forward $121 $-1 #
coedge $-1 $314 $313 $191 $307 reversed $315 $-1 #
edge $-1 $459 -45.598098083732573 $460 45.598098083732573 $306 $461 forward 7 unknown #
coedge $-1 $193 $192 $462 $463 forward $76 $-1 #
coedge $-1 $464 $465 $192 $310 reversed $449 $-1 #
edge $-1 $317 -68.860744041261029 $466 68.860744041261029 $309 $467 forward 7 unknown #
coedge $-1 $303 $468 $193 $312 reversed $189 $-1 #
edge $-1 $469 -68.860744041261029 $316 68.860744041261029 $311 $470 forward 7 unknown #
coedge $-1 $306 $194 $468 $471 forward $315 $-1 #
coedge $-1 $194 $306 $464 $472 reversed $315 $-1 #
loop $-1 $-1 $313 $448 #
vertex $-1 $195 $473 #
vertex $-1 $195 $474 #
straight-curve $-1 68.860744041261029 0 19.709728147494317 0 1 0 I I #
face $-1 $475 $476 $46 $-1 $477 forward single #
loop $-1 $-1 $478 $196 #
plane-surface $-1 -68.860744041261029 0 0 1 0 0 0 0 -1 forward_v I I I I #
coedge $-1 $329 $479 $331 $480 forward $197 $-1 #
coedge $-1 $199 $331 $481 $482 reversed $125 $-1 #
coedge $-1 $483 $327 $199 $325 forward $484 $-1 #
edge $-1 $333 3.4918044795865306 $485 11.975883938467366 $324 $486 forward 7 unknown #
coedge $-1 $201 $200 $478 $487 reversed $79 $-1 #
coedge $-1 $324 $488 $200 $328 forward $484 $-1 #
edge $-1 $489 -37.803263686792619 $333 -24.311697022144191 $327 $490 forward 7 unknown #
coedge $-1 $491 $322 $201 $330 forward $197 $-1 #
edge $-1 $332 24.311697022144191 $492 37.803263686792619 $329 $493 forward 7 unknown #
coedge $-1 $323 $202 $322 $480 reversed $125 $-1 #
vertex $-1 $330 $494 #
vertex $-1 $328 $495 #
straight-curve $-1 -55.369177376612598 0 11.225648688613479 0 -1 0 I I #
face $-1 $496 $497 $47 $-1 $498 reversed single #
loop $-1 $-1 $499 $204 #
plane-surface $-1 0 -45.598098083732573 0 0 1 0 0 0 1 forward_v I I I I #
coedge $-1 $500 $501 $340 $502 forward $205 $-1 #
coedge $-1 $503 $207 $343 $504 reversed $129 $-1 #
coedge $-1 $207 $503 $338 $502 reversed $129 $-1 #
coedge $-1 $505 $346 $207 $342 forward $497 $-1 #
edge $-1 $506 3.4918044795865306 $507 11.975883938467366 $341 $508 forward 7 unknown #
coedge $-1 $209 $208 $339 $504 forward $82 $-1 #
coedge $-1 $509 $499 $208 $345 forward $336 $-1 #
edge $-1 $510 24.311697022144195 $351 37.803263686792619 $344 $511 forward 7 unknown #
coedge $-1 $341 $512 $209 $347 forward $497 $-1 #
edge $-1 $352 -37.803263686792619 $506 -24.311697022144195 $346 $513 forward 7 unknown #
coedge $-1 $514 $210 $512 $515 reversed $350 $-1 #
coedge $-1 $210 $514 $509 $516 forward $350 $-1 #
loop $-1 $-1 $210 $496 #
vertex $-1 $345 $517 #
vertex $-1 $211 $518 #
straight-curve $-1 68.860744041261029 0 11.225648688613479 0 1 0 I I #
face $-1 $-1 $519 $48 $-1 $520 reversed single #
loop $-1 $-1 $521 $212 #
plane-surface $-1 -55.369177376612598 0 15.467688418053896 -1 0 0 0 0 1 forward_v I I I I #
coedge $-1 $522 $215 $217 $363 forward $133 $-1 #
coedge $-1 $215 $522 $521 $523 forward $133 $-1 #
coedge $-1 $524 $218 $215 $360 forward $213 $-1 #
edge $-1 $366 17.927222278344797 $525 30.937044158293471 $359 $526 forward 7 unknown #
coedge $-1 $527 $528 $216 $362 forward $519 $-1 #
edge $-1 $529 -47.095408772393711 $365 -32.263409734393186 $361 $530 forward 7 unknown #
edge $-1 $366 -21.351500960043019 $529 -1.0047061288372931e-014 $217 $531 forward 7 unknown #
coedge $-1 $218 $524 $527 $532 forward $213 $-1 #
vertex $-1 $362 $533 #
vertex $-1 $219 $534 #
straight-curve $-1 -42.35935549666393 -70.633741848115108 19.709728147494317 0 1 0 I I #
coedge $-1 $368 $368 $-1 $535 reversed $222 $-1 #
edge $-1 $536 0 $536 6.2831853071796004 $223 $537 forward 7 unknown #
vertex $-1 $226 $538 #
ellipse-curve $-1 -51.652085410912981 -37.918605949101064 12.293728628494051 0 -0.69465837861970381 0.71933979245794832 1.5 0 0 1 I I #
coedge $-1 $372 $372 $-1 $539 reversed $229 $-1 #
edge $-1 $540 0 $540 6.2831853071796004 $230 $541 forward 7 unknown #
vertex $-1 $233 $542 #
ellipse-curve $-1 -46.076447462363554 -37.918605949101064 12.293728628494051 0 -0.69465837861970381 0.71933979245794832 1.5 0 0 1 I I #
face $-1 $-1 $388 $51 $-1 $543 forward single #
loop $-1 $-1 $544 $234 #
plane-surface $-1 0 -45.598098083732573 0 0 1 0 0 0 1 forward_v I I I I #
coedge $-1 $545 $546 $547 $548 reversed $235 $-1 #
coedge $-1 $549 $237 $239 $386 forward $147 $-1 #
coedge $-1 $237 $549 $545 $550 forward $147 $-1 #
coedge $-1 $547 $240 $237 $383 forward $388 $-1 #
edge $-1 $390 4.0849279341916507 $551 17.094749814140318 $382 $552 forward 7 unknown #
coedge $-1 $553 $554 $238 $385 forward $377 $-1 #
edge $-1 $555 -47.095408772393711 $389 -32.263409734393186 $384 $556 forward 7 unknown #
edge $-1 $390 -21.351500960043019 $555 -1.0047061288372931e-014 $239 $557 forward 7 unknown #
coedge $-1 $240 $547 $553 $558 forward $388 $-1 #
loop $-1 $-1 $547 $376 #
vertex $-1 $385 $559 #
vertex $-1 $241 $560 #
straight-curve $-1 -14.674766808357635 -70.633741848115108 19.709728147494317 0 1 0 I I #
coedge $-1 $392 $392 $-1 $561 reversed $244 $-1 #
edge $-1 $562 0 $562 6.2831853071796004 $245 $563 forward 7 unknown #
vertex $-1 $248 $564 #
ellipse-curve $-1 -23.967496722606683 -37.918605949101064 12.293728628494051 0 -0.69465837861970381 0.71933979245794832 1.5 0 0 1 I I #
coedge $-1 $396 $396 $-1 $565 reversed $251 $-1 #
edge $-1 $566 0 $566 6.2831853071796004 $252 $567 forward 7 unknown #
vertex $-1 $255 $568 #
ellipse-curve $-1 -18.391858774057255 -37.918605949101064 12.293728628494051 0 -0.69465837861970381 0.71933979245794832 1.5 0 0 1 I I #
face $-1 $-1 $412 $54 $-1 $569 forward single #
loop $-1 $-1 $570 $256 #
plane-surface $-1 0 -45.598098083732573 0 0 1 0 0 0 1 forward_v I I I I #
coedge $-1 $571 $572 $573 $574 reversed $257 $-1 #
coedge $-1 $575 $259 $261 $410 forward $161 $-1 #
coedge $-1 $259 $575 $571 $576 forward $161 $-1 #
coedge $-1 $573 $262 $259 $407 forward $412 $-1 #
edge $-1 $414 -9.7573664099615023 $577 3.2524554699871659 $406 $578 forward 7 unknown #
coedge $-1 $579 $580 $260 $409 forward $401 $-1 #
edge $-1 $581 -47.095408772393711 $413 -32.263409734393186 $408 $582 forward 7 unknown #
edge $-1 $414 -21.351500960043019 $581 -1.0047061288372931e-014 $261 $583 forward 7 unknown #
coedge $-1 $262 $573 $579 $584 forward $412 $-1 #
loop $-1 $-1 $573 $400 #
vertex $-1 $409 $585 #
vertex $-1 $263 $586 #
straight-curve $-1 13.009821879948671 -70.633741848115108 19.709728147494317 0 1 0 I I #
coedge $-1 $416 $416 $-1 $587 reversed $266 $-1 #
edge $-1 $588 0 $588 6.2831853071796004 $267 $589 forward 7 unknown #
vertex $-1 $270 $590 #
ellipse-curve $-1 3.7170919656996091 -37.918605949101064 12.293728628494051 0 -0.69465837861970381 0.71933979245794832 1.5 0 0 1 I I #
coedge $-1 $420 $420 $-1 $591 reversed $273 $-1 #
edge $-1 $592 0 $592 6.2831853071796004 $274 $593 forward 7 unknown #
vertex $-1 $277 $594 #
ellipse-curve $-1 9.2927299142490369 -37.918605949101064 12.293728628494051 0 -0.69465837861970381 0.71933979245794832 1.5 0 0 1 I I #
face $-1 $-1 $436 $57 $-1 $595 forward single #
loop $-1 $-1 $596 $278 #
plane-surface $-1 0 -45.598098083732573 0 0 1 0 0 0 1 forward_v I I I I #
coedge $-1 $597 $598 $599 $600 reversed $279 $-1 #
coedge $-1 $601 $281 $283 $434 forward $175 $-1 #
coedge $-1 $281 $601 $597 $602 forward $175 $-1 #
coedge $-1 $599 $284 $281 $431 forward $436 $-1 #
edge $-1 $438 -23.599660754114652 $603 -10.589838874165981 $430 $604 forward 7 unknown #
coedge $-1 $605 $606 $282 $433 forward $425 $-1 #
edge $-1 $607 -47.095408772393711 $437 -32.263409734393186 $432 $608 forward 7 unknown #
edge $-1 $438 -21.351500960043019 $607 -1.0047061288372931e-014 $283 $609 forward 7 unknown #
coedge $-1 $284 $599 $605 $610 forward $436 $-1 #
loop $-1 $-1 $599 $424 #
vertex $-1 $433 $611 #
vertex $-1 $285 $612 #
straight-curve $-1 40.694410568254966 -70.633741848115108 19.709728147494317 0 1 0 I I #
coedge $-1 $440 $440 $-1 $613 reversed $288 $-1 #
edge $-1 $614 0 $614 6.2831853071796004 $289 $615 forward 7 unknown #
vertex $-1 $292 $616 #
ellipse-curve $-1 31.401680654005901 -37.918605949101064 12.293728628494051 0 -0.69465837861970381 0.71933979245794832 1.5 0 0 1 I I #
coedge $-1 $444 $444 $-1 $617 reversed $295 $-1 #
edge $-1 $618 0 $618 6.2831853071796004 $296 $619 forward 7 unknown #
vertex $-1 $299 $620 #
ellipse-curve $-1 36.977318602555329 -37.918605949101064 12.293728628494051 0 -0.69465837861970381 0.71933979245794832 1.5 0 0 1 I I #
face $-1 $-1 $315 $45 $-1 $621 reversed single #
loop $-1 $-1 $464 $300 #
plane-surface $-1 0 45.598098083732573 0 0 -1 0 0 0 -1 forward_v I I I I #
coedge $-1 $622 $462 $465 $623 forward $301 $-1 #
coedge $-1 $468 $303 $304 $456 reversed $189 $-1 #
coedge $-1 $462 $622 $303 $454 reversed $301 $-1 #
edge $-1 $469 -19.709728147494317 $624 19.709728147494317 $453 $625 forward 7 unknown #
coedge $-1 $305 $304 $622 $626 forward $121 $-1 #
edge $-1 $460 -68.860744041261029 $624 68.860744041261029 $452 $627 forward 7 unknown #
coedge $-1 $465 $464 $305 $458 reversed $449 $-1 #
edge $-1 $628 -68.860744041261029 $459 68.860744041261029 $457 $629 forward 7 unknown #
vertex $-1 $307 $630 #
vertex $-1 $471 $631 #
straight-curve $-1 68.860744041261029 0 -19.709728147494317 0 -1 0 I I #
coedge $-1 $451 $453 $308 $463 reversed $301 $-1 #
edge $-1 $466 -45.598098083732573 $469 45.598098083732573 $462 $632 forward 7 unknown #
coedge $-1 $457 $309 $314 $472 forward $449 $-1 #
coedge $-1 $309 $457 $451 $623 reversed $449 $-1 #
vertex $-1 $310 $633 #
straight-curve $-1 0 45.598098083732573 19.709728147494317 -1 0 0 I I #
coedge $-1 $311 $452 $313 $471 reversed $189 $-1 #
vertex $-1 $463 $634 #
straight-curve $-1 0 -45.598098083732573 19.709728147494317 1 0 0 I I #
edge $-1 $316 -19.709728147494317 $460 19.709728147494317 $313 $635 forward 7 unknown #
edge $-1 $317 -19.709728147494317 $459 19.709728147494317 $314 $636 forward 7 unknown #
point $-1 68.860744041261029 -45.598098083732573 19.709728147494317 #
point $-1 68.860744041261029 45.598098083732573 19.709728147494317 #
face $-1 $-1 $484 $46 $-1 $637 reversed single #
loop $-1 $-1 $481 $319 #
plane-surface $-1 0 0 19.709728147494317 0 0 1 1 0 0 forward_v I I I I #
coedge $-1 $638 $639 $326 $487 forward $320 $-1 #
coedge $-1 $322 $491 $640 $641 reversed $197 $-1 #
edge $-1 $642 -11.975883938467366 $332 -3.4918044795865306 $322 $643 forward 7 unknown #
coedge $-1 $640 $644 $323 $482 forward $476 $-1 #
edge $-1 $485 -45.598098083732573 $642 45.598098083732573 $481 $645 forward 7 unknown #
coedge $-1 $488 $324 $644 $646 reversed $484 $-1 #
loop $-1 $-1 $324 $475 #
vertex $-1 $325 $647 #
straight-curve $-1 -55.369177376612598 -45.598098083732573 7.7338442090269481 0 0 1 I I #
edge $-1 $492 -45.598098083732573 $489 45.598098083732573 $478 $648 forward 7 unknown #
coedge $-1 $327 $483 $638 $649 forward $484 $-1 #
vertex $-1 $487 $650 #
straight-curve $-1 -31.057480354468407 -45.598098083732573 11.225648688613479 1 0 0 I I #
coedge $-1 $479 $329 $639 $651 reversed $197 $-1 #
vertex $-1 $487 $652 #
straight-curve $-1 -31.057480354468407 45.598098083732573 11.225648688613479 -1 0 0 I I #
point $-1 -55.369177376612598 45.598098083732573 11.225648688613479 #
point $-1 -55.369177376612598 -45.598098083732573 11.225648688613479 #
face $-1 $-1 $350 $47 $-1 $653 reversed single #
loop $-1 $-1 $341 $335 #
plane-surface $-1 0 45.598098083732573 0 0 -1 0 0 0 -1 forward_v I I I I #
coedge $-1 $344 $654 $503 $655 forward $336 $-1 #
coedge $-1 $656 $338 $654 $657 forward $205 $-1 #
coedge $-1 $338 $656 $505 $658 forward $205 $-1 #
edge $-1 $507 -45.598098083732573 $659 45.598098083732573 $338 $660 forward 7 unknown #
coedge $-1 $340 $339 $499 $655 reversed $129 $-1 #
edge $-1 $510 -45.598098083732573 $506 45.598098083732573 $339 $661 forward 7 unknown #
coedge $-1 $512 $341 $501 $658 reversed $497 $-1 #
vertex $-1 $347 $662 #
vertex $-1 $342 $663 #
straight-curve $-1 55.369177376612605 45.598098083732573 7.7338442090269481 0 0 1 I I #
coedge $-1 $654 $344 $349 $516 reversed $336 $-1 #
vertex $-1 $345 $664 #
straight-curve $-1 31.05748035446841 -45.598098083732573 11.225648688613479 1 0 0 I I #
coedge $-1 $346 $505 $348 $515 forward $497 $-1 #
straight-curve $-1 31.05748035446841 45.598098083732573 11.225648688613479 -1 0 0 I I #
coedge $-1 $349 $348 $656 $665 reversed $350 $-1 #
edge $-1 $666 -19.709728147494317 $352 -11.225648688613479 $348 $667 forward 7 unknown #
edge $-1 $668 -19.709728147494317 $351 -11.225648688613479 $349 $669 forward 7 unknown #
point $-1 68.860744041261029 -45.598098083732573 11.225648688613479 #
point $-1 68.860744041261029 45.598098083732573 11.225648688613479 #
loop $-1 $-1 $361 $354 #
plane-surface $-1 0 -45.598098083732573 0 0 1 0 0 0 1 forward_v I I I I #
coedge $-1 $670 $671 $358 $523 reversed $355 $-1 #
coedge $-1 $358 $357 $528 $672 reversed $133 $-1 #
edge $-1 $673 1.0047061288372931e-014 $525 21.351500960043019 $521 $674 forward 7 unknown #
coedge $-1 $364 $359 $671 $675 forward $213 $-1 #
vertex $-1 $675 $676 #
straight-curve $-1 -24.432133218319134 -30.239113814469551 19.709728147494317 -1 0 0 I I #
coedge $-1 $677 $361 $364 $532 reversed $519 $-1 #
coedge $-1 $361 $677 $522 $672 forward $519 $-1 #
vertex $-1 $362 $678 #
straight-curve $-1 -42.35935549666393 -45.598098083732573 51.973137881887503 0 0 1 I I #
straight-curve $-1 -42.35935549666393 -45.59809808373258 4.8777291094937851 0 -0.71933979245794832 -0.69465837861970381 I I #
edge $-1 $679 -55.369177376612598 $365 -42.35935549666393 $527 $680 forward 7 unknown #
point $-1 -42.35935549666393 -45.598098083732573 19.709728147494317 #
point $-1 -42.35935549666393 -30.239113814469551 19.709728147494317 #
edge $-1 $681 1 $681 0 $368 $-1 forward 7 unknown #
vertex $-1 $369 $682 #
ellipse-curve $-1 -51.652085410912981 -33.757333657950646 7.9846051249022301 0 -0.69465837861970381 0.71933979245794832 1.5 0 0 1 I I #
point $-1 -50.152085410912981 -37.918605949101064 12.293728628494055 #
edge $-1 $683 1 $683 0 $372 $-1 forward 7 unknown #
vertex $-1 $373 $684 #
ellipse-curve $-1 -46.076447462363554 -33.757333657950646 7.9846051249022301 0 -0.69465837861970381 0.71933979245794832 1.5 0 0 1 I I #
point $-1 -44.576447462363554 -37.918605949101064 12.293728628494055 #
plane-surface $-1 0 0 19.709728147494317 0 0 1 1 0 0 forward_v I I I I #
coedge $-1 $554 $553 $546 $685 forward $377 $-1 #
coedge $-1 $546 $379 $381 $550 reversed $235 $-1 #
coedge $-1 $379 $545 $544 $685 reversed $235 $-1 #
coedge $-1 $387 $382 $379 $548 forward $388 $-1 #
edge $-1 $551 -40.39462803364556 $686 -25.035643764382534 $547 $687 forward 7 unknown #
coedge $-1 $381 $380 $554 $688 reversed $147 $-1 #
edge $-1 $689 1.0047061288372931e-014 $551 21.351500960043019 $545 $690 forward 7 unknown #
vertex $-1 $383 $691 #
straight-curve $-1 -10.589838874165984 -30.239113814469551 19.709728147494317 -1 0 0 I I #
coedge $-1 $544 $384 $387 $558 reversed $377 $-1 #
coedge $-1 $384 $544 $549 $688 forward $377 $-1 #
vertex $-1 $385 $692 #
straight-curve $-1 -14.674766808357635 -45.598098083732573 51.973137881887503 0 0 1 I I #
straight-curve $-1 -14.674766808357635 -45.59809808373258 4.8777291094937851 0 -0.71933979245794832 -0.69465837861970381 I I #
edge $-1 $686 -27.684588688306302 $389 -14.674766808357635 $553 $693 forward 7 unknown #
point $-1 -14.674766808357635 -45.598098083732573 19.709728147494317 #
point $-1 -14.674766808357635 -30.239113814469551 19.709728147494317 #
edge $-1 $694 1 $694 0 $392 $-1 forward 7 unknown #
vertex $-1 $393 $695 #
ellipse-curve $-1 -23.967496722606683 -33.757333657950646 7.9846051249022301 0 -0.69465837861970381 0.71933979245794832 1.5 0 0 1 I I #
point $-1 -22.467496722606683 -37.918605949101064 12.293728628494055 #
edge $-1 $696 1 $696 0 $396 $-1 forward 7 unknown #
vertex $-1 $397 $697 #
ellipse-curve $-1 -18.391858774057255 -33.757333657950646 7.9846051249022301 0 -0.69465837861970381 0.71933979245794832 1.5 0 0 1 I I #
point $-1 -16.891858774057255 -37.918605949101064 12.293728628494055 #
plane-surface $-1 0 0 19.709728147494317 0 0 1 1 0 0 forward_v I I I I #
coedge $-1 $580 $579 $572 $698 forward $401 $-1 #
coedge $-1 $572 $403 $405 $576 reversed $257 $-1 #
coedge $-1 $403 $571 $570 $698 reversed $257 $-1 #
coedge $-1 $411 $406 $403 $574 forward $412 $-1 #
edge $-1 $577 -40.39462803364556 $699 -25.035643764382534 $573 $700 forward 7 unknown #
coedge $-1 $405 $404 $580 $701 reversed $161 $-1 #
edge $-1 $702 1.0047061288372931e-014 $577 21.351500960043019 $571 $703 forward 7 unknown #
vertex $-1 $407 $704 #
straight-curve $-1 3.2524554699871686 -30.239113814469551 19.709728147494317 -1 0 0 I I #
coedge $-1 $570 $408 $411 $584 reversed $401 $-1 #
coedge $-1 $408 $570 $575 $701 forward $401 $-1 #
vertex $-1 $409 $705 #
straight-curve $-1 13.009821879948671 -45.598098083732573 51.973137881887503 0 0 1 I I #
straight-curve $-1 13.009821879948671 -45.59809808373258 4.8777291094937851 0 -0.71933979245794832 -0.69465837861970381 I I #
edge $-1 $699 2.6645352591003757e-015 $413 13.009821879948671 $579 $706 forward 7 unknown #
point $-1 13.009821879948671 -45.598098083732573 19.709728147494317 #
point $-1 13.009821879948671 -30.239113814469551 19.709728147494317 #
edge $-1 $707 1 $707 0 $416 $-1 forward 7 unknown #
vertex $-1 $417 $708 #
ellipse-curve $-1 3.7170919656996091 -33.757333657950646 7.9846051249022301 0 -0.69465837861970381 0.71933979245794832 1.5 0 0 1 I I #
point $-1 5.2170919656996091 -37.918605949101064 12.293728628494055 #
edge $-1 $709 1 $709 0 $420 $-1 forward 7 unknown #
vertex $-1 $421 $710 #
ellipse-curve $-1 9.2927299142490369 -33.757333657950646 7.9846051249022301 0 -0.69465837861970381 0.71933979245794832 1.5 0 0 1 I I #
point $-1 10.792729914249037 -37.918605949101064 12.293728628494055 #
plane-surface $-1 0 0 19.709728147494317 0 0 1 1 0 0 forward_v I I I I #
coedge $-1 $606 $605 $598 $711 forward $425 $-1 #
coedge $-1 $598 $427 $429 $602 reversed $279 $-1 #
coedge $-1 $427 $597 $596 $711 reversed $279 $-1 #
coedge $-1 $435 $430 $427 $600 forward $436 $-1 #
edge $-1 $603 -40.39462803364556 $712 -25.035643764382534 $599 $713 forward 7 unknown #
coedge $-1 $429 $428 $606 $714 reversed $175 $-1 #
edge $-1 $715 1.0047061288372931e-014 $603 21.351500960043019 $597 $716 forward 7 unknown #
vertex $-1 $431 $717 #
straight-curve $-1 17.094749814140314 -30.239113814469551 19.709728147494317 -1 0 0 I I #
coedge $-1 $596 $432 $435 $610 reversed $425 $-1 #
coedge $-1 $432 $596 $601 $714 forward $425 $-1 #
vertex $-1 $433 $718 #
straight-curve $-1 40.694410568254966 -45.598098083732573 51.973137881887503 0 0 1 I I #
straight-curve $-1 40.694410568254966 -45.59809808373258 4.8777291094937851 0 -0.71933979245794832 -0.69465837861970381 I I #
edge $-1 $712 27.684588688306295 $437 40.694410568254966 $605 $719 forward 7 unknown #
point $-1 40.694410568254966 -45.598098083732573 19.709728147494317 #
point $-1 40.694410568254966 -30.239113814469551 19.709728147494317 #
edge $-1 $720 1 $720 0 $440 $-1 forward 7 unknown #
vertex $-1 $441 $721 #
ellipse-curve $-1 31.401680654005901 -33.757333657950646 7.9846051249022301 0 -0.69465837861970381 0.71933979245794832 1.5 0 0 1 I I #
point $-1 32.901680654005901 -37.918605949101064 12.293728628494055 #
edge $-1 $722 1 $722 0 $444 $-1 forward 7 unknown #
vertex $-1 $445 $723 #
ellipse-curve $-1 36.977318602555329 -33.757333657950646 7.9846051249022301 0 -0.69465837861970381 0.71933979245794832 1.5 0 0 1 I I #
point $-1 38.477318602555329 -37.918605949101064 12.293728628494055 #
plane-surface $-1 68.860744041261029 0 0 -1 0 0 0 0 1 forward_v I I I I #
coedge $-1 $453 $451 $455 $626 reversed $301 $-1 #
edge $-1 $466 -19.709728147494317 $628 19.709728147494317 $465 $724 forward 7 unknown #
vertex $-1 $626 $725 #
straight-curve $-1 -68.860744041261029 -45.598098083732573 0 0 0 -1 I I #
edge $-1 $624 -45.598098083732573 $628 45.598098083732573 $622 $726 forward 7 unknown #
straight-curve $-1 0 -45.598098083732573 -19.709728147494317 -1 0 0 I I #
vertex $-1 $458 $727 #
straight-curve $-1 0 45.598098083732573 -19.709728147494317 1 0 0 I I #
point $-1 68.860744041261029 45.598098083732573 -19.709728147494317 #
point $-1 68.860744041261029 -45.598098083732573 -19.709728147494317 #
straight-curve $-1 -68.860744041261029 0 19.709728147494317 0 -1 0 I I #
point $-1 -68.860744041261029 45.598098083732573 19.709728147494317 #
point $-1 -68.860744041261029 -45.598098083732573 19.709728147494317 #
straight-curve $-1 68.860744041261029 -45.598098083732573 0 0 0 -1 I I #
straight-curve $-1 68.860744041261029 45.598098083732573 0 0 0 -1 I I #
plane-surface $-1 0 -45.598098083732573 0 0 1 0 0 0 1 forward_v I I I I #
coedge $-1 $728 $478 $488 $649 reversed $320 $-1 #
coedge $-1 $478 $728 $491 $651 forward $320 $-1 #
coedge $-1 $729 $481 $479 $641 forward $476 $-1 #
edge $-1 $642 55.369177376612598 $730 68.860744041261029 $479 $731 forward 7 unknown #
vertex $-1 $641 $732 #
straight-curve $-1 -55.369177376612598 45.598098083732573 7.7338442090269481 0 0 -1 I I #
coedge $-1 $481 $729 $483 $646 forward $476 $-1 #
straight-curve $-1 -55.369177376612598 0 19.709728147494317 0 1 0 I I #
edge $-1 $733 -68.860744041261029 $485 -55.369177376612598 $483 $734 forward 7 unknown #
point $-1 -55.369177376612598 -45.598098083732573 19.709728147494314 #
straight-curve $-1 -68.860744041261029 0 11.225648688613479 0 -1 0 I I #
edge $-1 $733 -19.709728147494317 $489 -11.225648688613479 $638 $735 forward 7 unknown #
point $-1 -68.860744041261029 -45.598098083732573 11.225648688613479 #
edge $-1 $730 -19.709728147494317 $492 -11.225648688613479 $491 $736 forward 7 unknown #
point $-1 -68.860744041261029 45.598098083732573 11.225648688613479 #
plane-surface $-1 68.860744041261029 0 0 -1 0 0 0 0 1 forward_v I I I I #
coedge $-1 $499 $509 $500 $657 reversed $336 $-1 #
edge $-1 $659 -11.975883938467366 $510 -3.4918044795865306 $499 $737 forward 7 unknown #
coedge $-1 $501 $500 $514 $665 forward $205 $-1 #
edge $-1 $659 55.369177376612605 $668 68.860744041261029 $654 $738 forward 7 unknown #
edge $-1 $666 -68.860744041261029 $507 -55.369177376612605 $505 $739 forward 7 unknown #
vertex $-1 $657 $740 #
straight-curve $-1 55.369177376612605 0 19.709728147494317 0 -1 0 I I #
straight-curve $-1 55.369177376612605 0 11.225648688613479 0 1 0 I I #
point $-1 55.369177376612605 45.598098083732573 11.225648688613479 #
point $-1 55.369177376612605 45.598098083732573 19.709728147494314 #
point $-1 55.369177376612605 -45.598098083732573 11.225648688613479 #
edge $-1 $668 -45.598098083732573 $666 45.598098083732573 $514 $741 forward 7 unknown #
vertex $-1 $665 $742 #
straight-curve $-1 68.860744041261029 45.598098083732573 0 0 0 -1 I I #
vertex $-1 $665 $743 #
straight-curve $-1 68.860744041261029 -45.598098083732573 0 0 0 -1 I I #
coedge $-1 $671 $521 $677 $744 reversed $355 $-1 #
coedge $-1 $521 $670 $524 $675 reversed $355 $-1 #
edge $-1 $673 -30.937044158293471 $529 -17.927222278344797 $528 $745 forward 7 unknown #
vertex $-1 $744 $746 #
straight-curve $-1 -55.369177376612605 -45.59809808373258 4.8777291094937851 0 0.71933979245794832 0.69465837861970381 I I #
edge $-1 $525 30.239113814469551 $679 45.598098083732573 $524 $747 forward 7 unknown #
point $-1 -55.369177376612605 -30.239113814469551 19.709728147494317 #
coedge $-1 $528 $527 $670 $744 forward $519 $-1 #
point $-1 -42.35935549666393 -45.598098083732573 4.8777291094937922 #
vertex $-1 $532 $748 #
straight-curve $-1 0 -45.598098083732573 19.709728147494317 1 0 0 I I #
vertex $-1 $535 $749 #
point $-1 -50.152085410912981 -33.757333657950646 7.9846051249022301 #
vertex $-1 $539 $750 #
point $-1 -44.576447462363554 -33.757333657950646 7.9846051249022301 #
edge $-1 $686 32.263409734393186 $689 47.095408772393711 $544 $751 forward 7 unknown #
vertex $-1 $558 $752 #
straight-curve $-1 -27.684588688306302 -70.633741848115108 19.709728147494317 0 -1 0 I I #
edge $-1 $689 -17.094749814140318 $555 -4.0849279341916507 $554 $753 forward 7 unknown #
vertex $-1 $688 $754 #
straight-curve $-1 -27.684588688306302 -45.59809808373258 4.8777291094937851 0 0.71933979245794832 0.69465837861970381 I I #
point $-1 -27.684588688306302 -30.239113814469551 19.709728147494317 #
point $-1 -14.674766808357635 -45.598098083732573 4.8777291094937922 #
straight-curve $-1 0 -45.598098083732573 19.709728147494317 1 0 0 I I #
vertex $-1 $561 $755 #
point $-1 -22.467496722606683 -33.757333657950646 7.9846051249022301 #
vertex $-1 $565 $756 #
point $-1 -16.891858774057255 -33.757333657950646 7.9846051249022301 #
edge $-1 $699 32.263409734393186 $702 47.095408772393711 $570 $757 forward 7 unknown #
vertex $-1 $584 $758 #
straight-curve $-1 2.6645352591003757e-015 -70.633741848115108 19.709728147494317 0 -1 0 I I #
edge $-1 $702 -3.2524554699871659 $581 9.7573664099615023 $580 $759 forward 7 unknown #
vertex $-1 $701 $760 #
straight-curve $-1 2.6645352591003757e-015 -45.59809808373258 4.8777291094937851 0 0.71933979245794832 0.69465837861970381 I I #
point $-1 2.6645352591003757e-015 -30.239113814469551 19.709728147494317 #
point $-1 13.009821879948671 -45.598098083732573 4.8777291094937922 #
straight-curve $-1 0 -45.598098083732573 19.709728147494317 1 0 0 I I #
vertex $-1 $587 $761 #
point $-1 5.2170919656996091 -33.757333657950646 7.9846051249022301 #
vertex $-1 $591 $762 #
point $-1 10.792729914249037 -33.757333657950646 7.9846051249022301 #
edge $-1 $712 32.263409734393186 $715 47.095408772393711 $596 $763 forward 7 unknown #
vertex $-1 $610 $764 #
straight-curve $-1 27.684588688306295 -70.633741848115108 19.709728147494317 0 -1 0 I I #
edge $-1 $715 10.589838874165981 $607 23.599660754114652 $606 $765 forward 7 unknown #
vertex $-1 $714 $766 #
straight-curve $-1 27.684588688306295 -45.59809808373258 4.8777291094937851 0 0.71933979245794832 0.69465837861970381 I I #
point $-1 27.684588688306295 -30.239113814469551 19.709728147494317 #
point $-1 40.694410568254966 -45.598098083732573 4.8777291094937922 #
straight-curve $-1 0 -45.598098083732573 19.709728147494317 1 0 0 I I #
vertex $-1 $613 $767 #
point $-1 32.901680654005901 -33.757333657950646 7.9846051249022301 #
vertex $-1 $617 $768 #
point $-1 38.477318602555329 -33.757333657950646 7.9846051249022301 #
straight-curve $-1 -68.860744041261029 45.598098083732573 0 0 0 -1 I I #
point $-1 -68.860744041261029 -45.598098083732573 -19.709728147494317 #
straight-curve $-1 -68.860744041261029 0 -19.709728147494317 0 1 0 I I #
point $-1 -68.860744041261029 45.598098083732573 -19.709728147494317 #
coedge $-1 $639 $638 $729 $769 reversed $320 $-1 #
coedge $-1 $644 $640 $728 $769 forward $476 $-1 #
vertex $-1 $641 $770 #
straight-curve $-1 0 45.598098083732573 19.709728147494317 -1 0 0 I I #
point $-1 -55.369177376612598 45.598098083732573 19.709728147494314 #
vertex $-1 $769 $771 #
straight-curve $-1 0 -45.598098083732573 19.709728147494317 1 0 0 I I #
straight-curve $-1 -68.860744041261029 -45.598098083732573 0 0 0 -1 I I #
straight-curve $-1 -68.860744041261029 45.598098083732573 0 0 0 -1 I I #
straight-curve $-1 55.369177376612605 -45.598098083732573 7.7338442090269481 0 0 -1 I I #
straight-curve $-1 0 -45.598098083732573 19.709728147494317 1 0 0 I I #
straight-curve $-1 0 45.598098083732573 19.709728147494317 -1 0 0 I I #
point $-1 55.369177376612605 -45.598098083732573 19.709728147494314 #
straight-curve $-1 68.860744041261029 0 19.709728147494317 0 1 0 I I #
point $-1 68.860744041261029 45.598098083732573 19.709728147494317 #
point $-1 68.860744041261029 -45.598098083732573 19.709728147494317 #
edge $-1 $679 32.263409734393193 $673 47.095408772393711 $677 $772 forward 7 unknown #
straight-curve $-1 -24.432133218319134 -45.598098083732573 4.8777291094937958 1 0 0 I I #
point $-1 -55.369177376612605 -45.598098083732573 4.8777291094937922 #
straight-curve $-1 -55.369177376612598 0 19.709728147494317 0 -1 0 I I #
point $-1 -55.369177376612598 -45.598098083732573 19.709728147494314 #
point $-1 -51.652085410912981 -32.715346090021093 6.9055954362153082 #
point $-1 -46.076447462363554 -32.715346090021093 6.9055954362153082 #
straight-curve $-1 -27.684588688306302 -45.598098083732573 51.973137881887503 0 0 -1 I I #
point $-1 -27.684588688306302 -45.598098083732573 19.709728147494317 #
straight-curve $-1 -10.589838874165984 -45.598098083732573 4.8777291094937958 1 0 0 I I #
point $-1 -27.684588688306302 -45.598098083732573 4.8777291094937922 #
point $-1 -23.967496722606683 -32.715346090021093 6.9055954362153082 #
point $-1 -18.391858774057255 -32.715346090021093 6.9055954362153082 #
straight-curve $-1 2.6645352591003757e-015 -45.598098083732573 51.973137881887503 0 0 -1 I I #
point $-1 2.6645352591003757e-015 -45.598098083732573 19.709728147494317 #
straight-curve $-1 3.2524554699871686 -45.598098083732573 4.8777291094937958 1 0 0 I I #
point $-1 2.6645352591003757e-015 -45.598098083732573 4.8777291094937922 #
point $-1 3.7170919656996091 -32.715346090021093 6.9055954362153082 #
point $-1 9.2927299142490369 -32.715346090021093 6.9055954362153082 #
straight-curve $-1 27.684588688306295 -45.598098083732573 51.973137881887503 0 0 -1 I I #
point $-1 27.684588688306295 -45.598098083732573 19.709728147494317 #
straight-curve $-1 17.094749814140314 -45.598098083732573 4.8777291094937958 1 0 0 I I #
point $-1 27.684588688306295 -45.598098083732573 4.8777291094937922 #
point $-1 31.401680654005901 -32.715346090021093 6.9055954362153082 #
point $-1 36.977318602555329 -32.715346090021093 6.9055954362153082 #
edge $-1 $730 -45.598098083732573 $733 45.598098083732573 $728 $773 forward 7 unknown #
point $-1 -68.860744041261029 45.598098083732573 19.709728147494317 #
point $-1 -68.860744041261029 -45.598098083732573 19.709728147494317 #
straight-curve $-1 -55.369177376612605 -45.598098083732573 51.973137881887503 0 0 -1 I I #
straight-curve $-1 -68.860744041261029 0 19.709728147494317 0 -1 0 I I #
End-of-ACIS-data 