500 0 8 0           
7 Unknown 11 ACIS 5.0 NT 24 Fri Mar 26 16:35:35 1999 
-1 9.9999999999999995e-007 1e-010 
body $-1 $8 $-1 $9 #
body $-1 $10 $-1 $11 #
body $-1 $12 $-1 $13 #
body $-1 $14 $-1 $15 #
body $-1 $16 $-1 $17 #
body $-1 $18 $-1 $19 #
body $-1 $20 $-1 $21 #
body $-1 $22 $-1 $23 #
lump $-1 $-1 $24 $0 #
transform $-1 1 0 0 0 1 0 0 0 1 76.675923947874395 30.97995619795233 7.681690362777279 1 rotate no_reflect no_shear #
lump $-1 $-1 $25 $1 #
transform $-1 1 0 0 0 1 0 0 0 1 76.675923947874395 30.97995619795233 7.681690362777279 1 rotate no_reflect no_shear #
lump $-1 $-1 $26 $2 #
transform $-1 1 0 0 0 1 0 0 0 1 76.675923947874395 30.97995619795233 7.681690362777279 1 rotate no_reflect no_shear #
lump $-1 $-1 $27 $3 #
transform $-1 1 0 0 0 1 0 0 0 1 76.675923947874395 30.97995619795233 7.681690362777279 1 rotate no_reflect no_shear #
lump $-1 $-1 $28 $4 #
transform $-1 1 0 0 0 1 0 0 0 1 76.675923947874395 30.97995619795233 7.681690362777279 1 rotate no_reflect no_shear #
lump $-1 $-1 $29 $5 #
transform $-1 1 0 0 0 1 0 0 0 1 76.675923947874395 30.97995619795233 7.681690362777279 1 rotate no_reflect no_shear #
lump $-1 $-1 $30 $6 #
transform $-1 1 0 0 0 1 0 0 0 1 76.675923947874395 30.97995619795233 7.681690362777279 1 rotate no_reflect no_shear #
lump $-1 $-1 $31 $7 #
transform $-1 1 0 0 0 1 0 0 0 1 76.675923947874395 30.97995619795233 7.681690362777279 1 rotate no_reflect no_shear #
shell $-1 $-1 $-1 $32 $-1 $8 #
shell $-1 $-1 $-1 $33 $-1 $10 #
shell $-1 $-1 $-1 $34 $-1 $12 #
shell $-1 $-1 $-1 $35 $-1 $14 #
shell $-1 $-1 $-1 $36 $-1 $16 #
shell $-1 $-1 $-1 $37 $-1 $18 #
shell $-1 $-1 $-1 $38 $-1 $20 #
shell $-1 $-1 $-1 $39 $-1 $22 #
face $-1 $40 $41 $24 $-1 $42 forward single #
face $-1 $43 $44 $25 $-1 $45 forward single #
face $-1 $46 $47 $26 $-1 $48 reversed single #
face $-1 $49 $50 $27 $-1 $51 forward single #
face $-1 $52 $53 $28 $-1 $54 forward single #
face $-1 $55 $56 $29 $-1 $57 forward single #
face $-1 $58 $59 $30 $-1 $60 reversed single #
face $-1 $61 $62 $31 $-1 $63 forward single #
face $-1 $64 $65 $24 $-1 $66 reversed single #
loop $-1 $-1 $67 $32 #
plane-surface $-1 0 0 7.681690362777279 0 0 1 1 0 0 forward_v I I I I #
face $-1 $68 $69 $25 $-1 $70 reversed single #
loop $-1 $-1 $71 $33 #
plane-surface $-1 0 -26.997302047160204 -4.681690362777279 0 0 1 1 0 0 forward_v I I I I #
face $-1 $72 $73 $26 $-1 $74 reversed single #
loop $-1 $-1 $75 $34 #
plane-surface $-1 57.774263003406048 25.488702430182489 218.6178065305472 0 -1 0 -0.64278761758704617 0 -0.76604443648966558 forward_v I I I I #
face $-1 $76 $77 $27 $-1 $78 forward single #
loop $-1 $79 $80 $35 #
cone-surface $-1 73.228541432722366 19.077727326033173 4.64725206638263 -0.64278761758704617 0 -0.76604443648966558 0.38302221824483279 0 -0.32139380879352308 1 I I 0 1 0.5 forward I I I I #
face $-1 $81 $82 $28 $-1 $83 forward single #
loop $-1 $84 $85 $36 #
cone-surface $-1 73.228541432722366 21.481842990089167 4.64725206638263 -0.64278761758704617 0 -0.76604443648966558 0.38302221824483279 0 -0.32139380879352308 1 I I 0 1 0.5 forward I I I I #
face $-1 $86 $87 $29 $-1 $88 forward single #
loop $-1 $89 $90 $37 #
cone-surface $-1 73.228541432722366 23.88595865414516 4.64725206638263 -0.64278761758704617 0 -0.76604443648966558 0.38302221824483279 0 -0.32139380879352308 1 I I 0 1 0.5 forward I I I I #
face $-1 $91 $92 $30 $-1 $93 reversed single #
loop $-1 $-1 $94 $38 #
plane-surface $-1 -164.6349315053728 -12.741083125617395 130.01898494768835 0 1 0 -0.57357644374324357 0 0.81915203911291934 forward_v I I I I #
face $-1 $95 $96 $31 $-1 $97 forward single #
loop $-1 $98 $99 $39 #
cone-surface $-1 -73.584134601885978 -5.7570632607288026 4.9717281769785462 0.57357644374324357 0 -0.81915203911291934 0.81915203911291934 0 0.57357644374324357 1 I I 0 1 1 forward I I I I #
face $-1 $100 $101 $24 $-1 $102 reversed single #
loop $-1 $-1 $103 $40 #
plane-surface $-1 0 0 -7.681690362777279 0 0 1 1 0 0 forward_v I I I I #
coedge $-1 $104 $105 $106 $107 forward $41 $-1 #
face $-1 $108 $109 $25 $-1 $110 reversed single #
loop $-1 $-1 $111 $43 #
plane-surface $-1 0 -23.014647896368079 -6.181690362777279 0 -1 0 0 0 -1 forward_v I I I I #
coedge $-1 $112 $113 $114 $115 reversed $44 $-1 #
face $-1 $116 $117 $26 $-1 $118 reversed single #
loop $-1 $-1 $119 $46 #
plane-surface $-1 -40.798405958073388 21.481842990089167 101.14347662459942 0.64278761758704617 0 0.76604443648966558 0.76604443648966558 0 -0.64278761758704617 forward_v I I I I #
coedge $-1 $120 $121 $122 $123 reversed $47 $-1 #
face $-1 $-1 $124 $27 $-1 $125 forward single #
loop $-1 $126 $127 $49 #
cone-surface $-1 72.665918358708723 19.077727326033173 3.9767440106942287 -0.64278761758704617 0 -0.76604443648966558 0.1915111091224164 0 -0.16069690439676154 1 I I -0.70710678118654746 0.70710678118654746 0.25 forward I I I I #
loop $-1 $-1 $128 $35 #
coedge $-1 $80 $80 $129 $130 reversed $50 $-1 #
face $-1 $-1 $131 $28 $-1 $132 forward single #
loop $-1 $133 $134 $52 #
cone-surface $-1 72.665918358708723 21.481842990089167 3.9767440106942287 -0.64278761758704617 0 -0.76604443648966558 0.1915111091224164 0 -0.16069690439676154 1 I I -0.70710678118654746 0.70710678118654746 0.25 forward I I I I #
loop $-1 $-1 $135 $36 #
coedge $-1 $85 $85 $136 $137 reversed $53 $-1 #
face $-1 $-1 $138 $29 $-1 $139 forward single #
loop $-1 $140 $141 $55 #
cone-surface $-1 72.665918358708723 23.88595865414516 3.9767440106942287 -0.64278761758704617 0 -0.76604443648966558 0.1915111091224164 0 -0.16069690439676154 1 I I -0.70710678118654746 0.70710678118654746 0.25 forward I I I I #
loop $-1 $-1 $142 $37 #
coedge $-1 $90 $90 $143 $144 reversed $56 $-1 #
face $-1 $145 $146 $30 $-1 $147 reversed single #
loop $-1 $-1 $148 $58 #
plane-surface $-1 -76.675923947874409 -5.7570632607288026 4.400506042151477 -0.57357644374324357 0 0.81915203911291934 0.81915203911291934 0 0.57357644374324357 forward_v I I I I #
coedge $-1 $149 $150 $151 $152 reversed $59 $-1 #
face $-1 $-1 $153 $31 $-1 $154 forward single #
loop $-1 $155 $156 $61 #
cone-surface $-1 -72.548565412652039 -5.7570632607288026 3.4927821319362549 0.57357644374324357 0 -0.81915203911291934 0.40957601955645967 0 0.28678822187162178 1 I I -0.70710678118654746 0.70710678118654746 0.5 forward I I I I #
loop $-1 $-1 $157 $39 #
coedge $-1 $99 $99 $158 $159 reversed $62 $-1 #
face $-1 $160 $161 $24 $-1 $162 reversed single #
loop $-1 $-1 $163 $64 #
plane-surface $-1 0 -30.97995619795233 0 0 1 0 0 0 1 forward_v I I I I #
coedge $-1 $164 $165 $166 $167 forward $65 $-1 #
coedge $-1 $168 $67 $169 $170 forward $41 $-1 #
coedge $-1 $67 $168 $171 $172 forward $41 $-1 #
coedge $-1 $173 $174 $67 $107 reversed $175 $-1 #
edge $-1 $176 -30.97995619795233 $177 30.97995619795233 $106 $178 forward 7 unknown #
face $-1 $179 $180 $25 $-1 $181 reversed single #
loop $-1 $-1 $182 $68 #
plane-surface $-1 0 0 -7.681690362777279 0 0 1 1 0 0 forward_v I I I I #
coedge $-1 $183 $184 $185 $186 reversed $69 $-1 #
coedge $-1 $187 $71 $184 $188 forward $44 $-1 #
coedge $-1 $71 $187 $189 $190 reversed $44 $-1 #
coedge $-1 $191 $185 $71 $115 forward $180 $-1 #
edge $-1 $192 9.5159968727879765 $193 17.481305174372228 $114 $194 forward 7 unknown #
face $-1 $195 $196 $26 $-1 $197 reversed single #
loop $-1 $-1 $198 $72 #
plane-surface $-1 57.774263003406048 17.474983549995844 218.6178065305472 0 1 0 0.64278761758704617 0 0.76604443648966558 forward_v I I I I #
coedge $-1 $199 $200 $201 $202 reversed $73 $-1 #
coedge $-1 $121 $75 $203 $204 reversed $47 $-1 #
coedge $-1 $75 $120 $199 $205 reversed $47 $-1 #
coedge $-1 $201 $206 $75 $123 forward $207 $-1 #
edge $-1 $208 -47.788792446171371 $209 -41.697879755101113 $122 $210 forward 7 unknown #
loop $-1 $-1 $129 $76 #
plane-surface $-1 -40.798405958073388 21.481842990089167 101.14347662459942 0.64278761758704617 0 0.76604443648966558 0.76604443648966558 0 -0.64278761758704617 forward_v I I I I #
loop $-1 $-1 $211 $49 #
coedge $-1 $127 $127 $128 $212 reversed $77 $-1 #
coedge $-1 $128 $128 $127 $212 forward $79 $-1 #
coedge $-1 $129 $129 $80 $130 forward $124 $-1 #
edge $-1 $213 0 $213 6.2831853071796004 $129 $214 forward 7 unknown #
loop $-1 $-1 $136 $81 #
plane-surface $-1 -40.798405958073388 21.481842990089167 101.14347662459942 0.64278761758704617 0 0.76604443648966558 0.76604443648966558 0 -0.64278761758704617 forward_v I I I I #
loop $-1 $-1 $215 $52 #
coedge $-1 $134 $134 $135 $216 reversed $82 $-1 #
coedge $-1 $135 $135 $134 $216 forward $84 $-1 #
coedge $-1 $136 $136 $85 $137 forward $131 $-1 #
edge $-1 $217 0 $217 6.2831853071796004 $136 $218 forward 7 unknown #
loop $-1 $-1 $143 $86 #
plane-surface $-1 -40.798405958073388 21.481842990089167 101.14347662459942 0.64278761758704617 0 0.76604443648966558 0.76604443648966558 0 -0.64278761758704617 forward_v I I I I #
loop $-1 $-1 $219 $55 #
coedge $-1 $141 $141 $142 $220 reversed $87 $-1 #
coedge $-1 $142 $142 $141 $220 forward $89 $-1 #
coedge $-1 $143 $143 $90 $144 forward $138 $-1 #
edge $-1 $221 0 $221 6.2831853071796004 $143 $222 forward 7 unknown #
face $-1 $223 $224 $30 $-1 $225 forward single #
loop $-1 $-1 $226 $91 #
plane-surface $-1 -164.6349315053728 1.2269566041597901 130.01898494768835 0 -1 0 0.57357644374324357 0 -0.81915203911291934 forward_v I I I I #
coedge $-1 $227 $228 $229 $230 reversed $92 $-1 #
coedge $-1 $150 $94 $231 $232 reversed $59 $-1 #
coedge $-1 $94 $149 $227 $233 reversed $59 $-1 #
coedge $-1 $229 $234 $94 $152 forward $224 $-1 #
edge $-1 $235 5.6415418048120074 $236 10.327558562064198 $151 $237 forward 7 unknown #
loop $-1 $-1 $158 $95 #
plane-surface $-1 -76.675923947874409 -5.7570632607288026 4.400506042151477 -0.57357644374324357 0 0.81915203911291934 0.81915203911291934 0 0.57357644374324357 forward_v I I I I #
loop $-1 $-1 $238 $61 #
coedge $-1 $156 $156 $157 $239 reversed $96 $-1 #
coedge $-1 $157 $157 $156 $239 forward $98 $-1 #
coedge $-1 $158 $158 $99 $159 forward $153 $-1 #
edge $-1 $240 0 $240 6.2831853071796004 $158 $241 forward 7 unknown #
face $-1 $242 $243 $24 $-1 $244 reversed single #
loop $-1 $-1 $245 $100 #
plane-surface $-1 -76.675923947874395 0 0 1 0 0 0 0 -1 forward_v I I I I #
coedge $-1 $246 $171 $247 $248 forward $101 $-1 #
coedge $-1 $249 $103 $246 $250 forward $65 $-1 #
coedge $-1 $103 $249 $251 $252 forward $65 $-1 #
coedge $-1 $174 $173 $103 $167 reversed $175 $-1 #
edge $-1 $253 -30.97995619795233 $254 30.97995619795233 $166 $255 forward 7 unknown #
coedge $-1 $105 $104 $256 $257 forward $41 $-1 #
coedge $-1 $258 $259 $104 $170 reversed $243 $-1 #
edge $-1 $177 -76.675923947874395 $260 76.675923947874395 $169 $261 forward 7 unknown #
coedge $-1 $163 $262 $105 $172 reversed $101 $-1 #
edge $-1 $263 -76.675923947874395 $176 76.675923947874395 $171 $264 forward 7 unknown #
coedge $-1 $166 $106 $262 $265 forward $175 $-1 #
coedge $-1 $106 $166 $258 $266 reversed $175 $-1 #
loop $-1 $-1 $173 $242 #
vertex $-1 $107 $267 #
vertex $-1 $107 $268 #
straight-curve $-1 76.675923947874395 0 7.681690362777279 0 1 0 I I #
face $-1 $269 $270 $25 $-1 $271 reversed single #
loop $-1 $-1 $185 $108 #
plane-surface $-1 76.675923947874395 0 0 -1 0 0 0 0 1 forward_v I I I I #
coedge $-1 $272 $273 $183 $274 forward $109 $-1 #
coedge $-1 $275 $111 $182 $274 reversed $69 $-1 #
coedge $-1 $111 $275 $112 $188 reversed $69 $-1 #
coedge $-1 $114 $276 $111 $186 forward $180 $-1 #
edge $-1 $277 -4.5908451813886391 $192 -1.5908451813886395 $185 $278 forward 7 unknown #
coedge $-1 $113 $112 $279 $280 reversed $44 $-1 #
edge $-1 $192 -76.675923947874395 $281 76.675923947874395 $184 $282 forward 7 unknown #
coedge $-1 $283 $284 $113 $190 forward $270 $-1 #
edge $-1 $193 -76.675923947874395 $285 76.675923947874395 $189 $286 forward 7 unknown #
coedge $-1 $276 $114 $284 $287 forward $180 $-1 #
vertex $-1 $115 $288 #
vertex $-1 $287 $289 #
straight-curve $-1 76.675923947874395 -13.498651023580102 -4.681690362777279 0 -1 0 I I #
face $-1 $-1 $207 $26 $-1 $290 forward single #
loop $-1 $-1 $291 $116 #
plane-surface $-1 76.675923947874395 0 0 -1 0 0 0 0 1 forward_v I I I I #
coedge $-1 $292 $293 $294 $295 reversed $117 $-1 #
coedge $-1 $296 $119 $121 $205 forward $73 $-1 #
coedge $-1 $119 $296 $292 $297 forward $73 $-1 #
coedge $-1 $294 $122 $119 $202 forward $207 $-1 #
edge $-1 $209 -14.747780935137905 $298 -6.7340620549512611 $201 $299 forward 7 unknown #
coedge $-1 $300 $301 $120 $204 forward $196 $-1 #
edge $-1 $302 -106.73809560215362 $208 -101.62721290249632 $203 $303 forward 7 unknown #
edge $-1 $209 145.40072600133055 $302 153.35184789574876 $121 $304 forward 7 unknown #
coedge $-1 $122 $294 $300 $305 forward $207 $-1 #
loop $-1 $-1 $294 $195 #
vertex $-1 $204 $306 #
vertex $-1 $123 $307 #
straight-curve $-1 28.887131501703024 25.488702430182489 7.6816903627772746 -1 0 0 I I #
coedge $-1 $211 $211 $-1 $308 reversed $126 $-1 #
edge $-1 $309 0 $309 6.2831853071796004 $127 $310 forward 7 unknown #
vertex $-1 $130 $311 #
ellipse-curve $-1 73.630467602339266 19.077727326033173 5.1262490129486284 0.64278761758704617 0 0.76604443648966558 0.38302221824483279 0 -0.32139380879352308 1 I I #
coedge $-1 $215 $215 $-1 $312 reversed $133 $-1 #
edge $-1 $313 0 $313 6.2831853071796004 $134 $314 forward 7 unknown #
vertex $-1 $137 $315 #
ellipse-curve $-1 73.630467602339266 21.481842990089167 5.1262490129486284 0.64278761758704617 0 0.76604443648966558 0.38302221824483279 0 -0.32139380879352308 1 I I #
coedge $-1 $219 $219 $-1 $316 reversed $140 $-1 #
edge $-1 $317 0 $317 6.2831853071796004 $141 $318 forward 7 unknown #
vertex $-1 $144 $319 #
ellipse-curve $-1 73.630467602339266 23.88595865414516 5.1262490129486284 0.64278761758704617 0 0.76604443648966558 0.38302221824483279 0 -0.32139380879352308 1 I I #
face $-1 $-1 $320 $30 $-1 $321 reversed single #
loop $-1 $-1 $151 $145 #
plane-surface $-1 0 0 7.681690362777279 0 0 1 1 0 0 forward_v I I I I #
coedge $-1 $322 $323 $324 $325 reversed $146 $-1 #
coedge $-1 $326 $148 $150 $233 forward $92 $-1 #
coedge $-1 $148 $326 $322 $327 forward $92 $-1 #
coedge $-1 $324 $151 $148 $230 forward $224 $-1 #
edge $-1 $236 -9.862551495252994 $328 4.1054882345241914 $229 $329 forward 7 unknown #
coedge $-1 $330 $331 $149 $232 forward $320 $-1 #
edge $-1 $332 -60.608986431692692 $235 -57.327802111066894 $231 $333 forward 7 unknown #
edge $-1 $236 -5.7205702159110912 $332 -1.7244671030687178e-014 $150 $334 forward 7 unknown #
coedge $-1 $151 $324 $330 $335 forward $224 $-1 #
vertex $-1 $232 $336 #
vertex $-1 $152 $337 #
straight-curve $-1 -82.317465752686402 -12.741083125617395 7.6816903627772817 1 0 0 I I #
coedge $-1 $238 $238 $-1 $338 reversed $155 $-1 #
edge $-1 $339 0 $339 6.2831853071796004 $156 $340 forward 7 unknown #
vertex $-1 $159 $341 #
ellipse-curve $-1 -74.3329155692483 -5.7570632607288026 6.0410982024643847 -0.57357644374324357 0 0.81915203911291934 0.81915203911291934 0 0.57357644374324357 1 I I #
face $-1 $-1 $175 $24 $-1 $342 reversed single #
loop $-1 $-1 $258 $160 #
plane-surface $-1 0 30.97995619795233 0 0 -1 0 0 0 -1 forward_v I I I I #
coedge $-1 $343 $256 $259 $344 forward $161 $-1 #
coedge $-1 $262 $163 $164 $250 reversed $101 $-1 #
coedge $-1 $256 $343 $163 $248 reversed $161 $-1 #
edge $-1 $263 -7.681690362777279 $345 7.681690362777279 $247 $346 forward 7 unknown #
coedge $-1 $165 $164 $343 $347 forward $65 $-1 #
edge $-1 $254 -76.675923947874395 $345 76.675923947874395 $246 $348 forward 7 unknown #
coedge $-1 $259 $258 $165 $252 reversed $243 $-1 #
edge $-1 $349 -76.675923947874395 $253 76.675923947874395 $251 $350 forward 7 unknown #
vertex $-1 $167 $351 #
vertex $-1 $265 $352 #
straight-curve $-1 76.675923947874395 0 -7.681690362777279 0 -1 0 I I #
coedge $-1 $245 $247 $168 $257 reversed $161 $-1 #
edge $-1 $260 -30.97995619795233 $263 30.97995619795233 $256 $353 forward 7 unknown #
coedge $-1 $251 $169 $174 $266 forward $243 $-1 #
coedge $-1 $169 $251 $245 $344 reversed $243 $-1 #
vertex $-1 $170 $354 #
straight-curve $-1 0 30.97995619795233 7.681690362777279 -1 0 0 I I #
coedge $-1 $171 $246 $173 $265 reversed $101 $-1 #
vertex $-1 $257 $355 #
straight-curve $-1 0 -30.97995619795233 7.681690362777279 1 0 0 I I #
edge $-1 $176 -7.681690362777279 $254 7.681690362777279 $173 $356 forward 7 unknown #
edge $-1 $177 -7.681690362777279 $253 7.681690362777279 $174 $357 forward 7 unknown #
point $-1 76.675923947874395 -30.97995619795233 7.681690362777279 #
point $-1 76.675923947874395 30.97995619795233 7.681690362777279 #
face $-1 $-1 $358 $25 $-1 $359 reversed single #
loop $-1 $-1 $189 $179 #
plane-surface $-1 0 -30.97995619795233 0 0 1 0 0 0 1 forward_v I I I I #
coedge $-1 $360 $182 $276 $361 forward $109 $-1 #
coedge $-1 $182 $360 $362 $363 forward $109 $-1 #
edge $-1 $364 -76.675923947874395 $277 76.675923947874395 $182 $365 forward 7 unknown #
coedge $-1 $184 $183 $366 $367 reversed $69 $-1 #
coedge $-1 $185 $191 $272 $361 reversed $180 $-1 #
vertex $-1 $361 $368 #
straight-curve $-1 76.675923947874395 -23.014647896368079 -3.0908451813886395 0 0 1 I I #
coedge $-1 $366 $369 $187 $280 forward $358 $-1 #
edge $-1 $285 -17.481305174372228 $281 -9.5159968727879765 $279 $370 forward 7 unknown #
vertex $-1 $280 $371 #
straight-curve $-1 0 -23.014647896368079 -4.681690362777279 -1 0 0 I I #
coedge $-1 $372 $189 $369 $373 forward $270 $-1 #
coedge $-1 $189 $372 $191 $287 reversed $270 $-1 #
vertex $-1 $373 $374 #
straight-curve $-1 0 -30.97995619795233 -4.681690362777279 -1 0 0 I I #
edge $-1 $193 4.681690362777279 $375 7.681690362777279 $191 $376 forward 7 unknown #
point $-1 76.675923947874395 -23.014647896368079 -4.681690362777279 #
point $-1 76.675923947874395 -30.97995619795233 -4.681690362777279 #
plane-surface $-1 0 0 7.681690362777279 0 0 1 1 0 0 forward_v I I I I #
coedge $-1 $301 $300 $293 $377 forward $196 $-1 #
coedge $-1 $293 $198 $200 $297 reversed $117 $-1 #
coedge $-1 $198 $292 $291 $377 reversed $117 $-1 #
coedge $-1 $206 $201 $198 $295 forward $207 $-1 #
edge $-1 $298 41.697879755101113 $378 47.788792446171371 $294 $379 forward 7 unknown #
coedge $-1 $200 $199 $301 $380 reversed $73 $-1 #
edge $-1 $381 -153.35184789574876 $298 -145.40072600133055 $292 $382 forward 7 unknown #
vertex $-1 $202 $383 #
straight-curve $-1 70.585011256804137 10.740921495044583 7.6816903627772888 0 -1 0 I I #
coedge $-1 $291 $203 $206 $305 reversed $196 $-1 #
coedge $-1 $203 $291 $296 $380 forward $196 $-1 #
vertex $-1 $204 $384 #
straight-curve $-1 76.675923947874395 25.488702430182489 109.3089032652736 0 0 1 I I #
straight-curve $-1 -40.798405958073388 25.488702430182489 101.14347662459942 0.76604443648966558 0 -0.64278761758704617 I I #
edge $-1 $378 17.474983549995844 $208 25.488702430182489 $300 $385 forward 7 unknown #
point $-1 76.675923947874395 25.488702430182489 7.681690362777279 #
point $-1 70.585011256804137 25.488702430182489 7.6816903627772746 #
edge $-1 $386 1 $386 0 $211 $-1 forward 7 unknown #
vertex $-1 $212 $387 #
ellipse-curve $-1 72.826615263105481 19.077727326033173 4.1682551198166449 0.64278761758704617 0 0.76604443648966558 0.38302221824483279 0 -0.32139380879352308 1 I I #
point $-1 74.013489820584098 19.077727326033173 4.8048552041550927 #
edge $-1 $388 1 $388 0 $215 $-1 forward 7 unknown #
vertex $-1 $216 $389 #
ellipse-curve $-1 72.826615263105481 21.481842990089167 4.1682551198166449 0.64278761758704617 0 0.76604443648966558 0.38302221824483279 0 -0.32139380879352308 1 I I #
point $-1 74.013489820584098 21.481842990089167 4.8048552041550927 #
edge $-1 $390 1 $390 0 $219 $-1 forward 7 unknown #
vertex $-1 $220 $391 #
ellipse-curve $-1 72.826615263105481 23.88595865414516 4.1682551198166449 0.64278761758704617 0 0.76604443648966558 0.38302221824483279 0 -0.32139380879352308 1 I I #
point $-1 74.013489820584098 23.88595865414516 4.8048552041550927 #
loop $-1 $-1 $231 $223 #
plane-surface $-1 -76.675923947874395 0 0 1 0 0 0 0 -1 forward_v I I I I #
coedge $-1 $323 $226 $228 $327 reversed $146 $-1 #
coedge $-1 $226 $322 $392 $393 reversed $146 $-1 #
coedge $-1 $234 $229 $226 $325 forward $224 $-1 #
edge $-1 $328 -10.327558562064198 $394 -5.6415418048120074 $324 $395 forward 7 unknown #
coedge $-1 $228 $227 $331 $396 reversed $92 $-1 #
edge $-1 $397 1.7244671030687178e-014 $328 5.7205702159110912 $322 $398 forward 7 unknown #
vertex $-1 $230 $399 #
straight-curve $-1 -71.989907190622205 -2.8785316303644013 7.6816903627772799 0 1 0 I I #
coedge $-1 $392 $231 $234 $335 reversed $320 $-1 #
coedge $-1 $231 $392 $326 $396 forward $320 $-1 #
vertex $-1 $232 $400 #
straight-curve $-1 -76.675923947874395 -12.741083125617395 65.009492473844176 0 0 1 I I #
straight-curve $-1 -76.675923947874409 -12.741083125617395 4.400506042151477 -0.81915203911291934 0 -0.57357644374324357 I I #
edge $-1 $394 -1.2269566041597901 $235 12.741083125617395 $330 $401 forward 7 unknown #
point $-1 -76.675923947874395 -12.741083125617395 7.681690362777279 #
point $-1 -71.989907190622205 -12.741083125617395 7.681690362777279 #
edge $-1 $402 1 $402 0 $238 $-1 forward 7 unknown #
vertex $-1 $239 $403 #
ellipse-curve $-1 -72.835353634523656 -5.7570632607288026 3.9023581514927144 -0.57357644374324357 0 0.81915203911291934 0.81915203911291934 0 0.57357644374324357 1 I I #
point $-1 -73.513763530135378 -5.7570632607288026 6.6146746462076216 #
plane-surface $-1 76.675923947874395 0 0 -1 0 0 0 0 1 forward_v I I I I #
coedge $-1 $247 $245 $249 $347 reversed $161 $-1 #
edge $-1 $260 -7.681690362777279 $349 7.681690362777279 $259 $404 forward 7 unknown #
vertex $-1 $347 $405 #
straight-curve $-1 -76.675923947874395 -30.97995619795233 0 0 0 -1 I I #
edge $-1 $345 -30.97995619795233 $349 30.97995619795233 $343 $406 forward 7 unknown #
straight-curve $-1 0 -30.97995619795233 -7.681690362777279 -1 0 0 I I #
vertex $-1 $252 $407 #
straight-curve $-1 0 30.97995619795233 -7.681690362777279 1 0 0 I I #
point $-1 76.675923947874395 30.97995619795233 -7.681690362777279 #
point $-1 76.675923947874395 -30.97995619795233 -7.681690362777279 #
straight-curve $-1 -76.675923947874395 0 7.681690362777279 0 -1 0 I I #
point $-1 -76.675923947874395 30.97995619795233 7.681690362777279 #
point $-1 -76.675923947874395 -30.97995619795233 7.681690362777279 #
straight-curve $-1 76.675923947874395 -30.97995619795233 0 0 0 -1 I I #
straight-curve $-1 76.675923947874395 30.97995619795233 0 0 0 -1 I I #
loop $-1 $-1 $366 $269 #
plane-surface $-1 -76.675923947874395 0 0 1 0 0 0 0 -1 forward_v I I I I #
coedge $-1 $273 $272 $372 $408 forward $109 $-1 #
edge $-1 $277 23.014647896368079 $375 30.97995619795233 $276 $409 forward 7 unknown #
coedge $-1 $369 $366 $273 $363 reversed $358 $-1 #
edge $-1 $410 -30.97995619795233 $364 -23.014647896368079 $362 $411 forward 7 unknown #
vertex $-1 $367 $412 #
straight-curve $-1 0 -23.014647896368079 -7.681690362777279 1 0 0 I I #
coedge $-1 $362 $279 $275 $367 forward $358 $-1 #
edge $-1 $281 1.5908451813886395 $364 4.5908451813886391 $366 $413 forward 7 unknown #
point $-1 76.675923947874395 -23.014647896368079 -7.681690362777279 #
coedge $-1 $279 $362 $283 $373 reversed $358 $-1 #
straight-curve $-1 -76.675923947874395 -13.498651023580102 -4.681690362777279 0 1 0 I I #
point $-1 -76.675923947874395 -23.014647896368079 -4.681690362777279 #
coedge $-1 $284 $283 $360 $408 reversed $270 $-1 #
edge $-1 $285 4.681690362777279 $410 7.681690362777279 $369 $414 forward 7 unknown #
point $-1 -76.675923947874395 -30.97995619795233 -4.681690362777279 #
vertex $-1 $287 $415 #
straight-curve $-1 76.675923947874395 -30.97995619795233 0 0 0 -1 I I #
edge $-1 $378 101.62721290249632 $381 106.73809560215362 $291 $416 forward 7 unknown #
vertex $-1 $305 $417 #
straight-curve $-1 28.887131501703024 17.474983549995844 7.6816903627772746 1 0 0 I I #
edge $-1 $381 6.7340620549512611 $302 14.747780935137905 $301 $418 forward 7 unknown #
vertex $-1 $380 $419 #
straight-curve $-1 -40.798405958073388 17.474983549995844 101.14347662459942 -0.76604443648966558 0 0.64278761758704617 I I #
point $-1 70.585011256804137 17.474983549995844 7.6816903627772746 #
point $-1 76.675923947874395 25.488702430182489 2.5708076631199788 #
straight-curve $-1 76.675923947874395 0 7.681690362777279 0 1 0 I I #
vertex $-1 $308 $420 #
point $-1 73.209637481350313 19.077727326033173 3.846861311023122 #
vertex $-1 $312 $421 #
point $-1 73.209637481350313 21.481842990089167 3.846861311023122 #
vertex $-1 $316 $422 #
point $-1 73.209637481350313 23.88595865414516 3.846861311023122 #
coedge $-1 $331 $330 $323 $393 forward $320 $-1 #
edge $-1 $394 57.327802111066894 $397 60.608986431692692 $392 $423 forward 7 unknown #
vertex $-1 $335 $424 #
straight-curve $-1 -82.317465752686402 1.2269566041597901 7.6816903627772817 -1 0 0 I I #
edge $-1 $397 -4.1054882345241914 $332 9.862551495252994 $331 $425 forward 7 unknown #
vertex $-1 $396 $426 #
straight-curve $-1 -76.675923947874409 1.2269566041597901 4.400506042151477 0.81915203911291934 0 0.57357644374324357 I I #
point $-1 -71.989907190622205 1.2269566041597901 7.681690362777279 #
point $-1 -76.675923947874395 -12.741083125617395 4.4005060421514868 #
straight-curve $-1 -76.675923947874395 0 7.681690362777279 0 -1 0 I I #
vertex $-1 $338 $427 #
point $-1 -72.016201595410735 -5.7570632607288026 4.4759345952359579 #
straight-curve $-1 -76.675923947874395 30.97995619795233 0 0 0 -1 I I #
point $-1 -76.675923947874395 -30.97995619795233 -7.681690362777279 #
straight-curve $-1 -76.675923947874395 0 -7.681690362777279 0 1 0 I I #
point $-1 -76.675923947874395 30.97995619795233 -7.681690362777279 #
edge $-1 $375 -76.675923947874395 $410 76.675923947874395 $372 $428 forward 7 unknown #
straight-curve $-1 76.675923947874395 0 -7.681690362777279 0 -1 0 I I #
vertex $-1 $363 $429 #
straight-curve $-1 -76.675923947874395 0 -7.681690362777279 0 1 0 I I #
point $-1 -76.675923947874395 -23.014647896368079 -7.681690362777279 #
straight-curve $-1 -76.675923947874395 -23.014647896368079 -3.0908451813886395 0 0 -1 I I #
straight-curve $-1 -76.675923947874395 -30.97995619795233 0 0 0 -1 I I #
point $-1 76.675923947874395 -30.97995619795233 -7.681690362777279 #
straight-curve $-1 76.675923947874395 17.474983549995844 109.3089032652736 0 0 -1 I I #
point $-1 76.675923947874395 17.474983549995844 7.681690362777279 #
straight-curve $-1 76.675923947874381 10.740921495044583 2.570807663119993 0 1 0 I I #
point $-1 76.675923947874395 17.474983549995844 2.5708076631199788 #
point $-1 72.505221454311965 19.077727326033173 3.7852329015718125 #
point $-1 72.505221454311965 21.481842990089167 3.7852329015718125 #
point $-1 72.505221454311965 23.88595865414516 3.7852329015718125 #
straight-curve $-1 -76.675923947874395 1.2269566041597901 65.009492473844176 0 0 -1 I I #
point $-1 -76.675923947874395 1.2269566041597901 7.681690362777279 #
straight-curve $-1 -76.675923947874395 -2.8785316303644013 4.4005060421514823 0 -1 0 I I #
point $-1 -76.675923947874395 1.2269566041597901 4.4005060421514868 #
point $-1 -72.261777190780421 -5.7570632607288026 3.0832061123797954 #
straight-curve $-1 0 -30.97995619795233 -7.681690362777279 -1 0 0 I I #
point $-1 -76.675923947874395 -30.97995619795233 -7.681690362777279 #
End-of-ACIS-data 