500 0 18 0           
7 Unknown 11 ACIS 5.0 NT 24 Thu Mar 25 18:13:29 1999 
-1 9.9999999999999995e-007 1e-010 
body $-1 $18 $-1 $19 #
body $-1 $20 $-1 $21 #
body $-1 $22 $-1 $23 #
body $-1 $24 $-1 $25 #
body $-1 $26 $-1 $27 #
body $-1 $28 $-1 $29 #
body $-1 $30 $-1 $31 #
body $-1 $32 $-1 $33 #
body $-1 $34 $-1 $35 #
body $-1 $36 $-1 $37 #
body $-1 $38 $-1 $39 #
body $-1 $40 $-1 $41 #
body $-1 $42 $-1 $43 #
body $-1 $44 $-1 $45 #
body $-1 $46 $-1 $47 #
body $-1 $48 $-1 $49 #
body $-1 $50 $-1 $51 #
body $-1 $52 $-1 $53 #
lump $-1 $-1 $54 $0 #
transform $-1 1 0 0 0 1 0 0 0 1 72.203131199072232 32.397428402183891 14.469144160992446 1 rotate no_reflect no_shear #
lump $-1 $-1 $55 $1 #
transform $-1 1 0 0 0 1 0 0 0 1 72.203131199072232 32.397428402183891 14.469144160992446 1 rotate no_reflect no_shear #
lump $-1 $-1 $56 $2 #
transform $-1 1 0 0 0 1 0 0 0 1 72.203131199072232 32.397428402183891 14.469144160992446 1 rotate no_reflect no_shear #
lump $-1 $-1 $57 $3 #
transform $-1 1 0 0 0 1 0 0 0 1 72.203131199072232 32.397428402183891 14.469144160992446 1 rotate no_reflect no_shear #
lump $-1 $-1 $58 $4 #
transform $-1 1 0 0 0 1 0 0 0 1 72.203131199072232 32.397428402183891 14.469144160992446 1 rotate no_reflect no_shear #
lump $-1 $-1 $59 $5 #
transform $-1 1 0 0 0 1 0 0 0 1 72.203131199072232 32.397428402183891 14.469144160992446 1 rotate no_reflect no_shear #
lump $-1 $-1 $60 $6 #
transform $-1 1 0 0 0 1 0 0 0 1 72.203131199072232 32.397428402183891 14.469144160992446 1 rotate no_reflect no_shear #
lump $-1 $-1 $61 $7 #
transform $-1 1 0 0 0 1 0 0 0 1 72.203131199072232 32.397428402183891 14.469144160992446 1 rotate no_reflect no_shear #
lump $-1 $-1 $62 $8 #
transform $-1 1 0 0 0 1 0 0 0 1 72.203131199072232 32.397428402183891 14.469144160992446 1 rotate no_reflect no_shear #
lump $-1 $-1 $63 $9 #
transform $-1 1 0 0 0 1 0 0 0 1 72.203131199072232 32.397428402183891 14.469144160992446 1 rotate no_reflect no_shear #
lump $-1 $-1 $64 $10 #
transform $-1 1 0 0 0 1 0 0 0 1 72.203131199072232 32.397428402183891 14.469144160992446 1 rotate no_reflect no_shear #
lump $-1 $-1 $65 $11 #
transform $-1 1 0 0 0 1 0 0 0 1 72.203131199072232 32.397428402183891 14.469144160992446 1 rotate no_reflect no_shear #
lump $-1 $-1 $66 $12 #
transform $-1 1 0 0 0 1 0 0 0 1 72.203131199072232 32.397428402183891 14.469144160992446 1 rotate no_reflect no_shear #
lump $-1 $-1 $67 $13 #
transform $-1 1 0 0 0 1 0 0 0 1 72.203131199072232 32.397428402183891 14.469144160992446 1 rotate no_reflect no_shear #
lump $-1 $-1 $68 $14 #
transform $-1 1 0 0 0 1 0 0 0 1 72.203131199072232 32.397428402183891 14.469144160992446 1 rotate no_reflect no_shear #
lump $-1 $-1 $69 $15 #
transform $-1 1 0 0 0 1 0 0 0 1 72.203131199072232 32.397428402183891 14.469144160992446 1 rotate no_reflect no_shear #
lump $-1 $-1 $70 $16 #
transform $-1 1 0 0 0 1 0 0 0 1 72.203131199072232 32.397428402183891 14.469144160992446 1 rotate no_reflect no_shear #
lump $-1 $-1 $71 $17 #
transform $-1 1 0 0 0 1 0 0 0 1 72.203131199072232 32.397428402183891 14.469144160992446 1 rotate no_reflect no_shear #
shell $-1 $-1 $-1 $72 $-1 $18 #
shell $-1 $-1 $-1 $73 $-1 $20 #
shell $-1 $-1 $-1 $74 $-1 $22 #
shell $-1 $-1 $-1 $75 $-1 $24 #
shell $-1 $-1 $-1 $76 $-1 $26 #
shell $-1 $-1 $-1 $77 $-1 $28 #
shell $-1 $-1 $-1 $78 $-1 $30 #
shell $-1 $-1 $-1 $79 $-1 $32 #
shell $-1 $-1 $-1 $80 $-1 $34 #
shell $-1 $-1 $-1 $81 $-1 $36 #
shell $-1 $-1 $-1 $82 $-1 $38 #
shell $-1 $-1 $-1 $83 $-1 $40 #
shell $-1 $-1 $-1 $84 $-1 $42 #
shell $-1 $-1 $-1 $85 $-1 $44 #
shell $-1 $-1 $-1 $86 $-1 $46 #
shell $-1 $-1 $-1 $87 $-1 $48 #
shell $-1 $-1 $-1 $88 $-1 $50 #
shell $-1 $-1 $-1 $89 $-1 $52 #
face $-1 $90 $91 $54 $-1 $92 forward single #
face $-1 $93 $94 $55 $-1 $95 forward single #
face $-1 $96 $97 $56 $-1 $98 reversed single #
face $-1 $99 $100 $57 $-1 $101 forward single #
face $-1 $102 $103 $58 $-1 $104 forward single #
face $-1 $105 $106 $59 $-1 $107 forward single #
face $-1 $108 $109 $60 $-1 $110 reversed single #
face $-1 $111 $112 $61 $-1 $113 forward single #
face $-1 $114 $115 $62 $-1 $116 forward single #
face $-1 $117 $118 $63 $-1 $119 reversed single #
face $-1 $120 $121 $64 $-1 $122 forward single #
face $-1 $123 $124 $65 $-1 $125 forward single #
face $-1 $126 $127 $66 $-1 $128 reversed single #
face $-1 $129 $130 $67 $-1 $131 forward single #
face $-1 $132 $133 $68 $-1 $134 forward single #
face $-1 $135 $136 $69 $-1 $137 reversed single #
face $-1 $138 $139 $70 $-1 $140 forward single #
face $-1 $141 $142 $71 $-1 $143 forward single #
face $-1 $144 $145 $54 $-1 $146 reversed single #
loop $-1 $-1 $147 $72 #
plane-surface $-1 0 0 14.469144160992446 0 0 1 1 0 0 forward_v I I I I #
face $-1 $148 $149 $55 $-1 $150 reversed single #
loop $-1 $-1 $151 $73 #
plane-surface $-1 0 -27.162134632545172 -1.7788724304211416 0 0 1 1 0 0 forward_v I I I I #
face $-1 $152 $153 $56 $-1 $154 reversed single #
loop $-1 $-1 $155 $74 #
plane-surface $-1 -157.08300365977283 10.09176212771423 122.89858705723495 0 1 0 -0.5877852598018023 0 0.80901698891910034 forward_v I I I I #
face $-1 $156 $157 $57 $-1 $158 forward single #
loop $-1 $159 $160 $75 #
cone-surface $-1 -66.084053072398277 12.120836689088428 9.8025106978089038 0.5877852598018023 0 -0.80901698891910034 0.40450849445955017 0 0.29389262990090115 1 I I 0 1 0.5 forward I I I I #
face $-1 $161 $162 $58 $-1 $163 forward single #
loop $-1 $164 $165 $76 #
cone-surface $-1 -66.084053072398277 15.164448531149731 9.8025106978089038 0.5877852598018023 0 -0.80901698891910034 0.40450849445955017 0 0.29389262990090115 1 I I 0 1 0.5 forward I I I I #
face $-1 $166 $167 $59 $-1 $168 forward single #
loop $-1 $169 $170 $77 #
cone-surface $-1 -66.084053072398277 18.208060373211026 9.8025106978089038 0.5877852598018023 0 -0.80901698891910034 0.40450849445955017 0 0.29389262990090115 1 I I 0 1 0.5 forward I I I I #
face $-1 $171 $172 $60 $-1 $173 reversed single #
loop $-1 $-1 $174 $78 #
plane-surface $-1 33.235872865932507 -8.3457735466338647 205.35267030143763 0 -1 0 -0.55919291073839883 0 -0.82903756765294845 forward_v I I I I #
face $-1 $175 $176 $61 $-1 $177 forward single #
loop $-1 $178 $179 $79 #
cone-surface $-1 64.637133191678643 -12.801039190972133 8.9938319620550029 -0.55919291073839883 0 -0.82903756765294845 0.41451878382647422 0 -0.27959645536919941 1 I I 0 1 0.5 forward I I I I #
face $-1 $180 $181 $62 $-1 $182 forward single #
loop $-1 $183 $184 $80 #
cone-surface $-1 64.637133191678643 -10.127879804369172 8.9938319620550029 -0.55919291073839883 0 -0.82903756765294845 0.41451878382647422 0 -0.27959645536919941 1 I I 0 1 0.5 forward I I I I #
face $-1 $185 $186 $63 $-1 $187 reversed single #
loop $-1 $-1 $188 $81 #
plane-surface $-1 33.235872865932507 2.7873952982390477 205.35267030143763 0 -1 0 -0.55919291073839883 0 -0.82903756765294845 forward_v I I I I #
face $-1 $189 $190 $64 $-1 $191 forward single #
loop $-1 $192 $193 $82 #
cone-surface $-1 64.637133191678643 -1.667870346099221 8.9938319620550029 -0.55919291073839883 0 -0.82903756765294845 0.41451878382647422 0 -0.27959645536919941 1 I I 0 1 0.5 forward I I I I #
face $-1 $194 $195 $65 $-1 $196 forward single #
loop $-1 $197 $198 $83 #
cone-surface $-1 64.637133191678643 1.0052890405037402 8.9938319620550029 -0.55919291073839883 0 -0.82903756765294845 0.41451878382647422 0 -0.27959645536919941 1 I I 0 1 0.5 forward I I I I #
face $-1 $199 $200 $66 $-1 $201 reversed single #
loop $-1 $-1 $202 $84 #
plane-surface $-1 33.235872865932507 13.92056414311196 205.35267030143763 0 -1 0 -0.55919291073839883 0 -0.82903756765294845 forward_v I I I I #
face $-1 $203 $204 $67 $-1 $205 forward single #
loop $-1 $206 $207 $85 #
cone-surface $-1 64.637133191678643 9.4652984987736914 8.9938319620550029 -0.55919291073839883 0 -0.82903756765294845 0.41451878382647422 0 -0.27959645536919941 1 I I 0 1 0.5 forward I I I I #
face $-1 $208 $209 $68 $-1 $210 forward single #
loop $-1 $211 $212 $86 #
cone-surface $-1 64.637133191678643 12.138457885376653 8.9938319620550029 -0.55919291073839883 0 -0.82903756765294845 0.41451878382647422 0 -0.27959645536919941 1 I I 0 1 0.5 forward I I I I #
face $-1 $213 $214 $69 $-1 $215 reversed single #
loop $-1 $-1 $216 $87 #
plane-surface $-1 33.235872865932507 25.053732987984873 205.35267030143763 0 -1 0 -0.55919291073839883 0 -0.82903756765294845 forward_v I I I I #
face $-1 $217 $218 $70 $-1 $219 forward single #
loop $-1 $220 $221 $88 #
cone-surface $-1 64.637133191678643 20.598467343646604 8.9938319620550029 -0.55919291073839883 0 -0.82903756765294845 0.41451878382647422 0 -0.27959645536919941 1 I I 0 1 0.5 forward I I I I #
face $-1 $222 $223 $71 $-1 $224 forward single #
loop $-1 $225 $226 $89 #
cone-surface $-1 64.637133191678643 23.271626730249565 8.9938319620550029 -0.55919291073839883 0 -0.82903756765294845 0.41451878382647422 0 -0.27959645536919941 1 I I 0 1 0.5 forward I I I I #
face $-1 $227 $228 $54 $-1 $229 reversed single #
loop $-1 $-1 $230 $90 #
plane-surface $-1 0 0 -14.469144160992446 0 0 1 1 0 0 forward_v I I I I #
coedge $-1 $231 $232 $233 $234 forward $91 $-1 #
face $-1 $235 $236 $55 $-1 $237 reversed single #
loop $-1 $-1 $238 $93 #
plane-surface $-1 0 -27.162134632545172 -7.504797670314602 0 0 1 1 0 0 forward_v I I I I #
coedge $-1 $239 $240 $241 $242 reversed $94 $-1 #
face $-1 $243 $244 $56 $-1 $245 reversed single #
loop $-1 $-1 $246 $96 #
plane-surface $-1 -72.203131199072246 15.164448531149731 6.0714674708266188 -0.5877852598018023 0 0.80901698891910034 0.80901698891910034 0 0.5877852598018023 forward_v I I I I #
coedge $-1 $247 $248 $249 $250 reversed $97 $-1 #
face $-1 $-1 $251 $57 $-1 $252 forward single #
loop $-1 $253 $254 $99 #
cone-surface $-1 -65.59723370312031 12.120836689088428 9.1324613324785098 0.5877852598018023 0 -0.80901698891910034 0.20225424722977509 0 0.14694631495045057 1 I I -0.70710678118654746 0.70710678118654746 0.25 forward I I I I #
loop $-1 $-1 $255 $75 #
coedge $-1 $160 $160 $256 $257 reversed $100 $-1 #
face $-1 $-1 $258 $58 $-1 $259 forward single #
loop $-1 $260 $261 $102 #
cone-surface $-1 -65.59723370312031 15.164448531149731 9.1324613324785098 0.5877852598018023 0 -0.80901698891910034 0.20225424722977509 0 0.14694631495045057 1 I I -0.70710678118654746 0.70710678118654746 0.25 forward I I I I #
loop $-1 $-1 $262 $76 #
coedge $-1 $165 $165 $263 $264 reversed $103 $-1 #
face $-1 $-1 $265 $59 $-1 $266 forward single #
loop $-1 $267 $268 $105 #
cone-surface $-1 -65.59723370312031 18.208060373211026 9.1324613324785098 0.5877852598018023 0 -0.80901698891910034 0.20225424722977509 0 0.14694631495045057 1 I I -0.70710678118654746 0.70710678118654746 0.25 forward I I I I #
loop $-1 $-1 $269 $77 #
coedge $-1 $170 $170 $270 $271 reversed $106 $-1 #
face $-1 $272 $273 $60 $-1 $274 reversed single #
loop $-1 $-1 $275 $108 #
plane-surface $-1 -47.515085333338888 -11.464459497670653 85.634453769026507 0.55919291073839883 0 0.82903756765294845 0.82903756765294845 0 -0.55919291073839883 forward_v I I I I #
coedge $-1 $276 $277 $278 $279 reversed $109 $-1 #
face $-1 $-1 $280 $61 $-1 $281 forward single #
loop $-1 $282 $283 $111 #
cone-surface $-1 64.036991051858649 -12.801039190972133 8.1040846668229882 -0.55919291073839883 0 -0.82903756765294845 0.20725939191323711 0 -0.13979822768459971 1 I I -0.70710678118654746 0.70710678118654746 0.25 forward I I I I #
loop $-1 $-1 $284 $79 #
coedge $-1 $179 $179 $285 $286 reversed $112 $-1 #
face $-1 $-1 $287 $62 $-1 $288 forward single #
loop $-1 $289 $290 $114 #
cone-surface $-1 64.036991051858649 -10.127879804369172 8.1040846668229882 -0.55919291073839883 0 -0.82903756765294845 0.20725939191323711 0 -0.13979822768459971 1 I I -0.70710678118654746 0.70710678118654746 0.25 forward I I I I #
loop $-1 $-1 $291 $80 #
coedge $-1 $184 $184 $292 $293 reversed $115 $-1 #
face $-1 $294 $295 $63 $-1 $296 reversed single #
loop $-1 $-1 $297 $117 #
plane-surface $-1 -47.515085333338888 -0.33129065279774039 85.634453769026507 0.55919291073839883 0 0.82903756765294845 0.82903756765294845 0 -0.55919291073839883 forward_v I I I I #
coedge $-1 $298 $299 $300 $301 reversed $118 $-1 #
face $-1 $-1 $302 $64 $-1 $303 forward single #
loop $-1 $304 $305 $120 #
cone-surface $-1 64.036991051858649 -1.667870346099221 8.1040846668229882 -0.55919291073839883 0 -0.82903756765294845 0.20725939191323711 0 -0.13979822768459971 1 I I -0.70710678118654746 0.70710678118654746 0.25 forward I I I I #
loop $-1 $-1 $306 $82 #
coedge $-1 $193 $193 $307 $308 reversed $121 $-1 #
face $-1 $-1 $309 $65 $-1 $310 forward single #
loop $-1 $311 $312 $123 #
cone-surface $-1 64.036991051858649 1.0052890405037402 8.1040846668229882 -0.55919291073839883 0 -0.82903756765294845 0.20725939191323711 0 -0.13979822768459971 1 I I -0.70710678118654746 0.70710678118654746 0.25 forward I I I I #
loop $-1 $-1 $313 $83 #
coedge $-1 $198 $198 $314 $315 reversed $124 $-1 #
face $-1 $316 $317 $66 $-1 $318 reversed single #
loop $-1 $-1 $319 $126 #
plane-surface $-1 -47.515085333338888 10.801878192075172 85.634453769026507 0.55919291073839883 0 0.82903756765294845 0.82903756765294845 0 -0.55919291073839883 forward_v I I I I #
coedge $-1 $320 $321 $322 $323 reversed $127 $-1 #
face $-1 $-1 $324 $67 $-1 $325 forward single #
loop $-1 $326 $327 $129 #
cone-surface $-1 64.036991051858649 9.4652984987736914 8.1040846668229882 -0.55919291073839883 0 -0.82903756765294845 0.20725939191323711 0 -0.13979822768459971 1 I I -0.70710678118654746 0.70710678118654746 0.25 forward I I I I #
loop $-1 $-1 $328 $85 #
coedge $-1 $207 $207 $329 $330 reversed $130 $-1 #
face $-1 $-1 $331 $68 $-1 $332 forward single #
loop $-1 $333 $334 $132 #
cone-surface $-1 64.036991051858649 12.138457885376653 8.1040846668229882 -0.55919291073839883 0 -0.82903756765294845 0.20725939191323711 0 -0.13979822768459971 1 I I -0.70710678118654746 0.70710678118654746 0.25 forward I I I I #
loop $-1 $-1 $335 $86 #
coedge $-1 $212 $212 $336 $337 reversed $133 $-1 #
face $-1 $338 $339 $69 $-1 $340 reversed single #
loop $-1 $-1 $341 $135 #
plane-surface $-1 -47.515085333338888 21.935047036948085 85.634453769026507 0.55919291073839883 0 0.82903756765294845 0.82903756765294845 0 -0.55919291073839883 forward_v I I I I #
coedge $-1 $342 $343 $344 $345 reversed $136 $-1 #
face $-1 $-1 $346 $70 $-1 $347 forward single #
loop $-1 $348 $349 $138 #
cone-surface $-1 64.036991051858649 20.598467343646604 8.1040846668229882 -0.55919291073839883 0 -0.82903756765294845 0.20725939191323711 0 -0.13979822768459971 1 I I -0.70710678118654746 0.70710678118654746 0.25 forward I I I I #
loop $-1 $-1 $350 $88 #
coedge $-1 $221 $221 $351 $352 reversed $139 $-1 #
face $-1 $-1 $353 $71 $-1 $354 forward single #
loop $-1 $355 $356 $141 #
cone-surface $-1 64.036991051858649 23.271626730249565 8.1040846668229882 -0.55919291073839883 0 -0.82903756765294845 0.20725939191323711 0 -0.13979822768459971 1 I I -0.70710678118654746 0.70710678118654746 0.25 forward I I I I #
loop $-1 $-1 $357 $89 #
coedge $-1 $226 $226 $358 $359 reversed $142 $-1 #
face $-1 $360 $361 $54 $-1 $362 reversed single #
loop $-1 $-1 $363 $144 #
plane-surface $-1 0 -32.397428402183891 0 0 1 0 0 0 1 forward_v I I I I #
coedge $-1 $364 $365 $366 $367 forward $145 $-1 #
coedge $-1 $368 $147 $369 $370 forward $91 $-1 #
coedge $-1 $147 $368 $371 $372 forward $91 $-1 #
coedge $-1 $373 $374 $147 $234 reversed $375 $-1 #
edge $-1 $376 -32.397428402183891 $377 32.397428402183891 $233 $378 forward 7 unknown #
face $-1 $379 $380 $55 $-1 $381 reversed single #
loop $-1 $-1 $382 $148 #
plane-surface $-1 0 -21.926840862906452 -4.641835050367872 0 -1 0 0 0 -1 forward_v I I I I #
coedge $-1 $383 $384 $385 $386 reversed $149 $-1 #
coedge $-1 $387 $151 $388 $389 forward $94 $-1 #
coedge $-1 $151 $387 $390 $391 reversed $94 $-1 #
coedge $-1 $392 $393 $151 $242 forward $394 $-1 #
edge $-1 $395 8.3457735466338665 $396 18.816361085911304 $241 $397 forward 7 unknown #
face $-1 $398 $399 $56 $-1 $400 reversed single #
loop $-1 $-1 $401 $152 #
plane-surface $-1 -157.08300365977283 20.237134934585232 122.89858705723495 0 -1 0 0.5877852598018023 0 -0.80901698891910034 forward_v I I I I #
coedge $-1 $402 $403 $404 $405 reversed $153 $-1 #
coedge $-1 $248 $155 $406 $407 reversed $97 $-1 #
coedge $-1 $155 $247 $402 $408 reversed $97 $-1 #
coedge $-1 $404 $409 $155 $250 forward $410 $-1 #
edge $-1 $411 6.3383706308141825 $412 17.896780775507018 $249 $413 forward 7 unknown #
loop $-1 $-1 $256 $156 #
plane-surface $-1 -72.203131199072246 15.164448531149731 6.0714674708266188 -0.5877852598018023 0 0.80901698891910034 0.80901698891910034 0 0.5877852598018023 forward_v I I I I #
loop $-1 $-1 $414 $99 #
coedge $-1 $254 $254 $255 $415 reversed $157 $-1 #
coedge $-1 $255 $255 $254 $415 forward $159 $-1 #
coedge $-1 $256 $256 $160 $257 forward $251 $-1 #
edge $-1 $416 0 $416 6.2831853071796004 $256 $417 forward 7 unknown #
loop $-1 $-1 $263 $161 #
plane-surface $-1 -72.203131199072246 15.164448531149731 6.0714674708266188 -0.5877852598018023 0 0.80901698891910034 0.80901698891910034 0 0.5877852598018023 forward_v I I I I #
loop $-1 $-1 $418 $102 #
coedge $-1 $261 $261 $262 $419 reversed $162 $-1 #
coedge $-1 $262 $262 $261 $419 forward $164 $-1 #
coedge $-1 $263 $263 $165 $264 forward $258 $-1 #
edge $-1 $420 0 $420 6.2831853071796004 $263 $421 forward 7 unknown #
loop $-1 $-1 $270 $166 #
plane-surface $-1 -72.203131199072246 15.164448531149731 6.0714674708266188 -0.5877852598018023 0 0.80901698891910034 0.80901698891910034 0 0.5877852598018023 forward_v I I I I #
loop $-1 $-1 $422 $105 #
coedge $-1 $268 $268 $269 $423 reversed $167 $-1 #
coedge $-1 $269 $269 $268 $423 forward $169 $-1 #
coedge $-1 $270 $270 $170 $271 forward $265 $-1 #
edge $-1 $424 0 $424 6.2831853071796004 $270 $425 forward 7 unknown #
face $-1 $426 $427 $60 $-1 $428 forward single #
loop $-1 $-1 $429 $171 #
plane-surface $-1 33.235872865932507 -14.583145448707441 205.35267030143763 0 1 0 0.55919291073839883 0 0.82903756765294845 forward_v I I I I #
coedge $-1 $430 $431 $432 $433 reversed $172 $-1 #
coedge $-1 $277 $174 $434 $435 reversed $109 $-1 #
coedge $-1 $174 $276 $430 $436 reversed $109 $-1 #
coedge $-1 $432 $437 $174 $279 forward $427 $-1 #
edge $-1 $438 -55.585194766105978 $439 -41.373886575589573 $278 $440 forward 7 unknown #
loop $-1 $-1 $285 $175 #
plane-surface $-1 -47.515085333338888 -11.464459497670653 85.634453769026507 0.55919291073839883 0 0.82903756765294845 0.82903756765294845 0 -0.55919291073839883 forward_v I I I I #
loop $-1 $-1 $441 $111 #
coedge $-1 $283 $283 $284 $442 reversed $176 $-1 #
coedge $-1 $284 $284 $283 $442 forward $178 $-1 #
coedge $-1 $285 $285 $179 $286 forward $280 $-1 #
edge $-1 $443 0 $443 6.2831853071796004 $285 $444 forward 7 unknown #
loop $-1 $-1 $292 $180 #
plane-surface $-1 -47.515085333338888 -11.464459497670653 85.634453769026507 0.55919291073839883 0 0.82903756765294845 0.82903756765294845 0 -0.55919291073839883 forward_v I I I I #
loop $-1 $-1 $445 $114 #
coedge $-1 $290 $290 $291 $446 reversed $181 $-1 #
coedge $-1 $291 $291 $290 $446 forward $183 $-1 #
coedge $-1 $292 $292 $184 $293 forward $287 $-1 #
edge $-1 $447 0 $447 6.2831853071796004 $292 $448 forward 7 unknown #
face $-1 $449 $450 $63 $-1 $451 reversed single #
loop $-1 $-1 $452 $185 #
plane-surface $-1 33.235872865932507 -3.4499766038345285 205.35267030143763 0 1 0 0.55919291073839883 0 0.82903756765294845 forward_v I I I I #
coedge $-1 $453 $454 $455 $456 reversed $186 $-1 #
coedge $-1 $299 $188 $457 $458 reversed $118 $-1 #
coedge $-1 $188 $298 $453 $459 reversed $118 $-1 #
coedge $-1 $455 $460 $188 $301 forward $461 $-1 #
edge $-1 $462 -55.585194766105978 $463 -41.373886575589573 $300 $464 forward 7 unknown #
loop $-1 $-1 $307 $189 #
plane-surface $-1 -47.515085333338888 -0.33129065279774039 85.634453769026507 0.55919291073839883 0 0.82903756765294845 0.82903756765294845 0 -0.55919291073839883 forward_v I I I I #
loop $-1 $-1 $465 $120 #
coedge $-1 $305 $305 $306 $466 reversed $190 $-1 #
coedge $-1 $306 $306 $305 $466 forward $192 $-1 #
coedge $-1 $307 $307 $193 $308 forward $302 $-1 #
edge $-1 $467 0 $467 6.2831853071796004 $307 $468 forward 7 unknown #
loop $-1 $-1 $314 $194 #
plane-surface $-1 -47.515085333338888 -0.33129065279774039 85.634453769026507 0.55919291073839883 0 0.82903756765294845 0.82903756765294845 0 -0.55919291073839883 forward_v I I I I #
loop $-1 $-1 $469 $123 #
coedge $-1 $312 $312 $313 $470 reversed $195 $-1 #
coedge $-1 $313 $313 $312 $470 forward $197 $-1 #
coedge $-1 $314 $314 $198 $315 forward $309 $-1 #
edge $-1 $471 0 $471 6.2831853071796004 $314 $472 forward 7 unknown #
face $-1 $473 $474 $66 $-1 $475 reversed single #
loop $-1 $-1 $476 $199 #
plane-surface $-1 33.235872865932507 7.6831922410383839 205.35267030143763 0 1 0 0.55919291073839883 0 0.82903756765294845 forward_v I I I I #
coedge $-1 $477 $478 $479 $480 reversed $200 $-1 #
coedge $-1 $321 $202 $481 $482 reversed $127 $-1 #
coedge $-1 $202 $320 $477 $483 reversed $127 $-1 #
coedge $-1 $479 $484 $202 $323 forward $485 $-1 #
edge $-1 $486 -55.585194766105978 $487 -41.373886575589573 $322 $488 forward 7 unknown #
loop $-1 $-1 $329 $203 #
plane-surface $-1 -47.515085333338888 10.801878192075172 85.634453769026507 0.55919291073839883 0 0.82903756765294845 0.82903756765294845 0 -0.55919291073839883 forward_v I I I I #
loop $-1 $-1 $489 $129 #
coedge $-1 $327 $327 $328 $490 reversed $204 $-1 #
coedge $-1 $328 $328 $327 $490 forward $206 $-1 #
coedge $-1 $329 $329 $207 $330 forward $324 $-1 #
edge $-1 $491 0 $491 6.2831853071796004 $329 $492 forward 7 unknown #
loop $-1 $-1 $336 $208 #
plane-surface $-1 -47.515085333338888 10.801878192075172 85.634453769026507 0.55919291073839883 0 0.82903756765294845 0.82903756765294845 0 -0.55919291073839883 forward_v I I I I #
loop $-1 $-1 $493 $132 #
coedge $-1 $334 $334 $335 $494 reversed $209 $-1 #
coedge $-1 $335 $335 $334 $494 forward $211 $-1 #
coedge $-1 $336 $336 $212 $337 forward $331 $-1 #
edge $-1 $495 0 $495 6.2831853071796004 $336 $496 forward 7 unknown #
face $-1 $497 $498 $69 $-1 $499 reversed single #
loop $-1 $-1 $500 $213 #
plane-surface $-1 33.235872865932507 18.816361085911296 205.35267030143763 0 1 0 0.55919291073839883 0 0.82903756765294845 forward_v I I I I #
coedge $-1 $501 $502 $503 $504 reversed $214 $-1 #
coedge $-1 $343 $216 $505 $506 reversed $136 $-1 #
coedge $-1 $216 $342 $501 $507 reversed $136 $-1 #
coedge $-1 $503 $508 $216 $345 forward $509 $-1 #
edge $-1 $510 -55.585194766105978 $511 -41.373886575589573 $344 $512 forward 7 unknown #
loop $-1 $-1 $351 $217 #
plane-surface $-1 -47.515085333338888 21.935047036948085 85.634453769026507 0.55919291073839883 0 0.82903756765294845 0.82903756765294845 0 -0.55919291073839883 forward_v I I I I #
loop $-1 $-1 $513 $138 #
coedge $-1 $349 $349 $350 $514 reversed $218 $-1 #
coedge $-1 $350 $350 $349 $514 forward $220 $-1 #
coedge $-1 $351 $351 $221 $352 forward $346 $-1 #
edge $-1 $515 0 $515 6.2831853071796004 $351 $516 forward 7 unknown #
loop $-1 $-1 $358 $222 #
plane-surface $-1 -47.515085333338888 21.935047036948085 85.634453769026507 0.55919291073839883 0 0.82903756765294845 0.82903756765294845 0 -0.55919291073839883 forward_v I I I I #
loop $-1 $-1 $517 $141 #
coedge $-1 $356 $356 $357 $518 reversed $223 $-1 #
coedge $-1 $357 $357 $356 $518 forward $225 $-1 #
coedge $-1 $358 $358 $226 $359 forward $353 $-1 #
edge $-1 $519 0 $519 6.2831853071796004 $358 $520 forward 7 unknown #
face $-1 $521 $522 $54 $-1 $523 reversed single #
loop $-1 $-1 $524 $227 #
plane-surface $-1 -72.203131199072232 0 0 1 0 0 0 0 -1 forward_v I I I I #
coedge $-1 $525 $371 $526 $527 forward $228 $-1 #
coedge $-1 $528 $230 $525 $529 forward $145 $-1 #
coedge $-1 $230 $528 $530 $531 forward $145 $-1 #
coedge $-1 $374 $373 $230 $367 reversed $375 $-1 #
edge $-1 $532 -32.397428402183891 $533 32.397428402183891 $366 $534 forward 7 unknown #
coedge $-1 $232 $231 $535 $536 forward $91 $-1 #
coedge $-1 $537 $538 $231 $370 reversed $522 $-1 #
edge $-1 $377 -72.203131199072232 $539 72.203131199072232 $369 $540 forward 7 unknown #
coedge $-1 $363 $541 $232 $372 reversed $228 $-1 #
edge $-1 $542 -72.203131199072232 $376 72.203131199072232 $371 $543 forward 7 unknown #
coedge $-1 $366 $233 $541 $544 forward $375 $-1 #
coedge $-1 $233 $366 $537 $545 reversed $375 $-1 #
loop $-1 $-1 $373 $521 #
vertex $-1 $234 $546 #
vertex $-1 $234 $547 #
straight-curve $-1 72.203131199072232 0 14.469144160992446 0 1 0 I I #
face $-1 $548 $549 $55 $-1 $550 reversed single #
loop $-1 $-1 $551 $235 #
plane-surface $-1 -72.203131199072232 0 0 1 0 0 0 0 -1 forward_v I I I I #
coedge $-1 $552 $388 $393 $553 reversed $236 $-1 #
coedge $-1 $554 $238 $555 $556 reversed $149 $-1 #
coedge $-1 $238 $554 $552 $557 forward $149 $-1 #
coedge $-1 $393 $392 $238 $386 forward $394 $-1 #
edge $-1 $558 -18.816361085911304 $559 -8.3457735466338665 $385 $560 forward 7 unknown #
coedge $-1 $240 $239 $551 $561 reversed $94 $-1 #
coedge $-1 $382 $562 $239 $389 reversed $236 $-1 #
edge $-1 $395 -72.203131199072232 $563 72.203131199072232 $388 $564 forward 7 unknown #
coedge $-1 $565 $566 $240 $391 forward $549 $-1 #
edge $-1 $396 -72.203131199072232 $567 72.203131199072232 $390 $568 forward 7 unknown #
coedge $-1 $385 $241 $566 $569 forward $394 $-1 #
coedge $-1 $241 $385 $382 $553 forward $394 $-1 #
loop $-1 $-1 $241 $548 #
vertex $-1 $242 $570 #
vertex $-1 $569 $571 #
straight-curve $-1 72.203131199072232 -13.581067316272586 -1.7788724304211416 0 -1 0 I I #
face $-1 $-1 $410 $56 $-1 $572 forward single #
loop $-1 $-1 $573 $243 #
plane-surface $-1 -72.203131199072232 0 0 1 0 0 0 0 -1 forward_v I I I I #
coedge $-1 $574 $575 $576 $577 reversed $244 $-1 #
coedge $-1 $578 $246 $248 $408 forward $153 $-1 #
coedge $-1 $246 $578 $574 $579 forward $153 $-1 #
coedge $-1 $576 $249 $246 $405 forward $410 $-1 #
edge $-1 $412 2.5095378621393643 $580 12.654910669010366 $404 $581 forward 7 unknown #
coedge $-1 $582 $583 $247 $407 forward $399 $-1 #
edge $-1 $584 -55.377826057790841 $411 -46.980149367625032 $406 $585 forward 7 unknown #
edge $-1 $412 -14.286980747012052 $584 -1.7761521089745031e-014 $248 $586 forward 7 unknown #
coedge $-1 $249 $576 $582 $587 forward $410 $-1 #
loop $-1 $-1 $576 $398 #
vertex $-1 $407 $588 #
vertex $-1 $250 $589 #
straight-curve $-1 -78.541501829886414 10.09176212771423 14.469144160992442 1 0 0 I I #
coedge $-1 $414 $414 $-1 $590 reversed $253 $-1 #
edge $-1 $591 0 $591 6.2831853071796004 $254 $592 forward 7 unknown #
vertex $-1 $257 $593 #
ellipse-curve $-1 -66.423926126725803 12.120836689088428 10.270305815909541 -0.5877852598018023 0 0.80901698891910034 0.40450849445955017 0 0.29389262990090115 1 I I #
coedge $-1 $418 $418 $-1 $594 reversed $260 $-1 #
edge $-1 $595 0 $595 6.2831853071796004 $261 $596 forward 7 unknown #
vertex $-1 $264 $597 #
ellipse-curve $-1 -66.423926126725803 15.164448531149731 10.270305815909541 -0.5877852598018023 0 0.80901698891910034 0.40450849445955017 0 0.29389262990090115 1 I I #
coedge $-1 $422 $422 $-1 $598 reversed $267 $-1 #
edge $-1 $599 0 $599 6.2831853071796004 $268 $600 forward 7 unknown #
vertex $-1 $271 $601 #
ellipse-curve $-1 -66.423926126725803 18.208060373211026 10.270305815909541 -0.5877852598018023 0 0.80901698891910034 0.40450849445955017 0 0.29389262990090115 1 I I #
face $-1 $-1 $602 $60 $-1 $603 reversed single #
loop $-1 $-1 $278 $272 #
plane-surface $-1 0 0 14.469144160992446 0 0 1 1 0 0 forward_v I I I I #
coedge $-1 $604 $605 $606 $607 reversed $273 $-1 #
coedge $-1 $608 $275 $277 $436 forward $172 $-1 #
coedge $-1 $275 $608 $604 $609 forward $172 $-1 #
coedge $-1 $606 $278 $275 $433 forward $427 $-1 #
edge $-1 $439 2.6135437977985383 $610 8.8509156998721146 $432 $611 forward 7 unknown #
coedge $-1 $612 $613 $276 $435 forward $602 $-1 #
edge $-1 $614 -97.792839580963701 $438 -88.207190989726371 $434 $615 forward 7 unknown #
edge $-1 $439 127.26432728566289 $614 144.40626239814446 $277 $616 forward 7 unknown #
coedge $-1 $278 $606 $612 $617 forward $427 $-1 #
vertex $-1 $435 $618 #
vertex $-1 $279 $619 #
straight-curve $-1 16.617936432966253 -8.3457735466338647 14.469144160992442 -1 0 0 I I #
coedge $-1 $441 $441 $-1 $620 reversed $282 $-1 #
edge $-1 $621 0 $621 6.2831853071796004 $283 $622 forward 7 unknown #
vertex $-1 $286 $623 #
ellipse-curve $-1 65.097477103814043 -12.801039190972133 9.6763198653737774 0.55919291073839883 0 0.82903756765294845 0.41451878382647422 0 -0.27959645536919941 1 I I #
coedge $-1 $445 $445 $-1 $624 reversed $289 $-1 #
edge $-1 $625 0 $625 6.2831853071796004 $290 $626 forward 7 unknown #
vertex $-1 $293 $627 #
ellipse-curve $-1 65.097477103814043 -10.127879804369172 9.6763198653737774 0.55919291073839883 0 0.82903756765294845 0.41451878382647422 0 -0.27959645536919941 1 I I #
face $-1 $-1 $461 $63 $-1 $628 forward single #
loop $-1 $-1 $629 $294 #
plane-surface $-1 72.203131199072232 0 0 -1 0 0 0 0 1 forward_v I I I I #
coedge $-1 $630 $631 $632 $633 reversed $295 $-1 #
coedge $-1 $634 $297 $299 $459 forward $186 $-1 #
coedge $-1 $297 $634 $630 $635 forward $186 $-1 #
coedge $-1 $632 $300 $297 $456 forward $461 $-1 #
edge $-1 $463 -2.9530406246379179 $636 3.2843312774356583 $455 $637 forward 7 unknown #
coedge $-1 $638 $639 $298 $458 forward $450 $-1 #
edge $-1 $640 -97.792839580963701 $462 -88.207190989726371 $457 $641 forward 7 unknown #
edge $-1 $463 127.26432728566289 $640 144.40626239814446 $299 $642 forward 7 unknown #
coedge $-1 $300 $632 $638 $643 forward $461 $-1 #
loop $-1 $-1 $632 $449 #
vertex $-1 $458 $644 #
vertex $-1 $301 $645 #
straight-curve $-1 16.617936432966253 2.7873952982390477 14.469144160992442 -1 0 0 I I #
coedge $-1 $465 $465 $-1 $646 reversed $304 $-1 #
edge $-1 $647 0 $647 6.2831853071796004 $305 $648 forward 7 unknown #
vertex $-1 $308 $649 #
ellipse-curve $-1 65.097477103814043 -1.667870346099221 9.6763198653737774 0.55919291073839883 0 0.82903756765294845 0.41451878382647422 0 -0.27959645536919941 1 I I #
coedge $-1 $469 $469 $-1 $650 reversed $311 $-1 #
edge $-1 $651 0 $651 6.2831853071796004 $312 $652 forward 7 unknown #
vertex $-1 $315 $653 #
ellipse-curve $-1 65.097477103814043 1.0052890405037402 9.6763198653737774 0.55919291073839883 0 0.82903756765294845 0.41451878382647422 0 -0.27959645536919941 1 I I #
face $-1 $-1 $485 $66 $-1 $654 forward single #
loop $-1 $-1 $655 $316 #
plane-surface $-1 72.203131199072232 0 0 -1 0 0 0 0 1 forward_v I I I I #
coedge $-1 $656 $657 $658 $659 reversed $317 $-1 #
coedge $-1 $660 $319 $321 $483 forward $200 $-1 #
coedge $-1 $319 $660 $656 $661 forward $200 $-1 #
coedge $-1 $658 $322 $319 $480 forward $485 $-1 #
edge $-1 $487 -8.5196250470743742 $662 -2.2822531450007979 $479 $663 forward 7 unknown #
coedge $-1 $664 $665 $320 $482 forward $474 $-1 #
edge $-1 $666 -97.792839580963701 $486 -88.207190989726371 $481 $667 forward 7 unknown #
edge $-1 $487 127.26432728566289 $666 144.40626239814446 $321 $668 forward 7 unknown #
coedge $-1 $322 $658 $664 $669 forward $485 $-1 #
loop $-1 $-1 $658 $473 #
vertex $-1 $482 $670 #
vertex $-1 $323 $671 #
straight-curve $-1 16.617936432966253 13.92056414311196 14.469144160992442 -1 0 0 I I #
coedge $-1 $489 $489 $-1 $672 reversed $326 $-1 #
edge $-1 $673 0 $673 6.2831853071796004 $327 $674 forward 7 unknown #
vertex $-1 $330 $675 #
ellipse-curve $-1 65.097477103814043 9.4652984987736914 9.6763198653737774 0.55919291073839883 0 0.82903756765294845 0.41451878382647422 0 -0.27959645536919941 1 I I #
coedge $-1 $493 $493 $-1 $676 reversed $333 $-1 #
edge $-1 $677 0 $677 6.2831853071796004 $334 $678 forward 7 unknown #
vertex $-1 $337 $679 #
ellipse-curve $-1 65.097477103814043 12.138457885376653 9.6763198653737774 0.55919291073839883 0 0.82903756765294845 0.41451878382647422 0 -0.27959645536919941 1 I I #
face $-1 $-1 $509 $69 $-1 $680 forward single #
loop $-1 $-1 $681 $338 #
plane-surface $-1 72.203131199072232 0 0 -1 0 0 0 0 1 forward_v I I I I #
coedge $-1 $682 $683 $684 $685 reversed $339 $-1 #
coedge $-1 $686 $341 $343 $507 forward $214 $-1 #
coedge $-1 $341 $686 $682 $687 forward $214 $-1 #
coedge $-1 $684 $344 $341 $504 forward $509 $-1 #
edge $-1 $511 -14.08620946951083 $688 -7.8488375674372541 $503 $689 forward 7 unknown #
coedge $-1 $690 $691 $342 $506 forward $498 $-1 #
edge $-1 $692 -97.792839580963701 $510 -88.207190989726371 $505 $693 forward 7 unknown #
edge $-1 $511 127.26432728566289 $692 144.40626239814446 $343 $694 forward 7 unknown #
coedge $-1 $344 $684 $690 $695 forward $509 $-1 #
loop $-1 $-1 $684 $497 #
vertex $-1 $506 $696 #
vertex $-1 $345 $697 #
straight-curve $-1 16.617936432966253 25.053732987984873 14.469144160992442 -1 0 0 I I #
coedge $-1 $513 $513 $-1 $698 reversed $348 $-1 #
edge $-1 $699 0 $699 6.2831853071796004 $349 $700 forward 7 unknown #
vertex $-1 $352 $701 #
ellipse-curve $-1 65.097477103814043 20.598467343646604 9.6763198653737774 0.55919291073839883 0 0.82903756765294845 0.41451878382647422 0 -0.27959645536919941 1 I I #
coedge $-1 $517 $517 $-1 $702 reversed $355 $-1 #
edge $-1 $703 0 $703 6.2831853071796004 $356 $704 forward 7 unknown #
vertex $-1 $359 $705 #
ellipse-curve $-1 65.097477103814043 23.271626730249565 9.6763198653737774 0.55919291073839883 0 0.82903756765294845 0.41451878382647422 0 -0.27959645536919941 1 I I #
face $-1 $-1 $375 $54 $-1 $706 reversed single #
loop $-1 $-1 $537 $360 #
plane-surface $-1 0 32.397428402183891 0 0 -1 0 0 0 -1 forward_v I I I I #
coedge $-1 $707 $535 $538 $708 forward $361 $-1 #
coedge $-1 $541 $363 $364 $529 reversed $228 $-1 #
coedge $-1 $535 $707 $363 $527 reversed $361 $-1 #
edge $-1 $542 -14.469144160992446 $709 14.469144160992446 $526 $710 forward 7 unknown #
coedge $-1 $365 $364 $707 $711 forward $145 $-1 #
edge $-1 $533 -72.203131199072232 $709 72.203131199072232 $525 $712 forward 7 unknown #
coedge $-1 $538 $537 $365 $531 reversed $522 $-1 #
edge $-1 $713 -72.203131199072232 $532 72.203131199072232 $530 $714 forward 7 unknown #
vertex $-1 $367 $715 #
vertex $-1 $544 $716 #
straight-curve $-1 72.203131199072232 0 -14.469144160992446 0 -1 0 I I #
coedge $-1 $524 $526 $368 $536 reversed $361 $-1 #
edge $-1 $539 -32.397428402183891 $542 32.397428402183891 $535 $717 forward 7 unknown #
coedge $-1 $530 $369 $374 $545 forward $522 $-1 #
coedge $-1 $369 $530 $524 $708 reversed $522 $-1 #
vertex $-1 $370 $718 #
straight-curve $-1 0 32.397428402183891 14.469144160992446 -1 0 0 I I #
coedge $-1 $371 $525 $373 $544 reversed $228 $-1 #
vertex $-1 $536 $719 #
straight-curve $-1 0 -32.397428402183891 14.469144160992446 1 0 0 I I #
edge $-1 $376 -14.469144160992446 $533 14.469144160992446 $373 $720 forward 7 unknown #
edge $-1 $377 -14.469144160992446 $532 14.469144160992446 $374 $721 forward 7 unknown #
point $-1 72.203131199072232 -32.397428402183891 14.469144160992446 #
point $-1 72.203131199072232 32.397428402183891 14.469144160992446 #
face $-1 $-1 $394 $55 $-1 $722 reversed single #
loop $-1 $-1 $390 $379 #
plane-surface $-1 0 -32.397428402183891 0 0 1 0 0 0 1 forward_v I I I I #
coedge $-1 $723 $724 $387 $561 forward $380 $-1 #
coedge $-1 $562 $382 $384 $557 reversed $236 $-1 #
edge $-1 $559 -5.183880145130666 $395 0.54204509476279439 $393 $725 forward 7 unknown #
coedge $-1 $384 $383 $726 $727 reversed $149 $-1 #
coedge $-1 $566 $565 $383 $556 forward $549 $-1 #
edge $-1 $728 -72.203131199072232 $558 72.203131199072232 $555 $729 forward 7 unknown #
edge $-1 $730 -72.203131199072232 $559 72.203131199072232 $552 $731 forward 7 unknown #
vertex $-1 $556 $732 #
vertex $-1 $386 $733 #
straight-curve $-1 72.203131199072232 -13.581067316272586 -7.504797670314602 0 1 0 I I #
edge $-1 $567 -18.816361085911304 $563 -8.3457735466338665 $551 $734 forward 7 unknown #
coedge $-1 $388 $552 $723 $735 reversed $236 $-1 #
vertex $-1 $561 $736 #
straight-curve $-1 0 -21.926840862906452 -1.7788724304211416 -1 0 0 I I #
coedge $-1 $555 $390 $724 $737 forward $549 $-1 #
coedge $-1 $390 $555 $392 $569 reversed $549 $-1 #
vertex $-1 $737 $738 #
straight-curve $-1 0 -32.397428402183891 -1.7788724304211416 -1 0 0 I I #
edge $-1 $396 1.7788724304211416 $558 7.504797670314602 $392 $739 forward 7 unknown #
point $-1 72.203131199072232 -21.926840862906452 -1.7788724304211416 #
point $-1 72.203131199072232 -32.397428402183891 -1.7788724304211416 #
plane-surface $-1 0 0 14.469144160992446 0 0 1 1 0 0 forward_v I I I I #
coedge $-1 $583 $582 $575 $740 forward $399 $-1 #
coedge $-1 $575 $401 $403 $579 reversed $244 $-1 #
coedge $-1 $401 $574 $573 $740 reversed $244 $-1 #
coedge $-1 $409 $404 $401 $577 forward $410 $-1 #
edge $-1 $580 -17.896780775507018 $741 -6.3383706308141825 $576 $742 forward 7 unknown #
coedge $-1 $403 $402 $583 $743 reversed $153 $-1 #
edge $-1 $744 1.7761521089745031e-014 $580 14.286980747012052 $574 $745 forward 7 unknown #
vertex $-1 $405 $746 #
straight-curve $-1 -60.644721054379396 7.5822242655748653 14.469144160992446 0 1 0 I I #
coedge $-1 $573 $406 $409 $587 reversed $399 $-1 #
coedge $-1 $406 $573 $578 $743 forward $399 $-1 #
vertex $-1 $407 $747 #
straight-curve $-1 -72.203131199072232 10.09176212771423 61.449293528617474 0 0 1 I I #
straight-curve $-1 -72.203131199072246 10.09176212771423 6.0714674708266188 -0.80901698891910034 0 -0.5877852598018023 I I #
edge $-1 $741 -20.237134934585232 $411 -10.09176212771423 $582 $748 forward 7 unknown #
point $-1 -72.203131199072232 10.09176212771423 14.469144160992446 #
point $-1 -60.644721054379396 10.09176212771423 14.469144160992446 #
edge $-1 $749 1 $749 0 $414 $-1 forward 7 unknown #
vertex $-1 $415 $750 #
ellipse-curve $-1 -65.744180018070765 12.120836689088428 9.3347155797082841 -0.5877852598018023 0 0.80901698891910034 0.40450849445955017 0 0.29389262990090115 1 I I #
point $-1 -66.019417632266254 12.120836689088428 10.564198445810423 #
edge $-1 $751 1 $751 0 $418 $-1 forward 7 unknown #
vertex $-1 $419 $752 #
ellipse-curve $-1 -65.744180018070765 15.164448531149731 9.3347155797082841 -0.5877852598018023 0 0.80901698891910034 0.40450849445955017 0 0.29389262990090115 1 I I #
point $-1 -66.019417632266254 15.164448531149731 10.564198445810423 #
edge $-1 $753 1 $753 0 $422 $-1 forward 7 unknown #
vertex $-1 $423 $754 #
ellipse-curve $-1 -65.744180018070765 18.208060373211026 9.3347155797082841 -0.5877852598018023 0 0.80901698891910034 0.40450849445955017 0 0.29389262990090115 1 I I #
point $-1 -66.019417632266254 18.208060373211026 10.564198445810423 #
loop $-1 $-1 $434 $426 #
plane-surface $-1 72.203131199072232 0 0 -1 0 0 0 0 1 forward_v I I I I #
coedge $-1 $605 $429 $431 $609 reversed $273 $-1 #
coedge $-1 $429 $604 $755 $756 reversed $273 $-1 #
coedge $-1 $437 $432 $429 $607 forward $427 $-1 #
edge $-1 $610 41.373886575589573 $757 55.585194766105978 $606 $758 forward 7 unknown #
coedge $-1 $431 $430 $613 $759 reversed $172 $-1 #
edge $-1 $760 -144.40626239814446 $610 -127.26432728566289 $604 $761 forward 7 unknown #
vertex $-1 $433 $762 #
straight-curve $-1 57.991823008555812 -5.7322297488353264 14.469144160992442 0 -1 0 I I #
coedge $-1 $755 $434 $437 $617 reversed $602 $-1 #
coedge $-1 $434 $755 $608 $759 forward $602 $-1 #
vertex $-1 $435 $763 #
straight-curve $-1 72.203131199072232 -8.3457735466338647 102.67633515071881 0 0 1 I I #
straight-curve $-1 -47.515085333338888 -8.3457735466338647 85.634453769026507 0.82903756765294845 0 -0.55919291073839883 I I #
edge $-1 $757 -14.583145448707441 $438 -8.3457735466338647 $612 $764 forward 7 unknown #
point $-1 72.203131199072232 -8.3457735466338647 14.469144160992446 #
point $-1 57.991823008555826 -8.3457735466338647 14.469144160992442 #
edge $-1 $765 1 $765 0 $441 $-1 forward 7 unknown #
vertex $-1 $442 $766 #
ellipse-curve $-1 64.176789279543243 -12.801039190972133 8.3113440587362248 0.55919291073839883 0 0.82903756765294845 0.41451878382647422 0 -0.27959645536919941 1 I I #
point $-1 65.511995887640524 -12.801039190972133 9.3967234100045811 #
edge $-1 $767 1 $767 0 $445 $-1 forward 7 unknown #
vertex $-1 $446 $768 #
ellipse-curve $-1 64.176789279543243 -10.127879804369172 8.3113440587362248 0.55919291073839883 0 0.82903756765294845 0.41451878382647422 0 -0.27959645536919941 1 I I #
point $-1 65.511995887640524 -10.127879804369172 9.3967234100045811 #
plane-surface $-1 0 0 14.469144160992446 0 0 1 1 0 0 forward_v I I I I #
coedge $-1 $639 $638 $631 $769 forward $450 $-1 #
coedge $-1 $631 $452 $454 $635 reversed $295 $-1 #
coedge $-1 $452 $630 $629 $769 reversed $295 $-1 #
coedge $-1 $460 $455 $452 $633 forward $461 $-1 #
edge $-1 $636 41.373886575589573 $770 55.585194766105978 $632 $771 forward 7 unknown #
coedge $-1 $454 $453 $639 $772 reversed $186 $-1 #
edge $-1 $773 -144.40626239814446 $636 -127.26432728566289 $630 $774 forward 7 unknown #
vertex $-1 $456 $775 #
straight-curve $-1 57.991823008555812 -0.1656453263988702 14.469144160992442 0 -1 0 I I #
coedge $-1 $629 $457 $460 $643 reversed $450 $-1 #
coedge $-1 $457 $629 $634 $772 forward $450 $-1 #
vertex $-1 $458 $776 #
straight-curve $-1 72.203131199072232 2.7873952982390477 102.67633515071881 0 0 1 I I #
straight-curve $-1 -47.515085333338888 2.7873952982390477 85.634453769026507 0.82903756765294845 0 -0.55919291073839883 I I #
edge $-1 $770 -3.4499766038345285 $462 2.7873952982390477 $638 $777 forward 7 unknown #
point $-1 72.203131199072232 2.7873952982390477 14.469144160992446 #
point $-1 57.991823008555826 2.7873952982390477 14.469144160992442 #
edge $-1 $778 1 $778 0 $465 $-1 forward 7 unknown #
vertex $-1 $466 $779 #
ellipse-curve $-1 64.176789279543243 -1.667870346099221 8.3113440587362248 0.55919291073839883 0 0.82903756765294845 0.41451878382647422 0 -0.27959645536919941 1 I I #
point $-1 65.511995887640524 -1.667870346099221 9.3967234100045811 #
edge $-1 $780 1 $780 0 $469 $-1 forward 7 unknown #
vertex $-1 $470 $781 #
ellipse-curve $-1 64.176789279543243 1.0052890405037402 8.3113440587362248 0.55919291073839883 0 0.82903756765294845 0.41451878382647422 0 -0.27959645536919941 1 I I #
point $-1 65.511995887640524 1.0052890405037402 9.3967234100045811 #
plane-surface $-1 0 0 14.469144160992446 0 0 1 1 0 0 forward_v I I I I #
coedge $-1 $665 $664 $657 $782 forward $474 $-1 #
coedge $-1 $657 $476 $478 $661 reversed $317 $-1 #
coedge $-1 $476 $656 $655 $782 reversed $317 $-1 #
coedge $-1 $484 $479 $476 $659 forward $485 $-1 #
edge $-1 $662 41.373886575589573 $783 55.585194766105978 $658 $784 forward 7 unknown #
coedge $-1 $478 $477 $665 $785 reversed $200 $-1 #
edge $-1 $786 -144.40626239814446 $662 -127.26432728566289 $656 $787 forward 7 unknown #
vertex $-1 $480 $788 #
straight-curve $-1 57.991823008555812 5.400939096037586 14.469144160992442 0 -1 0 I I #
coedge $-1 $655 $481 $484 $669 reversed $474 $-1 #
coedge $-1 $481 $655 $660 $785 forward $474 $-1 #
vertex $-1 $482 $789 #
straight-curve $-1 72.203131199072232 13.92056414311196 102.67633515071881 0 0 1 I I #
straight-curve $-1 -47.515085333338888 13.92056414311196 85.634453769026507 0.82903756765294845 0 -0.55919291073839883 I I #
edge $-1 $783 7.6831922410383839 $486 13.92056414311196 $664 $790 forward 7 unknown #
point $-1 72.203131199072232 13.92056414311196 14.469144160992446 #
point $-1 57.991823008555826 13.92056414311196 14.469144160992442 #
edge $-1 $791 1 $791 0 $489 $-1 forward 7 unknown #
vertex $-1 $490 $792 #
ellipse-curve $-1 64.176789279543243 9.4652984987736914 8.3113440587362248 0.55919291073839883 0 0.82903756765294845 0.41451878382647422 0 -0.27959645536919941 1 I I #
point $-1 65.511995887640524 9.4652984987736914 9.3967234100045811 #
edge $-1 $793 1 $793 0 $493 $-1 forward 7 unknown #
vertex $-1 $494 $794 #
ellipse-curve $-1 64.176789279543243 12.138457885376653 8.3113440587362248 0.55919291073839883 0 0.82903756765294845 0.41451878382647422 0 -0.27959645536919941 1 I I #
point $-1 65.511995887640524 12.138457885376653 9.3967234100045811 #
plane-surface $-1 0 0 14.469144160992446 0 0 1 1 0 0 forward_v I I I I #
coedge $-1 $691 $690 $683 $795 forward $498 $-1 #
coedge $-1 $683 $500 $502 $687 reversed $339 $-1 #
coedge $-1 $500 $682 $681 $795 reversed $339 $-1 #
coedge $-1 $508 $503 $500 $685 forward $509 $-1 #
edge $-1 $688 41.373886575589573 $796 55.585194766105978 $684 $797 forward 7 unknown #
coedge $-1 $502 $501 $691 $798 reversed $214 $-1 #
edge $-1 $799 -144.40626239814446 $688 -127.26432728566289 $682 $800 forward 7 unknown #
vertex $-1 $504 $801 #
straight-curve $-1 57.991823008555812 10.967523518474042 14.469144160992442 0 -1 0 I I #
coedge $-1 $681 $505 $508 $695 reversed $498 $-1 #
coedge $-1 $505 $681 $686 $798 forward $498 $-1 #
vertex $-1 $506 $802 #
straight-curve $-1 72.203131199072232 25.053732987984873 102.67633515071881 0 0 1 I I #
straight-curve $-1 -47.515085333338888 25.053732987984873 85.634453769026507 0.82903756765294845 0 -0.55919291073839883 I I #
edge $-1 $796 18.816361085911296 $510 25.053732987984873 $690 $803 forward 7 unknown #
point $-1 72.203131199072232 25.053732987984873 14.469144160992446 #
point $-1 57.991823008555826 25.053732987984873 14.469144160992442 #
edge $-1 $804 1 $804 0 $513 $-1 forward 7 unknown #
vertex $-1 $514 $805 #
ellipse-curve $-1 64.176789279543243 20.598467343646604 8.3113440587362248 0.55919291073839883 0 0.82903756765294845 0.41451878382647422 0 -0.27959645536919941 1 I I #
point $-1 65.511995887640524 20.598467343646604 9.3967234100045811 #
edge $-1 $806 1 $806 0 $517 $-1 forward 7 unknown #
vertex $-1 $518 $807 #
ellipse-curve $-1 64.176789279543243 23.271626730249565 8.3113440587362248 0.55919291073839883 0 0.82903756765294845 0.41451878382647422 0 -0.27959645536919941 1 I I #
point $-1 65.511995887640524 23.271626730249565 9.3967234100045811 #
plane-surface $-1 72.203131199072232 0 0 -1 0 0 0 0 1 forward_v I I I I #
coedge $-1 $526 $524 $528 $711 reversed $361 $-1 #
edge $-1 $539 -14.469144160992446 $713 14.469144160992446 $538 $808 forward 7 unknown #
vertex $-1 $711 $809 #
straight-curve $-1 -72.203131199072232 -32.397428402183891 0 0 0 -1 I I #
edge $-1 $709 -32.397428402183891 $713 32.397428402183891 $707 $810 forward 7 unknown #
straight-curve $-1 0 -32.397428402183891 -14.469144160992446 -1 0 0 I I #
vertex $-1 $531 $811 #
straight-curve $-1 0 32.397428402183891 -14.469144160992446 1 0 0 I I #
point $-1 72.203131199072232 32.397428402183891 -14.469144160992446 #
point $-1 72.203131199072232 -32.397428402183891 -14.469144160992446 #
straight-curve $-1 -72.203131199072232 0 14.469144160992446 0 -1 0 I I #
point $-1 -72.203131199072232 32.397428402183891 14.469144160992446 #
point $-1 -72.203131199072232 -32.397428402183891 14.469144160992446 #
straight-curve $-1 72.203131199072232 -32.397428402183891 0 0 0 -1 I I #
straight-curve $-1 72.203131199072232 32.397428402183891 0 0 0 -1 I I #
plane-surface $-1 72.203131199072232 0 0 -1 0 0 0 0 1 forward_v I I I I #
coedge $-1 $726 $551 $562 $735 forward $380 $-1 #
coedge $-1 $551 $726 $565 $737 reversed $380 $-1 #
straight-curve $-1 72.203131199072232 -21.926840862906452 -2.320917525183936 0 0 1 I I #
coedge $-1 $724 $723 $554 $727 forward $380 $-1 #
edge $-1 $730 8.3457735466338665 $728 18.816361085911304 $726 $812 forward 7 unknown #
vertex $-1 $556 $813 #
straight-curve $-1 0 -32.397428402183891 -7.504797670314602 1 0 0 I I #
vertex $-1 $727 $814 #
straight-curve $-1 0 -21.926840862906452 -7.504797670314602 1 0 0 I I #
point $-1 72.203131199072232 -32.397428402183891 -7.504797670314602 #
point $-1 72.203131199072232 -21.926840862906452 -7.504797670314602 #
straight-curve $-1 -72.203131199072232 -13.581067316272586 -1.7788724304211416 0 1 0 I I #
edge $-1 $563 -0.54204509476279439 $730 5.183880145130666 $723 $815 forward 7 unknown #
point $-1 -72.203131199072232 -21.926840862906452 -1.7788724304211416 #
edge $-1 $567 1.7788724304211416 $728 7.504797670314602 $724 $816 forward 7 unknown #
point $-1 -72.203131199072232 -32.397428402183891 -1.7788724304211416 #
straight-curve $-1 72.203131199072232 -32.397428402183891 0 0 0 -1 I I #
edge $-1 $741 46.980149367625032 $744 55.377826057790841 $573 $817 forward 7 unknown #
vertex $-1 $587 $818 #
straight-curve $-1 -78.541501829886414 20.237134934585232 14.469144160992442 -1 0 0 I I #
edge $-1 $744 -12.654910669010366 $584 -2.5095378621393643 $583 $819 forward 7 unknown #
vertex $-1 $743 $820 #
straight-curve $-1 -72.203131199072246 20.237134934585232 6.0714674708266188 0.80901698891910034 0 0.5877852598018023 I I #
point $-1 -60.644721054379396 20.237134934585232 14.469144160992446 #
point $-1 -72.203131199072232 10.09176212771423 6.0714674708266294 #
straight-curve $-1 -72.203131199072232 0 14.469144160992446 0 -1 0 I I #
vertex $-1 $590 $821 #
point $-1 -65.339671523611216 12.120836689088428 9.6286082096091867 #
vertex $-1 $594 $822 #
point $-1 -65.339671523611216 15.164448531149731 9.6286082096091867 #
vertex $-1 $598 $823 #
point $-1 -65.339671523611216 18.208060373211026 9.6286082096091867 #
coedge $-1 $613 $612 $605 $756 forward $602 $-1 #
edge $-1 $757 88.207190989726371 $760 97.792839580963701 $755 $824 forward 7 unknown #
vertex $-1 $617 $825 #
straight-curve $-1 16.617936432966253 -14.583145448707441 14.469144160992442 1 0 0 I I #
edge $-1 $760 -8.8509156998721146 $614 -2.6135437977985383 $613 $826 forward 7 unknown #
vertex $-1 $759 $827 #
straight-curve $-1 -47.515085333338888 -14.583145448707441 85.634453769026507 -0.82903756765294845 0 0.55919291073839883 I I #
point $-1 57.991823008555826 -14.583145448707441 14.469144160992442 #
point $-1 72.203131199072232 -8.3457735466338647 4.8834955697551123 #
straight-curve $-1 72.203131199072232 0 14.469144160992446 0 1 0 I I #
vertex $-1 $620 $828 #
point $-1 64.591308063369723 -12.801039190972133 8.0317476033670268 #
vertex $-1 $624 $829 #
point $-1 64.591308063369723 -10.127879804369172 8.0317476033670268 #
edge $-1 $770 88.207190989726371 $773 97.792839580963701 $629 $830 forward 7 unknown #
vertex $-1 $643 $831 #
straight-curve $-1 16.617936432966253 -3.4499766038345285 14.469144160992442 1 0 0 I I #
edge $-1 $773 -3.2843312774356583 $640 2.9530406246379179 $639 $832 forward 7 unknown #
vertex $-1 $772 $833 #
straight-curve $-1 -47.515085333338888 -3.4499766038345285 85.634453769026507 -0.82903756765294845 0 0.55919291073839883 I I #
point $-1 57.991823008555826 -3.4499766038345285 14.469144160992442 #
point $-1 72.203131199072232 2.7873952982390477 4.8834955697551123 #
straight-curve $-1 72.203131199072232 0 14.469144160992446 0 1 0 I I #
vertex $-1 $646 $834 #
point $-1 64.591308063369723 -1.667870346099221 8.0317476033670268 #
vertex $-1 $650 $835 #
point $-1 64.591308063369723 1.0052890405037402 8.0317476033670268 #
edge $-1 $783 88.207190989726371 $786 97.792839580963701 $655 $836 forward 7 unknown #
vertex $-1 $669 $837 #
straight-curve $-1 16.617936432966253 7.6831922410383839 14.469144160992442 1 0 0 I I #
edge $-1 $786 2.2822531450007979 $666 8.5196250470743742 $665 $838 forward 7 unknown #
vertex $-1 $785 $839 #
straight-curve $-1 -47.515085333338888 7.6831922410383839 85.634453769026507 -0.82903756765294845 0 0.55919291073839883 I I #
point $-1 57.991823008555826 7.6831922410383839 14.469144160992442 #
point $-1 72.203131199072232 13.92056414311196 4.8834955697551123 #
straight-curve $-1 72.203131199072232 0 14.469144160992446 0 1 0 I I #
vertex $-1 $672 $840 #
point $-1 64.591308063369723 9.4652984987736914 8.0317476033670268 #
vertex $-1 $676 $841 #
point $-1 64.591308063369723 12.138457885376653 8.0317476033670268 #
edge $-1 $796 88.207190989726371 $799 97.792839580963701 $681 $842 forward 7 unknown #
vertex $-1 $695 $843 #
straight-curve $-1 16.617936432966253 18.816361085911296 14.469144160992442 1 0 0 I I #
edge $-1 $799 7.8488375674372541 $692 14.08620946951083 $691 $844 forward 7 unknown #
vertex $-1 $798 $845 #
straight-curve $-1 -47.515085333338888 18.816361085911296 85.634453769026507 -0.82903756765294845 0 0.55919291073839883 I I #
point $-1 57.991823008555826 18.816361085911296 14.469144160992442 #
point $-1 72.203131199072232 25.053732987984873 4.8834955697551123 #
straight-curve $-1 72.203131199072232 0 14.469144160992446 0 1 0 I I #
vertex $-1 $698 $846 #
point $-1 64.591308063369723 20.598467343646604 8.0317476033670268 #
vertex $-1 $702 $847 #
point $-1 64.591308063369723 23.271626730249565 8.0317476033670268 #
straight-curve $-1 -72.203131199072232 32.397428402183891 0 0 0 -1 I I #
point $-1 -72.203131199072232 -32.397428402183891 -14.469144160992446 #
straight-curve $-1 -72.203131199072232 0 -14.469144160992446 0 1 0 I I #
point $-1 -72.203131199072232 32.397428402183891 -14.469144160992446 #
straight-curve $-1 -72.203131199072232 -13.581067316272586 -7.504797670314602 0 -1 0 I I #
point $-1 -72.203131199072232 -32.397428402183891 -7.504797670314602 #
point $-1 -72.203131199072232 -21.926840862906452 -7.504797670314602 #
straight-curve $-1 -72.203131199072232 -21.926840862906452 -2.320917525183936 0 0 -1 I I #
straight-curve $-1 -72.203131199072232 -32.397428402183891 0 0 0 -1 I I #
straight-curve $-1 -72.203131199072232 20.237134934585232 61.449293528617474 0 0 -1 I I #
point $-1 -72.203131199072232 20.237134934585232 14.469144160992446 #
straight-curve $-1 -72.203131199072232 7.5822242655748653 6.0714674708266223 0 -1 0 I I #
point $-1 -72.203131199072232 20.237134934585232 6.0714674708266294 #
point $-1 -65.450287388169855 12.120836689088428 8.9302070852487354 #
point $-1 -65.450287388169855 15.164448531149731 8.9302070852487354 #
point $-1 -65.450287388169855 18.208060373211026 8.9302070852487354 #
straight-curve $-1 72.203131199072232 -14.583145448707441 102.67633515071881 0 0 -1 I I #
point $-1 72.203131199072232 -14.583145448707441 14.469144160992446 #
straight-curve $-1 72.203131199072232 -5.7322297488353264 4.8834955697551052 0 1 0 I I #
point $-1 72.203131199072232 -14.583145448707441 4.8834955697551123 #
point $-1 63.897192824174049 -12.801039190972133 7.8968252749097507 #
point $-1 63.897192824174049 -10.127879804369172 7.8968252749097507 #
straight-curve $-1 72.203131199072232 -3.4499766038345285 102.67633515071881 0 0 -1 I I #
point $-1 72.203131199072232 -3.4499766038345285 14.469144160992446 #
straight-curve $-1 72.203131199072232 -0.1656453263988702 4.8834955697551052 0 1 0 I I #
point $-1 72.203131199072232 -3.4499766038345285 4.8834955697551123 #
point $-1 63.897192824174049 -1.667870346099221 7.8968252749097507 #
point $-1 63.897192824174049 1.0052890405037402 7.8968252749097507 #
straight-curve $-1 72.203131199072232 7.6831922410383839 102.67633515071881 0 0 -1 I I #
point $-1 72.203131199072232 7.6831922410383839 14.469144160992446 #
straight-curve $-1 72.203131199072232 5.400939096037586 4.8834955697551052 0 1 0 I I #
point $-1 72.203131199072232 7.6831922410383839 4.8834955697551123 #
point $-1 63.897192824174049 9.4652984987736914 7.8968252749097507 #
point $-1 63.897192824174049 12.138457885376653 7.8968252749097507 #
straight-curve $-1 72.203131199072232 18.816361085911296 102.67633515071881 0 0 -1 I I #
point $-1 72.203131199072232 18.816361085911296 14.469144160992446 #
straight-curve $-1 72.203131199072232 10.967523518474042 4.8834955697551052 0 1 0 I I #
point $-1 72.203131199072232 18.816361085911296 4.8834955697551123 #
point $-1 63.897192824174049 20.598467343646604 7.8968252749097507 #
point $-1 63.897192824174049 23.271626730249565 7.8968252749097507 #
End-of-ACIS-data 