500 0 3 0           
7 Unknown 11 ACIS 5.0 NT 24 Fri Mar 26 15:18:09 1999 
-1 9.9999999999999995e-007 1e-010 
body $-1 $3 $-1 $4 #
body $-1 $5 $-1 $6 #
body $-1 $7 $-1 $8 #
lump $-1 $-1 $9 $0 #
transform $-1 1 0 0 0 1 0 0 0 1 77.921079134495074 35.343310236778457 10.596089870083942 1 rotate no_reflect no_shear #
lump $-1 $-1 $10 $1 #
transform $-1 1 0 0 0 1 0 0 0 1 77.921079134495074 35.343310236778457 10.596089870083942 1 rotate no_reflect no_shear #
lump $-1 $-1 $11 $2 #
transform $-1 1 0 0 0 1 0 0 0 1 77.921079134495074 35.343310236778457 10.596089870083942 1 rotate no_reflect no_shear #
shell $-1 $-1 $-1 $12 $-1 $3 #
shell $-1 $-1 $-1 $13 $-1 $5 #
shell $-1 $-1 $-1 $14 $-1 $7 #
face $-1 $15 $16 $9 $-1 $17 forward single #
face $-1 $18 $19 $10 $-1 $20 forward single #
face $-1 $21 $22 $11 $-1 $23 reversed single #
face $-1 $24 $25 $9 $-1 $26 reversed single #
loop $-1 $-1 $27 $12 #
plane-surface $-1 0 0 10.596089870083942 0 0 1 1 0 0 forward_v I I I I #
face $-1 $28 $29 $10 $-1 $30 reversed single #
loop $-1 $-1 $31 $13 #
plane-surface $-1 0 -35.343310236778457 0 0 1 0 0 0 1 forward_v I I I I #
face $-1 $32 $33 $11 $-1 $34 reversed single #
loop $-1 $-1 $35 $14 #
plane-surface $-1 0 29.736003832964407 5.4113885276645615 0 0 1 1 0 0 forward_v I I I I #
face $-1 $36 $37 $9 $-1 $38 reversed single #
loop $-1 $-1 $39 $15 #
plane-surface $-1 0 0 -10.596089870083942 0 0 1 1 0 0 forward_v I I I I #
coedge $-1 $40 $41 $42 $43 forward $16 $-1 #
face $-1 $44 $45 $10 $-1 $46 reversed single #
loop $-1 $-1 $47 $18 #
plane-surface $-1 0 0 -10.596089870083942 0 0 1 1 0 0 forward_v I I I I #
coedge $-1 $48 $49 $50 $51 forward $19 $-1 #
face $-1 $52 $53 $11 $-1 $54 reversed single #
loop $-1 $-1 $55 $21 #
plane-surface $-1 0 24.128697429150353 8.0037391988742517 0 1 0 0 0 1 forward_v I I I I #
coedge $-1 $56 $57 $58 $59 reversed $22 $-1 #
face $-1 $60 $61 $9 $-1 $62 reversed single #
loop $-1 $-1 $63 $24 #
plane-surface $-1 0 -35.343310236778457 0 0 1 0 0 0 1 forward_v I I I I #
coedge $-1 $64 $65 $66 $67 forward $25 $-1 #
coedge $-1 $68 $27 $69 $70 forward $16 $-1 #
coedge $-1 $27 $68 $71 $72 forward $16 $-1 #
coedge $-1 $73 $74 $27 $43 reversed $75 $-1 #
edge $-1 $76 -35.343310236778457 $77 35.343310236778457 $42 $78 forward 7 unknown #
face $-1 $79 $80 $10 $-1 $81 forward single #
loop $-1 $-1 $82 $28 #
plane-surface $-1 77.921079134495074 0 0 -1 0 0 0 0 1 forward_v I I I I #
coedge $-1 $83 $84 $85 $86 forward $29 $-1 #
coedge $-1 $85 $31 $82 $87 reversed $19 $-1 #
coedge $-1 $31 $85 $88 $89 reversed $19 $-1 #
coedge $-1 $90 $91 $31 $51 reversed $80 $-1 #
edge $-1 $92 -77.921079134495074 $93 77.921079134495074 $50 $94 forward 7 unknown #
face $-1 $95 $96 $11 $-1 $97 reversed single #
loop $-1 $-1 $98 $32 #
plane-surface $-1 0 35.343310236778457 0 0 -1 0 0 0 -1 forward_v I I I I #
coedge $-1 $99 $100 $101 $102 reversed $33 $-1 #
coedge $-1 $103 $35 $99 $104 forward $22 $-1 #
coedge $-1 $35 $103 $98 $105 reversed $22 $-1 #
coedge $-1 $106 $107 $35 $59 forward $108 $-1 #
edge $-1 $109 9.2606955126681498 $110 20.475308320296261 $58 $111 forward 7 unknown #
face $-1 $112 $113 $9 $-1 $114 reversed single #
loop $-1 $-1 $115 $36 #
plane-surface $-1 -77.921079134495074 0 0 1 0 0 0 0 -1 forward_v I I I I #
coedge $-1 $71 $116 $73 $117 reversed $37 $-1 #
coedge $-1 $118 $39 $116 $119 forward $25 $-1 #
coedge $-1 $39 $118 $120 $121 forward $25 $-1 #
coedge $-1 $74 $73 $39 $67 reversed $75 $-1 #
edge $-1 $122 -35.343310236778457 $123 35.343310236778457 $66 $124 forward 7 unknown #
coedge $-1 $41 $40 $125 $126 forward $16 $-1 #
coedge $-1 $127 $128 $40 $70 reversed $113 $-1 #
edge $-1 $77 -77.921079134495074 $129 77.921079134495074 $69 $130 forward 7 unknown #
coedge $-1 $131 $63 $41 $72 reversed $37 $-1 #
edge $-1 $132 -77.921079134495074 $76 77.921079134495074 $71 $133 forward 7 unknown #
coedge $-1 $66 $42 $63 $117 forward $75 $-1 #
coedge $-1 $42 $66 $127 $134 reversed $75 $-1 #
loop $-1 $-1 $73 $112 #
vertex $-1 $43 $135 #
vertex $-1 $43 $136 #
straight-curve $-1 77.921079134495074 0 10.596089870083942 0 1 0 I I #
face $-1 $137 $138 $10 $-1 $139 reversed single #
loop $-1 $-1 $91 $44 #
plane-surface $-1 0 -40.10864028649425 -4.7293220353405463 0 0 1 1 0 0 forward_v I I I I #
coedge $-1 $140 $141 $48 $87 forward $45 $-1 #
coedge $-1 $142 $47 $141 $143 forward $29 $-1 #
coedge $-1 $47 $142 $144 $145 forward $29 $-1 #
coedge $-1 $49 $48 $47 $86 reversed $19 $-1 #
edge $-1 $146 -77.921079134495074 $147 77.921079134495074 $47 $148 forward 7 unknown #
edge $-1 $147 -10.596089870083942 $93 -4.7293220353405463 $82 $149 forward 7 unknown #
coedge $-1 $144 $150 $49 $89 forward $151 $-1 #
edge $-1 $92 4.7293220353405463 $146 10.596089870083942 $88 $152 forward 7 unknown #
coedge $-1 $153 $50 $150 $154 forward $80 $-1 #
coedge $-1 $50 $153 $140 $155 forward $80 $-1 #
vertex $-1 $89 $156 #
vertex $-1 $155 $157 #
straight-curve $-1 0 -35.343310236778457 -4.7293220353405463 1 0 0 I I #
face $-1 $158 $159 $11 $-1 $160 forward single #
loop $-1 $-1 $161 $52 #
plane-surface $-1 -77.921079134495074 0 0 1 0 0 0 0 -1 forward_v I I I I #
coedge $-1 $162 $163 $57 $105 forward $53 $-1 #
coedge $-1 $164 $55 $56 $104 reversed $33 $-1 #
coedge $-1 $55 $164 $165 $166 reversed $33 $-1 #
coedge $-1 $167 $161 $55 $102 forward $96 $-1 #
edge $-1 $168 1.4095189282274356 $169 6.594220270646816 $101 $170 forward 7 unknown #
coedge $-1 $57 $56 $161 $171 reversed $22 $-1 #
edge $-1 $109 -77.921079134495074 $168 77.921079134495074 $99 $172 forward 7 unknown #
edge $-1 $110 -77.921079134495074 $173 77.921079134495074 $98 $174 forward 7 unknown #
coedge $-1 $175 $58 $163 $176 reversed $108 $-1 #
coedge $-1 $58 $175 $164 $177 forward $108 $-1 #
loop $-1 $-1 $58 $158 #
vertex $-1 $59 $178 #
vertex $-1 $105 $179 #
straight-curve $-1 77.921079134495074 14.868001916482203 5.4113885276645615 0 1 0 I I #
face $-1 $-1 $75 $9 $-1 $180 reversed single #
loop $-1 $-1 $127 $60 #
plane-surface $-1 0 35.343310236778457 0 0 -1 0 0 0 -1 forward_v I I I I #
coedge $-1 $181 $125 $128 $182 forward $61 $-1 #
coedge $-1 $63 $131 $64 $119 reversed $37 $-1 #
edge $-1 $76 -10.596089870083942 $123 10.596089870083942 $73 $183 forward 7 unknown #
coedge $-1 $65 $64 $181 $184 forward $25 $-1 #
edge $-1 $123 -77.921079134495074 $185 77.921079134495074 $116 $186 forward 7 unknown #
coedge $-1 $128 $127 $65 $121 reversed $113 $-1 #
edge $-1 $187 -77.921079134495074 $122 77.921079134495074 $120 $188 forward 7 unknown #
vertex $-1 $67 $189 #
vertex $-1 $117 $190 #
straight-curve $-1 77.921079134495074 0 -10.596089870083942 0 -1 0 I I #
coedge $-1 $115 $191 $68 $126 reversed $61 $-1 #
edge $-1 $129 -35.343310236778457 $132 35.343310236778457 $125 $192 forward 7 unknown #
coedge $-1 $120 $69 $74 $134 forward $113 $-1 #
coedge $-1 $69 $120 $115 $182 reversed $113 $-1 #
vertex $-1 $70 $193 #
straight-curve $-1 0 35.343310236778457 10.596089870083942 -1 0 0 I I #
coedge $-1 $116 $71 $191 $194 forward $37 $-1 #
vertex $-1 $126 $195 #
straight-curve $-1 0 -35.343310236778457 10.596089870083942 1 0 0 I I #
edge $-1 $77 -10.596089870083942 $122 10.596089870083942 $74 $196 forward 7 unknown #
point $-1 77.921079134495074 -35.343310236778457 10.596089870083942 #
point $-1 77.921079134495074 35.343310236778457 10.596089870083942 #
face $-1 $-1 $151 $10 $-1 $197 reversed single #
loop $-1 $-1 $198 $79 #
plane-surface $-1 0 -44.873970336210043 -7.6627059527122441 0 1 0 0 0 1 forward_v I I I I #
coedge $-1 $199 $82 $91 $155 reversed $45 $-1 #
coedge $-1 $82 $199 $83 $143 reversed $45 $-1 #
coedge $-1 $84 $83 $200 $201 forward $29 $-1 #
edge $-1 $147 35.343310236778457 $202 44.873970336210043 $141 $203 forward 7 unknown #
coedge $-1 $204 $88 $84 $145 reversed $151 $-1 #
edge $-1 $205 -44.873970336210043 $146 -35.343310236778457 $144 $206 forward 7 unknown #
vertex $-1 $89 $207 #
vertex $-1 $143 $208 #
straight-curve $-1 0 -35.343310236778457 -10.596089870083942 1 0 0 I I #
straight-curve $-1 77.921079134495074 -35.343310236778457 0 0 0 1 I I #
coedge $-1 $88 $204 $90 $154 reversed $151 $-1 #
loop $-1 $-1 $88 $137 #
straight-curve $-1 -77.921079134495074 -35.343310236778457 0 0 0 -1 I I #
coedge $-1 $91 $90 $209 $210 forward $80 $-1 #
edge $-1 $92 -4.7653300497157929 $211 4.7653300497157929 $150 $212 forward 7 unknown #
edge $-1 $213 -4.7653300497157929 $93 4.7653300497157929 $140 $214 forward 7 unknown #
point $-1 -77.921079134495074 -35.343310236778457 -4.7293220353405463 #
point $-1 77.921079134495074 -35.343310236778457 -4.7293220353405463 #
face $-1 $-1 $108 $11 $-1 $215 reversed single #
loop $-1 $-1 $165 $95 #
plane-surface $-1 0 0 10.596089870083942 0 0 1 1 0 0 forward_v I I I I #
coedge $-1 $101 $216 $103 $171 forward $96 $-1 #
coedge $-1 $217 $98 $216 $218 reversed $53 $-1 #
coedge $-1 $98 $217 $106 $176 forward $53 $-1 #
coedge $-1 $100 $99 $107 $177 reversed $33 $-1 #
coedge $-1 $219 $220 $100 $166 forward $159 $-1 #
edge $-1 $169 -77.921079134495074 $221 77.921079134495074 $165 $222 forward 7 unknown #
coedge $-1 $216 $101 $220 $223 reversed $96 $-1 #
vertex $-1 $171 $224 #
vertex $-1 $102 $225 #
straight-curve $-1 -77.921079134495074 24.128697429150353 4.0018695994371258 0 0 1 I I #
edge $-1 $173 -20.475308320296261 $168 -9.2606955126681498 $161 $226 forward 7 unknown #
straight-curve $-1 0 24.128697429150353 5.4113885276645615 -1 0 0 I I #
vertex $-1 $105 $227 #
straight-curve $-1 0 35.343310236778457 5.4113885276645615 -1 0 0 I I #
coedge $-1 $107 $106 $219 $228 reversed $108 $-1 #
edge $-1 $229 -10.596089870083942 $110 -5.4113885276645615 $106 $230 forward 7 unknown #
edge $-1 $221 -6.594220270646816 $109 -1.4095189282274356 $107 $231 forward 7 unknown #
point $-1 77.921079134495074 24.128697429150353 5.4113885276645615 #
point $-1 77.921079134495074 35.343310236778464 5.4113885276645615 #
plane-surface $-1 77.921079134495074 0 0 -1 0 0 0 0 1 forward_v I I I I #
coedge $-1 $191 $115 $118 $184 reversed $61 $-1 #
edge $-1 $129 -10.596089870083942 $187 10.596089870083942 $128 $232 forward 7 unknown #
straight-curve $-1 77.921079134495074 -35.343310236778457 0 0 0 -1 I I #
edge $-1 $185 -35.343310236778457 $187 35.343310236778457 $181 $233 forward 7 unknown #
vertex $-1 $184 $234 #
straight-curve $-1 0 -35.343310236778457 -10.596089870083942 -1 0 0 I I #
vertex $-1 $121 $235 #
straight-curve $-1 0 35.343310236778457 -10.596089870083942 1 0 0 I I #
point $-1 77.921079134495074 35.343310236778457 -10.596089870083942 #
point $-1 77.921079134495074 -35.343310236778457 -10.596089870083942 #
coedge $-1 $125 $181 $131 $194 reversed $61 $-1 #
straight-curve $-1 -77.921079134495074 0 10.596089870083942 0 -1 0 I I #
point $-1 -77.921079134495074 35.343310236778457 10.596089870083942 #
edge $-1 $132 -10.596089870083942 $185 10.596089870083942 $191 $236 forward 7 unknown #
point $-1 -77.921079134495074 -35.343310236778457 10.596089870083942 #
straight-curve $-1 77.921079134495074 35.343310236778457 0 0 0 -1 I I #
plane-surface $-1 -77.921079134495074 0 0 1 0 0 0 0 -1 forward_v I I I I #
coedge $-1 $200 $209 $204 $237 forward $138 $-1 #
coedge $-1 $141 $140 $238 $239 forward $45 $-1 #
coedge $-1 $238 $198 $142 $201 reversed $138 $-1 #
edge $-1 $202 -77.921079134495074 $205 77.921079134495074 $200 $240 forward 7 unknown #
vertex $-1 $239 $241 #
straight-curve $-1 77.921079134495074 0 -10.596089870083942 0 -1 0 I I #
coedge $-1 $150 $144 $198 $237 reversed $151 $-1 #
vertex $-1 $145 $242 #
straight-curve $-1 -77.921079134495074 0 -10.596089870083942 0 1 0 I I #
point $-1 -77.921079134495074 -35.343310236778457 -10.596089870083942 #
point $-1 77.921079134495074 -35.343310236778457 -10.596089870083942 #
coedge $-1 $198 $238 $153 $210 reversed $138 $-1 #
edge $-1 $211 -77.921079134495074 $213 77.921079134495074 $209 $243 forward 7 unknown #
vertex $-1 $154 $244 #
straight-curve $-1 -77.921079134495074 -40.10864028649425 -4.7293220353405463 0 -1 0 I I #
vertex $-1 $155 $245 #
straight-curve $-1 77.921079134495074 -40.10864028649425 -4.7293220353405463 0 1 0 I I #
plane-surface $-1 77.921079134495074 0 0 -1 0 0 0 0 1 forward_v I I I I #
coedge $-1 $161 $167 $162 $218 forward $96 $-1 #
coedge $-1 $163 $162 $246 $247 reversed $53 $-1 #
edge $-1 $248 -10.596089870083942 $173 -5.4113885276645615 $162 $249 forward 7 unknown #
coedge $-1 $246 $165 $175 $228 forward $159 $-1 #
coedge $-1 $165 $246 $167 $223 forward $159 $-1 #
vertex $-1 $228 $250 #
straight-curve $-1 0 24.128697429150353 10.596089870083942 1 0 0 I I #
edge $-1 $248 -35.343310236778457 $169 -24.128697429150353 $167 $251 forward 7 unknown #
point $-1 -77.921079134495074 24.128697429150353 5.4113885276645615 #
point $-1 -77.921079134495074 24.128697429150353 10.596089870083942 #
straight-curve $-1 -77.921079134495074 14.868001916482203 5.4113885276645615 0 -1 0 I I #
point $-1 -77.921079134495074 35.343310236778464 5.4113885276645615 #
edge $-1 $221 24.128697429150353 $229 35.343310236778457 $175 $252 forward 7 unknown #
vertex $-1 $228 $253 #
straight-curve $-1 77.921079134495074 35.343310236778457 0 0 0 -1 I I #
straight-curve $-1 77.921079134495074 24.128697429150353 4.0018695994371258 0 0 -1 I I #
straight-curve $-1 -77.921079134495074 35.343310236778457 0 0 0 -1 I I #
straight-curve $-1 -77.921079134495074 0 -10.596089870083942 0 1 0 I I #
point $-1 -77.921079134495074 -35.343310236778457 -10.596089870083942 #
point $-1 -77.921079134495074 35.343310236778457 -10.596089870083942 #
straight-curve $-1 -77.921079134495074 -35.343310236778457 0 0 0 -1 I I #
edge $-1 $211 -2.9333839173716978 $205 2.9333839173716978 $204 $254 forward 7 unknown #
coedge $-1 $209 $200 $199 $239 reversed $138 $-1 #
edge $-1 $213 -2.9333839173716978 $202 2.9333839173716978 $199 $255 forward 7 unknown #
straight-curve $-1 0 -44.873970336210043 -10.596089870083942 -1 0 0 I I #
point $-1 77.921079134495074 -44.873970336210043 -10.596089870083942 #
point $-1 -77.921079134495074 -44.873970336210043 -10.596089870083942 #
straight-curve $-1 0 -44.873970336210043 -4.7293220353405463 1 0 0 I I #
point $-1 -77.921079134495074 -44.873970336210043 -4.7293220353405463 #
point $-1 77.921079134495074 -44.873970336210043 -4.7293220353405463 #
coedge $-1 $220 $219 $217 $247 forward $159 $-1 #
edge $-1 $229 -77.921079134495074 $248 77.921079134495074 $217 $256 forward 7 unknown #
vertex $-1 $247 $257 #
straight-curve $-1 -77.921079134495074 35.343310236778457 0 0 0 -1 I I #
point $-1 77.921079134495074 24.128697429150353 10.596089870083942 #
straight-curve $-1 -77.921079134495074 0 10.596089870083942 0 -1 0 I I #
straight-curve $-1 77.921079134495074 0 10.596089870083942 0 1 0 I I #
point $-1 77.921079134495074 35.343310236778457 10.596089870083942 #
straight-curve $-1 -77.921079134495074 -44.873970336210043 -7.6627059527122441 0 0 -1 I I #
straight-curve $-1 77.921079134495074 -44.873970336210043 -7.6627059527122441 0 0 -1 I I #
straight-curve $-1 0 35.343310236778457 10.596089870083942 -1 0 0 I I #
point $-1 -77.921079134495074 35.343310236778457 10.596089870083942 #
End-of-ACIS-data 