500 0 10 0           
7 Unknown 11 ACIS 5.0 NT 24 Fri Mar 26 01:27:08 1999 
-1 9.9999999999999995e-007 1e-010 
body $-1 $10 $-1 $11 #
body $-1 $12 $-1 $13 #
body $-1 $14 $-1 $15 #
body $-1 $16 $-1 $17 #
body $-1 $18 $-1 $19 #
body $-1 $20 $-1 $21 #
body $-1 $22 $-1 $23 #
body $-1 $24 $-1 $25 #
body $-1 $26 $-1 $27 #
body $-1 $28 $-1 $29 #
lump $-1 $-1 $30 $0 #
transform $-1 1 0 0 0 1 0 0 0 1 40.006103701895199 24.333434510632095 5.8903887812397446 1 rotate no_reflect no_shear #
lump $-1 $-1 $31 $1 #
transform $-1 1 0 0 0 1 0 0 0 1 40.006103701895199 24.333434510632095 5.8903887812397446 1 rotate no_reflect no_shear #
lump $-1 $-1 $32 $2 #
transform $-1 1 0 0 0 1 0 0 0 1 40.006103701895199 24.333434510632095 5.8903887812397446 1 rotate no_reflect no_shear #
lump $-1 $-1 $33 $3 #
transform $-1 1 0 0 0 1 0 0 0 1 40.006103701895199 24.333434510632095 5.8903887812397446 1 rotate no_reflect no_shear #
lump $-1 $-1 $34 $4 #
transform $-1 1 0 0 0 1 0 0 0 1 40.006103701895199 24.333434510632095 5.8903887812397446 1 rotate no_reflect no_shear #
lump $-1 $-1 $35 $5 #
transform $-1 1 0 0 0 1 0 0 0 1 40.006103701895199 24.333434510632095 5.8903887812397446 1 rotate no_reflect no_shear #
lump $-1 $-1 $36 $6 #
transform $-1 1 0 0 0 1 0 0 0 1 40.006103701895199 24.333434510632095 5.8903887812397446 1 rotate no_reflect no_shear #
lump $-1 $-1 $37 $7 #
transform $-1 1 0 0 0 1 0 0 0 1 40.006103701895199 24.333434510632095 5.8903887812397446 1 rotate no_reflect no_shear #
lump $-1 $-1 $38 $8 #
transform $-1 1 0 0 0 1 0 0 0 1 40.006103701895199 24.333434510632095 5.8903887812397446 1 rotate no_reflect no_shear #
lump $-1 $-1 $39 $9 #
transform $-1 1 0 0 0 1 0 0 0 1 40.006103701895199 24.333434510632095 5.8903887812397446 1 rotate no_reflect no_shear #
shell $-1 $-1 $-1 $40 $-1 $10 #
shell $-1 $-1 $-1 $41 $-1 $12 #
shell $-1 $-1 $-1 $42 $-1 $14 #
shell $-1 $-1 $-1 $43 $-1 $16 #
shell $-1 $-1 $-1 $44 $-1 $18 #
shell $-1 $-1 $-1 $45 $-1 $20 #
shell $-1 $-1 $-1 $46 $-1 $22 #
shell $-1 $-1 $-1 $47 $-1 $24 #
shell $-1 $-1 $-1 $48 $-1 $26 #
shell $-1 $-1 $-1 $49 $-1 $28 #
face $-1 $50 $51 $30 $-1 $52 forward single #
face $-1 $53 $54 $31 $-1 $55 forward single #
face $-1 $56 $57 $32 $-1 $58 reversed single #
face $-1 $59 $60 $33 $-1 $61 forward single #
face $-1 $62 $63 $34 $-1 $64 forward single #
face $-1 $65 $66 $35 $-1 $67 forward single #
face $-1 $68 $69 $36 $-1 $70 reversed single #
face $-1 $71 $72 $37 $-1 $73 forward single #
face $-1 $74 $75 $38 $-1 $76 forward single #
face $-1 $77 $78 $39 $-1 $79 forward single #
face $-1 $80 $81 $30 $-1 $82 reversed single #
loop $-1 $-1 $83 $40 #
plane-surface $-1 0 0 5.8903887812397446 0 0 1 1 0 0 forward_v I I I I #
face $-1 $84 $85 $31 $-1 $86 reversed single #
loop $-1 $-1 $87 $41 #
plane-surface $-1 -36.450179881366189 0 -1.3602444322984963 0 0 1 1 0 0 forward_v I I I I #
face $-1 $88 $89 $32 $-1 $90 reversed single #
loop $-1 $-1 $91 $42 #
plane-surface $-1 -12.263701201929464 58.945572862941383 89.096462396229157 1 0 0 0 -0.79863551827123203 -0.60181501223851219 forward_v I I I I #
face $-1 $92 $93 $33 $-1 $94 forward single #
loop $-1 $95 $96 $43 #
cone-surface $-1 -9.0997761974377696 22.497253445965757 3.6826992119261996 0 -0.79863551827123203 -0.60181501223851219 0.5 0 0 1 I I 0 1 0.5 forward I I I I #
face $-1 $97 $98 $34 $-1 $99 forward single #
loop $-1 $100 $101 $44 #
cone-surface $-1 -4.3538886907002308 22.497253445965757 3.6826992119261996 0 -0.79863551827123203 -0.60181501223851219 0.5 0 0 1 I I 0 1 0.5 forward I I I I #
face $-1 $102 $103 $35 $-1 $104 forward single #
loop $-1 $105 $106 $45 #
cone-surface $-1 0.39199881603730802 22.497253445965757 3.6826992119261996 0 -0.79863551827123203 -0.60181501223851219 0.5 0 0 1 I I 0 1 0.5 forward I I I I #
face $-1 $107 $108 $36 $-1 $109 reversed single #
loop $-1 $-1 $110 $46 #
plane-surface $-1 24.186478679436732 58.945572862941383 89.096462396229157 1 0 0 0 -0.79863551827123203 -0.60181501223851219 forward_v I I I I #
face $-1 $111 $112 $37 $-1 $113 forward single #
loop $-1 $114 $115 $47 #
cone-surface $-1 27.35040368392842 22.497253445965757 3.6826992119261996 0 -0.79863551827123203 -0.60181501223851219 0.5 0 0 1 I I 0 1 0.5 forward I I I I #
face $-1 $116 $117 $38 $-1 $118 forward single #
loop $-1 $119 $120 $48 #
cone-surface $-1 32.096291190665966 22.497253445965757 3.6826992119261996 0 -0.79863551827123203 -0.60181501223851219 0.5 0 0 1 I I 0 1 0.5 forward I I I I #
face $-1 $121 $122 $39 $-1 $123 forward single #
loop $-1 $124 $125 $49 #
cone-surface $-1 36.842178697403497 22.497253445965757 3.6826992119261996 0 -0.79863551827123203 -0.60181501223851219 0.5 0 0 1 I I 0 1 0.5 forward I I I I #
face $-1 $126 $127 $30 $-1 $128 reversed single #
loop $-1 $-1 $129 $50 #
plane-surface $-1 0 0 -5.8903887812397446 0 0 1 1 0 0 forward_v I I I I #
coedge $-1 $130 $131 $132 $133 forward $51 $-1 #
face $-1 $134 $135 $31 $-1 $136 reversed single #
loop $-1 $-1 $137 $53 #
plane-surface $-1 -36.450179881366189 0 -4.3602444322984963 0 0 1 1 0 0 forward_v I I I I #
coedge $-1 $138 $139 $140 $141 forward $54 $-1 #
face $-1 $142 $143 $32 $-1 $144 reversed single #
loop $-1 $-1 $145 $56 #
plane-surface $-1 -4.3538886907002308 -4.9550178650100705 40.943914818286665 0 0.79863551827123203 0.60181501223851219 1 0 0 forward_v I I I I #
coedge $-1 $146 $147 $148 $149 reversed $57 $-1 #
face $-1 $-1 $150 $33 $-1 $151 forward single #
loop $-1 $152 $153 $59 #
cone-surface $-1 -9.0997761974377696 21.898276807262334 3.2313379527473156 0 -0.79863551827123203 -0.60181501223851219 0.25 0 0 1 I I -0.70710678118654746 0.70710678118654746 0.25 forward I I I I #
loop $-1 $-1 $154 $43 #
coedge $-1 $96 $96 $155 $156 reversed $60 $-1 #
face $-1 $-1 $157 $34 $-1 $158 forward single #
loop $-1 $159 $160 $62 #
cone-surface $-1 -4.3538886907002308 21.898276807262334 3.2313379527473156 0 -0.79863551827123203 -0.60181501223851219 0.25 0 0 1 I I -0.70710678118654746 0.70710678118654746 0.25 forward I I I I #
loop $-1 $-1 $161 $44 #
coedge $-1 $101 $101 $162 $163 reversed $63 $-1 #
face $-1 $-1 $164 $35 $-1 $165 forward single #
loop $-1 $166 $167 $65 #
cone-surface $-1 0.39199881603730802 21.898276807262334 3.2313379527473156 0 -0.79863551827123203 -0.60181501223851219 0.25 0 0 1 I I -0.70710678118654746 0.70710678118654746 0.25 forward I I I I #
loop $-1 $-1 $168 $45 #
coedge $-1 $106 $106 $169 $170 reversed $66 $-1 #
face $-1 $171 $172 $36 $-1 $173 forward single #
loop $-1 $-1 $174 $68 #
plane-surface $-1 32.096291190665966 -4.9550178650100705 40.943914818286665 0 0.79863551827123203 0.60181501223851219 1 0 0 forward_v I I I I #
coedge $-1 $175 $176 $177 $178 reversed $69 $-1 #
face $-1 $-1 $179 $37 $-1 $180 forward single #
loop $-1 $181 $182 $71 #
cone-surface $-1 27.35040368392842 21.898276807262334 3.2313379527473156 0 -0.79863551827123203 -0.60181501223851219 0.25 0 0 1 I I -0.70710678118654746 0.70710678118654746 0.25 forward I I I I #
loop $-1 $-1 $183 $47 #
coedge $-1 $115 $115 $184 $185 reversed $72 $-1 #
face $-1 $-1 $186 $38 $-1 $187 forward single #
loop $-1 $188 $189 $74 #
cone-surface $-1 32.096291190665966 21.898276807262334 3.2313379527473156 0 -0.79863551827123203 -0.60181501223851219 0.25 0 0 1 I I -0.70710678118654746 0.70710678118654746 0.25 forward I I I I #
loop $-1 $-1 $190 $48 #
coedge $-1 $120 $120 $191 $192 reversed $75 $-1 #
face $-1 $-1 $193 $39 $-1 $194 forward single #
loop $-1 $195 $196 $77 #
cone-surface $-1 36.842178697403497 21.898276807262334 3.2313379527473156 0 -0.79863551827123203 -0.60181501223851219 0.25 0 0 1 I I -0.70710678118654746 0.70710678118654746 0.25 forward I I I I #
loop $-1 $-1 $197 $49 #
coedge $-1 $125 $125 $198 $199 reversed $78 $-1 #
face $-1 $200 $201 $30 $-1 $202 reversed single #
loop $-1 $-1 $203 $80 #
plane-surface $-1 0 -24.333434510632095 0 0 1 0 0 0 1 forward_v I I I I #
coedge $-1 $204 $205 $206 $207 forward $81 $-1 #
coedge $-1 $208 $83 $209 $210 forward $51 $-1 #
coedge $-1 $83 $208 $211 $212 forward $51 $-1 #
coedge $-1 $213 $214 $83 $133 reversed $215 $-1 #
edge $-1 $216 -24.333434510632095 $217 24.333434510632095 $132 $218 forward 7 unknown #
face $-1 $219 $220 $31 $-1 $221 reversed single #
loop $-1 $-1 $222 $84 #
plane-surface $-1 -32.894256060837179 0 -2.8602444322984963 -1 0 0 0 0 1 forward_v I I I I #
coedge $-1 $223 $224 $225 $226 forward $85 $-1 #
coedge $-1 $227 $87 $228 $229 reversed $54 $-1 #
coedge $-1 $87 $227 $230 $231 reversed $54 $-1 #
coedge $-1 $222 $232 $87 $141 reversed $135 $-1 #
edge $-1 $233 -24.333434510632095 $234 24.333434510632095 $140 $235 forward 7 unknown #
face $-1 $236 $237 $32 $-1 $238 forward single #
loop $-1 $-1 $239 $88 #
plane-surface $-1 3.5559238205290029 58.945572862941383 89.096462396229157 -1 0 0 0 0.79863551827123203 0.60181501223851219 forward_v I I I I #
coedge $-1 $240 $241 $242 $243 reversed $89 $-1 #
coedge $-1 $147 $91 $244 $245 reversed $57 $-1 #
coedge $-1 $91 $146 $240 $246 reversed $57 $-1 #
coedge $-1 $242 $247 $91 $149 forward $237 $-1 #
edge $-1 $248 5.139351920838596 $249 8.0130785319000282 $148 $250 forward 7 unknown #
loop $-1 $-1 $155 $92 #
plane-surface $-1 -4.3538886907002308 -4.9550178650100705 40.943914818286665 0 0.79863551827123203 0.60181501223851219 1 0 0 forward_v I I I I #
loop $-1 $-1 $251 $59 #
coedge $-1 $153 $153 $154 $252 reversed $93 $-1 #
coedge $-1 $154 $154 $153 $252 forward $95 $-1 #
coedge $-1 $155 $155 $96 $156 forward $150 $-1 #
edge $-1 $253 1.3783259511344542e-015 $253 6.2831853071796022 $155 $254 forward 7 unknown #
loop $-1 $-1 $162 $97 #
plane-surface $-1 -4.3538886907002308 -4.9550178650100705 40.943914818286665 0 0.79863551827123203 0.60181501223851219 1 0 0 forward_v I I I I #
loop $-1 $-1 $255 $62 #
coedge $-1 $160 $160 $161 $256 reversed $98 $-1 #
coedge $-1 $161 $161 $160 $256 forward $100 $-1 #
coedge $-1 $162 $162 $101 $163 forward $157 $-1 #
edge $-1 $257 1.3783259511344542e-015 $257 6.2831853071796022 $162 $258 forward 7 unknown #
loop $-1 $-1 $169 $102 #
plane-surface $-1 -4.3538886907002308 -4.9550178650100705 40.943914818286665 0 0.79863551827123203 0.60181501223851219 1 0 0 forward_v I I I I #
loop $-1 $-1 $259 $65 #
coedge $-1 $167 $167 $168 $260 reversed $103 $-1 #
coedge $-1 $168 $168 $167 $260 forward $105 $-1 #
coedge $-1 $169 $169 $106 $170 forward $164 $-1 #
edge $-1 $261 1.3783259511344542e-015 $261 6.2831853071796022 $169 $262 forward 7 unknown #
face $-1 $263 $264 $36 $-1 $265 reversed single #
loop $-1 $-1 $177 $107 #
plane-surface $-1 0 0 5.8903887812397446 0 0 1 1 0 0 forward_v I I I I #
coedge $-1 $266 $267 $268 $269 reversed $108 $-1 #
coedge $-1 $176 $110 $270 $271 reversed $69 $-1 #
coedge $-1 $110 $175 $266 $272 reversed $69 $-1 #
coedge $-1 $268 $273 $110 $178 forward $172 $-1 #
edge $-1 $274 5.139351920838596 $275 8.0130785319000282 $177 $276 forward 7 unknown #
loop $-1 $-1 $184 $111 #
plane-surface $-1 32.096291190665966 -4.9550178650100705 40.943914818286665 0 0.79863551827123203 0.60181501223851219 1 0 0 forward_v I I I I #
loop $-1 $-1 $277 $71 #
coedge $-1 $182 $182 $183 $278 reversed $112 $-1 #
coedge $-1 $183 $183 $182 $278 forward $114 $-1 #
coedge $-1 $184 $184 $115 $185 forward $179 $-1 #
edge $-1 $279 1.3783259511344542e-015 $279 6.2831853071796022 $184 $280 forward 7 unknown #
loop $-1 $-1 $191 $116 #
plane-surface $-1 32.096291190665966 -4.9550178650100705 40.943914818286665 0 0.79863551827123203 0.60181501223851219 1 0 0 forward_v I I I I #
loop $-1 $-1 $281 $74 #
coedge $-1 $189 $189 $190 $282 reversed $117 $-1 #
coedge $-1 $190 $190 $189 $282 forward $119 $-1 #
coedge $-1 $191 $191 $120 $192 forward $186 $-1 #
edge $-1 $283 1.3783259511344542e-015 $283 6.2831853071796022 $191 $284 forward 7 unknown #
loop $-1 $-1 $198 $121 #
plane-surface $-1 32.096291190665966 -4.9550178650100705 40.943914818286665 0 0.79863551827123203 0.60181501223851219 1 0 0 forward_v I I I I #
loop $-1 $-1 $285 $77 #
coedge $-1 $196 $196 $197 $286 reversed $122 $-1 #
coedge $-1 $197 $197 $196 $286 forward $124 $-1 #
coedge $-1 $198 $198 $125 $199 forward $193 $-1 #
edge $-1 $287 1.3783259511344542e-015 $287 6.2831853071796022 $198 $288 forward 7 unknown #
face $-1 $289 $290 $30 $-1 $291 reversed single #
loop $-1 $-1 $292 $126 #
plane-surface $-1 -40.006103701895199 0 0 1 0 0 0 0 -1 forward_v I I I I #
coedge $-1 $293 $211 $294 $295 forward $127 $-1 #
coedge $-1 $296 $129 $293 $297 forward $81 $-1 #
coedge $-1 $129 $296 $298 $299 forward $81 $-1 #
coedge $-1 $214 $213 $129 $207 reversed $215 $-1 #
edge $-1 $300 -24.333434510632095 $301 24.333434510632095 $206 $302 forward 7 unknown #
coedge $-1 $131 $130 $303 $304 forward $51 $-1 #
coedge $-1 $305 $306 $130 $210 reversed $290 $-1 #
edge $-1 $217 -40.006103701895199 $307 40.006103701895199 $209 $308 forward 7 unknown #
coedge $-1 $203 $309 $131 $212 reversed $127 $-1 #
edge $-1 $310 -40.006103701895199 $216 40.006103701895199 $211 $311 forward 7 unknown #
coedge $-1 $206 $132 $309 $312 forward $215 $-1 #
coedge $-1 $132 $206 $305 $313 reversed $215 $-1 #
loop $-1 $-1 $213 $289 #
vertex $-1 $133 $314 #
vertex $-1 $133 $315 #
straight-curve $-1 40.006103701895199 0 5.8903887812397446 0 1 0 I I #
face $-1 $316 $317 $31 $-1 $318 reversed single #
loop $-1 $-1 $319 $134 #
plane-surface $-1 0 -24.333434510632095 0 0 1 0 0 0 1 forward_v I I I I #
coedge $-1 $225 $140 $320 $321 reversed $135 $-1 #
coedge $-1 $322 $137 $319 $323 reversed $85 $-1 #
coedge $-1 $137 $322 $324 $325 reversed $85 $-1 #
coedge $-1 $232 $222 $137 $226 reversed $135 $-1 #
edge $-1 $326 -24.333434510632095 $327 24.333434510632095 $225 $328 forward 7 unknown #
coedge $-1 $139 $138 $329 $330 reversed $54 $-1 #
coedge $-1 $331 $332 $138 $229 forward $333 $-1 #
edge $-1 $334 -21.781013761212105 $234 -14.669166120154085 $228 $335 forward 7 unknown #
coedge $-1 $336 $320 $139 $231 forward $220 $-1 #
edge $-1 $233 14.669166120154085 $337 21.781013761212105 $230 $338 forward 7 unknown #
coedge $-1 $140 $225 $331 $339 reversed $135 $-1 #
vertex $-1 $231 $340 #
vertex $-1 $229 $341 #
straight-curve $-1 -32.894256060837179 0 -1.3602444322984963 0 1 0 I I #
face $-1 $-1 $342 $32 $-1 $343 reversed single #
loop $-1 $-1 $148 $142 #
plane-surface $-1 0 0 5.8903887812397446 0 0 1 1 0 0 forward_v I I I I #
coedge $-1 $344 $345 $346 $347 reversed $143 $-1 #
coedge $-1 $348 $145 $147 $246 forward $89 $-1 #
coedge $-1 $145 $348 $344 $349 forward $89 $-1 #
coedge $-1 $346 $148 $145 $243 forward $237 $-1 #
edge $-1 $249 -10.086756856579349 $350 5.7328681658791183 $242 $351 forward 7 unknown #
coedge $-1 $352 $353 $146 $245 forward $342 $-1 #
edge $-1 $354 -42.471406543263392 $248 -38.657842416874836 $244 $355 forward 7 unknown #
edge $-1 $249 43.891769443119188 $354 48.666869021264162 $147 $356 forward 7 unknown #
coedge $-1 $148 $346 $352 $357 forward $237 $-1 #
vertex $-1 $245 $358 #
vertex $-1 $149 $359 #
straight-curve $-1 -12.263701201929464 29.472786431470691 5.8903887812397429 0 -1 0 I I #
coedge $-1 $251 $251 $-1 $360 reversed $152 $-1 #
edge $-1 $361 0 $361 6.2831853071796004 $153 $362 forward 7 unknown #
vertex $-1 $156 $363 #
ellipse-curve $-1 -9.0997761974377696 22.896571205101381 3.9836067180454622 0 0.79863551827123203 0.60181501223851219 0.5 0 0 1 I I #
coedge $-1 $255 $255 $-1 $364 reversed $159 $-1 #
edge $-1 $365 0 $365 6.2831853071796004 $160 $366 forward 7 unknown #
vertex $-1 $163 $367 #
ellipse-curve $-1 -4.3538886907002308 22.896571205101381 3.9836067180454622 0 0.79863551827123203 0.60181501223851219 0.5 0 0 1 I I #
coedge $-1 $259 $259 $-1 $368 reversed $166 $-1 #
edge $-1 $369 0 $369 6.2831853071796004 $167 $370 forward 7 unknown #
vertex $-1 $170 $371 #
ellipse-curve $-1 0.39199881603730802 22.896571205101381 3.9836067180454622 0 0.79863551827123203 0.60181501223851219 0.5 0 0 1 I I #
face $-1 $-1 $372 $36 $-1 $373 reversed single #
loop $-1 $-1 $374 $171 #
plane-surface $-1 40.006103701895199 0 0 -1 0 0 0 0 1 forward_v I I I I #
coedge $-1 $375 $174 $176 $272 forward $108 $-1 #
coedge $-1 $174 $375 $374 $376 reversed $108 $-1 #
coedge $-1 $377 $177 $174 $269 forward $172 $-1 #
edge $-1 $275 8.1383330841037491 $378 23.957958106562216 $268 $379 forward 7 unknown #
coedge $-1 $380 $381 $175 $271 forward $372 $-1 #
edge $-1 $382 -42.471406543263392 $274 -38.657842416874836 $270 $383 forward 7 unknown #
edge $-1 $275 43.891769443119188 $382 48.666869021264162 $176 $384 forward 7 unknown #
coedge $-1 $177 $377 $380 $385 forward $172 $-1 #
vertex $-1 $271 $386 #
vertex $-1 $178 $387 #
straight-curve $-1 24.186478679436732 29.472786431470691 5.8903887812397429 0 -1 0 I I #
coedge $-1 $277 $277 $-1 $388 reversed $181 $-1 #
edge $-1 $389 0 $389 6.2831853071796004 $182 $390 forward 7 unknown #
vertex $-1 $185 $391 #
ellipse-curve $-1 27.35040368392842 22.896571205101381 3.9836067180454622 0 0.79863551827123203 0.60181501223851219 0.5 0 0 1 I I #
coedge $-1 $281 $281 $-1 $392 reversed $188 $-1 #
edge $-1 $393 0 $393 6.2831853071796004 $189 $394 forward 7 unknown #
vertex $-1 $192 $395 #
ellipse-curve $-1 32.096291190665966 22.896571205101381 3.9836067180454622 0 0.79863551827123203 0.60181501223851219 0.5 0 0 1 I I #
coedge $-1 $285 $285 $-1 $396 reversed $195 $-1 #
edge $-1 $397 0 $397 6.2831853071796004 $196 $398 forward 7 unknown #
vertex $-1 $199 $399 #
ellipse-curve $-1 36.842178697403497 22.896571205101381 3.9836067180454622 0 0.79863551827123203 0.60181501223851219 0.5 0 0 1 I I #
face $-1 $-1 $215 $30 $-1 $400 reversed single #
loop $-1 $-1 $305 $200 #
plane-surface $-1 0 24.333434510632095 0 0 -1 0 0 0 -1 forward_v I I I I #
coedge $-1 $401 $303 $306 $402 forward $201 $-1 #
coedge $-1 $309 $203 $204 $297 reversed $127 $-1 #
coedge $-1 $303 $401 $203 $295 reversed $201 $-1 #
edge $-1 $310 -5.8903887812397446 $403 5.8903887812397446 $294 $404 forward 7 unknown #
coedge $-1 $205 $204 $401 $405 forward $81 $-1 #
edge $-1 $301 -40.006103701895199 $403 40.006103701895199 $293 $406 forward 7 unknown #
coedge $-1 $306 $305 $205 $299 reversed $290 $-1 #
edge $-1 $407 -40.006103701895199 $300 40.006103701895199 $298 $408 forward 7 unknown #
vertex $-1 $207 $409 #
vertex $-1 $312 $410 #
straight-curve $-1 40.006103701895199 0 -5.8903887812397446 0 -1 0 I I #
coedge $-1 $292 $294 $208 $304 reversed $201 $-1 #
edge $-1 $307 -24.333434510632095 $310 24.333434510632095 $303 $411 forward 7 unknown #
coedge $-1 $298 $209 $214 $313 forward $290 $-1 #
coedge $-1 $209 $298 $292 $402 reversed $290 $-1 #
vertex $-1 $210 $412 #
straight-curve $-1 0 24.333434510632095 5.8903887812397446 -1 0 0 I I #
coedge $-1 $211 $293 $213 $312 reversed $127 $-1 #
vertex $-1 $304 $413 #
straight-curve $-1 0 -24.333434510632095 5.8903887812397446 1 0 0 I I #
edge $-1 $216 -5.8903887812397446 $301 5.8903887812397446 $213 $414 forward 7 unknown #
edge $-1 $217 -5.8903887812397446 $300 5.8903887812397446 $214 $415 forward 7 unknown #
point $-1 40.006103701895199 -24.333434510632095 5.8903887812397446 #
point $-1 40.006103701895199 24.333434510632095 5.8903887812397446 #
face $-1 $-1 $333 $31 $-1 $416 reversed single #
loop $-1 $-1 $417 $219 #
plane-surface $-1 -40.006103701895199 0 0 1 0 0 0 0 -1 forward_v I I I I #
coedge $-1 $320 $336 $223 $323 forward $220 $-1 #
coedge $-1 $230 $319 $222 $321 forward $220 $-1 #
edge $-1 $327 -2.9301222161492482 $233 0.069877783850751829 $320 $418 forward 7 unknown #
coedge $-1 $224 $223 $417 $419 reversed $85 $-1 #
edge $-1 $420 -21.781013761212105 $327 -14.669166120154085 $319 $421 forward 7 unknown #
coedge $-1 $332 $331 $224 $325 forward $333 $-1 #
edge $-1 $326 14.669166120154085 $422 21.781013761212105 $324 $423 forward 7 unknown #
vertex $-1 $325 $424 #
vertex $-1 $323 $425 #
straight-curve $-1 -32.894256060837179 0 -4.3602444322984963 0 -1 0 I I #
coedge $-1 $426 $427 $227 $330 forward $317 $-1 #
edge $-1 $337 -24.333434510632095 $334 24.333434510632095 $329 $428 forward 7 unknown #
coedge $-1 $324 $228 $232 $339 forward $333 $-1 #
coedge $-1 $228 $324 $426 $429 reversed $333 $-1 #
loop $-1 $-1 $324 $316 #
vertex $-1 $429 $430 #
straight-curve $-1 -18.225089940683095 24.333434510632095 -1.3602444322984963 1 0 0 I I #
coedge $-1 $319 $230 $427 $431 forward $220 $-1 #
vertex $-1 $431 $432 #
straight-curve $-1 -18.225089940683095 -24.333434510632095 -1.3602444322984963 -1 0 0 I I #
edge $-1 $234 -0.069877783850751829 $326 2.9301222161492482 $331 $433 forward 7 unknown #
point $-1 -32.894256060837179 -24.333434510632095 -1.3602444322984963 #
point $-1 -32.894256060837179 24.333434510632095 -1.3602444322984963 #
loop $-1 $-1 $244 $236 #
plane-surface $-1 0 24.333434510632095 0 0 -1 0 0 0 -1 forward_v I I I I #
coedge $-1 $345 $239 $241 $349 reversed $143 $-1 #
coedge $-1 $239 $344 $434 $435 reversed $143 $-1 #
coedge $-1 $247 $242 $239 $347 forward $237 $-1 #
edge $-1 $350 -8.0130785319000282 $436 -5.139351920838596 $346 $437 forward 7 unknown #
coedge $-1 $241 $240 $353 $438 reversed $89 $-1 #
edge $-1 $439 -48.666869021264162 $350 -43.891769443119188 $344 $440 forward 7 unknown #
vertex $-1 $243 $441 #
straight-curve $-1 -2.1769443453501154 21.459707899570656 5.8903887812397464 1 0 0 I I #
coedge $-1 $434 $244 $247 $357 reversed $342 $-1 #
coedge $-1 $244 $434 $348 $438 forward $342 $-1 #
vertex $-1 $245 $442 #
straight-curve $-1 -12.263701201929464 24.333434510632095 44.548231198114578 0 0 1 I I #
straight-curve $-1 -12.263701201929464 -4.9550178650100705 40.943914818286665 0 0.60181501223851219 -0.79863551827123203 I I #
edge $-1 $436 -3.5559238205290029 $248 12.263701201929464 $352 $443 forward 7 unknown #
point $-1 -12.263701201929464 24.333434510632095 5.8903887812397446 #
point $-1 -12.263701201929464 21.459707899570663 5.8903887812397429 #
edge $-1 $444 1 $444 0 $251 $-1 forward 7 unknown #
vertex $-1 $252 $445 #
ellipse-curve $-1 -9.0997761974377696 22.097935686830141 3.3817917058069438 0 0.79863551827123203 0.60181501223851219 0.5 0 0 1 I I #
point $-1 -8.5997761974377696 22.896571205101374 3.983606718045456 #
edge $-1 $446 1 $446 0 $255 $-1 forward 7 unknown #
vertex $-1 $256 $447 #
ellipse-curve $-1 -4.3538886907002308 22.097935686830141 3.3817917058069438 0 0.79863551827123203 0.60181501223851219 0.5 0 0 1 I I #
point $-1 -3.8538886907002308 22.896571205101374 3.983606718045456 #
edge $-1 $448 1 $448 0 $259 $-1 forward 7 unknown #
vertex $-1 $260 $449 #
ellipse-curve $-1 0.39199881603730802 22.097935686830141 3.3817917058069438 0 0.79863551827123203 0.60181501223851219 0.5 0 0 1 I I #
point $-1 0.89199881603730802 22.896571205101374 3.983606718045456 #
loop $-1 $-1 $270 $263 #
plane-surface $-1 0 24.333434510632095 0 0 -1 0 0 0 -1 forward_v I I I I #
coedge $-1 $450 $451 $267 $376 forward $264 $-1 #
coedge $-1 $267 $266 $381 $452 reversed $108 $-1 #
edge $-1 $378 26.05113505910488 $453 30.826234637249854 $374 $454 forward 7 unknown #
coedge $-1 $273 $268 $451 $455 forward $172 $-1 #
vertex $-1 $455 $456 #
straight-curve $-1 16.048145595332983 21.459707899570656 5.8903887812397464 1 0 0 I I #
coedge $-1 $457 $270 $273 $385 reversed $372 $-1 #
coedge $-1 $270 $457 $375 $452 forward $372 $-1 #
vertex $-1 $271 $458 #
straight-curve $-1 24.186478679436732 24.333434510632095 44.548231198114578 0 0 1 I I #
straight-curve $-1 24.186478679436732 -4.9550178650100705 40.943914818286665 0 0.60181501223851219 -0.79863551827123203 I I #
edge $-1 $459 -40.006103701895199 $274 -24.186478679436732 $380 $460 forward 7 unknown #
point $-1 24.186478679436732 24.333434510632095 5.8903887812397446 #
point $-1 24.186478679436732 21.459707899570663 5.8903887812397429 #
edge $-1 $461 1 $461 0 $277 $-1 forward 7 unknown #
vertex $-1 $278 $462 #
ellipse-curve $-1 27.35040368392842 22.097935686830141 3.3817917058069438 0 0.79863551827123203 0.60181501223851219 0.5 0 0 1 I I #
point $-1 27.85040368392842 22.896571205101374 3.983606718045456 #
edge $-1 $463 1 $463 0 $281 $-1 forward 7 unknown #
vertex $-1 $282 $464 #
ellipse-curve $-1 32.096291190665966 22.097935686830141 3.3817917058069438 0 0.79863551827123203 0.60181501223851219 0.5 0 0 1 I I #
point $-1 32.596291190665966 22.896571205101374 3.983606718045456 #
edge $-1 $465 1 $465 0 $285 $-1 forward 7 unknown #
vertex $-1 $286 $466 #
ellipse-curve $-1 36.842178697403497 22.097935686830141 3.3817917058069438 0 0.79863551827123203 0.60181501223851219 0.5 0 0 1 I I #
point $-1 37.342178697403497 22.896571205101374 3.983606718045456 #
plane-surface $-1 40.006103701895199 0 0 -1 0 0 0 0 1 forward_v I I I I #
coedge $-1 $294 $292 $296 $405 reversed $201 $-1 #
edge $-1 $307 -5.8903887812397446 $407 5.8903887812397446 $306 $467 forward 7 unknown #
vertex $-1 $405 $468 #
straight-curve $-1 -40.006103701895199 -24.333434510632095 0 0 0 -1 I I #
edge $-1 $403 -24.333434510632095 $407 24.333434510632095 $401 $469 forward 7 unknown #
straight-curve $-1 0 -24.333434510632095 -5.8903887812397446 -1 0 0 I I #
vertex $-1 $299 $470 #
straight-curve $-1 0 24.333434510632095 -5.8903887812397446 1 0 0 I I #
point $-1 40.006103701895199 24.333434510632095 -5.8903887812397446 #
point $-1 40.006103701895199 -24.333434510632095 -5.8903887812397446 #
straight-curve $-1 -40.006103701895199 0 5.8903887812397446 0 -1 0 I I #
point $-1 -40.006103701895199 24.333434510632095 5.8903887812397446 #
point $-1 -40.006103701895199 -24.333434510632095 5.8903887812397446 #
straight-curve $-1 40.006103701895199 -24.333434510632095 0 0 0 -1 I I #
straight-curve $-1 40.006103701895199 24.333434510632095 0 0 0 -1 I I #
plane-surface $-1 0 24.333434510632095 0 0 -1 0 0 0 -1 forward_v I I I I #
coedge $-1 $427 $426 $322 $419 forward $317 $-1 #
straight-curve $-1 -32.894256060837179 -24.333434510632095 -1.4301222161492482 0 0 1 I I #
edge $-1 $422 -24.333434510632095 $420 24.333434510632095 $417 $471 forward 7 unknown #
vertex $-1 $323 $472 #
straight-curve $-1 -18.225089940683095 -24.333434510632095 -4.3602444322984963 1 0 0 I I #
vertex $-1 $325 $473 #
straight-curve $-1 -18.225089940683095 24.333434510632095 -4.3602444322984963 -1 0 0 I I #
point $-1 -32.894256060837179 24.333434510632095 -4.3602444322984963 #
point $-1 -32.894256060837179 -24.333434510632095 -4.3602444322984963 #
coedge $-1 $417 $329 $332 $429 forward $317 $-1 #
coedge $-1 $329 $417 $336 $431 reversed $317 $-1 #
straight-curve $-1 -40.006103701895199 0 -1.3602444322984963 0 1 0 I I #
edge $-1 $334 1.3602444322984963 $422 4.3602444322984963 $332 $474 forward 7 unknown #
point $-1 -40.006103701895199 24.333434510632095 -1.3602444322984963 #
edge $-1 $337 1.3602444322984963 $420 4.3602444322984963 $427 $475 forward 7 unknown #
point $-1 -40.006103701895199 -24.333434510632095 -1.3602444322984963 #
straight-curve $-1 -32.894256060837179 24.333434510632095 -1.4301222161492482 0 0 -1 I I #
coedge $-1 $353 $352 $345 $435 forward $342 $-1 #
edge $-1 $436 38.657842416874836 $439 42.471406543263392 $434 $476 forward 7 unknown #
vertex $-1 $357 $477 #
straight-curve $-1 3.5559238205290029 29.472786431470691 5.8903887812397429 0 1 0 I I #
edge $-1 $439 -5.7328681658791183 $354 10.086756856579349 $353 $478 forward 7 unknown #
vertex $-1 $438 $479 #
straight-curve $-1 3.5559238205290029 -4.9550178650100705 40.943914818286665 0 -0.60181501223851219 0.79863551827123203 I I #
point $-1 3.5559238205290029 21.459707899570663 5.8903887812397429 #
point $-1 -12.263701201929464 24.333434510632095 2.0768246548511868 #
straight-curve $-1 0 24.333434510632095 5.8903887812397446 -1 0 0 I I #
vertex $-1 $360 $480 #
point $-1 -8.5997761974377696 22.097935686830141 3.3817917058069438 #
vertex $-1 $364 $481 #
point $-1 -3.8538886907002308 22.097935686830141 3.3817917058069438 #
vertex $-1 $368 $482 #
point $-1 0.89199881603730802 22.097935686830141 3.3817917058069438 #
coedge $-1 $451 $374 $457 $483 reversed $264 $-1 #
coedge $-1 $374 $450 $377 $455 reversed $264 $-1 #
edge $-1 $453 -23.957958106562216 $382 -8.1383330841037491 $381 $484 forward 7 unknown #
vertex $-1 $376 $485 #
straight-curve $-1 40.006103701895199 5.7817437351483267 26.695750530721831 0 0.60181501223851219 -0.79863551827123203 I I #
edge $-1 $378 21.459707899570663 $459 24.333434510632095 $451 $486 forward 7 unknown #
point $-1 40.006103701895199 21.459707899570663 5.8903887812397429 #
coedge $-1 $381 $380 $450 $483 forward $372 $-1 #
point $-1 24.186478679436732 24.333434510632095 2.0768246548511868 #
vertex $-1 $455 $487 #
straight-curve $-1 0 24.333434510632095 5.8903887812397446 -1 0 0 I I #
vertex $-1 $388 $488 #
point $-1 27.85040368392842 22.097935686830141 3.3817917058069438 #
vertex $-1 $392 $489 #
point $-1 32.596291190665966 22.097935686830141 3.3817917058069438 #
vertex $-1 $396 $490 #
point $-1 37.342178697403497 22.097935686830141 3.3817917058069438 #
straight-curve $-1 -40.006103701895199 24.333434510632095 0 0 0 -1 I I #
point $-1 -40.006103701895199 -24.333434510632095 -5.8903887812397446 #
straight-curve $-1 -40.006103701895199 0 -5.8903887812397446 0 1 0 I I #
point $-1 -40.006103701895199 24.333434510632095 -5.8903887812397446 #
straight-curve $-1 -40.006103701895199 0 -4.3602444322984963 0 -1 0 I I #
point $-1 -40.006103701895199 -24.333434510632095 -4.3602444322984963 #
point $-1 -40.006103701895199 24.333434510632095 -4.3602444322984963 #
straight-curve $-1 -40.006103701895199 24.333434510632095 0 0 0 -1 I I #
straight-curve $-1 -40.006103701895199 -24.333434510632095 0 0 0 -1 I I #
straight-curve $-1 3.5559238205290029 24.333434510632095 44.548231198114578 0 0 -1 I I #
point $-1 3.5559238205290029 24.333434510632095 5.8903887812397446 #
straight-curve $-1 -2.1769443453501154 24.333434510632095 2.0768246548511868 -1 0 0 I I #
point $-1 3.5559238205290029 24.333434510632095 2.0768246548511868 #
point $-1 -9.0997761974377696 21.698617927694528 3.0808841996876875 #
point $-1 -4.3538886907002308 21.698617927694528 3.0808841996876875 #
point $-1 0.39199881603730802 21.698617927694528 3.0808841996876875 #
edge $-1 $459 -5.8903887812397446 $453 -2.0768246548511868 $450 $491 forward 7 unknown #
straight-curve $-1 16.048145595332983 24.333434510632095 2.0768246548511868 -1 0 0 I I #
point $-1 40.006103701895199 24.333434510632095 2.0768246548511868 #
straight-curve $-1 40.006103701895199 0 5.8903887812397446 0 1 0 I I #
point $-1 40.006103701895199 24.333434510632095 5.8903887812397446 #
point $-1 27.35040368392842 21.698617927694528 3.0808841996876875 #
point $-1 32.096291190665966 21.698617927694528 3.0808841996876875 #
point $-1 36.842178697403497 21.698617927694528 3.0808841996876875 #
straight-curve $-1 40.006103701895199 24.333434510632095 0 0 0 -1 I I #
End-of-ACIS-data 