500 0 5 0           
7 Unknown 11 ACIS 5.0 NT 24 Thu Mar 25 16:11:20 1999 
-1 9.9999999999999995e-007 1e-010 
body $-1 $5 $-1 $6 #
body $-1 $7 $-1 $8 #
body $-1 $9 $-1 $10 #
body $-1 $11 $-1 $12 #
body $-1 $13 $-1 $14 #
lump $-1 $-1 $15 $0 #
transform $-1 1 0 0 0 1 0 0 0 1 50.200506607257303 29.792752821050705 13.336682566437386 1 rotate no_reflect no_shear #
lump $-1 $-1 $16 $1 #
transform $-1 1 0 0 0 1 0 0 0 1 50.200506607257303 29.792752821050705 13.336682566437386 1 rotate no_reflect no_shear #
lump $-1 $-1 $17 $2 #
transform $-1 1 0 0 0 1 0 0 0 1 50.200506607257303 29.792752821050705 13.336682566437386 1 rotate no_reflect no_shear #
lump $-1 $-1 $18 $3 #
transform $-1 1 0 0 0 1 0 0 0 1 50.200506607257303 29.792752821050705 13.336682566437386 1 rotate no_reflect no_shear #
lump $-1 $-1 $19 $4 #
transform $-1 1 0 0 0 1 0 0 0 1 50.200506607257303 29.792752821050705 13.336682566437386 1 rotate no_reflect no_shear #
shell $-1 $-1 $-1 $20 $-1 $5 #
shell $-1 $-1 $-1 $21 $-1 $7 #
shell $-1 $-1 $-1 $22 $-1 $9 #
shell $-1 $-1 $-1 $23 $-1 $11 #
shell $-1 $-1 $-1 $24 $-1 $13 #
face $-1 $25 $26 $15 $-1 $27 forward single #
face $-1 $28 $29 $16 $-1 $30 forward single #
face $-1 $31 $32 $17 $-1 $33 reversed single #
face $-1 $34 $35 $18 $-1 $36 forward single #
face $-1 $37 $38 $19 $-1 $39 forward single #
face $-1 $40 $41 $15 $-1 $42 reversed single #
loop $-1 $-1 $43 $20 #
plane-surface $-1 0 0 13.336682566437386 0 0 1 1 0 0 forward_v I I I I #
face $-1 $44 $45 $16 $-1 $46 reversed single #
loop $-1 $-1 $47 $21 #
plane-surface $-1 -50.200506607257303 0 0 1 0 0 0 0 -1 forward_v I I I I #
face $-1 $48 $49 $17 $-1 $50 reversed single #
loop $-1 $-1 $51 $22 #
plane-surface $-1 40.295892806701737 11.877835791715579 148.5972322344042 0 -1 0 -0.6560590369687036 0 -0.75470957328743171 forward_v I I I I #
face $-1 $52 $53 $18 $-1 $54 forward single #
loop $-1 $55 $56 $23 #
cone-surface $-1 45.242132251031627 6.8595008316698838 8.6645348763094372 -0.6560590369687036 0 -0.75470957328743171 0.75470957328743171 0 -0.6560590369687036 1 I I 0 1 1 forward I I I I #
face $-1 $57 $58 $19 $-1 $59 forward single #
loop $-1 $60 $61 $24 #
cone-surface $-1 45.242132251031627 9.8705018076973019 8.6645348763094372 -0.6560590369687036 0 -0.75470957328743171 0.75470957328743171 0 -0.6560590369687036 1 I I 0 1 1 forward I I I I #
face $-1 $62 $63 $15 $-1 $64 reversed single #
loop $-1 $-1 $65 $25 #
plane-surface $-1 0 0 -13.336682566437386 0 0 1 1 0 0 forward_v I I I I #
coedge $-1 $66 $67 $68 $69 forward $26 $-1 #
face $-1 $70 $71 $16 $-1 $72 forward single #
loop $-1 $-1 $73 $28 #
plane-surface $-1 0 29.792752821050705 0 0 -1 0 0 0 -1 forward_v I I I I #
coedge $-1 $74 $75 $76 $77 forward $29 $-1 #
face $-1 $78 $79 $17 $-1 $80 reversed single #
loop $-1 $-1 $81 $31 #
plane-surface $-1 -25.573099233494794 8.3650013196835928 72.823626393652091 0.6560590369687036 0 0.75470957328743171 0.75470957328743171 0 -0.6560590369687036 forward_v I I I I #
coedge $-1 $82 $83 $84 $85 reversed $32 $-1 #
face $-1 $-1 $86 $18 $-1 $87 forward single #
loop $-1 $88 $89 $34 #
cone-surface $-1 43.626581616735912 6.8595008316698838 6.8060565060286784 -0.6560590369687036 0 -0.75470957328743171 0.37735478664371586 0 -0.3280295184843518 1 I I -0.70710678118654691 0.70710678118654813 0.5 forward I I I I #
loop $-1 $-1 $90 $23 #
coedge $-1 $56 $56 $91 $92 reversed $35 $-1 #
face $-1 $-1 $93 $19 $-1 $94 forward single #
loop $-1 $95 $96 $37 #
cone-surface $-1 43.626581616735912 9.8705018076973019 6.8060565060286784 -0.6560590369687036 0 -0.75470957328743171 0.37735478664371586 0 -0.3280295184843518 1 I I -0.70710678118654691 0.70710678118654813 0.5 forward I I I I #
loop $-1 $-1 $97 $24 #
coedge $-1 $61 $61 $98 $99 reversed $38 $-1 #
face $-1 $100 $101 $15 $-1 $102 reversed single #
loop $-1 $-1 $103 $40 #
plane-surface $-1 0 -29.792752821050705 0 0 1 0 0 0 1 forward_v I I I I #
coedge $-1 $104 $105 $106 $107 forward $41 $-1 #
coedge $-1 $108 $43 $109 $110 forward $26 $-1 #
coedge $-1 $43 $108 $111 $112 forward $26 $-1 #
coedge $-1 $113 $114 $43 $69 reversed $115 $-1 #
edge $-1 $116 -29.792752821050705 $117 29.792752821050705 $68 $118 forward 7 unknown #
face $-1 $119 $120 $16 $-1 $121 reversed single #
loop $-1 $-1 $76 $44 #
plane-surface $-1 -56.432730596554137 0 -6.8925662176298488 0 0 1 1 0 0 forward_v I I I I #
coedge $-1 $122 $123 $75 $124 forward $45 $-1 #
coedge $-1 $125 $47 $126 $127 reversed $29 $-1 #
coedge $-1 $47 $125 $73 $124 reversed $29 $-1 #
coedge $-1 $128 $129 $47 $77 reversed $71 $-1 #
edge $-1 $130 -29.792752821050705 $131 29.792752821050705 $76 $132 forward 7 unknown #
face $-1 $133 $134 $17 $-1 $135 forward single #
loop $-1 $-1 $136 $48 #
plane-surface $-1 40.295892806701737 4.8521668476516062 148.5972322344042 0 1 0 0.6560590369687036 0 0.75470957328743171 forward_v I I I I #
coedge $-1 $137 $138 $139 $140 reversed $49 $-1 #
coedge $-1 $83 $51 $141 $142 reversed $32 $-1 #
coedge $-1 $51 $82 $137 $143 reversed $32 $-1 #
coedge $-1 $139 $144 $51 $85 forward $134 $-1 #
edge $-1 $145 -30.052560203906435 $146 -22.7108537230778 $84 $147 forward 7 unknown #
loop $-1 $-1 $91 $52 #
plane-surface $-1 -25.573099233494794 8.3650013196835928 72.823626393652091 0.6560590369687036 0 0.75470957328743171 0.75470957328743171 0 -0.6560590369687036 forward_v I I I I #
loop $-1 $-1 $148 $34 #
coedge $-1 $89 $89 $90 $149 reversed $53 $-1 #
coedge $-1 $90 $90 $89 $149 forward $55 $-1 #
coedge $-1 $91 $91 $56 $92 forward $86 $-1 #
edge $-1 $150 0 $150 6.2831853071796004 $91 $151 forward 7 unknown #
loop $-1 $-1 $98 $57 #
plane-surface $-1 -25.573099233494794 8.3650013196835928 72.823626393652091 0.6560590369687036 0 0.75470957328743171 0.75470957328743171 0 -0.6560590369687036 forward_v I I I I #
loop $-1 $-1 $152 $37 #
coedge $-1 $96 $96 $97 $153 reversed $58 $-1 #
coedge $-1 $97 $97 $96 $153 forward $60 $-1 #
coedge $-1 $98 $98 $61 $99 forward $93 $-1 #
edge $-1 $154 0 $154 6.2831853071796004 $98 $155 forward 7 unknown #
face $-1 $156 $157 $15 $-1 $158 reversed single #
loop $-1 $-1 $159 $62 #
plane-surface $-1 -50.200506607257303 0 0 1 0 0 0 0 -1 forward_v I I I I #
coedge $-1 $160 $111 $161 $162 forward $63 $-1 #
coedge $-1 $163 $65 $160 $164 forward $41 $-1 #
coedge $-1 $65 $163 $165 $166 forward $41 $-1 #
coedge $-1 $114 $113 $65 $107 reversed $115 $-1 #
edge $-1 $167 -29.792752821050705 $168 29.792752821050705 $106 $169 forward 7 unknown #
coedge $-1 $67 $66 $170 $171 forward $26 $-1 #
coedge $-1 $172 $173 $66 $110 reversed $157 $-1 #
edge $-1 $117 -50.200506607257303 $174 50.200506607257303 $109 $175 forward 7 unknown #
coedge $-1 $103 $176 $67 $112 reversed $63 $-1 #
edge $-1 $177 -50.200506607257303 $116 50.200506607257303 $111 $178 forward 7 unknown #
coedge $-1 $106 $68 $176 $179 forward $115 $-1 #
coedge $-1 $68 $106 $172 $180 reversed $115 $-1 #
loop $-1 $-1 $113 $156 #
vertex $-1 $69 $181 #
vertex $-1 $69 $182 #
straight-curve $-1 50.200506607257303 0 13.336682566437386 0 1 0 I I #
face $-1 $183 $184 $16 $-1 $185 reversed single #
loop $-1 $-1 $186 $70 #
plane-surface $-1 -62.664954585850971 0 -10.114624392033617 1 0 0 0 0 -1 forward_v I I I I #
coedge $-1 $187 $73 $188 $189 reversed $45 $-1 #
coedge $-1 $73 $187 $128 $190 reversed $45 $-1 #
edge $-1 $130 6.8925662176298488 $191 13.336682566437386 $73 $192 forward 7 unknown #
coedge $-1 $75 $74 $193 $194 reversed $29 $-1 #
coedge $-1 $195 $196 $74 $127 forward $197 $-1 #
edge $-1 $198 -13.336682566437386 $131 -6.8925662176298488 $126 $199 forward 7 unknown #
coedge $-1 $200 $76 $123 $190 forward $71 $-1 #
coedge $-1 $76 $200 $195 $201 forward $71 $-1 #
vertex $-1 $124 $202 #
vertex $-1 $201 $203 #
straight-curve $-1 -50.200506607257303 0 -6.8925662176298488 0 -1 0 I I #
face $-1 $-1 $204 $17 $-1 $205 reversed single #
loop $-1 $-1 $84 $78 #
plane-surface $-1 0 0 13.336682566437386 0 0 1 1 0 0 forward_v I I I I #
coedge $-1 $206 $207 $208 $209 reversed $79 $-1 #
coedge $-1 $210 $81 $83 $143 forward $49 $-1 #
coedge $-1 $81 $210 $206 $211 forward $49 $-1 #
coedge $-1 $208 $84 $81 $140 forward $134 $-1 #
edge $-1 $146 -7.695335131873783 $212 -0.6696661878098098 $139 $213 forward 7 unknown #
coedge $-1 $214 $215 $82 $142 forward $204 $-1 #
edge $-1 $216 -67.343981763746541 $145 -60.961933550764712 $141 $217 forward 7 unknown #
edge $-1 $146 90.673156644670144 $216 100.40101321451459 $83 $218 forward 7 unknown #
coedge $-1 $84 $208 $214 $219 forward $134 $-1 #
vertex $-1 $142 $220 #
vertex $-1 $85 $221 #
straight-curve $-1 20.147946403350868 11.877835791715579 13.336682566437389 -1 0 0 I I #
coedge $-1 $148 $148 $-1 $222 reversed $88 $-1 #
edge $-1 $223 0 $223 6.2831853071796004 $89 $224 forward 7 unknown #
vertex $-1 $92 $225 #
ellipse-curve $-1 46.529653366842993 6.8595008316698838 10.14565845994648 0.6560590369687036 0 0.75470957328743171 0.75470957328743171 0 -0.6560590369687036 1 I I #
coedge $-1 $152 $152 $-1 $226 reversed $95 $-1 #
edge $-1 $227 0 $227 6.2831853071796004 $96 $228 forward 7 unknown #
vertex $-1 $99 $229 #
ellipse-curve $-1 46.529653366842993 9.8705018076973019 10.14565845994648 0.6560590369687036 0 0.75470957328743171 0.75470957328743171 0 -0.6560590369687036 1 I I #
face $-1 $-1 $115 $15 $-1 $230 reversed single #
loop $-1 $-1 $172 $100 #
plane-surface $-1 0 29.792752821050705 0 0 -1 0 0 0 -1 forward_v I I I I #
coedge $-1 $231 $170 $173 $232 forward $101 $-1 #
coedge $-1 $176 $103 $104 $164 reversed $63 $-1 #
coedge $-1 $170 $231 $103 $162 reversed $101 $-1 #
edge $-1 $177 -13.336682566437386 $233 13.336682566437386 $161 $234 forward 7 unknown #
coedge $-1 $105 $104 $231 $235 forward $41 $-1 #
edge $-1 $168 -50.200506607257303 $233 50.200506607257303 $160 $236 forward 7 unknown #
coedge $-1 $173 $172 $105 $166 reversed $157 $-1 #
edge $-1 $237 -50.200506607257303 $167 50.200506607257303 $165 $238 forward 7 unknown #
vertex $-1 $107 $239 #
vertex $-1 $179 $240 #
straight-curve $-1 50.200506607257303 0 -13.336682566437386 0 -1 0 I I #
coedge $-1 $159 $161 $108 $171 reversed $101 $-1 #
edge $-1 $174 -29.792752821050705 $177 29.792752821050705 $170 $241 forward 7 unknown #
coedge $-1 $165 $109 $114 $180 forward $157 $-1 #
coedge $-1 $109 $165 $159 $232 reversed $157 $-1 #
vertex $-1 $110 $242 #
straight-curve $-1 0 29.792752821050705 13.336682566437386 -1 0 0 I I #
coedge $-1 $111 $160 $113 $179 reversed $63 $-1 #
vertex $-1 $171 $243 #
straight-curve $-1 0 -29.792752821050705 13.336682566437386 1 0 0 I I #
edge $-1 $116 -13.336682566437386 $168 13.336682566437386 $113 $244 forward 7 unknown #
edge $-1 $117 -13.336682566437386 $167 13.336682566437386 $114 $245 forward 7 unknown #
point $-1 50.200506607257303 -29.792752821050705 13.336682566437386 #
point $-1 50.200506607257303 29.792752821050705 13.336682566437386 #
face $-1 $-1 $197 $16 $-1 $246 reversed single #
loop $-1 $-1 $193 $119 #
plane-surface $-1 0 0 -13.336682566437386 0 0 1 1 0 0 forward_v I I I I #
coedge $-1 $247 $248 $187 $249 forward $120 $-1 #
coedge $-1 $123 $122 $186 $249 reversed $45 $-1 #
coedge $-1 $193 $250 $122 $189 forward $184 $-1 #
edge $-1 $251 -62.664954585850971 $191 -50.200506607257303 $122 $252 forward 7 unknown #
edge $-1 $130 -6.2322239892968341 $253 6.2322239892968341 $123 $254 forward 7 unknown #
vertex $-1 $124 $255 #
straight-curve $-1 -50.200506607257303 29.792752821050705 0 0 0 -1 I I #
coedge $-1 $256 $188 $125 $194 forward $184 $-1 #
edge $-1 $191 -29.792752821050705 $198 29.792752821050705 $193 $257 forward 7 unknown #
coedge $-1 $258 $126 $129 $201 reversed $197 $-1 #
coedge $-1 $126 $258 $256 $259 reversed $197 $-1 #
loop $-1 $-1 $126 $183 #
vertex $-1 $259 $260 #
straight-curve $-1 -50.200506607257303 -29.792752821050705 0 0 0 1 I I #
coedge $-1 $129 $128 $248 $261 forward $71 $-1 #
edge $-1 $262 -6.2322239892968341 $131 6.2322239892968341 $195 $263 forward 7 unknown #
point $-1 -50.200506607257303 29.792752821050705 -6.8925662176298488 #
point $-1 -50.200506607257303 -29.792752821050705 -6.8925662176298488 #
loop $-1 $-1 $141 $133 #
plane-surface $-1 50.200506607257303 0 0 -1 0 0 0 0 1 forward_v I I I I #
coedge $-1 $207 $136 $138 $211 reversed $79 $-1 #
coedge $-1 $136 $206 $264 $265 reversed $79 $-1 #
coedge $-1 $144 $139 $136 $209 forward $134 $-1 #
edge $-1 $212 22.7108537230778 $266 30.052560203906435 $208 $267 forward 7 unknown #
coedge $-1 $138 $137 $215 $268 reversed $49 $-1 #
edge $-1 $269 -100.40101321451459 $212 -90.673156644670144 $206 $270 forward 7 unknown #
vertex $-1 $140 $271 #
straight-curve $-1 42.858800126428662 4.1825006598417964 13.336682566437382 0 -1 0 I I #
coedge $-1 $264 $141 $144 $219 reversed $204 $-1 #
coedge $-1 $141 $264 $210 $268 forward $204 $-1 #
vertex $-1 $142 $272 #
straight-curve $-1 50.200506607257303 11.877835791715579 74.298616117202101 0 0 1 I I #
straight-curve $-1 -25.573099233494794 11.877835791715579 72.823626393652091 0.75470957328743171 0 -0.6560590369687036 I I #
edge $-1 $266 4.8521668476516062 $145 11.877835791715579 $214 $273 forward 7 unknown #
point $-1 50.200506607257303 11.877835791715579 13.336682566437386 #
point $-1 42.858800126428669 11.877835791715579 13.336682566437389 #
edge $-1 $274 1 $274 0 $148 $-1 forward 7 unknown #
vertex $-1 $149 $275 #
ellipse-curve $-1 43.954611135220262 6.8595008316698838 7.1834112926723952 0.6560590369687036 0 0.75470957328743171 0.75470957328743171 0 -0.6560590369687036 1 I I #
point $-1 47.284362940130421 6.8595008316698838 9.4895994229777738 #
edge $-1 $276 1 $276 0 $152 $-1 forward 7 unknown #
vertex $-1 $153 $277 #
ellipse-curve $-1 43.954611135220262 9.8705018076973019 7.1834112926723952 0.6560590369687036 0 0.75470957328743171 0.75470957328743171 0 -0.6560590369687036 1 I I #
point $-1 47.284362940130421 9.8705018076973019 9.4895994229777738 #
plane-surface $-1 50.200506607257303 0 0 -1 0 0 0 0 1 forward_v I I I I #
coedge $-1 $161 $159 $163 $235 reversed $101 $-1 #
edge $-1 $174 -13.336682566437386 $237 13.336682566437386 $173 $278 forward 7 unknown #
vertex $-1 $235 $279 #
straight-curve $-1 -50.200506607257303 -29.792752821050705 0 0 0 -1 I I #
edge $-1 $233 -29.792752821050705 $237 29.792752821050705 $231 $280 forward 7 unknown #
straight-curve $-1 0 -29.792752821050705 -13.336682566437386 -1 0 0 I I #
vertex $-1 $166 $281 #
straight-curve $-1 0 29.792752821050705 -13.336682566437386 1 0 0 I I #
point $-1 50.200506607257303 29.792752821050705 -13.336682566437386 #
point $-1 50.200506607257303 -29.792752821050705 -13.336682566437386 #
straight-curve $-1 -50.200506607257303 0 13.336682566437386 0 -1 0 I I #
point $-1 -50.200506607257303 29.792752821050705 13.336682566437386 #
point $-1 -50.200506607257303 -29.792752821050705 13.336682566437386 #
straight-curve $-1 50.200506607257303 -29.792752821050705 0 0 0 -1 I I #
straight-curve $-1 50.200506607257303 29.792752821050705 0 0 0 -1 I I #
plane-surface $-1 0 -29.792752821050705 0 0 1 0 0 0 1 forward_v I I I I #
coedge $-1 $282 $186 $250 $283 reversed $120 $-1 #
coedge $-1 $186 $282 $200 $261 reversed $120 $-1 #
edge $-1 $253 -3.2220581744037684 $251 3.2220581744037684 $187 $284 forward 7 unknown #
coedge $-1 $188 $256 $247 $283 forward $184 $-1 #
vertex $-1 $189 $285 #
straight-curve $-1 0 29.792752821050705 -13.336682566437386 1 0 0 I I #
vertex $-1 $190 $286 #
straight-curve $-1 -56.432730596554137 29.792752821050705 -6.8925662176298488 -1 0 0 I I #
point $-1 -50.200506607257303 29.792752821050705 -13.336682566437386 #
coedge $-1 $250 $193 $196 $259 forward $184 $-1 #
straight-curve $-1 -50.200506607257303 0 -13.336682566437386 0 -1 0 I I #
coedge $-1 $196 $195 $282 $287 forward $197 $-1 #
edge $-1 $198 -6.2322239892968341 $288 6.2322239892968341 $196 $289 forward 7 unknown #
point $-1 -50.200506607257303 -29.792752821050705 -13.336682566437386 #
edge $-1 $253 -29.792752821050705 $262 29.792752821050705 $248 $290 forward 7 unknown #
vertex $-1 $261 $291 #
straight-curve $-1 -56.432730596554137 -29.792752821050705 -6.8925662176298488 1 0 0 I I #
coedge $-1 $215 $214 $207 $265 forward $204 $-1 #
edge $-1 $266 60.961933550764712 $269 67.343981763746541 $264 $292 forward 7 unknown #
vertex $-1 $219 $293 #
straight-curve $-1 20.147946403350868 4.8521668476516062 13.336682566437389 1 0 0 I I #
edge $-1 $269 0.6696661878098098 $216 7.695335131873783 $215 $294 forward 7 unknown #
vertex $-1 $268 $295 #
straight-curve $-1 -25.573099233494794 4.8521668476516062 72.823626393652091 -0.75470957328743171 0 0.6560590369687036 I I #
point $-1 42.858800126428669 4.8521668476516062 13.336682566437389 #
point $-1 50.200506607257303 11.877835791715579 6.9546343534555604 #
straight-curve $-1 50.200506607257303 0 13.336682566437386 0 1 0 I I #
vertex $-1 $222 $296 #
point $-1 44.709320708507697 6.8595008316698838 6.5273522557036916 #
vertex $-1 $226 $297 #
point $-1 44.709320708507697 9.8705018076973019 6.5273522557036916 #
straight-curve $-1 -50.200506607257303 29.792752821050705 0 0 0 -1 I I #
point $-1 -50.200506607257303 -29.792752821050705 -13.336682566437386 #
straight-curve $-1 -50.200506607257303 0 -13.336682566437386 0 1 0 I I #
point $-1 -50.200506607257303 29.792752821050705 -13.336682566437386 #
coedge $-1 $248 $247 $258 $287 reversed $120 $-1 #
edge $-1 $288 -29.792752821050705 $251 29.792752821050705 $247 $298 forward 7 unknown #
straight-curve $-1 -62.664954585850971 29.792752821050705 -10.114624392033617 0 0 -1 I I #
point $-1 -62.664954585850971 29.792752821050705 -13.336682566437386 #
point $-1 -62.664954585850971 29.792752821050705 -6.8925662176298488 #
edge $-1 $262 -3.2220581744037684 $288 3.2220581744037684 $282 $299 forward 7 unknown #
vertex $-1 $283 $300 #
straight-curve $-1 -56.432730596554137 -29.792752821050705 -13.336682566437386 -1 0 0 I I #
straight-curve $-1 -62.664954585850971 0 -6.8925662176298488 0 -1 0 I I #
point $-1 -62.664954585850971 -29.792752821050705 -6.8925662176298488 #
straight-curve $-1 50.200506607257303 4.8521668476516062 74.298616117202101 0 0 -1 I I #
point $-1 50.200506607257303 4.8521668476516062 13.336682566437386 #
straight-curve $-1 50.200506607257303 4.1825006598417964 6.9546343534555639 0 1 0 I I #
point $-1 50.200506607257303 4.8521668476516062 6.9546343534555604 #
point $-1 43.298552098251562 6.8595008316698838 6.4287017193849616 #
point $-1 43.298552098251562 9.8705018076973019 6.4287017193849616 #
straight-curve $-1 -62.664954585850971 0 -13.336682566437386 0 1 0 I I #
straight-curve $-1 -62.664954585850971 -29.792752821050705 -10.114624392033617 0 0 -1 I I #
point $-1 -62.664954585850971 -29.792752821050705 -13.336682566437386 #
End-of-ACIS-data 